tick,type,data,time,meta,track,frame_rate,hours,minutes,seconds,frames,sub_frames,port,key,tempo,numerator,denominator,clocks_per_click,notated_32nd_notes_per_beat,control,value,channel,program,note,velocity
0,sequencer_specific,"(0, 0, 91, 35, 1, 0, 5, 4, 35, 0)",0,1,0,,,,,,,,,,,,,,,,,,,
0,control_change,,0,0,10,,,,,,,,,,,,,,10,96,13,,,
0,program_change,,0,0,10,,,,,,,,,,,,,,,,13,48,,
0,note_on,,0,0,10,,,,,,,,,,,,,,,,13,,48,72
0,program_change,,0,0,6,,,,,,,,,,,,,,,,8,60,,
0,control_change,,0,0,6,,,,,,,,,,,,,,7,112,8,,,
0,control_change,,0,0,6,,,,,,,,,,,,,,10,75,8,,,
0,control_change,,0,0,6,,,,,,,,,,,,,,11,127,8,,,
0,midi_port,,0,1,6,,,,,,,0,,,,,,,,,,,,
0,track_name,,0,1,6,,,,,,,,,,,,,,,,,,,
0,track_name,,0,1,11,,,,,,,,,,,,,,,,,,,
0,midi_port,,0,1,11,,,,,,,0,,,,,,,,,,,,
0,control_change,,0,0,11,,,,,,,,,,,,,,11,127,15,,,
0,control_change,,0,0,11,,,,,,,,,,,,,,7,96,15,,,
0,control_change,,0,0,11,,,,,,,,,,,,,,10,90,15,,,
0,program_change,,0,0,11,,,,,,,,,,,,,,,,15,6,,
0,note_on,,0,0,11,,,,,,,,,,,,,,,,15,,48,72
0,note_on,,0,0,11,,,,,,,,,,,,,,,,15,,60,72
0,control_change,,0,0,10,,,,,,,,,,,,,,7,96,13,,,
0,control_change,,0,0,10,,,,,,,,,,,,,,11,127,13,,,
0,midi_port,,0,1,10,,,,,,,0,,,,,,,,,,,,
0,track_name,,0,1,10,,,,,,,,,,,,,,,,,,,
0,control_change,,0,0,8,,,,,,,,,,,,,,11,127,11,,,
0,control_change,,0,0,8,,,,,,,,,,,,,,7,96,11,,,
0,control_change,,0,0,8,,,,,,,,,,,,,,10,24,11,,,
0,program_change,,0,0,8,,,,,,,,,,,,,,,,11,48,,
0,track_name,,0,1,9,,,,,,,,,,,,,,,,,,,
0,midi_port,,0,1,9,,,,,,,0,,,,,,,,,,,,
0,control_change,,0,0,9,,,,,,,,,,,,,,11,127,12,,,
0,control_change,,0,0,9,,,,,,,,,,,,,,7,96,12,,,
0,note_on,,0,0,11,,,,,,,,,,,,,,,,15,,55,72
0,control_change,,0,0,9,,,,,,,,,,,,,,10,80,12,,,
0,note_on,,0,0,7,,,,,,,,,,,,,,,,10,,60,72
0,program_change,,0,0,7,,,,,,,,,,,,,,,,10,48,,
0,control_change,,0,0,7,,,,,,,,,,,,,,10,48,10,,,
0,control_change,,0,0,7,,,,,,,,,,,,,,7,96,10,,,
0,control_change,,0,0,7,,,,,,,,,,,,,,11,127,10,,,
0,midi_port,,0,1,7,,,,,,,0,,,,,,,,,,,,
0,track_name,,0,1,7,,,,,,,,,,,,,,,,,,,
0,midi_port,,0,1,8,,,,,,,0,,,,,,,,,,,,
0,program_change,,0,0,9,,,,,,,,,,,,,,,,12,48,,
0,note_on,,0,0,11,,,,,,,,,,,,,,,,15,,52,72
0,track_name,,0,1,8,,,,,,,,,,,,,,,,,,,
0,key_signature,,0,1,0,,,,,,,,C,,,,,,,,,,,
0,end_of_track,,0,1,1,,,,,,,,,,,,,,,,,,,
0,track_name,,0,1,2,,,,,,,,,,,,,,,,,,,
0,midi_port,,0,1,2,,,,,,,0,,,,,,,,,,,,
0,end_of_track,,0,1,2,,,,,,,,,,,,,,,,,,,
0,track_name,,0,1,3,,,,,,,,,,,,,,,,,,,
0,midi_port,,0,1,3,,,,,,,0,,,,,,,,,,,,
0,end_of_track,,0,1,3,,,,,,,,,,,,,,,,,,,
0,midi_port,,0,1,4,,,,,,,0,,,,,,,,,,,,
0,end_of_track,,0,1,4,,,,,,,,,,,,,,,,,,,
0,track_name,,0,1,5,,,,,,,,,,,,,,,,,,,
0,midi_port,,0,1,5,,,,,,,0,,,,,,,,,,,,
0,control_change,,0,0,5,,,,,,,,,,,,,,7,80,2,,,
0,control_change,,0,0,5,,,,,,,,,,,,,,10,65,2,,,
0,program_change,,0,0,5,,,,,,,,,,,,,,,,2,70,,
0,control_change,,0,0,5,,,,,,,,,,,,,,11,127,2,,,
0,note_on,,0,0,5,,,,,,,,,,,,,,,,2,,48,72
0,set_tempo,,0,1,0,,,,,,,,,400000,,,,,,,,,,
0,track_name,,0,1,0,,,,,,,,,,,,,,,,,,,
0,instrument_name,,0,1,0,,,,,,,,,,,,,,,,,,,
0,smpte_offset,,0,1,0,25,32,0,3,0,0,,,,,,,,,,,,,
0,midi_port,,0,1,0,,,,,,,0,,,,,,,,,,,,
0,midi_port,,0,1,1,,,,,,,0,,,,,,,,,,,,
0,track_name,,0,1,1,,,,,,,,,,,,,,,,,,,
0,end_of_track,,0,1,0,,,,,,,,,,,,,,,,,,,
0,time_signature,,0,1,0,,,,,,,,,,4,4,24,8,,,,,,
29,note_on,,29,0,7,,,,,,,,,,,,,,,,10,,60,0
30,note_on,,1,0,7,,,,,,,,,,,,,,,,10,,60,72
59,note_on,,59,0,11,,,,,,,,,,,,,,,,15,,48,0
59,note_on,,29,0,7,,,,,,,,,,,,,,,,10,,60,0
59,note_on,,59,0,5,,,,,,,,,,,,,,,,2,,48,0
59,note_on,,59,0,10,,,,,,,,,,,,,,,,13,,48,0
60,note_on,,1,0,10,,,,,,,,,,,,,,,,13,,48,72
60,note_on,,1,0,7,,,,,,,,,,,,,,,,10,,60,72
60,note_on,,1,0,5,,,,,,,,,,,,,,,,2,,48,72
60,note_on,,1,0,11,,,,,,,,,,,,,,,,15,,48,72
89,note_on,,29,0,7,,,,,,,,,,,,,,,,10,,60,0
90,note_on,,1,0,7,,,,,,,,,,,,,,,,10,,60,72
119,note_on,,59,0,11,,,,,,,,,,,,,,,,15,,48,0
119,note_on,,59,0,10,,,,,,,,,,,,,,,,13,,48,0
119,note_on,,59,0,5,,,,,,,,,,,,,,,,2,,48,0
119,note_on,,29,0,7,,,,,,,,,,,,,,,,10,,60,0
120,note_on,,1,0,5,,,,,,,,,,,,,,,,2,,48,72
120,note_on,,1,0,11,,,,,,,,,,,,,,,,15,,48,72
120,note_on,,1,0,7,,,,,,,,,,,,,,,,10,,60,72
120,note_on,,1,0,10,,,,,,,,,,,,,,,,13,,48,72
149,note_on,,29,0,7,,,,,,,,,,,,,,,,10,,60,0
150,note_on,,1,0,7,,,,,,,,,,,,,,,,10,,60,72
179,note_on,,29,0,7,,,,,,,,,,,,,,,,10,,60,0
179,note_on,,59,0,11,,,,,,,,,,,,,,,,15,,48,0
179,note_on,,59,0,10,,,,,,,,,,,,,,,,13,,48,0
179,note_on,,59,0,5,,,,,,,,,,,,,,,,2,,48,0
180,note_on,,1,0,7,,,,,,,,,,,,,,,,10,,60,72
180,note_on,,1,0,11,,,,,,,,,,,,,,,,15,,48,72
180,note_on,,1,0,5,,,,,,,,,,,,,,,,2,,48,72
180,note_on,,1,0,10,,,,,,,,,,,,,,,,13,,48,72
209,note_on,,29,0,7,,,,,,,,,,,,,,,,10,,60,0
210,note_on,,1,0,7,,,,,,,,,,,,,,,,10,,60,72
239,note_on,,0,0,11,,,,,,,,,,,,,,,,15,,55,0
239,note_on,,59,0,11,,,,,,,,,,,,,,,,15,,60,0
239,note_on,,0,0,11,,,,,,,,,,,,,,,,15,,52,0
239,note_on,,0,0,11,,,,,,,,,,,,,,,,15,,48,0
239,note_on,,59,0,5,,,,,,,,,,,,,,,,2,,48,0
239,note_on,,29,0,7,,,,,,,,,,,,,,,,10,,60,0
239,note_on,,59,0,10,,,,,,,,,,,,,,,,13,,48,0
240,note_on,,1,0,10,,,,,,,,,,,,,,,,13,,48,72
240,note_on,,240,0,9,,,,,,,,,,,,,,,,12,,60,72
240,note_on,,240,0,8,,,,,,,,,,,,,,,,11,,60,72
240,note_on,,1,0,11,,,,,,,,,,,,,,,,15,,48,72
240,note_on,,0,0,11,,,,,,,,,,,,,,,,15,,55,72
240,note_on,,0,0,11,,,,,,,,,,,,,,,,15,,52,72
240,note_on,,1,0,7,,,,,,,,,,,,,,,,10,,64,72
240,note_on,,1,0,5,,,,,,,,,,,,,,,,2,,48,72
269,note_on,,29,0,9,,,,,,,,,,,,,,,,12,,60,0
269,note_on,,29,0,8,,,,,,,,,,,,,,,,11,,60,0
269,note_on,,29,0,7,,,,,,,,,,,,,,,,10,,64,0
270,note_on,,1,0,7,,,,,,,,,,,,,,,,10,,64,72
270,note_on,,1,0,8,,,,,,,,,,,,,,,,11,,60,72
270,note_on,,1,0,9,,,,,,,,,,,,,,,,12,,60,72
299,note_on,,29,0,7,,,,,,,,,,,,,,,,10,,64,0
299,note_on,,29,0,9,,,,,,,,,,,,,,,,12,,60,0
299,note_on,,59,0,11,,,,,,,,,,,,,,,,15,,48,0
299,note_on,,29,0,8,,,,,,,,,,,,,,,,11,,60,0
299,note_on,,59,0,10,,,,,,,,,,,,,,,,13,,48,0
299,note_on,,59,0,5,,,,,,,,,,,,,,,,2,,48,0
300,note_on,,1,0,11,,,,,,,,,,,,,,,,15,,48,72
300,note_on,,1,0,5,,,,,,,,,,,,,,,,2,,48,72
300,note_on,,1,0,7,,,,,,,,,,,,,,,,10,,64,72
300,note_on,,1,0,10,,,,,,,,,,,,,,,,13,,48,72
300,note_on,,1,0,8,,,,,,,,,,,,,,,,11,,60,72
300,note_on,,1,0,9,,,,,,,,,,,,,,,,12,,60,72
329,note_on,,29,0,8,,,,,,,,,,,,,,,,11,,60,0
329,note_on,,29,0,7,,,,,,,,,,,,,,,,10,,64,0
329,note_on,,29,0,9,,,,,,,,,,,,,,,,12,,60,0
330,note_on,,1,0,7,,,,,,,,,,,,,,,,10,,64,72
330,note_on,,1,0,9,,,,,,,,,,,,,,,,12,,60,72
330,note_on,,1,0,8,,,,,,,,,,,,,,,,11,,60,72
359,note_on,,29,0,8,,,,,,,,,,,,,,,,11,,60,0
359,note_on,,0,0,11,,,,,,,,,,,,,,,,15,,48,0
359,note_on,,59,0,5,,,,,,,,,,,,,,,,2,,48,0
359,note_on,,59,0,10,,,,,,,,,,,,,,,,13,,48,0
359,note_on,,0,0,11,,,,,,,,,,,,,,,,15,,52,0
359,note_on,,29,0,9,,,,,,,,,,,,,,,,12,,60,0
359,note_on,,59,0,11,,,,,,,,,,,,,,,,15,,55,0
359,note_on,,29,0,7,,,,,,,,,,,,,,,,10,,64,0
360,note_on,,0,0,11,,,,,,,,,,,,,,,,15,,60,72
360,note_on,,1,0,11,,,,,,,,,,,,,,,,15,,48,72
360,note_on,,1,0,10,,,,,,,,,,,,,,,,13,,48,72
360,note_on,,1,0,7,,,,,,,,,,,,,,,,10,,67,72
360,note_on,,0,0,11,,,,,,,,,,,,,,,,15,,52,72
360,note_on,,1,0,5,,,,,,,,,,,,,,,,2,,48,72
360,note_on,,0,0,11,,,,,,,,,,,,,,,,15,,55,72
360,note_on,,1,0,9,,,,,,,,,,,,,,,,12,,64,72
360,note_on,,1,0,8,,,,,,,,,,,,,,,,11,,60,72
389,note_on,,29,0,8,,,,,,,,,,,,,,,,11,,60,0
389,note_on,,29,0,7,,,,,,,,,,,,,,,,10,,67,0
389,note_on,,29,0,9,,,,,,,,,,,,,,,,12,,64,0
390,note_on,,1,0,7,,,,,,,,,,,,,,,,10,,67,72
390,note_on,,1,0,8,,,,,,,,,,,,,,,,11,,60,72
390,note_on,,1,0,9,,,,,,,,,,,,,,,,12,,64,72
419,note_on,,29,0,9,,,,,,,,,,,,,,,,12,,64,0
419,note_on,,29,0,8,,,,,,,,,,,,,,,,11,,60,0
419,note_on,,59,0,10,,,,,,,,,,,,,,,,13,,48,0
419,note_on,,59,0,5,,,,,,,,,,,,,,,,2,,48,0
419,note_on,,59,0,11,,,,,,,,,,,,,,,,15,,48,0
419,note_on,,29,0,7,,,,,,,,,,,,,,,,10,,67,0
420,note_on,,1,0,7,,,,,,,,,,,,,,,,10,,67,72
420,note_on,,1,0,5,,,,,,,,,,,,,,,,2,,48,72
420,note_on,,1,0,9,,,,,,,,,,,,,,,,12,,64,72
420,note_on,,1,0,10,,,,,,,,,,,,,,,,13,,48,72
420,note_on,,1,0,8,,,,,,,,,,,,,,,,11,,60,72
420,note_on,,1,0,11,,,,,,,,,,,,,,,,15,,48,72
449,note_on,,29,0,7,,,,,,,,,,,,,,,,10,,67,0
449,note_on,,29,0,9,,,,,,,,,,,,,,,,12,,64,0
449,note_on,,29,0,8,,,,,,,,,,,,,,,,11,,60,0
450,note_on,,1,0,7,,,,,,,,,,,,,,,,10,,67,72
450,note_on,,1,0,9,,,,,,,,,,,,,,,,12,,64,72
450,note_on,,1,0,8,,,,,,,,,,,,,,,,11,,60,72
479,note_on,,0,0,11,,,,,,,,,,,,,,,,15,,60,0
479,note_on,,29,0,8,,,,,,,,,,,,,,,,11,,60,0
479,note_on,,0,0,11,,,,,,,,,,,,,,,,15,,52,0
479,note_on,,59,0,11,,,,,,,,,,,,,,,,15,,55,0
479,note_on,,29,0,9,,,,,,,,,,,,,,,,12,,64,0
479,note_on,,29,0,7,,,,,,,,,,,,,,,,10,,67,0
479,note_on,,59,0,10,,,,,,,,,,,,,,,,13,,48,0
479,note_on,,0,0,11,,,,,,,,,,,,,,,,15,,48,0
479,note_on,,59,0,5,,,,,,,,,,,,,,,,2,,48,0
480,note_on,,1,0,7,,,,,,,,,,,,,,,,10,,72,72
480,note_on,,1,0,10,,,,,,,,,,,,,,,,13,,48,72
480,note_on,,1,0,9,,,,,,,,,,,,,,,,12,,67,72
480,note_on,,0,0,11,,,,,,,,,,,,,,,,15,,55,72
480,note_on,,0,0,11,,,,,,,,,,,,,,,,15,,60,72
480,note_on,,0,0,11,,,,,,,,,,,,,,,,15,,64,72
480,note_on,,1,0,11,,,,,,,,,,,,,,,,15,,48,72
480,note_on,,1,0,5,,,,,,,,,,,,,,,,2,,48,72
480,note_on,,1,0,8,,,,,,,,,,,,,,,,11,,64,72
509,note_on,,29,0,8,,,,,,,,,,,,,,,,11,,64,0
509,note_on,,29,0,7,,,,,,,,,,,,,,,,10,,72,0
509,note_on,,29,0,9,,,,,,,,,,,,,,,,12,,67,0
510,note_on,,1,0,8,,,,,,,,,,,,,,,,11,,64,72
510,note_on,,1,0,7,,,,,,,,,,,,,,,,10,,72,72
510,note_on,,1,0,9,,,,,,,,,,,,,,,,12,,67,72
539,note_on,,59,0,11,,,,,,,,,,,,,,,,15,,48,0
539,note_on,,29,0,9,,,,,,,,,,,,,,,,12,,67,0
539,note_on,,59,0,5,,,,,,,,,,,,,,,,2,,48,0
539,note_on,,29,0,8,,,,,,,,,,,,,,,,11,,64,0
539,note_on,,29,0,7,,,,,,,,,,,,,,,,10,,72,0
539,note_on,,59,0,10,,,,,,,,,,,,,,,,13,,48,0
540,note_on,,1,0,11,,,,,,,,,,,,,,,,15,,48,72
540,note_on,,1,0,10,,,,,,,,,,,,,,,,13,,48,72
540,note_on,,1,0,8,,,,,,,,,,,,,,,,11,,67,72
540,note_on,,1,0,9,,,,,,,,,,,,,,,,12,,67,72
540,note_on,,1,0,7,,,,,,,,,,,,,,,,10,,71,72
540,note_on,,1,0,5,,,,,,,,,,,,,,,,2,,48,72
569,note_on,,29,0,7,,,,,,,,,,,,,,,,10,,71,0
569,note_on,,29,0,8,,,,,,,,,,,,,,,,11,,67,0
569,note_on,,29,0,9,,,,,,,,,,,,,,,,12,,67,0
570,note_on,,1,0,9,,,,,,,,,,,,,,,,12,,67,72
570,note_on,,1,0,7,,,,,,,,,,,,,,,,10,,71,72
570,note_on,,1,0,8,,,,,,,,,,,,,,,,11,,67,72
599,note_on,,59,0,10,,,,,,,,,,,,,,,,13,,48,0
599,note_on,,29,0,8,,,,,,,,,,,,,,,,11,,67,0
599,note_on,,29,0,9,,,,,,,,,,,,,,,,12,,67,0
599,note_on,,59,0,11,,,,,,,,,,,,,,,,15,,48,0
599,note_on,,59,0,5,,,,,,,,,,,,,,,,2,,48,0
599,note_on,,29,0,7,,,,,,,,,,,,,,,,10,,71,0
600,note_on,,1,0,10,,,,,,,,,,,,,,,,13,,48,72
600,note_on,,1,0,9,,,,,,,,,,,,,,,,12,,60,72
600,note_on,,1,0,11,,,,,,,,,,,,,,,,15,,48,72
600,note_on,,1,0,8,,,,,,,,,,,,,,,,11,,69,72
600,note_on,,1,0,5,,,,,,,,,,,,,,,,2,,48,72
600,note_on,,1,0,7,,,,,,,,,,,,,,,,10,,72,72
629,note_on,,29,0,7,,,,,,,,,,,,,,,,10,,72,0
629,note_on,,29,0,8,,,,,,,,,,,,,,,,11,,69,0
629,note_on,,29,0,9,,,,,,,,,,,,,,,,12,,60,0
630,note_on,,1,0,9,,,,,,,,,,,,,,,,12,,60,72
630,note_on,,1,0,8,,,,,,,,,,,,,,,,11,,69,72
630,note_on,,1,0,7,,,,,,,,,,,,,,,,10,,72,72
659,note_on,,29,0,7,,,,,,,,,,,,,,,,10,,72,0
659,note_on,,59,0,5,,,,,,,,,,,,,,,,2,,48,0
659,note_on,,29,0,9,,,,,,,,,,,,,,,,12,,60,0
659,note_on,,59,0,10,,,,,,,,,,,,,,,,13,,48,0
659,note_on,,29,0,8,,,,,,,,,,,,,,,,11,,69,0
659,note_on,,59,0,11,,,,,,,,,,,,,,,,15,,48,0
660,note_on,,1,0,10,,,,,,,,,,,,,,,,13,,48,72
660,note_on,,1,0,5,,,,,,,,,,,,,,,,2,,48,72
660,note_on,,1,0,7,,,,,,,,,,,,,,,,10,,74,72
660,note_on,,1,0,8,,,,,,,,,,,,,,,,11,,71,72
660,note_on,,1,0,11,,,,,,,,,,,,,,,,15,,48,72
660,note_on,,1,0,9,,,,,,,,,,,,,,,,12,,55,72
689,note_on,,29,0,9,,,,,,,,,,,,,,,,12,,55,0
689,note_on,,29,0,8,,,,,,,,,,,,,,,,11,,71,0
689,note_on,,29,0,7,,,,,,,,,,,,,,,,10,,74,0
690,note_on,,1,0,7,,,,,,,,,,,,,,,,10,,74,72
690,note_on,,1,0,8,,,,,,,,,,,,,,,,11,,71,72
690,note_on,,1,0,9,,,,,,,,,,,,,,,,12,,55,72
719,note_on,,29,0,8,,,,,,,,,,,,,,,,11,,71,0
719,note_on,,59,0,5,,,,,,,,,,,,,,,,2,,48,0
719,note_on,,29,0,7,,,,,,,,,,,,,,,,10,,74,0
719,note_on,,0,0,11,,,,,,,,,,,,,,,,15,,48,0
719,note_on,,0,0,11,,,,,,,,,,,,,,,,15,,55,0
719,note_on,,59,0,11,,,,,,,,,,,,,,,,15,,64,0
719,note_on,,0,0,11,,,,,,,,,,,,,,,,15,,60,0
719,note_on,,29,0,9,,,,,,,,,,,,,,,,12,,55,0
719,note_on,,59,0,10,,,,,,,,,,,,,,,,13,,48,0
720,note_on,,1,0,9,,,,,,,,,,,,,,,,12,,60,72
720,note_on,,1,0,7,,,,,,,,,,,,,,,,10,,76,72
720,note_on,,0,0,11,,,,,,,,,,,,,,,,15,,67,72
720,note_on,,1,0,10,,,,,,,,,,,,,,,,13,,48,72
720,note_on,,0,0,11,,,,,,,,,,,,,,,,15,,60,72
720,note_on,,1,0,11,,,,,,,,,,,,,,,,15,,48,72
720,note_on,,0,0,11,,,,,,,,,,,,,,,,15,,52,72
720,note_on,,1,0,8,,,,,,,,,,,,,,,,11,,72,72
720,note_on,,1,0,5,,,,,,,,,,,,,,,,2,,48,72
749,note_on,,29,0,9,,,,,,,,,,,,,,,,12,,60,0
750,note_on,,1,0,9,,,,,,,,,,,,,,,,12,,60,72
779,note_on,,59,0,10,,,,,,,,,,,,,,,,13,,48,0
779,note_on,,59,0,11,,,,,,,,,,,,,,,,15,,48,0
779,note_on,,59,0,8,,,,,,,,,,,,,,,,11,,72,0
779,note_on,,59,0,5,,,,,,,,,,,,,,,,2,,48,0
779,note_on,,59,0,7,,,,,,,,,,,,,,,,10,,76,0
779,note_on,,29,0,9,,,,,,,,,,,,,,,,12,,60,0
780,note_on,,1,0,8,,,,,,,,,,,,,,,,11,,60,72
780,note_on,,1,0,10,,,,,,,,,,,,,,,,13,,48,72
780,note_on,,1,0,11,,,,,,,,,,,,,,,,15,,48,72
780,note_on,,1,0,9,,,,,,,,,,,,,,,,12,,60,72
780,note_on,,1,0,7,,,,,,,,,,,,,,,,10,,60,72
780,note_on,,1,0,5,,,,,,,,,,,,,,,,2,,48,72
809,note_on,,29,0,7,,,,,,,,,,,,,,,,10,,60,0
809,note_on,,29,0,8,,,,,,,,,,,,,,,,11,,60,0
809,note_on,,29,0,9,,,,,,,,,,,,,,,,12,,60,0
810,note_on,,1,0,9,,,,,,,,,,,,,,,,12,,60,72
810,note_on,,1,0,7,,,,,,,,,,,,,,,,10,,60,72
810,note_on,,1,0,8,,,,,,,,,,,,,,,,11,,60,72
839,note_on,,59,0,11,,,,,,,,,,,,,,,,15,,48,0
839,note_on,,59,0,5,,,,,,,,,,,,,,,,2,,48,0
839,note_on,,29,0,9,,,,,,,,,,,,,,,,12,,60,0
839,note_on,,29,0,7,,,,,,,,,,,,,,,,10,,60,0
839,note_on,,59,0,10,,,,,,,,,,,,,,,,13,,48,0
839,note_on,,29,0,8,,,,,,,,,,,,,,,,11,,60,0
840,note_on,,1,0,11,,,,,,,,,,,,,,,,15,,48,72
840,note_on,,1,0,8,,,,,,,,,,,,,,,,11,,60,72
840,note_on,,1,0,5,,,,,,,,,,,,,,,,2,,48,72
840,note_on,,1,0,7,,,,,,,,,,,,,,,,10,,60,72
840,note_on,,1,0,9,,,,,,,,,,,,,,,,12,,60,72
840,note_on,,1,0,10,,,,,,,,,,,,,,,,13,,48,72
869,note_on,,29,0,7,,,,,,,,,,,,,,,,10,,60,0
869,note_on,,29,0,8,,,,,,,,,,,,,,,,11,,60,0
869,note_on,,29,0,9,,,,,,,,,,,,,,,,12,,60,0
870,note_on,,1,0,7,,,,,,,,,,,,,,,,10,,60,72
870,note_on,,1,0,8,,,,,,,,,,,,,,,,11,,60,72
870,note_on,,1,0,9,,,,,,,,,,,,,,,,12,,60,72
899,note_on,,29,0,7,,,,,,,,,,,,,,,,10,,60,0
899,note_on,,29,0,9,,,,,,,,,,,,,,,,12,,60,0
899,note_on,,59,0,5,,,,,,,,,,,,,,,,2,,48,0
899,note_on,,59,0,11,,,,,,,,,,,,,,,,15,,48,0
899,note_on,,29,0,8,,,,,,,,,,,,,,,,11,,60,0
899,note_on,,59,0,10,,,,,,,,,,,,,,,,13,,48,0
900,note_on,,1,0,10,,,,,,,,,,,,,,,,13,,48,72
900,note_on,,1,0,9,,,,,,,,,,,,,,,,12,,60,72
900,note_on,,1,0,8,,,,,,,,,,,,,,,,11,,60,72
900,note_on,,1,0,5,,,,,,,,,,,,,,,,2,,48,72
900,note_on,,1,0,11,,,,,,,,,,,,,,,,15,,48,72
900,note_on,,1,0,7,,,,,,,,,,,,,,,,10,,60,72
929,note_on,,29,0,9,,,,,,,,,,,,,,,,12,,60,0
929,note_on,,29,0,7,,,,,,,,,,,,,,,,10,,60,0
929,note_on,,29,0,8,,,,,,,,,,,,,,,,11,,60,0
930,note_on,,1,0,9,,,,,,,,,,,,,,,,12,,60,72
930,note_on,,1,0,7,,,,,,,,,,,,,,,,10,,60,72
930,note_on,,1,0,8,,,,,,,,,,,,,,,,11,,60,72
959,note_on,,29,0,7,,,,,,,,,,,,,,,,10,,60,0
959,note_on,,0,0,11,,,,,,,,,,,,,,,,15,,60,0
959,note_on,,59,0,11,,,,,,,,,,,,,,,,15,,52,0
959,note_on,,59,0,10,,,,,,,,,,,,,,,,13,,48,0
959,note_on,,0,0,11,,,,,,,,,,,,,,,,15,,48,0
959,note_on,,29,0,8,,,,,,,,,,,,,,,,11,,60,0
959,note_on,,59,0,5,,,,,,,,,,,,,,,,2,,48,0
959,note_on,,29,0,9,,,,,,,,,,,,,,,,12,,60,0
959,note_on,,0,0,11,,,,,,,,,,,,,,,,15,,67,0
960,note_on,,0,0,11,,,,,,,,,,,,,,,,15,,55,72
960,note_on,,1,0,8,,,,,,,,,,,,,,,,11,,60,72
960,note_on,,1,0,11,,,,,,,,,,,,,,,,15,,48,72
960,note_on,,1,0,9,,,,,,,,,,,,,,,,12,,60,72
960,note_on,,1,0,7,,,,,,,,,,,,,,,,10,,60,72
960,note_on,,1,0,10,,,,,,,,,,,,,,,,13,,48,72
960,note_on,,0,0,11,,,,,,,,,,,,,,,,15,,64,72
960,note_on,,1,0,5,,,,,,,,,,,,,,,,2,,48,72
960,note_on,,0,0,11,,,,,,,,,,,,,,,,15,,72,72
989,note_on,,29,0,9,,,,,,,,,,,,,,,,12,,60,0
990,note_on,,1,0,9,,,,,,,,,,,,,,,,12,,60,72
1019,note_on,,29,0,9,,,,,,,,,,,,,,,,12,,60,0
1019,note_on,,59,0,10,,,,,,,,,,,,,,,,13,,48,0
1019,note_on,,59,0,8,,,,,,,,,,,,,,,,11,,60,0
1019,note_on,,59,0,11,,,,,,,,,,,,,,,,15,,48,0
1019,note_on,,59,0,7,,,,,,,,,,,,,,,,10,,60,0
1019,note_on,,59,0,5,,,,,,,,,,,,,,,,2,,48,0
1020,note_on,,1,0,11,,,,,,,,,,,,,,,,15,,48,72
1020,note_on,,1,0,10,,,,,,,,,,,,,,,,13,,48,72
1020,note_on,,1,0,9,,,,,,,,,,,,,,,,12,,55,72
1020,note_on,,1,0,5,,,,,,,,,,,,,,,,2,,48,72
1020,note_on,,1,0,8,,,,,,,,,,,,,,,,11,,71,72
1020,note_on,,1,0,7,,,,,,,,,,,,,,,,10,,74,72
1049,note_on,,29,0,9,,,,,,,,,,,,,,,,12,,55,0
1049,note_on,,29,0,8,,,,,,,,,,,,,,,,11,,71,0
1049,note_on,,29,0,7,,,,,,,,,,,,,,,,10,,74,0
1050,note_on,,1,0,8,,,,,,,,,,,,,,,,11,,71,72
1050,note_on,,1,0,7,,,,,,,,,,,,,,,,10,,74,72
1050,note_on,,1,0,9,,,,,,,,,,,,,,,,12,,55,72
1079,note_on,,29,0,9,,,,,,,,,,,,,,,,12,,55,0
1079,note_on,,59,0,5,,,,,,,,,,,,,,,,2,,48,0
1079,note_on,,59,0,10,,,,,,,,,,,,,,,,13,,48,0
1079,note_on,,29,0,8,,,,,,,,,,,,,,,,11,,71,0
1079,note_on,,29,0,7,,,,,,,,,,,,,,,,10,,74,0
1079,note_on,,59,0,11,,,,,,,,,,,,,,,,15,,48,0
1080,note_on,,1,0,5,,,,,,,,,,,,,,,,2,,48,72
1080,note_on,,1,0,8,,,,,,,,,,,,,,,,11,,72,72
1080,note_on,,1,0,9,,,,,,,,,,,,,,,,12,,60,72
1080,note_on,,1,0,11,,,,,,,,,,,,,,,,15,,48,72
1080,note_on,,1,0,10,,,,,,,,,,,,,,,,13,,48,72
1080,note_on,,1,0,7,,,,,,,,,,,,,,,,10,,76,72
1109,note_on,,29,0,7,,,,,,,,,,,,,,,,10,,76,0
1109,note_on,,29,0,8,,,,,,,,,,,,,,,,11,,72,0
1109,note_on,,29,0,9,,,,,,,,,,,,,,,,12,,60,0
1110,note_on,,1,0,9,,,,,,,,,,,,,,,,12,,60,72
1110,note_on,,1,0,7,,,,,,,,,,,,,,,,10,,76,72
1110,note_on,,1,0,8,,,,,,,,,,,,,,,,11,,72,72
1139,note_on,,59,0,5,,,,,,,,,,,,,,,,2,,48,0
1139,note_on,,29,0,9,,,,,,,,,,,,,,,,12,,60,0
1139,note_on,,59,0,11,,,,,,,,,,,,,,,,15,,48,0
1139,note_on,,59,0,10,,,,,,,,,,,,,,,,13,,48,0
1139,note_on,,29,0,8,,,,,,,,,,,,,,,,11,,72,0
1139,note_on,,29,0,7,,,,,,,,,,,,,,,,10,,76,0
1140,note_on,,1,0,10,,,,,,,,,,,,,,,,13,,48,72
1140,note_on,,1,0,7,,,,,,,,,,,,,,,,10,,77,72
1140,note_on,,1,0,5,,,,,,,,,,,,,,,,2,,48,72
1140,note_on,,1,0,9,,,,,,,,,,,,,,,,12,,65,72
1140,note_on,,1,0,8,,,,,,,,,,,,,,,,11,,74,72
1140,note_on,,1,0,11,,,,,,,,,,,,,,,,15,,48,72
1169,note_on,,29,0,7,,,,,,,,,,,,,,,,10,,77,0
1169,note_on,,29,0,9,,,,,,,,,,,,,,,,12,,65,0
1169,note_on,,29,0,8,,,,,,,,,,,,,,,,11,,74,0
1170,note_on,,1,0,9,,,,,,,,,,,,,,,,12,,65,72
1170,note_on,,1,0,8,,,,,,,,,,,,,,,,11,,74,72
1170,note_on,,1,0,7,,,,,,,,,,,,,,,,10,,77,72
1199,note_on,,29,0,7,,,,,,,,,,,,,,,,10,,77,0
1199,note_on,,29,0,8,,,,,,,,,,,,,,,,11,,74,0
1199,note_on,,59,0,11,,,,,,,,,,,,,,,,15,,55,0
1199,note_on,,59,0,10,,,,,,,,,,,,,,,,13,,48,0
1199,note_on,,0,0,11,,,,,,,,,,,,,,,,15,,64,0
1199,note_on,,59,0,5,,,,,,,,,,,,,,,,2,,48,0
1199,note_on,,29,0,9,,,,,,,,,,,,,,,,12,,65,0
1199,note_on,,0,0,11,,,,,,,,,,,,,,,,15,,48,0
1199,note_on,,0,0,11,,,,,,,,,,,,,,,,15,,72,0
1200,note_on,,1,0,8,,,,,,,,,,,,,,,,11,,76,72
1200,note_on,,0,0,11,,,,,,,,,,,,,,,,15,,60,72
1200,note_on,,1,0,7,,,,,,,,,,,,,,,,10,,79,72
1200,note_on,,0,0,11,,,,,,,,,,,,,,,,15,,76,72
1200,note_on,,1,0,10,,,,,,,,,,,,,,,,13,,48,72
1200,note_on,,0,0,11,,,,,,,,,,,,,,,,15,,72,72
1200,note_on,,1,0,5,,,,,,,,,,,,,,,,2,,48,72
1200,note_on,,1,0,11,,,,,,,,,,,,,,,,15,,48,72
1200,note_on,,0,0,11,,,,,,,,,,,,,,,,15,,67,72
1200,note_on,,1,0,9,,,,,,,,,,,,,,,,12,,64,72
1229,note_on,,29,0,9,,,,,,,,,,,,,,,,12,,64,0
1230,note_on,,1,0,9,,,,,,,,,,,,,,,,12,,60,72
1259,note_on,,59,0,5,,,,,,,,,,,,,,,,2,,48,0
1259,note_on,,29,0,9,,,,,,,,,,,,,,,,12,,60,0
1259,note_on,,59,0,10,,,,,,,,,,,,,,,,13,,48,0
1259,note_on,,59,0,7,,,,,,,,,,,,,,,,10,,79,0
1259,note_on,,59,0,11,,,,,,,,,,,,,,,,15,,48,0
1259,note_on,,59,0,8,,,,,,,,,,,,,,,,11,,76,0
1260,note_on,,1,0,11,,,,,,,,,,,,,,,,15,,48,72
1260,note_on,,1,0,5,,,,,,,,,,,,,,,,2,,48,72
1260,note_on,,1,0,7,,,,,,,,,,,,,,,,10,,60,72
1260,note_on,,1,0,8,,,,,,,,,,,,,,,,11,,60,72
1260,note_on,,1,0,9,,,,,,,,,,,,,,,,12,,60,72
1260,note_on,,1,0,10,,,,,,,,,,,,,,,,13,,48,72
1289,note_on,,29,0,8,,,,,,,,,,,,,,,,11,,60,0
1289,note_on,,29,0,7,,,,,,,,,,,,,,,,10,,60,0
1289,note_on,,29,0,9,,,,,,,,,,,,,,,,12,,60,0
1290,note_on,,1,0,8,,,,,,,,,,,,,,,,11,,60,72
1290,note_on,,1,0,7,,,,,,,,,,,,,,,,10,,60,72
1290,note_on,,1,0,9,,,,,,,,,,,,,,,,12,,60,72
1319,note_on,,29,0,9,,,,,,,,,,,,,,,,12,,60,0
1319,note_on,,59,0,10,,,,,,,,,,,,,,,,13,,48,0
1319,note_on,,29,0,7,,,,,,,,,,,,,,,,10,,60,0
1319,note_on,,59,0,5,,,,,,,,,,,,,,,,2,,48,0
1319,note_on,,29,0,8,,,,,,,,,,,,,,,,11,,60,0
1319,note_on,,59,0,11,,,,,,,,,,,,,,,,15,,48,0
1320,note_on,,1,0,9,,,,,,,,,,,,,,,,12,,60,72
1320,note_on,,1,0,11,,,,,,,,,,,,,,,,15,,48,72
1320,note_on,,1,0,7,,,,,,,,,,,,,,,,10,,60,72
1320,note_on,,1,0,8,,,,,,,,,,,,,,,,11,,60,72
1320,note_on,,1,0,5,,,,,,,,,,,,,,,,2,,48,72
1320,note_on,,1,0,10,,,,,,,,,,,,,,,,13,,48,72
1349,note_on,,29,0,9,,,,,,,,,,,,,,,,12,,60,0
1349,note_on,,29,0,8,,,,,,,,,,,,,,,,11,,60,0
1349,note_on,,29,0,7,,,,,,,,,,,,,,,,10,,60,0
1350,note_on,,1,0,8,,,,,,,,,,,,,,,,11,,60,72
1350,note_on,,1,0,9,,,,,,,,,,,,,,,,12,,60,72
1350,note_on,,1,0,7,,,,,,,,,,,,,,,,10,,60,72
1379,note_on,,59,0,10,,,,,,,,,,,,,,,,13,,48,0
1379,note_on,,59,0,11,,,,,,,,,,,,,,,,15,,48,0
1379,note_on,,29,0,8,,,,,,,,,,,,,,,,11,,60,0
1379,note_on,,29,0,9,,,,,,,,,,,,,,,,12,,60,0
1379,note_on,,29,0,7,,,,,,,,,,,,,,,,10,,60,0
1379,note_on,,59,0,5,,,,,,,,,,,,,,,,2,,48,0
1380,note_on,,1,0,11,,,,,,,,,,,,,,,,15,,48,72
1380,note_on,,1,0,9,,,,,,,,,,,,,,,,12,,60,72
1380,note_on,,1,0,5,,,,,,,,,,,,,,,,2,,48,72
1380,note_on,,1,0,8,,,,,,,,,,,,,,,,11,,60,72
1380,note_on,,1,0,7,,,,,,,,,,,,,,,,10,,60,72
1380,note_on,,1,0,10,,,,,,,,,,,,,,,,13,,48,72
1409,note_on,,29,0,9,,,,,,,,,,,,,,,,12,,60,0
1409,note_on,,29,0,7,,,,,,,,,,,,,,,,10,,60,0
1409,note_on,,29,0,8,,,,,,,,,,,,,,,,11,,60,0
1410,note_on,,1,0,9,,,,,,,,,,,,,,,,12,,60,72
1410,note_on,,1,0,7,,,,,,,,,,,,,,,,10,,60,72
1410,note_on,,1,0,8,,,,,,,,,,,,,,,,11,,60,72
1439,note_on,,29,0,9,,,,,,,,,,,,,,,,12,,60,0
1439,note_on,,0,0,11,,,,,,,,,,,,,,,,15,,67,0
1439,note_on,,0,0,11,,,,,,,,,,,,,,,,15,,48,0
1439,note_on,,0,0,11,,,,,,,,,,,,,,,,15,,72,0
1439,note_on,,29,0,8,,,,,,,,,,,,,,,,11,,60,0
1439,note_on,,59,0,11,,,,,,,,,,,,,,,,15,,60,0
1439,note_on,,59,0,5,,,,,,,,,,,,,,,,2,,48,0
1439,note_on,,59,0,10,,,,,,,,,,,,,,,,13,,48,0
1439,note_on,,29,0,7,,,,,,,,,,,,,,,,10,,60,0
1439,note_on,,0,0,11,,,,,,,,,,,,,,,,15,,76,0
1440,note_on,,1,0,8,,,,,,,,,,,,,,,,11,,60,72
1440,note_on,,1,0,11,,,,,,,,,,,,,,,,15,,48,72
1440,note_on,,0,0,11,,,,,,,,,,,,,,,,15,,52,72
1440,note_on,,1,0,7,,,,,,,,,,,,,,,,10,,60,72
1440,note_on,,0,0,11,,,,,,,,,,,,,,,,15,,72,72
1440,note_on,,1,0,5,,,,,,,,,,,,,,,,2,,48,72
1440,note_on,,0,0,11,,,,,,,,,,,,,,,,15,,79,72
1440,note_on,,1,0,10,,,,,,,,,,,,,,,,13,,48,72
1440,note_on,,1,0,9,,,,,,,,,,,,,,,,12,,60,72
1440,note_on,,0,0,11,,,,,,,,,,,,,,,,15,,67,72
1469,note_on,,29,0,9,,,,,,,,,,,,,,,,12,,60,0
1470,note_on,,1,0,9,,,,,,,,,,,,,,,,12,,60,72
1499,note_on,,59,0,8,,,,,,,,,,,,,,,,11,,60,0
1499,note_on,,59,0,10,,,,,,,,,,,,,,,,13,,48,0
1499,note_on,,59,0,5,,,,,,,,,,,,,,,,2,,48,0
1499,note_on,,29,0,9,,,,,,,,,,,,,,,,12,,60,0
1499,note_on,,59,0,11,,,,,,,,,,,,,,,,15,,48,0
1499,note_on,,59,0,7,,,,,,,,,,,,,,,,10,,60,0
1500,note_on,,1,0,9,,,,,,,,,,,,,,,,12,,60,72
1500,note_on,,1,0,7,,,,,,,,,,,,,,,,10,,79,72
1500,note_on,,1,0,10,,,,,,,,,,,,,,,,13,,48,72
1500,note_on,,1,0,8,,,,,,,,,,,,,,,,11,,76,72
1500,note_on,,1,0,5,,,,,,,,,,,,,,,,2,,48,72
1500,note_on,,1,0,11,,,,,,,,,,,,,,,,15,,48,72
1529,note_on,,29,0,7,,,,,,,,,,,,,,,,10,,79,0
1529,note_on,,29,0,9,,,,,,,,,,,,,,,,12,,60,0
1529,note_on,,29,0,8,,,,,,,,,,,,,,,,11,,76,0
1530,note_on,,1,0,7,,,,,,,,,,,,,,,,10,,79,72
1530,note_on,,1,0,8,,,,,,,,,,,,,,,,11,,76,72
1530,note_on,,1,0,9,,,,,,,,,,,,,,,,12,,60,72
1559,note_on,,29,0,7,,,,,,,,,,,,,,,,10,,79,0
1559,note_on,,59,0,10,,,,,,,,,,,,,,,,13,,48,0
1559,note_on,,59,0,11,,,,,,,,,,,,,,,,15,,48,0
1559,note_on,,29,0,9,,,,,,,,,,,,,,,,12,,60,0
1559,note_on,,29,0,8,,,,,,,,,,,,,,,,11,,76,0
1559,note_on,,59,0,5,,,,,,,,,,,,,,,,2,,48,0
1560,note_on,,1,0,9,,,,,,,,,,,,,,,,12,,60,72
1560,note_on,,1,0,10,,,,,,,,,,,,,,,,13,,48,72
1560,note_on,,1,0,8,,,,,,,,,,,,,,,,11,,77,72
1560,note_on,,1,0,5,,,,,,,,,,,,,,,,2,,48,72
1560,note_on,,1,0,11,,,,,,,,,,,,,,,,15,,48,72
1560,note_on,,1,0,7,,,,,,,,,,,,,,,,10,,81,72
1589,note_on,,29,0,8,,,,,,,,,,,,,,,,11,,77,0
1589,note_on,,29,0,7,,,,,,,,,,,,,,,,10,,81,0
1589,note_on,,29,0,9,,,,,,,,,,,,,,,,12,,60,0
1590,note_on,,1,0,8,,,,,,,,,,,,,,,,11,,77,72
1590,note_on,,1,0,7,,,,,,,,,,,,,,,,10,,81,72
1590,note_on,,1,0,9,,,,,,,,,,,,,,,,12,,60,72
1619,note_on,,29,0,8,,,,,,,,,,,,,,,,11,,77,0
1619,note_on,,29,0,9,,,,,,,,,,,,,,,,12,,60,0
1619,note_on,,59,0,10,,,,,,,,,,,,,,,,13,,48,0
1619,note_on,,59,0,5,,,,,,,,,,,,,,,,2,,48,0
1619,note_on,,29,0,7,,,,,,,,,,,,,,,,10,,81,0
1619,note_on,,59,0,11,,,,,,,,,,,,,,,,15,,48,0
1620,note_on,,1,0,8,,,,,,,,,,,,,,,,11,,74,72
1620,note_on,,1,0,9,,,,,,,,,,,,,,,,12,,60,72
1620,note_on,,1,0,10,,,,,,,,,,,,,,,,13,,48,72
1620,note_on,,1,0,11,,,,,,,,,,,,,,,,15,,48,72
1620,note_on,,1,0,7,,,,,,,,,,,,,,,,10,,83,72
1620,note_on,,1,0,5,,,,,,,,,,,,,,,,2,,48,72
1649,note_on,,29,0,7,,,,,,,,,,,,,,,,10,,83,0
1649,note_on,,29,0,9,,,,,,,,,,,,,,,,12,,60,0
1649,note_on,,29,0,8,,,,,,,,,,,,,,,,11,,74,0
1650,note_on,,1,0,7,,,,,,,,,,,,,,,,10,,83,72
1650,note_on,,1,0,8,,,,,,,,,,,,,,,,11,,74,72
1650,note_on,,1,0,9,,,,,,,,,,,,,,,,12,,60,72
1679,note_on,,59,0,10,,,,,,,,,,,,,,,,13,,48,0
1679,note_on,,29,0,9,,,,,,,,,,,,,,,,12,,60,0
1679,note_on,,29,0,7,,,,,,,,,,,,,,,,10,,83,0
1679,note_on,,29,0,8,,,,,,,,,,,,,,,,11,,74,0
1679,note_on,,59,0,5,,,,,,,,,,,,,,,,2,,48,0
1679,note_on,,59,0,11,,,,,,,,,,,,,,,,15,,48,0
1680,note_on,,1,0,8,,,,,,,,,,,,,,,,11,,76,72
1680,note_on,,1,0,10,,,,,,,,,,,,,,,,13,,48,72
1680,note_on,,1,0,7,,,,,,,,,,,,,,,,10,,84,72
1680,note_on,,1,0,5,,,,,,,,,,,,,,,,2,,48,72
1680,note_on,,1,0,11,,,,,,,,,,,,,,,,15,,48,72
1680,note_on,,1,0,9,,,,,,,,,,,,,,,,12,,60,72
1709,note_on,,29,0,9,,,,,,,,,,,,,,,,12,,60,0
1710,note_on,,1,0,9,,,,,,,,,,,,,,,,12,,60,72
1739,note_on,,59,0,7,,,,,,,,,,,,,,,,10,,84,0
1739,note_on,,59,0,11,,,,,,,,,,,,,,,,15,,48,0
1739,note_on,,29,0,9,,,,,,,,,,,,,,,,12,,60,0
1739,note_on,,59,0,10,,,,,,,,,,,,,,,,13,,48,0
1739,note_on,,59,0,5,,,,,,,,,,,,,,,,2,,48,0
1739,note_on,,59,0,8,,,,,,,,,,,,,,,,11,,76,0
1740,note_on,,1,0,9,,,,,,,,,,,,,,,,12,,64,72
1740,note_on,,1,0,5,,,,,,,,,,,,,,,,2,,48,72
1740,note_on,,1,0,11,,,,,,,,,,,,,,,,15,,48,72
1740,note_on,,1,0,7,,,,,,,,,,,,,,,,10,,72,72
1740,note_on,,1,0,8,,,,,,,,,,,,,,,,11,,72,72
1740,note_on,,1,0,10,,,,,,,,,,,,,,,,13,,48,72
1769,note_on,,29,0,9,,,,,,,,,,,,,,,,12,,64,0
1769,note_on,,29,0,8,,,,,,,,,,,,,,,,11,,72,0
1769,note_on,,29,0,7,,,,,,,,,,,,,,,,10,,72,0
1770,note_on,,1,0,7,,,,,,,,,,,,,,,,10,,72,72
1770,note_on,,1,0,9,,,,,,,,,,,,,,,,12,,64,72
1770,note_on,,1,0,8,,,,,,,,,,,,,,,,11,,72,72
1799,note_on,,59,0,10,,,,,,,,,,,,,,,,13,,48,0
1799,note_on,,29,0,9,,,,,,,,,,,,,,,,12,,64,0
1799,note_on,,29,0,8,,,,,,,,,,,,,,,,11,,72,0
1799,note_on,,59,0,11,,,,,,,,,,,,,,,,15,,48,0
1799,note_on,,29,0,7,,,,,,,,,,,,,,,,10,,72,0
1799,note_on,,59,0,5,,,,,,,,,,,,,,,,2,,48,0
1800,note_on,,1,0,9,,,,,,,,,,,,,,,,12,,67,72
1800,note_on,,1,0,11,,,,,,,,,,,,,,,,15,,48,72
1800,note_on,,1,0,5,,,,,,,,,,,,,,,,2,,48,72
1800,note_on,,1,0,8,,,,,,,,,,,,,,,,11,,76,72
1800,note_on,,1,0,10,,,,,,,,,,,,,,,,13,,48,72
1800,note_on,,1,0,7,,,,,,,,,,,,,,,,10,,76,72
1829,note_on,,29,0,9,,,,,,,,,,,,,,,,12,,67,0
1829,note_on,,29,0,7,,,,,,,,,,,,,,,,10,,76,0
1829,note_on,,29,0,8,,,,,,,,,,,,,,,,11,,76,0
1830,note_on,,1,0,9,,,,,,,,,,,,,,,,12,,67,72
1830,note_on,,1,0,7,,,,,,,,,,,,,,,,10,,76,72
1830,note_on,,1,0,8,,,,,,,,,,,,,,,,11,,76,72
1859,note_on,,59,0,10,,,,,,,,,,,,,,,,13,,48,0
1859,note_on,,59,0,11,,,,,,,,,,,,,,,,15,,48,0
1859,note_on,,29,0,9,,,,,,,,,,,,,,,,12,,67,0
1859,note_on,,29,0,7,,,,,,,,,,,,,,,,10,,76,0
1859,note_on,,29,0,8,,,,,,,,,,,,,,,,11,,76,0
1859,note_on,,59,0,5,,,,,,,,,,,,,,,,2,,48,0
1860,note_on,,1,0,8,,,,,,,,,,,,,,,,11,,79,72
1860,note_on,,1,0,10,,,,,,,,,,,,,,,,13,,48,72
1860,note_on,,1,0,9,,,,,,,,,,,,,,,,12,,64,72
1860,note_on,,1,0,7,,,,,,,,,,,,,,,,10,,79,72
1860,note_on,,1,0,11,,,,,,,,,,,,,,,,15,,48,72
1860,note_on,,1,0,5,,,,,,,,,,,,,,,,2,,48,72
1889,note_on,,29,0,9,,,,,,,,,,,,,,,,12,,64,0
1889,note_on,,29,0,7,,,,,,,,,,,,,,,,10,,79,0
1889,note_on,,29,0,8,,,,,,,,,,,,,,,,11,,79,0
1890,note_on,,1,0,9,,,,,,,,,,,,,,,,12,,64,72
1890,note_on,,1,0,7,,,,,,,,,,,,,,,,10,,79,72
1890,note_on,,1,0,8,,,,,,,,,,,,,,,,11,,79,72
1919,note_on,,29,0,9,,,,,,,,,,,,,,,,12,,64,0
1919,note_on,,29,0,8,,,,,,,,,,,,,,,,11,,79,0
1919,note_on,,0,0,11,,,,,,,,,,,,,,,,15,,48,0
1919,note_on,,0,0,11,,,,,,,,,,,,,,,,15,,67,0
1919,note_on,,0,0,11,,,,,,,,,,,,,,,,15,,72,0
1919,note_on,,0,0,11,,,,,,,,,,,,,,,,15,,79,0
1919,note_on,,59,0,11,,,,,,,,,,,,,,,,15,,52,0
1919,note_on,,29,0,7,,,,,,,,,,,,,,,,10,,79,0
1919,note_on,,59,0,10,,,,,,,,,,,,,,,,13,,48,0
1919,note_on,,59,0,5,,,,,,,,,,,,,,,,2,,48,0
1920,note_on,,1,0,10,,,,,,,,,,,,,,,,13,,48,72
1920,note_on,,1,0,9,,,,,,,,,,,,,,,,12,,55,72
1920,note_on,,0,0,11,,,,,,,,,,,,,,,,15,,55,72
1920,note_on,,0,0,11,,,,,,,,,,,,,,,,15,,72,72
1920,note_on,,0,0,11,,,,,,,,,,,,,,,,15,,67,72
1920,note_on,,0,0,11,,,,,,,,,,,,,,,,15,,64,72
1920,note_on,,1,0,11,,,,,,,,,,,,,,,,15,,48,72
1920,note_on,,1,0,7,,,,,,,,,,,,,,,,10,,82,72
1920,note_on,,1,0,8,,,,,,,,,,,,,,,,11,,82,72
1920,note_on,,1,0,5,,,,,,,,,,,,,,,,2,,48,72
1949,note_on,,29,0,9,,,,,,,,,,,,,,,,12,,55,0
1950,note_on,,1,0,9,,,,,,,,,,,,,,,,12,,55,72
1979,note_on,,29,0,9,,,,,,,,,,,,,,,,12,,55,0
1979,note_on,,59,0,7,,,,,,,,,,,,,,,,10,,82,0
1979,note_on,,59,0,10,,,,,,,,,,,,,,,,13,,48,0
1979,note_on,,59,0,8,,,,,,,,,,,,,,,,11,,82,0
1979,note_on,,59,0,11,,,,,,,,,,,,,,,,15,,48,0
1979,note_on,,59,0,5,,,,,,,,,,,,,,,,2,,48,0
1980,note_on,,1,0,9,,,,,,,,,,,,,,,,12,,64,72
1980,note_on,,1,0,8,,,,,,,,,,,,,,,,11,,60,72
1980,note_on,,1,0,7,,,,,,,,,,,,,,,,10,,60,72
1980,note_on,,1,0,11,,,,,,,,,,,,,,,,15,,48,72
1980,note_on,,1,0,10,,,,,,,,,,,,,,,,13,,48,72
1980,note_on,,1,0,5,,,,,,,,,,,,,,,,2,,48,72
2009,note_on,,29,0,9,,,,,,,,,,,,,,,,12,,64,0
2009,note_on,,29,0,7,,,,,,,,,,,,,,,,10,,60,0
2009,note_on,,29,0,8,,,,,,,,,,,,,,,,11,,60,0
2010,note_on,,1,0,9,,,,,,,,,,,,,,,,12,,64,72
2010,note_on,,1,0,8,,,,,,,,,,,,,,,,11,,60,72
2010,note_on,,1,0,7,,,,,,,,,,,,,,,,10,,60,72
2039,note_on,,29,0,9,,,,,,,,,,,,,,,,12,,64,0
2039,note_on,,59,0,11,,,,,,,,,,,,,,,,15,,48,0
2039,note_on,,59,0,5,,,,,,,,,,,,,,,,2,,48,0
2039,note_on,,29,0,8,,,,,,,,,,,,,,,,11,,60,0
2039,note_on,,29,0,7,,,,,,,,,,,,,,,,10,,60,0
2039,note_on,,59,0,10,,,,,,,,,,,,,,,,13,,48,0
2040,note_on,,1,0,7,,,,,,,,,,,,,,,,10,,64,72
2040,note_on,,1,0,9,,,,,,,,,,,,,,,,12,,67,72
2040,note_on,,1,0,11,,,,,,,,,,,,,,,,15,,48,72
2040,note_on,,1,0,10,,,,,,,,,,,,,,,,13,,48,72
2040,note_on,,1,0,8,,,,,,,,,,,,,,,,11,,64,72
2040,note_on,,1,0,5,,,,,,,,,,,,,,,,2,,48,72
2069,note_on,,29,0,8,,,,,,,,,,,,,,,,11,,64,0
2069,note_on,,29,0,7,,,,,,,,,,,,,,,,10,,64,0
2069,note_on,,29,0,9,,,,,,,,,,,,,,,,12,,67,0
2070,note_on,,1,0,9,,,,,,,,,,,,,,,,12,,67,72
2070,note_on,,1,0,8,,,,,,,,,,,,,,,,11,,64,72
2070,note_on,,1,0,7,,,,,,,,,,,,,,,,10,,64,72
2099,note_on,,59,0,5,,,,,,,,,,,,,,,,2,,48,0
2099,note_on,,29,0,8,,,,,,,,,,,,,,,,11,,64,0
2099,note_on,,29,0,7,,,,,,,,,,,,,,,,10,,64,0
2099,note_on,,59,0,10,,,,,,,,,,,,,,,,13,,48,0
2099,note_on,,59,0,11,,,,,,,,,,,,,,,,15,,48,0
2099,note_on,,29,0,9,,,,,,,,,,,,,,,,12,,67,0
2100,note_on,,1,0,10,,,,,,,,,,,,,,,,13,,48,72
2100,note_on,,1,0,9,,,,,,,,,,,,,,,,12,,64,72
2100,note_on,,1,0,7,,,,,,,,,,,,,,,,10,,67,72
2100,note_on,,1,0,11,,,,,,,,,,,,,,,,15,,48,72
2100,note_on,,1,0,5,,,,,,,,,,,,,,,,2,,48,72
2100,note_on,,1,0,8,,,,,,,,,,,,,,,,11,,67,72
2129,note_on,,29,0,9,,,,,,,,,,,,,,,,12,,64,0
2129,note_on,,29,0,7,,,,,,,,,,,,,,,,10,,67,0
2129,note_on,,29,0,8,,,,,,,,,,,,,,,,11,,67,0
2130,note_on,,1,0,8,,,,,,,,,,,,,,,,11,,67,72
2130,note_on,,1,0,9,,,,,,,,,,,,,,,,12,,64,72
2130,note_on,,1,0,7,,,,,,,,,,,,,,,,10,,67,72
2159,note_on,,59,0,5,,,,,,,,,,,,,,,,2,,48,0
2159,note_on,,29,0,7,,,,,,,,,,,,,,,,10,,67,0
2159,note_on,,59,0,10,,,,,,,,,,,,,,,,13,,48,0
2159,note_on,,29,0,9,,,,,,,,,,,,,,,,12,,64,0
2159,note_on,,59,0,11,,,,,,,,,,,,,,,,15,,55,0
2159,note_on,,0,0,11,,,,,,,,,,,,,,,,15,,72,0
2159,note_on,,0,0,11,,,,,,,,,,,,,,,,15,,67,0
2159,note_on,,0,0,11,,,,,,,,,,,,,,,,15,,64,0
2159,note_on,,0,0,11,,,,,,,,,,,,,,,,15,,48,0
2159,note_on,,29,0,8,,,,,,,,,,,,,,,,11,,67,0
2160,note_on,,0,0,11,,,,,,,,,,,,,,,,15,,64,72
2160,note_on,,1,0,11,,,,,,,,,,,,,,,,15,,48,72
2160,note_on,,0,0,11,,,,,,,,,,,,,,,,15,,67,72
2160,note_on,,0,0,11,,,,,,,,,,,,,,,,15,,60,72
2160,note_on,,1,0,10,,,,,,,,,,,,,,,,13,,48,72
2160,note_on,,1,0,9,,,,,,,,,,,,,,,,12,,60,72
2160,note_on,,1,0,5,,,,,,,,,,,,,,,,2,,48,72
2160,note_on,,1,0,7,,,,,,,,,,,,,,,,10,,70,72
2160,note_on,,1,0,8,,,,,,,,,,,,,,,,11,,70,72
2189,note_on,,29,0,8,,,,,,,,,,,,,,,,11,,70,0
2189,note_on,,29,0,7,,,,,,,,,,,,,,,,10,,70,0
2189,note_on,,29,0,9,,,,,,,,,,,,,,,,12,,60,0
2190,note_on,,1,0,9,,,,,,,,,,,,,,,,12,,60,72
2190,note_on,,1,0,7,,,,,,,,,,,,,,,,10,,70,72
2190,note_on,,1,0,8,,,,,,,,,,,,,,,,11,,70,72
2219,note_on,,59,0,11,,,,,,,,,,,,,,,,15,,48,0
2219,note_on,,59,0,5,,,,,,,,,,,,,,,,2,,48,0
2219,note_on,,29,0,8,,,,,,,,,,,,,,,,11,,70,0
2219,note_on,,29,0,9,,,,,,,,,,,,,,,,12,,60,0
2219,note_on,,29,0,7,,,,,,,,,,,,,,,,10,,70,0
2219,note_on,,59,0,10,,,,,,,,,,,,,,,,13,,48,0
2220,note_on,,1,0,9,,,,,,,,,,,,,,,,12,,60,72
2220,note_on,,1,0,11,,,,,,,,,,,,,,,,15,,48,72
2220,note_on,,1,0,5,,,,,,,,,,,,,,,,2,,48,72
2220,note_on,,1,0,7,,,,,,,,,,,,,,,,10,,76,72
2220,note_on,,1,0,10,,,,,,,,,,,,,,,,13,,48,72
2220,note_on,,1,0,8,,,,,,,,,,,,,,,,11,,76,72
2249,note_on,,29,0,7,,,,,,,,,,,,,,,,10,,76,0
2249,note_on,,29,0,9,,,,,,,,,,,,,,,,12,,60,0
2249,note_on,,29,0,8,,,,,,,,,,,,,,,,11,,76,0
2250,note_on,,1,0,8,,,,,,,,,,,,,,,,11,,76,72
2250,note_on,,1,0,7,,,,,,,,,,,,,,,,10,,76,72
2250,note_on,,1,0,9,,,,,,,,,,,,,,,,12,,60,72
2279,note_on,,29,0,7,,,,,,,,,,,,,,,,10,,76,0
2279,note_on,,59,0,5,,,,,,,,,,,,,,,,2,,48,0
2279,note_on,,59,0,10,,,,,,,,,,,,,,,,13,,48,0
2279,note_on,,29,0,8,,,,,,,,,,,,,,,,11,,76,0
2279,note_on,,29,0,9,,,,,,,,,,,,,,,,12,,60,0
2279,note_on,,59,0,11,,,,,,,,,,,,,,,,15,,48,0
2280,note_on,,1,0,8,,,,,,,,,,,,,,,,11,,79,72
2280,note_on,,1,0,9,,,,,,,,,,,,,,,,12,,64,72
2280,note_on,,1,0,5,,,,,,,,,,,,,,,,2,,48,72
2280,note_on,,1,0,10,,,,,,,,,,,,,,,,13,,48,72
2280,note_on,,1,0,11,,,,,,,,,,,,,,,,15,,48,72
2280,note_on,,1,0,7,,,,,,,,,,,,,,,,10,,79,72
2309,note_on,,29,0,7,,,,,,,,,,,,,,,,10,,79,0
2309,note_on,,29,0,9,,,,,,,,,,,,,,,,12,,64,0
2309,note_on,,29,0,8,,,,,,,,,,,,,,,,11,,79,0
2310,note_on,,1,0,9,,,,,,,,,,,,,,,,12,,64,72
2310,note_on,,1,0,7,,,,,,,,,,,,,,,,10,,79,72
2310,note_on,,1,0,8,,,,,,,,,,,,,,,,11,,79,72
2339,note_on,,59,0,10,,,,,,,,,,,,,,,,13,,48,0
2339,note_on,,29,0,7,,,,,,,,,,,,,,,,10,,79,0
2339,note_on,,59,0,11,,,,,,,,,,,,,,,,15,,48,0
2339,note_on,,29,0,9,,,,,,,,,,,,,,,,12,,64,0
2339,note_on,,29,0,8,,,,,,,,,,,,,,,,11,,79,0
2339,note_on,,59,0,5,,,,,,,,,,,,,,,,2,,48,0
2340,note_on,,1,0,7,,,,,,,,,,,,,,,,10,,70,72
2340,note_on,,1,0,11,,,,,,,,,,,,,,,,15,,48,72
2340,note_on,,1,0,9,,,,,,,,,,,,,,,,12,,64,72
2340,note_on,,1,0,10,,,,,,,,,,,,,,,,13,,48,72
2340,note_on,,1,0,8,,,,,,,,,,,,,,,,11,,70,72
2340,note_on,,1,0,5,,,,,,,,,,,,,,,,2,,48,72
2369,note_on,,29,0,7,,,,,,,,,,,,,,,,10,,70,0
2369,note_on,,29,0,9,,,,,,,,,,,,,,,,12,,64,0
2369,note_on,,29,0,8,,,,,,,,,,,,,,,,11,,70,0
2370,note_on,,1,0,7,,,,,,,,,,,,,,,,10,,70,72
2370,note_on,,1,0,9,,,,,,,,,,,,,,,,12,,64,72
2370,note_on,,1,0,8,,,,,,,,,,,,,,,,11,,70,72
2399,note_on,,59,0,5,,,,,,,,,,,,,,,,2,,48,0
2399,note_on,,29,0,7,,,,,,,,,,,,,,,,10,,70,0
2399,note_on,,0,0,11,,,,,,,,,,,,,,,,15,,48,0
2399,note_on,,29,0,8,,,,,,,,,,,,,,,,11,,70,0
2399,note_on,,0,0,11,,,,,,,,,,,,,,,,15,,64,0
2399,note_on,,59,0,11,,,,,,,,,,,,,,,,15,,67,0
2399,note_on,,29,0,9,,,,,,,,,,,,,,,,12,,64,0
2399,note_on,,0,0,11,,,,,,,,,,,,,,,,15,,60,0
2399,note_on,,59,0,10,,,,,,,,,,,,,,,,13,,48,0
2400,note_on,,0,0,11,,,,,,,,,,,,,,,,15,,69,72
2400,note_on,,1,0,11,,,,,,,,,,,,,,,,15,,53,72
2400,note_on,,0,0,11,,,,,,,,,,,,,,,,15,,60,72
2400,note_on,,1,0,7,,,,,,,,,,,,,,,,10,,69,72
2400,note_on,,1,0,5,,,,,,,,,,,,,,,,2,,53,72
2400,note_on,,1,0,9,,,,,,,,,,,,,,,,12,,65,72
2400,note_on,,1,0,8,,,,,,,,,,,,,,,,11,,69,72
2400,note_on,,1,0,10,,,,,,,,,,,,,,,,13,,53,72
2400,note_on,,0,0,11,,,,,,,,,,,,,,,,15,,65,72
2429,note_on,,29,0,9,,,,,,,,,,,,,,,,12,,65,0
2429,note_on,,29,0,7,,,,,,,,,,,,,,,,10,,69,0
2429,note_on,,29,0,8,,,,,,,,,,,,,,,,11,,69,0
2430,note_on,,1,0,9,,,,,,,,,,,,,,,,12,,65,72
2430,note_on,,1,0,7,,,,,,,,,,,,,,,,10,,69,72
2430,note_on,,1,0,8,,,,,,,,,,,,,,,,11,,69,72
2459,note_on,,29,0,8,,,,,,,,,,,,,,,,11,,69,0
2459,note_on,,59,0,10,,,,,,,,,,,,,,,,13,,53,0
2459,note_on,,59,0,5,,,,,,,,,,,,,,,,2,,53,0
2459,note_on,,29,0,7,,,,,,,,,,,,,,,,10,,69,0
2459,note_on,,59,0,11,,,,,,,,,,,,,,,,15,,53,0
2459,note_on,,29,0,9,,,,,,,,,,,,,,,,12,,65,0
2460,note_on,,1,0,7,,,,,,,,,,,,,,,,10,,81,72
2460,note_on,,1,0,8,,,,,,,,,,,,,,,,11,,81,72
2460,note_on,,1,0,10,,,,,,,,,,,,,,,,13,,53,72
2460,note_on,,1,0,9,,,,,,,,,,,,,,,,12,,60,72
2460,note_on,,1,0,5,,,,,,,,,,,,,,,,2,,53,72
2460,note_on,,1,0,11,,,,,,,,,,,,,,,,15,,53,72
2489,note_on,,29,0,9,,,,,,,,,,,,,,,,12,,60,0
2489,note_on,,29,0,8,,,,,,,,,,,,,,,,11,,81,0
2489,note_on,,29,0,7,,,,,,,,,,,,,,,,10,,81,0
2490,note_on,,1,0,9,,,,,,,,,,,,,,,,12,,60,72
2490,note_on,,1,0,7,,,,,,,,,,,,,,,,10,,81,72
2490,note_on,,1,0,8,,,,,,,,,,,,,,,,11,,81,72
2519,note_on,,29,0,9,,,,,,,,,,,,,,,,12,,60,0
2519,note_on,,29,0,8,,,,,,,,,,,,,,,,11,,81,0
2519,note_on,,0,0,11,,,,,,,,,,,,,,,,15,,53,0
2519,note_on,,0,0,11,,,,,,,,,,,,,,,,15,,65,0
2519,note_on,,59,0,11,,,,,,,,,,,,,,,,15,,69,0
2519,note_on,,59,0,5,,,,,,,,,,,,,,,,2,,53,0
2519,note_on,,29,0,7,,,,,,,,,,,,,,,,10,,81,0
2519,note_on,,59,0,10,,,,,,,,,,,,,,,,13,,53,0
2519,note_on,,0,0,11,,,,,,,,,,,,,,,,15,,60,0
2520,note_on,,1,0,9,,,,,,,,,,,,,,,,12,,67,72
2520,note_on,,1,0,8,,,,,,,,,,,,,,,,11,,83,72
2520,note_on,,1,0,7,,,,,,,,,,,,,,,,10,,83,72
2520,note_on,,1,0,10,,,,,,,,,,,,,,,,13,,52,72
2520,note_on,,0,0,11,,,,,,,,,,,,,,,,15,,67,72
2520,note_on,,0,0,11,,,,,,,,,,,,,,,,15,,76,72
2520,note_on,,0,0,11,,,,,,,,,,,,,,,,15,,55,72
2520,note_on,,1,0,11,,,,,,,,,,,,,,,,15,,52,72
2520,note_on,,1,0,5,,,,,,,,,,,,,,,,2,,52,72
2549,note_on,,29,0,8,,,,,,,,,,,,,,,,11,,83,0
2549,note_on,,29,0,9,,,,,,,,,,,,,,,,12,,67,0
2549,note_on,,29,0,7,,,,,,,,,,,,,,,,10,,83,0
2550,note_on,,1,0,8,,,,,,,,,,,,,,,,11,,83,72
2550,note_on,,1,0,7,,,,,,,,,,,,,,,,10,,83,72
2550,note_on,,1,0,9,,,,,,,,,,,,,,,,12,,67,72
2579,note_on,,29,0,7,,,,,,,,,,,,,,,,10,,83,0
2579,note_on,,29,0,8,,,,,,,,,,,,,,,,11,,83,0
2579,note_on,,59,0,5,,,,,,,,,,,,,,,,2,,52,0
2579,note_on,,59,0,11,,,,,,,,,,,,,,,,15,,52,0
2579,note_on,,59,0,10,,,,,,,,,,,,,,,,13,,52,0
2579,note_on,,29,0,9,,,,,,,,,,,,,,,,12,,67,0
2580,note_on,,1,0,10,,,,,,,,,,,,,,,,13,,52,72
2580,note_on,,1,0,5,,,,,,,,,,,,,,,,2,,52,72
2580,note_on,,1,0,11,,,,,,,,,,,,,,,,15,,52,72
2580,note_on,,1,0,8,,,,,,,,,,,,,,,,11,,85,72
2580,note_on,,1,0,9,,,,,,,,,,,,,,,,12,,67,72
2580,note_on,,1,0,7,,,,,,,,,,,,,,,,10,,85,72
2609,note_on,,29,0,7,,,,,,,,,,,,,,,,10,,85,0
2609,note_on,,29,0,9,,,,,,,,,,,,,,,,12,,67,0
2609,note_on,,29,0,8,,,,,,,,,,,,,,,,11,,85,0
2610,note_on,,1,0,8,,,,,,,,,,,,,,,,11,,85,72
2610,note_on,,1,0,7,,,,,,,,,,,,,,,,10,,85,72
2610,note_on,,1,0,9,,,,,,,,,,,,,,,,12,,67,72
2639,note_on,,29,0,8,,,,,,,,,,,,,,,,11,,85,0
2639,note_on,,29,0,7,,,,,,,,,,,,,,,,10,,85,0
2639,note_on,,59,0,5,,,,,,,,,,,,,,,,2,,52,0
2639,note_on,,29,0,9,,,,,,,,,,,,,,,,12,,67,0
2639,note_on,,0,0,11,,,,,,,,,,,,,,,,15,,76,0
2639,note_on,,59,0,11,,,,,,,,,,,,,,,,15,,55,0
2639,note_on,,59,0,10,,,,,,,,,,,,,,,,13,,52,0
2639,note_on,,0,0,11,,,,,,,,,,,,,,,,15,,52,0
2639,note_on,,0,0,11,,,,,,,,,,,,,,,,15,,67,0
2640,note_on,,0,0,11,,,,,,,,,,,,,,,,15,,66,72
2640,note_on,,1,0,8,,,,,,,,,,,,,,,,11,,86,72
2640,note_on,,0,0,11,,,,,,,,,,,,,,,,15,,62,72
2640,note_on,,0,0,11,,,,,,,,,,,,,,,,15,,69,72
2640,note_on,,1,0,10,,,,,,,,,,,,,,,,13,,50,72
2640,note_on,,0,0,11,,,,,,,,,,,,,,,,15,,57,72
2640,note_on,,1,0,5,,,,,,,,,,,,,,,,2,,50,72
2640,note_on,,1,0,9,,,,,,,,,,,,,,,,12,,66,72
2640,note_on,,1,0,7,,,,,,,,,,,,,,,,10,,86,72
2640,note_on,,1,0,11,,,,,,,,,,,,,,,,15,,50,72
2669,note_on,,29,0,9,,,,,,,,,,,,,,,,12,,66,0
2670,note_on,,1,0,9,,,,,,,,,,,,,,,,12,,66,72
2699,note_on,,59,0,5,,,,,,,,,,,,,,,,2,,50,0
2699,note_on,,59,0,8,,,,,,,,,,,,,,,,11,,86,0
2699,note_on,,29,0,9,,,,,,,,,,,,,,,,12,,66,0
2699,note_on,,59,0,10,,,,,,,,,,,,,,,,13,,50,0
2699,note_on,,59,0,7,,,,,,,,,,,,,,,,10,,86,0
2699,note_on,,59,0,11,,,,,,,,,,,,,,,,15,,50,0
2700,note_on,,1,0,7,,,,,,,,,,,,,,,,10,,74,72
2700,note_on,,1,0,5,,,,,,,,,,,,,,,,2,,50,72
2700,note_on,,1,0,9,,,,,,,,,,,,,,,,12,,66,72
2700,note_on,,1,0,8,,,,,,,,,,,,,,,,11,,74,72
2700,note_on,,1,0,10,,,,,,,,,,,,,,,,13,,50,72
2700,note_on,,1,0,11,,,,,,,,,,,,,,,,15,,50,72
2729,note_on,,29,0,7,,,,,,,,,,,,,,,,10,,74,0
2729,note_on,,29,0,9,,,,,,,,,,,,,,,,12,,66,0
2729,note_on,,29,0,8,,,,,,,,,,,,,,,,11,,74,0
2730,note_on,,1,0,9,,,,,,,,,,,,,,,,12,,66,72
2730,note_on,,1,0,8,,,,,,,,,,,,,,,,11,,74,72
2730,note_on,,1,0,7,,,,,,,,,,,,,,,,10,,74,72
2759,note_on,,29,0,9,,,,,,,,,,,,,,,,12,,66,0
2759,note_on,,59,0,11,,,,,,,,,,,,,,,,15,,50,0
2759,note_on,,59,0,5,,,,,,,,,,,,,,,,2,,50,0
2759,note_on,,29,0,7,,,,,,,,,,,,,,,,10,,74,0
2759,note_on,,29,0,8,,,,,,,,,,,,,,,,11,,74,0
2759,note_on,,59,0,10,,,,,,,,,,,,,,,,13,,50,0
2760,note_on,,1,0,5,,,,,,,,,,,,,,,,2,,50,72
2760,note_on,,1,0,11,,,,,,,,,,,,,,,,15,,50,72
2760,note_on,,1,0,7,,,,,,,,,,,,,,,,10,,78,72
2760,note_on,,1,0,8,,,,,,,,,,,,,,,,11,,78,72
2760,note_on,,1,0,10,,,,,,,,,,,,,,,,13,,50,72
2760,note_on,,1,0,9,,,,,,,,,,,,,,,,12,,69,72
2789,note_on,,29,0,9,,,,,,,,,,,,,,,,12,,69,0
2789,note_on,,29,0,7,,,,,,,,,,,,,,,,10,,78,0
2789,note_on,,29,0,8,,,,,,,,,,,,,,,,11,,78,0
2790,note_on,,1,0,7,,,,,,,,,,,,,,,,10,,78,72
2790,note_on,,1,0,8,,,,,,,,,,,,,,,,11,,78,72
2790,note_on,,1,0,9,,,,,,,,,,,,,,,,12,,69,72
2819,note_on,,29,0,8,,,,,,,,,,,,,,,,11,,78,0
2819,note_on,,29,0,7,,,,,,,,,,,,,,,,10,,78,0
2819,note_on,,59,0,10,,,,,,,,,,,,,,,,13,,50,0
2819,note_on,,29,0,9,,,,,,,,,,,,,,,,12,,69,0
2819,note_on,,59,0,5,,,,,,,,,,,,,,,,2,,50,0
2819,note_on,,59,0,11,,,,,,,,,,,,,,,,15,,50,0
2820,note_on,,1,0,7,,,,,,,,,,,,,,,,10,,81,72
2820,note_on,,1,0,8,,,,,,,,,,,,,,,,11,,81,72
2820,note_on,,1,0,5,,,,,,,,,,,,,,,,2,,50,72
2820,note_on,,1,0,10,,,,,,,,,,,,,,,,13,,50,72
2820,note_on,,1,0,9,,,,,,,,,,,,,,,,12,,66,72
2820,note_on,,1,0,11,,,,,,,,,,,,,,,,15,,50,72
2849,note_on,,29,0,7,,,,,,,,,,,,,,,,10,,81,0
2849,note_on,,29,0,8,,,,,,,,,,,,,,,,11,,81,0
2849,note_on,,29,0,9,,,,,,,,,,,,,,,,12,,66,0
2850,note_on,,1,0,7,,,,,,,,,,,,,,,,10,,81,72
2850,note_on,,1,0,8,,,,,,,,,,,,,,,,11,,81,72
2850,note_on,,1,0,9,,,,,,,,,,,,,,,,12,,66,72
2879,note_on,,59,0,10,,,,,,,,,,,,,,,,13,,50,0
2879,note_on,,0,0,11,,,,,,,,,,,,,,,,15,,50,0
2879,note_on,,29,0,8,,,,,,,,,,,,,,,,11,,81,0
2879,note_on,,0,0,11,,,,,,,,,,,,,,,,15,,69,0
2879,note_on,,59,0,11,,,,,,,,,,,,,,,,15,,57,0
2879,note_on,,0,0,11,,,,,,,,,,,,,,,,15,,66,0
2879,note_on,,0,0,11,,,,,,,,,,,,,,,,15,,62,0
2879,note_on,,59,0,5,,,,,,,,,,,,,,,,2,,50,0
2879,note_on,,29,0,9,,,,,,,,,,,,,,,,12,,66,0
2879,note_on,,29,0,7,,,,,,,,,,,,,,,,10,,81,0
2880,note_on,,1,0,9,,,,,,,,,,,,,,,,12,,57,72
2880,note_on,,1,0,11,,,,,,,,,,,,,,,,15,,50,72
2880,note_on,,0,0,11,,,,,,,,,,,,,,,,15,,57,72
2880,note_on,,0,0,11,,,,,,,,,,,,,,,,15,,66,72
2880,note_on,,1,0,5,,,,,,,,,,,,,,,,2,,50,72
2880,note_on,,1,0,10,,,,,,,,,,,,,,,,13,,50,72
2880,note_on,,0,0,11,,,,,,,,,,,,,,,,15,,60,72
2880,note_on,,1,0,8,,,,,,,,,,,,,,,,11,,84,72
2880,note_on,,1,0,7,,,,,,,,,,,,,,,,10,,84,72
2909,note_on,,29,0,9,,,,,,,,,,,,,,,,12,,57,0
2910,note_on,,1,0,9,,,,,,,,,,,,,,,,12,,57,72
2939,note_on,,59,0,11,,,,,,,,,,,,,,,,15,,50,0
2939,note_on,,59,0,7,,,,,,,,,,,,,,,,10,,84,0
2939,note_on,,59,0,10,,,,,,,,,,,,,,,,13,,50,0
2939,note_on,,59,0,8,,,,,,,,,,,,,,,,11,,84,0
2939,note_on,,59,0,5,,,,,,,,,,,,,,,,2,,50,0
2939,note_on,,29,0,9,,,,,,,,,,,,,,,,12,,57,0
2940,note_on,,1,0,8,,,,,,,,,,,,,,,,11,,62,72
2940,note_on,,1,0,11,,,,,,,,,,,,,,,,15,,50,72
2940,note_on,,1,0,7,,,,,,,,,,,,,,,,10,,62,72
2940,note_on,,1,0,5,,,,,,,,,,,,,,,,2,,50,72
2940,note_on,,1,0,10,,,,,,,,,,,,,,,,13,,50,72
2940,note_on,,1,0,9,,,,,,,,,,,,,,,,12,,66,72
2969,note_on,,29,0,7,,,,,,,,,,,,,,,,10,,62,0
2969,note_on,,29,0,8,,,,,,,,,,,,,,,,11,,62,0
2969,note_on,,29,0,9,,,,,,,,,,,,,,,,12,,66,0
2970,note_on,,1,0,9,,,,,,,,,,,,,,,,12,,66,72
2970,note_on,,1,0,7,,,,,,,,,,,,,,,,10,,62,72
2970,note_on,,1,0,8,,,,,,,,,,,,,,,,11,,62,72
2999,note_on,,29,0,9,,,,,,,,,,,,,,,,12,,66,0
2999,note_on,,59,0,11,,,,,,,,,,,,,,,,15,,50,0
2999,note_on,,29,0,7,,,,,,,,,,,,,,,,10,,62,0
2999,note_on,,59,0,10,,,,,,,,,,,,,,,,13,,50,0
2999,note_on,,29,0,8,,,,,,,,,,,,,,,,11,,62,0
2999,note_on,,59,0,5,,,,,,,,,,,,,,,,2,,50,0
3000,note_on,,1,0,5,,,,,,,,,,,,,,,,2,,50,72
3000,note_on,,1,0,11,,,,,,,,,,,,,,,,15,,50,72
3000,note_on,,1,0,10,,,,,,,,,,,,,,,,13,,50,72
3000,note_on,,1,0,8,,,,,,,,,,,,,,,,11,,66,72
3000,note_on,,1,0,9,,,,,,,,,,,,,,,,12,,69,72
3000,note_on,,1,0,7,,,,,,,,,,,,,,,,10,,66,72
3029,note_on,,29,0,7,,,,,,,,,,,,,,,,10,,66,0
3029,note_on,,29,0,9,,,,,,,,,,,,,,,,12,,69,0
3029,note_on,,29,0,8,,,,,,,,,,,,,,,,11,,66,0
3030,note_on,,1,0,9,,,,,,,,,,,,,,,,12,,69,72
3030,note_on,,1,0,7,,,,,,,,,,,,,,,,10,,66,72
3030,note_on,,1,0,8,,,,,,,,,,,,,,,,11,,66,72
3059,note_on,,59,0,11,,,,,,,,,,,,,,,,15,,50,0
3059,note_on,,59,0,10,,,,,,,,,,,,,,,,13,,50,0
3059,note_on,,29,0,7,,,,,,,,,,,,,,,,10,,66,0
3059,note_on,,29,0,9,,,,,,,,,,,,,,,,12,,69,0
3059,note_on,,29,0,8,,,,,,,,,,,,,,,,11,,66,0
3059,note_on,,59,0,5,,,,,,,,,,,,,,,,2,,50,0
3060,note_on,,1,0,5,,,,,,,,,,,,,,,,2,,50,72
3060,note_on,,1,0,7,,,,,,,,,,,,,,,,10,,69,72
3060,note_on,,1,0,9,,,,,,,,,,,,,,,,12,,66,72
3060,note_on,,1,0,8,,,,,,,,,,,,,,,,11,,69,72
3060,note_on,,1,0,10,,,,,,,,,,,,,,,,13,,50,72
3060,note_on,,1,0,11,,,,,,,,,,,,,,,,15,,50,72
3089,note_on,,29,0,7,,,,,,,,,,,,,,,,10,,69,0
3089,note_on,,29,0,8,,,,,,,,,,,,,,,,11,,69,0
3089,note_on,,29,0,9,,,,,,,,,,,,,,,,12,,66,0
3090,note_on,,1,0,8,,,,,,,,,,,,,,,,11,,69,72
3090,note_on,,1,0,9,,,,,,,,,,,,,,,,12,,66,72
3090,note_on,,1,0,7,,,,,,,,,,,,,,,,10,,69,72
3119,note_on,,0,0,11,,,,,,,,,,,,,,,,15,,66,0
3119,note_on,,29,0,7,,,,,,,,,,,,,,,,10,,69,0
3119,note_on,,0,0,11,,,,,,,,,,,,,,,,15,,50,0
3119,note_on,,29,0,8,,,,,,,,,,,,,,,,11,,69,0
3119,note_on,,59,0,11,,,,,,,,,,,,,,,,15,,57,0
3119,note_on,,29,0,9,,,,,,,,,,,,,,,,12,,66,0
3119,note_on,,59,0,5,,,,,,,,,,,,,,,,2,,50,0
3119,note_on,,59,0,10,,,,,,,,,,,,,,,,13,,50,0
3119,note_on,,0,0,11,,,,,,,,,,,,,,,,15,,60,0
3120,note_on,,0,0,11,,,,,,,,,,,,,,,,15,,72,72
3120,note_on,,0,0,11,,,,,,,,,,,,,,,,15,,66,72
3120,note_on,,0,0,11,,,,,,,,,,,,,,,,15,,62,72
3120,note_on,,1,0,8,,,,,,,,,,,,,,,,11,,72,72
3120,note_on,,1,0,11,,,,,,,,,,,,,,,,15,,50,72
3120,note_on,,1,0,9,,,,,,,,,,,,,,,,12,,62,72
3120,note_on,,1,0,5,,,,,,,,,,,,,,,,2,,50,72
3120,note_on,,1,0,7,,,,,,,,,,,,,,,,10,,72,72
3120,note_on,,1,0,10,,,,,,,,,,,,,,,,13,,50,72
3120,note_on,,0,0,11,,,,,,,,,,,,,,,,15,,57,72
3149,note_on,,29,0,8,,,,,,,,,,,,,,,,11,,72,0
3149,note_on,,29,0,7,,,,,,,,,,,,,,,,10,,72,0
3149,note_on,,29,0,9,,,,,,,,,,,,,,,,12,,62,0
3150,note_on,,1,0,7,,,,,,,,,,,,,,,,10,,72,72
3150,note_on,,1,0,9,,,,,,,,,,,,,,,,12,,62,72
3150,note_on,,1,0,8,,,,,,,,,,,,,,,,11,,72,72
3179,note_on,,29,0,8,,,,,,,,,,,,,,,,11,,72,0
3179,note_on,,59,0,11,,,,,,,,,,,,,,,,15,,50,0
3179,note_on,,29,0,7,,,,,,,,,,,,,,,,10,,72,0
3179,note_on,,59,0,5,,,,,,,,,,,,,,,,2,,50,0
3179,note_on,,29,0,9,,,,,,,,,,,,,,,,12,,62,0
3179,note_on,,59,0,10,,,,,,,,,,,,,,,,13,,50,0
3180,note_on,,1,0,7,,,,,,,,,,,,,,,,10,,78,72
3180,note_on,,1,0,11,,,,,,,,,,,,,,,,15,,50,72
3180,note_on,,1,0,10,,,,,,,,,,,,,,,,13,,50,72
3180,note_on,,1,0,9,,,,,,,,,,,,,,,,12,,62,72
3180,note_on,,1,0,8,,,,,,,,,,,,,,,,11,,78,72
3180,note_on,,1,0,5,,,,,,,,,,,,,,,,2,,50,72
3209,note_on,,29,0,9,,,,,,,,,,,,,,,,12,,62,0
3209,note_on,,29,0,8,,,,,,,,,,,,,,,,11,,78,0
3209,note_on,,29,0,7,,,,,,,,,,,,,,,,10,,78,0
3210,note_on,,1,0,9,,,,,,,,,,,,,,,,12,,62,72
3210,note_on,,1,0,7,,,,,,,,,,,,,,,,10,,78,72
3210,note_on,,1,0,8,,,,,,,,,,,,,,,,11,,78,72
3239,note_on,,29,0,9,,,,,,,,,,,,,,,,12,,62,0
3239,note_on,,59,0,10,,,,,,,,,,,,,,,,13,,50,0
3239,note_on,,59,0,5,,,,,,,,,,,,,,,,2,,50,0
3239,note_on,,59,0,11,,,,,,,,,,,,,,,,15,,50,0
3239,note_on,,29,0,7,,,,,,,,,,,,,,,,10,,78,0
3239,note_on,,29,0,8,,,,,,,,,,,,,,,,11,,78,0
3240,note_on,,1,0,8,,,,,,,,,,,,,,,,11,,81,72
3240,note_on,,1,0,10,,,,,,,,,,,,,,,,13,,50,72
3240,note_on,,1,0,5,,,,,,,,,,,,,,,,2,,50,72
3240,note_on,,1,0,11,,,,,,,,,,,,,,,,15,,50,72
3240,note_on,,1,0,9,,,,,,,,,,,,,,,,12,,66,72
3240,note_on,,1,0,7,,,,,,,,,,,,,,,,10,,81,72
3269,note_on,,29,0,8,,,,,,,,,,,,,,,,11,,81,0
3269,note_on,,29,0,7,,,,,,,,,,,,,,,,10,,81,0
3269,note_on,,29,0,9,,,,,,,,,,,,,,,,12,,66,0
3270,note_on,,1,0,9,,,,,,,,,,,,,,,,12,,66,72
3270,note_on,,1,0,8,,,,,,,,,,,,,,,,11,,81,72
3270,note_on,,1,0,7,,,,,,,,,,,,,,,,10,,81,72
3299,note_on,,29,0,9,,,,,,,,,,,,,,,,12,,66,0
3299,note_on,,29,0,8,,,,,,,,,,,,,,,,11,,81,0
3299,note_on,,29,0,7,,,,,,,,,,,,,,,,10,,81,0
3299,note_on,,59,0,11,,,,,,,,,,,,,,,,15,,50,0
3299,note_on,,59,0,5,,,,,,,,,,,,,,,,2,,50,0
3299,note_on,,59,0,10,,,,,,,,,,,,,,,,13,,50,0
3300,note_on,,1,0,10,,,,,,,,,,,,,,,,13,,50,72
3300,note_on,,1,0,11,,,,,,,,,,,,,,,,15,,50,72
3300,note_on,,1,0,5,,,,,,,,,,,,,,,,2,,50,72
3300,note_on,,1,0,8,,,,,,,,,,,,,,,,11,,72,72
3300,note_on,,1,0,7,,,,,,,,,,,,,,,,10,,72,72
3300,note_on,,1,0,9,,,,,,,,,,,,,,,,12,,66,72
3329,note_on,,29,0,7,,,,,,,,,,,,,,,,10,,72,0
3329,note_on,,29,0,8,,,,,,,,,,,,,,,,11,,72,0
3329,note_on,,29,0,9,,,,,,,,,,,,,,,,12,,66,0
3330,note_on,,1,0,7,,,,,,,,,,,,,,,,10,,72,72
3330,note_on,,1,0,8,,,,,,,,,,,,,,,,11,,72,72
3330,note_on,,1,0,9,,,,,,,,,,,,,,,,12,,66,72
3359,note_on,,0,0,11,,,,,,,,,,,,,,,,15,,50,0
3359,note_on,,59,0,5,,,,,,,,,,,,,,,,2,,50,0
3359,note_on,,29,0,7,,,,,,,,,,,,,,,,10,,72,0
3359,note_on,,59,0,10,,,,,,,,,,,,,,,,13,,50,0
3359,note_on,,59,0,11,,,,,,,,,,,,,,,,15,,57,0
3359,note_on,,0,0,11,,,,,,,,,,,,,,,,15,,72,0
3359,note_on,,0,0,11,,,,,,,,,,,,,,,,15,,66,0
3359,note_on,,29,0,9,,,,,,,,,,,,,,,,12,,66,0
3359,note_on,,0,0,11,,,,,,,,,,,,,,,,15,,62,0
3359,note_on,,29,0,8,,,,,,,,,,,,,,,,11,,72,0
3360,note_on,,1,0,7,,,,,,,,,,,,,,,,10,,71,72
3360,note_on,,1,0,8,,,,,,,,,,,,,,,,11,,71,72
3360,note_on,,0,0,11,,,,,,,,,,,,,,,,15,,67,72
3360,note_on,,0,0,11,,,,,,,,,,,,,,,,15,,62,72
3360,note_on,,1,0,11,,,,,,,,,,,,,,,,15,,55,72
3360,note_on,,1,0,10,,,,,,,,,,,,,,,,13,,55,72
3360,note_on,,1,0,5,,,,,,,,,,,,,,,,2,,55,72
3360,note_on,,0,0,11,,,,,,,,,,,,,,,,15,,71,72
3360,note_on,,1,0,9,,,,,,,,,,,,,,,,12,,62,72
3389,note_on,,29,0,9,,,,,,,,,,,,,,,,12,,62,0
3389,note_on,,29,0,8,,,,,,,,,,,,,,,,11,,71,0
3389,note_on,,29,0,7,,,,,,,,,,,,,,,,10,,71,0
3390,note_on,,1,0,9,,,,,,,,,,,,,,,,12,,62,72
3390,note_on,,1,0,7,,,,,,,,,,,,,,,,10,,71,72
3390,note_on,,1,0,8,,,,,,,,,,,,,,,,11,,71,72
3419,note_on,,29,0,7,,,,,,,,,,,,,,,,10,,71,0
3419,note_on,,59,0,5,,,,,,,,,,,,,,,,2,,55,0
3419,note_on,,59,0,11,,,,,,,,,,,,,,,,15,,55,0
3419,note_on,,59,0,10,,,,,,,,,,,,,,,,13,,55,0
3419,note_on,,29,0,8,,,,,,,,,,,,,,,,11,,71,0
3419,note_on,,29,0,9,,,,,,,,,,,,,,,,12,,62,0
3420,note_on,,1,0,5,,,,,,,,,,,,,,,,2,,55,72
3420,note_on,,1,0,7,,,,,,,,,,,,,,,,10,,74,72
3420,note_on,,1,0,10,,,,,,,,,,,,,,,,13,,55,72
3420,note_on,,1,0,11,,,,,,,,,,,,,,,,15,,55,72
3420,note_on,,1,0,8,,,,,,,,,,,,,,,,11,,74,72
3420,note_on,,1,0,9,,,,,,,,,,,,,,,,12,,59,72
3449,note_on,,29,0,9,,,,,,,,,,,,,,,,12,,59,0
3449,note_on,,29,0,8,,,,,,,,,,,,,,,,11,,74,0
3449,note_on,,29,0,7,,,,,,,,,,,,,,,,10,,74,0
3450,note_on,,1,0,8,,,,,,,,,,,,,,,,11,,74,72
3450,note_on,,1,0,7,,,,,,,,,,,,,,,,10,,74,72
3450,note_on,,1,0,9,,,,,,,,,,,,,,,,12,,59,72
3479,note_on,,59,0,5,,,,,,,,,,,,,,,,2,,55,0
3479,note_on,,29,0,9,,,,,,,,,,,,,,,,12,,59,0
3479,note_on,,59,0,11,,,,,,,,,,,,,,,,15,,55,0
3479,note_on,,59,0,10,,,,,,,,,,,,,,,,13,,55,0
3479,note_on,,29,0,7,,,,,,,,,,,,,,,,10,,74,0
3479,note_on,,29,0,8,,,,,,,,,,,,,,,,11,,74,0
3480,note_on,,1,0,10,,,,,,,,,,,,,,,,13,,55,72
3480,note_on,,1,0,8,,,,,,,,,,,,,,,,11,,76,72
3480,note_on,,1,0,7,,,,,,,,,,,,,,,,10,,76,72
3480,note_on,,1,0,9,,,,,,,,,,,,,,,,12,,60,72
3480,note_on,,1,0,11,,,,,,,,,,,,,,,,15,,55,72
3480,note_on,,1,0,5,,,,,,,,,,,,,,,,2,,55,72
3509,note_on,,29,0,9,,,,,,,,,,,,,,,,12,,60,0
3509,note_on,,29,0,7,,,,,,,,,,,,,,,,10,,76,0
3509,note_on,,29,0,8,,,,,,,,,,,,,,,,11,,76,0
3510,note_on,,1,0,7,,,,,,,,,,,,,,,,10,,76,72
3510,note_on,,1,0,9,,,,,,,,,,,,,,,,12,,60,72
3510,note_on,,1,0,8,,,,,,,,,,,,,,,,11,,76,72
3539,note_on,,59,0,5,,,,,,,,,,,,,,,,2,,55,0
3539,note_on,,29,0,9,,,,,,,,,,,,,,,,12,,60,0
3539,note_on,,29,0,7,,,,,,,,,,,,,,,,10,,76,0
3539,note_on,,59,0,10,,,,,,,,,,,,,,,,13,,55,0
3539,note_on,,59,0,11,,,,,,,,,,,,,,,,15,,55,0
3539,note_on,,29,0,8,,,,,,,,,,,,,,,,11,,76,0
3540,note_on,,1,0,7,,,,,,,,,,,,,,,,10,,78,72
3540,note_on,,1,0,11,,,,,,,,,,,,,,,,15,,55,72
3540,note_on,,1,0,10,,,,,,,,,,,,,,,,13,,55,72
3540,note_on,,1,0,5,,,,,,,,,,,,,,,,2,,55,72
3540,note_on,,1,0,8,,,,,,,,,,,,,,,,11,,78,72
3540,note_on,,1,0,9,,,,,,,,,,,,,,,,12,,57,72
3569,note_on,,29,0,9,,,,,,,,,,,,,,,,12,,57,0
3569,note_on,,29,0,8,,,,,,,,,,,,,,,,11,,78,0
3569,note_on,,29,0,7,,,,,,,,,,,,,,,,10,,78,0
3570,note_on,,1,0,7,,,,,,,,,,,,,,,,10,,78,72
3570,note_on,,1,0,9,,,,,,,,,,,,,,,,12,,57,72
3570,note_on,,1,0,8,,,,,,,,,,,,,,,,11,,78,72
3599,note_on,,29,0,7,,,,,,,,,,,,,,,,10,,78,0
3599,note_on,,59,0,10,,,,,,,,,,,,,,,,13,,55,0
3599,note_on,,59,0,11,,,,,,,,,,,,,,,,15,,71,0
3599,note_on,,0,0,11,,,,,,,,,,,,,,,,15,,67,0
3599,note_on,,0,0,11,,,,,,,,,,,,,,,,15,,55,0
3599,note_on,,29,0,8,,,,,,,,,,,,,,,,11,,78,0
3599,note_on,,59,0,5,,,,,,,,,,,,,,,,2,,55,0
3599,note_on,,0,0,11,,,,,,,,,,,,,,,,15,,62,0
3599,note_on,,29,0,9,,,,,,,,,,,,,,,,12,,57,0
3600,note_on,,1,0,10,,,,,,,,,,,,,,,,13,,55,72
3600,note_on,,1,0,8,,,,,,,,,,,,,,,,11,,79,72
3600,note_on,,1,0,5,,,,,,,,,,,,,,,,2,,55,72
3600,note_on,,1,0,9,,,,,,,,,,,,,,,,12,,59,72
3600,note_on,,0,0,11,,,,,,,,,,,,,,,,15,,62,72
3600,note_on,,1,0,11,,,,,,,,,,,,,,,,15,,55,72
3600,note_on,,0,0,11,,,,,,,,,,,,,,,,15,,59,72
3600,note_on,,1,0,7,,,,,,,,,,,,,,,,10,,79,72
3629,note_on,,29,0,9,,,,,,,,,,,,,,,,12,,59,0
3629,note_on,,29,0,7,,,,,,,,,,,,,,,,10,,79,0
3629,note_on,,29,0,8,,,,,,,,,,,,,,,,11,,79,0
3630,note_on,,1,0,9,,,,,,,,,,,,,,,,12,,59,72
3630,note_on,,1,0,8,,,,,,,,,,,,,,,,11,,79,72
3630,note_on,,1,0,7,,,,,,,,,,,,,,,,10,,79,72
3659,note_on,,59,0,5,,,,,,,,,,,,,,,,2,,55,0
3659,note_on,,29,0,9,,,,,,,,,,,,,,,,12,,59,0
3659,note_on,,59,0,10,,,,,,,,,,,,,,,,13,,55,0
3659,note_on,,29,0,8,,,,,,,,,,,,,,,,11,,79,0
3659,note_on,,29,0,7,,,,,,,,,,,,,,,,10,,79,0
3659,note_on,,59,0,11,,,,,,,,,,,,,,,,15,,55,0
3660,note_on,,1,0,9,,,,,,,,,,,,,,,,12,,59,72
3660,note_on,,1,0,5,,,,,,,,,,,,,,,,2,,55,72
3660,note_on,,1,0,11,,,,,,,,,,,,,,,,15,,55,72
3660,note_on,,1,0,7,,,,,,,,,,,,,,,,10,,67,72
3660,note_on,,1,0,8,,,,,,,,,,,,,,,,11,,67,72
3660,note_on,,1,0,10,,,,,,,,,,,,,,,,13,,55,72
3689,note_on,,29,0,7,,,,,,,,,,,,,,,,10,,67,0
3689,note_on,,29,0,9,,,,,,,,,,,,,,,,12,,59,0
3689,note_on,,29,0,8,,,,,,,,,,,,,,,,11,,67,0
3690,note_on,,1,0,7,,,,,,,,,,,,,,,,10,,67,72
3690,note_on,,1,0,9,,,,,,,,,,,,,,,,12,,59,72
3690,note_on,,1,0,8,,,,,,,,,,,,,,,,11,,67,72
3719,note_on,,59,0,11,,,,,,,,,,,,,,,,15,,55,0
3719,note_on,,59,0,5,,,,,,,,,,,,,,,,2,,55,0
3719,note_on,,29,0,9,,,,,,,,,,,,,,,,12,,59,0
3719,note_on,,29,0,8,,,,,,,,,,,,,,,,11,,67,0
3719,note_on,,29,0,7,,,,,,,,,,,,,,,,10,,67,0
3719,note_on,,59,0,10,,,,,,,,,,,,,,,,13,,55,0
3720,note_on,,1,0,10,,,,,,,,,,,,,,,,13,,55,72
3720,note_on,,1,0,5,,,,,,,,,,,,,,,,2,,55,72
3720,note_on,,1,0,8,,,,,,,,,,,,,,,,11,,71,72
3720,note_on,,1,0,7,,,,,,,,,,,,,,,,10,,71,72
3720,note_on,,1,0,11,,,,,,,,,,,,,,,,15,,55,72
3720,note_on,,1,0,9,,,,,,,,,,,,,,,,12,,62,72
3749,note_on,,29,0,7,,,,,,,,,,,,,,,,10,,71,0
3749,note_on,,29,0,8,,,,,,,,,,,,,,,,11,,71,0
3749,note_on,,29,0,9,,,,,,,,,,,,,,,,12,,62,0
3750,note_on,,1,0,7,,,,,,,,,,,,,,,,10,,71,72
3750,note_on,,1,0,8,,,,,,,,,,,,,,,,11,,71,72
3750,note_on,,1,0,9,,,,,,,,,,,,,,,,12,,62,72
3779,note_on,,59,0,11,,,,,,,,,,,,,,,,15,,55,0
3779,note_on,,29,0,9,,,,,,,,,,,,,,,,12,,62,0
3779,note_on,,29,0,7,,,,,,,,,,,,,,,,10,,71,0
3779,note_on,,59,0,10,,,,,,,,,,,,,,,,13,,55,0
3779,note_on,,59,0,5,,,,,,,,,,,,,,,,2,,55,0
3779,note_on,,29,0,8,,,,,,,,,,,,,,,,11,,71,0
3780,note_on,,1,0,8,,,,,,,,,,,,,,,,11,,74,72
3780,note_on,,1,0,9,,,,,,,,,,,,,,,,12,,59,72
3780,note_on,,1,0,11,,,,,,,,,,,,,,,,15,,55,72
3780,note_on,,1,0,5,,,,,,,,,,,,,,,,2,,55,72
3780,note_on,,1,0,10,,,,,,,,,,,,,,,,13,,55,72
3780,note_on,,1,0,7,,,,,,,,,,,,,,,,10,,74,72
3809,note_on,,29,0,9,,,,,,,,,,,,,,,,12,,59,0
3809,note_on,,29,0,7,,,,,,,,,,,,,,,,10,,74,0
3809,note_on,,29,0,8,,,,,,,,,,,,,,,,11,,74,0
3810,note_on,,1,0,9,,,,,,,,,,,,,,,,12,,59,72
3810,note_on,,1,0,7,,,,,,,,,,,,,,,,10,,74,72
3810,note_on,,1,0,8,,,,,,,,,,,,,,,,11,,74,72
3839,note_on,,0,0,11,,,,,,,,,,,,,,,,15,,55,0
3839,note_on,,59,0,5,,,,,,,,,,,,,,,,2,,55,0
3839,note_on,,29,0,8,,,,,,,,,,,,,,,,11,,74,0
3839,note_on,,29,0,9,,,,,,,,,,,,,,,,12,,59,0
3839,note_on,,0,0,11,,,,,,,,,,,,,,,,15,,59,0
3839,note_on,,59,0,11,,,,,,,,,,,,,,,,15,,62,0
3839,note_on,,29,0,7,,,,,,,,,,,,,,,,10,,74,0
3839,note_on,,59,0,10,,,,,,,,,,,,,,,,13,,55,0
3840,note_on,,1,0,11,,,,,,,,,,,,,,,,15,,43,72
3840,note_on,,1,0,7,,,,,,,,,,,,,,,,10,,77,72
3840,note_on,,1,0,10,,,,,,,,,,,,,,,,13,,43,72
3840,note_on,,1,0,5,,,,,,,,,,,,,,,,2,,43,72
3840,note_on,,1,0,8,,,,,,,,,,,,,,,,11,,77,72
3840,note_on,,1,0,9,,,,,,,,,,,,,,,,12,,55,72
3840,note_on,,0,0,11,,,,,,,,,,,,,,,,15,,67,72
3840,note_on,,0,0,11,,,,,,,,,,,,,,,,15,,62,72
3840,note_on,,0,0,11,,,,,,,,,,,,,,,,15,,74,72
3840,note_on,,0,0,11,,,,,,,,,,,,,,,,15,,71,72
3869,note_on,,29,0,9,,,,,,,,,,,,,,,,12,,55,0
3870,note_on,,1,0,9,,,,,,,,,,,,,,,,12,,55,72
3899,note_on,,59,0,5,,,,,,,,,,,,,,,,2,,43,0
3899,note_on,,29,0,9,,,,,,,,,,,,,,,,12,,55,0
3899,note_on,,59,0,10,,,,,,,,,,,,,,,,13,,43,0
3899,note_on,,59,0,11,,,,,,,,,,,,,,,,15,,43,0
3899,note_on,,59,0,7,,,,,,,,,,,,,,,,10,,77,0
3899,note_on,,59,0,8,,,,,,,,,,,,,,,,11,,77,0
3900,note_on,,1,0,10,,,,,,,,,,,,,,,,13,,43,72
3900,note_on,,1,0,5,,,,,,,,,,,,,,,,2,,43,72
3900,note_on,,1,0,7,,,,,,,,,,,,,,,,10,,55,72
3900,note_on,,1,0,11,,,,,,,,,,,,,,,,15,,43,72
3900,note_on,,1,0,9,,,,,,,,,,,,,,,,12,,59,72
3900,note_on,,1,0,8,,,,,,,,,,,,,,,,11,,55,72
3929,note_on,,29,0,8,,,,,,,,,,,,,,,,11,,55,0
3929,note_on,,29,0,7,,,,,,,,,,,,,,,,10,,55,0
3929,note_on,,29,0,9,,,,,,,,,,,,,,,,12,,59,0
3930,note_on,,1,0,8,,,,,,,,,,,,,,,,11,,55,72
3930,note_on,,1,0,9,,,,,,,,,,,,,,,,12,,59,72
3930,note_on,,1,0,7,,,,,,,,,,,,,,,,10,,55,72
3959,note_on,,29,0,7,,,,,,,,,,,,,,,,10,,55,0
3959,note_on,,59,0,5,,,,,,,,,,,,,,,,2,,43,0
3959,note_on,,29,0,8,,,,,,,,,,,,,,,,11,,55,0
3959,note_on,,59,0,10,,,,,,,,,,,,,,,,13,,43,0
3959,note_on,,59,0,11,,,,,,,,,,,,,,,,15,,43,0
3959,note_on,,29,0,9,,,,,,,,,,,,,,,,12,,59,0
3960,note_on,,1,0,7,,,,,,,,,,,,,,,,10,,59,72
3960,note_on,,1,0,8,,,,,,,,,,,,,,,,11,,59,72
3960,note_on,,1,0,5,,,,,,,,,,,,,,,,2,,43,72
3960,note_on,,1,0,10,,,,,,,,,,,,,,,,13,,43,72
3960,note_on,,1,0,11,,,,,,,,,,,,,,,,15,,43,72
3960,note_on,,1,0,9,,,,,,,,,,,,,,,,12,,62,72
3989,note_on,,29,0,9,,,,,,,,,,,,,,,,12,,62,0
3989,note_on,,29,0,7,,,,,,,,,,,,,,,,10,,59,0
3989,note_on,,29,0,8,,,,,,,,,,,,,,,,11,,59,0
3990,note_on,,1,0,9,,,,,,,,,,,,,,,,12,,62,72
3990,note_on,,1,0,7,,,,,,,,,,,,,,,,10,,59,72
3990,note_on,,1,0,8,,,,,,,,,,,,,,,,11,,59,72
4019,note_on,,59,0,10,,,,,,,,,,,,,,,,13,,43,0
4019,note_on,,29,0,9,,,,,,,,,,,,,,,,12,,62,0
4019,note_on,,29,0,7,,,,,,,,,,,,,,,,10,,59,0
4019,note_on,,59,0,11,,,,,,,,,,,,,,,,15,,43,0
4019,note_on,,29,0,8,,,,,,,,,,,,,,,,11,,59,0
4019,note_on,,59,0,5,,,,,,,,,,,,,,,,2,,43,0
4020,note_on,,1,0,7,,,,,,,,,,,,,,,,10,,62,72
4020,note_on,,1,0,11,,,,,,,,,,,,,,,,15,,43,72
4020,note_on,,1,0,8,,,,,,,,,,,,,,,,11,,62,72
4020,note_on,,1,0,10,,,,,,,,,,,,,,,,13,,43,72
4020,note_on,,1,0,9,,,,,,,,,,,,,,,,12,,59,72
4020,note_on,,1,0,5,,,,,,,,,,,,,,,,2,,43,72
4049,note_on,,29,0,8,,,,,,,,,,,,,,,,11,,62,0
4049,note_on,,29,0,9,,,,,,,,,,,,,,,,12,,59,0
4049,note_on,,29,0,7,,,,,,,,,,,,,,,,10,,62,0
4050,note_on,,1,0,8,,,,,,,,,,,,,,,,11,,62,72
4050,note_on,,1,0,9,,,,,,,,,,,,,,,,12,,59,72
4050,note_on,,1,0,7,,,,,,,,,,,,,,,,10,,62,72
4079,note_on,,59,0,10,,,,,,,,,,,,,,,,13,,43,0
4079,note_on,,29,0,7,,,,,,,,,,,,,,,,10,,62,0
4079,note_on,,0,0,11,,,,,,,,,,,,,,,,15,,67,0
4079,note_on,,0,0,11,,,,,,,,,,,,,,,,15,,43,0
4079,note_on,,29,0,8,,,,,,,,,,,,,,,,11,,62,0
4079,note_on,,0,0,11,,,,,,,,,,,,,,,,15,,71,0
4079,note_on,,29,0,9,,,,,,,,,,,,,,,,12,,59,0
4079,note_on,,59,0,11,,,,,,,,,,,,,,,,15,,74,0
4079,note_on,,59,0,5,,,,,,,,,,,,,,,,2,,43,0
4079,note_on,,0,0,11,,,,,,,,,,,,,,,,15,,62,0
4080,note_on,,1,0,9,,,,,,,,,,,,,,,,12,,55,72
4080,note_on,,1,0,10,,,,,,,,,,,,,,,,13,,43,72
4080,note_on,,1,0,5,,,,,,,,,,,,,,,,2,,43,72
4080,note_on,,0,0,11,,,,,,,,,,,,,,,,15,,59,72
4080,note_on,,1,0,8,,,,,,,,,,,,,,,,11,,65,72
4080,note_on,,0,0,11,,,,,,,,,,,,,,,,15,,62,72
4080,note_on,,1,0,7,,,,,,,,,,,,,,,,10,,65,72
4080,note_on,,0,0,11,,,,,,,,,,,,,,,,15,,67,72
4080,note_on,,1,0,11,,,,,,,,,,,,,,,,15,,43,72
4080,note_on,,0,0,11,,,,,,,,,,,,,,,,15,,65,72
4109,note_on,,29,0,7,,,,,,,,,,,,,,,,10,,65,0
4109,note_on,,29,0,9,,,,,,,,,,,,,,,,12,,55,0
4109,note_on,,29,0,8,,,,,,,,,,,,,,,,11,,65,0
4110,note_on,,1,0,7,,,,,,,,,,,,,,,,10,,65,72
4110,note_on,,1,0,8,,,,,,,,,,,,,,,,11,,65,72
4110,note_on,,1,0,9,,,,,,,,,,,,,,,,12,,55,72
4139,note_on,,59,0,11,,,,,,,,,,,,,,,,15,,43,0
4139,note_on,,29,0,8,,,,,,,,,,,,,,,,11,,65,0
4139,note_on,,59,0,10,,,,,,,,,,,,,,,,13,,43,0
4139,note_on,,59,0,5,,,,,,,,,,,,,,,,2,,43,0
4139,note_on,,29,0,7,,,,,,,,,,,,,,,,10,,65,0
4139,note_on,,29,0,9,,,,,,,,,,,,,,,,12,,55,0
4140,note_on,,1,0,10,,,,,,,,,,,,,,,,13,,43,72
4140,note_on,,1,0,7,,,,,,,,,,,,,,,,10,,71,72
4140,note_on,,1,0,9,,,,,,,,,,,,,,,,12,,62,72
4140,note_on,,1,0,8,,,,,,,,,,,,,,,,11,,71,72
4140,note_on,,1,0,11,,,,,,,,,,,,,,,,15,,43,72
4140,note_on,,1,0,5,,,,,,,,,,,,,,,,2,,43,72
4169,note_on,,29,0,9,,,,,,,,,,,,,,,,12,,62,0
4169,note_on,,29,0,8,,,,,,,,,,,,,,,,11,,71,0
4169,note_on,,29,0,7,,,,,,,,,,,,,,,,10,,71,0
4170,note_on,,1,0,8,,,,,,,,,,,,,,,,11,,71,72
4170,note_on,,1,0,9,,,,,,,,,,,,,,,,12,,62,72
4170,note_on,,1,0,7,,,,,,,,,,,,,,,,10,,71,72
4199,note_on,,29,0,8,,,,,,,,,,,,,,,,11,,71,0
4199,note_on,,59,0,10,,,,,,,,,,,,,,,,13,,43,0
4199,note_on,,29,0,9,,,,,,,,,,,,,,,,12,,62,0
4199,note_on,,59,0,11,,,,,,,,,,,,,,,,15,,43,0
4199,note_on,,29,0,7,,,,,,,,,,,,,,,,10,,71,0
4199,note_on,,59,0,5,,,,,,,,,,,,,,,,2,,43,0
4200,note_on,,1,0,9,,,,,,,,,,,,,,,,12,,65,72
4200,note_on,,1,0,8,,,,,,,,,,,,,,,,11,,74,72
4200,note_on,,1,0,7,,,,,,,,,,,,,,,,10,,74,72
4200,note_on,,1,0,11,,,,,,,,,,,,,,,,15,,43,72
4200,note_on,,1,0,10,,,,,,,,,,,,,,,,13,,43,72
4200,note_on,,1,0,5,,,,,,,,,,,,,,,,2,,43,72
4229,note_on,,29,0,9,,,,,,,,,,,,,,,,12,,65,0
4229,note_on,,29,0,8,,,,,,,,,,,,,,,,11,,74,0
4229,note_on,,29,0,7,,,,,,,,,,,,,,,,10,,74,0
4230,note_on,,1,0,7,,,,,,,,,,,,,,,,10,,74,72
4230,note_on,,1,0,9,,,,,,,,,,,,,,,,12,,65,72
4230,note_on,,1,0,8,,,,,,,,,,,,,,,,11,,74,72
4259,note_on,,29,0,9,,,,,,,,,,,,,,,,12,,65,0
4259,note_on,,29,0,8,,,,,,,,,,,,,,,,11,,74,0
4259,note_on,,59,0,10,,,,,,,,,,,,,,,,13,,43,0
4259,note_on,,29,0,7,,,,,,,,,,,,,,,,10,,74,0
4259,note_on,,59,0,11,,,,,,,,,,,,,,,,15,,43,0
4259,note_on,,59,0,5,,,,,,,,,,,,,,,,2,,43,0
4260,note_on,,1,0,5,,,,,,,,,,,,,,,,2,,43,72
4260,note_on,,1,0,8,,,,,,,,,,,,,,,,11,,65,72
4260,note_on,,1,0,7,,,,,,,,,,,,,,,,10,,65,72
4260,note_on,,1,0,9,,,,,,,,,,,,,,,,12,,59,72
4260,note_on,,1,0,11,,,,,,,,,,,,,,,,15,,43,72
4260,note_on,,1,0,10,,,,,,,,,,,,,,,,13,,43,72
4289,note_on,,29,0,8,,,,,,,,,,,,,,,,11,,65,0
4289,note_on,,29,0,7,,,,,,,,,,,,,,,,10,,65,0
4289,note_on,,29,0,9,,,,,,,,,,,,,,,,12,,59,0
4290,note_on,,1,0,9,,,,,,,,,,,,,,,,12,,59,72
4290,note_on,,1,0,7,,,,,,,,,,,,,,,,10,,65,72
4290,note_on,,1,0,8,,,,,,,,,,,,,,,,11,,65,72
4319,note_on,,59,0,11,,,,,,,,,,,,,,,,15,,67,0
4319,note_on,,29,0,9,,,,,,,,,,,,,,,,12,,59,0
4319,note_on,,59,0,10,,,,,,,,,,,,,,,,13,,43,0
4319,note_on,,59,0,5,,,,,,,,,,,,,,,,2,,43,0
4319,note_on,,29,0,8,,,,,,,,,,,,,,,,11,,65,0
4319,note_on,,0,0,11,,,,,,,,,,,,,,,,15,,65,0
4319,note_on,,0,0,11,,,,,,,,,,,,,,,,15,,62,0
4319,note_on,,29,0,7,,,,,,,,,,,,,,,,10,,65,0
4319,note_on,,0,0,11,,,,,,,,,,,,,,,,15,,43,0
4319,note_on,,0,0,11,,,,,,,,,,,,,,,,15,,59,0
4320,note_on,,1,0,9,,,,,,,,,,,,,,,,12,,67,72
4320,note_on,,1,0,11,,,,,,,,,,,,,,,,15,,60,72
4320,note_on,,0,0,11,,,,,,,,,,,,,,,,15,,64,72
4320,note_on,,1,0,8,,,,,,,,,,,,,,,,11,,64,72
4320,note_on,,0,0,11,,,,,,,,,,,,,,,,15,,67,72
4320,note_on,,1,0,5,,,,,,,,,,,,,,,,2,,60,72
4320,note_on,,1,0,7,,,,,,,,,,,,,,,,10,,64,72
4320,note_on,,1,0,10,,,,,,,,,,,,,,,,13,,60,72
4349,note_on,,29,0,8,,,,,,,,,,,,,,,,11,,64,0
4349,note_on,,29,0,7,,,,,,,,,,,,,,,,10,,64,0
4349,note_on,,29,0,9,,,,,,,,,,,,,,,,12,,67,0
4350,note_on,,1,0,8,,,,,,,,,,,,,,,,11,,64,72
4350,note_on,,1,0,9,,,,,,,,,,,,,,,,12,,67,72
4350,note_on,,1,0,7,,,,,,,,,,,,,,,,10,,64,72
4379,note_on,,59,0,5,,,,,,,,,,,,,,,,2,,60,0
4379,note_on,,29,0,8,,,,,,,,,,,,,,,,11,,64,0
4379,note_on,,59,0,11,,,,,,,,,,,,,,,,15,,60,0
4379,note_on,,0,0,11,,,,,,,,,,,,,,,,15,,64,0
4379,note_on,,29,0,9,,,,,,,,,,,,,,,,12,,67,0
4379,note_on,,29,0,7,,,,,,,,,,,,,,,,10,,64,0
4379,note_on,,59,0,10,,,,,,,,,,,,,,,,13,,60,0
4380,note_on,,1,0,8,,,,,,,,,,,,,,,,11,,72,72
4380,note_on,,1,0,9,,,,,,,,,,,,,,,,12,,67,72
4380,note_on,,1,0,7,,,,,,,,,,,,,,,,10,,76,72
4380,note_on,,1,0,10,,,,,,,,,,,,,,,,13,,60,72
4380,note_on,,1,0,5,,,,,,,,,,,,,,,,2,,60,72
4380,note_on,,1,0,11,,,,,,,,,,,,,,,,15,,60,72
4380,note_on,,0,0,11,,,,,,,,,,,,,,,,15,,64,72
4409,note_on,,29,0,9,,,,,,,,,,,,,,,,12,,67,0
4409,note_on,,29,0,8,,,,,,,,,,,,,,,,11,,72,0
4409,note_on,,29,0,7,,,,,,,,,,,,,,,,10,,76,0
4410,note_on,,1,0,7,,,,,,,,,,,,,,,,10,,76,72
4410,note_on,,1,0,8,,,,,,,,,,,,,,,,11,,72,72
4410,note_on,,1,0,9,,,,,,,,,,,,,,,,12,,67,72
4439,note_on,,59,0,10,,,,,,,,,,,,,,,,13,,60,0
4439,note_on,,29,0,8,,,,,,,,,,,,,,,,11,,72,0
4439,note_on,,29,0,9,,,,,,,,,,,,,,,,12,,67,0
4439,note_on,,59,0,5,,,,,,,,,,,,,,,,2,,60,0
4439,note_on,,29,0,7,,,,,,,,,,,,,,,,10,,76,0
4439,note_on,,0,0,11,,,,,,,,,,,,,,,,15,,64,0
4439,note_on,,59,0,11,,,,,,,,,,,,,,,,15,,60,0
4440,note_on,,1,0,11,,,,,,,,,,,,,,,,15,,59,72
4440,note_on,,0,0,11,,,,,,,,,,,,,,,,15,,62,72
4440,note_on,,1,0,9,,,,,,,,,,,,,,,,12,,67,72
4440,note_on,,1,0,8,,,,,,,,,,,,,,,,11,,60,72
4440,note_on,,1,0,7,,,,,,,,,,,,,,,,10,,64,72
4440,note_on,,1,0,5,,,,,,,,,,,,,,,,2,,59,72
4440,note_on,,1,0,10,,,,,,,,,,,,,,,,13,,59,72
4469,note_on,,29,0,9,,,,,,,,,,,,,,,,12,,67,0
4469,note_on,,29,0,8,,,,,,,,,,,,,,,,11,,60,0
4469,note_on,,29,0,7,,,,,,,,,,,,,,,,10,,64,0
4470,note_on,,1,0,9,,,,,,,,,,,,,,,,12,,67,72
4470,note_on,,1,0,7,,,,,,,,,,,,,,,,10,,64,72
4470,note_on,,1,0,8,,,,,,,,,,,,,,,,11,,60,72
4499,note_on,,59,0,11,,,,,,,,,,,,,,,,15,,59,0
4499,note_on,,29,0,8,,,,,,,,,,,,,,,,11,,60,0
4499,note_on,,29,0,9,,,,,,,,,,,,,,,,12,,67,0
4499,note_on,,59,0,10,,,,,,,,,,,,,,,,13,,59,0
4499,note_on,,59,0,5,,,,,,,,,,,,,,,,2,,59,0
4499,note_on,,0,0,11,,,,,,,,,,,,,,,,15,,62,0
4499,note_on,,29,0,7,,,,,,,,,,,,,,,,10,,64,0
4500,note_on,,1,0,10,,,,,,,,,,,,,,,,13,,59,72
4500,note_on,,0,0,11,,,,,,,,,,,,,,,,15,,62,72
4500,note_on,,1,0,8,,,,,,,,,,,,,,,,11,,72,72
4500,note_on,,1,0,7,,,,,,,,,,,,,,,,10,,76,72
4500,note_on,,1,0,9,,,,,,,,,,,,,,,,12,,67,72
4500,note_on,,1,0,5,,,,,,,,,,,,,,,,2,,59,72
4500,note_on,,1,0,11,,,,,,,,,,,,,,,,15,,59,72
4529,note_on,,29,0,8,,,,,,,,,,,,,,,,11,,72,0
4529,note_on,,29,0,9,,,,,,,,,,,,,,,,12,,67,0
4529,note_on,,29,0,7,,,,,,,,,,,,,,,,10,,76,0
4530,note_on,,1,0,9,,,,,,,,,,,,,,,,12,,67,72
4530,note_on,,1,0,7,,,,,,,,,,,,,,,,10,,76,72
4530,note_on,,1,0,8,,,,,,,,,,,,,,,,11,,72,72
4559,note_on,,29,0,8,,,,,,,,,,,,,,,,11,,72,0
4559,note_on,,59,0,5,,,,,,,,,,,,,,,,2,,59,0
4559,note_on,,59,0,10,,,,,,,,,,,,,,,,13,,59,0
4559,note_on,,29,0,9,,,,,,,,,,,,,,,,12,,67,0
4559,note_on,,59,0,11,,,,,,,,,,,,,,,,15,,67,0
4559,note_on,,0,0,11,,,,,,,,,,,,,,,,15,,59,0
4559,note_on,,0,0,11,,,,,,,,,,,,,,,,15,,62,0
4559,note_on,,29,0,7,,,,,,,,,,,,,,,,10,,76,0
4560,note_on,,1,0,10,,,,,,,,,,,,,,,,13,,57,72
4560,note_on,,0,0,11,,,,,,,,,,,,,,,,15,,64,72
4560,note_on,,0,0,11,,,,,,,,,,,,,,,,15,,69,72
4560,note_on,,0,0,11,,,,,,,,,,,,,,,,15,,72,72
4560,note_on,,0,0,11,,,,,,,,,,,,,,,,15,,60,72
4560,note_on,,1,0,9,,,,,,,,,,,,,,,,12,,69,72
4560,note_on,,1,0,11,,,,,,,,,,,,,,,,15,,57,72
4560,note_on,,1,0,8,,,,,,,,,,,,,,,,11,,60,72
4560,note_on,,1,0,5,,,,,,,,,,,,,,,,2,,57,72
4560,note_on,,1,0,7,,,,,,,,,,,,,,,,10,,64,72
4589,note_on,,29,0,7,,,,,,,,,,,,,,,,10,,64,0
4589,note_on,,29,0,9,,,,,,,,,,,,,,,,12,,69,0
4589,note_on,,29,0,8,,,,,,,,,,,,,,,,11,,60,0
4590,note_on,,1,0,7,,,,,,,,,,,,,,,,10,,64,72
4590,note_on,,1,0,9,,,,,,,,,,,,,,,,12,,69,72
4590,note_on,,1,0,8,,,,,,,,,,,,,,,,11,,60,72
4619,note_on,,59,0,11,,,,,,,,,,,,,,,,15,,57,0
4619,note_on,,29,0,8,,,,,,,,,,,,,,,,11,,60,0
4619,note_on,,29,0,7,,,,,,,,,,,,,,,,10,,64,0
4619,note_on,,59,0,5,,,,,,,,,,,,,,,,2,,57,0
4619,note_on,,29,0,9,,,,,,,,,,,,,,,,12,,69,0
4619,note_on,,0,0,11,,,,,,,,,,,,,,,,15,,60,0
4619,note_on,,59,0,10,,,,,,,,,,,,,,,,13,,57,0
4620,note_on,,1,0,10,,,,,,,,,,,,,,,,13,,57,72
4620,note_on,,1,0,8,,,,,,,,,,,,,,,,11,,72,72
4620,note_on,,1,0,5,,,,,,,,,,,,,,,,2,,57,72
4620,note_on,,1,0,11,,,,,,,,,,,,,,,,15,,57,72
4620,note_on,,0,0,11,,,,,,,,,,,,,,,,15,,60,72
4620,note_on,,1,0,9,,,,,,,,,,,,,,,,12,,69,72
4620,note_on,,1,0,7,,,,,,,,,,,,,,,,10,,76,72
4649,note_on,,29,0,9,,,,,,,,,,,,,,,,12,,69,0
4649,note_on,,29,0,7,,,,,,,,,,,,,,,,10,,76,0
4649,note_on,,29,0,8,,,,,,,,,,,,,,,,11,,72,0
4650,note_on,,1,0,7,,,,,,,,,,,,,,,,10,,76,72
4650,note_on,,1,0,8,,,,,,,,,,,,,,,,11,,72,72
4650,note_on,,1,0,9,,,,,,,,,,,,,,,,12,,69,72
4679,note_on,,29,0,9,,,,,,,,,,,,,,,,12,,69,0
4679,note_on,,29,0,7,,,,,,,,,,,,,,,,10,,76,0
4679,note_on,,59,0,5,,,,,,,,,,,,,,,,2,,57,0
4679,note_on,,29,0,8,,,,,,,,,,,,,,,,11,,72,0
4679,note_on,,59,0,11,,,,,,,,,,,,,,,,15,,57,0
4679,note_on,,0,0,11,,,,,,,,,,,,,,,,15,,60,0
4679,note_on,,59,0,10,,,,,,,,,,,,,,,,13,,57,0
4680,note_on,,1,0,9,,,,,,,,,,,,,,,,12,,69,72
4680,note_on,,1,0,8,,,,,,,,,,,,,,,,11,,60,72
4680,note_on,,0,0,11,,,,,,,,,,,,,,,,15,,59,72
4680,note_on,,1,0,11,,,,,,,,,,,,,,,,15,,55,72
4680,note_on,,1,0,10,,,,,,,,,,,,,,,,13,,55,72
4680,note_on,,1,0,7,,,,,,,,,,,,,,,,10,,64,72
4680,note_on,,1,0,5,,,,,,,,,,,,,,,,2,,55,72
4709,note_on,,29,0,7,,,,,,,,,,,,,,,,10,,64,0
4709,note_on,,29,0,8,,,,,,,,,,,,,,,,11,,60,0
4709,note_on,,29,0,9,,,,,,,,,,,,,,,,12,,69,0
4710,note_on,,1,0,7,,,,,,,,,,,,,,,,10,,64,72
4710,note_on,,1,0,8,,,,,,,,,,,,,,,,11,,60,72
4710,note_on,,1,0,9,,,,,,,,,,,,,,,,12,,69,72
4739,note_on,,0,0,11,,,,,,,,,,,,,,,,15,,59,0
4739,note_on,,59,0,10,,,,,,,,,,,,,,,,13,,55,0
4739,note_on,,59,0,5,,,,,,,,,,,,,,,,2,,55,0
4739,note_on,,29,0,8,,,,,,,,,,,,,,,,11,,60,0
4739,note_on,,29,0,9,,,,,,,,,,,,,,,,12,,69,0
4739,note_on,,59,0,11,,,,,,,,,,,,,,,,15,,55,0
4739,note_on,,29,0,7,,,,,,,,,,,,,,,,10,,64,0
4740,note_on,,1,0,8,,,,,,,,,,,,,,,,11,,72,72
4740,note_on,,1,0,9,,,,,,,,,,,,,,,,12,,69,72
4740,note_on,,1,0,5,,,,,,,,,,,,,,,,2,,55,72
4740,note_on,,0,0,11,,,,,,,,,,,,,,,,15,,59,72
4740,note_on,,1,0,10,,,,,,,,,,,,,,,,13,,55,72
4740,note_on,,1,0,11,,,,,,,,,,,,,,,,15,,55,72
4740,note_on,,1,0,7,,,,,,,,,,,,,,,,10,,76,72
4769,note_on,,29,0,8,,,,,,,,,,,,,,,,11,,72,0
4769,note_on,,29,0,7,,,,,,,,,,,,,,,,10,,76,0
4769,note_on,,29,0,9,,,,,,,,,,,,,,,,12,,69,0
4770,note_on,,1,0,7,,,,,,,,,,,,,,,,10,,76,72
4770,note_on,,1,0,9,,,,,,,,,,,,,,,,12,,69,72
4770,note_on,,1,0,8,,,,,,,,,,,,,,,,11,,72,72
4799,note_on,,59,0,10,,,,,,,,,,,,,,,,13,,55,0
4799,note_on,,29,0,7,,,,,,,,,,,,,,,,10,,76,0
4799,note_on,,59,0,5,,,,,,,,,,,,,,,,2,,55,0
4799,note_on,,29,0,8,,,,,,,,,,,,,,,,11,,72,0
4799,note_on,,0,0,11,,,,,,,,,,,,,,,,15,,69,0
4799,note_on,,0,0,11,,,,,,,,,,,,,,,,15,,59,0
4799,note_on,,0,0,11,,,,,,,,,,,,,,,,15,,55,0
4799,note_on,,0,0,11,,,,,,,,,,,,,,,,15,,64,0
4799,note_on,,29,0,9,,,,,,,,,,,,,,,,12,,69,0
4799,note_on,,59,0,11,,,,,,,,,,,,,,,,15,,72,0
4800,note_on,,0,0,11,,,,,,,,,,,,,,,,15,,57,72
4800,note_on,,0,0,11,,,,,,,,,,,,,,,,15,,69,72
4800,note_on,,0,0,11,,,,,,,,,,,,,,,,15,,72,72
4800,note_on,,0,0,11,,,,,,,,,,,,,,,,15,,76,72
4800,note_on,,1,0,5,,,,,,,,,,,,,,,,2,,54,72
4800,note_on,,1,0,10,,,,,,,,,,,,,,,,13,,54,72
4800,note_on,,1,0,7,,,,,,,,,,,,,,,,10,,64,72
4800,note_on,,1,0,11,,,,,,,,,,,,,,,,15,,54,72
4800,note_on,,1,0,8,,,,,,,,,,,,,,,,11,,60,72
4800,note_on,,1,0,9,,,,,,,,,,,,,,,,12,,57,72
4829,note_on,,29,0,9,,,,,,,,,,,,,,,,12,,57,0
4829,note_on,,29,0,7,,,,,,,,,,,,,,,,10,,64,0
4829,note_on,,29,0,8,,,,,,,,,,,,,,,,11,,60,0
4830,note_on,,1,0,9,,,,,,,,,,,,,,,,12,,57,72
4830,note_on,,1,0,8,,,,,,,,,,,,,,,,11,,60,72
4830,note_on,,1,0,7,,,,,,,,,,,,,,,,10,,64,72
4859,note_on,,59,0,11,,,,,,,,,,,,,,,,15,,54,0
4859,note_on,,0,0,11,,,,,,,,,,,,,,,,15,,57,0
4859,note_on,,59,0,5,,,,,,,,,,,,,,,,2,,54,0
4859,note_on,,29,0,8,,,,,,,,,,,,,,,,11,,60,0
4859,note_on,,29,0,9,,,,,,,,,,,,,,,,12,,57,0
4859,note_on,,59,0,10,,,,,,,,,,,,,,,,13,,54,0
4859,note_on,,29,0,7,,,,,,,,,,,,,,,,10,,64,0
4860,note_on,,1,0,7,,,,,,,,,,,,,,,,10,,76,72
4860,note_on,,1,0,9,,,,,,,,,,,,,,,,12,,57,72
4860,note_on,,1,0,8,,,,,,,,,,,,,,,,11,,72,72
4860,note_on,,0,0,11,,,,,,,,,,,,,,,,15,,57,72
4860,note_on,,1,0,5,,,,,,,,,,,,,,,,2,,54,72
4860,note_on,,1,0,10,,,,,,,,,,,,,,,,13,,54,72
4860,note_on,,1,0,11,,,,,,,,,,,,,,,,15,,54,72
4889,note_on,,29,0,8,,,,,,,,,,,,,,,,11,,72,0
4889,note_on,,29,0,9,,,,,,,,,,,,,,,,12,,57,0
4889,note_on,,29,0,7,,,,,,,,,,,,,,,,10,,76,0
4890,note_on,,1,0,8,,,,,,,,,,,,,,,,11,,72,72
4890,note_on,,1,0,9,,,,,,,,,,,,,,,,12,,57,72
4890,note_on,,1,0,7,,,,,,,,,,,,,,,,10,,76,72
4919,note_on,,59,0,11,,,,,,,,,,,,,,,,15,,54,0
4919,note_on,,59,0,5,,,,,,,,,,,,,,,,2,,54,0
4919,note_on,,0,0,11,,,,,,,,,,,,,,,,15,,57,0
4919,note_on,,29,0,9,,,,,,,,,,,,,,,,12,,57,0
4919,note_on,,29,0,7,,,,,,,,,,,,,,,,10,,76,0
4919,note_on,,59,0,10,,,,,,,,,,,,,,,,13,,54,0
4919,note_on,,29,0,8,,,,,,,,,,,,,,,,11,,72,0
4920,note_on,,1,0,8,,,,,,,,,,,,,,,,11,,60,72
4920,note_on,,1,0,9,,,,,,,,,,,,,,,,12,,57,72
4920,note_on,,1,0,10,,,,,,,,,,,,,,,,13,,54,72
4920,note_on,,1,0,5,,,,,,,,,,,,,,,,2,,54,72
4920,note_on,,0,0,11,,,,,,,,,,,,,,,,15,,57,72
4920,note_on,,1,0,7,,,,,,,,,,,,,,,,10,,64,72
4920,note_on,,1,0,11,,,,,,,,,,,,,,,,15,,54,72
4949,note_on,,29,0,7,,,,,,,,,,,,,,,,10,,64,0
4949,note_on,,29,0,8,,,,,,,,,,,,,,,,11,,60,0
4949,note_on,,29,0,9,,,,,,,,,,,,,,,,12,,57,0
4950,note_on,,1,0,7,,,,,,,,,,,,,,,,10,,64,72
4950,note_on,,1,0,9,,,,,,,,,,,,,,,,12,,57,72
4950,note_on,,1,0,8,,,,,,,,,,,,,,,,11,,60,72
4979,note_on,,59,0,5,,,,,,,,,,,,,,,,2,,54,0
4979,note_on,,59,0,10,,,,,,,,,,,,,,,,13,,54,0
4979,note_on,,29,0,9,,,,,,,,,,,,,,,,12,,57,0
4979,note_on,,29,0,7,,,,,,,,,,,,,,,,10,,64,0
4979,note_on,,59,0,11,,,,,,,,,,,,,,,,15,,54,0
4979,note_on,,0,0,11,,,,,,,,,,,,,,,,15,,57,0
4979,note_on,,29,0,8,,,,,,,,,,,,,,,,11,,60,0
4980,note_on,,1,0,11,,,,,,,,,,,,,,,,15,,54,72
4980,note_on,,0,0,11,,,,,,,,,,,,,,,,15,,57,72
4980,note_on,,1,0,9,,,,,,,,,,,,,,,,12,,57,72
4980,note_on,,1,0,7,,,,,,,,,,,,,,,,10,,76,72
4980,note_on,,1,0,10,,,,,,,,,,,,,,,,13,,54,72
4980,note_on,,1,0,8,,,,,,,,,,,,,,,,11,,72,72
4980,note_on,,1,0,5,,,,,,,,,,,,,,,,2,,54,72
5009,note_on,,29,0,7,,,,,,,,,,,,,,,,10,,76,0
5009,note_on,,29,0,8,,,,,,,,,,,,,,,,11,,72,0
5009,note_on,,29,0,9,,,,,,,,,,,,,,,,12,,57,0
5010,note_on,,1,0,7,,,,,,,,,,,,,,,,10,,76,72
5010,note_on,,1,0,8,,,,,,,,,,,,,,,,11,,72,72
5010,note_on,,1,0,9,,,,,,,,,,,,,,,,12,,57,72
5039,note_on,,0,0,11,,,,,,,,,,,,,,,,15,,57,0
5039,note_on,,0,0,11,,,,,,,,,,,,,,,,15,,54,0
5039,note_on,,0,0,11,,,,,,,,,,,,,,,,15,,69,0
5039,note_on,,29,0,8,,,,,,,,,,,,,,,,11,,72,0
5039,note_on,,29,0,7,,,,,,,,,,,,,,,,10,,76,0
5039,note_on,,0,0,11,,,,,,,,,,,,,,,,15,,72,0
5039,note_on,,59,0,10,,,,,,,,,,,,,,,,13,,54,0
5039,note_on,,59,0,5,,,,,,,,,,,,,,,,2,,54,0
5039,note_on,,29,0,9,,,,,,,,,,,,,,,,12,,57,0
5039,note_on,,59,0,11,,,,,,,,,,,,,,,,15,,76,0
5040,note_on,,1,0,9,,,,,,,,,,,,,,,,12,,57,72
5040,note_on,,1,0,10,,,,,,,,,,,,,,,,13,,54,72
5040,note_on,,1,0,5,,,,,,,,,,,,,,,,2,,54,72
5040,note_on,,1,0,11,,,,,,,,,,,,,,,,15,,54,72
5040,note_on,,0,0,11,,,,,,,,,,,,,,,,15,,57,72
5040,note_on,,0,0,11,,,,,,,,,,,,,,,,15,,72,72
5040,note_on,,0,0,11,,,,,,,,,,,,,,,,15,,69,72
5040,note_on,,0,0,11,,,,,,,,,,,,,,,,15,,64,72
5040,note_on,,1,0,8,,,,,,,,,,,,,,,,11,,60,72
5040,note_on,,1,0,7,,,,,,,,,,,,,,,,10,,64,72
5069,note_on,,29,0,8,,,,,,,,,,,,,,,,11,,60,0
5069,note_on,,29,0,7,,,,,,,,,,,,,,,,10,,64,0
5069,note_on,,29,0,9,,,,,,,,,,,,,,,,12,,57,0
5070,note_on,,1,0,9,,,,,,,,,,,,,,,,12,,57,72
5070,note_on,,1,0,7,,,,,,,,,,,,,,,,10,,64,72
5070,note_on,,1,0,8,,,,,,,,,,,,,,,,11,,60,72
5099,note_on,,29,0,8,,,,,,,,,,,,,,,,11,,60,0
5099,note_on,,29,0,7,,,,,,,,,,,,,,,,10,,64,0
5099,note_on,,29,0,9,,,,,,,,,,,,,,,,12,,57,0
5099,note_on,,59,0,10,,,,,,,,,,,,,,,,13,,54,0
5099,note_on,,59,0,11,,,,,,,,,,,,,,,,15,,54,0
5099,note_on,,0,0,11,,,,,,,,,,,,,,,,15,,57,0
5099,note_on,,59,0,5,,,,,,,,,,,,,,,,2,,54,0
5100,note_on,,1,0,9,,,,,,,,,,,,,,,,12,,57,72
5100,note_on,,1,0,5,,,,,,,,,,,,,,,,2,,54,72
5100,note_on,,1,0,8,,,,,,,,,,,,,,,,11,,72,72
5100,note_on,,1,0,11,,,,,,,,,,,,,,,,15,,54,72
5100,note_on,,0,0,11,,,,,,,,,,,,,,,,15,,57,72
5100,note_on,,1,0,10,,,,,,,,,,,,,,,,13,,54,72
5100,note_on,,1,0,7,,,,,,,,,,,,,,,,10,,76,72
5129,note_on,,29,0,7,,,,,,,,,,,,,,,,10,,76,0
5129,note_on,,29,0,9,,,,,,,,,,,,,,,,12,,57,0
5129,note_on,,29,0,8,,,,,,,,,,,,,,,,11,,72,0
5130,note_on,,1,0,8,,,,,,,,,,,,,,,,11,,72,72
5130,note_on,,1,0,9,,,,,,,,,,,,,,,,12,,57,72
5130,note_on,,1,0,7,,,,,,,,,,,,,,,,10,,76,72
5159,note_on,,0,0,11,,,,,,,,,,,,,,,,15,,57,0
5159,note_on,,59,0,11,,,,,,,,,,,,,,,,15,,54,0
5159,note_on,,29,0,9,,,,,,,,,,,,,,,,12,,57,0
5159,note_on,,59,0,10,,,,,,,,,,,,,,,,13,,54,0
5159,note_on,,29,0,8,,,,,,,,,,,,,,,,11,,72,0
5159,note_on,,29,0,7,,,,,,,,,,,,,,,,10,,76,0
5159,note_on,,59,0,5,,,,,,,,,,,,,,,,2,,54,0
5160,note_on,,1,0,5,,,,,,,,,,,,,,,,2,,54,72
5160,note_on,,1,0,7,,,,,,,,,,,,,,,,10,,64,72
5160,note_on,,1,0,9,,,,,,,,,,,,,,,,12,,57,72
5160,note_on,,0,0,11,,,,,,,,,,,,,,,,15,,57,72
5160,note_on,,1,0,11,,,,,,,,,,,,,,,,15,,54,72
5160,note_on,,1,0,8,,,,,,,,,,,,,,,,11,,60,72
5160,note_on,,1,0,10,,,,,,,,,,,,,,,,13,,54,72
5189,note_on,,29,0,9,,,,,,,,,,,,,,,,12,,57,0
5189,note_on,,29,0,7,,,,,,,,,,,,,,,,10,,64,0
5189,note_on,,29,0,8,,,,,,,,,,,,,,,,11,,60,0
5190,note_on,,1,0,8,,,,,,,,,,,,,,,,11,,60,72
5190,note_on,,1,0,7,,,,,,,,,,,,,,,,10,,64,72
5190,note_on,,1,0,9,,,,,,,,,,,,,,,,12,,57,72
5219,note_on,,29,0,8,,,,,,,,,,,,,,,,11,,60,0
5219,note_on,,0,0,11,,,,,,,,,,,,,,,,15,,57,0
5219,note_on,,59,0,11,,,,,,,,,,,,,,,,15,,54,0
5219,note_on,,29,0,9,,,,,,,,,,,,,,,,12,,57,0
5219,note_on,,29,0,7,,,,,,,,,,,,,,,,10,,64,0
5219,note_on,,59,0,10,,,,,,,,,,,,,,,,13,,54,0
5219,note_on,,59,0,5,,,,,,,,,,,,,,,,2,,54,0
5220,note_on,,1,0,7,,,,,,,,,,,,,,,,10,,76,72
5220,note_on,,1,0,8,,,,,,,,,,,,,,,,11,,72,72
5220,note_on,,1,0,10,,,,,,,,,,,,,,,,13,,54,72
5220,note_on,,1,0,9,,,,,,,,,,,,,,,,12,,57,72
5220,note_on,,1,0,5,,,,,,,,,,,,,,,,2,,54,72
5220,note_on,,0,0,11,,,,,,,,,,,,,,,,15,,57,72
5220,note_on,,1,0,11,,,,,,,,,,,,,,,,15,,54,72
5249,note_on,,29,0,7,,,,,,,,,,,,,,,,10,,76,0
5249,note_on,,29,0,8,,,,,,,,,,,,,,,,11,,72,0
5249,note_on,,29,0,9,,,,,,,,,,,,,,,,12,,57,0
5250,note_on,,1,0,7,,,,,,,,,,,,,,,,10,,76,72
5250,note_on,,1,0,8,,,,,,,,,,,,,,,,11,,72,72
5250,note_on,,1,0,9,,,,,,,,,,,,,,,,12,,57,72
5279,note_on,,0,0,11,,,,,,,,,,,,,,,,15,,57,0
5279,note_on,,29,0,7,,,,,,,,,,,,,,,,10,,76,0
5279,note_on,,59,0,5,,,,,,,,,,,,,,,,2,,54,0
5279,note_on,,0,0,11,,,,,,,,,,,,,,,,15,,54,0
5279,note_on,,59,0,11,,,,,,,,,,,,,,,,15,,72,0
5279,note_on,,0,0,11,,,,,,,,,,,,,,,,15,,69,0
5279,note_on,,59,0,10,,,,,,,,,,,,,,,,13,,54,0
5279,note_on,,0,0,11,,,,,,,,,,,,,,,,15,,64,0
5279,note_on,,29,0,8,,,,,,,,,,,,,,,,11,,72,0
5279,note_on,,29,0,9,,,,,,,,,,,,,,,,12,,57,0
5280,note_on,,1,0,8,,,,,,,,,,,,,,,,11,,71,72
5280,note_on,,0,0,11,,,,,,,,,,,,,,,,15,,71,72
5280,note_on,,1,0,9,,,,,,,,,,,,,,,,12,,55,72
5280,note_on,,0,0,11,,,,,,,,,,,,,,,,15,,59,72
5280,note_on,,1,0,7,,,,,,,,,,,,,,,,10,,74,72
5280,note_on,,1,0,11,,,,,,,,,,,,,,,,15,,55,72
5280,note_on,,1,0,10,,,,,,,,,,,,,,,,13,,55,72
5280,note_on,,1,0,5,,,,,,,,,,,,,,,,2,,55,72
5280,note_on,,0,0,11,,,,,,,,,,,,,,,,15,,67,72
5309,note_on,,29,0,8,,,,,,,,,,,,,,,,11,,71,0
5309,note_on,,29,0,7,,,,,,,,,,,,,,,,10,,74,0
5310,note_on,,1,0,8,,,,,,,,,,,,,,,,11,,72,72
5310,note_on,,1,0,7,,,,,,,,,,,,,,,,10,,76,72
5339,note_on,,29,0,8,,,,,,,,,,,,,,,,11,,72,0
5339,note_on,,29,0,7,,,,,,,,,,,,,,,,10,,76,0
5339,note_on,,59,0,10,,,,,,,,,,,,,,,,13,,55,0
5339,note_on,,59,0,5,,,,,,,,,,,,,,,,2,,55,0
5339,note_on,,0,0,11,,,,,,,,,,,,,,,,15,,67,0
5339,note_on,,0,0,11,,,,,,,,,,,,,,,,15,,71,0
5339,note_on,,0,0,11,,,,,,,,,,,,,,,,15,,59,0
5339,note_on,,59,0,11,,,,,,,,,,,,,,,,15,,55,0
5339,note_on,,59,0,9,,,,,,,,,,,,,,,,12,,55,0
5340,note_on,,1,0,8,,,,,,,,,,,,,,,,11,,71,72
5340,note_on,,0,0,11,,,,,,,,,,,,,,,,15,,69,72
5340,note_on,,1,0,5,,,,,,,,,,,,,,,,2,,54,72
5340,note_on,,1,0,7,,,,,,,,,,,,,,,,10,,74,72
5340,note_on,,0,0,11,,,,,,,,,,,,,,,,15,,72,72
5340,note_on,,0,0,11,,,,,,,,,,,,,,,,15,,57,72
5340,note_on,,1,0,10,,,,,,,,,,,,,,,,13,,54,72
5340,note_on,,1,0,11,,,,,,,,,,,,,,,,15,,54,72
5340,note_on,,1,0,9,,,,,,,,,,,,,,,,12,,62,72
5369,note_on,,29,0,7,,,,,,,,,,,,,,,,10,,74,0
5369,note_on,,29,0,8,,,,,,,,,,,,,,,,11,,71,0
5370,note_on,,1,0,7,,,,,,,,,,,,,,,,10,,76,72
5370,note_on,,1,0,8,,,,,,,,,,,,,,,,11,,72,72
5399,note_on,,29,0,8,,,,,,,,,,,,,,,,11,,72,0
5399,note_on,,59,0,10,,,,,,,,,,,,,,,,13,,54,0
5399,note_on,,59,0,9,,,,,,,,,,,,,,,,12,,62,0
5399,note_on,,29,0,7,,,,,,,,,,,,,,,,10,,76,0
5399,note_on,,0,0,11,,,,,,,,,,,,,,,,15,,69,0
5399,note_on,,0,0,11,,,,,,,,,,,,,,,,15,,72,0
5399,note_on,,0,0,11,,,,,,,,,,,,,,,,15,,57,0
5399,note_on,,59,0,11,,,,,,,,,,,,,,,,15,,54,0
5399,note_on,,59,0,5,,,,,,,,,,,,,,,,2,,54,0
5400,note_on,,1,0,10,,,,,,,,,,,,,,,,13,,55,72
5400,note_on,,1,0,8,,,,,,,,,,,,,,,,11,,71,72
5400,note_on,,1,0,7,,,,,,,,,,,,,,,,10,,74,72
5400,note_on,,0,0,11,,,,,,,,,,,,,,,,15,,67,72
5400,note_on,,0,0,11,,,,,,,,,,,,,,,,15,,71,72
5400,note_on,,0,0,11,,,,,,,,,,,,,,,,15,,59,72
5400,note_on,,1,0,11,,,,,,,,,,,,,,,,15,,55,72
5400,note_on,,1,0,5,,,,,,,,,,,,,,,,2,,55,72
5400,note_on,,1,0,9,,,,,,,,,,,,,,,,12,,55,72
5429,note_on,,29,0,7,,,,,,,,,,,,,,,,10,,74,0
5429,note_on,,29,0,8,,,,,,,,,,,,,,,,11,,71,0
5430,note_on,,1,0,7,,,,,,,,,,,,,,,,10,,76,72
5430,note_on,,1,0,8,,,,,,,,,,,,,,,,11,,72,72
5459,note_on,,59,0,5,,,,,,,,,,,,,,,,2,,55,0
5459,note_on,,29,0,7,,,,,,,,,,,,,,,,10,,76,0
5459,note_on,,59,0,11,,,,,,,,,,,,,,,,15,,55,0
5459,note_on,,0,0,11,,,,,,,,,,,,,,,,15,,59,0
5459,note_on,,29,0,8,,,,,,,,,,,,,,,,11,,72,0
5459,note_on,,0,0,11,,,,,,,,,,,,,,,,15,,71,0
5459,note_on,,59,0,10,,,,,,,,,,,,,,,,13,,55,0
5459,note_on,,59,0,9,,,,,,,,,,,,,,,,12,,55,0
5459,note_on,,0,0,11,,,,,,,,,,,,,,,,15,,67,0
5460,note_on,,1,0,9,,,,,,,,,,,,,,,,12,,62,72
5460,note_on,,1,0,7,,,,,,,,,,,,,,,,10,,74,72
5460,note_on,,1,0,11,,,,,,,,,,,,,,,,15,,54,72
5460,note_on,,1,0,10,,,,,,,,,,,,,,,,13,,54,72
5460,note_on,,0,0,11,,,,,,,,,,,,,,,,15,,72,72
5460,note_on,,0,0,11,,,,,,,,,,,,,,,,15,,69,72
5460,note_on,,1,0,5,,,,,,,,,,,,,,,,2,,54,72
5460,note_on,,0,0,11,,,,,,,,,,,,,,,,15,,57,72
5460,note_on,,1,0,8,,,,,,,,,,,,,,,,11,,71,72
5489,note_on,,29,0,8,,,,,,,,,,,,,,,,11,,71,0
5489,note_on,,29,0,7,,,,,,,,,,,,,,,,10,,74,0
5490,note_on,,1,0,8,,,,,,,,,,,,,,,,11,,72,72
5490,note_on,,1,0,7,,,,,,,,,,,,,,,,10,,76,72
5519,note_on,,29,0,8,,,,,,,,,,,,,,,,11,,72,0
5519,note_on,,59,0,9,,,,,,,,,,,,,,,,12,,62,0
5519,note_on,,59,0,5,,,,,,,,,,,,,,,,2,,54,0
5519,note_on,,59,0,11,,,,,,,,,,,,,,,,15,,54,0
5519,note_on,,0,0,11,,,,,,,,,,,,,,,,15,,57,0
5519,note_on,,0,0,11,,,,,,,,,,,,,,,,15,,72,0
5519,note_on,,0,0,11,,,,,,,,,,,,,,,,15,,69,0
5519,note_on,,59,0,10,,,,,,,,,,,,,,,,13,,54,0
5519,note_on,,29,0,7,,,,,,,,,,,,,,,,10,,76,0
5520,note_on,,1,0,11,,,,,,,,,,,,,,,,15,,55,72
5520,note_on,,0,0,11,,,,,,,,,,,,,,,,15,,59,72
5520,note_on,,0,0,11,,,,,,,,,,,,,,,,15,,71,72
5520,note_on,,0,0,11,,,,,,,,,,,,,,,,15,,67,72
5520,note_on,,1,0,5,,,,,,,,,,,,,,,,2,,55,72
5520,note_on,,1,0,9,,,,,,,,,,,,,,,,12,,55,72
5520,note_on,,1,0,8,,,,,,,,,,,,,,,,11,,71,72
5520,note_on,,1,0,7,,,,,,,,,,,,,,,,10,,74,72
5520,note_on,,1,0,10,,,,,,,,,,,,,,,,13,,55,72
5549,note_on,,29,0,7,,,,,,,,,,,,,,,,10,,74,0
5549,note_on,,29,0,8,,,,,,,,,,,,,,,,11,,71,0
5550,note_on,,1,0,8,,,,,,,,,,,,,,,,11,,72,72
5550,note_on,,1,0,7,,,,,,,,,,,,,,,,10,,76,72
5579,note_on,,29,0,7,,,,,,,,,,,,,,,,10,,76,0
5579,note_on,,59,0,9,,,,,,,,,,,,,,,,12,,55,0
5579,note_on,,59,0,10,,,,,,,,,,,,,,,,13,,55,0
5579,note_on,,59,0,11,,,,,,,,,,,,,,,,15,,55,0
5579,note_on,,0,0,11,,,,,,,,,,,,,,,,15,,71,0
5579,note_on,,0,0,11,,,,,,,,,,,,,,,,15,,67,0
5579,note_on,,59,0,5,,,,,,,,,,,,,,,,2,,55,0
5579,note_on,,29,0,8,,,,,,,,,,,,,,,,11,,72,0
5579,note_on,,0,0,11,,,,,,,,,,,,,,,,15,,59,0
5580,note_on,,1,0,10,,,,,,,,,,,,,,,,13,,54,72
5580,note_on,,1,0,11,,,,,,,,,,,,,,,,15,,54,72
5580,note_on,,1,0,9,,,,,,,,,,,,,,,,12,,62,72
5580,note_on,,0,0,11,,,,,,,,,,,,,,,,15,,69,72
5580,note_on,,0,0,11,,,,,,,,,,,,,,,,15,,57,72
5580,note_on,,1,0,8,,,,,,,,,,,,,,,,11,,71,72
5580,note_on,,0,0,11,,,,,,,,,,,,,,,,15,,72,72
5580,note_on,,1,0,5,,,,,,,,,,,,,,,,2,,54,72
5580,note_on,,1,0,7,,,,,,,,,,,,,,,,10,,74,72
5609,note_on,,29,0,8,,,,,,,,,,,,,,,,11,,71,0
5609,note_on,,29,0,7,,,,,,,,,,,,,,,,10,,74,0
5610,note_on,,1,0,8,,,,,,,,,,,,,,,,11,,72,72
5610,note_on,,1,0,7,,,,,,,,,,,,,,,,10,,76,72
5639,note_on,,59,0,9,,,,,,,,,,,,,,,,12,,62,0
5639,note_on,,29,0,7,,,,,,,,,,,,,,,,10,,76,0
5639,note_on,,29,0,8,,,,,,,,,,,,,,,,11,,72,0
5639,note_on,,59,0,11,,,,,,,,,,,,,,,,15,,54,0
5639,note_on,,0,0,11,,,,,,,,,,,,,,,,15,,57,0
5639,note_on,,0,0,11,,,,,,,,,,,,,,,,15,,72,0
5639,note_on,,0,0,11,,,,,,,,,,,,,,,,15,,69,0
5639,note_on,,59,0,10,,,,,,,,,,,,,,,,13,,54,0
5639,note_on,,59,0,5,,,,,,,,,,,,,,,,2,,54,0
5640,note_on,,0,0,11,,,,,,,,,,,,,,,,15,,67,72
5640,note_on,,1,0,7,,,,,,,,,,,,,,,,10,,74,72
5640,note_on,,1,0,8,,,,,,,,,,,,,,,,11,,71,72
5640,note_on,,1,0,5,,,,,,,,,,,,,,,,2,,55,72
5640,note_on,,1,0,9,,,,,,,,,,,,,,,,12,,55,72
5640,note_on,,1,0,10,,,,,,,,,,,,,,,,13,,55,72
5640,note_on,,1,0,11,,,,,,,,,,,,,,,,15,,55,72
5640,note_on,,0,0,11,,,,,,,,,,,,,,,,15,,59,72
5640,note_on,,0,0,11,,,,,,,,,,,,,,,,15,,71,72
5669,note_on,,29,0,7,,,,,,,,,,,,,,,,10,,74,0
5669,note_on,,29,0,8,,,,,,,,,,,,,,,,11,,71,0
5670,note_on,,1,0,8,,,,,,,,,,,,,,,,11,,72,72
5670,note_on,,1,0,7,,,,,,,,,,,,,,,,10,,76,72
5699,note_on,,59,0,10,,,,,,,,,,,,,,,,13,,55,0
5699,note_on,,59,0,5,,,,,,,,,,,,,,,,2,,55,0
5699,note_on,,59,0,9,,,,,,,,,,,,,,,,12,,55,0
5699,note_on,,29,0,7,,,,,,,,,,,,,,,,10,,76,0
5699,note_on,,29,0,8,,,,,,,,,,,,,,,,11,,72,0
5699,note_on,,0,0,11,,,,,,,,,,,,,,,,15,,67,0
5699,note_on,,0,0,11,,,,,,,,,,,,,,,,15,,71,0
5699,note_on,,0,0,11,,,,,,,,,,,,,,,,15,,59,0
5699,note_on,,59,0,11,,,,,,,,,,,,,,,,15,,55,0
5700,note_on,,1,0,8,,,,,,,,,,,,,,,,11,,71,72
5700,note_on,,0,0,11,,,,,,,,,,,,,,,,15,,72,72
5700,note_on,,0,0,11,,,,,,,,,,,,,,,,15,,69,72
5700,note_on,,1,0,5,,,,,,,,,,,,,,,,2,,54,72
5700,note_on,,0,0,11,,,,,,,,,,,,,,,,15,,57,72
5700,note_on,,1,0,11,,,,,,,,,,,,,,,,15,,54,72
5700,note_on,,1,0,9,,,,,,,,,,,,,,,,12,,62,72
5700,note_on,,1,0,10,,,,,,,,,,,,,,,,13,,54,72
5700,note_on,,1,0,7,,,,,,,,,,,,,,,,10,,74,72
5729,note_on,,29,0,7,,,,,,,,,,,,,,,,10,,74,0
5729,note_on,,29,0,8,,,,,,,,,,,,,,,,11,,71,0
5730,note_on,,1,0,7,,,,,,,,,,,,,,,,10,,76,72
5730,note_on,,1,0,8,,,,,,,,,,,,,,,,11,,72,72
5759,note_on,,59,0,9,,,,,,,,,,,,,,,,12,,62,0
5759,note_on,,0,0,11,,,,,,,,,,,,,,,,15,,69,0
5759,note_on,,0,0,11,,,,,,,,,,,,,,,,15,,72,0
5759,note_on,,0,0,11,,,,,,,,,,,,,,,,15,,57,0
5759,note_on,,59,0,11,,,,,,,,,,,,,,,,15,,54,0
5759,note_on,,59,0,5,,,,,,,,,,,,,,,,2,,54,0
5759,note_on,,59,0,10,,,,,,,,,,,,,,,,13,,54,0
5759,note_on,,29,0,7,,,,,,,,,,,,,,,,10,,76,0
5759,note_on,,29,0,8,,,,,,,,,,,,,,,,11,,72,0
5760,note_on,,1,0,10,,,,,,,,,,,,,,,,13,,55,72
5760,note_on,,0,0,11,,,,,,,,,,,,,,,,15,,59,72
5760,note_on,,0,0,11,,,,,,,,,,,,,,,,15,,67,72
5760,note_on,,1,0,5,,,,,,,,,,,,,,,,2,,55,72
5760,note_on,,1,0,11,,,,,,,,,,,,,,,,15,,55,72
5760,note_on,,1,0,8,,,,,,,,,,,,,,,,11,,71,72
5760,note_on,,1,0,9,,,,,,,,,,,,,,,,12,,55,72
5760,note_on,,0,0,11,,,,,,,,,,,,,,,,15,,71,72
5760,note_on,,1,0,7,,,,,,,,,,,,,,,,10,,74,72
5789,note_on,,29,0,7,,,,,,,,,,,,,,,,10,,74,0
5789,note_on,,29,0,8,,,,,,,,,,,,,,,,11,,71,0
5790,note_on,,1,0,7,,,,,,,,,,,,,,,,10,,76,72
5790,note_on,,1,0,8,,,,,,,,,,,,,,,,11,,72,72
5819,note_on,,0,0,11,,,,,,,,,,,,,,,,15,,67,0
5819,note_on,,59,0,10,,,,,,,,,,,,,,,,13,,55,0
5819,note_on,,0,0,11,,,,,,,,,,,,,,,,15,,71,0
5819,note_on,,0,0,11,,,,,,,,,,,,,,,,15,,59,0
5819,note_on,,59,0,9,,,,,,,,,,,,,,,,12,,55,0
5819,note_on,,59,0,11,,,,,,,,,,,,,,,,15,,55,0
5819,note_on,,29,0,8,,,,,,,,,,,,,,,,11,,72,0
5819,note_on,,59,0,5,,,,,,,,,,,,,,,,2,,55,0
5819,note_on,,29,0,7,,,,,,,,,,,,,,,,10,,76,0
5820,note_on,,1,0,9,,,,,,,,,,,,,,,,12,,62,72
5820,note_on,,0,0,11,,,,,,,,,,,,,,,,15,,72,72
5820,note_on,,0,0,11,,,,,,,,,,,,,,,,15,,57,72
5820,note_on,,1,0,11,,,,,,,,,,,,,,,,15,,54,72
5820,note_on,,0,0,11,,,,,,,,,,,,,,,,15,,69,72
5820,note_on,,1,0,10,,,,,,,,,,,,,,,,13,,54,72
5820,note_on,,1,0,7,,,,,,,,,,,,,,,,10,,74,72
5820,note_on,,1,0,5,,,,,,,,,,,,,,,,2,,54,72
5820,note_on,,1,0,8,,,,,,,,,,,,,,,,11,,71,72
5849,note_on,,29,0,7,,,,,,,,,,,,,,,,10,,74,0
5849,note_on,,29,0,8,,,,,,,,,,,,,,,,11,,71,0
5850,note_on,,1,0,7,,,,,,,,,,,,,,,,10,,76,72
5850,note_on,,1,0,8,,,,,,,,,,,,,,,,11,,72,72
5879,note_on,,29,0,8,,,,,,,,,,,,,,,,11,,72,0
5879,note_on,,0,0,11,,,,,,,,,,,,,,,,15,,57,0
5879,note_on,,0,0,11,,,,,,,,,,,,,,,,15,,72,0
5879,note_on,,0,0,11,,,,,,,,,,,,,,,,15,,69,0
5879,note_on,,59,0,11,,,,,,,,,,,,,,,,15,,54,0
5879,note_on,,59,0,9,,,,,,,,,,,,,,,,12,,62,0
5879,note_on,,59,0,5,,,,,,,,,,,,,,,,2,,54,0
5879,note_on,,29,0,7,,,,,,,,,,,,,,,,10,,76,0
5879,note_on,,59,0,10,,,,,,,,,,,,,,,,13,,54,0
5880,note_on,,1,0,5,,,,,,,,,,,,,,,,2,,55,72
5880,note_on,,1,0,9,,,,,,,,,,,,,,,,12,,55,72
5880,note_on,,0,0,11,,,,,,,,,,,,,,,,15,,71,72
5880,note_on,,1,0,7,,,,,,,,,,,,,,,,10,,74,72
5880,note_on,,0,0,11,,,,,,,,,,,,,,,,15,,59,72
5880,note_on,,1,0,8,,,,,,,,,,,,,,,,11,,71,72
5880,note_on,,1,0,10,,,,,,,,,,,,,,,,13,,55,72
5880,note_on,,0,0,11,,,,,,,,,,,,,,,,15,,67,72
5880,note_on,,1,0,11,,,,,,,,,,,,,,,,15,,55,72
5909,note_on,,29,0,7,,,,,,,,,,,,,,,,10,,74,0
5909,note_on,,29,0,8,,,,,,,,,,,,,,,,11,,71,0
5910,note_on,,1,0,7,,,,,,,,,,,,,,,,10,,76,72
5910,note_on,,1,0,8,,,,,,,,,,,,,,,,11,,72,72
5939,note_on,,59,0,5,,,,,,,,,,,,,,,,2,,55,0
5939,note_on,,29,0,7,,,,,,,,,,,,,,,,10,,76,0
5939,note_on,,0,0,11,,,,,,,,,,,,,,,,15,,71,0
5939,note_on,,59,0,11,,,,,,,,,,,,,,,,15,,55,0
5939,note_on,,0,0,11,,,,,,,,,,,,,,,,15,,59,0
5939,note_on,,59,0,10,,,,,,,,,,,,,,,,13,,55,0
5939,note_on,,29,0,8,,,,,,,,,,,,,,,,11,,72,0
5939,note_on,,0,0,11,,,,,,,,,,,,,,,,15,,67,0
5939,note_on,,59,0,9,,,,,,,,,,,,,,,,12,,55,0
5940,note_on,,1,0,7,,,,,,,,,,,,,,,,10,,74,72
5940,note_on,,0,0,11,,,,,,,,,,,,,,,,15,,69,72
5940,note_on,,0,0,11,,,,,,,,,,,,,,,,15,,72,72
5940,note_on,,0,0,11,,,,,,,,,,,,,,,,15,,57,72
5940,note_on,,1,0,11,,,,,,,,,,,,,,,,15,,54,72
5940,note_on,,1,0,9,,,,,,,,,,,,,,,,12,,62,72
5940,note_on,,1,0,5,,,,,,,,,,,,,,,,2,,54,72
5940,note_on,,1,0,8,,,,,,,,,,,,,,,,11,,71,72
5940,note_on,,1,0,10,,,,,,,,,,,,,,,,13,,54,72
5969,note_on,,29,0,8,,,,,,,,,,,,,,,,11,,71,0
5969,note_on,,29,0,7,,,,,,,,,,,,,,,,10,,74,0
5970,note_on,,1,0,8,,,,,,,,,,,,,,,,11,,72,72
5970,note_on,,1,0,7,,,,,,,,,,,,,,,,10,,76,72
5999,note_on,,0,0,11,,,,,,,,,,,,,,,,15,,69,0
5999,note_on,,59,0,11,,,,,,,,,,,,,,,,15,,54,0
5999,note_on,,29,0,7,,,,,,,,,,,,,,,,10,,76,0
5999,note_on,,0,0,11,,,,,,,,,,,,,,,,15,,72,0
5999,note_on,,0,0,11,,,,,,,,,,,,,,,,15,,57,0
5999,note_on,,29,0,8,,,,,,,,,,,,,,,,11,,72,0
5999,note_on,,59,0,5,,,,,,,,,,,,,,,,2,,54,0
5999,note_on,,59,0,9,,,,,,,,,,,,,,,,12,,62,0
5999,note_on,,59,0,10,,,,,,,,,,,,,,,,13,,54,0
6000,note_on,,1,0,5,,,,,,,,,,,,,,,,2,,55,72
6000,note_on,,0,0,11,,,,,,,,,,,,,,,,15,,71,72
6000,note_on,,0,0,11,,,,,,,,,,,,,,,,15,,59,72
6000,note_on,,0,0,11,,,,,,,,,,,,,,,,15,,55,72
6000,note_on,,1,0,11,,,,,,,,,,,,,,,,15,,67,72
6000,note_on,,1,0,9,,,,,,,,,,,,,,,,12,,55,72
6000,note_on,,1,0,10,,,,,,,,,,,,,,,,13,,55,72
6000,note_on,,1,0,8,,,,,,,,,,,,,,,,11,,71,72
6000,note_on,,1,0,7,,,,,,,,,,,,,,,,10,,74,72
6029,note_on,,29,0,8,,,,,,,,,,,,,,,,11,,71,0
6029,note_on,,29,0,7,,,,,,,,,,,,,,,,10,,74,0
6030,note_on,,1,0,7,,,,,,,,,,,,,,,,10,,76,72
6030,note_on,,1,0,8,,,,,,,,,,,,,,,,11,,72,72
6059,note_on,,0,0,11,,,,,,,,,,,,,,,,15,,71,0
6059,note_on,,0,0,11,,,,,,,,,,,,,,,,15,,59,0
6059,note_on,,0,0,11,,,,,,,,,,,,,,,,15,,55,0
6059,note_on,,59,0,11,,,,,,,,,,,,,,,,15,,67,0
6059,note_on,,59,0,9,,,,,,,,,,,,,,,,12,,55,0
6059,note_on,,29,0,8,,,,,,,,,,,,,,,,11,,72,0
6059,note_on,,59,0,5,,,,,,,,,,,,,,,,2,,55,0
6059,note_on,,59,0,10,,,,,,,,,,,,,,,,13,,55,0
6059,note_on,,29,0,7,,,,,,,,,,,,,,,,10,,76,0
6060,note_on,,1,0,9,,,,,,,,,,,,,,,,12,,62,72
6060,note_on,,0,0,11,,,,,,,,,,,,,,,,15,,72,72
6060,note_on,,0,0,11,,,,,,,,,,,,,,,,15,,57,72
6060,note_on,,1,0,11,,,,,,,,,,,,,,,,15,,54,72
6060,note_on,,1,0,10,,,,,,,,,,,,,,,,13,,54,72
6060,note_on,,1,0,5,,,,,,,,,,,,,,,,2,,54,72
6060,note_on,,1,0,8,,,,,,,,,,,,,,,,11,,71,72
6060,note_on,,0,0,11,,,,,,,,,,,,,,,,15,,69,72
6060,note_on,,1,0,7,,,,,,,,,,,,,,,,10,,74,72
6089,note_on,,29,0,7,,,,,,,,,,,,,,,,10,,74,0
6089,note_on,,29,0,8,,,,,,,,,,,,,,,,11,,71,0
6090,note_on,,1,0,7,,,,,,,,,,,,,,,,10,,76,72
6090,note_on,,1,0,8,,,,,,,,,,,,,,,,11,,72,72
6119,note_on,,0,0,11,,,,,,,,,,,,,,,,15,,72,0
6119,note_on,,0,0,11,,,,,,,,,,,,,,,,15,,69,0
6119,note_on,,0,0,11,,,,,,,,,,,,,,,,15,,57,0
6119,note_on,,59,0,5,,,,,,,,,,,,,,,,2,,54,0
6119,note_on,,29,0,7,,,,,,,,,,,,,,,,10,,76,0
6119,note_on,,29,0,8,,,,,,,,,,,,,,,,11,,72,0
6119,note_on,,59,0,9,,,,,,,,,,,,,,,,12,,62,0
6119,note_on,,59,0,10,,,,,,,,,,,,,,,,13,,54,0
6119,note_on,,59,0,11,,,,,,,,,,,,,,,,15,,54,0
6120,note_on,,1,0,7,,,,,,,,,,,,,,,,10,,74,72
6120,note_on,,1,0,8,,,,,,,,,,,,,,,,11,,71,72
6120,note_on,,0,0,11,,,,,,,,,,,,,,,,15,,71,72
6120,note_on,,1,0,11,,,,,,,,,,,,,,,,15,,55,72
6120,note_on,,1,0,5,,,,,,,,,,,,,,,,2,,55,72
6120,note_on,,1,0,10,,,,,,,,,,,,,,,,13,,55,72
6120,note_on,,1,0,9,,,,,,,,,,,,,,,,12,,55,72
6120,note_on,,0,0,11,,,,,,,,,,,,,,,,15,,59,72
6120,note_on,,0,0,11,,,,,,,,,,,,,,,,15,,67,72
6149,note_on,,29,0,7,,,,,,,,,,,,,,,,10,,74,0
6149,note_on,,29,0,8,,,,,,,,,,,,,,,,11,,71,0
6150,note_on,,1,0,7,,,,,,,,,,,,,,,,10,,76,72
6150,note_on,,1,0,8,,,,,,,,,,,,,,,,11,,72,72
6179,note_on,,59,0,5,,,,,,,,,,,,,,,,2,,55,0
6179,note_on,,59,0,10,,,,,,,,,,,,,,,,13,,55,0
6179,note_on,,59,0,9,,,,,,,,,,,,,,,,12,,55,0
6179,note_on,,0,0,11,,,,,,,,,,,,,,,,15,,59,0
6179,note_on,,59,0,11,,,,,,,,,,,,,,,,15,,55,0
6179,note_on,,0,0,11,,,,,,,,,,,,,,,,15,,71,0
6179,note_on,,29,0,7,,,,,,,,,,,,,,,,10,,76,0
6179,note_on,,0,0,11,,,,,,,,,,,,,,,,15,,67,0
6179,note_on,,29,0,8,,,,,,,,,,,,,,,,11,,72,0
6180,note_on,,1,0,11,,,,,,,,,,,,,,,,15,,54,72
6180,note_on,,0,0,11,,,,,,,,,,,,,,,,15,,57,72
6180,note_on,,0,0,11,,,,,,,,,,,,,,,,15,,72,72
6180,note_on,,1,0,5,,,,,,,,,,,,,,,,2,,54,72
6180,note_on,,1,0,7,,,,,,,,,,,,,,,,10,,74,72
6180,note_on,,1,0,10,,,,,,,,,,,,,,,,13,,54,72
6180,note_on,,0,0,11,,,,,,,,,,,,,,,,15,,69,72
6180,note_on,,1,0,8,,,,,,,,,,,,,,,,11,,71,72
6180,note_on,,1,0,9,,,,,,,,,,,,,,,,12,,62,72
6209,note_on,,29,0,8,,,,,,,,,,,,,,,,11,,71,0
6209,note_on,,29,0,7,,,,,,,,,,,,,,,,10,,74,0
6210,note_on,,1,0,8,,,,,,,,,,,,,,,,11,,72,72
6210,note_on,,1,0,7,,,,,,,,,,,,,,,,10,,76,72
6239,note_on,,0,0,11,,,,,,,,,,,,,,,,15,,57,0
6239,note_on,,0,0,11,,,,,,,,,,,,,,,,15,,72,0
6239,note_on,,59,0,5,,,,,,,,,,,,,,,,2,,54,0
6239,note_on,,59,0,9,,,,,,,,,,,,,,,,12,,62,0
6239,note_on,,0,0,11,,,,,,,,,,,,,,,,15,,69,0
6239,note_on,,29,0,8,,,,,,,,,,,,,,,,11,,72,0
6239,note_on,,29,0,7,,,,,,,,,,,,,,,,10,,76,0
6239,note_on,,59,0,11,,,,,,,,,,,,,,,,15,,54,0
6239,note_on,,59,0,10,,,,,,,,,,,,,,,,13,,54,0
6240,note_on,,1,0,10,,,,,,,,,,,,,,,,13,,55,72
6240,note_on,,1,0,8,,,,,,,,,,,,,,,,11,,71,72
6240,note_on,,1,0,9,,,,,,,,,,,,,,,,12,,67,72
6240,note_on,,1,0,7,,,,,,,,,,,,,,,,10,,74,72
6240,note_on,,1,0,5,,,,,,,,,,,,,,,,2,,55,72
6240,note_on,,1,0,11,,,,,,,,,,,,,,,,15,,55,72
6240,note_on,,0,0,11,,,,,,,,,,,,,,,,15,,71,72
6240,note_on,,0,0,11,,,,,,,,,,,,,,,,15,,67,72
6240,note_on,,0,0,11,,,,,,,,,,,,,,,,15,,59,72
6299,note_on,,59,0,7,,,,,,,,,,,,,,,,10,,74,0
6299,note_on,,59,0,10,,,,,,,,,,,,,,,,13,,55,0
6299,note_on,,59,0,8,,,,,,,,,,,,,,,,11,,71,0
6299,note_on,,59,0,5,,,,,,,,,,,,,,,,2,,55,0
6299,note_on,,59,0,11,,,,,,,,,,,,,,,,15,,55,0
6299,note_on,,0,0,11,,,,,,,,,,,,,,,,15,,59,0
6299,note_on,,59,0,9,,,,,,,,,,,,,,,,12,,67,0
6300,note_on,,1,0,7,,,,,,,,,,,,,,,,10,,77,72
6300,note_on,,1,0,5,,,,,,,,,,,,,,,,2,,59,72
6300,note_on,,1,0,9,,,,,,,,,,,,,,,,12,,67,72
6300,note_on,,1,0,10,,,,,,,,,,,,,,,,13,,59,72
6300,note_on,,1,0,11,,,,,,,,,,,,,,,,15,,59,72
6300,note_on,,1,0,8,,,,,,,,,,,,,,,,11,,74,72
6359,note_on,,59,0,11,,,,,,,,,,,,,,,,15,,71,0
6359,note_on,,59,0,7,,,,,,,,,,,,,,,,10,,77,0
6359,note_on,,59,0,5,,,,,,,,,,,,,,,,2,,59,0
6359,note_on,,0,0,11,,,,,,,,,,,,,,,,15,,67,0
6359,note_on,,59,0,8,,,,,,,,,,,,,,,,11,,74,0
6359,note_on,,59,0,10,,,,,,,,,,,,,,,,13,,59,0
6359,note_on,,59,0,9,,,,,,,,,,,,,,,,12,,67,0
6359,note_on,,0,0,11,,,,,,,,,,,,,,,,15,,59,0
6360,note_on,,1,0,11,,,,,,,,,,,,,,,,15,,60,72
6360,note_on,,1,0,7,,,,,,,,,,,,,,,,10,,76,72
6360,note_on,,0,0,11,,,,,,,,,,,,,,,,15,,67,72
6360,note_on,,1,0,10,,,,,,,,,,,,,,,,13,,60,72
6360,note_on,,1,0,5,,,,,,,,,,,,,,,,2,,60,72
6360,note_on,,1,0,8,,,,,,,,,,,,,,,,11,,72,72
6360,note_on,,0,0,11,,,,,,,,,,,,,,,,15,,64,72
6360,note_on,,1,0,9,,,,,,,,,,,,,,,,12,,67,72
6419,note_on,,59,0,10,,,,,,,,,,,,,,,,13,,60,0
6419,note_on,,59,0,5,,,,,,,,,,,,,,,,2,,60,0
6419,note_on,,59,0,7,,,,,,,,,,,,,,,,10,,76,0
6419,note_on,,0,0,11,,,,,,,,,,,,,,,,15,,67,0
6419,note_on,,59,0,11,,,,,,,,,,,,,,,,15,,60,0
6419,note_on,,59,0,8,,,,,,,,,,,,,,,,11,,72,0
6419,note_on,,0,0,11,,,,,,,,,,,,,,,,15,,64,0
6419,note_on,,59,0,9,,,,,,,,,,,,,,,,12,,67,0
6420,note_on,,1,0,9,,,,,,,,,,,,,,,,12,,69,72
6420,note_on,,1,0,11,,,,,,,,,,,,,,,,15,,53,72
6420,note_on,,0,0,11,,,,,,,,,,,,,,,,15,,74,72
6420,note_on,,1,0,7,,,,,,,,,,,,,,,,10,,74,72
6420,note_on,,1,0,10,,,,,,,,,,,,,,,,13,,53,72
6420,note_on,,0,0,11,,,,,,,,,,,,,,,,15,,65,72
6420,note_on,,1,0,5,,,,,,,,,,,,,,,,2,,53,72
6420,note_on,,0,0,11,,,,,,,,,,,,,,,,15,,69,72
6420,note_on,,1,0,8,,,,,,,,,,,,,,,,11,,72,72
6479,note_on,,59,0,10,,,,,,,,,,,,,,,,13,,53,0
6479,note_on,,59,0,11,,,,,,,,,,,,,,,,15,,53,0
6479,note_on,,59,0,9,,,,,,,,,,,,,,,,12,,69,0
6479,note_on,,0,0,11,,,,,,,,,,,,,,,,15,,74,0
6479,note_on,,0,0,11,,,,,,,,,,,,,,,,15,,69,0
6479,note_on,,0,0,11,,,,,,,,,,,,,,,,15,,65,0
6479,note_on,,59,0,8,,,,,,,,,,,,,,,,11,,72,0
6479,note_on,,59,0,5,,,,,,,,,,,,,,,,2,,53,0
6479,note_on,,59,0,7,,,,,,,,,,,,,,,,10,,74,0
6480,note_on,,1,0,8,,,,,,,,,,,,,,,,11,,72,72
6480,note_on,,0,0,11,,,,,,,,,,,,,,,,15,,64,72
6480,note_on,,0,0,11,,,,,,,,,,,,,,,,15,,67,72
6480,note_on,,1,0,5,,,,,,,,,,,,,,,,2,,55,72
6480,note_on,,1,0,10,,,,,,,,,,,,,,,,13,,55,72
6480,note_on,,1,0,11,,,,,,,,,,,,,,,,15,,55,72
6480,note_on,,0,0,11,,,,,,,,,,,,,,,,15,,72,72
6480,note_on,,1,0,9,,,,,,,,,,,,,,,,12,,67,72
6480,note_on,,1,0,7,,,,,,,,,,,,,,,,10,,76,72
6599,note_on,,119,0,9,,,,,,,,,,,,,,,,12,,67,0
6599,note_on,,0,0,11,,,,,,,,,,,,,,,,15,,64,0
6599,note_on,,0,0,11,,,,,,,,,,,,,,,,15,,67,0
6599,note_on,,0,0,11,,,,,,,,,,,,,,,,15,,72,0
6599,note_on,,119,0,11,,,,,,,,,,,,,,,,15,,55,0
6599,note_on,,119,0,8,,,,,,,,,,,,,,,,11,,72,0
6599,note_on,,119,0,7,,,,,,,,,,,,,,,,10,,76,0
6599,note_on,,119,0,5,,,,,,,,,,,,,,,,2,,55,0
6599,note_on,,119,0,10,,,,,,,,,,,,,,,,13,,55,0
6600,note_on,,1,0,9,,,,,,,,,,,,,,,,12,,62,72
6600,note_on,,0,0,11,,,,,,,,,,,,,,,,15,,67,72
6600,note_on,,1,0,11,,,,,,,,,,,,,,,,15,,43,72
6600,note_on,,0,0,11,,,,,,,,,,,,,,,,15,,71,72
6600,note_on,,1,0,7,,,,,,,,,,,,,,,,10,,74,72
6600,note_on,,0,0,11,,,,,,,,,,,,,,,,15,,62,72
6600,note_on,,0,0,11,,,,,,,,,,,,,,,,15,,55,72
6600,note_on,,1,0,8,,,,,,,,,,,,,,,,11,,71,72
6600,note_on,,1,0,10,,,,,,,,,,,,,,,,13,,43,72
6600,note_on,,1,0,5,,,,,,,,,,,,,,,,2,,43,72
6614,note_on,,14,0,7,,,,,,,,,,,,,,,,10,,74,0
6615,note_on,,1,0,7,,,,,,,,,,,,,,,,10,,76,72
6629,note_on,,14,0,7,,,,,,,,,,,,,,,,10,,76,0
6630,note_on,,1,0,7,,,,,,,,,,,,,,,,10,,74,72
6644,note_on,,14,0,7,,,,,,,,,,,,,,,,10,,74,0
6645,note_on,,1,0,7,,,,,,,,,,,,,,,,10,,76,72
6659,note_on,,14,0,7,,,,,,,,,,,,,,,,10,,76,0
6660,note_on,,1,0,7,,,,,,,,,,,,,,,,10,,72,72
6674,note_on,,14,0,7,,,,,,,,,,,,,,,,10,,72,0
6675,note_on,,1,0,7,,,,,,,,,,,,,,,,10,,74,72
6689,note_on,,14,0,7,,,,,,,,,,,,,,,,10,,74,0
6690,note_on,,1,0,7,,,,,,,,,,,,,,,,10,,72,72
6719,note_on,,119,0,10,,,,,,,,,,,,,,,,13,,43,0
6719,note_on,,119,0,5,,,,,,,,,,,,,,,,2,,43,0
6719,note_on,,119,0,8,,,,,,,,,,,,,,,,11,,71,0
6719,note_on,,119,0,9,,,,,,,,,,,,,,,,12,,62,0
6719,note_on,,0,0,11,,,,,,,,,,,,,,,,15,,55,0
6719,note_on,,29,0,7,,,,,,,,,,,,,,,,10,,72,0
6719,note_on,,0,0,11,,,,,,,,,,,,,,,,15,,62,0
6719,note_on,,0,0,11,,,,,,,,,,,,,,,,15,,67,0
6719,note_on,,0,0,11,,,,,,,,,,,,,,,,15,,71,0
6719,note_on,,119,0,11,,,,,,,,,,,,,,,,15,,43,0
6720,note_on,,1,0,9,,,,,,,,,,,,,,,,12,,64,72
6720,note_on,,0,0,11,,,,,,,,,,,,,,,,15,,72,72
6720,note_on,,0,0,11,,,,,,,,,,,,,,,,15,,67,72
6720,note_on,,0,0,11,,,,,,,,,,,,,,,,15,,55,72
6720,note_on,,1,0,8,,,,,,,,,,,,,,,,11,,72,72
6720,note_on,,1,0,5,,,,,,,,,,,,,,,,2,,48,72
6720,note_on,,0,0,11,,,,,,,,,,,,,,,,15,,64,72
6720,note_on,,1,0,11,,,,,,,,,,,,,,,,15,,48,72
6720,note_on,,1,0,10,,,,,,,,,,,,,,,,13,,48,72
6720,note_on,,1,0,7,,,,,,,,,,,,,,,,10,,72,48
6720,note_on,,6720,0,6,,,,,,,,,,,,,,,,8,,48,72
6749,note_on,,29,0,7,,,,,,,,,,,,,,,,10,,72,0
6750,note_on,,1,0,7,,,,,,,,,,,,,,,,10,,60,48
6779,note_on,,59,0,5,,,,,,,,,,,,,,,,2,,48,0
6779,note_on,,29,0,7,,,,,,,,,,,,,,,,10,,60,0
6779,note_on,,59,0,11,,,,,,,,,,,,,,,,15,,48,0
6779,note_on,,59,0,10,,,,,,,,,,,,,,,,13,,48,0
6780,note_on,,1,0,10,,,,,,,,,,,,,,,,13,,48,48
6780,note_on,,1,0,7,,,,,,,,,,,,,,,,10,,60,48
6780,note_on,,1,0,11,,,,,,,,,,,,,,,,15,,48,48
6780,note_on,,1,0,5,,,,,,,,,,,,,,,,2,,48,48
6809,note_on,,29,0,7,,,,,,,,,,,,,,,,10,,60,0
6810,note_on,,1,0,7,,,,,,,,,,,,,,,,10,,60,48
6839,note_on,,59,0,11,,,,,,,,,,,,,,,,15,,48,0
6839,note_on,,29,0,7,,,,,,,,,,,,,,,,10,,60,0
6839,note_on,,59,0,5,,,,,,,,,,,,,,,,2,,48,0
6839,note_on,,119,0,8,,,,,,,,,,,,,,,,11,,72,0
6839,note_on,,59,0,10,,,,,,,,,,,,,,,,13,,48,0
6839,note_on,,119,0,9,,,,,,,,,,,,,,,,12,,64,0
6840,note_on,,1,0,7,,,,,,,,,,,,,,,,10,,60,48
6840,note_on,,1,0,10,,,,,,,,,,,,,,,,13,,48,48
6840,note_on,,1,0,11,,,,,,,,,,,,,,,,15,,48,48
6840,note_on,,1,0,5,,,,,,,,,,,,,,,,2,,48,48
6869,note_on,,29,0,7,,,,,,,,,,,,,,,,10,,60,0
6870,note_on,,1,0,7,,,,,,,,,,,,,,,,10,,60,48
6899,note_on,,59,0,10,,,,,,,,,,,,,,,,13,,48,0
6899,note_on,,29,0,7,,,,,,,,,,,,,,,,10,,60,0
6899,note_on,,59,0,5,,,,,,,,,,,,,,,,2,,48,0
6899,note_on,,59,0,11,,,,,,,,,,,,,,,,15,,48,0
6900,note_on,,1,0,11,,,,,,,,,,,,,,,,15,,48,48
6900,note_on,,1,0,7,,,,,,,,,,,,,,,,10,,60,48
6900,note_on,,1,0,10,,,,,,,,,,,,,,,,13,,48,48
6900,note_on,,1,0,5,,,,,,,,,,,,,,,,2,,48,48
6929,note_on,,29,0,7,,,,,,,,,,,,,,,,10,,60,0
6930,note_on,,1,0,7,,,,,,,,,,,,,,,,10,,60,48
6959,note_on,,0,0,11,,,,,,,,,,,,,,,,15,,64,0
6959,note_on,,0,0,11,,,,,,,,,,,,,,,,15,,67,0
6959,note_on,,29,0,7,,,,,,,,,,,,,,,,10,,60,0
6959,note_on,,0,0,11,,,,,,,,,,,,,,,,15,,48,0
6959,note_on,,59,0,11,,,,,,,,,,,,,,,,15,,72,0
6959,note_on,,0,0,11,,,,,,,,,,,,,,,,15,,55,0
6959,note_on,,59,0,10,,,,,,,,,,,,,,,,13,,48,0
6959,note_on,,59,0,5,,,,,,,,,,,,,,,,2,,48,0
6959,note_on,,239,0,6,,,,,,,,,,,,,,,,8,,48,0
6960,note_on,,1,0,5,,,,,,,,,,,,,,,,2,,48,48
6960,note_on,,121,0,8,,,,,,,,,,,,,,,,11,,60,48
6960,note_on,,121,0,9,,,,,,,,,,,,,,,,12,,60,48
6960,note_on,,1,0,6,,,,,,,,,,,,,,,,8,,52,72
6960,note_on,,1,0,7,,,,,,,,,,,,,,,,10,,60,48
6960,note_on,,0,0,11,,,,,,,,,,,,,,,,15,,52,48
6960,note_on,,0,0,11,,,,,,,,,,,,,,,,15,,55,48
6960,note_on,,1,0,11,,,,,,,,,,,,,,,,15,,48,48
6960,note_on,,1,0,10,,,,,,,,,,,,,,,,13,,48,48
6989,note_on,,29,0,7,,,,,,,,,,,,,,,,10,,60,0
6989,note_on,,29,0,9,,,,,,,,,,,,,,,,12,,60,0
6989,note_on,,29,0,8,,,,,,,,,,,,,,,,11,,60,0
6990,note_on,,1,0,9,,,,,,,,,,,,,,,,12,,60,48
6990,note_on,,1,0,8,,,,,,,,,,,,,,,,11,,60,48
6990,note_on,,1,0,7,,,,,,,,,,,,,,,,10,,60,48
7019,note_on,,59,0,10,,,,,,,,,,,,,,,,13,,48,0
7019,note_on,,29,0,8,,,,,,,,,,,,,,,,11,,60,0
7019,note_on,,59,0,11,,,,,,,,,,,,,,,,15,,48,0
7019,note_on,,59,0,5,,,,,,,,,,,,,,,,2,,48,0
7019,note_on,,29,0,7,,,,,,,,,,,,,,,,10,,60,0
7019,note_on,,29,0,9,,,,,,,,,,,,,,,,12,,60,0
7020,note_on,,1,0,10,,,,,,,,,,,,,,,,13,,48,48
7020,note_on,,1,0,5,,,,,,,,,,,,,,,,2,,48,48
7020,note_on,,1,0,9,,,,,,,,,,,,,,,,12,,60,48
7020,note_on,,1,0,11,,,,,,,,,,,,,,,,15,,48,48
7020,note_on,,1,0,8,,,,,,,,,,,,,,,,11,,60,48
7020,note_on,,1,0,7,,,,,,,,,,,,,,,,10,,60,48
7049,note_on,,29,0,7,,,,,,,,,,,,,,,,10,,60,0
7049,note_on,,29,0,9,,,,,,,,,,,,,,,,12,,60,0
7049,note_on,,29,0,8,,,,,,,,,,,,,,,,11,,60,0
7050,note_on,,1,0,8,,,,,,,,,,,,,,,,11,,60,48
7050,note_on,,1,0,7,,,,,,,,,,,,,,,,10,,60,48
7050,note_on,,1,0,9,,,,,,,,,,,,,,,,12,,60,48
7079,note_on,,29,0,7,,,,,,,,,,,,,,,,10,,60,0
7079,note_on,,29,0,8,,,,,,,,,,,,,,,,11,,60,0
7079,note_on,,59,0,5,,,,,,,,,,,,,,,,2,,48,0
7079,note_on,,119,0,6,,,,,,,,,,,,,,,,8,,52,0
7079,note_on,,29,0,9,,,,,,,,,,,,,,,,12,,60,0
7079,note_on,,59,0,10,,,,,,,,,,,,,,,,13,,48,0
7079,note_on,,0,0,11,,,,,,,,,,,,,,,,15,,48,0
7079,note_on,,0,0,11,,,,,,,,,,,,,,,,15,,52,0
7079,note_on,,59,0,11,,,,,,,,,,,,,,,,15,,55,0
7080,note_on,,1,0,10,,,,,,,,,,,,,,,,13,,48,48
7080,note_on,,1,0,7,,,,,,,,,,,,,,,,10,,60,48
7080,note_on,,1,0,6,,,,,,,,,,,,,,,,8,,55,72
7080,note_on,,0,0,11,,,,,,,,,,,,,,,,15,,60,48
7080,note_on,,0,0,11,,,,,,,,,,,,,,,,15,,52,48
7080,note_on,,0,0,11,,,,,,,,,,,,,,,,15,,55,48
7080,note_on,,1,0,5,,,,,,,,,,,,,,,,2,,48,48
7080,note_on,,1,0,11,,,,,,,,,,,,,,,,15,,48,48
7080,note_on,,1,0,9,,,,,,,,,,,,,,,,12,,64,48
7080,note_on,,1,0,8,,,,,,,,,,,,,,,,11,,60,48
7109,note_on,,29,0,7,,,,,,,,,,,,,,,,10,,60,0
7109,note_on,,29,0,8,,,,,,,,,,,,,,,,11,,60,0
7109,note_on,,29,0,9,,,,,,,,,,,,,,,,12,,64,0
7110,note_on,,1,0,9,,,,,,,,,,,,,,,,12,,64,48
7110,note_on,,1,0,7,,,,,,,,,,,,,,,,10,,60,48
7110,note_on,,1,0,8,,,,,,,,,,,,,,,,11,,60,48
7139,note_on,,29,0,7,,,,,,,,,,,,,,,,10,,60,0
7139,note_on,,59,0,5,,,,,,,,,,,,,,,,2,,48,0
7139,note_on,,59,0,10,,,,,,,,,,,,,,,,13,,48,0
7139,note_on,,59,0,11,,,,,,,,,,,,,,,,15,,48,0
7139,note_on,,29,0,8,,,,,,,,,,,,,,,,11,,60,0
7139,note_on,,29,0,9,,,,,,,,,,,,,,,,12,,64,0
7140,note_on,,1,0,10,,,,,,,,,,,,,,,,13,,48,48
7140,note_on,,1,0,5,,,,,,,,,,,,,,,,2,,48,48
7140,note_on,,1,0,11,,,,,,,,,,,,,,,,15,,48,48
7140,note_on,,1,0,8,,,,,,,,,,,,,,,,11,,60,48
7140,note_on,,1,0,7,,,,,,,,,,,,,,,,10,,60,48
7140,note_on,,1,0,9,,,,,,,,,,,,,,,,12,,64,48
7169,note_on,,29,0,8,,,,,,,,,,,,,,,,11,,60,0
7169,note_on,,29,0,9,,,,,,,,,,,,,,,,12,,64,0
7169,note_on,,29,0,7,,,,,,,,,,,,,,,,10,,60,0
7170,note_on,,1,0,8,,,,,,,,,,,,,,,,11,,60,48
7170,note_on,,1,0,9,,,,,,,,,,,,,,,,12,,64,48
7170,note_on,,1,0,7,,,,,,,,,,,,,,,,10,,60,48
7199,note_on,,0,0,11,,,,,,,,,,,,,,,,15,,60,0
7199,note_on,,29,0,8,,,,,,,,,,,,,,,,11,,60,0
7199,note_on,,0,0,11,,,,,,,,,,,,,,,,15,,48,0
7199,note_on,,0,0,11,,,,,,,,,,,,,,,,15,,52,0
7199,note_on,,59,0,11,,,,,,,,,,,,,,,,15,,55,0
7199,note_on,,119,0,6,,,,,,,,,,,,,,,,8,,55,0
7199,note_on,,59,0,5,,,,,,,,,,,,,,,,2,,48,0
7199,note_on,,29,0,9,,,,,,,,,,,,,,,,12,,64,0
7199,note_on,,59,0,10,,,,,,,,,,,,,,,,13,,48,0
7199,note_on,,29,0,7,,,,,,,,,,,,,,,,10,,60,0
7200,note_on,,1,0,6,,,,,,,,,,,,,,,,8,,60,72
7200,note_on,,1,0,8,,,,,,,,,,,,,,,,11,,64,48
7200,note_on,,1,0,9,,,,,,,,,,,,,,,,12,,67,48
7200,note_on,,0,0,11,,,,,,,,,,,,,,,,15,,55,48
7200,note_on,,0,0,11,,,,,,,,,,,,,,,,15,,60,48
7200,note_on,,0,0,11,,,,,,,,,,,,,,,,15,,64,48
7200,note_on,,1,0,11,,,,,,,,,,,,,,,,15,,48,48
7200,note_on,,1,0,10,,,,,,,,,,,,,,,,13,,48,48
7200,note_on,,1,0,5,,,,,,,,,,,,,,,,2,,48,48
7200,note_on,,1,0,7,,,,,,,,,,,,,,,,10,,60,48
7229,note_on,,29,0,9,,,,,,,,,,,,,,,,12,,67,0
7229,note_on,,29,0,8,,,,,,,,,,,,,,,,11,,64,0
7229,note_on,,29,0,7,,,,,,,,,,,,,,,,10,,60,0
7230,note_on,,1,0,9,,,,,,,,,,,,,,,,12,,67,48
7230,note_on,,1,0,7,,,,,,,,,,,,,,,,10,,60,48
7230,note_on,,1,0,8,,,,,,,,,,,,,,,,11,,64,48
7259,note_on,,29,0,7,,,,,,,,,,,,,,,,10,,60,0
7259,note_on,,29,0,9,,,,,,,,,,,,,,,,12,,67,0
7259,note_on,,59,0,11,,,,,,,,,,,,,,,,15,,48,0
7259,note_on,,59,0,5,,,,,,,,,,,,,,,,2,,48,0
7259,note_on,,59,0,10,,,,,,,,,,,,,,,,13,,48,0
7259,note_on,,29,0,8,,,,,,,,,,,,,,,,11,,64,0
7260,note_on,,1,0,11,,,,,,,,,,,,,,,,15,,48,48
7260,note_on,,1,0,5,,,,,,,,,,,,,,,,2,,48,48
7260,note_on,,1,0,10,,,,,,,,,,,,,,,,13,,48,48
7260,note_on,,1,0,9,,,,,,,,,,,,,,,,12,,67,48
7260,note_on,,1,0,7,,,,,,,,,,,,,,,,10,,71,48
7260,note_on,,1,0,8,,,,,,,,,,,,,,,,11,,67,48
7289,note_on,,29,0,8,,,,,,,,,,,,,,,,11,,67,0
7289,note_on,,29,0,9,,,,,,,,,,,,,,,,12,,67,0
7289,note_on,,29,0,7,,,,,,,,,,,,,,,,10,,71,0
7290,note_on,,1,0,8,,,,,,,,,,,,,,,,11,,67,48
7290,note_on,,1,0,7,,,,,,,,,,,,,,,,10,,71,48
7290,note_on,,1,0,9,,,,,,,,,,,,,,,,12,,67,48
7319,note_on,,29,0,9,,,,,,,,,,,,,,,,12,,67,0
7319,note_on,,29,0,8,,,,,,,,,,,,,,,,11,,67,0
7319,note_on,,29,0,7,,,,,,,,,,,,,,,,10,,71,0
7319,note_on,,59,0,5,,,,,,,,,,,,,,,,2,,48,0
7319,note_on,,59,0,10,,,,,,,,,,,,,,,,13,,48,0
7319,note_on,,59,0,11,,,,,,,,,,,,,,,,15,,48,0
7320,note_on,,1,0,11,,,,,,,,,,,,,,,,15,,48,48
7320,note_on,,1,0,7,,,,,,,,,,,,,,,,10,,72,48
7320,note_on,,1,0,10,,,,,,,,,,,,,,,,13,,48,48
7320,note_on,,1,0,8,,,,,,,,,,,,,,,,11,,69,48
7320,note_on,,1,0,5,,,,,,,,,,,,,,,,2,,48,48
7320,note_on,,1,0,9,,,,,,,,,,,,,,,,12,,60,48
7349,note_on,,29,0,7,,,,,,,,,,,,,,,,10,,72,0
7349,note_on,,29,0,8,,,,,,,,,,,,,,,,11,,69,0
7349,note_on,,29,0,9,,,,,,,,,,,,,,,,12,,60,0
7350,note_on,,1,0,7,,,,,,,,,,,,,,,,10,,72,48
7350,note_on,,1,0,9,,,,,,,,,,,,,,,,12,,60,48
7350,note_on,,1,0,8,,,,,,,,,,,,,,,,11,,69,48
7379,note_on,,29,0,7,,,,,,,,,,,,,,,,10,,72,0
7379,note_on,,59,0,5,,,,,,,,,,,,,,,,2,,48,0
7379,note_on,,59,0,11,,,,,,,,,,,,,,,,15,,48,0
7379,note_on,,59,0,10,,,,,,,,,,,,,,,,13,,48,0
7379,note_on,,29,0,9,,,,,,,,,,,,,,,,12,,60,0
7379,note_on,,29,0,8,,,,,,,,,,,,,,,,11,,69,0
7380,note_on,,1,0,7,,,,,,,,,,,,,,,,10,,74,48
7380,note_on,,1,0,9,,,,,,,,,,,,,,,,12,,55,48
7380,note_on,,1,0,8,,,,,,,,,,,,,,,,11,,71,48
7380,note_on,,1,0,5,,,,,,,,,,,,,,,,2,,48,48
7380,note_on,,1,0,11,,,,,,,,,,,,,,,,15,,48,48
7380,note_on,,1,0,10,,,,,,,,,,,,,,,,13,,48,48
7409,note_on,,29,0,8,,,,,,,,,,,,,,,,11,,71,0
7409,note_on,,29,0,9,,,,,,,,,,,,,,,,12,,55,0
7409,note_on,,29,0,7,,,,,,,,,,,,,,,,10,,74,0
7410,note_on,,1,0,9,,,,,,,,,,,,,,,,12,,55,48
7410,note_on,,1,0,8,,,,,,,,,,,,,,,,11,,71,48
7410,note_on,,1,0,7,,,,,,,,,,,,,,,,10,,74,48
7439,note_on,,0,0,11,,,,,,,,,,,,,,,,15,,48,0
7439,note_on,,59,0,10,,,,,,,,,,,,,,,,13,,48,0
7439,note_on,,0,0,11,,,,,,,,,,,,,,,,15,,55,0
7439,note_on,,0,0,11,,,,,,,,,,,,,,,,15,,60,0
7439,note_on,,59,0,11,,,,,,,,,,,,,,,,15,,64,0
7439,note_on,,29,0,7,,,,,,,,,,,,,,,,10,,74,0
7439,note_on,,59,0,5,,,,,,,,,,,,,,,,2,,48,0
7439,note_on,,239,0,6,,,,,,,,,,,,,,,,8,,60,0
7439,note_on,,29,0,8,,,,,,,,,,,,,,,,11,,71,0
7439,note_on,,29,0,9,,,,,,,,,,,,,,,,12,,55,0
7440,note_on,,1,0,5,,,,,,,,,,,,,,,,2,,48,48
7440,note_on,,1,0,6,,,,,,,,,,,,,,,,8,,60,72
7440,note_on,,1,0,7,,,,,,,,,,,,,,,,10,,76,48
7440,note_on,,1,0,8,,,,,,,,,,,,,,,,11,,72,48
7440,note_on,,1,0,9,,,,,,,,,,,,,,,,12,,60,48
7440,note_on,,1,0,10,,,,,,,,,,,,,,,,13,,48,48
7440,note_on,,1,0,11,,,,,,,,,,,,,,,,15,,48,48
7440,note_on,,0,0,11,,,,,,,,,,,,,,,,15,,52,48
7440,note_on,,0,0,11,,,,,,,,,,,,,,,,15,,67,48
7440,note_on,,0,0,11,,,,,,,,,,,,,,,,15,,60,48
7469,note_on,,29,0,8,,,,,,,,,,,,,,,,11,,72,0
7469,note_on,,29,0,9,,,,,,,,,,,,,,,,12,,60,0
7469,note_on,,29,0,7,,,,,,,,,,,,,,,,10,,76,0
7470,note_on,,1,0,8,,,,,,,,,,,,,,,,11,,60,48
7470,note_on,,1,0,9,,,,,,,,,,,,,,,,12,,60,48
7470,note_on,,1,0,7,,,,,,,,,,,,,,,,10,,60,48
7499,note_on,,59,0,11,,,,,,,,,,,,,,,,15,,48,0
7499,note_on,,59,0,10,,,,,,,,,,,,,,,,13,,48,0
7499,note_on,,29,0,8,,,,,,,,,,,,,,,,11,,60,0
7499,note_on,,29,0,7,,,,,,,,,,,,,,,,10,,60,0
7499,note_on,,29,0,9,,,,,,,,,,,,,,,,12,,60,0
7499,note_on,,59,0,5,,,,,,,,,,,,,,,,2,,48,0
7500,note_on,,1,0,9,,,,,,,,,,,,,,,,12,,60,48
7500,note_on,,1,0,8,,,,,,,,,,,,,,,,11,,60,48
7500,note_on,,1,0,11,,,,,,,,,,,,,,,,15,,48,48
7500,note_on,,1,0,5,,,,,,,,,,,,,,,,2,,48,48
7500,note_on,,1,0,7,,,,,,,,,,,,,,,,10,,60,48
7500,note_on,,1,0,10,,,,,,,,,,,,,,,,13,,48,48
7529,note_on,,29,0,9,,,,,,,,,,,,,,,,12,,60,0
7529,note_on,,29,0,8,,,,,,,,,,,,,,,,11,,60,0
7529,note_on,,29,0,7,,,,,,,,,,,,,,,,10,,60,0
7530,note_on,,1,0,9,,,,,,,,,,,,,,,,12,,60,48
7530,note_on,,1,0,7,,,,,,,,,,,,,,,,10,,60,48
7530,note_on,,1,0,8,,,,,,,,,,,,,,,,11,,60,48
7559,note_on,,59,0,11,,,,,,,,,,,,,,,,15,,48,0
7559,note_on,,119,0,6,,,,,,,,,,,,,,,,8,,60,0
7559,note_on,,29,0,9,,,,,,,,,,,,,,,,12,,60,0
7559,note_on,,59,0,5,,,,,,,,,,,,,,,,2,,48,0
7559,note_on,,29,0,8,,,,,,,,,,,,,,,,11,,60,0
7559,note_on,,29,0,7,,,,,,,,,,,,,,,,10,,60,0
7559,note_on,,59,0,10,,,,,,,,,,,,,,,,13,,48,0
7560,note_on,,1,0,10,,,,,,,,,,,,,,,,13,,48,48
7560,note_on,,1,0,9,,,,,,,,,,,,,,,,12,,60,48
7560,note_on,,1,0,11,,,,,,,,,,,,,,,,15,,48,48
7560,note_on,,1,0,8,,,,,,,,,,,,,,,,11,,60,48
7560,note_on,,1,0,6,,,,,,,,,,,,,,,,8,,64,72
7560,note_on,,1,0,7,,,,,,,,,,,,,,,,10,,60,48
7560,note_on,,1,0,5,,,,,,,,,,,,,,,,2,,48,48
7589,note_on,,29,0,7,,,,,,,,,,,,,,,,10,,60,0
7589,note_on,,29,0,8,,,,,,,,,,,,,,,,11,,60,0
7589,note_on,,29,0,9,,,,,,,,,,,,,,,,12,,60,0
7590,note_on,,1,0,8,,,,,,,,,,,,,,,,11,,60,48
7590,note_on,,1,0,9,,,,,,,,,,,,,,,,12,,60,48
7590,note_on,,1,0,7,,,,,,,,,,,,,,,,10,,60,48
7619,note_on,,29,0,7,,,,,,,,,,,,,,,,10,,60,0
7619,note_on,,29,0,8,,,,,,,,,,,,,,,,11,,60,0
7619,note_on,,59,0,11,,,,,,,,,,,,,,,,15,,48,0
7619,note_on,,59,0,10,,,,,,,,,,,,,,,,13,,48,0
7619,note_on,,29,0,9,,,,,,,,,,,,,,,,12,,60,0
7619,note_on,,59,0,5,,,,,,,,,,,,,,,,2,,48,0
7620,note_on,,1,0,11,,,,,,,,,,,,,,,,15,,48,48
7620,note_on,,1,0,5,,,,,,,,,,,,,,,,2,,48,48
7620,note_on,,1,0,7,,,,,,,,,,,,,,,,10,,60,48
7620,note_on,,1,0,10,,,,,,,,,,,,,,,,13,,48,48
7620,note_on,,1,0,8,,,,,,,,,,,,,,,,11,,60,48
7620,note_on,,1,0,9,,,,,,,,,,,,,,,,12,,60,48
7649,note_on,,29,0,7,,,,,,,,,,,,,,,,10,,60,0
7649,note_on,,29,0,9,,,,,,,,,,,,,,,,12,,60,0
7649,note_on,,29,0,8,,,,,,,,,,,,,,,,11,,60,0
7650,note_on,,1,0,7,,,,,,,,,,,,,,,,10,,60,48
7650,note_on,,1,0,9,,,,,,,,,,,,,,,,12,,60,48
7650,note_on,,1,0,8,,,,,,,,,,,,,,,,11,,60,48
7679,note_on,,59,0,11,,,,,,,,,,,,,,,,15,,52,0
7679,note_on,,0,0,11,,,,,,,,,,,,,,,,15,,60,0
7679,note_on,,29,0,8,,,,,,,,,,,,,,,,11,,60,0
7679,note_on,,0,0,11,,,,,,,,,,,,,,,,15,,48,0
7679,note_on,,119,0,6,,,,,,,,,,,,,,,,8,,64,0
7679,note_on,,29,0,7,,,,,,,,,,,,,,,,10,,60,0
7679,note_on,,29,0,9,,,,,,,,,,,,,,,,12,,60,0
7679,note_on,,59,0,5,,,,,,,,,,,,,,,,2,,48,0
7679,note_on,,0,0,11,,,,,,,,,,,,,,,,15,,67,0
7679,note_on,,59,0,10,,,,,,,,,,,,,,,,13,,48,0
7680,note_on,,1,0,6,,,,,,,,,,,,,,,,8,,60,72
7680,note_on,,1,0,8,,,,,,,,,,,,,,,,11,,60,48
7680,note_on,,1,0,5,,,,,,,,,,,,,,,,2,,48,48
7680,note_on,,1,0,11,,,,,,,,,,,,,,,,15,,72,48
7680,note_on,,0,0,11,,,,,,,,,,,,,,,,15,,48,48
7680,note_on,,0,0,11,,,,,,,,,,,,,,,,15,,64,48
7680,note_on,,0,0,11,,,,,,,,,,,,,,,,15,,55,48
7680,note_on,,1,0,9,,,,,,,,,,,,,,,,12,,60,48
7680,note_on,,1,0,7,,,,,,,,,,,,,,,,10,,60,48
7680,note_on,,1,0,10,,,,,,,,,,,,,,,,13,,48,48
7709,note_on,,29,0,9,,,,,,,,,,,,,,,,12,,60,0
7710,note_on,,1,0,9,,,,,,,,,,,,,,,,12,,60,48
7739,note_on,,59,0,10,,,,,,,,,,,,,,,,13,,48,0
7739,note_on,,59,0,5,,,,,,,,,,,,,,,,2,,48,0
7739,note_on,,29,0,9,,,,,,,,,,,,,,,,12,,60,0
7739,note_on,,59,0,8,,,,,,,,,,,,,,,,11,,60,0
7739,note_on,,59,0,11,,,,,,,,,,,,,,,,15,,48,0
7739,note_on,,59,0,7,,,,,,,,,,,,,,,,10,,60,0
7740,note_on,,1,0,10,,,,,,,,,,,,,,,,13,,48,48
7740,note_on,,1,0,5,,,,,,,,,,,,,,,,2,,48,48
7740,note_on,,1,0,9,,,,,,,,,,,,,,,,12,,55,48
7740,note_on,,1,0,11,,,,,,,,,,,,,,,,15,,48,48
7740,note_on,,1,0,8,,,,,,,,,,,,,,,,11,,71,48
7740,note_on,,1,0,7,,,,,,,,,,,,,,,,10,,74,48
7769,note_on,,29,0,8,,,,,,,,,,,,,,,,11,,71,0
7769,note_on,,29,0,7,,,,,,,,,,,,,,,,10,,74,0
7769,note_on,,29,0,9,,,,,,,,,,,,,,,,12,,55,0
7770,note_on,,1,0,9,,,,,,,,,,,,,,,,12,,55,48
7770,note_on,,1,0,7,,,,,,,,,,,,,,,,10,,74,48
7770,note_on,,1,0,8,,,,,,,,,,,,,,,,11,,71,48
7799,note_on,,29,0,9,,,,,,,,,,,,,,,,12,,55,0
7799,note_on,,29,0,8,,,,,,,,,,,,,,,,11,,71,0
7799,note_on,,59,0,11,,,,,,,,,,,,,,,,15,,48,0
7799,note_on,,29,0,7,,,,,,,,,,,,,,,,10,,74,0
7799,note_on,,119,0,6,,,,,,,,,,,,,,,,8,,60,0
7799,note_on,,59,0,10,,,,,,,,,,,,,,,,13,,48,0
7799,note_on,,59,0,5,,,,,,,,,,,,,,,,2,,48,0
7800,note_on,,1,0,5,,,,,,,,,,,,,,,,2,,48,48
7800,note_on,,1,0,7,,,,,,,,,,,,,,,,10,,76,48
7800,note_on,,1,0,10,,,,,,,,,,,,,,,,13,,48,48
7800,note_on,,1,0,9,,,,,,,,,,,,,,,,12,,60,48
7800,note_on,,1,0,8,,,,,,,,,,,,,,,,11,,72,48
7800,note_on,,1,0,11,,,,,,,,,,,,,,,,15,,48,48
7800,note_on,,1,0,6,,,,,,,,,,,,,,,,8,,59,72
7829,note_on,,29,0,9,,,,,,,,,,,,,,,,12,,60,0
7829,note_on,,29,0,7,,,,,,,,,,,,,,,,10,,76,0
7829,note_on,,29,0,8,,,,,,,,,,,,,,,,11,,72,0
7830,note_on,,1,0,7,,,,,,,,,,,,,,,,10,,76,48
7830,note_on,,1,0,9,,,,,,,,,,,,,,,,12,,60,48
7830,note_on,,1,0,8,,,,,,,,,,,,,,,,11,,72,48
7859,note_on,,29,0,8,,,,,,,,,,,,,,,,11,,72,0
7859,note_on,,59,0,6,,,,,,,,,,,,,,,,8,,59,0
7859,note_on,,59,0,5,,,,,,,,,,,,,,,,2,,48,0
7859,note_on,,59,0,10,,,,,,,,,,,,,,,,13,,48,0
7859,note_on,,29,0,9,,,,,,,,,,,,,,,,12,,60,0
7859,note_on,,29,0,7,,,,,,,,,,,,,,,,10,,76,0
7859,note_on,,59,0,11,,,,,,,,,,,,,,,,15,,48,0
7860,note_on,,1,0,5,,,,,,,,,,,,,,,,2,,48,48
7860,note_on,,1,0,8,,,,,,,,,,,,,,,,11,,74,48
7860,note_on,,1,0,7,,,,,,,,,,,,,,,,10,,76,48
7860,note_on,,1,0,11,,,,,,,,,,,,,,,,15,,48,48
7860,note_on,,1,0,9,,,,,,,,,,,,,,,,12,,65,48
7860,note_on,,1,0,10,,,,,,,,,,,,,,,,13,,48,48
7860,note_on,,1,0,6,,,,,,,,,,,,,,,,8,,57,72
7889,note_on,,29,0,9,,,,,,,,,,,,,,,,12,,65,0
7889,note_on,,29,0,8,,,,,,,,,,,,,,,,11,,74,0
7889,note_on,,29,0,7,,,,,,,,,,,,,,,,10,,76,0
7890,note_on,,1,0,7,,,,,,,,,,,,,,,,10,,76,48
7890,note_on,,1,0,8,,,,,,,,,,,,,,,,11,,74,48
7890,note_on,,1,0,9,,,,,,,,,,,,,,,,12,,65,48
7919,note_on,,59,0,5,,,,,,,,,,,,,,,,2,,48,0
7919,note_on,,0,0,11,,,,,,,,,,,,,,,,15,,64,0
7919,note_on,,59,0,6,,,,,,,,,,,,,,,,8,,57,0
7919,note_on,,59,0,10,,,,,,,,,,,,,,,,13,,48,0
7919,note_on,,29,0,9,,,,,,,,,,,,,,,,12,,65,0
7919,note_on,,59,0,11,,,,,,,,,,,,,,,,15,,72,0
7919,note_on,,0,0,11,,,,,,,,,,,,,,,,15,,55,0
7919,note_on,,0,0,11,,,,,,,,,,,,,,,,15,,48,0
7919,note_on,,29,0,8,,,,,,,,,,,,,,,,11,,74,0
7919,note_on,,29,0,7,,,,,,,,,,,,,,,,10,,76,0
7920,note_on,,1,0,10,,,,,,,,,,,,,,,,13,,48,48
7920,note_on,,0,0,11,,,,,,,,,,,,,,,,15,,67,48
7920,note_on,,1,0,7,,,,,,,,,,,,,,,,10,,79,48
7920,note_on,,0,0,11,,,,,,,,,,,,,,,,15,,64,48
7920,note_on,,0,0,11,,,,,,,,,,,,,,,,15,,60,48
7920,note_on,,1,0,11,,,,,,,,,,,,,,,,15,,48,48
7920,note_on,,1,0,8,,,,,,,,,,,,,,,,11,,76,48
7920,note_on,,1,0,6,,,,,,,,,,,,,,,,8,,55,72
7920,note_on,,1,0,9,,,,,,,,,,,,,,,,12,,64,48
7920,note_on,,1,0,5,,,,,,,,,,,,,,,,2,,48,48
7949,note_on,,29,0,7,,,,,,,,,,,,,,,,10,,79,0
7949,note_on,,29,0,8,,,,,,,,,,,,,,,,11,,76,0
7949,note_on,,29,0,9,,,,,,,,,,,,,,,,12,,64,0
7950,note_on,,1,0,8,,,,,,,,,,,,,,,,11,,60,48
7950,note_on,,1,0,9,,,,,,,,,,,,,,,,12,,60,48
7950,note_on,,1,0,7,,,,,,,,,,,,,,,,10,,60,48
7979,note_on,,29,0,9,,,,,,,,,,,,,,,,12,,60,0
7979,note_on,,59,0,11,,,,,,,,,,,,,,,,15,,48,0
7979,note_on,,59,0,5,,,,,,,,,,,,,,,,2,,48,0
7979,note_on,,29,0,8,,,,,,,,,,,,,,,,11,,60,0
7979,note_on,,29,0,7,,,,,,,,,,,,,,,,10,,60,0
7979,note_on,,59,0,10,,,,,,,,,,,,,,,,13,,48,0
7979,note_on,,59,0,6,,,,,,,,,,,,,,,,8,,55,0
7980,note_on,,1,0,5,,,,,,,,,,,,,,,,2,,48,48
7980,note_on,,1,0,6,,,,,,,,,,,,,,,,8,,53,72
7980,note_on,,1,0,10,,,,,,,,,,,,,,,,13,,48,48
7980,note_on,,1,0,11,,,,,,,,,,,,,,,,15,,48,48
7980,note_on,,1,0,8,,,,,,,,,,,,,,,,11,,60,48
7980,note_on,,1,0,9,,,,,,,,,,,,,,,,12,,60,48
7980,note_on,,1,0,7,,,,,,,,,,,,,,,,10,,60,48
8009,note_on,,29,0,7,,,,,,,,,,,,,,,,10,,60,0
8009,note_on,,29,0,9,,,,,,,,,,,,,,,,12,,60,0
8009,note_on,,29,0,8,,,,,,,,,,,,,,,,11,,60,0
8010,note_on,,1,0,8,,,,,,,,,,,,,,,,11,,60,48
8010,note_on,,1,0,9,,,,,,,,,,,,,,,,12,,60,48
8010,note_on,,1,0,7,,,,,,,,,,,,,,,,10,,60,48
8039,note_on,,29,0,8,,,,,,,,,,,,,,,,11,,60,0
8039,note_on,,29,0,9,,,,,,,,,,,,,,,,12,,60,0
8039,note_on,,59,0,6,,,,,,,,,,,,,,,,8,,53,0
8039,note_on,,59,0,10,,,,,,,,,,,,,,,,13,,48,0
8039,note_on,,59,0,5,,,,,,,,,,,,,,,,2,,48,0
8039,note_on,,29,0,7,,,,,,,,,,,,,,,,10,,60,0
8039,note_on,,59,0,11,,,,,,,,,,,,,,,,15,,48,0
8040,note_on,,1,0,6,,,,,,,,,,,,,,,,8,,52,72
8040,note_on,,1,0,10,,,,,,,,,,,,,,,,13,,48,48
8040,note_on,,1,0,7,,,,,,,,,,,,,,,,10,,60,48
8040,note_on,,1,0,8,,,,,,,,,,,,,,,,11,,60,48
8040,note_on,,1,0,5,,,,,,,,,,,,,,,,2,,48,48
8040,note_on,,1,0,9,,,,,,,,,,,,,,,,12,,60,48
8040,note_on,,1,0,11,,,,,,,,,,,,,,,,15,,48,48
8069,note_on,,29,0,8,,,,,,,,,,,,,,,,11,,60,0
8069,note_on,,29,0,7,,,,,,,,,,,,,,,,10,,60,0
8069,note_on,,29,0,9,,,,,,,,,,,,,,,,12,,60,0
8070,note_on,,1,0,7,,,,,,,,,,,,,,,,10,,60,48
8070,note_on,,1,0,8,,,,,,,,,,,,,,,,11,,60,48
8070,note_on,,1,0,9,,,,,,,,,,,,,,,,12,,60,48
8099,note_on,,29,0,8,,,,,,,,,,,,,,,,11,,60,0
8099,note_on,,29,0,9,,,,,,,,,,,,,,,,12,,60,0
8099,note_on,,29,0,7,,,,,,,,,,,,,,,,10,,60,0
8099,note_on,,59,0,5,,,,,,,,,,,,,,,,2,,48,0
8099,note_on,,59,0,6,,,,,,,,,,,,,,,,8,,52,0
8099,note_on,,59,0,10,,,,,,,,,,,,,,,,13,,48,0
8099,note_on,,59,0,11,,,,,,,,,,,,,,,,15,,48,0
8100,note_on,,1,0,6,,,,,,,,,,,,,,,,8,,50,72
8100,note_on,,1,0,9,,,,,,,,,,,,,,,,12,,60,48
8100,note_on,,1,0,11,,,,,,,,,,,,,,,,15,,48,48
8100,note_on,,1,0,10,,,,,,,,,,,,,,,,13,,48,48
8100,note_on,,1,0,8,,,,,,,,,,,,,,,,11,,60,48
8100,note_on,,1,0,5,,,,,,,,,,,,,,,,2,,48,48
8100,note_on,,1,0,7,,,,,,,,,,,,,,,,10,,60,48
8129,note_on,,29,0,9,,,,,,,,,,,,,,,,12,,60,0
8129,note_on,,29,0,7,,,,,,,,,,,,,,,,10,,60,0
8129,note_on,,29,0,8,,,,,,,,,,,,,,,,11,,60,0
8130,note_on,,1,0,8,,,,,,,,,,,,,,,,11,,60,48
8130,note_on,,1,0,9,,,,,,,,,,,,,,,,12,,60,48
8130,note_on,,1,0,7,,,,,,,,,,,,,,,,10,,60,48
8159,note_on,,59,0,10,,,,,,,,,,,,,,,,13,,48,0
8159,note_on,,59,0,5,,,,,,,,,,,,,,,,2,,48,0
8159,note_on,,29,0,9,,,,,,,,,,,,,,,,12,,60,0
8159,note_on,,0,0,11,,,,,,,,,,,,,,,,15,,64,0
8159,note_on,,29,0,8,,,,,,,,,,,,,,,,11,,60,0
8159,note_on,,59,0,11,,,,,,,,,,,,,,,,15,,60,0
8159,note_on,,0,0,11,,,,,,,,,,,,,,,,15,,48,0
8159,note_on,,29,0,7,,,,,,,,,,,,,,,,10,,60,0
8159,note_on,,59,0,6,,,,,,,,,,,,,,,,8,,50,0
8159,note_on,,0,0,11,,,,,,,,,,,,,,,,15,,67,0
8160,note_on,,1,0,10,,,,,,,,,,,,,,,,13,,48,48
8160,note_on,,1,0,5,,,,,,,,,,,,,,,,2,,48,48
8160,note_on,,1,0,6,,,,,,,,,,,,,,,,8,,48,72
8160,note_on,,0,0,11,,,,,,,,,,,,,,,,15,,55,48
8160,note_on,,1,0,9,,,,,,,,,,,,,,,,12,,60,48
8160,note_on,,1,0,8,,,,,,,,,,,,,,,,11,,60,48
8160,note_on,,0,0,11,,,,,,,,,,,,,,,,15,,64,48
8160,note_on,,1,0,11,,,,,,,,,,,,,,,,15,,48,48
8160,note_on,,0,0,11,,,,,,,,,,,,,,,,15,,60,48
8160,note_on,,1,0,7,,,,,,,,,,,,,,,,10,,60,48
8189,note_on,,29,0,9,,,,,,,,,,,,,,,,12,,60,0
8190,note_on,,1,0,9,,,,,,,,,,,,,,,,12,,60,48
8219,note_on,,59,0,5,,,,,,,,,,,,,,,,2,,48,0
8219,note_on,,59,0,10,,,,,,,,,,,,,,,,13,,48,0
8219,note_on,,29,0,9,,,,,,,,,,,,,,,,12,,60,0
8219,note_on,,59,0,11,,,,,,,,,,,,,,,,15,,48,0
8219,note_on,,59,0,7,,,,,,,,,,,,,,,,10,,60,0
8219,note_on,,59,0,8,,,,,,,,,,,,,,,,11,,60,0
8220,note_on,,1,0,11,,,,,,,,,,,,,,,,15,,48,48
8220,note_on,,1,0,7,,,,,,,,,,,,,,,,10,,79,48
8220,note_on,,1,0,10,,,,,,,,,,,,,,,,13,,48,48
8220,note_on,,1,0,5,,,,,,,,,,,,,,,,2,,48,48
8220,note_on,,1,0,9,,,,,,,,,,,,,,,,12,,60,48
8220,note_on,,1,0,8,,,,,,,,,,,,,,,,11,,76,48
8249,note_on,,29,0,7,,,,,,,,,,,,,,,,10,,79,0
8249,note_on,,29,0,9,,,,,,,,,,,,,,,,12,,60,0
8249,note_on,,29,0,8,,,,,,,,,,,,,,,,11,,76,0
8250,note_on,,1,0,8,,,,,,,,,,,,,,,,11,,76,48
8250,note_on,,1,0,7,,,,,,,,,,,,,,,,10,,79,48
8250,note_on,,1,0,9,,,,,,,,,,,,,,,,12,,60,48
8279,note_on,,59,0,5,,,,,,,,,,,,,,,,2,,48,0
8279,note_on,,59,0,10,,,,,,,,,,,,,,,,13,,48,0
8279,note_on,,29,0,8,,,,,,,,,,,,,,,,11,,76,0
8279,note_on,,29,0,9,,,,,,,,,,,,,,,,12,,60,0
8279,note_on,,29,0,7,,,,,,,,,,,,,,,,10,,79,0
8279,note_on,,119,0,6,,,,,,,,,,,,,,,,8,,48,0
8279,note_on,,59,0,11,,,,,,,,,,,,,,,,15,,48,0
8280,note_on,,1,0,8,,,,,,,,,,,,,,,,11,,77,48
8280,note_on,,1,0,6,,,,,,,,,,,,,,,,8,,48,72
8280,note_on,,1,0,7,,,,,,,,,,,,,,,,10,,81,48
8280,note_on,,1,0,10,,,,,,,,,,,,,,,,13,,48,48
8280,note_on,,1,0,5,,,,,,,,,,,,,,,,2,,48,48
8280,note_on,,1,0,9,,,,,,,,,,,,,,,,12,,60,48
8280,note_on,,1,0,11,,,,,,,,,,,,,,,,15,,48,48
8309,note_on,,29,0,7,,,,,,,,,,,,,,,,10,,81,0
8309,note_on,,29,0,9,,,,,,,,,,,,,,,,12,,60,0
8309,note_on,,29,0,8,,,,,,,,,,,,,,,,11,,77,0
8310,note_on,,1,0,7,,,,,,,,,,,,,,,,10,,81,48
8310,note_on,,1,0,8,,,,,,,,,,,,,,,,11,,77,48
8310,note_on,,1,0,9,,,,,,,,,,,,,,,,12,,60,48
8339,note_on,,59,0,11,,,,,,,,,,,,,,,,15,,48,0
8339,note_on,,59,0,10,,,,,,,,,,,,,,,,13,,48,0
8339,note_on,,59,0,5,,,,,,,,,,,,,,,,2,,48,0
8339,note_on,,29,0,8,,,,,,,,,,,,,,,,11,,77,0
8339,note_on,,29,0,7,,,,,,,,,,,,,,,,10,,81,0
8339,note_on,,29,0,9,,,,,,,,,,,,,,,,12,,60,0
8340,note_on,,1,0,11,,,,,,,,,,,,,,,,15,,48,48
8340,note_on,,1,0,7,,,,,,,,,,,,,,,,10,,83,48
8340,note_on,,1,0,5,,,,,,,,,,,,,,,,2,,48,48
8340,note_on,,1,0,8,,,,,,,,,,,,,,,,11,,74,48
8340,note_on,,1,0,9,,,,,,,,,,,,,,,,12,,60,48
8340,note_on,,1,0,10,,,,,,,,,,,,,,,,13,,48,48
8369,note_on,,29,0,7,,,,,,,,,,,,,,,,10,,83,0
8369,note_on,,29,0,8,,,,,,,,,,,,,,,,11,,74,0
8369,note_on,,29,0,9,,,,,,,,,,,,,,,,12,,60,0
8370,note_on,,1,0,9,,,,,,,,,,,,,,,,12,,60,48
8370,note_on,,1,0,7,,,,,,,,,,,,,,,,10,,83,48
8370,note_on,,1,0,8,,,,,,,,,,,,,,,,11,,74,48
8399,note_on,,59,0,10,,,,,,,,,,,,,,,,13,,48,0
8399,note_on,,119,0,6,,,,,,,,,,,,,,,,8,,48,0
8399,note_on,,59,0,5,,,,,,,,,,,,,,,,2,,48,0
8399,note_on,,29,0,9,,,,,,,,,,,,,,,,12,,60,0
8399,note_on,,29,0,7,,,,,,,,,,,,,,,,10,,83,0
8399,note_on,,59,0,11,,,,,,,,,,,,,,,,15,,48,0
8399,note_on,,29,0,8,,,,,,,,,,,,,,,,11,,74,0
8400,note_on,,1,0,8,,,,,,,,,,,,,,,,11,,76,48
8400,note_on,,1,0,5,,,,,,,,,,,,,,,,2,,48,48
8400,note_on,,1,0,7,,,,,,,,,,,,,,,,10,,84,48
8400,note_on,,1,0,11,,,,,,,,,,,,,,,,15,,48,48
8400,note_on,,1,0,9,,,,,,,,,,,,,,,,12,,60,48
8400,note_on,,1,0,10,,,,,,,,,,,,,,,,13,,48,48
8429,note_on,,29,0,8,,,,,,,,,,,,,,,,11,,76,0
8429,note_on,,29,0,9,,,,,,,,,,,,,,,,12,,60,0
8430,note_on,,1,0,8,,,,,,,,,,,,,,,,11,,77,48
8430,note_on,,1,0,9,,,,,,,,,,,,,,,,12,,60,48
8459,note_on,,29,0,9,,,,,,,,,,,,,,,,12,,60,0
8459,note_on,,59,0,11,,,,,,,,,,,,,,,,15,,48,0
8459,note_on,,59,0,7,,,,,,,,,,,,,,,,10,,84,0
8459,note_on,,59,0,5,,,,,,,,,,,,,,,,2,,48,0
8459,note_on,,29,0,8,,,,,,,,,,,,,,,,11,,77,0
8459,note_on,,59,0,10,,,,,,,,,,,,,,,,13,,48,0
8460,note_on,,1,0,10,,,,,,,,,,,,,,,,13,,48,48
8460,note_on,,1,0,9,,,,,,,,,,,,,,,,12,,60,48
8460,note_on,,1,0,7,,,,,,,,,,,,,,,,10,,79,48
8460,note_on,,1,0,11,,,,,,,,,,,,,,,,15,,48,48
8460,note_on,,1,0,5,,,,,,,,,,,,,,,,2,,48,48
8460,note_on,,1,0,8,,,,,,,,,,,,,,,,11,,76,48
8489,note_on,,29,0,9,,,,,,,,,,,,,,,,12,,60,0
8489,note_on,,29,0,8,,,,,,,,,,,,,,,,11,,76,0
8489,note_on,,29,0,7,,,,,,,,,,,,,,,,10,,79,0
8490,note_on,,1,0,7,,,,,,,,,,,,,,,,10,,81,48
8490,note_on,,1,0,9,,,,,,,,,,,,,,,,12,,60,48
8490,note_on,,1,0,8,,,,,,,,,,,,,,,,11,,77,48
8519,note_on,,59,0,10,,,,,,,,,,,,,,,,13,,48,0
8519,note_on,,59,0,5,,,,,,,,,,,,,,,,2,,48,0
8519,note_on,,29,0,9,,,,,,,,,,,,,,,,12,,60,0
8519,note_on,,0,0,11,,,,,,,,,,,,,,,,15,,48,0
8519,note_on,,29,0,8,,,,,,,,,,,,,,,,11,,77,0
8519,note_on,,0,0,11,,,,,,,,,,,,,,,,15,,55,0
8519,note_on,,29,0,7,,,,,,,,,,,,,,,,10,,81,0
8519,note_on,,0,0,11,,,,,,,,,,,,,,,,15,,60,0
8519,note_on,,59,0,11,,,,,,,,,,,,,,,,15,,64,0
8520,note_on,,1,0,11,,,,,,,,,,,,,,,,15,,48,48
8520,note_on,,0,0,11,,,,,,,,,,,,,,,,15,,67,48
8520,note_on,,0,0,11,,,,,,,,,,,,,,,,15,,64,48
8520,note_on,,0,0,11,,,,,,,,,,,,,,,,15,,60,48
8520,note_on,,0,0,11,,,,,,,,,,,,,,,,15,,55,48
8520,note_on,,121,0,6,,,,,,,,,,,,,,,,8,,48,72
8520,note_on,,1,0,8,,,,,,,,,,,,,,,,11,,76,48
8520,note_on,,1,0,10,,,,,,,,,,,,,,,,13,,48,48
8520,note_on,,1,0,7,,,,,,,,,,,,,,,,10,,79,48
8520,note_on,,1,0,5,,,,,,,,,,,,,,,,2,,48,48
8520,note_on,,1,0,9,,,,,,,,,,,,,,,,12,,60,48
8549,note_on,,29,0,9,,,,,,,,,,,,,,,,12,,60,0
8549,note_on,,29,0,7,,,,,,,,,,,,,,,,10,,79,0
8549,note_on,,29,0,8,,,,,,,,,,,,,,,,11,,76,0
8550,note_on,,1,0,9,,,,,,,,,,,,,,,,12,,60,48
8550,note_on,,1,0,8,,,,,,,,,,,,,,,,11,,77,48
8550,note_on,,1,0,7,,,,,,,,,,,,,,,,10,,81,48
8579,note_on,,29,0,9,,,,,,,,,,,,,,,,12,,60,0
8579,note_on,,59,0,10,,,,,,,,,,,,,,,,13,,48,0
8579,note_on,,29,0,7,,,,,,,,,,,,,,,,10,,81,0
8579,note_on,,59,0,11,,,,,,,,,,,,,,,,15,,48,0
8579,note_on,,29,0,8,,,,,,,,,,,,,,,,11,,77,0
8579,note_on,,59,0,5,,,,,,,,,,,,,,,,2,,48,0
8580,note_on,,1,0,7,,,,,,,,,,,,,,,,10,,79,48
8580,note_on,,1,0,10,,,,,,,,,,,,,,,,13,,48,48
8580,note_on,,1,0,8,,,,,,,,,,,,,,,,11,,76,48
8580,note_on,,1,0,9,,,,,,,,,,,,,,,,12,,60,48
8580,note_on,,1,0,11,,,,,,,,,,,,,,,,15,,48,48
8580,note_on,,1,0,5,,,,,,,,,,,,,,,,2,,48,48
8609,note_on,,29,0,7,,,,,,,,,,,,,,,,10,,79,0
8609,note_on,,29,0,9,,,,,,,,,,,,,,,,12,,60,0
8609,note_on,,29,0,8,,,,,,,,,,,,,,,,11,,76,0
8610,note_on,,1,0,7,,,,,,,,,,,,,,,,10,,81,48
8610,note_on,,1,0,8,,,,,,,,,,,,,,,,11,,77,48
8610,note_on,,1,0,9,,,,,,,,,,,,,,,,12,,60,48
8639,note_on,,59,0,5,,,,,,,,,,,,,,,,2,,48,0
8639,note_on,,29,0,8,,,,,,,,,,,,,,,,11,,77,0
8639,note_on,,0,0,11,,,,,,,,,,,,,,,,15,,48,0
8639,note_on,,29,0,7,,,,,,,,,,,,,,,,10,,81,0
8639,note_on,,29,0,9,,,,,,,,,,,,,,,,12,,60,0
8639,note_on,,0,0,11,,,,,,,,,,,,,,,,15,,64,0
8639,note_on,,59,0,11,,,,,,,,,,,,,,,,15,,67,0
8639,note_on,,0,0,11,,,,,,,,,,,,,,,,15,,60,0
8639,note_on,,0,0,11,,,,,,,,,,,,,,,,15,,55,0
8639,note_on,,59,0,10,,,,,,,,,,,,,,,,13,,48,0
8639,note_on,,119,0,6,,,,,,,,,,,,,,,,8,,48,0
8640,note_on,,1,0,5,,,,,,,,,,,,,,,,2,,47,48
8640,note_on,,1,0,8,,,,,,,,,,,,,,,,11,,74,48
8640,note_on,,0,0,11,,,,,,,,,,,,,,,,15,,55,48
8640,note_on,,0,0,11,,,,,,,,,,,,,,,,15,,62,48
8640,note_on,,0,0,11,,,,,,,,,,,,,,,,15,,67,48
8640,note_on,,1,0,11,,,,,,,,,,,,,,,,15,,47,48
8640,note_on,,1,0,6,,,,,,,,,,,,,,,,8,,50,72
8640,note_on,,1,0,7,,,,,,,,,,,,,,,,10,,79,48
8640,note_on,,1,0,9,,,,,,,,,,,,,,,,12,,62,48
8640,note_on,,1,0,10,,,,,,,,,,,,,,,,13,,47,48
8669,note_on,,29,0,7,,,,,,,,,,,,,,,,10,,79,0
8670,note_on,,1,0,7,,,,,,,,,,,,,,,,10,,81,48
8699,note_on,,59,0,9,,,,,,,,,,,,,,,,12,,62,0
8699,note_on,,29,0,7,,,,,,,,,,,,,,,,10,,81,0
8699,note_on,,59,0,8,,,,,,,,,,,,,,,,11,,74,0
8699,note_on,,59,0,5,,,,,,,,,,,,,,,,2,,47,0
8699,note_on,,59,0,10,,,,,,,,,,,,,,,,13,,47,0
8699,note_on,,59,0,11,,,,,,,,,,,,,,,,15,,47,0
8700,note_on,,1,0,11,,,,,,,,,,,,,,,,15,,47,48
8700,note_on,,1,0,5,,,,,,,,,,,,,,,,2,,47,48
8700,note_on,,1,0,10,,,,,,,,,,,,,,,,13,,47,48
8700,note_on,,1,0,7,,,,,,,,,,,,,,,,10,,79,48
8700,note_on,,1,0,9,,,,,,,,,,,,,,,,12,,62,48
8700,note_on,,1,0,8,,,,,,,,,,,,,,,,11,,74,48
8729,note_on,,29,0,7,,,,,,,,,,,,,,,,10,,79,0
8730,note_on,,1,0,7,,,,,,,,,,,,,,,,10,,81,48
8759,note_on,,59,0,10,,,,,,,,,,,,,,,,13,,47,0
8759,note_on,,59,0,11,,,,,,,,,,,,,,,,15,,47,0
8759,note_on,,59,0,9,,,,,,,,,,,,,,,,12,,62,0
8759,note_on,,59,0,8,,,,,,,,,,,,,,,,11,,74,0
8759,note_on,,119,0,6,,,,,,,,,,,,,,,,8,,50,0
8759,note_on,,29,0,7,,,,,,,,,,,,,,,,10,,81,0
8759,note_on,,59,0,5,,,,,,,,,,,,,,,,2,,47,0
8760,note_on,,1,0,10,,,,,,,,,,,,,,,,13,,47,48
8760,note_on,,1,0,6,,,,,,,,,,,,,,,,8,,55,72
8760,note_on,,1,0,7,,,,,,,,,,,,,,,,10,,79,48
8760,note_on,,1,0,9,,,,,,,,,,,,,,,,12,,62,48
8760,note_on,,1,0,8,,,,,,,,,,,,,,,,11,,74,48
8760,note_on,,1,0,11,,,,,,,,,,,,,,,,15,,47,48
8760,note_on,,1,0,5,,,,,,,,,,,,,,,,2,,47,48
8789,note_on,,29,0,7,,,,,,,,,,,,,,,,10,,79,0
8790,note_on,,1,0,7,,,,,,,,,,,,,,,,10,,81,48
8819,note_on,,59,0,9,,,,,,,,,,,,,,,,12,,62,0
8819,note_on,,59,0,5,,,,,,,,,,,,,,,,2,,47,0
8819,note_on,,29,0,7,,,,,,,,,,,,,,,,10,,81,0
8819,note_on,,59,0,11,,,,,,,,,,,,,,,,15,,47,0
8819,note_on,,59,0,8,,,,,,,,,,,,,,,,11,,74,0
8819,note_on,,59,0,10,,,,,,,,,,,,,,,,13,,47,0
8820,note_on,,1,0,10,,,,,,,,,,,,,,,,13,,47,48
8820,note_on,,1,0,7,,,,,,,,,,,,,,,,10,,79,48
8820,note_on,,1,0,9,,,,,,,,,,,,,,,,12,,62,48
8820,note_on,,1,0,11,,,,,,,,,,,,,,,,15,,47,48
8820,note_on,,1,0,5,,,,,,,,,,,,,,,,2,,47,48
8820,note_on,,1,0,8,,,,,,,,,,,,,,,,11,,74,48
8849,note_on,,29,0,7,,,,,,,,,,,,,,,,10,,79,0
8850,note_on,,1,0,7,,,,,,,,,,,,,,,,10,,81,48
8879,note_on,,0,0,11,,,,,,,,,,,,,,,,15,,55,0
8879,note_on,,29,0,7,,,,,,,,,,,,,,,,10,,81,0
8879,note_on,,59,0,5,,,,,,,,,,,,,,,,2,,47,0
8879,note_on,,119,0,6,,,,,,,,,,,,,,,,8,,55,0
8879,note_on,,59,0,11,,,,,,,,,,,,,,,,15,,67,0
8879,note_on,,0,0,11,,,,,,,,,,,,,,,,15,,62,0
8879,note_on,,0,0,11,,,,,,,,,,,,,,,,15,,47,0
8879,note_on,,59,0,9,,,,,,,,,,,,,,,,12,,62,0
8879,note_on,,59,0,10,,,,,,,,,,,,,,,,13,,47,0
8879,note_on,,59,0,8,,,,,,,,,,,,,,,,11,,74,0
8880,note_on,,0,0,11,,,,,,,,,,,,,,,,15,,60,48
8880,note_on,,0,0,11,,,,,,,,,,,,,,,,15,,69,48
8880,note_on,,0,0,11,,,,,,,,,,,,,,,,15,,67,48
8880,note_on,,0,0,11,,,,,,,,,,,,,,,,15,,64,48
8880,note_on,,1,0,5,,,,,,,,,,,,,,,,2,,45,48
8880,note_on,,1,0,9,,,,,,,,,,,,,,,,12,,52,48
8880,note_on,,1,0,8,,,,,,,,,,,,,,,,11,,72,48
8880,note_on,,1,0,10,,,,,,,,,,,,,,,,13,,45,48
8880,note_on,,1,0,7,,,,,,,,,,,,,,,,10,,79,48
8880,note_on,,1,0,11,,,,,,,,,,,,,,,,15,,45,48
8880,note_on,,1,0,6,,,,,,,,,,,,,,,,8,,57,72
8909,note_on,,29,0,7,,,,,,,,,,,,,,,,10,,79,0
8910,note_on,,1,0,7,,,,,,,,,,,,,,,,10,,81,48
8939,note_on,,59,0,5,,,,,,,,,,,,,,,,2,,45,0
8939,note_on,,29,0,7,,,,,,,,,,,,,,,,10,,81,0
8939,note_on,,59,0,9,,,,,,,,,,,,,,,,12,,52,0
8939,note_on,,59,0,8,,,,,,,,,,,,,,,,11,,72,0
8939,note_on,,59,0,10,,,,,,,,,,,,,,,,13,,45,0
8939,note_on,,59,0,11,,,,,,,,,,,,,,,,15,,45,0
8940,note_on,,1,0,8,,,,,,,,,,,,,,,,11,,72,48
8940,note_on,,1,0,10,,,,,,,,,,,,,,,,13,,45,48
8940,note_on,,1,0,7,,,,,,,,,,,,,,,,10,,79,48
8940,note_on,,1,0,9,,,,,,,,,,,,,,,,12,,52,48
8940,note_on,,1,0,5,,,,,,,,,,,,,,,,2,,45,48
8940,note_on,,1,0,11,,,,,,,,,,,,,,,,15,,45,48
8969,note_on,,29,0,7,,,,,,,,,,,,,,,,10,,79,0
8970,note_on,,1,0,7,,,,,,,,,,,,,,,,10,,81,48
8999,note_on,,119,0,6,,,,,,,,,,,,,,,,8,,57,0
8999,note_on,,0,0,11,,,,,,,,,,,,,,,,15,,60,0
8999,note_on,,0,0,11,,,,,,,,,,,,,,,,15,,64,0
8999,note_on,,59,0,11,,,,,,,,,,,,,,,,15,,67,0
8999,note_on,,59,0,9,,,,,,,,,,,,,,,,12,,52,0
8999,note_on,,0,0,11,,,,,,,,,,,,,,,,15,,45,0
8999,note_on,,29,0,7,,,,,,,,,,,,,,,,10,,81,0
8999,note_on,,59,0,10,,,,,,,,,,,,,,,,13,,45,0
8999,note_on,,59,0,5,,,,,,,,,,,,,,,,2,,45,0
8999,note_on,,59,0,8,,,,,,,,,,,,,,,,11,,72,0
9000,note_on,,1,0,5,,,,,,,,,,,,,,,,2,,50,48
9000,note_on,,0,0,11,,,,,,,,,,,,,,,,15,,57,48
9000,note_on,,1,0,11,,,,,,,,,,,,,,,,15,,50,48
9000,note_on,,0,0,11,,,,,,,,,,,,,,,,15,,66,48
9000,note_on,,1,0,10,,,,,,,,,,,,,,,,13,,50,48
9000,note_on,,0,0,11,,,,,,,,,,,,,,,,15,,62,48
9000,note_on,,1,0,9,,,,,,,,,,,,,,,,12,,50,48
9000,note_on,,1,0,6,,,,,,,,,,,,,,,,8,,57,72
9000,note_on,,1,0,8,,,,,,,,,,,,,,,,11,,69,48
9000,note_on,,1,0,7,,,,,,,,,,,,,,,,10,,78,48
9029,note_on,,29,0,7,,,,,,,,,,,,,,,,10,,78,0
9030,note_on,,1,0,7,,,,,,,,,,,,,,,,10,,79,48
9059,note_on,,59,0,8,,,,,,,,,,,,,,,,11,,69,0
9059,note_on,,29,0,7,,,,,,,,,,,,,,,,10,,79,0
9059,note_on,,59,0,10,,,,,,,,,,,,,,,,13,,50,0
9059,note_on,,59,0,11,,,,,,,,,,,,,,,,15,,50,0
9059,note_on,,59,0,5,,,,,,,,,,,,,,,,2,,50,0
9059,note_on,,59,0,6,,,,,,,,,,,,,,,,8,,57,0
9059,note_on,,59,0,9,,,,,,,,,,,,,,,,12,,50,0
9060,note_on,,1,0,6,,,,,,,,,,,,,,,,8,,60,72
9060,note_on,,1,0,10,,,,,,,,,,,,,,,,13,,50,48
9060,note_on,,1,0,5,,,,,,,,,,,,,,,,2,,50,48
9060,note_on,,1,0,11,,,,,,,,,,,,,,,,15,,50,48
9060,note_on,,1,0,8,,,,,,,,,,,,,,,,11,,69,48
9060,note_on,,1,0,7,,,,,,,,,,,,,,,,10,,78,48
9060,note_on,,1,0,9,,,,,,,,,,,,,,,,12,,62,48
9089,note_on,,29,0,7,,,,,,,,,,,,,,,,10,,78,0
9090,note_on,,1,0,7,,,,,,,,,,,,,,,,10,,81,48
9119,note_on,,59,0,11,,,,,,,,,,,,,,,,15,,69,0
9119,note_on,,0,0,11,,,,,,,,,,,,,,,,15,,57,0
9119,note_on,,0,0,11,,,,,,,,,,,,,,,,15,,50,0
9119,note_on,,59,0,10,,,,,,,,,,,,,,,,13,,50,0
9119,note_on,,59,0,8,,,,,,,,,,,,,,,,11,,69,0
9119,note_on,,29,0,7,,,,,,,,,,,,,,,,10,,81,0
9119,note_on,,59,0,6,,,,,,,,,,,,,,,,8,,60,0
9119,note_on,,59,0,9,,,,,,,,,,,,,,,,12,,62,0
9119,note_on,,0,0,11,,,,,,,,,,,,,,,,15,,66,0
9119,note_on,,59,0,5,,,,,,,,,,,,,,,,2,,50,0
9119,note_on,,0,0,11,,,,,,,,,,,,,,,,15,,62,0
9120,note_on,,1,0,7,,,,,,,,,,,,,,,,10,,79,48
9120,note_on,,1,0,5,,,,,,,,,,,,,,,,2,,55,48
9120,note_on,,1,0,9,,,,,,,,,,,,,,,,12,,62,48
9120,note_on,,1,0,8,,,,,,,,,,,,,,,,11,,71,48
9120,note_on,,1,0,11,,,,,,,,,,,,,,,,15,,55,48
9120,note_on,,1,0,10,,,,,,,,,,,,,,,,13,,55,48
9120,note_on,,0,0,11,,,,,,,,,,,,,,,,15,,59,48
9120,note_on,,0,0,11,,,,,,,,,,,,,,,,15,,62,48
9120,note_on,,0,0,11,,,,,,,,,,,,,,,,15,,67,48
9120,note_on,,1,0,6,,,,,,,,,,,,,,,,8,,59,72
9149,note_on,,29,0,8,,,,,,,,,,,,,,,,11,,71,0
9149,note_on,,29,0,7,,,,,,,,,,,,,,,,10,,79,0
9149,note_on,,29,0,9,,,,,,,,,,,,,,,,12,,62,0
9150,note_on,,1,0,7,,,,,,,,,,,,,,,,10,,79,48
9150,note_on,,1,0,8,,,,,,,,,,,,,,,,11,,71,48
9150,note_on,,1,0,9,,,,,,,,,,,,,,,,12,,62,48
9179,note_on,,29,0,7,,,,,,,,,,,,,,,,10,,79,0
9179,note_on,,59,0,10,,,,,,,,,,,,,,,,13,,55,0
9179,note_on,,29,0,8,,,,,,,,,,,,,,,,11,,71,0
9179,note_on,,29,0,9,,,,,,,,,,,,,,,,12,,62,0
9179,note_on,,59,0,5,,,,,,,,,,,,,,,,2,,55,0
9179,note_on,,59,0,11,,,,,,,,,,,,,,,,15,,55,0
9180,note_on,,1,0,9,,,,,,,,,,,,,,,,12,,62,48
9180,note_on,,1,0,10,,,,,,,,,,,,,,,,13,,55,48
9180,note_on,,1,0,11,,,,,,,,,,,,,,,,15,,55,48
9180,note_on,,1,0,8,,,,,,,,,,,,,,,,11,,71,48
9180,note_on,,1,0,5,,,,,,,,,,,,,,,,2,,55,48
9180,note_on,,1,0,7,,,,,,,,,,,,,,,,10,,74,48
9209,note_on,,29,0,8,,,,,,,,,,,,,,,,11,,71,0
9209,note_on,,29,0,9,,,,,,,,,,,,,,,,12,,62,0
9209,note_on,,29,0,7,,,,,,,,,,,,,,,,10,,74,0
9210,note_on,,1,0,7,,,,,,,,,,,,,,,,10,,74,48
9210,note_on,,1,0,8,,,,,,,,,,,,,,,,11,,71,48
9210,note_on,,1,0,9,,,,,,,,,,,,,,,,12,,62,48
9239,note_on,,29,0,8,,,,,,,,,,,,,,,,11,,71,0
9239,note_on,,59,0,5,,,,,,,,,,,,,,,,2,,55,0
9239,note_on,,29,0,7,,,,,,,,,,,,,,,,10,,74,0
9239,note_on,,29,0,9,,,,,,,,,,,,,,,,12,,62,0
9239,note_on,,119,0,6,,,,,,,,,,,,,,,,8,,59,0
9239,note_on,,59,0,10,,,,,,,,,,,,,,,,13,,55,0
9239,note_on,,59,0,11,,,,,,,,,,,,,,,,15,,55,0
9240,note_on,,1,0,8,,,,,,,,,,,,,,,,11,,72,48
9240,note_on,,1,0,11,,,,,,,,,,,,,,,,15,,55,48
9240,note_on,,1,0,10,,,,,,,,,,,,,,,,13,,55,48
9240,note_on,,1,0,6,,,,,,,,,,,,,,,,8,,55,72
9240,note_on,,1,0,9,,,,,,,,,,,,,,,,12,,55,48
9240,note_on,,1,0,7,,,,,,,,,,,,,,,,10,,76,48
9240,note_on,,1,0,5,,,,,,,,,,,,,,,,2,,55,48
9269,note_on,,29,0,8,,,,,,,,,,,,,,,,11,,72,0
9269,note_on,,29,0,7,,,,,,,,,,,,,,,,10,,76,0
9269,note_on,,29,0,9,,,,,,,,,,,,,,,,12,,55,0
9270,note_on,,1,0,9,,,,,,,,,,,,,,,,12,,55,48
9270,note_on,,1,0,8,,,,,,,,,,,,,,,,11,,72,48
9270,note_on,,1,0,7,,,,,,,,,,,,,,,,10,,76,48
9299,note_on,,29,0,8,,,,,,,,,,,,,,,,11,,72,0
9299,note_on,,59,0,5,,,,,,,,,,,,,,,,2,,55,0
9299,note_on,,29,0,9,,,,,,,,,,,,,,,,12,,55,0
9299,note_on,,29,0,7,,,,,,,,,,,,,,,,10,,76,0
9299,note_on,,59,0,11,,,,,,,,,,,,,,,,15,,55,0
9299,note_on,,59,0,10,,,,,,,,,,,,,,,,13,,55,0
9300,note_on,,1,0,7,,,,,,,,,,,,,,,,10,,78,48
9300,note_on,,1,0,10,,,,,,,,,,,,,,,,13,,55,48
9300,note_on,,1,0,11,,,,,,,,,,,,,,,,15,,55,48
9300,note_on,,1,0,8,,,,,,,,,,,,,,,,11,,69,48
9300,note_on,,1,0,5,,,,,,,,,,,,,,,,2,,55,48
9300,note_on,,1,0,9,,,,,,,,,,,,,,,,12,,55,48
9329,note_on,,29,0,8,,,,,,,,,,,,,,,,11,,69,0
9329,note_on,,29,0,9,,,,,,,,,,,,,,,,12,,55,0
9329,note_on,,29,0,7,,,,,,,,,,,,,,,,10,,78,0
9330,note_on,,1,0,7,,,,,,,,,,,,,,,,10,,78,48
9330,note_on,,1,0,9,,,,,,,,,,,,,,,,12,,55,48
9330,note_on,,1,0,8,,,,,,,,,,,,,,,,11,,69,48
9359,note_on,,119,0,6,,,,,,,,,,,,,,,,8,,55,0
9359,note_on,,0,0,11,,,,,,,,,,,,,,,,15,,62,0
9359,note_on,,0,0,11,,,,,,,,,,,,,,,,15,,59,0
9359,note_on,,29,0,8,,,,,,,,,,,,,,,,11,,69,0
9359,note_on,,29,0,7,,,,,,,,,,,,,,,,10,,78,0
9359,note_on,,59,0,11,,,,,,,,,,,,,,,,15,,67,0
9359,note_on,,59,0,5,,,,,,,,,,,,,,,,2,,55,0
9359,note_on,,0,0,11,,,,,,,,,,,,,,,,15,,55,0
9359,note_on,,59,0,10,,,,,,,,,,,,,,,,13,,55,0
9359,note_on,,29,0,9,,,,,,,,,,,,,,,,12,,55,0
9360,note_on,,1,0,6,,,,,,,,,,,,,,,,8,,59,72
9360,note_on,,1,0,10,,,,,,,,,,,,,,,,13,,52,48
9360,note_on,,1,0,8,,,,,,,,,,,,,,,,11,,67,48
9360,note_on,,0,0,11,,,,,,,,,,,,,,,,15,,76,48
9360,note_on,,1,0,11,,,,,,,,,,,,,,,,15,,52,48
9360,note_on,,0,0,11,,,,,,,,,,,,,,,,15,,67,48
9360,note_on,,0,0,11,,,,,,,,,,,,,,,,15,,71,48
9360,note_on,,1,0,7,,,,,,,,,,,,,,,,10,,79,48
9360,note_on,,1,0,9,,,,,,,,,,,,,,,,12,,55,48
9360,note_on,,1,0,5,,,,,,,,,,,,,,,,2,,52,48
9389,note_on,,29,0,7,,,,,,,,,,,,,,,,10,,79,0
9389,note_on,,29,0,8,,,,,,,,,,,,,,,,11,,67,0
9389,note_on,,29,0,9,,,,,,,,,,,,,,,,12,,55,0
9390,note_on,,1,0,7,,,,,,,,,,,,,,,,10,,67,48
9390,note_on,,1,0,9,,,,,,,,,,,,,,,,12,,55,48
9390,note_on,,1,0,8,,,,,,,,,,,,,,,,11,,67,48
9419,note_on,,59,0,10,,,,,,,,,,,,,,,,13,,52,0
9419,note_on,,29,0,8,,,,,,,,,,,,,,,,11,,67,0
9419,note_on,,59,0,11,,,,,,,,,,,,,,,,15,,52,0
9419,note_on,,29,0,9,,,,,,,,,,,,,,,,12,,55,0
9419,note_on,,59,0,5,,,,,,,,,,,,,,,,2,,52,0
9419,note_on,,29,0,7,,,,,,,,,,,,,,,,10,,67,0
9420,note_on,,1,0,11,,,,,,,,,,,,,,,,15,,52,48
9420,note_on,,1,0,10,,,,,,,,,,,,,,,,13,,52,48
9420,note_on,,1,0,9,,,,,,,,,,,,,,,,12,,55,48
9420,note_on,,1,0,7,,,,,,,,,,,,,,,,10,,67,48
9420,note_on,,1,0,5,,,,,,,,,,,,,,,,2,,52,48
9420,note_on,,1,0,8,,,,,,,,,,,,,,,,11,,67,48
9449,note_on,,29,0,9,,,,,,,,,,,,,,,,12,,55,0
9449,note_on,,29,0,8,,,,,,,,,,,,,,,,11,,67,0
9449,note_on,,29,0,7,,,,,,,,,,,,,,,,10,,67,0
9450,note_on,,1,0,7,,,,,,,,,,,,,,,,10,,67,48
9450,note_on,,1,0,9,,,,,,,,,,,,,,,,12,,55,48
9450,note_on,,1,0,8,,,,,,,,,,,,,,,,11,,67,48
9479,note_on,,0,0,11,,,,,,,,,,,,,,,,15,,52,0
9479,note_on,,59,0,10,,,,,,,,,,,,,,,,13,,52,0
9479,note_on,,29,0,7,,,,,,,,,,,,,,,,10,,67,0
9479,note_on,,29,0,9,,,,,,,,,,,,,,,,12,,55,0
9479,note_on,,0,0,11,,,,,,,,,,,,,,,,15,,71,0
9479,note_on,,29,0,8,,,,,,,,,,,,,,,,11,,67,0
9479,note_on,,59,0,5,,,,,,,,,,,,,,,,2,,52,0
9479,note_on,,59,0,11,,,,,,,,,,,,,,,,15,,76,0
9479,note_on,,119,0,6,,,,,,,,,,,,,,,,8,,59,0
9479,note_on,,0,0,11,,,,,,,,,,,,,,,,15,,67,0
9480,note_on,,1,0,11,,,,,,,,,,,,,,,,15,,52,48
9480,note_on,,0,0,11,,,,,,,,,,,,,,,,15,,67,48
9480,note_on,,0,0,11,,,,,,,,,,,,,,,,15,,64,48
9480,note_on,,1,0,10,,,,,,,,,,,,,,,,13,,52,48
9480,note_on,,1,0,9,,,,,,,,,,,,,,,,12,,61,48
9480,note_on,,0,0,11,,,,,,,,,,,,,,,,15,,61,48
9480,note_on,,1,0,7,,,,,,,,,,,,,,,,10,,67,48
9480,note_on,,1,0,6,,,,,,,,,,,,,,,,8,,61,72
9480,note_on,,0,0,11,,,,,,,,,,,,,,,,15,,55,48
9480,note_on,,1,0,5,,,,,,,,,,,,,,,,2,,52,48
9480,note_on,,1,0,8,,,,,,,,,,,,,,,,11,,67,48
9509,note_on,,29,0,7,,,,,,,,,,,,,,,,10,,67,0
9509,note_on,,29,0,9,,,,,,,,,,,,,,,,12,,61,0
9509,note_on,,29,0,8,,,,,,,,,,,,,,,,11,,67,0
9510,note_on,,1,0,7,,,,,,,,,,,,,,,,10,,67,48
9510,note_on,,1,0,9,,,,,,,,,,,,,,,,12,,61,48
9510,note_on,,1,0,8,,,,,,,,,,,,,,,,11,,67,48
9539,note_on,,29,0,8,,,,,,,,,,,,,,,,11,,67,0
9539,note_on,,29,0,7,,,,,,,,,,,,,,,,10,,67,0
9539,note_on,,29,0,9,,,,,,,,,,,,,,,,12,,61,0
9539,note_on,,59,0,10,,,,,,,,,,,,,,,,13,,52,0
9539,note_on,,59,0,11,,,,,,,,,,,,,,,,15,,52,0
9539,note_on,,59,0,5,,,,,,,,,,,,,,,,2,,52,0
9540,note_on,,1,0,8,,,,,,,,,,,,,,,,11,,67,48
9540,note_on,,1,0,5,,,,,,,,,,,,,,,,2,,52,48
9540,note_on,,1,0,9,,,,,,,,,,,,,,,,12,,61,48
9540,note_on,,1,0,10,,,,,,,,,,,,,,,,13,,52,48
9540,note_on,,1,0,7,,,,,,,,,,,,,,,,10,,67,48
9540,note_on,,1,0,11,,,,,,,,,,,,,,,,15,,52,48
9569,note_on,,29,0,9,,,,,,,,,,,,,,,,12,,61,0
9569,note_on,,29,0,8,,,,,,,,,,,,,,,,11,,67,0
9569,note_on,,29,0,7,,,,,,,,,,,,,,,,10,,67,0
9570,note_on,,1,0,9,,,,,,,,,,,,,,,,12,,61,48
9570,note_on,,1,0,8,,,,,,,,,,,,,,,,11,,67,48
9570,note_on,,1,0,7,,,,,,,,,,,,,,,,10,,67,48
9599,note_on,,29,0,9,,,,,,,,,,,,,,,,12,,61,0
9599,note_on,,59,0,10,,,,,,,,,,,,,,,,13,,52,0
9599,note_on,,59,0,5,,,,,,,,,,,,,,,,2,,52,0
9599,note_on,,29,0,8,,,,,,,,,,,,,,,,11,,67,0
9599,note_on,,119,0,6,,,,,,,,,,,,,,,,8,,61,0
9599,note_on,,59,0,11,,,,,,,,,,,,,,,,15,,67,0
9599,note_on,,29,0,7,,,,,,,,,,,,,,,,10,,67,0
9599,note_on,,0,0,11,,,,,,,,,,,,,,,,15,,61,0
9599,note_on,,0,0,11,,,,,,,,,,,,,,,,15,,55,0
9599,note_on,,0,0,11,,,,,,,,,,,,,,,,15,,52,0
9599,note_on,,0,0,11,,,,,,,,,,,,,,,,15,,64,0
9600,note_on,,0,0,11,,,,,,,,,,,,,,,,15,,57,48
9600,note_on,,0,0,11,,,,,,,,,,,,,,,,15,,62,48
9600,note_on,,1,0,5,,,,,,,,,,,,,,,,2,,50,48
9600,note_on,,1,0,9,,,,,,,,,,,,,,,,12,,57,48
9600,note_on,,1,0,8,,,,,,,,,,,,,,,,11,,62,48
9600,note_on,,0,0,11,,,,,,,,,,,,,,,,15,,66,48
9600,note_on,,1,0,7,,,,,,,,,,,,,,,,10,,66,48
9600,note_on,,1,0,10,,,,,,,,,,,,,,,,13,,50,48
9600,note_on,,1,0,6,,,,,,,,,,,,,,,,8,,62,72
9600,note_on,,1,0,11,,,,,,,,,,,,,,,,15,,50,48
9629,note_on,,29,0,9,,,,,,,,,,,,,,,,12,,57,0
9629,note_on,,29,0,7,,,,,,,,,,,,,,,,10,,66,0
9629,note_on,,29,0,8,,,,,,,,,,,,,,,,11,,62,0
9630,note_on,,1,0,8,,,,,,,,,,,,,,,,11,,62,48
9630,note_on,,1,0,9,,,,,,,,,,,,,,,,12,,57,48
9630,note_on,,1,0,7,,,,,,,,,,,,,,,,10,,66,48
9659,note_on,,59,0,10,,,,,,,,,,,,,,,,13,,50,0
9659,note_on,,59,0,5,,,,,,,,,,,,,,,,2,,50,0
9659,note_on,,29,0,7,,,,,,,,,,,,,,,,10,,66,0
9659,note_on,,29,0,8,,,,,,,,,,,,,,,,11,,62,0
9659,note_on,,59,0,11,,,,,,,,,,,,,,,,15,,50,0
9659,note_on,,29,0,9,,,,,,,,,,,,,,,,12,,57,0
9660,note_on,,1,0,10,,,,,,,,,,,,,,,,13,,50,48
9660,note_on,,1,0,5,,,,,,,,,,,,,,,,2,,50,48
9660,note_on,,1,0,11,,,,,,,,,,,,,,,,15,,50,48
9660,note_on,,1,0,8,,,,,,,,,,,,,,,,11,,66,48
9660,note_on,,1,0,7,,,,,,,,,,,,,,,,10,,69,48
9660,note_on,,1,0,9,,,,,,,,,,,,,,,,12,,57,48
9689,note_on,,29,0,7,,,,,,,,,,,,,,,,10,,69,0
9689,note_on,,29,0,8,,,,,,,,,,,,,,,,11,,66,0
9689,note_on,,29,0,9,,,,,,,,,,,,,,,,12,,57,0
9690,note_on,,1,0,7,,,,,,,,,,,,,,,,10,,69,48
9690,note_on,,1,0,9,,,,,,,,,,,,,,,,12,,57,48
9690,note_on,,1,0,8,,,,,,,,,,,,,,,,11,,66,48
9719,note_on,,29,0,8,,,,,,,,,,,,,,,,11,,66,0
9719,note_on,,29,0,9,,,,,,,,,,,,,,,,12,,57,0
9719,note_on,,59,0,5,,,,,,,,,,,,,,,,2,,50,0
9719,note_on,,59,0,11,,,,,,,,,,,,,,,,15,,50,0
9719,note_on,,29,0,7,,,,,,,,,,,,,,,,10,,69,0
9719,note_on,,59,0,10,,,,,,,,,,,,,,,,13,,50,0
9720,note_on,,1,0,9,,,,,,,,,,,,,,,,12,,55,48
9720,note_on,,1,0,11,,,,,,,,,,,,,,,,15,,50,48
9720,note_on,,1,0,7,,,,,,,,,,,,,,,,10,,71,48
9720,note_on,,1,0,8,,,,,,,,,,,,,,,,11,,67,48
9720,note_on,,1,0,10,,,,,,,,,,,,,,,,13,,50,48
9720,note_on,,1,0,5,,,,,,,,,,,,,,,,2,,50,48
9749,note_on,,29,0,8,,,,,,,,,,,,,,,,11,,67,0
9749,note_on,,29,0,7,,,,,,,,,,,,,,,,10,,71,0
9749,note_on,,29,0,9,,,,,,,,,,,,,,,,12,,55,0
9750,note_on,,1,0,7,,,,,,,,,,,,,,,,10,,71,48
9750,note_on,,1,0,9,,,,,,,,,,,,,,,,12,,55,48
9750,note_on,,1,0,8,,,,,,,,,,,,,,,,11,,67,48
9779,note_on,,29,0,7,,,,,,,,,,,,,,,,10,,71,0
9779,note_on,,29,0,9,,,,,,,,,,,,,,,,12,,55,0
9779,note_on,,59,0,11,,,,,,,,,,,,,,,,15,,50,0
9779,note_on,,59,0,10,,,,,,,,,,,,,,,,13,,50,0
9779,note_on,,29,0,8,,,,,,,,,,,,,,,,11,,67,0
9779,note_on,,59,0,5,,,,,,,,,,,,,,,,2,,50,0
9780,note_on,,1,0,5,,,,,,,,,,,,,,,,2,,50,48
9780,note_on,,1,0,7,,,,,,,,,,,,,,,,10,,73,48
9780,note_on,,1,0,11,,,,,,,,,,,,,,,,15,,50,48
9780,note_on,,1,0,10,,,,,,,,,,,,,,,,13,,50,48
9780,note_on,,1,0,9,,,,,,,,,,,,,,,,12,,55,48
9780,note_on,,1,0,8,,,,,,,,,,,,,,,,11,,64,48
9809,note_on,,29,0,9,,,,,,,,,,,,,,,,12,,55,0
9809,note_on,,29,0,8,,,,,,,,,,,,,,,,11,,64,0
9809,note_on,,29,0,7,,,,,,,,,,,,,,,,10,,73,0
9810,note_on,,1,0,7,,,,,,,,,,,,,,,,10,,73,48
9810,note_on,,1,0,8,,,,,,,,,,,,,,,,11,,64,48
9810,note_on,,1,0,9,,,,,,,,,,,,,,,,12,,55,48
9839,note_on,,59,0,11,,,,,,,,,,,,,,,,15,,50,0
9839,note_on,,29,0,8,,,,,,,,,,,,,,,,11,,64,0
9839,note_on,,59,0,5,,,,,,,,,,,,,,,,2,,50,0
9839,note_on,,29,0,9,,,,,,,,,,,,,,,,12,,55,0
9839,note_on,,29,0,7,,,,,,,,,,,,,,,,10,,73,0
9839,note_on,,59,0,10,,,,,,,,,,,,,,,,13,,50,0
9839,note_on,,239,0,6,,,,,,,,,,,,,,,,8,,62,0
9840,note_on,,1,0,7,,,,,,,,,,,,,,,,10,,74,48
9840,note_on,,1,0,5,,,,,,,,,,,,,,,,2,,50,48
9840,note_on,,1,0,11,,,,,,,,,,,,,,,,15,,50,48
9840,note_on,,1,0,10,,,,,,,,,,,,,,,,13,,50,48
9840,note_on,,1,0,9,,,,,,,,,,,,,,,,12,,57,48
9840,note_on,,1,0,8,,,,,,,,,,,,,,,,11,,66,48
9869,note_on,,29,0,7,,,,,,,,,,,,,,,,10,,74,0
9869,note_on,,29,0,8,,,,,,,,,,,,,,,,11,,66,0
9869,note_on,,29,0,9,,,,,,,,,,,,,,,,12,,57,0
9870,note_on,,1,0,7,,,,,,,,,,,,,,,,10,,62,48
9870,note_on,,1,0,9,,,,,,,,,,,,,,,,12,,57,48
9870,note_on,,1,0,8,,,,,,,,,,,,,,,,11,,66,48
9899,note_on,,29,0,7,,,,,,,,,,,,,,,,10,,62,0
9899,note_on,,59,0,5,,,,,,,,,,,,,,,,2,,50,0
9899,note_on,,29,0,9,,,,,,,,,,,,,,,,12,,57,0
9899,note_on,,59,0,10,,,,,,,,,,,,,,,,13,,50,0
9899,note_on,,29,0,8,,,,,,,,,,,,,,,,11,,66,0
9899,note_on,,59,0,11,,,,,,,,,,,,,,,,15,,50,0
9900,note_on,,1,0,10,,,,,,,,,,,,,,,,13,,50,48
9900,note_on,,1,0,7,,,,,,,,,,,,,,,,10,,62,48
9900,note_on,,1,0,8,,,,,,,,,,,,,,,,11,,66,48
9900,note_on,,1,0,11,,,,,,,,,,,,,,,,15,,50,48
9900,note_on,,1,0,9,,,,,,,,,,,,,,,,12,,57,48
9900,note_on,,1,0,5,,,,,,,,,,,,,,,,2,,50,48
9929,note_on,,29,0,8,,,,,,,,,,,,,,,,11,,66,0
9929,note_on,,29,0,9,,,,,,,,,,,,,,,,12,,57,0
9929,note_on,,29,0,7,,,,,,,,,,,,,,,,10,,62,0
9930,note_on,,1,0,8,,,,,,,,,,,,,,,,11,,66,48
9930,note_on,,1,0,9,,,,,,,,,,,,,,,,12,,57,48
9930,note_on,,1,0,7,,,,,,,,,,,,,,,,10,,62,48
9959,note_on,,29,0,9,,,,,,,,,,,,,,,,12,,57,0
9959,note_on,,59,0,11,,,,,,,,,,,,,,,,15,,66,0
9959,note_on,,59,0,10,,,,,,,,,,,,,,,,13,,50,0
9959,note_on,,0,0,11,,,,,,,,,,,,,,,,15,,62,0
9959,note_on,,0,0,11,,,,,,,,,,,,,,,,15,,57,0
9959,note_on,,0,0,11,,,,,,,,,,,,,,,,15,,50,0
9959,note_on,,29,0,8,,,,,,,,,,,,,,,,11,,66,0
9959,note_on,,59,0,5,,,,,,,,,,,,,,,,2,,50,0
9959,note_on,,29,0,7,,,,,,,,,,,,,,,,10,,62,0
9960,note_on,,1,0,11,,,,,,,,,,,,,,,,15,,48,48
9960,note_on,,1,0,8,,,,,,,,,,,,,,,,11,,66,48
9960,note_on,,1,0,5,,,,,,,,,,,,,,,,2,,48,48
9960,note_on,,1,0,7,,,,,,,,,,,,,,,,10,,62,48
9960,note_on,,0,0,11,,,,,,,,,,,,,,,,15,,69,48
9960,note_on,,0,0,11,,,,,,,,,,,,,,,,15,,57,48
9960,note_on,,1,0,9,,,,,,,,,,,,,,,,12,,57,48
9960,note_on,,0,0,11,,,,,,,,,,,,,,,,15,,62,48
9960,note_on,,0,0,11,,,,,,,,,,,,,,,,15,,66,48
9960,note_on,,121,0,6,,,,,,,,,,,,,,,,8,,50,72
9960,note_on,,1,0,10,,,,,,,,,,,,,,,,13,,48,48
9989,note_on,,29,0,9,,,,,,,,,,,,,,,,12,,57,0
9989,note_on,,29,0,7,,,,,,,,,,,,,,,,10,,62,0
9989,note_on,,29,0,8,,,,,,,,,,,,,,,,11,,66,0
9990,note_on,,1,0,8,,,,,,,,,,,,,,,,11,,66,48
9990,note_on,,1,0,9,,,,,,,,,,,,,,,,12,,57,48
9990,note_on,,1,0,7,,,,,,,,,,,,,,,,10,,62,48
10019,note_on,,59,0,5,,,,,,,,,,,,,,,,2,,48,0
10019,note_on,,59,0,11,,,,,,,,,,,,,,,,15,,48,0
10019,note_on,,29,0,7,,,,,,,,,,,,,,,,10,,62,0
10019,note_on,,29,0,8,,,,,,,,,,,,,,,,11,,66,0
10019,note_on,,29,0,9,,,,,,,,,,,,,,,,12,,57,0
10019,note_on,,59,0,10,,,,,,,,,,,,,,,,13,,48,0
10020,note_on,,1,0,7,,,,,,,,,,,,,,,,10,,62,48
10020,note_on,,1,0,11,,,,,,,,,,,,,,,,15,,48,48
10020,note_on,,1,0,10,,,,,,,,,,,,,,,,13,,48,48
10020,note_on,,1,0,9,,,,,,,,,,,,,,,,12,,57,48
10020,note_on,,1,0,8,,,,,,,,,,,,,,,,11,,66,48
10020,note_on,,1,0,5,,,,,,,,,,,,,,,,2,,48,48
10049,note_on,,29,0,8,,,,,,,,,,,,,,,,11,,66,0
10049,note_on,,29,0,7,,,,,,,,,,,,,,,,10,,62,0
10049,note_on,,29,0,9,,,,,,,,,,,,,,,,12,,57,0
10050,note_on,,1,0,9,,,,,,,,,,,,,,,,12,,57,48
10050,note_on,,1,0,8,,,,,,,,,,,,,,,,11,,66,48
10050,note_on,,1,0,7,,,,,,,,,,,,,,,,10,,62,48
10079,note_on,,119,0,6,,,,,,,,,,,,,,,,8,,50,0
10079,note_on,,29,0,9,,,,,,,,,,,,,,,,12,,57,0
10079,note_on,,59,0,11,,,,,,,,,,,,,,,,15,,69,0
10079,note_on,,0,0,11,,,,,,,,,,,,,,,,15,,66,0
10079,note_on,,59,0,10,,,,,,,,,,,,,,,,13,,48,0
10079,note_on,,0,0,11,,,,,,,,,,,,,,,,15,,62,0
10079,note_on,,0,0,11,,,,,,,,,,,,,,,,15,,48,0
10079,note_on,,29,0,7,,,,,,,,,,,,,,,,10,,62,0
10079,note_on,,0,0,11,,,,,,,,,,,,,,,,15,,57,0
10079,note_on,,29,0,8,,,,,,,,,,,,,,,,11,,66,0
10079,note_on,,59,0,5,,,,,,,,,,,,,,,,2,,48,0
10080,note_on,,1,0,8,,,,,,,,,,,,,,,,11,,62,48
10080,note_on,,1,0,6,,,,,,,,,,,,,,,,8,,55,72
10080,note_on,,1,0,7,,,,,,,,,,,,,,,,10,,62,48
10080,note_on,,1,0,5,,,,,,,,,,,,,,,,2,,47,48
10080,note_on,,0,0,11,,,,,,,,,,,,,,,,15,,59,48
10080,note_on,,0,0,11,,,,,,,,,,,,,,,,15,,62,48
10080,note_on,,0,0,11,,,,,,,,,,,,,,,,15,,67,48
10080,note_on,,1,0,11,,,,,,,,,,,,,,,,15,,47,48
10080,note_on,,1,0,10,,,,,,,,,,,,,,,,13,,47,48
10080,note_on,,1,0,9,,,,,,,,,,,,,,,,12,,62,48
10109,note_on,,29,0,9,,,,,,,,,,,,,,,,12,,62,0
10109,note_on,,29,0,8,,,,,,,,,,,,,,,,11,,62,0
10109,note_on,,29,0,7,,,,,,,,,,,,,,,,10,,62,0
10110,note_on,,1,0,7,,,,,,,,,,,,,,,,10,,62,48
10110,note_on,,1,0,8,,,,,,,,,,,,,,,,11,,62,48
10110,note_on,,1,0,9,,,,,,,,,,,,,,,,12,,62,48
10139,note_on,,29,0,9,,,,,,,,,,,,,,,,12,,62,0
10139,note_on,,29,0,8,,,,,,,,,,,,,,,,11,,62,0
10139,note_on,,29,0,7,,,,,,,,,,,,,,,,10,,62,0
10139,note_on,,59,0,11,,,,,,,,,,,,,,,,15,,47,0
10139,note_on,,59,0,10,,,,,,,,,,,,,,,,13,,47,0
10139,note_on,,59,0,5,,,,,,,,,,,,,,,,2,,47,0
10140,note_on,,1,0,11,,,,,,,,,,,,,,,,15,,47,48
10140,note_on,,1,0,10,,,,,,,,,,,,,,,,13,,47,48
10140,note_on,,1,0,5,,,,,,,,,,,,,,,,2,,47,48
10140,note_on,,1,0,9,,,,,,,,,,,,,,,,12,,62,48
10140,note_on,,1,0,8,,,,,,,,,,,,,,,,11,,62,48
10140,note_on,,1,0,7,,,,,,,,,,,,,,,,10,,62,48
10169,note_on,,29,0,9,,,,,,,,,,,,,,,,12,,62,0
10169,note_on,,29,0,7,,,,,,,,,,,,,,,,10,,62,0
10169,note_on,,29,0,8,,,,,,,,,,,,,,,,11,,62,0
10170,note_on,,1,0,8,,,,,,,,,,,,,,,,11,,62,48
10170,note_on,,1,0,7,,,,,,,,,,,,,,,,10,,62,48
10170,note_on,,1,0,9,,,,,,,,,,,,,,,,12,,62,48
10199,note_on,,29,0,9,,,,,,,,,,,,,,,,12,,62,0
10199,note_on,,29,0,7,,,,,,,,,,,,,,,,10,,62,0
10199,note_on,,59,0,5,,,,,,,,,,,,,,,,2,,47,0
10199,note_on,,59,0,11,,,,,,,,,,,,,,,,15,,47,0
10199,note_on,,59,0,10,,,,,,,,,,,,,,,,13,,47,0
10199,note_on,,29,0,8,,,,,,,,,,,,,,,,11,,62,0
10200,note_on,,1,0,11,,,,,,,,,,,,,,,,15,,55,48
10200,note_on,,1,0,5,,,,,,,,,,,,,,,,2,,55,48
10200,note_on,,1,0,10,,,,,,,,,,,,,,,,13,,55,48
10200,note_on,,1,0,7,,,,,,,,,,,,,,,,10,,62,48
10200,note_on,,1,0,8,,,,,,,,,,,,,,,,11,,62,48
10200,note_on,,1,0,9,,,,,,,,,,,,,,,,12,,62,48
10229,note_on,,29,0,7,,,,,,,,,,,,,,,,10,,62,0
10229,note_on,,29,0,9,,,,,,,,,,,,,,,,12,,62,0
10229,note_on,,29,0,8,,,,,,,,,,,,,,,,11,,62,0
10230,note_on,,1,0,8,,,,,,,,,,,,,,,,11,,62,48
10230,note_on,,1,0,7,,,,,,,,,,,,,,,,10,,62,48
10230,note_on,,1,0,9,,,,,,,,,,,,,,,,12,,62,48
10259,note_on,,59,0,10,,,,,,,,,,,,,,,,13,,55,0
10259,note_on,,59,0,11,,,,,,,,,,,,,,,,15,,55,0
10259,note_on,,29,0,9,,,,,,,,,,,,,,,,12,,62,0
10259,note_on,,29,0,8,,,,,,,,,,,,,,,,11,,62,0
10259,note_on,,179,0,6,,,,,,,,,,,,,,,,8,,55,0
10259,note_on,,59,0,5,,,,,,,,,,,,,,,,2,,55,0
10259,note_on,,29,0,7,,,,,,,,,,,,,,,,10,,62,0
10260,note_on,,1,0,10,,,,,,,,,,,,,,,,13,,55,48
10260,note_on,,1,0,6,,,,,,,,,,,,,,,,8,,59,72
10260,note_on,,1,0,5,,,,,,,,,,,,,,,,2,,55,48
10260,note_on,,1,0,9,,,,,,,,,,,,,,,,12,,62,48
10260,note_on,,1,0,11,,,,,,,,,,,,,,,,15,,55,48
10260,note_on,,1,0,7,,,,,,,,,,,,,,,,10,,62,48
10260,note_on,,1,0,8,,,,,,,,,,,,,,,,11,,62,48
10289,note_on,,29,0,8,,,,,,,,,,,,,,,,11,,62,0
10289,note_on,,29,0,7,,,,,,,,,,,,,,,,10,,62,0
10289,note_on,,29,0,9,,,,,,,,,,,,,,,,12,,62,0
10290,note_on,,1,0,8,,,,,,,,,,,,,,,,11,,62,48
10290,note_on,,1,0,7,,,,,,,,,,,,,,,,10,,62,48
10290,note_on,,1,0,9,,,,,,,,,,,,,,,,12,,62,48
10319,note_on,,29,0,8,,,,,,,,,,,,,,,,11,,62,0
10319,note_on,,59,0,10,,,,,,,,,,,,,,,,13,,55,0
10319,note_on,,29,0,7,,,,,,,,,,,,,,,,10,,62,0
10319,note_on,,59,0,6,,,,,,,,,,,,,,,,8,,59,0
10319,note_on,,0,0,11,,,,,,,,,,,,,,,,15,,55,0
10319,note_on,,0,0,11,,,,,,,,,,,,,,,,15,,59,0
10319,note_on,,0,0,11,,,,,,,,,,,,,,,,15,,62,0
10319,note_on,,59,0,5,,,,,,,,,,,,,,,,2,,55,0
10319,note_on,,59,0,11,,,,,,,,,,,,,,,,15,,67,0
10319,note_on,,29,0,9,,,,,,,,,,,,,,,,12,,62,0
10320,note_on,,1,0,9,,,,,,,,,,,,,,,,12,,62,48
10320,note_on,,1,0,7,,,,,,,,,,,,,,,,10,,62,48
10320,note_on,,0,0,11,,,,,,,,,,,,,,,,15,,57,48
10320,note_on,,0,0,11,,,,,,,,,,,,,,,,15,,62,48
10320,note_on,,1,0,11,,,,,,,,,,,,,,,,15,,54,48
10320,note_on,,1,0,6,,,,,,,,,,,,,,,,8,,57,72
10320,note_on,,1,0,8,,,,,,,,,,,,,,,,11,,62,48
10320,note_on,,1,0,10,,,,,,,,,,,,,,,,13,,54,48
10320,note_on,,1,0,5,,,,,,,,,,,,,,,,2,,54,48
10349,note_on,,29,0,9,,,,,,,,,,,,,,,,12,,62,0
10349,note_on,,29,0,7,,,,,,,,,,,,,,,,10,,62,0
10349,note_on,,29,0,8,,,,,,,,,,,,,,,,11,,62,0
10350,note_on,,1,0,9,,,,,,,,,,,,,,,,12,,62,48
10350,note_on,,1,0,8,,,,,,,,,,,,,,,,11,,62,48
10350,note_on,,1,0,7,,,,,,,,,,,,,,,,10,,62,48
10379,note_on,,59,0,11,,,,,,,,,,,,,,,,15,,54,0
10379,note_on,,59,0,10,,,,,,,,,,,,,,,,13,,54,0
10379,note_on,,29,0,8,,,,,,,,,,,,,,,,11,,62,0
10379,note_on,,29,0,7,,,,,,,,,,,,,,,,10,,62,0
10379,note_on,,59,0,5,,,,,,,,,,,,,,,,2,,54,0
10379,note_on,,29,0,9,,,,,,,,,,,,,,,,12,,62,0
10380,note_on,,1,0,10,,,,,,,,,,,,,,,,13,,54,48
10380,note_on,,1,0,11,,,,,,,,,,,,,,,,15,,54,48
10380,note_on,,1,0,5,,,,,,,,,,,,,,,,2,,54,48
10380,note_on,,1,0,7,,,,,,,,,,,,,,,,10,,62,48
10380,note_on,,1,0,8,,,,,,,,,,,,,,,,11,,62,48
10380,note_on,,1,0,9,,,,,,,,,,,,,,,,12,,62,48
10409,note_on,,29,0,7,,,,,,,,,,,,,,,,10,,62,0
10409,note_on,,29,0,8,,,,,,,,,,,,,,,,11,,62,0
10409,note_on,,29,0,9,,,,,,,,,,,,,,,,12,,62,0
10410,note_on,,1,0,8,,,,,,,,,,,,,,,,11,,62,48
10410,note_on,,1,0,7,,,,,,,,,,,,,,,,10,,62,48
10410,note_on,,1,0,9,,,,,,,,,,,,,,,,12,,62,48
10439,note_on,,0,0,11,,,,,,,,,,,,,,,,15,,54,0
10439,note_on,,0,0,11,,,,,,,,,,,,,,,,15,,57,0
10439,note_on,,59,0,11,,,,,,,,,,,,,,,,15,,62,0
10439,note_on,,29,0,9,,,,,,,,,,,,,,,,12,,62,0
10439,note_on,,29,0,7,,,,,,,,,,,,,,,,10,,62,0
10439,note_on,,59,0,10,,,,,,,,,,,,,,,,13,,54,0
10439,note_on,,29,0,8,,,,,,,,,,,,,,,,11,,62,0
10439,note_on,,59,0,5,,,,,,,,,,,,,,,,2,,54,0
10440,note_on,,0,0,11,,,,,,,,,,,,,,,,15,,66,48
10440,note_on,,1,0,8,,,,,,,,,,,,,,,,11,,62,48
10440,note_on,,1,0,7,,,,,,,,,,,,,,,,10,,62,48
10440,note_on,,1,0,9,,,,,,,,,,,,,,,,12,,62,48
10440,note_on,,1,0,5,,,,,,,,,,,,,,,,2,,50,48
10440,note_on,,1,0,10,,,,,,,,,,,,,,,,13,,50,48
10440,note_on,,1,0,11,,,,,,,,,,,,,,,,15,,50,48
10440,note_on,,0,0,11,,,,,,,,,,,,,,,,15,,69,48
10440,note_on,,0,0,11,,,,,,,,,,,,,,,,15,,62,48
10469,note_on,,29,0,8,,,,,,,,,,,,,,,,11,,62,0
10469,note_on,,29,0,7,,,,,,,,,,,,,,,,10,,62,0
10469,note_on,,29,0,9,,,,,,,,,,,,,,,,12,,62,0
10470,note_on,,1,0,7,,,,,,,,,,,,,,,,10,,62,48
10470,note_on,,1,0,8,,,,,,,,,,,,,,,,11,,62,48
10470,note_on,,1,0,9,,,,,,,,,,,,,,,,12,,62,48
10499,note_on,,59,0,5,,,,,,,,,,,,,,,,2,,50,0
10499,note_on,,29,0,9,,,,,,,,,,,,,,,,12,,62,0
10499,note_on,,29,0,8,,,,,,,,,,,,,,,,11,,62,0
10499,note_on,,59,0,11,,,,,,,,,,,,,,,,15,,50,0
10499,note_on,,29,0,7,,,,,,,,,,,,,,,,10,,62,0
10499,note_on,,179,0,6,,,,,,,,,,,,,,,,8,,57,0
10499,note_on,,59,0,10,,,,,,,,,,,,,,,,13,,50,0
10500,note_on,,1,0,7,,,,,,,,,,,,,,,,10,,62,48
10500,note_on,,1,0,5,,,,,,,,,,,,,,,,2,,50,48
10500,note_on,,1,0,10,,,,,,,,,,,,,,,,13,,50,48
10500,note_on,,1,0,8,,,,,,,,,,,,,,,,11,,62,48
10500,note_on,,1,0,6,,,,,,,,,,,,,,,,8,,60,72
10500,note_on,,1,0,11,,,,,,,,,,,,,,,,15,,50,48
10500,note_on,,1,0,9,,,,,,,,,,,,,,,,12,,62,48
10529,note_on,,29,0,9,,,,,,,,,,,,,,,,12,,62,0
10529,note_on,,29,0,8,,,,,,,,,,,,,,,,11,,62,0
10529,note_on,,29,0,7,,,,,,,,,,,,,,,,10,,62,0
10530,note_on,,1,0,7,,,,,,,,,,,,,,,,10,,62,48
10530,note_on,,1,0,8,,,,,,,,,,,,,,,,11,,62,48
10530,note_on,,1,0,9,,,,,,,,,,,,,,,,12,,62,48
10559,note_on,,29,0,7,,,,,,,,,,,,,,,,10,,62,0
10559,note_on,,29,0,8,,,,,,,,,,,,,,,,11,,62,0
10559,note_on,,0,0,11,,,,,,,,,,,,,,,,15,,62,0
10559,note_on,,0,0,11,,,,,,,,,,,,,,,,15,,66,0
10559,note_on,,59,0,5,,,,,,,,,,,,,,,,2,,50,0
10559,note_on,,59,0,10,,,,,,,,,,,,,,,,13,,50,0
10559,note_on,,59,0,6,,,,,,,,,,,,,,,,8,,60,0
10559,note_on,,0,0,11,,,,,,,,,,,,,,,,15,,50,0
10559,note_on,,59,0,11,,,,,,,,,,,,,,,,15,,69,0
10559,note_on,,29,0,9,,,,,,,,,,,,,,,,12,,62,0
10560,note_on,,1,0,10,,,,,,,,,,,,,,,,13,,55,48
10560,note_on,,1,0,6,,,,,,,,,,,,,,,,8,,59,72
10560,note_on,,1,0,5,,,,,,,,,,,,,,,,2,,55,48
10560,note_on,,1,0,7,,,,,,,,,,,,,,,,10,,62,48
10560,note_on,,1,0,11,,,,,,,,,,,,,,,,15,,55,48
10560,note_on,,0,0,11,,,,,,,,,,,,,,,,15,,62,48
10560,note_on,,0,0,11,,,,,,,,,,,,,,,,15,,59,48
10560,note_on,,1,0,9,,,,,,,,,,,,,,,,12,,62,48
10560,note_on,,1,0,8,,,,,,,,,,,,,,,,11,,62,48
10589,note_on,,29,0,7,,,,,,,,,,,,,,,,10,,62,0
10589,note_on,,29,0,8,,,,,,,,,,,,,,,,11,,62,0
10589,note_on,,29,0,9,,,,,,,,,,,,,,,,12,,62,0
10590,note_on,,1,0,9,,,,,,,,,,,,,,,,12,,62,48
10590,note_on,,1,0,7,,,,,,,,,,,,,,,,10,,62,48
10590,note_on,,1,0,8,,,,,,,,,,,,,,,,11,,62,48
10599,note_on,,39,0,6,,,,,,,,,,,,,,,,8,,59,0
10600,note_on,,1,0,6,,,,,,,,,,,,,,,,8,,60,72
10619,note_on,,59,0,11,,,,,,,,,,,,,,,,15,,55,0
10619,note_on,,59,0,10,,,,,,,,,,,,,,,,13,,55,0
10619,note_on,,29,0,9,,,,,,,,,,,,,,,,12,,62,0
10619,note_on,,29,0,8,,,,,,,,,,,,,,,,11,,62,0
10619,note_on,,59,0,5,,,,,,,,,,,,,,,,2,,55,0
10619,note_on,,29,0,7,,,,,,,,,,,,,,,,10,,62,0
10620,note_on,,1,0,8,,,,,,,,,,,,,,,,11,,62,48
10620,note_on,,1,0,5,,,,,,,,,,,,,,,,2,,55,48
10620,note_on,,1,0,7,,,,,,,,,,,,,,,,10,,62,48
10620,note_on,,1,0,11,,,,,,,,,,,,,,,,15,,55,48
10620,note_on,,1,0,10,,,,,,,,,,,,,,,,13,,55,48
10620,note_on,,1,0,9,,,,,,,,,,,,,,,,12,,62,48
10639,note_on,,39,0,6,,,,,,,,,,,,,,,,8,,60,0
10640,note_on,,1,0,6,,,,,,,,,,,,,,,,8,,59,72
10649,note_on,,29,0,9,,,,,,,,,,,,,,,,12,,62,0
10649,note_on,,29,0,8,,,,,,,,,,,,,,,,11,,62,0
10649,note_on,,29,0,7,,,,,,,,,,,,,,,,10,,62,0
10650,note_on,,1,0,9,,,,,,,,,,,,,,,,12,,62,48
10650,note_on,,1,0,8,,,,,,,,,,,,,,,,11,,62,48
10650,note_on,,1,0,7,,,,,,,,,,,,,,,,10,,62,48
10679,note_on,,39,0,6,,,,,,,,,,,,,,,,8,,59,0
10679,note_on,,59,0,10,,,,,,,,,,,,,,,,13,,55,0
10679,note_on,,29,0,7,,,,,,,,,,,,,,,,10,,62,0
10679,note_on,,29,0,9,,,,,,,,,,,,,,,,12,,62,0
10679,note_on,,59,0,11,,,,,,,,,,,,,,,,15,,62,0
10679,note_on,,0,0,11,,,,,,,,,,,,,,,,15,,59,0
10679,note_on,,0,0,11,,,,,,,,,,,,,,,,15,,55,0
10679,note_on,,29,0,8,,,,,,,,,,,,,,,,11,,62,0
10679,note_on,,59,0,5,,,,,,,,,,,,,,,,2,,55,0
10680,note_on,,0,0,11,,,,,,,,,,,,,,,,15,,71,48
10680,note_on,,1,0,11,,,,,,,,,,,,,,,,15,,47,48
10680,note_on,,0,0,11,,,,,,,,,,,,,,,,15,,67,48
10680,note_on,,0,0,11,,,,,,,,,,,,,,,,15,,62,48
10680,note_on,,1,0,8,,,,,,,,,,,,,,,,11,,62,48
10680,note_on,,1,0,6,,,,,,,,,,,,,,,,8,,57,72
10680,note_on,,1,0,5,,,,,,,,,,,,,,,,2,,47,48
10680,note_on,,1,0,7,,,,,,,,,,,,,,,,10,,62,48
10680,note_on,,1,0,10,,,,,,,,,,,,,,,,13,,47,48
10680,note_on,,1,0,9,,,,,,,,,,,,,,,,12,,62,48
10709,note_on,,29,0,8,,,,,,,,,,,,,,,,11,,62,0
10709,note_on,,29,0,7,,,,,,,,,,,,,,,,10,,62,0
10709,note_on,,29,0,9,,,,,,,,,,,,,,,,12,,62,0
10710,note_on,,1,0,8,,,,,,,,,,,,,,,,11,,62,48
10710,note_on,,1,0,7,,,,,,,,,,,,,,,,10,,62,48
10710,note_on,,1,0,9,,,,,,,,,,,,,,,,12,,62,48
10719,note_on,,39,0,6,,,,,,,,,,,,,,,,8,,57,0
10720,note_on,,1,0,6,,,,,,,,,,,,,,,,8,,59,72
10739,note_on,,29,0,8,,,,,,,,,,,,,,,,11,,62,0
10739,note_on,,59,0,11,,,,,,,,,,,,,,,,15,,47,0
10739,note_on,,29,0,9,,,,,,,,,,,,,,,,12,,62,0
10739,note_on,,59,0,10,,,,,,,,,,,,,,,,13,,47,0
10739,note_on,,59,0,5,,,,,,,,,,,,,,,,2,,47,0
10739,note_on,,29,0,7,,,,,,,,,,,,,,,,10,,62,0
10740,note_on,,1,0,9,,,,,,,,,,,,,,,,12,,62,48
10740,note_on,,1,0,11,,,,,,,,,,,,,,,,15,,47,48
10740,note_on,,1,0,8,,,,,,,,,,,,,,,,11,,62,48
10740,note_on,,1,0,5,,,,,,,,,,,,,,,,2,,47,48
10740,note_on,,1,0,10,,,,,,,,,,,,,,,,13,,47,48
10740,note_on,,1,0,7,,,,,,,,,,,,,,,,10,,62,48
10759,note_on,,39,0,6,,,,,,,,,,,,,,,,8,,59,0
10760,note_on,,1,0,6,,,,,,,,,,,,,,,,8,,55,72
10769,note_on,,29,0,9,,,,,,,,,,,,,,,,12,,62,0
10769,note_on,,29,0,7,,,,,,,,,,,,,,,,10,,62,0
10769,note_on,,29,0,8,,,,,,,,,,,,,,,,11,,62,0
10770,note_on,,1,0,9,,,,,,,,,,,,,,,,12,,62,48
10770,note_on,,1,0,8,,,,,,,,,,,,,,,,11,,62,48
10770,note_on,,1,0,7,,,,,,,,,,,,,,,,10,,62,48
10799,note_on,,29,0,8,,,,,,,,,,,,,,,,11,,62,0
10799,note_on,,0,0,11,,,,,,,,,,,,,,,,15,,47,0
10799,note_on,,0,0,11,,,,,,,,,,,,,,,,15,,62,0
10799,note_on,,0,0,11,,,,,,,,,,,,,,,,15,,67,0
10799,note_on,,59,0,11,,,,,,,,,,,,,,,,15,,71,0
10799,note_on,,29,0,9,,,,,,,,,,,,,,,,12,,62,0
10799,note_on,,29,0,7,,,,,,,,,,,,,,,,10,,62,0
10799,note_on,,59,0,5,,,,,,,,,,,,,,,,2,,47,0
10799,note_on,,39,0,6,,,,,,,,,,,,,,,,8,,55,0
10799,note_on,,59,0,10,,,,,,,,,,,,,,,,13,,47,0
10800,note_on,,1,0,10,,,,,,,,,,,,,,,,13,,50,48
10800,note_on,,1,0,9,,,,,,,,,,,,,,,,12,,62,48
10800,note_on,,1,0,6,,,,,,,,,,,,,,,,8,,57,72
10800,note_on,,1,0,8,,,,,,,,,,,,,,,,11,,62,48
10800,note_on,,0,0,11,,,,,,,,,,,,,,,,15,,57,48
10800,note_on,,0,0,11,,,,,,,,,,,,,,,,15,,62,48
10800,note_on,,1,0,7,,,,,,,,,,,,,,,,10,,62,48
10800,note_on,,1,0,5,,,,,,,,,,,,,,,,2,,50,48
10800,note_on,,1,0,11,,,,,,,,,,,,,,,,15,,50,48
10800,note_on,,0,0,11,,,,,,,,,,,,,,,,15,,66,48
10829,note_on,,29,0,7,,,,,,,,,,,,,,,,10,,62,0
10829,note_on,,29,0,9,,,,,,,,,,,,,,,,12,,62,0
10829,note_on,,29,0,8,,,,,,,,,,,,,,,,11,,62,0
10830,note_on,,1,0,9,,,,,,,,,,,,,,,,12,,62,48
10830,note_on,,1,0,7,,,,,,,,,,,,,,,,10,,62,48
10830,note_on,,1,0,8,,,,,,,,,,,,,,,,11,,62,48
10839,note_on,,39,0,6,,,,,,,,,,,,,,,,8,,57,0
10840,note_on,,1,0,6,,,,,,,,,,,,,,,,8,,59,72
10859,note_on,,29,0,7,,,,,,,,,,,,,,,,10,,62,0
10859,note_on,,59,0,11,,,,,,,,,,,,,,,,15,,50,0
10859,note_on,,29,0,9,,,,,,,,,,,,,,,,12,,62,0
10859,note_on,,29,0,8,,,,,,,,,,,,,,,,11,,62,0
10859,note_on,,59,0,10,,,,,,,,,,,,,,,,13,,50,0
10859,note_on,,59,0,5,,,,,,,,,,,,,,,,2,,50,0
10860,note_on,,1,0,9,,,,,,,,,,,,,,,,12,,62,48
10860,note_on,,1,0,8,,,,,,,,,,,,,,,,11,,62,48
10860,note_on,,1,0,7,,,,,,,,,,,,,,,,10,,62,48
10860,note_on,,1,0,5,,,,,,,,,,,,,,,,2,,50,48
10860,note_on,,1,0,10,,,,,,,,,,,,,,,,13,,50,48
10860,note_on,,1,0,11,,,,,,,,,,,,,,,,15,,50,48
10879,note_on,,39,0,6,,,,,,,,,,,,,,,,8,,59,0
10880,note_on,,1,0,6,,,,,,,,,,,,,,,,8,,57,72
10889,note_on,,29,0,7,,,,,,,,,,,,,,,,10,,62,0
10889,note_on,,29,0,9,,,,,,,,,,,,,,,,12,,62,0
10889,note_on,,29,0,8,,,,,,,,,,,,,,,,11,,62,0
10890,note_on,,1,0,8,,,,,,,,,,,,,,,,11,,62,48
10890,note_on,,1,0,7,,,,,,,,,,,,,,,,10,,62,48
10890,note_on,,1,0,9,,,,,,,,,,,,,,,,12,,62,48
10919,note_on,,39,0,6,,,,,,,,,,,,,,,,8,,57,0
10919,note_on,,29,0,7,,,,,,,,,,,,,,,,10,,62,0
10919,note_on,,59,0,5,,,,,,,,,,,,,,,,2,,50,0
10919,note_on,,59,0,10,,,,,,,,,,,,,,,,13,,50,0
10919,note_on,,29,0,8,,,,,,,,,,,,,,,,11,,62,0
10919,note_on,,59,0,11,,,,,,,,,,,,,,,,15,,50,0
10919,note_on,,29,0,9,,,,,,,,,,,,,,,,12,,62,0
10920,note_on,,1,0,6,,,,,,,,,,,,,,,,8,,55,72
10920,note_on,,1,0,8,,,,,,,,,,,,,,,,11,,62,48
10920,note_on,,1,0,9,,,,,,,,,,,,,,,,12,,62,48
10920,note_on,,1,0,7,,,,,,,,,,,,,,,,10,,62,48
10920,note_on,,1,0,11,,,,,,,,,,,,,,,,15,,50,48
10920,note_on,,1,0,5,,,,,,,,,,,,,,,,2,,50,48
10920,note_on,,1,0,10,,,,,,,,,,,,,,,,13,,50,48
10949,note_on,,29,0,9,,,,,,,,,,,,,,,,12,,62,0
10949,note_on,,29,0,8,,,,,,,,,,,,,,,,11,,62,0
10949,note_on,,29,0,7,,,,,,,,,,,,,,,,10,,62,0
10950,note_on,,1,0,8,,,,,,,,,,,,,,,,11,,62,48
10950,note_on,,1,0,7,,,,,,,,,,,,,,,,10,,62,48
10950,note_on,,1,0,9,,,,,,,,,,,,,,,,12,,62,48
10959,note_on,,39,0,6,,,,,,,,,,,,,,,,8,,55,0
10960,note_on,,1,0,6,,,,,,,,,,,,,,,,8,,57,72
10979,note_on,,59,0,10,,,,,,,,,,,,,,,,13,,50,0
10979,note_on,,29,0,9,,,,,,,,,,,,,,,,12,,62,0
10979,note_on,,29,0,7,,,,,,,,,,,,,,,,10,,62,0
10979,note_on,,59,0,11,,,,,,,,,,,,,,,,15,,50,0
10979,note_on,,29,0,8,,,,,,,,,,,,,,,,11,,62,0
10979,note_on,,59,0,5,,,,,,,,,,,,,,,,2,,50,0
10980,note_on,,1,0,9,,,,,,,,,,,,,,,,12,,62,48
10980,note_on,,1,0,8,,,,,,,,,,,,,,,,11,,62,48
10980,note_on,,1,0,5,,,,,,,,,,,,,,,,2,,48,48
10980,note_on,,1,0,7,,,,,,,,,,,,,,,,10,,62,48
10980,note_on,,1,0,10,,,,,,,,,,,,,,,,13,,48,48
10980,note_on,,1,0,11,,,,,,,,,,,,,,,,15,,48,48
10999,note_on,,39,0,6,,,,,,,,,,,,,,,,8,,57,0
11000,note_on,,1,0,6,,,,,,,,,,,,,,,,8,,54,72
11009,note_on,,29,0,9,,,,,,,,,,,,,,,,12,,62,0
11009,note_on,,29,0,8,,,,,,,,,,,,,,,,11,,62,0
11009,note_on,,29,0,7,,,,,,,,,,,,,,,,10,,62,0
11010,note_on,,1,0,9,,,,,,,,,,,,,,,,12,,62,48
11010,note_on,,1,0,8,,,,,,,,,,,,,,,,11,,62,48
11010,note_on,,1,0,7,,,,,,,,,,,,,,,,10,,62,48
11039,note_on,,0,0,11,,,,,,,,,,,,,,,,15,,48,0
11039,note_on,,29,0,9,,,,,,,,,,,,,,,,12,,62,0
11039,note_on,,39,0,6,,,,,,,,,,,,,,,,8,,54,0
11039,note_on,,29,0,8,,,,,,,,,,,,,,,,11,,62,0
11039,note_on,,59,0,5,,,,,,,,,,,,,,,,2,,48,0
11039,note_on,,59,0,10,,,,,,,,,,,,,,,,13,,48,0
11039,note_on,,29,0,7,,,,,,,,,,,,,,,,10,,62,0
11039,note_on,,59,0,11,,,,,,,,,,,,,,,,15,,66,0
11039,note_on,,0,0,11,,,,,,,,,,,,,,,,15,,62,0
11039,note_on,,0,0,11,,,,,,,,,,,,,,,,15,,57,0
11040,note_on,,1,0,11,,,,,,,,,,,,,,,,15,,47,48
11040,note_on,,1,0,8,,,,,,,,,,,,,,,,11,,62,48
11040,note_on,,1,0,10,,,,,,,,,,,,,,,,13,,47,48
11040,note_on,,0,0,11,,,,,,,,,,,,,,,,15,,62,48
11040,note_on,,1,0,7,,,,,,,,,,,,,,,,10,,62,48
11040,note_on,,1,0,6,,,,,,,,,,,,,,,,8,,55,72
11040,note_on,,0,0,11,,,,,,,,,,,,,,,,15,,67,48
11040,note_on,,1,0,9,,,,,,,,,,,,,,,,12,,62,48
11040,note_on,,0,0,11,,,,,,,,,,,,,,,,15,,55,48
11040,note_on,,1,0,5,,,,,,,,,,,,,,,,2,,47,48
11069,note_on,,29,0,9,,,,,,,,,,,,,,,,12,,62,0
11069,note_on,,29,0,7,,,,,,,,,,,,,,,,10,,62,0
11069,note_on,,29,0,8,,,,,,,,,,,,,,,,11,,62,0
11070,note_on,,1,0,7,,,,,,,,,,,,,,,,10,,62,48
11070,note_on,,1,0,9,,,,,,,,,,,,,,,,12,,62,48
11070,note_on,,1,0,8,,,,,,,,,,,,,,,,11,,62,48
11079,note_on,,39,0,6,,,,,,,,,,,,,,,,8,,55,0
11080,note_on,,1,0,6,,,,,,,,,,,,,,,,8,,57,72
11099,note_on,,59,0,5,,,,,,,,,,,,,,,,2,,47,0
11099,note_on,,29,0,7,,,,,,,,,,,,,,,,10,,62,0
11099,note_on,,29,0,9,,,,,,,,,,,,,,,,12,,62,0
11099,note_on,,29,0,8,,,,,,,,,,,,,,,,11,,62,0
11099,note_on,,59,0,11,,,,,,,,,,,,,,,,15,,47,0
11099,note_on,,59,0,10,,,,,,,,,,,,,,,,13,,47,0
11100,note_on,,1,0,9,,,,,,,,,,,,,,,,12,,62,48
11100,note_on,,1,0,7,,,,,,,,,,,,,,,,10,,62,48
11100,note_on,,1,0,10,,,,,,,,,,,,,,,,13,,47,48
11100,note_on,,1,0,11,,,,,,,,,,,,,,,,15,,47,48
11100,note_on,,1,0,5,,,,,,,,,,,,,,,,2,,47,48
11100,note_on,,1,0,8,,,,,,,,,,,,,,,,11,,62,48
11119,note_on,,39,0,6,,,,,,,,,,,,,,,,8,,57,0
11120,note_on,,1,0,6,,,,,,,,,,,,,,,,8,,55,72
11129,note_on,,29,0,8,,,,,,,,,,,,,,,,11,,62,0
11129,note_on,,29,0,9,,,,,,,,,,,,,,,,12,,62,0
11129,note_on,,29,0,7,,,,,,,,,,,,,,,,10,,62,0
11130,note_on,,1,0,7,,,,,,,,,,,,,,,,10,,62,48
11130,note_on,,1,0,9,,,,,,,,,,,,,,,,12,,62,48
11130,note_on,,1,0,8,,,,,,,,,,,,,,,,11,,62,48
11159,note_on,,29,0,9,,,,,,,,,,,,,,,,12,,62,0
11159,note_on,,29,0,7,,,,,,,,,,,,,,,,10,,62,0
11159,note_on,,0,0,11,,,,,,,,,,,,,,,,15,,47,0
11159,note_on,,0,0,11,,,,,,,,,,,,,,,,15,,55,0
11159,note_on,,59,0,11,,,,,,,,,,,,,,,,15,,62,0
11159,note_on,,59,0,10,,,,,,,,,,,,,,,,13,,47,0
11159,note_on,,29,0,8,,,,,,,,,,,,,,,,11,,62,0
11159,note_on,,39,0,6,,,,,,,,,,,,,,,,8,,55,0
11159,note_on,,59,0,5,,,,,,,,,,,,,,,,2,,47,0
11160,note_on,,1,0,7,,,,,,,,,,,,,,,,10,,62,48
11160,note_on,,0,0,11,,,,,,,,,,,,,,,,15,,62,48
11160,note_on,,1,0,6,,,,,,,,,,,,,,,,8,,54,72
11160,note_on,,1,0,11,,,,,,,,,,,,,,,,15,,43,48
11160,note_on,,0,0,11,,,,,,,,,,,,,,,,15,,59,48
11160,note_on,,1,0,5,,,,,,,,,,,,,,,,2,,43,48
11160,note_on,,1,0,10,,,,,,,,,,,,,,,,13,,43,48
11160,note_on,,1,0,8,,,,,,,,,,,,,,,,11,,62,48
11160,note_on,,1,0,9,,,,,,,,,,,,,,,,12,,62,48
11189,note_on,,29,0,7,,,,,,,,,,,,,,,,10,,62,0
11189,note_on,,29,0,9,,,,,,,,,,,,,,,,12,,62,0
11189,note_on,,29,0,8,,,,,,,,,,,,,,,,11,,62,0
11190,note_on,,1,0,9,,,,,,,,,,,,,,,,12,,62,48
11190,note_on,,1,0,8,,,,,,,,,,,,,,,,11,,62,48
11190,note_on,,1,0,7,,,,,,,,,,,,,,,,10,,62,48
11199,note_on,,39,0,6,,,,,,,,,,,,,,,,8,,54,0
11200,note_on,,1,0,6,,,,,,,,,,,,,,,,8,,55,72
11219,note_on,,59,0,10,,,,,,,,,,,,,,,,13,,43,0
11219,note_on,,29,0,7,,,,,,,,,,,,,,,,10,,62,0
11219,note_on,,59,0,5,,,,,,,,,,,,,,,,2,,43,0
11219,note_on,,29,0,8,,,,,,,,,,,,,,,,11,,62,0
11219,note_on,,29,0,9,,,,,,,,,,,,,,,,12,,62,0
11219,note_on,,59,0,11,,,,,,,,,,,,,,,,15,,43,0
11220,note_on,,1,0,11,,,,,,,,,,,,,,,,15,,43,48
11220,note_on,,1,0,9,,,,,,,,,,,,,,,,12,,62,48
11220,note_on,,1,0,5,,,,,,,,,,,,,,,,2,,43,48
11220,note_on,,1,0,7,,,,,,,,,,,,,,,,10,,62,48
11220,note_on,,1,0,8,,,,,,,,,,,,,,,,11,,62,48
11220,note_on,,1,0,10,,,,,,,,,,,,,,,,13,,43,48
11239,note_on,,39,0,6,,,,,,,,,,,,,,,,8,,55,0
11240,note_on,,1,0,6,,,,,,,,,,,,,,,,8,,52,72
11249,note_on,,29,0,9,,,,,,,,,,,,,,,,12,,62,0
11249,note_on,,29,0,7,,,,,,,,,,,,,,,,10,,62,0
11249,note_on,,29,0,8,,,,,,,,,,,,,,,,11,,62,0
11250,note_on,,1,0,9,,,,,,,,,,,,,,,,12,,62,48
11250,note_on,,1,0,8,,,,,,,,,,,,,,,,11,,62,48
11250,note_on,,1,0,7,,,,,,,,,,,,,,,,10,,62,48
11279,note_on,,59,0,10,,,,,,,,,,,,,,,,13,,43,0
11279,note_on,,29,0,9,,,,,,,,,,,,,,,,12,,62,0
11279,note_on,,29,0,8,,,,,,,,,,,,,,,,11,,62,0
11279,note_on,,29,0,7,,,,,,,,,,,,,,,,10,,62,0
11279,note_on,,59,0,11,,,,,,,,,,,,,,,,15,,67,0
11279,note_on,,0,0,11,,,,,,,,,,,,,,,,15,,62,0
11279,note_on,,0,0,11,,,,,,,,,,,,,,,,15,,59,0
11279,note_on,,39,0,6,,,,,,,,,,,,,,,,8,,52,0
11279,note_on,,0,0,11,,,,,,,,,,,,,,,,15,,43,0
11279,note_on,,59,0,5,,,,,,,,,,,,,,,,2,,43,0
11280,note_on,,1,0,5,,,,,,,,,,,,,,,,2,,50,48
11280,note_on,,0,0,11,,,,,,,,,,,,,,,,15,,69,48
11280,note_on,,1,0,8,,,,,,,,,,,,,,,,11,,62,48
11280,note_on,,1,0,6,,,,,,,,,,,,,,,,8,,54,72
11280,note_on,,0,0,11,,,,,,,,,,,,,,,,15,,62,48
11280,note_on,,0,0,11,,,,,,,,,,,,,,,,15,,66,48
11280,note_on,,0,0,11,,,,,,,,,,,,,,,,15,,57,48
11280,note_on,,1,0,11,,,,,,,,,,,,,,,,15,,50,48
11280,note_on,,1,0,7,,,,,,,,,,,,,,,,10,,62,48
11280,note_on,,1,0,10,,,,,,,,,,,,,,,,13,,50,48
11280,note_on,,1,0,9,,,,,,,,,,,,,,,,12,,62,48
11309,note_on,,29,0,8,,,,,,,,,,,,,,,,11,,62,0
11309,note_on,,29,0,7,,,,,,,,,,,,,,,,10,,62,0
11309,note_on,,29,0,9,,,,,,,,,,,,,,,,12,,62,0
11310,note_on,,1,0,9,,,,,,,,,,,,,,,,12,,62,48
11310,note_on,,1,0,7,,,,,,,,,,,,,,,,10,,62,48
11310,note_on,,1,0,8,,,,,,,,,,,,,,,,11,,62,48
11319,note_on,,39,0,6,,,,,,,,,,,,,,,,8,,54,0
11320,note_on,,1,0,6,,,,,,,,,,,,,,,,8,,55,72
11339,note_on,,29,0,8,,,,,,,,,,,,,,,,11,,62,0
11339,note_on,,59,0,11,,,,,,,,,,,,,,,,15,,50,0
11339,note_on,,59,0,10,,,,,,,,,,,,,,,,13,,50,0
11339,note_on,,29,0,7,,,,,,,,,,,,,,,,10,,62,0
11339,note_on,,29,0,9,,,,,,,,,,,,,,,,12,,62,0
11339,note_on,,59,0,5,,,,,,,,,,,,,,,,2,,50,0
11340,note_on,,1,0,11,,,,,,,,,,,,,,,,15,,50,48
11340,note_on,,1,0,9,,,,,,,,,,,,,,,,12,,62,48
11340,note_on,,1,0,8,,,,,,,,,,,,,,,,11,,62,48
11340,note_on,,1,0,10,,,,,,,,,,,,,,,,13,,50,48
11340,note_on,,1,0,5,,,,,,,,,,,,,,,,2,,50,48
11340,note_on,,1,0,7,,,,,,,,,,,,,,,,10,,62,48
11359,note_on,,39,0,6,,,,,,,,,,,,,,,,8,,55,0
11360,note_on,,1,0,6,,,,,,,,,,,,,,,,8,,54,72
11369,note_on,,29,0,8,,,,,,,,,,,,,,,,11,,62,0
11369,note_on,,29,0,9,,,,,,,,,,,,,,,,12,,62,0
11369,note_on,,29,0,7,,,,,,,,,,,,,,,,10,,62,0
11370,note_on,,1,0,8,,,,,,,,,,,,,,,,11,,62,48
11370,note_on,,1,0,9,,,,,,,,,,,,,,,,12,,62,48
11370,note_on,,1,0,7,,,,,,,,,,,,,,,,10,,62,48
11399,note_on,,59,0,10,,,,,,,,,,,,,,,,13,,50,0
11399,note_on,,29,0,9,,,,,,,,,,,,,,,,12,,62,0
11399,note_on,,29,0,7,,,,,,,,,,,,,,,,10,,62,0
11399,note_on,,29,0,8,,,,,,,,,,,,,,,,11,,62,0
11399,note_on,,59,0,5,,,,,,,,,,,,,,,,2,,50,0
11399,note_on,,0,0,11,,,,,,,,,,,,,,,,15,,50,0
11399,note_on,,0,0,11,,,,,,,,,,,,,,,,15,,57,0
11399,note_on,,0,0,11,,,,,,,,,,,,,,,,15,,62,0
11399,note_on,,0,0,11,,,,,,,,,,,,,,,,15,,66,0
11399,note_on,,59,0,11,,,,,,,,,,,,,,,,15,,69,0
11399,note_on,,39,0,6,,,,,,,,,,,,,,,,8,,54,0
11400,note_on,,1,0,9,,,,,,,,,,,,,,,,12,,62,48
11400,note_on,,1,0,7,,,,,,,,,,,,,,,,10,,62,48
11400,note_on,,0,0,11,,,,,,,,,,,,,,,,15,,74,48
11400,note_on,,1,0,11,,,,,,,,,,,,,,,,15,,48,48
11400,note_on,,1,0,10,,,,,,,,,,,,,,,,13,,48,48
11400,note_on,,0,0,11,,,,,,,,,,,,,,,,15,,69,48
11400,note_on,,1,0,8,,,,,,,,,,,,,,,,11,,62,48
11400,note_on,,1,0,5,,,,,,,,,,,,,,,,2,,48,48
11400,note_on,,1,0,6,,,,,,,,,,,,,,,,8,,52,72
11400,note_on,,0,0,11,,,,,,,,,,,,,,,,15,,66,48
11429,note_on,,29,0,8,,,,,,,,,,,,,,,,11,,62,0
11429,note_on,,29,0,9,,,,,,,,,,,,,,,,12,,62,0
11429,note_on,,29,0,7,,,,,,,,,,,,,,,,10,,62,0
11430,note_on,,1,0,7,,,,,,,,,,,,,,,,10,,62,48
11430,note_on,,1,0,8,,,,,,,,,,,,,,,,11,,62,48
11430,note_on,,1,0,9,,,,,,,,,,,,,,,,12,,62,48
11439,note_on,,39,0,6,,,,,,,,,,,,,,,,8,,52,0
11440,note_on,,1,0,6,,,,,,,,,,,,,,,,8,,54,72
11459,note_on,,59,0,10,,,,,,,,,,,,,,,,13,,48,0
11459,note_on,,59,0,11,,,,,,,,,,,,,,,,15,,48,0
11459,note_on,,29,0,9,,,,,,,,,,,,,,,,12,,62,0
11459,note_on,,29,0,7,,,,,,,,,,,,,,,,10,,62,0
11459,note_on,,29,0,8,,,,,,,,,,,,,,,,11,,62,0
11459,note_on,,59,0,5,,,,,,,,,,,,,,,,2,,48,0
11460,note_on,,1,0,5,,,,,,,,,,,,,,,,2,,48,48
11460,note_on,,1,0,7,,,,,,,,,,,,,,,,10,,62,48
11460,note_on,,1,0,10,,,,,,,,,,,,,,,,13,,48,48
11460,note_on,,1,0,8,,,,,,,,,,,,,,,,11,,62,48
11460,note_on,,1,0,11,,,,,,,,,,,,,,,,15,,48,48
11460,note_on,,1,0,9,,,,,,,,,,,,,,,,12,,62,48
11479,note_on,,39,0,6,,,,,,,,,,,,,,,,8,,54,0
11480,note_on,,1,0,6,,,,,,,,,,,,,,,,8,,50,72
11489,note_on,,29,0,7,,,,,,,,,,,,,,,,10,,62,0
11489,note_on,,29,0,9,,,,,,,,,,,,,,,,12,,62,0
11489,note_on,,29,0,8,,,,,,,,,,,,,,,,11,,62,0
11490,note_on,,1,0,9,,,,,,,,,,,,,,,,12,,62,48
11490,note_on,,1,0,7,,,,,,,,,,,,,,,,10,,62,48
11490,note_on,,1,0,8,,,,,,,,,,,,,,,,11,,62,48
11519,note_on,,59,0,11,,,,,,,,,,,,,,,,15,,69,0
11519,note_on,,29,0,9,,,,,,,,,,,,,,,,12,,62,0
11519,note_on,,59,0,10,,,,,,,,,,,,,,,,13,,48,0
11519,note_on,,29,0,7,,,,,,,,,,,,,,,,10,,62,0
11519,note_on,,29,0,8,,,,,,,,,,,,,,,,11,,62,0
11519,note_on,,59,0,5,,,,,,,,,,,,,,,,2,,48,0
11519,note_on,,39,0,6,,,,,,,,,,,,,,,,8,,50,0
11519,note_on,,0,0,11,,,,,,,,,,,,,,,,15,,66,0
11519,note_on,,0,0,11,,,,,,,,,,,,,,,,15,,48,0
11520,note_on,,1,0,9,,,,,,,,,,,,,,,,12,,62,48
11520,note_on,,1,0,10,,,,,,,,,,,,,,,,13,,47,48
11520,note_on,,1,0,5,,,,,,,,,,,,,,,,2,,47,48
11520,note_on,,0,0,11,,,,,,,,,,,,,,,,15,,62,48
11520,note_on,,0,0,11,,,,,,,,,,,,,,,,15,,67,48
11520,note_on,,1,0,11,,,,,,,,,,,,,,,,15,,47,48
11520,note_on,,1,0,6,,,,,,,,,,,,,,,,8,,55,72
11520,note_on,,1,0,8,,,,,,,,,,,,,,,,11,,62,48
11520,note_on,,1,0,7,,,,,,,,,,,,,,,,10,,62,48
11549,note_on,,29,0,9,,,,,,,,,,,,,,,,12,,62,0
11549,note_on,,29,0,8,,,,,,,,,,,,,,,,11,,62,0
11549,note_on,,29,0,7,,,,,,,,,,,,,,,,10,,62,0
11550,note_on,,1,0,7,,,,,,,,,,,,,,,,10,,62,48
11550,note_on,,1,0,9,,,,,,,,,,,,,,,,12,,62,48
11550,note_on,,1,0,8,,,,,,,,,,,,,,,,11,,62,48
11559,note_on,,39,0,6,,,,,,,,,,,,,,,,8,,55,0
11560,note_on,,1,0,6,,,,,,,,,,,,,,,,8,,57,72
11579,note_on,,29,0,7,,,,,,,,,,,,,,,,10,,62,0
11579,note_on,,59,0,5,,,,,,,,,,,,,,,,2,,47,0
11579,note_on,,59,0,11,,,,,,,,,,,,,,,,15,,47,0
11579,note_on,,29,0,8,,,,,,,,,,,,,,,,11,,62,0
11579,note_on,,59,0,10,,,,,,,,,,,,,,,,13,,47,0
11579,note_on,,29,0,9,,,,,,,,,,,,,,,,12,,62,0
11580,note_on,,1,0,5,,,,,,,,,,,,,,,,2,,47,48
11580,note_on,,1,0,11,,,,,,,,,,,,,,,,15,,47,48
11580,note_on,,1,0,8,,,,,,,,,,,,,,,,11,,62,48
11580,note_on,,1,0,7,,,,,,,,,,,,,,,,10,,62,48
11580,note_on,,1,0,9,,,,,,,,,,,,,,,,12,,62,48
11580,note_on,,1,0,10,,,,,,,,,,,,,,,,13,,47,48
11599,note_on,,39,0,6,,,,,,,,,,,,,,,,8,,57,0
11600,note_on,,1,0,6,,,,,,,,,,,,,,,,8,,55,72
11609,note_on,,29,0,9,,,,,,,,,,,,,,,,12,,62,0
11609,note_on,,29,0,8,,,,,,,,,,,,,,,,11,,62,0
11609,note_on,,29,0,7,,,,,,,,,,,,,,,,10,,62,0
11610,note_on,,1,0,8,,,,,,,,,,,,,,,,11,,62,48
11610,note_on,,1,0,7,,,,,,,,,,,,,,,,10,,62,48
11610,note_on,,1,0,9,,,,,,,,,,,,,,,,12,,62,48
11639,note_on,,59,0,5,,,,,,,,,,,,,,,,2,,47,0
11639,note_on,,0,0,11,,,,,,,,,,,,,,,,15,,62,0
11639,note_on,,0,0,11,,,,,,,,,,,,,,,,15,,47,0
11639,note_on,,59,0,10,,,,,,,,,,,,,,,,13,,47,0
11639,note_on,,29,0,9,,,,,,,,,,,,,,,,12,,62,0
11639,note_on,,39,0,6,,,,,,,,,,,,,,,,8,,55,0
11639,note_on,,29,0,8,,,,,,,,,,,,,,,,11,,62,0
11639,note_on,,29,0,7,,,,,,,,,,,,,,,,10,,62,0
11639,note_on,,59,0,11,,,,,,,,,,,,,,,,15,,74,0
11639,note_on,,0,0,11,,,,,,,,,,,,,,,,15,,67,0
11640,note_on,,1,0,8,,,,,,,,,,,,,,,,11,,62,48
11640,note_on,,0,0,11,,,,,,,,,,,,,,,,15,,62,48
11640,note_on,,0,0,11,,,,,,,,,,,,,,,,15,,69,48
11640,note_on,,0,0,11,,,,,,,,,,,,,,,,15,,72,48
11640,note_on,,1,0,11,,,,,,,,,,,,,,,,15,,42,48
11640,note_on,,1,0,6,,,,,,,,,,,,,,,,8,,57,72
11640,note_on,,1,0,7,,,,,,,,,,,,,,,,10,,62,48
11640,note_on,,1,0,9,,,,,,,,,,,,,,,,12,,62,48
11640,note_on,,1,0,5,,,,,,,,,,,,,,,,2,,42,48
11640,note_on,,1,0,10,,,,,,,,,,,,,,,,13,,42,48
11669,note_on,,29,0,9,,,,,,,,,,,,,,,,12,,62,0
11669,note_on,,29,0,7,,,,,,,,,,,,,,,,10,,62,0
11669,note_on,,29,0,8,,,,,,,,,,,,,,,,11,,62,0
11670,note_on,,1,0,7,,,,,,,,,,,,,,,,10,,62,48
11670,note_on,,1,0,8,,,,,,,,,,,,,,,,11,,62,48
11670,note_on,,1,0,9,,,,,,,,,,,,,,,,12,,62,48
11679,note_on,,39,0,6,,,,,,,,,,,,,,,,8,,57,0
11680,note_on,,1,0,6,,,,,,,,,,,,,,,,8,,59,72
11699,note_on,,59,0,11,,,,,,,,,,,,,,,,15,,42,0
11699,note_on,,59,0,10,,,,,,,,,,,,,,,,13,,42,0
11699,note_on,,29,0,7,,,,,,,,,,,,,,,,10,,62,0
11699,note_on,,59,0,5,,,,,,,,,,,,,,,,2,,42,0
11699,note_on,,29,0,9,,,,,,,,,,,,,,,,12,,62,0
11699,note_on,,29,0,8,,,,,,,,,,,,,,,,11,,62,0
11700,note_on,,1,0,8,,,,,,,,,,,,,,,,11,,62,48
11700,note_on,,1,0,7,,,,,,,,,,,,,,,,10,,62,48
11700,note_on,,1,0,11,,,,,,,,,,,,,,,,15,,42,48
11700,note_on,,1,0,9,,,,,,,,,,,,,,,,12,,62,48
11700,note_on,,1,0,5,,,,,,,,,,,,,,,,2,,42,48
11700,note_on,,1,0,10,,,,,,,,,,,,,,,,13,,42,48
11719,note_on,,39,0,6,,,,,,,,,,,,,,,,8,,59,0
11720,note_on,,1,0,6,,,,,,,,,,,,,,,,8,,57,72
11729,note_on,,29,0,7,,,,,,,,,,,,,,,,10,,62,0
11729,note_on,,29,0,8,,,,,,,,,,,,,,,,11,,62,0
11729,note_on,,29,0,9,,,,,,,,,,,,,,,,12,,62,0
11730,note_on,,1,0,9,,,,,,,,,,,,,,,,12,,62,48
11730,note_on,,1,0,8,,,,,,,,,,,,,,,,11,,62,48
11730,note_on,,1,0,7,,,,,,,,,,,,,,,,10,,62,48
11759,note_on,,59,0,10,,,,,,,,,,,,,,,,13,,42,0
11759,note_on,,29,0,8,,,,,,,,,,,,,,,,11,,62,0
11759,note_on,,0,0,11,,,,,,,,,,,,,,,,15,,69,0
11759,note_on,,0,0,11,,,,,,,,,,,,,,,,15,,42,0
11759,note_on,,29,0,7,,,,,,,,,,,,,,,,10,,62,0
11759,note_on,,29,0,9,,,,,,,,,,,,,,,,12,,62,0
11759,note_on,,59,0,11,,,,,,,,,,,,,,,,15,,72,0
11759,note_on,,39,0,6,,,,,,,,,,,,,,,,8,,57,0
11759,note_on,,0,0,11,,,,,,,,,,,,,,,,15,,62,0
11759,note_on,,59,0,5,,,,,,,,,,,,,,,,2,,42,0
11760,note_on,,1,0,7,,,,,,,,,,,,,,,,10,,62,48
11760,note_on,,1,0,9,,,,,,,,,,,,,,,,12,,62,48
11760,note_on,,1,0,8,,,,,,,,,,,,,,,,11,,62,48
11760,note_on,,1,0,11,,,,,,,,,,,,,,,,15,,43,48
11760,note_on,,0,0,11,,,,,,,,,,,,,,,,15,,71,48
11760,note_on,,0,0,11,,,,,,,,,,,,,,,,15,,67,48
11760,note_on,,0,0,11,,,,,,,,,,,,,,,,15,,62,48
11760,note_on,,1,0,5,,,,,,,,,,,,,,,,2,,43,48
11760,note_on,,1,0,6,,,,,,,,,,,,,,,,8,,59,72
11760,note_on,,1,0,10,,,,,,,,,,,,,,,,13,,43,48
11789,note_on,,29,0,7,,,,,,,,,,,,,,,,10,,62,0
11789,note_on,,29,0,8,,,,,,,,,,,,,,,,11,,62,0
11789,note_on,,29,0,9,,,,,,,,,,,,,,,,12,,62,0
11790,note_on,,1,0,8,,,,,,,,,,,,,,,,11,,62,48
11790,note_on,,1,0,7,,,,,,,,,,,,,,,,10,,62,48
11790,note_on,,1,0,9,,,,,,,,,,,,,,,,12,,62,48
11799,note_on,,39,0,6,,,,,,,,,,,,,,,,8,,59,0
11800,note_on,,1,0,6,,,,,,,,,,,,,,,,8,,60,72
11819,note_on,,59,0,5,,,,,,,,,,,,,,,,2,,43,0
11819,note_on,,59,0,10,,,,,,,,,,,,,,,,13,,43,0
11819,note_on,,29,0,9,,,,,,,,,,,,,,,,12,,62,0
11819,note_on,,59,0,11,,,,,,,,,,,,,,,,15,,43,0
11819,note_on,,29,0,8,,,,,,,,,,,,,,,,11,,62,0
11819,note_on,,29,0,7,,,,,,,,,,,,,,,,10,,62,0
11820,note_on,,1,0,5,,,,,,,,,,,,,,,,2,,43,48
11820,note_on,,1,0,8,,,,,,,,,,,,,,,,11,,62,48
11820,note_on,,1,0,7,,,,,,,,,,,,,,,,10,,62,48
11820,note_on,,1,0,9,,,,,,,,,,,,,,,,12,,62,48
11820,note_on,,1,0,10,,,,,,,,,,,,,,,,13,,43,48
11820,note_on,,1,0,11,,,,,,,,,,,,,,,,15,,43,48
11839,note_on,,39,0,6,,,,,,,,,,,,,,,,8,,60,0
11840,note_on,,1,0,6,,,,,,,,,,,,,,,,8,,59,72
11849,note_on,,29,0,7,,,,,,,,,,,,,,,,10,,62,0
11849,note_on,,29,0,8,,,,,,,,,,,,,,,,11,,62,0
11849,note_on,,29,0,9,,,,,,,,,,,,,,,,12,,62,0
11850,note_on,,1,0,7,,,,,,,,,,,,,,,,10,,62,48
11850,note_on,,1,0,9,,,,,,,,,,,,,,,,12,,62,48
11850,note_on,,1,0,8,,,,,,,,,,,,,,,,11,,62,48
11879,note_on,,59,0,5,,,,,,,,,,,,,,,,2,,43,0
11879,note_on,,0,0,11,,,,,,,,,,,,,,,,15,,62,0
11879,note_on,,0,0,11,,,,,,,,,,,,,,,,15,,43,0
11879,note_on,,29,0,9,,,,,,,,,,,,,,,,12,,62,0
11879,note_on,,0,0,11,,,,,,,,,,,,,,,,15,,67,0
11879,note_on,,59,0,11,,,,,,,,,,,,,,,,15,,71,0
11879,note_on,,59,0,10,,,,,,,,,,,,,,,,13,,43,0
11879,note_on,,39,0,6,,,,,,,,,,,,,,,,8,,59,0
11879,note_on,,29,0,7,,,,,,,,,,,,,,,,10,,62,0
11879,note_on,,29,0,8,,,,,,,,,,,,,,,,11,,62,0
11880,note_on,,0,0,11,,,,,,,,,,,,,,,,15,,67,48
11880,note_on,,1,0,6,,,,,,,,,,,,,,,,8,,57,72
11880,note_on,,0,0,11,,,,,,,,,,,,,,,,15,,59,48
11880,note_on,,0,0,11,,,,,,,,,,,,,,,,15,,62,48
11880,note_on,,1,0,11,,,,,,,,,,,,,,,,15,,55,48
11880,note_on,,1,0,7,,,,,,,,,,,,,,,,10,,62,48
11880,note_on,,1,0,8,,,,,,,,,,,,,,,,11,,62,48
11880,note_on,,1,0,5,,,,,,,,,,,,,,,,2,,55,48
11880,note_on,,1,0,10,,,,,,,,,,,,,,,,13,,55,48
11880,note_on,,1,0,9,,,,,,,,,,,,,,,,12,,62,48
11909,note_on,,29,0,7,,,,,,,,,,,,,,,,10,,62,0
11909,note_on,,29,0,8,,,,,,,,,,,,,,,,11,,62,0
11909,note_on,,29,0,9,,,,,,,,,,,,,,,,12,,62,0
11910,note_on,,1,0,7,,,,,,,,,,,,,,,,10,,62,48
11910,note_on,,1,0,8,,,,,,,,,,,,,,,,11,,62,48
11910,note_on,,1,0,9,,,,,,,,,,,,,,,,12,,62,48
11919,note_on,,39,0,6,,,,,,,,,,,,,,,,8,,57,0
11920,note_on,,1,0,6,,,,,,,,,,,,,,,,8,,59,72
11939,note_on,,59,0,10,,,,,,,,,,,,,,,,13,,55,0
11939,note_on,,29,0,8,,,,,,,,,,,,,,,,11,,62,0
11939,note_on,,59,0,5,,,,,,,,,,,,,,,,2,,55,0
11939,note_on,,29,0,7,,,,,,,,,,,,,,,,10,,62,0
11939,note_on,,59,0,11,,,,,,,,,,,,,,,,15,,55,0
11939,note_on,,29,0,9,,,,,,,,,,,,,,,,12,,62,0
11940,note_on,,1,0,8,,,,,,,,,,,,,,,,11,,62,48
11940,note_on,,1,0,7,,,,,,,,,,,,,,,,10,,62,48
11940,note_on,,1,0,5,,,,,,,,,,,,,,,,2,,55,48
11940,note_on,,1,0,10,,,,,,,,,,,,,,,,13,,55,48
11940,note_on,,1,0,11,,,,,,,,,,,,,,,,15,,55,48
11940,note_on,,1,0,9,,,,,,,,,,,,,,,,12,,62,48
11959,note_on,,39,0,6,,,,,,,,,,,,,,,,8,,59,0
11960,note_on,,1,0,6,,,,,,,,,,,,,,,,8,,55,72
11969,note_on,,29,0,7,,,,,,,,,,,,,,,,10,,62,0
11969,note_on,,29,0,8,,,,,,,,,,,,,,,,11,,62,0
11969,note_on,,29,0,9,,,,,,,,,,,,,,,,12,,62,0
11970,note_on,,1,0,8,,,,,,,,,,,,,,,,11,,62,48
11970,note_on,,1,0,7,,,,,,,,,,,,,,,,10,,62,48
11970,note_on,,1,0,9,,,,,,,,,,,,,,,,12,,62,48
11999,note_on,,59,0,5,,,,,,,,,,,,,,,,2,,55,0
11999,note_on,,59,0,10,,,,,,,,,,,,,,,,13,,55,0
11999,note_on,,29,0,7,,,,,,,,,,,,,,,,10,,62,0
11999,note_on,,59,0,11,,,,,,,,,,,,,,,,15,,62,0
11999,note_on,,0,0,11,,,,,,,,,,,,,,,,15,,55,0
11999,note_on,,29,0,9,,,,,,,,,,,,,,,,12,,62,0
11999,note_on,,29,0,8,,,,,,,,,,,,,,,,11,,62,0
11999,note_on,,39,0,6,,,,,,,,,,,,,,,,8,,55,0
11999,note_on,,0,0,11,,,,,,,,,,,,,,,,15,,67,0
11999,note_on,,0,0,11,,,,,,,,,,,,,,,,15,,59,0
12000,note_on,,1,0,6,,,,,,,,,,,,,,,,8,,62,72
12000,note_on,,1,0,7,,,,,,,,,,,,,,,,10,,62,48
12000,note_on,,1,0,5,,,,,,,,,,,,,,,,2,,50,48
12000,note_on,,1,0,9,,,,,,,,,,,,,,,,12,,62,48
12000,note_on,,0,0,11,,,,,,,,,,,,,,,,15,,57,48
12000,note_on,,0,0,11,,,,,,,,,,,,,,,,15,,62,48
12000,note_on,,0,0,11,,,,,,,,,,,,,,,,15,,66,48
12000,note_on,,1,0,11,,,,,,,,,,,,,,,,15,,50,48
12000,note_on,,1,0,8,,,,,,,,,,,,,,,,11,,62,48
12000,note_on,,1,0,10,,,,,,,,,,,,,,,,13,,50,48
12029,note_on,,29,0,7,,,,,,,,,,,,,,,,10,,62,0
12029,note_on,,29,0,8,,,,,,,,,,,,,,,,11,,62,0
12029,note_on,,29,0,9,,,,,,,,,,,,,,,,12,,62,0
12030,note_on,,1,0,7,,,,,,,,,,,,,,,,10,,62,48
12030,note_on,,1,0,9,,,,,,,,,,,,,,,,12,,62,48
12030,note_on,,1,0,8,,,,,,,,,,,,,,,,11,,62,48
12059,note_on,,59,0,11,,,,,,,,,,,,,,,,15,,50,0
12059,note_on,,59,0,5,,,,,,,,,,,,,,,,2,,50,0
12059,note_on,,29,0,9,,,,,,,,,,,,,,,,12,,62,0
12059,note_on,,29,0,7,,,,,,,,,,,,,,,,10,,62,0
12059,note_on,,29,0,8,,,,,,,,,,,,,,,,11,,62,0
12059,note_on,,59,0,10,,,,,,,,,,,,,,,,13,,50,0
12060,note_on,,1,0,11,,,,,,,,,,,,,,,,15,,50,48
12060,note_on,,1,0,7,,,,,,,,,,,,,,,,10,,81,48
12060,note_on,,1,0,10,,,,,,,,,,,,,,,,13,,50,48
12060,note_on,,1,0,8,,,,,,,,,,,,,,,,11,,78,48
12060,note_on,,1,0,5,,,,,,,,,,,,,,,,2,,50,48
12060,note_on,,1,0,9,,,,,,,,,,,,,,,,12,,62,48
12089,note_on,,29,0,7,,,,,,,,,,,,,,,,10,,81,0
12089,note_on,,29,0,9,,,,,,,,,,,,,,,,12,,62,0
12089,note_on,,29,0,8,,,,,,,,,,,,,,,,11,,78,0
12090,note_on,,1,0,9,,,,,,,,,,,,,,,,12,,62,48
12090,note_on,,1,0,8,,,,,,,,,,,,,,,,11,,78,48
12090,note_on,,1,0,7,,,,,,,,,,,,,,,,10,,81,48
12119,note_on,,29,0,7,,,,,,,,,,,,,,,,10,,81,0
12119,note_on,,59,0,5,,,,,,,,,,,,,,,,2,,50,0
12119,note_on,,29,0,8,,,,,,,,,,,,,,,,11,,78,0
12119,note_on,,29,0,9,,,,,,,,,,,,,,,,12,,62,0
12119,note_on,,59,0,10,,,,,,,,,,,,,,,,13,,50,0
12119,note_on,,59,0,11,,,,,,,,,,,,,,,,15,,50,0
12120,note_on,,1,0,8,,,,,,,,,,,,,,,,11,,79,48
12120,note_on,,1,0,5,,,,,,,,,,,,,,,,2,,50,48
12120,note_on,,1,0,7,,,,,,,,,,,,,,,,10,,83,48
12120,note_on,,1,0,11,,,,,,,,,,,,,,,,15,,50,48
12120,note_on,,1,0,10,,,,,,,,,,,,,,,,13,,50,48
12120,note_on,,1,0,9,,,,,,,,,,,,,,,,12,,62,48
12149,note_on,,29,0,8,,,,,,,,,,,,,,,,11,,79,0
12149,note_on,,29,0,7,,,,,,,,,,,,,,,,10,,83,0
12149,note_on,,29,0,9,,,,,,,,,,,,,,,,12,,62,0
12150,note_on,,1,0,8,,,,,,,,,,,,,,,,11,,79,48
12150,note_on,,1,0,7,,,,,,,,,,,,,,,,10,,83,48
12150,note_on,,1,0,9,,,,,,,,,,,,,,,,12,,62,48
12179,note_on,,59,0,11,,,,,,,,,,,,,,,,15,,50,0
12179,note_on,,59,0,10,,,,,,,,,,,,,,,,13,,50,0
12179,note_on,,29,0,9,,,,,,,,,,,,,,,,12,,62,0
12179,note_on,,29,0,7,,,,,,,,,,,,,,,,10,,83,0
12179,note_on,,59,0,5,,,,,,,,,,,,,,,,2,,50,0
12179,note_on,,29,0,8,,,,,,,,,,,,,,,,11,,79,0
12180,note_on,,1,0,8,,,,,,,,,,,,,,,,11,,76,48
12180,note_on,,1,0,7,,,,,,,,,,,,,,,,10,,85,48
12180,note_on,,1,0,11,,,,,,,,,,,,,,,,15,,50,48
12180,note_on,,1,0,5,,,,,,,,,,,,,,,,2,,50,48
12180,note_on,,1,0,10,,,,,,,,,,,,,,,,13,,50,48
12180,note_on,,1,0,9,,,,,,,,,,,,,,,,12,,62,48
12209,note_on,,29,0,7,,,,,,,,,,,,,,,,10,,85,0
12209,note_on,,29,0,9,,,,,,,,,,,,,,,,12,,62,0
12209,note_on,,29,0,8,,,,,,,,,,,,,,,,11,,76,0
12210,note_on,,1,0,8,,,,,,,,,,,,,,,,11,,76,48
12210,note_on,,1,0,7,,,,,,,,,,,,,,,,10,,85,48
12210,note_on,,1,0,9,,,,,,,,,,,,,,,,12,,62,48
12239,note_on,,239,0,6,,,,,,,,,,,,,,,,8,,62,0
12239,note_on,,59,0,5,,,,,,,,,,,,,,,,2,,50,0
12239,note_on,,59,0,10,,,,,,,,,,,,,,,,13,,50,0
12239,note_on,,29,0,8,,,,,,,,,,,,,,,,11,,76,0
12239,note_on,,0,0,11,,,,,,,,,,,,,,,,15,,50,0
12239,note_on,,0,0,11,,,,,,,,,,,,,,,,15,,62,0
12239,note_on,,59,0,11,,,,,,,,,,,,,,,,15,,66,0
12239,note_on,,29,0,9,,,,,,,,,,,,,,,,12,,62,0
12239,note_on,,29,0,7,,,,,,,,,,,,,,,,10,,85,0
12239,note_on,,0,0,11,,,,,,,,,,,,,,,,15,,57,0
12240,note_on,,1,0,9,,,,,,,,,,,,,,,,12,,62,48
12240,note_on,,1,0,10,,,,,,,,,,,,,,,,13,,50,48
12240,note_on,,1,0,5,,,,,,,,,,,,,,,,2,,50,48
12240,note_on,,1,0,8,,,,,,,,,,,,,,,,11,,78,48
12240,note_on,,1,0,7,,,,,,,,,,,,,,,,10,,86,48
12240,note_on,,0,0,11,,,,,,,,,,,,,,,,15,,69,48
12240,note_on,,1,0,11,,,,,,,,,,,,,,,,15,,50,48
12240,note_on,,0,0,11,,,,,,,,,,,,,,,,15,,57,48
12240,note_on,,0,0,11,,,,,,,,,,,,,,,,15,,62,48
12240,note_on,,0,0,11,,,,,,,,,,,,,,,,15,,66,48
12269,note_on,,29,0,9,,,,,,,,,,,,,,,,12,,62,0
12270,note_on,,1,0,9,,,,,,,,,,,,,,,,12,,62,48
12299,note_on,,59,0,7,,,,,,,,,,,,,,,,10,,86,0
12299,note_on,,59,0,11,,,,,,,,,,,,,,,,15,,50,0
12299,note_on,,59,0,8,,,,,,,,,,,,,,,,11,,78,0
12299,note_on,,59,0,10,,,,,,,,,,,,,,,,13,,50,0
12299,note_on,,59,0,5,,,,,,,,,,,,,,,,2,,50,0
12299,note_on,,29,0,9,,,,,,,,,,,,,,,,12,,62,0
12300,note_on,,1,0,10,,,,,,,,,,,,,,,,13,,50,48
12300,note_on,,1,0,7,,,,,,,,,,,,,,,,10,,69,48
12300,note_on,,1,0,11,,,,,,,,,,,,,,,,15,,50,48
12300,note_on,,1,0,8,,,,,,,,,,,,,,,,11,,66,48
12300,note_on,,1,0,5,,,,,,,,,,,,,,,,2,,50,48
12300,note_on,,1,0,9,,,,,,,,,,,,,,,,12,,62,48
12329,note_on,,29,0,8,,,,,,,,,,,,,,,,11,,66,0
12329,note_on,,29,0,9,,,,,,,,,,,,,,,,12,,62,0
12329,note_on,,29,0,7,,,,,,,,,,,,,,,,10,,69,0
12330,note_on,,1,0,8,,,,,,,,,,,,,,,,11,,66,48
12330,note_on,,1,0,9,,,,,,,,,,,,,,,,12,,62,48
12330,note_on,,1,0,7,,,,,,,,,,,,,,,,10,,69,48
12359,note_on,,59,0,10,,,,,,,,,,,,,,,,13,,50,0
12359,note_on,,59,0,5,,,,,,,,,,,,,,,,2,,50,0
12359,note_on,,29,0,8,,,,,,,,,,,,,,,,11,,66,0
12359,note_on,,29,0,7,,,,,,,,,,,,,,,,10,,69,0
12359,note_on,,59,0,11,,,,,,,,,,,,,,,,15,,50,0
12359,note_on,,29,0,9,,,,,,,,,,,,,,,,12,,62,0
12360,note_on,,1,0,7,,,,,,,,,,,,,,,,10,,71,48
12360,note_on,,1,0,10,,,,,,,,,,,,,,,,13,,50,48
12360,note_on,,1,0,9,,,,,,,,,,,,,,,,12,,62,48
12360,note_on,,1,0,8,,,,,,,,,,,,,,,,11,,67,48
12360,note_on,,121,0,6,,,,,,,,,,,,,,,,8,,50,72
12360,note_on,,1,0,5,,,,,,,,,,,,,,,,2,,50,48
12360,note_on,,1,0,11,,,,,,,,,,,,,,,,15,,50,48
12389,note_on,,29,0,9,,,,,,,,,,,,,,,,12,,62,0
12389,note_on,,29,0,8,,,,,,,,,,,,,,,,11,,67,0
12389,note_on,,29,0,7,,,,,,,,,,,,,,,,10,,71,0
12390,note_on,,1,0,9,,,,,,,,,,,,,,,,12,,62,48
12390,note_on,,1,0,7,,,,,,,,,,,,,,,,10,,71,48
12390,note_on,,1,0,8,,,,,,,,,,,,,,,,11,,67,48
12419,note_on,,29,0,7,,,,,,,,,,,,,,,,10,,71,0
12419,note_on,,29,0,9,,,,,,,,,,,,,,,,12,,62,0
12419,note_on,,59,0,5,,,,,,,,,,,,,,,,2,,50,0
12419,note_on,,59,0,10,,,,,,,,,,,,,,,,13,,50,0
12419,note_on,,59,0,11,,,,,,,,,,,,,,,,15,,50,0
12419,note_on,,29,0,8,,,,,,,,,,,,,,,,11,,67,0
12420,note_on,,1,0,7,,,,,,,,,,,,,,,,10,,73,48
12420,note_on,,1,0,9,,,,,,,,,,,,,,,,12,,62,48
12420,note_on,,1,0,8,,,,,,,,,,,,,,,,11,,64,48
12420,note_on,,1,0,5,,,,,,,,,,,,,,,,2,,50,48
12420,note_on,,1,0,11,,,,,,,,,,,,,,,,15,,50,48
12420,note_on,,1,0,10,,,,,,,,,,,,,,,,13,,50,48
12449,note_on,,29,0,7,,,,,,,,,,,,,,,,10,,73,0
12449,note_on,,29,0,8,,,,,,,,,,,,,,,,11,,64,0
12449,note_on,,29,0,9,,,,,,,,,,,,,,,,12,,62,0
12450,note_on,,1,0,9,,,,,,,,,,,,,,,,12,,62,48
12450,note_on,,1,0,8,,,,,,,,,,,,,,,,11,,64,48
12450,note_on,,1,0,7,,,,,,,,,,,,,,,,10,,73,48
12479,note_on,,0,0,11,,,,,,,,,,,,,,,,15,,69,0
12479,note_on,,59,0,5,,,,,,,,,,,,,,,,2,,50,0
12479,note_on,,29,0,8,,,,,,,,,,,,,,,,11,,64,0
12479,note_on,,59,0,11,,,,,,,,,,,,,,,,15,,57,0
12479,note_on,,29,0,9,,,,,,,,,,,,,,,,12,,62,0
12479,note_on,,59,0,10,,,,,,,,,,,,,,,,13,,50,0
12479,note_on,,0,0,11,,,,,,,,,,,,,,,,15,,62,0
12479,note_on,,0,0,11,,,,,,,,,,,,,,,,15,,66,0
12479,note_on,,119,0,6,,,,,,,,,,,,,,,,8,,50,0
12479,note_on,,0,0,11,,,,,,,,,,,,,,,,15,,50,0
12479,note_on,,29,0,7,,,,,,,,,,,,,,,,10,,73,0
12480,note_on,,1,0,11,,,,,,,,,,,,,,,,15,,62,48
12480,note_on,,1,0,9,,,,,,,,,,,,,,,,12,,62,48
12480,note_on,,0,0,11,,,,,,,,,,,,,,,,15,,74,48
12480,note_on,,0,0,11,,,,,,,,,,,,,,,,15,,57,48
12480,note_on,,1,0,10,,,,,,,,,,,,,,,,13,,62,48
12480,note_on,,1,0,7,,,,,,,,,,,,,,,,10,,74,48
12480,note_on,,0,0,11,,,,,,,,,,,,,,,,15,,54,48
12480,note_on,,1,0,8,,,,,,,,,,,,,,,,11,,74,48
12480,note_on,,1,0,5,,,,,,,,,,,,,,,,2,,62,48
12480,note_on,,0,0,11,,,,,,,,,,,,,,,,15,,66,48
12480,note_on,,0,0,11,,,,,,,,,,,,,,,,15,,50,48
12480,note_on,,1,0,6,,,,,,,,,,,,,,,,8,,62,72
12480,note_on,,0,0,11,,,,,,,,,,,,,,,,15,,69,48
12599,note_on,,0,0,11,,,,,,,,,,,,,,,,15,,50,0
12599,note_on,,119,0,5,,,,,,,,,,,,,,,,2,,62,0
12599,note_on,,119,0,8,,,,,,,,,,,,,,,,11,,74,0
12599,note_on,,0,0,11,,,,,,,,,,,,,,,,15,,74,0
12599,note_on,,119,0,7,,,,,,,,,,,,,,,,10,,74,0
12599,note_on,,0,0,11,,,,,,,,,,,,,,,,15,,57,0
12599,note_on,,119,0,9,,,,,,,,,,,,,,,,12,,62,0
12599,note_on,,119,0,10,,,,,,,,,,,,,,,,13,,62,0
12599,note_on,,119,0,11,,,,,,,,,,,,,,,,15,,62,0
12599,note_on,,0,0,11,,,,,,,,,,,,,,,,15,,69,0
12599,note_on,,119,0,6,,,,,,,,,,,,,,,,8,,62,0
12599,note_on,,0,0,11,,,,,,,,,,,,,,,,15,,54,0
12599,note_on,,0,0,11,,,,,,,,,,,,,,,,15,,66,0
12600,note_on,,1,0,5,,,,,,,,,,,,,,,,2,,61,48
12600,note_on,,1,0,10,,,,,,,,,,,,,,,,13,,61,48
12600,note_on,,1,0,6,,,,,,,,,,,,,,,,8,,61,72
12600,note_on,,0,0,11,,,,,,,,,,,,,,,,15,,73,48
12600,note_on,,1,0,11,,,,,,,,,,,,,,,,15,,61,48
12600,note_on,,1,0,7,,,,,,,,,,,,,,,,10,,73,48
12600,note_on,,1,0,8,,,,,,,,,,,,,,,,11,,73,48
12600,note_on,,1,0,9,,,,,,,,,,,,,,,,12,,61,48
12659,note_on,,59,0,7,,,,,,,,,,,,,,,,10,,73,0
12659,note_on,,59,0,10,,,,,,,,,,,,,,,,13,,61,0
12659,note_on,,59,0,5,,,,,,,,,,,,,,,,2,,61,0
12659,note_on,,59,0,11,,,,,,,,,,,,,,,,15,,61,0
12659,note_on,,59,0,6,,,,,,,,,,,,,,,,8,,61,0
12659,note_on,,0,0,11,,,,,,,,,,,,,,,,15,,73,0
12659,note_on,,59,0,8,,,,,,,,,,,,,,,,11,,73,0
12659,note_on,,59,0,9,,,,,,,,,,,,,,,,12,,61,0
12660,note_on,,1,0,9,,,,,,,,,,,,,,,,12,,59,48
12660,note_on,,1,0,7,,,,,,,,,,,,,,,,10,,71,48
12660,note_on,,1,0,5,,,,,,,,,,,,,,,,2,,59,48
12660,note_on,,0,0,11,,,,,,,,,,,,,,,,15,,71,48
12660,note_on,,1,0,11,,,,,,,,,,,,,,,,15,,59,48
12660,note_on,,1,0,10,,,,,,,,,,,,,,,,13,,59,48
12660,note_on,,1,0,8,,,,,,,,,,,,,,,,11,,71,48
12660,note_on,,1,0,6,,,,,,,,,,,,,,,,8,,59,72
12719,note_on,,59,0,10,,,,,,,,,,,,,,,,13,,59,0
12719,note_on,,59,0,6,,,,,,,,,,,,,,,,8,,59,0
12719,note_on,,59,0,5,,,,,,,,,,,,,,,,2,,59,0
12719,note_on,,59,0,9,,,,,,,,,,,,,,,,12,,59,0
12719,note_on,,59,0,7,,,,,,,,,,,,,,,,10,,71,0
12719,note_on,,59,0,8,,,,,,,,,,,,,,,,11,,71,0
12719,note_on,,0,0,11,,,,,,,,,,,,,,,,15,,71,0
12719,note_on,,59,0,11,,,,,,,,,,,,,,,,15,,59,0
12720,note_on,,1,0,6,,,,,,,,,,,,,,,,8,,57,72
12720,note_on,,1,0,7,,,,,,,,,,,,,,,,10,,69,48
12720,note_on,,1,0,11,,,,,,,,,,,,,,,,15,,57,48
12720,note_on,,1,0,5,,,,,,,,,,,,,,,,2,,57,48
12720,note_on,,1,0,10,,,,,,,,,,,,,,,,13,,57,48
12720,note_on,,1,0,9,,,,,,,,,,,,,,,,12,,57,48
12720,note_on,,0,0,11,,,,,,,,,,,,,,,,15,,69,48
12720,note_on,,1,0,8,,,,,,,,,,,,,,,,11,,69,48
12779,note_on,,59,0,10,,,,,,,,,,,,,,,,13,,57,0
12779,note_on,,59,0,11,,,,,,,,,,,,,,,,15,,57,0
12779,note_on,,0,0,11,,,,,,,,,,,,,,,,15,,69,0
12779,note_on,,59,0,8,,,,,,,,,,,,,,,,11,,69,0
12779,note_on,,59,0,5,,,,,,,,,,,,,,,,2,,57,0
12779,note_on,,59,0,6,,,,,,,,,,,,,,,,8,,57,0
12779,note_on,,59,0,7,,,,,,,,,,,,,,,,10,,69,0
12779,note_on,,59,0,9,,,,,,,,,,,,,,,,12,,57,0
12780,note_on,,1,0,9,,,,,,,,,,,,,,,,12,,55,48
12780,note_on,,1,0,8,,,,,,,,,,,,,,,,11,,67,48
12780,note_on,,1,0,6,,,,,,,,,,,,,,,,8,,55,72
12780,note_on,,1,0,5,,,,,,,,,,,,,,,,2,,55,48
12780,note_on,,1,0,7,,,,,,,,,,,,,,,,10,,67,48
12780,note_on,,0,0,11,,,,,,,,,,,,,,,,15,,67,48
12780,note_on,,1,0,11,,,,,,,,,,,,,,,,15,,55,48
12780,note_on,,1,0,10,,,,,,,,,,,,,,,,13,,55,48
12839,note_on,,59,0,10,,,,,,,,,,,,,,,,13,,55,0
12839,note_on,,59,0,6,,,,,,,,,,,,,,,,8,,55,0
12839,note_on,,59,0,9,,,,,,,,,,,,,,,,12,,55,0
12839,note_on,,59,0,7,,,,,,,,,,,,,,,,10,,67,0
12839,note_on,,0,0,11,,,,,,,,,,,,,,,,15,,67,0
12839,note_on,,59,0,11,,,,,,,,,,,,,,,,15,,55,0
12839,note_on,,59,0,8,,,,,,,,,,,,,,,,11,,67,0
12839,note_on,,59,0,5,,,,,,,,,,,,,,,,2,,55,0
12840,note_on,,1,0,7,,,,,,,,,,,,,,,,10,,66,48
12840,note_on,,1,0,8,,,,,,,,,,,,,,,,11,,66,48
12840,note_on,,0,0,11,,,,,,,,,,,,,,,,15,,66,48
12840,note_on,,1,0,9,,,,,,,,,,,,,,,,12,,54,48
12840,note_on,,1,0,10,,,,,,,,,,,,,,,,13,,54,48
12840,note_on,,1,0,11,,,,,,,,,,,,,,,,15,,54,48
12840,note_on,,1,0,6,,,,,,,,,,,,,,,,8,,54,72
12840,note_on,,1,0,5,,,,,,,,,,,,,,,,2,,54,48
12899,note_on,,59,0,8,,,,,,,,,,,,,,,,11,,66,0
12899,note_on,,59,0,11,,,,,,,,,,,,,,,,15,,54,0
12899,note_on,,0,0,11,,,,,,,,,,,,,,,,15,,66,0
12899,note_on,,59,0,5,,,,,,,,,,,,,,,,2,,54,0
12899,note_on,,59,0,7,,,,,,,,,,,,,,,,10,,66,0
12899,note_on,,59,0,9,,,,,,,,,,,,,,,,12,,54,0
12899,note_on,,59,0,10,,,,,,,,,,,,,,,,13,,54,0
12899,note_on,,59,0,6,,,,,,,,,,,,,,,,8,,54,0
12900,note_on,,1,0,8,,,,,,,,,,,,,,,,11,,64,48
12900,note_on,,1,0,6,,,,,,,,,,,,,,,,8,,52,72
12900,note_on,,1,0,5,,,,,,,,,,,,,,,,2,,52,48
12900,note_on,,0,0,11,,,,,,,,,,,,,,,,15,,64,48
12900,note_on,,1,0,9,,,,,,,,,,,,,,,,12,,52,48
12900,note_on,,1,0,10,,,,,,,,,,,,,,,,13,,52,48
12900,note_on,,1,0,7,,,,,,,,,,,,,,,,10,,64,48
12900,note_on,,1,0,11,,,,,,,,,,,,,,,,15,,52,48
12959,note_on,,59,0,5,,,,,,,,,,,,,,,,2,,52,0
12959,note_on,,59,0,11,,,,,,,,,,,,,,,,15,,52,0
12959,note_on,,0,0,11,,,,,,,,,,,,,,,,15,,64,0
12959,note_on,,59,0,10,,,,,,,,,,,,,,,,13,,52,0
12959,note_on,,59,0,7,,,,,,,,,,,,,,,,10,,64,0
12959,note_on,,59,0,8,,,,,,,,,,,,,,,,11,,64,0
12959,note_on,,59,0,9,,,,,,,,,,,,,,,,12,,52,0
12959,note_on,,59,0,6,,,,,,,,,,,,,,,,8,,52,0
12960,note_on,,1,0,6,,,,,,,,,,,,,,,,8,,50,72
12960,note_on,,0,0,11,,,,,,,,,,,,,,,,15,,54,48
12960,note_on,,1,0,10,,,,,,,,,,,,,,,,13,,50,48
12960,note_on,,0,0,11,,,,,,,,,,,,,,,,15,,57,48
12960,note_on,,0,0,11,,,,,,,,,,,,,,,,15,,62,48
12960,note_on,,1,0,11,,,,,,,,,,,,,,,,15,,50,48
12960,note_on,,1,0,9,,,,,,,,,,,,,,,,12,,62,48
12960,note_on,,1,0,5,,,,,,,,,,,,,,,,2,,50,48
12960,note_on,,1,0,7,,,,,,,,,,,,,,,,10,,62,48
12960,note_on,,1,0,8,,,,,,,,,,,,,,,,11,,62,48
12989,note_on,,29,0,9,,,,,,,,,,,,,,,,12,,62,0
12990,note_on,,1,0,9,,,,,,,,,,,,,,,,12,,62,48
13019,note_on,,59,0,10,,,,,,,,,,,,,,,,13,,50,0
13019,note_on,,59,0,8,,,,,,,,,,,,,,,,11,,62,0
13019,note_on,,59,0,5,,,,,,,,,,,,,,,,2,,50,0
13019,note_on,,59,0,7,,,,,,,,,,,,,,,,10,,62,0
13019,note_on,,59,0,11,,,,,,,,,,,,,,,,15,,50,0
13019,note_on,,29,0,9,,,,,,,,,,,,,,,,12,,62,0
13020,note_on,,1,0,9,,,,,,,,,,,,,,,,12,,62,48
13020,note_on,,1,0,5,,,,,,,,,,,,,,,,2,,50,48
13020,note_on,,1,0,11,,,,,,,,,,,,,,,,15,,50,48
13020,note_on,,1,0,8,,,,,,,,,,,,,,,,11,,78,48
13020,note_on,,1,0,10,,,,,,,,,,,,,,,,13,,50,48
13020,note_on,,1,0,7,,,,,,,,,,,,,,,,10,,81,48
13049,note_on,,29,0,9,,,,,,,,,,,,,,,,12,,62,0
13049,note_on,,29,0,7,,,,,,,,,,,,,,,,10,,81,0
13049,note_on,,29,0,8,,,,,,,,,,,,,,,,11,,78,0
13050,note_on,,1,0,8,,,,,,,,,,,,,,,,11,,78,48
13050,note_on,,1,0,9,,,,,,,,,,,,,,,,12,,62,48
13050,note_on,,1,0,7,,,,,,,,,,,,,,,,10,,81,48
13079,note_on,,29,0,7,,,,,,,,,,,,,,,,10,,81,0
13079,note_on,,59,0,10,,,,,,,,,,,,,,,,13,,50,0
13079,note_on,,119,0,6,,,,,,,,,,,,,,,,8,,50,0
13079,note_on,,59,0,11,,,,,,,,,,,,,,,,15,,50,0
13079,note_on,,59,0,5,,,,,,,,,,,,,,,,2,,50,0
13079,note_on,,29,0,9,,,,,,,,,,,,,,,,12,,62,0
13079,note_on,,29,0,8,,,,,,,,,,,,,,,,11,,78,0
13080,note_on,,1,0,9,,,,,,,,,,,,,,,,12,,62,48
13080,note_on,,1,0,8,,,,,,,,,,,,,,,,11,,79,48
13080,note_on,,1,0,11,,,,,,,,,,,,,,,,15,,50,48
13080,note_on,,1,0,6,,,,,,,,,,,,,,,,8,,50,72
13080,note_on,,1,0,7,,,,,,,,,,,,,,,,10,,83,48
13080,note_on,,1,0,5,,,,,,,,,,,,,,,,2,,50,48
13080,note_on,,1,0,10,,,,,,,,,,,,,,,,13,,50,48
13109,note_on,,29,0,8,,,,,,,,,,,,,,,,11,,79,0
13109,note_on,,29,0,9,,,,,,,,,,,,,,,,12,,62,0
13109,note_on,,29,0,7,,,,,,,,,,,,,,,,10,,83,0
13110,note_on,,1,0,9,,,,,,,,,,,,,,,,12,,62,48
13110,note_on,,1,0,7,,,,,,,,,,,,,,,,10,,83,48
13110,note_on,,1,0,8,,,,,,,,,,,,,,,,11,,79,48
13139,note_on,,29,0,9,,,,,,,,,,,,,,,,12,,62,0
13139,note_on,,29,0,7,,,,,,,,,,,,,,,,10,,83,0
13139,note_on,,59,0,5,,,,,,,,,,,,,,,,2,,50,0
13139,note_on,,29,0,8,,,,,,,,,,,,,,,,11,,79,0
13139,note_on,,59,0,10,,,,,,,,,,,,,,,,13,,50,0
13139,note_on,,59,0,11,,,,,,,,,,,,,,,,15,,50,0
13140,note_on,,1,0,8,,,,,,,,,,,,,,,,11,,76,48
13140,note_on,,1,0,9,,,,,,,,,,,,,,,,12,,62,48
13140,note_on,,1,0,5,,,,,,,,,,,,,,,,2,,50,48
13140,note_on,,1,0,10,,,,,,,,,,,,,,,,13,,50,48
13140,note_on,,1,0,11,,,,,,,,,,,,,,,,15,,50,48
13140,note_on,,1,0,7,,,,,,,,,,,,,,,,10,,85,48
13169,note_on,,29,0,8,,,,,,,,,,,,,,,,11,,76,0
13169,note_on,,29,0,7,,,,,,,,,,,,,,,,10,,85,0
13169,note_on,,29,0,9,,,,,,,,,,,,,,,,12,,62,0
13170,note_on,,1,0,8,,,,,,,,,,,,,,,,11,,76,48
13170,note_on,,1,0,7,,,,,,,,,,,,,,,,10,,85,48
13170,note_on,,1,0,9,,,,,,,,,,,,,,,,12,,62,48
13199,note_on,,59,0,10,,,,,,,,,,,,,,,,13,,50,0
13199,note_on,,29,0,8,,,,,,,,,,,,,,,,11,,76,0
13199,note_on,,0,0,11,,,,,,,,,,,,,,,,15,,54,0
13199,note_on,,29,0,9,,,,,,,,,,,,,,,,12,,62,0
13199,note_on,,0,0,11,,,,,,,,,,,,,,,,15,,57,0
13199,note_on,,0,0,11,,,,,,,,,,,,,,,,15,,50,0
13199,note_on,,29,0,7,,,,,,,,,,,,,,,,10,,85,0
13199,note_on,,59,0,11,,,,,,,,,,,,,,,,15,,62,0
13199,note_on,,119,0,6,,,,,,,,,,,,,,,,8,,50,0
13199,note_on,,59,0,5,,,,,,,,,,,,,,,,2,,50,0
13200,note_on,,1,0,10,,,,,,,,,,,,,,,,13,,50,48
13200,note_on,,0,0,11,,,,,,,,,,,,,,,,15,,57,48
13200,note_on,,1,0,9,,,,,,,,,,,,,,,,12,,62,48
13200,note_on,,1,0,5,,,,,,,,,,,,,,,,2,,50,48
13200,note_on,,1,0,8,,,,,,,,,,,,,,,,11,,78,48
13200,note_on,,0,0,11,,,,,,,,,,,,,,,,15,,62,48
13200,note_on,,1,0,7,,,,,,,,,,,,,,,,10,,86,48
13200,note_on,,1,0,11,,,,,,,,,,,,,,,,15,,50,48
13200,note_on,,0,0,11,,,,,,,,,,,,,,,,15,,66,48
13229,note_on,,29,0,9,,,,,,,,,,,,,,,,12,,62,0
13230,note_on,,1,0,9,,,,,,,,,,,,,,,,12,,62,48
13259,note_on,,59,0,11,,,,,,,,,,,,,,,,15,,50,0
13259,note_on,,59,0,10,,,,,,,,,,,,,,,,13,,50,0
13259,note_on,,59,0,7,,,,,,,,,,,,,,,,10,,86,0
13259,note_on,,59,0,8,,,,,,,,,,,,,,,,11,,78,0
13259,note_on,,29,0,9,,,,,,,,,,,,,,,,12,,62,0
13259,note_on,,59,0,5,,,,,,,,,,,,,,,,2,,50,0
13260,note_on,,1,0,7,,,,,,,,,,,,,,,,10,,74,48
13260,note_on,,1,0,11,,,,,,,,,,,,,,,,15,,50,48
13260,note_on,,1,0,10,,,,,,,,,,,,,,,,13,,50,48
13260,note_on,,1,0,5,,,,,,,,,,,,,,,,2,,50,48
13260,note_on,,1,0,8,,,,,,,,,,,,,,,,11,,74,48
13260,note_on,,1,0,9,,,,,,,,,,,,,,,,12,,66,48
13289,note_on,,29,0,7,,,,,,,,,,,,,,,,10,,74,0
13289,note_on,,29,0,8,,,,,,,,,,,,,,,,11,,74,0
13289,note_on,,29,0,9,,,,,,,,,,,,,,,,12,,66,0
13290,note_on,,1,0,9,,,,,,,,,,,,,,,,12,,66,48
13290,note_on,,1,0,8,,,,,,,,,,,,,,,,11,,74,48
13290,note_on,,1,0,7,,,,,,,,,,,,,,,,10,,74,48
13319,note_on,,0,0,11,,,,,,,,,,,,,,,,15,,62,0
13319,note_on,,29,0,8,,,,,,,,,,,,,,,,11,,74,0
13319,note_on,,59,0,11,,,,,,,,,,,,,,,,15,,66,0
13319,note_on,,0,0,11,,,,,,,,,,,,,,,,15,,57,0
13319,note_on,,0,0,11,,,,,,,,,,,,,,,,15,,50,0
13319,note_on,,59,0,5,,,,,,,,,,,,,,,,2,,50,0
13319,note_on,,29,0,9,,,,,,,,,,,,,,,,12,,66,0
13319,note_on,,59,0,10,,,,,,,,,,,,,,,,13,,50,0
13319,note_on,,29,0,7,,,,,,,,,,,,,,,,10,,74,0
13320,note_on,,1,0,11,,,,,,,,,,,,,,,,15,,50,48
13320,note_on,,1,0,10,,,,,,,,,,,,,,,,13,,50,48
13320,note_on,,0,0,11,,,,,,,,,,,,,,,,15,,66,48
13320,note_on,,0,0,11,,,,,,,,,,,,,,,,15,,62,48
13320,note_on,,1,0,8,,,,,,,,,,,,,,,,11,,78,48
13320,note_on,,1,0,7,,,,,,,,,,,,,,,,10,,78,48
13320,note_on,,1,0,9,,,,,,,,,,,,,,,,12,,69,48
13320,note_on,,1,0,5,,,,,,,,,,,,,,,,2,,50,48
13320,note_on,,0,0,11,,,,,,,,,,,,,,,,15,,69,48
13349,note_on,,29,0,8,,,,,,,,,,,,,,,,11,,78,0
13349,note_on,,29,0,9,,,,,,,,,,,,,,,,12,,69,0
13349,note_on,,29,0,7,,,,,,,,,,,,,,,,10,,78,0
13350,note_on,,1,0,9,,,,,,,,,,,,,,,,12,,69,48
13350,note_on,,1,0,8,,,,,,,,,,,,,,,,11,,78,48
13350,note_on,,1,0,7,,,,,,,,,,,,,,,,10,,78,48
13379,note_on,,59,0,5,,,,,,,,,,,,,,,,2,,50,0
13379,note_on,,59,0,11,,,,,,,,,,,,,,,,15,,50,0
13379,note_on,,29,0,8,,,,,,,,,,,,,,,,11,,78,0
13379,note_on,,29,0,7,,,,,,,,,,,,,,,,10,,78,0
13379,note_on,,59,0,10,,,,,,,,,,,,,,,,13,,50,0
13379,note_on,,29,0,9,,,,,,,,,,,,,,,,12,,69,0
13380,note_on,,1,0,7,,,,,,,,,,,,,,,,10,,81,48
13380,note_on,,1,0,9,,,,,,,,,,,,,,,,12,,66,48
13380,note_on,,1,0,10,,,,,,,,,,,,,,,,13,,50,48
13380,note_on,,1,0,11,,,,,,,,,,,,,,,,15,,50,48
13380,note_on,,1,0,8,,,,,,,,,,,,,,,,11,,81,48
13380,note_on,,1,0,5,,,,,,,,,,,,,,,,2,,50,48
13409,note_on,,29,0,8,,,,,,,,,,,,,,,,11,,81,0
13409,note_on,,29,0,9,,,,,,,,,,,,,,,,12,,66,0
13409,note_on,,29,0,7,,,,,,,,,,,,,,,,10,,81,0
13410,note_on,,1,0,9,,,,,,,,,,,,,,,,12,,66,48
13410,note_on,,1,0,8,,,,,,,,,,,,,,,,11,,81,48
13410,note_on,,1,0,7,,,,,,,,,,,,,,,,10,,81,48
13439,note_on,,0,0,11,,,,,,,,,,,,,,,,15,,62,0
13439,note_on,,29,0,8,,,,,,,,,,,,,,,,11,,81,0
13439,note_on,,29,0,9,,,,,,,,,,,,,,,,12,,66,0
13439,note_on,,59,0,5,,,,,,,,,,,,,,,,2,,50,0
13439,note_on,,59,0,10,,,,,,,,,,,,,,,,13,,50,0
13439,note_on,,0,0,11,,,,,,,,,,,,,,,,15,,50,0
13439,note_on,,29,0,7,,,,,,,,,,,,,,,,10,,81,0
13439,note_on,,59,0,11,,,,,,,,,,,,,,,,15,,69,0
13439,note_on,,0,0,11,,,,,,,,,,,,,,,,15,,66,0
13440,note_on,,1,0,8,,,,,,,,,,,,,,,,11,,84,48
13440,note_on,,1,0,7,,,,,,,,,,,,,,,,10,,84,48
13440,note_on,,1,0,11,,,,,,,,,,,,,,,,15,,50,48
13440,note_on,,1,0,9,,,,,,,,,,,,,,,,12,,62,48
13440,note_on,,1,0,5,,,,,,,,,,,,,,,,2,,50,48
13440,note_on,,1,0,10,,,,,,,,,,,,,,,,13,,50,48
13440,note_on,,0,0,11,,,,,,,,,,,,,,,,15,,54,48
13440,note_on,,0,0,11,,,,,,,,,,,,,,,,15,,72,48
13440,note_on,,0,0,11,,,,,,,,,,,,,,,,15,,69,48
13440,note_on,,0,0,11,,,,,,,,,,,,,,,,15,,62,48
13469,note_on,,29,0,9,,,,,,,,,,,,,,,,12,,62,0
13470,note_on,,1,0,9,,,,,,,,,,,,,,,,12,,62,48
13499,note_on,,59,0,11,,,,,,,,,,,,,,,,15,,50,0
13499,note_on,,59,0,7,,,,,,,,,,,,,,,,10,,84,0
13499,note_on,,29,0,9,,,,,,,,,,,,,,,,12,,62,0
13499,note_on,,59,0,8,,,,,,,,,,,,,,,,11,,84,0
13499,note_on,,59,0,5,,,,,,,,,,,,,,,,2,,50,0
13499,note_on,,59,0,10,,,,,,,,,,,,,,,,13,,50,0
13500,note_on,,1,0,8,,,,,,,,,,,,,,,,11,,62,48
13500,note_on,,1,0,9,,,,,,,,,,,,,,,,12,,66,48
13500,note_on,,1,0,7,,,,,,,,,,,,,,,,10,,62,48
13500,note_on,,1,0,5,,,,,,,,,,,,,,,,2,,50,48
13500,note_on,,1,0,10,,,,,,,,,,,,,,,,13,,50,48
13500,note_on,,1,0,11,,,,,,,,,,,,,,,,15,,50,48
13529,note_on,,29,0,9,,,,,,,,,,,,,,,,12,,66,0
13529,note_on,,29,0,8,,,,,,,,,,,,,,,,11,,62,0
13529,note_on,,29,0,7,,,,,,,,,,,,,,,,10,,62,0
13530,note_on,,1,0,9,,,,,,,,,,,,,,,,12,,66,48
13530,note_on,,1,0,7,,,,,,,,,,,,,,,,10,,62,48
13530,note_on,,1,0,8,,,,,,,,,,,,,,,,11,,62,48
13559,note_on,,59,0,5,,,,,,,,,,,,,,,,2,,50,0
13559,note_on,,59,0,11,,,,,,,,,,,,,,,,15,,50,0
13559,note_on,,59,0,10,,,,,,,,,,,,,,,,13,,50,0
13559,note_on,,29,0,7,,,,,,,,,,,,,,,,10,,62,0
13559,note_on,,29,0,8,,,,,,,,,,,,,,,,11,,62,0
13559,note_on,,29,0,9,,,,,,,,,,,,,,,,12,,66,0
13560,note_on,,1,0,9,,,,,,,,,,,,,,,,12,,69,48
13560,note_on,,1,0,8,,,,,,,,,,,,,,,,11,,66,48
13560,note_on,,1,0,7,,,,,,,,,,,,,,,,10,,66,48
13560,note_on,,1,0,5,,,,,,,,,,,,,,,,2,,50,48
13560,note_on,,1,0,10,,,,,,,,,,,,,,,,13,,50,48
13560,note_on,,1,0,11,,,,,,,,,,,,,,,,15,,50,48
13589,note_on,,29,0,9,,,,,,,,,,,,,,,,12,,69,0
13589,note_on,,29,0,8,,,,,,,,,,,,,,,,11,,66,0
13589,note_on,,29,0,7,,,,,,,,,,,,,,,,10,,66,0
13590,note_on,,1,0,8,,,,,,,,,,,,,,,,11,,66,48
13590,note_on,,1,0,7,,,,,,,,,,,,,,,,10,,66,48
13590,note_on,,1,0,9,,,,,,,,,,,,,,,,12,,69,48
13619,note_on,,59,0,5,,,,,,,,,,,,,,,,2,,50,0
13619,note_on,,59,0,10,,,,,,,,,,,,,,,,13,,50,0
13619,note_on,,59,0,11,,,,,,,,,,,,,,,,15,,50,0
13619,note_on,,29,0,7,,,,,,,,,,,,,,,,10,,66,0
13619,note_on,,29,0,9,,,,,,,,,,,,,,,,12,,69,0
13619,note_on,,29,0,8,,,,,,,,,,,,,,,,11,,66,0
13620,note_on,,1,0,8,,,,,,,,,,,,,,,,11,,69,48
13620,note_on,,1,0,5,,,,,,,,,,,,,,,,2,,50,48
13620,note_on,,1,0,7,,,,,,,,,,,,,,,,10,,69,48
13620,note_on,,1,0,10,,,,,,,,,,,,,,,,13,,50,48
13620,note_on,,1,0,9,,,,,,,,,,,,,,,,12,,66,48
13620,note_on,,1,0,11,,,,,,,,,,,,,,,,15,,50,48
13649,note_on,,29,0,7,,,,,,,,,,,,,,,,10,,69,0
13649,note_on,,29,0,9,,,,,,,,,,,,,,,,12,,66,0
13649,note_on,,29,0,8,,,,,,,,,,,,,,,,11,,69,0
13650,note_on,,1,0,9,,,,,,,,,,,,,,,,12,,66,48
13650,note_on,,1,0,7,,,,,,,,,,,,,,,,10,,69,48
13650,note_on,,1,0,8,,,,,,,,,,,,,,,,11,,69,48
13679,note_on,,29,0,9,,,,,,,,,,,,,,,,12,,66,0
13679,note_on,,29,0,7,,,,,,,,,,,,,,,,10,,69,0
13679,note_on,,29,0,8,,,,,,,,,,,,,,,,11,,69,0
13679,note_on,,59,0,11,,,,,,,,,,,,,,,,15,,72,0
13679,note_on,,0,0,11,,,,,,,,,,,,,,,,15,,69,0
13679,note_on,,59,0,10,,,,,,,,,,,,,,,,13,,50,0
13679,note_on,,0,0,11,,,,,,,,,,,,,,,,15,,62,0
13679,note_on,,0,0,11,,,,,,,,,,,,,,,,15,,54,0
13679,note_on,,59,0,5,,,,,,,,,,,,,,,,2,,50,0
13679,note_on,,0,0,11,,,,,,,,,,,,,,,,15,,50,0
13680,note_on,,1,0,5,,,,,,,,,,,,,,,,2,,50,48
13680,note_on,,1,0,9,,,,,,,,,,,,,,,,12,,57,48
13680,note_on,,1,0,8,,,,,,,,,,,,,,,,11,,72,48
13680,note_on,,1,0,11,,,,,,,,,,,,,,,,15,,50,48
13680,note_on,,1,0,10,,,,,,,,,,,,,,,,13,,50,48
13680,note_on,,0,0,11,,,,,,,,,,,,,,,,15,,60,48
13680,note_on,,0,0,11,,,,,,,,,,,,,,,,15,,66,48
13680,note_on,,0,0,11,,,,,,,,,,,,,,,,15,,62,48
13680,note_on,,1,0,7,,,,,,,,,,,,,,,,10,,72,48
13680,note_on,,0,0,11,,,,,,,,,,,,,,,,15,,57,48
13709,note_on,,29,0,9,,,,,,,,,,,,,,,,12,,57,0
13709,note_on,,29,0,8,,,,,,,,,,,,,,,,11,,72,0
13709,note_on,,29,0,7,,,,,,,,,,,,,,,,10,,72,0
13710,note_on,,1,0,9,,,,,,,,,,,,,,,,12,,57,48
13710,note_on,,1,0,8,,,,,,,,,,,,,,,,11,,72,48
13710,note_on,,1,0,7,,,,,,,,,,,,,,,,10,,72,48
13739,note_on,,59,0,10,,,,,,,,,,,,,,,,13,,50,0
13739,note_on,,59,0,5,,,,,,,,,,,,,,,,2,,50,0
13739,note_on,,29,0,9,,,,,,,,,,,,,,,,12,,57,0
13739,note_on,,29,0,7,,,,,,,,,,,,,,,,10,,72,0
13739,note_on,,59,0,11,,,,,,,,,,,,,,,,15,,50,0
13739,note_on,,29,0,8,,,,,,,,,,,,,,,,11,,72,0
13740,note_on,,1,0,7,,,,,,,,,,,,,,,,10,,78,48
13740,note_on,,1,0,5,,,,,,,,,,,,,,,,2,,50,48
13740,note_on,,1,0,10,,,,,,,,,,,,,,,,13,,50,48
13740,note_on,,1,0,9,,,,,,,,,,,,,,,,12,,69,48
13740,note_on,,1,0,11,,,,,,,,,,,,,,,,15,,50,48
13740,note_on,,1,0,8,,,,,,,,,,,,,,,,11,,78,48
13769,note_on,,29,0,8,,,,,,,,,,,,,,,,11,,78,0
13769,note_on,,29,0,7,,,,,,,,,,,,,,,,10,,78,0
13769,note_on,,29,0,9,,,,,,,,,,,,,,,,12,,69,0
13770,note_on,,1,0,9,,,,,,,,,,,,,,,,12,,69,48
13770,note_on,,1,0,7,,,,,,,,,,,,,,,,10,,78,48
13770,note_on,,1,0,8,,,,,,,,,,,,,,,,11,,78,48
13799,note_on,,59,0,11,,,,,,,,,,,,,,,,15,,50,0
13799,note_on,,29,0,8,,,,,,,,,,,,,,,,11,,78,0
13799,note_on,,29,0,9,,,,,,,,,,,,,,,,12,,69,0
13799,note_on,,29,0,7,,,,,,,,,,,,,,,,10,,78,0
13799,note_on,,59,0,5,,,,,,,,,,,,,,,,2,,50,0
13799,note_on,,59,0,10,,,,,,,,,,,,,,,,13,,50,0
13800,note_on,,1,0,5,,,,,,,,,,,,,,,,2,,50,48
13800,note_on,,601,0,6,,,,,,,,,,,,,,,,8,,50,72
13800,note_on,,1,0,11,,,,,,,,,,,,,,,,15,,50,48
13800,note_on,,1,0,10,,,,,,,,,,,,,,,,13,,50,48
13800,note_on,,1,0,9,,,,,,,,,,,,,,,,12,,66,48
13800,note_on,,1,0,8,,,,,,,,,,,,,,,,11,,81,48
13800,note_on,,1,0,7,,,,,,,,,,,,,,,,10,,81,48
13829,note_on,,29,0,7,,,,,,,,,,,,,,,,10,,81,0
13829,note_on,,29,0,8,,,,,,,,,,,,,,,,11,,81,0
13829,note_on,,29,0,9,,,,,,,,,,,,,,,,12,,66,0
13830,note_on,,1,0,7,,,,,,,,,,,,,,,,10,,81,48
13830,note_on,,1,0,8,,,,,,,,,,,,,,,,11,,81,48
13830,note_on,,1,0,9,,,,,,,,,,,,,,,,12,,66,48
13859,note_on,,59,0,5,,,,,,,,,,,,,,,,2,,50,0
13859,note_on,,59,0,10,,,,,,,,,,,,,,,,13,,50,0
13859,note_on,,59,0,11,,,,,,,,,,,,,,,,15,,50,0
13859,note_on,,29,0,8,,,,,,,,,,,,,,,,11,,81,0
13859,note_on,,29,0,9,,,,,,,,,,,,,,,,12,,66,0
13859,note_on,,29,0,7,,,,,,,,,,,,,,,,10,,81,0
13860,note_on,,1,0,8,,,,,,,,,,,,,,,,11,,72,48
13860,note_on,,1,0,5,,,,,,,,,,,,,,,,2,,50,48
13860,note_on,,1,0,10,,,,,,,,,,,,,,,,13,,50,48
13860,note_on,,1,0,11,,,,,,,,,,,,,,,,15,,50,48
13860,note_on,,1,0,9,,,,,,,,,,,,,,,,12,,66,48
13860,note_on,,1,0,7,,,,,,,,,,,,,,,,10,,72,48
13889,note_on,,29,0,8,,,,,,,,,,,,,,,,11,,72,0
13889,note_on,,29,0,7,,,,,,,,,,,,,,,,10,,72,0
13889,note_on,,29,0,9,,,,,,,,,,,,,,,,12,,66,0
13890,note_on,,1,0,7,,,,,,,,,,,,,,,,10,,72,48
13890,note_on,,1,0,8,,,,,,,,,,,,,,,,11,,72,48
13890,note_on,,1,0,9,,,,,,,,,,,,,,,,12,,66,48
13919,note_on,,0,0,11,,,,,,,,,,,,,,,,15,,66,0
13919,note_on,,0,0,11,,,,,,,,,,,,,,,,15,,62,0
13919,note_on,,0,0,11,,,,,,,,,,,,,,,,15,,50,0
13919,note_on,,29,0,8,,,,,,,,,,,,,,,,11,,72,0
13919,note_on,,0,0,11,,,,,,,,,,,,,,,,15,,60,0
13919,note_on,,59,0,11,,,,,,,,,,,,,,,,15,,57,0
13919,note_on,,29,0,9,,,,,,,,,,,,,,,,12,,66,0
13919,note_on,,119,0,6,,,,,,,,,,,,,,,,8,,50,0
13919,note_on,,59,0,10,,,,,,,,,,,,,,,,13,,50,0
13919,note_on,,59,0,5,,,,,,,,,,,,,,,,2,,50,0
13919,note_on,,29,0,7,,,,,,,,,,,,,,,,10,,72,0
13920,note_on,,1,0,5,,,,,,,,,,,,,,,,2,,55,48
13920,note_on,,1,0,6,,,,,,,,,,,,,,,,8,,55,72
13920,note_on,,1,0,9,,,,,,,,,,,,,,,,12,,62,48
13920,note_on,,1,0,8,,,,,,,,,,,,,,,,11,,71,48
13920,note_on,,1,0,11,,,,,,,,,,,,,,,,15,,55,48
13920,note_on,,0,0,11,,,,,,,,,,,,,,,,15,,67,48
13920,note_on,,0,0,11,,,,,,,,,,,,,,,,15,,62,48
13920,note_on,,0,0,11,,,,,,,,,,,,,,,,15,,59,48
13920,note_on,,1,0,7,,,,,,,,,,,,,,,,10,,71,48
13920,note_on,,1,0,10,,,,,,,,,,,,,,,,13,,55,48
13949,note_on,,29,0,9,,,,,,,,,,,,,,,,12,,62,0
13949,note_on,,29,0,8,,,,,,,,,,,,,,,,11,,71,0
13949,note_on,,29,0,7,,,,,,,,,,,,,,,,10,,71,0
13950,note_on,,1,0,8,,,,,,,,,,,,,,,,11,,71,48
13950,note_on,,1,0,9,,,,,,,,,,,,,,,,12,,62,48
13950,note_on,,1,0,7,,,,,,,,,,,,,,,,10,,71,48
13979,note_on,,29,0,7,,,,,,,,,,,,,,,,10,,71,0
13979,note_on,,59,0,11,,,,,,,,,,,,,,,,15,,55,0
13979,note_on,,29,0,8,,,,,,,,,,,,,,,,11,,71,0
13979,note_on,,59,0,5,,,,,,,,,,,,,,,,2,,55,0
13979,note_on,,59,0,10,,,,,,,,,,,,,,,,13,,55,0
13979,note_on,,29,0,9,,,,,,,,,,,,,,,,12,,62,0
13980,note_on,,1,0,8,,,,,,,,,,,,,,,,11,,71,48
13980,note_on,,1,0,5,,,,,,,,,,,,,,,,2,,55,48
13980,note_on,,1,0,10,,,,,,,,,,,,,,,,13,,55,48
13980,note_on,,1,0,11,,,,,,,,,,,,,,,,15,,55,48
13980,note_on,,1,0,9,,,,,,,,,,,,,,,,12,,62,48
13980,note_on,,1,0,7,,,,,,,,,,,,,,,,10,,71,48
14009,note_on,,29,0,8,,,,,,,,,,,,,,,,11,,71,0
14009,note_on,,29,0,9,,,,,,,,,,,,,,,,12,,62,0
14009,note_on,,29,0,7,,,,,,,,,,,,,,,,10,,71,0
14010,note_on,,1,0,8,,,,,,,,,,,,,,,,11,,71,48
14010,note_on,,1,0,9,,,,,,,,,,,,,,,,12,,62,48
14010,note_on,,1,0,7,,,,,,,,,,,,,,,,10,,71,48
14039,note_on,,59,0,10,,,,,,,,,,,,,,,,13,,55,0
14039,note_on,,119,0,6,,,,,,,,,,,,,,,,8,,55,0
14039,note_on,,59,0,11,,,,,,,,,,,,,,,,15,,55,0
14039,note_on,,59,0,5,,,,,,,,,,,,,,,,2,,55,0
14039,note_on,,29,0,8,,,,,,,,,,,,,,,,11,,71,0
14039,note_on,,29,0,9,,,,,,,,,,,,,,,,12,,62,0
14039,note_on,,29,0,7,,,,,,,,,,,,,,,,10,,71,0
14040,note_on,,1,0,7,,,,,,,,,,,,,,,,10,,74,48
14040,note_on,,1,0,6,,,,,,,,,,,,,,,,8,,59,72
14040,note_on,,1,0,5,,,,,,,,,,,,,,,,2,,55,48
14040,note_on,,1,0,9,,,,,,,,,,,,,,,,12,,62,48
14040,note_on,,1,0,10,,,,,,,,,,,,,,,,13,,55,48
14040,note_on,,1,0,8,,,,,,,,,,,,,,,,11,,67,48
14040,note_on,,1,0,11,,,,,,,,,,,,,,,,15,,55,48
14069,note_on,,29,0,9,,,,,,,,,,,,,,,,12,,62,0
14069,note_on,,29,0,8,,,,,,,,,,,,,,,,11,,67,0
14069,note_on,,29,0,7,,,,,,,,,,,,,,,,10,,74,0
14070,note_on,,1,0,8,,,,,,,,,,,,,,,,11,,67,48
14070,note_on,,1,0,9,,,,,,,,,,,,,,,,12,,62,48
14070,note_on,,1,0,7,,,,,,,,,,,,,,,,10,,74,48
14099,note_on,,29,0,9,,,,,,,,,,,,,,,,12,,62,0
14099,note_on,,59,0,5,,,,,,,,,,,,,,,,2,,55,0
14099,note_on,,29,0,8,,,,,,,,,,,,,,,,11,,67,0
14099,note_on,,59,0,10,,,,,,,,,,,,,,,,13,,55,0
14099,note_on,,29,0,7,,,,,,,,,,,,,,,,10,,74,0
14099,note_on,,59,0,11,,,,,,,,,,,,,,,,15,,55,0
14100,note_on,,1,0,10,,,,,,,,,,,,,,,,13,,55,48
14100,note_on,,1,0,8,,,,,,,,,,,,,,,,11,,67,48
14100,note_on,,1,0,9,,,,,,,,,,,,,,,,12,,62,48
14100,note_on,,1,0,7,,,,,,,,,,,,,,,,10,,74,48
14100,note_on,,1,0,11,,,,,,,,,,,,,,,,15,,55,48
14100,note_on,,1,0,5,,,,,,,,,,,,,,,,2,,55,48
14129,note_on,,29,0,9,,,,,,,,,,,,,,,,12,,62,0
14129,note_on,,29,0,7,,,,,,,,,,,,,,,,10,,74,0
14129,note_on,,29,0,8,,,,,,,,,,,,,,,,11,,67,0
14130,note_on,,1,0,7,,,,,,,,,,,,,,,,10,,74,48
14130,note_on,,1,0,9,,,,,,,,,,,,,,,,12,,62,48
14130,note_on,,1,0,8,,,,,,,,,,,,,,,,11,,67,48
14159,note_on,,59,0,11,,,,,,,,,,,,,,,,15,,67,0
14159,note_on,,0,0,11,,,,,,,,,,,,,,,,15,,62,0
14159,note_on,,0,0,11,,,,,,,,,,,,,,,,15,,59,0
14159,note_on,,0,0,11,,,,,,,,,,,,,,,,15,,55,0
14159,note_on,,29,0,9,,,,,,,,,,,,,,,,12,,62,0
14159,note_on,,29,0,8,,,,,,,,,,,,,,,,11,,67,0
14159,note_on,,119,0,6,,,,,,,,,,,,,,,,8,,59,0
14159,note_on,,59,0,10,,,,,,,,,,,,,,,,13,,55,0
14159,note_on,,29,0,7,,,,,,,,,,,,,,,,10,,74,0
14159,note_on,,59,0,5,,,,,,,,,,,,,,,,2,,55,0
14160,note_on,,1,0,9,,,,,,,,,,,,,,,,12,,59,48
14160,note_on,,1,0,6,,,,,,,,,,,,,,,,8,,62,72
14160,note_on,,1,0,10,,,,,,,,,,,,,,,,13,,47,48
14160,note_on,,1,0,8,,,,,,,,,,,,,,,,11,,62,48
14160,note_on,,0,0,11,,,,,,,,,,,,,,,,15,,55,48
14160,note_on,,0,0,11,,,,,,,,,,,,,,,,15,,62,48
14160,note_on,,1,0,11,,,,,,,,,,,,,,,,15,,47,48
14160,note_on,,1,0,7,,,,,,,,,,,,,,,,10,,67,48
14160,note_on,,1,0,5,,,,,,,,,,,,,,,,2,,47,48
14160,note_on,,0,0,11,,,,,,,,,,,,,,,,15,,50,48
14189,note_on,,29,0,7,,,,,,,,,,,,,,,,10,,67,0
14189,note_on,,29,0,8,,,,,,,,,,,,,,,,11,,62,0
14189,note_on,,29,0,9,,,,,,,,,,,,,,,,12,,59,0
14190,note_on,,1,0,7,,,,,,,,,,,,,,,,10,,67,48
14190,note_on,,1,0,8,,,,,,,,,,,,,,,,11,,62,48
14190,note_on,,1,0,9,,,,,,,,,,,,,,,,12,,59,48
14219,note_on,,29,0,8,,,,,,,,,,,,,,,,11,,62,0
14219,note_on,,59,0,10,,,,,,,,,,,,,,,,13,,47,0
14219,note_on,,29,0,7,,,,,,,,,,,,,,,,10,,67,0
14219,note_on,,59,0,11,,,,,,,,,,,,,,,,15,,47,0
14219,note_on,,59,0,6,,,,,,,,,,,,,,,,8,,62,0
14219,note_on,,29,0,9,,,,,,,,,,,,,,,,12,,59,0
14219,note_on,,59,0,5,,,,,,,,,,,,,,,,2,,47,0
14220,note_on,,1,0,9,,,,,,,,,,,,,,,,12,,59,48
14220,note_on,,1,0,8,,,,,,,,,,,,,,,,11,,62,48
14220,note_on,,1,0,5,,,,,,,,,,,,,,,,2,,47,48
14220,note_on,,1,0,11,,,,,,,,,,,,,,,,15,,47,48
14220,note_on,,1,0,6,,,,,,,,,,,,,,,,8,,53,72
14220,note_on,,1,0,7,,,,,,,,,,,,,,,,10,,67,48
14220,note_on,,1,0,10,,,,,,,,,,,,,,,,13,,47,48
14249,note_on,,29,0,7,,,,,,,,,,,,,,,,10,,67,0
14249,note_on,,29,0,9,,,,,,,,,,,,,,,,12,,59,0
14249,note_on,,29,0,8,,,,,,,,,,,,,,,,11,,62,0
14250,note_on,,1,0,7,,,,,,,,,,,,,,,,10,,67,48
14250,note_on,,1,0,9,,,,,,,,,,,,,,,,12,,59,48
14250,note_on,,1,0,8,,,,,,,,,,,,,,,,11,,62,48
14279,note_on,,59,0,10,,,,,,,,,,,,,,,,13,,47,0
14279,note_on,,59,0,11,,,,,,,,,,,,,,,,15,,47,0
14279,note_on,,29,0,8,,,,,,,,,,,,,,,,11,,62,0
14279,note_on,,29,0,9,,,,,,,,,,,,,,,,12,,59,0
14279,note_on,,29,0,7,,,,,,,,,,,,,,,,10,,67,0
14279,note_on,,59,0,5,,,,,,,,,,,,,,,,2,,47,0
14280,note_on,,1,0,5,,,,,,,,,,,,,,,,2,,47,48
14280,note_on,,1,0,8,,,,,,,,,,,,,,,,11,,62,48
14280,note_on,,1,0,9,,,,,,,,,,,,,,,,12,,55,48
14280,note_on,,1,0,11,,,,,,,,,,,,,,,,15,,47,48
14280,note_on,,1,0,10,,,,,,,,,,,,,,,,13,,47,48
14280,note_on,,1,0,7,,,,,,,,,,,,,,,,10,,67,48
14309,note_on,,29,0,7,,,,,,,,,,,,,,,,10,,67,0
14309,note_on,,29,0,9,,,,,,,,,,,,,,,,12,,55,0
14309,note_on,,29,0,8,,,,,,,,,,,,,,,,11,,62,0
14310,note_on,,1,0,8,,,,,,,,,,,,,,,,11,,62,48
14310,note_on,,1,0,7,,,,,,,,,,,,,,,,10,,67,48
14310,note_on,,1,0,9,,,,,,,,,,,,,,,,12,,55,48
14339,note_on,,29,0,9,,,,,,,,,,,,,,,,12,,55,0
14339,note_on,,29,0,8,,,,,,,,,,,,,,,,11,,62,0
14339,note_on,,29,0,7,,,,,,,,,,,,,,,,10,,67,0
14339,note_on,,59,0,11,,,,,,,,,,,,,,,,15,,47,0
14339,note_on,,119,0,6,,,,,,,,,,,,,,,,8,,53,0
14339,note_on,,59,0,5,,,,,,,,,,,,,,,,2,,47,0
14339,note_on,,59,0,10,,,,,,,,,,,,,,,,13,,47,0
14340,note_on,,1,0,9,,,,,,,,,,,,,,,,12,,55,48
14340,note_on,,1,0,6,,,,,,,,,,,,,,,,8,,53,72
14340,note_on,,1,0,11,,,,,,,,,,,,,,,,15,,47,48
14340,note_on,,1,0,5,,,,,,,,,,,,,,,,2,,47,48
14340,note_on,,1,0,8,,,,,,,,,,,,,,,,11,,62,48
14340,note_on,,1,0,10,,,,,,,,,,,,,,,,13,,47,48
14340,note_on,,1,0,7,,,,,,,,,,,,,,,,10,,67,48
14369,note_on,,29,0,8,,,,,,,,,,,,,,,,11,,62,0
14369,note_on,,29,0,9,,,,,,,,,,,,,,,,12,,55,0
14369,note_on,,29,0,7,,,,,,,,,,,,,,,,10,,67,0
14370,note_on,,1,0,9,,,,,,,,,,,,,,,,12,,55,48
14370,note_on,,1,0,8,,,,,,,,,,,,,,,,11,,62,48
14370,note_on,,1,0,7,,,,,,,,,,,,,,,,10,,67,48
14399,note_on,,29,0,8,,,,,,,,,,,,,,,,11,,62,0
14399,note_on,,59,0,6,,,,,,,,,,,,,,,,8,,53,0
14399,note_on,,59,0,5,,,,,,,,,,,,,,,,2,,47,0
14399,note_on,,0,0,11,,,,,,,,,,,,,,,,15,,62,0
14399,note_on,,0,0,11,,,,,,,,,,,,,,,,15,,55,0
14399,note_on,,29,0,7,,,,,,,,,,,,,,,,10,,67,0
14399,note_on,,59,0,10,,,,,,,,,,,,,,,,13,,47,0
14399,note_on,,0,0,11,,,,,,,,,,,,,,,,15,,47,0
14399,note_on,,29,0,9,,,,,,,,,,,,,,,,12,,55,0
14399,note_on,,59,0,11,,,,,,,,,,,,,,,,15,,50,0
14400,note_on,,1,0,9,,,,,,,,,,,,,,,,12,,55,48
14400,note_on,,1,0,5,,,,,,,,,,,,,,,,2,,48,48
14400,note_on,,0,0,11,,,,,,,,,,,,,,,,15,,55,48
14400,note_on,,0,0,11,,,,,,,,,,,,,,,,15,,60,48
14400,note_on,,0,0,11,,,,,,,,,,,,,,,,15,,64,48
14400,note_on,,1,0,11,,,,,,,,,,,,,,,,15,,48,48
14400,note_on,,1,0,6,,,,,,,,,,,,,,,,8,,52,72
14400,note_on,,1,0,8,,,,,,,,,,,,,,,,11,,64,48
14400,note_on,,1,0,10,,,,,,,,,,,,,,,,13,,48,48
14400,note_on,,1,0,7,,,,,,,,,,,,,,,,10,,67,48
14429,note_on,,29,0,8,,,,,,,,,,,,,,,,11,,64,0
14429,note_on,,29,0,7,,,,,,,,,,,,,,,,10,,67,0
14429,note_on,,29,0,9,,,,,,,,,,,,,,,,12,,55,0
14430,note_on,,1,0,8,,,,,,,,,,,,,,,,11,,64,48
14430,note_on,,1,0,9,,,,,,,,,,,,,,,,12,,55,48
14430,note_on,,1,0,7,,,,,,,,,,,,,,,,10,,67,48
14439,note_on,,39,0,6,,,,,,,,,,,,,,,,8,,52,0
14440,note_on,,1,0,6,,,,,,,,,,,,,,,,8,,53,72
14459,note_on,,29,0,8,,,,,,,,,,,,,,,,11,,64,0
14459,note_on,,59,0,11,,,,,,,,,,,,,,,,15,,48,0
14459,note_on,,29,0,7,,,,,,,,,,,,,,,,10,,67,0
14459,note_on,,59,0,10,,,,,,,,,,,,,,,,13,,48,0
14459,note_on,,29,0,9,,,,,,,,,,,,,,,,12,,55,0
14459,note_on,,59,0,5,,,,,,,,,,,,,,,,2,,48,0
14460,note_on,,1,0,8,,,,,,,,,,,,,,,,11,,64,48
14460,note_on,,1,0,11,,,,,,,,,,,,,,,,15,,48,48
14460,note_on,,1,0,5,,,,,,,,,,,,,,,,2,,48,48
14460,note_on,,1,0,10,,,,,,,,,,,,,,,,13,,48,48
14460,note_on,,1,0,9,,,,,,,,,,,,,,,,12,,55,48
14460,note_on,,1,0,7,,,,,,,,,,,,,,,,10,,67,48
14479,note_on,,39,0,6,,,,,,,,,,,,,,,,8,,53,0
14480,note_on,,1,0,6,,,,,,,,,,,,,,,,8,,52,72
14489,note_on,,29,0,7,,,,,,,,,,,,,,,,10,,67,0
14489,note_on,,29,0,8,,,,,,,,,,,,,,,,11,,64,0
14489,note_on,,29,0,9,,,,,,,,,,,,,,,,12,,55,0
14490,note_on,,1,0,8,,,,,,,,,,,,,,,,11,,64,48
14490,note_on,,1,0,9,,,,,,,,,,,,,,,,12,,55,48
14490,note_on,,1,0,7,,,,,,,,,,,,,,,,10,,67,48
14519,note_on,,29,0,8,,,,,,,,,,,,,,,,11,,64,0
14519,note_on,,39,0,6,,,,,,,,,,,,,,,,8,,52,0
14519,note_on,,0,0,11,,,,,,,,,,,,,,,,15,,48,0
14519,note_on,,29,0,7,,,,,,,,,,,,,,,,10,,67,0
14519,note_on,,59,0,5,,,,,,,,,,,,,,,,2,,48,0
14519,note_on,,0,0,11,,,,,,,,,,,,,,,,15,,55,0
14519,note_on,,0,0,11,,,,,,,,,,,,,,,,15,,60,0
14519,note_on,,59,0,11,,,,,,,,,,,,,,,,15,,64,0
14519,note_on,,29,0,9,,,,,,,,,,,,,,,,12,,55,0
14519,note_on,,59,0,10,,,,,,,,,,,,,,,,13,,48,0
14520,note_on,,1,0,8,,,,,,,,,,,,,,,,11,,64,48
14520,note_on,,1,0,7,,,,,,,,,,,,,,,,10,,69,48
14520,note_on,,1,0,10,,,,,,,,,,,,,,,,13,,48,48
14520,note_on,,1,0,9,,,,,,,,,,,,,,,,12,,60,48
14520,note_on,,0,0,11,,,,,,,,,,,,,,,,15,,64,48
14520,note_on,,1,0,6,,,,,,,,,,,,,,,,8,,50,72
14520,note_on,,1,0,5,,,,,,,,,,,,,,,,2,,48,48
14520,note_on,,1,0,11,,,,,,,,,,,,,,,,15,,48,48
14520,note_on,,0,0,11,,,,,,,,,,,,,,,,15,,69,48
14520,note_on,,0,0,11,,,,,,,,,,,,,,,,15,,60,48
14549,note_on,,29,0,7,,,,,,,,,,,,,,,,10,,69,0
14549,note_on,,29,0,9,,,,,,,,,,,,,,,,12,,60,0
14549,note_on,,29,0,8,,,,,,,,,,,,,,,,11,,64,0
14550,note_on,,1,0,8,,,,,,,,,,,,,,,,11,,64,48
14550,note_on,,1,0,9,,,,,,,,,,,,,,,,12,,60,48
14550,note_on,,1,0,7,,,,,,,,,,,,,,,,10,,69,48
14559,note_on,,39,0,6,,,,,,,,,,,,,,,,8,,50,0
14560,note_on,,1,0,6,,,,,,,,,,,,,,,,8,,52,72
14579,note_on,,29,0,9,,,,,,,,,,,,,,,,12,,60,0
14579,note_on,,59,0,10,,,,,,,,,,,,,,,,13,,48,0
14579,note_on,,29,0,7,,,,,,,,,,,,,,,,10,,69,0
14579,note_on,,59,0,5,,,,,,,,,,,,,,,,2,,48,0
14579,note_on,,59,0,11,,,,,,,,,,,,,,,,15,,48,0
14579,note_on,,29,0,8,,,,,,,,,,,,,,,,11,,64,0
14580,note_on,,1,0,11,,,,,,,,,,,,,,,,15,,48,48
14580,note_on,,1,0,9,,,,,,,,,,,,,,,,12,,60,48
14580,note_on,,1,0,8,,,,,,,,,,,,,,,,11,,64,48
14580,note_on,,1,0,10,,,,,,,,,,,,,,,,13,,48,48
14580,note_on,,1,0,5,,,,,,,,,,,,,,,,2,,48,48
14580,note_on,,1,0,7,,,,,,,,,,,,,,,,10,,69,48
14599,note_on,,39,0,6,,,,,,,,,,,,,,,,8,,52,0
14600,note_on,,1,0,6,,,,,,,,,,,,,,,,8,,48,72
14609,note_on,,29,0,7,,,,,,,,,,,,,,,,10,,69,0
14609,note_on,,29,0,9,,,,,,,,,,,,,,,,12,,60,0
14609,note_on,,29,0,8,,,,,,,,,,,,,,,,11,,64,0
14610,note_on,,1,0,7,,,,,,,,,,,,,,,,10,,69,48
14610,note_on,,1,0,9,,,,,,,,,,,,,,,,12,,60,48
14610,note_on,,1,0,8,,,,,,,,,,,,,,,,11,,64,48
14639,note_on,,59,0,10,,,,,,,,,,,,,,,,13,,48,0
14639,note_on,,29,0,7,,,,,,,,,,,,,,,,10,,69,0
14639,note_on,,59,0,11,,,,,,,,,,,,,,,,15,,69,0
14639,note_on,,0,0,11,,,,,,,,,,,,,,,,15,,64,0
14639,note_on,,0,0,11,,,,,,,,,,,,,,,,15,,60,0
14639,note_on,,0,0,11,,,,,,,,,,,,,,,,15,,48,0
14639,note_on,,39,0,6,,,,,,,,,,,,,,,,8,,48,0
14639,note_on,,29,0,8,,,,,,,,,,,,,,,,11,,64,0
14639,note_on,,29,0,9,,,,,,,,,,,,,,,,12,,60,0
14639,note_on,,59,0,5,,,,,,,,,,,,,,,,2,,48,0
14640,note_on,,0,0,11,,,,,,,,,,,,,,,,15,,57,48
14640,note_on,,0,0,11,,,,,,,,,,,,,,,,15,,62,48
14640,note_on,,1,0,10,,,,,,,,,,,,,,,,13,,50,48
14640,note_on,,1,0,11,,,,,,,,,,,,,,,,15,,50,48
14640,note_on,,1,0,9,,,,,,,,,,,,,,,,12,,57,48
14640,note_on,,1,0,5,,,,,,,,,,,,,,,,2,,50,48
14640,note_on,,1,0,8,,,,,,,,,,,,,,,,11,,66,48
14640,note_on,,1,0,7,,,,,,,,,,,,,,,,10,,69,48
14640,note_on,,1,0,6,,,,,,,,,,,,,,,,8,,54,72
14640,note_on,,0,0,11,,,,,,,,,,,,,,,,15,,66,48
14669,note_on,,29,0,7,,,,,,,,,,,,,,,,10,,69,0
14669,note_on,,29,0,9,,,,,,,,,,,,,,,,12,,57,0
14669,note_on,,29,0,8,,,,,,,,,,,,,,,,11,,66,0
14670,note_on,,1,0,9,,,,,,,,,,,,,,,,12,,57,48
14670,note_on,,1,0,8,,,,,,,,,,,,,,,,11,,66,48
14670,note_on,,1,0,7,,,,,,,,,,,,,,,,10,,69,48
14679,note_on,,39,0,6,,,,,,,,,,,,,,,,8,,54,0
14680,note_on,,1,0,6,,,,,,,,,,,,,,,,8,,55,72
14699,note_on,,29,0,9,,,,,,,,,,,,,,,,12,,57,0
14699,note_on,,29,0,7,,,,,,,,,,,,,,,,10,,69,0
14699,note_on,,59,0,10,,,,,,,,,,,,,,,,13,,50,0
14699,note_on,,59,0,11,,,,,,,,,,,,,,,,15,,50,0
14699,note_on,,29,0,8,,,,,,,,,,,,,,,,11,,66,0
14699,note_on,,59,0,5,,,,,,,,,,,,,,,,2,,50,0
14700,note_on,,1,0,7,,,,,,,,,,,,,,,,10,,69,48
14700,note_on,,1,0,5,,,,,,,,,,,,,,,,2,,50,48
14700,note_on,,1,0,8,,,,,,,,,,,,,,,,11,,66,48
14700,note_on,,1,0,11,,,,,,,,,,,,,,,,15,,50,48
14700,note_on,,1,0,10,,,,,,,,,,,,,,,,13,,50,48
14700,note_on,,1,0,9,,,,,,,,,,,,,,,,12,,57,48
14719,note_on,,39,0,6,,,,,,,,,,,,,,,,8,,55,0
14720,note_on,,1,0,6,,,,,,,,,,,,,,,,8,,54,72
14729,note_on,,29,0,7,,,,,,,,,,,,,,,,10,,69,0
14729,note_on,,29,0,9,,,,,,,,,,,,,,,,12,,57,0
14729,note_on,,29,0,8,,,,,,,,,,,,,,,,11,,66,0
14730,note_on,,1,0,7,,,,,,,,,,,,,,,,10,,69,48
14730,note_on,,1,0,8,,,,,,,,,,,,,,,,11,,66,48
14730,note_on,,1,0,9,,,,,,,,,,,,,,,,12,,57,48
14759,note_on,,29,0,8,,,,,,,,,,,,,,,,11,,66,0
14759,note_on,,59,0,5,,,,,,,,,,,,,,,,2,,50,0
14759,note_on,,59,0,11,,,,,,,,,,,,,,,,15,,66,0
14759,note_on,,0,0,11,,,,,,,,,,,,,,,,15,,62,0
14759,note_on,,29,0,9,,,,,,,,,,,,,,,,12,,57,0
14759,note_on,,29,0,7,,,,,,,,,,,,,,,,10,,69,0
14759,note_on,,59,0,10,,,,,,,,,,,,,,,,13,,50,0
14759,note_on,,0,0,11,,,,,,,,,,,,,,,,15,,57,0
14759,note_on,,39,0,6,,,,,,,,,,,,,,,,8,,54,0
14759,note_on,,0,0,11,,,,,,,,,,,,,,,,15,,50,0
14760,note_on,,1,0,10,,,,,,,,,,,,,,,,13,,50,48
14760,note_on,,1,0,6,,,,,,,,,,,,,,,,8,,52,72
14760,note_on,,0,0,11,,,,,,,,,,,,,,,,15,,62,48
14760,note_on,,0,0,11,,,,,,,,,,,,,,,,15,,66,48
14760,note_on,,1,0,5,,,,,,,,,,,,,,,,2,,50,48
14760,note_on,,1,0,7,,,,,,,,,,,,,,,,10,,71,48
14760,note_on,,1,0,9,,,,,,,,,,,,,,,,12,,62,48
14760,note_on,,1,0,8,,,,,,,,,,,,,,,,11,,66,48
14760,note_on,,0,0,11,,,,,,,,,,,,,,,,15,,71,48
14760,note_on,,1,0,11,,,,,,,,,,,,,,,,15,,50,48
14789,note_on,,29,0,9,,,,,,,,,,,,,,,,12,,62,0
14789,note_on,,29,0,7,,,,,,,,,,,,,,,,10,,71,0
14789,note_on,,29,0,8,,,,,,,,,,,,,,,,11,,66,0
14790,note_on,,1,0,8,,,,,,,,,,,,,,,,11,,66,48
14790,note_on,,1,0,9,,,,,,,,,,,,,,,,12,,62,48
14790,note_on,,1,0,7,,,,,,,,,,,,,,,,10,,71,48
14799,note_on,,39,0,6,,,,,,,,,,,,,,,,8,,52,0
14800,note_on,,1,0,6,,,,,,,,,,,,,,,,8,,54,72
14819,note_on,,59,0,5,,,,,,,,,,,,,,,,2,,50,0
14819,note_on,,29,0,8,,,,,,,,,,,,,,,,11,,66,0
14819,note_on,,59,0,10,,,,,,,,,,,,,,,,13,,50,0
14819,note_on,,29,0,9,,,,,,,,,,,,,,,,12,,62,0
14819,note_on,,59,0,11,,,,,,,,,,,,,,,,15,,50,0
14819,note_on,,29,0,7,,,,,,,,,,,,,,,,10,,71,0
14820,note_on,,1,0,7,,,,,,,,,,,,,,,,10,,71,48
14820,note_on,,1,0,10,,,,,,,,,,,,,,,,13,,50,48
14820,note_on,,1,0,5,,,,,,,,,,,,,,,,2,,50,48
14820,note_on,,1,0,11,,,,,,,,,,,,,,,,15,,50,48
14820,note_on,,1,0,9,,,,,,,,,,,,,,,,12,,62,48
14820,note_on,,1,0,8,,,,,,,,,,,,,,,,11,,66,48
14839,note_on,,39,0,6,,,,,,,,,,,,,,,,8,,54,0
14840,note_on,,1,0,6,,,,,,,,,,,,,,,,8,,50,72
14849,note_on,,29,0,7,,,,,,,,,,,,,,,,10,,71,0
14849,note_on,,29,0,8,,,,,,,,,,,,,,,,11,,66,0
14849,note_on,,29,0,9,,,,,,,,,,,,,,,,12,,62,0
14850,note_on,,1,0,8,,,,,,,,,,,,,,,,11,,66,48
14850,note_on,,1,0,7,,,,,,,,,,,,,,,,10,,71,48
14850,note_on,,1,0,9,,,,,,,,,,,,,,,,12,,62,48
14879,note_on,,39,0,6,,,,,,,,,,,,,,,,8,,50,0
14879,note_on,,29,0,8,,,,,,,,,,,,,,,,11,,66,0
14879,note_on,,29,0,7,,,,,,,,,,,,,,,,10,,71,0
14879,note_on,,0,0,11,,,,,,,,,,,,,,,,15,,62,0
14879,note_on,,59,0,5,,,,,,,,,,,,,,,,2,,50,0
14879,note_on,,0,0,11,,,,,,,,,,,,,,,,15,,66,0
14879,note_on,,29,0,9,,,,,,,,,,,,,,,,12,,62,0
14879,note_on,,0,0,11,,,,,,,,,,,,,,,,15,,50,0
14879,note_on,,59,0,10,,,,,,,,,,,,,,,,13,,50,0
14879,note_on,,59,0,11,,,,,,,,,,,,,,,,15,,71,0
14880,note_on,,1,0,8,,,,,,,,,,,,,,,,11,,67,48
14880,note_on,,1,0,9,,,,,,,,,,,,,,,,12,,59,48
14880,note_on,,1,0,10,,,,,,,,,,,,,,,,13,,52,48
14880,note_on,,1,0,5,,,,,,,,,,,,,,,,2,,52,48
14880,note_on,,1,0,11,,,,,,,,,,,,,,,,15,,52,48
14880,note_on,,0,0,11,,,,,,,,,,,,,,,,15,,67,48
14880,note_on,,1,0,7,,,,,,,,,,,,,,,,10,,71,48
14880,note_on,,0,0,11,,,,,,,,,,,,,,,,15,,64,48
14880,note_on,,0,0,11,,,,,,,,,,,,,,,,15,,59,48
14880,note_on,,1,0,6,,,,,,,,,,,,,,,,8,,55,72
14909,note_on,,29,0,9,,,,,,,,,,,,,,,,12,,59,0
14909,note_on,,29,0,8,,,,,,,,,,,,,,,,11,,67,0
14909,note_on,,29,0,7,,,,,,,,,,,,,,,,10,,71,0
14910,note_on,,1,0,7,,,,,,,,,,,,,,,,10,,71,48
14910,note_on,,1,0,8,,,,,,,,,,,,,,,,11,,67,48
14910,note_on,,1,0,9,,,,,,,,,,,,,,,,12,,59,48
14919,note_on,,39,0,6,,,,,,,,,,,,,,,,8,,55,0
14920,note_on,,1,0,6,,,,,,,,,,,,,,,,8,,57,72
14939,note_on,,59,0,11,,,,,,,,,,,,,,,,15,,52,0
14939,note_on,,29,0,7,,,,,,,,,,,,,,,,10,,71,0
14939,note_on,,29,0,8,,,,,,,,,,,,,,,,11,,67,0
14939,note_on,,59,0,10,,,,,,,,,,,,,,,,13,,52,0
14939,note_on,,59,0,5,,,,,,,,,,,,,,,,2,,52,0
14939,note_on,,29,0,9,,,,,,,,,,,,,,,,12,,59,0
14940,note_on,,1,0,7,,,,,,,,,,,,,,,,10,,71,48
14940,note_on,,1,0,11,,,,,,,,,,,,,,,,15,,52,48
14940,note_on,,1,0,9,,,,,,,,,,,,,,,,12,,59,48
14940,note_on,,1,0,8,,,,,,,,,,,,,,,,11,,67,48
14940,note_on,,1,0,5,,,,,,,,,,,,,,,,2,,52,48
14940,note_on,,1,0,10,,,,,,,,,,,,,,,,13,,52,48
14959,note_on,,39,0,6,,,,,,,,,,,,,,,,8,,57,0
14960,note_on,,1,0,6,,,,,,,,,,,,,,,,8,,55,72
14969,note_on,,29,0,9,,,,,,,,,,,,,,,,12,,59,0
14969,note_on,,29,0,7,,,,,,,,,,,,,,,,10,,71,0
14969,note_on,,29,0,8,,,,,,,,,,,,,,,,11,,67,0
14970,note_on,,1,0,8,,,,,,,,,,,,,,,,11,,67,48
14970,note_on,,1,0,9,,,,,,,,,,,,,,,,12,,59,48
14970,note_on,,1,0,7,,,,,,,,,,,,,,,,10,,71,48
14999,note_on,,59,0,10,,,,,,,,,,,,,,,,13,,52,0
14999,note_on,,29,0,8,,,,,,,,,,,,,,,,11,,67,0
14999,note_on,,29,0,9,,,,,,,,,,,,,,,,12,,59,0
14999,note_on,,39,0,6,,,,,,,,,,,,,,,,8,,55,0
14999,note_on,,0,0,11,,,,,,,,,,,,,,,,15,,52,0
14999,note_on,,0,0,11,,,,,,,,,,,,,,,,15,,59,0
14999,note_on,,59,0,11,,,,,,,,,,,,,,,,15,,67,0
14999,note_on,,59,0,5,,,,,,,,,,,,,,,,2,,52,0
14999,note_on,,29,0,7,,,,,,,,,,,,,,,,10,,71,0
14999,note_on,,0,0,11,,,,,,,,,,,,,,,,15,,64,0
15000,note_on,,1,0,10,,,,,,,,,,,,,,,,13,,52,48
15000,note_on,,1,0,6,,,,,,,,,,,,,,,,8,,54,72
15000,note_on,,1,0,5,,,,,,,,,,,,,,,,2,,52,48
15000,note_on,,1,0,9,,,,,,,,,,,,,,,,12,,64,48
15000,note_on,,1,0,8,,,,,,,,,,,,,,,,11,,67,48
15000,note_on,,1,0,7,,,,,,,,,,,,,,,,10,,72,48
15000,note_on,,0,0,11,,,,,,,,,,,,,,,,15,,64,48
15000,note_on,,0,0,11,,,,,,,,,,,,,,,,15,,67,48
15000,note_on,,0,0,11,,,,,,,,,,,,,,,,15,,72,48
15000,note_on,,1,0,11,,,,,,,,,,,,,,,,15,,52,48
15029,note_on,,29,0,8,,,,,,,,,,,,,,,,11,,67,0
15029,note_on,,29,0,9,,,,,,,,,,,,,,,,12,,64,0
15029,note_on,,29,0,7,,,,,,,,,,,,,,,,10,,72,0
15030,note_on,,1,0,8,,,,,,,,,,,,,,,,11,,67,48
15030,note_on,,1,0,7,,,,,,,,,,,,,,,,10,,72,48
15030,note_on,,1,0,9,,,,,,,,,,,,,,,,12,,64,48
15039,note_on,,39,0,6,,,,,,,,,,,,,,,,8,,54,0
15040,note_on,,1,0,6,,,,,,,,,,,,,,,,8,,55,72
15059,note_on,,59,0,11,,,,,,,,,,,,,,,,15,,52,0
15059,note_on,,29,0,8,,,,,,,,,,,,,,,,11,,67,0
15059,note_on,,29,0,9,,,,,,,,,,,,,,,,12,,64,0
15059,note_on,,59,0,5,,,,,,,,,,,,,,,,2,,52,0
15059,note_on,,59,0,10,,,,,,,,,,,,,,,,13,,52,0
15059,note_on,,29,0,7,,,,,,,,,,,,,,,,10,,72,0
15060,note_on,,1,0,9,,,,,,,,,,,,,,,,12,,64,48
15060,note_on,,1,0,11,,,,,,,,,,,,,,,,15,,52,48
15060,note_on,,1,0,5,,,,,,,,,,,,,,,,2,,52,48
15060,note_on,,1,0,10,,,,,,,,,,,,,,,,13,,52,48
15060,note_on,,1,0,7,,,,,,,,,,,,,,,,10,,72,48
15060,note_on,,1,0,8,,,,,,,,,,,,,,,,11,,67,48
15079,note_on,,39,0,6,,,,,,,,,,,,,,,,8,,55,0
15080,note_on,,1,0,6,,,,,,,,,,,,,,,,8,,52,72
15089,note_on,,29,0,8,,,,,,,,,,,,,,,,11,,67,0
15089,note_on,,29,0,9,,,,,,,,,,,,,,,,12,,64,0
15089,note_on,,29,0,7,,,,,,,,,,,,,,,,10,,72,0
15090,note_on,,1,0,9,,,,,,,,,,,,,,,,12,,64,48
15090,note_on,,1,0,7,,,,,,,,,,,,,,,,10,,72,48
15090,note_on,,1,0,8,,,,,,,,,,,,,,,,11,,67,48
15119,note_on,,29,0,8,,,,,,,,,,,,,,,,11,,67,0
15119,note_on,,0,0,11,,,,,,,,,,,,,,,,15,,52,0
15119,note_on,,0,0,11,,,,,,,,,,,,,,,,15,,64,0
15119,note_on,,39,0,6,,,,,,,,,,,,,,,,8,,52,0
15119,note_on,,59,0,11,,,,,,,,,,,,,,,,15,,72,0
15119,note_on,,29,0,7,,,,,,,,,,,,,,,,10,,72,0
15119,note_on,,59,0,10,,,,,,,,,,,,,,,,13,,52,0
15119,note_on,,59,0,5,,,,,,,,,,,,,,,,2,,52,0
15119,note_on,,0,0,11,,,,,,,,,,,,,,,,15,,67,0
15119,note_on,,29,0,9,,,,,,,,,,,,,,,,12,,64,0
15120,note_on,,0,0,11,,,,,,,,,,,,,,,,15,,69,48
15120,note_on,,1,0,7,,,,,,,,,,,,,,,,10,,72,48
15120,note_on,,0,0,11,,,,,,,,,,,,,,,,15,,62,48
15120,note_on,,1,0,10,,,,,,,,,,,,,,,,13,,54,48
15120,note_on,,1,0,5,,,,,,,,,,,,,,,,2,,54,48
15120,note_on,,1,0,11,,,,,,,,,,,,,,,,15,,54,48
15120,note_on,,1,0,6,,,,,,,,,,,,,,,,8,,57,72
15120,note_on,,0,0,11,,,,,,,,,,,,,,,,15,,60,48
15120,note_on,,1,0,9,,,,,,,,,,,,,,,,12,,62,48
15120,note_on,,1,0,8,,,,,,,,,,,,,,,,11,,69,48
15149,note_on,,29,0,9,,,,,,,,,,,,,,,,12,,62,0
15149,note_on,,29,0,7,,,,,,,,,,,,,,,,10,,72,0
15149,note_on,,29,0,8,,,,,,,,,,,,,,,,11,,69,0
15150,note_on,,1,0,7,,,,,,,,,,,,,,,,10,,72,48
15150,note_on,,1,0,9,,,,,,,,,,,,,,,,12,,62,48
15150,note_on,,1,0,8,,,,,,,,,,,,,,,,11,,69,48
15159,note_on,,39,0,6,,,,,,,,,,,,,,,,8,,57,0
15160,note_on,,1,0,6,,,,,,,,,,,,,,,,8,,59,72
15179,note_on,,59,0,10,,,,,,,,,,,,,,,,13,,54,0
15179,note_on,,29,0,9,,,,,,,,,,,,,,,,12,,62,0
15179,note_on,,59,0,5,,,,,,,,,,,,,,,,2,,54,0
15179,note_on,,29,0,7,,,,,,,,,,,,,,,,10,,72,0
15179,note_on,,59,0,11,,,,,,,,,,,,,,,,15,,54,0
15179,note_on,,29,0,8,,,,,,,,,,,,,,,,11,,69,0
15180,note_on,,1,0,10,,,,,,,,,,,,,,,,13,,54,48
15180,note_on,,1,0,5,,,,,,,,,,,,,,,,2,,54,48
15180,note_on,,1,0,9,,,,,,,,,,,,,,,,12,,62,48
15180,note_on,,1,0,11,,,,,,,,,,,,,,,,15,,54,48
15180,note_on,,1,0,7,,,,,,,,,,,,,,,,10,,72,48
15180,note_on,,1,0,8,,,,,,,,,,,,,,,,11,,69,48
15199,note_on,,39,0,6,,,,,,,,,,,,,,,,8,,59,0
15200,note_on,,1,0,6,,,,,,,,,,,,,,,,8,,57,72
15209,note_on,,29,0,7,,,,,,,,,,,,,,,,10,,72,0
15209,note_on,,29,0,9,,,,,,,,,,,,,,,,12,,62,0
15209,note_on,,29,0,8,,,,,,,,,,,,,,,,11,,69,0
15210,note_on,,1,0,8,,,,,,,,,,,,,,,,11,,69,48
15210,note_on,,1,0,9,,,,,,,,,,,,,,,,12,,62,48
15210,note_on,,1,0,7,,,,,,,,,,,,,,,,10,,72,48
15239,note_on,,59,0,11,,,,,,,,,,,,,,,,15,,69,0
15239,note_on,,29,0,9,,,,,,,,,,,,,,,,12,,62,0
15239,note_on,,39,0,6,,,,,,,,,,,,,,,,8,,57,0
15239,note_on,,59,0,10,,,,,,,,,,,,,,,,13,,54,0
15239,note_on,,0,0,11,,,,,,,,,,,,,,,,15,,54,0
15239,note_on,,0,0,11,,,,,,,,,,,,,,,,15,,60,0
15239,note_on,,0,0,11,,,,,,,,,,,,,,,,15,,62,0
15239,note_on,,59,0,5,,,,,,,,,,,,,,,,2,,54,0
15239,note_on,,29,0,7,,,,,,,,,,,,,,,,10,,72,0
15239,note_on,,29,0,8,,,,,,,,,,,,,,,,11,,69,0
15240,note_on,,1,0,9,,,,,,,,,,,,,,,,12,,62,48
15240,note_on,,0,0,11,,,,,,,,,,,,,,,,15,,74,48
15240,note_on,,1,0,5,,,,,,,,,,,,,,,,2,,54,48
15240,note_on,,1,0,10,,,,,,,,,,,,,,,,13,,54,48
15240,note_on,,1,0,7,,,,,,,,,,,,,,,,10,,74,48
15240,note_on,,1,0,11,,,,,,,,,,,,,,,,15,,54,48
15240,note_on,,1,0,6,,,,,,,,,,,,,,,,8,,55,72
15240,note_on,,1,0,8,,,,,,,,,,,,,,,,11,,69,48
15240,note_on,,0,0,11,,,,,,,,,,,,,,,,15,,72,48
15240,note_on,,0,0,11,,,,,,,,,,,,,,,,15,,65,48
15269,note_on,,29,0,9,,,,,,,,,,,,,,,,12,,62,0
15269,note_on,,29,0,8,,,,,,,,,,,,,,,,11,,69,0
15269,note_on,,29,0,7,,,,,,,,,,,,,,,,10,,74,0
15270,note_on,,1,0,9,,,,,,,,,,,,,,,,12,,62,48
15270,note_on,,1,0,7,,,,,,,,,,,,,,,,10,,74,48
15270,note_on,,1,0,8,,,,,,,,,,,,,,,,11,,69,48
15279,note_on,,39,0,6,,,,,,,,,,,,,,,,8,,55,0
15280,note_on,,1,0,6,,,,,,,,,,,,,,,,8,,57,72
15299,note_on,,29,0,9,,,,,,,,,,,,,,,,12,,62,0
15299,note_on,,59,0,11,,,,,,,,,,,,,,,,15,,54,0
15299,note_on,,29,0,8,,,,,,,,,,,,,,,,11,,69,0
15299,note_on,,59,0,10,,,,,,,,,,,,,,,,13,,54,0
15299,note_on,,29,0,7,,,,,,,,,,,,,,,,10,,74,0
15299,note_on,,59,0,5,,,,,,,,,,,,,,,,2,,54,0
15300,note_on,,1,0,8,,,,,,,,,,,,,,,,11,,69,48
15300,note_on,,1,0,10,,,,,,,,,,,,,,,,13,,54,48
15300,note_on,,1,0,7,,,,,,,,,,,,,,,,10,,74,48
15300,note_on,,1,0,5,,,,,,,,,,,,,,,,2,,54,48
15300,note_on,,1,0,11,,,,,,,,,,,,,,,,15,,54,48
15300,note_on,,1,0,9,,,,,,,,,,,,,,,,12,,62,48
15319,note_on,,39,0,6,,,,,,,,,,,,,,,,8,,57,0
15320,note_on,,1,0,6,,,,,,,,,,,,,,,,8,,53,72
15329,note_on,,29,0,8,,,,,,,,,,,,,,,,11,,69,0
15329,note_on,,29,0,7,,,,,,,,,,,,,,,,10,,74,0
15329,note_on,,29,0,9,,,,,,,,,,,,,,,,12,,62,0
15330,note_on,,1,0,7,,,,,,,,,,,,,,,,10,,74,48
15330,note_on,,1,0,8,,,,,,,,,,,,,,,,11,,69,48
15330,note_on,,1,0,9,,,,,,,,,,,,,,,,12,,62,48
15359,note_on,,29,0,9,,,,,,,,,,,,,,,,12,,62,0
15359,note_on,,59,0,10,,,,,,,,,,,,,,,,13,,54,0
15359,note_on,,0,0,11,,,,,,,,,,,,,,,,15,,54,0
15359,note_on,,0,0,11,,,,,,,,,,,,,,,,15,,65,0
15359,note_on,,59,0,11,,,,,,,,,,,,,,,,15,,74,0
15359,note_on,,29,0,7,,,,,,,,,,,,,,,,10,,74,0
15359,note_on,,29,0,8,,,,,,,,,,,,,,,,11,,69,0
15359,note_on,,39,0,6,,,,,,,,,,,,,,,,8,,53,0
15359,note_on,,0,0,11,,,,,,,,,,,,,,,,15,,72,0
15359,note_on,,59,0,5,,,,,,,,,,,,,,,,2,,54,0
15360,note_on,,0,0,11,,,,,,,,,,,,,,,,15,,67,48
15360,note_on,,1,0,7,,,,,,,,,,,,,,,,10,,71,48
15360,note_on,,1,0,9,,,,,,,,,,,,,,,,12,,62,48
15360,note_on,,1,0,8,,,,,,,,,,,,,,,,11,,67,48
15360,note_on,,1,0,11,,,,,,,,,,,,,,,,15,,55,48
15360,note_on,,0,0,11,,,,,,,,,,,,,,,,15,,71,48
15360,note_on,,0,0,11,,,,,,,,,,,,,,,,15,,62,48
15360,note_on,,1,0,10,,,,,,,,,,,,,,,,13,,55,48
15360,note_on,,0,0,11,,,,,,,,,,,,,,,,15,,59,48
15360,note_on,,1,0,6,,,,,,,,,,,,,,,,8,,59,72
15360,note_on,,1,0,5,,,,,,,,,,,,,,,,2,,55,48
15389,note_on,,29,0,7,,,,,,,,,,,,,,,,10,,71,0
15389,note_on,,29,0,9,,,,,,,,,,,,,,,,12,,62,0
15389,note_on,,29,0,8,,,,,,,,,,,,,,,,11,,67,0
15389,note_on,,29,0,6,,,,,,,,,,,,,,,,8,,59,0
15390,note_on,,1,0,7,,,,,,,,,,,,,,,,10,,71,48
15390,note_on,,1,0,8,,,,,,,,,,,,,,,,11,,67,48
15390,note_on,,1,0,6,,,,,,,,,,,,,,,,8,,57,72
15390,note_on,,1,0,9,,,,,,,,,,,,,,,,12,,62,48
15419,note_on,,59,0,11,,,,,,,,,,,,,,,,15,,55,0
15419,note_on,,29,0,6,,,,,,,,,,,,,,,,8,,57,0
15419,note_on,,29,0,9,,,,,,,,,,,,,,,,12,,62,0
15419,note_on,,29,0,7,,,,,,,,,,,,,,,,10,,71,0
15419,note_on,,59,0,10,,,,,,,,,,,,,,,,13,,55,0
15419,note_on,,29,0,8,,,,,,,,,,,,,,,,11,,67,0
15419,note_on,,0,0,11,,,,,,,,,,,,,,,,15,,59,0
15419,note_on,,59,0,5,,,,,,,,,,,,,,,,2,,55,0
15420,note_on,,1,0,10,,,,,,,,,,,,,,,,13,,55,48
15420,note_on,,1,0,9,,,,,,,,,,,,,,,,12,,62,48
15420,note_on,,1,0,6,,,,,,,,,,,,,,,,8,,55,72
15420,note_on,,1,0,7,,,,,,,,,,,,,,,,10,,83,48
15420,note_on,,1,0,11,,,,,,,,,,,,,,,,15,,55,48
15420,note_on,,1,0,8,,,,,,,,,,,,,,,,11,,79,48
15420,note_on,,1,0,5,,,,,,,,,,,,,,,,2,,55,48
15420,note_on,,0,0,11,,,,,,,,,,,,,,,,15,,59,48
15449,note_on,,29,0,7,,,,,,,,,,,,,,,,10,,83,0
15449,note_on,,29,0,9,,,,,,,,,,,,,,,,12,,62,0
15449,note_on,,29,0,8,,,,,,,,,,,,,,,,11,,79,0
15450,note_on,,1,0,7,,,,,,,,,,,,,,,,10,,83,48
15450,note_on,,1,0,8,,,,,,,,,,,,,,,,11,,79,48
15450,note_on,,1,0,9,,,,,,,,,,,,,,,,12,,62,48
15479,note_on,,59,0,11,,,,,,,,,,,,,,,,15,,55,0
15479,note_on,,29,0,9,,,,,,,,,,,,,,,,12,,62,0
15479,note_on,,29,0,7,,,,,,,,,,,,,,,,10,,83,0
15479,note_on,,59,0,6,,,,,,,,,,,,,,,,8,,55,0
15479,note_on,,29,0,8,,,,,,,,,,,,,,,,11,,79,0
15479,note_on,,59,0,5,,,,,,,,,,,,,,,,2,,55,0
15479,note_on,,59,0,10,,,,,,,,,,,,,,,,13,,55,0
15479,note_on,,0,0,11,,,,,,,,,,,,,,,,15,,59,0
15480,note_on,,0,0,11,,,,,,,,,,,,,,,,15,,57,48
15480,note_on,,1,0,8,,,,,,,,,,,,,,,,11,,67,48
15480,note_on,,1,0,9,,,,,,,,,,,,,,,,12,,62,48
15480,note_on,,1,0,11,,,,,,,,,,,,,,,,15,,54,48
15480,note_on,,1,0,10,,,,,,,,,,,,,,,,13,,54,48
15480,note_on,,1,0,7,,,,,,,,,,,,,,,,10,,71,48
15480,note_on,,1,0,6,,,,,,,,,,,,,,,,8,,59,72
15480,note_on,,1,0,5,,,,,,,,,,,,,,,,2,,54,48
15509,note_on,,29,0,7,,,,,,,,,,,,,,,,10,,71,0
15509,note_on,,29,0,8,,,,,,,,,,,,,,,,11,,67,0
15509,note_on,,29,0,6,,,,,,,,,,,,,,,,8,,59,0
15509,note_on,,29,0,9,,,,,,,,,,,,,,,,12,,62,0
15510,note_on,,1,0,9,,,,,,,,,,,,,,,,12,,62,48
15510,note_on,,1,0,8,,,,,,,,,,,,,,,,11,,67,48
15510,note_on,,1,0,7,,,,,,,,,,,,,,,,10,,71,48
15510,note_on,,1,0,6,,,,,,,,,,,,,,,,8,,57,72
15539,note_on,,59,0,10,,,,,,,,,,,,,,,,13,,54,0
15539,note_on,,29,0,9,,,,,,,,,,,,,,,,12,,62,0
15539,note_on,,0,0,11,,,,,,,,,,,,,,,,15,,57,0
15539,note_on,,59,0,11,,,,,,,,,,,,,,,,15,,54,0
15539,note_on,,59,0,5,,,,,,,,,,,,,,,,2,,54,0
15539,note_on,,29,0,6,,,,,,,,,,,,,,,,8,,57,0
15539,note_on,,29,0,7,,,,,,,,,,,,,,,,10,,71,0
15539,note_on,,29,0,8,,,,,,,,,,,,,,,,11,,67,0
15540,note_on,,1,0,10,,,,,,,,,,,,,,,,13,,54,48
15540,note_on,,1,0,8,,,,,,,,,,,,,,,,11,,79,48
15540,note_on,,1,0,11,,,,,,,,,,,,,,,,15,,54,48
15540,note_on,,0,0,11,,,,,,,,,,,,,,,,15,,57,48
15540,note_on,,1,0,5,,,,,,,,,,,,,,,,2,,54,48
15540,note_on,,1,0,6,,,,,,,,,,,,,,,,8,,55,72
15540,note_on,,1,0,7,,,,,,,,,,,,,,,,10,,83,48
15540,note_on,,1,0,9,,,,,,,,,,,,,,,,12,,62,48
15569,note_on,,29,0,7,,,,,,,,,,,,,,,,10,,83,0
15569,note_on,,29,0,9,,,,,,,,,,,,,,,,12,,62,0
15569,note_on,,29,0,8,,,,,,,,,,,,,,,,11,,79,0
15570,note_on,,1,0,8,,,,,,,,,,,,,,,,11,,79,48
15570,note_on,,1,0,9,,,,,,,,,,,,,,,,12,,62,48
15570,note_on,,1,0,7,,,,,,,,,,,,,,,,10,,83,48
15599,note_on,,29,0,7,,,,,,,,,,,,,,,,10,,83,0
15599,note_on,,59,0,10,,,,,,,,,,,,,,,,13,,54,0
15599,note_on,,59,0,6,,,,,,,,,,,,,,,,8,,55,0
15599,note_on,,29,0,8,,,,,,,,,,,,,,,,11,,79,0
15599,note_on,,59,0,5,,,,,,,,,,,,,,,,2,,54,0
15599,note_on,,0,0,11,,,,,,,,,,,,,,,,15,,62,0
15599,note_on,,29,0,9,,,,,,,,,,,,,,,,12,,62,0
15599,note_on,,0,0,11,,,,,,,,,,,,,,,,15,,57,0
15599,note_on,,59,0,11,,,,,,,,,,,,,,,,15,,67,0
15599,note_on,,0,0,11,,,,,,,,,,,,,,,,15,,54,0
15600,note_on,,1,0,5,,,,,,,,,,,,,,,,2,,52,48
15600,note_on,,1,0,8,,,,,,,,,,,,,,,,11,,67,48
15600,note_on,,0,0,11,,,,,,,,,,,,,,,,15,,55,48
15600,note_on,,1,0,11,,,,,,,,,,,,,,,,15,,52,48
15600,note_on,,0,0,11,,,,,,,,,,,,,,,,15,,64,48
15600,note_on,,0,0,11,,,,,,,,,,,,,,,,15,,67,48
15600,note_on,,1,0,7,,,,,,,,,,,,,,,,10,,71,48
15600,note_on,,1,0,9,,,,,,,,,,,,,,,,12,,64,48
15600,note_on,,1,0,6,,,,,,,,,,,,,,,,8,,59,72
15600,note_on,,1,0,10,,,,,,,,,,,,,,,,13,,52,48
15629,note_on,,29,0,7,,,,,,,,,,,,,,,,10,,71,0
15629,note_on,,29,0,6,,,,,,,,,,,,,,,,8,,59,0
15629,note_on,,29,0,8,,,,,,,,,,,,,,,,11,,67,0
15629,note_on,,29,0,9,,,,,,,,,,,,,,,,12,,64,0
15630,note_on,,1,0,6,,,,,,,,,,,,,,,,8,,57,72
15630,note_on,,1,0,7,,,,,,,,,,,,,,,,10,,71,48
15630,note_on,,1,0,9,,,,,,,,,,,,,,,,12,,64,48
15630,note_on,,1,0,8,,,,,,,,,,,,,,,,11,,67,48
15659,note_on,,59,0,11,,,,,,,,,,,,,,,,15,,52,0
15659,note_on,,0,0,11,,,,,,,,,,,,,,,,15,,55,0
15659,note_on,,59,0,5,,,,,,,,,,,,,,,,2,,52,0
15659,note_on,,29,0,7,,,,,,,,,,,,,,,,10,,71,0
15659,note_on,,59,0,10,,,,,,,,,,,,,,,,13,,52,0
15659,note_on,,29,0,9,,,,,,,,,,,,,,,,12,,64,0
15659,note_on,,29,0,6,,,,,,,,,,,,,,,,8,,57,0
15659,note_on,,29,0,8,,,,,,,,,,,,,,,,11,,67,0
15660,note_on,,1,0,11,,,,,,,,,,,,,,,,15,,52,48
15660,note_on,,0,0,11,,,,,,,,,,,,,,,,15,,55,48
15660,note_on,,1,0,8,,,,,,,,,,,,,,,,11,,79,48
15660,note_on,,1,0,5,,,,,,,,,,,,,,,,2,,52,48
15660,note_on,,1,0,10,,,,,,,,,,,,,,,,13,,52,48
15660,note_on,,1,0,9,,,,,,,,,,,,,,,,12,,64,48
15660,note_on,,1,0,7,,,,,,,,,,,,,,,,10,,83,48
15660,note_on,,1,0,6,,,,,,,,,,,,,,,,8,,55,72
15689,note_on,,29,0,8,,,,,,,,,,,,,,,,11,,79,0
15689,note_on,,29,0,9,,,,,,,,,,,,,,,,12,,64,0
15689,note_on,,29,0,7,,,,,,,,,,,,,,,,10,,83,0
15690,note_on,,1,0,9,,,,,,,,,,,,,,,,12,,64,48
15690,note_on,,1,0,8,,,,,,,,,,,,,,,,11,,79,48
15690,note_on,,1,0,7,,,,,,,,,,,,,,,,10,,83,48
15719,note_on,,29,0,7,,,,,,,,,,,,,,,,10,,83,0
15719,note_on,,59,0,10,,,,,,,,,,,,,,,,13,,52,0
15719,note_on,,29,0,9,,,,,,,,,,,,,,,,12,,64,0
15719,note_on,,59,0,5,,,,,,,,,,,,,,,,2,,52,0
15719,note_on,,29,0,8,,,,,,,,,,,,,,,,11,,79,0
15719,note_on,,59,0,11,,,,,,,,,,,,,,,,15,,52,0
15719,note_on,,0,0,11,,,,,,,,,,,,,,,,15,,55,0
15719,note_on,,59,0,6,,,,,,,,,,,,,,,,8,,55,0
15720,note_on,,1,0,11,,,,,,,,,,,,,,,,15,,50,48
15720,note_on,,1,0,9,,,,,,,,,,,,,,,,12,,64,48
15720,note_on,,1,0,5,,,,,,,,,,,,,,,,2,,50,48
15720,note_on,,1,0,10,,,,,,,,,,,,,,,,13,,50,48
15720,note_on,,0,0,11,,,,,,,,,,,,,,,,15,,54,48
15720,note_on,,1,0,7,,,,,,,,,,,,,,,,10,,71,48
15720,note_on,,1,0,6,,,,,,,,,,,,,,,,8,,59,72
15720,note_on,,1,0,8,,,,,,,,,,,,,,,,11,,67,48
15749,note_on,,29,0,7,,,,,,,,,,,,,,,,10,,71,0
15749,note_on,,29,0,9,,,,,,,,,,,,,,,,12,,64,0
15749,note_on,,29,0,6,,,,,,,,,,,,,,,,8,,59,0
15749,note_on,,29,0,8,,,,,,,,,,,,,,,,11,,67,0
15750,note_on,,1,0,6,,,,,,,,,,,,,,,,8,,57,72
15750,note_on,,1,0,7,,,,,,,,,,,,,,,,10,,71,48
15750,note_on,,1,0,9,,,,,,,,,,,,,,,,12,,64,48
15750,note_on,,1,0,8,,,,,,,,,,,,,,,,11,,67,48
15779,note_on,,29,0,9,,,,,,,,,,,,,,,,12,,64,0
15779,note_on,,29,0,7,,,,,,,,,,,,,,,,10,,71,0
15779,note_on,,59,0,5,,,,,,,,,,,,,,,,2,,50,0
15779,note_on,,0,0,11,,,,,,,,,,,,,,,,15,,54,0
15779,note_on,,29,0,6,,,,,,,,,,,,,,,,8,,57,0
15779,note_on,,59,0,10,,,,,,,,,,,,,,,,13,,50,0
15779,note_on,,29,0,8,,,,,,,,,,,,,,,,11,,67,0
15779,note_on,,59,0,11,,,,,,,,,,,,,,,,15,,50,0
15780,note_on,,1,0,10,,,,,,,,,,,,,,,,13,,50,48
15780,note_on,,1,0,5,,,,,,,,,,,,,,,,2,,50,48
15780,note_on,,1,0,8,,,,,,,,,,,,,,,,11,,79,48
15780,note_on,,1,0,11,,,,,,,,,,,,,,,,15,,50,48
15780,note_on,,1,0,7,,,,,,,,,,,,,,,,10,,83,48
15780,note_on,,0,0,11,,,,,,,,,,,,,,,,15,,54,48
15780,note_on,,1,0,6,,,,,,,,,,,,,,,,8,,55,72
15780,note_on,,1,0,9,,,,,,,,,,,,,,,,12,,64,48
15809,note_on,,29,0,7,,,,,,,,,,,,,,,,10,,83,0
15809,note_on,,29,0,9,,,,,,,,,,,,,,,,12,,64,0
15809,note_on,,29,0,8,,,,,,,,,,,,,,,,11,,79,0
15810,note_on,,1,0,8,,,,,,,,,,,,,,,,11,,79,48
15810,note_on,,1,0,9,,,,,,,,,,,,,,,,12,,64,48
15810,note_on,,1,0,7,,,,,,,,,,,,,,,,10,,83,48
15839,note_on,,29,0,9,,,,,,,,,,,,,,,,12,,64,0
15839,note_on,,59,0,10,,,,,,,,,,,,,,,,13,,50,0
15839,note_on,,59,0,5,,,,,,,,,,,,,,,,2,,50,0
15839,note_on,,59,0,11,,,,,,,,,,,,,,,,15,,71,0
15839,note_on,,59,0,6,,,,,,,,,,,,,,,,8,,55,0
15839,note_on,,29,0,8,,,,,,,,,,,,,,,,11,,79,0
15839,note_on,,0,0,11,,,,,,,,,,,,,,,,15,,54,0
15839,note_on,,29,0,7,,,,,,,,,,,,,,,,10,,83,0
15839,note_on,,0,0,11,,,,,,,,,,,,,,,,15,,67,0
15839,note_on,,0,0,11,,,,,,,,,,,,,,,,15,,64,0
15839,note_on,,0,0,11,,,,,,,,,,,,,,,,15,,50,0
15840,note_on,,1,0,8,,,,,,,,,,,,,,,,11,,67,48
15840,note_on,,1,0,7,,,,,,,,,,,,,,,,10,,71,48
15840,note_on,,1,0,10,,,,,,,,,,,,,,,,13,,49,48
15840,note_on,,0,0,11,,,,,,,,,,,,,,,,15,,67,48
15840,note_on,,1,0,9,,,,,,,,,,,,,,,,12,,64,48
15840,note_on,,0,0,11,,,,,,,,,,,,,,,,15,,71,48
15840,note_on,,0,0,11,,,,,,,,,,,,,,,,15,,76,48
15840,note_on,,0,0,11,,,,,,,,,,,,,,,,15,,52,48
15840,note_on,,1,0,11,,,,,,,,,,,,,,,,15,,49,48
15840,note_on,,1,0,5,,,,,,,,,,,,,,,,2,,49,48
15840,note_on,,1,0,6,,,,,,,,,,,,,,,,8,,59,72
15869,note_on,,29,0,7,,,,,,,,,,,,,,,,10,,71,0
15869,note_on,,29,0,9,,,,,,,,,,,,,,,,12,,64,0
15869,note_on,,29,0,8,,,,,,,,,,,,,,,,11,,67,0
15870,note_on,,1,0,8,,,,,,,,,,,,,,,,11,,67,48
15870,note_on,,1,0,9,,,,,,,,,,,,,,,,12,,64,48
15870,note_on,,1,0,7,,,,,,,,,,,,,,,,10,,71,48
15899,note_on,,29,0,8,,,,,,,,,,,,,,,,11,,67,0
15899,note_on,,59,0,11,,,,,,,,,,,,,,,,15,,49,0
15899,note_on,,29,0,7,,,,,,,,,,,,,,,,10,,71,0
15899,note_on,,0,0,11,,,,,,,,,,,,,,,,15,,52,0
15899,note_on,,59,0,5,,,,,,,,,,,,,,,,2,,49,0
15899,note_on,,59,0,10,,,,,,,,,,,,,,,,13,,49,0
15899,note_on,,29,0,9,,,,,,,,,,,,,,,,12,,64,0
15900,note_on,,1,0,5,,,,,,,,,,,,,,,,2,,49,48
15900,note_on,,1,0,9,,,,,,,,,,,,,,,,12,,64,48
15900,note_on,,1,0,8,,,,,,,,,,,,,,,,11,,79,48
15900,note_on,,1,0,11,,,,,,,,,,,,,,,,15,,49,48
15900,note_on,,1,0,7,,,,,,,,,,,,,,,,10,,83,48
15900,note_on,,1,0,10,,,,,,,,,,,,,,,,13,,49,48
15900,note_on,,0,0,11,,,,,,,,,,,,,,,,15,,52,48
15929,note_on,,29,0,7,,,,,,,,,,,,,,,,10,,83,0
15929,note_on,,29,0,9,,,,,,,,,,,,,,,,12,,64,0
15929,note_on,,29,0,8,,,,,,,,,,,,,,,,11,,79,0
15930,note_on,,1,0,7,,,,,,,,,,,,,,,,10,,83,48
15930,note_on,,1,0,9,,,,,,,,,,,,,,,,12,,64,48
15930,note_on,,1,0,8,,,,,,,,,,,,,,,,11,,79,48
15959,note_on,,29,0,8,,,,,,,,,,,,,,,,11,,79,0
15959,note_on,,29,0,9,,,,,,,,,,,,,,,,12,,64,0
15959,note_on,,29,0,7,,,,,,,,,,,,,,,,10,,83,0
15959,note_on,,59,0,5,,,,,,,,,,,,,,,,2,,49,0
15959,note_on,,59,0,11,,,,,,,,,,,,,,,,15,,49,0
15959,note_on,,59,0,10,,,,,,,,,,,,,,,,13,,49,0
15959,note_on,,0,0,11,,,,,,,,,,,,,,,,15,,52,0
15960,note_on,,1,0,8,,,,,,,,,,,,,,,,11,,67,48
15960,note_on,,1,0,7,,,,,,,,,,,,,,,,10,,71,48
15960,note_on,,1,0,5,,,,,,,,,,,,,,,,2,,49,48
15960,note_on,,1,0,9,,,,,,,,,,,,,,,,12,,64,48
15960,note_on,,1,0,10,,,,,,,,,,,,,,,,13,,49,48
15960,note_on,,0,0,11,,,,,,,,,,,,,,,,15,,52,48
15960,note_on,,1,0,11,,,,,,,,,,,,,,,,15,,49,48
15989,note_on,,29,0,7,,,,,,,,,,,,,,,,10,,71,0
15989,note_on,,29,0,8,,,,,,,,,,,,,,,,11,,67,0
15989,note_on,,29,0,9,,,,,,,,,,,,,,,,12,,64,0
15990,note_on,,1,0,7,,,,,,,,,,,,,,,,10,,71,48
15990,note_on,,1,0,9,,,,,,,,,,,,,,,,12,,64,48
15990,note_on,,1,0,8,,,,,,,,,,,,,,,,11,,67,48
16019,note_on,,29,0,9,,,,,,,,,,,,,,,,12,,64,0
16019,note_on,,59,0,11,,,,,,,,,,,,,,,,15,,49,0
16019,note_on,,0,0,11,,,,,,,,,,,,,,,,15,,52,0
16019,note_on,,59,0,5,,,,,,,,,,,,,,,,2,,49,0
16019,note_on,,29,0,8,,,,,,,,,,,,,,,,11,,67,0
16019,note_on,,29,0,7,,,,,,,,,,,,,,,,10,,71,0
16019,note_on,,59,0,10,,,,,,,,,,,,,,,,13,,49,0
16020,note_on,,1,0,7,,,,,,,,,,,,,,,,10,,83,48
16020,note_on,,1,0,8,,,,,,,,,,,,,,,,11,,79,48
16020,note_on,,1,0,9,,,,,,,,,,,,,,,,12,,64,48
16020,note_on,,0,0,11,,,,,,,,,,,,,,,,15,,52,48
16020,note_on,,1,0,5,,,,,,,,,,,,,,,,2,,49,48
16020,note_on,,1,0,11,,,,,,,,,,,,,,,,15,,49,48
16020,note_on,,1,0,10,,,,,,,,,,,,,,,,13,,49,48
16049,note_on,,29,0,9,,,,,,,,,,,,,,,,12,,64,0
16049,note_on,,29,0,8,,,,,,,,,,,,,,,,11,,79,0
16049,note_on,,29,0,7,,,,,,,,,,,,,,,,10,,83,0
16050,note_on,,1,0,9,,,,,,,,,,,,,,,,12,,64,48
16050,note_on,,1,0,8,,,,,,,,,,,,,,,,11,,79,48
16050,note_on,,1,0,7,,,,,,,,,,,,,,,,10,,83,48
16079,note_on,,0,0,11,,,,,,,,,,,,,,,,15,,52,0
16079,note_on,,0,0,11,,,,,,,,,,,,,,,,15,,49,0
16079,note_on,,0,0,11,,,,,,,,,,,,,,,,15,,67,0
16079,note_on,,59,0,5,,,,,,,,,,,,,,,,2,,49,0
16079,note_on,,59,0,11,,,,,,,,,,,,,,,,15,,76,0
16079,note_on,,29,0,9,,,,,,,,,,,,,,,,12,,64,0
16079,note_on,,59,0,10,,,,,,,,,,,,,,,,13,,49,0
16079,note_on,,29,0,7,,,,,,,,,,,,,,,,10,,83,0
16079,note_on,,0,0,11,,,,,,,,,,,,,,,,15,,71,0
16079,note_on,,29,0,8,,,,,,,,,,,,,,,,11,,79,0
16080,note_on,,1,0,7,,,,,,,,,,,,,,,,10,,71,48
16080,note_on,,0,0,11,,,,,,,,,,,,,,,,15,,52,48
16080,note_on,,1,0,5,,,,,,,,,,,,,,,,2,,49,48
16080,note_on,,1,0,8,,,,,,,,,,,,,,,,11,,67,48
16080,note_on,,0,0,11,,,,,,,,,,,,,,,,15,,64,48
16080,note_on,,1,0,11,,,,,,,,,,,,,,,,15,,49,48
16080,note_on,,1,0,9,,,,,,,,,,,,,,,,12,,64,48
16080,note_on,,0,0,11,,,,,,,,,,,,,,,,15,,59,48
16080,note_on,,0,0,11,,,,,,,,,,,,,,,,15,,67,48
16080,note_on,,1,0,10,,,,,,,,,,,,,,,,13,,49,48
16109,note_on,,29,0,9,,,,,,,,,,,,,,,,12,,64,0
16109,note_on,,29,0,8,,,,,,,,,,,,,,,,11,,67,0
16109,note_on,,29,0,7,,,,,,,,,,,,,,,,10,,71,0
16110,note_on,,1,0,9,,,,,,,,,,,,,,,,12,,64,48
16110,note_on,,1,0,8,,,,,,,,,,,,,,,,11,,67,48
16110,note_on,,1,0,7,,,,,,,,,,,,,,,,10,,71,48
16139,note_on,,29,0,9,,,,,,,,,,,,,,,,12,,64,0
16139,note_on,,29,0,8,,,,,,,,,,,,,,,,11,,67,0
16139,note_on,,29,0,7,,,,,,,,,,,,,,,,10,,71,0
16139,note_on,,59,0,10,,,,,,,,,,,,,,,,13,,49,0
16139,note_on,,59,0,5,,,,,,,,,,,,,,,,2,,49,0
16139,note_on,,59,0,11,,,,,,,,,,,,,,,,15,,49,0
16139,note_on,,0,0,11,,,,,,,,,,,,,,,,15,,52,0
16140,note_on,,1,0,9,,,,,,,,,,,,,,,,12,,64,48
16140,note_on,,1,0,5,,,,,,,,,,,,,,,,2,,49,48
16140,note_on,,1,0,10,,,,,,,,,,,,,,,,13,,49,48
16140,note_on,,0,0,11,,,,,,,,,,,,,,,,15,,52,48
16140,note_on,,1,0,11,,,,,,,,,,,,,,,,15,,49,48
16140,note_on,,1,0,8,,,,,,,,,,,,,,,,11,,79,48
16140,note_on,,1,0,7,,,,,,,,,,,,,,,,10,,83,48
16169,note_on,,29,0,7,,,,,,,,,,,,,,,,10,,83,0
16169,note_on,,29,0,9,,,,,,,,,,,,,,,,12,,64,0
16169,note_on,,29,0,8,,,,,,,,,,,,,,,,11,,79,0
16170,note_on,,1,0,9,,,,,,,,,,,,,,,,12,,64,48
16170,note_on,,1,0,7,,,,,,,,,,,,,,,,10,,83,48
16170,note_on,,1,0,8,,,,,,,,,,,,,,,,11,,79,48
16199,note_on,,29,0,9,,,,,,,,,,,,,,,,12,,64,0
16199,note_on,,359,0,6,,,,,,,,,,,,,,,,8,,59,0
16199,note_on,,29,0,8,,,,,,,,,,,,,,,,11,,79,0
16199,note_on,,59,0,5,,,,,,,,,,,,,,,,2,,49,0
16199,note_on,,59,0,10,,,,,,,,,,,,,,,,13,,49,0
16199,note_on,,0,0,11,,,,,,,,,,,,,,,,15,,52,0
16199,note_on,,29,0,7,,,,,,,,,,,,,,,,10,,83,0
16199,note_on,,59,0,11,,,,,,,,,,,,,,,,15,,49,0
16200,note_on,,1,0,10,,,,,,,,,,,,,,,,13,,49,48
16200,note_on,,1,0,5,,,,,,,,,,,,,,,,2,,49,48
16200,note_on,,1,0,6,,,,,,,,,,,,,,,,8,,57,72
16200,note_on,,0,0,11,,,,,,,,,,,,,,,,15,,52,48
16200,note_on,,1,0,11,,,,,,,,,,,,,,,,15,,49,48
16200,note_on,,1,0,9,,,,,,,,,,,,,,,,12,,64,48
16200,note_on,,1,0,7,,,,,,,,,,,,,,,,10,,71,48
16200,note_on,,1,0,8,,,,,,,,,,,,,,,,11,,67,48
16229,note_on,,29,0,9,,,,,,,,,,,,,,,,12,,64,0
16229,note_on,,29,0,7,,,,,,,,,,,,,,,,10,,71,0
16229,note_on,,29,0,8,,,,,,,,,,,,,,,,11,,67,0
16230,note_on,,1,0,9,,,,,,,,,,,,,,,,12,,64,48
16230,note_on,,1,0,7,,,,,,,,,,,,,,,,10,,71,48
16230,note_on,,1,0,8,,,,,,,,,,,,,,,,11,,67,48
16259,note_on,,59,0,5,,,,,,,,,,,,,,,,2,,49,0
16259,note_on,,59,0,10,,,,,,,,,,,,,,,,13,,49,0
16259,note_on,,59,0,6,,,,,,,,,,,,,,,,8,,57,0
16259,note_on,,0,0,11,,,,,,,,,,,,,,,,15,,52,0
16259,note_on,,59,0,11,,,,,,,,,,,,,,,,15,,49,0
16259,note_on,,29,0,8,,,,,,,,,,,,,,,,11,,67,0
16259,note_on,,29,0,7,,,,,,,,,,,,,,,,10,,71,0
16259,note_on,,29,0,9,,,,,,,,,,,,,,,,12,,64,0
16260,note_on,,1,0,10,,,,,,,,,,,,,,,,13,,49,48
16260,note_on,,1,0,11,,,,,,,,,,,,,,,,15,,49,48
16260,note_on,,0,0,11,,,,,,,,,,,,,,,,15,,52,48
16260,note_on,,1,0,7,,,,,,,,,,,,,,,,10,,83,48
16260,note_on,,1,0,6,,,,,,,,,,,,,,,,8,,55,72
16260,note_on,,1,0,5,,,,,,,,,,,,,,,,2,,49,48
16260,note_on,,1,0,9,,,,,,,,,,,,,,,,12,,64,48
16260,note_on,,1,0,8,,,,,,,,,,,,,,,,11,,79,48
16289,note_on,,29,0,7,,,,,,,,,,,,,,,,10,,83,0
16289,note_on,,29,0,8,,,,,,,,,,,,,,,,11,,79,0
16289,note_on,,29,0,9,,,,,,,,,,,,,,,,12,,64,0
16290,note_on,,1,0,9,,,,,,,,,,,,,,,,12,,64,48
16290,note_on,,1,0,7,,,,,,,,,,,,,,,,10,,83,48
16290,note_on,,1,0,8,,,,,,,,,,,,,,,,11,,79,48
16319,note_on,,29,0,8,,,,,,,,,,,,,,,,11,,79,0
16319,note_on,,29,0,9,,,,,,,,,,,,,,,,12,,64,0
16319,note_on,,0,0,11,,,,,,,,,,,,,,,,15,,59,0
16319,note_on,,0,0,11,,,,,,,,,,,,,,,,15,,64,0
16319,note_on,,59,0,11,,,,,,,,,,,,,,,,15,,67,0
16319,note_on,,59,0,5,,,,,,,,,,,,,,,,2,,49,0
16319,note_on,,0,0,11,,,,,,,,,,,,,,,,15,,49,0
16319,note_on,,29,0,7,,,,,,,,,,,,,,,,10,,83,0
16319,note_on,,59,0,6,,,,,,,,,,,,,,,,8,,55,0
16319,note_on,,0,0,11,,,,,,,,,,,,,,,,15,,52,0
16319,note_on,,59,0,10,,,,,,,,,,,,,,,,13,,49,0
16320,note_on,,1,0,8,,,,,,,,,,,,,,,,11,,78,48
16320,note_on,,1,0,10,,,,,,,,,,,,,,,,13,,50,48
16320,note_on,,1,0,7,,,,,,,,,,,,,,,,10,,81,48
16320,note_on,,1,0,9,,,,,,,,,,,,,,,,12,,69,48
16320,note_on,,1,0,11,,,,,,,,,,,,,,,,15,,50,48
16320,note_on,,0,0,11,,,,,,,,,,,,,,,,15,,54,48
16320,note_on,,0,0,11,,,,,,,,,,,,,,,,15,,66,48
16320,note_on,,1,0,6,,,,,,,,,,,,,,,,8,,62,72
16320,note_on,,1,0,5,,,,,,,,,,,,,,,,2,,50,48
16320,note_on,,0,0,11,,,,,,,,,,,,,,,,15,,62,48
16349,note_on,,29,0,7,,,,,,,,,,,,,,,,10,,81,0
16349,note_on,,29,0,8,,,,,,,,,,,,,,,,11,,78,0
16350,note_on,,1,0,7,,,,,,,,,,,,,,,,10,,83,48
16350,note_on,,1,0,8,,,,,,,,,,,,,,,,11,,79,48
16379,note_on,,59,0,11,,,,,,,,,,,,,,,,15,,50,0
16379,note_on,,59,0,5,,,,,,,,,,,,,,,,2,,50,0
16379,note_on,,59,0,6,,,,,,,,,,,,,,,,8,,62,0
16379,note_on,,59,0,10,,,,,,,,,,,,,,,,13,,50,0
16379,note_on,,0,0,11,,,,,,,,,,,,,,,,15,,66,0
16379,note_on,,29,0,8,,,,,,,,,,,,,,,,11,,79,0
16379,note_on,,29,0,7,,,,,,,,,,,,,,,,10,,83,0
16379,note_on,,0,0,11,,,,,,,,,,,,,,,,15,,62,0
16379,note_on,,0,0,11,,,,,,,,,,,,,,,,15,,54,0
16379,note_on,,59,0,9,,,,,,,,,,,,,,,,12,,69,0
16380,note_on,,1,0,10,,,,,,,,,,,,,,,,13,,49,48
16380,note_on,,1,0,11,,,,,,,,,,,,,,,,15,,49,48
16380,note_on,,0,0,11,,,,,,,,,,,,,,,,15,,67,48
16380,note_on,,0,0,11,,,,,,,,,,,,,,,,15,,52,48
16380,note_on,,0,0,11,,,,,,,,,,,,,,,,15,,64,48
16380,note_on,,1,0,8,,,,,,,,,,,,,,,,11,,78,48
16380,note_on,,1,0,6,,,,,,,,,,,,,,,,8,,61,72
16380,note_on,,1,0,7,,,,,,,,,,,,,,,,10,,81,48
16380,note_on,,1,0,5,,,,,,,,,,,,,,,,2,,49,48
16380,note_on,,1,0,9,,,,,,,,,,,,,,,,12,,69,48
16409,note_on,,29,0,7,,,,,,,,,,,,,,,,10,,81,0
16409,note_on,,29,0,8,,,,,,,,,,,,,,,,11,,78,0
16410,note_on,,1,0,7,,,,,,,,,,,,,,,,10,,83,48
16410,note_on,,1,0,8,,,,,,,,,,,,,,,,11,,79,48
16439,note_on,,29,0,7,,,,,,,,,,,,,,,,10,,83,0
16439,note_on,,59,0,10,,,,,,,,,,,,,,,,13,,49,0
16439,note_on,,0,0,11,,,,,,,,,,,,,,,,15,,67,0
16439,note_on,,59,0,11,,,,,,,,,,,,,,,,15,,49,0
16439,note_on,,0,0,11,,,,,,,,,,,,,,,,15,,64,0
16439,note_on,,0,0,11,,,,,,,,,,,,,,,,15,,52,0
16439,note_on,,29,0,8,,,,,,,,,,,,,,,,11,,79,0
16439,note_on,,59,0,9,,,,,,,,,,,,,,,,12,,69,0
16439,note_on,,59,0,5,,,,,,,,,,,,,,,,2,,49,0
16439,note_on,,59,0,6,,,,,,,,,,,,,,,,8,,61,0
16440,note_on,,1,0,9,,,,,,,,,,,,,,,,12,,62,48
16440,note_on,,1,0,7,,,,,,,,,,,,,,,,10,,81,48
16440,note_on,,1,0,11,,,,,,,,,,,,,,,,15,,50,48
16440,note_on,,0,0,11,,,,,,,,,,,,,,,,15,,66,48
16440,note_on,,0,0,11,,,,,,,,,,,,,,,,15,,62,48
16440,note_on,,0,0,11,,,,,,,,,,,,,,,,15,,54,48
16440,note_on,,1,0,6,,,,,,,,,,,,,,,,8,,62,72
16440,note_on,,1,0,10,,,,,,,,,,,,,,,,13,,50,48
16440,note_on,,1,0,5,,,,,,,,,,,,,,,,2,,50,48
16440,note_on,,1,0,8,,,,,,,,,,,,,,,,11,,78,48
16469,note_on,,29,0,8,,,,,,,,,,,,,,,,11,,78,0
16469,note_on,,29,0,7,,,,,,,,,,,,,,,,10,,81,0
16470,note_on,,1,0,8,,,,,,,,,,,,,,,,11,,79,48
16470,note_on,,1,0,7,,,,,,,,,,,,,,,,10,,83,48
16499,note_on,,59,0,6,,,,,,,,,,,,,,,,8,,62,0
16499,note_on,,29,0,7,,,,,,,,,,,,,,,,10,,83,0
16499,note_on,,59,0,10,,,,,,,,,,,,,,,,13,,50,0
16499,note_on,,59,0,9,,,,,,,,,,,,,,,,12,,62,0
16499,note_on,,29,0,8,,,,,,,,,,,,,,,,11,,79,0
16499,note_on,,59,0,5,,,,,,,,,,,,,,,,2,,50,0
16499,note_on,,0,0,11,,,,,,,,,,,,,,,,15,,54,0
16499,note_on,,0,0,11,,,,,,,,,,,,,,,,15,,62,0
16499,note_on,,59,0,11,,,,,,,,,,,,,,,,15,,50,0
16499,note_on,,0,0,11,,,,,,,,,,,,,,,,15,,66,0
16500,note_on,,1,0,8,,,,,,,,,,,,,,,,11,,78,48
16500,note_on,,0,0,11,,,,,,,,,,,,,,,,15,,52,48
16500,note_on,,0,0,11,,,,,,,,,,,,,,,,15,,64,48
16500,note_on,,0,0,11,,,,,,,,,,,,,,,,15,,67,48
16500,note_on,,1,0,5,,,,,,,,,,,,,,,,2,,49,48
16500,note_on,,1,0,11,,,,,,,,,,,,,,,,15,,49,48
16500,note_on,,1,0,6,,,,,,,,,,,,,,,,8,,61,72
16500,note_on,,1,0,7,,,,,,,,,,,,,,,,10,,81,48
16500,note_on,,1,0,10,,,,,,,,,,,,,,,,13,,49,48
16500,note_on,,1,0,9,,,,,,,,,,,,,,,,12,,69,48
16529,note_on,,29,0,8,,,,,,,,,,,,,,,,11,,78,0
16529,note_on,,29,0,7,,,,,,,,,,,,,,,,10,,81,0
16530,note_on,,1,0,8,,,,,,,,,,,,,,,,11,,79,48
16530,note_on,,1,0,7,,,,,,,,,,,,,,,,10,,83,48
16559,note_on,,59,0,10,,,,,,,,,,,,,,,,13,,49,0
16559,note_on,,29,0,8,,,,,,,,,,,,,,,,11,,79,0
16559,note_on,,59,0,9,,,,,,,,,,,,,,,,12,,69,0
16559,note_on,,59,0,5,,,,,,,,,,,,,,,,2,,49,0
16559,note_on,,59,0,6,,,,,,,,,,,,,,,,8,,61,0
16559,note_on,,0,0,11,,,,,,,,,,,,,,,,15,,52,0
16559,note_on,,0,0,11,,,,,,,,,,,,,,,,15,,64,0
16559,note_on,,0,0,11,,,,,,,,,,,,,,,,15,,67,0
16559,note_on,,59,0,11,,,,,,,,,,,,,,,,15,,49,0
16559,note_on,,29,0,7,,,,,,,,,,,,,,,,10,,83,0
16560,note_on,,1,0,9,,,,,,,,,,,,,,,,12,,62,48
16560,note_on,,1,0,6,,,,,,,,,,,,,,,,8,,62,72
16560,note_on,,1,0,8,,,,,,,,,,,,,,,,11,,78,48
16560,note_on,,1,0,7,,,,,,,,,,,,,,,,10,,81,48
16560,note_on,,1,0,5,,,,,,,,,,,,,,,,2,,50,48
16560,note_on,,1,0,10,,,,,,,,,,,,,,,,13,,50,48
16560,note_on,,0,0,11,,,,,,,,,,,,,,,,15,,54,48
16560,note_on,,1,0,11,,,,,,,,,,,,,,,,15,,50,48
16560,note_on,,0,0,11,,,,,,,,,,,,,,,,15,,66,48
16560,note_on,,0,0,11,,,,,,,,,,,,,,,,15,,62,48
16589,note_on,,29,0,7,,,,,,,,,,,,,,,,10,,81,0
16589,note_on,,29,0,8,,,,,,,,,,,,,,,,11,,78,0
16590,note_on,,1,0,7,,,,,,,,,,,,,,,,10,,83,48
16590,note_on,,1,0,8,,,,,,,,,,,,,,,,11,,79,48
16619,note_on,,29,0,7,,,,,,,,,,,,,,,,10,,83,0
16619,note_on,,59,0,10,,,,,,,,,,,,,,,,13,,50,0
16619,note_on,,59,0,5,,,,,,,,,,,,,,,,2,,50,0
16619,note_on,,59,0,11,,,,,,,,,,,,,,,,15,,50,0
16619,note_on,,0,0,11,,,,,,,,,,,,,,,,15,,66,0
16619,note_on,,0,0,11,,,,,,,,,,,,,,,,15,,62,0
16619,note_on,,0,0,11,,,,,,,,,,,,,,,,15,,54,0
16619,note_on,,59,0,6,,,,,,,,,,,,,,,,8,,62,0
16619,note_on,,59,0,9,,,,,,,,,,,,,,,,12,,62,0
16619,note_on,,29,0,8,,,,,,,,,,,,,,,,11,,79,0
16620,note_on,,1,0,11,,,,,,,,,,,,,,,,15,,49,48
16620,note_on,,1,0,10,,,,,,,,,,,,,,,,13,,49,48
16620,note_on,,0,0,11,,,,,,,,,,,,,,,,15,,64,48
16620,note_on,,0,0,11,,,,,,,,,,,,,,,,15,,52,48
16620,note_on,,1,0,7,,,,,,,,,,,,,,,,10,,81,48
16620,note_on,,1,0,5,,,,,,,,,,,,,,,,2,,49,48
16620,note_on,,0,0,11,,,,,,,,,,,,,,,,15,,67,48
16620,note_on,,1,0,8,,,,,,,,,,,,,,,,11,,78,48
16620,note_on,,1,0,9,,,,,,,,,,,,,,,,12,,69,48
16620,note_on,,1,0,6,,,,,,,,,,,,,,,,8,,61,72
16649,note_on,,29,0,8,,,,,,,,,,,,,,,,11,,78,0
16649,note_on,,29,0,7,,,,,,,,,,,,,,,,10,,81,0
16650,note_on,,1,0,8,,,,,,,,,,,,,,,,11,,79,48
16650,note_on,,1,0,7,,,,,,,,,,,,,,,,10,,83,48
16679,note_on,,59,0,11,,,,,,,,,,,,,,,,15,,49,0
16679,note_on,,59,0,9,,,,,,,,,,,,,,,,12,,69,0
16679,note_on,,29,0,8,,,,,,,,,,,,,,,,11,,79,0
16679,note_on,,59,0,5,,,,,,,,,,,,,,,,2,,49,0
16679,note_on,,59,0,10,,,,,,,,,,,,,,,,13,,49,0
16679,note_on,,59,0,6,,,,,,,,,,,,,,,,8,,61,0
16679,note_on,,0,0,11,,,,,,,,,,,,,,,,15,,67,0
16679,note_on,,0,0,11,,,,,,,,,,,,,,,,15,,64,0
16679,note_on,,0,0,11,,,,,,,,,,,,,,,,15,,52,0
16679,note_on,,29,0,7,,,,,,,,,,,,,,,,10,,83,0
16680,note_on,,1,0,7,,,,,,,,,,,,,,,,10,,81,48
16680,note_on,,1,0,6,,,,,,,,,,,,,,,,8,,62,72
16680,note_on,,1,0,8,,,,,,,,,,,,,,,,11,,78,48
16680,note_on,,1,0,10,,,,,,,,,,,,,,,,13,,50,48
16680,note_on,,1,0,5,,,,,,,,,,,,,,,,2,,50,48
16680,note_on,,0,0,11,,,,,,,,,,,,,,,,15,,66,48
16680,note_on,,1,0,11,,,,,,,,,,,,,,,,15,,50,48
16680,note_on,,1,0,9,,,,,,,,,,,,,,,,12,,62,48
16680,note_on,,0,0,11,,,,,,,,,,,,,,,,15,,62,48
16680,note_on,,0,0,11,,,,,,,,,,,,,,,,15,,54,48
16739,note_on,,59,0,7,,,,,,,,,,,,,,,,10,,81,0
16739,note_on,,0,0,11,,,,,,,,,,,,,,,,15,,62,0
16739,note_on,,59,0,11,,,,,,,,,,,,,,,,15,,50,0
16739,note_on,,59,0,10,,,,,,,,,,,,,,,,13,,50,0
16739,note_on,,0,0,11,,,,,,,,,,,,,,,,15,,54,0
16739,note_on,,59,0,6,,,,,,,,,,,,,,,,8,,62,0
16739,note_on,,59,0,9,,,,,,,,,,,,,,,,12,,62,0
16739,note_on,,59,0,5,,,,,,,,,,,,,,,,2,,50,0
16739,note_on,,59,0,8,,,,,,,,,,,,,,,,11,,78,0
16740,note_on,,1,0,10,,,,,,,,,,,,,,,,13,,57,48
16740,note_on,,1,0,9,,,,,,,,,,,,,,,,12,,60,48
16740,note_on,,1,0,11,,,,,,,,,,,,,,,,15,,57,48
16740,note_on,,0,0,11,,,,,,,,,,,,,,,,15,,62,48
16740,note_on,,0,0,11,,,,,,,,,,,,,,,,15,,60,48
16740,note_on,,1,0,6,,,,,,,,,,,,,,,,8,,57,72
16740,note_on,,1,0,7,,,,,,,,,,,,,,,,10,,69,48
16740,note_on,,1,0,5,,,,,,,,,,,,,,,,2,,57,48
16740,note_on,,1,0,8,,,,,,,,,,,,,,,,11,,66,48
16799,note_on,,59,0,6,,,,,,,,,,,,,,,,8,,57,0
16799,note_on,,59,0,7,,,,,,,,,,,,,,,,10,,69,0
16799,note_on,,59,0,11,,,,,,,,,,,,,,,,15,,66,0
16799,note_on,,0,0,11,,,,,,,,,,,,,,,,15,,60,0
16799,note_on,,0,0,11,,,,,,,,,,,,,,,,15,,62,0
16799,note_on,,0,0,11,,,,,,,,,,,,,,,,15,,57,0
16799,note_on,,59,0,8,,,,,,,,,,,,,,,,11,,66,0
16799,note_on,,59,0,9,,,,,,,,,,,,,,,,12,,60,0
16799,note_on,,59,0,10,,,,,,,,,,,,,,,,13,,57,0
16799,note_on,,59,0,5,,,,,,,,,,,,,,,,2,,57,0
16800,note_on,,1,0,7,,,,,,,,,,,,,,,,10,,62,48
16800,note_on,,1,0,6,,,,,,,,,,,,,,,,8,,59,72
16800,note_on,,1,0,9,,,,,,,,,,,,,,,,12,,59,48
16800,note_on,,1,0,10,,,,,,,,,,,,,,,,13,,59,48
16800,note_on,,0,0,11,,,,,,,,,,,,,,,,15,,62,48
16800,note_on,,1,0,8,,,,,,,,,,,,,,,,11,,67,48
16800,note_on,,1,0,11,,,,,,,,,,,,,,,,15,,59,48
16800,note_on,,1,0,5,,,,,,,,,,,,,,,,2,,59,48
16800,note_on,,0,0,11,,,,,,,,,,,,,,,,15,,67,48
16859,note_on,,59,0,10,,,,,,,,,,,,,,,,13,,59,0
16859,note_on,,0,0,11,,,,,,,,,,,,,,,,15,,62,0
16859,note_on,,59,0,5,,,,,,,,,,,,,,,,2,,59,0
16859,note_on,,0,0,11,,,,,,,,,,,,,,,,15,,67,0
16859,note_on,,59,0,11,,,,,,,,,,,,,,,,15,,59,0
16859,note_on,,59,0,6,,,,,,,,,,,,,,,,8,,59,0
16860,note_on,,0,0,11,,,,,,,,,,,,,,,,15,,66,48
16860,note_on,,1,0,11,,,,,,,,,,,,,,,,15,,54,48
16860,note_on,,1,0,10,,,,,,,,,,,,,,,,13,,54,48
16860,note_on,,1,0,6,,,,,,,,,,,,,,,,8,,54,72
16860,note_on,,1,0,5,,,,,,,,,,,,,,,,2,,54,48
16919,note_on,,59,0,6,,,,,,,,,,,,,,,,8,,54,0
16919,note_on,,119,0,8,,,,,,,,,,,,,,,,11,,67,0
16919,note_on,,59,0,11,,,,,,,,,,,,,,,,15,,54,0
16919,note_on,,59,0,5,,,,,,,,,,,,,,,,2,,54,0
16919,note_on,,59,0,10,,,,,,,,,,,,,,,,13,,54,0
16919,note_on,,119,0,7,,,,,,,,,,,,,,,,10,,62,0
16919,note_on,,0,0,11,,,,,,,,,,,,,,,,15,,66,0
16919,note_on,,119,0,9,,,,,,,,,,,,,,,,12,,59,0
16920,note_on,,1,0,10,,,,,,,,,,,,,,,,13,,55,48
16920,note_on,,1,0,11,,,,,,,,,,,,,,,,15,,55,48
16920,note_on,,0,0,11,,,,,,,,,,,,,,,,15,,67,48
16920,note_on,,1,0,5,,,,,,,,,,,,,,,,2,,55,48
16920,note_on,,1,0,6,,,,,,,,,,,,,,,,8,,55,72
16979,note_on,,0,0,11,,,,,,,,,,,,,,,,15,,67,0
16979,note_on,,59,0,11,,,,,,,,,,,,,,,,15,,55,0
16979,note_on,,59,0,6,,,,,,,,,,,,,,,,8,,55,0
16979,note_on,,59,0,10,,,,,,,,,,,,,,,,13,,55,0
16979,note_on,,59,0,5,,,,,,,,,,,,,,,,2,,55,0
16980,note_on,,1,0,5,,,,,,,,,,,,,,,,2,,48,48
16980,note_on,,1,0,10,,,,,,,,,,,,,,,,13,,48,48
16980,note_on,,1,0,6,,,,,,,,,,,,,,,,8,,48,72
16980,note_on,,1,0,11,,,,,,,,,,,,,,,,15,,48,48
16980,note_on,,0,0,11,,,,,,,,,,,,,,,,15,,60,48
17039,note_on,,59,0,10,,,,,,,,,,,,,,,,13,,48,0
17039,note_on,,59,0,5,,,,,,,,,,,,,,,,2,,48,0
17039,note_on,,0,0,11,,,,,,,,,,,,,,,,15,,60,0
17039,note_on,,59,0,11,,,,,,,,,,,,,,,,15,,48,0
17039,note_on,,59,0,6,,,,,,,,,,,,,,,,8,,48,0
17040,note_on,,1,0,10,,,,,,,,,,,,,,,,13,,50,48
17040,note_on,,0,0,11,,,,,,,,,,,,,,,,15,,62,48
17040,note_on,,1,0,11,,,,,,,,,,,,,,,,15,,50,48
17040,note_on,,1,0,5,,,,,,,,,,,,,,,,2,,50,48
17040,note_on,,1,0,6,,,,,,,,,,,,,,,,8,,50,72
17159,note_on,,0,0,11,,,,,,,,,,,,,,,,15,,62,0
17159,note_on,,119,0,11,,,,,,,,,,,,,,,,15,,50,0
17159,note_on,,119,0,5,,,,,,,,,,,,,,,,2,,50,0
17159,note_on,,119,0,10,,,,,,,,,,,,,,,,13,,50,0
17160,note_on,,0,0,11,,,,,,,,,,,,,,,,15,,50,48
17160,note_on,,1,0,5,,,,,,,,,,,,,,,,2,,38,48
17160,note_on,,0,0,11,,,,,,,,,,,,,,,,15,,57,48
17160,note_on,,0,0,11,,,,,,,,,,,,,,,,15,,62,48
17160,note_on,,0,0,11,,,,,,,,,,,,,,,,15,,66,48
17160,note_on,,1,0,11,,,,,,,,,,,,,,,,15,,38,48
17160,note_on,,1,0,10,,,,,,,,,,,,,,,,13,,38,48
17160,note_on,,0,0,11,,,,,,,,,,,,,,,,15,,69,48
17219,note_on,,179,0,6,,,,,,,,,,,,,,,,8,,50,0
17220,note_on,,1,0,6,,,,,,,,,,,,,,,,8,,50,72
17279,note_on,,0,0,11,,,,,,,,,,,,,,,,15,,66,0
17279,note_on,,59,0,6,,,,,,,,,,,,,,,,8,,50,0
17279,note_on,,119,0,11,,,,,,,,,,,,,,,,15,,38,0
17279,note_on,,0,0,11,,,,,,,,,,,,,,,,15,,50,0
17279,note_on,,0,0,11,,,,,,,,,,,,,,,,15,,69,0
17279,note_on,,0,0,11,,,,,,,,,,,,,,,,15,,62,0
17279,note_on,,0,0,11,,,,,,,,,,,,,,,,15,,57,0
17279,note_on,,119,0,5,,,,,,,,,,,,,,,,2,,38,0
17279,note_on,,119,0,10,,,,,,,,,,,,,,,,13,,38,0
17280,note_on,,1,0,5,,,,,,,,,,,,,,,,2,,43,72
17280,note_on,,0,0,11,,,,,,,,,,,,,,,,15,,62,72
17280,note_on,,1,0,10,,,,,,,,,,,,,,,,13,,43,72
17280,note_on,,1,0,6,,,,,,,,,,,,,,,,8,,55,72
17280,note_on,,361,0,8,,,,,,,,,,,,,,,,11,,55,72
17280,note_on,,0,0,11,,,,,,,,,,,,,,,,15,,71,72
17280,note_on,,1,0,11,,,,,,,,,,,,,,,,15,,43,72
17280,note_on,,0,0,11,,,,,,,,,,,,,,,,15,,67,72
17280,note_on,,361,0,7,,,,,,,,,,,,,,,,10,,55,72
17280,note_on,,0,0,11,,,,,,,,,,,,,,,,15,,50,72
17280,note_on,,361,0,9,,,,,,,,,,,,,,,,12,,55,72
17309,note_on,,29,0,7,,,,,,,,,,,,,,,,10,,55,0
17309,note_on,,29,0,8,,,,,,,,,,,,,,,,11,,55,0
17309,note_on,,29,0,9,,,,,,,,,,,,,,,,12,,55,0
17310,note_on,,1,0,9,,,,,,,,,,,,,,,,12,,55,72
17310,note_on,,1,0,7,,,,,,,,,,,,,,,,10,,55,72
17310,note_on,,1,0,8,,,,,,,,,,,,,,,,11,,55,72
17339,note_on,,29,0,9,,,,,,,,,,,,,,,,12,,55,0
17339,note_on,,59,0,10,,,,,,,,,,,,,,,,13,,43,0
17339,note_on,,59,0,5,,,,,,,,,,,,,,,,2,,43,0
17339,note_on,,59,0,11,,,,,,,,,,,,,,,,15,,43,0
17339,note_on,,29,0,7,,,,,,,,,,,,,,,,10,,55,0
17339,note_on,,29,0,8,,,,,,,,,,,,,,,,11,,55,0
17340,note_on,,1,0,10,,,,,,,,,,,,,,,,13,,43,72
17340,note_on,,1,0,9,,,,,,,,,,,,,,,,12,,55,72
17340,note_on,,1,0,5,,,,,,,,,,,,,,,,2,,43,72
17340,note_on,,1,0,11,,,,,,,,,,,,,,,,15,,43,72
17340,note_on,,1,0,7,,,,,,,,,,,,,,,,10,,55,72
17340,note_on,,1,0,8,,,,,,,,,,,,,,,,11,,55,72
17369,note_on,,29,0,8,,,,,,,,,,,,,,,,11,,55,0
17369,note_on,,29,0,9,,,,,,,,,,,,,,,,12,,55,0
17369,note_on,,29,0,7,,,,,,,,,,,,,,,,10,,55,0
17370,note_on,,1,0,7,,,,,,,,,,,,,,,,10,,55,72
17370,note_on,,1,0,9,,,,,,,,,,,,,,,,12,,55,72
17370,note_on,,1,0,8,,,,,,,,,,,,,,,,11,,55,72
17399,note_on,,29,0,9,,,,,,,,,,,,,,,,12,,55,0
17399,note_on,,29,0,7,,,,,,,,,,,,,,,,10,,55,0
17399,note_on,,119,0,6,,,,,,,,,,,,,,,,8,,55,0
17399,note_on,,59,0,11,,,,,,,,,,,,,,,,15,,43,0
17399,note_on,,59,0,10,,,,,,,,,,,,,,,,13,,43,0
17399,note_on,,59,0,5,,,,,,,,,,,,,,,,2,,43,0
17399,note_on,,29,0,8,,,,,,,,,,,,,,,,11,,55,0
17400,note_on,,1,0,7,,,,,,,,,,,,,,,,10,,55,72
17400,note_on,,1,0,5,,,,,,,,,,,,,,,,2,,43,72
17400,note_on,,1,0,10,,,,,,,,,,,,,,,,13,,43,72
17400,note_on,,1,0,8,,,,,,,,,,,,,,,,11,,55,72
17400,note_on,,1,0,9,,,,,,,,,,,,,,,,12,,59,72
17400,note_on,,1,0,11,,,,,,,,,,,,,,,,15,,43,72
17429,note_on,,29,0,9,,,,,,,,,,,,,,,,12,,59,0
17429,note_on,,29,0,8,,,,,,,,,,,,,,,,11,,55,0
17429,note_on,,29,0,7,,,,,,,,,,,,,,,,10,,55,0
17430,note_on,,1,0,8,,,,,,,,,,,,,,,,11,,55,72
17430,note_on,,1,0,9,,,,,,,,,,,,,,,,12,,59,72
17430,note_on,,1,0,7,,,,,,,,,,,,,,,,10,,55,72
17459,note_on,,29,0,9,,,,,,,,,,,,,,,,12,,59,0
17459,note_on,,29,0,8,,,,,,,,,,,,,,,,11,,55,0
17459,note_on,,59,0,11,,,,,,,,,,,,,,,,15,,43,0
17459,note_on,,59,0,5,,,,,,,,,,,,,,,,2,,43,0
17459,note_on,,59,0,10,,,,,,,,,,,,,,,,13,,43,0
17459,note_on,,29,0,7,,,,,,,,,,,,,,,,10,,55,0
17460,note_on,,1,0,11,,,,,,,,,,,,,,,,15,,43,72
17460,note_on,,1,0,5,,,,,,,,,,,,,,,,2,,43,72
17460,note_on,,1,0,10,,,,,,,,,,,,,,,,13,,43,72
17460,note_on,,1,0,7,,,,,,,,,,,,,,,,10,,55,72
17460,note_on,,1,0,8,,,,,,,,,,,,,,,,11,,55,72
17460,note_on,,1,0,9,,,,,,,,,,,,,,,,12,,59,72
17489,note_on,,29,0,7,,,,,,,,,,,,,,,,10,,55,0
17489,note_on,,29,0,8,,,,,,,,,,,,,,,,11,,55,0
17489,note_on,,29,0,9,,,,,,,,,,,,,,,,12,,59,0
17490,note_on,,1,0,8,,,,,,,,,,,,,,,,11,,55,72
17490,note_on,,1,0,9,,,,,,,,,,,,,,,,12,,59,72
17490,note_on,,1,0,7,,,,,,,,,,,,,,,,10,,55,72
17519,note_on,,0,0,11,,,,,,,,,,,,,,,,15,,62,0
17519,note_on,,0,0,11,,,,,,,,,,,,,,,,15,,67,0
17519,note_on,,29,0,9,,,,,,,,,,,,,,,,12,,59,0
17519,note_on,,29,0,8,,,,,,,,,,,,,,,,11,,55,0
17519,note_on,,0,0,11,,,,,,,,,,,,,,,,15,,43,0
17519,note_on,,59,0,11,,,,,,,,,,,,,,,,15,,71,0
17519,note_on,,59,0,10,,,,,,,,,,,,,,,,13,,43,0
17519,note_on,,59,0,5,,,,,,,,,,,,,,,,2,,43,0
17519,note_on,,29,0,7,,,,,,,,,,,,,,,,10,,55,0
17519,note_on,,0,0,11,,,,,,,,,,,,,,,,15,,50,0
17520,note_on,,1,0,11,,,,,,,,,,,,,,,,15,,55,72
17520,note_on,,0,0,11,,,,,,,,,,,,,,,,15,,43,72
17520,note_on,,1,0,8,,,,,,,,,,,,,,,,11,,55,72
17520,note_on,,1,0,5,,,,,,,,,,,,,,,,2,,43,72
17520,note_on,,0,0,11,,,,,,,,,,,,,,,,15,,50,72
17520,note_on,,1,0,10,,,,,,,,,,,,,,,,13,,43,72
17520,note_on,,1,0,9,,,,,,,,,,,,,,,,12,,62,72
17520,note_on,,1,0,7,,,,,,,,,,,,,,,,10,,59,72
17520,note_on,,0,0,11,,,,,,,,,,,,,,,,15,,47,72
17549,note_on,,29,0,9,,,,,,,,,,,,,,,,12,,62,0
17549,note_on,,29,0,7,,,,,,,,,,,,,,,,10,,59,0
17549,note_on,,29,0,8,,,,,,,,,,,,,,,,11,,55,0
17550,note_on,,1,0,8,,,,,,,,,,,,,,,,11,,55,72
17550,note_on,,1,0,9,,,,,,,,,,,,,,,,12,,62,72
17550,note_on,,1,0,7,,,,,,,,,,,,,,,,10,,59,72
17579,note_on,,29,0,8,,,,,,,,,,,,,,,,11,,55,0
17579,note_on,,59,0,5,,,,,,,,,,,,,,,,2,,43,0
17579,note_on,,59,0,10,,,,,,,,,,,,,,,,13,,43,0
17579,note_on,,29,0,9,,,,,,,,,,,,,,,,12,,62,0
17579,note_on,,59,0,11,,,,,,,,,,,,,,,,15,,43,0
17579,note_on,,29,0,7,,,,,,,,,,,,,,,,10,,59,0
17580,note_on,,1,0,11,,,,,,,,,,,,,,,,15,,43,72
17580,note_on,,1,0,9,,,,,,,,,,,,,,,,12,,62,72
17580,note_on,,1,0,5,,,,,,,,,,,,,,,,2,,43,72
17580,note_on,,1,0,10,,,,,,,,,,,,,,,,13,,43,72
17580,note_on,,1,0,8,,,,,,,,,,,,,,,,11,,55,72
17580,note_on,,1,0,7,,,,,,,,,,,,,,,,10,,59,72
17609,note_on,,29,0,7,,,,,,,,,,,,,,,,10,,59,0
17609,note_on,,29,0,9,,,,,,,,,,,,,,,,12,,62,0
17609,note_on,,29,0,8,,,,,,,,,,,,,,,,11,,55,0
17610,note_on,,1,0,7,,,,,,,,,,,,,,,,10,,59,72
17610,note_on,,1,0,8,,,,,,,,,,,,,,,,11,,55,72
17610,note_on,,1,0,9,,,,,,,,,,,,,,,,12,,62,72
17639,note_on,,29,0,7,,,,,,,,,,,,,,,,10,,59,0
17639,note_on,,29,0,8,,,,,,,,,,,,,,,,11,,55,0
17639,note_on,,29,0,9,,,,,,,,,,,,,,,,12,,62,0
17639,note_on,,59,0,11,,,,,,,,,,,,,,,,15,,43,0
17639,note_on,,59,0,5,,,,,,,,,,,,,,,,2,,43,0
17639,note_on,,59,0,10,,,,,,,,,,,,,,,,13,,43,0
17640,note_on,,1,0,8,,,,,,,,,,,,,,,,11,,59,72
17640,note_on,,1,0,5,,,,,,,,,,,,,,,,2,,43,72
17640,note_on,,1,0,11,,,,,,,,,,,,,,,,15,,43,72
17640,note_on,,1,0,10,,,,,,,,,,,,,,,,13,,43,72
17640,note_on,,1,0,7,,,,,,,,,,,,,,,,10,,62,72
17640,note_on,,1,0,9,,,,,,,,,,,,,,,,12,,67,72
17669,note_on,,29,0,7,,,,,,,,,,,,,,,,10,,62,0
17669,note_on,,29,0,8,,,,,,,,,,,,,,,,11,,59,0
17669,note_on,,29,0,9,,,,,,,,,,,,,,,,12,,67,0
17670,note_on,,1,0,7,,,,,,,,,,,,,,,,10,,62,72
17670,note_on,,1,0,9,,,,,,,,,,,,,,,,12,,67,72
17670,note_on,,1,0,8,,,,,,,,,,,,,,,,11,,59,72
17699,note_on,,29,0,7,,,,,,,,,,,,,,,,10,,62,0
17699,note_on,,59,0,10,,,,,,,,,,,,,,,,13,,43,0
17699,note_on,,59,0,5,,,,,,,,,,,,,,,,2,,43,0
17699,note_on,,29,0,9,,,,,,,,,,,,,,,,12,,67,0
17699,note_on,,29,0,8,,,,,,,,,,,,,,,,11,,59,0
17699,note_on,,59,0,11,,,,,,,,,,,,,,,,15,,43,0
17700,note_on,,1,0,5,,,,,,,,,,,,,,,,2,,43,72
17700,note_on,,1,0,9,,,,,,,,,,,,,,,,12,,67,72
17700,note_on,,1,0,10,,,,,,,,,,,,,,,,13,,43,72
17700,note_on,,1,0,8,,,,,,,,,,,,,,,,11,,59,72
17700,note_on,,1,0,7,,,,,,,,,,,,,,,,10,,62,72
17700,note_on,,1,0,11,,,,,,,,,,,,,,,,15,,43,72
17729,note_on,,29,0,8,,,,,,,,,,,,,,,,11,,59,0
17729,note_on,,29,0,9,,,,,,,,,,,,,,,,12,,67,0
17729,note_on,,29,0,7,,,,,,,,,,,,,,,,10,,62,0
17730,note_on,,1,0,8,,,,,,,,,,,,,,,,11,,59,72
17730,note_on,,1,0,9,,,,,,,,,,,,,,,,12,,67,72
17730,note_on,,1,0,7,,,,,,,,,,,,,,,,10,,62,72
17759,note_on,,59,0,10,,,,,,,,,,,,,,,,13,,43,0
17759,note_on,,29,0,8,,,,,,,,,,,,,,,,11,,59,0
17759,note_on,,59,0,5,,,,,,,,,,,,,,,,2,,43,0
17759,note_on,,29,0,9,,,,,,,,,,,,,,,,12,,67,0
17759,note_on,,29,0,7,,,,,,,,,,,,,,,,10,,62,0
17759,note_on,,0,0,11,,,,,,,,,,,,,,,,15,,43,0
17759,note_on,,0,0,11,,,,,,,,,,,,,,,,15,,47,0
17759,note_on,,0,0,11,,,,,,,,,,,,,,,,15,,50,0
17759,note_on,,59,0,11,,,,,,,,,,,,,,,,15,,55,0
17760,note_on,,0,0,11,,,,,,,,,,,,,,,,15,,55,72
17760,note_on,,0,0,11,,,,,,,,,,,,,,,,15,,59,72
17760,note_on,,0,0,11,,,,,,,,,,,,,,,,15,,50,72
17760,note_on,,1,0,11,,,,,,,,,,,,,,,,15,,43,72
17760,note_on,,1,0,8,,,,,,,,,,,,,,,,11,,62,72
17760,note_on,,1,0,7,,,,,,,,,,,,,,,,10,,67,72
17760,note_on,,1,0,5,,,,,,,,,,,,,,,,2,,43,72
17760,note_on,,1,0,10,,,,,,,,,,,,,,,,13,,43,72
17760,note_on,,1,0,9,,,,,,,,,,,,,,,,12,,71,72
17789,note_on,,29,0,8,,,,,,,,,,,,,,,,11,,62,0
17789,note_on,,29,0,9,,,,,,,,,,,,,,,,12,,71,0
17789,note_on,,29,0,7,,,,,,,,,,,,,,,,10,,67,0
17790,note_on,,1,0,7,,,,,,,,,,,,,,,,10,,67,72
17790,note_on,,1,0,8,,,,,,,,,,,,,,,,11,,62,72
17790,note_on,,1,0,9,,,,,,,,,,,,,,,,12,,71,72
17819,note_on,,29,0,8,,,,,,,,,,,,,,,,11,,62,0
17819,note_on,,59,0,5,,,,,,,,,,,,,,,,2,,43,0
17819,note_on,,59,0,11,,,,,,,,,,,,,,,,15,,43,0
17819,note_on,,29,0,7,,,,,,,,,,,,,,,,10,,67,0
17819,note_on,,59,0,10,,,,,,,,,,,,,,,,13,,43,0
17819,note_on,,29,0,9,,,,,,,,,,,,,,,,12,,71,0
17820,note_on,,1,0,10,,,,,,,,,,,,,,,,13,,43,72
17820,note_on,,1,0,9,,,,,,,,,,,,,,,,12,,71,72
17820,note_on,,1,0,5,,,,,,,,,,,,,,,,2,,43,72
17820,note_on,,1,0,11,,,,,,,,,,,,,,,,15,,43,72
17820,note_on,,1,0,7,,,,,,,,,,,,,,,,10,,67,72
17820,note_on,,1,0,8,,,,,,,,,,,,,,,,11,,62,72
17849,note_on,,29,0,8,,,,,,,,,,,,,,,,11,,62,0
17849,note_on,,29,0,7,,,,,,,,,,,,,,,,10,,67,0
17849,note_on,,29,0,9,,,,,,,,,,,,,,,,12,,71,0
17850,note_on,,1,0,8,,,,,,,,,,,,,,,,11,,62,72
17850,note_on,,1,0,7,,,,,,,,,,,,,,,,10,,67,72
17850,note_on,,1,0,9,,,,,,,,,,,,,,,,12,,71,72
17879,note_on,,29,0,9,,,,,,,,,,,,,,,,12,,71,0
17879,note_on,,29,0,8,,,,,,,,,,,,,,,,11,,62,0
17879,note_on,,59,0,10,,,,,,,,,,,,,,,,13,,43,0
17879,note_on,,29,0,7,,,,,,,,,,,,,,,,10,,67,0
17879,note_on,,59,0,11,,,,,,,,,,,,,,,,15,,43,0
17879,note_on,,59,0,5,,,,,,,,,,,,,,,,2,,43,0
17880,note_on,,1,0,9,,,,,,,,,,,,,,,,12,,59,72
17880,note_on,,1,0,7,,,,,,,,,,,,,,,,10,,67,72
17880,note_on,,1,0,10,,,,,,,,,,,,,,,,13,,43,72
17880,note_on,,1,0,8,,,,,,,,,,,,,,,,11,,62,72
17880,note_on,,1,0,11,,,,,,,,,,,,,,,,15,,43,72
17880,note_on,,1,0,5,,,,,,,,,,,,,,,,2,,43,72
17909,note_on,,29,0,8,,,,,,,,,,,,,,,,11,,62,0
17909,note_on,,29,0,7,,,,,,,,,,,,,,,,10,,67,0
17909,note_on,,29,0,9,,,,,,,,,,,,,,,,12,,59,0
17910,note_on,,1,0,8,,,,,,,,,,,,,,,,11,,62,72
17910,note_on,,1,0,7,,,,,,,,,,,,,,,,10,,67,72
17910,note_on,,1,0,9,,,,,,,,,,,,,,,,12,,59,72
17939,note_on,,29,0,7,,,,,,,,,,,,,,,,10,,67,0
17939,note_on,,59,0,10,,,,,,,,,,,,,,,,13,,43,0
17939,note_on,,29,0,8,,,,,,,,,,,,,,,,11,,62,0
17939,note_on,,59,0,5,,,,,,,,,,,,,,,,2,,43,0
17939,note_on,,59,0,11,,,,,,,,,,,,,,,,15,,43,0
17939,note_on,,29,0,9,,,,,,,,,,,,,,,,12,,59,0
17940,note_on,,1,0,9,,,,,,,,,,,,,,,,12,,59,72
17940,note_on,,1,0,11,,,,,,,,,,,,,,,,15,,43,72
17940,note_on,,1,0,8,,,,,,,,,,,,,,,,11,,62,72
17940,note_on,,1,0,10,,,,,,,,,,,,,,,,13,,43,72
17940,note_on,,1,0,5,,,,,,,,,,,,,,,,2,,43,72
17940,note_on,,1,0,7,,,,,,,,,,,,,,,,10,,67,72
17969,note_on,,29,0,9,,,,,,,,,,,,,,,,12,,59,0
17969,note_on,,29,0,7,,,,,,,,,,,,,,,,10,,67,0
17969,note_on,,29,0,8,,,,,,,,,,,,,,,,11,,62,0
17970,note_on,,1,0,8,,,,,,,,,,,,,,,,11,,62,72
17970,note_on,,1,0,9,,,,,,,,,,,,,,,,12,,59,72
17970,note_on,,1,0,7,,,,,,,,,,,,,,,,10,,67,72
17999,note_on,,29,0,7,,,,,,,,,,,,,,,,10,,67,0
17999,note_on,,59,0,10,,,,,,,,,,,,,,,,13,,43,0
17999,note_on,,29,0,8,,,,,,,,,,,,,,,,11,,62,0
17999,note_on,,0,0,11,,,,,,,,,,,,,,,,15,,43,0
17999,note_on,,59,0,5,,,,,,,,,,,,,,,,2,,43,0
17999,note_on,,59,0,11,,,,,,,,,,,,,,,,15,,59,0
17999,note_on,,0,0,11,,,,,,,,,,,,,,,,15,,55,0
17999,note_on,,29,0,9,,,,,,,,,,,,,,,,12,,59,0
18000,note_on,,1,0,7,,,,,,,,,,,,,,,,10,,71,72
18000,note_on,,1,0,5,,,,,,,,,,,,,,,,2,,43,72
18000,note_on,,1,0,9,,,,,,,,,,,,,,,,12,,62,72
18000,note_on,,0,0,11,,,,,,,,,,,,,,,,15,,55,72
18000,note_on,,0,0,11,,,,,,,,,,,,,,,,15,,59,72
18000,note_on,,0,0,11,,,,,,,,,,,,,,,,15,,62,72
18000,note_on,,1,0,8,,,,,,,,,,,,,,,,11,,67,72
18000,note_on,,1,0,10,,,,,,,,,,,,,,,,13,,43,72
18000,note_on,,1,0,11,,,,,,,,,,,,,,,,15,,43,72
18029,note_on,,29,0,8,,,,,,,,,,,,,,,,11,,67,0
18029,note_on,,29,0,7,,,,,,,,,,,,,,,,10,,71,0
18029,note_on,,29,0,9,,,,,,,,,,,,,,,,12,,62,0
18030,note_on,,1,0,7,,,,,,,,,,,,,,,,10,,71,72
18030,note_on,,1,0,8,,,,,,,,,,,,,,,,11,,67,72
18030,note_on,,1,0,9,,,,,,,,,,,,,,,,12,,62,72
18059,note_on,,59,0,11,,,,,,,,,,,,,,,,15,,43,0
18059,note_on,,59,0,10,,,,,,,,,,,,,,,,13,,43,0
18059,note_on,,29,0,9,,,,,,,,,,,,,,,,12,,62,0
18059,note_on,,29,0,8,,,,,,,,,,,,,,,,11,,67,0
18059,note_on,,59,0,5,,,,,,,,,,,,,,,,2,,43,0
18059,note_on,,29,0,7,,,,,,,,,,,,,,,,10,,71,0
18060,note_on,,1,0,10,,,,,,,,,,,,,,,,13,,43,72
18060,note_on,,1,0,11,,,,,,,,,,,,,,,,15,,43,72
18060,note_on,,1,0,5,,,,,,,,,,,,,,,,2,,43,72
18060,note_on,,1,0,8,,,,,,,,,,,,,,,,11,,67,72
18060,note_on,,1,0,9,,,,,,,,,,,,,,,,12,,62,72
18060,note_on,,1,0,7,,,,,,,,,,,,,,,,10,,71,72
18089,note_on,,29,0,8,,,,,,,,,,,,,,,,11,,67,0
18089,note_on,,29,0,7,,,,,,,,,,,,,,,,10,,71,0
18089,note_on,,29,0,9,,,,,,,,,,,,,,,,12,,62,0
18090,note_on,,1,0,8,,,,,,,,,,,,,,,,11,,67,72
18090,note_on,,1,0,7,,,,,,,,,,,,,,,,10,,71,72
18090,note_on,,1,0,9,,,,,,,,,,,,,,,,12,,62,72
18119,note_on,,29,0,9,,,,,,,,,,,,,,,,12,,62,0
18119,note_on,,59,0,5,,,,,,,,,,,,,,,,2,,43,0
18119,note_on,,29,0,7,,,,,,,,,,,,,,,,10,,71,0
18119,note_on,,29,0,8,,,,,,,,,,,,,,,,11,,67,0
18119,note_on,,59,0,10,,,,,,,,,,,,,,,,13,,43,0
18119,note_on,,59,0,11,,,,,,,,,,,,,,,,15,,43,0
18120,note_on,,1,0,10,,,,,,,,,,,,,,,,13,,43,72
18120,note_on,,1,0,11,,,,,,,,,,,,,,,,15,,43,72
18120,note_on,,1,0,7,,,,,,,,,,,,,,,,10,,74,72
18120,note_on,,1,0,8,,,,,,,,,,,,,,,,11,,71,72
18120,note_on,,1,0,9,,,,,,,,,,,,,,,,12,,67,72
18120,note_on,,1,0,5,,,,,,,,,,,,,,,,2,,43,72
18149,note_on,,29,0,7,,,,,,,,,,,,,,,,10,,74,0
18149,note_on,,29,0,9,,,,,,,,,,,,,,,,12,,67,0
18149,note_on,,29,0,8,,,,,,,,,,,,,,,,11,,71,0
18150,note_on,,1,0,9,,,,,,,,,,,,,,,,12,,67,72
18150,note_on,,1,0,8,,,,,,,,,,,,,,,,11,,71,72
18150,note_on,,1,0,7,,,,,,,,,,,,,,,,10,,74,72
18179,note_on,,59,0,5,,,,,,,,,,,,,,,,2,,43,0
18179,note_on,,29,0,9,,,,,,,,,,,,,,,,12,,67,0
18179,note_on,,29,0,7,,,,,,,,,,,,,,,,10,,74,0
18179,note_on,,29,0,8,,,,,,,,,,,,,,,,11,,71,0
18179,note_on,,59,0,10,,,,,,,,,,,,,,,,13,,43,0
18179,note_on,,59,0,11,,,,,,,,,,,,,,,,15,,43,0
18180,note_on,,1,0,11,,,,,,,,,,,,,,,,15,,43,72
18180,note_on,,1,0,8,,,,,,,,,,,,,,,,11,,71,72
18180,note_on,,1,0,5,,,,,,,,,,,,,,,,2,,43,72
18180,note_on,,1,0,10,,,,,,,,,,,,,,,,13,,43,72
18180,note_on,,1,0,9,,,,,,,,,,,,,,,,12,,67,72
18180,note_on,,1,0,7,,,,,,,,,,,,,,,,10,,74,72
18209,note_on,,29,0,8,,,,,,,,,,,,,,,,11,,71,0
18209,note_on,,29,0,9,,,,,,,,,,,,,,,,12,,67,0
18209,note_on,,29,0,7,,,,,,,,,,,,,,,,10,,74,0
18210,note_on,,1,0,8,,,,,,,,,,,,,,,,11,,71,72
18210,note_on,,1,0,9,,,,,,,,,,,,,,,,12,,67,72
18210,note_on,,1,0,7,,,,,,,,,,,,,,,,10,,74,72
18239,note_on,,0,0,11,,,,,,,,,,,,,,,,15,,43,0
18239,note_on,,0,0,11,,,,,,,,,,,,,,,,15,,55,0
18239,note_on,,59,0,10,,,,,,,,,,,,,,,,13,,43,0
18239,note_on,,29,0,7,,,,,,,,,,,,,,,,10,,74,0
18239,note_on,,0,0,11,,,,,,,,,,,,,,,,15,,59,0
18239,note_on,,59,0,5,,,,,,,,,,,,,,,,2,,43,0
18239,note_on,,59,0,11,,,,,,,,,,,,,,,,15,,50,0
18239,note_on,,29,0,9,,,,,,,,,,,,,,,,12,,67,0
18239,note_on,,29,0,8,,,,,,,,,,,,,,,,11,,71,0
18239,note_on,,0,0,11,,,,,,,,,,,,,,,,15,,62,0
18240,note_on,,0,0,11,,,,,,,,,,,,,,,,15,,59,72
18240,note_on,,0,0,11,,,,,,,,,,,,,,,,15,,52,72
18240,note_on,,1,0,9,,,,,,,,,,,,,,,,12,,71,72
18240,note_on,,0,0,11,,,,,,,,,,,,,,,,15,,64,72
18240,note_on,,1,0,10,,,,,,,,,,,,,,,,13,,44,72
18240,note_on,,1,0,11,,,,,,,,,,,,,,,,15,,44,72
18240,note_on,,1,0,5,,,,,,,,,,,,,,,,2,,44,72
18240,note_on,,1,0,8,,,,,,,,,,,,,,,,11,,76,72
18240,note_on,,0,0,11,,,,,,,,,,,,,,,,15,,71,72
18240,note_on,,1,0,7,,,,,,,,,,,,,,,,10,,83,72
18359,note_on,,119,0,7,,,,,,,,,,,,,,,,10,,83,0
18359,note_on,,119,0,5,,,,,,,,,,,,,,,,2,,44,0
18359,end_of_track,,0,1,5,,,,,,,,,,,,,,,,,,,
18359,note_on,,119,0,8,,,,,,,,,,,,,,,,11,,76,0
18359,note_on,,119,0,9,,,,,,,,,,,,,,,,12,,71,0
18359,note_on,,119,0,11,,,,,,,,,,,,,,,,15,,44,0
18359,note_on,,0,0,11,,,,,,,,,,,,,,,,15,,71,0
18359,note_on,,0,0,11,,,,,,,,,,,,,,,,15,,64,0
18359,note_on,,0,0,11,,,,,,,,,,,,,,,,15,,59,0
18359,note_on,,0,0,11,,,,,,,,,,,,,,,,15,,52,0
18359,note_on,,119,0,10,,,,,,,,,,,,,,,,13,,44,0
18360,note_on,,961,0,6,,,,,,,,,,,,,,,,8,,50,72
18479,note_on,,119,0,6,,,,,,,,,,,,,,,,8,,50,0
18480,note_on,,1,0,6,,,,,,,,,,,,,,,,8,,52,72
18599,note_on,,119,0,6,,,,,,,,,,,,,,,,8,,52,0
18600,note_on,,1,0,6,,,,,,,,,,,,,,,,8,,52,72
18659,note_on,,59,0,6,,,,,,,,,,,,,,,,8,,52,0
18660,note_on,,1,0,6,,,,,,,,,,,,,,,,8,,54,72
18719,note_on,,59,0,6,,,,,,,,,,,,,,,,8,,54,0
18720,note_on,,1,0,6,,,,,,,,,,,,,,,,8,,56,72
18839,note_on,,119,0,6,,,,,,,,,,,,,,,,8,,56,0
18900,note_on,,61,0,6,,,,,,,,,,,,,,,,8,,52,72
18959,note_on,,59,0,6,,,,,,,,,,,,,,,,8,,52,0
18960,note_on,,1,0,6,,,,,,,,,,,,,,,,8,,59,72
19079,note_on,,119,0,6,,,,,,,,,,,,,,,,8,,59,0
19140,note_on,,61,0,6,,,,,,,,,,,,,,,,8,,59,72
19169,note_on,,29,0,6,,,,,,,,,,,,,,,,8,,59,0
19170,note_on,,1,0,6,,,,,,,,,,,,,,,,8,,59,72
19199,note_on,,29,0,6,,,,,,,,,,,,,,,,8,,59,0
19200,note_on,,841,0,9,,,,,,,,,,,,,,,,12,,68,72
19200,note_on,,841,0,8,,,,,,,,,,,,,,,,11,,71,72
19200,note_on,,1,0,6,,,,,,,,,,,,,,,,8,,56,72
19200,note_on,,841,0,7,,,,,,,,,,,,,,,,10,,76,72
19200,note_on,,841,0,11,,,,,,,,,,,,,,,,15,,50,72
19200,note_on,,0,0,11,,,,,,,,,,,,,,,,15,,64,72
19200,note_on,,0,0,11,,,,,,,,,,,,,,,,15,,59,72
19200,note_on,,0,0,11,,,,,,,,,,,,,,,,15,,56,72
19200,note_on,,0,0,11,,,,,,,,,,,,,,,,15,,52,72
19200,note_on,,841,0,10,,,,,,,,,,,,,,,,13,,50,72
19319,note_on,,119,0,8,,,,,,,,,,,,,,,,11,,71,0
19319,note_on,,119,0,11,,,,,,,,,,,,,,,,15,,50,0
19319,note_on,,0,0,11,,,,,,,,,,,,,,,,15,,64,0
19319,note_on,,0,0,11,,,,,,,,,,,,,,,,15,,59,0
19319,note_on,,0,0,11,,,,,,,,,,,,,,,,15,,56,0
19319,note_on,,119,0,10,,,,,,,,,,,,,,,,13,,50,0
19319,note_on,,0,0,11,,,,,,,,,,,,,,,,15,,52,0
19319,note_on,,119,0,6,,,,,,,,,,,,,,,,8,,56,0
19319,note_on,,119,0,9,,,,,,,,,,,,,,,,12,,68,0
19319,note_on,,119,0,7,,,,,,,,,,,,,,,,10,,76,0
19320,note_on,,1,0,6,,,,,,,,,,,,,,,,8,,56,72
19379,note_on,,59,0,6,,,,,,,,,,,,,,,,8,,56,0
19380,note_on,,1,0,6,,,,,,,,,,,,,,,,8,,59,72
19439,note_on,,59,0,6,,,,,,,,,,,,,,,,8,,59,0
19440,note_on,,1,0,6,,,,,,,,,,,,,,,,8,,62,72
19559,note_on,,119,0,6,,,,,,,,,,,,,,,,8,,62,0
19560,note_on,,1,0,6,,,,,,,,,,,,,,,,8,,60,72
19619,note_on,,59,0,6,,,,,,,,,,,,,,,,8,,60,0
19620,note_on,,1,0,6,,,,,,,,,,,,,,,,8,,59,72
19679,note_on,,59,0,6,,,,,,,,,,,,,,,,8,,59,0
19680,note_on,,361,0,7,,,,,,,,,,,,,,,,10,,64,72
19680,note_on,,1,0,6,,,,,,,,,,,,,,,,8,,60,72
19680,note_on,,0,0,11,,,,,,,,,,,,,,,,15,,52,72
19680,note_on,,0,0,11,,,,,,,,,,,,,,,,15,,69,72
19680,note_on,,0,0,11,,,,,,,,,,,,,,,,15,,72,72
19680,note_on,,361,0,11,,,,,,,,,,,,,,,,15,,45,72
19680,note_on,,0,0,11,,,,,,,,,,,,,,,,15,,60,72
19680,note_on,,361,0,10,,,,,,,,,,,,,,,,13,,45,72
19680,note_on,,361,0,9,,,,,,,,,,,,,,,,12,,57,72
19680,note_on,,361,0,8,,,,,,,,,,,,,,,,11,,60,72
19739,note_on,,59,0,6,,,,,,,,,,,,,,,,8,,60,0
19740,note_on,,1,0,6,,,,,,,,,,,,,,,,8,,60,72
19799,note_on,,119,0,9,,,,,,,,,,,,,,,,12,,57,0
19799,note_on,,119,0,7,,,,,,,,,,,,,,,,10,,64,0
19799,note_on,,119,0,11,,,,,,,,,,,,,,,,15,,45,0
19799,note_on,,0,0,11,,,,,,,,,,,,,,,,15,,72,0
19799,note_on,,0,0,11,,,,,,,,,,,,,,,,15,,69,0
19799,note_on,,0,0,11,,,,,,,,,,,,,,,,15,,60,0
19799,note_on,,0,0,11,,,,,,,,,,,,,,,,15,,52,0
19799,note_on,,119,0,8,,,,,,,,,,,,,,,,11,,60,0
19799,note_on,,119,0,10,,,,,,,,,,,,,,,,13,,45,0
19799,note_on,,59,0,6,,,,,,,,,,,,,,,,8,,60,0
19980,note_on,,181,0,6,,,,,,,,,,,,,,,,8,,57,72
20039,note_on,,59,0,6,,,,,,,,,,,,,,,,8,,57,0
20040,note_on,,1,0,6,,,,,,,,,,,,,,,,8,,59,72
20099,note_on,,59,0,6,,,,,,,,,,,,,,,,8,,59,0
20100,note_on,,1,0,6,,,,,,,,,,,,,,,,8,,60,72
20159,note_on,,59,0,6,,,,,,,,,,,,,,,,8,,60,0
20160,note_on,,361,0,9,,,,,,,,,,,,,,,,12,,66,72
20160,note_on,,0,0,11,,,,,,,,,,,,,,,,15,,54,72
20160,note_on,,0,0,11,,,,,,,,,,,,,,,,15,,60,72
20160,note_on,,0,0,11,,,,,,,,,,,,,,,,15,,66,72
20160,note_on,,0,0,11,,,,,,,,,,,,,,,,15,,69,72
20160,note_on,,361,0,8,,,,,,,,,,,,,,,,11,,69,72
20160,note_on,,361,0,7,,,,,,,,,,,,,,,,10,,72,72
20160,note_on,,361,0,11,,,,,,,,,,,,,,,,15,,51,72
20160,note_on,,1,0,6,,,,,,,,,,,,,,,,8,,51,72
20160,note_on,,361,0,10,,,,,,,,,,,,,,,,13,,51,72
20399,note_on,,239,0,9,,,,,,,,,,,,,,,,12,,66,0
20399,note_on,,0,0,11,,,,,,,,,,,,,,,,15,,54,0
20399,note_on,,0,0,11,,,,,,,,,,,,,,,,15,,60,0
20399,note_on,,0,0,11,,,,,,,,,,,,,,,,15,,66,0
20399,note_on,,239,0,11,,,,,,,,,,,,,,,,15,,51,0
20399,note_on,,239,0,6,,,,,,,,,,,,,,,,8,,51,0
20399,note_on,,239,0,10,,,,,,,,,,,,,,,,13,,51,0
20399,note_on,,239,0,7,,,,,,,,,,,,,,,,10,,72,0
20399,note_on,,239,0,8,,,,,,,,,,,,,,,,11,,69,0
20399,note_on,,0,0,11,,,,,,,,,,,,,,,,15,,69,0
20400,note_on,,1,0,10,,,,,,,,,,,,,,,,13,,52,72
20400,note_on,,1,0,8,,,,,,,,,,,,,,,,11,,67,72
20400,note_on,,1,0,11,,,,,,,,,,,,,,,,15,,52,72
20400,note_on,,0,0,11,,,,,,,,,,,,,,,,15,,55,72
20400,note_on,,0,0,11,,,,,,,,,,,,,,,,15,,67,72
20400,note_on,,0,0,11,,,,,,,,,,,,,,,,15,,64,72
20400,note_on,,1,0,9,,,,,,,,,,,,,,,,12,,64,72
20400,note_on,,1,0,7,,,,,,,,,,,,,,,,10,,71,72
20400,note_on,,0,0,11,,,,,,,,,,,,,,,,15,,59,72
20460,note_on,,61,0,6,,,,,,,,,,,,,,,,8,,52,72
20519,note_on,,59,0,6,,,,,,,,,,,,,,,,8,,52,0
20520,note_on,,1,0,6,,,,,,,,,,,,,,,,8,,54,72
20579,note_on,,59,0,6,,,,,,,,,,,,,,,,8,,54,0
20580,note_on,,1,0,6,,,,,,,,,,,,,,,,8,,55,72
20639,note_on,,239,0,8,,,,,,,,,,,,,,,,11,,67,0
20639,note_on,,59,0,6,,,,,,,,,,,,,,,,8,,55,0
20639,note_on,,239,0,9,,,,,,,,,,,,,,,,12,,64,0
20639,note_on,,239,0,10,,,,,,,,,,,,,,,,13,,52,0
20639,note_on,,239,0,11,,,,,,,,,,,,,,,,15,,52,0
20639,note_on,,0,0,11,,,,,,,,,,,,,,,,15,,59,0
20639,note_on,,0,0,11,,,,,,,,,,,,,,,,15,,64,0
20639,note_on,,0,0,11,,,,,,,,,,,,,,,,15,,67,0
20639,note_on,,0,0,11,,,,,,,,,,,,,,,,15,,55,0
20639,note_on,,239,0,7,,,,,,,,,,,,,,,,10,,71,0
20640,note_on,,0,0,11,,,,,,,,,,,,,,,,15,,53,72
20640,note_on,,0,0,11,,,,,,,,,,,,,,,,15,,66,72
20640,note_on,,0,0,11,,,,,,,,,,,,,,,,15,,69,72
20640,note_on,,1,0,9,,,,,,,,,,,,,,,,12,,60,72
20640,note_on,,1,0,11,,,,,,,,,,,,,,,,15,,45,72
20640,note_on,,1,0,8,,,,,,,,,,,,,,,,11,,65,72
20640,note_on,,1,0,7,,,,,,,,,,,,,,,,10,,69,72
20640,note_on,,1,0,10,,,,,,,,,,,,,,,,13,,45,72
20640,note_on,,0,0,11,,,,,,,,,,,,,,,,15,,60,72
20640,note_on,,1,0,6,,,,,,,,,,,,,,,,8,,57,72
20819,note_on,,179,0,6,,,,,,,,,,,,,,,,8,,57,0
20820,note_on,,1,0,6,,,,,,,,,,,,,,,,8,,54,72
20879,note_on,,0,0,11,,,,,,,,,,,,,,,,15,,60,0
20879,note_on,,0,0,11,,,,,,,,,,,,,,,,15,,66,0
20879,note_on,,0,0,11,,,,,,,,,,,,,,,,15,,69,0
20879,note_on,,239,0,11,,,,,,,,,,,,,,,,15,,45,0
20879,note_on,,239,0,10,,,,,,,,,,,,,,,,13,,45,0
20879,note_on,,0,0,11,,,,,,,,,,,,,,,,15,,53,0
20879,note_on,,239,0,9,,,,,,,,,,,,,,,,12,,60,0
20879,note_on,,239,0,8,,,,,,,,,,,,,,,,11,,65,0
20879,note_on,,59,0,6,,,,,,,,,,,,,,,,8,,54,0
20879,note_on,,239,0,7,,,,,,,,,,,,,,,,10,,69,0
20880,note_on,,1,0,10,,,,,,,,,,,,,,,,13,,46,72
20880,note_on,,1,0,8,,,,,,,,,,,,,,,,11,,64,72
20880,note_on,,1,0,6,,,,,,,,,,,,,,,,8,,55,72
20880,note_on,,0,0,11,,,,,,,,,,,,,,,,15,,46,72
20880,note_on,,0,0,11,,,,,,,,,,,,,,,,15,,55,72
20880,note_on,,1,0,11,,,,,,,,,,,,,,,,15,,64,72
20880,note_on,,1,0,7,,,,,,,,,,,,,,,,10,,67,72
20880,note_on,,1,0,9,,,,,,,,,,,,,,,,12,,60,72
20880,note_on,,0,0,11,,,,,,,,,,,,,,,,15,,61,72
20880,note_on,,0,0,11,,,,,,,,,,,,,,,,15,,67,72
20939,note_on,,59,0,6,,,,,,,,,,,,,,,,8,,55,0
20940,note_on,,1,0,6,,,,,,,,,,,,,,,,8,,51,72
20999,note_on,,59,0,6,,,,,,,,,,,,,,,,8,,51,0
21000,note_on,,1,0,6,,,,,,,,,,,,,,,,8,,52,72
21059,note_on,,59,0,6,,,,,,,,,,,,,,,,8,,52,0
21060,note_on,,1,0,6,,,,,,,,,,,,,,,,8,,54,72
21119,note_on,,239,0,7,,,,,,,,,,,,,,,,10,,67,0
21119,note_on,,0,0,11,,,,,,,,,,,,,,,,15,,55,0
21119,note_on,,0,0,11,,,,,,,,,,,,,,,,15,,61,0
21119,note_on,,0,0,11,,,,,,,,,,,,,,,,15,,67,0
21119,note_on,,239,0,10,,,,,,,,,,,,,,,,13,,46,0
21119,note_on,,239,0,8,,,,,,,,,,,,,,,,11,,64,0
21119,note_on,,0,0,11,,,,,,,,,,,,,,,,15,,46,0
21119,note_on,,59,0,6,,,,,,,,,,,,,,,,8,,54,0
21119,note_on,,239,0,11,,,,,,,,,,,,,,,,15,,64,0
21119,note_on,,239,0,9,,,,,,,,,,,,,,,,12,,60,0
21120,note_on,,1,0,6,,,,,,,,,,,,,,,,8,,47,72
21120,note_on,,0,0,11,,,,,,,,,,,,,,,,15,,55,72
21120,note_on,,0,0,11,,,,,,,,,,,,,,,,15,,59,72
21120,note_on,,1,0,10,,,,,,,,,,,,,,,,13,,47,72
21120,note_on,,1,0,9,,,,,,,,,,,,,,,,12,,59,72
21120,note_on,,0,0,11,,,,,,,,,,,,,,,,15,,64,72
21120,note_on,,1,0,11,,,,,,,,,,,,,,,,15,,47,72
21180,note_on,,61,0,7,,,,,,,,,,,,,,,,10,,67,72
21180,note_on,,61,0,8,,,,,,,,,,,,,,,,11,,64,72
21239,note_on,,0,0,11,,,,,,,,,,,,,,,,15,,59,0
21239,note_on,,59,0,7,,,,,,,,,,,,,,,,10,,67,0
21239,note_on,,119,0,11,,,,,,,,,,,,,,,,15,,64,0
21239,note_on,,59,0,8,,,,,,,,,,,,,,,,11,,64,0
21239,note_on,,0,0,11,,,,,,,,,,,,,,,,15,,55,0
21240,note_on,,1,0,7,,,,,,,,,,,,,,,,10,,66,72
21240,note_on,,1,0,11,,,,,,,,,,,,,,,,15,,63,72
21240,note_on,,0,0,11,,,,,,,,,,,,,,,,15,,54,72
21240,note_on,,0,0,11,,,,,,,,,,,,,,,,15,,57,72
21240,note_on,,1,0,8,,,,,,,,,,,,,,,,11,,63,72
21329,note_on,,89,0,8,,,,,,,,,,,,,,,,11,,63,0
21329,note_on,,89,0,7,,,,,,,,,,,,,,,,10,,66,0
21330,note_on,,1,0,7,,,,,,,,,,,,,,,,10,,75,72
21330,note_on,,1,0,8,,,,,,,,,,,,,,,,11,,69,72
21359,note_on,,29,0,7,,,,,,,,,,,,,,,,10,,75,0
21359,note_on,,0,0,11,,,,,,,,,,,,,,,,15,,63,0
21359,note_on,,239,0,6,,,,,,,,,,,,,,,,8,,47,0
21359,note_on,,0,0,11,,,,,,,,,,,,,,,,15,,54,0
21359,note_on,,239,0,9,,,,,,,,,,,,,,,,12,,59,0
21359,note_on,,29,0,8,,,,,,,,,,,,,,,,11,,69,0
21359,note_on,,119,0,11,,,,,,,,,,,,,,,,15,,47,0
21359,note_on,,239,0,10,,,,,,,,,,,,,,,,13,,47,0
21359,note_on,,0,0,11,,,,,,,,,,,,,,,,15,,57,0
21360,note_on,,1,0,11,,,,,,,,,,,,,,,,15,,40,72
21360,note_on,,0,0,11,,,,,,,,,,,,,,,,15,,64,72
21360,note_on,,1,0,7,,,,,,,,,,,,,,,,10,,76,72
21360,note_on,,0,0,11,,,,,,,,,,,,,,,,15,,59,72
21360,note_on,,0,0,11,,,,,,,,,,,,,,,,15,,55,72
21360,note_on,,0,0,11,,,,,,,,,,,,,,,,15,,47,72
21360,note_on,,1,0,10,,,,,,,,,,,,,,,,13,,40,72
21360,note_on,,1,0,9,,,,,,,,,,,,,,,,12,,59,72
21360,note_on,,1,0,8,,,,,,,,,,,,,,,,11,,67,72
21360,note_on,,1,0,6,,,,,,,,,,,,,,,,8,,52,72
21599,note_on,,0,0,11,,,,,,,,,,,,,,,,15,,64,0
21599,note_on,,0,0,11,,,,,,,,,,,,,,,,15,,55,0
21599,note_on,,0,0,11,,,,,,,,,,,,,,,,15,,59,0
21599,note_on,,239,0,11,,,,,,,,,,,,,,,,15,,40,0
21599,note_on,,239,0,10,,,,,,,,,,,,,,,,13,,40,0
21599,note_on,,239,0,6,,,,,,,,,,,,,,,,8,,52,0
21599,end_of_track,,0,1,6,,,,,,,,,,,,,,,,,,,
21599,note_on,,239,0,7,,,,,,,,,,,,,,,,10,,76,0
21599,end_of_track,,0,1,7,,,,,,,,,,,,,,,,,,,
21599,note_on,,0,0,11,,,,,,,,,,,,,,,,15,,47,0
21599,note_on,,239,0,8,,,,,,,,,,,,,,,,11,,67,0
21599,end_of_track,,0,1,8,,,,,,,,,,,,,,,,,,,
21599,note_on,,239,0,9,,,,,,,,,,,,,,,,12,,59,0
21599,end_of_track,,0,1,9,,,,,,,,,,,,,,,,,,,
21599,end_of_track,,0,1,10,,,,,,,,,,,,,,,,,,,
21599,end_of_track,,0,1,11,,,,,,,,,,,,,,,,,,,
