tick,type,data,time,meta,track,frame_rate,hours,minutes,seconds,frames,sub_frames,port,key,tempo,numerator,denominator,clocks_per_click,notated_32nd_notes_per_beat,control,value,channel,program,note,velocity
0,sequencer_specific,"(0, 0, 91, 35, 1, 0, 5, 4, 35, 0)",0,1,0,,,,,,,,,,,,,,,,,,,
0,control_change,,0,0,10,,,,,,,,,,,,,,10,80,8,,,
0,control_change,,0,0,10,,,,,,,,,,,,,,7,96,8,,,
0,control_change,,0,0,10,,,,,,,,,,,,,,11,127,8,,,
0,midi_port,,0,1,10,,,,,,,0,,,,,,,,,,,,
0,track_name,,0,1,10,,,,,,,,,,,,,,,,,,,
0,midi_port,,0,1,14,,,,,,,0,,,,,,,,,,,,
0,program_change,,0,0,9,,,,,,,,,,,,,,,,7,70,,
0,control_change,,0,0,9,,,,,,,,,,,,,,7,96,7,,,
0,control_change,,0,0,9,,,,,,,,,,,,,,10,48,7,,,
0,control_change,,0,0,9,,,,,,,,,,,,,,11,127,7,,,
0,midi_port,,0,1,9,,,,,,,0,,,,,,,,,,,,
0,track_name,,0,1,9,,,,,,,,,,,,,,,,,,,
0,program_change,,0,0,8,,,,,,,,,,,,,,,,6,73,,
0,program_change,,0,0,10,,,,,,,,,,,,,,,,8,60,,
0,control_change,,0,0,8,,,,,,,,,,,,,,10,96,6,,,
0,control_change,,0,0,8,,,,,,,,,,,,,,11,127,6,,,
0,midi_port,,0,1,8,,,,,,,0,,,,,,,,,,,,
0,track_name,,0,1,8,,,,,,,,,,,,,,,,,,,
0,program_change,,0,0,7,,,,,,,,,,,,,,,,5,73,,
0,control_change,,0,0,7,,,,,,,,,,,,,,7,96,5,,,
0,control_change,,0,0,7,,,,,,,,,,,,,,10,32,5,,,
0,control_change,,0,0,7,,,,,,,,,,,,,,11,127,5,,,
0,midi_port,,0,1,7,,,,,,,0,,,,,,,,,,,,
0,track_name,,0,1,7,,,,,,,,,,,,,,,,,,,
0,program_change,,0,0,6,,,,,,,,,,,,,,,,2,70,,
0,control_change,,0,0,6,,,,,,,,,,,,,,7,80,2,,,
0,control_change,,0,0,6,,,,,,,,,,,,,,10,64,2,,,
0,control_change,,0,0,6,,,,,,,,,,,,,,11,127,2,,,
0,control_change,,0,0,8,,,,,,,,,,,,,,7,96,6,,,
0,track_name,,0,1,11,,,,,,,,,,,,,,,,,,,
0,midi_port,,0,1,11,,,,,,,0,,,,,,,,,,,,
0,control_change,,0,0,11,,,,,,,,,,,,,,11,127,10,,,
0,control_change,,0,0,14,,,,,,,,,,,,,,11,127,13,,,
0,control_change,,0,0,14,,,,,,,,,,,,,,10,96,13,,,
0,control_change,,0,0,14,,,,,,,,,,,,,,7,96,13,,,
0,program_change,,0,0,14,,,,,,,,,,,,,,,,13,48,,
0,program_change,,0,0,13,,,,,,,,,,,,,,,,12,48,,
0,control_change,,0,0,13,,,,,,,,,,,,,,7,96,12,,,
0,control_change,,0,0,13,,,,,,,,,,,,,,10,80,12,,,
0,control_change,,0,0,13,,,,,,,,,,,,,,11,127,12,,,
0,midi_port,,0,1,13,,,,,,,0,,,,,,,,,,,,
0,track_name,,0,1,13,,,,,,,,,,,,,,,,,,,
0,track_name,,0,1,15,,,,,,,,,,,,,,,,,,,
0,midi_port,,0,1,15,,,,,,,0,,,,,,,,,,,,
0,control_change,,0,0,15,,,,,,,,,,,,,,11,127,15,,,
0,control_change,,0,0,15,,,,,,,,,,,,,,10,90,15,,,
0,control_change,,0,0,15,,,,,,,,,,,,,,7,96,15,,,
0,program_change,,0,0,15,,,,,,,,,,,,,,,,15,6,,
0,note_on,,0,0,15,,,,,,,,,,,,,,,,15,,45,48
0,note_on,,0,0,15,,,,,,,,,,,,,,,,15,,52,48
0,note_on,,0,0,15,,,,,,,,,,,,,,,,15,,60,48
0,note_on,,0,0,15,,,,,,,,,,,,,,,,15,,57,48
0,program_change,,0,0,12,,,,,,,,,,,,,,,,11,48,,
0,control_change,,0,0,12,,,,,,,,,,,,,,7,96,11,,,
0,control_change,,0,0,12,,,,,,,,,,,,,,10,24,11,,,
0,control_change,,0,0,12,,,,,,,,,,,,,,11,127,11,,,
0,midi_port,,0,1,12,,,,,,,0,,,,,,,,,,,,
0,track_name,,0,1,12,,,,,,,,,,,,,,,,,,,
0,program_change,,0,0,11,,,,,,,,,,,,,,,,10,48,,
0,control_change,,0,0,11,,,,,,,,,,,,,,7,96,10,,,
0,control_change,,0,0,11,,,,,,,,,,,,,,10,48,10,,,
0,midi_port,,0,1,6,,,,,,,0,,,,,,,,,,,,
0,track_name,,0,1,6,,,,,,,,,,,,,,,,,,,
0,track_name,,0,1,14,,,,,,,,,,,,,,,,,,,
0,midi_port,,0,1,3,,,,,,,0,,,,,,,,,,,,
0,midi_port,,0,1,0,,,,,,,0,,,,,,,,,,,,
0,smpte_offset,,0,1,0,25,32,0,3,0,0,,,,,,,,,,,,,
0,instrument_name,,0,1,0,,,,,,,,,,,,,,,,,,,
0,track_name,,0,1,0,,,,,,,,,,,,,,,,,,,
0,end_of_track,,0,1,2,,,,,,,,,,,,,,,,,,,
0,key_signature,,0,1,0,,,,,,,,Am,,,,,,,,,,,
0,set_tempo,,0,1,0,,,,,,,,,1071428,,,,,,,,,,
0,midi_port,,0,1,4,,,,,,,0,,,,,,,,,,,,
0,end_of_track,,0,1,4,,,,,,,,,,,,,,,,,,,
0,track_name,,0,1,5,,,,,,,,,,,,,,,,,,,
0,midi_port,,0,1,5,,,,,,,0,,,,,,,,,,,,
0,time_signature,,0,1,0,,,,,,,,,,4,4,24,8,,,,,,
0,track_name,,0,1,3,,,,,,,,,,,,,,,,,,,
0,midi_port,,0,1,1,,,,,,,0,,,,,,,,,,,,
0,track_name,,0,1,1,,,,,,,,,,,,,,,,,,,
0,track_name,,0,1,2,,,,,,,,,,,,,,,,,,,
0,control_change,,0,0,5,,,,,,,,,,,,,,11,127,1,,,
0,control_change,,0,0,5,,,,,,,,,,,,,,10,64,1,,,
0,control_change,,0,0,5,,,,,,,,,,,,,,7,72,1,,,
0,program_change,,0,0,5,,,,,,,,,,,,,,,,1,68,,
0,end_of_track,,0,1,1,,,,,,,,,,,,,,,,,,,
0,end_of_track,,0,1,3,,,,,,,,,,,,,,,,,,,
0,midi_port,,0,1,2,,,,,,,0,,,,,,,,,,,,
119,note_on,,0,0,15,,,,,,,,,,,,,,,,15,,57,0
119,note_on,,0,0,15,,,,,,,,,,,,,,,,15,,60,0
119,note_on,,0,0,15,,,,,,,,,,,,,,,,15,,52,0
119,note_on,,119,0,15,,,,,,,,,,,,,,,,15,,45,0
120,note_on,,120,0,7,,,,,,,,,,,,,,,,5,,64,48
120,note_on,,120,0,8,,,,,,,,,,,,,,,,6,,60,48
120,note_on,,120,0,9,,,,,,,,,,,,,,,,7,,57,48
120,note_on,,120,0,10,,,,,,,,,,,,,,,,8,,45,48
359,note_on,,239,0,9,,,,,,,,,,,,,,,,7,,57,0
359,note_on,,239,0,8,,,,,,,,,,,,,,,,6,,60,0
359,note_on,,239,0,7,,,,,,,,,,,,,,,,5,,64,0
359,note_on,,239,0,10,,,,,,,,,,,,,,,,8,,45,0
360,note_on,,1,0,8,,,,,,,,,,,,,,,,6,,60,48
360,note_on,,1,0,10,,,,,,,,,,,,,,,,8,,45,48
360,note_on,,1,0,9,,,,,,,,,,,,,,,,7,,57,48
360,note_on,,1,0,7,,,,,,,,,,,,,,,,5,,64,48
479,note_on,,119,0,10,,,,,,,,,,,,,,,,8,,45,0
479,note_on,,119,0,8,,,,,,,,,,,,,,,,6,,60,0
479,note_on,,119,0,7,,,,,,,,,,,,,,,,5,,64,0
479,note_on,,119,0,9,,,,,,,,,,,,,,,,7,,57,0
480,note_on,,1,0,8,,,,,,,,,,,,,,,,6,,62,48
480,note_on,,1,0,10,,,,,,,,,,,,,,,,8,,53,48
480,note_on,,1,0,7,,,,,,,,,,,,,,,,5,,69,48
480,note_on,,1,0,9,,,,,,,,,,,,,,,,7,,57,48
719,note_on,,239,0,8,,,,,,,,,,,,,,,,6,,62,0
719,note_on,,239,0,9,,,,,,,,,,,,,,,,7,,57,0
719,note_on,,239,0,10,,,,,,,,,,,,,,,,8,,53,0
719,note_on,,239,0,7,,,,,,,,,,,,,,,,5,,69,0
720,note_on,,1,0,8,,,,,,,,,,,,,,,,6,,65,48
720,note_on,,1,0,9,,,,,,,,,,,,,,,,7,,62,48
720,note_on,,1,0,10,,,,,,,,,,,,,,,,8,,50,48
720,note_on,,1,0,7,,,,,,,,,,,,,,,,5,,71,48
959,note_on,,239,0,7,,,,,,,,,,,,,,,,5,,71,0
959,note_on,,239,0,10,,,,,,,,,,,,,,,,8,,50,0
959,note_on,,239,0,9,,,,,,,,,,,,,,,,7,,62,0
959,note_on,,239,0,8,,,,,,,,,,,,,,,,6,,65,0
960,note_on,,1,0,9,,,,,,,,,,,,,,,,7,,60,48
960,note_on,,1,0,10,,,,,,,,,,,,,,,,8,,57,48
960,note_on,,1,0,7,,,,,,,,,,,,,,,,5,,72,48
960,note_on,,1,0,8,,,,,,,,,,,,,,,,6,,64,48
1439,note_on,,479,0,10,,,,,,,,,,,,,,,,8,,57,0
1439,note_on,,479,0,7,,,,,,,,,,,,,,,,5,,72,0
1439,note_on,,479,0,9,,,,,,,,,,,,,,,,7,,60,0
1439,note_on,,479,0,8,,,,,,,,,,,,,,,,6,,64,0
1560,note_on,,121,0,10,,,,,,,,,,,,,,,,8,,55,48
1560,note_on,,121,0,9,,,,,,,,,,,,,,,,7,,58,48
1560,note_on,,121,0,8,,,,,,,,,,,,,,,,6,,64,48
1560,note_on,,121,0,7,,,,,,,,,,,,,,,,5,,73,48
1799,note_on,,239,0,9,,,,,,,,,,,,,,,,7,,58,0
1799,note_on,,239,0,7,,,,,,,,,,,,,,,,5,,73,0
1799,note_on,,239,0,8,,,,,,,,,,,,,,,,6,,64,0
1799,note_on,,239,0,10,,,,,,,,,,,,,,,,8,,55,0
1800,note_on,,1,0,8,,,,,,,,,,,,,,,,6,,64,48
1800,note_on,,1,0,9,,,,,,,,,,,,,,,,7,,58,48
1800,note_on,,1,0,10,,,,,,,,,,,,,,,,8,,55,48
1800,note_on,,1,0,7,,,,,,,,,,,,,,,,5,,73,48
1919,note_on,,119,0,9,,,,,,,,,,,,,,,,7,,58,0
1919,note_on,,119,0,10,,,,,,,,,,,,,,,,8,,55,0
1919,note_on,,119,0,7,,,,,,,,,,,,,,,,5,,73,0
1919,note_on,,119,0,8,,,,,,,,,,,,,,,,6,,64,0
1920,note_on,,1,0,9,,,,,,,,,,,,,,,,7,,57,48
1920,note_on,,1,0,7,,,,,,,,,,,,,,,,5,,74,48
1920,note_on,,1,0,10,,,,,,,,,,,,,,,,8,,54,48
1920,note_on,,1,0,8,,,,,,,,,,,,,,,,6,,62,48
2159,note_on,,239,0,10,,,,,,,,,,,,,,,,8,,54,0
2159,note_on,,239,0,7,,,,,,,,,,,,,,,,5,,74,0
2159,note_on,,239,0,8,,,,,,,,,,,,,,,,6,,62,0
2160,note_on,,1,0,10,,,,,,,,,,,,,,,,8,,53,48
2160,note_on,,1,0,8,,,,,,,,,,,,,,,,6,,69,48
2160,note_on,,1,0,7,,,,,,,,,,,,,,,,5,,75,48
2279,note_on,,359,0,9,,,,,,,,,,,,,,,,7,,57,0
2280,note_on,,1,0,9,,,,,,,,,,,,,,,,7,,59,48
2399,note_on,,239,0,8,,,,,,,,,,,,,,,,6,,69,0
2399,note_on,,239,0,10,,,,,,,,,,,,,,,,8,,53,0
2399,note_on,,239,0,7,,,,,,,,,,,,,,,,5,,75,0
2399,note_on,,119,0,9,,,,,,,,,,,,,,,,7,,59,0
2400,note_on,,1,0,10,,,,,,,,,,,,,,,,8,,52,48
2400,set_tempo,,2400,1,0,,,,,,,,,2142857,,,,,,,,,,
2400,note_on,,1,0,7,,,,,,,,,,,,,,,,5,,76,48
2400,note_on,,1,0,9,,,,,,,,,,,,,,,,7,,60,48
2400,note_on,,1,0,8,,,,,,,,,,,,,,,,6,,69,48
2519,note_on,,119,0,9,,,,,,,,,,,,,,,,7,,60,0
2519,note_on,,119,0,8,,,,,,,,,,,,,,,,6,,69,0
2520,note_on,,1,0,8,,,,,,,,,,,,,,,,6,,68,48
2520,note_on,,1,0,9,,,,,,,,,,,,,,,,7,,59,48
2579,note_on,,59,0,9,,,,,,,,,,,,,,,,7,,59,0
2579,note_on,,59,0,8,,,,,,,,,,,,,,,,6,,68,0
2580,note_on,,1,0,8,,,,,,,,,,,,,,,,6,,66,48
2580,note_on,,1,0,9,,,,,,,,,,,,,,,,7,,57,48
2639,note_on,,59,0,9,,,,,,,,,,,,,,,,7,,57,0
2639,note_on,,59,0,8,,,,,,,,,,,,,,,,6,,66,0
2640,note_on,,1,0,9,,,,,,,,,,,,,,,,7,,59,48
2640,note_on,,1,0,8,,,,,,,,,,,,,,,,6,,68,48
2879,note_on,,479,0,10,,,,,,,,,,,,,,,,8,,52,0
2879,note_on,,479,0,7,,,,,,,,,,,,,,,,5,,76,0
2879,note_on,,239,0,8,,,,,,,,,,,,,,,,6,,68,0
2879,note_on,,239,0,9,,,,,,,,,,,,,,,,7,,59,0
2880,set_tempo,,480,1,0,,,,,,,,,500000,,,,,,,,,,
2880,note_on,,2761,0,15,,,,,,,,,,,,,,,,15,,48,72
2880,note_on,,0,0,15,,,,,,,,,,,,,,,,15,,72,72
2880,note_on,,0,0,15,,,,,,,,,,,,,,,,15,,67,72
2880,note_on,,0,0,15,,,,,,,,,,,,,,,,15,,60,72
2880,note_on,,2880,0,14,,,,,,,,,,,,,,,,13,,48,72
2880,note_on,,2880,0,6,,,,,,,,,,,,,,,,2,,48,72
2880,note_on,,0,0,15,,,,,,,,,,,,,,,,15,,55,72
2880,note_on,,0,0,15,,,,,,,,,,,,,,,,15,,76,72
2999,note_on,,119,0,15,,,,,,,,,,,,,,,,15,,48,0
2999,note_on,,0,0,15,,,,,,,,,,,,,,,,15,,76,0
2999,note_on,,0,0,15,,,,,,,,,,,,,,,,15,,72,0
2999,note_on,,0,0,15,,,,,,,,,,,,,,,,15,,67,0
2999,note_on,,119,0,6,,,,,,,,,,,,,,,,2,,48,0
2999,note_on,,0,0,15,,,,,,,,,,,,,,,,15,,55,0
2999,note_on,,119,0,14,,,,,,,,,,,,,,,,13,,48,0
2999,note_on,,0,0,15,,,,,,,,,,,,,,,,15,,60,0
3060,note_on,,3060,0,11,,,,,,,,,,,,,,,,10,,79,72
3060,note_on,,3060,0,5,,,,,,,,,,,,,,,,1,,76,72
3060,note_on,,181,0,9,,,,,,,,,,,,,,,,7,,60,72
3060,note_on,,3060,0,12,,,,,,,,,,,,,,,,11,,76,72
3060,note_on,,61,0,14,,,,,,,,,,,,,,,,13,,48,72
3060,note_on,,61,0,6,,,,,,,,,,,,,,,,2,,48,72
3060,note_on,,0,0,15,,,,,,,,,,,,,,,,15,,55,72
3060,note_on,,181,0,8,,,,,,,,,,,,,,,,6,,67,72
3060,note_on,,61,0,15,,,,,,,,,,,,,,,,15,,48,72
3060,note_on,,181,0,7,,,,,,,,,,,,,,,,5,,76,72
3060,note_on,,0,0,15,,,,,,,,,,,,,,,,15,,72,72
3060,note_on,,181,0,10,,,,,,,,,,,,,,,,8,,48,72
3060,note_on,,0,0,15,,,,,,,,,,,,,,,,15,,60,72
3060,note_on,,3060,0,13,,,,,,,,,,,,,,,,12,,67,72
3060,note_on,,0,0,15,,,,,,,,,,,,,,,,15,,67,72
3060,note_on,,0,0,15,,,,,,,,,,,,,,,,15,,76,72
3119,note_on,,59,0,15,,,,,,,,,,,,,,,,15,,48,0
3119,note_on,,59,0,5,,,,,,,,,,,,,,,,1,,76,0
3119,note_on,,59,0,7,,,,,,,,,,,,,,,,5,,76,0
3119,note_on,,59,0,12,,,,,,,,,,,,,,,,11,,76,0
3119,note_on,,59,0,10,,,,,,,,,,,,,,,,8,,48,0
3119,note_on,,59,0,14,,,,,,,,,,,,,,,,13,,48,0
3119,note_on,,59,0,13,,,,,,,,,,,,,,,,12,,67,0
3119,note_on,,0,0,15,,,,,,,,,,,,,,,,15,,55,0
3119,note_on,,0,0,15,,,,,,,,,,,,,,,,15,,60,0
3119,note_on,,0,0,15,,,,,,,,,,,,,,,,15,,67,0
3119,note_on,,59,0,11,,,,,,,,,,,,,,,,10,,79,0
3119,note_on,,59,0,9,,,,,,,,,,,,,,,,7,,60,0
3119,note_on,,59,0,8,,,,,,,,,,,,,,,,6,,67,0
3119,note_on,,0,0,15,,,,,,,,,,,,,,,,15,,76,0
3119,note_on,,59,0,6,,,,,,,,,,,,,,,,2,,48,0
3119,note_on,,0,0,15,,,,,,,,,,,,,,,,15,,72,0
3120,note_on,,1,0,6,,,,,,,,,,,,,,,,2,,52,72
3120,note_on,,1,0,10,,,,,,,,,,,,,,,,8,,52,72
3120,note_on,,1,0,9,,,,,,,,,,,,,,,,7,,60,72
3120,note_on,,1,0,13,,,,,,,,,,,,,,,,12,,67,72
3120,note_on,,1,0,15,,,,,,,,,,,,,,,,15,,52,72
3120,note_on,,0,0,15,,,,,,,,,,,,,,,,15,,72,72
3120,note_on,,0,0,15,,,,,,,,,,,,,,,,15,,67,72
3120,note_on,,0,0,15,,,,,,,,,,,,,,,,15,,60,72
3120,note_on,,0,0,15,,,,,,,,,,,,,,,,15,,55,72
3120,note_on,,1,0,8,,,,,,,,,,,,,,,,6,,67,72
3120,note_on,,1,0,12,,,,,,,,,,,,,,,,11,,79,72
3120,note_on,,1,0,5,,,,,,,,,,,,,,,,1,,79,72
3120,note_on,,1,0,14,,,,,,,,,,,,,,,,13,,52,72
3120,note_on,,1,0,11,,,,,,,,,,,,,,,,10,,84,72
3120,note_on,,1,0,7,,,,,,,,,,,,,,,,5,,79,72
3239,note_on,,119,0,8,,,,,,,,,,,,,,,,6,,67,0
3239,note_on,,0,0,15,,,,,,,,,,,,,,,,15,,55,0
3239,note_on,,0,0,15,,,,,,,,,,,,,,,,15,,72,0
3239,note_on,,119,0,12,,,,,,,,,,,,,,,,11,,79,0
3239,note_on,,119,0,15,,,,,,,,,,,,,,,,15,,52,0
3239,note_on,,119,0,10,,,,,,,,,,,,,,,,8,,52,0
3239,note_on,,119,0,7,,,,,,,,,,,,,,,,5,,79,0
3239,note_on,,0,0,15,,,,,,,,,,,,,,,,15,,67,0
3239,note_on,,0,0,15,,,,,,,,,,,,,,,,15,,60,0
3239,note_on,,119,0,13,,,,,,,,,,,,,,,,12,,67,0
3239,note_on,,119,0,11,,,,,,,,,,,,,,,,10,,84,0
3239,note_on,,119,0,14,,,,,,,,,,,,,,,,13,,52,0
3239,note_on,,119,0,9,,,,,,,,,,,,,,,,7,,60,0
3239,note_on,,119,0,5,,,,,,,,,,,,,,,,1,,79,0
3239,note_on,,119,0,6,,,,,,,,,,,,,,,,2,,52,0
3240,note_on,,1,0,10,,,,,,,,,,,,,,,,8,,55,72
3240,note_on,,1,0,8,,,,,,,,,,,,,,,,6,,67,72
3240,note_on,,0,0,15,,,,,,,,,,,,,,,,15,,67,72
3240,note_on,,1,0,15,,,,,,,,,,,,,,,,15,,55,72
3240,note_on,,0,0,15,,,,,,,,,,,,,,,,15,,62,72
3240,note_on,,1,0,11,,,,,,,,,,,,,,,,10,,83,72
3240,note_on,,1,0,5,,,,,,,,,,,,,,,,1,,74,72
3240,note_on,,0,0,15,,,,,,,,,,,,,,,,15,,71,72
3240,note_on,,1,0,14,,,,,,,,,,,,,,,,13,,55,72
3240,note_on,,1,0,13,,,,,,,,,,,,,,,,12,,67,72
3240,note_on,,1,0,7,,,,,,,,,,,,,,,,5,,74,72
3240,note_on,,1,0,12,,,,,,,,,,,,,,,,11,,74,72
3240,note_on,,1,0,9,,,,,,,,,,,,,,,,7,,59,72
3240,note_on,,1,0,6,,,,,,,,,,,,,,,,2,,55,72
3359,note_on,,119,0,15,,,,,,,,,,,,,,,,15,,55,0
3359,note_on,,119,0,13,,,,,,,,,,,,,,,,12,,67,0
3359,note_on,,0,0,15,,,,,,,,,,,,,,,,15,,71,0
3359,note_on,,0,0,15,,,,,,,,,,,,,,,,15,,67,0
3359,note_on,,119,0,8,,,,,,,,,,,,,,,,6,,67,0
3359,note_on,,0,0,15,,,,,,,,,,,,,,,,15,,62,0
3359,note_on,,119,0,12,,,,,,,,,,,,,,,,11,,74,0
3359,note_on,,119,0,9,,,,,,,,,,,,,,,,7,,59,0
3359,note_on,,119,0,10,,,,,,,,,,,,,,,,8,,55,0
3359,note_on,,119,0,5,,,,,,,,,,,,,,,,1,,74,0
3359,note_on,,119,0,11,,,,,,,,,,,,,,,,10,,83,0
3359,note_on,,119,0,14,,,,,,,,,,,,,,,,13,,55,0
3359,note_on,,119,0,7,,,,,,,,,,,,,,,,5,,74,0
3359,note_on,,119,0,6,,,,,,,,,,,,,,,,2,,55,0
3360,note_on,,1,0,10,,,,,,,,,,,,,,,,8,,60,72
3360,note_on,,1,0,9,,,,,,,,,,,,,,,,7,,67,72
3360,note_on,,1,0,15,,,,,,,,,,,,,,,,15,,60,72
3360,note_on,,1,0,5,,,,,,,,,,,,,,,,1,,76,72
3360,note_on,,1,0,14,,,,,,,,,,,,,,,,13,,60,72
3360,note_on,,1,0,11,,,,,,,,,,,,,,,,10,,84,72
3360,note_on,,1,0,12,,,,,,,,,,,,,,,,11,,76,72
3360,note_on,,0,0,15,,,,,,,,,,,,,,,,15,,72,72
3360,note_on,,0,0,15,,,,,,,,,,,,,,,,15,,67,72
3360,note_on,,1,0,13,,,,,,,,,,,,,,,,12,,67,72
3360,note_on,,1,0,6,,,,,,,,,,,,,,,,2,,60,72
3360,note_on,,1,0,8,,,,,,,,,,,,,,,,6,,64,72
3360,note_on,,1,0,7,,,,,,,,,,,,,,,,5,,76,72
3360,note_on,,0,0,15,,,,,,,,,,,,,,,,15,,64,72
3419,note_on,,59,0,11,,,,,,,,,,,,,,,,10,,84,0
3420,note_on,,1,0,11,,,,,,,,,,,,,,,,10,,72,72
3479,note_on,,119,0,9,,,,,,,,,,,,,,,,7,,67,0
3479,note_on,,119,0,10,,,,,,,,,,,,,,,,8,,60,0
3479,note_on,,0,0,15,,,,,,,,,,,,,,,,15,,64,0
3479,note_on,,119,0,6,,,,,,,,,,,,,,,,2,,60,0
3479,note_on,,0,0,15,,,,,,,,,,,,,,,,15,,67,0
3479,note_on,,59,0,11,,,,,,,,,,,,,,,,10,,72,0
3479,note_on,,119,0,5,,,,,,,,,,,,,,,,1,,76,0
3479,note_on,,119,0,8,,,,,,,,,,,,,,,,6,,64,0
3479,note_on,,119,0,13,,,,,,,,,,,,,,,,12,,67,0
3479,note_on,,119,0,12,,,,,,,,,,,,,,,,11,,76,0
3479,note_on,,0,0,15,,,,,,,,,,,,,,,,15,,72,0
3479,note_on,,119,0,15,,,,,,,,,,,,,,,,15,,60,0
3479,note_on,,119,0,7,,,,,,,,,,,,,,,,5,,76,0
3479,note_on,,119,0,14,,,,,,,,,,,,,,,,13,,60,0
3480,note_on,,1,0,12,,,,,,,,,,,,,,,,11,,72,72
3480,note_on,,1,0,7,,,,,,,,,,,,,,,,5,,72,72
3480,note_on,,1,0,5,,,,,,,,,,,,,,,,1,,72,72
3480,note_on,,1,0,14,,,,,,,,,,,,,,,,13,,48,72
3480,note_on,,1,0,6,,,,,,,,,,,,,,,,2,,48,72
3480,note_on,,0,0,15,,,,,,,,,,,,,,,,15,,72,72
3480,note_on,,1,0,10,,,,,,,,,,,,,,,,8,,48,72
3480,note_on,,1,0,13,,,,,,,,,,,,,,,,12,,67,72
3480,note_on,,1,0,8,,,,,,,,,,,,,,,,6,,67,72
3480,note_on,,1,0,11,,,,,,,,,,,,,,,,10,,76,72
3480,note_on,,0,0,15,,,,,,,,,,,,,,,,15,,60,72
3480,note_on,,0,0,15,,,,,,,,,,,,,,,,15,,67,72
3480,note_on,,0,0,15,,,,,,,,,,,,,,,,15,,76,72
3480,note_on,,1,0,9,,,,,,,,,,,,,,,,7,,64,72
3480,note_on,,1,0,15,,,,,,,,,,,,,,,,15,,48,72
3539,note_on,,59,0,14,,,,,,,,,,,,,,,,13,,48,0
3539,note_on,,0,0,15,,,,,,,,,,,,,,,,15,,67,0
3539,note_on,,59,0,15,,,,,,,,,,,,,,,,15,,48,0
3539,note_on,,59,0,7,,,,,,,,,,,,,,,,5,,72,0
3539,note_on,,0,0,15,,,,,,,,,,,,,,,,15,,76,0
3539,note_on,,0,0,15,,,,,,,,,,,,,,,,15,,60,0
3539,note_on,,0,0,15,,,,,,,,,,,,,,,,15,,72,0
3539,note_on,,59,0,12,,,,,,,,,,,,,,,,11,,72,0
3539,note_on,,59,0,6,,,,,,,,,,,,,,,,2,,48,0
3539,note_on,,59,0,5,,,,,,,,,,,,,,,,1,,72,0
3539,note_on,,59,0,10,,,,,,,,,,,,,,,,8,,48,0
3539,note_on,,59,0,8,,,,,,,,,,,,,,,,6,,67,0
3539,note_on,,59,0,13,,,,,,,,,,,,,,,,12,,67,0
3539,note_on,,59,0,11,,,,,,,,,,,,,,,,10,,76,0
3539,note_on,,59,0,9,,,,,,,,,,,,,,,,7,,64,0
3540,note_on,,0,0,15,,,,,,,,,,,,,,,,15,,76,72
3540,note_on,,1,0,15,,,,,,,,,,,,,,,,15,,48,72
3540,note_on,,1,0,9,,,,,,,,,,,,,,,,7,,64,72
3540,note_on,,1,0,10,,,,,,,,,,,,,,,,8,,48,72
3540,note_on,,1,0,11,,,,,,,,,,,,,,,,10,,79,72
3540,note_on,,0,0,15,,,,,,,,,,,,,,,,15,,60,72
3540,note_on,,1,0,7,,,,,,,,,,,,,,,,5,,72,72
3540,note_on,,1,0,13,,,,,,,,,,,,,,,,12,,67,72
3540,note_on,,1,0,14,,,,,,,,,,,,,,,,13,,48,72
3540,note_on,,1,0,8,,,,,,,,,,,,,,,,6,,67,72
3540,note_on,,1,0,6,,,,,,,,,,,,,,,,2,,48,72
3540,note_on,,0,0,15,,,,,,,,,,,,,,,,15,,67,72
3540,note_on,,1,0,5,,,,,,,,,,,,,,,,1,,72,72
3540,note_on,,0,0,15,,,,,,,,,,,,,,,,15,,72,72
3540,note_on,,1,0,12,,,,,,,,,,,,,,,,11,,72,72
3599,note_on,,0,0,15,,,,,,,,,,,,,,,,15,,60,0
3599,note_on,,59,0,12,,,,,,,,,,,,,,,,11,,72,0
3599,note_on,,59,0,11,,,,,,,,,,,,,,,,10,,79,0
3599,note_on,,59,0,9,,,,,,,,,,,,,,,,7,,64,0
3599,note_on,,59,0,15,,,,,,,,,,,,,,,,15,,48,0
3599,note_on,,59,0,8,,,,,,,,,,,,,,,,6,,67,0
3599,note_on,,0,0,15,,,,,,,,,,,,,,,,15,,76,0
3599,note_on,,0,0,15,,,,,,,,,,,,,,,,15,,72,0
3599,note_on,,0,0,15,,,,,,,,,,,,,,,,15,,67,0
3599,note_on,,59,0,5,,,,,,,,,,,,,,,,1,,72,0
3599,note_on,,59,0,13,,,,,,,,,,,,,,,,12,,67,0
3599,note_on,,59,0,10,,,,,,,,,,,,,,,,8,,48,0
3599,note_on,,59,0,7,,,,,,,,,,,,,,,,5,,72,0
3599,note_on,,59,0,6,,,,,,,,,,,,,,,,2,,48,0
3599,note_on,,59,0,14,,,,,,,,,,,,,,,,13,,48,0
3600,note_on,,0,0,15,,,,,,,,,,,,,,,,15,,72,72
3600,note_on,,0,0,15,,,,,,,,,,,,,,,,15,,60,72
3600,note_on,,1,0,7,,,,,,,,,,,,,,,,5,,79,72
3600,note_on,,1,0,6,,,,,,,,,,,,,,,,2,,52,72
3600,note_on,,1,0,9,,,,,,,,,,,,,,,,7,,60,72
3600,note_on,,1,0,11,,,,,,,,,,,,,,,,10,,84,72
3600,note_on,,1,0,12,,,,,,,,,,,,,,,,11,,79,72
3600,note_on,,1,0,14,,,,,,,,,,,,,,,,13,,52,72
3600,note_on,,1,0,15,,,,,,,,,,,,,,,,15,,52,72
3600,note_on,,0,0,15,,,,,,,,,,,,,,,,15,,67,72
3600,note_on,,1,0,8,,,,,,,,,,,,,,,,6,,67,72
3600,note_on,,1,0,10,,,,,,,,,,,,,,,,8,,52,72
3600,note_on,,1,0,5,,,,,,,,,,,,,,,,1,,79,72
3600,note_on,,1,0,13,,,,,,,,,,,,,,,,12,,67,72
3719,note_on,,119,0,13,,,,,,,,,,,,,,,,12,,67,0
3719,note_on,,0,0,15,,,,,,,,,,,,,,,,15,,72,0
3719,note_on,,0,0,15,,,,,,,,,,,,,,,,15,,67,0
3719,note_on,,0,0,15,,,,,,,,,,,,,,,,15,,60,0
3719,note_on,,119,0,15,,,,,,,,,,,,,,,,15,,52,0
3719,note_on,,119,0,9,,,,,,,,,,,,,,,,7,,60,0
3719,note_on,,119,0,7,,,,,,,,,,,,,,,,5,,79,0
3719,note_on,,119,0,10,,,,,,,,,,,,,,,,8,,52,0
3719,note_on,,119,0,8,,,,,,,,,,,,,,,,6,,67,0
3719,note_on,,119,0,11,,,,,,,,,,,,,,,,10,,84,0
3719,note_on,,119,0,5,,,,,,,,,,,,,,,,1,,79,0
3719,note_on,,119,0,14,,,,,,,,,,,,,,,,13,,52,0
3719,note_on,,119,0,12,,,,,,,,,,,,,,,,11,,79,0
3719,note_on,,119,0,6,,,,,,,,,,,,,,,,2,,52,0
3720,note_on,,1,0,14,,,,,,,,,,,,,,,,13,,55,72
3720,note_on,,1,0,15,,,,,,,,,,,,,,,,15,,55,72
3720,note_on,,1,0,8,,,,,,,,,,,,,,,,6,,67,72
3720,note_on,,0,0,15,,,,,,,,,,,,,,,,15,,59,72
3720,note_on,,1,0,5,,,,,,,,,,,,,,,,1,,74,72
3720,note_on,,1,0,7,,,,,,,,,,,,,,,,5,,74,72
3720,note_on,,1,0,10,,,,,,,,,,,,,,,,8,,55,72
3720,note_on,,1,0,6,,,,,,,,,,,,,,,,2,,55,72
3720,note_on,,0,0,15,,,,,,,,,,,,,,,,15,,67,72
3720,note_on,,0,0,15,,,,,,,,,,,,,,,,15,,74,72
3720,note_on,,1,0,11,,,,,,,,,,,,,,,,10,,83,72
3720,note_on,,1,0,12,,,,,,,,,,,,,,,,11,,74,72
3720,note_on,,1,0,9,,,,,,,,,,,,,,,,7,,59,72
3720,note_on,,1,0,13,,,,,,,,,,,,,,,,12,,67,72
3839,note_on,,119,0,13,,,,,,,,,,,,,,,,12,,67,0
3839,note_on,,119,0,8,,,,,,,,,,,,,,,,6,,67,0
3839,note_on,,119,0,14,,,,,,,,,,,,,,,,13,,55,0
3839,note_on,,119,0,6,,,,,,,,,,,,,,,,2,,55,0
3839,note_on,,119,0,7,,,,,,,,,,,,,,,,5,,74,0
3839,note_on,,0,0,15,,,,,,,,,,,,,,,,15,,59,0
3839,note_on,,0,0,15,,,,,,,,,,,,,,,,15,,67,0
3839,note_on,,0,0,15,,,,,,,,,,,,,,,,15,,74,0
3839,note_on,,119,0,15,,,,,,,,,,,,,,,,15,,55,0
3839,note_on,,119,0,11,,,,,,,,,,,,,,,,10,,83,0
3839,note_on,,119,0,5,,,,,,,,,,,,,,,,1,,74,0
3839,note_on,,119,0,9,,,,,,,,,,,,,,,,7,,59,0
3839,note_on,,119,0,10,,,,,,,,,,,,,,,,8,,55,0
3839,note_on,,119,0,12,,,,,,,,,,,,,,,,11,,74,0
3840,note_on,,1,0,7,,,,,,,,,,,,,,,,5,,76,72
3840,note_on,,1,0,12,,,,,,,,,,,,,,,,11,,76,72
3840,note_on,,1,0,10,,,,,,,,,,,,,,,,8,,60,72
3840,note_on,,1,0,15,,,,,,,,,,,,,,,,15,,67,72
3840,note_on,,1,0,13,,,,,,,,,,,,,,,,12,,67,72
3840,note_on,,0,0,15,,,,,,,,,,,,,,,,15,,64,72
3840,note_on,,0,0,15,,,,,,,,,,,,,,,,15,,60,72
3840,note_on,,1,0,14,,,,,,,,,,,,,,,,13,,60,72
3840,note_on,,1,0,8,,,,,,,,,,,,,,,,6,,67,72
3840,note_on,,1,0,5,,,,,,,,,,,,,,,,1,,76,72
3840,note_on,,1,0,11,,,,,,,,,,,,,,,,10,,84,72
3840,note_on,,1,0,9,,,,,,,,,,,,,,,,7,,60,72
3840,note_on,,1,0,6,,,,,,,,,,,,,,,,2,,60,72
3899,note_on,,59,0,11,,,,,,,,,,,,,,,,10,,84,0
3900,note_on,,1,0,11,,,,,,,,,,,,,,,,10,,72,72
3959,note_on,,119,0,6,,,,,,,,,,,,,,,,2,,60,0
3959,note_on,,119,0,8,,,,,,,,,,,,,,,,6,,67,0
3959,note_on,,119,0,14,,,,,,,,,,,,,,,,13,,60,0
3959,note_on,,119,0,15,,,,,,,,,,,,,,,,15,,67,0
3959,note_on,,0,0,15,,,,,,,,,,,,,,,,15,,60,0
3959,note_on,,0,0,15,,,,,,,,,,,,,,,,15,,64,0
3959,note_on,,119,0,13,,,,,,,,,,,,,,,,12,,67,0
3959,note_on,,119,0,12,,,,,,,,,,,,,,,,11,,76,0
3959,note_on,,59,0,11,,,,,,,,,,,,,,,,10,,72,0
3959,note_on,,119,0,5,,,,,,,,,,,,,,,,1,,76,0
3959,note_on,,119,0,7,,,,,,,,,,,,,,,,5,,76,0
3959,note_on,,119,0,9,,,,,,,,,,,,,,,,7,,60,0
3959,note_on,,119,0,10,,,,,,,,,,,,,,,,8,,60,0
3960,note_on,,1,0,11,,,,,,,,,,,,,,,,10,,76,72
3960,note_on,,1,0,9,,,,,,,,,,,,,,,,7,,64,72
3960,note_on,,1,0,7,,,,,,,,,,,,,,,,5,,72,72
3960,note_on,,1,0,5,,,,,,,,,,,,,,,,1,,72,72
3960,note_on,,1,0,14,,,,,,,,,,,,,,,,13,,48,72
3960,note_on,,1,0,8,,,,,,,,,,,,,,,,6,,67,72
3960,note_on,,0,0,15,,,,,,,,,,,,,,,,15,,76,72
3960,note_on,,1,0,15,,,,,,,,,,,,,,,,15,,48,72
3960,note_on,,1,0,13,,,,,,,,,,,,,,,,12,,67,72
3960,note_on,,0,0,15,,,,,,,,,,,,,,,,15,,72,72
3960,note_on,,0,0,15,,,,,,,,,,,,,,,,15,,67,72
3960,note_on,,1,0,6,,,,,,,,,,,,,,,,2,,48,72
3960,note_on,,0,0,15,,,,,,,,,,,,,,,,15,,60,72
3960,note_on,,1,0,12,,,,,,,,,,,,,,,,11,,72,72
3960,note_on,,1,0,10,,,,,,,,,,,,,,,,8,,48,72
4019,note_on,,59,0,11,,,,,,,,,,,,,,,,10,,76,0
4020,note_on,,1,0,11,,,,,,,,,,,,,,,,10,,79,72
4079,note_on,,119,0,13,,,,,,,,,,,,,,,,12,,67,0
4079,note_on,,59,0,11,,,,,,,,,,,,,,,,10,,79,0
4079,note_on,,119,0,7,,,,,,,,,,,,,,,,5,,72,0
4079,note_on,,119,0,8,,,,,,,,,,,,,,,,6,,67,0
4079,note_on,,119,0,5,,,,,,,,,,,,,,,,1,,72,0
4079,note_on,,0,0,15,,,,,,,,,,,,,,,,15,,72,0
4079,note_on,,119,0,12,,,,,,,,,,,,,,,,11,,72,0
4079,note_on,,0,0,15,,,,,,,,,,,,,,,,15,,76,0
4079,note_on,,119,0,6,,,,,,,,,,,,,,,,2,,48,0
4079,note_on,,119,0,9,,,,,,,,,,,,,,,,7,,64,0
4079,note_on,,0,0,15,,,,,,,,,,,,,,,,15,,67,0
4079,note_on,,0,0,15,,,,,,,,,,,,,,,,15,,60,0
4079,note_on,,119,0,10,,,,,,,,,,,,,,,,8,,48,0
4079,note_on,,119,0,15,,,,,,,,,,,,,,,,15,,48,0
4079,note_on,,119,0,14,,,,,,,,,,,,,,,,13,,48,0
4080,note_on,,1,0,7,,,,,,,,,,,,,,,,5,,79,72
4080,note_on,,1,0,15,,,,,,,,,,,,,,,,15,,52,72
4080,note_on,,0,0,15,,,,,,,,,,,,,,,,15,,60,72
4080,note_on,,0,0,15,,,,,,,,,,,,,,,,15,,79,72
4080,note_on,,1,0,11,,,,,,,,,,,,,,,,10,,84,72
4080,note_on,,0,0,15,,,,,,,,,,,,,,,,15,,72,72
4080,note_on,,1,0,13,,,,,,,,,,,,,,,,12,,67,72
4080,note_on,,1,0,8,,,,,,,,,,,,,,,,6,,67,72
4080,note_on,,1,0,5,,,,,,,,,,,,,,,,1,,79,72
4080,note_on,,1,0,6,,,,,,,,,,,,,,,,2,,52,72
4080,note_on,,1,0,9,,,,,,,,,,,,,,,,7,,60,72
4080,note_on,,1,0,12,,,,,,,,,,,,,,,,11,,79,72
4080,note_on,,1,0,10,,,,,,,,,,,,,,,,8,,52,72
4080,note_on,,1,0,14,,,,,,,,,,,,,,,,13,,52,72
4080,note_on,,0,0,15,,,,,,,,,,,,,,,,15,,67,72
4199,note_on,,119,0,7,,,,,,,,,,,,,,,,5,,79,0
4199,note_on,,119,0,13,,,,,,,,,,,,,,,,12,,67,0
4199,note_on,,119,0,8,,,,,,,,,,,,,,,,6,,67,0
4199,note_on,,119,0,12,,,,,,,,,,,,,,,,11,,79,0
4199,note_on,,119,0,10,,,,,,,,,,,,,,,,8,,52,0
4199,note_on,,119,0,11,,,,,,,,,,,,,,,,10,,84,0
4199,note_on,,0,0,15,,,,,,,,,,,,,,,,15,,60,0
4199,note_on,,119,0,6,,,,,,,,,,,,,,,,2,,52,0
4199,note_on,,119,0,14,,,,,,,,,,,,,,,,13,,52,0
4199,note_on,,119,0,5,,,,,,,,,,,,,,,,1,,79,0
4199,note_on,,119,0,9,,,,,,,,,,,,,,,,7,,60,0
4199,note_on,,119,0,15,,,,,,,,,,,,,,,,15,,52,0
4199,note_on,,0,0,15,,,,,,,,,,,,,,,,15,,67,0
4199,note_on,,0,0,15,,,,,,,,,,,,,,,,15,,79,0
4199,note_on,,0,0,15,,,,,,,,,,,,,,,,15,,72,0
4200,note_on,,1,0,12,,,,,,,,,,,,,,,,11,,74,72
4200,note_on,,1,0,13,,,,,,,,,,,,,,,,12,,67,72
4200,note_on,,1,0,8,,,,,,,,,,,,,,,,6,,67,72
4200,note_on,,1,0,5,,,,,,,,,,,,,,,,1,,74,72
4200,note_on,,0,0,15,,,,,,,,,,,,,,,,15,,62,72
4200,note_on,,1,0,15,,,,,,,,,,,,,,,,15,,55,72
4200,note_on,,1,0,11,,,,,,,,,,,,,,,,10,,83,72
4200,note_on,,1,0,7,,,,,,,,,,,,,,,,5,,74,72
4200,note_on,,1,0,6,,,,,,,,,,,,,,,,2,,55,72
4200,note_on,,1,0,10,,,,,,,,,,,,,,,,8,,55,72
4200,note_on,,0,0,15,,,,,,,,,,,,,,,,15,,67,72
4200,note_on,,0,0,15,,,,,,,,,,,,,,,,15,,71,72
4200,note_on,,0,0,15,,,,,,,,,,,,,,,,15,,74,72
4200,note_on,,1,0,9,,,,,,,,,,,,,,,,7,,59,72
4200,note_on,,1,0,14,,,,,,,,,,,,,,,,13,,55,72
4319,note_on,,119,0,10,,,,,,,,,,,,,,,,8,,55,0
4319,note_on,,119,0,8,,,,,,,,,,,,,,,,6,,67,0
4319,note_on,,119,0,12,,,,,,,,,,,,,,,,11,,74,0
4319,note_on,,119,0,9,,,,,,,,,,,,,,,,7,,59,0
4319,note_on,,119,0,13,,,,,,,,,,,,,,,,12,,67,0
4319,note_on,,119,0,5,,,,,,,,,,,,,,,,1,,74,0
4319,note_on,,119,0,11,,,,,,,,,,,,,,,,10,,83,0
4319,note_on,,119,0,15,,,,,,,,,,,,,,,,15,,55,0
4319,note_on,,0,0,15,,,,,,,,,,,,,,,,15,,62,0
4319,note_on,,119,0,6,,,,,,,,,,,,,,,,2,,55,0
4319,note_on,,0,0,15,,,,,,,,,,,,,,,,15,,74,0
4319,note_on,,119,0,14,,,,,,,,,,,,,,,,13,,55,0
4319,note_on,,119,0,7,,,,,,,,,,,,,,,,5,,74,0
4319,note_on,,0,0,15,,,,,,,,,,,,,,,,15,,67,0
4319,note_on,,0,0,15,,,,,,,,,,,,,,,,15,,71,0
4320,note_on,,1,0,7,,,,,,,,,,,,,,,,5,,76,72
4320,note_on,,1,0,6,,,,,,,,,,,,,,,,2,,60,72
4320,note_on,,1,0,5,,,,,,,,,,,,,,,,1,,76,72
4320,note_on,,1,0,12,,,,,,,,,,,,,,,,11,,76,72
4320,note_on,,1,0,11,,,,,,,,,,,,,,,,10,,84,72
4320,note_on,,0,0,15,,,,,,,,,,,,,,,,15,,72,72
4320,note_on,,1,0,9,,,,,,,,,,,,,,,,7,,60,72
4320,note_on,,0,0,15,,,,,,,,,,,,,,,,15,,76,72
4320,note_on,,1,0,15,,,,,,,,,,,,,,,,15,,60,72
4320,note_on,,1,0,8,,,,,,,,,,,,,,,,6,,67,72
4320,note_on,,1,0,10,,,,,,,,,,,,,,,,8,,60,72
4320,note_on,,1,0,13,,,,,,,,,,,,,,,,12,,67,72
4320,note_on,,1,0,14,,,,,,,,,,,,,,,,13,,60,72
4320,note_on,,0,0,15,,,,,,,,,,,,,,,,15,,67,72
4379,note_on,,59,0,11,,,,,,,,,,,,,,,,10,,84,0
4380,note_on,,1,0,11,,,,,,,,,,,,,,,,10,,72,72
4439,note_on,,119,0,5,,,,,,,,,,,,,,,,1,,76,0
4439,note_on,,119,0,6,,,,,,,,,,,,,,,,2,,60,0
4439,note_on,,119,0,13,,,,,,,,,,,,,,,,12,,67,0
4439,note_on,,119,0,9,,,,,,,,,,,,,,,,7,,60,0
4439,note_on,,119,0,10,,,,,,,,,,,,,,,,8,,60,0
4439,note_on,,0,0,15,,,,,,,,,,,,,,,,15,,76,0
4439,note_on,,119,0,7,,,,,,,,,,,,,,,,5,,76,0
4439,note_on,,119,0,12,,,,,,,,,,,,,,,,11,,76,0
4439,note_on,,119,0,14,,,,,,,,,,,,,,,,13,,60,0
4439,note_on,,0,0,15,,,,,,,,,,,,,,,,15,,72,0
4439,note_on,,119,0,15,,,,,,,,,,,,,,,,15,,60,0
4439,note_on,,59,0,11,,,,,,,,,,,,,,,,10,,72,0
4439,note_on,,0,0,15,,,,,,,,,,,,,,,,15,,67,0
4439,note_on,,119,0,8,,,,,,,,,,,,,,,,6,,67,0
4440,note_on,,1,0,11,,,,,,,,,,,,,,,,10,,76,72
4499,note_on,,59,0,11,,,,,,,,,,,,,,,,10,,76,0
4500,note_on,,61,0,13,,,,,,,,,,,,,,,,12,,67,72
4500,note_on,,61,0,15,,,,,,,,,,,,,,,,15,,60,72
4500,note_on,,61,0,8,,,,,,,,,,,,,,,,6,,67,72
4500,note_on,,61,0,7,,,,,,,,,,,,,,,,5,,76,72
4500,note_on,,61,0,14,,,,,,,,,,,,,,,,13,,60,72
4500,note_on,,1,0,11,,,,,,,,,,,,,,,,10,,72,72
4500,note_on,,0,0,15,,,,,,,,,,,,,,,,15,,67,72
4500,note_on,,61,0,10,,,,,,,,,,,,,,,,8,,60,72
4500,note_on,,0,0,15,,,,,,,,,,,,,,,,15,,64,72
4500,note_on,,61,0,5,,,,,,,,,,,,,,,,1,,76,72
4500,note_on,,61,0,12,,,,,,,,,,,,,,,,11,,76,72
4500,note_on,,61,0,9,,,,,,,,,,,,,,,,7,,60,72
4500,note_on,,61,0,6,,,,,,,,,,,,,,,,2,,60,72
4500,note_on,,0,0,15,,,,,,,,,,,,,,,,15,,76,72
4500,note_on,,0,0,15,,,,,,,,,,,,,,,,15,,72,72
4559,note_on,,59,0,13,,,,,,,,,,,,,,,,12,,67,0
4559,note_on,,59,0,15,,,,,,,,,,,,,,,,15,,60,0
4559,note_on,,0,0,15,,,,,,,,,,,,,,,,15,,76,0
4559,note_on,,59,0,7,,,,,,,,,,,,,,,,5,,76,0
4559,note_on,,59,0,14,,,,,,,,,,,,,,,,13,,60,0
4559,note_on,,59,0,6,,,,,,,,,,,,,,,,2,,60,0
4559,note_on,,59,0,5,,,,,,,,,,,,,,,,1,,76,0
4559,note_on,,59,0,10,,,,,,,,,,,,,,,,8,,60,0
4559,note_on,,59,0,8,,,,,,,,,,,,,,,,6,,67,0
4559,note_on,,59,0,9,,,,,,,,,,,,,,,,7,,60,0
4559,note_on,,0,0,15,,,,,,,,,,,,,,,,15,,67,0
4559,note_on,,0,0,15,,,,,,,,,,,,,,,,15,,64,0
4559,note_on,,59,0,11,,,,,,,,,,,,,,,,10,,72,0
4559,note_on,,0,0,15,,,,,,,,,,,,,,,,15,,72,0
4559,note_on,,59,0,12,,,,,,,,,,,,,,,,11,,76,0
4560,note_on,,1,0,11,,,,,,,,,,,,,,,,10,,79,72
4560,note_on,,1,0,9,,,,,,,,,,,,,,,,7,,62,72
4560,note_on,,1,0,10,,,,,,,,,,,,,,,,8,,59,72
4560,note_on,,1,0,7,,,,,,,,,,,,,,,,5,,74,72
4560,note_on,,1,0,14,,,,,,,,,,,,,,,,13,,59,72
4560,note_on,,1,0,8,,,,,,,,,,,,,,,,6,,67,72
4560,note_on,,1,0,15,,,,,,,,,,,,,,,,15,,59,72
4560,note_on,,0,0,15,,,,,,,,,,,,,,,,15,,79,72
4560,note_on,,0,0,15,,,,,,,,,,,,,,,,15,,74,72
4560,note_on,,0,0,15,,,,,,,,,,,,,,,,15,,67,72
4560,note_on,,1,0,6,,,,,,,,,,,,,,,,2,,59,72
4560,note_on,,1,0,5,,,,,,,,,,,,,,,,1,,74,72
4560,note_on,,0,0,15,,,,,,,,,,,,,,,,15,,62,72
4560,note_on,,1,0,12,,,,,,,,,,,,,,,,11,,74,72
4560,note_on,,1,0,13,,,,,,,,,,,,,,,,12,,67,72
4619,note_on,,59,0,11,,,,,,,,,,,,,,,,10,,79,0
4620,note_on,,1,0,11,,,,,,,,,,,,,,,,10,,74,72
4679,note_on,,119,0,7,,,,,,,,,,,,,,,,5,,74,0
4679,note_on,,119,0,9,,,,,,,,,,,,,,,,7,,62,0
4679,note_on,,119,0,10,,,,,,,,,,,,,,,,8,,59,0
4679,note_on,,119,0,14,,,,,,,,,,,,,,,,13,,59,0
4679,note_on,,119,0,6,,,,,,,,,,,,,,,,2,,59,0
4679,note_on,,0,0,15,,,,,,,,,,,,,,,,15,,74,0
4679,note_on,,0,0,15,,,,,,,,,,,,,,,,15,,79,0
4679,note_on,,119,0,15,,,,,,,,,,,,,,,,15,,59,0
4679,note_on,,59,0,11,,,,,,,,,,,,,,,,10,,74,0
4679,note_on,,0,0,15,,,,,,,,,,,,,,,,15,,67,0
4679,note_on,,119,0,5,,,,,,,,,,,,,,,,1,,74,0
4679,note_on,,0,0,15,,,,,,,,,,,,,,,,15,,62,0
4679,note_on,,119,0,12,,,,,,,,,,,,,,,,11,,74,0
4680,note_on,,0,0,15,,,,,,,,,,,,,,,,15,,72,72
4680,note_on,,1,0,7,,,,,,,,,,,,,,,,5,,72,72
4680,note_on,,1,0,9,,,,,,,,,,,,,,,,7,,64,72
4680,note_on,,1,0,10,,,,,,,,,,,,,,,,8,,57,72
4680,note_on,,1,0,14,,,,,,,,,,,,,,,,13,,57,72
4680,note_on,,1,0,15,,,,,,,,,,,,,,,,15,,57,72
4680,note_on,,1,0,6,,,,,,,,,,,,,,,,2,,57,72
4680,note_on,,1,0,11,,,,,,,,,,,,,,,,10,,76,72
4680,note_on,,0,0,15,,,,,,,,,,,,,,,,15,,67,72
4680,note_on,,0,0,15,,,,,,,,,,,,,,,,15,,60,72
4680,note_on,,0,0,15,,,,,,,,,,,,,,,,15,,69,72
4680,note_on,,1,0,12,,,,,,,,,,,,,,,,11,,72,72
4680,note_on,,1,0,5,,,,,,,,,,,,,,,,1,,72,72
4739,note_on,,179,0,13,,,,,,,,,,,,,,,,12,,67,0
4739,note_on,,179,0,8,,,,,,,,,,,,,,,,6,,67,0
4739,note_on,,59,0,11,,,,,,,,,,,,,,,,10,,76,0
4739,note_on,,59,0,15,,,,,,,,,,,,,,,,15,,67,0
4739,note_on,,59,0,9,,,,,,,,,,,,,,,,7,,64,0
4740,note_on,,1,0,9,,,,,,,,,,,,,,,,7,,60,72
4740,note_on,,1,0,8,,,,,,,,,,,,,,,,6,,66,72
4740,note_on,,1,0,13,,,,,,,,,,,,,,,,12,,66,72
4740,note_on,,1,0,11,,,,,,,,,,,,,,,,10,,78,72
4740,note_on,,1,0,15,,,,,,,,,,,,,,,,15,,66,72
4799,note_on,,119,0,14,,,,,,,,,,,,,,,,13,,57,0
4799,note_on,,59,0,9,,,,,,,,,,,,,,,,7,,60,0
4799,note_on,,0,0,15,,,,,,,,,,,,,,,,15,,60,0
4799,note_on,,0,0,15,,,,,,,,,,,,,,,,15,,66,0
4799,note_on,,119,0,5,,,,,,,,,,,,,,,,1,,72,0
4799,note_on,,0,0,15,,,,,,,,,,,,,,,,15,,72,0
4799,note_on,,119,0,6,,,,,,,,,,,,,,,,2,,57,0
4799,note_on,,119,0,12,,,,,,,,,,,,,,,,11,,72,0
4799,note_on,,119,0,7,,,,,,,,,,,,,,,,5,,72,0
4799,note_on,,0,0,15,,,,,,,,,,,,,,,,15,,69,0
4799,note_on,,119,0,10,,,,,,,,,,,,,,,,8,,57,0
4799,note_on,,59,0,8,,,,,,,,,,,,,,,,6,,66,0
4799,note_on,,59,0,11,,,,,,,,,,,,,,,,10,,78,0
4799,note_on,,59,0,15,,,,,,,,,,,,,,,,15,,57,0
4799,note_on,,59,0,13,,,,,,,,,,,,,,,,12,,66,0
4800,note_on,,1,0,9,,,,,,,,,,,,,,,,7,,62,72
4800,note_on,,0,0,15,,,,,,,,,,,,,,,,15,,59,72
4800,note_on,,1,0,10,,,,,,,,,,,,,,,,8,,55,72
4800,note_on,,1,0,8,,,,,,,,,,,,,,,,6,,67,72
4800,note_on,,0,0,15,,,,,,,,,,,,,,,,15,,67,72
4800,note_on,,1,0,5,,,,,,,,,,,,,,,,1,,71,72
4800,note_on,,0,0,15,,,,,,,,,,,,,,,,15,,74,72
4800,note_on,,1,0,11,,,,,,,,,,,,,,,,10,,79,72
4800,note_on,,0,0,15,,,,,,,,,,,,,,,,15,,71,72
4800,note_on,,1,0,13,,,,,,,,,,,,,,,,12,,74,72
4800,note_on,,1,0,6,,,,,,,,,,,,,,,,2,,55,72
4800,note_on,,1,0,7,,,,,,,,,,,,,,,,5,,71,72
4800,note_on,,1,0,12,,,,,,,,,,,,,,,,11,,71,72
4800,note_on,,1,0,14,,,,,,,,,,,,,,,,13,,55,72
4800,note_on,,1,0,15,,,,,,,,,,,,,,,,15,,55,72
4859,note_on,,59,0,11,,,,,,,,,,,,,,,,10,,79,0
4860,note_on,,1,0,11,,,,,,,,,,,,,,,,10,,74,72
4919,note_on,,0,0,15,,,,,,,,,,,,,,,,15,,71,0
4919,note_on,,119,0,6,,,,,,,,,,,,,,,,2,,55,0
4919,note_on,,119,0,10,,,,,,,,,,,,,,,,8,,55,0
4919,note_on,,0,0,15,,,,,,,,,,,,,,,,15,,74,0
4919,note_on,,119,0,13,,,,,,,,,,,,,,,,12,,74,0
4919,note_on,,119,0,7,,,,,,,,,,,,,,,,5,,71,0
4919,note_on,,0,0,15,,,,,,,,,,,,,,,,15,,67,0
4919,note_on,,0,0,15,,,,,,,,,,,,,,,,15,,59,0
4919,note_on,,119,0,12,,,,,,,,,,,,,,,,11,,71,0
4919,note_on,,119,0,8,,,,,,,,,,,,,,,,6,,67,0
4919,note_on,,119,0,9,,,,,,,,,,,,,,,,7,,62,0
4919,note_on,,119,0,5,,,,,,,,,,,,,,,,1,,71,0
4919,note_on,,119,0,15,,,,,,,,,,,,,,,,15,,55,0
4919,note_on,,59,0,11,,,,,,,,,,,,,,,,10,,74,0
4919,note_on,,119,0,14,,,,,,,,,,,,,,,,13,,55,0
4920,note_on,,1,0,9,,,,,,,,,,,,,,,,7,,64,72
4920,note_on,,1,0,5,,,,,,,,,,,,,,,,1,,76,72
4920,note_on,,1,0,8,,,,,,,,,,,,,,,,6,,67,72
4920,note_on,,1,0,13,,,,,,,,,,,,,,,,12,,72,72
4920,note_on,,1,0,11,,,,,,,,,,,,,,,,10,,76,72
4920,note_on,,1,0,15,,,,,,,,,,,,,,,,15,,60,72
4920,note_on,,1,0,14,,,,,,,,,,,,,,,,13,,60,72
4920,note_on,,1,0,6,,,,,,,,,,,,,,,,2,,60,72
4920,note_on,,0,0,15,,,,,,,,,,,,,,,,15,,72,72
4920,note_on,,0,0,15,,,,,,,,,,,,,,,,15,,64,72
4920,note_on,,1,0,10,,,,,,,,,,,,,,,,8,,60,72
4920,note_on,,0,0,15,,,,,,,,,,,,,,,,15,,67,72
4920,note_on,,1,0,12,,,,,,,,,,,,,,,,11,,67,72
4920,note_on,,1,0,7,,,,,,,,,,,,,,,,5,,76,72
4979,note_on,,59,0,11,,,,,,,,,,,,,,,,10,,76,0
4979,note_on,,59,0,9,,,,,,,,,,,,,,,,7,,64,0
4979,note_on,,59,0,15,,,,,,,,,,,,,,,,15,,60,0
4979,note_on,,59,0,8,,,,,,,,,,,,,,,,6,,67,0
4979,note_on,,0,0,15,,,,,,,,,,,,,,,,15,,64,0
4979,note_on,,59,0,14,,,,,,,,,,,,,,,,13,,60,0
4979,note_on,,59,0,7,,,,,,,,,,,,,,,,5,,76,0
4979,note_on,,0,0,15,,,,,,,,,,,,,,,,15,,67,0
4979,note_on,,59,0,10,,,,,,,,,,,,,,,,8,,60,0
4979,note_on,,0,0,15,,,,,,,,,,,,,,,,15,,72,0
4979,note_on,,59,0,6,,,,,,,,,,,,,,,,2,,60,0
4979,note_on,,59,0,5,,,,,,,,,,,,,,,,1,,76,0
4980,note_on,,1,0,15,,,,,,,,,,,,,,,,15,,60,72
4980,note_on,,1,0,5,,,,,,,,,,,,,,,,1,,76,72
4980,note_on,,0,0,15,,,,,,,,,,,,,,,,15,,72,72
4980,note_on,,1,0,6,,,,,,,,,,,,,,,,2,,60,72
4980,note_on,,0,0,15,,,,,,,,,,,,,,,,15,,64,72
4980,note_on,,1,0,9,,,,,,,,,,,,,,,,7,,60,72
4980,note_on,,1,0,8,,,,,,,,,,,,,,,,6,,67,72
4980,note_on,,1,0,14,,,,,,,,,,,,,,,,13,,60,72
4980,note_on,,1,0,7,,,,,,,,,,,,,,,,5,,76,72
4980,note_on,,1,0,10,,,,,,,,,,,,,,,,8,,60,72
4980,note_on,,0,0,15,,,,,,,,,,,,,,,,15,,67,72
4980,note_on,,1,0,11,,,,,,,,,,,,,,,,10,,78,72
5039,note_on,,59,0,10,,,,,,,,,,,,,,,,8,,60,0
5039,note_on,,59,0,9,,,,,,,,,,,,,,,,7,,60,0
5039,note_on,,59,0,8,,,,,,,,,,,,,,,,6,,67,0
5039,note_on,,119,0,13,,,,,,,,,,,,,,,,12,,72,0
5039,note_on,,59,0,7,,,,,,,,,,,,,,,,5,,76,0
5039,note_on,,59,0,6,,,,,,,,,,,,,,,,2,,60,0
5039,note_on,,119,0,12,,,,,,,,,,,,,,,,11,,67,0
5039,note_on,,59,0,14,,,,,,,,,,,,,,,,13,,60,0
5039,note_on,,59,0,11,,,,,,,,,,,,,,,,10,,78,0
5039,note_on,,59,0,5,,,,,,,,,,,,,,,,1,,76,0
5039,note_on,,59,0,15,,,,,,,,,,,,,,,,15,,60,0
5039,note_on,,0,0,15,,,,,,,,,,,,,,,,15,,72,0
5039,note_on,,0,0,15,,,,,,,,,,,,,,,,15,,67,0
5039,note_on,,0,0,15,,,,,,,,,,,,,,,,15,,64,0
5040,note_on,,1,0,8,,,,,,,,,,,,,,,,6,,67,72
5040,note_on,,1,0,14,,,,,,,,,,,,,,,,13,,59,72
5040,note_on,,0,0,15,,,,,,,,,,,,,,,,15,,62,72
5040,note_on,,0,0,15,,,,,,,,,,,,,,,,15,,67,72
5040,note_on,,0,0,15,,,,,,,,,,,,,,,,15,,74,72
5040,note_on,,1,0,5,,,,,,,,,,,,,,,,1,,74,72
5040,note_on,,1,0,7,,,,,,,,,,,,,,,,5,,74,72
5040,note_on,,1,0,9,,,,,,,,,,,,,,,,7,,62,72
5040,note_on,,1,0,15,,,,,,,,,,,,,,,,15,,59,72
5040,note_on,,1,0,12,,,,,,,,,,,,,,,,11,,74,72
5040,note_on,,1,0,6,,,,,,,,,,,,,,,,2,,59,72
5040,note_on,,1,0,10,,,,,,,,,,,,,,,,8,,59,72
5040,note_on,,1,0,13,,,,,,,,,,,,,,,,12,,67,72
5040,note_on,,1,0,11,,,,,,,,,,,,,,,,10,,79,72
5099,note_on,,59,0,11,,,,,,,,,,,,,,,,10,,79,0
5100,note_on,,1,0,11,,,,,,,,,,,,,,,,10,,74,72
5159,note_on,,59,0,11,,,,,,,,,,,,,,,,10,,74,0
5159,note_on,,119,0,6,,,,,,,,,,,,,,,,2,,59,0
5159,note_on,,119,0,10,,,,,,,,,,,,,,,,8,,59,0
5159,note_on,,119,0,12,,,,,,,,,,,,,,,,11,,74,0
5159,note_on,,0,0,15,,,,,,,,,,,,,,,,15,,62,0
5159,note_on,,119,0,9,,,,,,,,,,,,,,,,7,,62,0
5159,note_on,,119,0,5,,,,,,,,,,,,,,,,1,,74,0
5159,note_on,,0,0,15,,,,,,,,,,,,,,,,15,,74,0
5159,note_on,,119,0,7,,,,,,,,,,,,,,,,5,,74,0
5159,note_on,,119,0,14,,,,,,,,,,,,,,,,13,,59,0
5159,note_on,,119,0,15,,,,,,,,,,,,,,,,15,,59,0
5159,note_on,,0,0,15,,,,,,,,,,,,,,,,15,,67,0
5160,note_on,,0,0,15,,,,,,,,,,,,,,,,15,,69,72
5160,note_on,,1,0,11,,,,,,,,,,,,,,,,10,,76,72
5160,note_on,,1,0,9,,,,,,,,,,,,,,,,7,,64,72
5160,note_on,,0,0,15,,,,,,,,,,,,,,,,15,,60,72
5160,note_on,,1,0,14,,,,,,,,,,,,,,,,13,,57,72
5160,note_on,,1,0,10,,,,,,,,,,,,,,,,8,,57,72
5160,note_on,,0,0,15,,,,,,,,,,,,,,,,15,,72,72
5160,note_on,,0,0,15,,,,,,,,,,,,,,,,15,,81,72
5160,note_on,,1,0,15,,,,,,,,,,,,,,,,15,,57,72
5160,note_on,,1,0,5,,,,,,,,,,,,,,,,1,,72,72
5160,note_on,,1,0,12,,,,,,,,,,,,,,,,11,,72,72
5160,note_on,,1,0,6,,,,,,,,,,,,,,,,2,,57,72
5160,note_on,,1,0,7,,,,,,,,,,,,,,,,5,,72,72
5219,note_on,,179,0,13,,,,,,,,,,,,,,,,12,,67,0
5219,note_on,,179,0,8,,,,,,,,,,,,,,,,6,,67,0
5219,note_on,,59,0,11,,,,,,,,,,,,,,,,10,,76,0
5219,note_on,,59,0,9,,,,,,,,,,,,,,,,7,,64,0
5220,note_on,,1,0,11,,,,,,,,,,,,,,,,10,,78,72
5220,note_on,,1,0,9,,,,,,,,,,,,,,,,7,,60,72
5220,note_on,,1,0,8,,,,,,,,,,,,,,,,6,,66,72
5220,note_on,,1,0,13,,,,,,,,,,,,,,,,12,,66,72
5279,note_on,,119,0,10,,,,,,,,,,,,,,,,8,,57,0
5279,note_on,,0,0,15,,,,,,,,,,,,,,,,15,,72,0
5279,note_on,,0,0,15,,,,,,,,,,,,,,,,15,,69,0
5279,note_on,,0,0,15,,,,,,,,,,,,,,,,15,,60,0
5279,note_on,,59,0,9,,,,,,,,,,,,,,,,7,,60,0
5279,note_on,,119,0,6,,,,,,,,,,,,,,,,2,,57,0
5279,note_on,,119,0,7,,,,,,,,,,,,,,,,5,,72,0
5279,note_on,,59,0,13,,,,,,,,,,,,,,,,12,,66,0
5279,note_on,,119,0,15,,,,,,,,,,,,,,,,15,,57,0
5279,note_on,,0,0,15,,,,,,,,,,,,,,,,15,,81,0
5279,note_on,,59,0,8,,,,,,,,,,,,,,,,6,,66,0
5279,note_on,,119,0,14,,,,,,,,,,,,,,,,13,,57,0
5279,note_on,,119,0,5,,,,,,,,,,,,,,,,1,,72,0
5279,note_on,,59,0,11,,,,,,,,,,,,,,,,10,,78,0
5279,note_on,,119,0,12,,,,,,,,,,,,,,,,11,,72,0
5280,note_on,,1,0,14,,,,,,,,,,,,,,,,13,,55,72
5280,note_on,,1,0,5,,,,,,,,,,,,,,,,1,,71,72
5280,note_on,,1,0,11,,,,,,,,,,,,,,,,10,,79,72
5280,note_on,,1,0,12,,,,,,,,,,,,,,,,11,,71,72
5280,note_on,,1,0,10,,,,,,,,,,,,,,,,8,,55,72
5280,note_on,,1,0,7,,,,,,,,,,,,,,,,5,,71,72
5280,note_on,,1,0,6,,,,,,,,,,,,,,,,2,,55,72
5280,note_on,,1,0,15,,,,,,,,,,,,,,,,15,,55,72
5280,note_on,,0,0,15,,,,,,,,,,,,,,,,15,,74,72
5280,note_on,,0,0,15,,,,,,,,,,,,,,,,15,,71,72
5280,note_on,,0,0,15,,,,,,,,,,,,,,,,15,,62,72
5280,note_on,,1,0,13,,,,,,,,,,,,,,,,12,,74,72
5280,note_on,,1,0,8,,,,,,,,,,,,,,,,6,,67,72
5280,note_on,,1,0,9,,,,,,,,,,,,,,,,7,,62,72
5339,note_on,,59,0,11,,,,,,,,,,,,,,,,10,,79,0
5340,note_on,,1,0,11,,,,,,,,,,,,,,,,10,,79,72
5399,note_on,,119,0,7,,,,,,,,,,,,,,,,5,,71,0
5399,note_on,,0,0,15,,,,,,,,,,,,,,,,15,,62,0
5399,note_on,,0,0,15,,,,,,,,,,,,,,,,15,,71,0
5399,note_on,,0,0,15,,,,,,,,,,,,,,,,15,,74,0
5399,note_on,,119,0,15,,,,,,,,,,,,,,,,15,,55,0
5399,note_on,,59,0,11,,,,,,,,,,,,,,,,10,,79,0
5399,note_on,,119,0,5,,,,,,,,,,,,,,,,1,,71,0
5399,note_on,,119,0,14,,,,,,,,,,,,,,,,13,,55,0
5399,note_on,,119,0,8,,,,,,,,,,,,,,,,6,,67,0
5399,note_on,,119,0,9,,,,,,,,,,,,,,,,7,,62,0
5399,note_on,,119,0,6,,,,,,,,,,,,,,,,2,,55,0
5399,note_on,,119,0,10,,,,,,,,,,,,,,,,8,,55,0
5400,note_on,,1,0,15,,,,,,,,,,,,,,,,15,,67,72
5400,note_on,,1,0,9,,,,,,,,,,,,,,,,7,,62,72
5400,note_on,,1,0,10,,,,,,,,,,,,,,,,8,,53,72
5400,note_on,,1,0,8,,,,,,,,,,,,,,,,6,,67,72
5400,note_on,,1,0,11,,,,,,,,,,,,,,,,10,,81,72
5400,note_on,,1,0,14,,,,,,,,,,,,,,,,13,,53,72
5400,note_on,,0,0,15,,,,,,,,,,,,,,,,15,,53,72
5400,note_on,,1,0,7,,,,,,,,,,,,,,,,5,,71,72
5400,note_on,,0,0,15,,,,,,,,,,,,,,,,15,,71,72
5400,note_on,,1,0,5,,,,,,,,,,,,,,,,1,,71,72
5400,note_on,,0,0,15,,,,,,,,,,,,,,,,15,,62,72
5400,note_on,,0,0,15,,,,,,,,,,,,,,,,15,,55,72
5400,note_on,,1,0,6,,,,,,,,,,,,,,,,2,,53,72
5459,note_on,,179,0,13,,,,,,,,,,,,,,,,12,,74,0
5459,note_on,,179,0,12,,,,,,,,,,,,,,,,11,,71,0
5459,note_on,,59,0,11,,,,,,,,,,,,,,,,10,,81,0
5460,note_on,,1,0,13,,,,,,,,,,,,,,,,12,,74,72
5460,note_on,,1,0,12,,,,,,,,,,,,,,,,11,,79,72
5460,note_on,,1,0,11,,,,,,,,,,,,,,,,10,,83,72
5519,note_on,,119,0,14,,,,,,,,,,,,,,,,13,,53,0
5519,note_on,,119,0,9,,,,,,,,,,,,,,,,7,,62,0
5519,note_on,,0,0,15,,,,,,,,,,,,,,,,15,,55,0
5519,note_on,,119,0,6,,,,,,,,,,,,,,,,2,,53,0
5519,note_on,,119,0,10,,,,,,,,,,,,,,,,8,,53,0
5519,note_on,,59,0,12,,,,,,,,,,,,,,,,11,,79,0
5519,note_on,,119,0,5,,,,,,,,,,,,,,,,1,,71,0
5519,note_on,,59,0,11,,,,,,,,,,,,,,,,10,,83,0
5519,note_on,,0,0,15,,,,,,,,,,,,,,,,15,,71,0
5519,note_on,,0,0,15,,,,,,,,,,,,,,,,15,,53,0
5519,note_on,,119,0,15,,,,,,,,,,,,,,,,15,,67,0
5519,note_on,,119,0,8,,,,,,,,,,,,,,,,6,,67,0
5519,note_on,,119,0,7,,,,,,,,,,,,,,,,5,,71,0
5519,note_on,,0,0,15,,,,,,,,,,,,,,,,15,,62,0
5519,note_on,,59,0,13,,,,,,,,,,,,,,,,12,,74,0
5520,note_on,,1,0,15,,,,,,,,,,,,,,,,15,,52,72
5520,note_on,,1,0,8,,,,,,,,,,,,,,,,6,,67,72
5520,note_on,,1,0,13,,,,,,,,,,,,,,,,12,,72,72
5520,note_on,,1,0,12,,,,,,,,,,,,,,,,11,,79,72
5520,note_on,,1,0,5,,,,,,,,,,,,,,,,1,,72,72
5520,note_on,,0,0,15,,,,,,,,,,,,,,,,15,,64,72
5520,note_on,,0,0,15,,,,,,,,,,,,,,,,15,,55,72
5520,note_on,,1,0,6,,,,,,,,,,,,,,,,2,,52,72
5520,note_on,,1,0,14,,,,,,,,,,,,,,,,13,,52,72
5520,note_on,,1,0,7,,,,,,,,,,,,,,,,5,,72,72
5520,note_on,,1,0,9,,,,,,,,,,,,,,,,7,,60,72
5520,note_on,,0,0,15,,,,,,,,,,,,,,,,15,,74,72
5520,note_on,,0,0,15,,,,,,,,,,,,,,,,15,,67,72
5520,note_on,,1,0,11,,,,,,,,,,,,,,,,10,,84,72
5520,note_on,,1,0,10,,,,,,,,,,,,,,,,8,,52,72
5579,note_on,,59,0,5,,,,,,,,,,,,,,,,1,,72,0
5579,note_on,,59,0,11,,,,,,,,,,,,,,,,10,,84,0
5579,note_on,,59,0,7,,,,,,,,,,,,,,,,5,,72,0
5580,note_on,,1,0,7,,,,,,,,,,,,,,,,5,,67,72
5580,note_on,,1,0,5,,,,,,,,,,,,,,,,1,,67,72
5580,note_on,,1,0,11,,,,,,,,,,,,,,,,10,,79,72
5639,note_on,,0,0,15,,,,,,,,,,,,,,,,15,,64,0
5639,note_on,,0,0,15,,,,,,,,,,,,,,,,15,,67,0
5639,note_on,,119,0,14,,,,,,,,,,,,,,,,13,,52,0
5639,note_on,,119,0,13,,,,,,,,,,,,,,,,12,,72,0
5639,note_on,,59,0,7,,,,,,,,,,,,,,,,5,,67,0
5639,note_on,,119,0,9,,,,,,,,,,,,,,,,7,,60,0
5639,note_on,,0,0,15,,,,,,,,,,,,,,,,15,,55,0
5639,note_on,,119,0,12,,,,,,,,,,,,,,,,11,,79,0
5639,note_on,,0,0,15,,,,,,,,,,,,,,,,15,,74,0
5639,note_on,,119,0,8,,,,,,,,,,,,,,,,6,,67,0
5639,note_on,,119,0,6,,,,,,,,,,,,,,,,2,,52,0
5639,note_on,,119,0,10,,,,,,,,,,,,,,,,8,,52,0
5639,note_on,,59,0,5,,,,,,,,,,,,,,,,1,,67,0
5639,note_on,,119,0,15,,,,,,,,,,,,,,,,15,,52,0
5639,note_on,,59,0,11,,,,,,,,,,,,,,,,10,,79,0
5640,note_on,,1,0,11,,,,,,,,,,,,,,,,10,,81,72
5640,note_on,,1,0,6,,,,,,,,,,,,,,,,2,,50,72
5640,note_on,,1,0,10,,,,,,,,,,,,,,,,8,,50,72
5640,note_on,,1,0,7,,,,,,,,,,,,,,,,5,,69,72
5640,note_on,,1,0,5,,,,,,,,,,,,,,,,1,,69,72
5640,note_on,,1,0,13,,,,,,,,,,,,,,,,12,,65,72
5640,note_on,,1,0,14,,,,,,,,,,,,,,,,13,,50,72
5640,note_on,,1,0,9,,,,,,,,,,,,,,,,7,,53,72
5640,note_on,,0,0,15,,,,,,,,,,,,,,,,15,,65,72
5640,note_on,,1,0,8,,,,,,,,,,,,,,,,6,,65,72
5640,note_on,,1,0,12,,,,,,,,,,,,,,,,11,,77,72
5640,note_on,,1,0,15,,,,,,,,,,,,,,,,15,,50,72
5640,note_on,,0,0,15,,,,,,,,,,,,,,,,15,,53,72
5640,note_on,,0,0,15,,,,,,,,,,,,,,,,15,,74,72
5640,note_on,,0,0,15,,,,,,,,,,,,,,,,15,,71,72
5699,note_on,,59,0,7,,,,,,,,,,,,,,,,5,,69,0
5699,note_on,,59,0,11,,,,,,,,,,,,,,,,10,,81,0
5699,note_on,,59,0,5,,,,,,,,,,,,,,,,1,,69,0
5700,note_on,,1,0,11,,,,,,,,,,,,,,,,10,,83,72
5700,note_on,,1,0,5,,,,,,,,,,,,,,,,1,,71,72
5700,note_on,,1,0,7,,,,,,,,,,,,,,,,5,,71,72
5759,note_on,,119,0,6,,,,,,,,,,,,,,,,2,,50,0
5759,note_on,,119,0,8,,,,,,,,,,,,,,,,6,,65,0
5759,note_on,,59,0,11,,,,,,,,,,,,,,,,10,,83,0
5759,note_on,,119,0,12,,,,,,,,,,,,,,,,11,,77,0
5759,note_on,,59,0,5,,,,,,,,,,,,,,,,1,,71,0
5759,note_on,,0,0,15,,,,,,,,,,,,,,,,15,,53,0
5759,note_on,,59,0,7,,,,,,,,,,,,,,,,5,,71,0
5759,note_on,,119,0,10,,,,,,,,,,,,,,,,8,,50,0
5759,note_on,,0,0,15,,,,,,,,,,,,,,,,15,,74,0
5759,note_on,,0,0,15,,,,,,,,,,,,,,,,15,,65,0
5759,note_on,,119,0,15,,,,,,,,,,,,,,,,15,,50,0
5759,note_on,,119,0,13,,,,,,,,,,,,,,,,12,,65,0
5759,note_on,,119,0,9,,,,,,,,,,,,,,,,7,,53,0
5759,note_on,,119,0,14,,,,,,,,,,,,,,,,13,,50,0
5759,note_on,,0,0,15,,,,,,,,,,,,,,,,15,,71,0
5760,note_on,,1,0,14,,,,,,,,,,,,,,,,13,,48,72
5760,note_on,,1,0,11,,,,,,,,,,,,,,,,10,,84,72
5760,note_on,,1,0,5,,,,,,,,,,,,,,,,1,,72,72
5760,note_on,,1,0,13,,,,,,,,,,,,,,,,12,,67,72
5760,note_on,,1,0,9,,,,,,,,,,,,,,,,7,,55,72
5760,note_on,,1,0,7,,,,,,,,,,,,,,,,5,,72,72
5760,note_on,,1,0,10,,,,,,,,,,,,,,,,8,,48,72
5760,note_on,,0,0,15,,,,,,,,,,,,,,,,15,,72,72
5760,note_on,,0,0,15,,,,,,,,,,,,,,,,15,,67,72
5760,note_on,,1,0,8,,,,,,,,,,,,,,,,6,,64,72
5760,note_on,,0,0,15,,,,,,,,,,,,,,,,15,,60,72
5760,note_on,,0,0,15,,,,,,,,,,,,,,,,15,,76,72
5760,note_on,,1,0,6,,,,,,,,,,,,,,,,2,,48,72
5760,note_on,,1,0,15,,,,,,,,,,,,,,,,15,,48,72
5760,note_on,,1,0,12,,,,,,,,,,,,,,,,11,,76,72
5819,note_on,,59,0,11,,,,,,,,,,,,,,,,10,,84,0
5820,note_on,,1,0,11,,,,,,,,,,,,,,,,10,,79,72
5879,note_on,,0,0,15,,,,,,,,,,,,,,,,15,,72,0
5879,note_on,,0,0,15,,,,,,,,,,,,,,,,15,,67,0
5879,note_on,,59,0,11,,,,,,,,,,,,,,,,10,,79,0
5879,note_on,,0,0,15,,,,,,,,,,,,,,,,15,,60,0
5879,note_on,,119,0,13,,,,,,,,,,,,,,,,12,,67,0
5879,note_on,,0,0,15,,,,,,,,,,,,,,,,15,,76,0
5879,note_on,,119,0,15,,,,,,,,,,,,,,,,15,,48,0
5879,note_on,,119,0,7,,,,,,,,,,,,,,,,5,,72,0
5879,note_on,,119,0,5,,,,,,,,,,,,,,,,1,,72,0
5879,note_on,,119,0,8,,,,,,,,,,,,,,,,6,,64,0
5879,note_on,,119,0,10,,,,,,,,,,,,,,,,8,,48,0
5879,note_on,,119,0,6,,,,,,,,,,,,,,,,2,,48,0
5879,note_on,,119,0,12,,,,,,,,,,,,,,,,11,,76,0
5879,note_on,,119,0,9,,,,,,,,,,,,,,,,7,,55,0
5879,note_on,,119,0,14,,,,,,,,,,,,,,,,13,,48,0
5880,note_on,,1,0,5,,,,,,,,,,,,,,,,1,,72,72
5880,note_on,,1,0,8,,,,,,,,,,,,,,,,6,,69,72
5880,note_on,,1,0,10,,,,,,,,,,,,,,,,8,,53,72
5880,note_on,,1,0,11,,,,,,,,,,,,,,,,10,,81,72
5880,note_on,,1,0,6,,,,,,,,,,,,,,,,2,,53,72
5880,note_on,,1,0,12,,,,,,,,,,,,,,,,11,,72,72
5880,note_on,,1,0,14,,,,,,,,,,,,,,,,13,,53,72
5880,note_on,,1,0,9,,,,,,,,,,,,,,,,7,,53,72
5880,note_on,,1,0,13,,,,,,,,,,,,,,,,12,,65,72
5880,note_on,,1,0,15,,,,,,,,,,,,,,,,15,,53,72
5880,note_on,,0,0,15,,,,,,,,,,,,,,,,15,,60,72
5880,note_on,,0,0,15,,,,,,,,,,,,,,,,15,,72,72
5880,note_on,,0,0,15,,,,,,,,,,,,,,,,15,,69,72
5880,note_on,,1,0,7,,,,,,,,,,,,,,,,5,,72,72
5880,note_on,,0,0,15,,,,,,,,,,,,,,,,15,,65,72
5939,note_on,,59,0,11,,,,,,,,,,,,,,,,10,,81,0
5940,note_on,,1,0,11,,,,,,,,,,,,,,,,10,,83,72
5999,note_on,,0,0,15,,,,,,,,,,,,,,,,15,,60,0
5999,note_on,,119,0,5,,,,,,,,,,,,,,,,1,,72,0
5999,note_on,,0,0,15,,,,,,,,,,,,,,,,15,,65,0
5999,note_on,,119,0,8,,,,,,,,,,,,,,,,6,,69,0
5999,note_on,,119,0,10,,,,,,,,,,,,,,,,8,,53,0
5999,note_on,,119,0,15,,,,,,,,,,,,,,,,15,,53,0
5999,note_on,,119,0,7,,,,,,,,,,,,,,,,5,,72,0
5999,note_on,,59,0,11,,,,,,,,,,,,,,,,10,,83,0
5999,note_on,,119,0,12,,,,,,,,,,,,,,,,11,,72,0
5999,note_on,,119,0,9,,,,,,,,,,,,,,,,7,,53,0
5999,note_on,,119,0,13,,,,,,,,,,,,,,,,12,,65,0
5999,note_on,,119,0,14,,,,,,,,,,,,,,,,13,,53,0
5999,note_on,,119,0,6,,,,,,,,,,,,,,,,2,,53,0
5999,note_on,,0,0,15,,,,,,,,,,,,,,,,15,,72,0
5999,note_on,,0,0,15,,,,,,,,,,,,,,,,15,,69,0
6000,note_on,,0,0,15,,,,,,,,,,,,,,,,15,,67,72
6000,note_on,,0,0,15,,,,,,,,,,,,,,,,15,,72,72
6000,note_on,,0,0,15,,,,,,,,,,,,,,,,15,,76,72
6000,note_on,,0,0,15,,,,,,,,,,,,,,,,15,,55,72
6000,note_on,,1,0,10,,,,,,,,,,,,,,,,8,,52,72
6000,note_on,,1,0,8,,,,,,,,,,,,,,,,6,,67,72
6000,note_on,,1,0,15,,,,,,,,,,,,,,,,15,,52,72
6000,note_on,,1,0,6,,,,,,,,,,,,,,,,2,,52,72
6000,note_on,,1,0,5,,,,,,,,,,,,,,,,1,,72,72
6000,note_on,,1,0,7,,,,,,,,,,,,,,,,5,,72,72
6000,note_on,,1,0,11,,,,,,,,,,,,,,,,10,,84,72
6000,note_on,,1,0,14,,,,,,,,,,,,,,,,13,,52,72
6000,note_on,,1,0,9,,,,,,,,,,,,,,,,7,,60,72
6000,note_on,,1,0,13,,,,,,,,,,,,,,,,12,,67,72
6000,note_on,,1,0,12,,,,,,,,,,,,,,,,11,,79,72
6059,note_on,,59,0,5,,,,,,,,,,,,,,,,1,,72,0
6059,note_on,,59,0,7,,,,,,,,,,,,,,,,5,,72,0
6059,note_on,,59,0,11,,,,,,,,,,,,,,,,10,,84,0
6060,note_on,,1,0,5,,,,,,,,,,,,,,,,1,,67,72
6060,note_on,,1,0,7,,,,,,,,,,,,,,,,5,,67,72
6060,note_on,,1,0,11,,,,,,,,,,,,,,,,10,,79,72
6119,note_on,,119,0,10,,,,,,,,,,,,,,,,8,,52,0
6119,note_on,,0,0,15,,,,,,,,,,,,,,,,15,,72,0
6119,note_on,,0,0,15,,,,,,,,,,,,,,,,15,,76,0
6119,note_on,,119,0,13,,,,,,,,,,,,,,,,12,,67,0
6119,note_on,,0,0,15,,,,,,,,,,,,,,,,15,,55,0
6119,note_on,,119,0,15,,,,,,,,,,,,,,,,15,,52,0
6119,note_on,,59,0,11,,,,,,,,,,,,,,,,10,,79,0
6119,note_on,,119,0,14,,,,,,,,,,,,,,,,13,,52,0
6119,note_on,,119,0,12,,,,,,,,,,,,,,,,11,,79,0
6119,note_on,,119,0,9,,,,,,,,,,,,,,,,7,,60,0
6119,note_on,,0,0,15,,,,,,,,,,,,,,,,15,,67,0
6119,note_on,,119,0,6,,,,,,,,,,,,,,,,2,,52,0
6119,note_on,,59,0,7,,,,,,,,,,,,,,,,5,,67,0
6119,note_on,,119,0,8,,,,,,,,,,,,,,,,6,,67,0
6119,note_on,,59,0,5,,,,,,,,,,,,,,,,1,,67,0
6120,note_on,,0,0,15,,,,,,,,,,,,,,,,15,,50,72
6120,note_on,,1,0,6,,,,,,,,,,,,,,,,2,,50,72
6120,note_on,,1,0,9,,,,,,,,,,,,,,,,7,,65,72
6120,note_on,,1,0,7,,,,,,,,,,,,,,,,5,,69,72
6120,note_on,,0,0,15,,,,,,,,,,,,,,,,15,,62,72
6120,note_on,,1,0,13,,,,,,,,,,,,,,,,12,,62,72
6120,note_on,,1,0,12,,,,,,,,,,,,,,,,11,,77,72
6120,note_on,,1,0,14,,,,,,,,,,,,,,,,13,,50,72
6120,note_on,,1,0,10,,,,,,,,,,,,,,,,8,,50,72
6120,note_on,,1,0,11,,,,,,,,,,,,,,,,10,,81,72
6120,note_on,,1,0,8,,,,,,,,,,,,,,,,6,,65,72
6120,note_on,,0,0,15,,,,,,,,,,,,,,,,15,,71,72
6120,note_on,,0,0,15,,,,,,,,,,,,,,,,15,,77,72
6120,note_on,,1,0,15,,,,,,,,,,,,,,,,15,,74,72
6120,note_on,,1,0,5,,,,,,,,,,,,,,,,1,,69,72
6179,note_on,,59,0,5,,,,,,,,,,,,,,,,1,,69,0
6179,note_on,,59,0,11,,,,,,,,,,,,,,,,10,,81,0
6179,note_on,,59,0,7,,,,,,,,,,,,,,,,5,,69,0
6180,note_on,,1,0,5,,,,,,,,,,,,,,,,1,,71,72
6180,note_on,,1,0,11,,,,,,,,,,,,,,,,10,,83,72
6180,note_on,,1,0,7,,,,,,,,,,,,,,,,5,,71,72
6239,note_on,,119,0,6,,,,,,,,,,,,,,,,2,,50,0
6239,note_on,,119,0,15,,,,,,,,,,,,,,,,15,,74,0
6239,note_on,,119,0,8,,,,,,,,,,,,,,,,6,,65,0
6239,note_on,,119,0,10,,,,,,,,,,,,,,,,8,,50,0
6239,note_on,,59,0,5,,,,,,,,,,,,,,,,1,,71,0
6239,note_on,,119,0,13,,,,,,,,,,,,,,,,12,,62,0
6239,note_on,,0,0,15,,,,,,,,,,,,,,,,15,,77,0
6239,note_on,,59,0,11,,,,,,,,,,,,,,,,10,,83,0
6239,note_on,,119,0,14,,,,,,,,,,,,,,,,13,,50,0
6239,note_on,,59,0,7,,,,,,,,,,,,,,,,5,,71,0
6239,note_on,,119,0,12,,,,,,,,,,,,,,,,11,,77,0
6239,note_on,,0,0,15,,,,,,,,,,,,,,,,15,,50,0
6239,note_on,,0,0,15,,,,,,,,,,,,,,,,15,,62,0
6239,note_on,,119,0,9,,,,,,,,,,,,,,,,7,,65,0
6239,note_on,,0,0,15,,,,,,,,,,,,,,,,15,,71,0
6240,note_on,,1,0,14,,,,,,,,,,,,,,,,13,,48,72
6240,note_on,,1,0,8,,,,,,,,,,,,,,,,6,,67,72
6240,note_on,,0,0,15,,,,,,,,,,,,,,,,15,,76,72
6240,note_on,,1,0,9,,,,,,,,,,,,,,,,7,,64,72
6240,note_on,,0,0,15,,,,,,,,,,,,,,,,15,,72,72
6240,note_on,,1,0,6,,,,,,,,,,,,,,,,2,,48,72
6240,note_on,,0,0,15,,,,,,,,,,,,,,,,15,,67,72
6240,note_on,,1,0,11,,,,,,,,,,,,,,,,10,,84,72
6240,note_on,,1,0,7,,,,,,,,,,,,,,,,5,,72,72
6240,note_on,,0,0,15,,,,,,,,,,,,,,,,15,,79,72
6240,note_on,,1,0,15,,,,,,,,,,,,,,,,15,,48,72
6240,note_on,,0,0,15,,,,,,,,,,,,,,,,15,,55,72
6240,note_on,,1,0,13,,,,,,,,,,,,,,,,12,,67,72
6240,note_on,,1,0,12,,,,,,,,,,,,,,,,11,,76,72
6240,note_on,,1,0,10,,,,,,,,,,,,,,,,8,,48,72
6240,note_on,,1,0,5,,,,,,,,,,,,,,,,1,,72,72
6299,note_on,,59,0,11,,,,,,,,,,,,,,,,10,,84,0
6300,note_on,,1,0,11,,,,,,,,,,,,,,,,10,,76,72
6359,note_on,,119,0,6,,,,,,,,,,,,,,,,2,,48,0
6359,note_on,,119,0,15,,,,,,,,,,,,,,,,15,,48,0
6359,note_on,,0,0,15,,,,,,,,,,,,,,,,15,,79,0
6359,note_on,,119,0,5,,,,,,,,,,,,,,,,1,,72,0
6359,note_on,,0,0,15,,,,,,,,,,,,,,,,15,,76,0
6359,note_on,,59,0,11,,,,,,,,,,,,,,,,10,,76,0
6359,note_on,,0,0,15,,,,,,,,,,,,,,,,15,,72,0
6359,note_on,,119,0,14,,,,,,,,,,,,,,,,13,,48,0
6359,note_on,,119,0,13,,,,,,,,,,,,,,,,12,,67,0
6359,note_on,,0,0,15,,,,,,,,,,,,,,,,15,,67,0
6359,note_on,,0,0,15,,,,,,,,,,,,,,,,15,,55,0
6359,note_on,,119,0,8,,,,,,,,,,,,,,,,6,,67,0
6359,note_on,,119,0,12,,,,,,,,,,,,,,,,11,,76,0
6359,note_on,,119,0,10,,,,,,,,,,,,,,,,8,,48,0
6359,note_on,,119,0,7,,,,,,,,,,,,,,,,5,,72,0
6359,note_on,,119,0,9,,,,,,,,,,,,,,,,7,,64,0
6360,note_on,,1,0,11,,,,,,,,,,,,,,,,10,,77,72
6360,note_on,,1,0,15,,,,,,,,,,,,,,,,15,,50,72
6360,note_on,,1,0,9,,,,,,,,,,,,,,,,7,,62,72
6360,note_on,,1,0,8,,,,,,,,,,,,,,,,6,,65,72
6360,note_on,,1,0,6,,,,,,,,,,,,,,,,2,,50,72
6360,note_on,,1,0,5,,,,,,,,,,,,,,,,1,,71,72
6360,note_on,,1,0,14,,,,,,,,,,,,,,,,13,,50,72
6360,note_on,,1,0,12,,,,,,,,,,,,,,,,11,,74,72
6360,note_on,,1,0,10,,,,,,,,,,,,,,,,8,,50,72
6360,note_on,,1,0,7,,,,,,,,,,,,,,,,5,,71,72
6360,note_on,,1,0,13,,,,,,,,,,,,,,,,12,,65,72
6419,note_on,,59,0,15,,,,,,,,,,,,,,,,15,,50,0
6419,note_on,,59,0,11,,,,,,,,,,,,,,,,10,,77,0
6419,note_on,,59,0,14,,,,,,,,,,,,,,,,13,,50,0
6419,note_on,,59,0,13,,,,,,,,,,,,,,,,12,,65,0
6419,note_on,,59,0,5,,,,,,,,,,,,,,,,1,,71,0
6419,note_on,,59,0,7,,,,,,,,,,,,,,,,5,,71,0
6419,note_on,,59,0,8,,,,,,,,,,,,,,,,6,,65,0
6419,note_on,,59,0,12,,,,,,,,,,,,,,,,11,,74,0
6419,note_on,,59,0,6,,,,,,,,,,,,,,,,2,,50,0
6419,note_on,,59,0,9,,,,,,,,,,,,,,,,7,,62,0
6419,note_on,,59,0,10,,,,,,,,,,,,,,,,8,,50,0
6420,note_on,,1,0,10,,,,,,,,,,,,,,,,8,,52,72
6420,note_on,,1,0,8,,,,,,,,,,,,,,,,6,,67,72
6420,note_on,,1,0,5,,,,,,,,,,,,,,,,1,,72,72
6420,note_on,,1,0,14,,,,,,,,,,,,,,,,13,,52,72
6420,note_on,,1,0,15,,,,,,,,,,,,,,,,15,,52,72
6420,note_on,,1,0,6,,,,,,,,,,,,,,,,2,,52,72
6420,note_on,,1,0,12,,,,,,,,,,,,,,,,11,,72,72
6420,note_on,,1,0,7,,,,,,,,,,,,,,,,5,,72,72
6420,note_on,,1,0,9,,,,,,,,,,,,,,,,7,,60,72
6420,note_on,,1,0,11,,,,,,,,,,,,,,,,10,,79,72
6420,note_on,,1,0,13,,,,,,,,,,,,,,,,12,,64,72
6479,note_on,,59,0,6,,,,,,,,,,,,,,,,2,,52,0
6479,note_on,,59,0,8,,,,,,,,,,,,,,,,6,,67,0
6479,note_on,,59,0,12,,,,,,,,,,,,,,,,11,,72,0
6479,note_on,,59,0,7,,,,,,,,,,,,,,,,5,,72,0
6479,note_on,,59,0,5,,,,,,,,,,,,,,,,1,,72,0
6479,note_on,,59,0,13,,,,,,,,,,,,,,,,12,,64,0
6479,note_on,,59,0,14,,,,,,,,,,,,,,,,13,,52,0
6479,note_on,,59,0,9,,,,,,,,,,,,,,,,7,,60,0
6479,note_on,,59,0,15,,,,,,,,,,,,,,,,15,,52,0
6479,note_on,,59,0,10,,,,,,,,,,,,,,,,8,,52,0
6479,note_on,,59,0,11,,,,,,,,,,,,,,,,10,,79,0
6480,note_on,,1,0,9,,,,,,,,,,,,,,,,7,,60,72
6480,note_on,,1,0,6,,,,,,,,,,,,,,,,2,,53,72
6480,note_on,,1,0,15,,,,,,,,,,,,,,,,15,,53,72
6480,note_on,,1,0,8,,,,,,,,,,,,,,,,6,,69,72
6480,note_on,,0,0,15,,,,,,,,,,,,,,,,15,,57,72
6480,note_on,,1,0,12,,,,,,,,,,,,,,,,11,,72,72
6480,note_on,,1,0,10,,,,,,,,,,,,,,,,8,,53,72
6480,note_on,,1,0,7,,,,,,,,,,,,,,,,5,,69,72
6480,note_on,,0,0,15,,,,,,,,,,,,,,,,15,,72,72
6480,note_on,,1,0,13,,,,,,,,,,,,,,,,12,,69,72
6480,note_on,,1,0,14,,,,,,,,,,,,,,,,13,,53,72
6480,note_on,,1,0,5,,,,,,,,,,,,,,,,1,,69,72
6480,note_on,,0,0,15,,,,,,,,,,,,,,,,15,,65,72
6480,note_on,,0,0,15,,,,,,,,,,,,,,,,15,,69,72
6480,note_on,,1,0,11,,,,,,,,,,,,,,,,10,,81,72
6539,note_on,,59,0,5,,,,,,,,,,,,,,,,1,,69,0
6539,note_on,,59,0,7,,,,,,,,,,,,,,,,5,,69,0
6539,note_on,,59,0,11,,,,,,,,,,,,,,,,10,,81,0
6539,note_on,,59,0,14,,,,,,,,,,,,,,,,13,,53,0
6539,note_on,,59,0,6,,,,,,,,,,,,,,,,2,,53,0
6539,note_on,,59,0,10,,,,,,,,,,,,,,,,8,,53,0
6539,note_on,,59,0,15,,,,,,,,,,,,,,,,15,,53,0
6540,note_on,,1,0,10,,,,,,,,,,,,,,,,8,,55,72
6540,note_on,,1,0,11,,,,,,,,,,,,,,,,10,,83,72
6540,note_on,,1,0,14,,,,,,,,,,,,,,,,13,,55,72
6540,note_on,,1,0,7,,,,,,,,,,,,,,,,5,,71,72
6540,note_on,,1,0,6,,,,,,,,,,,,,,,,2,,55,72
6540,note_on,,1,0,5,,,,,,,,,,,,,,,,1,,71,72
6540,note_on,,1,0,15,,,,,,,,,,,,,,,,15,,55,72
6599,note_on,,119,0,8,,,,,,,,,,,,,,,,6,,69,0
6599,note_on,,59,0,5,,,,,,,,,,,,,,,,1,,71,0
6599,note_on,,0,0,15,,,,,,,,,,,,,,,,15,,55,0
6599,note_on,,59,0,6,,,,,,,,,,,,,,,,2,,55,0
6599,note_on,,119,0,9,,,,,,,,,,,,,,,,7,,60,0
6599,note_on,,0,0,15,,,,,,,,,,,,,,,,15,,65,0
6599,note_on,,0,0,15,,,,,,,,,,,,,,,,15,,69,0
6599,note_on,,0,0,15,,,,,,,,,,,,,,,,15,,72,0
6599,note_on,,59,0,15,,,,,,,,,,,,,,,,15,,57,0
6599,note_on,,119,0,12,,,,,,,,,,,,,,,,11,,72,0
6599,note_on,,59,0,14,,,,,,,,,,,,,,,,13,,55,0
6599,note_on,,119,0,13,,,,,,,,,,,,,,,,12,,69,0
6599,note_on,,59,0,10,,,,,,,,,,,,,,,,8,,55,0
6599,note_on,,59,0,7,,,,,,,,,,,,,,,,5,,71,0
6599,note_on,,59,0,11,,,,,,,,,,,,,,,,10,,83,0
6600,note_on,,1,0,11,,,,,,,,,,,,,,,,10,,84,72
6600,note_on,,1,0,9,,,,,,,,,,,,,,,,7,,65,72
6600,note_on,,1,0,6,,,,,,,,,,,,,,,,2,,57,72
6600,note_on,,1,0,14,,,,,,,,,,,,,,,,13,,57,72
6600,note_on,,1,0,10,,,,,,,,,,,,,,,,8,,57,72
6600,note_on,,1,0,7,,,,,,,,,,,,,,,,5,,72,72
6600,note_on,,1,0,5,,,,,,,,,,,,,,,,1,,72,72
6600,note_on,,1,0,13,,,,,,,,,,,,,,,,12,,69,72
6600,note_on,,1,0,12,,,,,,,,,,,,,,,,11,,77,72
6600,note_on,,1,0,15,,,,,,,,,,,,,,,,15,,57,72
6600,note_on,,1,0,8,,,,,,,,,,,,,,,,6,,69,72
6659,note_on,,59,0,5,,,,,,,,,,,,,,,,1,,72,0
6659,note_on,,59,0,15,,,,,,,,,,,,,,,,15,,57,0
6659,note_on,,59,0,11,,,,,,,,,,,,,,,,10,,84,0
6659,note_on,,59,0,10,,,,,,,,,,,,,,,,8,,57,0
6659,note_on,,59,0,7,,,,,,,,,,,,,,,,5,,72,0
6659,note_on,,59,0,14,,,,,,,,,,,,,,,,13,,57,0
6659,note_on,,59,0,6,,,,,,,,,,,,,,,,2,,57,0
6660,note_on,,1,0,5,,,,,,,,,,,,,,,,1,,74,72
6660,note_on,,1,0,11,,,,,,,,,,,,,,,,10,,86,72
6660,note_on,,1,0,14,,,,,,,,,,,,,,,,13,,59,72
6660,note_on,,1,0,6,,,,,,,,,,,,,,,,2,,59,72
6660,note_on,,1,0,10,,,,,,,,,,,,,,,,8,,59,72
6660,note_on,,1,0,7,,,,,,,,,,,,,,,,5,,74,72
6660,note_on,,1,0,15,,,,,,,,,,,,,,,,15,,59,72
6719,note_on,,59,0,5,,,,,,,,,,,,,,,,1,,74,0
6719,note_on,,59,0,6,,,,,,,,,,,,,,,,2,,59,0
6719,note_on,,59,0,7,,,,,,,,,,,,,,,,5,,74,0
6719,note_on,,59,0,15,,,,,,,,,,,,,,,,15,,59,0
6719,note_on,,119,0,9,,,,,,,,,,,,,,,,7,,65,0
6719,note_on,,119,0,8,,,,,,,,,,,,,,,,6,,69,0
6719,note_on,,119,0,12,,,,,,,,,,,,,,,,11,,77,0
6719,note_on,,59,0,11,,,,,,,,,,,,,,,,10,,86,0
6719,note_on,,59,0,10,,,,,,,,,,,,,,,,8,,59,0
6719,note_on,,119,0,13,,,,,,,,,,,,,,,,12,,69,0
6719,note_on,,59,0,14,,,,,,,,,,,,,,,,13,,59,0
6720,note_on,,1,0,15,,,,,,,,,,,,,,,,15,,60,72
6720,note_on,,1,0,6,,,,,,,,,,,,,,,,2,,60,72
6720,note_on,,1,0,10,,,,,,,,,,,,,,,,8,,60,72
6720,note_on,,1,0,7,,,,,,,,,,,,,,,,5,,76,72
6720,note_on,,1,0,11,,,,,,,,,,,,,,,,10,,79,72
6720,note_on,,1,0,9,,,,,,,,,,,,,,,,7,,64,72
6720,note_on,,1,0,13,,,,,,,,,,,,,,,,12,,67,72
6720,note_on,,1,0,5,,,,,,,,,,,,,,,,1,,76,72
6720,note_on,,1,0,12,,,,,,,,,,,,,,,,11,,76,72
6720,note_on,,0,0,15,,,,,,,,,,,,,,,,15,,76,72
6720,note_on,,0,0,15,,,,,,,,,,,,,,,,15,,67,72
6720,note_on,,0,0,15,,,,,,,,,,,,,,,,15,,64,72
6720,note_on,,1,0,14,,,,,,,,,,,,,,,,13,,60,72
6720,note_on,,1,0,8,,,,,,,,,,,,,,,,6,,67,72
6779,note_on,,59,0,7,,,,,,,,,,,,,,,,5,,76,0
6779,note_on,,59,0,12,,,,,,,,,,,,,,,,11,,76,0
6779,note_on,,59,0,5,,,,,,,,,,,,,,,,1,,76,0
6780,note_on,,1,0,7,,,,,,,,,,,,,,,,5,,77,72
6780,note_on,,1,0,5,,,,,,,,,,,,,,,,1,,77,72
6780,note_on,,1,0,12,,,,,,,,,,,,,,,,11,,77,72
6839,note_on,,119,0,13,,,,,,,,,,,,,,,,12,,67,0
6839,note_on,,59,0,5,,,,,,,,,,,,,,,,1,,77,0
6839,note_on,,119,0,11,,,,,,,,,,,,,,,,10,,79,0
6839,note_on,,119,0,8,,,,,,,,,,,,,,,,6,,67,0
6839,note_on,,0,0,15,,,,,,,,,,,,,,,,15,,76,0
6839,note_on,,0,0,15,,,,,,,,,,,,,,,,15,,67,0
6839,note_on,,119,0,14,,,,,,,,,,,,,,,,13,,60,0
6839,note_on,,119,0,6,,,,,,,,,,,,,,,,2,,60,0
6839,note_on,,59,0,7,,,,,,,,,,,,,,,,5,,77,0
6839,note_on,,0,0,15,,,,,,,,,,,,,,,,15,,64,0
6839,note_on,,59,0,12,,,,,,,,,,,,,,,,11,,77,0
6839,note_on,,119,0,15,,,,,,,,,,,,,,,,15,,60,0
6839,note_on,,119,0,9,,,,,,,,,,,,,,,,7,,64,0
6839,note_on,,119,0,10,,,,,,,,,,,,,,,,8,,60,0
6840,note_on,,1,0,10,,,,,,,,,,,,,,,,8,,52,72
6840,note_on,,1,0,13,,,,,,,,,,,,,,,,12,,67,72
6840,note_on,,1,0,11,,,,,,,,,,,,,,,,10,,84,72
6840,note_on,,1,0,14,,,,,,,,,,,,,,,,13,,52,72
6840,note_on,,1,0,8,,,,,,,,,,,,,,,,6,,67,72
6840,note_on,,1,0,7,,,,,,,,,,,,,,,,5,,79,72
6840,note_on,,1,0,5,,,,,,,,,,,,,,,,1,,79,72
6840,note_on,,0,0,15,,,,,,,,,,,,,,,,15,,67,72
6840,note_on,,0,0,15,,,,,,,,,,,,,,,,15,,64,72
6840,note_on,,1,0,9,,,,,,,,,,,,,,,,7,,60,72
6840,note_on,,0,0,15,,,,,,,,,,,,,,,,15,,72,72
6840,note_on,,0,0,15,,,,,,,,,,,,,,,,15,,55,72
6840,note_on,,1,0,15,,,,,,,,,,,,,,,,15,,52,72
6840,note_on,,1,0,12,,,,,,,,,,,,,,,,11,,79,72
6840,note_on,,1,0,6,,,,,,,,,,,,,,,,2,,52,72
6899,note_on,,59,0,6,,,,,,,,,,,,,,,,2,,52,0
6899,note_on,,59,0,10,,,,,,,,,,,,,,,,8,,52,0
6899,note_on,,59,0,14,,,,,,,,,,,,,,,,13,,52,0
6899,note_on,,59,0,11,,,,,,,,,,,,,,,,10,,84,0
6899,note_on,,59,0,15,,,,,,,,,,,,,,,,15,,52,0
6899,note_on,,0,0,15,,,,,,,,,,,,,,,,15,,55,0
6900,note_on,,1,0,10,,,,,,,,,,,,,,,,8,,53,72
6900,note_on,,0,0,15,,,,,,,,,,,,,,,,15,,57,72
6900,note_on,,1,0,6,,,,,,,,,,,,,,,,2,,53,72
6900,note_on,,1,0,11,,,,,,,,,,,,,,,,10,,86,72
6900,note_on,,1,0,15,,,,,,,,,,,,,,,,15,,53,72
6900,note_on,,1,0,14,,,,,,,,,,,,,,,,13,,53,72
6959,note_on,,59,0,6,,,,,,,,,,,,,,,,2,,53,0
6959,note_on,,119,0,5,,,,,,,,,,,,,,,,1,,79,0
6959,note_on,,0,0,15,,,,,,,,,,,,,,,,15,,57,0
6959,note_on,,0,0,15,,,,,,,,,,,,,,,,15,,53,0
6959,note_on,,0,0,15,,,,,,,,,,,,,,,,15,,64,0
6959,note_on,,0,0,15,,,,,,,,,,,,,,,,15,,67,0
6959,note_on,,119,0,13,,,,,,,,,,,,,,,,12,,67,0
6959,note_on,,59,0,10,,,,,,,,,,,,,,,,8,,53,0
6959,note_on,,119,0,9,,,,,,,,,,,,,,,,7,,60,0
6959,note_on,,119,0,12,,,,,,,,,,,,,,,,11,,79,0
6959,note_on,,119,0,7,,,,,,,,,,,,,,,,5,,79,0
6959,note_on,,59,0,14,,,,,,,,,,,,,,,,13,,53,0
6959,note_on,,59,0,11,,,,,,,,,,,,,,,,10,,86,0
6959,note_on,,59,0,15,,,,,,,,,,,,,,,,15,,72,0
6959,note_on,,119,0,8,,,,,,,,,,,,,,,,6,,67,0
6960,note_on,,1,0,14,,,,,,,,,,,,,,,,13,,55,72
6960,note_on,,1,0,7,,,,,,,,,,,,,,,,5,,74,72
6960,note_on,,1,0,15,,,,,,,,,,,,,,,,15,,55,72
6960,note_on,,0,0,15,,,,,,,,,,,,,,,,15,,62,72
6960,note_on,,0,0,15,,,,,,,,,,,,,,,,15,,71,72
6960,note_on,,0,0,15,,,,,,,,,,,,,,,,15,,67,72
6960,note_on,,1,0,10,,,,,,,,,,,,,,,,8,,55,72
6960,note_on,,1,0,9,,,,,,,,,,,,,,,,7,,59,72
6960,note_on,,1,0,5,,,,,,,,,,,,,,,,1,,74,72
6960,note_on,,1,0,12,,,,,,,,,,,,,,,,11,,74,72
6960,note_on,,1,0,13,,,,,,,,,,,,,,,,12,,67,72
6960,note_on,,1,0,6,,,,,,,,,,,,,,,,2,,55,72
6960,note_on,,1,0,11,,,,,,,,,,,,,,,,10,,83,72
6960,note_on,,0,0,15,,,,,,,,,,,,,,,,15,,59,72
6960,note_on,,1,0,8,,,,,,,,,,,,,,,,6,,67,72
6974,note_on,,14,0,11,,,,,,,,,,,,,,,,10,,83,0
6975,note_on,,1,0,11,,,,,,,,,,,,,,,,10,,84,72
6989,note_on,,14,0,11,,,,,,,,,,,,,,,,10,,84,0
6990,note_on,,1,0,11,,,,,,,,,,,,,,,,10,,83,72
7004,note_on,,14,0,11,,,,,,,,,,,,,,,,10,,83,0
7005,note_on,,1,0,11,,,,,,,,,,,,,,,,10,,84,72
7019,note_on,,14,0,11,,,,,,,,,,,,,,,,10,,84,0
7020,note_on,,1,0,11,,,,,,,,,,,,,,,,10,,83,72
7034,note_on,,14,0,11,,,,,,,,,,,,,,,,10,,83,0
7035,note_on,,1,0,11,,,,,,,,,,,,,,,,10,,84,72
7049,note_on,,14,0,11,,,,,,,,,,,,,,,,10,,84,0
7050,note_on,,1,0,11,,,,,,,,,,,,,,,,10,,83,72
7064,note_on,,14,0,11,,,,,,,,,,,,,,,,10,,83,0
7065,note_on,,1,0,11,,,,,,,,,,,,,,,,10,,84,72
7079,note_on,,119,0,14,,,,,,,,,,,,,,,,13,,55,0
7079,note_on,,119,0,15,,,,,,,,,,,,,,,,15,,55,0
7079,note_on,,0,0,15,,,,,,,,,,,,,,,,15,,59,0
7079,note_on,,14,0,11,,,,,,,,,,,,,,,,10,,84,0
7079,note_on,,0,0,15,,,,,,,,,,,,,,,,15,,62,0
7079,note_on,,119,0,6,,,,,,,,,,,,,,,,2,,55,0
7080,note_on,,1,0,6,,,,,,,,,,,,,,,,2,,43,72
7080,note_on,,0,0,15,,,,,,,,,,,,,,,,15,,55,72
7080,note_on,,0,0,15,,,,,,,,,,,,,,,,15,,67,72
7080,note_on,,1,0,15,,,,,,,,,,,,,,,,15,,43,72
7080,note_on,,1,0,14,,,,,,,,,,,,,,,,13,,43,72
7080,note_on,,1,0,11,,,,,,,,,,,,,,,,10,,83,72
7094,note_on,,14,0,11,,,,,,,,,,,,,,,,10,,83,0
7095,note_on,,1,0,11,,,,,,,,,,,,,,,,10,,84,72
7109,note_on,,14,0,11,,,,,,,,,,,,,,,,10,,84,0
7110,note_on,,1,0,11,,,,,,,,,,,,,,,,10,,81,72
7124,note_on,,14,0,11,,,,,,,,,,,,,,,,10,,81,0
7125,note_on,,1,0,11,,,,,,,,,,,,,,,,10,,83,72
7139,note_on,,179,0,13,,,,,,,,,,,,,,,,12,,67,0
7139,note_on,,179,0,7,,,,,,,,,,,,,,,,5,,74,0
7139,note_on,,179,0,10,,,,,,,,,,,,,,,,8,,55,0
7139,note_on,,179,0,5,,,,,,,,,,,,,,,,1,,74,0
7139,note_on,,179,0,12,,,,,,,,,,,,,,,,11,,74,0
7139,note_on,,179,0,8,,,,,,,,,,,,,,,,6,,67,0
7139,note_on,,14,0,11,,,,,,,,,,,,,,,,10,,83,0
7139,note_on,,179,0,9,,,,,,,,,,,,,,,,7,,59,0
7140,note_on,,1,0,7,,,,,,,,,,,,,,,,5,,74,72
7140,note_on,,1,0,11,,,,,,,,,,,,,,,,10,,83,72
7140,note_on,,1,0,13,,,,,,,,,,,,,,,,12,,67,72
7140,note_on,,1,0,10,,,,,,,,,,,,,,,,8,,55,72
7140,note_on,,1,0,5,,,,,,,,,,,,,,,,1,,74,72
7140,note_on,,1,0,8,,,,,,,,,,,,,,,,6,,67,72
7140,note_on,,1,0,12,,,,,,,,,,,,,,,,11,,74,72
7140,note_on,,1,0,9,,,,,,,,,,,,,,,,7,,59,72
7199,note_on,,59,0,11,,,,,,,,,,,,,,,,10,,83,0
7199,note_on,,59,0,7,,,,,,,,,,,,,,,,5,,74,0
7199,note_on,,119,0,14,,,,,,,,,,,,,,,,13,,43,0
7199,note_on,,0,0,15,,,,,,,,,,,,,,,,15,,55,0
7199,note_on,,0,0,15,,,,,,,,,,,,,,,,15,,43,0
7199,note_on,,0,0,15,,,,,,,,,,,,,,,,15,,67,0
7199,note_on,,59,0,8,,,,,,,,,,,,,,,,6,,67,0
7199,note_on,,0,0,15,,,,,,,,,,,,,,,,15,,67,0
7199,note_on,,119,0,15,,,,,,,,,,,,,,,,15,,71,0
7199,note_on,,59,0,9,,,,,,,,,,,,,,,,7,,59,0
7199,note_on,,59,0,10,,,,,,,,,,,,,,,,8,,55,0
7199,note_on,,119,0,6,,,,,,,,,,,,,,,,2,,43,0
7199,note_on,,59,0,12,,,,,,,,,,,,,,,,11,,74,0
7199,note_on,,59,0,5,,,,,,,,,,,,,,,,1,,74,0
7199,note_on,,59,0,13,,,,,,,,,,,,,,,,12,,67,0
7200,note_on,,1,0,7,,,,,,,,,,,,,,,,5,,76,72
7200,note_on,,1,0,11,,,,,,,,,,,,,,,,10,,84,72
7200,note_on,,0,0,15,,,,,,,,,,,,,,,,15,,55,72
7200,note_on,,0,0,15,,,,,,,,,,,,,,,,15,,67,72
7200,note_on,,1,0,14,,,,,,,,,,,,,,,,13,,48,72
7200,note_on,,0,0,15,,,,,,,,,,,,,,,,15,,72,72
7200,note_on,,0,0,15,,,,,,,,,,,,,,,,15,,76,72
7200,note_on,,1,0,15,,,,,,,,,,,,,,,,15,,48,72
7200,note_on,,1,0,10,,,,,,,,,,,,,,,,8,,48,72
7200,note_on,,1,0,8,,,,,,,,,,,,,,,,6,,67,72
7200,note_on,,1,0,13,,,,,,,,,,,,,,,,12,,67,72
7200,note_on,,1,0,5,,,,,,,,,,,,,,,,1,,76,72
7200,note_on,,1,0,12,,,,,,,,,,,,,,,,11,,76,72
7200,note_on,,1,0,6,,,,,,,,,,,,,,,,2,,48,72
7200,note_on,,1,0,9,,,,,,,,,,,,,,,,7,,60,72
7319,note_on,,0,0,15,,,,,,,,,,,,,,,,15,,72,0
7319,note_on,,0,0,15,,,,,,,,,,,,,,,,15,,67,0
7319,note_on,,0,0,15,,,,,,,,,,,,,,,,15,,55,0
7319,note_on,,119,0,13,,,,,,,,,,,,,,,,12,,67,0
7319,note_on,,0,0,15,,,,,,,,,,,,,,,,15,,76,0
7319,note_on,,119,0,14,,,,,,,,,,,,,,,,13,,48,0
7319,note_on,,119,0,5,,,,,,,,,,,,,,,,1,,76,0
7319,note_on,,119,0,12,,,,,,,,,,,,,,,,11,,76,0
7319,note_on,,119,0,11,,,,,,,,,,,,,,,,10,,84,0
7319,note_on,,119,0,15,,,,,,,,,,,,,,,,15,,48,0
7319,note_on,,119,0,6,,,,,,,,,,,,,,,,2,,48,0
7319,note_on,,119,0,9,,,,,,,,,,,,,,,,7,,60,0
7319,note_on,,119,0,10,,,,,,,,,,,,,,,,8,,48,0
7319,note_on,,119,0,8,,,,,,,,,,,,,,,,6,,67,0
7319,note_on,,119,0,7,,,,,,,,,,,,,,,,5,,76,0
7680,note_on,,0,0,15,,,,,,,,,,,,,,,,15,,62,48
7680,note_on,,0,0,15,,,,,,,,,,,,,,,,15,,55,48
7680,note_on,,0,0,15,,,,,,,,,,,,,,,,15,,67,48
7680,note_on,,361,0,15,,,,,,,,,,,,,,,,15,,43,48
7680,set_tempo,,4800,1,0,,,,,,,,,1071428,,,,,,,,,,
7680,note_on,,0,0,15,,,,,,,,,,,,,,,,15,,58,48
7800,note_on,,481,0,10,,,,,,,,,,,,,,,,8,,55,48
7800,note_on,,481,0,8,,,,,,,,,,,,,,,,6,,62,48
7800,note_on,,481,0,7,,,,,,,,,,,,,,,,5,,67,48
7800,note_on,,481,0,9,,,,,,,,,,,,,,,,7,,58,48
7919,note_on,,119,0,8,,,,,,,,,,,,,,,,6,,62,0
7919,note_on,,119,0,10,,,,,,,,,,,,,,,,8,,55,0
7919,note_on,,239,0,15,,,,,,,,,,,,,,,,15,,43,0
7919,note_on,,0,0,15,,,,,,,,,,,,,,,,15,,67,0
7919,note_on,,0,0,15,,,,,,,,,,,,,,,,15,,55,0
7919,note_on,,0,0,15,,,,,,,,,,,,,,,,15,,58,0
7919,note_on,,0,0,15,,,,,,,,,,,,,,,,15,,62,0
7919,note_on,,119,0,7,,,,,,,,,,,,,,,,5,,67,0
7919,note_on,,119,0,9,,,,,,,,,,,,,,,,7,,58,0
7920,note_on,,1,0,10,,,,,,,,,,,,,,,,8,,55,48
7920,note_on,,1,0,8,,,,,,,,,,,,,,,,6,,62,48
7920,note_on,,1,0,9,,,,,,,,,,,,,,,,7,,58,48
7920,note_on,,1,0,7,,,,,,,,,,,,,,,,5,,67,48
8039,note_on,,119,0,7,,,,,,,,,,,,,,,,5,,67,0
8039,note_on,,119,0,10,,,,,,,,,,,,,,,,8,,55,0
8039,note_on,,119,0,8,,,,,,,,,,,,,,,,6,,62,0
8039,note_on,,119,0,9,,,,,,,,,,,,,,,,7,,58,0
8040,note_on,,1,0,9,,,,,,,,,,,,,,,,7,,58,48
8040,note_on,,1,0,7,,,,,,,,,,,,,,,,5,,67,48
8040,note_on,,1,0,8,,,,,,,,,,,,,,,,6,,62,48
8040,note_on,,1,0,10,,,,,,,,,,,,,,,,8,,55,48
8159,note_on,,119,0,8,,,,,,,,,,,,,,,,6,,62,0
8159,note_on,,119,0,7,,,,,,,,,,,,,,,,5,,67,0
8159,note_on,,119,0,10,,,,,,,,,,,,,,,,8,,55,0
8159,note_on,,119,0,9,,,,,,,,,,,,,,,,7,,58,0
8160,note_on,,1,0,8,,,,,,,,,,,,,,,,6,,64,48
8160,note_on,,1,0,7,,,,,,,,,,,,,,,,5,,73,48
8160,note_on,,1,0,10,,,,,,,,,,,,,,,,8,,52,48
8160,note_on,,1,0,9,,,,,,,,,,,,,,,,7,,55,48
8399,note_on,,239,0,8,,,,,,,,,,,,,,,,6,,64,0
8399,note_on,,239,0,9,,,,,,,,,,,,,,,,7,,55,0
8399,note_on,,239,0,7,,,,,,,,,,,,,,,,5,,73,0
8399,note_on,,239,0,10,,,,,,,,,,,,,,,,8,,52,0
8400,note_on,,1,0,7,,,,,,,,,,,,,,,,5,,73,48
8400,note_on,,1,0,10,,,,,,,,,,,,,,,,8,,52,48
8400,note_on,,1,0,9,,,,,,,,,,,,,,,,7,,55,48
8400,note_on,,1,0,8,,,,,,,,,,,,,,,,6,,64,48
8519,note_on,,119,0,8,,,,,,,,,,,,,,,,6,,64,0
8519,note_on,,119,0,7,,,,,,,,,,,,,,,,5,,73,0
8519,note_on,,119,0,10,,,,,,,,,,,,,,,,8,,52,0
8519,note_on,,119,0,9,,,,,,,,,,,,,,,,7,,55,0
8520,note_on,,1,0,10,,,,,,,,,,,,,,,,8,,52,48
8520,note_on,,1,0,7,,,,,,,,,,,,,,,,5,,73,48
8520,note_on,,1,0,9,,,,,,,,,,,,,,,,7,,55,48
8520,note_on,,1,0,8,,,,,,,,,,,,,,,,6,,64,48
8639,note_on,,119,0,7,,,,,,,,,,,,,,,,5,,73,0
8639,note_on,,119,0,9,,,,,,,,,,,,,,,,7,,55,0
8639,note_on,,119,0,8,,,,,,,,,,,,,,,,6,,64,0
8639,note_on,,119,0,10,,,,,,,,,,,,,,,,8,,52,0
8640,note_on,,1,0,10,,,,,,,,,,,,,,,,8,,50,48
8640,note_on,,1,0,9,,,,,,,,,,,,,,,,7,,57,48
8640,note_on,,1,0,7,,,,,,,,,,,,,,,,5,,74,48
8640,note_on,,1,0,8,,,,,,,,,,,,,,,,6,,65,48
9119,note_on,,479,0,8,,,,,,,,,,,,,,,,6,,65,0
9119,note_on,,479,0,9,,,,,,,,,,,,,,,,7,,57,0
9119,note_on,,479,0,7,,,,,,,,,,,,,,,,5,,74,0
9119,note_on,,479,0,10,,,,,,,,,,,,,,,,8,,50,0
9240,note_on,,121,0,8,,,,,,,,,,,,,,,,6,,69,48
9240,note_on,,121,0,7,,,,,,,,,,,,,,,,5,,77,48
9240,note_on,,121,0,9,,,,,,,,,,,,,,,,7,,62,48
9240,note_on,,121,0,10,,,,,,,,,,,,,,,,8,,50,48
9359,note_on,,119,0,8,,,,,,,,,,,,,,,,6,,69,0
9359,note_on,,119,0,9,,,,,,,,,,,,,,,,7,,62,0
9359,note_on,,119,0,10,,,,,,,,,,,,,,,,8,,50,0
9359,note_on,,119,0,7,,,,,,,,,,,,,,,,5,,77,0
9360,note_on,,1,0,8,,,,,,,,,,,,,,,,6,,69,48
9360,note_on,,1,0,10,,,,,,,,,,,,,,,,8,,50,48
9360,note_on,,1,0,7,,,,,,,,,,,,,,,,5,,77,48
9360,note_on,,1,0,9,,,,,,,,,,,,,,,,7,,62,48
9479,note_on,,119,0,10,,,,,,,,,,,,,,,,8,,50,0
9479,note_on,,119,0,9,,,,,,,,,,,,,,,,7,,62,0
9479,note_on,,119,0,7,,,,,,,,,,,,,,,,5,,77,0
9479,note_on,,119,0,8,,,,,,,,,,,,,,,,6,,69,0
9480,note_on,,1,0,7,,,,,,,,,,,,,,,,5,,77,48
9480,note_on,,1,0,9,,,,,,,,,,,,,,,,7,,62,48
9480,note_on,,1,0,10,,,,,,,,,,,,,,,,8,,50,48
9480,note_on,,1,0,8,,,,,,,,,,,,,,,,6,,69,48
9599,note_on,,119,0,8,,,,,,,,,,,,,,,,6,,69,0
9599,note_on,,119,0,9,,,,,,,,,,,,,,,,7,,62,0
9599,note_on,,119,0,7,,,,,,,,,,,,,,,,5,,77,0
9599,note_on,,119,0,10,,,,,,,,,,,,,,,,8,,50,0
9600,note_on,,1,0,7,,,,,,,,,,,,,,,,5,,74,48
9600,note_on,,1,0,8,,,,,,,,,,,,,,,,6,,69,48
9600,note_on,,1,0,9,,,,,,,,,,,,,,,,7,,62,48
9600,note_on,,1,0,10,,,,,,,,,,,,,,,,8,,58,48
9839,note_on,,239,0,9,,,,,,,,,,,,,,,,7,,62,0
9839,note_on,,239,0,8,,,,,,,,,,,,,,,,6,,69,0
9839,note_on,,239,0,10,,,,,,,,,,,,,,,,8,,58,0
9839,note_on,,239,0,7,,,,,,,,,,,,,,,,5,,74,0
9840,note_on,,1,0,8,,,,,,,,,,,,,,,,6,,67,48
9840,note_on,,1,0,7,,,,,,,,,,,,,,,,5,,74,48
9840,note_on,,1,0,9,,,,,,,,,,,,,,,,7,,62,48
9840,note_on,,1,0,10,,,,,,,,,,,,,,,,8,,58,48
9959,note_on,,119,0,7,,,,,,,,,,,,,,,,5,,74,0
9959,note_on,,119,0,9,,,,,,,,,,,,,,,,7,,62,0
9959,note_on,,119,0,10,,,,,,,,,,,,,,,,8,,58,0
9959,note_on,,119,0,8,,,,,,,,,,,,,,,,6,,67,0
9960,note_on,,1,0,8,,,,,,,,,,,,,,,,6,,67,48
9960,note_on,,1,0,7,,,,,,,,,,,,,,,,5,,74,48
9960,note_on,,1,0,10,,,,,,,,,,,,,,,,8,,58,48
9960,note_on,,1,0,9,,,,,,,,,,,,,,,,7,,64,48
10079,note_on,,119,0,10,,,,,,,,,,,,,,,,8,,58,0
10079,note_on,,119,0,7,,,,,,,,,,,,,,,,5,,74,0
10079,note_on,,119,0,8,,,,,,,,,,,,,,,,6,,67,0
10079,note_on,,119,0,9,,,,,,,,,,,,,,,,7,,64,0
10080,note_on,,1,0,9,,,,,,,,,,,,,,,,7,,65,48
10080,note_on,,1,0,10,,,,,,,,,,,,,,,,8,,57,48
10080,time_signature,,2400,1,0,,,,,,,,,,8,4,24,8,,,,,,
10080,note_on,,1,0,7,,,,,,,,,,,,,,,,5,,74,48
10080,note_on,,1,0,8,,,,,,,,,,,,,,,,6,,69,48
10319,note_on,,239,0,9,,,,,,,,,,,,,,,,7,,65,0
10319,note_on,,239,0,7,,,,,,,,,,,,,,,,5,,74,0
10320,note_on,,1,0,7,,,,,,,,,,,,,,,,5,,73,48
10320,note_on,,1,0,9,,,,,,,,,,,,,,,,7,,64,48
10439,note_on,,119,0,7,,,,,,,,,,,,,,,,5,,73,0
10439,note_on,,119,0,9,,,,,,,,,,,,,,,,7,,64,0
10440,note_on,,1,0,7,,,,,,,,,,,,,,,,5,,71,48
10440,note_on,,1,0,9,,,,,,,,,,,,,,,,7,,62,48
10559,note_on,,119,0,9,,,,,,,,,,,,,,,,7,,62,0
10559,note_on,,119,0,7,,,,,,,,,,,,,,,,5,,71,0
10560,note_on,,1,0,7,,,,,,,,,,,,,,,,5,,73,48
10560,note_on,,1,0,9,,,,,,,,,,,,,,,,7,,64,48
11039,note_on,,479,0,7,,,,,,,,,,,,,,,,5,,73,0
11039,note_on,,959,0,10,,,,,,,,,,,,,,,,8,,57,0
11039,note_on,,479,0,9,,,,,,,,,,,,,,,,7,,64,0
11039,note_on,,959,0,8,,,,,,,,,,,,,,,,6,,69,0
11040,note_on,,3721,0,6,,,,,,,,,,,,,,,,2,,50,72
11040,note_on,,3721,0,14,,,,,,,,,,,,,,,,13,,50,72
11040,note_on,,0,0,15,,,,,,,,,,,,,,,,15,,77,72
11040,set_tempo,,960,1,0,,,,,,,,,500000,,,,,,,,,,
11040,time_signature,,0,1,0,,,,,,,,,,4,4,24,8,,,,,,
11040,note_on,,0,0,15,,,,,,,,,,,,,,,,15,,57,72
11040,note_on,,0,0,15,,,,,,,,,,,,,,,,15,,69,72
11040,note_on,,0,0,15,,,,,,,,,,,,,,,,15,,74,72
11040,note_on,,3121,0,15,,,,,,,,,,,,,,,,15,,50,72
11160,note_on,,3841,0,5,,,,,,,,,,,,,,,,1,,69,72
11160,note_on,,121,0,9,,,,,,,,,,,,,,,,7,,62,72
11160,note_on,,3841,0,12,,,,,,,,,,,,,,,,11,,77,72
11160,note_on,,3841,0,11,,,,,,,,,,,,,,,,10,,81,72
11160,note_on,,3841,0,13,,,,,,,,,,,,,,,,12,,62,72
11160,note_on,,121,0,10,,,,,,,,,,,,,,,,8,,50,72
11160,note_on,,121,0,7,,,,,,,,,,,,,,,,5,,69,72
11160,note_on,,121,0,8,,,,,,,,,,,,,,,,6,,65,72
11219,note_on,,59,0,13,,,,,,,,,,,,,,,,12,,62,0
11219,note_on,,179,0,6,,,,,,,,,,,,,,,,2,,50,0
11219,note_on,,179,0,14,,,,,,,,,,,,,,,,13,,50,0
11219,note_on,,59,0,5,,,,,,,,,,,,,,,,1,,69,0
11219,note_on,,59,0,10,,,,,,,,,,,,,,,,8,,50,0
11219,note_on,,59,0,11,,,,,,,,,,,,,,,,10,,81,0
11219,note_on,,59,0,9,,,,,,,,,,,,,,,,7,,62,0
11219,note_on,,0,0,15,,,,,,,,,,,,,,,,15,,57,0
11219,note_on,,59,0,12,,,,,,,,,,,,,,,,11,,77,0
11219,note_on,,59,0,7,,,,,,,,,,,,,,,,5,,69,0
11219,note_on,,0,0,15,,,,,,,,,,,,,,,,15,,69,0
11219,note_on,,59,0,8,,,,,,,,,,,,,,,,6,,65,0
11219,note_on,,179,0,15,,,,,,,,,,,,,,,,15,,50,0
11219,note_on,,0,0,15,,,,,,,,,,,,,,,,15,,77,0
11219,note_on,,0,0,15,,,,,,,,,,,,,,,,15,,74,0
11220,note_on,,1,0,12,,,,,,,,,,,,,,,,11,,77,72
11220,note_on,,1,0,11,,,,,,,,,,,,,,,,10,,81,72
11220,note_on,,1,0,7,,,,,,,,,,,,,,,,5,,69,72
11220,note_on,,1,0,10,,,,,,,,,,,,,,,,8,,50,72
11220,note_on,,1,0,6,,,,,,,,,,,,,,,,2,,50,72
11220,note_on,,1,0,14,,,,,,,,,,,,,,,,13,,50,72
11220,note_on,,1,0,8,,,,,,,,,,,,,,,,6,,65,72
11220,note_on,,1,0,5,,,,,,,,,,,,,,,,1,,69,72
11220,note_on,,1,0,13,,,,,,,,,,,,,,,,12,,62,72
11220,note_on,,1,0,15,,,,,,,,,,,,,,,,15,,50,72
11220,note_on,,0,0,15,,,,,,,,,,,,,,,,15,,77,72
11220,note_on,,1,0,9,,,,,,,,,,,,,,,,7,,62,72
11220,note_on,,0,0,15,,,,,,,,,,,,,,,,15,,74,72
11220,note_on,,0,0,15,,,,,,,,,,,,,,,,15,,57,72
11220,note_on,,0,0,15,,,,,,,,,,,,,,,,15,,69,72
11279,note_on,,59,0,15,,,,,,,,,,,,,,,,15,,50,0
11279,note_on,,59,0,12,,,,,,,,,,,,,,,,11,,77,0
11279,note_on,,59,0,11,,,,,,,,,,,,,,,,10,,81,0
11279,note_on,,59,0,7,,,,,,,,,,,,,,,,5,,69,0
11279,note_on,,59,0,6,,,,,,,,,,,,,,,,2,,50,0
11279,note_on,,59,0,10,,,,,,,,,,,,,,,,8,,50,0
11279,note_on,,59,0,8,,,,,,,,,,,,,,,,6,,65,0
11279,note_on,,59,0,13,,,,,,,,,,,,,,,,12,,62,0
11279,note_on,,0,0,15,,,,,,,,,,,,,,,,15,,77,0
11279,note_on,,59,0,5,,,,,,,,,,,,,,,,1,,69,0
11279,note_on,,59,0,14,,,,,,,,,,,,,,,,13,,50,0
11279,note_on,,0,0,15,,,,,,,,,,,,,,,,15,,57,0
11279,note_on,,0,0,15,,,,,,,,,,,,,,,,15,,74,0
11279,note_on,,0,0,15,,,,,,,,,,,,,,,,15,,69,0
11279,note_on,,59,0,9,,,,,,,,,,,,,,,,7,,62,0
11280,note_on,,0,0,15,,,,,,,,,,,,,,,,15,,57,72
11280,note_on,,1,0,13,,,,,,,,,,,,,,,,12,,57,72
11280,note_on,,1,0,14,,,,,,,,,,,,,,,,13,,53,72
11280,note_on,,1,0,5,,,,,,,,,,,,,,,,1,,74,72
11280,note_on,,1,0,10,,,,,,,,,,,,,,,,8,,53,72
11280,note_on,,1,0,7,,,,,,,,,,,,,,,,5,,74,72
11280,note_on,,1,0,9,,,,,,,,,,,,,,,,7,,62,72
11280,note_on,,1,0,8,,,,,,,,,,,,,,,,6,,69,72
11280,note_on,,0,0,15,,,,,,,,,,,,,,,,15,,69,72
11280,note_on,,1,0,15,,,,,,,,,,,,,,,,15,,53,72
11280,note_on,,1,0,6,,,,,,,,,,,,,,,,2,,53,72
11280,note_on,,1,0,11,,,,,,,,,,,,,,,,10,,86,72
11280,note_on,,1,0,12,,,,,,,,,,,,,,,,11,,81,72
11280,note_on,,0,0,15,,,,,,,,,,,,,,,,15,,62,72
11399,note_on,,119,0,11,,,,,,,,,,,,,,,,10,,86,0
11399,note_on,,119,0,8,,,,,,,,,,,,,,,,6,,69,0
11399,note_on,,0,0,15,,,,,,,,,,,,,,,,15,,62,0
11399,note_on,,119,0,6,,,,,,,,,,,,,,,,2,,53,0
11399,note_on,,119,0,5,,,,,,,,,,,,,,,,1,,74,0
11399,note_on,,119,0,15,,,,,,,,,,,,,,,,15,,53,0
11399,note_on,,0,0,15,,,,,,,,,,,,,,,,15,,57,0
11399,note_on,,0,0,15,,,,,,,,,,,,,,,,15,,69,0
11399,note_on,,119,0,12,,,,,,,,,,,,,,,,11,,81,0
11399,note_on,,119,0,13,,,,,,,,,,,,,,,,12,,57,0
11399,note_on,,119,0,10,,,,,,,,,,,,,,,,8,,53,0
11399,note_on,,119,0,14,,,,,,,,,,,,,,,,13,,53,0
11399,note_on,,119,0,9,,,,,,,,,,,,,,,,7,,62,0
11399,note_on,,119,0,7,,,,,,,,,,,,,,,,5,,74,0
11400,note_on,,0,0,15,,,,,,,,,,,,,,,,15,,73,72
11400,note_on,,1,0,10,,,,,,,,,,,,,,,,8,,57,72
11400,note_on,,1,0,13,,,,,,,,,,,,,,,,12,,69,72
11400,note_on,,1,0,6,,,,,,,,,,,,,,,,2,,57,72
11400,note_on,,0,0,15,,,,,,,,,,,,,,,,15,,64,72
11400,note_on,,0,0,15,,,,,,,,,,,,,,,,15,,69,72
11400,note_on,,1,0,7,,,,,,,,,,,,,,,,5,,73,72
11400,note_on,,1,0,5,,,,,,,,,,,,,,,,1,,73,72
11400,note_on,,1,0,8,,,,,,,,,,,,,,,,6,,69,72
11400,note_on,,1,0,15,,,,,,,,,,,,,,,,15,,57,72
11400,note_on,,1,0,9,,,,,,,,,,,,,,,,7,,64,72
11400,note_on,,1,0,11,,,,,,,,,,,,,,,,10,,85,72
11400,note_on,,1,0,12,,,,,,,,,,,,,,,,11,,76,72
11400,note_on,,1,0,14,,,,,,,,,,,,,,,,13,,57,72
11519,note_on,,119,0,15,,,,,,,,,,,,,,,,15,,57,0
11519,note_on,,119,0,9,,,,,,,,,,,,,,,,7,,64,0
11519,note_on,,0,0,15,,,,,,,,,,,,,,,,15,,73,0
11519,note_on,,119,0,8,,,,,,,,,,,,,,,,6,,69,0
11519,note_on,,119,0,12,,,,,,,,,,,,,,,,11,,76,0
11519,note_on,,119,0,7,,,,,,,,,,,,,,,,5,,73,0
11519,note_on,,0,0,15,,,,,,,,,,,,,,,,15,,69,0
11519,note_on,,119,0,14,,,,,,,,,,,,,,,,13,,57,0
11519,note_on,,119,0,10,,,,,,,,,,,,,,,,8,,57,0
11519,note_on,,119,0,13,,,,,,,,,,,,,,,,12,,69,0
11519,note_on,,119,0,6,,,,,,,,,,,,,,,,2,,57,0
11519,note_on,,0,0,15,,,,,,,,,,,,,,,,15,,64,0
11519,note_on,,119,0,11,,,,,,,,,,,,,,,,10,,85,0
11519,note_on,,119,0,5,,,,,,,,,,,,,,,,1,,73,0
11520,note_on,,1,0,14,,,,,,,,,,,,,,,,13,,62,72
11520,note_on,,0,0,15,,,,,,,,,,,,,,,,15,,65,72
11520,note_on,,1,0,12,,,,,,,,,,,,,,,,11,,77,72
11520,note_on,,0,0,15,,,,,,,,,,,,,,,,15,,69,72
11520,note_on,,0,0,15,,,,,,,,,,,,,,,,15,,74,72
11520,note_on,,1,0,15,,,,,,,,,,,,,,,,15,,62,72
11520,note_on,,1,0,9,,,,,,,,,,,,,,,,7,,65,72
11520,note_on,,1,0,8,,,,,,,,,,,,,,,,6,,69,72
11520,note_on,,1,0,5,,,,,,,,,,,,,,,,1,,74,72
11520,note_on,,1,0,13,,,,,,,,,,,,,,,,12,,69,72
11520,note_on,,1,0,6,,,,,,,,,,,,,,,,2,,62,72
11520,note_on,,1,0,7,,,,,,,,,,,,,,,,5,,74,72
11520,note_on,,1,0,10,,,,,,,,,,,,,,,,8,,62,72
11520,note_on,,1,0,11,,,,,,,,,,,,,,,,10,,86,72
11579,note_on,,59,0,13,,,,,,,,,,,,,,,,12,,69,0
11579,note_on,,59,0,12,,,,,,,,,,,,,,,,11,,77,0
11579,note_on,,59,0,11,,,,,,,,,,,,,,,,10,,86,0
11580,note_on,,1,0,11,,,,,,,,,,,,,,,,10,,74,72
11580,note_on,,1,0,13,,,,,,,,,,,,,,,,12,,65,72
11580,note_on,,1,0,12,,,,,,,,,,,,,,,,11,,69,72
11639,note_on,,0,0,15,,,,,,,,,,,,,,,,15,,65,0
11639,note_on,,119,0,7,,,,,,,,,,,,,,,,5,,74,0
11639,note_on,,119,0,15,,,,,,,,,,,,,,,,15,,62,0
11639,note_on,,119,0,14,,,,,,,,,,,,,,,,13,,62,0
11639,note_on,,59,0,12,,,,,,,,,,,,,,,,11,,69,0
11639,note_on,,119,0,9,,,,,,,,,,,,,,,,7,,65,0
11639,note_on,,0,0,15,,,,,,,,,,,,,,,,15,,74,0
11639,note_on,,119,0,10,,,,,,,,,,,,,,,,8,,62,0
11639,note_on,,119,0,5,,,,,,,,,,,,,,,,1,,74,0
11639,note_on,,59,0,13,,,,,,,,,,,,,,,,12,,65,0
11639,note_on,,0,0,15,,,,,,,,,,,,,,,,15,,69,0
11639,note_on,,59,0,11,,,,,,,,,,,,,,,,10,,74,0
11639,note_on,,119,0,8,,,,,,,,,,,,,,,,6,,69,0
11639,note_on,,119,0,6,,,,,,,,,,,,,,,,2,,62,0
11640,note_on,,1,0,13,,,,,,,,,,,,,,,,12,,69,72
11640,note_on,,1,0,12,,,,,,,,,,,,,,,,11,,74,72
11640,note_on,,1,0,11,,,,,,,,,,,,,,,,10,,77,72
11699,note_on,,59,0,12,,,,,,,,,,,,,,,,11,,74,0
11699,note_on,,59,0,13,,,,,,,,,,,,,,,,12,,69,0
11699,note_on,,59,0,11,,,,,,,,,,,,,,,,10,,77,0
11700,note_on,,1,0,13,,,,,,,,,,,,,,,,12,,74,72
11700,note_on,,1,0,12,,,,,,,,,,,,,,,,11,,77,72
11700,note_on,,61,0,15,,,,,,,,,,,,,,,,15,,50,72
11700,note_on,,0,0,15,,,,,,,,,,,,,,,,15,,57,72
11700,note_on,,61,0,14,,,,,,,,,,,,,,,,13,,50,72
11700,note_on,,0,0,15,,,,,,,,,,,,,,,,15,,77,72
11700,note_on,,61,0,7,,,,,,,,,,,,,,,,5,,74,72
11700,note_on,,61,0,9,,,,,,,,,,,,,,,,7,,65,72
11700,note_on,,0,0,15,,,,,,,,,,,,,,,,15,,69,72
11700,note_on,,61,0,10,,,,,,,,,,,,,,,,8,,50,72
11700,note_on,,0,0,15,,,,,,,,,,,,,,,,15,,74,72
11700,note_on,,61,0,6,,,,,,,,,,,,,,,,2,,50,72
11700,note_on,,61,0,5,,,,,,,,,,,,,,,,1,,74,72
11700,note_on,,1,0,11,,,,,,,,,,,,,,,,10,,81,72
11700,note_on,,61,0,8,,,,,,,,,,,,,,,,6,,69,72
11759,note_on,,59,0,13,,,,,,,,,,,,,,,,12,,74,0
11759,note_on,,0,0,15,,,,,,,,,,,,,,,,15,,69,0
11759,note_on,,59,0,9,,,,,,,,,,,,,,,,7,,65,0
11759,note_on,,59,0,12,,,,,,,,,,,,,,,,11,,77,0
11759,note_on,,0,0,15,,,,,,,,,,,,,,,,15,,74,0
11759,note_on,,0,0,15,,,,,,,,,,,,,,,,15,,77,0
11759,note_on,,59,0,10,,,,,,,,,,,,,,,,8,,50,0
11759,note_on,,0,0,15,,,,,,,,,,,,,,,,15,,57,0
11759,note_on,,59,0,5,,,,,,,,,,,,,,,,1,,74,0
11759,note_on,,59,0,7,,,,,,,,,,,,,,,,5,,74,0
11759,note_on,,59,0,15,,,,,,,,,,,,,,,,15,,50,0
11759,note_on,,59,0,6,,,,,,,,,,,,,,,,2,,50,0
11759,note_on,,59,0,11,,,,,,,,,,,,,,,,10,,81,0
11759,note_on,,59,0,14,,,,,,,,,,,,,,,,13,,50,0
11759,note_on,,59,0,8,,,,,,,,,,,,,,,,6,,69,0
11760,note_on,,1,0,9,,,,,,,,,,,,,,,,7,,65,72
11760,note_on,,1,0,6,,,,,,,,,,,,,,,,2,,53,72
11760,note_on,,1,0,15,,,,,,,,,,,,,,,,15,,53,72
11760,note_on,,0,0,15,,,,,,,,,,,,,,,,15,,65,72
11760,note_on,,1,0,12,,,,,,,,,,,,,,,,11,,81,72
11760,note_on,,0,0,15,,,,,,,,,,,,,,,,15,,69,72
11760,note_on,,1,0,14,,,,,,,,,,,,,,,,13,,53,72
11760,note_on,,1,0,7,,,,,,,,,,,,,,,,5,,74,72
11760,note_on,,0,0,15,,,,,,,,,,,,,,,,15,,57,72
11760,note_on,,1,0,10,,,,,,,,,,,,,,,,8,,53,72
11760,note_on,,1,0,11,,,,,,,,,,,,,,,,10,,86,72
11760,note_on,,1,0,5,,,,,,,,,,,,,,,,1,,74,72
11760,note_on,,1,0,8,,,,,,,,,,,,,,,,6,,69,72
11760,note_on,,1,0,13,,,,,,,,,,,,,,,,12,,69,72
11760,note_on,,0,0,15,,,,,,,,,,,,,,,,15,,74,72
11819,note_on,,59,0,14,,,,,,,,,,,,,,,,13,,53,0
11819,note_on,,59,0,6,,,,,,,,,,,,,,,,2,,53,0
11819,note_on,,59,0,8,,,,,,,,,,,,,,,,6,,69,0
11819,note_on,,0,0,15,,,,,,,,,,,,,,,,15,,57,0
11819,note_on,,59,0,15,,,,,,,,,,,,,,,,15,,53,0
11819,note_on,,59,0,11,,,,,,,,,,,,,,,,10,,86,0
11819,note_on,,59,0,9,,,,,,,,,,,,,,,,7,,65,0
11819,note_on,,59,0,7,,,,,,,,,,,,,,,,5,,74,0
11819,note_on,,59,0,5,,,,,,,,,,,,,,,,1,,74,0
11819,note_on,,59,0,13,,,,,,,,,,,,,,,,12,,69,0
11819,note_on,,59,0,10,,,,,,,,,,,,,,,,8,,53,0
11819,note_on,,59,0,12,,,,,,,,,,,,,,,,11,,81,0
11820,note_on,,1,0,10,,,,,,,,,,,,,,,,8,,53,72
11820,note_on,,1,0,6,,,,,,,,,,,,,,,,2,,53,72
11820,note_on,,1,0,8,,,,,,,,,,,,,,,,6,,69,72
11820,note_on,,1,0,5,,,,,,,,,,,,,,,,1,,74,72
11820,note_on,,1,0,13,,,,,,,,,,,,,,,,12,,69,72
11820,note_on,,1,0,9,,,,,,,,,,,,,,,,7,,65,72
11820,note_on,,1,0,12,,,,,,,,,,,,,,,,11,,81,72
11820,note_on,,1,0,14,,,,,,,,,,,,,,,,13,,53,72
11820,note_on,,0,0,15,,,,,,,,,,,,,,,,15,,57,72
11820,note_on,,1,0,15,,,,,,,,,,,,,,,,15,,53,72
11820,note_on,,1,0,7,,,,,,,,,,,,,,,,5,,74,72
11820,note_on,,1,0,11,,,,,,,,,,,,,,,,10,,86,72
11879,note_on,,59,0,10,,,,,,,,,,,,,,,,8,,53,0
11879,note_on,,59,0,14,,,,,,,,,,,,,,,,13,,53,0
11879,note_on,,59,0,9,,,,,,,,,,,,,,,,7,,65,0
11879,note_on,,59,0,13,,,,,,,,,,,,,,,,12,,69,0
11879,note_on,,59,0,5,,,,,,,,,,,,,,,,1,,74,0
11879,note_on,,59,0,7,,,,,,,,,,,,,,,,5,,74,0
11879,note_on,,59,0,11,,,,,,,,,,,,,,,,10,,86,0
11879,note_on,,59,0,8,,,,,,,,,,,,,,,,6,,69,0
11879,note_on,,59,0,15,,,,,,,,,,,,,,,,15,,74,0
11879,note_on,,0,0,15,,,,,,,,,,,,,,,,15,,69,0
11879,note_on,,0,0,15,,,,,,,,,,,,,,,,15,,65,0
11879,note_on,,0,0,15,,,,,,,,,,,,,,,,15,,53,0
11879,note_on,,0,0,15,,,,,,,,,,,,,,,,15,,57,0
11879,note_on,,59,0,6,,,,,,,,,,,,,,,,2,,53,0
11879,note_on,,59,0,12,,,,,,,,,,,,,,,,11,,81,0
11880,note_on,,1,0,12,,,,,,,,,,,,,,,,11,,76,72
11880,note_on,,1,0,9,,,,,,,,,,,,,,,,7,,64,72
11880,note_on,,1,0,10,,,,,,,,,,,,,,,,8,,57,72
11880,note_on,,1,0,14,,,,,,,,,,,,,,,,13,,57,72
11880,note_on,,1,0,15,,,,,,,,,,,,,,,,15,,57,72
11880,note_on,,0,0,15,,,,,,,,,,,,,,,,15,,61,72
11880,note_on,,0,0,15,,,,,,,,,,,,,,,,15,,76,72
11880,note_on,,0,0,15,,,,,,,,,,,,,,,,15,,69,72
11880,note_on,,1,0,11,,,,,,,,,,,,,,,,10,,85,72
11880,note_on,,1,0,13,,,,,,,,,,,,,,,,12,,69,72
11880,note_on,,1,0,6,,,,,,,,,,,,,,,,2,,57,72
11880,note_on,,1,0,5,,,,,,,,,,,,,,,,1,,73,72
11880,note_on,,1,0,8,,,,,,,,,,,,,,,,6,,69,72
11880,note_on,,1,0,7,,,,,,,,,,,,,,,,5,,73,72
11880,note_on,,0,0,15,,,,,,,,,,,,,,,,15,,64,72
11939,note_on,,59,0,15,,,,,,,,,,,,,,,,15,,57,0
11939,note_on,,59,0,5,,,,,,,,,,,,,,,,1,,73,0
11939,note_on,,59,0,13,,,,,,,,,,,,,,,,12,,69,0
11939,note_on,,59,0,9,,,,,,,,,,,,,,,,7,,64,0
11939,note_on,,59,0,12,,,,,,,,,,,,,,,,11,,76,0
11939,note_on,,59,0,8,,,,,,,,,,,,,,,,6,,69,0
11939,note_on,,59,0,10,,,,,,,,,,,,,,,,8,,57,0
11939,note_on,,59,0,14,,,,,,,,,,,,,,,,13,,57,0
11939,note_on,,59,0,6,,,,,,,,,,,,,,,,2,,57,0
11939,note_on,,0,0,15,,,,,,,,,,,,,,,,15,,61,0
11939,note_on,,59,0,11,,,,,,,,,,,,,,,,10,,85,0
11939,note_on,,59,0,7,,,,,,,,,,,,,,,,5,,73,0
11940,note_on,,1,0,7,,,,,,,,,,,,,,,,5,,73,72
11940,note_on,,1,0,13,,,,,,,,,,,,,,,,12,,69,72
11940,note_on,,1,0,6,,,,,,,,,,,,,,,,2,,57,72
11940,note_on,,1,0,14,,,,,,,,,,,,,,,,13,,57,72
11940,note_on,,1,0,12,,,,,,,,,,,,,,,,11,,76,72
11940,note_on,,1,0,5,,,,,,,,,,,,,,,,1,,73,72
11940,note_on,,1,0,15,,,,,,,,,,,,,,,,15,,57,72
11940,note_on,,1,0,10,,,,,,,,,,,,,,,,8,,57,72
11940,note_on,,1,0,11,,,,,,,,,,,,,,,,10,,85,72
11940,note_on,,0,0,15,,,,,,,,,,,,,,,,15,,61,72
11940,note_on,,1,0,8,,,,,,,,,,,,,,,,6,,69,72
11940,note_on,,1,0,9,,,,,,,,,,,,,,,,7,,64,72
11999,note_on,,59,0,7,,,,,,,,,,,,,,,,5,,73,0
11999,note_on,,0,0,15,,,,,,,,,,,,,,,,15,,64,0
11999,note_on,,0,0,15,,,,,,,,,,,,,,,,15,,69,0
11999,note_on,,59,0,13,,,,,,,,,,,,,,,,12,,69,0
11999,note_on,,59,0,12,,,,,,,,,,,,,,,,11,,76,0
11999,note_on,,59,0,8,,,,,,,,,,,,,,,,6,,69,0
11999,note_on,,59,0,9,,,,,,,,,,,,,,,,7,,64,0
11999,note_on,,59,0,15,,,,,,,,,,,,,,,,15,,76,0
11999,note_on,,59,0,11,,,,,,,,,,,,,,,,10,,85,0
11999,note_on,,59,0,14,,,,,,,,,,,,,,,,13,,57,0
11999,note_on,,59,0,6,,,,,,,,,,,,,,,,2,,57,0
11999,note_on,,59,0,5,,,,,,,,,,,,,,,,1,,73,0
11999,note_on,,59,0,10,,,,,,,,,,,,,,,,8,,57,0
11999,note_on,,0,0,15,,,,,,,,,,,,,,,,15,,57,0
11999,note_on,,0,0,15,,,,,,,,,,,,,,,,15,,61,0
12000,note_on,,1,0,12,,,,,,,,,,,,,,,,11,,77,72
12000,note_on,,1,0,13,,,,,,,,,,,,,,,,12,,69,72
12000,note_on,,1,0,8,,,,,,,,,,,,,,,,6,,69,72
12000,note_on,,0,0,15,,,,,,,,,,,,,,,,15,,69,72
12000,note_on,,0,0,15,,,,,,,,,,,,,,,,15,,65,72
12000,note_on,,1,0,5,,,,,,,,,,,,,,,,1,,74,72
12000,note_on,,1,0,9,,,,,,,,,,,,,,,,7,,65,72
12000,note_on,,1,0,11,,,,,,,,,,,,,,,,10,,86,72
12000,note_on,,1,0,14,,,,,,,,,,,,,,,,13,,62,72
12000,note_on,,1,0,10,,,,,,,,,,,,,,,,8,,62,72
12000,note_on,,1,0,7,,,,,,,,,,,,,,,,5,,74,72
12000,note_on,,1,0,15,,,,,,,,,,,,,,,,15,,62,72
12000,note_on,,1,0,6,,,,,,,,,,,,,,,,2,,62,72
12059,note_on,,59,0,12,,,,,,,,,,,,,,,,11,,77,0
12059,note_on,,59,0,13,,,,,,,,,,,,,,,,12,,69,0
12059,note_on,,59,0,11,,,,,,,,,,,,,,,,10,,86,0
12060,note_on,,1,0,12,,,,,,,,,,,,,,,,11,,69,72
12060,note_on,,1,0,13,,,,,,,,,,,,,,,,12,,65,72
12060,note_on,,1,0,11,,,,,,,,,,,,,,,,10,,74,72
12119,note_on,,119,0,9,,,,,,,,,,,,,,,,7,,65,0
12119,note_on,,119,0,5,,,,,,,,,,,,,,,,1,,74,0
12119,note_on,,119,0,7,,,,,,,,,,,,,,,,5,,74,0
12119,note_on,,0,0,15,,,,,,,,,,,,,,,,15,,65,0
12119,note_on,,0,0,15,,,,,,,,,,,,,,,,15,,69,0
12119,note_on,,119,0,15,,,,,,,,,,,,,,,,15,,62,0
12119,note_on,,119,0,8,,,,,,,,,,,,,,,,6,,69,0
12119,note_on,,119,0,10,,,,,,,,,,,,,,,,8,,62,0
12119,note_on,,119,0,14,,,,,,,,,,,,,,,,13,,62,0
12119,note_on,,59,0,13,,,,,,,,,,,,,,,,12,,65,0
12119,note_on,,59,0,12,,,,,,,,,,,,,,,,11,,69,0
12119,note_on,,59,0,11,,,,,,,,,,,,,,,,10,,74,0
12119,note_on,,119,0,6,,,,,,,,,,,,,,,,2,,62,0
12120,note_on,,1,0,11,,,,,,,,,,,,,,,,10,,77,72
12120,note_on,,1,0,15,,,,,,,,,,,,,,,,15,,50,72
12120,note_on,,0,0,15,,,,,,,,,,,,,,,,15,,57,72
12120,note_on,,0,0,15,,,,,,,,,,,,,,,,15,,74,72
12120,note_on,,0,0,15,,,,,,,,,,,,,,,,15,,69,72
12120,note_on,,0,0,15,,,,,,,,,,,,,,,,15,,65,72
12120,note_on,,1,0,8,,,,,,,,,,,,,,,,6,,65,72
12120,note_on,,1,0,6,,,,,,,,,,,,,,,,2,,50,72
12120,note_on,,1,0,9,,,,,,,,,,,,,,,,7,,62,72
12120,note_on,,1,0,5,,,,,,,,,,,,,,,,1,,69,72
12120,note_on,,1,0,7,,,,,,,,,,,,,,,,5,,69,72
12120,note_on,,1,0,12,,,,,,,,,,,,,,,,11,,74,72
12120,note_on,,1,0,14,,,,,,,,,,,,,,,,13,,50,72
12120,note_on,,1,0,13,,,,,,,,,,,,,,,,12,,69,72
12120,note_on,,1,0,10,,,,,,,,,,,,,,,,8,,50,72
12179,note_on,,59,0,9,,,,,,,,,,,,,,,,7,,62,0
12179,note_on,,59,0,11,,,,,,,,,,,,,,,,10,,77,0
12179,note_on,,59,0,12,,,,,,,,,,,,,,,,11,,74,0
12179,note_on,,59,0,8,,,,,,,,,,,,,,,,6,,65,0
12179,note_on,,59,0,7,,,,,,,,,,,,,,,,5,,69,0
12179,note_on,,59,0,5,,,,,,,,,,,,,,,,1,,69,0
12179,note_on,,59,0,13,,,,,,,,,,,,,,,,12,,69,0
12179,note_on,,59,0,10,,,,,,,,,,,,,,,,8,,50,0
12180,note_on,,1,0,13,,,,,,,,,,,,,,,,12,,74,72
12180,note_on,,1,0,7,,,,,,,,,,,,,,,,5,,69,72
12180,note_on,,1,0,5,,,,,,,,,,,,,,,,1,,69,72
12180,note_on,,1,0,11,,,,,,,,,,,,,,,,10,,81,72
12180,note_on,,1,0,12,,,,,,,,,,,,,,,,11,,77,72
12180,note_on,,1,0,10,,,,,,,,,,,,,,,,8,,50,72
12180,note_on,,1,0,9,,,,,,,,,,,,,,,,7,,62,72
12180,note_on,,1,0,8,,,,,,,,,,,,,,,,6,,65,72
12239,note_on,,59,0,9,,,,,,,,,,,,,,,,7,,62,0
12239,note_on,,59,0,5,,,,,,,,,,,,,,,,1,,69,0
12239,note_on,,59,0,13,,,,,,,,,,,,,,,,12,,74,0
12239,note_on,,0,0,15,,,,,,,,,,,,,,,,15,,65,0
12239,note_on,,119,0,14,,,,,,,,,,,,,,,,13,,50,0
12239,note_on,,59,0,10,,,,,,,,,,,,,,,,8,,50,0
12239,note_on,,0,0,15,,,,,,,,,,,,,,,,15,,69,0
12239,note_on,,59,0,7,,,,,,,,,,,,,,,,5,,69,0
12239,note_on,,0,0,15,,,,,,,,,,,,,,,,15,,74,0
12239,note_on,,119,0,15,,,,,,,,,,,,,,,,15,,50,0
12239,note_on,,59,0,8,,,,,,,,,,,,,,,,6,,65,0
12239,note_on,,119,0,6,,,,,,,,,,,,,,,,2,,50,0
12239,note_on,,59,0,12,,,,,,,,,,,,,,,,11,,77,0
12239,note_on,,59,0,11,,,,,,,,,,,,,,,,10,,81,0
12239,note_on,,0,0,15,,,,,,,,,,,,,,,,15,,57,0
12240,note_on,,1,0,6,,,,,,,,,,,,,,,,2,,53,72
12240,note_on,,1,0,14,,,,,,,,,,,,,,,,13,,53,72
12240,note_on,,1,0,12,,,,,,,,,,,,,,,,11,,81,72
12240,note_on,,1,0,13,,,,,,,,,,,,,,,,12,,69,72
12240,note_on,,1,0,7,,,,,,,,,,,,,,,,5,,74,72
12240,note_on,,0,0,15,,,,,,,,,,,,,,,,15,,74,72
12240,note_on,,0,0,15,,,,,,,,,,,,,,,,15,,69,72
12240,note_on,,1,0,11,,,,,,,,,,,,,,,,10,,86,72
12240,note_on,,1,0,9,,,,,,,,,,,,,,,,7,,62,72
12240,note_on,,1,0,5,,,,,,,,,,,,,,,,1,,74,72
12240,note_on,,0,0,15,,,,,,,,,,,,,,,,15,,81,72
12240,note_on,,1,0,8,,,,,,,,,,,,,,,,6,,69,72
12240,note_on,,0,0,15,,,,,,,,,,,,,,,,15,,57,72
12240,note_on,,1,0,15,,,,,,,,,,,,,,,,15,,53,72
12240,note_on,,1,0,10,,,,,,,,,,,,,,,,8,,53,72
12359,note_on,,119,0,12,,,,,,,,,,,,,,,,11,,81,0
12359,note_on,,119,0,9,,,,,,,,,,,,,,,,7,,62,0
12359,note_on,,119,0,8,,,,,,,,,,,,,,,,6,,69,0
12359,note_on,,119,0,6,,,,,,,,,,,,,,,,2,,53,0
12359,note_on,,119,0,14,,,,,,,,,,,,,,,,13,,53,0
12359,note_on,,119,0,10,,,,,,,,,,,,,,,,8,,53,0
12359,note_on,,119,0,5,,,,,,,,,,,,,,,,1,,74,0
12359,note_on,,0,0,15,,,,,,,,,,,,,,,,15,,81,0
12359,note_on,,119,0,13,,,,,,,,,,,,,,,,12,,69,0
12359,note_on,,119,0,7,,,,,,,,,,,,,,,,5,,74,0
12359,note_on,,0,0,15,,,,,,,,,,,,,,,,15,,57,0
12359,note_on,,119,0,15,,,,,,,,,,,,,,,,15,,53,0
12359,note_on,,119,0,11,,,,,,,,,,,,,,,,10,,86,0
12359,note_on,,0,0,15,,,,,,,,,,,,,,,,15,,69,0
12359,note_on,,0,0,15,,,,,,,,,,,,,,,,15,,74,0
12360,note_on,,1,0,5,,,,,,,,,,,,,,,,1,,73,72
12360,note_on,,1,0,14,,,,,,,,,,,,,,,,13,,57,72
12360,note_on,,1,0,13,,,,,,,,,,,,,,,,12,,69,72
12360,note_on,,1,0,9,,,,,,,,,,,,,,,,7,,64,72
12360,note_on,,1,0,7,,,,,,,,,,,,,,,,5,,73,72
12360,note_on,,1,0,10,,,,,,,,,,,,,,,,8,,57,72
12360,note_on,,1,0,12,,,,,,,,,,,,,,,,11,,76,72
12360,note_on,,1,0,8,,,,,,,,,,,,,,,,6,,69,72
12360,note_on,,0,0,15,,,,,,,,,,,,,,,,15,,69,72
12360,note_on,,0,0,15,,,,,,,,,,,,,,,,15,,76,72
12360,note_on,,1,0,6,,,,,,,,,,,,,,,,2,,57,72
12360,note_on,,1,0,15,,,,,,,,,,,,,,,,15,,57,72
12360,note_on,,1,0,11,,,,,,,,,,,,,,,,10,,85,72
12360,note_on,,0,0,15,,,,,,,,,,,,,,,,15,,61,72
12479,note_on,,119,0,15,,,,,,,,,,,,,,,,15,,57,0
12479,note_on,,119,0,6,,,,,,,,,,,,,,,,2,,57,0
12479,note_on,,119,0,13,,,,,,,,,,,,,,,,12,,69,0
12479,note_on,,119,0,11,,,,,,,,,,,,,,,,10,,85,0
12479,note_on,,119,0,12,,,,,,,,,,,,,,,,11,,76,0
12479,note_on,,0,0,15,,,,,,,,,,,,,,,,15,,61,0
12479,note_on,,119,0,7,,,,,,,,,,,,,,,,5,,73,0
12479,note_on,,0,0,15,,,,,,,,,,,,,,,,15,,69,0
12479,note_on,,119,0,5,,,,,,,,,,,,,,,,1,,73,0
12479,note_on,,119,0,10,,,,,,,,,,,,,,,,8,,57,0
12479,note_on,,119,0,8,,,,,,,,,,,,,,,,6,,69,0
12479,note_on,,0,0,15,,,,,,,,,,,,,,,,15,,76,0
12479,note_on,,119,0,14,,,,,,,,,,,,,,,,13,,57,0
12479,note_on,,119,0,9,,,,,,,,,,,,,,,,7,,64,0
12480,note_on,,1,0,12,,,,,,,,,,,,,,,,11,,77,72
12480,note_on,,1,0,6,,,,,,,,,,,,,,,,2,,62,72
12480,note_on,,1,0,11,,,,,,,,,,,,,,,,10,,86,72
12480,note_on,,0,0,15,,,,,,,,,,,,,,,,15,,65,72
12480,note_on,,0,0,15,,,,,,,,,,,,,,,,15,,69,72
12480,note_on,,1,0,5,,,,,,,,,,,,,,,,1,,74,72
12480,note_on,,0,0,15,,,,,,,,,,,,,,,,15,,74,72
12480,note_on,,1,0,15,,,,,,,,,,,,,,,,15,,62,72
12480,note_on,,0,0,15,,,,,,,,,,,,,,,,15,,77,72
12480,note_on,,1,0,8,,,,,,,,,,,,,,,,6,,69,72
12480,note_on,,1,0,7,,,,,,,,,,,,,,,,5,,74,72
12480,note_on,,1,0,10,,,,,,,,,,,,,,,,8,,62,72
12480,note_on,,1,0,14,,,,,,,,,,,,,,,,13,,62,72
12480,note_on,,1,0,13,,,,,,,,,,,,,,,,12,,69,72
12480,note_on,,1,0,9,,,,,,,,,,,,,,,,7,,65,72
12539,note_on,,59,0,13,,,,,,,,,,,,,,,,12,,69,0
12539,note_on,,59,0,12,,,,,,,,,,,,,,,,11,,77,0
12539,note_on,,59,0,11,,,,,,,,,,,,,,,,10,,86,0
12540,note_on,,1,0,12,,,,,,,,,,,,,,,,11,,69,72
12540,note_on,,1,0,13,,,,,,,,,,,,,,,,12,,65,72
12540,note_on,,1,0,11,,,,,,,,,,,,,,,,10,,74,72
12599,note_on,,119,0,5,,,,,,,,,,,,,,,,1,,74,0
12599,note_on,,59,0,13,,,,,,,,,,,,,,,,12,,65,0
12599,note_on,,119,0,7,,,,,,,,,,,,,,,,5,,74,0
12599,note_on,,59,0,11,,,,,,,,,,,,,,,,10,,74,0
12599,note_on,,59,0,12,,,,,,,,,,,,,,,,11,,69,0
12599,note_on,,119,0,8,,,,,,,,,,,,,,,,6,,69,0
12599,note_on,,119,0,9,,,,,,,,,,,,,,,,7,,65,0
12599,note_on,,119,0,10,,,,,,,,,,,,,,,,8,,62,0
12599,note_on,,119,0,15,,,,,,,,,,,,,,,,15,,77,0
12599,note_on,,0,0,15,,,,,,,,,,,,,,,,15,,74,0
12599,note_on,,0,0,15,,,,,,,,,,,,,,,,15,,69,0
12600,note_on,,1,0,11,,,,,,,,,,,,,,,,10,,77,72
12600,note_on,,1,0,13,,,,,,,,,,,,,,,,12,,69,72
12600,note_on,,1,0,12,,,,,,,,,,,,,,,,11,,74,72
12659,note_on,,179,0,14,,,,,,,,,,,,,,,,13,,62,0
12659,note_on,,59,0,12,,,,,,,,,,,,,,,,11,,74,0
12659,note_on,,179,0,6,,,,,,,,,,,,,,,,2,,62,0
12659,note_on,,60,0,15,,,,,,,,,,,,,,,,15,,62,0
12659,note_on,,0,0,15,,,,,,,,,,,,,,,,15,,65,0
12659,note_on,,59,0,13,,,,,,,,,,,,,,,,12,,69,0
12659,note_on,,59,0,11,,,,,,,,,,,,,,,,10,,77,0
12660,note_on,,1,0,14,,,,,,,,,,,,,,,,13,,60,72
12660,note_on,,1,0,11,,,,,,,,,,,,,,,,10,,81,72
12660,note_on,,61,0,5,,,,,,,,,,,,,,,,1,,76,72
12660,note_on,,1,0,15,,,,,,,,,,,,,,,,15,,60,72
12660,note_on,,0,0,15,,,,,,,,,,,,,,,,15,,69,72
12660,note_on,,1,0,12,,,,,,,,,,,,,,,,11,,76,72
12660,note_on,,0,0,15,,,,,,,,,,,,,,,,15,,72,72
12660,note_on,,61,0,9,,,,,,,,,,,,,,,,7,,60,72
12660,note_on,,61,0,8,,,,,,,,,,,,,,,,6,,69,72
12660,note_on,,61,0,10,,,,,,,,,,,,,,,,8,,60,72
12660,note_on,,61,0,7,,,,,,,,,,,,,,,,5,,76,72
12660,note_on,,1,0,6,,,,,,,,,,,,,,,,2,,60,72
12660,note_on,,1,0,13,,,,,,,,,,,,,,,,12,,69,72
12660,note_on,,0,0,15,,,,,,,,,,,,,,,,15,,64,72
12719,note_on,,59,0,7,,,,,,,,,,,,,,,,5,,76,0
12719,note_on,,59,0,12,,,,,,,,,,,,,,,,11,,76,0
12719,note_on,,59,0,9,,,,,,,,,,,,,,,,7,,60,0
12719,note_on,,59,0,8,,,,,,,,,,,,,,,,6,,69,0
12719,note_on,,59,0,10,,,,,,,,,,,,,,,,8,,60,0
12719,note_on,,59,0,14,,,,,,,,,,,,,,,,13,,60,0
12719,note_on,,59,0,6,,,,,,,,,,,,,,,,2,,60,0
12719,note_on,,59,0,13,,,,,,,,,,,,,,,,12,,69,0
12719,note_on,,59,0,11,,,,,,,,,,,,,,,,10,,81,0
12719,note_on,,59,0,5,,,,,,,,,,,,,,,,1,,76,0
12719,note_on,,0,0,15,,,,,,,,,,,,,,,,15,,72,0
12719,note_on,,0,0,15,,,,,,,,,,,,,,,,15,,69,0
12719,note_on,,0,0,15,,,,,,,,,,,,,,,,15,,64,0
12719,note_on,,59,0,15,,,,,,,,,,,,,,,,15,,60,0
12720,note_on,,1,0,7,,,,,,,,,,,,,,,,5,,74,72
12720,note_on,,1,0,12,,,,,,,,,,,,,,,,11,,74,72
12720,note_on,,0,0,15,,,,,,,,,,,,,,,,15,,68,72
12720,note_on,,0,0,15,,,,,,,,,,,,,,,,15,,74,72
12720,note_on,,1,0,9,,,,,,,,,,,,,,,,7,,62,72
12720,note_on,,1,0,8,,,,,,,,,,,,,,,,6,,68,72
12720,note_on,,1,0,15,,,,,,,,,,,,,,,,15,,59,72
12720,note_on,,0,0,15,,,,,,,,,,,,,,,,15,,62,72
12720,note_on,,1,0,14,,,,,,,,,,,,,,,,13,,59,72
12720,note_on,,1,0,10,,,,,,,,,,,,,,,,8,,59,72
12720,note_on,,1,0,13,,,,,,,,,,,,,,,,12,,71,72
12720,note_on,,1,0,5,,,,,,,,,,,,,,,,1,,74,72
12720,note_on,,1,0,6,,,,,,,,,,,,,,,,2,,59,72
12720,note_on,,1,0,11,,,,,,,,,,,,,,,,10,,80,72
12779,note_on,,59,0,8,,,,,,,,,,,,,,,,6,,68,0
12779,note_on,,59,0,9,,,,,,,,,,,,,,,,7,,62,0
12779,note_on,,59,0,10,,,,,,,,,,,,,,,,8,,59,0
12779,note_on,,59,0,13,,,,,,,,,,,,,,,,12,,71,0
12779,note_on,,59,0,7,,,,,,,,,,,,,,,,5,,74,0
12779,note_on,,59,0,5,,,,,,,,,,,,,,,,1,,74,0
12779,note_on,,59,0,11,,,,,,,,,,,,,,,,10,,80,0
12779,note_on,,59,0,12,,,,,,,,,,,,,,,,11,,74,0
12779,note_on,,59,0,6,,,,,,,,,,,,,,,,2,,59,0
12779,note_on,,59,0,15,,,,,,,,,,,,,,,,15,,59,0
12779,note_on,,59,0,14,,,,,,,,,,,,,,,,13,,59,0
12780,note_on,,1,0,11,,,,,,,,,,,,,,,,10,,80,72
12780,note_on,,1,0,10,,,,,,,,,,,,,,,,8,,59,72
12780,note_on,,1,0,13,,,,,,,,,,,,,,,,12,,71,72
12780,note_on,,1,0,6,,,,,,,,,,,,,,,,2,,59,72
12780,note_on,,1,0,15,,,,,,,,,,,,,,,,15,,59,72
12780,note_on,,1,0,7,,,,,,,,,,,,,,,,5,,74,72
12780,note_on,,1,0,5,,,,,,,,,,,,,,,,1,,74,72
12780,note_on,,1,0,9,,,,,,,,,,,,,,,,7,,62,72
12780,note_on,,1,0,12,,,,,,,,,,,,,,,,11,,74,72
12780,note_on,,1,0,8,,,,,,,,,,,,,,,,6,,68,72
12780,note_on,,1,0,14,,,,,,,,,,,,,,,,13,,59,72
12839,note_on,,59,0,5,,,,,,,,,,,,,,,,1,,74,0
12839,note_on,,59,0,11,,,,,,,,,,,,,,,,10,,80,0
12839,note_on,,59,0,9,,,,,,,,,,,,,,,,7,,62,0
12839,note_on,,59,0,7,,,,,,,,,,,,,,,,5,,74,0
12839,note_on,,0,0,15,,,,,,,,,,,,,,,,15,,62,0
12839,note_on,,0,0,15,,,,,,,,,,,,,,,,15,,68,0
12839,note_on,,59,0,15,,,,,,,,,,,,,,,,15,,74,0
12839,note_on,,59,0,6,,,,,,,,,,,,,,,,2,,59,0
12839,note_on,,59,0,13,,,,,,,,,,,,,,,,12,,71,0
12839,note_on,,0,0,15,,,,,,,,,,,,,,,,15,,59,0
12839,note_on,,59,0,12,,,,,,,,,,,,,,,,11,,74,0
12839,note_on,,59,0,14,,,,,,,,,,,,,,,,13,,59,0
12839,note_on,,59,0,8,,,,,,,,,,,,,,,,6,,68,0
12839,note_on,,59,0,10,,,,,,,,,,,,,,,,8,,59,0
12840,note_on,,1,0,13,,,,,,,,,,,,,,,,12,,64,72
12840,note_on,,1,0,9,,,,,,,,,,,,,,,,7,,64,72
12840,note_on,,1,0,5,,,,,,,,,,,,,,,,1,,72,72
12840,note_on,,1,0,11,,,,,,,,,,,,,,,,10,,81,72
12840,note_on,,1,0,8,,,,,,,,,,,,,,,,6,,69,72
12840,note_on,,1,0,6,,,,,,,,,,,,,,,,2,,57,72
12840,note_on,,1,0,14,,,,,,,,,,,,,,,,13,,57,72
12840,note_on,,0,0,15,,,,,,,,,,,,,,,,15,,69,72
12840,note_on,,0,0,15,,,,,,,,,,,,,,,,15,,60,72
12840,note_on,,0,0,15,,,,,,,,,,,,,,,,15,,76,72
12840,note_on,,1,0,15,,,,,,,,,,,,,,,,15,,57,72
12840,note_on,,1,0,10,,,,,,,,,,,,,,,,8,,57,72
12840,note_on,,1,0,12,,,,,,,,,,,,,,,,11,,72,72
12840,note_on,,0,0,15,,,,,,,,,,,,,,,,15,,72,72
12840,note_on,,1,0,7,,,,,,,,,,,,,,,,5,,72,72
12899,note_on,,59,0,13,,,,,,,,,,,,,,,,12,,64,0
12899,note_on,,59,0,15,,,,,,,,,,,,,,,,15,,57,0
12899,note_on,,59,0,6,,,,,,,,,,,,,,,,2,,57,0
12899,note_on,,59,0,8,,,,,,,,,,,,,,,,6,,69,0
12899,note_on,,59,0,7,,,,,,,,,,,,,,,,5,,72,0
12899,note_on,,59,0,11,,,,,,,,,,,,,,,,10,,81,0
12899,note_on,,59,0,5,,,,,,,,,,,,,,,,1,,72,0
12899,note_on,,59,0,9,,,,,,,,,,,,,,,,7,,64,0
12899,note_on,,59,0,10,,,,,,,,,,,,,,,,8,,57,0
12899,note_on,,59,0,14,,,,,,,,,,,,,,,,13,,57,0
12899,note_on,,59,0,12,,,,,,,,,,,,,,,,11,,72,0
12900,note_on,,1,0,6,,,,,,,,,,,,,,,,2,,57,72
12900,note_on,,1,0,12,,,,,,,,,,,,,,,,11,,81,72
12900,note_on,,1,0,9,,,,,,,,,,,,,,,,7,,64,72
12900,note_on,,1,0,5,,,,,,,,,,,,,,,,1,,72,72
12900,note_on,,1,0,7,,,,,,,,,,,,,,,,5,,72,72
12900,note_on,,1,0,8,,,,,,,,,,,,,,,,6,,69,72
12900,note_on,,1,0,13,,,,,,,,,,,,,,,,12,,64,72
12900,note_on,,1,0,10,,,,,,,,,,,,,,,,8,,57,72
12900,note_on,,1,0,15,,,,,,,,,,,,,,,,15,,57,72
12900,note_on,,1,0,14,,,,,,,,,,,,,,,,13,,57,72
12900,note_on,,1,0,11,,,,,,,,,,,,,,,,10,,81,72
12959,note_on,,0,0,15,,,,,,,,,,,,,,,,15,,72,0
12959,note_on,,59,0,6,,,,,,,,,,,,,,,,2,,57,0
12959,note_on,,59,0,11,,,,,,,,,,,,,,,,10,,81,0
12959,note_on,,59,0,5,,,,,,,,,,,,,,,,1,,72,0
12959,note_on,,59,0,7,,,,,,,,,,,,,,,,5,,72,0
12959,note_on,,0,0,15,,,,,,,,,,,,,,,,15,,69,0
12959,note_on,,59,0,12,,,,,,,,,,,,,,,,11,,81,0
12959,note_on,,0,0,15,,,,,,,,,,,,,,,,15,,60,0
12959,note_on,,59,0,15,,,,,,,,,,,,,,,,15,,76,0
12959,note_on,,59,0,13,,,,,,,,,,,,,,,,12,,64,0
12959,note_on,,0,0,15,,,,,,,,,,,,,,,,15,,57,0
12959,note_on,,59,0,14,,,,,,,,,,,,,,,,13,,57,0
12959,note_on,,59,0,10,,,,,,,,,,,,,,,,8,,57,0
12959,note_on,,59,0,9,,,,,,,,,,,,,,,,7,,64,0
12959,note_on,,59,0,8,,,,,,,,,,,,,,,,6,,69,0
12960,note_on,,0,0,15,,,,,,,,,,,,,,,,15,,76,72
12960,note_on,,1,0,13,,,,,,,,,,,,,,,,12,,64,72
12960,note_on,,1,0,10,,,,,,,,,,,,,,,,8,,64,72
12960,note_on,,1,0,11,,,,,,,,,,,,,,,,10,,83,72
12960,note_on,,1,0,6,,,,,,,,,,,,,,,,2,,64,72
12960,note_on,,1,0,8,,,,,,,,,,,,,,,,6,,68,72
12960,note_on,,1,0,15,,,,,,,,,,,,,,,,15,,64,72
12960,note_on,,1,0,5,,,,,,,,,,,,,,,,1,,71,72
12960,note_on,,1,0,7,,,,,,,,,,,,,,,,5,,71,72
12960,note_on,,0,0,15,,,,,,,,,,,,,,,,15,,71,72
12960,note_on,,1,0,12,,,,,,,,,,,,,,,,11,,80,72
12960,note_on,,0,0,15,,,,,,,,,,,,,,,,15,,68,72
12960,note_on,,1,0,9,,,,,,,,,,,,,,,,7,,64,72
12960,note_on,,1,0,14,,,,,,,,,,,,,,,,13,,64,72
13019,note_on,,59,0,12,,,,,,,,,,,,,,,,11,,80,0
13019,note_on,,59,0,11,,,,,,,,,,,,,,,,10,,83,0
13019,note_on,,59,0,13,,,,,,,,,,,,,,,,12,,64,0
13020,note_on,,1,0,12,,,,,,,,,,,,,,,,11,,68,72
13020,note_on,,1,0,13,,,,,,,,,,,,,,,,12,,71,72
13020,note_on,,1,0,11,,,,,,,,,,,,,,,,10,,76,72
13079,note_on,,119,0,14,,,,,,,,,,,,,,,,13,,64,0
13079,note_on,,59,0,11,,,,,,,,,,,,,,,,10,,76,0
13079,note_on,,59,0,13,,,,,,,,,,,,,,,,12,,71,0
13079,note_on,,59,0,12,,,,,,,,,,,,,,,,11,,68,0
13079,note_on,,119,0,10,,,,,,,,,,,,,,,,8,,64,0
13079,note_on,,119,0,6,,,,,,,,,,,,,,,,2,,64,0
13079,note_on,,119,0,8,,,,,,,,,,,,,,,,6,,68,0
13079,note_on,,119,0,7,,,,,,,,,,,,,,,,5,,71,0
13079,note_on,,119,0,9,,,,,,,,,,,,,,,,7,,64,0
13079,note_on,,0,0,15,,,,,,,,,,,,,,,,15,,76,0
13079,note_on,,0,0,15,,,,,,,,,,,,,,,,15,,71,0
13079,note_on,,0,0,15,,,,,,,,,,,,,,,,15,,68,0
13079,note_on,,119,0,15,,,,,,,,,,,,,,,,15,,64,0
13079,note_on,,119,0,5,,,,,,,,,,,,,,,,1,,71,0
13080,note_on,,1,0,14,,,,,,,,,,,,,,,,13,,52,72
13080,note_on,,1,0,9,,,,,,,,,,,,,,,,7,,59,72
13080,note_on,,0,0,15,,,,,,,,,,,,,,,,15,,68,72
13080,note_on,,1,0,10,,,,,,,,,,,,,,,,8,,52,72
13080,note_on,,1,0,13,,,,,,,,,,,,,,,,12,,76,72
13080,note_on,,1,0,5,,,,,,,,,,,,,,,,1,,76,72
13080,note_on,,0,0,15,,,,,,,,,,,,,,,,15,,71,72
13080,note_on,,0,0,15,,,,,,,,,,,,,,,,15,,52,72
13080,note_on,,1,0,7,,,,,,,,,,,,,,,,5,,76,72
13080,note_on,,1,0,12,,,,,,,,,,,,,,,,11,,71,72
13080,note_on,,1,0,8,,,,,,,,,,,,,,,,6,,68,72
13080,note_on,,1,0,15,,,,,,,,,,,,,,,,15,,64,72
13080,note_on,,1,0,11,,,,,,,,,,,,,,,,10,,80,72
13080,note_on,,1,0,6,,,,,,,,,,,,,,,,2,,52,72
13139,note_on,,59,0,5,,,,,,,,,,,,,,,,1,,76,0
13139,note_on,,59,0,10,,,,,,,,,,,,,,,,8,,52,0
13139,note_on,,59,0,13,,,,,,,,,,,,,,,,12,,76,0
13139,note_on,,59,0,8,,,,,,,,,,,,,,,,6,,68,0
13139,note_on,,59,0,7,,,,,,,,,,,,,,,,5,,76,0
13139,note_on,,59,0,9,,,,,,,,,,,,,,,,7,,59,0
13139,note_on,,59,0,11,,,,,,,,,,,,,,,,10,,80,0
13139,note_on,,59,0,12,,,,,,,,,,,,,,,,11,,71,0
13140,note_on,,1,0,7,,,,,,,,,,,,,,,,5,,76,72
13140,note_on,,1,0,9,,,,,,,,,,,,,,,,7,,59,72
13140,note_on,,1,0,12,,,,,,,,,,,,,,,,11,,80,72
13140,note_on,,1,0,11,,,,,,,,,,,,,,,,10,,83,72
13140,note_on,,1,0,10,,,,,,,,,,,,,,,,8,,52,72
13140,note_on,,1,0,8,,,,,,,,,,,,,,,,6,,68,72
13140,note_on,,1,0,5,,,,,,,,,,,,,,,,1,,76,72
13140,note_on,,1,0,13,,,,,,,,,,,,,,,,12,,64,72
13199,note_on,,59,0,9,,,,,,,,,,,,,,,,7,,59,0
13199,note_on,,59,0,10,,,,,,,,,,,,,,,,8,,52,0
13199,note_on,,119,0,14,,,,,,,,,,,,,,,,13,,52,0
13199,note_on,,59,0,12,,,,,,,,,,,,,,,,11,,80,0
13199,note_on,,119,0,6,,,,,,,,,,,,,,,,2,,52,0
13199,note_on,,59,0,13,,,,,,,,,,,,,,,,12,,64,0
13199,note_on,,119,0,15,,,,,,,,,,,,,,,,15,,64,0
13199,note_on,,0,0,15,,,,,,,,,,,,,,,,15,,52,0
13199,note_on,,0,0,15,,,,,,,,,,,,,,,,15,,71,0
13199,note_on,,59,0,5,,,,,,,,,,,,,,,,1,,76,0
13199,note_on,,59,0,7,,,,,,,,,,,,,,,,5,,76,0
13199,note_on,,0,0,15,,,,,,,,,,,,,,,,15,,68,0
13199,note_on,,59,0,8,,,,,,,,,,,,,,,,6,,68,0
13199,note_on,,59,0,11,,,,,,,,,,,,,,,,10,,83,0
13200,note_on,,1,0,9,,,,,,,,,,,,,,,,7,,60,72
13200,note_on,,1,0,12,,,,,,,,,,,,,,,,11,,76,72
13200,note_on,,0,0,15,,,,,,,,,,,,,,,,15,,64,72
13200,note_on,,0,0,15,,,,,,,,,,,,,,,,15,,69,72
13200,note_on,,0,0,15,,,,,,,,,,,,,,,,15,,72,72
13200,note_on,,1,0,13,,,,,,,,,,,,,,,,12,,64,72
13200,note_on,,1,0,5,,,,,,,,,,,,,,,,1,,76,72
13200,note_on,,1,0,15,,,,,,,,,,,,,,,,15,,57,72
13200,note_on,,1,0,6,,,,,,,,,,,,,,,,2,,57,72
13200,note_on,,1,0,7,,,,,,,,,,,,,,,,5,,76,72
13200,note_on,,1,0,10,,,,,,,,,,,,,,,,8,,57,72
13200,note_on,,1,0,8,,,,,,,,,,,,,,,,6,,69,72
13200,note_on,,1,0,11,,,,,,,,,,,,,,,,10,,84,72
13200,note_on,,1,0,14,,,,,,,,,,,,,,,,13,,57,72
13259,note_on,,59,0,12,,,,,,,,,,,,,,,,11,,76,0
13259,note_on,,59,0,11,,,,,,,,,,,,,,,,10,,84,0
13260,note_on,,1,0,11,,,,,,,,,,,,,,,,10,,76,72
13260,note_on,,1,0,12,,,,,,,,,,,,,,,,11,,69,72
13319,note_on,,119,0,6,,,,,,,,,,,,,,,,2,,57,0
13319,note_on,,0,0,15,,,,,,,,,,,,,,,,15,,69,0
13319,note_on,,0,0,15,,,,,,,,,,,,,,,,15,,64,0
13319,note_on,,59,0,12,,,,,,,,,,,,,,,,11,,69,0
13319,note_on,,119,0,7,,,,,,,,,,,,,,,,5,,76,0
13319,note_on,,119,0,13,,,,,,,,,,,,,,,,12,,64,0
13319,note_on,,119,0,14,,,,,,,,,,,,,,,,13,,57,0
13319,note_on,,119,0,8,,,,,,,,,,,,,,,,6,,69,0
13319,note_on,,119,0,10,,,,,,,,,,,,,,,,8,,57,0
13319,note_on,,59,0,11,,,,,,,,,,,,,,,,10,,76,0
13319,note_on,,119,0,9,,,,,,,,,,,,,,,,7,,60,0
13319,note_on,,119,0,5,,,,,,,,,,,,,,,,1,,76,0
13319,note_on,,0,0,15,,,,,,,,,,,,,,,,15,,72,0
13319,note_on,,119,0,15,,,,,,,,,,,,,,,,15,,57,0
13320,note_on,,1,0,14,,,,,,,,,,,,,,,,13,,60,72
13320,note_on,,1,0,12,,,,,,,,,,,,,,,,11,,69,72
13320,note_on,,1,0,9,,,,,,,,,,,,,,,,7,,64,72
13320,note_on,,1,0,15,,,,,,,,,,,,,,,,15,,69,72
13320,note_on,,0,0,15,,,,,,,,,,,,,,,,15,,60,72
13320,note_on,,0,0,15,,,,,,,,,,,,,,,,15,,76,72
13320,note_on,,0,0,15,,,,,,,,,,,,,,,,15,,64,72
13320,note_on,,1,0,7,,,,,,,,,,,,,,,,5,,72,72
13320,note_on,,1,0,13,,,,,,,,,,,,,,,,12,,64,72
13320,note_on,,1,0,8,,,,,,,,,,,,,,,,6,,69,72
13320,note_on,,1,0,10,,,,,,,,,,,,,,,,8,,60,72
13320,note_on,,1,0,11,,,,,,,,,,,,,,,,10,,76,72
13320,note_on,,1,0,5,,,,,,,,,,,,,,,,1,,72,72
13320,note_on,,1,0,6,,,,,,,,,,,,,,,,2,,60,72
13379,note_on,,59,0,12,,,,,,,,,,,,,,,,11,,69,0
13379,note_on,,59,0,11,,,,,,,,,,,,,,,,10,,76,0
13380,note_on,,1,0,12,,,,,,,,,,,,,,,,11,,76,72
13380,note_on,,1,0,11,,,,,,,,,,,,,,,,10,,81,72
13439,note_on,,119,0,9,,,,,,,,,,,,,,,,7,,64,0
13439,note_on,,119,0,8,,,,,,,,,,,,,,,,6,,69,0
13439,note_on,,0,0,15,,,,,,,,,,,,,,,,15,,64,0
13439,note_on,,119,0,10,,,,,,,,,,,,,,,,8,,60,0
13439,note_on,,119,0,14,,,,,,,,,,,,,,,,13,,60,0
13439,note_on,,119,0,5,,,,,,,,,,,,,,,,1,,72,0
13439,note_on,,119,0,7,,,,,,,,,,,,,,,,5,,72,0
13439,note_on,,0,0,15,,,,,,,,,,,,,,,,15,,76,0
13439,note_on,,0,0,15,,,,,,,,,,,,,,,,15,,60,0
13439,note_on,,59,0,12,,,,,,,,,,,,,,,,11,,76,0
13439,note_on,,119,0,13,,,,,,,,,,,,,,,,12,,64,0
13439,note_on,,59,0,11,,,,,,,,,,,,,,,,10,,81,0
13439,note_on,,119,0,6,,,,,,,,,,,,,,,,2,,60,0
13439,note_on,,119,0,15,,,,,,,,,,,,,,,,15,,69,0
13440,note_on,,1,0,14,,,,,,,,,,,,,,,,13,,64,72
13440,note_on,,1,0,15,,,,,,,,,,,,,,,,15,,64,72
13440,note_on,,0,0,15,,,,,,,,,,,,,,,,15,,71,72
13440,note_on,,0,0,15,,,,,,,,,,,,,,,,15,,68,72
13440,note_on,,1,0,5,,,,,,,,,,,,,,,,1,,71,72
13440,note_on,,1,0,11,,,,,,,,,,,,,,,,10,,80,72
13440,note_on,,1,0,12,,,,,,,,,,,,,,,,11,,71,72
13440,note_on,,1,0,6,,,,,,,,,,,,,,,,2,,64,72
13440,note_on,,1,0,10,,,,,,,,,,,,,,,,8,,64,72
13440,note_on,,1,0,9,,,,,,,,,,,,,,,,7,,64,72
13440,note_on,,1,0,8,,,,,,,,,,,,,,,,6,,68,72
13440,note_on,,1,0,7,,,,,,,,,,,,,,,,5,,71,72
13440,note_on,,1,0,13,,,,,,,,,,,,,,,,12,,64,72
13499,note_on,,59,0,12,,,,,,,,,,,,,,,,11,,71,0
13499,note_on,,59,0,11,,,,,,,,,,,,,,,,10,,80,0
13500,note_on,,1,0,11,,,,,,,,,,,,,,,,10,,76,72
13500,note_on,,1,0,12,,,,,,,,,,,,,,,,11,,80,72
13559,note_on,,59,0,11,,,,,,,,,,,,,,,,10,,76,0
13559,note_on,,119,0,13,,,,,,,,,,,,,,,,12,,64,0
13559,note_on,,59,0,12,,,,,,,,,,,,,,,,11,,80,0
13559,note_on,,0,0,15,,,,,,,,,,,,,,,,15,,71,0
13559,note_on,,119,0,6,,,,,,,,,,,,,,,,2,,64,0
13559,note_on,,119,0,10,,,,,,,,,,,,,,,,8,,64,0
13559,note_on,,119,0,7,,,,,,,,,,,,,,,,5,,71,0
13559,note_on,,119,0,15,,,,,,,,,,,,,,,,15,,64,0
13559,note_on,,119,0,5,,,,,,,,,,,,,,,,1,,71,0
13559,note_on,,119,0,8,,,,,,,,,,,,,,,,6,,68,0
13559,note_on,,119,0,9,,,,,,,,,,,,,,,,7,,64,0
13559,note_on,,0,0,15,,,,,,,,,,,,,,,,15,,68,0
13559,note_on,,119,0,14,,,,,,,,,,,,,,,,13,,64,0
13560,note_on,,1,0,11,,,,,,,,,,,,,,,,10,,80,72
13560,note_on,,1,0,12,,,,,,,,,,,,,,,,11,,83,72
13619,note_on,,59,0,11,,,,,,,,,,,,,,,,10,,80,0
13619,note_on,,59,0,12,,,,,,,,,,,,,,,,11,,83,0
13620,note_on,,61,0,10,,,,,,,,,,,,,,,,8,,52,72
13620,note_on,,61,0,7,,,,,,,,,,,,,,,,5,,71,72
13620,note_on,,61,0,13,,,,,,,,,,,,,,,,12,,64,72
13620,note_on,,0,0,15,,,,,,,,,,,,,,,,15,,64,72
13620,note_on,,0,0,15,,,,,,,,,,,,,,,,15,,68,72
13620,note_on,,0,0,15,,,,,,,,,,,,,,,,15,,76,72
13620,note_on,,61,0,15,,,,,,,,,,,,,,,,15,,52,72
13620,note_on,,61,0,14,,,,,,,,,,,,,,,,13,,52,72
13620,note_on,,1,0,12,,,,,,,,,,,,,,,,11,,80,72
13620,note_on,,1,0,11,,,,,,,,,,,,,,,,10,,83,72
13620,note_on,,61,0,6,,,,,,,,,,,,,,,,2,,52,72
13620,note_on,,61,0,8,,,,,,,,,,,,,,,,6,,68,72
13620,note_on,,61,0,5,,,,,,,,,,,,,,,,1,,71,72
13620,note_on,,61,0,9,,,,,,,,,,,,,,,,7,,64,72
13679,note_on,,59,0,9,,,,,,,,,,,,,,,,7,,64,0
13679,note_on,,59,0,14,,,,,,,,,,,,,,,,13,,52,0
13679,note_on,,59,0,8,,,,,,,,,,,,,,,,6,,68,0
13679,note_on,,59,0,10,,,,,,,,,,,,,,,,8,,52,0
13679,note_on,,59,0,11,,,,,,,,,,,,,,,,10,,83,0
13679,note_on,,59,0,13,,,,,,,,,,,,,,,,12,,64,0
13679,note_on,,59,0,7,,,,,,,,,,,,,,,,5,,71,0
13679,note_on,,0,0,15,,,,,,,,,,,,,,,,15,,68,0
13679,note_on,,0,0,15,,,,,,,,,,,,,,,,15,,64,0
13679,note_on,,0,0,15,,,,,,,,,,,,,,,,15,,76,0
13679,note_on,,59,0,15,,,,,,,,,,,,,,,,15,,52,0
13679,note_on,,59,0,12,,,,,,,,,,,,,,,,11,,80,0
13679,note_on,,59,0,5,,,,,,,,,,,,,,,,1,,71,0
13679,note_on,,59,0,6,,,,,,,,,,,,,,,,2,,52,0
13680,note_on,,0,0,15,,,,,,,,,,,,,,,,15,,72,72
13680,note_on,,0,0,15,,,,,,,,,,,,,,,,15,,69,72
13680,note_on,,0,0,15,,,,,,,,,,,,,,,,15,,64,72
13680,note_on,,1,0,13,,,,,,,,,,,,,,,,12,,60,72
13680,note_on,,1,0,14,,,,,,,,,,,,,,,,13,,45,72
13680,note_on,,1,0,5,,,,,,,,,,,,,,,,1,,72,72
13680,note_on,,1,0,6,,,,,,,,,,,,,,,,2,,45,72
13680,note_on,,1,0,10,,,,,,,,,,,,,,,,8,,45,72
13680,note_on,,1,0,15,,,,,,,,,,,,,,,,15,,45,72
13680,note_on,,1,0,11,,,,,,,,,,,,,,,,10,,84,72
13680,note_on,,1,0,8,,,,,,,,,,,,,,,,6,,69,72
13680,note_on,,1,0,9,,,,,,,,,,,,,,,,7,,64,72
13680,note_on,,1,0,12,,,,,,,,,,,,,,,,11,,76,72
13680,note_on,,1,0,7,,,,,,,,,,,,,,,,5,,72,72
13739,note_on,,59,0,13,,,,,,,,,,,,,,,,12,,60,0
13739,note_on,,59,0,15,,,,,,,,,,,,,,,,15,,45,0
13739,note_on,,59,0,14,,,,,,,,,,,,,,,,13,,45,0
13739,note_on,,59,0,12,,,,,,,,,,,,,,,,11,,76,0
13739,note_on,,59,0,7,,,,,,,,,,,,,,,,5,,72,0
13739,note_on,,59,0,11,,,,,,,,,,,,,,,,10,,84,0
13739,note_on,,59,0,5,,,,,,,,,,,,,,,,1,,72,0
13739,note_on,,59,0,6,,,,,,,,,,,,,,,,2,,45,0
13739,note_on,,59,0,8,,,,,,,,,,,,,,,,6,,69,0
13739,note_on,,59,0,10,,,,,,,,,,,,,,,,8,,45,0
13739,note_on,,59,0,9,,,,,,,,,,,,,,,,7,,64,0
13740,note_on,,1,0,11,,,,,,,,,,,,,,,,10,,80,72
13740,note_on,,1,0,6,,,,,,,,,,,,,,,,2,,47,72
13740,note_on,,1,0,12,,,,,,,,,,,,,,,,11,,74,72
13740,note_on,,1,0,9,,,,,,,,,,,,,,,,7,,62,72
13740,note_on,,1,0,5,,,,,,,,,,,,,,,,1,,71,72
13740,note_on,,1,0,7,,,,,,,,,,,,,,,,5,,71,72
13740,note_on,,1,0,8,,,,,,,,,,,,,,,,6,,68,72
13740,note_on,,1,0,13,,,,,,,,,,,,,,,,12,,62,72
13740,note_on,,1,0,14,,,,,,,,,,,,,,,,13,,47,72
13740,note_on,,1,0,15,,,,,,,,,,,,,,,,15,,47,72
13740,note_on,,1,0,10,,,,,,,,,,,,,,,,8,,47,72
13799,note_on,,0,0,15,,,,,,,,,,,,,,,,15,,64,0
13799,note_on,,59,0,9,,,,,,,,,,,,,,,,7,,62,0
13799,note_on,,0,0,15,,,,,,,,,,,,,,,,15,,69,0
13799,note_on,,59,0,15,,,,,,,,,,,,,,,,15,,72,0
13799,note_on,,59,0,8,,,,,,,,,,,,,,,,6,,68,0
13799,note_on,,59,0,12,,,,,,,,,,,,,,,,11,,74,0
13799,note_on,,0,0,15,,,,,,,,,,,,,,,,15,,47,0
13799,note_on,,59,0,13,,,,,,,,,,,,,,,,12,,62,0
13799,note_on,,59,0,14,,,,,,,,,,,,,,,,13,,47,0
13799,note_on,,59,0,6,,,,,,,,,,,,,,,,2,,47,0
13799,note_on,,59,0,7,,,,,,,,,,,,,,,,5,,71,0
13799,note_on,,59,0,5,,,,,,,,,,,,,,,,1,,71,0
13799,note_on,,59,0,10,,,,,,,,,,,,,,,,8,,47,0
13799,note_on,,59,0,11,,,,,,,,,,,,,,,,10,,80,0
13800,note_on,,1,0,6,,,,,,,,,,,,,,,,2,,48,72
13800,note_on,,1,0,5,,,,,,,,,,,,,,,,1,,69,72
13800,note_on,,1,0,10,,,,,,,,,,,,,,,,8,,48,72
13800,note_on,,1,0,9,,,,,,,,,,,,,,,,7,,64,72
13800,note_on,,1,0,8,,,,,,,,,,,,,,,,6,,69,72
13800,note_on,,1,0,14,,,,,,,,,,,,,,,,13,,48,72
13800,note_on,,1,0,13,,,,,,,,,,,,,,,,12,,64,72
13800,note_on,,1,0,12,,,,,,,,,,,,,,,,11,,72,72
13800,note_on,,1,0,7,,,,,,,,,,,,,,,,5,,69,72
13800,note_on,,1,0,11,,,,,,,,,,,,,,,,10,,81,72
13800,note_on,,1,0,15,,,,,,,,,,,,,,,,15,,48,72
13859,note_on,,59,0,7,,,,,,,,,,,,,,,,5,,69,0
13859,note_on,,59,0,12,,,,,,,,,,,,,,,,11,,72,0
13859,note_on,,59,0,5,,,,,,,,,,,,,,,,1,,69,0
13859,note_on,,59,0,6,,,,,,,,,,,,,,,,2,,48,0
13859,note_on,,59,0,9,,,,,,,,,,,,,,,,7,,64,0
13859,note_on,,59,0,13,,,,,,,,,,,,,,,,12,,64,0
13859,note_on,,59,0,10,,,,,,,,,,,,,,,,8,,48,0
13859,note_on,,59,0,11,,,,,,,,,,,,,,,,10,,81,0
13859,note_on,,59,0,15,,,,,,,,,,,,,,,,15,,48,0
13859,note_on,,59,0,8,,,,,,,,,,,,,,,,6,,69,0
13859,note_on,,59,0,14,,,,,,,,,,,,,,,,13,,48,0
13860,note_on,,1,0,10,,,,,,,,,,,,,,,,8,,50,72
13860,note_on,,1,0,15,,,,,,,,,,,,,,,,15,,50,72
13860,note_on,,1,0,6,,,,,,,,,,,,,,,,2,,50,72
13860,note_on,,1,0,5,,,,,,,,,,,,,,,,1,,77,72
13860,note_on,,1,0,9,,,,,,,,,,,,,,,,7,,65,72
13860,note_on,,1,0,7,,,,,,,,,,,,,,,,5,,77,72
13860,note_on,,1,0,11,,,,,,,,,,,,,,,,10,,83,72
13860,note_on,,1,0,12,,,,,,,,,,,,,,,,11,,71,72
13860,note_on,,1,0,14,,,,,,,,,,,,,,,,13,,50,72
13860,note_on,,1,0,13,,,,,,,,,,,,,,,,12,,65,72
13860,note_on,,1,0,8,,,,,,,,,,,,,,,,6,,71,72
13919,note_on,,59,0,14,,,,,,,,,,,,,,,,13,,50,0
13919,note_on,,59,0,10,,,,,,,,,,,,,,,,8,,50,0
13919,note_on,,59,0,7,,,,,,,,,,,,,,,,5,,77,0
13919,note_on,,59,0,12,,,,,,,,,,,,,,,,11,,71,0
13919,note_on,,59,0,15,,,,,,,,,,,,,,,,15,,50,0
13919,note_on,,59,0,13,,,,,,,,,,,,,,,,12,,65,0
13919,note_on,,59,0,5,,,,,,,,,,,,,,,,1,,77,0
13919,note_on,,59,0,11,,,,,,,,,,,,,,,,10,,83,0
13919,note_on,,59,0,9,,,,,,,,,,,,,,,,7,,65,0
13919,note_on,,59,0,6,,,,,,,,,,,,,,,,2,,50,0
13919,note_on,,59,0,8,,,,,,,,,,,,,,,,6,,71,0
13920,note_on,,1,0,9,,,,,,,,,,,,,,,,7,,59,72
13920,note_on,,1,0,11,,,,,,,,,,,,,,,,10,,80,72
13920,note_on,,1,0,8,,,,,,,,,,,,,,,,6,,68,72
13920,note_on,,1,0,6,,,,,,,,,,,,,,,,2,,52,72
13920,note_on,,1,0,7,,,,,,,,,,,,,,,,5,,76,72
13920,note_on,,1,0,12,,,,,,,,,,,,,,,,11,,71,72
13920,note_on,,1,0,10,,,,,,,,,,,,,,,,8,,52,72
13920,note_on,,1,0,14,,,,,,,,,,,,,,,,13,,52,72
13920,note_on,,1,0,15,,,,,,,,,,,,,,,,15,,52,72
13920,note_on,,1,0,5,,,,,,,,,,,,,,,,1,,76,72
13920,note_on,,0,0,15,,,,,,,,,,,,,,,,15,,71,72
13920,note_on,,1,0,13,,,,,,,,,,,,,,,,12,,64,72
13920,note_on,,0,0,15,,,,,,,,,,,,,,,,15,,68,72
13920,note_on,,0,0,15,,,,,,,,,,,,,,,,15,,64,72
13979,note_on,,59,0,12,,,,,,,,,,,,,,,,11,,71,0
13979,note_on,,59,0,13,,,,,,,,,,,,,,,,12,,64,0
13979,note_on,,59,0,11,,,,,,,,,,,,,,,,10,,80,0
13980,note_on,,1,0,12,,,,,,,,,,,,,,,,11,,68,72
13980,note_on,,1,0,13,,,,,,,,,,,,,,,,12,,71,72
13980,note_on,,1,0,11,,,,,,,,,,,,,,,,10,,76,72
14039,note_on,,0,0,15,,,,,,,,,,,,,,,,15,,64,0
14039,note_on,,119,0,8,,,,,,,,,,,,,,,,6,,68,0
14039,note_on,,119,0,5,,,,,,,,,,,,,,,,1,,76,0
14039,note_on,,59,0,11,,,,,,,,,,,,,,,,10,,76,0
14039,note_on,,119,0,15,,,,,,,,,,,,,,,,15,,52,0
14039,note_on,,0,0,15,,,,,,,,,,,,,,,,15,,71,0
14039,note_on,,119,0,6,,,,,,,,,,,,,,,,2,,52,0
14039,note_on,,119,0,7,,,,,,,,,,,,,,,,5,,76,0
14039,note_on,,119,0,9,,,,,,,,,,,,,,,,7,,59,0
14039,note_on,,119,0,14,,,,,,,,,,,,,,,,13,,52,0
14039,note_on,,119,0,10,,,,,,,,,,,,,,,,8,,52,0
14039,note_on,,59,0,12,,,,,,,,,,,,,,,,11,,68,0
14039,note_on,,59,0,13,,,,,,,,,,,,,,,,12,,71,0
14039,note_on,,0,0,15,,,,,,,,,,,,,,,,15,,68,0
14040,note_on,,1,0,13,,,,,,,,,,,,,,,,12,,69,72
14040,note_on,,1,0,14,,,,,,,,,,,,,,,,13,,54,72
14040,note_on,,1,0,8,,,,,,,,,,,,,,,,6,,69,72
14040,note_on,,1,0,6,,,,,,,,,,,,,,,,2,,54,72
14040,note_on,,1,0,5,,,,,,,,,,,,,,,,1,,74,72
14040,note_on,,1,0,15,,,,,,,,,,,,,,,,15,,54,72
14040,note_on,,1,0,11,,,,,,,,,,,,,,,,10,,74,72
14040,note_on,,1,0,7,,,,,,,,,,,,,,,,5,,74,72
14040,note_on,,1,0,10,,,,,,,,,,,,,,,,8,,54,72
14040,note_on,,1,0,12,,,,,,,,,,,,,,,,11,,69,72
14040,note_on,,1,0,9,,,,,,,,,,,,,,,,7,,57,72
14099,note_on,,59,0,10,,,,,,,,,,,,,,,,8,,54,0
14099,note_on,,59,0,7,,,,,,,,,,,,,,,,5,,74,0
14099,note_on,,59,0,8,,,,,,,,,,,,,,,,6,,69,0
14099,note_on,,59,0,15,,,,,,,,,,,,,,,,15,,54,0
14099,note_on,,59,0,14,,,,,,,,,,,,,,,,13,,54,0
14099,note_on,,59,0,9,,,,,,,,,,,,,,,,7,,57,0
14099,note_on,,59,0,6,,,,,,,,,,,,,,,,2,,54,0
14099,note_on,,59,0,12,,,,,,,,,,,,,,,,11,,69,0
14099,note_on,,59,0,13,,,,,,,,,,,,,,,,12,,69,0
14099,note_on,,59,0,5,,,,,,,,,,,,,,,,1,,74,0
14099,note_on,,59,0,11,,,,,,,,,,,,,,,,10,,74,0
14100,note_on,,1,0,11,,,,,,,,,,,,,,,,10,,76,72
14100,note_on,,1,0,7,,,,,,,,,,,,,,,,5,,76,72
14100,note_on,,1,0,6,,,,,,,,,,,,,,,,2,,56,72
14100,note_on,,1,0,15,,,,,,,,,,,,,,,,15,,56,72
14100,note_on,,1,0,10,,,,,,,,,,,,,,,,8,,56,72
14100,note_on,,1,0,14,,,,,,,,,,,,,,,,13,,56,72
14100,note_on,,1,0,8,,,,,,,,,,,,,,,,6,,71,72
14100,note_on,,1,0,13,,,,,,,,,,,,,,,,12,,64,72
14100,note_on,,1,0,5,,,,,,,,,,,,,,,,1,,76,72
14100,note_on,,1,0,9,,,,,,,,,,,,,,,,7,,64,72
14100,note_on,,1,0,12,,,,,,,,,,,,,,,,11,,71,72
14159,note_on,,59,0,6,,,,,,,,,,,,,,,,2,,56,0
14159,note_on,,59,0,5,,,,,,,,,,,,,,,,1,,76,0
14159,note_on,,59,0,13,,,,,,,,,,,,,,,,12,,64,0
14159,note_on,,59,0,11,,,,,,,,,,,,,,,,10,,76,0
14159,note_on,,59,0,8,,,,,,,,,,,,,,,,6,,71,0
14159,note_on,,59,0,14,,,,,,,,,,,,,,,,13,,56,0
14159,note_on,,59,0,7,,,,,,,,,,,,,,,,5,,76,0
14159,note_on,,59,0,15,,,,,,,,,,,,,,,,15,,56,0
14159,note_on,,59,0,12,,,,,,,,,,,,,,,,11,,71,0
14159,note_on,,59,0,9,,,,,,,,,,,,,,,,7,,64,0
14159,note_on,,59,0,10,,,,,,,,,,,,,,,,8,,56,0
14160,note_on,,0,0,15,,,,,,,,,,,,,,,,15,,60,72
14160,note_on,,1,0,7,,,,,,,,,,,,,,,,5,,72,72
14160,note_on,,1,0,8,,,,,,,,,,,,,,,,6,,69,72
14160,note_on,,1,0,12,,,,,,,,,,,,,,,,11,,64,72
14160,note_on,,1,0,13,,,,,,,,,,,,,,,,12,,69,72
14160,note_on,,1,0,5,,,,,,,,,,,,,,,,1,,72,72
14160,note_on,,1,0,11,,,,,,,,,,,,,,,,10,,72,72
14160,note_on,,1,0,14,,,,,,,,,,,,,,,,13,,57,72
14160,note_on,,0,0,15,,,,,,,,,,,,,,,,15,,64,72
14160,note_on,,1,0,15,,,,,,,,,,,,,,,,15,,57,72
14160,note_on,,1,0,10,,,,,,,,,,,,,,,,8,,57,72
14160,note_on,,1,0,9,,,,,,,,,,,,,,,,7,,64,72
14160,note_on,,1,0,6,,,,,,,,,,,,,,,,2,,57,72
14219,note_on,,59,0,14,,,,,,,,,,,,,,,,13,,57,0
14219,note_on,,59,0,10,,,,,,,,,,,,,,,,8,,57,0
14219,note_on,,59,0,15,,,,,,,,,,,,,,,,15,,57,0
14219,note_on,,59,0,6,,,,,,,,,,,,,,,,2,,57,0
14220,note_on,,1,0,14,,,,,,,,,,,,,,,,13,,59,72
14220,note_on,,1,0,10,,,,,,,,,,,,,,,,8,,59,72
14220,note_on,,1,0,15,,,,,,,,,,,,,,,,15,,59,72
14220,note_on,,1,0,6,,,,,,,,,,,,,,,,2,,59,72
14279,note_on,,119,0,5,,,,,,,,,,,,,,,,1,,72,0
14279,note_on,,119,0,11,,,,,,,,,,,,,,,,10,,72,0
14279,note_on,,119,0,13,,,,,,,,,,,,,,,,12,,69,0
14279,note_on,,119,0,12,,,,,,,,,,,,,,,,11,,64,0
14279,note_on,,59,0,10,,,,,,,,,,,,,,,,8,,59,0
14279,note_on,,59,0,6,,,,,,,,,,,,,,,,2,,59,0
14279,note_on,,59,0,14,,,,,,,,,,,,,,,,13,,59,0
14279,note_on,,59,0,15,,,,,,,,,,,,,,,,15,,64,0
14279,note_on,,0,0,15,,,,,,,,,,,,,,,,15,,60,0
14279,note_on,,0,0,15,,,,,,,,,,,,,,,,15,,59,0
14279,note_on,,119,0,7,,,,,,,,,,,,,,,,5,,72,0
14280,note_on,,1,0,7,,,,,,,,,,,,,,,,5,,72,72
14280,note_on,,1,0,10,,,,,,,,,,,,,,,,8,,60,72
14280,note_on,,1,0,12,,,,,,,,,,,,,,,,11,,81,72
14280,note_on,,0,0,15,,,,,,,,,,,,,,,,15,,64,72
14280,note_on,,1,0,14,,,,,,,,,,,,,,,,13,,60,72
14280,note_on,,0,0,15,,,,,,,,,,,,,,,,15,,69,72
14280,note_on,,0,0,15,,,,,,,,,,,,,,,,15,,76,72
14280,note_on,,1,0,11,,,,,,,,,,,,,,,,10,,84,72
14280,note_on,,1,0,15,,,,,,,,,,,,,,,,15,,60,72
14280,note_on,,1,0,5,,,,,,,,,,,,,,,,1,,72,72
14280,note_on,,1,0,6,,,,,,,,,,,,,,,,2,,60,72
14280,note_on,,1,0,13,,,,,,,,,,,,,,,,12,,64,72
14339,note_on,,59,0,11,,,,,,,,,,,,,,,,10,,84,0
14339,note_on,,179,0,9,,,,,,,,,,,,,,,,7,,64,0
14339,note_on,,59,0,5,,,,,,,,,,,,,,,,1,,72,0
14339,note_on,,59,0,10,,,,,,,,,,,,,,,,8,,60,0
14339,note_on,,59,0,14,,,,,,,,,,,,,,,,13,,60,0
14339,note_on,,59,0,15,,,,,,,,,,,,,,,,15,,60,0
14339,note_on,,59,0,6,,,,,,,,,,,,,,,,2,,60,0
14339,note_on,,59,0,7,,,,,,,,,,,,,,,,5,,72,0
14339,note_on,,179,0,8,,,,,,,,,,,,,,,,6,,69,0
14340,note_on,,1,0,15,,,,,,,,,,,,,,,,15,,62,72
14340,note_on,,1,0,7,,,,,,,,,,,,,,,,5,,71,72
14340,note_on,,1,0,10,,,,,,,,,,,,,,,,8,,62,72
14340,note_on,,1,0,11,,,,,,,,,,,,,,,,10,,83,72
14340,note_on,,1,0,5,,,,,,,,,,,,,,,,1,,71,72
14340,note_on,,1,0,14,,,,,,,,,,,,,,,,13,,62,72
14340,note_on,,1,0,8,,,,,,,,,,,,,,,,6,,69,72
14340,note_on,,1,0,6,,,,,,,,,,,,,,,,2,,62,72
14340,note_on,,1,0,9,,,,,,,,,,,,,,,,7,,65,72
14399,note_on,,59,0,15,,,,,,,,,,,,,,,,15,,76,0
14399,note_on,,0,0,15,,,,,,,,,,,,,,,,15,,62,0
14399,note_on,,119,0,12,,,,,,,,,,,,,,,,11,,81,0
14399,note_on,,119,0,13,,,,,,,,,,,,,,,,12,,64,0
14399,note_on,,59,0,14,,,,,,,,,,,,,,,,13,,62,0
14399,note_on,,59,0,7,,,,,,,,,,,,,,,,5,,71,0
14399,note_on,,59,0,9,,,,,,,,,,,,,,,,7,,65,0
14399,note_on,,59,0,6,,,,,,,,,,,,,,,,2,,62,0
14399,note_on,,59,0,8,,,,,,,,,,,,,,,,6,,69,0
14399,note_on,,59,0,5,,,,,,,,,,,,,,,,1,,71,0
14399,note_on,,59,0,11,,,,,,,,,,,,,,,,10,,83,0
14399,note_on,,59,0,10,,,,,,,,,,,,,,,,8,,62,0
14399,note_on,,0,0,15,,,,,,,,,,,,,,,,15,,64,0
14399,note_on,,0,0,15,,,,,,,,,,,,,,,,15,,69,0
14400,note_on,,1,0,14,,,,,,,,,,,,,,,,13,,64,72
14400,note_on,,1,0,10,,,,,,,,,,,,,,,,8,,64,72
14400,note_on,,1,0,5,,,,,,,,,,,,,,,,1,,71,72
14400,note_on,,1,0,12,,,,,,,,,,,,,,,,11,,80,72
14400,note_on,,0,0,15,,,,,,,,,,,,,,,,15,,68,72
14400,note_on,,0,0,15,,,,,,,,,,,,,,,,15,,71,72
14400,note_on,,1,0,13,,,,,,,,,,,,,,,,12,,64,72
14400,note_on,,1,0,6,,,,,,,,,,,,,,,,2,,64,72
14400,note_on,,1,0,9,,,,,,,,,,,,,,,,7,,64,72
14400,note_on,,1,0,8,,,,,,,,,,,,,,,,6,,68,72
14400,note_on,,1,0,11,,,,,,,,,,,,,,,,10,,83,72
14400,note_on,,1,0,15,,,,,,,,,,,,,,,,15,,64,72
14400,note_on,,1,0,7,,,,,,,,,,,,,,,,5,,71,72
14459,note_on,,59,0,10,,,,,,,,,,,,,,,,8,,64,0
14459,note_on,,59,0,7,,,,,,,,,,,,,,,,5,,71,0
14459,note_on,,0,0,15,,,,,,,,,,,,,,,,15,,68,0
14459,note_on,,59,0,15,,,,,,,,,,,,,,,,15,,64,0
14459,note_on,,59,0,14,,,,,,,,,,,,,,,,13,,64,0
14459,note_on,,59,0,5,,,,,,,,,,,,,,,,1,,71,0
14459,note_on,,59,0,6,,,,,,,,,,,,,,,,2,,64,0
14459,note_on,,59,0,12,,,,,,,,,,,,,,,,11,,80,0
14459,note_on,,59,0,8,,,,,,,,,,,,,,,,6,,68,0
14459,note_on,,59,0,11,,,,,,,,,,,,,,,,10,,83,0
14460,note_on,,1,0,12,,,,,,,,,,,,,,,,11,,83,72
14460,note_on,,1,0,14,,,,,,,,,,,,,,,,13,,56,72
14460,note_on,,1,0,10,,,,,,,,,,,,,,,,8,,56,72
14460,note_on,,1,0,7,,,,,,,,,,,,,,,,5,,74,72
14460,note_on,,1,0,8,,,,,,,,,,,,,,,,6,,71,72
14460,note_on,,1,0,5,,,,,,,,,,,,,,,,1,,74,72
14460,note_on,,1,0,6,,,,,,,,,,,,,,,,2,,56,72
14460,note_on,,0,0,15,,,,,,,,,,,,,,,,15,,64,72
14460,note_on,,1,0,15,,,,,,,,,,,,,,,,15,,56,72
14460,note_on,,1,0,11,,,,,,,,,,,,,,,,10,,86,72
14519,note_on,,59,0,7,,,,,,,,,,,,,,,,5,,74,0
14519,note_on,,59,0,12,,,,,,,,,,,,,,,,11,,83,0
14519,note_on,,59,0,14,,,,,,,,,,,,,,,,13,,56,0
14519,note_on,,59,0,10,,,,,,,,,,,,,,,,8,,56,0
14519,note_on,,59,0,8,,,,,,,,,,,,,,,,6,,71,0
14519,note_on,,59,0,11,,,,,,,,,,,,,,,,10,,86,0
14519,note_on,,59,0,6,,,,,,,,,,,,,,,,2,,56,0
14519,note_on,,59,0,5,,,,,,,,,,,,,,,,1,,74,0
14519,note_on,,0,0,15,,,,,,,,,,,,,,,,15,,56,0
14519,note_on,,59,0,15,,,,,,,,,,,,,,,,15,,71,0
14520,note_on,,1,0,10,,,,,,,,,,,,,,,,8,,57,72
14520,note_on,,1,0,8,,,,,,,,,,,,,,,,6,,69,72
14520,note_on,,1,0,5,,,,,,,,,,,,,,,,1,,72,72
14520,note_on,,0,0,15,,,,,,,,,,,,,,,,15,,69,72
14520,note_on,,1,0,12,,,,,,,,,,,,,,,,11,,81,72
14520,note_on,,1,0,6,,,,,,,,,,,,,,,,2,,57,72
14520,note_on,,0,0,15,,,,,,,,,,,,,,,,15,,72,72
14520,note_on,,1,0,7,,,,,,,,,,,,,,,,5,,72,72
14520,note_on,,1,0,15,,,,,,,,,,,,,,,,15,,57,72
14520,note_on,,1,0,11,,,,,,,,,,,,,,,,10,,84,72
14520,note_on,,1,0,14,,,,,,,,,,,,,,,,13,,57,72
14579,note_on,,0,0,15,,,,,,,,,,,,,,,,15,,57,0
14579,note_on,,59,0,11,,,,,,,,,,,,,,,,10,,84,0
14579,note_on,,59,0,10,,,,,,,,,,,,,,,,8,,57,0
14579,note_on,,59,0,15,,,,,,,,,,,,,,,,15,,64,0
14579,note_on,,59,0,8,,,,,,,,,,,,,,,,6,,69,0
14579,note_on,,59,0,14,,,,,,,,,,,,,,,,13,,57,0
14579,note_on,,59,0,5,,,,,,,,,,,,,,,,1,,72,0
14579,note_on,,179,0,13,,,,,,,,,,,,,,,,12,,64,0
14579,note_on,,179,0,9,,,,,,,,,,,,,,,,7,,64,0
14579,note_on,,59,0,7,,,,,,,,,,,,,,,,5,,72,0
14579,note_on,,59,0,6,,,,,,,,,,,,,,,,2,,57,0
14580,note_on,,1,0,8,,,,,,,,,,,,,,,,6,,69,72
14580,note_on,,1,0,14,,,,,,,,,,,,,,,,13,,50,72
14580,note_on,,1,0,10,,,,,,,,,,,,,,,,8,,50,72
14580,note_on,,0,0,15,,,,,,,,,,,,,,,,15,,65,72
14580,note_on,,1,0,15,,,,,,,,,,,,,,,,15,,50,72
14580,note_on,,1,0,7,,,,,,,,,,,,,,,,5,,71,72
14580,note_on,,1,0,9,,,,,,,,,,,,,,,,7,,65,72
14580,note_on,,1,0,11,,,,,,,,,,,,,,,,10,,83,72
14580,note_on,,1,0,13,,,,,,,,,,,,,,,,12,,65,72
14580,note_on,,1,0,6,,,,,,,,,,,,,,,,2,,50,72
14580,note_on,,1,0,5,,,,,,,,,,,,,,,,1,,71,72
14639,note_on,,59,0,15,,,,,,,,,,,,,,,,15,,72,0
14639,note_on,,59,0,9,,,,,,,,,,,,,,,,7,,65,0
14639,note_on,,59,0,13,,,,,,,,,,,,,,,,12,,65,0
14639,note_on,,0,0,15,,,,,,,,,,,,,,,,15,,50,0
14639,note_on,,0,0,15,,,,,,,,,,,,,,,,15,,65,0
14639,note_on,,0,0,15,,,,,,,,,,,,,,,,15,,69,0
14639,note_on,,59,0,8,,,,,,,,,,,,,,,,6,,69,0
14639,note_on,,59,0,14,,,,,,,,,,,,,,,,13,,50,0
14639,note_on,,59,0,6,,,,,,,,,,,,,,,,2,,50,0
14639,note_on,,59,0,11,,,,,,,,,,,,,,,,10,,83,0
14639,note_on,,119,0,12,,,,,,,,,,,,,,,,11,,81,0
14639,note_on,,59,0,7,,,,,,,,,,,,,,,,5,,71,0
14639,note_on,,59,0,10,,,,,,,,,,,,,,,,8,,50,0
14639,note_on,,59,0,5,,,,,,,,,,,,,,,,1,,71,0
14640,note_on,,1,0,11,,,,,,,,,,,,,,,,10,,83,72
14640,note_on,,1,0,9,,,,,,,,,,,,,,,,7,,64,72
14640,note_on,,1,0,10,,,,,,,,,,,,,,,,8,,52,72
14640,note_on,,1,0,8,,,,,,,,,,,,,,,,6,,69,72
14640,note_on,,1,0,15,,,,,,,,,,,,,,,,15,,52,72
14640,note_on,,1,0,6,,,,,,,,,,,,,,,,2,,52,72
14640,note_on,,1,0,14,,,,,,,,,,,,,,,,13,,52,72
14640,note_on,,1,0,5,,,,,,,,,,,,,,,,1,,71,72
14640,note_on,,1,0,12,,,,,,,,,,,,,,,,11,,81,72
14640,note_on,,1,0,7,,,,,,,,,,,,,,,,5,,71,72
14640,note_on,,0,0,15,,,,,,,,,,,,,,,,15,,59,72
14640,note_on,,1,0,13,,,,,,,,,,,,,,,,12,,64,72
14640,note_on,,0,0,15,,,,,,,,,,,,,,,,15,,69,72
14640,note_on,,0,0,15,,,,,,,,,,,,,,,,15,,71,72
14759,note_on,,119,0,14,,,,,,,,,,,,,,,,13,,52,0
14759,note_on,,119,0,8,,,,,,,,,,,,,,,,6,,69,0
14759,note_on,,119,0,6,,,,,,,,,,,,,,,,2,,52,0
14759,note_on,,0,0,15,,,,,,,,,,,,,,,,15,,59,0
14759,note_on,,0,0,15,,,,,,,,,,,,,,,,15,,69,0
14759,note_on,,119,0,15,,,,,,,,,,,,,,,,15,,52,0
14759,note_on,,119,0,12,,,,,,,,,,,,,,,,11,,81,0
14760,note_on,,1,0,6,,,,,,,,,,,,,,,,2,,40,72
14760,note_on,,1,0,14,,,,,,,,,,,,,,,,13,,40,72
14760,note_on,,1,0,12,,,,,,,,,,,,,,,,11,,80,72
14760,note_on,,1,0,8,,,,,,,,,,,,,,,,6,,68,72
14760,note_on,,1,0,15,,,,,,,,,,,,,,,,15,,40,72
14760,note_on,,0,0,15,,,,,,,,,,,,,,,,15,,68,72
14760,note_on,,0,0,15,,,,,,,,,,,,,,,,15,,64,72
14819,note_on,,179,0,5,,,,,,,,,,,,,,,,1,,71,0
14819,note_on,,179,0,9,,,,,,,,,,,,,,,,7,,64,0
14819,note_on,,179,0,10,,,,,,,,,,,,,,,,8,,52,0
14819,note_on,,179,0,7,,,,,,,,,,,,,,,,5,,71,0
14819,note_on,,179,0,13,,,,,,,,,,,,,,,,12,,64,0
14819,note_on,,179,0,11,,,,,,,,,,,,,,,,10,,83,0
14820,note_on,,1,0,11,,,,,,,,,,,,,,,,10,,83,72
14820,note_on,,1,0,13,,,,,,,,,,,,,,,,12,,64,72
14820,note_on,,1,0,7,,,,,,,,,,,,,,,,5,,71,72
14820,note_on,,1,0,9,,,,,,,,,,,,,,,,7,,64,72
14820,note_on,,1,0,5,,,,,,,,,,,,,,,,1,,71,72
14820,note_on,,1,0,10,,,,,,,,,,,,,,,,8,,52,72
14879,note_on,,0,0,15,,,,,,,,,,,,,,,,15,,40,0
14879,note_on,,0,0,15,,,,,,,,,,,,,,,,15,,68,0
14879,note_on,,0,0,15,,,,,,,,,,,,,,,,15,,64,0
14879,note_on,,119,0,15,,,,,,,,,,,,,,,,15,,71,0
14879,note_on,,119,0,14,,,,,,,,,,,,,,,,13,,40,0
14879,note_on,,59,0,5,,,,,,,,,,,,,,,,1,,71,0
14879,note_on,,119,0,6,,,,,,,,,,,,,,,,2,,40,0
14879,note_on,,59,0,11,,,,,,,,,,,,,,,,10,,83,0
14879,note_on,,59,0,13,,,,,,,,,,,,,,,,12,,64,0
14879,note_on,,59,0,10,,,,,,,,,,,,,,,,8,,52,0
14879,note_on,,119,0,12,,,,,,,,,,,,,,,,11,,80,0
14879,note_on,,59,0,7,,,,,,,,,,,,,,,,5,,71,0
14879,note_on,,59,0,9,,,,,,,,,,,,,,,,7,,64,0
14879,note_on,,119,0,8,,,,,,,,,,,,,,,,6,,68,0
14880,note_on,,1,0,10,,,,,,,,,,,,,,,,8,,45,72
14880,note_on,,1,0,5,,,,,,,,,,,,,,,,1,,72,72
14880,note_on,,1,0,13,,,,,,,,,,,,,,,,12,,64,72
14880,note_on,,1,0,9,,,,,,,,,,,,,,,,7,,64,72
14880,note_on,,1,0,14,,,,,,,,,,,,,,,,13,,45,72
14880,note_on,,1,0,6,,,,,,,,,,,,,,,,2,,45,72
14880,note_on,,1,0,7,,,,,,,,,,,,,,,,5,,72,72
14880,note_on,,1,0,11,,,,,,,,,,,,,,,,10,,84,72
14880,note_on,,1,0,8,,,,,,,,,,,,,,,,6,,69,72
14880,note_on,,1,0,15,,,,,,,,,,,,,,,,15,,45,72
14880,note_on,,0,0,15,,,,,,,,,,,,,,,,15,,69,72
14880,note_on,,0,0,15,,,,,,,,,,,,,,,,15,,64,72
14880,note_on,,0,0,15,,,,,,,,,,,,,,,,15,,60,72
14880,note_on,,1,0,12,,,,,,,,,,,,,,,,11,,81,72
14939,note_on,,59,0,12,,,,,,,,,,,,,,,,11,,81,0
14939,note_on,,59,0,11,,,,,,,,,,,,,,,,10,,84,0
14940,note_on,,1,0,12,,,,,,,,,,,,,,,,11,,64,72
14940,note_on,,1,0,11,,,,,,,,,,,,,,,,10,,69,72
14999,note_on,,119,0,8,,,,,,,,,,,,,,,,6,,69,0
14999,note_on,,119,0,9,,,,,,,,,,,,,,,,7,,64,0
14999,note_on,,119,0,13,,,,,,,,,,,,,,,,12,,64,0
14999,note_on,,59,0,11,,,,,,,,,,,,,,,,10,,69,0
14999,note_on,,119,0,10,,,,,,,,,,,,,,,,8,,45,0
14999,note_on,,59,0,12,,,,,,,,,,,,,,,,11,,64,0
14999,note_on,,119,0,5,,,,,,,,,,,,,,,,1,,72,0
14999,note_on,,0,0,15,,,,,,,,,,,,,,,,15,,60,0
14999,note_on,,0,0,15,,,,,,,,,,,,,,,,15,,64,0
14999,note_on,,0,0,15,,,,,,,,,,,,,,,,15,,69,0
14999,note_on,,119,0,15,,,,,,,,,,,,,,,,15,,45,0
14999,note_on,,119,0,14,,,,,,,,,,,,,,,,13,,45,0
14999,note_on,,119,0,7,,,,,,,,,,,,,,,,5,,72,0
14999,note_on,,119,0,6,,,,,,,,,,,,,,,,2,,45,0
15000,note_on,,1,0,12,,,,,,,,,,,,,,,,11,,69,72
15000,note_on,,1,0,11,,,,,,,,,,,,,,,,10,,72,72
15059,note_on,,59,0,12,,,,,,,,,,,,,,,,11,,69,0
15059,note_on,,59,0,11,,,,,,,,,,,,,,,,10,,72,0
15060,note_on,,61,0,9,,,,,,,,,,,,,,,,7,,64,72
15060,note_on,,61,0,10,,,,,,,,,,,,,,,,8,,45,72
15060,note_on,,61,0,15,,,,,,,,,,,,,,,,15,,45,72
15060,note_on,,0,0,15,,,,,,,,,,,,,,,,15,,64,72
15060,note_on,,1,0,11,,,,,,,,,,,,,,,,10,,76,72
15060,note_on,,0,0,15,,,,,,,,,,,,,,,,15,,60,72
15060,note_on,,0,0,15,,,,,,,,,,,,,,,,15,,57,72
15060,note_on,,61,0,8,,,,,,,,,,,,,,,,6,,69,72
15060,note_on,,1,0,12,,,,,,,,,,,,,,,,11,,72,72
15060,note_on,,61,0,13,,,,,,,,,,,,,,,,12,,69,72
15060,note_on,,61,0,5,,,,,,,,,,,,,,,,1,,72,72
15060,note_on,,61,0,7,,,,,,,,,,,,,,,,5,,72,72
15060,note_on,,61,0,6,,,,,,,,,,,,,,,,2,,45,72
15060,note_on,,61,0,14,,,,,,,,,,,,,,,,13,,45,72
15119,note_on,,0,0,15,,,,,,,,,,,,,,,,15,,64,0
15119,note_on,,59,0,15,,,,,,,,,,,,,,,,15,,45,0
15119,note_on,,59,0,10,,,,,,,,,,,,,,,,8,,45,0
15119,note_on,,59,0,12,,,,,,,,,,,,,,,,11,,72,0
15119,note_on,,59,0,7,,,,,,,,,,,,,,,,5,,72,0
15119,note_on,,59,0,6,,,,,,,,,,,,,,,,2,,45,0
15119,note_on,,59,0,5,,,,,,,,,,,,,,,,1,,72,0
15119,note_on,,0,0,15,,,,,,,,,,,,,,,,15,,57,0
15119,note_on,,59,0,8,,,,,,,,,,,,,,,,6,,69,0
15119,note_on,,59,0,13,,,,,,,,,,,,,,,,12,,69,0
15119,note_on,,59,0,9,,,,,,,,,,,,,,,,7,,64,0
15119,note_on,,59,0,11,,,,,,,,,,,,,,,,10,,76,0
15119,note_on,,0,0,15,,,,,,,,,,,,,,,,15,,60,0
15119,note_on,,59,0,14,,,,,,,,,,,,,,,,13,,45,0
15120,note_on,,1,0,14,,,,,,,,,,,,,,,,13,,48,72
15120,note_on,,1,0,13,,,,,,,,,,,,,,,,12,,64,72
15120,note_on,,1,0,5,,,,,,,,,,,,,,,,1,,76,72
15120,note_on,,1,0,10,,,,,,,,,,,,,,,,8,,48,72
15120,note_on,,1,0,9,,,,,,,,,,,,,,,,7,,64,72
15120,note_on,,1,0,12,,,,,,,,,,,,,,,,11,,76,72
15120,note_on,,1,0,7,,,,,,,,,,,,,,,,5,,76,72
15120,note_on,,0,0,15,,,,,,,,,,,,,,,,15,,64,72
15120,note_on,,0,0,15,,,,,,,,,,,,,,,,15,,69,72
15120,note_on,,0,0,15,,,,,,,,,,,,,,,,15,,52,72
15120,note_on,,1,0,15,,,,,,,,,,,,,,,,15,,48,72
15120,note_on,,1,0,8,,,,,,,,,,,,,,,,6,,69,72
15120,note_on,,1,0,11,,,,,,,,,,,,,,,,10,,81,72
15120,note_on,,1,0,6,,,,,,,,,,,,,,,,2,,48,72
15239,note_on,,119,0,6,,,,,,,,,,,,,,,,2,,48,0
15239,note_on,,119,0,7,,,,,,,,,,,,,,,,5,,76,0
15239,note_on,,119,0,5,,,,,,,,,,,,,,,,1,,76,0
15239,note_on,,119,0,8,,,,,,,,,,,,,,,,6,,69,0
15239,note_on,,119,0,9,,,,,,,,,,,,,,,,7,,64,0
15239,note_on,,119,0,10,,,,,,,,,,,,,,,,8,,48,0
15239,note_on,,119,0,13,,,,,,,,,,,,,,,,12,,64,0
15239,note_on,,119,0,11,,,,,,,,,,,,,,,,10,,81,0
15239,note_on,,119,0,14,,,,,,,,,,,,,,,,13,,48,0
15239,note_on,,119,0,12,,,,,,,,,,,,,,,,11,,76,0
15239,note_on,,119,0,15,,,,,,,,,,,,,,,,15,,48,0
15239,note_on,,0,0,15,,,,,,,,,,,,,,,,15,,52,0
15239,note_on,,0,0,15,,,,,,,,,,,,,,,,15,,69,0
15239,note_on,,0,0,15,,,,,,,,,,,,,,,,15,,64,0
15240,note_on,,1,0,15,,,,,,,,,,,,,,,,15,,52,72
15240,note_on,,1,0,11,,,,,,,,,,,,,,,,10,,80,72
15240,note_on,,0,0,15,,,,,,,,,,,,,,,,15,,64,72
15240,note_on,,0,0,15,,,,,,,,,,,,,,,,15,,56,72
15240,note_on,,1,0,6,,,,,,,,,,,,,,,,2,,52,72
15240,note_on,,1,0,9,,,,,,,,,,,,,,,,7,,64,72
15240,note_on,,1,0,10,,,,,,,,,,,,,,,,8,,52,72
15240,note_on,,1,0,7,,,,,,,,,,,,,,,,5,,71,72
15240,note_on,,0,0,15,,,,,,,,,,,,,,,,15,,71,72
15240,note_on,,1,0,12,,,,,,,,,,,,,,,,11,,71,72
15240,note_on,,1,0,8,,,,,,,,,,,,,,,,6,,68,72
15240,note_on,,1,0,14,,,,,,,,,,,,,,,,13,,52,72
15240,note_on,,1,0,5,,,,,,,,,,,,,,,,1,,71,72
15240,note_on,,1,0,13,,,,,,,,,,,,,,,,12,,64,72
15359,note_on,,0,0,15,,,,,,,,,,,,,,,,15,,56,0
15359,note_on,,119,0,15,,,,,,,,,,,,,,,,15,,52,0
15359,note_on,,0,0,15,,,,,,,,,,,,,,,,15,,71,0
15359,note_on,,119,0,7,,,,,,,,,,,,,,,,5,,71,0
15359,note_on,,119,0,8,,,,,,,,,,,,,,,,6,,68,0
15359,note_on,,119,0,5,,,,,,,,,,,,,,,,1,,71,0
15359,note_on,,119,0,11,,,,,,,,,,,,,,,,10,,80,0
15359,note_on,,0,0,15,,,,,,,,,,,,,,,,15,,64,0
15359,note_on,,119,0,13,,,,,,,,,,,,,,,,12,,64,0
15359,note_on,,119,0,14,,,,,,,,,,,,,,,,13,,52,0
15359,note_on,,119,0,12,,,,,,,,,,,,,,,,11,,71,0
15359,note_on,,119,0,9,,,,,,,,,,,,,,,,7,,64,0
15359,note_on,,119,0,6,,,,,,,,,,,,,,,,2,,52,0
15359,note_on,,119,0,10,,,,,,,,,,,,,,,,8,,52,0
15360,note_on,,1,0,13,,,,,,,,,,,,,,,,12,,64,72
15360,note_on,,1,0,12,,,,,,,,,,,,,,,,11,,72,72
15360,note_on,,1,0,8,,,,,,,,,,,,,,,,6,,69,72
15360,note_on,,1,0,5,,,,,,,,,,,,,,,,1,,72,72
15360,note_on,,1,0,7,,,,,,,,,,,,,,,,5,,72,72
15360,note_on,,1,0,9,,,,,,,,,,,,,,,,7,,64,72
15360,note_on,,1,0,11,,,,,,,,,,,,,,,,10,,81,72
15360,note_on,,1,0,6,,,,,,,,,,,,,,,,2,,57,72
15360,note_on,,1,0,14,,,,,,,,,,,,,,,,13,,57,72
15360,note_on,,1,0,15,,,,,,,,,,,,,,,,15,,57,72
15360,note_on,,0,0,15,,,,,,,,,,,,,,,,15,,72,72
15360,note_on,,0,0,15,,,,,,,,,,,,,,,,15,,60,72
15360,note_on,,0,0,15,,,,,,,,,,,,,,,,15,,64,72
15360,note_on,,1,0,10,,,,,,,,,,,,,,,,8,,57,72
15419,note_on,,59,0,11,,,,,,,,,,,,,,,,10,,81,0
15419,note_on,,59,0,12,,,,,,,,,,,,,,,,11,,72,0
15419,note_on,,59,0,13,,,,,,,,,,,,,,,,12,,64,0
15420,note_on,,1,0,11,,,,,,,,,,,,,,,,10,,69,72
15420,note_on,,1,0,12,,,,,,,,,,,,,,,,11,,64,72
15420,note_on,,1,0,13,,,,,,,,,,,,,,,,12,,60,72
15479,note_on,,59,0,12,,,,,,,,,,,,,,,,11,,64,0
15479,note_on,,0,0,15,,,,,,,,,,,,,,,,15,,64,0
15479,note_on,,59,0,13,,,,,,,,,,,,,,,,12,,60,0
15479,note_on,,59,0,11,,,,,,,,,,,,,,,,10,,69,0
15479,note_on,,119,0,15,,,,,,,,,,,,,,,,15,,72,0
15479,note_on,,0,0,15,,,,,,,,,,,,,,,,15,,60,0
15480,note_on,,1,0,13,,,,,,,,,,,,,,,,12,,64,72
15480,note_on,,1,0,11,,,,,,,,,,,,,,,,10,,72,72
15480,note_on,,1,0,12,,,,,,,,,,,,,,,,11,,69,72
15539,note_on,,59,0,11,,,,,,,,,,,,,,,,10,,72,0
15539,note_on,,179,0,8,,,,,,,,,,,,,,,,6,,69,0
15539,note_on,,179,0,7,,,,,,,,,,,,,,,,5,,72,0
15539,note_on,,179,0,14,,,,,,,,,,,,,,,,13,,57,0
15539,note_on,,179,0,6,,,,,,,,,,,,,,,,2,,57,0
15539,note_on,,60,0,15,,,,,,,,,,,,,,,,15,,57,0
15539,note_on,,59,0,12,,,,,,,,,,,,,,,,11,,69,0
15539,note_on,,179,0,9,,,,,,,,,,,,,,,,7,,64,0
15539,note_on,,179,0,10,,,,,,,,,,,,,,,,8,,57,0
15539,note_on,,59,0,13,,,,,,,,,,,,,,,,12,,64,0
15539,note_on,,179,0,5,,,,,,,,,,,,,,,,1,,72,0
15540,note_on,,1,0,5,,,,,,,,,,,,,,,,1,,72,72
15540,note_on,,1,0,15,,,,,,,,,,,,,,,,15,,45,72
15540,note_on,,1,0,12,,,,,,,,,,,,,,,,11,,72,72
15540,note_on,,1,0,14,,,,,,,,,,,,,,,,13,,45,72
15540,note_on,,1,0,6,,,,,,,,,,,,,,,,2,,45,72
15540,note_on,,1,0,7,,,,,,,,,,,,,,,,5,,72,72
15540,note_on,,1,0,8,,,,,,,,,,,,,,,,6,,69,72
15540,note_on,,1,0,9,,,,,,,,,,,,,,,,7,,64,72
15540,note_on,,1,0,10,,,,,,,,,,,,,,,,8,,45,72
15540,note_on,,1,0,13,,,,,,,,,,,,,,,,12,,69,72
15540,note_on,,1,0,11,,,,,,,,,,,,,,,,10,,76,72
15599,note_on,,59,0,6,,,,,,,,,,,,,,,,2,,45,0
15599,note_on,,59,0,8,,,,,,,,,,,,,,,,6,,69,0
15599,note_on,,59,0,5,,,,,,,,,,,,,,,,1,,72,0
15599,note_on,,59,0,9,,,,,,,,,,,,,,,,7,,64,0
15599,note_on,,59,0,10,,,,,,,,,,,,,,,,8,,45,0
15599,note_on,,59,0,7,,,,,,,,,,,,,,,,5,,72,0
15599,note_on,,59,0,11,,,,,,,,,,,,,,,,10,,76,0
15599,note_on,,59,0,13,,,,,,,,,,,,,,,,12,,69,0
15599,note_on,,59,0,15,,,,,,,,,,,,,,,,15,,45,0
15599,note_on,,59,0,14,,,,,,,,,,,,,,,,13,,45,0
15599,note_on,,59,0,12,,,,,,,,,,,,,,,,11,,72,0
15600,note_on,,0,0,15,,,,,,,,,,,,,,,,15,,64,72
15600,note_on,,0,0,15,,,,,,,,,,,,,,,,15,,69,72
15600,note_on,,1,0,7,,,,,,,,,,,,,,,,5,,76,72
15600,note_on,,1,0,13,,,,,,,,,,,,,,,,12,,64,72
15600,note_on,,1,0,15,,,,,,,,,,,,,,,,15,,48,72
15600,note_on,,1,0,9,,,,,,,,,,,,,,,,7,,64,72
15600,note_on,,1,0,6,,,,,,,,,,,,,,,,2,,48,72
15600,note_on,,1,0,8,,,,,,,,,,,,,,,,6,,69,72
15600,note_on,,1,0,10,,,,,,,,,,,,,,,,8,,48,72
15600,note_on,,0,0,15,,,,,,,,,,,,,,,,15,,52,72
15600,note_on,,1,0,5,,,,,,,,,,,,,,,,1,,76,72
15600,note_on,,1,0,14,,,,,,,,,,,,,,,,13,,48,72
15600,note_on,,1,0,12,,,,,,,,,,,,,,,,11,,76,72
15600,note_on,,1,0,11,,,,,,,,,,,,,,,,10,,81,72
15719,note_on,,119,0,11,,,,,,,,,,,,,,,,10,,81,0
15719,note_on,,119,0,14,,,,,,,,,,,,,,,,13,,48,0
15719,note_on,,119,0,13,,,,,,,,,,,,,,,,12,,64,0
15719,note_on,,119,0,12,,,,,,,,,,,,,,,,11,,76,0
15719,note_on,,119,0,15,,,,,,,,,,,,,,,,15,,48,0
15719,note_on,,0,0,15,,,,,,,,,,,,,,,,15,,69,0
15719,note_on,,0,0,15,,,,,,,,,,,,,,,,15,,64,0
15719,note_on,,119,0,6,,,,,,,,,,,,,,,,2,,48,0
15719,note_on,,119,0,7,,,,,,,,,,,,,,,,5,,76,0
15719,note_on,,0,0,15,,,,,,,,,,,,,,,,15,,52,0
15719,note_on,,119,0,8,,,,,,,,,,,,,,,,6,,69,0
15719,note_on,,119,0,10,,,,,,,,,,,,,,,,8,,48,0
15719,note_on,,119,0,9,,,,,,,,,,,,,,,,7,,64,0
15719,note_on,,119,0,5,,,,,,,,,,,,,,,,1,,76,0
15720,note_on,,1,0,11,,,,,,,,,,,,,,,,10,,83,72
15720,note_on,,0,0,15,,,,,,,,,,,,,,,,15,,56,72
15720,note_on,,1,0,5,,,,,,,,,,,,,,,,1,,71,72
15720,note_on,,1,0,13,,,,,,,,,,,,,,,,12,,64,72
15720,note_on,,1,0,14,,,,,,,,,,,,,,,,13,,52,72
15720,note_on,,1,0,12,,,,,,,,,,,,,,,,11,,80,72
15720,note_on,,1,0,15,,,,,,,,,,,,,,,,15,,52,72
15720,note_on,,1,0,7,,,,,,,,,,,,,,,,5,,71,72
15720,note_on,,1,0,8,,,,,,,,,,,,,,,,6,,68,72
15720,note_on,,1,0,9,,,,,,,,,,,,,,,,7,,64,72
15720,note_on,,1,0,6,,,,,,,,,,,,,,,,2,,52,72
15720,note_on,,0,0,15,,,,,,,,,,,,,,,,15,,64,72
15720,note_on,,0,0,15,,,,,,,,,,,,,,,,15,,68,72
15720,note_on,,1,0,10,,,,,,,,,,,,,,,,8,,52,72
15839,note_on,,0,0,15,,,,,,,,,,,,,,,,15,,68,0
15839,note_on,,0,0,15,,,,,,,,,,,,,,,,15,,64,0
15839,note_on,,119,0,12,,,,,,,,,,,,,,,,11,,80,0
15839,note_on,,119,0,15,,,,,,,,,,,,,,,,15,,52,0
15839,note_on,,119,0,5,,,,,,,,,,,,,,,,1,,71,0
15839,note_on,,119,0,6,,,,,,,,,,,,,,,,2,,52,0
15839,note_on,,0,0,15,,,,,,,,,,,,,,,,15,,56,0
15839,note_on,,119,0,7,,,,,,,,,,,,,,,,5,,71,0
15839,note_on,,119,0,9,,,,,,,,,,,,,,,,7,,64,0
15839,note_on,,119,0,13,,,,,,,,,,,,,,,,12,,64,0
15839,note_on,,119,0,11,,,,,,,,,,,,,,,,10,,83,0
15839,note_on,,119,0,14,,,,,,,,,,,,,,,,13,,52,0
15839,note_on,,119,0,10,,,,,,,,,,,,,,,,8,,52,0
15839,note_on,,119,0,8,,,,,,,,,,,,,,,,6,,68,0
15840,note_on,,1,0,9,,,,,,,,,,,,,,,,7,,64,72
15840,note_on,,1,0,6,,,,,,,,,,,,,,,,2,,57,72
15840,note_on,,0,0,15,,,,,,,,,,,,,,,,15,,64,72
15840,note_on,,1,0,13,,,,,,,,,,,,,,,,12,,64,72
15840,note_on,,1,0,7,,,,,,,,,,,,,,,,5,,72,72
15840,note_on,,1,0,10,,,,,,,,,,,,,,,,8,,57,72
15840,note_on,,1,0,8,,,,,,,,,,,,,,,,6,,69,72
15840,note_on,,1,0,14,,,,,,,,,,,,,,,,13,,57,72
15840,note_on,,1,0,12,,,,,,,,,,,,,,,,11,,81,72
15840,note_on,,1,0,11,,,,,,,,,,,,,,,,10,,84,72
15840,note_on,,0,0,15,,,,,,,,,,,,,,,,15,,60,72
15840,note_on,,1,0,5,,,,,,,,,,,,,,,,1,,72,72
15840,note_on,,0,0,15,,,,,,,,,,,,,,,,15,,69,72
15840,note_on,,1,0,15,,,,,,,,,,,,,,,,15,,57,72
15899,note_on,,59,0,12,,,,,,,,,,,,,,,,11,,81,0
15900,note_on,,1,0,12,,,,,,,,,,,,,,,,11,,76,72
15959,note_on,,119,0,14,,,,,,,,,,,,,,,,13,,57,0
15959,note_on,,119,0,6,,,,,,,,,,,,,,,,2,,57,0
15959,note_on,,119,0,11,,,,,,,,,,,,,,,,10,,84,0
15959,note_on,,119,0,9,,,,,,,,,,,,,,,,7,,64,0
15959,note_on,,0,0,15,,,,,,,,,,,,,,,,15,,60,0
15959,note_on,,119,0,15,,,,,,,,,,,,,,,,15,,57,0
15959,note_on,,0,0,15,,,,,,,,,,,,,,,,15,,69,0
15959,note_on,,119,0,10,,,,,,,,,,,,,,,,8,,57,0
15959,note_on,,119,0,5,,,,,,,,,,,,,,,,1,,72,0
15959,note_on,,119,0,13,,,,,,,,,,,,,,,,12,,64,0
15959,note_on,,119,0,8,,,,,,,,,,,,,,,,6,,69,0
15959,note_on,,119,0,7,,,,,,,,,,,,,,,,5,,72,0
15959,note_on,,59,0,12,,,,,,,,,,,,,,,,11,,76,0
15959,note_on,,0,0,15,,,,,,,,,,,,,,,,15,,64,0
15960,note_on,,1,0,10,,,,,,,,,,,,,,,,8,,50,72
15960,note_on,,1,0,13,,,,,,,,,,,,,,,,12,,65,72
15960,note_on,,1,0,8,,,,,,,,,,,,,,,,6,,65,72
15960,note_on,,1,0,14,,,,,,,,,,,,,,,,13,,50,72
15960,note_on,,1,0,7,,,,,,,,,,,,,,,,5,,71,72
15960,note_on,,1,0,12,,,,,,,,,,,,,,,,11,,74,72
15960,note_on,,1,0,9,,,,,,,,,,,,,,,,7,,62,72
15960,note_on,,1,0,11,,,,,,,,,,,,,,,,10,,83,72
15960,note_on,,0,0,15,,,,,,,,,,,,,,,,15,,53,72
15960,note_on,,0,0,15,,,,,,,,,,,,,,,,15,,65,72
15960,note_on,,0,0,15,,,,,,,,,,,,,,,,15,,71,72
15960,note_on,,0,0,15,,,,,,,,,,,,,,,,15,,74,72
15960,note_on,,1,0,15,,,,,,,,,,,,,,,,15,,50,72
15960,note_on,,1,0,6,,,,,,,,,,,,,,,,2,,50,72
15960,note_on,,1,0,5,,,,,,,,,,,,,,,,1,,71,72
16019,note_on,,59,0,9,,,,,,,,,,,,,,,,7,,62,0
16019,note_on,,59,0,5,,,,,,,,,,,,,,,,1,,71,0
16019,note_on,,59,0,11,,,,,,,,,,,,,,,,10,,83,0
16019,note_on,,59,0,12,,,,,,,,,,,,,,,,11,,74,0
16019,note_on,,59,0,7,,,,,,,,,,,,,,,,5,,71,0
16020,note_on,,1,0,5,,,,,,,,,,,,,,,,1,,69,72
16020,note_on,,1,0,9,,,,,,,,,,,,,,,,7,,60,72
16020,note_on,,1,0,11,,,,,,,,,,,,,,,,10,,81,72
16020,note_on,,1,0,12,,,,,,,,,,,,,,,,11,,77,72
16020,note_on,,1,0,7,,,,,,,,,,,,,,,,5,,69,72
16079,note_on,,0,0,15,,,,,,,,,,,,,,,,15,,74,0
16079,note_on,,119,0,15,,,,,,,,,,,,,,,,15,,50,0
16079,note_on,,119,0,10,,,,,,,,,,,,,,,,8,,50,0
16079,note_on,,119,0,8,,,,,,,,,,,,,,,,6,,65,0
16079,note_on,,59,0,7,,,,,,,,,,,,,,,,5,,69,0
16079,note_on,,59,0,12,,,,,,,,,,,,,,,,11,,77,0
16079,note_on,,119,0,14,,,,,,,,,,,,,,,,13,,50,0
16079,note_on,,59,0,11,,,,,,,,,,,,,,,,10,,81,0
16079,note_on,,0,0,15,,,,,,,,,,,,,,,,15,,71,0
16079,note_on,,0,0,15,,,,,,,,,,,,,,,,15,,65,0
16079,note_on,,119,0,13,,,,,,,,,,,,,,,,12,,65,0
16079,note_on,,59,0,9,,,,,,,,,,,,,,,,7,,60,0
16079,note_on,,119,0,6,,,,,,,,,,,,,,,,2,,50,0
16079,note_on,,59,0,5,,,,,,,,,,,,,,,,1,,69,0
16079,note_on,,0,0,15,,,,,,,,,,,,,,,,15,,53,0
16080,note_on,,1,0,9,,,,,,,,,,,,,,,,7,,59,72
16080,note_on,,1,0,5,,,,,,,,,,,,,,,,1,,68,72
16080,note_on,,1,0,11,,,,,,,,,,,,,,,,10,,80,72
16080,note_on,,1,0,14,,,,,,,,,,,,,,,,13,,52,72
16080,note_on,,1,0,12,,,,,,,,,,,,,,,,11,,71,72
16080,note_on,,1,0,7,,,,,,,,,,,,,,,,5,,68,72
16080,note_on,,0,0,15,,,,,,,,,,,,,,,,15,,59,72
16080,note_on,,0,0,15,,,,,,,,,,,,,,,,15,,64,72
16080,note_on,,1,0,15,,,,,,,,,,,,,,,,15,,52,72
16080,note_on,,1,0,13,,,,,,,,,,,,,,,,12,,64,72
16080,note_on,,1,0,10,,,,,,,,,,,,,,,,8,,52,72
16080,note_on,,0,0,15,,,,,,,,,,,,,,,,15,,68,72
16080,note_on,,1,0,8,,,,,,,,,,,,,,,,6,,64,72
16080,note_on,,0,0,15,,,,,,,,,,,,,,,,15,,71,72
16080,note_on,,1,0,6,,,,,,,,,,,,,,,,2,,52,72
16199,note_on,,0,0,15,,,,,,,,,,,,,,,,15,,68,0
16199,note_on,,119,0,14,,,,,,,,,,,,,,,,13,,52,0
16199,note_on,,0,0,15,,,,,,,,,,,,,,,,15,,64,0
16199,note_on,,0,0,15,,,,,,,,,,,,,,,,15,,71,0
16199,note_on,,119,0,15,,,,,,,,,,,,,,,,15,,52,0
16199,note_on,,0,0,15,,,,,,,,,,,,,,,,15,,59,0
16199,note_on,,119,0,6,,,,,,,,,,,,,,,,2,,52,0
16200,note_on,,1,0,14,,,,,,,,,,,,,,,,13,,40,72
16200,note_on,,1,0,6,,,,,,,,,,,,,,,,2,,40,72
16200,note_on,,1,0,15,,,,,,,,,,,,,,,,15,,40,72
16200,note_on,,0,0,15,,,,,,,,,,,,,,,,15,,52,72
16200,note_on,,0,0,15,,,,,,,,,,,,,,,,15,,76,72
16200,note_on,,0,0,15,,,,,,,,,,,,,,,,15,,71,72
16200,note_on,,0,0,15,,,,,,,,,,,,,,,,15,,68,72
16259,note_on,,179,0,13,,,,,,,,,,,,,,,,12,,64,0
16259,note_on,,179,0,12,,,,,,,,,,,,,,,,11,,71,0
16259,note_on,,179,0,5,,,,,,,,,,,,,,,,1,,68,0
16259,note_on,,179,0,8,,,,,,,,,,,,,,,,6,,64,0
16259,note_on,,179,0,11,,,,,,,,,,,,,,,,10,,80,0
16259,note_on,,179,0,9,,,,,,,,,,,,,,,,7,,59,0
16259,note_on,,179,0,7,,,,,,,,,,,,,,,,5,,68,0
16259,note_on,,179,0,10,,,,,,,,,,,,,,,,8,,52,0
16260,note_on,,1,0,12,,,,,,,,,,,,,,,,11,,71,72
16260,note_on,,1,0,7,,,,,,,,,,,,,,,,5,,68,72
16260,note_on,,1,0,13,,,,,,,,,,,,,,,,12,,64,72
16260,note_on,,1,0,9,,,,,,,,,,,,,,,,7,,59,72
16260,note_on,,1,0,8,,,,,,,,,,,,,,,,6,,64,72
16260,note_on,,1,0,11,,,,,,,,,,,,,,,,10,,80,72
16260,note_on,,1,0,10,,,,,,,,,,,,,,,,8,,52,72
16260,note_on,,1,0,5,,,,,,,,,,,,,,,,1,,68,72
16319,note_on,,0,0,15,,,,,,,,,,,,,,,,15,,68,0
16319,note_on,,0,0,15,,,,,,,,,,,,,,,,15,,52,0
16319,note_on,,0,0,15,,,,,,,,,,,,,,,,15,,76,0
16319,note_on,,119,0,14,,,,,,,,,,,,,,,,13,,40,0
16319,note_on,,59,0,7,,,,,,,,,,,,,,,,5,,68,0
16319,note_on,,0,0,15,,,,,,,,,,,,,,,,15,,71,0
16319,note_on,,59,0,5,,,,,,,,,,,,,,,,1,,68,0
16319,note_on,,119,0,15,,,,,,,,,,,,,,,,15,,40,0
16319,note_on,,59,0,8,,,,,,,,,,,,,,,,6,,64,0
16319,note_on,,59,0,13,,,,,,,,,,,,,,,,12,,64,0
16319,note_on,,59,0,9,,,,,,,,,,,,,,,,7,,59,0
16319,note_on,,119,0,6,,,,,,,,,,,,,,,,2,,40,0
16319,note_on,,59,0,12,,,,,,,,,,,,,,,,11,,71,0
16319,note_on,,59,0,10,,,,,,,,,,,,,,,,8,,52,0
16319,note_on,,59,0,11,,,,,,,,,,,,,,,,10,,80,0
16320,note_on,,1,0,8,,,,,,,,,,,,,,,,6,,64,72
16320,note_on,,1,0,10,,,,,,,,,,,,,,,,8,,45,72
16320,note_on,,0,0,15,,,,,,,,,,,,,,,,15,,72,72
16320,note_on,,0,0,15,,,,,,,,,,,,,,,,15,,69,72
16320,note_on,,1,0,9,,,,,,,,,,,,,,,,7,,60,72
16320,note_on,,0,0,15,,,,,,,,,,,,,,,,15,,64,72
16320,note_on,,0,0,15,,,,,,,,,,,,,,,,15,,52,72
16320,note_on,,1,0,13,,,,,,,,,,,,,,,,12,,64,72
16320,note_on,,1,0,11,,,,,,,,,,,,,,,,10,,81,72
16320,note_on,,1,0,12,,,,,,,,,,,,,,,,11,,72,72
16320,note_on,,1,0,15,,,,,,,,,,,,,,,,15,,45,72
16320,note_on,,1,0,14,,,,,,,,,,,,,,,,13,,45,72
16320,note_on,,1,0,5,,,,,,,,,,,,,,,,1,,69,72
16320,note_on,,1,0,6,,,,,,,,,,,,,,,,2,,45,72
16320,note_on,,1,0,7,,,,,,,,,,,,,,,,5,,69,72
16379,note_on,,59,0,12,,,,,,,,,,,,,,,,11,,72,0
16379,note_on,,59,0,11,,,,,,,,,,,,,,,,10,,81,0
16380,note_on,,1,0,12,,,,,,,,,,,,,,,,11,,71,72
16380,note_on,,1,0,11,,,,,,,,,,,,,,,,10,,76,72
16439,note_on,,0,0,15,,,,,,,,,,,,,,,,15,,69,0
16439,note_on,,59,0,12,,,,,,,,,,,,,,,,11,,71,0
16439,note_on,,59,0,11,,,,,,,,,,,,,,,,10,,76,0
16439,note_on,,0,0,15,,,,,,,,,,,,,,,,15,,52,0
16439,note_on,,0,0,15,,,,,,,,,,,,,,,,15,,64,0
16439,note_on,,119,0,15,,,,,,,,,,,,,,,,15,,72,0
16440,note_on,,1,0,12,,,,,,,,,,,,,,,,11,,69,72
16440,note_on,,1,0,11,,,,,,,,,,,,,,,,10,,84,72
16499,note_on,,179,0,14,,,,,,,,,,,,,,,,13,,45,0
16499,note_on,,179,0,6,,,,,,,,,,,,,,,,2,,45,0
16499,note_on,,60,0,15,,,,,,,,,,,,,,,,15,,45,0
16499,note_on,,59,0,12,,,,,,,,,,,,,,,,11,,69,0
16499,note_on,,59,0,11,,,,,,,,,,,,,,,,10,,84,0
16499,note_on,,179,0,13,,,,,,,,,,,,,,,,12,,64,0
16500,note_on,,1,0,13,,,,,,,,,,,,,,,,12,,62,72
16500,note_on,,1,0,15,,,,,,,,,,,,,,,,15,,47,72
16500,note_on,,1,0,14,,,,,,,,,,,,,,,,13,,47,72
16500,note_on,,1,0,11,,,,,,,,,,,,,,,,10,,83,72
16500,note_on,,1,0,6,,,,,,,,,,,,,,,,2,,47,72
16500,note_on,,1,0,12,,,,,,,,,,,,,,,,11,,68,72
16559,note_on,,239,0,9,,,,,,,,,,,,,,,,7,,60,0
16559,end_of_track,,0,1,9,,,,,,,,,,,,,,,,,,,
16559,note_on,,59,0,13,,,,,,,,,,,,,,,,12,,62,0
16559,note_on,,59,0,14,,,,,,,,,,,,,,,,13,,47,0
16559,note_on,,59,0,11,,,,,,,,,,,,,,,,10,,83,0
16559,note_on,,59,0,15,,,,,,,,,,,,,,,,15,,47,0
16559,note_on,,59,0,6,,,,,,,,,,,,,,,,2,,47,0
16559,note_on,,239,0,8,,,,,,,,,,,,,,,,6,,64,0
16559,end_of_track,,0,1,7,,,,,,,,,,,,,,,,,,,
16559,note_on,,239,0,7,,,,,,,,,,,,,,,,5,,69,0
16559,note_on,,59,0,12,,,,,,,,,,,,,,,,11,,68,0
16559,end_of_track,,0,1,10,,,,,,,,,,,,,,,,,,,
16559,end_of_track,,0,1,8,,,,,,,,,,,,,,,,,,,
16559,note_on,,239,0,5,,,,,,,,,,,,,,,,1,,69,0
16559,end_of_track,,0,1,5,,,,,,,,,,,,,,,,,,,
16559,note_on,,239,0,10,,,,,,,,,,,,,,,,8,,45,0
16560,note_on,,0,0,15,,,,,,,,,,,,,,,,15,,81,72
16560,note_on,,1,0,15,,,,,,,,,,,,,,,,15,,48,72
16560,note_on,,0,0,15,,,,,,,,,,,,,,,,15,,69,72
16560,note_on,,1,0,14,,,,,,,,,,,,,,,,13,,48,72
16560,note_on,,1,0,6,,,,,,,,,,,,,,,,2,,48,72
16560,note_on,,0,0,15,,,,,,,,,,,,,,,,15,,76,72
16560,note_on,,1,0,13,,,,,,,,,,,,,,,,12,,60,72
16560,note_on,,1,0,12,,,,,,,,,,,,,,,,11,,76,72
16560,note_on,,1,0,11,,,,,,,,,,,,,,,,10,,81,72
16619,note_on,,59,0,12,,,,,,,,,,,,,,,,11,,76,0
16619,note_on,,59,0,6,,,,,,,,,,,,,,,,2,,48,0
16619,note_on,,59,0,11,,,,,,,,,,,,,,,,10,,81,0
16619,note_on,,59,0,15,,,,,,,,,,,,,,,,15,,48,0
16619,note_on,,59,0,13,,,,,,,,,,,,,,,,12,,60,0
16619,note_on,,59,0,14,,,,,,,,,,,,,,,,13,,48,0
16620,note_on,,1,0,15,,,,,,,,,,,,,,,,15,,47,72
16620,note_on,,1,0,6,,,,,,,,,,,,,,,,2,,47,72
16620,note_on,,1,0,11,,,,,,,,,,,,,,,,10,,80,72
16620,note_on,,1,0,14,,,,,,,,,,,,,,,,13,,47,72
16620,note_on,,1,0,13,,,,,,,,,,,,,,,,12,,62,72
16620,note_on,,1,0,12,,,,,,,,,,,,,,,,11,,74,72
16679,note_on,,59,0,14,,,,,,,,,,,,,,,,13,,47,0
16679,note_on,,59,0,11,,,,,,,,,,,,,,,,10,,80,0
16679,note_on,,59,0,6,,,,,,,,,,,,,,,,2,,47,0
16679,note_on,,0,0,15,,,,,,,,,,,,,,,,15,,47,0
16679,note_on,,0,0,15,,,,,,,,,,,,,,,,15,,69,0
16679,note_on,,0,0,15,,,,,,,,,,,,,,,,15,,76,0
16679,note_on,,59,0,15,,,,,,,,,,,,,,,,15,,81,0
16679,note_on,,59,0,13,,,,,,,,,,,,,,,,12,,62,0
16679,note_on,,59,0,12,,,,,,,,,,,,,,,,11,,74,0
16680,note_on,,1,0,15,,,,,,,,,,,,,,,,15,,48,72
16680,note_on,,1,0,14,,,,,,,,,,,,,,,,13,,48,72
16680,note_on,,1,0,11,,,,,,,,,,,,,,,,10,,81,72
16680,note_on,,1,0,13,,,,,,,,,,,,,,,,12,,60,72
16680,note_on,,1,0,6,,,,,,,,,,,,,,,,2,,48,72
16680,note_on,,1,0,12,,,,,,,,,,,,,,,,11,,76,72
16739,note_on,,59,0,13,,,,,,,,,,,,,,,,12,,60,0
16739,note_on,,59,0,15,,,,,,,,,,,,,,,,15,,48,0
16739,note_on,,59,0,6,,,,,,,,,,,,,,,,2,,48,0
16739,note_on,,59,0,11,,,,,,,,,,,,,,,,10,,81,0
16739,note_on,,59,0,12,,,,,,,,,,,,,,,,11,,76,0
16739,note_on,,59,0,14,,,,,,,,,,,,,,,,13,,48,0
16740,note_on,,1,0,12,,,,,,,,,,,,,,,,11,,77,72
16740,note_on,,1,0,15,,,,,,,,,,,,,,,,15,,50,72
16740,note_on,,1,0,13,,,,,,,,,,,,,,,,12,,59,72
16740,note_on,,1,0,11,,,,,,,,,,,,,,,,10,,83,72
16740,note_on,,1,0,6,,,,,,,,,,,,,,,,2,,50,72
16740,note_on,,1,0,14,,,,,,,,,,,,,,,,13,,50,72
16799,note_on,,59,0,15,,,,,,,,,,,,,,,,15,,50,0
16799,note_on,,59,0,14,,,,,,,,,,,,,,,,13,,50,0
16799,note_on,,59,0,6,,,,,,,,,,,,,,,,2,,50,0
16799,note_on,,59,0,12,,,,,,,,,,,,,,,,11,,77,0
16799,note_on,,59,0,11,,,,,,,,,,,,,,,,10,,83,0
16799,note_on,,59,0,13,,,,,,,,,,,,,,,,12,,59,0
16800,note_on,,1,0,13,,,,,,,,,,,,,,,,12,,59,72
16800,note_on,,1,0,6,,,,,,,,,,,,,,,,2,,52,72
16800,note_on,,1,0,11,,,,,,,,,,,,,,,,10,,80,72
16800,note_on,,1,0,15,,,,,,,,,,,,,,,,15,,68,72
16800,note_on,,0,0,15,,,,,,,,,,,,,,,,15,,52,72
16800,note_on,,0,0,15,,,,,,,,,,,,,,,,15,,76,72
16800,note_on,,0,0,15,,,,,,,,,,,,,,,,15,,71,72
16800,note_on,,1,0,12,,,,,,,,,,,,,,,,11,,71,72
16800,note_on,,1,0,14,,,,,,,,,,,,,,,,13,,52,72
16859,note_on,,59,0,12,,,,,,,,,,,,,,,,11,,71,0
16860,note_on,,1,0,12,,,,,,,,,,,,,,,,11,,68,72
16919,note_on,,119,0,15,,,,,,,,,,,,,,,,15,,68,0
16919,note_on,,0,0,15,,,,,,,,,,,,,,,,15,,52,0
16919,note_on,,0,0,15,,,,,,,,,,,,,,,,15,,76,0
16919,note_on,,0,0,15,,,,,,,,,,,,,,,,15,,71,0
16919,note_on,,119,0,13,,,,,,,,,,,,,,,,12,,59,0
16919,note_on,,119,0,6,,,,,,,,,,,,,,,,2,,52,0
16919,note_on,,59,0,12,,,,,,,,,,,,,,,,11,,68,0
16919,note_on,,119,0,14,,,,,,,,,,,,,,,,13,,52,0
16919,note_on,,119,0,11,,,,,,,,,,,,,,,,10,,80,0
16920,note_on,,1,0,6,,,,,,,,,,,,,,,,2,,54,72
16920,note_on,,1,0,15,,,,,,,,,,,,,,,,15,,54,72
16920,note_on,,1,0,12,,,,,,,,,,,,,,,,11,,69,72
16920,note_on,,1,0,14,,,,,,,,,,,,,,,,13,,54,72
16920,note_on,,1,0,11,,,,,,,,,,,,,,,,10,,76,72
16979,note_on,,59,0,6,,,,,,,,,,,,,,,,2,,54,0
16979,note_on,,59,0,15,,,,,,,,,,,,,,,,15,,54,0
16979,note_on,,59,0,12,,,,,,,,,,,,,,,,11,,69,0
16979,note_on,,59,0,14,,,,,,,,,,,,,,,,13,,54,0
16980,note_on,,1,0,12,,,,,,,,,,,,,,,,11,,71,72
16980,note_on,,1,0,15,,,,,,,,,,,,,,,,15,,56,72
16980,note_on,,61,0,13,,,,,,,,,,,,,,,,12,,64,72
16980,note_on,,1,0,14,,,,,,,,,,,,,,,,13,,56,72
16980,note_on,,1,0,6,,,,,,,,,,,,,,,,2,,56,72
17039,note_on,,59,0,13,,,,,,,,,,,,,,,,12,,64,0
17039,note_on,,59,0,14,,,,,,,,,,,,,,,,13,,56,0
17039,note_on,,59,0,12,,,,,,,,,,,,,,,,11,,71,0
17039,note_on,,59,0,6,,,,,,,,,,,,,,,,2,,56,0
17039,note_on,,59,0,15,,,,,,,,,,,,,,,,15,,56,0
17040,note_on,,1,0,14,,,,,,,,,,,,,,,,13,,57,72
17040,note_on,,1,0,13,,,,,,,,,,,,,,,,12,,64,72
17040,note_on,,1,0,6,,,,,,,,,,,,,,,,2,,57,72
17040,note_on,,1,0,15,,,,,,,,,,,,,,,,15,,57,72
17040,note_on,,0,0,15,,,,,,,,,,,,,,,,15,,72,72
17040,note_on,,0,0,15,,,,,,,,,,,,,,,,15,,69,72
17040,note_on,,0,0,15,,,,,,,,,,,,,,,,15,,64,72
17040,note_on,,1,0,12,,,,,,,,,,,,,,,,11,,72,72
17099,note_on,,59,0,12,,,,,,,,,,,,,,,,11,,72,0
17099,note_on,,59,0,6,,,,,,,,,,,,,,,,2,,57,0
17099,note_on,,59,0,14,,,,,,,,,,,,,,,,13,,57,0
17099,note_on,,59,0,15,,,,,,,,,,,,,,,,15,,57,0
17100,note_on,,1,0,14,,,,,,,,,,,,,,,,13,,59,72
17100,note_on,,1,0,12,,,,,,,,,,,,,,,,11,,71,72
17100,note_on,,1,0,6,,,,,,,,,,,,,,,,2,,59,72
17100,note_on,,1,0,15,,,,,,,,,,,,,,,,15,,59,72
17159,note_on,,59,0,6,,,,,,,,,,,,,,,,2,,59,0
17159,note_on,,59,0,14,,,,,,,,,,,,,,,,13,,59,0
17159,note_on,,59,0,12,,,,,,,,,,,,,,,,11,,71,0
17159,note_on,,0,0,15,,,,,,,,,,,,,,,,15,,69,0
17159,note_on,,0,0,15,,,,,,,,,,,,,,,,15,,64,0
17159,note_on,,239,0,11,,,,,,,,,,,,,,,,10,,76,0
17159,note_on,,59,0,15,,,,,,,,,,,,,,,,15,,72,0
17159,note_on,,0,0,15,,,,,,,,,,,,,,,,15,,59,0
17160,note_on,,1,0,11,,,,,,,,,,,,,,,,10,,81,72
17160,note_on,,1,0,6,,,,,,,,,,,,,,,,2,,60,72
17160,note_on,,1,0,14,,,,,,,,,,,,,,,,13,,60,72
17160,note_on,,1,0,15,,,,,,,,,,,,,,,,15,,60,72
17160,note_on,,1,0,12,,,,,,,,,,,,,,,,11,,69,72
17219,note_on,,179,0,13,,,,,,,,,,,,,,,,12,,64,0
17219,note_on,,59,0,12,,,,,,,,,,,,,,,,11,,69,0
17219,note_on,,59,0,14,,,,,,,,,,,,,,,,13,,60,0
17219,note_on,,59,0,15,,,,,,,,,,,,,,,,15,,60,0
17219,note_on,,59,0,6,,,,,,,,,,,,,,,,2,,60,0
17220,note_on,,1,0,12,,,,,,,,,,,,,,,,11,,77,72
17220,note_on,,1,0,14,,,,,,,,,,,,,,,,13,,62,72
17220,note_on,,1,0,15,,,,,,,,,,,,,,,,15,,62,72
17220,note_on,,1,0,13,,,,,,,,,,,,,,,,12,,74,72
17220,note_on,,1,0,6,,,,,,,,,,,,,,,,2,,62,72
17279,note_on,,119,0,11,,,,,,,,,,,,,,,,10,,81,0
17279,note_on,,59,0,15,,,,,,,,,,,,,,,,15,,62,0
17279,note_on,,59,0,12,,,,,,,,,,,,,,,,11,,77,0
17279,note_on,,59,0,14,,,,,,,,,,,,,,,,13,,62,0
17279,note_on,,59,0,6,,,,,,,,,,,,,,,,2,,62,0
17279,note_on,,59,0,13,,,,,,,,,,,,,,,,12,,74,0
17280,note_on,,1,0,14,,,,,,,,,,,,,,,,13,,64,72
17280,note_on,,1,0,6,,,,,,,,,,,,,,,,2,,64,72
17280,note_on,,1,0,11,,,,,,,,,,,,,,,,10,,80,72
17280,note_on,,1,0,13,,,,,,,,,,,,,,,,12,,71,72
17280,note_on,,1,0,12,,,,,,,,,,,,,,,,11,,71,72
17280,note_on,,0,0,15,,,,,,,,,,,,,,,,15,,68,72
17280,note_on,,0,0,15,,,,,,,,,,,,,,,,15,,71,72
17280,note_on,,1,0,15,,,,,,,,,,,,,,,,15,,64,72
17339,note_on,,59,0,12,,,,,,,,,,,,,,,,11,,71,0
17339,note_on,,59,0,6,,,,,,,,,,,,,,,,2,,64,0
17339,note_on,,59,0,11,,,,,,,,,,,,,,,,10,,80,0
17339,note_on,,59,0,14,,,,,,,,,,,,,,,,13,,64,0
17340,note_on,,1,0,6,,,,,,,,,,,,,,,,2,,56,72
17340,note_on,,1,0,12,,,,,,,,,,,,,,,,11,,76,72
17340,note_on,,1,0,11,,,,,,,,,,,,,,,,10,,76,72
17340,note_on,,60,0,15,,,,,,,,,,,,,,,,15,,56,72
17340,note_on,,1,0,14,,,,,,,,,,,,,,,,13,,56,72
17399,note_on,,0,0,15,,,,,,,,,,,,,,,,15,,56,0
17399,note_on,,59,0,15,,,,,,,,,,,,,,,,15,,64,0
17399,note_on,,119,0,13,,,,,,,,,,,,,,,,12,,71,0
17399,note_on,,0,0,15,,,,,,,,,,,,,,,,15,,71,0
17399,note_on,,0,0,15,,,,,,,,,,,,,,,,15,,68,0
17399,note_on,,59,0,12,,,,,,,,,,,,,,,,11,,76,0
17399,note_on,,59,0,6,,,,,,,,,,,,,,,,2,,56,0
17399,note_on,,59,0,14,,,,,,,,,,,,,,,,13,,56,0
17399,note_on,,59,0,11,,,,,,,,,,,,,,,,10,,76,0
17400,note_on,,1,0,14,,,,,,,,,,,,,,,,13,,57,72
17400,note_on,,1,0,13,,,,,,,,,,,,,,,,12,,69,72
17400,note_on,,1,0,11,,,,,,,,,,,,,,,,10,,84,72
17400,note_on,,1,0,12,,,,,,,,,,,,,,,,11,,76,72
17400,note_on,,1,0,6,,,,,,,,,,,,,,,,2,,57,72
17400,note_on,,1,0,15,,,,,,,,,,,,,,,,15,,57,72
17400,note_on,,0,0,15,,,,,,,,,,,,,,,,15,,69,72
17400,note_on,,0,0,15,,,,,,,,,,,,,,,,15,,64,72
17400,note_on,,0,0,15,,,,,,,,,,,,,,,,15,,60,72
17459,note_on,,59,0,11,,,,,,,,,,,,,,,,10,,84,0
17459,note_on,,59,0,6,,,,,,,,,,,,,,,,2,,57,0
17459,note_on,,59,0,15,,,,,,,,,,,,,,,,15,,57,0
17459,note_on,,0,0,15,,,,,,,,,,,,,,,,15,,64,0
17459,note_on,,0,0,15,,,,,,,,,,,,,,,,15,,60,0
17459,note_on,,59,0,12,,,,,,,,,,,,,,,,11,,76,0
17459,note_on,,59,0,14,,,,,,,,,,,,,,,,13,,57,0
17460,note_on,,0,0,15,,,,,,,,,,,,,,,,15,,65,72
17460,note_on,,0,0,15,,,,,,,,,,,,,,,,15,,62,72
17460,note_on,,1,0,11,,,,,,,,,,,,,,,,10,,81,72
17460,note_on,,1,0,6,,,,,,,,,,,,,,,,2,,50,72
17460,note_on,,1,0,14,,,,,,,,,,,,,,,,13,,50,72
17460,note_on,,1,0,15,,,,,,,,,,,,,,,,15,,50,72
17460,note_on,,1,0,12,,,,,,,,,,,,,,,,11,,77,72
17519,note_on,,59,0,11,,,,,,,,,,,,,,,,10,,81,0
17519,note_on,,59,0,6,,,,,,,,,,,,,,,,2,,50,0
17519,note_on,,59,0,12,,,,,,,,,,,,,,,,11,,77,0
17519,note_on,,59,0,14,,,,,,,,,,,,,,,,13,,50,0
17519,note_on,,0,0,15,,,,,,,,,,,,,,,,15,,62,0
17519,note_on,,0,0,15,,,,,,,,,,,,,,,,15,,65,0
17519,note_on,,0,0,15,,,,,,,,,,,,,,,,15,,50,0
17519,note_on,,59,0,15,,,,,,,,,,,,,,,,15,,69,0
17519,note_on,,119,0,13,,,,,,,,,,,,,,,,12,,69,0
17520,note_on,,1,0,11,,,,,,,,,,,,,,,,10,,80,72
17520,note_on,,1,0,13,,,,,,,,,,,,,,,,12,,64,72
17520,note_on,,0,0,15,,,,,,,,,,,,,,,,15,,59,72
17520,note_on,,1,0,6,,,,,,,,,,,,,,,,2,,52,72
17520,note_on,,1,0,12,,,,,,,,,,,,,,,,11,,71,72
17520,note_on,,0,0,15,,,,,,,,,,,,,,,,15,,64,72
17520,note_on,,0,0,15,,,,,,,,,,,,,,,,15,,68,72
17520,note_on,,1,0,15,,,,,,,,,,,,,,,,15,,52,72
17520,note_on,,1,0,14,,,,,,,,,,,,,,,,13,,52,72
17534,note_on,,14,0,11,,,,,,,,,,,,,,,,10,,80,0
17535,note_on,,1,0,11,,,,,,,,,,,,,,,,10,,81,72
17549,note_on,,14,0,11,,,,,,,,,,,,,,,,10,,81,0
17550,note_on,,1,0,11,,,,,,,,,,,,,,,,10,,80,72
17564,note_on,,14,0,11,,,,,,,,,,,,,,,,10,,80,0
17565,note_on,,1,0,11,,,,,,,,,,,,,,,,10,,81,72
17579,note_on,,14,0,11,,,,,,,,,,,,,,,,10,,81,0
17580,note_on,,1,0,11,,,,,,,,,,,,,,,,10,,80,72
17594,note_on,,14,0,11,,,,,,,,,,,,,,,,10,,80,0
17595,note_on,,1,0,11,,,,,,,,,,,,,,,,10,,81,72
17609,note_on,,14,0,11,,,,,,,,,,,,,,,,10,,81,0
17610,note_on,,1,0,11,,,,,,,,,,,,,,,,10,,80,72
17624,note_on,,14,0,11,,,,,,,,,,,,,,,,10,,80,0
17625,note_on,,1,0,11,,,,,,,,,,,,,,,,10,,81,72
17639,note_on,,14,0,11,,,,,,,,,,,,,,,,10,,81,0
17639,note_on,,119,0,13,,,,,,,,,,,,,,,,12,,64,0
17639,note_on,,119,0,15,,,,,,,,,,,,,,,,15,,52,0
17639,note_on,,119,0,14,,,,,,,,,,,,,,,,13,,52,0
17639,note_on,,119,0,6,,,,,,,,,,,,,,,,2,,52,0
17640,note_on,,1,0,11,,,,,,,,,,,,,,,,10,,80,72
17640,note_on,,1,0,13,,,,,,,,,,,,,,,,12,,64,72
17640,note_on,,0,0,15,,,,,,,,,,,,,,,,15,,52,72
17640,note_on,,1,0,15,,,,,,,,,,,,,,,,15,,40,72
17640,note_on,,1,0,14,,,,,,,,,,,,,,,,13,,40,72
17640,note_on,,1,0,6,,,,,,,,,,,,,,,,2,,40,72
17654,note_on,,14,0,11,,,,,,,,,,,,,,,,10,,80,0
17655,note_on,,1,0,11,,,,,,,,,,,,,,,,10,,81,72
17669,note_on,,14,0,11,,,,,,,,,,,,,,,,10,,81,0
17670,note_on,,1,0,11,,,,,,,,,,,,,,,,10,,77,72
17684,note_on,,14,0,11,,,,,,,,,,,,,,,,10,,77,0
17685,note_on,,1,0,11,,,,,,,,,,,,,,,,10,,80,72
17699,note_on,,179,0,12,,,,,,,,,,,,,,,,11,,71,0
17699,note_on,,14,0,11,,,,,,,,,,,,,,,,10,,80,0
17700,note_on,,1,0,12,,,,,,,,,,,,,,,,11,,76,72
17700,note_on,,1,0,11,,,,,,,,,,,,,,,,10,,81,72
17759,note_on,,59,0,11,,,,,,,,,,,,,,,,10,,81,0
17759,note_on,,119,0,13,,,,,,,,,,,,,,,,12,,64,0
17759,note_on,,0,0,15,,,,,,,,,,,,,,,,15,,59,0
17759,note_on,,119,0,15,,,,,,,,,,,,,,,,15,,68,0
17759,note_on,,0,0,15,,,,,,,,,,,,,,,,15,,40,0
17759,note_on,,0,0,15,,,,,,,,,,,,,,,,15,,52,0
17759,note_on,,119,0,14,,,,,,,,,,,,,,,,13,,40,0
17759,note_on,,0,0,15,,,,,,,,,,,,,,,,15,,64,0
17759,note_on,,59,0,12,,,,,,,,,,,,,,,,11,,76,0
17759,note_on,,119,0,6,,,,,,,,,,,,,,,,2,,40,0
17760,note_on,,1,0,11,,,,,,,,,,,,,,,,10,,81,72
17760,note_on,,0,0,15,,,,,,,,,,,,,,,,15,,52,72
17760,note_on,,0,0,15,,,,,,,,,,,,,,,,15,,60,72
17760,note_on,,0,0,15,,,,,,,,,,,,,,,,15,,69,72
17760,note_on,,0,0,15,,,,,,,,,,,,,,,,15,,64,72
17760,note_on,,1,0,14,,,,,,,,,,,,,,,,13,,45,72
17760,note_on,,1,0,15,,,,,,,,,,,,,,,,15,,45,72
17760,note_on,,1,0,12,,,,,,,,,,,,,,,,11,,72,72
17760,note_on,,1,0,13,,,,,,,,,,,,,,,,12,,64,72
17760,note_on,,1,0,6,,,,,,,,,,,,,,,,2,,45,72
17879,note_on,,119,0,15,,,,,,,,,,,,,,,,15,,45,0
17879,note_on,,0,0,15,,,,,,,,,,,,,,,,15,,69,0
17879,note_on,,0,0,15,,,,,,,,,,,,,,,,15,,64,0
17879,note_on,,0,0,15,,,,,,,,,,,,,,,,15,,60,0
17879,end_of_track,,0,1,15,,,,,,,,,,,,,,,,,,,
17879,end_of_track,,0,1,13,,,,,,,,,,,,,,,,,,,
17879,end_of_track,,0,1,12,,,,,,,,,,,,,,,,,,,
17879,note_on,,119,0,12,,,,,,,,,,,,,,,,11,,72,0
17879,note_on,,119,0,14,,,,,,,,,,,,,,,,13,,45,0
17879,end_of_track,,0,1,14,,,,,,,,,,,,,,,,,,,
17879,end_of_track,,0,1,11,,,,,,,,,,,,,,,,,,,
17879,note_on,,119,0,11,,,,,,,,,,,,,,,,10,,81,0
17879,note_on,,0,0,15,,,,,,,,,,,,,,,,15,,52,0
17879,end_of_track,,0,1,6,,,,,,,,,,,,,,,,,,,
17879,note_on,,119,0,6,,,,,,,,,,,,,,,,2,,45,0
17879,note_on,,119,0,13,,,,,,,,,,,,,,,,12,,64,0
18720,set_tempo,,7680,1,0,,,,,,,,,500000,,,,,,,,,,
18720,end_of_track,,0,1,0,,,,,,,,,,,,,,,,,,,
