tick,type,data,time,meta,track,frame_rate,hours,minutes,seconds,frames,sub_frames,port,key,tempo,numerator,denominator,clocks_per_click,notated_32nd_notes_per_beat,control,value,channel,program,note,velocity
0,sequencer_specific,"(0, 0, 91, 35, 1, 0, 5, 4, 35, 0)",0,1,0,,,,,,,,,,,,,,,,,,,
0,control_change,,0,0,9,,,,,,,,,,,,,,7,96,13,,,
0,control_change,,0,0,9,,,,,,,,,,,,,,11,127,13,,,
0,midi_port,,0,1,9,,,,,,,0,,,,,,,,,,,,
0,track_name,,0,1,9,,,,,,,,,,,,,,,,,,,
0,track_name,,0,1,10,,,,,,,,,,,,,,,,,,,
0,midi_port,,0,1,10,,,,,,,0,,,,,,,,,,,,
0,control_change,,0,0,10,,,,,,,,,,,,,,11,127,15,,,
0,control_change,,0,0,10,,,,,,,,,,,,,,7,96,15,,,
0,control_change,,0,0,10,,,,,,,,,,,,,,10,90,15,,,
0,program_change,,0,0,10,,,,,,,,,,,,,,,,15,6,,
0,midi_port,,0,1,6,,,,,,,0,,,,,,,,,,,,
0,note_on,,0,0,8,,,,,,,,,,,,,,,,11,,64,64
0,program_change,,0,0,8,,,,,,,,,,,,,,,,11,48,,
0,control_change,,0,0,8,,,,,,,,,,,,,,10,24,11,,,
0,control_change,,0,0,8,,,,,,,,,,,,,,7,96,11,,,
0,control_change,,0,0,8,,,,,,,,,,,,,,11,127,11,,,
0,midi_port,,0,1,8,,,,,,,0,,,,,,,,,,,,
0,track_name,,0,1,8,,,,,,,,,,,,,,,,,,,
0,note_on,,0,0,7,,,,,,,,,,,,,,,,10,,64,64
0,program_change,,0,0,7,,,,,,,,,,,,,,,,10,48,,
0,control_change,,0,0,7,,,,,,,,,,,,,,10,48,10,,,
0,control_change,,0,0,7,,,,,,,,,,,,,,7,96,10,,,
0,control_change,,0,0,7,,,,,,,,,,,,,,11,127,10,,,
0,midi_port,,0,1,7,,,,,,,0,,,,,,,,,,,,
0,track_name,,0,1,7,,,,,,,,,,,,,,,,,,,
0,program_change,,0,0,6,,,,,,,,,,,,,,,,5,73,,
0,control_change,,0,0,6,,,,,,,,,,,,,,7,96,5,,,
0,control_change,,0,0,6,,,,,,,,,,,,,,10,70,5,,,
0,control_change,,0,0,6,,,,,,,,,,,,,,11,127,5,,,
0,control_change,,0,0,9,,,,,,,,,,,,,,10,96,13,,,
0,program_change,,0,0,9,,,,,,,,,,,,,,,,13,48,,
0,track_name,,0,1,6,,,,,,,,,,,,,,,,,,,
0,midi_port,,0,1,3,,,,,,,0,,,,,,,,,,,,
0,track_name,,0,1,3,,,,,,,,,,,,,,,,,,,
0,end_of_track,,0,1,2,,,,,,,,,,,,,,,,,,,
0,midi_port,,0,1,2,,,,,,,0,,,,,,,,,,,,
0,track_name,,0,1,2,,,,,,,,,,,,,,,,,,,
0,end_of_track,,0,1,3,,,,,,,,,,,,,,,,,,,
0,midi_port,,0,1,4,,,,,,,0,,,,,,,,,,,,
0,end_of_track,,0,1,4,,,,,,,,,,,,,,,,,,,
0,track_name,,0,1,5,,,,,,,,,,,,,,,,,,,
0,midi_port,,0,1,5,,,,,,,0,,,,,,,,,,,,
0,control_change,,0,0,5,,,,,,,,,,,,,,11,127,2,,,
0,control_change,,0,0,5,,,,,,,,,,,,,,10,65,2,,,
0,program_change,,0,0,5,,,,,,,,,,,,,,,,2,70,,
0,end_of_track,,0,1,1,,,,,,,,,,,,,,,,,,,
0,control_change,,0,0,5,,,,,,,,,,,,,,7,88,2,,,
0,track_name,,0,1,0,,,,,,,,,,,,,,,,,,,
0,instrument_name,,0,1,0,,,,,,,,,,,,,,,,,,,
0,smpte_offset,,0,1,0,25,32,0,3,0,0,,,,,,,,,,,,,
0,midi_port,,0,1,0,,,,,,,0,,,,,,,,,,,,
0,track_name,,0,1,1,,,,,,,,,,,,,,,,,,,
0,time_signature,,0,1,0,,,,,,,,,,9,8,12,8,,,,,,
0,set_tempo,,0,1,0,,,,,,,,,750000,,,,,,,,,,
0,key_signature,,0,1,0,,,,,,,,A,,,,,,,,,,,
0,midi_port,,0,1,1,,,,,,,0,,,,,,,,,,,,
59,note_on,,59,0,8,,,,,,,,,,,,,,,,11,,64,0
59,note_on,,59,0,7,,,,,,,,,,,,,,,,10,,64,0
60,note_on,,0,0,10,,,,,,,,,,,,,,,,15,,76,64
60,note_on,,0,0,10,,,,,,,,,,,,,,,,15,,61,64
60,note_on,,1,0,8,,,,,,,,,,,,,,,,11,,73,64
60,note_on,,0,0,10,,,,,,,,,,,,,,,,15,,69,64
60,note_on,,60,0,10,,,,,,,,,,,,,,,,15,,57,64
60,note_on,,1,0,7,,,,,,,,,,,,,,,,10,,73,64
60,note_on,,60,0,9,,,,,,,,,,,,,,,,13,,57,64
60,note_on,,60,0,5,,,,,,,,,,,,,,,,2,,57,64
60,note_on,,0,0,10,,,,,,,,,,,,,,,,15,,64,64
119,note_on,,59,0,10,,,,,,,,,,,,,,,,15,,57,0
119,note_on,,0,0,10,,,,,,,,,,,,,,,,15,,61,0
119,note_on,,59,0,9,,,,,,,,,,,,,,,,13,,57,0
119,note_on,,59,0,5,,,,,,,,,,,,,,,,2,,57,0
120,note_on,,1,0,10,,,,,,,,,,,,,,,,15,,56,64
120,note_on,,1,0,9,,,,,,,,,,,,,,,,13,,56,64
120,note_on,,0,0,10,,,,,,,,,,,,,,,,15,,59,64
120,note_on,,1,0,5,,,,,,,,,,,,,,,,2,,56,64
179,note_on,,59,0,9,,,,,,,,,,,,,,,,13,,56,0
179,note_on,,0,0,10,,,,,,,,,,,,,,,,15,,59,0
179,note_on,,59,0,10,,,,,,,,,,,,,,,,15,,56,0
179,note_on,,59,0,5,,,,,,,,,,,,,,,,2,,56,0
180,note_on,,1,0,9,,,,,,,,,,,,,,,,13,,57,64
180,note_on,,0,0,10,,,,,,,,,,,,,,,,15,,61,64
180,note_on,,1,0,5,,,,,,,,,,,,,,,,2,,57,64
180,note_on,,1,0,10,,,,,,,,,,,,,,,,15,,57,64
239,note_on,,0,0,10,,,,,,,,,,,,,,,,15,,64,0
239,note_on,,59,0,9,,,,,,,,,,,,,,,,13,,57,0
239,note_on,,179,0,7,,,,,,,,,,,,,,,,10,,73,0
239,note_on,,0,0,10,,,,,,,,,,,,,,,,15,,69,0
239,note_on,,0,0,10,,,,,,,,,,,,,,,,15,,61,0
239,note_on,,59,0,5,,,,,,,,,,,,,,,,2,,57,0
239,note_on,,59,0,10,,,,,,,,,,,,,,,,15,,76,0
239,note_on,,0,0,10,,,,,,,,,,,,,,,,15,,57,0
239,note_on,,179,0,8,,,,,,,,,,,,,,,,11,,73,0
240,note_on,,1,0,10,,,,,,,,,,,,,,,,15,,52,64
240,note_on,,0,0,10,,,,,,,,,,,,,,,,15,,56,64
240,note_on,,0,0,10,,,,,,,,,,,,,,,,15,,73,64
240,note_on,,0,0,10,,,,,,,,,,,,,,,,15,,68,64
240,note_on,,0,0,10,,,,,,,,,,,,,,,,15,,64,64
240,note_on,,1,0,7,,,,,,,,,,,,,,,,10,,76,64
240,note_on,,1,0,9,,,,,,,,,,,,,,,,13,,52,64
240,note_on,,1,0,8,,,,,,,,,,,,,,,,11,,76,64
240,note_on,,1,0,5,,,,,,,,,,,,,,,,2,,52,64
269,note_on,,29,0,7,,,,,,,,,,,,,,,,10,,76,0
269,note_on,,29,0,8,,,,,,,,,,,,,,,,11,,76,0
270,note_on,,1,0,8,,,,,,,,,,,,,,,,11,,68,64
270,note_on,,1,0,7,,,,,,,,,,,,,,,,10,,68,64
299,note_on,,0,0,10,,,,,,,,,,,,,,,,15,,68,0
299,note_on,,59,0,9,,,,,,,,,,,,,,,,13,,52,0
299,note_on,,29,0,8,,,,,,,,,,,,,,,,11,,68,0
299,note_on,,0,0,10,,,,,,,,,,,,,,,,15,,73,0
299,note_on,,29,0,7,,,,,,,,,,,,,,,,10,,68,0
299,note_on,,0,0,10,,,,,,,,,,,,,,,,15,,56,0
299,note_on,,59,0,10,,,,,,,,,,,,,,,,15,,52,0
299,note_on,,0,0,10,,,,,,,,,,,,,,,,15,,64,0
299,note_on,,59,0,5,,,,,,,,,,,,,,,,2,,52,0
300,note_on,,1,0,5,,,,,,,,,,,,,,,,2,,54,64
300,note_on,,1,0,8,,,,,,,,,,,,,,,,11,,69,64
300,note_on,,1,0,9,,,,,,,,,,,,,,,,13,,54,64
300,note_on,,0,0,10,,,,,,,,,,,,,,,,15,,54,64
300,note_on,,0,0,10,,,,,,,,,,,,,,,,15,,57,64
300,note_on,,1,0,10,,,,,,,,,,,,,,,,15,,69,64
300,note_on,,1,0,7,,,,,,,,,,,,,,,,10,,69,64
359,note_on,,59,0,9,,,,,,,,,,,,,,,,13,,54,0
359,note_on,,0,0,10,,,,,,,,,,,,,,,,15,,57,0
359,note_on,,59,0,5,,,,,,,,,,,,,,,,2,,54,0
359,note_on,,59,0,10,,,,,,,,,,,,,,,,15,,54,0
360,note_on,,0,0,10,,,,,,,,,,,,,,,,15,,56,64
360,note_on,,1,0,10,,,,,,,,,,,,,,,,15,,52,64
360,note_on,,1,0,5,,,,,,,,,,,,,,,,2,,52,64
360,note_on,,1,0,9,,,,,,,,,,,,,,,,13,,52,64
419,note_on,,0,0,10,,,,,,,,,,,,,,,,15,,56,0
419,note_on,,59,0,10,,,,,,,,,,,,,,,,15,,52,0
419,note_on,,59,0,9,,,,,,,,,,,,,,,,13,,52,0
419,note_on,,59,0,5,,,,,,,,,,,,,,,,2,,52,0
420,note_on,,1,0,5,,,,,,,,,,,,,,,,2,,54,64
420,note_on,,1,0,10,,,,,,,,,,,,,,,,15,,54,64
420,note_on,,0,0,10,,,,,,,,,,,,,,,,15,,57,64
420,note_on,,1,0,9,,,,,,,,,,,,,,,,13,,54,64
479,note_on,,179,0,7,,,,,,,,,,,,,,,,10,,69,0
479,note_on,,179,0,8,,,,,,,,,,,,,,,,11,,69,0
479,note_on,,59,0,5,,,,,,,,,,,,,,,,2,,54,0
479,note_on,,59,0,10,,,,,,,,,,,,,,,,15,,69,0
479,note_on,,0,0,10,,,,,,,,,,,,,,,,15,,54,0
479,note_on,,59,0,9,,,,,,,,,,,,,,,,13,,54,0
479,note_on,,0,0,10,,,,,,,,,,,,,,,,15,,57,0
480,note_on,,1,0,9,,,,,,,,,,,,,,,,13,,49,64
480,note_on,,0,0,10,,,,,,,,,,,,,,,,15,,57,64
480,note_on,,1,0,8,,,,,,,,,,,,,,,,11,,64,64
480,note_on,,0,0,10,,,,,,,,,,,,,,,,15,,69,64
480,note_on,,0,0,10,,,,,,,,,,,,,,,,15,,64,64
480,note_on,,1,0,7,,,,,,,,,,,,,,,,10,,64,64
480,note_on,,1,0,5,,,,,,,,,,,,,,,,2,,49,64
480,note_on,,1,0,10,,,,,,,,,,,,,,,,15,,49,64
539,note_on,,59,0,10,,,,,,,,,,,,,,,,15,,49,0
539,note_on,,0,0,10,,,,,,,,,,,,,,,,15,,57,0
539,note_on,,0,0,10,,,,,,,,,,,,,,,,15,,64,0
539,note_on,,59,0,7,,,,,,,,,,,,,,,,10,,64,0
539,note_on,,59,0,8,,,,,,,,,,,,,,,,11,,64,0
539,note_on,,0,0,10,,,,,,,,,,,,,,,,15,,69,0
539,note_on,,59,0,5,,,,,,,,,,,,,,,,2,,49,0
539,note_on,,59,0,9,,,,,,,,,,,,,,,,13,,49,0
540,note_on,,0,0,10,,,,,,,,,,,,,,,,15,,59,64
540,time_signature,,540,1,0,,,,,,,,,,4,4,24,8,,,,,,
540,note_on,,1,0,7,,,,,,,,,,,,,,,,10,,71,64
540,note_on,,0,0,10,,,,,,,,,,,,,,,,15,,62,64
540,note_on,,0,0,10,,,,,,,,,,,,,,,,15,,68,64
540,note_on,,1,0,10,,,,,,,,,,,,,,,,15,,47,64
540,note_on,,1,0,5,,,,,,,,,,,,,,,,2,,47,64
540,note_on,,1,0,8,,,,,,,,,,,,,,,,11,,71,64
540,note_on,,1,0,9,,,,,,,,,,,,,,,,13,,47,64
584,note_on,,44,0,7,,,,,,,,,,,,,,,,10,,71,0
584,note_on,,44,0,8,,,,,,,,,,,,,,,,11,,71,0
585,note_on,,1,0,7,,,,,,,,,,,,,,,,10,,73,64
585,note_on,,1,0,8,,,,,,,,,,,,,,,,11,,73,64
599,note_on,,59,0,5,,,,,,,,,,,,,,,,2,,47,0
599,note_on,,59,0,10,,,,,,,,,,,,,,,,15,,47,0
599,note_on,,0,0,10,,,,,,,,,,,,,,,,15,,68,0
599,note_on,,14,0,8,,,,,,,,,,,,,,,,11,,73,0
599,note_on,,14,0,7,,,,,,,,,,,,,,,,10,,73,0
599,note_on,,59,0,9,,,,,,,,,,,,,,,,13,,47,0
600,note_on,,1,0,5,,,,,,,,,,,,,,,,2,,56,64
600,note_on,,1,0,8,,,,,,,,,,,,,,,,11,,74,64
600,note_on,,1,0,7,,,,,,,,,,,,,,,,10,,74,64
600,note_on,,0,0,10,,,,,,,,,,,,,,,,15,,71,64
600,note_on,,1,0,10,,,,,,,,,,,,,,,,15,,56,64
600,note_on,,1,0,9,,,,,,,,,,,,,,,,13,,56,64
659,note_on,,59,0,5,,,,,,,,,,,,,,,,2,,56,0
659,note_on,,59,0,9,,,,,,,,,,,,,,,,13,,56,0
659,note_on,,59,0,8,,,,,,,,,,,,,,,,11,,74,0
659,note_on,,0,0,10,,,,,,,,,,,,,,,,15,,71,0
659,note_on,,59,0,10,,,,,,,,,,,,,,,,15,,62,0
659,note_on,,0,0,10,,,,,,,,,,,,,,,,15,,59,0
659,note_on,,0,0,10,,,,,,,,,,,,,,,,15,,56,0
659,note_on,,59,0,7,,,,,,,,,,,,,,,,10,,74,0
660,note_on,,1,0,8,,,,,,,,,,,,,,,,11,,73,64
660,note_on,,1,0,10,,,,,,,,,,,,,,,,15,,57,64
660,note_on,,0,0,10,,,,,,,,,,,,,,,,15,,61,64
660,note_on,,0,0,10,,,,,,,,,,,,,,,,15,,64,64
660,note_on,,1,0,5,,,,,,,,,,,,,,,,2,,57,64
660,note_on,,1,0,7,,,,,,,,,,,,,,,,10,,73,64
660,note_on,,1,0,9,,,,,,,,,,,,,,,,13,,57,64
719,note_on,,59,0,10,,,,,,,,,,,,,,,,15,,57,0
719,note_on,,59,0,5,,,,,,,,,,,,,,,,2,,57,0
719,note_on,,0,0,10,,,,,,,,,,,,,,,,15,,64,0
719,note_on,,59,0,9,,,,,,,,,,,,,,,,13,,57,0
720,note_on,,0,0,10,,,,,,,,,,,,,,,,15,,69,64
720,note_on,,1,0,10,,,,,,,,,,,,,,,,15,,45,64
720,note_on,,1,0,5,,,,,,,,,,,,,,,,2,,45,64
720,note_on,,1,0,9,,,,,,,,,,,,,,,,13,,45,64
749,note_on,,89,0,7,,,,,,,,,,,,,,,,10,,73,0
749,note_on,,89,0,8,,,,,,,,,,,,,,,,11,,73,0
750,note_on,,1,0,8,,,,,,,,,,,,,,,,11,,71,64
750,note_on,,1,0,7,,,,,,,,,,,,,,,,10,,71,64
779,note_on,,0,0,10,,,,,,,,,,,,,,,,15,,45,0
779,note_on,,0,0,10,,,,,,,,,,,,,,,,15,,69,0
779,note_on,,29,0,7,,,,,,,,,,,,,,,,10,,71,0
779,note_on,,59,0,5,,,,,,,,,,,,,,,,2,,45,0
779,note_on,,59,0,10,,,,,,,,,,,,,,,,15,,61,0
779,note_on,,29,0,8,,,,,,,,,,,,,,,,11,,71,0
779,note_on,,59,0,9,,,,,,,,,,,,,,,,13,,45,0
780,note_on,,1,0,10,,,,,,,,,,,,,,,,15,,52,64
780,note_on,,0,0,10,,,,,,,,,,,,,,,,15,,64,64
780,note_on,,0,0,10,,,,,,,,,,,,,,,,15,,59,64
780,note_on,,1,0,8,,,,,,,,,,,,,,,,11,,71,64
780,note_on,,1,0,9,,,,,,,,,,,,,,,,13,,52,64
780,note_on,,1,0,7,,,,,,,,,,,,,,,,10,,71,64
780,note_on,,1,0,5,,,,,,,,,,,,,,,,2,,52,64
780,note_on,,0,0,10,,,,,,,,,,,,,,,,15,,68,64
899,note_on,,119,0,9,,,,,,,,,,,,,,,,13,,52,0
899,note_on,,119,0,7,,,,,,,,,,,,,,,,10,,71,0
899,note_on,,119,0,5,,,,,,,,,,,,,,,,2,,52,0
899,note_on,,0,0,10,,,,,,,,,,,,,,,,15,,59,0
899,note_on,,0,0,10,,,,,,,,,,,,,,,,15,,64,0
899,note_on,,0,0,10,,,,,,,,,,,,,,,,15,,68,0
899,note_on,,119,0,10,,,,,,,,,,,,,,,,15,,52,0
899,note_on,,119,0,8,,,,,,,,,,,,,,,,11,,71,0
960,note_on,,61,0,8,,,,,,,,,,,,,,,,11,,69,64
960,note_on,,61,0,7,,,,,,,,,,,,,,,,10,,69,64
1019,note_on,,59,0,7,,,,,,,,,,,,,,,,10,,69,0
1019,note_on,,59,0,8,,,,,,,,,,,,,,,,11,,69,0
1020,note_on,,1,0,8,,,,,,,,,,,,,,,,11,,69,64
1020,note_on,,1,0,7,,,,,,,,,,,,,,,,10,,69,64
1080,note_on,,0,0,10,,,,,,,,,,,,,,,,15,,69,64
1080,note_on,,181,0,9,,,,,,,,,,,,,,,,13,,61,64
1080,note_on,,0,0,10,,,,,,,,,,,,,,,,15,,64,64
1080,note_on,,181,0,5,,,,,,,,,,,,,,,,2,,61,64
1080,note_on,,181,0,10,,,,,,,,,,,,,,,,15,,61,64
1139,note_on,,59,0,10,,,,,,,,,,,,,,,,15,,61,0
1139,note_on,,0,0,10,,,,,,,,,,,,,,,,15,,69,0
1139,note_on,,0,0,10,,,,,,,,,,,,,,,,15,,64,0
1139,note_on,,59,0,5,,,,,,,,,,,,,,,,2,,61,0
1139,note_on,,119,0,7,,,,,,,,,,,,,,,,10,,69,0
1139,note_on,,119,0,8,,,,,,,,,,,,,,,,11,,69,0
1139,note_on,,59,0,9,,,,,,,,,,,,,,,,13,,61,0
1140,note_on,,0,0,10,,,,,,,,,,,,,,,,15,,68,64
1140,note_on,,1,0,9,,,,,,,,,,,,,,,,13,,59,64
1140,note_on,,1,0,10,,,,,,,,,,,,,,,,15,,59,64
1140,note_on,,0,0,10,,,,,,,,,,,,,,,,15,,62,64
1140,note_on,,1,0,5,,,,,,,,,,,,,,,,2,,59,64
1140,note_on,,1,0,7,,,,,,,,,,,,,,,,10,,68,64
1140,note_on,,0,0,10,,,,,,,,,,,,,,,,15,,71,64
1140,note_on,,1,0,8,,,,,,,,,,,,,,,,11,,68,64
1154,note_on,,14,0,8,,,,,,,,,,,,,,,,11,,68,0
1154,note_on,,14,0,7,,,,,,,,,,,,,,,,10,,68,0
1155,note_on,,1,0,7,,,,,,,,,,,,,,,,10,,69,64
1155,note_on,,1,0,8,,,,,,,,,,,,,,,,11,,69,64
1169,note_on,,14,0,7,,,,,,,,,,,,,,,,10,,69,0
1169,note_on,,14,0,8,,,,,,,,,,,,,,,,11,,69,0
1170,note_on,,1,0,7,,,,,,,,,,,,,,,,10,,66,64
1170,note_on,,1,0,8,,,,,,,,,,,,,,,,11,,66,64
1184,note_on,,14,0,7,,,,,,,,,,,,,,,,10,,66,0
1184,note_on,,14,0,8,,,,,,,,,,,,,,,,11,,66,0
1185,note_on,,1,0,8,,,,,,,,,,,,,,,,11,,68,64
1185,note_on,,1,0,7,,,,,,,,,,,,,,,,10,,68,64
1199,note_on,,14,0,7,,,,,,,,,,,,,,,,10,,68,0
1199,note_on,,59,0,9,,,,,,,,,,,,,,,,13,,59,0
1199,note_on,,14,0,8,,,,,,,,,,,,,,,,11,,68,0
1199,note_on,,59,0,5,,,,,,,,,,,,,,,,2,,59,0
1200,note_on,,1,0,5,,,,,,,,,,,,,,,,2,,52,64
1200,note_on,,1,0,7,,,,,,,,,,,,,,,,10,,71,64
1200,note_on,,60,0,10,,,,,,,,,,,,,,,,15,,52,64
1200,note_on,,1,0,9,,,,,,,,,,,,,,,,13,,52,64
1200,note_on,,1,0,8,,,,,,,,,,,,,,,,11,,71,64
1259,note_on,,0,0,10,,,,,,,,,,,,,,,,15,,71,0
1259,note_on,,0,0,10,,,,,,,,,,,,,,,,15,,68,0
1259,note_on,,0,0,10,,,,,,,,,,,,,,,,15,,62,0
1259,note_on,,59,0,10,,,,,,,,,,,,,,,,15,,59,0
1259,note_on,,59,0,7,,,,,,,,,,,,,,,,10,,71,0
1259,note_on,,59,0,8,,,,,,,,,,,,,,,,11,,71,0
1259,note_on,,59,0,9,,,,,,,,,,,,,,,,13,,52,0
1259,note_on,,0,0,10,,,,,,,,,,,,,,,,15,,52,0
1259,note_on,,59,0,5,,,,,,,,,,,,,,,,2,,52,0
1260,note_on,,1,0,8,,,,,,,,,,,,,,,,11,,71,64
1260,note_on,,1,0,7,,,,,,,,,,,,,,,,10,,71,64
1320,note_on,,0,0,10,,,,,,,,,,,,,,,,15,,64,64
1320,note_on,,0,0,10,,,,,,,,,,,,,,,,15,,71,64
1320,note_on,,61,0,9,,,,,,,,,,,,,,,,13,,62,64
1320,note_on,,0,0,10,,,,,,,,,,,,,,,,15,,68,64
1320,note_on,,61,0,10,,,,,,,,,,,,,,,,15,,62,64
1320,note_on,,61,0,5,,,,,,,,,,,,,,,,2,,62,64
1379,note_on,,59,0,5,,,,,,,,,,,,,,,,2,,62,0
1379,note_on,,59,0,9,,,,,,,,,,,,,,,,13,,62,0
1379,note_on,,0,0,10,,,,,,,,,,,,,,,,15,,68,0
1379,note_on,,0,0,10,,,,,,,,,,,,,,,,15,,71,0
1379,note_on,,59,0,10,,,,,,,,,,,,,,,,15,,62,0
1379,note_on,,119,0,8,,,,,,,,,,,,,,,,11,,71,0
1379,note_on,,119,0,7,,,,,,,,,,,,,,,,10,,71,0
1380,note_on,,0,0,10,,,,,,,,,,,,,,,,15,,69,64
1380,note_on,,1,0,9,,,,,,,,,,,,,,,,13,,61,64
1380,note_on,,0,0,10,,,,,,,,,,,,,,,,15,,73,64
1380,note_on,,1,0,10,,,,,,,,,,,,,,,,15,,61,64
1380,note_on,,1,0,7,,,,,,,,,,,,,,,,10,,69,64
1380,note_on,,1,0,8,,,,,,,,,,,,,,,,11,,69,64
1380,note_on,,1,0,5,,,,,,,,,,,,,,,,2,,61,64
1394,note_on,,14,0,8,,,,,,,,,,,,,,,,11,,69,0
1394,note_on,,14,0,7,,,,,,,,,,,,,,,,10,,69,0
1395,note_on,,1,0,8,,,,,,,,,,,,,,,,11,,71,64
1395,note_on,,1,0,7,,,,,,,,,,,,,,,,10,,71,64
1409,note_on,,14,0,8,,,,,,,,,,,,,,,,11,,71,0
1409,note_on,,14,0,7,,,,,,,,,,,,,,,,10,,71,0
1410,note_on,,1,0,8,,,,,,,,,,,,,,,,11,,68,64
1410,note_on,,1,0,7,,,,,,,,,,,,,,,,10,,68,64
1424,note_on,,14,0,8,,,,,,,,,,,,,,,,11,,68,0
1424,note_on,,14,0,7,,,,,,,,,,,,,,,,10,,68,0
1425,note_on,,1,0,8,,,,,,,,,,,,,,,,11,,69,64
1425,note_on,,1,0,7,,,,,,,,,,,,,,,,10,,69,64
1439,note_on,,14,0,7,,,,,,,,,,,,,,,,10,,69,0
1439,note_on,,59,0,9,,,,,,,,,,,,,,,,13,,61,0
1439,note_on,,14,0,8,,,,,,,,,,,,,,,,11,,69,0
1439,note_on,,59,0,5,,,,,,,,,,,,,,,,2,,61,0
1440,note_on,,1,0,5,,,,,,,,,,,,,,,,2,,52,64
1440,note_on,,1,0,7,,,,,,,,,,,,,,,,10,,73,64
1440,note_on,,1,0,8,,,,,,,,,,,,,,,,11,,73,64
1440,note_on,,60,0,10,,,,,,,,,,,,,,,,15,,52,64
1440,note_on,,1,0,9,,,,,,,,,,,,,,,,13,,52,64
1499,note_on,,59,0,8,,,,,,,,,,,,,,,,11,,73,0
1499,note_on,,59,0,5,,,,,,,,,,,,,,,,2,,52,0
1499,note_on,,59,0,7,,,,,,,,,,,,,,,,10,,73,0
1499,note_on,,0,0,10,,,,,,,,,,,,,,,,15,,73,0
1499,note_on,,59,0,9,,,,,,,,,,,,,,,,13,,52,0
1499,note_on,,0,0,10,,,,,,,,,,,,,,,,15,,61,0
1499,note_on,,59,0,10,,,,,,,,,,,,,,,,15,,64,0
1499,note_on,,0,0,10,,,,,,,,,,,,,,,,15,,69,0
1499,note_on,,0,0,10,,,,,,,,,,,,,,,,15,,52,0
1500,note_on,,1,0,7,,,,,,,,,,,,,,,,10,,73,64
1500,note_on,,1,0,8,,,,,,,,,,,,,,,,11,,73,64
1560,note_on,,0,0,10,,,,,,,,,,,,,,,,15,,69,64
1560,note_on,,61,0,9,,,,,,,,,,,,,,,,13,,64,64
1560,note_on,,61,0,5,,,,,,,,,,,,,,,,2,,64,64
1560,note_on,,61,0,10,,,,,,,,,,,,,,,,15,,64,64
1560,note_on,,0,0,10,,,,,,,,,,,,,,,,15,,73,64
1619,note_on,,59,0,9,,,,,,,,,,,,,,,,13,,64,0
1619,note_on,,119,0,7,,,,,,,,,,,,,,,,10,,73,0
1619,note_on,,59,0,5,,,,,,,,,,,,,,,,2,,64,0
1619,note_on,,119,0,8,,,,,,,,,,,,,,,,11,,73,0
1619,note_on,,0,0,10,,,,,,,,,,,,,,,,15,,69,0
1619,note_on,,0,0,10,,,,,,,,,,,,,,,,15,,73,0
1619,note_on,,59,0,10,,,,,,,,,,,,,,,,15,,64,0
1620,note_on,,1,0,8,,,,,,,,,,,,,,,,11,,71,64
1620,note_on,,1,0,5,,,,,,,,,,,,,,,,2,,62,64
1620,note_on,,1,0,9,,,,,,,,,,,,,,,,13,,62,64
1620,note_on,,0,0,10,,,,,,,,,,,,,,,,15,,68,64
1620,note_on,,0,0,10,,,,,,,,,,,,,,,,15,,64,64
1620,note_on,,1,0,10,,,,,,,,,,,,,,,,15,,62,64
1620,note_on,,1,0,7,,,,,,,,,,,,,,,,10,,71,64
1634,note_on,,14,0,8,,,,,,,,,,,,,,,,11,,71,0
1634,note_on,,14,0,7,,,,,,,,,,,,,,,,10,,71,0
1635,note_on,,1,0,8,,,,,,,,,,,,,,,,11,,73,64
1635,note_on,,1,0,7,,,,,,,,,,,,,,,,10,,73,64
1649,note_on,,14,0,7,,,,,,,,,,,,,,,,10,,73,0
1649,note_on,,14,0,8,,,,,,,,,,,,,,,,11,,73,0
1650,note_on,,1,0,7,,,,,,,,,,,,,,,,10,,69,64
1650,note_on,,1,0,8,,,,,,,,,,,,,,,,11,,69,64
1664,note_on,,14,0,7,,,,,,,,,,,,,,,,10,,69,0
1664,note_on,,14,0,8,,,,,,,,,,,,,,,,11,,69,0
1665,note_on,,1,0,7,,,,,,,,,,,,,,,,10,,71,64
1665,note_on,,1,0,8,,,,,,,,,,,,,,,,11,,71,64
1679,note_on,,14,0,8,,,,,,,,,,,,,,,,11,,71,0
1679,note_on,,59,0,9,,,,,,,,,,,,,,,,13,,62,0
1679,note_on,,59,0,5,,,,,,,,,,,,,,,,2,,62,0
1679,note_on,,14,0,7,,,,,,,,,,,,,,,,10,,71,0
1679,note_on,,0,0,10,,,,,,,,,,,,,,,,15,,68,0
1679,note_on,,59,0,10,,,,,,,,,,,,,,,,15,,62,0
1680,note_on,,1,0,9,,,,,,,,,,,,,,,,13,,61,64
1680,note_on,,1,0,10,,,,,,,,,,,,,,,,15,,61,64
1680,note_on,,1,0,5,,,,,,,,,,,,,,,,2,,61,64
1680,note_on,,0,0,10,,,,,,,,,,,,,,,,15,,69,64
1680,note_on,,1,0,8,,,,,,,,,,,,,,,,11,,73,64
1680,note_on,,1,0,7,,,,,,,,,,,,,,,,10,,73,64
1739,note_on,,59,0,8,,,,,,,,,,,,,,,,11,,73,0
1739,note_on,,59,0,5,,,,,,,,,,,,,,,,2,,61,0
1739,note_on,,0,0,10,,,,,,,,,,,,,,,,15,,69,0
1739,note_on,,0,0,10,,,,,,,,,,,,,,,,15,,61,0
1739,note_on,,59,0,10,,,,,,,,,,,,,,,,15,,64,0
1739,note_on,,59,0,7,,,,,,,,,,,,,,,,10,,73,0
1739,note_on,,59,0,9,,,,,,,,,,,,,,,,13,,61,0
1740,note_on,,1,0,5,,,,,,,,,,,,,,,,2,,59,64
1740,note_on,,0,0,10,,,,,,,,,,,,,,,,15,,62,64
1740,note_on,,1,0,7,,,,,,,,,,,,,,,,10,,74,64
1740,note_on,,0,0,10,,,,,,,,,,,,,,,,15,,68,64
1740,note_on,,1,0,10,,,,,,,,,,,,,,,,15,,59,64
1740,note_on,,1,0,9,,,,,,,,,,,,,,,,13,,59,64
1740,note_on,,1,0,8,,,,,,,,,,,,,,,,11,,74,64
1799,note_on,,0,0,10,,,,,,,,,,,,,,,,15,,68,0
1799,note_on,,59,0,10,,,,,,,,,,,,,,,,15,,59,0
1799,note_on,,0,0,10,,,,,,,,,,,,,,,,15,,62,0
1799,note_on,,59,0,9,,,,,,,,,,,,,,,,13,,59,0
1799,note_on,,59,0,8,,,,,,,,,,,,,,,,11,,74,0
1799,note_on,,59,0,7,,,,,,,,,,,,,,,,10,,74,0
1799,note_on,,59,0,5,,,,,,,,,,,,,,,,2,,59,0
1800,note_on,,0,0,10,,,,,,,,,,,,,,,,15,,71,64
1800,note_on,,0,0,10,,,,,,,,,,,,,,,,15,,64,64
1800,note_on,,0,0,10,,,,,,,,,,,,,,,,15,,59,64
1800,note_on,,1,0,9,,,,,,,,,,,,,,,,13,,56,64
1800,note_on,,1,0,5,,,,,,,,,,,,,,,,2,,56,64
1800,note_on,,1,0,8,,,,,,,,,,,,,,,,11,,76,64
1800,note_on,,1,0,7,,,,,,,,,,,,,,,,10,,76,64
1800,note_on,,1,0,10,,,,,,,,,,,,,,,,15,,56,64
1859,note_on,,59,0,8,,,,,,,,,,,,,,,,11,,76,0
1859,note_on,,59,0,5,,,,,,,,,,,,,,,,2,,56,0
1859,note_on,,59,0,7,,,,,,,,,,,,,,,,10,,76,0
1859,note_on,,59,0,10,,,,,,,,,,,,,,,,15,,56,0
1859,note_on,,0,0,10,,,,,,,,,,,,,,,,15,,71,0
1859,note_on,,0,0,10,,,,,,,,,,,,,,,,15,,64,0
1859,note_on,,0,0,10,,,,,,,,,,,,,,,,15,,59,0
1859,note_on,,59,0,9,,,,,,,,,,,,,,,,13,,56,0
1860,note_on,,1,0,7,,,,,,,,,,,,,,,,10,,73,64
1860,note_on,,0,0,10,,,,,,,,,,,,,,,,15,,64,64
1860,note_on,,1,0,10,,,,,,,,,,,,,,,,15,,57,64
1860,note_on,,1,0,9,,,,,,,,,,,,,,,,13,,57,64
1860,note_on,,1,0,5,,,,,,,,,,,,,,,,2,,57,64
1860,note_on,,0,0,10,,,,,,,,,,,,,,,,15,,61,64
1860,note_on,,1,0,8,,,,,,,,,,,,,,,,11,,73,64
1919,note_on,,0,0,10,,,,,,,,,,,,,,,,15,,64,0
1919,note_on,,0,0,10,,,,,,,,,,,,,,,,15,,61,0
1919,note_on,,59,0,5,,,,,,,,,,,,,,,,2,,57,0
1919,note_on,,59,0,9,,,,,,,,,,,,,,,,13,,57,0
1919,note_on,,59,0,10,,,,,,,,,,,,,,,,15,,57,0
1920,note_on,,1,0,9,,,,,,,,,,,,,,,,13,,50,64
1920,note_on,,1,0,5,,,,,,,,,,,,,,,,2,,50,64
1920,note_on,,1,0,10,,,,,,,,,,,,,,,,15,,69,64
1920,note_on,,0,0,10,,,,,,,,,,,,,,,,15,,50,64
1920,note_on,,0,0,10,,,,,,,,,,,,,,,,15,,66,64
1920,note_on,,0,0,10,,,,,,,,,,,,,,,,15,,62,64
1949,note_on,,89,0,7,,,,,,,,,,,,,,,,10,,73,0
1949,note_on,,89,0,8,,,,,,,,,,,,,,,,11,,73,0
1950,note_on,,1,0,8,,,,,,,,,,,,,,,,11,,71,64
1950,note_on,,1,0,7,,,,,,,,,,,,,,,,10,,71,64
1979,note_on,,0,0,10,,,,,,,,,,,,,,,,15,,50,0
1979,note_on,,29,0,8,,,,,,,,,,,,,,,,11,,71,0
1979,note_on,,59,0,5,,,,,,,,,,,,,,,,2,,50,0
1979,note_on,,0,0,10,,,,,,,,,,,,,,,,15,,62,0
1979,note_on,,0,0,10,,,,,,,,,,,,,,,,15,,66,0
1979,note_on,,29,0,7,,,,,,,,,,,,,,,,10,,71,0
1979,note_on,,59,0,10,,,,,,,,,,,,,,,,15,,69,0
1979,note_on,,59,0,9,,,,,,,,,,,,,,,,13,,50,0
1980,note_on,,1,0,9,,,,,,,,,,,,,,,,13,,52,64
1980,note_on,,1,0,8,,,,,,,,,,,,,,,,11,,73,64
1980,note_on,,1,0,5,,,,,,,,,,,,,,,,2,,52,64
1980,note_on,,1,0,7,,,,,,,,,,,,,,,,10,,73,64
1980,note_on,,1,0,10,,,,,,,,,,,,,,,,15,,52,64
1980,note_on,,0,0,10,,,,,,,,,,,,,,,,15,,61,64
1980,note_on,,0,0,10,,,,,,,,,,,,,,,,15,,64,64
2039,note_on,,0,0,10,,,,,,,,,,,,,,,,15,,64,0
2039,note_on,,59,0,9,,,,,,,,,,,,,,,,13,,52,0
2039,note_on,,59,0,5,,,,,,,,,,,,,,,,2,,52,0
2039,note_on,,59,0,10,,,,,,,,,,,,,,,,15,,52,0
2040,note_on,,1,0,5,,,,,,,,,,,,,,,,2,,50,64
2040,note_on,,0,0,10,,,,,,,,,,,,,,,,15,,66,64
2040,note_on,,1,0,9,,,,,,,,,,,,,,,,13,,50,64
2040,note_on,,1,0,10,,,,,,,,,,,,,,,,15,,50,64
2099,note_on,,59,0,5,,,,,,,,,,,,,,,,2,,50,0
2099,note_on,,0,0,10,,,,,,,,,,,,,,,,15,,66,0
2099,note_on,,0,0,10,,,,,,,,,,,,,,,,15,,50,0
2099,note_on,,59,0,10,,,,,,,,,,,,,,,,15,,61,0
2099,note_on,,119,0,8,,,,,,,,,,,,,,,,11,,73,0
2099,note_on,,59,0,9,,,,,,,,,,,,,,,,13,,50,0
2099,note_on,,119,0,7,,,,,,,,,,,,,,,,10,,73,0
2100,note_on,,1,0,7,,,,,,,,,,,,,,,,10,,71,64
2100,note_on,,1,0,8,,,,,,,,,,,,,,,,11,,71,64
2100,note_on,,1,0,9,,,,,,,,,,,,,,,,13,,52,64
2100,note_on,,0,0,10,,,,,,,,,,,,,,,,15,,69,64
2100,note_on,,0,0,10,,,,,,,,,,,,,,,,15,,64,64
2100,note_on,,1,0,10,,,,,,,,,,,,,,,,15,,52,64
2100,note_on,,0,0,10,,,,,,,,,,,,,,,,15,,59,64
2100,note_on,,1,0,5,,,,,,,,,,,,,,,,2,,52,64
2114,note_on,,14,0,7,,,,,,,,,,,,,,,,10,,71,0
2114,note_on,,14,0,8,,,,,,,,,,,,,,,,11,,71,0
2115,note_on,,1,0,7,,,,,,,,,,,,,,,,10,,73,64
2115,note_on,,1,0,8,,,,,,,,,,,,,,,,11,,73,64
2129,note_on,,14,0,7,,,,,,,,,,,,,,,,10,,73,0
2129,note_on,,14,0,8,,,,,,,,,,,,,,,,11,,73,0
2130,note_on,,1,0,7,,,,,,,,,,,,,,,,10,,71,64
2130,note_on,,1,0,8,,,,,,,,,,,,,,,,11,,71,64
2144,note_on,,14,0,7,,,,,,,,,,,,,,,,10,,71,0
2144,note_on,,14,0,8,,,,,,,,,,,,,,,,11,,71,0
2145,note_on,,1,0,8,,,,,,,,,,,,,,,,11,,73,64
2145,note_on,,1,0,7,,,,,,,,,,,,,,,,10,,73,64
2159,note_on,,0,0,10,,,,,,,,,,,,,,,,15,,69,0
2159,note_on,,59,0,10,,,,,,,,,,,,,,,,15,,52,0
2159,note_on,,59,0,5,,,,,,,,,,,,,,,,2,,52,0
2159,note_on,,14,0,8,,,,,,,,,,,,,,,,11,,73,0
2159,note_on,,59,0,9,,,,,,,,,,,,,,,,13,,52,0
2159,note_on,,14,0,7,,,,,,,,,,,,,,,,10,,73,0
2160,note_on,,1,0,8,,,,,,,,,,,,,,,,11,,69,64
2160,note_on,,0,0,10,,,,,,,,,,,,,,,,15,,68,64
2160,note_on,,1,0,7,,,,,,,,,,,,,,,,10,,69,64
2160,note_on,,1,0,9,,,,,,,,,,,,,,,,13,,40,64
2160,note_on,,1,0,10,,,,,,,,,,,,,,,,15,,40,64
2160,note_on,,1,0,5,,,,,,,,,,,,,,,,2,,40,64
2174,note_on,,14,0,7,,,,,,,,,,,,,,,,10,,69,0
2174,note_on,,14,0,8,,,,,,,,,,,,,,,,11,,69,0
2175,note_on,,1,0,8,,,,,,,,,,,,,,,,11,,71,64
2175,note_on,,1,0,7,,,,,,,,,,,,,,,,10,,71,64
2189,note_on,,14,0,7,,,,,,,,,,,,,,,,10,,71,0
2189,note_on,,14,0,8,,,,,,,,,,,,,,,,11,,71,0
2190,note_on,,1,0,7,,,,,,,,,,,,,,,,10,,69,64
2190,note_on,,1,0,8,,,,,,,,,,,,,,,,11,,69,64
2219,note_on,,59,0,9,,,,,,,,,,,,,,,,13,,40,0
2219,note_on,,29,0,8,,,,,,,,,,,,,,,,11,,69,0
2219,note_on,,59,0,5,,,,,,,,,,,,,,,,2,,40,0
2219,note_on,,59,0,10,,,,,,,,,,,,,,,,15,,59,0
2219,note_on,,0,0,10,,,,,,,,,,,,,,,,15,,64,0
2219,note_on,,0,0,10,,,,,,,,,,,,,,,,15,,40,0
2219,note_on,,0,0,10,,,,,,,,,,,,,,,,15,,68,0
2219,note_on,,29,0,7,,,,,,,,,,,,,,,,10,,69,0
2220,note_on,,1,0,9,,,,,,,,,,,,,,,,13,,45,64
2220,note_on,,1,0,10,,,,,,,,,,,,,,,,15,,69,64
2220,note_on,,0,0,10,,,,,,,,,,,,,,,,15,,45,64
2220,note_on,,0,0,10,,,,,,,,,,,,,,,,15,,61,64
2220,note_on,,1,0,5,,,,,,,,,,,,,,,,2,,45,64
2220,note_on,,0,0,10,,,,,,,,,,,,,,,,15,,64,64
2339,note_on,,119,0,10,,,,,,,,,,,,,,,,15,,69,0
2339,note_on,,0,0,10,,,,,,,,,,,,,,,,15,,45,0
2339,note_on,,0,0,10,,,,,,,,,,,,,,,,15,,61,0
2339,note_on,,119,0,9,,,,,,,,,,,,,,,,13,,45,0
2339,note_on,,119,0,5,,,,,,,,,,,,,,,,2,,45,0
2339,note_on,,0,0,10,,,,,,,,,,,,,,,,15,,64,0
2400,note_on,,2400,0,6,,,,,,,,,,,,,,,,5,,69,64
2459,note_on,,59,0,6,,,,,,,,,,,,,,,,5,,69,0
2460,note_on,,1,0,6,,,,,,,,,,,,,,,,5,,73,64
2520,note_on,,181,0,10,,,,,,,,,,,,,,,,15,,57,48
2520,note_on,,0,0,10,,,,,,,,,,,,,,,,15,,69,48
2520,note_on,,0,0,10,,,,,,,,,,,,,,,,15,,61,48
2520,note_on,,181,0,9,,,,,,,,,,,,,,,,13,,57,48
2520,note_on,,0,0,10,,,,,,,,,,,,,,,,15,,64,48
2579,note_on,,59,0,9,,,,,,,,,,,,,,,,13,,57,0
2579,note_on,,59,0,10,,,,,,,,,,,,,,,,15,,57,0
2579,note_on,,0,0,10,,,,,,,,,,,,,,,,15,,69,0
2579,note_on,,0,0,10,,,,,,,,,,,,,,,,15,,64,0
2579,note_on,,0,0,10,,,,,,,,,,,,,,,,15,,61,0
2579,note_on,,119,0,6,,,,,,,,,,,,,,,,5,,73,0
2580,note_on,,1,0,10,,,,,,,,,,,,,,,,15,,56,48
2580,note_on,,0,0,10,,,,,,,,,,,,,,,,15,,64,48
2580,note_on,,0,0,10,,,,,,,,,,,,,,,,15,,71,48
2580,note_on,,1,0,6,,,,,,,,,,,,,,,,5,,76,64
2580,note_on,,1,0,9,,,,,,,,,,,,,,,,13,,56,48
2624,note_on,,44,0,6,,,,,,,,,,,,,,,,5,,76,0
2625,note_on,,1,0,6,,,,,,,,,,,,,,,,5,,74,64
2639,note_on,,14,0,6,,,,,,,,,,,,,,,,5,,74,0
2639,note_on,,0,0,10,,,,,,,,,,,,,,,,15,,71,0
2639,note_on,,59,0,10,,,,,,,,,,,,,,,,15,,56,0
2639,note_on,,59,0,9,,,,,,,,,,,,,,,,13,,56,0
2640,note_on,,0,0,10,,,,,,,,,,,,,,,,15,,68,48
2640,note_on,,1,0,6,,,,,,,,,,,,,,,,5,,73,64
2640,note_on,,1,0,9,,,,,,,,,,,,,,,,13,,52,48
2640,note_on,,0,0,10,,,,,,,,,,,,,,,,15,,76,48
2640,note_on,,1,0,10,,,,,,,,,,,,,,,,15,,52,48
2684,note_on,,44,0,6,,,,,,,,,,,,,,,,5,,73,0
2685,note_on,,1,0,6,,,,,,,,,,,,,,,,5,,71,64
2699,note_on,,0,0,10,,,,,,,,,,,,,,,,15,,52,0
2699,note_on,,0,0,10,,,,,,,,,,,,,,,,15,,68,0
2699,note_on,,59,0,9,,,,,,,,,,,,,,,,13,,52,0
2699,note_on,,59,0,10,,,,,,,,,,,,,,,,15,,64,0
2699,note_on,,0,0,10,,,,,,,,,,,,,,,,15,,76,0
2699,note_on,,14,0,6,,,,,,,,,,,,,,,,5,,71,0
2700,note_on,,1,0,10,,,,,,,,,,,,,,,,15,,54,48
2700,note_on,,0,0,10,,,,,,,,,,,,,,,,15,,73,48
2700,note_on,,0,0,10,,,,,,,,,,,,,,,,15,,69,48
2700,note_on,,0,0,10,,,,,,,,,,,,,,,,15,,57,48
2700,note_on,,1,0,6,,,,,,,,,,,,,,,,5,,69,64
2700,note_on,,1,0,9,,,,,,,,,,,,,,,,13,,54,48
2759,note_on,,59,0,10,,,,,,,,,,,,,,,,15,,54,0
2759,note_on,,0,0,10,,,,,,,,,,,,,,,,15,,69,0
2759,note_on,,59,0,9,,,,,,,,,,,,,,,,13,,54,0
2760,note_on,,1,0,10,,,,,,,,,,,,,,,,15,,52,48
2760,note_on,,0,0,10,,,,,,,,,,,,,,,,15,,68,48
2760,note_on,,1,0,9,,,,,,,,,,,,,,,,13,,52,48
2819,note_on,,59,0,9,,,,,,,,,,,,,,,,13,,52,0
2819,note_on,,59,0,10,,,,,,,,,,,,,,,,15,,52,0
2819,note_on,,0,0,10,,,,,,,,,,,,,,,,15,,68,0
2820,note_on,,1,0,10,,,,,,,,,,,,,,,,15,,54,48
2820,note_on,,1,0,9,,,,,,,,,,,,,,,,13,,54,48
2820,note_on,,0,0,10,,,,,,,,,,,,,,,,15,,69,48
2879,note_on,,59,0,9,,,,,,,,,,,,,,,,13,,54,0
2879,note_on,,0,0,10,,,,,,,,,,,,,,,,15,,69,0
2879,note_on,,0,0,10,,,,,,,,,,,,,,,,15,,54,0
2879,note_on,,0,0,10,,,,,,,,,,,,,,,,15,,57,0
2879,note_on,,59,0,10,,,,,,,,,,,,,,,,15,,73,0
2879,note_on,,179,0,6,,,,,,,,,,,,,,,,5,,69,0
2880,note_on,,1,0,9,,,,,,,,,,,,,,,,13,,49,48
2880,note_on,,0,0,10,,,,,,,,,,,,,,,,15,,64,48
2880,note_on,,0,0,10,,,,,,,,,,,,,,,,15,,69,48
2880,note_on,,1,0,10,,,,,,,,,,,,,,,,15,,49,48
2880,note_on,,1,0,6,,,,,,,,,,,,,,,,5,,64,64
2880,note_on,,0,0,10,,,,,,,,,,,,,,,,15,,57,48
2939,note_on,,59,0,9,,,,,,,,,,,,,,,,13,,49,0
2939,note_on,,59,0,6,,,,,,,,,,,,,,,,5,,64,0
2939,note_on,,0,0,10,,,,,,,,,,,,,,,,15,,64,0
2939,note_on,,0,0,10,,,,,,,,,,,,,,,,15,,57,0
2939,note_on,,0,0,10,,,,,,,,,,,,,,,,15,,69,0
2939,note_on,,59,0,10,,,,,,,,,,,,,,,,15,,49,0
2940,note_on,,0,0,10,,,,,,,,,,,,,,,,15,,59,48
2940,note_on,,0,0,10,,,,,,,,,,,,,,,,15,,62,48
2940,note_on,,0,0,10,,,,,,,,,,,,,,,,15,,68,48
2940,note_on,,1,0,10,,,,,,,,,,,,,,,,15,,47,48
2940,note_on,,1,0,9,,,,,,,,,,,,,,,,13,,47,48
2940,note_on,,1,0,6,,,,,,,,,,,,,,,,5,,74,64
2999,note_on,,59,0,10,,,,,,,,,,,,,,,,15,,47,0
2999,note_on,,59,0,9,,,,,,,,,,,,,,,,13,,47,0
2999,note_on,,0,0,10,,,,,,,,,,,,,,,,15,,68,0
3000,note_on,,1,0,9,,,,,,,,,,,,,,,,13,,56,48
3000,note_on,,1,0,10,,,,,,,,,,,,,,,,15,,56,48
3000,note_on,,0,0,10,,,,,,,,,,,,,,,,15,,71,48
3059,note_on,,119,0,6,,,,,,,,,,,,,,,,5,,74,0
3059,note_on,,0,0,10,,,,,,,,,,,,,,,,15,,71,0
3059,note_on,,0,0,10,,,,,,,,,,,,,,,,15,,56,0
3059,note_on,,0,0,10,,,,,,,,,,,,,,,,15,,59,0
3059,note_on,,59,0,10,,,,,,,,,,,,,,,,15,,62,0
3059,note_on,,59,0,9,,,,,,,,,,,,,,,,13,,56,0
3060,note_on,,1,0,9,,,,,,,,,,,,,,,,13,,57,48
3060,note_on,,1,0,6,,,,,,,,,,,,,,,,5,,73,64
3060,note_on,,0,0,10,,,,,,,,,,,,,,,,15,,61,48
3060,note_on,,0,0,10,,,,,,,,,,,,,,,,15,,64,48
3060,note_on,,1,0,10,,,,,,,,,,,,,,,,15,,57,48
3074,note_on,,14,0,6,,,,,,,,,,,,,,,,5,,73,0
3075,note_on,,1,0,6,,,,,,,,,,,,,,,,5,,74,64
3089,note_on,,14,0,6,,,,,,,,,,,,,,,,5,,74,0
3090,note_on,,1,0,6,,,,,,,,,,,,,,,,5,,73,64
3104,note_on,,14,0,6,,,,,,,,,,,,,,,,5,,73,0
3105,note_on,,1,0,6,,,,,,,,,,,,,,,,5,,74,64
3119,note_on,,59,0,10,,,,,,,,,,,,,,,,15,,57,0
3119,note_on,,0,0,10,,,,,,,,,,,,,,,,15,,64,0
3119,note_on,,14,0,6,,,,,,,,,,,,,,,,5,,74,0
3119,note_on,,59,0,9,,,,,,,,,,,,,,,,13,,57,0
3120,note_on,,1,0,9,,,,,,,,,,,,,,,,13,,45,48
3120,note_on,,1,0,10,,,,,,,,,,,,,,,,15,,45,48
3120,note_on,,1,0,6,,,,,,,,,,,,,,,,5,,71,64
3120,note_on,,0,0,10,,,,,,,,,,,,,,,,15,,69,48
3134,note_on,,14,0,6,,,,,,,,,,,,,,,,5,,71,0
3135,note_on,,1,0,6,,,,,,,,,,,,,,,,5,,73,64
3149,note_on,,14,0,6,,,,,,,,,,,,,,,,5,,73,0
3150,note_on,,1,0,6,,,,,,,,,,,,,,,,5,,71,64
3179,note_on,,59,0,10,,,,,,,,,,,,,,,,15,,61,0
3179,note_on,,0,0,10,,,,,,,,,,,,,,,,15,,45,0
3179,note_on,,59,0,9,,,,,,,,,,,,,,,,13,,45,0
3179,note_on,,29,0,6,,,,,,,,,,,,,,,,5,,71,0
3179,note_on,,0,0,10,,,,,,,,,,,,,,,,15,,69,0
3180,note_on,,1,0,10,,,,,,,,,,,,,,,,15,,52,48
3180,note_on,,0,0,10,,,,,,,,,,,,,,,,15,,71,48
3180,note_on,,0,0,10,,,,,,,,,,,,,,,,15,,68,48
3180,note_on,,1,0,9,,,,,,,,,,,,,,,,13,,52,48
3180,note_on,,1,0,6,,,,,,,,,,,,,,,,5,,71,64
3180,note_on,,0,0,10,,,,,,,,,,,,,,,,15,,64,48
3239,note_on,,59,0,9,,,,,,,,,,,,,,,,13,,52,0
3239,note_on,,59,0,10,,,,,,,,,,,,,,,,15,,52,0
3240,note_on,,1,0,9,,,,,,,,,,,,,,,,13,,64,48
3240,note_on,,901,0,5,,,,,,,,,,,,,,,,2,,64,48
3240,note_on,,1,0,10,,,,,,,,,,,,,,,,15,,64,48
3299,note_on,,59,0,9,,,,,,,,,,,,,,,,13,,64,0
3299,note_on,,119,0,6,,,,,,,,,,,,,,,,5,,71,0
3299,note_on,,59,0,5,,,,,,,,,,,,,,,,2,,64,0
3299,note_on,,59,0,10,,,,,,,,,,,,,,,,15,,64,0
3300,note_on,,1,0,5,,,,,,,,,,,,,,,,2,,62,48
3300,note_on,,1,0,9,,,,,,,,,,,,,,,,13,,62,48
3300,note_on,,1,0,10,,,,,,,,,,,,,,,,15,,62,48
3359,note_on,,59,0,9,,,,,,,,,,,,,,,,13,,62,0
3359,note_on,,0,0,10,,,,,,,,,,,,,,,,15,,68,0
3359,note_on,,0,0,10,,,,,,,,,,,,,,,,15,,64,0
3359,note_on,,0,0,10,,,,,,,,,,,,,,,,15,,62,0
3359,note_on,,59,0,5,,,,,,,,,,,,,,,,2,,62,0
3359,note_on,,59,0,10,,,,,,,,,,,,,,,,15,,71,0
3360,note_on,,1,0,9,,,,,,,,,,,,,,,,13,,61,48
3360,note_on,,1,0,5,,,,,,,,,,,,,,,,2,,61,48
3360,note_on,,0,0,10,,,,,,,,,,,,,,,,15,,64,48
3360,note_on,,1141,0,8,,,,,,,,,,,,,,,,11,,81,48
3360,note_on,,1,0,10,,,,,,,,,,,,,,,,15,,61,48
3360,note_on,,0,0,10,,,,,,,,,,,,,,,,15,,69,48
3360,note_on,,1141,0,7,,,,,,,,,,,,,,,,10,,81,48
3419,note_on,,59,0,7,,,,,,,,,,,,,,,,10,,81,0
3419,note_on,,59,0,5,,,,,,,,,,,,,,,,2,,61,0
3419,note_on,,0,0,10,,,,,,,,,,,,,,,,15,,69,0
3419,note_on,,59,0,10,,,,,,,,,,,,,,,,15,,61,0
3419,note_on,,59,0,9,,,,,,,,,,,,,,,,13,,61,0
3419,note_on,,59,0,8,,,,,,,,,,,,,,,,11,,81,0
3419,note_on,,0,0,10,,,,,,,,,,,,,,,,15,,64,0
3420,note_on,,1,0,7,,,,,,,,,,,,,,,,10,,76,48
3420,note_on,,1,0,8,,,,,,,,,,,,,,,,11,,76,48
3480,note_on,,61,0,5,,,,,,,,,,,,,,,,2,,56,48
3480,note_on,,61,0,9,,,,,,,,,,,,,,,,13,,56,48
3480,note_on,,61,0,10,,,,,,,,,,,,,,,,15,,56,48
3480,note_on,,0,0,10,,,,,,,,,,,,,,,,15,,76,48
3480,note_on,,0,0,10,,,,,,,,,,,,,,,,15,,71,48
3480,note_on,,0,0,10,,,,,,,,,,,,,,,,15,,64,48
3539,note_on,,59,0,5,,,,,,,,,,,,,,,,2,,56,0
3539,note_on,,119,0,7,,,,,,,,,,,,,,,,10,,76,0
3539,note_on,,119,0,8,,,,,,,,,,,,,,,,11,,76,0
3539,note_on,,59,0,10,,,,,,,,,,,,,,,,15,,56,0
3539,note_on,,59,0,9,,,,,,,,,,,,,,,,13,,56,0
3539,note_on,,0,0,10,,,,,,,,,,,,,,,,15,,71,0
3540,note_on,,1,0,8,,,,,,,,,,,,,,,,11,,74,48
3540,note_on,,1,0,9,,,,,,,,,,,,,,,,13,,57,48
3540,note_on,,1,0,10,,,,,,,,,,,,,,,,15,,57,48
3540,note_on,,0,0,10,,,,,,,,,,,,,,,,15,,69,48
3540,note_on,,1,0,5,,,,,,,,,,,,,,,,2,,57,48
3540,note_on,,1,0,7,,,,,,,,,,,,,,,,10,,74,48
3569,note_on,,29,0,8,,,,,,,,,,,,,,,,11,,74,0
3569,note_on,,29,0,7,,,,,,,,,,,,,,,,10,,74,0
3570,note_on,,1,0,8,,,,,,,,,,,,,,,,11,,73,48
3570,note_on,,1,0,7,,,,,,,,,,,,,,,,10,,73,48
3599,note_on,,0,0,10,,,,,,,,,,,,,,,,15,,57,0
3599,note_on,,0,0,10,,,,,,,,,,,,,,,,15,,64,0
3599,note_on,,59,0,9,,,,,,,,,,,,,,,,13,,57,0
3599,note_on,,29,0,8,,,,,,,,,,,,,,,,11,,73,0
3599,note_on,,59,0,10,,,,,,,,,,,,,,,,15,,76,0
3599,note_on,,59,0,5,,,,,,,,,,,,,,,,2,,57,0
3599,note_on,,29,0,7,,,,,,,,,,,,,,,,10,,73,0
3600,note_on,,1,0,10,,,,,,,,,,,,,,,,15,,50,48
3600,note_on,,0,0,10,,,,,,,,,,,,,,,,15,,78,48
3600,note_on,,0,0,10,,,,,,,,,,,,,,,,15,,62,48
3600,note_on,,1,0,8,,,,,,,,,,,,,,,,11,,71,48
3600,note_on,,1,0,9,,,,,,,,,,,,,,,,13,,50,48
3600,note_on,,1,0,7,,,,,,,,,,,,,,,,10,,71,48
3600,note_on,,1,0,5,,,,,,,,,,,,,,,,2,,50,48
3629,note_on,,29,0,8,,,,,,,,,,,,,,,,11,,71,0
3629,note_on,,29,0,7,,,,,,,,,,,,,,,,10,,71,0
3630,note_on,,1,0,7,,,,,,,,,,,,,,,,10,,69,48
3630,note_on,,1,0,8,,,,,,,,,,,,,,,,11,,69,48
3659,note_on,,59,0,10,,,,,,,,,,,,,,,,15,,69,0
3659,note_on,,0,0,10,,,,,,,,,,,,,,,,15,,50,0
3659,note_on,,59,0,5,,,,,,,,,,,,,,,,2,,50,0
3659,note_on,,29,0,8,,,,,,,,,,,,,,,,11,,69,0
3659,note_on,,0,0,10,,,,,,,,,,,,,,,,15,,78,0
3659,note_on,,0,0,10,,,,,,,,,,,,,,,,15,,62,0
3659,note_on,,29,0,7,,,,,,,,,,,,,,,,10,,69,0
3659,note_on,,59,0,9,,,,,,,,,,,,,,,,13,,50,0
3660,note_on,,1,0,8,,,,,,,,,,,,,,,,11,,68,48
3660,note_on,,1,0,7,,,,,,,,,,,,,,,,10,,68,48
3720,note_on,,0,0,10,,,,,,,,,,,,,,,,15,,71,48
3720,note_on,,0,0,10,,,,,,,,,,,,,,,,15,,68,48
3720,note_on,,61,0,10,,,,,,,,,,,,,,,,15,,52,48
3720,note_on,,61,0,9,,,,,,,,,,,,,,,,13,,52,48
3720,note_on,,0,0,10,,,,,,,,,,,,,,,,15,,59,48
3779,note_on,,119,0,8,,,,,,,,,,,,,,,,11,,68,0
3779,note_on,,59,0,9,,,,,,,,,,,,,,,,13,,52,0
3779,note_on,,59,0,10,,,,,,,,,,,,,,,,15,,52,0
3779,note_on,,0,0,10,,,,,,,,,,,,,,,,15,,68,0
3779,note_on,,119,0,7,,,,,,,,,,,,,,,,10,,68,0
3780,note_on,,1,0,9,,,,,,,,,,,,,,,,13,,50,48
3780,note_on,,1,0,10,,,,,,,,,,,,,,,,15,,50,48
3780,note_on,,0,0,10,,,,,,,,,,,,,,,,15,,66,48
3839,note_on,,59,0,10,,,,,,,,,,,,,,,,15,,50,0
3839,note_on,,59,0,9,,,,,,,,,,,,,,,,13,,50,0
3839,note_on,,0,0,10,,,,,,,,,,,,,,,,15,,66,0
3840,note_on,,1,0,10,,,,,,,,,,,,,,,,15,,52,48
3840,note_on,,1,0,9,,,,,,,,,,,,,,,,13,,52,48
3840,note_on,,0,0,10,,,,,,,,,,,,,,,,15,,68,48
3840,note_on,,541,0,6,,,,,,,,,,,,,,,,5,,64,64
3899,note_on,,59,0,9,,,,,,,,,,,,,,,,13,,52,0
3899,note_on,,0,0,10,,,,,,,,,,,,,,,,15,,52,0
3899,note_on,,59,0,10,,,,,,,,,,,,,,,,15,,71,0
3899,note_on,,0,0,10,,,,,,,,,,,,,,,,15,,59,0
3899,note_on,,0,0,10,,,,,,,,,,,,,,,,15,,68,0
3899,note_on,,59,0,6,,,,,,,,,,,,,,,,5,,64,0
3900,note_on,,0,0,10,,,,,,,,,,,,,,,,15,,64,48
3900,note_on,,0,0,10,,,,,,,,,,,,,,,,15,,61,48
3900,note_on,,1,0,9,,,,,,,,,,,,,,,,13,,49,48
3900,note_on,,1,0,6,,,,,,,,,,,,,,,,5,,76,64
3900,note_on,,1,0,10,,,,,,,,,,,,,,,,15,,49,48
3900,note_on,,0,0,10,,,,,,,,,,,,,,,,15,,69,48
3959,note_on,,59,0,10,,,,,,,,,,,,,,,,15,,49,0
3959,note_on,,0,0,10,,,,,,,,,,,,,,,,15,,69,0
3959,note_on,,0,0,10,,,,,,,,,,,,,,,,15,,64,0
3959,note_on,,0,0,10,,,,,,,,,,,,,,,,15,,61,0
3959,note_on,,59,0,9,,,,,,,,,,,,,,,,13,,49,0
3960,note_on,,1,0,9,,,,,,,,,,,,,,,,13,,45,48
3960,note_on,,0,0,10,,,,,,,,,,,,,,,,15,,69,48
3960,note_on,,0,0,10,,,,,,,,,,,,,,,,15,,73,48
3960,note_on,,1,0,10,,,,,,,,,,,,,,,,15,,45,48
3960,note_on,,0,0,10,,,,,,,,,,,,,,,,15,,64,48
4019,note_on,,59,0,10,,,,,,,,,,,,,,,,15,,45,0
4019,note_on,,0,0,10,,,,,,,,,,,,,,,,15,,73,0
4019,note_on,,0,0,10,,,,,,,,,,,,,,,,15,,64,0
4019,note_on,,119,0,6,,,,,,,,,,,,,,,,5,,76,0
4019,note_on,,0,0,10,,,,,,,,,,,,,,,,15,,69,0
4019,note_on,,59,0,9,,,,,,,,,,,,,,,,13,,45,0
4020,note_on,,0,0,10,,,,,,,,,,,,,,,,15,,69,48
4020,note_on,,0,0,10,,,,,,,,,,,,,,,,15,,62,48
4020,note_on,,0,0,10,,,,,,,,,,,,,,,,15,,66,48
4020,note_on,,1,0,9,,,,,,,,,,,,,,,,13,,54,48
4020,note_on,,1,0,10,,,,,,,,,,,,,,,,15,,54,48
4020,note_on,,1,0,6,,,,,,,,,,,,,,,,5,,74,64
4049,note_on,,29,0,6,,,,,,,,,,,,,,,,5,,74,0
4050,note_on,,1,0,6,,,,,,,,,,,,,,,,5,,73,64
4079,note_on,,29,0,6,,,,,,,,,,,,,,,,5,,73,0
4079,note_on,,0,0,10,,,,,,,,,,,,,,,,15,,66,0
4079,note_on,,59,0,9,,,,,,,,,,,,,,,,13,,54,0
4079,note_on,,59,0,10,,,,,,,,,,,,,,,,15,,54,0
4079,note_on,,0,0,10,,,,,,,,,,,,,,,,15,,69,0
4079,note_on,,0,0,10,,,,,,,,,,,,,,,,15,,62,0
4080,note_on,,1,0,10,,,,,,,,,,,,,,,,15,,50,48
4080,note_on,,0,0,10,,,,,,,,,,,,,,,,15,,71,48
4080,note_on,,1,0,9,,,,,,,,,,,,,,,,13,,50,48
4080,note_on,,0,0,10,,,,,,,,,,,,,,,,15,,74,48
4080,note_on,,0,0,10,,,,,,,,,,,,,,,,15,,66,48
4080,note_on,,1,0,6,,,,,,,,,,,,,,,,5,,71,64
4109,note_on,,29,0,6,,,,,,,,,,,,,,,,5,,71,0
4110,note_on,,1,0,6,,,,,,,,,,,,,,,,5,,69,64
4124,note_on,,14,0,6,,,,,,,,,,,,,,,,5,,69,0
4125,note_on,,1,0,6,,,,,,,,,,,,,,,,5,,69,64
4139,note_on,,59,0,9,,,,,,,,,,,,,,,,13,,50,0
4139,note_on,,59,0,10,,,,,,,,,,,,,,,,15,,50,0
4139,note_on,,14,0,6,,,,,,,,,,,,,,,,5,,69,0
4139,note_on,,0,0,10,,,,,,,,,,,,,,,,15,,74,0
4139,note_on,,0,0,10,,,,,,,,,,,,,,,,15,,71,0
4139,note_on,,0,0,10,,,,,,,,,,,,,,,,15,,66,0
4140,note_on,,0,0,10,,,,,,,,,,,,,,,,15,,64,48
4140,note_on,,0,0,10,,,,,,,,,,,,,,,,15,,68,48
4140,note_on,,1,0,9,,,,,,,,,,,,,,,,13,,40,48
4140,note_on,,0,0,10,,,,,,,,,,,,,,,,15,,71,48
4140,note_on,,1,0,10,,,,,,,,,,,,,,,,15,,40,48
4140,note_on,,1,0,6,,,,,,,,,,,,,,,,5,,68,64
4199,note_on,,59,0,10,,,,,,,,,,,,,,,,15,,40,0
4199,note_on,,59,0,9,,,,,,,,,,,,,,,,13,,40,0
4200,note_on,,1,0,10,,,,,,,,,,,,,,,,15,,52,48
4200,note_on,,1,0,9,,,,,,,,,,,,,,,,13,,52,48
4259,note_on,,59,0,10,,,,,,,,,,,,,,,,15,,64,0
4259,note_on,,0,0,10,,,,,,,,,,,,,,,,15,,52,0
4259,note_on,,119,0,6,,,,,,,,,,,,,,,,5,,68,0
4259,note_on,,59,0,9,,,,,,,,,,,,,,,,13,,52,0
4260,note_on,,0,0,10,,,,,,,,,,,,,,,,15,,59,48
4260,note_on,,1,0,10,,,,,,,,,,,,,,,,15,,50,48
4260,note_on,,1,0,9,,,,,,,,,,,,,,,,13,,50,48
4319,note_on,,0,0,10,,,,,,,,,,,,,,,,15,,59,0
4319,note_on,,0,0,10,,,,,,,,,,,,,,,,15,,68,0
4319,note_on,,0,0,10,,,,,,,,,,,,,,,,15,,50,0
4319,note_on,,59,0,9,,,,,,,,,,,,,,,,13,,50,0
4319,note_on,,59,0,10,,,,,,,,,,,,,,,,15,,71,0
4320,note_on,,0,0,10,,,,,,,,,,,,,,,,15,,73,48
4320,note_on,,61,0,6,,,,,,,,,,,,,,,,5,,64,64
4320,note_on,,1,0,9,,,,,,,,,,,,,,,,13,,49,48
4320,note_on,,0,0,10,,,,,,,,,,,,,,,,15,,64,48
4320,note_on,,0,0,10,,,,,,,,,,,,,,,,15,,57,48
4320,note_on,,1,0,10,,,,,,,,,,,,,,,,15,,49,48
4379,note_on,,59,0,9,,,,,,,,,,,,,,,,13,,49,0
4379,note_on,,0,0,10,,,,,,,,,,,,,,,,15,,64,0
4379,note_on,,0,0,10,,,,,,,,,,,,,,,,15,,73,0
4379,note_on,,0,0,10,,,,,,,,,,,,,,,,15,,57,0
4379,note_on,,59,0,10,,,,,,,,,,,,,,,,15,,49,0
4379,note_on,,59,0,6,,,,,,,,,,,,,,,,5,,64,0
4380,note_on,,1,0,9,,,,,,,,,,,,,,,,13,,47,48
4380,note_on,,1,0,6,,,,,,,,,,,,,,,,5,,74,64
4380,note_on,,1,0,10,,,,,,,,,,,,,,,,15,,47,48
4380,note_on,,0,0,10,,,,,,,,,,,,,,,,15,,74,48
4380,note_on,,0,0,10,,,,,,,,,,,,,,,,15,,62,48
4439,note_on,,59,0,9,,,,,,,,,,,,,,,,13,,47,0
4439,note_on,,59,0,10,,,,,,,,,,,,,,,,15,,47,0
4439,note_on,,0,0,10,,,,,,,,,,,,,,,,15,,74,0
4440,note_on,,1,0,9,,,,,,,,,,,,,,,,13,,56,48
4440,note_on,,0,0,10,,,,,,,,,,,,,,,,15,,71,48
4440,note_on,,1,0,10,,,,,,,,,,,,,,,,15,,56,48
4440,note_on,,0,0,10,,,,,,,,,,,,,,,,15,,59,48
4499,note_on,,0,0,10,,,,,,,,,,,,,,,,15,,59,0
4499,note_on,,0,0,10,,,,,,,,,,,,,,,,15,,71,0
4499,note_on,,59,0,10,,,,,,,,,,,,,,,,15,,62,0
4499,note_on,,59,0,9,,,,,,,,,,,,,,,,13,,56,0
4499,note_on,,119,0,6,,,,,,,,,,,,,,,,5,,74,0
4499,note_on,,0,0,10,,,,,,,,,,,,,,,,15,,56,0
4500,note_on,,1,0,6,,,,,,,,,,,,,,,,5,,73,64
4500,note_on,,1,0,9,,,,,,,,,,,,,,,,13,,57,48
4500,note_on,,0,0,10,,,,,,,,,,,,,,,,15,,61,48
4500,note_on,,0,0,10,,,,,,,,,,,,,,,,15,,64,48
4500,note_on,,1,0,10,,,,,,,,,,,,,,,,15,,57,48
4559,note_on,,0,0,10,,,,,,,,,,,,,,,,15,,64,0
4559,note_on,,59,0,9,,,,,,,,,,,,,,,,13,,57,0
4559,note_on,,59,0,10,,,,,,,,,,,,,,,,15,,57,0
4560,note_on,,1,0,9,,,,,,,,,,,,,,,,13,,45,48
4560,note_on,,1,0,10,,,,,,,,,,,,,,,,15,,45,48
4560,note_on,,0,0,10,,,,,,,,,,,,,,,,15,,69,48
4589,note_on,,89,0,6,,,,,,,,,,,,,,,,5,,73,0
4590,note_on,,1,0,6,,,,,,,,,,,,,,,,5,,71,64
4619,note_on,,0,0,10,,,,,,,,,,,,,,,,15,,69,0
4619,note_on,,0,0,10,,,,,,,,,,,,,,,,15,,45,0
4619,note_on,,59,0,10,,,,,,,,,,,,,,,,15,,61,0
4619,note_on,,59,0,9,,,,,,,,,,,,,,,,13,,45,0
4619,note_on,,29,0,6,,,,,,,,,,,,,,,,5,,71,0
4620,note_on,,1,0,6,,,,,,,,,,,,,,,,5,,71,64
4620,note_on,,0,0,10,,,,,,,,,,,,,,,,15,,56,48
4620,note_on,,0,0,10,,,,,,,,,,,,,,,,15,,71,48
4620,note_on,,1,0,10,,,,,,,,,,,,,,,,15,,52,48
4620,note_on,,1,0,9,,,,,,,,,,,,,,,,13,,52,48
4620,note_on,,0,0,10,,,,,,,,,,,,,,,,15,,64,48
4679,note_on,,59,0,10,,,,,,,,,,,,,,,,15,,52,0
4679,note_on,,0,0,10,,,,,,,,,,,,,,,,15,,56,0
4679,note_on,,59,0,9,,,,,,,,,,,,,,,,13,,52,0
4680,note_on,,1,0,9,,,,,,,,,,,,,,,,13,,54,48
4680,note_on,,1,0,10,,,,,,,,,,,,,,,,15,,54,48
4680,note_on,,0,0,10,,,,,,,,,,,,,,,,15,,57,48
4739,note_on,,59,0,9,,,,,,,,,,,,,,,,13,,54,0
4739,note_on,,119,0,6,,,,,,,,,,,,,,,,5,,71,0
4739,note_on,,59,0,10,,,,,,,,,,,,,,,,15,,54,0
4739,note_on,,0,0,10,,,,,,,,,,,,,,,,15,,57,0
4740,note_on,,0,0,10,,,,,,,,,,,,,,,,15,,59,48
4740,note_on,,1,0,10,,,,,,,,,,,,,,,,15,,56,48
4740,note_on,,1,0,9,,,,,,,,,,,,,,,,13,,56,48
4799,note_on,,59,0,10,,,,,,,,,,,,,,,,15,,56,0
4799,note_on,,59,0,9,,,,,,,,,,,,,,,,13,,56,0
4799,note_on,,0,0,10,,,,,,,,,,,,,,,,15,,59,0
4800,note_on,,1,0,9,,,,,,,,,,,,,,,,13,,52,48
4800,note_on,,0,0,10,,,,,,,,,,,,,,,,15,,56,48
4800,note_on,,1,0,10,,,,,,,,,,,,,,,,15,,52,48
4800,note_on,,61,0,6,,,,,,,,,,,,,,,,5,,76,64
4859,note_on,,0,0,10,,,,,,,,,,,,,,,,15,,56,0
4859,note_on,,59,0,10,,,,,,,,,,,,,,,,15,,71,0
4859,note_on,,0,0,10,,,,,,,,,,,,,,,,15,,52,0
4859,note_on,,0,0,10,,,,,,,,,,,,,,,,15,,64,0
4859,note_on,,59,0,6,,,,,,,,,,,,,,,,5,,76,0
4859,note_on,,59,0,9,,,,,,,,,,,,,,,,13,,52,0
4860,note_on,,1,0,6,,,,,,,,,,,,,,,,5,,76,64
4920,note_on,,61,0,9,,,,,,,,,,,,,,,,13,,56,48
4920,note_on,,0,0,10,,,,,,,,,,,,,,,,15,,59,48
4920,note_on,,0,0,10,,,,,,,,,,,,,,,,15,,64,48
4920,note_on,,61,0,10,,,,,,,,,,,,,,,,15,,56,48
4979,note_on,,59,0,9,,,,,,,,,,,,,,,,13,,56,0
4979,note_on,,0,0,10,,,,,,,,,,,,,,,,15,,59,0
4979,note_on,,59,0,10,,,,,,,,,,,,,,,,15,,56,0
4979,note_on,,119,0,6,,,,,,,,,,,,,,,,5,,76,0
4979,note_on,,0,0,10,,,,,,,,,,,,,,,,15,,64,0
4980,note_on,,1,0,9,,,,,,,,,,,,,,,,13,,54,48
4980,note_on,,1,0,6,,,,,,,,,,,,,,,,5,,75,64
4980,note_on,,1,0,10,,,,,,,,,,,,,,,,15,,54,48
4980,note_on,,0,0,10,,,,,,,,,,,,,,,,15,,66,48
4980,note_on,,0,0,10,,,,,,,,,,,,,,,,15,,63,48
4980,note_on,,0,0,10,,,,,,,,,,,,,,,,15,,57,48
5039,note_on,,59,0,9,,,,,,,,,,,,,,,,13,,54,0
5039,note_on,,59,0,6,,,,,,,,,,,,,,,,5,,75,0
5040,note_on,,60,0,10,,,,,,,,,,,,,,,,15,,47,48
5040,note_on,,1,0,6,,,,,,,,,,,,,,,,5,,78,64
5040,note_on,,1,0,9,,,,,,,,,,,,,,,,13,,47,48
5099,note_on,,59,0,6,,,,,,,,,,,,,,,,5,,78,0
5099,note_on,,59,0,10,,,,,,,,,,,,,,,,15,,54,0
5099,note_on,,0,0,10,,,,,,,,,,,,,,,,15,,66,0
5099,note_on,,0,0,10,,,,,,,,,,,,,,,,15,,63,0
5099,note_on,,0,0,10,,,,,,,,,,,,,,,,15,,57,0
5099,note_on,,0,0,10,,,,,,,,,,,,,,,,15,,47,0
5099,note_on,,59,0,9,,,,,,,,,,,,,,,,13,,47,0
5100,note_on,,1,0,6,,,,,,,,,,,,,,,,5,,71,64
5159,note_on,,59,0,6,,,,,,,,,,,,,,,,5,,71,0
5160,note_on,,0,0,10,,,,,,,,,,,,,,,,15,,59,48
5160,note_on,,61,0,10,,,,,,,,,,,,,,,,15,,57,48
5160,note_on,,0,0,10,,,,,,,,,,,,,,,,15,,66,48
5160,note_on,,0,0,10,,,,,,,,,,,,,,,,15,,63,48
5160,note_on,,61,0,9,,,,,,,,,,,,,,,,13,,57,48
5160,note_on,,1,0,6,,,,,,,,,,,,,,,,5,,71,64
5219,note_on,,59,0,10,,,,,,,,,,,,,,,,15,,57,0
5219,note_on,,0,0,10,,,,,,,,,,,,,,,,15,,63,0
5219,note_on,,59,0,9,,,,,,,,,,,,,,,,13,,57,0
5219,note_on,,0,0,10,,,,,,,,,,,,,,,,15,,66,0
5220,note_on,,1,0,9,,,,,,,,,,,,,,,,13,,56,48
5220,note_on,,0,0,10,,,,,,,,,,,,,,,,15,,68,48
5220,note_on,,1,0,10,,,,,,,,,,,,,,,,15,,64,48
5220,note_on,,0,0,10,,,,,,,,,,,,,,,,15,,56,48
5279,note_on,,59,0,9,,,,,,,,,,,,,,,,13,,56,0
5279,note_on,,119,0,6,,,,,,,,,,,,,,,,5,,71,0
5280,note_on,,60,0,10,,,,,,,,,,,,,,,,15,,52,48
5280,note_on,,1,0,6,,,,,,,,,,,,,,,,5,,76,64
5280,note_on,,1,0,9,,,,,,,,,,,,,,,,13,,52,48
5339,note_on,,0,0,10,,,,,,,,,,,,,,,,15,,56,0
5339,note_on,,0,0,10,,,,,,,,,,,,,,,,15,,52,0
5339,note_on,,59,0,10,,,,,,,,,,,,,,,,15,,59,0
5339,note_on,,0,0,10,,,,,,,,,,,,,,,,15,,64,0
5339,note_on,,0,0,10,,,,,,,,,,,,,,,,15,,68,0
5339,note_on,,59,0,6,,,,,,,,,,,,,,,,5,,76,0
5339,note_on,,59,0,9,,,,,,,,,,,,,,,,13,,52,0
5340,note_on,,1,0,6,,,,,,,,,,,,,,,,5,,64,64
5400,note_on,,0,0,10,,,,,,,,,,,,,,,,15,,57,48
5400,note_on,,61,0,10,,,,,,,,,,,,,,,,15,,64,48
5400,note_on,,0,0,10,,,,,,,,,,,,,,,,15,,49,48
5400,note_on,,61,0,9,,,,,,,,,,,,,,,,13,,49,48
5400,note_on,,0,0,10,,,,,,,,,,,,,,,,15,,69,48
5459,note_on,,59,0,9,,,,,,,,,,,,,,,,13,,49,0
5459,note_on,,0,0,10,,,,,,,,,,,,,,,,15,,57,0
5459,note_on,,0,0,10,,,,,,,,,,,,,,,,15,,69,0
5459,note_on,,0,0,10,,,,,,,,,,,,,,,,15,,49,0
5459,note_on,,59,0,10,,,,,,,,,,,,,,,,15,,64,0
5460,note_on,,1,0,9,,,,,,,,,,,,,,,,13,,47,48
5460,note_on,,1,0,10,,,,,,,,,,,,,,,,15,,47,48
5460,note_on,,0,0,10,,,,,,,,,,,,,,,,15,,62,48
5460,note_on,,0,0,10,,,,,,,,,,,,,,,,15,,68,48
5460,note_on,,0,0,10,,,,,,,,,,,,,,,,15,,59,48
5519,note_on,,59,0,10,,,,,,,,,,,,,,,,15,,47,0
5519,note_on,,0,0,10,,,,,,,,,,,,,,,,15,,68,0
5519,note_on,,59,0,9,,,,,,,,,,,,,,,,13,,47,0
5519,note_on,,0,0,10,,,,,,,,,,,,,,,,15,,62,0
5519,note_on,,0,0,10,,,,,,,,,,,,,,,,15,,59,0
5519,note_on,,179,0,6,,,,,,,,,,,,,,,,5,,64,0
5520,note_on,,1,0,9,,,,,,,,,,,,,,,,13,,45,48
5520,note_on,,1,0,10,,,,,,,,,,,,,,,,15,,45,48
5520,note_on,,0,0,10,,,,,,,,,,,,,,,,15,,69,48
5520,note_on,,0,0,10,,,,,,,,,,,,,,,,15,,61,48
5520,note_on,,1,0,6,,,,,,,,,,,,,,,,5,,66,64
5579,note_on,,0,0,10,,,,,,,,,,,,,,,,15,,69,0
5579,note_on,,59,0,10,,,,,,,,,,,,,,,,15,,45,0
5579,note_on,,0,0,10,,,,,,,,,,,,,,,,15,,61,0
5579,note_on,,59,0,9,,,,,,,,,,,,,,,,13,,45,0
5579,note_on,,59,0,6,,,,,,,,,,,,,,,,5,,66,0
5580,note_on,,1,0,9,,,,,,,,,,,,,,,,13,,52,48
5580,note_on,,0,0,10,,,,,,,,,,,,,,,,15,,64,48
5580,note_on,,1,0,6,,,,,,,,,,,,,,,,5,,68,64
5580,note_on,,0,0,10,,,,,,,,,,,,,,,,15,,71,48
5580,note_on,,1,0,10,,,,,,,,,,,,,,,,15,,52,48
5580,note_on,,0,0,10,,,,,,,,,,,,,,,,15,,68,48
5639,note_on,,0,0,10,,,,,,,,,,,,,,,,15,,68,0
5639,note_on,,59,0,6,,,,,,,,,,,,,,,,5,,68,0
5639,note_on,,59,0,9,,,,,,,,,,,,,,,,13,,52,0
5639,note_on,,0,0,10,,,,,,,,,,,,,,,,15,,64,0
5639,note_on,,59,0,10,,,,,,,,,,,,,,,,15,,52,0
5640,note_on,,1,0,10,,,,,,,,,,,,,,,,15,,54,48
5640,note_on,,0,0,10,,,,,,,,,,,,,,,,15,,63,48
5640,note_on,,0,0,10,,,,,,,,,,,,,,,,15,,66,48
5640,note_on,,1,0,6,,,,,,,,,,,,,,,,5,,69,64
5640,note_on,,1,0,9,,,,,,,,,,,,,,,,13,,54,48
5699,note_on,,0,0,10,,,,,,,,,,,,,,,,15,,66,0
5699,note_on,,0,0,10,,,,,,,,,,,,,,,,15,,63,0
5699,note_on,,59,0,6,,,,,,,,,,,,,,,,5,,69,0
5699,note_on,,59,0,9,,,,,,,,,,,,,,,,13,,54,0
5699,note_on,,59,0,10,,,,,,,,,,,,,,,,15,,54,0
5700,note_on,,1,0,9,,,,,,,,,,,,,,,,13,,56,48
5700,note_on,,1,0,10,,,,,,,,,,,,,,,,15,,56,48
5700,note_on,,1,0,6,,,,,,,,,,,,,,,,5,,71,64
5700,note_on,,0,0,10,,,,,,,,,,,,,,,,15,,64,48
5759,note_on,,59,0,10,,,,,,,,,,,,,,,,15,,71,0
5759,note_on,,0,0,10,,,,,,,,,,,,,,,,15,,56,0
5759,note_on,,59,0,9,,,,,,,,,,,,,,,,13,,56,0
5759,note_on,,59,0,6,,,,,,,,,,,,,,,,5,,71,0
5760,note_on,,0,0,10,,,,,,,,,,,,,,,,15,,66,48
5760,note_on,,1,0,9,,,,,,,,,,,,,,,,13,,57,48
5760,note_on,,1,0,10,,,,,,,,,,,,,,,,15,,57,48
5760,note_on,,1,0,6,,,,,,,,,,,,,,,,5,,73,64
5819,note_on,,59,0,6,,,,,,,,,,,,,,,,5,,73,0
5819,note_on,,59,0,9,,,,,,,,,,,,,,,,13,,57,0
5819,note_on,,59,0,10,,,,,,,,,,,,,,,,15,,64,0
5819,note_on,,0,0,10,,,,,,,,,,,,,,,,15,,57,0
5819,note_on,,0,0,10,,,,,,,,,,,,,,,,15,,66,0
5820,note_on,,1,0,9,,,,,,,,,,,,,,,,13,,54,48
5820,note_on,,1,0,6,,,,,,,,,,,,,,,,5,,75,64
5820,note_on,,1,0,10,,,,,,,,,,,,,,,,15,,54,48
5820,note_on,,0,0,10,,,,,,,,,,,,,,,,15,,69,48
5820,note_on,,0,0,10,,,,,,,,,,,,,,,,15,,63,48
5820,note_on,,0,0,10,,,,,,,,,,,,,,,,15,,57,48
5879,note_on,,0,0,10,,,,,,,,,,,,,,,,15,,57,0
5879,note_on,,0,0,10,,,,,,,,,,,,,,,,15,,63,0
5879,note_on,,59,0,10,,,,,,,,,,,,,,,,15,,54,0
5879,note_on,,59,0,9,,,,,,,,,,,,,,,,13,,54,0
5879,note_on,,59,0,6,,,,,,,,,,,,,,,,5,,75,0
5879,note_on,,0,0,10,,,,,,,,,,,,,,,,15,,69,0
5880,note_on,,1,0,10,,,,,,,,,,,,,,,,15,,56,48
5880,note_on,,0,0,10,,,,,,,,,,,,,,,,15,,59,48
5880,note_on,,0,0,10,,,,,,,,,,,,,,,,15,,68,48
5880,note_on,,0,0,10,,,,,,,,,,,,,,,,15,,64,48
5880,note_on,,1,0,9,,,,,,,,,,,,,,,,13,,56,48
5880,note_on,,1,0,6,,,,,,,,,,,,,,,,5,,76,64
5939,note_on,,59,0,10,,,,,,,,,,,,,,,,15,,56,0
5939,note_on,,0,0,10,,,,,,,,,,,,,,,,15,,64,0
5939,note_on,,59,0,9,,,,,,,,,,,,,,,,13,,56,0
5939,note_on,,0,0,10,,,,,,,,,,,,,,,,15,,59,0
5939,note_on,,59,0,6,,,,,,,,,,,,,,,,5,,76,0
5939,note_on,,0,0,10,,,,,,,,,,,,,,,,15,,68,0
5940,note_on,,1,0,10,,,,,,,,,,,,,,,,15,,51,48
5940,note_on,,0,0,10,,,,,,,,,,,,,,,,15,,54,48
5940,note_on,,0,0,10,,,,,,,,,,,,,,,,15,,71,48
5940,note_on,,0,0,10,,,,,,,,,,,,,,,,15,,66,48
5940,note_on,,1,0,6,,,,,,,,,,,,,,,,5,,78,64
5940,note_on,,1,0,9,,,,,,,,,,,,,,,,13,,51,48
5999,note_on,,59,0,10,,,,,,,,,,,,,,,,15,,51,0
5999,note_on,,0,0,10,,,,,,,,,,,,,,,,15,,54,0
5999,note_on,,0,0,10,,,,,,,,,,,,,,,,15,,66,0
5999,note_on,,59,0,9,,,,,,,,,,,,,,,,13,,51,0
5999,note_on,,59,0,6,,,,,,,,,,,,,,,,5,,78,0
6000,note_on,,1,0,9,,,,,,,,,,,,,,,,13,,52,48
6000,note_on,,1,0,10,,,,,,,,,,,,,,,,15,,52,48
6000,note_on,,0,0,10,,,,,,,,,,,,,,,,15,,68,48
6000,note_on,,0,0,10,,,,,,,,,,,,,,,,15,,59,48
6000,note_on,,1,0,6,,,,,,,,,,,,,,,,5,,80,64
6000,note_on,,0,0,10,,,,,,,,,,,,,,,,15,,64,48
6059,note_on,,59,0,6,,,,,,,,,,,,,,,,5,,80,0
6059,note_on,,0,0,10,,,,,,,,,,,,,,,,15,,52,0
6059,note_on,,0,0,10,,,,,,,,,,,,,,,,15,,64,0
6059,note_on,,0,0,10,,,,,,,,,,,,,,,,15,,68,0
6059,note_on,,0,0,10,,,,,,,,,,,,,,,,15,,59,0
6059,note_on,,59,0,10,,,,,,,,,,,,,,,,15,,71,0
6059,note_on,,59,0,9,,,,,,,,,,,,,,,,13,,52,0
6060,note_on,,0,0,10,,,,,,,,,,,,,,,,15,,64,48
6060,note_on,,1,0,10,,,,,,,,,,,,,,,,15,,57,48
6060,note_on,,1,0,6,,,,,,,,,,,,,,,,5,,73,64
6060,note_on,,0,0,10,,,,,,,,,,,,,,,,15,,69,48
6060,note_on,,0,0,10,,,,,,,,,,,,,,,,15,,73,48
6060,note_on,,1,0,9,,,,,,,,,,,,,,,,13,,57,48
6119,note_on,,59,0,9,,,,,,,,,,,,,,,,13,,57,0
6119,note_on,,0,0,10,,,,,,,,,,,,,,,,15,,73,0
6119,note_on,,59,0,10,,,,,,,,,,,,,,,,15,,57,0
6120,note_on,,1,0,9,,,,,,,,,,,,,,,,13,,56,48
6120,note_on,,0,0,10,,,,,,,,,,,,,,,,15,,71,48
6120,note_on,,1,0,10,,,,,,,,,,,,,,,,15,,56,48
6179,note_on,,0,0,10,,,,,,,,,,,,,,,,15,,71,0
6179,note_on,,59,0,10,,,,,,,,,,,,,,,,15,,56,0
6179,note_on,,59,0,9,,,,,,,,,,,,,,,,13,,56,0
6180,note_on,,1,0,9,,,,,,,,,,,,,,,,13,,57,48
6180,note_on,,1,0,10,,,,,,,,,,,,,,,,15,,57,48
6180,note_on,,0,0,10,,,,,,,,,,,,,,,,15,,73,48
6239,note_on,,59,0,9,,,,,,,,,,,,,,,,13,,57,0
6239,note_on,,59,0,10,,,,,,,,,,,,,,,,15,,64,0
6239,note_on,,0,0,10,,,,,,,,,,,,,,,,15,,69,0
6239,note_on,,0,0,10,,,,,,,,,,,,,,,,15,,57,0
6239,note_on,,179,0,6,,,,,,,,,,,,,,,,5,,73,0
6240,note_on,,1,0,9,,,,,,,,,,,,,,,,13,,54,48
6240,note_on,,1,0,6,,,,,,,,,,,,,,,,5,,78,64
6240,note_on,,1,0,10,,,,,,,,,,,,,,,,15,,54,48
6240,note_on,,0,0,10,,,,,,,,,,,,,,,,15,,69,48
6284,note_on,,44,0,6,,,,,,,,,,,,,,,,5,,78,0
6285,note_on,,1,0,6,,,,,,,,,,,,,,,,5,,76,64
6299,note_on,,14,0,6,,,,,,,,,,,,,,,,5,,76,0
6299,note_on,,0,0,10,,,,,,,,,,,,,,,,15,,69,0
6299,note_on,,0,0,10,,,,,,,,,,,,,,,,15,,54,0
6299,note_on,,59,0,9,,,,,,,,,,,,,,,,13,,54,0
6299,note_on,,59,0,10,,,,,,,,,,,,,,,,15,,73,0
6300,note_on,,0,0,10,,,,,,,,,,,,,,,,15,,66,48
6300,note_on,,0,0,10,,,,,,,,,,,,,,,,15,,71,48
6300,note_on,,1,0,10,,,,,,,,,,,,,,,,15,,59,48
6300,note_on,,1,0,9,,,,,,,,,,,,,,,,13,,59,48
6300,note_on,,0,0,10,,,,,,,,,,,,,,,,15,,63,48
6300,note_on,,1,0,6,,,,,,,,,,,,,,,,5,,75,64
6314,note_on,,14,0,6,,,,,,,,,,,,,,,,5,,75,0
6315,note_on,,1,0,6,,,,,,,,,,,,,,,,5,,76,64
6329,note_on,,14,0,6,,,,,,,,,,,,,,,,5,,76,0
6330,note_on,,1,0,6,,,,,,,,,,,,,,,,5,,75,64
6344,note_on,,14,0,6,,,,,,,,,,,,,,,,5,,75,0
6345,note_on,,1,0,6,,,,,,,,,,,,,,,,5,,76,64
6359,note_on,,59,0,10,,,,,,,,,,,,,,,,15,,59,0
6359,note_on,,0,0,10,,,,,,,,,,,,,,,,15,,63,0
6359,note_on,,59,0,9,,,,,,,,,,,,,,,,13,,59,0
6359,note_on,,14,0,6,,,,,,,,,,,,,,,,5,,76,0
6360,note_on,,1,0,6,,,,,,,,,,,,,,,,5,,75,64
6360,note_on,,1,0,9,,,,,,,,,,,,,,,,13,,57,48
6360,note_on,,0,0,10,,,,,,,,,,,,,,,,15,,61,48
6360,note_on,,1,0,10,,,,,,,,,,,,,,,,15,,57,48
6374,note_on,,14,0,6,,,,,,,,,,,,,,,,5,,75,0
6375,note_on,,1,0,6,,,,,,,,,,,,,,,,5,,76,64
6389,note_on,,14,0,6,,,,,,,,,,,,,,,,5,,76,0
6390,note_on,,1,0,6,,,,,,,,,,,,,,,,5,,75,64
6404,note_on,,14,0,6,,,,,,,,,,,,,,,,5,,75,0
6405,note_on,,1,0,6,,,,,,,,,,,,,,,,5,,76,64
6419,note_on,,59,0,10,,,,,,,,,,,,,,,,15,,57,0
6419,note_on,,0,0,10,,,,,,,,,,,,,,,,15,,61,0
6419,note_on,,59,0,9,,,,,,,,,,,,,,,,13,,57,0
6419,note_on,,14,0,6,,,,,,,,,,,,,,,,5,,76,0
6420,note_on,,0,0,10,,,,,,,,,,,,,,,,15,,63,48
6420,note_on,,1,0,10,,,,,,,,,,,,,,,,15,,59,48
6420,note_on,,1,0,6,,,,,,,,,,,,,,,,5,,75,64
6420,note_on,,1,0,9,,,,,,,,,,,,,,,,13,,59,48
6434,note_on,,14,0,6,,,,,,,,,,,,,,,,5,,75,0
6435,note_on,,1,0,6,,,,,,,,,,,,,,,,5,,76,64
6449,note_on,,14,0,6,,,,,,,,,,,,,,,,5,,76,0
6450,note_on,,1,0,6,,,,,,,,,,,,,,,,5,,73,64
6464,note_on,,14,0,6,,,,,,,,,,,,,,,,5,,73,0
6465,note_on,,1,0,6,,,,,,,,,,,,,,,,5,,75,64
6479,note_on,,59,0,9,,,,,,,,,,,,,,,,13,,59,0
6479,note_on,,59,0,10,,,,,,,,,,,,,,,,15,,71,0
6479,note_on,,0,0,10,,,,,,,,,,,,,,,,15,,59,0
6479,note_on,,14,0,6,,,,,,,,,,,,,,,,5,,75,0
6479,note_on,,0,0,10,,,,,,,,,,,,,,,,15,,66,0
6480,note_on,,0,0,10,,,,,,,,,,,,,,,,15,,66,48
6480,note_on,,1,0,10,,,,,,,,,,,,,,,,15,,47,48
6480,note_on,,1,0,6,,,,,,,,,,,,,,,,5,,75,64
6480,note_on,,1,0,9,,,,,,,,,,,,,,,,13,,47,48
6539,note_on,,59,0,10,,,,,,,,,,,,,,,,15,,63,0
6539,note_on,,59,0,9,,,,,,,,,,,,,,,,13,,47,0
6539,note_on,,0,0,10,,,,,,,,,,,,,,,,15,,66,0
6539,note_on,,59,0,6,,,,,,,,,,,,,,,,5,,75,0
6539,note_on,,0,0,10,,,,,,,,,,,,,,,,15,,47,0
6540,note_on,,1,0,6,,,,,,,,,,,,,,,,5,,76,64
6540,note_on,,0,0,10,,,,,,,,,,,,,,,,15,,64,48
6540,note_on,,1,0,9,,,,,,,,,,,,,,,,13,,52,48
6540,note_on,,1,0,10,,,,,,,,,,,,,,,,15,,52,48
6540,note_on,,0,0,10,,,,,,,,,,,,,,,,15,,68,48
6540,note_on,,0,0,10,,,,,,,,,,,,,,,,15,,59,48
6659,note_on,,0,0,10,,,,,,,,,,,,,,,,15,,68,0
6659,note_on,,119,0,10,,,,,,,,,,,,,,,,15,,52,0
6659,note_on,,119,0,6,,,,,,,,,,,,,,,,5,,76,0
6659,note_on,,0,0,10,,,,,,,,,,,,,,,,15,,64,0
6659,note_on,,0,0,10,,,,,,,,,,,,,,,,15,,59,0
6659,note_on,,119,0,9,,,,,,,,,,,,,,,,13,,52,0
6660,note_on,,1,0,6,,,,,,,,,,,,,,,,5,,76,64
6720,note_on,,2941,0,8,,,,,,,,,,,,,,,,11,,76,72
6720,note_on,,2941,0,7,,,,,,,,,,,,,,,,10,,76,72
6779,note_on,,59,0,8,,,,,,,,,,,,,,,,11,,76,0
6779,note_on,,119,0,6,,,,,,,,,,,,,,,,5,,76,0
6779,note_on,,59,0,7,,,,,,,,,,,,,,,,10,,76,0
6780,note_on,,1,0,8,,,,,,,,,,,,,,,,11,,76,72
6780,note_on,,1,0,7,,,,,,,,,,,,,,,,10,,76,72
6840,note_on,,181,0,9,,,,,,,,,,,,,,,,13,,56,72
6840,note_on,,0,0,10,,,,,,,,,,,,,,,,15,,59,72
6840,note_on,,0,0,10,,,,,,,,,,,,,,,,15,,64,72
6840,note_on,,181,0,10,,,,,,,,,,,,,,,,15,,56,72
6840,note_on,,3181,0,5,,,,,,,,,,,,,,,,2,,56,72
6899,note_on,,119,0,8,,,,,,,,,,,,,,,,11,,76,0
6899,note_on,,59,0,9,,,,,,,,,,,,,,,,13,,56,0
6899,note_on,,0,0,10,,,,,,,,,,,,,,,,15,,59,0
6899,note_on,,59,0,10,,,,,,,,,,,,,,,,15,,56,0
6899,note_on,,59,0,5,,,,,,,,,,,,,,,,2,,56,0
6899,note_on,,0,0,10,,,,,,,,,,,,,,,,15,,64,0
6899,note_on,,119,0,7,,,,,,,,,,,,,,,,10,,76,0
6900,note_on,,0,0,10,,,,,,,,,,,,,,,,15,,63,72
6900,note_on,,1,0,8,,,,,,,,,,,,,,,,11,,75,72
6900,note_on,,0,0,10,,,,,,,,,,,,,,,,15,,57,72
6900,note_on,,1,0,10,,,,,,,,,,,,,,,,15,,54,72
6900,note_on,,1,0,9,,,,,,,,,,,,,,,,13,,54,72
6900,note_on,,0,0,10,,,,,,,,,,,,,,,,15,,66,72
6900,note_on,,1,0,7,,,,,,,,,,,,,,,,10,,75,72
6900,note_on,,1,0,5,,,,,,,,,,,,,,,,2,,54,72
6914,note_on,,14,0,7,,,,,,,,,,,,,,,,10,,75,0
6914,note_on,,14,0,8,,,,,,,,,,,,,,,,11,,75,0
6915,note_on,,1,0,7,,,,,,,,,,,,,,,,10,,76,72
6915,note_on,,1,0,8,,,,,,,,,,,,,,,,11,,76,72
6929,note_on,,14,0,7,,,,,,,,,,,,,,,,10,,76,0
6929,note_on,,14,0,8,,,,,,,,,,,,,,,,11,,76,0
6930,note_on,,1,0,8,,,,,,,,,,,,,,,,11,,73,72
6930,note_on,,1,0,7,,,,,,,,,,,,,,,,10,,73,72
6944,note_on,,14,0,7,,,,,,,,,,,,,,,,10,,73,0
6944,note_on,,14,0,8,,,,,,,,,,,,,,,,11,,73,0
6945,note_on,,1,0,8,,,,,,,,,,,,,,,,11,,75,72
6945,note_on,,1,0,7,,,,,,,,,,,,,,,,10,,75,72
6959,note_on,,59,0,5,,,,,,,,,,,,,,,,2,,54,0
6959,note_on,,14,0,7,,,,,,,,,,,,,,,,10,,75,0
6959,note_on,,59,0,9,,,,,,,,,,,,,,,,13,,54,0
6959,note_on,,14,0,8,,,,,,,,,,,,,,,,11,,75,0
6960,note_on,,1,0,7,,,,,,,,,,,,,,,,10,,78,72
6960,note_on,,60,0,10,,,,,,,,,,,,,,,,15,,47,72
6960,note_on,,1,0,9,,,,,,,,,,,,,,,,13,,47,72
6960,note_on,,1,0,5,,,,,,,,,,,,,,,,2,,47,72
6960,note_on,,1,0,8,,,,,,,,,,,,,,,,11,,78,72
7019,note_on,,59,0,10,,,,,,,,,,,,,,,,15,,54,0
7019,note_on,,0,0,10,,,,,,,,,,,,,,,,15,,66,0
7019,note_on,,0,0,10,,,,,,,,,,,,,,,,15,,63,0
7019,note_on,,0,0,10,,,,,,,,,,,,,,,,15,,57,0
7019,note_on,,0,0,10,,,,,,,,,,,,,,,,15,,47,0
7019,note_on,,59,0,7,,,,,,,,,,,,,,,,10,,78,0
7019,note_on,,59,0,5,,,,,,,,,,,,,,,,2,,47,0
7019,note_on,,59,0,8,,,,,,,,,,,,,,,,11,,78,0
7019,note_on,,59,0,9,,,,,,,,,,,,,,,,13,,47,0
7020,note_on,,1,0,7,,,,,,,,,,,,,,,,10,,78,72
7020,note_on,,1,0,8,,,,,,,,,,,,,,,,11,,78,72
7080,note_on,,61,0,10,,,,,,,,,,,,,,,,15,,57,72
7080,note_on,,0,0,10,,,,,,,,,,,,,,,,15,,59,72
7080,note_on,,61,0,9,,,,,,,,,,,,,,,,13,,57,72
7080,note_on,,0,0,10,,,,,,,,,,,,,,,,15,,63,72
7080,note_on,,0,0,10,,,,,,,,,,,,,,,,15,,66,72
7080,note_on,,61,0,5,,,,,,,,,,,,,,,,2,,57,72
7139,note_on,,119,0,7,,,,,,,,,,,,,,,,10,,78,0
7139,note_on,,119,0,8,,,,,,,,,,,,,,,,11,,78,0
7139,note_on,,59,0,9,,,,,,,,,,,,,,,,13,,57,0
7139,note_on,,0,0,10,,,,,,,,,,,,,,,,15,,63,0
7139,note_on,,0,0,10,,,,,,,,,,,,,,,,15,,66,0
7139,note_on,,59,0,10,,,,,,,,,,,,,,,,15,,57,0
7139,note_on,,59,0,5,,,,,,,,,,,,,,,,2,,57,0
7140,note_on,,1,0,5,,,,,,,,,,,,,,,,2,,56,72
7140,note_on,,0,0,10,,,,,,,,,,,,,,,,15,,68,72
7140,note_on,,1,0,10,,,,,,,,,,,,,,,,15,,56,72
7140,note_on,,0,0,10,,,,,,,,,,,,,,,,15,,64,72
7140,note_on,,1,0,9,,,,,,,,,,,,,,,,13,,56,72
7140,note_on,,1,0,8,,,,,,,,,,,,,,,,11,,76,72
7140,note_on,,1,0,7,,,,,,,,,,,,,,,,10,,76,72
7154,note_on,,14,0,7,,,,,,,,,,,,,,,,10,,76,0
7154,note_on,,14,0,8,,,,,,,,,,,,,,,,11,,76,0
7155,note_on,,1,0,8,,,,,,,,,,,,,,,,11,,78,72
7155,note_on,,1,0,7,,,,,,,,,,,,,,,,10,,78,72
7169,note_on,,14,0,8,,,,,,,,,,,,,,,,11,,78,0
7169,note_on,,14,0,7,,,,,,,,,,,,,,,,10,,78,0
7170,note_on,,1,0,8,,,,,,,,,,,,,,,,11,,75,72
7170,note_on,,1,0,7,,,,,,,,,,,,,,,,10,,75,72
7184,note_on,,14,0,7,,,,,,,,,,,,,,,,10,,75,0
7184,note_on,,14,0,8,,,,,,,,,,,,,,,,11,,75,0
7185,note_on,,1,0,7,,,,,,,,,,,,,,,,10,,76,72
7185,note_on,,1,0,8,,,,,,,,,,,,,,,,11,,76,72
7199,note_on,,14,0,7,,,,,,,,,,,,,,,,10,,76,0
7199,note_on,,59,0,9,,,,,,,,,,,,,,,,13,,56,0
7199,note_on,,59,0,5,,,,,,,,,,,,,,,,2,,56,0
7199,note_on,,14,0,8,,,,,,,,,,,,,,,,11,,76,0
7200,note_on,,60,0,10,,,,,,,,,,,,,,,,15,,47,72
7200,note_on,,1,0,8,,,,,,,,,,,,,,,,11,,80,72
7200,note_on,,1,0,7,,,,,,,,,,,,,,,,10,,80,72
7200,note_on,,1,0,9,,,,,,,,,,,,,,,,13,,47,72
7200,note_on,,1,0,5,,,,,,,,,,,,,,,,2,,47,72
7259,note_on,,59,0,7,,,,,,,,,,,,,,,,10,,80,0
7259,note_on,,59,0,10,,,,,,,,,,,,,,,,15,,59,0
7259,note_on,,59,0,9,,,,,,,,,,,,,,,,13,,47,0
7259,note_on,,59,0,8,,,,,,,,,,,,,,,,11,,80,0
7259,note_on,,0,0,10,,,,,,,,,,,,,,,,15,,47,0
7259,note_on,,0,0,10,,,,,,,,,,,,,,,,15,,64,0
7259,note_on,,0,0,10,,,,,,,,,,,,,,,,15,,68,0
7259,note_on,,0,0,10,,,,,,,,,,,,,,,,15,,56,0
7259,note_on,,59,0,5,,,,,,,,,,,,,,,,2,,47,0
7260,note_on,,1,0,8,,,,,,,,,,,,,,,,11,,80,72
7260,note_on,,1,0,7,,,,,,,,,,,,,,,,10,,80,72
7320,note_on,,61,0,5,,,,,,,,,,,,,,,,2,,59,72
7320,note_on,,61,0,9,,,,,,,,,,,,,,,,13,,59,72
7320,note_on,,0,0,10,,,,,,,,,,,,,,,,15,,64,72
7320,note_on,,0,0,10,,,,,,,,,,,,,,,,15,,68,72
7320,note_on,,61,0,10,,,,,,,,,,,,,,,,15,,59,72
7379,note_on,,119,0,7,,,,,,,,,,,,,,,,10,,80,0
7379,note_on,,0,0,10,,,,,,,,,,,,,,,,15,,64,0
7379,note_on,,0,0,10,,,,,,,,,,,,,,,,15,,68,0
7379,note_on,,59,0,10,,,,,,,,,,,,,,,,15,,59,0
7379,note_on,,59,0,9,,,,,,,,,,,,,,,,13,,59,0
7379,note_on,,59,0,5,,,,,,,,,,,,,,,,2,,59,0
7379,note_on,,119,0,8,,,,,,,,,,,,,,,,11,,80,0
7380,note_on,,1,0,9,,,,,,,,,,,,,,,,13,,57,72
7380,note_on,,0,0,10,,,,,,,,,,,,,,,,15,,63,72
7380,note_on,,0,0,10,,,,,,,,,,,,,,,,15,,66,72
7380,note_on,,0,0,10,,,,,,,,,,,,,,,,15,,71,72
7380,note_on,,1,0,10,,,,,,,,,,,,,,,,15,,57,72
7380,note_on,,1,0,7,,,,,,,,,,,,,,,,10,,78,72
7380,note_on,,1,0,8,,,,,,,,,,,,,,,,11,,78,72
7380,note_on,,1,0,5,,,,,,,,,,,,,,,,2,,57,72
7394,note_on,,14,0,8,,,,,,,,,,,,,,,,11,,78,0
7394,note_on,,14,0,7,,,,,,,,,,,,,,,,10,,78,0
7395,note_on,,1,0,8,,,,,,,,,,,,,,,,11,,80,72
7395,note_on,,1,0,7,,,,,,,,,,,,,,,,10,,80,72
7409,note_on,,14,0,8,,,,,,,,,,,,,,,,11,,80,0
7409,note_on,,14,0,7,,,,,,,,,,,,,,,,10,,80,0
7410,note_on,,1,0,8,,,,,,,,,,,,,,,,11,,76,72
7410,note_on,,1,0,7,,,,,,,,,,,,,,,,10,,76,72
7424,note_on,,14,0,8,,,,,,,,,,,,,,,,11,,76,0
7424,note_on,,14,0,7,,,,,,,,,,,,,,,,10,,76,0
7425,note_on,,1,0,8,,,,,,,,,,,,,,,,11,,78,72
7425,note_on,,1,0,7,,,,,,,,,,,,,,,,10,,78,72
7439,note_on,,0,0,10,,,,,,,,,,,,,,,,15,,66,0
7439,note_on,,14,0,7,,,,,,,,,,,,,,,,10,,78,0
7439,note_on,,59,0,10,,,,,,,,,,,,,,,,15,,57,0
7439,note_on,,14,0,8,,,,,,,,,,,,,,,,11,,78,0
7439,note_on,,0,0,10,,,,,,,,,,,,,,,,15,,71,0
7439,note_on,,59,0,5,,,,,,,,,,,,,,,,2,,57,0
7439,note_on,,0,0,10,,,,,,,,,,,,,,,,15,,63,0
7439,note_on,,59,0,9,,,,,,,,,,,,,,,,13,,57,0
7440,note_on,,1,0,7,,,,,,,,,,,,,,,,10,,80,72
7440,note_on,,1,0,10,,,,,,,,,,,,,,,,15,,56,72
7440,note_on,,0,0,10,,,,,,,,,,,,,,,,15,,71,72
7440,note_on,,0,0,10,,,,,,,,,,,,,,,,15,,64,72
7440,note_on,,1,0,9,,,,,,,,,,,,,,,,13,,56,72
7440,note_on,,1,0,5,,,,,,,,,,,,,,,,2,,56,72
7440,note_on,,0,0,10,,,,,,,,,,,,,,,,15,,76,72
7440,note_on,,1,0,8,,,,,,,,,,,,,,,,11,,80,72
7499,note_on,,0,0,10,,,,,,,,,,,,,,,,15,,71,0
7499,note_on,,59,0,5,,,,,,,,,,,,,,,,2,,56,0
7499,note_on,,0,0,10,,,,,,,,,,,,,,,,15,,64,0
7499,note_on,,59,0,7,,,,,,,,,,,,,,,,10,,80,0
7499,note_on,,59,0,9,,,,,,,,,,,,,,,,13,,56,0
7499,note_on,,59,0,10,,,,,,,,,,,,,,,,15,,56,0
7499,note_on,,0,0,10,,,,,,,,,,,,,,,,15,,76,0
7499,note_on,,59,0,8,,,,,,,,,,,,,,,,11,,80,0
7500,note_on,,0,0,10,,,,,,,,,,,,,,,,15,,75,72
7500,note_on,,1,0,5,,,,,,,,,,,,,,,,2,,54,72
7500,note_on,,1,0,7,,,,,,,,,,,,,,,,10,,81,72
7500,note_on,,1,0,8,,,,,,,,,,,,,,,,11,,81,72
7500,note_on,,1,0,9,,,,,,,,,,,,,,,,13,,54,72
7500,note_on,,1,0,10,,,,,,,,,,,,,,,,15,,54,72
7500,note_on,,0,0,10,,,,,,,,,,,,,,,,15,,69,72
7500,note_on,,0,0,10,,,,,,,,,,,,,,,,15,,66,72
7559,note_on,,59,0,5,,,,,,,,,,,,,,,,2,,54,0
7559,note_on,,59,0,9,,,,,,,,,,,,,,,,13,,54,0
7559,note_on,,0,0,10,,,,,,,,,,,,,,,,15,,66,0
7559,note_on,,0,0,10,,,,,,,,,,,,,,,,15,,75,0
7559,note_on,,59,0,8,,,,,,,,,,,,,,,,11,,81,0
7559,note_on,,59,0,10,,,,,,,,,,,,,,,,15,,54,0
7559,note_on,,59,0,7,,,,,,,,,,,,,,,,10,,81,0
7559,note_on,,0,0,10,,,,,,,,,,,,,,,,15,,69,0
7560,note_on,,1,0,10,,,,,,,,,,,,,,,,15,,63,72
7560,note_on,,0,0,10,,,,,,,,,,,,,,,,15,,66,72
7560,note_on,,0,0,10,,,,,,,,,,,,,,,,15,,71,72
7560,note_on,,1,0,8,,,,,,,,,,,,,,,,11,,83,72
7560,note_on,,1,0,7,,,,,,,,,,,,,,,,10,,83,72
7560,note_on,,1,0,5,,,,,,,,,,,,,,,,2,,63,72
7560,note_on,,1,0,9,,,,,,,,,,,,,,,,13,,63,72
7619,note_on,,59,0,5,,,,,,,,,,,,,,,,2,,63,0
7619,note_on,,59,0,7,,,,,,,,,,,,,,,,10,,83,0
7619,note_on,,59,0,8,,,,,,,,,,,,,,,,11,,83,0
7619,note_on,,59,0,10,,,,,,,,,,,,,,,,15,,63,0
7619,note_on,,0,0,10,,,,,,,,,,,,,,,,15,,66,0
7619,note_on,,59,0,9,,,,,,,,,,,,,,,,13,,63,0
7620,note_on,,1,0,10,,,,,,,,,,,,,,,,15,,68,72
7620,note_on,,1,0,8,,,,,,,,,,,,,,,,11,,80,72
7620,note_on,,0,0,10,,,,,,,,,,,,,,,,15,,64,72
7620,note_on,,1,0,7,,,,,,,,,,,,,,,,10,,80,72
7620,note_on,,1,0,5,,,,,,,,,,,,,,,,2,,64,72
7620,note_on,,1,0,9,,,,,,,,,,,,,,,,13,,64,72
7679,note_on,,59,0,10,,,,,,,,,,,,,,,,15,,71,0
7679,note_on,,59,0,8,,,,,,,,,,,,,,,,11,,80,0
7679,note_on,,59,0,7,,,,,,,,,,,,,,,,10,,80,0
7679,note_on,,59,0,9,,,,,,,,,,,,,,,,13,,64,0
7679,note_on,,0,0,10,,,,,,,,,,,,,,,,15,,68,0
7679,note_on,,59,0,5,,,,,,,,,,,,,,,,2,,64,0
7679,note_on,,0,0,10,,,,,,,,,,,,,,,,15,,64,0
7680,note_on,,0,0,10,,,,,,,,,,,,,,,,15,,73,72
7680,note_on,,1,0,8,,,,,,,,,,,,,,,,11,,78,72
7680,note_on,,1,0,10,,,,,,,,,,,,,,,,15,,64,72
7680,note_on,,0,0,10,,,,,,,,,,,,,,,,15,,57,72
7680,note_on,,1,0,7,,,,,,,,,,,,,,,,10,,78,72
7680,note_on,,1,0,5,,,,,,,,,,,,,,,,2,,57,72
7680,note_on,,1,0,9,,,,,,,,,,,,,,,,13,,57,72
7739,note_on,,59,0,5,,,,,,,,,,,,,,,,2,,57,0
7739,note_on,,59,0,9,,,,,,,,,,,,,,,,13,,57,0
7739,note_on,,59,0,8,,,,,,,,,,,,,,,,11,,78,0
7739,note_on,,59,0,7,,,,,,,,,,,,,,,,10,,78,0
7739,note_on,,59,0,10,,,,,,,,,,,,,,,,15,,64,0
7739,note_on,,0,0,10,,,,,,,,,,,,,,,,15,,57,0
7739,note_on,,0,0,10,,,,,,,,,,,,,,,,15,,73,0
7740,note_on,,0,0,10,,,,,,,,,,,,,,,,15,,64,72
7740,note_on,,0,0,10,,,,,,,,,,,,,,,,15,,68,72
7740,note_on,,1,0,7,,,,,,,,,,,,,,,,10,,80,72
7740,note_on,,1,0,5,,,,,,,,,,,,,,,,2,,59,72
7740,note_on,,1,0,9,,,,,,,,,,,,,,,,13,,59,72
7740,note_on,,1,0,10,,,,,,,,,,,,,,,,15,,59,72
7740,note_on,,1,0,8,,,,,,,,,,,,,,,,11,,80,72
7799,note_on,,59,0,10,,,,,,,,,,,,,,,,15,,59,0
7799,note_on,,59,0,5,,,,,,,,,,,,,,,,2,,59,0
7799,note_on,,59,0,9,,,,,,,,,,,,,,,,13,,59,0
7800,note_on,,1,0,5,,,,,,,,,,,,,,,,2,,57,72
7800,note_on,,1,0,10,,,,,,,,,,,,,,,,15,,57,72
7800,note_on,,1,0,9,,,,,,,,,,,,,,,,13,,57,72
7859,note_on,,119,0,7,,,,,,,,,,,,,,,,10,,80,0
7859,note_on,,119,0,8,,,,,,,,,,,,,,,,11,,80,0
7859,note_on,,0,0,10,,,,,,,,,,,,,,,,15,,57,0
7859,note_on,,59,0,10,,,,,,,,,,,,,,,,15,,68,0
7859,note_on,,0,0,10,,,,,,,,,,,,,,,,15,,64,0
7859,note_on,,59,0,9,,,,,,,,,,,,,,,,13,,57,0
7859,note_on,,59,0,5,,,,,,,,,,,,,,,,2,,57,0
7860,note_on,,0,0,10,,,,,,,,,,,,,,,,15,,71,72
7860,note_on,,0,0,10,,,,,,,,,,,,,,,,15,,66,72
7860,note_on,,0,0,10,,,,,,,,,,,,,,,,15,,64,72
7860,note_on,,1,0,9,,,,,,,,,,,,,,,,13,,59,72
7860,note_on,,1,0,10,,,,,,,,,,,,,,,,15,,59,72
7860,note_on,,1,0,5,,,,,,,,,,,,,,,,2,,59,72
7860,note_on,,1,0,8,,,,,,,,,,,,,,,,11,,78,72
7860,note_on,,1,0,7,,,,,,,,,,,,,,,,10,,78,72
7874,note_on,,14,0,8,,,,,,,,,,,,,,,,11,,78,0
7874,note_on,,14,0,7,,,,,,,,,,,,,,,,10,,78,0
7875,note_on,,1,0,7,,,,,,,,,,,,,,,,10,,80,72
7875,note_on,,1,0,8,,,,,,,,,,,,,,,,11,,80,72
7889,note_on,,14,0,7,,,,,,,,,,,,,,,,10,,80,0
7889,note_on,,14,0,8,,,,,,,,,,,,,,,,11,,80,0
7890,note_on,,1,0,7,,,,,,,,,,,,,,,,10,,78,72
7890,note_on,,1,0,8,,,,,,,,,,,,,,,,11,,78,72
7904,note_on,,14,0,8,,,,,,,,,,,,,,,,11,,78,0
7904,note_on,,14,0,7,,,,,,,,,,,,,,,,10,,78,0
7905,note_on,,1,0,7,,,,,,,,,,,,,,,,10,,80,72
7905,note_on,,1,0,8,,,,,,,,,,,,,,,,11,,80,72
7919,note_on,,14,0,7,,,,,,,,,,,,,,,,10,,80,0
7919,note_on,,0,0,10,,,,,,,,,,,,,,,,15,,64,0
7919,note_on,,59,0,9,,,,,,,,,,,,,,,,13,,59,0
7919,note_on,,59,0,5,,,,,,,,,,,,,,,,2,,59,0
7919,note_on,,14,0,8,,,,,,,,,,,,,,,,11,,80,0
7919,note_on,,59,0,10,,,,,,,,,,,,,,,,15,,59,0
7920,note_on,,1,0,7,,,,,,,,,,,,,,,,10,,76,72
7920,note_on,,1,0,8,,,,,,,,,,,,,,,,11,,76,72
7920,note_on,,1,0,9,,,,,,,,,,,,,,,,13,,47,72
7920,note_on,,1,0,5,,,,,,,,,,,,,,,,2,,47,72
7920,note_on,,0,0,10,,,,,,,,,,,,,,,,15,,63,72
7920,note_on,,1,0,10,,,,,,,,,,,,,,,,15,,47,72
7934,note_on,,14,0,8,,,,,,,,,,,,,,,,11,,76,0
7934,note_on,,14,0,7,,,,,,,,,,,,,,,,10,,76,0
7935,note_on,,1,0,8,,,,,,,,,,,,,,,,11,,78,72
7935,note_on,,1,0,7,,,,,,,,,,,,,,,,10,,78,72
7949,note_on,,14,0,8,,,,,,,,,,,,,,,,11,,78,0
7949,note_on,,14,0,7,,,,,,,,,,,,,,,,10,,78,0
7950,note_on,,1,0,7,,,,,,,,,,,,,,,,10,,76,72
7950,note_on,,1,0,8,,,,,,,,,,,,,,,,11,,76,72
7979,note_on,,59,0,10,,,,,,,,,,,,,,,,15,,71,0
7979,note_on,,0,0,10,,,,,,,,,,,,,,,,15,,66,0
7979,note_on,,0,0,10,,,,,,,,,,,,,,,,15,,63,0
7979,note_on,,59,0,5,,,,,,,,,,,,,,,,2,,47,0
7979,note_on,,0,0,10,,,,,,,,,,,,,,,,15,,47,0
7979,note_on,,29,0,8,,,,,,,,,,,,,,,,11,,76,0
7979,note_on,,29,0,7,,,,,,,,,,,,,,,,10,,76,0
7979,note_on,,59,0,9,,,,,,,,,,,,,,,,13,,47,0
7980,note_on,,1,0,7,,,,,,,,,,,,,,,,10,,76,72
7980,note_on,,0,0,10,,,,,,,,,,,,,,,,15,,68,72
7980,note_on,,0,0,10,,,,,,,,,,,,,,,,15,,59,72
7980,note_on,,1,0,10,,,,,,,,,,,,,,,,15,,52,72
7980,note_on,,0,0,10,,,,,,,,,,,,,,,,15,,64,72
7980,note_on,,1,0,9,,,,,,,,,,,,,,,,13,,52,72
7980,note_on,,1,0,5,,,,,,,,,,,,,,,,2,,52,72
7980,note_on,,1,0,8,,,,,,,,,,,,,,,,11,,76,72
8039,note_on,,59,0,9,,,,,,,,,,,,,,,,13,,52,0
8039,note_on,,59,0,10,,,,,,,,,,,,,,,,15,,52,0
8039,note_on,,0,0,10,,,,,,,,,,,,,,,,15,,59,0
8039,note_on,,59,0,5,,,,,,,,,,,,,,,,2,,52,0
8040,note_on,,1,0,9,,,,,,,,,,,,,,,,13,,54,72
8040,note_on,,1,0,10,,,,,,,,,,,,,,,,15,,54,72
8040,note_on,,0,0,10,,,,,,,,,,,,,,,,15,,57,72
8099,note_on,,59,0,10,,,,,,,,,,,,,,,,15,,54,0
8099,note_on,,119,0,8,,,,,,,,,,,,,,,,11,,76,0
8099,note_on,,59,0,9,,,,,,,,,,,,,,,,13,,54,0
8099,note_on,,0,0,10,,,,,,,,,,,,,,,,15,,57,0
8099,note_on,,119,0,7,,,,,,,,,,,,,,,,10,,76,0
8100,note_on,,1,0,10,,,,,,,,,,,,,,,,15,,56,72
8100,note_on,,1,0,9,,,,,,,,,,,,,,,,13,,56,72
8100,note_on,,0,0,10,,,,,,,,,,,,,,,,15,,59,72
8159,note_on,,59,0,9,,,,,,,,,,,,,,,,13,,56,0
8159,note_on,,0,0,10,,,,,,,,,,,,,,,,15,,64,0
8159,note_on,,0,0,10,,,,,,,,,,,,,,,,15,,56,0
8159,note_on,,59,0,10,,,,,,,,,,,,,,,,15,,68,0
8159,note_on,,0,0,10,,,,,,,,,,,,,,,,15,,59,0
8160,note_on,,1,0,9,,,,,,,,,,,,,,,,13,,52,48
8160,note_on,,1381,0,6,,,,,,,,,,,,,,,,5,,64,64
8160,note_on,,1,0,10,,,,,,,,,,,,,,,,15,,52,48
8160,note_on,,0,0,10,,,,,,,,,,,,,,,,15,,59,48
8160,note_on,,0,0,10,,,,,,,,,,,,,,,,15,,68,48
8160,note_on,,0,0,10,,,,,,,,,,,,,,,,15,,64,48
8219,note_on,,59,0,10,,,,,,,,,,,,,,,,15,,52,0
8219,note_on,,0,0,10,,,,,,,,,,,,,,,,15,,68,0
8219,note_on,,0,0,10,,,,,,,,,,,,,,,,15,,64,0
8219,note_on,,59,0,9,,,,,,,,,,,,,,,,13,,52,0
8219,note_on,,0,0,10,,,,,,,,,,,,,,,,15,,59,0
8219,note_on,,59,0,6,,,,,,,,,,,,,,,,5,,64,0
8220,note_on,,1,0,9,,,,,,,,,,,,,,,,13,,51,48
8220,note_on,,1,0,10,,,,,,,,,,,,,,,,15,,51,48
8220,note_on,,0,0,10,,,,,,,,,,,,,,,,15,,66,48
8220,note_on,,0,0,10,,,,,,,,,,,,,,,,15,,59,48
8220,note_on,,0,0,10,,,,,,,,,,,,,,,,15,,54,48
8220,note_on,,1,0,6,,,,,,,,,,,,,,,,5,,71,64
8279,note_on,,59,0,9,,,,,,,,,,,,,,,,13,,51,0
8279,note_on,,0,0,10,,,,,,,,,,,,,,,,15,,54,0
8279,note_on,,59,0,10,,,,,,,,,,,,,,,,15,,51,0
8280,note_on,,1,0,10,,,,,,,,,,,,,,,,15,,49,48
8280,note_on,,0,0,10,,,,,,,,,,,,,,,,15,,52,48
8280,note_on,,1,0,9,,,,,,,,,,,,,,,,13,,49,48
8339,note_on,,59,0,10,,,,,,,,,,,,,,,,15,,66,0
8339,note_on,,0,0,10,,,,,,,,,,,,,,,,15,,59,0
8339,note_on,,0,0,10,,,,,,,,,,,,,,,,15,,49,0
8339,note_on,,0,0,10,,,,,,,,,,,,,,,,15,,52,0
8339,note_on,,59,0,9,,,,,,,,,,,,,,,,13,,49,0
8339,note_on,,119,0,6,,,,,,,,,,,,,,,,5,,71,0
8340,note_on,,1,0,9,,,,,,,,,,,,,,,,13,,51,48
8340,note_on,,0,0,10,,,,,,,,,,,,,,,,15,,71,48
8340,note_on,,0,0,10,,,,,,,,,,,,,,,,15,,54,48
8340,note_on,,0,0,10,,,,,,,,,,,,,,,,15,,59,48
8340,note_on,,1,0,10,,,,,,,,,,,,,,,,15,,51,48
8340,note_on,,1,0,6,,,,,,,,,,,,,,,,5,,71,64
8384,note_on,,44,0,6,,,,,,,,,,,,,,,,5,,71,0
8385,note_on,,1,0,6,,,,,,,,,,,,,,,,5,,69,64
8399,note_on,,0,0,10,,,,,,,,,,,,,,,,15,,59,0
8399,note_on,,0,0,10,,,,,,,,,,,,,,,,15,,54,0
8399,note_on,,59,0,10,,,,,,,,,,,,,,,,15,,51,0
8399,note_on,,59,0,9,,,,,,,,,,,,,,,,13,,51,0
8399,note_on,,14,0,6,,,,,,,,,,,,,,,,5,,69,0
8400,note_on,,1,0,10,,,,,,,,,,,,,,,,15,,47,48
8400,note_on,,0,0,10,,,,,,,,,,,,,,,,15,,63,48
8400,note_on,,1,0,6,,,,,,,,,,,,,,,,5,,68,64
8400,note_on,,1,0,9,,,,,,,,,,,,,,,,13,,47,48
8400,note_on,,0,0,10,,,,,,,,,,,,,,,,15,,59,48
8444,note_on,,44,0,6,,,,,,,,,,,,,,,,5,,68,0
8445,note_on,,1,0,6,,,,,,,,,,,,,,,,5,,66,64
8459,note_on,,14,0,6,,,,,,,,,,,,,,,,5,,66,0
8459,note_on,,59,0,9,,,,,,,,,,,,,,,,13,,47,0
8459,note_on,,59,0,10,,,,,,,,,,,,,,,,15,,71,0
8459,note_on,,0,0,10,,,,,,,,,,,,,,,,15,,47,0
8459,note_on,,0,0,10,,,,,,,,,,,,,,,,15,,63,0
8459,note_on,,0,0,10,,,,,,,,,,,,,,,,15,,59,0
8460,note_on,,0,0,10,,,,,,,,,,,,,,,,15,,64,48
8460,note_on,,0,0,10,,,,,,,,,,,,,,,,15,,52,48
8460,note_on,,0,0,10,,,,,,,,,,,,,,,,15,,68,48
8460,note_on,,1,0,9,,,,,,,,,,,,,,,,13,,49,48
8460,note_on,,1,0,6,,,,,,,,,,,,,,,,5,,64,64
8460,note_on,,1,0,10,,,,,,,,,,,,,,,,15,,49,48
8519,note_on,,0,0,10,,,,,,,,,,,,,,,,15,,64,0
8519,note_on,,59,0,9,,,,,,,,,,,,,,,,13,,49,0
8519,note_on,,59,0,10,,,,,,,,,,,,,,,,15,,49,0
8520,note_on,,0,0,10,,,,,,,,,,,,,,,,15,,63,48
8520,note_on,,1,0,10,,,,,,,,,,,,,,,,15,,47,48
8520,note_on,,1,0,9,,,,,,,,,,,,,,,,13,,47,48
8579,note_on,,0,0,10,,,,,,,,,,,,,,,,15,,63,0
8579,note_on,,59,0,9,,,,,,,,,,,,,,,,13,,47,0
8579,note_on,,119,0,6,,,,,,,,,,,,,,,,5,,64,0
8579,note_on,,59,0,10,,,,,,,,,,,,,,,,15,,47,0
8580,note_on,,1,0,10,,,,,,,,,,,,,,,,15,,49,48
8580,note_on,,0,0,10,,,,,,,,,,,,,,,,15,,64,48
8580,note_on,,1,0,9,,,,,,,,,,,,,,,,13,,49,48
8639,note_on,,59,0,10,,,,,,,,,,,,,,,,15,,68,0
8639,note_on,,0,0,10,,,,,,,,,,,,,,,,15,,49,0
8639,note_on,,59,0,9,,,,,,,,,,,,,,,,13,,49,0
8639,note_on,,0,0,10,,,,,,,,,,,,,,,,15,,64,0
8640,note_on,,1,0,10,,,,,,,,,,,,,,,,15,,44,48
8640,note_on,,0,0,10,,,,,,,,,,,,,,,,15,,59,48
8640,note_on,,1,0,9,,,,,,,,,,,,,,,,13,,44,48
8640,note_on,,0,0,10,,,,,,,,,,,,,,,,15,,64,48
8640,note_on,,61,0,6,,,,,,,,,,,,,,,,5,,76,64
8699,note_on,,59,0,9,,,,,,,,,,,,,,,,13,,44,0
8699,note_on,,59,0,6,,,,,,,,,,,,,,,,5,,76,0
8699,note_on,,59,0,10,,,,,,,,,,,,,,,,15,,52,0
8699,note_on,,0,0,10,,,,,,,,,,,,,,,,15,,44,0
8699,note_on,,0,0,10,,,,,,,,,,,,,,,,15,,59,0
8699,note_on,,0,0,10,,,,,,,,,,,,,,,,15,,64,0
8700,note_on,,1,0,9,,,,,,,,,,,,,,,,13,,42,48
8700,note_on,,1,0,6,,,,,,,,,,,,,,,,5,,69,64
8700,note_on,,0,0,10,,,,,,,,,,,,,,,,15,,57,48
8700,note_on,,1,0,10,,,,,,,,,,,,,,,,15,,42,48
8700,note_on,,0,0,10,,,,,,,,,,,,,,,,15,,63,48
8759,note_on,,59,0,10,,,,,,,,,,,,,,,,15,,42,0
8759,note_on,,59,0,9,,,,,,,,,,,,,,,,13,,42,0
8759,note_on,,0,0,10,,,,,,,,,,,,,,,,15,,63,0
8760,note_on,,0,0,10,,,,,,,,,,,,,,,,15,,66,48
8760,note_on,,1,0,10,,,,,,,,,,,,,,,,15,,51,48
8760,note_on,,1,0,9,,,,,,,,,,,,,,,,13,,51,48
8819,note_on,,59,0,10,,,,,,,,,,,,,,,,15,,57,0
8819,note_on,,0,0,10,,,,,,,,,,,,,,,,15,,51,0
8819,note_on,,0,0,10,,,,,,,,,,,,,,,,15,,66,0
8819,note_on,,119,0,6,,,,,,,,,,,,,,,,5,,69,0
8819,note_on,,59,0,9,,,,,,,,,,,,,,,,13,,51,0
8820,note_on,,1,0,6,,,,,,,,,,,,,,,,5,,68,64
8820,note_on,,1,0,10,,,,,,,,,,,,,,,,15,,52,48
8820,note_on,,0,0,10,,,,,,,,,,,,,,,,15,,59,48
8820,note_on,,1,0,9,,,,,,,,,,,,,,,,13,,52,48
8820,note_on,,0,0,10,,,,,,,,,,,,,,,,15,,56,48
8834,note_on,,14,0,6,,,,,,,,,,,,,,,,5,,68,0
8835,note_on,,1,0,6,,,,,,,,,,,,,,,,5,,69,64
8849,note_on,,14,0,6,,,,,,,,,,,,,,,,5,,69,0
8850,note_on,,1,0,6,,,,,,,,,,,,,,,,5,,68,64
8864,note_on,,14,0,6,,,,,,,,,,,,,,,,5,,68,0
8865,note_on,,1,0,6,,,,,,,,,,,,,,,,5,,69,64
8879,note_on,,59,0,10,,,,,,,,,,,,,,,,15,,52,0
8879,note_on,,0,0,10,,,,,,,,,,,,,,,,15,,59,0
8879,note_on,,59,0,9,,,,,,,,,,,,,,,,13,,52,0
8879,note_on,,14,0,6,,,,,,,,,,,,,,,,5,,69,0
8880,note_on,,1,0,9,,,,,,,,,,,,,,,,13,,40,48
8880,note_on,,1,0,6,,,,,,,,,,,,,,,,5,,68,64
8880,note_on,,1,0,10,,,,,,,,,,,,,,,,15,,40,48
8880,note_on,,0,0,10,,,,,,,,,,,,,,,,15,,64,48
8894,note_on,,14,0,6,,,,,,,,,,,,,,,,5,,68,0
8895,note_on,,1,0,6,,,,,,,,,,,,,,,,5,,69,64
8909,note_on,,14,0,6,,,,,,,,,,,,,,,,5,,69,0
8910,note_on,,1,0,6,,,,,,,,,,,,,,,,5,,66,64
8924,note_on,,14,0,6,,,,,,,,,,,,,,,,5,,66,0
8925,note_on,,1,0,6,,,,,,,,,,,,,,,,5,,68,64
8939,note_on,,59,0,10,,,,,,,,,,,,,,,,15,,56,0
8939,note_on,,0,0,10,,,,,,,,,,,,,,,,15,,40,0
8939,note_on,,0,0,10,,,,,,,,,,,,,,,,15,,64,0
8939,note_on,,59,0,9,,,,,,,,,,,,,,,,13,,40,0
8939,note_on,,14,0,6,,,,,,,,,,,,,,,,5,,68,0
8940,note_on,,1,0,10,,,,,,,,,,,,,,,,15,,47,48
8940,note_on,,0,0,10,,,,,,,,,,,,,,,,15,,59,48
8940,note_on,,0,0,10,,,,,,,,,,,,,,,,15,,63,48
8940,note_on,,0,0,10,,,,,,,,,,,,,,,,15,,66,48
8940,note_on,,1,0,9,,,,,,,,,,,,,,,,13,,47,48
8940,note_on,,1,0,6,,,,,,,,,,,,,,,,5,,66,64
8999,note_on,,0,0,10,,,,,,,,,,,,,,,,15,,59,0
8999,note_on,,0,0,10,,,,,,,,,,,,,,,,15,,63,0
8999,note_on,,59,0,10,,,,,,,,,,,,,,,,15,,47,0
8999,note_on,,59,0,9,,,,,,,,,,,,,,,,13,,47,0
9000,note_on,,0,0,10,,,,,,,,,,,,,,,,15,,64,48
9000,note_on,,1,0,10,,,,,,,,,,,,,,,,15,,49,48
9000,note_on,,1,0,9,,,,,,,,,,,,,,,,13,,49,48
9059,note_on,,59,0,9,,,,,,,,,,,,,,,,13,,49,0
9059,note_on,,119,0,6,,,,,,,,,,,,,,,,5,,66,0
9059,note_on,,59,0,10,,,,,,,,,,,,,,,,15,,49,0
9059,note_on,,0,0,10,,,,,,,,,,,,,,,,15,,64,0
9060,note_on,,1,0,9,,,,,,,,,,,,,,,,13,,47,48
9060,note_on,,1,0,10,,,,,,,,,,,,,,,,15,,47,48
9060,note_on,,0,0,10,,,,,,,,,,,,,,,,15,,66,48
9060,note_on,,0,0,10,,,,,,,,,,,,,,,,15,,63,48
9119,note_on,,59,0,10,,,,,,,,,,,,,,,,15,,66,0
9119,note_on,,59,0,9,,,,,,,,,,,,,,,,13,,47,0
9119,note_on,,0,0,10,,,,,,,,,,,,,,,,15,,47,0
9120,note_on,,61,0,6,,,,,,,,,,,,,,,,5,,66,64
9120,note_on,,1,0,10,,,,,,,,,,,,,,,,15,,45,48
9120,note_on,,0,0,10,,,,,,,,,,,,,,,,15,,71,48
9120,note_on,,1,0,9,,,,,,,,,,,,,,,,13,,45,48
9179,note_on,,59,0,10,,,,,,,,,,,,,,,,15,,66,0
9179,note_on,,0,0,10,,,,,,,,,,,,,,,,15,,63,0
9179,note_on,,0,0,10,,,,,,,,,,,,,,,,15,,45,0
9179,note_on,,0,0,10,,,,,,,,,,,,,,,,15,,71,0
9179,note_on,,59,0,9,,,,,,,,,,,,,,,,13,,45,0
9179,note_on,,59,0,6,,,,,,,,,,,,,,,,5,,66,0
9180,note_on,,1,0,9,,,,,,,,,,,,,,,,13,,44,48
9180,note_on,,1,0,6,,,,,,,,,,,,,,,,5,,71,64
9180,note_on,,0,0,10,,,,,,,,,,,,,,,,15,,64,48
9180,note_on,,0,0,10,,,,,,,,,,,,,,,,15,,71,48
9180,note_on,,0,0,10,,,,,,,,,,,,,,,,15,,76,48
9180,note_on,,1,0,10,,,,,,,,,,,,,,,,15,,44,48
9239,note_on,,59,0,10,,,,,,,,,,,,,,,,15,,44,0
9239,note_on,,59,0,9,,,,,,,,,,,,,,,,13,,44,0
9240,note_on,,1,0,9,,,,,,,,,,,,,,,,13,,52,48
9240,note_on,,1,0,10,,,,,,,,,,,,,,,,15,,52,48
9299,note_on,,59,0,10,,,,,,,,,,,,,,,,15,,76,0
9299,note_on,,0,0,10,,,,,,,,,,,,,,,,15,,52,0
9299,note_on,,0,0,10,,,,,,,,,,,,,,,,15,,64,0
9299,note_on,,0,0,10,,,,,,,,,,,,,,,,15,,71,0
9299,note_on,,119,0,6,,,,,,,,,,,,,,,,5,,71,0
9299,note_on,,59,0,9,,,,,,,,,,,,,,,,13,,52,0
9300,note_on,,1,0,6,,,,,,,,,,,,,,,,5,,69,64
9300,note_on,,0,0,10,,,,,,,,,,,,,,,,15,,75,48
9300,note_on,,0,0,10,,,,,,,,,,,,,,,,15,,78,48
9300,note_on,,0,0,10,,,,,,,,,,,,,,,,15,,69,48
9300,note_on,,1,0,9,,,,,,,,,,,,,,,,13,,42,48
9300,note_on,,1,0,10,,,,,,,,,,,,,,,,15,,42,48
9314,note_on,,14,0,6,,,,,,,,,,,,,,,,5,,69,0
9315,note_on,,1,0,6,,,,,,,,,,,,,,,,5,,71,64
9329,note_on,,14,0,6,,,,,,,,,,,,,,,,5,,71,0
9330,note_on,,1,0,6,,,,,,,,,,,,,,,,5,,69,64
9344,note_on,,14,0,6,,,,,,,,,,,,,,,,5,,69,0
9345,note_on,,1,0,6,,,,,,,,,,,,,,,,5,,71,64
9359,note_on,,59,0,9,,,,,,,,,,,,,,,,13,,42,0
9359,note_on,,59,0,10,,,,,,,,,,,,,,,,15,,42,0
9359,note_on,,14,0,6,,,,,,,,,,,,,,,,5,,71,0
9360,note_on,,1,0,6,,,,,,,,,,,,,,,,5,,69,64
9360,note_on,,1,0,9,,,,,,,,,,,,,,,,13,,51,48
9360,note_on,,1,0,10,,,,,,,,,,,,,,,,15,,51,48
9374,note_on,,14,0,6,,,,,,,,,,,,,,,,5,,69,0
9375,note_on,,1,0,6,,,,,,,,,,,,,,,,5,,71,64
9389,note_on,,14,0,6,,,,,,,,,,,,,,,,5,,71,0
9390,note_on,,1,0,6,,,,,,,,,,,,,,,,5,,68,64
9404,note_on,,14,0,6,,,,,,,,,,,,,,,,5,,68,0
9405,note_on,,1,0,6,,,,,,,,,,,,,,,,5,,69,64
9419,note_on,,14,0,6,,,,,,,,,,,,,,,,5,,69,0
9419,note_on,,0,0,10,,,,,,,,,,,,,,,,15,,75,0
9419,note_on,,59,0,9,,,,,,,,,,,,,,,,13,,51,0
9419,note_on,,59,0,10,,,,,,,,,,,,,,,,15,,78,0
9419,note_on,,0,0,10,,,,,,,,,,,,,,,,15,,69,0
9419,note_on,,0,0,10,,,,,,,,,,,,,,,,15,,51,0
9420,note_on,,0,0,10,,,,,,,,,,,,,,,,15,,71,48
9420,note_on,,0,0,10,,,,,,,,,,,,,,,,15,,68,48
9420,note_on,,0,0,10,,,,,,,,,,,,,,,,15,,64,48
9420,note_on,,1,0,6,,,,,,,,,,,,,,,,5,,68,64
9420,note_on,,1,0,10,,,,,,,,,,,,,,,,15,,52,48
9420,note_on,,1,0,9,,,,,,,,,,,,,,,,13,,52,48
9479,note_on,,59,0,9,,,,,,,,,,,,,,,,13,,52,0
9479,note_on,,59,0,10,,,,,,,,,,,,,,,,15,,52,0
9480,note_on,,1,0,9,,,,,,,,,,,,,,,,13,,54,48
9480,note_on,,1,0,10,,,,,,,,,,,,,,,,15,,54,48
9539,note_on,,59,0,9,,,,,,,,,,,,,,,,13,,54,0
9539,note_on,,59,0,10,,,,,,,,,,,,,,,,15,,54,0
9539,note_on,,119,0,6,,,,,,,,,,,,,,,,5,,68,0
9540,note_on,,1,0,9,,,,,,,,,,,,,,,,13,,52,48
9540,note_on,,1,0,10,,,,,,,,,,,,,,,,15,,52,48
9599,note_on,,0,0,10,,,,,,,,,,,,,,,,15,,52,0
9599,note_on,,0,0,10,,,,,,,,,,,,,,,,15,,64,0
9599,note_on,,0,0,10,,,,,,,,,,,,,,,,15,,68,0
9599,note_on,,59,0,10,,,,,,,,,,,,,,,,15,,71,0
9599,note_on,,59,0,9,,,,,,,,,,,,,,,,13,,52,0
9600,note_on,,0,0,10,,,,,,,,,,,,,,,,15,,68,48
9600,note_on,,1,0,10,,,,,,,,,,,,,,,,15,,50,48
9600,note_on,,61,0,6,,,,,,,,,,,,,,,,5,,71,64
9600,note_on,,1,0,9,,,,,,,,,,,,,,,,13,,50,48
9600,note_on,,0,0,10,,,,,,,,,,,,,,,,15,,64,48
9600,note_on,,0,0,10,,,,,,,,,,,,,,,,15,,59,48
9659,note_on,,59,0,10,,,,,,,,,,,,,,,,15,,50,0
9659,note_on,,0,0,10,,,,,,,,,,,,,,,,15,,64,0
9659,note_on,,0,0,10,,,,,,,,,,,,,,,,15,,59,0
9659,note_on,,59,0,6,,,,,,,,,,,,,,,,5,,71,0
9659,note_on,,59,0,9,,,,,,,,,,,,,,,,13,,50,0
9659,note_on,,0,0,10,,,,,,,,,,,,,,,,15,,68,0
9660,note_on,,1,0,6,,,,,,,,,,,,,,,,5,,76,64
9660,note_on,,0,0,10,,,,,,,,,,,,,,,,15,,69,48
9660,note_on,,0,0,10,,,,,,,,,,,,,,,,15,,64,48
9660,note_on,,0,0,10,,,,,,,,,,,,,,,,15,,57,48
9660,note_on,,1,0,9,,,,,,,,,,,,,,,,13,,49,48
9660,note_on,,1,0,10,,,,,,,,,,,,,,,,15,,49,48
9719,note_on,,59,0,9,,,,,,,,,,,,,,,,13,,49,0
9719,note_on,,59,0,10,,,,,,,,,,,,,,,,15,,49,0
9720,note_on,,1,0,9,,,,,,,,,,,,,,,,13,,57,48
9720,note_on,,1,0,10,,,,,,,,,,,,,,,,15,,57,48
9779,note_on,,0,0,10,,,,,,,,,,,,,,,,15,,64,0
9779,note_on,,0,0,10,,,,,,,,,,,,,,,,15,,57,0
9779,note_on,,59,0,9,,,,,,,,,,,,,,,,13,,57,0
9779,note_on,,0,0,10,,,,,,,,,,,,,,,,15,,57,0
9779,note_on,,119,0,6,,,,,,,,,,,,,,,,5,,76,0
9779,note_on,,59,0,10,,,,,,,,,,,,,,,,15,,69,0
9780,note_on,,1,0,10,,,,,,,,,,,,,,,,15,,47,48
9780,note_on,,0,0,10,,,,,,,,,,,,,,,,15,,71,48
9780,note_on,,1,0,9,,,,,,,,,,,,,,,,13,,47,48
9780,note_on,,1,0,6,,,,,,,,,,,,,,,,5,,74,64
9780,note_on,,0,0,10,,,,,,,,,,,,,,,,15,,68,48
9780,note_on,,0,0,10,,,,,,,,,,,,,,,,15,,62,48
9794,note_on,,14,0,6,,,,,,,,,,,,,,,,5,,74,0
9795,note_on,,1,0,6,,,,,,,,,,,,,,,,5,,76,64
9809,note_on,,14,0,6,,,,,,,,,,,,,,,,5,,76,0
9810,note_on,,1,0,6,,,,,,,,,,,,,,,,5,,74,64
9824,note_on,,14,0,6,,,,,,,,,,,,,,,,5,,74,0
9825,note_on,,1,0,6,,,,,,,,,,,,,,,,5,,76,64
9839,note_on,,14,0,6,,,,,,,,,,,,,,,,5,,76,0
9839,note_on,,59,0,10,,,,,,,,,,,,,,,,15,,47,0
9839,note_on,,59,0,9,,,,,,,,,,,,,,,,13,,47,0
9840,note_on,,1,0,9,,,,,,,,,,,,,,,,13,,56,48
9840,note_on,,1,0,6,,,,,,,,,,,,,,,,5,,74,64
9840,note_on,,1,0,10,,,,,,,,,,,,,,,,15,,56,48
9854,note_on,,14,0,6,,,,,,,,,,,,,,,,5,,74,0
9855,note_on,,1,0,6,,,,,,,,,,,,,,,,5,,76,64
9869,note_on,,14,0,6,,,,,,,,,,,,,,,,5,,76,0
9870,note_on,,1,0,6,,,,,,,,,,,,,,,,5,,73,64
9884,note_on,,14,0,6,,,,,,,,,,,,,,,,5,,73,0
9885,note_on,,1,0,6,,,,,,,,,,,,,,,,5,,74,64
9899,note_on,,0,0,10,,,,,,,,,,,,,,,,15,,56,0
9899,note_on,,14,0,6,,,,,,,,,,,,,,,,5,,74,0
9899,note_on,,0,0,10,,,,,,,,,,,,,,,,15,,68,0
9899,note_on,,0,0,10,,,,,,,,,,,,,,,,15,,62,0
9899,note_on,,59,0,10,,,,,,,,,,,,,,,,15,,71,0
9899,note_on,,59,0,9,,,,,,,,,,,,,,,,13,,56,0
9900,note_on,,0,0,10,,,,,,,,,,,,,,,,15,,64,48
9900,note_on,,0,0,10,,,,,,,,,,,,,,,,15,,69,48
9900,note_on,,0,0,10,,,,,,,,,,,,,,,,15,,73,48
9900,note_on,,1,0,9,,,,,,,,,,,,,,,,13,,45,48
9900,note_on,,1,0,6,,,,,,,,,,,,,,,,5,,73,64
9900,note_on,,1,0,10,,,,,,,,,,,,,,,,15,,45,48
9959,note_on,,59,0,10,,,,,,,,,,,,,,,,15,,45,0
9959,note_on,,59,0,9,,,,,,,,,,,,,,,,13,,45,0
9960,note_on,,1,0,9,,,,,,,,,,,,,,,,13,,52,48
9960,note_on,,1,0,10,,,,,,,,,,,,,,,,15,,52,48
10019,note_on,,59,0,10,,,,,,,,,,,,,,,,15,,52,0
10019,note_on,,59,0,9,,,,,,,,,,,,,,,,13,,52,0
10019,note_on,,119,0,6,,,,,,,,,,,,,,,,5,,73,0
10020,note_on,,1,0,10,,,,,,,,,,,,,,,,15,,57,48
10020,note_on,,1,0,9,,,,,,,,,,,,,,,,13,,57,48
10079,note_on,,59,0,10,,,,,,,,,,,,,,,,15,,73,0
10079,note_on,,0,0,10,,,,,,,,,,,,,,,,15,,64,0
10079,note_on,,0,0,10,,,,,,,,,,,,,,,,15,,57,0
10079,note_on,,0,0,10,,,,,,,,,,,,,,,,15,,69,0
10079,note_on,,59,0,9,,,,,,,,,,,,,,,,13,,57,0
10080,note_on,,1,0,10,,,,,,,,,,,,,,,,15,,49,48
10080,note_on,,0,0,10,,,,,,,,,,,,,,,,15,,69,48
10080,note_on,,0,0,10,,,,,,,,,,,,,,,,15,,64,48
10080,note_on,,1,0,9,,,,,,,,,,,,,,,,13,,49,48
10080,note_on,,61,0,6,,,,,,,,,,,,,,,,5,,76,64
10124,note_on,,44,0,6,,,,,,,,,,,,,,,,5,,76,0
10125,note_on,,1,0,6,,,,,,,,,,,,,,,,5,,69,64
10139,note_on,,59,0,9,,,,,,,,,,,,,,,,13,,49,0
10139,note_on,,14,0,6,,,,,,,,,,,,,,,,5,,69,0
10139,note_on,,59,0,10,,,,,,,,,,,,,,,,15,,49,0
10139,note_on,,0,0,10,,,,,,,,,,,,,,,,15,,64,0
10139,note_on,,0,0,10,,,,,,,,,,,,,,,,15,,69,0
10140,note_on,,0,0,10,,,,,,,,,,,,,,,,15,,71,48
10140,note_on,,0,0,10,,,,,,,,,,,,,,,,15,,68,48
10140,note_on,,1,0,6,,,,,,,,,,,,,,,,5,,68,64
10140,note_on,,0,0,10,,,,,,,,,,,,,,,,15,,62,48
10140,note_on,,1,0,10,,,,,,,,,,,,,,,,15,,47,48
10140,note_on,,1,0,9,,,,,,,,,,,,,,,,13,,47,48
10154,note_on,,14,0,6,,,,,,,,,,,,,,,,5,,68,0
10155,note_on,,1,0,6,,,,,,,,,,,,,,,,5,,69,64
10169,note_on,,14,0,6,,,,,,,,,,,,,,,,5,,69,0
10170,note_on,,1,0,6,,,,,,,,,,,,,,,,5,,68,64
10184,note_on,,14,0,6,,,,,,,,,,,,,,,,5,,68,0
10185,note_on,,1,0,6,,,,,,,,,,,,,,,,5,,69,64
10199,note_on,,14,0,6,,,,,,,,,,,,,,,,5,,69,0
10200,note_on,,1,0,6,,,,,,,,,,,,,,,,5,,68,64
10214,note_on,,14,0,6,,,,,,,,,,,,,,,,5,,68,0
10215,note_on,,1,0,6,,,,,,,,,,,,,,,,5,,69,64
10229,note_on,,14,0,6,,,,,,,,,,,,,,,,5,,69,0
10230,note_on,,1,0,6,,,,,,,,,,,,,,,,5,,68,64
10244,note_on,,14,0,6,,,,,,,,,,,,,,,,5,,68,0
10245,note_on,,1,0,6,,,,,,,,,,,,,,,,5,,69,64
10259,note_on,,14,0,6,,,,,,,,,,,,,,,,5,,69,0
10259,note_on,,119,0,9,,,,,,,,,,,,,,,,13,,47,0
10259,note_on,,0,0,10,,,,,,,,,,,,,,,,15,,71,0
10259,note_on,,0,0,10,,,,,,,,,,,,,,,,15,,68,0
10259,note_on,,119,0,10,,,,,,,,,,,,,,,,15,,47,0
10259,note_on,,0,0,10,,,,,,,,,,,,,,,,15,,62,0
10260,note_on,,0,0,10,,,,,,,,,,,,,,,,15,,64,48
10260,note_on,,0,0,10,,,,,,,,,,,,,,,,15,,73,48
10260,note_on,,1,0,9,,,,,,,,,,,,,,,,13,,45,48
10260,note_on,,1,0,10,,,,,,,,,,,,,,,,15,,45,48
10260,note_on,,1,0,6,,,,,,,,,,,,,,,,5,,68,64
10274,note_on,,14,0,6,,,,,,,,,,,,,,,,5,,68,0
10275,note_on,,1,0,6,,,,,,,,,,,,,,,,5,,69,64
10289,note_on,,14,0,6,,,,,,,,,,,,,,,,5,,69,0
10290,note_on,,1,0,6,,,,,,,,,,,,,,,,5,,66,64
10304,note_on,,14,0,6,,,,,,,,,,,,,,,,5,,66,0
10305,note_on,,1,0,6,,,,,,,,,,,,,,,,5,,68,64
10319,note_on,,14,0,6,,,,,,,,,,,,,,,,5,,68,0
10320,note_on,,1,0,6,,,,,,,,,,,,,,,,5,,69,64
10320,note_on,,60,0,10,,,,,,,,,,,,,,,,15,,66,48
10379,note_on,,0,0,10,,,,,,,,,,,,,,,,15,,66,0
10379,note_on,,59,0,6,,,,,,,,,,,,,,,,5,,69,0
10379,note_on,,0,0,10,,,,,,,,,,,,,,,,15,,64,0
10379,note_on,,0,0,10,,,,,,,,,,,,,,,,15,,73,0
10379,note_on,,59,0,10,,,,,,,,,,,,,,,,15,,45,0
10379,note_on,,119,0,9,,,,,,,,,,,,,,,,13,,45,0
10380,note_on,,0,0,10,,,,,,,,,,,,,,,,15,,64,48
10380,note_on,,1,0,9,,,,,,,,,,,,,,,,13,,52,48
10380,note_on,,0,0,10,,,,,,,,,,,,,,,,15,,68,48
10380,note_on,,1,0,10,,,,,,,,,,,,,,,,15,,52,48
10380,note_on,,0,0,10,,,,,,,,,,,,,,,,15,,71,48
10380,note_on,,1,0,6,,,,,,,,,,,,,,,,5,,71,64
10499,note_on,,119,0,9,,,,,,,,,,,,,,,,13,,52,0
10499,note_on,,0,0,10,,,,,,,,,,,,,,,,15,,64,0
10499,note_on,,0,0,10,,,,,,,,,,,,,,,,15,,68,0
10499,note_on,,0,0,10,,,,,,,,,,,,,,,,15,,71,0
10499,note_on,,119,0,6,,,,,,,,,,,,,,,,5,,71,0
10499,note_on,,119,0,10,,,,,,,,,,,,,,,,15,,52,0
10500,note_on,,2401,0,7,,,,,,,,,,,,,,,,10,,73,48
10500,note_on,,0,0,10,,,,,,,,,,,,,,,,15,,69,48
10500,note_on,,2461,0,5,,,,,,,,,,,,,,,,2,,57,48
10500,note_on,,2401,0,8,,,,,,,,,,,,,,,,11,,73,48
10500,note_on,,0,0,10,,,,,,,,,,,,,,,,15,,61,48
10500,note_on,,0,0,10,,,,,,,,,,,,,,,,15,,64,48
10500,note_on,,1,0,10,,,,,,,,,,,,,,,,15,,57,48
10500,note_on,,1,0,9,,,,,,,,,,,,,,,,13,,57,48
10559,note_on,,59,0,5,,,,,,,,,,,,,,,,2,,57,0
10559,note_on,,59,0,9,,,,,,,,,,,,,,,,13,,57,0
10559,note_on,,59,0,10,,,,,,,,,,,,,,,,15,,57,0
10560,note_on,,1,0,5,,,,,,,,,,,,,,,,2,,49,48
10560,note_on,,1,0,9,,,,,,,,,,,,,,,,13,,49,48
10560,note_on,,1,0,10,,,,,,,,,,,,,,,,15,,49,48
10589,note_on,,89,0,7,,,,,,,,,,,,,,,,10,,73,0
10589,note_on,,89,0,8,,,,,,,,,,,,,,,,11,,73,0
10590,note_on,,1,0,7,,,,,,,,,,,,,,,,10,,74,48
10590,note_on,,1,0,8,,,,,,,,,,,,,,,,11,,74,48
10604,note_on,,14,0,7,,,,,,,,,,,,,,,,10,,74,0
10604,note_on,,14,0,8,,,,,,,,,,,,,,,,11,,74,0
10605,note_on,,1,0,7,,,,,,,,,,,,,,,,10,,76,48
10605,note_on,,1,0,8,,,,,,,,,,,,,,,,11,,76,48
10619,note_on,,14,0,7,,,,,,,,,,,,,,,,10,,76,0
10619,note_on,,59,0,9,,,,,,,,,,,,,,,,13,,49,0
10619,note_on,,14,0,8,,,,,,,,,,,,,,,,11,,76,0
10619,note_on,,59,0,5,,,,,,,,,,,,,,,,2,,49,0
10619,note_on,,0,0,10,,,,,,,,,,,,,,,,15,,49,0
10619,note_on,,0,0,10,,,,,,,,,,,,,,,,15,,61,0
10619,note_on,,0,0,10,,,,,,,,,,,,,,,,15,,64,0
10619,note_on,,59,0,10,,,,,,,,,,,,,,,,15,,69,0
10620,note_on,,1,0,5,,,,,,,,,,,,,,,,2,,47,48
10620,note_on,,1,0,7,,,,,,,,,,,,,,,,10,,68,48
10620,note_on,,1,0,8,,,,,,,,,,,,,,,,11,,68,48
10620,note_on,,0,0,10,,,,,,,,,,,,,,,,15,,71,48
10620,note_on,,1,0,10,,,,,,,,,,,,,,,,15,,47,48
10620,note_on,,0,0,10,,,,,,,,,,,,,,,,15,,68,48
10620,note_on,,0,0,10,,,,,,,,,,,,,,,,15,,62,48
10620,note_on,,1,0,9,,,,,,,,,,,,,,,,13,,47,48
10679,note_on,,59,0,9,,,,,,,,,,,,,,,,13,,47,0
10679,note_on,,59,0,10,,,,,,,,,,,,,,,,15,,47,0
10679,note_on,,0,0,10,,,,,,,,,,,,,,,,15,,62,0
10679,note_on,,59,0,5,,,,,,,,,,,,,,,,2,,47,0
10680,note_on,,1,0,10,,,,,,,,,,,,,,,,15,,52,48
10680,note_on,,0,0,10,,,,,,,,,,,,,,,,15,,59,48
10680,note_on,,1,0,5,,,,,,,,,,,,,,,,2,,52,48
10680,note_on,,1,0,9,,,,,,,,,,,,,,,,13,,52,48
10739,note_on,,59,0,5,,,,,,,,,,,,,,,,2,,52,0
10739,note_on,,59,0,10,,,,,,,,,,,,,,,,15,,52,0
10739,note_on,,59,0,9,,,,,,,,,,,,,,,,13,,52,0
10739,note_on,,0,0,10,,,,,,,,,,,,,,,,15,,59,0
10740,note_on,,1,0,9,,,,,,,,,,,,,,,,13,,49,48
10740,note_on,,1,0,5,,,,,,,,,,,,,,,,2,,49,48
10740,note_on,,0,0,10,,,,,,,,,,,,,,,,15,,64,48
10740,note_on,,1,0,10,,,,,,,,,,,,,,,,15,,49,48
10799,note_on,,0,0,10,,,,,,,,,,,,,,,,15,,49,0
10799,note_on,,59,0,9,,,,,,,,,,,,,,,,13,,49,0
10799,note_on,,179,0,8,,,,,,,,,,,,,,,,11,,68,0
10799,note_on,,179,0,7,,,,,,,,,,,,,,,,10,,68,0
10799,note_on,,59,0,5,,,,,,,,,,,,,,,,2,,49,0
10799,note_on,,0,0,10,,,,,,,,,,,,,,,,15,,68,0
10799,note_on,,59,0,10,,,,,,,,,,,,,,,,15,,71,0
10800,note_on,,0,0,10,,,,,,,,,,,,,,,,15,,73,48
10800,note_on,,1,0,9,,,,,,,,,,,,,,,,13,,45,48
10800,note_on,,1,0,8,,,,,,,,,,,,,,,,11,,69,48
10800,note_on,,1,0,7,,,,,,,,,,,,,,,,10,,69,48
10800,note_on,,1,0,10,,,,,,,,,,,,,,,,15,,45,48
10800,note_on,,1,0,5,,,,,,,,,,,,,,,,2,,45,48
10800,note_on,,0,0,10,,,,,,,,,,,,,,,,15,,69,48
10859,note_on,,59,0,8,,,,,,,,,,,,,,,,11,,69,0
10859,note_on,,59,0,10,,,,,,,,,,,,,,,,15,,64,0
10859,note_on,,0,0,10,,,,,,,,,,,,,,,,15,,45,0
10859,note_on,,0,0,10,,,,,,,,,,,,,,,,15,,73,0
10859,note_on,,0,0,10,,,,,,,,,,,,,,,,15,,69,0
10859,note_on,,59,0,5,,,,,,,,,,,,,,,,2,,45,0
10859,note_on,,59,0,9,,,,,,,,,,,,,,,,13,,45,0
10859,note_on,,59,0,7,,,,,,,,,,,,,,,,10,,69,0
10860,note_on,,0,0,10,,,,,,,,,,,,,,,,15,,68,48
10860,note_on,,0,0,10,,,,,,,,,,,,,,,,15,,71,48
10860,note_on,,1,0,9,,,,,,,,,,,,,,,,13,,52,48
10860,note_on,,1,0,5,,,,,,,,,,,,,,,,2,,52,48
10860,note_on,,1,0,10,,,,,,,,,,,,,,,,15,,52,48
10860,note_on,,1,0,7,,,,,,,,,,,,,,,,10,,71,48
10860,note_on,,0,0,10,,,,,,,,,,,,,,,,15,,64,48
10860,note_on,,1,0,8,,,,,,,,,,,,,,,,11,,71,48
10919,note_on,,0,0,10,,,,,,,,,,,,,,,,15,,71,0
10919,note_on,,59,0,9,,,,,,,,,,,,,,,,13,,52,0
10919,note_on,,59,0,10,,,,,,,,,,,,,,,,15,,52,0
10920,note_on,,0,0,10,,,,,,,,,,,,,,,,15,,69,48
10920,note_on,,1,0,9,,,,,,,,,,,,,,,,13,,54,48
10920,note_on,,1,0,10,,,,,,,,,,,,,,,,15,,54,48
10979,note_on,,0,0,10,,,,,,,,,,,,,,,,15,,69,0
10979,note_on,,59,0,9,,,,,,,,,,,,,,,,13,,54,0
10979,note_on,,119,0,8,,,,,,,,,,,,,,,,11,,71,0
10979,note_on,,119,0,5,,,,,,,,,,,,,,,,2,,52,0
10979,note_on,,119,0,7,,,,,,,,,,,,,,,,10,,71,0
10979,note_on,,59,0,10,,,,,,,,,,,,,,,,15,,54,0
10980,note_on,,1,0,9,,,,,,,,,,,,,,,,13,,56,48
10980,note_on,,1,0,10,,,,,,,,,,,,,,,,15,,56,48
10980,note_on,,0,0,10,,,,,,,,,,,,,,,,15,,71,48
11039,note_on,,59,0,10,,,,,,,,,,,,,,,,15,,68,0
11039,note_on,,59,0,9,,,,,,,,,,,,,,,,13,,56,0
11039,note_on,,0,0,10,,,,,,,,,,,,,,,,15,,64,0
11039,note_on,,0,0,10,,,,,,,,,,,,,,,,15,,56,0
11039,note_on,,0,0,10,,,,,,,,,,,,,,,,15,,71,0
11040,note_on,,0,0,10,,,,,,,,,,,,,,,,15,,64,48
11040,note_on,,0,0,10,,,,,,,,,,,,,,,,15,,68,48
11040,note_on,,0,0,10,,,,,,,,,,,,,,,,15,,73,48
11040,note_on,,1,0,9,,,,,,,,,,,,,,,,13,,52,48
11040,note_on,,541,0,6,,,,,,,,,,,,,,,,5,,73,64
11040,note_on,,1,0,10,,,,,,,,,,,,,,,,15,,52,48
11099,note_on,,0,0,10,,,,,,,,,,,,,,,,15,,64,0
11099,note_on,,0,0,10,,,,,,,,,,,,,,,,15,,68,0
11099,note_on,,59,0,9,,,,,,,,,,,,,,,,13,,52,0
11099,note_on,,59,0,10,,,,,,,,,,,,,,,,15,,52,0
11099,note_on,,0,0,10,,,,,,,,,,,,,,,,15,,73,0
11099,note_on,,59,0,6,,,,,,,,,,,,,,,,5,,73,0
11100,note_on,,1,0,10,,,,,,,,,,,,,,,,15,,54,48
11100,note_on,,0,0,10,,,,,,,,,,,,,,,,15,,69,48
11100,note_on,,1,0,9,,,,,,,,,,,,,,,,13,,54,48
11100,note_on,,0,0,10,,,,,,,,,,,,,,,,15,,66,48
11100,note_on,,1,0,6,,,,,,,,,,,,,,,,5,,74,64
11100,note_on,,0,0,10,,,,,,,,,,,,,,,,15,,62,48
11159,note_on,,59,0,10,,,,,,,,,,,,,,,,15,,54,0
11159,note_on,,59,0,6,,,,,,,,,,,,,,,,5,,74,0
11159,note_on,,59,0,9,,,,,,,,,,,,,,,,13,,54,0
11160,note_on,,1,0,6,,,,,,,,,,,,,,,,5,,73,64
11160,note_on,,1,0,9,,,,,,,,,,,,,,,,13,,52,48
11160,note_on,,1,0,10,,,,,,,,,,,,,,,,15,,52,48
11219,note_on,,59,0,9,,,,,,,,,,,,,,,,13,,52,0
11219,note_on,,59,0,10,,,,,,,,,,,,,,,,15,,52,0
11219,note_on,,59,0,6,,,,,,,,,,,,,,,,5,,73,0
11220,note_on,,1,0,9,,,,,,,,,,,,,,,,13,,54,48
11220,note_on,,1,0,6,,,,,,,,,,,,,,,,5,,74,64
11220,note_on,,1,0,10,,,,,,,,,,,,,,,,15,,54,48
11279,note_on,,59,0,10,,,,,,,,,,,,,,,,15,,69,0
11279,note_on,,0,0,10,,,,,,,,,,,,,,,,15,,66,0
11279,note_on,,0,0,10,,,,,,,,,,,,,,,,15,,54,0
11279,note_on,,59,0,9,,,,,,,,,,,,,,,,13,,54,0
11279,note_on,,0,0,10,,,,,,,,,,,,,,,,15,,62,0
11279,note_on,,59,0,6,,,,,,,,,,,,,,,,5,,74,0
11280,note_on,,1,0,9,,,,,,,,,,,,,,,,13,,56,48
11280,note_on,,1,0,6,,,,,,,,,,,,,,,,5,,71,64
11280,note_on,,1,0,10,,,,,,,,,,,,,,,,15,,56,48
11280,note_on,,0,0,10,,,,,,,,,,,,,,,,15,,64,48
11280,note_on,,0,0,10,,,,,,,,,,,,,,,,15,,59,48
11339,note_on,,59,0,6,,,,,,,,,,,,,,,,5,,71,0
11339,note_on,,59,0,10,,,,,,,,,,,,,,,,15,,56,0
11339,note_on,,0,0,10,,,,,,,,,,,,,,,,15,,64,0
11339,note_on,,0,0,10,,,,,,,,,,,,,,,,15,,59,0
11339,note_on,,59,0,9,,,,,,,,,,,,,,,,13,,56,0
11340,note_on,,0,0,10,,,,,,,,,,,,,,,,15,,61,48
11340,note_on,,1,0,6,,,,,,,,,,,,,,,,5,,73,64
11340,note_on,,0,0,10,,,,,,,,,,,,,,,,15,,64,48
11340,note_on,,1,0,10,,,,,,,,,,,,,,,,15,,57,48
11340,note_on,,1,0,9,,,,,,,,,,,,,,,,13,,57,48
11399,note_on,,59,0,10,,,,,,,,,,,,,,,,15,,57,0
11399,note_on,,59,0,6,,,,,,,,,,,,,,,,5,,73,0
11399,note_on,,59,0,9,,,,,,,,,,,,,,,,13,,57,0
11400,note_on,,1,0,10,,,,,,,,,,,,,,,,15,,56,48
11400,note_on,,1,0,9,,,,,,,,,,,,,,,,13,,56,48
11400,note_on,,1,0,6,,,,,,,,,,,,,,,,5,,71,64
11459,note_on,,0,0,10,,,,,,,,,,,,,,,,15,,56,0
11459,note_on,,59,0,9,,,,,,,,,,,,,,,,13,,56,0
11459,note_on,,59,0,6,,,,,,,,,,,,,,,,5,,71,0
11459,note_on,,0,0,10,,,,,,,,,,,,,,,,15,,61,0
11459,note_on,,59,0,10,,,,,,,,,,,,,,,,15,,64,0
11460,note_on,,1,0,9,,,,,,,,,,,,,,,,13,,57,48
11460,note_on,,1,0,6,,,,,,,,,,,,,,,,5,,73,64
11460,note_on,,0,0,10,,,,,,,,,,,,,,,,15,,73,48
11460,note_on,,0,0,10,,,,,,,,,,,,,,,,15,,69,48
11460,note_on,,1,0,10,,,,,,,,,,,,,,,,15,,57,48
11460,note_on,,0,0,10,,,,,,,,,,,,,,,,15,,64,48
11519,note_on,,59,0,6,,,,,,,,,,,,,,,,5,,73,0
11519,note_on,,59,0,9,,,,,,,,,,,,,,,,13,,57,0
11519,note_on,,59,0,10,,,,,,,,,,,,,,,,15,,57,0
11520,note_on,,1,0,6,,,,,,,,,,,,,,,,5,,69,64
11520,note_on,,1,0,9,,,,,,,,,,,,,,,,13,,49,48
11520,note_on,,1,0,10,,,,,,,,,,,,,,,,15,,49,48
11579,note_on,,59,0,9,,,,,,,,,,,,,,,,13,,49,0
11579,note_on,,59,0,10,,,,,,,,,,,,,,,,15,,73,0
11579,note_on,,0,0,10,,,,,,,,,,,,,,,,15,,69,0
11579,note_on,,59,0,6,,,,,,,,,,,,,,,,5,,69,0
11579,note_on,,0,0,10,,,,,,,,,,,,,,,,15,,64,0
11579,note_on,,0,0,10,,,,,,,,,,,,,,,,15,,49,0
11580,note_on,,1,0,6,,,,,,,,,,,,,,,,5,,71,64
11580,note_on,,1,0,9,,,,,,,,,,,,,,,,13,,50,48
11580,note_on,,1,0,10,,,,,,,,,,,,,,,,15,,50,48
11580,note_on,,0,0,10,,,,,,,,,,,,,,,,15,,66,48
11580,note_on,,0,0,10,,,,,,,,,,,,,,,,15,,71,48
11639,note_on,,59,0,9,,,,,,,,,,,,,,,,13,,50,0
11639,note_on,,59,0,10,,,,,,,,,,,,,,,,15,,50,0
11640,note_on,,1,0,10,,,,,,,,,,,,,,,,15,,49,48
11640,note_on,,1,0,9,,,,,,,,,,,,,,,,13,,49,48
11699,note_on,,59,0,9,,,,,,,,,,,,,,,,13,,49,0
11699,note_on,,0,0,10,,,,,,,,,,,,,,,,15,,49,0
11699,note_on,,59,0,10,,,,,,,,,,,,,,,,15,,71,0
11700,note_on,,0,0,10,,,,,,,,,,,,,,,,15,,69,48
11700,note_on,,1,0,10,,,,,,,,,,,,,,,,15,,50,48
11700,note_on,,1,0,9,,,,,,,,,,,,,,,,13,,50,48
11759,note_on,,179,0,6,,,,,,,,,,,,,,,,5,,71,0
11759,note_on,,0,0,10,,,,,,,,,,,,,,,,15,,69,0
11759,note_on,,0,0,10,,,,,,,,,,,,,,,,15,,50,0
11759,note_on,,59,0,10,,,,,,,,,,,,,,,,15,,66,0
11759,note_on,,59,0,9,,,,,,,,,,,,,,,,13,,50,0
11760,note_on,,0,0,10,,,,,,,,,,,,,,,,15,,64,48
11760,note_on,,1,0,6,,,,,,,,,,,,,,,,5,,73,64
11760,note_on,,0,0,10,,,,,,,,,,,,,,,,15,,68,48
11760,note_on,,1,0,10,,,,,,,,,,,,,,,,15,,52,48
11760,note_on,,1,0,9,,,,,,,,,,,,,,,,13,,52,48
11789,note_on,,29,0,6,,,,,,,,,,,,,,,,5,,73,0
11790,note_on,,1,0,6,,,,,,,,,,,,,,,,5,,71,64
11819,note_on,,0,0,10,,,,,,,,,,,,,,,,15,,68,0
11819,note_on,,59,0,10,,,,,,,,,,,,,,,,15,,52,0
11819,note_on,,59,0,9,,,,,,,,,,,,,,,,13,,52,0
11819,note_on,,0,0,10,,,,,,,,,,,,,,,,15,,64,0
11819,note_on,,29,0,6,,,,,,,,,,,,,,,,5,,71,0
11820,note_on,,0,0,10,,,,,,,,,,,,,,,,15,,61,48
11820,note_on,,0,0,10,,,,,,,,,,,,,,,,15,,69,48
11820,note_on,,1,0,10,,,,,,,,,,,,,,,,15,,54,48
11820,note_on,,1,0,6,,,,,,,,,,,,,,,,5,,69,64
11820,note_on,,1,0,9,,,,,,,,,,,,,,,,13,,54,48
11879,note_on,,0,0,10,,,,,,,,,,,,,,,,15,,69,0
11879,note_on,,59,0,10,,,,,,,,,,,,,,,,15,,54,0
11879,note_on,,59,0,9,,,,,,,,,,,,,,,,13,,54,0
11880,note_on,,1,0,10,,,,,,,,,,,,,,,,15,,52,48
11880,note_on,,0,0,10,,,,,,,,,,,,,,,,15,,68,48
11880,note_on,,1,0,9,,,,,,,,,,,,,,,,13,,52,48
11939,note_on,,0,0,10,,,,,,,,,,,,,,,,15,,68,0
11939,note_on,,0,0,10,,,,,,,,,,,,,,,,15,,52,0
11939,note_on,,59,0,10,,,,,,,,,,,,,,,,15,,61,0
11939,note_on,,59,0,9,,,,,,,,,,,,,,,,13,,52,0
11940,note_on,,1,0,10,,,,,,,,,,,,,,,,15,,54,48
11940,note_on,,0,0,10,,,,,,,,,,,,,,,,15,,69,48
11940,note_on,,1,0,9,,,,,,,,,,,,,,,,13,,54,48
11999,note_on,,59,0,9,,,,,,,,,,,,,,,,13,,54,0
11999,note_on,,0,0,10,,,,,,,,,,,,,,,,15,,69,0
11999,note_on,,59,0,10,,,,,,,,,,,,,,,,15,,54,0
12000,note_on,,0,0,10,,,,,,,,,,,,,,,,15,,64,48
12000,note_on,,0,0,10,,,,,,,,,,,,,,,,15,,76,48
12000,note_on,,1,0,9,,,,,,,,,,,,,,,,13,,49,48
12000,note_on,,1,0,10,,,,,,,,,,,,,,,,15,,49,48
12000,note_on,,0,0,10,,,,,,,,,,,,,,,,15,,69,48
12059,note_on,,59,0,9,,,,,,,,,,,,,,,,13,,49,0
12059,note_on,,239,0,6,,,,,,,,,,,,,,,,5,,69,0
12059,note_on,,59,0,10,,,,,,,,,,,,,,,,15,,49,0
12059,note_on,,0,0,10,,,,,,,,,,,,,,,,15,,76,0
12059,note_on,,0,0,10,,,,,,,,,,,,,,,,15,,69,0
12059,note_on,,0,0,10,,,,,,,,,,,,,,,,15,,64,0
12060,note_on,,1,0,10,,,,,,,,,,,,,,,,15,,50,48
12060,note_on,,0,0,10,,,,,,,,,,,,,,,,15,,62,48
12060,note_on,,0,0,10,,,,,,,,,,,,,,,,15,,69,48
12060,note_on,,1,0,9,,,,,,,,,,,,,,,,13,,50,48
12060,note_on,,0,0,10,,,,,,,,,,,,,,,,15,,78,48
12120,note_on,,61,0,6,,,,,,,,,,,,,,,,5,,73,64
12179,note_on,,119,0,10,,,,,,,,,,,,,,,,15,,50,0
12179,note_on,,0,0,10,,,,,,,,,,,,,,,,15,,69,0
12179,note_on,,59,0,6,,,,,,,,,,,,,,,,5,,73,0
12179,note_on,,0,0,10,,,,,,,,,,,,,,,,15,,62,0
12179,note_on,,119,0,9,,,,,,,,,,,,,,,,13,,50,0
12180,note_on,,1,0,10,,,,,,,,,,,,,,,,15,,51,48
12180,note_on,,0,0,10,,,,,,,,,,,,,,,,15,,71,48
12180,note_on,,0,0,10,,,,,,,,,,,,,,,,15,,54,48
12180,note_on,,1,0,9,,,,,,,,,,,,,,,,13,,51,48
12180,note_on,,1,0,6,,,,,,,,,,,,,,,,5,,71,64
12239,note_on,,59,0,6,,,,,,,,,,,,,,,,5,,71,0
12239,note_on,,59,0,10,,,,,,,,,,,,,,,,15,,78,0
12240,note_on,,1,0,6,,,,,,,,,,,,,,,,5,,69,64
12240,note_on,,1,0,10,,,,,,,,,,,,,,,,15,,78,48
12299,note_on,,59,0,10,,,,,,,,,,,,,,,,15,,51,0
12299,note_on,,0,0,10,,,,,,,,,,,,,,,,15,,54,0
12299,note_on,,59,0,6,,,,,,,,,,,,,,,,5,,69,0
12299,note_on,,119,0,9,,,,,,,,,,,,,,,,13,,51,0
12299,note_on,,0,0,10,,,,,,,,,,,,,,,,15,,71,0
12299,note_on,,0,0,10,,,,,,,,,,,,,,,,15,,78,0
12300,note_on,,0,0,10,,,,,,,,,,,,,,,,15,,56,48
12300,note_on,,0,0,10,,,,,,,,,,,,,,,,15,,68,48
12300,note_on,,1,0,10,,,,,,,,,,,,,,,,15,,52,48
12300,note_on,,1,0,9,,,,,,,,,,,,,,,,13,,52,48
12300,note_on,,0,0,10,,,,,,,,,,,,,,,,15,,71,48
12300,note_on,,1,0,6,,,,,,,,,,,,,,,,5,,68,64
12359,note_on,,59,0,9,,,,,,,,,,,,,,,,13,,52,0
12359,note_on,,59,0,6,,,,,,,,,,,,,,,,5,,68,0
12359,note_on,,0,0,10,,,,,,,,,,,,,,,,15,,56,0
12359,note_on,,59,0,10,,,,,,,,,,,,,,,,15,,52,0
12360,note_on,,1,0,9,,,,,,,,,,,,,,,,13,,54,48
12360,note_on,,0,0,10,,,,,,,,,,,,,,,,15,,57,48
12360,note_on,,1,0,10,,,,,,,,,,,,,,,,15,,54,48
12360,note_on,,1,0,6,,,,,,,,,,,,,,,,5,,66,64
12419,note_on,,0,0,10,,,,,,,,,,,,,,,,15,,57,0
12419,note_on,,59,0,10,,,,,,,,,,,,,,,,15,,54,0
12419,note_on,,59,0,6,,,,,,,,,,,,,,,,5,,66,0
12419,note_on,,59,0,9,,,,,,,,,,,,,,,,13,,54,0
12420,note_on,,0,0,10,,,,,,,,,,,,,,,,15,,59,48
12420,note_on,,1,0,10,,,,,,,,,,,,,,,,15,,56,48
12420,note_on,,1,0,6,,,,,,,,,,,,,,,,5,,64,64
12420,note_on,,1,0,9,,,,,,,,,,,,,,,,13,,56,48
12479,note_on,,0,0,10,,,,,,,,,,,,,,,,15,,59,0
12479,note_on,,0,0,10,,,,,,,,,,,,,,,,15,,56,0
12479,note_on,,0,0,10,,,,,,,,,,,,,,,,15,,68,0
12479,note_on,,59,0,10,,,,,,,,,,,,,,,,15,,71,0
12479,note_on,,59,0,9,,,,,,,,,,,,,,,,13,,56,0
12480,note_on,,1501,0,8,,,,,,,,,,,,,,,,11,,73,48
12480,note_on,,0,0,10,,,,,,,,,,,,,,,,15,,68,48
12480,note_on,,0,0,10,,,,,,,,,,,,,,,,15,,73,48
12480,note_on,,0,0,10,,,,,,,,,,,,,,,,15,,56,48
12480,note_on,,1,0,10,,,,,,,,,,,,,,,,15,,52,48
12480,note_on,,1501,0,5,,,,,,,,,,,,,,,,2,,52,48
12480,note_on,,1501,0,7,,,,,,,,,,,,,,,,10,,73,48
12480,note_on,,1,0,9,,,,,,,,,,,,,,,,13,,52,48
12539,note_on,,59,0,10,,,,,,,,,,,,,,,,15,,52,0
12539,note_on,,0,0,10,,,,,,,,,,,,,,,,15,,73,0
12539,note_on,,0,0,10,,,,,,,,,,,,,,,,15,,56,0
12539,note_on,,0,0,10,,,,,,,,,,,,,,,,15,,68,0
12539,note_on,,59,0,7,,,,,,,,,,,,,,,,10,,73,0
12539,note_on,,59,0,9,,,,,,,,,,,,,,,,13,,52,0
12539,note_on,,59,0,5,,,,,,,,,,,,,,,,2,,52,0
12539,note_on,,59,0,8,,,,,,,,,,,,,,,,11,,73,0
12539,note_on,,119,0,6,,,,,,,,,,,,,,,,5,,64,0
12540,note_on,,0,0,10,,,,,,,,,,,,,,,,15,,74,48
12540,note_on,,1,0,5,,,,,,,,,,,,,,,,2,,54,48
12540,note_on,,1,0,7,,,,,,,,,,,,,,,,10,,74,48
12540,note_on,,1,0,8,,,,,,,,,,,,,,,,11,,74,48
12540,note_on,,0,0,10,,,,,,,,,,,,,,,,15,,57,48
12540,note_on,,0,0,10,,,,,,,,,,,,,,,,15,,62,48
12540,note_on,,1,0,9,,,,,,,,,,,,,,,,13,,54,48
12540,note_on,,1,0,10,,,,,,,,,,,,,,,,15,,54,48
12599,note_on,,0,0,10,,,,,,,,,,,,,,,,15,,57,0
12599,note_on,,0,0,10,,,,,,,,,,,,,,,,15,,62,0
12599,note_on,,59,0,7,,,,,,,,,,,,,,,,10,,74,0
12599,note_on,,59,0,8,,,,,,,,,,,,,,,,11,,74,0
12599,note_on,,59,0,10,,,,,,,,,,,,,,,,15,,54,0
12599,note_on,,59,0,5,,,,,,,,,,,,,,,,2,,54,0
12599,note_on,,0,0,10,,,,,,,,,,,,,,,,15,,74,0
12599,note_on,,59,0,9,,,,,,,,,,,,,,,,13,,54,0
12600,note_on,,0,0,10,,,,,,,,,,,,,,,,15,,73,48
12600,note_on,,1,0,8,,,,,,,,,,,,,,,,11,,73,48
12600,note_on,,1,0,10,,,,,,,,,,,,,,,,15,,52,48
12600,note_on,,0,0,10,,,,,,,,,,,,,,,,15,,64,48
12600,note_on,,0,0,10,,,,,,,,,,,,,,,,15,,56,48
12600,note_on,,1,0,5,,,,,,,,,,,,,,,,2,,52,48
12600,note_on,,1,0,9,,,,,,,,,,,,,,,,13,,52,48
12600,note_on,,1,0,7,,,,,,,,,,,,,,,,10,,73,48
12659,note_on,,59,0,10,,,,,,,,,,,,,,,,15,,52,0
12659,note_on,,0,0,10,,,,,,,,,,,,,,,,15,,56,0
12659,note_on,,0,0,10,,,,,,,,,,,,,,,,15,,73,0
12659,note_on,,0,0,10,,,,,,,,,,,,,,,,15,,64,0
12659,note_on,,59,0,5,,,,,,,,,,,,,,,,2,,52,0
12659,note_on,,59,0,9,,,,,,,,,,,,,,,,13,,52,0
12659,note_on,,59,0,8,,,,,,,,,,,,,,,,11,,73,0
12659,note_on,,59,0,7,,,,,,,,,,,,,,,,10,,73,0
12660,note_on,,1,0,7,,,,,,,,,,,,,,,,10,,74,48
12660,note_on,,1,0,10,,,,,,,,,,,,,,,,15,,54,48
12660,note_on,,0,0,10,,,,,,,,,,,,,,,,15,,57,48
12660,note_on,,0,0,10,,,,,,,,,,,,,,,,15,,74,48
12660,note_on,,0,0,10,,,,,,,,,,,,,,,,15,,69,48
12660,note_on,,1,0,5,,,,,,,,,,,,,,,,2,,54,48
12660,note_on,,1,0,8,,,,,,,,,,,,,,,,11,,74,48
12660,note_on,,1,0,9,,,,,,,,,,,,,,,,13,,54,48
12719,note_on,,0,0,10,,,,,,,,,,,,,,,,15,,69,0
12719,note_on,,0,0,10,,,,,,,,,,,,,,,,15,,57,0
12719,note_on,,59,0,10,,,,,,,,,,,,,,,,15,,54,0
12719,note_on,,59,0,8,,,,,,,,,,,,,,,,11,,74,0
12719,note_on,,59,0,9,,,,,,,,,,,,,,,,13,,54,0
12719,note_on,,59,0,5,,,,,,,,,,,,,,,,2,,54,0
12719,note_on,,59,0,7,,,,,,,,,,,,,,,,10,,74,0
12720,note_on,,1,0,8,,,,,,,,,,,,,,,,11,,71,48
12720,note_on,,1,0,9,,,,,,,,,,,,,,,,13,,56,48
12720,note_on,,0,0,10,,,,,,,,,,,,,,,,15,,64,48
12720,note_on,,0,0,10,,,,,,,,,,,,,,,,15,,71,48
12720,note_on,,1,0,7,,,,,,,,,,,,,,,,10,,71,48
12720,note_on,,1,0,5,,,,,,,,,,,,,,,,2,,56,48
12720,note_on,,1,0,10,,,,,,,,,,,,,,,,15,,56,48
12779,note_on,,59,0,10,,,,,,,,,,,,,,,,15,,74,0
12779,note_on,,0,0,10,,,,,,,,,,,,,,,,15,,56,0
12779,note_on,,0,0,10,,,,,,,,,,,,,,,,15,,64,0
12779,note_on,,0,0,10,,,,,,,,,,,,,,,,15,,71,0
12779,note_on,,59,0,9,,,,,,,,,,,,,,,,13,,56,0
12779,note_on,,59,0,7,,,,,,,,,,,,,,,,10,,71,0
12779,note_on,,59,0,5,,,,,,,,,,,,,,,,2,,56,0
12779,note_on,,59,0,8,,,,,,,,,,,,,,,,11,,71,0
12780,note_on,,1,0,5,,,,,,,,,,,,,,,,2,,57,48
12780,note_on,,1,0,9,,,,,,,,,,,,,,,,13,,57,48
12780,note_on,,1,0,10,,,,,,,,,,,,,,,,15,,57,48
12780,note_on,,0,0,10,,,,,,,,,,,,,,,,15,,69,48
12780,note_on,,0,0,10,,,,,,,,,,,,,,,,15,,64,48
12780,note_on,,1,0,7,,,,,,,,,,,,,,,,10,,73,48
12780,note_on,,1,0,8,,,,,,,,,,,,,,,,11,,73,48
12780,note_on,,0,0,10,,,,,,,,,,,,,,,,15,,73,48
12839,note_on,,0,0,10,,,,,,,,,,,,,,,,15,,73,0
12839,note_on,,59,0,5,,,,,,,,,,,,,,,,2,,57,0
12839,note_on,,59,0,8,,,,,,,,,,,,,,,,11,,73,0
12839,note_on,,59,0,7,,,,,,,,,,,,,,,,10,,73,0
12839,note_on,,59,0,10,,,,,,,,,,,,,,,,15,,57,0
12839,note_on,,59,0,9,,,,,,,,,,,,,,,,13,,57,0
12840,note_on,,1,0,5,,,,,,,,,,,,,,,,2,,56,48
12840,note_on,,1,0,9,,,,,,,,,,,,,,,,13,,56,48
12840,note_on,,1,0,8,,,,,,,,,,,,,,,,11,,71,48
12840,note_on,,0,0,10,,,,,,,,,,,,,,,,15,,71,48
12840,note_on,,1,0,7,,,,,,,,,,,,,,,,10,,71,48
12840,note_on,,1,0,10,,,,,,,,,,,,,,,,15,,56,48
12899,note_on,,59,0,5,,,,,,,,,,,,,,,,2,,56,0
12899,note_on,,59,0,10,,,,,,,,,,,,,,,,15,,56,0
12899,note_on,,0,0,10,,,,,,,,,,,,,,,,15,,71,0
12899,note_on,,59,0,8,,,,,,,,,,,,,,,,11,,71,0
12899,note_on,,59,0,7,,,,,,,,,,,,,,,,10,,71,0
12899,note_on,,59,0,9,,,,,,,,,,,,,,,,13,,56,0
12900,note_on,,1,0,7,,,,,,,,,,,,,,,,10,,73,48
12900,note_on,,1,0,5,,,,,,,,,,,,,,,,2,,57,48
12900,note_on,,1,0,9,,,,,,,,,,,,,,,,13,,57,48
12900,note_on,,0,0,10,,,,,,,,,,,,,,,,15,,73,48
12900,note_on,,1,0,10,,,,,,,,,,,,,,,,15,,57,48
12900,note_on,,1,0,8,,,,,,,,,,,,,,,,11,,73,48
12959,note_on,,0,0,10,,,,,,,,,,,,,,,,15,,57,0
12959,note_on,,0,0,10,,,,,,,,,,,,,,,,15,,64,0
12959,note_on,,59,0,10,,,,,,,,,,,,,,,,15,,69,0
12959,note_on,,0,0,10,,,,,,,,,,,,,,,,15,,73,0
12959,note_on,,59,0,7,,,,,,,,,,,,,,,,10,,73,0
12959,note_on,,59,0,9,,,,,,,,,,,,,,,,13,,57,0
12959,note_on,,59,0,5,,,,,,,,,,,,,,,,2,,57,0
12959,note_on,,59,0,8,,,,,,,,,,,,,,,,11,,73,0
12960,note_on,,1,0,8,,,,,,,,,,,,,,,,11,,64,48
12960,note_on,,421,0,6,,,,,,,,,,,,,,,,5,,69,64
12960,note_on,,1,0,5,,,,,,,,,,,,,,,,2,,61,48
12960,note_on,,1,0,9,,,,,,,,,,,,,,,,13,,61,48
12960,note_on,,0,0,10,,,,,,,,,,,,,,,,15,,64,48
12960,note_on,,0,0,10,,,,,,,,,,,,,,,,15,,69,48
12960,note_on,,1,0,10,,,,,,,,,,,,,,,,15,,61,48
12960,note_on,,1,0,7,,,,,,,,,,,,,,,,10,,64,48
13019,note_on,,59,0,6,,,,,,,,,,,,,,,,5,,69,0
13019,note_on,,59,0,8,,,,,,,,,,,,,,,,11,,64,0
13019,note_on,,59,0,9,,,,,,,,,,,,,,,,13,,61,0
13019,note_on,,59,0,7,,,,,,,,,,,,,,,,10,,64,0
13019,note_on,,59,0,5,,,,,,,,,,,,,,,,2,,61,0
13019,note_on,,0,0,10,,,,,,,,,,,,,,,,15,,64,0
13019,note_on,,0,0,10,,,,,,,,,,,,,,,,15,,69,0
13019,note_on,,59,0,10,,,,,,,,,,,,,,,,15,,61,0
13020,note_on,,1,0,6,,,,,,,,,,,,,,,,5,,69,64
13080,note_on,,0,0,10,,,,,,,,,,,,,,,,15,,57,48
13080,note_on,,0,0,10,,,,,,,,,,,,,,,,15,,64,48
13080,note_on,,61,0,10,,,,,,,,,,,,,,,,15,,49,48
13080,note_on,,61,0,9,,,,,,,,,,,,,,,,13,,49,48
13139,note_on,,0,0,10,,,,,,,,,,,,,,,,15,,64,0
13139,note_on,,0,0,10,,,,,,,,,,,,,,,,15,,57,0
13139,note_on,,119,0,6,,,,,,,,,,,,,,,,5,,69,0
13139,note_on,,59,0,9,,,,,,,,,,,,,,,,13,,49,0
13139,note_on,,59,0,10,,,,,,,,,,,,,,,,15,,49,0
13140,note_on,,1,0,6,,,,,,,,,,,,,,,,5,,68,64
13140,note_on,,0,0,10,,,,,,,,,,,,,,,,15,,59,48
13140,note_on,,1,0,10,,,,,,,,,,,,,,,,15,,47,48
13140,note_on,,0,0,10,,,,,,,,,,,,,,,,15,,68,48
13140,note_on,,0,0,10,,,,,,,,,,,,,,,,15,,62,48
13140,note_on,,1,0,9,,,,,,,,,,,,,,,,13,,47,48
13199,note_on,,59,0,9,,,,,,,,,,,,,,,,13,,47,0
13199,note_on,,59,0,6,,,,,,,,,,,,,,,,5,,68,0
13200,note_on,,1,0,9,,,,,,,,,,,,,,,,13,,40,48
13200,note_on,,1,0,6,,,,,,,,,,,,,,,,5,,71,64
13200,note_on,,60,0,10,,,,,,,,,,,,,,,,15,,40,48
13259,note_on,,59,0,9,,,,,,,,,,,,,,,,13,,40,0
13259,note_on,,0,0,10,,,,,,,,,,,,,,,,15,,59,0
13259,note_on,,59,0,10,,,,,,,,,,,,,,,,15,,47,0
13259,note_on,,0,0,10,,,,,,,,,,,,,,,,15,,62,0
13259,note_on,,59,0,6,,,,,,,,,,,,,,,,5,,71,0
13259,note_on,,0,0,10,,,,,,,,,,,,,,,,15,,40,0
13259,note_on,,0,0,10,,,,,,,,,,,,,,,,15,,68,0
13260,note_on,,1,0,6,,,,,,,,,,,,,,,,5,,71,64
13319,note_on,,59,0,6,,,,,,,,,,,,,,,,5,,71,0
13320,note_on,,61,0,10,,,,,,,,,,,,,,,,15,,50,48
13320,note_on,,1,0,6,,,,,,,,,,,,,,,,5,,69,64
13320,note_on,,0,0,10,,,,,,,,,,,,,,,,15,,59,48
13320,note_on,,0,0,10,,,,,,,,,,,,,,,,15,,66,48
13320,note_on,,61,0,9,,,,,,,,,,,,,,,,13,,50,48
13379,note_on,,59,0,10,,,,,,,,,,,,,,,,15,,50,0
13379,note_on,,0,0,10,,,,,,,,,,,,,,,,15,,66,0
13379,note_on,,59,0,6,,,,,,,,,,,,,,,,5,,69,0
13379,note_on,,59,0,9,,,,,,,,,,,,,,,,13,,50,0
13379,note_on,,0,0,10,,,,,,,,,,,,,,,,15,,59,0
13380,note_on,,1,0,9,,,,,,,,,,,,,,,,13,,49,48
13380,note_on,,1,0,6,,,,,,,,,,,,,,,,5,,69,64
13380,note_on,,1,0,10,,,,,,,,,,,,,,,,15,,49,48
13380,note_on,,0,0,10,,,,,,,,,,,,,,,,15,,64,48
13380,note_on,,0,0,10,,,,,,,,,,,,,,,,15,,61,48
13439,note_on,,59,0,9,,,,,,,,,,,,,,,,13,,49,0
13439,note_on,,59,0,6,,,,,,,,,,,,,,,,5,,69,0
13439,note_on,,59,0,10,,,,,,,,,,,,,,,,15,,64,0
13440,note_on,,0,0,10,,,,,,,,,,,,,,,,15,,61,48
13440,note_on,,1,0,6,,,,,,,,,,,,,,,,5,,73,64
13440,note_on,,1,0,10,,,,,,,,,,,,,,,,15,,40,48
13440,note_on,,1,0,9,,,,,,,,,,,,,,,,13,,40,48
13499,note_on,,59,0,6,,,,,,,,,,,,,,,,5,,73,0
13499,note_on,,0,0,10,,,,,,,,,,,,,,,,15,,40,0
13499,note_on,,0,0,10,,,,,,,,,,,,,,,,15,,61,0
13499,note_on,,0,0,10,,,,,,,,,,,,,,,,15,,61,0
13499,note_on,,59,0,9,,,,,,,,,,,,,,,,13,,40,0
13499,note_on,,59,0,10,,,,,,,,,,,,,,,,15,,49,0
13500,note_on,,1,0,6,,,,,,,,,,,,,,,,5,,73,64
13560,note_on,,61,0,10,,,,,,,,,,,,,,,,15,,52,48
13560,note_on,,61,0,9,,,,,,,,,,,,,,,,13,,52,48
13560,note_on,,0,0,10,,,,,,,,,,,,,,,,15,,64,48
13560,note_on,,0,0,10,,,,,,,,,,,,,,,,15,,61,48
13619,note_on,,59,0,10,,,,,,,,,,,,,,,,15,,52,0
13619,note_on,,0,0,10,,,,,,,,,,,,,,,,15,,64,0
13619,note_on,,59,0,9,,,,,,,,,,,,,,,,13,,52,0
13619,note_on,,0,0,10,,,,,,,,,,,,,,,,15,,61,0
13619,note_on,,119,0,6,,,,,,,,,,,,,,,,5,,73,0
13620,note_on,,0,0,10,,,,,,,,,,,,,,,,15,,64,48
13620,note_on,,1,0,6,,,,,,,,,,,,,,,,5,,71,64
13620,note_on,,0,0,10,,,,,,,,,,,,,,,,15,,59,48
13620,note_on,,0,0,10,,,,,,,,,,,,,,,,15,,71,48
13620,note_on,,1,0,10,,,,,,,,,,,,,,,,15,,50,48
13620,note_on,,1,0,9,,,,,,,,,,,,,,,,13,,50,48
13679,note_on,,0,0,10,,,,,,,,,,,,,,,,15,,59,0
13679,note_on,,0,0,10,,,,,,,,,,,,,,,,15,,71,0
13679,note_on,,59,0,10,,,,,,,,,,,,,,,,15,,50,0
13679,note_on,,59,0,6,,,,,,,,,,,,,,,,5,,71,0
13679,note_on,,59,0,9,,,,,,,,,,,,,,,,13,,50,0
13680,note_on,,0,0,10,,,,,,,,,,,,,,,,15,,73,48
13680,note_on,,1,0,10,,,,,,,,,,,,,,,,15,,49,48
13680,note_on,,1,0,6,,,,,,,,,,,,,,,,5,,73,64
13680,note_on,,1,0,9,,,,,,,,,,,,,,,,13,,49,48
13680,note_on,,0,0,10,,,,,,,,,,,,,,,,15,,57,48
13739,note_on,,59,0,6,,,,,,,,,,,,,,,,5,,73,0
13739,note_on,,59,0,9,,,,,,,,,,,,,,,,13,,49,0
13739,note_on,,59,0,10,,,,,,,,,,,,,,,,15,,64,0
13739,note_on,,0,0,10,,,,,,,,,,,,,,,,15,,49,0
13739,note_on,,0,0,10,,,,,,,,,,,,,,,,15,,73,0
13739,note_on,,0,0,10,,,,,,,,,,,,,,,,15,,57,0
13740,note_on,,1,0,10,,,,,,,,,,,,,,,,15,,47,48
13740,note_on,,1,0,9,,,,,,,,,,,,,,,,13,,47,48
13740,note_on,,1,0,6,,,,,,,,,,,,,,,,5,,74,64
13740,note_on,,0,0,10,,,,,,,,,,,,,,,,15,,62,48
13740,note_on,,0,0,10,,,,,,,,,,,,,,,,15,,71,48
13740,note_on,,0,0,10,,,,,,,,,,,,,,,,15,,68,48
13799,note_on,,0,0,10,,,,,,,,,,,,,,,,15,,68,0
13799,note_on,,0,0,10,,,,,,,,,,,,,,,,15,,71,0
13799,note_on,,59,0,10,,,,,,,,,,,,,,,,15,,47,0
13799,note_on,,59,0,6,,,,,,,,,,,,,,,,5,,74,0
13799,note_on,,59,0,9,,,,,,,,,,,,,,,,13,,47,0
13800,note_on,,1,0,9,,,,,,,,,,,,,,,,13,,56,48
13800,note_on,,1,0,6,,,,,,,,,,,,,,,,5,,71,64
13800,note_on,,1,0,10,,,,,,,,,,,,,,,,15,,56,48
13800,note_on,,0,0,10,,,,,,,,,,,,,,,,15,,71,48
13800,note_on,,0,0,10,,,,,,,,,,,,,,,,15,,74,48
13859,note_on,,59,0,10,,,,,,,,,,,,,,,,15,,62,0
13859,note_on,,0,0,10,,,,,,,,,,,,,,,,15,,74,0
13859,note_on,,0,0,10,,,,,,,,,,,,,,,,15,,71,0
13859,note_on,,0,0,10,,,,,,,,,,,,,,,,15,,56,0
13859,note_on,,59,0,9,,,,,,,,,,,,,,,,13,,56,0
13859,note_on,,59,0,6,,,,,,,,,,,,,,,,5,,71,0
13860,note_on,,1,0,6,,,,,,,,,,,,,,,,5,,73,64
13860,note_on,,0,0,10,,,,,,,,,,,,,,,,15,,69,48
13860,note_on,,0,0,10,,,,,,,,,,,,,,,,15,,64,48
13860,note_on,,1,0,10,,,,,,,,,,,,,,,,15,,57,48
13860,note_on,,1,0,9,,,,,,,,,,,,,,,,13,,57,48
13860,note_on,,0,0,10,,,,,,,,,,,,,,,,15,,73,48
13919,note_on,,59,0,6,,,,,,,,,,,,,,,,5,,73,0
13919,note_on,,59,0,10,,,,,,,,,,,,,,,,15,,57,0
13919,note_on,,59,0,9,,,,,,,,,,,,,,,,13,,57,0
13920,note_on,,1,0,6,,,,,,,,,,,,,,,,5,,76,64
13920,note_on,,1,0,10,,,,,,,,,,,,,,,,15,,49,48
13920,note_on,,1,0,9,,,,,,,,,,,,,,,,13,,49,48
13979,note_on,,59,0,6,,,,,,,,,,,,,,,,5,,76,0
13979,note_on,,0,0,10,,,,,,,,,,,,,,,,15,,73,0
13979,note_on,,59,0,9,,,,,,,,,,,,,,,,13,,49,0
13979,note_on,,59,0,10,,,,,,,,,,,,,,,,15,,64,0
13979,note_on,,0,0,10,,,,,,,,,,,,,,,,15,,69,0
13979,note_on,,0,0,10,,,,,,,,,,,,,,,,15,,49,0
13980,note_on,,1,0,9,,,,,,,,,,,,,,,,13,,50,48
13980,note_on,,1,0,6,,,,,,,,,,,,,,,,5,,66,64
13980,note_on,,1,0,10,,,,,,,,,,,,,,,,15,,50,48
13980,note_on,,0,0,10,,,,,,,,,,,,,,,,15,,62,48
13980,note_on,,0,0,10,,,,,,,,,,,,,,,,15,,66,48
13980,note_on,,0,0,10,,,,,,,,,,,,,,,,15,,71,48
14039,note_on,,59,0,10,,,,,,,,,,,,,,,,15,,50,0
14039,note_on,,59,0,9,,,,,,,,,,,,,,,,13,,50,0
14039,note_on,,0,0,10,,,,,,,,,,,,,,,,15,,66,0
14039,note_on,,0,0,10,,,,,,,,,,,,,,,,15,,62,0
14039,note_on,,59,0,6,,,,,,,,,,,,,,,,5,,66,0
14040,note_on,,1,0,6,,,,,,,,,,,,,,,,5,,68,64
14040,note_on,,0,0,10,,,,,,,,,,,,,,,,15,,62,48
14040,note_on,,0,0,10,,,,,,,,,,,,,,,,15,,50,48
14040,note_on,,1,0,10,,,,,,,,,,,,,,,,15,,47,48
14040,note_on,,1,0,9,,,,,,,,,,,,,,,,13,,47,48
14099,note_on,,0,0,10,,,,,,,,,,,,,,,,15,,50,0
14099,note_on,,0,0,10,,,,,,,,,,,,,,,,15,,62,0
14099,note_on,,0,0,10,,,,,,,,,,,,,,,,15,,47,0
14099,note_on,,59,0,10,,,,,,,,,,,,,,,,15,,71,0
14099,note_on,,59,0,6,,,,,,,,,,,,,,,,5,,68,0
14099,note_on,,59,0,9,,,,,,,,,,,,,,,,13,,47,0
14100,note_on,,1,0,6,,,,,,,,,,,,,,,,5,,69,64
14100,note_on,,0,0,10,,,,,,,,,,,,,,,,15,,52,48
14100,note_on,,0,0,10,,,,,,,,,,,,,,,,15,,61,48
14100,note_on,,1,0,10,,,,,,,,,,,,,,,,15,,49,48
14100,note_on,,0,0,10,,,,,,,,,,,,,,,,15,,69,48
14100,note_on,,1,0,9,,,,,,,,,,,,,,,,13,,49,48
14159,note_on,,0,0,10,,,,,,,,,,,,,,,,15,,61,0
14159,note_on,,59,0,6,,,,,,,,,,,,,,,,5,,69,0
14159,note_on,,0,0,10,,,,,,,,,,,,,,,,15,,52,0
14159,note_on,,59,0,9,,,,,,,,,,,,,,,,13,,49,0
14159,note_on,,59,0,10,,,,,,,,,,,,,,,,15,,49,0
14160,note_on,,1,0,9,,,,,,,,,,,,,,,,13,,50,48
14160,note_on,,1,0,6,,,,,,,,,,,,,,,,5,,71,64
14160,note_on,,0,0,10,,,,,,,,,,,,,,,,15,,54,48
14160,note_on,,0,0,10,,,,,,,,,,,,,,,,15,,66,48
14160,note_on,,1,0,10,,,,,,,,,,,,,,,,15,,50,48
14219,note_on,,59,0,6,,,,,,,,,,,,,,,,5,,71,0
14219,note_on,,0,0,10,,,,,,,,,,,,,,,,15,,50,0
14219,note_on,,0,0,10,,,,,,,,,,,,,,,,15,,66,0
14219,note_on,,0,0,10,,,,,,,,,,,,,,,,15,,54,0
14219,note_on,,59,0,9,,,,,,,,,,,,,,,,13,,50,0
14219,note_on,,59,0,10,,,,,,,,,,,,,,,,15,,69,0
14220,note_on,,1,0,10,,,,,,,,,,,,,,,,15,,52,48
14220,note_on,,0,0,10,,,,,,,,,,,,,,,,15,,68,48
14220,note_on,,0,0,10,,,,,,,,,,,,,,,,15,,59,48
14220,note_on,,1,0,6,,,,,,,,,,,,,,,,5,,64,64
14220,note_on,,1,0,9,,,,,,,,,,,,,,,,13,,52,48
14279,note_on,,59,0,9,,,,,,,,,,,,,,,,13,,52,0
14279,note_on,,0,0,10,,,,,,,,,,,,,,,,15,,68,0
14279,note_on,,0,0,10,,,,,,,,,,,,,,,,15,,59,0
14279,note_on,,59,0,10,,,,,,,,,,,,,,,,15,,52,0
14280,note_on,,0,0,10,,,,,,,,,,,,,,,,15,,57,48
14280,note_on,,1,0,10,,,,,,,,,,,,,,,,15,,49,48
14280,note_on,,1,0,9,,,,,,,,,,,,,,,,13,,49,48
14280,note_on,,0,0,10,,,,,,,,,,,,,,,,15,,64,48
14280,note_on,,0,0,10,,,,,,,,,,,,,,,,15,,69,48
14339,note_on,,59,0,10,,,,,,,,,,,,,,,,15,,49,0
14339,note_on,,59,0,9,,,,,,,,,,,,,,,,13,,49,0
14339,note_on,,0,0,10,,,,,,,,,,,,,,,,15,,64,0
14339,note_on,,119,0,6,,,,,,,,,,,,,,,,5,,64,0
14340,note_on,,0,0,10,,,,,,,,,,,,,,,,15,,62,48
14340,note_on,,1,0,9,,,,,,,,,,,,,,,,13,,54,48
14340,note_on,,1,0,10,,,,,,,,,,,,,,,,15,,54,48
14399,note_on,,59,0,10,,,,,,,,,,,,,,,,15,,69,0
14399,note_on,,0,0,10,,,,,,,,,,,,,,,,15,,57,0
14399,note_on,,0,0,10,,,,,,,,,,,,,,,,15,,54,0
14399,note_on,,0,0,10,,,,,,,,,,,,,,,,15,,62,0
14399,note_on,,59,0,9,,,,,,,,,,,,,,,,13,,54,0
14400,note_on,,1,0,10,,,,,,,,,,,,,,,,15,,56,48
14400,note_on,,0,0,10,,,,,,,,,,,,,,,,15,,59,48
14400,note_on,,0,0,10,,,,,,,,,,,,,,,,15,,64,48
14400,note_on,,61,0,6,,,,,,,,,,,,,,,,5,,74,64
14400,note_on,,1,0,9,,,,,,,,,,,,,,,,13,,56,48
14459,note_on,,59,0,9,,,,,,,,,,,,,,,,13,,56,0
14459,note_on,,0,0,10,,,,,,,,,,,,,,,,15,,59,0
14459,note_on,,59,0,6,,,,,,,,,,,,,,,,5,,74,0
14459,note_on,,59,0,10,,,,,,,,,,,,,,,,15,,56,0
14460,note_on,,1,0,6,,,,,,,,,,,,,,,,5,,73,64
14460,note_on,,0,0,10,,,,,,,,,,,,,,,,15,,61,48
14460,note_on,,1,0,9,,,,,,,,,,,,,,,,13,,57,48
14460,note_on,,1,0,10,,,,,,,,,,,,,,,,15,,57,48
14519,note_on,,0,0,10,,,,,,,,,,,,,,,,15,,61,0
14519,note_on,,59,0,10,,,,,,,,,,,,,,,,15,,64,0
14519,note_on,,59,0,9,,,,,,,,,,,,,,,,13,,57,0
14519,note_on,,0,0,10,,,,,,,,,,,,,,,,15,,57,0
14520,note_on,,0,0,10,,,,,,,,,,,,,,,,15,,66,48
14520,note_on,,1,0,10,,,,,,,,,,,,,,,,15,,50,48
14520,note_on,,1,0,9,,,,,,,,,,,,,,,,13,,50,48
14520,note_on,,0,0,10,,,,,,,,,,,,,,,,15,,62,48
14579,note_on,,0,0,10,,,,,,,,,,,,,,,,15,,66,0
14579,note_on,,59,0,10,,,,,,,,,,,,,,,,15,,50,0
14579,note_on,,0,0,10,,,,,,,,,,,,,,,,15,,62,0
14579,note_on,,119,0,6,,,,,,,,,,,,,,,,5,,73,0
14579,note_on,,59,0,9,,,,,,,,,,,,,,,,13,,50,0
14580,note_on,,1,0,10,,,,,,,,,,,,,,,,15,,59,48
14580,note_on,,0,0,10,,,,,,,,,,,,,,,,15,,52,48
14580,note_on,,0,0,10,,,,,,,,,,,,,,,,15,,68,48
14580,note_on,,1,0,6,,,,,,,,,,,,,,,,5,,71,64
14580,note_on,,1,0,9,,,,,,,,,,,,,,,,13,,52,48
14639,note_on,,59,0,9,,,,,,,,,,,,,,,,13,,52,0
14639,note_on,,59,0,6,,,,,,,,,,,,,,,,5,,71,0
14639,note_on,,59,0,10,,,,,,,,,,,,,,,,15,,59,0
14639,note_on,,0,0,10,,,,,,,,,,,,,,,,15,,52,0
14640,note_on,,1,0,9,,,,,,,,,,,,,,,,13,,40,48
14640,note_on,,1,0,6,,,,,,,,,,,,,,,,5,,69,64
14640,note_on,,1,0,10,,,,,,,,,,,,,,,,15,,40,48
14640,note_on,,0,0,10,,,,,,,,,,,,,,,,15,,64,48
14699,note_on,,59,0,10,,,,,,,,,,,,,,,,15,,68,0
14699,note_on,,0,0,10,,,,,,,,,,,,,,,,15,,40,0
14699,note_on,,0,0,10,,,,,,,,,,,,,,,,15,,64,0
14699,note_on,,59,0,9,,,,,,,,,,,,,,,,13,,40,0
14699,note_on,,59,0,6,,,,,,,,,,,,,,,,5,,69,0
14700,note_on,,0,0,10,,,,,,,,,,,,,,,,15,,69,48
14700,note_on,,0,0,10,,,,,,,,,,,,,,,,15,,61,48
14700,note_on,,1,0,9,,,,,,,,,,,,,,,,13,,45,48
14700,note_on,,1,0,6,,,,,,,,,,,,,,,,5,,69,64
14700,note_on,,1,0,10,,,,,,,,,,,,,,,,15,,45,48
14759,note_on,,59,0,9,,,,,,,,,,,,,,,,13,,45,0
14759,note_on,,59,0,10,,,,,,,,,,,,,,,,15,,45,0
14759,note_on,,0,0,10,,,,,,,,,,,,,,,,15,,61,0
14760,note_on,,1,0,9,,,,,,,,,,,,,,,,13,,47,48
14760,note_on,,1,0,10,,,,,,,,,,,,,,,,15,,47,48
14760,note_on,,0,0,10,,,,,,,,,,,,,,,,15,,62,48
14819,note_on,,0,0,10,,,,,,,,,,,,,,,,15,,62,0
14819,note_on,,59,0,9,,,,,,,,,,,,,,,,13,,47,0
14819,note_on,,119,0,6,,,,,,,,,,,,,,,,5,,69,0
14819,note_on,,59,0,10,,,,,,,,,,,,,,,,15,,47,0
14820,note_on,,1,0,9,,,,,,,,,,,,,,,,13,,49,48
14820,note_on,,0,0,10,,,,,,,,,,,,,,,,15,,64,48
14820,note_on,,1,0,10,,,,,,,,,,,,,,,,15,,49,48
14820,note_on,,1,0,6,,,,,,,,,,,,,,,,5,,69,64
14879,note_on,,59,0,10,,,,,,,,,,,,,,,,15,,49,0
14879,note_on,,0,0,10,,,,,,,,,,,,,,,,15,,64,0
14879,note_on,,59,0,9,,,,,,,,,,,,,,,,13,,49,0
14880,note_on,,1,0,10,,,,,,,,,,,,,,,,15,,45,48
14880,note_on,,0,0,10,,,,,,,,,,,,,,,,15,,61,48
14880,note_on,,1861,0,7,,,,,,,,,,,,,,,,10,,69,48
14880,note_on,,1,0,9,,,,,,,,,,,,,,,,13,,45,48
14880,note_on,,1861,0,8,,,,,,,,,,,,,,,,11,,69,48
14939,note_on,,119,0,6,,,,,,,,,,,,,,,,5,,69,0
14939,note_on,,59,0,7,,,,,,,,,,,,,,,,10,,69,0
14939,note_on,,59,0,9,,,,,,,,,,,,,,,,13,,45,0
14939,note_on,,59,0,8,,,,,,,,,,,,,,,,11,,69,0
14939,note_on,,0,0,10,,,,,,,,,,,,,,,,15,,61,0
14939,note_on,,0,0,10,,,,,,,,,,,,,,,,15,,45,0
14939,note_on,,59,0,10,,,,,,,,,,,,,,,,15,,69,0
14940,note_on,,1,0,8,,,,,,,,,,,,,,,,11,,69,48
14940,note_on,,1,0,7,,,,,,,,,,,,,,,,10,,69,48
15000,note_on,,61,0,9,,,,,,,,,,,,,,,,13,,61,48
15000,note_on,,0,0,10,,,,,,,,,,,,,,,,15,,64,48
15000,note_on,,0,0,10,,,,,,,,,,,,,,,,15,,69,48
15000,note_on,,61,0,10,,,,,,,,,,,,,,,,15,,61,48
15059,note_on,,119,0,8,,,,,,,,,,,,,,,,11,,69,0
15059,note_on,,119,0,7,,,,,,,,,,,,,,,,10,,69,0
15059,note_on,,59,0,10,,,,,,,,,,,,,,,,15,,61,0
15059,note_on,,59,0,9,,,,,,,,,,,,,,,,13,,61,0
15059,note_on,,0,0,10,,,,,,,,,,,,,,,,15,,69,0
15059,note_on,,0,0,10,,,,,,,,,,,,,,,,15,,64,0
15060,note_on,,0,0,10,,,,,,,,,,,,,,,,15,,68,48
15060,note_on,,1,0,10,,,,,,,,,,,,,,,,15,,59,48
15060,note_on,,1,0,9,,,,,,,,,,,,,,,,13,,59,48
15060,note_on,,1,0,8,,,,,,,,,,,,,,,,11,,68,48
15060,note_on,,0,0,10,,,,,,,,,,,,,,,,15,,62,48
15060,note_on,,0,0,10,,,,,,,,,,,,,,,,15,,71,48
15060,note_on,,1,0,7,,,,,,,,,,,,,,,,10,,68,48
15074,note_on,,14,0,8,,,,,,,,,,,,,,,,11,,68,0
15074,note_on,,14,0,7,,,,,,,,,,,,,,,,10,,68,0
15075,note_on,,1,0,8,,,,,,,,,,,,,,,,11,,69,48
15075,note_on,,1,0,7,,,,,,,,,,,,,,,,10,,69,48
15089,note_on,,14,0,8,,,,,,,,,,,,,,,,11,,69,0
15089,note_on,,14,0,7,,,,,,,,,,,,,,,,10,,69,0
15090,note_on,,1,0,7,,,,,,,,,,,,,,,,10,,66,48
15090,note_on,,1,0,8,,,,,,,,,,,,,,,,11,,66,48
15104,note_on,,14,0,7,,,,,,,,,,,,,,,,10,,66,0
15104,note_on,,14,0,8,,,,,,,,,,,,,,,,11,,66,0
15105,note_on,,1,0,8,,,,,,,,,,,,,,,,11,,68,48
15105,note_on,,1,0,7,,,,,,,,,,,,,,,,10,,68,48
15119,note_on,,14,0,7,,,,,,,,,,,,,,,,10,,68,0
15119,note_on,,14,0,8,,,,,,,,,,,,,,,,11,,68,0
15119,note_on,,59,0,9,,,,,,,,,,,,,,,,13,,59,0
15120,note_on,,60,0,10,,,,,,,,,,,,,,,,15,,52,48
15120,note_on,,1,0,7,,,,,,,,,,,,,,,,10,,71,48
15120,note_on,,1,0,8,,,,,,,,,,,,,,,,11,,71,48
15120,note_on,,1,0,9,,,,,,,,,,,,,,,,13,,52,48
15179,note_on,,59,0,8,,,,,,,,,,,,,,,,11,,71,0
15179,note_on,,59,0,10,,,,,,,,,,,,,,,,15,,59,0
15179,note_on,,59,0,7,,,,,,,,,,,,,,,,10,,71,0
15179,note_on,,0,0,10,,,,,,,,,,,,,,,,15,,71,0
15179,note_on,,0,0,10,,,,,,,,,,,,,,,,15,,68,0
15179,note_on,,0,0,10,,,,,,,,,,,,,,,,15,,62,0
15179,note_on,,59,0,9,,,,,,,,,,,,,,,,13,,52,0
15179,note_on,,0,0,10,,,,,,,,,,,,,,,,15,,52,0
15180,note_on,,1,0,8,,,,,,,,,,,,,,,,11,,71,48
15180,note_on,,1,0,7,,,,,,,,,,,,,,,,10,,71,48
15240,note_on,,61,0,10,,,,,,,,,,,,,,,,15,,62,48
15240,note_on,,0,0,10,,,,,,,,,,,,,,,,15,,71,48
15240,note_on,,0,0,10,,,,,,,,,,,,,,,,15,,68,48
15240,note_on,,61,0,9,,,,,,,,,,,,,,,,13,,62,48
15240,note_on,,0,0,10,,,,,,,,,,,,,,,,15,,64,48
15299,note_on,,59,0,10,,,,,,,,,,,,,,,,15,,62,0
15299,note_on,,0,0,10,,,,,,,,,,,,,,,,15,,71,0
15299,note_on,,0,0,10,,,,,,,,,,,,,,,,15,,68,0
15299,note_on,,59,0,9,,,,,,,,,,,,,,,,13,,62,0
15299,note_on,,119,0,8,,,,,,,,,,,,,,,,11,,71,0
15299,note_on,,119,0,7,,,,,,,,,,,,,,,,10,,71,0
15300,note_on,,0,0,10,,,,,,,,,,,,,,,,15,,69,48
15300,note_on,,1,0,8,,,,,,,,,,,,,,,,11,,69,48
15300,note_on,,1,0,7,,,,,,,,,,,,,,,,10,,69,48
15300,note_on,,1,0,9,,,,,,,,,,,,,,,,13,,61,48
15300,note_on,,1,0,10,,,,,,,,,,,,,,,,15,,61,48
15300,note_on,,0,0,10,,,,,,,,,,,,,,,,15,,73,48
15314,note_on,,14,0,7,,,,,,,,,,,,,,,,10,,69,0
15314,note_on,,14,0,8,,,,,,,,,,,,,,,,11,,69,0
15315,note_on,,1,0,7,,,,,,,,,,,,,,,,10,,71,48
15315,note_on,,1,0,8,,,,,,,,,,,,,,,,11,,71,48
15329,note_on,,14,0,7,,,,,,,,,,,,,,,,10,,71,0
15329,note_on,,14,0,8,,,,,,,,,,,,,,,,11,,71,0
15330,note_on,,1,0,7,,,,,,,,,,,,,,,,10,,68,48
15330,note_on,,1,0,8,,,,,,,,,,,,,,,,11,,68,48
15344,note_on,,14,0,7,,,,,,,,,,,,,,,,10,,68,0
15344,note_on,,14,0,8,,,,,,,,,,,,,,,,11,,68,0
15345,note_on,,1,0,7,,,,,,,,,,,,,,,,10,,69,48
15345,note_on,,1,0,8,,,,,,,,,,,,,,,,11,,69,48
15359,note_on,,14,0,7,,,,,,,,,,,,,,,,10,,69,0
15359,note_on,,59,0,9,,,,,,,,,,,,,,,,13,,61,0
15359,note_on,,0,0,10,,,,,,,,,,,,,,,,15,,69,0
15359,note_on,,0,0,10,,,,,,,,,,,,,,,,15,,73,0
15359,note_on,,59,0,10,,,,,,,,,,,,,,,,15,,64,0
15359,note_on,,14,0,8,,,,,,,,,,,,,,,,11,,69,0
15360,note_on,,1,0,8,,,,,,,,,,,,,,,,11,,73,48
15360,note_on,,1,0,7,,,,,,,,,,,,,,,,10,,73,48
15360,note_on,,1,0,10,,,,,,,,,,,,,,,,15,,57,48
15360,note_on,,0,0,10,,,,,,,,,,,,,,,,15,,76,48
15360,note_on,,1,0,9,,,,,,,,,,,,,,,,13,,57,48
15360,note_on,,0,0,10,,,,,,,,,,,,,,,,15,,73,48
15360,note_on,,0,0,10,,,,,,,,,,,,,,,,15,,69,48
15360,note_on,,421,0,6,,,,,,,,,,,,,,,,5,,76,64
15419,note_on,,59,0,6,,,,,,,,,,,,,,,,5,,76,0
15419,note_on,,0,0,10,,,,,,,,,,,,,,,,15,,69,0
15419,note_on,,0,0,10,,,,,,,,,,,,,,,,15,,57,0
15419,note_on,,0,0,10,,,,,,,,,,,,,,,,15,,73,0
15419,note_on,,0,0,10,,,,,,,,,,,,,,,,15,,76,0
15419,note_on,,59,0,7,,,,,,,,,,,,,,,,10,,73,0
15419,note_on,,59,0,10,,,,,,,,,,,,,,,,15,,61,0
15419,note_on,,59,0,9,,,,,,,,,,,,,,,,13,,57,0
15419,note_on,,59,0,8,,,,,,,,,,,,,,,,11,,73,0
15420,note_on,,1,0,8,,,,,,,,,,,,,,,,11,,73,48
15420,note_on,,1,0,6,,,,,,,,,,,,,,,,5,,78,64
15420,note_on,,0,0,10,,,,,,,,,,,,,,,,15,,69,48
15420,note_on,,0,0,10,,,,,,,,,,,,,,,,15,,76,48
15420,note_on,,0,0,10,,,,,,,,,,,,,,,,15,,62,48
15420,note_on,,1,0,10,,,,,,,,,,,,,,,,15,,73,48
15420,note_on,,1,0,9,,,,,,,,,,,,,,,,13,,62,48
15420,note_on,,1,0,7,,,,,,,,,,,,,,,,10,,73,48
15420,note_on,,0,0,10,,,,,,,,,,,,,,,,15,,66,48
15539,note_on,,0,0,10,,,,,,,,,,,,,,,,15,,66,0
15539,note_on,,119,0,9,,,,,,,,,,,,,,,,13,,62,0
15539,note_on,,119,0,8,,,,,,,,,,,,,,,,11,,73,0
15539,note_on,,119,0,7,,,,,,,,,,,,,,,,10,,73,0
15539,note_on,,0,0,10,,,,,,,,,,,,,,,,15,,69,0
15539,note_on,,0,0,10,,,,,,,,,,,,,,,,15,,76,0
15539,note_on,,0,0,10,,,,,,,,,,,,,,,,15,,62,0
15539,note_on,,119,0,10,,,,,,,,,,,,,,,,15,,73,0
15540,note_on,,1,0,10,,,,,,,,,,,,,,,,15,,50,48
15540,note_on,,0,0,10,,,,,,,,,,,,,,,,15,,74,48
15540,note_on,,0,0,10,,,,,,,,,,,,,,,,15,,66,48
15540,note_on,,1,0,8,,,,,,,,,,,,,,,,11,,71,48
15540,note_on,,0,0,10,,,,,,,,,,,,,,,,15,,71,48
15540,note_on,,1,0,9,,,,,,,,,,,,,,,,13,,50,48
15540,note_on,,1,0,7,,,,,,,,,,,,,,,,10,,71,48
15554,note_on,,14,0,7,,,,,,,,,,,,,,,,10,,71,0
15554,note_on,,14,0,8,,,,,,,,,,,,,,,,11,,71,0
15555,note_on,,1,0,8,,,,,,,,,,,,,,,,11,,73,48
15555,note_on,,1,0,7,,,,,,,,,,,,,,,,10,,73,48
15569,note_on,,14,0,8,,,,,,,,,,,,,,,,11,,73,0
15569,note_on,,14,0,7,,,,,,,,,,,,,,,,10,,73,0
15570,note_on,,1,0,7,,,,,,,,,,,,,,,,10,,69,48
15570,note_on,,1,0,8,,,,,,,,,,,,,,,,11,,69,48
15584,note_on,,14,0,7,,,,,,,,,,,,,,,,10,,69,0
15584,note_on,,14,0,8,,,,,,,,,,,,,,,,11,,69,0
15585,note_on,,1,0,8,,,,,,,,,,,,,,,,11,,71,48
15585,note_on,,1,0,7,,,,,,,,,,,,,,,,10,,71,48
15599,note_on,,14,0,7,,,,,,,,,,,,,,,,10,,71,0
15599,note_on,,14,0,8,,,,,,,,,,,,,,,,11,,71,0
15599,note_on,,179,0,6,,,,,,,,,,,,,,,,5,,78,0
15600,note_on,,1,0,6,,,,,,,,,,,,,,,,5,,69,64
15600,note_on,,1,0,7,,,,,,,,,,,,,,,,10,,74,48
15600,note_on,,1,0,8,,,,,,,,,,,,,,,,11,,74,48
15659,note_on,,59,0,8,,,,,,,,,,,,,,,,11,,74,0
15659,note_on,,0,0,10,,,,,,,,,,,,,,,,15,,66,0
15659,note_on,,119,0,10,,,,,,,,,,,,,,,,15,,50,0
15659,note_on,,59,0,6,,,,,,,,,,,,,,,,5,,69,0
15659,note_on,,59,0,7,,,,,,,,,,,,,,,,10,,74,0
15659,note_on,,0,0,10,,,,,,,,,,,,,,,,15,,71,0
15659,note_on,,119,0,9,,,,,,,,,,,,,,,,13,,50,0
15659,note_on,,0,0,10,,,,,,,,,,,,,,,,15,,74,0
15660,note_on,,1,0,6,,,,,,,,,,,,,,,,5,,68,64
15660,note_on,,1,0,10,,,,,,,,,,,,,,,,15,,52,48
15660,note_on,,0,0,10,,,,,,,,,,,,,,,,15,,74,48
15660,note_on,,0,0,10,,,,,,,,,,,,,,,,15,,71,48
15660,note_on,,0,0,10,,,,,,,,,,,,,,,,15,,68,48
15660,note_on,,0,0,10,,,,,,,,,,,,,,,,15,,64,48
15660,note_on,,1,0,8,,,,,,,,,,,,,,,,11,,74,48
15660,note_on,,1,0,9,,,,,,,,,,,,,,,,13,,52,48
15660,note_on,,1,0,7,,,,,,,,,,,,,,,,10,,74,48
15719,note_on,,59,0,6,,,,,,,,,,,,,,,,5,,68,0
15720,note_on,,1,0,6,,,,,,,,,,,,,,,,5,,64,64
15779,note_on,,119,0,9,,,,,,,,,,,,,,,,13,,52,0
15779,note_on,,0,0,10,,,,,,,,,,,,,,,,15,,64,0
15779,note_on,,119,0,8,,,,,,,,,,,,,,,,11,,74,0
15779,note_on,,0,0,10,,,,,,,,,,,,,,,,15,,71,0
15779,note_on,,119,0,7,,,,,,,,,,,,,,,,10,,74,0
15779,note_on,,119,0,10,,,,,,,,,,,,,,,,15,,52,0
15779,note_on,,0,0,10,,,,,,,,,,,,,,,,15,,68,0
15779,note_on,,0,0,10,,,,,,,,,,,,,,,,15,,74,0
15779,note_on,,59,0,6,,,,,,,,,,,,,,,,5,,64,0
15780,note_on,,1,0,8,,,,,,,,,,,,,,,,11,,73,48
15780,note_on,,1,0,6,,,,,,,,,,,,,,,,5,,76,64
15780,note_on,,1,0,7,,,,,,,,,,,,,,,,10,,73,48
15780,note_on,,0,0,10,,,,,,,,,,,,,,,,15,,73,48
15780,note_on,,1,0,10,,,,,,,,,,,,,,,,15,,64,48
15794,note_on,,14,0,7,,,,,,,,,,,,,,,,10,,73,0
15794,note_on,,14,0,8,,,,,,,,,,,,,,,,11,,73,0
15795,note_on,,1,0,8,,,,,,,,,,,,,,,,11,,74,48
15795,note_on,,1,0,7,,,,,,,,,,,,,,,,10,,74,48
15809,note_on,,14,0,8,,,,,,,,,,,,,,,,11,,74,0
15809,note_on,,14,0,7,,,,,,,,,,,,,,,,10,,74,0
15810,note_on,,1,0,7,,,,,,,,,,,,,,,,10,,71,48
15810,note_on,,1,0,8,,,,,,,,,,,,,,,,11,,71,48
15824,note_on,,14,0,7,,,,,,,,,,,,,,,,10,,71,0
15824,note_on,,14,0,8,,,,,,,,,,,,,,,,11,,71,0
15825,note_on,,1,0,7,,,,,,,,,,,,,,,,10,,73,48
15825,note_on,,1,0,8,,,,,,,,,,,,,,,,11,,73,48
15839,note_on,,14,0,8,,,,,,,,,,,,,,,,11,,73,0
15839,note_on,,59,0,10,,,,,,,,,,,,,,,,15,,73,0
15839,note_on,,14,0,7,,,,,,,,,,,,,,,,10,,73,0
15840,note_on,,1,0,10,,,,,,,,,,,,,,,,15,,49,48
15840,note_on,,0,0,10,,,,,,,,,,,,,,,,15,,76,48
15840,note_on,,0,0,10,,,,,,,,,,,,,,,,15,,69,48
15840,note_on,,1,0,8,,,,,,,,,,,,,,,,11,,76,48
15840,note_on,,1,0,7,,,,,,,,,,,,,,,,10,,76,48
15840,note_on,,61,0,9,,,,,,,,,,,,,,,,13,,49,48
15899,note_on,,59,0,8,,,,,,,,,,,,,,,,11,,76,0
15899,note_on,,0,0,10,,,,,,,,,,,,,,,,15,,69,0
15899,note_on,,0,0,10,,,,,,,,,,,,,,,,15,,76,0
15899,note_on,,119,0,6,,,,,,,,,,,,,,,,5,,76,0
15899,note_on,,0,0,10,,,,,,,,,,,,,,,,15,,49,0
15899,note_on,,59,0,10,,,,,,,,,,,,,,,,15,,64,0
15899,note_on,,59,0,7,,,,,,,,,,,,,,,,10,,76,0
15899,note_on,,59,0,9,,,,,,,,,,,,,,,,13,,49,0
15900,note_on,,1,0,9,,,,,,,,,,,,,,,,13,,54,48
15900,note_on,,0,0,10,,,,,,,,,,,,,,,,15,,54,48
15900,note_on,,1,0,10,,,,,,,,,,,,,,,,15,,66,48
15900,note_on,,1,0,7,,,,,,,,,,,,,,,,10,,69,48
15900,note_on,,0,0,10,,,,,,,,,,,,,,,,15,,64,48
15900,note_on,,0,0,10,,,,,,,,,,,,,,,,15,,69,48
15900,note_on,,1,0,6,,,,,,,,,,,,,,,,5,,76,64
15900,note_on,,1,0,8,,,,,,,,,,,,,,,,11,,69,48
15959,note_on,,59,0,7,,,,,,,,,,,,,,,,10,,69,0
15959,note_on,,59,0,9,,,,,,,,,,,,,,,,13,,54,0
15959,note_on,,59,0,8,,,,,,,,,,,,,,,,11,,69,0
15959,note_on,,59,0,10,,,,,,,,,,,,,,,,15,,54,0
15960,note_on,,1,0,9,,,,,,,,,,,,,,,,13,,52,48
15960,note_on,,1,0,8,,,,,,,,,,,,,,,,11,,68,48
15960,note_on,,1,0,7,,,,,,,,,,,,,,,,10,,68,48
15960,note_on,,1,0,10,,,,,,,,,,,,,,,,15,,52,48
16019,note_on,,59,0,9,,,,,,,,,,,,,,,,13,,52,0
16019,note_on,,59,0,7,,,,,,,,,,,,,,,,10,,68,0
16019,note_on,,0,0,10,,,,,,,,,,,,,,,,15,,64,0
16019,note_on,,59,0,10,,,,,,,,,,,,,,,,15,,66,0
16019,note_on,,0,0,10,,,,,,,,,,,,,,,,15,,52,0
16019,note_on,,59,0,8,,,,,,,,,,,,,,,,11,,68,0
16019,note_on,,119,0,6,,,,,,,,,,,,,,,,5,,76,0
16020,note_on,,1,0,9,,,,,,,,,,,,,,,,13,,54,48
16020,note_on,,1,0,6,,,,,,,,,,,,,,,,5,,74,64
16020,note_on,,1,0,10,,,,,,,,,,,,,,,,15,,54,48
16020,note_on,,0,0,10,,,,,,,,,,,,,,,,15,,66,48
16020,note_on,,0,0,10,,,,,,,,,,,,,,,,15,,62,48
16020,note_on,,1,0,8,,,,,,,,,,,,,,,,11,,69,48
16020,note_on,,1,0,7,,,,,,,,,,,,,,,,10,,69,48
16079,note_on,,0,0,10,,,,,,,,,,,,,,,,15,,62,0
16079,note_on,,59,0,8,,,,,,,,,,,,,,,,11,,69,0
16079,note_on,,59,0,7,,,,,,,,,,,,,,,,10,,69,0
16079,note_on,,0,0,10,,,,,,,,,,,,,,,,15,,66,0
16079,note_on,,59,0,9,,,,,,,,,,,,,,,,13,,54,0
16079,note_on,,0,0,10,,,,,,,,,,,,,,,,15,,54,0
16079,note_on,,59,0,10,,,,,,,,,,,,,,,,15,,69,0
16080,note_on,,0,0,10,,,,,,,,,,,,,,,,15,,59,48
16080,note_on,,0,0,10,,,,,,,,,,,,,,,,15,,71,48
16080,note_on,,1,0,7,,,,,,,,,,,,,,,,10,,71,48
16080,note_on,,1,0,8,,,,,,,,,,,,,,,,11,,71,48
16080,note_on,,1,0,10,,,,,,,,,,,,,,,,15,,56,48
16080,note_on,,1,0,9,,,,,,,,,,,,,,,,13,,56,48
16139,note_on,,59,0,7,,,,,,,,,,,,,,,,10,,71,0
16139,note_on,,59,0,8,,,,,,,,,,,,,,,,11,,71,0
16139,note_on,,59,0,9,,,,,,,,,,,,,,,,13,,56,0
16139,note_on,,0,0,10,,,,,,,,,,,,,,,,15,,71,0
16139,note_on,,0,0,10,,,,,,,,,,,,,,,,15,,59,0
16139,note_on,,59,0,10,,,,,,,,,,,,,,,,15,,56,0
16139,note_on,,119,0,6,,,,,,,,,,,,,,,,5,,74,0
16140,note_on,,1,0,8,,,,,,,,,,,,,,,,11,,64,48
16140,note_on,,1,0,7,,,,,,,,,,,,,,,,10,,64,48
16140,note_on,,0,0,10,,,,,,,,,,,,,,,,15,,64,48
16140,note_on,,1,0,9,,,,,,,,,,,,,,,,13,,57,48
16140,note_on,,1,0,10,,,,,,,,,,,,,,,,15,,57,48
16140,note_on,,1,0,6,,,,,,,,,,,,,,,,5,,74,64
16199,note_on,,59,0,6,,,,,,,,,,,,,,,,5,,74,0
16200,note_on,,1,0,6,,,,,,,,,,,,,,,,5,,73,64
16259,note_on,,119,0,8,,,,,,,,,,,,,,,,11,,64,0
16259,note_on,,119,0,7,,,,,,,,,,,,,,,,10,,64,0
16259,note_on,,119,0,9,,,,,,,,,,,,,,,,13,,57,0
16259,note_on,,0,0,10,,,,,,,,,,,,,,,,15,,64,0
16259,note_on,,119,0,10,,,,,,,,,,,,,,,,15,,57,0
16260,note_on,,0,0,10,,,,,,,,,,,,,,,,15,,69,48
16260,note_on,,1,0,9,,,,,,,,,,,,,,,,13,,45,48
16260,note_on,,0,0,10,,,,,,,,,,,,,,,,15,,73,48
16260,note_on,,0,0,10,,,,,,,,,,,,,,,,15,,64,48
16260,note_on,,1,0,10,,,,,,,,,,,,,,,,15,,45,48
16319,note_on,,0,0,10,,,,,,,,,,,,,,,,15,,69,0
16319,note_on,,59,0,10,,,,,,,,,,,,,,,,15,,45,0
16319,note_on,,0,0,10,,,,,,,,,,,,,,,,15,,73,0
16319,note_on,,59,0,9,,,,,,,,,,,,,,,,13,,45,0
16319,note_on,,119,0,6,,,,,,,,,,,,,,,,5,,73,0
16320,note_on,,1,0,9,,,,,,,,,,,,,,,,13,,49,48
16320,note_on,,1,0,6,,,,,,,,,,,,,,,,5,,76,64
16320,note_on,,1,0,10,,,,,,,,,,,,,,,,15,,49,48
16320,note_on,,0,0,10,,,,,,,,,,,,,,,,15,,69,48
16320,note_on,,0,0,10,,,,,,,,,,,,,,,,15,,64,48
16379,note_on,,0,0,10,,,,,,,,,,,,,,,,15,,69,0
16379,note_on,,59,0,9,,,,,,,,,,,,,,,,13,,49,0
16379,note_on,,59,0,6,,,,,,,,,,,,,,,,5,,76,0
16379,note_on,,59,0,10,,,,,,,,,,,,,,,,15,,64,0
16379,note_on,,0,0,10,,,,,,,,,,,,,,,,15,,49,0
16379,note_on,,0,0,10,,,,,,,,,,,,,,,,15,,64,0
16380,note_on,,0,0,10,,,,,,,,,,,,,,,,15,,62,48
16380,note_on,,0,0,10,,,,,,,,,,,,,,,,15,,66,48
16380,note_on,,0,0,10,,,,,,,,,,,,,,,,15,,71,48
16380,note_on,,1,0,9,,,,,,,,,,,,,,,,13,,50,48
16380,note_on,,1,0,6,,,,,,,,,,,,,,,,5,,66,64
16380,note_on,,1,0,10,,,,,,,,,,,,,,,,15,,50,48
16439,note_on,,59,0,9,,,,,,,,,,,,,,,,13,,50,0
16439,note_on,,59,0,10,,,,,,,,,,,,,,,,15,,50,0
16439,note_on,,0,0,10,,,,,,,,,,,,,,,,15,,66,0
16439,note_on,,0,0,10,,,,,,,,,,,,,,,,15,,62,0
16439,note_on,,59,0,6,,,,,,,,,,,,,,,,5,,66,0
16440,note_on,,1,0,10,,,,,,,,,,,,,,,,15,,47,48
16440,note_on,,0,0,10,,,,,,,,,,,,,,,,15,,62,48
16440,note_on,,0,0,10,,,,,,,,,,,,,,,,15,,50,48
16440,note_on,,1,0,6,,,,,,,,,,,,,,,,5,,68,64
16440,note_on,,1,0,9,,,,,,,,,,,,,,,,13,,47,48
16499,note_on,,59,0,9,,,,,,,,,,,,,,,,13,,47,0
16499,note_on,,0,0,10,,,,,,,,,,,,,,,,15,,50,0
16499,note_on,,59,0,6,,,,,,,,,,,,,,,,5,,68,0
16499,note_on,,0,0,10,,,,,,,,,,,,,,,,15,,62,0
16499,note_on,,0,0,10,,,,,,,,,,,,,,,,15,,47,0
16499,note_on,,59,0,10,,,,,,,,,,,,,,,,15,,71,0
16500,note_on,,0,0,10,,,,,,,,,,,,,,,,15,,52,48
16500,note_on,,0,0,10,,,,,,,,,,,,,,,,15,,61,48
16500,note_on,,0,0,10,,,,,,,,,,,,,,,,15,,69,48
16500,note_on,,1,0,10,,,,,,,,,,,,,,,,15,,49,48
16500,note_on,,1,0,6,,,,,,,,,,,,,,,,5,,69,64
16500,note_on,,1,0,9,,,,,,,,,,,,,,,,13,,49,48
16559,note_on,,0,0,10,,,,,,,,,,,,,,,,15,,52,0
16559,note_on,,0,0,10,,,,,,,,,,,,,,,,15,,61,0
16559,note_on,,59,0,9,,,,,,,,,,,,,,,,13,,49,0
16559,note_on,,59,0,10,,,,,,,,,,,,,,,,15,,49,0
16559,note_on,,59,0,6,,,,,,,,,,,,,,,,5,,69,0
16560,note_on,,1,0,9,,,,,,,,,,,,,,,,13,,50,48
16560,note_on,,1,0,6,,,,,,,,,,,,,,,,5,,71,64
16560,note_on,,1,0,10,,,,,,,,,,,,,,,,15,,50,48
16560,note_on,,0,0,10,,,,,,,,,,,,,,,,15,,66,48
16560,note_on,,0,0,10,,,,,,,,,,,,,,,,15,,54,48
16619,note_on,,59,0,9,,,,,,,,,,,,,,,,13,,50,0
16619,note_on,,0,0,10,,,,,,,,,,,,,,,,15,,66,0
16619,note_on,,59,0,6,,,,,,,,,,,,,,,,5,,71,0
16619,note_on,,59,0,10,,,,,,,,,,,,,,,,15,,69,0
16619,note_on,,0,0,10,,,,,,,,,,,,,,,,15,,50,0
16619,note_on,,0,0,10,,,,,,,,,,,,,,,,15,,54,0
16620,note_on,,1,0,10,,,,,,,,,,,,,,,,15,,52,48
16620,note_on,,1,0,6,,,,,,,,,,,,,,,,5,,64,64
16620,note_on,,1,0,9,,,,,,,,,,,,,,,,13,,52,48
16620,note_on,,0,0,10,,,,,,,,,,,,,,,,15,,64,48
16620,note_on,,0,0,10,,,,,,,,,,,,,,,,15,,59,48
16620,note_on,,0,0,10,,,,,,,,,,,,,,,,15,,68,48
16679,note_on,,59,0,9,,,,,,,,,,,,,,,,13,,52,0
16679,note_on,,59,0,10,,,,,,,,,,,,,,,,15,,52,0
16680,note_on,,1,0,9,,,,,,,,,,,,,,,,13,,50,48
16680,note_on,,1,0,10,,,,,,,,,,,,,,,,15,,50,48
16739,note_on,,59,0,9,,,,,,,,,,,,,,,,13,,50,0
16739,note_on,,0,0,10,,,,,,,,,,,,,,,,15,,50,0
16739,note_on,,0,0,10,,,,,,,,,,,,,,,,15,,59,0
16739,note_on,,0,0,10,,,,,,,,,,,,,,,,15,,64,0
16739,note_on,,59,0,10,,,,,,,,,,,,,,,,15,,68,0
16740,note_on,,0,0,10,,,,,,,,,,,,,,,,15,,69,48
16740,note_on,,1,0,9,,,,,,,,,,,,,,,,13,,49,48
16740,note_on,,0,0,10,,,,,,,,,,,,,,,,15,,64,48
16740,note_on,,1,0,10,,,,,,,,,,,,,,,,15,,49,48
16799,note_on,,0,0,10,,,,,,,,,,,,,,,,15,,64,0
16799,note_on,,59,0,10,,,,,,,,,,,,,,,,15,,49,0
16799,note_on,,179,0,6,,,,,,,,,,,,,,,,5,,64,0
16799,note_on,,59,0,9,,,,,,,,,,,,,,,,13,,49,0
16800,note_on,,0,0,10,,,,,,,,,,,,,,,,15,,57,48
16800,note_on,,0,0,10,,,,,,,,,,,,,,,,15,,66,48
16800,note_on,,1,0,10,,,,,,,,,,,,,,,,15,,50,48
16800,note_on,,1,0,9,,,,,,,,,,,,,,,,13,,50,48
16800,note_on,,1,0,6,,,,,,,,,,,,,,,,5,,66,64
16859,note_on,,0,0,10,,,,,,,,,,,,,,,,15,,66,0
16859,note_on,,0,0,10,,,,,,,,,,,,,,,,15,,50,0
16859,note_on,,59,0,10,,,,,,,,,,,,,,,,15,,69,0
16859,note_on,,59,0,9,,,,,,,,,,,,,,,,13,,50,0
16859,note_on,,0,0,10,,,,,,,,,,,,,,,,15,,57,0
16859,note_on,,59,0,6,,,,,,,,,,,,,,,,5,,66,0
16860,note_on,,0,0,10,,,,,,,,,,,,,,,,15,,71,48
16860,note_on,,1,0,9,,,,,,,,,,,,,,,,13,,47,48
16860,note_on,,1,0,6,,,,,,,,,,,,,,,,5,,68,64
16860,note_on,,0,0,10,,,,,,,,,,,,,,,,15,,62,48
16860,note_on,,0,0,10,,,,,,,,,,,,,,,,15,,68,48
16860,note_on,,1,0,10,,,,,,,,,,,,,,,,15,,47,48
16919,note_on,,0,0,10,,,,,,,,,,,,,,,,15,,62,0
16919,note_on,,0,0,10,,,,,,,,,,,,,,,,15,,68,0
16919,note_on,,59,0,9,,,,,,,,,,,,,,,,13,,47,0
16919,note_on,,59,0,6,,,,,,,,,,,,,,,,5,,68,0
16919,note_on,,0,0,10,,,,,,,,,,,,,,,,15,,71,0
16919,note_on,,59,0,10,,,,,,,,,,,,,,,,15,,47,0
16920,note_on,,0,0,10,,,,,,,,,,,,,,,,15,,69,48
16920,note_on,,0,0,10,,,,,,,,,,,,,,,,15,,64,48
16920,note_on,,1,0,10,,,,,,,,,,,,,,,,15,,49,48
16920,note_on,,1,0,6,,,,,,,,,,,,,,,,5,,69,64
16920,note_on,,1,0,9,,,,,,,,,,,,,,,,13,,49,48
16979,note_on,,59,0,10,,,,,,,,,,,,,,,,15,,49,0
16979,note_on,,59,0,6,,,,,,,,,,,,,,,,5,,69,0
16979,note_on,,59,0,9,,,,,,,,,,,,,,,,13,,49,0
16979,note_on,,0,0,10,,,,,,,,,,,,,,,,15,,64,0
16979,note_on,,0,0,10,,,,,,,,,,,,,,,,15,,69,0
16980,note_on,,1,0,10,,,,,,,,,,,,,,,,15,,44,48
16980,note_on,,0,0,10,,,,,,,,,,,,,,,,15,,64,48
16980,note_on,,0,0,10,,,,,,,,,,,,,,,,15,,74,48
16980,note_on,,0,0,10,,,,,,,,,,,,,,,,15,,71,48
16980,note_on,,1,0,9,,,,,,,,,,,,,,,,13,,44,48
16980,note_on,,1,0,6,,,,,,,,,,,,,,,,5,,71,64
17039,note_on,,59,0,10,,,,,,,,,,,,,,,,15,,44,0
17039,note_on,,59,0,6,,,,,,,,,,,,,,,,5,,71,0
17039,note_on,,0,0,10,,,,,,,,,,,,,,,,15,,71,0
17039,note_on,,59,0,9,,,,,,,,,,,,,,,,13,,44,0
17039,note_on,,0,0,10,,,,,,,,,,,,,,,,15,,74,0
17040,note_on,,0,0,10,,,,,,,,,,,,,,,,15,,69,48
17040,note_on,,0,0,10,,,,,,,,,,,,,,,,15,,73,48
17040,note_on,,1,0,10,,,,,,,,,,,,,,,,15,,45,48
17040,note_on,,1,0,9,,,,,,,,,,,,,,,,13,,45,48
17040,note_on,,1,0,6,,,,,,,,,,,,,,,,5,,73,64
17099,note_on,,59,0,6,,,,,,,,,,,,,,,,5,,73,0
17099,note_on,,59,0,9,,,,,,,,,,,,,,,,13,,45,0
17099,note_on,,59,0,10,,,,,,,,,,,,,,,,15,,64,0
17099,note_on,,0,0,10,,,,,,,,,,,,,,,,15,,45,0
17099,note_on,,0,0,10,,,,,,,,,,,,,,,,15,,73,0
17099,note_on,,0,0,10,,,,,,,,,,,,,,,,15,,69,0
17100,note_on,,0,0,10,,,,,,,,,,,,,,,,15,,71,48
17100,note_on,,0,0,10,,,,,,,,,,,,,,,,15,,62,48
17100,note_on,,1,0,9,,,,,,,,,,,,,,,,13,,50,48
17100,note_on,,1,0,10,,,,,,,,,,,,,,,,15,,50,48
17100,note_on,,1,0,6,,,,,,,,,,,,,,,,5,,66,64
17100,note_on,,0,0,10,,,,,,,,,,,,,,,,15,,66,48
17159,note_on,,59,0,9,,,,,,,,,,,,,,,,13,,50,0
17159,note_on,,59,0,10,,,,,,,,,,,,,,,,15,,50,0
17160,note_on,,1,0,10,,,,,,,,,,,,,,,,15,,49,48
17160,note_on,,1,0,9,,,,,,,,,,,,,,,,13,,49,48
17219,note_on,,59,0,10,,,,,,,,,,,,,,,,15,,62,0
17219,note_on,,0,0,10,,,,,,,,,,,,,,,,15,,66,0
17219,note_on,,0,0,10,,,,,,,,,,,,,,,,15,,71,0
17219,note_on,,0,0,10,,,,,,,,,,,,,,,,15,,49,0
17219,note_on,,59,0,9,,,,,,,,,,,,,,,,13,,49,0
17220,note_on,,1,0,10,,,,,,,,,,,,,,,,15,,50,48
17220,note_on,,0,0,10,,,,,,,,,,,,,,,,15,,78,48
17220,note_on,,0,0,10,,,,,,,,,,,,,,,,15,,71,48
17220,note_on,,0,0,10,,,,,,,,,,,,,,,,15,,69,48
17220,note_on,,1,0,9,,,,,,,,,,,,,,,,13,,50,48
17279,note_on,,59,0,9,,,,,,,,,,,,,,,,13,,50,0
17279,note_on,,179,0,6,,,,,,,,,,,,,,,,5,,66,0
17279,note_on,,59,0,10,,,,,,,,,,,,,,,,15,,50,0
17280,note_on,,1,0,6,,,,,,,,,,,,,,,,5,,74,64
17280,note_on,,1,0,10,,,,,,,,,,,,,,,,15,,47,48
17280,note_on,,1,0,9,,,,,,,,,,,,,,,,13,,47,48
17339,note_on,,0,0,10,,,,,,,,,,,,,,,,15,,47,0
17339,note_on,,0,0,10,,,,,,,,,,,,,,,,15,,71,0
17339,note_on,,59,0,9,,,,,,,,,,,,,,,,13,,47,0
17339,note_on,,59,0,6,,,,,,,,,,,,,,,,5,,74,0
17339,note_on,,59,0,10,,,,,,,,,,,,,,,,15,,78,0
17339,note_on,,0,0,10,,,,,,,,,,,,,,,,15,,69,0
17340,note_on,,0,0,10,,,,,,,,,,,,,,,,15,,59,48
17340,note_on,,1,0,6,,,,,,,,,,,,,,,,5,,68,64
17340,note_on,,0,0,10,,,,,,,,,,,,,,,,15,,71,48
17340,note_on,,0,0,10,,,,,,,,,,,,,,,,15,,68,48
17340,note_on,,0,0,10,,,,,,,,,,,,,,,,15,,76,48
17340,note_on,,1,0,10,,,,,,,,,,,,,,,,15,,52,48
17340,note_on,,1,0,9,,,,,,,,,,,,,,,,13,,52,48
17354,note_on,,14,0,6,,,,,,,,,,,,,,,,5,,68,0
17355,note_on,,1,0,6,,,,,,,,,,,,,,,,5,,69,64
17369,note_on,,14,0,6,,,,,,,,,,,,,,,,5,,69,0
17370,note_on,,1,0,6,,,,,,,,,,,,,,,,5,,68,64
17384,note_on,,14,0,6,,,,,,,,,,,,,,,,5,,68,0
17385,note_on,,1,0,6,,,,,,,,,,,,,,,,5,,69,64
17399,note_on,,14,0,6,,,,,,,,,,,,,,,,5,,69,0
17400,note_on,,1,0,6,,,,,,,,,,,,,,,,5,,68,64
17414,note_on,,14,0,6,,,,,,,,,,,,,,,,5,,68,0
17415,note_on,,1,0,6,,,,,,,,,,,,,,,,5,,69,64
17429,note_on,,14,0,6,,,,,,,,,,,,,,,,5,,69,0
17430,note_on,,1,0,6,,,,,,,,,,,,,,,,5,,68,64
17444,note_on,,14,0,6,,,,,,,,,,,,,,,,5,,68,0
17445,note_on,,1,0,6,,,,,,,,,,,,,,,,5,,69,64
17459,note_on,,14,0,6,,,,,,,,,,,,,,,,5,,69,0
17459,note_on,,119,0,9,,,,,,,,,,,,,,,,13,,52,0
17459,note_on,,0,0,10,,,,,,,,,,,,,,,,15,,59,0
17459,note_on,,0,0,10,,,,,,,,,,,,,,,,15,,76,0
17459,note_on,,119,0,10,,,,,,,,,,,,,,,,15,,52,0
17460,note_on,,0,0,10,,,,,,,,,,,,,,,,15,,64,48
17460,note_on,,0,0,10,,,,,,,,,,,,,,,,15,,74,48
17460,note_on,,1,0,10,,,,,,,,,,,,,,,,15,,40,48
17460,note_on,,1,0,6,,,,,,,,,,,,,,,,5,,68,64
17460,note_on,,1,0,9,,,,,,,,,,,,,,,,13,,40,48
17474,note_on,,14,0,6,,,,,,,,,,,,,,,,5,,68,0
17475,note_on,,1,0,6,,,,,,,,,,,,,,,,5,,69,64
17489,note_on,,14,0,6,,,,,,,,,,,,,,,,5,,69,0
17490,note_on,,1,0,6,,,,,,,,,,,,,,,,5,,66,64
17504,note_on,,14,0,6,,,,,,,,,,,,,,,,5,,66,0
17505,note_on,,1,0,6,,,,,,,,,,,,,,,,5,,68,64
17519,note_on,,14,0,6,,,,,,,,,,,,,,,,5,,68,0
17520,note_on,,1,0,6,,,,,,,,,,,,,,,,5,,68,64
17579,note_on,,119,0,9,,,,,,,,,,,,,,,,13,,40,0
17579,note_on,,0,0,10,,,,,,,,,,,,,,,,15,,74,0
17579,note_on,,0,0,10,,,,,,,,,,,,,,,,15,,40,0
17579,note_on,,119,0,10,,,,,,,,,,,,,,,,15,,68,0
17579,note_on,,0,0,10,,,,,,,,,,,,,,,,15,,71,0
17579,note_on,,59,0,6,,,,,,,,,,,,,,,,5,,68,0
17579,note_on,,0,0,10,,,,,,,,,,,,,,,,15,,64,0
17580,note_on,,1,0,10,,,,,,,,,,,,,,,,15,,45,48
17580,note_on,,1,0,6,,,,,,,,,,,,,,,,5,,69,64
17580,note_on,,1,0,9,,,,,,,,,,,,,,,,13,,45,48
17580,note_on,,0,0,10,,,,,,,,,,,,,,,,15,,64,48
17580,note_on,,0,0,10,,,,,,,,,,,,,,,,15,,69,48
17580,note_on,,0,0,10,,,,,,,,,,,,,,,,15,,73,48
17639,note_on,,59,0,9,,,,,,,,,,,,,,,,13,,45,0
17639,note_on,,0,0,10,,,,,,,,,,,,,,,,15,,64,0
17639,note_on,,59,0,10,,,,,,,,,,,,,,,,15,,45,0
17640,note_on,,1,0,10,,,,,,,,,,,,,,,,15,,47,48
17640,note_on,,0,0,10,,,,,,,,,,,,,,,,15,,62,48
17640,note_on,,1,0,9,,,,,,,,,,,,,,,,13,,47,48
17699,note_on,,0,0,10,,,,,,,,,,,,,,,,15,,62,0
17699,note_on,,119,0,6,,,,,,,,,,,,,,,,5,,69,0
17699,note_on,,59,0,10,,,,,,,,,,,,,,,,15,,47,0
17699,note_on,,59,0,9,,,,,,,,,,,,,,,,13,,47,0
17700,note_on,,0,0,10,,,,,,,,,,,,,,,,15,,64,48
17700,note_on,,1,0,6,,,,,,,,,,,,,,,,5,,69,64
17700,note_on,,1,0,9,,,,,,,,,,,,,,,,13,,49,48
17700,note_on,,1,0,10,,,,,,,,,,,,,,,,15,,49,48
17759,note_on,,59,0,10,,,,,,,,,,,,,,,,15,,49,0
17759,note_on,,0,0,10,,,,,,,,,,,,,,,,15,,64,0
17759,note_on,,59,0,9,,,,,,,,,,,,,,,,13,,49,0
17760,note_on,,1501,0,8,,,,,,,,,,,,,,,,11,,81,72
17760,note_on,,1,0,10,,,,,,,,,,,,,,,,15,,45,72
17760,note_on,,1,0,9,,,,,,,,,,,,,,,,13,,45,48
17760,note_on,,1501,0,7,,,,,,,,,,,,,,,,10,,81,72
17760,note_on,,0,0,10,,,,,,,,,,,,,,,,15,,61,72
17819,note_on,,59,0,10,,,,,,,,,,,,,,,,15,,73,0
17819,note_on,,0,0,10,,,,,,,,,,,,,,,,15,,45,0
17819,note_on,,0,0,10,,,,,,,,,,,,,,,,15,,61,0
17819,end_of_track,,0,1,6,,,,,,,,,,,,,,,,,,,
17819,note_on,,119,0,6,,,,,,,,,,,,,,,,5,,69,0
17819,note_on,,59,0,8,,,,,,,,,,,,,,,,11,,81,0
17819,note_on,,59,0,7,,,,,,,,,,,,,,,,10,,81,0
17819,note_on,,0,0,10,,,,,,,,,,,,,,,,15,,69,0
17819,note_on,,59,0,9,,,,,,,,,,,,,,,,13,,45,0
17820,note_on,,1,0,7,,,,,,,,,,,,,,,,10,,81,72
17820,note_on,,1,0,8,,,,,,,,,,,,,,,,11,,81,72
17880,note_on,,0,0,10,,,,,,,,,,,,,,,,15,,69,72
17880,note_on,,0,0,10,,,,,,,,,,,,,,,,15,,64,72
17880,note_on,,61,0,10,,,,,,,,,,,,,,,,15,,61,72
17880,note_on,,4861,0,5,,,,,,,,,,,,,,,,2,,61,72
17880,note_on,,61,0,9,,,,,,,,,,,,,,,,13,,61,72
17939,note_on,,59,0,5,,,,,,,,,,,,,,,,2,,61,0
17939,note_on,,119,0,8,,,,,,,,,,,,,,,,11,,81,0
17939,note_on,,59,0,10,,,,,,,,,,,,,,,,15,,61,0
17939,note_on,,0,0,10,,,,,,,,,,,,,,,,15,,69,0
17939,note_on,,0,0,10,,,,,,,,,,,,,,,,15,,64,0
17939,note_on,,119,0,7,,,,,,,,,,,,,,,,10,,81,0
17939,note_on,,59,0,9,,,,,,,,,,,,,,,,13,,61,0
17940,note_on,,1,0,7,,,,,,,,,,,,,,,,10,,80,72
17940,note_on,,1,0,5,,,,,,,,,,,,,,,,2,,59,72
17940,note_on,,0,0,10,,,,,,,,,,,,,,,,15,,62,72
17940,note_on,,0,0,10,,,,,,,,,,,,,,,,15,,71,72
17940,note_on,,0,0,10,,,,,,,,,,,,,,,,15,,68,72
17940,note_on,,1,0,8,,,,,,,,,,,,,,,,11,,80,72
17940,note_on,,1,0,10,,,,,,,,,,,,,,,,15,,59,72
17940,note_on,,1,0,9,,,,,,,,,,,,,,,,13,,59,72
17954,note_on,,14,0,7,,,,,,,,,,,,,,,,10,,80,0
17954,note_on,,14,0,8,,,,,,,,,,,,,,,,11,,80,0
17955,note_on,,1,0,7,,,,,,,,,,,,,,,,10,,81,72
17955,note_on,,1,0,8,,,,,,,,,,,,,,,,11,,81,72
17969,note_on,,14,0,7,,,,,,,,,,,,,,,,10,,81,0
17969,note_on,,14,0,8,,,,,,,,,,,,,,,,11,,81,0
17970,note_on,,1,0,7,,,,,,,,,,,,,,,,10,,78,72
17970,note_on,,1,0,8,,,,,,,,,,,,,,,,11,,78,72
17984,note_on,,14,0,8,,,,,,,,,,,,,,,,11,,78,0
17984,note_on,,14,0,7,,,,,,,,,,,,,,,,10,,78,0
17985,note_on,,1,0,8,,,,,,,,,,,,,,,,11,,80,72
17985,note_on,,1,0,7,,,,,,,,,,,,,,,,10,,80,72
17999,note_on,,14,0,8,,,,,,,,,,,,,,,,11,,80,0
17999,note_on,,14,0,7,,,,,,,,,,,,,,,,10,,80,0
17999,note_on,,59,0,5,,,,,,,,,,,,,,,,2,,59,0
17999,note_on,,59,0,9,,,,,,,,,,,,,,,,13,,59,0
18000,note_on,,1,0,9,,,,,,,,,,,,,,,,13,,52,72
18000,note_on,,1,0,5,,,,,,,,,,,,,,,,2,,52,72
18000,note_on,,1,0,7,,,,,,,,,,,,,,,,10,,83,72
18000,note_on,,1,0,8,,,,,,,,,,,,,,,,11,,83,72
18000,note_on,,60,0,10,,,,,,,,,,,,,,,,15,,52,72
18059,note_on,,0,0,10,,,,,,,,,,,,,,,,15,,68,0
18059,note_on,,0,0,10,,,,,,,,,,,,,,,,15,,71,0
18059,note_on,,59,0,10,,,,,,,,,,,,,,,,15,,59,0
18059,note_on,,59,0,5,,,,,,,,,,,,,,,,2,,52,0
18059,note_on,,59,0,8,,,,,,,,,,,,,,,,11,,83,0
18059,note_on,,0,0,10,,,,,,,,,,,,,,,,15,,52,0
18059,note_on,,0,0,10,,,,,,,,,,,,,,,,15,,62,0
18059,note_on,,59,0,9,,,,,,,,,,,,,,,,13,,52,0
18059,note_on,,59,0,7,,,,,,,,,,,,,,,,10,,83,0
18060,note_on,,1,0,8,,,,,,,,,,,,,,,,11,,83,72
18060,note_on,,1,0,7,,,,,,,,,,,,,,,,10,,83,72
18120,note_on,,0,0,10,,,,,,,,,,,,,,,,15,,64,72
18120,note_on,,61,0,9,,,,,,,,,,,,,,,,13,,62,72
18120,note_on,,61,0,5,,,,,,,,,,,,,,,,2,,62,72
18120,note_on,,61,0,10,,,,,,,,,,,,,,,,15,,62,72
18120,note_on,,0,0,10,,,,,,,,,,,,,,,,15,,68,72
18120,note_on,,0,0,10,,,,,,,,,,,,,,,,15,,71,72
18179,note_on,,59,0,9,,,,,,,,,,,,,,,,13,,62,0
18179,note_on,,59,0,5,,,,,,,,,,,,,,,,2,,62,0
18179,note_on,,119,0,7,,,,,,,,,,,,,,,,10,,83,0
18179,note_on,,119,0,8,,,,,,,,,,,,,,,,11,,83,0
18179,note_on,,59,0,10,,,,,,,,,,,,,,,,15,,62,0
18179,note_on,,0,0,10,,,,,,,,,,,,,,,,15,,71,0
18179,note_on,,0,0,10,,,,,,,,,,,,,,,,15,,68,0
18180,note_on,,1,0,7,,,,,,,,,,,,,,,,10,,81,72
18180,note_on,,1,0,5,,,,,,,,,,,,,,,,2,,61,72
18180,note_on,,0,0,10,,,,,,,,,,,,,,,,15,,73,72
18180,note_on,,1,0,9,,,,,,,,,,,,,,,,13,,61,72
18180,note_on,,0,0,10,,,,,,,,,,,,,,,,15,,69,72
18180,note_on,,1,0,8,,,,,,,,,,,,,,,,11,,81,72
18180,note_on,,1,0,10,,,,,,,,,,,,,,,,15,,61,72
18194,note_on,,14,0,8,,,,,,,,,,,,,,,,11,,81,0
18194,note_on,,14,0,7,,,,,,,,,,,,,,,,10,,81,0
18195,note_on,,1,0,7,,,,,,,,,,,,,,,,10,,83,72
18195,note_on,,1,0,8,,,,,,,,,,,,,,,,11,,83,72
18209,note_on,,14,0,7,,,,,,,,,,,,,,,,10,,83,0
18209,note_on,,14,0,8,,,,,,,,,,,,,,,,11,,83,0
18210,note_on,,1,0,8,,,,,,,,,,,,,,,,11,,80,72
18210,note_on,,1,0,7,,,,,,,,,,,,,,,,10,,80,72
18224,note_on,,14,0,7,,,,,,,,,,,,,,,,10,,80,0
18224,note_on,,14,0,8,,,,,,,,,,,,,,,,11,,80,0
18225,note_on,,1,0,7,,,,,,,,,,,,,,,,10,,81,72
18225,note_on,,1,0,8,,,,,,,,,,,,,,,,11,,81,72
18239,note_on,,59,0,9,,,,,,,,,,,,,,,,13,,61,0
18239,note_on,,59,0,5,,,,,,,,,,,,,,,,2,,61,0
18239,note_on,,14,0,8,,,,,,,,,,,,,,,,11,,81,0
18239,note_on,,14,0,7,,,,,,,,,,,,,,,,10,,81,0
18240,note_on,,1,0,5,,,,,,,,,,,,,,,,2,,57,72
18240,note_on,,1,0,9,,,,,,,,,,,,,,,,13,,57,72
18240,note_on,,1,0,7,,,,,,,,,,,,,,,,10,,85,72
18240,note_on,,1,0,8,,,,,,,,,,,,,,,,11,,85,72
18240,note_on,,60,0,10,,,,,,,,,,,,,,,,15,,57,72
18299,note_on,,0,0,10,,,,,,,,,,,,,,,,15,,61,0
18299,note_on,,59,0,7,,,,,,,,,,,,,,,,10,,85,0
18299,note_on,,59,0,5,,,,,,,,,,,,,,,,2,,57,0
18299,note_on,,59,0,8,,,,,,,,,,,,,,,,11,,85,0
18299,note_on,,59,0,10,,,,,,,,,,,,,,,,15,,64,0
18299,note_on,,59,0,9,,,,,,,,,,,,,,,,13,,57,0
18299,note_on,,0,0,10,,,,,,,,,,,,,,,,15,,57,0
18299,note_on,,0,0,10,,,,,,,,,,,,,,,,15,,69,0
18299,note_on,,0,0,10,,,,,,,,,,,,,,,,15,,73,0
18300,note_on,,1,0,8,,,,,,,,,,,,,,,,11,,69,72
18300,note_on,,1,0,7,,,,,,,,,,,,,,,,10,,69,72
18360,note_on,,0,0,10,,,,,,,,,,,,,,,,15,,57,72
18360,note_on,,61,0,9,,,,,,,,,,,,,,,,13,,54,72
18360,note_on,,61,0,10,,,,,,,,,,,,,,,,15,,54,72
18360,note_on,,61,0,5,,,,,,,,,,,,,,,,2,,54,72
18360,note_on,,0,0,10,,,,,,,,,,,,,,,,15,,62,72
18419,note_on,,0,0,10,,,,,,,,,,,,,,,,15,,57,0
18419,note_on,,59,0,5,,,,,,,,,,,,,,,,2,,54,0
18419,note_on,,59,0,10,,,,,,,,,,,,,,,,15,,54,0
18419,note_on,,0,0,10,,,,,,,,,,,,,,,,15,,62,0
18419,note_on,,59,0,9,,,,,,,,,,,,,,,,13,,54,0
18420,note_on,,1,0,10,,,,,,,,,,,,,,,,15,,52,72
18420,note_on,,0,0,10,,,,,,,,,,,,,,,,15,,61,72
18420,note_on,,0,0,10,,,,,,,,,,,,,,,,15,,64,72
18420,note_on,,0,0,10,,,,,,,,,,,,,,,,15,,55,72
18420,note_on,,1,0,5,,,,,,,,,,,,,,,,2,,52,72
18420,note_on,,1,0,9,,,,,,,,,,,,,,,,13,,52,72
18479,note_on,,59,0,9,,,,,,,,,,,,,,,,13,,52,0
18479,note_on,,0,0,10,,,,,,,,,,,,,,,,15,,64,0
18479,note_on,,59,0,5,,,,,,,,,,,,,,,,2,,52,0
18479,note_on,,179,0,7,,,,,,,,,,,,,,,,10,,69,0
18479,note_on,,179,0,8,,,,,,,,,,,,,,,,11,,69,0
18479,note_on,,59,0,10,,,,,,,,,,,,,,,,15,,52,0
18479,note_on,,0,0,10,,,,,,,,,,,,,,,,15,,55,0
18479,note_on,,0,0,10,,,,,,,,,,,,,,,,15,,61,0
18480,note_on,,1,0,7,,,,,,,,,,,,,,,,10,,71,72
18480,note_on,,1,0,9,,,,,,,,,,,,,,,,13,,50,72
18480,note_on,,1,0,8,,,,,,,,,,,,,,,,11,,71,72
18480,note_on,,1,0,5,,,,,,,,,,,,,,,,2,,50,72
18480,note_on,,0,0,10,,,,,,,,,,,,,,,,15,,54,72
18480,note_on,,0,0,10,,,,,,,,,,,,,,,,15,,66,72
18480,note_on,,0,0,10,,,,,,,,,,,,,,,,15,,62,72
18480,note_on,,1,0,10,,,,,,,,,,,,,,,,15,,50,72
18539,note_on,,59,0,9,,,,,,,,,,,,,,,,13,,50,0
18539,note_on,,0,0,10,,,,,,,,,,,,,,,,15,,66,0
18539,note_on,,0,0,10,,,,,,,,,,,,,,,,15,,62,0
18539,note_on,,59,0,8,,,,,,,,,,,,,,,,11,,71,0
18539,note_on,,59,0,7,,,,,,,,,,,,,,,,10,,71,0
18539,note_on,,0,0,10,,,,,,,,,,,,,,,,15,,54,0
18539,note_on,,59,0,10,,,,,,,,,,,,,,,,15,,50,0
18539,note_on,,59,0,5,,,,,,,,,,,,,,,,2,,50,0
18540,note_on,,1,0,9,,,,,,,,,,,,,,,,13,,57,72
18540,note_on,,1,0,7,,,,,,,,,,,,,,,,10,,73,72
18540,note_on,,0,0,10,,,,,,,,,,,,,,,,15,,61,72
18540,note_on,,1,0,10,,,,,,,,,,,,,,,,15,,57,72
18540,note_on,,1,0,8,,,,,,,,,,,,,,,,11,,73,72
18540,note_on,,0,0,10,,,,,,,,,,,,,,,,15,,64,72
18540,note_on,,1,0,5,,,,,,,,,,,,,,,,2,,57,72
18599,note_on,,59,0,5,,,,,,,,,,,,,,,,2,,57,0
18599,note_on,,59,0,7,,,,,,,,,,,,,,,,10,,73,0
18599,note_on,,59,0,8,,,,,,,,,,,,,,,,11,,73,0
18599,note_on,,59,0,10,,,,,,,,,,,,,,,,15,,57,0
18599,note_on,,0,0,10,,,,,,,,,,,,,,,,15,,61,0
18599,note_on,,0,0,10,,,,,,,,,,,,,,,,15,,64,0
18599,note_on,,59,0,9,,,,,,,,,,,,,,,,13,,57,0
18600,note_on,,0,0,10,,,,,,,,,,,,,,,,15,,71,72
18600,note_on,,1,0,7,,,,,,,,,,,,,,,,10,,74,72
18600,note_on,,1,0,8,,,,,,,,,,,,,,,,11,,74,72
18600,note_on,,0,0,10,,,,,,,,,,,,,,,,15,,62,72
18600,note_on,,1,0,10,,,,,,,,,,,,,,,,15,,59,72
18600,note_on,,1,0,9,,,,,,,,,,,,,,,,13,,59,72
18600,note_on,,0,0,10,,,,,,,,,,,,,,,,15,,68,72
18600,note_on,,1,0,5,,,,,,,,,,,,,,,,2,,59,72
18659,note_on,,59,0,9,,,,,,,,,,,,,,,,13,,59,0
18659,note_on,,59,0,7,,,,,,,,,,,,,,,,10,,74,0
18659,note_on,,59,0,5,,,,,,,,,,,,,,,,2,,59,0
18659,note_on,,59,0,10,,,,,,,,,,,,,,,,15,,59,0
18659,note_on,,0,0,10,,,,,,,,,,,,,,,,15,,68,0
18659,note_on,,0,0,10,,,,,,,,,,,,,,,,15,,62,0
18659,note_on,,0,0,10,,,,,,,,,,,,,,,,15,,71,0
18659,note_on,,59,0,8,,,,,,,,,,,,,,,,11,,74,0
18660,note_on,,0,0,10,,,,,,,,,,,,,,,,15,,64,72
18660,note_on,,1,0,7,,,,,,,,,,,,,,,,10,,76,72
18660,note_on,,1,0,10,,,,,,,,,,,,,,,,15,,61,72
18660,note_on,,1,0,8,,,,,,,,,,,,,,,,11,,76,72
18660,note_on,,1,0,9,,,,,,,,,,,,,,,,13,,61,72
18660,note_on,,1,0,5,,,,,,,,,,,,,,,,2,,61,72
18660,note_on,,0,0,10,,,,,,,,,,,,,,,,15,,69,72
18719,note_on,,59,0,8,,,,,,,,,,,,,,,,11,,76,0
18719,note_on,,59,0,10,,,,,,,,,,,,,,,,15,,61,0
18719,note_on,,59,0,7,,,,,,,,,,,,,,,,10,,76,0
18719,note_on,,59,0,9,,,,,,,,,,,,,,,,13,,61,0
18719,note_on,,0,0,10,,,,,,,,,,,,,,,,15,,64,0
18719,note_on,,59,0,5,,,,,,,,,,,,,,,,2,,61,0
18720,note_on,,1,0,9,,,,,,,,,,,,,,,,13,,62,72
18720,note_on,,1,0,7,,,,,,,,,,,,,,,,10,,78,72
18720,note_on,,1,0,5,,,,,,,,,,,,,,,,2,,62,72
18720,note_on,,0,0,10,,,,,,,,,,,,,,,,15,,66,72
18720,note_on,,1,0,10,,,,,,,,,,,,,,,,15,,62,72
18720,note_on,,1,0,8,,,,,,,,,,,,,,,,11,,78,72
18779,note_on,,0,0,10,,,,,,,,,,,,,,,,15,,66,0
18779,note_on,,0,0,10,,,,,,,,,,,,,,,,15,,62,0
18779,note_on,,59,0,10,,,,,,,,,,,,,,,,15,,69,0
18779,note_on,,59,0,7,,,,,,,,,,,,,,,,10,,78,0
18779,note_on,,59,0,5,,,,,,,,,,,,,,,,2,,62,0
18779,note_on,,59,0,8,,,,,,,,,,,,,,,,11,,78,0
18779,note_on,,59,0,9,,,,,,,,,,,,,,,,13,,62,0
18780,note_on,,0,0,10,,,,,,,,,,,,,,,,15,,68,72
18780,note_on,,0,0,10,,,,,,,,,,,,,,,,15,,62,72
18780,note_on,,1,0,5,,,,,,,,,,,,,,,,2,,59,72
18780,note_on,,1,0,9,,,,,,,,,,,,,,,,13,,59,72
18780,note_on,,1,0,8,,,,,,,,,,,,,,,,11,,80,72
18780,note_on,,1,0,7,,,,,,,,,,,,,,,,10,,80,72
18780,note_on,,1,0,10,,,,,,,,,,,,,,,,15,,59,72
18780,note_on,,0,0,10,,,,,,,,,,,,,,,,15,,71,72
18839,note_on,,59,0,8,,,,,,,,,,,,,,,,11,,80,0
18839,note_on,,59,0,5,,,,,,,,,,,,,,,,2,,59,0
18839,note_on,,59,0,10,,,,,,,,,,,,,,,,15,,59,0
18839,note_on,,0,0,10,,,,,,,,,,,,,,,,15,,71,0
18839,note_on,,0,0,10,,,,,,,,,,,,,,,,15,,68,0
18839,note_on,,59,0,9,,,,,,,,,,,,,,,,13,,59,0
18839,note_on,,0,0,10,,,,,,,,,,,,,,,,15,,62,0
18839,note_on,,59,0,7,,,,,,,,,,,,,,,,10,,80,0
18840,note_on,,1,0,10,,,,,,,,,,,,,,,,15,,61,72
18840,note_on,,0,0,10,,,,,,,,,,,,,,,,15,,69,72
18840,note_on,,1,0,7,,,,,,,,,,,,,,,,10,,81,72
18840,note_on,,1,0,5,,,,,,,,,,,,,,,,2,,61,72
18840,note_on,,1,0,8,,,,,,,,,,,,,,,,11,,81,72
18840,note_on,,0,0,10,,,,,,,,,,,,,,,,15,,64,72
18840,note_on,,1,0,9,,,,,,,,,,,,,,,,13,,61,72
18899,note_on,,59,0,7,,,,,,,,,,,,,,,,10,,81,0
18899,note_on,,59,0,8,,,,,,,,,,,,,,,,11,,81,0
18899,note_on,,0,0,10,,,,,,,,,,,,,,,,15,,69,0
18899,note_on,,0,0,10,,,,,,,,,,,,,,,,15,,64,0
18899,note_on,,59,0,9,,,,,,,,,,,,,,,,13,,61,0
18899,note_on,,59,0,10,,,,,,,,,,,,,,,,15,,61,0
18899,note_on,,59,0,5,,,,,,,,,,,,,,,,2,,61,0
18900,note_on,,0,0,10,,,,,,,,,,,,,,,,15,,71,72
18900,note_on,,1,0,8,,,,,,,,,,,,,,,,11,,83,72
18900,note_on,,1,0,7,,,,,,,,,,,,,,,,10,,83,72
18900,note_on,,1,0,10,,,,,,,,,,,,,,,,15,,56,72
18900,note_on,,0,0,10,,,,,,,,,,,,,,,,15,,64,72
18900,note_on,,1,0,5,,,,,,,,,,,,,,,,2,,56,72
18900,note_on,,0,0,10,,,,,,,,,,,,,,,,15,,74,72
18900,note_on,,1,0,9,,,,,,,,,,,,,,,,13,,56,72
18959,note_on,,59,0,5,,,,,,,,,,,,,,,,2,,56,0
18959,note_on,,0,0,10,,,,,,,,,,,,,,,,15,,74,0
18959,note_on,,59,0,8,,,,,,,,,,,,,,,,11,,83,0
18959,note_on,,59,0,9,,,,,,,,,,,,,,,,13,,56,0
18959,note_on,,59,0,7,,,,,,,,,,,,,,,,10,,83,0
18959,note_on,,0,0,10,,,,,,,,,,,,,,,,15,,71,0
18959,note_on,,59,0,10,,,,,,,,,,,,,,,,15,,56,0
18960,note_on,,1,0,5,,,,,,,,,,,,,,,,2,,57,72
18960,note_on,,1,0,8,,,,,,,,,,,,,,,,11,,85,72
18960,note_on,,1,0,7,,,,,,,,,,,,,,,,10,,85,72
18960,note_on,,1,0,10,,,,,,,,,,,,,,,,15,,57,72
18960,note_on,,0,0,10,,,,,,,,,,,,,,,,15,,73,72
18960,note_on,,0,0,10,,,,,,,,,,,,,,,,15,,69,72
18960,note_on,,1,0,9,,,,,,,,,,,,,,,,13,,57,72
19019,note_on,,59,0,9,,,,,,,,,,,,,,,,13,,57,0
19019,note_on,,59,0,7,,,,,,,,,,,,,,,,10,,85,0
19019,note_on,,59,0,8,,,,,,,,,,,,,,,,11,,85,0
19019,note_on,,0,0,10,,,,,,,,,,,,,,,,15,,69,0
19019,note_on,,0,0,10,,,,,,,,,,,,,,,,15,,73,0
19019,note_on,,0,0,10,,,,,,,,,,,,,,,,15,,57,0
19019,note_on,,59,0,5,,,,,,,,,,,,,,,,2,,57,0
19019,note_on,,59,0,10,,,,,,,,,,,,,,,,15,,64,0
19020,note_on,,0,0,10,,,,,,,,,,,,,,,,15,,66,72
19020,note_on,,0,0,10,,,,,,,,,,,,,,,,15,,69,72
19020,note_on,,1,0,10,,,,,,,,,,,,,,,,15,,62,72
19020,note_on,,1,0,8,,,,,,,,,,,,,,,,11,,78,72
19020,note_on,,1,0,7,,,,,,,,,,,,,,,,10,,78,72
19020,note_on,,0,0,10,,,,,,,,,,,,,,,,15,,73,72
19020,note_on,,1,0,5,,,,,,,,,,,,,,,,2,,62,72
19020,note_on,,1,0,9,,,,,,,,,,,,,,,,13,,62,72
19079,note_on,,59,0,10,,,,,,,,,,,,,,,,15,,62,0
19079,note_on,,0,0,10,,,,,,,,,,,,,,,,15,,73,0
19079,note_on,,59,0,5,,,,,,,,,,,,,,,,2,,62,0
19079,note_on,,59,0,9,,,,,,,,,,,,,,,,13,,62,0
19080,note_on,,1,0,5,,,,,,,,,,,,,,,,2,,61,72
19080,note_on,,1,0,10,,,,,,,,,,,,,,,,15,,61,72
19080,note_on,,1,0,9,,,,,,,,,,,,,,,,13,,61,72
19080,note_on,,0,0,10,,,,,,,,,,,,,,,,15,,76,72
19139,note_on,,59,0,9,,,,,,,,,,,,,,,,13,,61,0
19139,note_on,,0,0,10,,,,,,,,,,,,,,,,15,,66,0
19139,note_on,,59,0,10,,,,,,,,,,,,,,,,15,,69,0
19139,note_on,,59,0,5,,,,,,,,,,,,,,,,2,,61,0
19139,note_on,,0,0,10,,,,,,,,,,,,,,,,15,,61,0
19139,note_on,,0,0,10,,,,,,,,,,,,,,,,15,,76,0
19140,note_on,,1,0,10,,,,,,,,,,,,,,,,15,,62,72
19140,note_on,,1,0,9,,,,,,,,,,,,,,,,13,,62,72
19140,note_on,,1,0,5,,,,,,,,,,,,,,,,2,,62,72
19140,note_on,,0,0,10,,,,,,,,,,,,,,,,15,,71,72
19140,note_on,,0,0,10,,,,,,,,,,,,,,,,15,,66,72
19140,note_on,,0,0,10,,,,,,,,,,,,,,,,15,,74,72
19199,note_on,,59,0,9,,,,,,,,,,,,,,,,13,,62,0
19199,note_on,,59,0,5,,,,,,,,,,,,,,,,2,,62,0
19199,note_on,,179,0,8,,,,,,,,,,,,,,,,11,,78,0
19199,note_on,,179,0,7,,,,,,,,,,,,,,,,10,,78,0
19199,note_on,,59,0,10,,,,,,,,,,,,,,,,15,,62,0
19199,note_on,,0,0,10,,,,,,,,,,,,,,,,15,,71,0
19199,note_on,,0,0,10,,,,,,,,,,,,,,,,15,,66,0
19200,note_on,,1,0,7,,,,,,,,,,,,,,,,10,,83,72
19200,note_on,,1,0,9,,,,,,,,,,,,,,,,13,,59,72
19200,note_on,,0,0,10,,,,,,,,,,,,,,,,15,,69,72
19200,note_on,,1,0,8,,,,,,,,,,,,,,,,11,,83,72
19200,note_on,,1,0,5,,,,,,,,,,,,,,,,2,,59,72
19200,note_on,,1,0,10,,,,,,,,,,,,,,,,15,,59,72
19259,note_on,,59,0,7,,,,,,,,,,,,,,,,10,,83,0
19259,note_on,,59,0,9,,,,,,,,,,,,,,,,13,,59,0
19259,note_on,,0,0,10,,,,,,,,,,,,,,,,15,,69,0
19259,note_on,,59,0,10,,,,,,,,,,,,,,,,15,,59,0
19259,note_on,,59,0,8,,,,,,,,,,,,,,,,11,,83,0
19259,note_on,,59,0,5,,,,,,,,,,,,,,,,2,,59,0
19260,note_on,,1,0,5,,,,,,,,,,,,,,,,2,,64,72
19260,note_on,,0,0,10,,,,,,,,,,,,,,,,15,,64,72
19260,note_on,,0,0,10,,,,,,,,,,,,,,,,15,,68,72
19260,note_on,,1,0,10,,,,,,,,,,,,,,,,15,,64,72
19260,note_on,,1,0,8,,,,,,,,,,,,,,,,11,,80,72
19260,note_on,,1,0,7,,,,,,,,,,,,,,,,10,,80,72
19260,note_on,,1,0,9,,,,,,,,,,,,,,,,13,,64,72
19274,note_on,,14,0,8,,,,,,,,,,,,,,,,11,,80,0
19274,note_on,,14,0,7,,,,,,,,,,,,,,,,10,,80,0
19275,note_on,,1,0,8,,,,,,,,,,,,,,,,11,,81,72
19275,note_on,,1,0,7,,,,,,,,,,,,,,,,10,,81,72
19289,note_on,,14,0,8,,,,,,,,,,,,,,,,11,,81,0
19289,note_on,,14,0,7,,,,,,,,,,,,,,,,10,,81,0
19290,note_on,,1,0,7,,,,,,,,,,,,,,,,10,,80,72
19290,note_on,,1,0,8,,,,,,,,,,,,,,,,11,,80,72
19304,note_on,,14,0,7,,,,,,,,,,,,,,,,10,,80,0
19304,note_on,,14,0,8,,,,,,,,,,,,,,,,11,,80,0
19305,note_on,,1,0,7,,,,,,,,,,,,,,,,10,,81,72
19305,note_on,,1,0,8,,,,,,,,,,,,,,,,11,,81,72
19319,note_on,,59,0,9,,,,,,,,,,,,,,,,13,,64,0
19319,note_on,,59,0,10,,,,,,,,,,,,,,,,15,,74,0
19319,note_on,,0,0,10,,,,,,,,,,,,,,,,15,,64,0
19319,note_on,,14,0,7,,,,,,,,,,,,,,,,10,,81,0
19319,note_on,,59,0,5,,,,,,,,,,,,,,,,2,,64,0
19319,note_on,,14,0,8,,,,,,,,,,,,,,,,11,,81,0
19320,note_on,,1,0,8,,,,,,,,,,,,,,,,11,,80,72
19320,note_on,,1,0,7,,,,,,,,,,,,,,,,10,,80,72
19320,note_on,,1,0,5,,,,,,,,,,,,,,,,2,,62,72
19320,note_on,,1,0,9,,,,,,,,,,,,,,,,13,,62,72
19320,note_on,,0,0,10,,,,,,,,,,,,,,,,15,,71,72
19320,note_on,,1,0,10,,,,,,,,,,,,,,,,15,,62,72
19334,note_on,,14,0,8,,,,,,,,,,,,,,,,11,,80,0
19334,note_on,,14,0,7,,,,,,,,,,,,,,,,10,,80,0
19335,note_on,,1,0,8,,,,,,,,,,,,,,,,11,,81,72
19335,note_on,,1,0,7,,,,,,,,,,,,,,,,10,,81,72
19349,note_on,,14,0,7,,,,,,,,,,,,,,,,10,,81,0
19349,note_on,,14,0,8,,,,,,,,,,,,,,,,11,,81,0
19350,note_on,,1,0,7,,,,,,,,,,,,,,,,10,,80,72
19350,note_on,,1,0,8,,,,,,,,,,,,,,,,11,,80,72
19364,note_on,,14,0,8,,,,,,,,,,,,,,,,11,,80,0
19364,note_on,,14,0,7,,,,,,,,,,,,,,,,10,,80,0
19365,note_on,,1,0,8,,,,,,,,,,,,,,,,11,,81,72
19365,note_on,,1,0,7,,,,,,,,,,,,,,,,10,,81,72
19379,note_on,,59,0,10,,,,,,,,,,,,,,,,15,,62,0
19379,note_on,,59,0,9,,,,,,,,,,,,,,,,13,,62,0
19379,note_on,,14,0,7,,,,,,,,,,,,,,,,10,,81,0
19379,note_on,,59,0,5,,,,,,,,,,,,,,,,2,,62,0
19379,note_on,,0,0,10,,,,,,,,,,,,,,,,15,,71,0
19379,note_on,,14,0,8,,,,,,,,,,,,,,,,11,,81,0
19380,note_on,,1,0,10,,,,,,,,,,,,,,,,15,,64,72
19380,note_on,,1,0,5,,,,,,,,,,,,,,,,2,,64,72
19380,note_on,,1,0,7,,,,,,,,,,,,,,,,10,,80,72
19380,note_on,,1,0,9,,,,,,,,,,,,,,,,13,,64,72
19380,note_on,,0,0,10,,,,,,,,,,,,,,,,15,,73,72
19380,note_on,,1,0,8,,,,,,,,,,,,,,,,11,,80,72
19394,note_on,,14,0,7,,,,,,,,,,,,,,,,10,,80,0
19394,note_on,,14,0,8,,,,,,,,,,,,,,,,11,,80,0
19395,note_on,,1,0,8,,,,,,,,,,,,,,,,11,,81,72
19395,note_on,,1,0,7,,,,,,,,,,,,,,,,10,,81,72
19409,note_on,,14,0,7,,,,,,,,,,,,,,,,10,,81,0
19409,note_on,,14,0,8,,,,,,,,,,,,,,,,11,,81,0
19410,note_on,,1,0,7,,,,,,,,,,,,,,,,10,,78,72
19410,note_on,,1,0,8,,,,,,,,,,,,,,,,11,,78,72
19424,note_on,,14,0,7,,,,,,,,,,,,,,,,10,,78,0
19424,note_on,,14,0,8,,,,,,,,,,,,,,,,11,,78,0
19425,note_on,,1,0,8,,,,,,,,,,,,,,,,11,,80,72
19425,note_on,,1,0,7,,,,,,,,,,,,,,,,10,,80,72
19439,note_on,,0,0,10,,,,,,,,,,,,,,,,15,,73,0
19439,note_on,,59,0,10,,,,,,,,,,,,,,,,15,,64,0
19439,note_on,,59,0,5,,,,,,,,,,,,,,,,2,,64,0
19439,note_on,,14,0,8,,,,,,,,,,,,,,,,11,,80,0
19439,note_on,,59,0,9,,,,,,,,,,,,,,,,13,,64,0
19439,note_on,,14,0,7,,,,,,,,,,,,,,,,10,,80,0
19440,note_on,,1,0,5,,,,,,,,,,,,,,,,2,,52,72
19440,note_on,,1,0,9,,,,,,,,,,,,,,,,13,,52,72
19440,note_on,,1,0,8,,,,,,,,,,,,,,,,11,,81,72
19440,note_on,,0,0,10,,,,,,,,,,,,,,,,15,,74,72
19440,note_on,,1,0,10,,,,,,,,,,,,,,,,15,,52,72
19440,note_on,,1,0,7,,,,,,,,,,,,,,,,10,,81,72
19499,note_on,,59,0,8,,,,,,,,,,,,,,,,11,,81,0
19499,note_on,,0,0,10,,,,,,,,,,,,,,,,15,,74,0
19499,note_on,,59,0,10,,,,,,,,,,,,,,,,15,,68,0
19499,note_on,,0,0,10,,,,,,,,,,,,,,,,15,,64,0
19499,note_on,,0,0,10,,,,,,,,,,,,,,,,15,,52,0
19499,note_on,,59,0,9,,,,,,,,,,,,,,,,13,,52,0
19499,note_on,,59,0,5,,,,,,,,,,,,,,,,2,,52,0
19499,note_on,,59,0,7,,,,,,,,,,,,,,,,10,,81,0
19500,note_on,,0,0,10,,,,,,,,,,,,,,,,15,,57,72
19500,note_on,,1,0,5,,,,,,,,,,,,,,,,2,,54,72
19500,note_on,,1,0,10,,,,,,,,,,,,,,,,15,,54,72
19500,note_on,,1,0,8,,,,,,,,,,,,,,,,11,,81,72
19500,note_on,,1,0,7,,,,,,,,,,,,,,,,10,,81,72
19500,note_on,,1,0,9,,,,,,,,,,,,,,,,13,,54,72
19515,note_on,,15,0,10,,,,,,,,,,,,,,,,15,,61,72
19530,note_on,,15,0,10,,,,,,,,,,,,,,,,15,,69,72
19545,note_on,,15,0,10,,,,,,,,,,,,,,,,15,,73,72
19559,note_on,,59,0,8,,,,,,,,,,,,,,,,11,,81,0
19559,note_on,,59,0,7,,,,,,,,,,,,,,,,10,,81,0
19560,note_on,,1,0,8,,,,,,,,,,,,,,,,11,,69,72
19560,note_on,,1,0,7,,,,,,,,,,,,,,,,10,,69,72
19619,note_on,,0,0,10,,,,,,,,,,,,,,,,15,,57,0
19619,note_on,,74,0,10,,,,,,,,,,,,,,,,15,,54,0
19619,note_on,,0,0,10,,,,,,,,,,,,,,,,15,,69,0
19619,note_on,,0,0,10,,,,,,,,,,,,,,,,15,,73,0
19619,note_on,,119,0,9,,,,,,,,,,,,,,,,13,,54,0
19619,note_on,,0,0,10,,,,,,,,,,,,,,,,15,,61,0
19619,note_on,,119,0,5,,,,,,,,,,,,,,,,2,,54,0
19619,note_on,,59,0,7,,,,,,,,,,,,,,,,10,,69,0
19619,note_on,,59,0,8,,,,,,,,,,,,,,,,11,,69,0
19620,note_on,,1,0,8,,,,,,,,,,,,,,,,11,,74,72
19620,note_on,,1,0,7,,,,,,,,,,,,,,,,10,,74,72
19680,note_on,,0,0,10,,,,,,,,,,,,,,,,15,,62,72
19680,note_on,,0,0,10,,,,,,,,,,,,,,,,15,,66,72
19680,note_on,,0,0,10,,,,,,,,,,,,,,,,15,,71,72
19680,note_on,,61,0,10,,,,,,,,,,,,,,,,15,,59,72
19680,note_on,,61,0,5,,,,,,,,,,,,,,,,2,,59,72
19680,note_on,,61,0,9,,,,,,,,,,,,,,,,13,,59,72
19739,note_on,,59,0,9,,,,,,,,,,,,,,,,13,,59,0
19739,note_on,,59,0,10,,,,,,,,,,,,,,,,15,,59,0
19739,note_on,,0,0,10,,,,,,,,,,,,,,,,15,,66,0
19739,note_on,,0,0,10,,,,,,,,,,,,,,,,15,,62,0
19739,note_on,,59,0,5,,,,,,,,,,,,,,,,2,,59,0
19740,note_on,,1,0,9,,,,,,,,,,,,,,,,13,,52,72
19740,note_on,,1,0,5,,,,,,,,,,,,,,,,2,,52,72
19740,note_on,,0,0,10,,,,,,,,,,,,,,,,15,,59,72
19740,note_on,,1,0,10,,,,,,,,,,,,,,,,15,,52,72
19740,note_on,,0,0,10,,,,,,,,,,,,,,,,15,,68,72
19740,note_on,,0,0,10,,,,,,,,,,,,,,,,15,,64,72
19799,note_on,,179,0,7,,,,,,,,,,,,,,,,10,,74,0
19799,note_on,,179,0,8,,,,,,,,,,,,,,,,11,,74,0
19800,note_on,,1,0,7,,,,,,,,,,,,,,,,10,,76,72
19800,note_on,,1,0,8,,,,,,,,,,,,,,,,11,,76,72
19859,note_on,,119,0,10,,,,,,,,,,,,,,,,15,,71,0
19859,note_on,,59,0,7,,,,,,,,,,,,,,,,10,,76,0
19859,note_on,,59,0,8,,,,,,,,,,,,,,,,11,,76,0
19859,note_on,,0,0,10,,,,,,,,,,,,,,,,15,,59,0
19859,note_on,,0,0,10,,,,,,,,,,,,,,,,15,,52,0
19859,note_on,,0,0,10,,,,,,,,,,,,,,,,15,,68,0
19859,note_on,,119,0,5,,,,,,,,,,,,,,,,2,,52,0
19859,note_on,,0,0,10,,,,,,,,,,,,,,,,15,,64,0
19859,note_on,,119,0,9,,,,,,,,,,,,,,,,13,,52,0
19860,note_on,,1,0,7,,,,,,,,,,,,,,,,10,,73,72
19860,note_on,,1,0,8,,,,,,,,,,,,,,,,11,,73,72
19920,note_on,,61,0,9,,,,,,,,,,,,,,,,13,,56,72
19920,note_on,,61,0,5,,,,,,,,,,,,,,,,2,,56,72
19920,note_on,,61,0,10,,,,,,,,,,,,,,,,15,,56,72
19920,note_on,,0,0,10,,,,,,,,,,,,,,,,15,,62,72
19920,note_on,,0,0,10,,,,,,,,,,,,,,,,15,,64,72
19949,note_on,,89,0,8,,,,,,,,,,,,,,,,11,,73,0
19949,note_on,,89,0,7,,,,,,,,,,,,,,,,10,,73,0
19950,note_on,,1,0,7,,,,,,,,,,,,,,,,10,,71,72
19950,note_on,,1,0,8,,,,,,,,,,,,,,,,11,,71,72
19979,note_on,,29,0,7,,,,,,,,,,,,,,,,10,,71,0
19979,note_on,,0,0,10,,,,,,,,,,,,,,,,15,,62,0
19979,note_on,,59,0,5,,,,,,,,,,,,,,,,2,,56,0
19979,note_on,,59,0,10,,,,,,,,,,,,,,,,15,,56,0
19979,note_on,,59,0,9,,,,,,,,,,,,,,,,13,,56,0
19979,note_on,,29,0,8,,,,,,,,,,,,,,,,11,,71,0
19980,note_on,,0,0,10,,,,,,,,,,,,,,,,15,,61,72
19980,note_on,,1,0,10,,,,,,,,,,,,,,,,15,,57,72
19980,note_on,,1,0,7,,,,,,,,,,,,,,,,10,,73,72
19980,note_on,,1,0,9,,,,,,,,,,,,,,,,13,,57,72
19980,note_on,,1,0,8,,,,,,,,,,,,,,,,11,,73,72
19980,note_on,,1,0,5,,,,,,,,,,,,,,,,2,,57,72
20039,note_on,,59,0,8,,,,,,,,,,,,,,,,11,,73,0
20039,note_on,,0,0,10,,,,,,,,,,,,,,,,15,,61,0
20039,note_on,,0,0,10,,,,,,,,,,,,,,,,15,,57,0
20039,note_on,,59,0,9,,,,,,,,,,,,,,,,13,,57,0
20039,note_on,,59,0,10,,,,,,,,,,,,,,,,15,,64,0
20039,note_on,,59,0,5,,,,,,,,,,,,,,,,2,,57,0
20039,note_on,,59,0,7,,,,,,,,,,,,,,,,10,,73,0
20040,note_on,,1,0,7,,,,,,,,,,,,,,,,10,,68,72
20040,note_on,,1,0,5,,,,,,,,,,,,,,,,2,,52,72
20040,note_on,,1,0,8,,,,,,,,,,,,,,,,11,,68,72
20040,note_on,,1,0,10,,,,,,,,,,,,,,,,15,,52,72
20040,note_on,,0,0,10,,,,,,,,,,,,,,,,15,,62,72
20040,note_on,,0,0,10,,,,,,,,,,,,,,,,15,,59,72
20040,note_on,,1,0,9,,,,,,,,,,,,,,,,13,,52,72
20099,note_on,,59,0,10,,,,,,,,,,,,,,,,15,,52,0
20099,note_on,,0,0,10,,,,,,,,,,,,,,,,15,,59,0
20099,note_on,,59,0,7,,,,,,,,,,,,,,,,10,,68,0
20099,note_on,,0,0,10,,,,,,,,,,,,,,,,15,,62,0
20099,note_on,,59,0,9,,,,,,,,,,,,,,,,13,,52,0
20099,note_on,,59,0,8,,,,,,,,,,,,,,,,11,,68,0
20099,note_on,,59,0,5,,,,,,,,,,,,,,,,2,,52,0
20100,note_on,,0,0,10,,,,,,,,,,,,,,,,15,,61,72
20100,note_on,,1,0,7,,,,,,,,,,,,,,,,10,,69,72
20100,note_on,,1,0,9,,,,,,,,,,,,,,,,13,,54,72
20100,note_on,,1,0,10,,,,,,,,,,,,,,,,15,,54,72
20100,note_on,,1,0,8,,,,,,,,,,,,,,,,11,,69,72
20100,note_on,,1,0,5,,,,,,,,,,,,,,,,2,,54,72
20100,note_on,,0,0,10,,,,,,,,,,,,,,,,15,,57,72
20159,note_on,,59,0,8,,,,,,,,,,,,,,,,11,,69,0
20159,note_on,,59,0,5,,,,,,,,,,,,,,,,2,,54,0
20159,note_on,,0,0,10,,,,,,,,,,,,,,,,15,,57,0
20159,note_on,,59,0,9,,,,,,,,,,,,,,,,13,,54,0
20159,note_on,,0,0,10,,,,,,,,,,,,,,,,15,,61,0
20159,note_on,,59,0,10,,,,,,,,,,,,,,,,15,,54,0
20159,note_on,,59,0,7,,,,,,,,,,,,,,,,10,,69,0
20160,note_on,,1,0,7,,,,,,,,,,,,,,,,10,,66,72
20160,note_on,,1,0,5,,,,,,,,,,,,,,,,2,,50,72
20160,note_on,,1,0,9,,,,,,,,,,,,,,,,13,,50,72
20160,note_on,,0,0,10,,,,,,,,,,,,,,,,15,,62,72
20160,note_on,,0,0,10,,,,,,,,,,,,,,,,15,,66,72
20160,note_on,,0,0,10,,,,,,,,,,,,,,,,15,,57,72
20160,note_on,,1,0,10,,,,,,,,,,,,,,,,15,,50,72
20160,note_on,,1,0,8,,,,,,,,,,,,,,,,11,,66,72
20219,note_on,,59,0,8,,,,,,,,,,,,,,,,11,,66,0
20219,note_on,,59,0,9,,,,,,,,,,,,,,,,13,,50,0
20219,note_on,,59,0,7,,,,,,,,,,,,,,,,10,,66,0
20219,note_on,,59,0,10,,,,,,,,,,,,,,,,15,,50,0
20219,note_on,,0,0,10,,,,,,,,,,,,,,,,15,,66,0
20219,note_on,,59,0,5,,,,,,,,,,,,,,,,2,,50,0
20219,note_on,,0,0,10,,,,,,,,,,,,,,,,15,,57,0
20219,note_on,,0,0,10,,,,,,,,,,,,,,,,15,,62,0
20220,note_on,,1,0,9,,,,,,,,,,,,,,,,13,,52,72
20220,note_on,,1,0,5,,,,,,,,,,,,,,,,2,,52,72
20220,note_on,,1,0,10,,,,,,,,,,,,,,,,15,,52,72
20220,note_on,,0,0,10,,,,,,,,,,,,,,,,15,,64,72
20220,note_on,,0,0,10,,,,,,,,,,,,,,,,15,,59,72
20220,note_on,,1,0,7,,,,,,,,,,,,,,,,10,,68,72
20220,note_on,,0,0,10,,,,,,,,,,,,,,,,15,,56,72
20220,note_on,,1,0,8,,,,,,,,,,,,,,,,11,,68,72
20234,note_on,,14,0,8,,,,,,,,,,,,,,,,11,,68,0
20234,note_on,,14,0,7,,,,,,,,,,,,,,,,10,,68,0
20235,note_on,,1,0,8,,,,,,,,,,,,,,,,11,,69,72
20235,note_on,,1,0,7,,,,,,,,,,,,,,,,10,,69,72
20249,note_on,,14,0,7,,,,,,,,,,,,,,,,10,,69,0
20249,note_on,,14,0,8,,,,,,,,,,,,,,,,11,,69,0
20250,note_on,,1,0,7,,,,,,,,,,,,,,,,10,,68,72
20250,note_on,,1,0,8,,,,,,,,,,,,,,,,11,,68,72
20264,note_on,,14,0,7,,,,,,,,,,,,,,,,10,,68,0
20264,note_on,,14,0,8,,,,,,,,,,,,,,,,11,,68,0
20265,note_on,,1,0,7,,,,,,,,,,,,,,,,10,,69,72
20265,note_on,,1,0,8,,,,,,,,,,,,,,,,11,,69,72
20279,note_on,,14,0,7,,,,,,,,,,,,,,,,10,,69,0
20279,note_on,,14,0,8,,,,,,,,,,,,,,,,11,,69,0
20280,note_on,,1,0,7,,,,,,,,,,,,,,,,10,,68,72
20280,note_on,,1,0,8,,,,,,,,,,,,,,,,11,,68,72
20294,note_on,,14,0,7,,,,,,,,,,,,,,,,10,,68,0
20294,note_on,,14,0,8,,,,,,,,,,,,,,,,11,,68,0
20295,note_on,,1,0,8,,,,,,,,,,,,,,,,11,,69,72
20295,note_on,,1,0,7,,,,,,,,,,,,,,,,10,,69,72
20309,note_on,,14,0,8,,,,,,,,,,,,,,,,11,,69,0
20309,note_on,,14,0,7,,,,,,,,,,,,,,,,10,,69,0
20310,note_on,,1,0,7,,,,,,,,,,,,,,,,10,,68,72
20310,note_on,,1,0,8,,,,,,,,,,,,,,,,11,,68,72
20324,note_on,,14,0,8,,,,,,,,,,,,,,,,11,,68,0
20324,note_on,,14,0,7,,,,,,,,,,,,,,,,10,,68,0
20325,note_on,,1,0,8,,,,,,,,,,,,,,,,11,,69,72
20325,note_on,,1,0,7,,,,,,,,,,,,,,,,10,,69,72
20339,note_on,,14,0,8,,,,,,,,,,,,,,,,11,,69,0
20339,note_on,,119,0,10,,,,,,,,,,,,,,,,15,,52,0
20339,note_on,,119,0,9,,,,,,,,,,,,,,,,13,,52,0
20339,note_on,,14,0,7,,,,,,,,,,,,,,,,10,,69,0
20339,note_on,,0,0,10,,,,,,,,,,,,,,,,15,,64,0
20339,note_on,,119,0,5,,,,,,,,,,,,,,,,2,,52,0
20340,note_on,,1,0,10,,,,,,,,,,,,,,,,15,,40,72
20340,note_on,,1,0,5,,,,,,,,,,,,,,,,2,,40,72
20340,note_on,,0,0,10,,,,,,,,,,,,,,,,15,,62,72
20340,note_on,,1,0,7,,,,,,,,,,,,,,,,10,,68,72
20340,note_on,,1,0,8,,,,,,,,,,,,,,,,11,,68,72
20340,note_on,,1,0,9,,,,,,,,,,,,,,,,13,,40,72
20354,note_on,,14,0,8,,,,,,,,,,,,,,,,11,,68,0
20354,note_on,,14,0,7,,,,,,,,,,,,,,,,10,,68,0
20355,note_on,,1,0,8,,,,,,,,,,,,,,,,11,,69,72
20355,note_on,,1,0,7,,,,,,,,,,,,,,,,10,,69,72
20369,note_on,,14,0,8,,,,,,,,,,,,,,,,11,,69,0
20369,note_on,,14,0,7,,,,,,,,,,,,,,,,10,,69,0
20370,note_on,,1,0,8,,,,,,,,,,,,,,,,11,,66,72
20370,note_on,,1,0,7,,,,,,,,,,,,,,,,10,,66,72
20384,note_on,,14,0,8,,,,,,,,,,,,,,,,11,,66,0
20384,note_on,,14,0,7,,,,,,,,,,,,,,,,10,,66,0
20385,note_on,,1,0,8,,,,,,,,,,,,,,,,11,,68,72
20385,note_on,,1,0,7,,,,,,,,,,,,,,,,10,,68,72
20399,note_on,,14,0,7,,,,,,,,,,,,,,,,10,,68,0
20399,note_on,,14,0,8,,,,,,,,,,,,,,,,11,,68,0
20400,note_on,,1,0,8,,,,,,,,,,,,,,,,11,,69,72
20400,note_on,,1,0,7,,,,,,,,,,,,,,,,10,,69,72
20459,note_on,,119,0,10,,,,,,,,,,,,,,,,15,,59,0
20459,note_on,,59,0,8,,,,,,,,,,,,,,,,11,,69,0
20459,note_on,,59,0,7,,,,,,,,,,,,,,,,10,,69,0
20459,note_on,,0,0,10,,,,,,,,,,,,,,,,15,,62,0
20459,note_on,,119,0,9,,,,,,,,,,,,,,,,13,,40,0
20459,note_on,,0,0,10,,,,,,,,,,,,,,,,15,,56,0
20459,note_on,,0,0,10,,,,,,,,,,,,,,,,15,,40,0
20459,note_on,,119,0,5,,,,,,,,,,,,,,,,2,,40,0
20460,note_on,,0,0,10,,,,,,,,,,,,,,,,15,,57,72
20460,note_on,,1,0,8,,,,,,,,,,,,,,,,11,,69,72
20460,note_on,,1,0,10,,,,,,,,,,,,,,,,15,,45,72
20460,note_on,,1,0,5,,,,,,,,,,,,,,,,2,,45,72
20460,note_on,,0,0,10,,,,,,,,,,,,,,,,15,,61,72
20460,note_on,,1,0,9,,,,,,,,,,,,,,,,13,,45,72
20460,note_on,,1,0,7,,,,,,,,,,,,,,,,10,,69,72
20460,note_on,,0,0,10,,,,,,,,,,,,,,,,15,,52,72
20579,note_on,,119,0,7,,,,,,,,,,,,,,,,10,,69,0
20579,note_on,,119,0,8,,,,,,,,,,,,,,,,11,,69,0
20580,note_on,,1,0,7,,,,,,,,,,,,,,,,10,,57,72
20580,note_on,,1,0,8,,,,,,,,,,,,,,,,11,,57,72
20699,note_on,,0,0,10,,,,,,,,,,,,,,,,15,,57,0
20699,note_on,,239,0,10,,,,,,,,,,,,,,,,15,,45,0
20699,note_on,,0,0,10,,,,,,,,,,,,,,,,15,,61,0
20699,note_on,,239,0,9,,,,,,,,,,,,,,,,13,,45,0
20699,note_on,,239,0,5,,,,,,,,,,,,,,,,2,,45,0
20699,end_of_track,,0,1,5,,,,,,,,,,,,,,,,,,,
20699,end_of_track,,0,1,9,,,,,,,,,,,,,,,,,,,
20699,note_on,,119,0,7,,,,,,,,,,,,,,,,10,,57,0
20699,end_of_track,,0,1,7,,,,,,,,,,,,,,,,,,,
20699,note_on,,119,0,8,,,,,,,,,,,,,,,,11,,57,0
20699,end_of_track,,0,1,8,,,,,,,,,,,,,,,,,,,
20699,note_on,,0,0,10,,,,,,,,,,,,,,,,15,,52,0
20699,end_of_track,,0,1,10,,,,,,,,,,,,,,,,,,,
21180,end_of_track,,0,1,0,,,,,,,,,,,,,,,,,,,
21180,set_tempo,,20640,1,0,,,,,,,,,500000,,,,,,,,,,
