tick,type,data,time,meta,track,frame_rate,hours,minutes,seconds,frames,sub_frames,port,key,tempo,numerator,denominator,clocks_per_click,notated_32nd_notes_per_beat,control,value,channel,program,note,velocity
0,sequencer_specific,"(0, 0, 91, 35, 1, 0, 5, 4, 35, 0)",0,1,0,,,,,,,,,,,,,,,,,,,
0,program_change,,0,0,7,,,,,,,,,,,,,,,,8,60,,
0,control_change,,0,0,7,,,,,,,,,,,,,,10,80,8,,,
0,control_change,,0,0,7,,,,,,,,,,,,,,7,96,8,,,
0,control_change,,0,0,7,,,,,,,,,,,,,,11,127,8,,,
0,midi_port,,0,1,7,,,,,,,0,,,,,,,,,,,,
0,track_name,,0,1,7,,,,,,,,,,,,,,,,,,,
0,track_name,,0,1,12,,,,,,,,,,,,,,,,,,,
0,midi_port,,0,1,12,,,,,,,0,,,,,,,,,,,,
0,control_change,,0,0,12,,,,,,,,,,,,,,11,127,15,,,
0,control_change,,0,0,12,,,,,,,,,,,,,,10,90,15,,,
0,note_on,,0,0,11,,,,,,,,,,,,,,,,13,,50,72
0,control_change,,0,0,12,,,,,,,,,,,,,,7,96,15,,,
0,note_on,,0,0,12,,,,,,,,,,,,,,,,15,,50,72
0,note_on,,0,0,12,,,,,,,,,,,,,,,,15,,69,72
0,note_on,,0,0,12,,,,,,,,,,,,,,,,15,,66,72
0,note_on,,0,0,12,,,,,,,,,,,,,,,,15,,62,72
0,midi_port,,0,1,9,,,,,,,0,,,,,,,,,,,,
0,note_on,,0,0,6,,,,,,,,,,,,,,,,3,,62,72
0,program_change,,0,0,6,,,,,,,,,,,,,,,,3,56,,
0,control_change,,0,0,6,,,,,,,,,,,,,,7,96,3,,,
0,control_change,,0,0,6,,,,,,,,,,,,,,10,60,3,,,
0,control_change,,0,0,6,,,,,,,,,,,,,,11,127,3,,,
0,program_change,,0,0,12,,,,,,,,,,,,,,,,15,6,,
0,midi_port,,0,1,6,,,,,,,0,,,,,,,,,,,,
0,program_change,,0,0,11,,,,,,,,,,,,,,,,13,48,,
0,control_change,,0,0,11,,,,,,,,,,,,,,10,96,13,,,
0,control_change,,0,0,9,,,,,,,,,,,,,,11,127,11,,,
0,control_change,,0,0,9,,,,,,,,,,,,,,10,24,11,,,
0,control_change,,0,0,9,,,,,,,,,,,,,,7,96,11,,,
0,program_change,,0,0,9,,,,,,,,,,,,,,,,11,48,,
0,note_on,,0,0,9,,,,,,,,,,,,,,,,11,,57,72
0,note_on,,0,0,8,,,,,,,,,,,,,,,,10,,62,72
0,program_change,,0,0,8,,,,,,,,,,,,,,,,10,48,,
0,control_change,,0,0,8,,,,,,,,,,,,,,7,96,10,,,
0,control_change,,0,0,8,,,,,,,,,,,,,,10,48,10,,,
0,control_change,,0,0,8,,,,,,,,,,,,,,11,127,10,,,
0,control_change,,0,0,11,,,,,,,,,,,,,,7,96,13,,,
0,midi_port,,0,1,8,,,,,,,0,,,,,,,,,,,,
0,track_name,,0,1,10,,,,,,,,,,,,,,,,,,,
0,midi_port,,0,1,10,,,,,,,0,,,,,,,,,,,,
0,control_change,,0,0,10,,,,,,,,,,,,,,11,127,12,,,
0,control_change,,0,0,10,,,,,,,,,,,,,,10,80,12,,,
0,control_change,,0,0,10,,,,,,,,,,,,,,7,96,12,,,
0,program_change,,0,0,10,,,,,,,,,,,,,,,,12,48,,
0,note_on,,0,0,10,,,,,,,,,,,,,,,,12,,54,72
0,track_name,,0,1,11,,,,,,,,,,,,,,,,,,,
0,midi_port,,0,1,11,,,,,,,0,,,,,,,,,,,,
0,control_change,,0,0,11,,,,,,,,,,,,,,11,127,13,,,
0,track_name,,0,1,8,,,,,,,,,,,,,,,,,,,
0,track_name,,0,1,6,,,,,,,,,,,,,,,,,,,
0,track_name,,0,1,9,,,,,,,,,,,,,,,,,,,
0,key_signature,,0,1,0,,,,,,,,D,,,,,,,,,,,
0,smpte_offset,,0,1,0,25,32,0,3,0,0,,,,,,,,,,,,,
0,midi_port,,0,1,0,,,,,,,0,,,,,,,,,,,,
0,time_signature,,0,1,0,,,,,,,,,,4,4,24,8,,,,,,
0,set_tempo,,0,1,0,,,,,,,,,545454,,,,,,,,,,
0,note_on,,0,0,5,,,,,,,,,,,,,,,,2,,50,72
0,instrument_name,,0,1,0,,,,,,,,,,,,,,,,,,,
0,control_change,,0,0,5,,,,,,,,,,,,,,7,96,2,,,
0,control_change,,0,0,5,,,,,,,,,,,,,,10,64,2,,,
0,control_change,,0,0,5,,,,,,,,,,,,,,11,127,2,,,
0,midi_port,,0,1,5,,,,,,,0,,,,,,,,,,,,
0,track_name,,0,1,5,,,,,,,,,,,,,,,,,,,
0,end_of_track,,0,1,4,,,,,,,,,,,,,,,,,,,
0,midi_port,,0,1,4,,,,,,,0,,,,,,,,,,,,
0,program_change,,0,0,5,,,,,,,,,,,,,,,,2,70,,
0,midi_port,,0,1,3,,,,,,,0,,,,,,,,,,,,
0,track_name,,0,1,1,,,,,,,,,,,,,,,,,,,
0,midi_port,,0,1,1,,,,,,,0,,,,,,,,,,,,
0,end_of_track,,0,1,1,,,,,,,,,,,,,,,,,,,
0,end_of_track,,0,1,3,,,,,,,,,,,,,,,,,,,
0,midi_port,,0,1,2,,,,,,,0,,,,,,,,,,,,
0,track_name,,0,1,2,,,,,,,,,,,,,,,,,,,
0,track_name,,0,1,0,,,,,,,,,,,,,,,,,,,
0,track_name,,0,1,3,,,,,,,,,,,,,,,,,,,
0,end_of_track,,0,1,2,,,,,,,,,,,,,,,,,,,
89,note_on,,89,0,9,,,,,,,,,,,,,,,,11,,57,0
89,note_on,,89,0,10,,,,,,,,,,,,,,,,12,,54,0
89,note_on,,89,0,8,,,,,,,,,,,,,,,,10,,62,0
89,note_on,,89,0,6,,,,,,,,,,,,,,,,3,,62,0
89,note_on,,89,0,5,,,,,,,,,,,,,,,,2,,50,0
89,note_on,,89,0,11,,,,,,,,,,,,,,,,13,,50,0
89,note_on,,89,0,12,,,,,,,,,,,,,,,,15,,50,0
90,note_on,,1,0,11,,,,,,,,,,,,,,,,13,,50,72
90,note_on,,1,0,10,,,,,,,,,,,,,,,,12,,54,72
90,note_on,,1,0,6,,,,,,,,,,,,,,,,3,,62,72
90,note_on,,1,0,12,,,,,,,,,,,,,,,,15,,50,72
90,note_on,,1,0,9,,,,,,,,,,,,,,,,11,,57,72
90,note_on,,1,0,5,,,,,,,,,,,,,,,,2,,50,72
90,note_on,,1,0,8,,,,,,,,,,,,,,,,10,,62,72
119,note_on,,29,0,11,,,,,,,,,,,,,,,,13,,50,0
119,note_on,,29,0,5,,,,,,,,,,,,,,,,2,,50,0
119,note_on,,29,0,12,,,,,,,,,,,,,,,,15,,69,0
119,note_on,,0,0,12,,,,,,,,,,,,,,,,15,,66,0
119,note_on,,0,0,12,,,,,,,,,,,,,,,,15,,62,0
119,note_on,,29,0,9,,,,,,,,,,,,,,,,11,,57,0
119,note_on,,0,0,12,,,,,,,,,,,,,,,,15,,50,0
119,note_on,,29,0,8,,,,,,,,,,,,,,,,10,,62,0
119,note_on,,29,0,10,,,,,,,,,,,,,,,,12,,54,0
119,note_on,,29,0,6,,,,,,,,,,,,,,,,3,,62,0
120,note_on,,0,0,12,,,,,,,,,,,,,,,,15,,66,72
120,note_on,,1,0,8,,,,,,,,,,,,,,,,10,,66,72
120,note_on,,1,0,10,,,,,,,,,,,,,,,,12,,57,72
120,note_on,,1,0,11,,,,,,,,,,,,,,,,13,,50,72
120,note_on,,1,0,6,,,,,,,,,,,,,,,,3,,66,72
120,note_on,,1,0,9,,,,,,,,,,,,,,,,11,,62,72
120,note_on,,1,0,5,,,,,,,,,,,,,,,,2,,50,72
120,note_on,,0,0,12,,,,,,,,,,,,,,,,15,,69,72
120,note_on,,0,0,12,,,,,,,,,,,,,,,,15,,74,72
120,note_on,,1,0,12,,,,,,,,,,,,,,,,15,,50,72
239,note_on,,119,0,5,,,,,,,,,,,,,,,,2,,50,0
239,note_on,,119,0,12,,,,,,,,,,,,,,,,15,,50,0
239,note_on,,119,0,8,,,,,,,,,,,,,,,,10,,66,0
239,note_on,,119,0,10,,,,,,,,,,,,,,,,12,,57,0
239,note_on,,0,0,12,,,,,,,,,,,,,,,,15,,74,0
239,note_on,,119,0,6,,,,,,,,,,,,,,,,3,,66,0
239,note_on,,0,0,12,,,,,,,,,,,,,,,,15,,69,0
239,note_on,,0,0,12,,,,,,,,,,,,,,,,15,,66,0
239,note_on,,119,0,9,,,,,,,,,,,,,,,,11,,62,0
239,note_on,,119,0,11,,,,,,,,,,,,,,,,13,,50,0
300,note_on,,61,0,5,,,,,,,,,,,,,,,,2,,50,72
300,note_on,,61,0,11,,,,,,,,,,,,,,,,13,,50,72
300,note_on,,61,0,9,,,,,,,,,,,,,,,,11,,62,72
300,note_on,,61,0,12,,,,,,,,,,,,,,,,15,,50,72
300,note_on,,61,0,10,,,,,,,,,,,,,,,,12,,57,72
330,note_on,,91,0,6,,,,,,,,,,,,,,,,3,,66,72
330,note_on,,91,0,8,,,,,,,,,,,,,,,,10,,66,72
359,note_on,,29,0,6,,,,,,,,,,,,,,,,3,,66,0
359,note_on,,59,0,11,,,,,,,,,,,,,,,,13,,50,0
359,note_on,,59,0,10,,,,,,,,,,,,,,,,12,,57,0
359,note_on,,59,0,5,,,,,,,,,,,,,,,,2,,50,0
359,note_on,,29,0,8,,,,,,,,,,,,,,,,10,,66,0
359,note_on,,59,0,12,,,,,,,,,,,,,,,,15,,50,0
359,note_on,,59,0,9,,,,,,,,,,,,,,,,11,,62,0
360,note_on,,1,0,11,,,,,,,,,,,,,,,,13,,50,72
360,note_on,,1,0,5,,,,,,,,,,,,,,,,2,,50,72
360,note_on,,1,0,12,,,,,,,,,,,,,,,,15,,69,72
360,note_on,,1,0,6,,,,,,,,,,,,,,,,3,,66,72
360,note_on,,0,0,12,,,,,,,,,,,,,,,,15,,50,72
360,note_on,,1,0,9,,,,,,,,,,,,,,,,11,,62,72
360,note_on,,1,0,10,,,,,,,,,,,,,,,,12,,57,72
360,note_on,,0,0,12,,,,,,,,,,,,,,,,15,,74,72
360,note_on,,0,0,12,,,,,,,,,,,,,,,,15,,78,72
360,note_on,,1,0,8,,,,,,,,,,,,,,,,10,,66,72
449,note_on,,89,0,5,,,,,,,,,,,,,,,,2,,50,0
449,note_on,,89,0,9,,,,,,,,,,,,,,,,11,,62,0
449,note_on,,89,0,8,,,,,,,,,,,,,,,,10,,66,0
449,note_on,,89,0,10,,,,,,,,,,,,,,,,12,,57,0
449,note_on,,89,0,12,,,,,,,,,,,,,,,,15,,50,0
449,note_on,,89,0,6,,,,,,,,,,,,,,,,3,,66,0
449,note_on,,89,0,11,,,,,,,,,,,,,,,,13,,50,0
450,note_on,,1,0,11,,,,,,,,,,,,,,,,13,,50,72
450,note_on,,1,0,9,,,,,,,,,,,,,,,,11,,62,72
450,note_on,,1,0,12,,,,,,,,,,,,,,,,15,,50,72
450,note_on,,1,0,5,,,,,,,,,,,,,,,,2,,50,72
450,note_on,,1,0,6,,,,,,,,,,,,,,,,3,,66,72
450,note_on,,1,0,10,,,,,,,,,,,,,,,,12,,57,72
450,note_on,,1,0,8,,,,,,,,,,,,,,,,10,,66,72
479,note_on,,29,0,8,,,,,,,,,,,,,,,,10,,66,0
479,note_on,,29,0,10,,,,,,,,,,,,,,,,12,,57,0
479,note_on,,29,0,5,,,,,,,,,,,,,,,,2,,50,0
479,note_on,,0,0,12,,,,,,,,,,,,,,,,15,,78,0
479,note_on,,29,0,11,,,,,,,,,,,,,,,,13,,50,0
479,note_on,,29,0,6,,,,,,,,,,,,,,,,3,,66,0
479,note_on,,29,0,9,,,,,,,,,,,,,,,,11,,62,0
479,note_on,,29,0,12,,,,,,,,,,,,,,,,15,,69,0
479,note_on,,0,0,12,,,,,,,,,,,,,,,,15,,74,0
479,note_on,,0,0,12,,,,,,,,,,,,,,,,15,,50,0
480,note_on,,1,0,6,,,,,,,,,,,,,,,,3,,69,72
480,note_on,,0,0,12,,,,,,,,,,,,,,,,15,,69,72
480,note_on,,0,0,12,,,,,,,,,,,,,,,,15,,49,72
480,note_on,,0,0,12,,,,,,,,,,,,,,,,15,,64,72
480,note_on,,1,0,10,,,,,,,,,,,,,,,,12,,57,72
480,note_on,,1,0,12,,,,,,,,,,,,,,,,15,,76,72
480,note_on,,1,0,9,,,,,,,,,,,,,,,,11,,64,72
480,note_on,,1,0,8,,,,,,,,,,,,,,,,10,,69,72
480,note_on,,1,0,11,,,,,,,,,,,,,,,,13,,49,72
480,time_signature,,480,1,0,,,,,,,,,,3,4,24,8,,,,,,
480,note_on,,1,0,5,,,,,,,,,,,,,,,,2,,49,72
599,note_on,,119,0,6,,,,,,,,,,,,,,,,3,,69,0
599,note_on,,119,0,10,,,,,,,,,,,,,,,,12,,57,0
599,note_on,,0,0,12,,,,,,,,,,,,,,,,15,,49,0
599,note_on,,0,0,12,,,,,,,,,,,,,,,,15,,64,0
599,note_on,,119,0,12,,,,,,,,,,,,,,,,15,,76,0
599,note_on,,119,0,11,,,,,,,,,,,,,,,,13,,49,0
599,note_on,,0,0,12,,,,,,,,,,,,,,,,15,,69,0
599,note_on,,119,0,8,,,,,,,,,,,,,,,,10,,69,0
599,note_on,,119,0,5,,,,,,,,,,,,,,,,2,,49,0
599,note_on,,119,0,9,,,,,,,,,,,,,,,,11,,64,0
660,note_on,,61,0,11,,,,,,,,,,,,,,,,13,,49,72
660,note_on,,61,0,5,,,,,,,,,,,,,,,,2,,49,72
660,note_on,,61,0,9,,,,,,,,,,,,,,,,11,,64,72
660,note_on,,61,0,12,,,,,,,,,,,,,,,,15,,49,72
660,note_on,,61,0,10,,,,,,,,,,,,,,,,12,,57,72
690,note_on,,91,0,8,,,,,,,,,,,,,,,,10,,69,72
690,note_on,,91,0,6,,,,,,,,,,,,,,,,3,,69,72
719,note_on,,59,0,9,,,,,,,,,,,,,,,,11,,64,0
719,note_on,,59,0,10,,,,,,,,,,,,,,,,12,,57,0
719,note_on,,29,0,6,,,,,,,,,,,,,,,,3,,69,0
719,note_on,,59,0,12,,,,,,,,,,,,,,,,15,,49,0
719,note_on,,59,0,11,,,,,,,,,,,,,,,,13,,49,0
719,note_on,,29,0,8,,,,,,,,,,,,,,,,10,,69,0
719,note_on,,59,0,5,,,,,,,,,,,,,,,,2,,49,0
720,note_on,,1,0,10,,,,,,,,,,,,,,,,12,,57,72
720,note_on,,1,0,8,,,,,,,,,,,,,,,,10,,69,72
720,note_on,,1,0,9,,,,,,,,,,,,,,,,11,,64,72
720,note_on,,1,0,6,,,,,,,,,,,,,,,,3,,69,72
720,note_on,,1,0,5,,,,,,,,,,,,,,,,2,,49,72
720,note_on,,1,0,11,,,,,,,,,,,,,,,,13,,49,72
720,note_on,,0,0,12,,,,,,,,,,,,,,,,15,,64,72
720,note_on,,0,0,12,,,,,,,,,,,,,,,,15,,49,72
720,note_on,,0,0,12,,,,,,,,,,,,,,,,15,,69,72
720,note_on,,1,0,12,,,,,,,,,,,,,,,,15,,61,72
809,note_on,,89,0,10,,,,,,,,,,,,,,,,12,,57,0
809,note_on,,89,0,11,,,,,,,,,,,,,,,,13,,49,0
809,note_on,,89,0,8,,,,,,,,,,,,,,,,10,,69,0
809,note_on,,89,0,12,,,,,,,,,,,,,,,,15,,49,0
809,note_on,,89,0,5,,,,,,,,,,,,,,,,2,,49,0
809,note_on,,89,0,6,,,,,,,,,,,,,,,,3,,69,0
809,note_on,,89,0,9,,,,,,,,,,,,,,,,11,,64,0
810,note_on,,1,0,12,,,,,,,,,,,,,,,,15,,49,72
810,note_on,,1,0,10,,,,,,,,,,,,,,,,12,,57,72
810,note_on,,1,0,5,,,,,,,,,,,,,,,,2,,49,72
810,note_on,,1,0,8,,,,,,,,,,,,,,,,10,,69,72
810,note_on,,1,0,11,,,,,,,,,,,,,,,,13,,49,72
810,note_on,,1,0,9,,,,,,,,,,,,,,,,11,,64,72
810,note_on,,1,0,6,,,,,,,,,,,,,,,,3,,69,72
839,note_on,,29,0,5,,,,,,,,,,,,,,,,2,,49,0
839,note_on,,29,0,8,,,,,,,,,,,,,,,,10,,69,0
839,note_on,,29,0,11,,,,,,,,,,,,,,,,13,,49,0
839,note_on,,0,0,12,,,,,,,,,,,,,,,,15,,64,0
839,note_on,,0,0,12,,,,,,,,,,,,,,,,15,,69,0
839,note_on,,0,0,12,,,,,,,,,,,,,,,,15,,49,0
839,note_on,,29,0,9,,,,,,,,,,,,,,,,11,,64,0
839,note_on,,29,0,12,,,,,,,,,,,,,,,,15,,61,0
839,note_on,,29,0,10,,,,,,,,,,,,,,,,12,,57,0
839,note_on,,29,0,6,,,,,,,,,,,,,,,,3,,69,0
840,note_on,,1,0,12,,,,,,,,,,,,,,,,15,,74,72
840,note_on,,0,0,12,,,,,,,,,,,,,,,,15,,47,72
840,note_on,,0,0,12,,,,,,,,,,,,,,,,15,,71,72
840,note_on,,0,0,12,,,,,,,,,,,,,,,,15,,66,72
840,note_on,,1,0,8,,,,,,,,,,,,,,,,10,,74,72
840,note_on,,1,0,10,,,,,,,,,,,,,,,,12,,54,72
840,note_on,,1,0,11,,,,,,,,,,,,,,,,13,,47,72
840,note_on,,1,0,9,,,,,,,,,,,,,,,,11,,66,72
840,note_on,,1,0,5,,,,,,,,,,,,,,,,2,,47,72
840,note_on,,1,0,6,,,,,,,,,,,,,,,,3,,74,72
1019,note_on,,179,0,10,,,,,,,,,,,,,,,,12,,54,0
1019,note_on,,179,0,12,,,,,,,,,,,,,,,,15,,47,0
1019,note_on,,179,0,5,,,,,,,,,,,,,,,,2,,47,0
1019,note_on,,179,0,11,,,,,,,,,,,,,,,,13,,47,0
1019,note_on,,179,0,6,,,,,,,,,,,,,,,,3,,74,0
1019,note_on,,179,0,9,,,,,,,,,,,,,,,,11,,66,0
1019,note_on,,179,0,8,,,,,,,,,,,,,,,,10,,74,0
1020,note_on,,1,0,8,,,,,,,,,,,,,,,,10,,76,72
1020,note_on,,1,0,12,,,,,,,,,,,,,,,,15,,47,72
1020,note_on,,1,0,9,,,,,,,,,,,,,,,,11,,67,72
1020,note_on,,1,0,10,,,,,,,,,,,,,,,,12,,62,72
1020,note_on,,1,0,11,,,,,,,,,,,,,,,,13,,47,72
1020,note_on,,1,0,6,,,,,,,,,,,,,,,,3,,76,72
1020,note_on,,1,0,5,,,,,,,,,,,,,,,,2,,47,72
1079,note_on,,59,0,6,,,,,,,,,,,,,,,,3,,76,0
1079,note_on,,59,0,5,,,,,,,,,,,,,,,,2,,47,0
1079,note_on,,59,0,10,,,,,,,,,,,,,,,,12,,62,0
1079,note_on,,59,0,8,,,,,,,,,,,,,,,,10,,76,0
1079,note_on,,59,0,12,,,,,,,,,,,,,,,,15,,74,0
1079,note_on,,59,0,9,,,,,,,,,,,,,,,,11,,67,0
1079,note_on,,0,0,12,,,,,,,,,,,,,,,,15,,71,0
1079,note_on,,0,0,12,,,,,,,,,,,,,,,,15,,66,0
1079,note_on,,0,0,12,,,,,,,,,,,,,,,,15,,47,0
1079,note_on,,59,0,11,,,,,,,,,,,,,,,,13,,47,0
1080,note_on,,1,0,12,,,,,,,,,,,,,,,,15,,45,72
1080,note_on,,1,0,5,,,,,,,,,,,,,,,,2,,45,72
1080,note_on,,1,0,10,,,,,,,,,,,,,,,,12,,62,72
1080,note_on,,1,0,8,,,,,,,,,,,,,,,,10,,78,72
1080,note_on,,1,0,11,,,,,,,,,,,,,,,,13,,45,72
1080,note_on,,1,0,6,,,,,,,,,,,,,,,,3,,78,72
1080,note_on,,1,0,9,,,,,,,,,,,,,,,,11,,66,72
1139,note_on,,59,0,8,,,,,,,,,,,,,,,,10,,78,0
1139,note_on,,59,0,11,,,,,,,,,,,,,,,,13,,45,0
1139,note_on,,59,0,6,,,,,,,,,,,,,,,,3,,78,0
1139,note_on,,59,0,10,,,,,,,,,,,,,,,,12,,62,0
1139,note_on,,59,0,5,,,,,,,,,,,,,,,,2,,45,0
1139,note_on,,59,0,12,,,,,,,,,,,,,,,,15,,45,0
1139,note_on,,59,0,9,,,,,,,,,,,,,,,,11,,66,0
1140,note_on,,1,0,11,,,,,,,,,,,,,,,,13,,43,72
1140,note_on,,1,0,5,,,,,,,,,,,,,,,,2,,43,72
1140,note_on,,1,0,12,,,,,,,,,,,,,,,,15,,43,72
1140,note_on,,1,0,8,,,,,,,,,,,,,,,,10,,79,72
1140,note_on,,1,0,10,,,,,,,,,,,,,,,,12,,64,72
1140,note_on,,1,0,9,,,,,,,,,,,,,,,,11,,64,72
1140,note_on,,1,0,6,,,,,,,,,,,,,,,,3,,79,72
1199,note_on,,59,0,8,,,,,,,,,,,,,,,,10,,79,0
1199,note_on,,59,0,6,,,,,,,,,,,,,,,,3,,79,0
1199,note_on,,59,0,10,,,,,,,,,,,,,,,,12,,64,0
1199,note_on,,59,0,9,,,,,,,,,,,,,,,,11,,64,0
1199,note_on,,59,0,5,,,,,,,,,,,,,,,,2,,43,0
1199,note_on,,59,0,12,,,,,,,,,,,,,,,,15,,43,0
1199,note_on,,59,0,11,,,,,,,,,,,,,,,,13,,43,0
1200,note_on,,1,0,6,,,,,,,,,,,,,,,,3,,81,72
1200,note_on,,0,0,12,,,,,,,,,,,,,,,,15,,74,72
1200,note_on,,1,0,5,,,,,,,,,,,,,,,,2,,42,72
1200,note_on,,1,0,8,,,,,,,,,,,,,,,,10,,81,72
1200,note_on,,0,0,12,,,,,,,,,,,,,,,,15,,42,72
1200,note_on,,0,0,12,,,,,,,,,,,,,,,,15,,69,72
1200,note_on,,1,0,12,,,,,,,,,,,,,,,,15,,78,72
1200,note_on,,1,0,10,,,,,,,,,,,,,,,,12,,66,72
1200,note_on,,1,0,9,,,,,,,,,,,,,,,,11,,62,72
1200,note_on,,0,0,12,,,,,,,,,,,,,,,,15,,81,72
1200,note_on,,1,0,11,,,,,,,,,,,,,,,,13,,42,72
1379,note_on,,179,0,11,,,,,,,,,,,,,,,,13,,42,0
1379,note_on,,179,0,5,,,,,,,,,,,,,,,,2,,42,0
1379,note_on,,179,0,6,,,,,,,,,,,,,,,,3,,81,0
1379,note_on,,179,0,12,,,,,,,,,,,,,,,,15,,42,0
1379,note_on,,179,0,9,,,,,,,,,,,,,,,,11,,62,0
1379,note_on,,179,0,10,,,,,,,,,,,,,,,,12,,66,0
1379,note_on,,179,0,8,,,,,,,,,,,,,,,,10,,81,0
1380,note_on,,1,0,9,,,,,,,,,,,,,,,,11,,69,72
1380,note_on,,1,0,11,,,,,,,,,,,,,,,,13,,54,72
1380,note_on,,1,0,5,,,,,,,,,,,,,,,,2,,54,72
1380,note_on,,1,0,8,,,,,,,,,,,,,,,,10,,79,72
1380,note_on,,1,0,10,,,,,,,,,,,,,,,,12,,62,72
1380,note_on,,1,0,6,,,,,,,,,,,,,,,,3,,79,72
1380,note_on,,1,0,12,,,,,,,,,,,,,,,,15,,54,72
1439,note_on,,59,0,6,,,,,,,,,,,,,,,,3,,79,0
1439,note_on,,59,0,8,,,,,,,,,,,,,,,,10,,79,0
1439,note_on,,59,0,10,,,,,,,,,,,,,,,,12,,62,0
1439,note_on,,59,0,9,,,,,,,,,,,,,,,,11,,69,0
1439,note_on,,59,0,12,,,,,,,,,,,,,,,,15,,78,0
1439,note_on,,59,0,11,,,,,,,,,,,,,,,,13,,54,0
1439,note_on,,0,0,12,,,,,,,,,,,,,,,,15,,69,0
1439,note_on,,0,0,12,,,,,,,,,,,,,,,,15,,74,0
1439,note_on,,0,0,12,,,,,,,,,,,,,,,,15,,54,0
1439,note_on,,0,0,12,,,,,,,,,,,,,,,,15,,81,0
1439,note_on,,59,0,5,,,,,,,,,,,,,,,,2,,54,0
1440,note_on,,1,0,10,,,,,,,,,,,,,,,,12,,62,72
1440,note_on,,1,0,12,,,,,,,,,,,,,,,,15,,55,72
1440,note_on,,1,0,9,,,,,,,,,,,,,,,,11,,71,72
1440,note_on,,1,0,5,,,,,,,,,,,,,,,,2,,55,72
1440,note_on,,1,0,11,,,,,,,,,,,,,,,,13,,55,72
1440,note_on,,1,0,8,,,,,,,,,,,,,,,,10,,78,72
1440,note_on,,1,0,6,,,,,,,,,,,,,,,,3,,78,72
1499,note_on,,59,0,11,,,,,,,,,,,,,,,,13,,55,0
1499,note_on,,59,0,9,,,,,,,,,,,,,,,,11,,71,0
1499,note_on,,59,0,6,,,,,,,,,,,,,,,,3,,78,0
1499,note_on,,59,0,5,,,,,,,,,,,,,,,,2,,55,0
1499,note_on,,59,0,12,,,,,,,,,,,,,,,,15,,55,0
1499,note_on,,59,0,8,,,,,,,,,,,,,,,,10,,78,0
1499,note_on,,59,0,10,,,,,,,,,,,,,,,,12,,62,0
1500,note_on,,1,0,10,,,,,,,,,,,,,,,,12,,61,72
1500,note_on,,1,0,8,,,,,,,,,,,,,,,,10,,76,72
1500,note_on,,1,0,11,,,,,,,,,,,,,,,,13,,57,72
1500,note_on,,1,0,9,,,,,,,,,,,,,,,,11,,73,72
1500,note_on,,1,0,12,,,,,,,,,,,,,,,,15,,57,72
1500,note_on,,1,0,5,,,,,,,,,,,,,,,,2,,57,72
1500,note_on,,1,0,6,,,,,,,,,,,,,,,,3,,76,72
1559,note_on,,59,0,6,,,,,,,,,,,,,,,,3,,76,0
1559,note_on,,59,0,10,,,,,,,,,,,,,,,,12,,61,0
1559,note_on,,59,0,11,,,,,,,,,,,,,,,,13,,57,0
1559,note_on,,59,0,9,,,,,,,,,,,,,,,,11,,73,0
1559,note_on,,59,0,5,,,,,,,,,,,,,,,,2,,57,0
1559,note_on,,59,0,8,,,,,,,,,,,,,,,,10,,76,0
1559,note_on,,59,0,12,,,,,,,,,,,,,,,,15,,57,0
1560,note_on,,1,0,10,,,,,,,,,,,,,,,,12,,59,72
1560,note_on,,1,0,12,,,,,,,,,,,,,,,,15,,71,72
1560,note_on,,0,0,12,,,,,,,,,,,,,,,,15,,66,72
1560,note_on,,1,0,11,,,,,,,,,,,,,,,,13,,59,72
1560,note_on,,1,0,8,,,,,,,,,,,,,,,,10,,74,72
1560,note_on,,0,0,12,,,,,,,,,,,,,,,,15,,74,72
1560,note_on,,1,0,6,,,,,,,,,,,,,,,,3,,74,72
1560,note_on,,1,0,5,,,,,,,,,,,,,,,,2,,59,72
1560,note_on,,0,0,12,,,,,,,,,,,,,,,,15,,59,72
1560,note_on,,1,0,9,,,,,,,,,,,,,,,,11,,66,72
1739,note_on,,179,0,5,,,,,,,,,,,,,,,,2,,59,0
1739,note_on,,179,0,6,,,,,,,,,,,,,,,,3,,74,0
1739,note_on,,179,0,11,,,,,,,,,,,,,,,,13,,59,0
1739,note_on,,179,0,12,,,,,,,,,,,,,,,,15,,59,0
1739,note_on,,179,0,9,,,,,,,,,,,,,,,,11,,66,0
1739,note_on,,179,0,8,,,,,,,,,,,,,,,,10,,74,0
1739,note_on,,179,0,10,,,,,,,,,,,,,,,,12,,59,0
1740,note_on,,1,0,6,,,,,,,,,,,,,,,,3,,74,72
1740,note_on,,1,0,12,,,,,,,,,,,,,,,,15,,57,72
1740,note_on,,1,0,8,,,,,,,,,,,,,,,,10,,74,72
1740,note_on,,1,0,9,,,,,,,,,,,,,,,,11,,66,72
1740,note_on,,1,0,5,,,,,,,,,,,,,,,,2,,57,72
1740,note_on,,1,0,11,,,,,,,,,,,,,,,,13,,57,72
1740,note_on,,1,0,10,,,,,,,,,,,,,,,,12,,61,72
1799,note_on,,59,0,8,,,,,,,,,,,,,,,,10,,74,0
1799,note_on,,0,0,12,,,,,,,,,,,,,,,,15,,57,0
1799,note_on,,59,0,9,,,,,,,,,,,,,,,,11,,66,0
1799,note_on,,0,0,12,,,,,,,,,,,,,,,,15,,74,0
1799,note_on,,0,0,12,,,,,,,,,,,,,,,,15,,66,0
1799,note_on,,59,0,11,,,,,,,,,,,,,,,,13,,57,0
1799,note_on,,59,0,10,,,,,,,,,,,,,,,,12,,61,0
1799,note_on,,59,0,12,,,,,,,,,,,,,,,,15,,71,0
1799,note_on,,59,0,6,,,,,,,,,,,,,,,,3,,74,0
1799,note_on,,59,0,5,,,,,,,,,,,,,,,,2,,57,0
1800,note_on,,1,0,9,,,,,,,,,,,,,,,,11,,67,72
1800,note_on,,1,0,12,,,,,,,,,,,,,,,,15,,55,72
1800,note_on,,1,0,5,,,,,,,,,,,,,,,,2,,55,72
1800,note_on,,1,0,6,,,,,,,,,,,,,,,,3,,76,72
1800,note_on,,1,0,10,,,,,,,,,,,,,,,,12,,59,72
1800,note_on,,1,0,11,,,,,,,,,,,,,,,,13,,55,72
1800,note_on,,1,0,8,,,,,,,,,,,,,,,,10,,76,72
1859,note_on,,59,0,5,,,,,,,,,,,,,,,,2,,55,0
1859,note_on,,59,0,9,,,,,,,,,,,,,,,,11,,67,0
1859,note_on,,59,0,11,,,,,,,,,,,,,,,,13,,55,0
1859,note_on,,59,0,8,,,,,,,,,,,,,,,,10,,76,0
1859,note_on,,59,0,12,,,,,,,,,,,,,,,,15,,55,0
1859,note_on,,59,0,6,,,,,,,,,,,,,,,,3,,76,0
1859,note_on,,59,0,10,,,,,,,,,,,,,,,,12,,59,0
1860,note_on,,1,0,5,,,,,,,,,,,,,,,,2,,54,72
1860,note_on,,1,0,12,,,,,,,,,,,,,,,,15,,54,72
1860,note_on,,1,0,6,,,,,,,,,,,,,,,,3,,78,72
1860,note_on,,1,0,11,,,,,,,,,,,,,,,,13,,54,72
1860,note_on,,1,0,10,,,,,,,,,,,,,,,,12,,57,72
1860,note_on,,1,0,8,,,,,,,,,,,,,,,,10,,78,72
1860,note_on,,1,0,9,,,,,,,,,,,,,,,,11,,69,72
1919,note_on,,59,0,6,,,,,,,,,,,,,,,,3,,78,0
1919,note_on,,59,0,5,,,,,,,,,,,,,,,,2,,54,0
1919,note_on,,59,0,12,,,,,,,,,,,,,,,,15,,54,0
1919,note_on,,59,0,9,,,,,,,,,,,,,,,,11,,69,0
1919,note_on,,59,0,10,,,,,,,,,,,,,,,,12,,57,0
1919,note_on,,59,0,8,,,,,,,,,,,,,,,,10,,78,0
1919,note_on,,59,0,11,,,,,,,,,,,,,,,,13,,54,0
1920,note_on,,1,0,10,,,,,,,,,,,,,,,,12,,55,72
1920,note_on,,1,0,6,,,,,,,,,,,,,,,,3,,79,72
1920,note_on,,0,0,12,,,,,,,,,,,,,,,,15,,71,72
1920,note_on,,1,0,11,,,,,,,,,,,,,,,,13,,52,72
1920,note_on,,1,0,8,,,,,,,,,,,,,,,,10,,79,72
1920,note_on,,1,0,9,,,,,,,,,,,,,,,,11,,71,72
1920,note_on,,0,0,12,,,,,,,,,,,,,,,,15,,67,72
1920,note_on,,0,0,12,,,,,,,,,,,,,,,,15,,52,72
1920,note_on,,1,0,5,,,,,,,,,,,,,,,,2,,52,72
1920,note_on,,1,0,12,,,,,,,,,,,,,,,,15,,76,72
2099,note_on,,179,0,6,,,,,,,,,,,,,,,,3,,79,0
2099,note_on,,179,0,9,,,,,,,,,,,,,,,,11,,71,0
2099,note_on,,179,0,8,,,,,,,,,,,,,,,,10,,79,0
2099,note_on,,179,0,10,,,,,,,,,,,,,,,,12,,55,0
2100,note_on,,1,0,9,,,,,,,,,,,,,,,,11,,71,72
2100,note_on,,1,0,10,,,,,,,,,,,,,,,,12,,71,72
2100,note_on,,1,0,6,,,,,,,,,,,,,,,,3,,78,72
2100,note_on,,1,0,8,,,,,,,,,,,,,,,,10,,78,72
2159,note_on,,59,0,10,,,,,,,,,,,,,,,,12,,71,0
2159,note_on,,59,0,8,,,,,,,,,,,,,,,,10,,78,0
2159,note_on,,0,0,12,,,,,,,,,,,,,,,,15,,52,0
2159,note_on,,59,0,6,,,,,,,,,,,,,,,,3,,78,0
2159,note_on,,239,0,12,,,,,,,,,,,,,,,,15,,71,0
2159,note_on,,59,0,9,,,,,,,,,,,,,,,,11,,71,0
2159,note_on,,239,0,5,,,,,,,,,,,,,,,,2,,52,0
2159,note_on,,239,0,11,,,,,,,,,,,,,,,,13,,52,0
2160,note_on,,1,0,9,,,,,,,,,,,,,,,,11,,76,72
2160,note_on,,1,0,12,,,,,,,,,,,,,,,,15,,69,72
2160,note_on,,1,0,11,,,,,,,,,,,,,,,,13,,61,72
2160,note_on,,1,0,10,,,,,,,,,,,,,,,,12,,69,72
2160,note_on,,0,0,12,,,,,,,,,,,,,,,,15,,61,72
2160,note_on,,1,0,6,,,,,,,,,,,,,,,,3,,79,72
2160,note_on,,1,0,8,,,,,,,,,,,,,,,,10,,79,72
2160,note_on,,1,0,5,,,,,,,,,,,,,,,,2,,61,72
2160,note_on,,0,0,12,,,,,,,,,,,,,,,,15,,64,72
2219,note_on,,59,0,8,,,,,,,,,,,,,,,,10,,79,0
2219,note_on,,59,0,10,,,,,,,,,,,,,,,,12,,69,0
2219,note_on,,59,0,6,,,,,,,,,,,,,,,,3,,79,0
2219,note_on,,59,0,9,,,,,,,,,,,,,,,,11,,76,0
2220,note_on,,1,0,8,,,,,,,,,,,,,,,,10,,76,72
2220,note_on,,1,0,10,,,,,,,,,,,,,,,,12,,69,72
2220,note_on,,1,0,6,,,,,,,,,,,,,,,,3,,76,72
2220,note_on,,1,0,9,,,,,,,,,,,,,,,,11,,69,72
2279,note_on,,59,0,6,,,,,,,,,,,,,,,,3,,76,0
2279,note_on,,59,0,8,,,,,,,,,,,,,,,,10,,76,0
2279,note_on,,119,0,11,,,,,,,,,,,,,,,,13,,61,0
2279,note_on,,59,0,9,,,,,,,,,,,,,,,,11,,69,0
2279,note_on,,0,0,12,,,,,,,,,,,,,,,,15,,64,0
2279,note_on,,0,0,12,,,,,,,,,,,,,,,,15,,61,0
2279,note_on,,119,0,5,,,,,,,,,,,,,,,,2,,61,0
2279,note_on,,0,0,12,,,,,,,,,,,,,,,,15,,69,0
2279,note_on,,59,0,10,,,,,,,,,,,,,,,,12,,69,0
2279,note_on,,0,0,12,,,,,,,,,,,,,,,,15,,67,0
2279,note_on,,119,0,12,,,,,,,,,,,,,,,,15,,76,0
2280,note_on,,0,0,12,,,,,,,,,,,,,,,,15,,62,72
2280,note_on,,1,0,9,,,,,,,,,,,,,,,,11,,74,72
2280,note_on,,1,0,8,,,,,,,,,,,,,,,,10,,78,72
2280,note_on,,1,0,10,,,,,,,,,,,,,,,,12,,69,72
2280,note_on,,1,0,6,,,,,,,,,,,,,,,,3,,78,72
2280,note_on,,1,0,11,,,,,,,,,,,,,,,,13,,62,72
2280,note_on,,1,0,5,,,,,,,,,,,,,,,,2,,62,72
2280,note_on,,0,0,12,,,,,,,,,,,,,,,,15,,66,72
2280,note_on,,1,0,12,,,,,,,,,,,,,,,,15,,69,72
2339,note_on,,59,0,6,,,,,,,,,,,,,,,,3,,78,0
2339,note_on,,59,0,10,,,,,,,,,,,,,,,,12,,69,0
2339,note_on,,59,0,8,,,,,,,,,,,,,,,,10,,78,0
2339,note_on,,59,0,9,,,,,,,,,,,,,,,,11,,74,0
2339,note_on,,59,0,5,,,,,,,,,,,,,,,,2,,62,0
2339,note_on,,59,0,11,,,,,,,,,,,,,,,,13,,62,0
2339,note_on,,59,0,12,,,,,,,,,,,,,,,,15,,62,0
2340,note_on,,1,0,10,,,,,,,,,,,,,,,,12,,69,72
2340,note_on,,1,0,6,,,,,,,,,,,,,,,,3,,79,72
2340,note_on,,1,0,5,,,,,,,,,,,,,,,,2,,61,72
2340,note_on,,1,0,11,,,,,,,,,,,,,,,,13,,61,72
2340,note_on,,1,0,12,,,,,,,,,,,,,,,,15,,61,72
2340,note_on,,1,0,8,,,,,,,,,,,,,,,,10,,79,72
2340,note_on,,1,0,9,,,,,,,,,,,,,,,,11,,76,72
2399,note_on,,59,0,12,,,,,,,,,,,,,,,,15,,69,0
2399,note_on,,59,0,10,,,,,,,,,,,,,,,,12,,69,0
2399,note_on,,59,0,11,,,,,,,,,,,,,,,,13,,61,0
2399,note_on,,59,0,5,,,,,,,,,,,,,,,,2,,61,0
2399,note_on,,0,0,12,,,,,,,,,,,,,,,,15,,66,0
2399,note_on,,59,0,9,,,,,,,,,,,,,,,,11,,76,0
2399,note_on,,59,0,8,,,,,,,,,,,,,,,,10,,79,0
2399,note_on,,0,0,12,,,,,,,,,,,,,,,,15,,61,0
2399,note_on,,59,0,6,,,,,,,,,,,,,,,,3,,79,0
2400,note_on,,1,0,8,,,,,,,,,,,,,,,,10,,78,72
2400,note_on,,1,0,12,,,,,,,,,,,,,,,,15,,69,72
2400,note_on,,1,0,11,,,,,,,,,,,,,,,,13,,62,72
2400,note_on,,0,0,12,,,,,,,,,,,,,,,,15,,74,72
2400,note_on,,1,0,5,,,,,,,,,,,,,,,,2,,62,72
2400,note_on,,0,0,12,,,,,,,,,,,,,,,,15,,62,72
2400,note_on,,0,0,12,,,,,,,,,,,,,,,,15,,66,72
2400,note_on,,1,0,6,,,,,,,,,,,,,,,,3,,78,72
2400,note_on,,1,0,9,,,,,,,,,,,,,,,,11,,74,72
2400,note_on,,1,0,10,,,,,,,,,,,,,,,,12,,69,72
2414,note_on,,14,0,6,,,,,,,,,,,,,,,,3,,78,0
2414,note_on,,14,0,8,,,,,,,,,,,,,,,,10,,78,0
2415,note_on,,1,0,8,,,,,,,,,,,,,,,,10,,79,72
2415,note_on,,1,0,6,,,,,,,,,,,,,,,,3,,79,72
2429,note_on,,14,0,6,,,,,,,,,,,,,,,,3,,79,0
2429,note_on,,14,0,8,,,,,,,,,,,,,,,,10,,79,0
2430,note_on,,1,0,6,,,,,,,,,,,,,,,,3,,78,72
2430,note_on,,1,0,8,,,,,,,,,,,,,,,,10,,78,72
2444,note_on,,14,0,6,,,,,,,,,,,,,,,,3,,78,0
2444,note_on,,14,0,8,,,,,,,,,,,,,,,,10,,78,0
2445,note_on,,1,0,6,,,,,,,,,,,,,,,,3,,79,72
2445,note_on,,1,0,8,,,,,,,,,,,,,,,,10,,79,72
2459,note_on,,14,0,6,,,,,,,,,,,,,,,,3,,79,0
2459,note_on,,14,0,8,,,,,,,,,,,,,,,,10,,79,0
2460,note_on,,1,0,8,,,,,,,,,,,,,,,,10,,78,72
2460,note_on,,1,0,6,,,,,,,,,,,,,,,,3,,78,72
2474,note_on,,14,0,6,,,,,,,,,,,,,,,,3,,78,0
2474,note_on,,14,0,8,,,,,,,,,,,,,,,,10,,78,0
2475,note_on,,1,0,6,,,,,,,,,,,,,,,,3,,79,72
2475,note_on,,1,0,8,,,,,,,,,,,,,,,,10,,79,72
2489,note_on,,14,0,8,,,,,,,,,,,,,,,,10,,79,0
2489,note_on,,14,0,6,,,,,,,,,,,,,,,,3,,79,0
2490,note_on,,1,0,8,,,,,,,,,,,,,,,,10,,78,72
2490,note_on,,1,0,6,,,,,,,,,,,,,,,,3,,78,72
2504,note_on,,14,0,8,,,,,,,,,,,,,,,,10,,78,0
2504,note_on,,14,0,6,,,,,,,,,,,,,,,,3,,78,0
2505,note_on,,1,0,8,,,,,,,,,,,,,,,,10,,79,72
2505,note_on,,1,0,6,,,,,,,,,,,,,,,,3,,79,72
2519,note_on,,14,0,6,,,,,,,,,,,,,,,,3,,79,0
2519,note_on,,0,0,12,,,,,,,,,,,,,,,,15,,66,0
2519,note_on,,0,0,12,,,,,,,,,,,,,,,,15,,62,0
2519,note_on,,119,0,10,,,,,,,,,,,,,,,,12,,69,0
2519,note_on,,119,0,5,,,,,,,,,,,,,,,,2,,62,0
2519,note_on,,0,0,12,,,,,,,,,,,,,,,,15,,74,0
2519,note_on,,119,0,12,,,,,,,,,,,,,,,,15,,69,0
2519,note_on,,14,0,8,,,,,,,,,,,,,,,,10,,79,0
2519,note_on,,119,0,11,,,,,,,,,,,,,,,,13,,62,0
2520,note_on,,1,0,6,,,,,,,,,,,,,,,,3,,78,72
2520,note_on,,1,0,8,,,,,,,,,,,,,,,,10,,78,72
2520,note_on,,1,0,10,,,,,,,,,,,,,,,,12,,69,72
2520,note_on,,0,0,12,,,,,,,,,,,,,,,,15,,74,72
2520,note_on,,0,0,12,,,,,,,,,,,,,,,,15,,69,72
2520,note_on,,0,0,12,,,,,,,,,,,,,,,,15,,78,72
2520,note_on,,1,0,12,,,,,,,,,,,,,,,,15,,50,72
2520,note_on,,1,0,5,,,,,,,,,,,,,,,,2,,50,72
2520,note_on,,1,0,11,,,,,,,,,,,,,,,,13,,50,72
2534,note_on,,14,0,8,,,,,,,,,,,,,,,,10,,78,0
2534,note_on,,14,0,6,,,,,,,,,,,,,,,,3,,78,0
2535,note_on,,1,0,6,,,,,,,,,,,,,,,,3,,79,72
2535,note_on,,1,0,8,,,,,,,,,,,,,,,,10,,79,72
2549,note_on,,14,0,8,,,,,,,,,,,,,,,,10,,79,0
2549,note_on,,14,0,6,,,,,,,,,,,,,,,,3,,79,0
2550,note_on,,1,0,8,,,,,,,,,,,,,,,,10,,76,72
2550,note_on,,1,0,6,,,,,,,,,,,,,,,,3,,76,72
2564,note_on,,14,0,8,,,,,,,,,,,,,,,,10,,76,0
2564,note_on,,14,0,6,,,,,,,,,,,,,,,,3,,76,0
2565,note_on,,1,0,8,,,,,,,,,,,,,,,,10,,78,72
2565,note_on,,1,0,6,,,,,,,,,,,,,,,,3,,78,72
2579,note_on,,179,0,9,,,,,,,,,,,,,,,,11,,74,0
2579,note_on,,14,0,8,,,,,,,,,,,,,,,,10,,78,0
2579,note_on,,14,0,6,,,,,,,,,,,,,,,,3,,78,0
2580,note_on,,1,0,8,,,,,,,,,,,,,,,,10,,76,72
2580,note_on,,1,0,9,,,,,,,,,,,,,,,,11,,73,72
2580,note_on,,1,0,6,,,,,,,,,,,,,,,,3,,76,72
2639,note_on,,59,0,6,,,,,,,,,,,,,,,,3,,76,0
2639,note_on,,59,0,8,,,,,,,,,,,,,,,,10,,76,0
2639,note_on,,0,0,12,,,,,,,,,,,,,,,,15,,74,0
2639,note_on,,0,0,12,,,,,,,,,,,,,,,,15,,69,0
2639,note_on,,119,0,10,,,,,,,,,,,,,,,,12,,69,0
2639,note_on,,119,0,12,,,,,,,,,,,,,,,,15,,50,0
2639,note_on,,0,0,12,,,,,,,,,,,,,,,,15,,78,0
2639,note_on,,119,0,11,,,,,,,,,,,,,,,,13,,50,0
2639,note_on,,59,0,9,,,,,,,,,,,,,,,,11,,73,0
2639,note_on,,119,0,5,,,,,,,,,,,,,,,,2,,50,0
2640,note_on,,1,0,5,,,,,,,,,,,,,,,,2,,57,72
2640,note_on,,1,0,11,,,,,,,,,,,,,,,,13,,57,72
2640,note_on,,1,0,10,,,,,,,,,,,,,,,,12,,69,72
2640,note_on,,0,0,12,,,,,,,,,,,,,,,,15,,57,72
2640,note_on,,0,0,12,,,,,,,,,,,,,,,,15,,73,72
2640,note_on,,0,0,12,,,,,,,,,,,,,,,,15,,76,72
2640,note_on,,1,0,9,,,,,,,,,,,,,,,,11,,73,72
2640,note_on,,1,0,12,,,,,,,,,,,,,,,,15,,69,72
2640,note_on,,1,0,8,,,,,,,,,,,,,,,,10,,76,72
2640,note_on,,1,0,6,,,,,,,,,,,,,,,,3,,76,72
2819,note_on,,0,0,12,,,,,,,,,,,,,,,,15,,57,0
2819,note_on,,179,0,12,,,,,,,,,,,,,,,,15,,69,0
2819,note_on,,179,0,11,,,,,,,,,,,,,,,,13,,57,0
2819,note_on,,179,0,5,,,,,,,,,,,,,,,,2,,57,0
2820,note_on,,0,0,12,,,,,,,,,,,,,,,,15,,59,72
2820,note_on,,1,0,12,,,,,,,,,,,,,,,,15,,62,72
2879,note_on,,59,0,12,,,,,,,,,,,,,,,,15,,73,0
2879,note_on,,239,0,9,,,,,,,,,,,,,,,,11,,73,0
2879,note_on,,0,0,12,,,,,,,,,,,,,,,,15,,76,0
2879,note_on,,0,0,12,,,,,,,,,,,,,,,,15,,62,0
2879,note_on,,0,0,12,,,,,,,,,,,,,,,,15,,59,0
2879,note_on,,239,0,8,,,,,,,,,,,,,,,,10,,76,0
2879,note_on,,239,0,10,,,,,,,,,,,,,,,,12,,69,0
2879,note_on,,239,0,6,,,,,,,,,,,,,,,,3,,76,0
2880,note_on,,0,0,12,,,,,,,,,,,,,,,,15,,69,72
2880,note_on,,1,0,12,,,,,,,,,,,,,,,,15,,64,72
2880,note_on,,1,0,6,,,,,,,,,,,,,,,,3,,76,72
2880,note_on,,0,0,12,,,,,,,,,,,,,,,,15,,61,72
2939,note_on,,0,0,12,,,,,,,,,,,,,,,,15,,61,0
2939,note_on,,59,0,12,,,,,,,,,,,,,,,,15,,64,0
2940,note_on,,1,0,12,,,,,,,,,,,,,,,,15,,61,72
2940,note_on,,0,0,12,,,,,,,,,,,,,,,,15,,57,72
2999,note_on,,59,0,12,,,,,,,,,,,,,,,,15,,69,0
2999,note_on,,0,0,12,,,,,,,,,,,,,,,,15,,57,0
2999,note_on,,119,0,6,,,,,,,,,,,,,,,,3,,76,0
2999,note_on,,0,0,12,,,,,,,,,,,,,,,,15,,61,0
3000,note_on,,1,0,12,,,,,,,,,,,,,,,,15,,62,72
3000,note_on,,1,0,6,,,,,,,,,,,,,,,,3,,78,72
3000,note_on,,0,0,12,,,,,,,,,,,,,,,,15,,66,72
3000,note_on,,0,0,12,,,,,,,,,,,,,,,,15,,69,72
3059,note_on,,59,0,6,,,,,,,,,,,,,,,,3,,78,0
3060,note_on,,1,0,6,,,,,,,,,,,,,,,,3,,76,72
3119,note_on,,59,0,6,,,,,,,,,,,,,,,,3,,76,0
3120,note_on,,1,0,6,,,,,,,,,,,,,,,,3,,74,72
3179,note_on,,59,0,6,,,,,,,,,,,,,,,,3,,74,0
3180,note_on,,1,0,6,,,,,,,,,,,,,,,,3,,78,72
3239,note_on,,59,0,6,,,,,,,,,,,,,,,,3,,78,0
3239,note_on,,0,0,12,,,,,,,,,,,,,,,,15,,69,0
3239,note_on,,0,0,12,,,,,,,,,,,,,,,,15,,66,0
3239,note_on,,239,0,12,,,,,,,,,,,,,,,,15,,62,0
3240,note_on,,1,0,12,,,,,,,,,,,,,,,,15,,69,72
3240,note_on,,1,0,6,,,,,,,,,,,,,,,,3,,76,72
3240,note_on,,0,0,12,,,,,,,,,,,,,,,,15,,74,72
3240,note_on,,0,0,12,,,,,,,,,,,,,,,,15,,66,72
3240,note_on,,0,0,12,,,,,,,,,,,,,,,,15,,62,72
3299,note_on,,59,0,6,,,,,,,,,,,,,,,,3,,76,0
3300,note_on,,1,0,6,,,,,,,,,,,,,,,,3,,74,72
3359,note_on,,59,0,6,,,,,,,,,,,,,,,,3,,74,0
3359,note_on,,119,0,12,,,,,,,,,,,,,,,,15,,69,0
3359,note_on,,0,0,12,,,,,,,,,,,,,,,,15,,74,0
3359,note_on,,0,0,12,,,,,,,,,,,,,,,,15,,66,0
3359,note_on,,0,0,12,,,,,,,,,,,,,,,,15,,62,0
3360,note_on,,0,0,12,,,,,,,,,,,,,,,,15,,69,72
3360,note_on,,0,0,12,,,,,,,,,,,,,,,,15,,64,72
3360,note_on,,1,0,6,,,,,,,,,,,,,,,,3,,76,72
3360,note_on,,1,0,12,,,,,,,,,,,,,,,,15,,61,72
3419,note_on,,59,0,12,,,,,,,,,,,,,,,,15,,61,0
3419,note_on,,0,0,12,,,,,,,,,,,,,,,,15,,64,0
3420,note_on,,1,0,12,,,,,,,,,,,,,,,,15,,59,72
3420,note_on,,0,0,12,,,,,,,,,,,,,,,,15,,62,72
3479,note_on,,59,0,12,,,,,,,,,,,,,,,,15,,59,0
3479,note_on,,0,0,12,,,,,,,,,,,,,,,,15,,62,0
3480,note_on,,1,0,12,,,,,,,,,,,,,,,,15,,57,72
3480,note_on,,0,0,12,,,,,,,,,,,,,,,,15,,61,72
3539,note_on,,59,0,12,,,,,,,,,,,,,,,,15,,57,0
3539,note_on,,0,0,12,,,,,,,,,,,,,,,,15,,61,0
3540,note_on,,1,0,12,,,,,,,,,,,,,,,,15,,64,72
3540,note_on,,0,0,12,,,,,,,,,,,,,,,,15,,61,72
3599,note_on,,0,0,12,,,,,,,,,,,,,,,,15,,61,0
3599,note_on,,239,0,6,,,,,,,,,,,,,,,,3,,76,0
3599,note_on,,59,0,12,,,,,,,,,,,,,,,,15,,64,0
3600,note_on,,1,0,12,,,,,,,,,,,,,,,,15,,59,72
3600,note_on,,0,0,12,,,,,,,,,,,,,,,,15,,62,72
3600,note_on,,1,0,6,,,,,,,,,,,,,,,,3,,81,72
3659,note_on,,59,0,12,,,,,,,,,,,,,,,,15,,59,0
3659,note_on,,0,0,12,,,,,,,,,,,,,,,,15,,62,0
3660,note_on,,1,0,12,,,,,,,,,,,,,,,,15,,61,72
3660,note_on,,0,0,12,,,,,,,,,,,,,,,,15,,57,72
3719,note_on,,59,0,12,,,,,,,,,,,,,,,,15,,69,0
3719,note_on,,0,0,12,,,,,,,,,,,,,,,,15,,61,0
3719,note_on,,0,0,12,,,,,,,,,,,,,,,,15,,57,0
3719,note_on,,119,0,6,,,,,,,,,,,,,,,,3,,81,0
3720,note_on,,1,0,6,,,,,,,,,,,,,,,,3,,80,72
3720,note_on,,0,0,12,,,,,,,,,,,,,,,,15,,59,72
3720,note_on,,1,0,12,,,,,,,,,,,,,,,,15,,62,72
3720,note_on,,0,0,12,,,,,,,,,,,,,,,,15,,74,72
3720,note_on,,0,0,12,,,,,,,,,,,,,,,,15,,71,72
3779,note_on,,59,0,6,,,,,,,,,,,,,,,,3,,80,0
3780,note_on,,1,0,6,,,,,,,,,,,,,,,,3,,78,72
3839,note_on,,59,0,6,,,,,,,,,,,,,,,,3,,78,0
3840,note_on,,1,0,6,,,,,,,,,,,,,,,,3,,76,72
3899,note_on,,59,0,6,,,,,,,,,,,,,,,,3,,76,0
3900,note_on,,1,0,6,,,,,,,,,,,,,,,,3,,80,72
3959,note_on,,0,0,12,,,,,,,,,,,,,,,,15,,71,0
3959,note_on,,0,0,12,,,,,,,,,,,,,,,,15,,74,0
3959,note_on,,239,0,12,,,,,,,,,,,,,,,,15,,62,0
3959,note_on,,0,0,12,,,,,,,,,,,,,,,,15,,59,0
3959,note_on,,59,0,6,,,,,,,,,,,,,,,,3,,80,0
3960,note_on,,1,0,6,,,,,,,,,,,,,,,,3,,78,72
3960,note_on,,0,0,12,,,,,,,,,,,,,,,,15,,71,72
3960,note_on,,0,0,12,,,,,,,,,,,,,,,,15,,62,72
3960,note_on,,1,0,12,,,,,,,,,,,,,,,,15,,68,72
4019,note_on,,59,0,6,,,,,,,,,,,,,,,,3,,78,0
4020,note_on,,1,0,6,,,,,,,,,,,,,,,,3,,76,72
4079,note_on,,59,0,6,,,,,,,,,,,,,,,,3,,76,0
4079,note_on,,119,0,12,,,,,,,,,,,,,,,,15,,68,0
4079,note_on,,0,0,12,,,,,,,,,,,,,,,,15,,71,0
4079,note_on,,0,0,12,,,,,,,,,,,,,,,,15,,62,0
4080,note_on,,0,0,12,,,,,,,,,,,,,,,,15,,69,72
4080,note_on,,0,0,12,,,,,,,,,,,,,,,,15,,61,72
4080,note_on,,0,0,12,,,,,,,,,,,,,,,,15,,76,72
4080,note_on,,1,0,6,,,,,,,,,,,,,,,,3,,81,72
4080,note_on,,1,0,12,,,,,,,,,,,,,,,,15,,64,72
4139,note_on,,59,0,12,,,,,,,,,,,,,,,,15,,76,0
4139,note_on,,0,0,12,,,,,,,,,,,,,,,,15,,61,0
4140,note_on,,1,0,12,,,,,,,,,,,,,,,,15,,59,72
4140,note_on,,0,0,12,,,,,,,,,,,,,,,,15,,74,72
4199,note_on,,59,0,12,,,,,,,,,,,,,,,,15,,59,0
4199,note_on,,0,0,12,,,,,,,,,,,,,,,,15,,74,0
4200,note_on,,0,0,12,,,,,,,,,,,,,,,,15,,57,72
4200,note_on,,1,0,12,,,,,,,,,,,,,,,,15,,73,72
4259,note_on,,59,0,12,,,,,,,,,,,,,,,,15,,73,0
4259,note_on,,0,0,12,,,,,,,,,,,,,,,,15,,57,0
4260,note_on,,1,0,12,,,,,,,,,,,,,,,,15,,76,72
4260,note_on,,0,0,12,,,,,,,,,,,,,,,,15,,61,72
4319,note_on,,59,0,12,,,,,,,,,,,,,,,,15,,76,0
4319,note_on,,0,0,12,,,,,,,,,,,,,,,,15,,61,0
4319,note_on,,239,0,6,,,,,,,,,,,,,,,,3,,81,0
4320,note_on,,1,0,6,,,,,,,,,,,,,,,,3,,79,72
4320,note_on,,1,0,12,,,,,,,,,,,,,,,,15,,74,72
4320,note_on,,0,0,12,,,,,,,,,,,,,,,,15,,59,72
4379,note_on,,59,0,12,,,,,,,,,,,,,,,,15,,74,0
4379,note_on,,0,0,12,,,,,,,,,,,,,,,,15,,59,0
4380,note_on,,1,0,12,,,,,,,,,,,,,,,,15,,57,72
4380,note_on,,0,0,12,,,,,,,,,,,,,,,,15,,73,72
4439,note_on,,0,0,12,,,,,,,,,,,,,,,,15,,73,0
4439,note_on,,0,0,12,,,,,,,,,,,,,,,,15,,57,0
4439,note_on,,119,0,6,,,,,,,,,,,,,,,,3,,79,0
4439,note_on,,59,0,12,,,,,,,,,,,,,,,,15,,64,0
4439,note_on,,0,0,12,,,,,,,,,,,,,,,,15,,69,0
4440,note_on,,1,0,12,,,,,,,,,,,,,,,,15,,69,72
4440,note_on,,1,0,6,,,,,,,,,,,,,,,,3,,78,72
4440,note_on,,0,0,12,,,,,,,,,,,,,,,,15,,62,72
4440,note_on,,0,0,12,,,,,,,,,,,,,,,,15,,66,72
4440,note_on,,0,0,12,,,,,,,,,,,,,,,,15,,74,72
4499,note_on,,59,0,6,,,,,,,,,,,,,,,,3,,78,0
4500,note_on,,1,0,6,,,,,,,,,,,,,,,,3,,76,72
4559,note_on,,59,0,6,,,,,,,,,,,,,,,,3,,76,0
4560,note_on,,1,0,6,,,,,,,,,,,,,,,,3,,74,72
4619,note_on,,59,0,6,,,,,,,,,,,,,,,,3,,74,0
4620,note_on,,1,0,6,,,,,,,,,,,,,,,,3,,78,72
4679,note_on,,239,0,12,,,,,,,,,,,,,,,,15,,62,0
4679,note_on,,59,0,6,,,,,,,,,,,,,,,,3,,78,0
4680,note_on,,1,0,12,,,,,,,,,,,,,,,,15,,62,72
4680,note_on,,1,0,6,,,,,,,,,,,,,,,,3,,76,72
4739,note_on,,59,0,6,,,,,,,,,,,,,,,,3,,76,0
4740,note_on,,1,0,6,,,,,,,,,,,,,,,,3,,74,72
4799,note_on,,119,0,12,,,,,,,,,,,,,,,,15,,69,0
4799,note_on,,59,0,6,,,,,,,,,,,,,,,,3,,74,0
4799,note_on,,0,0,12,,,,,,,,,,,,,,,,15,,74,0
4799,note_on,,0,0,12,,,,,,,,,,,,,,,,15,,62,0
4799,note_on,,0,0,12,,,,,,,,,,,,,,,,15,,66,0
4800,note_on,,1,0,6,,,,,,,,,,,,,,,,3,,76,72
4800,note_on,,1,0,12,,,,,,,,,,,,,,,,15,,61,72
4800,note_on,,0,0,12,,,,,,,,,,,,,,,,15,,69,72
4800,note_on,,0,0,12,,,,,,,,,,,,,,,,15,,64,72
4859,note_on,,0,0,12,,,,,,,,,,,,,,,,15,,64,0
4859,note_on,,59,0,12,,,,,,,,,,,,,,,,15,,61,0
4860,note_on,,0,0,12,,,,,,,,,,,,,,,,15,,62,72
4860,note_on,,1,0,12,,,,,,,,,,,,,,,,15,,59,72
4919,note_on,,59,0,12,,,,,,,,,,,,,,,,15,,59,0
4919,note_on,,0,0,12,,,,,,,,,,,,,,,,15,,62,0
4920,note_on,,0,0,12,,,,,,,,,,,,,,,,15,,57,72
4920,note_on,,1,0,12,,,,,,,,,,,,,,,,15,,61,72
4979,note_on,,59,0,12,,,,,,,,,,,,,,,,15,,61,0
4979,note_on,,0,0,12,,,,,,,,,,,,,,,,15,,57,0
4980,note_on,,0,0,12,,,,,,,,,,,,,,,,15,,61,72
4980,note_on,,1,0,12,,,,,,,,,,,,,,,,15,,64,72
5039,note_on,,0,0,12,,,,,,,,,,,,,,,,15,,61,0
5039,note_on,,239,0,6,,,,,,,,,,,,,,,,3,,76,0
5039,note_on,,59,0,12,,,,,,,,,,,,,,,,15,,64,0
5040,note_on,,1,0,12,,,,,,,,,,,,,,,,15,,62,72
5040,note_on,,0,0,12,,,,,,,,,,,,,,,,15,,59,72
5040,note_on,,1,0,6,,,,,,,,,,,,,,,,3,,81,72
5099,note_on,,59,0,12,,,,,,,,,,,,,,,,15,,62,0
5099,note_on,,0,0,12,,,,,,,,,,,,,,,,15,,59,0
5100,note_on,,0,0,12,,,,,,,,,,,,,,,,15,,57,72
5100,note_on,,1,0,12,,,,,,,,,,,,,,,,15,,61,72
5159,note_on,,59,0,12,,,,,,,,,,,,,,,,15,,69,0
5159,note_on,,0,0,12,,,,,,,,,,,,,,,,15,,57,0
5159,note_on,,119,0,6,,,,,,,,,,,,,,,,3,,81,0
5159,note_on,,0,0,12,,,,,,,,,,,,,,,,15,,61,0
5160,note_on,,0,0,12,,,,,,,,,,,,,,,,15,,74,72
5160,note_on,,0,0,12,,,,,,,,,,,,,,,,15,,62,72
5160,note_on,,0,0,12,,,,,,,,,,,,,,,,15,,68,72
5160,note_on,,1,0,12,,,,,,,,,,,,,,,,15,,59,72
5160,note_on,,1,0,6,,,,,,,,,,,,,,,,3,,80,72
5219,note_on,,59,0,6,,,,,,,,,,,,,,,,3,,80,0
5220,note_on,,1,0,6,,,,,,,,,,,,,,,,3,,78,72
5279,note_on,,59,0,6,,,,,,,,,,,,,,,,3,,78,0
5280,note_on,,1,0,6,,,,,,,,,,,,,,,,3,,76,72
5339,note_on,,59,0,6,,,,,,,,,,,,,,,,3,,76,0
5340,note_on,,1,0,6,,,,,,,,,,,,,,,,3,,80,72
5399,note_on,,59,0,6,,,,,,,,,,,,,,,,3,,80,0
5399,note_on,,0,0,12,,,,,,,,,,,,,,,,15,,62,0
5399,note_on,,239,0,12,,,,,,,,,,,,,,,,15,,59,0
5399,note_on,,0,0,12,,,,,,,,,,,,,,,,15,,68,0
5400,note_on,,1,0,6,,,,,,,,,,,,,,,,3,,78,72
5400,note_on,,0,0,12,,,,,,,,,,,,,,,,15,,71,72
5400,note_on,,0,0,12,,,,,,,,,,,,,,,,15,,68,72
5400,note_on,,1,0,12,,,,,,,,,,,,,,,,15,,62,72
5459,note_on,,59,0,6,,,,,,,,,,,,,,,,3,,78,0
5460,note_on,,1,0,6,,,,,,,,,,,,,,,,3,,76,72
5519,note_on,,59,0,6,,,,,,,,,,,,,,,,3,,76,0
5519,note_on,,119,0,12,,,,,,,,,,,,,,,,15,,74,0
5519,note_on,,0,0,12,,,,,,,,,,,,,,,,15,,62,0
5519,note_on,,0,0,12,,,,,,,,,,,,,,,,15,,68,0
5519,note_on,,0,0,12,,,,,,,,,,,,,,,,15,,71,0
5520,note_on,,1,0,12,,,,,,,,,,,,,,,,15,,61,72
5520,note_on,,0,0,12,,,,,,,,,,,,,,,,15,,69,72
5520,note_on,,0,0,12,,,,,,,,,,,,,,,,15,,64,72
5520,note_on,,1,0,6,,,,,,,,,,,,,,,,3,,81,72
5579,note_on,,59,0,12,,,,,,,,,,,,,,,,15,,61,0
5579,note_on,,0,0,12,,,,,,,,,,,,,,,,15,,64,0
5580,note_on,,1,0,12,,,,,,,,,,,,,,,,15,,59,72
5580,note_on,,0,0,12,,,,,,,,,,,,,,,,15,,62,72
5639,note_on,,59,0,12,,,,,,,,,,,,,,,,15,,59,0
5639,note_on,,0,0,12,,,,,,,,,,,,,,,,15,,62,0
5640,note_on,,0,0,12,,,,,,,,,,,,,,,,15,,57,72
5640,note_on,,1,0,12,,,,,,,,,,,,,,,,15,,61,72
5699,note_on,,59,0,12,,,,,,,,,,,,,,,,15,,61,0
5699,note_on,,0,0,12,,,,,,,,,,,,,,,,15,,57,0
5700,note_on,,0,0,12,,,,,,,,,,,,,,,,15,,62,72
5700,note_on,,1,0,12,,,,,,,,,,,,,,,,15,,66,72
5759,note_on,,0,0,12,,,,,,,,,,,,,,,,15,,62,0
5759,note_on,,59,0,12,,,,,,,,,,,,,,,,15,,66,0
5759,note_on,,239,0,6,,,,,,,,,,,,,,,,3,,81,0
5760,note_on,,0,0,12,,,,,,,,,,,,,,,,15,,61,72
5760,note_on,,1,0,12,,,,,,,,,,,,,,,,15,,64,72
5760,note_on,,1,0,6,,,,,,,,,,,,,,,,3,,81,72
5819,note_on,,59,0,12,,,,,,,,,,,,,,,,15,,64,0
5819,note_on,,0,0,12,,,,,,,,,,,,,,,,15,,61,0
5820,note_on,,1,0,12,,,,,,,,,,,,,,,,15,,59,72
5820,note_on,,0,0,12,,,,,,,,,,,,,,,,15,,62,72
5879,note_on,,59,0,12,,,,,,,,,,,,,,,,15,,69,0
5879,note_on,,0,0,12,,,,,,,,,,,,,,,,15,,59,0
5879,note_on,,0,0,12,,,,,,,,,,,,,,,,15,,62,0
5879,note_on,,119,0,6,,,,,,,,,,,,,,,,3,,81,0
5880,note_on,,1,0,12,,,,,,,,,,,,,,,,15,,69,72
5880,note_on,,0,0,12,,,,,,,,,,,,,,,,15,,76,72
5880,note_on,,0,0,12,,,,,,,,,,,,,,,,15,,64,72
5880,note_on,,0,0,12,,,,,,,,,,,,,,,,15,,61,72
5880,note_on,,1,0,6,,,,,,,,,,,,,,,,3,,76,72
5939,note_on,,59,0,6,,,,,,,,,,,,,,,,3,,76,0
5940,note_on,,1,0,6,,,,,,,,,,,,,,,,3,,78,72
5999,note_on,,59,0,6,,,,,,,,,,,,,,,,3,,78,0
6000,note_on,,1,0,6,,,,,,,,,,,,,,,,3,,76,72
6059,note_on,,59,0,6,,,,,,,,,,,,,,,,3,,76,0
6059,note_on,,179,0,12,,,,,,,,,,,,,,,,15,,61,0
6060,note_on,,1,0,6,,,,,,,,,,,,,,,,3,,78,72
6060,note_on,,1,0,12,,,,,,,,,,,,,,,,15,,57,72
6119,note_on,,59,0,6,,,,,,,,,,,,,,,,3,,78,0
6119,note_on,,59,0,12,,,,,,,,,,,,,,,,15,,57,0
6120,note_on,,1,0,6,,,,,,,,,,,,,,,,3,,76,72
6120,note_on,,1,0,12,,,,,,,,,,,,,,,,15,,55,72
6179,note_on,,59,0,6,,,,,,,,,,,,,,,,3,,76,0
6179,note_on,,59,0,12,,,,,,,,,,,,,,,,15,,55,0
6180,note_on,,1,0,12,,,,,,,,,,,,,,,,15,,54,72
6180,note_on,,1,0,6,,,,,,,,,,,,,,,,3,,78,72
6239,note_on,,59,0,6,,,,,,,,,,,,,,,,3,,78,0
6239,note_on,,59,0,12,,,,,,,,,,,,,,,,15,,69,0
6239,note_on,,0,0,12,,,,,,,,,,,,,,,,15,,76,0
6239,note_on,,0,0,12,,,,,,,,,,,,,,,,15,,64,0
6239,note_on,,0,0,12,,,,,,,,,,,,,,,,15,,54,0
6240,note_on,,0,0,12,,,,,,,,,,,,,,,,15,,67,72
6240,note_on,,1,0,6,,,,,,,,,,,,,,,,3,,79,72
6240,note_on,,1,0,12,,,,,,,,,,,,,,,,15,,76,72
6240,note_on,,0,0,12,,,,,,,,,,,,,,,,15,,71,72
6240,note_on,,0,0,12,,,,,,,,,,,,,,,,15,,52,72
6299,note_on,,59,0,12,,,,,,,,,,,,,,,,15,,67,0
6299,note_on,,0,0,12,,,,,,,,,,,,,,,,15,,52,0
6300,note_on,,1,0,12,,,,,,,,,,,,,,,,15,,54,72
6300,note_on,,0,0,12,,,,,,,,,,,,,,,,15,,69,72
6359,note_on,,59,0,12,,,,,,,,,,,,,,,,15,,54,0
6359,note_on,,0,0,12,,,,,,,,,,,,,,,,15,,69,0
6360,note_on,,0,0,12,,,,,,,,,,,,,,,,15,,67,72
6360,note_on,,1,0,12,,,,,,,,,,,,,,,,15,,52,72
6419,note_on,,59,0,12,,,,,,,,,,,,,,,,15,,52,0
6419,note_on,,0,0,12,,,,,,,,,,,,,,,,15,,67,0
6420,note_on,,1,0,12,,,,,,,,,,,,,,,,15,,54,72
6420,note_on,,0,0,12,,,,,,,,,,,,,,,,15,,69,72
6479,note_on,,239,0,6,,,,,,,,,,,,,,,,3,,79,0
6479,note_on,,59,0,12,,,,,,,,,,,,,,,,15,,54,0
6479,note_on,,0,0,12,,,,,,,,,,,,,,,,15,,69,0
6480,note_on,,1,0,6,,,,,,,,,,,,,,,,3,,79,72
6480,note_on,,0,0,12,,,,,,,,,,,,,,,,15,,52,72
6480,note_on,,1,0,12,,,,,,,,,,,,,,,,15,,67,72
6539,note_on,,59,0,12,,,,,,,,,,,,,,,,15,,67,0
6539,note_on,,0,0,12,,,,,,,,,,,,,,,,15,,52,0
6540,note_on,,1,0,12,,,,,,,,,,,,,,,,15,,54,72
6540,note_on,,0,0,12,,,,,,,,,,,,,,,,15,,69,72
6599,note_on,,59,0,12,,,,,,,,,,,,,,,,15,,76,0
6599,note_on,,0,0,12,,,,,,,,,,,,,,,,15,,71,0
6599,note_on,,0,0,12,,,,,,,,,,,,,,,,15,,54,0
6599,note_on,,0,0,12,,,,,,,,,,,,,,,,15,,69,0
6599,note_on,,119,0,6,,,,,,,,,,,,,,,,3,,79,0
6600,note_on,,1,0,6,,,,,,,,,,,,,,,,3,,74,72
6600,note_on,,1,0,12,,,,,,,,,,,,,,,,15,,71,72
6600,note_on,,0,0,12,,,,,,,,,,,,,,,,15,,55,72
6600,note_on,,0,0,12,,,,,,,,,,,,,,,,15,,67,72
6600,note_on,,0,0,12,,,,,,,,,,,,,,,,15,,62,72
6659,note_on,,59,0,6,,,,,,,,,,,,,,,,3,,74,0
6660,note_on,,1,0,6,,,,,,,,,,,,,,,,3,,76,72
6719,note_on,,59,0,6,,,,,,,,,,,,,,,,3,,76,0
6720,note_on,,1,0,6,,,,,,,,,,,,,,,,3,,74,72
6779,note_on,,59,0,6,,,,,,,,,,,,,,,,3,,74,0
6779,note_on,,179,0,12,,,,,,,,,,,,,,,,15,,55,0
6780,note_on,,1,0,6,,,,,,,,,,,,,,,,3,,76,72
6780,note_on,,1,0,12,,,,,,,,,,,,,,,,15,,55,72
6839,note_on,,59,0,12,,,,,,,,,,,,,,,,15,,55,0
6839,note_on,,59,0,6,,,,,,,,,,,,,,,,3,,76,0
6840,note_on,,1,0,6,,,,,,,,,,,,,,,,3,,74,72
6840,note_on,,1,0,12,,,,,,,,,,,,,,,,15,,54,72
6899,note_on,,59,0,12,,,,,,,,,,,,,,,,15,,54,0
6899,note_on,,59,0,6,,,,,,,,,,,,,,,,3,,74,0
6900,note_on,,1,0,6,,,,,,,,,,,,,,,,3,,76,72
6900,note_on,,1,0,12,,,,,,,,,,,,,,,,15,,52,72
6959,note_on,,59,0,12,,,,,,,,,,,,,,,,15,,71,0
6959,note_on,,0,0,12,,,,,,,,,,,,,,,,15,,67,0
6959,note_on,,0,0,12,,,,,,,,,,,,,,,,15,,62,0
6959,note_on,,0,0,12,,,,,,,,,,,,,,,,15,,52,0
6959,note_on,,59,0,6,,,,,,,,,,,,,,,,3,,76,0
6960,note_on,,1,0,12,,,,,,,,,,,,,,,,15,,62,72
6960,note_on,,0,0,12,,,,,,,,,,,,,,,,15,,66,72
6960,note_on,,0,0,12,,,,,,,,,,,,,,,,15,,74,72
6960,note_on,,1,0,6,,,,,,,,,,,,,,,,3,,78,72
6960,note_on,,0,0,12,,,,,,,,,,,,,,,,15,,50,72
7079,note_on,,119,0,6,,,,,,,,,,,,,,,,3,,78,0
7079,note_on,,0,0,12,,,,,,,,,,,,,,,,15,,66,0
7079,note_on,,0,0,12,,,,,,,,,,,,,,,,15,,74,0
7079,note_on,,119,0,12,,,,,,,,,,,,,,,,15,,62,0
7079,note_on,,0,0,12,,,,,,,,,,,,,,,,15,,50,0
7140,note_on,,61,0,6,,,,,,,,,,,,,,,,3,,76,72
7199,note_on,,59,0,6,,,,,,,,,,,,,,,,3,,76,0
7200,note_on,,1,0,6,,,,,,,,,,,,,,,,3,,74,72
7259,note_on,,59,0,6,,,,,,,,,,,,,,,,3,,74,0
7260,note_on,,1,0,6,,,,,,,,,,,,,,,,3,,76,72
7319,note_on,,59,0,6,,,,,,,,,,,,,,,,3,,76,0
7320,note_on,,1,0,6,,,,,,,,,,,,,,,,3,,78,72
7379,note_on,,59,0,6,,,,,,,,,,,,,,,,3,,78,0
7380,note_on,,1,0,6,,,,,,,,,,,,,,,,3,,79,72
7439,note_on,,59,0,6,,,,,,,,,,,,,,,,3,,79,0
7440,note_on,,1,0,6,,,,,,,,,,,,,,,,3,,81,72
7499,note_on,,59,0,6,,,,,,,,,,,,,,,,3,,81,0
7500,note_on,,4621,0,9,,,,,,,,,,,,,,,,11,,69,72
7500,note_on,,4621,0,10,,,,,,,,,,,,,,,,12,,61,72
7500,note_on,,4621,0,8,,,,,,,,,,,,,,,,10,,76,72
7500,note_on,,0,0,12,,,,,,,,,,,,,,,,15,,69,72
7500,note_on,,0,0,12,,,,,,,,,,,,,,,,15,,64,72
7500,note_on,,421,0,12,,,,,,,,,,,,,,,,15,,61,72
7500,note_on,,4681,0,11,,,,,,,,,,,,,,,,13,,61,72
7500,note_on,,4681,0,5,,,,,,,,,,,,,,,,2,,61,72
7559,note_on,,59,0,11,,,,,,,,,,,,,,,,13,,61,0
7559,note_on,,59,0,9,,,,,,,,,,,,,,,,11,,69,0
7559,note_on,,59,0,8,,,,,,,,,,,,,,,,10,,76,0
7559,note_on,,59,0,5,,,,,,,,,,,,,,,,2,,61,0
7559,note_on,,59,0,12,,,,,,,,,,,,,,,,15,,61,0
7559,note_on,,59,0,10,,,,,,,,,,,,,,,,12,,61,0
7559,note_on,,0,0,12,,,,,,,,,,,,,,,,15,,64,0
7560,note_on,,1,0,8,,,,,,,,,,,,,,,,10,,74,72
7560,note_on,,1,0,5,,,,,,,,,,,,,,,,2,,59,72
7560,note_on,,1,0,12,,,,,,,,,,,,,,,,15,,59,72
7560,note_on,,1,0,11,,,,,,,,,,,,,,,,13,,59,72
7560,note_on,,1,0,10,,,,,,,,,,,,,,,,12,,62,72
7560,note_on,,1,0,9,,,,,,,,,,,,,,,,11,,71,72
7560,note_on,,0,0,12,,,,,,,,,,,,,,,,15,,62,72
7619,note_on,,59,0,12,,,,,,,,,,,,,,,,15,,59,0
7619,note_on,,0,0,12,,,,,,,,,,,,,,,,15,,62,0
7619,note_on,,59,0,8,,,,,,,,,,,,,,,,10,,74,0
7619,note_on,,59,0,9,,,,,,,,,,,,,,,,11,,71,0
7619,note_on,,59,0,5,,,,,,,,,,,,,,,,2,,59,0
7619,note_on,,59,0,11,,,,,,,,,,,,,,,,13,,59,0
7619,note_on,,59,0,10,,,,,,,,,,,,,,,,12,,62,0
7620,note_on,,1,0,8,,,,,,,,,,,,,,,,10,,76,72
7620,note_on,,1,0,9,,,,,,,,,,,,,,,,11,,69,72
7620,note_on,,0,0,12,,,,,,,,,,,,,,,,15,,64,72
7620,note_on,,1,0,12,,,,,,,,,,,,,,,,15,,61,72
7620,note_on,,1,0,11,,,,,,,,,,,,,,,,13,,61,72
7620,note_on,,1,0,10,,,,,,,,,,,,,,,,12,,61,72
7620,note_on,,1,0,5,,,,,,,,,,,,,,,,2,,61,72
7679,note_on,,59,0,9,,,,,,,,,,,,,,,,11,,69,0
7679,note_on,,59,0,12,,,,,,,,,,,,,,,,15,,61,0
7679,note_on,,59,0,11,,,,,,,,,,,,,,,,13,,61,0
7679,note_on,,59,0,10,,,,,,,,,,,,,,,,12,,61,0
7679,note_on,,59,0,8,,,,,,,,,,,,,,,,10,,76,0
7679,note_on,,0,0,12,,,,,,,,,,,,,,,,15,,64,0
7679,note_on,,59,0,5,,,,,,,,,,,,,,,,2,,61,0
7680,note_on,,1,0,12,,,,,,,,,,,,,,,,15,,62,72
7680,note_on,,1,0,5,,,,,,,,,,,,,,,,2,,62,72
7680,note_on,,1,0,10,,,,,,,,,,,,,,,,12,,62,72
7680,note_on,,1,0,8,,,,,,,,,,,,,,,,10,,78,72
7680,note_on,,1,0,9,,,,,,,,,,,,,,,,11,,69,72
7680,note_on,,0,0,12,,,,,,,,,,,,,,,,15,,66,72
7680,note_on,,1,0,11,,,,,,,,,,,,,,,,13,,62,72
7739,note_on,,59,0,8,,,,,,,,,,,,,,,,10,,78,0
7740,note_on,,1,0,8,,,,,,,,,,,,,,,,10,,79,72
7799,note_on,,119,0,12,,,,,,,,,,,,,,,,15,,69,0
7799,note_on,,0,0,12,,,,,,,,,,,,,,,,15,,62,0
7799,note_on,,59,0,8,,,,,,,,,,,,,,,,10,,79,0
7799,note_on,,0,0,12,,,,,,,,,,,,,,,,15,,66,0
7799,note_on,,119,0,11,,,,,,,,,,,,,,,,13,,62,0
7799,note_on,,119,0,5,,,,,,,,,,,,,,,,2,,62,0
7799,note_on,,119,0,10,,,,,,,,,,,,,,,,12,,62,0
7799,note_on,,119,0,9,,,,,,,,,,,,,,,,11,,69,0
7800,note_on,,0,0,12,,,,,,,,,,,,,,,,15,,64,72
7800,note_on,,1,0,10,,,,,,,,,,,,,,,,12,,64,72
7800,note_on,,1,0,8,,,,,,,,,,,,,,,,10,,81,72
7800,note_on,,1,0,11,,,,,,,,,,,,,,,,13,,61,72
7800,note_on,,1,0,9,,,,,,,,,,,,,,,,11,,76,72
7800,note_on,,1,0,12,,,,,,,,,,,,,,,,15,,69,72
7800,note_on,,0,0,12,,,,,,,,,,,,,,,,15,,61,72
7800,note_on,,1,0,5,,,,,,,,,,,,,,,,2,,61,72
7800,note_on,,0,0,12,,,,,,,,,,,,,,,,15,,73,72
7860,note_on,,361,0,6,,,,,,,,,,,,,,,,3,,76,72
7919,note_on,,119,0,12,,,,,,,,,,,,,,,,15,,69,0
7919,note_on,,0,0,12,,,,,,,,,,,,,,,,15,,61,0
7919,note_on,,119,0,5,,,,,,,,,,,,,,,,2,,61,0
7919,note_on,,119,0,10,,,,,,,,,,,,,,,,12,,64,0
7919,note_on,,119,0,8,,,,,,,,,,,,,,,,10,,81,0
7919,note_on,,0,0,12,,,,,,,,,,,,,,,,15,,64,0
7919,note_on,,0,0,12,,,,,,,,,,,,,,,,15,,73,0
7919,note_on,,119,0,11,,,,,,,,,,,,,,,,13,,61,0
7919,note_on,,59,0,6,,,,,,,,,,,,,,,,3,,76,0
7919,note_on,,119,0,9,,,,,,,,,,,,,,,,11,,76,0
7920,note_on,,1,0,6,,,,,,,,,,,,,,,,3,,74,72
7920,note_on,,0,0,12,,,,,,,,,,,,,,,,15,,76,72
7920,note_on,,0,0,12,,,,,,,,,,,,,,,,15,,73,72
7920,note_on,,0,0,12,,,,,,,,,,,,,,,,15,,61,72
7920,note_on,,0,0,12,,,,,,,,,,,,,,,,15,,69,72
7920,note_on,,1,0,12,,,,,,,,,,,,,,,,15,,57,72
7920,note_on,,1,0,11,,,,,,,,,,,,,,,,13,,57,72
7920,note_on,,1,0,5,,,,,,,,,,,,,,,,2,,57,72
7979,note_on,,59,0,6,,,,,,,,,,,,,,,,3,,74,0
7980,note_on,,1,0,6,,,,,,,,,,,,,,,,3,,76,72
8039,note_on,,0,0,12,,,,,,,,,,,,,,,,15,,76,0
8039,note_on,,59,0,6,,,,,,,,,,,,,,,,3,,76,0
8039,note_on,,119,0,5,,,,,,,,,,,,,,,,2,,57,0
8039,note_on,,119,0,12,,,,,,,,,,,,,,,,15,,57,0
8039,note_on,,119,0,11,,,,,,,,,,,,,,,,13,,57,0
8039,note_on,,0,0,12,,,,,,,,,,,,,,,,15,,69,0
8039,note_on,,0,0,12,,,,,,,,,,,,,,,,15,,61,0
8039,note_on,,0,0,12,,,,,,,,,,,,,,,,15,,73,0
8040,note_on,,1,0,6,,,,,,,,,,,,,,,,3,,78,72
8099,note_on,,59,0,6,,,,,,,,,,,,,,,,3,,78,0
8100,note_on,,1,0,6,,,,,,,,,,,,,,,,3,,79,72
8159,note_on,,59,0,6,,,,,,,,,,,,,,,,3,,79,0
8160,note_on,,1,0,6,,,,,,,,,,,,,,,,3,,81,72
8220,note_on,,181,0,5,,,,,,,,,,,,,,,,2,,61,72
8220,note_on,,181,0,12,,,,,,,,,,,,,,,,15,,61,72
8220,note_on,,0,0,12,,,,,,,,,,,,,,,,15,,64,72
8220,note_on,,301,0,9,,,,,,,,,,,,,,,,11,,69,72
8220,note_on,,0,0,12,,,,,,,,,,,,,,,,15,,69,72
8220,note_on,,181,0,11,,,,,,,,,,,,,,,,13,,61,72
8220,note_on,,301,0,10,,,,,,,,,,,,,,,,12,,61,72
8220,note_on,,301,0,8,,,,,,,,,,,,,,,,10,,76,72
8279,note_on,,0,0,12,,,,,,,,,,,,,,,,15,,64,0
8279,note_on,,59,0,9,,,,,,,,,,,,,,,,11,,69,0
8279,note_on,,59,0,11,,,,,,,,,,,,,,,,13,,61,0
8279,note_on,,59,0,10,,,,,,,,,,,,,,,,12,,61,0
8279,note_on,,59,0,12,,,,,,,,,,,,,,,,15,,61,0
8279,note_on,,59,0,8,,,,,,,,,,,,,,,,10,,76,0
8279,note_on,,59,0,5,,,,,,,,,,,,,,,,2,,61,0
8280,note_on,,1,0,11,,,,,,,,,,,,,,,,13,,59,72
8280,note_on,,1,0,12,,,,,,,,,,,,,,,,15,,62,72
8280,note_on,,0,0,12,,,,,,,,,,,,,,,,15,,59,72
8280,note_on,,1,0,9,,,,,,,,,,,,,,,,11,,71,72
8280,note_on,,1,0,5,,,,,,,,,,,,,,,,2,,59,72
8280,note_on,,1,0,10,,,,,,,,,,,,,,,,12,,62,72
8280,note_on,,1,0,8,,,,,,,,,,,,,,,,10,,74,72
8339,note_on,,59,0,8,,,,,,,,,,,,,,,,10,,74,0
8339,note_on,,59,0,5,,,,,,,,,,,,,,,,2,,59,0
8339,note_on,,59,0,10,,,,,,,,,,,,,,,,12,,62,0
8339,note_on,,0,0,12,,,,,,,,,,,,,,,,15,,59,0
8339,note_on,,59,0,9,,,,,,,,,,,,,,,,11,,71,0
8339,note_on,,59,0,11,,,,,,,,,,,,,,,,13,,59,0
8339,note_on,,59,0,12,,,,,,,,,,,,,,,,15,,62,0
8340,note_on,,1,0,11,,,,,,,,,,,,,,,,13,,61,72
8340,note_on,,1,0,9,,,,,,,,,,,,,,,,11,,69,72
8340,note_on,,1,0,5,,,,,,,,,,,,,,,,2,,61,72
8340,note_on,,1,0,12,,,,,,,,,,,,,,,,15,,64,72
8340,note_on,,0,0,12,,,,,,,,,,,,,,,,15,,61,72
8340,note_on,,1,0,10,,,,,,,,,,,,,,,,12,,61,72
8340,note_on,,1,0,8,,,,,,,,,,,,,,,,10,,76,72
8399,note_on,,59,0,11,,,,,,,,,,,,,,,,13,,61,0
8399,note_on,,59,0,12,,,,,,,,,,,,,,,,15,,64,0
8399,note_on,,59,0,8,,,,,,,,,,,,,,,,10,,76,0
8399,note_on,,59,0,5,,,,,,,,,,,,,,,,2,,61,0
8399,note_on,,59,0,10,,,,,,,,,,,,,,,,12,,61,0
8399,note_on,,0,0,12,,,,,,,,,,,,,,,,15,,61,0
8399,note_on,,59,0,9,,,,,,,,,,,,,,,,11,,69,0
8400,note_on,,1,0,10,,,,,,,,,,,,,,,,12,,62,72
8400,note_on,,1,0,8,,,,,,,,,,,,,,,,10,,78,72
8400,note_on,,1,0,5,,,,,,,,,,,,,,,,2,,62,72
8400,note_on,,0,0,12,,,,,,,,,,,,,,,,15,,66,72
8400,note_on,,1,0,12,,,,,,,,,,,,,,,,15,,62,72
8400,note_on,,1,0,11,,,,,,,,,,,,,,,,13,,62,72
8400,note_on,,1,0,9,,,,,,,,,,,,,,,,11,,69,72
8459,note_on,,59,0,8,,,,,,,,,,,,,,,,10,,78,0
8460,note_on,,1,0,8,,,,,,,,,,,,,,,,10,,79,72
8519,note_on,,119,0,10,,,,,,,,,,,,,,,,12,,62,0
8519,note_on,,119,0,11,,,,,,,,,,,,,,,,13,,62,0
8519,note_on,,119,0,12,,,,,,,,,,,,,,,,15,,69,0
8519,note_on,,119,0,5,,,,,,,,,,,,,,,,2,,62,0
8519,note_on,,0,0,12,,,,,,,,,,,,,,,,15,,62,0
8519,note_on,,0,0,12,,,,,,,,,,,,,,,,15,,66,0
8519,note_on,,59,0,8,,,,,,,,,,,,,,,,10,,79,0
8520,note_on,,1,0,10,,,,,,,,,,,,,,,,12,,64,72
8520,note_on,,0,0,12,,,,,,,,,,,,,,,,15,,64,72
8520,note_on,,1,0,5,,,,,,,,,,,,,,,,2,,61,72
8520,note_on,,0,0,12,,,,,,,,,,,,,,,,15,,73,72
8520,note_on,,0,0,12,,,,,,,,,,,,,,,,15,,61,72
8520,note_on,,1,0,12,,,,,,,,,,,,,,,,15,,69,72
8520,note_on,,1,0,11,,,,,,,,,,,,,,,,13,,61,72
8520,note_on,,1,0,8,,,,,,,,,,,,,,,,10,,81,72
8579,note_on,,419,0,6,,,,,,,,,,,,,,,,3,,81,0
8579,note_on,,59,0,8,,,,,,,,,,,,,,,,10,,81,0
8579,note_on,,179,0,9,,,,,,,,,,,,,,,,11,,69,0
8580,note_on,,1,0,8,,,,,,,,,,,,,,,,10,,76,72
8580,note_on,,1,0,9,,,,,,,,,,,,,,,,11,,73,72
8580,note_on,,1,0,6,,,,,,,,,,,,,,,,3,,76,72
8639,note_on,,59,0,8,,,,,,,,,,,,,,,,10,,76,0
8639,note_on,,119,0,12,,,,,,,,,,,,,,,,15,,69,0
8639,note_on,,0,0,12,,,,,,,,,,,,,,,,15,,73,0
8639,note_on,,119,0,5,,,,,,,,,,,,,,,,2,,61,0
8639,note_on,,0,0,12,,,,,,,,,,,,,,,,15,,64,0
8639,note_on,,119,0,11,,,,,,,,,,,,,,,,13,,61,0
8639,note_on,,119,0,10,,,,,,,,,,,,,,,,12,,64,0
8639,note_on,,59,0,6,,,,,,,,,,,,,,,,3,,76,0
8639,note_on,,59,0,9,,,,,,,,,,,,,,,,11,,73,0
8639,note_on,,0,0,12,,,,,,,,,,,,,,,,15,,61,0
8640,note_on,,1,0,10,,,,,,,,,,,,,,,,12,,69,72
8640,note_on,,1,0,9,,,,,,,,,,,,,,,,11,,71,72
8640,note_on,,0,0,12,,,,,,,,,,,,,,,,15,,61,72
8640,note_on,,1,0,8,,,,,,,,,,,,,,,,10,,74,72
8640,note_on,,0,0,12,,,,,,,,,,,,,,,,15,,73,72
8640,note_on,,0,0,12,,,,,,,,,,,,,,,,15,,69,72
8640,note_on,,0,0,12,,,,,,,,,,,,,,,,15,,76,72
8640,note_on,,1,0,12,,,,,,,,,,,,,,,,15,,57,72
8640,note_on,,1,0,11,,,,,,,,,,,,,,,,13,,57,72
8640,note_on,,1,0,5,,,,,,,,,,,,,,,,2,,57,72
8640,note_on,,1,0,6,,,,,,,,,,,,,,,,3,,74,72
8699,note_on,,59,0,8,,,,,,,,,,,,,,,,10,,74,0
8699,note_on,,59,0,9,,,,,,,,,,,,,,,,11,,71,0
8699,note_on,,59,0,6,,,,,,,,,,,,,,,,3,,74,0
8700,note_on,,1,0,9,,,,,,,,,,,,,,,,11,,73,72
8700,note_on,,1,0,6,,,,,,,,,,,,,,,,3,,76,72
8700,note_on,,1,0,8,,,,,,,,,,,,,,,,10,,76,72
8759,note_on,,119,0,5,,,,,,,,,,,,,,,,2,,57,0
8759,note_on,,0,0,12,,,,,,,,,,,,,,,,15,,73,0
8759,note_on,,0,0,12,,,,,,,,,,,,,,,,15,,69,0
8759,note_on,,0,0,12,,,,,,,,,,,,,,,,15,,61,0
8759,note_on,,119,0,10,,,,,,,,,,,,,,,,12,,69,0
8759,note_on,,59,0,9,,,,,,,,,,,,,,,,11,,73,0
8759,note_on,,119,0,12,,,,,,,,,,,,,,,,15,,57,0
8759,note_on,,59,0,6,,,,,,,,,,,,,,,,3,,76,0
8759,note_on,,119,0,11,,,,,,,,,,,,,,,,13,,57,0
8759,note_on,,0,0,12,,,,,,,,,,,,,,,,15,,76,0
8759,note_on,,59,0,8,,,,,,,,,,,,,,,,10,,76,0
8760,note_on,,1,0,6,,,,,,,,,,,,,,,,3,,78,72
8760,note_on,,1,0,12,,,,,,,,,,,,,,,,15,,66,72
8760,note_on,,1,0,10,,,,,,,,,,,,,,,,12,,69,72
8760,note_on,,0,0,12,,,,,,,,,,,,,,,,15,,74,72
8760,note_on,,0,0,12,,,,,,,,,,,,,,,,15,,62,72
8760,note_on,,0,0,12,,,,,,,,,,,,,,,,15,,69,72
8760,note_on,,1,0,5,,,,,,,,,,,,,,,,2,,62,72
8760,note_on,,1,0,9,,,,,,,,,,,,,,,,11,,69,72
8760,note_on,,1,0,8,,,,,,,,,,,,,,,,10,,78,72
8760,note_on,,1,0,11,,,,,,,,,,,,,,,,13,,62,72
8819,note_on,,59,0,6,,,,,,,,,,,,,,,,3,,78,0
8819,note_on,,59,0,10,,,,,,,,,,,,,,,,12,,69,0
8819,note_on,,59,0,8,,,,,,,,,,,,,,,,10,,78,0
8820,note_on,,1,0,8,,,,,,,,,,,,,,,,10,,74,72
8820,note_on,,1,0,10,,,,,,,,,,,,,,,,12,,66,72
8820,note_on,,1,0,6,,,,,,,,,,,,,,,,3,,74,72
8879,note_on,,0,0,12,,,,,,,,,,,,,,,,15,,74,0
8879,note_on,,0,0,12,,,,,,,,,,,,,,,,15,,62,0
8879,note_on,,59,0,10,,,,,,,,,,,,,,,,12,,66,0
8879,note_on,,119,0,5,,,,,,,,,,,,,,,,2,,62,0
8879,note_on,,119,0,11,,,,,,,,,,,,,,,,13,,62,0
8879,note_on,,119,0,12,,,,,,,,,,,,,,,,15,,66,0
8879,note_on,,59,0,6,,,,,,,,,,,,,,,,3,,74,0
8879,note_on,,119,0,9,,,,,,,,,,,,,,,,11,,69,0
8879,note_on,,59,0,8,,,,,,,,,,,,,,,,10,,74,0
8879,note_on,,0,0,12,,,,,,,,,,,,,,,,15,,69,0
8880,note_on,,1,0,10,,,,,,,,,,,,,,,,12,,67,72
8880,note_on,,0,0,12,,,,,,,,,,,,,,,,15,,59,72
8880,note_on,,0,0,12,,,,,,,,,,,,,,,,15,,79,72
8880,note_on,,0,0,12,,,,,,,,,,,,,,,,15,,74,72
8880,note_on,,1,0,6,,,,,,,,,,,,,,,,3,,79,72
8880,note_on,,1,0,8,,,,,,,,,,,,,,,,10,,79,72
8880,note_on,,1,0,5,,,,,,,,,,,,,,,,2,,59,72
8880,note_on,,1,0,11,,,,,,,,,,,,,,,,13,,59,72
8880,note_on,,0,0,12,,,,,,,,,,,,,,,,15,,62,72
8880,note_on,,1,0,12,,,,,,,,,,,,,,,,15,,67,72
8880,note_on,,1,0,9,,,,,,,,,,,,,,,,11,,74,72
8999,note_on,,119,0,11,,,,,,,,,,,,,,,,13,,59,0
8999,note_on,,119,0,8,,,,,,,,,,,,,,,,10,,79,0
8999,note_on,,119,0,5,,,,,,,,,,,,,,,,2,,59,0
8999,note_on,,0,0,12,,,,,,,,,,,,,,,,15,,59,0
8999,note_on,,0,0,12,,,,,,,,,,,,,,,,15,,62,0
8999,note_on,,119,0,9,,,,,,,,,,,,,,,,11,,74,0
8999,note_on,,119,0,10,,,,,,,,,,,,,,,,12,,67,0
8999,note_on,,119,0,12,,,,,,,,,,,,,,,,15,,67,0
8999,note_on,,119,0,6,,,,,,,,,,,,,,,,3,,79,0
8999,note_on,,0,0,12,,,,,,,,,,,,,,,,15,,74,0
8999,note_on,,0,0,12,,,,,,,,,,,,,,,,15,,79,0
9000,note_on,,1,0,5,,,,,,,,,,,,,,,,2,,64,72
9000,note_on,,0,0,12,,,,,,,,,,,,,,,,15,,71,72
9000,note_on,,0,0,12,,,,,,,,,,,,,,,,15,,76,72
9000,note_on,,1,0,8,,,,,,,,,,,,,,,,10,,79,72
9000,note_on,,0,0,12,,,,,,,,,,,,,,,,15,,67,72
9000,note_on,,1,0,12,,,,,,,,,,,,,,,,15,,64,72
9000,note_on,,1,0,9,,,,,,,,,,,,,,,,11,,71,72
9000,note_on,,1,0,11,,,,,,,,,,,,,,,,13,,64,72
9000,note_on,,1,0,6,,,,,,,,,,,,,,,,3,,79,72
9000,note_on,,1,0,10,,,,,,,,,,,,,,,,12,,67,72
9119,note_on,,0,0,12,,,,,,,,,,,,,,,,15,,71,0
9119,note_on,,119,0,6,,,,,,,,,,,,,,,,3,,79,0
9119,note_on,,119,0,8,,,,,,,,,,,,,,,,10,,79,0
9119,note_on,,119,0,10,,,,,,,,,,,,,,,,12,,67,0
9119,note_on,,119,0,12,,,,,,,,,,,,,,,,15,,64,0
9119,note_on,,119,0,5,,,,,,,,,,,,,,,,2,,64,0
9119,note_on,,119,0,9,,,,,,,,,,,,,,,,11,,71,0
9119,note_on,,0,0,12,,,,,,,,,,,,,,,,15,,67,0
9119,note_on,,0,0,12,,,,,,,,,,,,,,,,15,,76,0
9119,note_on,,119,0,11,,,,,,,,,,,,,,,,13,,64,0
9120,note_on,,1,0,10,,,,,,,,,,,,,,,,12,,64,72
9120,note_on,,1,0,12,,,,,,,,,,,,,,,,15,,73,72
9120,note_on,,1,0,5,,,,,,,,,,,,,,,,2,,57,72
9120,note_on,,0,0,12,,,,,,,,,,,,,,,,15,,64,72
9120,note_on,,0,0,12,,,,,,,,,,,,,,,,15,,69,72
9120,note_on,,1,0,8,,,,,,,,,,,,,,,,10,,79,72
9120,note_on,,1,0,11,,,,,,,,,,,,,,,,13,,57,72
9120,note_on,,1,0,6,,,,,,,,,,,,,,,,3,,79,72
9120,note_on,,1,0,9,,,,,,,,,,,,,,,,11,,73,72
9120,note_on,,0,0,12,,,,,,,,,,,,,,,,15,,57,72
9299,note_on,,179,0,12,,,,,,,,,,,,,,,,15,,73,0
9299,note_on,,0,0,12,,,,,,,,,,,,,,,,15,,57,0
9299,note_on,,179,0,5,,,,,,,,,,,,,,,,2,,57,0
9299,note_on,,0,0,12,,,,,,,,,,,,,,,,15,,64,0
9299,note_on,,179,0,6,,,,,,,,,,,,,,,,3,,79,0
9299,note_on,,179,0,8,,,,,,,,,,,,,,,,10,,79,0
9299,note_on,,179,0,11,,,,,,,,,,,,,,,,13,,57,0
9299,note_on,,179,0,10,,,,,,,,,,,,,,,,12,,64,0
9299,note_on,,179,0,9,,,,,,,,,,,,,,,,11,,73,0
9299,note_on,,0,0,12,,,,,,,,,,,,,,,,15,,69,0
9300,note_on,,1,0,5,,,,,,,,,,,,,,,,2,,61,72
9300,note_on,,1,0,6,,,,,,,,,,,,,,,,3,,81,72
9300,note_on,,1,0,9,,,,,,,,,,,,,,,,11,,76,72
9300,note_on,,1,0,10,,,,,,,,,,,,,,,,12,,69,72
9300,note_on,,0,0,12,,,,,,,,,,,,,,,,15,,76,72
9300,note_on,,0,0,12,,,,,,,,,,,,,,,,15,,64,72
9300,note_on,,0,0,12,,,,,,,,,,,,,,,,15,,61,72
9300,note_on,,1,0,8,,,,,,,,,,,,,,,,10,,81,72
9300,note_on,,1,0,11,,,,,,,,,,,,,,,,13,,61,72
9300,note_on,,1,0,12,,,,,,,,,,,,,,,,15,,69,72
9359,note_on,,59,0,8,,,,,,,,,,,,,,,,10,,81,0
9359,note_on,,0,0,12,,,,,,,,,,,,,,,,15,,64,0
9359,note_on,,0,0,12,,,,,,,,,,,,,,,,15,,76,0
9359,note_on,,59,0,11,,,,,,,,,,,,,,,,13,,61,0
9359,note_on,,0,0,12,,,,,,,,,,,,,,,,15,,61,0
9359,note_on,,59,0,6,,,,,,,,,,,,,,,,3,,81,0
9359,note_on,,59,0,5,,,,,,,,,,,,,,,,2,,61,0
9359,note_on,,59,0,10,,,,,,,,,,,,,,,,12,,69,0
9359,note_on,,59,0,12,,,,,,,,,,,,,,,,15,,69,0
9359,note_on,,59,0,9,,,,,,,,,,,,,,,,11,,76,0
9360,note_on,,1,0,12,,,,,,,,,,,,,,,,15,,62,72
9360,note_on,,1,0,11,,,,,,,,,,,,,,,,13,,62,72
9360,note_on,,1,0,9,,,,,,,,,,,,,,,,11,,74,72
9360,note_on,,0,0,12,,,,,,,,,,,,,,,,15,,66,72
9360,note_on,,0,0,12,,,,,,,,,,,,,,,,15,,69,72
9360,note_on,,1,0,5,,,,,,,,,,,,,,,,2,,62,72
9360,note_on,,1,0,8,,,,,,,,,,,,,,,,10,,78,72
9360,note_on,,1,0,6,,,,,,,,,,,,,,,,3,,78,72
9360,note_on,,1,0,10,,,,,,,,,,,,,,,,12,,69,72
9419,note_on,,59,0,9,,,,,,,,,,,,,,,,11,,74,0
9419,note_on,,59,0,6,,,,,,,,,,,,,,,,3,,78,0
9419,note_on,,59,0,8,,,,,,,,,,,,,,,,10,,78,0
9420,note_on,,1,0,8,,,,,,,,,,,,,,,,10,,76,72
9420,note_on,,1,0,9,,,,,,,,,,,,,,,,11,,73,72
9420,note_on,,1,0,6,,,,,,,,,,,,,,,,3,,76,72
9479,note_on,,59,0,8,,,,,,,,,,,,,,,,10,,76,0
9479,note_on,,59,0,9,,,,,,,,,,,,,,,,11,,73,0
9479,note_on,,119,0,12,,,,,,,,,,,,,,,,15,,62,0
9479,note_on,,59,0,6,,,,,,,,,,,,,,,,3,,76,0
9479,note_on,,0,0,12,,,,,,,,,,,,,,,,15,,66,0
9479,note_on,,0,0,12,,,,,,,,,,,,,,,,15,,69,0
9479,note_on,,119,0,5,,,,,,,,,,,,,,,,2,,62,0
9479,note_on,,119,0,10,,,,,,,,,,,,,,,,12,,69,0
9479,note_on,,119,0,11,,,,,,,,,,,,,,,,13,,62,0
9480,note_on,,1,0,11,,,,,,,,,,,,,,,,13,,55,72
9480,note_on,,1,0,12,,,,,,,,,,,,,,,,15,,74,72
9480,note_on,,0,0,12,,,,,,,,,,,,,,,,15,,55,72
9480,note_on,,0,0,12,,,,,,,,,,,,,,,,15,,71,72
9480,note_on,,0,0,12,,,,,,,,,,,,,,,,15,,66,72
9480,note_on,,1,0,8,,,,,,,,,,,,,,,,10,,78,72
9480,note_on,,1,0,6,,,,,,,,,,,,,,,,3,,78,72
9480,note_on,,1,0,9,,,,,,,,,,,,,,,,11,,74,72
9480,note_on,,1,0,5,,,,,,,,,,,,,,,,2,,55,72
9539,note_on,,59,0,12,,,,,,,,,,,,,,,,15,,66,0
9539,note_on,,59,0,8,,,,,,,,,,,,,,,,10,,78,0
9539,note_on,,59,0,6,,,,,,,,,,,,,,,,3,,78,0
9539,note_on,,59,0,9,,,,,,,,,,,,,,,,11,,74,0
9540,note_on,,1,0,8,,,,,,,,,,,,,,,,10,,79,72
9540,note_on,,1,0,6,,,,,,,,,,,,,,,,3,,79,72
9540,note_on,,1,0,9,,,,,,,,,,,,,,,,11,,71,72
9540,note_on,,61,0,10,,,,,,,,,,,,,,,,12,,64,72
9540,note_on,,1,0,12,,,,,,,,,,,,,,,,15,,64,72
9599,note_on,,59,0,10,,,,,,,,,,,,,,,,12,,64,0
9599,note_on,,59,0,6,,,,,,,,,,,,,,,,3,,79,0
9599,note_on,,59,0,9,,,,,,,,,,,,,,,,11,,71,0
9599,note_on,,59,0,8,,,,,,,,,,,,,,,,10,,79,0
9599,note_on,,0,0,12,,,,,,,,,,,,,,,,15,,71,0
9599,note_on,,0,0,12,,,,,,,,,,,,,,,,15,,55,0
9599,note_on,,59,0,12,,,,,,,,,,,,,,,,15,,74,0
9599,note_on,,0,0,12,,,,,,,,,,,,,,,,15,,64,0
9599,note_on,,119,0,5,,,,,,,,,,,,,,,,2,,55,0
9599,note_on,,119,0,11,,,,,,,,,,,,,,,,13,,55,0
9600,note_on,,1,0,10,,,,,,,,,,,,,,,,12,,69,72
9600,note_on,,0,0,12,,,,,,,,,,,,,,,,15,,64,72
9600,note_on,,1,0,12,,,,,,,,,,,,,,,,15,,69,72
9600,note_on,,1,0,8,,,,,,,,,,,,,,,,10,,76,72
9600,note_on,,1,0,9,,,,,,,,,,,,,,,,11,,73,72
9600,note_on,,1,0,6,,,,,,,,,,,,,,,,3,,76,72
9600,note_on,,1,0,5,,,,,,,,,,,,,,,,2,,57,72
9600,note_on,,0,0,12,,,,,,,,,,,,,,,,15,,73,72
9600,note_on,,1,0,11,,,,,,,,,,,,,,,,13,,57,72
9600,note_on,,0,0,12,,,,,,,,,,,,,,,,15,,57,72
9614,note_on,,14,0,8,,,,,,,,,,,,,,,,10,,76,0
9614,note_on,,14,0,6,,,,,,,,,,,,,,,,3,,76,0
9615,note_on,,1,0,6,,,,,,,,,,,,,,,,3,,78,72
9615,note_on,,1,0,8,,,,,,,,,,,,,,,,10,,78,72
9629,note_on,,14,0,8,,,,,,,,,,,,,,,,10,,78,0
9629,note_on,,14,0,6,,,,,,,,,,,,,,,,3,,78,0
9630,note_on,,1,0,6,,,,,,,,,,,,,,,,3,,76,72
9630,note_on,,1,0,8,,,,,,,,,,,,,,,,10,,76,72
9644,note_on,,14,0,8,,,,,,,,,,,,,,,,10,,76,0
9644,note_on,,14,0,6,,,,,,,,,,,,,,,,3,,76,0
9645,note_on,,1,0,6,,,,,,,,,,,,,,,,3,,78,72
9645,note_on,,1,0,8,,,,,,,,,,,,,,,,10,,78,72
9659,note_on,,14,0,6,,,,,,,,,,,,,,,,3,,78,0
9659,note_on,,14,0,8,,,,,,,,,,,,,,,,10,,78,0
9660,note_on,,1,0,8,,,,,,,,,,,,,,,,10,,76,72
9660,note_on,,1,0,6,,,,,,,,,,,,,,,,3,,76,72
9674,note_on,,14,0,6,,,,,,,,,,,,,,,,3,,76,0
9674,note_on,,14,0,8,,,,,,,,,,,,,,,,10,,76,0
9675,note_on,,1,0,6,,,,,,,,,,,,,,,,3,,78,72
9675,note_on,,1,0,8,,,,,,,,,,,,,,,,10,,78,72
9689,note_on,,14,0,6,,,,,,,,,,,,,,,,3,,78,0
9689,note_on,,14,0,8,,,,,,,,,,,,,,,,10,,78,0
9690,note_on,,1,0,6,,,,,,,,,,,,,,,,3,,76,72
9690,note_on,,1,0,8,,,,,,,,,,,,,,,,10,,76,72
9704,note_on,,14,0,6,,,,,,,,,,,,,,,,3,,76,0
9704,note_on,,14,0,8,,,,,,,,,,,,,,,,10,,76,0
9705,note_on,,1,0,6,,,,,,,,,,,,,,,,3,,78,72
9705,note_on,,1,0,8,,,,,,,,,,,,,,,,10,,78,72
9719,note_on,,14,0,8,,,,,,,,,,,,,,,,10,,78,0
9719,note_on,,119,0,11,,,,,,,,,,,,,,,,13,,57,0
9719,note_on,,119,0,12,,,,,,,,,,,,,,,,15,,57,0
9719,note_on,,119,0,10,,,,,,,,,,,,,,,,12,,69,0
9719,note_on,,14,0,6,,,,,,,,,,,,,,,,3,,78,0
9719,note_on,,119,0,5,,,,,,,,,,,,,,,,2,,57,0
9720,note_on,,1,0,12,,,,,,,,,,,,,,,,15,,57,72
9720,note_on,,0,0,12,,,,,,,,,,,,,,,,15,,45,72
9720,note_on,,1,0,8,,,,,,,,,,,,,,,,10,,76,72
9720,note_on,,1,0,5,,,,,,,,,,,,,,,,2,,45,72
9720,note_on,,1,0,11,,,,,,,,,,,,,,,,13,,45,72
9720,note_on,,1,0,10,,,,,,,,,,,,,,,,12,,69,72
9720,note_on,,1,0,6,,,,,,,,,,,,,,,,3,,76,72
9734,note_on,,14,0,8,,,,,,,,,,,,,,,,10,,76,0
9734,note_on,,14,0,6,,,,,,,,,,,,,,,,3,,76,0
9735,note_on,,1,0,6,,,,,,,,,,,,,,,,3,,78,72
9735,note_on,,1,0,8,,,,,,,,,,,,,,,,10,,78,72
9749,note_on,,14,0,6,,,,,,,,,,,,,,,,3,,78,0
9749,note_on,,14,0,8,,,,,,,,,,,,,,,,10,,78,0
9750,note_on,,1,0,8,,,,,,,,,,,,,,,,10,,74,72
9750,note_on,,1,0,6,,,,,,,,,,,,,,,,3,,74,72
9764,note_on,,14,0,8,,,,,,,,,,,,,,,,10,,74,0
9764,note_on,,14,0,6,,,,,,,,,,,,,,,,3,,74,0
9765,note_on,,1,0,6,,,,,,,,,,,,,,,,3,,76,72
9765,note_on,,1,0,8,,,,,,,,,,,,,,,,10,,76,72
9779,note_on,,179,0,9,,,,,,,,,,,,,,,,11,,73,0
9779,note_on,,14,0,6,,,,,,,,,,,,,,,,3,,76,0
9779,note_on,,14,0,8,,,,,,,,,,,,,,,,10,,76,0
9780,note_on,,1,0,8,,,,,,,,,,,,,,,,10,,74,72
9780,note_on,,1,0,6,,,,,,,,,,,,,,,,3,,74,72
9780,note_on,,1,0,9,,,,,,,,,,,,,,,,11,,74,72
9839,note_on,,119,0,10,,,,,,,,,,,,,,,,12,,69,0
9839,note_on,,59,0,8,,,,,,,,,,,,,,,,10,,74,0
9839,note_on,,119,0,11,,,,,,,,,,,,,,,,13,,45,0
9839,note_on,,0,0,12,,,,,,,,,,,,,,,,15,,57,0
9839,note_on,,0,0,12,,,,,,,,,,,,,,,,15,,64,0
9839,note_on,,0,0,12,,,,,,,,,,,,,,,,15,,73,0
9839,note_on,,0,0,12,,,,,,,,,,,,,,,,15,,45,0
9839,note_on,,59,0,9,,,,,,,,,,,,,,,,11,,74,0
9839,note_on,,119,0,5,,,,,,,,,,,,,,,,2,,45,0
9839,note_on,,59,0,6,,,,,,,,,,,,,,,,3,,74,0
9839,note_on,,119,0,12,,,,,,,,,,,,,,,,15,,69,0
9840,note_on,,1,0,10,,,,,,,,,,,,,,,,12,,66,72
9840,note_on,,1,0,8,,,,,,,,,,,,,,,,10,,74,72
9840,note_on,,1,0,12,,,,,,,,,,,,,,,,15,,66,72
9840,note_on,,0,0,12,,,,,,,,,,,,,,,,15,,69,72
9840,note_on,,0,0,12,,,,,,,,,,,,,,,,15,,50,72
9840,note_on,,0,0,12,,,,,,,,,,,,,,,,15,,74,72
9840,note_on,,1,0,5,,,,,,,,,,,,,,,,2,,50,72
9840,note_on,,0,0,12,,,,,,,,,,,,,,,,15,,57,72
9840,note_on,,1,0,9,,,,,,,,,,,,,,,,11,,74,72
9840,note_on,,1,0,11,,,,,,,,,,,,,,,,13,,50,72
9840,note_on,,1,0,6,,,,,,,,,,,,,,,,3,,74,72
10079,note_on,,239,0,5,,,,,,,,,,,,,,,,2,,50,0
10079,note_on,,0,0,12,,,,,,,,,,,,,,,,15,,69,0
10079,note_on,,0,0,12,,,,,,,,,,,,,,,,15,,50,0
10079,note_on,,0,0,12,,,,,,,,,,,,,,,,15,,74,0
10079,note_on,,0,0,12,,,,,,,,,,,,,,,,15,,57,0
10079,note_on,,239,0,9,,,,,,,,,,,,,,,,11,,74,0
10079,note_on,,239,0,6,,,,,,,,,,,,,,,,3,,74,0
10079,note_on,,239,0,8,,,,,,,,,,,,,,,,10,,74,0
10079,note_on,,239,0,12,,,,,,,,,,,,,,,,15,,66,0
10079,note_on,,239,0,11,,,,,,,,,,,,,,,,13,,50,0
10079,note_on,,239,0,10,,,,,,,,,,,,,,,,12,,66,0
10080,note_on,,10080,0,7,,,,,,,,,,,,,,,,8,,50,72
10199,note_on,,119,0,7,,,,,,,,,,,,,,,,8,,50,0
10200,note_on,,1,0,7,,,,,,,,,,,,,,,,8,,54,72
10319,note_on,,119,0,7,,,,,,,,,,,,,,,,8,,54,0
10320,note_on,,1,0,7,,,,,,,,,,,,,,,,8,,54,72
10439,note_on,,119,0,7,,,,,,,,,,,,,,,,8,,54,0
10440,note_on,,1,0,7,,,,,,,,,,,,,,,,8,,57,72
10559,note_on,,119,0,7,,,,,,,,,,,,,,,,8,,57,0
10560,note_on,,1,0,7,,,,,,,,,,,,,,,,8,,62,72
10800,note_on,,721,0,10,,,,,,,,,,,,,,,,12,,54,64
10800,note_on,,721,0,12,,,,,,,,,,,,,,,,15,,50,64
10800,note_on,,0,0,12,,,,,,,,,,,,,,,,15,,66,64
10800,note_on,,0,0,12,,,,,,,,,,,,,,,,15,,62,64
10800,note_on,,721,0,11,,,,,,,,,,,,,,,,13,,50,64
10800,note_on,,721,0,8,,,,,,,,,,,,,,,,10,,62,64
10800,note_on,,721,0,6,,,,,,,,,,,,,,,,3,,62,64
10800,note_on,,721,0,9,,,,,,,,,,,,,,,,11,,57,64
10800,note_on,,0,0,12,,,,,,,,,,,,,,,,15,,69,64
10889,note_on,,89,0,12,,,,,,,,,,,,,,,,15,,50,0
10889,note_on,,89,0,11,,,,,,,,,,,,,,,,13,,50,0
10889,note_on,,89,0,9,,,,,,,,,,,,,,,,11,,57,0
10889,note_on,,89,0,6,,,,,,,,,,,,,,,,3,,62,0
10889,note_on,,89,0,8,,,,,,,,,,,,,,,,10,,62,0
10889,note_on,,89,0,10,,,,,,,,,,,,,,,,12,,54,0
10890,note_on,,1,0,6,,,,,,,,,,,,,,,,3,,62,64
10890,note_on,,1,0,10,,,,,,,,,,,,,,,,12,,54,64
10890,note_on,,1,0,9,,,,,,,,,,,,,,,,11,,57,64
10890,note_on,,1,0,8,,,,,,,,,,,,,,,,10,,62,64
10890,note_on,,1,0,11,,,,,,,,,,,,,,,,13,,50,64
10890,note_on,,1,0,12,,,,,,,,,,,,,,,,15,,50,64
10919,note_on,,29,0,9,,,,,,,,,,,,,,,,11,,57,0
10919,note_on,,29,0,10,,,,,,,,,,,,,,,,12,,54,0
10919,note_on,,29,0,12,,,,,,,,,,,,,,,,15,,66,0
10919,note_on,,0,0,12,,,,,,,,,,,,,,,,15,,69,0
10919,note_on,,0,0,12,,,,,,,,,,,,,,,,15,,62,0
10919,note_on,,29,0,11,,,,,,,,,,,,,,,,13,,50,0
10919,note_on,,29,0,8,,,,,,,,,,,,,,,,10,,62,0
10919,note_on,,29,0,6,,,,,,,,,,,,,,,,3,,62,0
10919,note_on,,0,0,12,,,,,,,,,,,,,,,,15,,50,0
10920,note_on,,1,0,11,,,,,,,,,,,,,,,,13,,50,64
10920,note_on,,1,0,8,,,,,,,,,,,,,,,,10,,66,64
10920,note_on,,1,0,9,,,,,,,,,,,,,,,,11,,62,64
10920,note_on,,1,0,10,,,,,,,,,,,,,,,,12,,57,64
10920,note_on,,1,0,6,,,,,,,,,,,,,,,,3,,66,64
10920,note_on,,0,0,12,,,,,,,,,,,,,,,,15,,66,64
10920,note_on,,0,0,12,,,,,,,,,,,,,,,,15,,69,64
10920,note_on,,0,0,12,,,,,,,,,,,,,,,,15,,74,64
10920,note_on,,1,0,12,,,,,,,,,,,,,,,,15,,50,64
11039,note_on,,0,0,12,,,,,,,,,,,,,,,,15,,66,0
11039,note_on,,0,0,12,,,,,,,,,,,,,,,,15,,69,0
11039,note_on,,119,0,12,,,,,,,,,,,,,,,,15,,74,0
11099,note_on,,179,0,10,,,,,,,,,,,,,,,,12,,57,0
11099,note_on,,179,0,6,,,,,,,,,,,,,,,,3,,66,0
11099,note_on,,60,0,12,,,,,,,,,,,,,,,,15,,50,0
11099,note_on,,179,0,11,,,,,,,,,,,,,,,,13,,50,0
11099,note_on,,179,0,8,,,,,,,,,,,,,,,,10,,66,0
11099,note_on,,179,0,9,,,,,,,,,,,,,,,,11,,62,0
11100,note_on,,1,0,8,,,,,,,,,,,,,,,,10,,66,64
11100,note_on,,1,0,6,,,,,,,,,,,,,,,,3,,66,64
11100,note_on,,1,0,11,,,,,,,,,,,,,,,,13,,50,64
11100,note_on,,1,0,10,,,,,,,,,,,,,,,,12,,57,64
11100,note_on,,1,0,9,,,,,,,,,,,,,,,,11,,62,64
11100,note_on,,1,0,12,,,,,,,,,,,,,,,,15,,50,64
11159,note_on,,59,0,11,,,,,,,,,,,,,,,,13,,50,0
11159,note_on,,59,0,12,,,,,,,,,,,,,,,,15,,50,0
11159,note_on,,59,0,6,,,,,,,,,,,,,,,,3,,66,0
11159,note_on,,599,0,7,,,,,,,,,,,,,,,,8,,62,0
11159,note_on,,59,0,9,,,,,,,,,,,,,,,,11,,62,0
11159,note_on,,59,0,8,,,,,,,,,,,,,,,,10,,66,0
11159,note_on,,59,0,10,,,,,,,,,,,,,,,,12,,57,0
11160,note_on,,1,0,10,,,,,,,,,,,,,,,,12,,57,64
11160,note_on,,0,0,12,,,,,,,,,,,,,,,,15,,78,64
11160,note_on,,0,0,12,,,,,,,,,,,,,,,,15,,74,64
11160,note_on,,1,0,6,,,,,,,,,,,,,,,,3,,66,64
11160,note_on,,1,0,8,,,,,,,,,,,,,,,,10,,66,64
11160,note_on,,0,0,12,,,,,,,,,,,,,,,,15,,50,64
11160,note_on,,1,0,9,,,,,,,,,,,,,,,,11,,62,64
11160,note_on,,1,0,11,,,,,,,,,,,,,,,,13,,50,64
11160,note_on,,1,0,12,,,,,,,,,,,,,,,,15,,69,64
11249,note_on,,89,0,9,,,,,,,,,,,,,,,,11,,62,0
11249,note_on,,89,0,12,,,,,,,,,,,,,,,,15,,50,0
11249,note_on,,89,0,10,,,,,,,,,,,,,,,,12,,57,0
11249,note_on,,89,0,6,,,,,,,,,,,,,,,,3,,66,0
11249,note_on,,89,0,11,,,,,,,,,,,,,,,,13,,50,0
11249,note_on,,89,0,8,,,,,,,,,,,,,,,,10,,66,0
11250,note_on,,1,0,8,,,,,,,,,,,,,,,,10,,66,64
11250,note_on,,1,0,12,,,,,,,,,,,,,,,,15,,50,64
11250,note_on,,1,0,9,,,,,,,,,,,,,,,,11,,62,64
11250,note_on,,1,0,11,,,,,,,,,,,,,,,,13,,50,64
11250,note_on,,1,0,10,,,,,,,,,,,,,,,,12,,57,64
11250,note_on,,1,0,6,,,,,,,,,,,,,,,,3,,66,64
11279,note_on,,29,0,12,,,,,,,,,,,,,,,,15,,69,0
11279,note_on,,0,0,12,,,,,,,,,,,,,,,,15,,74,0
11279,note_on,,0,0,12,,,,,,,,,,,,,,,,15,,78,0
11279,note_on,,29,0,6,,,,,,,,,,,,,,,,3,,66,0
11279,note_on,,29,0,8,,,,,,,,,,,,,,,,10,,66,0
11279,note_on,,0,0,12,,,,,,,,,,,,,,,,15,,50,0
11279,note_on,,29,0,11,,,,,,,,,,,,,,,,13,,50,0
11279,note_on,,29,0,9,,,,,,,,,,,,,,,,11,,62,0
11279,note_on,,29,0,10,,,,,,,,,,,,,,,,12,,57,0
11280,note_on,,1,0,6,,,,,,,,,,,,,,,,3,,69,64
11280,note_on,,0,0,12,,,,,,,,,,,,,,,,15,,76,64
11280,note_on,,0,0,12,,,,,,,,,,,,,,,,15,,49,64
11280,note_on,,1,0,8,,,,,,,,,,,,,,,,10,,69,64
11280,note_on,,1,0,12,,,,,,,,,,,,,,,,15,,64,64
11280,note_on,,1,0,11,,,,,,,,,,,,,,,,13,,49,64
11280,note_on,,1,0,9,,,,,,,,,,,,,,,,11,,64,64
11280,note_on,,0,0,12,,,,,,,,,,,,,,,,15,,69,64
11280,note_on,,1,0,10,,,,,,,,,,,,,,,,12,,57,64
11399,note_on,,119,0,6,,,,,,,,,,,,,,,,3,,69,0
11399,note_on,,119,0,10,,,,,,,,,,,,,,,,12,,57,0
11399,note_on,,0,0,12,,,,,,,,,,,,,,,,15,,76,0
11399,note_on,,0,0,12,,,,,,,,,,,,,,,,15,,69,0
11399,note_on,,119,0,12,,,,,,,,,,,,,,,,15,,64,0
11399,note_on,,119,0,9,,,,,,,,,,,,,,,,11,,64,0
11399,note_on,,119,0,8,,,,,,,,,,,,,,,,10,,69,0
11400,note_on,,241,0,7,,,,,,,,,,,,,,,,8,,57,72
11459,note_on,,60,0,12,,,,,,,,,,,,,,,,15,,49,0
11459,note_on,,179,0,11,,,,,,,,,,,,,,,,13,,49,0
11460,note_on,,1,0,11,,,,,,,,,,,,,,,,13,,49,64
11460,note_on,,1,0,12,,,,,,,,,,,,,,,,15,,49,64
11519,note_on,,59,0,12,,,,,,,,,,,,,,,,15,,49,0
11519,note_on,,119,0,7,,,,,,,,,,,,,,,,8,,57,0
11519,note_on,,59,0,11,,,,,,,,,,,,,,,,13,,49,0
11520,note_on,,1,0,7,,,,,,,,,,,,,,,,8,,57,72
11520,note_on,,0,0,12,,,,,,,,,,,,,,,,15,,69,64
11520,note_on,,1,0,11,,,,,,,,,,,,,,,,13,,49,64
11520,note_on,,1,0,12,,,,,,,,,,,,,,,,15,,64,64
11520,note_on,,0,0,12,,,,,,,,,,,,,,,,15,,61,64
11520,note_on,,0,0,12,,,,,,,,,,,,,,,,15,,49,64
11609,note_on,,89,0,12,,,,,,,,,,,,,,,,15,,49,0
11609,note_on,,89,0,11,,,,,,,,,,,,,,,,13,,49,0
11610,note_on,,1,0,11,,,,,,,,,,,,,,,,13,,49,64
11610,note_on,,1,0,12,,,,,,,,,,,,,,,,15,,49,64
11639,note_on,,119,0,7,,,,,,,,,,,,,,,,8,,57,0
11639,note_on,,29,0,11,,,,,,,,,,,,,,,,13,,49,0
11639,note_on,,0,0,12,,,,,,,,,,,,,,,,15,,49,0
11639,note_on,,0,0,12,,,,,,,,,,,,,,,,15,,61,0
11639,note_on,,0,0,12,,,,,,,,,,,,,,,,15,,69,0
11639,note_on,,29,0,12,,,,,,,,,,,,,,,,15,,64,0
11640,note_on,,1,0,11,,,,,,,,,,,,,,,,13,,47,64
11640,note_on,,1,0,7,,,,,,,,,,,,,,,,8,,50,72
11640,note_on,,0,0,12,,,,,,,,,,,,,,,,15,,71,64
11640,note_on,,0,0,12,,,,,,,,,,,,,,,,15,,66,64
11640,note_on,,1,0,12,,,,,,,,,,,,,,,,15,,62,64
11640,note_on,,0,0,12,,,,,,,,,,,,,,,,15,,47,64
11759,note_on,,119,0,7,,,,,,,,,,,,,,,,8,,50,0
11760,note_on,,1,0,7,,,,,,,,,,,,,,,,8,,50,72
11819,note_on,,179,0,12,,,,,,,,,,,,,,,,15,,47,0
11819,note_on,,179,0,11,,,,,,,,,,,,,,,,13,,47,0
11819,note_on,,59,0,7,,,,,,,,,,,,,,,,8,,50,0
11820,note_on,,1,0,11,,,,,,,,,,,,,,,,13,,47,64
11820,note_on,,1,0,7,,,,,,,,,,,,,,,,8,,52,72
11820,note_on,,1,0,12,,,,,,,,,,,,,,,,15,,47,64
11879,note_on,,59,0,7,,,,,,,,,,,,,,,,8,,52,0
11879,note_on,,59,0,12,,,,,,,,,,,,,,,,15,,47,0
11879,note_on,,59,0,11,,,,,,,,,,,,,,,,13,,47,0
11880,note_on,,1,0,11,,,,,,,,,,,,,,,,13,,47,64
11880,note_on,,1,0,7,,,,,,,,,,,,,,,,8,,54,72
11880,note_on,,1,0,12,,,,,,,,,,,,,,,,15,,47,64
11939,note_on,,59,0,7,,,,,,,,,,,,,,,,8,,54,0
11940,note_on,,1,0,7,,,,,,,,,,,,,,,,8,,55,72
11969,note_on,,89,0,11,,,,,,,,,,,,,,,,13,,47,0
11969,note_on,,89,0,12,,,,,,,,,,,,,,,,15,,47,0
11970,note_on,,1,0,11,,,,,,,,,,,,,,,,13,,47,64
11970,note_on,,1,0,12,,,,,,,,,,,,,,,,15,,47,64
11999,note_on,,29,0,11,,,,,,,,,,,,,,,,13,,47,0
11999,note_on,,0,0,12,,,,,,,,,,,,,,,,15,,47,0
11999,note_on,,0,0,12,,,,,,,,,,,,,,,,15,,66,0
11999,note_on,,0,0,12,,,,,,,,,,,,,,,,15,,71,0
11999,note_on,,59,0,7,,,,,,,,,,,,,,,,8,,55,0
11999,note_on,,29,0,12,,,,,,,,,,,,,,,,15,,62,0
12000,note_on,,0,0,12,,,,,,,,,,,,,,,,15,,45,64
12000,note_on,,0,0,12,,,,,,,,,,,,,,,,15,,73,64
12000,note_on,,1,0,11,,,,,,,,,,,,,,,,13,,45,64
12000,note_on,,1,0,7,,,,,,,,,,,,,,,,8,,57,72
12000,note_on,,1,0,12,,,,,,,,,,,,,,,,15,,69,64
12000,note_on,,0,0,12,,,,,,,,,,,,,,,,15,,64,64
12000,note_on,,0,0,12,,,,,,,,,,,,,,,,15,,76,64
12179,note_on,,179,0,11,,,,,,,,,,,,,,,,13,,45,0
12179,note_on,,179,0,12,,,,,,,,,,,,,,,,15,,64,0
12179,note_on,,0,0,12,,,,,,,,,,,,,,,,15,,45,0
12180,note_on,,0,0,12,,,,,,,,,,,,,,,,15,,62,64
12180,note_on,,1,0,12,,,,,,,,,,,,,,,,15,,47,64
12180,note_on,,1,0,11,,,,,,,,,,,,,,,,13,,47,64
12239,note_on,,59,0,12,,,,,,,,,,,,,,,,15,,69,0
12239,note_on,,59,0,11,,,,,,,,,,,,,,,,13,,47,0
12239,note_on,,239,0,7,,,,,,,,,,,,,,,,8,,57,0
12239,note_on,,0,0,12,,,,,,,,,,,,,,,,15,,47,0
12239,note_on,,0,0,12,,,,,,,,,,,,,,,,15,,62,0
12239,note_on,,0,0,12,,,,,,,,,,,,,,,,15,,76,0
12239,note_on,,0,0,12,,,,,,,,,,,,,,,,15,,73,0
12240,note_on,,841,0,6,,,,,,,,,,,,,,,,3,,69,64
12240,note_on,,1,0,12,,,,,,,,,,,,,,,,15,,61,64
12240,note_on,,0,0,12,,,,,,,,,,,,,,,,15,,64,64
12240,note_on,,0,0,12,,,,,,,,,,,,,,,,15,,45,64
12240,note_on,,1,0,11,,,,,,,,,,,,,,,,13,,45,64
12329,note_on,,0,0,12,,,,,,,,,,,,,,,,15,,45,0
12329,note_on,,89,0,11,,,,,,,,,,,,,,,,13,,45,0
12329,note_on,,89,0,12,,,,,,,,,,,,,,,,15,,61,0
12330,note_on,,1,0,12,,,,,,,,,,,,,,,,15,,59,64
12330,note_on,,0,0,12,,,,,,,,,,,,,,,,15,,43,64
12330,note_on,,1,0,11,,,,,,,,,,,,,,,,13,,43,64
12359,note_on,,119,0,6,,,,,,,,,,,,,,,,3,,69,0
12359,note_on,,29,0,12,,,,,,,,,,,,,,,,15,,64,0
12359,note_on,,0,0,12,,,,,,,,,,,,,,,,15,,59,0
12359,note_on,,0,0,12,,,,,,,,,,,,,,,,15,,43,0
12359,note_on,,29,0,11,,,,,,,,,,,,,,,,13,,43,0
12360,note_on,,0,0,12,,,,,,,,,,,,,,,,15,,69,64
12360,note_on,,0,0,12,,,,,,,,,,,,,,,,15,,57,64
12360,note_on,,0,0,12,,,,,,,,,,,,,,,,15,,62,64
12360,note_on,,1,0,6,,,,,,,,,,,,,,,,3,,74,64
12360,note_on,,1,0,12,,,,,,,,,,,,,,,,15,,42,64
12360,note_on,,1,0,11,,,,,,,,,,,,,,,,13,,42,64
12449,note_on,,89,0,6,,,,,,,,,,,,,,,,3,,74,0
12450,note_on,,1,0,6,,,,,,,,,,,,,,,,3,,76,64
12479,note_on,,29,0,6,,,,,,,,,,,,,,,,3,,76,0
12479,note_on,,0,0,12,,,,,,,,,,,,,,,,15,,69,0
12479,note_on,,0,0,12,,,,,,,,,,,,,,,,15,,62,0
12479,note_on,,119,0,11,,,,,,,,,,,,,,,,13,,42,0
12479,note_on,,119,0,12,,,,,,,,,,,,,,,,15,,42,0
12479,note_on,,0,0,12,,,,,,,,,,,,,,,,15,,57,0
12480,note_on,,1,0,12,,,,,,,,,,,,,,,,15,,47,64
12480,note_on,,0,0,12,,,,,,,,,,,,,,,,15,,71,64
12480,note_on,,0,0,12,,,,,,,,,,,,,,,,15,,62,64
12480,note_on,,0,0,12,,,,,,,,,,,,,,,,15,,66,64
12480,note_on,,1,0,11,,,,,,,,,,,,,,,,13,,47,48
12480,note_on,,1,0,6,,,,,,,,,,,,,,,,3,,74,64
12569,note_on,,89,0,6,,,,,,,,,,,,,,,,3,,74,0
12570,note_on,,1,0,6,,,,,,,,,,,,,,,,3,,76,64
12599,note_on,,29,0,6,,,,,,,,,,,,,,,,3,,76,0
12600,note_on,,1,0,6,,,,,,,,,,,,,,,,3,,78,64
12689,note_on,,89,0,6,,,,,,,,,,,,,,,,3,,78,0
12690,note_on,,1,0,6,,,,,,,,,,,,,,,,3,,79,64
12719,note_on,,29,0,6,,,,,,,,,,,,,,,,3,,79,0
12719,note_on,,239,0,12,,,,,,,,,,,,,,,,15,,47,0
12719,note_on,,0,0,12,,,,,,,,,,,,,,,,15,,66,0
12719,note_on,,0,0,12,,,,,,,,,,,,,,,,15,,62,0
12719,note_on,,0,0,12,,,,,,,,,,,,,,,,15,,71,0
12719,note_on,,239,0,11,,,,,,,,,,,,,,,,13,,47,0
12720,note_on,,0,0,12,,,,,,,,,,,,,,,,15,,69,64
12720,note_on,,1,0,11,,,,,,,,,,,,,,,,13,,45,48
12720,note_on,,1,0,12,,,,,,,,,,,,,,,,15,,64,64
12720,note_on,,0,0,12,,,,,,,,,,,,,,,,15,,73,64
12720,note_on,,1,0,6,,,,,,,,,,,,,,,,3,,81,64
12720,note_on,,0,0,12,,,,,,,,,,,,,,,,15,,45,64
12839,note_on,,119,0,11,,,,,,,,,,,,,,,,13,,45,0
12839,note_on,,119,0,12,,,,,,,,,,,,,,,,15,,45,0
12840,note_on,,1,0,11,,,,,,,,,,,,,,,,13,,57,48
12840,note_on,,601,0,7,,,,,,,,,,,,,,,,8,,57,72
12840,note_on,,1,0,12,,,,,,,,,,,,,,,,15,,57,48
12899,note_on,,179,0,6,,,,,,,,,,,,,,,,3,,81,0
12900,note_on,,1,0,6,,,,,,,,,,,,,,,,3,,79,64
12959,note_on,,119,0,11,,,,,,,,,,,,,,,,13,,57,0
12959,note_on,,119,0,7,,,,,,,,,,,,,,,,8,,57,0
12959,note_on,,119,0,12,,,,,,,,,,,,,,,,15,,64,0
12959,note_on,,0,0,12,,,,,,,,,,,,,,,,15,,73,0
12959,note_on,,0,0,12,,,,,,,,,,,,,,,,15,,69,0
12959,note_on,,59,0,6,,,,,,,,,,,,,,,,3,,79,0
12959,note_on,,0,0,12,,,,,,,,,,,,,,,,15,,57,0
12960,note_on,,1,0,11,,,,,,,,,,,,,,,,13,,57,48
12960,note_on,,1,0,6,,,,,,,,,,,,,,,,3,,78,64
12960,note_on,,0,0,12,,,,,,,,,,,,,,,,15,,69,48
12960,note_on,,1,0,12,,,,,,,,,,,,,,,,15,,57,48
12960,note_on,,0,0,12,,,,,,,,,,,,,,,,15,,81,48
12960,note_on,,0,0,12,,,,,,,,,,,,,,,,15,,73,48
12960,note_on,,1,0,7,,,,,,,,,,,,,,,,8,,57,72
13019,note_on,,59,0,6,,,,,,,,,,,,,,,,3,,78,0
13020,note_on,,1,0,6,,,,,,,,,,,,,,,,3,,76,64
13079,note_on,,59,0,6,,,,,,,,,,,,,,,,3,,76,0
13079,note_on,,0,0,12,,,,,,,,,,,,,,,,15,,69,0
13079,note_on,,119,0,11,,,,,,,,,,,,,,,,13,,57,0
13079,note_on,,119,0,7,,,,,,,,,,,,,,,,8,,57,0
13079,note_on,,0,0,12,,,,,,,,,,,,,,,,15,,81,0
13079,note_on,,119,0,12,,,,,,,,,,,,,,,,15,,57,0
13079,note_on,,0,0,12,,,,,,,,,,,,,,,,15,,73,0
13080,note_on,,1,0,12,,,,,,,,,,,,,,,,15,,59,48
13080,note_on,,0,0,12,,,,,,,,,,,,,,,,15,,71,48
13080,note_on,,0,0,12,,,,,,,,,,,,,,,,15,,66,48
13080,note_on,,0,0,12,,,,,,,,,,,,,,,,15,,74,48
13080,note_on,,1,0,11,,,,,,,,,,,,,,,,13,,59,48
13080,note_on,,1,0,6,,,,,,,,,,,,,,,,3,,74,64
13080,note_on,,1,0,7,,,,,,,,,,,,,,,,8,,59,72
13199,note_on,,119,0,11,,,,,,,,,,,,,,,,13,,59,0
13199,note_on,,119,0,6,,,,,,,,,,,,,,,,3,,74,0
13199,note_on,,119,0,7,,,,,,,,,,,,,,,,8,,59,0
13199,note_on,,119,0,12,,,,,,,,,,,,,,,,15,,59,0
13199,note_on,,0,0,12,,,,,,,,,,,,,,,,15,,74,0
13199,note_on,,0,0,12,,,,,,,,,,,,,,,,15,,71,0
13199,note_on,,0,0,12,,,,,,,,,,,,,,,,15,,66,0
13200,note_on,,1,0,6,,,,,,,,,,,,,,,,3,,76,64
13200,note_on,,0,0,12,,,,,,,,,,,,,,,,15,,61,48
13200,note_on,,1,0,11,,,,,,,,,,,,,,,,13,,61,48
13200,note_on,,1,0,7,,,,,,,,,,,,,,,,8,,61,72
13200,note_on,,1,0,12,,,,,,,,,,,,,,,,15,,69,48
13200,note_on,,0,0,12,,,,,,,,,,,,,,,,15,,64,48
13319,note_on,,119,0,6,,,,,,,,,,,,,,,,3,,76,0
13319,note_on,,119,0,12,,,,,,,,,,,,,,,,15,,64,0
13319,note_on,,119,0,11,,,,,,,,,,,,,,,,13,,61,0
13319,note_on,,119,0,7,,,,,,,,,,,,,,,,8,,61,0
13319,note_on,,0,0,12,,,,,,,,,,,,,,,,15,,61,0
13320,note_on,,1,0,11,,,,,,,,,,,,,,,,13,,62,48
13320,note_on,,0,0,12,,,,,,,,,,,,,,,,15,,66,48
13320,note_on,,1,0,12,,,,,,,,,,,,,,,,15,,62,48
13320,note_on,,1,0,7,,,,,,,,,,,,,,,,8,,62,72
13320,note_on,,1,0,6,,,,,,,,,,,,,,,,3,,78,64
13439,note_on,,0,0,12,,,,,,,,,,,,,,,,15,,62,0
13439,note_on,,0,0,12,,,,,,,,,,,,,,,,15,,66,0
13439,note_on,,119,0,6,,,,,,,,,,,,,,,,3,,78,0
13439,note_on,,119,0,7,,,,,,,,,,,,,,,,8,,62,0
13439,note_on,,119,0,12,,,,,,,,,,,,,,,,15,,69,0
13439,note_on,,119,0,11,,,,,,,,,,,,,,,,13,,62,0
13440,note_on,,1,0,12,,,,,,,,,,,,,,,,15,,64,48
13440,note_on,,0,0,12,,,,,,,,,,,,,,,,15,,76,48
13440,note_on,,0,0,12,,,,,,,,,,,,,,,,15,,67,48
13440,note_on,,1,0,7,,,,,,,,,,,,,,,,8,,64,72
13440,note_on,,1,0,11,,,,,,,,,,,,,,,,13,,64,48
13440,note_on,,1,0,6,,,,,,,,,,,,,,,,3,,79,64
13499,note_on,,59,0,11,,,,,,,,,,,,,,,,13,,64,0
13499,note_on,,59,0,7,,,,,,,,,,,,,,,,8,,64,0
13499,note_on,,59,0,12,,,,,,,,,,,,,,,,15,,64,0
13499,note_on,,0,0,12,,,,,,,,,,,,,,,,15,,67,0
13500,note_on,,1,0,12,,,,,,,,,,,,,,,,15,,66,48
13500,note_on,,1,0,7,,,,,,,,,,,,,,,,8,,62,72
13500,note_on,,0,0,12,,,,,,,,,,,,,,,,15,,62,48
13500,note_on,,1,0,11,,,,,,,,,,,,,,,,13,,62,48
13559,note_on,,59,0,11,,,,,,,,,,,,,,,,13,,62,0
13559,note_on,,0,0,12,,,,,,,,,,,,,,,,15,,62,0
13559,note_on,,59,0,12,,,,,,,,,,,,,,,,15,,66,0
13559,note_on,,59,0,7,,,,,,,,,,,,,,,,8,,62,0
13560,note_on,,0,0,12,,,,,,,,,,,,,,,,15,,67,48
13560,note_on,,1,0,12,,,,,,,,,,,,,,,,15,,64,48
13560,note_on,,1,0,11,,,,,,,,,,,,,,,,13,,64,48
13560,note_on,,1,0,7,,,,,,,,,,,,,,,,8,,64,72
13619,note_on,,59,0,12,,,,,,,,,,,,,,,,15,,64,0
13619,note_on,,179,0,6,,,,,,,,,,,,,,,,3,,79,0
13619,note_on,,59,0,11,,,,,,,,,,,,,,,,13,,64,0
13619,note_on,,59,0,7,,,,,,,,,,,,,,,,8,,64,0
13620,note_on,,1,0,12,,,,,,,,,,,,,,,,15,,61,48
13620,note_on,,1,0,11,,,,,,,,,,,,,,,,13,,57,48
13620,note_on,,0,0,12,,,,,,,,,,,,,,,,15,,57,48
13620,note_on,,1,0,6,,,,,,,,,,,,,,,,3,,78,64
13620,note_on,,1,0,7,,,,,,,,,,,,,,,,8,,57,72
13679,note_on,,0,0,12,,,,,,,,,,,,,,,,15,,57,0
13679,note_on,,59,0,12,,,,,,,,,,,,,,,,15,,61,0
13679,note_on,,59,0,11,,,,,,,,,,,,,,,,13,,57,0
13679,note_on,,59,0,6,,,,,,,,,,,,,,,,3,,78,0
13679,note_on,,59,0,7,,,,,,,,,,,,,,,,8,,57,0
13680,note_on,,1,0,12,,,,,,,,,,,,,,,,15,,62,48
13680,note_on,,1,0,6,,,,,,,,,,,,,,,,3,,79,64
13680,note_on,,1,0,7,,,,,,,,,,,,,,,,8,,59,72
13680,note_on,,1,0,11,,,,,,,,,,,,,,,,13,,59,48
13680,note_on,,0,0,12,,,,,,,,,,,,,,,,15,,59,48
13739,note_on,,59,0,7,,,,,,,,,,,,,,,,8,,59,0
13739,note_on,,59,0,12,,,,,,,,,,,,,,,,15,,62,0
13739,note_on,,59,0,11,,,,,,,,,,,,,,,,13,,59,0
13739,note_on,,59,0,6,,,,,,,,,,,,,,,,3,,79,0
13739,note_on,,0,0,12,,,,,,,,,,,,,,,,15,,59,0
13740,note_on,,1,0,11,,,,,,,,,,,,,,,,13,,61,48
13740,note_on,,1,0,7,,,,,,,,,,,,,,,,8,,61,72
13740,note_on,,0,0,12,,,,,,,,,,,,,,,,15,,64,48
13740,note_on,,1,0,6,,,,,,,,,,,,,,,,3,,76,64
13740,note_on,,1,0,12,,,,,,,,,,,,,,,,15,,61,48
13799,note_on,,59,0,7,,,,,,,,,,,,,,,,8,,61,0
13799,note_on,,59,0,12,,,,,,,,,,,,,,,,15,,76,0
13799,note_on,,59,0,11,,,,,,,,,,,,,,,,13,,61,0
13799,note_on,,0,0,12,,,,,,,,,,,,,,,,15,,67,0
13799,note_on,,59,0,6,,,,,,,,,,,,,,,,3,,76,0
13799,note_on,,0,0,12,,,,,,,,,,,,,,,,15,,61,0
13799,note_on,,0,0,12,,,,,,,,,,,,,,,,15,,64,0
13800,note_on,,0,0,12,,,,,,,,,,,,,,,,15,,69,48
13800,note_on,,1,0,7,,,,,,,,,,,,,,,,8,,62,72
13800,note_on,,1,0,6,,,,,,,,,,,,,,,,3,,78,64
13800,note_on,,1,0,12,,,,,,,,,,,,,,,,15,,66,48
13800,note_on,,1,0,11,,,,,,,,,,,,,,,,13,,62,48
13800,note_on,,0,0,12,,,,,,,,,,,,,,,,15,,62,48
13859,note_on,,59,0,12,,,,,,,,,,,,,,,,15,,62,0
13859,note_on,,59,0,7,,,,,,,,,,,,,,,,8,,62,0
13859,note_on,,59,0,6,,,,,,,,,,,,,,,,3,,78,0
13859,note_on,,59,0,11,,,,,,,,,,,,,,,,13,,62,0
13860,note_on,,1,0,11,,,,,,,,,,,,,,,,13,,61,48
13860,note_on,,1,0,6,,,,,,,,,,,,,,,,3,,79,64
13860,note_on,,1,0,7,,,,,,,,,,,,,,,,8,,61,72
13860,note_on,,1,0,12,,,,,,,,,,,,,,,,15,,61,48
13919,note_on,,59,0,12,,,,,,,,,,,,,,,,15,,66,0
13919,note_on,,0,0,12,,,,,,,,,,,,,,,,15,,61,0
13919,note_on,,59,0,7,,,,,,,,,,,,,,,,8,,61,0
13919,note_on,,59,0,11,,,,,,,,,,,,,,,,13,,61,0
13919,note_on,,0,0,12,,,,,,,,,,,,,,,,15,,69,0
13919,note_on,,59,0,6,,,,,,,,,,,,,,,,3,,79,0
13920,note_on,,1,0,7,,,,,,,,,,,,,,,,8,,62,72
13920,note_on,,1,0,11,,,,,,,,,,,,,,,,13,,62,48
13920,note_on,,0,0,12,,,,,,,,,,,,,,,,15,,69,48
13920,note_on,,1,0,6,,,,,,,,,,,,,,,,3,,78,64
13920,note_on,,0,0,12,,,,,,,,,,,,,,,,15,,62,48
13920,note_on,,0,0,12,,,,,,,,,,,,,,,,15,,78,48
13920,note_on,,1,0,12,,,,,,,,,,,,,,,,15,,74,48
13934,note_on,,14,0,6,,,,,,,,,,,,,,,,3,,78,0
13935,note_on,,1,0,6,,,,,,,,,,,,,,,,3,,79,64
13949,note_on,,14,0,6,,,,,,,,,,,,,,,,3,,79,0
13950,note_on,,1,0,6,,,,,,,,,,,,,,,,3,,78,64
13964,note_on,,14,0,6,,,,,,,,,,,,,,,,3,,78,0
13965,note_on,,1,0,6,,,,,,,,,,,,,,,,3,,79,64
13979,note_on,,14,0,6,,,,,,,,,,,,,,,,3,,79,0
13980,note_on,,1,0,6,,,,,,,,,,,,,,,,3,,78,64
13994,note_on,,14,0,6,,,,,,,,,,,,,,,,3,,78,0
13995,note_on,,1,0,6,,,,,,,,,,,,,,,,3,,79,64
14009,note_on,,14,0,6,,,,,,,,,,,,,,,,3,,79,0
14010,note_on,,1,0,6,,,,,,,,,,,,,,,,3,,78,64
14024,note_on,,14,0,6,,,,,,,,,,,,,,,,3,,78,0
14025,note_on,,1,0,6,,,,,,,,,,,,,,,,3,,79,64
14039,note_on,,119,0,11,,,,,,,,,,,,,,,,13,,62,0
14039,note_on,,119,0,12,,,,,,,,,,,,,,,,15,,74,0
14039,note_on,,0,0,12,,,,,,,,,,,,,,,,15,,69,0
14039,note_on,,0,0,12,,,,,,,,,,,,,,,,15,,78,0
14039,note_on,,0,0,12,,,,,,,,,,,,,,,,15,,62,0
14039,note_on,,14,0,6,,,,,,,,,,,,,,,,3,,79,0
14039,note_on,,119,0,7,,,,,,,,,,,,,,,,8,,62,0
14040,note_on,,1,0,6,,,,,,,,,,,,,,,,3,,78,64
14040,note_on,,1,0,7,,,,,,,,,,,,,,,,8,,50,72
14040,note_on,,1,0,11,,,,,,,,,,,,,,,,13,,50,48
14040,note_on,,1,0,12,,,,,,,,,,,,,,,,15,,81,48
14040,note_on,,0,0,12,,,,,,,,,,,,,,,,15,,50,48
14040,note_on,,0,0,12,,,,,,,,,,,,,,,,15,,74,48
14040,note_on,,0,0,12,,,,,,,,,,,,,,,,15,,78,48
14054,note_on,,14,0,6,,,,,,,,,,,,,,,,3,,78,0
14055,note_on,,1,0,6,,,,,,,,,,,,,,,,3,,79,64
14069,note_on,,14,0,6,,,,,,,,,,,,,,,,3,,79,0
14070,note_on,,1,0,6,,,,,,,,,,,,,,,,3,,76,64
14084,note_on,,14,0,6,,,,,,,,,,,,,,,,3,,76,0
14085,note_on,,1,0,6,,,,,,,,,,,,,,,,3,,78,64
14099,note_on,,14,0,6,,,,,,,,,,,,,,,,3,,78,0
14100,note_on,,1,0,6,,,,,,,,,,,,,,,,3,,76,64
14159,note_on,,0,0,12,,,,,,,,,,,,,,,,15,,74,0
14159,note_on,,0,0,12,,,,,,,,,,,,,,,,15,,50,0
14159,note_on,,119,0,11,,,,,,,,,,,,,,,,13,,50,0
14159,note_on,,59,0,6,,,,,,,,,,,,,,,,3,,76,0
14159,note_on,,119,0,7,,,,,,,,,,,,,,,,8,,50,0
14159,note_on,,119,0,12,,,,,,,,,,,,,,,,15,,81,0
14159,note_on,,0,0,12,,,,,,,,,,,,,,,,15,,78,0
14160,note_on,,0,0,12,,,,,,,,,,,,,,,,15,,64,48
14160,note_on,,1,0,12,,,,,,,,,,,,,,,,15,,57,48
14160,note_on,,0,0,12,,,,,,,,,,,,,,,,15,,69,48
14160,note_on,,1,0,11,,,,,,,,,,,,,,,,13,,57,48
14160,note_on,,0,0,12,,,,,,,,,,,,,,,,15,,73,48
14160,note_on,,1,0,7,,,,,,,,,,,,,,,,8,,57,72
14160,note_on,,1,0,6,,,,,,,,,,,,,,,,3,,76,64
14219,note_on,,59,0,7,,,,,,,,,,,,,,,,8,,57,0
14220,note_on,,1,0,7,,,,,,,,,,,,,,,,8,,57,72
14279,note_on,,59,0,7,,,,,,,,,,,,,,,,8,,57,0
14280,note_on,,1,0,7,,,,,,,,,,,,,,,,8,,57,72
14339,note_on,,179,0,11,,,,,,,,,,,,,,,,13,,57,0
14339,note_on,,179,0,12,,,,,,,,,,,,,,,,15,,57,0
14340,note_on,,1,0,12,,,,,,,,,,,,,,,,15,,55,72
14340,note_on,,4261,0,5,,,,,,,,,,,,,,,,2,,55,72
14340,note_on,,1,0,11,,,,,,,,,,,,,,,,13,,55,72
14399,note_on,,59,0,11,,,,,,,,,,,,,,,,13,,55,0
14399,note_on,,59,0,12,,,,,,,,,,,,,,,,15,,64,0
14399,note_on,,239,0,6,,,,,,,,,,,,,,,,3,,76,0
14399,note_on,,0,0,12,,,,,,,,,,,,,,,,15,,73,0
14399,note_on,,0,0,12,,,,,,,,,,,,,,,,15,,69,0
14399,note_on,,0,0,12,,,,,,,,,,,,,,,,15,,55,0
14399,note_on,,59,0,5,,,,,,,,,,,,,,,,2,,55,0
14399,note_on,,119,0,7,,,,,,,,,,,,,,,,8,,57,0
14400,note_on,,1,0,11,,,,,,,,,,,,,,,,13,,57,72
14400,note_on,,3001,0,9,,,,,,,,,,,,,,,,11,,66,72
14400,note_on,,3001,0,10,,,,,,,,,,,,,,,,12,,61,72
14400,note_on,,1,0,5,,,,,,,,,,,,,,,,2,,57,72
14400,note_on,,3001,0,8,,,,,,,,,,,,,,,,10,,81,72
14400,note_on,,1,0,12,,,,,,,,,,,,,,,,15,,57,72
14459,note_on,,59,0,5,,,,,,,,,,,,,,,,2,,57,0
14459,note_on,,59,0,11,,,,,,,,,,,,,,,,13,,57,0
14459,note_on,,59,0,12,,,,,,,,,,,,,,,,15,,57,0
14460,note_on,,1,0,11,,,,,,,,,,,,,,,,13,,54,72
14460,note_on,,1,0,5,,,,,,,,,,,,,,,,2,,54,72
14460,note_on,,1,0,12,,,,,,,,,,,,,,,,15,,54,72
14519,note_on,,59,0,11,,,,,,,,,,,,,,,,13,,54,0
14519,note_on,,119,0,10,,,,,,,,,,,,,,,,12,,61,0
14519,note_on,,119,0,8,,,,,,,,,,,,,,,,10,,81,0
14519,note_on,,59,0,12,,,,,,,,,,,,,,,,15,,54,0
14519,note_on,,59,0,5,,,,,,,,,,,,,,,,2,,54,0
14519,note_on,,119,0,9,,,,,,,,,,,,,,,,11,,66,0
14520,note_on,,0,0,12,,,,,,,,,,,,,,,,15,,66,72
14520,note_on,,1,0,8,,,,,,,,,,,,,,,,10,,74,72
14520,note_on,,1,0,5,,,,,,,,,,,,,,,,2,,59,72
14520,note_on,,1,0,11,,,,,,,,,,,,,,,,13,,59,72
14520,note_on,,0,0,12,,,,,,,,,,,,,,,,15,,71,72
14520,note_on,,1,0,12,,,,,,,,,,,,,,,,15,,59,72
14520,note_on,,1,0,9,,,,,,,,,,,,,,,,11,,66,72
14520,note_on,,0,0,12,,,,,,,,,,,,,,,,15,,62,72
14520,note_on,,1,0,10,,,,,,,,,,,,,,,,12,,62,72
14579,note_on,,59,0,5,,,,,,,,,,,,,,,,2,,59,0
14579,note_on,,59,0,11,,,,,,,,,,,,,,,,13,,59,0
14579,note_on,,59,0,12,,,,,,,,,,,,,,,,15,,59,0
14580,note_on,,1,0,11,,,,,,,,,,,,,,,,13,,61,72
14580,note_on,,1,0,5,,,,,,,,,,,,,,,,2,,61,72
14580,note_on,,1,0,12,,,,,,,,,,,,,,,,15,,61,72
14639,note_on,,59,0,11,,,,,,,,,,,,,,,,13,,61,0
14639,note_on,,59,0,5,,,,,,,,,,,,,,,,2,,61,0
14639,note_on,,59,0,12,,,,,,,,,,,,,,,,15,,61,0
14640,note_on,,1,0,5,,,,,,,,,,,,,,,,2,,59,72
14640,note_on,,1,0,11,,,,,,,,,,,,,,,,13,,59,72
14640,note_on,,1,0,12,,,,,,,,,,,,,,,,15,,59,72
14699,note_on,,59,0,12,,,,,,,,,,,,,,,,15,,59,0
14699,note_on,,179,0,9,,,,,,,,,,,,,,,,11,,66,0
14699,note_on,,59,0,11,,,,,,,,,,,,,,,,13,,59,0
14699,note_on,,179,0,8,,,,,,,,,,,,,,,,10,,74,0
14699,note_on,,59,0,5,,,,,,,,,,,,,,,,2,,59,0
14699,note_on,,179,0,10,,,,,,,,,,,,,,,,12,,62,0
14700,note_on,,1,0,9,,,,,,,,,,,,,,,,11,,66,72
14700,note_on,,1,0,11,,,,,,,,,,,,,,,,13,,57,72
14700,note_on,,1,0,5,,,,,,,,,,,,,,,,2,,57,72
14700,note_on,,1,0,12,,,,,,,,,,,,,,,,15,,57,72
14700,note_on,,1,0,8,,,,,,,,,,,,,,,,10,,74,72
14700,note_on,,1,0,10,,,,,,,,,,,,,,,,12,,61,72
14759,note_on,,59,0,11,,,,,,,,,,,,,,,,13,,57,0
14759,note_on,,59,0,12,,,,,,,,,,,,,,,,15,,57,0
14759,note_on,,59,0,9,,,,,,,,,,,,,,,,11,,66,0
14759,note_on,,59,0,8,,,,,,,,,,,,,,,,10,,74,0
14759,note_on,,59,0,5,,,,,,,,,,,,,,,,2,,57,0
14759,note_on,,59,0,10,,,,,,,,,,,,,,,,12,,61,0
14760,note_on,,1,0,5,,,,,,,,,,,,,,,,2,,55,72
14760,note_on,,1,0,8,,,,,,,,,,,,,,,,10,,76,72
14760,note_on,,1,0,9,,,,,,,,,,,,,,,,11,,67,72
14760,note_on,,1,0,11,,,,,,,,,,,,,,,,13,,55,72
14760,note_on,,1,0,10,,,,,,,,,,,,,,,,12,,59,72
14760,note_on,,1,0,12,,,,,,,,,,,,,,,,15,,55,72
14819,note_on,,59,0,8,,,,,,,,,,,,,,,,10,,76,0
14819,note_on,,59,0,11,,,,,,,,,,,,,,,,13,,55,0
14819,note_on,,59,0,12,,,,,,,,,,,,,,,,15,,55,0
14819,note_on,,59,0,9,,,,,,,,,,,,,,,,11,,67,0
14819,note_on,,59,0,5,,,,,,,,,,,,,,,,2,,55,0
14820,note_on,,1,0,5,,,,,,,,,,,,,,,,2,,54,72
14820,note_on,,1,0,12,,,,,,,,,,,,,,,,15,,54,72
14820,note_on,,1,0,8,,,,,,,,,,,,,,,,10,,78,72
14820,note_on,,1,0,11,,,,,,,,,,,,,,,,13,,54,72
14820,note_on,,1,0,9,,,,,,,,,,,,,,,,11,,69,72
14879,note_on,,59,0,8,,,,,,,,,,,,,,,,10,,78,0
14879,note_on,,59,0,11,,,,,,,,,,,,,,,,13,,54,0
14879,note_on,,59,0,12,,,,,,,,,,,,,,,,15,,66,0
14879,note_on,,0,0,12,,,,,,,,,,,,,,,,15,,62,0
14879,note_on,,0,0,12,,,,,,,,,,,,,,,,15,,54,0
14879,note_on,,59,0,9,,,,,,,,,,,,,,,,11,,69,0
14879,note_on,,119,0,10,,,,,,,,,,,,,,,,12,,59,0
14879,note_on,,59,0,5,,,,,,,,,,,,,,,,2,,54,0
14879,note_on,,0,0,12,,,,,,,,,,,,,,,,15,,71,0
14880,note_on,,1,0,12,,,,,,,,,,,,,,,,15,,52,72
14880,note_on,,1,0,8,,,,,,,,,,,,,,,,10,,79,72
14880,note_on,,0,0,12,,,,,,,,,,,,,,,,15,,71,72
14880,note_on,,1,0,5,,,,,,,,,,,,,,,,2,,52,72
14880,note_on,,0,0,12,,,,,,,,,,,,,,,,15,,76,72
14880,note_on,,0,0,12,,,,,,,,,,,,,,,,15,,67,72
14880,note_on,,1,0,10,,,,,,,,,,,,,,,,12,,59,72
14880,note_on,,1,0,9,,,,,,,,,,,,,,,,11,,71,72
14880,note_on,,1,0,11,,,,,,,,,,,,,,,,13,,52,72
14999,note_on,,119,0,9,,,,,,,,,,,,,,,,11,,71,0
14999,note_on,,119,0,11,,,,,,,,,,,,,,,,13,,52,0
14999,note_on,,119,0,5,,,,,,,,,,,,,,,,2,,52,0
14999,note_on,,119,0,12,,,,,,,,,,,,,,,,15,,52,0
14999,note_on,,119,0,10,,,,,,,,,,,,,,,,12,,59,0
14999,note_on,,0,0,12,,,,,,,,,,,,,,,,15,,67,0
14999,note_on,,0,0,12,,,,,,,,,,,,,,,,15,,76,0
14999,note_on,,0,0,12,,,,,,,,,,,,,,,,15,,71,0
15000,note_on,,0,0,12,,,,,,,,,,,,,,,,15,,61,72
15000,note_on,,0,0,12,,,,,,,,,,,,,,,,15,,64,72
15000,note_on,,1,0,11,,,,,,,,,,,,,,,,13,,61,72
15000,note_on,,1,0,10,,,,,,,,,,,,,,,,12,,64,72
15000,note_on,,1,0,9,,,,,,,,,,,,,,,,11,,69,72
15000,note_on,,1,0,5,,,,,,,,,,,,,,,,2,,61,72
15000,note_on,,1,0,12,,,,,,,,,,,,,,,,15,,69,72
15059,note_on,,179,0,8,,,,,,,,,,,,,,,,10,,79,0
15060,note_on,,1,0,8,,,,,,,,,,,,,,,,10,,78,72
15119,note_on,,119,0,11,,,,,,,,,,,,,,,,13,,61,0
15119,note_on,,119,0,10,,,,,,,,,,,,,,,,12,,64,0
15119,note_on,,119,0,5,,,,,,,,,,,,,,,,2,,61,0
15119,note_on,,0,0,12,,,,,,,,,,,,,,,,15,,61,0
15119,note_on,,0,0,12,,,,,,,,,,,,,,,,15,,64,0
15119,note_on,,119,0,12,,,,,,,,,,,,,,,,15,,69,0
15119,note_on,,59,0,8,,,,,,,,,,,,,,,,10,,78,0
15119,note_on,,119,0,9,,,,,,,,,,,,,,,,11,,69,0
15120,note_on,,0,0,12,,,,,,,,,,,,,,,,15,,57,72
15120,note_on,,1,0,5,,,,,,,,,,,,,,,,2,,57,72
15120,note_on,,1,0,12,,,,,,,,,,,,,,,,15,,69,72
15120,note_on,,1,0,11,,,,,,,,,,,,,,,,13,,57,72
15120,note_on,,1,0,10,,,,,,,,,,,,,,,,12,,69,72
15120,note_on,,1,0,8,,,,,,,,,,,,,,,,10,,79,72
15120,note_on,,0,0,12,,,,,,,,,,,,,,,,15,,73,72
15120,note_on,,0,0,12,,,,,,,,,,,,,,,,15,,64,72
15120,note_on,,1,0,9,,,,,,,,,,,,,,,,11,,73,72
15179,note_on,,59,0,8,,,,,,,,,,,,,,,,10,,79,0
15180,note_on,,1,0,8,,,,,,,,,,,,,,,,10,,76,72
15239,note_on,,59,0,8,,,,,,,,,,,,,,,,10,,76,0
15239,note_on,,119,0,9,,,,,,,,,,,,,,,,11,,73,0
15239,note_on,,0,0,12,,,,,,,,,,,,,,,,15,,73,0
15239,note_on,,119,0,5,,,,,,,,,,,,,,,,2,,57,0
15239,note_on,,119,0,10,,,,,,,,,,,,,,,,12,,69,0
15239,note_on,,119,0,12,,,,,,,,,,,,,,,,15,,69,0
15239,note_on,,119,0,11,,,,,,,,,,,,,,,,13,,57,0
15239,note_on,,0,0,12,,,,,,,,,,,,,,,,15,,64,0
15239,note_on,,0,0,12,,,,,,,,,,,,,,,,15,,57,0
15240,note_on,,1,0,5,,,,,,,,,,,,,,,,2,,62,72
15240,note_on,,1,0,8,,,,,,,,,,,,,,,,10,,78,72
15240,note_on,,1,0,10,,,,,,,,,,,,,,,,12,,69,72
15240,note_on,,1,0,9,,,,,,,,,,,,,,,,11,,74,72
15240,note_on,,1,0,12,,,,,,,,,,,,,,,,15,,66,72
15240,note_on,,0,0,12,,,,,,,,,,,,,,,,15,,74,72
15240,note_on,,0,0,12,,,,,,,,,,,,,,,,15,,69,72
15240,note_on,,0,0,12,,,,,,,,,,,,,,,,15,,62,72
15240,note_on,,1,0,11,,,,,,,,,,,,,,,,13,,62,72
15299,note_on,,59,0,12,,,,,,,,,,,,,,,,15,,62,0
15299,note_on,,59,0,9,,,,,,,,,,,,,,,,11,,74,0
15299,note_on,,59,0,8,,,,,,,,,,,,,,,,10,,78,0
15299,note_on,,59,0,10,,,,,,,,,,,,,,,,12,,69,0
15299,note_on,,59,0,11,,,,,,,,,,,,,,,,13,,62,0
15299,note_on,,59,0,5,,,,,,,,,,,,,,,,2,,62,0
15300,note_on,,1,0,8,,,,,,,,,,,,,,,,10,,79,72
15300,note_on,,1,0,12,,,,,,,,,,,,,,,,15,,61,72
15300,note_on,,1,0,10,,,,,,,,,,,,,,,,12,,69,72
15300,note_on,,1,0,5,,,,,,,,,,,,,,,,2,,61,72
15300,note_on,,1,0,11,,,,,,,,,,,,,,,,13,,61,72
15300,note_on,,1,0,9,,,,,,,,,,,,,,,,11,,76,72
15359,note_on,,59,0,12,,,,,,,,,,,,,,,,15,,61,0
15359,note_on,,59,0,8,,,,,,,,,,,,,,,,10,,79,0
15359,note_on,,59,0,11,,,,,,,,,,,,,,,,13,,61,0
15359,note_on,,59,0,5,,,,,,,,,,,,,,,,2,,61,0
15359,note_on,,59,0,9,,,,,,,,,,,,,,,,11,,76,0
15359,note_on,,59,0,10,,,,,,,,,,,,,,,,12,,69,0
15360,note_on,,1,0,11,,,,,,,,,,,,,,,,13,,62,72
15360,note_on,,1,0,8,,,,,,,,,,,,,,,,10,,78,72
15360,note_on,,1,0,5,,,,,,,,,,,,,,,,2,,62,72
15360,note_on,,1,0,12,,,,,,,,,,,,,,,,15,,62,72
15360,note_on,,1,0,9,,,,,,,,,,,,,,,,11,,74,72
15360,note_on,,1,0,10,,,,,,,,,,,,,,,,12,,69,72
15374,note_on,,14,0,8,,,,,,,,,,,,,,,,10,,78,0
15375,note_on,,1,0,8,,,,,,,,,,,,,,,,10,,79,72
15389,note_on,,14,0,8,,,,,,,,,,,,,,,,10,,79,0
15390,note_on,,1,0,8,,,,,,,,,,,,,,,,10,,78,72
15404,note_on,,14,0,8,,,,,,,,,,,,,,,,10,,78,0
15405,note_on,,1,0,8,,,,,,,,,,,,,,,,10,,79,72
15419,note_on,,14,0,8,,,,,,,,,,,,,,,,10,,79,0
15420,note_on,,1,0,8,,,,,,,,,,,,,,,,10,,78,72
15434,note_on,,14,0,8,,,,,,,,,,,,,,,,10,,78,0
15435,note_on,,1,0,8,,,,,,,,,,,,,,,,10,,79,72
15449,note_on,,14,0,8,,,,,,,,,,,,,,,,10,,79,0
15450,note_on,,1,0,8,,,,,,,,,,,,,,,,10,,78,72
15464,note_on,,14,0,8,,,,,,,,,,,,,,,,10,,78,0
15465,note_on,,1,0,8,,,,,,,,,,,,,,,,10,,79,72
15479,note_on,,119,0,11,,,,,,,,,,,,,,,,13,,62,0
15479,note_on,,119,0,10,,,,,,,,,,,,,,,,12,,69,0
15479,note_on,,119,0,12,,,,,,,,,,,,,,,,15,,62,0
15479,note_on,,14,0,8,,,,,,,,,,,,,,,,10,,79,0
15479,note_on,,119,0,5,,,,,,,,,,,,,,,,2,,62,0
15480,note_on,,1,0,5,,,,,,,,,,,,,,,,2,,50,72
15480,note_on,,1,0,12,,,,,,,,,,,,,,,,15,,50,72
15480,note_on,,1,0,10,,,,,,,,,,,,,,,,12,,69,72
15480,note_on,,1,0,8,,,,,,,,,,,,,,,,10,,78,72
15480,note_on,,1,0,11,,,,,,,,,,,,,,,,13,,50,72
15494,note_on,,14,0,8,,,,,,,,,,,,,,,,10,,78,0
15495,note_on,,1,0,8,,,,,,,,,,,,,,,,10,,79,72
15509,note_on,,14,0,8,,,,,,,,,,,,,,,,10,,79,0
15510,note_on,,1,0,8,,,,,,,,,,,,,,,,10,,76,72
15524,note_on,,14,0,8,,,,,,,,,,,,,,,,10,,76,0
15525,note_on,,1,0,8,,,,,,,,,,,,,,,,10,,78,72
15539,note_on,,179,0,9,,,,,,,,,,,,,,,,11,,74,0
15539,note_on,,14,0,8,,,,,,,,,,,,,,,,10,,78,0
15540,note_on,,1,0,8,,,,,,,,,,,,,,,,10,,76,72
15540,note_on,,1,0,9,,,,,,,,,,,,,,,,11,,73,72
15599,note_on,,59,0,9,,,,,,,,,,,,,,,,11,,73,0
15599,note_on,,119,0,10,,,,,,,,,,,,,,,,12,,69,0
15599,note_on,,59,0,8,,,,,,,,,,,,,,,,10,,76,0
15599,note_on,,119,0,5,,,,,,,,,,,,,,,,2,,50,0
15599,note_on,,0,0,12,,,,,,,,,,,,,,,,15,,69,0
15599,note_on,,119,0,11,,,,,,,,,,,,,,,,13,,50,0
15599,note_on,,119,0,12,,,,,,,,,,,,,,,,15,,66,0
15599,note_on,,0,0,12,,,,,,,,,,,,,,,,15,,74,0
15599,note_on,,0,0,12,,,,,,,,,,,,,,,,15,,50,0
15600,note_on,,1,0,8,,,,,,,,,,,,,,,,10,,76,72
15600,note_on,,1,0,9,,,,,,,,,,,,,,,,11,,73,72
15600,note_on,,1,0,5,,,,,,,,,,,,,,,,2,,57,72
15600,note_on,,0,0,12,,,,,,,,,,,,,,,,15,,69,72
15600,note_on,,0,0,12,,,,,,,,,,,,,,,,15,,73,72
15600,note_on,,1,0,10,,,,,,,,,,,,,,,,12,,69,72
15600,note_on,,1,0,11,,,,,,,,,,,,,,,,13,,57,72
15600,note_on,,0,0,12,,,,,,,,,,,,,,,,15,,57,72
15600,note_on,,1,0,12,,,,,,,,,,,,,,,,15,,64,72
15600,note_on,,0,0,12,,,,,,,,,,,,,,,,15,,76,72
15839,note_on,,239,0,12,,,,,,,,,,,,,,,,15,,64,0
15839,note_on,,239,0,10,,,,,,,,,,,,,,,,12,,69,0
15839,note_on,,239,0,5,,,,,,,,,,,,,,,,2,,57,0
15839,note_on,,0,0,12,,,,,,,,,,,,,,,,15,,76,0
15839,note_on,,0,0,12,,,,,,,,,,,,,,,,15,,57,0
15839,note_on,,0,0,12,,,,,,,,,,,,,,,,15,,73,0
15839,note_on,,0,0,12,,,,,,,,,,,,,,,,15,,69,0
15839,note_on,,239,0,11,,,,,,,,,,,,,,,,13,,57,0
15839,note_on,,239,0,8,,,,,,,,,,,,,,,,10,,76,0
15839,note_on,,239,0,9,,,,,,,,,,,,,,,,11,,73,0
15840,note_on,,1441,0,7,,,,,,,,,,,,,,,,8,,52,72
15959,note_on,,119,0,7,,,,,,,,,,,,,,,,8,,52,0
15960,note_on,,1,0,7,,,,,,,,,,,,,,,,8,,57,72
16079,note_on,,119,0,7,,,,,,,,,,,,,,,,8,,57,0
16080,note_on,,1,0,7,,,,,,,,,,,,,,,,8,,57,72
16139,note_on,,59,0,7,,,,,,,,,,,,,,,,8,,57,0
16140,note_on,,1,0,7,,,,,,,,,,,,,,,,8,,59,72
16199,note_on,,59,0,7,,,,,,,,,,,,,,,,8,,59,0
16200,note_on,,1,0,7,,,,,,,,,,,,,,,,8,,61,72
16259,note_on,,59,0,7,,,,,,,,,,,,,,,,8,,61,0
16260,note_on,,1,0,7,,,,,,,,,,,,,,,,8,,62,72
16319,note_on,,59,0,7,,,,,,,,,,,,,,,,8,,62,0
16320,note_on,,1,0,7,,,,,,,,,,,,,,,,8,,64,72
16560,note_on,,721,0,10,,,,,,,,,,,,,,,,12,,61,64
16560,note_on,,721,0,9,,,,,,,,,,,,,,,,11,,64,64
16560,note_on,,0,0,12,,,,,,,,,,,,,,,,15,,57,64
16560,note_on,,0,0,12,,,,,,,,,,,,,,,,15,,61,64
16560,note_on,,0,0,12,,,,,,,,,,,,,,,,15,,64,64
16560,note_on,,721,0,11,,,,,,,,,,,,,,,,13,,45,64
16560,note_on,,721,0,12,,,,,,,,,,,,,,,,15,,45,64
16560,note_on,,2161,0,6,,,,,,,,,,,,,,,,3,,69,64
16560,note_on,,721,0,8,,,,,,,,,,,,,,,,10,,69,64
16560,note_on,,721,0,5,,,,,,,,,,,,,,,,2,,45,64
16679,note_on,,0,0,12,,,,,,,,,,,,,,,,15,,57,0
16679,note_on,,0,0,12,,,,,,,,,,,,,,,,15,,61,0
16679,note_on,,0,0,12,,,,,,,,,,,,,,,,15,,64,0
16679,note_on,,119,0,12,,,,,,,,,,,,,,,,15,,45,0
16679,note_on,,119,0,10,,,,,,,,,,,,,,,,12,,61,0
16679,note_on,,119,0,5,,,,,,,,,,,,,,,,2,,45,0
16679,note_on,,119,0,9,,,,,,,,,,,,,,,,11,,64,0
16679,note_on,,119,0,8,,,,,,,,,,,,,,,,10,,69,0
16679,note_on,,119,0,6,,,,,,,,,,,,,,,,3,,69,0
16679,note_on,,119,0,11,,,,,,,,,,,,,,,,13,,45,0
16680,note_on,,0,0,12,,,,,,,,,,,,,,,,15,,69,64
16680,note_on,,0,0,12,,,,,,,,,,,,,,,,15,,64,64
16680,note_on,,0,0,12,,,,,,,,,,,,,,,,15,,57,64
16680,note_on,,1,0,12,,,,,,,,,,,,,,,,15,,61,64
16680,note_on,,1,0,9,,,,,,,,,,,,,,,,11,,69,64
16680,note_on,,1,0,5,,,,,,,,,,,,,,,,2,,57,64
16680,note_on,,1,0,10,,,,,,,,,,,,,,,,12,,64,64
16680,note_on,,1,0,6,,,,,,,,,,,,,,,,3,,69,64
16680,note_on,,1,0,11,,,,,,,,,,,,,,,,13,,57,64
16680,note_on,,1,0,8,,,,,,,,,,,,,,,,10,,73,64
16799,note_on,,119,0,12,,,,,,,,,,,,,,,,15,,61,0
16799,note_on,,0,0,12,,,,,,,,,,,,,,,,15,,64,0
16799,note_on,,0,0,12,,,,,,,,,,,,,,,,15,,69,0
16859,note_on,,179,0,6,,,,,,,,,,,,,,,,3,,69,0
16859,note_on,,179,0,5,,,,,,,,,,,,,,,,2,,57,0
16859,note_on,,179,0,10,,,,,,,,,,,,,,,,12,,64,0
16859,note_on,,179,0,9,,,,,,,,,,,,,,,,11,,69,0
16859,note_on,,179,0,8,,,,,,,,,,,,,,,,10,,73,0
16859,note_on,,60,0,12,,,,,,,,,,,,,,,,15,,57,0
16859,note_on,,179,0,11,,,,,,,,,,,,,,,,13,,57,0
16860,note_on,,1,0,10,,,,,,,,,,,,,,,,12,,64,64
16860,note_on,,1,0,12,,,,,,,,,,,,,,,,15,,57,64
16860,note_on,,1,0,6,,,,,,,,,,,,,,,,3,,69,64
16860,note_on,,1,0,11,,,,,,,,,,,,,,,,13,,57,64
16860,note_on,,1,0,9,,,,,,,,,,,,,,,,11,,69,64
16860,note_on,,1,0,5,,,,,,,,,,,,,,,,2,,57,64
16860,note_on,,1,0,8,,,,,,,,,,,,,,,,10,,73,64
16919,note_on,,59,0,9,,,,,,,,,,,,,,,,11,,69,0
16919,note_on,,59,0,10,,,,,,,,,,,,,,,,12,,64,0
16919,note_on,,59,0,12,,,,,,,,,,,,,,,,15,,57,0
16919,note_on,,59,0,8,,,,,,,,,,,,,,,,10,,73,0
16919,note_on,,59,0,6,,,,,,,,,,,,,,,,3,,69,0
16919,note_on,,59,0,11,,,,,,,,,,,,,,,,13,,57,0
16919,note_on,,59,0,5,,,,,,,,,,,,,,,,2,,57,0
16919,note_on,,599,0,7,,,,,,,,,,,,,,,,8,,64,0
16920,note_on,,1,0,9,,,,,,,,,,,,,,,,11,,69,64
16920,note_on,,1,0,8,,,,,,,,,,,,,,,,10,,73,64
16920,note_on,,1,0,6,,,,,,,,,,,,,,,,3,,69,64
16920,note_on,,1,0,5,,,,,,,,,,,,,,,,2,,57,64
16920,note_on,,1,0,10,,,,,,,,,,,,,,,,12,,64,64
16920,note_on,,1,0,12,,,,,,,,,,,,,,,,15,,73,64
16920,note_on,,0,0,12,,,,,,,,,,,,,,,,15,,69,64
16920,note_on,,0,0,12,,,,,,,,,,,,,,,,15,,64,64
16920,note_on,,0,0,12,,,,,,,,,,,,,,,,15,,57,64
16920,note_on,,1,0,11,,,,,,,,,,,,,,,,13,,57,64
17009,note_on,,89,0,11,,,,,,,,,,,,,,,,13,,57,0
17009,note_on,,89,0,12,,,,,,,,,,,,,,,,15,,57,0
17009,note_on,,89,0,6,,,,,,,,,,,,,,,,3,,69,0
17009,note_on,,89,0,8,,,,,,,,,,,,,,,,10,,73,0
17009,note_on,,89,0,9,,,,,,,,,,,,,,,,11,,69,0
17009,note_on,,89,0,10,,,,,,,,,,,,,,,,12,,64,0
17009,note_on,,89,0,5,,,,,,,,,,,,,,,,2,,57,0
17010,note_on,,1,0,12,,,,,,,,,,,,,,,,15,,57,64
17010,note_on,,1,0,9,,,,,,,,,,,,,,,,11,,69,64
17010,note_on,,1,0,5,,,,,,,,,,,,,,,,2,,57,64
17010,note_on,,1,0,11,,,,,,,,,,,,,,,,13,,57,64
17010,note_on,,1,0,6,,,,,,,,,,,,,,,,3,,69,64
17010,note_on,,1,0,8,,,,,,,,,,,,,,,,10,,73,64
17010,note_on,,1,0,10,,,,,,,,,,,,,,,,12,,64,64
17039,note_on,,0,0,12,,,,,,,,,,,,,,,,15,,57,0
17039,note_on,,29,0,9,,,,,,,,,,,,,,,,11,,69,0
17039,note_on,,0,0,12,,,,,,,,,,,,,,,,15,,69,0
17039,note_on,,29,0,12,,,,,,,,,,,,,,,,15,,73,0
17039,note_on,,29,0,8,,,,,,,,,,,,,,,,10,,73,0
17039,note_on,,29,0,11,,,,,,,,,,,,,,,,13,,57,0
17039,note_on,,0,0,12,,,,,,,,,,,,,,,,15,,64,0
17039,note_on,,29,0,5,,,,,,,,,,,,,,,,2,,57,0
17039,note_on,,29,0,10,,,,,,,,,,,,,,,,12,,64,0
17039,note_on,,29,0,6,,,,,,,,,,,,,,,,3,,69,0
17040,note_on,,1,0,12,,,,,,,,,,,,,,,,15,,59,64
17040,note_on,,1,0,5,,,,,,,,,,,,,,,,2,,56,64
17040,note_on,,1,0,8,,,,,,,,,,,,,,,,10,,76,64
17040,note_on,,1,0,10,,,,,,,,,,,,,,,,12,,64,64
17040,note_on,,1,0,9,,,,,,,,,,,,,,,,11,,71,64
17040,note_on,,0,0,12,,,,,,,,,,,,,,,,15,,64,64
17040,note_on,,1,0,6,,,,,,,,,,,,,,,,3,,76,64
17040,note_on,,1,0,11,,,,,,,,,,,,,,,,13,,56,64
17040,note_on,,0,0,12,,,,,,,,,,,,,,,,15,,71,64
17040,note_on,,0,0,12,,,,,,,,,,,,,,,,15,,56,64
17160,note_on,,241,0,7,,,,,,,,,,,,,,,,8,,64,72
17219,note_on,,179,0,10,,,,,,,,,,,,,,,,12,,64,0
17219,note_on,,59,0,7,,,,,,,,,,,,,,,,8,,64,0
17219,note_on,,179,0,9,,,,,,,,,,,,,,,,11,,71,0
17219,note_on,,179,0,5,,,,,,,,,,,,,,,,2,,56,0
17219,note_on,,179,0,12,,,,,,,,,,,,,,,,15,,56,0
17219,note_on,,179,0,8,,,,,,,,,,,,,,,,10,,76,0
17219,note_on,,179,0,11,,,,,,,,,,,,,,,,13,,56,0
17219,note_on,,179,0,6,,,,,,,,,,,,,,,,3,,76,0
17220,note_on,,1,0,12,,,,,,,,,,,,,,,,15,,56,48
17220,note_on,,1,0,6,,,,,,,,,,,,,,,,3,,76,64
17220,note_on,,1,0,8,,,,,,,,,,,,,,,,10,,76,48
17220,note_on,,1,0,10,,,,,,,,,,,,,,,,12,,64,48
17220,note_on,,1,0,11,,,,,,,,,,,,,,,,13,,56,48
17220,note_on,,1,0,7,,,,,,,,,,,,,,,,8,,62,72
17220,note_on,,1,0,5,,,,,,,,,,,,,,,,2,,56,48
17220,note_on,,1,0,9,,,,,,,,,,,,,,,,11,,71,48
17279,note_on,,59,0,5,,,,,,,,,,,,,,,,2,,56,0
17279,note_on,,59,0,8,,,,,,,,,,,,,,,,10,,76,0
17279,note_on,,59,0,9,,,,,,,,,,,,,,,,11,,71,0
17279,note_on,,59,0,11,,,,,,,,,,,,,,,,13,,56,0
17279,note_on,,59,0,7,,,,,,,,,,,,,,,,8,,62,0
17279,note_on,,59,0,12,,,,,,,,,,,,,,,,15,,56,0
17279,note_on,,59,0,6,,,,,,,,,,,,,,,,3,,76,0
17279,note_on,,59,0,10,,,,,,,,,,,,,,,,12,,64,0
17280,note_on,,1,0,7,,,,,,,,,,,,,,,,8,,61,72
17280,note_on,,1,0,9,,,,,,,,,,,,,,,,11,,71,48
17280,note_on,,1,0,11,,,,,,,,,,,,,,,,13,,56,48
17280,note_on,,1,0,5,,,,,,,,,,,,,,,,2,,56,48
17280,note_on,,1,0,8,,,,,,,,,,,,,,,,10,,76,48
17280,note_on,,1,0,12,,,,,,,,,,,,,,,,15,,56,48
17280,note_on,,1,0,10,,,,,,,,,,,,,,,,12,,64,48
17280,note_on,,1,0,6,,,,,,,,,,,,,,,,3,,76,64
17339,note_on,,59,0,7,,,,,,,,,,,,,,,,8,,61,0
17340,note_on,,1,0,7,,,,,,,,,,,,,,,,8,,59,72
17369,note_on,,89,0,6,,,,,,,,,,,,,,,,3,,76,0
17369,note_on,,89,0,8,,,,,,,,,,,,,,,,10,,76,0
17369,note_on,,89,0,10,,,,,,,,,,,,,,,,12,,64,0
17369,note_on,,89,0,11,,,,,,,,,,,,,,,,13,,56,0
17369,note_on,,89,0,12,,,,,,,,,,,,,,,,15,,56,0
17369,note_on,,89,0,9,,,,,,,,,,,,,,,,11,,71,0
17369,note_on,,89,0,5,,,,,,,,,,,,,,,,2,,56,0
17370,note_on,,1,0,5,,,,,,,,,,,,,,,,2,,56,48
17370,note_on,,1,0,10,,,,,,,,,,,,,,,,12,,64,48
17370,note_on,,1,0,9,,,,,,,,,,,,,,,,11,,71,48
17370,note_on,,1,0,6,,,,,,,,,,,,,,,,3,,76,64
17370,note_on,,1,0,12,,,,,,,,,,,,,,,,15,,56,48
17370,note_on,,1,0,11,,,,,,,,,,,,,,,,13,,56,48
17370,note_on,,1,0,8,,,,,,,,,,,,,,,,10,,76,48
17399,note_on,,29,0,9,,,,,,,,,,,,,,,,11,,71,0
17399,note_on,,0,0,12,,,,,,,,,,,,,,,,15,,64,0
17399,note_on,,0,0,12,,,,,,,,,,,,,,,,15,,56,0
17399,note_on,,0,0,12,,,,,,,,,,,,,,,,15,,71,0
17399,note_on,,29,0,12,,,,,,,,,,,,,,,,15,,59,0
17399,note_on,,29,0,6,,,,,,,,,,,,,,,,3,,76,0
17399,note_on,,29,0,10,,,,,,,,,,,,,,,,12,,64,0
17399,note_on,,29,0,8,,,,,,,,,,,,,,,,10,,76,0
17399,note_on,,29,0,11,,,,,,,,,,,,,,,,13,,56,0
17399,note_on,,29,0,5,,,,,,,,,,,,,,,,2,,56,0
17399,note_on,,59,0,7,,,,,,,,,,,,,,,,8,,59,0
17400,note_on,,1,0,7,,,,,,,,,,,,,,,,8,,57,72
17400,note_on,,1,0,11,,,,,,,,,,,,,,,,13,,54,48
17400,note_on,,1,0,6,,,,,,,,,,,,,,,,3,,81,64
17400,note_on,,1,0,9,,,,,,,,,,,,,,,,11,,73,48
17400,note_on,,1,0,8,,,,,,,,,,,,,,,,10,,81,48
17400,note_on,,1,0,10,,,,,,,,,,,,,,,,12,,61,48
17400,note_on,,1,0,5,,,,,,,,,,,,,,,,2,,54,48
17400,note_on,,1,0,12,,,,,,,,,,,,,,,,15,,69,48
17400,note_on,,0,0,12,,,,,,,,,,,,,,,,15,,61,48
17400,note_on,,0,0,12,,,,,,,,,,,,,,,,15,,66,48
17400,note_on,,0,0,12,,,,,,,,,,,,,,,,15,,54,48
17459,note_on,,59,0,7,,,,,,,,,,,,,,,,8,,57,0
17460,note_on,,1,0,7,,,,,,,,,,,,,,,,8,,56,72
17519,note_on,,59,0,7,,,,,,,,,,,,,,,,8,,56,0
17519,note_on,,119,0,10,,,,,,,,,,,,,,,,12,,61,0
17520,note_on,,1,0,7,,,,,,,,,,,,,,,,8,,57,72
17520,note_on,,1,0,10,,,,,,,,,,,,,,,,12,,57,48
17579,note_on,,59,0,7,,,,,,,,,,,,,,,,8,,57,0
17579,note_on,,179,0,9,,,,,,,,,,,,,,,,11,,73,0
17579,note_on,,179,0,5,,,,,,,,,,,,,,,,2,,54,0
17579,note_on,,179,0,8,,,,,,,,,,,,,,,,10,,81,0
17579,note_on,,179,0,11,,,,,,,,,,,,,,,,13,,54,0
17579,note_on,,179,0,12,,,,,,,,,,,,,,,,15,,54,0
17579,note_on,,179,0,6,,,,,,,,,,,,,,,,3,,81,0
17580,note_on,,1,0,7,,,,,,,,,,,,,,,,8,,59,72
17580,note_on,,1,0,9,,,,,,,,,,,,,,,,11,,71,48
17580,note_on,,1,0,12,,,,,,,,,,,,,,,,15,,54,48
17580,note_on,,1,0,11,,,,,,,,,,,,,,,,13,,54,48
17580,note_on,,1,0,5,,,,,,,,,,,,,,,,2,,54,48
17580,note_on,,1,0,8,,,,,,,,,,,,,,,,10,,80,48
17639,note_on,,59,0,7,,,,,,,,,,,,,,,,8,,59,0
17639,note_on,,59,0,11,,,,,,,,,,,,,,,,13,,54,0
17639,note_on,,59,0,5,,,,,,,,,,,,,,,,2,,54,0
17639,note_on,,59,0,12,,,,,,,,,,,,,,,,15,,54,0
17639,note_on,,59,0,8,,,,,,,,,,,,,,,,10,,80,0
17639,note_on,,59,0,9,,,,,,,,,,,,,,,,11,,71,0
17640,note_on,,1,0,8,,,,,,,,,,,,,,,,10,,81,48
17640,note_on,,1,0,11,,,,,,,,,,,,,,,,13,,54,48
17640,note_on,,1,0,5,,,,,,,,,,,,,,,,2,,54,48
17640,note_on,,1,0,12,,,,,,,,,,,,,,,,15,,54,48
17640,note_on,,1,0,9,,,,,,,,,,,,,,,,11,,69,48
17640,note_on,,1,0,7,,,,,,,,,,,,,,,,8,,61,72
17699,note_on,,179,0,10,,,,,,,,,,,,,,,,12,,57,0
17699,note_on,,59,0,8,,,,,,,,,,,,,,,,10,,81,0
17699,note_on,,59,0,9,,,,,,,,,,,,,,,,11,,69,0
17699,note_on,,59,0,7,,,,,,,,,,,,,,,,8,,61,0
17700,note_on,,1,0,7,,,,,,,,,,,,,,,,8,,62,72
17700,note_on,,1,0,8,,,,,,,,,,,,,,,,10,,83,48
17700,note_on,,1,0,9,,,,,,,,,,,,,,,,11,,66,48
17700,note_on,,1,0,10,,,,,,,,,,,,,,,,12,,57,48
17729,note_on,,89,0,12,,,,,,,,,,,,,,,,15,,54,0
17729,note_on,,89,0,11,,,,,,,,,,,,,,,,13,,54,0
17729,note_on,,89,0,5,,,,,,,,,,,,,,,,2,,54,0
17730,note_on,,1,0,12,,,,,,,,,,,,,,,,15,,54,48
17730,note_on,,1,0,11,,,,,,,,,,,,,,,,13,,54,48
17730,note_on,,1,0,5,,,,,,,,,,,,,,,,2,,54,48
17759,note_on,,59,0,9,,,,,,,,,,,,,,,,11,,66,0
17759,note_on,,29,0,11,,,,,,,,,,,,,,,,13,,54,0
17759,note_on,,0,0,12,,,,,,,,,,,,,,,,15,,54,0
17759,note_on,,59,0,7,,,,,,,,,,,,,,,,8,,62,0
17759,note_on,,0,0,12,,,,,,,,,,,,,,,,15,,66,0
17759,note_on,,29,0,5,,,,,,,,,,,,,,,,2,,54,0
17759,note_on,,59,0,10,,,,,,,,,,,,,,,,12,,57,0
17759,note_on,,59,0,8,,,,,,,,,,,,,,,,10,,83,0
17759,note_on,,0,0,12,,,,,,,,,,,,,,,,15,,61,0
17759,note_on,,29,0,12,,,,,,,,,,,,,,,,15,,69,0
17760,note_on,,1,0,5,,,,,,,,,,,,,,,,2,,52,48
17760,note_on,,1,0,9,,,,,,,,,,,,,,,,11,,71,48
17760,note_on,,1,0,11,,,,,,,,,,,,,,,,13,,52,48
17760,note_on,,1,0,12,,,,,,,,,,,,,,,,15,,52,48
17760,note_on,,0,0,12,,,,,,,,,,,,,,,,15,,64,48
17760,note_on,,0,0,12,,,,,,,,,,,,,,,,15,,68,48
17760,note_on,,0,0,12,,,,,,,,,,,,,,,,15,,71,48
17760,note_on,,1,0,8,,,,,,,,,,,,,,,,10,,80,48
17760,note_on,,1,0,10,,,,,,,,,,,,,,,,12,,52,48
17760,note_on,,1,0,7,,,,,,,,,,,,,,,,8,,64,72
17849,note_on,,89,0,8,,,,,,,,,,,,,,,,10,,80,0
17850,note_on,,1,0,8,,,,,,,,,,,,,,,,10,,78,48
17879,note_on,,119,0,12,,,,,,,,,,,,,,,,15,,52,0
17879,note_on,,119,0,9,,,,,,,,,,,,,,,,11,,71,0
17879,note_on,,29,0,8,,,,,,,,,,,,,,,,10,,78,0
17879,note_on,,119,0,5,,,,,,,,,,,,,,,,2,,52,0
17879,note_on,,0,0,12,,,,,,,,,,,,,,,,15,,64,0
17879,note_on,,119,0,10,,,,,,,,,,,,,,,,12,,52,0
17879,note_on,,0,0,12,,,,,,,,,,,,,,,,15,,68,0
17879,note_on,,119,0,11,,,,,,,,,,,,,,,,13,,52,0
17879,note_on,,0,0,12,,,,,,,,,,,,,,,,15,,71,0
17880,note_on,,1,0,10,,,,,,,,,,,,,,,,12,,59,48
17880,note_on,,0,0,12,,,,,,,,,,,,,,,,15,,64,48
17880,note_on,,0,0,12,,,,,,,,,,,,,,,,15,,59,48
17880,note_on,,1,0,11,,,,,,,,,,,,,,,,13,,56,48
17880,note_on,,1,0,5,,,,,,,,,,,,,,,,2,,56,48
17880,note_on,,1,0,12,,,,,,,,,,,,,,,,15,,56,48
17880,note_on,,1,0,9,,,,,,,,,,,,,,,,11,,64,48
17880,note_on,,1,0,8,,,,,,,,,,,,,,,,10,,76,48
17939,note_on,,59,0,9,,,,,,,,,,,,,,,,11,,64,0
17939,note_on,,59,0,8,,,,,,,,,,,,,,,,10,,76,0
17940,note_on,,1,0,9,,,,,,,,,,,,,,,,11,,64,48
17940,note_on,,1,0,8,,,,,,,,,,,,,,,,10,,71,48
17999,note_on,,0,0,12,,,,,,,,,,,,,,,,15,,64,0
17999,note_on,,119,0,12,,,,,,,,,,,,,,,,15,,56,0
17999,note_on,,0,0,12,,,,,,,,,,,,,,,,15,,59,0
17999,note_on,,59,0,9,,,,,,,,,,,,,,,,11,,64,0
17999,note_on,,59,0,8,,,,,,,,,,,,,,,,10,,71,0
17999,note_on,,119,0,11,,,,,,,,,,,,,,,,13,,56,0
17999,note_on,,119,0,5,,,,,,,,,,,,,,,,2,,56,0
18000,note_on,,0,0,12,,,,,,,,,,,,,,,,15,,76,48
18000,note_on,,0,0,12,,,,,,,,,,,,,,,,15,,71,48
18000,note_on,,1,0,12,,,,,,,,,,,,,,,,15,,68,48
18000,note_on,,1,0,11,,,,,,,,,,,,,,,,13,,52,48
18000,note_on,,1,0,5,,,,,,,,,,,,,,,,2,,52,48
18000,note_on,,1,0,8,,,,,,,,,,,,,,,,10,,69,48
18000,note_on,,0,0,12,,,,,,,,,,,,,,,,15,,52,48
18000,note_on,,1,0,9,,,,,,,,,,,,,,,,11,,66,48
18059,note_on,,179,0,10,,,,,,,,,,,,,,,,12,,59,0
18059,note_on,,59,0,8,,,,,,,,,,,,,,,,10,,69,0
18059,note_on,,59,0,9,,,,,,,,,,,,,,,,11,,66,0
18060,note_on,,1,0,10,,,,,,,,,,,,,,,,12,,64,48
18060,note_on,,1,0,9,,,,,,,,,,,,,,,,11,,68,48
18060,note_on,,1,0,8,,,,,,,,,,,,,,,,10,,71,48
18119,note_on,,59,0,8,,,,,,,,,,,,,,,,10,,71,0
18119,note_on,,119,0,11,,,,,,,,,,,,,,,,13,,52,0
18119,note_on,,59,0,9,,,,,,,,,,,,,,,,11,,68,0
18119,note_on,,119,0,5,,,,,,,,,,,,,,,,2,,52,0
18119,note_on,,119,0,12,,,,,,,,,,,,,,,,15,,68,0
18119,note_on,,0,0,12,,,,,,,,,,,,,,,,15,,71,0
18119,note_on,,0,0,12,,,,,,,,,,,,,,,,15,,76,0
18119,note_on,,0,0,12,,,,,,,,,,,,,,,,15,,52,0
18119,note_on,,59,0,10,,,,,,,,,,,,,,,,12,,64,0
18119,note_on,,359,0,7,,,,,,,,,,,,,,,,8,,64,0
18120,note_on,,0,0,12,,,,,,,,,,,,,,,,15,,57,48
18120,note_on,,1,0,9,,,,,,,,,,,,,,,,11,,69,48
18120,note_on,,1,0,12,,,,,,,,,,,,,,,,15,,64,48
18120,note_on,,1,0,8,,,,,,,,,,,,,,,,10,,73,48
18120,note_on,,0,0,12,,,,,,,,,,,,,,,,15,,73,48
18120,note_on,,1,0,10,,,,,,,,,,,,,,,,12,,64,48
18120,note_on,,1,0,11,,,,,,,,,,,,,,,,13,,57,48
18120,note_on,,0,0,12,,,,,,,,,,,,,,,,15,,69,48
18120,note_on,,1,0,5,,,,,,,,,,,,,,,,2,,57,48
18179,note_on,,59,0,8,,,,,,,,,,,,,,,,10,,73,0
18180,note_on,,1,0,8,,,,,,,,,,,,,,,,10,,74,48
18239,note_on,,0,0,12,,,,,,,,,,,,,,,,15,,73,0
18239,note_on,,119,0,5,,,,,,,,,,,,,,,,2,,57,0
18239,note_on,,119,0,10,,,,,,,,,,,,,,,,12,,64,0
18239,note_on,,59,0,8,,,,,,,,,,,,,,,,10,,74,0
18239,note_on,,0,0,12,,,,,,,,,,,,,,,,15,,57,0
18239,note_on,,119,0,12,,,,,,,,,,,,,,,,15,,64,0
18239,note_on,,0,0,12,,,,,,,,,,,,,,,,15,,69,0
18239,note_on,,119,0,9,,,,,,,,,,,,,,,,11,,69,0
18239,note_on,,119,0,11,,,,,,,,,,,,,,,,13,,57,0
18240,note_on,,1,0,12,,,,,,,,,,,,,,,,15,,71,48
18240,note_on,,0,0,12,,,,,,,,,,,,,,,,15,,56,48
18240,note_on,,0,0,12,,,,,,,,,,,,,,,,15,,64,48
18240,note_on,,1,0,9,,,,,,,,,,,,,,,,11,,71,48
18240,note_on,,1,0,8,,,,,,,,,,,,,,,,10,,76,48
18240,note_on,,1,0,11,,,,,,,,,,,,,,,,13,,56,48
18240,note_on,,1,0,10,,,,,,,,,,,,,,,,12,,64,48
18240,note_on,,1,0,5,,,,,,,,,,,,,,,,2,,56,48
18359,note_on,,119,0,5,,,,,,,,,,,,,,,,2,,56,0
18359,note_on,,119,0,11,,,,,,,,,,,,,,,,13,,56,0
18359,note_on,,119,0,10,,,,,,,,,,,,,,,,12,,64,0
18359,note_on,,119,0,12,,,,,,,,,,,,,,,,15,,71,0
18359,note_on,,0,0,12,,,,,,,,,,,,,,,,15,,56,0
18359,note_on,,0,0,12,,,,,,,,,,,,,,,,15,,64,0
18359,note_on,,119,0,8,,,,,,,,,,,,,,,,10,,76,0
18359,note_on,,119,0,9,,,,,,,,,,,,,,,,11,,71,0
18360,note_on,,1,0,5,,,,,,,,,,,,,,,,2,,52,48
18360,note_on,,241,0,7,,,,,,,,,,,,,,,,8,,59,72
18360,note_on,,0,0,12,,,,,,,,,,,,,,,,15,,76,48
18360,note_on,,0,0,12,,,,,,,,,,,,,,,,15,,52,48
18360,note_on,,0,0,12,,,,,,,,,,,,,,,,15,,68,48
18360,note_on,,1,0,12,,,,,,,,,,,,,,,,15,,71,48
18360,note_on,,1,0,11,,,,,,,,,,,,,,,,13,,52,48
18479,note_on,,0,0,12,,,,,,,,,,,,,,,,15,,68,0
18479,note_on,,119,0,5,,,,,,,,,,,,,,,,2,,52,0
18479,note_on,,0,0,12,,,,,,,,,,,,,,,,15,,76,0
18479,note_on,,119,0,7,,,,,,,,,,,,,,,,8,,59,0
18479,note_on,,119,0,11,,,,,,,,,,,,,,,,13,,52,0
18479,note_on,,119,0,12,,,,,,,,,,,,,,,,15,,71,0
18479,note_on,,0,0,12,,,,,,,,,,,,,,,,15,,52,0
18480,note_on,,1,0,7,,,,,,,,,,,,,,,,8,,61,72
18480,note_on,,1,0,11,,,,,,,,,,,,,,,,13,,57,48
18480,note_on,,0,0,12,,,,,,,,,,,,,,,,15,,73,48
18480,note_on,,0,0,12,,,,,,,,,,,,,,,,15,,69,48
18480,note_on,,1,0,12,,,,,,,,,,,,,,,,15,,57,48
18480,note_on,,0,0,12,,,,,,,,,,,,,,,,15,,64,48
18480,note_on,,1,0,5,,,,,,,,,,,,,,,,2,,57,48
18539,note_on,,59,0,7,,,,,,,,,,,,,,,,8,,61,0
18540,note_on,,1,0,7,,,,,,,,,,,,,,,,8,,62,72
18599,note_on,,119,0,11,,,,,,,,,,,,,,,,13,,57,0
18599,note_on,,59,0,7,,,,,,,,,,,,,,,,8,,62,0
18599,note_on,,119,0,5,,,,,,,,,,,,,,,,2,,57,0
18599,note_on,,0,0,12,,,,,,,,,,,,,,,,15,,64,0
18599,note_on,,0,0,12,,,,,,,,,,,,,,,,15,,73,0
18599,note_on,,0,0,12,,,,,,,,,,,,,,,,15,,69,0
18599,note_on,,119,0,12,,,,,,,,,,,,,,,,15,,57,0
18600,note_on,,1,0,5,,,,,,,,,,,,,,,,2,,56,48
18600,note_on,,1,0,7,,,,,,,,,,,,,,,,8,,64,72
18600,note_on,,1,0,11,,,,,,,,,,,,,,,,13,,56,48
18600,note_on,,0,0,12,,,,,,,,,,,,,,,,15,,64,48
18600,note_on,,0,0,12,,,,,,,,,,,,,,,,15,,56,48
18600,note_on,,0,0,12,,,,,,,,,,,,,,,,15,,59,48
18600,note_on,,1,0,12,,,,,,,,,,,,,,,,15,,71,48
18660,note_on,,301,0,8,,,,,,,,,,,,,,,,10,,71,48
18660,note_on,,301,0,9,,,,,,,,,,,,,,,,11,,64,48
18719,note_on,,59,0,8,,,,,,,,,,,,,,,,10,,71,0
18719,note_on,,0,0,12,,,,,,,,,,,,,,,,15,,56,0
18719,note_on,,59,0,9,,,,,,,,,,,,,,,,11,,64,0
18719,note_on,,119,0,12,,,,,,,,,,,,,,,,15,,71,0
18719,note_on,,119,0,11,,,,,,,,,,,,,,,,13,,56,0
18719,note_on,,119,0,7,,,,,,,,,,,,,,,,8,,64,0
18719,note_on,,119,0,5,,,,,,,,,,,,,,,,2,,56,0
18720,note_on,,1,0,11,,,,,,,,,,,,,,,,13,,52,48
18720,note_on,,1,0,5,,,,,,,,,,,,,,,,2,,52,48
18720,note_on,,1,0,9,,,,,,,,,,,,,,,,11,,66,48
18720,note_on,,1,0,8,,,,,,,,,,,,,,,,10,,69,48
18720,note_on,,1,0,12,,,,,,,,,,,,,,,,15,,68,48
18720,note_on,,1,0,7,,,,,,,,,,,,,,,,8,,56,72
18720,note_on,,0,0,12,,,,,,,,,,,,,,,,15,,52,48
18720,note_on,,361,0,10,,,,,,,,,,,,,,,,12,,52,48
18779,note_on,,59,0,9,,,,,,,,,,,,,,,,11,,66,0
18779,note_on,,59,0,8,,,,,,,,,,,,,,,,10,,69,0
18780,note_on,,1,0,8,,,,,,,,,,,,,,,,10,,71,48
18780,note_on,,1,0,9,,,,,,,,,,,,,,,,11,,68,48
18839,note_on,,0,0,12,,,,,,,,,,,,,,,,15,,52,0
18839,note_on,,119,0,5,,,,,,,,,,,,,,,,2,,52,0
18839,note_on,,119,0,10,,,,,,,,,,,,,,,,12,,52,0
18839,note_on,,119,0,11,,,,,,,,,,,,,,,,13,,52,0
18839,note_on,,59,0,8,,,,,,,,,,,,,,,,10,,71,0
18839,note_on,,119,0,12,,,,,,,,,,,,,,,,15,,59,0
18839,note_on,,0,0,12,,,,,,,,,,,,,,,,15,,64,0
18839,note_on,,0,0,12,,,,,,,,,,,,,,,,15,,68,0
18839,note_on,,59,0,9,,,,,,,,,,,,,,,,11,,68,0
18839,note_on,,119,0,7,,,,,,,,,,,,,,,,8,,56,0
18840,note_on,,1,0,5,,,,,,,,,,,,,,,,2,,57,48
18840,note_on,,1,0,9,,,,,,,,,,,,,,,,11,,69,48
18840,note_on,,1,0,7,,,,,,,,,,,,,,,,8,,57,72
18840,note_on,,1,0,8,,,,,,,,,,,,,,,,10,,73,48
18840,note_on,,1,0,12,,,,,,,,,,,,,,,,15,,69,48
18840,note_on,,1,0,10,,,,,,,,,,,,,,,,12,,64,48
18840,note_on,,1,0,11,,,,,,,,,,,,,,,,13,,57,48
18840,note_on,,0,0,12,,,,,,,,,,,,,,,,15,,57,48
18840,note_on,,0,0,12,,,,,,,,,,,,,,,,15,,64,48
18840,note_on,,0,0,12,,,,,,,,,,,,,,,,15,,61,48
18899,note_on,,59,0,7,,,,,,,,,,,,,,,,8,,57,0
18899,note_on,,59,0,8,,,,,,,,,,,,,,,,10,,73,0
18900,note_on,,1,0,8,,,,,,,,,,,,,,,,10,,74,48
18900,note_on,,1,0,7,,,,,,,,,,,,,,,,8,,52,72
18959,note_on,,59,0,8,,,,,,,,,,,,,,,,10,,74,0
18959,note_on,,0,0,12,,,,,,,,,,,,,,,,15,,61,0
18959,note_on,,0,0,12,,,,,,,,,,,,,,,,15,,57,0
18959,note_on,,119,0,5,,,,,,,,,,,,,,,,2,,57,0
18959,note_on,,59,0,7,,,,,,,,,,,,,,,,8,,52,0
18959,note_on,,0,0,12,,,,,,,,,,,,,,,,15,,64,0
18959,note_on,,119,0,12,,,,,,,,,,,,,,,,15,,69,0
18959,note_on,,119,0,11,,,,,,,,,,,,,,,,13,,57,0
18959,note_on,,119,0,9,,,,,,,,,,,,,,,,11,,69,0
18959,note_on,,119,0,10,,,,,,,,,,,,,,,,12,,64,0
18960,note_on,,0,0,12,,,,,,,,,,,,,,,,15,,52,48
18960,note_on,,0,0,12,,,,,,,,,,,,,,,,15,,68,48
18960,note_on,,1,0,12,,,,,,,,,,,,,,,,15,,71,48
18960,note_on,,0,0,12,,,,,,,,,,,,,,,,15,,64,48
18960,note_on,,1,0,11,,,,,,,,,,,,,,,,13,,52,48
18960,note_on,,1,0,10,,,,,,,,,,,,,,,,12,,64,48
18960,note_on,,1,0,8,,,,,,,,,,,,,,,,10,,76,48
18960,note_on,,1,0,9,,,,,,,,,,,,,,,,11,,71,48
18960,note_on,,1,0,5,,,,,,,,,,,,,,,,2,,52,48
18960,note_on,,1,0,7,,,,,,,,,,,,,,,,8,,52,72
19019,note_on,,59,0,8,,,,,,,,,,,,,,,,10,,76,0
19019,note_on,,59,0,9,,,,,,,,,,,,,,,,11,,71,0
19020,note_on,,1,0,8,,,,,,,,,,,,,,,,10,,71,48
19020,note_on,,1,0,9,,,,,,,,,,,,,,,,11,,68,48
19079,note_on,,119,0,12,,,,,,,,,,,,,,,,15,,71,0
19079,note_on,,59,0,8,,,,,,,,,,,,,,,,10,,71,0
19079,note_on,,119,0,10,,,,,,,,,,,,,,,,12,,64,0
19079,note_on,,119,0,11,,,,,,,,,,,,,,,,13,,52,0
19079,note_on,,119,0,5,,,,,,,,,,,,,,,,2,,52,0
19079,note_on,,0,0,12,,,,,,,,,,,,,,,,15,,68,0
19079,note_on,,0,0,12,,,,,,,,,,,,,,,,15,,64,0
19079,note_on,,59,0,9,,,,,,,,,,,,,,,,11,,68,0
19079,note_on,,0,0,12,,,,,,,,,,,,,,,,15,,52,0
19079,note_on,,119,0,7,,,,,,,,,,,,,,,,8,,52,0
19080,note_on,,1,0,10,,,,,,,,,,,,,,,,12,,64,48
19080,note_on,,1,0,12,,,,,,,,,,,,,,,,15,,71,48
19080,note_on,,0,0,12,,,,,,,,,,,,,,,,15,,56,48
19080,note_on,,1,0,11,,,,,,,,,,,,,,,,13,,56,48
19080,note_on,,0,0,12,,,,,,,,,,,,,,,,15,,64,48
19080,note_on,,0,0,12,,,,,,,,,,,,,,,,15,,76,48
19080,note_on,,1,0,8,,,,,,,,,,,,,,,,10,,69,48
19080,note_on,,1,0,5,,,,,,,,,,,,,,,,2,,56,48
19080,note_on,,1,0,9,,,,,,,,,,,,,,,,11,,66,48
19139,note_on,,59,0,9,,,,,,,,,,,,,,,,11,,66,0
19139,note_on,,59,0,8,,,,,,,,,,,,,,,,10,,69,0
19140,note_on,,1,0,8,,,,,,,,,,,,,,,,10,,71,48
19140,note_on,,1,0,9,,,,,,,,,,,,,,,,11,,68,48
19199,note_on,,59,0,9,,,,,,,,,,,,,,,,11,,68,0
19199,note_on,,59,0,8,,,,,,,,,,,,,,,,10,,71,0
19199,note_on,,119,0,10,,,,,,,,,,,,,,,,12,,64,0
19199,note_on,,119,0,5,,,,,,,,,,,,,,,,2,,56,0
19199,note_on,,119,0,11,,,,,,,,,,,,,,,,13,,56,0
19199,note_on,,119,0,12,,,,,,,,,,,,,,,,15,,71,0
19199,note_on,,0,0,12,,,,,,,,,,,,,,,,15,,56,0
19199,note_on,,0,0,12,,,,,,,,,,,,,,,,15,,64,0
19199,note_on,,0,0,12,,,,,,,,,,,,,,,,15,,76,0
19200,note_on,,1,0,11,,,,,,,,,,,,,,,,13,,57,48
19200,note_on,,1,0,12,,,,,,,,,,,,,,,,15,,73,48
19200,note_on,,0,0,12,,,,,,,,,,,,,,,,15,,57,48
19200,note_on,,1,0,8,,,,,,,,,,,,,,,,10,,73,48
19200,note_on,,0,0,12,,,,,,,,,,,,,,,,15,,69,48
19200,note_on,,0,0,12,,,,,,,,,,,,,,,,15,,64,48
19200,note_on,,1,0,5,,,,,,,,,,,,,,,,2,,57,48
19200,note_on,,1,0,10,,,,,,,,,,,,,,,,12,,64,48
19200,note_on,,1,0,9,,,,,,,,,,,,,,,,11,,69,48
19259,note_on,,59,0,8,,,,,,,,,,,,,,,,10,,73,0
19259,note_on,,59,0,10,,,,,,,,,,,,,,,,12,,64,0
19260,note_on,,1,0,10,,,,,,,,,,,,,,,,12,,66,48
19260,note_on,,1,0,8,,,,,,,,,,,,,,,,10,,74,48
19319,note_on,,119,0,9,,,,,,,,,,,,,,,,11,,69,0
19319,note_on,,59,0,8,,,,,,,,,,,,,,,,10,,74,0
19319,note_on,,119,0,12,,,,,,,,,,,,,,,,15,,73,0
19319,note_on,,119,0,11,,,,,,,,,,,,,,,,13,,57,0
19319,note_on,,0,0,12,,,,,,,,,,,,,,,,15,,57,0
19319,note_on,,0,0,12,,,,,,,,,,,,,,,,15,,69,0
19319,note_on,,59,0,10,,,,,,,,,,,,,,,,12,,66,0
19319,note_on,,119,0,5,,,,,,,,,,,,,,,,2,,57,0
19320,note_on,,1,0,12,,,,,,,,,,,,,,,,15,,71,48
19320,note_on,,1,0,5,,,,,,,,,,,,,,,,2,,52,48
19320,note_on,,0,0,12,,,,,,,,,,,,,,,,15,,68,48
19320,note_on,,0,0,12,,,,,,,,,,,,,,,,15,,52,48
19320,note_on,,1,0,9,,,,,,,,,,,,,,,,11,,71,48
19320,note_on,,1,0,10,,,,,,,,,,,,,,,,12,,68,48
19320,note_on,,1,0,8,,,,,,,,,,,,,,,,10,,76,48
19320,note_on,,1,0,11,,,,,,,,,,,,,,,,13,,52,48
19380,note_on,,1801,0,6,,,,,,,,,,,,,,,,3,,76,64
19439,note_on,,0,0,12,,,,,,,,,,,,,,,,15,,68,0
19439,note_on,,0,0,12,,,,,,,,,,,,,,,,15,,71,0
19439,note_on,,119,0,8,,,,,,,,,,,,,,,,10,,76,0
19439,note_on,,119,0,9,,,,,,,,,,,,,,,,11,,71,0
19439,note_on,,119,0,12,,,,,,,,,,,,,,,,15,,64,0
19439,note_on,,119,0,10,,,,,,,,,,,,,,,,12,,68,0
19439,note_on,,0,0,12,,,,,,,,,,,,,,,,15,,52,0
19439,note_on,,119,0,11,,,,,,,,,,,,,,,,13,,52,0
19439,note_on,,119,0,5,,,,,,,,,,,,,,,,2,,52,0
19439,note_on,,59,0,6,,,,,,,,,,,,,,,,3,,76,0
19440,note_on,,361,0,7,,,,,,,,,,,,,,,,8,,61,72
19440,note_on,,1,0,11,,,,,,,,,,,,,,,,13,,61,48
19440,note_on,,1,0,12,,,,,,,,,,,,,,,,15,,69,48
19440,note_on,,0,0,12,,,,,,,,,,,,,,,,15,,61,48
19440,note_on,,0,0,12,,,,,,,,,,,,,,,,15,,64,48
19440,note_on,,1,0,6,,,,,,,,,,,,,,,,3,,74,64
19440,note_on,,1,0,5,,,,,,,,,,,,,,,,2,,61,48
19499,note_on,,59,0,6,,,,,,,,,,,,,,,,3,,74,0
19500,note_on,,1,0,6,,,,,,,,,,,,,,,,3,,76,64
19559,note_on,,119,0,11,,,,,,,,,,,,,,,,13,,61,0
19559,note_on,,119,0,7,,,,,,,,,,,,,,,,8,,61,0
19559,note_on,,59,0,6,,,,,,,,,,,,,,,,3,,76,0
19559,note_on,,119,0,12,,,,,,,,,,,,,,,,15,,69,0
19559,note_on,,0,0,12,,,,,,,,,,,,,,,,15,,64,0
19559,note_on,,0,0,12,,,,,,,,,,,,,,,,15,,61,0
19559,note_on,,119,0,5,,,,,,,,,,,,,,,,2,,61,0
19560,note_on,,1,0,7,,,,,,,,,,,,,,,,8,,62,72
19560,note_on,,1,0,12,,,,,,,,,,,,,,,,15,,74,48
19560,note_on,,0,0,12,,,,,,,,,,,,,,,,15,,62,48
19560,note_on,,0,0,12,,,,,,,,,,,,,,,,15,,69,48
19560,note_on,,1,0,5,,,,,,,,,,,,,,,,2,,62,48
19560,note_on,,0,0,12,,,,,,,,,,,,,,,,15,,66,48
19560,note_on,,1,0,6,,,,,,,,,,,,,,,,3,,78,64
19560,note_on,,1,0,11,,,,,,,,,,,,,,,,13,,62,48
19619,note_on,,59,0,6,,,,,,,,,,,,,,,,3,,78,0
19620,note_on,,1,0,6,,,,,,,,,,,,,,,,3,,80,64
19679,note_on,,59,0,6,,,,,,,,,,,,,,,,3,,80,0
19679,note_on,,119,0,5,,,,,,,,,,,,,,,,2,,62,0
19679,note_on,,119,0,12,,,,,,,,,,,,,,,,15,,74,0
19679,note_on,,119,0,7,,,,,,,,,,,,,,,,8,,62,0
19679,note_on,,119,0,11,,,,,,,,,,,,,,,,13,,62,0
19679,note_on,,0,0,12,,,,,,,,,,,,,,,,15,,66,0
19679,note_on,,0,0,12,,,,,,,,,,,,,,,,15,,69,0
19679,note_on,,0,0,12,,,,,,,,,,,,,,,,15,,62,0
19680,note_on,,0,0,12,,,,,,,,,,,,,,,,15,,64,48
19680,note_on,,1,0,12,,,,,,,,,,,,,,,,15,,61,48
19680,note_on,,1,0,11,,,,,,,,,,,,,,,,13,,61,48
19680,note_on,,1,0,6,,,,,,,,,,,,,,,,3,,81,64
19680,note_on,,1,0,7,,,,,,,,,,,,,,,,8,,61,72
19680,note_on,,0,0,12,,,,,,,,,,,,,,,,15,,69,48
19680,note_on,,1,0,5,,,,,,,,,,,,,,,,2,,61,48
19740,note_on,,301,0,8,,,,,,,,,,,,,,,,10,,76,48
19740,note_on,,301,0,9,,,,,,,,,,,,,,,,11,,69,48
19799,note_on,,119,0,7,,,,,,,,,,,,,,,,8,,61,0
19799,note_on,,119,0,11,,,,,,,,,,,,,,,,13,,61,0
19799,note_on,,119,0,12,,,,,,,,,,,,,,,,15,,61,0
19799,note_on,,119,0,5,,,,,,,,,,,,,,,,2,,61,0
19799,note_on,,59,0,9,,,,,,,,,,,,,,,,11,,69,0
19799,note_on,,59,0,8,,,,,,,,,,,,,,,,10,,76,0
19800,note_on,,1,0,7,,,,,,,,,,,,,,,,8,,57,72
19800,note_on,,1,0,11,,,,,,,,,,,,,,,,13,,57,48
19800,note_on,,1,0,8,,,,,,,,,,,,,,,,10,,74,48
19800,note_on,,0,0,12,,,,,,,,,,,,,,,,15,,57,48
19800,note_on,,1,0,12,,,,,,,,,,,,,,,,15,,61,48
19800,note_on,,1,0,5,,,,,,,,,,,,,,,,2,,57,48
19800,note_on,,1,0,9,,,,,,,,,,,,,,,,11,,71,48
19800,note_on,,361,0,10,,,,,,,,,,,,,,,,12,,57,48
19859,note_on,,59,0,9,,,,,,,,,,,,,,,,11,,71,0
19859,note_on,,59,0,8,,,,,,,,,,,,,,,,10,,74,0
19860,note_on,,1,0,9,,,,,,,,,,,,,,,,11,,73,48
19860,note_on,,1,0,8,,,,,,,,,,,,,,,,10,,76,48
19919,note_on,,0,0,12,,,,,,,,,,,,,,,,15,,64,0
19919,note_on,,119,0,12,,,,,,,,,,,,,,,,15,,69,0
19919,note_on,,59,0,9,,,,,,,,,,,,,,,,11,,73,0
19919,note_on,,119,0,10,,,,,,,,,,,,,,,,12,,57,0
19919,note_on,,59,0,8,,,,,,,,,,,,,,,,10,,76,0
19919,note_on,,119,0,5,,,,,,,,,,,,,,,,2,,57,0
19919,note_on,,0,0,12,,,,,,,,,,,,,,,,15,,57,0
19919,note_on,,119,0,11,,,,,,,,,,,,,,,,13,,57,0
19919,note_on,,0,0,12,,,,,,,,,,,,,,,,15,,61,0
19919,note_on,,119,0,7,,,,,,,,,,,,,,,,8,,57,0
19920,note_on,,1,0,12,,,,,,,,,,,,,,,,15,,66,48
19920,note_on,,0,0,12,,,,,,,,,,,,,,,,15,,62,48
19920,note_on,,0,0,12,,,,,,,,,,,,,,,,15,,69,48
19920,note_on,,1,0,9,,,,,,,,,,,,,,,,11,,74,48
19920,note_on,,1,0,8,,,,,,,,,,,,,,,,10,,78,48
19920,note_on,,1,0,10,,,,,,,,,,,,,,,,12,,69,48
19920,note_on,,1,0,11,,,,,,,,,,,,,,,,13,,62,48
19920,note_on,,1,0,5,,,,,,,,,,,,,,,,2,,62,48
19920,note_on,,1,0,7,,,,,,,,,,,,,,,,8,,62,72
19979,note_on,,59,0,8,,,,,,,,,,,,,,,,10,,78,0
19979,note_on,,59,0,10,,,,,,,,,,,,,,,,12,,69,0
19979,note_on,,59,0,7,,,,,,,,,,,,,,,,8,,62,0
19980,note_on,,1,0,10,,,,,,,,,,,,,,,,12,,71,48
19980,note_on,,1,0,8,,,,,,,,,,,,,,,,10,,80,48
19980,note_on,,1,0,7,,,,,,,,,,,,,,,,8,,57,72
20039,note_on,,0,0,12,,,,,,,,,,,,,,,,15,,62,0
20039,note_on,,119,0,11,,,,,,,,,,,,,,,,13,,62,0
20039,note_on,,119,0,5,,,,,,,,,,,,,,,,2,,62,0
20039,note_on,,59,0,10,,,,,,,,,,,,,,,,12,,71,0
20039,note_on,,59,0,8,,,,,,,,,,,,,,,,10,,80,0
20039,note_on,,119,0,12,,,,,,,,,,,,,,,,15,,66,0
20039,note_on,,59,0,7,,,,,,,,,,,,,,,,8,,57,0
20039,note_on,,119,0,9,,,,,,,,,,,,,,,,11,,74,0
20039,note_on,,0,0,12,,,,,,,,,,,,,,,,15,,69,0
20040,note_on,,1,0,9,,,,,,,,,,,,,,,,11,,76,48
20040,note_on,,0,0,12,,,,,,,,,,,,,,,,15,,69,48
20040,note_on,,0,0,12,,,,,,,,,,,,,,,,15,,73,48
20040,note_on,,0,0,12,,,,,,,,,,,,,,,,15,,57,48
20040,note_on,,1,0,10,,,,,,,,,,,,,,,,12,,73,48
20040,note_on,,1,0,8,,,,,,,,,,,,,,,,10,,81,48
20040,note_on,,1,0,11,,,,,,,,,,,,,,,,13,,57,48
20040,note_on,,1,0,5,,,,,,,,,,,,,,,,2,,57,48
20040,note_on,,1,0,7,,,,,,,,,,,,,,,,8,,57,72
20040,note_on,,1,0,12,,,,,,,,,,,,,,,,15,,64,48
20099,note_on,,419,0,6,,,,,,,,,,,,,,,,3,,81,0
20100,note_on,,1,0,6,,,,,,,,,,,,,,,,3,,76,64
20159,note_on,,119,0,7,,,,,,,,,,,,,,,,8,,57,0
20159,note_on,,119,0,9,,,,,,,,,,,,,,,,11,,76,0
20159,note_on,,59,0,6,,,,,,,,,,,,,,,,3,,76,0
20159,note_on,,119,0,11,,,,,,,,,,,,,,,,13,,57,0
20159,note_on,,0,0,12,,,,,,,,,,,,,,,,15,,73,0
20159,note_on,,0,0,12,,,,,,,,,,,,,,,,15,,57,0
20159,note_on,,0,0,12,,,,,,,,,,,,,,,,15,,69,0
20159,note_on,,119,0,5,,,,,,,,,,,,,,,,2,,57,0
20159,note_on,,119,0,12,,,,,,,,,,,,,,,,15,,64,0
20159,note_on,,119,0,10,,,,,,,,,,,,,,,,12,,73,0
20160,note_on,,1,0,6,,,,,,,,,,,,,,,,3,,74,64
20160,note_on,,1,0,12,,,,,,,,,,,,,,,,15,,76,48
20160,note_on,,0,0,12,,,,,,,,,,,,,,,,15,,64,48
20160,note_on,,0,0,12,,,,,,,,,,,,,,,,15,,61,48
20160,note_on,,1,0,11,,,,,,,,,,,,,,,,13,,61,48
20160,note_on,,1,0,5,,,,,,,,,,,,,,,,2,,61,48
20160,note_on,,0,0,12,,,,,,,,,,,,,,,,15,,69,48
20219,note_on,,59,0,6,,,,,,,,,,,,,,,,3,,74,0
20220,note_on,,1,0,6,,,,,,,,,,,,,,,,3,,76,64
20279,note_on,,119,0,11,,,,,,,,,,,,,,,,13,,61,0
20279,note_on,,119,0,12,,,,,,,,,,,,,,,,15,,76,0
20279,note_on,,119,0,5,,,,,,,,,,,,,,,,2,,61,0
20279,note_on,,59,0,6,,,,,,,,,,,,,,,,3,,76,0
20279,note_on,,0,0,12,,,,,,,,,,,,,,,,15,,69,0
20279,note_on,,0,0,12,,,,,,,,,,,,,,,,15,,61,0
20279,note_on,,0,0,12,,,,,,,,,,,,,,,,15,,64,0
20280,note_on,,1,0,11,,,,,,,,,,,,,,,,13,,62,48
20280,note_on,,1,0,6,,,,,,,,,,,,,,,,3,,78,64
20280,note_on,,0,0,12,,,,,,,,,,,,,,,,15,,66,48
20280,note_on,,1,0,5,,,,,,,,,,,,,,,,2,,62,48
20280,note_on,,0,0,12,,,,,,,,,,,,,,,,15,,62,48
20280,note_on,,1,0,12,,,,,,,,,,,,,,,,15,,69,48
20339,note_on,,59,0,6,,,,,,,,,,,,,,,,3,,78,0
20340,note_on,,1,0,6,,,,,,,,,,,,,,,,3,,79,64
20399,note_on,,119,0,12,,,,,,,,,,,,,,,,15,,66,0
20399,note_on,,119,0,11,,,,,,,,,,,,,,,,13,,62,0
20399,note_on,,119,0,5,,,,,,,,,,,,,,,,2,,62,0
20399,note_on,,0,0,12,,,,,,,,,,,,,,,,15,,62,0
20399,note_on,,59,0,6,,,,,,,,,,,,,,,,3,,79,0
20400,note_on,,1,0,6,,,,,,,,,,,,,,,,3,,81,64
20400,note_on,,1,0,12,,,,,,,,,,,,,,,,15,,61,48
20400,note_on,,0,0,12,,,,,,,,,,,,,,,,15,,64,48
20400,note_on,,1,0,5,,,,,,,,,,,,,,,,2,,61,48
20400,note_on,,1,0,11,,,,,,,,,,,,,,,,13,,61,48
20459,note_on,,419,0,8,,,,,,,,,,,,,,,,10,,81,0
20459,note_on,,59,0,6,,,,,,,,,,,,,,,,3,,81,0
20460,note_on,,301,0,9,,,,,,,,,,,,,,,,11,,73,48
20460,note_on,,1,0,6,,,,,,,,,,,,,,,,3,,76,64
20460,note_on,,1,0,8,,,,,,,,,,,,,,,,10,,76,48
20519,note_on,,59,0,9,,,,,,,,,,,,,,,,11,,73,0
20519,note_on,,59,0,6,,,,,,,,,,,,,,,,3,,76,0
20519,note_on,,0,0,12,,,,,,,,,,,,,,,,15,,61,0
20519,note_on,,0,0,12,,,,,,,,,,,,,,,,15,,64,0
20519,note_on,,119,0,12,,,,,,,,,,,,,,,,15,,69,0
20519,note_on,,119,0,5,,,,,,,,,,,,,,,,2,,61,0
20519,note_on,,59,0,8,,,,,,,,,,,,,,,,10,,76,0
20519,note_on,,119,0,11,,,,,,,,,,,,,,,,13,,61,0
20520,note_on,,1,0,8,,,,,,,,,,,,,,,,10,,78,48
20520,note_on,,1,0,6,,,,,,,,,,,,,,,,3,,78,64
20520,note_on,,1,0,12,,,,,,,,,,,,,,,,15,,64,48
20520,note_on,,361,0,10,,,,,,,,,,,,,,,,12,,69,48
20520,note_on,,1,0,5,,,,,,,,,,,,,,,,2,,57,48
20520,note_on,,0,0,12,,,,,,,,,,,,,,,,15,,69,48
20520,note_on,,0,0,12,,,,,,,,,,,,,,,,15,,57,48
20520,note_on,,0,0,12,,,,,,,,,,,,,,,,15,,73,48
20520,note_on,,1,0,9,,,,,,,,,,,,,,,,11,,74,48
20520,note_on,,1,0,11,,,,,,,,,,,,,,,,13,,57,48
20579,note_on,,59,0,9,,,,,,,,,,,,,,,,11,,74,0
20579,note_on,,59,0,8,,,,,,,,,,,,,,,,10,,78,0
20579,note_on,,59,0,6,,,,,,,,,,,,,,,,3,,78,0
20580,note_on,,1,0,6,,,,,,,,,,,,,,,,3,,79,64
20580,note_on,,1,0,8,,,,,,,,,,,,,,,,10,,79,48
20580,note_on,,1,0,9,,,,,,,,,,,,,,,,11,,76,48
20639,note_on,,59,0,8,,,,,,,,,,,,,,,,10,,79,0
20639,note_on,,119,0,5,,,,,,,,,,,,,,,,2,,57,0
20639,note_on,,119,0,10,,,,,,,,,,,,,,,,12,,69,0
20639,note_on,,119,0,11,,,,,,,,,,,,,,,,13,,57,0
20639,note_on,,0,0,12,,,,,,,,,,,,,,,,15,,57,0
20639,note_on,,0,0,12,,,,,,,,,,,,,,,,15,,69,0
20639,note_on,,0,0,12,,,,,,,,,,,,,,,,15,,73,0
20639,note_on,,119,0,12,,,,,,,,,,,,,,,,15,,64,0
20639,note_on,,59,0,6,,,,,,,,,,,,,,,,3,,79,0
20639,note_on,,59,0,9,,,,,,,,,,,,,,,,11,,76,0
20640,note_on,,1,0,10,,,,,,,,,,,,,,,,12,,69,48
20640,note_on,,1,0,11,,,,,,,,,,,,,,,,13,,62,48
20640,note_on,,1,0,6,,,,,,,,,,,,,,,,3,,78,64
20640,note_on,,0,0,12,,,,,,,,,,,,,,,,15,,74,48
20640,note_on,,0,0,12,,,,,,,,,,,,,,,,15,,66,48
20640,note_on,,1,0,9,,,,,,,,,,,,,,,,11,,74,48
20640,note_on,,1,0,8,,,,,,,,,,,,,,,,10,,78,48
20640,note_on,,1,0,12,,,,,,,,,,,,,,,,15,,62,48
20640,note_on,,0,0,12,,,,,,,,,,,,,,,,15,,69,48
20640,note_on,,1,0,5,,,,,,,,,,,,,,,,2,,62,48
20759,note_on,,119,0,9,,,,,,,,,,,,,,,,11,,74,0
20759,note_on,,119,0,5,,,,,,,,,,,,,,,,2,,62,0
20759,note_on,,119,0,12,,,,,,,,,,,,,,,,15,,62,0
20759,note_on,,119,0,10,,,,,,,,,,,,,,,,12,,69,0
20759,note_on,,0,0,12,,,,,,,,,,,,,,,,15,,69,0
20759,note_on,,119,0,6,,,,,,,,,,,,,,,,3,,78,0
20759,note_on,,119,0,8,,,,,,,,,,,,,,,,10,,78,0
20759,note_on,,0,0,12,,,,,,,,,,,,,,,,15,,66,0
20759,note_on,,0,0,12,,,,,,,,,,,,,,,,15,,74,0
20759,note_on,,119,0,11,,,,,,,,,,,,,,,,13,,62,0
20760,note_on,,1,0,5,,,,,,,,,,,,,,,,2,,57,48
20760,note_on,,1,0,8,,,,,,,,,,,,,,,,10,,76,48
20760,note_on,,1,0,10,,,,,,,,,,,,,,,,12,,69,48
20760,note_on,,1,0,12,,,,,,,,,,,,,,,,15,,73,48
20760,note_on,,0,0,12,,,,,,,,,,,,,,,,15,,69,48
20760,note_on,,0,0,12,,,,,,,,,,,,,,,,15,,57,48
20760,note_on,,1,0,11,,,,,,,,,,,,,,,,13,,57,48
20760,note_on,,0,0,12,,,,,,,,,,,,,,,,15,,64,48
20760,note_on,,1,0,6,,,,,,,,,,,,,,,,3,,76,64
20760,note_on,,1,0,9,,,,,,,,,,,,,,,,11,,73,48
20879,note_on,,119,0,11,,,,,,,,,,,,,,,,13,,57,0
20879,note_on,,119,0,8,,,,,,,,,,,,,,,,10,,76,0
20879,note_on,,119,0,5,,,,,,,,,,,,,,,,2,,57,0
20879,note_on,,119,0,9,,,,,,,,,,,,,,,,11,,73,0
20879,note_on,,119,0,10,,,,,,,,,,,,,,,,12,,69,0
20879,note_on,,119,0,12,,,,,,,,,,,,,,,,15,,73,0
20879,note_on,,0,0,12,,,,,,,,,,,,,,,,15,,69,0
20879,note_on,,0,0,12,,,,,,,,,,,,,,,,15,,57,0
20879,note_on,,0,0,12,,,,,,,,,,,,,,,,15,,64,0
20879,note_on,,119,0,6,,,,,,,,,,,,,,,,3,,76,0
20880,note_on,,0,0,12,,,,,,,,,,,,,,,,15,,49,48
20880,note_on,,0,0,12,,,,,,,,,,,,,,,,15,,66,48
20880,note_on,,0,0,12,,,,,,,,,,,,,,,,15,,57,48
20880,note_on,,721,0,7,,,,,,,,,,,,,,,,8,,64,72
20880,note_on,,1,0,12,,,,,,,,,,,,,,,,15,,69,48
20880,note_on,,1,0,5,,,,,,,,,,,,,,,,2,,49,48
20880,note_on,,1,0,11,,,,,,,,,,,,,,,,13,,49,48
20999,note_on,,119,0,12,,,,,,,,,,,,,,,,15,,69,0
20999,note_on,,0,0,12,,,,,,,,,,,,,,,,15,,49,0
20999,note_on,,0,0,12,,,,,,,,,,,,,,,,15,,57,0
20999,note_on,,0,0,12,,,,,,,,,,,,,,,,15,,66,0
20999,note_on,,119,0,7,,,,,,,,,,,,,,,,8,,64,0
20999,note_on,,119,0,5,,,,,,,,,,,,,,,,2,,49,0
20999,note_on,,119,0,11,,,,,,,,,,,,,,,,13,,49,0
21000,note_on,,1,0,7,,,,,,,,,,,,,,,,8,,59,72
21000,note_on,,1,0,12,,,,,,,,,,,,,,,,15,,55,48
21000,note_on,,0,0,12,,,,,,,,,,,,,,,,15,,52,48
21000,note_on,,0,0,12,,,,,,,,,,,,,,,,15,,59,48
21000,note_on,,0,0,12,,,,,,,,,,,,,,,,15,,64,48
21000,note_on,,1,0,5,,,,,,,,,,,,,,,,2,,52,48
21000,note_on,,1,0,11,,,,,,,,,,,,,,,,13,,52,48
21119,note_on,,119,0,7,,,,,,,,,,,,,,,,8,,59,0
21120,note_on,,1,0,7,,,,,,,,,,,,,,,,8,,59,72
21239,note_on,,0,0,12,,,,,,,,,,,,,,,,15,,64,0
21239,note_on,,239,0,5,,,,,,,,,,,,,,,,2,,52,0
21239,note_on,,239,0,11,,,,,,,,,,,,,,,,13,,52,0
21239,note_on,,119,0,7,,,,,,,,,,,,,,,,8,,59,0
21239,note_on,,0,0,12,,,,,,,,,,,,,,,,15,,52,0
21239,note_on,,239,0,12,,,,,,,,,,,,,,,,15,,55,0
21239,note_on,,0,0,12,,,,,,,,,,,,,,,,15,,59,0
21240,note_on,,0,0,12,,,,,,,,,,,,,,,,15,,67,48
21240,note_on,,0,0,12,,,,,,,,,,,,,,,,15,,64,48
21240,note_on,,1,0,7,,,,,,,,,,,,,,,,8,,61,72
21240,note_on,,1,0,12,,,,,,,,,,,,,,,,15,,55,48
21240,note_on,,0,0,12,,,,,,,,,,,,,,,,15,,52,48
21240,note_on,,1,0,5,,,,,,,,,,,,,,,,2,,52,48
21240,note_on,,1,0,11,,,,,,,,,,,,,,,,13,,52,48
21359,note_on,,0,0,12,,,,,,,,,,,,,,,,15,,52,0
21359,note_on,,119,0,5,,,,,,,,,,,,,,,,2,,52,0
21359,note_on,,0,0,12,,,,,,,,,,,,,,,,15,,64,0
21359,note_on,,0,0,12,,,,,,,,,,,,,,,,15,,67,0
21359,note_on,,119,0,12,,,,,,,,,,,,,,,,15,,55,0
21359,note_on,,119,0,7,,,,,,,,,,,,,,,,8,,61,0
21359,note_on,,119,0,11,,,,,,,,,,,,,,,,13,,52,0
21360,note_on,,0,0,12,,,,,,,,,,,,,,,,15,,59,48
21360,note_on,,1,0,7,,,,,,,,,,,,,,,,8,,62,72
21360,note_on,,1,0,5,,,,,,,,,,,,,,,,2,,47,48
21360,note_on,,1,0,12,,,,,,,,,,,,,,,,15,,66,48
21360,note_on,,0,0,12,,,,,,,,,,,,,,,,15,,62,48
21360,note_on,,1,0,11,,,,,,,,,,,,,,,,13,,47,48
21360,note_on,,0,0,12,,,,,,,,,,,,,,,,15,,47,48
21419,note_on,,59,0,7,,,,,,,,,,,,,,,,8,,62,0
21420,note_on,,1,0,7,,,,,,,,,,,,,,,,8,,61,72
21479,note_on,,59,0,7,,,,,,,,,,,,,,,,8,,61,0
21480,note_on,,1,0,7,,,,,,,,,,,,,,,,8,,62,72
21539,note_on,,179,0,11,,,,,,,,,,,,,,,,13,,47,0
21539,note_on,,179,0,5,,,,,,,,,,,,,,,,2,,47,0
21539,note_on,,59,0,7,,,,,,,,,,,,,,,,8,,62,0
21539,note_on,,179,0,12,,,,,,,,,,,,,,,,15,,47,0
21540,note_on,,1,0,11,,,,,,,,,,,,,,,,13,,49,48
21540,note_on,,1,0,7,,,,,,,,,,,,,,,,8,,64,72
21540,note_on,,1,0,12,,,,,,,,,,,,,,,,15,,49,48
21540,note_on,,1,0,5,,,,,,,,,,,,,,,,2,,49,48
21599,note_on,,59,0,5,,,,,,,,,,,,,,,,2,,49,0
21599,note_on,,59,0,12,,,,,,,,,,,,,,,,15,,49,0
21599,note_on,,59,0,11,,,,,,,,,,,,,,,,13,,49,0
21599,note_on,,59,0,7,,,,,,,,,,,,,,,,8,,64,0
21600,note_on,,1,0,11,,,,,,,,,,,,,,,,13,,47,48
21600,note_on,,1,0,12,,,,,,,,,,,,,,,,15,,47,48
21600,note_on,,1,0,7,,,,,,,,,,,,,,,,8,,62,72
21600,note_on,,1,0,5,,,,,,,,,,,,,,,,2,,47,48
21659,note_on,,59,0,11,,,,,,,,,,,,,,,,13,,47,0
21659,note_on,,59,0,12,,,,,,,,,,,,,,,,15,,47,0
21659,note_on,,59,0,7,,,,,,,,,,,,,,,,8,,62,0
21659,note_on,,59,0,5,,,,,,,,,,,,,,,,2,,47,0
21660,note_on,,1,0,12,,,,,,,,,,,,,,,,15,,49,48
21660,note_on,,1,0,5,,,,,,,,,,,,,,,,2,,49,48
21660,note_on,,1,0,7,,,,,,,,,,,,,,,,8,,64,72
21660,note_on,,1,0,11,,,,,,,,,,,,,,,,13,,49,48
21719,note_on,,59,0,11,,,,,,,,,,,,,,,,13,,49,0
21719,note_on,,0,0,12,,,,,,,,,,,,,,,,15,,49,0
21719,note_on,,0,0,12,,,,,,,,,,,,,,,,15,,59,0
21719,note_on,,0,0,12,,,,,,,,,,,,,,,,15,,62,0
21719,note_on,,59,0,12,,,,,,,,,,,,,,,,15,,66,0
21719,note_on,,59,0,5,,,,,,,,,,,,,,,,2,,49,0
21719,note_on,,59,0,7,,,,,,,,,,,,,,,,8,,64,0
21720,note_on,,1,0,5,,,,,,,,,,,,,,,,2,,50,48
21720,note_on,,0,0,12,,,,,,,,,,,,,,,,15,,50,48
21720,note_on,,0,0,12,,,,,,,,,,,,,,,,15,,59,48
21720,note_on,,0,0,12,,,,,,,,,,,,,,,,15,,71,48
21720,note_on,,1,0,12,,,,,,,,,,,,,,,,15,,66,48
21720,note_on,,1,0,11,,,,,,,,,,,,,,,,13,,50,48
21720,note_on,,1,0,7,,,,,,,,,,,,,,,,8,,54,72
21779,note_on,,59,0,7,,,,,,,,,,,,,,,,8,,54,0
21780,note_on,,1,0,7,,,,,,,,,,,,,,,,8,,52,72
21839,note_on,,59,0,7,,,,,,,,,,,,,,,,8,,52,0
21840,note_on,,1,0,7,,,,,,,,,,,,,,,,8,,54,72
21899,note_on,,179,0,11,,,,,,,,,,,,,,,,13,,50,0
21899,note_on,,59,0,7,,,,,,,,,,,,,,,,8,,54,0
21899,note_on,,179,0,5,,,,,,,,,,,,,,,,2,,50,0
21899,note_on,,179,0,12,,,,,,,,,,,,,,,,15,,50,0
21900,note_on,,1,0,12,,,,,,,,,,,,,,,,15,,52,48
21900,note_on,,1,0,7,,,,,,,,,,,,,,,,8,,56,72
21900,note_on,,1,0,5,,,,,,,,,,,,,,,,2,,52,48
21900,note_on,,1,0,11,,,,,,,,,,,,,,,,13,,52,48
21959,note_on,,59,0,12,,,,,,,,,,,,,,,,15,,52,0
21959,note_on,,59,0,5,,,,,,,,,,,,,,,,2,,52,0
21959,note_on,,59,0,7,,,,,,,,,,,,,,,,8,,56,0
21959,note_on,,59,0,11,,,,,,,,,,,,,,,,13,,52,0
21960,note_on,,1,0,11,,,,,,,,,,,,,,,,13,,50,48
21960,note_on,,1,0,5,,,,,,,,,,,,,,,,2,,50,48
21960,note_on,,1,0,7,,,,,,,,,,,,,,,,8,,54,72
21960,note_on,,1,0,12,,,,,,,,,,,,,,,,15,,50,48
22019,note_on,,59,0,5,,,,,,,,,,,,,,,,2,,50,0
22019,note_on,,59,0,11,,,,,,,,,,,,,,,,13,,50,0
22019,note_on,,59,0,7,,,,,,,,,,,,,,,,8,,54,0
22019,note_on,,59,0,12,,,,,,,,,,,,,,,,15,,50,0
22020,note_on,,1,0,11,,,,,,,,,,,,,,,,13,,52,48
22020,note_on,,1,0,5,,,,,,,,,,,,,,,,2,,52,48
22020,note_on,,1,0,12,,,,,,,,,,,,,,,,15,,52,48
22020,note_on,,1,0,7,,,,,,,,,,,,,,,,8,,56,72
22079,note_on,,59,0,11,,,,,,,,,,,,,,,,13,,52,0
22079,note_on,,59,0,12,,,,,,,,,,,,,,,,15,,66,0
22079,note_on,,59,0,7,,,,,,,,,,,,,,,,8,,56,0
22079,note_on,,0,0,12,,,,,,,,,,,,,,,,15,,52,0
22079,note_on,,0,0,12,,,,,,,,,,,,,,,,15,,59,0
22079,note_on,,59,0,5,,,,,,,,,,,,,,,,2,,52,0
22079,note_on,,0,0,12,,,,,,,,,,,,,,,,15,,71,0
22080,note_on,,0,0,12,,,,,,,,,,,,,,,,15,,66,48
22080,note_on,,0,0,12,,,,,,,,,,,,,,,,15,,54,48
22080,note_on,,1,0,5,,,,,,,,,,,,,,,,2,,54,48
22080,note_on,,1,0,11,,,,,,,,,,,,,,,,13,,54,48
22080,note_on,,1,0,7,,,,,,,,,,,,,,,,8,,57,72
22080,note_on,,1,0,12,,,,,,,,,,,,,,,,15,,61,48
22080,note_on,,0,0,12,,,,,,,,,,,,,,,,15,,57,48
22139,note_on,,59,0,7,,,,,,,,,,,,,,,,8,,57,0
22140,note_on,,1,0,7,,,,,,,,,,,,,,,,8,,56,72
22199,note_on,,119,0,11,,,,,,,,,,,,,,,,13,,54,0
22199,note_on,,0,0,12,,,,,,,,,,,,,,,,15,,66,0
22199,note_on,,119,0,5,,,,,,,,,,,,,,,,2,,54,0
22199,note_on,,59,0,7,,,,,,,,,,,,,,,,8,,56,0
22199,note_on,,119,0,12,,,,,,,,,,,,,,,,15,,61,0
22199,note_on,,0,0,12,,,,,,,,,,,,,,,,15,,57,0
22199,note_on,,0,0,12,,,,,,,,,,,,,,,,15,,54,0
22200,note_on,,1,0,5,,,,,,,,,,,,,,,,2,,54,48
22200,note_on,,1,0,7,,,,,,,,,,,,,,,,8,,57,72
22200,note_on,,1,0,12,,,,,,,,,,,,,,,,15,,69,48
22200,note_on,,0,0,12,,,,,,,,,,,,,,,,15,,61,48
22200,note_on,,0,0,12,,,,,,,,,,,,,,,,15,,54,48
22200,note_on,,0,0,12,,,,,,,,,,,,,,,,15,,66,48
22200,note_on,,1,0,11,,,,,,,,,,,,,,,,13,,54,48
22259,note_on,,59,0,7,,,,,,,,,,,,,,,,8,,57,0
22260,note_on,,1,0,7,,,,,,,,,,,,,,,,8,,59,72
22319,note_on,,59,0,7,,,,,,,,,,,,,,,,8,,59,0
22319,note_on,,119,0,5,,,,,,,,,,,,,,,,2,,54,0
22319,note_on,,119,0,11,,,,,,,,,,,,,,,,13,,54,0
22319,note_on,,0,0,12,,,,,,,,,,,,,,,,15,,66,0
22319,note_on,,0,0,12,,,,,,,,,,,,,,,,15,,54,0
22319,note_on,,119,0,12,,,,,,,,,,,,,,,,15,,69,0
22319,note_on,,0,0,12,,,,,,,,,,,,,,,,15,,61,0
22320,note_on,,1,0,11,,,,,,,,,,,,,,,,13,,50,48
22320,note_on,,0,0,12,,,,,,,,,,,,,,,,15,,78,48
22320,note_on,,0,0,12,,,,,,,,,,,,,,,,15,,74,48
22320,note_on,,1,0,12,,,,,,,,,,,,,,,,15,,50,48
22320,note_on,,1,0,7,,,,,,,,,,,,,,,,8,,57,72
22320,note_on,,1,0,5,,,,,,,,,,,,,,,,2,,50,48
22320,note_on,,0,0,12,,,,,,,,,,,,,,,,15,,69,48
22379,note_on,,59,0,7,,,,,,,,,,,,,,,,8,,57,0
22380,note_on,,1,0,7,,,,,,,,,,,,,,,,8,,59,72
22439,note_on,,0,0,12,,,,,,,,,,,,,,,,15,,69,0
22439,note_on,,0,0,12,,,,,,,,,,,,,,,,15,,78,0
22439,note_on,,0,0,12,,,,,,,,,,,,,,,,15,,74,0
22439,note_on,,119,0,11,,,,,,,,,,,,,,,,13,,50,0
22439,note_on,,119,0,12,,,,,,,,,,,,,,,,15,,50,0
22439,note_on,,59,0,7,,,,,,,,,,,,,,,,8,,59,0
22439,note_on,,119,0,5,,,,,,,,,,,,,,,,2,,50,0
22440,note_on,,1,0,7,,,,,,,,,,,,,,,,8,,61,72
22440,note_on,,1,0,11,,,,,,,,,,,,,,,,13,,45,48
22440,note_on,,1,0,5,,,,,,,,,,,,,,,,2,,45,48
22440,note_on,,0,0,12,,,,,,,,,,,,,,,,15,,45,48
22440,note_on,,1,0,12,,,,,,,,,,,,,,,,15,,69,48
22440,note_on,,0,0,12,,,,,,,,,,,,,,,,15,,76,48
22440,note_on,,0,0,12,,,,,,,,,,,,,,,,15,,73,48
22499,note_on,,59,0,7,,,,,,,,,,,,,,,,8,,61,0
22500,note_on,,1,0,7,,,,,,,,,,,,,,,,8,,59,72
22559,note_on,,59,0,7,,,,,,,,,,,,,,,,8,,59,0
22560,note_on,,1,0,7,,,,,,,,,,,,,,,,8,,61,72
22619,note_on,,179,0,5,,,,,,,,,,,,,,,,2,,45,0
22619,note_on,,179,0,11,,,,,,,,,,,,,,,,13,,45,0
22619,note_on,,59,0,7,,,,,,,,,,,,,,,,8,,61,0
22619,note_on,,179,0,12,,,,,,,,,,,,,,,,15,,45,0
22620,note_on,,1,0,12,,,,,,,,,,,,,,,,15,,47,48
22620,note_on,,1,0,11,,,,,,,,,,,,,,,,13,,47,48
22620,note_on,,1,0,5,,,,,,,,,,,,,,,,2,,47,48
22620,note_on,,1,0,7,,,,,,,,,,,,,,,,8,,62,72
22679,note_on,,59,0,12,,,,,,,,,,,,,,,,15,,47,0
22679,note_on,,59,0,7,,,,,,,,,,,,,,,,8,,62,0
22679,note_on,,59,0,11,,,,,,,,,,,,,,,,13,,47,0
22679,note_on,,59,0,5,,,,,,,,,,,,,,,,2,,47,0
22680,note_on,,1,0,12,,,,,,,,,,,,,,,,15,,45,48
22680,note_on,,1,0,11,,,,,,,,,,,,,,,,13,,45,48
22680,note_on,,1,0,7,,,,,,,,,,,,,,,,8,,61,72
22680,note_on,,1,0,5,,,,,,,,,,,,,,,,2,,45,48
22739,note_on,,59,0,11,,,,,,,,,,,,,,,,13,,45,0
22739,note_on,,59,0,5,,,,,,,,,,,,,,,,2,,45,0
22739,note_on,,59,0,12,,,,,,,,,,,,,,,,15,,45,0
22739,note_on,,59,0,7,,,,,,,,,,,,,,,,8,,61,0
22740,note_on,,1,0,5,,,,,,,,,,,,,,,,2,,47,48
22740,note_on,,1,0,12,,,,,,,,,,,,,,,,15,,47,48
22740,note_on,,1,0,11,,,,,,,,,,,,,,,,13,,47,48
22740,note_on,,1,0,7,,,,,,,,,,,,,,,,8,,62,72
22799,note_on,,59,0,7,,,,,,,,,,,,,,,,8,,62,0
22799,note_on,,59,0,11,,,,,,,,,,,,,,,,13,,47,0
22799,note_on,,59,0,5,,,,,,,,,,,,,,,,2,,47,0
22799,note_on,,59,0,12,,,,,,,,,,,,,,,,15,,69,0
22799,note_on,,0,0,12,,,,,,,,,,,,,,,,15,,76,0
22799,note_on,,0,0,12,,,,,,,,,,,,,,,,15,,47,0
22799,note_on,,0,0,12,,,,,,,,,,,,,,,,15,,73,0
22800,note_on,,1,0,12,,,,,,,,,,,,,,,,15,,64,48
22800,note_on,,0,0,12,,,,,,,,,,,,,,,,15,,49,48
22800,note_on,,1,0,5,,,,,,,,,,,,,,,,2,,49,48
22800,note_on,,0,0,12,,,,,,,,,,,,,,,,15,,69,48
22800,note_on,,0,0,12,,,,,,,,,,,,,,,,15,,73,48
22800,note_on,,1,0,7,,,,,,,,,,,,,,,,8,,52,72
22800,note_on,,1,0,11,,,,,,,,,,,,,,,,13,,49,48
22859,note_on,,59,0,7,,,,,,,,,,,,,,,,8,,52,0
22860,note_on,,1,0,7,,,,,,,,,,,,,,,,8,,50,72
22919,note_on,,59,0,7,,,,,,,,,,,,,,,,8,,50,0
22920,note_on,,1,0,7,,,,,,,,,,,,,,,,8,,52,72
22979,note_on,,59,0,7,,,,,,,,,,,,,,,,8,,52,0
22979,note_on,,179,0,5,,,,,,,,,,,,,,,,2,,49,0
22979,note_on,,179,0,11,,,,,,,,,,,,,,,,13,,49,0
22979,note_on,,179,0,12,,,,,,,,,,,,,,,,15,,49,0
22980,note_on,,1,0,11,,,,,,,,,,,,,,,,13,,50,48
22980,note_on,,1,0,5,,,,,,,,,,,,,,,,2,,50,48
22980,note_on,,1,0,7,,,,,,,,,,,,,,,,8,,54,72
22980,note_on,,1,0,12,,,,,,,,,,,,,,,,15,,50,48
23039,note_on,,59,0,11,,,,,,,,,,,,,,,,13,,50,0
23039,note_on,,59,0,7,,,,,,,,,,,,,,,,8,,54,0
23039,note_on,,59,0,12,,,,,,,,,,,,,,,,15,,50,0
23039,note_on,,59,0,5,,,,,,,,,,,,,,,,2,,50,0
23040,note_on,,1,0,11,,,,,,,,,,,,,,,,13,,49,48
23040,note_on,,1,0,7,,,,,,,,,,,,,,,,8,,52,72
23040,note_on,,1,0,12,,,,,,,,,,,,,,,,15,,49,48
23040,note_on,,1,0,5,,,,,,,,,,,,,,,,2,,49,48
23099,note_on,,59,0,5,,,,,,,,,,,,,,,,2,,49,0
23099,note_on,,59,0,12,,,,,,,,,,,,,,,,15,,49,0
23099,note_on,,59,0,7,,,,,,,,,,,,,,,,8,,52,0
23099,note_on,,59,0,11,,,,,,,,,,,,,,,,13,,49,0
23100,note_on,,1,0,12,,,,,,,,,,,,,,,,15,,50,48
23100,note_on,,1,0,5,,,,,,,,,,,,,,,,2,,50,48
23100,note_on,,1,0,11,,,,,,,,,,,,,,,,13,,50,48
23100,note_on,,1,0,7,,,,,,,,,,,,,,,,8,,54,72
23159,note_on,,59,0,7,,,,,,,,,,,,,,,,8,,54,0
23159,note_on,,59,0,11,,,,,,,,,,,,,,,,13,,50,0
23159,note_on,,0,0,12,,,,,,,,,,,,,,,,15,,73,0
23159,note_on,,59,0,12,,,,,,,,,,,,,,,,15,,64,0
23159,note_on,,59,0,5,,,,,,,,,,,,,,,,2,,50,0
23159,note_on,,0,0,12,,,,,,,,,,,,,,,,15,,69,0
23159,note_on,,0,0,12,,,,,,,,,,,,,,,,15,,50,0
23160,note_on,,1,0,5,,,,,,,,,,,,,,,,2,,52,48
23160,note_on,,0,0,12,,,,,,,,,,,,,,,,15,,52,48
23160,note_on,,0,0,12,,,,,,,,,,,,,,,,15,,68,48
23160,note_on,,1,0,11,,,,,,,,,,,,,,,,13,,52,48
23160,note_on,,0,0,12,,,,,,,,,,,,,,,,15,,64,48
23160,note_on,,1,0,7,,,,,,,,,,,,,,,,8,,56,72
23160,note_on,,0,0,12,,,,,,,,,,,,,,,,15,,59,48
23160,note_on,,1,0,12,,,,,,,,,,,,,,,,15,,71,48
23219,note_on,,59,0,7,,,,,,,,,,,,,,,,8,,56,0
23220,note_on,,1,0,7,,,,,,,,,,,,,,,,8,,54,72
23279,note_on,,119,0,12,,,,,,,,,,,,,,,,15,,71,0
23279,note_on,,119,0,11,,,,,,,,,,,,,,,,13,,52,0
23279,note_on,,59,0,7,,,,,,,,,,,,,,,,8,,54,0
23279,note_on,,0,0,12,,,,,,,,,,,,,,,,15,,52,0
23279,note_on,,0,0,12,,,,,,,,,,,,,,,,15,,64,0
23279,note_on,,0,0,12,,,,,,,,,,,,,,,,15,,59,0
23279,note_on,,0,0,12,,,,,,,,,,,,,,,,15,,68,0
23279,note_on,,119,0,5,,,,,,,,,,,,,,,,2,,52,0
23280,note_on,,1,0,5,,,,,,,,,,,,,,,,2,,49,48
23280,note_on,,0,0,12,,,,,,,,,,,,,,,,15,,64,48
23280,note_on,,0,0,12,,,,,,,,,,,,,,,,15,,61,48
23280,note_on,,1,0,12,,,,,,,,,,,,,,,,15,,49,48
23280,note_on,,1,0,11,,,,,,,,,,,,,,,,13,,49,48
23280,note_on,,1,0,7,,,,,,,,,,,,,,,,8,,56,72
23339,note_on,,59,0,7,,,,,,,,,,,,,,,,8,,56,0
23340,note_on,,1,0,7,,,,,,,,,,,,,,,,8,,57,72
23399,note_on,,119,0,5,,,,,,,,,,,,,,,,2,,49,0
23399,note_on,,119,0,12,,,,,,,,,,,,,,,,15,,49,0
23399,note_on,,59,0,7,,,,,,,,,,,,,,,,8,,57,0
23399,note_on,,119,0,11,,,,,,,,,,,,,,,,13,,49,0
23399,note_on,,0,0,12,,,,,,,,,,,,,,,,15,,61,0
23399,note_on,,0,0,12,,,,,,,,,,,,,,,,15,,64,0
23400,note_on,,0,0,12,,,,,,,,,,,,,,,,15,,73,48
23400,note_on,,0,0,12,,,,,,,,,,,,,,,,15,,69,48
23400,note_on,,0,0,12,,,,,,,,,,,,,,,,15,,64,48
23400,note_on,,1,0,5,,,,,,,,,,,,,,,,2,,45,48
23400,note_on,,1,0,12,,,,,,,,,,,,,,,,15,,45,48
23400,note_on,,1,0,7,,,,,,,,,,,,,,,,8,,56,72
23400,note_on,,1,0,11,,,,,,,,,,,,,,,,13,,45,48
23459,note_on,,59,0,7,,,,,,,,,,,,,,,,8,,56,0
23460,note_on,,1,0,7,,,,,,,,,,,,,,,,8,,57,72
23519,note_on,,59,0,7,,,,,,,,,,,,,,,,8,,57,0
23519,note_on,,0,0,12,,,,,,,,,,,,,,,,15,,64,0
23519,note_on,,119,0,5,,,,,,,,,,,,,,,,2,,45,0
23519,note_on,,0,0,12,,,,,,,,,,,,,,,,15,,69,0
23519,note_on,,119,0,11,,,,,,,,,,,,,,,,13,,45,0
23519,note_on,,119,0,12,,,,,,,,,,,,,,,,15,,45,0
23519,note_on,,0,0,12,,,,,,,,,,,,,,,,15,,73,0
23520,note_on,,1,0,12,,,,,,,,,,,,,,,,15,,71,48
23520,note_on,,0,0,12,,,,,,,,,,,,,,,,15,,64,48
23520,note_on,,0,0,12,,,,,,,,,,,,,,,,15,,44,48
23520,note_on,,1,0,7,,,,,,,,,,,,,,,,8,,59,72
23520,note_on,,1,0,5,,,,,,,,,,,,,,,,2,,44,48
23520,note_on,,1,0,11,,,,,,,,,,,,,,,,13,,44,48
23639,note_on,,119,0,12,,,,,,,,,,,,,,,,15,,71,0
23639,note_on,,0,0,12,,,,,,,,,,,,,,,,15,,64,0
23639,note_on,,0,0,12,,,,,,,,,,,,,,,,15,,44,0
23639,note_on,,119,0,5,,,,,,,,,,,,,,,,2,,44,0
23639,note_on,,119,0,11,,,,,,,,,,,,,,,,13,,44,0
23640,note_on,,1,0,12,,,,,,,,,,,,,,,,15,,71,48
23640,note_on,,0,0,12,,,,,,,,,,,,,,,,15,,68,48
23640,note_on,,0,0,12,,,,,,,,,,,,,,,,15,,40,48
23640,note_on,,1,0,11,,,,,,,,,,,,,,,,13,,40,48
23640,note_on,,1,0,5,,,,,,,,,,,,,,,,2,,40,48
23640,note_on,,0,0,12,,,,,,,,,,,,,,,,15,,76,48
23759,note_on,,119,0,12,,,,,,,,,,,,,,,,15,,71,0
23759,note_on,,0,0,12,,,,,,,,,,,,,,,,15,,40,0
23759,note_on,,0,0,12,,,,,,,,,,,,,,,,15,,68,0
23759,note_on,,239,0,7,,,,,,,,,,,,,,,,8,,59,0
23759,note_on,,119,0,5,,,,,,,,,,,,,,,,2,,40,0
23759,note_on,,0,0,12,,,,,,,,,,,,,,,,15,,76,0
23759,note_on,,119,0,11,,,,,,,,,,,,,,,,13,,40,0
23760,note_on,,1,0,12,,,,,,,,,,,,,,,,15,,61,48
23760,note_on,,0,0,12,,,,,,,,,,,,,,,,15,,49,48
23760,note_on,,1,0,11,,,,,,,,,,,,,,,,13,,49,48
23760,note_on,,1,0,7,,,,,,,,,,,,,,,,8,,61,72
23760,note_on,,1,0,5,,,,,,,,,,,,,,,,2,,49,48
23879,note_on,,0,0,12,,,,,,,,,,,,,,,,15,,49,0
23879,note_on,,119,0,12,,,,,,,,,,,,,,,,15,,61,0
23879,note_on,,119,0,5,,,,,,,,,,,,,,,,2,,49,0
23879,note_on,,119,0,11,,,,,,,,,,,,,,,,13,,49,0
23879,note_on,,119,0,7,,,,,,,,,,,,,,,,8,,61,0
23880,note_on,,1,0,11,,,,,,,,,,,,,,,,13,,50,48
23880,note_on,,0,0,12,,,,,,,,,,,,,,,,15,,50,48
23880,note_on,,1,0,12,,,,,,,,,,,,,,,,15,,62,48
23880,note_on,,1,0,7,,,,,,,,,,,,,,,,8,,62,72
23880,note_on,,1,0,5,,,,,,,,,,,,,,,,2,,50,48
23999,note_on,,0,0,12,,,,,,,,,,,,,,,,15,,50,0
23999,note_on,,119,0,7,,,,,,,,,,,,,,,,8,,62,0
23999,note_on,,119,0,11,,,,,,,,,,,,,,,,13,,50,0
23999,note_on,,119,0,12,,,,,,,,,,,,,,,,15,,62,0
23999,note_on,,119,0,5,,,,,,,,,,,,,,,,2,,50,0
24000,note_on,,1,0,7,,,,,,,,,,,,,,,,8,,64,72
24000,note_on,,0,0,12,,,,,,,,,,,,,,,,15,,52,48
24000,note_on,,1,0,12,,,,,,,,,,,,,,,,15,,64,48
24000,note_on,,1,0,5,,,,,,,,,,,,,,,,2,,52,48
24000,note_on,,1,0,11,,,,,,,,,,,,,,,,13,,52,48
24119,note_on,,119,0,5,,,,,,,,,,,,,,,,2,,52,0
24119,note_on,,119,0,11,,,,,,,,,,,,,,,,13,,52,0
24119,note_on,,119,0,7,,,,,,,,,,,,,,,,8,,64,0
24119,note_on,,119,0,12,,,,,,,,,,,,,,,,15,,52,0
24120,note_on,,1,0,11,,,,,,,,,,,,,,,,13,,40,48
24120,note_on,,1,0,7,,,,,,,,,,,,,,,,8,,52,72
24120,note_on,,0,0,12,,,,,,,,,,,,,,,,15,,52,48
24120,note_on,,1,0,12,,,,,,,,,,,,,,,,15,,40,48
24120,note_on,,1,0,5,,,,,,,,,,,,,,,,2,,40,48
24239,note_on,,0,0,12,,,,,,,,,,,,,,,,15,,40,0
24239,note_on,,119,0,12,,,,,,,,,,,,,,,,15,,64,0
24239,note_on,,119,0,5,,,,,,,,,,,,,,,,2,,40,0
24239,note_on,,119,0,7,,,,,,,,,,,,,,,,8,,52,0
24239,note_on,,0,0,12,,,,,,,,,,,,,,,,15,,52,0
24239,note_on,,119,0,11,,,,,,,,,,,,,,,,13,,40,0
24240,note_on,,1,0,11,,,,,,,,,,,,,,,,13,,45,48
24240,note_on,,1,0,5,,,,,,,,,,,,,,,,2,,45,48
24240,note_on,,1,0,7,,,,,,,,,,,,,,,,8,,57,72
24240,note_on,,1,0,12,,,,,,,,,,,,,,,,15,,57,48
24240,note_on,,0,0,12,,,,,,,,,,,,,,,,15,,45,48
24359,note_on,,0,0,12,,,,,,,,,,,,,,,,15,,45,0
24359,note_on,,119,0,12,,,,,,,,,,,,,,,,15,,57,0
24359,note_on,,119,0,11,,,,,,,,,,,,,,,,13,,45,0
24359,note_on,,119,0,5,,,,,,,,,,,,,,,,2,,45,0
24360,note_on,,0,0,12,,,,,,,,,,,,,,,,15,,69,48
24360,note_on,,1,0,11,,,,,,,,,,,,,,,,13,,49,48
24360,note_on,,0,0,12,,,,,,,,,,,,,,,,15,,64,48
24360,note_on,,1,0,12,,,,,,,,,,,,,,,,15,,49,48
24360,note_on,,1,0,5,,,,,,,,,,,,,,,,2,,49,48
24479,note_on,,0,0,12,,,,,,,,,,,,,,,,15,,69,0
24479,note_on,,119,0,12,,,,,,,,,,,,,,,,15,,49,0
24479,note_on,,119,0,5,,,,,,,,,,,,,,,,2,,49,0
24479,note_on,,119,0,11,,,,,,,,,,,,,,,,13,,49,0
24479,note_on,,0,0,12,,,,,,,,,,,,,,,,15,,64,0
24480,note_on,,3601,0,9,,,,,,,,,,,,,,,,11,,73,72
24480,note_on,,3601,0,6,,,,,,,,,,,,,,,,3,,81,64
24480,note_on,,3601,0,8,,,,,,,,,,,,,,,,10,,81,72
24480,note_on,,0,0,12,,,,,,,,,,,,,,,,15,,64,72
24480,note_on,,1,0,5,,,,,,,,,,,,,,,,2,,45,72
24480,note_on,,1,0,12,,,,,,,,,,,,,,,,15,,69,72
24480,note_on,,3601,0,10,,,,,,,,,,,,,,,,12,,64,72
24480,note_on,,0,0,12,,,,,,,,,,,,,,,,15,,73,72
24480,note_on,,0,0,12,,,,,,,,,,,,,,,,15,,45,72
24480,note_on,,1,0,11,,,,,,,,,,,,,,,,13,,45,72
24599,note_on,,119,0,8,,,,,,,,,,,,,,,,10,,81,0
24599,note_on,,359,0,7,,,,,,,,,,,,,,,,8,,57,0
24599,note_on,,119,0,9,,,,,,,,,,,,,,,,11,,73,0
24599,note_on,,119,0,5,,,,,,,,,,,,,,,,2,,45,0
24599,note_on,,119,0,12,,,,,,,,,,,,,,,,15,,69,0
24599,note_on,,119,0,6,,,,,,,,,,,,,,,,3,,81,0
24599,note_on,,119,0,10,,,,,,,,,,,,,,,,12,,64,0
24599,note_on,,0,0,12,,,,,,,,,,,,,,,,15,,45,0
24599,note_on,,119,0,11,,,,,,,,,,,,,,,,13,,45,0
24599,note_on,,0,0,12,,,,,,,,,,,,,,,,15,,64,0
24599,note_on,,0,0,12,,,,,,,,,,,,,,,,15,,73,0
24600,note_on,,1,0,8,,,,,,,,,,,,,,,,10,,80,72
24600,note_on,,1,0,11,,,,,,,,,,,,,,,,13,,52,72
24600,note_on,,1,0,5,,,,,,,,,,,,,,,,2,,52,72
24600,note_on,,1,0,10,,,,,,,,,,,,,,,,12,,64,72
24600,note_on,,1,0,9,,,,,,,,,,,,,,,,11,,71,72
24600,note_on,,1,0,12,,,,,,,,,,,,,,,,15,,52,72
24600,note_on,,0,0,12,,,,,,,,,,,,,,,,15,,68,72
24600,note_on,,0,0,12,,,,,,,,,,,,,,,,15,,64,72
24600,note_on,,0,0,12,,,,,,,,,,,,,,,,15,,71,72
24600,note_on,,1,0,6,,,,,,,,,,,,,,,,3,,80,64
24659,note_on,,59,0,9,,,,,,,,,,,,,,,,11,,71,0
24659,note_on,,59,0,8,,,,,,,,,,,,,,,,10,,80,0
24659,note_on,,59,0,6,,,,,,,,,,,,,,,,3,,80,0
24660,note_on,,1,0,8,,,,,,,,,,,,,,,,10,,78,72
24660,note_on,,1,0,6,,,,,,,,,,,,,,,,3,,78,64
24660,note_on,,1,0,9,,,,,,,,,,,,,,,,11,,69,72
24719,note_on,,59,0,9,,,,,,,,,,,,,,,,11,,69,0
24719,note_on,,59,0,8,,,,,,,,,,,,,,,,10,,78,0
24719,note_on,,59,0,6,,,,,,,,,,,,,,,,3,,78,0
24720,note_on,,1,0,8,,,,,,,,,,,,,,,,10,,76,72
24720,note_on,,1,0,9,,,,,,,,,,,,,,,,11,,68,72
24720,note_on,,1,0,6,,,,,,,,,,,,,,,,3,,76,64
24779,note_on,,59,0,8,,,,,,,,,,,,,,,,10,,76,0
24779,note_on,,59,0,9,,,,,,,,,,,,,,,,11,,68,0
24779,note_on,,59,0,6,,,,,,,,,,,,,,,,3,,76,0
24780,note_on,,1,0,6,,,,,,,,,,,,,,,,3,,80,64
24780,note_on,,1,0,9,,,,,,,,,,,,,,,,11,,71,72
24780,note_on,,1,0,8,,,,,,,,,,,,,,,,10,,80,72
24839,note_on,,239,0,12,,,,,,,,,,,,,,,,15,,52,0
24839,note_on,,239,0,5,,,,,,,,,,,,,,,,2,,52,0
24839,note_on,,59,0,8,,,,,,,,,,,,,,,,10,,80,0
24839,note_on,,59,0,6,,,,,,,,,,,,,,,,3,,80,0
24839,note_on,,239,0,11,,,,,,,,,,,,,,,,13,,52,0
24839,note_on,,59,0,9,,,,,,,,,,,,,,,,11,,71,0
24839,note_on,,239,0,10,,,,,,,,,,,,,,,,12,,64,0
24840,note_on,,1,0,6,,,,,,,,,,,,,,,,3,,78,64
24840,note_on,,1,0,10,,,,,,,,,,,,,,,,12,,64,72
24840,note_on,,1,0,5,,,,,,,,,,,,,,,,2,,62,72
24840,note_on,,1,0,11,,,,,,,,,,,,,,,,13,,62,72
24840,note_on,,1,0,12,,,,,,,,,,,,,,,,15,,62,72
24840,note_on,,1,0,9,,,,,,,,,,,,,,,,11,,69,72
24840,note_on,,1,0,8,,,,,,,,,,,,,,,,10,,78,72
24899,note_on,,59,0,9,,,,,,,,,,,,,,,,11,,69,0
24899,note_on,,59,0,8,,,,,,,,,,,,,,,,10,,78,0
24899,note_on,,59,0,6,,,,,,,,,,,,,,,,3,,78,0
24900,note_on,,1,0,6,,,,,,,,,,,,,,,,3,,76,64
24900,note_on,,1,0,8,,,,,,,,,,,,,,,,10,,76,72
24900,note_on,,1,0,9,,,,,,,,,,,,,,,,11,,68,72
24959,note_on,,0,0,12,,,,,,,,,,,,,,,,15,,64,0
24959,note_on,,119,0,10,,,,,,,,,,,,,,,,12,,64,0
24959,note_on,,119,0,11,,,,,,,,,,,,,,,,13,,62,0
24959,note_on,,119,0,12,,,,,,,,,,,,,,,,15,,68,0
24959,note_on,,0,0,12,,,,,,,,,,,,,,,,15,,62,0
24959,note_on,,59,0,6,,,,,,,,,,,,,,,,3,,76,0
24959,note_on,,119,0,5,,,,,,,,,,,,,,,,2,,62,0
24959,note_on,,59,0,9,,,,,,,,,,,,,,,,11,,68,0
24959,note_on,,0,0,12,,,,,,,,,,,,,,,,15,,71,0
24959,note_on,,59,0,8,,,,,,,,,,,,,,,,10,,76,0
24960,note_on,,1,0,10,,,,,,,,,,,,,,,,12,,64,72
24960,note_on,,1,0,11,,,,,,,,,,,,,,,,13,,61,72
24960,note_on,,1,0,9,,,,,,,,,,,,,,,,11,,69,72
24960,note_on,,1,0,8,,,,,,,,,,,,,,,,10,,81,72
24960,note_on,,1,0,12,,,,,,,,,,,,,,,,15,,61,72
24960,note_on,,0,0,12,,,,,,,,,,,,,,,,15,,64,72
24960,note_on,,0,0,12,,,,,,,,,,,,,,,,15,,69,72
24960,note_on,,1,0,5,,,,,,,,,,,,,,,,2,,61,72
24960,note_on,,1,0,6,,,,,,,,,,,,,,,,3,,81,64
25019,note_on,,59,0,5,,,,,,,,,,,,,,,,2,,61,0
25019,note_on,,59,0,11,,,,,,,,,,,,,,,,13,,61,0
25019,note_on,,0,0,12,,,,,,,,,,,,,,,,15,,64,0
25019,note_on,,59,0,10,,,,,,,,,,,,,,,,12,,64,0
25019,note_on,,59,0,12,,,,,,,,,,,,,,,,15,,61,0
25020,note_on,,1,0,11,,,,,,,,,,,,,,,,13,,59,72
25020,note_on,,1,0,5,,,,,,,,,,,,,,,,2,,59,72
25020,note_on,,1,0,12,,,,,,,,,,,,,,,,15,,62,72
25020,note_on,,1,0,10,,,,,,,,,,,,,,,,12,,62,72
25020,note_on,,0,0,12,,,,,,,,,,,,,,,,15,,59,72
25079,note_on,,59,0,10,,,,,,,,,,,,,,,,12,,62,0
25079,note_on,,59,0,11,,,,,,,,,,,,,,,,13,,59,0
25079,note_on,,59,0,12,,,,,,,,,,,,,,,,15,,62,0
25079,note_on,,0,0,12,,,,,,,,,,,,,,,,15,,59,0
25079,note_on,,59,0,5,,,,,,,,,,,,,,,,2,,59,0
25080,note_on,,0,0,12,,,,,,,,,,,,,,,,15,,57,72
25080,note_on,,1,0,10,,,,,,,,,,,,,,,,12,,61,72
25080,note_on,,1,0,11,,,,,,,,,,,,,,,,13,,57,72
25080,note_on,,1,0,12,,,,,,,,,,,,,,,,15,,61,72
25080,note_on,,1,0,5,,,,,,,,,,,,,,,,2,,57,72
25139,note_on,,59,0,5,,,,,,,,,,,,,,,,2,,57,0
25139,note_on,,59,0,10,,,,,,,,,,,,,,,,12,,61,0
25139,note_on,,59,0,11,,,,,,,,,,,,,,,,13,,57,0
25139,note_on,,59,0,12,,,,,,,,,,,,,,,,15,,61,0
25139,note_on,,0,0,12,,,,,,,,,,,,,,,,15,,57,0
25140,note_on,,1,0,12,,,,,,,,,,,,,,,,15,,61,72
25140,note_on,,1,0,11,,,,,,,,,,,,,,,,13,,61,72
25140,note_on,,1,0,5,,,,,,,,,,,,,,,,2,,61,72
25140,note_on,,0,0,12,,,,,,,,,,,,,,,,15,,64,72
25140,note_on,,1,0,10,,,,,,,,,,,,,,,,12,,64,72
25199,note_on,,59,0,12,,,,,,,,,,,,,,,,15,,61,0
25199,note_on,,59,0,5,,,,,,,,,,,,,,,,2,,61,0
25199,note_on,,239,0,6,,,,,,,,,,,,,,,,3,,81,0
25199,note_on,,0,0,12,,,,,,,,,,,,,,,,15,,64,0
25199,note_on,,239,0,9,,,,,,,,,,,,,,,,11,,69,0
25199,note_on,,59,0,11,,,,,,,,,,,,,,,,13,,61,0
25199,note_on,,59,0,10,,,,,,,,,,,,,,,,12,,64,0
25199,note_on,,239,0,8,,,,,,,,,,,,,,,,10,,81,0
25200,note_on,,1,0,11,,,,,,,,,,,,,,,,13,,59,72
25200,note_on,,1,0,6,,,,,,,,,,,,,,,,3,,79,64
25200,note_on,,1,0,12,,,,,,,,,,,,,,,,15,,62,72
25200,note_on,,1,0,9,,,,,,,,,,,,,,,,11,,69,72
25200,note_on,,0,0,12,,,,,,,,,,,,,,,,15,,59,72
25200,note_on,,1,0,5,,,,,,,,,,,,,,,,2,,59,72
25200,note_on,,1,0,8,,,,,,,,,,,,,,,,10,,79,72
25200,note_on,,1,0,10,,,,,,,,,,,,,,,,12,,62,72
25259,note_on,,59,0,5,,,,,,,,,,,,,,,,2,,59,0
25259,note_on,,59,0,11,,,,,,,,,,,,,,,,13,,59,0
25259,note_on,,59,0,10,,,,,,,,,,,,,,,,12,,62,0
25259,note_on,,0,0,12,,,,,,,,,,,,,,,,15,,59,0
25259,note_on,,59,0,12,,,,,,,,,,,,,,,,15,,62,0
25260,note_on,,1,0,11,,,,,,,,,,,,,,,,13,,57,72
25260,note_on,,1,0,10,,,,,,,,,,,,,,,,12,,61,72
25260,note_on,,0,0,12,,,,,,,,,,,,,,,,15,,61,72
25260,note_on,,1,0,12,,,,,,,,,,,,,,,,15,,57,72
25260,note_on,,1,0,5,,,,,,,,,,,,,,,,2,,57,72
25319,note_on,,59,0,11,,,,,,,,,,,,,,,,13,,57,0
25319,note_on,,119,0,6,,,,,,,,,,,,,,,,3,,79,0
25319,note_on,,59,0,10,,,,,,,,,,,,,,,,12,,61,0
25319,note_on,,59,0,12,,,,,,,,,,,,,,,,15,,69,0
25319,note_on,,119,0,8,,,,,,,,,,,,,,,,10,,79,0
25319,note_on,,0,0,12,,,,,,,,,,,,,,,,15,,57,0
25319,note_on,,0,0,12,,,,,,,,,,,,,,,,15,,61,0
25319,note_on,,59,0,5,,,,,,,,,,,,,,,,2,,57,0
25319,note_on,,119,0,9,,,,,,,,,,,,,,,,11,,69,0
25320,note_on,,1,0,12,,,,,,,,,,,,,,,,15,,62,72
25320,note_on,,0,0,12,,,,,,,,,,,,,,,,15,,69,72
25320,note_on,,0,0,12,,,,,,,,,,,,,,,,15,,66,72
25320,note_on,,1,0,8,,,,,,,,,,,,,,,,10,,78,72
25320,note_on,,1,0,5,,,,,,,,,,,,,,,,2,,62,72
25320,note_on,,1,0,6,,,,,,,,,,,,,,,,3,,78,64
25320,note_on,,1,0,9,,,,,,,,,,,,,,,,11,,69,72
25320,note_on,,1,0,10,,,,,,,,,,,,,,,,12,,62,72
25320,note_on,,1,0,11,,,,,,,,,,,,,,,,13,,62,72
25379,note_on,,59,0,6,,,,,,,,,,,,,,,,3,,78,0
25379,note_on,,59,0,8,,,,,,,,,,,,,,,,10,,78,0
25379,note_on,,59,0,9,,,,,,,,,,,,,,,,11,,69,0
25380,note_on,,1,0,8,,,,,,,,,,,,,,,,10,,76,72
25380,note_on,,1,0,6,,,,,,,,,,,,,,,,3,,76,64
25380,note_on,,1,0,9,,,,,,,,,,,,,,,,11,,67,72
25439,note_on,,59,0,9,,,,,,,,,,,,,,,,11,,67,0
25439,note_on,,59,0,6,,,,,,,,,,,,,,,,3,,76,0
25439,note_on,,59,0,8,,,,,,,,,,,,,,,,10,,76,0
25440,note_on,,1,0,9,,,,,,,,,,,,,,,,11,,66,72
25440,note_on,,1,0,8,,,,,,,,,,,,,,,,10,,74,72
25440,note_on,,1,0,6,,,,,,,,,,,,,,,,3,,74,64
25499,note_on,,59,0,9,,,,,,,,,,,,,,,,11,,66,0
25499,note_on,,59,0,8,,,,,,,,,,,,,,,,10,,74,0
25499,note_on,,59,0,6,,,,,,,,,,,,,,,,3,,74,0
25500,note_on,,1,0,6,,,,,,,,,,,,,,,,3,,78,64
25500,note_on,,1,0,9,,,,,,,,,,,,,,,,11,,74,72
25500,note_on,,1,0,8,,,,,,,,,,,,,,,,10,,78,72
25559,note_on,,59,0,9,,,,,,,,,,,,,,,,11,,74,0
25559,note_on,,239,0,12,,,,,,,,,,,,,,,,15,,62,0
25559,note_on,,0,0,12,,,,,,,,,,,,,,,,15,,69,0
25559,note_on,,59,0,8,,,,,,,,,,,,,,,,10,,78,0
25559,note_on,,239,0,11,,,,,,,,,,,,,,,,13,,62,0
25559,note_on,,239,0,10,,,,,,,,,,,,,,,,12,,62,0
25559,note_on,,239,0,5,,,,,,,,,,,,,,,,2,,62,0
25559,note_on,,59,0,6,,,,,,,,,,,,,,,,3,,78,0
25559,note_on,,0,0,12,,,,,,,,,,,,,,,,15,,66,0
25560,note_on,,1,0,9,,,,,,,,,,,,,,,,11,,73,72
25560,note_on,,0,0,12,,,,,,,,,,,,,,,,15,,62,72
25560,note_on,,1,0,5,,,,,,,,,,,,,,,,2,,62,72
25560,note_on,,1,0,12,,,,,,,,,,,,,,,,15,,66,72
25560,note_on,,0,0,12,,,,,,,,,,,,,,,,15,,69,72
25560,note_on,,1,0,10,,,,,,,,,,,,,,,,12,,62,72
25560,note_on,,1,0,11,,,,,,,,,,,,,,,,13,,62,72
25560,note_on,,1,0,8,,,,,,,,,,,,,,,,10,,76,72
25560,note_on,,1,0,6,,,,,,,,,,,,,,,,3,,76,64
25560,note_on,,0,0,12,,,,,,,,,,,,,,,,15,,74,72
25619,note_on,,59,0,9,,,,,,,,,,,,,,,,11,,73,0
25619,note_on,,59,0,6,,,,,,,,,,,,,,,,3,,76,0
25619,note_on,,59,0,8,,,,,,,,,,,,,,,,10,,76,0
25620,note_on,,1,0,6,,,,,,,,,,,,,,,,3,,74,64
25620,note_on,,1,0,9,,,,,,,,,,,,,,,,11,,71,72
25620,note_on,,1,0,8,,,,,,,,,,,,,,,,10,,74,72
25679,note_on,,59,0,6,,,,,,,,,,,,,,,,3,,74,0
25679,note_on,,119,0,5,,,,,,,,,,,,,,,,2,,62,0
25679,note_on,,119,0,12,,,,,,,,,,,,,,,,15,,66,0
25679,note_on,,59,0,8,,,,,,,,,,,,,,,,10,,74,0
25679,note_on,,119,0,10,,,,,,,,,,,,,,,,12,,62,0
25679,note_on,,59,0,9,,,,,,,,,,,,,,,,11,,71,0
25679,note_on,,0,0,12,,,,,,,,,,,,,,,,15,,74,0
25679,note_on,,0,0,12,,,,,,,,,,,,,,,,15,,62,0
25679,note_on,,0,0,12,,,,,,,,,,,,,,,,15,,69,0
25679,note_on,,119,0,11,,,,,,,,,,,,,,,,13,,62,0
25680,note_on,,1,0,12,,,,,,,,,,,,,,,,15,,64,72
25680,note_on,,0,0,12,,,,,,,,,,,,,,,,15,,69,72
25680,note_on,,0,0,12,,,,,,,,,,,,,,,,15,,61,72
25680,note_on,,1,0,11,,,,,,,,,,,,,,,,13,,61,72
25680,note_on,,1,0,5,,,,,,,,,,,,,,,,2,,61,72
25680,note_on,,1,0,10,,,,,,,,,,,,,,,,12,,69,72
25680,note_on,,1,0,9,,,,,,,,,,,,,,,,11,,76,72
25680,note_on,,1,0,6,,,,,,,,,,,,,,,,3,,76,64
25680,note_on,,1,0,8,,,,,,,,,,,,,,,,10,,76,72
25739,note_on,,59,0,5,,,,,,,,,,,,,,,,2,,61,0
25739,note_on,,59,0,12,,,,,,,,,,,,,,,,15,,61,0
25739,note_on,,59,0,11,,,,,,,,,,,,,,,,13,,61,0
25739,note_on,,59,0,9,,,,,,,,,,,,,,,,11,,76,0
25740,note_on,,1,0,11,,,,,,,,,,,,,,,,13,,59,72
25740,note_on,,1,0,12,,,,,,,,,,,,,,,,15,,59,72
25740,note_on,,1,0,5,,,,,,,,,,,,,,,,2,,59,72
25740,note_on,,1,0,9,,,,,,,,,,,,,,,,11,,74,72
25799,note_on,,59,0,12,,,,,,,,,,,,,,,,15,,59,0
25799,note_on,,59,0,11,,,,,,,,,,,,,,,,13,,59,0
25799,note_on,,59,0,9,,,,,,,,,,,,,,,,11,,74,0
25799,note_on,,59,0,5,,,,,,,,,,,,,,,,2,,59,0
25800,note_on,,1,0,11,,,,,,,,,,,,,,,,13,,57,72
25800,note_on,,1,0,9,,,,,,,,,,,,,,,,11,,73,72
25800,note_on,,1,0,5,,,,,,,,,,,,,,,,2,,57,72
25800,note_on,,1,0,12,,,,,,,,,,,,,,,,15,,57,72
25859,note_on,,59,0,11,,,,,,,,,,,,,,,,13,,57,0
25859,note_on,,59,0,9,,,,,,,,,,,,,,,,11,,73,0
25859,note_on,,59,0,5,,,,,,,,,,,,,,,,2,,57,0
25859,note_on,,59,0,12,,,,,,,,,,,,,,,,15,,57,0
25860,note_on,,1,0,9,,,,,,,,,,,,,,,,11,,76,72
25860,note_on,,1,0,5,,,,,,,,,,,,,,,,2,,61,72
25860,note_on,,1,0,12,,,,,,,,,,,,,,,,15,,61,72
25860,note_on,,1,0,11,,,,,,,,,,,,,,,,13,,61,72
25919,note_on,,239,0,6,,,,,,,,,,,,,,,,3,,76,0
25919,note_on,,59,0,12,,,,,,,,,,,,,,,,15,,61,0
25919,note_on,,239,0,10,,,,,,,,,,,,,,,,12,,69,0
25919,note_on,,59,0,9,,,,,,,,,,,,,,,,11,,76,0
25919,note_on,,59,0,11,,,,,,,,,,,,,,,,13,,61,0
25919,note_on,,59,0,5,,,,,,,,,,,,,,,,2,,61,0
25919,note_on,,239,0,8,,,,,,,,,,,,,,,,10,,76,0
25920,note_on,,1,0,9,,,,,,,,,,,,,,,,11,,74,72
25920,note_on,,1,0,12,,,,,,,,,,,,,,,,15,,59,72
25920,note_on,,1,0,6,,,,,,,,,,,,,,,,3,,81,64
25920,note_on,,1,0,11,,,,,,,,,,,,,,,,13,,59,72
25920,note_on,,1,0,5,,,,,,,,,,,,,,,,2,,59,72
25920,note_on,,1,0,10,,,,,,,,,,,,,,,,12,,64,72
25920,note_on,,1,0,8,,,,,,,,,,,,,,,,10,,81,72
25979,note_on,,59,0,5,,,,,,,,,,,,,,,,2,,59,0
25979,note_on,,59,0,9,,,,,,,,,,,,,,,,11,,74,0
25979,note_on,,59,0,12,,,,,,,,,,,,,,,,15,,59,0
25979,note_on,,59,0,11,,,,,,,,,,,,,,,,13,,59,0
25980,note_on,,1,0,5,,,,,,,,,,,,,,,,2,,57,72
25980,note_on,,1,0,12,,,,,,,,,,,,,,,,15,,57,72
25980,note_on,,1,0,11,,,,,,,,,,,,,,,,13,,57,72
25980,note_on,,1,0,9,,,,,,,,,,,,,,,,11,,73,72
26039,note_on,,59,0,11,,,,,,,,,,,,,,,,13,,57,0
26039,note_on,,0,0,12,,,,,,,,,,,,,,,,15,,69,0
26039,note_on,,59,0,9,,,,,,,,,,,,,,,,11,,73,0
26039,note_on,,119,0,10,,,,,,,,,,,,,,,,12,,64,0
26039,note_on,,59,0,12,,,,,,,,,,,,,,,,15,,64,0
26039,note_on,,119,0,8,,,,,,,,,,,,,,,,10,,81,0
26039,note_on,,119,0,6,,,,,,,,,,,,,,,,3,,81,0
26039,note_on,,0,0,12,,,,,,,,,,,,,,,,15,,57,0
26039,note_on,,59,0,5,,,,,,,,,,,,,,,,2,,57,0
26040,note_on,,1,0,5,,,,,,,,,,,,,,,,2,,59,72
26040,note_on,,1,0,10,,,,,,,,,,,,,,,,12,,62,72
26040,note_on,,1,0,9,,,,,,,,,,,,,,,,11,,71,72
26040,note_on,,1,0,6,,,,,,,,,,,,,,,,3,,80,64
26040,note_on,,0,0,12,,,,,,,,,,,,,,,,15,,74,72
26040,note_on,,0,0,12,,,,,,,,,,,,,,,,15,,59,72
26040,note_on,,0,0,12,,,,,,,,,,,,,,,,15,,68,72
26040,note_on,,1,0,12,,,,,,,,,,,,,,,,15,,62,72
26040,note_on,,1,0,11,,,,,,,,,,,,,,,,13,,59,72
26040,note_on,,1,0,8,,,,,,,,,,,,,,,,10,,80,72
26099,note_on,,59,0,6,,,,,,,,,,,,,,,,3,,80,0
26099,note_on,,59,0,8,,,,,,,,,,,,,,,,10,,80,0
26100,note_on,,1,0,6,,,,,,,,,,,,,,,,3,,78,64
26100,note_on,,1,0,8,,,,,,,,,,,,,,,,10,,78,72
26159,note_on,,59,0,6,,,,,,,,,,,,,,,,3,,78,0
26159,note_on,,59,0,8,,,,,,,,,,,,,,,,10,,78,0
26160,note_on,,1,0,8,,,,,,,,,,,,,,,,10,,76,72
26160,note_on,,1,0,6,,,,,,,,,,,,,,,,3,,76,64
26219,note_on,,59,0,8,,,,,,,,,,,,,,,,10,,76,0
26219,note_on,,59,0,6,,,,,,,,,,,,,,,,3,,76,0
26220,note_on,,1,0,6,,,,,,,,,,,,,,,,3,,80,64
26220,note_on,,1,0,8,,,,,,,,,,,,,,,,10,,80,72
26279,note_on,,59,0,6,,,,,,,,,,,,,,,,3,,80,0
26279,note_on,,239,0,5,,,,,,,,,,,,,,,,2,,59,0
26279,note_on,,59,0,8,,,,,,,,,,,,,,,,10,,80,0
26279,note_on,,239,0,10,,,,,,,,,,,,,,,,12,,62,0
26279,note_on,,239,0,9,,,,,,,,,,,,,,,,11,,71,0
26279,note_on,,0,0,12,,,,,,,,,,,,,,,,15,,74,0
26279,note_on,,0,0,12,,,,,,,,,,,,,,,,15,,59,0
26279,note_on,,0,0,12,,,,,,,,,,,,,,,,15,,68,0
26279,note_on,,239,0,12,,,,,,,,,,,,,,,,15,,62,0
26279,note_on,,239,0,11,,,,,,,,,,,,,,,,13,,59,0
26280,note_on,,1,0,10,,,,,,,,,,,,,,,,12,,62,72
26280,note_on,,1,0,11,,,,,,,,,,,,,,,,13,,62,72
26280,note_on,,0,0,12,,,,,,,,,,,,,,,,15,,62,72
26280,note_on,,1,0,5,,,,,,,,,,,,,,,,2,,62,72
26280,note_on,,0,0,12,,,,,,,,,,,,,,,,15,,68,72
26280,note_on,,1,0,6,,,,,,,,,,,,,,,,3,,78,64
26280,note_on,,1,0,12,,,,,,,,,,,,,,,,15,,71,72
26280,note_on,,1,0,9,,,,,,,,,,,,,,,,11,,71,72
26280,note_on,,1,0,8,,,,,,,,,,,,,,,,10,,78,72
26339,note_on,,59,0,6,,,,,,,,,,,,,,,,3,,78,0
26339,note_on,,59,0,8,,,,,,,,,,,,,,,,10,,78,0
26340,note_on,,1,0,8,,,,,,,,,,,,,,,,10,,76,72
26340,note_on,,1,0,6,,,,,,,,,,,,,,,,3,,76,64
26399,note_on,,0,0,12,,,,,,,,,,,,,,,,15,,68,0
26399,note_on,,0,0,12,,,,,,,,,,,,,,,,15,,62,0
26399,note_on,,119,0,12,,,,,,,,,,,,,,,,15,,71,0
26399,note_on,,119,0,11,,,,,,,,,,,,,,,,13,,62,0
26399,note_on,,59,0,8,,,,,,,,,,,,,,,,10,,76,0
26399,note_on,,119,0,10,,,,,,,,,,,,,,,,12,,62,0
26399,note_on,,59,0,6,,,,,,,,,,,,,,,,3,,76,0
26399,note_on,,119,0,9,,,,,,,,,,,,,,,,11,,71,0
26399,note_on,,119,0,5,,,,,,,,,,,,,,,,2,,62,0
26400,note_on,,1,0,8,,,,,,,,,,,,,,,,10,,81,72
26400,note_on,,1,0,12,,,,,,,,,,,,,,,,15,,61,72
26400,note_on,,1,0,6,,,,,,,,,,,,,,,,3,,81,64
26400,note_on,,0,0,12,,,,,,,,,,,,,,,,15,,69,72
26400,note_on,,0,0,12,,,,,,,,,,,,,,,,15,,64,72
26400,note_on,,1,0,5,,,,,,,,,,,,,,,,2,,61,72
26400,note_on,,1,0,9,,,,,,,,,,,,,,,,11,,69,72
26400,note_on,,1,0,10,,,,,,,,,,,,,,,,12,,64,72
26400,note_on,,1,0,11,,,,,,,,,,,,,,,,13,,61,72
26400,note_on,,0,0,12,,,,,,,,,,,,,,,,15,,76,72
26519,note_on,,119,0,5,,,,,,,,,,,,,,,,2,,61,0
26519,note_on,,119,0,8,,,,,,,,,,,,,,,,10,,81,0
26519,note_on,,119,0,9,,,,,,,,,,,,,,,,11,,69,0
26519,note_on,,119,0,6,,,,,,,,,,,,,,,,3,,81,0
26519,note_on,,119,0,10,,,,,,,,,,,,,,,,12,,64,0
26519,note_on,,119,0,11,,,,,,,,,,,,,,,,13,,61,0
26519,note_on,,0,0,12,,,,,,,,,,,,,,,,15,,69,0
26519,note_on,,0,0,12,,,,,,,,,,,,,,,,15,,76,0
26519,note_on,,0,0,12,,,,,,,,,,,,,,,,15,,64,0
26519,note_on,,119,0,12,,,,,,,,,,,,,,,,15,,61,0
26520,note_on,,1,0,8,,,,,,,,,,,,,,,,10,,86,72
26579,note_on,,59,0,8,,,,,,,,,,,,,,,,10,,86,0
26580,note_on,,1,0,8,,,,,,,,,,,,,,,,10,,83,72
26639,note_on,,59,0,8,,,,,,,,,,,,,,,,10,,83,0
26640,note_on,,121,0,10,,,,,,,,,,,,,,,,12,,62,72
26640,note_on,,121,0,11,,,,,,,,,,,,,,,,13,,59,72
26640,note_on,,121,0,9,,,,,,,,,,,,,,,,11,,71,72
26640,note_on,,0,0,12,,,,,,,,,,,,,,,,15,,62,72
26640,note_on,,121,0,12,,,,,,,,,,,,,,,,15,,59,72
26640,note_on,,0,0,12,,,,,,,,,,,,,,,,15,,71,72
26640,note_on,,121,0,5,,,,,,,,,,,,,,,,2,,59,72
26640,note_on,,1,0,8,,,,,,,,,,,,,,,,10,,81,72
26654,note_on,,14,0,8,,,,,,,,,,,,,,,,10,,81,0
26655,note_on,,1,0,8,,,,,,,,,,,,,,,,10,,83,72
26669,note_on,,14,0,8,,,,,,,,,,,,,,,,10,,83,0
26670,note_on,,1,0,8,,,,,,,,,,,,,,,,10,,81,72
26684,note_on,,14,0,8,,,,,,,,,,,,,,,,10,,81,0
26685,note_on,,1,0,8,,,,,,,,,,,,,,,,10,,83,72
26699,note_on,,14,0,8,,,,,,,,,,,,,,,,10,,83,0
26700,note_on,,1,0,8,,,,,,,,,,,,,,,,10,,80,72
26714,note_on,,14,0,8,,,,,,,,,,,,,,,,10,,80,0
26715,note_on,,1,0,8,,,,,,,,,,,,,,,,10,,81,72
26729,note_on,,14,0,8,,,,,,,,,,,,,,,,10,,81,0
26730,note_on,,1,0,8,,,,,,,,,,,,,,,,10,,80,72
26759,note_on,,119,0,9,,,,,,,,,,,,,,,,11,,71,0
26759,note_on,,0,0,12,,,,,,,,,,,,,,,,15,,62,0
26759,note_on,,0,0,12,,,,,,,,,,,,,,,,15,,71,0
26759,note_on,,119,0,5,,,,,,,,,,,,,,,,2,,59,0
26759,note_on,,119,0,10,,,,,,,,,,,,,,,,12,,62,0
26759,note_on,,119,0,12,,,,,,,,,,,,,,,,15,,59,0
26759,note_on,,29,0,8,,,,,,,,,,,,,,,,10,,80,0
26759,note_on,,119,0,11,,,,,,,,,,,,,,,,13,,59,0
26760,note_on,,1,0,11,,,,,,,,,,,,,,,,13,,61,72
26760,note_on,,0,0,12,,,,,,,,,,,,,,,,15,,64,72
26760,note_on,,1,0,5,,,,,,,,,,,,,,,,2,,61,72
26760,note_on,,0,0,12,,,,,,,,,,,,,,,,15,,69,72
26760,note_on,,241,0,6,,,,,,,,,,,,,,,,3,,81,64
26760,note_on,,1,0,9,,,,,,,,,,,,,,,,11,,69,72
26760,note_on,,1,0,10,,,,,,,,,,,,,,,,12,,64,72
26760,note_on,,1,0,12,,,,,,,,,,,,,,,,15,,76,72
26760,note_on,,0,0,12,,,,,,,,,,,,,,,,15,,61,72
26760,note_on,,1,0,8,,,,,,,,,,,,,,,,10,,81,72
26879,note_on,,119,0,10,,,,,,,,,,,,,,,,12,,64,0
26879,note_on,,119,0,5,,,,,,,,,,,,,,,,2,,61,0
26879,note_on,,119,0,6,,,,,,,,,,,,,,,,3,,81,0
26879,note_on,,0,0,12,,,,,,,,,,,,,,,,15,,61,0
26879,note_on,,119,0,11,,,,,,,,,,,,,,,,13,,61,0
26879,note_on,,0,0,12,,,,,,,,,,,,,,,,15,,64,0
26879,note_on,,0,0,12,,,,,,,,,,,,,,,,15,,69,0
26879,note_on,,119,0,12,,,,,,,,,,,,,,,,15,,76,0
26879,note_on,,119,0,9,,,,,,,,,,,,,,,,11,,69,0
26879,note_on,,119,0,8,,,,,,,,,,,,,,,,10,,81,0
26880,note_on,,1,0,8,,,,,,,,,,,,,,,,10,,86,72
26939,note_on,,59,0,8,,,,,,,,,,,,,,,,10,,86,0
26940,note_on,,1,0,8,,,,,,,,,,,,,,,,10,,83,72
26999,note_on,,59,0,8,,,,,,,,,,,,,,,,10,,83,0
27000,note_on,,121,0,12,,,,,,,,,,,,,,,,15,,59,72
27000,note_on,,0,0,12,,,,,,,,,,,,,,,,15,,62,72
27000,note_on,,0,0,12,,,,,,,,,,,,,,,,15,,71,72
27000,note_on,,1,0,8,,,,,,,,,,,,,,,,10,,81,72
27000,note_on,,121,0,9,,,,,,,,,,,,,,,,11,,71,72
27000,note_on,,121,0,5,,,,,,,,,,,,,,,,2,,59,72
27000,note_on,,121,0,10,,,,,,,,,,,,,,,,12,,62,72
27000,note_on,,121,0,11,,,,,,,,,,,,,,,,13,,59,72
27014,note_on,,14,0,8,,,,,,,,,,,,,,,,10,,81,0
27015,note_on,,1,0,8,,,,,,,,,,,,,,,,10,,83,72
27029,note_on,,14,0,8,,,,,,,,,,,,,,,,10,,83,0
27030,note_on,,1,0,8,,,,,,,,,,,,,,,,10,,81,72
27044,note_on,,14,0,8,,,,,,,,,,,,,,,,10,,81,0
27045,note_on,,1,0,8,,,,,,,,,,,,,,,,10,,83,72
27059,note_on,,14,0,8,,,,,,,,,,,,,,,,10,,83,0
27060,note_on,,1,0,8,,,,,,,,,,,,,,,,10,,80,72
27074,note_on,,14,0,8,,,,,,,,,,,,,,,,10,,80,0
27075,note_on,,1,0,8,,,,,,,,,,,,,,,,10,,81,72
27089,note_on,,14,0,8,,,,,,,,,,,,,,,,10,,81,0
27090,note_on,,1,0,8,,,,,,,,,,,,,,,,10,,80,72
27119,note_on,,0,0,12,,,,,,,,,,,,,,,,15,,71,0
27119,note_on,,119,0,5,,,,,,,,,,,,,,,,2,,59,0
27119,note_on,,119,0,10,,,,,,,,,,,,,,,,12,,62,0
27119,note_on,,29,0,8,,,,,,,,,,,,,,,,10,,80,0
27119,note_on,,119,0,9,,,,,,,,,,,,,,,,11,,71,0
27119,note_on,,119,0,11,,,,,,,,,,,,,,,,13,,59,0
27119,note_on,,119,0,12,,,,,,,,,,,,,,,,15,,59,0
27119,note_on,,0,0,12,,,,,,,,,,,,,,,,15,,62,0
27120,note_on,,1,0,8,,,,,,,,,,,,,,,,10,,81,72
27120,note_on,,1,0,11,,,,,,,,,,,,,,,,13,,61,72
27120,note_on,,1,0,12,,,,,,,,,,,,,,,,15,,69,72
27120,note_on,,1,0,9,,,,,,,,,,,,,,,,11,,69,72
27120,note_on,,0,0,12,,,,,,,,,,,,,,,,15,,61,72
27120,note_on,,0,0,12,,,,,,,,,,,,,,,,15,,76,72
27120,note_on,,1,0,5,,,,,,,,,,,,,,,,2,,61,72
27120,note_on,,1,0,10,,,,,,,,,,,,,,,,12,,64,72
27120,note_on,,241,0,6,,,,,,,,,,,,,,,,3,,81,64
27120,note_on,,0,0,12,,,,,,,,,,,,,,,,15,,64,72
27239,note_on,,119,0,8,,,,,,,,,,,,,,,,10,,81,0
27239,note_on,,119,0,10,,,,,,,,,,,,,,,,12,,64,0
27239,note_on,,119,0,5,,,,,,,,,,,,,,,,2,,61,0
27239,note_on,,119,0,9,,,,,,,,,,,,,,,,11,,69,0
27239,note_on,,119,0,6,,,,,,,,,,,,,,,,3,,81,0
27239,note_on,,119,0,11,,,,,,,,,,,,,,,,13,,61,0
27239,note_on,,0,0,12,,,,,,,,,,,,,,,,15,,61,0
27239,note_on,,0,0,12,,,,,,,,,,,,,,,,15,,64,0
27239,note_on,,119,0,12,,,,,,,,,,,,,,,,15,,69,0
27239,note_on,,0,0,12,,,,,,,,,,,,,,,,15,,76,0
27240,note_on,,1,0,8,,,,,,,,,,,,,,,,10,,86,72
27299,note_on,,59,0,8,,,,,,,,,,,,,,,,10,,86,0
27300,note_on,,1,0,8,,,,,,,,,,,,,,,,10,,83,72
27359,note_on,,59,0,8,,,,,,,,,,,,,,,,10,,83,0
27360,note_on,,121,0,5,,,,,,,,,,,,,,,,2,,59,72
27360,note_on,,121,0,11,,,,,,,,,,,,,,,,13,,59,72
27360,note_on,,121,0,12,,,,,,,,,,,,,,,,15,,62,72
27360,note_on,,0,0,12,,,,,,,,,,,,,,,,15,,59,72
27360,note_on,,0,0,12,,,,,,,,,,,,,,,,15,,71,72
27360,note_on,,121,0,10,,,,,,,,,,,,,,,,12,,62,72
27360,note_on,,1,0,8,,,,,,,,,,,,,,,,10,,81,72
27360,note_on,,121,0,9,,,,,,,,,,,,,,,,11,,71,72
27374,note_on,,14,0,8,,,,,,,,,,,,,,,,10,,81,0
27375,note_on,,1,0,8,,,,,,,,,,,,,,,,10,,83,72
27389,note_on,,14,0,8,,,,,,,,,,,,,,,,10,,83,0
27390,note_on,,1,0,8,,,,,,,,,,,,,,,,10,,81,72
27404,note_on,,14,0,8,,,,,,,,,,,,,,,,10,,81,0
27405,note_on,,1,0,8,,,,,,,,,,,,,,,,10,,83,72
27419,note_on,,14,0,8,,,,,,,,,,,,,,,,10,,83,0
27420,note_on,,1,0,8,,,,,,,,,,,,,,,,10,,80,72
27434,note_on,,14,0,8,,,,,,,,,,,,,,,,10,,80,0
27435,note_on,,1,0,8,,,,,,,,,,,,,,,,10,,81,72
27449,note_on,,14,0,8,,,,,,,,,,,,,,,,10,,81,0
27450,note_on,,1,0,8,,,,,,,,,,,,,,,,10,,80,72
27479,note_on,,119,0,11,,,,,,,,,,,,,,,,13,,59,0
27479,note_on,,119,0,10,,,,,,,,,,,,,,,,12,,62,0
27479,note_on,,119,0,9,,,,,,,,,,,,,,,,11,,71,0
27479,note_on,,119,0,12,,,,,,,,,,,,,,,,15,,62,0
27479,note_on,,0,0,12,,,,,,,,,,,,,,,,15,,59,0
27479,note_on,,0,0,12,,,,,,,,,,,,,,,,15,,71,0
27479,note_on,,119,0,5,,,,,,,,,,,,,,,,2,,59,0
27479,note_on,,29,0,8,,,,,,,,,,,,,,,,10,,80,0
27480,note_on,,1,0,10,,,,,,,,,,,,,,,,12,,64,72
27480,note_on,,1,0,8,,,,,,,,,,,,,,,,10,,81,72
27480,note_on,,1,0,5,,,,,,,,,,,,,,,,2,,61,72
27480,note_on,,1,0,9,,,,,,,,,,,,,,,,11,,69,72
27480,note_on,,1,0,11,,,,,,,,,,,,,,,,13,,61,72
27480,note_on,,241,0,6,,,,,,,,,,,,,,,,3,,81,64
27480,note_on,,0,0,12,,,,,,,,,,,,,,,,15,,69,72
27480,note_on,,0,0,12,,,,,,,,,,,,,,,,15,,61,72
27480,note_on,,0,0,12,,,,,,,,,,,,,,,,15,,76,72
27480,note_on,,1,0,12,,,,,,,,,,,,,,,,15,,64,72
27599,note_on,,119,0,10,,,,,,,,,,,,,,,,12,,64,0
27599,note_on,,0,0,12,,,,,,,,,,,,,,,,15,,61,0
27599,note_on,,0,0,12,,,,,,,,,,,,,,,,15,,76,0
27599,note_on,,119,0,9,,,,,,,,,,,,,,,,11,,69,0
27599,note_on,,119,0,5,,,,,,,,,,,,,,,,2,,61,0
27599,note_on,,119,0,12,,,,,,,,,,,,,,,,15,,64,0
27599,note_on,,119,0,6,,,,,,,,,,,,,,,,3,,81,0
27599,note_on,,119,0,8,,,,,,,,,,,,,,,,10,,81,0
27599,note_on,,0,0,12,,,,,,,,,,,,,,,,15,,69,0
27599,note_on,,119,0,11,,,,,,,,,,,,,,,,13,,61,0
27600,note_on,,1,0,8,,,,,,,,,,,,,,,,10,,86,72
27659,note_on,,59,0,8,,,,,,,,,,,,,,,,10,,86,0
27660,note_on,,1,0,8,,,,,,,,,,,,,,,,10,,83,72
27719,note_on,,59,0,8,,,,,,,,,,,,,,,,10,,83,0
27720,note_on,,121,0,12,,,,,,,,,,,,,,,,15,,62,72
27720,note_on,,0,0,12,,,,,,,,,,,,,,,,15,,71,72
27720,note_on,,0,0,12,,,,,,,,,,,,,,,,15,,59,72
27720,note_on,,121,0,5,,,,,,,,,,,,,,,,2,,59,72
27720,note_on,,121,0,9,,,,,,,,,,,,,,,,11,,71,72
27720,note_on,,121,0,11,,,,,,,,,,,,,,,,13,,59,72
27720,note_on,,121,0,10,,,,,,,,,,,,,,,,12,,62,72
27720,note_on,,1,0,8,,,,,,,,,,,,,,,,10,,81,72
27734,note_on,,14,0,8,,,,,,,,,,,,,,,,10,,81,0
27735,note_on,,1,0,8,,,,,,,,,,,,,,,,10,,83,72
27749,note_on,,14,0,8,,,,,,,,,,,,,,,,10,,83,0
27750,note_on,,1,0,8,,,,,,,,,,,,,,,,10,,81,72
27764,note_on,,14,0,8,,,,,,,,,,,,,,,,10,,81,0
27765,note_on,,1,0,8,,,,,,,,,,,,,,,,10,,83,72
27779,note_on,,14,0,8,,,,,,,,,,,,,,,,10,,83,0
27780,note_on,,1,0,8,,,,,,,,,,,,,,,,10,,80,72
27794,note_on,,14,0,8,,,,,,,,,,,,,,,,10,,80,0
27795,note_on,,1,0,8,,,,,,,,,,,,,,,,10,,81,72
27809,note_on,,14,0,8,,,,,,,,,,,,,,,,10,,81,0
27810,note_on,,1,0,8,,,,,,,,,,,,,,,,10,,80,72
27839,note_on,,119,0,10,,,,,,,,,,,,,,,,12,,62,0
27839,note_on,,119,0,5,,,,,,,,,,,,,,,,2,,59,0
27839,note_on,,119,0,12,,,,,,,,,,,,,,,,15,,62,0
27839,note_on,,0,0,12,,,,,,,,,,,,,,,,15,,71,0
27839,note_on,,0,0,12,,,,,,,,,,,,,,,,15,,59,0
27839,note_on,,119,0,11,,,,,,,,,,,,,,,,13,,59,0
27839,note_on,,119,0,9,,,,,,,,,,,,,,,,11,,71,0
27839,note_on,,29,0,8,,,,,,,,,,,,,,,,10,,80,0
27840,note_on,,0,0,12,,,,,,,,,,,,,,,,15,,64,72
27840,note_on,,1,0,9,,,,,,,,,,,,,,,,11,,69,72
27840,note_on,,1,0,10,,,,,,,,,,,,,,,,12,,64,72
27840,note_on,,0,0,12,,,,,,,,,,,,,,,,15,,69,72
27840,note_on,,0,0,12,,,,,,,,,,,,,,,,15,,76,72
27840,note_on,,1,0,8,,,,,,,,,,,,,,,,10,,81,72
27840,note_on,,1,0,5,,,,,,,,,,,,,,,,2,,61,72
27840,note_on,,241,0,6,,,,,,,,,,,,,,,,3,,81,64
27840,note_on,,1,0,11,,,,,,,,,,,,,,,,13,,61,72
27840,note_on,,1,0,12,,,,,,,,,,,,,,,,15,,61,72
27959,note_on,,119,0,12,,,,,,,,,,,,,,,,15,,61,0
27959,note_on,,0,0,12,,,,,,,,,,,,,,,,15,,69,0
27959,note_on,,0,0,12,,,,,,,,,,,,,,,,15,,76,0
27959,note_on,,0,0,12,,,,,,,,,,,,,,,,15,,64,0
27959,note_on,,119,0,8,,,,,,,,,,,,,,,,10,,81,0
27959,note_on,,119,0,11,,,,,,,,,,,,,,,,13,,61,0
27959,note_on,,119,0,10,,,,,,,,,,,,,,,,12,,64,0
27959,note_on,,119,0,9,,,,,,,,,,,,,,,,11,,69,0
27959,note_on,,119,0,5,,,,,,,,,,,,,,,,2,,61,0
27960,note_on,,1,0,5,,,,,,,,,,,,,,,,2,,57,72
27960,note_on,,1,0,11,,,,,,,,,,,,,,,,13,,57,72
27960,note_on,,1,0,12,,,,,,,,,,,,,,,,15,,69,72
27960,note_on,,0,0,12,,,,,,,,,,,,,,,,15,,57,72
27960,note_on,,0,0,12,,,,,,,,,,,,,,,,15,,64,72
27960,note_on,,0,0,12,,,,,,,,,,,,,,,,15,,73,72
28079,note_on,,119,0,11,,,,,,,,,,,,,,,,13,,57,0
28079,note_on,,119,0,12,,,,,,,,,,,,,,,,15,,69,0
28079,note_on,,0,0,12,,,,,,,,,,,,,,,,15,,64,0
28079,note_on,,0,0,12,,,,,,,,,,,,,,,,15,,73,0
28079,note_on,,0,0,12,,,,,,,,,,,,,,,,15,,57,0
28079,note_on,,119,0,5,,,,,,,,,,,,,,,,2,,57,0
28080,note_on,,0,0,12,,,,,,,,,,,,,,,,15,,69,48
28080,note_on,,1,0,11,,,,,,,,,,,,,,,,13,,57,48
28080,note_on,,1,0,5,,,,,,,,,,,,,,,,2,,57,48
28080,note_on,,1,0,12,,,,,,,,,,,,,,,,15,,57,48
28080,note_on,,0,0,12,,,,,,,,,,,,,,,,15,,73,48
28080,note_on,,3481,0,7,,,,,,,,,,,,,,,,8,,57,72
28080,note_on,,0,0,12,,,,,,,,,,,,,,,,15,,76,48
28199,note_on,,119,0,7,,,,,,,,,,,,,,,,8,,57,0
28199,note_on,,119,0,11,,,,,,,,,,,,,,,,13,,57,0
28199,note_on,,119,0,12,,,,,,,,,,,,,,,,15,,57,0
28199,note_on,,119,0,5,,,,,,,,,,,,,,,,2,,57,0
28199,note_on,,0,0,12,,,,,,,,,,,,,,,,15,,69,0
28199,note_on,,0,0,12,,,,,,,,,,,,,,,,15,,76,0
28199,note_on,,0,0,12,,,,,,,,,,,,,,,,15,,73,0
28200,note_on,,1,0,11,,,,,,,,,,,,,,,,13,,62,48
28200,note_on,,1,0,7,,,,,,,,,,,,,,,,8,,62,72
28200,note_on,,1,0,5,,,,,,,,,,,,,,,,2,,62,48
28200,note_on,,0,0,12,,,,,,,,,,,,,,,,15,,62,48
28200,note_on,,0,0,12,,,,,,,,,,,,,,,,15,,78,48
28200,note_on,,1,0,12,,,,,,,,,,,,,,,,15,,69,48
28200,note_on,,0,0,12,,,,,,,,,,,,,,,,15,,74,48
28319,note_on,,119,0,12,,,,,,,,,,,,,,,,15,,62,0
28319,note_on,,119,0,7,,,,,,,,,,,,,,,,8,,62,0
28319,note_on,,119,0,11,,,,,,,,,,,,,,,,13,,62,0
28319,note_on,,119,0,5,,,,,,,,,,,,,,,,2,,62,0
28320,note_on,,1,0,12,,,,,,,,,,,,,,,,15,,50,48
28320,note_on,,1,0,11,,,,,,,,,,,,,,,,13,,50,48
28320,note_on,,1,0,7,,,,,,,,,,,,,,,,8,,50,72
28320,note_on,,1,0,5,,,,,,,,,,,,,,,,2,,50,48
28379,note_on,,59,0,5,,,,,,,,,,,,,,,,2,,50,0
28379,note_on,,59,0,12,,,,,,,,,,,,,,,,15,,50,0
28379,note_on,,59,0,11,,,,,,,,,,,,,,,,13,,50,0
28379,note_on,,59,0,7,,,,,,,,,,,,,,,,8,,50,0
28380,note_on,,1,0,5,,,,,,,,,,,,,,,,2,,52,48
28380,note_on,,1,0,11,,,,,,,,,,,,,,,,13,,52,48
28380,note_on,,1,0,7,,,,,,,,,,,,,,,,8,,52,72
28380,note_on,,1,0,12,,,,,,,,,,,,,,,,15,,52,48
28439,note_on,,59,0,12,,,,,,,,,,,,,,,,15,,52,0
28439,note_on,,59,0,7,,,,,,,,,,,,,,,,8,,52,0
28439,note_on,,59,0,5,,,,,,,,,,,,,,,,2,,52,0
28439,note_on,,59,0,11,,,,,,,,,,,,,,,,13,,52,0
28440,note_on,,1,0,7,,,,,,,,,,,,,,,,8,,54,72
28440,note_on,,1,0,12,,,,,,,,,,,,,,,,15,,54,48
28440,note_on,,1,0,5,,,,,,,,,,,,,,,,2,,54,48
28440,note_on,,1,0,11,,,,,,,,,,,,,,,,13,,54,48
28499,note_on,,59,0,11,,,,,,,,,,,,,,,,13,,54,0
28499,note_on,,59,0,7,,,,,,,,,,,,,,,,8,,54,0
28499,note_on,,59,0,5,,,,,,,,,,,,,,,,2,,54,0
28499,note_on,,59,0,12,,,,,,,,,,,,,,,,15,,54,0
28500,note_on,,1,0,11,,,,,,,,,,,,,,,,13,,55,48
28500,note_on,,1,0,5,,,,,,,,,,,,,,,,2,,55,48
28500,note_on,,1,0,7,,,,,,,,,,,,,,,,8,,55,72
28500,note_on,,1,0,12,,,,,,,,,,,,,,,,15,,55,48
28559,note_on,,59,0,12,,,,,,,,,,,,,,,,15,,69,0
28559,note_on,,59,0,11,,,,,,,,,,,,,,,,13,,55,0
28559,note_on,,59,0,5,,,,,,,,,,,,,,,,2,,55,0
28559,note_on,,0,0,12,,,,,,,,,,,,,,,,15,,55,0
28559,note_on,,59,0,7,,,,,,,,,,,,,,,,8,,55,0
28559,note_on,,0,0,12,,,,,,,,,,,,,,,,15,,74,0
28559,note_on,,0,0,12,,,,,,,,,,,,,,,,15,,78,0
28560,note_on,,1,0,5,,,,,,,,,,,,,,,,2,,57,48
28560,note_on,,1,0,12,,,,,,,,,,,,,,,,15,,73,48
28560,note_on,,0,0,12,,,,,,,,,,,,,,,,15,,76,48
28560,note_on,,1,0,7,,,,,,,,,,,,,,,,8,,57,72
28560,note_on,,1,0,11,,,,,,,,,,,,,,,,13,,57,48
28560,note_on,,0,0,12,,,,,,,,,,,,,,,,15,,64,48
28560,note_on,,0,0,12,,,,,,,,,,,,,,,,15,,57,48
28560,note_on,,0,0,12,,,,,,,,,,,,,,,,15,,69,48
28799,note_on,,239,0,11,,,,,,,,,,,,,,,,13,,57,0
28799,note_on,,239,0,5,,,,,,,,,,,,,,,,2,,57,0
28799,note_on,,959,0,6,,,,,,,,,,,,,,,,3,,81,0
28799,note_on,,239,0,12,,,,,,,,,,,,,,,,15,,57,0
28800,note_on,,841,0,9,,,,,,,,,,,,,,,,11,,69,64
28800,note_on,,1,0,5,,,,,,,,,,,,,,,,2,,49,64
28800,note_on,,1,0,11,,,,,,,,,,,,,,,,13,,49,64
28800,note_on,,841,0,8,,,,,,,,,,,,,,,,10,,79,64
28800,note_on,,1,0,12,,,,,,,,,,,,,,,,15,,49,64
28800,note_on,,841,0,10,,,,,,,,,,,,,,,,12,,64,64
28800,note_on,,1,0,6,,,,,,,,,,,,,,,,3,,79,64
28919,note_on,,119,0,5,,,,,,,,,,,,,,,,2,,49,0
28919,note_on,,119,0,11,,,,,,,,,,,,,,,,13,,49,0
28919,note_on,,0,0,12,,,,,,,,,,,,,,,,15,,49,0
28919,note_on,,0,0,12,,,,,,,,,,,,,,,,15,,76,0
28919,note_on,,0,0,12,,,,,,,,,,,,,,,,15,,64,0
28919,note_on,,0,0,12,,,,,,,,,,,,,,,,15,,69,0
28919,note_on,,119,0,9,,,,,,,,,,,,,,,,11,,69,0
28919,note_on,,119,0,6,,,,,,,,,,,,,,,,3,,79,0
28919,note_on,,119,0,12,,,,,,,,,,,,,,,,15,,73,0
28919,note_on,,119,0,8,,,,,,,,,,,,,,,,10,,79,0
28919,note_on,,119,0,10,,,,,,,,,,,,,,,,12,,64,0
28920,note_on,,0,0,12,,,,,,,,,,,,,,,,15,,62,64
28920,note_on,,1,0,9,,,,,,,,,,,,,,,,11,,69,64
28920,note_on,,1,0,11,,,,,,,,,,,,,,,,13,,50,64
28920,note_on,,1,0,12,,,,,,,,,,,,,,,,15,,66,64
28920,note_on,,1,0,10,,,,,,,,,,,,,,,,12,,62,64
28920,note_on,,1,0,8,,,,,,,,,,,,,,,,10,,78,64
28920,note_on,,1,0,6,,,,,,,,,,,,,,,,3,,78,64
28920,note_on,,0,0,12,,,,,,,,,,,,,,,,15,,69,64
28920,note_on,,0,0,12,,,,,,,,,,,,,,,,15,,50,64
28920,note_on,,1,0,5,,,,,,,,,,,,,,,,2,,50,64
28979,note_on,,59,0,8,,,,,,,,,,,,,,,,10,,78,0
28979,note_on,,59,0,9,,,,,,,,,,,,,,,,11,,69,0
28979,note_on,,59,0,6,,,,,,,,,,,,,,,,3,,78,0
28980,note_on,,1,0,8,,,,,,,,,,,,,,,,10,,76,64
28980,note_on,,1,0,6,,,,,,,,,,,,,,,,3,,76,64
28980,note_on,,1,0,9,,,,,,,,,,,,,,,,11,,67,64
29039,note_on,,59,0,8,,,,,,,,,,,,,,,,10,,76,0
29039,note_on,,59,0,6,,,,,,,,,,,,,,,,3,,76,0
29039,note_on,,59,0,9,,,,,,,,,,,,,,,,11,,67,0
29040,note_on,,1,0,8,,,,,,,,,,,,,,,,10,,74,64
29040,note_on,,1,0,6,,,,,,,,,,,,,,,,3,,74,64
29040,note_on,,1,0,9,,,,,,,,,,,,,,,,11,,66,64
29099,note_on,,59,0,8,,,,,,,,,,,,,,,,10,,74,0
29099,note_on,,59,0,9,,,,,,,,,,,,,,,,11,,66,0
29099,note_on,,59,0,6,,,,,,,,,,,,,,,,3,,74,0
29100,note_on,,1,0,6,,,,,,,,,,,,,,,,3,,78,64
29100,note_on,,1,0,9,,,,,,,,,,,,,,,,11,,74,64
29100,note_on,,1,0,8,,,,,,,,,,,,,,,,10,,78,64
29159,note_on,,239,0,12,,,,,,,,,,,,,,,,15,,50,0
29159,note_on,,59,0,8,,,,,,,,,,,,,,,,10,,78,0
29159,note_on,,239,0,11,,,,,,,,,,,,,,,,13,,50,0
29159,note_on,,239,0,5,,,,,,,,,,,,,,,,2,,50,0
29159,note_on,,59,0,6,,,,,,,,,,,,,,,,3,,78,0
29159,note_on,,59,0,9,,,,,,,,,,,,,,,,11,,74,0
29159,note_on,,239,0,10,,,,,,,,,,,,,,,,12,,62,0
29160,note_on,,1,0,11,,,,,,,,,,,,,,,,13,,38,64
29160,note_on,,1,0,12,,,,,,,,,,,,,,,,15,,38,64
29160,note_on,,1,0,9,,,,,,,,,,,,,,,,11,,73,64
29160,note_on,,1,0,8,,,,,,,,,,,,,,,,10,,76,64
29160,note_on,,1,0,6,,,,,,,,,,,,,,,,3,,76,64
29160,note_on,,1,0,5,,,,,,,,,,,,,,,,2,,38,64
29160,note_on,,1,0,10,,,,,,,,,,,,,,,,12,,57,64
29219,note_on,,59,0,9,,,,,,,,,,,,,,,,11,,73,0
29219,note_on,,59,0,8,,,,,,,,,,,,,,,,10,,76,0
29219,note_on,,59,0,6,,,,,,,,,,,,,,,,3,,76,0
29220,note_on,,1,0,6,,,,,,,,,,,,,,,,3,,74,64
29220,note_on,,1,0,9,,,,,,,,,,,,,,,,11,,71,64
29220,note_on,,1,0,8,,,,,,,,,,,,,,,,10,,74,64
29279,note_on,,59,0,6,,,,,,,,,,,,,,,,3,,74,0
29279,note_on,,59,0,8,,,,,,,,,,,,,,,,10,,74,0
29279,note_on,,119,0,12,,,,,,,,,,,,,,,,15,,66,0
29279,note_on,,0,0,12,,,,,,,,,,,,,,,,15,,62,0
29279,note_on,,0,0,12,,,,,,,,,,,,,,,,15,,38,0
29279,note_on,,119,0,11,,,,,,,,,,,,,,,,13,,38,0
29279,note_on,,59,0,9,,,,,,,,,,,,,,,,11,,71,0
29279,note_on,,719,0,7,,,,,,,,,,,,,,,,8,,57,0
29279,note_on,,119,0,5,,,,,,,,,,,,,,,,2,,38,0
29279,note_on,,119,0,10,,,,,,,,,,,,,,,,12,,57,0
29280,note_on,,1,0,5,,,,,,,,,,,,,,,,2,,45,64
29280,note_on,,1,0,6,,,,,,,,,,,,,,,,3,,76,64
29280,note_on,,0,0,12,,,,,,,,,,,,,,,,15,,45,64
29280,note_on,,1,0,9,,,,,,,,,,,,,,,,11,,73,64
29280,note_on,,1,0,8,,,,,,,,,,,,,,,,10,,76,64
29280,note_on,,0,0,12,,,,,,,,,,,,,,,,15,,57,64
29280,note_on,,0,0,12,,,,,,,,,,,,,,,,15,,64,64
29280,note_on,,1,0,12,,,,,,,,,,,,,,,,15,,61,64
29280,note_on,,1,0,11,,,,,,,,,,,,,,,,13,,45,64
29280,note_on,,1,0,10,,,,,,,,,,,,,,,,12,,57,64
29399,note_on,,0,0,12,,,,,,,,,,,,,,,,15,,64,0
29399,note_on,,0,0,12,,,,,,,,,,,,,,,,15,,61,0
29399,note_on,,119,0,12,,,,,,,,,,,,,,,,15,,69,0
29399,note_on,,0,0,12,,,,,,,,,,,,,,,,15,,45,0
29399,note_on,,119,0,11,,,,,,,,,,,,,,,,13,,45,0
29399,note_on,,119,0,5,,,,,,,,,,,,,,,,2,,45,0
29399,note_on,,0,0,12,,,,,,,,,,,,,,,,15,,57,0
29400,note_on,,0,0,12,,,,,,,,,,,,,,,,15,,57,64
29400,note_on,,1,0,12,,,,,,,,,,,,,,,,15,,61,64
29400,note_on,,1,0,11,,,,,,,,,,,,,,,,13,,57,64
29400,note_on,,1,0,5,,,,,,,,,,,,,,,,2,,57,64
29400,note_on,,0,0,12,,,,,,,,,,,,,,,,15,,64,64
29519,note_on,,119,0,12,,,,,,,,,,,,,,,,15,,61,0
29519,note_on,,0,0,12,,,,,,,,,,,,,,,,15,,57,0
29519,note_on,,0,0,12,,,,,,,,,,,,,,,,15,,64,0
29519,note_on,,239,0,9,,,,,,,,,,,,,,,,11,,73,0
29519,note_on,,239,0,8,,,,,,,,,,,,,,,,10,,76,0
29519,note_on,,239,0,6,,,,,,,,,,,,,,,,3,,76,0
29519,note_on,,239,0,10,,,,,,,,,,,,,,,,12,,57,0
29519,note_on,,119,0,11,,,,,,,,,,,,,,,,13,,57,0
29519,note_on,,119,0,5,,,,,,,,,,,,,,,,2,,57,0
29520,note_on,,241,0,7,,,,,,,,,,,,,,,,8,,57,72
29520,note_on,,1,0,11,,,,,,,,,,,,,,,,13,,54,64
29520,note_on,,1,0,12,,,,,,,,,,,,,,,,15,,57,64
29520,note_on,,0,0,12,,,,,,,,,,,,,,,,15,,54,64
29520,note_on,,0,0,12,,,,,,,,,,,,,,,,15,,69,64
29520,note_on,,0,0,12,,,,,,,,,,,,,,,,15,,62,64
29520,note_on,,1,0,5,,,,,,,,,,,,,,,,2,,54,64
29639,note_on,,119,0,11,,,,,,,,,,,,,,,,13,,54,0
29639,note_on,,119,0,12,,,,,,,,,,,,,,,,15,,57,0
29639,note_on,,0,0,12,,,,,,,,,,,,,,,,15,,54,0
29639,note_on,,0,0,12,,,,,,,,,,,,,,,,15,,69,0
29639,note_on,,0,0,12,,,,,,,,,,,,,,,,15,,62,0
29639,note_on,,119,0,5,,,,,,,,,,,,,,,,2,,54,0
29639,note_on,,119,0,7,,,,,,,,,,,,,,,,8,,57,0
29640,note_on,,1,0,11,,,,,,,,,,,,,,,,13,,55,64
29640,note_on,,1,0,5,,,,,,,,,,,,,,,,2,,55,64
29640,note_on,,1,0,7,,,,,,,,,,,,,,,,8,,59,72
29640,note_on,,1,0,12,,,,,,,,,,,,,,,,15,,59,64
29640,note_on,,0,0,12,,,,,,,,,,,,,,,,15,,62,64
29640,note_on,,0,0,12,,,,,,,,,,,,,,,,15,,55,64
29759,note_on,,119,0,7,,,,,,,,,,,,,,,,8,,59,0
29760,note_on,,1,0,7,,,,,,,,,,,,,,,,8,,55,72
29819,note_on,,179,0,11,,,,,,,,,,,,,,,,13,,55,0
29819,note_on,,179,0,5,,,,,,,,,,,,,,,,2,,55,0
29819,note_on,,59,0,7,,,,,,,,,,,,,,,,8,,55,0
29819,note_on,,179,0,12,,,,,,,,,,,,,,,,15,,55,0
29820,note_on,,1,0,12,,,,,,,,,,,,,,,,15,,54,64
29820,note_on,,1,0,5,,,,,,,,,,,,,,,,2,,54,64
29820,note_on,,1,0,7,,,,,,,,,,,,,,,,8,,57,72
29820,note_on,,1,0,11,,,,,,,,,,,,,,,,13,,54,64
29820,note_on,,0,0,12,,,,,,,,,,,,,,,,15,,57,64
29879,note_on,,59,0,5,,,,,,,,,,,,,,,,2,,54,0
29879,note_on,,0,0,12,,,,,,,,,,,,,,,,15,,57,0
29879,note_on,,0,0,12,,,,,,,,,,,,,,,,15,,54,0
29879,note_on,,59,0,12,,,,,,,,,,,,,,,,15,,62,0
29879,note_on,,59,0,7,,,,,,,,,,,,,,,,8,,57,0
29879,note_on,,59,0,11,,,,,,,,,,,,,,,,13,,54,0
29880,note_on,,1,0,7,,,,,,,,,,,,,,,,8,,59,72
29880,note_on,,1,0,5,,,,,,,,,,,,,,,,2,,52,64
29880,note_on,,0,0,12,,,,,,,,,,,,,,,,15,,52,64
29880,note_on,,1,0,11,,,,,,,,,,,,,,,,13,,52,64
29880,note_on,,0,0,12,,,,,,,,,,,,,,,,15,,64,64
29880,note_on,,1,0,12,,,,,,,,,,,,,,,,15,,55,64
29939,note_on,,59,0,7,,,,,,,,,,,,,,,,8,,59,0
29940,note_on,,1,0,7,,,,,,,,,,,,,,,,8,,61,72
29999,note_on,,119,0,5,,,,,,,,,,,,,,,,2,,52,0
29999,note_on,,0,0,12,,,,,,,,,,,,,,,,15,,52,0
29999,note_on,,0,0,12,,,,,,,,,,,,,,,,15,,64,0
29999,note_on,,119,0,11,,,,,,,,,,,,,,,,13,,52,0
29999,note_on,,0,0,12,,,,,,,,,,,,,,,,15,,55,0
29999,note_on,,119,0,12,,,,,,,,,,,,,,,,15,,59,0
29999,note_on,,59,0,7,,,,,,,,,,,,,,,,8,,61,0
30000,note_on,,1,0,11,,,,,,,,,,,,,,,,13,,50,64
30000,note_on,,0,0,12,,,,,,,,,,,,,,,,15,,57,64
30000,note_on,,0,0,12,,,,,,,,,,,,,,,,15,,50,64
30000,note_on,,1,0,7,,,,,,,,,,,,,,,,8,,62,72
30000,note_on,,1,0,5,,,,,,,,,,,,,,,,2,,50,64
30000,note_on,,1,0,12,,,,,,,,,,,,,,,,15,,66,64
30000,note_on,,0,0,12,,,,,,,,,,,,,,,,15,,62,64
30239,note_on,,239,0,5,,,,,,,,,,,,,,,,2,,50,0
30239,note_on,,0,0,12,,,,,,,,,,,,,,,,15,,62,0
30239,note_on,,0,0,12,,,,,,,,,,,,,,,,15,,50,0
30239,note_on,,239,0,11,,,,,,,,,,,,,,,,13,,50,0
30239,note_on,,0,0,12,,,,,,,,,,,,,,,,15,,57,0
30239,note_on,,239,0,12,,,,,,,,,,,,,,,,15,,66,0
30240,note_on,,721,0,8,,,,,,,,,,,,,,,,10,,62,64
30240,note_on,,1,0,5,,,,,,,,,,,,,,,,2,,50,64
30240,note_on,,1,0,11,,,,,,,,,,,,,,,,13,,50,64
30240,note_on,,0,0,12,,,,,,,,,,,,,,,,15,,50,64
30240,note_on,,0,0,12,,,,,,,,,,,,,,,,15,,62,64
30240,note_on,,721,0,6,,,,,,,,,,,,,,,,3,,62,64
30240,note_on,,1,0,12,,,,,,,,,,,,,,,,15,,69,64
30240,note_on,,0,0,12,,,,,,,,,,,,,,,,15,,66,64
30240,note_on,,721,0,10,,,,,,,,,,,,,,,,12,,54,64
30240,note_on,,721,0,9,,,,,,,,,,,,,,,,11,,57,64
30329,note_on,,89,0,11,,,,,,,,,,,,,,,,13,,50,0
30329,note_on,,89,0,5,,,,,,,,,,,,,,,,2,,50,0
30329,note_on,,89,0,12,,,,,,,,,,,,,,,,15,,50,0
30329,note_on,,89,0,8,,,,,,,,,,,,,,,,10,,62,0
30329,note_on,,89,0,9,,,,,,,,,,,,,,,,11,,57,0
30329,note_on,,89,0,6,,,,,,,,,,,,,,,,3,,62,0
30329,note_on,,89,0,10,,,,,,,,,,,,,,,,12,,54,0
30330,note_on,,1,0,11,,,,,,,,,,,,,,,,13,,50,64
30330,note_on,,1,0,8,,,,,,,,,,,,,,,,10,,62,64
30330,note_on,,1,0,9,,,,,,,,,,,,,,,,11,,57,64
30330,note_on,,1,0,12,,,,,,,,,,,,,,,,15,,50,64
30330,note_on,,1,0,6,,,,,,,,,,,,,,,,3,,62,64
30330,note_on,,1,0,5,,,,,,,,,,,,,,,,2,,50,64
30330,note_on,,1,0,10,,,,,,,,,,,,,,,,12,,54,64
30359,note_on,,0,0,12,,,,,,,,,,,,,,,,15,,50,0
30359,note_on,,0,0,12,,,,,,,,,,,,,,,,15,,66,0
30359,note_on,,0,0,12,,,,,,,,,,,,,,,,15,,62,0
30359,note_on,,29,0,12,,,,,,,,,,,,,,,,15,,69,0
30359,note_on,,29,0,6,,,,,,,,,,,,,,,,3,,62,0
30359,note_on,,29,0,11,,,,,,,,,,,,,,,,13,,50,0
30359,note_on,,29,0,5,,,,,,,,,,,,,,,,2,,50,0
30359,note_on,,29,0,9,,,,,,,,,,,,,,,,11,,57,0
30359,note_on,,29,0,8,,,,,,,,,,,,,,,,10,,62,0
30359,note_on,,29,0,10,,,,,,,,,,,,,,,,12,,54,0
30360,note_on,,1,0,11,,,,,,,,,,,,,,,,13,,50,64
30360,note_on,,1,0,6,,,,,,,,,,,,,,,,3,,66,64
30360,note_on,,1,0,5,,,,,,,,,,,,,,,,2,,50,64
30360,note_on,,1,0,9,,,,,,,,,,,,,,,,11,,62,64
30360,note_on,,1,0,12,,,,,,,,,,,,,,,,15,,66,64
30360,note_on,,0,0,12,,,,,,,,,,,,,,,,15,,74,64
30360,note_on,,0,0,12,,,,,,,,,,,,,,,,15,,50,64
30360,note_on,,0,0,12,,,,,,,,,,,,,,,,15,,69,64
30360,note_on,,1,0,10,,,,,,,,,,,,,,,,12,,57,64
30360,note_on,,1,0,8,,,,,,,,,,,,,,,,10,,66,64
30539,note_on,,179,0,9,,,,,,,,,,,,,,,,11,,62,0
30539,note_on,,179,0,12,,,,,,,,,,,,,,,,15,,50,0
30539,note_on,,179,0,8,,,,,,,,,,,,,,,,10,,66,0
30539,note_on,,179,0,5,,,,,,,,,,,,,,,,2,,50,0
30539,note_on,,179,0,11,,,,,,,,,,,,,,,,13,,50,0
30539,note_on,,179,0,10,,,,,,,,,,,,,,,,12,,57,0
30539,note_on,,179,0,6,,,,,,,,,,,,,,,,3,,66,0
30540,note_on,,1,0,9,,,,,,,,,,,,,,,,11,,62,64
30540,note_on,,1,0,10,,,,,,,,,,,,,,,,12,,57,64
30540,note_on,,1,0,5,,,,,,,,,,,,,,,,2,,50,64
30540,note_on,,1,0,8,,,,,,,,,,,,,,,,10,,66,64
30540,note_on,,1,0,11,,,,,,,,,,,,,,,,13,,50,64
30540,note_on,,1,0,6,,,,,,,,,,,,,,,,3,,66,64
30540,note_on,,1,0,12,,,,,,,,,,,,,,,,15,,50,64
30599,note_on,,59,0,10,,,,,,,,,,,,,,,,12,,57,0
30599,note_on,,59,0,9,,,,,,,,,,,,,,,,11,,62,0
30599,note_on,,59,0,12,,,,,,,,,,,,,,,,15,,66,0
30599,note_on,,0,0,12,,,,,,,,,,,,,,,,15,,50,0
30599,note_on,,59,0,8,,,,,,,,,,,,,,,,10,,66,0
30599,note_on,,59,0,6,,,,,,,,,,,,,,,,3,,66,0
30599,note_on,,0,0,12,,,,,,,,,,,,,,,,15,,74,0
30599,note_on,,59,0,11,,,,,,,,,,,,,,,,13,,50,0
30599,note_on,,0,0,12,,,,,,,,,,,,,,,,15,,69,0
30599,note_on,,59,0,5,,,,,,,,,,,,,,,,2,,50,0
30600,note_on,,0,0,12,,,,,,,,,,,,,,,,15,,57,64
30600,note_on,,0,0,12,,,,,,,,,,,,,,,,15,,54,64
30600,note_on,,0,0,12,,,,,,,,,,,,,,,,15,,62,64
30600,note_on,,1,0,5,,,,,,,,,,,,,,,,2,,50,64
30600,note_on,,1,0,10,,,,,,,,,,,,,,,,12,,57,64
30600,note_on,,1,0,12,,,,,,,,,,,,,,,,15,,50,64
30600,note_on,,1,0,8,,,,,,,,,,,,,,,,10,,66,64
30600,note_on,,1,0,11,,,,,,,,,,,,,,,,13,,50,64
30600,note_on,,1,0,6,,,,,,,,,,,,,,,,3,,66,64
30600,note_on,,1,0,9,,,,,,,,,,,,,,,,11,,62,64
30689,note_on,,89,0,9,,,,,,,,,,,,,,,,11,,62,0
30689,note_on,,89,0,11,,,,,,,,,,,,,,,,13,,50,0
30689,note_on,,89,0,5,,,,,,,,,,,,,,,,2,,50,0
30689,note_on,,89,0,12,,,,,,,,,,,,,,,,15,,50,0
30689,note_on,,89,0,8,,,,,,,,,,,,,,,,10,,66,0
30689,note_on,,89,0,6,,,,,,,,,,,,,,,,3,,66,0
30689,note_on,,89,0,10,,,,,,,,,,,,,,,,12,,57,0
30690,note_on,,1,0,5,,,,,,,,,,,,,,,,2,,50,64
30690,note_on,,1,0,8,,,,,,,,,,,,,,,,10,,66,64
30690,note_on,,1,0,11,,,,,,,,,,,,,,,,13,,50,64
30690,note_on,,1,0,6,,,,,,,,,,,,,,,,3,,66,64
30690,note_on,,1,0,12,,,,,,,,,,,,,,,,15,,50,64
30690,note_on,,1,0,10,,,,,,,,,,,,,,,,12,,57,64
30690,note_on,,1,0,9,,,,,,,,,,,,,,,,11,,62,64
30719,note_on,,29,0,9,,,,,,,,,,,,,,,,11,,62,0
30719,note_on,,719,0,7,,,,,,,,,,,,,,,,8,,62,0
30719,note_on,,29,0,11,,,,,,,,,,,,,,,,13,,50,0
30719,note_on,,0,0,12,,,,,,,,,,,,,,,,15,,57,0
30719,note_on,,29,0,6,,,,,,,,,,,,,,,,3,,66,0
30719,note_on,,29,0,8,,,,,,,,,,,,,,,,10,,66,0
30719,note_on,,29,0,10,,,,,,,,,,,,,,,,12,,57,0
30719,note_on,,0,0,12,,,,,,,,,,,,,,,,15,,50,0
30719,note_on,,0,0,12,,,,,,,,,,,,,,,,15,,54,0
30719,note_on,,29,0,5,,,,,,,,,,,,,,,,2,,50,0
30719,note_on,,29,0,12,,,,,,,,,,,,,,,,15,,62,0
30720,note_on,,1,0,11,,,,,,,,,,,,,,,,13,,50,64
30720,note_on,,1,0,6,,,,,,,,,,,,,,,,3,,69,64
30720,note_on,,1,0,10,,,,,,,,,,,,,,,,12,,62,64
30720,note_on,,1,0,8,,,,,,,,,,,,,,,,10,,69,64
30720,note_on,,1,0,5,,,,,,,,,,,,,,,,2,,50,64
30720,note_on,,1,0,9,,,,,,,,,,,,,,,,11,,66,64
30720,note_on,,1,0,12,,,,,,,,,,,,,,,,15,,66,64
30720,note_on,,0,0,12,,,,,,,,,,,,,,,,15,,50,64
30720,note_on,,0,0,12,,,,,,,,,,,,,,,,15,,62,64
30720,note_on,,0,0,12,,,,,,,,,,,,,,,,15,,57,64
30839,note_on,,119,0,12,,,,,,,,,,,,,,,,15,,66,0
30839,note_on,,119,0,11,,,,,,,,,,,,,,,,13,,50,0
30839,note_on,,0,0,12,,,,,,,,,,,,,,,,15,,62,0
30839,note_on,,119,0,5,,,,,,,,,,,,,,,,2,,50,0
30839,note_on,,0,0,12,,,,,,,,,,,,,,,,15,,50,0
30839,note_on,,0,0,12,,,,,,,,,,,,,,,,15,,57,0
30840,note_on,,1,0,11,,,,,,,,,,,,,,,,13,,54,64
30840,note_on,,1,0,12,,,,,,,,,,,,,,,,15,,62,64
30840,note_on,,121,0,7,,,,,,,,,,,,,,,,8,,54,72
30840,note_on,,0,0,12,,,,,,,,,,,,,,,,15,,54,64
30840,note_on,,0,0,12,,,,,,,,,,,,,,,,15,,69,64
30840,note_on,,1,0,5,,,,,,,,,,,,,,,,2,,54,64
30899,note_on,,179,0,8,,,,,,,,,,,,,,,,10,,69,0
30899,note_on,,179,0,9,,,,,,,,,,,,,,,,11,,66,0
30899,note_on,,179,0,6,,,,,,,,,,,,,,,,3,,69,0
30899,note_on,,179,0,10,,,,,,,,,,,,,,,,12,,62,0
30900,note_on,,1,0,10,,,,,,,,,,,,,,,,12,,62,64
30900,note_on,,1,0,8,,,,,,,,,,,,,,,,10,,69,64
30900,note_on,,1,0,6,,,,,,,,,,,,,,,,3,,69,64
30900,note_on,,1,0,9,,,,,,,,,,,,,,,,11,,66,64
30959,note_on,,59,0,9,,,,,,,,,,,,,,,,11,,66,0
30959,note_on,,59,0,10,,,,,,,,,,,,,,,,12,,62,0
30959,note_on,,119,0,7,,,,,,,,,,,,,,,,8,,54,0
30959,note_on,,59,0,8,,,,,,,,,,,,,,,,10,,69,0
30959,note_on,,59,0,6,,,,,,,,,,,,,,,,3,,69,0
30959,note_on,,119,0,11,,,,,,,,,,,,,,,,13,,54,0
30959,note_on,,119,0,5,,,,,,,,,,,,,,,,2,,54,0
30959,note_on,,119,0,12,,,,,,,,,,,,,,,,15,,62,0
30959,note_on,,0,0,12,,,,,,,,,,,,,,,,15,,69,0
30959,note_on,,0,0,12,,,,,,,,,,,,,,,,15,,54,0
30960,note_on,,1,0,5,,,,,,,,,,,,,,,,2,,54,64
30960,note_on,,0,0,12,,,,,,,,,,,,,,,,15,,54,64
30960,note_on,,0,0,12,,,,,,,,,,,,,,,,15,,62,64
30960,note_on,,0,0,12,,,,,,,,,,,,,,,,15,,69,64
30960,note_on,,1,0,7,,,,,,,,,,,,,,,,8,,54,72
30960,note_on,,1,0,6,,,,,,,,,,,,,,,,3,,69,64
30960,note_on,,1,0,11,,,,,,,,,,,,,,,,13,,54,64
30960,note_on,,1,0,10,,,,,,,,,,,,,,,,12,,62,64
30960,note_on,,1,0,12,,,,,,,,,,,,,,,,15,,74,64
30960,note_on,,1,0,8,,,,,,,,,,,,,,,,10,,69,64
30960,note_on,,1,0,9,,,,,,,,,,,,,,,,11,,66,64
31049,note_on,,89,0,10,,,,,,,,,,,,,,,,12,,62,0
31049,note_on,,89,0,8,,,,,,,,,,,,,,,,10,,69,0
31049,note_on,,89,0,6,,,,,,,,,,,,,,,,3,,69,0
31049,note_on,,89,0,9,,,,,,,,,,,,,,,,11,,66,0
31050,note_on,,1,0,9,,,,,,,,,,,,,,,,11,,66,64
31050,note_on,,1,0,10,,,,,,,,,,,,,,,,12,,62,64
31050,note_on,,1,0,8,,,,,,,,,,,,,,,,10,,69,64
31050,note_on,,1,0,6,,,,,,,,,,,,,,,,3,,69,64
31079,note_on,,0,0,12,,,,,,,,,,,,,,,,15,,54,0
31079,note_on,,29,0,8,,,,,,,,,,,,,,,,10,,69,0
31079,note_on,,29,0,9,,,,,,,,,,,,,,,,11,,66,0
31079,note_on,,29,0,10,,,,,,,,,,,,,,,,12,,62,0
31079,note_on,,29,0,6,,,,,,,,,,,,,,,,3,,69,0
31079,note_on,,119,0,11,,,,,,,,,,,,,,,,13,,54,0
31079,note_on,,119,0,7,,,,,,,,,,,,,,,,8,,54,0
31079,note_on,,0,0,12,,,,,,,,,,,,,,,,15,,69,0
31079,note_on,,0,0,12,,,,,,,,,,,,,,,,15,,62,0
31079,note_on,,119,0,12,,,,,,,,,,,,,,,,15,,74,0
31079,note_on,,119,0,5,,,,,,,,,,,,,,,,2,,54,0
31080,note_on,,1,0,6,,,,,,,,,,,,,,,,3,,74,64
31080,note_on,,1,0,5,,,,,,,,,,,,,,,,2,,59,64
31080,note_on,,1,0,8,,,,,,,,,,,,,,,,10,,74,64
31080,note_on,,1,0,9,,,,,,,,,,,,,,,,11,,67,64
31080,note_on,,1,0,10,,,,,,,,,,,,,,,,12,,62,64
31080,note_on,,0,0,12,,,,,,,,,,,,,,,,15,,62,64
31080,note_on,,1,0,12,,,,,,,,,,,,,,,,15,,59,64
31080,note_on,,0,0,12,,,,,,,,,,,,,,,,15,,67,64
31080,note_on,,1,0,11,,,,,,,,,,,,,,,,13,,59,64
31080,note_on,,1,0,7,,,,,,,,,,,,,,,,8,,59,72
31199,note_on,,119,0,5,,,,,,,,,,,,,,,,2,,59,0
31199,note_on,,119,0,9,,,,,,,,,,,,,,,,11,,67,0
31199,note_on,,119,0,10,,,,,,,,,,,,,,,,12,,62,0
31199,note_on,,119,0,7,,,,,,,,,,,,,,,,8,,59,0
31199,note_on,,0,0,12,,,,,,,,,,,,,,,,15,,62,0
31199,note_on,,0,0,12,,,,,,,,,,,,,,,,15,,67,0
31199,note_on,,119,0,12,,,,,,,,,,,,,,,,15,,59,0
31199,note_on,,119,0,11,,,,,,,,,,,,,,,,13,,59,0
31200,note_on,,1,0,10,,,,,,,,,,,,,,,,12,,67,64
31200,note_on,,0,0,12,,,,,,,,,,,,,,,,15,,62,64
31200,note_on,,1,0,11,,,,,,,,,,,,,,,,13,,55,64
31200,note_on,,1,0,9,,,,,,,,,,,,,,,,11,,71,64
31200,note_on,,0,0,12,,,,,,,,,,,,,,,,15,,71,64
31200,note_on,,1,0,5,,,,,,,,,,,,,,,,2,,55,64
31200,note_on,,0,0,12,,,,,,,,,,,,,,,,15,,67,64
31200,note_on,,1,0,7,,,,,,,,,,,,,,,,8,,55,72
31200,note_on,,1,0,12,,,,,,,,,,,,,,,,15,,55,64
31259,note_on,,179,0,8,,,,,,,,,,,,,,,,10,,74,0
31259,note_on,,59,0,5,,,,,,,,,,,,,,,,2,,55,0
31259,note_on,,59,0,7,,,,,,,,,,,,,,,,8,,55,0
31259,note_on,,59,0,12,,,,,,,,,,,,,,,,15,,55,0
31259,note_on,,179,0,6,,,,,,,,,,,,,,,,3,,74,0
31259,note_on,,59,0,11,,,,,,,,,,,,,,,,13,,55,0
31260,note_on,,1,0,5,,,,,,,,,,,,,,,,2,,57,64
31260,note_on,,1,0,6,,,,,,,,,,,,,,,,3,,74,64
31260,note_on,,1,0,7,,,,,,,,,,,,,,,,8,,57,72
31260,note_on,,1,0,11,,,,,,,,,,,,,,,,13,,57,64
31260,note_on,,1,0,12,,,,,,,,,,,,,,,,15,,57,64
31260,note_on,,1,0,8,,,,,,,,,,,,,,,,10,,74,64
31319,note_on,,59,0,5,,,,,,,,,,,,,,,,2,,57,0
31319,note_on,,59,0,6,,,,,,,,,,,,,,,,3,,74,0
31319,note_on,,59,0,7,,,,,,,,,,,,,,,,8,,57,0
31319,note_on,,59,0,11,,,,,,,,,,,,,,,,13,,57,0
31319,note_on,,59,0,12,,,,,,,,,,,,,,,,15,,57,0
31319,note_on,,59,0,8,,,,,,,,,,,,,,,,10,,74,0
31320,note_on,,1,0,7,,,,,,,,,,,,,,,,8,,59,72
31320,note_on,,1,0,11,,,,,,,,,,,,,,,,13,,59,64
31320,note_on,,1,0,12,,,,,,,,,,,,,,,,15,,59,64
31320,note_on,,1,0,5,,,,,,,,,,,,,,,,2,,59,64
31320,note_on,,1,0,8,,,,,,,,,,,,,,,,10,,74,64
31320,note_on,,1,0,6,,,,,,,,,,,,,,,,3,,74,64
31379,note_on,,59,0,12,,,,,,,,,,,,,,,,15,,59,0
31379,note_on,,59,0,7,,,,,,,,,,,,,,,,8,,59,0
31379,note_on,,179,0,9,,,,,,,,,,,,,,,,11,,71,0
31379,note_on,,59,0,11,,,,,,,,,,,,,,,,13,,59,0
31379,note_on,,179,0,10,,,,,,,,,,,,,,,,12,,67,0
31379,note_on,,59,0,5,,,,,,,,,,,,,,,,2,,59,0
31380,note_on,,1,0,11,,,,,,,,,,,,,,,,13,,61,64
31380,note_on,,1,0,7,,,,,,,,,,,,,,,,8,,61,72
31380,note_on,,1,0,12,,,,,,,,,,,,,,,,15,,61,64
31380,note_on,,1,0,5,,,,,,,,,,,,,,,,2,,61,64
31380,note_on,,1,0,9,,,,,,,,,,,,,,,,11,,71,64
31380,note_on,,1,0,10,,,,,,,,,,,,,,,,12,,67,64
31409,note_on,,89,0,6,,,,,,,,,,,,,,,,3,,74,0
31409,note_on,,89,0,8,,,,,,,,,,,,,,,,10,,74,0
31410,note_on,,1,0,6,,,,,,,,,,,,,,,,3,,74,64
31410,note_on,,1,0,8,,,,,,,,,,,,,,,,10,,74,64
31439,note_on,,59,0,9,,,,,,,,,,,,,,,,11,,71,0
31439,note_on,,59,0,10,,,,,,,,,,,,,,,,12,,67,0
31439,note_on,,59,0,11,,,,,,,,,,,,,,,,13,,61,0
31439,note_on,,29,0,6,,,,,,,,,,,,,,,,3,,74,0
31439,note_on,,59,0,7,,,,,,,,,,,,,,,,8,,61,0
31439,note_on,,0,0,12,,,,,,,,,,,,,,,,15,,61,0
31439,note_on,,0,0,12,,,,,,,,,,,,,,,,15,,67,0
31439,note_on,,0,0,12,,,,,,,,,,,,,,,,15,,62,0
31439,note_on,,59,0,12,,,,,,,,,,,,,,,,15,,71,0
31439,note_on,,59,0,5,,,,,,,,,,,,,,,,2,,61,0
31439,note_on,,29,0,8,,,,,,,,,,,,,,,,10,,74,0
31440,note_on,,1,0,12,,,,,,,,,,,,,,,,15,,69,64
31440,note_on,,1,0,6,,,,,,,,,,,,,,,,3,,78,64
31440,note_on,,0,0,12,,,,,,,,,,,,,,,,15,,66,64
31440,note_on,,0,0,12,,,,,,,,,,,,,,,,15,,62,64
31440,note_on,,1,0,10,,,,,,,,,,,,,,,,12,,66,64
31440,note_on,,1,0,11,,,,,,,,,,,,,,,,13,,62,64
31440,note_on,,1,0,5,,,,,,,,,,,,,,,,2,,62,64
31440,note_on,,1,0,8,,,,,,,,,,,,,,,,10,,78,64
31440,note_on,,1,0,7,,,,,,,,,,,,,,,,8,,62,72
31440,note_on,,1,0,9,,,,,,,,,,,,,,,,11,,69,64
31619,note_on,,179,0,10,,,,,,,,,,,,,,,,12,,66,0
31619,note_on,,179,0,9,,,,,,,,,,,,,,,,11,,69,0
31619,note_on,,179,0,5,,,,,,,,,,,,,,,,2,,62,0
31619,note_on,,179,0,11,,,,,,,,,,,,,,,,13,,62,0
31619,note_on,,179,0,6,,,,,,,,,,,,,,,,3,,78,0
31619,note_on,,179,0,8,,,,,,,,,,,,,,,,10,,78,0
31620,note_on,,1,0,9,,,,,,,,,,,,,,,,11,,69,64
31620,note_on,,1,0,11,,,,,,,,,,,,,,,,13,,50,64
31620,note_on,,1,0,10,,,,,,,,,,,,,,,,12,,66,64
31620,note_on,,1,0,6,,,,,,,,,,,,,,,,3,,78,64
31620,note_on,,180,0,12,,,,,,,,,,,,,,,,15,,50,64
31620,note_on,,1,0,8,,,,,,,,,,,,,,,,10,,78,64
31620,note_on,,1,0,5,,,,,,,,,,,,,,,,2,,50,64
31679,note_on,,59,0,11,,,,,,,,,,,,,,,,13,,50,0
31679,note_on,,59,0,8,,,,,,,,,,,,,,,,10,,78,0
31679,note_on,,59,0,9,,,,,,,,,,,,,,,,11,,69,0
31679,note_on,,0,0,12,,,,,,,,,,,,,,,,15,,50,0
31679,note_on,,59,0,6,,,,,,,,,,,,,,,,3,,78,0
31679,note_on,,59,0,10,,,,,,,,,,,,,,,,12,,66,0
31679,note_on,,0,0,12,,,,,,,,,,,,,,,,15,,66,0
31679,note_on,,0,0,12,,,,,,,,,,,,,,,,15,,62,0
31679,note_on,,59,0,12,,,,,,,,,,,,,,,,15,,69,0
31679,note_on,,59,0,5,,,,,,,,,,,,,,,,2,,50,0
31680,note_on,,0,0,12,,,,,,,,,,,,,,,,15,,50,64
31680,note_on,,1,0,11,,,,,,,,,,,,,,,,13,,50,64
31680,note_on,,1,0,10,,,,,,,,,,,,,,,,12,,66,64
31680,note_on,,0,0,12,,,,,,,,,,,,,,,,15,,66,64
31680,note_on,,1,0,5,,,,,,,,,,,,,,,,2,,50,64
31680,note_on,,1,0,8,,,,,,,,,,,,,,,,10,,78,64
31680,note_on,,1,0,9,,,,,,,,,,,,,,,,11,,69,64
31680,note_on,,1,0,12,,,,,,,,,,,,,,,,15,,74,64
31680,note_on,,0,0,12,,,,,,,,,,,,,,,,15,,69,64
31680,note_on,,1,0,6,,,,,,,,,,,,,,,,3,,78,64
31769,note_on,,89,0,6,,,,,,,,,,,,,,,,3,,78,0
31769,note_on,,89,0,9,,,,,,,,,,,,,,,,11,,69,0
31769,note_on,,89,0,12,,,,,,,,,,,,,,,,15,,50,0
31769,note_on,,89,0,11,,,,,,,,,,,,,,,,13,,50,0
31769,note_on,,89,0,10,,,,,,,,,,,,,,,,12,,66,0
31769,note_on,,89,0,8,,,,,,,,,,,,,,,,10,,78,0
31769,note_on,,89,0,5,,,,,,,,,,,,,,,,2,,50,0
31770,note_on,,1,0,8,,,,,,,,,,,,,,,,10,,78,64
31770,note_on,,1,0,10,,,,,,,,,,,,,,,,12,,66,64
31770,note_on,,1,0,6,,,,,,,,,,,,,,,,3,,78,64
31770,note_on,,1,0,11,,,,,,,,,,,,,,,,13,,50,64
31770,note_on,,1,0,9,,,,,,,,,,,,,,,,11,,69,64
31770,note_on,,1,0,5,,,,,,,,,,,,,,,,2,,50,64
31770,note_on,,1,0,12,,,,,,,,,,,,,,,,15,,50,64
31799,note_on,,29,0,6,,,,,,,,,,,,,,,,3,,78,0
31799,note_on,,29,0,8,,,,,,,,,,,,,,,,10,,78,0
31799,note_on,,29,0,10,,,,,,,,,,,,,,,,12,,66,0
31799,note_on,,29,0,9,,,,,,,,,,,,,,,,11,,69,0
31799,note_on,,29,0,5,,,,,,,,,,,,,,,,2,,50,0
31799,note_on,,29,0,12,,,,,,,,,,,,,,,,15,,74,0
31799,note_on,,0,0,12,,,,,,,,,,,,,,,,15,,66,0
31799,note_on,,29,0,11,,,,,,,,,,,,,,,,13,,50,0
31799,note_on,,0,0,12,,,,,,,,,,,,,,,,15,,50,0
31799,note_on,,0,0,12,,,,,,,,,,,,,,,,15,,69,0
31800,note_on,,0,0,12,,,,,,,,,,,,,,,,15,,50,64
31800,note_on,,1,0,11,,,,,,,,,,,,,,,,13,,50,64
31800,note_on,,1,0,6,,,,,,,,,,,,,,,,3,,81,64
31800,note_on,,0,0,12,,,,,,,,,,,,,,,,15,,69,64
31800,note_on,,1,0,8,,,,,,,,,,,,,,,,10,,81,64
31800,note_on,,1,0,10,,,,,,,,,,,,,,,,12,,66,64
31800,note_on,,1,0,9,,,,,,,,,,,,,,,,11,,66,64
31800,note_on,,0,0,12,,,,,,,,,,,,,,,,15,,74,64
31800,note_on,,1,0,5,,,,,,,,,,,,,,,,2,,50,64
31800,note_on,,1,0,12,,,,,,,,,,,,,,,,15,,78,64
31979,note_on,,179,0,10,,,,,,,,,,,,,,,,12,,66,0
31979,note_on,,179,0,5,,,,,,,,,,,,,,,,2,,50,0
31979,note_on,,179,0,11,,,,,,,,,,,,,,,,13,,50,0
31979,note_on,,179,0,8,,,,,,,,,,,,,,,,10,,81,0
31979,note_on,,179,0,9,,,,,,,,,,,,,,,,11,,66,0
31979,note_on,,179,0,6,,,,,,,,,,,,,,,,3,,81,0
31979,note_on,,179,0,12,,,,,,,,,,,,,,,,15,,50,0
31980,note_on,,1,0,9,,,,,,,,,,,,,,,,11,,66,64
31980,note_on,,1,0,10,,,,,,,,,,,,,,,,12,,66,64
31980,note_on,,1,0,5,,,,,,,,,,,,,,,,2,,50,64
31980,note_on,,1,0,11,,,,,,,,,,,,,,,,13,,50,64
31980,note_on,,1,0,8,,,,,,,,,,,,,,,,10,,81,64
31980,note_on,,1,0,6,,,,,,,,,,,,,,,,3,,81,64
31980,note_on,,1,0,12,,,,,,,,,,,,,,,,15,,50,64
32039,note_on,,0,0,12,,,,,,,,,,,,,,,,15,,69,0
32039,note_on,,59,0,10,,,,,,,,,,,,,,,,12,,66,0
32039,note_on,,59,0,6,,,,,,,,,,,,,,,,3,,81,0
32039,note_on,,0,0,12,,,,,,,,,,,,,,,,15,,74,0
32039,note_on,,59,0,5,,,,,,,,,,,,,,,,2,,50,0
32039,note_on,,59,0,8,,,,,,,,,,,,,,,,10,,81,0
32039,note_on,,0,0,12,,,,,,,,,,,,,,,,15,,50,0
32039,note_on,,59,0,9,,,,,,,,,,,,,,,,11,,66,0
32039,note_on,,59,0,12,,,,,,,,,,,,,,,,15,,78,0
32039,note_on,,59,0,11,,,,,,,,,,,,,,,,13,,50,0
32040,note_on,,1,0,8,,,,,,,,,,,,,,,,10,,81,64
32040,note_on,,1,0,6,,,,,,,,,,,,,,,,3,,81,64
32040,note_on,,1,0,5,,,,,,,,,,,,,,,,2,,50,64
32040,note_on,,1,0,10,,,,,,,,,,,,,,,,12,,66,64
32040,note_on,,0,0,12,,,,,,,,,,,,,,,,15,,66,64
32040,note_on,,0,0,12,,,,,,,,,,,,,,,,15,,50,64
32040,note_on,,0,0,12,,,,,,,,,,,,,,,,15,,69,64
32040,note_on,,1,0,12,,,,,,,,,,,,,,,,15,,62,64
32040,note_on,,1,0,9,,,,,,,,,,,,,,,,11,,66,64
32040,note_on,,1,0,11,,,,,,,,,,,,,,,,13,,50,64
32129,note_on,,89,0,6,,,,,,,,,,,,,,,,3,,81,0
32129,note_on,,89,0,12,,,,,,,,,,,,,,,,15,,50,0
32129,note_on,,89,0,5,,,,,,,,,,,,,,,,2,,50,0
32129,note_on,,89,0,8,,,,,,,,,,,,,,,,10,,81,0
32129,note_on,,89,0,10,,,,,,,,,,,,,,,,12,,66,0
32129,note_on,,89,0,9,,,,,,,,,,,,,,,,11,,66,0
32129,note_on,,89,0,11,,,,,,,,,,,,,,,,13,,50,0
32130,note_on,,1,0,10,,,,,,,,,,,,,,,,12,,66,64
32130,note_on,,1,0,5,,,,,,,,,,,,,,,,2,,50,64
32130,note_on,,1,0,11,,,,,,,,,,,,,,,,13,,50,64
32130,note_on,,1,0,12,,,,,,,,,,,,,,,,15,,50,64
32130,note_on,,1,0,6,,,,,,,,,,,,,,,,3,,81,64
32130,note_on,,1,0,8,,,,,,,,,,,,,,,,10,,81,64
32130,note_on,,1,0,9,,,,,,,,,,,,,,,,11,,66,64
32159,note_on,,0,0,12,,,,,,,,,,,,,,,,15,,69,0
32159,note_on,,29,0,12,,,,,,,,,,,,,,,,15,,62,0
32159,note_on,,29,0,9,,,,,,,,,,,,,,,,11,,66,0
32159,note_on,,29,0,11,,,,,,,,,,,,,,,,13,,50,0
32159,note_on,,0,0,12,,,,,,,,,,,,,,,,15,,66,0
32159,note_on,,29,0,8,,,,,,,,,,,,,,,,10,,81,0
32159,note_on,,29,0,6,,,,,,,,,,,,,,,,3,,81,0
32159,note_on,,29,0,5,,,,,,,,,,,,,,,,2,,50,0
32159,note_on,,29,0,10,,,,,,,,,,,,,,,,12,,66,0
32159,note_on,,0,0,12,,,,,,,,,,,,,,,,15,,50,0
32160,note_on,,1,0,9,,,,,,,,,,,,,,,,11,,69,64
32160,note_on,,1,0,5,,,,,,,,,,,,,,,,2,,50,64
32160,note_on,,1,0,8,,,,,,,,,,,,,,,,10,,86,64
32160,note_on,,0,0,12,,,,,,,,,,,,,,,,15,,74,64
32160,note_on,,1,0,6,,,,,,,,,,,,,,,,3,,78,64
32160,note_on,,1,0,11,,,,,,,,,,,,,,,,13,,50,64
32160,note_on,,1,0,10,,,,,,,,,,,,,,,,12,,66,64
32160,note_on,,1,0,12,,,,,,,,,,,,,,,,15,,50,64
32160,note_on,,0,0,12,,,,,,,,,,,,,,,,15,,66,64
32160,note_on,,0,0,12,,,,,,,,,,,,,,,,15,,69,64
32279,note_on,,119,0,9,,,,,,,,,,,,,,,,11,,69,0
32279,note_on,,0,0,12,,,,,,,,,,,,,,,,15,,66,0
32279,note_on,,0,0,12,,,,,,,,,,,,,,,,15,,69,0
32279,note_on,,0,0,12,,,,,,,,,,,,,,,,15,,74,0
32279,note_on,,119,0,12,,,,,,,,,,,,,,,,15,,50,0
32279,note_on,,119,0,8,,,,,,,,,,,,,,,,10,,86,0
32279,note_on,,119,0,5,,,,,,,,,,,,,,,,2,,50,0
32279,note_on,,119,0,6,,,,,,,,,,,,,,,,3,,78,0
32279,note_on,,119,0,10,,,,,,,,,,,,,,,,12,,66,0
32279,note_on,,119,0,11,,,,,,,,,,,,,,,,13,,50,0
32280,note_on,,1,0,6,,,,,,,,,,,,,,,,3,,74,64
32339,note_on,,59,0,6,,,,,,,,,,,,,,,,3,,74,0
32340,note_on,,61,0,8,,,,,,,,,,,,,,,,10,,81,64
32340,note_on,,61,0,5,,,,,,,,,,,,,,,,2,,54,64
32340,note_on,,61,0,11,,,,,,,,,,,,,,,,13,,54,64
32340,note_on,,61,0,12,,,,,,,,,,,,,,,,15,,54,64
32399,note_on,,59,0,8,,,,,,,,,,,,,,,,10,,81,0
32399,note_on,,59,0,5,,,,,,,,,,,,,,,,2,,54,0
32399,note_on,,59,0,12,,,,,,,,,,,,,,,,15,,54,0
32399,note_on,,59,0,11,,,,,,,,,,,,,,,,13,,54,0
32400,note_on,,1,0,12,,,,,,,,,,,,,,,,15,,52,64
32400,note_on,,1,0,5,,,,,,,,,,,,,,,,2,,52,64
32400,note_on,,1,0,8,,,,,,,,,,,,,,,,10,,79,64
32400,note_on,,1,0,11,,,,,,,,,,,,,,,,13,,52,64
32459,note_on,,59,0,12,,,,,,,,,,,,,,,,15,,52,0
32459,note_on,,59,0,5,,,,,,,,,,,,,,,,2,,52,0
32459,note_on,,59,0,8,,,,,,,,,,,,,,,,10,,79,0
32459,note_on,,59,0,11,,,,,,,,,,,,,,,,13,,52,0
32460,note_on,,181,0,10,,,,,,,,,,,,,,,,12,,66,64
32460,note_on,,0,0,12,,,,,,,,,,,,,,,,15,,74,64
32460,note_on,,0,0,12,,,,,,,,,,,,,,,,15,,69,64
32460,note_on,,1,0,12,,,,,,,,,,,,,,,,15,,62,64
32460,note_on,,1,0,11,,,,,,,,,,,,,,,,13,,54,64
32460,note_on,,1,0,8,,,,,,,,,,,,,,,,10,,81,64
32460,note_on,,0,0,12,,,,,,,,,,,,,,,,15,,54,64
32460,note_on,,1,0,5,,,,,,,,,,,,,,,,2,,54,64
32460,note_on,,181,0,9,,,,,,,,,,,,,,,,11,,74,64
32519,note_on,,1079,0,7,,,,,,,,,,,,,,,,8,,62,0
32519,note_on,,59,0,5,,,,,,,,,,,,,,,,2,,54,0
32519,note_on,,59,0,10,,,,,,,,,,,,,,,,12,,66,0
32519,note_on,,59,0,12,,,,,,,,,,,,,,,,15,,62,0
32519,note_on,,0,0,12,,,,,,,,,,,,,,,,15,,69,0
32519,note_on,,0,0,12,,,,,,,,,,,,,,,,15,,54,0
32519,note_on,,0,0,12,,,,,,,,,,,,,,,,15,,74,0
32519,note_on,,59,0,9,,,,,,,,,,,,,,,,11,,74,0
32519,note_on,,59,0,8,,,,,,,,,,,,,,,,10,,81,0
32519,note_on,,59,0,11,,,,,,,,,,,,,,,,13,,54,0
32520,note_on,,1,0,5,,,,,,,,,,,,,,,,2,,55,64
32520,note_on,,1,0,9,,,,,,,,,,,,,,,,11,,67,64
32520,note_on,,1,0,8,,,,,,,,,,,,,,,,10,,83,64
32520,note_on,,0,0,12,,,,,,,,,,,,,,,,15,,62,64
32520,note_on,,1,0,12,,,,,,,,,,,,,,,,15,,71,64
32520,note_on,,0,0,12,,,,,,,,,,,,,,,,15,,55,64
32520,note_on,,0,0,12,,,,,,,,,,,,,,,,15,,67,64
32520,note_on,,1,0,10,,,,,,,,,,,,,,,,12,,62,64
32520,note_on,,1,0,11,,,,,,,,,,,,,,,,13,,55,64
32579,note_on,,59,0,8,,,,,,,,,,,,,,,,10,,83,0
32579,note_on,,59,0,10,,,,,,,,,,,,,,,,12,,62,0
32580,note_on,,1,0,10,,,,,,,,,,,,,,,,12,,64,64
32580,note_on,,1,0,8,,,,,,,,,,,,,,,,10,,85,64
32639,note_on,,59,0,10,,,,,,,,,,,,,,,,12,,64,0
32639,note_on,,119,0,11,,,,,,,,,,,,,,,,13,,55,0
32639,note_on,,119,0,5,,,,,,,,,,,,,,,,2,,55,0
32639,note_on,,0,0,12,,,,,,,,,,,,,,,,15,,55,0
32639,note_on,,119,0,9,,,,,,,,,,,,,,,,11,,67,0
32639,note_on,,59,0,8,,,,,,,,,,,,,,,,10,,85,0
32639,note_on,,119,0,12,,,,,,,,,,,,,,,,15,,71,0
32639,note_on,,0,0,12,,,,,,,,,,,,,,,,15,,67,0
32639,note_on,,0,0,12,,,,,,,,,,,,,,,,15,,62,0
32640,note_on,,1,0,5,,,,,,,,,,,,,,,,2,,54,64
32640,note_on,,1,0,8,,,,,,,,,,,,,,,,10,,86,64
32640,note_on,,1,0,10,,,,,,,,,,,,,,,,12,,66,64
32640,note_on,,1,0,11,,,,,,,,,,,,,,,,13,,54,64
32640,note_on,,1,0,9,,,,,,,,,,,,,,,,11,,69,64
32640,note_on,,1,0,12,,,,,,,,,,,,,,,,15,,69,64
32640,note_on,,0,0,12,,,,,,,,,,,,,,,,15,,54,64
32640,note_on,,0,0,12,,,,,,,,,,,,,,,,15,,62,64
32759,note_on,,119,0,12,,,,,,,,,,,,,,,,15,,69,0
32759,note_on,,0,0,12,,,,,,,,,,,,,,,,15,,62,0
32759,note_on,,119,0,10,,,,,,,,,,,,,,,,12,,66,0
32759,note_on,,119,0,11,,,,,,,,,,,,,,,,13,,54,0
32759,note_on,,0,0,12,,,,,,,,,,,,,,,,15,,54,0
32759,note_on,,119,0,8,,,,,,,,,,,,,,,,10,,86,0
32759,note_on,,119,0,9,,,,,,,,,,,,,,,,11,,69,0
32759,note_on,,119,0,5,,,,,,,,,,,,,,,,2,,54,0
32760,note_on,,1,0,12,,,,,,,,,,,,,,,,15,,66,64
32760,note_on,,0,0,12,,,,,,,,,,,,,,,,15,,69,64
32760,note_on,,0,0,12,,,,,,,,,,,,,,,,15,,74,64
32760,note_on,,1,0,5,,,,,,,,,,,,,,,,2,,50,64
32760,note_on,,0,0,12,,,,,,,,,,,,,,,,15,,50,64
32760,note_on,,241,0,7,,,,,,,,,,,,,,,,8,,57,72
32760,note_on,,1,0,11,,,,,,,,,,,,,,,,13,,50,64
32879,note_on,,0,0,12,,,,,,,,,,,,,,,,15,,50,0
32879,note_on,,0,0,12,,,,,,,,,,,,,,,,15,,69,0
32879,note_on,,119,0,7,,,,,,,,,,,,,,,,8,,57,0
32879,note_on,,119,0,5,,,,,,,,,,,,,,,,2,,50,0
32879,note_on,,119,0,12,,,,,,,,,,,,,,,,15,,66,0
32879,note_on,,0,0,12,,,,,,,,,,,,,,,,15,,74,0
32879,note_on,,119,0,11,,,,,,,,,,,,,,,,13,,50,0
32880,note_on,,1,0,7,,,,,,,,,,,,,,,,8,,59,72
32880,note_on,,1,0,12,,,,,,,,,,,,,,,,15,,67,64
32880,note_on,,1,0,5,,,,,,,,,,,,,,,,2,,59,64
32880,note_on,,0,0,12,,,,,,,,,,,,,,,,15,,59,64
32880,note_on,,0,0,12,,,,,,,,,,,,,,,,15,,74,64
32880,note_on,,0,0,12,,,,,,,,,,,,,,,,15,,62,64
32880,note_on,,1,0,11,,,,,,,,,,,,,,,,13,,59,64
32939,note_on,,59,0,11,,,,,,,,,,,,,,,,13,,59,0
32939,note_on,,59,0,12,,,,,,,,,,,,,,,,15,,59,0
32939,note_on,,59,0,7,,,,,,,,,,,,,,,,8,,59,0
32939,note_on,,59,0,5,,,,,,,,,,,,,,,,2,,59,0
32940,note_on,,1,0,11,,,,,,,,,,,,,,,,13,,61,64
32940,note_on,,1,0,12,,,,,,,,,,,,,,,,15,,61,64
32940,note_on,,1,0,7,,,,,,,,,,,,,,,,8,,61,72
32940,note_on,,1,0,5,,,,,,,,,,,,,,,,2,,61,64
32999,note_on,,59,0,7,,,,,,,,,,,,,,,,8,,61,0
32999,note_on,,59,0,11,,,,,,,,,,,,,,,,13,,61,0
32999,note_on,,59,0,12,,,,,,,,,,,,,,,,15,,67,0
32999,note_on,,59,0,5,,,,,,,,,,,,,,,,2,,61,0
32999,note_on,,0,0,12,,,,,,,,,,,,,,,,15,,61,0
32999,note_on,,0,0,12,,,,,,,,,,,,,,,,15,,62,0
32999,note_on,,0,0,12,,,,,,,,,,,,,,,,15,,74,0
33000,note_on,,1,0,5,,,,,,,,,,,,,,,,2,,62,64
33000,note_on,,0,0,12,,,,,,,,,,,,,,,,15,,74,64
33000,note_on,,0,0,12,,,,,,,,,,,,,,,,15,,69,64
33000,note_on,,0,0,12,,,,,,,,,,,,,,,,15,,62,64
33000,note_on,,1,0,12,,,,,,,,,,,,,,,,15,,78,64
33000,note_on,,1,0,11,,,,,,,,,,,,,,,,13,,62,64
33000,note_on,,1,0,7,,,,,,,,,,,,,,,,8,,62,72
33060,note_on,,301,0,8,,,,,,,,,,,,,,,,10,,81,64
33119,note_on,,59,0,8,,,,,,,,,,,,,,,,10,,81,0
33119,note_on,,0,0,12,,,,,,,,,,,,,,,,15,,69,0
33119,note_on,,0,0,12,,,,,,,,,,,,,,,,15,,74,0
33119,note_on,,0,0,12,,,,,,,,,,,,,,,,15,,62,0
33119,note_on,,119,0,12,,,,,,,,,,,,,,,,15,,78,0
33119,note_on,,119,0,5,,,,,,,,,,,,,,,,2,,62,0
33119,note_on,,119,0,7,,,,,,,,,,,,,,,,8,,62,0
33119,note_on,,119,0,11,,,,,,,,,,,,,,,,13,,62,0
33120,note_on,,0,0,12,,,,,,,,,,,,,,,,15,,69,64
33120,note_on,,1,0,5,,,,,,,,,,,,,,,,2,,54,64
33120,note_on,,1,0,11,,,,,,,,,,,,,,,,13,,54,64
33120,note_on,,0,0,12,,,,,,,,,,,,,,,,15,,62,64
33120,note_on,,0,0,12,,,,,,,,,,,,,,,,15,,74,64
33120,note_on,,1,0,7,,,,,,,,,,,,,,,,8,,54,72
33120,note_on,,1,0,12,,,,,,,,,,,,,,,,15,,54,64
33120,note_on,,1,0,8,,,,,,,,,,,,,,,,10,,79,64
33179,note_on,,59,0,8,,,,,,,,,,,,,,,,10,,79,0
33180,note_on,,1,0,8,,,,,,,,,,,,,,,,10,,81,64
33180,note_on,,421,0,10,,,,,,,,,,,,,,,,12,,66,64
33180,note_on,,421,0,9,,,,,,,,,,,,,,,,11,,74,64
33239,note_on,,0,0,12,,,,,,,,,,,,,,,,15,,74,0
33239,note_on,,0,0,12,,,,,,,,,,,,,,,,15,,62,0
33239,note_on,,119,0,12,,,,,,,,,,,,,,,,15,,54,0
33239,note_on,,59,0,10,,,,,,,,,,,,,,,,12,,66,0
33239,note_on,,59,0,9,,,,,,,,,,,,,,,,11,,74,0
33239,note_on,,119,0,5,,,,,,,,,,,,,,,,2,,54,0
33239,note_on,,0,0,12,,,,,,,,,,,,,,,,15,,69,0
33239,note_on,,59,0,8,,,,,,,,,,,,,,,,10,,81,0
33239,note_on,,119,0,7,,,,,,,,,,,,,,,,8,,54,0
33239,note_on,,119,0,11,,,,,,,,,,,,,,,,13,,54,0
33240,note_on,,0,0,12,,,,,,,,,,,,,,,,15,,55,64
33240,note_on,,1,0,12,,,,,,,,,,,,,,,,15,,67,64
33240,note_on,,1,0,10,,,,,,,,,,,,,,,,12,,62,64
33240,note_on,,0,0,12,,,,,,,,,,,,,,,,15,,62,64
33240,note_on,,1,0,7,,,,,,,,,,,,,,,,8,,55,72
33240,note_on,,1,0,5,,,,,,,,,,,,,,,,2,,55,64
33240,note_on,,1,0,9,,,,,,,,,,,,,,,,11,,67,64
33240,note_on,,0,0,12,,,,,,,,,,,,,,,,15,,71,64
33240,note_on,,1,0,11,,,,,,,,,,,,,,,,13,,55,64
33240,note_on,,1,0,8,,,,,,,,,,,,,,,,10,,83,64
33299,note_on,,59,0,7,,,,,,,,,,,,,,,,8,,55,0
33299,note_on,,59,0,10,,,,,,,,,,,,,,,,12,,62,0
33299,note_on,,59,0,8,,,,,,,,,,,,,,,,10,,83,0
33300,note_on,,1,0,10,,,,,,,,,,,,,,,,12,,64,64
33300,note_on,,1,0,7,,,,,,,,,,,,,,,,8,,50,72
33300,note_on,,1,0,8,,,,,,,,,,,,,,,,10,,85,64
33359,note_on,,119,0,5,,,,,,,,,,,,,,,,2,,55,0
33359,note_on,,59,0,7,,,,,,,,,,,,,,,,8,,50,0
33359,note_on,,119,0,9,,,,,,,,,,,,,,,,11,,67,0
33359,note_on,,0,0,12,,,,,,,,,,,,,,,,15,,62,0
33359,note_on,,59,0,8,,,,,,,,,,,,,,,,10,,85,0
33359,note_on,,119,0,11,,,,,,,,,,,,,,,,13,,55,0
33359,note_on,,59,0,10,,,,,,,,,,,,,,,,12,,64,0
33359,note_on,,119,0,12,,,,,,,,,,,,,,,,15,,67,0
33359,note_on,,0,0,12,,,,,,,,,,,,,,,,15,,55,0
33359,note_on,,0,0,12,,,,,,,,,,,,,,,,15,,71,0
33360,note_on,,1,0,11,,,,,,,,,,,,,,,,13,,50,64
33360,note_on,,1,0,12,,,,,,,,,,,,,,,,15,,50,64
33360,note_on,,0,0,12,,,,,,,,,,,,,,,,15,,62,64
33360,note_on,,0,0,12,,,,,,,,,,,,,,,,15,,66,64
33360,note_on,,0,0,12,,,,,,,,,,,,,,,,15,,69,64
33360,note_on,,1,0,5,,,,,,,,,,,,,,,,2,,50,64
33360,note_on,,1,0,8,,,,,,,,,,,,,,,,10,,86,64
33360,note_on,,1,0,7,,,,,,,,,,,,,,,,8,,50,72
33360,note_on,,1,0,10,,,,,,,,,,,,,,,,12,,66,64
33360,note_on,,1,0,9,,,,,,,,,,,,,,,,11,,69,64
33419,note_on,,59,0,8,,,,,,,,,,,,,,,,10,,86,0
33419,note_on,,59,0,9,,,,,,,,,,,,,,,,11,,69,0
33420,note_on,,1,0,8,,,,,,,,,,,,,,,,10,,81,64
33420,note_on,,1,0,9,,,,,,,,,,,,,,,,11,,66,64
33479,note_on,,59,0,8,,,,,,,,,,,,,,,,10,,81,0
33479,note_on,,119,0,10,,,,,,,,,,,,,,,,12,,66,0
33479,note_on,,119,0,11,,,,,,,,,,,,,,,,13,,50,0
33479,note_on,,0,0,12,,,,,,,,,,,,,,,,15,,66,0
33479,note_on,,0,0,12,,,,,,,,,,,,,,,,15,,62,0
33479,note_on,,59,0,9,,,,,,,,,,,,,,,,11,,66,0
33479,note_on,,0,0,12,,,,,,,,,,,,,,,,15,,69,0
33479,note_on,,119,0,12,,,,,,,,,,,,,,,,15,,50,0
33479,note_on,,119,0,7,,,,,,,,,,,,,,,,8,,50,0
33479,note_on,,119,0,5,,,,,,,,,,,,,,,,2,,50,0
33480,note_on,,1,0,12,,,,,,,,,,,,,,,,15,,57,64
33480,note_on,,0,0,12,,,,,,,,,,,,,,,,15,,62,64
33480,note_on,,0,0,12,,,,,,,,,,,,,,,,15,,66,64
33480,note_on,,1,0,10,,,,,,,,,,,,,,,,12,,57,64
33480,note_on,,1,0,9,,,,,,,,,,,,,,,,11,,64,64
33480,note_on,,1,0,8,,,,,,,,,,,,,,,,10,,79,64
33480,note_on,,1,0,5,,,,,,,,,,,,,,,,2,,54,64
33480,note_on,,1,0,11,,,,,,,,,,,,,,,,13,,54,64
33480,note_on,,0,0,12,,,,,,,,,,,,,,,,15,,54,64
33539,note_on,,59,0,9,,,,,,,,,,,,,,,,11,,64,0
33539,note_on,,59,0,8,,,,,,,,,,,,,,,,10,,79,0
33540,note_on,,1,0,8,,,,,,,,,,,,,,,,10,,81,64
33540,note_on,,1,0,9,,,,,,,,,,,,,,,,11,,66,64
33599,note_on,,119,0,11,,,,,,,,,,,,,,,,13,,54,0
33599,note_on,,0,0,12,,,,,,,,,,,,,,,,15,,54,0
33599,note_on,,119,0,10,,,,,,,,,,,,,,,,12,,57,0
33599,note_on,,119,0,5,,,,,,,,,,,,,,,,2,,54,0
33599,note_on,,59,0,8,,,,,,,,,,,,,,,,10,,81,0
33599,note_on,,0,0,12,,,,,,,,,,,,,,,,15,,62,0
33599,note_on,,0,0,12,,,,,,,,,,,,,,,,15,,66,0
33599,note_on,,119,0,12,,,,,,,,,,,,,,,,15,,57,0
33599,note_on,,59,0,9,,,,,,,,,,,,,,,,11,,66,0
33600,note_on,,1,0,10,,,,,,,,,,,,,,,,12,,62,64
33600,note_on,,0,0,12,,,,,,,,,,,,,,,,15,,62,64
33600,note_on,,1,0,8,,,,,,,,,,,,,,,,10,,83,64
33600,note_on,,1,0,9,,,,,,,,,,,,,,,,11,,67,64
33600,note_on,,1,0,5,,,,,,,,,,,,,,,,2,,55,64
33600,note_on,,0,0,12,,,,,,,,,,,,,,,,15,,55,64
33600,note_on,,1,0,11,,,,,,,,,,,,,,,,13,,55,64
33600,note_on,,1,0,12,,,,,,,,,,,,,,,,15,,59,64
33659,note_on,,59,0,10,,,,,,,,,,,,,,,,12,,62,0
33659,note_on,,59,0,8,,,,,,,,,,,,,,,,10,,83,0
33660,note_on,,1,0,10,,,,,,,,,,,,,,,,12,,64,64
33660,note_on,,1,0,8,,,,,,,,,,,,,,,,10,,85,64
33719,note_on,,119,0,11,,,,,,,,,,,,,,,,13,,55,0
33719,note_on,,59,0,10,,,,,,,,,,,,,,,,12,,64,0
33719,note_on,,119,0,5,,,,,,,,,,,,,,,,2,,55,0
33719,note_on,,59,0,8,,,,,,,,,,,,,,,,10,,85,0
33719,note_on,,119,0,12,,,,,,,,,,,,,,,,15,,59,0
33719,note_on,,119,0,9,,,,,,,,,,,,,,,,11,,67,0
33719,note_on,,0,0,12,,,,,,,,,,,,,,,,15,,55,0
33719,note_on,,0,0,12,,,,,,,,,,,,,,,,15,,62,0
33720,note_on,,1,0,11,,,,,,,,,,,,,,,,13,,50,64
33720,note_on,,1,0,10,,,,,,,,,,,,,,,,12,,66,64
33720,note_on,,1,0,12,,,,,,,,,,,,,,,,15,,66,64
33720,note_on,,1,0,9,,,,,,,,,,,,,,,,11,,69,64
33720,note_on,,0,0,12,,,,,,,,,,,,,,,,15,,62,64
33720,note_on,,0,0,12,,,,,,,,,,,,,,,,15,,57,64
33720,note_on,,1,0,8,,,,,,,,,,,,,,,,10,,86,64
33720,note_on,,0,0,12,,,,,,,,,,,,,,,,15,,50,64
33720,note_on,,1,0,5,,,,,,,,,,,,,,,,2,,50,64
33780,note_on,,1441,0,6,,,,,,,,,,,,,,,,3,,76,64
33839,note_on,,119,0,8,,,,,,,,,,,,,,,,10,,86,0
33839,note_on,,119,0,12,,,,,,,,,,,,,,,,15,,50,0
33839,note_on,,119,0,5,,,,,,,,,,,,,,,,2,,50,0
33839,note_on,,119,0,10,,,,,,,,,,,,,,,,12,,66,0
33839,note_on,,119,0,9,,,,,,,,,,,,,,,,11,,69,0
33839,note_on,,59,0,6,,,,,,,,,,,,,,,,3,,76,0
33839,note_on,,119,0,11,,,,,,,,,,,,,,,,13,,50,0
33840,note_on,,1,0,11,,,,,,,,,,,,,,,,13,,57,64
33840,note_on,,1,0,12,,,,,,,,,,,,,,,,15,,57,64
33840,note_on,,1,0,5,,,,,,,,,,,,,,,,2,,57,64
33840,note_on,,361,0,7,,,,,,,,,,,,,,,,8,,57,72
33840,note_on,,1,0,6,,,,,,,,,,,,,,,,3,,74,64
33899,note_on,,59,0,6,,,,,,,,,,,,,,,,3,,74,0
33900,note_on,,1,0,6,,,,,,,,,,,,,,,,3,,76,64
33959,note_on,,119,0,7,,,,,,,,,,,,,,,,8,,57,0
33959,note_on,,119,0,5,,,,,,,,,,,,,,,,2,,57,0
33959,note_on,,119,0,12,,,,,,,,,,,,,,,,15,,66,0
33959,note_on,,0,0,12,,,,,,,,,,,,,,,,15,,62,0
33959,note_on,,59,0,6,,,,,,,,,,,,,,,,3,,76,0
33959,note_on,,0,0,12,,,,,,,,,,,,,,,,15,,57,0
33959,note_on,,0,0,12,,,,,,,,,,,,,,,,15,,57,0
33959,note_on,,119,0,11,,,,,,,,,,,,,,,,13,,57,0
33960,note_on,,1,0,5,,,,,,,,,,,,,,,,2,,62,64
33960,note_on,,1,0,11,,,,,,,,,,,,,,,,13,,62,64
33960,note_on,,1,0,6,,,,,,,,,,,,,,,,3,,78,64
33960,note_on,,1,0,12,,,,,,,,,,,,,,,,15,,69,64
33960,note_on,,0,0,12,,,,,,,,,,,,,,,,15,,66,64
33960,note_on,,0,0,12,,,,,,,,,,,,,,,,15,,62,64
33960,note_on,,1,0,7,,,,,,,,,,,,,,,,8,,62,72
34019,note_on,,59,0,6,,,,,,,,,,,,,,,,3,,78,0
34020,note_on,,1,0,6,,,,,,,,,,,,,,,,3,,79,64
34079,note_on,,59,0,6,,,,,,,,,,,,,,,,3,,79,0
34079,note_on,,119,0,11,,,,,,,,,,,,,,,,13,,62,0
34079,note_on,,119,0,5,,,,,,,,,,,,,,,,2,,62,0
34079,note_on,,0,0,12,,,,,,,,,,,,,,,,15,,62,0
34079,note_on,,0,0,12,,,,,,,,,,,,,,,,15,,66,0
34079,note_on,,119,0,12,,,,,,,,,,,,,,,,15,,69,0
34079,note_on,,119,0,7,,,,,,,,,,,,,,,,8,,62,0
34080,note_on,,1,0,7,,,,,,,,,,,,,,,,8,,61,72
34080,note_on,,1,0,11,,,,,,,,,,,,,,,,13,,61,64
34080,note_on,,0,0,12,,,,,,,,,,,,,,,,15,,64,64
34080,note_on,,0,0,12,,,,,,,,,,,,,,,,15,,76,64
34080,note_on,,0,0,12,,,,,,,,,,,,,,,,15,,69,64
34080,note_on,,1,0,12,,,,,,,,,,,,,,,,15,,61,64
34080,note_on,,1,0,5,,,,,,,,,,,,,,,,2,,61,64
34080,note_on,,1,0,6,,,,,,,,,,,,,,,,3,,81,64
34139,note_on,,59,0,6,,,,,,,,,,,,,,,,3,,81,0
34140,note_on,,301,0,8,,,,,,,,,,,,,,,,10,,76,64
34140,note_on,,301,0,10,,,,,,,,,,,,,,,,12,,57,64
34199,note_on,,0,0,12,,,,,,,,,,,,,,,,15,,64,0
34199,note_on,,119,0,11,,,,,,,,,,,,,,,,13,,61,0
34199,note_on,,0,0,12,,,,,,,,,,,,,,,,15,,76,0
34199,note_on,,59,0,8,,,,,,,,,,,,,,,,10,,76,0
34199,note_on,,119,0,12,,,,,,,,,,,,,,,,15,,61,0
34199,note_on,,59,0,10,,,,,,,,,,,,,,,,12,,57,0
34199,note_on,,119,0,5,,,,,,,,,,,,,,,,2,,61,0
34199,note_on,,0,0,12,,,,,,,,,,,,,,,,15,,69,0
34199,note_on,,119,0,7,,,,,,,,,,,,,,,,8,,61,0
34200,note_on,,1,0,5,,,,,,,,,,,,,,,,2,,57,64
34200,note_on,,0,0,12,,,,,,,,,,,,,,,,15,,57,64
34200,note_on,,1,0,7,,,,,,,,,,,,,,,,8,,57,72
34200,note_on,,1,0,10,,,,,,,,,,,,,,,,12,,59,64
34200,note_on,,1,0,12,,,,,,,,,,,,,,,,15,,73,64
34200,note_on,,1,0,8,,,,,,,,,,,,,,,,10,,74,64
34200,note_on,,1,0,11,,,,,,,,,,,,,,,,13,,57,64
34200,note_on,,361,0,9,,,,,,,,,,,,,,,,11,,69,64
34200,note_on,,0,0,12,,,,,,,,,,,,,,,,15,,69,64
34200,note_on,,0,0,12,,,,,,,,,,,,,,,,15,,64,64
34259,note_on,,59,0,10,,,,,,,,,,,,,,,,12,,59,0
34259,note_on,,59,0,8,,,,,,,,,,,,,,,,10,,74,0
34260,note_on,,1,0,8,,,,,,,,,,,,,,,,10,,76,64
34260,note_on,,1,0,10,,,,,,,,,,,,,,,,12,,61,64
34319,note_on,,119,0,11,,,,,,,,,,,,,,,,13,,57,0
34319,note_on,,119,0,9,,,,,,,,,,,,,,,,11,,69,0
34319,note_on,,59,0,8,,,,,,,,,,,,,,,,10,,76,0
34319,note_on,,0,0,12,,,,,,,,,,,,,,,,15,,64,0
34319,note_on,,0,0,12,,,,,,,,,,,,,,,,15,,69,0
34319,note_on,,0,0,12,,,,,,,,,,,,,,,,15,,57,0
34319,note_on,,119,0,12,,,,,,,,,,,,,,,,15,,73,0
34319,note_on,,119,0,5,,,,,,,,,,,,,,,,2,,57,0
34319,note_on,,119,0,7,,,,,,,,,,,,,,,,8,,57,0
34319,note_on,,59,0,10,,,,,,,,,,,,,,,,12,,61,0
34320,note_on,,0,0,12,,,,,,,,,,,,,,,,15,,62,64
34320,note_on,,1,0,12,,,,,,,,,,,,,,,,15,,69,64
34320,note_on,,1,0,10,,,,,,,,,,,,,,,,12,,62,64
34320,note_on,,0,0,12,,,,,,,,,,,,,,,,15,,66,64
34320,note_on,,1,0,9,,,,,,,,,,,,,,,,11,,69,64
34320,note_on,,1,0,7,,,,,,,,,,,,,,,,8,,62,72
34320,note_on,,1,0,11,,,,,,,,,,,,,,,,13,,62,64
34320,note_on,,1,0,5,,,,,,,,,,,,,,,,2,,62,64
34320,note_on,,1,0,8,,,,,,,,,,,,,,,,10,,78,64
34379,note_on,,59,0,9,,,,,,,,,,,,,,,,11,,69,0
34379,note_on,,59,0,7,,,,,,,,,,,,,,,,8,,62,0
34379,note_on,,59,0,8,,,,,,,,,,,,,,,,10,,78,0
34380,note_on,,1,0,8,,,,,,,,,,,,,,,,10,,79,64
34380,note_on,,1,0,7,,,,,,,,,,,,,,,,8,,57,72
34380,note_on,,1,0,9,,,,,,,,,,,,,,,,11,,71,64
34439,note_on,,59,0,9,,,,,,,,,,,,,,,,11,,71,0
34439,note_on,,59,0,7,,,,,,,,,,,,,,,,8,,57,0
34439,note_on,,119,0,10,,,,,,,,,,,,,,,,12,,62,0
34439,note_on,,119,0,12,,,,,,,,,,,,,,,,15,,69,0
34439,note_on,,0,0,12,,,,,,,,,,,,,,,,15,,62,0
34439,note_on,,119,0,5,,,,,,,,,,,,,,,,2,,62,0
34439,note_on,,59,0,8,,,,,,,,,,,,,,,,10,,79,0
34439,note_on,,119,0,11,,,,,,,,,,,,,,,,13,,62,0
34439,note_on,,0,0,12,,,,,,,,,,,,,,,,15,,66,0
34440,note_on,,1,0,10,,,,,,,,,,,,,,,,12,,64,64
34440,note_on,,1,0,9,,,,,,,,,,,,,,,,11,,73,64
34440,note_on,,1,0,5,,,,,,,,,,,,,,,,2,,57,64
34440,note_on,,0,0,12,,,,,,,,,,,,,,,,15,,69,64
34440,note_on,,0,0,12,,,,,,,,,,,,,,,,15,,73,64
34440,note_on,,1,0,7,,,,,,,,,,,,,,,,8,,57,72
34440,note_on,,1,0,11,,,,,,,,,,,,,,,,13,,57,64
34440,note_on,,0,0,12,,,,,,,,,,,,,,,,15,,64,64
34440,note_on,,1,0,8,,,,,,,,,,,,,,,,10,,81,64
34440,note_on,,1,0,12,,,,,,,,,,,,,,,,15,,57,64
34500,note_on,,361,0,6,,,,,,,,,,,,,,,,3,,76,64
34559,note_on,,119,0,9,,,,,,,,,,,,,,,,11,,73,0
34559,note_on,,119,0,5,,,,,,,,,,,,,,,,2,,57,0
34559,note_on,,119,0,7,,,,,,,,,,,,,,,,8,,57,0
34559,note_on,,119,0,11,,,,,,,,,,,,,,,,13,,57,0
34559,note_on,,0,0,12,,,,,,,,,,,,,,,,15,,64,0
34559,note_on,,0,0,12,,,,,,,,,,,,,,,,15,,69,0
34559,note_on,,119,0,12,,,,,,,,,,,,,,,,15,,57,0
34559,note_on,,59,0,6,,,,,,,,,,,,,,,,3,,76,0
34559,note_on,,119,0,10,,,,,,,,,,,,,,,,12,,64,0
34559,note_on,,119,0,8,,,,,,,,,,,,,,,,10,,81,0
34559,note_on,,0,0,12,,,,,,,,,,,,,,,,15,,73,0
34560,note_on,,1,0,12,,,,,,,,,,,,,,,,15,,69,64
34560,note_on,,0,0,12,,,,,,,,,,,,,,,,15,,64,64
34560,note_on,,0,0,12,,,,,,,,,,,,,,,,15,,61,64
34560,note_on,,1,0,11,,,,,,,,,,,,,,,,13,,61,64
34560,note_on,,1,0,6,,,,,,,,,,,,,,,,3,,74,64
34560,note_on,,1,0,5,,,,,,,,,,,,,,,,2,,61,64
34619,note_on,,59,0,6,,,,,,,,,,,,,,,,3,,74,0
34620,note_on,,1,0,6,,,,,,,,,,,,,,,,3,,76,64
34679,note_on,,59,0,6,,,,,,,,,,,,,,,,3,,76,0
34679,note_on,,119,0,11,,,,,,,,,,,,,,,,13,,61,0
34679,note_on,,0,0,12,,,,,,,,,,,,,,,,15,,61,0
34679,note_on,,119,0,5,,,,,,,,,,,,,,,,2,,61,0
34679,note_on,,119,0,12,,,,,,,,,,,,,,,,15,,64,0
34680,note_on,,0,0,12,,,,,,,,,,,,,,,,15,,62,64
34680,note_on,,1,0,6,,,,,,,,,,,,,,,,3,,78,64
34680,note_on,,1,0,5,,,,,,,,,,,,,,,,2,,62,64
34680,note_on,,1,0,12,,,,,,,,,,,,,,,,15,,66,64
34680,note_on,,1,0,11,,,,,,,,,,,,,,,,13,,62,64
34739,note_on,,59,0,6,,,,,,,,,,,,,,,,3,,78,0
34740,note_on,,1,0,6,,,,,,,,,,,,,,,,3,,79,64
34799,note_on,,119,0,12,,,,,,,,,,,,,,,,15,,69,0
34799,note_on,,0,0,12,,,,,,,,,,,,,,,,15,,62,0
34799,note_on,,119,0,5,,,,,,,,,,,,,,,,2,,62,0
34799,note_on,,59,0,6,,,,,,,,,,,,,,,,3,,79,0
34799,note_on,,0,0,12,,,,,,,,,,,,,,,,15,,66,0
34799,note_on,,119,0,11,,,,,,,,,,,,,,,,13,,62,0
34800,note_on,,0,0,12,,,,,,,,,,,,,,,,15,,73,64
34800,note_on,,0,0,12,,,,,,,,,,,,,,,,15,,69,64
34800,note_on,,1,0,12,,,,,,,,,,,,,,,,15,,61,64
34800,note_on,,1,0,6,,,,,,,,,,,,,,,,3,,81,64
34800,note_on,,1,0,5,,,,,,,,,,,,,,,,2,,61,64
34800,note_on,,1,0,11,,,,,,,,,,,,,,,,13,,61,64
34800,note_on,,0,0,12,,,,,,,,,,,,,,,,15,,64,64
34859,note_on,,59,0,6,,,,,,,,,,,,,,,,3,,81,0
34860,note_on,,301,0,8,,,,,,,,,,,,,,,,10,,76,64
34860,note_on,,301,0,10,,,,,,,,,,,,,,,,12,,57,64
34919,note_on,,59,0,8,,,,,,,,,,,,,,,,10,,76,0
34919,note_on,,119,0,11,,,,,,,,,,,,,,,,13,,61,0
34919,note_on,,0,0,12,,,,,,,,,,,,,,,,15,,64,0
34919,note_on,,119,0,12,,,,,,,,,,,,,,,,15,,61,0
34919,note_on,,0,0,12,,,,,,,,,,,,,,,,15,,73,0
34919,note_on,,0,0,12,,,,,,,,,,,,,,,,15,,69,0
34919,note_on,,59,0,10,,,,,,,,,,,,,,,,12,,57,0
34919,note_on,,119,0,5,,,,,,,,,,,,,,,,2,,61,0
34920,note_on,,0,0,12,,,,,,,,,,,,,,,,15,,73,64
34920,note_on,,0,0,12,,,,,,,,,,,,,,,,15,,57,64
34920,note_on,,1,0,12,,,,,,,,,,,,,,,,15,,76,64
34920,note_on,,1,0,8,,,,,,,,,,,,,,,,10,,74,64
34920,note_on,,0,0,12,,,,,,,,,,,,,,,,15,,61,64
34920,note_on,,361,0,9,,,,,,,,,,,,,,,,11,,69,64
34920,note_on,,0,0,12,,,,,,,,,,,,,,,,15,,69,64
34920,note_on,,1,0,11,,,,,,,,,,,,,,,,13,,57,64
34920,note_on,,1,0,10,,,,,,,,,,,,,,,,12,,59,64
34920,note_on,,1,0,5,,,,,,,,,,,,,,,,2,,57,64
34979,note_on,,59,0,8,,,,,,,,,,,,,,,,10,,74,0
34979,note_on,,59,0,10,,,,,,,,,,,,,,,,12,,59,0
34980,note_on,,1,0,10,,,,,,,,,,,,,,,,12,,61,64
34980,note_on,,1,0,8,,,,,,,,,,,,,,,,10,,76,64
35039,note_on,,59,0,8,,,,,,,,,,,,,,,,10,,76,0
35039,note_on,,119,0,5,,,,,,,,,,,,,,,,2,,57,0
35039,note_on,,0,0,12,,,,,,,,,,,,,,,,15,,73,0
35039,note_on,,119,0,11,,,,,,,,,,,,,,,,13,,57,0
35039,note_on,,59,0,10,,,,,,,,,,,,,,,,12,,61,0
35039,note_on,,119,0,9,,,,,,,,,,,,,,,,11,,69,0
35039,note_on,,119,0,12,,,,,,,,,,,,,,,,15,,76,0
35039,note_on,,0,0,12,,,,,,,,,,,,,,,,15,,61,0
35039,note_on,,0,0,12,,,,,,,,,,,,,,,,15,,69,0
35039,note_on,,0,0,12,,,,,,,,,,,,,,,,15,,57,0
35040,note_on,,1,0,9,,,,,,,,,,,,,,,,11,,69,64
35040,note_on,,1,0,10,,,,,,,,,,,,,,,,12,,62,64
35040,note_on,,0,0,12,,,,,,,,,,,,,,,,15,,74,64
35040,note_on,,0,0,12,,,,,,,,,,,,,,,,15,,62,64
35040,note_on,,0,0,12,,,,,,,,,,,,,,,,15,,66,64
35040,note_on,,1,0,11,,,,,,,,,,,,,,,,13,,62,64
35040,note_on,,1,0,8,,,,,,,,,,,,,,,,10,,78,64
35040,note_on,,1,0,12,,,,,,,,,,,,,,,,15,,69,64
35040,note_on,,1,0,5,,,,,,,,,,,,,,,,2,,62,64
35099,note_on,,59,0,8,,,,,,,,,,,,,,,,10,,78,0
35099,note_on,,59,0,9,,,,,,,,,,,,,,,,11,,69,0
35100,note_on,,1,0,9,,,,,,,,,,,,,,,,11,,71,64
35100,note_on,,1,0,8,,,,,,,,,,,,,,,,10,,79,64
35159,note_on,,0,0,12,,,,,,,,,,,,,,,,15,,74,0
35159,note_on,,59,0,9,,,,,,,,,,,,,,,,11,,71,0
35159,note_on,,119,0,11,,,,,,,,,,,,,,,,13,,62,0
35159,note_on,,119,0,12,,,,,,,,,,,,,,,,15,,69,0
35159,note_on,,119,0,10,,,,,,,,,,,,,,,,12,,62,0
35159,note_on,,119,0,5,,,,,,,,,,,,,,,,2,,62,0
35159,note_on,,59,0,8,,,,,,,,,,,,,,,,10,,79,0
35159,note_on,,0,0,12,,,,,,,,,,,,,,,,15,,62,0
35159,note_on,,0,0,12,,,,,,,,,,,,,,,,15,,66,0
35160,note_on,,1,0,10,,,,,,,,,,,,,,,,12,,64,64
35160,note_on,,0,0,12,,,,,,,,,,,,,,,,15,,69,64
35160,note_on,,0,0,12,,,,,,,,,,,,,,,,15,,64,64
35160,note_on,,1,0,5,,,,,,,,,,,,,,,,2,,61,64
35160,note_on,,1,0,9,,,,,,,,,,,,,,,,11,,73,64
35160,note_on,,0,0,12,,,,,,,,,,,,,,,,15,,61,64
35160,note_on,,1,0,8,,,,,,,,,,,,,,,,10,,81,64
35160,note_on,,1,0,11,,,,,,,,,,,,,,,,13,,61,64
35160,note_on,,1,0,12,,,,,,,,,,,,,,,,15,,76,64
35279,note_on,,119,0,10,,,,,,,,,,,,,,,,12,,64,0
35279,note_on,,0,0,12,,,,,,,,,,,,,,,,15,,64,0
35279,note_on,,119,0,12,,,,,,,,,,,,,,,,15,,76,0
35279,note_on,,119,0,11,,,,,,,,,,,,,,,,13,,61,0
35279,note_on,,0,0,12,,,,,,,,,,,,,,,,15,,69,0
35279,note_on,,119,0,9,,,,,,,,,,,,,,,,11,,73,0
35279,note_on,,119,0,8,,,,,,,,,,,,,,,,10,,81,0
35279,note_on,,119,0,5,,,,,,,,,,,,,,,,2,,61,0
35279,note_on,,0,0,12,,,,,,,,,,,,,,,,15,,61,0
35280,note_on,,1,0,11,,,,,,,,,,,,,,,,13,,57,64
35280,note_on,,0,0,12,,,,,,,,,,,,,,,,15,,76,64
35280,note_on,,0,0,12,,,,,,,,,,,,,,,,15,,61,64
35280,note_on,,421,0,6,,,,,,,,,,,,,,,,3,,81,64
35280,note_on,,0,0,12,,,,,,,,,,,,,,,,15,,57,64
35280,note_on,,1,0,12,,,,,,,,,,,,,,,,15,,73,64
35280,note_on,,1,0,5,,,,,,,,,,,,,,,,2,,57,64
35280,note_on,,0,0,12,,,,,,,,,,,,,,,,15,,81,64
35399,note_on,,119,0,12,,,,,,,,,,,,,,,,15,,73,0
35399,note_on,,119,0,6,,,,,,,,,,,,,,,,3,,81,0
35399,note_on,,0,0,12,,,,,,,,,,,,,,,,15,,81,0
35399,note_on,,0,0,12,,,,,,,,,,,,,,,,15,,61,0
35399,note_on,,0,0,12,,,,,,,,,,,,,,,,15,,76,0
35399,note_on,,119,0,5,,,,,,,,,,,,,,,,2,,57,0
35399,note_on,,119,0,11,,,,,,,,,,,,,,,,13,,57,0
35399,note_on,,0,0,12,,,,,,,,,,,,,,,,15,,57,0
35400,note_on,,1,0,6,,,,,,,,,,,,,,,,3,,76,64
35489,note_on,,89,0,6,,,,,,,,,,,,,,,,3,,76,0
35490,note_on,,1,0,6,,,,,,,,,,,,,,,,3,,78,64
35519,note_on,,29,0,6,,,,,,,,,,,,,,,,3,,78,0
35520,note_on,,1,0,6,,,,,,,,,,,,,,,,3,,76,64
35609,note_on,,89,0,6,,,,,,,,,,,,,,,,3,,76,0
35610,note_on,,1,0,6,,,,,,,,,,,,,,,,3,,78,64
35639,note_on,,29,0,6,,,,,,,,,,,,,,,,3,,78,0
35640,note_on,,241,0,11,,,,,,,,,,,,,,,,13,,57,48
35640,note_on,,241,0,12,,,,,,,,,,,,,,,,15,,73,48
35640,note_on,,1,0,6,,,,,,,,,,,,,,,,3,,76,64
35640,note_on,,0,0,12,,,,,,,,,,,,,,,,15,,69,48
35640,note_on,,241,0,5,,,,,,,,,,,,,,,,2,,57,48
35640,note_on,,0,0,12,,,,,,,,,,,,,,,,15,,64,48
35640,note_on,,1081,0,7,,,,,,,,,,,,,,,,8,,57,72
35640,note_on,,0,0,12,,,,,,,,,,,,,,,,15,,57,48
35729,note_on,,89,0,6,,,,,,,,,,,,,,,,3,,76,0
35730,note_on,,1,0,6,,,,,,,,,,,,,,,,3,,78,64
35759,note_on,,119,0,11,,,,,,,,,,,,,,,,13,,57,0
35759,note_on,,119,0,5,,,,,,,,,,,,,,,,2,,57,0
35759,note_on,,119,0,12,,,,,,,,,,,,,,,,15,,73,0
35759,note_on,,0,0,12,,,,,,,,,,,,,,,,15,,64,0
35759,note_on,,119,0,7,,,,,,,,,,,,,,,,8,,57,0
35759,note_on,,0,0,12,,,,,,,,,,,,,,,,15,,57,0
35759,note_on,,29,0,6,,,,,,,,,,,,,,,,3,,78,0
35759,note_on,,0,0,12,,,,,,,,,,,,,,,,15,,69,0
35760,note_on,,1,0,6,,,,,,,,,,,,,,,,3,,79,64
35760,note_on,,1,0,12,,,,,,,,,,,,,,,,15,,71,48
35760,note_on,,1,0,5,,,,,,,,,,,,,,,,2,,52,48
35760,note_on,,0,0,12,,,,,,,,,,,,,,,,15,,52,48
35760,note_on,,1,0,7,,,,,,,,,,,,,,,,8,,52,72
35760,note_on,,0,0,12,,,,,,,,,,,,,,,,15,,76,48
35760,note_on,,0,0,12,,,,,,,,,,,,,,,,15,,55,48
35760,note_on,,1,0,11,,,,,,,,,,,,,,,,13,,52,48
35760,note_on,,0,0,12,,,,,,,,,,,,,,,,15,,67,48
35879,note_on,,0,0,12,,,,,,,,,,,,,,,,15,,52,0
35879,note_on,,119,0,12,,,,,,,,,,,,,,,,15,,55,0
35879,note_on,,119,0,11,,,,,,,,,,,,,,,,13,,52,0
35879,note_on,,119,0,5,,,,,,,,,,,,,,,,2,,52,0
35879,note_on,,119,0,7,,,,,,,,,,,,,,,,8,,52,0
35880,note_on,,0,0,12,,,,,,,,,,,,,,,,15,,52,48
35880,note_on,,1,0,12,,,,,,,,,,,,,,,,15,,55,48
35880,note_on,,1,0,7,,,,,,,,,,,,,,,,8,,52,72
35880,note_on,,1,0,11,,,,,,,,,,,,,,,,13,,52,48
35880,note_on,,1,0,5,,,,,,,,,,,,,,,,2,,52,48
35969,note_on,,209,0,6,,,,,,,,,,,,,,,,3,,79,0
35970,note_on,,1,0,6,,,,,,,,,,,,,,,,3,,81,64
35999,note_on,,29,0,6,,,,,,,,,,,,,,,,3,,81,0
35999,note_on,,119,0,12,,,,,,,,,,,,,,,,15,,55,0
36000,note_on,,1,0,6,,,,,,,,,,,,,,,,3,,79,64
36059,note_on,,179,0,11,,,,,,,,,,,,,,,,13,,52,0
36059,note_on,,179,0,5,,,,,,,,,,,,,,,,2,,52,0
36059,note_on,,59,0,6,,,,,,,,,,,,,,,,3,,79,0
36059,note_on,,60,0,12,,,,,,,,,,,,,,,,15,,52,0
36059,note_on,,179,0,7,,,,,,,,,,,,,,,,8,,52,0
36060,note_on,,1,0,11,,,,,,,,,,,,,,,,13,,54,48
36060,note_on,,1,0,5,,,,,,,,,,,,,,,,2,,54,48
36060,note_on,,1,0,7,,,,,,,,,,,,,,,,8,,54,72
36060,note_on,,1,0,6,,,,,,,,,,,,,,,,3,,81,64
36060,note_on,,1,0,12,,,,,,,,,,,,,,,,15,,57,48
36060,note_on,,0,0,12,,,,,,,,,,,,,,,,15,,54,48
36119,note_on,,0,0,12,,,,,,,,,,,,,,,,15,,76,0
36119,note_on,,0,0,12,,,,,,,,,,,,,,,,15,,57,0
36119,note_on,,0,0,12,,,,,,,,,,,,,,,,15,,54,0
36119,note_on,,59,0,6,,,,,,,,,,,,,,,,3,,81,0
36119,note_on,,59,0,11,,,,,,,,,,,,,,,,13,,54,0
36119,note_on,,59,0,5,,,,,,,,,,,,,,,,2,,54,0
36119,note_on,,0,0,12,,,,,,,,,,,,,,,,15,,67,0
36119,note_on,,59,0,7,,,,,,,,,,,,,,,,8,,54,0
36119,note_on,,59,0,12,,,,,,,,,,,,,,,,15,,71,0
36120,note_on,,0,0,12,,,,,,,,,,,,,,,,15,,59,48
36120,note_on,,1,0,5,,,,,,,,,,,,,,,,2,,55,48
36120,note_on,,0,0,12,,,,,,,,,,,,,,,,15,,74,48
36120,note_on,,1,0,12,,,,,,,,,,,,,,,,15,,67,48
36120,note_on,,0,0,12,,,,,,,,,,,,,,,,15,,55,48
36120,note_on,,1,0,11,,,,,,,,,,,,,,,,13,,55,48
36120,note_on,,0,0,12,,,,,,,,,,,,,,,,15,,71,48
36120,note_on,,1,0,6,,,,,,,,,,,,,,,,3,,74,64
36120,note_on,,1,0,7,,,,,,,,,,,,,,,,8,,55,72
36209,note_on,,89,0,6,,,,,,,,,,,,,,,,3,,74,0
36210,note_on,,1,0,6,,,,,,,,,,,,,,,,3,,76,64
36239,note_on,,29,0,6,,,,,,,,,,,,,,,,3,,76,0
36240,note_on,,1,0,6,,,,,,,,,,,,,,,,3,,74,64
36329,note_on,,89,0,6,,,,,,,,,,,,,,,,3,,74,0
36330,note_on,,1,0,6,,,,,,,,,,,,,,,,3,,76,64
36359,note_on,,239,0,11,,,,,,,,,,,,,,,,13,,55,0
36359,note_on,,239,0,5,,,,,,,,,,,,,,,,2,,55,0
36359,note_on,,0,0,12,,,,,,,,,,,,,,,,15,,74,0
36359,note_on,,0,0,12,,,,,,,,,,,,,,,,15,,55,0
36359,note_on,,0,0,12,,,,,,,,,,,,,,,,15,,71,0
36359,note_on,,0,0,12,,,,,,,,,,,,,,,,15,,59,0
36359,note_on,,29,0,6,,,,,,,,,,,,,,,,3,,76,0
36359,note_on,,239,0,7,,,,,,,,,,,,,,,,8,,55,0
36359,note_on,,239,0,12,,,,,,,,,,,,,,,,15,,67,0
36360,note_on,,1,0,11,,,,,,,,,,,,,,,,13,,55,48
36360,note_on,,1,0,5,,,,,,,,,,,,,,,,2,,55,48
36360,note_on,,0,0,12,,,,,,,,,,,,,,,,15,,59,48
36360,note_on,,0,0,12,,,,,,,,,,,,,,,,15,,74,48
36360,note_on,,0,0,12,,,,,,,,,,,,,,,,15,,55,48
36360,note_on,,1,0,12,,,,,,,,,,,,,,,,15,,71,48
36360,note_on,,0,0,12,,,,,,,,,,,,,,,,15,,79,48
36360,note_on,,1,0,7,,,,,,,,,,,,,,,,8,,55,72
36360,note_on,,1,0,6,,,,,,,,,,,,,,,,3,,74,64
36449,note_on,,89,0,6,,,,,,,,,,,,,,,,3,,74,0
36450,note_on,,1,0,6,,,,,,,,,,,,,,,,3,,76,64
36479,note_on,,0,0,12,,,,,,,,,,,,,,,,15,,55,0
36479,note_on,,0,0,12,,,,,,,,,,,,,,,,15,,74,0
36479,note_on,,119,0,5,,,,,,,,,,,,,,,,2,,55,0
36479,note_on,,0,0,12,,,,,,,,,,,,,,,,15,,59,0
36479,note_on,,119,0,12,,,,,,,,,,,,,,,,15,,71,0
36479,note_on,,119,0,7,,,,,,,,,,,,,,,,8,,55,0
36479,note_on,,119,0,11,,,,,,,,,,,,,,,,13,,55,0
36479,note_on,,0,0,12,,,,,,,,,,,,,,,,15,,79,0
36479,note_on,,29,0,6,,,,,,,,,,,,,,,,3,,76,0
36480,note_on,,0,0,12,,,,,,,,,,,,,,,,15,,50,48
36480,note_on,,0,0,12,,,,,,,,,,,,,,,,15,,74,48
36480,note_on,,0,0,12,,,,,,,,,,,,,,,,15,,78,48
36480,note_on,,0,0,12,,,,,,,,,,,,,,,,15,,62,48
36480,note_on,,1,0,12,,,,,,,,,,,,,,,,15,,69,48
36480,note_on,,1,0,6,,,,,,,,,,,,,,,,3,,78,64
36480,note_on,,1,0,11,,,,,,,,,,,,,,,,13,,50,48
36480,note_on,,1,0,7,,,,,,,,,,,,,,,,8,,50,72
36480,note_on,,1,0,5,,,,,,,,,,,,,,,,2,,50,48
36569,note_on,,89,0,6,,,,,,,,,,,,,,,,3,,78,0
36569,note_on,,89,0,7,,,,,,,,,,,,,,,,8,,50,0
36570,note_on,,1,0,6,,,,,,,,,,,,,,,,3,,79,64
36570,note_on,,1,0,7,,,,,,,,,,,,,,,,8,,52,72
36599,note_on,,29,0,7,,,,,,,,,,,,,,,,8,,52,0
36599,note_on,,29,0,6,,,,,,,,,,,,,,,,3,,79,0
36600,note_on,,1,0,6,,,,,,,,,,,,,,,,3,,78,64
36600,note_on,,1,0,7,,,,,,,,,,,,,,,,8,,50,72
36659,note_on,,179,0,12,,,,,,,,,,,,,,,,15,,50,0
36659,note_on,,179,0,11,,,,,,,,,,,,,,,,13,,50,0
36659,note_on,,179,0,5,,,,,,,,,,,,,,,,2,,50,0
36660,note_on,,1,0,12,,,,,,,,,,,,,,,,15,,52,48
36660,note_on,,1,0,11,,,,,,,,,,,,,,,,13,,52,48
36660,note_on,,1,0,5,,,,,,,,,,,,,,,,2,,52,48
36689,note_on,,89,0,6,,,,,,,,,,,,,,,,3,,78,0
36689,note_on,,89,0,7,,,,,,,,,,,,,,,,8,,50,0
36690,note_on,,1,0,7,,,,,,,,,,,,,,,,8,,52,72
36690,note_on,,1,0,6,,,,,,,,,,,,,,,,3,,79,64
36719,note_on,,29,0,7,,,,,,,,,,,,,,,,8,,52,0
36719,note_on,,29,0,6,,,,,,,,,,,,,,,,3,,79,0
36719,note_on,,59,0,11,,,,,,,,,,,,,,,,13,,52,0
36719,note_on,,59,0,12,,,,,,,,,,,,,,,,15,,52,0
36719,note_on,,59,0,5,,,,,,,,,,,,,,,,2,,52,0
36720,note_on,,1,0,7,,,,,,,,,,,,,,,,8,,50,72
36720,note_on,,1,0,5,,,,,,,,,,,,,,,,2,,50,48
36720,note_on,,1,0,11,,,,,,,,,,,,,,,,13,,50,48
36720,note_on,,1,0,6,,,,,,,,,,,,,,,,3,,78,64
36720,note_on,,1,0,12,,,,,,,,,,,,,,,,15,,50,48
36809,note_on,,89,0,11,,,,,,,,,,,,,,,,13,,50,0
36809,note_on,,89,0,12,,,,,,,,,,,,,,,,15,,50,0
36809,note_on,,89,0,6,,,,,,,,,,,,,,,,3,,78,0
36809,note_on,,89,0,5,,,,,,,,,,,,,,,,2,,50,0
36809,note_on,,89,0,7,,,,,,,,,,,,,,,,8,,50,0
36810,note_on,,1,0,11,,,,,,,,,,,,,,,,13,,52,48
36810,note_on,,1,0,6,,,,,,,,,,,,,,,,3,,79,64
36810,note_on,,1,0,12,,,,,,,,,,,,,,,,15,,52,48
36810,note_on,,1,0,5,,,,,,,,,,,,,,,,2,,52,48
36810,note_on,,1,0,7,,,,,,,,,,,,,,,,8,,52,72
36839,note_on,,29,0,12,,,,,,,,,,,,,,,,15,,69,0
36839,note_on,,29,0,11,,,,,,,,,,,,,,,,13,,52,0
36839,note_on,,29,0,5,,,,,,,,,,,,,,,,2,,52,0
36839,note_on,,29,0,7,,,,,,,,,,,,,,,,8,,52,0
36839,note_on,,29,0,6,,,,,,,,,,,,,,,,3,,79,0
36839,note_on,,0,0,12,,,,,,,,,,,,,,,,15,,62,0
36839,note_on,,0,0,12,,,,,,,,,,,,,,,,15,,78,0
36839,note_on,,0,0,12,,,,,,,,,,,,,,,,15,,74,0
36839,note_on,,0,0,12,,,,,,,,,,,,,,,,15,,52,0
36840,note_on,,1,0,7,,,,,,,,,,,,,,,,8,,54,72
36840,note_on,,1,0,11,,,,,,,,,,,,,,,,13,,54,48
36840,note_on,,0,0,12,,,,,,,,,,,,,,,,15,,74,48
36840,note_on,,0,0,12,,,,,,,,,,,,,,,,15,,54,48
36840,note_on,,1,0,12,,,,,,,,,,,,,,,,15,,62,48
36840,note_on,,0,0,12,,,,,,,,,,,,,,,,15,,69,48
36840,note_on,,1,0,5,,,,,,,,,,,,,,,,2,,54,48
36840,note_on,,1,0,6,,,,,,,,,,,,,,,,3,,81,64
36929,note_on,,89,0,5,,,,,,,,,,,,,,,,2,,54,0
36929,note_on,,89,0,12,,,,,,,,,,,,,,,,15,,54,0
36929,note_on,,89,0,11,,,,,,,,,,,,,,,,13,,54,0
36929,note_on,,89,0,7,,,,,,,,,,,,,,,,8,,54,0
36930,note_on,,1,0,5,,,,,,,,,,,,,,,,2,,55,48
36930,note_on,,1,0,11,,,,,,,,,,,,,,,,13,,55,48
36930,note_on,,1,0,12,,,,,,,,,,,,,,,,15,,55,48
36930,note_on,,1,0,7,,,,,,,,,,,,,,,,8,,55,72
36959,note_on,,29,0,5,,,,,,,,,,,,,,,,2,,55,0
36959,note_on,,29,0,12,,,,,,,,,,,,,,,,15,,55,0
36959,note_on,,29,0,7,,,,,,,,,,,,,,,,8,,55,0
36959,note_on,,29,0,11,,,,,,,,,,,,,,,,13,,55,0
36960,note_on,,1,0,7,,,,,,,,,,,,,,,,8,,54,72
36960,note_on,,1,0,5,,,,,,,,,,,,,,,,2,,54,48
36960,note_on,,1,0,12,,,,,,,,,,,,,,,,15,,54,48
36960,note_on,,1,0,11,,,,,,,,,,,,,,,,13,,54,48
37049,note_on,,89,0,7,,,,,,,,,,,,,,,,8,,54,0
37049,note_on,,209,0,6,,,,,,,,,,,,,,,,3,,81,0
37049,note_on,,89,0,12,,,,,,,,,,,,,,,,15,,54,0
37049,note_on,,89,0,5,,,,,,,,,,,,,,,,2,,54,0
37049,note_on,,89,0,11,,,,,,,,,,,,,,,,13,,54,0
37050,note_on,,1,0,6,,,,,,,,,,,,,,,,3,,79,64
37050,note_on,,1,0,5,,,,,,,,,,,,,,,,2,,55,48
37050,note_on,,1,0,7,,,,,,,,,,,,,,,,8,,55,72
37050,note_on,,1,0,11,,,,,,,,,,,,,,,,13,,55,48
37050,note_on,,1,0,12,,,,,,,,,,,,,,,,15,,55,48
37079,note_on,,29,0,12,,,,,,,,,,,,,,,,15,,62,0
37079,note_on,,29,0,5,,,,,,,,,,,,,,,,2,,55,0
37079,note_on,,0,0,12,,,,,,,,,,,,,,,,15,,74,0
37079,note_on,,29,0,11,,,,,,,,,,,,,,,,13,,55,0
37079,note_on,,29,0,7,,,,,,,,,,,,,,,,8,,55,0
37079,note_on,,29,0,6,,,,,,,,,,,,,,,,3,,79,0
37079,note_on,,0,0,12,,,,,,,,,,,,,,,,15,,69,0
37079,note_on,,0,0,12,,,,,,,,,,,,,,,,15,,55,0
37080,note_on,,1,0,5,,,,,,,,,,,,,,,,2,,57,48
37080,note_on,,1,0,6,,,,,,,,,,,,,,,,3,,78,64
37080,note_on,,0,0,12,,,,,,,,,,,,,,,,15,,66,48
37080,note_on,,0,0,12,,,,,,,,,,,,,,,,15,,61,48
37080,note_on,,1,0,7,,,,,,,,,,,,,,,,8,,57,72
37080,note_on,,1,0,12,,,,,,,,,,,,,,,,15,,69,48
37080,note_on,,0,0,12,,,,,,,,,,,,,,,,15,,57,48
37080,note_on,,1,0,11,,,,,,,,,,,,,,,,13,,57,48
37139,note_on,,59,0,6,,,,,,,,,,,,,,,,3,,78,0
37140,note_on,,1,0,6,,,,,,,,,,,,,,,,3,,76,64
37169,note_on,,89,0,7,,,,,,,,,,,,,,,,8,,57,0
37169,note_on,,89,0,5,,,,,,,,,,,,,,,,2,,57,0
37169,note_on,,89,0,12,,,,,,,,,,,,,,,,15,,57,0
37169,note_on,,89,0,11,,,,,,,,,,,,,,,,13,,57,0
37170,note_on,,1,0,7,,,,,,,,,,,,,,,,8,,54,72
37170,note_on,,1,0,11,,,,,,,,,,,,,,,,13,,54,48
37170,note_on,,1,0,5,,,,,,,,,,,,,,,,2,,54,48
37170,note_on,,1,0,12,,,,,,,,,,,,,,,,15,,54,48
37199,note_on,,0,0,12,,,,,,,,,,,,,,,,15,,54,0
37199,note_on,,0,0,12,,,,,,,,,,,,,,,,15,,66,0
37199,note_on,,0,0,12,,,,,,,,,,,,,,,,15,,61,0
37199,note_on,,29,0,7,,,,,,,,,,,,,,,,8,,54,0
37199,note_on,,29,0,11,,,,,,,,,,,,,,,,13,,54,0
37199,note_on,,29,0,5,,,,,,,,,,,,,,,,2,,54,0
37199,note_on,,59,0,6,,,,,,,,,,,,,,,,3,,76,0
37199,note_on,,29,0,12,,,,,,,,,,,,,,,,15,,69,0
37200,note_on,,1,0,7,,,,,,,,,,,,,,,,8,,59,72
37200,note_on,,1,0,5,,,,,,,,,,,,,,,,2,,59,48
37200,note_on,,1,0,12,,,,,,,,,,,,,,,,15,,59,48
37200,note_on,,0,0,12,,,,,,,,,,,,,,,,15,,62,48
37200,note_on,,0,0,12,,,,,,,,,,,,,,,,15,,67,48
37200,note_on,,1,0,6,,,,,,,,,,,,,,,,3,,74,64
37200,note_on,,1,0,11,,,,,,,,,,,,,,,,13,,59,48
37289,note_on,,89,0,12,,,,,,,,,,,,,,,,15,,59,0
37289,note_on,,89,0,11,,,,,,,,,,,,,,,,13,,59,0
37289,note_on,,89,0,5,,,,,,,,,,,,,,,,2,,59,0
37289,note_on,,89,0,7,,,,,,,,,,,,,,,,8,,59,0
37290,note_on,,1,0,7,,,,,,,,,,,,,,,,8,,61,72
37290,note_on,,1,0,12,,,,,,,,,,,,,,,,15,,61,48
37290,note_on,,1,0,11,,,,,,,,,,,,,,,,13,,61,48
37290,note_on,,1,0,5,,,,,,,,,,,,,,,,2,,61,48
37319,note_on,,29,0,11,,,,,,,,,,,,,,,,13,,61,0
37319,note_on,,29,0,7,,,,,,,,,,,,,,,,8,,61,0
37319,note_on,,29,0,12,,,,,,,,,,,,,,,,15,,61,0
37319,note_on,,29,0,5,,,,,,,,,,,,,,,,2,,61,0
37320,note_on,,1,0,7,,,,,,,,,,,,,,,,8,,59,72
37320,note_on,,1,0,12,,,,,,,,,,,,,,,,15,,59,48
37320,note_on,,1,0,5,,,,,,,,,,,,,,,,2,,59,48
37320,note_on,,1,0,11,,,,,,,,,,,,,,,,13,,59,48
37379,note_on,,59,0,11,,,,,,,,,,,,,,,,13,,59,0
37379,note_on,,0,0,12,,,,,,,,,,,,,,,,15,,59,0
37379,note_on,,59,0,5,,,,,,,,,,,,,,,,2,,59,0
37379,note_on,,59,0,12,,,,,,,,,,,,,,,,15,,62,0
37379,note_on,,59,0,7,,,,,,,,,,,,,,,,8,,59,0
37380,note_on,,0,0,12,,,,,,,,,,,,,,,,15,,61,48
37380,note_on,,1,0,5,,,,,,,,,,,,,,,,2,,57,48
37380,note_on,,1,0,7,,,,,,,,,,,,,,,,8,,57,72
37380,note_on,,1,0,12,,,,,,,,,,,,,,,,15,,57,48
37380,note_on,,1,0,11,,,,,,,,,,,,,,,,13,,57,48
37409,note_on,,209,0,6,,,,,,,,,,,,,,,,3,,74,0
37410,note_on,,1,0,6,,,,,,,,,,,,,,,,3,,74,64
37439,note_on,,0,0,12,,,,,,,,,,,,,,,,15,,61,0
37439,note_on,,59,0,12,,,,,,,,,,,,,,,,15,,57,0
37439,note_on,,29,0,6,,,,,,,,,,,,,,,,3,,74,0
37439,note_on,,59,0,7,,,,,,,,,,,,,,,,8,,57,0
37439,note_on,,59,0,11,,,,,,,,,,,,,,,,13,,57,0
37439,note_on,,59,0,5,,,,,,,,,,,,,,,,2,,57,0
37440,note_on,,1,0,5,,,,,,,,,,,,,,,,2,,55,48
37440,note_on,,1,0,7,,,,,,,,,,,,,,,,8,,55,72
37440,note_on,,1,0,11,,,,,,,,,,,,,,,,13,,55,48
37440,note_on,,1,0,12,,,,,,,,,,,,,,,,15,,55,48
37440,note_on,,0,0,12,,,,,,,,,,,,,,,,15,,59,48
37440,note_on,,1,0,6,,,,,,,,,,,,,,,,3,,76,64
37499,note_on,,59,0,5,,,,,,,,,,,,,,,,2,,55,0
37499,note_on,,59,0,7,,,,,,,,,,,,,,,,8,,55,0
37499,note_on,,59,0,11,,,,,,,,,,,,,,,,13,,55,0
37499,note_on,,59,0,6,,,,,,,,,,,,,,,,3,,76,0
37499,note_on,,59,0,12,,,,,,,,,,,,,,,,15,,55,0
37499,note_on,,0,0,12,,,,,,,,,,,,,,,,15,,59,0
37500,note_on,,1,0,7,,,,,,,,,,,,,,,,8,,54,72
37500,note_on,,1,0,11,,,,,,,,,,,,,,,,13,,54,48
37500,note_on,,0,0,12,,,,,,,,,,,,,,,,15,,57,48
37500,note_on,,1,0,12,,,,,,,,,,,,,,,,15,,54,48
37500,note_on,,1,0,5,,,,,,,,,,,,,,,,2,,54,48
37500,note_on,,1,0,6,,,,,,,,,,,,,,,,3,,78,64
37559,note_on,,59,0,11,,,,,,,,,,,,,,,,13,,54,0
37559,note_on,,0,0,12,,,,,,,,,,,,,,,,15,,57,0
37559,note_on,,59,0,7,,,,,,,,,,,,,,,,8,,54,0
37559,note_on,,59,0,5,,,,,,,,,,,,,,,,2,,54,0
37559,note_on,,0,0,12,,,,,,,,,,,,,,,,15,,54,0
37559,note_on,,59,0,12,,,,,,,,,,,,,,,,15,,67,0
37559,note_on,,59,0,6,,,,,,,,,,,,,,,,3,,78,0
37560,note_on,,0,0,12,,,,,,,,,,,,,,,,15,,55,48
37560,note_on,,0,0,12,,,,,,,,,,,,,,,,15,,52,48
37560,note_on,,1,0,11,,,,,,,,,,,,,,,,13,,52,48
37560,note_on,,1,0,12,,,,,,,,,,,,,,,,15,,67,48
37560,note_on,,1,0,6,,,,,,,,,,,,,,,,3,,79,64
37560,note_on,,1,0,5,,,,,,,,,,,,,,,,2,,52,48
37560,note_on,,1,0,7,,,,,,,,,,,,,,,,8,,52,72
37560,note_on,,0,0,12,,,,,,,,,,,,,,,,15,,59,48
37619,note_on,,59,0,11,,,,,,,,,,,,,,,,13,,52,0
37619,note_on,,59,0,5,,,,,,,,,,,,,,,,2,,52,0
37619,note_on,,59,0,12,,,,,,,,,,,,,,,,15,,52,0
37619,note_on,,59,0,7,,,,,,,,,,,,,,,,8,,52,0
37620,note_on,,1,0,11,,,,,,,,,,,,,,,,13,,54,48
37620,note_on,,1,0,5,,,,,,,,,,,,,,,,2,,54,48
37620,note_on,,1,0,12,,,,,,,,,,,,,,,,15,,54,48
37620,note_on,,1,0,7,,,,,,,,,,,,,,,,8,,54,72
37679,note_on,,59,0,7,,,,,,,,,,,,,,,,8,,54,0
37679,note_on,,59,0,11,,,,,,,,,,,,,,,,13,,54,0
37679,note_on,,0,0,12,,,,,,,,,,,,,,,,15,,59,0
37679,note_on,,0,0,12,,,,,,,,,,,,,,,,15,,54,0
37679,note_on,,59,0,5,,,,,,,,,,,,,,,,2,,54,0
37679,note_on,,59,0,12,,,,,,,,,,,,,,,,15,,67,0
37679,note_on,,0,0,12,,,,,,,,,,,,,,,,15,,55,0
37680,note_on,,1,0,11,,,,,,,,,,,,,,,,13,,52,48
37680,note_on,,1,0,5,,,,,,,,,,,,,,,,2,,52,48
37680,note_on,,1,0,12,,,,,,,,,,,,,,,,15,,64,48
37680,note_on,,0,0,12,,,,,,,,,,,,,,,,15,,67,48
37680,note_on,,0,0,12,,,,,,,,,,,,,,,,15,,52,48
37680,note_on,,0,0,12,,,,,,,,,,,,,,,,15,,71,48
37680,note_on,,1,0,7,,,,,,,,,,,,,,,,8,,52,72
37739,note_on,,59,0,7,,,,,,,,,,,,,,,,8,,52,0
37739,note_on,,59,0,12,,,,,,,,,,,,,,,,15,,52,0
37739,note_on,,59,0,11,,,,,,,,,,,,,,,,13,,52,0
37739,note_on,,59,0,5,,,,,,,,,,,,,,,,2,,52,0
37740,note_on,,1,0,7,,,,,,,,,,,,,,,,8,,50,72
37740,note_on,,1,0,12,,,,,,,,,,,,,,,,15,,50,48
37740,note_on,,1,0,11,,,,,,,,,,,,,,,,13,,50,48
37740,note_on,,1,0,5,,,,,,,,,,,,,,,,2,,50,48
37799,note_on,,0,0,12,,,,,,,,,,,,,,,,15,,50,0
37799,note_on,,59,0,5,,,,,,,,,,,,,,,,2,,50,0
37799,note_on,,0,0,12,,,,,,,,,,,,,,,,15,,71,0
37799,note_on,,0,0,12,,,,,,,,,,,,,,,,15,,67,0
37799,note_on,,59,0,12,,,,,,,,,,,,,,,,15,,64,0
37799,note_on,,59,0,7,,,,,,,,,,,,,,,,8,,50,0
37799,note_on,,59,0,11,,,,,,,,,,,,,,,,13,,50,0
37800,note_on,,0,0,12,,,,,,,,,,,,,,,,15,,52,48
37800,note_on,,1,0,12,,,,,,,,,,,,,,,,15,,64,48
37800,note_on,,0,0,12,,,,,,,,,,,,,,,,15,,49,48
37800,note_on,,0,0,12,,,,,,,,,,,,,,,,15,,76,48
37800,note_on,,1,0,11,,,,,,,,,,,,,,,,13,,49,48
37800,note_on,,1,0,7,,,,,,,,,,,,,,,,8,,49,72
37800,note_on,,1,0,5,,,,,,,,,,,,,,,,2,,49,48
37859,note_on,,59,0,5,,,,,,,,,,,,,,,,2,,49,0
37859,note_on,,59,0,7,,,,,,,,,,,,,,,,8,,49,0
37859,note_on,,59,0,11,,,,,,,,,,,,,,,,13,,49,0
37859,note_on,,0,0,12,,,,,,,,,,,,,,,,15,,76,0
37859,note_on,,59,0,12,,,,,,,,,,,,,,,,15,,49,0
37860,note_on,,1,0,7,,,,,,,,,,,,,,,,8,,47,72
37860,note_on,,1,0,11,,,,,,,,,,,,,,,,13,,47,48
37860,note_on,,1,0,5,,,,,,,,,,,,,,,,2,,47,48
37860,note_on,,0,0,12,,,,,,,,,,,,,,,,15,,47,48
37860,note_on,,1,0,12,,,,,,,,,,,,,,,,15,,74,48
37919,note_on,,59,0,11,,,,,,,,,,,,,,,,13,,47,0
37919,note_on,,59,0,5,,,,,,,,,,,,,,,,2,,47,0
37919,note_on,,59,0,7,,,,,,,,,,,,,,,,8,,47,0
37919,note_on,,59,0,12,,,,,,,,,,,,,,,,15,,64,0
37919,note_on,,0,0,12,,,,,,,,,,,,,,,,15,,52,0
37919,note_on,,0,0,12,,,,,,,,,,,,,,,,15,,47,0
37919,note_on,,0,0,12,,,,,,,,,,,,,,,,15,,74,0
37920,note_on,,1,0,5,,,,,,,,,,,,,,,,2,,45,48
37920,note_on,,0,0,12,,,,,,,,,,,,,,,,15,,45,48
37920,note_on,,1,0,12,,,,,,,,,,,,,,,,15,,64,48
37920,note_on,,1,0,11,,,,,,,,,,,,,,,,13,,45,48
37920,note_on,,0,0,12,,,,,,,,,,,,,,,,15,,73,48
37920,note_on,,1,0,7,,,,,,,,,,,,,,,,8,,45,72
37920,note_on,,0,0,12,,,,,,,,,,,,,,,,15,,69,48
37979,note_on,,419,0,6,,,,,,,,,,,,,,,,3,,79,0
37980,note_on,,1,0,6,,,,,,,,,,,,,,,,3,,81,64
38039,note_on,,59,0,6,,,,,,,,,,,,,,,,3,,81,0
38040,note_on,,1,0,6,,,,,,,,,,,,,,,,3,,79,64
38099,note_on,,59,0,6,,,,,,,,,,,,,,,,3,,79,0
38100,note_on,,1,0,6,,,,,,,,,,,,,,,,3,,78,64
38159,note_on,,0,0,12,,,,,,,,,,,,,,,,15,,73,0
38159,note_on,,0,0,12,,,,,,,,,,,,,,,,15,,69,0
38159,note_on,,0,0,12,,,,,,,,,,,,,,,,15,,45,0
38159,note_on,,239,0,12,,,,,,,,,,,,,,,,15,,64,0
38159,note_on,,59,0,6,,,,,,,,,,,,,,,,3,,78,0
38159,note_on,,239,0,7,,,,,,,,,,,,,,,,8,,45,0
38159,note_on,,239,0,5,,,,,,,,,,,,,,,,2,,45,0
38159,note_on,,239,0,11,,,,,,,,,,,,,,,,13,,45,0
38160,note_on,,1,0,7,,,,,,,,,,,,,,,,8,,61,72
38160,note_on,,0,0,12,,,,,,,,,,,,,,,,15,,69,48
38160,note_on,,1,0,6,,,,,,,,,,,,,,,,3,,79,64
38160,note_on,,1,0,11,,,,,,,,,,,,,,,,13,,61,48
38160,note_on,,0,0,12,,,,,,,,,,,,,,,,15,,64,48
38160,note_on,,1,0,12,,,,,,,,,,,,,,,,15,,61,48
38160,note_on,,1,0,5,,,,,,,,,,,,,,,,2,,61,48
38219,note_on,,59,0,6,,,,,,,,,,,,,,,,3,,79,0
38220,note_on,,1,0,6,,,,,,,,,,,,,,,,3,,76,64
38279,note_on,,0,0,12,,,,,,,,,,,,,,,,15,,64,0
38279,note_on,,59,0,6,,,,,,,,,,,,,,,,3,,76,0
38279,note_on,,119,0,7,,,,,,,,,,,,,,,,8,,61,0
38279,note_on,,119,0,12,,,,,,,,,,,,,,,,15,,61,0
38279,note_on,,119,0,5,,,,,,,,,,,,,,,,2,,61,0
38279,note_on,,119,0,11,,,,,,,,,,,,,,,,13,,61,0
38280,note_on,,1,0,12,,,,,,,,,,,,,,,,15,,66,48
38280,note_on,,1,0,5,,,,,,,,,,,,,,,,2,,62,48
38280,note_on,,1,0,6,,,,,,,,,,,,,,,,3,,78,64
38280,note_on,,1,0,11,,,,,,,,,,,,,,,,13,,62,48
38280,note_on,,1,0,7,,,,,,,,,,,,,,,,8,,62,72
38280,note_on,,0,0,12,,,,,,,,,,,,,,,,15,,62,48
38339,note_on,,59,0,12,,,,,,,,,,,,,,,,15,,62,0
38339,note_on,,59,0,6,,,,,,,,,,,,,,,,3,,78,0
38339,note_on,,59,0,7,,,,,,,,,,,,,,,,8,,62,0
38339,note_on,,59,0,11,,,,,,,,,,,,,,,,13,,62,0
38339,note_on,,59,0,5,,,,,,,,,,,,,,,,2,,62,0
38340,note_on,,1,0,12,,,,,,,,,,,,,,,,15,,61,48
38340,note_on,,1,0,5,,,,,,,,,,,,,,,,2,,61,48
38340,note_on,,1,0,6,,,,,,,,,,,,,,,,3,,79,64
38340,note_on,,1,0,11,,,,,,,,,,,,,,,,13,,61,48
38340,note_on,,1,0,7,,,,,,,,,,,,,,,,8,,61,72
38399,note_on,,59,0,11,,,,,,,,,,,,,,,,13,,61,0
38399,note_on,,59,0,12,,,,,,,,,,,,,,,,15,,69,0
38399,note_on,,59,0,7,,,,,,,,,,,,,,,,8,,61,0
38399,note_on,,59,0,5,,,,,,,,,,,,,,,,2,,61,0
38399,note_on,,59,0,6,,,,,,,,,,,,,,,,3,,79,0
38399,note_on,,0,0,12,,,,,,,,,,,,,,,,15,,66,0
38399,note_on,,0,0,12,,,,,,,,,,,,,,,,15,,61,0
38400,note_on,,1,0,6,,,,,,,,,,,,,,,,3,,78,64
38400,note_on,,1,0,7,,,,,,,,,,,,,,,,8,,62,72
38400,note_on,,1,0,12,,,,,,,,,,,,,,,,15,,74,48
38400,note_on,,0,0,12,,,,,,,,,,,,,,,,15,,66,48
38400,note_on,,1,0,11,,,,,,,,,,,,,,,,13,,62,48
38400,note_on,,0,0,12,,,,,,,,,,,,,,,,15,,62,48
38400,note_on,,0,0,12,,,,,,,,,,,,,,,,15,,69,48
38400,note_on,,1,0,5,,,,,,,,,,,,,,,,2,,62,48
38414,note_on,,14,0,6,,,,,,,,,,,,,,,,3,,78,0
38415,note_on,,1,0,6,,,,,,,,,,,,,,,,3,,79,64
38429,note_on,,14,0,6,,,,,,,,,,,,,,,,3,,79,0
38430,note_on,,1,0,6,,,,,,,,,,,,,,,,3,,78,64
38444,note_on,,14,0,6,,,,,,,,,,,,,,,,3,,78,0
38445,note_on,,1,0,6,,,,,,,,,,,,,,,,3,,79,64
38459,note_on,,14,0,6,,,,,,,,,,,,,,,,3,,79,0
38460,note_on,,1,0,6,,,,,,,,,,,,,,,,3,,78,64
38474,note_on,,14,0,6,,,,,,,,,,,,,,,,3,,78,0
38475,note_on,,1,0,6,,,,,,,,,,,,,,,,3,,79,64
38489,note_on,,14,0,6,,,,,,,,,,,,,,,,3,,79,0
38490,note_on,,1,0,6,,,,,,,,,,,,,,,,3,,78,64
38504,note_on,,14,0,6,,,,,,,,,,,,,,,,3,,78,0
38505,note_on,,1,0,6,,,,,,,,,,,,,,,,3,,79,64
38519,note_on,,119,0,5,,,,,,,,,,,,,,,,2,,62,0
38519,note_on,,119,0,11,,,,,,,,,,,,,,,,13,,62,0
38519,note_on,,119,0,12,,,,,,,,,,,,,,,,15,,62,0
38519,note_on,,119,0,7,,,,,,,,,,,,,,,,8,,62,0
38519,note_on,,14,0,6,,,,,,,,,,,,,,,,3,,79,0
38520,note_on,,1,0,11,,,,,,,,,,,,,,,,13,,50,48
38520,note_on,,1,0,5,,,,,,,,,,,,,,,,2,,50,48
38520,note_on,,1,0,7,,,,,,,,,,,,,,,,8,,50,72
38520,note_on,,1,0,6,,,,,,,,,,,,,,,,3,,78,64
38520,note_on,,1,0,12,,,,,,,,,,,,,,,,15,,50,48
38534,note_on,,14,0,6,,,,,,,,,,,,,,,,3,,78,0
38535,note_on,,1,0,6,,,,,,,,,,,,,,,,3,,79,64
38549,note_on,,14,0,6,,,,,,,,,,,,,,,,3,,79,0
38550,note_on,,1,0,6,,,,,,,,,,,,,,,,3,,76,64
38564,note_on,,14,0,6,,,,,,,,,,,,,,,,3,,76,0
38565,note_on,,1,0,6,,,,,,,,,,,,,,,,3,,78,64
38579,note_on,,14,0,6,,,,,,,,,,,,,,,,3,,78,0
38580,note_on,,1,0,6,,,,,,,,,,,,,,,,3,,76,64
38639,note_on,,0,0,12,,,,,,,,,,,,,,,,15,,69,0
38639,note_on,,59,0,6,,,,,,,,,,,,,,,,3,,76,0
38639,note_on,,119,0,7,,,,,,,,,,,,,,,,8,,50,0
38639,note_on,,119,0,12,,,,,,,,,,,,,,,,15,,74,0
38639,note_on,,0,0,12,,,,,,,,,,,,,,,,15,,66,0
38639,note_on,,119,0,5,,,,,,,,,,,,,,,,2,,50,0
38639,note_on,,0,0,12,,,,,,,,,,,,,,,,15,,50,0
38639,note_on,,119,0,11,,,,,,,,,,,,,,,,13,,50,0
38640,note_on,,1,0,7,,,,,,,,,,,,,,,,8,,57,72
38640,note_on,,0,0,12,,,,,,,,,,,,,,,,15,,73,48
38640,note_on,,1,0,11,,,,,,,,,,,,,,,,13,,57,48
38640,note_on,,0,0,12,,,,,,,,,,,,,,,,15,,57,48
38640,note_on,,0,0,12,,,,,,,,,,,,,,,,15,,64,48
38640,note_on,,0,0,12,,,,,,,,,,,,,,,,15,,76,48
38640,note_on,,1,0,5,,,,,,,,,,,,,,,,2,,57,48
38640,note_on,,1,0,6,,,,,,,,,,,,,,,,3,,76,64
38640,note_on,,1,0,12,,,,,,,,,,,,,,,,15,,69,48
38759,note_on,,0,0,12,,,,,,,,,,,,,,,,15,,73,0
38759,note_on,,119,0,11,,,,,,,,,,,,,,,,13,,57,0
38759,note_on,,119,0,5,,,,,,,,,,,,,,,,2,,57,0
38759,note_on,,0,0,12,,,,,,,,,,,,,,,,15,,64,0
38759,note_on,,119,0,12,,,,,,,,,,,,,,,,15,,69,0
38759,note_on,,0,0,12,,,,,,,,,,,,,,,,15,,76,0
38759,note_on,,0,0,12,,,,,,,,,,,,,,,,15,,57,0
38760,note_on,,1,0,5,,,,,,,,,,,,,,,,2,,61,48
38760,note_on,,0,0,12,,,,,,,,,,,,,,,,15,,64,48
38760,note_on,,0,0,12,,,,,,,,,,,,,,,,15,,61,48
38760,note_on,,1,0,12,,,,,,,,,,,,,,,,15,,69,48
38760,note_on,,1,0,11,,,,,,,,,,,,,,,,13,,61,48
38879,note_on,,0,0,12,,,,,,,,,,,,,,,,15,,64,0
38879,note_on,,0,0,12,,,,,,,,,,,,,,,,15,,61,0
38879,note_on,,239,0,6,,,,,,,,,,,,,,,,3,,76,0
38879,note_on,,119,0,12,,,,,,,,,,,,,,,,15,,69,0
38879,note_on,,119,0,5,,,,,,,,,,,,,,,,2,,61,0
38879,note_on,,119,0,11,,,,,,,,,,,,,,,,13,,61,0
38880,note_on,,1,0,12,,,,,,,,,,,,,,,,15,,57,72
38880,note_on,,0,0,12,,,,,,,,,,,,,,,,15,,69,72
38880,note_on,,0,0,12,,,,,,,,,,,,,,,,15,,73,72
38880,note_on,,0,0,12,,,,,,,,,,,,,,,,15,,64,72
38880,note_on,,3601,0,9,,,,,,,,,,,,,,,,11,,73,72
38880,note_on,,1,0,5,,,,,,,,,,,,,,,,2,,57,72
38880,note_on,,1,0,11,,,,,,,,,,,,,,,,13,,57,72
38880,note_on,,3601,0,8,,,,,,,,,,,,,,,,10,,79,72
38880,note_on,,3601,0,10,,,,,,,,,,,,,,,,12,,64,72
38999,note_on,,119,0,9,,,,,,,,,,,,,,,,11,,73,0
38999,note_on,,119,0,10,,,,,,,,,,,,,,,,12,,64,0
38999,note_on,,119,0,11,,,,,,,,,,,,,,,,13,,57,0
38999,note_on,,119,0,12,,,,,,,,,,,,,,,,15,,57,0
38999,note_on,,0,0,12,,,,,,,,,,,,,,,,15,,69,0
38999,note_on,,0,0,12,,,,,,,,,,,,,,,,15,,73,0
38999,note_on,,0,0,12,,,,,,,,,,,,,,,,15,,64,0
38999,note_on,,119,0,5,,,,,,,,,,,,,,,,2,,57,0
38999,note_on,,359,0,7,,,,,,,,,,,,,,,,8,,57,0
38999,note_on,,119,0,8,,,,,,,,,,,,,,,,10,,79,0
39000,note_on,,1,0,9,,,,,,,,,,,,,,,,11,,69,72
39000,note_on,,1,0,10,,,,,,,,,,,,,,,,12,,66,72
39000,note_on,,1,0,12,,,,,,,,,,,,,,,,15,,69,72
39000,note_on,,0,0,12,,,,,,,,,,,,,,,,15,,62,72
39000,note_on,,0,0,12,,,,,,,,,,,,,,,,15,,66,72
39000,note_on,,0,0,12,,,,,,,,,,,,,,,,15,,74,72
39000,note_on,,1,0,8,,,,,,,,,,,,,,,,10,,78,72
39000,note_on,,1,0,5,,,,,,,,,,,,,,,,2,,62,72
39000,note_on,,1,0,11,,,,,,,,,,,,,,,,13,,62,72
39059,note_on,,59,0,10,,,,,,,,,,,,,,,,12,,66,0
39059,note_on,,59,0,8,,,,,,,,,,,,,,,,10,,78,0
39060,note_on,,1,0,10,,,,,,,,,,,,,,,,12,,67,72
39060,note_on,,1,0,8,,,,,,,,,,,,,,,,10,,76,72
39119,note_on,,0,0,12,,,,,,,,,,,,,,,,15,,62,0
39119,note_on,,0,0,12,,,,,,,,,,,,,,,,15,,66,0
39119,note_on,,0,0,12,,,,,,,,,,,,,,,,15,,74,0
39119,note_on,,119,0,5,,,,,,,,,,,,,,,,2,,62,0
39119,note_on,,119,0,12,,,,,,,,,,,,,,,,15,,69,0
39119,note_on,,119,0,11,,,,,,,,,,,,,,,,13,,62,0
39119,note_on,,119,0,9,,,,,,,,,,,,,,,,11,,69,0
39119,note_on,,59,0,10,,,,,,,,,,,,,,,,12,,67,0
39119,note_on,,59,0,8,,,,,,,,,,,,,,,,10,,76,0
39120,note_on,,1,0,11,,,,,,,,,,,,,,,,13,,54,72
39120,note_on,,1,0,5,,,,,,,,,,,,,,,,2,,54,72
39120,note_on,,0,0,12,,,,,,,,,,,,,,,,15,,54,72
39120,note_on,,0,0,12,,,,,,,,,,,,,,,,15,,69,72
39120,note_on,,1,0,12,,,,,,,,,,,,,,,,15,,62,72
39120,note_on,,1,0,9,,,,,,,,,,,,,,,,11,,69,72
39120,note_on,,1,0,10,,,,,,,,,,,,,,,,12,,69,72
39120,note_on,,1,0,8,,,,,,,,,,,,,,,,10,,74,72
39179,note_on,,59,0,8,,,,,,,,,,,,,,,,10,,74,0
39180,note_on,,1,0,8,,,,,,,,,,,,,,,,10,,78,72
39239,note_on,,119,0,9,,,,,,,,,,,,,,,,11,,69,0
39239,note_on,,59,0,8,,,,,,,,,,,,,,,,10,,78,0
39239,note_on,,119,0,11,,,,,,,,,,,,,,,,13,,54,0
39239,note_on,,119,0,12,,,,,,,,,,,,,,,,15,,62,0
39239,note_on,,0,0,12,,,,,,,,,,,,,,,,15,,54,0
39239,note_on,,119,0,10,,,,,,,,,,,,,,,,12,,69,0
39239,note_on,,119,0,5,,,,,,,,,,,,,,,,2,,54,0
39239,note_on,,0,0,12,,,,,,,,,,,,,,,,15,,69,0
39240,note_on,,0,0,12,,,,,,,,,,,,,,,,15,,62,72
39240,note_on,,0,0,12,,,,,,,,,,,,,,,,15,,71,72
39240,note_on,,1,0,9,,,,,,,,,,,,,,,,11,,71,72
39240,note_on,,0,0,12,,,,,,,,,,,,,,,,15,,68,72
39240,note_on,,1,0,12,,,,,,,,,,,,,,,,15,,59,72
39240,note_on,,1,0,5,,,,,,,,,,,,,,,,2,,59,72
39240,note_on,,1,0,10,,,,,,,,,,,,,,,,12,,68,72
39240,note_on,,1,0,8,,,,,,,,,,,,,,,,10,,76,72
39240,note_on,,1,0,11,,,,,,,,,,,,,,,,13,,59,72
39299,note_on,,59,0,8,,,,,,,,,,,,,,,,10,,76,0
39300,note_on,,1,0,8,,,,,,,,,,,,,,,,10,,74,72
39359,note_on,,0,0,12,,,,,,,,,,,,,,,,15,,62,0
39359,note_on,,119,0,12,,,,,,,,,,,,,,,,15,,59,0
39359,note_on,,0,0,12,,,,,,,,,,,,,,,,15,,68,0
39359,note_on,,0,0,12,,,,,,,,,,,,,,,,15,,71,0
39359,note_on,,119,0,11,,,,,,,,,,,,,,,,13,,59,0
39359,note_on,,119,0,9,,,,,,,,,,,,,,,,11,,71,0
39359,note_on,,119,0,10,,,,,,,,,,,,,,,,12,,68,0
39359,note_on,,59,0,8,,,,,,,,,,,,,,,,10,,74,0
39359,note_on,,119,0,5,,,,,,,,,,,,,,,,2,,59,0
39360,note_on,,1,0,9,,,,,,,,,,,,,,,,11,,73,72
39360,note_on,,0,0,12,,,,,,,,,,,,,,,,15,,69,72
39360,note_on,,0,0,12,,,,,,,,,,,,,,,,15,,57,72
39360,note_on,,1,0,12,,,,,,,,,,,,,,,,15,,64,72
39360,note_on,,1,0,8,,,,,,,,,,,,,,,,10,,76,72
39360,note_on,,1,0,10,,,,,,,,,,,,,,,,12,,69,72
39360,note_on,,0,0,12,,,,,,,,,,,,,,,,15,,73,72
39360,note_on,,1,0,11,,,,,,,,,,,,,,,,13,,57,72
39360,note_on,,1,0,5,,,,,,,,,,,,,,,,2,,57,72
39479,note_on,,119,0,5,,,,,,,,,,,,,,,,2,,57,0
39479,note_on,,119,0,12,,,,,,,,,,,,,,,,15,,57,0
39479,note_on,,0,0,12,,,,,,,,,,,,,,,,15,,69,0
39479,note_on,,119,0,11,,,,,,,,,,,,,,,,13,,57,0
39479,note_on,,0,0,12,,,,,,,,,,,,,,,,15,,73,0
39480,note_on,,0,0,12,,,,,,,,,,,,,,,,15,,69,72
39480,note_on,,1,0,11,,,,,,,,,,,,,,,,13,,61,72
39480,note_on,,1,0,5,,,,,,,,,,,,,,,,2,,61,72
39480,note_on,,0,0,12,,,,,,,,,,,,,,,,15,,61,72
39480,note_on,,1,0,12,,,,,,,,,,,,,,,,15,,76,72
39599,note_on,,119,0,11,,,,,,,,,,,,,,,,13,,61,0
39599,note_on,,239,0,8,,,,,,,,,,,,,,,,10,,76,0
39599,note_on,,239,0,10,,,,,,,,,,,,,,,,12,,69,0
39599,note_on,,0,0,12,,,,,,,,,,,,,,,,15,,76,0
39599,note_on,,119,0,5,,,,,,,,,,,,,,,,2,,61,0
39599,note_on,,239,0,9,,,,,,,,,,,,,,,,11,,73,0
39599,note_on,,0,0,12,,,,,,,,,,,,,,,,15,,69,0
39599,note_on,,119,0,12,,,,,,,,,,,,,,,,15,,64,0
39599,note_on,,0,0,12,,,,,,,,,,,,,,,,15,,61,0
39600,note_on,,0,0,12,,,,,,,,,,,,,,,,15,,57,48
39600,note_on,,0,0,12,,,,,,,,,,,,,,,,15,,73,48
39600,note_on,,1,0,12,,,,,,,,,,,,,,,,15,,64,48
39600,note_on,,0,0,12,,,,,,,,,,,,,,,,15,,69,48
39600,note_on,,1,0,5,,,,,,,,,,,,,,,,2,,57,48
39600,note_on,,721,0,6,,,,,,,,,,,,,,,,3,,79,64
39600,note_on,,1,0,11,,,,,,,,,,,,,,,,13,,57,48
39600,note_on,,601,0,7,,,,,,,,,,,,,,,,8,,61,72
39719,note_on,,0,0,12,,,,,,,,,,,,,,,,15,,57,0
39719,note_on,,0,0,12,,,,,,,,,,,,,,,,15,,73,0
39719,note_on,,0,0,12,,,,,,,,,,,,,,,,15,,69,0
39719,note_on,,119,0,6,,,,,,,,,,,,,,,,3,,79,0
39719,note_on,,119,0,12,,,,,,,,,,,,,,,,15,,64,0
39719,note_on,,119,0,7,,,,,,,,,,,,,,,,8,,61,0
39719,note_on,,119,0,5,,,,,,,,,,,,,,,,2,,57,0
39719,note_on,,119,0,11,,,,,,,,,,,,,,,,13,,57,0
39720,note_on,,0,0,12,,,,,,,,,,,,,,,,15,,62,48
39720,note_on,,1,0,6,,,,,,,,,,,,,,,,3,,78,64
39720,note_on,,1,0,5,,,,,,,,,,,,,,,,2,,62,48
39720,note_on,,1,0,11,,,,,,,,,,,,,,,,13,,62,48
39720,note_on,,1,0,12,,,,,,,,,,,,,,,,15,,74,48
39720,note_on,,0,0,12,,,,,,,,,,,,,,,,15,,66,48
39720,note_on,,1,0,7,,,,,,,,,,,,,,,,8,,62,72
39720,note_on,,0,0,12,,,,,,,,,,,,,,,,15,,69,48
39779,note_on,,59,0,6,,,,,,,,,,,,,,,,3,,78,0
39780,note_on,,1,0,6,,,,,,,,,,,,,,,,3,,76,64
39839,note_on,,119,0,7,,,,,,,,,,,,,,,,8,,62,0
39839,note_on,,59,0,6,,,,,,,,,,,,,,,,3,,76,0
39839,note_on,,119,0,5,,,,,,,,,,,,,,,,2,,62,0
39839,note_on,,119,0,11,,,,,,,,,,,,,,,,13,,62,0
39839,note_on,,119,0,12,,,,,,,,,,,,,,,,15,,62,0
39840,note_on,,1,0,6,,,,,,,,,,,,,,,,3,,74,64
39840,note_on,,1,0,11,,,,,,,,,,,,,,,,13,,50,48
39840,note_on,,1,0,7,,,,,,,,,,,,,,,,8,,50,72
39840,note_on,,1,0,5,,,,,,,,,,,,,,,,2,,50,48
39840,note_on,,1,0,12,,,,,,,,,,,,,,,,15,,50,48
39899,note_on,,59,0,6,,,,,,,,,,,,,,,,3,,74,0
39900,note_on,,1,0,6,,,,,,,,,,,,,,,,3,,78,64
39959,note_on,,119,0,11,,,,,,,,,,,,,,,,13,,50,0
39959,note_on,,59,0,6,,,,,,,,,,,,,,,,3,,78,0
39959,note_on,,119,0,7,,,,,,,,,,,,,,,,8,,50,0
39959,note_on,,119,0,5,,,,,,,,,,,,,,,,2,,50,0
39959,note_on,,0,0,12,,,,,,,,,,,,,,,,15,,66,0
39959,note_on,,0,0,12,,,,,,,,,,,,,,,,15,,69,0
39959,note_on,,0,0,12,,,,,,,,,,,,,,,,15,,50,0
39959,note_on,,119,0,12,,,,,,,,,,,,,,,,15,,74,0
39960,note_on,,1,0,7,,,,,,,,,,,,,,,,8,,62,72
39960,note_on,,1,0,6,,,,,,,,,,,,,,,,3,,76,64
39960,note_on,,1,0,11,,,,,,,,,,,,,,,,13,,62,48
39960,note_on,,0,0,12,,,,,,,,,,,,,,,,15,,62,48
39960,note_on,,0,0,12,,,,,,,,,,,,,,,,15,,69,48
39960,note_on,,1,0,5,,,,,,,,,,,,,,,,2,,62,48
39960,note_on,,1,0,12,,,,,,,,,,,,,,,,15,,74,48
39960,note_on,,0,0,12,,,,,,,,,,,,,,,,15,,78,48
40019,note_on,,59,0,6,,,,,,,,,,,,,,,,3,,76,0
40020,note_on,,1,0,6,,,,,,,,,,,,,,,,3,,74,64
40079,note_on,,119,0,11,,,,,,,,,,,,,,,,13,,62,0
40079,note_on,,119,0,5,,,,,,,,,,,,,,,,2,,62,0
40079,note_on,,0,0,12,,,,,,,,,,,,,,,,15,,78,0
40079,note_on,,0,0,12,,,,,,,,,,,,,,,,15,,69,0
40079,note_on,,0,0,12,,,,,,,,,,,,,,,,15,,62,0
40079,note_on,,119,0,12,,,,,,,,,,,,,,,,15,,74,0
40079,note_on,,119,0,7,,,,,,,,,,,,,,,,8,,62,0
40079,note_on,,59,0,6,,,,,,,,,,,,,,,,3,,74,0
40080,note_on,,1,0,12,,,,,,,,,,,,,,,,15,,61,48
40080,note_on,,0,0,12,,,,,,,,,,,,,,,,15,,64,48
40080,note_on,,1,0,6,,,,,,,,,,,,,,,,3,,76,64
40080,note_on,,0,0,12,,,,,,,,,,,,,,,,15,,69,48
40080,note_on,,1,0,5,,,,,,,,,,,,,,,,2,,61,48
40080,note_on,,1,0,11,,,,,,,,,,,,,,,,13,,61,48
40080,note_on,,1,0,7,,,,,,,,,,,,,,,,8,,61,72
40139,note_on,,59,0,11,,,,,,,,,,,,,,,,13,,61,0
40139,note_on,,0,0,12,,,,,,,,,,,,,,,,15,,64,0
40139,note_on,,59,0,12,,,,,,,,,,,,,,,,15,,61,0
40139,note_on,,59,0,7,,,,,,,,,,,,,,,,8,,61,0
40139,note_on,,59,0,5,,,,,,,,,,,,,,,,2,,61,0
40140,note_on,,1,0,7,,,,,,,,,,,,,,,,8,,59,72
40140,note_on,,1,0,5,,,,,,,,,,,,,,,,2,,59,48
40140,note_on,,0,0,12,,,,,,,,,,,,,,,,15,,62,48
40140,note_on,,1,0,12,,,,,,,,,,,,,,,,15,,59,48
40140,note_on,,1,0,11,,,,,,,,,,,,,,,,13,,59,48
40199,note_on,,0,0,12,,,,,,,,,,,,,,,,15,,62,0
40199,note_on,,59,0,5,,,,,,,,,,,,,,,,2,,59,0
40199,note_on,,59,0,12,,,,,,,,,,,,,,,,15,,59,0
40199,note_on,,59,0,7,,,,,,,,,,,,,,,,8,,59,0
40199,note_on,,59,0,11,,,,,,,,,,,,,,,,13,,59,0
40200,note_on,,1,0,7,,,,,,,,,,,,,,,,8,,57,72
40200,note_on,,1,0,5,,,,,,,,,,,,,,,,2,,57,48
40200,note_on,,1,0,12,,,,,,,,,,,,,,,,15,,57,48
40200,note_on,,0,0,12,,,,,,,,,,,,,,,,15,,61,48
40200,note_on,,1,0,11,,,,,,,,,,,,,,,,13,,57,48
40259,note_on,,59,0,5,,,,,,,,,,,,,,,,2,,57,0
40259,note_on,,59,0,12,,,,,,,,,,,,,,,,15,,57,0
40259,note_on,,59,0,7,,,,,,,,,,,,,,,,8,,57,0
40259,note_on,,59,0,11,,,,,,,,,,,,,,,,13,,57,0
40259,note_on,,0,0,12,,,,,,,,,,,,,,,,15,,61,0
40260,note_on,,1,0,7,,,,,,,,,,,,,,,,8,,61,72
40260,note_on,,1,0,5,,,,,,,,,,,,,,,,2,,61,48
40260,note_on,,1,0,11,,,,,,,,,,,,,,,,13,,61,48
40260,note_on,,0,0,12,,,,,,,,,,,,,,,,15,,64,48
40260,note_on,,1,0,12,,,,,,,,,,,,,,,,15,,61,48
40319,note_on,,239,0,6,,,,,,,,,,,,,,,,3,,76,0
40319,note_on,,59,0,5,,,,,,,,,,,,,,,,2,,61,0
40319,note_on,,59,0,11,,,,,,,,,,,,,,,,13,,61,0
40319,note_on,,0,0,12,,,,,,,,,,,,,,,,15,,64,0
40319,note_on,,59,0,12,,,,,,,,,,,,,,,,15,,61,0
40319,note_on,,59,0,7,,,,,,,,,,,,,,,,8,,61,0
40320,note_on,,1,0,11,,,,,,,,,,,,,,,,13,,59,48
40320,note_on,,0,0,12,,,,,,,,,,,,,,,,15,,62,48
40320,note_on,,1,0,5,,,,,,,,,,,,,,,,2,,59,48
40320,note_on,,1,0,7,,,,,,,,,,,,,,,,8,,59,72
40320,note_on,,721,0,10,,,,,,,,,,,,,,,,12,,64,48
40320,note_on,,1,0,6,,,,,,,,,,,,,,,,3,,81,64
40320,note_on,,721,0,9,,,,,,,,,,,,,,,,11,,64,48
40320,note_on,,1,0,12,,,,,,,,,,,,,,,,15,,59,48
40320,note_on,,721,0,8,,,,,,,,,,,,,,,,10,,81,48
40379,note_on,,59,0,11,,,,,,,,,,,,,,,,13,,59,0
40379,note_on,,0,0,12,,,,,,,,,,,,,,,,15,,62,0
40379,note_on,,59,0,5,,,,,,,,,,,,,,,,2,,59,0
40379,note_on,,59,0,7,,,,,,,,,,,,,,,,8,,59,0
40379,note_on,,59,0,12,,,,,,,,,,,,,,,,15,,59,0
40380,note_on,,1,0,7,,,,,,,,,,,,,,,,8,,57,72
40380,note_on,,1,0,5,,,,,,,,,,,,,,,,2,,57,48
40380,note_on,,1,0,12,,,,,,,,,,,,,,,,15,,57,48
40380,note_on,,0,0,12,,,,,,,,,,,,,,,,15,,61,48
40380,note_on,,1,0,11,,,,,,,,,,,,,,,,13,,57,48
40439,note_on,,119,0,8,,,,,,,,,,,,,,,,10,,81,0
40439,note_on,,59,0,5,,,,,,,,,,,,,,,,2,,57,0
40439,note_on,,119,0,10,,,,,,,,,,,,,,,,12,,64,0
40439,note_on,,119,0,9,,,,,,,,,,,,,,,,11,,64,0
40439,note_on,,59,0,7,,,,,,,,,,,,,,,,8,,57,0
40439,note_on,,59,0,12,,,,,,,,,,,,,,,,15,,69,0
40439,note_on,,59,0,11,,,,,,,,,,,,,,,,13,,57,0
40439,note_on,,119,0,6,,,,,,,,,,,,,,,,3,,81,0
40439,note_on,,0,0,12,,,,,,,,,,,,,,,,15,,57,0
40439,note_on,,0,0,12,,,,,,,,,,,,,,,,15,,61,0
40440,note_on,,0,0,12,,,,,,,,,,,,,,,,15,,68,48
40440,note_on,,1,0,8,,,,,,,,,,,,,,,,10,,80,48
40440,note_on,,1,0,11,,,,,,,,,,,,,,,,13,,62,48
40440,note_on,,1,0,5,,,,,,,,,,,,,,,,2,,62,48
40440,note_on,,1,0,12,,,,,,,,,,,,,,,,15,,62,48
40440,note_on,,0,0,12,,,,,,,,,,,,,,,,15,,64,48
40440,note_on,,1,0,6,,,,,,,,,,,,,,,,3,,80,64
40440,note_on,,1,0,7,,,,,,,,,,,,,,,,8,,62,72
40440,note_on,,1,0,9,,,,,,,,,,,,,,,,11,,71,48
40440,note_on,,1,0,10,,,,,,,,,,,,,,,,12,,64,48
40440,note_on,,0,0,12,,,,,,,,,,,,,,,,15,,71,48
40499,note_on,,59,0,8,,,,,,,,,,,,,,,,10,,80,0
40499,note_on,,59,0,6,,,,,,,,,,,,,,,,3,,80,0
40500,note_on,,1,0,8,,,,,,,,,,,,,,,,10,,78,48
40500,note_on,,1,0,6,,,,,,,,,,,,,,,,3,,78,64
40559,note_on,,59,0,8,,,,,,,,,,,,,,,,10,,78,0
40559,note_on,,59,0,6,,,,,,,,,,,,,,,,3,,78,0
40560,note_on,,1,0,6,,,,,,,,,,,,,,,,3,,76,64
40560,note_on,,1,0,8,,,,,,,,,,,,,,,,10,,76,48
40619,note_on,,59,0,6,,,,,,,,,,,,,,,,3,,76,0
40619,note_on,,179,0,5,,,,,,,,,,,,,,,,2,,62,0
40619,note_on,,59,0,8,,,,,,,,,,,,,,,,10,,76,0
40619,note_on,,179,0,11,,,,,,,,,,,,,,,,13,,62,0
40619,note_on,,179,0,7,,,,,,,,,,,,,,,,8,,62,0
40619,note_on,,179,0,12,,,,,,,,,,,,,,,,15,,62,0
40620,note_on,,1,0,6,,,,,,,,,,,,,,,,3,,80,64
40620,note_on,,1,0,8,,,,,,,,,,,,,,,,10,,80,48
40620,note_on,,1,0,11,,,,,,,,,,,,,,,,13,,64,48
40620,note_on,,1,0,5,,,,,,,,,,,,,,,,2,,64,48
40620,note_on,,1,0,7,,,,,,,,,,,,,,,,8,,64,72
40620,note_on,,1,0,12,,,,,,,,,,,,,,,,15,,64,48
40679,note_on,,59,0,5,,,,,,,,,,,,,,,,2,,64,0
40679,note_on,,59,0,12,,,,,,,,,,,,,,,,15,,64,0
40679,note_on,,59,0,11,,,,,,,,,,,,,,,,13,,64,0
40679,note_on,,59,0,7,,,,,,,,,,,,,,,,8,,64,0
40679,note_on,,59,0,6,,,,,,,,,,,,,,,,3,,80,0
40679,note_on,,239,0,9,,,,,,,,,,,,,,,,11,,71,0
40679,note_on,,59,0,8,,,,,,,,,,,,,,,,10,,80,0
40679,note_on,,239,0,10,,,,,,,,,,,,,,,,12,,64,0
40680,note_on,,1,0,5,,,,,,,,,,,,,,,,2,,62,48
40680,note_on,,1,0,12,,,,,,,,,,,,,,,,15,,62,48
40680,note_on,,1,0,11,,,,,,,,,,,,,,,,13,,62,48
40680,note_on,,1,0,9,,,,,,,,,,,,,,,,11,,71,48
40680,note_on,,1,0,6,,,,,,,,,,,,,,,,3,,78,64
40680,note_on,,1,0,10,,,,,,,,,,,,,,,,12,,64,48
40680,note_on,,1,0,8,,,,,,,,,,,,,,,,10,,78,48
40680,note_on,,1,0,7,,,,,,,,,,,,,,,,8,,62,72
40739,note_on,,59,0,12,,,,,,,,,,,,,,,,15,,62,0
40739,note_on,,59,0,6,,,,,,,,,,,,,,,,3,,78,0
40739,note_on,,59,0,8,,,,,,,,,,,,,,,,10,,78,0
40739,note_on,,59,0,11,,,,,,,,,,,,,,,,13,,62,0
40739,note_on,,59,0,7,,,,,,,,,,,,,,,,8,,62,0
40739,note_on,,59,0,5,,,,,,,,,,,,,,,,2,,62,0
40740,note_on,,1,0,11,,,,,,,,,,,,,,,,13,,64,48
40740,note_on,,1,0,8,,,,,,,,,,,,,,,,10,,76,48
40740,note_on,,1,0,5,,,,,,,,,,,,,,,,2,,64,48
40740,note_on,,1,0,12,,,,,,,,,,,,,,,,15,,64,48
40740,note_on,,1,0,6,,,,,,,,,,,,,,,,3,,76,64
40740,note_on,,1,0,7,,,,,,,,,,,,,,,,8,,64,72
40799,note_on,,0,0,12,,,,,,,,,,,,,,,,15,,64,0
40799,note_on,,0,0,12,,,,,,,,,,,,,,,,15,,64,0
40799,note_on,,59,0,8,,,,,,,,,,,,,,,,10,,76,0
40799,note_on,,59,0,11,,,,,,,,,,,,,,,,13,,64,0
40799,note_on,,59,0,6,,,,,,,,,,,,,,,,3,,76,0
40799,note_on,,119,0,9,,,,,,,,,,,,,,,,11,,71,0
40799,note_on,,59,0,7,,,,,,,,,,,,,,,,8,,64,0
40799,note_on,,0,0,12,,,,,,,,,,,,,,,,15,,71,0
40799,note_on,,119,0,10,,,,,,,,,,,,,,,,12,,64,0
40799,note_on,,59,0,5,,,,,,,,,,,,,,,,2,,64,0
40799,note_on,,59,0,12,,,,,,,,,,,,,,,,15,,68,0
40800,note_on,,1,0,6,,,,,,,,,,,,,,,,3,,81,64
40800,note_on,,0,0,12,,,,,,,,,,,,,,,,15,,76,48
40800,note_on,,0,0,12,,,,,,,,,,,,,,,,15,,61,48
40800,note_on,,0,0,12,,,,,,,,,,,,,,,,15,,69,48
40800,note_on,,1,0,11,,,,,,,,,,,,,,,,13,,61,48
40800,note_on,,1,0,9,,,,,,,,,,,,,,,,11,,69,48
40800,note_on,,1,0,10,,,,,,,,,,,,,,,,12,,64,48
40800,note_on,,1,0,8,,,,,,,,,,,,,,,,10,,81,48
40800,note_on,,1,0,7,,,,,,,,,,,,,,,,8,,61,72
40800,note_on,,1,0,5,,,,,,,,,,,,,,,,2,,61,48
40800,note_on,,1,0,12,,,,,,,,,,,,,,,,15,,64,48
40919,note_on,,119,0,6,,,,,,,,,,,,,,,,3,,81,0
40919,note_on,,119,0,9,,,,,,,,,,,,,,,,11,,69,0
40919,note_on,,119,0,8,,,,,,,,,,,,,,,,10,,81,0
40919,note_on,,119,0,12,,,,,,,,,,,,,,,,15,,64,0
40919,note_on,,0,0,12,,,,,,,,,,,,,,,,15,,76,0
40919,note_on,,119,0,10,,,,,,,,,,,,,,,,12,,64,0
40919,note_on,,119,0,5,,,,,,,,,,,,,,,,2,,61,0
40919,note_on,,0,0,12,,,,,,,,,,,,,,,,15,,61,0
40919,note_on,,0,0,12,,,,,,,,,,,,,,,,15,,69,0
40919,note_on,,119,0,11,,,,,,,,,,,,,,,,13,,61,0
40919,note_on,,119,0,7,,,,,,,,,,,,,,,,8,,61,0
40920,note_on,,1,0,8,,,,,,,,,,,,,,,,10,,86,48
40979,note_on,,59,0,8,,,,,,,,,,,,,,,,10,,86,0
40980,note_on,,1,0,8,,,,,,,,,,,,,,,,10,,83,48
41039,note_on,,59,0,8,,,,,,,,,,,,,,,,10,,83,0
41040,note_on,,121,0,9,,,,,,,,,,,,,,,,11,,71,48
41040,note_on,,1,0,8,,,,,,,,,,,,,,,,10,,81,48
41040,note_on,,121,0,7,,,,,,,,,,,,,,,,8,,59,72
41040,note_on,,0,0,12,,,,,,,,,,,,,,,,15,,62,48
41040,note_on,,121,0,12,,,,,,,,,,,,,,,,15,,71,48
41040,note_on,,121,0,11,,,,,,,,,,,,,,,,13,,59,48
41040,note_on,,121,0,10,,,,,,,,,,,,,,,,12,,62,48
41040,note_on,,121,0,5,,,,,,,,,,,,,,,,2,,59,48
41040,note_on,,0,0,12,,,,,,,,,,,,,,,,15,,59,48
41054,note_on,,14,0,8,,,,,,,,,,,,,,,,10,,81,0
41055,note_on,,1,0,8,,,,,,,,,,,,,,,,10,,83,48
41069,note_on,,14,0,8,,,,,,,,,,,,,,,,10,,83,0
41070,note_on,,1,0,8,,,,,,,,,,,,,,,,10,,81,48
41084,note_on,,14,0,8,,,,,,,,,,,,,,,,10,,81,0
41085,note_on,,1,0,8,,,,,,,,,,,,,,,,10,,83,48
41099,note_on,,14,0,8,,,,,,,,,,,,,,,,10,,83,0
41100,note_on,,1,0,8,,,,,,,,,,,,,,,,10,,80,48
41114,note_on,,14,0,8,,,,,,,,,,,,,,,,10,,80,0
41115,note_on,,1,0,8,,,,,,,,,,,,,,,,10,,81,48
41129,note_on,,14,0,8,,,,,,,,,,,,,,,,10,,81,0
41130,note_on,,1,0,8,,,,,,,,,,,,,,,,10,,80,48
41159,note_on,,119,0,5,,,,,,,,,,,,,,,,2,,59,0
41159,note_on,,119,0,9,,,,,,,,,,,,,,,,11,,71,0
41159,note_on,,119,0,10,,,,,,,,,,,,,,,,12,,62,0
41159,note_on,,29,0,8,,,,,,,,,,,,,,,,10,,80,0
41159,note_on,,0,0,12,,,,,,,,,,,,,,,,15,,62,0
41159,note_on,,0,0,12,,,,,,,,,,,,,,,,15,,59,0
41159,note_on,,119,0,7,,,,,,,,,,,,,,,,8,,59,0
41159,note_on,,119,0,11,,,,,,,,,,,,,,,,13,,59,0
41159,note_on,,119,0,12,,,,,,,,,,,,,,,,15,,71,0
41160,note_on,,1,0,12,,,,,,,,,,,,,,,,15,,69,48
41160,note_on,,1,0,5,,,,,,,,,,,,,,,,2,,61,48
41160,note_on,,0,0,12,,,,,,,,,,,,,,,,15,,76,48
41160,note_on,,241,0,6,,,,,,,,,,,,,,,,3,,81,64
41160,note_on,,0,0,12,,,,,,,,,,,,,,,,15,,61,48
41160,note_on,,1,0,7,,,,,,,,,,,,,,,,8,,61,72
41160,note_on,,1,0,10,,,,,,,,,,,,,,,,12,,64,48
41160,note_on,,1,0,8,,,,,,,,,,,,,,,,10,,81,48
41160,note_on,,1,0,9,,,,,,,,,,,,,,,,11,,69,48
41160,note_on,,1,0,11,,,,,,,,,,,,,,,,13,,61,48
41160,note_on,,0,0,12,,,,,,,,,,,,,,,,15,,64,48
41279,note_on,,119,0,8,,,,,,,,,,,,,,,,10,,81,0
41279,note_on,,119,0,12,,,,,,,,,,,,,,,,15,,69,0
41279,note_on,,0,0,12,,,,,,,,,,,,,,,,15,,76,0
41279,note_on,,0,0,12,,,,,,,,,,,,,,,,15,,64,0
41279,note_on,,119,0,10,,,,,,,,,,,,,,,,12,,64,0
41279,note_on,,119,0,7,,,,,,,,,,,,,,,,8,,61,0
41279,note_on,,119,0,11,,,,,,,,,,,,,,,,13,,61,0
41279,note_on,,119,0,5,,,,,,,,,,,,,,,,2,,61,0
41279,note_on,,119,0,9,,,,,,,,,,,,,,,,11,,69,0
41279,note_on,,119,0,6,,,,,,,,,,,,,,,,3,,81,0
41279,note_on,,0,0,12,,,,,,,,,,,,,,,,15,,61,0
41280,note_on,,1,0,8,,,,,,,,,,,,,,,,10,,86,48
41339,note_on,,59,0,8,,,,,,,,,,,,,,,,10,,86,0
41340,note_on,,1,0,8,,,,,,,,,,,,,,,,10,,83,48
41399,note_on,,59,0,8,,,,,,,,,,,,,,,,10,,83,0
41400,note_on,,121,0,12,,,,,,,,,,,,,,,,15,,59,48
41400,note_on,,121,0,9,,,,,,,,,,,,,,,,11,,71,48
41400,note_on,,121,0,7,,,,,,,,,,,,,,,,8,,59,72
41400,note_on,,0,0,12,,,,,,,,,,,,,,,,15,,62,48
41400,note_on,,0,0,12,,,,,,,,,,,,,,,,15,,71,48
41400,note_on,,121,0,11,,,,,,,,,,,,,,,,13,,59,48
41400,note_on,,121,0,5,,,,,,,,,,,,,,,,2,,59,48
41400,note_on,,1,0,8,,,,,,,,,,,,,,,,10,,81,48
41400,note_on,,121,0,10,,,,,,,,,,,,,,,,12,,62,48
41414,note_on,,14,0,8,,,,,,,,,,,,,,,,10,,81,0
41415,note_on,,1,0,8,,,,,,,,,,,,,,,,10,,83,48
41429,note_on,,14,0,8,,,,,,,,,,,,,,,,10,,83,0
41430,note_on,,1,0,8,,,,,,,,,,,,,,,,10,,81,48
41444,note_on,,14,0,8,,,,,,,,,,,,,,,,10,,81,0
41445,note_on,,1,0,8,,,,,,,,,,,,,,,,10,,83,48
41459,note_on,,14,0,8,,,,,,,,,,,,,,,,10,,83,0
41460,note_on,,1,0,8,,,,,,,,,,,,,,,,10,,80,48
41474,note_on,,14,0,8,,,,,,,,,,,,,,,,10,,80,0
41475,note_on,,1,0,8,,,,,,,,,,,,,,,,10,,81,48
41489,note_on,,14,0,8,,,,,,,,,,,,,,,,10,,81,0
41490,note_on,,1,0,8,,,,,,,,,,,,,,,,10,,80,48
41519,note_on,,119,0,5,,,,,,,,,,,,,,,,2,,59,0
41519,note_on,,0,0,12,,,,,,,,,,,,,,,,15,,62,0
41519,note_on,,0,0,12,,,,,,,,,,,,,,,,15,,71,0
41519,note_on,,119,0,9,,,,,,,,,,,,,,,,11,,71,0
41519,note_on,,119,0,11,,,,,,,,,,,,,,,,13,,59,0
41519,note_on,,29,0,8,,,,,,,,,,,,,,,,10,,80,0
41519,note_on,,119,0,7,,,,,,,,,,,,,,,,8,,59,0
41519,note_on,,119,0,10,,,,,,,,,,,,,,,,12,,62,0
41519,note_on,,119,0,12,,,,,,,,,,,,,,,,15,,59,0
41520,note_on,,241,0,6,,,,,,,,,,,,,,,,3,,81,64
41520,note_on,,0,0,12,,,,,,,,,,,,,,,,15,,61,48
41520,note_on,,0,0,12,,,,,,,,,,,,,,,,15,,76,48
41520,note_on,,1,0,8,,,,,,,,,,,,,,,,10,,81,48
41520,note_on,,0,0,12,,,,,,,,,,,,,,,,15,,69,48
41520,note_on,,1,0,10,,,,,,,,,,,,,,,,12,,64,48
41520,note_on,,1,0,9,,,,,,,,,,,,,,,,11,,69,48
41520,note_on,,1,0,5,,,,,,,,,,,,,,,,2,,61,48
41520,note_on,,1,0,11,,,,,,,,,,,,,,,,13,,61,48
41520,note_on,,1,0,12,,,,,,,,,,,,,,,,15,,64,48
41520,note_on,,1,0,7,,,,,,,,,,,,,,,,8,,61,72
41639,note_on,,119,0,10,,,,,,,,,,,,,,,,12,,64,0
41639,note_on,,119,0,11,,,,,,,,,,,,,,,,13,,61,0
41639,note_on,,119,0,5,,,,,,,,,,,,,,,,2,,61,0
41639,note_on,,0,0,12,,,,,,,,,,,,,,,,15,,69,0
41639,note_on,,0,0,12,,,,,,,,,,,,,,,,15,,76,0
41639,note_on,,0,0,12,,,,,,,,,,,,,,,,15,,61,0
41639,note_on,,119,0,9,,,,,,,,,,,,,,,,11,,69,0
41639,note_on,,119,0,12,,,,,,,,,,,,,,,,15,,64,0
41639,note_on,,119,0,8,,,,,,,,,,,,,,,,10,,81,0
41639,note_on,,119,0,6,,,,,,,,,,,,,,,,3,,81,0
41640,note_on,,1,0,8,,,,,,,,,,,,,,,,10,,86,48
41699,note_on,,179,0,7,,,,,,,,,,,,,,,,8,,61,0
41699,note_on,,59,0,8,,,,,,,,,,,,,,,,10,,86,0
41700,note_on,,1,0,8,,,,,,,,,,,,,,,,10,,83,48
41700,note_on,,1,0,7,,,,,,,,,,,,,,,,8,,62,72
41759,note_on,,59,0,8,,,,,,,,,,,,,,,,10,,83,0
41759,note_on,,59,0,7,,,,,,,,,,,,,,,,8,,62,0
41760,note_on,,121,0,5,,,,,,,,,,,,,,,,2,,59,48
41760,note_on,,1,0,7,,,,,,,,,,,,,,,,8,,61,72
41760,note_on,,0,0,12,,,,,,,,,,,,,,,,15,,71,48
41760,note_on,,121,0,12,,,,,,,,,,,,,,,,15,,62,48
41760,note_on,,0,0,12,,,,,,,,,,,,,,,,15,,59,48
41760,note_on,,121,0,9,,,,,,,,,,,,,,,,11,,71,48
41760,note_on,,1,0,8,,,,,,,,,,,,,,,,10,,81,48
41760,note_on,,121,0,11,,,,,,,,,,,,,,,,13,,59,48
41760,note_on,,121,0,10,,,,,,,,,,,,,,,,12,,62,48
41774,note_on,,14,0,8,,,,,,,,,,,,,,,,10,,81,0
41775,note_on,,1,0,8,,,,,,,,,,,,,,,,10,,83,48
41789,note_on,,14,0,8,,,,,,,,,,,,,,,,10,,83,0
41790,note_on,,1,0,8,,,,,,,,,,,,,,,,10,,81,48
41804,note_on,,14,0,8,,,,,,,,,,,,,,,,10,,81,0
41805,note_on,,1,0,8,,,,,,,,,,,,,,,,10,,83,48
41819,note_on,,14,0,8,,,,,,,,,,,,,,,,10,,83,0
41819,note_on,,59,0,7,,,,,,,,,,,,,,,,8,,61,0
41820,note_on,,1,0,8,,,,,,,,,,,,,,,,10,,80,48
41820,note_on,,1,0,7,,,,,,,,,,,,,,,,8,,59,72
41834,note_on,,14,0,8,,,,,,,,,,,,,,,,10,,80,0
41835,note_on,,1,0,8,,,,,,,,,,,,,,,,10,,81,48
41849,note_on,,14,0,8,,,,,,,,,,,,,,,,10,,81,0
41850,note_on,,1,0,8,,,,,,,,,,,,,,,,10,,80,48
41879,note_on,,0,0,12,,,,,,,,,,,,,,,,15,,59,0
41879,note_on,,59,0,7,,,,,,,,,,,,,,,,8,,59,0
41879,note_on,,0,0,12,,,,,,,,,,,,,,,,15,,71,0
41879,note_on,,119,0,12,,,,,,,,,,,,,,,,15,,62,0
41879,note_on,,29,0,8,,,,,,,,,,,,,,,,10,,80,0
41879,note_on,,119,0,10,,,,,,,,,,,,,,,,12,,62,0
41879,note_on,,119,0,11,,,,,,,,,,,,,,,,13,,59,0
41879,note_on,,119,0,5,,,,,,,,,,,,,,,,2,,59,0
41879,note_on,,119,0,9,,,,,,,,,,,,,,,,11,,71,0
41880,note_on,,241,0,6,,,,,,,,,,,,,,,,3,,81,64
41880,note_on,,1,0,8,,,,,,,,,,,,,,,,10,,81,48
41880,note_on,,0,0,12,,,,,,,,,,,,,,,,15,,69,48
41880,note_on,,1,0,9,,,,,,,,,,,,,,,,11,,69,48
41880,note_on,,1,0,11,,,,,,,,,,,,,,,,13,,61,48
41880,note_on,,1,0,12,,,,,,,,,,,,,,,,15,,64,48
41880,note_on,,0,0,12,,,,,,,,,,,,,,,,15,,61,48
41880,note_on,,0,0,12,,,,,,,,,,,,,,,,15,,76,48
41880,note_on,,1,0,10,,,,,,,,,,,,,,,,12,,64,48
41880,note_on,,1,0,5,,,,,,,,,,,,,,,,2,,61,48
41880,note_on,,1,0,7,,,,,,,,,,,,,,,,8,,61,72
41999,note_on,,0,0,12,,,,,,,,,,,,,,,,15,,76,0
41999,note_on,,0,0,12,,,,,,,,,,,,,,,,15,,69,0
41999,note_on,,0,0,12,,,,,,,,,,,,,,,,15,,61,0
41999,note_on,,119,0,12,,,,,,,,,,,,,,,,15,,64,0
41999,note_on,,119,0,11,,,,,,,,,,,,,,,,13,,61,0
41999,note_on,,119,0,9,,,,,,,,,,,,,,,,11,,69,0
41999,note_on,,119,0,8,,,,,,,,,,,,,,,,10,,81,0
41999,note_on,,119,0,10,,,,,,,,,,,,,,,,12,,64,0
41999,note_on,,119,0,5,,,,,,,,,,,,,,,,2,,61,0
41999,note_on,,119,0,6,,,,,,,,,,,,,,,,3,,81,0
42000,note_on,,1,0,8,,,,,,,,,,,,,,,,10,,86,48
42059,note_on,,59,0,8,,,,,,,,,,,,,,,,10,,86,0
42059,note_on,,179,0,7,,,,,,,,,,,,,,,,8,,61,0
42060,note_on,,1,0,7,,,,,,,,,,,,,,,,8,,62,72
42060,note_on,,1,0,8,,,,,,,,,,,,,,,,10,,83,48
42119,note_on,,59,0,7,,,,,,,,,,,,,,,,8,,62,0
42119,note_on,,59,0,8,,,,,,,,,,,,,,,,10,,83,0
42120,note_on,,1,0,8,,,,,,,,,,,,,,,,10,,81,48
42120,note_on,,121,0,5,,,,,,,,,,,,,,,,2,,59,48
42120,note_on,,0,0,12,,,,,,,,,,,,,,,,15,,59,48
42120,note_on,,0,0,12,,,,,,,,,,,,,,,,15,,71,48
42120,note_on,,121,0,11,,,,,,,,,,,,,,,,13,,59,48
42120,note_on,,121,0,12,,,,,,,,,,,,,,,,15,,62,48
42120,note_on,,121,0,9,,,,,,,,,,,,,,,,11,,71,48
42120,note_on,,121,0,10,,,,,,,,,,,,,,,,12,,62,48
42120,note_on,,1,0,7,,,,,,,,,,,,,,,,8,,61,72
42134,note_on,,14,0,8,,,,,,,,,,,,,,,,10,,81,0
42135,note_on,,1,0,8,,,,,,,,,,,,,,,,10,,83,48
42149,note_on,,14,0,8,,,,,,,,,,,,,,,,10,,83,0
42150,note_on,,1,0,8,,,,,,,,,,,,,,,,10,,81,48
42164,note_on,,14,0,8,,,,,,,,,,,,,,,,10,,81,0
42165,note_on,,1,0,8,,,,,,,,,,,,,,,,10,,83,48
42179,note_on,,59,0,7,,,,,,,,,,,,,,,,8,,61,0
42179,note_on,,14,0,8,,,,,,,,,,,,,,,,10,,83,0
42180,note_on,,1,0,7,,,,,,,,,,,,,,,,8,,59,72
42180,note_on,,1,0,8,,,,,,,,,,,,,,,,10,,80,48
42194,note_on,,14,0,8,,,,,,,,,,,,,,,,10,,80,0
42195,note_on,,1,0,8,,,,,,,,,,,,,,,,10,,81,48
42209,note_on,,14,0,8,,,,,,,,,,,,,,,,10,,81,0
42210,note_on,,1,0,8,,,,,,,,,,,,,,,,10,,80,48
42239,note_on,,0,0,12,,,,,,,,,,,,,,,,15,,59,0
42239,note_on,,59,0,7,,,,,,,,,,,,,,,,8,,59,0
42239,note_on,,29,0,8,,,,,,,,,,,,,,,,10,,80,0
42239,note_on,,119,0,11,,,,,,,,,,,,,,,,13,,59,0
42239,note_on,,119,0,5,,,,,,,,,,,,,,,,2,,59,0
42239,note_on,,119,0,12,,,,,,,,,,,,,,,,15,,62,0
42239,note_on,,119,0,9,,,,,,,,,,,,,,,,11,,71,0
42239,note_on,,0,0,12,,,,,,,,,,,,,,,,15,,71,0
42239,note_on,,119,0,10,,,,,,,,,,,,,,,,12,,62,0
42240,note_on,,1,0,7,,,,,,,,,,,,,,,,8,,61,72
42240,note_on,,1,0,5,,,,,,,,,,,,,,,,2,,61,48
42240,note_on,,1,0,10,,,,,,,,,,,,,,,,12,,64,48
42240,note_on,,1,0,8,,,,,,,,,,,,,,,,10,,81,48
42240,note_on,,241,0,6,,,,,,,,,,,,,,,,3,,81,64
42240,note_on,,1,0,11,,,,,,,,,,,,,,,,13,,61,48
42240,note_on,,0,0,12,,,,,,,,,,,,,,,,15,,61,48
42240,note_on,,0,0,12,,,,,,,,,,,,,,,,15,,64,48
42240,note_on,,0,0,12,,,,,,,,,,,,,,,,15,,76,48
42240,note_on,,1,0,12,,,,,,,,,,,,,,,,15,,69,48
42240,note_on,,1,0,9,,,,,,,,,,,,,,,,11,,69,48
42299,note_on,,59,0,5,,,,,,,,,,,,,,,,2,,61,0
42299,note_on,,59,0,7,,,,,,,,,,,,,,,,8,,61,0
42299,note_on,,59,0,8,,,,,,,,,,,,,,,,10,,81,0
42299,note_on,,59,0,11,,,,,,,,,,,,,,,,13,,61,0
42299,note_on,,59,0,12,,,,,,,,,,,,,,,,15,,61,0
42300,note_on,,1,0,7,,,,,,,,,,,,,,,,8,,62,72
42300,note_on,,1,0,12,,,,,,,,,,,,,,,,15,,62,48
42300,note_on,,1,0,11,,,,,,,,,,,,,,,,13,,62,48
42300,note_on,,1,0,5,,,,,,,,,,,,,,,,2,,62,48
42300,note_on,,1,0,8,,,,,,,,,,,,,,,,10,,78,48
42359,note_on,,0,0,12,,,,,,,,,,,,,,,,15,,76,0
42359,note_on,,119,0,10,,,,,,,,,,,,,,,,12,,64,0
42359,note_on,,59,0,8,,,,,,,,,,,,,,,,10,,78,0
42359,note_on,,119,0,6,,,,,,,,,,,,,,,,3,,81,0
42359,note_on,,59,0,12,,,,,,,,,,,,,,,,15,,69,0
42359,note_on,,59,0,5,,,,,,,,,,,,,,,,2,,62,0
42359,note_on,,59,0,7,,,,,,,,,,,,,,,,8,,62,0
42359,note_on,,59,0,11,,,,,,,,,,,,,,,,13,,62,0
42359,note_on,,0,0,12,,,,,,,,,,,,,,,,15,,64,0
42359,note_on,,0,0,12,,,,,,,,,,,,,,,,15,,62,0
42359,note_on,,119,0,9,,,,,,,,,,,,,,,,11,,69,0
42360,note_on,,1,0,5,,,,,,,,,,,,,,,,2,,64,48
42360,note_on,,0,0,12,,,,,,,,,,,,,,,,15,,67,48
42360,note_on,,0,0,12,,,,,,,,,,,,,,,,15,,64,48
42360,note_on,,1,0,11,,,,,,,,,,,,,,,,13,,64,48
42360,note_on,,1,0,6,,,,,,,,,,,,,,,,3,,76,64
42360,note_on,,1,0,8,,,,,,,,,,,,,,,,10,,79,48
42360,note_on,,1,0,12,,,,,,,,,,,,,,,,15,,71,48
42360,note_on,,1,0,7,,,,,,,,,,,,,,,,8,,64,72
42479,note_on,,119,0,12,,,,,,,,,,,,,,,,15,,71,0
42479,note_on,,119,0,11,,,,,,,,,,,,,,,,13,,64,0
42479,note_on,,0,0,12,,,,,,,,,,,,,,,,15,,64,0
42479,note_on,,119,0,5,,,,,,,,,,,,,,,,2,,64,0
42479,note_on,,0,0,12,,,,,,,,,,,,,,,,15,,67,0
42479,note_on,,119,0,7,,,,,,,,,,,,,,,,8,,64,0
42480,note_on,,1,0,12,,,,,,,,,,,,,,,,15,,57,48
42480,note_on,,121,0,10,,,,,,,,,,,,,,,,12,,64,48
42480,note_on,,1,0,5,,,,,,,,,,,,,,,,2,,57,48
42480,note_on,,0,0,12,,,,,,,,,,,,,,,,15,,69,48
42480,note_on,,0,0,12,,,,,,,,,,,,,,,,15,,64,48
42480,note_on,,1,0,11,,,,,,,,,,,,,,,,13,,57,48
42480,note_on,,0,0,12,,,,,,,,,,,,,,,,15,,73,48
42480,note_on,,121,0,9,,,,,,,,,,,,,,,,11,,73,48
42480,note_on,,1,0,7,,,,,,,,,,,,,,,,8,,57,72
42539,note_on,,179,0,8,,,,,,,,,,,,,,,,10,,79,0
42539,note_on,,179,0,6,,,,,,,,,,,,,,,,3,,76,0
42540,note_on,,1,0,6,,,,,,,,,,,,,,,,3,,79,64
42540,note_on,,1,0,8,,,,,,,,,,,,,,,,10,,76,48
42599,note_on,,119,0,11,,,,,,,,,,,,,,,,13,,57,0
42599,note_on,,59,0,8,,,,,,,,,,,,,,,,10,,76,0
42599,note_on,,119,0,12,,,,,,,,,,,,,,,,15,,57,0
42599,note_on,,0,0,12,,,,,,,,,,,,,,,,15,,73,0
42599,note_on,,0,0,12,,,,,,,,,,,,,,,,15,,69,0
42599,note_on,,119,0,7,,,,,,,,,,,,,,,,8,,57,0
42599,note_on,,119,0,9,,,,,,,,,,,,,,,,11,,73,0
42599,note_on,,119,0,5,,,,,,,,,,,,,,,,2,,57,0
42599,note_on,,119,0,10,,,,,,,,,,,,,,,,12,,64,0
42599,note_on,,59,0,6,,,,,,,,,,,,,,,,3,,79,0
42599,note_on,,0,0,12,,,,,,,,,,,,,,,,15,,64,0
42600,note_on,,1,0,9,,,,,,,,,,,,,,,,11,,69,48
42600,note_on,,1,0,7,,,,,,,,,,,,,,,,8,,62,72
42600,note_on,,1,0,10,,,,,,,,,,,,,,,,12,,62,48
42600,note_on,,1,0,6,,,,,,,,,,,,,,,,3,,78,64
42600,note_on,,0,0,12,,,,,,,,,,,,,,,,15,,62,48
42600,note_on,,0,0,12,,,,,,,,,,,,,,,,15,,74,48
42600,note_on,,1,0,12,,,,,,,,,,,,,,,,15,,66,48
42600,note_on,,1,0,11,,,,,,,,,,,,,,,,13,,62,48
42600,note_on,,1,0,8,,,,,,,,,,,,,,,,10,,78,48
42600,note_on,,0,0,12,,,,,,,,,,,,,,,,15,,69,48
42600,note_on,,1,0,5,,,,,,,,,,,,,,,,2,,62,48
42659,note_on,,59,0,8,,,,,,,,,,,,,,,,10,,78,0
42659,note_on,,59,0,6,,,,,,,,,,,,,,,,3,,78,0
42660,note_on,,1,0,8,,,,,,,,,,,,,,,,10,,79,48
42660,note_on,,1,0,6,,,,,,,,,,,,,,,,3,,79,64
42719,note_on,,59,0,8,,,,,,,,,,,,,,,,10,,79,0
42719,note_on,,119,0,12,,,,,,,,,,,,,,,,15,,66,0
42719,note_on,,0,0,12,,,,,,,,,,,,,,,,15,,62,0
42719,note_on,,0,0,12,,,,,,,,,,,,,,,,15,,69,0
42719,note_on,,0,0,12,,,,,,,,,,,,,,,,15,,74,0
42719,note_on,,59,0,6,,,,,,,,,,,,,,,,3,,79,0
42719,note_on,,119,0,7,,,,,,,,,,,,,,,,8,,62,0
42719,note_on,,119,0,10,,,,,,,,,,,,,,,,12,,62,0
42719,note_on,,119,0,9,,,,,,,,,,,,,,,,11,,69,0
42719,note_on,,119,0,5,,,,,,,,,,,,,,,,2,,62,0
42719,note_on,,119,0,11,,,,,,,,,,,,,,,,13,,62,0
42720,note_on,,1,0,7,,,,,,,,,,,,,,,,8,,55,72
42720,note_on,,1,0,6,,,,,,,,,,,,,,,,3,,76,64
42720,note_on,,1,0,9,,,,,,,,,,,,,,,,11,,71,48
42720,note_on,,1,0,8,,,,,,,,,,,,,,,,10,,76,48
42720,note_on,,1,0,10,,,,,,,,,,,,,,,,12,,62,48
42720,note_on,,1,0,12,,,,,,,,,,,,,,,,15,,76,48
42720,note_on,,1,0,11,,,,,,,,,,,,,,,,13,,55,48
42720,note_on,,1,0,5,,,,,,,,,,,,,,,,2,,55,48
42720,note_on,,0,0,12,,,,,,,,,,,,,,,,15,,67,48
42720,note_on,,0,0,12,,,,,,,,,,,,,,,,15,,71,48
42720,note_on,,0,0,12,,,,,,,,,,,,,,,,15,,55,48
42734,note_on,,14,0,6,,,,,,,,,,,,,,,,3,,76,0
42734,note_on,,14,0,8,,,,,,,,,,,,,,,,10,,76,0
42735,note_on,,1,0,6,,,,,,,,,,,,,,,,3,,78,64
42735,note_on,,1,0,8,,,,,,,,,,,,,,,,10,,78,48
42749,note_on,,14,0,8,,,,,,,,,,,,,,,,10,,78,0
42749,note_on,,14,0,6,,,,,,,,,,,,,,,,3,,78,0
42750,note_on,,1,0,6,,,,,,,,,,,,,,,,3,,76,64
42750,note_on,,1,0,8,,,,,,,,,,,,,,,,10,,76,48
42764,note_on,,14,0,8,,,,,,,,,,,,,,,,10,,76,0
42764,note_on,,14,0,6,,,,,,,,,,,,,,,,3,,76,0
42765,note_on,,1,0,6,,,,,,,,,,,,,,,,3,,78,64
42765,note_on,,1,0,8,,,,,,,,,,,,,,,,10,,78,48
42779,note_on,,14,0,8,,,,,,,,,,,,,,,,10,,78,0
42779,note_on,,14,0,6,,,,,,,,,,,,,,,,3,,78,0
42780,note_on,,1,0,6,,,,,,,,,,,,,,,,3,,76,64
42780,note_on,,1,0,8,,,,,,,,,,,,,,,,10,,76,48
42794,note_on,,14,0,6,,,,,,,,,,,,,,,,3,,76,0
42794,note_on,,14,0,8,,,,,,,,,,,,,,,,10,,76,0
42795,note_on,,1,0,6,,,,,,,,,,,,,,,,3,,78,64
42795,note_on,,1,0,8,,,,,,,,,,,,,,,,10,,78,48
42809,note_on,,14,0,8,,,,,,,,,,,,,,,,10,,78,0
42809,note_on,,14,0,6,,,,,,,,,,,,,,,,3,,78,0
42810,note_on,,1,0,6,,,,,,,,,,,,,,,,3,,76,64
42810,note_on,,1,0,8,,,,,,,,,,,,,,,,10,,76,48
42824,note_on,,14,0,6,,,,,,,,,,,,,,,,3,,76,0
42824,note_on,,14,0,8,,,,,,,,,,,,,,,,10,,76,0
42825,note_on,,1,0,6,,,,,,,,,,,,,,,,3,,78,64
42825,note_on,,1,0,8,,,,,,,,,,,,,,,,10,,78,48
42839,note_on,,119,0,9,,,,,,,,,,,,,,,,11,,71,0
42839,note_on,,14,0,8,,,,,,,,,,,,,,,,10,,78,0
42839,note_on,,119,0,11,,,,,,,,,,,,,,,,13,,55,0
42839,note_on,,119,0,5,,,,,,,,,,,,,,,,2,,55,0
42839,note_on,,0,0,12,,,,,,,,,,,,,,,,15,,71,0
42839,note_on,,0,0,12,,,,,,,,,,,,,,,,15,,67,0
42839,note_on,,119,0,12,,,,,,,,,,,,,,,,15,,76,0
42839,note_on,,119,0,10,,,,,,,,,,,,,,,,12,,62,0
42839,note_on,,14,0,6,,,,,,,,,,,,,,,,3,,78,0
42839,note_on,,119,0,7,,,,,,,,,,,,,,,,8,,55,0
42839,note_on,,0,0,12,,,,,,,,,,,,,,,,15,,55,0
42840,note_on,,1,0,5,,,,,,,,,,,,,,,,2,,57,48
42840,note_on,,1,0,8,,,,,,,,,,,,,,,,10,,76,48
42840,note_on,,1,0,9,,,,,,,,,,,,,,,,11,,69,48
42840,note_on,,0,0,12,,,,,,,,,,,,,,,,15,,69,48
42840,note_on,,0,0,12,,,,,,,,,,,,,,,,15,,57,48
42840,note_on,,0,0,12,,,,,,,,,,,,,,,,15,,73,48
42840,note_on,,1,0,7,,,,,,,,,,,,,,,,8,,57,72
42840,note_on,,1,0,6,,,,,,,,,,,,,,,,3,,76,64
42840,note_on,,1,0,12,,,,,,,,,,,,,,,,15,,64,48
42840,note_on,,1,0,10,,,,,,,,,,,,,,,,12,,61,48
42840,note_on,,1,0,11,,,,,,,,,,,,,,,,13,,57,48
42854,note_on,,14,0,8,,,,,,,,,,,,,,,,10,,76,0
42854,note_on,,14,0,6,,,,,,,,,,,,,,,,3,,76,0
42855,note_on,,1,0,6,,,,,,,,,,,,,,,,3,,78,64
42855,note_on,,1,0,8,,,,,,,,,,,,,,,,10,,78,48
42869,note_on,,14,0,8,,,,,,,,,,,,,,,,10,,78,0
42869,note_on,,14,0,6,,,,,,,,,,,,,,,,3,,78,0
42870,note_on,,1,0,6,,,,,,,,,,,,,,,,3,,74,64
42870,note_on,,1,0,8,,,,,,,,,,,,,,,,10,,74,48
42884,note_on,,14,0,8,,,,,,,,,,,,,,,,10,,74,0
42884,note_on,,14,0,6,,,,,,,,,,,,,,,,3,,74,0
42885,note_on,,1,0,8,,,,,,,,,,,,,,,,10,,76,48
42885,note_on,,1,0,6,,,,,,,,,,,,,,,,3,,76,64
42899,note_on,,14,0,6,,,,,,,,,,,,,,,,3,,76,0
42899,note_on,,14,0,8,,,,,,,,,,,,,,,,10,,76,0
42900,note_on,,1,0,8,,,,,,,,,,,,,,,,10,,74,48
42900,note_on,,1,0,6,,,,,,,,,,,,,,,,3,,74,64
42959,note_on,,59,0,8,,,,,,,,,,,,,,,,10,,74,0
42959,note_on,,59,0,6,,,,,,,,,,,,,,,,3,,74,0
42959,note_on,,119,0,9,,,,,,,,,,,,,,,,11,,69,0
42959,note_on,,119,0,5,,,,,,,,,,,,,,,,2,,57,0
42959,note_on,,0,0,12,,,,,,,,,,,,,,,,15,,69,0
42959,note_on,,0,0,12,,,,,,,,,,,,,,,,15,,57,0
42959,note_on,,0,0,12,,,,,,,,,,,,,,,,15,,73,0
42959,note_on,,119,0,12,,,,,,,,,,,,,,,,15,,64,0
42959,note_on,,119,0,7,,,,,,,,,,,,,,,,8,,57,0
42959,note_on,,119,0,10,,,,,,,,,,,,,,,,12,,61,0
42959,note_on,,119,0,11,,,,,,,,,,,,,,,,13,,57,0
42960,note_on,,1,0,11,,,,,,,,,,,,,,,,13,,50,48
42960,note_on,,0,0,12,,,,,,,,,,,,,,,,15,,66,48
42960,note_on,,0,0,12,,,,,,,,,,,,,,,,15,,69,48
42960,note_on,,0,0,12,,,,,,,,,,,,,,,,15,,74,48
42960,note_on,,1,0,12,,,,,,,,,,,,,,,,15,,50,48
42960,note_on,,1,0,9,,,,,,,,,,,,,,,,11,,69,48
42960,note_on,,1,0,10,,,,,,,,,,,,,,,,12,,66,48
42960,note_on,,1,0,8,,,,,,,,,,,,,,,,10,,74,48
42960,note_on,,1,0,5,,,,,,,,,,,,,,,,2,,50,48
42960,note_on,,1,0,7,,,,,,,,,,,,,,,,8,,50,72
42960,note_on,,1,0,6,,,,,,,,,,,,,,,,3,,74,64
43079,note_on,,0,0,12,,,,,,,,,,,,,,,,15,,66,0
43079,note_on,,0,0,12,,,,,,,,,,,,,,,,15,,69,0
43079,note_on,,119,0,8,,,,,,,,,,,,,,,,10,,74,0
43079,note_on,,119,0,11,,,,,,,,,,,,,,,,13,,50,0
43079,note_on,,0,0,12,,,,,,,,,,,,,,,,15,,74,0
43079,note_on,,119,0,12,,,,,,,,,,,,,,,,15,,50,0
43079,note_on,,119,0,5,,,,,,,,,,,,,,,,2,,50,0
43080,note_on,,1,0,5,,,,,,,,,,,,,,,,2,,54,48
43080,note_on,,1,0,12,,,,,,,,,,,,,,,,15,,54,48
43080,note_on,,0,0,12,,,,,,,,,,,,,,,,15,,69,48
43080,note_on,,0,0,12,,,,,,,,,,,,,,,,15,,62,48
43080,note_on,,1,0,11,,,,,,,,,,,,,,,,13,,54,48
43139,note_on,,179,0,6,,,,,,,,,,,,,,,,3,,74,0
43140,note_on,,61,0,8,,,,,,,,,,,,,,,,10,,69,48
43199,note_on,,119,0,12,,,,,,,,,,,,,,,,15,,54,0
43199,note_on,,0,0,12,,,,,,,,,,,,,,,,15,,69,0
43199,note_on,,119,0,11,,,,,,,,,,,,,,,,13,,54,0
43199,note_on,,239,0,10,,,,,,,,,,,,,,,,12,,66,0
43199,note_on,,239,0,9,,,,,,,,,,,,,,,,11,,69,0
43199,note_on,,239,0,7,,,,,,,,,,,,,,,,8,,50,0
43199,note_on,,119,0,5,,,,,,,,,,,,,,,,2,,54,0
43199,note_on,,59,0,8,,,,,,,,,,,,,,,,10,,69,0
43199,note_on,,0,0,12,,,,,,,,,,,,,,,,15,,62,0
43200,note_on,,1,0,8,,,,,,,,,,,,,,,,10,,71,48
43200,note_on,,1,0,5,,,,,,,,,,,,,,,,2,,57,48
43200,note_on,,1,0,9,,,,,,,,,,,,,,,,11,,64,48
43200,note_on,,1,0,11,,,,,,,,,,,,,,,,13,,57,48
43200,note_on,,0,0,12,,,,,,,,,,,,,,,,15,,64,48
43200,note_on,,0,0,12,,,,,,,,,,,,,,,,15,,61,48
43200,note_on,,1,0,12,,,,,,,,,,,,,,,,15,,57,48
43200,note_on,,1,0,10,,,,,,,,,,,,,,,,12,,61,48
43259,note_on,,59,0,8,,,,,,,,,,,,,,,,10,,71,0
43260,note_on,,1,0,8,,,,,,,,,,,,,,,,10,,73,48
43319,note_on,,119,0,9,,,,,,,,,,,,,,,,11,,64,0
43319,note_on,,59,0,8,,,,,,,,,,,,,,,,10,,73,0
43319,note_on,,0,0,12,,,,,,,,,,,,,,,,15,,61,0
43319,note_on,,119,0,12,,,,,,,,,,,,,,,,15,,57,0
43319,note_on,,119,0,11,,,,,,,,,,,,,,,,13,,57,0
43319,note_on,,119,0,10,,,,,,,,,,,,,,,,12,,61,0
43319,note_on,,119,0,5,,,,,,,,,,,,,,,,2,,57,0
43319,note_on,,0,0,12,,,,,,,,,,,,,,,,15,,64,0
43320,note_on,,1,0,11,,,,,,,,,,,,,,,,13,,54,48
43320,note_on,,1,0,5,,,,,,,,,,,,,,,,2,,54,48
43320,note_on,,1,0,10,,,,,,,,,,,,,,,,12,,57,48
43320,note_on,,0,0,12,,,,,,,,,,,,,,,,15,,57,48
43320,note_on,,0,0,12,,,,,,,,,,,,,,,,15,,66,48
43320,note_on,,0,0,12,,,,,,,,,,,,,,,,15,,54,48
43320,note_on,,1,0,12,,,,,,,,,,,,,,,,15,,62,48
43320,note_on,,1,0,9,,,,,,,,,,,,,,,,11,,66,48
43320,note_on,,1,0,8,,,,,,,,,,,,,,,,10,,74,48
43379,note_on,,59,0,9,,,,,,,,,,,,,,,,11,,66,0
43379,note_on,,59,0,8,,,,,,,,,,,,,,,,10,,74,0
43380,note_on,,1,0,9,,,,,,,,,,,,,,,,11,,67,48
43380,note_on,,1,0,8,,,,,,,,,,,,,,,,10,,76,48
43439,note_on,,59,0,8,,,,,,,,,,,,,,,,10,,76,0
43439,note_on,,119,0,11,,,,,,,,,,,,,,,,13,,54,0
43439,note_on,,119,0,5,,,,,,,,,,,,,,,,2,,54,0
43439,note_on,,119,0,12,,,,,,,,,,,,,,,,15,,62,0
43439,note_on,,0,0,12,,,,,,,,,,,,,,,,15,,54,0
43439,note_on,,0,0,12,,,,,,,,,,,,,,,,15,,66,0
43439,note_on,,0,0,12,,,,,,,,,,,,,,,,15,,57,0
43439,note_on,,119,0,10,,,,,,,,,,,,,,,,12,,57,0
43439,note_on,,59,0,9,,,,,,,,,,,,,,,,11,,67,0
43440,note_on,,1,0,12,,,,,,,,,,,,,,,,15,,62,48
43440,note_on,,0,0,12,,,,,,,,,,,,,,,,15,,66,48
43440,note_on,,0,0,12,,,,,,,,,,,,,,,,15,,50,48
43440,note_on,,0,0,12,,,,,,,,,,,,,,,,15,,69,48
43440,note_on,,1,0,5,,,,,,,,,,,,,,,,2,,50,48
43440,note_on,,1,0,11,,,,,,,,,,,,,,,,13,,50,48
43440,note_on,,301,0,6,,,,,,,,,,,,,,,,3,,74,64
43440,note_on,,1,0,9,,,,,,,,,,,,,,,,11,,69,48
43440,note_on,,1,0,8,,,,,,,,,,,,,,,,10,,78,48
43499,note_on,,59,0,8,,,,,,,,,,,,,,,,10,,78,0
43499,note_on,,59,0,9,,,,,,,,,,,,,,,,11,,69,0
43500,note_on,,1,0,8,,,,,,,,,,,,,,,,10,,76,48
43500,note_on,,1,0,9,,,,,,,,,,,,,,,,11,,67,48
43559,note_on,,0,0,12,,,,,,,,,,,,,,,,15,,66,0
43559,note_on,,59,0,8,,,,,,,,,,,,,,,,10,,76,0
43559,note_on,,59,0,9,,,,,,,,,,,,,,,,11,,67,0
43559,note_on,,0,0,12,,,,,,,,,,,,,,,,15,,50,0
43559,note_on,,0,0,12,,,,,,,,,,,,,,,,15,,69,0
43559,note_on,,119,0,11,,,,,,,,,,,,,,,,13,,50,0
43559,note_on,,119,0,6,,,,,,,,,,,,,,,,3,,74,0
43559,note_on,,119,0,12,,,,,,,,,,,,,,,,15,,62,0
43559,note_on,,119,0,5,,,,,,,,,,,,,,,,2,,50,0
43560,note_on,,1,0,5,,,,,,,,,,,,,,,,2,,54,48
43560,note_on,,121,0,10,,,,,,,,,,,,,,,,12,,57,48
43560,note_on,,1,0,11,,,,,,,,,,,,,,,,13,,54,48
43560,note_on,,1,0,9,,,,,,,,,,,,,,,,11,,66,48
43560,note_on,,1,0,6,,,,,,,,,,,,,,,,3,,74,64
43560,note_on,,1,0,8,,,,,,,,,,,,,,,,10,,74,48
43560,note_on,,361,0,7,,,,,,,,,,,,,,,,8,,54,72
43560,note_on,,1,0,12,,,,,,,,,,,,,,,,15,,54,48
43560,note_on,,0,0,12,,,,,,,,,,,,,,,,15,,74,48
43560,note_on,,0,0,12,,,,,,,,,,,,,,,,15,,69,48
43560,note_on,,0,0,12,,,,,,,,,,,,,,,,15,,62,48
43619,note_on,,59,0,9,,,,,,,,,,,,,,,,11,,66,0
43619,note_on,,59,0,8,,,,,,,,,,,,,,,,10,,74,0
43620,note_on,,1,0,8,,,,,,,,,,,,,,,,10,,73,48
43620,note_on,,1,0,9,,,,,,,,,,,,,,,,11,,64,48
43679,note_on,,119,0,6,,,,,,,,,,,,,,,,3,,74,0
43679,note_on,,119,0,7,,,,,,,,,,,,,,,,8,,54,0
43679,note_on,,119,0,5,,,,,,,,,,,,,,,,2,,54,0
43679,note_on,,119,0,10,,,,,,,,,,,,,,,,12,,57,0
43679,note_on,,0,0,12,,,,,,,,,,,,,,,,15,,74,0
43679,note_on,,0,0,12,,,,,,,,,,,,,,,,15,,69,0
43679,note_on,,0,0,12,,,,,,,,,,,,,,,,15,,62,0
43679,note_on,,119,0,12,,,,,,,,,,,,,,,,15,,54,0
43679,note_on,,119,0,11,,,,,,,,,,,,,,,,13,,54,0
43679,note_on,,59,0,8,,,,,,,,,,,,,,,,10,,73,0
43679,note_on,,59,0,9,,,,,,,,,,,,,,,,11,,64,0
43680,note_on,,1,0,9,,,,,,,,,,,,,,,,11,,62,48
43680,note_on,,1,0,8,,,,,,,,,,,,,,,,10,,71,48
43680,note_on,,1,0,11,,,,,,,,,,,,,,,,13,,55,48
43680,note_on,,1,0,12,,,,,,,,,,,,,,,,15,,62,48
43680,note_on,,1,0,10,,,,,,,,,,,,,,,,12,,59,48
43680,note_on,,0,0,12,,,,,,,,,,,,,,,,15,,71,48
43680,note_on,,0,0,12,,,,,,,,,,,,,,,,15,,55,48
43680,note_on,,0,0,12,,,,,,,,,,,,,,,,15,,67,48
43680,note_on,,1,0,6,,,,,,,,,,,,,,,,3,,74,64
43680,note_on,,1,0,5,,,,,,,,,,,,,,,,2,,55,48
43680,note_on,,1,0,7,,,,,,,,,,,,,,,,8,,55,72
43799,note_on,,119,0,11,,,,,,,,,,,,,,,,13,,55,0
43799,note_on,,119,0,5,,,,,,,,,,,,,,,,2,,55,0
43799,note_on,,119,0,12,,,,,,,,,,,,,,,,15,,55,0
43799,note_on,,119,0,7,,,,,,,,,,,,,,,,8,,55,0
43799,note_on,,119,0,10,,,,,,,,,,,,,,,,12,,59,0
43800,note_on,,1,0,7,,,,,,,,,,,,,,,,8,,59,72
43800,note_on,,1,0,11,,,,,,,,,,,,,,,,13,,59,48
43800,note_on,,1,0,5,,,,,,,,,,,,,,,,2,,59,48
43800,note_on,,1,0,10,,,,,,,,,,,,,,,,12,,62,48
43800,note_on,,1,0,12,,,,,,,,,,,,,,,,15,,59,48
43859,note_on,,179,0,9,,,,,,,,,,,,,,,,11,,62,0
43859,note_on,,179,0,8,,,,,,,,,,,,,,,,10,,71,0
43859,note_on,,59,0,7,,,,,,,,,,,,,,,,8,,59,0
43859,note_on,,59,0,5,,,,,,,,,,,,,,,,2,,59,0
43859,note_on,,59,0,12,,,,,,,,,,,,,,,,15,,59,0
43859,note_on,,59,0,11,,,,,,,,,,,,,,,,13,,59,0
43859,note_on,,59,0,10,,,,,,,,,,,,,,,,12,,62,0
43860,note_on,,1,0,7,,,,,,,,,,,,,,,,8,,57,72
43860,note_on,,1,0,8,,,,,,,,,,,,,,,,10,,71,48
43860,note_on,,1,0,10,,,,,,,,,,,,,,,,12,,61,48
43860,note_on,,1,0,5,,,,,,,,,,,,,,,,2,,57,48
43860,note_on,,1,0,12,,,,,,,,,,,,,,,,15,,57,48
43860,note_on,,1,0,11,,,,,,,,,,,,,,,,13,,57,48
43860,note_on,,1,0,9,,,,,,,,,,,,,,,,11,,62,48
43919,note_on,,59,0,10,,,,,,,,,,,,,,,,12,,61,0
43919,note_on,,59,0,5,,,,,,,,,,,,,,,,2,,57,0
43919,note_on,,59,0,11,,,,,,,,,,,,,,,,13,,57,0
43919,note_on,,59,0,12,,,,,,,,,,,,,,,,15,,57,0
43919,note_on,,59,0,9,,,,,,,,,,,,,,,,11,,62,0
43919,note_on,,59,0,7,,,,,,,,,,,,,,,,8,,57,0
43919,note_on,,59,0,8,,,,,,,,,,,,,,,,10,,71,0
43920,note_on,,1,0,7,,,,,,,,,,,,,,,,8,,55,72
43920,note_on,,1,0,9,,,,,,,,,,,,,,,,11,,64,48
43920,note_on,,1,0,11,,,,,,,,,,,,,,,,13,,55,48
43920,note_on,,1,0,5,,,,,,,,,,,,,,,,2,,55,48
43920,note_on,,1,0,12,,,,,,,,,,,,,,,,15,,55,48
43920,note_on,,1,0,10,,,,,,,,,,,,,,,,12,,59,48
43920,note_on,,1,0,8,,,,,,,,,,,,,,,,10,,73,48
43979,note_on,,59,0,5,,,,,,,,,,,,,,,,2,,55,0
43979,note_on,,59,0,10,,,,,,,,,,,,,,,,12,,59,0
43979,note_on,,59,0,11,,,,,,,,,,,,,,,,13,,55,0
43979,note_on,,59,0,8,,,,,,,,,,,,,,,,10,,73,0
43979,note_on,,59,0,12,,,,,,,,,,,,,,,,15,,55,0
43979,note_on,,59,0,7,,,,,,,,,,,,,,,,8,,55,0
43979,note_on,,59,0,9,,,,,,,,,,,,,,,,11,,64,0
43980,note_on,,1,0,7,,,,,,,,,,,,,,,,8,,54,72
43980,note_on,,1,0,12,,,,,,,,,,,,,,,,15,,54,48
43980,note_on,,1,0,9,,,,,,,,,,,,,,,,11,,66,48
43980,note_on,,1,0,8,,,,,,,,,,,,,,,,10,,74,48
43980,note_on,,1,0,11,,,,,,,,,,,,,,,,13,,54,48
43980,note_on,,1,0,5,,,,,,,,,,,,,,,,2,,54,48
43980,note_on,,1,0,10,,,,,,,,,,,,,,,,12,,57,48
44039,note_on,,59,0,10,,,,,,,,,,,,,,,,12,,57,0
44039,note_on,,59,0,7,,,,,,,,,,,,,,,,8,,54,0
44039,note_on,,359,0,6,,,,,,,,,,,,,,,,3,,74,0
44039,note_on,,59,0,5,,,,,,,,,,,,,,,,2,,54,0
44039,note_on,,59,0,9,,,,,,,,,,,,,,,,11,,66,0
44039,note_on,,0,0,12,,,,,,,,,,,,,,,,15,,71,0
44039,note_on,,59,0,8,,,,,,,,,,,,,,,,10,,74,0
44039,note_on,,0,0,12,,,,,,,,,,,,,,,,15,,67,0
44039,note_on,,59,0,11,,,,,,,,,,,,,,,,13,,54,0
44039,note_on,,0,0,12,,,,,,,,,,,,,,,,15,,54,0
44039,note_on,,59,0,12,,,,,,,,,,,,,,,,15,,62,0
44040,note_on,,1,0,9,,,,,,,,,,,,,,,,11,,67,48
44040,note_on,,1,0,8,,,,,,,,,,,,,,,,10,,76,48
44040,note_on,,1,0,11,,,,,,,,,,,,,,,,13,,52,48
44040,note_on,,1,0,5,,,,,,,,,,,,,,,,2,,52,48
44040,note_on,,1,0,7,,,,,,,,,,,,,,,,8,,52,72
44040,note_on,,0,0,12,,,,,,,,,,,,,,,,15,,71,48
44040,note_on,,1,0,10,,,,,,,,,,,,,,,,12,,59,48
44040,note_on,,0,0,12,,,,,,,,,,,,,,,,15,,76,48
44040,note_on,,0,0,12,,,,,,,,,,,,,,,,15,,52,48
44040,note_on,,1,0,12,,,,,,,,,,,,,,,,15,,67,48
44099,note_on,,59,0,8,,,,,,,,,,,,,,,,10,,76,0
44099,note_on,,59,0,9,,,,,,,,,,,,,,,,11,,67,0
44100,note_on,,1,0,9,,,,,,,,,,,,,,,,11,,69,48
44100,note_on,,1,0,8,,,,,,,,,,,,,,,,10,,78,48
44159,note_on,,119,0,10,,,,,,,,,,,,,,,,12,,59,0
44159,note_on,,59,0,8,,,,,,,,,,,,,,,,10,,78,0
44159,note_on,,59,0,9,,,,,,,,,,,,,,,,11,,69,0
44160,note_on,,1,0,8,,,,,,,,,,,,,,,,10,,79,48
44160,note_on,,121,0,6,,,,,,,,,,,,,,,,3,,76,64
44160,note_on,,1,0,9,,,,,,,,,,,,,,,,11,,71,48
44219,note_on,,179,0,5,,,,,,,,,,,,,,,,2,,52,0
44219,note_on,,59,0,8,,,,,,,,,,,,,,,,10,,79,0
44219,note_on,,179,0,7,,,,,,,,,,,,,,,,8,,52,0
44219,note_on,,179,0,11,,,,,,,,,,,,,,,,13,,52,0
44219,note_on,,59,0,9,,,,,,,,,,,,,,,,11,,71,0
44219,note_on,,179,0,12,,,,,,,,,,,,,,,,15,,52,0
44220,note_on,,1,0,8,,,,,,,,,,,,,,,,10,,78,48
44220,note_on,,1,0,7,,,,,,,,,,,,,,,,8,,52,72
44220,note_on,,1,0,11,,,,,,,,,,,,,,,,13,,52,48
44220,note_on,,1,0,9,,,,,,,,,,,,,,,,11,,69,48
44220,note_on,,1,0,12,,,,,,,,,,,,,,,,15,,52,48
44220,note_on,,1,0,5,,,,,,,,,,,,,,,,2,,52,48
44279,note_on,,59,0,9,,,,,,,,,,,,,,,,11,,69,0
44279,note_on,,59,0,8,,,,,,,,,,,,,,,,10,,78,0
44279,note_on,,59,0,11,,,,,,,,,,,,,,,,13,,52,0
44279,note_on,,119,0,6,,,,,,,,,,,,,,,,3,,76,0
44279,note_on,,59,0,5,,,,,,,,,,,,,,,,2,,52,0
44279,note_on,,59,0,12,,,,,,,,,,,,,,,,15,,52,0
44279,note_on,,59,0,7,,,,,,,,,,,,,,,,8,,52,0
44280,note_on,,1,0,8,,,,,,,,,,,,,,,,10,,76,48
44280,note_on,,1,0,7,,,,,,,,,,,,,,,,8,,54,72
44280,note_on,,1,0,12,,,,,,,,,,,,,,,,15,,54,48
44280,note_on,,1,0,5,,,,,,,,,,,,,,,,2,,54,48
44280,note_on,,1,0,11,,,,,,,,,,,,,,,,13,,54,48
44280,note_on,,1,0,6,,,,,,,,,,,,,,,,3,,76,64
44280,note_on,,1,0,9,,,,,,,,,,,,,,,,11,,67,48
44280,note_on,,121,0,10,,,,,,,,,,,,,,,,12,,59,48
44339,note_on,,59,0,12,,,,,,,,,,,,,,,,15,,54,0
44339,note_on,,59,0,5,,,,,,,,,,,,,,,,2,,54,0
44339,note_on,,59,0,7,,,,,,,,,,,,,,,,8,,54,0
44339,note_on,,59,0,9,,,,,,,,,,,,,,,,11,,67,0
44339,note_on,,59,0,11,,,,,,,,,,,,,,,,13,,54,0
44339,note_on,,59,0,8,,,,,,,,,,,,,,,,10,,76,0
44340,note_on,,1,0,11,,,,,,,,,,,,,,,,13,,55,48
44340,note_on,,1,0,5,,,,,,,,,,,,,,,,2,,55,48
44340,note_on,,1,0,8,,,,,,,,,,,,,,,,10,,74,48
44340,note_on,,1,0,12,,,,,,,,,,,,,,,,15,,55,48
44340,note_on,,1,0,9,,,,,,,,,,,,,,,,11,,66,48
44340,note_on,,1,0,7,,,,,,,,,,,,,,,,8,,55,72
44399,note_on,,59,0,8,,,,,,,,,,,,,,,,10,,74,0
44399,note_on,,59,0,11,,,,,,,,,,,,,,,,13,,55,0
44399,note_on,,119,0,6,,,,,,,,,,,,,,,,3,,76,0
44399,note_on,,0,0,12,,,,,,,,,,,,,,,,15,,55,0
44399,note_on,,0,0,12,,,,,,,,,,,,,,,,15,,71,0
44399,note_on,,59,0,5,,,,,,,,,,,,,,,,2,,55,0
44399,note_on,,59,0,12,,,,,,,,,,,,,,,,15,,67,0
44399,note_on,,59,0,9,,,,,,,,,,,,,,,,11,,66,0
44399,note_on,,0,0,12,,,,,,,,,,,,,,,,15,,76,0
44399,note_on,,119,0,10,,,,,,,,,,,,,,,,12,,59,0
44399,note_on,,59,0,7,,,,,,,,,,,,,,,,8,,55,0
44400,note_on,,1,0,7,,,,,,,,,,,,,,,,8,,57,72
44400,note_on,,1,0,11,,,,,,,,,,,,,,,,13,,57,48
44400,note_on,,1,0,9,,,,,,,,,,,,,,,,11,,64,48
44400,note_on,,1,0,8,,,,,,,,,,,,,,,,10,,73,48
44400,note_on,,1,0,6,,,,,,,,,,,,,,,,3,,76,64
44400,note_on,,1,0,10,,,,,,,,,,,,,,,,12,,61,48
44400,note_on,,1,0,5,,,,,,,,,,,,,,,,2,,57,48
44400,note_on,,0,0,12,,,,,,,,,,,,,,,,15,,57,48
44400,note_on,,0,0,12,,,,,,,,,,,,,,,,15,,73,48
44400,note_on,,1,0,12,,,,,,,,,,,,,,,,15,,64,48
44400,note_on,,0,0,12,,,,,,,,,,,,,,,,15,,69,48
44459,note_on,,59,0,12,,,,,,,,,,,,,,,,15,,57,0
44459,note_on,,59,0,11,,,,,,,,,,,,,,,,13,,57,0
44459,note_on,,59,0,5,,,,,,,,,,,,,,,,2,,57,0
44459,note_on,,59,0,7,,,,,,,,,,,,,,,,8,,57,0
44459,note_on,,59,0,10,,,,,,,,,,,,,,,,12,,61,0
44460,note_on,,1,0,5,,,,,,,,,,,,,,,,2,,59,48
44460,note_on,,1,0,12,,,,,,,,,,,,,,,,15,,59,48
44460,note_on,,1,0,11,,,,,,,,,,,,,,,,13,,59,48
44460,note_on,,1,0,7,,,,,,,,,,,,,,,,8,,59,72
44460,note_on,,1,0,10,,,,,,,,,,,,,,,,12,,62,48
44519,note_on,,59,0,10,,,,,,,,,,,,,,,,12,,62,0
44519,note_on,,59,0,5,,,,,,,,,,,,,,,,2,,59,0
44519,note_on,,59,0,11,,,,,,,,,,,,,,,,13,,59,0
44519,note_on,,59,0,12,,,,,,,,,,,,,,,,15,,59,0
44519,note_on,,59,0,7,,,,,,,,,,,,,,,,8,,59,0
44520,note_on,,1,0,11,,,,,,,,,,,,,,,,13,,61,48
44520,note_on,,1,0,10,,,,,,,,,,,,,,,,12,,64,48
44520,note_on,,1,0,7,,,,,,,,,,,,,,,,8,,61,72
44520,note_on,,1,0,5,,,,,,,,,,,,,,,,2,,61,48
44520,note_on,,1,0,12,,,,,,,,,,,,,,,,15,,61,48
44579,note_on,,59,0,5,,,,,,,,,,,,,,,,2,,61,0
44579,note_on,,59,0,12,,,,,,,,,,,,,,,,15,,61,0
44579,note_on,,179,0,8,,,,,,,,,,,,,,,,10,,73,0
44579,note_on,,59,0,11,,,,,,,,,,,,,,,,13,,61,0
44579,note_on,,59,0,10,,,,,,,,,,,,,,,,12,,64,0
44579,note_on,,179,0,9,,,,,,,,,,,,,,,,11,,64,0
44579,note_on,,59,0,7,,,,,,,,,,,,,,,,8,,61,0
44580,note_on,,1,0,9,,,,,,,,,,,,,,,,11,,64,48
44580,note_on,,1,0,7,,,,,,,,,,,,,,,,8,,59,72
44580,note_on,,1,0,10,,,,,,,,,,,,,,,,12,,62,48
44580,note_on,,1,0,5,,,,,,,,,,,,,,,,2,,59,48
44580,note_on,,1,0,12,,,,,,,,,,,,,,,,15,,59,48
44580,note_on,,1,0,8,,,,,,,,,,,,,,,,10,,73,48
44580,note_on,,1,0,11,,,,,,,,,,,,,,,,13,,59,48
44639,note_on,,59,0,8,,,,,,,,,,,,,,,,10,,73,0
44639,note_on,,59,0,12,,,,,,,,,,,,,,,,15,,59,0
44639,note_on,,59,0,9,,,,,,,,,,,,,,,,11,,64,0
44639,note_on,,59,0,5,,,,,,,,,,,,,,,,2,,59,0
44639,note_on,,59,0,7,,,,,,,,,,,,,,,,8,,59,0
44639,note_on,,59,0,10,,,,,,,,,,,,,,,,12,,62,0
44639,note_on,,59,0,11,,,,,,,,,,,,,,,,13,,59,0
44640,note_on,,1,0,7,,,,,,,,,,,,,,,,8,,57,72
44640,note_on,,1,0,8,,,,,,,,,,,,,,,,10,,74,48
44640,note_on,,1,0,10,,,,,,,,,,,,,,,,12,,61,48
44640,note_on,,1,0,9,,,,,,,,,,,,,,,,11,,66,48
44640,note_on,,1,0,11,,,,,,,,,,,,,,,,13,,57,48
44640,note_on,,1,0,12,,,,,,,,,,,,,,,,15,,57,48
44640,note_on,,1,0,5,,,,,,,,,,,,,,,,2,,57,48
44699,note_on,,59,0,12,,,,,,,,,,,,,,,,15,,57,0
44699,note_on,,59,0,7,,,,,,,,,,,,,,,,8,,57,0
44699,note_on,,59,0,10,,,,,,,,,,,,,,,,12,,61,0
44699,note_on,,59,0,9,,,,,,,,,,,,,,,,11,,66,0
44699,note_on,,59,0,5,,,,,,,,,,,,,,,,2,,57,0
44699,note_on,,59,0,8,,,,,,,,,,,,,,,,10,,74,0
44699,note_on,,59,0,11,,,,,,,,,,,,,,,,13,,57,0
44700,note_on,,1,0,7,,,,,,,,,,,,,,,,8,,55,72
44700,note_on,,1,0,11,,,,,,,,,,,,,,,,13,,55,48
44700,note_on,,1,0,9,,,,,,,,,,,,,,,,11,,67,48
44700,note_on,,1,0,12,,,,,,,,,,,,,,,,15,,55,48
44700,note_on,,1,0,5,,,,,,,,,,,,,,,,2,,55,48
44700,note_on,,1,0,10,,,,,,,,,,,,,,,,12,,59,48
44700,note_on,,1,0,8,,,,,,,,,,,,,,,,10,,76,48
44759,note_on,,59,0,9,,,,,,,,,,,,,,,,11,,67,0
44759,note_on,,359,0,6,,,,,,,,,,,,,,,,3,,76,0
44759,note_on,,0,0,12,,,,,,,,,,,,,,,,15,,69,0
44759,note_on,,0,0,12,,,,,,,,,,,,,,,,15,,73,0
44759,note_on,,59,0,11,,,,,,,,,,,,,,,,13,,55,0
44759,note_on,,0,0,12,,,,,,,,,,,,,,,,15,,55,0
44759,note_on,,59,0,5,,,,,,,,,,,,,,,,2,,55,0
44759,note_on,,59,0,7,,,,,,,,,,,,,,,,8,,55,0
44759,note_on,,59,0,10,,,,,,,,,,,,,,,,12,,59,0
44759,note_on,,59,0,8,,,,,,,,,,,,,,,,10,,76,0
44759,note_on,,59,0,12,,,,,,,,,,,,,,,,15,,64,0
44760,note_on,,1,0,11,,,,,,,,,,,,,,,,13,,54,48
44760,note_on,,0,0,12,,,,,,,,,,,,,,,,15,,69,48
44760,note_on,,1,0,8,,,,,,,,,,,,,,,,10,,78,48
44760,note_on,,1,0,12,,,,,,,,,,,,,,,,15,,54,48
44760,note_on,,0,0,12,,,,,,,,,,,,,,,,15,,73,48
44760,note_on,,0,0,12,,,,,,,,,,,,,,,,15,,78,48
44760,note_on,,1,0,9,,,,,,,,,,,,,,,,11,,69,48
44760,note_on,,1,0,10,,,,,,,,,,,,,,,,12,,61,48
44760,note_on,,1,0,5,,,,,,,,,,,,,,,,2,,54,48
44760,note_on,,1,0,7,,,,,,,,,,,,,,,,8,,54,72
44819,note_on,,59,0,9,,,,,,,,,,,,,,,,11,,69,0
44819,note_on,,59,0,8,,,,,,,,,,,,,,,,10,,78,0
44820,note_on,,1,0,9,,,,,,,,,,,,,,,,11,,71,48
44820,note_on,,1,0,8,,,,,,,,,,,,,,,,10,,79,48
44879,note_on,,59,0,8,,,,,,,,,,,,,,,,10,,79,0
44879,note_on,,119,0,10,,,,,,,,,,,,,,,,12,,61,0
44879,note_on,,59,0,9,,,,,,,,,,,,,,,,11,,71,0
44880,note_on,,1,0,9,,,,,,,,,,,,,,,,11,,73,48
44880,note_on,,1,0,8,,,,,,,,,,,,,,,,10,,81,48
44880,note_on,,121,0,6,,,,,,,,,,,,,,,,3,,78,64
44939,note_on,,179,0,11,,,,,,,,,,,,,,,,13,,54,0
44939,note_on,,59,0,9,,,,,,,,,,,,,,,,11,,73,0
44939,note_on,,179,0,12,,,,,,,,,,,,,,,,15,,54,0
44939,note_on,,59,0,8,,,,,,,,,,,,,,,,10,,81,0
44939,note_on,,179,0,5,,,,,,,,,,,,,,,,2,,54,0
44939,note_on,,179,0,7,,,,,,,,,,,,,,,,8,,54,0
44940,note_on,,1,0,12,,,,,,,,,,,,,,,,15,,54,48
44940,note_on,,1,0,8,,,,,,,,,,,,,,,,10,,79,48
44940,note_on,,1,0,5,,,,,,,,,,,,,,,,2,,54,48
44940,note_on,,1,0,9,,,,,,,,,,,,,,,,11,,71,48
44940,note_on,,1,0,7,,,,,,,,,,,,,,,,8,,54,72
44940,note_on,,1,0,11,,,,,,,,,,,,,,,,13,,54,48
44999,note_on,,59,0,5,,,,,,,,,,,,,,,,2,,54,0
44999,note_on,,59,0,8,,,,,,,,,,,,,,,,10,,79,0
44999,note_on,,59,0,7,,,,,,,,,,,,,,,,8,,54,0
44999,note_on,,59,0,12,,,,,,,,,,,,,,,,15,,54,0
44999,note_on,,59,0,9,,,,,,,,,,,,,,,,11,,71,0
44999,note_on,,119,0,6,,,,,,,,,,,,,,,,3,,78,0
44999,note_on,,59,0,11,,,,,,,,,,,,,,,,13,,54,0
45000,note_on,,1,0,8,,,,,,,,,,,,,,,,10,,78,48
45000,note_on,,1,0,11,,,,,,,,,,,,,,,,13,,55,48
45000,note_on,,121,0,10,,,,,,,,,,,,,,,,12,,61,48
45000,note_on,,1,0,9,,,,,,,,,,,,,,,,11,,69,48
45000,note_on,,1,0,5,,,,,,,,,,,,,,,,2,,55,48
45000,note_on,,1,0,7,,,,,,,,,,,,,,,,8,,55,72
45000,note_on,,1,0,12,,,,,,,,,,,,,,,,15,,55,48
45000,note_on,,1,0,6,,,,,,,,,,,,,,,,3,,78,64
45059,note_on,,59,0,12,,,,,,,,,,,,,,,,15,,55,0
45059,note_on,,59,0,5,,,,,,,,,,,,,,,,2,,55,0
45059,note_on,,59,0,8,,,,,,,,,,,,,,,,10,,78,0
45059,note_on,,59,0,9,,,,,,,,,,,,,,,,11,,69,0
45059,note_on,,59,0,7,,,,,,,,,,,,,,,,8,,55,0
45059,note_on,,59,0,11,,,,,,,,,,,,,,,,13,,55,0
45060,note_on,,1,0,5,,,,,,,,,,,,,,,,2,,57,48
45060,note_on,,1,0,7,,,,,,,,,,,,,,,,8,,57,72
45060,note_on,,1,0,9,,,,,,,,,,,,,,,,11,,67,48
45060,note_on,,1,0,11,,,,,,,,,,,,,,,,13,,57,48
45060,note_on,,1,0,8,,,,,,,,,,,,,,,,10,,76,48
45060,note_on,,1,0,12,,,,,,,,,,,,,,,,15,,57,48
45119,note_on,,0,0,12,,,,,,,,,,,,,,,,15,,57,0
45119,note_on,,59,0,8,,,,,,,,,,,,,,,,10,,76,0
45119,note_on,,59,0,9,,,,,,,,,,,,,,,,11,,67,0
45119,note_on,,59,0,11,,,,,,,,,,,,,,,,13,,57,0
45119,note_on,,59,0,5,,,,,,,,,,,,,,,,2,,57,0
45119,note_on,,59,0,12,,,,,,,,,,,,,,,,15,,73,0
45119,note_on,,0,0,12,,,,,,,,,,,,,,,,15,,78,0
45119,note_on,,0,0,12,,,,,,,,,,,,,,,,15,,69,0
45119,note_on,,119,0,6,,,,,,,,,,,,,,,,3,,78,0
45119,note_on,,119,0,10,,,,,,,,,,,,,,,,12,,61,0
45119,note_on,,59,0,7,,,,,,,,,,,,,,,,8,,57,0
45120,note_on,,1,0,7,,,,,,,,,,,,,,,,8,,59,72
45120,note_on,,1,0,9,,,,,,,,,,,,,,,,11,,66,48
45120,note_on,,1,0,6,,,,,,,,,,,,,,,,3,,78,64
45120,note_on,,1,0,10,,,,,,,,,,,,,,,,12,,62,48
45120,note_on,,0,0,12,,,,,,,,,,,,,,,,15,,66,48
45120,note_on,,0,0,12,,,,,,,,,,,,,,,,15,,59,48
45120,note_on,,0,0,12,,,,,,,,,,,,,,,,15,,71,48
45120,note_on,,1,0,12,,,,,,,,,,,,,,,,15,,74,48
45120,note_on,,1,0,5,,,,,,,,,,,,,,,,2,,59,48
45120,note_on,,1,0,11,,,,,,,,,,,,,,,,13,,59,48
45120,note_on,,1,0,8,,,,,,,,,,,,,,,,10,,74,48
45179,note_on,,59,0,11,,,,,,,,,,,,,,,,13,,59,0
45179,note_on,,59,0,7,,,,,,,,,,,,,,,,8,,59,0
45179,note_on,,59,0,10,,,,,,,,,,,,,,,,12,,62,0
45179,note_on,,59,0,12,,,,,,,,,,,,,,,,15,,59,0
45179,note_on,,59,0,5,,,,,,,,,,,,,,,,2,,59,0
45180,note_on,,1,0,11,,,,,,,,,,,,,,,,13,,61,48
45180,note_on,,1,0,10,,,,,,,,,,,,,,,,12,,64,48
45180,note_on,,1,0,5,,,,,,,,,,,,,,,,2,,61,48
45180,note_on,,1,0,7,,,,,,,,,,,,,,,,8,,61,72
45180,note_on,,1,0,12,,,,,,,,,,,,,,,,15,,61,48
45239,note_on,,59,0,12,,,,,,,,,,,,,,,,15,,61,0
45239,note_on,,59,0,10,,,,,,,,,,,,,,,,12,,64,0
45239,note_on,,59,0,7,,,,,,,,,,,,,,,,8,,61,0
45239,note_on,,59,0,11,,,,,,,,,,,,,,,,13,,61,0
45239,note_on,,59,0,5,,,,,,,,,,,,,,,,2,,61,0
45240,note_on,,1,0,7,,,,,,,,,,,,,,,,8,,62,72
45240,note_on,,1,0,10,,,,,,,,,,,,,,,,12,,66,48
45240,note_on,,1,0,11,,,,,,,,,,,,,,,,13,,62,48
45240,note_on,,1,0,5,,,,,,,,,,,,,,,,2,,62,48
45240,note_on,,1,0,12,,,,,,,,,,,,,,,,15,,62,48
45299,note_on,,179,0,9,,,,,,,,,,,,,,,,11,,66,0
45299,note_on,,59,0,11,,,,,,,,,,,,,,,,13,,62,0
45299,note_on,,59,0,7,,,,,,,,,,,,,,,,8,,62,0
45299,note_on,,59,0,10,,,,,,,,,,,,,,,,12,,66,0
45299,note_on,,59,0,5,,,,,,,,,,,,,,,,2,,62,0
45299,note_on,,179,0,8,,,,,,,,,,,,,,,,10,,74,0
45299,note_on,,59,0,12,,,,,,,,,,,,,,,,15,,62,0
45300,note_on,,1,0,9,,,,,,,,,,,,,,,,11,,66,48
45300,note_on,,1,0,12,,,,,,,,,,,,,,,,15,,61,48
45300,note_on,,1,0,8,,,,,,,,,,,,,,,,10,,74,48
45300,note_on,,1,0,5,,,,,,,,,,,,,,,,2,,61,48
45300,note_on,,1,0,10,,,,,,,,,,,,,,,,12,,64,48
45300,note_on,,1,0,7,,,,,,,,,,,,,,,,8,,61,72
45300,note_on,,1,0,11,,,,,,,,,,,,,,,,13,,61,48
45359,note_on,,59,0,9,,,,,,,,,,,,,,,,11,,66,0
45359,note_on,,59,0,11,,,,,,,,,,,,,,,,13,,61,0
45359,note_on,,59,0,12,,,,,,,,,,,,,,,,15,,61,0
45359,note_on,,59,0,7,,,,,,,,,,,,,,,,8,,61,0
45359,note_on,,59,0,5,,,,,,,,,,,,,,,,2,,61,0
45359,note_on,,59,0,10,,,,,,,,,,,,,,,,12,,64,0
45359,note_on,,59,0,8,,,,,,,,,,,,,,,,10,,74,0
45360,note_on,,1,0,10,,,,,,,,,,,,,,,,12,,62,48
45360,note_on,,1,0,11,,,,,,,,,,,,,,,,13,,59,48
45360,note_on,,1,0,9,,,,,,,,,,,,,,,,11,,67,48
45360,note_on,,1,0,8,,,,,,,,,,,,,,,,10,,76,48
45360,note_on,,1,0,5,,,,,,,,,,,,,,,,2,,59,48
45360,note_on,,1,0,7,,,,,,,,,,,,,,,,8,,59,72
45360,note_on,,1,0,12,,,,,,,,,,,,,,,,15,,59,48
45419,note_on,,59,0,12,,,,,,,,,,,,,,,,15,,59,0
45419,note_on,,59,0,10,,,,,,,,,,,,,,,,12,,62,0
45419,note_on,,59,0,11,,,,,,,,,,,,,,,,13,,59,0
45419,note_on,,59,0,9,,,,,,,,,,,,,,,,11,,67,0
45419,note_on,,59,0,5,,,,,,,,,,,,,,,,2,,59,0
45419,note_on,,59,0,8,,,,,,,,,,,,,,,,10,,76,0
45419,note_on,,59,0,7,,,,,,,,,,,,,,,,8,,59,0
45420,note_on,,1,0,11,,,,,,,,,,,,,,,,13,,57,48
45420,note_on,,1,0,10,,,,,,,,,,,,,,,,12,,61,48
45420,note_on,,1,0,5,,,,,,,,,,,,,,,,2,,57,48
45420,note_on,,1,0,12,,,,,,,,,,,,,,,,15,,57,48
45420,note_on,,1,0,8,,,,,,,,,,,,,,,,10,,78,48
45420,note_on,,1,0,7,,,,,,,,,,,,,,,,8,,57,72
45420,note_on,,1,0,9,,,,,,,,,,,,,,,,11,,69,48
45479,note_on,,0,0,12,,,,,,,,,,,,,,,,15,,71,0
45479,note_on,,59,0,12,,,,,,,,,,,,,,,,15,,74,0
45479,note_on,,59,0,9,,,,,,,,,,,,,,,,11,,69,0
45479,note_on,,59,0,10,,,,,,,,,,,,,,,,12,,61,0
45479,note_on,,0,0,12,,,,,,,,,,,,,,,,15,,57,0
45479,note_on,,59,0,8,,,,,,,,,,,,,,,,10,,78,0
45479,note_on,,59,0,5,,,,,,,,,,,,,,,,2,,57,0
45479,note_on,,59,0,11,,,,,,,,,,,,,,,,13,,57,0
45479,note_on,,359,0,6,,,,,,,,,,,,,,,,3,,78,0
45479,note_on,,59,0,7,,,,,,,,,,,,,,,,8,,57,0
45479,note_on,,0,0,12,,,,,,,,,,,,,,,,15,,66,0
45480,note_on,,1,0,9,,,,,,,,,,,,,,,,11,,71,48
45480,note_on,,1,0,8,,,,,,,,,,,,,,,,10,,79,48
45480,note_on,,0,0,12,,,,,,,,,,,,,,,,15,,55,48
45480,note_on,,0,0,12,,,,,,,,,,,,,,,,15,,74,48
45480,note_on,,1,0,10,,,,,,,,,,,,,,,,12,,62,48
45480,note_on,,1,0,5,,,,,,,,,,,,,,,,2,,55,48
45480,note_on,,1,0,12,,,,,,,,,,,,,,,,15,,79,48
45480,note_on,,1,0,7,,,,,,,,,,,,,,,,8,,55,72
45480,note_on,,1,0,11,,,,,,,,,,,,,,,,13,,55,48
45480,note_on,,0,0,12,,,,,,,,,,,,,,,,15,,71,48
45539,note_on,,59,0,8,,,,,,,,,,,,,,,,10,,79,0
45540,note_on,,1,0,8,,,,,,,,,,,,,,,,10,,78,48
45599,note_on,,0,0,12,,,,,,,,,,,,,,,,15,,71,0
45599,note_on,,119,0,7,,,,,,,,,,,,,,,,8,,55,0
45599,note_on,,119,0,12,,,,,,,,,,,,,,,,15,,55,0
45599,note_on,,119,0,9,,,,,,,,,,,,,,,,11,,71,0
45599,note_on,,59,0,8,,,,,,,,,,,,,,,,10,,78,0
45599,note_on,,119,0,5,,,,,,,,,,,,,,,,2,,55,0
45599,note_on,,119,0,11,,,,,,,,,,,,,,,,13,,55,0
45600,note_on,,1,0,11,,,,,,,,,,,,,,,,13,,54,48
45600,note_on,,1,0,12,,,,,,,,,,,,,,,,15,,54,48
45600,note_on,,1,0,8,,,,,,,,,,,,,,,,10,,79,48
45600,note_on,,1,0,9,,,,,,,,,,,,,,,,11,,69,48
45600,note_on,,1,0,7,,,,,,,,,,,,,,,,8,,54,72
45600,note_on,,1,0,5,,,,,,,,,,,,,,,,2,,54,48
45600,note_on,,121,0,6,,,,,,,,,,,,,,,,3,,74,64
45600,note_on,,0,0,12,,,,,,,,,,,,,,,,15,,69,48
45659,note_on,,59,0,8,,,,,,,,,,,,,,,,10,,79,0
45659,note_on,,179,0,10,,,,,,,,,,,,,,,,12,,62,0
45660,note_on,,1,0,10,,,,,,,,,,,,,,,,12,,57,48
45660,note_on,,1,0,8,,,,,,,,,,,,,,,,10,,81,48
45719,note_on,,0,0,12,,,,,,,,,,,,,,,,15,,54,0
45719,note_on,,59,0,8,,,,,,,,,,,,,,,,10,,81,0
45719,note_on,,119,0,11,,,,,,,,,,,,,,,,13,,54,0
45719,note_on,,59,0,10,,,,,,,,,,,,,,,,12,,57,0
45719,note_on,,119,0,6,,,,,,,,,,,,,,,,3,,74,0
45719,note_on,,119,0,9,,,,,,,,,,,,,,,,11,,69,0
45719,note_on,,0,0,12,,,,,,,,,,,,,,,,15,,69,0
45719,note_on,,119,0,7,,,,,,,,,,,,,,,,8,,54,0
45719,note_on,,119,0,5,,,,,,,,,,,,,,,,2,,54,0
45719,note_on,,119,0,12,,,,,,,,,,,,,,,,15,,74,0
45720,note_on,,1,0,11,,,,,,,,,,,,,,,,13,,52,48
45720,note_on,,1,0,7,,,,,,,,,,,,,,,,8,,52,72
45720,note_on,,1,0,8,,,,,,,,,,,,,,,,10,,83,48
45720,note_on,,1,0,5,,,,,,,,,,,,,,,,2,,52,48
45720,note_on,,1,0,9,,,,,,,,,,,,,,,,11,,67,48
45720,note_on,,1,0,12,,,,,,,,,,,,,,,,15,,73,48
45720,note_on,,0,0,12,,,,,,,,,,,,,,,,15,,52,48
45720,note_on,,1,0,6,,,,,,,,,,,,,,,,3,,79,64
45720,note_on,,0,0,12,,,,,,,,,,,,,,,,15,,67,48
45720,note_on,,1,0,10,,,,,,,,,,,,,,,,12,,64,48
45779,note_on,,59,0,8,,,,,,,,,,,,,,,,10,,83,0
45780,note_on,,1,0,8,,,,,,,,,,,,,,,,10,,85,48
45839,note_on,,119,0,10,,,,,,,,,,,,,,,,12,,64,0
45839,note_on,,119,0,7,,,,,,,,,,,,,,,,8,,52,0
45839,note_on,,119,0,6,,,,,,,,,,,,,,,,3,,79,0
45839,note_on,,119,0,12,,,,,,,,,,,,,,,,15,,79,0
45839,note_on,,0,0,12,,,,,,,,,,,,,,,,15,,73,0
45839,note_on,,119,0,5,,,,,,,,,,,,,,,,2,,52,0
45839,note_on,,119,0,11,,,,,,,,,,,,,,,,13,,52,0
45839,note_on,,0,0,12,,,,,,,,,,,,,,,,15,,52,0
45839,note_on,,0,0,12,,,,,,,,,,,,,,,,15,,67,0
45839,note_on,,59,0,8,,,,,,,,,,,,,,,,10,,85,0
45839,note_on,,119,0,9,,,,,,,,,,,,,,,,11,,67,0
45840,note_on,,1,0,10,,,,,,,,,,,,,,,,12,,66,48
45840,note_on,,0,0,12,,,,,,,,,,,,,,,,15,,50,48
45840,note_on,,1,0,8,,,,,,,,,,,,,,,,10,,86,48
45840,note_on,,1,0,6,,,,,,,,,,,,,,,,3,,78,64
45840,note_on,,1,0,12,,,,,,,,,,,,,,,,15,,78,48
45840,note_on,,0,0,12,,,,,,,,,,,,,,,,15,,69,48
45840,note_on,,1,0,7,,,,,,,,,,,,,,,,8,,50,72
45840,note_on,,0,0,12,,,,,,,,,,,,,,,,15,,74,48
45840,note_on,,1,0,9,,,,,,,,,,,,,,,,11,,69,48
45840,note_on,,1,0,11,,,,,,,,,,,,,,,,13,,50,48
45840,note_on,,1,0,5,,,,,,,,,,,,,,,,2,,50,48
45899,note_on,,59,0,6,,,,,,,,,,,,,,,,3,,78,0
45900,note_on,,1,0,6,,,,,,,,,,,,,,,,3,,76,64
45959,note_on,,119,0,5,,,,,,,,,,,,,,,,2,,50,0
45959,note_on,,59,0,6,,,,,,,,,,,,,,,,3,,76,0
45959,note_on,,119,0,7,,,,,,,,,,,,,,,,8,,50,0
45959,note_on,,119,0,10,,,,,,,,,,,,,,,,12,,66,0
45959,note_on,,119,0,12,,,,,,,,,,,,,,,,15,,50,0
45959,note_on,,119,0,11,,,,,,,,,,,,,,,,13,,50,0
45959,note_on,,119,0,9,,,,,,,,,,,,,,,,11,,69,0
45960,note_on,,1,0,6,,,,,,,,,,,,,,,,3,,74,64
46019,note_on,,59,0,6,,,,,,,,,,,,,,,,3,,74,0
46019,note_on,,179,0,8,,,,,,,,,,,,,,,,10,,86,0
46020,note_on,,1,0,8,,,,,,,,,,,,,,,,10,,78,48
46020,note_on,,1,0,6,,,,,,,,,,,,,,,,3,,78,64
46079,note_on,,59,0,8,,,,,,,,,,,,,,,,10,,78,0
46079,note_on,,59,0,6,,,,,,,,,,,,,,,,3,,78,0
46080,note_on,,1,0,8,,,,,,,,,,,,,,,,10,,76,48
46080,note_on,,121,0,7,,,,,,,,,,,,,,,,8,,50,72
46080,note_on,,121,0,11,,,,,,,,,,,,,,,,13,,50,48
46080,note_on,,121,0,9,,,,,,,,,,,,,,,,11,,69,48
46080,note_on,,121,0,12,,,,,,,,,,,,,,,,15,,50,48
46080,note_on,,121,0,5,,,,,,,,,,,,,,,,2,,50,48
46080,note_on,,121,0,10,,,,,,,,,,,,,,,,12,,66,48
46080,note_on,,1,0,6,,,,,,,,,,,,,,,,3,,76,64
46139,note_on,,59,0,6,,,,,,,,,,,,,,,,3,,76,0
46139,note_on,,59,0,8,,,,,,,,,,,,,,,,10,,76,0
46140,note_on,,1,0,6,,,,,,,,,,,,,,,,3,,74,64
46140,note_on,,1,0,8,,,,,,,,,,,,,,,,10,,74,48
46199,note_on,,119,0,7,,,,,,,,,,,,,,,,8,,50,0
46199,note_on,,59,0,8,,,,,,,,,,,,,,,,10,,74,0
46199,note_on,,119,0,9,,,,,,,,,,,,,,,,11,,69,0
46199,note_on,,0,0,12,,,,,,,,,,,,,,,,15,,74,0
46199,note_on,,0,0,12,,,,,,,,,,,,,,,,15,,69,0
46199,note_on,,119,0,12,,,,,,,,,,,,,,,,15,,78,0
46199,note_on,,119,0,11,,,,,,,,,,,,,,,,13,,50,0
46199,note_on,,119,0,5,,,,,,,,,,,,,,,,2,,50,0
46199,note_on,,0,0,12,,,,,,,,,,,,,,,,15,,50,0
46199,note_on,,59,0,6,,,,,,,,,,,,,,,,3,,74,0
46199,note_on,,119,0,10,,,,,,,,,,,,,,,,12,,66,0
46200,note_on,,1,0,11,,,,,,,,,,,,,,,,13,,62,48
46200,note_on,,1,0,7,,,,,,,,,,,,,,,,8,,62,72
46200,note_on,,1,0,6,,,,,,,,,,,,,,,,3,,80,64
46200,note_on,,1,0,12,,,,,,,,,,,,,,,,15,,62,48
46200,note_on,,0,0,12,,,,,,,,,,,,,,,,15,,68,48
46200,note_on,,0,0,12,,,,,,,,,,,,,,,,15,,76,48
46200,note_on,,0,0,12,,,,,,,,,,,,,,,,15,,71,48
46200,note_on,,1,0,5,,,,,,,,,,,,,,,,2,,62,48
46200,note_on,,1,0,8,,,,,,,,,,,,,,,,10,,80,48
46200,note_on,,1,0,10,,,,,,,,,,,,,,,,12,,64,48
46200,note_on,,1,0,9,,,,,,,,,,,,,,,,11,,71,48
46259,note_on,,59,0,6,,,,,,,,,,,,,,,,3,,80,0
46259,note_on,,59,0,8,,,,,,,,,,,,,,,,10,,80,0
46260,note_on,,1,0,6,,,,,,,,,,,,,,,,3,,78,64
46260,note_on,,1,0,8,,,,,,,,,,,,,,,,10,,78,48
46319,note_on,,119,0,11,,,,,,,,,,,,,,,,13,,62,0
46319,note_on,,119,0,5,,,,,,,,,,,,,,,,2,,62,0
46319,note_on,,59,0,8,,,,,,,,,,,,,,,,10,,78,0
46319,note_on,,59,0,6,,,,,,,,,,,,,,,,3,,78,0
46319,note_on,,119,0,9,,,,,,,,,,,,,,,,11,,71,0
46319,note_on,,119,0,12,,,,,,,,,,,,,,,,15,,62,0
46319,note_on,,119,0,7,,,,,,,,,,,,,,,,8,,62,0
46319,note_on,,119,0,10,,,,,,,,,,,,,,,,12,,64,0
46320,note_on,,1,0,7,,,,,,,,,,,,,,,,8,,62,72
46320,note_on,,1,0,10,,,,,,,,,,,,,,,,12,,64,48
46320,note_on,,1,0,12,,,,,,,,,,,,,,,,15,,62,48
46320,note_on,,1,0,8,,,,,,,,,,,,,,,,10,,76,48
46320,note_on,,1,0,5,,,,,,,,,,,,,,,,2,,62,48
46320,note_on,,1,0,6,,,,,,,,,,,,,,,,3,,76,64
46320,note_on,,1,0,11,,,,,,,,,,,,,,,,13,,62,48
46320,note_on,,1,0,9,,,,,,,,,,,,,,,,11,,71,48
46379,note_on,,59,0,6,,,,,,,,,,,,,,,,3,,76,0
46379,note_on,,59,0,8,,,,,,,,,,,,,,,,10,,76,0
46380,note_on,,1,0,8,,,,,,,,,,,,,,,,10,,80,48
46380,note_on,,1,0,6,,,,,,,,,,,,,,,,3,,80,64
46439,note_on,,119,0,10,,,,,,,,,,,,,,,,12,,64,0
46439,note_on,,119,0,9,,,,,,,,,,,,,,,,11,,71,0
46439,note_on,,59,0,8,,,,,,,,,,,,,,,,10,,80,0
46439,note_on,,119,0,12,,,,,,,,,,,,,,,,15,,62,0
46439,note_on,,119,0,5,,,,,,,,,,,,,,,,2,,62,0
46439,note_on,,119,0,11,,,,,,,,,,,,,,,,13,,62,0
46439,note_on,,119,0,7,,,,,,,,,,,,,,,,8,,62,0
46439,note_on,,59,0,6,,,,,,,,,,,,,,,,3,,80,0
46440,note_on,,1,0,6,,,,,,,,,,,,,,,,3,,78,64
46440,note_on,,1,0,12,,,,,,,,,,,,,,,,15,,62,48
46440,note_on,,1,0,5,,,,,,,,,,,,,,,,2,,62,48
46440,note_on,,1,0,10,,,,,,,,,,,,,,,,12,,64,48
46440,note_on,,1,0,9,,,,,,,,,,,,,,,,11,,71,48
46440,note_on,,1,0,11,,,,,,,,,,,,,,,,13,,62,48
46440,note_on,,1,0,8,,,,,,,,,,,,,,,,10,,78,48
46440,note_on,,1,0,7,,,,,,,,,,,,,,,,8,,62,72
46499,note_on,,59,0,6,,,,,,,,,,,,,,,,3,,78,0
46499,note_on,,59,0,8,,,,,,,,,,,,,,,,10,,78,0
46500,note_on,,1,0,6,,,,,,,,,,,,,,,,3,,76,64
46500,note_on,,1,0,8,,,,,,,,,,,,,,,,10,,76,48
46559,note_on,,119,0,5,,,,,,,,,,,,,,,,2,,62,0
46559,note_on,,0,0,12,,,,,,,,,,,,,,,,15,,76,0
46559,note_on,,119,0,12,,,,,,,,,,,,,,,,15,,68,0
46559,note_on,,119,0,9,,,,,,,,,,,,,,,,11,,71,0
46559,note_on,,0,0,12,,,,,,,,,,,,,,,,15,,62,0
46559,note_on,,0,0,12,,,,,,,,,,,,,,,,15,,71,0
46559,note_on,,119,0,7,,,,,,,,,,,,,,,,8,,62,0
46559,note_on,,119,0,10,,,,,,,,,,,,,,,,12,,64,0
46559,note_on,,59,0,6,,,,,,,,,,,,,,,,3,,76,0
46559,note_on,,119,0,11,,,,,,,,,,,,,,,,13,,62,0
46559,note_on,,59,0,8,,,,,,,,,,,,,,,,10,,76,0
46560,note_on,,1,0,11,,,,,,,,,,,,,,,,13,,61,48
46560,note_on,,1,0,7,,,,,,,,,,,,,,,,8,,61,72
46560,note_on,,1,0,6,,,,,,,,,,,,,,,,3,,81,64
46560,note_on,,0,0,12,,,,,,,,,,,,,,,,15,,61,48
46560,note_on,,1,0,12,,,,,,,,,,,,,,,,15,,64,48
46560,note_on,,1,0,5,,,,,,,,,,,,,,,,2,,61,48
46560,note_on,,0,0,12,,,,,,,,,,,,,,,,15,,76,48
46560,note_on,,1,0,9,,,,,,,,,,,,,,,,11,,69,48
46560,note_on,,0,0,12,,,,,,,,,,,,,,,,15,,69,48
46560,note_on,,1,0,8,,,,,,,,,,,,,,,,10,,81,48
46560,note_on,,1,0,10,,,,,,,,,,,,,,,,12,,64,48
46679,note_on,,0,0,12,,,,,,,,,,,,,,,,15,,61,0
46679,note_on,,119,0,10,,,,,,,,,,,,,,,,12,,64,0
46679,note_on,,0,0,12,,,,,,,,,,,,,,,,15,,76,0
46679,note_on,,119,0,6,,,,,,,,,,,,,,,,3,,81,0
46679,note_on,,119,0,11,,,,,,,,,,,,,,,,13,,61,0
46679,note_on,,0,0,12,,,,,,,,,,,,,,,,15,,69,0
46679,note_on,,119,0,8,,,,,,,,,,,,,,,,10,,81,0
46679,note_on,,119,0,5,,,,,,,,,,,,,,,,2,,61,0
46679,note_on,,119,0,9,,,,,,,,,,,,,,,,11,,69,0
46679,note_on,,119,0,7,,,,,,,,,,,,,,,,8,,61,0
46679,note_on,,119,0,12,,,,,,,,,,,,,,,,15,,64,0
46680,note_on,,1,0,8,,,,,,,,,,,,,,,,10,,86,48
46739,note_on,,59,0,8,,,,,,,,,,,,,,,,10,,86,0
46740,note_on,,1,0,8,,,,,,,,,,,,,,,,10,,83,48
46799,note_on,,59,0,8,,,,,,,,,,,,,,,,10,,83,0
46800,note_on,,121,0,11,,,,,,,,,,,,,,,,13,,59,48
46800,note_on,,0,0,12,,,,,,,,,,,,,,,,15,,59,48
46800,note_on,,121,0,7,,,,,,,,,,,,,,,,8,,59,72
46800,note_on,,0,0,12,,,,,,,,,,,,,,,,15,,62,48
46800,note_on,,121,0,9,,,,,,,,,,,,,,,,11,,71,48
46800,note_on,,121,0,10,,,,,,,,,,,,,,,,12,,62,48
46800,note_on,,121,0,5,,,,,,,,,,,,,,,,2,,59,48
46800,note_on,,1,0,8,,,,,,,,,,,,,,,,10,,81,48
46800,note_on,,121,0,12,,,,,,,,,,,,,,,,15,,71,48
46814,note_on,,14,0,8,,,,,,,,,,,,,,,,10,,81,0
46815,note_on,,1,0,8,,,,,,,,,,,,,,,,10,,83,48
46829,note_on,,14,0,8,,,,,,,,,,,,,,,,10,,83,0
46830,note_on,,1,0,8,,,,,,,,,,,,,,,,10,,81,48
46844,note_on,,14,0,8,,,,,,,,,,,,,,,,10,,81,0
46845,note_on,,1,0,8,,,,,,,,,,,,,,,,10,,83,48
46859,note_on,,14,0,8,,,,,,,,,,,,,,,,10,,83,0
46860,note_on,,1,0,8,,,,,,,,,,,,,,,,10,,80,48
46874,note_on,,14,0,8,,,,,,,,,,,,,,,,10,,80,0
46875,note_on,,1,0,8,,,,,,,,,,,,,,,,10,,81,48
46889,note_on,,14,0,8,,,,,,,,,,,,,,,,10,,81,0
46890,note_on,,1,0,8,,,,,,,,,,,,,,,,10,,80,48
46919,note_on,,119,0,5,,,,,,,,,,,,,,,,2,,59,0
46919,note_on,,29,0,8,,,,,,,,,,,,,,,,10,,80,0
46919,note_on,,119,0,11,,,,,,,,,,,,,,,,13,,59,0
46919,note_on,,119,0,10,,,,,,,,,,,,,,,,12,,62,0
46919,note_on,,119,0,12,,,,,,,,,,,,,,,,15,,71,0
46919,note_on,,0,0,12,,,,,,,,,,,,,,,,15,,62,0
46919,note_on,,0,0,12,,,,,,,,,,,,,,,,15,,59,0
46919,note_on,,119,0,9,,,,,,,,,,,,,,,,11,,71,0
46919,note_on,,119,0,7,,,,,,,,,,,,,,,,8,,59,0
46920,note_on,,1,0,11,,,,,,,,,,,,,,,,13,,61,48
46920,note_on,,1,0,8,,,,,,,,,,,,,,,,10,,81,48
46920,note_on,,1,0,7,,,,,,,,,,,,,,,,8,,61,72
46920,note_on,,241,0,6,,,,,,,,,,,,,,,,3,,81,64
46920,note_on,,1,0,10,,,,,,,,,,,,,,,,12,,64,48
46920,note_on,,1,0,5,,,,,,,,,,,,,,,,2,,61,48
46920,note_on,,1,0,12,,,,,,,,,,,,,,,,15,,76,48
46920,note_on,,0,0,12,,,,,,,,,,,,,,,,15,,61,48
46920,note_on,,0,0,12,,,,,,,,,,,,,,,,15,,69,48
46920,note_on,,0,0,12,,,,,,,,,,,,,,,,15,,64,48
46920,note_on,,1,0,9,,,,,,,,,,,,,,,,11,,69,48
47039,note_on,,119,0,5,,,,,,,,,,,,,,,,2,,61,0
47039,note_on,,119,0,9,,,,,,,,,,,,,,,,11,,69,0
47039,note_on,,119,0,6,,,,,,,,,,,,,,,,3,,81,0
47039,note_on,,119,0,11,,,,,,,,,,,,,,,,13,,61,0
47039,note_on,,119,0,7,,,,,,,,,,,,,,,,8,,61,0
47039,note_on,,119,0,10,,,,,,,,,,,,,,,,12,,64,0
47039,note_on,,119,0,8,,,,,,,,,,,,,,,,10,,81,0
47039,note_on,,0,0,12,,,,,,,,,,,,,,,,15,,64,0
47039,note_on,,0,0,12,,,,,,,,,,,,,,,,15,,69,0
47039,note_on,,0,0,12,,,,,,,,,,,,,,,,15,,61,0
47039,note_on,,119,0,12,,,,,,,,,,,,,,,,15,,76,0
47040,note_on,,1,0,8,,,,,,,,,,,,,,,,10,,86,48
47099,note_on,,59,0,8,,,,,,,,,,,,,,,,10,,86,0
47100,note_on,,1,0,8,,,,,,,,,,,,,,,,10,,83,48
47159,note_on,,59,0,8,,,,,,,,,,,,,,,,10,,83,0
47160,note_on,,121,0,7,,,,,,,,,,,,,,,,8,,59,72
47160,note_on,,121,0,5,,,,,,,,,,,,,,,,2,,59,48
47160,note_on,,1,0,8,,,,,,,,,,,,,,,,10,,81,48
47160,note_on,,121,0,9,,,,,,,,,,,,,,,,11,,71,48
47160,note_on,,121,0,10,,,,,,,,,,,,,,,,12,,62,48
47160,note_on,,0,0,12,,,,,,,,,,,,,,,,15,,71,48
47160,note_on,,121,0,12,,,,,,,,,,,,,,,,15,,62,48
47160,note_on,,121,0,11,,,,,,,,,,,,,,,,13,,59,48
47160,note_on,,0,0,12,,,,,,,,,,,,,,,,15,,59,48
47174,note_on,,14,0,8,,,,,,,,,,,,,,,,10,,81,0
47175,note_on,,1,0,8,,,,,,,,,,,,,,,,10,,83,48
47189,note_on,,14,0,8,,,,,,,,,,,,,,,,10,,83,0
47190,note_on,,1,0,8,,,,,,,,,,,,,,,,10,,81,48
47204,note_on,,14,0,8,,,,,,,,,,,,,,,,10,,81,0
47205,note_on,,1,0,8,,,,,,,,,,,,,,,,10,,83,48
47219,note_on,,14,0,8,,,,,,,,,,,,,,,,10,,83,0
47220,note_on,,1,0,8,,,,,,,,,,,,,,,,10,,80,48
47234,note_on,,14,0,8,,,,,,,,,,,,,,,,10,,80,0
47235,note_on,,1,0,8,,,,,,,,,,,,,,,,10,,81,48
47249,note_on,,14,0,8,,,,,,,,,,,,,,,,10,,81,0
47250,note_on,,1,0,8,,,,,,,,,,,,,,,,10,,80,48
47279,note_on,,119,0,7,,,,,,,,,,,,,,,,8,,59,0
47279,note_on,,119,0,10,,,,,,,,,,,,,,,,12,,62,0
47279,note_on,,119,0,12,,,,,,,,,,,,,,,,15,,62,0
47279,note_on,,119,0,9,,,,,,,,,,,,,,,,11,,71,0
47279,note_on,,0,0,12,,,,,,,,,,,,,,,,15,,71,0
47279,note_on,,119,0,11,,,,,,,,,,,,,,,,13,,59,0
47279,note_on,,29,0,8,,,,,,,,,,,,,,,,10,,80,0
47279,note_on,,0,0,12,,,,,,,,,,,,,,,,15,,59,0
47279,note_on,,119,0,5,,,,,,,,,,,,,,,,2,,59,0
47280,note_on,,1,0,9,,,,,,,,,,,,,,,,11,,69,48
47280,note_on,,241,0,6,,,,,,,,,,,,,,,,3,,81,64
47280,note_on,,1,0,5,,,,,,,,,,,,,,,,2,,61,48
47280,note_on,,1,0,8,,,,,,,,,,,,,,,,10,,81,48
47280,note_on,,1,0,7,,,,,,,,,,,,,,,,8,,61,72
47280,note_on,,1,0,10,,,,,,,,,,,,,,,,12,,64,48
47280,note_on,,1,0,12,,,,,,,,,,,,,,,,15,,64,48
47280,note_on,,0,0,12,,,,,,,,,,,,,,,,15,,61,48
47280,note_on,,0,0,12,,,,,,,,,,,,,,,,15,,69,48
47280,note_on,,1,0,11,,,,,,,,,,,,,,,,13,,61,48
47339,note_on,,59,0,11,,,,,,,,,,,,,,,,13,,61,0
47339,note_on,,59,0,5,,,,,,,,,,,,,,,,2,,61,0
47339,note_on,,59,0,7,,,,,,,,,,,,,,,,8,,61,0
47339,note_on,,59,0,12,,,,,,,,,,,,,,,,15,,64,0
47339,note_on,,0,0,12,,,,,,,,,,,,,,,,15,,61,0
47340,note_on,,0,0,12,,,,,,,,,,,,,,,,15,,62,48
47340,note_on,,1,0,5,,,,,,,,,,,,,,,,2,,59,48
47340,note_on,,1,0,11,,,,,,,,,,,,,,,,13,,59,48
47340,note_on,,1,0,7,,,,,,,,,,,,,,,,8,,59,72
47340,note_on,,1,0,12,,,,,,,,,,,,,,,,15,,59,48
47399,note_on,,59,0,11,,,,,,,,,,,,,,,,13,,59,0
47399,note_on,,59,0,5,,,,,,,,,,,,,,,,2,,59,0
47399,note_on,,59,0,7,,,,,,,,,,,,,,,,8,,59,0
47399,note_on,,119,0,10,,,,,,,,,,,,,,,,12,,64,0
47399,note_on,,119,0,9,,,,,,,,,,,,,,,,11,,69,0
47399,note_on,,119,0,6,,,,,,,,,,,,,,,,3,,81,0
47399,note_on,,59,0,12,,,,,,,,,,,,,,,,15,,59,0
47399,note_on,,0,0,12,,,,,,,,,,,,,,,,15,,62,0
47399,note_on,,119,0,8,,,,,,,,,,,,,,,,10,,81,0
47400,note_on,,1,0,12,,,,,,,,,,,,,,,,15,,57,48
47400,note_on,,0,0,12,,,,,,,,,,,,,,,,15,,61,48
47400,note_on,,1,0,7,,,,,,,,,,,,,,,,8,,57,72
47400,note_on,,1,0,5,,,,,,,,,,,,,,,,2,,57,48
47400,note_on,,1,0,11,,,,,,,,,,,,,,,,13,,57,48
47459,note_on,,59,0,12,,,,,,,,,,,,,,,,15,,57,0
47459,note_on,,59,0,7,,,,,,,,,,,,,,,,8,,57,0
47459,note_on,,59,0,5,,,,,,,,,,,,,,,,2,,57,0
47459,note_on,,59,0,11,,,,,,,,,,,,,,,,13,,57,0
47460,note_on,,1,0,7,,,,,,,,,,,,,,,,8,,61,72
47460,note_on,,1,0,11,,,,,,,,,,,,,,,,13,,61,48
47460,note_on,,1,0,5,,,,,,,,,,,,,,,,2,,61,48
47460,note_on,,61,0,6,,,,,,,,,,,,,,,,3,,76,64
47519,note_on,,0,0,12,,,,,,,,,,,,,,,,15,,61,0
47519,note_on,,59,0,11,,,,,,,,,,,,,,,,13,,61,0
47519,note_on,,59,0,7,,,,,,,,,,,,,,,,8,,61,0
47519,note_on,,60,0,12,,,,,,,,,,,,,,,,15,,69,0
47519,note_on,,59,0,6,,,,,,,,,,,,,,,,3,,76,0
47519,note_on,,59,0,5,,,,,,,,,,,,,,,,2,,61,0
47520,note_on,,1,0,12,,,,,,,,,,,,,,,,15,,69,48
47520,note_on,,0,0,12,,,,,,,,,,,,,,,,15,,59,48
47520,note_on,,1,0,6,,,,,,,,,,,,,,,,3,,74,64
47520,note_on,,1,0,7,,,,,,,,,,,,,,,,8,,59,72
47520,note_on,,0,0,12,,,,,,,,,,,,,,,,15,,62,48
47520,note_on,,1,0,11,,,,,,,,,,,,,,,,13,,59,48
47520,note_on,,1,0,5,,,,,,,,,,,,,,,,2,,59,48
47579,note_on,,59,0,12,,,,,,,,,,,,,,,,15,,59,0
47579,note_on,,59,0,6,,,,,,,,,,,,,,,,3,,74,0
47579,note_on,,59,0,5,,,,,,,,,,,,,,,,2,,59,0
47579,note_on,,0,0,12,,,,,,,,,,,,,,,,15,,62,0
47579,note_on,,59,0,11,,,,,,,,,,,,,,,,13,,59,0
47579,note_on,,59,0,7,,,,,,,,,,,,,,,,8,,59,0
47580,note_on,,1,0,5,,,,,,,,,,,,,,,,2,,61,48
47580,note_on,,1,0,7,,,,,,,,,,,,,,,,8,,61,72
47580,note_on,,1,0,12,,,,,,,,,,,,,,,,15,,61,48
47580,note_on,,0,0,12,,,,,,,,,,,,,,,,15,,64,48
47580,note_on,,1,0,6,,,,,,,,,,,,,,,,3,,76,64
47580,note_on,,1,0,11,,,,,,,,,,,,,,,,13,,61,48
47639,note_on,,59,0,5,,,,,,,,,,,,,,,,2,,61,0
47639,note_on,,59,0,11,,,,,,,,,,,,,,,,13,,61,0
47639,note_on,,59,0,12,,,,,,,,,,,,,,,,15,,61,0
47639,note_on,,59,0,6,,,,,,,,,,,,,,,,3,,76,0
47639,note_on,,0,0,12,,,,,,,,,,,,,,,,15,,64,0
47639,note_on,,59,0,7,,,,,,,,,,,,,,,,8,,61,0
47640,note_on,,1,0,12,,,,,,,,,,,,,,,,15,,66,48
47640,note_on,,1,0,11,,,,,,,,,,,,,,,,13,,62,48
47640,note_on,,0,0,12,,,,,,,,,,,,,,,,15,,62,48
47640,note_on,,1,0,7,,,,,,,,,,,,,,,,8,,62,72
47640,note_on,,1,0,6,,,,,,,,,,,,,,,,3,,78,64
47640,note_on,,1,0,5,,,,,,,,,,,,,,,,2,,62,48
47699,note_on,,59,0,7,,,,,,,,,,,,,,,,8,,62,0
47699,note_on,,59,0,6,,,,,,,,,,,,,,,,3,,78,0
47699,note_on,,0,0,12,,,,,,,,,,,,,,,,15,,62,0
47699,note_on,,59,0,11,,,,,,,,,,,,,,,,13,,62,0
47699,note_on,,59,0,12,,,,,,,,,,,,,,,,15,,66,0
47699,note_on,,59,0,5,,,,,,,,,,,,,,,,2,,62,0
47700,note_on,,1,0,11,,,,,,,,,,,,,,,,13,,59,48
47700,note_on,,1,0,6,,,,,,,,,,,,,,,,3,,79,64
47700,note_on,,1,0,7,,,,,,,,,,,,,,,,8,,59,72
47700,note_on,,1,0,5,,,,,,,,,,,,,,,,2,,59,48
47700,note_on,,0,0,12,,,,,,,,,,,,,,,,15,,62,48
47700,note_on,,1,0,12,,,,,,,,,,,,,,,,15,,59,48
47759,note_on,,59,0,6,,,,,,,,,,,,,,,,3,,79,0
47759,note_on,,59,0,7,,,,,,,,,,,,,,,,8,,59,0
47759,note_on,,59,0,5,,,,,,,,,,,,,,,,2,,59,0
47759,note_on,,59,0,12,,,,,,,,,,,,,,,,15,,59,0
47759,note_on,,0,0,12,,,,,,,,,,,,,,,,15,,62,0
47759,note_on,,59,0,11,,,,,,,,,,,,,,,,13,,59,0
47760,note_on,,1,0,6,,,,,,,,,,,,,,,,3,,81,64
47760,note_on,,1,0,7,,,,,,,,,,,,,,,,8,,61,72
47760,note_on,,1,0,12,,,,,,,,,,,,,,,,15,,61,48
47760,note_on,,0,0,12,,,,,,,,,,,,,,,,15,,64,48
47760,note_on,,1,0,5,,,,,,,,,,,,,,,,2,,61,48
47760,note_on,,1,0,11,,,,,,,,,,,,,,,,13,,61,48
47819,note_on,,59,0,11,,,,,,,,,,,,,,,,13,,61,0
47819,note_on,,59,0,12,,,,,,,,,,,,,,,,15,,61,0
47819,note_on,,59,0,6,,,,,,,,,,,,,,,,3,,81,0
47819,note_on,,59,0,5,,,,,,,,,,,,,,,,2,,61,0
47819,note_on,,59,0,7,,,,,,,,,,,,,,,,8,,61,0
47820,note_on,,1,0,5,,,,,,,,,,,,,,,,2,,57,48
47820,note_on,,421,0,8,,,,,,,,,,,,,,,,10,,76,48
47820,note_on,,1,0,12,,,,,,,,,,,,,,,,15,,57,48
47820,note_on,,1,0,7,,,,,,,,,,,,,,,,8,,57,72
47820,note_on,,1,0,11,,,,,,,,,,,,,,,,13,,57,48
47879,note_on,,59,0,8,,,,,,,,,,,,,,,,10,,76,0
47879,note_on,,59,0,7,,,,,,,,,,,,,,,,8,,57,0
47879,note_on,,0,0,12,,,,,,,,,,,,,,,,15,,57,0
47879,note_on,,0,0,12,,,,,,,,,,,,,,,,15,,64,0
47879,note_on,,59,0,12,,,,,,,,,,,,,,,,15,,69,0
47879,note_on,,59,0,5,,,,,,,,,,,,,,,,2,,57,0
47879,note_on,,59,0,11,,,,,,,,,,,,,,,,13,,57,0
47880,note_on,,1,0,11,,,,,,,,,,,,,,,,13,,59,48
47880,note_on,,1,0,12,,,,,,,,,,,,,,,,15,,59,48
47880,note_on,,1,0,8,,,,,,,,,,,,,,,,10,,74,48
47880,note_on,,1,0,7,,,,,,,,,,,,,,,,8,,59,72
47880,note_on,,1,0,5,,,,,,,,,,,,,,,,2,,59,48
47939,note_on,,59,0,8,,,,,,,,,,,,,,,,10,,74,0
47939,note_on,,59,0,12,,,,,,,,,,,,,,,,15,,59,0
47939,note_on,,59,0,7,,,,,,,,,,,,,,,,8,,59,0
47939,note_on,,59,0,5,,,,,,,,,,,,,,,,2,,59,0
47939,note_on,,59,0,11,,,,,,,,,,,,,,,,13,,59,0
47940,note_on,,541,0,9,,,,,,,,,,,,,,,,11,,69,48
47940,note_on,,1,0,7,,,,,,,,,,,,,,,,8,,61,72
47940,note_on,,0,0,12,,,,,,,,,,,,,,,,15,,64,48
47940,note_on,,0,0,12,,,,,,,,,,,,,,,,15,,76,48
47940,note_on,,0,0,12,,,,,,,,,,,,,,,,15,,69,48
47940,note_on,,1,0,8,,,,,,,,,,,,,,,,10,,76,48
47940,note_on,,541,0,10,,,,,,,,,,,,,,,,12,,64,48
47940,note_on,,1,0,11,,,,,,,,,,,,,,,,13,,61,48
47940,note_on,,1,0,12,,,,,,,,,,,,,,,,15,,61,48
47940,note_on,,1,0,5,,,,,,,,,,,,,,,,2,,61,48
47999,note_on,,59,0,9,,,,,,,,,,,,,,,,11,,69,0
47999,note_on,,59,0,12,,,,,,,,,,,,,,,,15,,61,0
47999,note_on,,0,0,12,,,,,,,,,,,,,,,,15,,69,0
47999,note_on,,0,0,12,,,,,,,,,,,,,,,,15,,76,0
47999,note_on,,0,0,12,,,,,,,,,,,,,,,,15,,64,0
47999,note_on,,59,0,8,,,,,,,,,,,,,,,,10,,76,0
47999,note_on,,59,0,11,,,,,,,,,,,,,,,,13,,61,0
47999,note_on,,59,0,7,,,,,,,,,,,,,,,,8,,61,0
47999,note_on,,59,0,10,,,,,,,,,,,,,,,,12,,64,0
47999,note_on,,59,0,5,,,,,,,,,,,,,,,,2,,61,0
48000,note_on,,1,0,8,,,,,,,,,,,,,,,,10,,78,48
48000,note_on,,1,0,9,,,,,,,,,,,,,,,,11,,69,48
48000,note_on,,1,0,11,,,,,,,,,,,,,,,,13,,62,48
48000,note_on,,1,0,7,,,,,,,,,,,,,,,,8,,62,72
48000,note_on,,1,0,10,,,,,,,,,,,,,,,,12,,62,48
48000,note_on,,1,0,5,,,,,,,,,,,,,,,,2,,62,48
48000,note_on,,0,0,12,,,,,,,,,,,,,,,,15,,62,48
48000,note_on,,1,0,12,,,,,,,,,,,,,,,,15,,66,48
48000,note_on,,0,0,12,,,,,,,,,,,,,,,,15,,69,48
48059,note_on,,59,0,7,,,,,,,,,,,,,,,,8,,62,0
48059,note_on,,0,0,12,,,,,,,,,,,,,,,,15,,62,0
48059,note_on,,59,0,11,,,,,,,,,,,,,,,,13,,62,0
48059,note_on,,59,0,12,,,,,,,,,,,,,,,,15,,66,0
48059,note_on,,59,0,5,,,,,,,,,,,,,,,,2,,62,0
48059,note_on,,59,0,8,,,,,,,,,,,,,,,,10,,78,0
48060,note_on,,1,0,12,,,,,,,,,,,,,,,,15,,62,48
48060,note_on,,0,0,12,,,,,,,,,,,,,,,,15,,59,48
48060,note_on,,1,0,8,,,,,,,,,,,,,,,,10,,79,48
48060,note_on,,1,0,7,,,,,,,,,,,,,,,,8,,59,72
48060,note_on,,1,0,5,,,,,,,,,,,,,,,,2,,59,48
48060,note_on,,1,0,11,,,,,,,,,,,,,,,,13,,59,48
48119,note_on,,59,0,8,,,,,,,,,,,,,,,,10,,79,0
48119,note_on,,59,0,12,,,,,,,,,,,,,,,,15,,62,0
48119,note_on,,0,0,12,,,,,,,,,,,,,,,,15,,59,0
48119,note_on,,59,0,7,,,,,,,,,,,,,,,,8,,59,0
48119,note_on,,119,0,9,,,,,,,,,,,,,,,,11,,69,0
48119,note_on,,59,0,5,,,,,,,,,,,,,,,,2,,59,0
48119,note_on,,59,0,11,,,,,,,,,,,,,,,,13,,59,0
48119,note_on,,119,0,10,,,,,,,,,,,,,,,,12,,62,0
48120,note_on,,0,0,12,,,,,,,,,,,,,,,,15,,61,48
48120,note_on,,1,0,7,,,,,,,,,,,,,,,,8,,61,72
48120,note_on,,1,0,12,,,,,,,,,,,,,,,,15,,64,48
48120,note_on,,1,0,8,,,,,,,,,,,,,,,,10,,81,48
48120,note_on,,1,0,10,,,,,,,,,,,,,,,,12,,64,48
48120,note_on,,1,0,9,,,,,,,,,,,,,,,,11,,76,48
48120,note_on,,1,0,5,,,,,,,,,,,,,,,,2,,61,48
48120,note_on,,1,0,11,,,,,,,,,,,,,,,,13,,61,48
48179,note_on,,59,0,5,,,,,,,,,,,,,,,,2,,61,0
48179,note_on,,59,0,11,,,,,,,,,,,,,,,,13,,61,0
48179,note_on,,59,0,7,,,,,,,,,,,,,,,,8,,61,0
48179,note_on,,59,0,12,,,,,,,,,,,,,,,,15,,61,0
48180,note_on,,1,0,5,,,,,,,,,,,,,,,,2,,57,48
48180,note_on,,1,0,7,,,,,,,,,,,,,,,,8,,57,72
48180,note_on,,1,0,11,,,,,,,,,,,,,,,,13,,57,48
48180,note_on,,361,0,6,,,,,,,,,,,,,,,,3,,76,64
48180,note_on,,1,0,12,,,,,,,,,,,,,,,,15,,57,48
48239,note_on,,119,0,9,,,,,,,,,,,,,,,,11,,76,0
48239,note_on,,59,0,7,,,,,,,,,,,,,,,,8,,57,0
48239,note_on,,119,0,8,,,,,,,,,,,,,,,,10,,81,0
48239,note_on,,0,0,12,,,,,,,,,,,,,,,,15,,57,0
48239,note_on,,59,0,11,,,,,,,,,,,,,,,,13,,57,0
48239,note_on,,119,0,10,,,,,,,,,,,,,,,,12,,64,0
48239,note_on,,59,0,6,,,,,,,,,,,,,,,,3,,76,0
48239,note_on,,59,0,12,,,,,,,,,,,,,,,,15,,64,0
48239,note_on,,59,0,5,,,,,,,,,,,,,,,,2,,57,0
48240,note_on,,1,0,11,,,,,,,,,,,,,,,,13,,59,48
48240,note_on,,1,0,6,,,,,,,,,,,,,,,,3,,74,64
48240,note_on,,1,0,7,,,,,,,,,,,,,,,,8,,59,72
48240,note_on,,1,0,5,,,,,,,,,,,,,,,,2,,59,48
48240,note_on,,0,0,12,,,,,,,,,,,,,,,,15,,59,48
48240,note_on,,1,0,12,,,,,,,,,,,,,,,,15,,62,48
48299,note_on,,59,0,12,,,,,,,,,,,,,,,,15,,62,0
48299,note_on,,59,0,11,,,,,,,,,,,,,,,,13,,59,0
48299,note_on,,59,0,7,,,,,,,,,,,,,,,,8,,59,0
48299,note_on,,0,0,12,,,,,,,,,,,,,,,,15,,59,0
48299,note_on,,59,0,6,,,,,,,,,,,,,,,,3,,74,0
48299,note_on,,59,0,5,,,,,,,,,,,,,,,,2,,59,0
48300,note_on,,1,0,5,,,,,,,,,,,,,,,,2,,61,48
48300,note_on,,1,0,11,,,,,,,,,,,,,,,,13,,61,48
48300,note_on,,1,0,7,,,,,,,,,,,,,,,,8,,61,72
48300,note_on,,1,0,6,,,,,,,,,,,,,,,,3,,76,64
48300,note_on,,1,0,12,,,,,,,,,,,,,,,,15,,61,48
48300,note_on,,0,0,12,,,,,,,,,,,,,,,,15,,64,48
48359,note_on,,0,0,12,,,,,,,,,,,,,,,,15,,64,0
48359,note_on,,59,0,11,,,,,,,,,,,,,,,,13,,61,0
48359,note_on,,59,0,12,,,,,,,,,,,,,,,,15,,69,0
48359,note_on,,59,0,5,,,,,,,,,,,,,,,,2,,61,0
48359,note_on,,0,0,12,,,,,,,,,,,,,,,,15,,61,0
48359,note_on,,59,0,7,,,,,,,,,,,,,,,,8,,61,0
48359,note_on,,59,0,6,,,,,,,,,,,,,,,,3,,76,0
48360,note_on,,1,0,7,,,,,,,,,,,,,,,,8,,62,72
48360,note_on,,1,0,12,,,,,,,,,,,,,,,,15,,62,48
48360,note_on,,0,0,12,,,,,,,,,,,,,,,,15,,66,48
48360,note_on,,0,0,12,,,,,,,,,,,,,,,,15,,74,48
48360,note_on,,1,0,11,,,,,,,,,,,,,,,,13,,62,48
48360,note_on,,1,0,6,,,,,,,,,,,,,,,,3,,78,64
48360,note_on,,1,0,5,,,,,,,,,,,,,,,,2,,62,48
48419,note_on,,59,0,7,,,,,,,,,,,,,,,,8,,62,0
48419,note_on,,59,0,5,,,,,,,,,,,,,,,,2,,62,0
48419,note_on,,59,0,6,,,,,,,,,,,,,,,,3,,78,0
48419,note_on,,59,0,12,,,,,,,,,,,,,,,,15,,62,0
48419,note_on,,59,0,11,,,,,,,,,,,,,,,,13,,62,0
48420,note_on,,1,0,12,,,,,,,,,,,,,,,,15,,59,48
48420,note_on,,1,0,11,,,,,,,,,,,,,,,,13,,59,48
48420,note_on,,1,0,7,,,,,,,,,,,,,,,,8,,59,72
48420,note_on,,181,0,10,,,,,,,,,,,,,,,,12,,66,48
48420,note_on,,181,0,8,,,,,,,,,,,,,,,,10,,74,48
48420,note_on,,1,0,6,,,,,,,,,,,,,,,,3,,74,64
48420,note_on,,1,0,5,,,,,,,,,,,,,,,,2,,59,48
48420,note_on,,181,0,9,,,,,,,,,,,,,,,,11,,71,48
48479,note_on,,0,0,12,,,,,,,,,,,,,,,,15,,74,0
48479,note_on,,59,0,5,,,,,,,,,,,,,,,,2,,59,0
48479,note_on,,59,0,8,,,,,,,,,,,,,,,,10,,74,0
48479,note_on,,59,0,12,,,,,,,,,,,,,,,,15,,66,0
48479,note_on,,0,0,12,,,,,,,,,,,,,,,,15,,59,0
48479,note_on,,59,0,10,,,,,,,,,,,,,,,,12,,66,0
48479,note_on,,59,0,11,,,,,,,,,,,,,,,,13,,59,0
48479,note_on,,59,0,6,,,,,,,,,,,,,,,,3,,74,0
48479,note_on,,59,0,9,,,,,,,,,,,,,,,,11,,71,0
48479,note_on,,59,0,7,,,,,,,,,,,,,,,,8,,59,0
48480,note_on,,1,0,7,,,,,,,,,,,,,,,,8,,64,72
48480,note_on,,1,0,9,,,,,,,,,,,,,,,,11,,71,48
48480,note_on,,1,0,5,,,,,,,,,,,,,,,,2,,64,48
48480,note_on,,1,0,8,,,,,,,,,,,,,,,,10,,79,48
48480,note_on,,1,0,11,,,,,,,,,,,,,,,,13,,64,48
48480,note_on,,0,0,12,,,,,,,,,,,,,,,,15,,64,48
48480,note_on,,1,0,6,,,,,,,,,,,,,,,,3,,79,64
48480,note_on,,1,0,12,,,,,,,,,,,,,,,,15,,67,48
48480,note_on,,0,0,12,,,,,,,,,,,,,,,,15,,71,48
48480,note_on,,1,0,10,,,,,,,,,,,,,,,,12,,67,48
48539,note_on,,59,0,11,,,,,,,,,,,,,,,,13,,64,0
48539,note_on,,59,0,5,,,,,,,,,,,,,,,,2,,64,0
48539,note_on,,59,0,12,,,,,,,,,,,,,,,,15,,64,0
48539,note_on,,59,0,7,,,,,,,,,,,,,,,,8,,64,0
48539,note_on,,59,0,8,,,,,,,,,,,,,,,,10,,79,0
48540,note_on,,1,0,11,,,,,,,,,,,,,,,,13,,62,48
48540,note_on,,1,0,8,,,,,,,,,,,,,,,,10,,78,48
48540,note_on,,1,0,12,,,,,,,,,,,,,,,,15,,62,48
48540,note_on,,1,0,5,,,,,,,,,,,,,,,,2,,62,48
48540,note_on,,1,0,7,,,,,,,,,,,,,,,,8,,62,72
48599,note_on,,59,0,7,,,,,,,,,,,,,,,,8,,62,0
48599,note_on,,59,0,5,,,,,,,,,,,,,,,,2,,62,0
48599,note_on,,59,0,11,,,,,,,,,,,,,,,,13,,62,0
48599,note_on,,59,0,8,,,,,,,,,,,,,,,,10,,78,0
48599,note_on,,0,0,12,,,,,,,,,,,,,,,,15,,62,0
48599,note_on,,59,0,12,,,,,,,,,,,,,,,,15,,67,0
48599,note_on,,119,0,9,,,,,,,,,,,,,,,,11,,71,0
48599,note_on,,0,0,12,,,,,,,,,,,,,,,,15,,71,0
48600,note_on,,1,0,8,,,,,,,,,,,,,,,,10,,76,48
48600,note_on,,0,0,12,,,,,,,,,,,,,,,,15,,61,48
48600,note_on,,0,0,12,,,,,,,,,,,,,,,,15,,76,48
48600,note_on,,1,0,11,,,,,,,,,,,,,,,,13,,61,48
48600,note_on,,1,0,5,,,,,,,,,,,,,,,,2,,61,48
48600,note_on,,1,0,9,,,,,,,,,,,,,,,,11,,73,48
48600,note_on,,1,0,7,,,,,,,,,,,,,,,,8,,61,72
48600,note_on,,1,0,12,,,,,,,,,,,,,,,,15,,67,48
48659,note_on,,59,0,11,,,,,,,,,,,,,,,,13,,61,0
48659,note_on,,59,0,12,,,,,,,,,,,,,,,,15,,61,0
48659,note_on,,59,0,8,,,,,,,,,,,,,,,,10,,76,0
48659,note_on,,179,0,6,,,,,,,,,,,,,,,,3,,79,0
48659,note_on,,59,0,9,,,,,,,,,,,,,,,,11,,73,0
48659,note_on,,59,0,5,,,,,,,,,,,,,,,,2,,61,0
48659,note_on,,59,0,7,,,,,,,,,,,,,,,,8,,61,0
48659,note_on,,179,0,10,,,,,,,,,,,,,,,,12,,67,0
48660,note_on,,1,0,11,,,,,,,,,,,,,,,,13,,59,48
48660,note_on,,1,0,10,,,,,,,,,,,,,,,,12,,67,48
48660,note_on,,1,0,7,,,,,,,,,,,,,,,,8,,59,72
48660,note_on,,1,0,6,,,,,,,,,,,,,,,,3,,79,64
48660,note_on,,1,0,12,,,,,,,,,,,,,,,,15,,59,48
48660,note_on,,1,0,9,,,,,,,,,,,,,,,,11,,74,48
48660,note_on,,1,0,5,,,,,,,,,,,,,,,,2,,59,48
48660,note_on,,1,0,8,,,,,,,,,,,,,,,,10,,74,48
48719,note_on,,59,0,12,,,,,,,,,,,,,,,,15,,67,0
48719,note_on,,0,0,12,,,,,,,,,,,,,,,,15,,76,0
48719,note_on,,0,0,12,,,,,,,,,,,,,,,,15,,59,0
48719,note_on,,59,0,9,,,,,,,,,,,,,,,,11,,74,0
48719,note_on,,59,0,6,,,,,,,,,,,,,,,,3,,79,0
48719,note_on,,59,0,11,,,,,,,,,,,,,,,,13,,59,0
48719,note_on,,59,0,10,,,,,,,,,,,,,,,,12,,67,0
48719,note_on,,59,0,5,,,,,,,,,,,,,,,,2,,59,0
48719,note_on,,59,0,8,,,,,,,,,,,,,,,,10,,74,0
48719,note_on,,59,0,7,,,,,,,,,,,,,,,,8,,59,0
48720,note_on,,1,0,6,,,,,,,,,,,,,,,,3,,79,64
48720,note_on,,1,0,11,,,,,,,,,,,,,,,,13,,57,48
48720,note_on,,1,0,10,,,,,,,,,,,,,,,,12,,61,48
48720,note_on,,0,0,12,,,,,,,,,,,,,,,,15,,79,48
48720,note_on,,1,0,12,,,,,,,,,,,,,,,,15,,57,48
48720,note_on,,0,0,12,,,,,,,,,,,,,,,,15,,69,48
48720,note_on,,1,0,9,,,,,,,,,,,,,,,,11,,76,48
48720,note_on,,1,0,8,,,,,,,,,,,,,,,,10,,85,48
48720,note_on,,1,0,7,,,,,,,,,,,,,,,,8,,57,72
48720,note_on,,1,0,5,,,,,,,,,,,,,,,,2,,57,48
48720,note_on,,0,0,12,,,,,,,,,,,,,,,,15,,64,48
48720,note_on,,0,0,12,,,,,,,,,,,,,,,,15,,73,48
48734,note_on,,14,0,8,,,,,,,,,,,,,,,,10,,85,0
48735,note_on,,1,0,8,,,,,,,,,,,,,,,,10,,86,48
48749,note_on,,14,0,8,,,,,,,,,,,,,,,,10,,86,0
48750,note_on,,1,0,8,,,,,,,,,,,,,,,,10,,85,48
48764,note_on,,14,0,8,,,,,,,,,,,,,,,,10,,85,0
48765,note_on,,1,0,8,,,,,,,,,,,,,,,,10,,86,48
48779,note_on,,14,0,8,,,,,,,,,,,,,,,,10,,86,0
48780,note_on,,1,0,8,,,,,,,,,,,,,,,,10,,85,48
48794,note_on,,14,0,8,,,,,,,,,,,,,,,,10,,85,0
48795,note_on,,1,0,8,,,,,,,,,,,,,,,,10,,86,48
48809,note_on,,14,0,8,,,,,,,,,,,,,,,,10,,86,0
48810,note_on,,1,0,8,,,,,,,,,,,,,,,,10,,85,48
48824,note_on,,14,0,8,,,,,,,,,,,,,,,,10,,85,0
48825,note_on,,1,0,8,,,,,,,,,,,,,,,,10,,86,48
48839,note_on,,14,0,8,,,,,,,,,,,,,,,,10,,86,0
48840,note_on,,1,0,8,,,,,,,,,,,,,,,,10,,85,48
48854,note_on,,14,0,8,,,,,,,,,,,,,,,,10,,85,0
48855,note_on,,1,0,8,,,,,,,,,,,,,,,,10,,86,48
48869,note_on,,14,0,8,,,,,,,,,,,,,,,,10,,86,0
48870,note_on,,1,0,8,,,,,,,,,,,,,,,,10,,83,48
48884,note_on,,14,0,8,,,,,,,,,,,,,,,,10,,83,0
48885,note_on,,1,0,8,,,,,,,,,,,,,,,,10,,85,48
48899,note_on,,179,0,6,,,,,,,,,,,,,,,,3,,79,0
48899,note_on,,14,0,8,,,,,,,,,,,,,,,,10,,85,0
48900,note_on,,1,0,8,,,,,,,,,,,,,,,,10,,83,48
48900,note_on,,1,0,6,,,,,,,,,,,,,,,,3,,81,64
48929,note_on,,29,0,8,,,,,,,,,,,,,,,,10,,83,0
48930,note_on,,1,0,8,,,,,,,,,,,,,,,,10,,85,48
48959,note_on,,0,0,12,,,,,,,,,,,,,,,,15,,64,0
48959,note_on,,0,0,12,,,,,,,,,,,,,,,,15,,73,0
48959,note_on,,239,0,10,,,,,,,,,,,,,,,,12,,61,0
48959,note_on,,0,0,12,,,,,,,,,,,,,,,,15,,79,0
48959,note_on,,0,0,12,,,,,,,,,,,,,,,,15,,69,0
48959,note_on,,239,0,12,,,,,,,,,,,,,,,,15,,57,0
48959,note_on,,239,0,7,,,,,,,,,,,,,,,,8,,57,0
48959,note_on,,59,0,6,,,,,,,,,,,,,,,,3,,81,0
48959,note_on,,239,0,5,,,,,,,,,,,,,,,,2,,57,0
48959,note_on,,239,0,11,,,,,,,,,,,,,,,,13,,57,0
48959,note_on,,29,0,8,,,,,,,,,,,,,,,,10,,85,0
48959,note_on,,239,0,9,,,,,,,,,,,,,,,,11,,76,0
48960,note_on,,0,0,12,,,,,,,,,,,,,,,,15,,78,48
48960,note_on,,0,0,12,,,,,,,,,,,,,,,,15,,62,48
48960,note_on,,1,0,6,,,,,,,,,,,,,,,,3,,78,64
48960,note_on,,1,0,9,,,,,,,,,,,,,,,,11,,74,48
48960,note_on,,1,0,7,,,,,,,,,,,,,,,,8,,59,72
48960,note_on,,1,0,11,,,,,,,,,,,,,,,,13,,59,48
48960,note_on,,1,0,10,,,,,,,,,,,,,,,,12,,66,48
48960,note_on,,0,0,12,,,,,,,,,,,,,,,,15,,74,48
48960,note_on,,1,0,12,,,,,,,,,,,,,,,,15,,66,48
48960,note_on,,0,0,12,,,,,,,,,,,,,,,,15,,59,48
48960,note_on,,1,0,8,,,,,,,,,,,,,,,,10,,86,48
48960,note_on,,1,0,5,,,,,,,,,,,,,,,,2,,59,48
49079,note_on,,119,0,9,,,,,,,,,,,,,,,,11,,74,0
49079,note_on,,0,0,12,,,,,,,,,,,,,,,,15,,78,0
49079,note_on,,0,0,12,,,,,,,,,,,,,,,,15,,62,0
49079,note_on,,0,0,12,,,,,,,,,,,,,,,,15,,59,0
49079,note_on,,0,0,12,,,,,,,,,,,,,,,,15,,74,0
49079,note_on,,119,0,5,,,,,,,,,,,,,,,,2,,59,0
49079,note_on,,119,0,10,,,,,,,,,,,,,,,,12,,66,0
49079,note_on,,119,0,6,,,,,,,,,,,,,,,,3,,78,0
49079,note_on,,119,0,11,,,,,,,,,,,,,,,,13,,59,0
49079,note_on,,119,0,12,,,,,,,,,,,,,,,,15,,66,0
49079,note_on,,119,0,8,,,,,,,,,,,,,,,,10,,86,0
49079,note_on,,119,0,7,,,,,,,,,,,,,,,,8,,59,0
49080,note_on,,0,0,12,,,,,,,,,,,,,,,,15,,71,48
49080,note_on,,1,0,11,,,,,,,,,,,,,,,,13,,55,48
49080,note_on,,1,0,7,,,,,,,,,,,,,,,,8,,55,72
49080,note_on,,0,0,12,,,,,,,,,,,,,,,,15,,55,48
49080,note_on,,1,0,12,,,,,,,,,,,,,,,,15,,67,48
49080,note_on,,0,0,12,,,,,,,,,,,,,,,,15,,59,48
49080,note_on,,1,0,5,,,,,,,,,,,,,,,,2,,55,48
49080,note_on,,1,0,6,,,,,,,,,,,,,,,,3,,79,64
49080,note_on,,0,0,12,,,,,,,,,,,,,,,,15,,76,48
49199,note_on,,119,0,12,,,,,,,,,,,,,,,,15,,67,0
49199,note_on,,0,0,12,,,,,,,,,,,,,,,,15,,59,0
49199,note_on,,0,0,12,,,,,,,,,,,,,,,,15,,76,0
49199,note_on,,0,0,12,,,,,,,,,,,,,,,,15,,55,0
49199,note_on,,0,0,12,,,,,,,,,,,,,,,,15,,71,0
49199,note_on,,119,0,7,,,,,,,,,,,,,,,,8,,55,0
49199,note_on,,119,0,11,,,,,,,,,,,,,,,,13,,55,0
49199,note_on,,119,0,5,,,,,,,,,,,,,,,,2,,55,0
49199,note_on,,119,0,6,,,,,,,,,,,,,,,,3,,79,0
49200,note_on,,1,0,7,,,,,,,,,,,,,,,,8,,57,72
49200,note_on,,1,0,11,,,,,,,,,,,,,,,,13,,57,48
49200,note_on,,0,0,12,,,,,,,,,,,,,,,,15,,69,48
49200,note_on,,1,0,12,,,,,,,,,,,,,,,,15,,64,48
49200,note_on,,0,0,12,,,,,,,,,,,,,,,,15,,57,48
49200,note_on,,1,0,6,,,,,,,,,,,,,,,,3,,76,64
49200,note_on,,0,0,12,,,,,,,,,,,,,,,,15,,73,48
49200,note_on,,0,0,12,,,,,,,,,,,,,,,,15,,61,48
49200,note_on,,1,0,5,,,,,,,,,,,,,,,,2,,57,48
49214,note_on,,14,0,6,,,,,,,,,,,,,,,,3,,76,0
49215,note_on,,1,0,6,,,,,,,,,,,,,,,,3,,78,64
49229,note_on,,14,0,6,,,,,,,,,,,,,,,,3,,78,0
49230,note_on,,1,0,6,,,,,,,,,,,,,,,,3,,76,64
49244,note_on,,14,0,6,,,,,,,,,,,,,,,,3,,76,0
49245,note_on,,1,0,6,,,,,,,,,,,,,,,,3,,78,64
49259,note_on,,14,0,6,,,,,,,,,,,,,,,,3,,78,0
49260,note_on,,1,0,6,,,,,,,,,,,,,,,,3,,76,64
49274,note_on,,14,0,6,,,,,,,,,,,,,,,,3,,76,0
49275,note_on,,1,0,6,,,,,,,,,,,,,,,,3,,78,64
49289,note_on,,14,0,6,,,,,,,,,,,,,,,,3,,78,0
49290,note_on,,1,0,6,,,,,,,,,,,,,,,,3,,76,64
49304,note_on,,14,0,6,,,,,,,,,,,,,,,,3,,76,0
49305,note_on,,1,0,6,,,,,,,,,,,,,,,,3,,78,64
49319,note_on,,0,0,12,,,,,,,,,,,,,,,,15,,57,0
49319,note_on,,119,0,5,,,,,,,,,,,,,,,,2,,57,0
49319,note_on,,119,0,11,,,,,,,,,,,,,,,,13,,57,0
49319,note_on,,14,0,6,,,,,,,,,,,,,,,,3,,78,0
49319,note_on,,119,0,12,,,,,,,,,,,,,,,,15,,61,0
49319,note_on,,119,0,7,,,,,,,,,,,,,,,,8,,57,0
49320,note_on,,1,0,7,,,,,,,,,,,,,,,,8,,45,72
49320,note_on,,1,0,12,,,,,,,,,,,,,,,,15,,45,48
49320,note_on,,0,0,12,,,,,,,,,,,,,,,,15,,57,48
49320,note_on,,1,0,5,,,,,,,,,,,,,,,,2,,45,48
49320,note_on,,1,0,11,,,,,,,,,,,,,,,,13,,45,48
49320,note_on,,1,0,6,,,,,,,,,,,,,,,,3,,76,64
49334,note_on,,14,0,6,,,,,,,,,,,,,,,,3,,76,0
49335,note_on,,1,0,6,,,,,,,,,,,,,,,,3,,78,64
49349,note_on,,14,0,6,,,,,,,,,,,,,,,,3,,78,0
49350,note_on,,1,0,6,,,,,,,,,,,,,,,,3,,74,64
49364,note_on,,14,0,6,,,,,,,,,,,,,,,,3,,74,0
49365,note_on,,1,0,6,,,,,,,,,,,,,,,,3,,76,64
49379,note_on,,14,0,6,,,,,,,,,,,,,,,,3,,76,0
49380,note_on,,1,0,6,,,,,,,,,,,,,,,,3,,74,64
49439,note_on,,0,0,12,,,,,,,,,,,,,,,,15,,45,0
49439,note_on,,59,0,6,,,,,,,,,,,,,,,,3,,74,0
49439,note_on,,119,0,11,,,,,,,,,,,,,,,,13,,45,0
49439,note_on,,119,0,7,,,,,,,,,,,,,,,,8,,45,0
49439,note_on,,0,0,12,,,,,,,,,,,,,,,,15,,57,0
49439,note_on,,0,0,12,,,,,,,,,,,,,,,,15,,69,0
49439,note_on,,0,0,12,,,,,,,,,,,,,,,,15,,73,0
49439,note_on,,119,0,5,,,,,,,,,,,,,,,,2,,45,0
49439,note_on,,119,0,12,,,,,,,,,,,,,,,,15,,64,0
49440,note_on,,1,0,6,,,,,,,,,,,,,,,,3,,74,64
49440,note_on,,0,0,12,,,,,,,,,,,,,,,,15,,74,48
49440,note_on,,1,0,7,,,,,,,,,,,,,,,,8,,47,72
49440,note_on,,1,0,11,,,,,,,,,,,,,,,,13,,47,48
49440,note_on,,0,0,12,,,,,,,,,,,,,,,,15,,62,48
49440,note_on,,0,0,12,,,,,,,,,,,,,,,,15,,47,48
49440,note_on,,1,0,12,,,,,,,,,,,,,,,,15,,50,48
49440,set_tempo,,48960,1,0,,,,,,,,,1200000,,,,,,,,,,
49440,note_on,,1,0,5,,,,,,,,,,,,,,,,2,,47,48
49440,note_on,,0,0,12,,,,,,,,,,,,,,,,15,,66,48
49799,note_on,,359,0,6,,,,,,,,,,,,,,,,3,,74,0
49799,note_on,,0,0,12,,,,,,,,,,,,,,,,15,,66,0
49799,note_on,,359,0,11,,,,,,,,,,,,,,,,13,,47,0
49799,note_on,,0,0,12,,,,,,,,,,,,,,,,15,,74,0
49799,note_on,,359,0,5,,,,,,,,,,,,,,,,2,,47,0
49799,note_on,,359,0,7,,,,,,,,,,,,,,,,8,,47,0
49799,note_on,,359,0,12,,,,,,,,,,,,,,,,15,,50,0
49799,note_on,,0,0,12,,,,,,,,,,,,,,,,15,,47,0
49799,note_on,,0,0,12,,,,,,,,,,,,,,,,15,,62,0
49800,note_on,,1,0,5,,,,,,,,,,,,,,,,2,,55,48
49800,note_on,,1,0,7,,,,,,,,,,,,,,,,8,,55,72
49800,note_on,,1,0,12,,,,,,,,,,,,,,,,15,,55,48
49800,note_on,,0,0,12,,,,,,,,,,,,,,,,15,,67,48
49800,set_tempo,,360,1,0,,,,,,,,,1090909,,,,,,,,,,
49800,note_on,,1,0,11,,,,,,,,,,,,,,,,13,,55,48
49919,note_on,,119,0,5,,,,,,,,,,,,,,,,2,,55,0
49919,note_on,,119,0,11,,,,,,,,,,,,,,,,13,,55,0
49919,note_on,,0,0,12,,,,,,,,,,,,,,,,15,,67,0
49919,note_on,,119,0,7,,,,,,,,,,,,,,,,8,,55,0
49919,note_on,,119,0,12,,,,,,,,,,,,,,,,15,,55,0
49920,note_on,,1,0,7,,,,,,,,,,,,,,,,8,,57,72
49920,note_on,,1,0,12,,,,,,,,,,,,,,,,15,,69,48
49920,note_on,,1,0,5,,,,,,,,,,,,,,,,2,,57,48
49920,note_on,,0,0,12,,,,,,,,,,,,,,,,15,,57,48
49920,note_on,,1,0,11,,,,,,,,,,,,,,,,13,,57,48
50039,note_on,,119,0,11,,,,,,,,,,,,,,,,13,,57,0
50039,note_on,,0,0,12,,,,,,,,,,,,,,,,15,,57,0
50039,note_on,,119,0,12,,,,,,,,,,,,,,,,15,,69,0
50039,note_on,,119,0,5,,,,,,,,,,,,,,,,2,,57,0
50040,note_on,,0,0,12,,,,,,,,,,,,,,,,15,,64,48
50040,note_on,,0,0,12,,,,,,,,,,,,,,,,15,,69,48
50040,note_on,,1,0,12,,,,,,,,,,,,,,,,15,,52,48
50040,note_on,,0,0,12,,,,,,,,,,,,,,,,15,,45,48
50040,note_on,,1,0,5,,,,,,,,,,,,,,,,2,,45,48
50040,note_on,,0,0,12,,,,,,,,,,,,,,,,15,,73,48
50040,note_on,,1,0,11,,,,,,,,,,,,,,,,13,,45,48
50099,note_on,,179,0,7,,,,,,,,,,,,,,,,8,,57,0
50100,note_on,,1,0,7,,,,,,,,,,,,,,,,8,,57,72
50159,note_on,,119,0,12,,,,,,,,,,,,,,,,15,,52,0
50159,note_on,,0,0,12,,,,,,,,,,,,,,,,15,,64,0
50159,note_on,,59,0,7,,,,,,,,,,,,,,,,8,,57,0
50159,note_on,,119,0,11,,,,,,,,,,,,,,,,13,,45,0
50159,note_on,,0,0,12,,,,,,,,,,,,,,,,15,,69,0
50159,note_on,,0,0,12,,,,,,,,,,,,,,,,15,,45,0
50159,note_on,,0,0,12,,,,,,,,,,,,,,,,15,,73,0
50159,note_on,,119,0,5,,,,,,,,,,,,,,,,2,,45,0
50160,note_on,,0,0,12,,,,,,,,,,,,,,,,15,,50,48
50160,note_on,,1,0,12,,,,,,,,,,,,,,,,15,,74,48
50160,note_on,,0,0,12,,,,,,,,,,,,,,,,15,,66,48
50160,note_on,,0,0,12,,,,,,,,,,,,,,,,15,,69,48
50160,note_on,,1,0,5,,,,,,,,,,,,,,,,2,,38,48
50160,note_on,,1,0,7,,,,,,,,,,,,,,,,8,,50,72
50160,note_on,,1,0,11,,,,,,,,,,,,,,,,13,,38,48
50160,note_on,,0,0,12,,,,,,,,,,,,,,,,15,,38,48
50399,note_on,,239,0,12,,,,,,,,,,,,,,,,15,,74,0
50399,note_on,,0,0,12,,,,,,,,,,,,,,,,15,,50,0
50399,note_on,,239,0,11,,,,,,,,,,,,,,,,13,,38,0
50399,note_on,,0,0,12,,,,,,,,,,,,,,,,15,,38,0
50399,note_on,,239,0,5,,,,,,,,,,,,,,,,2,,38,0
50399,note_on,,0,0,12,,,,,,,,,,,,,,,,15,,66,0
50399,note_on,,0,0,12,,,,,,,,,,,,,,,,15,,69,0
50400,note_on,,1321,0,8,,,,,,,,,,,,,,,,10,,62,72
50400,note_on,,1321,0,10,,,,,,,,,,,,,,,,12,,54,72
50400,set_tempo,,600,1,0,,,,,,,,,545454,,,,,,,,,,
50400,note_on,,0,0,12,,,,,,,,,,,,,,,,15,,66,72
50400,note_on,,0,0,12,,,,,,,,,,,,,,,,15,,62,72
50400,note_on,,0,0,12,,,,,,,,,,,,,,,,15,,69,72
50400,note_on,,1,0,5,,,,,,,,,,,,,,,,2,,50,72
50400,note_on,,601,0,6,,,,,,,,,,,,,,,,3,,62,72
50400,note_on,,1,0,11,,,,,,,,,,,,,,,,13,,50,72
50400,note_on,,1321,0,9,,,,,,,,,,,,,,,,11,,57,72
50400,note_on,,1,0,12,,,,,,,,,,,,,,,,15,,50,72
50489,note_on,,89,0,11,,,,,,,,,,,,,,,,13,,50,0
50489,note_on,,89,0,9,,,,,,,,,,,,,,,,11,,57,0
50489,note_on,,89,0,5,,,,,,,,,,,,,,,,2,,50,0
50489,note_on,,89,0,10,,,,,,,,,,,,,,,,12,,54,0
50489,note_on,,89,0,12,,,,,,,,,,,,,,,,15,,50,0
50489,note_on,,89,0,8,,,,,,,,,,,,,,,,10,,62,0
50489,note_on,,89,0,6,,,,,,,,,,,,,,,,3,,62,0
50490,note_on,,1,0,6,,,,,,,,,,,,,,,,3,,62,72
50490,note_on,,1,0,10,,,,,,,,,,,,,,,,12,,54,72
50490,note_on,,1,0,8,,,,,,,,,,,,,,,,10,,62,72
50490,note_on,,1,0,12,,,,,,,,,,,,,,,,15,,50,72
50490,note_on,,1,0,11,,,,,,,,,,,,,,,,13,,50,72
50490,note_on,,1,0,5,,,,,,,,,,,,,,,,2,,50,72
50490,note_on,,1,0,9,,,,,,,,,,,,,,,,11,,57,72
50519,note_on,,0,0,12,,,,,,,,,,,,,,,,15,,66,0
50519,note_on,,29,0,10,,,,,,,,,,,,,,,,12,,54,0
50519,note_on,,29,0,6,,,,,,,,,,,,,,,,3,,62,0
50519,note_on,,29,0,8,,,,,,,,,,,,,,,,10,,62,0
50519,note_on,,0,0,12,,,,,,,,,,,,,,,,15,,50,0
50519,note_on,,29,0,5,,,,,,,,,,,,,,,,2,,50,0
50519,note_on,,359,0,7,,,,,,,,,,,,,,,,8,,50,0
50519,note_on,,29,0,12,,,,,,,,,,,,,,,,15,,69,0
50519,note_on,,0,0,12,,,,,,,,,,,,,,,,15,,62,0
50519,note_on,,29,0,9,,,,,,,,,,,,,,,,11,,57,0
50519,note_on,,29,0,11,,,,,,,,,,,,,,,,13,,50,0
50520,note_on,,1,0,9,,,,,,,,,,,,,,,,11,,62,72
50520,note_on,,1,0,11,,,,,,,,,,,,,,,,13,,50,72
50520,note_on,,1,0,8,,,,,,,,,,,,,,,,10,,66,72
50520,note_on,,1,0,10,,,,,,,,,,,,,,,,12,,57,72
50520,note_on,,1,0,12,,,,,,,,,,,,,,,,15,,74,72
50520,note_on,,1,0,5,,,,,,,,,,,,,,,,2,,50,72
50520,note_on,,1,0,6,,,,,,,,,,,,,,,,3,,66,72
50520,note_on,,0,0,12,,,,,,,,,,,,,,,,15,,50,72
50520,note_on,,0,0,12,,,,,,,,,,,,,,,,15,,69,72
50520,note_on,,0,0,12,,,,,,,,,,,,,,,,15,,66,72
50639,note_on,,0,0,12,,,,,,,,,,,,,,,,15,,69,0
50639,note_on,,0,0,12,,,,,,,,,,,,,,,,15,,66,0
50639,note_on,,119,0,12,,,,,,,,,,,,,,,,15,,74,0
50699,note_on,,179,0,5,,,,,,,,,,,,,,,,2,,50,0
50699,note_on,,179,0,9,,,,,,,,,,,,,,,,11,,62,0
50699,note_on,,60,0,12,,,,,,,,,,,,,,,,15,,50,0
50699,note_on,,179,0,10,,,,,,,,,,,,,,,,12,,57,0
50699,note_on,,179,0,6,,,,,,,,,,,,,,,,3,,66,0
50699,note_on,,179,0,11,,,,,,,,,,,,,,,,13,,50,0
50699,note_on,,179,0,8,,,,,,,,,,,,,,,,10,,66,0
50700,note_on,,1,0,10,,,,,,,,,,,,,,,,12,,57,72
50700,note_on,,1,0,9,,,,,,,,,,,,,,,,11,,62,72
50700,note_on,,1,0,12,,,,,,,,,,,,,,,,15,,50,72
50700,note_on,,1,0,8,,,,,,,,,,,,,,,,10,,66,72
50700,note_on,,1,0,5,,,,,,,,,,,,,,,,2,,50,72
50700,note_on,,1,0,11,,,,,,,,,,,,,,,,13,,50,72
50700,note_on,,1,0,6,,,,,,,,,,,,,,,,3,,66,72
50759,note_on,,59,0,10,,,,,,,,,,,,,,,,12,,57,0
50759,note_on,,59,0,9,,,,,,,,,,,,,,,,11,,62,0
50759,note_on,,59,0,12,,,,,,,,,,,,,,,,15,,50,0
50759,note_on,,59,0,6,,,,,,,,,,,,,,,,3,,66,0
50759,note_on,,59,0,8,,,,,,,,,,,,,,,,10,,66,0
50759,note_on,,59,0,11,,,,,,,,,,,,,,,,13,,50,0
50759,note_on,,59,0,5,,,,,,,,,,,,,,,,2,,50,0
50760,note_on,,1,0,12,,,,,,,,,,,,,,,,15,,74,72
50760,note_on,,1,0,9,,,,,,,,,,,,,,,,11,,62,72
50760,note_on,,1,0,8,,,,,,,,,,,,,,,,10,,66,72
50760,note_on,,1,0,6,,,,,,,,,,,,,,,,3,,66,72
50760,note_on,,0,0,12,,,,,,,,,,,,,,,,15,,50,72
50760,note_on,,0,0,12,,,,,,,,,,,,,,,,15,,78,72
50760,note_on,,0,0,12,,,,,,,,,,,,,,,,15,,69,72
50760,note_on,,1,0,10,,,,,,,,,,,,,,,,12,,57,72
50760,note_on,,1,0,5,,,,,,,,,,,,,,,,2,,50,72
50760,note_on,,1,0,11,,,,,,,,,,,,,,,,13,,50,72
50849,note_on,,89,0,5,,,,,,,,,,,,,,,,2,,50,0
50849,note_on,,89,0,12,,,,,,,,,,,,,,,,15,,50,0
50849,note_on,,89,0,6,,,,,,,,,,,,,,,,3,,66,0
50849,note_on,,89,0,8,,,,,,,,,,,,,,,,10,,66,0
50849,note_on,,89,0,9,,,,,,,,,,,,,,,,11,,62,0
50849,note_on,,89,0,11,,,,,,,,,,,,,,,,13,,50,0
50849,note_on,,89,0,10,,,,,,,,,,,,,,,,12,,57,0
50850,note_on,,1,0,9,,,,,,,,,,,,,,,,11,,62,72
50850,note_on,,1,0,12,,,,,,,,,,,,,,,,15,,50,72
50850,note_on,,1,0,8,,,,,,,,,,,,,,,,10,,66,72
50850,note_on,,1,0,5,,,,,,,,,,,,,,,,2,,50,72
50850,note_on,,1,0,10,,,,,,,,,,,,,,,,12,,57,72
50850,note_on,,1,0,11,,,,,,,,,,,,,,,,13,,50,72
50850,note_on,,1,0,6,,,,,,,,,,,,,,,,3,,66,72
50879,note_on,,29,0,9,,,,,,,,,,,,,,,,11,,62,0
50879,note_on,,0,0,12,,,,,,,,,,,,,,,,15,,50,0
50879,note_on,,0,0,12,,,,,,,,,,,,,,,,15,,69,0
50879,note_on,,0,0,12,,,,,,,,,,,,,,,,15,,78,0
50879,note_on,,29,0,12,,,,,,,,,,,,,,,,15,,74,0
50879,note_on,,29,0,11,,,,,,,,,,,,,,,,13,,50,0
50879,note_on,,29,0,8,,,,,,,,,,,,,,,,10,,66,0
50879,note_on,,29,0,6,,,,,,,,,,,,,,,,3,,66,0
50879,note_on,,29,0,5,,,,,,,,,,,,,,,,2,,50,0
50879,note_on,,29,0,10,,,,,,,,,,,,,,,,12,,57,0
50880,note_on,,0,0,12,,,,,,,,,,,,,,,,15,,49,72
50880,note_on,,1,0,9,,,,,,,,,,,,,,,,11,,64,72
50880,note_on,,1,0,10,,,,,,,,,,,,,,,,12,,57,72
50880,note_on,,1,0,5,,,,,,,,,,,,,,,,2,,49,72
50880,note_on,,1,0,12,,,,,,,,,,,,,,,,15,,64,72
50880,note_on,,1,0,8,,,,,,,,,,,,,,,,10,,69,72
50880,note_on,,0,0,12,,,,,,,,,,,,,,,,15,,69,72
50880,note_on,,1,0,11,,,,,,,,,,,,,,,,13,,49,72
50880,note_on,,0,0,12,,,,,,,,,,,,,,,,15,,76,72
50880,note_on,,1,0,6,,,,,,,,,,,,,,,,3,,69,72
50999,note_on,,0,0,12,,,,,,,,,,,,,,,,15,,76,0
50999,note_on,,0,0,12,,,,,,,,,,,,,,,,15,,69,0
50999,note_on,,119,0,12,,,,,,,,,,,,,,,,15,,64,0
51059,note_on,,179,0,6,,,,,,,,,,,,,,,,3,,69,0
51059,note_on,,179,0,11,,,,,,,,,,,,,,,,13,,49,0
51059,note_on,,179,0,9,,,,,,,,,,,,,,,,11,,64,0
51059,note_on,,179,0,10,,,,,,,,,,,,,,,,12,,57,0
51059,note_on,,60,0,12,,,,,,,,,,,,,,,,15,,49,0
51059,note_on,,179,0,8,,,,,,,,,,,,,,,,10,,69,0
51059,note_on,,179,0,5,,,,,,,,,,,,,,,,2,,49,0
51060,note_on,,1,0,11,,,,,,,,,,,,,,,,13,,49,72
51060,note_on,,1,0,6,,,,,,,,,,,,,,,,3,,69,72
51060,note_on,,1,0,12,,,,,,,,,,,,,,,,15,,49,72
51060,note_on,,1,0,8,,,,,,,,,,,,,,,,10,,69,72
51060,note_on,,1,0,5,,,,,,,,,,,,,,,,2,,49,72
51060,note_on,,1,0,9,,,,,,,,,,,,,,,,11,,64,72
51060,note_on,,1,0,10,,,,,,,,,,,,,,,,12,,57,72
51119,note_on,,59,0,6,,,,,,,,,,,,,,,,3,,69,0
51119,note_on,,59,0,8,,,,,,,,,,,,,,,,10,,69,0
51119,note_on,,59,0,5,,,,,,,,,,,,,,,,2,,49,0
51119,note_on,,59,0,11,,,,,,,,,,,,,,,,13,,49,0
51119,note_on,,59,0,10,,,,,,,,,,,,,,,,12,,57,0
51119,note_on,,59,0,12,,,,,,,,,,,,,,,,15,,49,0
51119,note_on,,59,0,9,,,,,,,,,,,,,,,,11,,64,0
51120,note_on,,1,0,9,,,,,,,,,,,,,,,,11,,64,72
51120,note_on,,1,0,12,,,,,,,,,,,,,,,,15,,49,72
51120,note_on,,0,0,12,,,,,,,,,,,,,,,,15,,64,72
51120,note_on,,0,0,12,,,,,,,,,,,,,,,,15,,69,72
51120,note_on,,0,0,12,,,,,,,,,,,,,,,,15,,61,72
51120,note_on,,1,0,5,,,,,,,,,,,,,,,,2,,49,72
51120,note_on,,1,0,6,,,,,,,,,,,,,,,,3,,69,72
51120,note_on,,1,0,10,,,,,,,,,,,,,,,,12,,57,72
51120,note_on,,1,0,8,,,,,,,,,,,,,,,,10,,69,72
51120,note_on,,1,0,11,,,,,,,,,,,,,,,,13,,49,72
51209,note_on,,89,0,9,,,,,,,,,,,,,,,,11,,64,0
51209,note_on,,89,0,10,,,,,,,,,,,,,,,,12,,57,0
51209,note_on,,89,0,12,,,,,,,,,,,,,,,,15,,49,0
51209,note_on,,89,0,8,,,,,,,,,,,,,,,,10,,69,0
51209,note_on,,89,0,5,,,,,,,,,,,,,,,,2,,49,0
51209,note_on,,89,0,11,,,,,,,,,,,,,,,,13,,49,0
51209,note_on,,89,0,6,,,,,,,,,,,,,,,,3,,69,0
51210,note_on,,1,0,9,,,,,,,,,,,,,,,,11,,64,72
51210,note_on,,1,0,10,,,,,,,,,,,,,,,,12,,57,72
51210,note_on,,1,0,11,,,,,,,,,,,,,,,,13,,49,72
51210,note_on,,1,0,8,,,,,,,,,,,,,,,,10,,69,72
51210,note_on,,1,0,5,,,,,,,,,,,,,,,,2,,49,72
51210,note_on,,1,0,12,,,,,,,,,,,,,,,,15,,49,72
51210,note_on,,1,0,6,,,,,,,,,,,,,,,,3,,69,72
51239,note_on,,29,0,6,,,,,,,,,,,,,,,,3,,69,0
51239,note_on,,29,0,11,,,,,,,,,,,,,,,,13,,49,0
51239,note_on,,29,0,9,,,,,,,,,,,,,,,,11,,64,0
51239,note_on,,29,0,12,,,,,,,,,,,,,,,,15,,64,0
51239,note_on,,0,0,12,,,,,,,,,,,,,,,,15,,69,0
51239,note_on,,29,0,8,,,,,,,,,,,,,,,,10,,69,0
51239,note_on,,0,0,12,,,,,,,,,,,,,,,,15,,61,0
51239,note_on,,29,0,5,,,,,,,,,,,,,,,,2,,49,0
51239,note_on,,0,0,12,,,,,,,,,,,,,,,,15,,49,0
51239,note_on,,29,0,10,,,,,,,,,,,,,,,,12,,57,0
51240,note_on,,1,0,11,,,,,,,,,,,,,,,,13,,47,72
51240,note_on,,1,0,6,,,,,,,,,,,,,,,,3,,74,72
51240,note_on,,1,0,8,,,,,,,,,,,,,,,,10,,74,72
51240,note_on,,1,0,10,,,,,,,,,,,,,,,,12,,54,72
51240,note_on,,0,0,12,,,,,,,,,,,,,,,,15,,71,72
51240,note_on,,0,0,12,,,,,,,,,,,,,,,,15,,47,72
51240,note_on,,0,0,12,,,,,,,,,,,,,,,,15,,74,72
51240,note_on,,1,0,5,,,,,,,,,,,,,,,,2,,47,72
51240,note_on,,1,0,9,,,,,,,,,,,,,,,,11,,66,72
51240,note_on,,1,0,12,,,,,,,,,,,,,,,,15,,66,72
51419,note_on,,179,0,10,,,,,,,,,,,,,,,,12,,54,0
51419,note_on,,179,0,9,,,,,,,,,,,,,,,,11,,66,0
51419,note_on,,179,0,8,,,,,,,,,,,,,,,,10,,74,0
51419,note_on,,179,0,12,,,,,,,,,,,,,,,,15,,47,0
51419,note_on,,179,0,11,,,,,,,,,,,,,,,,13,,47,0
51419,note_on,,179,0,6,,,,,,,,,,,,,,,,3,,74,0
51419,note_on,,179,0,5,,,,,,,,,,,,,,,,2,,47,0
51420,note_on,,1,0,10,,,,,,,,,,,,,,,,12,,62,72
51420,note_on,,1,0,12,,,,,,,,,,,,,,,,15,,47,72
51420,note_on,,1,0,11,,,,,,,,,,,,,,,,13,,47,72
51420,note_on,,1,0,6,,,,,,,,,,,,,,,,3,,76,72
51420,note_on,,1,0,8,,,,,,,,,,,,,,,,10,,76,72
51420,note_on,,1,0,9,,,,,,,,,,,,,,,,11,,67,72
51420,note_on,,1,0,5,,,,,,,,,,,,,,,,2,,47,72
51479,note_on,,0,0,12,,,,,,,,,,,,,,,,15,,71,0
51479,note_on,,59,0,8,,,,,,,,,,,,,,,,10,,76,0
51479,note_on,,59,0,6,,,,,,,,,,,,,,,,3,,76,0
51479,note_on,,59,0,10,,,,,,,,,,,,,,,,12,,62,0
51479,note_on,,59,0,12,,,,,,,,,,,,,,,,15,,66,0
51479,note_on,,59,0,5,,,,,,,,,,,,,,,,2,,47,0
51479,note_on,,59,0,9,,,,,,,,,,,,,,,,11,,67,0
51479,note_on,,59,0,11,,,,,,,,,,,,,,,,13,,47,0
51479,note_on,,0,0,12,,,,,,,,,,,,,,,,15,,74,0
51479,note_on,,0,0,12,,,,,,,,,,,,,,,,15,,47,0
51480,note_on,,1,0,11,,,,,,,,,,,,,,,,13,,45,72
51480,note_on,,1,0,8,,,,,,,,,,,,,,,,10,,78,72
51480,note_on,,1,0,10,,,,,,,,,,,,,,,,12,,62,72
51480,note_on,,1,0,6,,,,,,,,,,,,,,,,3,,78,72
51480,note_on,,1,0,5,,,,,,,,,,,,,,,,2,,45,72
51480,note_on,,1,0,9,,,,,,,,,,,,,,,,11,,66,72
51480,note_on,,1,0,12,,,,,,,,,,,,,,,,15,,45,72
51539,note_on,,59,0,12,,,,,,,,,,,,,,,,15,,45,0
51539,note_on,,59,0,5,,,,,,,,,,,,,,,,2,,45,0
51539,note_on,,59,0,10,,,,,,,,,,,,,,,,12,,62,0
51539,note_on,,59,0,8,,,,,,,,,,,,,,,,10,,78,0
51539,note_on,,59,0,11,,,,,,,,,,,,,,,,13,,45,0
51539,note_on,,59,0,6,,,,,,,,,,,,,,,,3,,78,0
51539,note_on,,59,0,9,,,,,,,,,,,,,,,,11,,66,0
51540,note_on,,1,0,10,,,,,,,,,,,,,,,,12,,64,72
51540,note_on,,1,0,6,,,,,,,,,,,,,,,,3,,79,72
51540,note_on,,1,0,5,,,,,,,,,,,,,,,,2,,43,72
51540,note_on,,1,0,9,,,,,,,,,,,,,,,,11,,64,72
51540,note_on,,1,0,11,,,,,,,,,,,,,,,,13,,43,72
51540,note_on,,1,0,12,,,,,,,,,,,,,,,,15,,43,72
51540,note_on,,1,0,8,,,,,,,,,,,,,,,,10,,79,72
51599,note_on,,59,0,10,,,,,,,,,,,,,,,,12,,64,0
51599,note_on,,59,0,9,,,,,,,,,,,,,,,,11,,64,0
51599,note_on,,59,0,12,,,,,,,,,,,,,,,,15,,43,0
51599,note_on,,59,0,6,,,,,,,,,,,,,,,,3,,79,0
51599,note_on,,59,0,5,,,,,,,,,,,,,,,,2,,43,0
51599,note_on,,59,0,8,,,,,,,,,,,,,,,,10,,79,0
51599,note_on,,59,0,11,,,,,,,,,,,,,,,,13,,43,0
51600,note_on,,1,0,9,,,,,,,,,,,,,,,,11,,62,72
51600,note_on,,1,0,6,,,,,,,,,,,,,,,,3,,81,72
51600,note_on,,1,0,5,,,,,,,,,,,,,,,,2,,42,72
51600,note_on,,1,0,10,,,,,,,,,,,,,,,,12,,54,72
51600,note_on,,1,0,12,,,,,,,,,,,,,,,,15,,69,72
51600,note_on,,1,0,8,,,,,,,,,,,,,,,,10,,81,72
51600,note_on,,0,0,12,,,,,,,,,,,,,,,,15,,78,72
51600,note_on,,0,0,12,,,,,,,,,,,,,,,,15,,42,72
51600,note_on,,0,0,12,,,,,,,,,,,,,,,,15,,81,72
51600,note_on,,0,0,12,,,,,,,,,,,,,,,,15,,74,72
51600,note_on,,1,0,11,,,,,,,,,,,,,,,,13,,42,72
51779,note_on,,179,0,11,,,,,,,,,,,,,,,,13,,42,0
51779,note_on,,179,0,5,,,,,,,,,,,,,,,,2,,42,0
51779,note_on,,179,0,8,,,,,,,,,,,,,,,,10,,81,0
51779,note_on,,179,0,9,,,,,,,,,,,,,,,,11,,62,0
51779,note_on,,179,0,12,,,,,,,,,,,,,,,,15,,42,0
51779,note_on,,179,0,6,,,,,,,,,,,,,,,,3,,81,0
51779,note_on,,179,0,10,,,,,,,,,,,,,,,,12,,54,0
51780,note_on,,1,0,11,,,,,,,,,,,,,,,,13,,54,72
51780,note_on,,1,0,12,,,,,,,,,,,,,,,,15,,54,72
51780,note_on,,1,0,8,,,,,,,,,,,,,,,,10,,79,72
51780,note_on,,1,0,10,,,,,,,,,,,,,,,,12,,62,72
51780,note_on,,1,0,5,,,,,,,,,,,,,,,,2,,54,72
51780,note_on,,1,0,6,,,,,,,,,,,,,,,,3,,79,72
51780,note_on,,1,0,9,,,,,,,,,,,,,,,,11,,69,72
51839,note_on,,59,0,11,,,,,,,,,,,,,,,,13,,54,0
51839,note_on,,0,0,12,,,,,,,,,,,,,,,,15,,78,0
51839,note_on,,0,0,12,,,,,,,,,,,,,,,,15,,81,0
51839,note_on,,0,0,12,,,,,,,,,,,,,,,,15,,74,0
51839,note_on,,59,0,6,,,,,,,,,,,,,,,,3,,79,0
51839,note_on,,59,0,12,,,,,,,,,,,,,,,,15,,69,0
51839,note_on,,59,0,5,,,,,,,,,,,,,,,,2,,54,0
51839,note_on,,59,0,10,,,,,,,,,,,,,,,,12,,62,0
51839,note_on,,0,0,12,,,,,,,,,,,,,,,,15,,54,0
51839,note_on,,59,0,9,,,,,,,,,,,,,,,,11,,69,0
51839,note_on,,59,0,8,,,,,,,,,,,,,,,,10,,79,0
51840,note_on,,1,0,12,,,,,,,,,,,,,,,,15,,55,72
51840,note_on,,1,0,10,,,,,,,,,,,,,,,,12,,62,72
51840,note_on,,1,0,6,,,,,,,,,,,,,,,,3,,78,72
51840,note_on,,1,0,11,,,,,,,,,,,,,,,,13,,55,72
51840,note_on,,1,0,5,,,,,,,,,,,,,,,,2,,55,72
51840,note_on,,1,0,9,,,,,,,,,,,,,,,,11,,71,72
51840,note_on,,1,0,8,,,,,,,,,,,,,,,,10,,78,72
51899,note_on,,59,0,6,,,,,,,,,,,,,,,,3,,78,0
51899,note_on,,59,0,10,,,,,,,,,,,,,,,,12,,62,0
51899,note_on,,59,0,12,,,,,,,,,,,,,,,,15,,55,0
51899,note_on,,59,0,9,,,,,,,,,,,,,,,,11,,71,0
51899,note_on,,59,0,8,,,,,,,,,,,,,,,,10,,78,0
51899,note_on,,59,0,5,,,,,,,,,,,,,,,,2,,55,0
51899,note_on,,59,0,11,,,,,,,,,,,,,,,,13,,55,0
51900,note_on,,1,0,10,,,,,,,,,,,,,,,,12,,61,72
51900,note_on,,1,0,6,,,,,,,,,,,,,,,,3,,76,72
51900,note_on,,1,0,8,,,,,,,,,,,,,,,,10,,76,72
51900,note_on,,1,0,12,,,,,,,,,,,,,,,,15,,57,72
51900,note_on,,1,0,5,,,,,,,,,,,,,,,,2,,57,72
51900,note_on,,1,0,11,,,,,,,,,,,,,,,,13,,57,72
51900,note_on,,1,0,9,,,,,,,,,,,,,,,,11,,73,72
51959,note_on,,59,0,10,,,,,,,,,,,,,,,,12,,61,0
51959,note_on,,59,0,6,,,,,,,,,,,,,,,,3,,76,0
51959,note_on,,59,0,12,,,,,,,,,,,,,,,,15,,57,0
51959,note_on,,59,0,11,,,,,,,,,,,,,,,,13,,57,0
51959,note_on,,59,0,5,,,,,,,,,,,,,,,,2,,57,0
51959,note_on,,59,0,9,,,,,,,,,,,,,,,,11,,73,0
51959,note_on,,59,0,8,,,,,,,,,,,,,,,,10,,76,0
51960,note_on,,1,0,6,,,,,,,,,,,,,,,,3,,74,72
51960,note_on,,0,0,12,,,,,,,,,,,,,,,,15,,71,72
51960,note_on,,1,0,11,,,,,,,,,,,,,,,,13,,59,72
51960,note_on,,1,0,12,,,,,,,,,,,,,,,,15,,66,72
51960,note_on,,1,0,9,,,,,,,,,,,,,,,,11,,66,72
51960,note_on,,0,0,12,,,,,,,,,,,,,,,,15,,74,72
51960,note_on,,0,0,12,,,,,,,,,,,,,,,,15,,59,72
51960,note_on,,1,0,10,,,,,,,,,,,,,,,,12,,59,72
51960,note_on,,1,0,5,,,,,,,,,,,,,,,,2,,59,72
51960,note_on,,1,0,8,,,,,,,,,,,,,,,,10,,74,72
52019,note_on,,59,0,12,,,,,,,,,,,,,,,,15,,59,0
52019,note_on,,59,0,11,,,,,,,,,,,,,,,,13,,59,0
52019,note_on,,59,0,5,,,,,,,,,,,,,,,,2,,59,0
52020,note_on,,1,0,12,,,,,,,,,,,,,,,,15,,61,72
52020,note_on,,1,0,11,,,,,,,,,,,,,,,,13,,61,72
52020,note_on,,1,0,5,,,,,,,,,,,,,,,,2,,61,72
52079,note_on,,59,0,12,,,,,,,,,,,,,,,,15,,61,0
52079,note_on,,59,0,5,,,,,,,,,,,,,,,,2,,61,0
52079,note_on,,59,0,11,,,,,,,,,,,,,,,,13,,61,0
52080,note_on,,1,0,5,,,,,,,,,,,,,,,,2,,59,72
52080,note_on,,1,0,12,,,,,,,,,,,,,,,,15,,59,72
52080,note_on,,1,0,11,,,,,,,,,,,,,,,,13,,59,72
52139,note_on,,59,0,11,,,,,,,,,,,,,,,,13,,59,0
52139,note_on,,59,0,12,,,,,,,,,,,,,,,,15,,59,0
52139,note_on,,179,0,6,,,,,,,,,,,,,,,,3,,74,0
52139,note_on,,179,0,10,,,,,,,,,,,,,,,,12,,59,0
52139,note_on,,179,0,9,,,,,,,,,,,,,,,,11,,66,0
52139,note_on,,59,0,5,,,,,,,,,,,,,,,,2,,59,0
52139,note_on,,179,0,8,,,,,,,,,,,,,,,,10,,74,0
52140,note_on,,1,0,12,,,,,,,,,,,,,,,,15,,57,72
52140,note_on,,1,0,10,,,,,,,,,,,,,,,,12,,61,72
52140,note_on,,1,0,5,,,,,,,,,,,,,,,,2,,57,72
52140,note_on,,1,0,6,,,,,,,,,,,,,,,,3,,74,72
52140,note_on,,1,0,8,,,,,,,,,,,,,,,,10,,74,72
52140,note_on,,1,0,11,,,,,,,,,,,,,,,,13,,57,72
52140,note_on,,1,0,9,,,,,,,,,,,,,,,,11,,66,72
52199,note_on,,59,0,10,,,,,,,,,,,,,,,,12,,61,0
52199,note_on,,59,0,5,,,,,,,,,,,,,,,,2,,57,0
52199,note_on,,59,0,8,,,,,,,,,,,,,,,,10,,74,0
52199,note_on,,59,0,12,,,,,,,,,,,,,,,,15,,57,0
52199,note_on,,59,0,6,,,,,,,,,,,,,,,,3,,74,0
52199,note_on,,59,0,9,,,,,,,,,,,,,,,,11,,66,0
52199,note_on,,59,0,11,,,,,,,,,,,,,,,,13,,57,0
52200,note_on,,1,0,11,,,,,,,,,,,,,,,,13,,55,72
52200,note_on,,1,0,10,,,,,,,,,,,,,,,,12,,59,72
52200,note_on,,1,0,5,,,,,,,,,,,,,,,,2,,55,72
52200,note_on,,1,0,8,,,,,,,,,,,,,,,,10,,76,72
52200,note_on,,1,0,6,,,,,,,,,,,,,,,,3,,76,72
52200,note_on,,1,0,12,,,,,,,,,,,,,,,,15,,55,72
52200,note_on,,1,0,9,,,,,,,,,,,,,,,,11,,67,72
52259,note_on,,59,0,5,,,,,,,,,,,,,,,,2,,55,0
52259,note_on,,59,0,8,,,,,,,,,,,,,,,,10,,76,0
52259,note_on,,59,0,6,,,,,,,,,,,,,,,,3,,76,0
52259,note_on,,59,0,12,,,,,,,,,,,,,,,,15,,55,0
52259,note_on,,59,0,11,,,,,,,,,,,,,,,,13,,55,0
52259,note_on,,59,0,10,,,,,,,,,,,,,,,,12,,59,0
52259,note_on,,59,0,9,,,,,,,,,,,,,,,,11,,67,0
52260,note_on,,1,0,10,,,,,,,,,,,,,,,,12,,57,72
52260,note_on,,1,0,8,,,,,,,,,,,,,,,,10,,78,72
52260,note_on,,1,0,11,,,,,,,,,,,,,,,,13,,54,72
52260,note_on,,1,0,9,,,,,,,,,,,,,,,,11,,69,72
52260,note_on,,1,0,12,,,,,,,,,,,,,,,,15,,54,72
52260,note_on,,1,0,5,,,,,,,,,,,,,,,,2,,54,72
52260,note_on,,1,0,6,,,,,,,,,,,,,,,,3,,78,72
52319,note_on,,59,0,9,,,,,,,,,,,,,,,,11,,69,0
52319,note_on,,0,0,12,,,,,,,,,,,,,,,,15,,54,0
52319,note_on,,0,0,12,,,,,,,,,,,,,,,,15,,74,0
52319,note_on,,0,0,12,,,,,,,,,,,,,,,,15,,71,0
52319,note_on,,59,0,11,,,,,,,,,,,,,,,,13,,54,0
52319,note_on,,59,0,6,,,,,,,,,,,,,,,,3,,78,0
52319,note_on,,59,0,10,,,,,,,,,,,,,,,,12,,57,0
52319,note_on,,59,0,8,,,,,,,,,,,,,,,,10,,78,0
52319,note_on,,59,0,5,,,,,,,,,,,,,,,,2,,54,0
52319,note_on,,59,0,12,,,,,,,,,,,,,,,,15,,66,0
52320,note_on,,1,0,12,,,,,,,,,,,,,,,,15,,52,72
52320,note_on,,0,0,12,,,,,,,,,,,,,,,,15,,71,72
52320,note_on,,0,0,12,,,,,,,,,,,,,,,,15,,76,72
52320,note_on,,1,0,9,,,,,,,,,,,,,,,,11,,71,72
52320,note_on,,1,0,10,,,,,,,,,,,,,,,,12,,55,72
52320,note_on,,0,0,12,,,,,,,,,,,,,,,,15,,67,72
52320,note_on,,1,0,5,,,,,,,,,,,,,,,,2,,52,72
52320,note_on,,1,0,11,,,,,,,,,,,,,,,,13,,52,72
52320,note_on,,1,0,8,,,,,,,,,,,,,,,,10,,79,72
52320,note_on,,1,0,6,,,,,,,,,,,,,,,,3,,79,72
52439,note_on,,119,0,12,,,,,,,,,,,,,,,,15,,52,0
52439,note_on,,119,0,11,,,,,,,,,,,,,,,,13,,52,0
52439,note_on,,119,0,5,,,,,,,,,,,,,,,,2,,52,0
52440,note_on,,1,0,12,,,,,,,,,,,,,,,,15,,62,72
52440,note_on,,1,0,11,,,,,,,,,,,,,,,,13,,62,72
52440,note_on,,1,0,5,,,,,,,,,,,,,,,,2,,62,72
52499,note_on,,179,0,6,,,,,,,,,,,,,,,,3,,79,0
52499,note_on,,179,0,10,,,,,,,,,,,,,,,,12,,55,0
52499,note_on,,179,0,8,,,,,,,,,,,,,,,,10,,79,0
52499,note_on,,179,0,9,,,,,,,,,,,,,,,,11,,71,0
52500,note_on,,1,0,10,,,,,,,,,,,,,,,,12,,71,72
52500,note_on,,1,0,8,,,,,,,,,,,,,,,,10,,78,72
52500,note_on,,1,0,9,,,,,,,,,,,,,,,,11,,71,72
52500,note_on,,1,0,6,,,,,,,,,,,,,,,,3,,78,72
52559,note_on,,119,0,11,,,,,,,,,,,,,,,,13,,62,0
52559,note_on,,59,0,6,,,,,,,,,,,,,,,,3,,78,0
52559,note_on,,119,0,12,,,,,,,,,,,,,,,,15,,71,0
52559,note_on,,0,0,12,,,,,,,,,,,,,,,,15,,67,0
52559,note_on,,0,0,12,,,,,,,,,,,,,,,,15,,76,0
52559,note_on,,59,0,10,,,,,,,,,,,,,,,,12,,71,0
52559,note_on,,0,0,12,,,,,,,,,,,,,,,,15,,62,0
52559,note_on,,59,0,9,,,,,,,,,,,,,,,,11,,71,0
52559,note_on,,59,0,8,,,,,,,,,,,,,,,,10,,78,0
52559,note_on,,119,0,5,,,,,,,,,,,,,,,,2,,62,0
52560,note_on,,1,0,10,,,,,,,,,,,,,,,,12,,69,72
52560,note_on,,1,0,11,,,,,,,,,,,,,,,,13,,61,72
52560,note_on,,1,0,6,,,,,,,,,,,,,,,,3,,79,72
52560,note_on,,1,0,12,,,,,,,,,,,,,,,,15,,61,72
52560,note_on,,1,0,8,,,,,,,,,,,,,,,,10,,79,72
52560,note_on,,0,0,12,,,,,,,,,,,,,,,,15,,64,72
52560,note_on,,0,0,12,,,,,,,,,,,,,,,,15,,69,72
52560,note_on,,1,0,5,,,,,,,,,,,,,,,,2,,61,72
52560,note_on,,1,0,9,,,,,,,,,,,,,,,,11,,76,72
52619,note_on,,59,0,6,,,,,,,,,,,,,,,,3,,79,0
52619,note_on,,59,0,10,,,,,,,,,,,,,,,,12,,69,0
52619,note_on,,59,0,8,,,,,,,,,,,,,,,,10,,79,0
52619,note_on,,59,0,9,,,,,,,,,,,,,,,,11,,76,0
52620,note_on,,1,0,8,,,,,,,,,,,,,,,,10,,76,72
52620,note_on,,1,0,6,,,,,,,,,,,,,,,,3,,76,72
52620,note_on,,1,0,9,,,,,,,,,,,,,,,,11,,69,72
52620,note_on,,1,0,10,,,,,,,,,,,,,,,,12,,69,72
52679,note_on,,59,0,6,,,,,,,,,,,,,,,,3,,76,0
52679,note_on,,59,0,8,,,,,,,,,,,,,,,,10,,76,0
52679,note_on,,119,0,11,,,,,,,,,,,,,,,,13,,61,0
52679,note_on,,119,0,12,,,,,,,,,,,,,,,,15,,61,0
52679,note_on,,0,0,12,,,,,,,,,,,,,,,,15,,64,0
52679,note_on,,119,0,5,,,,,,,,,,,,,,,,2,,61,0
52679,note_on,,59,0,10,,,,,,,,,,,,,,,,12,,69,0
52679,note_on,,59,0,9,,,,,,,,,,,,,,,,11,,69,0
52680,note_on,,1,0,10,,,,,,,,,,,,,,,,12,,69,72
52680,note_on,,0,0,12,,,,,,,,,,,,,,,,15,,62,72
52680,note_on,,1,0,8,,,,,,,,,,,,,,,,10,,78,72
52680,note_on,,1,0,12,,,,,,,,,,,,,,,,15,,66,72
52680,note_on,,1,0,11,,,,,,,,,,,,,,,,13,,62,72
52680,note_on,,1,0,6,,,,,,,,,,,,,,,,3,,78,72
52680,note_on,,1,0,5,,,,,,,,,,,,,,,,2,,62,72
52680,note_on,,1,0,9,,,,,,,,,,,,,,,,11,,74,72
52739,note_on,,59,0,8,,,,,,,,,,,,,,,,10,,78,0
52739,note_on,,59,0,10,,,,,,,,,,,,,,,,12,,69,0
52739,note_on,,59,0,9,,,,,,,,,,,,,,,,11,,74,0
52739,note_on,,0,0,12,,,,,,,,,,,,,,,,15,,62,0
52739,note_on,,59,0,12,,,,,,,,,,,,,,,,15,,66,0
52739,note_on,,59,0,5,,,,,,,,,,,,,,,,2,,62,0
52739,note_on,,59,0,11,,,,,,,,,,,,,,,,13,,62,0
52739,note_on,,59,0,6,,,,,,,,,,,,,,,,3,,78,0
52740,note_on,,1,0,9,,,,,,,,,,,,,,,,11,,76,72
52740,note_on,,1,0,6,,,,,,,,,,,,,,,,3,,79,72
52740,note_on,,1,0,8,,,,,,,,,,,,,,,,10,,79,72
52740,note_on,,1,0,12,,,,,,,,,,,,,,,,15,,64,72
52740,note_on,,0,0,12,,,,,,,,,,,,,,,,15,,61,72
52740,note_on,,1,0,11,,,,,,,,,,,,,,,,13,,61,72
52740,note_on,,1,0,10,,,,,,,,,,,,,,,,12,,69,72
52740,note_on,,1,0,5,,,,,,,,,,,,,,,,2,,61,72
52799,note_on,,0,0,12,,,,,,,,,,,,,,,,15,,64,0
52799,note_on,,59,0,9,,,,,,,,,,,,,,,,11,,76,0
52799,note_on,,59,0,6,,,,,,,,,,,,,,,,3,,79,0
52799,note_on,,59,0,11,,,,,,,,,,,,,,,,13,,61,0
52799,note_on,,0,0,12,,,,,,,,,,,,,,,,15,,61,0
52799,note_on,,59,0,12,,,,,,,,,,,,,,,,15,,69,0
52799,note_on,,59,0,5,,,,,,,,,,,,,,,,2,,61,0
52799,note_on,,59,0,8,,,,,,,,,,,,,,,,10,,79,0
52799,note_on,,59,0,10,,,,,,,,,,,,,,,,12,,69,0
52800,note_on,,1,0,10,,,,,,,,,,,,,,,,12,,69,72
52800,note_on,,1,0,8,,,,,,,,,,,,,,,,10,,78,72
52800,note_on,,1,0,9,,,,,,,,,,,,,,,,11,,74,72
52800,note_on,,1,0,6,,,,,,,,,,,,,,,,3,,78,72
52800,note_on,,0,0,12,,,,,,,,,,,,,,,,15,,74,72
52800,note_on,,1,0,12,,,,,,,,,,,,,,,,15,,62,72
52800,note_on,,1,0,11,,,,,,,,,,,,,,,,13,,62,72
52800,note_on,,1,0,5,,,,,,,,,,,,,,,,2,,62,72
52800,note_on,,0,0,12,,,,,,,,,,,,,,,,15,,66,72
52800,note_on,,0,0,12,,,,,,,,,,,,,,,,15,,69,72
52814,note_on,,14,0,8,,,,,,,,,,,,,,,,10,,78,0
52814,note_on,,14,0,6,,,,,,,,,,,,,,,,3,,78,0
52815,note_on,,1,0,8,,,,,,,,,,,,,,,,10,,79,72
52815,note_on,,1,0,6,,,,,,,,,,,,,,,,3,,79,72
52829,note_on,,14,0,8,,,,,,,,,,,,,,,,10,,79,0
52829,note_on,,14,0,6,,,,,,,,,,,,,,,,3,,79,0
52830,note_on,,1,0,8,,,,,,,,,,,,,,,,10,,78,72
52830,note_on,,1,0,6,,,,,,,,,,,,,,,,3,,78,72
52844,note_on,,14,0,8,,,,,,,,,,,,,,,,10,,78,0
52844,note_on,,14,0,6,,,,,,,,,,,,,,,,3,,78,0
52845,note_on,,1,0,6,,,,,,,,,,,,,,,,3,,79,72
52845,note_on,,1,0,8,,,,,,,,,,,,,,,,10,,79,72
52859,note_on,,14,0,8,,,,,,,,,,,,,,,,10,,79,0
52859,note_on,,14,0,6,,,,,,,,,,,,,,,,3,,79,0
52860,note_on,,1,0,6,,,,,,,,,,,,,,,,3,,78,72
52860,note_on,,1,0,8,,,,,,,,,,,,,,,,10,,78,72
52874,note_on,,14,0,6,,,,,,,,,,,,,,,,3,,78,0
52874,note_on,,14,0,8,,,,,,,,,,,,,,,,10,,78,0
52875,note_on,,1,0,6,,,,,,,,,,,,,,,,3,,79,72
52875,note_on,,1,0,8,,,,,,,,,,,,,,,,10,,79,72
52889,note_on,,14,0,6,,,,,,,,,,,,,,,,3,,79,0
52889,note_on,,14,0,8,,,,,,,,,,,,,,,,10,,79,0
52890,note_on,,1,0,6,,,,,,,,,,,,,,,,3,,78,72
52890,note_on,,1,0,8,,,,,,,,,,,,,,,,10,,78,72
52904,note_on,,14,0,6,,,,,,,,,,,,,,,,3,,78,0
52904,note_on,,14,0,8,,,,,,,,,,,,,,,,10,,78,0
52905,note_on,,1,0,8,,,,,,,,,,,,,,,,10,,79,72
52905,note_on,,1,0,6,,,,,,,,,,,,,,,,3,,79,72
52919,note_on,,14,0,6,,,,,,,,,,,,,,,,3,,79,0
52919,note_on,,119,0,11,,,,,,,,,,,,,,,,13,,62,0
52919,note_on,,119,0,10,,,,,,,,,,,,,,,,12,,69,0
52919,note_on,,0,0,12,,,,,,,,,,,,,,,,15,,66,0
52919,note_on,,119,0,5,,,,,,,,,,,,,,,,2,,62,0
52919,note_on,,0,0,12,,,,,,,,,,,,,,,,15,,69,0
52919,note_on,,14,0,8,,,,,,,,,,,,,,,,10,,79,0
52919,note_on,,0,0,12,,,,,,,,,,,,,,,,15,,74,0
52919,note_on,,119,0,12,,,,,,,,,,,,,,,,15,,62,0
52920,note_on,,1,0,10,,,,,,,,,,,,,,,,12,,69,72
52920,note_on,,0,0,12,,,,,,,,,,,,,,,,15,,74,72
52920,note_on,,0,0,12,,,,,,,,,,,,,,,,15,,50,72
52920,note_on,,1,0,8,,,,,,,,,,,,,,,,10,,78,72
52920,note_on,,1,0,11,,,,,,,,,,,,,,,,13,,50,72
52920,note_on,,0,0,12,,,,,,,,,,,,,,,,15,,78,72
52920,note_on,,1,0,5,,,,,,,,,,,,,,,,2,,50,72
52920,note_on,,1,0,6,,,,,,,,,,,,,,,,3,,78,72
52920,note_on,,1,0,12,,,,,,,,,,,,,,,,15,,69,72
52934,note_on,,14,0,8,,,,,,,,,,,,,,,,10,,78,0
52934,note_on,,14,0,6,,,,,,,,,,,,,,,,3,,78,0
52935,note_on,,1,0,8,,,,,,,,,,,,,,,,10,,79,72
52935,note_on,,1,0,6,,,,,,,,,,,,,,,,3,,79,72
52949,note_on,,14,0,6,,,,,,,,,,,,,,,,3,,79,0
52949,note_on,,14,0,8,,,,,,,,,,,,,,,,10,,79,0
52950,note_on,,1,0,8,,,,,,,,,,,,,,,,10,,76,72
52950,note_on,,1,0,6,,,,,,,,,,,,,,,,3,,76,72
52964,note_on,,14,0,6,,,,,,,,,,,,,,,,3,,76,0
52964,note_on,,14,0,8,,,,,,,,,,,,,,,,10,,76,0
52965,note_on,,1,0,8,,,,,,,,,,,,,,,,10,,78,72
52965,note_on,,1,0,6,,,,,,,,,,,,,,,,3,,78,72
52979,note_on,,14,0,8,,,,,,,,,,,,,,,,10,,78,0
52979,note_on,,179,0,9,,,,,,,,,,,,,,,,11,,74,0
52979,note_on,,14,0,6,,,,,,,,,,,,,,,,3,,78,0
52980,note_on,,1,0,8,,,,,,,,,,,,,,,,10,,76,72
52980,note_on,,1,0,9,,,,,,,,,,,,,,,,11,,73,72
52980,note_on,,1,0,6,,,,,,,,,,,,,,,,3,,76,72
53039,note_on,,59,0,8,,,,,,,,,,,,,,,,10,,76,0
53039,note_on,,0,0,12,,,,,,,,,,,,,,,,15,,50,0
53039,note_on,,119,0,10,,,,,,,,,,,,,,,,12,,69,0
53039,note_on,,119,0,11,,,,,,,,,,,,,,,,13,,50,0
53039,note_on,,0,0,12,,,,,,,,,,,,,,,,15,,78,0
53039,note_on,,59,0,6,,,,,,,,,,,,,,,,3,,76,0
53039,note_on,,59,0,9,,,,,,,,,,,,,,,,11,,73,0
53039,note_on,,119,0,5,,,,,,,,,,,,,,,,2,,50,0
53039,note_on,,119,0,12,,,,,,,,,,,,,,,,15,,69,0
53039,note_on,,0,0,12,,,,,,,,,,,,,,,,15,,74,0
53040,note_on,,1,0,8,,,,,,,,,,,,,,,,10,,76,72
53040,note_on,,1,0,11,,,,,,,,,,,,,,,,13,,57,72
53040,note_on,,0,0,12,,,,,,,,,,,,,,,,15,,69,72
53040,note_on,,1,0,5,,,,,,,,,,,,,,,,2,,57,72
53040,note_on,,0,0,12,,,,,,,,,,,,,,,,15,,73,72
53040,note_on,,1,0,12,,,,,,,,,,,,,,,,15,,76,72
53040,note_on,,0,0,12,,,,,,,,,,,,,,,,15,,57,72
53040,note_on,,1,0,9,,,,,,,,,,,,,,,,11,,73,72
53040,note_on,,0,0,12,,,,,,,,,,,,,,,,15,,64,72
53040,note_on,,1,0,6,,,,,,,,,,,,,,,,3,,76,72
53040,note_on,,1,0,10,,,,,,,,,,,,,,,,12,,69,72
53159,note_on,,119,0,12,,,,,,,,,,,,,,,,15,,76,0
53159,note_on,,0,0,12,,,,,,,,,,,,,,,,15,,57,0
53159,note_on,,0,0,12,,,,,,,,,,,,,,,,15,,64,0
53159,note_on,,0,0,12,,,,,,,,,,,,,,,,15,,73,0
53159,note_on,,0,0,12,,,,,,,,,,,,,,,,15,,69,0
53159,note_on,,119,0,9,,,,,,,,,,,,,,,,11,,73,0
53159,note_on,,119,0,6,,,,,,,,,,,,,,,,3,,76,0
53159,note_on,,119,0,10,,,,,,,,,,,,,,,,12,,69,0
53159,note_on,,119,0,11,,,,,,,,,,,,,,,,13,,57,0
53159,note_on,,119,0,8,,,,,,,,,,,,,,,,10,,76,0
53159,note_on,,119,0,5,,,,,,,,,,,,,,,,2,,57,0
53220,note_on,,61,0,6,,,,,,,,,,,,,,,,3,,76,72
53279,note_on,,59,0,6,,,,,,,,,,,,,,,,3,,76,0
53280,note_on,,1,0,6,,,,,,,,,,,,,,,,3,,74,72
53339,note_on,,59,0,6,,,,,,,,,,,,,,,,3,,74,0
53340,note_on,,1,0,6,,,,,,,,,,,,,,,,3,,76,72
53399,note_on,,59,0,6,,,,,,,,,,,,,,,,3,,76,0
53400,note_on,,1,0,6,,,,,,,,,,,,,,,,3,,78,72
53459,note_on,,59,0,6,,,,,,,,,,,,,,,,3,,78,0
53460,note_on,,1,0,6,,,,,,,,,,,,,,,,3,,79,72
53519,note_on,,59,0,6,,,,,,,,,,,,,,,,3,,79,0
53520,note_on,,1,0,6,,,,,,,,,,,,,,,,3,,81,72
53579,note_on,,59,0,6,,,,,,,,,,,,,,,,3,,81,0
53580,note_on,,421,0,9,,,,,,,,,,,,,,,,11,,69,72
53580,note_on,,421,0,10,,,,,,,,,,,,,,,,12,,61,72
53580,note_on,,421,0,11,,,,,,,,,,,,,,,,13,,61,72
53580,note_on,,421,0,8,,,,,,,,,,,,,,,,10,,76,72
53580,note_on,,0,0,12,,,,,,,,,,,,,,,,15,,69,72
53580,note_on,,0,0,12,,,,,,,,,,,,,,,,15,,61,72
53580,note_on,,421,0,12,,,,,,,,,,,,,,,,15,,64,72
53580,note_on,,421,0,5,,,,,,,,,,,,,,,,2,,61,72
53639,note_on,,59,0,5,,,,,,,,,,,,,,,,2,,61,0
53639,note_on,,59,0,11,,,,,,,,,,,,,,,,13,,61,0
53639,note_on,,59,0,10,,,,,,,,,,,,,,,,12,,61,0
53639,note_on,,59,0,8,,,,,,,,,,,,,,,,10,,76,0
53639,note_on,,59,0,12,,,,,,,,,,,,,,,,15,,64,0
53639,note_on,,59,0,9,,,,,,,,,,,,,,,,11,,69,0
53639,note_on,,0,0,12,,,,,,,,,,,,,,,,15,,61,0
53640,note_on,,1,0,8,,,,,,,,,,,,,,,,10,,74,72
53640,note_on,,1,0,9,,,,,,,,,,,,,,,,11,,71,72
53640,note_on,,1,0,5,,,,,,,,,,,,,,,,2,,59,72
53640,note_on,,1,0,11,,,,,,,,,,,,,,,,13,,59,72
53640,note_on,,0,0,12,,,,,,,,,,,,,,,,15,,62,72
53640,note_on,,1,0,12,,,,,,,,,,,,,,,,15,,59,72
53640,note_on,,1,0,10,,,,,,,,,,,,,,,,12,,62,72
53699,note_on,,0,0,12,,,,,,,,,,,,,,,,15,,62,0
53699,note_on,,59,0,12,,,,,,,,,,,,,,,,15,,59,0
53699,note_on,,59,0,5,,,,,,,,,,,,,,,,2,,59,0
53699,note_on,,59,0,11,,,,,,,,,,,,,,,,13,,59,0
53699,note_on,,59,0,8,,,,,,,,,,,,,,,,10,,74,0
53699,note_on,,59,0,9,,,,,,,,,,,,,,,,11,,71,0
53699,note_on,,59,0,10,,,,,,,,,,,,,,,,12,,62,0
53700,note_on,,1,0,10,,,,,,,,,,,,,,,,12,,61,72
53700,note_on,,1,0,9,,,,,,,,,,,,,,,,11,,69,72
53700,note_on,,1,0,11,,,,,,,,,,,,,,,,13,,61,72
53700,note_on,,1,0,8,,,,,,,,,,,,,,,,10,,76,72
53700,note_on,,1,0,12,,,,,,,,,,,,,,,,15,,64,72
53700,note_on,,0,0,12,,,,,,,,,,,,,,,,15,,61,72
53700,note_on,,1,0,5,,,,,,,,,,,,,,,,2,,61,72
53759,note_on,,59,0,11,,,,,,,,,,,,,,,,13,,61,0
53759,note_on,,0,0,12,,,,,,,,,,,,,,,,15,,61,0
53759,note_on,,59,0,12,,,,,,,,,,,,,,,,15,,64,0
53759,note_on,,59,0,9,,,,,,,,,,,,,,,,11,,69,0
53759,note_on,,59,0,10,,,,,,,,,,,,,,,,12,,61,0
53759,note_on,,59,0,8,,,,,,,,,,,,,,,,10,,76,0
53759,note_on,,59,0,5,,,,,,,,,,,,,,,,2,,61,0
53760,note_on,,1,0,8,,,,,,,,,,,,,,,,10,,78,72
53760,note_on,,1,0,12,,,,,,,,,,,,,,,,15,,62,72
53760,note_on,,1,0,10,,,,,,,,,,,,,,,,12,,62,72
53760,note_on,,1,0,5,,,,,,,,,,,,,,,,2,,62,72
53760,note_on,,1,0,9,,,,,,,,,,,,,,,,11,,69,72
53760,note_on,,1,0,11,,,,,,,,,,,,,,,,13,,62,72
53760,note_on,,0,0,12,,,,,,,,,,,,,,,,15,,66,72
53819,note_on,,59,0,8,,,,,,,,,,,,,,,,10,,78,0
53820,note_on,,1,0,8,,,,,,,,,,,,,,,,10,,79,72
53879,note_on,,119,0,10,,,,,,,,,,,,,,,,12,,62,0
53879,note_on,,0,0,12,,,,,,,,,,,,,,,,15,,62,0
53879,note_on,,119,0,12,,,,,,,,,,,,,,,,15,,69,0
53879,note_on,,0,0,12,,,,,,,,,,,,,,,,15,,66,0
53879,note_on,,119,0,5,,,,,,,,,,,,,,,,2,,62,0
53879,note_on,,59,0,8,,,,,,,,,,,,,,,,10,,79,0
53879,note_on,,119,0,11,,,,,,,,,,,,,,,,13,,62,0
53879,note_on,,119,0,9,,,,,,,,,,,,,,,,11,,69,0
53880,note_on,,1,0,12,,,,,,,,,,,,,,,,15,,69,72
53880,note_on,,0,0,12,,,,,,,,,,,,,,,,15,,64,72
53880,note_on,,0,0,12,,,,,,,,,,,,,,,,15,,73,72
53880,note_on,,1,0,10,,,,,,,,,,,,,,,,12,,64,72
53880,note_on,,0,0,12,,,,,,,,,,,,,,,,15,,61,72
53880,note_on,,1,0,11,,,,,,,,,,,,,,,,13,,61,72
53880,note_on,,1,0,5,,,,,,,,,,,,,,,,2,,61,72
53880,note_on,,1,0,8,,,,,,,,,,,,,,,,10,,81,72
53880,note_on,,1,0,9,,,,,,,,,,,,,,,,11,,76,72
53940,note_on,,361,0,6,,,,,,,,,,,,,,,,3,,76,72
53999,note_on,,119,0,9,,,,,,,,,,,,,,,,11,,76,0
53999,note_on,,119,0,11,,,,,,,,,,,,,,,,13,,61,0
53999,note_on,,119,0,8,,,,,,,,,,,,,,,,10,,81,0
53999,note_on,,119,0,10,,,,,,,,,,,,,,,,12,,64,0
53999,note_on,,119,0,5,,,,,,,,,,,,,,,,2,,61,0
53999,note_on,,0,0,12,,,,,,,,,,,,,,,,15,,64,0
53999,note_on,,119,0,12,,,,,,,,,,,,,,,,15,,69,0
53999,note_on,,59,0,6,,,,,,,,,,,,,,,,3,,76,0
53999,note_on,,0,0,12,,,,,,,,,,,,,,,,15,,61,0
53999,note_on,,0,0,12,,,,,,,,,,,,,,,,15,,73,0
54000,note_on,,0,0,12,,,,,,,,,,,,,,,,15,,57,72
54000,note_on,,1,0,5,,,,,,,,,,,,,,,,2,,57,72
54000,note_on,,1,0,6,,,,,,,,,,,,,,,,3,,74,72
54000,note_on,,1,0,12,,,,,,,,,,,,,,,,15,,76,72
54000,note_on,,1,0,11,,,,,,,,,,,,,,,,13,,57,72
54000,note_on,,0,0,12,,,,,,,,,,,,,,,,15,,61,72
54000,note_on,,0,0,12,,,,,,,,,,,,,,,,15,,73,72
54000,note_on,,0,0,12,,,,,,,,,,,,,,,,15,,69,72
54059,note_on,,59,0,6,,,,,,,,,,,,,,,,3,,74,0
54060,note_on,,1,0,6,,,,,,,,,,,,,,,,3,,76,72
54119,note_on,,0,0,12,,,,,,,,,,,,,,,,15,,61,0
54119,note_on,,119,0,5,,,,,,,,,,,,,,,,2,,57,0
54119,note_on,,0,0,12,,,,,,,,,,,,,,,,15,,57,0
54119,note_on,,119,0,12,,,,,,,,,,,,,,,,15,,76,0
54119,note_on,,0,0,12,,,,,,,,,,,,,,,,15,,69,0
54119,note_on,,0,0,12,,,,,,,,,,,,,,,,15,,73,0
54119,note_on,,119,0,11,,,,,,,,,,,,,,,,13,,57,0
54119,note_on,,59,0,6,,,,,,,,,,,,,,,,3,,76,0
54120,note_on,,1,0,6,,,,,,,,,,,,,,,,3,,78,72
54179,note_on,,59,0,6,,,,,,,,,,,,,,,,3,,78,0
54180,note_on,,1,0,6,,,,,,,,,,,,,,,,3,,79,72
54239,note_on,,59,0,6,,,,,,,,,,,,,,,,3,,79,0
54240,note_on,,1,0,6,,,,,,,,,,,,,,,,3,,81,72
54300,note_on,,181,0,11,,,,,,,,,,,,,,,,13,,61,72
54300,note_on,,181,0,5,,,,,,,,,,,,,,,,2,,61,72
54300,note_on,,0,0,12,,,,,,,,,,,,,,,,15,,64,72
54300,note_on,,301,0,8,,,,,,,,,,,,,,,,10,,76,72
54300,note_on,,181,0,12,,,,,,,,,,,,,,,,15,,69,72
54300,note_on,,301,0,9,,,,,,,,,,,,,,,,11,,69,72
54300,note_on,,0,0,12,,,,,,,,,,,,,,,,15,,61,72
54300,note_on,,301,0,10,,,,,,,,,,,,,,,,12,,61,72
54359,note_on,,59,0,12,,,,,,,,,,,,,,,,15,,61,0
54359,note_on,,59,0,10,,,,,,,,,,,,,,,,12,,61,0
54359,note_on,,0,0,12,,,,,,,,,,,,,,,,15,,64,0
54359,note_on,,59,0,8,,,,,,,,,,,,,,,,10,,76,0
54359,note_on,,59,0,9,,,,,,,,,,,,,,,,11,,69,0
54359,note_on,,59,0,5,,,,,,,,,,,,,,,,2,,61,0
54359,note_on,,59,0,11,,,,,,,,,,,,,,,,13,,61,0
54360,note_on,,1,0,12,,,,,,,,,,,,,,,,15,,62,72
54360,note_on,,1,0,9,,,,,,,,,,,,,,,,11,,71,72
54360,note_on,,1,0,5,,,,,,,,,,,,,,,,2,,59,72
54360,note_on,,1,0,10,,,,,,,,,,,,,,,,12,,62,72
54360,note_on,,0,0,12,,,,,,,,,,,,,,,,15,,59,72
54360,note_on,,1,0,11,,,,,,,,,,,,,,,,13,,59,72
54360,note_on,,1,0,8,,,,,,,,,,,,,,,,10,,74,72
54419,note_on,,59,0,8,,,,,,,,,,,,,,,,10,,74,0
54419,note_on,,59,0,12,,,,,,,,,,,,,,,,15,,62,0
54419,note_on,,0,0,12,,,,,,,,,,,,,,,,15,,59,0
54419,note_on,,59,0,10,,,,,,,,,,,,,,,,12,,62,0
54419,note_on,,59,0,5,,,,,,,,,,,,,,,,2,,59,0
54419,note_on,,59,0,9,,,,,,,,,,,,,,,,11,,71,0
54419,note_on,,59,0,11,,,,,,,,,,,,,,,,13,,59,0
54420,note_on,,1,0,11,,,,,,,,,,,,,,,,13,,61,72
54420,note_on,,0,0,12,,,,,,,,,,,,,,,,15,,64,72
54420,note_on,,1,0,12,,,,,,,,,,,,,,,,15,,61,72
54420,note_on,,1,0,5,,,,,,,,,,,,,,,,2,,61,72
54420,note_on,,1,0,9,,,,,,,,,,,,,,,,11,,69,72
54420,note_on,,1,0,8,,,,,,,,,,,,,,,,10,,76,72
54420,note_on,,1,0,10,,,,,,,,,,,,,,,,12,,61,72
54479,note_on,,59,0,9,,,,,,,,,,,,,,,,11,,69,0
54479,note_on,,59,0,10,,,,,,,,,,,,,,,,12,,61,0
54479,note_on,,0,0,12,,,,,,,,,,,,,,,,15,,64,0
54479,note_on,,59,0,8,,,,,,,,,,,,,,,,10,,76,0
54479,note_on,,59,0,5,,,,,,,,,,,,,,,,2,,61,0
54479,note_on,,59,0,11,,,,,,,,,,,,,,,,13,,61,0
54479,note_on,,59,0,12,,,,,,,,,,,,,,,,15,,61,0
54480,note_on,,1,0,10,,,,,,,,,,,,,,,,12,,62,72
54480,note_on,,1,0,5,,,,,,,,,,,,,,,,2,,62,72
54480,note_on,,1,0,11,,,,,,,,,,,,,,,,13,,62,72
54480,note_on,,1,0,12,,,,,,,,,,,,,,,,15,,66,72
54480,note_on,,0,0,12,,,,,,,,,,,,,,,,15,,62,72
54480,note_on,,1,0,9,,,,,,,,,,,,,,,,11,,69,72
54480,note_on,,1,0,8,,,,,,,,,,,,,,,,10,,78,72
54539,note_on,,59,0,8,,,,,,,,,,,,,,,,10,,78,0
54540,note_on,,1,0,8,,,,,,,,,,,,,,,,10,,79,72
54599,note_on,,119,0,5,,,,,,,,,,,,,,,,2,,62,0
54599,note_on,,119,0,10,,,,,,,,,,,,,,,,12,,62,0
54599,note_on,,119,0,12,,,,,,,,,,,,,,,,15,,69,0
54599,note_on,,119,0,11,,,,,,,,,,,,,,,,13,,62,0
54599,note_on,,0,0,12,,,,,,,,,,,,,,,,15,,62,0
54599,note_on,,0,0,12,,,,,,,,,,,,,,,,15,,66,0
54599,note_on,,59,0,8,,,,,,,,,,,,,,,,10,,79,0
54600,note_on,,0,0,12,,,,,,,,,,,,,,,,15,,61,72
54600,note_on,,1,0,10,,,,,,,,,,,,,,,,12,,64,72
54600,note_on,,0,0,12,,,,,,,,,,,,,,,,15,,73,72
54600,note_on,,0,0,12,,,,,,,,,,,,,,,,15,,64,72
54600,note_on,,1,0,12,,,,,,,,,,,,,,,,15,,69,72
54600,note_on,,1,0,11,,,,,,,,,,,,,,,,13,,61,72
54600,note_on,,1,0,8,,,,,,,,,,,,,,,,10,,81,72
54600,note_on,,1,0,5,,,,,,,,,,,,,,,,2,,61,72
54659,note_on,,179,0,9,,,,,,,,,,,,,,,,11,,69,0
54659,note_on,,59,0,8,,,,,,,,,,,,,,,,10,,81,0
54659,note_on,,419,0,6,,,,,,,,,,,,,,,,3,,81,0
54660,note_on,,1,0,6,,,,,,,,,,,,,,,,3,,76,72
54660,note_on,,1,0,9,,,,,,,,,,,,,,,,11,,69,72
54660,note_on,,1,0,8,,,,,,,,,,,,,,,,10,,76,72
54719,note_on,,59,0,6,,,,,,,,,,,,,,,,3,,76,0
54719,note_on,,59,0,9,,,,,,,,,,,,,,,,11,,69,0
54719,note_on,,119,0,5,,,,,,,,,,,,,,,,2,,61,0
54719,note_on,,59,0,8,,,,,,,,,,,,,,,,10,,76,0
54719,note_on,,119,0,10,,,,,,,,,,,,,,,,12,,64,0
54719,note_on,,119,0,12,,,,,,,,,,,,,,,,15,,69,0
54719,note_on,,0,0,12,,,,,,,,,,,,,,,,15,,61,0
54719,note_on,,0,0,12,,,,,,,,,,,,,,,,15,,73,0
54719,note_on,,0,0,12,,,,,,,,,,,,,,,,15,,64,0
54719,note_on,,119,0,11,,,,,,,,,,,,,,,,13,,61,0
54720,note_on,,0,0,12,,,,,,,,,,,,,,,,15,,57,72
54720,note_on,,1,0,5,,,,,,,,,,,,,,,,2,,57,72
54720,note_on,,0,0,12,,,,,,,,,,,,,,,,15,,61,72
54720,note_on,,0,0,12,,,,,,,,,,,,,,,,15,,73,72
54720,note_on,,0,0,12,,,,,,,,,,,,,,,,15,,76,72
54720,note_on,,1,0,12,,,,,,,,,,,,,,,,15,,69,72
54720,note_on,,1,0,9,,,,,,,,,,,,,,,,11,,71,72
54720,note_on,,1,0,10,,,,,,,,,,,,,,,,12,,69,72
54720,note_on,,1,0,6,,,,,,,,,,,,,,,,3,,74,72
54720,note_on,,1,0,8,,,,,,,,,,,,,,,,10,,74,72
54720,note_on,,1,0,11,,,,,,,,,,,,,,,,13,,57,72
54779,note_on,,59,0,9,,,,,,,,,,,,,,,,11,,71,0
54779,note_on,,59,0,6,,,,,,,,,,,,,,,,3,,74,0
54779,note_on,,59,0,8,,,,,,,,,,,,,,,,10,,74,0
54780,note_on,,1,0,8,,,,,,,,,,,,,,,,10,,76,72
54780,note_on,,1,0,9,,,,,,,,,,,,,,,,11,,73,72
54780,note_on,,1,0,6,,,,,,,,,,,,,,,,3,,76,72
54839,note_on,,119,0,12,,,,,,,,,,,,,,,,15,,69,0
54839,note_on,,119,0,5,,,,,,,,,,,,,,,,2,,57,0
54839,note_on,,59,0,8,,,,,,,,,,,,,,,,10,,76,0
54839,note_on,,0,0,12,,,,,,,,,,,,,,,,15,,57,0
54839,note_on,,0,0,12,,,,,,,,,,,,,,,,15,,76,0
54839,note_on,,59,0,6,,,,,,,,,,,,,,,,3,,76,0
54839,note_on,,119,0,11,,,,,,,,,,,,,,,,13,,57,0
54839,note_on,,119,0,10,,,,,,,,,,,,,,,,12,,69,0
54839,note_on,,59,0,9,,,,,,,,,,,,,,,,11,,73,0
54839,note_on,,0,0,12,,,,,,,,,,,,,,,,15,,61,0
54839,note_on,,0,0,12,,,,,,,,,,,,,,,,15,,73,0
54840,note_on,,1,0,12,,,,,,,,,,,,,,,,15,,74,72
54840,note_on,,0,0,12,,,,,,,,,,,,,,,,15,,66,72
54840,note_on,,0,0,12,,,,,,,,,,,,,,,,15,,69,72
54840,note_on,,1,0,6,,,,,,,,,,,,,,,,3,,78,72
54840,note_on,,1,0,11,,,,,,,,,,,,,,,,13,,62,72
54840,note_on,,1,0,10,,,,,,,,,,,,,,,,12,,69,72
54840,note_on,,1,0,8,,,,,,,,,,,,,,,,10,,78,72
54840,note_on,,0,0,12,,,,,,,,,,,,,,,,15,,62,72
54840,note_on,,1,0,9,,,,,,,,,,,,,,,,11,,69,72
54840,note_on,,1,0,5,,,,,,,,,,,,,,,,2,,62,72
54899,note_on,,59,0,10,,,,,,,,,,,,,,,,12,,69,0
54899,note_on,,59,0,8,,,,,,,,,,,,,,,,10,,78,0
54899,note_on,,59,0,6,,,,,,,,,,,,,,,,3,,78,0
54900,note_on,,1,0,8,,,,,,,,,,,,,,,,10,,74,72
54900,note_on,,1,0,6,,,,,,,,,,,,,,,,3,,74,72
54900,note_on,,1,0,10,,,,,,,,,,,,,,,,12,,66,72
54959,note_on,,0,0,12,,,,,,,,,,,,,,,,15,,62,0
54959,note_on,,119,0,5,,,,,,,,,,,,,,,,2,,62,0
54959,note_on,,59,0,10,,,,,,,,,,,,,,,,12,,66,0
54959,note_on,,119,0,9,,,,,,,,,,,,,,,,11,,69,0
54959,note_on,,119,0,11,,,,,,,,,,,,,,,,13,,62,0
54959,note_on,,59,0,6,,,,,,,,,,,,,,,,3,,74,0
54959,note_on,,119,0,12,,,,,,,,,,,,,,,,15,,74,0
54959,note_on,,0,0,12,,,,,,,,,,,,,,,,15,,66,0
54959,note_on,,0,0,12,,,,,,,,,,,,,,,,15,,69,0
54959,note_on,,59,0,8,,,,,,,,,,,,,,,,10,,74,0
54960,note_on,,1,0,10,,,,,,,,,,,,,,,,12,,67,72
54960,note_on,,1,0,6,,,,,,,,,,,,,,,,3,,79,72
54960,note_on,,0,0,12,,,,,,,,,,,,,,,,15,,67,72
54960,note_on,,1,0,9,,,,,,,,,,,,,,,,11,,74,72
54960,note_on,,0,0,12,,,,,,,,,,,,,,,,15,,74,72
54960,note_on,,0,0,12,,,,,,,,,,,,,,,,15,,59,72
54960,note_on,,1,0,8,,,,,,,,,,,,,,,,10,,79,72
54960,note_on,,1,0,11,,,,,,,,,,,,,,,,13,,59,72
54960,note_on,,1,0,12,,,,,,,,,,,,,,,,15,,79,72
54960,note_on,,1,0,5,,,,,,,,,,,,,,,,2,,59,72
54960,note_on,,0,0,12,,,,,,,,,,,,,,,,15,,62,72
55079,note_on,,119,0,9,,,,,,,,,,,,,,,,11,,74,0
55079,note_on,,119,0,6,,,,,,,,,,,,,,,,3,,79,0
55079,note_on,,119,0,8,,,,,,,,,,,,,,,,10,,79,0
55079,note_on,,119,0,5,,,,,,,,,,,,,,,,2,,59,0
55079,note_on,,0,0,12,,,,,,,,,,,,,,,,15,,67,0
55079,note_on,,0,0,12,,,,,,,,,,,,,,,,15,,74,0
55079,note_on,,0,0,12,,,,,,,,,,,,,,,,15,,62,0
55079,note_on,,0,0,12,,,,,,,,,,,,,,,,15,,59,0
55079,note_on,,119,0,12,,,,,,,,,,,,,,,,15,,79,0
55079,note_on,,119,0,10,,,,,,,,,,,,,,,,12,,67,0
55079,note_on,,119,0,11,,,,,,,,,,,,,,,,13,,59,0
55080,note_on,,1,0,10,,,,,,,,,,,,,,,,12,,67,72
55080,note_on,,1,0,8,,,,,,,,,,,,,,,,10,,79,72
55080,note_on,,1,0,9,,,,,,,,,,,,,,,,11,,71,72
55080,note_on,,1,0,6,,,,,,,,,,,,,,,,3,,79,72
55080,note_on,,1,0,11,,,,,,,,,,,,,,,,13,,64,72
55080,note_on,,0,0,12,,,,,,,,,,,,,,,,15,,76,72
55080,note_on,,0,0,12,,,,,,,,,,,,,,,,15,,67,72
55080,note_on,,1,0,5,,,,,,,,,,,,,,,,2,,64,72
55080,note_on,,1,0,12,,,,,,,,,,,,,,,,15,,64,72
55080,note_on,,0,0,12,,,,,,,,,,,,,,,,15,,71,72
55199,note_on,,119,0,6,,,,,,,,,,,,,,,,3,,79,0
55199,note_on,,119,0,11,,,,,,,,,,,,,,,,13,,64,0
55199,note_on,,119,0,5,,,,,,,,,,,,,,,,2,,64,0
55199,note_on,,119,0,10,,,,,,,,,,,,,,,,12,,67,0
55199,note_on,,0,0,12,,,,,,,,,,,,,,,,15,,76,0
55199,note_on,,0,0,12,,,,,,,,,,,,,,,,15,,67,0
55199,note_on,,0,0,12,,,,,,,,,,,,,,,,15,,71,0
55199,note_on,,119,0,12,,,,,,,,,,,,,,,,15,,64,0
55199,note_on,,119,0,9,,,,,,,,,,,,,,,,11,,71,0
55199,note_on,,119,0,8,,,,,,,,,,,,,,,,10,,79,0
55200,note_on,,1,0,8,,,,,,,,,,,,,,,,10,,79,72
55200,note_on,,1,0,5,,,,,,,,,,,,,,,,2,,57,72
55200,note_on,,0,0,12,,,,,,,,,,,,,,,,15,,64,72
55200,note_on,,1,0,10,,,,,,,,,,,,,,,,12,,64,72
55200,note_on,,1,0,12,,,,,,,,,,,,,,,,15,,73,72
55200,note_on,,0,0,12,,,,,,,,,,,,,,,,15,,57,72
55200,note_on,,0,0,12,,,,,,,,,,,,,,,,15,,69,72
55200,note_on,,1,0,6,,,,,,,,,,,,,,,,3,,79,72
55200,note_on,,1,0,11,,,,,,,,,,,,,,,,13,,57,72
55200,note_on,,1,0,9,,,,,,,,,,,,,,,,11,,73,72
55379,note_on,,179,0,11,,,,,,,,,,,,,,,,13,,57,0
55379,note_on,,179,0,5,,,,,,,,,,,,,,,,2,,57,0
55379,note_on,,179,0,6,,,,,,,,,,,,,,,,3,,79,0
55379,note_on,,0,0,12,,,,,,,,,,,,,,,,15,,69,0
55379,note_on,,179,0,8,,,,,,,,,,,,,,,,10,,79,0
55379,note_on,,0,0,12,,,,,,,,,,,,,,,,15,,64,0
55379,note_on,,179,0,12,,,,,,,,,,,,,,,,15,,73,0
55379,note_on,,0,0,12,,,,,,,,,,,,,,,,15,,57,0
55379,note_on,,179,0,9,,,,,,,,,,,,,,,,11,,73,0
55379,note_on,,179,0,10,,,,,,,,,,,,,,,,12,,64,0
55380,note_on,,1,0,9,,,,,,,,,,,,,,,,11,,76,72
55380,note_on,,0,0,12,,,,,,,,,,,,,,,,15,,69,72
55380,note_on,,1,0,11,,,,,,,,,,,,,,,,13,,61,72
55380,note_on,,1,0,5,,,,,,,,,,,,,,,,2,,61,72
55380,note_on,,1,0,12,,,,,,,,,,,,,,,,15,,64,72
55380,note_on,,0,0,12,,,,,,,,,,,,,,,,15,,61,72
55380,note_on,,0,0,12,,,,,,,,,,,,,,,,15,,76,72
55380,note_on,,1,0,6,,,,,,,,,,,,,,,,3,,81,72
55380,note_on,,1,0,8,,,,,,,,,,,,,,,,10,,81,72
55380,note_on,,1,0,10,,,,,,,,,,,,,,,,12,,69,72
55439,note_on,,59,0,12,,,,,,,,,,,,,,,,15,,64,0
55439,note_on,,0,0,12,,,,,,,,,,,,,,,,15,,61,0
55439,note_on,,59,0,10,,,,,,,,,,,,,,,,12,,69,0
55439,note_on,,59,0,8,,,,,,,,,,,,,,,,10,,81,0
55439,note_on,,59,0,9,,,,,,,,,,,,,,,,11,,76,0
55439,note_on,,0,0,12,,,,,,,,,,,,,,,,15,,69,0
55439,note_on,,0,0,12,,,,,,,,,,,,,,,,15,,76,0
55439,note_on,,59,0,11,,,,,,,,,,,,,,,,13,,61,0
55439,note_on,,59,0,5,,,,,,,,,,,,,,,,2,,61,0
55439,note_on,,59,0,6,,,,,,,,,,,,,,,,3,,81,0
55440,note_on,,1,0,6,,,,,,,,,,,,,,,,3,,78,72
55440,note_on,,1,0,8,,,,,,,,,,,,,,,,10,,78,72
55440,note_on,,1,0,9,,,,,,,,,,,,,,,,11,,74,72
55440,note_on,,1,0,5,,,,,,,,,,,,,,,,2,,62,72
55440,note_on,,1,0,10,,,,,,,,,,,,,,,,12,,69,72
55440,note_on,,0,0,12,,,,,,,,,,,,,,,,15,,69,72
55440,note_on,,0,0,12,,,,,,,,,,,,,,,,15,,62,72
55440,note_on,,1,0,12,,,,,,,,,,,,,,,,15,,66,72
55440,note_on,,1,0,11,,,,,,,,,,,,,,,,13,,62,72
55499,note_on,,59,0,6,,,,,,,,,,,,,,,,3,,78,0
55499,note_on,,59,0,8,,,,,,,,,,,,,,,,10,,78,0
55499,note_on,,59,0,9,,,,,,,,,,,,,,,,11,,74,0
55500,note_on,,1,0,6,,,,,,,,,,,,,,,,3,,76,72
55500,note_on,,1,0,8,,,,,,,,,,,,,,,,10,,76,72
55500,note_on,,1,0,9,,,,,,,,,,,,,,,,11,,73,72
55559,note_on,,119,0,5,,,,,,,,,,,,,,,,2,,62,0
55559,note_on,,119,0,10,,,,,,,,,,,,,,,,12,,69,0
55559,note_on,,0,0,12,,,,,,,,,,,,,,,,15,,69,0
55559,note_on,,59,0,9,,,,,,,,,,,,,,,,11,,73,0
55559,note_on,,59,0,8,,,,,,,,,,,,,,,,10,,76,0
55559,note_on,,119,0,12,,,,,,,,,,,,,,,,15,,66,0
55559,note_on,,59,0,6,,,,,,,,,,,,,,,,3,,76,0
55559,note_on,,119,0,11,,,,,,,,,,,,,,,,13,,62,0
55559,note_on,,0,0,12,,,,,,,,,,,,,,,,15,,62,0
55560,note_on,,0,0,12,,,,,,,,,,,,,,,,15,,71,72
55560,note_on,,0,0,12,,,,,,,,,,,,,,,,15,,66,72
55560,note_on,,1,0,12,,,,,,,,,,,,,,,,15,,55,72
55560,note_on,,1,0,8,,,,,,,,,,,,,,,,10,,78,72
55560,note_on,,1,0,5,,,,,,,,,,,,,,,,2,,55,72
55560,note_on,,1,0,6,,,,,,,,,,,,,,,,3,,78,72
55560,note_on,,1,0,11,,,,,,,,,,,,,,,,13,,55,72
55560,note_on,,1,0,9,,,,,,,,,,,,,,,,11,,74,72
55560,note_on,,0,0,12,,,,,,,,,,,,,,,,15,,74,72
55619,note_on,,59,0,9,,,,,,,,,,,,,,,,11,,74,0
55619,note_on,,59,0,12,,,,,,,,,,,,,,,,15,,66,0
55619,note_on,,59,0,6,,,,,,,,,,,,,,,,3,,78,0
55619,note_on,,59,0,8,,,,,,,,,,,,,,,,10,,78,0
55620,note_on,,1,0,12,,,,,,,,,,,,,,,,15,,64,72
55620,note_on,,61,0,10,,,,,,,,,,,,,,,,12,,64,72
55620,note_on,,1,0,6,,,,,,,,,,,,,,,,3,,79,72
55620,note_on,,1,0,8,,,,,,,,,,,,,,,,10,,79,72
55620,note_on,,1,0,9,,,,,,,,,,,,,,,,11,,71,72
55679,note_on,,59,0,10,,,,,,,,,,,,,,,,12,,64,0
55679,note_on,,119,0,11,,,,,,,,,,,,,,,,13,,55,0
55679,note_on,,119,0,5,,,,,,,,,,,,,,,,2,,55,0
55679,note_on,,59,0,6,,,,,,,,,,,,,,,,3,,79,0
55679,note_on,,59,0,8,,,,,,,,,,,,,,,,10,,79,0
55679,note_on,,0,0,12,,,,,,,,,,,,,,,,15,,64,0
55679,note_on,,0,0,12,,,,,,,,,,,,,,,,15,,71,0
55679,note_on,,59,0,9,,,,,,,,,,,,,,,,11,,71,0
55679,note_on,,59,0,12,,,,,,,,,,,,,,,,15,,55,0
55679,note_on,,0,0,12,,,,,,,,,,,,,,,,15,,74,0
55680,note_on,,0,0,12,,,,,,,,,,,,,,,,15,,69,72
55680,note_on,,0,0,12,,,,,,,,,,,,,,,,15,,64,72
55680,note_on,,1,0,12,,,,,,,,,,,,,,,,15,,57,72
55680,note_on,,1,0,9,,,,,,,,,,,,,,,,11,,73,72
55680,note_on,,1,0,8,,,,,,,,,,,,,,,,10,,76,72
55680,note_on,,1,0,6,,,,,,,,,,,,,,,,3,,76,72
55680,note_on,,1,0,5,,,,,,,,,,,,,,,,2,,57,72
55680,note_on,,1,0,11,,,,,,,,,,,,,,,,13,,57,72
55680,note_on,,1,0,10,,,,,,,,,,,,,,,,12,,57,72
55680,note_on,,0,0,12,,,,,,,,,,,,,,,,15,,73,72
55694,note_on,,14,0,8,,,,,,,,,,,,,,,,10,,76,0
55694,note_on,,14,0,6,,,,,,,,,,,,,,,,3,,76,0
55695,note_on,,1,0,8,,,,,,,,,,,,,,,,10,,78,72
55695,note_on,,1,0,6,,,,,,,,,,,,,,,,3,,78,72
55709,note_on,,14,0,8,,,,,,,,,,,,,,,,10,,78,0
55709,note_on,,14,0,6,,,,,,,,,,,,,,,,3,,78,0
55710,note_on,,1,0,8,,,,,,,,,,,,,,,,10,,76,72
55710,note_on,,1,0,6,,,,,,,,,,,,,,,,3,,76,72
55724,note_on,,14,0,8,,,,,,,,,,,,,,,,10,,76,0
55724,note_on,,14,0,6,,,,,,,,,,,,,,,,3,,76,0
55725,note_on,,1,0,8,,,,,,,,,,,,,,,,10,,78,72
55725,note_on,,1,0,6,,,,,,,,,,,,,,,,3,,78,72
55739,note_on,,14,0,8,,,,,,,,,,,,,,,,10,,78,0
55739,note_on,,14,0,6,,,,,,,,,,,,,,,,3,,78,0
55740,note_on,,1,0,6,,,,,,,,,,,,,,,,3,,76,72
55740,note_on,,1,0,8,,,,,,,,,,,,,,,,10,,76,72
55754,note_on,,14,0,8,,,,,,,,,,,,,,,,10,,76,0
55754,note_on,,14,0,6,,,,,,,,,,,,,,,,3,,76,0
55755,note_on,,1,0,6,,,,,,,,,,,,,,,,3,,78,72
55755,note_on,,1,0,8,,,,,,,,,,,,,,,,10,,78,72
55769,note_on,,14,0,6,,,,,,,,,,,,,,,,3,,78,0
55769,note_on,,14,0,8,,,,,,,,,,,,,,,,10,,78,0
55770,note_on,,1,0,6,,,,,,,,,,,,,,,,3,,76,72
55770,note_on,,1,0,8,,,,,,,,,,,,,,,,10,,76,72
55784,note_on,,14,0,6,,,,,,,,,,,,,,,,3,,76,0
55784,note_on,,14,0,8,,,,,,,,,,,,,,,,10,,76,0
55785,note_on,,1,0,6,,,,,,,,,,,,,,,,3,,78,72
55785,note_on,,1,0,8,,,,,,,,,,,,,,,,10,,78,72
55799,note_on,,119,0,12,,,,,,,,,,,,,,,,15,,57,0
55799,note_on,,119,0,10,,,,,,,,,,,,,,,,12,,57,0
55799,note_on,,14,0,8,,,,,,,,,,,,,,,,10,,78,0
55799,note_on,,119,0,5,,,,,,,,,,,,,,,,2,,57,0
55799,note_on,,14,0,6,,,,,,,,,,,,,,,,3,,78,0
55799,note_on,,119,0,11,,,,,,,,,,,,,,,,13,,57,0
55800,note_on,,1,0,8,,,,,,,,,,,,,,,,10,,76,72
55800,note_on,,1,0,11,,,,,,,,,,,,,,,,13,,45,72
55800,note_on,,0,0,12,,,,,,,,,,,,,,,,15,,57,72
55800,note_on,,1,0,12,,,,,,,,,,,,,,,,15,,45,72
55800,note_on,,1,0,6,,,,,,,,,,,,,,,,3,,76,72
55800,note_on,,1,0,10,,,,,,,,,,,,,,,,12,,69,72
55800,note_on,,1,0,5,,,,,,,,,,,,,,,,2,,45,72
55814,note_on,,14,0,6,,,,,,,,,,,,,,,,3,,76,0
55814,note_on,,14,0,8,,,,,,,,,,,,,,,,10,,76,0
55815,note_on,,1,0,8,,,,,,,,,,,,,,,,10,,78,72
55815,note_on,,1,0,6,,,,,,,,,,,,,,,,3,,78,72
55829,note_on,,14,0,6,,,,,,,,,,,,,,,,3,,78,0
55829,note_on,,14,0,8,,,,,,,,,,,,,,,,10,,78,0
55830,note_on,,1,0,8,,,,,,,,,,,,,,,,10,,74,72
55830,note_on,,1,0,6,,,,,,,,,,,,,,,,3,,74,72
55844,note_on,,14,0,8,,,,,,,,,,,,,,,,10,,74,0
55844,note_on,,14,0,6,,,,,,,,,,,,,,,,3,,74,0
55845,note_on,,1,0,8,,,,,,,,,,,,,,,,10,,76,72
55845,note_on,,1,0,6,,,,,,,,,,,,,,,,3,,76,72
55859,note_on,,14,0,8,,,,,,,,,,,,,,,,10,,76,0
55859,note_on,,14,0,6,,,,,,,,,,,,,,,,3,,76,0
55859,note_on,,179,0,9,,,,,,,,,,,,,,,,11,,73,0
55860,note_on,,1,0,8,,,,,,,,,,,,,,,,10,,74,72
55860,note_on,,1,0,6,,,,,,,,,,,,,,,,3,,74,72
55860,note_on,,1,0,9,,,,,,,,,,,,,,,,11,,74,72
55919,note_on,,119,0,5,,,,,,,,,,,,,,,,2,,45,0
55919,note_on,,59,0,9,,,,,,,,,,,,,,,,11,,74,0
55919,note_on,,119,0,10,,,,,,,,,,,,,,,,12,,69,0
55919,note_on,,119,0,11,,,,,,,,,,,,,,,,13,,45,0
55919,note_on,,119,0,12,,,,,,,,,,,,,,,,15,,64,0
55919,note_on,,0,0,12,,,,,,,,,,,,,,,,15,,69,0
55919,note_on,,0,0,12,,,,,,,,,,,,,,,,15,,73,0
55919,note_on,,0,0,12,,,,,,,,,,,,,,,,15,,45,0
55919,note_on,,59,0,6,,,,,,,,,,,,,,,,3,,74,0
55919,note_on,,59,0,8,,,,,,,,,,,,,,,,10,,74,0
55919,note_on,,0,0,12,,,,,,,,,,,,,,,,15,,57,0
55920,note_on,,1,0,12,,,,,,,,,,,,,,,,15,,69,72
55920,note_on,,1,0,5,,,,,,,,,,,,,,,,2,,50,72
55920,note_on,,1,0,6,,,,,,,,,,,,,,,,3,,74,72
55920,note_on,,1,0,9,,,,,,,,,,,,,,,,11,,74,72
55920,note_on,,1,0,11,,,,,,,,,,,,,,,,13,,50,72
55920,note_on,,0,0,12,,,,,,,,,,,,,,,,15,,74,72
55920,note_on,,1,0,10,,,,,,,,,,,,,,,,12,,66,72
55920,note_on,,0,0,12,,,,,,,,,,,,,,,,15,,50,72
55920,note_on,,1,0,8,,,,,,,,,,,,,,,,10,,74,72
55920,note_on,,0,0,12,,,,,,,,,,,,,,,,15,,57,72
55920,note_on,,0,0,12,,,,,,,,,,,,,,,,15,,66,72
56040,set_tempo,,5640,1,0,,,,,,,,,1333333,,,,,,,,,,
56159,note_on,,239,0,6,,,,,,,,,,,,,,,,3,,74,0
56159,note_on,,239,0,9,,,,,,,,,,,,,,,,11,,74,0
56159,note_on,,239,0,11,,,,,,,,,,,,,,,,13,,50,0
56159,note_on,,239,0,5,,,,,,,,,,,,,,,,2,,50,0
56159,note_on,,239,0,10,,,,,,,,,,,,,,,,12,,66,0
56159,note_on,,239,0,8,,,,,,,,,,,,,,,,10,,74,0
56159,note_on,,0,0,12,,,,,,,,,,,,,,,,15,,66,0
56159,note_on,,0,0,12,,,,,,,,,,,,,,,,15,,57,0
56159,note_on,,0,0,12,,,,,,,,,,,,,,,,15,,74,0
56159,note_on,,0,0,12,,,,,,,,,,,,,,,,15,,50,0
56159,note_on,,239,0,12,,,,,,,,,,,,,,,,15,,69,0
56160,note_on,,5641,0,7,,,,,,,,,,,,,,,,8,,54,72
56160,set_tempo,,120,1,0,,,,,,,,,545454,,,,,,,,,,
56279,note_on,,119,0,7,,,,,,,,,,,,,,,,8,,54,0
56280,note_on,,1,0,7,,,,,,,,,,,,,,,,8,,59,72
56280,note_on,,121,0,5,,,,,,,,,,,,,,,,2,,47,48
56280,note_on,,121,0,12,,,,,,,,,,,,,,,,15,,62,48
56280,note_on,,0,0,12,,,,,,,,,,,,,,,,15,,59,48
56280,note_on,,121,0,11,,,,,,,,,,,,,,,,13,,47,48
56280,note_on,,0,0,12,,,,,,,,,,,,,,,,15,,47,48
56280,note_on,,0,0,12,,,,,,,,,,,,,,,,15,,54,48
56399,note_on,,0,0,12,,,,,,,,,,,,,,,,15,,47,0
56399,note_on,,119,0,11,,,,,,,,,,,,,,,,13,,47,0
56399,note_on,,119,0,12,,,,,,,,,,,,,,,,15,,62,0
56399,note_on,,119,0,5,,,,,,,,,,,,,,,,2,,47,0
56400,note_on,,1,0,12,,,,,,,,,,,,,,,,15,,50,48
56400,note_on,,0,0,12,,,,,,,,,,,,,,,,15,,66,48
56400,note_on,,1,0,5,,,,,,,,,,,,,,,,2,,50,48
56400,note_on,,1,0,11,,,,,,,,,,,,,,,,13,,50,48
56519,note_on,,239,0,7,,,,,,,,,,,,,,,,8,,59,0
56519,note_on,,0,0,12,,,,,,,,,,,,,,,,15,,50,0
56519,note_on,,0,0,12,,,,,,,,,,,,,,,,15,,66,0
56519,note_on,,119,0,12,,,,,,,,,,,,,,,,15,,54,0
56519,note_on,,119,0,5,,,,,,,,,,,,,,,,2,,50,0
56519,note_on,,119,0,11,,,,,,,,,,,,,,,,13,,50,0
56519,note_on,,0,0,12,,,,,,,,,,,,,,,,15,,59,0
56520,note_on,,1,0,7,,,,,,,,,,,,,,,,8,,61,72
56520,note_on,,1,0,12,,,,,,,,,,,,,,,,15,,59,48
56520,note_on,,1,0,5,,,,,,,,,,,,,,,,2,,52,48
56520,note_on,,0,0,12,,,,,,,,,,,,,,,,15,,64,48
56520,note_on,,1,0,11,,,,,,,,,,,,,,,,13,,52,48
56520,note_on,,0,0,12,,,,,,,,,,,,,,,,15,,67,48
56520,note_on,,0,0,12,,,,,,,,,,,,,,,,15,,52,48
56639,note_on,,119,0,12,,,,,,,,,,,,,,,,15,,59,0
56639,note_on,,0,0,12,,,,,,,,,,,,,,,,15,,64,0
56639,note_on,,0,0,12,,,,,,,,,,,,,,,,15,,67,0
56639,note_on,,0,0,12,,,,,,,,,,,,,,,,15,,52,0
56639,note_on,,119,0,7,,,,,,,,,,,,,,,,8,,61,0
56639,note_on,,119,0,11,,,,,,,,,,,,,,,,13,,52,0
56639,note_on,,119,0,5,,,,,,,,,,,,,,,,2,,52,0
56640,note_on,,1,0,11,,,,,,,,,,,,,,,,13,,54,48
56640,note_on,,1,0,5,,,,,,,,,,,,,,,,2,,54,48
56640,note_on,,0,0,12,,,,,,,,,,,,,,,,15,,61,48
56640,note_on,,0,0,12,,,,,,,,,,,,,,,,15,,58,48
56640,note_on,,1,0,12,,,,,,,,,,,,,,,,15,,54,48
56640,note_on,,1,0,7,,,,,,,,,,,,,,,,8,,58,72
56759,note_on,,0,0,12,,,,,,,,,,,,,,,,15,,58,0
56759,note_on,,119,0,12,,,,,,,,,,,,,,,,15,,61,0
56760,note_on,,1,0,12,,,,,,,,,,,,,,,,15,,59,48
56760,note_on,,0,0,12,,,,,,,,,,,,,,,,15,,62,48
56879,note_on,,119,0,12,,,,,,,,,,,,,,,,15,,54,0
56879,note_on,,0,0,12,,,,,,,,,,,,,,,,15,,59,0
56879,note_on,,239,0,5,,,,,,,,,,,,,,,,2,,54,0
56879,note_on,,0,0,12,,,,,,,,,,,,,,,,15,,62,0
56879,note_on,,239,0,7,,,,,,,,,,,,,,,,8,,58,0
56879,note_on,,239,0,11,,,,,,,,,,,,,,,,13,,54,0
56880,note_on,,1,0,11,,,,,,,,,,,,,,,,13,,52,48
56880,note_on,,0,0,12,,,,,,,,,,,,,,,,15,,61,48
56880,note_on,,0,0,12,,,,,,,,,,,,,,,,15,,52,48
56880,note_on,,1,0,12,,,,,,,,,,,,,,,,15,,64,48
56880,note_on,,1,0,5,,,,,,,,,,,,,,,,2,,52,48
56880,note_on,,1,0,7,,,,,,,,,,,,,,,,8,,56,72
56939,note_on,,59,0,7,,,,,,,,,,,,,,,,8,,56,0
56940,note_on,,1,0,7,,,,,,,,,,,,,,,,8,,54,72
56999,note_on,,59,0,7,,,,,,,,,,,,,,,,8,,54,0
56999,note_on,,119,0,11,,,,,,,,,,,,,,,,13,,52,0
56999,note_on,,119,0,12,,,,,,,,,,,,,,,,15,,64,0
56999,note_on,,0,0,12,,,,,,,,,,,,,,,,15,,52,0
56999,note_on,,0,0,12,,,,,,,,,,,,,,,,15,,61,0
56999,note_on,,119,0,5,,,,,,,,,,,,,,,,2,,52,0
57000,note_on,,0,0,12,,,,,,,,,,,,,,,,15,,59,48
57000,note_on,,1,0,11,,,,,,,,,,,,,,,,13,,50,48
57000,note_on,,0,0,12,,,,,,,,,,,,,,,,15,,62,48
57000,note_on,,1,0,12,,,,,,,,,,,,,,,,15,,50,48
57000,note_on,,0,0,12,,,,,,,,,,,,,,,,15,,66,48
57000,note_on,,1,0,5,,,,,,,,,,,,,,,,2,,50,48
57000,note_on,,1,0,7,,,,,,,,,,,,,,,,8,,59,72
57119,note_on,,119,0,7,,,,,,,,,,,,,,,,8,,59,0
57119,note_on,,0,0,12,,,,,,,,,,,,,,,,15,,59,0
57119,note_on,,119,0,11,,,,,,,,,,,,,,,,13,,50,0
57119,note_on,,0,0,12,,,,,,,,,,,,,,,,15,,62,0
57119,note_on,,0,0,12,,,,,,,,,,,,,,,,15,,66,0
57119,note_on,,119,0,12,,,,,,,,,,,,,,,,15,,50,0
57119,note_on,,119,0,5,,,,,,,,,,,,,,,,2,,50,0
57120,note_on,,1,0,11,,,,,,,,,,,,,,,,13,,49,48
57120,note_on,,0,0,12,,,,,,,,,,,,,,,,15,,69,48
57120,note_on,,0,0,12,,,,,,,,,,,,,,,,15,,52,48
57120,note_on,,0,0,12,,,,,,,,,,,,,,,,15,,64,48
57120,note_on,,1,0,12,,,,,,,,,,,,,,,,15,,49,48
57120,note_on,,1,0,7,,,,,,,,,,,,,,,,8,,57,72
57120,note_on,,1,0,5,,,,,,,,,,,,,,,,2,,49,48
57239,note_on,,0,0,12,,,,,,,,,,,,,,,,15,,69,0
57239,note_on,,119,0,12,,,,,,,,,,,,,,,,15,,64,0
57240,note_on,,0,0,12,,,,,,,,,,,,,,,,15,,57,48
57240,note_on,,1,0,12,,,,,,,,,,,,,,,,15,,61,48
57299,note_on,,179,0,7,,,,,,,,,,,,,,,,8,,57,0
57300,note_on,,1,0,7,,,,,,,,,,,,,,,,8,,59,72
57359,note_on,,119,0,12,,,,,,,,,,,,,,,,15,,49,0
57359,note_on,,0,0,12,,,,,,,,,,,,,,,,15,,61,0
57359,note_on,,0,0,12,,,,,,,,,,,,,,,,15,,57,0
57359,note_on,,59,0,7,,,,,,,,,,,,,,,,8,,59,0
57359,note_on,,239,0,5,,,,,,,,,,,,,,,,2,,49,0
57359,note_on,,239,0,11,,,,,,,,,,,,,,,,13,,49,0
57359,note_on,,0,0,12,,,,,,,,,,,,,,,,15,,52,0
57360,note_on,,1,0,5,,,,,,,,,,,,,,,,2,,47,48
57360,note_on,,0,0,12,,,,,,,,,,,,,,,,15,,55,48
57360,note_on,,1,0,11,,,,,,,,,,,,,,,,13,,47,48
57360,note_on,,1,0,7,,,,,,,,,,,,,,,,8,,55,72
57360,note_on,,0,0,12,,,,,,,,,,,,,,,,15,,62,48
57360,note_on,,1,0,12,,,,,,,,,,,,,,,,15,,47,48
57360,note_on,,0,0,12,,,,,,,,,,,,,,,,15,,59,48
57479,note_on,,119,0,12,,,,,,,,,,,,,,,,15,,59,0
57479,note_on,,0,0,12,,,,,,,,,,,,,,,,15,,62,0
57480,note_on,,1,0,12,,,,,,,,,,,,,,,,15,,61,48
57480,note_on,,0,0,12,,,,,,,,,,,,,,,,15,,64,48
57599,note_on,,239,0,11,,,,,,,,,,,,,,,,13,,47,0
57599,note_on,,239,0,5,,,,,,,,,,,,,,,,2,,47,0
57599,note_on,,119,0,12,,,,,,,,,,,,,,,,15,,47,0
57599,note_on,,0,0,12,,,,,,,,,,,,,,,,15,,55,0
57599,note_on,,0,0,12,,,,,,,,,,,,,,,,15,,61,0
57599,note_on,,0,0,12,,,,,,,,,,,,,,,,15,,64,0
57599,note_on,,239,0,7,,,,,,,,,,,,,,,,8,,55,0
57600,note_on,,0,0,12,,,,,,,,,,,,,,,,15,,66,48
57600,note_on,,1,0,7,,,,,,,,,,,,,,,,8,,54,72
57600,note_on,,1,0,5,,,,,,,,,,,,,,,,2,,45,48
57600,note_on,,0,0,12,,,,,,,,,,,,,,,,15,,57,48
57600,note_on,,1,0,11,,,,,,,,,,,,,,,,13,,45,48
57600,note_on,,1,0,12,,,,,,,,,,,,,,,,15,,45,48
57600,note_on,,0,0,12,,,,,,,,,,,,,,,,15,,61,48
57719,note_on,,0,0,12,,,,,,,,,,,,,,,,15,,61,0
57719,note_on,,119,0,5,,,,,,,,,,,,,,,,2,,45,0
57719,note_on,,0,0,12,,,,,,,,,,,,,,,,15,,57,0
57719,note_on,,119,0,11,,,,,,,,,,,,,,,,13,,45,0
57719,note_on,,119,0,12,,,,,,,,,,,,,,,,15,,45,0
57720,note_on,,1,0,5,,,,,,,,,,,,,,,,2,,43,48
57720,note_on,,1,0,11,,,,,,,,,,,,,,,,13,,43,48
57720,note_on,,0,0,12,,,,,,,,,,,,,,,,15,,59,48
57720,note_on,,1,0,12,,,,,,,,,,,,,,,,15,,62,48
57720,note_on,,0,0,12,,,,,,,,,,,,,,,,15,,43,48
57779,note_on,,179,0,7,,,,,,,,,,,,,,,,8,,54,0
57780,note_on,,1,0,7,,,,,,,,,,,,,,,,8,,55,72
57839,note_on,,59,0,7,,,,,,,,,,,,,,,,8,,55,0
57839,note_on,,0,0,12,,,,,,,,,,,,,,,,15,,62,0
57839,note_on,,119,0,12,,,,,,,,,,,,,,,,15,,66,0
57839,note_on,,0,0,12,,,,,,,,,,,,,,,,15,,59,0
57840,note_on,,1,0,7,,,,,,,,,,,,,,,,8,,52,72
57840,note_on,,0,0,12,,,,,,,,,,,,,,,,15,,64,48
57840,note_on,,0,0,12,,,,,,,,,,,,,,,,15,,67,48
57840,note_on,,1,0,12,,,,,,,,,,,,,,,,15,,59,48
57959,note_on,,0,0,12,,,,,,,,,,,,,,,,15,,64,0
57959,note_on,,0,0,12,,,,,,,,,,,,,,,,15,,67,0
57959,note_on,,119,0,12,,,,,,,,,,,,,,,,15,,59,0
57960,note_on,,1,0,12,,,,,,,,,,,,,,,,15,,61,48
57960,note_on,,0,0,12,,,,,,,,,,,,,,,,15,,64,48
57960,note_on,,0,0,12,,,,,,,,,,,,,,,,15,,55,48
58079,note_on,,0,0,12,,,,,,,,,,,,,,,,15,,64,0
58079,note_on,,359,0,11,,,,,,,,,,,,,,,,13,,43,0
58079,note_on,,359,0,5,,,,,,,,,,,,,,,,2,,43,0
58079,note_on,,0,0,12,,,,,,,,,,,,,,,,15,,55,0
58079,note_on,,239,0,7,,,,,,,,,,,,,,,,8,,52,0
58079,note_on,,119,0,12,,,,,,,,,,,,,,,,15,,43,0
58079,note_on,,0,0,12,,,,,,,,,,,,,,,,15,,61,0
58080,note_on,,1,0,7,,,,,,,,,,,,,,,,8,,54,72
58080,note_on,,1,0,5,,,,,,,,,,,,,,,,2,,42,48
58080,note_on,,1,0,12,,,,,,,,,,,,,,,,15,,42,48
58080,note_on,,0,0,12,,,,,,,,,,,,,,,,15,,58,48
58080,note_on,,0,0,12,,,,,,,,,,,,,,,,15,,54,48
58080,note_on,,0,0,12,,,,,,,,,,,,,,,,15,,61,48
58080,note_on,,1,0,11,,,,,,,,,,,,,,,,13,,42,48
58199,note_on,,119,0,12,,,,,,,,,,,,,,,,15,,42,0
58199,note_on,,119,0,11,,,,,,,,,,,,,,,,13,,42,0
58199,note_on,,119,0,5,,,,,,,,,,,,,,,,2,,42,0
58199,note_on,,119,0,7,,,,,,,,,,,,,,,,8,,54,0
58200,note_on,,1,0,5,,,,,,,,,,,,,,,,2,,54,72
58200,note_on,,1,0,11,,,,,,,,,,,,,,,,13,,54,72
58200,note_on,,1,0,7,,,,,,,,,,,,,,,,8,,54,72
58319,note_on,,119,0,5,,,,,,,,,,,,,,,,2,,54,0
58319,note_on,,119,0,11,,,,,,,,,,,,,,,,13,,54,0
58319,note_on,,120,0,12,,,,,,,,,,,,,,,,15,,58,0
58319,note_on,,0,0,12,,,,,,,,,,,,,,,,15,,54,0
58319,note_on,,119,0,7,,,,,,,,,,,,,,,,8,,54,0
58320,note_on,,1,0,5,,,,,,,,,,,,,,,,2,,52,72
58320,note_on,,0,0,12,,,,,,,,,,,,,,,,15,,56,72
58320,note_on,,1,0,12,,,,,,,,,,,,,,,,15,,52,72
58320,note_on,,1,0,11,,,,,,,,,,,,,,,,13,,52,72
58379,note_on,,59,0,12,,,,,,,,,,,,,,,,15,,56,0
58380,note_on,,1,0,12,,,,,,,,,,,,,,,,15,,54,72
58439,note_on,,59,0,12,,,,,,,,,,,,,,,,15,,61,0
58439,note_on,,0,0,12,,,,,,,,,,,,,,,,15,,54,0
58439,note_on,,0,0,12,,,,,,,,,,,,,,,,15,,52,0
58439,note_on,,119,0,11,,,,,,,,,,,,,,,,13,,52,0
58439,note_on,,119,0,5,,,,,,,,,,,,,,,,2,,52,0
58440,note_on,,1,0,5,,,,,,,,,,,,,,,,2,,50,72
58440,note_on,,1,0,12,,,,,,,,,,,,,,,,15,,54,72
58440,note_on,,1,0,11,,,,,,,,,,,,,,,,13,,50,72
58440,note_on,,0,0,12,,,,,,,,,,,,,,,,15,,59,72
58440,note_on,,0,0,12,,,,,,,,,,,,,,,,15,,50,72
58559,note_on,,119,0,5,,,,,,,,,,,,,,,,2,,50,0
58559,note_on,,119,0,11,,,,,,,,,,,,,,,,13,,50,0
58559,note_on,,119,0,12,,,,,,,,,,,,,,,,15,,50,0
58560,note_on,,1,0,5,,,,,,,,,,,,,,,,2,,50,72
58560,note_on,,1,0,11,,,,,,,,,,,,,,,,13,,50,72
58560,note_on,,1,0,12,,,,,,,,,,,,,,,,15,,50,72
58619,note_on,,59,0,12,,,,,,,,,,,,,,,,15,,54,0
58620,note_on,,1,0,12,,,,,,,,,,,,,,,,15,,56,72
58679,note_on,,0,0,12,,,,,,,,,,,,,,,,15,,50,0
58679,note_on,,0,0,12,,,,,,,,,,,,,,,,15,,56,0
58679,note_on,,119,0,11,,,,,,,,,,,,,,,,13,,50,0
58679,note_on,,59,0,12,,,,,,,,,,,,,,,,15,,59,0
58679,note_on,,119,0,5,,,,,,,,,,,,,,,,2,,50,0
58680,note_on,,1,0,5,,,,,,,,,,,,,,,,2,,49,72
58680,note_on,,0,0,12,,,,,,,,,,,,,,,,15,,58,72
58680,note_on,,0,0,12,,,,,,,,,,,,,,,,15,,49,72
58680,note_on,,0,0,12,,,,,,,,,,,,,,,,15,,61,72
58680,note_on,,1,0,11,,,,,,,,,,,,,,,,13,,49,72
58680,note_on,,1,0,12,,,,,,,,,,,,,,,,15,,52,72
58799,note_on,,119,0,12,,,,,,,,,,,,,,,,15,,52,0
58799,note_on,,0,0,12,,,,,,,,,,,,,,,,15,,49,0
58799,note_on,,0,0,12,,,,,,,,,,,,,,,,15,,61,0
58799,note_on,,119,0,11,,,,,,,,,,,,,,,,13,,49,0
58799,note_on,,119,0,5,,,,,,,,,,,,,,,,2,,49,0
58799,note_on,,0,0,12,,,,,,,,,,,,,,,,15,,58,0
58800,note_on,,1,0,11,,,,,,,,,,,,,,,,13,,47,72
58800,note_on,,1,0,5,,,,,,,,,,,,,,,,2,,47,72
58800,note_on,,1,0,12,,,,,,,,,,,,,,,,15,,54,72
58800,note_on,,0,0,12,,,,,,,,,,,,,,,,15,,47,72
58800,note_on,,0,0,12,,,,,,,,,,,,,,,,15,,62,72
58800,note_on,,0,0,12,,,,,,,,,,,,,,,,15,,59,72
59039,note_on,,0,0,12,,,,,,,,,,,,,,,,15,,59,0
59039,note_on,,239,0,11,,,,,,,,,,,,,,,,13,,47,0
59039,note_on,,0,0,12,,,,,,,,,,,,,,,,15,,47,0
59039,note_on,,0,0,12,,,,,,,,,,,,,,,,15,,62,0
59039,note_on,,239,0,5,,,,,,,,,,,,,,,,2,,47,0
59039,note_on,,239,0,12,,,,,,,,,,,,,,,,15,,54,0
59040,note_on,,721,0,7,,,,,,,,,,,,,,,,8,,54,72
59159,note_on,,119,0,7,,,,,,,,,,,,,,,,8,,54,0
59160,note_on,,1,0,7,,,,,,,,,,,,,,,,8,,62,72
59280,note_on,,0,0,12,,,,,,,,,,,,,,,,15,,71,48
59280,note_on,,0,0,12,,,,,,,,,,,,,,,,15,,62,48
59280,note_on,,0,0,12,,,,,,,,,,,,,,,,15,,66,48
59280,note_on,,241,0,12,,,,,,,,,,,,,,,,15,,47,48
59280,note_on,,241,0,11,,,,,,,,,,,,,,,,13,,47,48
59280,note_on,,241,0,5,,,,,,,,,,,,,,,,2,,47,48
59399,note_on,,0,0,12,,,,,,,,,,,,,,,,15,,66,0
59399,note_on,,119,0,5,,,,,,,,,,,,,,,,2,,47,0
59399,note_on,,119,0,12,,,,,,,,,,,,,,,,15,,47,0
59399,note_on,,239,0,7,,,,,,,,,,,,,,,,8,,62,0
59399,note_on,,0,0,12,,,,,,,,,,,,,,,,15,,71,0
59399,note_on,,0,0,12,,,,,,,,,,,,,,,,15,,62,0
59399,note_on,,119,0,11,,,,,,,,,,,,,,,,13,,47,0
59400,note_on,,0,0,12,,,,,,,,,,,,,,,,15,,64,48
59400,note_on,,1,0,5,,,,,,,,,,,,,,,,2,,52,48
59400,note_on,,1,0,11,,,,,,,,,,,,,,,,13,,52,48
59400,note_on,,1,0,12,,,,,,,,,,,,,,,,15,,67,48
59400,note_on,,0,0,12,,,,,,,,,,,,,,,,15,,52,48
59400,note_on,,0,0,12,,,,,,,,,,,,,,,,15,,61,48
59400,note_on,,1,0,7,,,,,,,,,,,,,,,,8,,61,72
59519,note_on,,0,0,12,,,,,,,,,,,,,,,,15,,64,0
59519,note_on,,0,0,12,,,,,,,,,,,,,,,,15,,61,0
59519,note_on,,0,0,12,,,,,,,,,,,,,,,,15,,52,0
59519,note_on,,119,0,12,,,,,,,,,,,,,,,,15,,67,0
59519,note_on,,119,0,5,,,,,,,,,,,,,,,,2,,52,0
59519,note_on,,119,0,7,,,,,,,,,,,,,,,,8,,61,0
59519,note_on,,119,0,11,,,,,,,,,,,,,,,,13,,52,0
59520,note_on,,0,0,12,,,,,,,,,,,,,,,,15,,66,48
59520,note_on,,0,0,12,,,,,,,,,,,,,,,,15,,58,48
59520,note_on,,0,0,12,,,,,,,,,,,,,,,,15,,54,48
59520,note_on,,1,0,12,,,,,,,,,,,,,,,,15,,61,48
59520,note_on,,1,0,5,,,,,,,,,,,,,,,,2,,54,48
59520,note_on,,1,0,11,,,,,,,,,,,,,,,,13,,54,48
59520,note_on,,1,0,7,,,,,,,,,,,,,,,,8,,58,72
59759,note_on,,239,0,7,,,,,,,,,,,,,,,,8,,58,0
59759,note_on,,239,0,12,,,,,,,,,,,,,,,,15,,61,0
59759,note_on,,0,0,12,,,,,,,,,,,,,,,,15,,66,0
59759,note_on,,0,0,12,,,,,,,,,,,,,,,,15,,58,0
59760,note_on,,1,0,7,,,,,,,,,,,,,,,,8,,54,72
59819,note_on,,59,0,7,,,,,,,,,,,,,,,,8,,54,0
59820,note_on,,1,0,7,,,,,,,,,,,,,,,,8,,54,72
59879,note_on,,120,0,12,,,,,,,,,,,,,,,,15,,54,0
59879,note_on,,59,0,7,,,,,,,,,,,,,,,,8,,54,0
59879,note_on,,359,0,5,,,,,,,,,,,,,,,,2,,54,0
59879,note_on,,359,0,11,,,,,,,,,,,,,,,,13,,54,0
59880,note_on,,1,0,12,,,,,,,,,,,,,,,,15,,50,48
59880,note_on,,0,0,12,,,,,,,,,,,,,,,,15,,66,48
59880,note_on,,1,0,5,,,,,,,,,,,,,,,,2,,50,48
59880,note_on,,0,0,12,,,,,,,,,,,,,,,,15,,78,48
59880,note_on,,1,0,11,,,,,,,,,,,,,,,,13,,50,48
59880,note_on,,0,0,12,,,,,,,,,,,,,,,,15,,71,48
59880,note_on,,1,0,7,,,,,,,,,,,,,,,,8,,59,72
59999,note_on,,119,0,5,,,,,,,,,,,,,,,,2,,50,0
59999,note_on,,119,0,12,,,,,,,,,,,,,,,,15,,50,0
59999,note_on,,119,0,11,,,,,,,,,,,,,,,,13,,50,0
60000,note_on,,1,0,5,,,,,,,,,,,,,,,,2,,47,48
60000,note_on,,1,0,11,,,,,,,,,,,,,,,,13,,47,48
60000,note_on,,1,0,12,,,,,,,,,,,,,,,,15,,47,48
60119,note_on,,119,0,5,,,,,,,,,,,,,,,,2,,47,0
60119,note_on,,239,0,7,,,,,,,,,,,,,,,,8,,59,0
60119,note_on,,119,0,12,,,,,,,,,,,,,,,,15,,66,0
60119,note_on,,0,0,12,,,,,,,,,,,,,,,,15,,71,0
60119,note_on,,0,0,12,,,,,,,,,,,,,,,,15,,78,0
60119,note_on,,119,0,11,,,,,,,,,,,,,,,,13,,47,0
60119,note_on,,0,0,12,,,,,,,,,,,,,,,,15,,47,0
60120,note_on,,1,0,7,,,,,,,,,,,,,,,,8,,54,72
60120,note_on,,1,0,11,,,,,,,,,,,,,,,,13,,50,48
60120,note_on,,1,0,5,,,,,,,,,,,,,,,,2,,50,48
60120,note_on,,1,0,12,,,,,,,,,,,,,,,,15,,50,48
60239,note_on,,119,0,5,,,,,,,,,,,,,,,,2,,50,0
60239,note_on,,119,0,12,,,,,,,,,,,,,,,,15,,50,0
60239,note_on,,119,0,7,,,,,,,,,,,,,,,,8,,54,0
60239,note_on,,119,0,11,,,,,,,,,,,,,,,,13,,50,0
60240,note_on,,1,0,12,,,,,,,,,,,,,,,,15,,64,48
60240,note_on,,0,0,12,,,,,,,,,,,,,,,,15,,71,48
60240,note_on,,0,0,12,,,,,,,,,,,,,,,,15,,67,48
60240,note_on,,1,0,5,,,,,,,,,,,,,,,,2,,52,48
60240,note_on,,1,0,7,,,,,,,,,,,,,,,,8,,55,72
60240,note_on,,0,0,12,,,,,,,,,,,,,,,,15,,52,48
60240,note_on,,1,0,11,,,,,,,,,,,,,,,,13,,52,48
60359,note_on,,119,0,5,,,,,,,,,,,,,,,,2,,52,0
60359,note_on,,119,0,12,,,,,,,,,,,,,,,,15,,52,0
60359,note_on,,119,0,11,,,,,,,,,,,,,,,,13,,52,0
60360,note_on,,1,0,11,,,,,,,,,,,,,,,,13,,47,48
60360,note_on,,1,0,5,,,,,,,,,,,,,,,,2,,47,48
60360,note_on,,1,0,12,,,,,,,,,,,,,,,,15,,47,48
60479,note_on,,0,0,12,,,,,,,,,,,,,,,,15,,47,0
60479,note_on,,0,0,12,,,,,,,,,,,,,,,,15,,71,0
60479,note_on,,119,0,12,,,,,,,,,,,,,,,,15,,64,0
60479,note_on,,119,0,11,,,,,,,,,,,,,,,,13,,47,0
60479,note_on,,119,0,5,,,,,,,,,,,,,,,,2,,47,0
60479,note_on,,0,0,12,,,,,,,,,,,,,,,,15,,67,0
60480,note_on,,1,0,11,,,,,,,,,,,,,,,,13,,50,48
60480,note_on,,1,0,5,,,,,,,,,,,,,,,,2,,50,48
60480,note_on,,1,0,12,,,,,,,,,,,,,,,,15,,50,48
60599,note_on,,119,0,5,,,,,,,,,,,,,,,,2,,50,0
60599,note_on,,119,0,12,,,,,,,,,,,,,,,,15,,50,0
60599,note_on,,119,0,11,,,,,,,,,,,,,,,,13,,50,0
60599,note_on,,359,0,7,,,,,,,,,,,,,,,,8,,55,0
60600,note_on,,0,0,12,,,,,,,,,,,,,,,,15,,69,48
60600,note_on,,1,0,5,,,,,,,,,,,,,,,,2,,49,48
60600,note_on,,0,0,12,,,,,,,,,,,,,,,,15,,49,48
60600,note_on,,1,0,12,,,,,,,,,,,,,,,,15,,76,48
60600,note_on,,0,0,12,,,,,,,,,,,,,,,,15,,64,48
60600,note_on,,1,0,11,,,,,,,,,,,,,,,,13,,49,48
60720,note_on,,121,0,7,,,,,,,,,,,,,,,,8,,57,72
60839,note_on,,119,0,7,,,,,,,,,,,,,,,,8,,57,0
60839,note_on,,239,0,12,,,,,,,,,,,,,,,,15,,76,0
60839,note_on,,0,0,12,,,,,,,,,,,,,,,,15,,64,0
60839,note_on,,0,0,12,,,,,,,,,,,,,,,,15,,69,0
60840,note_on,,1,0,7,,,,,,,,,,,,,,,,8,,52,72
60959,note_on,,359,0,11,,,,,,,,,,,,,,,,13,,49,0
60959,note_on,,359,0,5,,,,,,,,,,,,,,,,2,,49,0
60959,note_on,,120,0,12,,,,,,,,,,,,,,,,15,,49,0
60959,note_on,,119,0,7,,,,,,,,,,,,,,,,8,,52,0
60960,note_on,,1,0,7,,,,,,,,,,,,,,,,8,,54,72
60960,note_on,,0,0,12,,,,,,,,,,,,,,,,15,,66,48
60960,note_on,,0,0,12,,,,,,,,,,,,,,,,15,,62,48
60960,note_on,,1,0,11,,,,,,,,,,,,,,,,13,,50,48
60960,note_on,,1,0,12,,,,,,,,,,,,,,,,15,,69,48
60960,note_on,,1,0,5,,,,,,,,,,,,,,,,2,,50,48
60960,note_on,,0,0,12,,,,,,,,,,,,,,,,15,,50,48
61079,note_on,,119,0,7,,,,,,,,,,,,,,,,8,,54,0
61079,note_on,,119,0,11,,,,,,,,,,,,,,,,13,,50,0
61079,note_on,,119,0,12,,,,,,,,,,,,,,,,15,,50,0
61079,note_on,,119,0,5,,,,,,,,,,,,,,,,2,,50,0
61080,note_on,,1,0,11,,,,,,,,,,,,,,,,13,,54,48
61080,note_on,,1,0,5,,,,,,,,,,,,,,,,2,,54,48
61080,note_on,,1,0,12,,,,,,,,,,,,,,,,15,,54,48
61080,note_on,,1,0,7,,,,,,,,,,,,,,,,8,,62,72
61139,note_on,,59,0,11,,,,,,,,,,,,,,,,13,,54,0
61139,note_on,,59,0,5,,,,,,,,,,,,,,,,2,,54,0
61139,note_on,,59,0,12,,,,,,,,,,,,,,,,15,,54,0
61140,note_on,,1,0,11,,,,,,,,,,,,,,,,13,,52,48
61140,note_on,,1,0,12,,,,,,,,,,,,,,,,15,,52,48
61140,note_on,,1,0,5,,,,,,,,,,,,,,,,2,,52,48
61199,note_on,,0,0,12,,,,,,,,,,,,,,,,15,,66,0
61199,note_on,,59,0,11,,,,,,,,,,,,,,,,13,,52,0
61199,note_on,,59,0,12,,,,,,,,,,,,,,,,15,,69,0
61199,note_on,,0,0,12,,,,,,,,,,,,,,,,15,,62,0
61199,note_on,,0,0,12,,,,,,,,,,,,,,,,15,,52,0
61199,note_on,,59,0,5,,,,,,,,,,,,,,,,2,,52,0
61200,note_on,,1,0,11,,,,,,,,,,,,,,,,13,,50,48
61200,note_on,,1,0,5,,,,,,,,,,,,,,,,2,,50,48
61200,note_on,,1,0,12,,,,,,,,,,,,,,,,15,,50,48
61259,note_on,,59,0,11,,,,,,,,,,,,,,,,13,,50,0
61259,note_on,,59,0,5,,,,,,,,,,,,,,,,2,,50,0
61259,note_on,,59,0,12,,,,,,,,,,,,,,,,15,,50,0
61260,note_on,,1,0,11,,,,,,,,,,,,,,,,13,,49,48
61260,note_on,,1,0,5,,,,,,,,,,,,,,,,2,,49,48
61260,note_on,,1,0,12,,,,,,,,,,,,,,,,15,,49,48
61319,note_on,,59,0,12,,,,,,,,,,,,,,,,15,,49,0
61319,note_on,,59,0,5,,,,,,,,,,,,,,,,2,,49,0
61319,note_on,,59,0,11,,,,,,,,,,,,,,,,13,,49,0
61320,note_on,,0,0,12,,,,,,,,,,,,,,,,15,,71,48
61320,note_on,,0,0,12,,,,,,,,,,,,,,,,15,,66,48
61320,note_on,,1,0,11,,,,,,,,,,,,,,,,13,,47,48
61320,note_on,,1,0,5,,,,,,,,,,,,,,,,2,,47,48
61320,note_on,,1,0,12,,,,,,,,,,,,,,,,15,,47,48
61320,note_on,,0,0,12,,,,,,,,,,,,,,,,15,,74,48
61379,note_on,,299,0,7,,,,,,,,,,,,,,,,8,,62,0
61380,note_on,,1,0,7,,,,,,,,,,,,,,,,8,,61,72
61439,note_on,,119,0,12,,,,,,,,,,,,,,,,15,,47,0
61439,note_on,,59,0,7,,,,,,,,,,,,,,,,8,,61,0
61439,note_on,,119,0,11,,,,,,,,,,,,,,,,13,,47,0
61439,note_on,,119,0,5,,,,,,,,,,,,,,,,2,,47,0
61440,note_on,,1,0,7,,,,,,,,,,,,,,,,8,,59,72
61440,note_on,,1,0,11,,,,,,,,,,,,,,,,13,,50,48
61440,note_on,,1,0,5,,,,,,,,,,,,,,,,2,,50,48
61440,note_on,,1,0,12,,,,,,,,,,,,,,,,15,,50,48
61499,note_on,,59,0,7,,,,,,,,,,,,,,,,8,,59,0
61500,note_on,,1,0,7,,,,,,,,,,,,,,,,8,,57,72
61559,note_on,,119,0,11,,,,,,,,,,,,,,,,13,,50,0
61559,note_on,,119,0,5,,,,,,,,,,,,,,,,2,,50,0
61559,note_on,,119,0,12,,,,,,,,,,,,,,,,15,,71,0
61559,note_on,,0,0,12,,,,,,,,,,,,,,,,15,,50,0
61559,note_on,,0,0,12,,,,,,,,,,,,,,,,15,,74,0
61559,note_on,,0,0,12,,,,,,,,,,,,,,,,15,,66,0
61559,note_on,,59,0,7,,,,,,,,,,,,,,,,8,,57,0
61560,note_on,,1,0,7,,,,,,,,,,,,,,,,8,,55,72
61560,note_on,,1,0,11,,,,,,,,,,,,,,,,13,,47,48
61560,note_on,,1,0,12,,,,,,,,,,,,,,,,15,,47,48
61560,note_on,,1,0,5,,,,,,,,,,,,,,,,2,,47,48
61619,note_on,,59,0,7,,,,,,,,,,,,,,,,8,,55,0
61620,note_on,,1,0,7,,,,,,,,,,,,,,,,8,,54,72
61679,note_on,,119,0,5,,,,,,,,,,,,,,,,2,,47,0
61679,note_on,,119,0,11,,,,,,,,,,,,,,,,13,,47,0
61679,note_on,,119,0,12,,,,,,,,,,,,,,,,15,,47,0
61679,note_on,,59,0,7,,,,,,,,,,,,,,,,8,,54,0
61680,note_on,,0,0,12,,,,,,,,,,,,,,,,15,,64,48
61680,note_on,,0,0,12,,,,,,,,,,,,,,,,15,,67,48
61680,note_on,,1,0,12,,,,,,,,,,,,,,,,15,,49,48
61680,note_on,,1,0,11,,,,,,,,,,,,,,,,13,,49,48
61680,note_on,,1,0,5,,,,,,,,,,,,,,,,2,,49,48
61680,note_on,,1,0,7,,,,,,,,,,,,,,,,8,,52,72
61799,note_on,,119,0,5,,,,,,,,,,,,,,,,2,,49,0
61799,note_on,,119,0,12,,,,,,,,,,,,,,,,15,,49,0
61799,note_on,,119,0,11,,,,,,,,,,,,,,,,13,,49,0
61799,note_on,,119,0,7,,,,,,,,,,,,,,,,8,,52,0
61800,note_on,,1,0,7,,,,,,,,,,,,,,,,8,,61,72
61800,note_on,,1,0,12,,,,,,,,,,,,,,,,15,,52,48
61800,note_on,,1,0,11,,,,,,,,,,,,,,,,13,,52,48
61800,note_on,,1,0,5,,,,,,,,,,,,,,,,2,,52,48
61919,note_on,,119,0,11,,,,,,,,,,,,,,,,13,,52,0
61919,note_on,,0,0,12,,,,,,,,,,,,,,,,15,,67,0
61919,note_on,,0,0,12,,,,,,,,,,,,,,,,15,,52,0
61919,note_on,,119,0,12,,,,,,,,,,,,,,,,15,,64,0
61919,note_on,,119,0,5,,,,,,,,,,,,,,,,2,,52,0
61920,note_on,,1,0,12,,,,,,,,,,,,,,,,15,,49,48
61920,note_on,,1,0,5,,,,,,,,,,,,,,,,2,,49,48
61920,note_on,,1,0,11,,,,,,,,,,,,,,,,13,,49,48
62039,note_on,,119,0,11,,,,,,,,,,,,,,,,13,,49,0
62039,note_on,,119,0,12,,,,,,,,,,,,,,,,15,,49,0
62039,note_on,,119,0,5,,,,,,,,,,,,,,,,2,,49,0
62040,note_on,,0,0,12,,,,,,,,,,,,,,,,15,,66,48
62040,note_on,,1,0,12,,,,,,,,,,,,,,,,15,,54,48
62040,note_on,,1,0,5,,,,,,,,,,,,,,,,2,,54,48
62040,note_on,,1,0,11,,,,,,,,,,,,,,,,13,,54,48
62040,note_on,,0,0,12,,,,,,,,,,,,,,,,15,,61,48
62040,note_on,,0,0,12,,,,,,,,,,,,,,,,15,,58,48
62099,note_on,,299,0,7,,,,,,,,,,,,,,,,8,,61,0
62100,note_on,,1,0,7,,,,,,,,,,,,,,,,8,,59,72
62159,note_on,,119,0,12,,,,,,,,,,,,,,,,15,,54,0
62159,note_on,,119,0,5,,,,,,,,,,,,,,,,2,,54,0
62159,note_on,,119,0,11,,,,,,,,,,,,,,,,13,,54,0
62159,note_on,,59,0,7,,,,,,,,,,,,,,,,8,,59,0
62160,note_on,,1,0,12,,,,,,,,,,,,,,,,15,,42,48
62160,note_on,,1,0,5,,,,,,,,,,,,,,,,2,,42,48
62160,note_on,,1,0,11,,,,,,,,,,,,,,,,13,,42,48
62160,note_on,,1,0,7,,,,,,,,,,,,,,,,8,,58,72
62219,note_on,,59,0,7,,,,,,,,,,,,,,,,8,,58,0
62220,note_on,,1,0,7,,,,,,,,,,,,,,,,8,,56,72
62279,note_on,,119,0,12,,,,,,,,,,,,,,,,15,,58,0
62279,note_on,,119,0,11,,,,,,,,,,,,,,,,13,,42,0
62279,note_on,,119,0,5,,,,,,,,,,,,,,,,2,,42,0
62279,note_on,,0,0,12,,,,,,,,,,,,,,,,15,,42,0
62279,note_on,,59,0,7,,,,,,,,,,,,,,,,8,,56,0
62280,note_on,,1,0,12,,,,,,,,,,,,,,,,15,,46,48
62280,note_on,,1,0,11,,,,,,,,,,,,,,,,13,,46,48
62280,note_on,,1,0,5,,,,,,,,,,,,,,,,2,,46,48
62280,note_on,,1,0,7,,,,,,,,,,,,,,,,8,,54,72
62339,note_on,,59,0,7,,,,,,,,,,,,,,,,8,,54,0
62340,note_on,,1,0,7,,,,,,,,,,,,,,,,8,,52,72
62399,note_on,,119,0,11,,,,,,,,,,,,,,,,13,,46,0
62399,note_on,,0,0,12,,,,,,,,,,,,,,,,15,,46,0
62399,note_on,,119,0,12,,,,,,,,,,,,,,,,15,,61,0
62399,note_on,,59,0,7,,,,,,,,,,,,,,,,8,,52,0
62399,note_on,,119,0,5,,,,,,,,,,,,,,,,2,,46,0
62400,note_on,,1,0,11,,,,,,,,,,,,,,,,13,,47,48
62400,note_on,,1,0,7,,,,,,,,,,,,,,,,8,,50,72
62400,note_on,,1,0,5,,,,,,,,,,,,,,,,2,,47,48
62400,note_on,,0,0,12,,,,,,,,,,,,,,,,15,,62,48
62400,note_on,,1,0,12,,,,,,,,,,,,,,,,15,,59,48
62400,note_on,,0,0,12,,,,,,,,,,,,,,,,15,,47,48
62519,note_on,,119,0,7,,,,,,,,,,,,,,,,8,,50,0
62519,note_on,,119,0,11,,,,,,,,,,,,,,,,13,,47,0
62519,note_on,,119,0,12,,,,,,,,,,,,,,,,15,,66,0
62519,note_on,,0,0,12,,,,,,,,,,,,,,,,15,,59,0
62519,note_on,,0,0,12,,,,,,,,,,,,,,,,15,,47,0
62519,note_on,,0,0,12,,,,,,,,,,,,,,,,15,,62,0
62519,note_on,,119,0,5,,,,,,,,,,,,,,,,2,,47,0
62520,note_on,,1,0,7,,,,,,,,,,,,,,,,8,,50,72
62520,note_on,,1,0,5,,,,,,,,,,,,,,,,2,,47,48
62520,note_on,,1,0,11,,,,,,,,,,,,,,,,13,,47,48
62520,note_on,,0,0,12,,,,,,,,,,,,,,,,15,,71,48
62520,note_on,,0,0,12,,,,,,,,,,,,,,,,15,,74,48
62520,note_on,,1,0,12,,,,,,,,,,,,,,,,15,,66,48
62520,note_on,,0,0,12,,,,,,,,,,,,,,,,15,,47,48
62639,note_on,,119,0,12,,,,,,,,,,,,,,,,15,,66,0
62639,note_on,,0,0,12,,,,,,,,,,,,,,,,15,,74,0
62639,note_on,,0,0,12,,,,,,,,,,,,,,,,15,,71,0
62639,note_on,,119,0,7,,,,,,,,,,,,,,,,8,,50,0
62639,note_on,,0,0,12,,,,,,,,,,,,,,,,15,,47,0
62639,note_on,,119,0,5,,,,,,,,,,,,,,,,2,,47,0
62639,note_on,,119,0,11,,,,,,,,,,,,,,,,13,,47,0
62640,note_on,,1,0,5,,,,,,,,,,,,,,,,2,,49,48
62640,note_on,,1,0,7,,,,,,,,,,,,,,,,8,,52,72
62640,note_on,,1,0,11,,,,,,,,,,,,,,,,13,,49,48
62640,note_on,,0,0,12,,,,,,,,,,,,,,,,15,,64,48
62640,note_on,,0,0,12,,,,,,,,,,,,,,,,15,,49,48
62640,note_on,,0,0,12,,,,,,,,,,,,,,,,15,,73,48
62640,note_on,,1,0,12,,,,,,,,,,,,,,,,15,,70,48
62759,note_on,,0,0,12,,,,,,,,,,,,,,,,15,,64,0
62759,note_on,,0,0,12,,,,,,,,,,,,,,,,15,,49,0
62759,note_on,,119,0,12,,,,,,,,,,,,,,,,15,,70,0
62759,note_on,,119,0,11,,,,,,,,,,,,,,,,13,,49,0
62759,note_on,,119,0,5,,,,,,,,,,,,,,,,2,,49,0
62759,note_on,,119,0,7,,,,,,,,,,,,,,,,8,,52,0
62759,note_on,,0,0,12,,,,,,,,,,,,,,,,15,,73,0
62760,note_on,,1,0,11,,,,,,,,,,,,,,,,13,,50,48
62760,note_on,,1,0,7,,,,,,,,,,,,,,,,8,,54,72
62760,note_on,,0,0,12,,,,,,,,,,,,,,,,15,,66,48
62760,note_on,,0,0,12,,,,,,,,,,,,,,,,15,,62,48
62760,note_on,,0,0,12,,,,,,,,,,,,,,,,15,,50,48
62760,note_on,,1,0,12,,,,,,,,,,,,,,,,15,,71,48
62760,note_on,,1,0,5,,,,,,,,,,,,,,,,2,,50,48
62879,note_on,,119,0,5,,,,,,,,,,,,,,,,2,,50,0
62879,note_on,,119,0,12,,,,,,,,,,,,,,,,15,,50,0
62879,note_on,,119,0,7,,,,,,,,,,,,,,,,8,,54,0
62879,note_on,,119,0,11,,,,,,,,,,,,,,,,13,,50,0
62880,note_on,,1,0,12,,,,,,,,,,,,,,,,15,,50,48
62880,note_on,,1,0,7,,,,,,,,,,,,,,,,8,,54,72
62880,note_on,,1,0,11,,,,,,,,,,,,,,,,13,,50,48
62880,note_on,,1,0,5,,,,,,,,,,,,,,,,2,,50,48
62939,note_on,,59,0,12,,,,,,,,,,,,,,,,15,,62,0
62999,note_on,,119,0,7,,,,,,,,,,,,,,,,8,,54,0
62999,note_on,,119,0,5,,,,,,,,,,,,,,,,2,,50,0
62999,note_on,,119,0,11,,,,,,,,,,,,,,,,13,,50,0
62999,note_on,,60,0,12,,,,,,,,,,,,,,,,15,,50,0
63000,note_on,,1,0,7,,,,,,,,,,,,,,,,8,,56,72
63000,note_on,,1,0,5,,,,,,,,,,,,,,,,2,,52,48
63000,note_on,,1,0,11,,,,,,,,,,,,,,,,13,,52,48
63000,note_on,,1,0,12,,,,,,,,,,,,,,,,15,,64,48
63000,note_on,,0,0,12,,,,,,,,,,,,,,,,15,,52,48
63059,note_on,,59,0,12,,,,,,,,,,,,,,,,15,,64,0
63060,note_on,,1,0,12,,,,,,,,,,,,,,,,15,,62,48
63119,note_on,,119,0,11,,,,,,,,,,,,,,,,13,,52,0
63119,note_on,,59,0,12,,,,,,,,,,,,,,,,15,,71,0
63119,note_on,,0,0,12,,,,,,,,,,,,,,,,15,,66,0
63119,note_on,,0,0,12,,,,,,,,,,,,,,,,15,,52,0
63119,note_on,,0,0,12,,,,,,,,,,,,,,,,15,,62,0
63119,note_on,,119,0,7,,,,,,,,,,,,,,,,8,,56,0
63119,note_on,,119,0,5,,,,,,,,,,,,,,,,2,,52,0
63120,note_on,,1,0,12,,,,,,,,,,,,,,,,15,,54,48
63120,note_on,,0,0,12,,,,,,,,,,,,,,,,15,,61,48
63120,note_on,,0,0,12,,,,,,,,,,,,,,,,15,,66,48
63120,note_on,,1,0,5,,,,,,,,,,,,,,,,2,,54,48
63120,note_on,,1,0,11,,,,,,,,,,,,,,,,13,,54,48
63120,note_on,,0,0,12,,,,,,,,,,,,,,,,15,,70,48
63120,note_on,,1,0,7,,,,,,,,,,,,,,,,8,,58,72
63359,note_on,,0,0,12,,,,,,,,,,,,,,,,15,,61,0
63359,note_on,,239,0,7,,,,,,,,,,,,,,,,8,,58,0
63359,note_on,,239,0,12,,,,,,,,,,,,,,,,15,,54,0
63359,note_on,,239,0,11,,,,,,,,,,,,,,,,13,,54,0
63359,note_on,,0,0,12,,,,,,,,,,,,,,,,15,,66,0
63359,note_on,,239,0,5,,,,,,,,,,,,,,,,2,,54,0
63359,note_on,,0,0,12,,,,,,,,,,,,,,,,15,,70,0
63360,note_on,,1,0,7,,,,,,,,,,,,,,,,8,,59,72
63360,note_on,,1,0,11,,,,,,,,,,,,,,,,13,,55,48
63360,note_on,,1,0,5,,,,,,,,,,,,,,,,2,,55,48
63360,note_on,,0,0,12,,,,,,,,,,,,,,,,15,,59,48
63360,note_on,,0,0,12,,,,,,,,,,,,,,,,15,,71,48
63360,note_on,,0,0,12,,,,,,,,,,,,,,,,15,,62,48
63360,note_on,,1,0,12,,,,,,,,,,,,,,,,15,,55,48
63479,note_on,,119,0,12,,,,,,,,,,,,,,,,15,,55,0
63479,note_on,,0,0,12,,,,,,,,,,,,,,,,15,,71,0
63479,note_on,,119,0,5,,,,,,,,,,,,,,,,2,,55,0
63479,note_on,,0,0,12,,,,,,,,,,,,,,,,15,,62,0
63479,note_on,,119,0,11,,,,,,,,,,,,,,,,13,,55,0
63480,note_on,,0,0,12,,,,,,,,,,,,,,,,15,,67,48
63480,note_on,,1,0,12,,,,,,,,,,,,,,,,15,,64,48
63480,note_on,,1,0,11,,,,,,,,,,,,,,,,13,,52,48
63480,note_on,,0,0,12,,,,,,,,,,,,,,,,15,,52,48
63480,note_on,,1,0,5,,,,,,,,,,,,,,,,2,,52,48
63539,note_on,,179,0,7,,,,,,,,,,,,,,,,8,,59,0
63540,note_on,,1,0,7,,,,,,,,,,,,,,,,8,,61,72
63599,note_on,,119,0,12,,,,,,,,,,,,,,,,15,,59,0
63599,note_on,,119,0,11,,,,,,,,,,,,,,,,13,,52,0
63599,note_on,,59,0,7,,,,,,,,,,,,,,,,8,,61,0
63599,note_on,,0,0,12,,,,,,,,,,,,,,,,15,,64,0
63599,note_on,,0,0,12,,,,,,,,,,,,,,,,15,,52,0
63599,note_on,,0,0,12,,,,,,,,,,,,,,,,15,,67,0
63599,note_on,,119,0,5,,,,,,,,,,,,,,,,2,,52,0
63600,note_on,,1,0,5,,,,,,,,,,,,,,,,2,,54,48
63600,note_on,,1,0,7,,,,,,,,,,,,,,,,8,,58,72
63600,note_on,,1,0,11,,,,,,,,,,,,,,,,13,,54,48
63600,note_on,,0,0,12,,,,,,,,,,,,,,,,15,,54,48
63600,note_on,,0,0,12,,,,,,,,,,,,,,,,15,,61,48
63600,note_on,,1,0,12,,,,,,,,,,,,,,,,15,,58,48
63719,note_on,,0,0,12,,,,,,,,,,,,,,,,15,,54,0
63719,note_on,,119,0,12,,,,,,,,,,,,,,,,15,,58,0
63719,note_on,,119,0,11,,,,,,,,,,,,,,,,13,,54,0
63719,note_on,,119,0,5,,,,,,,,,,,,,,,,2,,54,0
63719,note_on,,0,0,12,,,,,,,,,,,,,,,,15,,61,0
63720,note_on,,1,0,12,,,,,,,,,,,,,,,,15,,61,48
63720,note_on,,0,0,12,,,,,,,,,,,,,,,,15,,54,48
63720,note_on,,0,0,12,,,,,,,,,,,,,,,,15,,42,48
63720,note_on,,1,0,5,,,,,,,,,,,,,,,,2,,42,48
63720,note_on,,1,0,11,,,,,,,,,,,,,,,,13,,42,48
63720,note_on,,0,0,12,,,,,,,,,,,,,,,,15,,66,48
63720,note_on,,0,0,12,,,,,,,,,,,,,,,,15,,58,48
63839,note_on,,119,0,11,,,,,,,,,,,,,,,,13,,42,0
63839,note_on,,0,0,12,,,,,,,,,,,,,,,,15,,54,0
63839,note_on,,119,0,12,,,,,,,,,,,,,,,,15,,61,0
63839,note_on,,0,0,12,,,,,,,,,,,,,,,,15,,42,0
63839,note_on,,0,0,12,,,,,,,,,,,,,,,,15,,58,0
63839,note_on,,239,0,7,,,,,,,,,,,,,,,,8,,58,0
63839,note_on,,119,0,5,,,,,,,,,,,,,,,,2,,42,0
63839,note_on,,0,0,12,,,,,,,,,,,,,,,,15,,66,0
63840,note_on,,0,0,12,,,,,,,,,,,,,,,,15,,47,48
63840,note_on,,1,0,7,,,,,,,,,,,,,,,,8,,59,72
63840,note_on,,1,0,11,,,,,,,,,,,,,,,,13,,47,48
63840,note_on,,0,0,12,,,,,,,,,,,,,,,,15,,54,48
63840,note_on,,1,0,12,,,,,,,,,,,,,,,,15,,62,48
63840,note_on,,0,0,12,,,,,,,,,,,,,,,,15,,59,48
63840,note_on,,1,0,5,,,,,,,,,,,,,,,,2,,47,48
63959,note_on,,119,0,12,,,,,,,,,,,,,,,,15,,47,0
63959,note_on,,119,0,5,,,,,,,,,,,,,,,,2,,47,0
63959,note_on,,119,0,7,,,,,,,,,,,,,,,,8,,59,0
63959,note_on,,119,0,11,,,,,,,,,,,,,,,,13,,47,0
63960,note_on,,1,0,12,,,,,,,,,,,,,,,,15,,47,48
63960,note_on,,1,0,11,,,,,,,,,,,,,,,,13,,47,48
63960,note_on,,1,0,7,,,,,,,,,,,,,,,,8,,59,72
63960,note_on,,1,0,5,,,,,,,,,,,,,,,,2,,47,48
64079,note_on,,119,0,7,,,,,,,,,,,,,,,,8,,59,0
64079,note_on,,0,0,12,,,,,,,,,,,,,,,,15,,47,0
64079,note_on,,0,0,12,,,,,,,,,,,,,,,,15,,59,0
64079,note_on,,0,0,12,,,,,,,,,,,,,,,,15,,54,0
64079,note_on,,119,0,12,,,,,,,,,,,,,,,,15,,62,0
64079,note_on,,119,0,11,,,,,,,,,,,,,,,,13,,47,0
64079,note_on,,119,0,5,,,,,,,,,,,,,,,,2,,47,0
64080,note_on,,0,0,12,,,,,,,,,,,,,,,,15,,58,72
64080,note_on,,0,0,12,,,,,,,,,,,,,,,,15,,61,72
64080,note_on,,1,0,12,,,,,,,,,,,,,,,,15,,52,72
64080,note_on,,1,0,11,,,,,,,,,,,,,,,,13,,49,72
64080,note_on,,0,0,12,,,,,,,,,,,,,,,,15,,49,72
64080,note_on,,1,0,5,,,,,,,,,,,,,,,,2,,49,72
64199,note_on,,119,0,5,,,,,,,,,,,,,,,,2,,49,0
64199,note_on,,0,0,12,,,,,,,,,,,,,,,,15,,58,0
64199,note_on,,0,0,12,,,,,,,,,,,,,,,,15,,49,0
64199,note_on,,0,0,12,,,,,,,,,,,,,,,,15,,61,0
64199,note_on,,119,0,12,,,,,,,,,,,,,,,,15,,52,0
64199,note_on,,119,0,11,,,,,,,,,,,,,,,,13,,49,0
64200,note_on,,0,0,12,,,,,,,,,,,,,,,,15,,54,72
64200,note_on,,1,0,12,,,,,,,,,,,,,,,,15,,50,72
64200,note_on,,1,0,11,,,,,,,,,,,,,,,,13,,50,72
64200,note_on,,0,0,12,,,,,,,,,,,,,,,,15,,59,72
64200,note_on,,1,0,5,,,,,,,,,,,,,,,,2,,50,72
64319,note_on,,119,0,11,,,,,,,,,,,,,,,,13,,50,0
64319,note_on,,0,0,12,,,,,,,,,,,,,,,,15,,54,0
64319,note_on,,0,0,12,,,,,,,,,,,,,,,,15,,59,0
64319,note_on,,119,0,12,,,,,,,,,,,,,,,,15,,50,0
64319,note_on,,119,0,5,,,,,,,,,,,,,,,,2,,50,0
64320,note_on,,0,0,12,,,,,,,,,,,,,,,,15,,59,72
64320,note_on,,0,0,12,,,,,,,,,,,,,,,,15,,52,72
64320,note_on,,1,0,12,,,,,,,,,,,,,,,,15,,67,72
64320,note_on,,1,0,5,,,,,,,,,,,,,,,,2,,52,72
64320,note_on,,0,0,12,,,,,,,,,,,,,,,,15,,64,72
64320,note_on,,1,0,11,,,,,,,,,,,,,,,,13,,52,72
64439,note_on,,119,0,5,,,,,,,,,,,,,,,,2,,52,0
64439,note_on,,0,0,12,,,,,,,,,,,,,,,,15,,59,0
64439,note_on,,0,0,12,,,,,,,,,,,,,,,,15,,64,0
64439,note_on,,119,0,12,,,,,,,,,,,,,,,,15,,67,0
64439,note_on,,119,0,11,,,,,,,,,,,,,,,,13,,52,0
64439,note_on,,0,0,12,,,,,,,,,,,,,,,,15,,52,0
64440,note_on,,1,0,11,,,,,,,,,,,,,,,,13,,54,72
64440,note_on,,0,0,12,,,,,,,,,,,,,,,,15,,57,72
64440,note_on,,0,0,12,,,,,,,,,,,,,,,,15,,63,72
64440,note_on,,1,0,12,,,,,,,,,,,,,,,,15,,66,72
64440,note_on,,1,0,5,,,,,,,,,,,,,,,,2,,54,72
64440,note_on,,0,0,12,,,,,,,,,,,,,,,,15,,54,72
64559,note_on,,119,0,5,,,,,,,,,,,,,,,,2,,54,0
64559,note_on,,119,0,11,,,,,,,,,,,,,,,,13,,54,0
64559,note_on,,119,0,12,,,,,,,,,,,,,,,,15,,66,0
64559,note_on,,0,0,12,,,,,,,,,,,,,,,,15,,63,0
64559,note_on,,0,0,12,,,,,,,,,,,,,,,,15,,54,0
64559,note_on,,0,0,12,,,,,,,,,,,,,,,,15,,57,0
64560,note_on,,0,0,12,,,,,,,,,,,,,,,,15,,57,72
64560,note_on,,1,0,11,,,,,,,,,,,,,,,,13,,55,72
64560,note_on,,1,0,12,,,,,,,,,,,,,,,,15,,55,72
64560,note_on,,1,0,5,,,,,,,,,,,,,,,,2,,55,72
64560,note_on,,0,0,12,,,,,,,,,,,,,,,,15,,64,72
64679,note_on,,119,0,11,,,,,,,,,,,,,,,,13,,55,0
64679,note_on,,119,0,5,,,,,,,,,,,,,,,,2,,55,0
64679,note_on,,0,0,12,,,,,,,,,,,,,,,,15,,57,0
64679,note_on,,119,0,12,,,,,,,,,,,,,,,,15,,55,0
64680,note_on,,1,0,5,,,,,,,,,,,,,,,,2,,52,72
64680,note_on,,0,0,12,,,,,,,,,,,,,,,,15,,52,72
64680,note_on,,1,0,11,,,,,,,,,,,,,,,,13,,52,72
64680,note_on,,1,0,12,,,,,,,,,,,,,,,,15,,55,72
64739,note_on,,59,0,12,,,,,,,,,,,,,,,,15,,64,0
64740,note_on,,1,0,12,,,,,,,,,,,,,,,,15,,62,72
64799,note_on,,59,0,12,,,,,,,,,,,,,,,,15,,55,0
64799,note_on,,0,0,12,,,,,,,,,,,,,,,,15,,52,0
64799,note_on,,0,0,12,,,,,,,,,,,,,,,,15,,62,0
64799,note_on,,119,0,11,,,,,,,,,,,,,,,,13,,52,0
64799,note_on,,119,0,5,,,,,,,,,,,,,,,,2,,52,0
64800,note_on,,1,0,12,,,,,,,,,,,,,,,,15,,54,72
64800,note_on,,0,0,12,,,,,,,,,,,,,,,,15,,61,72
64800,note_on,,0,0,12,,,,,,,,,,,,,,,,15,,58,72
64800,note_on,,1,0,11,,,,,,,,,,,,,,,,13,,54,72
64800,note_on,,1,0,5,,,,,,,,,,,,,,,,2,,54,72
64919,note_on,,119,0,11,,,,,,,,,,,,,,,,13,,54,0
64919,note_on,,0,0,12,,,,,,,,,,,,,,,,15,,58,0
64919,note_on,,0,0,12,,,,,,,,,,,,,,,,15,,61,0
64919,note_on,,119,0,12,,,,,,,,,,,,,,,,15,,54,0
64919,note_on,,119,0,5,,,,,,,,,,,,,,,,2,,54,0
64920,note_on,,1,0,11,,,,,,,,,,,,,,,,13,,47,72
64920,note_on,,1,0,5,,,,,,,,,,,,,,,,2,,47,72
64920,note_on,,0,0,12,,,,,,,,,,,,,,,,15,,54,72
64920,note_on,,1,0,12,,,,,,,,,,,,,,,,15,,59,72
64920,note_on,,0,0,12,,,,,,,,,,,,,,,,15,,47,72
64920,note_on,,0,0,12,,,,,,,,,,,,,,,,15,,62,72
65040,note_on,,961,0,7,,,,,,,,,,,,,,,,8,,59,72
65159,note_on,,239,0,5,,,,,,,,,,,,,,,,2,,47,0
65159,note_on,,239,0,11,,,,,,,,,,,,,,,,13,,47,0
65159,note_on,,0,0,12,,,,,,,,,,,,,,,,15,,54,0
65159,note_on,,0,0,12,,,,,,,,,,,,,,,,15,,62,0
65159,note_on,,0,0,12,,,,,,,,,,,,,,,,15,,47,0
65159,note_on,,239,0,12,,,,,,,,,,,,,,,,15,,59,0
65159,note_on,,119,0,7,,,,,,,,,,,,,,,,8,,59,0
65160,note_on,,0,0,12,,,,,,,,,,,,,,,,15,,66,48
65160,note_on,,1,0,11,,,,,,,,,,,,,,,,13,,59,48
65160,note_on,,0,0,12,,,,,,,,,,,,,,,,15,,62,48
65160,note_on,,1,0,12,,,,,,,,,,,,,,,,15,,71,48
65160,note_on,,1,0,5,,,,,,,,,,,,,,,,2,,59,48
65160,note_on,,0,0,12,,,,,,,,,,,,,,,,15,,59,48
65160,note_on,,1,0,7,,,,,,,,,,,,,,,,8,,62,72
65279,note_on,,119,0,5,,,,,,,,,,,,,,,,2,,59,0
65279,note_on,,0,0,12,,,,,,,,,,,,,,,,15,,59,0
65279,note_on,,0,0,12,,,,,,,,,,,,,,,,15,,66,0
65279,note_on,,0,0,12,,,,,,,,,,,,,,,,15,,62,0
65279,note_on,,119,0,12,,,,,,,,,,,,,,,,15,,71,0
65279,note_on,,119,0,11,,,,,,,,,,,,,,,,13,,59,0
65279,note_on,,119,0,7,,,,,,,,,,,,,,,,8,,62,0
65280,note_on,,1,0,7,,,,,,,,,,,,,,,,8,,61,72
65280,note_on,,1,0,5,,,,,,,,,,,,,,,,2,,61,48
65280,note_on,,1,0,11,,,,,,,,,,,,,,,,13,,61,48
65280,note_on,,1,0,12,,,,,,,,,,,,,,,,15,,65,48
65280,note_on,,0,0,12,,,,,,,,,,,,,,,,15,,67,48
65280,note_on,,0,0,12,,,,,,,,,,,,,,,,15,,61,48
65399,note_on,,119,0,7,,,,,,,,,,,,,,,,8,,61,0
65399,note_on,,119,0,11,,,,,,,,,,,,,,,,13,,61,0
65399,note_on,,119,0,5,,,,,,,,,,,,,,,,2,,61,0
65399,note_on,,119,0,12,,,,,,,,,,,,,,,,15,,61,0
65400,note_on,,1,0,7,,,,,,,,,,,,,,,,8,,56,72
65400,note_on,,1,0,11,,,,,,,,,,,,,,,,13,,56,48
65400,note_on,,1,0,5,,,,,,,,,,,,,,,,2,,56,48
65400,note_on,,1,0,12,,,,,,,,,,,,,,,,15,,56,48
65519,note_on,,119,0,7,,,,,,,,,,,,,,,,8,,56,0
65519,note_on,,0,0,12,,,,,,,,,,,,,,,,15,,67,0
65519,note_on,,0,0,12,,,,,,,,,,,,,,,,15,,56,0
65519,note_on,,119,0,12,,,,,,,,,,,,,,,,15,,65,0
65519,note_on,,119,0,5,,,,,,,,,,,,,,,,2,,56,0
65519,note_on,,119,0,11,,,,,,,,,,,,,,,,13,,56,0
65520,note_on,,0,0,12,,,,,,,,,,,,,,,,15,,61,48
65520,note_on,,1,0,12,,,,,,,,,,,,,,,,15,,57,48
65520,note_on,,1,0,7,,,,,,,,,,,,,,,,8,,57,72
65520,note_on,,1,0,11,,,,,,,,,,,,,,,,13,,57,48
65520,note_on,,0,0,12,,,,,,,,,,,,,,,,15,,66,48
65520,note_on,,1,0,5,,,,,,,,,,,,,,,,2,,57,48
65639,note_on,,119,0,7,,,,,,,,,,,,,,,,8,,57,0
65639,note_on,,119,0,5,,,,,,,,,,,,,,,,2,,57,0
65639,note_on,,119,0,11,,,,,,,,,,,,,,,,13,,57,0
65639,note_on,,119,0,12,,,,,,,,,,,,,,,,15,,57,0
65639,note_on,,0,0,12,,,,,,,,,,,,,,,,15,,61,0
65639,note_on,,0,0,12,,,,,,,,,,,,,,,,15,,66,0
65640,note_on,,1,0,7,,,,,,,,,,,,,,,,8,,53,72
65640,note_on,,1,0,5,,,,,,,,,,,,,,,,2,,53,48
65640,note_on,,1,0,12,,,,,,,,,,,,,,,,15,,68,48
65640,note_on,,0,0,12,,,,,,,,,,,,,,,,15,,61,48
65640,note_on,,0,0,12,,,,,,,,,,,,,,,,15,,53,48
65640,note_on,,1,0,11,,,,,,,,,,,,,,,,13,,53,48
65759,note_on,,119,0,5,,,,,,,,,,,,,,,,2,,53,0
65759,note_on,,119,0,7,,,,,,,,,,,,,,,,8,,53,0
65759,note_on,,119,0,12,,,,,,,,,,,,,,,,15,,68,0
65759,note_on,,0,0,12,,,,,,,,,,,,,,,,15,,61,0
65759,note_on,,119,0,11,,,,,,,,,,,,,,,,13,,53,0
65759,note_on,,0,0,12,,,,,,,,,,,,,,,,15,,53,0
65760,note_on,,1,0,11,,,,,,,,,,,,,,,,13,,54,48
65760,note_on,,1,0,7,,,,,,,,,,,,,,,,8,,54,72
65760,note_on,,1,0,5,,,,,,,,,,,,,,,,2,,54,48
65760,note_on,,1,0,12,,,,,,,,,,,,,,,,15,,69,48
65760,note_on,,0,0,12,,,,,,,,,,,,,,,,15,,66,48
65760,note_on,,0,0,12,,,,,,,,,,,,,,,,15,,61,48
65760,note_on,,0,0,12,,,,,,,,,,,,,,,,15,,54,48
65760,note_on,,0,0,12,,,,,,,,,,,,,,,,15,,57,48
65849,note_on,,89,0,7,,,,,,,,,,,,,,,,8,,54,0
65850,note_on,,1,0,7,,,,,,,,,,,,,,,,8,,53,72
65879,note_on,,0,0,12,,,,,,,,,,,,,,,,15,,61,0
65879,note_on,,119,0,12,,,,,,,,,,,,,,,,15,,69,0
65879,note_on,,29,0,7,,,,,,,,,,,,,,,,8,,53,0
65880,note_on,,0,0,12,,,,,,,,,,,,,,,,15,,63,48
65880,note_on,,1,0,7,,,,,,,,,,,,,,,,8,,54,72
65880,note_on,,1,0,12,,,,,,,,,,,,,,,,15,,71,48
65939,note_on,,59,0,7,,,,,,,,,,,,,,,,8,,54,0
65940,note_on,,1,0,7,,,,,,,,,,,,,,,,8,,56,72
65999,note_on,,0,0,12,,,,,,,,,,,,,,,,15,,54,0
65999,note_on,,0,0,12,,,,,,,,,,,,,,,,15,,66,0
65999,note_on,,59,0,7,,,,,,,,,,,,,,,,8,,56,0
65999,note_on,,239,0,11,,,,,,,,,,,,,,,,13,,54,0
65999,note_on,,0,0,12,,,,,,,,,,,,,,,,15,,71,0
65999,note_on,,239,0,5,,,,,,,,,,,,,,,,2,,54,0
65999,note_on,,119,0,12,,,,,,,,,,,,,,,,15,,57,0
65999,note_on,,0,0,12,,,,,,,,,,,,,,,,15,,63,0
66000,note_on,,0,0,12,,,,,,,,,,,,,,,,15,,49,48
66000,note_on,,0,0,12,,,,,,,,,,,,,,,,15,,73,48
66000,note_on,,0,0,12,,,,,,,,,,,,,,,,15,,56,48
66000,note_on,,1,0,7,,,,,,,,,,,,,,,,8,,49,72
66000,note_on,,0,0,12,,,,,,,,,,,,,,,,15,,68,48
66000,note_on,,1,0,11,,,,,,,,,,,,,,,,13,,49,48
66000,note_on,,1,0,5,,,,,,,,,,,,,,,,2,,49,48
66000,note_on,,1,0,12,,,,,,,,,,,,,,,,15,,65,48
66119,note_on,,119,0,12,,,,,,,,,,,,,,,,15,,65,0
66119,note_on,,0,0,12,,,,,,,,,,,,,,,,15,,56,0
66119,note_on,,0,0,12,,,,,,,,,,,,,,,,15,,49,0
66119,note_on,,0,0,12,,,,,,,,,,,,,,,,15,,68,0
66119,note_on,,119,0,11,,,,,,,,,,,,,,,,13,,49,0
66119,note_on,,119,0,5,,,,,,,,,,,,,,,,2,,49,0
66119,note_on,,0,0,12,,,,,,,,,,,,,,,,15,,73,0
66120,note_on,,1,0,5,,,,,,,,,,,,,,,,2,,61,48
66120,note_on,,0,0,12,,,,,,,,,,,,,,,,15,,75,48
66120,note_on,,0,0,12,,,,,,,,,,,,,,,,15,,69,48
66120,note_on,,1,0,11,,,,,,,,,,,,,,,,13,,61,48
66120,note_on,,0,0,12,,,,,,,,,,,,,,,,15,,61,48
66120,note_on,,1,0,12,,,,,,,,,,,,,,,,15,,66,48
66239,note_on,,0,0,12,,,,,,,,,,,,,,,,15,,69,0
66239,note_on,,0,0,12,,,,,,,,,,,,,,,,15,,75,0
66239,note_on,,0,0,12,,,,,,,,,,,,,,,,15,,61,0
66239,note_on,,119,0,5,,,,,,,,,,,,,,,,2,,61,0
66239,note_on,,119,0,12,,,,,,,,,,,,,,,,15,,66,0
66239,note_on,,239,0,7,,,,,,,,,,,,,,,,8,,49,0
66239,note_on,,119,0,11,,,,,,,,,,,,,,,,13,,61,0
66240,note_on,,1,0,11,,,,,,,,,,,,,,,,13,,59,48
66240,note_on,,0,0,12,,,,,,,,,,,,,,,,15,,68,48
66240,note_on,,1,0,12,,,,,,,,,,,,,,,,15,,77,48
66240,note_on,,0,0,12,,,,,,,,,,,,,,,,15,,59,48
66240,note_on,,0,0,12,,,,,,,,,,,,,,,,15,,73,48
66240,note_on,,1,0,5,,,,,,,,,,,,,,,,2,,59,48
66359,note_on,,119,0,11,,,,,,,,,,,,,,,,13,,59,0
66359,note_on,,0,0,12,,,,,,,,,,,,,,,,15,,59,0
66359,note_on,,0,0,12,,,,,,,,,,,,,,,,15,,68,0
66359,note_on,,0,0,12,,,,,,,,,,,,,,,,15,,73,0
66359,note_on,,119,0,12,,,,,,,,,,,,,,,,15,,77,0
66359,note_on,,119,0,5,,,,,,,,,,,,,,,,2,,59,0
66360,note_on,,1,0,12,,,,,,,,,,,,,,,,15,,57,48
66360,note_on,,0,0,12,,,,,,,,,,,,,,,,15,,73,48
66360,note_on,,0,0,12,,,,,,,,,,,,,,,,15,,69,48
66360,note_on,,1,0,11,,,,,,,,,,,,,,,,13,,57,48
66360,note_on,,1,0,5,,,,,,,,,,,,,,,,2,,57,48
66360,note_on,,0,0,12,,,,,,,,,,,,,,,,15,,78,48
66480,note_on,,241,0,7,,,,,,,,,,,,,,,,8,,61,72
66599,note_on,,239,0,11,,,,,,,,,,,,,,,,13,,57,0
66599,note_on,,119,0,7,,,,,,,,,,,,,,,,8,,61,0
66599,note_on,,239,0,12,,,,,,,,,,,,,,,,15,,57,0
66599,note_on,,0,0,12,,,,,,,,,,,,,,,,15,,78,0
66599,note_on,,0,0,12,,,,,,,,,,,,,,,,15,,73,0
66599,note_on,,0,0,12,,,,,,,,,,,,,,,,15,,69,0
66599,note_on,,239,0,5,,,,,,,,,,,,,,,,2,,57,0
66600,note_on,,1,0,11,,,,,,,,,,,,,,,,13,,45,48
66600,note_on,,1,0,7,,,,,,,,,,,,,,,,8,,54,72
66600,note_on,,1,0,5,,,,,,,,,,,,,,,,2,,45,48
66600,note_on,,1,0,12,,,,,,,,,,,,,,,,15,,45,48
66719,note_on,,119,0,12,,,,,,,,,,,,,,,,15,,45,0
66719,note_on,,119,0,11,,,,,,,,,,,,,,,,13,,45,0
66719,note_on,,119,0,5,,,,,,,,,,,,,,,,2,,45,0
66719,note_on,,119,0,7,,,,,,,,,,,,,,,,8,,54,0
66720,note_on,,0,0,12,,,,,,,,,,,,,,,,15,,71,48
66720,note_on,,1,0,5,,,,,,,,,,,,,,,,2,,47,48
66720,note_on,,0,0,12,,,,,,,,,,,,,,,,15,,66,48
66720,note_on,,0,0,12,,,,,,,,,,,,,,,,15,,74,48
66720,note_on,,1,0,7,,,,,,,,,,,,,,,,8,,62,72
66720,note_on,,1,0,12,,,,,,,,,,,,,,,,15,,47,48
66720,note_on,,1,0,11,,,,,,,,,,,,,,,,13,,47,48
66839,note_on,,119,0,12,,,,,,,,,,,,,,,,15,,47,0
66839,note_on,,119,0,11,,,,,,,,,,,,,,,,13,,47,0
66839,note_on,,119,0,5,,,,,,,,,,,,,,,,2,,47,0
66840,note_on,,1,0,11,,,,,,,,,,,,,,,,13,,49,48
66840,note_on,,1,0,5,,,,,,,,,,,,,,,,2,,49,48
66840,note_on,,1,0,12,,,,,,,,,,,,,,,,15,,49,48
66899,note_on,,179,0,7,,,,,,,,,,,,,,,,8,,62,0
66900,note_on,,1,0,7,,,,,,,,,,,,,,,,8,,61,72
66959,note_on,,59,0,7,,,,,,,,,,,,,,,,8,,61,0
66959,note_on,,119,0,12,,,,,,,,,,,,,,,,15,,71,0
66959,note_on,,119,0,11,,,,,,,,,,,,,,,,13,,49,0
66959,note_on,,0,0,12,,,,,,,,,,,,,,,,15,,74,0
66959,note_on,,0,0,12,,,,,,,,,,,,,,,,15,,49,0
66959,note_on,,0,0,12,,,,,,,,,,,,,,,,15,,66,0
66959,note_on,,119,0,5,,,,,,,,,,,,,,,,2,,49,0
66960,note_on,,1,0,12,,,,,,,,,,,,,,,,15,,50,48
66960,note_on,,1,0,7,,,,,,,,,,,,,,,,8,,59,72
66960,note_on,,1,0,5,,,,,,,,,,,,,,,,2,,50,48
66960,note_on,,1,0,11,,,,,,,,,,,,,,,,13,,50,48
67019,note_on,,59,0,7,,,,,,,,,,,,,,,,8,,59,0
67020,note_on,,1,0,7,,,,,,,,,,,,,,,,8,,57,72
67079,note_on,,119,0,5,,,,,,,,,,,,,,,,2,,50,0
67079,note_on,,119,0,11,,,,,,,,,,,,,,,,13,,50,0
67079,note_on,,119,0,12,,,,,,,,,,,,,,,,15,,50,0
67079,note_on,,59,0,7,,,,,,,,,,,,,,,,8,,57,0
67080,note_on,,0,0,12,,,,,,,,,,,,,,,,15,,71,48
67080,note_on,,1,0,7,,,,,,,,,,,,,,,,8,,56,72
67080,note_on,,0,0,12,,,,,,,,,,,,,,,,15,,52,48
67080,note_on,,1,0,11,,,,,,,,,,,,,,,,13,,52,48
67080,note_on,,0,0,12,,,,,,,,,,,,,,,,15,,68,48
67080,note_on,,1,0,5,,,,,,,,,,,,,,,,2,,52,48
67080,note_on,,1,0,12,,,,,,,,,,,,,,,,15,,64,48
67139,note_on,,59,0,7,,,,,,,,,,,,,,,,8,,56,0
67140,note_on,,1,0,7,,,,,,,,,,,,,,,,8,,54,72
67199,note_on,,59,0,7,,,,,,,,,,,,,,,,8,,54,0
67199,note_on,,0,0,12,,,,,,,,,,,,,,,,15,,68,0
67199,note_on,,119,0,12,,,,,,,,,,,,,,,,15,,64,0
67199,note_on,,119,0,5,,,,,,,,,,,,,,,,2,,52,0
67199,note_on,,119,0,11,,,,,,,,,,,,,,,,13,,52,0
67199,note_on,,0,0,12,,,,,,,,,,,,,,,,15,,52,0
67199,note_on,,0,0,12,,,,,,,,,,,,,,,,15,,71,0
67200,note_on,,0,0,12,,,,,,,,,,,,,,,,15,,76,48
67200,note_on,,0,0,12,,,,,,,,,,,,,,,,15,,44,48
67200,note_on,,0,0,12,,,,,,,,,,,,,,,,15,,64,48
67200,note_on,,1,0,5,,,,,,,,,,,,,,,,2,,44,48
67200,note_on,,1,0,12,,,,,,,,,,,,,,,,15,,71,48
67200,note_on,,1,0,7,,,,,,,,,,,,,,,,8,,52,72
67200,note_on,,1,0,11,,,,,,,,,,,,,,,,13,,44,48
67259,note_on,,59,0,7,,,,,,,,,,,,,,,,8,,52,0
67260,note_on,,1,0,7,,,,,,,,,,,,,,,,8,,59,72
67319,note_on,,119,0,12,,,,,,,,,,,,,,,,15,,71,0
67319,note_on,,59,0,7,,,,,,,,,,,,,,,,8,,59,0
67319,note_on,,0,0,12,,,,,,,,,,,,,,,,15,,64,0
67319,note_on,,119,0,5,,,,,,,,,,,,,,,,2,,44,0
67319,note_on,,119,0,11,,,,,,,,,,,,,,,,13,,44,0
67319,note_on,,0,0,12,,,,,,,,,,,,,,,,15,,76,0
67319,note_on,,0,0,12,,,,,,,,,,,,,,,,15,,44,0
67320,note_on,,1,0,12,,,,,,,,,,,,,,,,15,,71,48
67320,note_on,,0,0,12,,,,,,,,,,,,,,,,15,,40,48
67320,note_on,,1,0,11,,,,,,,,,,,,,,,,13,,40,48
67320,note_on,,0,0,12,,,,,,,,,,,,,,,,15,,64,48
67320,note_on,,0,0,12,,,,,,,,,,,,,,,,15,,68,48
67320,note_on,,1,0,5,,,,,,,,,,,,,,,,2,,40,48
67320,note_on,,1,0,7,,,,,,,,,,,,,,,,8,,61,72
67379,note_on,,59,0,7,,,,,,,,,,,,,,,,8,,61,0
67380,note_on,,1,0,7,,,,,,,,,,,,,,,,8,,62,72
67439,note_on,,119,0,5,,,,,,,,,,,,,,,,2,,40,0
67439,note_on,,0,0,12,,,,,,,,,,,,,,,,15,,40,0
67439,note_on,,59,0,7,,,,,,,,,,,,,,,,8,,62,0
67439,note_on,,0,0,12,,,,,,,,,,,,,,,,15,,64,0
67439,note_on,,0,0,12,,,,,,,,,,,,,,,,15,,68,0
67439,note_on,,119,0,11,,,,,,,,,,,,,,,,13,,40,0
67439,note_on,,119,0,12,,,,,,,,,,,,,,,,15,,71,0
67440,note_on,,1,0,7,,,,,,,,,,,,,,,,8,,61,72
67440,note_on,,1,0,11,,,,,,,,,,,,,,,,13,,45,48
67440,note_on,,0,0,12,,,,,,,,,,,,,,,,15,,45,48
67440,note_on,,0,0,12,,,,,,,,,,,,,,,,15,,69,48
67440,note_on,,1,0,12,,,,,,,,,,,,,,,,15,,73,48
67440,note_on,,1,0,5,,,,,,,,,,,,,,,,2,,45,48
67440,note_on,,0,0,12,,,,,,,,,,,,,,,,15,,64,48
67559,note_on,,119,0,11,,,,,,,,,,,,,,,,13,,45,0
67559,note_on,,119,0,12,,,,,,,,,,,,,,,,15,,45,0
67559,note_on,,119,0,5,,,,,,,,,,,,,,,,2,,45,0
67560,note_on,,1,0,11,,,,,,,,,,,,,,,,13,,47,48
67560,note_on,,1,0,5,,,,,,,,,,,,,,,,2,,47,48
67560,note_on,,1,0,12,,,,,,,,,,,,,,,,15,,47,48
67619,note_on,,179,0,7,,,,,,,,,,,,,,,,8,,61,0
67620,note_on,,1,0,7,,,,,,,,,,,,,,,,8,,59,72
67679,note_on,,0,0,12,,,,,,,,,,,,,,,,15,,47,0
67679,note_on,,119,0,5,,,,,,,,,,,,,,,,2,,47,0
67679,note_on,,0,0,12,,,,,,,,,,,,,,,,15,,64,0
67679,note_on,,0,0,12,,,,,,,,,,,,,,,,15,,69,0
67679,note_on,,119,0,12,,,,,,,,,,,,,,,,15,,73,0
67679,note_on,,59,0,7,,,,,,,,,,,,,,,,8,,59,0
67679,note_on,,119,0,11,,,,,,,,,,,,,,,,13,,47,0
67680,note_on,,1,0,12,,,,,,,,,,,,,,,,15,,49,48
67680,note_on,,1,0,5,,,,,,,,,,,,,,,,2,,49,48
67680,note_on,,1,0,11,,,,,,,,,,,,,,,,13,,49,48
67680,note_on,,1,0,7,,,,,,,,,,,,,,,,8,,57,72
67739,note_on,,59,0,7,,,,,,,,,,,,,,,,8,,57,0
67740,note_on,,1,0,7,,,,,,,,,,,,,,,,8,,56,72
67799,note_on,,119,0,5,,,,,,,,,,,,,,,,2,,49,0
67799,note_on,,119,0,12,,,,,,,,,,,,,,,,15,,49,0
67799,note_on,,59,0,7,,,,,,,,,,,,,,,,8,,56,0
67799,note_on,,119,0,11,,,,,,,,,,,,,,,,13,,49,0
67800,note_on,,1,0,7,,,,,,,,,,,,,,,,8,,54,72
67800,note_on,,0,0,12,,,,,,,,,,,,,,,,15,,66,48
67800,note_on,,1,0,11,,,,,,,,,,,,,,,,13,,50,48
67800,note_on,,0,0,12,,,,,,,,,,,,,,,,15,,69,48
67800,note_on,,0,0,12,,,,,,,,,,,,,,,,15,,62,48
67800,note_on,,1,0,5,,,,,,,,,,,,,,,,2,,50,48
67800,note_on,,1,0,12,,,,,,,,,,,,,,,,15,,50,48
67859,note_on,,59,0,7,,,,,,,,,,,,,,,,8,,54,0
67860,note_on,,1,0,7,,,,,,,,,,,,,,,,8,,52,72
67919,note_on,,119,0,11,,,,,,,,,,,,,,,,13,,50,0
67919,note_on,,59,0,7,,,,,,,,,,,,,,,,8,,52,0
67919,note_on,,0,0,12,,,,,,,,,,,,,,,,15,,69,0
67919,note_on,,0,0,12,,,,,,,,,,,,,,,,15,,66,0
67919,note_on,,119,0,12,,,,,,,,,,,,,,,,15,,50,0
67919,note_on,,119,0,5,,,,,,,,,,,,,,,,2,,50,0
67920,note_on,,0,0,12,,,,,,,,,,,,,,,,15,,69,48
67920,note_on,,0,0,12,,,,,,,,,,,,,,,,15,,54,48
67920,note_on,,1,0,12,,,,,,,,,,,,,,,,15,,74,48
67920,note_on,,1,0,5,,,,,,,,,,,,,,,,2,,54,48
67920,note_on,,1,0,7,,,,,,,,,,,,,,,,8,,50,72
67920,note_on,,1,0,11,,,,,,,,,,,,,,,,13,,54,48
67979,note_on,,59,0,7,,,,,,,,,,,,,,,,8,,50,0
67980,note_on,,1,0,7,,,,,,,,,,,,,,,,8,,57,72
68039,note_on,,119,0,5,,,,,,,,,,,,,,,,2,,54,0
68039,note_on,,59,0,7,,,,,,,,,,,,,,,,8,,57,0
68039,note_on,,119,0,11,,,,,,,,,,,,,,,,13,,54,0
68039,note_on,,119,0,12,,,,,,,,,,,,,,,,15,,62,0
68039,note_on,,0,0,12,,,,,,,,,,,,,,,,15,,74,0
68039,note_on,,0,0,12,,,,,,,,,,,,,,,,15,,69,0
68039,note_on,,0,0,12,,,,,,,,,,,,,,,,15,,54,0
68040,note_on,,0,0,12,,,,,,,,,,,,,,,,15,,62,48
68040,note_on,,0,0,12,,,,,,,,,,,,,,,,15,,66,48
68040,note_on,,0,0,12,,,,,,,,,,,,,,,,15,,69,48
68040,note_on,,1,0,7,,,,,,,,,,,,,,,,8,,59,72
68040,note_on,,1,0,12,,,,,,,,,,,,,,,,15,,50,48
68040,note_on,,1,0,5,,,,,,,,,,,,,,,,2,,50,48
68040,note_on,,1,0,11,,,,,,,,,,,,,,,,13,,50,48
68099,note_on,,59,0,7,,,,,,,,,,,,,,,,8,,59,0
68100,note_on,,1,0,7,,,,,,,,,,,,,,,,8,,61,72
68159,note_on,,119,0,5,,,,,,,,,,,,,,,,2,,50,0
68159,note_on,,0,0,12,,,,,,,,,,,,,,,,15,,69,0
68159,note_on,,0,0,12,,,,,,,,,,,,,,,,15,,66,0
68159,note_on,,119,0,11,,,,,,,,,,,,,,,,13,,50,0
68159,note_on,,59,0,7,,,,,,,,,,,,,,,,8,,61,0
68159,note_on,,119,0,12,,,,,,,,,,,,,,,,15,,50,0
68159,note_on,,0,0,12,,,,,,,,,,,,,,,,15,,62,0
68160,note_on,,1,0,11,,,,,,,,,,,,,,,,13,,44,48
68160,note_on,,1,0,7,,,,,,,,,,,,,,,,8,,59,72
68160,note_on,,1,0,12,,,,,,,,,,,,,,,,15,,62,48
68160,note_on,,1,0,5,,,,,,,,,,,,,,,,2,,44,48
68160,note_on,,0,0,12,,,,,,,,,,,,,,,,15,,44,48
68160,note_on,,0,0,12,,,,,,,,,,,,,,,,15,,71,48
68160,note_on,,0,0,12,,,,,,,,,,,,,,,,15,,66,48
68279,note_on,,119,0,5,,,,,,,,,,,,,,,,2,,44,0
68279,note_on,,119,0,11,,,,,,,,,,,,,,,,13,,44,0
68279,note_on,,119,0,12,,,,,,,,,,,,,,,,15,,44,0
68280,note_on,,1,0,5,,,,,,,,,,,,,,,,2,,45,48
68280,note_on,,1,0,11,,,,,,,,,,,,,,,,13,,45,48
68280,note_on,,1,0,12,,,,,,,,,,,,,,,,15,,45,48
68339,note_on,,179,0,7,,,,,,,,,,,,,,,,8,,59,0
68340,note_on,,1,0,7,,,,,,,,,,,,,,,,8,,57,72
68399,note_on,,119,0,5,,,,,,,,,,,,,,,,2,,45,0
68399,note_on,,59,0,7,,,,,,,,,,,,,,,,8,,57,0
68399,note_on,,119,0,12,,,,,,,,,,,,,,,,15,,62,0
68399,note_on,,0,0,12,,,,,,,,,,,,,,,,15,,45,0
68399,note_on,,119,0,11,,,,,,,,,,,,,,,,13,,45,0
68399,note_on,,0,0,12,,,,,,,,,,,,,,,,15,,71,0
68399,note_on,,0,0,12,,,,,,,,,,,,,,,,15,,66,0
68400,note_on,,1,0,12,,,,,,,,,,,,,,,,15,,47,48
68400,note_on,,1,0,11,,,,,,,,,,,,,,,,13,,47,48
68400,note_on,,1,0,5,,,,,,,,,,,,,,,,2,,47,48
68400,note_on,,1,0,7,,,,,,,,,,,,,,,,8,,56,72
68459,note_on,,59,0,7,,,,,,,,,,,,,,,,8,,56,0
68460,note_on,,1,0,7,,,,,,,,,,,,,,,,8,,54,72
68519,note_on,,119,0,11,,,,,,,,,,,,,,,,13,,47,0
68519,note_on,,59,0,7,,,,,,,,,,,,,,,,8,,54,0
68519,note_on,,119,0,12,,,,,,,,,,,,,,,,15,,47,0
68519,note_on,,119,0,5,,,,,,,,,,,,,,,,2,,47,0
68520,note_on,,1,0,11,,,,,,,,,,,,,,,,13,,49,48
68520,note_on,,1,0,5,,,,,,,,,,,,,,,,2,,49,48
68520,note_on,,0,0,12,,,,,,,,,,,,,,,,15,,49,48
68520,note_on,,0,0,12,,,,,,,,,,,,,,,,15,,65,48
68520,note_on,,1,0,12,,,,,,,,,,,,,,,,15,,68,48
68520,note_on,,1,0,7,,,,,,,,,,,,,,,,8,,53,72
68520,note_on,,0,0,12,,,,,,,,,,,,,,,,15,,61,48
68579,note_on,,59,0,7,,,,,,,,,,,,,,,,8,,53,0
68580,note_on,,1,0,7,,,,,,,,,,,,,,,,8,,51,72
68639,note_on,,119,0,11,,,,,,,,,,,,,,,,13,,49,0
68639,note_on,,119,0,5,,,,,,,,,,,,,,,,2,,49,0
68639,note_on,,59,0,7,,,,,,,,,,,,,,,,8,,51,0
68639,note_on,,119,0,12,,,,,,,,,,,,,,,,15,,49,0
68640,note_on,,1,0,11,,,,,,,,,,,,,,,,13,,53,48
68640,note_on,,1,0,5,,,,,,,,,,,,,,,,2,,53,48
68640,note_on,,1,0,7,,,,,,,,,,,,,,,,8,,49,72
68640,note_on,,1,0,12,,,,,,,,,,,,,,,,15,,53,48
68699,note_on,,59,0,7,,,,,,,,,,,,,,,,8,,49,0
68700,note_on,,1,0,7,,,,,,,,,,,,,,,,8,,56,72
68759,note_on,,0,0,12,,,,,,,,,,,,,,,,15,,61,0
68759,note_on,,0,0,12,,,,,,,,,,,,,,,,15,,53,0
68759,note_on,,119,0,5,,,,,,,,,,,,,,,,2,,53,0
68759,note_on,,0,0,12,,,,,,,,,,,,,,,,15,,65,0
68759,note_on,,119,0,11,,,,,,,,,,,,,,,,13,,53,0
68759,note_on,,119,0,12,,,,,,,,,,,,,,,,15,,68,0
68759,note_on,,59,0,7,,,,,,,,,,,,,,,,8,,56,0
68760,note_on,,1,0,5,,,,,,,,,,,,,,,,2,,49,48
68760,note_on,,1,0,11,,,,,,,,,,,,,,,,13,,49,48
68760,note_on,,1,0,12,,,,,,,,,,,,,,,,15,,49,48
68760,note_on,,1,0,7,,,,,,,,,,,,,,,,8,,57,72
68819,note_on,,59,0,7,,,,,,,,,,,,,,,,8,,57,0
68820,note_on,,1,0,7,,,,,,,,,,,,,,,,8,,59,72
68879,note_on,,119,0,5,,,,,,,,,,,,,,,,2,,49,0
68879,note_on,,59,0,7,,,,,,,,,,,,,,,,8,,59,0
68879,note_on,,119,0,12,,,,,,,,,,,,,,,,15,,49,0
68879,note_on,,119,0,11,,,,,,,,,,,,,,,,13,,49,0
68880,note_on,,1,0,5,,,,,,,,,,,,,,,,2,,54,48
68880,note_on,,1,0,7,,,,,,,,,,,,,,,,8,,57,72
68880,note_on,,1,0,12,,,,,,,,,,,,,,,,15,,69,48
68880,note_on,,0,0,12,,,,,,,,,,,,,,,,15,,61,48
68880,note_on,,0,0,12,,,,,,,,,,,,,,,,15,,54,48
68880,note_on,,0,0,12,,,,,,,,,,,,,,,,15,,66,48
68880,note_on,,1,0,11,,,,,,,,,,,,,,,,13,,54,48
68939,note_on,,59,0,7,,,,,,,,,,,,,,,,8,,57,0
68940,note_on,,1,0,7,,,,,,,,,,,,,,,,8,,56,72
68999,note_on,,119,0,12,,,,,,,,,,,,,,,,15,,54,0
68999,note_on,,119,0,5,,,,,,,,,,,,,,,,2,,54,0
68999,note_on,,119,0,11,,,,,,,,,,,,,,,,13,,54,0
68999,note_on,,59,0,7,,,,,,,,,,,,,,,,8,,56,0
69000,note_on,,1,0,5,,,,,,,,,,,,,,,,2,,45,48
69000,note_on,,1,0,12,,,,,,,,,,,,,,,,15,,45,48
69000,note_on,,1,0,7,,,,,,,,,,,,,,,,8,,54,72
69000,note_on,,1,0,11,,,,,,,,,,,,,,,,13,,45,48
69059,note_on,,59,0,7,,,,,,,,,,,,,,,,8,,54,0
69060,note_on,,1,0,7,,,,,,,,,,,,,,,,8,,57,72
69119,note_on,,0,0,12,,,,,,,,,,,,,,,,15,,66,0
69119,note_on,,119,0,5,,,,,,,,,,,,,,,,2,,45,0
69119,note_on,,119,0,11,,,,,,,,,,,,,,,,13,,45,0
69119,note_on,,0,0,12,,,,,,,,,,,,,,,,15,,45,0
69119,note_on,,0,0,12,,,,,,,,,,,,,,,,15,,61,0
69119,note_on,,119,0,12,,,,,,,,,,,,,,,,15,,69,0
69119,note_on,,59,0,7,,,,,,,,,,,,,,,,8,,57,0
69120,note_on,,1,0,7,,,,,,,,,,,,,,,,8,,59,72
69120,note_on,,1,0,12,,,,,,,,,,,,,,,,15,,42,48
69120,note_on,,1,0,5,,,,,,,,,,,,,,,,2,,42,48
69120,note_on,,1,0,11,,,,,,,,,,,,,,,,13,,42,48
69179,note_on,,59,0,7,,,,,,,,,,,,,,,,8,,59,0
69180,note_on,,1,0,7,,,,,,,,,,,,,,,,8,,61,72
69239,note_on,,59,0,7,,,,,,,,,,,,,,,,8,,61,0
69239,note_on,,119,0,5,,,,,,,,,,,,,,,,2,,42,0
69239,note_on,,119,0,11,,,,,,,,,,,,,,,,13,,42,0
69239,note_on,,119,0,12,,,,,,,,,,,,,,,,15,,42,0
69240,note_on,,1,0,11,,,,,,,,,,,,,,,,13,,44,48
69240,note_on,,1,0,12,,,,,,,,,,,,,,,,15,,71,48
69240,note_on,,0,0,12,,,,,,,,,,,,,,,,15,,76,48
69240,note_on,,0,0,12,,,,,,,,,,,,,,,,15,,64,48
69240,note_on,,1,0,7,,,,,,,,,,,,,,,,8,,59,72
69240,note_on,,0,0,12,,,,,,,,,,,,,,,,15,,44,48
69240,note_on,,1,0,5,,,,,,,,,,,,,,,,2,,44,48
69299,note_on,,59,0,7,,,,,,,,,,,,,,,,8,,59,0
69300,note_on,,1,0,7,,,,,,,,,,,,,,,,8,,57,72
69359,note_on,,119,0,11,,,,,,,,,,,,,,,,13,,44,0
69359,note_on,,119,0,12,,,,,,,,,,,,,,,,15,,44,0
69359,note_on,,59,0,7,,,,,,,,,,,,,,,,8,,57,0
69359,note_on,,119,0,5,,,,,,,,,,,,,,,,2,,44,0
69360,note_on,,1,0,7,,,,,,,,,,,,,,,,8,,56,72
69360,note_on,,1,0,11,,,,,,,,,,,,,,,,13,,47,48
69360,note_on,,1,0,12,,,,,,,,,,,,,,,,15,,47,48
69360,note_on,,1,0,5,,,,,,,,,,,,,,,,2,,47,48
69419,note_on,,59,0,7,,,,,,,,,,,,,,,,8,,56,0
69420,note_on,,1,0,7,,,,,,,,,,,,,,,,8,,59,72
69479,note_on,,0,0,12,,,,,,,,,,,,,,,,15,,47,0
69479,note_on,,119,0,5,,,,,,,,,,,,,,,,2,,47,0
69479,note_on,,0,0,12,,,,,,,,,,,,,,,,15,,76,0
69479,note_on,,119,0,11,,,,,,,,,,,,,,,,13,,47,0
69479,note_on,,119,0,12,,,,,,,,,,,,,,,,15,,71,0
69479,note_on,,0,0,12,,,,,,,,,,,,,,,,15,,64,0
69479,note_on,,59,0,7,,,,,,,,,,,,,,,,8,,59,0
69480,note_on,,1,0,12,,,,,,,,,,,,,,,,15,,44,48
69480,note_on,,1,0,11,,,,,,,,,,,,,,,,13,,44,48
69480,note_on,,1,0,5,,,,,,,,,,,,,,,,2,,44,48
69480,note_on,,1,0,7,,,,,,,,,,,,,,,,8,,61,72
69539,note_on,,59,0,7,,,,,,,,,,,,,,,,8,,61,0
69540,note_on,,1,0,7,,,,,,,,,,,,,,,,8,,62,72
69599,note_on,,59,0,7,,,,,,,,,,,,,,,,8,,62,0
69599,note_on,,119,0,5,,,,,,,,,,,,,,,,2,,44,0
69599,note_on,,119,0,12,,,,,,,,,,,,,,,,15,,44,0
69599,note_on,,119,0,11,,,,,,,,,,,,,,,,13,,44,0
69600,note_on,,1,0,11,,,,,,,,,,,,,,,,13,,45,48
69600,note_on,,0,0,12,,,,,,,,,,,,,,,,15,,69,48
69600,note_on,,0,0,12,,,,,,,,,,,,,,,,15,,64,48
69600,note_on,,1,0,12,,,,,,,,,,,,,,,,15,,45,48
69600,note_on,,1,0,5,,,,,,,,,,,,,,,,2,,45,48
69600,note_on,,0,0,12,,,,,,,,,,,,,,,,15,,73,48
69600,note_on,,1,0,7,,,,,,,,,,,,,,,,8,,61,72
69719,note_on,,119,0,12,,,,,,,,,,,,,,,,15,,45,0
69719,note_on,,0,0,12,,,,,,,,,,,,,,,,15,,73,0
69719,note_on,,0,0,12,,,,,,,,,,,,,,,,15,,64,0
69719,note_on,,0,0,12,,,,,,,,,,,,,,,,15,,69,0
69719,note_on,,119,0,11,,,,,,,,,,,,,,,,13,,45,0
69719,note_on,,119,0,5,,,,,,,,,,,,,,,,2,,45,0
69720,note_on,,0,0,12,,,,,,,,,,,,,,,,15,,57,48
69720,note_on,,0,0,12,,,,,,,,,,,,,,,,15,,78,48
69720,note_on,,0,0,12,,,,,,,,,,,,,,,,15,,73,48
69720,note_on,,1,0,5,,,,,,,,,,,,,,,,2,,57,48
69720,note_on,,1,0,12,,,,,,,,,,,,,,,,15,,66,48
69720,note_on,,1,0,11,,,,,,,,,,,,,,,,13,,57,48
69779,note_on,,179,0,7,,,,,,,,,,,,,,,,8,,61,0
69780,note_on,,1,0,7,,,,,,,,,,,,,,,,8,,54,72
69839,note_on,,0,0,12,,,,,,,,,,,,,,,,15,,73,0
69839,note_on,,0,0,12,,,,,,,,,,,,,,,,15,,78,0
69839,note_on,,0,0,12,,,,,,,,,,,,,,,,15,,57,0
69839,note_on,,119,0,12,,,,,,,,,,,,,,,,15,,66,0
69839,note_on,,119,0,5,,,,,,,,,,,,,,,,2,,57,0
69839,note_on,,59,0,7,,,,,,,,,,,,,,,,8,,54,0
69839,note_on,,119,0,11,,,,,,,,,,,,,,,,13,,57,0
69840,note_on,,1,0,12,,,,,,,,,,,,,,,,15,,54,48
69840,note_on,,1,0,7,,,,,,,,,,,,,,,,8,,54,72
69840,note_on,,1,0,5,,,,,,,,,,,,,,,,2,,54,48
69840,note_on,,0,0,12,,,,,,,,,,,,,,,,15,,66,48
69840,note_on,,0,0,12,,,,,,,,,,,,,,,,15,,73,48
69840,note_on,,0,0,12,,,,,,,,,,,,,,,,15,,69,48
69840,note_on,,1,0,11,,,,,,,,,,,,,,,,13,,54,48
69959,note_on,,119,0,7,,,,,,,,,,,,,,,,8,,54,0
69959,note_on,,119,0,5,,,,,,,,,,,,,,,,2,,54,0
69959,note_on,,0,0,12,,,,,,,,,,,,,,,,15,,69,0
69959,note_on,,0,0,12,,,,,,,,,,,,,,,,15,,73,0
69959,note_on,,0,0,12,,,,,,,,,,,,,,,,15,,66,0
69959,note_on,,119,0,12,,,,,,,,,,,,,,,,15,,54,0
69959,note_on,,119,0,11,,,,,,,,,,,,,,,,13,,54,0
69960,note_on,,1,0,5,,,,,,,,,,,,,,,,2,,59,48
69960,note_on,,0,0,12,,,,,,,,,,,,,,,,15,,59,48
69960,note_on,,0,0,12,,,,,,,,,,,,,,,,15,,74,48
69960,note_on,,0,0,12,,,,,,,,,,,,,,,,15,,71,48
69960,note_on,,1,0,11,,,,,,,,,,,,,,,,13,,59,48
69960,note_on,,1,0,12,,,,,,,,,,,,,,,,15,,66,48
70079,note_on,,119,0,12,,,,,,,,,,,,,,,,15,,59,0
70079,note_on,,119,0,5,,,,,,,,,,,,,,,,2,,59,0
70079,note_on,,119,0,11,,,,,,,,,,,,,,,,13,,59,0
70080,note_on,,121,0,7,,,,,,,,,,,,,,,,8,,62,72
70080,note_on,,1,0,11,,,,,,,,,,,,,,,,13,,47,48
70080,note_on,,1,0,5,,,,,,,,,,,,,,,,2,,47,48
70080,note_on,,1,0,12,,,,,,,,,,,,,,,,15,,47,48
70199,note_on,,119,0,7,,,,,,,,,,,,,,,,8,,62,0
70199,note_on,,119,0,12,,,,,,,,,,,,,,,,15,,66,0
70199,note_on,,0,0,12,,,,,,,,,,,,,,,,15,,71,0
70199,note_on,,119,0,11,,,,,,,,,,,,,,,,13,,47,0
70199,note_on,,119,0,5,,,,,,,,,,,,,,,,2,,47,0
70199,note_on,,0,0,12,,,,,,,,,,,,,,,,15,,74,0
70199,note_on,,0,0,12,,,,,,,,,,,,,,,,15,,47,0
70200,note_on,,0,0,12,,,,,,,,,,,,,,,,15,,49,48
70200,note_on,,0,0,12,,,,,,,,,,,,,,,,15,,64,48
70200,note_on,,0,0,12,,,,,,,,,,,,,,,,15,,70,48
70200,note_on,,1,0,12,,,,,,,,,,,,,,,,15,,73,48
70200,note_on,,1,0,7,,,,,,,,,,,,,,,,8,,61,72
70200,note_on,,1,0,5,,,,,,,,,,,,,,,,2,,49,48
70200,note_on,,1,0,11,,,,,,,,,,,,,,,,13,,49,48
70319,note_on,,119,0,12,,,,,,,,,,,,,,,,15,,73,0
70319,note_on,,0,0,12,,,,,,,,,,,,,,,,15,,70,0
70319,note_on,,0,0,12,,,,,,,,,,,,,,,,15,,64,0
70319,note_on,,0,0,12,,,,,,,,,,,,,,,,15,,49,0
70319,note_on,,119,0,7,,,,,,,,,,,,,,,,8,,61,0
70319,note_on,,119,0,5,,,,,,,,,,,,,,,,2,,49,0
70319,note_on,,119,0,11,,,,,,,,,,,,,,,,13,,49,0
70320,note_on,,1,0,12,,,,,,,,,,,,,,,,15,,66,48
70320,note_on,,0,0,12,,,,,,,,,,,,,,,,15,,71,48
70320,note_on,,0,0,12,,,,,,,,,,,,,,,,15,,62,48
70320,note_on,,0,0,12,,,,,,,,,,,,,,,,15,,50,48
70320,note_on,,1,0,5,,,,,,,,,,,,,,,,2,,50,48
70320,note_on,,1,0,7,,,,,,,,,,,,,,,,8,,59,72
70320,note_on,,1,0,11,,,,,,,,,,,,,,,,13,,50,48
70379,note_on,,59,0,7,,,,,,,,,,,,,,,,8,,59,0
70380,note_on,,1,0,7,,,,,,,,,,,,,,,,8,,58,72
70439,note_on,,59,0,7,,,,,,,,,,,,,,,,8,,58,0
70440,note_on,,1,0,7,,,,,,,,,,,,,,,,8,,59,72
70499,note_on,,0,0,12,,,,,,,,,,,,,,,,15,,62,0
70499,note_on,,179,0,12,,,,,,,,,,,,,,,,15,,66,0
70500,note_on,,1,0,12,,,,,,,,,,,,,,,,15,,64,48
70559,note_on,,59,0,12,,,,,,,,,,,,,,,,15,,64,0
70560,note_on,,1,0,12,,,,,,,,,,,,,,,,15,,62,48
70619,note_on,,59,0,12,,,,,,,,,,,,,,,,15,,62,0
70620,note_on,,1,0,12,,,,,,,,,,,,,,,,15,,61,48
70679,note_on,,359,0,5,,,,,,,,,,,,,,,,2,,50,0
70679,note_on,,359,0,11,,,,,,,,,,,,,,,,13,,50,0
70679,note_on,,0,0,12,,,,,,,,,,,,,,,,15,,61,0
70679,note_on,,0,0,12,,,,,,,,,,,,,,,,15,,50,0
70679,note_on,,59,0,12,,,,,,,,,,,,,,,,15,,71,0
70679,note_on,,239,0,7,,,,,,,,,,,,,,,,8,,59,0
70680,note_on,,1,0,7,,,,,,,,,,,,,,,,8,,59,72
70680,note_on,,0,0,12,,,,,,,,,,,,,,,,15,,47,48
70680,note_on,,1,0,5,,,,,,,,,,,,,,,,2,,47,48
70680,note_on,,0,0,12,,,,,,,,,,,,,,,,15,,62,48
70680,note_on,,1,0,12,,,,,,,,,,,,,,,,15,,66,48
70680,note_on,,1,0,11,,,,,,,,,,,,,,,,13,,47,48
70739,note_on,,59,0,12,,,,,,,,,,,,,,,,15,,62,0
70739,note_on,,59,0,7,,,,,,,,,,,,,,,,8,,59,0
70740,note_on,,1,0,12,,,,,,,,,,,,,,,,15,,61,48
70740,note_on,,1,0,7,,,,,,,,,,,,,,,,8,,58,72
70799,note_on,,59,0,12,,,,,,,,,,,,,,,,15,,61,0
70799,note_on,,59,0,7,,,,,,,,,,,,,,,,8,,58,0
70800,note_on,,1,0,12,,,,,,,,,,,,,,,,15,,59,48
70800,note_on,,1,0,7,,,,,,,,,,,,,,,,8,,59,72
70859,note_on,,59,0,12,,,,,,,,,,,,,,,,15,,59,0
70860,note_on,,1,0,12,,,,,,,,,,,,,,,,15,,57,48
70919,note_on,,59,0,12,,,,,,,,,,,,,,,,15,,66,0
70919,note_on,,0,0,12,,,,,,,,,,,,,,,,15,,57,0
70920,note_on,,0,0,12,,,,,,,,,,,,,,,,15,,62,48
70920,note_on,,1,0,12,,,,,,,,,,,,,,,,15,,56,48
70979,note_on,,59,0,12,,,,,,,,,,,,,,,,15,,56,0
70980,note_on,,1,0,12,,,,,,,,,,,,,,,,15,,54,48
71039,note_on,,359,0,11,,,,,,,,,,,,,,,,13,,47,0
71039,note_on,,0,0,12,,,,,,,,,,,,,,,,15,,62,0
71039,note_on,,59,0,12,,,,,,,,,,,,,,,,15,,47,0
71039,note_on,,0,0,12,,,,,,,,,,,,,,,,15,,54,0
71039,note_on,,359,0,5,,,,,,,,,,,,,,,,2,,47,0
71039,note_on,,239,0,7,,,,,,,,,,,,,,,,8,,59,0
71040,note_on,,1,0,12,,,,,,,,,,,,,,,,15,,56,48
71040,note_on,,0,0,12,,,,,,,,,,,,,,,,15,,41,48
71040,note_on,,0,0,12,,,,,,,,,,,,,,,,15,,68,48
71040,note_on,,1,0,7,,,,,,,,,,,,,,,,8,,49,72
71040,note_on,,1,0,11,,,,,,,,,,,,,,,,13,,41,48
71040,note_on,,0,0,12,,,,,,,,,,,,,,,,15,,61,48
71040,note_on,,1,0,5,,,,,,,,,,,,,,,,2,,41,48
71159,note_on,,119,0,12,,,,,,,,,,,,,,,,15,,41,0
71159,note_on,,119,0,11,,,,,,,,,,,,,,,,13,,41,0
71159,note_on,,119,0,5,,,,,,,,,,,,,,,,2,,41,0
71160,note_on,,1,0,5,,,,,,,,,,,,,,,,2,,49,48
71160,note_on,,1,0,11,,,,,,,,,,,,,,,,13,,49,48
71160,note_on,,1,0,12,,,,,,,,,,,,,,,,15,,49,48
71279,note_on,,119,0,11,,,,,,,,,,,,,,,,13,,49,0
71279,note_on,,119,0,5,,,,,,,,,,,,,,,,2,,49,0
71280,note_on,,1,0,11,,,,,,,,,,,,,,,,13,,47,48
71280,note_on,,1,0,5,,,,,,,,,,,,,,,,2,,47,48
71280,note_on,,120,0,12,,,,,,,,,,,,,,,,15,,47,48
71399,note_on,,119,0,5,,,,,,,,,,,,,,,,2,,47,0
71399,note_on,,0,0,12,,,,,,,,,,,,,,,,15,,47,0
71399,note_on,,0,0,12,,,,,,,,,,,,,,,,15,,49,0
71399,note_on,,359,0,7,,,,,,,,,,,,,,,,8,,49,0
71399,note_on,,0,0,12,,,,,,,,,,,,,,,,15,,61,0
71399,note_on,,0,0,12,,,,,,,,,,,,,,,,15,,68,0
71399,note_on,,119,0,12,,,,,,,,,,,,,,,,15,,56,0
71399,note_on,,119,0,11,,,,,,,,,,,,,,,,13,,47,0
71400,note_on,,0,0,12,,,,,,,,,,,,,,,,15,,61,48
71400,note_on,,1,0,5,,,,,,,,,,,,,,,,2,,45,48
71400,note_on,,0,0,12,,,,,,,,,,,,,,,,15,,66,48
71400,note_on,,0,0,12,,,,,,,,,,,,,,,,15,,45,48
71400,note_on,,1,0,12,,,,,,,,,,,,,,,,15,,54,48
71400,note_on,,1,0,11,,,,,,,,,,,,,,,,13,,45,48
71519,note_on,,119,0,12,,,,,,,,,,,,,,,,15,,54,0
71519,note_on,,0,0,12,,,,,,,,,,,,,,,,15,,61,0
71520,note_on,,121,0,7,,,,,,,,,,,,,,,,8,,54,72
71520,note_on,,1,0,12,,,,,,,,,,,,,,,,15,,61,48
71639,note_on,,119,0,7,,,,,,,,,,,,,,,,8,,54,0
71639,note_on,,239,0,5,,,,,,,,,,,,,,,,2,,45,0
71639,note_on,,119,0,12,,,,,,,,,,,,,,,,15,,45,0
71639,note_on,,239,0,11,,,,,,,,,,,,,,,,13,,45,0
71640,note_on,,1,0,11,,,,,,,,,,,,,,,,13,,44,48
71640,note_on,,1,0,5,,,,,,,,,,,,,,,,2,,44,48
71640,note_on,,0,0,12,,,,,,,,,,,,,,,,15,,44,48
71640,note_on,,1,0,12,,,,,,,,,,,,,,,,15,,59,48
71640,note_on,,1,0,7,,,,,,,,,,,,,,,,8,,54,72
71759,note_on,,0,0,12,,,,,,,,,,,,,,,,15,,59,0
71759,note_on,,119,0,11,,,,,,,,,,,,,,,,13,,44,0
71759,note_on,,119,0,7,,,,,,,,,,,,,,,,8,,54,0
71759,note_on,,0,0,12,,,,,,,,,,,,,,,,15,,61,0
71759,note_on,,0,0,12,,,,,,,,,,,,,,,,15,,44,0
71759,note_on,,119,0,5,,,,,,,,,,,,,,,,2,,44,0
71759,note_on,,119,0,12,,,,,,,,,,,,,,,,15,,66,0
71760,note_on,,1,0,5,,,,,,,,,,,,,,,,2,,42,48
71760,note_on,,1,0,11,,,,,,,,,,,,,,,,13,,42,48
71760,note_on,,1,0,7,,,,,,,,,,,,,,,,8,,54,72
71760,note_on,,1,0,12,,,,,,,,,,,,,,,,15,,57,48
71760,note_on,,0,0,12,,,,,,,,,,,,,,,,15,,42,48
71760,note_on,,0,0,12,,,,,,,,,,,,,,,,15,,66,48
71760,note_on,,0,0,12,,,,,,,,,,,,,,,,15,,69,48
71879,note_on,,119,0,11,,,,,,,,,,,,,,,,13,,42,0
71879,note_on,,119,0,12,,,,,,,,,,,,,,,,15,,42,0
71879,note_on,,119,0,5,,,,,,,,,,,,,,,,2,,42,0
71880,note_on,,1,0,11,,,,,,,,,,,,,,,,13,,50,48
71880,note_on,,1,0,5,,,,,,,,,,,,,,,,2,,50,48
71880,note_on,,1,0,12,,,,,,,,,,,,,,,,15,,50,48
71999,note_on,,119,0,12,,,,,,,,,,,,,,,,15,,50,0
71999,note_on,,119,0,11,,,,,,,,,,,,,,,,13,,50,0
71999,note_on,,119,0,5,,,,,,,,,,,,,,,,2,,50,0
72000,note_on,,1,0,11,,,,,,,,,,,,,,,,13,,49,48
72000,note_on,,1,0,12,,,,,,,,,,,,,,,,15,,49,48
72000,note_on,,1,0,5,,,,,,,,,,,,,,,,2,,49,48
72119,note_on,,119,0,11,,,,,,,,,,,,,,,,13,,49,0
72119,note_on,,0,0,12,,,,,,,,,,,,,,,,15,,66,0
72119,note_on,,119,0,5,,,,,,,,,,,,,,,,2,,49,0
72119,note_on,,0,0,12,,,,,,,,,,,,,,,,15,,49,0
72119,note_on,,0,0,12,,,,,,,,,,,,,,,,15,,69,0
72119,note_on,,119,0,12,,,,,,,,,,,,,,,,15,,57,0
72120,note_on,,0,0,12,,,,,,,,,,,,,,,,15,,47,48
72120,note_on,,1,0,11,,,,,,,,,,,,,,,,13,,47,48
72120,note_on,,0,0,12,,,,,,,,,,,,,,,,15,,62,48
72120,note_on,,0,0,12,,,,,,,,,,,,,,,,15,,66,48
72120,note_on,,1,0,5,,,,,,,,,,,,,,,,2,,47,48
72120,note_on,,1,0,12,,,,,,,,,,,,,,,,15,,68,48
72239,note_on,,479,0,7,,,,,,,,,,,,,,,,8,,54,0
72240,note_on,,1,0,7,,,,,,,,,,,,,,,,8,,56,72
72299,note_on,,59,0,7,,,,,,,,,,,,,,,,8,,56,0
72300,note_on,,1,0,7,,,,,,,,,,,,,,,,8,,54,72
72359,note_on,,59,0,7,,,,,,,,,,,,,,,,8,,54,0
72359,note_on,,239,0,5,,,,,,,,,,,,,,,,2,,47,0
72359,note_on,,239,0,12,,,,,,,,,,,,,,,,15,,47,0
72359,note_on,,239,0,11,,,,,,,,,,,,,,,,13,,47,0
72360,note_on,,1,0,7,,,,,,,,,,,,,,,,8,,53,72
72419,note_on,,59,0,7,,,,,,,,,,,,,,,,8,,53,0
72420,note_on,,1,0,7,,,,,,,,,,,,,,,,8,,54,72
72479,note_on,,120,0,12,,,,,,,,,,,,,,,,15,,68,0
72479,note_on,,0,0,12,,,,,,,,,,,,,,,,15,,62,0
72479,note_on,,59,0,7,,,,,,,,,,,,,,,,8,,54,0
72479,note_on,,0,0,12,,,,,,,,,,,,,,,,15,,66,0
72480,note_on,,1,0,12,,,,,,,,,,,,,,,,15,,66,48
72480,note_on,,0,0,12,,,,,,,,,,,,,,,,15,,62,48
72480,note_on,,0,0,12,,,,,,,,,,,,,,,,15,,71,48
72480,note_on,,1,0,7,,,,,,,,,,,,,,,,8,,56,72
72600,note_on,,120,0,12,,,,,,,,,,,,,,,,15,,47,48
72600,note_on,,241,0,11,,,,,,,,,,,,,,,,13,,47,48
72600,note_on,,241,0,5,,,,,,,,,,,,,,,,2,,47,48
72719,note_on,,119,0,5,,,,,,,,,,,,,,,,2,,47,0
72719,note_on,,119,0,11,,,,,,,,,,,,,,,,13,,47,0
72719,note_on,,119,0,12,,,,,,,,,,,,,,,,15,,47,0
72720,note_on,,1,0,11,,,,,,,,,,,,,,,,13,,44,48
72720,note_on,,1,0,5,,,,,,,,,,,,,,,,2,,44,48
72720,note_on,,1,0,12,,,,,,,,,,,,,,,,15,,44,48
72839,note_on,,119,0,5,,,,,,,,,,,,,,,,2,,44,0
72839,note_on,,0,0,12,,,,,,,,,,,,,,,,15,,62,0
72839,note_on,,0,0,12,,,,,,,,,,,,,,,,15,,71,0
72839,note_on,,0,0,12,,,,,,,,,,,,,,,,15,,44,0
72839,note_on,,119,0,12,,,,,,,,,,,,,,,,15,,66,0
72839,note_on,,119,0,11,,,,,,,,,,,,,,,,13,,44,0
72840,note_on,,1,0,12,,,,,,,,,,,,,,,,15,,49,48
72840,note_on,,0,0,12,,,,,,,,,,,,,,,,15,,65,48
72840,note_on,,0,0,12,,,,,,,,,,,,,,,,15,,61,48
72840,note_on,,0,0,12,,,,,,,,,,,,,,,,15,,68,48
72840,note_on,,1,0,5,,,,,,,,,,,,,,,,2,,49,48
72840,note_on,,1,0,11,,,,,,,,,,,,,,,,13,,49,48
72959,note_on,,479,0,7,,,,,,,,,,,,,,,,8,,56,0
72960,note_on,,1,0,7,,,,,,,,,,,,,,,,8,,57,72
73019,note_on,,59,0,7,,,,,,,,,,,,,,,,8,,57,0
73020,note_on,,1,0,7,,,,,,,,,,,,,,,,8,,56,72
73079,note_on,,239,0,12,,,,,,,,,,,,,,,,15,,49,0
73079,note_on,,239,0,5,,,,,,,,,,,,,,,,2,,49,0
73079,note_on,,59,0,7,,,,,,,,,,,,,,,,8,,56,0
73079,note_on,,239,0,11,,,,,,,,,,,,,,,,13,,49,0
73080,note_on,,1,0,7,,,,,,,,,,,,,,,,8,,54,72
73139,note_on,,59,0,7,,,,,,,,,,,,,,,,8,,54,0
73140,note_on,,1,0,7,,,,,,,,,,,,,,,,8,,56,72
73199,note_on,,59,0,7,,,,,,,,,,,,,,,,8,,56,0
73199,note_on,,120,0,12,,,,,,,,,,,,,,,,15,,65,0
73199,note_on,,0,0,12,,,,,,,,,,,,,,,,15,,61,0
73199,note_on,,0,0,12,,,,,,,,,,,,,,,,15,,68,0
73200,note_on,,0,0,12,,,,,,,,,,,,,,,,15,,61,48
73200,note_on,,1,0,12,,,,,,,,,,,,,,,,15,,73,48
73200,note_on,,1,0,7,,,,,,,,,,,,,,,,8,,57,72
73200,note_on,,0,0,12,,,,,,,,,,,,,,,,15,,66,48
73320,note_on,,120,0,12,,,,,,,,,,,,,,,,15,,49,48
73320,note_on,,241,0,11,,,,,,,,,,,,,,,,13,,49,48
73320,note_on,,241,0,5,,,,,,,,,,,,,,,,2,,49,48
73439,note_on,,119,0,5,,,,,,,,,,,,,,,,2,,49,0
73439,note_on,,119,0,11,,,,,,,,,,,,,,,,13,,49,0
73439,note_on,,119,0,12,,,,,,,,,,,,,,,,15,,49,0
73440,note_on,,1,0,12,,,,,,,,,,,,,,,,15,,45,48
73440,note_on,,1,0,5,,,,,,,,,,,,,,,,2,,45,48
73440,note_on,,1,0,11,,,,,,,,,,,,,,,,13,,45,48
73559,note_on,,119,0,11,,,,,,,,,,,,,,,,13,,45,0
73559,note_on,,119,0,5,,,,,,,,,,,,,,,,2,,45,0
73559,note_on,,119,0,12,,,,,,,,,,,,,,,,15,,73,0
73559,note_on,,0,0,12,,,,,,,,,,,,,,,,15,,61,0
73559,note_on,,0,0,12,,,,,,,,,,,,,,,,15,,66,0
73559,note_on,,0,0,12,,,,,,,,,,,,,,,,15,,45,0
73560,note_on,,1,0,5,,,,,,,,,,,,,,,,2,,50,48
73560,note_on,,1,0,12,,,,,,,,,,,,,,,,15,,69,48
73560,note_on,,0,0,12,,,,,,,,,,,,,,,,15,,62,48
73560,note_on,,1,0,11,,,,,,,,,,,,,,,,13,,50,48
73560,note_on,,0,0,12,,,,,,,,,,,,,,,,15,,50,48
73560,note_on,,0,0,12,,,,,,,,,,,,,,,,15,,66,48
73679,note_on,,479,0,7,,,,,,,,,,,,,,,,8,,57,0
73680,note_on,,1,0,7,,,,,,,,,,,,,,,,8,,59,72
73739,note_on,,59,0,7,,,,,,,,,,,,,,,,8,,59,0
73740,note_on,,1,0,7,,,,,,,,,,,,,,,,8,,57,72
73799,note_on,,239,0,5,,,,,,,,,,,,,,,,2,,50,0
73799,note_on,,59,0,7,,,,,,,,,,,,,,,,8,,57,0
73799,note_on,,239,0,12,,,,,,,,,,,,,,,,15,,50,0
73799,note_on,,239,0,11,,,,,,,,,,,,,,,,13,,50,0
73800,note_on,,1,0,7,,,,,,,,,,,,,,,,8,,56,72
73859,note_on,,59,0,7,,,,,,,,,,,,,,,,8,,56,0
73860,note_on,,1,0,7,,,,,,,,,,,,,,,,8,,57,72
73919,note_on,,59,0,7,,,,,,,,,,,,,,,,8,,57,0
73919,note_on,,120,0,12,,,,,,,,,,,,,,,,15,,69,0
73919,note_on,,0,0,12,,,,,,,,,,,,,,,,15,,62,0
73919,note_on,,0,0,12,,,,,,,,,,,,,,,,15,,66,0
73920,note_on,,0,0,12,,,,,,,,,,,,,,,,15,,66,48
73920,note_on,,0,0,12,,,,,,,,,,,,,,,,15,,62,48
73920,note_on,,1,0,12,,,,,,,,,,,,,,,,15,,74,48
73920,note_on,,1,0,7,,,,,,,,,,,,,,,,8,,59,72
74040,note_on,,241,0,11,,,,,,,,,,,,,,,,13,,50,48
74040,note_on,,120,0,12,,,,,,,,,,,,,,,,15,,50,48
74040,note_on,,241,0,5,,,,,,,,,,,,,,,,2,,50,48
74159,note_on,,119,0,5,,,,,,,,,,,,,,,,2,,50,0
74159,note_on,,119,0,11,,,,,,,,,,,,,,,,13,,50,0
74159,note_on,,119,0,12,,,,,,,,,,,,,,,,15,,50,0
74160,note_on,,1,0,5,,,,,,,,,,,,,,,,2,,47,48
74160,note_on,,1,0,11,,,,,,,,,,,,,,,,13,,47,48
74160,note_on,,1,0,12,,,,,,,,,,,,,,,,15,,47,48
74279,note_on,,119,0,11,,,,,,,,,,,,,,,,13,,47,0
74279,note_on,,0,0,12,,,,,,,,,,,,,,,,15,,47,0
74279,note_on,,0,0,12,,,,,,,,,,,,,,,,15,,66,0
74279,note_on,,0,0,12,,,,,,,,,,,,,,,,15,,62,0
74279,note_on,,119,0,12,,,,,,,,,,,,,,,,15,,74,0
74279,note_on,,119,0,5,,,,,,,,,,,,,,,,2,,47,0
74280,note_on,,1,0,11,,,,,,,,,,,,,,,,13,,49,48
74280,note_on,,1,0,5,,,,,,,,,,,,,,,,2,,49,48
74280,note_on,,0,0,12,,,,,,,,,,,,,,,,15,,49,48
74280,note_on,,1,0,12,,,,,,,,,,,,,,,,15,,68,48
74280,note_on,,0,0,12,,,,,,,,,,,,,,,,15,,65,48
74280,note_on,,0,0,12,,,,,,,,,,,,,,,,15,,61,48
74399,note_on,,479,0,7,,,,,,,,,,,,,,,,8,,59,0
74400,note_on,,1,0,7,,,,,,,,,,,,,,,,8,,61,72
74459,note_on,,59,0,7,,,,,,,,,,,,,,,,8,,61,0
74460,note_on,,1,0,7,,,,,,,,,,,,,,,,8,,59,72
74519,note_on,,239,0,11,,,,,,,,,,,,,,,,13,,49,0
74519,note_on,,239,0,5,,,,,,,,,,,,,,,,2,,49,0
74519,note_on,,0,0,12,,,,,,,,,,,,,,,,15,,49,0
74519,note_on,,239,0,12,,,,,,,,,,,,,,,,15,,68,0
74519,note_on,,59,0,7,,,,,,,,,,,,,,,,8,,59,0
74520,note_on,,1,0,5,,,,,,,,,,,,,,,,2,,53,48
74520,note_on,,1,0,12,,,,,,,,,,,,,,,,15,,53,48
74520,note_on,,0,0,12,,,,,,,,,,,,,,,,15,,73,48
74520,note_on,,1,0,7,,,,,,,,,,,,,,,,8,,57,72
74520,note_on,,1,0,11,,,,,,,,,,,,,,,,13,,53,48
74579,note_on,,59,0,7,,,,,,,,,,,,,,,,8,,57,0
74580,note_on,,1,0,7,,,,,,,,,,,,,,,,8,,56,72
74639,note_on,,59,0,7,,,,,,,,,,,,,,,,8,,56,0
74639,note_on,,119,0,12,,,,,,,,,,,,,,,,15,,65,0
74639,note_on,,0,0,12,,,,,,,,,,,,,,,,15,,61,0
74639,note_on,,0,0,12,,,,,,,,,,,,,,,,15,,53,0
74639,note_on,,0,0,12,,,,,,,,,,,,,,,,15,,73,0
74639,note_on,,119,0,5,,,,,,,,,,,,,,,,2,,53,0
74639,note_on,,119,0,11,,,,,,,,,,,,,,,,13,,53,0
74640,note_on,,1,0,7,,,,,,,,,,,,,,,,8,,57,72
74640,note_on,,1,0,11,,,,,,,,,,,,,,,,13,,54,48
74640,note_on,,0,0,12,,,,,,,,,,,,,,,,15,,54,48
74640,note_on,,1,0,5,,,,,,,,,,,,,,,,2,,54,48
74640,note_on,,1,0,12,,,,,,,,,,,,,,,,15,,61,48
74640,note_on,,0,0,12,,,,,,,,,,,,,,,,15,,57,48
74759,note_on,,119,0,11,,,,,,,,,,,,,,,,13,,54,0
74759,note_on,,119,0,7,,,,,,,,,,,,,,,,8,,57,0
74759,note_on,,119,0,5,,,,,,,,,,,,,,,,2,,54,0
74759,note_on,,119,0,12,,,,,,,,,,,,,,,,15,,54,0
74760,note_on,,1,0,5,,,,,,,,,,,,,,,,2,,52,48
74760,note_on,,1,0,7,,,,,,,,,,,,,,,,8,,59,72
74760,note_on,,1,0,11,,,,,,,,,,,,,,,,13,,52,48
74760,note_on,,1,0,12,,,,,,,,,,,,,,,,15,,52,48
74819,note_on,,59,0,7,,,,,,,,,,,,,,,,8,,59,0
74820,note_on,,1,0,7,,,,,,,,,,,,,,,,8,,57,72
74879,note_on,,119,0,12,,,,,,,,,,,,,,,,15,,61,0
74879,note_on,,119,0,5,,,,,,,,,,,,,,,,2,,52,0
74879,note_on,,0,0,12,,,,,,,,,,,,,,,,15,,52,0
74879,note_on,,119,0,11,,,,,,,,,,,,,,,,13,,52,0
74879,note_on,,59,0,7,,,,,,,,,,,,,,,,8,,57,0
74879,note_on,,0,0,12,,,,,,,,,,,,,,,,15,,57,0
74880,note_on,,0,0,12,,,,,,,,,,,,,,,,15,,50,48
74880,note_on,,1,0,5,,,,,,,,,,,,,,,,2,,50,48
74880,note_on,,1,0,7,,,,,,,,,,,,,,,,8,,56,72
74880,note_on,,1,0,11,,,,,,,,,,,,,,,,13,,50,48
74880,note_on,,0,0,12,,,,,,,,,,,,,,,,15,,59,48
74880,note_on,,1,0,12,,,,,,,,,,,,,,,,15,,66,48
74939,note_on,,59,0,7,,,,,,,,,,,,,,,,8,,56,0
74940,note_on,,1,0,7,,,,,,,,,,,,,,,,8,,54,72
74999,note_on,,119,0,5,,,,,,,,,,,,,,,,2,,50,0
74999,note_on,,0,0,12,,,,,,,,,,,,,,,,15,,50,0
74999,note_on,,0,0,12,,,,,,,,,,,,,,,,15,,59,0
74999,note_on,,119,0,12,,,,,,,,,,,,,,,,15,,66,0
74999,note_on,,119,0,11,,,,,,,,,,,,,,,,13,,50,0
74999,note_on,,59,0,7,,,,,,,,,,,,,,,,8,,54,0
75000,note_on,,1,0,11,,,,,,,,,,,,,,,,13,,49,48
75000,note_on,,1,0,7,,,,,,,,,,,,,,,,8,,61,72
75000,note_on,,0,0,12,,,,,,,,,,,,,,,,15,,49,48
75000,note_on,,1,0,12,,,,,,,,,,,,,,,,15,,65,48
75000,note_on,,0,0,12,,,,,,,,,,,,,,,,15,,68,48
75000,note_on,,0,0,12,,,,,,,,,,,,,,,,15,,56,48
75000,note_on,,1,0,5,,,,,,,,,,,,,,,,2,,49,48
75119,note_on,,119,0,12,,,,,,,,,,,,,,,,15,,65,0
75119,note_on,,0,0,12,,,,,,,,,,,,,,,,15,,68,0
75119,note_on,,0,0,12,,,,,,,,,,,,,,,,15,,56,0
75120,note_on,,0,0,12,,,,,,,,,,,,,,,,15,,66,48
75120,note_on,,1,0,12,,,,,,,,,,,,,,,,15,,69,48
75120,note_on,,0,0,12,,,,,,,,,,,,,,,,15,,61,48
75179,note_on,,179,0,7,,,,,,,,,,,,,,,,8,,61,0
75180,note_on,,1,0,7,,,,,,,,,,,,,,,,8,,49,72
75239,note_on,,0,0,12,,,,,,,,,,,,,,,,15,,69,0
75239,note_on,,119,0,12,,,,,,,,,,,,,,,,15,,49,0
75239,note_on,,239,0,5,,,,,,,,,,,,,,,,2,,49,0
75239,note_on,,0,0,12,,,,,,,,,,,,,,,,15,,66,0
75239,note_on,,239,0,11,,,,,,,,,,,,,,,,13,,49,0
75239,note_on,,59,0,7,,,,,,,,,,,,,,,,8,,49,0
75240,note_on,,1,0,5,,,,,,,,,,,,,,,,2,,47,48
75240,note_on,,0,0,12,,,,,,,,,,,,,,,,15,,71,48
75240,note_on,,0,0,12,,,,,,,,,,,,,,,,15,,47,48
75240,note_on,,1,0,7,,,,,,,,,,,,,,,,8,,49,72
75240,note_on,,1,0,12,,,,,,,,,,,,,,,,15,,68,48
75240,note_on,,1,0,11,,,,,,,,,,,,,,,,13,,47,48
75359,note_on,,119,0,7,,,,,,,,,,,,,,,,8,,49,0
75359,note_on,,0,0,12,,,,,,,,,,,,,,,,15,,68,0
75359,note_on,,119,0,5,,,,,,,,,,,,,,,,2,,47,0
75359,note_on,,119,0,11,,,,,,,,,,,,,,,,13,,47,0
75359,note_on,,119,0,12,,,,,,,,,,,,,,,,15,,61,0
75359,note_on,,0,0,12,,,,,,,,,,,,,,,,15,,71,0
75359,note_on,,0,0,12,,,,,,,,,,,,,,,,15,,47,0
75360,note_on,,1,0,5,,,,,,,,,,,,,,,,2,,45,48
75360,note_on,,1,0,12,,,,,,,,,,,,,,,,15,,66,48
75360,note_on,,0,0,12,,,,,,,,,,,,,,,,15,,45,48
75360,note_on,,0,0,12,,,,,,,,,,,,,,,,15,,61,48
75360,note_on,,0,0,12,,,,,,,,,,,,,,,,15,,69,48
75360,note_on,,0,0,12,,,,,,,,,,,,,,,,15,,73,48
75360,note_on,,1,0,11,,,,,,,,,,,,,,,,13,,45,48
75479,note_on,,119,0,11,,,,,,,,,,,,,,,,13,,45,0
75479,note_on,,119,0,12,,,,,,,,,,,,,,,,15,,66,0
75479,note_on,,0,0,12,,,,,,,,,,,,,,,,15,,45,0
75479,note_on,,0,0,12,,,,,,,,,,,,,,,,15,,61,0
75479,note_on,,0,0,12,,,,,,,,,,,,,,,,15,,73,0
75479,note_on,,0,0,12,,,,,,,,,,,,,,,,15,,69,0
75479,note_on,,119,0,5,,,,,,,,,,,,,,,,2,,45,0
75480,note_on,,1,0,12,,,,,,,,,,,,,,,,15,,77,48
75480,note_on,,0,0,12,,,,,,,,,,,,,,,,15,,56,48
75480,note_on,,0,0,12,,,,,,,,,,,,,,,,15,,44,48
75480,note_on,,0,0,12,,,,,,,,,,,,,,,,15,,68,48
75480,note_on,,0,0,12,,,,,,,,,,,,,,,,15,,71,48
75480,note_on,,1,0,5,,,,,,,,,,,,,,,,2,,44,48
75480,note_on,,1,0,11,,,,,,,,,,,,,,,,13,,44,48
75599,note_on,,0,0,12,,,,,,,,,,,,,,,,15,,56,0
75599,note_on,,0,0,12,,,,,,,,,,,,,,,,15,,44,0
75599,note_on,,0,0,12,,,,,,,,,,,,,,,,15,,68,0
75599,note_on,,0,0,12,,,,,,,,,,,,,,,,15,,71,0
75599,note_on,,119,0,11,,,,,,,,,,,,,,,,13,,44,0
75599,note_on,,119,0,12,,,,,,,,,,,,,,,,15,,77,0
75599,note_on,,119,0,5,,,,,,,,,,,,,,,,2,,44,0
75600,note_on,,1,0,11,,,,,,,,,,,,,,,,13,,42,48
75600,note_on,,0,0,12,,,,,,,,,,,,,,,,15,,42,48
75600,note_on,,0,0,12,,,,,,,,,,,,,,,,15,,73,48
75600,note_on,,0,0,12,,,,,,,,,,,,,,,,15,,69,48
75600,note_on,,0,0,12,,,,,,,,,,,,,,,,15,,78,48
75600,note_on,,1,0,12,,,,,,,,,,,,,,,,15,,49,48
75600,note_on,,1,0,5,,,,,,,,,,,,,,,,2,,42,48
75719,note_on,,119,0,11,,,,,,,,,,,,,,,,13,,42,0
75719,note_on,,0,0,12,,,,,,,,,,,,,,,,15,,42,0
75719,note_on,,0,0,12,,,,,,,,,,,,,,,,15,,69,0
75719,note_on,,0,0,12,,,,,,,,,,,,,,,,15,,78,0
75719,note_on,,119,0,12,,,,,,,,,,,,,,,,15,,49,0
75719,note_on,,0,0,12,,,,,,,,,,,,,,,,15,,73,0
75719,note_on,,119,0,5,,,,,,,,,,,,,,,,2,,42,0
75720,note_on,,1,0,5,,,,,,,,,,,,,,,,2,,50,48
75720,set_tempo,,19560,1,0,,,,,,,,,1090909,,,,,,,,,,
75720,note_on,,1,0,11,,,,,,,,,,,,,,,,13,,50,48
75720,note_on,,361,0,7,,,,,,,,,,,,,,,,8,,54,72
75720,note_on,,1,0,12,,,,,,,,,,,,,,,,15,,50,48
75720,note_on,,0,0,12,,,,,,,,,,,,,,,,15,,62,48
75720,note_on,,0,0,12,,,,,,,,,,,,,,,,15,,66,48
75720,note_on,,0,0,12,,,,,,,,,,,,,,,,15,,71,48
75720,note_on,,0,0,12,,,,,,,,,,,,,,,,15,,54,48
75839,note_on,,119,0,7,,,,,,,,,,,,,,,,8,,54,0
75840,note_on,,1,0,7,,,,,,,,,,,,,,,,8,,59,72
75959,note_on,,0,0,12,,,,,,,,,,,,,,,,15,,71,0
75959,note_on,,239,0,11,,,,,,,,,,,,,,,,13,,50,0
75959,note_on,,239,0,12,,,,,,,,,,,,,,,,15,,50,0
75959,note_on,,239,0,5,,,,,,,,,,,,,,,,2,,50,0
75959,note_on,,0,0,12,,,,,,,,,,,,,,,,15,,66,0
75959,note_on,,0,0,12,,,,,,,,,,,,,,,,15,,62,0
75960,note_on,,1,0,12,,,,,,,,,,,,,,,,15,,74,48
75960,note_on,,0,0,12,,,,,,,,,,,,,,,,15,,47,48
75960,note_on,,0,0,12,,,,,,,,,,,,,,,,15,,71,48
75960,note_on,,0,0,12,,,,,,,,,,,,,,,,15,,66,48
75960,note_on,,1,0,11,,,,,,,,,,,,,,,,13,,47,48
75960,note_on,,1,0,5,,,,,,,,,,,,,,,,2,,47,48
76079,note_on,,0,0,12,,,,,,,,,,,,,,,,15,,66,0
76079,note_on,,0,0,12,,,,,,,,,,,,,,,,15,,71,0
76079,note_on,,0,0,12,,,,,,,,,,,,,,,,15,,47,0
76079,note_on,,0,0,12,,,,,,,,,,,,,,,,15,,74,0
76079,note_on,,119,0,5,,,,,,,,,,,,,,,,2,,47,0
76079,note_on,,119,0,11,,,,,,,,,,,,,,,,13,,47,0
76079,note_on,,239,0,7,,,,,,,,,,,,,,,,8,,59,0
76079,note_on,,119,0,12,,,,,,,,,,,,,,,,15,,54,0
76080,note_on,,0,0,12,,,,,,,,,,,,,,,,15,,73,48
76080,note_on,,0,0,12,,,,,,,,,,,,,,,,15,,54,48
76080,note_on,,0,0,12,,,,,,,,,,,,,,,,15,,69,48
76080,note_on,,1,0,12,,,,,,,,,,,,,,,,15,,49,48
76080,note_on,,1,0,11,,,,,,,,,,,,,,,,13,,49,48
76080,note_on,,1,0,7,,,,,,,,,,,,,,,,8,,57,72
76080,note_on,,1,0,5,,,,,,,,,,,,,,,,2,,49,48
76080,note_on,,0,0,12,,,,,,,,,,,,,,,,15,,66,48
76119,note_on,,39,0,7,,,,,,,,,,,,,,,,8,,57,0
76120,note_on,,1,0,7,,,,,,,,,,,,,,,,8,,56,72
76159,note_on,,39,0,7,,,,,,,,,,,,,,,,8,,56,0
76160,note_on,,1,0,7,,,,,,,,,,,,,,,,8,,54,72
76199,note_on,,39,0,7,,,,,,,,,,,,,,,,8,,54,0
76199,note_on,,119,0,12,,,,,,,,,,,,,,,,15,,66,0
76199,note_on,,0,0,12,,,,,,,,,,,,,,,,15,,69,0
76199,note_on,,0,0,12,,,,,,,,,,,,,,,,15,,54,0
76199,note_on,,0,0,12,,,,,,,,,,,,,,,,15,,73,0
76200,note_on,,1,0,7,,,,,,,,,,,,,,,,8,,49,72
76200,note_on,,1,0,12,,,,,,,,,,,,,,,,15,,56,48
76200,note_on,,0,0,12,,,,,,,,,,,,,,,,15,,68,48
76200,note_on,,0,0,12,,,,,,,,,,,,,,,,15,,66,48
76319,note_on,,119,0,12,,,,,,,,,,,,,,,,15,,56,0
76319,note_on,,0,0,12,,,,,,,,,,,,,,,,15,,66,0
76320,note_on,,0,0,12,,,,,,,,,,,,,,,,15,,65,48
76320,note_on,,1,0,12,,,,,,,,,,,,,,,,15,,61,48
76379,note_on,,179,0,7,,,,,,,,,,,,,,,,8,,49,0
76380,note_on,,1,0,7,,,,,,,,,,,,,,,,8,,49,72
76439,note_on,,59,0,7,,,,,,,,,,,,,,,,8,,49,0
76439,note_on,,359,0,5,,,,,,,,,,,,,,,,2,,49,0
76439,note_on,,119,0,12,,,,,,,,,,,,,,,,15,,49,0
76439,note_on,,0,0,12,,,,,,,,,,,,,,,,15,,68,0
76439,note_on,,0,0,12,,,,,,,,,,,,,,,,15,,65,0
76439,note_on,,359,0,11,,,,,,,,,,,,,,,,13,,49,0
76439,note_on,,0,0,12,,,,,,,,,,,,,,,,15,,61,0
76440,note_on,,0,0,12,,,,,,,,,,,,,,,,15,,42,48
76440,note_on,,0,0,12,,,,,,,,,,,,,,,,15,,61,48
76440,note_on,,1,0,12,,,,,,,,,,,,,,,,15,,69,48
76440,note_on,,1,0,7,,,,,,,,,,,,,,,,8,,54,72
76440,note_on,,0,0,12,,,,,,,,,,,,,,,,15,,66,48
76440,note_on,,1,0,11,,,,,,,,,,,,,,,,13,,42,48
76440,note_on,,1,0,5,,,,,,,,,,,,,,,,2,,42,48
76679,note_on,,239,0,7,,,,,,,,,,,,,,,,8,,54,0
76679,note_on,,239,0,11,,,,,,,,,,,,,,,,13,,42,0
76679,note_on,,239,0,5,,,,,,,,,,,,,,,,2,,42,0
76679,note_on,,0,0,12,,,,,,,,,,,,,,,,15,,66,0
76679,note_on,,0,0,12,,,,,,,,,,,,,,,,15,,42,0
76679,note_on,,0,0,12,,,,,,,,,,,,,,,,15,,61,0
76679,note_on,,239,0,12,,,,,,,,,,,,,,,,15,,69,0
76680,note_on,,1,0,7,,,,,,,,,,,,,,,,8,,50,72
76799,note_on,,119,0,7,,,,,,,,,,,,,,,,8,,50,0
76800,note_on,,1,0,7,,,,,,,,,,,,,,,,8,,54,72
76800,set_tempo,,1080,1,0,,,,,,,,,545454,,,,,,,,,,
76919,note_on,,119,0,7,,,,,,,,,,,,,,,,8,,54,0
76920,note_on,,1,0,7,,,,,,,,,,,,,,,,8,,54,72
77039,note_on,,119,0,7,,,,,,,,,,,,,,,,8,,54,0
77040,note_on,,1,0,7,,,,,,,,,,,,,,,,8,,57,72
77159,note_on,,119,0,7,,,,,,,,,,,,,,,,8,,57,0
77160,note_on,,1,0,7,,,,,,,,,,,,,,,,8,,62,72
77400,note_on,,21241,0,10,,,,,,,,,,,,,,,,12,,54,64
77400,note_on,,721,0,11,,,,,,,,,,,,,,,,13,,50,64
77400,note_on,,21241,0,6,,,,,,,,,,,,,,,,3,,62,64
77400,note_on,,21241,0,9,,,,,,,,,,,,,,,,11,,57,64
77400,note_on,,0,0,12,,,,,,,,,,,,,,,,15,,69,64
77400,note_on,,0,0,12,,,,,,,,,,,,,,,,15,,66,64
77400,note_on,,21241,0,8,,,,,,,,,,,,,,,,10,,62,64
77400,note_on,,0,0,12,,,,,,,,,,,,,,,,15,,50,64
77400,note_on,,721,0,12,,,,,,,,,,,,,,,,15,,62,64
77489,note_on,,89,0,8,,,,,,,,,,,,,,,,10,,62,0
77489,note_on,,89,0,6,,,,,,,,,,,,,,,,3,,62,0
77489,note_on,,89,0,10,,,,,,,,,,,,,,,,12,,54,0
77489,note_on,,89,0,11,,,,,,,,,,,,,,,,13,,50,0
77489,note_on,,89,0,9,,,,,,,,,,,,,,,,11,,57,0
77489,note_on,,89,0,12,,,,,,,,,,,,,,,,15,,50,0
77490,note_on,,1,0,12,,,,,,,,,,,,,,,,15,,50,64
77490,note_on,,1,0,10,,,,,,,,,,,,,,,,12,,54,64
77490,note_on,,1,0,11,,,,,,,,,,,,,,,,13,,50,64
77490,note_on,,1,0,9,,,,,,,,,,,,,,,,11,,57,64
77490,note_on,,1,0,8,,,,,,,,,,,,,,,,10,,62,64
77490,note_on,,1,0,6,,,,,,,,,,,,,,,,3,,62,64
77519,note_on,,29,0,11,,,,,,,,,,,,,,,,13,,50,0
77519,note_on,,29,0,6,,,,,,,,,,,,,,,,3,,62,0
77519,note_on,,29,0,12,,,,,,,,,,,,,,,,15,,62,0
77519,note_on,,0,0,12,,,,,,,,,,,,,,,,15,,69,0
77519,note_on,,0,0,12,,,,,,,,,,,,,,,,15,,66,0
77519,note_on,,0,0,12,,,,,,,,,,,,,,,,15,,50,0
77519,note_on,,29,0,10,,,,,,,,,,,,,,,,12,,54,0
77519,note_on,,29,0,9,,,,,,,,,,,,,,,,11,,57,0
77519,note_on,,29,0,8,,,,,,,,,,,,,,,,10,,62,0
77520,note_on,,0,0,12,,,,,,,,,,,,,,,,15,,69,64
77520,note_on,,0,0,12,,,,,,,,,,,,,,,,15,,74,64
77520,note_on,,1,0,9,,,,,,,,,,,,,,,,11,,62,64
77520,note_on,,0,0,12,,,,,,,,,,,,,,,,15,,66,64
77520,note_on,,1,0,6,,,,,,,,,,,,,,,,3,,66,64
77520,note_on,,1,0,8,,,,,,,,,,,,,,,,10,,66,64
77520,note_on,,1,0,11,,,,,,,,,,,,,,,,13,,50,64
77520,note_on,,1,0,12,,,,,,,,,,,,,,,,15,,50,64
77520,note_on,,1,0,10,,,,,,,,,,,,,,,,12,,57,64
77639,note_on,,119,0,12,,,,,,,,,,,,,,,,15,,69,0
77639,note_on,,0,0,12,,,,,,,,,,,,,,,,15,,74,0
77639,note_on,,0,0,12,,,,,,,,,,,,,,,,15,,66,0
77699,note_on,,179,0,9,,,,,,,,,,,,,,,,11,,62,0
77699,note_on,,179,0,11,,,,,,,,,,,,,,,,13,,50,0
77699,note_on,,179,0,6,,,,,,,,,,,,,,,,3,,66,0
77699,note_on,,179,0,8,,,,,,,,,,,,,,,,10,,66,0
77699,note_on,,60,0,12,,,,,,,,,,,,,,,,15,,50,0
77699,note_on,,179,0,10,,,,,,,,,,,,,,,,12,,57,0
77700,note_on,,1,0,11,,,,,,,,,,,,,,,,13,,50,64
77700,note_on,,1,0,12,,,,,,,,,,,,,,,,15,,50,64
77700,note_on,,1,0,6,,,,,,,,,,,,,,,,3,,66,64
77700,note_on,,1,0,8,,,,,,,,,,,,,,,,10,,66,64
77700,note_on,,1,0,9,,,,,,,,,,,,,,,,11,,62,64
77700,note_on,,1,0,10,,,,,,,,,,,,,,,,12,,57,64
77759,note_on,,59,0,8,,,,,,,,,,,,,,,,10,,66,0
77759,note_on,,59,0,11,,,,,,,,,,,,,,,,13,,50,0
77759,note_on,,59,0,9,,,,,,,,,,,,,,,,11,,62,0
77759,note_on,,59,0,6,,,,,,,,,,,,,,,,3,,66,0
77759,note_on,,59,0,12,,,,,,,,,,,,,,,,15,,50,0
77759,note_on,,59,0,10,,,,,,,,,,,,,,,,12,,57,0
77759,note_on,,599,0,7,,,,,,,,,,,,,,,,8,,62,0
77760,note_on,,1,0,11,,,,,,,,,,,,,,,,13,,50,64
77760,note_on,,1,0,6,,,,,,,,,,,,,,,,3,,66,64
77760,note_on,,1,0,12,,,,,,,,,,,,,,,,15,,50,64
77760,note_on,,1,0,9,,,,,,,,,,,,,,,,11,,62,64
77760,note_on,,1,0,8,,,,,,,,,,,,,,,,10,,66,64
77760,note_on,,0,0,12,,,,,,,,,,,,,,,,15,,69,64
77760,note_on,,0,0,12,,,,,,,,,,,,,,,,15,,74,64
77760,note_on,,1,0,10,,,,,,,,,,,,,,,,12,,57,64
77760,note_on,,0,0,12,,,,,,,,,,,,,,,,15,,78,64
77849,note_on,,89,0,6,,,,,,,,,,,,,,,,3,,66,0
77849,note_on,,89,0,11,,,,,,,,,,,,,,,,13,,50,0
77849,note_on,,89,0,9,,,,,,,,,,,,,,,,11,,62,0
77849,note_on,,89,0,12,,,,,,,,,,,,,,,,15,,50,0
77849,note_on,,89,0,8,,,,,,,,,,,,,,,,10,,66,0
77849,note_on,,89,0,10,,,,,,,,,,,,,,,,12,,57,0
77850,note_on,,1,0,12,,,,,,,,,,,,,,,,15,,50,64
77850,note_on,,1,0,6,,,,,,,,,,,,,,,,3,,66,64
77850,note_on,,1,0,10,,,,,,,,,,,,,,,,12,,57,64
77850,note_on,,1,0,9,,,,,,,,,,,,,,,,11,,62,64
77850,note_on,,1,0,11,,,,,,,,,,,,,,,,13,,50,64
77850,note_on,,1,0,8,,,,,,,,,,,,,,,,10,,66,64
77879,note_on,,29,0,6,,,,,,,,,,,,,,,,3,,66,0
77879,note_on,,29,0,9,,,,,,,,,,,,,,,,11,,62,0
77879,note_on,,29,0,8,,,,,,,,,,,,,,,,10,,66,0
77879,note_on,,29,0,11,,,,,,,,,,,,,,,,13,,50,0
77879,note_on,,0,0,12,,,,,,,,,,,,,,,,15,,50,0
77879,note_on,,29,0,10,,,,,,,,,,,,,,,,12,,57,0
77879,note_on,,29,0,12,,,,,,,,,,,,,,,,15,,69,0
77879,note_on,,0,0,12,,,,,,,,,,,,,,,,15,,74,0
77879,note_on,,0,0,12,,,,,,,,,,,,,,,,15,,78,0
77880,note_on,,0,0,12,,,,,,,,,,,,,,,,15,,76,64
77880,note_on,,0,0,12,,,,,,,,,,,,,,,,15,,64,64
77880,note_on,,1,0,12,,,,,,,,,,,,,,,,15,,69,64
77880,note_on,,0,0,12,,,,,,,,,,,,,,,,15,,49,64
77880,note_on,,1,0,9,,,,,,,,,,,,,,,,11,,64,64
77880,note_on,,1,0,8,,,,,,,,,,,,,,,,10,,69,64
77880,note_on,,1,0,6,,,,,,,,,,,,,,,,3,,69,64
77880,note_on,,1,0,10,,,,,,,,,,,,,,,,12,,57,64
77880,note_on,,1,0,11,,,,,,,,,,,,,,,,13,,49,64
77999,note_on,,119,0,8,,,,,,,,,,,,,,,,10,,69,0
77999,note_on,,119,0,10,,,,,,,,,,,,,,,,12,,57,0
77999,note_on,,119,0,9,,,,,,,,,,,,,,,,11,,64,0
77999,note_on,,0,0,12,,,,,,,,,,,,,,,,15,,76,0
77999,note_on,,0,0,12,,,,,,,,,,,,,,,,15,,64,0
77999,note_on,,119,0,6,,,,,,,,,,,,,,,,3,,69,0
77999,note_on,,119,0,12,,,,,,,,,,,,,,,,15,,69,0
78000,note_on,,241,0,7,,,,,,,,,,,,,,,,8,,57,72
78059,note_on,,60,0,12,,,,,,,,,,,,,,,,15,,49,0
78059,note_on,,179,0,11,,,,,,,,,,,,,,,,13,,49,0
78060,note_on,,1,0,12,,,,,,,,,,,,,,,,15,,49,64
78060,note_on,,1,0,11,,,,,,,,,,,,,,,,13,,49,64
78119,note_on,,119,0,7,,,,,,,,,,,,,,,,8,,57,0
78119,note_on,,59,0,12,,,,,,,,,,,,,,,,15,,49,0
78119,note_on,,59,0,11,,,,,,,,,,,,,,,,13,,49,0
78120,note_on,,1,0,7,,,,,,,,,,,,,,,,8,,57,72
78120,note_on,,1,0,11,,,,,,,,,,,,,,,,13,,49,64
78120,note_on,,0,0,12,,,,,,,,,,,,,,,,15,,61,64
78120,note_on,,0,0,12,,,,,,,,,,,,,,,,15,,64,64
78120,note_on,,0,0,12,,,,,,,,,,,,,,,,15,,49,64
78120,note_on,,1,0,12,,,,,,,,,,,,,,,,15,,69,64
78209,note_on,,89,0,11,,,,,,,,,,,,,,,,13,,49,0
78209,note_on,,89,0,12,,,,,,,,,,,,,,,,15,,49,0
78210,note_on,,1,0,11,,,,,,,,,,,,,,,,13,,49,64
78210,note_on,,1,0,12,,,,,,,,,,,,,,,,15,,49,64
78239,note_on,,0,0,12,,,,,,,,,,,,,,,,15,,49,0
78239,note_on,,0,0,12,,,,,,,,,,,,,,,,15,,64,0
78239,note_on,,29,0,12,,,,,,,,,,,,,,,,15,,69,0
78239,note_on,,29,0,11,,,,,,,,,,,,,,,,13,,49,0
78239,note_on,,0,0,12,,,,,,,,,,,,,,,,15,,61,0
78239,note_on,,119,0,7,,,,,,,,,,,,,,,,8,,57,0
78240,note_on,,1,0,11,,,,,,,,,,,,,,,,13,,47,64
78240,note_on,,1,0,7,,,,,,,,,,,,,,,,8,,50,72
78240,note_on,,0,0,12,,,,,,,,,,,,,,,,15,,62,64
78240,note_on,,0,0,12,,,,,,,,,,,,,,,,15,,47,64
78240,note_on,,0,0,12,,,,,,,,,,,,,,,,15,,66,64
78240,note_on,,1,0,12,,,,,,,,,,,,,,,,15,,71,64
78359,note_on,,119,0,7,,,,,,,,,,,,,,,,8,,50,0
78360,note_on,,1,0,7,,,,,,,,,,,,,,,,8,,50,72
78419,note_on,,179,0,11,,,,,,,,,,,,,,,,13,,47,0
78419,note_on,,59,0,7,,,,,,,,,,,,,,,,8,,50,0
78419,note_on,,179,0,12,,,,,,,,,,,,,,,,15,,47,0
78420,note_on,,1,0,11,,,,,,,,,,,,,,,,13,,47,64
78420,note_on,,1,0,12,,,,,,,,,,,,,,,,15,,47,64
78420,note_on,,1,0,7,,,,,,,,,,,,,,,,8,,52,72
78479,note_on,,59,0,7,,,,,,,,,,,,,,,,8,,52,0
78479,note_on,,59,0,11,,,,,,,,,,,,,,,,13,,47,0
78479,note_on,,59,0,12,,,,,,,,,,,,,,,,15,,47,0
78480,note_on,,1,0,12,,,,,,,,,,,,,,,,15,,47,64
78480,note_on,,1,0,11,,,,,,,,,,,,,,,,13,,47,64
78480,note_on,,1,0,7,,,,,,,,,,,,,,,,8,,54,72
78539,note_on,,59,0,7,,,,,,,,,,,,,,,,8,,54,0
78540,note_on,,1,0,7,,,,,,,,,,,,,,,,8,,55,72
78569,note_on,,89,0,12,,,,,,,,,,,,,,,,15,,47,0
78569,note_on,,89,0,11,,,,,,,,,,,,,,,,13,,47,0
78570,note_on,,1,0,12,,,,,,,,,,,,,,,,15,,47,64
78570,note_on,,1,0,11,,,,,,,,,,,,,,,,13,,47,64
78599,note_on,,0,0,12,,,,,,,,,,,,,,,,15,,47,0
78599,note_on,,29,0,12,,,,,,,,,,,,,,,,15,,71,0
78599,note_on,,59,0,7,,,,,,,,,,,,,,,,8,,55,0
78599,note_on,,0,0,12,,,,,,,,,,,,,,,,15,,66,0
78599,note_on,,29,0,11,,,,,,,,,,,,,,,,13,,47,0
78599,note_on,,0,0,12,,,,,,,,,,,,,,,,15,,62,0
78600,note_on,,0,0,12,,,,,,,,,,,,,,,,15,,73,64
78600,note_on,,0,0,12,,,,,,,,,,,,,,,,15,,64,64
78600,note_on,,0,0,12,,,,,,,,,,,,,,,,15,,69,64
78600,note_on,,0,0,12,,,,,,,,,,,,,,,,15,,76,64
78600,note_on,,1,0,12,,,,,,,,,,,,,,,,15,,45,64
78600,note_on,,1,0,11,,,,,,,,,,,,,,,,13,,45,64
78600,note_on,,1,0,7,,,,,,,,,,,,,,,,8,,57,72
78779,note_on,,179,0,12,,,,,,,,,,,,,,,,15,,45,0
78779,note_on,,0,0,12,,,,,,,,,,,,,,,,15,,64,0
78779,note_on,,179,0,11,,,,,,,,,,,,,,,,13,,45,0
78780,note_on,,1,0,12,,,,,,,,,,,,,,,,15,,62,64
78780,note_on,,0,0,12,,,,,,,,,,,,,,,,15,,47,64
78780,note_on,,1,0,11,,,,,,,,,,,,,,,,13,,47,64
78839,note_on,,0,0,12,,,,,,,,,,,,,,,,15,,47,0
78839,note_on,,59,0,11,,,,,,,,,,,,,,,,13,,47,0
78839,note_on,,0,0,12,,,,,,,,,,,,,,,,15,,62,0
78839,note_on,,0,0,12,,,,,,,,,,,,,,,,15,,69,0
78839,note_on,,0,0,12,,,,,,,,,,,,,,,,15,,73,0
78839,note_on,,239,0,7,,,,,,,,,,,,,,,,8,,57,0
78839,note_on,,59,0,12,,,,,,,,,,,,,,,,15,,76,0
78840,note_on,,1,0,12,,,,,,,,,,,,,,,,15,,61,64
78840,note_on,,841,0,6,,,,,,,,,,,,,,,,3,,69,64
78840,note_on,,0,0,12,,,,,,,,,,,,,,,,15,,45,64
78840,note_on,,0,0,12,,,,,,,,,,,,,,,,15,,64,64
78840,note_on,,1,0,11,,,,,,,,,,,,,,,,13,,45,64
78929,note_on,,0,0,12,,,,,,,,,,,,,,,,15,,45,0
78929,note_on,,89,0,11,,,,,,,,,,,,,,,,13,,45,0
78929,note_on,,89,0,12,,,,,,,,,,,,,,,,15,,61,0
78930,note_on,,1,0,11,,,,,,,,,,,,,,,,13,,43,64
78930,note_on,,0,0,12,,,,,,,,,,,,,,,,15,,43,64
78930,note_on,,1,0,12,,,,,,,,,,,,,,,,15,,59,64
78959,note_on,,29,0,12,,,,,,,,,,,,,,,,15,,64,0
78959,note_on,,0,0,12,,,,,,,,,,,,,,,,15,,59,0
78959,note_on,,29,0,11,,,,,,,,,,,,,,,,13,,43,0
78959,note_on,,0,0,12,,,,,,,,,,,,,,,,15,,43,0
78959,note_on,,119,0,6,,,,,,,,,,,,,,,,3,,69,0
78960,note_on,,1,0,6,,,,,,,,,,,,,,,,3,,74,64
78960,note_on,,0,0,12,,,,,,,,,,,,,,,,15,,69,64
78960,note_on,,1,0,11,,,,,,,,,,,,,,,,13,,42,64
78960,note_on,,0,0,12,,,,,,,,,,,,,,,,15,,42,64
78960,note_on,,1,0,12,,,,,,,,,,,,,,,,15,,62,64
78960,note_on,,0,0,12,,,,,,,,,,,,,,,,15,,57,64
79049,note_on,,89,0,6,,,,,,,,,,,,,,,,3,,74,0
79050,note_on,,1,0,6,,,,,,,,,,,,,,,,3,,76,64
79079,note_on,,119,0,11,,,,,,,,,,,,,,,,13,,42,0
79079,note_on,,119,0,12,,,,,,,,,,,,,,,,15,,62,0
79079,note_on,,0,0,12,,,,,,,,,,,,,,,,15,,42,0
79079,note_on,,0,0,12,,,,,,,,,,,,,,,,15,,69,0
79079,note_on,,0,0,12,,,,,,,,,,,,,,,,15,,57,0
79079,note_on,,29,0,6,,,,,,,,,,,,,,,,3,,76,0
79080,note_on,,1,0,11,,,,,,,,,,,,,,,,13,,47,48
79080,note_on,,1,0,6,,,,,,,,,,,,,,,,3,,74,64
79080,note_on,,1,0,12,,,,,,,,,,,,,,,,15,,71,64
79080,note_on,,0,0,12,,,,,,,,,,,,,,,,15,,62,64
79080,note_on,,0,0,12,,,,,,,,,,,,,,,,15,,47,64
79080,note_on,,0,0,12,,,,,,,,,,,,,,,,15,,66,64
79169,note_on,,89,0,6,,,,,,,,,,,,,,,,3,,74,0
79170,note_on,,1,0,6,,,,,,,,,,,,,,,,3,,76,64
79199,note_on,,29,0,6,,,,,,,,,,,,,,,,3,,76,0
79200,note_on,,1,0,6,,,,,,,,,,,,,,,,3,,78,64
79289,note_on,,89,0,6,,,,,,,,,,,,,,,,3,,78,0
79290,note_on,,1,0,6,,,,,,,,,,,,,,,,3,,79,64
79319,note_on,,0,0,12,,,,,,,,,,,,,,,,15,,47,0
79319,note_on,,239,0,11,,,,,,,,,,,,,,,,13,,47,0
79319,note_on,,239,0,12,,,,,,,,,,,,,,,,15,,71,0
79319,note_on,,0,0,12,,,,,,,,,,,,,,,,15,,62,0
79319,note_on,,29,0,6,,,,,,,,,,,,,,,,3,,79,0
79319,note_on,,0,0,12,,,,,,,,,,,,,,,,15,,66,0
79320,note_on,,0,0,12,,,,,,,,,,,,,,,,15,,45,64
79320,note_on,,0,0,12,,,,,,,,,,,,,,,,15,,73,64
79320,note_on,,1,0,6,,,,,,,,,,,,,,,,3,,81,64
79320,note_on,,1,0,11,,,,,,,,,,,,,,,,13,,45,48
79320,note_on,,1,0,12,,,,,,,,,,,,,,,,15,,69,64
79320,note_on,,0,0,12,,,,,,,,,,,,,,,,15,,64,64
79439,note_on,,119,0,11,,,,,,,,,,,,,,,,13,,45,0
79439,note_on,,119,0,12,,,,,,,,,,,,,,,,15,,45,0
79440,note_on,,1,0,11,,,,,,,,,,,,,,,,13,,57,48
79440,note_on,,1,0,12,,,,,,,,,,,,,,,,15,,57,48
79440,note_on,,601,0,7,,,,,,,,,,,,,,,,8,,57,72
79499,note_on,,179,0,6,,,,,,,,,,,,,,,,3,,81,0
79500,note_on,,1,0,6,,,,,,,,,,,,,,,,3,,79,64
79559,note_on,,119,0,12,,,,,,,,,,,,,,,,15,,69,0
79559,note_on,,0,0,12,,,,,,,,,,,,,,,,15,,64,0
79559,note_on,,119,0,11,,,,,,,,,,,,,,,,13,,57,0
79559,note_on,,119,0,7,,,,,,,,,,,,,,,,8,,57,0
79559,note_on,,0,0,12,,,,,,,,,,,,,,,,15,,57,0
79559,note_on,,0,0,12,,,,,,,,,,,,,,,,15,,73,0
79559,note_on,,59,0,6,,,,,,,,,,,,,,,,3,,79,0
79560,note_on,,1,0,11,,,,,,,,,,,,,,,,13,,57,48
79560,note_on,,1,0,6,,,,,,,,,,,,,,,,3,,78,64
79560,note_on,,1,0,7,,,,,,,,,,,,,,,,8,,57,72
79560,note_on,,1,0,12,,,,,,,,,,,,,,,,15,,57,48
79560,note_on,,0,0,12,,,,,,,,,,,,,,,,15,,69,48
79560,note_on,,0,0,12,,,,,,,,,,,,,,,,15,,73,48
79560,note_on,,0,0,12,,,,,,,,,,,,,,,,15,,81,48
79619,note_on,,59,0,6,,,,,,,,,,,,,,,,3,,78,0
79620,note_on,,1,0,6,,,,,,,,,,,,,,,,3,,76,64
79679,note_on,,0,0,12,,,,,,,,,,,,,,,,15,,73,0
79679,note_on,,119,0,11,,,,,,,,,,,,,,,,13,,57,0
79679,note_on,,119,0,7,,,,,,,,,,,,,,,,8,,57,0
79679,note_on,,0,0,12,,,,,,,,,,,,,,,,15,,81,0
79679,note_on,,59,0,6,,,,,,,,,,,,,,,,3,,76,0
79679,note_on,,0,0,12,,,,,,,,,,,,,,,,15,,69,0
79679,note_on,,119,0,12,,,,,,,,,,,,,,,,15,,57,0
79680,note_on,,1,0,7,,,,,,,,,,,,,,,,8,,59,72
79680,note_on,,0,0,12,,,,,,,,,,,,,,,,15,,71,48
79680,note_on,,0,0,12,,,,,,,,,,,,,,,,15,,59,48
79680,note_on,,1,0,11,,,,,,,,,,,,,,,,13,,59,48
79680,note_on,,0,0,12,,,,,,,,,,,,,,,,15,,66,48
79680,note_on,,1,0,6,,,,,,,,,,,,,,,,3,,74,64
79680,note_on,,1,0,12,,,,,,,,,,,,,,,,15,,74,48
79799,note_on,,119,0,11,,,,,,,,,,,,,,,,13,,59,0
79799,note_on,,119,0,6,,,,,,,,,,,,,,,,3,,74,0
79799,note_on,,0,0,12,,,,,,,,,,,,,,,,15,,59,0
79799,note_on,,119,0,7,,,,,,,,,,,,,,,,8,,59,0
79799,note_on,,119,0,12,,,,,,,,,,,,,,,,15,,74,0
79799,note_on,,0,0,12,,,,,,,,,,,,,,,,15,,66,0
79799,note_on,,0,0,12,,,,,,,,,,,,,,,,15,,71,0
79800,note_on,,1,0,6,,,,,,,,,,,,,,,,3,,76,64
79800,note_on,,1,0,12,,,,,,,,,,,,,,,,15,,69,48
79800,note_on,,0,0,12,,,,,,,,,,,,,,,,15,,61,48
79800,note_on,,0,0,12,,,,,,,,,,,,,,,,15,,64,48
79800,note_on,,1,0,7,,,,,,,,,,,,,,,,8,,61,72
79800,note_on,,1,0,11,,,,,,,,,,,,,,,,13,,61,48
79919,note_on,,119,0,7,,,,,,,,,,,,,,,,8,,61,0
79919,note_on,,119,0,6,,,,,,,,,,,,,,,,3,,76,0
79919,note_on,,0,0,12,,,,,,,,,,,,,,,,15,,64,0
79919,note_on,,119,0,12,,,,,,,,,,,,,,,,15,,61,0
79919,note_on,,119,0,11,,,,,,,,,,,,,,,,13,,61,0
79920,note_on,,0,0,12,,,,,,,,,,,,,,,,15,,62,48
79920,note_on,,1,0,6,,,,,,,,,,,,,,,,3,,78,64
79920,note_on,,1,0,12,,,,,,,,,,,,,,,,15,,66,48
79920,note_on,,1,0,11,,,,,,,,,,,,,,,,13,,62,48
79920,note_on,,1,0,7,,,,,,,,,,,,,,,,8,,62,72
80039,note_on,,0,0,12,,,,,,,,,,,,,,,,15,,66,0
80039,note_on,,0,0,12,,,,,,,,,,,,,,,,15,,62,0
80039,note_on,,119,0,7,,,,,,,,,,,,,,,,8,,62,0
80039,note_on,,119,0,12,,,,,,,,,,,,,,,,15,,69,0
80039,note_on,,119,0,6,,,,,,,,,,,,,,,,3,,78,0
80039,note_on,,119,0,11,,,,,,,,,,,,,,,,13,,62,0
80040,note_on,,0,0,12,,,,,,,,,,,,,,,,15,,67,48
80040,note_on,,1,0,6,,,,,,,,,,,,,,,,3,,79,64
80040,note_on,,1,0,11,,,,,,,,,,,,,,,,13,,64,48
80040,note_on,,1,0,12,,,,,,,,,,,,,,,,15,,64,48
80040,note_on,,1,0,7,,,,,,,,,,,,,,,,8,,64,72
80040,note_on,,0,0,12,,,,,,,,,,,,,,,,15,,76,48
80099,note_on,,59,0,7,,,,,,,,,,,,,,,,8,,64,0
80099,note_on,,0,0,12,,,,,,,,,,,,,,,,15,,67,0
80099,note_on,,59,0,12,,,,,,,,,,,,,,,,15,,64,0
80099,note_on,,59,0,11,,,,,,,,,,,,,,,,13,,64,0
80100,note_on,,0,0,12,,,,,,,,,,,,,,,,15,,66,48
80100,note_on,,1,0,7,,,,,,,,,,,,,,,,8,,62,72
80100,note_on,,1,0,12,,,,,,,,,,,,,,,,15,,62,48
80100,note_on,,1,0,11,,,,,,,,,,,,,,,,13,,62,48
80159,note_on,,0,0,12,,,,,,,,,,,,,,,,15,,66,0
80159,note_on,,59,0,12,,,,,,,,,,,,,,,,15,,62,0
80159,note_on,,59,0,11,,,,,,,,,,,,,,,,13,,62,0
80159,note_on,,59,0,7,,,,,,,,,,,,,,,,8,,62,0
80160,note_on,,1,0,7,,,,,,,,,,,,,,,,8,,64,72
80160,note_on,,0,0,12,,,,,,,,,,,,,,,,15,,64,48
80160,note_on,,1,0,12,,,,,,,,,,,,,,,,15,,67,48
80160,note_on,,1,0,11,,,,,,,,,,,,,,,,13,,64,48
80219,note_on,,59,0,7,,,,,,,,,,,,,,,,8,,64,0
80219,note_on,,179,0,6,,,,,,,,,,,,,,,,3,,79,0
80219,note_on,,59,0,12,,,,,,,,,,,,,,,,15,,64,0
80219,note_on,,59,0,11,,,,,,,,,,,,,,,,13,,64,0
80220,note_on,,0,0,12,,,,,,,,,,,,,,,,15,,61,48
80220,note_on,,1,0,11,,,,,,,,,,,,,,,,13,,57,48
80220,note_on,,1,0,7,,,,,,,,,,,,,,,,8,,57,72
80220,note_on,,1,0,6,,,,,,,,,,,,,,,,3,,78,64
80220,note_on,,1,0,12,,,,,,,,,,,,,,,,15,,57,48
80279,note_on,,59,0,11,,,,,,,,,,,,,,,,13,,57,0
80279,note_on,,59,0,6,,,,,,,,,,,,,,,,3,,78,0
80279,note_on,,0,0,12,,,,,,,,,,,,,,,,15,,61,0
80279,note_on,,59,0,12,,,,,,,,,,,,,,,,15,,57,0
80279,note_on,,59,0,7,,,,,,,,,,,,,,,,8,,57,0
80280,note_on,,1,0,11,,,,,,,,,,,,,,,,13,,59,48
80280,note_on,,0,0,12,,,,,,,,,,,,,,,,15,,62,48
80280,note_on,,1,0,12,,,,,,,,,,,,,,,,15,,59,48
80280,note_on,,1,0,6,,,,,,,,,,,,,,,,3,,79,64
80280,note_on,,1,0,7,,,,,,,,,,,,,,,,8,,59,72
80339,note_on,,0,0,12,,,,,,,,,,,,,,,,15,,62,0
80339,note_on,,59,0,12,,,,,,,,,,,,,,,,15,,59,0
80339,note_on,,59,0,6,,,,,,,,,,,,,,,,3,,79,0
80339,note_on,,59,0,7,,,,,,,,,,,,,,,,8,,59,0
80339,note_on,,59,0,11,,,,,,,,,,,,,,,,13,,59,0
80340,note_on,,1,0,12,,,,,,,,,,,,,,,,15,,64,48
80340,note_on,,1,0,7,,,,,,,,,,,,,,,,8,,61,72
80340,note_on,,1,0,11,,,,,,,,,,,,,,,,13,,61,48
80340,note_on,,1,0,6,,,,,,,,,,,,,,,,3,,76,64
80340,note_on,,0,0,12,,,,,,,,,,,,,,,,15,,61,48
80399,note_on,,59,0,6,,,,,,,,,,,,,,,,3,,76,0
80399,note_on,,0,0,12,,,,,,,,,,,,,,,,15,,64,0
80399,note_on,,0,0,12,,,,,,,,,,,,,,,,15,,61,0
80399,note_on,,59,0,7,,,,,,,,,,,,,,,,8,,61,0
80399,note_on,,59,0,11,,,,,,,,,,,,,,,,13,,61,0
80399,note_on,,0,0,12,,,,,,,,,,,,,,,,15,,67,0
80399,note_on,,59,0,12,,,,,,,,,,,,,,,,15,,76,0
80400,note_on,,1,0,12,,,,,,,,,,,,,,,,15,,69,48
80400,note_on,,0,0,12,,,,,,,,,,,,,,,,15,,66,48
80400,note_on,,1,0,7,,,,,,,,,,,,,,,,8,,62,72
80400,note_on,,1,0,6,,,,,,,,,,,,,,,,3,,78,64
80400,note_on,,0,0,12,,,,,,,,,,,,,,,,15,,62,48
80400,note_on,,1,0,11,,,,,,,,,,,,,,,,13,,62,48
80459,note_on,,59,0,6,,,,,,,,,,,,,,,,3,,78,0
80459,note_on,,59,0,7,,,,,,,,,,,,,,,,8,,62,0
80459,note_on,,59,0,11,,,,,,,,,,,,,,,,13,,62,0
80459,note_on,,59,0,12,,,,,,,,,,,,,,,,15,,62,0
80460,note_on,,1,0,12,,,,,,,,,,,,,,,,15,,61,48
80460,note_on,,1,0,7,,,,,,,,,,,,,,,,8,,61,72
80460,note_on,,1,0,11,,,,,,,,,,,,,,,,13,,61,48
80460,note_on,,1,0,6,,,,,,,,,,,,,,,,3,,79,64
80519,note_on,,59,0,7,,,,,,,,,,,,,,,,8,,61,0
80519,note_on,,59,0,6,,,,,,,,,,,,,,,,3,,79,0
80519,note_on,,0,0,12,,,,,,,,,,,,,,,,15,,61,0
80519,note_on,,0,0,12,,,,,,,,,,,,,,,,15,,66,0
80519,note_on,,59,0,12,,,,,,,,,,,,,,,,15,,69,0
80519,note_on,,59,0,11,,,,,,,,,,,,,,,,13,,61,0
80520,note_on,,0,0,12,,,,,,,,,,,,,,,,15,,62,48
80520,note_on,,0,0,12,,,,,,,,,,,,,,,,15,,78,48
80520,note_on,,1,0,12,,,,,,,,,,,,,,,,15,,74,48
80520,note_on,,1,0,7,,,,,,,,,,,,,,,,8,,62,72
80520,note_on,,1,0,11,,,,,,,,,,,,,,,,13,,62,48
80520,note_on,,1,0,6,,,,,,,,,,,,,,,,3,,78,64
80520,note_on,,0,0,12,,,,,,,,,,,,,,,,15,,69,48
80534,note_on,,14,0,6,,,,,,,,,,,,,,,,3,,78,0
80535,note_on,,1,0,6,,,,,,,,,,,,,,,,3,,79,64
80549,note_on,,14,0,6,,,,,,,,,,,,,,,,3,,79,0
80550,note_on,,1,0,6,,,,,,,,,,,,,,,,3,,78,64
80564,note_on,,14,0,6,,,,,,,,,,,,,,,,3,,78,0
80565,note_on,,1,0,6,,,,,,,,,,,,,,,,3,,79,64
80579,note_on,,14,0,6,,,,,,,,,,,,,,,,3,,79,0
80580,note_on,,1,0,6,,,,,,,,,,,,,,,,3,,78,64
80594,note_on,,14,0,6,,,,,,,,,,,,,,,,3,,78,0
80595,note_on,,1,0,6,,,,,,,,,,,,,,,,3,,79,64
80609,note_on,,14,0,6,,,,,,,,,,,,,,,,3,,79,0
80610,note_on,,1,0,6,,,,,,,,,,,,,,,,3,,78,64
80624,note_on,,14,0,6,,,,,,,,,,,,,,,,3,,78,0
80625,note_on,,1,0,6,,,,,,,,,,,,,,,,3,,79,64
80639,note_on,,119,0,11,,,,,,,,,,,,,,,,13,,62,0
80639,note_on,,0,0,12,,,,,,,,,,,,,,,,15,,62,0
80639,note_on,,0,0,12,,,,,,,,,,,,,,,,15,,78,0
80639,note_on,,14,0,6,,,,,,,,,,,,,,,,3,,79,0
80639,note_on,,119,0,12,,,,,,,,,,,,,,,,15,,74,0
80639,note_on,,119,0,7,,,,,,,,,,,,,,,,8,,62,0
80639,note_on,,0,0,12,,,,,,,,,,,,,,,,15,,69,0
80640,note_on,,1,0,7,,,,,,,,,,,,,,,,8,,50,72
80640,note_on,,1,0,11,,,,,,,,,,,,,,,,13,,50,48
80640,note_on,,1,0,6,,,,,,,,,,,,,,,,3,,78,64
80640,note_on,,1,0,12,,,,,,,,,,,,,,,,15,,50,48
80640,note_on,,0,0,12,,,,,,,,,,,,,,,,15,,81,48
80640,note_on,,0,0,12,,,,,,,,,,,,,,,,15,,74,48
80640,note_on,,0,0,12,,,,,,,,,,,,,,,,15,,78,48
80654,note_on,,14,0,6,,,,,,,,,,,,,,,,3,,78,0
80655,note_on,,1,0,6,,,,,,,,,,,,,,,,3,,79,64
80669,note_on,,14,0,6,,,,,,,,,,,,,,,,3,,79,0
80670,note_on,,1,0,6,,,,,,,,,,,,,,,,3,,76,64
80684,note_on,,14,0,6,,,,,,,,,,,,,,,,3,,76,0
80685,note_on,,1,0,6,,,,,,,,,,,,,,,,3,,78,64
80699,note_on,,14,0,6,,,,,,,,,,,,,,,,3,,78,0
80700,note_on,,1,0,6,,,,,,,,,,,,,,,,3,,76,64
80759,note_on,,119,0,11,,,,,,,,,,,,,,,,13,,50,0
80759,note_on,,119,0,7,,,,,,,,,,,,,,,,8,,50,0
80759,note_on,,0,0,12,,,,,,,,,,,,,,,,15,,81,0
80759,note_on,,0,0,12,,,,,,,,,,,,,,,,15,,78,0
80759,note_on,,59,0,6,,,,,,,,,,,,,,,,3,,76,0
80759,note_on,,119,0,12,,,,,,,,,,,,,,,,15,,50,0
80759,note_on,,0,0,12,,,,,,,,,,,,,,,,15,,74,0
80760,note_on,,1,0,11,,,,,,,,,,,,,,,,13,,57,48
80760,note_on,,0,0,12,,,,,,,,,,,,,,,,15,,69,48
80760,note_on,,0,0,12,,,,,,,,,,,,,,,,15,,73,48
80760,note_on,,0,0,12,,,,,,,,,,,,,,,,15,,64,48
80760,note_on,,1,0,6,,,,,,,,,,,,,,,,3,,76,64
80760,note_on,,1,0,12,,,,,,,,,,,,,,,,15,,57,48
80760,note_on,,1,0,7,,,,,,,,,,,,,,,,8,,57,72
80819,note_on,,59,0,7,,,,,,,,,,,,,,,,8,,57,0
80820,note_on,,1,0,7,,,,,,,,,,,,,,,,8,,57,72
80879,note_on,,59,0,7,,,,,,,,,,,,,,,,8,,57,0
80880,note_on,,1,0,7,,,,,,,,,,,,,,,,8,,57,72
80939,note_on,,179,0,11,,,,,,,,,,,,,,,,13,,57,0
80939,note_on,,179,0,12,,,,,,,,,,,,,,,,15,,57,0
80940,note_on,,4261,0,5,,,,,,,,,,,,,,,,2,,55,72
80940,note_on,,1,0,11,,,,,,,,,,,,,,,,13,,55,72
80940,note_on,,1,0,12,,,,,,,,,,,,,,,,15,,55,72
80999,note_on,,59,0,11,,,,,,,,,,,,,,,,13,,55,0
80999,note_on,,239,0,6,,,,,,,,,,,,,,,,3,,76,0
80999,note_on,,59,0,12,,,,,,,,,,,,,,,,15,,69,0
80999,note_on,,0,0,12,,,,,,,,,,,,,,,,15,,64,0
80999,note_on,,0,0,12,,,,,,,,,,,,,,,,15,,73,0
80999,note_on,,59,0,5,,,,,,,,,,,,,,,,2,,55,0
80999,note_on,,119,0,7,,,,,,,,,,,,,,,,8,,57,0
80999,note_on,,0,0,12,,,,,,,,,,,,,,,,15,,55,0
81000,note_on,,1,0,11,,,,,,,,,,,,,,,,13,,57,72
81000,note_on,,3001,0,9,,,,,,,,,,,,,,,,11,,66,72
81000,note_on,,3001,0,10,,,,,,,,,,,,,,,,12,,61,72
81000,note_on,,1,0,12,,,,,,,,,,,,,,,,15,,57,72
81000,note_on,,3001,0,8,,,,,,,,,,,,,,,,10,,81,72
81000,note_on,,1,0,5,,,,,,,,,,,,,,,,2,,57,72
81059,note_on,,59,0,5,,,,,,,,,,,,,,,,2,,57,0
81059,note_on,,59,0,11,,,,,,,,,,,,,,,,13,,57,0
81059,note_on,,59,0,12,,,,,,,,,,,,,,,,15,,57,0
81060,note_on,,1,0,11,,,,,,,,,,,,,,,,13,,54,72
81060,note_on,,1,0,5,,,,,,,,,,,,,,,,2,,54,72
81060,note_on,,1,0,12,,,,,,,,,,,,,,,,15,,54,72
81119,note_on,,119,0,8,,,,,,,,,,,,,,,,10,,81,0
81119,note_on,,59,0,12,,,,,,,,,,,,,,,,15,,54,0
81119,note_on,,119,0,10,,,,,,,,,,,,,,,,12,,61,0
81119,note_on,,59,0,5,,,,,,,,,,,,,,,,2,,54,0
81119,note_on,,59,0,11,,,,,,,,,,,,,,,,13,,54,0
81119,note_on,,119,0,9,,,,,,,,,,,,,,,,11,,66,0
81120,note_on,,1,0,10,,,,,,,,,,,,,,,,12,,62,72
81120,note_on,,1,0,12,,,,,,,,,,,,,,,,15,,62,72
81120,note_on,,1,0,8,,,,,,,,,,,,,,,,10,,74,72
81120,note_on,,1,0,5,,,,,,,,,,,,,,,,2,,59,72
81120,note_on,,0,0,12,,,,,,,,,,,,,,,,15,,66,72
81120,note_on,,0,0,12,,,,,,,,,,,,,,,,15,,71,72
81120,note_on,,0,0,12,,,,,,,,,,,,,,,,15,,59,72
81120,note_on,,1,0,9,,,,,,,,,,,,,,,,11,,66,72
81120,note_on,,1,0,11,,,,,,,,,,,,,,,,13,,59,72
81179,note_on,,59,0,12,,,,,,,,,,,,,,,,15,,59,0
81179,note_on,,59,0,11,,,,,,,,,,,,,,,,13,,59,0
81179,note_on,,59,0,5,,,,,,,,,,,,,,,,2,,59,0
81180,note_on,,1,0,5,,,,,,,,,,,,,,,,2,,61,72
81180,note_on,,1,0,12,,,,,,,,,,,,,,,,15,,61,72
81180,note_on,,1,0,11,,,,,,,,,,,,,,,,13,,61,72
81239,note_on,,59,0,11,,,,,,,,,,,,,,,,13,,61,0
81239,note_on,,59,0,5,,,,,,,,,,,,,,,,2,,61,0
81239,note_on,,59,0,12,,,,,,,,,,,,,,,,15,,61,0
81240,note_on,,1,0,5,,,,,,,,,,,,,,,,2,,59,72
81240,note_on,,1,0,11,,,,,,,,,,,,,,,,13,,59,72
81240,note_on,,1,0,12,,,,,,,,,,,,,,,,15,,59,72
81299,note_on,,59,0,12,,,,,,,,,,,,,,,,15,,59,0
81299,note_on,,59,0,5,,,,,,,,,,,,,,,,2,,59,0
81299,note_on,,179,0,8,,,,,,,,,,,,,,,,10,,74,0
81299,note_on,,179,0,10,,,,,,,,,,,,,,,,12,,62,0
81299,note_on,,179,0,9,,,,,,,,,,,,,,,,11,,66,0
81299,note_on,,59,0,11,,,,,,,,,,,,,,,,13,,59,0
81300,note_on,,1,0,10,,,,,,,,,,,,,,,,12,,61,72
81300,note_on,,1,0,5,,,,,,,,,,,,,,,,2,,57,72
81300,note_on,,1,0,9,,,,,,,,,,,,,,,,11,,66,72
81300,note_on,,1,0,11,,,,,,,,,,,,,,,,13,,57,72
81300,note_on,,1,0,12,,,,,,,,,,,,,,,,15,,57,72
81300,note_on,,1,0,8,,,,,,,,,,,,,,,,10,,74,72
81359,note_on,,59,0,11,,,,,,,,,,,,,,,,13,,57,0
81359,note_on,,59,0,8,,,,,,,,,,,,,,,,10,,74,0
81359,note_on,,59,0,12,,,,,,,,,,,,,,,,15,,57,0
81359,note_on,,59,0,9,,,,,,,,,,,,,,,,11,,66,0
81359,note_on,,59,0,10,,,,,,,,,,,,,,,,12,,61,0
81359,note_on,,59,0,5,,,,,,,,,,,,,,,,2,,57,0
81360,note_on,,1,0,9,,,,,,,,,,,,,,,,11,,67,72
81360,note_on,,1,0,8,,,,,,,,,,,,,,,,10,,76,72
81360,note_on,,1,0,10,,,,,,,,,,,,,,,,12,,59,72
81360,note_on,,1,0,5,,,,,,,,,,,,,,,,2,,55,72
81360,note_on,,1,0,12,,,,,,,,,,,,,,,,15,,55,72
81360,note_on,,1,0,11,,,,,,,,,,,,,,,,13,,55,72
81419,note_on,,59,0,12,,,,,,,,,,,,,,,,15,,55,0
81419,note_on,,59,0,8,,,,,,,,,,,,,,,,10,,76,0
81419,note_on,,59,0,11,,,,,,,,,,,,,,,,13,,55,0
81419,note_on,,59,0,5,,,,,,,,,,,,,,,,2,,55,0
81419,note_on,,59,0,9,,,,,,,,,,,,,,,,11,,67,0
81420,note_on,,1,0,8,,,,,,,,,,,,,,,,10,,78,72
81420,note_on,,1,0,12,,,,,,,,,,,,,,,,15,,54,72
81420,note_on,,1,0,11,,,,,,,,,,,,,,,,13,,54,72
81420,note_on,,1,0,5,,,,,,,,,,,,,,,,2,,54,72
81420,note_on,,1,0,9,,,,,,,,,,,,,,,,11,,69,72
81479,note_on,,59,0,9,,,,,,,,,,,,,,,,11,,69,0
81479,note_on,,59,0,12,,,,,,,,,,,,,,,,15,,62,0
81479,note_on,,119,0,10,,,,,,,,,,,,,,,,12,,59,0
81479,note_on,,0,0,12,,,,,,,,,,,,,,,,15,,71,0
81479,note_on,,0,0,12,,,,,,,,,,,,,,,,15,,54,0
81479,note_on,,59,0,5,,,,,,,,,,,,,,,,2,,54,0
81479,note_on,,0,0,12,,,,,,,,,,,,,,,,15,,66,0
81479,note_on,,59,0,8,,,,,,,,,,,,,,,,10,,78,0
81479,note_on,,59,0,11,,,,,,,,,,,,,,,,13,,54,0
81480,note_on,,0,0,12,,,,,,,,,,,,,,,,15,,67,72
81480,note_on,,0,0,12,,,,,,,,,,,,,,,,15,,52,72
81480,note_on,,1,0,8,,,,,,,,,,,,,,,,10,,79,72
81480,note_on,,1,0,9,,,,,,,,,,,,,,,,11,,71,72
81480,note_on,,0,0,12,,,,,,,,,,,,,,,,15,,76,72
81480,note_on,,1,0,10,,,,,,,,,,,,,,,,12,,59,72
81480,note_on,,1,0,5,,,,,,,,,,,,,,,,2,,52,72
81480,note_on,,1,0,11,,,,,,,,,,,,,,,,13,,52,72
81480,note_on,,1,0,12,,,,,,,,,,,,,,,,15,,71,72
81599,note_on,,119,0,12,,,,,,,,,,,,,,,,15,,71,0
81599,note_on,,0,0,12,,,,,,,,,,,,,,,,15,,67,0
81599,note_on,,0,0,12,,,,,,,,,,,,,,,,15,,52,0
81599,note_on,,119,0,5,,,,,,,,,,,,,,,,2,,52,0
81599,note_on,,119,0,11,,,,,,,,,,,,,,,,13,,52,0
81599,note_on,,0,0,12,,,,,,,,,,,,,,,,15,,76,0
81599,note_on,,119,0,10,,,,,,,,,,,,,,,,12,,59,0
81599,note_on,,119,0,9,,,,,,,,,,,,,,,,11,,71,0
81600,note_on,,1,0,9,,,,,,,,,,,,,,,,11,,69,72
81600,note_on,,0,0,12,,,,,,,,,,,,,,,,15,,64,72
81600,note_on,,0,0,12,,,,,,,,,,,,,,,,15,,61,72
81600,note_on,,1,0,11,,,,,,,,,,,,,,,,13,,61,72
81600,note_on,,1,0,5,,,,,,,,,,,,,,,,2,,61,72
81600,note_on,,1,0,12,,,,,,,,,,,,,,,,15,,69,72
81600,note_on,,1,0,10,,,,,,,,,,,,,,,,12,,64,72
81659,note_on,,179,0,8,,,,,,,,,,,,,,,,10,,79,0
81660,note_on,,1,0,8,,,,,,,,,,,,,,,,10,,78,72
81719,note_on,,119,0,11,,,,,,,,,,,,,,,,13,,61,0
81719,note_on,,119,0,9,,,,,,,,,,,,,,,,11,,69,0
81719,note_on,,119,0,5,,,,,,,,,,,,,,,,2,,61,0
81719,note_on,,119,0,10,,,,,,,,,,,,,,,,12,,64,0
81719,note_on,,0,0,12,,,,,,,,,,,,,,,,15,,64,0
81719,note_on,,0,0,12,,,,,,,,,,,,,,,,15,,61,0
81719,note_on,,119,0,12,,,,,,,,,,,,,,,,15,,69,0
81719,note_on,,59,0,8,,,,,,,,,,,,,,,,10,,78,0
81720,note_on,,0,0,12,,,,,,,,,,,,,,,,15,,73,72
81720,note_on,,1,0,9,,,,,,,,,,,,,,,,11,,73,72
81720,note_on,,1,0,12,,,,,,,,,,,,,,,,15,,64,72
81720,note_on,,0,0,12,,,,,,,,,,,,,,,,15,,57,72
81720,note_on,,0,0,12,,,,,,,,,,,,,,,,15,,69,72
81720,note_on,,1,0,11,,,,,,,,,,,,,,,,13,,57,72
81720,note_on,,1,0,8,,,,,,,,,,,,,,,,10,,79,72
81720,note_on,,1,0,5,,,,,,,,,,,,,,,,2,,57,72
81720,note_on,,1,0,10,,,,,,,,,,,,,,,,12,,69,72
81779,note_on,,59,0,8,,,,,,,,,,,,,,,,10,,79,0
81780,note_on,,1,0,8,,,,,,,,,,,,,,,,10,,76,72
81839,note_on,,119,0,5,,,,,,,,,,,,,,,,2,,57,0
81839,note_on,,59,0,8,,,,,,,,,,,,,,,,10,,76,0
81839,note_on,,0,0,12,,,,,,,,,,,,,,,,15,,57,0
81839,note_on,,0,0,12,,,,,,,,,,,,,,,,15,,73,0
81839,note_on,,0,0,12,,,,,,,,,,,,,,,,15,,69,0
81839,note_on,,119,0,11,,,,,,,,,,,,,,,,13,,57,0
81839,note_on,,119,0,10,,,,,,,,,,,,,,,,12,,69,0
81839,note_on,,119,0,9,,,,,,,,,,,,,,,,11,,73,0
81839,note_on,,119,0,12,,,,,,,,,,,,,,,,15,,64,0
81840,note_on,,0,0,12,,,,,,,,,,,,,,,,15,,69,72
81840,note_on,,1,0,8,,,,,,,,,,,,,,,,10,,78,72
81840,note_on,,1,0,5,,,,,,,,,,,,,,,,2,,62,72
81840,note_on,,1,0,11,,,,,,,,,,,,,,,,13,,62,72
81840,note_on,,1,0,9,,,,,,,,,,,,,,,,11,,74,72
81840,note_on,,0,0,12,,,,,,,,,,,,,,,,15,,66,72
81840,note_on,,0,0,12,,,,,,,,,,,,,,,,15,,74,72
81840,note_on,,1,0,10,,,,,,,,,,,,,,,,12,,69,72
81840,note_on,,1,0,12,,,,,,,,,,,,,,,,15,,62,72
81899,note_on,,59,0,8,,,,,,,,,,,,,,,,10,,78,0
81899,note_on,,59,0,5,,,,,,,,,,,,,,,,2,,62,0
81899,note_on,,59,0,10,,,,,,,,,,,,,,,,12,,69,0
81899,note_on,,59,0,12,,,,,,,,,,,,,,,,15,,62,0
81899,note_on,,59,0,9,,,,,,,,,,,,,,,,11,,74,0
81899,note_on,,59,0,11,,,,,,,,,,,,,,,,13,,62,0
81900,note_on,,1,0,12,,,,,,,,,,,,,,,,15,,61,72
81900,note_on,,1,0,9,,,,,,,,,,,,,,,,11,,76,72
81900,note_on,,1,0,5,,,,,,,,,,,,,,,,2,,61,72
81900,note_on,,1,0,10,,,,,,,,,,,,,,,,12,,69,72
81900,note_on,,1,0,11,,,,,,,,,,,,,,,,13,,61,72
81900,note_on,,1,0,8,,,,,,,,,,,,,,,,10,,79,72
81959,note_on,,59,0,12,,,,,,,,,,,,,,,,15,,61,0
81959,note_on,,59,0,11,,,,,,,,,,,,,,,,13,,61,0
81959,note_on,,59,0,5,,,,,,,,,,,,,,,,2,,61,0
81959,note_on,,59,0,10,,,,,,,,,,,,,,,,12,,69,0
81959,note_on,,59,0,8,,,,,,,,,,,,,,,,10,,79,0
81959,note_on,,59,0,9,,,,,,,,,,,,,,,,11,,76,0
81960,note_on,,1,0,10,,,,,,,,,,,,,,,,12,,69,72
81960,note_on,,1,0,11,,,,,,,,,,,,,,,,13,,62,72
81960,note_on,,1,0,5,,,,,,,,,,,,,,,,2,,62,72
81960,note_on,,1,0,8,,,,,,,,,,,,,,,,10,,78,72
81960,note_on,,1,0,12,,,,,,,,,,,,,,,,15,,62,72
81960,note_on,,1,0,9,,,,,,,,,,,,,,,,11,,74,72
81974,note_on,,14,0,8,,,,,,,,,,,,,,,,10,,78,0
81975,note_on,,1,0,8,,,,,,,,,,,,,,,,10,,79,72
81989,note_on,,14,0,8,,,,,,,,,,,,,,,,10,,79,0
81990,note_on,,1,0,8,,,,,,,,,,,,,,,,10,,78,72
82004,note_on,,14,0,8,,,,,,,,,,,,,,,,10,,78,0
82005,note_on,,1,0,8,,,,,,,,,,,,,,,,10,,79,72
82019,note_on,,14,0,8,,,,,,,,,,,,,,,,10,,79,0
82020,note_on,,1,0,8,,,,,,,,,,,,,,,,10,,78,72
82034,note_on,,14,0,8,,,,,,,,,,,,,,,,10,,78,0
82035,note_on,,1,0,8,,,,,,,,,,,,,,,,10,,79,72
82049,note_on,,14,0,8,,,,,,,,,,,,,,,,10,,79,0
82050,note_on,,1,0,8,,,,,,,,,,,,,,,,10,,78,72
82064,note_on,,14,0,8,,,,,,,,,,,,,,,,10,,78,0
82065,note_on,,1,0,8,,,,,,,,,,,,,,,,10,,79,72
82079,note_on,,119,0,12,,,,,,,,,,,,,,,,15,,62,0
82079,note_on,,119,0,5,,,,,,,,,,,,,,,,2,,62,0
82079,note_on,,119,0,10,,,,,,,,,,,,,,,,12,,69,0
82079,note_on,,14,0,8,,,,,,,,,,,,,,,,10,,79,0
82079,note_on,,119,0,11,,,,,,,,,,,,,,,,13,,62,0
82080,note_on,,1,0,11,,,,,,,,,,,,,,,,13,,50,72
82080,note_on,,1,0,5,,,,,,,,,,,,,,,,2,,50,72
82080,note_on,,1,0,8,,,,,,,,,,,,,,,,10,,78,72
82080,note_on,,1,0,10,,,,,,,,,,,,,,,,12,,69,72
82080,note_on,,1,0,12,,,,,,,,,,,,,,,,15,,50,72
82094,note_on,,14,0,8,,,,,,,,,,,,,,,,10,,78,0
82095,note_on,,1,0,8,,,,,,,,,,,,,,,,10,,79,72
82109,note_on,,14,0,8,,,,,,,,,,,,,,,,10,,79,0
82110,note_on,,1,0,8,,,,,,,,,,,,,,,,10,,76,72
82124,note_on,,14,0,8,,,,,,,,,,,,,,,,10,,76,0
82125,note_on,,1,0,8,,,,,,,,,,,,,,,,10,,78,72
82139,note_on,,179,0,9,,,,,,,,,,,,,,,,11,,74,0
82139,note_on,,14,0,8,,,,,,,,,,,,,,,,10,,78,0
82140,note_on,,1,0,8,,,,,,,,,,,,,,,,10,,76,72
82140,note_on,,1,0,9,,,,,,,,,,,,,,,,11,,73,72
82199,note_on,,119,0,10,,,,,,,,,,,,,,,,12,,69,0
82199,note_on,,59,0,9,,,,,,,,,,,,,,,,11,,73,0
82199,note_on,,119,0,5,,,,,,,,,,,,,,,,2,,50,0
82199,note_on,,119,0,11,,,,,,,,,,,,,,,,13,,50,0
82199,note_on,,0,0,12,,,,,,,,,,,,,,,,15,,69,0
82199,note_on,,59,0,8,,,,,,,,,,,,,,,,10,,76,0
82199,note_on,,0,0,12,,,,,,,,,,,,,,,,15,,74,0
82199,note_on,,119,0,12,,,,,,,,,,,,,,,,15,,66,0
82199,note_on,,0,0,12,,,,,,,,,,,,,,,,15,,50,0
82200,note_on,,0,0,12,,,,,,,,,,,,,,,,15,,64,72
82200,note_on,,0,0,12,,,,,,,,,,,,,,,,15,,69,72
82200,note_on,,1,0,10,,,,,,,,,,,,,,,,12,,69,72
82200,note_on,,1,0,5,,,,,,,,,,,,,,,,2,,57,72
82200,note_on,,1,0,9,,,,,,,,,,,,,,,,11,,73,72
82200,note_on,,1,0,12,,,,,,,,,,,,,,,,15,,76,72
82200,note_on,,1,0,8,,,,,,,,,,,,,,,,10,,76,72
82200,note_on,,0,0,12,,,,,,,,,,,,,,,,15,,73,72
82200,note_on,,1,0,11,,,,,,,,,,,,,,,,13,,57,72
82200,note_on,,0,0,12,,,,,,,,,,,,,,,,15,,57,72
82439,note_on,,239,0,5,,,,,,,,,,,,,,,,2,,57,0
82439,note_on,,239,0,11,,,,,,,,,,,,,,,,13,,57,0
82439,note_on,,239,0,12,,,,,,,,,,,,,,,,15,,76,0
82439,note_on,,0,0,12,,,,,,,,,,,,,,,,15,,69,0
82439,note_on,,0,0,12,,,,,,,,,,,,,,,,15,,73,0
82439,note_on,,239,0,8,,,,,,,,,,,,,,,,10,,76,0
82439,note_on,,239,0,9,,,,,,,,,,,,,,,,11,,73,0
82439,note_on,,239,0,10,,,,,,,,,,,,,,,,12,,69,0
82439,note_on,,0,0,12,,,,,,,,,,,,,,,,15,,57,0
82439,note_on,,0,0,12,,,,,,,,,,,,,,,,15,,64,0
82440,note_on,,1441,0,7,,,,,,,,,,,,,,,,8,,52,72
82559,note_on,,119,0,7,,,,,,,,,,,,,,,,8,,52,0
82560,note_on,,1,0,7,,,,,,,,,,,,,,,,8,,57,72
82679,note_on,,119,0,7,,,,,,,,,,,,,,,,8,,57,0
82680,note_on,,1,0,7,,,,,,,,,,,,,,,,8,,57,72
82739,note_on,,59,0,7,,,,,,,,,,,,,,,,8,,57,0
82740,note_on,,1,0,7,,,,,,,,,,,,,,,,8,,59,72
82799,note_on,,59,0,7,,,,,,,,,,,,,,,,8,,59,0
82800,note_on,,1,0,7,,,,,,,,,,,,,,,,8,,61,72
82859,note_on,,59,0,7,,,,,,,,,,,,,,,,8,,61,0
82860,note_on,,1,0,7,,,,,,,,,,,,,,,,8,,62,72
82919,note_on,,59,0,7,,,,,,,,,,,,,,,,8,,62,0
82920,note_on,,1,0,7,,,,,,,,,,,,,,,,8,,64,72
83160,note_on,,721,0,5,,,,,,,,,,,,,,,,2,,45,64
83160,note_on,,721,0,11,,,,,,,,,,,,,,,,13,,45,64
83160,note_on,,721,0,10,,,,,,,,,,,,,,,,12,,61,64
83160,note_on,,2161,0,6,,,,,,,,,,,,,,,,3,,69,64
83160,note_on,,721,0,9,,,,,,,,,,,,,,,,11,,64,64
83160,note_on,,721,0,8,,,,,,,,,,,,,,,,10,,69,64
83160,note_on,,721,0,12,,,,,,,,,,,,,,,,15,,57,64
83160,note_on,,0,0,12,,,,,,,,,,,,,,,,15,,61,64
83160,note_on,,0,0,12,,,,,,,,,,,,,,,,15,,64,64
83160,note_on,,0,0,12,,,,,,,,,,,,,,,,15,,45,64
83279,note_on,,119,0,11,,,,,,,,,,,,,,,,13,,45,0
83279,note_on,,119,0,8,,,,,,,,,,,,,,,,10,,69,0
83279,note_on,,0,0,12,,,,,,,,,,,,,,,,15,,61,0
83279,note_on,,119,0,5,,,,,,,,,,,,,,,,2,,45,0
83279,note_on,,119,0,12,,,,,,,,,,,,,,,,15,,57,0
83279,note_on,,119,0,10,,,,,,,,,,,,,,,,12,,61,0
83279,note_on,,0,0,12,,,,,,,,,,,,,,,,15,,45,0
83279,note_on,,0,0,12,,,,,,,,,,,,,,,,15,,64,0
83279,note_on,,119,0,6,,,,,,,,,,,,,,,,3,,69,0
83279,note_on,,119,0,9,,,,,,,,,,,,,,,,11,,64,0
83280,note_on,,0,0,12,,,,,,,,,,,,,,,,15,,69,64
83280,note_on,,0,0,12,,,,,,,,,,,,,,,,15,,57,64
83280,note_on,,1,0,8,,,,,,,,,,,,,,,,10,,73,64
83280,note_on,,0,0,12,,,,,,,,,,,,,,,,15,,61,64
83280,note_on,,1,0,12,,,,,,,,,,,,,,,,15,,64,64
83280,note_on,,1,0,5,,,,,,,,,,,,,,,,2,,57,64
83280,note_on,,1,0,11,,,,,,,,,,,,,,,,13,,57,64
83280,note_on,,1,0,6,,,,,,,,,,,,,,,,3,,69,64
83280,note_on,,1,0,10,,,,,,,,,,,,,,,,12,,64,64
83280,note_on,,1,0,9,,,,,,,,,,,,,,,,11,,69,64
83399,note_on,,119,0,12,,,,,,,,,,,,,,,,15,,64,0
83399,note_on,,0,0,12,,,,,,,,,,,,,,,,15,,61,0
83399,note_on,,0,0,12,,,,,,,,,,,,,,,,15,,69,0
83459,note_on,,60,0,12,,,,,,,,,,,,,,,,15,,57,0
83459,note_on,,179,0,8,,,,,,,,,,,,,,,,10,,73,0
83459,note_on,,179,0,5,,,,,,,,,,,,,,,,2,,57,0
83459,note_on,,179,0,10,,,,,,,,,,,,,,,,12,,64,0
83459,note_on,,179,0,6,,,,,,,,,,,,,,,,3,,69,0
83459,note_on,,179,0,11,,,,,,,,,,,,,,,,13,,57,0
83459,note_on,,179,0,9,,,,,,,,,,,,,,,,11,,69,0
83460,note_on,,1,0,12,,,,,,,,,,,,,,,,15,,57,64
83460,note_on,,1,0,5,,,,,,,,,,,,,,,,2,,57,64
83460,note_on,,1,0,8,,,,,,,,,,,,,,,,10,,73,64
83460,note_on,,1,0,9,,,,,,,,,,,,,,,,11,,69,64
83460,note_on,,1,0,11,,,,,,,,,,,,,,,,13,,57,64
83460,note_on,,1,0,10,,,,,,,,,,,,,,,,12,,64,64
83460,note_on,,1,0,6,,,,,,,,,,,,,,,,3,,69,64
83519,note_on,,59,0,8,,,,,,,,,,,,,,,,10,,73,0
83519,note_on,,59,0,5,,,,,,,,,,,,,,,,2,,57,0
83519,note_on,,59,0,11,,,,,,,,,,,,,,,,13,,57,0
83519,note_on,,59,0,9,,,,,,,,,,,,,,,,11,,69,0
83519,note_on,,59,0,12,,,,,,,,,,,,,,,,15,,57,0
83519,note_on,,59,0,10,,,,,,,,,,,,,,,,12,,64,0
83519,note_on,,599,0,7,,,,,,,,,,,,,,,,8,,64,0
83519,note_on,,59,0,6,,,,,,,,,,,,,,,,3,,69,0
83520,note_on,,1,0,9,,,,,,,,,,,,,,,,11,,69,64
83520,note_on,,1,0,10,,,,,,,,,,,,,,,,12,,64,64
83520,note_on,,1,0,8,,,,,,,,,,,,,,,,10,,73,64
83520,note_on,,1,0,5,,,,,,,,,,,,,,,,2,,57,64
83520,note_on,,0,0,12,,,,,,,,,,,,,,,,15,,64,64
83520,note_on,,0,0,12,,,,,,,,,,,,,,,,15,,73,64
83520,note_on,,0,0,12,,,,,,,,,,,,,,,,15,,57,64
83520,note_on,,1,0,12,,,,,,,,,,,,,,,,15,,69,64
83520,note_on,,1,0,6,,,,,,,,,,,,,,,,3,,69,64
83520,note_on,,1,0,11,,,,,,,,,,,,,,,,13,,57,64
83609,note_on,,89,0,12,,,,,,,,,,,,,,,,15,,57,0
83609,note_on,,89,0,9,,,,,,,,,,,,,,,,11,,69,0
83609,note_on,,89,0,8,,,,,,,,,,,,,,,,10,,73,0
83609,note_on,,89,0,10,,,,,,,,,,,,,,,,12,,64,0
83609,note_on,,89,0,11,,,,,,,,,,,,,,,,13,,57,0
83609,note_on,,89,0,6,,,,,,,,,,,,,,,,3,,69,0
83609,note_on,,89,0,5,,,,,,,,,,,,,,,,2,,57,0
83610,note_on,,1,0,5,,,,,,,,,,,,,,,,2,,57,64
83610,note_on,,1,0,12,,,,,,,,,,,,,,,,15,,57,64
83610,note_on,,1,0,9,,,,,,,,,,,,,,,,11,,69,64
83610,note_on,,1,0,8,,,,,,,,,,,,,,,,10,,73,64
83610,note_on,,1,0,6,,,,,,,,,,,,,,,,3,,69,64
83610,note_on,,1,0,11,,,,,,,,,,,,,,,,13,,57,64
83610,note_on,,1,0,10,,,,,,,,,,,,,,,,12,,64,64
83639,note_on,,29,0,8,,,,,,,,,,,,,,,,10,,73,0
83639,note_on,,29,0,9,,,,,,,,,,,,,,,,11,,69,0
83639,note_on,,0,0,12,,,,,,,,,,,,,,,,15,,57,0
83639,note_on,,29,0,10,,,,,,,,,,,,,,,,12,,64,0
83639,note_on,,0,0,12,,,,,,,,,,,,,,,,15,,73,0
83639,note_on,,0,0,12,,,,,,,,,,,,,,,,15,,64,0
83639,note_on,,29,0,12,,,,,,,,,,,,,,,,15,,69,0
83639,note_on,,29,0,11,,,,,,,,,,,,,,,,13,,57,0
83639,note_on,,29,0,5,,,,,,,,,,,,,,,,2,,57,0
83639,note_on,,29,0,6,,,,,,,,,,,,,,,,3,,69,0
83640,note_on,,1,0,11,,,,,,,,,,,,,,,,13,,56,64
83640,note_on,,1,0,10,,,,,,,,,,,,,,,,12,,64,64
83640,note_on,,1,0,5,,,,,,,,,,,,,,,,2,,56,64
83640,note_on,,0,0,12,,,,,,,,,,,,,,,,15,,64,64
83640,note_on,,1,0,12,,,,,,,,,,,,,,,,15,,71,64
83640,note_on,,0,0,12,,,,,,,,,,,,,,,,15,,56,64
83640,note_on,,0,0,12,,,,,,,,,,,,,,,,15,,59,64
83640,note_on,,1,0,6,,,,,,,,,,,,,,,,3,,76,64
83640,note_on,,1,0,9,,,,,,,,,,,,,,,,11,,71,64
83640,note_on,,1,0,8,,,,,,,,,,,,,,,,10,,76,64
83760,note_on,,241,0,7,,,,,,,,,,,,,,,,8,,64,72
83819,note_on,,179,0,10,,,,,,,,,,,,,,,,12,,64,0
83819,note_on,,179,0,12,,,,,,,,,,,,,,,,15,,56,0
83819,note_on,,179,0,5,,,,,,,,,,,,,,,,2,,56,0
83819,note_on,,179,0,8,,,,,,,,,,,,,,,,10,,76,0
83819,note_on,,59,0,7,,,,,,,,,,,,,,,,8,,64,0
83819,note_on,,179,0,11,,,,,,,,,,,,,,,,13,,56,0
83819,note_on,,179,0,9,,,,,,,,,,,,,,,,11,,71,0
83819,note_on,,179,0,6,,,,,,,,,,,,,,,,3,,76,0
83820,note_on,,1,0,8,,,,,,,,,,,,,,,,10,,76,48
83820,note_on,,1,0,7,,,,,,,,,,,,,,,,8,,62,72
83820,note_on,,1,0,9,,,,,,,,,,,,,,,,11,,71,48
83820,note_on,,1,0,6,,,,,,,,,,,,,,,,3,,76,64
83820,note_on,,1,0,5,,,,,,,,,,,,,,,,2,,56,48
83820,note_on,,1,0,11,,,,,,,,,,,,,,,,13,,56,48
83820,note_on,,1,0,12,,,,,,,,,,,,,,,,15,,56,48
83820,note_on,,1,0,10,,,,,,,,,,,,,,,,12,,64,48
83879,note_on,,59,0,9,,,,,,,,,,,,,,,,11,,71,0
83879,note_on,,59,0,5,,,,,,,,,,,,,,,,2,,56,0
83879,note_on,,59,0,11,,,,,,,,,,,,,,,,13,,56,0
83879,note_on,,59,0,10,,,,,,,,,,,,,,,,12,,64,0
83879,note_on,,59,0,12,,,,,,,,,,,,,,,,15,,56,0
83879,note_on,,59,0,8,,,,,,,,,,,,,,,,10,,76,0
83879,note_on,,59,0,6,,,,,,,,,,,,,,,,3,,76,0
83879,note_on,,59,0,7,,,,,,,,,,,,,,,,8,,62,0
83880,note_on,,1,0,7,,,,,,,,,,,,,,,,8,,61,72
83880,note_on,,1,0,6,,,,,,,,,,,,,,,,3,,76,64
83880,note_on,,1,0,11,,,,,,,,,,,,,,,,13,,56,48
83880,note_on,,1,0,9,,,,,,,,,,,,,,,,11,,71,48
83880,note_on,,1,0,12,,,,,,,,,,,,,,,,15,,56,48
83880,note_on,,1,0,8,,,,,,,,,,,,,,,,10,,76,48
83880,note_on,,1,0,5,,,,,,,,,,,,,,,,2,,56,48
83880,note_on,,1,0,10,,,,,,,,,,,,,,,,12,,64,48
83939,note_on,,59,0,7,,,,,,,,,,,,,,,,8,,61,0
83940,note_on,,1,0,7,,,,,,,,,,,,,,,,8,,59,72
83969,note_on,,89,0,10,,,,,,,,,,,,,,,,12,,64,0
83969,note_on,,89,0,12,,,,,,,,,,,,,,,,15,,56,0
83969,note_on,,89,0,8,,,,,,,,,,,,,,,,10,,76,0
83969,note_on,,89,0,11,,,,,,,,,,,,,,,,13,,56,0
83969,note_on,,89,0,9,,,,,,,,,,,,,,,,11,,71,0
83969,note_on,,89,0,6,,,,,,,,,,,,,,,,3,,76,0
83969,note_on,,89,0,5,,,,,,,,,,,,,,,,2,,56,0
83970,note_on,,1,0,8,,,,,,,,,,,,,,,,10,,76,48
83970,note_on,,1,0,10,,,,,,,,,,,,,,,,12,,64,48
83970,note_on,,1,0,11,,,,,,,,,,,,,,,,13,,56,48
83970,note_on,,1,0,12,,,,,,,,,,,,,,,,15,,56,48
83970,note_on,,1,0,9,,,,,,,,,,,,,,,,11,,71,48
83970,note_on,,1,0,6,,,,,,,,,,,,,,,,3,,76,64
83970,note_on,,1,0,5,,,,,,,,,,,,,,,,2,,56,48
83999,note_on,,29,0,10,,,,,,,,,,,,,,,,12,,64,0
83999,note_on,,29,0,12,,,,,,,,,,,,,,,,15,,71,0
83999,note_on,,0,0,12,,,,,,,,,,,,,,,,15,,59,0
83999,note_on,,29,0,5,,,,,,,,,,,,,,,,2,,56,0
83999,note_on,,29,0,6,,,,,,,,,,,,,,,,3,,76,0
83999,note_on,,29,0,9,,,,,,,,,,,,,,,,11,,71,0
83999,note_on,,0,0,12,,,,,,,,,,,,,,,,15,,64,0
83999,note_on,,59,0,7,,,,,,,,,,,,,,,,8,,59,0
83999,note_on,,29,0,11,,,,,,,,,,,,,,,,13,,56,0
83999,note_on,,29,0,8,,,,,,,,,,,,,,,,10,,76,0
83999,note_on,,0,0,12,,,,,,,,,,,,,,,,15,,56,0
84000,note_on,,1,0,6,,,,,,,,,,,,,,,,3,,81,64
84000,note_on,,1,0,11,,,,,,,,,,,,,,,,13,,54,48
84000,note_on,,1,0,5,,,,,,,,,,,,,,,,2,,54,48
84000,note_on,,1,0,10,,,,,,,,,,,,,,,,12,,61,48
84000,note_on,,1,0,8,,,,,,,,,,,,,,,,10,,81,48
84000,note_on,,1,0,12,,,,,,,,,,,,,,,,15,,69,48
84000,note_on,,0,0,12,,,,,,,,,,,,,,,,15,,61,48
84000,note_on,,0,0,12,,,,,,,,,,,,,,,,15,,54,48
84000,note_on,,1,0,7,,,,,,,,,,,,,,,,8,,57,72
84000,note_on,,0,0,12,,,,,,,,,,,,,,,,15,,66,48
84000,note_on,,1,0,9,,,,,,,,,,,,,,,,11,,73,48
84059,note_on,,59,0,7,,,,,,,,,,,,,,,,8,,57,0
84060,note_on,,1,0,7,,,,,,,,,,,,,,,,8,,56,72
84119,note_on,,59,0,7,,,,,,,,,,,,,,,,8,,56,0
84119,note_on,,119,0,10,,,,,,,,,,,,,,,,12,,61,0
84120,note_on,,1,0,10,,,,,,,,,,,,,,,,12,,57,48
84120,note_on,,1,0,7,,,,,,,,,,,,,,,,8,,57,72
84179,note_on,,179,0,11,,,,,,,,,,,,,,,,13,,54,0
84179,note_on,,179,0,5,,,,,,,,,,,,,,,,2,,54,0
84179,note_on,,179,0,12,,,,,,,,,,,,,,,,15,,54,0
84179,note_on,,179,0,9,,,,,,,,,,,,,,,,11,,73,0
84179,note_on,,179,0,8,,,,,,,,,,,,,,,,10,,81,0
84179,note_on,,179,0,6,,,,,,,,,,,,,,,,3,,81,0
84179,note_on,,59,0,7,,,,,,,,,,,,,,,,8,,57,0
84180,note_on,,1,0,12,,,,,,,,,,,,,,,,15,,54,48
84180,note_on,,1,0,11,,,,,,,,,,,,,,,,13,,54,48
84180,note_on,,1,0,7,,,,,,,,,,,,,,,,8,,59,72
84180,note_on,,1,0,5,,,,,,,,,,,,,,,,2,,54,48
84180,note_on,,1,0,9,,,,,,,,,,,,,,,,11,,71,48
84180,note_on,,1,0,8,,,,,,,,,,,,,,,,10,,80,48
84239,note_on,,59,0,5,,,,,,,,,,,,,,,,2,,54,0
84239,note_on,,59,0,12,,,,,,,,,,,,,,,,15,,54,0
84239,note_on,,59,0,9,,,,,,,,,,,,,,,,11,,71,0
84239,note_on,,59,0,8,,,,,,,,,,,,,,,,10,,80,0
84239,note_on,,59,0,7,,,,,,,,,,,,,,,,8,,59,0
84239,note_on,,59,0,11,,,,,,,,,,,,,,,,13,,54,0
84240,note_on,,1,0,7,,,,,,,,,,,,,,,,8,,61,72
84240,note_on,,1,0,5,,,,,,,,,,,,,,,,2,,54,48
84240,note_on,,1,0,9,,,,,,,,,,,,,,,,11,,69,48
84240,note_on,,1,0,8,,,,,,,,,,,,,,,,10,,81,48
84240,note_on,,1,0,11,,,,,,,,,,,,,,,,13,,54,48
84240,note_on,,1,0,12,,,,,,,,,,,,,,,,15,,54,48
84299,note_on,,59,0,9,,,,,,,,,,,,,,,,11,,69,0
84299,note_on,,179,0,10,,,,,,,,,,,,,,,,12,,57,0
84299,note_on,,59,0,8,,,,,,,,,,,,,,,,10,,81,0
84299,note_on,,59,0,7,,,,,,,,,,,,,,,,8,,61,0
84300,note_on,,1,0,10,,,,,,,,,,,,,,,,12,,57,48
84300,note_on,,1,0,8,,,,,,,,,,,,,,,,10,,83,48
84300,note_on,,1,0,7,,,,,,,,,,,,,,,,8,,62,72
84300,note_on,,1,0,9,,,,,,,,,,,,,,,,11,,66,48
84329,note_on,,89,0,12,,,,,,,,,,,,,,,,15,,54,0
84329,note_on,,89,0,11,,,,,,,,,,,,,,,,13,,54,0
84329,note_on,,89,0,5,,,,,,,,,,,,,,,,2,,54,0
84330,note_on,,1,0,5,,,,,,,,,,,,,,,,2,,54,48
84330,note_on,,1,0,12,,,,,,,,,,,,,,,,15,,54,48
84330,note_on,,1,0,11,,,,,,,,,,,,,,,,13,,54,48
84359,note_on,,59,0,7,,,,,,,,,,,,,,,,8,,62,0
84359,note_on,,0,0,12,,,,,,,,,,,,,,,,15,,54,0
84359,note_on,,0,0,12,,,,,,,,,,,,,,,,15,,66,0
84359,note_on,,0,0,12,,,,,,,,,,,,,,,,15,,61,0
84359,note_on,,29,0,12,,,,,,,,,,,,,,,,15,,69,0
84359,note_on,,59,0,10,,,,,,,,,,,,,,,,12,,57,0
84359,note_on,,29,0,11,,,,,,,,,,,,,,,,13,,54,0
84359,note_on,,29,0,5,,,,,,,,,,,,,,,,2,,54,0
84359,note_on,,59,0,8,,,,,,,,,,,,,,,,10,,83,0
84359,note_on,,59,0,9,,,,,,,,,,,,,,,,11,,66,0
84360,note_on,,1,0,9,,,,,,,,,,,,,,,,11,,71,48
84360,note_on,,1,0,5,,,,,,,,,,,,,,,,2,,52,48
84360,note_on,,1,0,11,,,,,,,,,,,,,,,,13,,52,48
84360,note_on,,1,0,7,,,,,,,,,,,,,,,,8,,64,72
84360,note_on,,1,0,8,,,,,,,,,,,,,,,,10,,80,48
84360,note_on,,1,0,12,,,,,,,,,,,,,,,,15,,52,48
84360,note_on,,0,0,12,,,,,,,,,,,,,,,,15,,68,48
84360,note_on,,0,0,12,,,,,,,,,,,,,,,,15,,64,48
84360,note_on,,0,0,12,,,,,,,,,,,,,,,,15,,71,48
84360,note_on,,1,0,10,,,,,,,,,,,,,,,,12,,52,48
84449,note_on,,89,0,8,,,,,,,,,,,,,,,,10,,80,0
84450,note_on,,1,0,8,,,,,,,,,,,,,,,,10,,78,48
84479,note_on,,29,0,8,,,,,,,,,,,,,,,,10,,78,0
84479,note_on,,0,0,12,,,,,,,,,,,,,,,,15,,68,0
84479,note_on,,0,0,12,,,,,,,,,,,,,,,,15,,64,0
84479,note_on,,0,0,12,,,,,,,,,,,,,,,,15,,71,0
84479,note_on,,119,0,10,,,,,,,,,,,,,,,,12,,52,0
84479,note_on,,119,0,9,,,,,,,,,,,,,,,,11,,71,0
84479,note_on,,119,0,5,,,,,,,,,,,,,,,,2,,52,0
84479,note_on,,119,0,12,,,,,,,,,,,,,,,,15,,52,0
84479,note_on,,119,0,11,,,,,,,,,,,,,,,,13,,52,0
84480,note_on,,1,0,10,,,,,,,,,,,,,,,,12,,59,48
84480,note_on,,1,0,5,,,,,,,,,,,,,,,,2,,56,48
84480,note_on,,1,0,11,,,,,,,,,,,,,,,,13,,56,48
84480,note_on,,0,0,12,,,,,,,,,,,,,,,,15,,59,48
84480,note_on,,0,0,12,,,,,,,,,,,,,,,,15,,56,48
84480,note_on,,1,0,12,,,,,,,,,,,,,,,,15,,64,48
84480,note_on,,1,0,8,,,,,,,,,,,,,,,,10,,76,48
84480,note_on,,1,0,9,,,,,,,,,,,,,,,,11,,64,48
84539,note_on,,59,0,8,,,,,,,,,,,,,,,,10,,76,0
84539,note_on,,59,0,9,,,,,,,,,,,,,,,,11,,64,0
84540,note_on,,1,0,8,,,,,,,,,,,,,,,,10,,71,48
84540,note_on,,1,0,9,,,,,,,,,,,,,,,,11,,64,48
84599,note_on,,119,0,12,,,,,,,,,,,,,,,,15,,64,0
84599,note_on,,0,0,12,,,,,,,,,,,,,,,,15,,59,0
84599,note_on,,119,0,5,,,,,,,,,,,,,,,,2,,56,0
84599,note_on,,119,0,11,,,,,,,,,,,,,,,,13,,56,0
84599,note_on,,59,0,8,,,,,,,,,,,,,,,,10,,71,0
84599,note_on,,0,0,12,,,,,,,,,,,,,,,,15,,56,0
84599,note_on,,59,0,9,,,,,,,,,,,,,,,,11,,64,0
84600,note_on,,1,0,12,,,,,,,,,,,,,,,,15,,52,48
84600,note_on,,0,0,12,,,,,,,,,,,,,,,,15,,76,48
84600,note_on,,0,0,12,,,,,,,,,,,,,,,,15,,68,48
84600,note_on,,0,0,12,,,,,,,,,,,,,,,,15,,71,48
84600,note_on,,1,0,5,,,,,,,,,,,,,,,,2,,52,48
84600,note_on,,1,0,8,,,,,,,,,,,,,,,,10,,69,48
84600,note_on,,1,0,9,,,,,,,,,,,,,,,,11,,66,48
84600,note_on,,1,0,11,,,,,,,,,,,,,,,,13,,52,48
84659,note_on,,59,0,8,,,,,,,,,,,,,,,,10,,69,0
84659,note_on,,179,0,10,,,,,,,,,,,,,,,,12,,59,0
84659,note_on,,59,0,9,,,,,,,,,,,,,,,,11,,66,0
84660,note_on,,1,0,10,,,,,,,,,,,,,,,,12,,64,48
84660,note_on,,1,0,9,,,,,,,,,,,,,,,,11,,68,48
84660,note_on,,1,0,8,,,,,,,,,,,,,,,,10,,71,48
84719,note_on,,0,0,12,,,,,,,,,,,,,,,,15,,68,0
84719,note_on,,119,0,12,,,,,,,,,,,,,,,,15,,52,0
84719,note_on,,359,0,7,,,,,,,,,,,,,,,,8,,64,0
84719,note_on,,59,0,9,,,,,,,,,,,,,,,,11,,68,0
84719,note_on,,0,0,12,,,,,,,,,,,,,,,,15,,76,0
84719,note_on,,59,0,8,,,,,,,,,,,,,,,,10,,71,0
84719,note_on,,119,0,11,,,,,,,,,,,,,,,,13,,52,0
84719,note_on,,59,0,10,,,,,,,,,,,,,,,,12,,64,0
84719,note_on,,119,0,5,,,,,,,,,,,,,,,,2,,52,0
84719,note_on,,0,0,12,,,,,,,,,,,,,,,,15,,71,0
84720,note_on,,0,0,12,,,,,,,,,,,,,,,,15,,69,48
84720,note_on,,1,0,9,,,,,,,,,,,,,,,,11,,69,48
84720,note_on,,1,0,8,,,,,,,,,,,,,,,,10,,73,48
84720,note_on,,1,0,10,,,,,,,,,,,,,,,,12,,64,48
84720,note_on,,1,0,11,,,,,,,,,,,,,,,,13,,57,48
84720,note_on,,1,0,5,,,,,,,,,,,,,,,,2,,57,48
84720,note_on,,1,0,12,,,,,,,,,,,,,,,,15,,57,48
84720,note_on,,0,0,12,,,,,,,,,,,,,,,,15,,73,48
84720,note_on,,0,0,12,,,,,,,,,,,,,,,,15,,64,48
84779,note_on,,59,0,8,,,,,,,,,,,,,,,,10,,73,0
84780,note_on,,1,0,8,,,,,,,,,,,,,,,,10,,74,48
84839,note_on,,0,0,12,,,,,,,,,,,,,,,,15,,73,0
84839,note_on,,0,0,12,,,,,,,,,,,,,,,,15,,69,0
84839,note_on,,0,0,12,,,,,,,,,,,,,,,,15,,64,0
84839,note_on,,119,0,11,,,,,,,,,,,,,,,,13,,57,0
84839,note_on,,59,0,8,,,,,,,,,,,,,,,,10,,74,0
84839,note_on,,119,0,9,,,,,,,,,,,,,,,,11,,69,0
84839,note_on,,119,0,5,,,,,,,,,,,,,,,,2,,57,0
84839,note_on,,119,0,12,,,,,,,,,,,,,,,,15,,57,0
84839,note_on,,119,0,10,,,,,,,,,,,,,,,,12,,64,0
84840,note_on,,1,0,11,,,,,,,,,,,,,,,,13,,56,48
84840,note_on,,0,0,12,,,,,,,,,,,,,,,,15,,64,48
84840,note_on,,0,0,12,,,,,,,,,,,,,,,,15,,71,48
84840,note_on,,1,0,12,,,,,,,,,,,,,,,,15,,56,48
84840,note_on,,1,0,9,,,,,,,,,,,,,,,,11,,71,48
84840,note_on,,1,0,8,,,,,,,,,,,,,,,,10,,76,48
84840,note_on,,1,0,5,,,,,,,,,,,,,,,,2,,56,48
84840,note_on,,1,0,10,,,,,,,,,,,,,,,,12,,64,48
84959,note_on,,119,0,12,,,,,,,,,,,,,,,,15,,56,0
84959,note_on,,119,0,11,,,,,,,,,,,,,,,,13,,56,0
84959,note_on,,0,0,12,,,,,,,,,,,,,,,,15,,71,0
84959,note_on,,0,0,12,,,,,,,,,,,,,,,,15,,64,0
84959,note_on,,119,0,8,,,,,,,,,,,,,,,,10,,76,0
84959,note_on,,119,0,5,,,,,,,,,,,,,,,,2,,56,0
84959,note_on,,119,0,9,,,,,,,,,,,,,,,,11,,71,0
84959,note_on,,119,0,10,,,,,,,,,,,,,,,,12,,64,0
84960,note_on,,241,0,7,,,,,,,,,,,,,,,,8,,59,72
84960,note_on,,1,0,5,,,,,,,,,,,,,,,,2,,52,48
84960,note_on,,1,0,11,,,,,,,,,,,,,,,,13,,52,48
84960,note_on,,1,0,12,,,,,,,,,,,,,,,,15,,68,48
84960,note_on,,0,0,12,,,,,,,,,,,,,,,,15,,52,48
84960,note_on,,0,0,12,,,,,,,,,,,,,,,,15,,71,48
84960,note_on,,0,0,12,,,,,,,,,,,,,,,,15,,76,48
85079,note_on,,119,0,5,,,,,,,,,,,,,,,,2,,52,0
85079,note_on,,119,0,11,,,,,,,,,,,,,,,,13,,52,0
85079,note_on,,119,0,7,,,,,,,,,,,,,,,,8,,59,0
85079,note_on,,119,0,12,,,,,,,,,,,,,,,,15,,68,0
85079,note_on,,0,0,12,,,,,,,,,,,,,,,,15,,52,0
85079,note_on,,0,0,12,,,,,,,,,,,,,,,,15,,71,0
85079,note_on,,0,0,12,,,,,,,,,,,,,,,,15,,76,0
85080,note_on,,1,0,11,,,,,,,,,,,,,,,,13,,57,48
85080,note_on,,0,0,12,,,,,,,,,,,,,,,,15,,64,48
85080,note_on,,1,0,12,,,,,,,,,,,,,,,,15,,57,48
85080,note_on,,0,0,12,,,,,,,,,,,,,,,,15,,69,48
85080,note_on,,1,0,7,,,,,,,,,,,,,,,,8,,61,72
85080,note_on,,0,0,12,,,,,,,,,,,,,,,,15,,73,48
85080,note_on,,1,0,5,,,,,,,,,,,,,,,,2,,57,48
85139,note_on,,59,0,7,,,,,,,,,,,,,,,,8,,61,0
85140,note_on,,1,0,7,,,,,,,,,,,,,,,,8,,62,72
85199,note_on,,119,0,11,,,,,,,,,,,,,,,,13,,57,0
85199,note_on,,119,0,12,,,,,,,,,,,,,,,,15,,57,0
85199,note_on,,0,0,12,,,,,,,,,,,,,,,,15,,64,0
85199,note_on,,0,0,12,,,,,,,,,,,,,,,,15,,73,0
85199,note_on,,0,0,12,,,,,,,,,,,,,,,,15,,69,0
85199,note_on,,59,0,7,,,,,,,,,,,,,,,,8,,62,0
85199,note_on,,119,0,5,,,,,,,,,,,,,,,,2,,57,0
85200,note_on,,1,0,5,,,,,,,,,,,,,,,,2,,56,48
85200,note_on,,1,0,12,,,,,,,,,,,,,,,,15,,64,48
85200,note_on,,1,0,11,,,,,,,,,,,,,,,,13,,56,48
85200,note_on,,0,0,12,,,,,,,,,,,,,,,,15,,59,48
85200,note_on,,0,0,12,,,,,,,,,,,,,,,,15,,56,48
85200,note_on,,1,0,7,,,,,,,,,,,,,,,,8,,64,72
85200,note_on,,0,0,12,,,,,,,,,,,,,,,,15,,71,48
85260,note_on,,301,0,8,,,,,,,,,,,,,,,,10,,71,48
85260,note_on,,301,0,9,,,,,,,,,,,,,,,,11,,64,48
85319,note_on,,119,0,11,,,,,,,,,,,,,,,,13,,56,0
85319,note_on,,119,0,7,,,,,,,,,,,,,,,,8,,64,0
85319,note_on,,59,0,9,,,,,,,,,,,,,,,,11,,64,0
85319,note_on,,0,0,12,,,,,,,,,,,,,,,,15,,56,0
85319,note_on,,119,0,12,,,,,,,,,,,,,,,,15,,71,0
85319,note_on,,119,0,5,,,,,,,,,,,,,,,,2,,56,0
85319,note_on,,59,0,8,,,,,,,,,,,,,,,,10,,71,0
85320,note_on,,1,0,7,,,,,,,,,,,,,,,,8,,56,72
85320,note_on,,0,0,12,,,,,,,,,,,,,,,,15,,68,48
85320,note_on,,1,0,5,,,,,,,,,,,,,,,,2,,52,48
85320,note_on,,1,0,8,,,,,,,,,,,,,,,,10,,69,48
85320,note_on,,1,0,9,,,,,,,,,,,,,,,,11,,66,48
85320,note_on,,1,0,12,,,,,,,,,,,,,,,,15,,52,48
85320,note_on,,1,0,11,,,,,,,,,,,,,,,,13,,52,48
85320,note_on,,361,0,10,,,,,,,,,,,,,,,,12,,52,48
85379,note_on,,59,0,8,,,,,,,,,,,,,,,,10,,69,0
85379,note_on,,59,0,9,,,,,,,,,,,,,,,,11,,66,0
85380,note_on,,1,0,8,,,,,,,,,,,,,,,,10,,71,48
85380,note_on,,1,0,9,,,,,,,,,,,,,,,,11,,68,48
85439,note_on,,59,0,8,,,,,,,,,,,,,,,,10,,71,0
85439,note_on,,0,0,12,,,,,,,,,,,,,,,,15,,59,0
85439,note_on,,0,0,12,,,,,,,,,,,,,,,,15,,52,0
85439,note_on,,0,0,12,,,,,,,,,,,,,,,,15,,68,0
85439,note_on,,119,0,10,,,,,,,,,,,,,,,,12,,52,0
85439,note_on,,119,0,7,,,,,,,,,,,,,,,,8,,56,0
85439,note_on,,119,0,5,,,,,,,,,,,,,,,,2,,52,0
85439,note_on,,59,0,9,,,,,,,,,,,,,,,,11,,68,0
85439,note_on,,119,0,11,,,,,,,,,,,,,,,,13,,52,0
85439,note_on,,119,0,12,,,,,,,,,,,,,,,,15,,64,0
85440,note_on,,1,0,8,,,,,,,,,,,,,,,,10,,73,48
85440,note_on,,0,0,12,,,,,,,,,,,,,,,,15,,69,48
85440,note_on,,1,0,12,,,,,,,,,,,,,,,,15,,64,48
85440,note_on,,1,0,7,,,,,,,,,,,,,,,,8,,57,72
85440,note_on,,1,0,5,,,,,,,,,,,,,,,,2,,57,48
85440,note_on,,1,0,9,,,,,,,,,,,,,,,,11,,69,48
85440,note_on,,0,0,12,,,,,,,,,,,,,,,,15,,61,48
85440,note_on,,0,0,12,,,,,,,,,,,,,,,,15,,57,48
85440,note_on,,1,0,11,,,,,,,,,,,,,,,,13,,57,48
85440,note_on,,1,0,10,,,,,,,,,,,,,,,,12,,64,48
85499,note_on,,59,0,7,,,,,,,,,,,,,,,,8,,57,0
85499,note_on,,59,0,8,,,,,,,,,,,,,,,,10,,73,0
85500,note_on,,1,0,7,,,,,,,,,,,,,,,,8,,52,72
85500,note_on,,1,0,8,,,,,,,,,,,,,,,,10,,74,48
85559,note_on,,119,0,9,,,,,,,,,,,,,,,,11,,69,0
85559,note_on,,119,0,5,,,,,,,,,,,,,,,,2,,57,0
85559,note_on,,119,0,11,,,,,,,,,,,,,,,,13,,57,0
85559,note_on,,0,0,12,,,,,,,,,,,,,,,,15,,57,0
85559,note_on,,0,0,12,,,,,,,,,,,,,,,,15,,61,0
85559,note_on,,0,0,12,,,,,,,,,,,,,,,,15,,69,0
85559,note_on,,119,0,12,,,,,,,,,,,,,,,,15,,64,0
85559,note_on,,59,0,7,,,,,,,,,,,,,,,,8,,52,0
85559,note_on,,119,0,10,,,,,,,,,,,,,,,,12,,64,0
85559,note_on,,59,0,8,,,,,,,,,,,,,,,,10,,74,0
85560,note_on,,1,0,8,,,,,,,,,,,,,,,,10,,76,48
85560,note_on,,1,0,9,,,,,,,,,,,,,,,,11,,71,48
85560,note_on,,1,0,5,,,,,,,,,,,,,,,,2,,52,48
85560,note_on,,1,0,11,,,,,,,,,,,,,,,,13,,52,48
85560,note_on,,0,0,12,,,,,,,,,,,,,,,,15,,68,48
85560,note_on,,1,0,7,,,,,,,,,,,,,,,,8,,52,72
85560,note_on,,1,0,12,,,,,,,,,,,,,,,,15,,71,48
85560,note_on,,0,0,12,,,,,,,,,,,,,,,,15,,64,48
85560,note_on,,1,0,10,,,,,,,,,,,,,,,,12,,64,48
85560,note_on,,0,0,12,,,,,,,,,,,,,,,,15,,52,48
85619,note_on,,59,0,8,,,,,,,,,,,,,,,,10,,76,0
85619,note_on,,59,0,9,,,,,,,,,,,,,,,,11,,71,0
85620,note_on,,1,0,8,,,,,,,,,,,,,,,,10,,71,48
85620,note_on,,1,0,9,,,,,,,,,,,,,,,,11,,68,48
85679,note_on,,59,0,8,,,,,,,,,,,,,,,,10,,71,0
85679,note_on,,119,0,5,,,,,,,,,,,,,,,,2,,52,0
85679,note_on,,0,0,12,,,,,,,,,,,,,,,,15,,64,0
85679,note_on,,59,0,9,,,,,,,,,,,,,,,,11,,68,0
85679,note_on,,119,0,11,,,,,,,,,,,,,,,,13,,52,0
85679,note_on,,119,0,10,,,,,,,,,,,,,,,,12,,64,0
85679,note_on,,0,0,12,,,,,,,,,,,,,,,,15,,68,0
85679,note_on,,119,0,12,,,,,,,,,,,,,,,,15,,71,0
85679,note_on,,119,0,7,,,,,,,,,,,,,,,,8,,52,0
85679,note_on,,0,0,12,,,,,,,,,,,,,,,,15,,52,0
85680,note_on,,1,0,9,,,,,,,,,,,,,,,,11,,66,48
85680,note_on,,1,0,5,,,,,,,,,,,,,,,,2,,56,48
85680,note_on,,1,0,12,,,,,,,,,,,,,,,,15,,76,48
85680,note_on,,1,0,11,,,,,,,,,,,,,,,,13,,56,48
85680,note_on,,0,0,12,,,,,,,,,,,,,,,,15,,56,48
85680,note_on,,1,0,8,,,,,,,,,,,,,,,,10,,69,48
85680,note_on,,0,0,12,,,,,,,,,,,,,,,,15,,71,48
85680,note_on,,1,0,10,,,,,,,,,,,,,,,,12,,64,48
85680,note_on,,0,0,12,,,,,,,,,,,,,,,,15,,64,48
85739,note_on,,59,0,8,,,,,,,,,,,,,,,,10,,69,0
85739,note_on,,59,0,9,,,,,,,,,,,,,,,,11,,66,0
85740,note_on,,1,0,8,,,,,,,,,,,,,,,,10,,71,48
85740,note_on,,1,0,9,,,,,,,,,,,,,,,,11,,68,48
85799,note_on,,59,0,9,,,,,,,,,,,,,,,,11,,68,0
85799,note_on,,119,0,10,,,,,,,,,,,,,,,,12,,64,0
85799,note_on,,0,0,12,,,,,,,,,,,,,,,,15,,64,0
85799,note_on,,59,0,8,,,,,,,,,,,,,,,,10,,71,0
85799,note_on,,0,0,12,,,,,,,,,,,,,,,,15,,56,0
85799,note_on,,119,0,5,,,,,,,,,,,,,,,,2,,56,0
85799,note_on,,119,0,11,,,,,,,,,,,,,,,,13,,56,0
85799,note_on,,119,0,12,,,,,,,,,,,,,,,,15,,76,0
85799,note_on,,0,0,12,,,,,,,,,,,,,,,,15,,71,0
85800,note_on,,1,0,10,,,,,,,,,,,,,,,,12,,64,48
85800,note_on,,0,0,12,,,,,,,,,,,,,,,,15,,64,48
85800,note_on,,1,0,9,,,,,,,,,,,,,,,,11,,69,48
85800,note_on,,1,0,11,,,,,,,,,,,,,,,,13,,57,48
85800,note_on,,1,0,12,,,,,,,,,,,,,,,,15,,57,48
85800,note_on,,0,0,12,,,,,,,,,,,,,,,,15,,73,48
85800,note_on,,1,0,8,,,,,,,,,,,,,,,,10,,73,48
85800,note_on,,0,0,12,,,,,,,,,,,,,,,,15,,69,48
85800,note_on,,1,0,5,,,,,,,,,,,,,,,,2,,57,48
85859,note_on,,59,0,10,,,,,,,,,,,,,,,,12,,64,0
85859,note_on,,59,0,8,,,,,,,,,,,,,,,,10,,73,0
85860,note_on,,1,0,10,,,,,,,,,,,,,,,,12,,66,48
85860,note_on,,1,0,8,,,,,,,,,,,,,,,,10,,74,48
85919,note_on,,119,0,5,,,,,,,,,,,,,,,,2,,57,0
85919,note_on,,119,0,12,,,,,,,,,,,,,,,,15,,57,0
85919,note_on,,59,0,10,,,,,,,,,,,,,,,,12,,66,0
85919,note_on,,119,0,9,,,,,,,,,,,,,,,,11,,69,0
85919,note_on,,0,0,12,,,,,,,,,,,,,,,,15,,73,0
85919,note_on,,0,0,12,,,,,,,,,,,,,,,,15,,69,0
85919,note_on,,119,0,11,,,,,,,,,,,,,,,,13,,57,0
85919,note_on,,59,0,8,,,,,,,,,,,,,,,,10,,74,0
85920,note_on,,1,0,12,,,,,,,,,,,,,,,,15,,68,48
85920,note_on,,0,0,12,,,,,,,,,,,,,,,,15,,52,48
85920,note_on,,0,0,12,,,,,,,,,,,,,,,,15,,71,48
85920,note_on,,1,0,5,,,,,,,,,,,,,,,,2,,52,48
85920,note_on,,1,0,10,,,,,,,,,,,,,,,,12,,68,48
85920,note_on,,1,0,8,,,,,,,,,,,,,,,,10,,76,48
85920,note_on,,1,0,9,,,,,,,,,,,,,,,,11,,71,48
85920,note_on,,1,0,11,,,,,,,,,,,,,,,,13,,52,48
85980,note_on,,1801,0,6,,,,,,,,,,,,,,,,3,,76,64
86039,note_on,,59,0,6,,,,,,,,,,,,,,,,3,,76,0
86039,note_on,,119,0,11,,,,,,,,,,,,,,,,13,,52,0
86039,note_on,,119,0,12,,,,,,,,,,,,,,,,15,,64,0
86039,note_on,,0,0,12,,,,,,,,,,,,,,,,15,,68,0
86039,note_on,,0,0,12,,,,,,,,,,,,,,,,15,,52,0
86039,note_on,,0,0,12,,,,,,,,,,,,,,,,15,,71,0
86039,note_on,,119,0,10,,,,,,,,,,,,,,,,12,,68,0
86039,note_on,,119,0,9,,,,,,,,,,,,,,,,11,,71,0
86039,note_on,,119,0,8,,,,,,,,,,,,,,,,10,,76,0
86039,note_on,,119,0,5,,,,,,,,,,,,,,,,2,,52,0
86040,note_on,,361,0,7,,,,,,,,,,,,,,,,8,,61,72
86040,note_on,,1,0,11,,,,,,,,,,,,,,,,13,,61,48
86040,note_on,,0,0,12,,,,,,,,,,,,,,,,15,,69,48
86040,note_on,,1,0,12,,,,,,,,,,,,,,,,15,,64,48
86040,note_on,,1,0,6,,,,,,,,,,,,,,,,3,,74,64
86040,note_on,,0,0,12,,,,,,,,,,,,,,,,15,,61,48
86040,note_on,,1,0,5,,,,,,,,,,,,,,,,2,,61,48
86099,note_on,,59,0,6,,,,,,,,,,,,,,,,3,,74,0
86100,note_on,,1,0,6,,,,,,,,,,,,,,,,3,,76,64
86159,note_on,,119,0,5,,,,,,,,,,,,,,,,2,,61,0
86159,note_on,,119,0,12,,,,,,,,,,,,,,,,15,,64,0
86159,note_on,,59,0,6,,,,,,,,,,,,,,,,3,,76,0
86159,note_on,,0,0,12,,,,,,,,,,,,,,,,15,,69,0
86159,note_on,,0,0,12,,,,,,,,,,,,,,,,15,,61,0
86159,note_on,,119,0,7,,,,,,,,,,,,,,,,8,,61,0
86159,note_on,,119,0,11,,,,,,,,,,,,,,,,13,,61,0
86160,note_on,,1,0,6,,,,,,,,,,,,,,,,3,,78,64
86160,note_on,,0,0,12,,,,,,,,,,,,,,,,15,,74,48
86160,note_on,,0,0,12,,,,,,,,,,,,,,,,15,,69,48
86160,note_on,,1,0,5,,,,,,,,,,,,,,,,2,,62,48
86160,note_on,,0,0,12,,,,,,,,,,,,,,,,15,,66,48
86160,note_on,,1,0,12,,,,,,,,,,,,,,,,15,,62,48
86160,note_on,,1,0,7,,,,,,,,,,,,,,,,8,,62,72
86160,note_on,,1,0,11,,,,,,,,,,,,,,,,13,,62,48
86219,note_on,,59,0,6,,,,,,,,,,,,,,,,3,,78,0
86220,note_on,,1,0,6,,,,,,,,,,,,,,,,3,,80,64
86279,note_on,,0,0,12,,,,,,,,,,,,,,,,15,,66,0
86279,note_on,,59,0,6,,,,,,,,,,,,,,,,3,,80,0
86279,note_on,,119,0,7,,,,,,,,,,,,,,,,8,,62,0
86279,note_on,,119,0,11,,,,,,,,,,,,,,,,13,,62,0
86279,note_on,,0,0,12,,,,,,,,,,,,,,,,15,,69,0
86279,note_on,,0,0,12,,,,,,,,,,,,,,,,15,,74,0
86279,note_on,,119,0,12,,,,,,,,,,,,,,,,15,,62,0
86279,note_on,,119,0,5,,,,,,,,,,,,,,,,2,,62,0
86280,note_on,,0,0,12,,,,,,,,,,,,,,,,15,,61,48
86280,note_on,,1,0,12,,,,,,,,,,,,,,,,15,,69,48
86280,note_on,,1,0,11,,,,,,,,,,,,,,,,13,,61,48
86280,note_on,,1,0,5,,,,,,,,,,,,,,,,2,,61,48
86280,note_on,,0,0,12,,,,,,,,,,,,,,,,15,,64,48
86280,note_on,,1,0,7,,,,,,,,,,,,,,,,8,,61,72
86280,note_on,,1,0,6,,,,,,,,,,,,,,,,3,,81,64
86340,note_on,,301,0,9,,,,,,,,,,,,,,,,11,,69,48
86340,note_on,,301,0,8,,,,,,,,,,,,,,,,10,,76,48
86399,note_on,,119,0,5,,,,,,,,,,,,,,,,2,,61,0
86399,note_on,,119,0,11,,,,,,,,,,,,,,,,13,,61,0
86399,note_on,,119,0,12,,,,,,,,,,,,,,,,15,,61,0
86399,note_on,,119,0,7,,,,,,,,,,,,,,,,8,,61,0
86399,note_on,,59,0,9,,,,,,,,,,,,,,,,11,,69,0
86399,note_on,,59,0,8,,,,,,,,,,,,,,,,10,,76,0
86400,note_on,,1,0,12,,,,,,,,,,,,,,,,15,,57,48
86400,note_on,,361,0,10,,,,,,,,,,,,,,,,12,,57,48
86400,note_on,,1,0,9,,,,,,,,,,,,,,,,11,,71,48
86400,note_on,,1,0,7,,,,,,,,,,,,,,,,8,,57,72
86400,note_on,,1,0,5,,,,,,,,,,,,,,,,2,,57,48
86400,note_on,,0,0,12,,,,,,,,,,,,,,,,15,,61,48
86400,note_on,,1,0,11,,,,,,,,,,,,,,,,13,,57,48
86400,note_on,,1,0,8,,,,,,,,,,,,,,,,10,,74,48
86459,note_on,,59,0,8,,,,,,,,,,,,,,,,10,,74,0
86459,note_on,,59,0,9,,,,,,,,,,,,,,,,11,,71,0
86460,note_on,,1,0,8,,,,,,,,,,,,,,,,10,,76,48
86460,note_on,,1,0,9,,,,,,,,,,,,,,,,11,,73,48
86519,note_on,,59,0,8,,,,,,,,,,,,,,,,10,,76,0
86519,note_on,,119,0,11,,,,,,,,,,,,,,,,13,,57,0
86519,note_on,,119,0,12,,,,,,,,,,,,,,,,15,,69,0
86519,note_on,,119,0,10,,,,,,,,,,,,,,,,12,,57,0
86519,note_on,,119,0,7,,,,,,,,,,,,,,,,8,,57,0
86519,note_on,,0,0,12,,,,,,,,,,,,,,,,15,,57,0
86519,note_on,,0,0,12,,,,,,,,,,,,,,,,15,,61,0
86519,note_on,,119,0,5,,,,,,,,,,,,,,,,2,,57,0
86519,note_on,,0,0,12,,,,,,,,,,,,,,,,15,,64,0
86519,note_on,,59,0,9,,,,,,,,,,,,,,,,11,,73,0
86520,note_on,,1,0,7,,,,,,,,,,,,,,,,8,,62,72
86520,note_on,,0,0,12,,,,,,,,,,,,,,,,15,,69,48
86520,note_on,,1,0,10,,,,,,,,,,,,,,,,12,,69,48
86520,note_on,,1,0,12,,,,,,,,,,,,,,,,15,,66,48
86520,note_on,,1,0,11,,,,,,,,,,,,,,,,13,,62,48
86520,note_on,,0,0,12,,,,,,,,,,,,,,,,15,,62,48
86520,note_on,,1,0,8,,,,,,,,,,,,,,,,10,,78,48
86520,note_on,,1,0,5,,,,,,,,,,,,,,,,2,,62,48
86520,note_on,,1,0,9,,,,,,,,,,,,,,,,11,,74,48
86579,note_on,,59,0,7,,,,,,,,,,,,,,,,8,,62,0
86579,note_on,,59,0,8,,,,,,,,,,,,,,,,10,,78,0
86579,note_on,,59,0,10,,,,,,,,,,,,,,,,12,,69,0
86580,note_on,,1,0,8,,,,,,,,,,,,,,,,10,,80,48
86580,note_on,,1,0,7,,,,,,,,,,,,,,,,8,,57,72
86580,note_on,,1,0,10,,,,,,,,,,,,,,,,12,,71,48
86639,note_on,,119,0,9,,,,,,,,,,,,,,,,11,,74,0
86639,note_on,,0,0,12,,,,,,,,,,,,,,,,15,,62,0
86639,note_on,,59,0,7,,,,,,,,,,,,,,,,8,,57,0
86639,note_on,,119,0,12,,,,,,,,,,,,,,,,15,,66,0
86639,note_on,,119,0,5,,,,,,,,,,,,,,,,2,,62,0
86639,note_on,,0,0,12,,,,,,,,,,,,,,,,15,,69,0
86639,note_on,,59,0,8,,,,,,,,,,,,,,,,10,,80,0
86639,note_on,,59,0,10,,,,,,,,,,,,,,,,12,,71,0
86639,note_on,,119,0,11,,,,,,,,,,,,,,,,13,,62,0
86640,note_on,,1,0,12,,,,,,,,,,,,,,,,15,,57,48
86640,note_on,,0,0,12,,,,,,,,,,,,,,,,15,,64,48
86640,note_on,,0,0,12,,,,,,,,,,,,,,,,15,,73,48
86640,note_on,,1,0,10,,,,,,,,,,,,,,,,12,,73,48
86640,note_on,,1,0,11,,,,,,,,,,,,,,,,13,,57,48
86640,note_on,,0,0,12,,,,,,,,,,,,,,,,15,,69,48
86640,note_on,,1,0,5,,,,,,,,,,,,,,,,2,,57,48
86640,note_on,,1,0,8,,,,,,,,,,,,,,,,10,,81,48
86640,note_on,,1,0,7,,,,,,,,,,,,,,,,8,,57,72
86640,note_on,,1,0,9,,,,,,,,,,,,,,,,11,,76,48
86699,note_on,,419,0,6,,,,,,,,,,,,,,,,3,,81,0
86700,note_on,,1,0,6,,,,,,,,,,,,,,,,3,,76,64
86759,note_on,,0,0,12,,,,,,,,,,,,,,,,15,,69,0
86759,note_on,,0,0,12,,,,,,,,,,,,,,,,15,,64,0
86759,note_on,,119,0,11,,,,,,,,,,,,,,,,13,,57,0
86759,note_on,,119,0,10,,,,,,,,,,,,,,,,12,,73,0
86759,note_on,,59,0,6,,,,,,,,,,,,,,,,3,,76,0
86759,note_on,,119,0,12,,,,,,,,,,,,,,,,15,,57,0
86759,note_on,,119,0,7,,,,,,,,,,,,,,,,8,,57,0
86759,note_on,,0,0,12,,,,,,,,,,,,,,,,15,,73,0
86759,note_on,,119,0,9,,,,,,,,,,,,,,,,11,,76,0
86759,note_on,,119,0,5,,,,,,,,,,,,,,,,2,,57,0
86760,note_on,,1,0,5,,,,,,,,,,,,,,,,2,,61,48
86760,note_on,,0,0,12,,,,,,,,,,,,,,,,15,,61,48
86760,note_on,,1,0,6,,,,,,,,,,,,,,,,3,,74,64
86760,note_on,,0,0,12,,,,,,,,,,,,,,,,15,,76,48
86760,note_on,,1,0,12,,,,,,,,,,,,,,,,15,,69,48
86760,note_on,,0,0,12,,,,,,,,,,,,,,,,15,,64,48
86760,note_on,,1,0,11,,,,,,,,,,,,,,,,13,,61,48
86819,note_on,,59,0,6,,,,,,,,,,,,,,,,3,,74,0
86820,note_on,,1,0,6,,,,,,,,,,,,,,,,3,,76,64
86879,note_on,,0,0,12,,,,,,,,,,,,,,,,15,,76,0
86879,note_on,,119,0,12,,,,,,,,,,,,,,,,15,,69,0
86879,note_on,,0,0,12,,,,,,,,,,,,,,,,15,,61,0
86879,note_on,,119,0,5,,,,,,,,,,,,,,,,2,,61,0
86879,note_on,,0,0,12,,,,,,,,,,,,,,,,15,,64,0
86879,note_on,,59,0,6,,,,,,,,,,,,,,,,3,,76,0
86879,note_on,,119,0,11,,,,,,,,,,,,,,,,13,,61,0
86880,note_on,,1,0,12,,,,,,,,,,,,,,,,15,,66,48
86880,note_on,,0,0,12,,,,,,,,,,,,,,,,15,,69,48
86880,note_on,,0,0,12,,,,,,,,,,,,,,,,15,,62,48
86880,note_on,,1,0,6,,,,,,,,,,,,,,,,3,,78,64
86880,note_on,,1,0,11,,,,,,,,,,,,,,,,13,,62,48
86880,note_on,,1,0,5,,,,,,,,,,,,,,,,2,,62,48
86939,note_on,,59,0,6,,,,,,,,,,,,,,,,3,,78,0
86940,note_on,,1,0,6,,,,,,,,,,,,,,,,3,,79,64
86999,note_on,,59,0,6,,,,,,,,,,,,,,,,3,,79,0
86999,note_on,,0,0,12,,,,,,,,,,,,,,,,15,,62,0
86999,note_on,,119,0,11,,,,,,,,,,,,,,,,13,,62,0
86999,note_on,,119,0,5,,,,,,,,,,,,,,,,2,,62,0
86999,note_on,,119,0,12,,,,,,,,,,,,,,,,15,,66,0
87000,note_on,,1,0,12,,,,,,,,,,,,,,,,15,,61,48
87000,note_on,,0,0,12,,,,,,,,,,,,,,,,15,,64,48
87000,note_on,,1,0,5,,,,,,,,,,,,,,,,2,,61,48
87000,note_on,,1,0,6,,,,,,,,,,,,,,,,3,,81,64
87000,note_on,,1,0,11,,,,,,,,,,,,,,,,13,,61,48
87059,note_on,,419,0,8,,,,,,,,,,,,,,,,10,,81,0
87059,note_on,,59,0,6,,,,,,,,,,,,,,,,3,,81,0
87060,note_on,,1,0,8,,,,,,,,,,,,,,,,10,,76,48
87060,note_on,,1,0,6,,,,,,,,,,,,,,,,3,,76,64
87060,note_on,,301,0,9,,,,,,,,,,,,,,,,11,,73,48
87119,note_on,,59,0,6,,,,,,,,,,,,,,,,3,,76,0
87119,note_on,,119,0,11,,,,,,,,,,,,,,,,13,,61,0
87119,note_on,,59,0,8,,,,,,,,,,,,,,,,10,,76,0
87119,note_on,,119,0,5,,,,,,,,,,,,,,,,2,,61,0
87119,note_on,,59,0,9,,,,,,,,,,,,,,,,11,,73,0
87119,note_on,,0,0,12,,,,,,,,,,,,,,,,15,,64,0
87119,note_on,,0,0,12,,,,,,,,,,,,,,,,15,,61,0
87119,note_on,,119,0,12,,,,,,,,,,,,,,,,15,,69,0
87120,note_on,,361,0,10,,,,,,,,,,,,,,,,12,,69,48
87120,note_on,,1,0,8,,,,,,,,,,,,,,,,10,,78,48
87120,note_on,,1,0,9,,,,,,,,,,,,,,,,11,,74,48
87120,note_on,,1,0,12,,,,,,,,,,,,,,,,15,,73,48
87120,note_on,,0,0,12,,,,,,,,,,,,,,,,15,,57,48
87120,note_on,,0,0,12,,,,,,,,,,,,,,,,15,,64,48
87120,note_on,,0,0,12,,,,,,,,,,,,,,,,15,,69,48
87120,note_on,,1,0,5,,,,,,,,,,,,,,,,2,,57,48
87120,note_on,,1,0,11,,,,,,,,,,,,,,,,13,,57,48
87120,note_on,,1,0,6,,,,,,,,,,,,,,,,3,,78,64
87179,note_on,,59,0,6,,,,,,,,,,,,,,,,3,,78,0
87179,note_on,,59,0,9,,,,,,,,,,,,,,,,11,,74,0
87179,note_on,,59,0,8,,,,,,,,,,,,,,,,10,,78,0
87180,note_on,,1,0,6,,,,,,,,,,,,,,,,3,,79,64
87180,note_on,,1,0,9,,,,,,,,,,,,,,,,11,,76,48
87180,note_on,,1,0,8,,,,,,,,,,,,,,,,10,,79,48
87239,note_on,,59,0,6,,,,,,,,,,,,,,,,3,,79,0
87239,note_on,,59,0,9,,,,,,,,,,,,,,,,11,,76,0
87239,note_on,,119,0,5,,,,,,,,,,,,,,,,2,,57,0
87239,note_on,,59,0,8,,,,,,,,,,,,,,,,10,,79,0
87239,note_on,,119,0,10,,,,,,,,,,,,,,,,12,,69,0
87239,note_on,,0,0,12,,,,,,,,,,,,,,,,15,,57,0
87239,note_on,,0,0,12,,,,,,,,,,,,,,,,15,,64,0
87239,note_on,,119,0,11,,,,,,,,,,,,,,,,13,,57,0
87239,note_on,,0,0,12,,,,,,,,,,,,,,,,15,,69,0
87239,note_on,,119,0,12,,,,,,,,,,,,,,,,15,,73,0
87240,note_on,,0,0,12,,,,,,,,,,,,,,,,15,,74,48
87240,note_on,,0,0,12,,,,,,,,,,,,,,,,15,,69,48
87240,note_on,,0,0,12,,,,,,,,,,,,,,,,15,,66,48
87240,note_on,,1,0,12,,,,,,,,,,,,,,,,15,,62,48
87240,note_on,,1,0,6,,,,,,,,,,,,,,,,3,,78,64
87240,note_on,,1,0,9,,,,,,,,,,,,,,,,11,,74,48
87240,note_on,,1,0,11,,,,,,,,,,,,,,,,13,,62,48
87240,note_on,,1,0,5,,,,,,,,,,,,,,,,2,,62,48
87240,note_on,,1,0,8,,,,,,,,,,,,,,,,10,,78,48
87240,note_on,,1,0,10,,,,,,,,,,,,,,,,12,,69,48
87359,note_on,,119,0,11,,,,,,,,,,,,,,,,13,,62,0
87359,note_on,,0,0,12,,,,,,,,,,,,,,,,15,,74,0
87359,note_on,,119,0,12,,,,,,,,,,,,,,,,15,,62,0
87359,note_on,,119,0,10,,,,,,,,,,,,,,,,12,,69,0
87359,note_on,,119,0,8,,,,,,,,,,,,,,,,10,,78,0
87359,note_on,,0,0,12,,,,,,,,,,,,,,,,15,,66,0
87359,note_on,,119,0,5,,,,,,,,,,,,,,,,2,,62,0
87359,note_on,,119,0,6,,,,,,,,,,,,,,,,3,,78,0
87359,note_on,,0,0,12,,,,,,,,,,,,,,,,15,,69,0
87359,note_on,,119,0,9,,,,,,,,,,,,,,,,11,,74,0
87360,note_on,,1,0,6,,,,,,,,,,,,,,,,3,,76,64
87360,note_on,,1,0,11,,,,,,,,,,,,,,,,13,,57,48
87360,note_on,,1,0,5,,,,,,,,,,,,,,,,2,,57,48
87360,note_on,,1,0,8,,,,,,,,,,,,,,,,10,,76,48
87360,note_on,,0,0,12,,,,,,,,,,,,,,,,15,,64,48
87360,note_on,,1,0,12,,,,,,,,,,,,,,,,15,,57,48
87360,note_on,,1,0,10,,,,,,,,,,,,,,,,12,,69,48
87360,note_on,,1,0,9,,,,,,,,,,,,,,,,11,,73,48
87360,note_on,,0,0,12,,,,,,,,,,,,,,,,15,,73,48
87360,note_on,,0,0,12,,,,,,,,,,,,,,,,15,,69,48
87479,note_on,,119,0,5,,,,,,,,,,,,,,,,2,,57,0
87479,note_on,,119,0,9,,,,,,,,,,,,,,,,11,,73,0
87479,note_on,,119,0,11,,,,,,,,,,,,,,,,13,,57,0
87479,note_on,,119,0,12,,,,,,,,,,,,,,,,15,,57,0
87479,note_on,,119,0,8,,,,,,,,,,,,,,,,10,,76,0
87479,note_on,,0,0,12,,,,,,,,,,,,,,,,15,,64,0
87479,note_on,,119,0,6,,,,,,,,,,,,,,,,3,,76,0
87479,note_on,,0,0,12,,,,,,,,,,,,,,,,15,,73,0
87479,note_on,,0,0,12,,,,,,,,,,,,,,,,15,,69,0
87479,note_on,,119,0,10,,,,,,,,,,,,,,,,12,,69,0
87480,note_on,,0,0,12,,,,,,,,,,,,,,,,15,,49,48
87480,note_on,,0,0,12,,,,,,,,,,,,,,,,15,,57,48
87480,note_on,,1,0,11,,,,,,,,,,,,,,,,13,,49,48
87480,note_on,,1,0,12,,,,,,,,,,,,,,,,15,,69,48
87480,note_on,,0,0,12,,,,,,,,,,,,,,,,15,,66,48
87480,note_on,,1,0,5,,,,,,,,,,,,,,,,2,,49,48
87480,note_on,,721,0,7,,,,,,,,,,,,,,,,8,,64,72
87599,note_on,,119,0,5,,,,,,,,,,,,,,,,2,,49,0
87599,note_on,,119,0,11,,,,,,,,,,,,,,,,13,,49,0
87599,note_on,,0,0,12,,,,,,,,,,,,,,,,15,,57,0
87599,note_on,,119,0,12,,,,,,,,,,,,,,,,15,,69,0
87599,note_on,,119,0,7,,,,,,,,,,,,,,,,8,,64,0
87599,note_on,,0,0,12,,,,,,,,,,,,,,,,15,,66,0
87599,note_on,,0,0,12,,,,,,,,,,,,,,,,15,,49,0
87600,note_on,,0,0,12,,,,,,,,,,,,,,,,15,,59,48
87600,note_on,,0,0,12,,,,,,,,,,,,,,,,15,,55,48
87600,note_on,,1,0,7,,,,,,,,,,,,,,,,8,,59,72
87600,note_on,,0,0,12,,,,,,,,,,,,,,,,15,,52,48
87600,note_on,,1,0,12,,,,,,,,,,,,,,,,15,,64,48
87600,note_on,,1,0,11,,,,,,,,,,,,,,,,13,,52,48
87600,note_on,,1,0,5,,,,,,,,,,,,,,,,2,,52,48
87719,note_on,,119,0,7,,,,,,,,,,,,,,,,8,,59,0
87720,note_on,,1,0,7,,,,,,,,,,,,,,,,8,,59,72
87839,note_on,,119,0,7,,,,,,,,,,,,,,,,8,,59,0
87839,note_on,,0,0,12,,,,,,,,,,,,,,,,15,,59,0
87839,note_on,,0,0,12,,,,,,,,,,,,,,,,15,,55,0
87839,note_on,,239,0,12,,,,,,,,,,,,,,,,15,,64,0
87839,note_on,,239,0,5,,,,,,,,,,,,,,,,2,,52,0
87839,note_on,,0,0,12,,,,,,,,,,,,,,,,15,,52,0
87839,note_on,,239,0,11,,,,,,,,,,,,,,,,13,,52,0
87840,note_on,,1,0,5,,,,,,,,,,,,,,,,2,,52,48
87840,note_on,,0,0,12,,,,,,,,,,,,,,,,15,,52,48
87840,note_on,,1,0,7,,,,,,,,,,,,,,,,8,,61,72
87840,note_on,,0,0,12,,,,,,,,,,,,,,,,15,,64,48
87840,note_on,,1,0,12,,,,,,,,,,,,,,,,15,,67,48
87840,note_on,,1,0,11,,,,,,,,,,,,,,,,13,,52,48
87840,note_on,,0,0,12,,,,,,,,,,,,,,,,15,,55,48
87959,note_on,,119,0,12,,,,,,,,,,,,,,,,15,,67,0
87959,note_on,,119,0,5,,,,,,,,,,,,,,,,2,,52,0
87959,note_on,,119,0,11,,,,,,,,,,,,,,,,13,,52,0
87959,note_on,,119,0,7,,,,,,,,,,,,,,,,8,,61,0
87959,note_on,,0,0,12,,,,,,,,,,,,,,,,15,,64,0
87959,note_on,,0,0,12,,,,,,,,,,,,,,,,15,,55,0
87959,note_on,,0,0,12,,,,,,,,,,,,,,,,15,,52,0
87960,note_on,,0,0,12,,,,,,,,,,,,,,,,15,,59,48
87960,note_on,,0,0,12,,,,,,,,,,,,,,,,15,,66,48
87960,note_on,,1,0,7,,,,,,,,,,,,,,,,8,,62,72
87960,note_on,,0,0,12,,,,,,,,,,,,,,,,15,,62,48
87960,note_on,,1,0,12,,,,,,,,,,,,,,,,15,,47,48
87960,note_on,,1,0,11,,,,,,,,,,,,,,,,13,,47,48
87960,note_on,,1,0,5,,,,,,,,,,,,,,,,2,,47,48
88019,note_on,,59,0,7,,,,,,,,,,,,,,,,8,,62,0
88020,note_on,,1,0,7,,,,,,,,,,,,,,,,8,,61,72
88079,note_on,,59,0,7,,,,,,,,,,,,,,,,8,,61,0
88080,note_on,,1,0,7,,,,,,,,,,,,,,,,8,,62,72
88139,note_on,,179,0,12,,,,,,,,,,,,,,,,15,,47,0
88139,note_on,,59,0,7,,,,,,,,,,,,,,,,8,,62,0
88139,note_on,,179,0,5,,,,,,,,,,,,,,,,2,,47,0
88139,note_on,,179,0,11,,,,,,,,,,,,,,,,13,,47,0
88140,note_on,,1,0,12,,,,,,,,,,,,,,,,15,,49,48
88140,note_on,,1,0,7,,,,,,,,,,,,,,,,8,,64,72
88140,note_on,,1,0,5,,,,,,,,,,,,,,,,2,,49,48
88140,note_on,,1,0,11,,,,,,,,,,,,,,,,13,,49,48
88199,note_on,,59,0,11,,,,,,,,,,,,,,,,13,,49,0
88199,note_on,,59,0,12,,,,,,,,,,,,,,,,15,,49,0
88199,note_on,,59,0,7,,,,,,,,,,,,,,,,8,,64,0
88199,note_on,,59,0,5,,,,,,,,,,,,,,,,2,,49,0
88200,note_on,,1,0,12,,,,,,,,,,,,,,,,15,,47,48
88200,note_on,,1,0,11,,,,,,,,,,,,,,,,13,,47,48
88200,note_on,,1,0,7,,,,,,,,,,,,,,,,8,,62,72
88200,note_on,,1,0,5,,,,,,,,,,,,,,,,2,,47,48
88259,note_on,,59,0,5,,,,,,,,,,,,,,,,2,,47,0
88259,note_on,,59,0,11,,,,,,,,,,,,,,,,13,,47,0
88259,note_on,,59,0,12,,,,,,,,,,,,,,,,15,,47,0
88259,note_on,,59,0,7,,,,,,,,,,,,,,,,8,,62,0
88260,note_on,,1,0,5,,,,,,,,,,,,,,,,2,,49,48
88260,note_on,,1,0,12,,,,,,,,,,,,,,,,15,,49,48
88260,note_on,,1,0,11,,,,,,,,,,,,,,,,13,,49,48
88260,note_on,,1,0,7,,,,,,,,,,,,,,,,8,,64,72
88319,note_on,,59,0,5,,,,,,,,,,,,,,,,2,,49,0
88319,note_on,,0,0,12,,,,,,,,,,,,,,,,15,,59,0
88319,note_on,,59,0,12,,,,,,,,,,,,,,,,15,,66,0
88319,note_on,,59,0,7,,,,,,,,,,,,,,,,8,,64,0
88319,note_on,,0,0,12,,,,,,,,,,,,,,,,15,,49,0
88319,note_on,,0,0,12,,,,,,,,,,,,,,,,15,,62,0
88319,note_on,,59,0,11,,,,,,,,,,,,,,,,13,,49,0
88320,note_on,,1,0,12,,,,,,,,,,,,,,,,15,,66,48
88320,note_on,,0,0,12,,,,,,,,,,,,,,,,15,,71,48
88320,note_on,,0,0,12,,,,,,,,,,,,,,,,15,,50,48
88320,note_on,,1,0,11,,,,,,,,,,,,,,,,13,,50,48
88320,note_on,,1,0,5,,,,,,,,,,,,,,,,2,,50,48
88320,note_on,,0,0,12,,,,,,,,,,,,,,,,15,,59,48
88320,note_on,,1,0,7,,,,,,,,,,,,,,,,8,,54,72
88379,note_on,,59,0,7,,,,,,,,,,,,,,,,8,,54,0
88380,note_on,,1,0,7,,,,,,,,,,,,,,,,8,,52,72
88439,note_on,,59,0,7,,,,,,,,,,,,,,,,8,,52,0
88440,note_on,,1,0,7,,,,,,,,,,,,,,,,8,,54,72
88499,note_on,,179,0,5,,,,,,,,,,,,,,,,2,,50,0
88499,note_on,,179,0,11,,,,,,,,,,,,,,,,13,,50,0
88499,note_on,,179,0,12,,,,,,,,,,,,,,,,15,,50,0
88499,note_on,,59,0,7,,,,,,,,,,,,,,,,8,,54,0
88500,note_on,,1,0,12,,,,,,,,,,,,,,,,15,,52,48
88500,note_on,,1,0,5,,,,,,,,,,,,,,,,2,,52,48
88500,note_on,,1,0,11,,,,,,,,,,,,,,,,13,,52,48
88500,note_on,,1,0,7,,,,,,,,,,,,,,,,8,,56,72
88559,note_on,,59,0,7,,,,,,,,,,,,,,,,8,,56,0
88559,note_on,,59,0,11,,,,,,,,,,,,,,,,13,,52,0
88559,note_on,,59,0,12,,,,,,,,,,,,,,,,15,,52,0
88559,note_on,,59,0,5,,,,,,,,,,,,,,,,2,,52,0
88560,note_on,,1,0,11,,,,,,,,,,,,,,,,13,,50,48
88560,note_on,,1,0,12,,,,,,,,,,,,,,,,15,,50,48
88560,note_on,,1,0,5,,,,,,,,,,,,,,,,2,,50,48
88560,note_on,,1,0,7,,,,,,,,,,,,,,,,8,,54,72
88619,note_on,,59,0,7,,,,,,,,,,,,,,,,8,,54,0
88619,note_on,,59,0,5,,,,,,,,,,,,,,,,2,,50,0
88619,note_on,,59,0,11,,,,,,,,,,,,,,,,13,,50,0
88619,note_on,,59,0,12,,,,,,,,,,,,,,,,15,,50,0
88620,note_on,,1,0,12,,,,,,,,,,,,,,,,15,,52,48
88620,note_on,,1,0,11,,,,,,,,,,,,,,,,13,,52,48
88620,note_on,,1,0,5,,,,,,,,,,,,,,,,2,,52,48
88620,note_on,,1,0,7,,,,,,,,,,,,,,,,8,,56,72
88679,note_on,,0,0,12,,,,,,,,,,,,,,,,15,,52,0
88679,note_on,,0,0,12,,,,,,,,,,,,,,,,15,,59,0
88679,note_on,,0,0,12,,,,,,,,,,,,,,,,15,,71,0
88679,note_on,,59,0,7,,,,,,,,,,,,,,,,8,,56,0
88679,note_on,,59,0,11,,,,,,,,,,,,,,,,13,,52,0
88679,note_on,,59,0,12,,,,,,,,,,,,,,,,15,,66,0
88679,note_on,,59,0,5,,,,,,,,,,,,,,,,2,,52,0
88680,note_on,,0,0,12,,,,,,,,,,,,,,,,15,,57,48
88680,note_on,,1,0,5,,,,,,,,,,,,,,,,2,,54,48
88680,note_on,,1,0,11,,,,,,,,,,,,,,,,13,,54,48
88680,note_on,,0,0,12,,,,,,,,,,,,,,,,15,,61,48
88680,note_on,,1,0,7,,,,,,,,,,,,,,,,8,,57,72
88680,note_on,,0,0,12,,,,,,,,,,,,,,,,15,,66,48
88680,note_on,,1,0,12,,,,,,,,,,,,,,,,15,,54,48
88739,note_on,,59,0,7,,,,,,,,,,,,,,,,8,,57,0
88740,note_on,,1,0,7,,,,,,,,,,,,,,,,8,,56,72
88799,note_on,,119,0,12,,,,,,,,,,,,,,,,15,,54,0
88799,note_on,,0,0,12,,,,,,,,,,,,,,,,15,,61,0
88799,note_on,,119,0,5,,,,,,,,,,,,,,,,2,,54,0
88799,note_on,,0,0,12,,,,,,,,,,,,,,,,15,,57,0
88799,note_on,,119,0,11,,,,,,,,,,,,,,,,13,,54,0
88799,note_on,,0,0,12,,,,,,,,,,,,,,,,15,,66,0
88799,note_on,,59,0,7,,,,,,,,,,,,,,,,8,,56,0
88800,note_on,,1,0,5,,,,,,,,,,,,,,,,2,,54,48
88800,note_on,,1,0,11,,,,,,,,,,,,,,,,13,,54,48
88800,note_on,,0,0,12,,,,,,,,,,,,,,,,15,,66,48
88800,note_on,,1,0,12,,,,,,,,,,,,,,,,15,,61,48
88800,note_on,,0,0,12,,,,,,,,,,,,,,,,15,,69,48
88800,note_on,,0,0,12,,,,,,,,,,,,,,,,15,,54,48
88800,note_on,,1,0,7,,,,,,,,,,,,,,,,8,,57,72
88859,note_on,,59,0,7,,,,,,,,,,,,,,,,8,,57,0
88860,note_on,,1,0,7,,,,,,,,,,,,,,,,8,,59,72
88919,note_on,,0,0,12,,,,,,,,,,,,,,,,15,,69,0
88919,note_on,,0,0,12,,,,,,,,,,,,,,,,15,,54,0
88919,note_on,,119,0,12,,,,,,,,,,,,,,,,15,,61,0
88919,note_on,,59,0,7,,,,,,,,,,,,,,,,8,,59,0
88919,note_on,,119,0,11,,,,,,,,,,,,,,,,13,,54,0
88919,note_on,,0,0,12,,,,,,,,,,,,,,,,15,,66,0
88919,note_on,,119,0,5,,,,,,,,,,,,,,,,2,,54,0
88920,note_on,,0,0,12,,,,,,,,,,,,,,,,15,,69,48
88920,note_on,,1,0,5,,,,,,,,,,,,,,,,2,,50,48
88920,note_on,,1,0,7,,,,,,,,,,,,,,,,8,,57,72
88920,note_on,,1,0,12,,,,,,,,,,,,,,,,15,,78,48
88920,note_on,,0,0,12,,,,,,,,,,,,,,,,15,,50,48
88920,note_on,,0,0,12,,,,,,,,,,,,,,,,15,,74,48
88920,note_on,,1,0,11,,,,,,,,,,,,,,,,13,,50,48
88979,note_on,,59,0,7,,,,,,,,,,,,,,,,8,,57,0
88980,note_on,,1,0,7,,,,,,,,,,,,,,,,8,,59,72
89039,note_on,,0,0,12,,,,,,,,,,,,,,,,15,,69,0
89039,note_on,,0,0,12,,,,,,,,,,,,,,,,15,,74,0
89039,note_on,,59,0,7,,,,,,,,,,,,,,,,8,,59,0
89039,note_on,,119,0,11,,,,,,,,,,,,,,,,13,,50,0
89039,note_on,,0,0,12,,,,,,,,,,,,,,,,15,,50,0
89039,note_on,,119,0,12,,,,,,,,,,,,,,,,15,,78,0
89039,note_on,,119,0,5,,,,,,,,,,,,,,,,2,,50,0
89040,note_on,,0,0,12,,,,,,,,,,,,,,,,15,,73,48
89040,note_on,,1,0,11,,,,,,,,,,,,,,,,13,,45,48
89040,note_on,,1,0,5,,,,,,,,,,,,,,,,2,,45,48
89040,note_on,,0,0,12,,,,,,,,,,,,,,,,15,,69,48
89040,note_on,,1,0,12,,,,,,,,,,,,,,,,15,,76,48
89040,note_on,,0,0,12,,,,,,,,,,,,,,,,15,,45,48
89040,note_on,,1,0,7,,,,,,,,,,,,,,,,8,,61,72
89099,note_on,,59,0,7,,,,,,,,,,,,,,,,8,,61,0
89100,note_on,,1,0,7,,,,,,,,,,,,,,,,8,,59,72
89159,note_on,,59,0,7,,,,,,,,,,,,,,,,8,,59,0
89160,note_on,,1,0,7,,,,,,,,,,,,,,,,8,,61,72
89219,note_on,,179,0,12,,,,,,,,,,,,,,,,15,,45,0
89219,note_on,,179,0,5,,,,,,,,,,,,,,,,2,,45,0
89219,note_on,,179,0,11,,,,,,,,,,,,,,,,13,,45,0
89219,note_on,,59,0,7,,,,,,,,,,,,,,,,8,,61,0
89220,note_on,,1,0,12,,,,,,,,,,,,,,,,15,,47,48
89220,note_on,,1,0,5,,,,,,,,,,,,,,,,2,,47,48
89220,note_on,,1,0,11,,,,,,,,,,,,,,,,13,,47,48
89220,note_on,,1,0,7,,,,,,,,,,,,,,,,8,,62,72
89279,note_on,,59,0,5,,,,,,,,,,,,,,,,2,,47,0
89279,note_on,,59,0,12,,,,,,,,,,,,,,,,15,,47,0
89279,note_on,,59,0,11,,,,,,,,,,,,,,,,13,,47,0
89279,note_on,,59,0,7,,,,,,,,,,,,,,,,8,,62,0
89280,note_on,,1,0,7,,,,,,,,,,,,,,,,8,,61,72
89280,note_on,,1,0,11,,,,,,,,,,,,,,,,13,,45,48
89280,note_on,,1,0,12,,,,,,,,,,,,,,,,15,,45,48
89280,note_on,,1,0,5,,,,,,,,,,,,,,,,2,,45,48
89339,note_on,,59,0,5,,,,,,,,,,,,,,,,2,,45,0
89339,note_on,,59,0,7,,,,,,,,,,,,,,,,8,,61,0
89339,note_on,,59,0,12,,,,,,,,,,,,,,,,15,,45,0
89339,note_on,,59,0,11,,,,,,,,,,,,,,,,13,,45,0
89340,note_on,,1,0,5,,,,,,,,,,,,,,,,2,,47,48
89340,note_on,,1,0,11,,,,,,,,,,,,,,,,13,,47,48
89340,note_on,,1,0,12,,,,,,,,,,,,,,,,15,,47,48
89340,note_on,,1,0,7,,,,,,,,,,,,,,,,8,,62,72
89399,note_on,,59,0,5,,,,,,,,,,,,,,,,2,,47,0
89399,note_on,,59,0,11,,,,,,,,,,,,,,,,13,,47,0
89399,note_on,,59,0,7,,,,,,,,,,,,,,,,8,,62,0
89399,note_on,,0,0,12,,,,,,,,,,,,,,,,15,,69,0
89399,note_on,,59,0,12,,,,,,,,,,,,,,,,15,,76,0
89399,note_on,,0,0,12,,,,,,,,,,,,,,,,15,,47,0
89399,note_on,,0,0,12,,,,,,,,,,,,,,,,15,,73,0
89400,note_on,,1,0,11,,,,,,,,,,,,,,,,13,,49,48
89400,note_on,,0,0,12,,,,,,,,,,,,,,,,15,,49,48
89400,note_on,,0,0,12,,,,,,,,,,,,,,,,15,,73,48
89400,note_on,,1,0,12,,,,,,,,,,,,,,,,15,,69,48
89400,note_on,,1,0,7,,,,,,,,,,,,,,,,8,,52,72
89400,note_on,,0,0,12,,,,,,,,,,,,,,,,15,,64,48
89400,note_on,,1,0,5,,,,,,,,,,,,,,,,2,,49,48
89459,note_on,,59,0,7,,,,,,,,,,,,,,,,8,,52,0
89460,note_on,,1,0,7,,,,,,,,,,,,,,,,8,,50,72
89519,note_on,,59,0,7,,,,,,,,,,,,,,,,8,,50,0
89520,note_on,,1,0,7,,,,,,,,,,,,,,,,8,,52,72
89579,note_on,,179,0,5,,,,,,,,,,,,,,,,2,,49,0
89579,note_on,,179,0,11,,,,,,,,,,,,,,,,13,,49,0
89579,note_on,,59,0,7,,,,,,,,,,,,,,,,8,,52,0
89579,note_on,,179,0,12,,,,,,,,,,,,,,,,15,,49,0
89580,note_on,,1,0,5,,,,,,,,,,,,,,,,2,,50,48
89580,note_on,,1,0,11,,,,,,,,,,,,,,,,13,,50,48
89580,note_on,,1,0,7,,,,,,,,,,,,,,,,8,,54,72
89580,note_on,,1,0,12,,,,,,,,,,,,,,,,15,,50,48
89639,note_on,,59,0,5,,,,,,,,,,,,,,,,2,,50,0
89639,note_on,,59,0,12,,,,,,,,,,,,,,,,15,,50,0
89639,note_on,,59,0,7,,,,,,,,,,,,,,,,8,,54,0
89639,note_on,,59,0,11,,,,,,,,,,,,,,,,13,,50,0
89640,note_on,,1,0,11,,,,,,,,,,,,,,,,13,,49,48
89640,note_on,,1,0,5,,,,,,,,,,,,,,,,2,,49,48
89640,note_on,,1,0,7,,,,,,,,,,,,,,,,8,,52,72
89640,note_on,,1,0,12,,,,,,,,,,,,,,,,15,,49,48
89699,note_on,,59,0,11,,,,,,,,,,,,,,,,13,,49,0
89699,note_on,,59,0,5,,,,,,,,,,,,,,,,2,,49,0
89699,note_on,,59,0,7,,,,,,,,,,,,,,,,8,,52,0
89699,note_on,,59,0,12,,,,,,,,,,,,,,,,15,,49,0
89700,note_on,,1,0,5,,,,,,,,,,,,,,,,2,,50,48
89700,note_on,,1,0,11,,,,,,,,,,,,,,,,13,,50,48
89700,note_on,,1,0,7,,,,,,,,,,,,,,,,8,,54,72
89700,note_on,,1,0,12,,,,,,,,,,,,,,,,15,,50,48
89759,note_on,,59,0,7,,,,,,,,,,,,,,,,8,,54,0
89759,note_on,,0,0,12,,,,,,,,,,,,,,,,15,,50,0
89759,note_on,,59,0,11,,,,,,,,,,,,,,,,13,,50,0
89759,note_on,,59,0,5,,,,,,,,,,,,,,,,2,,50,0
89759,note_on,,0,0,12,,,,,,,,,,,,,,,,15,,73,0
89759,note_on,,59,0,12,,,,,,,,,,,,,,,,15,,69,0
89759,note_on,,0,0,12,,,,,,,,,,,,,,,,15,,64,0
89760,note_on,,1,0,12,,,,,,,,,,,,,,,,15,,59,48
89760,note_on,,1,0,11,,,,,,,,,,,,,,,,13,,52,48
89760,note_on,,1,0,5,,,,,,,,,,,,,,,,2,,52,48
89760,note_on,,1,0,7,,,,,,,,,,,,,,,,8,,56,72
89760,note_on,,0,0,12,,,,,,,,,,,,,,,,15,,52,48
89760,note_on,,0,0,12,,,,,,,,,,,,,,,,15,,68,48
89760,note_on,,0,0,12,,,,,,,,,,,,,,,,15,,71,48
89760,note_on,,0,0,12,,,,,,,,,,,,,,,,15,,64,48
89819,note_on,,59,0,7,,,,,,,,,,,,,,,,8,,56,0
89820,note_on,,1,0,7,,,,,,,,,,,,,,,,8,,54,72
89879,note_on,,0,0,12,,,,,,,,,,,,,,,,15,,68,0
89879,note_on,,119,0,5,,,,,,,,,,,,,,,,2,,52,0
89879,note_on,,0,0,12,,,,,,,,,,,,,,,,15,,71,0
89879,note_on,,59,0,7,,,,,,,,,,,,,,,,8,,54,0
89879,note_on,,0,0,12,,,,,,,,,,,,,,,,15,,64,0
89879,note_on,,119,0,12,,,,,,,,,,,,,,,,15,,59,0
89879,note_on,,119,0,11,,,,,,,,,,,,,,,,13,,52,0
89879,note_on,,0,0,12,,,,,,,,,,,,,,,,15,,52,0
89880,note_on,,1,0,7,,,,,,,,,,,,,,,,8,,56,72
89880,note_on,,0,0,12,,,,,,,,,,,,,,,,15,,64,48
89880,note_on,,1,0,5,,,,,,,,,,,,,,,,2,,49,48
89880,note_on,,1,0,12,,,,,,,,,,,,,,,,15,,49,48
89880,note_on,,0,0,12,,,,,,,,,,,,,,,,15,,61,48
89880,note_on,,1,0,11,,,,,,,,,,,,,,,,13,,49,48
89939,note_on,,59,0,7,,,,,,,,,,,,,,,,8,,56,0
89940,note_on,,1,0,7,,,,,,,,,,,,,,,,8,,57,72
89999,note_on,,119,0,11,,,,,,,,,,,,,,,,13,,49,0
89999,note_on,,119,0,5,,,,,,,,,,,,,,,,2,,49,0
89999,note_on,,59,0,7,,,,,,,,,,,,,,,,8,,57,0
89999,note_on,,119,0,12,,,,,,,,,,,,,,,,15,,49,0
89999,note_on,,0,0,12,,,,,,,,,,,,,,,,15,,61,0
89999,note_on,,0,0,12,,,,,,,,,,,,,,,,15,,64,0
90000,note_on,,1,0,11,,,,,,,,,,,,,,,,13,,45,48
90000,note_on,,1,0,7,,,,,,,,,,,,,,,,8,,56,72
90000,note_on,,1,0,12,,,,,,,,,,,,,,,,15,,45,48
90000,note_on,,0,0,12,,,,,,,,,,,,,,,,15,,69,48
90000,note_on,,0,0,12,,,,,,,,,,,,,,,,15,,73,48
90000,note_on,,1,0,5,,,,,,,,,,,,,,,,2,,45,48
90000,note_on,,0,0,12,,,,,,,,,,,,,,,,15,,64,48
90059,note_on,,59,0,7,,,,,,,,,,,,,,,,8,,56,0
90060,note_on,,1,0,7,,,,,,,,,,,,,,,,8,,57,72
90119,note_on,,0,0,12,,,,,,,,,,,,,,,,15,,64,0
90119,note_on,,59,0,7,,,,,,,,,,,,,,,,8,,57,0
90119,note_on,,0,0,12,,,,,,,,,,,,,,,,15,,73,0
90119,note_on,,0,0,12,,,,,,,,,,,,,,,,15,,69,0
90119,note_on,,119,0,12,,,,,,,,,,,,,,,,15,,45,0
90119,note_on,,119,0,11,,,,,,,,,,,,,,,,13,,45,0
90119,note_on,,119,0,5,,,,,,,,,,,,,,,,2,,45,0
90120,note_on,,0,0,12,,,,,,,,,,,,,,,,15,,64,48
90120,note_on,,1,0,12,,,,,,,,,,,,,,,,15,,44,48
90120,note_on,,1,0,11,,,,,,,,,,,,,,,,13,,44,48
90120,note_on,,1,0,7,,,,,,,,,,,,,,,,8,,59,72
90120,note_on,,1,0,5,,,,,,,,,,,,,,,,2,,44,48
90120,note_on,,0,0,12,,,,,,,,,,,,,,,,15,,71,48
90239,note_on,,119,0,11,,,,,,,,,,,,,,,,13,,44,0
90239,note_on,,119,0,12,,,,,,,,,,,,,,,,15,,44,0
90239,note_on,,0,0,12,,,,,,,,,,,,,,,,15,,71,0
90239,note_on,,0,0,12,,,,,,,,,,,,,,,,15,,64,0
90239,note_on,,119,0,5,,,,,,,,,,,,,,,,2,,44,0
90240,note_on,,1,0,12,,,,,,,,,,,,,,,,15,,76,48
90240,note_on,,0,0,12,,,,,,,,,,,,,,,,15,,40,48
90240,note_on,,1,0,5,,,,,,,,,,,,,,,,2,,40,48
90240,note_on,,0,0,12,,,,,,,,,,,,,,,,15,,68,48
90240,note_on,,0,0,12,,,,,,,,,,,,,,,,15,,71,48
90240,note_on,,1,0,11,,,,,,,,,,,,,,,,13,,40,48
90359,note_on,,239,0,7,,,,,,,,,,,,,,,,8,,59,0
90359,note_on,,119,0,12,,,,,,,,,,,,,,,,15,,76,0
90359,note_on,,0,0,12,,,,,,,,,,,,,,,,15,,40,0
90359,note_on,,119,0,11,,,,,,,,,,,,,,,,13,,40,0
90359,note_on,,0,0,12,,,,,,,,,,,,,,,,15,,68,0
90359,note_on,,0,0,12,,,,,,,,,,,,,,,,15,,71,0
90359,note_on,,119,0,5,,,,,,,,,,,,,,,,2,,40,0
90360,note_on,,1,0,7,,,,,,,,,,,,,,,,8,,61,72
90360,note_on,,1,0,11,,,,,,,,,,,,,,,,13,,49,48
90360,note_on,,1,0,12,,,,,,,,,,,,,,,,15,,61,48
90360,note_on,,1,0,5,,,,,,,,,,,,,,,,2,,49,48
90360,note_on,,0,0,12,,,,,,,,,,,,,,,,15,,49,48
90479,note_on,,119,0,12,,,,,,,,,,,,,,,,15,,61,0
90479,note_on,,119,0,11,,,,,,,,,,,,,,,,13,,49,0
90479,note_on,,0,0,12,,,,,,,,,,,,,,,,15,,49,0
90479,note_on,,119,0,7,,,,,,,,,,,,,,,,8,,61,0
90479,note_on,,119,0,5,,,,,,,,,,,,,,,,2,,49,0
90480,note_on,,1,0,11,,,,,,,,,,,,,,,,13,,50,48
90480,note_on,,0,0,12,,,,,,,,,,,,,,,,15,,62,48
90480,note_on,,1,0,12,,,,,,,,,,,,,,,,15,,50,48
90480,note_on,,1,0,5,,,,,,,,,,,,,,,,2,,50,48
90480,note_on,,1,0,7,,,,,,,,,,,,,,,,8,,62,72
90599,note_on,,119,0,7,,,,,,,,,,,,,,,,8,,62,0
90599,note_on,,119,0,11,,,,,,,,,,,,,,,,13,,50,0
90599,note_on,,0,0,12,,,,,,,,,,,,,,,,15,,62,0
90599,note_on,,119,0,12,,,,,,,,,,,,,,,,15,,50,0
90599,note_on,,119,0,5,,,,,,,,,,,,,,,,2,,50,0
90600,note_on,,1,0,11,,,,,,,,,,,,,,,,13,,52,48
90600,note_on,,0,0,12,,,,,,,,,,,,,,,,15,,52,48
90600,note_on,,1,0,12,,,,,,,,,,,,,,,,15,,64,48
90600,note_on,,1,0,7,,,,,,,,,,,,,,,,8,,64,72
90600,note_on,,1,0,5,,,,,,,,,,,,,,,,2,,52,48
90719,note_on,,119,0,5,,,,,,,,,,,,,,,,2,,52,0
90719,note_on,,119,0,11,,,,,,,,,,,,,,,,13,,52,0
90719,note_on,,119,0,12,,,,,,,,,,,,,,,,15,,52,0
90719,note_on,,119,0,7,,,,,,,,,,,,,,,,8,,64,0
90720,note_on,,1,0,7,,,,,,,,,,,,,,,,8,,52,72
90720,note_on,,1,0,11,,,,,,,,,,,,,,,,13,,40,48
90720,note_on,,1,0,12,,,,,,,,,,,,,,,,15,,52,48
90720,note_on,,0,0,12,,,,,,,,,,,,,,,,15,,40,48
90720,note_on,,1,0,5,,,,,,,,,,,,,,,,2,,40,48
90839,note_on,,0,0,12,,,,,,,,,,,,,,,,15,,40,0
90839,note_on,,0,0,12,,,,,,,,,,,,,,,,15,,52,0
90839,note_on,,119,0,12,,,,,,,,,,,,,,,,15,,64,0
90839,note_on,,119,0,5,,,,,,,,,,,,,,,,2,,40,0
90839,note_on,,119,0,7,,,,,,,,,,,,,,,,8,,52,0
90839,note_on,,119,0,11,,,,,,,,,,,,,,,,13,,40,0
90840,note_on,,1,0,12,,,,,,,,,,,,,,,,15,,57,48
90840,note_on,,0,0,12,,,,,,,,,,,,,,,,15,,45,48
90840,note_on,,1,0,7,,,,,,,,,,,,,,,,8,,57,72
90840,note_on,,1,0,5,,,,,,,,,,,,,,,,2,,45,48
90840,note_on,,1,0,11,,,,,,,,,,,,,,,,13,,45,48
90959,note_on,,0,0,12,,,,,,,,,,,,,,,,15,,45,0
90959,note_on,,119,0,12,,,,,,,,,,,,,,,,15,,57,0
90959,note_on,,119,0,5,,,,,,,,,,,,,,,,2,,45,0
90959,note_on,,119,0,11,,,,,,,,,,,,,,,,13,,45,0
90960,note_on,,1,0,11,,,,,,,,,,,,,,,,13,,49,48
90960,note_on,,1,0,5,,,,,,,,,,,,,,,,2,,49,48
90960,note_on,,0,0,12,,,,,,,,,,,,,,,,15,,69,48
90960,note_on,,1,0,12,,,,,,,,,,,,,,,,15,,49,48
90960,note_on,,0,0,12,,,,,,,,,,,,,,,,15,,64,48
91079,note_on,,119,0,12,,,,,,,,,,,,,,,,15,,49,0
91079,note_on,,0,0,12,,,,,,,,,,,,,,,,15,,64,0
91079,note_on,,119,0,11,,,,,,,,,,,,,,,,13,,49,0
91079,note_on,,119,0,5,,,,,,,,,,,,,,,,2,,49,0
91079,note_on,,0,0,12,,,,,,,,,,,,,,,,15,,69,0
91080,note_on,,1,0,11,,,,,,,,,,,,,,,,13,,45,72
91080,note_on,,3601,0,6,,,,,,,,,,,,,,,,3,,81,64
91080,note_on,,0,0,12,,,,,,,,,,,,,,,,15,,45,72
91080,note_on,,3601,0,8,,,,,,,,,,,,,,,,10,,81,72
91080,note_on,,3601,0,10,,,,,,,,,,,,,,,,12,,64,72
91080,note_on,,0,0,12,,,,,,,,,,,,,,,,15,,69,72
91080,note_on,,3601,0,9,,,,,,,,,,,,,,,,11,,73,72
91080,note_on,,0,0,12,,,,,,,,,,,,,,,,15,,73,72
91080,note_on,,1,0,5,,,,,,,,,,,,,,,,2,,45,72
91080,note_on,,1,0,12,,,,,,,,,,,,,,,,15,,64,72
91199,note_on,,119,0,10,,,,,,,,,,,,,,,,12,,64,0
91199,note_on,,119,0,9,,,,,,,,,,,,,,,,11,,73,0
91199,note_on,,119,0,8,,,,,,,,,,,,,,,,10,,81,0
91199,note_on,,119,0,5,,,,,,,,,,,,,,,,2,,45,0
91199,note_on,,359,0,7,,,,,,,,,,,,,,,,8,,57,0
91199,note_on,,0,0,12,,,,,,,,,,,,,,,,15,,45,0
91199,note_on,,119,0,6,,,,,,,,,,,,,,,,3,,81,0
91199,note_on,,0,0,12,,,,,,,,,,,,,,,,15,,73,0
91199,note_on,,119,0,12,,,,,,,,,,,,,,,,15,,64,0
91199,note_on,,119,0,11,,,,,,,,,,,,,,,,13,,45,0
91199,note_on,,0,0,12,,,,,,,,,,,,,,,,15,,69,0
91200,note_on,,1,0,10,,,,,,,,,,,,,,,,12,,64,72
91200,note_on,,1,0,8,,,,,,,,,,,,,,,,10,,80,72
91200,note_on,,1,0,6,,,,,,,,,,,,,,,,3,,80,64
91200,note_on,,1,0,9,,,,,,,,,,,,,,,,11,,71,72
91200,note_on,,0,0,12,,,,,,,,,,,,,,,,15,,68,72
91200,note_on,,1,0,11,,,,,,,,,,,,,,,,13,,52,72
91200,note_on,,1,0,5,,,,,,,,,,,,,,,,2,,52,72
91200,note_on,,0,0,12,,,,,,,,,,,,,,,,15,,52,72
91200,note_on,,1,0,12,,,,,,,,,,,,,,,,15,,64,72
91200,note_on,,0,0,12,,,,,,,,,,,,,,,,15,,71,72
91259,note_on,,59,0,9,,,,,,,,,,,,,,,,11,,71,0
91259,note_on,,59,0,8,,,,,,,,,,,,,,,,10,,80,0
91259,note_on,,59,0,6,,,,,,,,,,,,,,,,3,,80,0
91260,note_on,,1,0,9,,,,,,,,,,,,,,,,11,,69,72
91260,note_on,,1,0,8,,,,,,,,,,,,,,,,10,,78,72
91260,note_on,,1,0,6,,,,,,,,,,,,,,,,3,,78,64
91319,note_on,,59,0,9,,,,,,,,,,,,,,,,11,,69,0
91319,note_on,,59,0,6,,,,,,,,,,,,,,,,3,,78,0
91319,note_on,,59,0,8,,,,,,,,,,,,,,,,10,,78,0
91320,note_on,,1,0,6,,,,,,,,,,,,,,,,3,,76,64
91320,note_on,,1,0,9,,,,,,,,,,,,,,,,11,,68,72
91320,note_on,,1,0,8,,,,,,,,,,,,,,,,10,,76,72
91379,note_on,,59,0,9,,,,,,,,,,,,,,,,11,,68,0
91379,note_on,,59,0,8,,,,,,,,,,,,,,,,10,,76,0
91379,note_on,,59,0,6,,,,,,,,,,,,,,,,3,,76,0
91380,note_on,,1,0,6,,,,,,,,,,,,,,,,3,,80,64
91380,note_on,,1,0,9,,,,,,,,,,,,,,,,11,,71,72
91380,note_on,,1,0,8,,,,,,,,,,,,,,,,10,,80,72
91439,note_on,,59,0,6,,,,,,,,,,,,,,,,3,,80,0
91439,note_on,,59,0,9,,,,,,,,,,,,,,,,11,,71,0
91439,note_on,,239,0,5,,,,,,,,,,,,,,,,2,,52,0
91439,note_on,,239,0,11,,,,,,,,,,,,,,,,13,,52,0
91439,note_on,,59,0,8,,,,,,,,,,,,,,,,10,,80,0
91439,note_on,,239,0,10,,,,,,,,,,,,,,,,12,,64,0
91439,note_on,,239,0,12,,,,,,,,,,,,,,,,15,,52,0
91440,note_on,,1,0,11,,,,,,,,,,,,,,,,13,,62,72
91440,note_on,,1,0,9,,,,,,,,,,,,,,,,11,,69,72
91440,note_on,,1,0,5,,,,,,,,,,,,,,,,2,,62,72
91440,note_on,,1,0,6,,,,,,,,,,,,,,,,3,,78,64
91440,note_on,,1,0,8,,,,,,,,,,,,,,,,10,,78,72
91440,note_on,,1,0,10,,,,,,,,,,,,,,,,12,,64,72
91440,note_on,,1,0,12,,,,,,,,,,,,,,,,15,,62,72
91499,note_on,,59,0,6,,,,,,,,,,,,,,,,3,,78,0
91499,note_on,,59,0,9,,,,,,,,,,,,,,,,11,,69,0
91499,note_on,,59,0,8,,,,,,,,,,,,,,,,10,,78,0
91500,note_on,,1,0,9,,,,,,,,,,,,,,,,11,,68,72
91500,note_on,,1,0,6,,,,,,,,,,,,,,,,3,,76,64
91500,note_on,,1,0,8,,,,,,,,,,,,,,,,10,,76,72
91559,note_on,,119,0,12,,,,,,,,,,,,,,,,15,,64,0
91559,note_on,,59,0,6,,,,,,,,,,,,,,,,3,,76,0
91559,note_on,,59,0,9,,,,,,,,,,,,,,,,11,,68,0
91559,note_on,,0,0,12,,,,,,,,,,,,,,,,15,,62,0
91559,note_on,,119,0,10,,,,,,,,,,,,,,,,12,,64,0
91559,note_on,,119,0,5,,,,,,,,,,,,,,,,2,,62,0
91559,note_on,,119,0,11,,,,,,,,,,,,,,,,13,,62,0
91559,note_on,,0,0,12,,,,,,,,,,,,,,,,15,,68,0
91559,note_on,,59,0,8,,,,,,,,,,,,,,,,10,,76,0
91559,note_on,,0,0,12,,,,,,,,,,,,,,,,15,,71,0
91560,note_on,,0,0,12,,,,,,,,,,,,,,,,15,,69,72
91560,note_on,,0,0,12,,,,,,,,,,,,,,,,15,,61,72
91560,note_on,,1,0,9,,,,,,,,,,,,,,,,11,,69,72
91560,note_on,,1,0,12,,,,,,,,,,,,,,,,15,,64,72
91560,note_on,,1,0,6,,,,,,,,,,,,,,,,3,,81,64
91560,note_on,,1,0,5,,,,,,,,,,,,,,,,2,,61,72
91560,note_on,,1,0,11,,,,,,,,,,,,,,,,13,,61,72
91560,note_on,,1,0,8,,,,,,,,,,,,,,,,10,,81,72
91560,note_on,,1,0,10,,,,,,,,,,,,,,,,12,,64,72
91619,note_on,,59,0,5,,,,,,,,,,,,,,,,2,,61,0
91619,note_on,,59,0,12,,,,,,,,,,,,,,,,15,,64,0
91619,note_on,,0,0,12,,,,,,,,,,,,,,,,15,,61,0
91619,note_on,,59,0,11,,,,,,,,,,,,,,,,13,,61,0
91619,note_on,,59,0,10,,,,,,,,,,,,,,,,12,,64,0
91620,note_on,,1,0,11,,,,,,,,,,,,,,,,13,,59,72
91620,note_on,,1,0,5,,,,,,,,,,,,,,,,2,,59,72
91620,note_on,,0,0,12,,,,,,,,,,,,,,,,15,,62,72
91620,note_on,,1,0,10,,,,,,,,,,,,,,,,12,,62,72
91620,note_on,,1,0,12,,,,,,,,,,,,,,,,15,,59,72
91679,note_on,,0,0,12,,,,,,,,,,,,,,,,15,,62,0
91679,note_on,,59,0,11,,,,,,,,,,,,,,,,13,,59,0
91679,note_on,,59,0,10,,,,,,,,,,,,,,,,12,,62,0
91679,note_on,,59,0,5,,,,,,,,,,,,,,,,2,,59,0
91679,note_on,,59,0,12,,,,,,,,,,,,,,,,15,,59,0
91680,note_on,,1,0,10,,,,,,,,,,,,,,,,12,,61,72
91680,note_on,,1,0,11,,,,,,,,,,,,,,,,13,,57,72
91680,note_on,,1,0,5,,,,,,,,,,,,,,,,2,,57,72
91680,note_on,,1,0,12,,,,,,,,,,,,,,,,15,,57,72
91680,note_on,,0,0,12,,,,,,,,,,,,,,,,15,,61,72
91739,note_on,,59,0,11,,,,,,,,,,,,,,,,13,,57,0
91739,note_on,,59,0,5,,,,,,,,,,,,,,,,2,,57,0
91739,note_on,,0,0,12,,,,,,,,,,,,,,,,15,,61,0
91739,note_on,,59,0,12,,,,,,,,,,,,,,,,15,,57,0
91739,note_on,,59,0,10,,,,,,,,,,,,,,,,12,,61,0
91740,note_on,,1,0,10,,,,,,,,,,,,,,,,12,,64,72
91740,note_on,,0,0,12,,,,,,,,,,,,,,,,15,,64,72
91740,note_on,,1,0,5,,,,,,,,,,,,,,,,2,,61,72
91740,note_on,,1,0,12,,,,,,,,,,,,,,,,15,,61,72
91740,note_on,,1,0,11,,,,,,,,,,,,,,,,13,,61,72
91799,note_on,,239,0,6,,,,,,,,,,,,,,,,3,,81,0
91799,note_on,,59,0,11,,,,,,,,,,,,,,,,13,,61,0
91799,note_on,,0,0,12,,,,,,,,,,,,,,,,15,,64,0
91799,note_on,,59,0,10,,,,,,,,,,,,,,,,12,,64,0
91799,note_on,,239,0,9,,,,,,,,,,,,,,,,11,,69,0
91799,note_on,,239,0,8,,,,,,,,,,,,,,,,10,,81,0
91799,note_on,,59,0,5,,,,,,,,,,,,,,,,2,,61,0
91799,note_on,,59,0,12,,,,,,,,,,,,,,,,15,,61,0
91800,note_on,,1,0,8,,,,,,,,,,,,,,,,10,,79,72
91800,note_on,,1,0,10,,,,,,,,,,,,,,,,12,,62,72
91800,note_on,,1,0,6,,,,,,,,,,,,,,,,3,,79,64
91800,note_on,,1,0,12,,,,,,,,,,,,,,,,15,,62,72
91800,note_on,,0,0,12,,,,,,,,,,,,,,,,15,,59,72
91800,note_on,,1,0,5,,,,,,,,,,,,,,,,2,,59,72
91800,note_on,,1,0,9,,,,,,,,,,,,,,,,11,,69,72
91800,note_on,,1,0,11,,,,,,,,,,,,,,,,13,,59,72
91859,note_on,,59,0,5,,,,,,,,,,,,,,,,2,,59,0
91859,note_on,,59,0,12,,,,,,,,,,,,,,,,15,,62,0
91859,note_on,,0,0,12,,,,,,,,,,,,,,,,15,,59,0
91859,note_on,,59,0,10,,,,,,,,,,,,,,,,12,,62,0
91859,note_on,,59,0,11,,,,,,,,,,,,,,,,13,,59,0
91860,note_on,,1,0,10,,,,,,,,,,,,,,,,12,,61,72
91860,note_on,,1,0,11,,,,,,,,,,,,,,,,13,,57,72
91860,note_on,,0,0,12,,,,,,,,,,,,,,,,15,,57,72
91860,note_on,,1,0,12,,,,,,,,,,,,,,,,15,,61,72
91860,note_on,,1,0,5,,,,,,,,,,,,,,,,2,,57,72
91919,note_on,,119,0,8,,,,,,,,,,,,,,,,10,,79,0
91919,note_on,,119,0,9,,,,,,,,,,,,,,,,11,,69,0
91919,note_on,,59,0,10,,,,,,,,,,,,,,,,12,,61,0
91919,note_on,,59,0,11,,,,,,,,,,,,,,,,13,,57,0
91919,note_on,,59,0,12,,,,,,,,,,,,,,,,15,,69,0
91919,note_on,,0,0,12,,,,,,,,,,,,,,,,15,,61,0
91919,note_on,,0,0,12,,,,,,,,,,,,,,,,15,,57,0
91919,note_on,,119,0,6,,,,,,,,,,,,,,,,3,,79,0
91919,note_on,,59,0,5,,,,,,,,,,,,,,,,2,,57,0
91920,note_on,,1,0,6,,,,,,,,,,,,,,,,3,,78,64
91920,note_on,,1,0,9,,,,,,,,,,,,,,,,11,,69,72
91920,note_on,,1,0,11,,,,,,,,,,,,,,,,13,,62,72
91920,note_on,,1,0,12,,,,,,,,,,,,,,,,15,,62,72
91920,note_on,,1,0,10,,,,,,,,,,,,,,,,12,,62,72
91920,note_on,,1,0,5,,,,,,,,,,,,,,,,2,,62,72
91920,note_on,,0,0,12,,,,,,,,,,,,,,,,15,,66,72
91920,note_on,,1,0,8,,,,,,,,,,,,,,,,10,,78,72
91920,note_on,,0,0,12,,,,,,,,,,,,,,,,15,,69,72
91979,note_on,,59,0,8,,,,,,,,,,,,,,,,10,,78,0
91979,note_on,,59,0,6,,,,,,,,,,,,,,,,3,,78,0
91979,note_on,,59,0,9,,,,,,,,,,,,,,,,11,,69,0
91980,note_on,,1,0,8,,,,,,,,,,,,,,,,10,,76,72
91980,note_on,,1,0,6,,,,,,,,,,,,,,,,3,,76,64
91980,note_on,,1,0,9,,,,,,,,,,,,,,,,11,,67,72
92039,note_on,,59,0,8,,,,,,,,,,,,,,,,10,,76,0
92039,note_on,,59,0,6,,,,,,,,,,,,,,,,3,,76,0
92039,note_on,,59,0,9,,,,,,,,,,,,,,,,11,,67,0
92040,note_on,,1,0,6,,,,,,,,,,,,,,,,3,,74,64
92040,note_on,,1,0,9,,,,,,,,,,,,,,,,11,,66,72
92040,note_on,,1,0,8,,,,,,,,,,,,,,,,10,,74,72
92099,note_on,,59,0,8,,,,,,,,,,,,,,,,10,,74,0
92099,note_on,,59,0,6,,,,,,,,,,,,,,,,3,,74,0
92099,note_on,,59,0,9,,,,,,,,,,,,,,,,11,,66,0
92100,note_on,,1,0,6,,,,,,,,,,,,,,,,3,,78,64
92100,note_on,,1,0,8,,,,,,,,,,,,,,,,10,,78,72
92100,note_on,,1,0,9,,,,,,,,,,,,,,,,11,,74,72
92159,note_on,,239,0,12,,,,,,,,,,,,,,,,15,,62,0
92159,note_on,,59,0,6,,,,,,,,,,,,,,,,3,,78,0
92159,note_on,,0,0,12,,,,,,,,,,,,,,,,15,,66,0
92159,note_on,,0,0,12,,,,,,,,,,,,,,,,15,,69,0
92159,note_on,,239,0,5,,,,,,,,,,,,,,,,2,,62,0
92159,note_on,,59,0,9,,,,,,,,,,,,,,,,11,,74,0
92159,note_on,,59,0,8,,,,,,,,,,,,,,,,10,,78,0
92159,note_on,,239,0,10,,,,,,,,,,,,,,,,12,,62,0
92159,note_on,,239,0,11,,,,,,,,,,,,,,,,13,,62,0
92160,note_on,,1,0,8,,,,,,,,,,,,,,,,10,,76,72
92160,note_on,,1,0,10,,,,,,,,,,,,,,,,12,,62,72
92160,note_on,,1,0,12,,,,,,,,,,,,,,,,15,,69,72
92160,note_on,,0,0,12,,,,,,,,,,,,,,,,15,,74,72
92160,note_on,,0,0,12,,,,,,,,,,,,,,,,15,,62,72
92160,note_on,,0,0,12,,,,,,,,,,,,,,,,15,,66,72
92160,note_on,,1,0,6,,,,,,,,,,,,,,,,3,,76,64
92160,note_on,,1,0,11,,,,,,,,,,,,,,,,13,,62,72
92160,note_on,,1,0,5,,,,,,,,,,,,,,,,2,,62,72
92160,note_on,,1,0,9,,,,,,,,,,,,,,,,11,,73,72
92219,note_on,,59,0,8,,,,,,,,,,,,,,,,10,,76,0
92219,note_on,,59,0,6,,,,,,,,,,,,,,,,3,,76,0
92219,note_on,,59,0,9,,,,,,,,,,,,,,,,11,,73,0
92220,note_on,,1,0,9,,,,,,,,,,,,,,,,11,,71,72
92220,note_on,,1,0,6,,,,,,,,,,,,,,,,3,,74,64
92220,note_on,,1,0,8,,,,,,,,,,,,,,,,10,,74,72
92279,note_on,,119,0,10,,,,,,,,,,,,,,,,12,,62,0
92279,note_on,,119,0,5,,,,,,,,,,,,,,,,2,,62,0
92279,note_on,,59,0,8,,,,,,,,,,,,,,,,10,,74,0
92279,note_on,,59,0,9,,,,,,,,,,,,,,,,11,,71,0
92279,note_on,,59,0,6,,,,,,,,,,,,,,,,3,,74,0
92279,note_on,,119,0,11,,,,,,,,,,,,,,,,13,,62,0
92279,note_on,,0,0,12,,,,,,,,,,,,,,,,15,,66,0
92279,note_on,,0,0,12,,,,,,,,,,,,,,,,15,,62,0
92279,note_on,,0,0,12,,,,,,,,,,,,,,,,15,,74,0
92279,note_on,,119,0,12,,,,,,,,,,,,,,,,15,,69,0
92280,note_on,,0,0,12,,,,,,,,,,,,,,,,15,,61,72
92280,note_on,,0,0,12,,,,,,,,,,,,,,,,15,,69,72
92280,note_on,,1,0,8,,,,,,,,,,,,,,,,10,,76,72
92280,note_on,,1,0,5,,,,,,,,,,,,,,,,2,,61,72
92280,note_on,,1,0,9,,,,,,,,,,,,,,,,11,,76,72
92280,note_on,,1,0,6,,,,,,,,,,,,,,,,3,,76,64
92280,note_on,,1,0,10,,,,,,,,,,,,,,,,12,,69,72
92280,note_on,,1,0,12,,,,,,,,,,,,,,,,15,,64,72
92280,note_on,,1,0,11,,,,,,,,,,,,,,,,13,,61,72
92339,note_on,,59,0,5,,,,,,,,,,,,,,,,2,,61,0
92339,note_on,,59,0,11,,,,,,,,,,,,,,,,13,,61,0
92339,note_on,,59,0,9,,,,,,,,,,,,,,,,11,,76,0
92339,note_on,,59,0,12,,,,,,,,,,,,,,,,15,,61,0
92340,note_on,,1,0,5,,,,,,,,,,,,,,,,2,,59,72
92340,note_on,,1,0,11,,,,,,,,,,,,,,,,13,,59,72
92340,note_on,,1,0,9,,,,,,,,,,,,,,,,11,,74,72
92340,note_on,,1,0,12,,,,,,,,,,,,,,,,15,,59,72
92399,note_on,,59,0,9,,,,,,,,,,,,,,,,11,,74,0
92399,note_on,,59,0,5,,,,,,,,,,,,,,,,2,,59,0
92399,note_on,,59,0,11,,,,,,,,,,,,,,,,13,,59,0
92399,note_on,,59,0,12,,,,,,,,,,,,,,,,15,,59,0
92400,note_on,,1,0,11,,,,,,,,,,,,,,,,13,,57,72
92400,note_on,,1,0,12,,,,,,,,,,,,,,,,15,,57,72
92400,note_on,,1,0,5,,,,,,,,,,,,,,,,2,,57,72
92400,note_on,,1,0,9,,,,,,,,,,,,,,,,11,,73,72
92459,note_on,,59,0,12,,,,,,,,,,,,,,,,15,,57,0
92459,note_on,,59,0,5,,,,,,,,,,,,,,,,2,,57,0
92459,note_on,,59,0,9,,,,,,,,,,,,,,,,11,,73,0
92459,note_on,,59,0,11,,,,,,,,,,,,,,,,13,,57,0
92460,note_on,,1,0,12,,,,,,,,,,,,,,,,15,,61,72
92460,note_on,,1,0,11,,,,,,,,,,,,,,,,13,,61,72
92460,note_on,,1,0,9,,,,,,,,,,,,,,,,11,,76,72
92460,note_on,,1,0,5,,,,,,,,,,,,,,,,2,,61,72
92519,note_on,,59,0,12,,,,,,,,,,,,,,,,15,,61,0
92519,note_on,,239,0,10,,,,,,,,,,,,,,,,12,,69,0
92519,note_on,,239,0,8,,,,,,,,,,,,,,,,10,,76,0
92519,note_on,,59,0,5,,,,,,,,,,,,,,,,2,,61,0
92519,note_on,,239,0,6,,,,,,,,,,,,,,,,3,,76,0
92519,note_on,,59,0,9,,,,,,,,,,,,,,,,11,,76,0
92519,note_on,,59,0,11,,,,,,,,,,,,,,,,13,,61,0
92520,note_on,,1,0,8,,,,,,,,,,,,,,,,10,,81,72
92520,note_on,,1,0,6,,,,,,,,,,,,,,,,3,,81,64
92520,note_on,,1,0,11,,,,,,,,,,,,,,,,13,,59,72
92520,note_on,,1,0,12,,,,,,,,,,,,,,,,15,,59,72
92520,note_on,,1,0,9,,,,,,,,,,,,,,,,11,,74,72
92520,note_on,,1,0,5,,,,,,,,,,,,,,,,2,,59,72
92520,note_on,,1,0,10,,,,,,,,,,,,,,,,12,,64,72
92579,note_on,,59,0,11,,,,,,,,,,,,,,,,13,,59,0
92579,note_on,,59,0,12,,,,,,,,,,,,,,,,15,,59,0
92579,note_on,,59,0,9,,,,,,,,,,,,,,,,11,,74,0
92579,note_on,,59,0,5,,,,,,,,,,,,,,,,2,,59,0
92580,note_on,,1,0,5,,,,,,,,,,,,,,,,2,,57,72
92580,note_on,,1,0,11,,,,,,,,,,,,,,,,13,,57,72
92580,note_on,,1,0,12,,,,,,,,,,,,,,,,15,,57,72
92580,note_on,,1,0,9,,,,,,,,,,,,,,,,11,,73,72
92639,note_on,,59,0,9,,,,,,,,,,,,,,,,11,,73,0
92639,note_on,,119,0,8,,,,,,,,,,,,,,,,10,,81,0
92639,note_on,,59,0,5,,,,,,,,,,,,,,,,2,,57,0
92639,note_on,,0,0,12,,,,,,,,,,,,,,,,15,,57,0
92639,note_on,,0,0,12,,,,,,,,,,,,,,,,15,,69,0
92639,note_on,,59,0,12,,,,,,,,,,,,,,,,15,,64,0
92639,note_on,,59,0,11,,,,,,,,,,,,,,,,13,,57,0
92639,note_on,,119,0,6,,,,,,,,,,,,,,,,3,,81,0
92639,note_on,,119,0,10,,,,,,,,,,,,,,,,12,,64,0
92640,note_on,,0,0,12,,,,,,,,,,,,,,,,15,,74,72
92640,note_on,,0,0,12,,,,,,,,,,,,,,,,15,,59,72
92640,note_on,,0,0,12,,,,,,,,,,,,,,,,15,,62,72
92640,note_on,,1,0,12,,,,,,,,,,,,,,,,15,,68,72
92640,note_on,,1,0,9,,,,,,,,,,,,,,,,11,,71,72
92640,note_on,,1,0,5,,,,,,,,,,,,,,,,2,,59,72
92640,note_on,,1,0,6,,,,,,,,,,,,,,,,3,,80,64
92640,note_on,,1,0,11,,,,,,,,,,,,,,,,13,,59,72
92640,note_on,,1,0,8,,,,,,,,,,,,,,,,10,,80,72
92640,note_on,,1,0,10,,,,,,,,,,,,,,,,12,,62,72
92699,note_on,,59,0,6,,,,,,,,,,,,,,,,3,,80,0
92699,note_on,,59,0,8,,,,,,,,,,,,,,,,10,,80,0
92700,note_on,,1,0,8,,,,,,,,,,,,,,,,10,,78,72
92700,note_on,,1,0,6,,,,,,,,,,,,,,,,3,,78,64
92759,note_on,,59,0,8,,,,,,,,,,,,,,,,10,,78,0
92759,note_on,,59,0,6,,,,,,,,,,,,,,,,3,,78,0
92760,note_on,,1,0,6,,,,,,,,,,,,,,,,3,,76,64
92760,note_on,,1,0,8,,,,,,,,,,,,,,,,10,,76,72
92819,note_on,,59,0,6,,,,,,,,,,,,,,,,3,,76,0
92819,note_on,,59,0,8,,,,,,,,,,,,,,,,10,,76,0
92820,note_on,,1,0,8,,,,,,,,,,,,,,,,10,,80,72
92820,note_on,,1,0,6,,,,,,,,,,,,,,,,3,,80,64
92879,note_on,,0,0,12,,,,,,,,,,,,,,,,15,,62,0
92879,note_on,,59,0,6,,,,,,,,,,,,,,,,3,,80,0
92879,note_on,,0,0,12,,,,,,,,,,,,,,,,15,,74,0
92879,note_on,,239,0,12,,,,,,,,,,,,,,,,15,,68,0
92879,note_on,,59,0,8,,,,,,,,,,,,,,,,10,,80,0
92879,note_on,,239,0,10,,,,,,,,,,,,,,,,12,,62,0
92879,note_on,,239,0,11,,,,,,,,,,,,,,,,13,,59,0
92879,note_on,,239,0,5,,,,,,,,,,,,,,,,2,,59,0
92879,note_on,,239,0,9,,,,,,,,,,,,,,,,11,,71,0
92879,note_on,,0,0,12,,,,,,,,,,,,,,,,15,,59,0
92880,note_on,,1,0,12,,,,,,,,,,,,,,,,15,,62,72
92880,note_on,,0,0,12,,,,,,,,,,,,,,,,15,,71,72
92880,note_on,,1,0,6,,,,,,,,,,,,,,,,3,,78,64
92880,note_on,,1,0,10,,,,,,,,,,,,,,,,12,,62,72
92880,note_on,,1,0,11,,,,,,,,,,,,,,,,13,,62,72
92880,note_on,,1,0,5,,,,,,,,,,,,,,,,2,,62,72
92880,note_on,,1,0,9,,,,,,,,,,,,,,,,11,,71,72
92880,note_on,,1,0,8,,,,,,,,,,,,,,,,10,,78,72
92880,note_on,,0,0,12,,,,,,,,,,,,,,,,15,,68,72
92939,note_on,,59,0,8,,,,,,,,,,,,,,,,10,,78,0
92939,note_on,,59,0,6,,,,,,,,,,,,,,,,3,,78,0
92940,note_on,,1,0,6,,,,,,,,,,,,,,,,3,,76,64
92940,note_on,,1,0,8,,,,,,,,,,,,,,,,10,,76,72
92999,note_on,,119,0,12,,,,,,,,,,,,,,,,15,,62,0
92999,note_on,,0,0,12,,,,,,,,,,,,,,,,15,,68,0
92999,note_on,,59,0,6,,,,,,,,,,,,,,,,3,,76,0
92999,note_on,,119,0,5,,,,,,,,,,,,,,,,2,,62,0
92999,note_on,,119,0,9,,,,,,,,,,,,,,,,11,,71,0
92999,note_on,,119,0,10,,,,,,,,,,,,,,,,12,,62,0
92999,note_on,,119,0,11,,,,,,,,,,,,,,,,13,,62,0
92999,note_on,,0,0,12,,,,,,,,,,,,,,,,15,,71,0
92999,note_on,,59,0,8,,,,,,,,,,,,,,,,10,,76,0
93000,note_on,,0,0,12,,,,,,,,,,,,,,,,15,,76,72
93000,note_on,,1,0,11,,,,,,,,,,,,,,,,13,,61,72
93000,note_on,,1,0,10,,,,,,,,,,,,,,,,12,,64,72
93000,note_on,,0,0,12,,,,,,,,,,,,,,,,15,,64,72
93000,note_on,,1,0,12,,,,,,,,,,,,,,,,15,,61,72
93000,note_on,,1,0,9,,,,,,,,,,,,,,,,11,,69,72
93000,note_on,,0,0,12,,,,,,,,,,,,,,,,15,,69,72
93000,note_on,,1,0,8,,,,,,,,,,,,,,,,10,,81,72
93000,note_on,,1,0,6,,,,,,,,,,,,,,,,3,,81,64
93000,note_on,,1,0,5,,,,,,,,,,,,,,,,2,,61,72
93119,note_on,,119,0,12,,,,,,,,,,,,,,,,15,,61,0
93119,note_on,,119,0,11,,,,,,,,,,,,,,,,13,,61,0
93119,note_on,,119,0,8,,,,,,,,,,,,,,,,10,,81,0
93119,note_on,,119,0,5,,,,,,,,,,,,,,,,2,,61,0
93119,note_on,,119,0,9,,,,,,,,,,,,,,,,11,,69,0
93119,note_on,,0,0,12,,,,,,,,,,,,,,,,15,,69,0
93119,note_on,,0,0,12,,,,,,,,,,,,,,,,15,,76,0
93119,note_on,,0,0,12,,,,,,,,,,,,,,,,15,,64,0
93119,note_on,,119,0,6,,,,,,,,,,,,,,,,3,,81,0
93119,note_on,,119,0,10,,,,,,,,,,,,,,,,12,,64,0
93120,note_on,,1,0,8,,,,,,,,,,,,,,,,10,,86,72
93179,note_on,,59,0,8,,,,,,,,,,,,,,,,10,,86,0
93180,note_on,,1,0,8,,,,,,,,,,,,,,,,10,,83,72
93239,note_on,,59,0,8,,,,,,,,,,,,,,,,10,,83,0
93240,note_on,,1,0,8,,,,,,,,,,,,,,,,10,,81,72
93240,note_on,,121,0,10,,,,,,,,,,,,,,,,12,,62,72
93240,note_on,,121,0,12,,,,,,,,,,,,,,,,15,,62,72
93240,note_on,,121,0,5,,,,,,,,,,,,,,,,2,,59,72
93240,note_on,,0,0,12,,,,,,,,,,,,,,,,15,,71,72
93240,note_on,,121,0,11,,,,,,,,,,,,,,,,13,,59,72
93240,note_on,,121,0,9,,,,,,,,,,,,,,,,11,,71,72
93240,note_on,,0,0,12,,,,,,,,,,,,,,,,15,,59,72
93254,note_on,,14,0,8,,,,,,,,,,,,,,,,10,,81,0
93255,note_on,,1,0,8,,,,,,,,,,,,,,,,10,,83,72
93269,note_on,,14,0,8,,,,,,,,,,,,,,,,10,,83,0
93270,note_on,,1,0,8,,,,,,,,,,,,,,,,10,,81,72
93284,note_on,,14,0,8,,,,,,,,,,,,,,,,10,,81,0
93285,note_on,,1,0,8,,,,,,,,,,,,,,,,10,,83,72
93299,note_on,,14,0,8,,,,,,,,,,,,,,,,10,,83,0
93300,note_on,,1,0,8,,,,,,,,,,,,,,,,10,,80,72
93314,note_on,,14,0,8,,,,,,,,,,,,,,,,10,,80,0
93315,note_on,,1,0,8,,,,,,,,,,,,,,,,10,,81,72
93329,note_on,,14,0,8,,,,,,,,,,,,,,,,10,,81,0
93330,note_on,,1,0,8,,,,,,,,,,,,,,,,10,,80,72
93359,note_on,,119,0,5,,,,,,,,,,,,,,,,2,,59,0
93359,note_on,,29,0,8,,,,,,,,,,,,,,,,10,,80,0
93359,note_on,,119,0,11,,,,,,,,,,,,,,,,13,,59,0
93359,note_on,,119,0,10,,,,,,,,,,,,,,,,12,,62,0
93359,note_on,,119,0,12,,,,,,,,,,,,,,,,15,,62,0
93359,note_on,,0,0,12,,,,,,,,,,,,,,,,15,,59,0
93359,note_on,,0,0,12,,,,,,,,,,,,,,,,15,,71,0
93359,note_on,,119,0,9,,,,,,,,,,,,,,,,11,,71,0
93360,note_on,,1,0,10,,,,,,,,,,,,,,,,12,,64,72
93360,note_on,,1,0,9,,,,,,,,,,,,,,,,11,,69,72
93360,note_on,,1,0,11,,,,,,,,,,,,,,,,13,,61,72
93360,note_on,,1,0,8,,,,,,,,,,,,,,,,10,,81,72
93360,note_on,,241,0,6,,,,,,,,,,,,,,,,3,,81,64
93360,note_on,,1,0,5,,,,,,,,,,,,,,,,2,,61,72
93360,note_on,,0,0,12,,,,,,,,,,,,,,,,15,,76,72
93360,note_on,,0,0,12,,,,,,,,,,,,,,,,15,,64,72
93360,note_on,,1,0,12,,,,,,,,,,,,,,,,15,,69,72
93360,note_on,,0,0,12,,,,,,,,,,,,,,,,15,,61,72
93479,note_on,,119,0,6,,,,,,,,,,,,,,,,3,,81,0
93479,note_on,,119,0,11,,,,,,,,,,,,,,,,13,,61,0
93479,note_on,,0,0,12,,,,,,,,,,,,,,,,15,,61,0
93479,note_on,,0,0,12,,,,,,,,,,,,,,,,15,,76,0
93479,note_on,,119,0,9,,,,,,,,,,,,,,,,11,,69,0
93479,note_on,,119,0,12,,,,,,,,,,,,,,,,15,,69,0
93479,note_on,,119,0,10,,,,,,,,,,,,,,,,12,,64,0
93479,note_on,,119,0,8,,,,,,,,,,,,,,,,10,,81,0
93479,note_on,,119,0,5,,,,,,,,,,,,,,,,2,,61,0
93479,note_on,,0,0,12,,,,,,,,,,,,,,,,15,,64,0
93480,note_on,,1,0,8,,,,,,,,,,,,,,,,10,,86,72
93539,note_on,,59,0,8,,,,,,,,,,,,,,,,10,,86,0
93540,note_on,,1,0,8,,,,,,,,,,,,,,,,10,,83,72
93599,note_on,,59,0,8,,,,,,,,,,,,,,,,10,,83,0
93600,note_on,,1,0,8,,,,,,,,,,,,,,,,10,,81,72
93600,note_on,,121,0,12,,,,,,,,,,,,,,,,15,,62,72
93600,note_on,,0,0,12,,,,,,,,,,,,,,,,15,,59,72
93600,note_on,,121,0,11,,,,,,,,,,,,,,,,13,,59,72
93600,note_on,,0,0,12,,,,,,,,,,,,,,,,15,,71,72
93600,note_on,,121,0,10,,,,,,,,,,,,,,,,12,,62,72
93600,note_on,,121,0,5,,,,,,,,,,,,,,,,2,,59,72
93600,note_on,,121,0,9,,,,,,,,,,,,,,,,11,,71,72
93614,note_on,,14,0,8,,,,,,,,,,,,,,,,10,,81,0
93615,note_on,,1,0,8,,,,,,,,,,,,,,,,10,,83,72
93629,note_on,,14,0,8,,,,,,,,,,,,,,,,10,,83,0
93630,note_on,,1,0,8,,,,,,,,,,,,,,,,10,,81,72
93644,note_on,,14,0,8,,,,,,,,,,,,,,,,10,,81,0
93645,note_on,,1,0,8,,,,,,,,,,,,,,,,10,,83,72
93659,note_on,,14,0,8,,,,,,,,,,,,,,,,10,,83,0
93660,note_on,,1,0,8,,,,,,,,,,,,,,,,10,,80,72
93674,note_on,,14,0,8,,,,,,,,,,,,,,,,10,,80,0
93675,note_on,,1,0,8,,,,,,,,,,,,,,,,10,,81,72
93689,note_on,,14,0,8,,,,,,,,,,,,,,,,10,,81,0
93690,note_on,,1,0,8,,,,,,,,,,,,,,,,10,,80,72
93719,note_on,,119,0,9,,,,,,,,,,,,,,,,11,,71,0
93719,note_on,,119,0,11,,,,,,,,,,,,,,,,13,,59,0
93719,note_on,,0,0,12,,,,,,,,,,,,,,,,15,,59,0
93719,note_on,,29,0,8,,,,,,,,,,,,,,,,10,,80,0
93719,note_on,,0,0,12,,,,,,,,,,,,,,,,15,,71,0
93719,note_on,,119,0,12,,,,,,,,,,,,,,,,15,,62,0
93719,note_on,,119,0,5,,,,,,,,,,,,,,,,2,,59,0
93719,note_on,,119,0,10,,,,,,,,,,,,,,,,12,,62,0
93720,note_on,,1,0,8,,,,,,,,,,,,,,,,10,,81,72
93720,note_on,,1,0,10,,,,,,,,,,,,,,,,12,,64,72
93720,note_on,,0,0,12,,,,,,,,,,,,,,,,15,,64,72
93720,note_on,,0,0,12,,,,,,,,,,,,,,,,15,,76,72
93720,note_on,,1,0,12,,,,,,,,,,,,,,,,15,,61,72
93720,note_on,,1,0,5,,,,,,,,,,,,,,,,2,,61,72
93720,note_on,,241,0,6,,,,,,,,,,,,,,,,3,,81,64
93720,note_on,,1,0,9,,,,,,,,,,,,,,,,11,,69,72
93720,note_on,,0,0,12,,,,,,,,,,,,,,,,15,,69,72
93720,note_on,,1,0,11,,,,,,,,,,,,,,,,13,,61,72
93839,note_on,,0,0,12,,,,,,,,,,,,,,,,15,,69,0
93839,note_on,,0,0,12,,,,,,,,,,,,,,,,15,,76,0
93839,note_on,,119,0,5,,,,,,,,,,,,,,,,2,,61,0
93839,note_on,,119,0,12,,,,,,,,,,,,,,,,15,,61,0
93839,note_on,,0,0,12,,,,,,,,,,,,,,,,15,,64,0
93839,note_on,,119,0,8,,,,,,,,,,,,,,,,10,,81,0
93839,note_on,,119,0,11,,,,,,,,,,,,,,,,13,,61,0
93839,note_on,,119,0,6,,,,,,,,,,,,,,,,3,,81,0
93839,note_on,,119,0,10,,,,,,,,,,,,,,,,12,,64,0
93839,note_on,,119,0,9,,,,,,,,,,,,,,,,11,,69,0
93840,note_on,,1,0,8,,,,,,,,,,,,,,,,10,,86,72
93899,note_on,,59,0,8,,,,,,,,,,,,,,,,10,,86,0
93900,note_on,,1,0,8,,,,,,,,,,,,,,,,10,,83,72
93959,note_on,,59,0,8,,,,,,,,,,,,,,,,10,,83,0
93960,note_on,,121,0,12,,,,,,,,,,,,,,,,15,,62,72
93960,note_on,,0,0,12,,,,,,,,,,,,,,,,15,,59,72
93960,note_on,,0,0,12,,,,,,,,,,,,,,,,15,,71,72
93960,note_on,,121,0,10,,,,,,,,,,,,,,,,12,,62,72
93960,note_on,,121,0,9,,,,,,,,,,,,,,,,11,,71,72
93960,note_on,,121,0,5,,,,,,,,,,,,,,,,2,,59,72
93960,note_on,,1,0,8,,,,,,,,,,,,,,,,10,,81,72
93960,note_on,,121,0,11,,,,,,,,,,,,,,,,13,,59,72
93974,note_on,,14,0,8,,,,,,,,,,,,,,,,10,,81,0
93975,note_on,,1,0,8,,,,,,,,,,,,,,,,10,,83,72
93989,note_on,,14,0,8,,,,,,,,,,,,,,,,10,,83,0
93990,note_on,,1,0,8,,,,,,,,,,,,,,,,10,,81,72
94004,note_on,,14,0,8,,,,,,,,,,,,,,,,10,,81,0
94005,note_on,,1,0,8,,,,,,,,,,,,,,,,10,,83,72
94019,note_on,,14,0,8,,,,,,,,,,,,,,,,10,,83,0
94020,note_on,,1,0,8,,,,,,,,,,,,,,,,10,,80,72
94034,note_on,,14,0,8,,,,,,,,,,,,,,,,10,,80,0
94035,note_on,,1,0,8,,,,,,,,,,,,,,,,10,,81,72
94049,note_on,,14,0,8,,,,,,,,,,,,,,,,10,,81,0
94050,note_on,,1,0,8,,,,,,,,,,,,,,,,10,,80,72
94079,note_on,,119,0,5,,,,,,,,,,,,,,,,2,,59,0
94079,note_on,,119,0,12,,,,,,,,,,,,,,,,15,,62,0
94079,note_on,,0,0,12,,,,,,,,,,,,,,,,15,,59,0
94079,note_on,,0,0,12,,,,,,,,,,,,,,,,15,,71,0
94079,note_on,,119,0,9,,,,,,,,,,,,,,,,11,,71,0
94079,note_on,,119,0,11,,,,,,,,,,,,,,,,13,,59,0
94079,note_on,,29,0,8,,,,,,,,,,,,,,,,10,,80,0
94079,note_on,,119,0,10,,,,,,,,,,,,,,,,12,,62,0
94080,note_on,,1,0,12,,,,,,,,,,,,,,,,15,,61,72
94080,note_on,,0,0,12,,,,,,,,,,,,,,,,15,,64,72
94080,note_on,,0,0,12,,,,,,,,,,,,,,,,15,,69,72
94080,note_on,,1,0,11,,,,,,,,,,,,,,,,13,,61,72
94080,note_on,,1,0,5,,,,,,,,,,,,,,,,2,,61,72
94080,note_on,,0,0,12,,,,,,,,,,,,,,,,15,,76,72
94080,note_on,,1,0,9,,,,,,,,,,,,,,,,11,,69,72
94080,note_on,,241,0,6,,,,,,,,,,,,,,,,3,,81,64
94080,note_on,,1,0,8,,,,,,,,,,,,,,,,10,,81,72
94080,note_on,,1,0,10,,,,,,,,,,,,,,,,12,,64,72
94199,note_on,,119,0,8,,,,,,,,,,,,,,,,10,,81,0
94199,note_on,,0,0,12,,,,,,,,,,,,,,,,15,,76,0
94199,note_on,,0,0,12,,,,,,,,,,,,,,,,15,,69,0
94199,note_on,,0,0,12,,,,,,,,,,,,,,,,15,,64,0
94199,note_on,,119,0,12,,,,,,,,,,,,,,,,15,,61,0
94199,note_on,,119,0,9,,,,,,,,,,,,,,,,11,,69,0
94199,note_on,,119,0,5,,,,,,,,,,,,,,,,2,,61,0
94199,note_on,,119,0,6,,,,,,,,,,,,,,,,3,,81,0
94199,note_on,,119,0,10,,,,,,,,,,,,,,,,12,,64,0
94199,note_on,,119,0,11,,,,,,,,,,,,,,,,13,,61,0
94200,note_on,,1,0,8,,,,,,,,,,,,,,,,10,,86,72
94259,note_on,,59,0,8,,,,,,,,,,,,,,,,10,,86,0
94260,note_on,,1,0,8,,,,,,,,,,,,,,,,10,,83,72
94319,note_on,,59,0,8,,,,,,,,,,,,,,,,10,,83,0
94320,note_on,,121,0,12,,,,,,,,,,,,,,,,15,,59,72
94320,note_on,,0,0,12,,,,,,,,,,,,,,,,15,,62,72
94320,note_on,,0,0,12,,,,,,,,,,,,,,,,15,,71,72
94320,note_on,,121,0,9,,,,,,,,,,,,,,,,11,,71,72
94320,note_on,,121,0,5,,,,,,,,,,,,,,,,2,,59,72
94320,note_on,,121,0,10,,,,,,,,,,,,,,,,12,,62,72
94320,note_on,,1,0,8,,,,,,,,,,,,,,,,10,,81,72
94320,note_on,,121,0,11,,,,,,,,,,,,,,,,13,,59,72
94334,note_on,,14,0,8,,,,,,,,,,,,,,,,10,,81,0
94335,note_on,,1,0,8,,,,,,,,,,,,,,,,10,,83,72
94349,note_on,,14,0,8,,,,,,,,,,,,,,,,10,,83,0
94350,note_on,,1,0,8,,,,,,,,,,,,,,,,10,,81,72
94364,note_on,,14,0,8,,,,,,,,,,,,,,,,10,,81,0
94365,note_on,,1,0,8,,,,,,,,,,,,,,,,10,,83,72
94379,note_on,,14,0,8,,,,,,,,,,,,,,,,10,,83,0
94380,note_on,,1,0,8,,,,,,,,,,,,,,,,10,,80,72
94394,note_on,,14,0,8,,,,,,,,,,,,,,,,10,,80,0
94395,note_on,,1,0,8,,,,,,,,,,,,,,,,10,,81,72
94409,note_on,,14,0,8,,,,,,,,,,,,,,,,10,,81,0
94410,note_on,,1,0,8,,,,,,,,,,,,,,,,10,,80,72
94439,note_on,,29,0,8,,,,,,,,,,,,,,,,10,,80,0
94439,note_on,,119,0,12,,,,,,,,,,,,,,,,15,,59,0
94439,note_on,,119,0,10,,,,,,,,,,,,,,,,12,,62,0
94439,note_on,,119,0,11,,,,,,,,,,,,,,,,13,,59,0
94439,note_on,,0,0,12,,,,,,,,,,,,,,,,15,,62,0
94439,note_on,,119,0,5,,,,,,,,,,,,,,,,2,,59,0
94439,note_on,,0,0,12,,,,,,,,,,,,,,,,15,,71,0
94439,note_on,,119,0,9,,,,,,,,,,,,,,,,11,,71,0
94440,note_on,,1,0,8,,,,,,,,,,,,,,,,10,,81,72
94440,note_on,,1,0,12,,,,,,,,,,,,,,,,15,,61,72
94440,note_on,,241,0,6,,,,,,,,,,,,,,,,3,,81,64
94440,note_on,,1,0,5,,,,,,,,,,,,,,,,2,,61,72
94440,note_on,,0,0,12,,,,,,,,,,,,,,,,15,,69,72
94440,note_on,,0,0,12,,,,,,,,,,,,,,,,15,,76,72
94440,note_on,,0,0,12,,,,,,,,,,,,,,,,15,,64,72
94440,note_on,,1,0,10,,,,,,,,,,,,,,,,12,,64,72
94440,note_on,,1,0,9,,,,,,,,,,,,,,,,11,,69,72
94440,note_on,,1,0,11,,,,,,,,,,,,,,,,13,,61,72
94559,note_on,,119,0,12,,,,,,,,,,,,,,,,15,,61,0
94559,note_on,,119,0,9,,,,,,,,,,,,,,,,11,,69,0
94559,note_on,,0,0,12,,,,,,,,,,,,,,,,15,,76,0
94559,note_on,,119,0,10,,,,,,,,,,,,,,,,12,,64,0
94559,note_on,,0,0,12,,,,,,,,,,,,,,,,15,,64,0
94559,note_on,,119,0,5,,,,,,,,,,,,,,,,2,,61,0
94559,note_on,,119,0,8,,,,,,,,,,,,,,,,10,,81,0
94559,note_on,,119,0,11,,,,,,,,,,,,,,,,13,,61,0
94559,note_on,,0,0,12,,,,,,,,,,,,,,,,15,,69,0
94560,note_on,,1,0,5,,,,,,,,,,,,,,,,2,,57,72
94560,note_on,,1,0,11,,,,,,,,,,,,,,,,13,,57,72
94560,note_on,,0,0,12,,,,,,,,,,,,,,,,15,,69,72
94560,note_on,,1,0,12,,,,,,,,,,,,,,,,15,,73,72
94560,note_on,,0,0,12,,,,,,,,,,,,,,,,15,,64,72
94560,note_on,,0,0,12,,,,,,,,,,,,,,,,15,,57,72
94679,note_on,,119,0,12,,,,,,,,,,,,,,,,15,,73,0
94679,note_on,,119,0,5,,,,,,,,,,,,,,,,2,,57,0
94679,note_on,,119,0,11,,,,,,,,,,,,,,,,13,,57,0
94679,note_on,,0,0,12,,,,,,,,,,,,,,,,15,,64,0
94679,note_on,,0,0,12,,,,,,,,,,,,,,,,15,,69,0
94679,note_on,,0,0,12,,,,,,,,,,,,,,,,15,,57,0
94680,note_on,,1,0,5,,,,,,,,,,,,,,,,2,,57,48
94680,note_on,,0,0,12,,,,,,,,,,,,,,,,15,,57,48
94680,note_on,,0,0,12,,,,,,,,,,,,,,,,15,,73,48
94680,note_on,,1,0,12,,,,,,,,,,,,,,,,15,,69,48
94680,note_on,,0,0,12,,,,,,,,,,,,,,,,15,,76,48
94680,note_on,,1,0,11,,,,,,,,,,,,,,,,13,,57,48
94680,note_on,,3481,0,7,,,,,,,,,,,,,,,,8,,57,72
94799,note_on,,119,0,5,,,,,,,,,,,,,,,,2,,57,0
94799,note_on,,119,0,11,,,,,,,,,,,,,,,,13,,57,0
94799,note_on,,119,0,12,,,,,,,,,,,,,,,,15,,69,0
94799,note_on,,0,0,12,,,,,,,,,,,,,,,,15,,76,0
94799,note_on,,0,0,12,,,,,,,,,,,,,,,,15,,73,0
94799,note_on,,0,0,12,,,,,,,,,,,,,,,,15,,57,0
94799,note_on,,119,0,7,,,,,,,,,,,,,,,,8,,57,0
94800,note_on,,1,0,12,,,,,,,,,,,,,,,,15,,78,48
94800,note_on,,0,0,12,,,,,,,,,,,,,,,,15,,62,48
94800,note_on,,0,0,12,,,,,,,,,,,,,,,,15,,69,48
94800,note_on,,0,0,12,,,,,,,,,,,,,,,,15,,74,48
94800,note_on,,1,0,11,,,,,,,,,,,,,,,,13,,62,48
94800,note_on,,1,0,5,,,,,,,,,,,,,,,,2,,62,48
94800,note_on,,1,0,7,,,,,,,,,,,,,,,,8,,62,72
94919,note_on,,119,0,12,,,,,,,,,,,,,,,,15,,62,0
94919,note_on,,119,0,11,,,,,,,,,,,,,,,,13,,62,0
94919,note_on,,119,0,7,,,,,,,,,,,,,,,,8,,62,0
94919,note_on,,119,0,5,,,,,,,,,,,,,,,,2,,62,0
94920,note_on,,1,0,12,,,,,,,,,,,,,,,,15,,50,48
94920,note_on,,1,0,7,,,,,,,,,,,,,,,,8,,50,72
94920,note_on,,1,0,11,,,,,,,,,,,,,,,,13,,50,48
94920,note_on,,1,0,5,,,,,,,,,,,,,,,,2,,50,48
94979,note_on,,59,0,5,,,,,,,,,,,,,,,,2,,50,0
94979,note_on,,59,0,12,,,,,,,,,,,,,,,,15,,50,0
94979,note_on,,59,0,11,,,,,,,,,,,,,,,,13,,50,0
94979,note_on,,59,0,7,,,,,,,,,,,,,,,,8,,50,0
94980,note_on,,1,0,5,,,,,,,,,,,,,,,,2,,52,48
94980,note_on,,1,0,7,,,,,,,,,,,,,,,,8,,52,72
94980,note_on,,1,0,12,,,,,,,,,,,,,,,,15,,52,48
94980,note_on,,1,0,11,,,,,,,,,,,,,,,,13,,52,48
95039,note_on,,59,0,5,,,,,,,,,,,,,,,,2,,52,0
95039,note_on,,59,0,7,,,,,,,,,,,,,,,,8,,52,0
95039,note_on,,59,0,12,,,,,,,,,,,,,,,,15,,52,0
95039,note_on,,59,0,11,,,,,,,,,,,,,,,,13,,52,0
95040,note_on,,1,0,12,,,,,,,,,,,,,,,,15,,54,48
95040,note_on,,1,0,7,,,,,,,,,,,,,,,,8,,54,72
95040,note_on,,1,0,5,,,,,,,,,,,,,,,,2,,54,48
95040,note_on,,1,0,11,,,,,,,,,,,,,,,,13,,54,48
95099,note_on,,59,0,11,,,,,,,,,,,,,,,,13,,54,0
95099,note_on,,59,0,7,,,,,,,,,,,,,,,,8,,54,0
95099,note_on,,59,0,5,,,,,,,,,,,,,,,,2,,54,0
95099,note_on,,59,0,12,,,,,,,,,,,,,,,,15,,54,0
95100,note_on,,1,0,7,,,,,,,,,,,,,,,,8,,55,72
95100,note_on,,1,0,5,,,,,,,,,,,,,,,,2,,55,48
95100,note_on,,1,0,12,,,,,,,,,,,,,,,,15,,55,48
95100,note_on,,1,0,11,,,,,,,,,,,,,,,,13,,55,48
95159,note_on,,59,0,7,,,,,,,,,,,,,,,,8,,55,0
95159,note_on,,59,0,5,,,,,,,,,,,,,,,,2,,55,0
95159,note_on,,59,0,11,,,,,,,,,,,,,,,,13,,55,0
95159,note_on,,0,0,12,,,,,,,,,,,,,,,,15,,74,0
95159,note_on,,0,0,12,,,,,,,,,,,,,,,,15,,55,0
95159,note_on,,0,0,12,,,,,,,,,,,,,,,,15,,69,0
95159,note_on,,59,0,12,,,,,,,,,,,,,,,,15,,78,0
95160,note_on,,0,0,12,,,,,,,,,,,,,,,,15,,64,48
95160,note_on,,1,0,7,,,,,,,,,,,,,,,,8,,57,72
95160,note_on,,0,0,12,,,,,,,,,,,,,,,,15,,76,48
95160,note_on,,0,0,12,,,,,,,,,,,,,,,,15,,73,48
95160,note_on,,1,0,11,,,,,,,,,,,,,,,,13,,57,48
95160,note_on,,1,0,5,,,,,,,,,,,,,,,,2,,57,48
95160,note_on,,1,0,12,,,,,,,,,,,,,,,,15,,69,48
95160,note_on,,0,0,12,,,,,,,,,,,,,,,,15,,57,48
95399,note_on,,239,0,11,,,,,,,,,,,,,,,,13,,57,0
95399,note_on,,239,0,5,,,,,,,,,,,,,,,,2,,57,0
95399,note_on,,959,0,6,,,,,,,,,,,,,,,,3,,81,0
95399,note_on,,239,0,12,,,,,,,,,,,,,,,,15,,57,0
95400,note_on,,1,0,11,,,,,,,,,,,,,,,,13,,49,64
95400,note_on,,841,0,9,,,,,,,,,,,,,,,,11,,69,64
95400,note_on,,1,0,6,,,,,,,,,,,,,,,,3,,79,64
95400,note_on,,841,0,8,,,,,,,,,,,,,,,,10,,79,64
95400,note_on,,841,0,10,,,,,,,,,,,,,,,,12,,64,64
95400,note_on,,1,0,5,,,,,,,,,,,,,,,,2,,49,64
95400,note_on,,1,0,12,,,,,,,,,,,,,,,,15,,49,64
95519,note_on,,119,0,6,,,,,,,,,,,,,,,,3,,79,0
95519,note_on,,119,0,8,,,,,,,,,,,,,,,,10,,79,0
95519,note_on,,119,0,11,,,,,,,,,,,,,,,,13,,49,0
95519,note_on,,119,0,10,,,,,,,,,,,,,,,,12,,64,0
95519,note_on,,119,0,12,,,,,,,,,,,,,,,,15,,69,0
95519,note_on,,119,0,5,,,,,,,,,,,,,,,,2,,49,0
95519,note_on,,0,0,12,,,,,,,,,,,,,,,,15,,76,0
95519,note_on,,0,0,12,,,,,,,,,,,,,,,,15,,73,0
95519,note_on,,119,0,9,,,,,,,,,,,,,,,,11,,69,0
95519,note_on,,0,0,12,,,,,,,,,,,,,,,,15,,49,0
95519,note_on,,0,0,12,,,,,,,,,,,,,,,,15,,64,0
95520,note_on,,1,0,6,,,,,,,,,,,,,,,,3,,78,64
95520,note_on,,1,0,9,,,,,,,,,,,,,,,,11,,69,64
95520,note_on,,0,0,12,,,,,,,,,,,,,,,,15,,69,64
95520,note_on,,1,0,11,,,,,,,,,,,,,,,,13,,50,64
95520,note_on,,0,0,12,,,,,,,,,,,,,,,,15,,62,64
95520,note_on,,0,0,12,,,,,,,,,,,,,,,,15,,66,64
95520,note_on,,1,0,10,,,,,,,,,,,,,,,,12,,62,64
95520,note_on,,1,0,12,,,,,,,,,,,,,,,,15,,50,64
95520,note_on,,1,0,8,,,,,,,,,,,,,,,,10,,78,64
95520,note_on,,1,0,5,,,,,,,,,,,,,,,,2,,50,64
95579,note_on,,59,0,9,,,,,,,,,,,,,,,,11,,69,0
95579,note_on,,59,0,6,,,,,,,,,,,,,,,,3,,78,0
95579,note_on,,59,0,8,,,,,,,,,,,,,,,,10,,78,0
95580,note_on,,1,0,6,,,,,,,,,,,,,,,,3,,76,64
95580,note_on,,1,0,8,,,,,,,,,,,,,,,,10,,76,64
95580,note_on,,1,0,9,,,,,,,,,,,,,,,,11,,67,64
95639,note_on,,59,0,8,,,,,,,,,,,,,,,,10,,76,0
95639,note_on,,59,0,9,,,,,,,,,,,,,,,,11,,67,0
95639,note_on,,59,0,6,,,,,,,,,,,,,,,,3,,76,0
95640,note_on,,1,0,6,,,,,,,,,,,,,,,,3,,74,64
95640,note_on,,1,0,9,,,,,,,,,,,,,,,,11,,66,64
95640,note_on,,1,0,8,,,,,,,,,,,,,,,,10,,74,64
95699,note_on,,59,0,6,,,,,,,,,,,,,,,,3,,74,0
95699,note_on,,59,0,8,,,,,,,,,,,,,,,,10,,74,0
95699,note_on,,59,0,9,,,,,,,,,,,,,,,,11,,66,0
95700,note_on,,1,0,8,,,,,,,,,,,,,,,,10,,78,64
95700,note_on,,1,0,9,,,,,,,,,,,,,,,,11,,74,64
95700,note_on,,1,0,6,,,,,,,,,,,,,,,,3,,78,64
95759,note_on,,239,0,11,,,,,,,,,,,,,,,,13,,50,0
95759,note_on,,59,0,9,,,,,,,,,,,,,,,,11,,74,0
95759,note_on,,59,0,6,,,,,,,,,,,,,,,,3,,78,0
95759,note_on,,239,0,12,,,,,,,,,,,,,,,,15,,50,0
95759,note_on,,239,0,5,,,,,,,,,,,,,,,,2,,50,0
95759,note_on,,239,0,10,,,,,,,,,,,,,,,,12,,62,0
95759,note_on,,59,0,8,,,,,,,,,,,,,,,,10,,78,0
95760,note_on,,1,0,12,,,,,,,,,,,,,,,,15,,38,64
95760,note_on,,1,0,6,,,,,,,,,,,,,,,,3,,76,64
95760,note_on,,1,0,10,,,,,,,,,,,,,,,,12,,57,64
95760,note_on,,1,0,9,,,,,,,,,,,,,,,,11,,73,64
95760,note_on,,1,0,5,,,,,,,,,,,,,,,,2,,38,64
95760,note_on,,1,0,11,,,,,,,,,,,,,,,,13,,38,64
95760,note_on,,1,0,8,,,,,,,,,,,,,,,,10,,76,64
95819,note_on,,59,0,8,,,,,,,,,,,,,,,,10,,76,0
95819,note_on,,59,0,9,,,,,,,,,,,,,,,,11,,73,0
95819,note_on,,59,0,6,,,,,,,,,,,,,,,,3,,76,0
95820,note_on,,1,0,6,,,,,,,,,,,,,,,,3,,74,64
95820,note_on,,1,0,9,,,,,,,,,,,,,,,,11,,71,64
95820,note_on,,1,0,8,,,,,,,,,,,,,,,,10,,74,64
95879,note_on,,719,0,7,,,,,,,,,,,,,,,,8,,57,0
95879,note_on,,59,0,8,,,,,,,,,,,,,,,,10,,74,0
95879,note_on,,59,0,9,,,,,,,,,,,,,,,,11,,71,0
95879,note_on,,119,0,12,,,,,,,,,,,,,,,,15,,66,0
95879,note_on,,0,0,12,,,,,,,,,,,,,,,,15,,62,0
95879,note_on,,0,0,12,,,,,,,,,,,,,,,,15,,38,0
95879,note_on,,119,0,10,,,,,,,,,,,,,,,,12,,57,0
95879,note_on,,119,0,5,,,,,,,,,,,,,,,,2,,38,0
95879,note_on,,59,0,6,,,,,,,,,,,,,,,,3,,74,0
95879,note_on,,119,0,11,,,,,,,,,,,,,,,,13,,38,0
95880,note_on,,1,0,5,,,,,,,,,,,,,,,,2,,45,64
95880,note_on,,1,0,12,,,,,,,,,,,,,,,,15,,45,64
95880,note_on,,0,0,12,,,,,,,,,,,,,,,,15,,64,64
95880,note_on,,0,0,12,,,,,,,,,,,,,,,,15,,61,64
95880,note_on,,1,0,8,,,,,,,,,,,,,,,,10,,76,64
95880,note_on,,1,0,10,,,,,,,,,,,,,,,,12,,57,64
95880,note_on,,1,0,11,,,,,,,,,,,,,,,,13,,45,64
95880,note_on,,1,0,9,,,,,,,,,,,,,,,,11,,73,64
95880,note_on,,0,0,12,,,,,,,,,,,,,,,,15,,57,64
95880,note_on,,1,0,6,,,,,,,,,,,,,,,,3,,76,64
95999,note_on,,119,0,5,,,,,,,,,,,,,,,,2,,45,0
95999,note_on,,119,0,12,,,,,,,,,,,,,,,,15,,69,0
95999,note_on,,0,0,12,,,,,,,,,,,,,,,,15,,45,0
95999,note_on,,0,0,12,,,,,,,,,,,,,,,,15,,57,0
95999,note_on,,0,0,12,,,,,,,,,,,,,,,,15,,64,0
95999,note_on,,0,0,12,,,,,,,,,,,,,,,,15,,61,0
95999,note_on,,119,0,11,,,,,,,,,,,,,,,,13,,45,0
96000,note_on,,0,0,12,,,,,,,,,,,,,,,,15,,57,64
96000,note_on,,1,0,12,,,,,,,,,,,,,,,,15,,61,64
96000,note_on,,0,0,12,,,,,,,,,,,,,,,,15,,64,64
96000,note_on,,1,0,11,,,,,,,,,,,,,,,,13,,57,64
96000,note_on,,1,0,5,,,,,,,,,,,,,,,,2,,57,64
96119,note_on,,239,0,9,,,,,,,,,,,,,,,,11,,73,0
96119,note_on,,119,0,12,,,,,,,,,,,,,,,,15,,61,0
96119,note_on,,0,0,12,,,,,,,,,,,,,,,,15,,57,0
96119,note_on,,239,0,8,,,,,,,,,,,,,,,,10,,76,0
96119,note_on,,119,0,11,,,,,,,,,,,,,,,,13,,57,0
96119,note_on,,0,0,12,,,,,,,,,,,,,,,,15,,64,0
96119,note_on,,239,0,6,,,,,,,,,,,,,,,,3,,76,0
96119,note_on,,239,0,10,,,,,,,,,,,,,,,,12,,57,0
96119,note_on,,119,0,5,,,,,,,,,,,,,,,,2,,57,0
96120,note_on,,1,0,5,,,,,,,,,,,,,,,,2,,54,64
96120,note_on,,1,0,11,,,,,,,,,,,,,,,,13,,54,64
96120,note_on,,0,0,12,,,,,,,,,,,,,,,,15,,57,64
96120,note_on,,0,0,12,,,,,,,,,,,,,,,,15,,54,64
96120,note_on,,0,0,12,,,,,,,,,,,,,,,,15,,69,64
96120,note_on,,1,0,12,,,,,,,,,,,,,,,,15,,62,64
96120,note_on,,241,0,7,,,,,,,,,,,,,,,,8,,57,72
96239,note_on,,119,0,11,,,,,,,,,,,,,,,,13,,54,0
96239,note_on,,0,0,12,,,,,,,,,,,,,,,,15,,54,0
96239,note_on,,0,0,12,,,,,,,,,,,,,,,,15,,69,0
96239,note_on,,0,0,12,,,,,,,,,,,,,,,,15,,57,0
96239,note_on,,119,0,7,,,,,,,,,,,,,,,,8,,57,0
96239,note_on,,119,0,12,,,,,,,,,,,,,,,,15,,62,0
96239,note_on,,119,0,5,,,,,,,,,,,,,,,,2,,54,0
96240,note_on,,1,0,12,,,,,,,,,,,,,,,,15,,62,64
96240,note_on,,1,0,11,,,,,,,,,,,,,,,,13,,55,64
96240,note_on,,1,0,7,,,,,,,,,,,,,,,,8,,59,72
96240,note_on,,0,0,12,,,,,,,,,,,,,,,,15,,55,64
96240,note_on,,0,0,12,,,,,,,,,,,,,,,,15,,59,64
96240,note_on,,1,0,5,,,,,,,,,,,,,,,,2,,55,64
96359,note_on,,119,0,7,,,,,,,,,,,,,,,,8,,59,0
96360,note_on,,1,0,7,,,,,,,,,,,,,,,,8,,55,72
96419,note_on,,179,0,12,,,,,,,,,,,,,,,,15,,55,0
96419,note_on,,179,0,5,,,,,,,,,,,,,,,,2,,55,0
96419,note_on,,179,0,11,,,,,,,,,,,,,,,,13,,55,0
96419,note_on,,59,0,7,,,,,,,,,,,,,,,,8,,55,0
96420,note_on,,0,0,12,,,,,,,,,,,,,,,,15,,57,64
96420,note_on,,1,0,12,,,,,,,,,,,,,,,,15,,54,64
96420,note_on,,1,0,7,,,,,,,,,,,,,,,,8,,57,72
96420,note_on,,1,0,11,,,,,,,,,,,,,,,,13,,54,64
96420,note_on,,1,0,5,,,,,,,,,,,,,,,,2,,54,64
96479,note_on,,0,0,12,,,,,,,,,,,,,,,,15,,54,0
96479,note_on,,59,0,11,,,,,,,,,,,,,,,,13,,54,0
96479,note_on,,0,0,12,,,,,,,,,,,,,,,,15,,57,0
96479,note_on,,59,0,12,,,,,,,,,,,,,,,,15,,62,0
96479,note_on,,59,0,7,,,,,,,,,,,,,,,,8,,57,0
96479,note_on,,59,0,5,,,,,,,,,,,,,,,,2,,54,0
96480,note_on,,1,0,7,,,,,,,,,,,,,,,,8,,59,72
96480,note_on,,1,0,11,,,,,,,,,,,,,,,,13,,52,64
96480,note_on,,1,0,5,,,,,,,,,,,,,,,,2,,52,64
96480,note_on,,1,0,12,,,,,,,,,,,,,,,,15,,52,64
96480,note_on,,0,0,12,,,,,,,,,,,,,,,,15,,55,64
96480,note_on,,0,0,12,,,,,,,,,,,,,,,,15,,64,64
96539,note_on,,59,0,7,,,,,,,,,,,,,,,,8,,59,0
96540,note_on,,1,0,7,,,,,,,,,,,,,,,,8,,61,72
96599,note_on,,119,0,5,,,,,,,,,,,,,,,,2,,52,0
96599,note_on,,0,0,12,,,,,,,,,,,,,,,,15,,64,0
96599,note_on,,119,0,11,,,,,,,,,,,,,,,,13,,52,0
96599,note_on,,0,0,12,,,,,,,,,,,,,,,,15,,52,0
96599,note_on,,59,0,7,,,,,,,,,,,,,,,,8,,61,0
96599,note_on,,119,0,12,,,,,,,,,,,,,,,,15,,59,0
96599,note_on,,0,0,12,,,,,,,,,,,,,,,,15,,55,0
96600,note_on,,1,0,12,,,,,,,,,,,,,,,,15,,50,64
96600,note_on,,0,0,12,,,,,,,,,,,,,,,,15,,66,64
96600,note_on,,0,0,12,,,,,,,,,,,,,,,,15,,62,64
96600,note_on,,0,0,12,,,,,,,,,,,,,,,,15,,57,64
96600,note_on,,1,0,5,,,,,,,,,,,,,,,,2,,50,64
96600,note_on,,1,0,7,,,,,,,,,,,,,,,,8,,62,72
96600,note_on,,1,0,11,,,,,,,,,,,,,,,,13,,50,64
96839,note_on,,239,0,5,,,,,,,,,,,,,,,,2,,50,0
96839,note_on,,239,0,11,,,,,,,,,,,,,,,,13,,50,0
96839,note_on,,239,0,12,,,,,,,,,,,,,,,,15,,50,0
96839,note_on,,0,0,12,,,,,,,,,,,,,,,,15,,57,0
96839,note_on,,0,0,12,,,,,,,,,,,,,,,,15,,62,0
96839,note_on,,0,0,12,,,,,,,,,,,,,,,,15,,66,0
96840,note_on,,1,0,11,,,,,,,,,,,,,,,,13,,50,64
96840,note_on,,721,0,6,,,,,,,,,,,,,,,,3,,62,64
96840,note_on,,721,0,10,,,,,,,,,,,,,,,,12,,54,64
96840,note_on,,721,0,9,,,,,,,,,,,,,,,,11,,57,64
96840,note_on,,0,0,12,,,,,,,,,,,,,,,,15,,69,64
96840,note_on,,0,0,12,,,,,,,,,,,,,,,,15,,66,64
96840,note_on,,1,0,12,,,,,,,,,,,,,,,,15,,50,64
96840,note_on,,0,0,12,,,,,,,,,,,,,,,,15,,62,64
96840,note_on,,1,0,5,,,,,,,,,,,,,,,,2,,50,64
96840,note_on,,721,0,8,,,,,,,,,,,,,,,,10,,62,64
96929,note_on,,89,0,9,,,,,,,,,,,,,,,,11,,57,0
96929,note_on,,89,0,12,,,,,,,,,,,,,,,,15,,50,0
96929,note_on,,89,0,6,,,,,,,,,,,,,,,,3,,62,0
96929,note_on,,89,0,10,,,,,,,,,,,,,,,,12,,54,0
96929,note_on,,89,0,8,,,,,,,,,,,,,,,,10,,62,0
96929,note_on,,89,0,5,,,,,,,,,,,,,,,,2,,50,0
96929,note_on,,89,0,11,,,,,,,,,,,,,,,,13,,50,0
96930,note_on,,1,0,6,,,,,,,,,,,,,,,,3,,62,64
96930,note_on,,1,0,10,,,,,,,,,,,,,,,,12,,54,64
96930,note_on,,1,0,5,,,,,,,,,,,,,,,,2,,50,64
96930,note_on,,1,0,12,,,,,,,,,,,,,,,,15,,50,64
96930,note_on,,1,0,11,,,,,,,,,,,,,,,,13,,50,64
96930,note_on,,1,0,9,,,,,,,,,,,,,,,,11,,57,64
96930,note_on,,1,0,8,,,,,,,,,,,,,,,,10,,62,64
96959,note_on,,29,0,11,,,,,,,,,,,,,,,,13,,50,0
96959,note_on,,29,0,9,,,,,,,,,,,,,,,,11,,57,0
96959,note_on,,29,0,6,,,,,,,,,,,,,,,,3,,62,0
96959,note_on,,29,0,8,,,,,,,,,,,,,,,,10,,62,0
96959,note_on,,0,0,12,,,,,,,,,,,,,,,,15,,66,0
96959,note_on,,0,0,12,,,,,,,,,,,,,,,,15,,50,0
96959,note_on,,29,0,5,,,,,,,,,,,,,,,,2,,50,0
96959,note_on,,29,0,10,,,,,,,,,,,,,,,,12,,54,0
96959,note_on,,29,0,12,,,,,,,,,,,,,,,,15,,62,0
96959,note_on,,0,0,12,,,,,,,,,,,,,,,,15,,69,0
96960,note_on,,1,0,6,,,,,,,,,,,,,,,,3,,66,64
96960,note_on,,1,0,5,,,,,,,,,,,,,,,,2,,50,64
96960,note_on,,0,0,12,,,,,,,,,,,,,,,,15,,66,64
96960,note_on,,1,0,10,,,,,,,,,,,,,,,,12,,57,64
96960,note_on,,1,0,9,,,,,,,,,,,,,,,,11,,62,64
96960,note_on,,1,0,12,,,,,,,,,,,,,,,,15,,50,64
96960,note_on,,0,0,12,,,,,,,,,,,,,,,,15,,74,64
96960,note_on,,1,0,11,,,,,,,,,,,,,,,,13,,50,64
96960,note_on,,0,0,12,,,,,,,,,,,,,,,,15,,69,64
96960,note_on,,1,0,8,,,,,,,,,,,,,,,,10,,66,64
97139,note_on,,179,0,8,,,,,,,,,,,,,,,,10,,66,0
97139,note_on,,179,0,12,,,,,,,,,,,,,,,,15,,50,0
97139,note_on,,179,0,6,,,,,,,,,,,,,,,,3,,66,0
97139,note_on,,179,0,5,,,,,,,,,,,,,,,,2,,50,0
97139,note_on,,179,0,10,,,,,,,,,,,,,,,,12,,57,0
97139,note_on,,179,0,9,,,,,,,,,,,,,,,,11,,62,0
97139,note_on,,179,0,11,,,,,,,,,,,,,,,,13,,50,0
97140,note_on,,1,0,5,,,,,,,,,,,,,,,,2,,50,64
97140,note_on,,1,0,10,,,,,,,,,,,,,,,,12,,57,64
97140,note_on,,1,0,9,,,,,,,,,,,,,,,,11,,62,64
97140,note_on,,1,0,12,,,,,,,,,,,,,,,,15,,50,64
97140,note_on,,1,0,11,,,,,,,,,,,,,,,,13,,50,64
97140,note_on,,1,0,8,,,,,,,,,,,,,,,,10,,66,64
97140,note_on,,1,0,6,,,,,,,,,,,,,,,,3,,66,64
97199,note_on,,0,0,12,,,,,,,,,,,,,,,,15,,50,0
97199,note_on,,59,0,12,,,,,,,,,,,,,,,,15,,74,0
97199,note_on,,59,0,8,,,,,,,,,,,,,,,,10,,66,0
97199,note_on,,59,0,6,,,,,,,,,,,,,,,,3,,66,0
97199,note_on,,0,0,12,,,,,,,,,,,,,,,,15,,66,0
97199,note_on,,59,0,10,,,,,,,,,,,,,,,,12,,57,0
97199,note_on,,59,0,11,,,,,,,,,,,,,,,,13,,50,0
97199,note_on,,59,0,5,,,,,,,,,,,,,,,,2,,50,0
97199,note_on,,0,0,12,,,,,,,,,,,,,,,,15,,69,0
97199,note_on,,59,0,9,,,,,,,,,,,,,,,,11,,62,0
97200,note_on,,1,0,12,,,,,,,,,,,,,,,,15,,50,64
97200,note_on,,0,0,12,,,,,,,,,,,,,,,,15,,57,64
97200,note_on,,0,0,12,,,,,,,,,,,,,,,,15,,54,64
97200,note_on,,0,0,12,,,,,,,,,,,,,,,,15,,62,64
97200,note_on,,1,0,9,,,,,,,,,,,,,,,,11,,62,64
97200,note_on,,1,0,10,,,,,,,,,,,,,,,,12,,57,64
97200,note_on,,1,0,5,,,,,,,,,,,,,,,,2,,50,64
97200,note_on,,1,0,6,,,,,,,,,,,,,,,,3,,66,64
97200,note_on,,1,0,11,,,,,,,,,,,,,,,,13,,50,64
97200,note_on,,1,0,8,,,,,,,,,,,,,,,,10,,66,64
97289,note_on,,89,0,12,,,,,,,,,,,,,,,,15,,50,0
97289,note_on,,89,0,6,,,,,,,,,,,,,,,,3,,66,0
97289,note_on,,89,0,11,,,,,,,,,,,,,,,,13,,50,0
97289,note_on,,89,0,5,,,,,,,,,,,,,,,,2,,50,0
97289,note_on,,89,0,8,,,,,,,,,,,,,,,,10,,66,0
97289,note_on,,89,0,10,,,,,,,,,,,,,,,,12,,57,0
97289,note_on,,89,0,9,,,,,,,,,,,,,,,,11,,62,0
97290,note_on,,1,0,5,,,,,,,,,,,,,,,,2,,50,64
97290,note_on,,1,0,11,,,,,,,,,,,,,,,,13,,50,64
97290,note_on,,1,0,12,,,,,,,,,,,,,,,,15,,50,64
97290,note_on,,1,0,8,,,,,,,,,,,,,,,,10,,66,64
97290,note_on,,1,0,9,,,,,,,,,,,,,,,,11,,62,64
97290,note_on,,1,0,6,,,,,,,,,,,,,,,,3,,66,64
97290,note_on,,1,0,10,,,,,,,,,,,,,,,,12,,57,64
97319,note_on,,29,0,9,,,,,,,,,,,,,,,,11,,62,0
97319,note_on,,29,0,5,,,,,,,,,,,,,,,,2,,50,0
97319,note_on,,29,0,11,,,,,,,,,,,,,,,,13,,50,0
97319,note_on,,0,0,12,,,,,,,,,,,,,,,,15,,50,0
97319,note_on,,29,0,6,,,,,,,,,,,,,,,,3,,66,0
97319,note_on,,0,0,12,,,,,,,,,,,,,,,,15,,54,0
97319,note_on,,29,0,12,,,,,,,,,,,,,,,,15,,57,0
97319,note_on,,0,0,12,,,,,,,,,,,,,,,,15,,62,0
97319,note_on,,29,0,8,,,,,,,,,,,,,,,,10,,66,0
97319,note_on,,719,0,7,,,,,,,,,,,,,,,,8,,62,0
97319,note_on,,29,0,10,,,,,,,,,,,,,,,,12,,57,0
97320,note_on,,0,0,12,,,,,,,,,,,,,,,,15,,62,64
97320,note_on,,1,0,10,,,,,,,,,,,,,,,,12,,62,64
97320,note_on,,1,0,8,,,,,,,,,,,,,,,,10,,69,64
97320,note_on,,1,0,12,,,,,,,,,,,,,,,,15,,66,64
97320,note_on,,0,0,12,,,,,,,,,,,,,,,,15,,50,64
97320,note_on,,0,0,12,,,,,,,,,,,,,,,,15,,57,64
97320,note_on,,1,0,11,,,,,,,,,,,,,,,,13,,50,64
97320,note_on,,1,0,5,,,,,,,,,,,,,,,,2,,50,64
97320,note_on,,1,0,9,,,,,,,,,,,,,,,,11,,66,64
97320,note_on,,1,0,6,,,,,,,,,,,,,,,,3,,69,64
97439,note_on,,119,0,12,,,,,,,,,,,,,,,,15,,66,0
97439,note_on,,0,0,12,,,,,,,,,,,,,,,,15,,57,0
97439,note_on,,0,0,12,,,,,,,,,,,,,,,,15,,50,0
97439,note_on,,119,0,5,,,,,,,,,,,,,,,,2,,50,0
97439,note_on,,0,0,12,,,,,,,,,,,,,,,,15,,62,0
97439,note_on,,119,0,11,,,,,,,,,,,,,,,,13,,50,0
97440,note_on,,1,0,5,,,,,,,,,,,,,,,,2,,54,64
97440,note_on,,121,0,7,,,,,,,,,,,,,,,,8,,54,72
97440,note_on,,0,0,12,,,,,,,,,,,,,,,,15,,69,64
97440,note_on,,0,0,12,,,,,,,,,,,,,,,,15,,62,64
97440,note_on,,1,0,11,,,,,,,,,,,,,,,,13,,54,64
97440,note_on,,1,0,12,,,,,,,,,,,,,,,,15,,54,64
97499,note_on,,179,0,9,,,,,,,,,,,,,,,,11,,66,0
97499,note_on,,179,0,10,,,,,,,,,,,,,,,,12,,62,0
97499,note_on,,179,0,6,,,,,,,,,,,,,,,,3,,69,0
97499,note_on,,179,0,8,,,,,,,,,,,,,,,,10,,69,0
97500,note_on,,1,0,9,,,,,,,,,,,,,,,,11,,66,64
97500,note_on,,1,0,8,,,,,,,,,,,,,,,,10,,69,64
97500,note_on,,1,0,6,,,,,,,,,,,,,,,,3,,69,64
97500,note_on,,1,0,10,,,,,,,,,,,,,,,,12,,62,64
97559,note_on,,59,0,9,,,,,,,,,,,,,,,,11,,66,0
97559,note_on,,119,0,5,,,,,,,,,,,,,,,,2,,54,0
97559,note_on,,0,0,12,,,,,,,,,,,,,,,,15,,62,0
97559,note_on,,59,0,10,,,,,,,,,,,,,,,,12,,62,0
97559,note_on,,59,0,8,,,,,,,,,,,,,,,,10,,69,0
97559,note_on,,119,0,7,,,,,,,,,,,,,,,,8,,54,0
97559,note_on,,119,0,12,,,,,,,,,,,,,,,,15,,54,0
97559,note_on,,59,0,6,,,,,,,,,,,,,,,,3,,69,0
97559,note_on,,0,0,12,,,,,,,,,,,,,,,,15,,69,0
97559,note_on,,119,0,11,,,,,,,,,,,,,,,,13,,54,0
97560,note_on,,1,0,8,,,,,,,,,,,,,,,,10,,69,64
97560,note_on,,1,0,5,,,,,,,,,,,,,,,,2,,54,64
97560,note_on,,1,0,7,,,,,,,,,,,,,,,,8,,54,72
97560,note_on,,1,0,12,,,,,,,,,,,,,,,,15,,62,64
97560,note_on,,1,0,6,,,,,,,,,,,,,,,,3,,69,64
97560,note_on,,1,0,9,,,,,,,,,,,,,,,,11,,66,64
97560,note_on,,0,0,12,,,,,,,,,,,,,,,,15,,69,64
97560,note_on,,1,0,10,,,,,,,,,,,,,,,,12,,62,64
97560,note_on,,0,0,12,,,,,,,,,,,,,,,,15,,54,64
97560,note_on,,0,0,12,,,,,,,,,,,,,,,,15,,74,64
97560,note_on,,1,0,11,,,,,,,,,,,,,,,,13,,54,64
97649,note_on,,89,0,8,,,,,,,,,,,,,,,,10,,69,0
97649,note_on,,89,0,6,,,,,,,,,,,,,,,,3,,69,0
97649,note_on,,89,0,10,,,,,,,,,,,,,,,,12,,62,0
97649,note_on,,89,0,9,,,,,,,,,,,,,,,,11,,66,0
97650,note_on,,1,0,8,,,,,,,,,,,,,,,,10,,69,64
97650,note_on,,1,0,6,,,,,,,,,,,,,,,,3,,69,64
97650,note_on,,1,0,10,,,,,,,,,,,,,,,,12,,62,64
97650,note_on,,1,0,9,,,,,,,,,,,,,,,,11,,66,64
97679,note_on,,119,0,5,,,,,,,,,,,,,,,,2,,54,0
97679,note_on,,29,0,8,,,,,,,,,,,,,,,,10,,69,0
97679,note_on,,0,0,12,,,,,,,,,,,,,,,,15,,54,0
97679,note_on,,0,0,12,,,,,,,,,,,,,,,,15,,69,0
97679,note_on,,119,0,7,,,,,,,,,,,,,,,,8,,54,0
97679,note_on,,119,0,11,,,,,,,,,,,,,,,,13,,54,0
97679,note_on,,119,0,12,,,,,,,,,,,,,,,,15,,62,0
97679,note_on,,29,0,6,,,,,,,,,,,,,,,,3,,69,0
97679,note_on,,29,0,10,,,,,,,,,,,,,,,,12,,62,0
97679,note_on,,0,0,12,,,,,,,,,,,,,,,,15,,74,0
97679,note_on,,29,0,9,,,,,,,,,,,,,,,,11,,66,0
97680,note_on,,0,0,12,,,,,,,,,,,,,,,,15,,59,64
97680,note_on,,0,0,12,,,,,,,,,,,,,,,,15,,62,64
97680,note_on,,1,0,12,,,,,,,,,,,,,,,,15,,67,64
97680,note_on,,1,0,8,,,,,,,,,,,,,,,,10,,74,64
97680,note_on,,1,0,7,,,,,,,,,,,,,,,,8,,59,72
97680,note_on,,1,0,11,,,,,,,,,,,,,,,,13,,59,64
97680,note_on,,1,0,6,,,,,,,,,,,,,,,,3,,74,64
97680,note_on,,1,0,10,,,,,,,,,,,,,,,,12,,62,64
97680,note_on,,1,0,9,,,,,,,,,,,,,,,,11,,67,64
97680,note_on,,1,0,5,,,,,,,,,,,,,,,,2,,59,64
97799,note_on,,119,0,7,,,,,,,,,,,,,,,,8,,59,0
97799,note_on,,119,0,5,,,,,,,,,,,,,,,,2,,59,0
97799,note_on,,0,0,12,,,,,,,,,,,,,,,,15,,59,0
97799,note_on,,119,0,9,,,,,,,,,,,,,,,,11,,67,0
97799,note_on,,0,0,12,,,,,,,,,,,,,,,,15,,62,0
97799,note_on,,119,0,12,,,,,,,,,,,,,,,,15,,67,0
97799,note_on,,119,0,10,,,,,,,,,,,,,,,,12,,62,0
97799,note_on,,119,0,11,,,,,,,,,,,,,,,,13,,59,0
97800,note_on,,0,0,12,,,,,,,,,,,,,,,,15,,71,64
97800,note_on,,0,0,12,,,,,,,,,,,,,,,,15,,67,64
97800,note_on,,1,0,10,,,,,,,,,,,,,,,,12,,67,64
97800,note_on,,1,0,7,,,,,,,,,,,,,,,,8,,55,72
97800,note_on,,1,0,12,,,,,,,,,,,,,,,,15,,55,64
97800,note_on,,1,0,11,,,,,,,,,,,,,,,,13,,55,64
97800,note_on,,1,0,5,,,,,,,,,,,,,,,,2,,55,64
97800,note_on,,1,0,9,,,,,,,,,,,,,,,,11,,71,64
97800,note_on,,0,0,12,,,,,,,,,,,,,,,,15,,62,64
97859,note_on,,59,0,11,,,,,,,,,,,,,,,,13,,55,0
97859,note_on,,179,0,6,,,,,,,,,,,,,,,,3,,74,0
97859,note_on,,59,0,7,,,,,,,,,,,,,,,,8,,55,0
97859,note_on,,59,0,12,,,,,,,,,,,,,,,,15,,55,0
97859,note_on,,59,0,5,,,,,,,,,,,,,,,,2,,55,0
97859,note_on,,179,0,8,,,,,,,,,,,,,,,,10,,74,0
97860,note_on,,1,0,8,,,,,,,,,,,,,,,,10,,74,64
97860,note_on,,1,0,5,,,,,,,,,,,,,,,,2,,57,64
97860,note_on,,1,0,11,,,,,,,,,,,,,,,,13,,57,64
97860,note_on,,1,0,7,,,,,,,,,,,,,,,,8,,57,72
97860,note_on,,1,0,12,,,,,,,,,,,,,,,,15,,57,64
97860,note_on,,1,0,6,,,,,,,,,,,,,,,,3,,74,64
97919,note_on,,59,0,8,,,,,,,,,,,,,,,,10,,74,0
97919,note_on,,59,0,5,,,,,,,,,,,,,,,,2,,57,0
97919,note_on,,59,0,12,,,,,,,,,,,,,,,,15,,57,0
97919,note_on,,59,0,7,,,,,,,,,,,,,,,,8,,57,0
97919,note_on,,59,0,11,,,,,,,,,,,,,,,,13,,57,0
97919,note_on,,59,0,6,,,,,,,,,,,,,,,,3,,74,0
97920,note_on,,1,0,11,,,,,,,,,,,,,,,,13,,59,64
97920,note_on,,1,0,12,,,,,,,,,,,,,,,,15,,59,64
97920,note_on,,1,0,5,,,,,,,,,,,,,,,,2,,59,64
97920,note_on,,1,0,7,,,,,,,,,,,,,,,,8,,59,72
97920,note_on,,1,0,6,,,,,,,,,,,,,,,,3,,74,64
97920,note_on,,1,0,8,,,,,,,,,,,,,,,,10,,74,64
97979,note_on,,179,0,9,,,,,,,,,,,,,,,,11,,71,0
97979,note_on,,59,0,11,,,,,,,,,,,,,,,,13,,59,0
97979,note_on,,59,0,5,,,,,,,,,,,,,,,,2,,59,0
97979,note_on,,59,0,7,,,,,,,,,,,,,,,,8,,59,0
97979,note_on,,59,0,12,,,,,,,,,,,,,,,,15,,59,0
97979,note_on,,179,0,10,,,,,,,,,,,,,,,,12,,67,0
97980,note_on,,1,0,10,,,,,,,,,,,,,,,,12,,67,64
97980,note_on,,1,0,12,,,,,,,,,,,,,,,,15,,61,64
97980,note_on,,1,0,5,,,,,,,,,,,,,,,,2,,61,64
97980,note_on,,1,0,7,,,,,,,,,,,,,,,,8,,61,72
97980,note_on,,1,0,9,,,,,,,,,,,,,,,,11,,71,64
97980,note_on,,1,0,11,,,,,,,,,,,,,,,,13,,61,64
98009,note_on,,89,0,6,,,,,,,,,,,,,,,,3,,74,0
98009,note_on,,89,0,8,,,,,,,,,,,,,,,,10,,74,0
98010,note_on,,1,0,6,,,,,,,,,,,,,,,,3,,74,64
98010,note_on,,1,0,8,,,,,,,,,,,,,,,,10,,74,64
98039,note_on,,0,0,12,,,,,,,,,,,,,,,,15,,67,0
98039,note_on,,59,0,7,,,,,,,,,,,,,,,,8,,61,0
98039,note_on,,59,0,12,,,,,,,,,,,,,,,,15,,62,0
98039,note_on,,59,0,11,,,,,,,,,,,,,,,,13,,61,0
98039,note_on,,59,0,9,,,,,,,,,,,,,,,,11,,71,0
98039,note_on,,59,0,10,,,,,,,,,,,,,,,,12,,67,0
98039,note_on,,29,0,6,,,,,,,,,,,,,,,,3,,74,0
98039,note_on,,29,0,8,,,,,,,,,,,,,,,,10,,74,0
98039,note_on,,59,0,5,,,,,,,,,,,,,,,,2,,61,0
98039,note_on,,0,0,12,,,,,,,,,,,,,,,,15,,61,0
98039,note_on,,0,0,12,,,,,,,,,,,,,,,,15,,71,0
98040,note_on,,1,0,10,,,,,,,,,,,,,,,,12,,66,64
98040,note_on,,1,0,8,,,,,,,,,,,,,,,,10,,78,64
98040,note_on,,1,0,5,,,,,,,,,,,,,,,,2,,62,64
98040,note_on,,1,0,11,,,,,,,,,,,,,,,,13,,62,64
98040,note_on,,1,0,6,,,,,,,,,,,,,,,,3,,78,64
98040,note_on,,1,0,7,,,,,,,,,,,,,,,,8,,62,72
98040,note_on,,1,0,12,,,,,,,,,,,,,,,,15,,69,64
98040,note_on,,0,0,12,,,,,,,,,,,,,,,,15,,66,64
98040,note_on,,0,0,12,,,,,,,,,,,,,,,,15,,62,64
98040,note_on,,1,0,9,,,,,,,,,,,,,,,,11,,69,64
98219,note_on,,179,0,8,,,,,,,,,,,,,,,,10,,78,0
98219,note_on,,179,0,11,,,,,,,,,,,,,,,,13,,62,0
98219,note_on,,179,0,9,,,,,,,,,,,,,,,,11,,69,0
98219,note_on,,179,0,10,,,,,,,,,,,,,,,,12,,66,0
98219,note_on,,179,0,6,,,,,,,,,,,,,,,,3,,78,0
98219,note_on,,179,0,5,,,,,,,,,,,,,,,,2,,62,0
98220,note_on,,1,0,6,,,,,,,,,,,,,,,,3,,78,64
98220,note_on,,1,0,10,,,,,,,,,,,,,,,,12,,66,64
98220,note_on,,1,0,8,,,,,,,,,,,,,,,,10,,78,64
98220,note_on,,1,0,11,,,,,,,,,,,,,,,,13,,50,64
98220,note_on,,180,0,12,,,,,,,,,,,,,,,,15,,50,64
98220,note_on,,1,0,5,,,,,,,,,,,,,,,,2,,50,64
98220,note_on,,1,0,9,,,,,,,,,,,,,,,,11,,69,64
98279,note_on,,59,0,6,,,,,,,,,,,,,,,,3,,78,0
98279,note_on,,59,0,10,,,,,,,,,,,,,,,,12,,66,0
98279,note_on,,59,0,9,,,,,,,,,,,,,,,,11,,69,0
98279,note_on,,59,0,8,,,,,,,,,,,,,,,,10,,78,0
98279,note_on,,59,0,5,,,,,,,,,,,,,,,,2,,50,0
98279,note_on,,0,0,12,,,,,,,,,,,,,,,,15,,50,0
98279,note_on,,0,0,12,,,,,,,,,,,,,,,,15,,62,0
98279,note_on,,0,0,12,,,,,,,,,,,,,,,,15,,66,0
98279,note_on,,59,0,12,,,,,,,,,,,,,,,,15,,69,0
98279,note_on,,59,0,11,,,,,,,,,,,,,,,,13,,50,0
98280,note_on,,1,0,8,,,,,,,,,,,,,,,,10,,78,64
98280,note_on,,0,0,12,,,,,,,,,,,,,,,,15,,50,64
98280,note_on,,0,0,12,,,,,,,,,,,,,,,,15,,69,64
98280,note_on,,0,0,12,,,,,,,,,,,,,,,,15,,74,64
98280,note_on,,1,0,5,,,,,,,,,,,,,,,,2,,50,64
98280,note_on,,1,0,12,,,,,,,,,,,,,,,,15,,66,64
98280,note_on,,1,0,10,,,,,,,,,,,,,,,,12,,66,64
98280,note_on,,1,0,6,,,,,,,,,,,,,,,,3,,78,64
98280,note_on,,1,0,9,,,,,,,,,,,,,,,,11,,69,64
98280,note_on,,1,0,11,,,,,,,,,,,,,,,,13,,50,64
98369,note_on,,89,0,5,,,,,,,,,,,,,,,,2,,50,0
98369,note_on,,89,0,8,,,,,,,,,,,,,,,,10,,78,0
98369,note_on,,89,0,11,,,,,,,,,,,,,,,,13,,50,0
98369,note_on,,89,0,10,,,,,,,,,,,,,,,,12,,66,0
98369,note_on,,89,0,12,,,,,,,,,,,,,,,,15,,50,0
98369,note_on,,89,0,6,,,,,,,,,,,,,,,,3,,78,0
98369,note_on,,89,0,9,,,,,,,,,,,,,,,,11,,69,0
98370,note_on,,1,0,9,,,,,,,,,,,,,,,,11,,69,64
98370,note_on,,1,0,8,,,,,,,,,,,,,,,,10,,78,64
98370,note_on,,1,0,12,,,,,,,,,,,,,,,,15,,50,64
98370,note_on,,1,0,10,,,,,,,,,,,,,,,,12,,66,64
98370,note_on,,1,0,6,,,,,,,,,,,,,,,,3,,78,64
98370,note_on,,1,0,5,,,,,,,,,,,,,,,,2,,50,64
98370,note_on,,1,0,11,,,,,,,,,,,,,,,,13,,50,64
98399,note_on,,29,0,9,,,,,,,,,,,,,,,,11,,69,0
98399,note_on,,29,0,8,,,,,,,,,,,,,,,,10,,78,0
98399,note_on,,29,0,5,,,,,,,,,,,,,,,,2,,50,0
98399,note_on,,29,0,10,,,,,,,,,,,,,,,,12,,66,0
98399,note_on,,29,0,11,,,,,,,,,,,,,,,,13,,50,0
98399,note_on,,29,0,12,,,,,,,,,,,,,,,,15,,66,0
98399,note_on,,0,0,12,,,,,,,,,,,,,,,,15,,69,0
98399,note_on,,0,0,12,,,,,,,,,,,,,,,,15,,74,0
98399,note_on,,0,0,12,,,,,,,,,,,,,,,,15,,50,0
98399,note_on,,29,0,6,,,,,,,,,,,,,,,,3,,78,0
98400,note_on,,1,0,5,,,,,,,,,,,,,,,,2,,50,64
98400,note_on,,1,0,6,,,,,,,,,,,,,,,,3,,81,64
98400,note_on,,0,0,12,,,,,,,,,,,,,,,,15,,78,64
98400,note_on,,1,0,12,,,,,,,,,,,,,,,,15,,74,64
98400,note_on,,1,0,8,,,,,,,,,,,,,,,,10,,81,64
98400,note_on,,0,0,12,,,,,,,,,,,,,,,,15,,50,64
98400,note_on,,0,0,12,,,,,,,,,,,,,,,,15,,69,64
98400,note_on,,1,0,9,,,,,,,,,,,,,,,,11,,66,64
98400,note_on,,1,0,10,,,,,,,,,,,,,,,,12,,66,64
98400,note_on,,1,0,11,,,,,,,,,,,,,,,,13,,50,64
98579,note_on,,179,0,11,,,,,,,,,,,,,,,,13,,50,0
98579,note_on,,179,0,6,,,,,,,,,,,,,,,,3,,81,0
98579,note_on,,179,0,9,,,,,,,,,,,,,,,,11,,66,0
98579,note_on,,179,0,8,,,,,,,,,,,,,,,,10,,81,0
98579,note_on,,179,0,10,,,,,,,,,,,,,,,,12,,66,0
98579,note_on,,179,0,5,,,,,,,,,,,,,,,,2,,50,0
98579,note_on,,179,0,12,,,,,,,,,,,,,,,,15,,50,0
98580,note_on,,1,0,11,,,,,,,,,,,,,,,,13,,50,64
98580,note_on,,1,0,9,,,,,,,,,,,,,,,,11,,66,64
98580,note_on,,1,0,5,,,,,,,,,,,,,,,,2,,50,64
98580,note_on,,1,0,6,,,,,,,,,,,,,,,,3,,81,64
98580,note_on,,1,0,8,,,,,,,,,,,,,,,,10,,81,64
98580,note_on,,1,0,10,,,,,,,,,,,,,,,,12,,66,64
98580,note_on,,1,0,12,,,,,,,,,,,,,,,,15,,50,64
98639,note_on,,59,0,8,,,,,,,,,,,,,,,,10,,81,0
98639,note_on,,0,0,12,,,,,,,,,,,,,,,,15,,69,0
98639,note_on,,0,0,12,,,,,,,,,,,,,,,,15,,50,0
98639,note_on,,59,0,9,,,,,,,,,,,,,,,,11,,66,0
98639,note_on,,59,0,10,,,,,,,,,,,,,,,,12,,66,0
98639,note_on,,0,0,12,,,,,,,,,,,,,,,,15,,78,0
98639,note_on,,59,0,11,,,,,,,,,,,,,,,,13,,50,0
98639,note_on,,59,0,12,,,,,,,,,,,,,,,,15,,74,0
98639,note_on,,59,0,6,,,,,,,,,,,,,,,,3,,81,0
98639,note_on,,59,0,5,,,,,,,,,,,,,,,,2,,50,0
98640,note_on,,1,0,6,,,,,,,,,,,,,,,,3,,81,64
98640,note_on,,0,0,12,,,,,,,,,,,,,,,,15,,62,64
98640,note_on,,1,0,5,,,,,,,,,,,,,,,,2,,50,64
98640,note_on,,1,0,8,,,,,,,,,,,,,,,,10,,81,64
98640,note_on,,0,0,12,,,,,,,,,,,,,,,,15,,66,64
98640,note_on,,1,0,10,,,,,,,,,,,,,,,,12,,66,64
98640,note_on,,0,0,12,,,,,,,,,,,,,,,,15,,69,64
98640,note_on,,1,0,9,,,,,,,,,,,,,,,,11,,66,64
98640,note_on,,1,0,11,,,,,,,,,,,,,,,,13,,50,64
98640,note_on,,1,0,12,,,,,,,,,,,,,,,,15,,50,64
98729,note_on,,89,0,8,,,,,,,,,,,,,,,,10,,81,0
98729,note_on,,89,0,10,,,,,,,,,,,,,,,,12,,66,0
98729,note_on,,89,0,6,,,,,,,,,,,,,,,,3,,81,0
98729,note_on,,89,0,12,,,,,,,,,,,,,,,,15,,50,0
98729,note_on,,89,0,5,,,,,,,,,,,,,,,,2,,50,0
98729,note_on,,89,0,11,,,,,,,,,,,,,,,,13,,50,0
98729,note_on,,89,0,9,,,,,,,,,,,,,,,,11,,66,0
98730,note_on,,1,0,6,,,,,,,,,,,,,,,,3,,81,64
98730,note_on,,1,0,5,,,,,,,,,,,,,,,,2,,50,64
98730,note_on,,1,0,8,,,,,,,,,,,,,,,,10,,81,64
98730,note_on,,1,0,11,,,,,,,,,,,,,,,,13,,50,64
98730,note_on,,1,0,10,,,,,,,,,,,,,,,,12,,66,64
98730,note_on,,1,0,12,,,,,,,,,,,,,,,,15,,50,64
98730,note_on,,1,0,9,,,,,,,,,,,,,,,,11,,66,64
98759,note_on,,29,0,12,,,,,,,,,,,,,,,,15,,69,0
98759,note_on,,0,0,12,,,,,,,,,,,,,,,,15,,62,0
98759,note_on,,0,0,12,,,,,,,,,,,,,,,,15,,66,0
98759,note_on,,29,0,11,,,,,,,,,,,,,,,,13,,50,0
98759,note_on,,0,0,12,,,,,,,,,,,,,,,,15,,50,0
98759,note_on,,29,0,10,,,,,,,,,,,,,,,,12,,66,0
98759,note_on,,29,0,8,,,,,,,,,,,,,,,,10,,81,0
98759,note_on,,29,0,5,,,,,,,,,,,,,,,,2,,50,0
98759,note_on,,29,0,6,,,,,,,,,,,,,,,,3,,81,0
98759,note_on,,29,0,9,,,,,,,,,,,,,,,,11,,66,0
98760,note_on,,0,0,12,,,,,,,,,,,,,,,,15,,66,64
98760,note_on,,1,0,10,,,,,,,,,,,,,,,,12,,66,64
98760,note_on,,1,0,8,,,,,,,,,,,,,,,,10,,86,64
98760,note_on,,0,0,12,,,,,,,,,,,,,,,,15,,69,64
98760,note_on,,1,0,12,,,,,,,,,,,,,,,,15,,74,64
98760,note_on,,0,0,12,,,,,,,,,,,,,,,,15,,50,64
98760,note_on,,1,0,5,,,,,,,,,,,,,,,,2,,50,64
98760,note_on,,1,0,6,,,,,,,,,,,,,,,,3,,78,64
98760,note_on,,1,0,11,,,,,,,,,,,,,,,,13,,50,64
98760,note_on,,1,0,9,,,,,,,,,,,,,,,,11,,69,64
98879,note_on,,0,0,12,,,,,,,,,,,,,,,,15,,50,0
98879,note_on,,119,0,10,,,,,,,,,,,,,,,,12,,66,0
98879,note_on,,0,0,12,,,,,,,,,,,,,,,,15,,66,0
98879,note_on,,119,0,8,,,,,,,,,,,,,,,,10,,86,0
98879,note_on,,0,0,12,,,,,,,,,,,,,,,,15,,69,0
98879,note_on,,119,0,12,,,,,,,,,,,,,,,,15,,74,0
98879,note_on,,119,0,6,,,,,,,,,,,,,,,,3,,78,0
98879,note_on,,119,0,11,,,,,,,,,,,,,,,,13,,50,0
98879,note_on,,119,0,5,,,,,,,,,,,,,,,,2,,50,0
98879,note_on,,119,0,9,,,,,,,,,,,,,,,,11,,69,0
98880,note_on,,1,0,6,,,,,,,,,,,,,,,,3,,74,64
98939,note_on,,59,0,6,,,,,,,,,,,,,,,,3,,74,0
98940,note_on,,61,0,11,,,,,,,,,,,,,,,,13,,54,64
98940,note_on,,61,0,12,,,,,,,,,,,,,,,,15,,54,64
98940,note_on,,61,0,5,,,,,,,,,,,,,,,,2,,54,64
98940,note_on,,61,0,8,,,,,,,,,,,,,,,,10,,81,64
98999,note_on,,59,0,5,,,,,,,,,,,,,,,,2,,54,0
98999,note_on,,59,0,8,,,,,,,,,,,,,,,,10,,81,0
98999,note_on,,59,0,11,,,,,,,,,,,,,,,,13,,54,0
98999,note_on,,59,0,12,,,,,,,,,,,,,,,,15,,54,0
99000,note_on,,1,0,8,,,,,,,,,,,,,,,,10,,79,64
99000,note_on,,1,0,11,,,,,,,,,,,,,,,,13,,52,64
99000,note_on,,1,0,12,,,,,,,,,,,,,,,,15,,52,64
99000,note_on,,1,0,5,,,,,,,,,,,,,,,,2,,52,64
99059,note_on,,59,0,8,,,,,,,,,,,,,,,,10,,79,0
99059,note_on,,59,0,5,,,,,,,,,,,,,,,,2,,52,0
99059,note_on,,59,0,11,,,,,,,,,,,,,,,,13,,52,0
99059,note_on,,59,0,12,,,,,,,,,,,,,,,,15,,52,0
99060,note_on,,1,0,5,,,,,,,,,,,,,,,,2,,54,64
99060,note_on,,1,0,11,,,,,,,,,,,,,,,,13,,54,64
99060,note_on,,0,0,12,,,,,,,,,,,,,,,,15,,74,64
99060,note_on,,0,0,12,,,,,,,,,,,,,,,,15,,62,64
99060,note_on,,0,0,12,,,,,,,,,,,,,,,,15,,54,64
99060,note_on,,181,0,10,,,,,,,,,,,,,,,,12,,66,64
99060,note_on,,1,0,12,,,,,,,,,,,,,,,,15,,69,64
99060,note_on,,1,0,8,,,,,,,,,,,,,,,,10,,81,64
99060,note_on,,181,0,9,,,,,,,,,,,,,,,,11,,74,64
99119,note_on,,59,0,8,,,,,,,,,,,,,,,,10,,81,0
99119,note_on,,59,0,5,,,,,,,,,,,,,,,,2,,54,0
99119,note_on,,0,0,12,,,,,,,,,,,,,,,,15,,62,0
99119,note_on,,0,0,12,,,,,,,,,,,,,,,,15,,54,0
99119,note_on,,59,0,12,,,,,,,,,,,,,,,,15,,69,0
99119,note_on,,59,0,10,,,,,,,,,,,,,,,,12,,66,0
99119,note_on,,1079,0,7,,,,,,,,,,,,,,,,8,,62,0
99119,note_on,,59,0,11,,,,,,,,,,,,,,,,13,,54,0
99119,note_on,,59,0,9,,,,,,,,,,,,,,,,11,,74,0
99119,note_on,,0,0,12,,,,,,,,,,,,,,,,15,,74,0
99120,note_on,,0,0,12,,,,,,,,,,,,,,,,15,,62,64
99120,note_on,,0,0,12,,,,,,,,,,,,,,,,15,,71,64
99120,note_on,,0,0,12,,,,,,,,,,,,,,,,15,,55,64
99120,note_on,,1,0,8,,,,,,,,,,,,,,,,10,,83,64
99120,note_on,,1,0,12,,,,,,,,,,,,,,,,15,,67,64
99120,note_on,,1,0,5,,,,,,,,,,,,,,,,2,,55,64
99120,note_on,,1,0,10,,,,,,,,,,,,,,,,12,,62,64
99120,note_on,,1,0,9,,,,,,,,,,,,,,,,11,,67,64
99120,note_on,,1,0,11,,,,,,,,,,,,,,,,13,,55,64
99179,note_on,,59,0,10,,,,,,,,,,,,,,,,12,,62,0
99179,note_on,,59,0,8,,,,,,,,,,,,,,,,10,,83,0
99180,note_on,,1,0,10,,,,,,,,,,,,,,,,12,,64,64
99180,note_on,,1,0,8,,,,,,,,,,,,,,,,10,,85,64
99239,note_on,,0,0,12,,,,,,,,,,,,,,,,15,,55,0
99239,note_on,,0,0,12,,,,,,,,,,,,,,,,15,,71,0
99239,note_on,,59,0,10,,,,,,,,,,,,,,,,12,,64,0
99239,note_on,,0,0,12,,,,,,,,,,,,,,,,15,,62,0
99239,note_on,,119,0,12,,,,,,,,,,,,,,,,15,,67,0
99239,note_on,,119,0,9,,,,,,,,,,,,,,,,11,,67,0
99239,note_on,,119,0,11,,,,,,,,,,,,,,,,13,,55,0
99239,note_on,,59,0,8,,,,,,,,,,,,,,,,10,,85,0
99239,note_on,,119,0,5,,,,,,,,,,,,,,,,2,,55,0
99240,note_on,,1,0,8,,,,,,,,,,,,,,,,10,,86,64
99240,note_on,,0,0,12,,,,,,,,,,,,,,,,15,,54,64
99240,note_on,,0,0,12,,,,,,,,,,,,,,,,15,,69,64
99240,note_on,,1,0,12,,,,,,,,,,,,,,,,15,,62,64
99240,note_on,,1,0,9,,,,,,,,,,,,,,,,11,,69,64
99240,note_on,,1,0,11,,,,,,,,,,,,,,,,13,,54,64
99240,note_on,,1,0,5,,,,,,,,,,,,,,,,2,,54,64
99240,note_on,,1,0,10,,,,,,,,,,,,,,,,12,,66,64
99359,note_on,,119,0,9,,,,,,,,,,,,,,,,11,,69,0
99359,note_on,,119,0,11,,,,,,,,,,,,,,,,13,,54,0
99359,note_on,,0,0,12,,,,,,,,,,,,,,,,15,,54,0
99359,note_on,,119,0,10,,,,,,,,,,,,,,,,12,,66,0
99359,note_on,,119,0,8,,,,,,,,,,,,,,,,10,,86,0
99359,note_on,,119,0,5,,,,,,,,,,,,,,,,2,,54,0
99359,note_on,,119,0,12,,,,,,,,,,,,,,,,15,,62,0
99359,note_on,,0,0,12,,,,,,,,,,,,,,,,15,,69,0
99360,note_on,,0,0,12,,,,,,,,,,,,,,,,15,,66,64
99360,note_on,,0,0,12,,,,,,,,,,,,,,,,15,,50,64
99360,note_on,,0,0,12,,,,,,,,,,,,,,,,15,,69,64
99360,note_on,,1,0,5,,,,,,,,,,,,,,,,2,,50,64
99360,note_on,,241,0,7,,,,,,,,,,,,,,,,8,,57,72
99360,note_on,,1,0,12,,,,,,,,,,,,,,,,15,,74,64
99360,note_on,,1,0,11,,,,,,,,,,,,,,,,13,,50,64
99479,note_on,,119,0,11,,,,,,,,,,,,,,,,13,,50,0
99479,note_on,,119,0,12,,,,,,,,,,,,,,,,15,,74,0
99479,note_on,,0,0,12,,,,,,,,,,,,,,,,15,,69,0
99479,note_on,,0,0,12,,,,,,,,,,,,,,,,15,,50,0
99479,note_on,,119,0,7,,,,,,,,,,,,,,,,8,,57,0
99479,note_on,,119,0,5,,,,,,,,,,,,,,,,2,,50,0
99479,note_on,,0,0,12,,,,,,,,,,,,,,,,15,,66,0
99480,note_on,,1,0,7,,,,,,,,,,,,,,,,8,,59,72
99480,note_on,,1,0,12,,,,,,,,,,,,,,,,15,,59,64
99480,note_on,,1,0,11,,,,,,,,,,,,,,,,13,,59,64
99480,note_on,,0,0,12,,,,,,,,,,,,,,,,15,,62,64
99480,note_on,,0,0,12,,,,,,,,,,,,,,,,15,,74,64
99480,note_on,,0,0,12,,,,,,,,,,,,,,,,15,,67,64
99480,note_on,,1,0,5,,,,,,,,,,,,,,,,2,,59,64
99539,note_on,,59,0,12,,,,,,,,,,,,,,,,15,,59,0
99539,note_on,,59,0,5,,,,,,,,,,,,,,,,2,,59,0
99539,note_on,,59,0,11,,,,,,,,,,,,,,,,13,,59,0
99539,note_on,,59,0,7,,,,,,,,,,,,,,,,8,,59,0
99540,note_on,,1,0,5,,,,,,,,,,,,,,,,2,,61,64
99540,note_on,,1,0,7,,,,,,,,,,,,,,,,8,,61,72
99540,note_on,,1,0,11,,,,,,,,,,,,,,,,13,,61,64
99540,note_on,,1,0,12,,,,,,,,,,,,,,,,15,,61,64
99599,note_on,,0,0,12,,,,,,,,,,,,,,,,15,,62,0
99599,note_on,,59,0,5,,,,,,,,,,,,,,,,2,,61,0
99599,note_on,,59,0,11,,,,,,,,,,,,,,,,13,,61,0
99599,note_on,,59,0,7,,,,,,,,,,,,,,,,8,,61,0
99599,note_on,,0,0,12,,,,,,,,,,,,,,,,15,,61,0
99599,note_on,,0,0,12,,,,,,,,,,,,,,,,15,,74,0
99599,note_on,,59,0,12,,,,,,,,,,,,,,,,15,,67,0
99600,note_on,,0,0,12,,,,,,,,,,,,,,,,15,,74,64
99600,note_on,,0,0,12,,,,,,,,,,,,,,,,15,,62,64
99600,note_on,,0,0,12,,,,,,,,,,,,,,,,15,,78,64
99600,note_on,,1,0,11,,,,,,,,,,,,,,,,13,,62,64
99600,note_on,,1,0,7,,,,,,,,,,,,,,,,8,,62,72
99600,note_on,,1,0,5,,,,,,,,,,,,,,,,2,,62,64
99600,note_on,,1,0,12,,,,,,,,,,,,,,,,15,,69,64
99660,note_on,,301,0,8,,,,,,,,,,,,,,,,10,,81,64
99719,note_on,,119,0,7,,,,,,,,,,,,,,,,8,,62,0
99719,note_on,,119,0,11,,,,,,,,,,,,,,,,13,,62,0
99719,note_on,,0,0,12,,,,,,,,,,,,,,,,15,,74,0
99719,note_on,,59,0,8,,,,,,,,,,,,,,,,10,,81,0
99719,note_on,,0,0,12,,,,,,,,,,,,,,,,15,,78,0
99719,note_on,,119,0,12,,,,,,,,,,,,,,,,15,,69,0
99719,note_on,,119,0,5,,,,,,,,,,,,,,,,2,,62,0
99719,note_on,,0,0,12,,,,,,,,,,,,,,,,15,,62,0
99720,note_on,,0,0,12,,,,,,,,,,,,,,,,15,,74,64
99720,note_on,,1,0,8,,,,,,,,,,,,,,,,10,,79,64
99720,note_on,,0,0,12,,,,,,,,,,,,,,,,15,,62,64
99720,note_on,,1,0,7,,,,,,,,,,,,,,,,8,,54,72
99720,note_on,,1,0,11,,,,,,,,,,,,,,,,13,,54,64
99720,note_on,,1,0,5,,,,,,,,,,,,,,,,2,,54,64
99720,note_on,,1,0,12,,,,,,,,,,,,,,,,15,,69,64
99720,note_on,,0,0,12,,,,,,,,,,,,,,,,15,,54,64
99779,note_on,,59,0,8,,,,,,,,,,,,,,,,10,,79,0
99780,note_on,,1,0,8,,,,,,,,,,,,,,,,10,,81,64
99780,note_on,,421,0,10,,,,,,,,,,,,,,,,12,,66,64
99780,note_on,,421,0,9,,,,,,,,,,,,,,,,11,,74,64
99839,note_on,,0,0,12,,,,,,,,,,,,,,,,15,,54,0
99839,note_on,,119,0,12,,,,,,,,,,,,,,,,15,,69,0
99839,note_on,,0,0,12,,,,,,,,,,,,,,,,15,,74,0
99839,note_on,,0,0,12,,,,,,,,,,,,,,,,15,,62,0
99839,note_on,,59,0,10,,,,,,,,,,,,,,,,12,,66,0
99839,note_on,,119,0,7,,,,,,,,,,,,,,,,8,,54,0
99839,note_on,,59,0,8,,,,,,,,,,,,,,,,10,,81,0
99839,note_on,,119,0,5,,,,,,,,,,,,,,,,2,,54,0
99839,note_on,,59,0,9,,,,,,,,,,,,,,,,11,,74,0
99839,note_on,,119,0,11,,,,,,,,,,,,,,,,13,,54,0
99840,note_on,,0,0,12,,,,,,,,,,,,,,,,15,,71,64
99840,note_on,,1,0,12,,,,,,,,,,,,,,,,15,,62,64
99840,note_on,,0,0,12,,,,,,,,,,,,,,,,15,,55,64
99840,note_on,,0,0,12,,,,,,,,,,,,,,,,15,,67,64
99840,note_on,,1,0,10,,,,,,,,,,,,,,,,12,,62,64
99840,note_on,,1,0,11,,,,,,,,,,,,,,,,13,,55,64
99840,note_on,,1,0,7,,,,,,,,,,,,,,,,8,,55,72
99840,note_on,,1,0,5,,,,,,,,,,,,,,,,2,,55,64
99840,note_on,,1,0,8,,,,,,,,,,,,,,,,10,,83,64
99840,note_on,,1,0,9,,,,,,,,,,,,,,,,11,,67,64
99899,note_on,,59,0,7,,,,,,,,,,,,,,,,8,,55,0
99899,note_on,,59,0,10,,,,,,,,,,,,,,,,12,,62,0
99899,note_on,,59,0,8,,,,,,,,,,,,,,,,10,,83,0
99900,note_on,,1,0,7,,,,,,,,,,,,,,,,8,,50,72
99900,note_on,,1,0,10,,,,,,,,,,,,,,,,12,,64,64
99900,note_on,,1,0,8,,,,,,,,,,,,,,,,10,,85,64
99959,note_on,,119,0,5,,,,,,,,,,,,,,,,2,,55,0
99959,note_on,,119,0,12,,,,,,,,,,,,,,,,15,,62,0
99959,note_on,,0,0,12,,,,,,,,,,,,,,,,15,,55,0
99959,note_on,,59,0,8,,,,,,,,,,,,,,,,10,,85,0
99959,note_on,,119,0,11,,,,,,,,,,,,,,,,13,,55,0
99959,note_on,,0,0,12,,,,,,,,,,,,,,,,15,,71,0
99959,note_on,,59,0,10,,,,,,,,,,,,,,,,12,,64,0
99959,note_on,,59,0,7,,,,,,,,,,,,,,,,8,,50,0
99959,note_on,,119,0,9,,,,,,,,,,,,,,,,11,,67,0
99959,note_on,,0,0,12,,,,,,,,,,,,,,,,15,,67,0
99960,note_on,,1,0,11,,,,,,,,,,,,,,,,13,,50,64
99960,note_on,,1,0,12,,,,,,,,,,,,,,,,15,,50,64
99960,note_on,,0,0,12,,,,,,,,,,,,,,,,15,,66,64
99960,note_on,,0,0,12,,,,,,,,,,,,,,,,15,,69,64
99960,note_on,,0,0,12,,,,,,,,,,,,,,,,15,,62,64
99960,note_on,,1,0,5,,,,,,,,,,,,,,,,2,,50,64
99960,note_on,,1,0,7,,,,,,,,,,,,,,,,8,,50,72
99960,note_on,,1,0,8,,,,,,,,,,,,,,,,10,,86,64
99960,note_on,,1,0,10,,,,,,,,,,,,,,,,12,,66,64
99960,note_on,,1,0,9,,,,,,,,,,,,,,,,11,,69,64
100019,note_on,,59,0,9,,,,,,,,,,,,,,,,11,,69,0
100019,note_on,,59,0,8,,,,,,,,,,,,,,,,10,,86,0
100020,note_on,,1,0,9,,,,,,,,,,,,,,,,11,,66,64
100020,note_on,,1,0,8,,,,,,,,,,,,,,,,10,,81,64
100079,note_on,,0,0,12,,,,,,,,,,,,,,,,15,,66,0
100079,note_on,,119,0,12,,,,,,,,,,,,,,,,15,,50,0
100079,note_on,,119,0,7,,,,,,,,,,,,,,,,8,,50,0
100079,note_on,,119,0,10,,,,,,,,,,,,,,,,12,,66,0
100079,note_on,,59,0,8,,,,,,,,,,,,,,,,10,,81,0
100079,note_on,,119,0,5,,,,,,,,,,,,,,,,2,,50,0
100079,note_on,,59,0,9,,,,,,,,,,,,,,,,11,,66,0
100079,note_on,,119,0,11,,,,,,,,,,,,,,,,13,,50,0
100079,note_on,,0,0,12,,,,,,,,,,,,,,,,15,,69,0
100079,note_on,,0,0,12,,,,,,,,,,,,,,,,15,,62,0
100080,note_on,,0,0,12,,,,,,,,,,,,,,,,15,,57,64
100080,note_on,,0,0,12,,,,,,,,,,,,,,,,15,,54,64
100080,note_on,,1,0,9,,,,,,,,,,,,,,,,11,,64,64
100080,note_on,,0,0,12,,,,,,,,,,,,,,,,15,,66,64
100080,note_on,,1,0,10,,,,,,,,,,,,,,,,12,,57,64
100080,note_on,,1,0,8,,,,,,,,,,,,,,,,10,,79,64
100080,note_on,,1,0,5,,,,,,,,,,,,,,,,2,,54,64
100080,note_on,,1,0,11,,,,,,,,,,,,,,,,13,,54,64
100080,note_on,,1,0,12,,,,,,,,,,,,,,,,15,,62,64
100139,note_on,,59,0,9,,,,,,,,,,,,,,,,11,,64,0
100139,note_on,,59,0,8,,,,,,,,,,,,,,,,10,,79,0
100140,note_on,,1,0,9,,,,,,,,,,,,,,,,11,,66,64
100140,note_on,,1,0,8,,,,,,,,,,,,,,,,10,,81,64
100199,note_on,,119,0,12,,,,,,,,,,,,,,,,15,,62,0
100199,note_on,,0,0,12,,,,,,,,,,,,,,,,15,,54,0
100199,note_on,,0,0,12,,,,,,,,,,,,,,,,15,,66,0
100199,note_on,,119,0,11,,,,,,,,,,,,,,,,13,,54,0
100199,note_on,,59,0,8,,,,,,,,,,,,,,,,10,,81,0
100199,note_on,,119,0,10,,,,,,,,,,,,,,,,12,,57,0
100199,note_on,,119,0,5,,,,,,,,,,,,,,,,2,,54,0
100199,note_on,,0,0,12,,,,,,,,,,,,,,,,15,,57,0
100199,note_on,,59,0,9,,,,,,,,,,,,,,,,11,,66,0
100200,note_on,,1,0,12,,,,,,,,,,,,,,,,15,,55,64
100200,note_on,,0,0,12,,,,,,,,,,,,,,,,15,,62,64
100200,note_on,,1,0,11,,,,,,,,,,,,,,,,13,,55,64
100200,note_on,,0,0,12,,,,,,,,,,,,,,,,15,,59,64
100200,note_on,,1,0,8,,,,,,,,,,,,,,,,10,,83,64
100200,note_on,,1,0,5,,,,,,,,,,,,,,,,2,,55,64
100200,note_on,,1,0,10,,,,,,,,,,,,,,,,12,,62,64
100200,note_on,,1,0,9,,,,,,,,,,,,,,,,11,,67,64
100259,note_on,,59,0,10,,,,,,,,,,,,,,,,12,,62,0
100259,note_on,,59,0,8,,,,,,,,,,,,,,,,10,,83,0
100260,note_on,,1,0,8,,,,,,,,,,,,,,,,10,,85,64
100260,note_on,,1,0,10,,,,,,,,,,,,,,,,12,,64,64
100319,note_on,,59,0,8,,,,,,,,,,,,,,,,10,,85,0
100319,note_on,,119,0,5,,,,,,,,,,,,,,,,2,,55,0
100319,note_on,,119,0,12,,,,,,,,,,,,,,,,15,,55,0
100319,note_on,,0,0,12,,,,,,,,,,,,,,,,15,,62,0
100319,note_on,,0,0,12,,,,,,,,,,,,,,,,15,,59,0
100319,note_on,,59,0,10,,,,,,,,,,,,,,,,12,,64,0
100319,note_on,,119,0,9,,,,,,,,,,,,,,,,11,,67,0
100319,note_on,,119,0,11,,,,,,,,,,,,,,,,13,,55,0
100320,note_on,,1,0,8,,,,,,,,,,,,,,,,10,,86,64
100320,note_on,,1,0,10,,,,,,,,,,,,,,,,12,,66,64
100320,note_on,,1,0,12,,,,,,,,,,,,,,,,15,,50,64
100320,note_on,,0,0,12,,,,,,,,,,,,,,,,15,,66,64
100320,note_on,,0,0,12,,,,,,,,,,,,,,,,15,,57,64
100320,note_on,,1,0,5,,,,,,,,,,,,,,,,2,,50,64
100320,note_on,,1,0,9,,,,,,,,,,,,,,,,11,,69,64
100320,note_on,,1,0,11,,,,,,,,,,,,,,,,13,,50,64
100320,note_on,,0,0,12,,,,,,,,,,,,,,,,15,,62,64
100380,note_on,,1441,0,6,,,,,,,,,,,,,,,,3,,76,64
100439,note_on,,119,0,12,,,,,,,,,,,,,,,,15,,50,0
100439,note_on,,59,0,6,,,,,,,,,,,,,,,,3,,76,0
100439,note_on,,119,0,10,,,,,,,,,,,,,,,,12,,66,0
100439,note_on,,119,0,11,,,,,,,,,,,,,,,,13,,50,0
100439,note_on,,119,0,5,,,,,,,,,,,,,,,,2,,50,0
100439,note_on,,119,0,8,,,,,,,,,,,,,,,,10,,86,0
100439,note_on,,119,0,9,,,,,,,,,,,,,,,,11,,69,0
100440,note_on,,1,0,5,,,,,,,,,,,,,,,,2,,57,64
100440,note_on,,1,0,11,,,,,,,,,,,,,,,,13,,57,64
100440,note_on,,1,0,12,,,,,,,,,,,,,,,,15,,57,64
100440,note_on,,361,0,7,,,,,,,,,,,,,,,,8,,57,72
100440,note_on,,1,0,6,,,,,,,,,,,,,,,,3,,74,64
100499,note_on,,59,0,6,,,,,,,,,,,,,,,,3,,74,0
100500,note_on,,1,0,6,,,,,,,,,,,,,,,,3,,76,64
100559,note_on,,119,0,5,,,,,,,,,,,,,,,,2,,57,0
100559,note_on,,0,0,12,,,,,,,,,,,,,,,,15,,57,0
100559,note_on,,119,0,7,,,,,,,,,,,,,,,,8,,57,0
100559,note_on,,0,0,12,,,,,,,,,,,,,,,,15,,66,0
100559,note_on,,0,0,12,,,,,,,,,,,,,,,,15,,57,0
100559,note_on,,119,0,12,,,,,,,,,,,,,,,,15,,62,0
100559,note_on,,59,0,6,,,,,,,,,,,,,,,,3,,76,0
100559,note_on,,119,0,11,,,,,,,,,,,,,,,,13,,57,0
100560,note_on,,1,0,11,,,,,,,,,,,,,,,,13,,62,64
100560,note_on,,1,0,7,,,,,,,,,,,,,,,,8,,62,72
100560,note_on,,1,0,5,,,,,,,,,,,,,,,,2,,62,64
100560,note_on,,1,0,6,,,,,,,,,,,,,,,,3,,78,64
100560,note_on,,1,0,12,,,,,,,,,,,,,,,,15,,69,64
100560,note_on,,0,0,12,,,,,,,,,,,,,,,,15,,66,64
100560,note_on,,0,0,12,,,,,,,,,,,,,,,,15,,62,64
100619,note_on,,59,0,6,,,,,,,,,,,,,,,,3,,78,0
100620,note_on,,1,0,6,,,,,,,,,,,,,,,,3,,79,64
100679,note_on,,0,0,12,,,,,,,,,,,,,,,,15,,66,0
100679,note_on,,119,0,11,,,,,,,,,,,,,,,,13,,62,0
100679,note_on,,59,0,6,,,,,,,,,,,,,,,,3,,79,0
100679,note_on,,119,0,5,,,,,,,,,,,,,,,,2,,62,0
100679,note_on,,119,0,12,,,,,,,,,,,,,,,,15,,69,0
100679,note_on,,119,0,7,,,,,,,,,,,,,,,,8,,62,0
100679,note_on,,0,0,12,,,,,,,,,,,,,,,,15,,62,0
100680,note_on,,1,0,7,,,,,,,,,,,,,,,,8,,61,72
100680,note_on,,1,0,11,,,,,,,,,,,,,,,,13,,61,64
100680,note_on,,1,0,6,,,,,,,,,,,,,,,,3,,81,64
100680,note_on,,1,0,5,,,,,,,,,,,,,,,,2,,61,64
100680,note_on,,0,0,12,,,,,,,,,,,,,,,,15,,76,64
100680,note_on,,0,0,12,,,,,,,,,,,,,,,,15,,69,64
100680,note_on,,1,0,12,,,,,,,,,,,,,,,,15,,64,64
100680,note_on,,0,0,12,,,,,,,,,,,,,,,,15,,61,64
100739,note_on,,59,0,6,,,,,,,,,,,,,,,,3,,81,0
100740,note_on,,301,0,10,,,,,,,,,,,,,,,,12,,57,64
100740,note_on,,301,0,8,,,,,,,,,,,,,,,,10,,76,64
100799,note_on,,0,0,12,,,,,,,,,,,,,,,,15,,69,0
100799,note_on,,59,0,10,,,,,,,,,,,,,,,,12,,57,0
100799,note_on,,119,0,5,,,,,,,,,,,,,,,,2,,61,0
100799,note_on,,0,0,12,,,,,,,,,,,,,,,,15,,76,0
100799,note_on,,119,0,7,,,,,,,,,,,,,,,,8,,61,0
100799,note_on,,59,0,8,,,,,,,,,,,,,,,,10,,76,0
100799,note_on,,0,0,12,,,,,,,,,,,,,,,,15,,61,0
100799,note_on,,119,0,11,,,,,,,,,,,,,,,,13,,61,0
100799,note_on,,119,0,12,,,,,,,,,,,,,,,,15,,64,0
100800,note_on,,1,0,5,,,,,,,,,,,,,,,,2,,57,64
100800,note_on,,1,0,11,,,,,,,,,,,,,,,,13,,57,64
100800,note_on,,1,0,8,,,,,,,,,,,,,,,,10,,74,64
100800,note_on,,361,0,9,,,,,,,,,,,,,,,,11,,69,64
100800,note_on,,0,0,12,,,,,,,,,,,,,,,,15,,69,64
100800,note_on,,0,0,12,,,,,,,,,,,,,,,,15,,64,64
100800,note_on,,0,0,12,,,,,,,,,,,,,,,,15,,57,64
100800,note_on,,1,0,12,,,,,,,,,,,,,,,,15,,73,64
100800,note_on,,1,0,10,,,,,,,,,,,,,,,,12,,59,64
100800,note_on,,1,0,7,,,,,,,,,,,,,,,,8,,57,72
100859,note_on,,59,0,8,,,,,,,,,,,,,,,,10,,74,0
100859,note_on,,59,0,10,,,,,,,,,,,,,,,,12,,59,0
100860,note_on,,1,0,8,,,,,,,,,,,,,,,,10,,76,64
100860,note_on,,1,0,10,,,,,,,,,,,,,,,,12,,61,64
100919,note_on,,119,0,5,,,,,,,,,,,,,,,,2,,57,0
100919,note_on,,119,0,11,,,,,,,,,,,,,,,,13,,57,0
100919,note_on,,119,0,9,,,,,,,,,,,,,,,,11,,69,0
100919,note_on,,0,0,12,,,,,,,,,,,,,,,,15,,69,0
100919,note_on,,59,0,8,,,,,,,,,,,,,,,,10,,76,0
100919,note_on,,0,0,12,,,,,,,,,,,,,,,,15,,64,0
100919,note_on,,119,0,7,,,,,,,,,,,,,,,,8,,57,0
100919,note_on,,0,0,12,,,,,,,,,,,,,,,,15,,57,0
100919,note_on,,119,0,12,,,,,,,,,,,,,,,,15,,73,0
100919,note_on,,59,0,10,,,,,,,,,,,,,,,,12,,61,0
100920,note_on,,1,0,11,,,,,,,,,,,,,,,,13,,62,64
100920,note_on,,1,0,9,,,,,,,,,,,,,,,,11,,69,64
100920,note_on,,1,0,7,,,,,,,,,,,,,,,,8,,62,72
100920,note_on,,1,0,5,,,,,,,,,,,,,,,,2,,62,64
100920,note_on,,0,0,12,,,,,,,,,,,,,,,,15,,66,64
100920,note_on,,0,0,12,,,,,,,,,,,,,,,,15,,69,64
100920,note_on,,1,0,12,,,,,,,,,,,,,,,,15,,62,64
100920,note_on,,1,0,8,,,,,,,,,,,,,,,,10,,78,64
100920,note_on,,1,0,10,,,,,,,,,,,,,,,,12,,62,64
100979,note_on,,59,0,8,,,,,,,,,,,,,,,,10,,78,0
100979,note_on,,59,0,7,,,,,,,,,,,,,,,,8,,62,0
100979,note_on,,59,0,9,,,,,,,,,,,,,,,,11,,69,0
100980,note_on,,1,0,8,,,,,,,,,,,,,,,,10,,79,64
100980,note_on,,1,0,7,,,,,,,,,,,,,,,,8,,57,72
100980,note_on,,1,0,9,,,,,,,,,,,,,,,,11,,71,64
101039,note_on,,119,0,10,,,,,,,,,,,,,,,,12,,62,0
101039,note_on,,59,0,7,,,,,,,,,,,,,,,,8,,57,0
101039,note_on,,59,0,8,,,,,,,,,,,,,,,,10,,79,0
101039,note_on,,0,0,12,,,,,,,,,,,,,,,,15,,69,0
101039,note_on,,0,0,12,,,,,,,,,,,,,,,,15,,66,0
101039,note_on,,119,0,12,,,,,,,,,,,,,,,,15,,62,0
101039,note_on,,119,0,5,,,,,,,,,,,,,,,,2,,62,0
101039,note_on,,119,0,11,,,,,,,,,,,,,,,,13,,62,0
101039,note_on,,59,0,9,,,,,,,,,,,,,,,,11,,71,0
101040,note_on,,1,0,8,,,,,,,,,,,,,,,,10,,81,64
101040,note_on,,1,0,9,,,,,,,,,,,,,,,,11,,73,64
101040,note_on,,0,0,12,,,,,,,,,,,,,,,,15,,57,64
101040,note_on,,0,0,12,,,,,,,,,,,,,,,,15,,64,64
101040,note_on,,0,0,12,,,,,,,,,,,,,,,,15,,73,64
101040,note_on,,1,0,12,,,,,,,,,,,,,,,,15,,69,64
101040,note_on,,1,0,5,,,,,,,,,,,,,,,,2,,57,64
101040,note_on,,1,0,11,,,,,,,,,,,,,,,,13,,57,64
101040,note_on,,1,0,7,,,,,,,,,,,,,,,,8,,57,72
101040,note_on,,1,0,10,,,,,,,,,,,,,,,,12,,64,64
101100,note_on,,361,0,6,,,,,,,,,,,,,,,,3,,76,64
101159,note_on,,119,0,12,,,,,,,,,,,,,,,,15,,69,0
101159,note_on,,119,0,11,,,,,,,,,,,,,,,,13,,57,0
101159,note_on,,119,0,5,,,,,,,,,,,,,,,,2,,57,0
101159,note_on,,0,0,12,,,,,,,,,,,,,,,,15,,73,0
101159,note_on,,119,0,8,,,,,,,,,,,,,,,,10,,81,0
101159,note_on,,119,0,10,,,,,,,,,,,,,,,,12,,64,0
101159,note_on,,119,0,7,,,,,,,,,,,,,,,,8,,57,0
101159,note_on,,119,0,9,,,,,,,,,,,,,,,,11,,73,0
101159,note_on,,59,0,6,,,,,,,,,,,,,,,,3,,76,0
101159,note_on,,0,0,12,,,,,,,,,,,,,,,,15,,64,0
101159,note_on,,0,0,12,,,,,,,,,,,,,,,,15,,57,0
101160,note_on,,0,0,12,,,,,,,,,,,,,,,,15,,61,64
101160,note_on,,0,0,12,,,,,,,,,,,,,,,,15,,64,64
101160,note_on,,1,0,6,,,,,,,,,,,,,,,,3,,74,64
101160,note_on,,1,0,11,,,,,,,,,,,,,,,,13,,61,64
101160,note_on,,1,0,12,,,,,,,,,,,,,,,,15,,69,64
101160,note_on,,1,0,5,,,,,,,,,,,,,,,,2,,61,64
101219,note_on,,59,0,6,,,,,,,,,,,,,,,,3,,74,0
101220,note_on,,1,0,6,,,,,,,,,,,,,,,,3,,76,64
101279,note_on,,59,0,6,,,,,,,,,,,,,,,,3,,76,0
101279,note_on,,0,0,12,,,,,,,,,,,,,,,,15,,61,0
101279,note_on,,119,0,12,,,,,,,,,,,,,,,,15,,64,0
101279,note_on,,119,0,11,,,,,,,,,,,,,,,,13,,61,0
101279,note_on,,119,0,5,,,,,,,,,,,,,,,,2,,61,0
101280,note_on,,0,0,12,,,,,,,,,,,,,,,,15,,66,64
101280,note_on,,1,0,6,,,,,,,,,,,,,,,,3,,78,64
101280,note_on,,1,0,12,,,,,,,,,,,,,,,,15,,62,64
101280,note_on,,1,0,5,,,,,,,,,,,,,,,,2,,62,64
101280,note_on,,1,0,11,,,,,,,,,,,,,,,,13,,62,64
101339,note_on,,59,0,6,,,,,,,,,,,,,,,,3,,78,0
101340,note_on,,1,0,6,,,,,,,,,,,,,,,,3,,79,64
101399,note_on,,119,0,12,,,,,,,,,,,,,,,,15,,69,0
101399,note_on,,0,0,12,,,,,,,,,,,,,,,,15,,66,0
101399,note_on,,0,0,12,,,,,,,,,,,,,,,,15,,62,0
101399,note_on,,59,0,6,,,,,,,,,,,,,,,,3,,79,0
101399,note_on,,119,0,11,,,,,,,,,,,,,,,,13,,62,0
101399,note_on,,119,0,5,,,,,,,,,,,,,,,,2,,62,0
101400,note_on,,0,0,12,,,,,,,,,,,,,,,,15,,61,64
101400,note_on,,0,0,12,,,,,,,,,,,,,,,,15,,64,64
101400,note_on,,1,0,6,,,,,,,,,,,,,,,,3,,81,64
101400,note_on,,1,0,5,,,,,,,,,,,,,,,,2,,61,64
101400,note_on,,1,0,12,,,,,,,,,,,,,,,,15,,73,64
101400,note_on,,1,0,11,,,,,,,,,,,,,,,,13,,61,64
101400,note_on,,0,0,12,,,,,,,,,,,,,,,,15,,69,64
101459,note_on,,59,0,6,,,,,,,,,,,,,,,,3,,81,0
101460,note_on,,301,0,8,,,,,,,,,,,,,,,,10,,76,64
101460,note_on,,301,0,10,,,,,,,,,,,,,,,,12,,57,64
101519,note_on,,59,0,8,,,,,,,,,,,,,,,,10,,76,0
101519,note_on,,0,0,12,,,,,,,,,,,,,,,,15,,69,0
101519,note_on,,0,0,12,,,,,,,,,,,,,,,,15,,61,0
101519,note_on,,119,0,5,,,,,,,,,,,,,,,,2,,61,0
101519,note_on,,59,0,10,,,,,,,,,,,,,,,,12,,57,0
101519,note_on,,119,0,12,,,,,,,,,,,,,,,,15,,73,0
101519,note_on,,0,0,12,,,,,,,,,,,,,,,,15,,64,0
101519,note_on,,119,0,11,,,,,,,,,,,,,,,,13,,61,0
101520,note_on,,1,0,8,,,,,,,,,,,,,,,,10,,74,64
101520,note_on,,1,0,11,,,,,,,,,,,,,,,,13,,57,64
101520,note_on,,1,0,10,,,,,,,,,,,,,,,,12,,59,64
101520,note_on,,1,0,12,,,,,,,,,,,,,,,,15,,61,64
101520,note_on,,361,0,9,,,,,,,,,,,,,,,,11,,69,64
101520,note_on,,1,0,5,,,,,,,,,,,,,,,,2,,57,64
101520,note_on,,0,0,12,,,,,,,,,,,,,,,,15,,76,64
101520,note_on,,0,0,12,,,,,,,,,,,,,,,,15,,73,64
101520,note_on,,0,0,12,,,,,,,,,,,,,,,,15,,69,64
101520,note_on,,0,0,12,,,,,,,,,,,,,,,,15,,57,64
101579,note_on,,59,0,10,,,,,,,,,,,,,,,,12,,59,0
101579,note_on,,59,0,8,,,,,,,,,,,,,,,,10,,74,0
101580,note_on,,1,0,10,,,,,,,,,,,,,,,,12,,61,64
101580,note_on,,1,0,8,,,,,,,,,,,,,,,,10,,76,64
101639,note_on,,59,0,8,,,,,,,,,,,,,,,,10,,76,0
101639,note_on,,119,0,9,,,,,,,,,,,,,,,,11,,69,0
101639,note_on,,59,0,10,,,,,,,,,,,,,,,,12,,61,0
101639,note_on,,0,0,12,,,,,,,,,,,,,,,,15,,57,0
101639,note_on,,119,0,5,,,,,,,,,,,,,,,,2,,57,0
101639,note_on,,119,0,11,,,,,,,,,,,,,,,,13,,57,0
101639,note_on,,0,0,12,,,,,,,,,,,,,,,,15,,76,0
101639,note_on,,0,0,12,,,,,,,,,,,,,,,,15,,73,0
101639,note_on,,0,0,12,,,,,,,,,,,,,,,,15,,69,0
101639,note_on,,119,0,12,,,,,,,,,,,,,,,,15,,61,0
101640,note_on,,1,0,11,,,,,,,,,,,,,,,,13,,62,64
101640,note_on,,1,0,9,,,,,,,,,,,,,,,,11,,69,64
101640,note_on,,1,0,12,,,,,,,,,,,,,,,,15,,62,64
101640,note_on,,1,0,5,,,,,,,,,,,,,,,,2,,62,64
101640,note_on,,0,0,12,,,,,,,,,,,,,,,,15,,74,64
101640,note_on,,0,0,12,,,,,,,,,,,,,,,,15,,66,64
101640,note_on,,1,0,10,,,,,,,,,,,,,,,,12,,62,64
101640,note_on,,1,0,8,,,,,,,,,,,,,,,,10,,78,64
101640,note_on,,0,0,12,,,,,,,,,,,,,,,,15,,69,64
101699,note_on,,59,0,8,,,,,,,,,,,,,,,,10,,78,0
101699,note_on,,59,0,9,,,,,,,,,,,,,,,,11,,69,0
101700,note_on,,1,0,8,,,,,,,,,,,,,,,,10,,79,64
101700,note_on,,1,0,9,,,,,,,,,,,,,,,,11,,71,64
101759,note_on,,59,0,8,,,,,,,,,,,,,,,,10,,79,0
101759,note_on,,119,0,11,,,,,,,,,,,,,,,,13,,62,0
101759,note_on,,0,0,12,,,,,,,,,,,,,,,,15,,69,0
101759,note_on,,59,0,9,,,,,,,,,,,,,,,,11,,71,0
101759,note_on,,119,0,5,,,,,,,,,,,,,,,,2,,62,0
101759,note_on,,0,0,12,,,,,,,,,,,,,,,,15,,66,0
101759,note_on,,0,0,12,,,,,,,,,,,,,,,,15,,74,0
101759,note_on,,119,0,10,,,,,,,,,,,,,,,,12,,62,0
101759,note_on,,119,0,12,,,,,,,,,,,,,,,,15,,62,0
101760,note_on,,1,0,12,,,,,,,,,,,,,,,,15,,61,64
101760,note_on,,0,0,12,,,,,,,,,,,,,,,,15,,64,64
101760,note_on,,1,0,11,,,,,,,,,,,,,,,,13,,61,64
101760,note_on,,1,0,9,,,,,,,,,,,,,,,,11,,73,64
101760,note_on,,0,0,12,,,,,,,,,,,,,,,,15,,69,64
101760,note_on,,0,0,12,,,,,,,,,,,,,,,,15,,76,64
101760,note_on,,1,0,5,,,,,,,,,,,,,,,,2,,61,64
101760,note_on,,1,0,8,,,,,,,,,,,,,,,,10,,81,64
101760,note_on,,1,0,10,,,,,,,,,,,,,,,,12,,64,64
101879,note_on,,119,0,8,,,,,,,,,,,,,,,,10,,81,0
101879,note_on,,119,0,9,,,,,,,,,,,,,,,,11,,73,0
101879,note_on,,119,0,12,,,,,,,,,,,,,,,,15,,61,0
101879,note_on,,119,0,11,,,,,,,,,,,,,,,,13,,61,0
101879,note_on,,0,0,12,,,,,,,,,,,,,,,,15,,64,0
101879,note_on,,0,0,12,,,,,,,,,,,,,,,,15,,69,0
101879,note_on,,0,0,12,,,,,,,,,,,,,,,,15,,76,0
101879,note_on,,119,0,5,,,,,,,,,,,,,,,,2,,61,0
101879,note_on,,119,0,10,,,,,,,,,,,,,,,,12,,64,0
101880,note_on,,1,0,11,,,,,,,,,,,,,,,,13,,57,64
101880,note_on,,1,0,5,,,,,,,,,,,,,,,,2,,57,64
101880,note_on,,421,0,6,,,,,,,,,,,,,,,,3,,81,64
101880,note_on,,1,0,12,,,,,,,,,,,,,,,,15,,81,64
101880,note_on,,0,0,12,,,,,,,,,,,,,,,,15,,76,64
101880,note_on,,0,0,12,,,,,,,,,,,,,,,,15,,61,64
101880,note_on,,0,0,12,,,,,,,,,,,,,,,,15,,73,64
101880,note_on,,0,0,12,,,,,,,,,,,,,,,,15,,57,64
101999,note_on,,0,0,12,,,,,,,,,,,,,,,,15,,57,0
101999,note_on,,0,0,12,,,,,,,,,,,,,,,,15,,73,0
101999,note_on,,119,0,11,,,,,,,,,,,,,,,,13,,57,0
101999,note_on,,119,0,6,,,,,,,,,,,,,,,,3,,81,0
101999,note_on,,0,0,12,,,,,,,,,,,,,,,,15,,61,0
101999,note_on,,0,0,12,,,,,,,,,,,,,,,,15,,76,0
101999,note_on,,119,0,12,,,,,,,,,,,,,,,,15,,81,0
101999,note_on,,119,0,5,,,,,,,,,,,,,,,,2,,57,0
102000,note_on,,1,0,6,,,,,,,,,,,,,,,,3,,76,64
102089,note_on,,89,0,6,,,,,,,,,,,,,,,,3,,76,0
102090,note_on,,1,0,6,,,,,,,,,,,,,,,,3,,78,64
102119,note_on,,29,0,6,,,,,,,,,,,,,,,,3,,78,0
102120,note_on,,1,0,6,,,,,,,,,,,,,,,,3,,76,64
102209,note_on,,89,0,6,,,,,,,,,,,,,,,,3,,76,0
102210,note_on,,1,0,6,,,,,,,,,,,,,,,,3,,78,64
102239,note_on,,29,0,6,,,,,,,,,,,,,,,,3,,78,0
102240,note_on,,1081,0,7,,,,,,,,,,,,,,,,8,,57,72
102240,note_on,,241,0,5,,,,,,,,,,,,,,,,2,,57,48
102240,note_on,,0,0,12,,,,,,,,,,,,,,,,15,,73,48
102240,note_on,,0,0,12,,,,,,,,,,,,,,,,15,,57,48
102240,note_on,,241,0,12,,,,,,,,,,,,,,,,15,,64,48
102240,note_on,,1,0,6,,,,,,,,,,,,,,,,3,,76,64
102240,note_on,,241,0,11,,,,,,,,,,,,,,,,13,,57,48
102240,note_on,,0,0,12,,,,,,,,,,,,,,,,15,,69,48
102329,note_on,,89,0,6,,,,,,,,,,,,,,,,3,,76,0
102330,note_on,,1,0,6,,,,,,,,,,,,,,,,3,,78,64
102359,note_on,,29,0,6,,,,,,,,,,,,,,,,3,,78,0
102359,note_on,,0,0,12,,,,,,,,,,,,,,,,15,,57,0
102359,note_on,,119,0,12,,,,,,,,,,,,,,,,15,,64,0
102359,note_on,,119,0,11,,,,,,,,,,,,,,,,13,,57,0
102359,note_on,,0,0,12,,,,,,,,,,,,,,,,15,,69,0
102359,note_on,,119,0,5,,,,,,,,,,,,,,,,2,,57,0
102359,note_on,,0,0,12,,,,,,,,,,,,,,,,15,,73,0
102359,note_on,,119,0,7,,,,,,,,,,,,,,,,8,,57,0
102360,note_on,,1,0,12,,,,,,,,,,,,,,,,15,,71,48
102360,note_on,,0,0,12,,,,,,,,,,,,,,,,15,,52,48
102360,note_on,,0,0,12,,,,,,,,,,,,,,,,15,,67,48
102360,note_on,,0,0,12,,,,,,,,,,,,,,,,15,,76,48
102360,note_on,,1,0,7,,,,,,,,,,,,,,,,8,,52,72
102360,note_on,,1,0,11,,,,,,,,,,,,,,,,13,,52,48
102360,note_on,,1,0,5,,,,,,,,,,,,,,,,2,,52,48
102360,note_on,,1,0,6,,,,,,,,,,,,,,,,3,,79,64
102360,note_on,,0,0,12,,,,,,,,,,,,,,,,15,,55,48
102479,note_on,,119,0,12,,,,,,,,,,,,,,,,15,,52,0
102479,note_on,,0,0,12,,,,,,,,,,,,,,,,15,,55,0
102479,note_on,,119,0,11,,,,,,,,,,,,,,,,13,,52,0
102479,note_on,,119,0,5,,,,,,,,,,,,,,,,2,,52,0
102479,note_on,,119,0,7,,,,,,,,,,,,,,,,8,,52,0
102480,note_on,,1,0,11,,,,,,,,,,,,,,,,13,,52,48
102480,note_on,,1,0,5,,,,,,,,,,,,,,,,2,,52,48
102480,note_on,,0,0,12,,,,,,,,,,,,,,,,15,,52,48
102480,note_on,,1,0,12,,,,,,,,,,,,,,,,15,,55,48
102480,note_on,,1,0,7,,,,,,,,,,,,,,,,8,,52,72
102569,note_on,,209,0,6,,,,,,,,,,,,,,,,3,,79,0
102570,note_on,,1,0,6,,,,,,,,,,,,,,,,3,,81,64
102599,note_on,,29,0,6,,,,,,,,,,,,,,,,3,,81,0
102599,note_on,,119,0,12,,,,,,,,,,,,,,,,15,,55,0
102600,note_on,,1,0,6,,,,,,,,,,,,,,,,3,,79,64
102659,note_on,,179,0,11,,,,,,,,,,,,,,,,13,,52,0
102659,note_on,,59,0,6,,,,,,,,,,,,,,,,3,,79,0
102659,note_on,,179,0,5,,,,,,,,,,,,,,,,2,,52,0
102659,note_on,,179,0,7,,,,,,,,,,,,,,,,8,,52,0
102659,note_on,,60,0,12,,,,,,,,,,,,,,,,15,,52,0
102660,note_on,,1,0,7,,,,,,,,,,,,,,,,8,,54,72
102660,note_on,,1,0,5,,,,,,,,,,,,,,,,2,,54,48
102660,note_on,,1,0,12,,,,,,,,,,,,,,,,15,,57,48
102660,note_on,,0,0,12,,,,,,,,,,,,,,,,15,,54,48
102660,note_on,,1,0,11,,,,,,,,,,,,,,,,13,,54,48
102660,note_on,,1,0,6,,,,,,,,,,,,,,,,3,,81,64
102719,note_on,,0,0,12,,,,,,,,,,,,,,,,15,,76,0
102719,note_on,,59,0,7,,,,,,,,,,,,,,,,8,,54,0
102719,note_on,,59,0,12,,,,,,,,,,,,,,,,15,,71,0
102719,note_on,,0,0,12,,,,,,,,,,,,,,,,15,,67,0
102719,note_on,,0,0,12,,,,,,,,,,,,,,,,15,,57,0
102719,note_on,,0,0,12,,,,,,,,,,,,,,,,15,,54,0
102719,note_on,,59,0,6,,,,,,,,,,,,,,,,3,,81,0
102719,note_on,,59,0,5,,,,,,,,,,,,,,,,2,,54,0
102719,note_on,,59,0,11,,,,,,,,,,,,,,,,13,,54,0
102720,note_on,,1,0,6,,,,,,,,,,,,,,,,3,,74,64
102720,note_on,,1,0,5,,,,,,,,,,,,,,,,2,,55,48
102720,note_on,,1,0,12,,,,,,,,,,,,,,,,15,,55,48
102720,note_on,,1,0,11,,,,,,,,,,,,,,,,13,,55,48
102720,note_on,,0,0,12,,,,,,,,,,,,,,,,15,,67,48
102720,note_on,,0,0,12,,,,,,,,,,,,,,,,15,,71,48
102720,note_on,,0,0,12,,,,,,,,,,,,,,,,15,,59,48
102720,note_on,,0,0,12,,,,,,,,,,,,,,,,15,,74,48
102720,note_on,,1,0,7,,,,,,,,,,,,,,,,8,,55,72
102809,note_on,,89,0,6,,,,,,,,,,,,,,,,3,,74,0
102810,note_on,,1,0,6,,,,,,,,,,,,,,,,3,,76,64
102839,note_on,,29,0,6,,,,,,,,,,,,,,,,3,,76,0
102840,note_on,,1,0,6,,,,,,,,,,,,,,,,3,,74,64
102929,note_on,,89,0,6,,,,,,,,,,,,,,,,3,,74,0
102930,note_on,,1,0,6,,,,,,,,,,,,,,,,3,,76,64
102959,note_on,,239,0,11,,,,,,,,,,,,,,,,13,,55,0
102959,note_on,,0,0,12,,,,,,,,,,,,,,,,15,,67,0
102959,note_on,,29,0,6,,,,,,,,,,,,,,,,3,,76,0
102959,note_on,,239,0,5,,,,,,,,,,,,,,,,2,,55,0
102959,note_on,,239,0,12,,,,,,,,,,,,,,,,15,,55,0
102959,note_on,,0,0,12,,,,,,,,,,,,,,,,15,,59,0
102959,note_on,,0,0,12,,,,,,,,,,,,,,,,15,,71,0
102959,note_on,,239,0,7,,,,,,,,,,,,,,,,8,,55,0
102959,note_on,,0,0,12,,,,,,,,,,,,,,,,15,,74,0
102960,note_on,,1,0,5,,,,,,,,,,,,,,,,2,,55,48
102960,note_on,,1,0,6,,,,,,,,,,,,,,,,3,,74,64
102960,note_on,,1,0,7,,,,,,,,,,,,,,,,8,,55,72
102960,note_on,,1,0,12,,,,,,,,,,,,,,,,15,,79,48
102960,note_on,,0,0,12,,,,,,,,,,,,,,,,15,,59,48
102960,note_on,,0,0,12,,,,,,,,,,,,,,,,15,,74,48
102960,note_on,,0,0,12,,,,,,,,,,,,,,,,15,,55,48
102960,note_on,,1,0,11,,,,,,,,,,,,,,,,13,,55,48
102960,note_on,,0,0,12,,,,,,,,,,,,,,,,15,,71,48
103049,note_on,,89,0,6,,,,,,,,,,,,,,,,3,,74,0
103050,note_on,,1,0,6,,,,,,,,,,,,,,,,3,,76,64
103079,note_on,,29,0,6,,,,,,,,,,,,,,,,3,,76,0
103079,note_on,,0,0,12,,,,,,,,,,,,,,,,15,,74,0
103079,note_on,,0,0,12,,,,,,,,,,,,,,,,15,,59,0
103079,note_on,,119,0,11,,,,,,,,,,,,,,,,13,,55,0
103079,note_on,,119,0,12,,,,,,,,,,,,,,,,15,,79,0
103079,note_on,,119,0,5,,,,,,,,,,,,,,,,2,,55,0
103079,note_on,,0,0,12,,,,,,,,,,,,,,,,15,,71,0
103079,note_on,,0,0,12,,,,,,,,,,,,,,,,15,,55,0
103079,note_on,,119,0,7,,,,,,,,,,,,,,,,8,,55,0
103080,note_on,,0,0,12,,,,,,,,,,,,,,,,15,,74,48
103080,note_on,,0,0,12,,,,,,,,,,,,,,,,15,,69,48
103080,note_on,,0,0,12,,,,,,,,,,,,,,,,15,,50,48
103080,note_on,,0,0,12,,,,,,,,,,,,,,,,15,,78,48
103080,note_on,,1,0,5,,,,,,,,,,,,,,,,2,,50,48
103080,note_on,,1,0,12,,,,,,,,,,,,,,,,15,,62,48
103080,note_on,,1,0,6,,,,,,,,,,,,,,,,3,,78,64
103080,note_on,,1,0,11,,,,,,,,,,,,,,,,13,,50,48
103080,note_on,,1,0,7,,,,,,,,,,,,,,,,8,,50,72
103169,note_on,,89,0,6,,,,,,,,,,,,,,,,3,,78,0
103169,note_on,,89,0,7,,,,,,,,,,,,,,,,8,,50,0
103170,note_on,,1,0,6,,,,,,,,,,,,,,,,3,,79,64
103170,note_on,,1,0,7,,,,,,,,,,,,,,,,8,,52,72
103199,note_on,,29,0,7,,,,,,,,,,,,,,,,8,,52,0
103199,note_on,,29,0,6,,,,,,,,,,,,,,,,3,,79,0
103200,note_on,,1,0,6,,,,,,,,,,,,,,,,3,,78,64
103200,note_on,,1,0,7,,,,,,,,,,,,,,,,8,,50,72
103259,note_on,,179,0,12,,,,,,,,,,,,,,,,15,,50,0
103259,note_on,,179,0,11,,,,,,,,,,,,,,,,13,,50,0
103259,note_on,,179,0,5,,,,,,,,,,,,,,,,2,,50,0
103260,note_on,,1,0,12,,,,,,,,,,,,,,,,15,,52,48
103260,note_on,,1,0,5,,,,,,,,,,,,,,,,2,,52,48
103260,note_on,,1,0,11,,,,,,,,,,,,,,,,13,,52,48
103289,note_on,,89,0,7,,,,,,,,,,,,,,,,8,,50,0
103289,note_on,,89,0,6,,,,,,,,,,,,,,,,3,,78,0
103290,note_on,,1,0,7,,,,,,,,,,,,,,,,8,,52,72
103290,note_on,,1,0,6,,,,,,,,,,,,,,,,3,,79,64
103319,note_on,,29,0,6,,,,,,,,,,,,,,,,3,,79,0
103319,note_on,,59,0,12,,,,,,,,,,,,,,,,15,,52,0
103319,note_on,,59,0,5,,,,,,,,,,,,,,,,2,,52,0
103319,note_on,,29,0,7,,,,,,,,,,,,,,,,8,,52,0
103319,note_on,,59,0,11,,,,,,,,,,,,,,,,13,,52,0
103320,note_on,,1,0,11,,,,,,,,,,,,,,,,13,,50,48
103320,note_on,,1,0,7,,,,,,,,,,,,,,,,8,,50,72
103320,note_on,,1,0,6,,,,,,,,,,,,,,,,3,,78,64
103320,note_on,,1,0,5,,,,,,,,,,,,,,,,2,,50,48
103320,note_on,,1,0,12,,,,,,,,,,,,,,,,15,,50,48
103409,note_on,,89,0,7,,,,,,,,,,,,,,,,8,,50,0
103409,note_on,,89,0,12,,,,,,,,,,,,,,,,15,,50,0
103409,note_on,,89,0,11,,,,,,,,,,,,,,,,13,,50,0
103409,note_on,,89,0,6,,,,,,,,,,,,,,,,3,,78,0
103409,note_on,,89,0,5,,,,,,,,,,,,,,,,2,,50,0
103410,note_on,,1,0,6,,,,,,,,,,,,,,,,3,,79,64
103410,note_on,,1,0,7,,,,,,,,,,,,,,,,8,,52,72
103410,note_on,,1,0,12,,,,,,,,,,,,,,,,15,,52,48
103410,note_on,,1,0,11,,,,,,,,,,,,,,,,13,,52,48
103410,note_on,,1,0,5,,,,,,,,,,,,,,,,2,,52,48
103439,note_on,,29,0,12,,,,,,,,,,,,,,,,15,,62,0
103439,note_on,,0,0,12,,,,,,,,,,,,,,,,15,,52,0
103439,note_on,,29,0,11,,,,,,,,,,,,,,,,13,,52,0
103439,note_on,,29,0,7,,,,,,,,,,,,,,,,8,,52,0
103439,note_on,,0,0,12,,,,,,,,,,,,,,,,15,,78,0
103439,note_on,,0,0,12,,,,,,,,,,,,,,,,15,,74,0
103439,note_on,,29,0,5,,,,,,,,,,,,,,,,2,,52,0
103439,note_on,,0,0,12,,,,,,,,,,,,,,,,15,,69,0
103439,note_on,,29,0,6,,,,,,,,,,,,,,,,3,,79,0
103440,note_on,,1,0,12,,,,,,,,,,,,,,,,15,,54,48
103440,note_on,,0,0,12,,,,,,,,,,,,,,,,15,,69,48
103440,note_on,,0,0,12,,,,,,,,,,,,,,,,15,,74,48
103440,note_on,,1,0,11,,,,,,,,,,,,,,,,13,,54,48
103440,note_on,,0,0,12,,,,,,,,,,,,,,,,15,,62,48
103440,note_on,,1,0,7,,,,,,,,,,,,,,,,8,,54,72
103440,note_on,,1,0,5,,,,,,,,,,,,,,,,2,,54,48
103440,note_on,,1,0,6,,,,,,,,,,,,,,,,3,,81,64
103529,note_on,,89,0,12,,,,,,,,,,,,,,,,15,,54,0
103529,note_on,,89,0,11,,,,,,,,,,,,,,,,13,,54,0
103529,note_on,,89,0,7,,,,,,,,,,,,,,,,8,,54,0
103529,note_on,,89,0,5,,,,,,,,,,,,,,,,2,,54,0
103530,note_on,,1,0,11,,,,,,,,,,,,,,,,13,,55,48
103530,note_on,,1,0,7,,,,,,,,,,,,,,,,8,,55,72
103530,note_on,,1,0,5,,,,,,,,,,,,,,,,2,,55,48
103530,note_on,,1,0,12,,,,,,,,,,,,,,,,15,,55,48
103559,note_on,,29,0,5,,,,,,,,,,,,,,,,2,,55,0
103559,note_on,,29,0,11,,,,,,,,,,,,,,,,13,,55,0
103559,note_on,,29,0,12,,,,,,,,,,,,,,,,15,,55,0
103559,note_on,,29,0,7,,,,,,,,,,,,,,,,8,,55,0
103560,note_on,,1,0,12,,,,,,,,,,,,,,,,15,,54,48
103560,note_on,,1,0,7,,,,,,,,,,,,,,,,8,,54,72
103560,note_on,,1,0,5,,,,,,,,,,,,,,,,2,,54,48
103560,note_on,,1,0,11,,,,,,,,,,,,,,,,13,,54,48
103649,note_on,,89,0,12,,,,,,,,,,,,,,,,15,,54,0
103649,note_on,,89,0,5,,,,,,,,,,,,,,,,2,,54,0
103649,note_on,,89,0,11,,,,,,,,,,,,,,,,13,,54,0
103649,note_on,,209,0,6,,,,,,,,,,,,,,,,3,,81,0
103649,note_on,,89,0,7,,,,,,,,,,,,,,,,8,,54,0
103650,note_on,,1,0,5,,,,,,,,,,,,,,,,2,,55,48
103650,note_on,,1,0,11,,,,,,,,,,,,,,,,13,,55,48
103650,note_on,,1,0,7,,,,,,,,,,,,,,,,8,,55,72
103650,note_on,,1,0,6,,,,,,,,,,,,,,,,3,,79,64
103650,note_on,,1,0,12,,,,,,,,,,,,,,,,15,,55,48
103679,note_on,,29,0,6,,,,,,,,,,,,,,,,3,,79,0
103679,note_on,,29,0,7,,,,,,,,,,,,,,,,8,,55,0
103679,note_on,,29,0,11,,,,,,,,,,,,,,,,13,,55,0
103679,note_on,,29,0,5,,,,,,,,,,,,,,,,2,,55,0
103679,note_on,,29,0,12,,,,,,,,,,,,,,,,15,,69,0
103679,note_on,,0,0,12,,,,,,,,,,,,,,,,15,,74,0
103679,note_on,,0,0,12,,,,,,,,,,,,,,,,15,,62,0
103679,note_on,,0,0,12,,,,,,,,,,,,,,,,15,,55,0
103680,note_on,,0,0,12,,,,,,,,,,,,,,,,15,,61,48
103680,note_on,,1,0,11,,,,,,,,,,,,,,,,13,,57,48
103680,note_on,,1,0,6,,,,,,,,,,,,,,,,3,,78,64
103680,note_on,,1,0,5,,,,,,,,,,,,,,,,2,,57,48
103680,note_on,,1,0,7,,,,,,,,,,,,,,,,8,,57,72
103680,note_on,,0,0,12,,,,,,,,,,,,,,,,15,,69,48
103680,note_on,,0,0,12,,,,,,,,,,,,,,,,15,,57,48
103680,note_on,,1,0,12,,,,,,,,,,,,,,,,15,,66,48
103739,note_on,,59,0,6,,,,,,,,,,,,,,,,3,,78,0
103740,note_on,,1,0,6,,,,,,,,,,,,,,,,3,,76,64
103769,note_on,,89,0,5,,,,,,,,,,,,,,,,2,,57,0
103769,note_on,,89,0,12,,,,,,,,,,,,,,,,15,,57,0
103769,note_on,,89,0,11,,,,,,,,,,,,,,,,13,,57,0
103769,note_on,,89,0,7,,,,,,,,,,,,,,,,8,,57,0
103770,note_on,,1,0,12,,,,,,,,,,,,,,,,15,,54,48
103770,note_on,,1,0,5,,,,,,,,,,,,,,,,2,,54,48
103770,note_on,,1,0,11,,,,,,,,,,,,,,,,13,,54,48
103770,note_on,,1,0,7,,,,,,,,,,,,,,,,8,,54,72
103799,note_on,,29,0,11,,,,,,,,,,,,,,,,13,,54,0
103799,note_on,,59,0,6,,,,,,,,,,,,,,,,3,,76,0
103799,note_on,,0,0,12,,,,,,,,,,,,,,,,15,,69,0
103799,note_on,,0,0,12,,,,,,,,,,,,,,,,15,,61,0
103799,note_on,,0,0,12,,,,,,,,,,,,,,,,15,,54,0
103799,note_on,,29,0,7,,,,,,,,,,,,,,,,8,,54,0
103799,note_on,,29,0,12,,,,,,,,,,,,,,,,15,,66,0
103799,note_on,,29,0,5,,,,,,,,,,,,,,,,2,,54,0
103800,note_on,,1,0,7,,,,,,,,,,,,,,,,8,,59,72
103800,note_on,,1,0,5,,,,,,,,,,,,,,,,2,,59,48
103800,note_on,,1,0,6,,,,,,,,,,,,,,,,3,,74,64
103800,note_on,,1,0,11,,,,,,,,,,,,,,,,13,,59,48
103800,note_on,,0,0,12,,,,,,,,,,,,,,,,15,,62,48
103800,note_on,,0,0,12,,,,,,,,,,,,,,,,15,,59,48
103800,note_on,,1,0,12,,,,,,,,,,,,,,,,15,,67,48
103889,note_on,,89,0,11,,,,,,,,,,,,,,,,13,,59,0
103889,note_on,,89,0,12,,,,,,,,,,,,,,,,15,,59,0
103889,note_on,,89,0,5,,,,,,,,,,,,,,,,2,,59,0
103889,note_on,,89,0,7,,,,,,,,,,,,,,,,8,,59,0
103890,note_on,,1,0,7,,,,,,,,,,,,,,,,8,,61,72
103890,note_on,,1,0,12,,,,,,,,,,,,,,,,15,,61,48
103890,note_on,,1,0,5,,,,,,,,,,,,,,,,2,,61,48
103890,note_on,,1,0,11,,,,,,,,,,,,,,,,13,,61,48
103919,note_on,,29,0,11,,,,,,,,,,,,,,,,13,,61,0
103919,note_on,,29,0,7,,,,,,,,,,,,,,,,8,,61,0
103919,note_on,,29,0,5,,,,,,,,,,,,,,,,2,,61,0
103919,note_on,,29,0,12,,,,,,,,,,,,,,,,15,,61,0
103920,note_on,,1,0,5,,,,,,,,,,,,,,,,2,,59,48
103920,note_on,,1,0,11,,,,,,,,,,,,,,,,13,,59,48
103920,note_on,,1,0,12,,,,,,,,,,,,,,,,15,,59,48
103920,note_on,,1,0,7,,,,,,,,,,,,,,,,8,,59,72
103979,note_on,,59,0,7,,,,,,,,,,,,,,,,8,,59,0
103979,note_on,,59,0,5,,,,,,,,,,,,,,,,2,,59,0
103979,note_on,,0,0,12,,,,,,,,,,,,,,,,15,,59,0
103979,note_on,,59,0,12,,,,,,,,,,,,,,,,15,,62,0
103979,note_on,,59,0,11,,,,,,,,,,,,,,,,13,,59,0
103980,note_on,,1,0,7,,,,,,,,,,,,,,,,8,,57,72
103980,note_on,,1,0,11,,,,,,,,,,,,,,,,13,,57,48
103980,note_on,,1,0,5,,,,,,,,,,,,,,,,2,,57,48
103980,note_on,,1,0,12,,,,,,,,,,,,,,,,15,,61,48
103980,note_on,,0,0,12,,,,,,,,,,,,,,,,15,,57,48
104009,note_on,,209,0,6,,,,,,,,,,,,,,,,3,,74,0
104010,note_on,,1,0,6,,,,,,,,,,,,,,,,3,,74,64
104039,note_on,,59,0,7,,,,,,,,,,,,,,,,8,,57,0
104039,note_on,,29,0,6,,,,,,,,,,,,,,,,3,,74,0
104039,note_on,,59,0,5,,,,,,,,,,,,,,,,2,,57,0
104039,note_on,,59,0,12,,,,,,,,,,,,,,,,15,,61,0
104039,note_on,,0,0,12,,,,,,,,,,,,,,,,15,,57,0
104039,note_on,,59,0,11,,,,,,,,,,,,,,,,13,,57,0
104040,note_on,,1,0,7,,,,,,,,,,,,,,,,8,,55,72
104040,note_on,,0,0,12,,,,,,,,,,,,,,,,15,,59,48
104040,note_on,,1,0,11,,,,,,,,,,,,,,,,13,,55,48
104040,note_on,,1,0,6,,,,,,,,,,,,,,,,3,,76,64
104040,note_on,,1,0,12,,,,,,,,,,,,,,,,15,,55,48
104040,note_on,,1,0,5,,,,,,,,,,,,,,,,2,,55,48
104099,note_on,,0,0,12,,,,,,,,,,,,,,,,15,,59,0
104099,note_on,,59,0,7,,,,,,,,,,,,,,,,8,,55,0
104099,note_on,,59,0,5,,,,,,,,,,,,,,,,2,,55,0
104099,note_on,,59,0,12,,,,,,,,,,,,,,,,15,,55,0
104099,note_on,,59,0,6,,,,,,,,,,,,,,,,3,,76,0
104099,note_on,,59,0,11,,,,,,,,,,,,,,,,13,,55,0
104100,note_on,,1,0,11,,,,,,,,,,,,,,,,13,,54,48
104100,note_on,,0,0,12,,,,,,,,,,,,,,,,15,,54,48
104100,note_on,,1,0,5,,,,,,,,,,,,,,,,2,,54,48
104100,note_on,,1,0,7,,,,,,,,,,,,,,,,8,,54,72
104100,note_on,,1,0,6,,,,,,,,,,,,,,,,3,,78,64
104100,note_on,,1,0,12,,,,,,,,,,,,,,,,15,,57,48
104159,note_on,,0,0,12,,,,,,,,,,,,,,,,15,,57,0
104159,note_on,,59,0,7,,,,,,,,,,,,,,,,8,,54,0
104159,note_on,,0,0,12,,,,,,,,,,,,,,,,15,,54,0
104159,note_on,,59,0,6,,,,,,,,,,,,,,,,3,,78,0
104159,note_on,,59,0,5,,,,,,,,,,,,,,,,2,,54,0
104159,note_on,,59,0,11,,,,,,,,,,,,,,,,13,,54,0
104159,note_on,,59,0,12,,,,,,,,,,,,,,,,15,,67,0
104160,note_on,,0,0,12,,,,,,,,,,,,,,,,15,,55,48
104160,note_on,,0,0,12,,,,,,,,,,,,,,,,15,,52,48
104160,note_on,,1,0,6,,,,,,,,,,,,,,,,3,,79,64
104160,note_on,,1,0,5,,,,,,,,,,,,,,,,2,,52,48
104160,note_on,,1,0,7,,,,,,,,,,,,,,,,8,,52,72
104160,note_on,,0,0,12,,,,,,,,,,,,,,,,15,,59,48
104160,note_on,,1,0,12,,,,,,,,,,,,,,,,15,,67,48
104160,note_on,,1,0,11,,,,,,,,,,,,,,,,13,,52,48
104219,note_on,,59,0,5,,,,,,,,,,,,,,,,2,,52,0
104219,note_on,,59,0,7,,,,,,,,,,,,,,,,8,,52,0
104219,note_on,,59,0,11,,,,,,,,,,,,,,,,13,,52,0
104219,note_on,,59,0,12,,,,,,,,,,,,,,,,15,,52,0
104220,note_on,,1,0,12,,,,,,,,,,,,,,,,15,,54,48
104220,note_on,,1,0,5,,,,,,,,,,,,,,,,2,,54,48
104220,note_on,,1,0,11,,,,,,,,,,,,,,,,13,,54,48
104220,note_on,,1,0,7,,,,,,,,,,,,,,,,8,,54,72
104279,note_on,,0,0,12,,,,,,,,,,,,,,,,15,,55,0
104279,note_on,,59,0,11,,,,,,,,,,,,,,,,13,,54,0
104279,note_on,,59,0,12,,,,,,,,,,,,,,,,15,,67,0
104279,note_on,,0,0,12,,,,,,,,,,,,,,,,15,,59,0
104279,note_on,,0,0,12,,,,,,,,,,,,,,,,15,,54,0
104279,note_on,,59,0,5,,,,,,,,,,,,,,,,2,,54,0
104279,note_on,,59,0,7,,,,,,,,,,,,,,,,8,,54,0
104280,note_on,,1,0,12,,,,,,,,,,,,,,,,15,,64,48
104280,note_on,,0,0,12,,,,,,,,,,,,,,,,15,,67,48
104280,note_on,,1,0,5,,,,,,,,,,,,,,,,2,,52,48
104280,note_on,,1,0,11,,,,,,,,,,,,,,,,13,,52,48
104280,note_on,,0,0,12,,,,,,,,,,,,,,,,15,,52,48
104280,note_on,,0,0,12,,,,,,,,,,,,,,,,15,,71,48
104280,note_on,,1,0,7,,,,,,,,,,,,,,,,8,,52,72
104339,note_on,,59,0,7,,,,,,,,,,,,,,,,8,,52,0
104339,note_on,,59,0,12,,,,,,,,,,,,,,,,15,,52,0
104339,note_on,,59,0,5,,,,,,,,,,,,,,,,2,,52,0
104339,note_on,,59,0,11,,,,,,,,,,,,,,,,13,,52,0
104340,note_on,,1,0,11,,,,,,,,,,,,,,,,13,,50,48
104340,note_on,,1,0,5,,,,,,,,,,,,,,,,2,,50,48
104340,note_on,,1,0,7,,,,,,,,,,,,,,,,8,,50,72
104340,note_on,,1,0,12,,,,,,,,,,,,,,,,15,,50,48
104399,note_on,,59,0,5,,,,,,,,,,,,,,,,2,,50,0
104399,note_on,,59,0,7,,,,,,,,,,,,,,,,8,,50,0
104399,note_on,,59,0,12,,,,,,,,,,,,,,,,15,,64,0
104399,note_on,,0,0,12,,,,,,,,,,,,,,,,15,,71,0
104399,note_on,,0,0,12,,,,,,,,,,,,,,,,15,,67,0
104399,note_on,,59,0,11,,,,,,,,,,,,,,,,13,,50,0
104399,note_on,,0,0,12,,,,,,,,,,,,,,,,15,,50,0
104400,note_on,,1,0,12,,,,,,,,,,,,,,,,15,,76,48
104400,note_on,,1,0,7,,,,,,,,,,,,,,,,8,,49,72
104400,note_on,,1,0,11,,,,,,,,,,,,,,,,13,,49,48
104400,note_on,,1,0,5,,,,,,,,,,,,,,,,2,,49,48
104400,note_on,,0,0,12,,,,,,,,,,,,,,,,15,,52,48
104400,note_on,,0,0,12,,,,,,,,,,,,,,,,15,,49,48
104400,note_on,,0,0,12,,,,,,,,,,,,,,,,15,,64,48
104459,note_on,,59,0,12,,,,,,,,,,,,,,,,15,,76,0
104459,note_on,,0,0,12,,,,,,,,,,,,,,,,15,,49,0
104459,note_on,,59,0,7,,,,,,,,,,,,,,,,8,,49,0
104459,note_on,,59,0,11,,,,,,,,,,,,,,,,13,,49,0
104459,note_on,,59,0,5,,,,,,,,,,,,,,,,2,,49,0
104460,note_on,,1,0,7,,,,,,,,,,,,,,,,8,,47,72
104460,note_on,,0,0,12,,,,,,,,,,,,,,,,15,,47,48
104460,note_on,,1,0,12,,,,,,,,,,,,,,,,15,,74,48
104460,note_on,,1,0,5,,,,,,,,,,,,,,,,2,,47,48
104460,note_on,,1,0,11,,,,,,,,,,,,,,,,13,,47,48
104519,note_on,,0,0,12,,,,,,,,,,,,,,,,15,,47,0
104519,note_on,,0,0,12,,,,,,,,,,,,,,,,15,,74,0
104519,note_on,,0,0,12,,,,,,,,,,,,,,,,15,,64,0
104519,note_on,,59,0,12,,,,,,,,,,,,,,,,15,,52,0
104519,note_on,,59,0,5,,,,,,,,,,,,,,,,2,,47,0
104519,note_on,,59,0,11,,,,,,,,,,,,,,,,13,,47,0
104519,note_on,,59,0,7,,,,,,,,,,,,,,,,8,,47,0
104520,note_on,,1,0,5,,,,,,,,,,,,,,,,2,,45,48
104520,note_on,,1,0,7,,,,,,,,,,,,,,,,8,,45,72
104520,note_on,,0,0,12,,,,,,,,,,,,,,,,15,,69,48
104520,note_on,,0,0,12,,,,,,,,,,,,,,,,15,,64,48
104520,note_on,,0,0,12,,,,,,,,,,,,,,,,15,,45,48
104520,note_on,,1,0,12,,,,,,,,,,,,,,,,15,,73,48
104520,note_on,,1,0,11,,,,,,,,,,,,,,,,13,,45,48
104579,note_on,,419,0,6,,,,,,,,,,,,,,,,3,,79,0
104580,note_on,,1,0,6,,,,,,,,,,,,,,,,3,,81,64
104639,note_on,,59,0,6,,,,,,,,,,,,,,,,3,,81,0
104640,note_on,,1,0,6,,,,,,,,,,,,,,,,3,,79,64
104699,note_on,,59,0,6,,,,,,,,,,,,,,,,3,,79,0
104700,note_on,,1,0,6,,,,,,,,,,,,,,,,3,,78,64
104759,note_on,,0,0,12,,,,,,,,,,,,,,,,15,,69,0
104759,note_on,,0,0,12,,,,,,,,,,,,,,,,15,,64,0
104759,note_on,,0,0,12,,,,,,,,,,,,,,,,15,,45,0
104759,note_on,,239,0,7,,,,,,,,,,,,,,,,8,,45,0
104759,note_on,,239,0,12,,,,,,,,,,,,,,,,15,,73,0
104759,note_on,,239,0,5,,,,,,,,,,,,,,,,2,,45,0
104759,note_on,,239,0,11,,,,,,,,,,,,,,,,13,,45,0
104759,note_on,,59,0,6,,,,,,,,,,,,,,,,3,,78,0
104760,note_on,,1,0,11,,,,,,,,,,,,,,,,13,,61,48
104760,note_on,,1,0,12,,,,,,,,,,,,,,,,15,,69,48
104760,note_on,,1,0,6,,,,,,,,,,,,,,,,3,,79,64
104760,note_on,,1,0,5,,,,,,,,,,,,,,,,2,,61,48
104760,note_on,,1,0,7,,,,,,,,,,,,,,,,8,,61,72
104760,note_on,,0,0,12,,,,,,,,,,,,,,,,15,,64,48
104760,note_on,,0,0,12,,,,,,,,,,,,,,,,15,,61,48
104819,note_on,,59,0,6,,,,,,,,,,,,,,,,3,,79,0
104820,note_on,,1,0,6,,,,,,,,,,,,,,,,3,,76,64
104879,note_on,,119,0,12,,,,,,,,,,,,,,,,15,,61,0
104879,note_on,,59,0,6,,,,,,,,,,,,,,,,3,,76,0
104879,note_on,,119,0,11,,,,,,,,,,,,,,,,13,,61,0
104879,note_on,,119,0,5,,,,,,,,,,,,,,,,2,,61,0
104879,note_on,,119,0,7,,,,,,,,,,,,,,,,8,,61,0
104879,note_on,,0,0,12,,,,,,,,,,,,,,,,15,,64,0
104880,note_on,,1,0,7,,,,,,,,,,,,,,,,8,,62,72
104880,note_on,,0,0,12,,,,,,,,,,,,,,,,15,,62,48
104880,note_on,,1,0,12,,,,,,,,,,,,,,,,15,,66,48
104880,note_on,,1,0,6,,,,,,,,,,,,,,,,3,,78,64
104880,note_on,,1,0,5,,,,,,,,,,,,,,,,2,,62,48
104880,note_on,,1,0,11,,,,,,,,,,,,,,,,13,,62,48
104939,note_on,,59,0,11,,,,,,,,,,,,,,,,13,,62,0
104939,note_on,,59,0,5,,,,,,,,,,,,,,,,2,,62,0
104939,note_on,,59,0,12,,,,,,,,,,,,,,,,15,,62,0
104939,note_on,,59,0,7,,,,,,,,,,,,,,,,8,,62,0
104939,note_on,,59,0,6,,,,,,,,,,,,,,,,3,,78,0
104940,note_on,,1,0,12,,,,,,,,,,,,,,,,15,,61,48
104940,note_on,,1,0,5,,,,,,,,,,,,,,,,2,,61,48
104940,note_on,,1,0,11,,,,,,,,,,,,,,,,13,,61,48
104940,note_on,,1,0,7,,,,,,,,,,,,,,,,8,,61,72
104940,note_on,,1,0,6,,,,,,,,,,,,,,,,3,,79,64
104999,note_on,,59,0,5,,,,,,,,,,,,,,,,2,,61,0
104999,note_on,,59,0,7,,,,,,,,,,,,,,,,8,,61,0
104999,note_on,,59,0,6,,,,,,,,,,,,,,,,3,,79,0
104999,note_on,,59,0,12,,,,,,,,,,,,,,,,15,,69,0
104999,note_on,,0,0,12,,,,,,,,,,,,,,,,15,,66,0
104999,note_on,,0,0,12,,,,,,,,,,,,,,,,15,,61,0
104999,note_on,,59,0,11,,,,,,,,,,,,,,,,13,,61,0
105000,note_on,,1,0,5,,,,,,,,,,,,,,,,2,,62,48
105000,note_on,,0,0,12,,,,,,,,,,,,,,,,15,,69,48
105000,note_on,,0,0,12,,,,,,,,,,,,,,,,15,,62,48
105000,note_on,,0,0,12,,,,,,,,,,,,,,,,15,,66,48
105000,note_on,,1,0,12,,,,,,,,,,,,,,,,15,,74,48
105000,note_on,,1,0,7,,,,,,,,,,,,,,,,8,,62,72
105000,note_on,,1,0,11,,,,,,,,,,,,,,,,13,,62,48
105000,note_on,,1,0,6,,,,,,,,,,,,,,,,3,,78,64
105014,note_on,,14,0,6,,,,,,,,,,,,,,,,3,,78,0
105015,note_on,,1,0,6,,,,,,,,,,,,,,,,3,,79,64
105029,note_on,,14,0,6,,,,,,,,,,,,,,,,3,,79,0
105030,note_on,,1,0,6,,,,,,,,,,,,,,,,3,,78,64
105044,note_on,,14,0,6,,,,,,,,,,,,,,,,3,,78,0
105045,note_on,,1,0,6,,,,,,,,,,,,,,,,3,,79,64
105059,note_on,,14,0,6,,,,,,,,,,,,,,,,3,,79,0
105060,note_on,,1,0,6,,,,,,,,,,,,,,,,3,,78,64
105074,note_on,,14,0,6,,,,,,,,,,,,,,,,3,,78,0
105075,note_on,,1,0,6,,,,,,,,,,,,,,,,3,,79,64
105089,note_on,,14,0,6,,,,,,,,,,,,,,,,3,,79,0
105090,note_on,,1,0,6,,,,,,,,,,,,,,,,3,,78,64
105104,note_on,,14,0,6,,,,,,,,,,,,,,,,3,,78,0
105105,note_on,,1,0,6,,,,,,,,,,,,,,,,3,,79,64
105119,note_on,,14,0,6,,,,,,,,,,,,,,,,3,,79,0
105119,note_on,,119,0,11,,,,,,,,,,,,,,,,13,,62,0
105119,note_on,,119,0,12,,,,,,,,,,,,,,,,15,,62,0
105119,note_on,,119,0,7,,,,,,,,,,,,,,,,8,,62,0
105119,note_on,,119,0,5,,,,,,,,,,,,,,,,2,,62,0
105120,note_on,,1,0,7,,,,,,,,,,,,,,,,8,,50,72
105120,note_on,,1,0,11,,,,,,,,,,,,,,,,13,,50,48
105120,note_on,,1,0,6,,,,,,,,,,,,,,,,3,,78,64
105120,note_on,,1,0,5,,,,,,,,,,,,,,,,2,,50,48
105120,note_on,,1,0,12,,,,,,,,,,,,,,,,15,,50,48
105134,note_on,,14,0,6,,,,,,,,,,,,,,,,3,,78,0
105135,note_on,,1,0,6,,,,,,,,,,,,,,,,3,,79,64
105149,note_on,,14,0,6,,,,,,,,,,,,,,,,3,,79,0
105150,note_on,,1,0,6,,,,,,,,,,,,,,,,3,,76,64
105164,note_on,,14,0,6,,,,,,,,,,,,,,,,3,,76,0
105165,note_on,,1,0,6,,,,,,,,,,,,,,,,3,,78,64
105179,note_on,,14,0,6,,,,,,,,,,,,,,,,3,,78,0
105180,note_on,,1,0,6,,,,,,,,,,,,,,,,3,,76,64
105239,note_on,,0,0,12,,,,,,,,,,,,,,,,15,,66,0
105239,note_on,,59,0,6,,,,,,,,,,,,,,,,3,,76,0
105239,note_on,,0,0,12,,,,,,,,,,,,,,,,15,,50,0
105239,note_on,,119,0,7,,,,,,,,,,,,,,,,8,,50,0
105239,note_on,,119,0,5,,,,,,,,,,,,,,,,2,,50,0
105239,note_on,,119,0,11,,,,,,,,,,,,,,,,13,,50,0
105239,note_on,,0,0,12,,,,,,,,,,,,,,,,15,,69,0
105239,note_on,,119,0,12,,,,,,,,,,,,,,,,15,,74,0
105240,note_on,,0,0,12,,,,,,,,,,,,,,,,15,,57,48
105240,note_on,,0,0,12,,,,,,,,,,,,,,,,15,,69,48
105240,note_on,,0,0,12,,,,,,,,,,,,,,,,15,,73,48
105240,note_on,,0,0,12,,,,,,,,,,,,,,,,15,,64,48
105240,note_on,,1,0,12,,,,,,,,,,,,,,,,15,,76,48
105240,note_on,,1,0,11,,,,,,,,,,,,,,,,13,,57,48
105240,note_on,,1,0,5,,,,,,,,,,,,,,,,2,,57,48
105240,note_on,,1,0,7,,,,,,,,,,,,,,,,8,,57,72
105240,note_on,,1,0,6,,,,,,,,,,,,,,,,3,,76,64
105359,note_on,,119,0,11,,,,,,,,,,,,,,,,13,,57,0
105359,note_on,,119,0,5,,,,,,,,,,,,,,,,2,,57,0
105359,note_on,,119,0,12,,,,,,,,,,,,,,,,15,,76,0
105359,note_on,,0,0,12,,,,,,,,,,,,,,,,15,,64,0
105359,note_on,,0,0,12,,,,,,,,,,,,,,,,15,,73,0
105359,note_on,,0,0,12,,,,,,,,,,,,,,,,15,,69,0
105359,note_on,,0,0,12,,,,,,,,,,,,,,,,15,,57,0
105360,note_on,,0,0,12,,,,,,,,,,,,,,,,15,,69,48
105360,note_on,,0,0,12,,,,,,,,,,,,,,,,15,,61,48
105360,note_on,,1,0,5,,,,,,,,,,,,,,,,2,,61,48
105360,note_on,,1,0,11,,,,,,,,,,,,,,,,13,,61,48
105360,note_on,,1,0,12,,,,,,,,,,,,,,,,15,,64,48
105479,note_on,,0,0,12,,,,,,,,,,,,,,,,15,,61,0
105479,note_on,,0,0,12,,,,,,,,,,,,,,,,15,,69,0
105479,note_on,,119,0,5,,,,,,,,,,,,,,,,2,,61,0
105479,note_on,,119,0,11,,,,,,,,,,,,,,,,13,,61,0
105479,note_on,,239,0,6,,,,,,,,,,,,,,,,3,,76,0
105479,note_on,,119,0,12,,,,,,,,,,,,,,,,15,,64,0
105480,note_on,,3601,0,8,,,,,,,,,,,,,,,,10,,79,72
105480,note_on,,3601,0,10,,,,,,,,,,,,,,,,12,,64,72
105480,note_on,,1,0,11,,,,,,,,,,,,,,,,13,,57,72
105480,note_on,,0,0,12,,,,,,,,,,,,,,,,15,,73,72
105480,note_on,,1,0,5,,,,,,,,,,,,,,,,2,,57,72
105480,note_on,,3601,0,9,,,,,,,,,,,,,,,,11,,73,72
105480,note_on,,1,0,12,,,,,,,,,,,,,,,,15,,57,72
105480,note_on,,0,0,12,,,,,,,,,,,,,,,,15,,69,72
105480,note_on,,0,0,12,,,,,,,,,,,,,,,,15,,64,72
105599,note_on,,119,0,11,,,,,,,,,,,,,,,,13,,57,0
105599,note_on,,0,0,12,,,,,,,,,,,,,,,,15,,64,0
105599,note_on,,0,0,12,,,,,,,,,,,,,,,,15,,73,0
105599,note_on,,119,0,9,,,,,,,,,,,,,,,,11,,73,0
105599,note_on,,0,0,12,,,,,,,,,,,,,,,,15,,69,0
105599,note_on,,119,0,8,,,,,,,,,,,,,,,,10,,79,0
105599,note_on,,119,0,10,,,,,,,,,,,,,,,,12,,64,0
105599,note_on,,119,0,12,,,,,,,,,,,,,,,,15,,57,0
105599,note_on,,119,0,5,,,,,,,,,,,,,,,,2,,57,0
105599,note_on,,359,0,7,,,,,,,,,,,,,,,,8,,57,0
105600,note_on,,1,0,8,,,,,,,,,,,,,,,,10,,78,72
105600,note_on,,0,0,12,,,,,,,,,,,,,,,,15,,66,72
105600,note_on,,1,0,9,,,,,,,,,,,,,,,,11,,69,72
105600,note_on,,1,0,10,,,,,,,,,,,,,,,,12,,66,72
105600,note_on,,1,0,5,,,,,,,,,,,,,,,,2,,62,72
105600,note_on,,0,0,12,,,,,,,,,,,,,,,,15,,74,72
105600,note_on,,0,0,12,,,,,,,,,,,,,,,,15,,62,72
105600,note_on,,1,0,11,,,,,,,,,,,,,,,,13,,62,72
105600,note_on,,1,0,12,,,,,,,,,,,,,,,,15,,69,72
105659,note_on,,59,0,8,,,,,,,,,,,,,,,,10,,78,0
105659,note_on,,59,0,10,,,,,,,,,,,,,,,,12,,66,0
105660,note_on,,1,0,10,,,,,,,,,,,,,,,,12,,67,72
105660,note_on,,1,0,8,,,,,,,,,,,,,,,,10,,76,72
105719,note_on,,59,0,8,,,,,,,,,,,,,,,,10,,76,0
105719,note_on,,119,0,9,,,,,,,,,,,,,,,,11,,69,0
105719,note_on,,119,0,11,,,,,,,,,,,,,,,,13,,62,0
105719,note_on,,119,0,5,,,,,,,,,,,,,,,,2,,62,0
105719,note_on,,59,0,10,,,,,,,,,,,,,,,,12,,67,0
105719,note_on,,119,0,12,,,,,,,,,,,,,,,,15,,69,0
105719,note_on,,0,0,12,,,,,,,,,,,,,,,,15,,62,0
105719,note_on,,0,0,12,,,,,,,,,,,,,,,,15,,74,0
105719,note_on,,0,0,12,,,,,,,,,,,,,,,,15,,66,0
105720,note_on,,0,0,12,,,,,,,,,,,,,,,,15,,62,72
105720,note_on,,1,0,11,,,,,,,,,,,,,,,,13,,54,72
105720,note_on,,1,0,9,,,,,,,,,,,,,,,,11,,69,72
105720,note_on,,0,0,12,,,,,,,,,,,,,,,,15,,54,72
105720,note_on,,1,0,5,,,,,,,,,,,,,,,,2,,54,72
105720,note_on,,1,0,12,,,,,,,,,,,,,,,,15,,69,72
105720,note_on,,1,0,10,,,,,,,,,,,,,,,,12,,69,72
105720,note_on,,1,0,8,,,,,,,,,,,,,,,,10,,74,72
105779,note_on,,59,0,8,,,,,,,,,,,,,,,,10,,74,0
105780,note_on,,1,0,8,,,,,,,,,,,,,,,,10,,78,72
105839,note_on,,59,0,8,,,,,,,,,,,,,,,,10,,78,0
105839,note_on,,119,0,12,,,,,,,,,,,,,,,,15,,69,0
105839,note_on,,119,0,5,,,,,,,,,,,,,,,,2,,54,0
105839,note_on,,0,0,12,,,,,,,,,,,,,,,,15,,62,0
105839,note_on,,119,0,11,,,,,,,,,,,,,,,,13,,54,0
105839,note_on,,0,0,12,,,,,,,,,,,,,,,,15,,54,0
105839,note_on,,119,0,9,,,,,,,,,,,,,,,,11,,69,0
105839,note_on,,119,0,10,,,,,,,,,,,,,,,,12,,69,0
105840,note_on,,1,0,12,,,,,,,,,,,,,,,,15,,71,72
105840,note_on,,1,0,11,,,,,,,,,,,,,,,,13,,59,72
105840,note_on,,0,0,12,,,,,,,,,,,,,,,,15,,68,72
105840,note_on,,1,0,5,,,,,,,,,,,,,,,,2,,59,72
105840,note_on,,1,0,9,,,,,,,,,,,,,,,,11,,71,72
105840,note_on,,1,0,8,,,,,,,,,,,,,,,,10,,76,72
105840,note_on,,0,0,12,,,,,,,,,,,,,,,,15,,62,72
105840,note_on,,0,0,12,,,,,,,,,,,,,,,,15,,59,72
105840,note_on,,1,0,10,,,,,,,,,,,,,,,,12,,68,72
105899,note_on,,59,0,8,,,,,,,,,,,,,,,,10,,76,0
105900,note_on,,1,0,8,,,,,,,,,,,,,,,,10,,74,72
105959,note_on,,119,0,10,,,,,,,,,,,,,,,,12,,68,0
105959,note_on,,119,0,9,,,,,,,,,,,,,,,,11,,71,0
105959,note_on,,119,0,11,,,,,,,,,,,,,,,,13,,59,0
105959,note_on,,119,0,12,,,,,,,,,,,,,,,,15,,71,0
105959,note_on,,0,0,12,,,,,,,,,,,,,,,,15,,68,0
105959,note_on,,0,0,12,,,,,,,,,,,,,,,,15,,62,0
105959,note_on,,0,0,12,,,,,,,,,,,,,,,,15,,59,0
105959,note_on,,119,0,5,,,,,,,,,,,,,,,,2,,59,0
105959,note_on,,59,0,8,,,,,,,,,,,,,,,,10,,74,0
105960,note_on,,1,0,10,,,,,,,,,,,,,,,,12,,69,72
105960,note_on,,0,0,12,,,,,,,,,,,,,,,,15,,57,72
105960,note_on,,0,0,12,,,,,,,,,,,,,,,,15,,64,72
105960,note_on,,1,0,11,,,,,,,,,,,,,,,,13,,57,72
105960,note_on,,1,0,9,,,,,,,,,,,,,,,,11,,73,72
105960,note_on,,1,0,8,,,,,,,,,,,,,,,,10,,76,72
105960,note_on,,1,0,12,,,,,,,,,,,,,,,,15,,73,72
105960,note_on,,1,0,5,,,,,,,,,,,,,,,,2,,57,72
105960,note_on,,0,0,12,,,,,,,,,,,,,,,,15,,69,72
106079,note_on,,119,0,5,,,,,,,,,,,,,,,,2,,57,0
106079,note_on,,119,0,11,,,,,,,,,,,,,,,,13,,57,0
106079,note_on,,119,0,12,,,,,,,,,,,,,,,,15,,73,0
106079,note_on,,0,0,12,,,,,,,,,,,,,,,,15,,69,0
106079,note_on,,0,0,12,,,,,,,,,,,,,,,,15,,57,0
106080,note_on,,0,0,12,,,,,,,,,,,,,,,,15,,76,72
106080,note_on,,1,0,11,,,,,,,,,,,,,,,,13,,61,72
106080,note_on,,1,0,12,,,,,,,,,,,,,,,,15,,69,72
106080,note_on,,1,0,5,,,,,,,,,,,,,,,,2,,61,72
106080,note_on,,0,0,12,,,,,,,,,,,,,,,,15,,61,72
106199,note_on,,0,0,12,,,,,,,,,,,,,,,,15,,69,0
106199,note_on,,119,0,5,,,,,,,,,,,,,,,,2,,61,0
106199,note_on,,239,0,9,,,,,,,,,,,,,,,,11,,73,0
106199,note_on,,119,0,11,,,,,,,,,,,,,,,,13,,61,0
106199,note_on,,119,0,12,,,,,,,,,,,,,,,,15,,64,0
106199,note_on,,239,0,10,,,,,,,,,,,,,,,,12,,69,0
106199,note_on,,239,0,8,,,,,,,,,,,,,,,,10,,76,0
106199,note_on,,0,0,12,,,,,,,,,,,,,,,,15,,61,0
106199,note_on,,0,0,12,,,,,,,,,,,,,,,,15,,76,0
106200,note_on,,721,0,6,,,,,,,,,,,,,,,,3,,79,64
106200,note_on,,1,0,12,,,,,,,,,,,,,,,,15,,57,48
106200,note_on,,0,0,12,,,,,,,,,,,,,,,,15,,64,48
106200,note_on,,1,0,5,,,,,,,,,,,,,,,,2,,57,48
106200,note_on,,0,0,12,,,,,,,,,,,,,,,,15,,73,48
106200,note_on,,601,0,7,,,,,,,,,,,,,,,,8,,61,72
106200,note_on,,1,0,11,,,,,,,,,,,,,,,,13,,57,48
106200,note_on,,0,0,12,,,,,,,,,,,,,,,,15,,69,48
106319,note_on,,119,0,6,,,,,,,,,,,,,,,,3,,79,0
106319,note_on,,119,0,5,,,,,,,,,,,,,,,,2,,57,0
106319,note_on,,119,0,7,,,,,,,,,,,,,,,,8,,61,0
106319,note_on,,0,0,12,,,,,,,,,,,,,,,,15,,64,0
106319,note_on,,0,0,12,,,,,,,,,,,,,,,,15,,69,0
106319,note_on,,119,0,12,,,,,,,,,,,,,,,,15,,57,0
106319,note_on,,0,0,12,,,,,,,,,,,,,,,,15,,73,0
106319,note_on,,119,0,11,,,,,,,,,,,,,,,,13,,57,0
106320,note_on,,1,0,5,,,,,,,,,,,,,,,,2,,62,48
106320,note_on,,1,0,12,,,,,,,,,,,,,,,,15,,62,48
106320,note_on,,0,0,12,,,,,,,,,,,,,,,,15,,74,48
106320,note_on,,0,0,12,,,,,,,,,,,,,,,,15,,69,48
106320,note_on,,0,0,12,,,,,,,,,,,,,,,,15,,66,48
106320,note_on,,1,0,7,,,,,,,,,,,,,,,,8,,62,72
106320,note_on,,1,0,6,,,,,,,,,,,,,,,,3,,78,64
106320,note_on,,1,0,11,,,,,,,,,,,,,,,,13,,62,48
106379,note_on,,59,0,6,,,,,,,,,,,,,,,,3,,78,0
106380,note_on,,1,0,6,,,,,,,,,,,,,,,,3,,76,64
106439,note_on,,119,0,12,,,,,,,,,,,,,,,,15,,62,0
106439,note_on,,119,0,5,,,,,,,,,,,,,,,,2,,62,0
106439,note_on,,59,0,6,,,,,,,,,,,,,,,,3,,76,0
106439,note_on,,119,0,7,,,,,,,,,,,,,,,,8,,62,0
106439,note_on,,119,0,11,,,,,,,,,,,,,,,,13,,62,0
106440,note_on,,1,0,11,,,,,,,,,,,,,,,,13,,50,48
106440,note_on,,1,0,5,,,,,,,,,,,,,,,,2,,50,48
106440,note_on,,1,0,6,,,,,,,,,,,,,,,,3,,74,64
106440,note_on,,1,0,7,,,,,,,,,,,,,,,,8,,50,72
106440,note_on,,1,0,12,,,,,,,,,,,,,,,,15,,50,48
106499,note_on,,59,0,6,,,,,,,,,,,,,,,,3,,74,0
106500,note_on,,1,0,6,,,,,,,,,,,,,,,,3,,78,64
106559,note_on,,119,0,5,,,,,,,,,,,,,,,,2,,50,0
106559,note_on,,119,0,7,,,,,,,,,,,,,,,,8,,50,0
106559,note_on,,0,0,12,,,,,,,,,,,,,,,,15,,69,0
106559,note_on,,0,0,12,,,,,,,,,,,,,,,,15,,66,0
106559,note_on,,59,0,6,,,,,,,,,,,,,,,,3,,78,0
106559,note_on,,119,0,11,,,,,,,,,,,,,,,,13,,50,0
106559,note_on,,119,0,12,,,,,,,,,,,,,,,,15,,74,0
106559,note_on,,0,0,12,,,,,,,,,,,,,,,,15,,50,0
106560,note_on,,1,0,6,,,,,,,,,,,,,,,,3,,76,64
106560,note_on,,1,0,7,,,,,,,,,,,,,,,,8,,62,72
106560,note_on,,0,0,12,,,,,,,,,,,,,,,,15,,78,48
106560,note_on,,0,0,12,,,,,,,,,,,,,,,,15,,69,48
106560,note_on,,0,0,12,,,,,,,,,,,,,,,,15,,62,48
106560,note_on,,1,0,11,,,,,,,,,,,,,,,,13,,62,48
106560,note_on,,1,0,5,,,,,,,,,,,,,,,,2,,62,48
106560,note_on,,1,0,12,,,,,,,,,,,,,,,,15,,74,48
106619,note_on,,59,0,6,,,,,,,,,,,,,,,,3,,76,0
106620,note_on,,1,0,6,,,,,,,,,,,,,,,,3,,74,64
106679,note_on,,119,0,11,,,,,,,,,,,,,,,,13,,62,0
106679,note_on,,119,0,7,,,,,,,,,,,,,,,,8,,62,0
106679,note_on,,119,0,12,,,,,,,,,,,,,,,,15,,74,0
106679,note_on,,0,0,12,,,,,,,,,,,,,,,,15,,69,0
106679,note_on,,0,0,12,,,,,,,,,,,,,,,,15,,78,0
106679,note_on,,0,0,12,,,,,,,,,,,,,,,,15,,62,0
106679,note_on,,119,0,5,,,,,,,,,,,,,,,,2,,62,0
106679,note_on,,59,0,6,,,,,,,,,,,,,,,,3,,74,0
106680,note_on,,1,0,6,,,,,,,,,,,,,,,,3,,76,64
106680,note_on,,1,0,7,,,,,,,,,,,,,,,,8,,61,72
106680,note_on,,1,0,11,,,,,,,,,,,,,,,,13,,61,48
106680,note_on,,1,0,12,,,,,,,,,,,,,,,,15,,69,48
106680,note_on,,0,0,12,,,,,,,,,,,,,,,,15,,61,48
106680,note_on,,1,0,5,,,,,,,,,,,,,,,,2,,61,48
106680,note_on,,0,0,12,,,,,,,,,,,,,,,,15,,64,48
106739,note_on,,59,0,5,,,,,,,,,,,,,,,,2,,61,0
106739,note_on,,59,0,12,,,,,,,,,,,,,,,,15,,61,0
106739,note_on,,59,0,7,,,,,,,,,,,,,,,,8,,61,0
106739,note_on,,0,0,12,,,,,,,,,,,,,,,,15,,64,0
106739,note_on,,59,0,11,,,,,,,,,,,,,,,,13,,61,0
106740,note_on,,1,0,7,,,,,,,,,,,,,,,,8,,59,72
106740,note_on,,1,0,12,,,,,,,,,,,,,,,,15,,59,48
106740,note_on,,0,0,12,,,,,,,,,,,,,,,,15,,62,48
106740,note_on,,1,0,5,,,,,,,,,,,,,,,,2,,59,48
106740,note_on,,1,0,11,,,,,,,,,,,,,,,,13,,59,48
106799,note_on,,59,0,11,,,,,,,,,,,,,,,,13,,59,0
106799,note_on,,59,0,12,,,,,,,,,,,,,,,,15,,59,0
106799,note_on,,0,0,12,,,,,,,,,,,,,,,,15,,62,0
106799,note_on,,59,0,5,,,,,,,,,,,,,,,,2,,59,0
106799,note_on,,59,0,7,,,,,,,,,,,,,,,,8,,59,0
106800,note_on,,1,0,12,,,,,,,,,,,,,,,,15,,57,48
106800,note_on,,0,0,12,,,,,,,,,,,,,,,,15,,61,48
106800,note_on,,1,0,11,,,,,,,,,,,,,,,,13,,57,48
106800,note_on,,1,0,7,,,,,,,,,,,,,,,,8,,57,72
106800,note_on,,1,0,5,,,,,,,,,,,,,,,,2,,57,48
106859,note_on,,59,0,12,,,,,,,,,,,,,,,,15,,57,0
106859,note_on,,59,0,11,,,,,,,,,,,,,,,,13,,57,0
106859,note_on,,59,0,7,,,,,,,,,,,,,,,,8,,57,0
106859,note_on,,59,0,5,,,,,,,,,,,,,,,,2,,57,0
106859,note_on,,0,0,12,,,,,,,,,,,,,,,,15,,61,0
106860,note_on,,1,0,5,,,,,,,,,,,,,,,,2,,61,48
106860,note_on,,1,0,7,,,,,,,,,,,,,,,,8,,61,72
106860,note_on,,0,0,12,,,,,,,,,,,,,,,,15,,64,48
106860,note_on,,1,0,12,,,,,,,,,,,,,,,,15,,61,48
106860,note_on,,1,0,11,,,,,,,,,,,,,,,,13,,61,48
106919,note_on,,59,0,5,,,,,,,,,,,,,,,,2,,61,0
106919,note_on,,239,0,6,,,,,,,,,,,,,,,,3,,76,0
106919,note_on,,59,0,12,,,,,,,,,,,,,,,,15,,61,0
106919,note_on,,0,0,12,,,,,,,,,,,,,,,,15,,64,0
106919,note_on,,59,0,11,,,,,,,,,,,,,,,,13,,61,0
106919,note_on,,59,0,7,,,,,,,,,,,,,,,,8,,61,0
106920,note_on,,1,0,7,,,,,,,,,,,,,,,,8,,59,72
106920,note_on,,1,0,11,,,,,,,,,,,,,,,,13,,59,48
106920,note_on,,721,0,9,,,,,,,,,,,,,,,,11,,64,48
106920,note_on,,0,0,12,,,,,,,,,,,,,,,,15,,59,48
106920,note_on,,721,0,10,,,,,,,,,,,,,,,,12,,64,48
106920,note_on,,721,0,8,,,,,,,,,,,,,,,,10,,81,48
106920,note_on,,1,0,6,,,,,,,,,,,,,,,,3,,81,64
106920,note_on,,1,0,5,,,,,,,,,,,,,,,,2,,59,48
106920,note_on,,1,0,12,,,,,,,,,,,,,,,,15,,62,48
106979,note_on,,59,0,5,,,,,,,,,,,,,,,,2,,59,0
106979,note_on,,59,0,11,,,,,,,,,,,,,,,,13,,59,0
106979,note_on,,59,0,7,,,,,,,,,,,,,,,,8,,59,0
106979,note_on,,59,0,12,,,,,,,,,,,,,,,,15,,62,0
106979,note_on,,0,0,12,,,,,,,,,,,,,,,,15,,59,0
106980,note_on,,0,0,12,,,,,,,,,,,,,,,,15,,61,48
106980,note_on,,1,0,5,,,,,,,,,,,,,,,,2,,57,48
106980,note_on,,1,0,12,,,,,,,,,,,,,,,,15,,57,48
106980,note_on,,1,0,7,,,,,,,,,,,,,,,,8,,57,72
106980,note_on,,1,0,11,,,,,,,,,,,,,,,,13,,57,48
107039,note_on,,59,0,5,,,,,,,,,,,,,,,,2,,57,0
107039,note_on,,119,0,10,,,,,,,,,,,,,,,,12,,64,0
107039,note_on,,119,0,6,,,,,,,,,,,,,,,,3,,81,0
107039,note_on,,119,0,8,,,,,,,,,,,,,,,,10,,81,0
107039,note_on,,119,0,9,,,,,,,,,,,,,,,,11,,64,0
107039,note_on,,59,0,11,,,,,,,,,,,,,,,,13,,57,0
107039,note_on,,59,0,7,,,,,,,,,,,,,,,,8,,57,0
107039,note_on,,59,0,12,,,,,,,,,,,,,,,,15,,69,0
107039,note_on,,0,0,12,,,,,,,,,,,,,,,,15,,61,0
107039,note_on,,0,0,12,,,,,,,,,,,,,,,,15,,57,0
107040,note_on,,1,0,5,,,,,,,,,,,,,,,,2,,62,48
107040,note_on,,1,0,12,,,,,,,,,,,,,,,,15,,68,48
107040,note_on,,1,0,9,,,,,,,,,,,,,,,,11,,71,48
107040,note_on,,0,0,12,,,,,,,,,,,,,,,,15,,71,48
107040,note_on,,0,0,12,,,,,,,,,,,,,,,,15,,62,48
107040,note_on,,0,0,12,,,,,,,,,,,,,,,,15,,64,48
107040,note_on,,1,0,11,,,,,,,,,,,,,,,,13,,62,48
107040,note_on,,1,0,6,,,,,,,,,,,,,,,,3,,80,64
107040,note_on,,1,0,7,,,,,,,,,,,,,,,,8,,62,72
107040,note_on,,1,0,10,,,,,,,,,,,,,,,,12,,64,48
107040,note_on,,1,0,8,,,,,,,,,,,,,,,,10,,80,48
107099,note_on,,59,0,6,,,,,,,,,,,,,,,,3,,80,0
107099,note_on,,59,0,8,,,,,,,,,,,,,,,,10,,80,0
107100,note_on,,1,0,8,,,,,,,,,,,,,,,,10,,78,48
107100,note_on,,1,0,6,,,,,,,,,,,,,,,,3,,78,64
107159,note_on,,59,0,6,,,,,,,,,,,,,,,,3,,78,0
107159,note_on,,59,0,8,,,,,,,,,,,,,,,,10,,78,0
107160,note_on,,1,0,6,,,,,,,,,,,,,,,,3,,76,64
107160,note_on,,1,0,8,,,,,,,,,,,,,,,,10,,76,48
107219,note_on,,179,0,12,,,,,,,,,,,,,,,,15,,62,0
107219,note_on,,59,0,6,,,,,,,,,,,,,,,,3,,76,0
107219,note_on,,179,0,7,,,,,,,,,,,,,,,,8,,62,0
107219,note_on,,59,0,8,,,,,,,,,,,,,,,,10,,76,0
107219,note_on,,179,0,11,,,,,,,,,,,,,,,,13,,62,0
107219,note_on,,179,0,5,,,,,,,,,,,,,,,,2,,62,0
107220,note_on,,1,0,11,,,,,,,,,,,,,,,,13,,64,48
107220,note_on,,1,0,7,,,,,,,,,,,,,,,,8,,64,72
107220,note_on,,1,0,5,,,,,,,,,,,,,,,,2,,64,48
107220,note_on,,1,0,6,,,,,,,,,,,,,,,,3,,80,64
107220,note_on,,1,0,8,,,,,,,,,,,,,,,,10,,80,48
107220,note_on,,1,0,12,,,,,,,,,,,,,,,,15,,64,48
107279,note_on,,59,0,5,,,,,,,,,,,,,,,,2,,64,0
107279,note_on,,239,0,9,,,,,,,,,,,,,,,,11,,71,0
107279,note_on,,239,0,10,,,,,,,,,,,,,,,,12,,64,0
107279,note_on,,59,0,6,,,,,,,,,,,,,,,,3,,80,0
107279,note_on,,59,0,12,,,,,,,,,,,,,,,,15,,64,0
107279,note_on,,59,0,7,,,,,,,,,,,,,,,,8,,64,0
107279,note_on,,59,0,8,,,,,,,,,,,,,,,,10,,80,0
107279,note_on,,59,0,11,,,,,,,,,,,,,,,,13,,64,0
107280,note_on,,1,0,12,,,,,,,,,,,,,,,,15,,62,48
107280,note_on,,1,0,8,,,,,,,,,,,,,,,,10,,78,48
107280,note_on,,1,0,5,,,,,,,,,,,,,,,,2,,62,48
107280,note_on,,1,0,9,,,,,,,,,,,,,,,,11,,71,48
107280,note_on,,1,0,11,,,,,,,,,,,,,,,,13,,62,48
107280,note_on,,1,0,10,,,,,,,,,,,,,,,,12,,64,48
107280,note_on,,1,0,6,,,,,,,,,,,,,,,,3,,78,64
107280,note_on,,1,0,7,,,,,,,,,,,,,,,,8,,62,72
107339,note_on,,59,0,5,,,,,,,,,,,,,,,,2,,62,0
107339,note_on,,59,0,6,,,,,,,,,,,,,,,,3,,78,0
107339,note_on,,59,0,8,,,,,,,,,,,,,,,,10,,78,0
107339,note_on,,59,0,12,,,,,,,,,,,,,,,,15,,62,0
107339,note_on,,59,0,11,,,,,,,,,,,,,,,,13,,62,0
107339,note_on,,59,0,7,,,,,,,,,,,,,,,,8,,62,0
107340,note_on,,1,0,11,,,,,,,,,,,,,,,,13,,64,48
107340,note_on,,1,0,8,,,,,,,,,,,,,,,,10,,76,48
107340,note_on,,1,0,6,,,,,,,,,,,,,,,,3,,76,64
107340,note_on,,1,0,5,,,,,,,,,,,,,,,,2,,64,48
107340,note_on,,1,0,7,,,,,,,,,,,,,,,,8,,64,72
107340,note_on,,1,0,12,,,,,,,,,,,,,,,,15,,64,48
107399,note_on,,119,0,10,,,,,,,,,,,,,,,,12,,64,0
107399,note_on,,59,0,12,,,,,,,,,,,,,,,,15,,68,0
107399,note_on,,59,0,5,,,,,,,,,,,,,,,,2,,64,0
107399,note_on,,119,0,9,,,,,,,,,,,,,,,,11,,71,0
107399,note_on,,0,0,12,,,,,,,,,,,,,,,,15,,64,0
107399,note_on,,59,0,7,,,,,,,,,,,,,,,,8,,64,0
107399,note_on,,0,0,12,,,,,,,,,,,,,,,,15,,64,0
107399,note_on,,59,0,11,,,,,,,,,,,,,,,,13,,64,0
107399,note_on,,59,0,8,,,,,,,,,,,,,,,,10,,76,0
107399,note_on,,0,0,12,,,,,,,,,,,,,,,,15,,71,0
107399,note_on,,59,0,6,,,,,,,,,,,,,,,,3,,76,0
107400,note_on,,1,0,9,,,,,,,,,,,,,,,,11,,69,48
107400,note_on,,0,0,12,,,,,,,,,,,,,,,,15,,76,48
107400,note_on,,1,0,8,,,,,,,,,,,,,,,,10,,81,48
107400,note_on,,0,0,12,,,,,,,,,,,,,,,,15,,61,48
107400,note_on,,1,0,11,,,,,,,,,,,,,,,,13,,61,48
107400,note_on,,1,0,7,,,,,,,,,,,,,,,,8,,61,72
107400,note_on,,1,0,5,,,,,,,,,,,,,,,,2,,61,48
107400,note_on,,1,0,10,,,,,,,,,,,,,,,,12,,64,48
107400,note_on,,1,0,6,,,,,,,,,,,,,,,,3,,81,64
107400,note_on,,0,0,12,,,,,,,,,,,,,,,,15,,64,48
107400,note_on,,1,0,12,,,,,,,,,,,,,,,,15,,69,48
107519,note_on,,0,0,12,,,,,,,,,,,,,,,,15,,61,0
107519,note_on,,0,0,12,,,,,,,,,,,,,,,,15,,76,0
107519,note_on,,119,0,10,,,,,,,,,,,,,,,,12,,64,0
107519,note_on,,119,0,9,,,,,,,,,,,,,,,,11,,69,0
107519,note_on,,119,0,5,,,,,,,,,,,,,,,,2,,61,0
107519,note_on,,119,0,7,,,,,,,,,,,,,,,,8,,61,0
107519,note_on,,119,0,11,,,,,,,,,,,,,,,,13,,61,0
107519,note_on,,119,0,8,,,,,,,,,,,,,,,,10,,81,0
107519,note_on,,0,0,12,,,,,,,,,,,,,,,,15,,64,0
107519,note_on,,119,0,6,,,,,,,,,,,,,,,,3,,81,0
107519,note_on,,119,0,12,,,,,,,,,,,,,,,,15,,69,0
107520,note_on,,1,0,8,,,,,,,,,,,,,,,,10,,86,48
107579,note_on,,59,0,8,,,,,,,,,,,,,,,,10,,86,0
107580,note_on,,1,0,8,,,,,,,,,,,,,,,,10,,83,48
107639,note_on,,59,0,8,,,,,,,,,,,,,,,,10,,83,0
107640,note_on,,1,0,8,,,,,,,,,,,,,,,,10,,81,48
107640,note_on,,121,0,9,,,,,,,,,,,,,,,,11,,71,48
107640,note_on,,121,0,12,,,,,,,,,,,,,,,,15,,62,48
107640,note_on,,0,0,12,,,,,,,,,,,,,,,,15,,71,48
107640,note_on,,0,0,12,,,,,,,,,,,,,,,,15,,59,48
107640,note_on,,121,0,5,,,,,,,,,,,,,,,,2,,59,48
107640,note_on,,121,0,10,,,,,,,,,,,,,,,,12,,62,48
107640,note_on,,121,0,7,,,,,,,,,,,,,,,,8,,59,72
107640,note_on,,121,0,11,,,,,,,,,,,,,,,,13,,59,48
107654,note_on,,14,0,8,,,,,,,,,,,,,,,,10,,81,0
107655,note_on,,1,0,8,,,,,,,,,,,,,,,,10,,83,48
107669,note_on,,14,0,8,,,,,,,,,,,,,,,,10,,83,0
107670,note_on,,1,0,8,,,,,,,,,,,,,,,,10,,81,48
107684,note_on,,14,0,8,,,,,,,,,,,,,,,,10,,81,0
107685,note_on,,1,0,8,,,,,,,,,,,,,,,,10,,83,48
107699,note_on,,14,0,8,,,,,,,,,,,,,,,,10,,83,0
107700,note_on,,1,0,8,,,,,,,,,,,,,,,,10,,80,48
107714,note_on,,14,0,8,,,,,,,,,,,,,,,,10,,80,0
107715,note_on,,1,0,8,,,,,,,,,,,,,,,,10,,81,48
107729,note_on,,14,0,8,,,,,,,,,,,,,,,,10,,81,0
107730,note_on,,1,0,8,,,,,,,,,,,,,,,,10,,80,48
107759,note_on,,0,0,12,,,,,,,,,,,,,,,,15,,59,0
107759,note_on,,119,0,5,,,,,,,,,,,,,,,,2,,59,0
107759,note_on,,29,0,8,,,,,,,,,,,,,,,,10,,80,0
107759,note_on,,119,0,9,,,,,,,,,,,,,,,,11,,71,0
107759,note_on,,0,0,12,,,,,,,,,,,,,,,,15,,71,0
107759,note_on,,119,0,7,,,,,,,,,,,,,,,,8,,59,0
107759,note_on,,119,0,12,,,,,,,,,,,,,,,,15,,62,0
107759,note_on,,119,0,11,,,,,,,,,,,,,,,,13,,59,0
107759,note_on,,119,0,10,,,,,,,,,,,,,,,,12,,62,0
107760,note_on,,1,0,11,,,,,,,,,,,,,,,,13,,61,48
107760,note_on,,0,0,12,,,,,,,,,,,,,,,,15,,76,48
107760,note_on,,1,0,7,,,,,,,,,,,,,,,,8,,61,72
107760,note_on,,1,0,12,,,,,,,,,,,,,,,,15,,69,48
107760,note_on,,1,0,8,,,,,,,,,,,,,,,,10,,81,48
107760,note_on,,1,0,10,,,,,,,,,,,,,,,,12,,64,48
107760,note_on,,0,0,12,,,,,,,,,,,,,,,,15,,61,48
107760,note_on,,1,0,5,,,,,,,,,,,,,,,,2,,61,48
107760,note_on,,241,0,6,,,,,,,,,,,,,,,,3,,81,64
107760,note_on,,1,0,9,,,,,,,,,,,,,,,,11,,69,48
107760,note_on,,0,0,12,,,,,,,,,,,,,,,,15,,64,48
107879,note_on,,119,0,8,,,,,,,,,,,,,,,,10,,81,0
107879,note_on,,119,0,9,,,,,,,,,,,,,,,,11,,69,0
107879,note_on,,119,0,7,,,,,,,,,,,,,,,,8,,61,0
107879,note_on,,119,0,10,,,,,,,,,,,,,,,,12,,64,0
107879,note_on,,119,0,5,,,,,,,,,,,,,,,,2,,61,0
107879,note_on,,119,0,12,,,,,,,,,,,,,,,,15,,69,0
107879,note_on,,119,0,11,,,,,,,,,,,,,,,,13,,61,0
107879,note_on,,119,0,6,,,,,,,,,,,,,,,,3,,81,0
107879,note_on,,0,0,12,,,,,,,,,,,,,,,,15,,76,0
107879,note_on,,0,0,12,,,,,,,,,,,,,,,,15,,61,0
107879,note_on,,0,0,12,,,,,,,,,,,,,,,,15,,64,0
107880,note_on,,1,0,8,,,,,,,,,,,,,,,,10,,86,48
107939,note_on,,59,0,8,,,,,,,,,,,,,,,,10,,86,0
107940,note_on,,1,0,8,,,,,,,,,,,,,,,,10,,83,48
107999,note_on,,59,0,8,,,,,,,,,,,,,,,,10,,83,0
108000,note_on,,121,0,12,,,,,,,,,,,,,,,,15,,62,48
108000,note_on,,121,0,10,,,,,,,,,,,,,,,,12,,62,48
108000,note_on,,121,0,9,,,,,,,,,,,,,,,,11,,71,48
108000,note_on,,1,0,8,,,,,,,,,,,,,,,,10,,81,48
108000,note_on,,121,0,7,,,,,,,,,,,,,,,,8,,59,72
108000,note_on,,121,0,11,,,,,,,,,,,,,,,,13,,59,48
108000,note_on,,0,0,12,,,,,,,,,,,,,,,,15,,71,48
108000,note_on,,0,0,12,,,,,,,,,,,,,,,,15,,59,48
108000,note_on,,121,0,5,,,,,,,,,,,,,,,,2,,59,48
108014,note_on,,14,0,8,,,,,,,,,,,,,,,,10,,81,0
108015,note_on,,1,0,8,,,,,,,,,,,,,,,,10,,83,48
108029,note_on,,14,0,8,,,,,,,,,,,,,,,,10,,83,0
108030,note_on,,1,0,8,,,,,,,,,,,,,,,,10,,81,48
108044,note_on,,14,0,8,,,,,,,,,,,,,,,,10,,81,0
108045,note_on,,1,0,8,,,,,,,,,,,,,,,,10,,83,48
108059,note_on,,14,0,8,,,,,,,,,,,,,,,,10,,83,0
108060,note_on,,1,0,8,,,,,,,,,,,,,,,,10,,80,48
108074,note_on,,14,0,8,,,,,,,,,,,,,,,,10,,80,0
108075,note_on,,1,0,8,,,,,,,,,,,,,,,,10,,81,48
108089,note_on,,14,0,8,,,,,,,,,,,,,,,,10,,81,0
108090,note_on,,1,0,8,,,,,,,,,,,,,,,,10,,80,48
108119,note_on,,0,0,12,,,,,,,,,,,,,,,,15,,59,0
108119,note_on,,119,0,9,,,,,,,,,,,,,,,,11,,71,0
108119,note_on,,119,0,5,,,,,,,,,,,,,,,,2,,59,0
108119,note_on,,119,0,7,,,,,,,,,,,,,,,,8,,59,0
108119,note_on,,119,0,12,,,,,,,,,,,,,,,,15,,62,0
108119,note_on,,29,0,8,,,,,,,,,,,,,,,,10,,80,0
108119,note_on,,119,0,10,,,,,,,,,,,,,,,,12,,62,0
108119,note_on,,0,0,12,,,,,,,,,,,,,,,,15,,71,0
108119,note_on,,119,0,11,,,,,,,,,,,,,,,,13,,59,0
108120,note_on,,241,0,6,,,,,,,,,,,,,,,,3,,81,64
108120,note_on,,1,0,8,,,,,,,,,,,,,,,,10,,81,48
108120,note_on,,1,0,9,,,,,,,,,,,,,,,,11,,69,48
108120,note_on,,1,0,10,,,,,,,,,,,,,,,,12,,64,48
108120,note_on,,1,0,11,,,,,,,,,,,,,,,,13,,61,48
108120,note_on,,1,0,7,,,,,,,,,,,,,,,,8,,61,72
108120,note_on,,0,0,12,,,,,,,,,,,,,,,,15,,61,48
108120,note_on,,0,0,12,,,,,,,,,,,,,,,,15,,76,48
108120,note_on,,1,0,5,,,,,,,,,,,,,,,,2,,61,48
108120,note_on,,1,0,12,,,,,,,,,,,,,,,,15,,69,48
108120,note_on,,0,0,12,,,,,,,,,,,,,,,,15,,64,48
108239,note_on,,0,0,12,,,,,,,,,,,,,,,,15,,61,0
108239,note_on,,0,0,12,,,,,,,,,,,,,,,,15,,64,0
108239,note_on,,119,0,12,,,,,,,,,,,,,,,,15,,69,0
108239,note_on,,119,0,9,,,,,,,,,,,,,,,,11,,69,0
108239,note_on,,0,0,12,,,,,,,,,,,,,,,,15,,76,0
108239,note_on,,119,0,6,,,,,,,,,,,,,,,,3,,81,0
108239,note_on,,119,0,8,,,,,,,,,,,,,,,,10,,81,0
108239,note_on,,119,0,5,,,,,,,,,,,,,,,,2,,61,0
108239,note_on,,119,0,11,,,,,,,,,,,,,,,,13,,61,0
108239,note_on,,119,0,10,,,,,,,,,,,,,,,,12,,64,0
108240,note_on,,1,0,8,,,,,,,,,,,,,,,,10,,86,48
108299,note_on,,179,0,7,,,,,,,,,,,,,,,,8,,61,0
108299,note_on,,59,0,8,,,,,,,,,,,,,,,,10,,86,0
108300,note_on,,1,0,7,,,,,,,,,,,,,,,,8,,62,72
108300,note_on,,1,0,8,,,,,,,,,,,,,,,,10,,83,48
108359,note_on,,59,0,7,,,,,,,,,,,,,,,,8,,62,0
108359,note_on,,59,0,8,,,,,,,,,,,,,,,,10,,83,0
108360,note_on,,121,0,10,,,,,,,,,,,,,,,,12,,62,48
108360,note_on,,121,0,9,,,,,,,,,,,,,,,,11,,71,48
108360,note_on,,1,0,7,,,,,,,,,,,,,,,,8,,61,72
108360,note_on,,0,0,12,,,,,,,,,,,,,,,,15,,62,48
108360,note_on,,121,0,5,,,,,,,,,,,,,,,,2,,59,48
108360,note_on,,1,0,8,,,,,,,,,,,,,,,,10,,81,48
108360,note_on,,0,0,12,,,,,,,,,,,,,,,,15,,59,48
108360,note_on,,121,0,11,,,,,,,,,,,,,,,,13,,59,48
108360,note_on,,121,0,12,,,,,,,,,,,,,,,,15,,71,48
108374,note_on,,14,0,8,,,,,,,,,,,,,,,,10,,81,0
108375,note_on,,1,0,8,,,,,,,,,,,,,,,,10,,83,48
108389,note_on,,14,0,8,,,,,,,,,,,,,,,,10,,83,0
108390,note_on,,1,0,8,,,,,,,,,,,,,,,,10,,81,48
108404,note_on,,14,0,8,,,,,,,,,,,,,,,,10,,81,0
108405,note_on,,1,0,8,,,,,,,,,,,,,,,,10,,83,48
108419,note_on,,14,0,8,,,,,,,,,,,,,,,,10,,83,0
108419,note_on,,59,0,7,,,,,,,,,,,,,,,,8,,61,0
108420,note_on,,1,0,7,,,,,,,,,,,,,,,,8,,59,72
108420,note_on,,1,0,8,,,,,,,,,,,,,,,,10,,80,48
108434,note_on,,14,0,8,,,,,,,,,,,,,,,,10,,80,0
108435,note_on,,1,0,8,,,,,,,,,,,,,,,,10,,81,48
108449,note_on,,14,0,8,,,,,,,,,,,,,,,,10,,81,0
108450,note_on,,1,0,8,,,,,,,,,,,,,,,,10,,80,48
108479,note_on,,59,0,7,,,,,,,,,,,,,,,,8,,59,0
108479,note_on,,119,0,11,,,,,,,,,,,,,,,,13,,59,0
108479,note_on,,119,0,9,,,,,,,,,,,,,,,,11,,71,0
108479,note_on,,0,0,12,,,,,,,,,,,,,,,,15,,59,0
108479,note_on,,119,0,5,,,,,,,,,,,,,,,,2,,59,0
108479,note_on,,119,0,12,,,,,,,,,,,,,,,,15,,71,0
108479,note_on,,29,0,8,,,,,,,,,,,,,,,,10,,80,0
108479,note_on,,0,0,12,,,,,,,,,,,,,,,,15,,62,0
108479,note_on,,119,0,10,,,,,,,,,,,,,,,,12,,62,0
108480,note_on,,1,0,7,,,,,,,,,,,,,,,,8,,61,72
108480,note_on,,1,0,5,,,,,,,,,,,,,,,,2,,61,48
108480,note_on,,1,0,8,,,,,,,,,,,,,,,,10,,81,48
108480,note_on,,1,0,12,,,,,,,,,,,,,,,,15,,76,48
108480,note_on,,1,0,9,,,,,,,,,,,,,,,,11,,69,48
108480,note_on,,0,0,12,,,,,,,,,,,,,,,,15,,69,48
108480,note_on,,1,0,11,,,,,,,,,,,,,,,,13,,61,48
108480,note_on,,1,0,10,,,,,,,,,,,,,,,,12,,64,48
108480,note_on,,0,0,12,,,,,,,,,,,,,,,,15,,61,48
108480,note_on,,0,0,12,,,,,,,,,,,,,,,,15,,64,48
108480,note_on,,241,0,6,,,,,,,,,,,,,,,,3,,81,64
108599,note_on,,119,0,8,,,,,,,,,,,,,,,,10,,81,0
108599,note_on,,119,0,10,,,,,,,,,,,,,,,,12,,64,0
108599,note_on,,119,0,5,,,,,,,,,,,,,,,,2,,61,0
108599,note_on,,119,0,6,,,,,,,,,,,,,,,,3,,81,0
108599,note_on,,0,0,12,,,,,,,,,,,,,,,,15,,69,0
108599,note_on,,0,0,12,,,,,,,,,,,,,,,,15,,61,0
108599,note_on,,0,0,12,,,,,,,,,,,,,,,,15,,64,0
108599,note_on,,119,0,11,,,,,,,,,,,,,,,,13,,61,0
108599,note_on,,119,0,12,,,,,,,,,,,,,,,,15,,76,0
108599,note_on,,119,0,9,,,,,,,,,,,,,,,,11,,69,0
108600,note_on,,1,0,8,,,,,,,,,,,,,,,,10,,86,48
108659,note_on,,59,0,8,,,,,,,,,,,,,,,,10,,86,0
108659,note_on,,179,0,7,,,,,,,,,,,,,,,,8,,61,0
108660,note_on,,1,0,8,,,,,,,,,,,,,,,,10,,83,48
108660,note_on,,1,0,7,,,,,,,,,,,,,,,,8,,62,72
108719,note_on,,59,0,8,,,,,,,,,,,,,,,,10,,83,0
108719,note_on,,59,0,7,,,,,,,,,,,,,,,,8,,62,0
108720,note_on,,121,0,12,,,,,,,,,,,,,,,,15,,59,48
108720,note_on,,1,0,7,,,,,,,,,,,,,,,,8,,61,72
108720,note_on,,0,0,12,,,,,,,,,,,,,,,,15,,71,48
108720,note_on,,121,0,9,,,,,,,,,,,,,,,,11,,71,48
108720,note_on,,121,0,11,,,,,,,,,,,,,,,,13,,59,48
108720,note_on,,121,0,10,,,,,,,,,,,,,,,,12,,62,48
108720,note_on,,1,0,8,,,,,,,,,,,,,,,,10,,81,48
108720,note_on,,121,0,5,,,,,,,,,,,,,,,,2,,59,48
108720,note_on,,0,0,12,,,,,,,,,,,,,,,,15,,62,48
108734,note_on,,14,0,8,,,,,,,,,,,,,,,,10,,81,0
108735,note_on,,1,0,8,,,,,,,,,,,,,,,,10,,83,48
108749,note_on,,14,0,8,,,,,,,,,,,,,,,,10,,83,0
108750,note_on,,1,0,8,,,,,,,,,,,,,,,,10,,81,48
108764,note_on,,14,0,8,,,,,,,,,,,,,,,,10,,81,0
108765,note_on,,1,0,8,,,,,,,,,,,,,,,,10,,83,48
108779,note_on,,14,0,8,,,,,,,,,,,,,,,,10,,83,0
108779,note_on,,59,0,7,,,,,,,,,,,,,,,,8,,61,0
108780,note_on,,1,0,8,,,,,,,,,,,,,,,,10,,80,48
108780,note_on,,1,0,7,,,,,,,,,,,,,,,,8,,59,72
108794,note_on,,14,0,8,,,,,,,,,,,,,,,,10,,80,0
108795,note_on,,1,0,8,,,,,,,,,,,,,,,,10,,81,48
108809,note_on,,14,0,8,,,,,,,,,,,,,,,,10,,81,0
108810,note_on,,1,0,8,,,,,,,,,,,,,,,,10,,80,48
108839,note_on,,119,0,5,,,,,,,,,,,,,,,,2,,59,0
108839,note_on,,119,0,9,,,,,,,,,,,,,,,,11,,71,0
108839,note_on,,119,0,11,,,,,,,,,,,,,,,,13,,59,0
108839,note_on,,0,0,12,,,,,,,,,,,,,,,,15,,71,0
108839,note_on,,0,0,12,,,,,,,,,,,,,,,,15,,62,0
108839,note_on,,29,0,8,,,,,,,,,,,,,,,,10,,80,0
108839,note_on,,59,0,7,,,,,,,,,,,,,,,,8,,59,0
108839,note_on,,119,0,12,,,,,,,,,,,,,,,,15,,59,0
108839,note_on,,119,0,10,,,,,,,,,,,,,,,,12,,62,0
108840,note_on,,1,0,5,,,,,,,,,,,,,,,,2,,61,48
108840,note_on,,1,0,7,,,,,,,,,,,,,,,,8,,61,72
108840,note_on,,1,0,9,,,,,,,,,,,,,,,,11,,69,48
108840,note_on,,1,0,10,,,,,,,,,,,,,,,,12,,64,48
108840,note_on,,1,0,11,,,,,,,,,,,,,,,,13,,61,48
108840,note_on,,0,0,12,,,,,,,,,,,,,,,,15,,69,48
108840,note_on,,0,0,12,,,,,,,,,,,,,,,,15,,61,48
108840,note_on,,0,0,12,,,,,,,,,,,,,,,,15,,64,48
108840,note_on,,1,0,12,,,,,,,,,,,,,,,,15,,76,48
108840,note_on,,1,0,8,,,,,,,,,,,,,,,,10,,81,48
108840,note_on,,241,0,6,,,,,,,,,,,,,,,,3,,81,64
108899,note_on,,59,0,8,,,,,,,,,,,,,,,,10,,81,0
108899,note_on,,59,0,12,,,,,,,,,,,,,,,,15,,61,0
108899,note_on,,59,0,11,,,,,,,,,,,,,,,,13,,61,0
108899,note_on,,59,0,7,,,,,,,,,,,,,,,,8,,61,0
108899,note_on,,59,0,5,,,,,,,,,,,,,,,,2,,61,0
108900,note_on,,1,0,11,,,,,,,,,,,,,,,,13,,62,48
108900,note_on,,1,0,7,,,,,,,,,,,,,,,,8,,62,72
108900,note_on,,1,0,8,,,,,,,,,,,,,,,,10,,78,48
108900,note_on,,1,0,5,,,,,,,,,,,,,,,,2,,62,48
108900,note_on,,1,0,12,,,,,,,,,,,,,,,,15,,62,48
108959,note_on,,119,0,6,,,,,,,,,,,,,,,,3,,81,0
108959,note_on,,119,0,10,,,,,,,,,,,,,,,,12,,64,0
108959,note_on,,0,0,12,,,,,,,,,,,,,,,,15,,64,0
108959,note_on,,0,0,12,,,,,,,,,,,,,,,,15,,69,0
108959,note_on,,119,0,9,,,,,,,,,,,,,,,,11,,69,0
108959,note_on,,0,0,12,,,,,,,,,,,,,,,,15,,62,0
108959,note_on,,59,0,5,,,,,,,,,,,,,,,,2,,62,0
108959,note_on,,59,0,11,,,,,,,,,,,,,,,,13,,62,0
108959,note_on,,59,0,7,,,,,,,,,,,,,,,,8,,62,0
108959,note_on,,59,0,12,,,,,,,,,,,,,,,,15,,76,0
108959,note_on,,59,0,8,,,,,,,,,,,,,,,,10,,78,0
108960,note_on,,0,0,12,,,,,,,,,,,,,,,,15,,67,48
108960,note_on,,1,0,5,,,,,,,,,,,,,,,,2,,64,48
108960,note_on,,1,0,7,,,,,,,,,,,,,,,,8,,64,72
108960,note_on,,1,0,6,,,,,,,,,,,,,,,,3,,76,64
108960,note_on,,1,0,11,,,,,,,,,,,,,,,,13,,64,48
108960,note_on,,0,0,12,,,,,,,,,,,,,,,,15,,64,48
108960,note_on,,1,0,12,,,,,,,,,,,,,,,,15,,71,48
108960,note_on,,1,0,8,,,,,,,,,,,,,,,,10,,79,48
109079,note_on,,119,0,7,,,,,,,,,,,,,,,,8,,64,0
109079,note_on,,119,0,12,,,,,,,,,,,,,,,,15,,71,0
109079,note_on,,119,0,11,,,,,,,,,,,,,,,,13,,64,0
109079,note_on,,0,0,12,,,,,,,,,,,,,,,,15,,64,0
109079,note_on,,0,0,12,,,,,,,,,,,,,,,,15,,67,0
109079,note_on,,119,0,5,,,,,,,,,,,,,,,,2,,64,0
109080,note_on,,121,0,10,,,,,,,,,,,,,,,,12,,64,48
109080,note_on,,0,0,12,,,,,,,,,,,,,,,,15,,64,48
109080,note_on,,0,0,12,,,,,,,,,,,,,,,,15,,57,48
109080,note_on,,0,0,12,,,,,,,,,,,,,,,,15,,69,48
109080,note_on,,1,0,5,,,,,,,,,,,,,,,,2,,57,48
109080,note_on,,1,0,7,,,,,,,,,,,,,,,,8,,57,72
109080,note_on,,1,0,11,,,,,,,,,,,,,,,,13,,57,48
109080,note_on,,1,0,12,,,,,,,,,,,,,,,,15,,73,48
109080,note_on,,121,0,9,,,,,,,,,,,,,,,,11,,73,48
109139,note_on,,179,0,6,,,,,,,,,,,,,,,,3,,76,0
109139,note_on,,179,0,8,,,,,,,,,,,,,,,,10,,79,0
109140,note_on,,1,0,6,,,,,,,,,,,,,,,,3,,79,64
109140,note_on,,1,0,8,,,,,,,,,,,,,,,,10,,76,48
109199,note_on,,59,0,6,,,,,,,,,,,,,,,,3,,79,0
109199,note_on,,59,0,8,,,,,,,,,,,,,,,,10,,76,0
109199,note_on,,119,0,12,,,,,,,,,,,,,,,,15,,73,0
109199,note_on,,119,0,11,,,,,,,,,,,,,,,,13,,57,0
109199,note_on,,0,0,12,,,,,,,,,,,,,,,,15,,57,0
109199,note_on,,0,0,12,,,,,,,,,,,,,,,,15,,69,0
109199,note_on,,119,0,9,,,,,,,,,,,,,,,,11,,73,0
109199,note_on,,119,0,7,,,,,,,,,,,,,,,,8,,57,0
109199,note_on,,119,0,5,,,,,,,,,,,,,,,,2,,57,0
109199,note_on,,0,0,12,,,,,,,,,,,,,,,,15,,64,0
109199,note_on,,119,0,10,,,,,,,,,,,,,,,,12,,64,0
109200,note_on,,1,0,8,,,,,,,,,,,,,,,,10,,78,48
109200,note_on,,1,0,9,,,,,,,,,,,,,,,,11,,69,48
109200,note_on,,1,0,7,,,,,,,,,,,,,,,,8,,62,72
109200,note_on,,1,0,11,,,,,,,,,,,,,,,,13,,62,48
109200,note_on,,1,0,5,,,,,,,,,,,,,,,,2,,62,48
109200,note_on,,0,0,12,,,,,,,,,,,,,,,,15,,69,48
109200,note_on,,0,0,12,,,,,,,,,,,,,,,,15,,66,48
109200,note_on,,0,0,12,,,,,,,,,,,,,,,,15,,74,48
109200,note_on,,1,0,12,,,,,,,,,,,,,,,,15,,62,48
109200,note_on,,1,0,6,,,,,,,,,,,,,,,,3,,78,64
109200,note_on,,1,0,10,,,,,,,,,,,,,,,,12,,62,48
109259,note_on,,59,0,8,,,,,,,,,,,,,,,,10,,78,0
109259,note_on,,59,0,6,,,,,,,,,,,,,,,,3,,78,0
109260,note_on,,1,0,6,,,,,,,,,,,,,,,,3,,79,64
109260,note_on,,1,0,8,,,,,,,,,,,,,,,,10,,79,48
109319,note_on,,119,0,11,,,,,,,,,,,,,,,,13,,62,0
109319,note_on,,119,0,7,,,,,,,,,,,,,,,,8,,62,0
109319,note_on,,119,0,9,,,,,,,,,,,,,,,,11,,69,0
109319,note_on,,59,0,8,,,,,,,,,,,,,,,,10,,79,0
109319,note_on,,0,0,12,,,,,,,,,,,,,,,,15,,74,0
109319,note_on,,0,0,12,,,,,,,,,,,,,,,,15,,69,0
109319,note_on,,119,0,10,,,,,,,,,,,,,,,,12,,62,0
109319,note_on,,0,0,12,,,,,,,,,,,,,,,,15,,66,0
109319,note_on,,119,0,12,,,,,,,,,,,,,,,,15,,62,0
109319,note_on,,59,0,6,,,,,,,,,,,,,,,,3,,79,0
109319,note_on,,119,0,5,,,,,,,,,,,,,,,,2,,62,0
109320,note_on,,1,0,9,,,,,,,,,,,,,,,,11,,71,48
109320,note_on,,1,0,10,,,,,,,,,,,,,,,,12,,62,48
109320,note_on,,1,0,11,,,,,,,,,,,,,,,,13,,55,48
109320,note_on,,1,0,7,,,,,,,,,,,,,,,,8,,55,72
109320,note_on,,0,0,12,,,,,,,,,,,,,,,,15,,71,48
109320,note_on,,0,0,12,,,,,,,,,,,,,,,,15,,76,48
109320,note_on,,0,0,12,,,,,,,,,,,,,,,,15,,67,48
109320,note_on,,1,0,12,,,,,,,,,,,,,,,,15,,55,48
109320,note_on,,1,0,6,,,,,,,,,,,,,,,,3,,76,64
109320,note_on,,1,0,5,,,,,,,,,,,,,,,,2,,55,48
109320,note_on,,1,0,8,,,,,,,,,,,,,,,,10,,76,48
109334,note_on,,14,0,6,,,,,,,,,,,,,,,,3,,76,0
109334,note_on,,14,0,8,,,,,,,,,,,,,,,,10,,76,0
109335,note_on,,1,0,8,,,,,,,,,,,,,,,,10,,78,48
109335,note_on,,1,0,6,,,,,,,,,,,,,,,,3,,78,64
109349,note_on,,14,0,8,,,,,,,,,,,,,,,,10,,78,0
109349,note_on,,14,0,6,,,,,,,,,,,,,,,,3,,78,0
109350,note_on,,1,0,8,,,,,,,,,,,,,,,,10,,76,48
109350,note_on,,1,0,6,,,,,,,,,,,,,,,,3,,76,64
109364,note_on,,14,0,8,,,,,,,,,,,,,,,,10,,76,0
109364,note_on,,14,0,6,,,,,,,,,,,,,,,,3,,76,0
109365,note_on,,1,0,8,,,,,,,,,,,,,,,,10,,78,48
109365,note_on,,1,0,6,,,,,,,,,,,,,,,,3,,78,64
109379,note_on,,14,0,6,,,,,,,,,,,,,,,,3,,78,0
109379,note_on,,14,0,8,,,,,,,,,,,,,,,,10,,78,0
109380,note_on,,1,0,8,,,,,,,,,,,,,,,,10,,76,48
109380,note_on,,1,0,6,,,,,,,,,,,,,,,,3,,76,64
109394,note_on,,14,0,8,,,,,,,,,,,,,,,,10,,76,0
109394,note_on,,14,0,6,,,,,,,,,,,,,,,,3,,76,0
109395,note_on,,1,0,6,,,,,,,,,,,,,,,,3,,78,64
109395,note_on,,1,0,8,,,,,,,,,,,,,,,,10,,78,48
109409,note_on,,14,0,6,,,,,,,,,,,,,,,,3,,78,0
109409,note_on,,14,0,8,,,,,,,,,,,,,,,,10,,78,0
109410,note_on,,1,0,6,,,,,,,,,,,,,,,,3,,76,64
109410,note_on,,1,0,8,,,,,,,,,,,,,,,,10,,76,48
109424,note_on,,14,0,8,,,,,,,,,,,,,,,,10,,76,0
109424,note_on,,14,0,6,,,,,,,,,,,,,,,,3,,76,0
109425,note_on,,1,0,6,,,,,,,,,,,,,,,,3,,78,64
109425,note_on,,1,0,8,,,,,,,,,,,,,,,,10,,78,48
109439,note_on,,119,0,7,,,,,,,,,,,,,,,,8,,55,0
109439,note_on,,14,0,6,,,,,,,,,,,,,,,,3,,78,0
109439,note_on,,14,0,8,,,,,,,,,,,,,,,,10,,78,0
109439,note_on,,119,0,10,,,,,,,,,,,,,,,,12,,62,0
109439,note_on,,119,0,9,,,,,,,,,,,,,,,,11,,71,0
109439,note_on,,119,0,11,,,,,,,,,,,,,,,,13,,55,0
109439,note_on,,0,0,12,,,,,,,,,,,,,,,,15,,71,0
109439,note_on,,119,0,12,,,,,,,,,,,,,,,,15,,55,0
109439,note_on,,0,0,12,,,,,,,,,,,,,,,,15,,67,0
109439,note_on,,119,0,5,,,,,,,,,,,,,,,,2,,55,0
109439,note_on,,0,0,12,,,,,,,,,,,,,,,,15,,76,0
109440,note_on,,1,0,9,,,,,,,,,,,,,,,,11,,69,48
109440,note_on,,1,0,10,,,,,,,,,,,,,,,,12,,61,48
109440,note_on,,1,0,5,,,,,,,,,,,,,,,,2,,57,48
109440,note_on,,0,0,12,,,,,,,,,,,,,,,,15,,69,48
109440,note_on,,1,0,11,,,,,,,,,,,,,,,,13,,57,48
109440,note_on,,1,0,8,,,,,,,,,,,,,,,,10,,76,48
109440,note_on,,1,0,12,,,,,,,,,,,,,,,,15,,73,48
109440,note_on,,0,0,12,,,,,,,,,,,,,,,,15,,64,48
109440,note_on,,1,0,7,,,,,,,,,,,,,,,,8,,57,72
109440,note_on,,0,0,12,,,,,,,,,,,,,,,,15,,57,48
109440,note_on,,1,0,6,,,,,,,,,,,,,,,,3,,76,64
109454,note_on,,14,0,8,,,,,,,,,,,,,,,,10,,76,0
109454,note_on,,14,0,6,,,,,,,,,,,,,,,,3,,76,0
109455,note_on,,1,0,8,,,,,,,,,,,,,,,,10,,78,48
109455,note_on,,1,0,6,,,,,,,,,,,,,,,,3,,78,64
109469,note_on,,14,0,6,,,,,,,,,,,,,,,,3,,78,0
109469,note_on,,14,0,8,,,,,,,,,,,,,,,,10,,78,0
109470,note_on,,1,0,8,,,,,,,,,,,,,,,,10,,74,48
109470,note_on,,1,0,6,,,,,,,,,,,,,,,,3,,74,64
109484,note_on,,14,0,8,,,,,,,,,,,,,,,,10,,74,0
109484,note_on,,14,0,6,,,,,,,,,,,,,,,,3,,74,0
109485,note_on,,1,0,8,,,,,,,,,,,,,,,,10,,76,48
109485,note_on,,1,0,6,,,,,,,,,,,,,,,,3,,76,64
109499,note_on,,14,0,6,,,,,,,,,,,,,,,,3,,76,0
109499,note_on,,14,0,8,,,,,,,,,,,,,,,,10,,76,0
109500,note_on,,1,0,6,,,,,,,,,,,,,,,,3,,74,64
109500,note_on,,1,0,8,,,,,,,,,,,,,,,,10,,74,48
109559,note_on,,59,0,8,,,,,,,,,,,,,,,,10,,74,0
109559,note_on,,0,0,12,,,,,,,,,,,,,,,,15,,64,0
109559,note_on,,119,0,11,,,,,,,,,,,,,,,,13,,57,0
109559,note_on,,119,0,7,,,,,,,,,,,,,,,,8,,57,0
109559,note_on,,119,0,12,,,,,,,,,,,,,,,,15,,73,0
109559,note_on,,59,0,6,,,,,,,,,,,,,,,,3,,74,0
109559,note_on,,0,0,12,,,,,,,,,,,,,,,,15,,57,0
109559,note_on,,0,0,12,,,,,,,,,,,,,,,,15,,69,0
109559,note_on,,119,0,5,,,,,,,,,,,,,,,,2,,57,0
109559,note_on,,119,0,9,,,,,,,,,,,,,,,,11,,69,0
109559,note_on,,119,0,10,,,,,,,,,,,,,,,,12,,61,0
109560,note_on,,1,0,8,,,,,,,,,,,,,,,,10,,74,48
109560,note_on,,1,0,12,,,,,,,,,,,,,,,,15,,69,48
109560,note_on,,0,0,12,,,,,,,,,,,,,,,,15,,50,48
109560,note_on,,1,0,11,,,,,,,,,,,,,,,,13,,50,48
109560,note_on,,1,0,6,,,,,,,,,,,,,,,,3,,74,64
109560,note_on,,1,0,9,,,,,,,,,,,,,,,,11,,69,48
109560,note_on,,1,0,10,,,,,,,,,,,,,,,,12,,66,48
109560,note_on,,1,0,5,,,,,,,,,,,,,,,,2,,50,48
109560,note_on,,0,0,12,,,,,,,,,,,,,,,,15,,66,48
109560,note_on,,1,0,7,,,,,,,,,,,,,,,,8,,50,72
109560,note_on,,0,0,12,,,,,,,,,,,,,,,,15,,74,48
109679,note_on,,119,0,12,,,,,,,,,,,,,,,,15,,69,0
109679,note_on,,0,0,12,,,,,,,,,,,,,,,,15,,50,0
109679,note_on,,0,0,12,,,,,,,,,,,,,,,,15,,66,0
109679,note_on,,0,0,12,,,,,,,,,,,,,,,,15,,74,0
109679,note_on,,119,0,11,,,,,,,,,,,,,,,,13,,50,0
109679,note_on,,119,0,8,,,,,,,,,,,,,,,,10,,74,0
109679,note_on,,119,0,5,,,,,,,,,,,,,,,,2,,50,0
109680,note_on,,1,0,12,,,,,,,,,,,,,,,,15,,62,48
109680,note_on,,0,0,12,,,,,,,,,,,,,,,,15,,69,48
109680,note_on,,1,0,5,,,,,,,,,,,,,,,,2,,54,48
109680,note_on,,0,0,12,,,,,,,,,,,,,,,,15,,54,48
109680,note_on,,1,0,11,,,,,,,,,,,,,,,,13,,54,48
109739,note_on,,179,0,6,,,,,,,,,,,,,,,,3,,74,0
109740,note_on,,61,0,8,,,,,,,,,,,,,,,,10,,69,48
109799,note_on,,119,0,12,,,,,,,,,,,,,,,,15,,62,0
109799,note_on,,0,0,12,,,,,,,,,,,,,,,,15,,69,0
109799,note_on,,59,0,8,,,,,,,,,,,,,,,,10,,69,0
109799,note_on,,239,0,10,,,,,,,,,,,,,,,,12,,66,0
109799,note_on,,119,0,11,,,,,,,,,,,,,,,,13,,54,0
109799,note_on,,239,0,9,,,,,,,,,,,,,,,,11,,69,0
109799,note_on,,119,0,5,,,,,,,,,,,,,,,,2,,54,0
109799,note_on,,0,0,12,,,,,,,,,,,,,,,,15,,54,0
109799,note_on,,239,0,7,,,,,,,,,,,,,,,,8,,50,0
109800,note_on,,0,0,12,,,,,,,,,,,,,,,,15,,57,48
109800,note_on,,1,0,10,,,,,,,,,,,,,,,,12,,61,48
109800,note_on,,0,0,12,,,,,,,,,,,,,,,,15,,61,48
109800,note_on,,1,0,12,,,,,,,,,,,,,,,,15,,64,48
109800,note_on,,1,0,9,,,,,,,,,,,,,,,,11,,64,48
109800,note_on,,1,0,11,,,,,,,,,,,,,,,,13,,57,48
109800,note_on,,1,0,8,,,,,,,,,,,,,,,,10,,71,48
109800,note_on,,1,0,5,,,,,,,,,,,,,,,,2,,57,48
109859,note_on,,59,0,8,,,,,,,,,,,,,,,,10,,71,0
109860,note_on,,1,0,8,,,,,,,,,,,,,,,,10,,73,48
109919,note_on,,119,0,10,,,,,,,,,,,,,,,,12,,61,0
109919,note_on,,119,0,9,,,,,,,,,,,,,,,,11,,64,0
109919,note_on,,0,0,12,,,,,,,,,,,,,,,,15,,57,0
109919,note_on,,119,0,5,,,,,,,,,,,,,,,,2,,57,0
109919,note_on,,119,0,12,,,,,,,,,,,,,,,,15,,64,0
109919,note_on,,59,0,8,,,,,,,,,,,,,,,,10,,73,0
109919,note_on,,119,0,11,,,,,,,,,,,,,,,,13,,57,0
109919,note_on,,0,0,12,,,,,,,,,,,,,,,,15,,61,0
109920,note_on,,1,0,8,,,,,,,,,,,,,,,,10,,74,48
109920,note_on,,0,0,12,,,,,,,,,,,,,,,,15,,54,48
109920,note_on,,0,0,12,,,,,,,,,,,,,,,,15,,57,48
109920,note_on,,0,0,12,,,,,,,,,,,,,,,,15,,66,48
109920,note_on,,1,0,9,,,,,,,,,,,,,,,,11,,66,48
109920,note_on,,1,0,12,,,,,,,,,,,,,,,,15,,62,48
109920,note_on,,1,0,11,,,,,,,,,,,,,,,,13,,54,48
109920,note_on,,1,0,10,,,,,,,,,,,,,,,,12,,57,48
109920,note_on,,1,0,5,,,,,,,,,,,,,,,,2,,54,48
109979,note_on,,59,0,8,,,,,,,,,,,,,,,,10,,74,0
109979,note_on,,59,0,9,,,,,,,,,,,,,,,,11,,66,0
109980,note_on,,1,0,8,,,,,,,,,,,,,,,,10,,76,48
109980,note_on,,1,0,9,,,,,,,,,,,,,,,,11,,67,48
110039,note_on,,119,0,5,,,,,,,,,,,,,,,,2,,54,0
110039,note_on,,59,0,8,,,,,,,,,,,,,,,,10,,76,0
110039,note_on,,119,0,12,,,,,,,,,,,,,,,,15,,62,0
110039,note_on,,0,0,12,,,,,,,,,,,,,,,,15,,54,0
110039,note_on,,0,0,12,,,,,,,,,,,,,,,,15,,66,0
110039,note_on,,0,0,12,,,,,,,,,,,,,,,,15,,57,0
110039,note_on,,59,0,9,,,,,,,,,,,,,,,,11,,67,0
110039,note_on,,119,0,10,,,,,,,,,,,,,,,,12,,57,0
110039,note_on,,119,0,11,,,,,,,,,,,,,,,,13,,54,0
110040,note_on,,1,0,11,,,,,,,,,,,,,,,,13,,50,48
110040,note_on,,1,0,8,,,,,,,,,,,,,,,,10,,78,48
110040,note_on,,0,0,12,,,,,,,,,,,,,,,,15,,69,48
110040,note_on,,301,0,6,,,,,,,,,,,,,,,,3,,74,64
110040,note_on,,0,0,12,,,,,,,,,,,,,,,,15,,66,48
110040,note_on,,1,0,9,,,,,,,,,,,,,,,,11,,69,48
110040,note_on,,0,0,12,,,,,,,,,,,,,,,,15,,50,48
110040,note_on,,1,0,12,,,,,,,,,,,,,,,,15,,62,48
110040,note_on,,1,0,5,,,,,,,,,,,,,,,,2,,50,48
110099,note_on,,59,0,9,,,,,,,,,,,,,,,,11,,69,0
110099,note_on,,59,0,8,,,,,,,,,,,,,,,,10,,78,0
110100,note_on,,1,0,9,,,,,,,,,,,,,,,,11,,67,48
110100,note_on,,1,0,8,,,,,,,,,,,,,,,,10,,76,48
110159,note_on,,119,0,6,,,,,,,,,,,,,,,,3,,74,0
110159,note_on,,59,0,8,,,,,,,,,,,,,,,,10,,76,0
110159,note_on,,119,0,11,,,,,,,,,,,,,,,,13,,50,0
110159,note_on,,59,0,9,,,,,,,,,,,,,,,,11,,67,0
110159,note_on,,119,0,12,,,,,,,,,,,,,,,,15,,62,0
110159,note_on,,0,0,12,,,,,,,,,,,,,,,,15,,66,0
110159,note_on,,0,0,12,,,,,,,,,,,,,,,,15,,69,0
110159,note_on,,0,0,12,,,,,,,,,,,,,,,,15,,50,0
110159,note_on,,119,0,5,,,,,,,,,,,,,,,,2,,50,0
110160,note_on,,1,0,8,,,,,,,,,,,,,,,,10,,74,48
110160,note_on,,1,0,9,,,,,,,,,,,,,,,,11,,66,48
110160,note_on,,1,0,11,,,,,,,,,,,,,,,,13,,54,48
110160,note_on,,1,0,5,,,,,,,,,,,,,,,,2,,54,48
110160,note_on,,361,0,7,,,,,,,,,,,,,,,,8,,54,72
110160,note_on,,0,0,12,,,,,,,,,,,,,,,,15,,62,48
110160,note_on,,0,0,12,,,,,,,,,,,,,,,,15,,54,48
110160,note_on,,0,0,12,,,,,,,,,,,,,,,,15,,74,48
110160,note_on,,1,0,12,,,,,,,,,,,,,,,,15,,69,48
110160,note_on,,121,0,10,,,,,,,,,,,,,,,,12,,57,48
110160,note_on,,1,0,6,,,,,,,,,,,,,,,,3,,74,64
110219,note_on,,59,0,8,,,,,,,,,,,,,,,,10,,74,0
110219,note_on,,59,0,9,,,,,,,,,,,,,,,,11,,66,0
110220,note_on,,1,0,8,,,,,,,,,,,,,,,,10,,73,48
110220,note_on,,1,0,9,,,,,,,,,,,,,,,,11,,64,48
110279,note_on,,119,0,6,,,,,,,,,,,,,,,,3,,74,0
110279,note_on,,119,0,10,,,,,,,,,,,,,,,,12,,57,0
110279,note_on,,0,0,12,,,,,,,,,,,,,,,,15,,62,0
110279,note_on,,59,0,8,,,,,,,,,,,,,,,,10,,73,0
110279,note_on,,119,0,5,,,,,,,,,,,,,,,,2,,54,0
110279,note_on,,119,0,11,,,,,,,,,,,,,,,,13,,54,0
110279,note_on,,0,0,12,,,,,,,,,,,,,,,,15,,74,0
110279,note_on,,119,0,12,,,,,,,,,,,,,,,,15,,69,0
110279,note_on,,119,0,7,,,,,,,,,,,,,,,,8,,54,0
110279,note_on,,59,0,9,,,,,,,,,,,,,,,,11,,64,0
110279,note_on,,0,0,12,,,,,,,,,,,,,,,,15,,54,0
110280,note_on,,1,0,11,,,,,,,,,,,,,,,,13,,55,48
110280,note_on,,1,0,5,,,,,,,,,,,,,,,,2,,55,48
110280,note_on,,1,0,7,,,,,,,,,,,,,,,,8,,55,72
110280,note_on,,1,0,10,,,,,,,,,,,,,,,,12,,59,48
110280,note_on,,1,0,12,,,,,,,,,,,,,,,,15,,71,48
110280,note_on,,1,0,9,,,,,,,,,,,,,,,,11,,62,48
110280,note_on,,1,0,8,,,,,,,,,,,,,,,,10,,71,48
110280,note_on,,0,0,12,,,,,,,,,,,,,,,,15,,67,48
110280,note_on,,0,0,12,,,,,,,,,,,,,,,,15,,62,48
110280,note_on,,1,0,6,,,,,,,,,,,,,,,,3,,74,64
110280,note_on,,0,0,12,,,,,,,,,,,,,,,,15,,55,48
110399,note_on,,119,0,10,,,,,,,,,,,,,,,,12,,59,0
110399,note_on,,119,0,7,,,,,,,,,,,,,,,,8,,55,0
110399,note_on,,119,0,11,,,,,,,,,,,,,,,,13,,55,0
110399,note_on,,119,0,12,,,,,,,,,,,,,,,,15,,55,0
110399,note_on,,119,0,5,,,,,,,,,,,,,,,,2,,55,0
110400,note_on,,1,0,10,,,,,,,,,,,,,,,,12,,62,48
110400,note_on,,1,0,7,,,,,,,,,,,,,,,,8,,59,72
110400,note_on,,1,0,12,,,,,,,,,,,,,,,,15,,59,48
110400,note_on,,1,0,5,,,,,,,,,,,,,,,,2,,59,48
110400,note_on,,1,0,11,,,,,,,,,,,,,,,,13,,59,48
110459,note_on,,59,0,5,,,,,,,,,,,,,,,,2,,59,0
110459,note_on,,59,0,12,,,,,,,,,,,,,,,,15,,59,0
110459,note_on,,179,0,8,,,,,,,,,,,,,,,,10,,71,0
110459,note_on,,179,0,9,,,,,,,,,,,,,,,,11,,62,0
110459,note_on,,59,0,7,,,,,,,,,,,,,,,,8,,59,0
110459,note_on,,59,0,11,,,,,,,,,,,,,,,,13,,59,0
110459,note_on,,59,0,10,,,,,,,,,,,,,,,,12,,62,0
110460,note_on,,1,0,7,,,,,,,,,,,,,,,,8,,57,72
110460,note_on,,1,0,12,,,,,,,,,,,,,,,,15,,57,48
110460,note_on,,1,0,8,,,,,,,,,,,,,,,,10,,71,48
110460,note_on,,1,0,11,,,,,,,,,,,,,,,,13,,57,48
110460,note_on,,1,0,9,,,,,,,,,,,,,,,,11,,62,48
110460,note_on,,1,0,5,,,,,,,,,,,,,,,,2,,57,48
110460,note_on,,1,0,10,,,,,,,,,,,,,,,,12,,61,48
110519,note_on,,59,0,7,,,,,,,,,,,,,,,,8,,57,0
110519,note_on,,59,0,10,,,,,,,,,,,,,,,,12,,61,0
110519,note_on,,59,0,9,,,,,,,,,,,,,,,,11,,62,0
110519,note_on,,59,0,11,,,,,,,,,,,,,,,,13,,57,0
110519,note_on,,59,0,12,,,,,,,,,,,,,,,,15,,57,0
110519,note_on,,59,0,5,,,,,,,,,,,,,,,,2,,57,0
110519,note_on,,59,0,8,,,,,,,,,,,,,,,,10,,71,0
110520,note_on,,1,0,9,,,,,,,,,,,,,,,,11,,64,48
110520,note_on,,1,0,11,,,,,,,,,,,,,,,,13,,55,48
110520,note_on,,1,0,12,,,,,,,,,,,,,,,,15,,55,48
110520,note_on,,1,0,5,,,,,,,,,,,,,,,,2,,55,48
110520,note_on,,1,0,7,,,,,,,,,,,,,,,,8,,55,72
110520,note_on,,1,0,8,,,,,,,,,,,,,,,,10,,73,48
110520,note_on,,1,0,10,,,,,,,,,,,,,,,,12,,59,48
110579,note_on,,59,0,8,,,,,,,,,,,,,,,,10,,73,0
110579,note_on,,59,0,7,,,,,,,,,,,,,,,,8,,55,0
110579,note_on,,59,0,5,,,,,,,,,,,,,,,,2,,55,0
110579,note_on,,59,0,12,,,,,,,,,,,,,,,,15,,55,0
110579,note_on,,59,0,9,,,,,,,,,,,,,,,,11,,64,0
110579,note_on,,59,0,10,,,,,,,,,,,,,,,,12,,59,0
110579,note_on,,59,0,11,,,,,,,,,,,,,,,,13,,55,0
110580,note_on,,1,0,8,,,,,,,,,,,,,,,,10,,74,48
110580,note_on,,1,0,9,,,,,,,,,,,,,,,,11,,66,48
110580,note_on,,1,0,11,,,,,,,,,,,,,,,,13,,54,48
110580,note_on,,1,0,12,,,,,,,,,,,,,,,,15,,54,48
110580,note_on,,1,0,7,,,,,,,,,,,,,,,,8,,54,72
110580,note_on,,1,0,5,,,,,,,,,,,,,,,,2,,54,48
110580,note_on,,1,0,10,,,,,,,,,,,,,,,,12,,57,48
110639,note_on,,59,0,9,,,,,,,,,,,,,,,,11,,66,0
110639,note_on,,59,0,11,,,,,,,,,,,,,,,,13,,54,0
110639,note_on,,59,0,7,,,,,,,,,,,,,,,,8,,54,0
110639,note_on,,0,0,12,,,,,,,,,,,,,,,,15,,62,0
110639,note_on,,59,0,12,,,,,,,,,,,,,,,,15,,71,0
110639,note_on,,0,0,12,,,,,,,,,,,,,,,,15,,67,0
110639,note_on,,0,0,12,,,,,,,,,,,,,,,,15,,54,0
110639,note_on,,59,0,8,,,,,,,,,,,,,,,,10,,74,0
110639,note_on,,59,0,5,,,,,,,,,,,,,,,,2,,54,0
110639,note_on,,359,0,6,,,,,,,,,,,,,,,,3,,74,0
110639,note_on,,59,0,10,,,,,,,,,,,,,,,,12,,57,0
110640,note_on,,1,0,11,,,,,,,,,,,,,,,,13,,52,48
110640,note_on,,1,0,7,,,,,,,,,,,,,,,,8,,52,72
110640,note_on,,1,0,8,,,,,,,,,,,,,,,,10,,76,48
110640,note_on,,1,0,5,,,,,,,,,,,,,,,,2,,52,48
110640,note_on,,1,0,9,,,,,,,,,,,,,,,,11,,67,48
110640,note_on,,0,0,12,,,,,,,,,,,,,,,,15,,52,48
110640,note_on,,0,0,12,,,,,,,,,,,,,,,,15,,67,48
110640,note_on,,1,0,12,,,,,,,,,,,,,,,,15,,71,48
110640,note_on,,0,0,12,,,,,,,,,,,,,,,,15,,76,48
110640,note_on,,1,0,10,,,,,,,,,,,,,,,,12,,59,48
110699,note_on,,59,0,9,,,,,,,,,,,,,,,,11,,67,0
110699,note_on,,59,0,8,,,,,,,,,,,,,,,,10,,76,0
110700,note_on,,1,0,9,,,,,,,,,,,,,,,,11,,69,48
110700,note_on,,1,0,8,,,,,,,,,,,,,,,,10,,78,48
110759,note_on,,119,0,10,,,,,,,,,,,,,,,,12,,59,0
110759,note_on,,59,0,8,,,,,,,,,,,,,,,,10,,78,0
110759,note_on,,59,0,9,,,,,,,,,,,,,,,,11,,69,0
110760,note_on,,121,0,6,,,,,,,,,,,,,,,,3,,76,64
110760,note_on,,1,0,9,,,,,,,,,,,,,,,,11,,71,48
110760,note_on,,1,0,8,,,,,,,,,,,,,,,,10,,79,48
110819,note_on,,179,0,12,,,,,,,,,,,,,,,,15,,52,0
110819,note_on,,179,0,11,,,,,,,,,,,,,,,,13,,52,0
110819,note_on,,59,0,8,,,,,,,,,,,,,,,,10,,79,0
110819,note_on,,59,0,9,,,,,,,,,,,,,,,,11,,71,0
110819,note_on,,179,0,5,,,,,,,,,,,,,,,,2,,52,0
110819,note_on,,179,0,7,,,,,,,,,,,,,,,,8,,52,0
110820,note_on,,1,0,12,,,,,,,,,,,,,,,,15,,52,48
110820,note_on,,1,0,11,,,,,,,,,,,,,,,,13,,52,48
110820,note_on,,1,0,5,,,,,,,,,,,,,,,,2,,52,48
110820,note_on,,1,0,8,,,,,,,,,,,,,,,,10,,78,48
110820,note_on,,1,0,9,,,,,,,,,,,,,,,,11,,69,48
110820,note_on,,1,0,7,,,,,,,,,,,,,,,,8,,52,72
110879,note_on,,119,0,6,,,,,,,,,,,,,,,,3,,76,0
110879,note_on,,59,0,9,,,,,,,,,,,,,,,,11,,69,0
110879,note_on,,59,0,11,,,,,,,,,,,,,,,,13,,52,0
110879,note_on,,59,0,8,,,,,,,,,,,,,,,,10,,78,0
110879,note_on,,59,0,5,,,,,,,,,,,,,,,,2,,52,0
110879,note_on,,59,0,7,,,,,,,,,,,,,,,,8,,52,0
110879,note_on,,59,0,12,,,,,,,,,,,,,,,,15,,52,0
110880,note_on,,1,0,6,,,,,,,,,,,,,,,,3,,76,64
110880,note_on,,1,0,5,,,,,,,,,,,,,,,,2,,54,48
110880,note_on,,1,0,12,,,,,,,,,,,,,,,,15,,54,48
110880,note_on,,1,0,7,,,,,,,,,,,,,,,,8,,54,72
110880,note_on,,121,0,10,,,,,,,,,,,,,,,,12,,59,48
110880,note_on,,1,0,8,,,,,,,,,,,,,,,,10,,76,48
110880,note_on,,1,0,9,,,,,,,,,,,,,,,,11,,67,48
110880,note_on,,1,0,11,,,,,,,,,,,,,,,,13,,54,48
110939,note_on,,59,0,12,,,,,,,,,,,,,,,,15,,54,0
110939,note_on,,59,0,8,,,,,,,,,,,,,,,,10,,76,0
110939,note_on,,59,0,7,,,,,,,,,,,,,,,,8,,54,0
110939,note_on,,59,0,5,,,,,,,,,,,,,,,,2,,54,0
110939,note_on,,59,0,9,,,,,,,,,,,,,,,,11,,67,0
110939,note_on,,59,0,11,,,,,,,,,,,,,,,,13,,54,0
110940,note_on,,1,0,7,,,,,,,,,,,,,,,,8,,55,72
110940,note_on,,1,0,11,,,,,,,,,,,,,,,,13,,55,48
110940,note_on,,1,0,12,,,,,,,,,,,,,,,,15,,55,48
110940,note_on,,1,0,9,,,,,,,,,,,,,,,,11,,66,48
110940,note_on,,1,0,5,,,,,,,,,,,,,,,,2,,55,48
110940,note_on,,1,0,8,,,,,,,,,,,,,,,,10,,74,48
110999,note_on,,59,0,9,,,,,,,,,,,,,,,,11,,66,0
110999,note_on,,0,0,12,,,,,,,,,,,,,,,,15,,55,0
110999,note_on,,0,0,12,,,,,,,,,,,,,,,,15,,67,0
110999,note_on,,59,0,12,,,,,,,,,,,,,,,,15,,71,0
110999,note_on,,119,0,6,,,,,,,,,,,,,,,,3,,76,0
110999,note_on,,0,0,12,,,,,,,,,,,,,,,,15,,76,0
110999,note_on,,119,0,10,,,,,,,,,,,,,,,,12,,59,0
110999,note_on,,59,0,7,,,,,,,,,,,,,,,,8,,55,0
110999,note_on,,59,0,8,,,,,,,,,,,,,,,,10,,74,0
110999,note_on,,59,0,5,,,,,,,,,,,,,,,,2,,55,0
110999,note_on,,59,0,11,,,,,,,,,,,,,,,,13,,55,0
111000,note_on,,1,0,10,,,,,,,,,,,,,,,,12,,61,48
111000,note_on,,1,0,7,,,,,,,,,,,,,,,,8,,57,72
111000,note_on,,1,0,5,,,,,,,,,,,,,,,,2,,57,48
111000,note_on,,1,0,12,,,,,,,,,,,,,,,,15,,64,48
111000,note_on,,0,0,12,,,,,,,,,,,,,,,,15,,73,48
111000,note_on,,0,0,12,,,,,,,,,,,,,,,,15,,69,48
111000,note_on,,1,0,6,,,,,,,,,,,,,,,,3,,76,64
111000,note_on,,0,0,12,,,,,,,,,,,,,,,,15,,57,48
111000,note_on,,1,0,9,,,,,,,,,,,,,,,,11,,64,48
111000,note_on,,1,0,11,,,,,,,,,,,,,,,,13,,57,48
111000,note_on,,1,0,8,,,,,,,,,,,,,,,,10,,73,48
111059,note_on,,59,0,5,,,,,,,,,,,,,,,,2,,57,0
111059,note_on,,59,0,10,,,,,,,,,,,,,,,,12,,61,0
111059,note_on,,59,0,7,,,,,,,,,,,,,,,,8,,57,0
111059,note_on,,59,0,11,,,,,,,,,,,,,,,,13,,57,0
111059,note_on,,59,0,12,,,,,,,,,,,,,,,,15,,57,0
111060,note_on,,1,0,12,,,,,,,,,,,,,,,,15,,59,48
111060,note_on,,1,0,5,,,,,,,,,,,,,,,,2,,59,48
111060,note_on,,1,0,10,,,,,,,,,,,,,,,,12,,62,48
111060,note_on,,1,0,7,,,,,,,,,,,,,,,,8,,59,72
111060,note_on,,1,0,11,,,,,,,,,,,,,,,,13,,59,48
111119,note_on,,59,0,10,,,,,,,,,,,,,,,,12,,62,0
111119,note_on,,59,0,12,,,,,,,,,,,,,,,,15,,59,0
111119,note_on,,59,0,7,,,,,,,,,,,,,,,,8,,59,0
111119,note_on,,59,0,5,,,,,,,,,,,,,,,,2,,59,0
111119,note_on,,59,0,11,,,,,,,,,,,,,,,,13,,59,0
111120,note_on,,1,0,7,,,,,,,,,,,,,,,,8,,61,72
111120,note_on,,1,0,10,,,,,,,,,,,,,,,,12,,64,48
111120,note_on,,1,0,11,,,,,,,,,,,,,,,,13,,61,48
111120,note_on,,1,0,5,,,,,,,,,,,,,,,,2,,61,48
111120,note_on,,1,0,12,,,,,,,,,,,,,,,,15,,61,48
111179,note_on,,59,0,10,,,,,,,,,,,,,,,,12,,64,0
111179,note_on,,59,0,12,,,,,,,,,,,,,,,,15,,61,0
111179,note_on,,59,0,7,,,,,,,,,,,,,,,,8,,61,0
111179,note_on,,179,0,8,,,,,,,,,,,,,,,,10,,73,0
111179,note_on,,179,0,9,,,,,,,,,,,,,,,,11,,64,0
111179,note_on,,59,0,11,,,,,,,,,,,,,,,,13,,61,0
111179,note_on,,59,0,5,,,,,,,,,,,,,,,,2,,61,0
111180,note_on,,1,0,11,,,,,,,,,,,,,,,,13,,59,48
111180,note_on,,1,0,10,,,,,,,,,,,,,,,,12,,62,48
111180,note_on,,1,0,8,,,,,,,,,,,,,,,,10,,73,48
111180,note_on,,1,0,9,,,,,,,,,,,,,,,,11,,64,48
111180,note_on,,1,0,12,,,,,,,,,,,,,,,,15,,59,48
111180,note_on,,1,0,5,,,,,,,,,,,,,,,,2,,59,48
111180,note_on,,1,0,7,,,,,,,,,,,,,,,,8,,59,72
111239,note_on,,59,0,5,,,,,,,,,,,,,,,,2,,59,0
111239,note_on,,59,0,9,,,,,,,,,,,,,,,,11,,64,0
111239,note_on,,59,0,8,,,,,,,,,,,,,,,,10,,73,0
111239,note_on,,59,0,11,,,,,,,,,,,,,,,,13,,59,0
111239,note_on,,59,0,7,,,,,,,,,,,,,,,,8,,59,0
111239,note_on,,59,0,12,,,,,,,,,,,,,,,,15,,59,0
111239,note_on,,59,0,10,,,,,,,,,,,,,,,,12,,62,0
111240,note_on,,1,0,12,,,,,,,,,,,,,,,,15,,57,48
111240,note_on,,1,0,7,,,,,,,,,,,,,,,,8,,57,72
111240,note_on,,1,0,5,,,,,,,,,,,,,,,,2,,57,48
111240,note_on,,1,0,10,,,,,,,,,,,,,,,,12,,61,48
111240,note_on,,1,0,8,,,,,,,,,,,,,,,,10,,74,48
111240,note_on,,1,0,9,,,,,,,,,,,,,,,,11,,66,48
111240,note_on,,1,0,11,,,,,,,,,,,,,,,,13,,57,48
111299,note_on,,59,0,10,,,,,,,,,,,,,,,,12,,61,0
111299,note_on,,59,0,5,,,,,,,,,,,,,,,,2,,57,0
111299,note_on,,59,0,7,,,,,,,,,,,,,,,,8,,57,0
111299,note_on,,59,0,9,,,,,,,,,,,,,,,,11,,66,0
111299,note_on,,59,0,11,,,,,,,,,,,,,,,,13,,57,0
111299,note_on,,59,0,12,,,,,,,,,,,,,,,,15,,57,0
111299,note_on,,59,0,8,,,,,,,,,,,,,,,,10,,74,0
111300,note_on,,1,0,11,,,,,,,,,,,,,,,,13,,55,48
111300,note_on,,1,0,12,,,,,,,,,,,,,,,,15,,55,48
111300,note_on,,1,0,5,,,,,,,,,,,,,,,,2,,55,48
111300,note_on,,1,0,8,,,,,,,,,,,,,,,,10,,76,48
111300,note_on,,1,0,7,,,,,,,,,,,,,,,,8,,55,72
111300,note_on,,1,0,10,,,,,,,,,,,,,,,,12,,59,48
111300,note_on,,1,0,9,,,,,,,,,,,,,,,,11,,67,48
111359,note_on,,59,0,9,,,,,,,,,,,,,,,,11,,67,0
111359,note_on,,59,0,7,,,,,,,,,,,,,,,,8,,55,0
111359,note_on,,59,0,10,,,,,,,,,,,,,,,,12,,59,0
111359,note_on,,59,0,11,,,,,,,,,,,,,,,,13,,55,0
111359,note_on,,359,0,6,,,,,,,,,,,,,,,,3,,76,0
111359,note_on,,59,0,5,,,,,,,,,,,,,,,,2,,55,0
111359,note_on,,0,0,12,,,,,,,,,,,,,,,,15,,69,0
111359,note_on,,0,0,12,,,,,,,,,,,,,,,,15,,73,0
111359,note_on,,59,0,12,,,,,,,,,,,,,,,,15,,64,0
111359,note_on,,0,0,12,,,,,,,,,,,,,,,,15,,55,0
111359,note_on,,59,0,8,,,,,,,,,,,,,,,,10,,76,0
111360,note_on,,1,0,9,,,,,,,,,,,,,,,,11,,69,48
111360,note_on,,1,0,8,,,,,,,,,,,,,,,,10,,78,48
111360,note_on,,1,0,5,,,,,,,,,,,,,,,,2,,54,48
111360,note_on,,0,0,12,,,,,,,,,,,,,,,,15,,54,48
111360,note_on,,1,0,11,,,,,,,,,,,,,,,,13,,54,48
111360,note_on,,1,0,12,,,,,,,,,,,,,,,,15,,73,48
111360,note_on,,1,0,10,,,,,,,,,,,,,,,,12,,61,48
111360,note_on,,1,0,7,,,,,,,,,,,,,,,,8,,54,72
111360,note_on,,0,0,12,,,,,,,,,,,,,,,,15,,78,48
111360,note_on,,0,0,12,,,,,,,,,,,,,,,,15,,69,48
111419,note_on,,59,0,9,,,,,,,,,,,,,,,,11,,69,0
111419,note_on,,59,0,8,,,,,,,,,,,,,,,,10,,78,0
111420,note_on,,1,0,8,,,,,,,,,,,,,,,,10,,79,48
111420,note_on,,1,0,9,,,,,,,,,,,,,,,,11,,71,48
111479,note_on,,119,0,10,,,,,,,,,,,,,,,,12,,61,0
111479,note_on,,59,0,9,,,,,,,,,,,,,,,,11,,71,0
111479,note_on,,59,0,8,,,,,,,,,,,,,,,,10,,79,0
111480,note_on,,1,0,9,,,,,,,,,,,,,,,,11,,73,48
111480,note_on,,1,0,8,,,,,,,,,,,,,,,,10,,81,48
111480,note_on,,121,0,6,,,,,,,,,,,,,,,,3,,78,64
111539,note_on,,179,0,5,,,,,,,,,,,,,,,,2,,54,0
111539,note_on,,59,0,8,,,,,,,,,,,,,,,,10,,81,0
111539,note_on,,179,0,7,,,,,,,,,,,,,,,,8,,54,0
111539,note_on,,59,0,9,,,,,,,,,,,,,,,,11,,73,0
111539,note_on,,179,0,12,,,,,,,,,,,,,,,,15,,54,0
111539,note_on,,179,0,11,,,,,,,,,,,,,,,,13,,54,0
111540,note_on,,1,0,12,,,,,,,,,,,,,,,,15,,54,48
111540,note_on,,1,0,8,,,,,,,,,,,,,,,,10,,79,48
111540,note_on,,1,0,9,,,,,,,,,,,,,,,,11,,71,48
111540,note_on,,1,0,11,,,,,,,,,,,,,,,,13,,54,48
111540,note_on,,1,0,7,,,,,,,,,,,,,,,,8,,54,72
111540,note_on,,1,0,5,,,,,,,,,,,,,,,,2,,54,48
111599,note_on,,59,0,7,,,,,,,,,,,,,,,,8,,54,0
111599,note_on,,59,0,11,,,,,,,,,,,,,,,,13,,54,0
111599,note_on,,119,0,6,,,,,,,,,,,,,,,,3,,78,0
111599,note_on,,59,0,8,,,,,,,,,,,,,,,,10,,79,0
111599,note_on,,59,0,9,,,,,,,,,,,,,,,,11,,71,0
111599,note_on,,59,0,5,,,,,,,,,,,,,,,,2,,54,0
111599,note_on,,59,0,12,,,,,,,,,,,,,,,,15,,54,0
111600,note_on,,1,0,7,,,,,,,,,,,,,,,,8,,55,72
111600,note_on,,1,0,8,,,,,,,,,,,,,,,,10,,78,48
111600,note_on,,1,0,9,,,,,,,,,,,,,,,,11,,69,48
111600,note_on,,1,0,6,,,,,,,,,,,,,,,,3,,78,64
111600,note_on,,121,0,10,,,,,,,,,,,,,,,,12,,61,48
111600,note_on,,1,0,5,,,,,,,,,,,,,,,,2,,55,48
111600,note_on,,1,0,11,,,,,,,,,,,,,,,,13,,55,48
111600,note_on,,1,0,12,,,,,,,,,,,,,,,,15,,55,48
111659,note_on,,59,0,5,,,,,,,,,,,,,,,,2,,55,0
111659,note_on,,59,0,7,,,,,,,,,,,,,,,,8,,55,0
111659,note_on,,59,0,8,,,,,,,,,,,,,,,,10,,78,0
111659,note_on,,59,0,9,,,,,,,,,,,,,,,,11,,69,0
111659,note_on,,59,0,11,,,,,,,,,,,,,,,,13,,55,0
111659,note_on,,59,0,12,,,,,,,,,,,,,,,,15,,55,0
111660,note_on,,1,0,12,,,,,,,,,,,,,,,,15,,57,48
111660,note_on,,1,0,9,,,,,,,,,,,,,,,,11,,67,48
111660,note_on,,1,0,5,,,,,,,,,,,,,,,,2,,57,48
111660,note_on,,1,0,7,,,,,,,,,,,,,,,,8,,57,72
111660,note_on,,1,0,8,,,,,,,,,,,,,,,,10,,76,48
111660,note_on,,1,0,11,,,,,,,,,,,,,,,,13,,57,48
111719,note_on,,0,0,12,,,,,,,,,,,,,,,,15,,78,0
111719,note_on,,0,0,12,,,,,,,,,,,,,,,,15,,69,0
111719,note_on,,59,0,12,,,,,,,,,,,,,,,,15,,73,0
111719,note_on,,59,0,5,,,,,,,,,,,,,,,,2,,57,0
111719,note_on,,0,0,12,,,,,,,,,,,,,,,,15,,57,0
111719,note_on,,59,0,9,,,,,,,,,,,,,,,,11,,67,0
111719,note_on,,59,0,7,,,,,,,,,,,,,,,,8,,57,0
111719,note_on,,59,0,11,,,,,,,,,,,,,,,,13,,57,0
111719,note_on,,59,0,8,,,,,,,,,,,,,,,,10,,76,0
111719,note_on,,119,0,6,,,,,,,,,,,,,,,,3,,78,0
111719,note_on,,119,0,10,,,,,,,,,,,,,,,,12,,61,0
111720,note_on,,1,0,9,,,,,,,,,,,,,,,,11,,66,48
111720,note_on,,0,0,12,,,,,,,,,,,,,,,,15,,74,48
111720,note_on,,0,0,12,,,,,,,,,,,,,,,,15,,59,48
111720,note_on,,1,0,7,,,,,,,,,,,,,,,,8,,59,72
111720,note_on,,1,0,10,,,,,,,,,,,,,,,,12,,62,48
111720,note_on,,1,0,8,,,,,,,,,,,,,,,,10,,74,48
111720,note_on,,1,0,11,,,,,,,,,,,,,,,,13,,59,48
111720,note_on,,1,0,5,,,,,,,,,,,,,,,,2,,59,48
111720,note_on,,0,0,12,,,,,,,,,,,,,,,,15,,66,48
111720,note_on,,1,0,6,,,,,,,,,,,,,,,,3,,78,64
111720,note_on,,1,0,12,,,,,,,,,,,,,,,,15,,71,48
111779,note_on,,59,0,5,,,,,,,,,,,,,,,,2,,59,0
111779,note_on,,59,0,11,,,,,,,,,,,,,,,,13,,59,0
111779,note_on,,59,0,10,,,,,,,,,,,,,,,,12,,62,0
111779,note_on,,59,0,7,,,,,,,,,,,,,,,,8,,59,0
111779,note_on,,59,0,12,,,,,,,,,,,,,,,,15,,59,0
111780,note_on,,1,0,5,,,,,,,,,,,,,,,,2,,61,48
111780,note_on,,1,0,12,,,,,,,,,,,,,,,,15,,61,48
111780,note_on,,1,0,11,,,,,,,,,,,,,,,,13,,61,48
111780,note_on,,1,0,7,,,,,,,,,,,,,,,,8,,61,72
111780,note_on,,1,0,10,,,,,,,,,,,,,,,,12,,64,48
111839,note_on,,59,0,11,,,,,,,,,,,,,,,,13,,61,0
111839,note_on,,59,0,7,,,,,,,,,,,,,,,,8,,61,0
111839,note_on,,59,0,12,,,,,,,,,,,,,,,,15,,61,0
111839,note_on,,59,0,10,,,,,,,,,,,,,,,,12,,64,0
111839,note_on,,59,0,5,,,,,,,,,,,,,,,,2,,61,0
111840,note_on,,1,0,11,,,,,,,,,,,,,,,,13,,62,48
111840,note_on,,1,0,10,,,,,,,,,,,,,,,,12,,66,48
111840,note_on,,1,0,12,,,,,,,,,,,,,,,,15,,62,48
111840,note_on,,1,0,5,,,,,,,,,,,,,,,,2,,62,48
111840,note_on,,1,0,7,,,,,,,,,,,,,,,,8,,62,72
111899,note_on,,59,0,7,,,,,,,,,,,,,,,,8,,62,0
111899,note_on,,59,0,10,,,,,,,,,,,,,,,,12,,66,0
111899,note_on,,59,0,5,,,,,,,,,,,,,,,,2,,62,0
111899,note_on,,179,0,8,,,,,,,,,,,,,,,,10,,74,0
111899,note_on,,179,0,9,,,,,,,,,,,,,,,,11,,66,0
111899,note_on,,59,0,12,,,,,,,,,,,,,,,,15,,62,0
111899,note_on,,59,0,11,,,,,,,,,,,,,,,,13,,62,0
111900,note_on,,1,0,5,,,,,,,,,,,,,,,,2,,61,48
111900,note_on,,1,0,10,,,,,,,,,,,,,,,,12,,64,48
111900,note_on,,1,0,9,,,,,,,,,,,,,,,,11,,66,48
111900,note_on,,1,0,12,,,,,,,,,,,,,,,,15,,61,48
111900,note_on,,1,0,11,,,,,,,,,,,,,,,,13,,61,48
111900,note_on,,1,0,8,,,,,,,,,,,,,,,,10,,74,48
111900,note_on,,1,0,7,,,,,,,,,,,,,,,,8,,61,72
111959,note_on,,59,0,11,,,,,,,,,,,,,,,,13,,61,0
111959,note_on,,59,0,7,,,,,,,,,,,,,,,,8,,61,0
111959,note_on,,59,0,5,,,,,,,,,,,,,,,,2,,61,0
111959,note_on,,59,0,9,,,,,,,,,,,,,,,,11,,66,0
111959,note_on,,59,0,12,,,,,,,,,,,,,,,,15,,61,0
111959,note_on,,59,0,10,,,,,,,,,,,,,,,,12,,64,0
111959,note_on,,59,0,8,,,,,,,,,,,,,,,,10,,74,0
111960,note_on,,1,0,5,,,,,,,,,,,,,,,,2,,59,48
111960,note_on,,1,0,8,,,,,,,,,,,,,,,,10,,76,48
111960,note_on,,1,0,12,,,,,,,,,,,,,,,,15,,59,48
111960,note_on,,1,0,10,,,,,,,,,,,,,,,,12,,62,48
111960,note_on,,1,0,9,,,,,,,,,,,,,,,,11,,67,48
111960,note_on,,1,0,11,,,,,,,,,,,,,,,,13,,59,48
111960,note_on,,1,0,7,,,,,,,,,,,,,,,,8,,59,72
112019,note_on,,59,0,5,,,,,,,,,,,,,,,,2,,59,0
112019,note_on,,59,0,8,,,,,,,,,,,,,,,,10,,76,0
112019,note_on,,59,0,9,,,,,,,,,,,,,,,,11,,67,0
112019,note_on,,59,0,12,,,,,,,,,,,,,,,,15,,59,0
112019,note_on,,59,0,11,,,,,,,,,,,,,,,,13,,59,0
112019,note_on,,59,0,7,,,,,,,,,,,,,,,,8,,59,0
112019,note_on,,59,0,10,,,,,,,,,,,,,,,,12,,62,0
112020,note_on,,1,0,7,,,,,,,,,,,,,,,,8,,57,72
112020,note_on,,1,0,5,,,,,,,,,,,,,,,,2,,57,48
112020,note_on,,1,0,8,,,,,,,,,,,,,,,,10,,78,48
112020,note_on,,1,0,11,,,,,,,,,,,,,,,,13,,57,48
112020,note_on,,1,0,9,,,,,,,,,,,,,,,,11,,69,48
112020,note_on,,1,0,12,,,,,,,,,,,,,,,,15,,57,48
112020,note_on,,1,0,10,,,,,,,,,,,,,,,,12,,61,48
112079,note_on,,59,0,8,,,,,,,,,,,,,,,,10,,78,0
112079,note_on,,59,0,10,,,,,,,,,,,,,,,,12,,61,0
112079,note_on,,59,0,12,,,,,,,,,,,,,,,,15,,71,0
112079,note_on,,0,0,12,,,,,,,,,,,,,,,,15,,57,0
112079,note_on,,0,0,12,,,,,,,,,,,,,,,,15,,66,0
112079,note_on,,359,0,6,,,,,,,,,,,,,,,,3,,78,0
112079,note_on,,59,0,5,,,,,,,,,,,,,,,,2,,57,0
112079,note_on,,59,0,9,,,,,,,,,,,,,,,,11,,69,0
112079,note_on,,0,0,12,,,,,,,,,,,,,,,,15,,74,0
112079,note_on,,59,0,7,,,,,,,,,,,,,,,,8,,57,0
112079,note_on,,59,0,11,,,,,,,,,,,,,,,,13,,57,0
112080,note_on,,0,0,12,,,,,,,,,,,,,,,,15,,71,48
112080,note_on,,1,0,12,,,,,,,,,,,,,,,,15,,74,48
112080,note_on,,0,0,12,,,,,,,,,,,,,,,,15,,55,48
112080,note_on,,0,0,12,,,,,,,,,,,,,,,,15,,79,48
112080,note_on,,1,0,11,,,,,,,,,,,,,,,,13,,55,48
112080,note_on,,1,0,5,,,,,,,,,,,,,,,,2,,55,48
112080,note_on,,1,0,9,,,,,,,,,,,,,,,,11,,71,48
112080,note_on,,1,0,10,,,,,,,,,,,,,,,,12,,62,48
112080,note_on,,1,0,8,,,,,,,,,,,,,,,,10,,79,48
112080,note_on,,1,0,7,,,,,,,,,,,,,,,,8,,55,72
112139,note_on,,59,0,8,,,,,,,,,,,,,,,,10,,79,0
112140,note_on,,1,0,8,,,,,,,,,,,,,,,,10,,78,48
112199,note_on,,119,0,12,,,,,,,,,,,,,,,,15,,71,0
112199,note_on,,0,0,12,,,,,,,,,,,,,,,,15,,55,0
112199,note_on,,119,0,5,,,,,,,,,,,,,,,,2,,55,0
112199,note_on,,119,0,9,,,,,,,,,,,,,,,,11,,71,0
112199,note_on,,59,0,8,,,,,,,,,,,,,,,,10,,78,0
112199,note_on,,119,0,11,,,,,,,,,,,,,,,,13,,55,0
112199,note_on,,119,0,7,,,,,,,,,,,,,,,,8,,55,0
112200,note_on,,1,0,11,,,,,,,,,,,,,,,,13,,54,48
112200,note_on,,1,0,5,,,,,,,,,,,,,,,,2,,54,48
112200,note_on,,121,0,6,,,,,,,,,,,,,,,,3,,74,64
112200,note_on,,0,0,12,,,,,,,,,,,,,,,,15,,54,48
112200,note_on,,1,0,9,,,,,,,,,,,,,,,,11,,69,48
112200,note_on,,1,0,12,,,,,,,,,,,,,,,,15,,69,48
112200,note_on,,1,0,7,,,,,,,,,,,,,,,,8,,54,72
112200,note_on,,1,0,8,,,,,,,,,,,,,,,,10,,79,48
112259,note_on,,179,0,10,,,,,,,,,,,,,,,,12,,62,0
112259,note_on,,59,0,8,,,,,,,,,,,,,,,,10,,79,0
112260,note_on,,1,0,10,,,,,,,,,,,,,,,,12,,57,48
112260,note_on,,1,0,8,,,,,,,,,,,,,,,,10,,81,48
112319,note_on,,59,0,8,,,,,,,,,,,,,,,,10,,81,0
112319,note_on,,59,0,10,,,,,,,,,,,,,,,,12,,57,0
112319,note_on,,119,0,12,,,,,,,,,,,,,,,,15,,74,0
112319,note_on,,119,0,11,,,,,,,,,,,,,,,,13,,54,0
112319,note_on,,119,0,9,,,,,,,,,,,,,,,,11,,69,0
112319,note_on,,0,0,12,,,,,,,,,,,,,,,,15,,54,0
112319,note_on,,0,0,12,,,,,,,,,,,,,,,,15,,69,0
112319,note_on,,119,0,6,,,,,,,,,,,,,,,,3,,74,0
112319,note_on,,119,0,5,,,,,,,,,,,,,,,,2,,54,0
112319,note_on,,119,0,7,,,,,,,,,,,,,,,,8,,54,0
112320,note_on,,1,0,9,,,,,,,,,,,,,,,,11,,67,48
112320,note_on,,0,0,12,,,,,,,,,,,,,,,,15,,67,48
112320,note_on,,0,0,12,,,,,,,,,,,,,,,,15,,52,48
112320,note_on,,1,0,12,,,,,,,,,,,,,,,,15,,73,48
112320,note_on,,1,0,11,,,,,,,,,,,,,,,,13,,52,48
112320,note_on,,1,0,5,,,,,,,,,,,,,,,,2,,52,48
112320,note_on,,1,0,6,,,,,,,,,,,,,,,,3,,79,64
112320,note_on,,1,0,7,,,,,,,,,,,,,,,,8,,52,72
112320,note_on,,1,0,10,,,,,,,,,,,,,,,,12,,64,48
112320,note_on,,1,0,8,,,,,,,,,,,,,,,,10,,83,48
112379,note_on,,59,0,8,,,,,,,,,,,,,,,,10,,83,0
112380,note_on,,1,0,8,,,,,,,,,,,,,,,,10,,85,48
112439,note_on,,59,0,8,,,,,,,,,,,,,,,,10,,85,0
112439,note_on,,0,0,12,,,,,,,,,,,,,,,,15,,67,0
112439,note_on,,0,0,12,,,,,,,,,,,,,,,,15,,73,0
112439,note_on,,119,0,12,,,,,,,,,,,,,,,,15,,79,0
112439,note_on,,119,0,10,,,,,,,,,,,,,,,,12,,64,0
112439,note_on,,119,0,7,,,,,,,,,,,,,,,,8,,52,0
112439,note_on,,0,0,12,,,,,,,,,,,,,,,,15,,52,0
112439,note_on,,119,0,9,,,,,,,,,,,,,,,,11,,67,0
112439,note_on,,119,0,11,,,,,,,,,,,,,,,,13,,52,0
112439,note_on,,119,0,5,,,,,,,,,,,,,,,,2,,52,0
112439,note_on,,119,0,6,,,,,,,,,,,,,,,,3,,79,0
112440,note_on,,1,0,9,,,,,,,,,,,,,,,,11,,69,48
112440,note_on,,1,0,8,,,,,,,,,,,,,,,,10,,86,48
112440,note_on,,1,0,11,,,,,,,,,,,,,,,,13,,50,48
112440,note_on,,1,0,7,,,,,,,,,,,,,,,,8,,50,72
112440,note_on,,0,0,12,,,,,,,,,,,,,,,,15,,78,48
112440,note_on,,1,0,10,,,,,,,,,,,,,,,,12,,66,48
112440,note_on,,1,0,5,,,,,,,,,,,,,,,,2,,50,48
112440,note_on,,1,0,6,,,,,,,,,,,,,,,,3,,78,64
112440,note_on,,0,0,12,,,,,,,,,,,,,,,,15,,69,48
112440,note_on,,0,0,12,,,,,,,,,,,,,,,,15,,50,48
112440,note_on,,1,0,12,,,,,,,,,,,,,,,,15,,74,48
112499,note_on,,59,0,6,,,,,,,,,,,,,,,,3,,78,0
112500,note_on,,1,0,6,,,,,,,,,,,,,,,,3,,76,64
112559,note_on,,119,0,10,,,,,,,,,,,,,,,,12,,66,0
112559,note_on,,59,0,6,,,,,,,,,,,,,,,,3,,76,0
112559,note_on,,119,0,11,,,,,,,,,,,,,,,,13,,50,0
112559,note_on,,119,0,9,,,,,,,,,,,,,,,,11,,69,0
112559,note_on,,119,0,12,,,,,,,,,,,,,,,,15,,50,0
112559,note_on,,119,0,7,,,,,,,,,,,,,,,,8,,50,0
112559,note_on,,119,0,5,,,,,,,,,,,,,,,,2,,50,0
112560,note_on,,1,0,6,,,,,,,,,,,,,,,,3,,74,64
112619,note_on,,179,0,8,,,,,,,,,,,,,,,,10,,86,0
112619,note_on,,59,0,6,,,,,,,,,,,,,,,,3,,74,0
112620,note_on,,1,0,8,,,,,,,,,,,,,,,,10,,78,48
112620,note_on,,1,0,6,,,,,,,,,,,,,,,,3,,78,64
112679,note_on,,59,0,6,,,,,,,,,,,,,,,,3,,78,0
112679,note_on,,59,0,8,,,,,,,,,,,,,,,,10,,78,0
112680,note_on,,121,0,9,,,,,,,,,,,,,,,,11,,69,48
112680,note_on,,121,0,10,,,,,,,,,,,,,,,,12,,66,48
112680,note_on,,1,0,8,,,,,,,,,,,,,,,,10,,76,48
112680,note_on,,121,0,11,,,,,,,,,,,,,,,,13,,50,48
112680,note_on,,121,0,7,,,,,,,,,,,,,,,,8,,50,72
112680,note_on,,121,0,12,,,,,,,,,,,,,,,,15,,50,48
112680,note_on,,121,0,5,,,,,,,,,,,,,,,,2,,50,48
112680,note_on,,1,0,6,,,,,,,,,,,,,,,,3,,76,64
112739,note_on,,59,0,6,,,,,,,,,,,,,,,,3,,76,0
112739,note_on,,59,0,8,,,,,,,,,,,,,,,,10,,76,0
112740,note_on,,1,0,8,,,,,,,,,,,,,,,,10,,74,48
112740,note_on,,1,0,6,,,,,,,,,,,,,,,,3,,74,64
112799,note_on,,119,0,12,,,,,,,,,,,,,,,,15,,74,0
112799,note_on,,0,0,12,,,,,,,,,,,,,,,,15,,78,0
112799,note_on,,0,0,12,,,,,,,,,,,,,,,,15,,50,0
112799,note_on,,0,0,12,,,,,,,,,,,,,,,,15,,69,0
112799,note_on,,119,0,10,,,,,,,,,,,,,,,,12,,66,0
112799,note_on,,119,0,9,,,,,,,,,,,,,,,,11,,69,0
112799,note_on,,59,0,8,,,,,,,,,,,,,,,,10,,74,0
112799,note_on,,119,0,7,,,,,,,,,,,,,,,,8,,50,0
112799,note_on,,119,0,11,,,,,,,,,,,,,,,,13,,50,0
112799,note_on,,119,0,5,,,,,,,,,,,,,,,,2,,50,0
112799,note_on,,59,0,6,,,,,,,,,,,,,,,,3,,74,0
112800,note_on,,1,0,5,,,,,,,,,,,,,,,,2,,62,48
112800,note_on,,1,0,12,,,,,,,,,,,,,,,,15,,71,48
112800,note_on,,1,0,8,,,,,,,,,,,,,,,,10,,80,48
112800,note_on,,0,0,12,,,,,,,,,,,,,,,,15,,62,48
112800,note_on,,1,0,6,,,,,,,,,,,,,,,,3,,80,64
112800,note_on,,0,0,12,,,,,,,,,,,,,,,,15,,68,48
112800,note_on,,1,0,11,,,,,,,,,,,,,,,,13,,62,48
112800,note_on,,1,0,7,,,,,,,,,,,,,,,,8,,62,72
112800,note_on,,1,0,10,,,,,,,,,,,,,,,,12,,64,48
112800,note_on,,1,0,9,,,,,,,,,,,,,,,,11,,71,48
112800,note_on,,0,0,12,,,,,,,,,,,,,,,,15,,76,48
112859,note_on,,59,0,8,,,,,,,,,,,,,,,,10,,80,0
112859,note_on,,59,0,6,,,,,,,,,,,,,,,,3,,80,0
112860,note_on,,1,0,6,,,,,,,,,,,,,,,,3,,78,64
112860,note_on,,1,0,8,,,,,,,,,,,,,,,,10,,78,48
112919,note_on,,59,0,8,,,,,,,,,,,,,,,,10,,78,0
112919,note_on,,119,0,12,,,,,,,,,,,,,,,,15,,62,0
112919,note_on,,119,0,10,,,,,,,,,,,,,,,,12,,64,0
112919,note_on,,119,0,9,,,,,,,,,,,,,,,,11,,71,0
112919,note_on,,59,0,6,,,,,,,,,,,,,,,,3,,78,0
112919,note_on,,119,0,7,,,,,,,,,,,,,,,,8,,62,0
112919,note_on,,119,0,5,,,,,,,,,,,,,,,,2,,62,0
112919,note_on,,119,0,11,,,,,,,,,,,,,,,,13,,62,0
112920,note_on,,1,0,9,,,,,,,,,,,,,,,,11,,71,48
112920,note_on,,1,0,8,,,,,,,,,,,,,,,,10,,76,48
112920,note_on,,1,0,7,,,,,,,,,,,,,,,,8,,62,72
112920,note_on,,1,0,12,,,,,,,,,,,,,,,,15,,62,48
112920,note_on,,1,0,6,,,,,,,,,,,,,,,,3,,76,64
112920,note_on,,1,0,10,,,,,,,,,,,,,,,,12,,64,48
112920,note_on,,1,0,11,,,,,,,,,,,,,,,,13,,62,48
112920,note_on,,1,0,5,,,,,,,,,,,,,,,,2,,62,48
112979,note_on,,59,0,6,,,,,,,,,,,,,,,,3,,76,0
112979,note_on,,59,0,8,,,,,,,,,,,,,,,,10,,76,0
112980,note_on,,1,0,6,,,,,,,,,,,,,,,,3,,80,64
112980,note_on,,1,0,8,,,,,,,,,,,,,,,,10,,80,48
113039,note_on,,119,0,11,,,,,,,,,,,,,,,,13,,62,0
113039,note_on,,119,0,7,,,,,,,,,,,,,,,,8,,62,0
113039,note_on,,119,0,12,,,,,,,,,,,,,,,,15,,62,0
113039,note_on,,59,0,6,,,,,,,,,,,,,,,,3,,80,0
113039,note_on,,119,0,10,,,,,,,,,,,,,,,,12,,64,0
113039,note_on,,119,0,9,,,,,,,,,,,,,,,,11,,71,0
113039,note_on,,59,0,8,,,,,,,,,,,,,,,,10,,80,0
113039,note_on,,119,0,5,,,,,,,,,,,,,,,,2,,62,0
113040,note_on,,1,0,10,,,,,,,,,,,,,,,,12,,64,48
113040,note_on,,1,0,8,,,,,,,,,,,,,,,,10,,78,48
113040,note_on,,1,0,5,,,,,,,,,,,,,,,,2,,62,48
113040,note_on,,1,0,6,,,,,,,,,,,,,,,,3,,78,64
113040,note_on,,1,0,11,,,,,,,,,,,,,,,,13,,62,48
113040,note_on,,1,0,12,,,,,,,,,,,,,,,,15,,62,48
113040,note_on,,1,0,7,,,,,,,,,,,,,,,,8,,62,72
113040,note_on,,1,0,9,,,,,,,,,,,,,,,,11,,71,48
113099,note_on,,59,0,8,,,,,,,,,,,,,,,,10,,78,0
113099,note_on,,59,0,6,,,,,,,,,,,,,,,,3,,78,0
113100,note_on,,1,0,6,,,,,,,,,,,,,,,,3,,76,64
113100,note_on,,1,0,8,,,,,,,,,,,,,,,,10,,76,48
113159,note_on,,119,0,9,,,,,,,,,,,,,,,,11,,71,0
113159,note_on,,119,0,12,,,,,,,,,,,,,,,,15,,71,0
113159,note_on,,0,0,12,,,,,,,,,,,,,,,,15,,76,0
113159,note_on,,0,0,12,,,,,,,,,,,,,,,,15,,62,0
113159,note_on,,119,0,10,,,,,,,,,,,,,,,,12,,64,0
113159,note_on,,119,0,5,,,,,,,,,,,,,,,,2,,62,0
113159,note_on,,119,0,7,,,,,,,,,,,,,,,,8,,62,0
113159,note_on,,59,0,8,,,,,,,,,,,,,,,,10,,76,0
113159,note_on,,119,0,11,,,,,,,,,,,,,,,,13,,62,0
113159,note_on,,59,0,6,,,,,,,,,,,,,,,,3,,76,0
113159,note_on,,0,0,12,,,,,,,,,,,,,,,,15,,68,0
113160,note_on,,1,0,7,,,,,,,,,,,,,,,,8,,61,72
113160,note_on,,1,0,8,,,,,,,,,,,,,,,,10,,81,48
113160,note_on,,1,0,9,,,,,,,,,,,,,,,,11,,69,48
113160,note_on,,1,0,12,,,,,,,,,,,,,,,,15,,64,48
113160,note_on,,0,0,12,,,,,,,,,,,,,,,,15,,69,48
113160,note_on,,1,0,6,,,,,,,,,,,,,,,,3,,81,64
113160,note_on,,1,0,10,,,,,,,,,,,,,,,,12,,64,48
113160,note_on,,1,0,5,,,,,,,,,,,,,,,,2,,61,48
113160,note_on,,1,0,11,,,,,,,,,,,,,,,,13,,61,48
113160,note_on,,0,0,12,,,,,,,,,,,,,,,,15,,76,48
113160,note_on,,0,0,12,,,,,,,,,,,,,,,,15,,61,48
113279,note_on,,0,0,12,,,,,,,,,,,,,,,,15,,61,0
113279,note_on,,0,0,12,,,,,,,,,,,,,,,,15,,76,0
113279,note_on,,119,0,11,,,,,,,,,,,,,,,,13,,61,0
113279,note_on,,119,0,12,,,,,,,,,,,,,,,,15,,64,0
113279,note_on,,119,0,5,,,,,,,,,,,,,,,,2,,61,0
113279,note_on,,119,0,10,,,,,,,,,,,,,,,,12,,64,0
113279,note_on,,119,0,9,,,,,,,,,,,,,,,,11,,69,0
113279,note_on,,0,0,12,,,,,,,,,,,,,,,,15,,69,0
113279,note_on,,119,0,7,,,,,,,,,,,,,,,,8,,61,0
113279,note_on,,119,0,6,,,,,,,,,,,,,,,,3,,81,0
113279,note_on,,119,0,8,,,,,,,,,,,,,,,,10,,81,0
113280,note_on,,1,0,8,,,,,,,,,,,,,,,,10,,86,48
113339,note_on,,59,0,8,,,,,,,,,,,,,,,,10,,86,0
113340,note_on,,1,0,8,,,,,,,,,,,,,,,,10,,83,48
113399,note_on,,59,0,8,,,,,,,,,,,,,,,,10,,83,0
113400,note_on,,121,0,9,,,,,,,,,,,,,,,,11,,71,48
113400,note_on,,121,0,12,,,,,,,,,,,,,,,,15,,71,48
113400,note_on,,0,0,12,,,,,,,,,,,,,,,,15,,62,48
113400,note_on,,121,0,7,,,,,,,,,,,,,,,,8,,59,72
113400,note_on,,121,0,5,,,,,,,,,,,,,,,,2,,59,48
113400,note_on,,1,0,8,,,,,,,,,,,,,,,,10,,81,48
113400,note_on,,121,0,10,,,,,,,,,,,,,,,,12,,62,48
113400,note_on,,121,0,11,,,,,,,,,,,,,,,,13,,59,48
113400,note_on,,0,0,12,,,,,,,,,,,,,,,,15,,59,48
113414,note_on,,14,0,8,,,,,,,,,,,,,,,,10,,81,0
113415,note_on,,1,0,8,,,,,,,,,,,,,,,,10,,83,48
113429,note_on,,14,0,8,,,,,,,,,,,,,,,,10,,83,0
113430,note_on,,1,0,8,,,,,,,,,,,,,,,,10,,81,48
113444,note_on,,14,0,8,,,,,,,,,,,,,,,,10,,81,0
113445,note_on,,1,0,8,,,,,,,,,,,,,,,,10,,83,48
113459,note_on,,14,0,8,,,,,,,,,,,,,,,,10,,83,0
113460,note_on,,1,0,8,,,,,,,,,,,,,,,,10,,80,48
113474,note_on,,14,0,8,,,,,,,,,,,,,,,,10,,80,0
113475,note_on,,1,0,8,,,,,,,,,,,,,,,,10,,81,48
113489,note_on,,14,0,8,,,,,,,,,,,,,,,,10,,81,0
113490,note_on,,1,0,8,,,,,,,,,,,,,,,,10,,80,48
113519,note_on,,119,0,5,,,,,,,,,,,,,,,,2,,59,0
113519,note_on,,29,0,8,,,,,,,,,,,,,,,,10,,80,0
113519,note_on,,119,0,10,,,,,,,,,,,,,,,,12,,62,0
113519,note_on,,119,0,9,,,,,,,,,,,,,,,,11,,71,0
113519,note_on,,119,0,7,,,,,,,,,,,,,,,,8,,59,0
113519,note_on,,119,0,11,,,,,,,,,,,,,,,,13,,59,0
113519,note_on,,0,0,12,,,,,,,,,,,,,,,,15,,59,0
113519,note_on,,0,0,12,,,,,,,,,,,,,,,,15,,62,0
113519,note_on,,119,0,12,,,,,,,,,,,,,,,,15,,71,0
113520,note_on,,1,0,10,,,,,,,,,,,,,,,,12,,64,48
113520,note_on,,1,0,7,,,,,,,,,,,,,,,,8,,61,72
113520,note_on,,1,0,5,,,,,,,,,,,,,,,,2,,61,48
113520,note_on,,0,0,12,,,,,,,,,,,,,,,,15,,76,48
113520,note_on,,0,0,12,,,,,,,,,,,,,,,,15,,61,48
113520,note_on,,1,0,12,,,,,,,,,,,,,,,,15,,69,48
113520,note_on,,241,0,6,,,,,,,,,,,,,,,,3,,81,64
113520,note_on,,1,0,8,,,,,,,,,,,,,,,,10,,81,48
113520,note_on,,1,0,9,,,,,,,,,,,,,,,,11,,69,48
113520,note_on,,1,0,11,,,,,,,,,,,,,,,,13,,61,48
113520,note_on,,0,0,12,,,,,,,,,,,,,,,,15,,64,48
113639,note_on,,119,0,7,,,,,,,,,,,,,,,,8,,61,0
113639,note_on,,119,0,5,,,,,,,,,,,,,,,,2,,61,0
113639,note_on,,119,0,9,,,,,,,,,,,,,,,,11,,69,0
113639,note_on,,119,0,6,,,,,,,,,,,,,,,,3,,81,0
113639,note_on,,0,0,12,,,,,,,,,,,,,,,,15,,64,0
113639,note_on,,0,0,12,,,,,,,,,,,,,,,,15,,76,0
113639,note_on,,0,0,12,,,,,,,,,,,,,,,,15,,61,0
113639,note_on,,119,0,12,,,,,,,,,,,,,,,,15,,69,0
113639,note_on,,119,0,10,,,,,,,,,,,,,,,,12,,64,0
113639,note_on,,119,0,8,,,,,,,,,,,,,,,,10,,81,0
113639,note_on,,119,0,11,,,,,,,,,,,,,,,,13,,61,0
113640,note_on,,1,0,8,,,,,,,,,,,,,,,,10,,86,48
113699,note_on,,59,0,8,,,,,,,,,,,,,,,,10,,86,0
113700,note_on,,1,0,8,,,,,,,,,,,,,,,,10,,83,48
113759,note_on,,59,0,8,,,,,,,,,,,,,,,,10,,83,0
113760,note_on,,121,0,10,,,,,,,,,,,,,,,,12,,62,48
113760,note_on,,1,0,8,,,,,,,,,,,,,,,,10,,81,48
113760,note_on,,121,0,5,,,,,,,,,,,,,,,,2,,59,48
113760,note_on,,121,0,11,,,,,,,,,,,,,,,,13,,59,48
113760,note_on,,121,0,9,,,,,,,,,,,,,,,,11,,71,48
113760,note_on,,121,0,7,,,,,,,,,,,,,,,,8,,59,72
113760,note_on,,0,0,12,,,,,,,,,,,,,,,,15,,71,48
113760,note_on,,0,0,12,,,,,,,,,,,,,,,,15,,59,48
113760,note_on,,121,0,12,,,,,,,,,,,,,,,,15,,62,48
113774,note_on,,14,0,8,,,,,,,,,,,,,,,,10,,81,0
113775,note_on,,1,0,8,,,,,,,,,,,,,,,,10,,83,48
113789,note_on,,14,0,8,,,,,,,,,,,,,,,,10,,83,0
113790,note_on,,1,0,8,,,,,,,,,,,,,,,,10,,81,48
113804,note_on,,14,0,8,,,,,,,,,,,,,,,,10,,81,0
113805,note_on,,1,0,8,,,,,,,,,,,,,,,,10,,83,48
113819,note_on,,14,0,8,,,,,,,,,,,,,,,,10,,83,0
113820,note_on,,1,0,8,,,,,,,,,,,,,,,,10,,80,48
113834,note_on,,14,0,8,,,,,,,,,,,,,,,,10,,80,0
113835,note_on,,1,0,8,,,,,,,,,,,,,,,,10,,81,48
113849,note_on,,14,0,8,,,,,,,,,,,,,,,,10,,81,0
113850,note_on,,1,0,8,,,,,,,,,,,,,,,,10,,80,48
113879,note_on,,0,0,12,,,,,,,,,,,,,,,,15,,59,0
113879,note_on,,119,0,9,,,,,,,,,,,,,,,,11,,71,0
113879,note_on,,29,0,8,,,,,,,,,,,,,,,,10,,80,0
113879,note_on,,119,0,11,,,,,,,,,,,,,,,,13,,59,0
113879,note_on,,0,0,12,,,,,,,,,,,,,,,,15,,71,0
113879,note_on,,119,0,7,,,,,,,,,,,,,,,,8,,59,0
113879,note_on,,119,0,5,,,,,,,,,,,,,,,,2,,59,0
113879,note_on,,119,0,10,,,,,,,,,,,,,,,,12,,62,0
113879,note_on,,119,0,12,,,,,,,,,,,,,,,,15,,62,0
113880,note_on,,241,0,6,,,,,,,,,,,,,,,,3,,81,64
113880,note_on,,1,0,5,,,,,,,,,,,,,,,,2,,61,48
113880,note_on,,1,0,10,,,,,,,,,,,,,,,,12,,64,48
113880,note_on,,1,0,9,,,,,,,,,,,,,,,,11,,69,48
113880,note_on,,1,0,11,,,,,,,,,,,,,,,,13,,61,48
113880,note_on,,1,0,7,,,,,,,,,,,,,,,,8,,61,72
113880,note_on,,1,0,8,,,,,,,,,,,,,,,,10,,81,48
113880,note_on,,1,0,12,,,,,,,,,,,,,,,,15,,69,48
113880,note_on,,0,0,12,,,,,,,,,,,,,,,,15,,61,48
113880,note_on,,0,0,12,,,,,,,,,,,,,,,,15,,64,48
113939,note_on,,59,0,7,,,,,,,,,,,,,,,,8,,61,0
113939,note_on,,59,0,5,,,,,,,,,,,,,,,,2,,61,0
113939,note_on,,59,0,11,,,,,,,,,,,,,,,,13,,61,0
113939,note_on,,0,0,12,,,,,,,,,,,,,,,,15,,61,0
113939,note_on,,59,0,12,,,,,,,,,,,,,,,,15,,64,0
113940,note_on,,1,0,11,,,,,,,,,,,,,,,,13,,59,48
113940,note_on,,1,0,5,,,,,,,,,,,,,,,,2,,59,48
113940,note_on,,0,0,12,,,,,,,,,,,,,,,,15,,62,48
113940,note_on,,1,0,12,,,,,,,,,,,,,,,,15,,59,48
113940,note_on,,1,0,7,,,,,,,,,,,,,,,,8,,59,72
113999,note_on,,59,0,11,,,,,,,,,,,,,,,,13,,59,0
113999,note_on,,119,0,8,,,,,,,,,,,,,,,,10,,81,0
113999,note_on,,119,0,6,,,,,,,,,,,,,,,,3,,81,0
113999,note_on,,59,0,5,,,,,,,,,,,,,,,,2,,59,0
113999,note_on,,0,0,12,,,,,,,,,,,,,,,,15,,62,0
113999,note_on,,119,0,9,,,,,,,,,,,,,,,,11,,69,0
113999,note_on,,59,0,12,,,,,,,,,,,,,,,,15,,59,0
113999,note_on,,119,0,10,,,,,,,,,,,,,,,,12,,64,0
113999,note_on,,59,0,7,,,,,,,,,,,,,,,,8,,59,0
114000,note_on,,1,0,7,,,,,,,,,,,,,,,,8,,57,72
114000,note_on,,1,0,5,,,,,,,,,,,,,,,,2,,57,48
114000,note_on,,1,0,11,,,,,,,,,,,,,,,,13,,57,48
114000,note_on,,1,0,12,,,,,,,,,,,,,,,,15,,57,48
114000,note_on,,0,0,12,,,,,,,,,,,,,,,,15,,61,48
114059,note_on,,59,0,7,,,,,,,,,,,,,,,,8,,57,0
114059,note_on,,59,0,5,,,,,,,,,,,,,,,,2,,57,0
114059,note_on,,59,0,11,,,,,,,,,,,,,,,,13,,57,0
114059,note_on,,59,0,12,,,,,,,,,,,,,,,,15,,57,0
114060,note_on,,1,0,5,,,,,,,,,,,,,,,,2,,61,48
114060,note_on,,61,0,6,,,,,,,,,,,,,,,,3,,76,64
114060,note_on,,1,0,11,,,,,,,,,,,,,,,,13,,61,48
114060,note_on,,1,0,7,,,,,,,,,,,,,,,,8,,61,72
114119,note_on,,59,0,11,,,,,,,,,,,,,,,,13,,61,0
114119,note_on,,0,0,12,,,,,,,,,,,,,,,,15,,61,0
114119,note_on,,59,0,6,,,,,,,,,,,,,,,,3,,76,0
114119,note_on,,59,0,5,,,,,,,,,,,,,,,,2,,61,0
114119,note_on,,60,0,12,,,,,,,,,,,,,,,,15,,69,0
114119,note_on,,59,0,7,,,,,,,,,,,,,,,,8,,61,0
114120,note_on,,1,0,12,,,,,,,,,,,,,,,,15,,59,48
114120,note_on,,0,0,12,,,,,,,,,,,,,,,,15,,62,48
114120,note_on,,0,0,12,,,,,,,,,,,,,,,,15,,69,48
114120,note_on,,1,0,7,,,,,,,,,,,,,,,,8,,59,72
114120,note_on,,1,0,6,,,,,,,,,,,,,,,,3,,74,64
114120,note_on,,1,0,11,,,,,,,,,,,,,,,,13,,59,48
114120,note_on,,1,0,5,,,,,,,,,,,,,,,,2,,59,48
114179,note_on,,0,0,12,,,,,,,,,,,,,,,,15,,62,0
114179,note_on,,59,0,6,,,,,,,,,,,,,,,,3,,74,0
114179,note_on,,59,0,5,,,,,,,,,,,,,,,,2,,59,0
114179,note_on,,59,0,12,,,,,,,,,,,,,,,,15,,59,0
114179,note_on,,59,0,7,,,,,,,,,,,,,,,,8,,59,0
114179,note_on,,59,0,11,,,,,,,,,,,,,,,,13,,59,0
114180,note_on,,1,0,6,,,,,,,,,,,,,,,,3,,76,64
114180,note_on,,1,0,11,,,,,,,,,,,,,,,,13,,61,48
114180,note_on,,1,0,7,,,,,,,,,,,,,,,,8,,61,72
114180,note_on,,1,0,12,,,,,,,,,,,,,,,,15,,64,48
114180,note_on,,0,0,12,,,,,,,,,,,,,,,,15,,61,48
114180,note_on,,1,0,5,,,,,,,,,,,,,,,,2,,61,48
114239,note_on,,0,0,12,,,,,,,,,,,,,,,,15,,61,0
114239,note_on,,59,0,7,,,,,,,,,,,,,,,,8,,61,0
114239,note_on,,59,0,6,,,,,,,,,,,,,,,,3,,76,0
114239,note_on,,59,0,12,,,,,,,,,,,,,,,,15,,64,0
114239,note_on,,59,0,11,,,,,,,,,,,,,,,,13,,61,0
114239,note_on,,59,0,5,,,,,,,,,,,,,,,,2,,61,0
114240,note_on,,1,0,12,,,,,,,,,,,,,,,,15,,62,48
114240,note_on,,0,0,12,,,,,,,,,,,,,,,,15,,66,48
114240,note_on,,1,0,11,,,,,,,,,,,,,,,,13,,62,48
114240,note_on,,1,0,6,,,,,,,,,,,,,,,,3,,78,64
114240,note_on,,1,0,7,,,,,,,,,,,,,,,,8,,62,72
114240,note_on,,1,0,5,,,,,,,,,,,,,,,,2,,62,48
114299,note_on,,59,0,7,,,,,,,,,,,,,,,,8,,62,0
114299,note_on,,59,0,11,,,,,,,,,,,,,,,,13,,62,0
114299,note_on,,59,0,5,,,,,,,,,,,,,,,,2,,62,0
114299,note_on,,0,0,12,,,,,,,,,,,,,,,,15,,66,0
114299,note_on,,59,0,12,,,,,,,,,,,,,,,,15,,62,0
114299,note_on,,59,0,6,,,,,,,,,,,,,,,,3,,78,0
114300,note_on,,1,0,7,,,,,,,,,,,,,,,,8,,59,72
114300,note_on,,1,0,5,,,,,,,,,,,,,,,,2,,59,48
114300,note_on,,1,0,6,,,,,,,,,,,,,,,,3,,79,64
114300,note_on,,0,0,12,,,,,,,,,,,,,,,,15,,59,48
114300,note_on,,1,0,12,,,,,,,,,,,,,,,,15,,62,48
114300,note_on,,1,0,11,,,,,,,,,,,,,,,,13,,59,48
114359,note_on,,0,0,12,,,,,,,,,,,,,,,,15,,59,0
114359,note_on,,59,0,12,,,,,,,,,,,,,,,,15,,62,0
114359,note_on,,59,0,7,,,,,,,,,,,,,,,,8,,59,0
114359,note_on,,59,0,5,,,,,,,,,,,,,,,,2,,59,0
114359,note_on,,59,0,11,,,,,,,,,,,,,,,,13,,59,0
114359,note_on,,59,0,6,,,,,,,,,,,,,,,,3,,79,0
114360,note_on,,1,0,5,,,,,,,,,,,,,,,,2,,61,48
114360,note_on,,1,0,11,,,,,,,,,,,,,,,,13,,61,48
114360,note_on,,0,0,12,,,,,,,,,,,,,,,,15,,64,48
114360,note_on,,1,0,7,,,,,,,,,,,,,,,,8,,61,72
114360,note_on,,1,0,12,,,,,,,,,,,,,,,,15,,61,48
114360,note_on,,1,0,6,,,,,,,,,,,,,,,,3,,81,64
114419,note_on,,59,0,12,,,,,,,,,,,,,,,,15,,61,0
114419,note_on,,59,0,11,,,,,,,,,,,,,,,,13,,61,0
114419,note_on,,59,0,7,,,,,,,,,,,,,,,,8,,61,0
114419,note_on,,59,0,5,,,,,,,,,,,,,,,,2,,61,0
114419,note_on,,59,0,6,,,,,,,,,,,,,,,,3,,81,0
114420,note_on,,421,0,8,,,,,,,,,,,,,,,,10,,76,48
114420,note_on,,1,0,5,,,,,,,,,,,,,,,,2,,57,48
114420,note_on,,1,0,7,,,,,,,,,,,,,,,,8,,57,72
114420,note_on,,1,0,11,,,,,,,,,,,,,,,,13,,57,48
114420,note_on,,1,0,12,,,,,,,,,,,,,,,,15,,57,48
114479,note_on,,59,0,5,,,,,,,,,,,,,,,,2,,57,0
114479,note_on,,0,0,12,,,,,,,,,,,,,,,,15,,57,0
114479,note_on,,59,0,12,,,,,,,,,,,,,,,,15,,69,0
114479,note_on,,59,0,7,,,,,,,,,,,,,,,,8,,57,0
114479,note_on,,0,0,12,,,,,,,,,,,,,,,,15,,64,0
114479,note_on,,59,0,8,,,,,,,,,,,,,,,,10,,76,0
114479,note_on,,59,0,11,,,,,,,,,,,,,,,,13,,57,0
114480,note_on,,1,0,8,,,,,,,,,,,,,,,,10,,74,48
114480,note_on,,1,0,12,,,,,,,,,,,,,,,,15,,59,48
114480,note_on,,1,0,7,,,,,,,,,,,,,,,,8,,59,72
114480,note_on,,1,0,5,,,,,,,,,,,,,,,,2,,59,48
114480,note_on,,1,0,11,,,,,,,,,,,,,,,,13,,59,48
114539,note_on,,59,0,11,,,,,,,,,,,,,,,,13,,59,0
114539,note_on,,59,0,12,,,,,,,,,,,,,,,,15,,59,0
114539,note_on,,59,0,5,,,,,,,,,,,,,,,,2,,59,0
114539,note_on,,59,0,8,,,,,,,,,,,,,,,,10,,74,0
114539,note_on,,59,0,7,,,,,,,,,,,,,,,,8,,59,0
114540,note_on,,1,0,11,,,,,,,,,,,,,,,,13,,61,48
114540,note_on,,1,0,5,,,,,,,,,,,,,,,,2,,61,48
114540,note_on,,1,0,8,,,,,,,,,,,,,,,,10,,76,48
114540,note_on,,541,0,9,,,,,,,,,,,,,,,,11,,69,48
114540,note_on,,1,0,7,,,,,,,,,,,,,,,,8,,61,72
114540,note_on,,0,0,12,,,,,,,,,,,,,,,,15,,64,48
114540,note_on,,0,0,12,,,,,,,,,,,,,,,,15,,76,48
114540,note_on,,0,0,12,,,,,,,,,,,,,,,,15,,61,48
114540,note_on,,541,0,10,,,,,,,,,,,,,,,,12,,64,48
114540,note_on,,1,0,12,,,,,,,,,,,,,,,,15,,69,48
114599,note_on,,59,0,5,,,,,,,,,,,,,,,,2,,61,0
114599,note_on,,59,0,7,,,,,,,,,,,,,,,,8,,61,0
114599,note_on,,0,0,12,,,,,,,,,,,,,,,,15,,64,0
114599,note_on,,0,0,12,,,,,,,,,,,,,,,,15,,61,0
114599,note_on,,59,0,12,,,,,,,,,,,,,,,,15,,69,0
114599,note_on,,59,0,10,,,,,,,,,,,,,,,,12,,64,0
114599,note_on,,59,0,11,,,,,,,,,,,,,,,,13,,61,0
114599,note_on,,59,0,9,,,,,,,,,,,,,,,,11,,69,0
114599,note_on,,59,0,8,,,,,,,,,,,,,,,,10,,76,0
114599,note_on,,0,0,12,,,,,,,,,,,,,,,,15,,76,0
114600,note_on,,1,0,7,,,,,,,,,,,,,,,,8,,62,72
114600,note_on,,1,0,8,,,,,,,,,,,,,,,,10,,78,48
114600,note_on,,1,0,10,,,,,,,,,,,,,,,,12,,62,48
114600,note_on,,1,0,9,,,,,,,,,,,,,,,,11,,69,48
114600,note_on,,1,0,12,,,,,,,,,,,,,,,,15,,62,48
114600,note_on,,0,0,12,,,,,,,,,,,,,,,,15,,69,48
114600,note_on,,1,0,5,,,,,,,,,,,,,,,,2,,62,48
114600,note_on,,0,0,12,,,,,,,,,,,,,,,,15,,66,48
114600,note_on,,1,0,11,,,,,,,,,,,,,,,,13,,62,48
114659,note_on,,59,0,11,,,,,,,,,,,,,,,,13,,62,0
114659,note_on,,59,0,8,,,,,,,,,,,,,,,,10,,78,0
114659,note_on,,59,0,7,,,,,,,,,,,,,,,,8,,62,0
114659,note_on,,59,0,5,,,,,,,,,,,,,,,,2,,62,0
114659,note_on,,59,0,12,,,,,,,,,,,,,,,,15,,62,0
114659,note_on,,0,0,12,,,,,,,,,,,,,,,,15,,66,0
114660,note_on,,1,0,11,,,,,,,,,,,,,,,,13,,59,48
114660,note_on,,1,0,7,,,,,,,,,,,,,,,,8,,59,72
114660,note_on,,1,0,5,,,,,,,,,,,,,,,,2,,59,48
114660,note_on,,1,0,12,,,,,,,,,,,,,,,,15,,62,48
114660,note_on,,1,0,8,,,,,,,,,,,,,,,,10,,79,48
114660,note_on,,0,0,12,,,,,,,,,,,,,,,,15,,59,48
114719,note_on,,119,0,9,,,,,,,,,,,,,,,,11,,69,0
114719,note_on,,0,0,12,,,,,,,,,,,,,,,,15,,59,0
114719,note_on,,119,0,10,,,,,,,,,,,,,,,,12,,62,0
114719,note_on,,59,0,8,,,,,,,,,,,,,,,,10,,79,0
114719,note_on,,59,0,11,,,,,,,,,,,,,,,,13,,59,0
114719,note_on,,59,0,12,,,,,,,,,,,,,,,,15,,62,0
114719,note_on,,59,0,7,,,,,,,,,,,,,,,,8,,59,0
114719,note_on,,59,0,5,,,,,,,,,,,,,,,,2,,59,0
114720,note_on,,0,0,12,,,,,,,,,,,,,,,,15,,61,48
114720,note_on,,1,0,7,,,,,,,,,,,,,,,,8,,61,72
114720,note_on,,1,0,12,,,,,,,,,,,,,,,,15,,64,48
114720,note_on,,1,0,10,,,,,,,,,,,,,,,,12,,64,48
114720,note_on,,1,0,8,,,,,,,,,,,,,,,,10,,81,48
114720,note_on,,1,0,9,,,,,,,,,,,,,,,,11,,76,48
114720,note_on,,1,0,5,,,,,,,,,,,,,,,,2,,61,48
114720,note_on,,1,0,11,,,,,,,,,,,,,,,,13,,61,48
114779,note_on,,59,0,12,,,,,,,,,,,,,,,,15,,61,0
114779,note_on,,59,0,7,,,,,,,,,,,,,,,,8,,61,0
114779,note_on,,59,0,11,,,,,,,,,,,,,,,,13,,61,0
114779,note_on,,59,0,5,,,,,,,,,,,,,,,,2,,61,0
114780,note_on,,1,0,7,,,,,,,,,,,,,,,,8,,57,72
114780,note_on,,1,0,12,,,,,,,,,,,,,,,,15,,57,48
114780,note_on,,1,0,5,,,,,,,,,,,,,,,,2,,57,48
114780,note_on,,361,0,6,,,,,,,,,,,,,,,,3,,76,64
114780,note_on,,1,0,11,,,,,,,,,,,,,,,,13,,57,48
114839,note_on,,0,0,12,,,,,,,,,,,,,,,,15,,57,0
114839,note_on,,59,0,7,,,,,,,,,,,,,,,,8,,57,0
114839,note_on,,119,0,10,,,,,,,,,,,,,,,,12,,64,0
114839,note_on,,59,0,5,,,,,,,,,,,,,,,,2,,57,0
114839,note_on,,59,0,12,,,,,,,,,,,,,,,,15,,64,0
114839,note_on,,119,0,9,,,,,,,,,,,,,,,,11,,76,0
114839,note_on,,59,0,6,,,,,,,,,,,,,,,,3,,76,0
114839,note_on,,59,0,11,,,,,,,,,,,,,,,,13,,57,0
114839,note_on,,119,0,8,,,,,,,,,,,,,,,,10,,81,0
114840,note_on,,1,0,5,,,,,,,,,,,,,,,,2,,59,48
114840,note_on,,1,0,11,,,,,,,,,,,,,,,,13,,59,48
114840,note_on,,1,0,6,,,,,,,,,,,,,,,,3,,74,64
114840,note_on,,1,0,12,,,,,,,,,,,,,,,,15,,62,48
114840,note_on,,0,0,12,,,,,,,,,,,,,,,,15,,59,48
114840,note_on,,1,0,7,,,,,,,,,,,,,,,,8,,59,72
114899,note_on,,59,0,5,,,,,,,,,,,,,,,,2,,59,0
114899,note_on,,59,0,11,,,,,,,,,,,,,,,,13,,59,0
114899,note_on,,0,0,12,,,,,,,,,,,,,,,,15,,59,0
114899,note_on,,59,0,7,,,,,,,,,,,,,,,,8,,59,0
114899,note_on,,59,0,12,,,,,,,,,,,,,,,,15,,62,0
114899,note_on,,59,0,6,,,,,,,,,,,,,,,,3,,74,0
114900,note_on,,1,0,6,,,,,,,,,,,,,,,,3,,76,64
114900,note_on,,1,0,11,,,,,,,,,,,,,,,,13,,61,48
114900,note_on,,1,0,7,,,,,,,,,,,,,,,,8,,61,72
114900,note_on,,1,0,5,,,,,,,,,,,,,,,,2,,61,48
114900,note_on,,1,0,12,,,,,,,,,,,,,,,,15,,64,48
114900,note_on,,0,0,12,,,,,,,,,,,,,,,,15,,61,48
114959,note_on,,59,0,7,,,,,,,,,,,,,,,,8,,61,0
114959,note_on,,59,0,11,,,,,,,,,,,,,,,,13,,61,0
114959,note_on,,59,0,5,,,,,,,,,,,,,,,,2,,61,0
114959,note_on,,0,0,12,,,,,,,,,,,,,,,,15,,64,0
114959,note_on,,0,0,12,,,,,,,,,,,,,,,,15,,61,0
114959,note_on,,59,0,6,,,,,,,,,,,,,,,,3,,76,0
114959,note_on,,59,0,12,,,,,,,,,,,,,,,,15,,69,0
114960,note_on,,1,0,5,,,,,,,,,,,,,,,,2,,62,48
114960,note_on,,1,0,11,,,,,,,,,,,,,,,,13,,62,48
114960,note_on,,1,0,7,,,,,,,,,,,,,,,,8,,62,72
114960,note_on,,0,0,12,,,,,,,,,,,,,,,,15,,62,48
114960,note_on,,0,0,12,,,,,,,,,,,,,,,,15,,74,48
114960,note_on,,1,0,6,,,,,,,,,,,,,,,,3,,78,64
114960,note_on,,1,0,12,,,,,,,,,,,,,,,,15,,66,48
115019,note_on,,59,0,11,,,,,,,,,,,,,,,,13,,62,0
115019,note_on,,59,0,6,,,,,,,,,,,,,,,,3,,78,0
115019,note_on,,59,0,12,,,,,,,,,,,,,,,,15,,62,0
115019,note_on,,59,0,5,,,,,,,,,,,,,,,,2,,62,0
115019,note_on,,59,0,7,,,,,,,,,,,,,,,,8,,62,0
115020,note_on,,181,0,9,,,,,,,,,,,,,,,,11,,71,48
115020,note_on,,1,0,5,,,,,,,,,,,,,,,,2,,59,48
115020,note_on,,1,0,11,,,,,,,,,,,,,,,,13,,59,48
115020,note_on,,181,0,8,,,,,,,,,,,,,,,,10,,74,48
115020,note_on,,1,0,12,,,,,,,,,,,,,,,,15,,59,48
115020,note_on,,1,0,6,,,,,,,,,,,,,,,,3,,74,64
115020,note_on,,181,0,10,,,,,,,,,,,,,,,,12,,66,48
115020,note_on,,1,0,7,,,,,,,,,,,,,,,,8,,59,72
115079,note_on,,59,0,6,,,,,,,,,,,,,,,,3,,74,0
115079,note_on,,59,0,11,,,,,,,,,,,,,,,,13,,59,0
115079,note_on,,59,0,9,,,,,,,,,,,,,,,,11,,71,0
115079,note_on,,0,0,12,,,,,,,,,,,,,,,,15,,74,0
115079,note_on,,59,0,7,,,,,,,,,,,,,,,,8,,59,0
115079,note_on,,0,0,12,,,,,,,,,,,,,,,,15,,59,0
115079,note_on,,59,0,8,,,,,,,,,,,,,,,,10,,74,0
115079,note_on,,59,0,12,,,,,,,,,,,,,,,,15,,66,0
115079,note_on,,59,0,10,,,,,,,,,,,,,,,,12,,66,0
115079,note_on,,59,0,5,,,,,,,,,,,,,,,,2,,59,0
115080,note_on,,1,0,11,,,,,,,,,,,,,,,,13,,64,48
115080,note_on,,0,0,12,,,,,,,,,,,,,,,,15,,67,48
115080,note_on,,1,0,7,,,,,,,,,,,,,,,,8,,64,72
115080,note_on,,1,0,8,,,,,,,,,,,,,,,,10,,79,48
115080,note_on,,1,0,9,,,,,,,,,,,,,,,,11,,71,48
115080,note_on,,1,0,10,,,,,,,,,,,,,,,,12,,67,48
115080,note_on,,1,0,6,,,,,,,,,,,,,,,,3,,79,64
115080,note_on,,0,0,12,,,,,,,,,,,,,,,,15,,71,48
115080,note_on,,1,0,5,,,,,,,,,,,,,,,,2,,64,48
115080,note_on,,1,0,12,,,,,,,,,,,,,,,,15,,64,48
115139,note_on,,59,0,12,,,,,,,,,,,,,,,,15,,64,0
115139,note_on,,59,0,11,,,,,,,,,,,,,,,,13,,64,0
115139,note_on,,59,0,7,,,,,,,,,,,,,,,,8,,64,0
115139,note_on,,59,0,5,,,,,,,,,,,,,,,,2,,64,0
115139,note_on,,59,0,8,,,,,,,,,,,,,,,,10,,79,0
115140,note_on,,1,0,12,,,,,,,,,,,,,,,,15,,62,48
115140,note_on,,1,0,5,,,,,,,,,,,,,,,,2,,62,48
115140,note_on,,1,0,8,,,,,,,,,,,,,,,,10,,78,48
115140,note_on,,1,0,11,,,,,,,,,,,,,,,,13,,62,48
115140,note_on,,1,0,7,,,,,,,,,,,,,,,,8,,62,72
115199,note_on,,0,0,12,,,,,,,,,,,,,,,,15,,67,0
115199,note_on,,59,0,12,,,,,,,,,,,,,,,,15,,71,0
115199,note_on,,59,0,8,,,,,,,,,,,,,,,,10,,78,0
115199,note_on,,0,0,12,,,,,,,,,,,,,,,,15,,62,0
115199,note_on,,59,0,5,,,,,,,,,,,,,,,,2,,62,0
115199,note_on,,119,0,9,,,,,,,,,,,,,,,,11,,71,0
115199,note_on,,59,0,11,,,,,,,,,,,,,,,,13,,62,0
115199,note_on,,59,0,7,,,,,,,,,,,,,,,,8,,62,0
115200,note_on,,1,0,12,,,,,,,,,,,,,,,,15,,76,48
115200,note_on,,0,0,12,,,,,,,,,,,,,,,,15,,67,48
115200,note_on,,0,0,12,,,,,,,,,,,,,,,,15,,61,48
115200,note_on,,1,0,7,,,,,,,,,,,,,,,,8,,61,72
115200,note_on,,1,0,8,,,,,,,,,,,,,,,,10,,76,48
115200,note_on,,1,0,9,,,,,,,,,,,,,,,,11,,73,48
115200,note_on,,1,0,11,,,,,,,,,,,,,,,,13,,61,48
115200,note_on,,1,0,5,,,,,,,,,,,,,,,,2,,61,48
115259,note_on,,179,0,10,,,,,,,,,,,,,,,,12,,67,0
115259,note_on,,59,0,12,,,,,,,,,,,,,,,,15,,61,0
115259,note_on,,179,0,6,,,,,,,,,,,,,,,,3,,79,0
115259,note_on,,59,0,5,,,,,,,,,,,,,,,,2,,61,0
115259,note_on,,59,0,11,,,,,,,,,,,,,,,,13,,61,0
115259,note_on,,59,0,7,,,,,,,,,,,,,,,,8,,61,0
115259,note_on,,59,0,9,,,,,,,,,,,,,,,,11,,73,0
115259,note_on,,59,0,8,,,,,,,,,,,,,,,,10,,76,0
115260,note_on,,1,0,12,,,,,,,,,,,,,,,,15,,59,48
115260,note_on,,1,0,6,,,,,,,,,,,,,,,,3,,79,64
115260,note_on,,1,0,11,,,,,,,,,,,,,,,,13,,59,48
115260,note_on,,1,0,8,,,,,,,,,,,,,,,,10,,74,48
115260,note_on,,1,0,7,,,,,,,,,,,,,,,,8,,59,72
115260,note_on,,1,0,10,,,,,,,,,,,,,,,,12,,67,48
115260,note_on,,1,0,9,,,,,,,,,,,,,,,,11,,74,48
115260,note_on,,1,0,5,,,,,,,,,,,,,,,,2,,59,48
115319,note_on,,59,0,11,,,,,,,,,,,,,,,,13,,59,0
115319,note_on,,59,0,8,,,,,,,,,,,,,,,,10,,74,0
115319,note_on,,59,0,10,,,,,,,,,,,,,,,,12,,67,0
115319,note_on,,59,0,9,,,,,,,,,,,,,,,,11,,74,0
115319,note_on,,59,0,12,,,,,,,,,,,,,,,,15,,76,0
115319,note_on,,0,0,12,,,,,,,,,,,,,,,,15,,67,0
115319,note_on,,0,0,12,,,,,,,,,,,,,,,,15,,59,0
115319,note_on,,59,0,6,,,,,,,,,,,,,,,,3,,79,0
115319,note_on,,59,0,5,,,,,,,,,,,,,,,,2,,59,0
115319,note_on,,59,0,7,,,,,,,,,,,,,,,,8,,59,0
115320,note_on,,1,0,5,,,,,,,,,,,,,,,,2,,57,48
115320,note_on,,1,0,11,,,,,,,,,,,,,,,,13,,57,48
115320,note_on,,1,0,8,,,,,,,,,,,,,,,,10,,85,48
115320,note_on,,1,0,10,,,,,,,,,,,,,,,,12,,61,48
115320,note_on,,1,0,9,,,,,,,,,,,,,,,,11,,76,48
115320,note_on,,1,0,6,,,,,,,,,,,,,,,,3,,79,64
115320,note_on,,0,0,12,,,,,,,,,,,,,,,,15,,69,48
115320,note_on,,0,0,12,,,,,,,,,,,,,,,,15,,64,48
115320,note_on,,1,0,7,,,,,,,,,,,,,,,,8,,57,72
115320,note_on,,0,0,12,,,,,,,,,,,,,,,,15,,79,48
115320,note_on,,0,0,12,,,,,,,,,,,,,,,,15,,57,48
115320,note_on,,1,0,12,,,,,,,,,,,,,,,,15,,73,48
115334,note_on,,14,0,8,,,,,,,,,,,,,,,,10,,85,0
115335,note_on,,1,0,8,,,,,,,,,,,,,,,,10,,86,48
115349,note_on,,14,0,8,,,,,,,,,,,,,,,,10,,86,0
115350,note_on,,1,0,8,,,,,,,,,,,,,,,,10,,85,48
115364,note_on,,14,0,8,,,,,,,,,,,,,,,,10,,85,0
115365,note_on,,1,0,8,,,,,,,,,,,,,,,,10,,86,48
115379,note_on,,14,0,8,,,,,,,,,,,,,,,,10,,86,0
115380,note_on,,1,0,8,,,,,,,,,,,,,,,,10,,85,48
115394,note_on,,14,0,8,,,,,,,,,,,,,,,,10,,85,0
115395,note_on,,1,0,8,,,,,,,,,,,,,,,,10,,86,48
115409,note_on,,14,0,8,,,,,,,,,,,,,,,,10,,86,0
115410,note_on,,1,0,8,,,,,,,,,,,,,,,,10,,85,48
115424,note_on,,14,0,8,,,,,,,,,,,,,,,,10,,85,0
115425,note_on,,1,0,8,,,,,,,,,,,,,,,,10,,86,48
115439,note_on,,14,0,8,,,,,,,,,,,,,,,,10,,86,0
115440,note_on,,1,0,8,,,,,,,,,,,,,,,,10,,85,48
115454,note_on,,14,0,8,,,,,,,,,,,,,,,,10,,85,0
115455,note_on,,1,0,8,,,,,,,,,,,,,,,,10,,86,48
115469,note_on,,14,0,8,,,,,,,,,,,,,,,,10,,86,0
115470,note_on,,1,0,8,,,,,,,,,,,,,,,,10,,83,48
115484,note_on,,14,0,8,,,,,,,,,,,,,,,,10,,83,0
115485,note_on,,1,0,8,,,,,,,,,,,,,,,,10,,85,48
115499,note_on,,14,0,8,,,,,,,,,,,,,,,,10,,85,0
115499,note_on,,179,0,6,,,,,,,,,,,,,,,,3,,79,0
115500,note_on,,1,0,6,,,,,,,,,,,,,,,,3,,81,64
115500,note_on,,1,0,8,,,,,,,,,,,,,,,,10,,83,48
115529,note_on,,29,0,8,,,,,,,,,,,,,,,,10,,83,0
115530,note_on,,1,0,8,,,,,,,,,,,,,,,,10,,85,48
115559,note_on,,59,0,6,,,,,,,,,,,,,,,,3,,81,0
115559,note_on,,29,0,8,,,,,,,,,,,,,,,,10,,85,0
115559,note_on,,239,0,7,,,,,,,,,,,,,,,,8,,57,0
115559,note_on,,0,0,12,,,,,,,,,,,,,,,,15,,69,0
115559,note_on,,239,0,12,,,,,,,,,,,,,,,,15,,73,0
115559,note_on,,0,0,12,,,,,,,,,,,,,,,,15,,57,0
115559,note_on,,239,0,9,,,,,,,,,,,,,,,,11,,76,0
115559,note_on,,0,0,12,,,,,,,,,,,,,,,,15,,79,0
115559,note_on,,0,0,12,,,,,,,,,,,,,,,,15,,64,0
115559,note_on,,239,0,5,,,,,,,,,,,,,,,,2,,57,0
115559,note_on,,239,0,10,,,,,,,,,,,,,,,,12,,61,0
115559,note_on,,239,0,11,,,,,,,,,,,,,,,,13,,57,0
115560,note_on,,1,0,11,,,,,,,,,,,,,,,,13,,59,48
115560,note_on,,1,0,12,,,,,,,,,,,,,,,,15,,62,48
115560,note_on,,0,0,12,,,,,,,,,,,,,,,,15,,59,48
115560,note_on,,0,0,12,,,,,,,,,,,,,,,,15,,74,48
115560,note_on,,1,0,6,,,,,,,,,,,,,,,,3,,78,64
115560,note_on,,0,0,12,,,,,,,,,,,,,,,,15,,66,48
115560,note_on,,1,0,8,,,,,,,,,,,,,,,,10,,86,48
115560,note_on,,1,0,7,,,,,,,,,,,,,,,,8,,59,72
115560,note_on,,1,0,9,,,,,,,,,,,,,,,,11,,74,48
115560,note_on,,1,0,10,,,,,,,,,,,,,,,,12,,66,48
115560,note_on,,0,0,12,,,,,,,,,,,,,,,,15,,78,48
115560,note_on,,1,0,5,,,,,,,,,,,,,,,,2,,59,48
115679,note_on,,119,0,8,,,,,,,,,,,,,,,,10,,86,0
115679,note_on,,119,0,10,,,,,,,,,,,,,,,,12,,66,0
115679,note_on,,0,0,12,,,,,,,,,,,,,,,,15,,74,0
115679,note_on,,119,0,9,,,,,,,,,,,,,,,,11,,74,0
115679,note_on,,119,0,5,,,,,,,,,,,,,,,,2,,59,0
115679,note_on,,0,0,12,,,,,,,,,,,,,,,,15,,78,0
115679,note_on,,0,0,12,,,,,,,,,,,,,,,,15,,66,0
115679,note_on,,0,0,12,,,,,,,,,,,,,,,,15,,59,0
115679,note_on,,119,0,7,,,,,,,,,,,,,,,,8,,59,0
115679,note_on,,119,0,12,,,,,,,,,,,,,,,,15,,62,0
115679,note_on,,119,0,6,,,,,,,,,,,,,,,,3,,78,0
115679,note_on,,119,0,11,,,,,,,,,,,,,,,,13,,59,0
115680,note_on,,0,0,12,,,,,,,,,,,,,,,,15,,67,48
115680,note_on,,0,0,12,,,,,,,,,,,,,,,,15,,59,48
115680,note_on,,0,0,12,,,,,,,,,,,,,,,,15,,55,48
115680,note_on,,1,0,12,,,,,,,,,,,,,,,,15,,71,48
115680,note_on,,1,0,6,,,,,,,,,,,,,,,,3,,79,64
115680,note_on,,1,0,5,,,,,,,,,,,,,,,,2,,55,48
115680,note_on,,1,0,11,,,,,,,,,,,,,,,,13,,55,48
115680,note_on,,1,0,7,,,,,,,,,,,,,,,,8,,55,72
115680,note_on,,0,0,12,,,,,,,,,,,,,,,,15,,76,48
115799,note_on,,119,0,5,,,,,,,,,,,,,,,,2,,55,0
115799,note_on,,0,0,12,,,,,,,,,,,,,,,,15,,67,0
115799,note_on,,119,0,11,,,,,,,,,,,,,,,,13,,55,0
115799,note_on,,119,0,12,,,,,,,,,,,,,,,,15,,71,0
115799,note_on,,0,0,12,,,,,,,,,,,,,,,,15,,76,0
115799,note_on,,0,0,12,,,,,,,,,,,,,,,,15,,55,0
115799,note_on,,0,0,12,,,,,,,,,,,,,,,,15,,59,0
115799,note_on,,119,0,7,,,,,,,,,,,,,,,,8,,55,0
115799,note_on,,119,0,6,,,,,,,,,,,,,,,,3,,79,0
115800,note_on,,1,0,7,,,,,,,,,,,,,,,,8,,57,72
115800,note_on,,1,0,11,,,,,,,,,,,,,,,,13,,57,48
115800,note_on,,1,0,6,,,,,,,,,,,,,,,,3,,76,64
115800,note_on,,1,0,5,,,,,,,,,,,,,,,,2,,57,48
115800,note_on,,0,0,12,,,,,,,,,,,,,,,,15,,73,48
115800,note_on,,1,0,12,,,,,,,,,,,,,,,,15,,61,48
115800,note_on,,0,0,12,,,,,,,,,,,,,,,,15,,57,48
115800,note_on,,0,0,12,,,,,,,,,,,,,,,,15,,64,48
115800,note_on,,0,0,12,,,,,,,,,,,,,,,,15,,69,48
115814,note_on,,14,0,6,,,,,,,,,,,,,,,,3,,76,0
115815,note_on,,1,0,6,,,,,,,,,,,,,,,,3,,78,64
115829,note_on,,14,0,6,,,,,,,,,,,,,,,,3,,78,0
115830,note_on,,1,0,6,,,,,,,,,,,,,,,,3,,76,64
115844,note_on,,14,0,6,,,,,,,,,,,,,,,,3,,76,0
115845,note_on,,1,0,6,,,,,,,,,,,,,,,,3,,78,64
115859,note_on,,14,0,6,,,,,,,,,,,,,,,,3,,78,0
115860,note_on,,1,0,6,,,,,,,,,,,,,,,,3,,76,64
115874,note_on,,14,0,6,,,,,,,,,,,,,,,,3,,76,0
115875,note_on,,1,0,6,,,,,,,,,,,,,,,,3,,78,64
115889,note_on,,14,0,6,,,,,,,,,,,,,,,,3,,78,0
115890,note_on,,1,0,6,,,,,,,,,,,,,,,,3,,76,64
115904,note_on,,14,0,6,,,,,,,,,,,,,,,,3,,76,0
115905,note_on,,1,0,6,,,,,,,,,,,,,,,,3,,78,64
115919,note_on,,119,0,7,,,,,,,,,,,,,,,,8,,57,0
115919,note_on,,119,0,12,,,,,,,,,,,,,,,,15,,61,0
115919,note_on,,0,0,12,,,,,,,,,,,,,,,,15,,57,0
115919,note_on,,119,0,11,,,,,,,,,,,,,,,,13,,57,0
115919,note_on,,14,0,6,,,,,,,,,,,,,,,,3,,78,0
115919,note_on,,119,0,5,,,,,,,,,,,,,,,,2,,57,0
115920,note_on,,1,0,5,,,,,,,,,,,,,,,,2,,45,48
115920,note_on,,1,0,7,,,,,,,,,,,,,,,,8,,45,72
115920,note_on,,1,0,6,,,,,,,,,,,,,,,,3,,76,64
115920,note_on,,1,0,12,,,,,,,,,,,,,,,,15,,57,48
115920,note_on,,1,0,11,,,,,,,,,,,,,,,,13,,45,48
115920,note_on,,0,0,12,,,,,,,,,,,,,,,,15,,45,48
115934,note_on,,14,0,6,,,,,,,,,,,,,,,,3,,76,0
115935,note_on,,1,0,6,,,,,,,,,,,,,,,,3,,78,64
115949,note_on,,14,0,6,,,,,,,,,,,,,,,,3,,78,0
115950,note_on,,1,0,6,,,,,,,,,,,,,,,,3,,74,64
115964,note_on,,14,0,6,,,,,,,,,,,,,,,,3,,74,0
115965,note_on,,1,0,6,,,,,,,,,,,,,,,,3,,76,64
115979,note_on,,14,0,6,,,,,,,,,,,,,,,,3,,76,0
115980,note_on,,1,0,6,,,,,,,,,,,,,,,,3,,74,64
116039,note_on,,119,0,12,,,,,,,,,,,,,,,,15,,73,0
116039,note_on,,0,0,12,,,,,,,,,,,,,,,,15,,64,0
116039,note_on,,0,0,12,,,,,,,,,,,,,,,,15,,69,0
116039,note_on,,0,0,12,,,,,,,,,,,,,,,,15,,57,0
116039,note_on,,0,0,12,,,,,,,,,,,,,,,,15,,45,0
116039,note_on,,119,0,5,,,,,,,,,,,,,,,,2,,45,0
116039,note_on,,59,0,6,,,,,,,,,,,,,,,,3,,74,0
116039,note_on,,119,0,11,,,,,,,,,,,,,,,,13,,45,0
116039,note_on,,119,0,7,,,,,,,,,,,,,,,,8,,45,0
116040,note_on,,1,0,12,,,,,,,,,,,,,,,,15,,62,48
116040,note_on,,1,0,11,,,,,,,,,,,,,,,,13,,47,48
116040,set_tempo,,39240,1,0,,,,,,,,,1200000,,,,,,,,,,
116040,note_on,,1,0,7,,,,,,,,,,,,,,,,8,,47,72
116040,note_on,,1,0,6,,,,,,,,,,,,,,,,3,,74,64
116040,note_on,,0,0,12,,,,,,,,,,,,,,,,15,,66,48
116040,note_on,,0,0,12,,,,,,,,,,,,,,,,15,,47,48
116040,note_on,,0,0,12,,,,,,,,,,,,,,,,15,,74,48
116040,note_on,,0,0,12,,,,,,,,,,,,,,,,15,,50,48
116040,note_on,,1,0,5,,,,,,,,,,,,,,,,2,,47,48
116399,note_on,,0,0,12,,,,,,,,,,,,,,,,15,,50,0
116399,note_on,,0,0,12,,,,,,,,,,,,,,,,15,,74,0
116399,note_on,,0,0,12,,,,,,,,,,,,,,,,15,,47,0
116399,note_on,,0,0,12,,,,,,,,,,,,,,,,15,,66,0
116399,note_on,,359,0,12,,,,,,,,,,,,,,,,15,,62,0
116399,note_on,,359,0,11,,,,,,,,,,,,,,,,13,,47,0
116399,note_on,,359,0,7,,,,,,,,,,,,,,,,8,,47,0
116399,note_on,,359,0,5,,,,,,,,,,,,,,,,2,,47,0
116399,note_on,,359,0,6,,,,,,,,,,,,,,,,3,,74,0
116400,note_on,,0,0,12,,,,,,,,,,,,,,,,15,,67,48
116400,note_on,,1,0,5,,,,,,,,,,,,,,,,2,,55,48
116400,note_on,,1,0,11,,,,,,,,,,,,,,,,13,,55,48
116400,set_tempo,,360,1,0,,,,,,,,,1090909,,,,,,,,,,
116400,note_on,,1,0,7,,,,,,,,,,,,,,,,8,,55,72
116400,note_on,,1,0,12,,,,,,,,,,,,,,,,15,,55,48
116519,note_on,,119,0,11,,,,,,,,,,,,,,,,13,,55,0
116519,note_on,,119,0,5,,,,,,,,,,,,,,,,2,,55,0
116519,note_on,,119,0,12,,,,,,,,,,,,,,,,15,,55,0
116519,note_on,,119,0,7,,,,,,,,,,,,,,,,8,,55,0
116519,note_on,,0,0,12,,,,,,,,,,,,,,,,15,,67,0
116520,note_on,,1,0,5,,,,,,,,,,,,,,,,2,,57,48
116520,note_on,,1,0,12,,,,,,,,,,,,,,,,15,,57,48
116520,note_on,,1,0,11,,,,,,,,,,,,,,,,13,,57,48
116520,note_on,,0,0,12,,,,,,,,,,,,,,,,15,,69,48
116520,note_on,,1,0,7,,,,,,,,,,,,,,,,8,,57,72
116639,note_on,,119,0,11,,,,,,,,,,,,,,,,13,,57,0
116639,note_on,,0,0,12,,,,,,,,,,,,,,,,15,,69,0
116639,note_on,,119,0,5,,,,,,,,,,,,,,,,2,,57,0
116639,note_on,,119,0,12,,,,,,,,,,,,,,,,15,,57,0
116640,note_on,,0,0,12,,,,,,,,,,,,,,,,15,,69,48
116640,note_on,,0,0,12,,,,,,,,,,,,,,,,15,,52,48
116640,note_on,,1,0,5,,,,,,,,,,,,,,,,2,,45,48
116640,note_on,,0,0,12,,,,,,,,,,,,,,,,15,,45,48
116640,note_on,,1,0,11,,,,,,,,,,,,,,,,13,,45,48
116640,note_on,,0,0,12,,,,,,,,,,,,,,,,15,,73,48
116640,note_on,,1,0,12,,,,,,,,,,,,,,,,15,,64,48
116699,note_on,,179,0,7,,,,,,,,,,,,,,,,8,,57,0
116700,note_on,,1,0,7,,,,,,,,,,,,,,,,8,,57,72
116759,note_on,,119,0,12,,,,,,,,,,,,,,,,15,,64,0
116759,note_on,,119,0,11,,,,,,,,,,,,,,,,13,,45,0
116759,note_on,,119,0,5,,,,,,,,,,,,,,,,2,,45,0
116759,note_on,,59,0,7,,,,,,,,,,,,,,,,8,,57,0
116759,note_on,,0,0,12,,,,,,,,,,,,,,,,15,,73,0
116759,note_on,,0,0,12,,,,,,,,,,,,,,,,15,,52,0
116759,note_on,,0,0,12,,,,,,,,,,,,,,,,15,,69,0
116759,note_on,,0,0,12,,,,,,,,,,,,,,,,15,,45,0
116760,note_on,,1,0,12,,,,,,,,,,,,,,,,15,,74,48
116760,note_on,,1,0,5,,,,,,,,,,,,,,,,2,,38,48
116760,note_on,,0,0,12,,,,,,,,,,,,,,,,15,,66,48
116760,note_on,,0,0,12,,,,,,,,,,,,,,,,15,,38,48
116760,note_on,,0,0,12,,,,,,,,,,,,,,,,15,,69,48
116760,note_on,,1,0,11,,,,,,,,,,,,,,,,13,,38,48
116760,note_on,,0,0,12,,,,,,,,,,,,,,,,15,,50,48
116760,note_on,,1,0,7,,,,,,,,,,,,,,,,8,,50,72
116999,note_on,,0,0,12,,,,,,,,,,,,,,,,15,,69,0
116999,note_on,,0,0,12,,,,,,,,,,,,,,,,15,,38,0
116999,note_on,,0,0,12,,,,,,,,,,,,,,,,15,,66,0
116999,note_on,,0,0,12,,,,,,,,,,,,,,,,15,,50,0
116999,note_on,,239,0,12,,,,,,,,,,,,,,,,15,,74,0
116999,note_on,,239,0,11,,,,,,,,,,,,,,,,13,,38,0
116999,note_on,,239,0,5,,,,,,,,,,,,,,,,2,,38,0
117000,note_on,,0,0,12,,,,,,,,,,,,,,,,15,,50,72
117000,note_on,,0,0,12,,,,,,,,,,,,,,,,15,,69,72
117000,note_on,,1,0,12,,,,,,,,,,,,,,,,15,,66,72
117000,note_on,,1321,0,10,,,,,,,,,,,,,,,,12,,54,72
117000,note_on,,0,0,12,,,,,,,,,,,,,,,,15,,62,72
117000,set_tempo,,600,1,0,,,,,,,,,545454,,,,,,,,,,
117000,note_on,,1,0,11,,,,,,,,,,,,,,,,13,,50,72
117000,note_on,,1321,0,9,,,,,,,,,,,,,,,,11,,57,72
117000,note_on,,601,0,6,,,,,,,,,,,,,,,,3,,62,72
117000,note_on,,1321,0,8,,,,,,,,,,,,,,,,10,,62,72
117000,note_on,,1,0,5,,,,,,,,,,,,,,,,2,,50,72
117089,note_on,,89,0,9,,,,,,,,,,,,,,,,11,,57,0
117089,note_on,,89,0,10,,,,,,,,,,,,,,,,12,,54,0
117089,note_on,,89,0,5,,,,,,,,,,,,,,,,2,,50,0
117089,note_on,,89,0,11,,,,,,,,,,,,,,,,13,,50,0
117089,note_on,,89,0,6,,,,,,,,,,,,,,,,3,,62,0
117089,note_on,,89,0,8,,,,,,,,,,,,,,,,10,,62,0
117089,note_on,,89,0,12,,,,,,,,,,,,,,,,15,,50,0
117090,note_on,,1,0,6,,,,,,,,,,,,,,,,3,,62,72
117090,note_on,,1,0,11,,,,,,,,,,,,,,,,13,,50,72
117090,note_on,,1,0,8,,,,,,,,,,,,,,,,10,,62,72
117090,note_on,,1,0,9,,,,,,,,,,,,,,,,11,,57,72
117090,note_on,,1,0,10,,,,,,,,,,,,,,,,12,,54,72
117090,note_on,,1,0,12,,,,,,,,,,,,,,,,15,,50,72
117090,note_on,,1,0,5,,,,,,,,,,,,,,,,2,,50,72
117119,note_on,,29,0,5,,,,,,,,,,,,,,,,2,,50,0
117119,note_on,,29,0,12,,,,,,,,,,,,,,,,15,,66,0
117119,note_on,,29,0,10,,,,,,,,,,,,,,,,12,,54,0
117119,note_on,,29,0,6,,,,,,,,,,,,,,,,3,,62,0
117119,note_on,,29,0,8,,,,,,,,,,,,,,,,10,,62,0
117119,end_of_track,,0,1,7,,,,,,,,,,,,,,,,,,,
117119,note_on,,29,0,11,,,,,,,,,,,,,,,,13,,50,0
117119,note_on,,359,0,7,,,,,,,,,,,,,,,,8,,50,0
117119,note_on,,29,0,9,,,,,,,,,,,,,,,,11,,57,0
117119,note_on,,0,0,12,,,,,,,,,,,,,,,,15,,62,0
117119,note_on,,0,0,12,,,,,,,,,,,,,,,,15,,50,0
117119,note_on,,0,0,12,,,,,,,,,,,,,,,,15,,69,0
117120,note_on,,1,0,6,,,,,,,,,,,,,,,,3,,66,72
117120,note_on,,0,0,12,,,,,,,,,,,,,,,,15,,66,72
117120,note_on,,0,0,12,,,,,,,,,,,,,,,,15,,69,72
117120,note_on,,0,0,12,,,,,,,,,,,,,,,,15,,50,72
117120,note_on,,1,0,10,,,,,,,,,,,,,,,,12,,57,72
117120,note_on,,1,0,11,,,,,,,,,,,,,,,,13,,50,72
117120,note_on,,1,0,8,,,,,,,,,,,,,,,,10,,66,72
117120,note_on,,1,0,9,,,,,,,,,,,,,,,,11,,62,72
117120,note_on,,1,0,12,,,,,,,,,,,,,,,,15,,74,72
117120,note_on,,1,0,5,,,,,,,,,,,,,,,,2,,50,72
117239,note_on,,0,0,12,,,,,,,,,,,,,,,,15,,66,0
117239,note_on,,119,0,12,,,,,,,,,,,,,,,,15,,74,0
117239,note_on,,0,0,12,,,,,,,,,,,,,,,,15,,69,0
117299,note_on,,179,0,10,,,,,,,,,,,,,,,,12,,57,0
117299,note_on,,179,0,5,,,,,,,,,,,,,,,,2,,50,0
117299,note_on,,60,0,12,,,,,,,,,,,,,,,,15,,50,0
117299,note_on,,179,0,11,,,,,,,,,,,,,,,,13,,50,0
117299,note_on,,179,0,9,,,,,,,,,,,,,,,,11,,62,0
117299,note_on,,179,0,6,,,,,,,,,,,,,,,,3,,66,0
117299,note_on,,179,0,8,,,,,,,,,,,,,,,,10,,66,0
117300,note_on,,1,0,5,,,,,,,,,,,,,,,,2,,50,72
117300,note_on,,1,0,9,,,,,,,,,,,,,,,,11,,62,72
117300,note_on,,1,0,11,,,,,,,,,,,,,,,,13,,50,72
117300,note_on,,1,0,6,,,,,,,,,,,,,,,,3,,66,72
117300,note_on,,1,0,10,,,,,,,,,,,,,,,,12,,57,72
117300,note_on,,1,0,12,,,,,,,,,,,,,,,,15,,50,72
117300,note_on,,1,0,8,,,,,,,,,,,,,,,,10,,66,72
117359,note_on,,59,0,11,,,,,,,,,,,,,,,,13,,50,0
117359,note_on,,59,0,5,,,,,,,,,,,,,,,,2,,50,0
117359,note_on,,59,0,10,,,,,,,,,,,,,,,,12,,57,0
117359,note_on,,59,0,12,,,,,,,,,,,,,,,,15,,50,0
117359,note_on,,59,0,8,,,,,,,,,,,,,,,,10,,66,0
117359,note_on,,59,0,9,,,,,,,,,,,,,,,,11,,62,0
117359,note_on,,59,0,6,,,,,,,,,,,,,,,,3,,66,0
117360,note_on,,1,0,5,,,,,,,,,,,,,,,,2,,50,72
117360,note_on,,1,0,12,,,,,,,,,,,,,,,,15,,78,72
117360,note_on,,1,0,8,,,,,,,,,,,,,,,,10,,66,72
117360,note_on,,0,0,12,,,,,,,,,,,,,,,,15,,69,72
117360,note_on,,1,0,9,,,,,,,,,,,,,,,,11,,62,72
117360,note_on,,1,0,11,,,,,,,,,,,,,,,,13,,50,72
117360,note_on,,0,0,12,,,,,,,,,,,,,,,,15,,50,72
117360,note_on,,1,0,10,,,,,,,,,,,,,,,,12,,57,72
117360,note_on,,0,0,12,,,,,,,,,,,,,,,,15,,74,72
117360,note_on,,1,0,6,,,,,,,,,,,,,,,,3,,66,72
117449,note_on,,89,0,6,,,,,,,,,,,,,,,,3,,66,0
117449,note_on,,89,0,10,,,,,,,,,,,,,,,,12,,57,0
117449,note_on,,89,0,12,,,,,,,,,,,,,,,,15,,50,0
117449,note_on,,89,0,11,,,,,,,,,,,,,,,,13,,50,0
117449,note_on,,89,0,8,,,,,,,,,,,,,,,,10,,66,0
117449,note_on,,89,0,5,,,,,,,,,,,,,,,,2,,50,0
117449,note_on,,89,0,9,,,,,,,,,,,,,,,,11,,62,0
117450,note_on,,1,0,6,,,,,,,,,,,,,,,,3,,66,72
117450,note_on,,1,0,12,,,,,,,,,,,,,,,,15,,50,72
117450,note_on,,1,0,10,,,,,,,,,,,,,,,,12,,57,72
117450,note_on,,1,0,8,,,,,,,,,,,,,,,,10,,66,72
117450,note_on,,1,0,9,,,,,,,,,,,,,,,,11,,62,72
117450,note_on,,1,0,5,,,,,,,,,,,,,,,,2,,50,72
117450,note_on,,1,0,11,,,,,,,,,,,,,,,,13,,50,72
117479,note_on,,29,0,9,,,,,,,,,,,,,,,,11,,62,0
117479,note_on,,29,0,12,,,,,,,,,,,,,,,,15,,78,0
117479,note_on,,29,0,6,,,,,,,,,,,,,,,,3,,66,0
117479,note_on,,29,0,8,,,,,,,,,,,,,,,,10,,66,0
117479,note_on,,0,0,12,,,,,,,,,,,,,,,,15,,69,0
117479,note_on,,29,0,5,,,,,,,,,,,,,,,,2,,50,0
117479,note_on,,29,0,11,,,,,,,,,,,,,,,,13,,50,0
117479,note_on,,0,0,12,,,,,,,,,,,,,,,,15,,50,0
117479,note_on,,0,0,12,,,,,,,,,,,,,,,,15,,74,0
117479,note_on,,29,0,10,,,,,,,,,,,,,,,,12,,57,0
117480,note_on,,1,0,6,,,,,,,,,,,,,,,,3,,69,72
117480,note_on,,1,0,9,,,,,,,,,,,,,,,,11,,64,72
117480,note_on,,1,0,5,,,,,,,,,,,,,,,,2,,49,72
117480,note_on,,1,0,12,,,,,,,,,,,,,,,,15,,76,72
117480,note_on,,0,0,12,,,,,,,,,,,,,,,,15,,64,72
117480,note_on,,1,0,11,,,,,,,,,,,,,,,,13,,49,72
117480,note_on,,0,0,12,,,,,,,,,,,,,,,,15,,69,72
117480,note_on,,0,0,12,,,,,,,,,,,,,,,,15,,49,72
117480,note_on,,1,0,10,,,,,,,,,,,,,,,,12,,57,72
117480,note_on,,1,0,8,,,,,,,,,,,,,,,,10,,69,72
117599,note_on,,119,0,12,,,,,,,,,,,,,,,,15,,76,0
117599,note_on,,0,0,12,,,,,,,,,,,,,,,,15,,69,0
117599,note_on,,0,0,12,,,,,,,,,,,,,,,,15,,64,0
117659,note_on,,179,0,8,,,,,,,,,,,,,,,,10,,69,0
117659,note_on,,179,0,11,,,,,,,,,,,,,,,,13,,49,0
117659,note_on,,179,0,5,,,,,,,,,,,,,,,,2,,49,0
117659,note_on,,60,0,12,,,,,,,,,,,,,,,,15,,49,0
117659,note_on,,179,0,6,,,,,,,,,,,,,,,,3,,69,0
117659,note_on,,179,0,10,,,,,,,,,,,,,,,,12,,57,0
117659,note_on,,179,0,9,,,,,,,,,,,,,,,,11,,64,0
117660,note_on,,1,0,5,,,,,,,,,,,,,,,,2,,49,72
117660,note_on,,1,0,6,,,,,,,,,,,,,,,,3,,69,72
117660,note_on,,1,0,9,,,,,,,,,,,,,,,,11,,64,72
117660,note_on,,1,0,10,,,,,,,,,,,,,,,,12,,57,72
117660,note_on,,1,0,8,,,,,,,,,,,,,,,,10,,69,72
117660,note_on,,1,0,11,,,,,,,,,,,,,,,,13,,49,72
117660,note_on,,1,0,12,,,,,,,,,,,,,,,,15,,49,72
117719,note_on,,59,0,12,,,,,,,,,,,,,,,,15,,49,0
117719,note_on,,59,0,11,,,,,,,,,,,,,,,,13,,49,0
117719,note_on,,59,0,10,,,,,,,,,,,,,,,,12,,57,0
117719,note_on,,59,0,5,,,,,,,,,,,,,,,,2,,49,0
117719,note_on,,59,0,6,,,,,,,,,,,,,,,,3,,69,0
117719,note_on,,59,0,9,,,,,,,,,,,,,,,,11,,64,0
117719,note_on,,59,0,8,,,,,,,,,,,,,,,,10,,69,0
117720,note_on,,0,0,12,,,,,,,,,,,,,,,,15,,64,72
117720,note_on,,0,0,12,,,,,,,,,,,,,,,,15,,61,72
117720,note_on,,0,0,12,,,,,,,,,,,,,,,,15,,69,72
117720,note_on,,1,0,12,,,,,,,,,,,,,,,,15,,49,72
117720,note_on,,1,0,5,,,,,,,,,,,,,,,,2,,49,72
117720,note_on,,1,0,9,,,,,,,,,,,,,,,,11,,64,72
117720,note_on,,1,0,11,,,,,,,,,,,,,,,,13,,49,72
117720,note_on,,1,0,8,,,,,,,,,,,,,,,,10,,69,72
117720,note_on,,1,0,10,,,,,,,,,,,,,,,,12,,57,72
117720,note_on,,1,0,6,,,,,,,,,,,,,,,,3,,69,72
117809,note_on,,89,0,11,,,,,,,,,,,,,,,,13,,49,0
117809,note_on,,89,0,9,,,,,,,,,,,,,,,,11,,64,0
117809,note_on,,89,0,8,,,,,,,,,,,,,,,,10,,69,0
117809,note_on,,89,0,12,,,,,,,,,,,,,,,,15,,49,0
117809,note_on,,89,0,5,,,,,,,,,,,,,,,,2,,49,0
117809,note_on,,89,0,10,,,,,,,,,,,,,,,,12,,57,0
117809,note_on,,89,0,6,,,,,,,,,,,,,,,,3,,69,0
117810,note_on,,1,0,12,,,,,,,,,,,,,,,,15,,49,72
117810,note_on,,1,0,5,,,,,,,,,,,,,,,,2,,49,72
117810,note_on,,1,0,9,,,,,,,,,,,,,,,,11,,64,72
117810,note_on,,1,0,8,,,,,,,,,,,,,,,,10,,69,72
117810,note_on,,1,0,10,,,,,,,,,,,,,,,,12,,57,72
117810,note_on,,1,0,6,,,,,,,,,,,,,,,,3,,69,72
117810,note_on,,1,0,11,,,,,,,,,,,,,,,,13,,49,72
117839,note_on,,29,0,9,,,,,,,,,,,,,,,,11,,64,0
117839,note_on,,29,0,8,,,,,,,,,,,,,,,,10,,69,0
117839,note_on,,29,0,5,,,,,,,,,,,,,,,,2,,49,0
117839,note_on,,29,0,11,,,,,,,,,,,,,,,,13,,49,0
117839,note_on,,29,0,10,,,,,,,,,,,,,,,,12,,57,0
117839,note_on,,29,0,6,,,,,,,,,,,,,,,,3,,69,0
117839,note_on,,0,0,12,,,,,,,,,,,,,,,,15,,49,0
117839,note_on,,0,0,12,,,,,,,,,,,,,,,,15,,64,0
117839,note_on,,0,0,12,,,,,,,,,,,,,,,,15,,61,0
117839,note_on,,29,0,12,,,,,,,,,,,,,,,,15,,69,0
117840,note_on,,1,0,6,,,,,,,,,,,,,,,,3,,74,72
117840,note_on,,1,0,10,,,,,,,,,,,,,,,,12,,54,72
117840,note_on,,0,0,12,,,,,,,,,,,,,,,,15,,74,72
117840,note_on,,1,0,8,,,,,,,,,,,,,,,,10,,74,72
117840,note_on,,0,0,12,,,,,,,,,,,,,,,,15,,47,72
117840,note_on,,0,0,12,,,,,,,,,,,,,,,,15,,71,72
117840,note_on,,1,0,12,,,,,,,,,,,,,,,,15,,66,72
117840,note_on,,1,0,9,,,,,,,,,,,,,,,,11,,66,72
117840,note_on,,1,0,11,,,,,,,,,,,,,,,,13,,47,72
117840,note_on,,1,0,5,,,,,,,,,,,,,,,,2,,47,72
118019,note_on,,179,0,8,,,,,,,,,,,,,,,,10,,74,0
118019,note_on,,179,0,9,,,,,,,,,,,,,,,,11,,66,0
118019,note_on,,179,0,12,,,,,,,,,,,,,,,,15,,47,0
118019,note_on,,179,0,10,,,,,,,,,,,,,,,,12,,54,0
118019,note_on,,179,0,11,,,,,,,,,,,,,,,,13,,47,0
118019,note_on,,179,0,6,,,,,,,,,,,,,,,,3,,74,0
118019,note_on,,179,0,5,,,,,,,,,,,,,,,,2,,47,0
118020,note_on,,1,0,5,,,,,,,,,,,,,,,,2,,47,72
118020,note_on,,1,0,9,,,,,,,,,,,,,,,,11,,67,72
118020,note_on,,1,0,8,,,,,,,,,,,,,,,,10,,76,72
118020,note_on,,1,0,10,,,,,,,,,,,,,,,,12,,62,72
118020,note_on,,1,0,6,,,,,,,,,,,,,,,,3,,76,72
118020,note_on,,1,0,12,,,,,,,,,,,,,,,,15,,47,72
118020,note_on,,1,0,11,,,,,,,,,,,,,,,,13,,47,72
118079,note_on,,59,0,6,,,,,,,,,,,,,,,,3,,76,0
118079,note_on,,0,0,12,,,,,,,,,,,,,,,,15,,47,0
118079,note_on,,0,0,12,,,,,,,,,,,,,,,,15,,74,0
118079,note_on,,0,0,12,,,,,,,,,,,,,,,,15,,71,0
118079,note_on,,59,0,12,,,,,,,,,,,,,,,,15,,66,0
118079,note_on,,59,0,8,,,,,,,,,,,,,,,,10,,76,0
118079,note_on,,59,0,11,,,,,,,,,,,,,,,,13,,47,0
118079,note_on,,59,0,5,,,,,,,,,,,,,,,,2,,47,0
118079,note_on,,59,0,9,,,,,,,,,,,,,,,,11,,67,0
118079,note_on,,59,0,10,,,,,,,,,,,,,,,,12,,62,0
118080,note_on,,1,0,11,,,,,,,,,,,,,,,,13,,45,72
118080,note_on,,1,0,12,,,,,,,,,,,,,,,,15,,45,72
118080,note_on,,1,0,9,,,,,,,,,,,,,,,,11,,66,72
118080,note_on,,1,0,5,,,,,,,,,,,,,,,,2,,45,72
118080,note_on,,1,0,8,,,,,,,,,,,,,,,,10,,78,72
118080,note_on,,1,0,6,,,,,,,,,,,,,,,,3,,78,72
118080,note_on,,1,0,10,,,,,,,,,,,,,,,,12,,62,72
118139,note_on,,59,0,6,,,,,,,,,,,,,,,,3,,78,0
118139,note_on,,59,0,11,,,,,,,,,,,,,,,,13,,45,0
118139,note_on,,59,0,10,,,,,,,,,,,,,,,,12,,62,0
118139,note_on,,59,0,9,,,,,,,,,,,,,,,,11,,66,0
118139,note_on,,59,0,5,,,,,,,,,,,,,,,,2,,45,0
118139,note_on,,59,0,12,,,,,,,,,,,,,,,,15,,45,0
118139,note_on,,59,0,8,,,,,,,,,,,,,,,,10,,78,0
118140,note_on,,1,0,9,,,,,,,,,,,,,,,,11,,64,72
118140,note_on,,1,0,12,,,,,,,,,,,,,,,,15,,43,72
118140,note_on,,1,0,10,,,,,,,,,,,,,,,,12,,64,72
118140,note_on,,1,0,11,,,,,,,,,,,,,,,,13,,43,72
118140,note_on,,1,0,6,,,,,,,,,,,,,,,,3,,79,72
118140,note_on,,1,0,8,,,,,,,,,,,,,,,,10,,79,72
118140,note_on,,1,0,5,,,,,,,,,,,,,,,,2,,43,72
118199,note_on,,59,0,9,,,,,,,,,,,,,,,,11,,64,0
118199,note_on,,59,0,10,,,,,,,,,,,,,,,,12,,64,0
118199,note_on,,59,0,6,,,,,,,,,,,,,,,,3,,79,0
118199,note_on,,59,0,8,,,,,,,,,,,,,,,,10,,79,0
118199,note_on,,59,0,11,,,,,,,,,,,,,,,,13,,43,0
118199,note_on,,59,0,5,,,,,,,,,,,,,,,,2,,43,0
118199,note_on,,59,0,12,,,,,,,,,,,,,,,,15,,43,0
118200,note_on,,1,0,5,,,,,,,,,,,,,,,,2,,42,72
118200,note_on,,1,0,9,,,,,,,,,,,,,,,,11,,62,72
118200,note_on,,0,0,12,,,,,,,,,,,,,,,,15,,81,72
118200,note_on,,0,0,12,,,,,,,,,,,,,,,,15,,42,72
118200,note_on,,1,0,8,,,,,,,,,,,,,,,,10,,81,72
118200,note_on,,0,0,12,,,,,,,,,,,,,,,,15,,78,72
118200,note_on,,1,0,6,,,,,,,,,,,,,,,,3,,81,72
118200,note_on,,1,0,12,,,,,,,,,,,,,,,,15,,69,72
118200,note_on,,1,0,10,,,,,,,,,,,,,,,,12,,54,72
118200,note_on,,1,0,11,,,,,,,,,,,,,,,,13,,42,72
118200,note_on,,0,0,12,,,,,,,,,,,,,,,,15,,74,72
118379,note_on,,179,0,6,,,,,,,,,,,,,,,,3,,81,0
118379,note_on,,179,0,10,,,,,,,,,,,,,,,,12,,54,0
118379,note_on,,179,0,12,,,,,,,,,,,,,,,,15,,42,0
118379,note_on,,179,0,9,,,,,,,,,,,,,,,,11,,62,0
118379,note_on,,179,0,11,,,,,,,,,,,,,,,,13,,42,0
118379,note_on,,179,0,5,,,,,,,,,,,,,,,,2,,42,0
118379,note_on,,179,0,8,,,,,,,,,,,,,,,,10,,81,0
118380,note_on,,1,0,10,,,,,,,,,,,,,,,,12,,62,72
118380,note_on,,1,0,12,,,,,,,,,,,,,,,,15,,54,72
118380,note_on,,1,0,5,,,,,,,,,,,,,,,,2,,54,72
118380,note_on,,1,0,9,,,,,,,,,,,,,,,,11,,69,72
118380,note_on,,1,0,11,,,,,,,,,,,,,,,,13,,54,72
118380,note_on,,1,0,8,,,,,,,,,,,,,,,,10,,79,72
118380,note_on,,1,0,6,,,,,,,,,,,,,,,,3,,79,72
118439,note_on,,59,0,12,,,,,,,,,,,,,,,,15,,69,0
118439,note_on,,0,0,12,,,,,,,,,,,,,,,,15,,74,0
118439,note_on,,0,0,12,,,,,,,,,,,,,,,,15,,78,0
118439,note_on,,0,0,12,,,,,,,,,,,,,,,,15,,81,0
118439,note_on,,0,0,12,,,,,,,,,,,,,,,,15,,54,0
118439,note_on,,59,0,11,,,,,,,,,,,,,,,,13,,54,0
118439,note_on,,59,0,10,,,,,,,,,,,,,,,,12,,62,0
118439,note_on,,59,0,8,,,,,,,,,,,,,,,,10,,79,0
118439,note_on,,59,0,9,,,,,,,,,,,,,,,,11,,69,0
118439,note_on,,59,0,5,,,,,,,,,,,,,,,,2,,54,0
118439,note_on,,59,0,6,,,,,,,,,,,,,,,,3,,79,0
118440,note_on,,1,0,6,,,,,,,,,,,,,,,,3,,78,72
118440,note_on,,1,0,10,,,,,,,,,,,,,,,,12,,62,72
118440,note_on,,1,0,5,,,,,,,,,,,,,,,,2,,55,72
118440,note_on,,1,0,8,,,,,,,,,,,,,,,,10,,78,72
118440,note_on,,1,0,11,,,,,,,,,,,,,,,,13,,55,72
118440,note_on,,1,0,9,,,,,,,,,,,,,,,,11,,71,72
118440,note_on,,1,0,12,,,,,,,,,,,,,,,,15,,55,72
118499,note_on,,59,0,12,,,,,,,,,,,,,,,,15,,55,0
118499,note_on,,59,0,5,,,,,,,,,,,,,,,,2,,55,0
118499,note_on,,59,0,11,,,,,,,,,,,,,,,,13,,55,0
118499,note_on,,59,0,10,,,,,,,,,,,,,,,,12,,62,0
118499,note_on,,59,0,9,,,,,,,,,,,,,,,,11,,71,0
118499,note_on,,59,0,6,,,,,,,,,,,,,,,,3,,78,0
118499,note_on,,59,0,8,,,,,,,,,,,,,,,,10,,78,0
118500,note_on,,1,0,12,,,,,,,,,,,,,,,,15,,57,72
118500,note_on,,1,0,10,,,,,,,,,,,,,,,,12,,61,72
118500,note_on,,1,0,6,,,,,,,,,,,,,,,,3,,76,72
118500,note_on,,1,0,8,,,,,,,,,,,,,,,,10,,76,72
118500,note_on,,1,0,11,,,,,,,,,,,,,,,,13,,57,72
118500,note_on,,1,0,9,,,,,,,,,,,,,,,,11,,73,72
118500,note_on,,1,0,5,,,,,,,,,,,,,,,,2,,57,72
118559,note_on,,59,0,9,,,,,,,,,,,,,,,,11,,73,0
118559,note_on,,59,0,5,,,,,,,,,,,,,,,,2,,57,0
118559,note_on,,59,0,6,,,,,,,,,,,,,,,,3,,76,0
118559,note_on,,59,0,11,,,,,,,,,,,,,,,,13,,57,0
118559,note_on,,59,0,8,,,,,,,,,,,,,,,,10,,76,0
118559,note_on,,59,0,12,,,,,,,,,,,,,,,,15,,57,0
118559,note_on,,59,0,10,,,,,,,,,,,,,,,,12,,61,0
118560,note_on,,1,0,10,,,,,,,,,,,,,,,,12,,59,72
118560,note_on,,1,0,5,,,,,,,,,,,,,,,,2,,59,72
118560,note_on,,0,0,12,,,,,,,,,,,,,,,,15,,66,72
118560,note_on,,0,0,12,,,,,,,,,,,,,,,,15,,71,72
118560,note_on,,1,0,8,,,,,,,,,,,,,,,,10,,74,72
118560,note_on,,1,0,11,,,,,,,,,,,,,,,,13,,59,72
118560,note_on,,1,0,9,,,,,,,,,,,,,,,,11,,66,72
118560,note_on,,1,0,6,,,,,,,,,,,,,,,,3,,74,72
118560,note_on,,1,0,12,,,,,,,,,,,,,,,,15,,74,72
118560,note_on,,0,0,12,,,,,,,,,,,,,,,,15,,59,72
118619,note_on,,59,0,5,,,,,,,,,,,,,,,,2,,59,0
118619,note_on,,59,0,11,,,,,,,,,,,,,,,,13,,59,0
118619,note_on,,59,0,12,,,,,,,,,,,,,,,,15,,59,0
118620,note_on,,1,0,5,,,,,,,,,,,,,,,,2,,61,72
118620,note_on,,1,0,11,,,,,,,,,,,,,,,,13,,61,72
118620,note_on,,1,0,12,,,,,,,,,,,,,,,,15,,61,72
118679,note_on,,59,0,5,,,,,,,,,,,,,,,,2,,61,0
118679,note_on,,59,0,12,,,,,,,,,,,,,,,,15,,61,0
118679,note_on,,59,0,11,,,,,,,,,,,,,,,,13,,61,0
118680,note_on,,1,0,5,,,,,,,,,,,,,,,,2,,59,72
118680,note_on,,1,0,11,,,,,,,,,,,,,,,,13,,59,72
118680,note_on,,1,0,12,,,,,,,,,,,,,,,,15,,59,72
118739,note_on,,59,0,5,,,,,,,,,,,,,,,,2,,59,0
118739,note_on,,179,0,9,,,,,,,,,,,,,,,,11,,66,0
118739,note_on,,59,0,12,,,,,,,,,,,,,,,,15,,59,0
118739,note_on,,179,0,8,,,,,,,,,,,,,,,,10,,74,0
118739,note_on,,179,0,6,,,,,,,,,,,,,,,,3,,74,0
118739,note_on,,179,0,10,,,,,,,,,,,,,,,,12,,59,0
118739,note_on,,59,0,11,,,,,,,,,,,,,,,,13,,59,0
118740,note_on,,1,0,5,,,,,,,,,,,,,,,,2,,57,72
118740,note_on,,1,0,9,,,,,,,,,,,,,,,,11,,66,72
118740,note_on,,1,0,8,,,,,,,,,,,,,,,,10,,74,72
118740,note_on,,1,0,6,,,,,,,,,,,,,,,,3,,74,72
118740,note_on,,1,0,10,,,,,,,,,,,,,,,,12,,61,72
118740,note_on,,1,0,11,,,,,,,,,,,,,,,,13,,57,72
118740,note_on,,1,0,12,,,,,,,,,,,,,,,,15,,57,72
118799,note_on,,59,0,6,,,,,,,,,,,,,,,,3,,74,0
118799,note_on,,59,0,10,,,,,,,,,,,,,,,,12,,61,0
118799,note_on,,59,0,5,,,,,,,,,,,,,,,,2,,57,0
118799,note_on,,59,0,12,,,,,,,,,,,,,,,,15,,57,0
118799,note_on,,59,0,9,,,,,,,,,,,,,,,,11,,66,0
118799,note_on,,59,0,11,,,,,,,,,,,,,,,,13,,57,0
118799,note_on,,59,0,8,,,,,,,,,,,,,,,,10,,74,0
118800,note_on,,1,0,5,,,,,,,,,,,,,,,,2,,55,72
118800,note_on,,1,0,12,,,,,,,,,,,,,,,,15,,55,72
118800,note_on,,1,0,11,,,,,,,,,,,,,,,,13,,55,72
118800,note_on,,1,0,10,,,,,,,,,,,,,,,,12,,59,72
118800,note_on,,1,0,8,,,,,,,,,,,,,,,,10,,76,72
118800,note_on,,1,0,9,,,,,,,,,,,,,,,,11,,67,72
118800,note_on,,1,0,6,,,,,,,,,,,,,,,,3,,76,72
118859,note_on,,59,0,9,,,,,,,,,,,,,,,,11,,67,0
118859,note_on,,59,0,12,,,,,,,,,,,,,,,,15,,55,0
118859,note_on,,59,0,8,,,,,,,,,,,,,,,,10,,76,0
118859,note_on,,59,0,6,,,,,,,,,,,,,,,,3,,76,0
118859,note_on,,59,0,10,,,,,,,,,,,,,,,,12,,59,0
118859,note_on,,59,0,11,,,,,,,,,,,,,,,,13,,55,0
118859,note_on,,59,0,5,,,,,,,,,,,,,,,,2,,55,0
118860,note_on,,1,0,9,,,,,,,,,,,,,,,,11,,69,72
118860,note_on,,1,0,10,,,,,,,,,,,,,,,,12,,57,72
118860,note_on,,1,0,11,,,,,,,,,,,,,,,,13,,54,72
118860,note_on,,1,0,8,,,,,,,,,,,,,,,,10,,78,72
118860,note_on,,1,0,5,,,,,,,,,,,,,,,,2,,54,72
118860,note_on,,1,0,6,,,,,,,,,,,,,,,,3,,78,72
118860,note_on,,1,0,12,,,,,,,,,,,,,,,,15,,54,72
118919,note_on,,59,0,12,,,,,,,,,,,,,,,,15,,74,0
118919,note_on,,59,0,9,,,,,,,,,,,,,,,,11,,69,0
118919,note_on,,0,0,12,,,,,,,,,,,,,,,,15,,54,0
118919,note_on,,59,0,10,,,,,,,,,,,,,,,,12,,57,0
118919,note_on,,59,0,11,,,,,,,,,,,,,,,,13,,54,0
118919,note_on,,59,0,5,,,,,,,,,,,,,,,,2,,54,0
118919,note_on,,59,0,8,,,,,,,,,,,,,,,,10,,78,0
118919,note_on,,0,0,12,,,,,,,,,,,,,,,,15,,66,0
118919,note_on,,59,0,6,,,,,,,,,,,,,,,,3,,78,0
118919,note_on,,0,0,12,,,,,,,,,,,,,,,,15,,71,0
118920,note_on,,1,0,6,,,,,,,,,,,,,,,,3,,79,72
118920,note_on,,1,0,10,,,,,,,,,,,,,,,,12,,55,72
118920,note_on,,0,0,12,,,,,,,,,,,,,,,,15,,76,72
118920,note_on,,1,0,8,,,,,,,,,,,,,,,,10,,79,72
118920,note_on,,1,0,9,,,,,,,,,,,,,,,,11,,71,72
118920,note_on,,0,0,12,,,,,,,,,,,,,,,,15,,52,72
118920,note_on,,1,0,5,,,,,,,,,,,,,,,,2,,52,72
118920,note_on,,1,0,11,,,,,,,,,,,,,,,,13,,52,72
118920,note_on,,0,0,12,,,,,,,,,,,,,,,,15,,67,72
118920,note_on,,1,0,12,,,,,,,,,,,,,,,,15,,71,72
119039,note_on,,119,0,5,,,,,,,,,,,,,,,,2,,52,0
119039,note_on,,119,0,11,,,,,,,,,,,,,,,,13,,52,0
119039,note_on,,119,0,12,,,,,,,,,,,,,,,,15,,52,0
119040,note_on,,1,0,5,,,,,,,,,,,,,,,,2,,62,72
119040,note_on,,1,0,11,,,,,,,,,,,,,,,,13,,62,72
119040,note_on,,1,0,12,,,,,,,,,,,,,,,,15,,62,72
119099,note_on,,179,0,9,,,,,,,,,,,,,,,,11,,71,0
119099,note_on,,179,0,10,,,,,,,,,,,,,,,,12,,55,0
119099,note_on,,179,0,8,,,,,,,,,,,,,,,,10,,79,0
119099,note_on,,179,0,6,,,,,,,,,,,,,,,,3,,79,0
119100,note_on,,1,0,6,,,,,,,,,,,,,,,,3,,78,72
119100,note_on,,1,0,8,,,,,,,,,,,,,,,,10,,78,72
119100,note_on,,1,0,10,,,,,,,,,,,,,,,,12,,71,72
119100,note_on,,1,0,9,,,,,,,,,,,,,,,,11,,71,72
119159,note_on,,119,0,5,,,,,,,,,,,,,,,,2,,62,0
119159,note_on,,119,0,11,,,,,,,,,,,,,,,,13,,62,0
119159,note_on,,59,0,8,,,,,,,,,,,,,,,,10,,78,0
119159,note_on,,119,0,12,,,,,,,,,,,,,,,,15,,71,0
119159,note_on,,59,0,10,,,,,,,,,,,,,,,,12,,71,0
119159,note_on,,0,0,12,,,,,,,,,,,,,,,,15,,67,0
119159,note_on,,0,0,12,,,,,,,,,,,,,,,,15,,76,0
119159,note_on,,0,0,12,,,,,,,,,,,,,,,,15,,62,0
119159,note_on,,59,0,9,,,,,,,,,,,,,,,,11,,71,0
119159,note_on,,59,0,6,,,,,,,,,,,,,,,,3,,78,0
119160,note_on,,1,0,12,,,,,,,,,,,,,,,,15,,61,72
119160,note_on,,1,0,6,,,,,,,,,,,,,,,,3,,79,72
119160,note_on,,0,0,12,,,,,,,,,,,,,,,,15,,69,72
119160,note_on,,1,0,11,,,,,,,,,,,,,,,,13,,61,72
119160,note_on,,1,0,10,,,,,,,,,,,,,,,,12,,69,72
119160,note_on,,1,0,5,,,,,,,,,,,,,,,,2,,61,72
119160,note_on,,1,0,8,,,,,,,,,,,,,,,,10,,79,72
119160,note_on,,0,0,12,,,,,,,,,,,,,,,,15,,64,72
119160,note_on,,1,0,9,,,,,,,,,,,,,,,,11,,76,72
119219,note_on,,59,0,9,,,,,,,,,,,,,,,,11,,76,0
119219,note_on,,59,0,6,,,,,,,,,,,,,,,,3,,79,0
119219,note_on,,59,0,8,,,,,,,,,,,,,,,,10,,79,0
119219,note_on,,59,0,10,,,,,,,,,,,,,,,,12,,69,0
119220,note_on,,1,0,9,,,,,,,,,,,,,,,,11,,69,72
119220,note_on,,1,0,6,,,,,,,,,,,,,,,,3,,76,72
119220,note_on,,1,0,8,,,,,,,,,,,,,,,,10,,76,72
119220,note_on,,1,0,10,,,,,,,,,,,,,,,,12,,69,72
119279,note_on,,59,0,9,,,,,,,,,,,,,,,,11,,69,0
119279,note_on,,119,0,5,,,,,,,,,,,,,,,,2,,61,0
119279,note_on,,59,0,8,,,,,,,,,,,,,,,,10,,76,0
119279,note_on,,119,0,12,,,,,,,,,,,,,,,,15,,61,0
119279,note_on,,59,0,6,,,,,,,,,,,,,,,,3,,76,0
119279,note_on,,59,0,10,,,,,,,,,,,,,,,,12,,69,0
119279,note_on,,119,0,11,,,,,,,,,,,,,,,,13,,61,0
119279,note_on,,0,0,12,,,,,,,,,,,,,,,,15,,64,0
119280,note_on,,1,0,8,,,,,,,,,,,,,,,,10,,78,72
119280,note_on,,1,0,12,,,,,,,,,,,,,,,,15,,66,72
119280,note_on,,1,0,10,,,,,,,,,,,,,,,,12,,69,72
119280,note_on,,1,0,9,,,,,,,,,,,,,,,,11,,74,72
119280,note_on,,1,0,5,,,,,,,,,,,,,,,,2,,62,72
119280,note_on,,0,0,12,,,,,,,,,,,,,,,,15,,62,72
119280,note_on,,1,0,11,,,,,,,,,,,,,,,,13,,62,72
119280,note_on,,1,0,6,,,,,,,,,,,,,,,,3,,78,72
119339,note_on,,59,0,8,,,,,,,,,,,,,,,,10,,78,0
119339,note_on,,59,0,10,,,,,,,,,,,,,,,,12,,69,0
119339,note_on,,59,0,11,,,,,,,,,,,,,,,,13,,62,0
119339,note_on,,59,0,9,,,,,,,,,,,,,,,,11,,74,0
119339,note_on,,59,0,5,,,,,,,,,,,,,,,,2,,62,0
119339,note_on,,0,0,12,,,,,,,,,,,,,,,,15,,62,0
119339,note_on,,59,0,6,,,,,,,,,,,,,,,,3,,78,0
119339,note_on,,59,0,12,,,,,,,,,,,,,,,,15,,66,0
119340,note_on,,1,0,11,,,,,,,,,,,,,,,,13,,61,72
119340,note_on,,1,0,12,,,,,,,,,,,,,,,,15,,64,72
119340,note_on,,1,0,5,,,,,,,,,,,,,,,,2,,61,72
119340,note_on,,1,0,9,,,,,,,,,,,,,,,,11,,76,72
119340,note_on,,0,0,12,,,,,,,,,,,,,,,,15,,61,72
119340,note_on,,1,0,6,,,,,,,,,,,,,,,,3,,79,72
119340,note_on,,1,0,10,,,,,,,,,,,,,,,,12,,69,72
119340,note_on,,1,0,8,,,,,,,,,,,,,,,,10,,79,72
119399,note_on,,59,0,6,,,,,,,,,,,,,,,,3,,79,0
119399,note_on,,59,0,9,,,,,,,,,,,,,,,,11,,76,0
119399,note_on,,59,0,8,,,,,,,,,,,,,,,,10,,79,0
119399,note_on,,59,0,11,,,,,,,,,,,,,,,,13,,61,0
119399,note_on,,0,0,12,,,,,,,,,,,,,,,,15,,61,0
119399,note_on,,59,0,10,,,,,,,,,,,,,,,,12,,69,0
119399,note_on,,0,0,12,,,,,,,,,,,,,,,,15,,64,0
119399,note_on,,59,0,12,,,,,,,,,,,,,,,,15,,69,0
119399,note_on,,59,0,5,,,,,,,,,,,,,,,,2,,61,0
119400,note_on,,1,0,8,,,,,,,,,,,,,,,,10,,78,72
119400,note_on,,0,0,12,,,,,,,,,,,,,,,,15,,69,72
119400,note_on,,0,0,12,,,,,,,,,,,,,,,,15,,66,72
119400,note_on,,1,0,12,,,,,,,,,,,,,,,,15,,74,72
119400,note_on,,0,0,12,,,,,,,,,,,,,,,,15,,62,72
119400,note_on,,1,0,9,,,,,,,,,,,,,,,,11,,74,72
119400,note_on,,1,0,6,,,,,,,,,,,,,,,,3,,78,72
119400,note_on,,1,0,10,,,,,,,,,,,,,,,,12,,69,72
119400,note_on,,1,0,5,,,,,,,,,,,,,,,,2,,62,72
119400,note_on,,1,0,11,,,,,,,,,,,,,,,,13,,62,72
119414,note_on,,14,0,8,,,,,,,,,,,,,,,,10,,78,0
119414,note_on,,14,0,6,,,,,,,,,,,,,,,,3,,78,0
119415,note_on,,1,0,8,,,,,,,,,,,,,,,,10,,79,72
119415,note_on,,1,0,6,,,,,,,,,,,,,,,,3,,79,72
119429,note_on,,14,0,6,,,,,,,,,,,,,,,,3,,79,0
119429,note_on,,14,0,8,,,,,,,,,,,,,,,,10,,79,0
119430,note_on,,1,0,6,,,,,,,,,,,,,,,,3,,78,72
119430,note_on,,1,0,8,,,,,,,,,,,,,,,,10,,78,72
119444,note_on,,14,0,8,,,,,,,,,,,,,,,,10,,78,0
119444,note_on,,14,0,6,,,,,,,,,,,,,,,,3,,78,0
119445,note_on,,1,0,8,,,,,,,,,,,,,,,,10,,79,72
119445,note_on,,1,0,6,,,,,,,,,,,,,,,,3,,79,72
119459,note_on,,14,0,6,,,,,,,,,,,,,,,,3,,79,0
119459,note_on,,14,0,8,,,,,,,,,,,,,,,,10,,79,0
119460,note_on,,1,0,6,,,,,,,,,,,,,,,,3,,78,72
119460,note_on,,1,0,8,,,,,,,,,,,,,,,,10,,78,72
119474,note_on,,14,0,6,,,,,,,,,,,,,,,,3,,78,0
119474,note_on,,14,0,8,,,,,,,,,,,,,,,,10,,78,0
119475,note_on,,1,0,6,,,,,,,,,,,,,,,,3,,79,72
119475,note_on,,1,0,8,,,,,,,,,,,,,,,,10,,79,72
119489,note_on,,14,0,8,,,,,,,,,,,,,,,,10,,79,0
119489,note_on,,14,0,6,,,,,,,,,,,,,,,,3,,79,0
119490,note_on,,1,0,8,,,,,,,,,,,,,,,,10,,78,72
119490,note_on,,1,0,6,,,,,,,,,,,,,,,,3,,78,72
119504,note_on,,14,0,8,,,,,,,,,,,,,,,,10,,78,0
119504,note_on,,14,0,6,,,,,,,,,,,,,,,,3,,78,0
119505,note_on,,1,0,8,,,,,,,,,,,,,,,,10,,79,72
119505,note_on,,1,0,6,,,,,,,,,,,,,,,,3,,79,72
119519,note_on,,14,0,6,,,,,,,,,,,,,,,,3,,79,0
119519,note_on,,14,0,8,,,,,,,,,,,,,,,,10,,79,0
119519,note_on,,119,0,11,,,,,,,,,,,,,,,,13,,62,0
119519,note_on,,119,0,5,,,,,,,,,,,,,,,,2,,62,0
119519,note_on,,119,0,12,,,,,,,,,,,,,,,,15,,74,0
119519,note_on,,0,0,12,,,,,,,,,,,,,,,,15,,62,0
119519,note_on,,0,0,12,,,,,,,,,,,,,,,,15,,69,0
119519,note_on,,0,0,12,,,,,,,,,,,,,,,,15,,66,0
119519,note_on,,119,0,10,,,,,,,,,,,,,,,,12,,69,0
119520,note_on,,1,0,8,,,,,,,,,,,,,,,,10,,78,72
119520,note_on,,1,0,11,,,,,,,,,,,,,,,,13,,50,72
119520,note_on,,1,0,5,,,,,,,,,,,,,,,,2,,50,72
119520,note_on,,0,0,12,,,,,,,,,,,,,,,,15,,50,72
119520,note_on,,0,0,12,,,,,,,,,,,,,,,,15,,78,72
119520,note_on,,1,0,12,,,,,,,,,,,,,,,,15,,74,72
119520,note_on,,1,0,10,,,,,,,,,,,,,,,,12,,69,72
119520,note_on,,0,0,12,,,,,,,,,,,,,,,,15,,69,72
119520,note_on,,1,0,6,,,,,,,,,,,,,,,,3,,78,72
119534,note_on,,14,0,6,,,,,,,,,,,,,,,,3,,78,0
119534,note_on,,14,0,8,,,,,,,,,,,,,,,,10,,78,0
119535,note_on,,1,0,6,,,,,,,,,,,,,,,,3,,79,72
119535,note_on,,1,0,8,,,,,,,,,,,,,,,,10,,79,72
119549,note_on,,14,0,6,,,,,,,,,,,,,,,,3,,79,0
119549,note_on,,14,0,8,,,,,,,,,,,,,,,,10,,79,0
119550,note_on,,1,0,6,,,,,,,,,,,,,,,,3,,76,72
119550,note_on,,1,0,8,,,,,,,,,,,,,,,,10,,76,72
119564,note_on,,14,0,6,,,,,,,,,,,,,,,,3,,76,0
119564,note_on,,14,0,8,,,,,,,,,,,,,,,,10,,76,0
119565,note_on,,1,0,6,,,,,,,,,,,,,,,,3,,78,72
119565,note_on,,1,0,8,,,,,,,,,,,,,,,,10,,78,72
119579,note_on,,14,0,8,,,,,,,,,,,,,,,,10,,78,0
119579,note_on,,14,0,6,,,,,,,,,,,,,,,,3,,78,0
119579,note_on,,179,0,9,,,,,,,,,,,,,,,,11,,74,0
119580,note_on,,1,0,9,,,,,,,,,,,,,,,,11,,73,72
119580,note_on,,1,0,6,,,,,,,,,,,,,,,,3,,76,72
119580,note_on,,1,0,8,,,,,,,,,,,,,,,,10,,76,72
119639,note_on,,119,0,10,,,,,,,,,,,,,,,,12,,69,0
119639,note_on,,59,0,6,,,,,,,,,,,,,,,,3,,76,0
119639,note_on,,59,0,9,,,,,,,,,,,,,,,,11,,73,0
119639,note_on,,119,0,11,,,,,,,,,,,,,,,,13,,50,0
119639,note_on,,59,0,8,,,,,,,,,,,,,,,,10,,76,0
119639,note_on,,119,0,5,,,,,,,,,,,,,,,,2,,50,0
119639,note_on,,119,0,12,,,,,,,,,,,,,,,,15,,74,0
119639,note_on,,0,0,12,,,,,,,,,,,,,,,,15,,50,0
119639,note_on,,0,0,12,,,,,,,,,,,,,,,,15,,78,0
119639,note_on,,0,0,12,,,,,,,,,,,,,,,,15,,69,0
119640,note_on,,1,0,11,,,,,,,,,,,,,,,,13,,57,72
119640,note_on,,1,0,10,,,,,,,,,,,,,,,,12,,69,72
119640,note_on,,1,0,9,,,,,,,,,,,,,,,,11,,73,72
119640,note_on,,0,0,12,,,,,,,,,,,,,,,,15,,69,72
119640,note_on,,0,0,12,,,,,,,,,,,,,,,,15,,64,72
119640,note_on,,0,0,12,,,,,,,,,,,,,,,,15,,57,72
119640,note_on,,0,0,12,,,,,,,,,,,,,,,,15,,73,72
119640,note_on,,1,0,8,,,,,,,,,,,,,,,,10,,76,72
119640,note_on,,1,0,5,,,,,,,,,,,,,,,,2,,57,72
119640,note_on,,1,0,12,,,,,,,,,,,,,,,,15,,76,72
119640,note_on,,1,0,6,,,,,,,,,,,,,,,,3,,76,72
119759,note_on,,119,0,5,,,,,,,,,,,,,,,,2,,57,0
119759,note_on,,119,0,6,,,,,,,,,,,,,,,,3,,76,0
119759,note_on,,119,0,12,,,,,,,,,,,,,,,,15,,76,0
119759,note_on,,0,0,12,,,,,,,,,,,,,,,,15,,73,0
119759,note_on,,0,0,12,,,,,,,,,,,,,,,,15,,57,0
119759,note_on,,0,0,12,,,,,,,,,,,,,,,,15,,64,0
119759,note_on,,0,0,12,,,,,,,,,,,,,,,,15,,69,0
119759,note_on,,119,0,9,,,,,,,,,,,,,,,,11,,73,0
119759,note_on,,119,0,11,,,,,,,,,,,,,,,,13,,57,0
119759,note_on,,119,0,8,,,,,,,,,,,,,,,,10,,76,0
119759,note_on,,119,0,10,,,,,,,,,,,,,,,,12,,69,0
119820,note_on,,61,0,6,,,,,,,,,,,,,,,,3,,76,72
119879,note_on,,59,0,6,,,,,,,,,,,,,,,,3,,76,0
119880,note_on,,1,0,6,,,,,,,,,,,,,,,,3,,74,72
119939,note_on,,59,0,6,,,,,,,,,,,,,,,,3,,74,0
119940,note_on,,1,0,6,,,,,,,,,,,,,,,,3,,76,72
119999,note_on,,59,0,6,,,,,,,,,,,,,,,,3,,76,0
120000,note_on,,1,0,6,,,,,,,,,,,,,,,,3,,78,72
120059,note_on,,59,0,6,,,,,,,,,,,,,,,,3,,78,0
120060,note_on,,1,0,6,,,,,,,,,,,,,,,,3,,79,72
120119,note_on,,59,0,6,,,,,,,,,,,,,,,,3,,79,0
120120,note_on,,1,0,6,,,,,,,,,,,,,,,,3,,81,72
120179,note_on,,59,0,6,,,,,,,,,,,,,,,,3,,81,0
120180,note_on,,421,0,9,,,,,,,,,,,,,,,,11,,69,72
120180,note_on,,421,0,5,,,,,,,,,,,,,,,,2,,61,72
120180,note_on,,421,0,12,,,,,,,,,,,,,,,,15,,64,72
120180,note_on,,0,0,12,,,,,,,,,,,,,,,,15,,61,72
120180,note_on,,0,0,12,,,,,,,,,,,,,,,,15,,69,72
120180,note_on,,421,0,11,,,,,,,,,,,,,,,,13,,61,72
120180,note_on,,421,0,8,,,,,,,,,,,,,,,,10,,76,72
120180,note_on,,421,0,10,,,,,,,,,,,,,,,,12,,61,72
120239,note_on,,59,0,12,,,,,,,,,,,,,,,,15,,64,0
120239,note_on,,59,0,5,,,,,,,,,,,,,,,,2,,61,0
120239,note_on,,59,0,11,,,,,,,,,,,,,,,,13,,61,0
120239,note_on,,59,0,10,,,,,,,,,,,,,,,,12,,61,0
120239,note_on,,59,0,8,,,,,,,,,,,,,,,,10,,76,0
120239,note_on,,59,0,9,,,,,,,,,,,,,,,,11,,69,0
120239,note_on,,0,0,12,,,,,,,,,,,,,,,,15,,61,0
120240,note_on,,1,0,12,,,,,,,,,,,,,,,,15,,62,72
120240,note_on,,1,0,11,,,,,,,,,,,,,,,,13,,59,72
120240,note_on,,1,0,8,,,,,,,,,,,,,,,,10,,74,72
120240,note_on,,0,0,12,,,,,,,,,,,,,,,,15,,59,72
120240,note_on,,1,0,9,,,,,,,,,,,,,,,,11,,71,72
120240,note_on,,1,0,5,,,,,,,,,,,,,,,,2,,59,72
120240,note_on,,1,0,10,,,,,,,,,,,,,,,,12,,62,72
120299,note_on,,59,0,12,,,,,,,,,,,,,,,,15,,62,0
120299,note_on,,59,0,9,,,,,,,,,,,,,,,,11,,71,0
120299,note_on,,59,0,8,,,,,,,,,,,,,,,,10,,74,0
120299,note_on,,59,0,5,,,,,,,,,,,,,,,,2,,59,0
120299,note_on,,0,0,12,,,,,,,,,,,,,,,,15,,59,0
120299,note_on,,59,0,10,,,,,,,,,,,,,,,,12,,62,0
120299,note_on,,59,0,11,,,,,,,,,,,,,,,,13,,59,0
120300,note_on,,0,0,12,,,,,,,,,,,,,,,,15,,61,72
120300,note_on,,1,0,9,,,,,,,,,,,,,,,,11,,69,72
120300,note_on,,1,0,5,,,,,,,,,,,,,,,,2,,61,72
120300,note_on,,1,0,8,,,,,,,,,,,,,,,,10,,76,72
120300,note_on,,1,0,10,,,,,,,,,,,,,,,,12,,61,72
120300,note_on,,1,0,12,,,,,,,,,,,,,,,,15,,64,72
120300,note_on,,1,0,11,,,,,,,,,,,,,,,,13,,61,72
120359,note_on,,59,0,5,,,,,,,,,,,,,,,,2,,61,0
120359,note_on,,59,0,8,,,,,,,,,,,,,,,,10,,76,0
120359,note_on,,0,0,12,,,,,,,,,,,,,,,,15,,61,0
120359,note_on,,59,0,11,,,,,,,,,,,,,,,,13,,61,0
120359,note_on,,59,0,12,,,,,,,,,,,,,,,,15,,64,0
120359,note_on,,59,0,9,,,,,,,,,,,,,,,,11,,69,0
120359,note_on,,59,0,10,,,,,,,,,,,,,,,,12,,61,0
120360,note_on,,1,0,9,,,,,,,,,,,,,,,,11,,69,72
120360,note_on,,1,0,12,,,,,,,,,,,,,,,,15,,62,72
120360,note_on,,1,0,10,,,,,,,,,,,,,,,,12,,62,72
120360,note_on,,1,0,5,,,,,,,,,,,,,,,,2,,62,72
120360,note_on,,1,0,8,,,,,,,,,,,,,,,,10,,78,72
120360,note_on,,1,0,11,,,,,,,,,,,,,,,,13,,62,72
120360,note_on,,0,0,12,,,,,,,,,,,,,,,,15,,66,72
120419,note_on,,59,0,8,,,,,,,,,,,,,,,,10,,78,0
120420,note_on,,1,0,8,,,,,,,,,,,,,,,,10,,79,72
120479,note_on,,119,0,9,,,,,,,,,,,,,,,,11,,69,0
120479,note_on,,0,0,12,,,,,,,,,,,,,,,,15,,62,0
120479,note_on,,59,0,8,,,,,,,,,,,,,,,,10,,79,0
120479,note_on,,119,0,5,,,,,,,,,,,,,,,,2,,62,0
120479,note_on,,119,0,11,,,,,,,,,,,,,,,,13,,62,0
120479,note_on,,0,0,12,,,,,,,,,,,,,,,,15,,66,0
120479,note_on,,119,0,10,,,,,,,,,,,,,,,,12,,62,0
120479,note_on,,119,0,12,,,,,,,,,,,,,,,,15,,69,0
120480,note_on,,1,0,8,,,,,,,,,,,,,,,,10,,81,72
120480,note_on,,1,0,9,,,,,,,,,,,,,,,,11,,76,72
120480,note_on,,1,0,11,,,,,,,,,,,,,,,,13,,61,72
120480,note_on,,0,0,12,,,,,,,,,,,,,,,,15,,73,72
120480,note_on,,0,0,12,,,,,,,,,,,,,,,,15,,69,72
120480,note_on,,0,0,12,,,,,,,,,,,,,,,,15,,61,72
120480,note_on,,1,0,12,,,,,,,,,,,,,,,,15,,64,72
120480,note_on,,1,0,10,,,,,,,,,,,,,,,,12,,64,72
120480,note_on,,1,0,5,,,,,,,,,,,,,,,,2,,61,72
120540,note_on,,361,0,6,,,,,,,,,,,,,,,,3,,76,72
120599,note_on,,59,0,6,,,,,,,,,,,,,,,,3,,76,0
120599,note_on,,119,0,11,,,,,,,,,,,,,,,,13,,61,0
120599,note_on,,119,0,9,,,,,,,,,,,,,,,,11,,76,0
120599,note_on,,119,0,10,,,,,,,,,,,,,,,,12,,64,0
120599,note_on,,119,0,12,,,,,,,,,,,,,,,,15,,64,0
120599,note_on,,0,0,12,,,,,,,,,,,,,,,,15,,61,0
120599,note_on,,0,0,12,,,,,,,,,,,,,,,,15,,69,0
120599,note_on,,0,0,12,,,,,,,,,,,,,,,,15,,73,0
120599,note_on,,119,0,5,,,,,,,,,,,,,,,,2,,61,0
120599,note_on,,119,0,8,,,,,,,,,,,,,,,,10,,81,0
120600,note_on,,0,0,12,,,,,,,,,,,,,,,,15,,76,72
120600,note_on,,1,0,5,,,,,,,,,,,,,,,,2,,57,72
120600,note_on,,0,0,12,,,,,,,,,,,,,,,,15,,57,72
120600,note_on,,0,0,12,,,,,,,,,,,,,,,,15,,69,72
120600,note_on,,0,0,12,,,,,,,,,,,,,,,,15,,73,72
120600,note_on,,1,0,6,,,,,,,,,,,,,,,,3,,74,72
120600,note_on,,1,0,11,,,,,,,,,,,,,,,,13,,57,72
120600,note_on,,1,0,12,,,,,,,,,,,,,,,,15,,61,72
120659,note_on,,59,0,6,,,,,,,,,,,,,,,,3,,74,0
120660,note_on,,1,0,6,,,,,,,,,,,,,,,,3,,76,72
120719,note_on,,59,0,6,,,,,,,,,,,,,,,,3,,76,0
120719,note_on,,119,0,11,,,,,,,,,,,,,,,,13,,57,0
120719,note_on,,119,0,12,,,,,,,,,,,,,,,,15,,61,0
120719,note_on,,0,0,12,,,,,,,,,,,,,,,,15,,57,0
120719,note_on,,0,0,12,,,,,,,,,,,,,,,,15,,69,0
120719,note_on,,0,0,12,,,,,,,,,,,,,,,,15,,76,0
120719,note_on,,0,0,12,,,,,,,,,,,,,,,,15,,73,0
120719,note_on,,119,0,5,,,,,,,,,,,,,,,,2,,57,0
120720,note_on,,1,0,6,,,,,,,,,,,,,,,,3,,78,72
120779,note_on,,59,0,6,,,,,,,,,,,,,,,,3,,78,0
120780,note_on,,1,0,6,,,,,,,,,,,,,,,,3,,79,72
120839,note_on,,59,0,6,,,,,,,,,,,,,,,,3,,79,0
120840,note_on,,1,0,6,,,,,,,,,,,,,,,,3,,81,72
120900,note_on,,301,0,9,,,,,,,,,,,,,,,,11,,69,72
120900,note_on,,181,0,12,,,,,,,,,,,,,,,,15,,61,72
120900,note_on,,0,0,12,,,,,,,,,,,,,,,,15,,64,72
120900,note_on,,181,0,5,,,,,,,,,,,,,,,,2,,61,72
120900,note_on,,181,0,11,,,,,,,,,,,,,,,,13,,61,72
120900,note_on,,301,0,10,,,,,,,,,,,,,,,,12,,61,72
120900,note_on,,301,0,8,,,,,,,,,,,,,,,,10,,76,72
120900,note_on,,0,0,12,,,,,,,,,,,,,,,,15,,69,72
120959,note_on,,59,0,12,,,,,,,,,,,,,,,,15,,61,0
120959,note_on,,0,0,12,,,,,,,,,,,,,,,,15,,64,0
120959,note_on,,59,0,11,,,,,,,,,,,,,,,,13,,61,0
120959,note_on,,59,0,9,,,,,,,,,,,,,,,,11,,69,0
120959,note_on,,59,0,5,,,,,,,,,,,,,,,,2,,61,0
120959,note_on,,59,0,8,,,,,,,,,,,,,,,,10,,76,0
120959,note_on,,59,0,10,,,,,,,,,,,,,,,,12,,61,0
120960,note_on,,1,0,11,,,,,,,,,,,,,,,,13,,59,72
120960,note_on,,1,0,10,,,,,,,,,,,,,,,,12,,62,72
120960,note_on,,1,0,5,,,,,,,,,,,,,,,,2,,59,72
120960,note_on,,1,0,9,,,,,,,,,,,,,,,,11,,71,72
120960,note_on,,1,0,8,,,,,,,,,,,,,,,,10,,74,72
120960,note_on,,1,0,12,,,,,,,,,,,,,,,,15,,59,72
120960,note_on,,0,0,12,,,,,,,,,,,,,,,,15,,62,72
121019,note_on,,59,0,8,,,,,,,,,,,,,,,,10,,74,0
121019,note_on,,59,0,11,,,,,,,,,,,,,,,,13,,59,0
121019,note_on,,59,0,12,,,,,,,,,,,,,,,,15,,59,0
121019,note_on,,0,0,12,,,,,,,,,,,,,,,,15,,62,0
121019,note_on,,59,0,5,,,,,,,,,,,,,,,,2,,59,0
121019,note_on,,59,0,9,,,,,,,,,,,,,,,,11,,71,0
121019,note_on,,59,0,10,,,,,,,,,,,,,,,,12,,62,0
121020,note_on,,1,0,8,,,,,,,,,,,,,,,,10,,76,72
121020,note_on,,1,0,11,,,,,,,,,,,,,,,,13,,61,72
121020,note_on,,0,0,12,,,,,,,,,,,,,,,,15,,64,72
121020,note_on,,1,0,12,,,,,,,,,,,,,,,,15,,61,72
121020,note_on,,1,0,10,,,,,,,,,,,,,,,,12,,61,72
121020,note_on,,1,0,5,,,,,,,,,,,,,,,,2,,61,72
121020,note_on,,1,0,9,,,,,,,,,,,,,,,,11,,69,72
121079,note_on,,0,0,12,,,,,,,,,,,,,,,,15,,64,0
121079,note_on,,59,0,10,,,,,,,,,,,,,,,,12,,61,0
121079,note_on,,59,0,9,,,,,,,,,,,,,,,,11,,69,0
121079,note_on,,59,0,8,,,,,,,,,,,,,,,,10,,76,0
121079,note_on,,59,0,12,,,,,,,,,,,,,,,,15,,61,0
121079,note_on,,59,0,11,,,,,,,,,,,,,,,,13,,61,0
121079,note_on,,59,0,5,,,,,,,,,,,,,,,,2,,61,0
121080,note_on,,1,0,8,,,,,,,,,,,,,,,,10,,78,72
121080,note_on,,1,0,11,,,,,,,,,,,,,,,,13,,62,72
121080,note_on,,1,0,9,,,,,,,,,,,,,,,,11,,69,72
121080,note_on,,1,0,5,,,,,,,,,,,,,,,,2,,62,72
121080,note_on,,0,0,12,,,,,,,,,,,,,,,,15,,62,72
121080,note_on,,1,0,12,,,,,,,,,,,,,,,,15,,66,72
121080,note_on,,1,0,10,,,,,,,,,,,,,,,,12,,62,72
121139,note_on,,59,0,8,,,,,,,,,,,,,,,,10,,78,0
121140,note_on,,1,0,8,,,,,,,,,,,,,,,,10,,79,72
121199,note_on,,59,0,8,,,,,,,,,,,,,,,,10,,79,0
121199,note_on,,119,0,5,,,,,,,,,,,,,,,,2,,62,0
121199,note_on,,119,0,10,,,,,,,,,,,,,,,,12,,62,0
121199,note_on,,119,0,12,,,,,,,,,,,,,,,,15,,69,0
121199,note_on,,0,0,12,,,,,,,,,,,,,,,,15,,66,0
121199,note_on,,0,0,12,,,,,,,,,,,,,,,,15,,62,0
121199,note_on,,119,0,11,,,,,,,,,,,,,,,,13,,62,0
121200,note_on,,1,0,12,,,,,,,,,,,,,,,,15,,61,72
121200,note_on,,1,0,10,,,,,,,,,,,,,,,,12,,64,72
121200,note_on,,1,0,5,,,,,,,,,,,,,,,,2,,61,72
121200,note_on,,1,0,8,,,,,,,,,,,,,,,,10,,81,72
121200,note_on,,0,0,12,,,,,,,,,,,,,,,,15,,69,72
121200,note_on,,0,0,12,,,,,,,,,,,,,,,,15,,73,72
121200,note_on,,0,0,12,,,,,,,,,,,,,,,,15,,64,72
121200,note_on,,1,0,11,,,,,,,,,,,,,,,,13,,61,72
121259,note_on,,59,0,8,,,,,,,,,,,,,,,,10,,81,0
121259,note_on,,179,0,9,,,,,,,,,,,,,,,,11,,69,0
121259,note_on,,419,0,6,,,,,,,,,,,,,,,,3,,81,0
121260,note_on,,1,0,6,,,,,,,,,,,,,,,,3,,76,72
121260,note_on,,1,0,9,,,,,,,,,,,,,,,,11,,69,72
121260,note_on,,1,0,8,,,,,,,,,,,,,,,,10,,76,72
121319,note_on,,0,0,12,,,,,,,,,,,,,,,,15,,73,0
121319,note_on,,119,0,10,,,,,,,,,,,,,,,,12,,64,0
121319,note_on,,59,0,9,,,,,,,,,,,,,,,,11,,69,0
121319,note_on,,59,0,6,,,,,,,,,,,,,,,,3,,76,0
121319,note_on,,0,0,12,,,,,,,,,,,,,,,,15,,69,0
121319,note_on,,119,0,5,,,,,,,,,,,,,,,,2,,61,0
121319,note_on,,59,0,8,,,,,,,,,,,,,,,,10,,76,0
121319,note_on,,119,0,11,,,,,,,,,,,,,,,,13,,61,0
121319,note_on,,119,0,12,,,,,,,,,,,,,,,,15,,61,0
121319,note_on,,0,0,12,,,,,,,,,,,,,,,,15,,64,0
121320,note_on,,0,0,12,,,,,,,,,,,,,,,,15,,73,72
121320,note_on,,1,0,5,,,,,,,,,,,,,,,,2,,57,72
121320,note_on,,0,0,12,,,,,,,,,,,,,,,,15,,76,72
121320,note_on,,1,0,11,,,,,,,,,,,,,,,,13,,57,72
121320,note_on,,0,0,12,,,,,,,,,,,,,,,,15,,69,72
121320,note_on,,1,0,6,,,,,,,,,,,,,,,,3,,74,72
121320,note_on,,1,0,9,,,,,,,,,,,,,,,,11,,71,72
121320,note_on,,1,0,10,,,,,,,,,,,,,,,,12,,69,72
121320,note_on,,1,0,8,,,,,,,,,,,,,,,,10,,74,72
121320,note_on,,0,0,12,,,,,,,,,,,,,,,,15,,57,72
121320,note_on,,1,0,12,,,,,,,,,,,,,,,,15,,61,72
121379,note_on,,59,0,6,,,,,,,,,,,,,,,,3,,74,0
121379,note_on,,59,0,9,,,,,,,,,,,,,,,,11,,71,0
121379,note_on,,59,0,8,,,,,,,,,,,,,,,,10,,74,0
121380,note_on,,1,0,6,,,,,,,,,,,,,,,,3,,76,72
121380,note_on,,1,0,9,,,,,,,,,,,,,,,,11,,73,72
121380,note_on,,1,0,8,,,,,,,,,,,,,,,,10,,76,72
121439,note_on,,59,0,8,,,,,,,,,,,,,,,,10,,76,0
121439,note_on,,59,0,6,,,,,,,,,,,,,,,,3,,76,0
121439,note_on,,119,0,10,,,,,,,,,,,,,,,,12,,69,0
121439,note_on,,0,0,12,,,,,,,,,,,,,,,,15,,57,0
121439,note_on,,0,0,12,,,,,,,,,,,,,,,,15,,73,0
121439,note_on,,0,0,12,,,,,,,,,,,,,,,,15,,76,0
121439,note_on,,0,0,12,,,,,,,,,,,,,,,,15,,69,0
121439,note_on,,119,0,5,,,,,,,,,,,,,,,,2,,57,0
121439,note_on,,119,0,12,,,,,,,,,,,,,,,,15,,61,0
121439,note_on,,59,0,9,,,,,,,,,,,,,,,,11,,73,0
121439,note_on,,119,0,11,,,,,,,,,,,,,,,,13,,57,0
121440,note_on,,1,0,11,,,,,,,,,,,,,,,,13,,62,72
121440,note_on,,1,0,8,,,,,,,,,,,,,,,,10,,78,72
121440,note_on,,1,0,6,,,,,,,,,,,,,,,,3,,78,72
121440,note_on,,1,0,9,,,,,,,,,,,,,,,,11,,69,72
121440,note_on,,1,0,10,,,,,,,,,,,,,,,,12,,69,72
121440,note_on,,0,0,12,,,,,,,,,,,,,,,,15,,69,72
121440,note_on,,0,0,12,,,,,,,,,,,,,,,,15,,62,72
121440,note_on,,1,0,12,,,,,,,,,,,,,,,,15,,74,72
121440,note_on,,0,0,12,,,,,,,,,,,,,,,,15,,66,72
121440,note_on,,1,0,5,,,,,,,,,,,,,,,,2,,62,72
121499,note_on,,59,0,8,,,,,,,,,,,,,,,,10,,78,0
121499,note_on,,59,0,6,,,,,,,,,,,,,,,,3,,78,0
121499,note_on,,59,0,10,,,,,,,,,,,,,,,,12,,69,0
121500,note_on,,1,0,8,,,,,,,,,,,,,,,,10,,74,72
121500,note_on,,1,0,6,,,,,,,,,,,,,,,,3,,74,72
121500,note_on,,1,0,10,,,,,,,,,,,,,,,,12,,66,72
121559,note_on,,119,0,11,,,,,,,,,,,,,,,,13,,62,0
121559,note_on,,119,0,5,,,,,,,,,,,,,,,,2,,62,0
121559,note_on,,119,0,9,,,,,,,,,,,,,,,,11,,69,0
121559,note_on,,0,0,12,,,,,,,,,,,,,,,,15,,69,0
121559,note_on,,59,0,8,,,,,,,,,,,,,,,,10,,74,0
121559,note_on,,0,0,12,,,,,,,,,,,,,,,,15,,66,0
121559,note_on,,0,0,12,,,,,,,,,,,,,,,,15,,62,0
121559,note_on,,119,0,12,,,,,,,,,,,,,,,,15,,74,0
121559,note_on,,59,0,6,,,,,,,,,,,,,,,,3,,74,0
121559,note_on,,59,0,10,,,,,,,,,,,,,,,,12,,66,0
121560,note_on,,1,0,10,,,,,,,,,,,,,,,,12,,67,72
121560,note_on,,1,0,8,,,,,,,,,,,,,,,,10,,79,72
121560,note_on,,1,0,6,,,,,,,,,,,,,,,,3,,79,72
121560,note_on,,0,0,12,,,,,,,,,,,,,,,,15,,62,72
121560,note_on,,0,0,12,,,,,,,,,,,,,,,,15,,74,72
121560,note_on,,1,0,9,,,,,,,,,,,,,,,,11,,74,72
121560,note_on,,0,0,12,,,,,,,,,,,,,,,,15,,67,72
121560,note_on,,1,0,5,,,,,,,,,,,,,,,,2,,59,72
121560,note_on,,1,0,11,,,,,,,,,,,,,,,,13,,59,72
121560,note_on,,0,0,12,,,,,,,,,,,,,,,,15,,79,72
121560,note_on,,1,0,12,,,,,,,,,,,,,,,,15,,59,72
121679,note_on,,119,0,9,,,,,,,,,,,,,,,,11,,74,0
121679,note_on,,0,0,12,,,,,,,,,,,,,,,,15,,79,0
121679,note_on,,0,0,12,,,,,,,,,,,,,,,,15,,74,0
121679,note_on,,0,0,12,,,,,,,,,,,,,,,,15,,67,0
121679,note_on,,0,0,12,,,,,,,,,,,,,,,,15,,62,0
121679,note_on,,119,0,5,,,,,,,,,,,,,,,,2,,59,0
121679,note_on,,119,0,8,,,,,,,,,,,,,,,,10,,79,0
121679,note_on,,119,0,11,,,,,,,,,,,,,,,,13,,59,0
121679,note_on,,119,0,6,,,,,,,,,,,,,,,,3,,79,0
121679,note_on,,119,0,12,,,,,,,,,,,,,,,,15,,59,0
121679,note_on,,119,0,10,,,,,,,,,,,,,,,,12,,67,0
121680,note_on,,1,0,8,,,,,,,,,,,,,,,,10,,79,72
121680,note_on,,1,0,9,,,,,,,,,,,,,,,,11,,71,72
121680,note_on,,1,0,11,,,,,,,,,,,,,,,,13,,64,72
121680,note_on,,0,0,12,,,,,,,,,,,,,,,,15,,67,72
121680,note_on,,0,0,12,,,,,,,,,,,,,,,,15,,64,72
121680,note_on,,0,0,12,,,,,,,,,,,,,,,,15,,71,72
121680,note_on,,1,0,12,,,,,,,,,,,,,,,,15,,76,72
121680,note_on,,1,0,5,,,,,,,,,,,,,,,,2,,64,72
121680,note_on,,1,0,6,,,,,,,,,,,,,,,,3,,79,72
121680,note_on,,1,0,10,,,,,,,,,,,,,,,,12,,67,72
121799,note_on,,119,0,9,,,,,,,,,,,,,,,,11,,71,0
121799,note_on,,0,0,12,,,,,,,,,,,,,,,,15,,67,0
121799,note_on,,119,0,5,,,,,,,,,,,,,,,,2,,64,0
121799,note_on,,0,0,12,,,,,,,,,,,,,,,,15,,64,0
121799,note_on,,119,0,12,,,,,,,,,,,,,,,,15,,76,0
121799,note_on,,0,0,12,,,,,,,,,,,,,,,,15,,71,0
121799,note_on,,119,0,8,,,,,,,,,,,,,,,,10,,79,0
121799,note_on,,119,0,11,,,,,,,,,,,,,,,,13,,64,0
121799,note_on,,119,0,6,,,,,,,,,,,,,,,,3,,79,0
121799,note_on,,119,0,10,,,,,,,,,,,,,,,,12,,67,0
121800,note_on,,1,0,8,,,,,,,,,,,,,,,,10,,79,72
121800,note_on,,0,0,12,,,,,,,,,,,,,,,,15,,64,72
121800,note_on,,0,0,12,,,,,,,,,,,,,,,,15,,69,72
121800,note_on,,0,0,12,,,,,,,,,,,,,,,,15,,73,72
121800,note_on,,1,0,12,,,,,,,,,,,,,,,,15,,57,72
121800,note_on,,1,0,5,,,,,,,,,,,,,,,,2,,57,72
121800,note_on,,1,0,6,,,,,,,,,,,,,,,,3,,79,72
121800,note_on,,1,0,10,,,,,,,,,,,,,,,,12,,64,72
121800,note_on,,1,0,9,,,,,,,,,,,,,,,,11,,73,72
121800,note_on,,1,0,11,,,,,,,,,,,,,,,,13,,57,72
121979,note_on,,179,0,9,,,,,,,,,,,,,,,,11,,73,0
121979,note_on,,179,0,11,,,,,,,,,,,,,,,,13,,57,0
121979,note_on,,179,0,5,,,,,,,,,,,,,,,,2,,57,0
121979,note_on,,0,0,12,,,,,,,,,,,,,,,,15,,64,0
121979,note_on,,179,0,10,,,,,,,,,,,,,,,,12,,64,0
121979,note_on,,0,0,12,,,,,,,,,,,,,,,,15,,73,0
121979,note_on,,179,0,8,,,,,,,,,,,,,,,,10,,79,0
121979,note_on,,179,0,12,,,,,,,,,,,,,,,,15,,57,0
121979,note_on,,0,0,12,,,,,,,,,,,,,,,,15,,69,0
121979,note_on,,179,0,6,,,,,,,,,,,,,,,,3,,79,0
121980,note_on,,1,0,12,,,,,,,,,,,,,,,,15,,64,72
121980,note_on,,1,0,11,,,,,,,,,,,,,,,,13,,61,72
121980,note_on,,1,0,5,,,,,,,,,,,,,,,,2,,61,72
121980,note_on,,1,0,6,,,,,,,,,,,,,,,,3,,81,72
121980,note_on,,1,0,8,,,,,,,,,,,,,,,,10,,81,72
121980,note_on,,0,0,12,,,,,,,,,,,,,,,,15,,76,72
121980,note_on,,1,0,9,,,,,,,,,,,,,,,,11,,76,72
121980,note_on,,0,0,12,,,,,,,,,,,,,,,,15,,69,72
121980,note_on,,1,0,10,,,,,,,,,,,,,,,,12,,69,72
121980,note_on,,0,0,12,,,,,,,,,,,,,,,,15,,61,72
122039,note_on,,59,0,10,,,,,,,,,,,,,,,,12,,69,0
122039,note_on,,59,0,8,,,,,,,,,,,,,,,,10,,81,0
122039,note_on,,59,0,9,,,,,,,,,,,,,,,,11,,76,0
122039,note_on,,0,0,12,,,,,,,,,,,,,,,,15,,76,0
122039,note_on,,59,0,11,,,,,,,,,,,,,,,,13,,61,0
122039,note_on,,0,0,12,,,,,,,,,,,,,,,,15,,61,0
122039,note_on,,59,0,12,,,,,,,,,,,,,,,,15,,64,0
122039,note_on,,59,0,5,,,,,,,,,,,,,,,,2,,61,0
122039,note_on,,59,0,6,,,,,,,,,,,,,,,,3,,81,0
122039,note_on,,0,0,12,,,,,,,,,,,,,,,,15,,69,0
122040,note_on,,1,0,5,,,,,,,,,,,,,,,,2,,62,72
122040,note_on,,1,0,6,,,,,,,,,,,,,,,,3,,78,72
122040,note_on,,1,0,10,,,,,,,,,,,,,,,,12,,69,72
122040,note_on,,1,0,8,,,,,,,,,,,,,,,,10,,78,72
122040,note_on,,1,0,11,,,,,,,,,,,,,,,,13,,62,72
122040,note_on,,1,0,12,,,,,,,,,,,,,,,,15,,66,72
122040,note_on,,0,0,12,,,,,,,,,,,,,,,,15,,62,72
122040,note_on,,0,0,12,,,,,,,,,,,,,,,,15,,69,72
122040,note_on,,1,0,9,,,,,,,,,,,,,,,,11,,74,72
122099,note_on,,59,0,9,,,,,,,,,,,,,,,,11,,74,0
122099,note_on,,59,0,8,,,,,,,,,,,,,,,,10,,78,0
122099,note_on,,59,0,6,,,,,,,,,,,,,,,,3,,78,0
122100,note_on,,1,0,9,,,,,,,,,,,,,,,,11,,73,72
122100,note_on,,1,0,6,,,,,,,,,,,,,,,,3,,76,72
122100,note_on,,1,0,8,,,,,,,,,,,,,,,,10,,76,72
122159,note_on,,0,0,12,,,,,,,,,,,,,,,,15,,62,0
122159,note_on,,0,0,12,,,,,,,,,,,,,,,,15,,69,0
122159,note_on,,119,0,12,,,,,,,,,,,,,,,,15,,66,0
122159,note_on,,59,0,6,,,,,,,,,,,,,,,,3,,76,0
122159,note_on,,119,0,11,,,,,,,,,,,,,,,,13,,62,0
122159,note_on,,119,0,10,,,,,,,,,,,,,,,,12,,69,0
122159,note_on,,59,0,8,,,,,,,,,,,,,,,,10,,76,0
122159,note_on,,119,0,5,,,,,,,,,,,,,,,,2,,62,0
122159,note_on,,59,0,9,,,,,,,,,,,,,,,,11,,73,0
122160,note_on,,1,0,8,,,,,,,,,,,,,,,,10,,78,72
122160,note_on,,1,0,5,,,,,,,,,,,,,,,,2,,55,72
122160,note_on,,1,0,9,,,,,,,,,,,,,,,,11,,74,72
122160,note_on,,0,0,12,,,,,,,,,,,,,,,,15,,71,72
122160,note_on,,0,0,12,,,,,,,,,,,,,,,,15,,55,72
122160,note_on,,0,0,12,,,,,,,,,,,,,,,,15,,74,72
122160,note_on,,1,0,11,,,,,,,,,,,,,,,,13,,55,72
122160,note_on,,1,0,12,,,,,,,,,,,,,,,,15,,66,72
122160,note_on,,1,0,6,,,,,,,,,,,,,,,,3,,78,72
122219,note_on,,59,0,6,,,,,,,,,,,,,,,,3,,78,0
122219,note_on,,59,0,12,,,,,,,,,,,,,,,,15,,66,0
122219,note_on,,59,0,8,,,,,,,,,,,,,,,,10,,78,0
122219,note_on,,59,0,9,,,,,,,,,,,,,,,,11,,74,0
122220,note_on,,1,0,12,,,,,,,,,,,,,,,,15,,64,72
122220,note_on,,1,0,9,,,,,,,,,,,,,,,,11,,71,72
122220,note_on,,1,0,6,,,,,,,,,,,,,,,,3,,79,72
122220,note_on,,1,0,8,,,,,,,,,,,,,,,,10,,79,72
122220,note_on,,61,0,10,,,,,,,,,,,,,,,,12,,64,72
122279,note_on,,59,0,9,,,,,,,,,,,,,,,,11,,71,0
122279,note_on,,59,0,8,,,,,,,,,,,,,,,,10,,79,0
122279,note_on,,59,0,10,,,,,,,,,,,,,,,,12,,64,0
122279,note_on,,119,0,11,,,,,,,,,,,,,,,,13,,55,0
122279,note_on,,119,0,5,,,,,,,,,,,,,,,,2,,55,0
122279,note_on,,0,0,12,,,,,,,,,,,,,,,,15,,64,0
122279,note_on,,59,0,6,,,,,,,,,,,,,,,,3,,79,0
122279,note_on,,0,0,12,,,,,,,,,,,,,,,,15,,74,0
122279,note_on,,59,0,12,,,,,,,,,,,,,,,,15,,71,0
122279,note_on,,0,0,12,,,,,,,,,,,,,,,,15,,55,0
122280,note_on,,1,0,12,,,,,,,,,,,,,,,,15,,64,72
122280,note_on,,1,0,6,,,,,,,,,,,,,,,,3,,76,72
122280,note_on,,1,0,10,,,,,,,,,,,,,,,,12,,57,72
122280,note_on,,1,0,8,,,,,,,,,,,,,,,,10,,76,72
122280,note_on,,1,0,11,,,,,,,,,,,,,,,,13,,57,72
122280,note_on,,0,0,12,,,,,,,,,,,,,,,,15,,69,72
122280,note_on,,1,0,9,,,,,,,,,,,,,,,,11,,73,72
122280,note_on,,0,0,12,,,,,,,,,,,,,,,,15,,57,72
122280,note_on,,1,0,5,,,,,,,,,,,,,,,,2,,57,72
122280,note_on,,0,0,12,,,,,,,,,,,,,,,,15,,73,72
122294,note_on,,14,0,6,,,,,,,,,,,,,,,,3,,76,0
122294,note_on,,14,0,8,,,,,,,,,,,,,,,,10,,76,0
122295,note_on,,1,0,6,,,,,,,,,,,,,,,,3,,78,72
122295,note_on,,1,0,8,,,,,,,,,,,,,,,,10,,78,72
122309,note_on,,14,0,6,,,,,,,,,,,,,,,,3,,78,0
122309,note_on,,14,0,8,,,,,,,,,,,,,,,,10,,78,0
122310,note_on,,1,0,6,,,,,,,,,,,,,,,,3,,76,72
122310,note_on,,1,0,8,,,,,,,,,,,,,,,,10,,76,72
122324,note_on,,14,0,6,,,,,,,,,,,,,,,,3,,76,0
122324,note_on,,14,0,8,,,,,,,,,,,,,,,,10,,76,0
122325,note_on,,1,0,8,,,,,,,,,,,,,,,,10,,78,72
122325,note_on,,1,0,6,,,,,,,,,,,,,,,,3,,78,72
122339,note_on,,14,0,8,,,,,,,,,,,,,,,,10,,78,0
122339,note_on,,14,0,6,,,,,,,,,,,,,,,,3,,78,0
122340,note_on,,1,0,8,,,,,,,,,,,,,,,,10,,76,72
122340,note_on,,1,0,6,,,,,,,,,,,,,,,,3,,76,72
122354,note_on,,14,0,6,,,,,,,,,,,,,,,,3,,76,0
122354,note_on,,14,0,8,,,,,,,,,,,,,,,,10,,76,0
122355,note_on,,1,0,6,,,,,,,,,,,,,,,,3,,78,72
122355,note_on,,1,0,8,,,,,,,,,,,,,,,,10,,78,72
122369,note_on,,14,0,8,,,,,,,,,,,,,,,,10,,78,0
122369,note_on,,14,0,6,,,,,,,,,,,,,,,,3,,78,0
122370,note_on,,1,0,6,,,,,,,,,,,,,,,,3,,76,72
122370,note_on,,1,0,8,,,,,,,,,,,,,,,,10,,76,72
122384,note_on,,14,0,6,,,,,,,,,,,,,,,,3,,76,0
122384,note_on,,14,0,8,,,,,,,,,,,,,,,,10,,76,0
122385,note_on,,1,0,8,,,,,,,,,,,,,,,,10,,78,72
122385,note_on,,1,0,6,,,,,,,,,,,,,,,,3,,78,72
122399,note_on,,119,0,5,,,,,,,,,,,,,,,,2,,57,0
122399,note_on,,14,0,8,,,,,,,,,,,,,,,,10,,78,0
122399,note_on,,119,0,11,,,,,,,,,,,,,,,,13,,57,0
122399,note_on,,119,0,12,,,,,,,,,,,,,,,,15,,57,0
122399,note_on,,14,0,6,,,,,,,,,,,,,,,,3,,78,0
122399,note_on,,119,0,10,,,,,,,,,,,,,,,,12,,57,0
122400,note_on,,1,0,6,,,,,,,,,,,,,,,,3,,76,72
122400,note_on,,1,0,5,,,,,,,,,,,,,,,,2,,45,72
122400,note_on,,1,0,11,,,,,,,,,,,,,,,,13,,45,72
122400,note_on,,1,0,12,,,,,,,,,,,,,,,,15,,45,72
122400,note_on,,0,0,12,,,,,,,,,,,,,,,,15,,57,72
122400,note_on,,1,0,8,,,,,,,,,,,,,,,,10,,76,72
122400,note_on,,1,0,10,,,,,,,,,,,,,,,,12,,69,72
122414,note_on,,14,0,8,,,,,,,,,,,,,,,,10,,76,0
122414,note_on,,14,0,6,,,,,,,,,,,,,,,,3,,76,0
122415,note_on,,1,0,8,,,,,,,,,,,,,,,,10,,78,72
122415,note_on,,1,0,6,,,,,,,,,,,,,,,,3,,78,72
122429,note_on,,14,0,8,,,,,,,,,,,,,,,,10,,78,0
122429,note_on,,14,0,6,,,,,,,,,,,,,,,,3,,78,0
122430,note_on,,1,0,8,,,,,,,,,,,,,,,,10,,74,72
122430,note_on,,1,0,6,,,,,,,,,,,,,,,,3,,74,72
122444,note_on,,14,0,8,,,,,,,,,,,,,,,,10,,74,0
122444,note_on,,14,0,6,,,,,,,,,,,,,,,,3,,74,0
122445,note_on,,1,0,8,,,,,,,,,,,,,,,,10,,76,72
122445,note_on,,1,0,6,,,,,,,,,,,,,,,,3,,76,72
122459,note_on,,14,0,8,,,,,,,,,,,,,,,,10,,76,0
122459,note_on,,179,0,9,,,,,,,,,,,,,,,,11,,73,0
122459,note_on,,14,0,6,,,,,,,,,,,,,,,,3,,76,0
122460,note_on,,1,0,6,,,,,,,,,,,,,,,,3,,74,72
122460,note_on,,1,0,9,,,,,,,,,,,,,,,,11,,74,72
122460,note_on,,1,0,8,,,,,,,,,,,,,,,,10,,74,72
122519,note_on,,59,0,9,,,,,,,,,,,,,,,,11,,74,0
122519,note_on,,0,0,12,,,,,,,,,,,,,,,,15,,69,0
122519,note_on,,119,0,12,,,,,,,,,,,,,,,,15,,64,0
122519,note_on,,119,0,10,,,,,,,,,,,,,,,,12,,69,0
122519,note_on,,59,0,8,,,,,,,,,,,,,,,,10,,74,0
122519,note_on,,119,0,5,,,,,,,,,,,,,,,,2,,45,0
122519,note_on,,0,0,12,,,,,,,,,,,,,,,,15,,57,0
122519,note_on,,119,0,11,,,,,,,,,,,,,,,,13,,45,0
122519,note_on,,0,0,12,,,,,,,,,,,,,,,,15,,45,0
122519,note_on,,59,0,6,,,,,,,,,,,,,,,,3,,74,0
122519,note_on,,0,0,12,,,,,,,,,,,,,,,,15,,73,0
122520,note_on,,1,0,11,,,,,,,,,,,,,,,,13,,50,72
122520,set_tempo,,5520,1,0,,,,,,,,,1333333,,,,,,,,,,
122520,note_on,,0,0,12,,,,,,,,,,,,,,,,15,,69,72
122520,note_on,,0,0,12,,,,,,,,,,,,,,,,15,,74,72
122520,note_on,,1,0,12,,,,,,,,,,,,,,,,15,,66,72
122520,note_on,,0,0,12,,,,,,,,,,,,,,,,15,,50,72
122520,note_on,,1,0,5,,,,,,,,,,,,,,,,2,,50,72
122520,note_on,,1,0,10,,,,,,,,,,,,,,,,12,,66,72
122520,note_on,,0,0,12,,,,,,,,,,,,,,,,15,,57,72
122520,note_on,,1,0,9,,,,,,,,,,,,,,,,11,,74,72
122520,note_on,,1,0,8,,,,,,,,,,,,,,,,10,,74,72
122520,note_on,,1,0,6,,,,,,,,,,,,,,,,3,,74,72
122759,note_on,,0,0,12,,,,,,,,,,,,,,,,15,,50,0
122759,note_on,,0,0,12,,,,,,,,,,,,,,,,15,,74,0
122759,note_on,,0,0,12,,,,,,,,,,,,,,,,15,,69,0
122759,note_on,,239,0,12,,,,,,,,,,,,,,,,15,,66,0
122759,note_on,,239,0,9,,,,,,,,,,,,,,,,11,,74,0
122759,end_of_track,,0,1,11,,,,,,,,,,,,,,,,,,,
122759,end_of_track,,0,1,9,,,,,,,,,,,,,,,,,,,
122759,note_on,,0,0,12,,,,,,,,,,,,,,,,15,,57,0
122759,note_on,,239,0,5,,,,,,,,,,,,,,,,2,,50,0
122759,end_of_track,,0,1,5,,,,,,,,,,,,,,,,,,,
122759,note_on,,239,0,6,,,,,,,,,,,,,,,,3,,74,0
122759,end_of_track,,0,1,6,,,,,,,,,,,,,,,,,,,
122759,end_of_track,,0,1,10,,,,,,,,,,,,,,,,,,,
122759,note_on,,239,0,10,,,,,,,,,,,,,,,,12,,66,0
122759,end_of_track,,0,1,8,,,,,,,,,,,,,,,,,,,
122759,note_on,,239,0,8,,,,,,,,,,,,,,,,10,,74,0
122759,note_on,,239,0,11,,,,,,,,,,,,,,,,13,,50,0
122759,end_of_track,,0,1,12,,,,,,,,,,,,,,,,,,,
123240,end_of_track,,0,1,0,,,,,,,,,,,,,,,,,,,
123240,set_tempo,,720,1,0,,,,,,,,,500000,,,,,,,,,,
