tick,type,data,time,meta,track,frame_rate,hours,minutes,seconds,frames,sub_frames,port,key,tempo,numerator,denominator,clocks_per_click,notated_32nd_notes_per_beat,control,value,channel,program,note,velocity
0,sequencer_specific,"(0, 0, 91, 35, 1, 0, 5, 4, 35, 0)",0,1,0,,,,,,,,,,,,,,,,,,,
0,track_name,,0,1,11,,,,,,,,,,,,,,,,,,,
0,program_change,,0,0,10,,,,,,,,,,,,,,,,8,60,,
0,control_change,,0,0,10,,,,,,,,,,,,,,10,80,8,,,
0,control_change,,0,0,10,,,,,,,,,,,,,,7,96,8,,,
0,control_change,,0,0,10,,,,,,,,,,,,,,11,127,8,,,
0,midi_port,,0,1,10,,,,,,,0,,,,,,,,,,,,
0,track_name,,0,1,10,,,,,,,,,,,,,,,,,,,
0,program_change,,0,0,9,,,,,,,,,,,,,,,,7,70,,
0,control_change,,0,0,9,,,,,,,,,,,,,,7,96,7,,,
0,control_change,,0,0,9,,,,,,,,,,,,,,10,48,7,,,
0,control_change,,0,0,9,,,,,,,,,,,,,,11,127,7,,,
0,midi_port,,0,1,9,,,,,,,0,,,,,,,,,,,,
0,track_name,,0,1,9,,,,,,,,,,,,,,,,,,,
0,program_change,,0,0,8,,,,,,,,,,,,,,,,6,73,,
0,midi_port,,0,1,11,,,,,,,0,,,,,,,,,,,,
0,control_change,,0,0,8,,,,,,,,,,,,,,10,96,6,,,
0,control_change,,0,0,8,,,,,,,,,,,,,,11,127,6,,,
0,midi_port,,0,1,8,,,,,,,0,,,,,,,,,,,,
0,track_name,,0,1,8,,,,,,,,,,,,,,,,,,,
0,program_change,,0,0,7,,,,,,,,,,,,,,,,5,73,,
0,control_change,,0,0,7,,,,,,,,,,,,,,10,32,5,,,
0,control_change,,0,0,7,,,,,,,,,,,,,,7,96,5,,,
0,control_change,,0,0,7,,,,,,,,,,,,,,11,127,5,,,
0,midi_port,,0,1,7,,,,,,,0,,,,,,,,,,,,
0,track_name,,0,1,7,,,,,,,,,,,,,,,,,,,
0,note_on,,0,0,6,,,,,,,,,,,,,,,,2,,53,72
0,program_change,,0,0,6,,,,,,,,,,,,,,,,2,70,,
0,control_change,,0,0,6,,,,,,,,,,,,,,10,65,2,,,
0,control_change,,0,0,6,,,,,,,,,,,,,,7,80,2,,,
0,control_change,,0,0,6,,,,,,,,,,,,,,11,127,2,,,
0,control_change,,0,0,8,,,,,,,,,,,,,,7,96,6,,,
0,control_change,,0,0,11,,,,,,,,,,,,,,11,127,10,,,
0,control_change,,0,0,11,,,,,,,,,,,,,,7,96,10,,,
0,control_change,,0,0,11,,,,,,,,,,,,,,10,48,10,,,
0,control_change,,0,0,15,,,,,,,,,,,,,,11,127,15,,,
0,control_change,,0,0,15,,,,,,,,,,,,,,7,96,15,,,
0,control_change,,0,0,15,,,,,,,,,,,,,,10,90,15,,,
0,program_change,,0,0,15,,,,,,,,,,,,,,,,15,6,,
0,note_on,,0,0,15,,,,,,,,,,,,,,,,15,,53,72
0,note_on,,0,0,15,,,,,,,,,,,,,,,,15,,68,72
0,note_on,,0,0,15,,,,,,,,,,,,,,,,15,,65,72
0,note_on,,0,0,15,,,,,,,,,,,,,,,,15,,60,72
0,note_on,,0,0,14,,,,,,,,,,,,,,,,13,,53,72
0,program_change,,0,0,14,,,,,,,,,,,,,,,,13,48,,
0,control_change,,0,0,14,,,,,,,,,,,,,,10,96,13,,,
0,control_change,,0,0,14,,,,,,,,,,,,,,7,96,13,,,
0,control_change,,0,0,14,,,,,,,,,,,,,,11,127,13,,,
0,midi_port,,0,1,14,,,,,,,0,,,,,,,,,,,,
0,track_name,,0,1,14,,,,,,,,,,,,,,,,,,,
0,note_on,,0,0,13,,,,,,,,,,,,,,,,12,,60,72
0,program_change,,0,0,13,,,,,,,,,,,,,,,,12,48,,
0,program_change,,0,0,11,,,,,,,,,,,,,,,,10,48,,
0,midi_port,,0,1,15,,,,,,,0,,,,,,,,,,,,
0,track_name,,0,1,12,,,,,,,,,,,,,,,,,,,
0,midi_port,,0,1,12,,,,,,,0,,,,,,,,,,,,
0,control_change,,0,0,12,,,,,,,,,,,,,,11,127,11,,,
0,control_change,,0,0,12,,,,,,,,,,,,,,7,96,11,,,
0,midi_port,,0,1,6,,,,,,,0,,,,,,,,,,,,
0,control_change,,0,0,12,,,,,,,,,,,,,,10,24,11,,,
0,note_on,,0,0,12,,,,,,,,,,,,,,,,11,,68,72
0,track_name,,0,1,13,,,,,,,,,,,,,,,,,,,
0,midi_port,,0,1,13,,,,,,,0,,,,,,,,,,,,
0,control_change,,0,0,13,,,,,,,,,,,,,,11,127,12,,,
0,control_change,,0,0,13,,,,,,,,,,,,,,7,96,12,,,
0,control_change,,0,0,13,,,,,,,,,,,,,,10,80,12,,,
0,program_change,,0,0,12,,,,,,,,,,,,,,,,11,48,,
0,track_name,,0,1,6,,,,,,,,,,,,,,,,,,,
0,track_name,,0,1,15,,,,,,,,,,,,,,,,,,,
0,set_tempo,,0,1,0,,,,,,,,,923076,,,,,,,,,,
0,smpte_offset,,0,1,0,25,32,0,3,0,0,,,,,,,,,,,,,
0,midi_port,,0,1,0,,,,,,,0,,,,,,,,,,,,
0,key_signature,,0,1,0,,,,,,,,Fm,,,,,,,,,,,
0,time_signature,,0,1,0,,,,,,,,,,4,4,24,8,,,,,,
0,track_name,,0,1,3,,,,,,,,,,,,,,,,,,,
0,midi_port,,0,1,3,,,,,,,0,,,,,,,,,,,,
0,end_of_track,,0,1,3,,,,,,,,,,,,,,,,,,,
0,midi_port,,0,1,4,,,,,,,0,,,,,,,,,,,,
0,end_of_track,,0,1,4,,,,,,,,,,,,,,,,,,,
0,track_name,,0,1,5,,,,,,,,,,,,,,,,,,,
0,instrument_name,,0,1,0,,,,,,,,,,,,,,,,,,,
0,midi_port,,0,1,5,,,,,,,0,,,,,,,,,,,,
0,program_change,,0,0,5,,,,,,,,,,,,,,,,1,68,,
0,control_change,,0,0,5,,,,,,,,,,,,,,10,70,1,,,
0,control_change,,0,0,5,,,,,,,,,,,,,,7,72,1,,,
0,control_change,,0,0,5,,,,,,,,,,,,,,11,127,1,,,
0,track_name,,0,1,1,,,,,,,,,,,,,,,,,,,
0,midi_port,,0,1,1,,,,,,,0,,,,,,,,,,,,
0,end_of_track,,0,1,1,,,,,,,,,,,,,,,,,,,
0,track_name,,0,1,2,,,,,,,,,,,,,,,,,,,
0,midi_port,,0,1,2,,,,,,,0,,,,,,,,,,,,
0,end_of_track,,0,1,2,,,,,,,,,,,,,,,,,,,
0,track_name,,0,1,0,,,,,,,,,,,,,,,,,,,
45,note_on,,45,0,11,,,,,,,,,,,,,,,,10,,72,72
59,note_on,,14,0,11,,,,,,,,,,,,,,,,10,,72,0
60,note_on,,1,0,11,,,,,,,,,,,,,,,,10,,72,72
104,note_on,,44,0,11,,,,,,,,,,,,,,,,10,,72,0
105,note_on,,1,0,11,,,,,,,,,,,,,,,,10,,72,72
119,note_on,,119,0,12,,,,,,,,,,,,,,,,11,,68,0
119,note_on,,14,0,11,,,,,,,,,,,,,,,,10,,72,0
119,note_on,,119,0,14,,,,,,,,,,,,,,,,13,,53,0
119,note_on,,119,0,6,,,,,,,,,,,,,,,,2,,53,0
119,note_on,,0,0,15,,,,,,,,,,,,,,,,15,,60,0
119,note_on,,0,0,15,,,,,,,,,,,,,,,,15,,65,0
119,note_on,,119,0,13,,,,,,,,,,,,,,,,12,,60,0
119,note_on,,119,0,15,,,,,,,,,,,,,,,,15,,53,0
119,note_on,,0,0,15,,,,,,,,,,,,,,,,15,,68,0
120,note_on,,1,0,11,,,,,,,,,,,,,,,,10,,77,72
165,note_on,,46,0,12,,,,,,,,,,,,,,,,11,,68,72
165,note_on,,46,0,6,,,,,,,,,,,,,,,,2,,53,72
165,note_on,,46,0,13,,,,,,,,,,,,,,,,12,,60,72
165,note_on,,46,0,14,,,,,,,,,,,,,,,,13,,53,72
165,note_on,,46,0,15,,,,,,,,,,,,,,,,15,,53,72
179,note_on,,14,0,6,,,,,,,,,,,,,,,,2,,53,0
179,note_on,,14,0,14,,,,,,,,,,,,,,,,13,,53,0
179,note_on,,14,0,12,,,,,,,,,,,,,,,,11,,68,0
179,note_on,,14,0,15,,,,,,,,,,,,,,,,15,,53,0
179,note_on,,14,0,13,,,,,,,,,,,,,,,,12,,60,0
180,note_on,,0,0,15,,,,,,,,,,,,,,,,15,,65,72
180,note_on,,0,0,15,,,,,,,,,,,,,,,,15,,68,72
180,note_on,,1,0,6,,,,,,,,,,,,,,,,2,,53,72
180,note_on,,1,0,12,,,,,,,,,,,,,,,,11,,68,72
180,note_on,,1,0,15,,,,,,,,,,,,,,,,15,,53,72
180,note_on,,1,0,14,,,,,,,,,,,,,,,,13,,53,72
180,note_on,,0,0,15,,,,,,,,,,,,,,,,15,,60,72
180,note_on,,1,0,13,,,,,,,,,,,,,,,,12,,60,72
224,note_on,,44,0,15,,,,,,,,,,,,,,,,15,,53,0
224,note_on,,44,0,13,,,,,,,,,,,,,,,,12,,60,0
224,note_on,,44,0,6,,,,,,,,,,,,,,,,2,,53,0
224,note_on,,44,0,14,,,,,,,,,,,,,,,,13,,53,0
224,note_on,,44,0,12,,,,,,,,,,,,,,,,11,,68,0
225,note_on,,1,0,6,,,,,,,,,,,,,,,,2,,53,72
225,note_on,,1,0,14,,,,,,,,,,,,,,,,13,,53,72
225,note_on,,1,0,12,,,,,,,,,,,,,,,,11,,68,72
225,note_on,,1,0,13,,,,,,,,,,,,,,,,12,,60,72
225,note_on,,1,0,15,,,,,,,,,,,,,,,,15,,53,72
239,note_on,,0,0,15,,,,,,,,,,,,,,,,15,,53,0
239,note_on,,0,0,15,,,,,,,,,,,,,,,,15,,60,0
239,note_on,,14,0,15,,,,,,,,,,,,,,,,15,,68,0
239,note_on,,14,0,13,,,,,,,,,,,,,,,,12,,60,0
239,note_on,,14,0,6,,,,,,,,,,,,,,,,2,,53,0
239,note_on,,0,0,15,,,,,,,,,,,,,,,,15,,65,0
239,note_on,,14,0,14,,,,,,,,,,,,,,,,13,,53,0
239,note_on,,119,0,11,,,,,,,,,,,,,,,,10,,77,0
239,note_on,,14,0,12,,,,,,,,,,,,,,,,11,,68,0
240,note_on,,1,0,12,,,,,,,,,,,,,,,,11,,65,72
240,note_on,,1,0,6,,,,,,,,,,,,,,,,2,,56,72
240,note_on,,0,0,15,,,,,,,,,,,,,,,,15,,60,72
240,note_on,,1,0,15,,,,,,,,,,,,,,,,15,,56,72
240,note_on,,1,0,14,,,,,,,,,,,,,,,,13,,56,72
240,note_on,,1,0,13,,,,,,,,,,,,,,,,12,,60,72
240,note_on,,0,0,15,,,,,,,,,,,,,,,,15,,65,72
240,note_on,,0,0,15,,,,,,,,,,,,,,,,15,,72,72
285,note_on,,46,0,11,,,,,,,,,,,,,,,,10,,72,72
299,note_on,,14,0,11,,,,,,,,,,,,,,,,10,,72,0
300,note_on,,1,0,11,,,,,,,,,,,,,,,,10,,72,72
344,note_on,,44,0,11,,,,,,,,,,,,,,,,10,,72,0
345,note_on,,1,0,11,,,,,,,,,,,,,,,,10,,72,72
359,note_on,,119,0,12,,,,,,,,,,,,,,,,11,,65,0
359,note_on,,119,0,15,,,,,,,,,,,,,,,,15,,56,0
359,note_on,,119,0,6,,,,,,,,,,,,,,,,2,,56,0
359,note_on,,14,0,11,,,,,,,,,,,,,,,,10,,72,0
359,note_on,,119,0,14,,,,,,,,,,,,,,,,13,,56,0
359,note_on,,119,0,13,,,,,,,,,,,,,,,,12,,60,0
359,note_on,,0,0,15,,,,,,,,,,,,,,,,15,,60,0
359,note_on,,0,0,15,,,,,,,,,,,,,,,,15,,72,0
359,note_on,,0,0,15,,,,,,,,,,,,,,,,15,,65,0
360,note_on,,1,0,11,,,,,,,,,,,,,,,,10,,77,72
405,note_on,,46,0,6,,,,,,,,,,,,,,,,2,,56,72
405,note_on,,46,0,13,,,,,,,,,,,,,,,,12,,68,72
405,note_on,,46,0,14,,,,,,,,,,,,,,,,13,,56,72
405,note_on,,46,0,12,,,,,,,,,,,,,,,,11,,72,72
405,note_on,,46,0,15,,,,,,,,,,,,,,,,15,,56,72
419,note_on,,14,0,13,,,,,,,,,,,,,,,,12,,68,0
419,note_on,,14,0,6,,,,,,,,,,,,,,,,2,,56,0
419,note_on,,14,0,12,,,,,,,,,,,,,,,,11,,72,0
419,note_on,,14,0,15,,,,,,,,,,,,,,,,15,,56,0
419,note_on,,14,0,14,,,,,,,,,,,,,,,,13,,56,0
420,note_on,,1,0,13,,,,,,,,,,,,,,,,12,,68,72
420,note_on,,1,0,15,,,,,,,,,,,,,,,,15,,56,72
420,note_on,,0,0,15,,,,,,,,,,,,,,,,15,,72,72
420,note_on,,0,0,15,,,,,,,,,,,,,,,,15,,65,72
420,note_on,,1,0,6,,,,,,,,,,,,,,,,2,,56,72
420,note_on,,1,0,12,,,,,,,,,,,,,,,,11,,72,72
420,note_on,,1,0,14,,,,,,,,,,,,,,,,13,,56,72
464,note_on,,44,0,12,,,,,,,,,,,,,,,,11,,72,0
464,note_on,,44,0,6,,,,,,,,,,,,,,,,2,,56,0
464,note_on,,44,0,13,,,,,,,,,,,,,,,,12,,68,0
464,note_on,,44,0,14,,,,,,,,,,,,,,,,13,,56,0
464,note_on,,44,0,15,,,,,,,,,,,,,,,,15,,56,0
465,note_on,,1,0,14,,,,,,,,,,,,,,,,13,,56,72
465,note_on,,1,0,6,,,,,,,,,,,,,,,,2,,56,72
465,note_on,,1,0,12,,,,,,,,,,,,,,,,11,,72,72
465,note_on,,1,0,15,,,,,,,,,,,,,,,,15,,56,72
465,note_on,,1,0,13,,,,,,,,,,,,,,,,12,,68,72
479,note_on,,14,0,15,,,,,,,,,,,,,,,,15,,72,0
479,note_on,,14,0,12,,,,,,,,,,,,,,,,11,,72,0
479,note_on,,0,0,15,,,,,,,,,,,,,,,,15,,65,0
479,note_on,,0,0,15,,,,,,,,,,,,,,,,15,,56,0
479,note_on,,119,0,11,,,,,,,,,,,,,,,,10,,77,0
479,note_on,,14,0,6,,,,,,,,,,,,,,,,2,,56,0
479,note_on,,14,0,14,,,,,,,,,,,,,,,,13,,56,0
479,note_on,,14,0,13,,,,,,,,,,,,,,,,12,,68,0
480,note_on,,1,0,6,,,,,,,,,,,,,,,,2,,61,72
480,note_on,,1,0,12,,,,,,,,,,,,,,,,11,,70,72
480,note_on,,0,0,15,,,,,,,,,,,,,,,,15,,65,72
480,note_on,,0,0,15,,,,,,,,,,,,,,,,15,,70,72
480,note_on,,0,0,15,,,,,,,,,,,,,,,,15,,77,72
480,note_on,,1,0,13,,,,,,,,,,,,,,,,12,,65,72
480,note_on,,1,0,14,,,,,,,,,,,,,,,,13,,61,72
480,note_on,,1,0,15,,,,,,,,,,,,,,,,15,,61,72
525,note_on,,46,0,11,,,,,,,,,,,,,,,,10,,65,72
539,note_on,,14,0,11,,,,,,,,,,,,,,,,10,,65,0
540,note_on,,1,0,11,,,,,,,,,,,,,,,,10,,65,72
584,note_on,,44,0,11,,,,,,,,,,,,,,,,10,,65,0
585,note_on,,1,0,11,,,,,,,,,,,,,,,,10,,65,72
599,note_on,,14,0,11,,,,,,,,,,,,,,,,10,,65,0
599,note_on,,119,0,13,,,,,,,,,,,,,,,,12,,65,0
599,note_on,,0,0,15,,,,,,,,,,,,,,,,15,,65,0
599,note_on,,0,0,15,,,,,,,,,,,,,,,,15,,77,0
599,note_on,,119,0,15,,,,,,,,,,,,,,,,15,,61,0
599,note_on,,119,0,14,,,,,,,,,,,,,,,,13,,61,0
599,note_on,,119,0,12,,,,,,,,,,,,,,,,11,,70,0
599,note_on,,0,0,15,,,,,,,,,,,,,,,,15,,70,0
599,note_on,,119,0,6,,,,,,,,,,,,,,,,2,,61,0
600,note_on,,1,0,11,,,,,,,,,,,,,,,,10,,77,72
645,note_on,,46,0,13,,,,,,,,,,,,,,,,12,,65,72
645,note_on,,46,0,14,,,,,,,,,,,,,,,,13,,60,72
645,note_on,,46,0,12,,,,,,,,,,,,,,,,11,,68,72
645,note_on,,46,0,15,,,,,,,,,,,,,,,,15,,60,72
645,note_on,,46,0,6,,,,,,,,,,,,,,,,2,,60,72
659,note_on,,14,0,14,,,,,,,,,,,,,,,,13,,60,0
659,note_on,,14,0,6,,,,,,,,,,,,,,,,2,,60,0
659,note_on,,14,0,12,,,,,,,,,,,,,,,,11,,68,0
659,note_on,,14,0,15,,,,,,,,,,,,,,,,15,,60,0
659,note_on,,14,0,13,,,,,,,,,,,,,,,,12,,65,0
660,note_on,,1,0,13,,,,,,,,,,,,,,,,12,,65,72
660,note_on,,1,0,14,,,,,,,,,,,,,,,,13,,60,72
660,note_on,,0,0,15,,,,,,,,,,,,,,,,15,,72,72
660,note_on,,1,0,15,,,,,,,,,,,,,,,,15,,60,72
660,note_on,,1,0,6,,,,,,,,,,,,,,,,2,,60,72
660,note_on,,1,0,12,,,,,,,,,,,,,,,,11,,68,72
660,note_on,,0,0,15,,,,,,,,,,,,,,,,15,,65,72
660,note_on,,0,0,15,,,,,,,,,,,,,,,,15,,68,72
704,note_on,,44,0,6,,,,,,,,,,,,,,,,2,,60,0
704,note_on,,44,0,12,,,,,,,,,,,,,,,,11,,68,0
704,note_on,,44,0,13,,,,,,,,,,,,,,,,12,,65,0
704,note_on,,44,0,15,,,,,,,,,,,,,,,,15,,60,0
704,note_on,,44,0,14,,,,,,,,,,,,,,,,13,,60,0
705,note_on,,1,0,13,,,,,,,,,,,,,,,,12,,65,72
705,note_on,,1,0,15,,,,,,,,,,,,,,,,15,,60,72
705,note_on,,1,0,6,,,,,,,,,,,,,,,,2,,60,72
705,note_on,,1,0,14,,,,,,,,,,,,,,,,13,,60,72
705,note_on,,1,0,12,,,,,,,,,,,,,,,,11,,68,72
719,note_on,,14,0,13,,,,,,,,,,,,,,,,12,,65,0
719,note_on,,0,0,15,,,,,,,,,,,,,,,,15,,60,0
719,note_on,,0,0,15,,,,,,,,,,,,,,,,15,,65,0
719,note_on,,0,0,15,,,,,,,,,,,,,,,,15,,68,0
719,note_on,,14,0,15,,,,,,,,,,,,,,,,15,,72,0
719,note_on,,14,0,14,,,,,,,,,,,,,,,,13,,60,0
719,note_on,,14,0,12,,,,,,,,,,,,,,,,11,,68,0
719,note_on,,14,0,6,,,,,,,,,,,,,,,,2,,60,0
720,note_on,,0,0,15,,,,,,,,,,,,,,,,15,,74,72
720,note_on,,1,0,13,,,,,,,,,,,,,,,,12,,62,72
720,note_on,,0,0,15,,,,,,,,,,,,,,,,15,,65,72
720,note_on,,0,0,15,,,,,,,,,,,,,,,,15,,68,72
720,note_on,,1,0,15,,,,,,,,,,,,,,,,15,,59,72
720,note_on,,1,0,6,,,,,,,,,,,,,,,,2,,59,72
720,note_on,,1,0,14,,,,,,,,,,,,,,,,13,,59,72
720,note_on,,1,0,12,,,,,,,,,,,,,,,,11,,68,72
764,note_on,,164,0,11,,,,,,,,,,,,,,,,10,,77,0
765,note_on,,1,0,11,,,,,,,,,,,,,,,,10,,77,72
779,note_on,,14,0,11,,,,,,,,,,,,,,,,10,,77,0
780,note_on,,1,0,11,,,,,,,,,,,,,,,,10,,77,72
824,note_on,,44,0,11,,,,,,,,,,,,,,,,10,,77,0
824,note_on,,104,0,12,,,,,,,,,,,,,,,,11,,68,0
825,note_on,,1,0,11,,,,,,,,,,,,,,,,10,,77,72
825,note_on,,1,0,12,,,,,,,,,,,,,,,,11,,68,72
839,note_on,,0,0,15,,,,,,,,,,,,,,,,15,,65,0
839,note_on,,14,0,11,,,,,,,,,,,,,,,,10,,77,0
839,note_on,,14,0,12,,,,,,,,,,,,,,,,11,,68,0
839,note_on,,119,0,15,,,,,,,,,,,,,,,,15,,74,0
839,note_on,,0,0,15,,,,,,,,,,,,,,,,15,,68,0
839,note_on,,119,0,13,,,,,,,,,,,,,,,,12,,62,0
840,note_on,,1,0,12,,,,,,,,,,,,,,,,11,,67,72
840,note_on,,1,0,11,,,,,,,,,,,,,,,,10,,77,72
884,note_on,,164,0,6,,,,,,,,,,,,,,,,2,,59,0
884,note_on,,44,0,12,,,,,,,,,,,,,,,,11,,67,0
884,note_on,,45,0,15,,,,,,,,,,,,,,,,15,,59,0
884,note_on,,164,0,14,,,,,,,,,,,,,,,,13,,59,0
884,note_on,,44,0,11,,,,,,,,,,,,,,,,10,,77,0
885,note_on,,1,0,12,,,,,,,,,,,,,,,,11,,67,72
885,note_on,,1,0,11,,,,,,,,,,,,,,,,10,,77,72
885,note_on,,46,0,13,,,,,,,,,,,,,,,,12,,62,72
885,note_on,,1,0,14,,,,,,,,,,,,,,,,13,,59,72
885,note_on,,1,0,6,,,,,,,,,,,,,,,,2,,59,72
885,note_on,,1,0,15,,,,,,,,,,,,,,,,15,,59,72
899,note_on,,14,0,15,,,,,,,,,,,,,,,,15,,59,0
899,note_on,,14,0,14,,,,,,,,,,,,,,,,13,,59,0
899,note_on,,14,0,12,,,,,,,,,,,,,,,,11,,67,0
899,note_on,,14,0,6,,,,,,,,,,,,,,,,2,,59,0
899,note_on,,14,0,13,,,,,,,,,,,,,,,,12,,62,0
899,note_on,,14,0,11,,,,,,,,,,,,,,,,10,,77,0
900,note_on,,1,0,13,,,,,,,,,,,,,,,,12,,62,72
900,note_on,,0,0,15,,,,,,,,,,,,,,,,15,,62,72
900,note_on,,1,0,14,,,,,,,,,,,,,,,,13,,59,72
900,note_on,,0,0,15,,,,,,,,,,,,,,,,15,,67,72
900,note_on,,0,0,15,,,,,,,,,,,,,,,,15,,74,72
900,note_on,,1,0,12,,,,,,,,,,,,,,,,11,,67,72
900,note_on,,1,0,11,,,,,,,,,,,,,,,,10,,77,72
900,note_on,,1,0,6,,,,,,,,,,,,,,,,2,,59,72
900,note_on,,1,0,15,,,,,,,,,,,,,,,,15,,59,72
944,note_on,,44,0,6,,,,,,,,,,,,,,,,2,,59,0
944,note_on,,44,0,14,,,,,,,,,,,,,,,,13,,59,0
944,note_on,,44,0,13,,,,,,,,,,,,,,,,12,,62,0
944,note_on,,44,0,11,,,,,,,,,,,,,,,,10,,77,0
944,note_on,,44,0,15,,,,,,,,,,,,,,,,15,,59,0
944,note_on,,44,0,12,,,,,,,,,,,,,,,,11,,67,0
945,note_on,,1,0,6,,,,,,,,,,,,,,,,2,,59,72
945,note_on,,1,0,11,,,,,,,,,,,,,,,,10,,79,72
945,note_on,,1,0,14,,,,,,,,,,,,,,,,13,,59,72
945,note_on,,1,0,15,,,,,,,,,,,,,,,,15,,59,72
945,note_on,,1,0,13,,,,,,,,,,,,,,,,12,,62,72
945,note_on,,1,0,12,,,,,,,,,,,,,,,,11,,67,72
959,note_on,,14,0,11,,,,,,,,,,,,,,,,10,,79,0
959,note_on,,14,0,6,,,,,,,,,,,,,,,,2,,59,0
959,note_on,,14,0,12,,,,,,,,,,,,,,,,11,,67,0
959,note_on,,14,0,14,,,,,,,,,,,,,,,,13,,59,0
959,note_on,,0,0,15,,,,,,,,,,,,,,,,15,,59,0
959,note_on,,0,0,15,,,,,,,,,,,,,,,,15,,62,0
959,note_on,,0,0,15,,,,,,,,,,,,,,,,15,,67,0
959,note_on,,14,0,15,,,,,,,,,,,,,,,,15,,74,0
959,note_on,,14,0,13,,,,,,,,,,,,,,,,12,,62,0
960,note_on,,1,0,12,,,,,,,,,,,,,,,,11,,67,72
960,note_on,,1,0,14,,,,,,,,,,,,,,,,13,,60,72
960,note_on,,0,0,15,,,,,,,,,,,,,,,,15,,67,72
960,note_on,,0,0,15,,,,,,,,,,,,,,,,15,,72,72
960,note_on,,0,0,15,,,,,,,,,,,,,,,,15,,76,72
960,note_on,,1,0,11,,,,,,,,,,,,,,,,10,,76,72
960,note_on,,1,0,13,,,,,,,,,,,,,,,,12,,64,72
960,note_on,,1,0,6,,,,,,,,,,,,,,,,2,,60,72
960,note_on,,1,0,15,,,,,,,,,,,,,,,,15,,60,72
1004,note_on,,44,0,11,,,,,,,,,,,,,,,,10,,76,0
1005,note_on,,1,0,11,,,,,,,,,,,,,,,,10,,72,72
1019,note_on,,14,0,11,,,,,,,,,,,,,,,,10,,72,0
1020,note_on,,1,0,11,,,,,,,,,,,,,,,,10,,72,72
1064,note_on,,44,0,11,,,,,,,,,,,,,,,,10,,72,0
1065,note_on,,1,0,11,,,,,,,,,,,,,,,,10,,74,72
1079,note_on,,119,0,15,,,,,,,,,,,,,,,,15,,60,0
1079,note_on,,0,0,15,,,,,,,,,,,,,,,,15,,76,0
1079,note_on,,119,0,14,,,,,,,,,,,,,,,,13,,60,0
1079,note_on,,119,0,13,,,,,,,,,,,,,,,,12,,64,0
1079,note_on,,119,0,6,,,,,,,,,,,,,,,,2,,60,0
1079,note_on,,119,0,12,,,,,,,,,,,,,,,,11,,67,0
1079,note_on,,0,0,15,,,,,,,,,,,,,,,,15,,72,0
1079,note_on,,0,0,15,,,,,,,,,,,,,,,,15,,67,0
1079,note_on,,14,0,11,,,,,,,,,,,,,,,,10,,74,0
1080,note_on,,1,0,11,,,,,,,,,,,,,,,,10,,75,72
1125,note_on,,46,0,12,,,,,,,,,,,,,,,,11,,72,72
1125,note_on,,46,0,13,,,,,,,,,,,,,,,,12,,65,72
1125,note_on,,46,0,14,,,,,,,,,,,,,,,,13,,57,72
1125,note_on,,46,0,15,,,,,,,,,,,,,,,,15,,57,72
1125,note_on,,46,0,6,,,,,,,,,,,,,,,,2,,57,72
1139,note_on,,14,0,15,,,,,,,,,,,,,,,,15,,57,0
1139,note_on,,14,0,13,,,,,,,,,,,,,,,,12,,65,0
1139,note_on,,14,0,14,,,,,,,,,,,,,,,,13,,57,0
1139,note_on,,14,0,6,,,,,,,,,,,,,,,,2,,57,0
1139,note_on,,14,0,12,,,,,,,,,,,,,,,,11,,72,0
1140,note_on,,1,0,6,,,,,,,,,,,,,,,,2,,57,72
1140,note_on,,0,0,15,,,,,,,,,,,,,,,,15,,65,72
1140,note_on,,1,0,14,,,,,,,,,,,,,,,,13,,57,72
1140,note_on,,0,0,15,,,,,,,,,,,,,,,,15,,72,72
1140,note_on,,1,0,13,,,,,,,,,,,,,,,,12,,65,72
1140,note_on,,1,0,15,,,,,,,,,,,,,,,,15,,57,72
1140,note_on,,0,0,15,,,,,,,,,,,,,,,,15,,60,72
1140,note_on,,1,0,12,,,,,,,,,,,,,,,,11,,72,72
1184,note_on,,104,0,11,,,,,,,,,,,,,,,,10,,75,0
1184,note_on,,44,0,15,,,,,,,,,,,,,,,,15,,57,0
1184,note_on,,44,0,12,,,,,,,,,,,,,,,,11,,72,0
1184,note_on,,44,0,13,,,,,,,,,,,,,,,,12,,65,0
1184,note_on,,44,0,14,,,,,,,,,,,,,,,,13,,57,0
1184,note_on,,44,0,6,,,,,,,,,,,,,,,,2,,57,0
1185,note_on,,1,0,12,,,,,,,,,,,,,,,,11,,72,72
1185,note_on,,1,0,13,,,,,,,,,,,,,,,,12,,65,72
1185,note_on,,1,0,11,,,,,,,,,,,,,,,,10,,77,72
1185,note_on,,1,0,6,,,,,,,,,,,,,,,,2,,57,72
1185,note_on,,1,0,15,,,,,,,,,,,,,,,,15,,57,72
1185,note_on,,1,0,14,,,,,,,,,,,,,,,,13,,57,72
1199,note_on,,14,0,12,,,,,,,,,,,,,,,,11,,72,0
1199,note_on,,14,0,6,,,,,,,,,,,,,,,,2,,57,0
1199,note_on,,14,0,11,,,,,,,,,,,,,,,,10,,77,0
1199,note_on,,14,0,15,,,,,,,,,,,,,,,,15,,72,0
1199,note_on,,14,0,13,,,,,,,,,,,,,,,,12,,65,0
1199,note_on,,0,0,15,,,,,,,,,,,,,,,,15,,60,0
1199,note_on,,0,0,15,,,,,,,,,,,,,,,,15,,65,0
1199,note_on,,14,0,14,,,,,,,,,,,,,,,,13,,57,0
1199,note_on,,0,0,15,,,,,,,,,,,,,,,,15,,57,0
1200,note_on,,1,0,14,,,,,,,,,,,,,,,,13,,58,72
1200,note_on,,1,0,12,,,,,,,,,,,,,,,,11,,65,72
1200,note_on,,1,0,11,,,,,,,,,,,,,,,,10,,74,72
1200,note_on,,0,0,15,,,,,,,,,,,,,,,,15,,58,72
1200,note_on,,0,0,15,,,,,,,,,,,,,,,,15,,73,72
1200,note_on,,0,0,15,,,,,,,,,,,,,,,,15,,70,72
1200,note_on,,1,0,15,,,,,,,,,,,,,,,,15,,65,72
1200,note_on,,1,0,13,,,,,,,,,,,,,,,,12,,70,72
1200,note_on,,1,0,6,,,,,,,,,,,,,,,,2,,58,72
1244,note_on,,44,0,11,,,,,,,,,,,,,,,,10,,74,0
1245,note_on,,1,0,11,,,,,,,,,,,,,,,,10,,70,72
1259,note_on,,14,0,11,,,,,,,,,,,,,,,,10,,70,0
1260,note_on,,1,0,11,,,,,,,,,,,,,,,,10,,70,72
1304,note_on,,44,0,11,,,,,,,,,,,,,,,,10,,70,0
1305,note_on,,1,0,11,,,,,,,,,,,,,,,,10,,72,72
1319,note_on,,119,0,6,,,,,,,,,,,,,,,,2,,58,0
1319,note_on,,119,0,14,,,,,,,,,,,,,,,,13,,58,0
1319,note_on,,119,0,15,,,,,,,,,,,,,,,,15,,65,0
1319,note_on,,0,0,15,,,,,,,,,,,,,,,,15,,58,0
1319,note_on,,0,0,15,,,,,,,,,,,,,,,,15,,70,0
1319,note_on,,14,0,11,,,,,,,,,,,,,,,,10,,72,0
1319,note_on,,119,0,13,,,,,,,,,,,,,,,,12,,70,0
1319,note_on,,0,0,15,,,,,,,,,,,,,,,,15,,73,0
1319,note_on,,119,0,12,,,,,,,,,,,,,,,,11,,65,0
1320,note_on,,1,0,11,,,,,,,,,,,,,,,,10,,73,72
1365,note_on,,46,0,6,,,,,,,,,,,,,,,,2,,55,72
1365,note_on,,46,0,15,,,,,,,,,,,,,,,,15,,55,72
1365,note_on,,46,0,14,,,,,,,,,,,,,,,,13,,55,72
1365,note_on,,46,0,12,,,,,,,,,,,,,,,,11,,70,72
1365,note_on,,46,0,13,,,,,,,,,,,,,,,,12,,63,72
1379,note_on,,14,0,14,,,,,,,,,,,,,,,,13,,55,0
1379,note_on,,14,0,6,,,,,,,,,,,,,,,,2,,55,0
1379,note_on,,14,0,12,,,,,,,,,,,,,,,,11,,70,0
1379,note_on,,14,0,15,,,,,,,,,,,,,,,,15,,55,0
1379,note_on,,14,0,13,,,,,,,,,,,,,,,,12,,63,0
1380,note_on,,1,0,14,,,,,,,,,,,,,,,,13,,55,72
1380,note_on,,1,0,15,,,,,,,,,,,,,,,,15,,55,72
1380,note_on,,0,0,15,,,,,,,,,,,,,,,,15,,70,72
1380,note_on,,0,0,15,,,,,,,,,,,,,,,,15,,58,72
1380,note_on,,0,0,15,,,,,,,,,,,,,,,,15,,63,72
1380,note_on,,1,0,13,,,,,,,,,,,,,,,,12,,63,72
1380,note_on,,1,0,6,,,,,,,,,,,,,,,,2,,55,72
1380,note_on,,1,0,12,,,,,,,,,,,,,,,,11,,70,72
1424,note_on,,44,0,14,,,,,,,,,,,,,,,,13,,55,0
1424,note_on,,44,0,15,,,,,,,,,,,,,,,,15,,55,0
1424,note_on,,44,0,13,,,,,,,,,,,,,,,,12,,63,0
1424,note_on,,104,0,11,,,,,,,,,,,,,,,,10,,73,0
1424,note_on,,44,0,6,,,,,,,,,,,,,,,,2,,55,0
1424,note_on,,44,0,12,,,,,,,,,,,,,,,,11,,70,0
1425,note_on,,1,0,13,,,,,,,,,,,,,,,,12,,63,72
1425,note_on,,1,0,15,,,,,,,,,,,,,,,,15,,55,72
1425,note_on,,1,0,11,,,,,,,,,,,,,,,,10,,75,72
1425,note_on,,1,0,12,,,,,,,,,,,,,,,,11,,70,72
1425,note_on,,1,0,6,,,,,,,,,,,,,,,,2,,55,72
1425,note_on,,1,0,14,,,,,,,,,,,,,,,,13,,55,72
1439,note_on,,14,0,14,,,,,,,,,,,,,,,,13,,55,0
1439,note_on,,14,0,11,,,,,,,,,,,,,,,,10,,75,0
1439,note_on,,14,0,6,,,,,,,,,,,,,,,,2,,55,0
1439,note_on,,0,0,15,,,,,,,,,,,,,,,,15,,63,0
1439,note_on,,0,0,15,,,,,,,,,,,,,,,,15,,58,0
1439,note_on,,0,0,15,,,,,,,,,,,,,,,,15,,55,0
1439,note_on,,14,0,13,,,,,,,,,,,,,,,,12,,63,0
1439,note_on,,14,0,12,,,,,,,,,,,,,,,,11,,70,0
1439,note_on,,14,0,15,,,,,,,,,,,,,,,,15,,70,0
1440,note_on,,1,0,11,,,,,,,,,,,,,,,,10,,72,72
1440,note_on,,1,0,14,,,,,,,,,,,,,,,,13,,56,72
1440,note_on,,1,0,15,,,,,,,,,,,,,,,,15,,56,72
1440,note_on,,0,0,15,,,,,,,,,,,,,,,,15,,63,72
1440,note_on,,0,0,15,,,,,,,,,,,,,,,,15,,60,72
1440,note_on,,1,0,12,,,,,,,,,,,,,,,,11,,63,72
1440,note_on,,1,0,6,,,,,,,,,,,,,,,,2,,56,72
1440,note_on,,1,0,13,,,,,,,,,,,,,,,,12,,68,72
1484,note_on,,44,0,11,,,,,,,,,,,,,,,,10,,72,0
1485,note_on,,1,0,11,,,,,,,,,,,,,,,,10,,72,72
1499,note_on,,14,0,11,,,,,,,,,,,,,,,,10,,72,0
1500,note_on,,1,0,11,,,,,,,,,,,,,,,,10,,72,72
1544,note_on,,44,0,11,,,,,,,,,,,,,,,,10,,72,0
1545,note_on,,1,0,11,,,,,,,,,,,,,,,,10,,72,72
1559,note_on,,0,0,15,,,,,,,,,,,,,,,,15,,63,0
1559,note_on,,119,0,14,,,,,,,,,,,,,,,,13,,56,0
1559,note_on,,0,0,15,,,,,,,,,,,,,,,,15,,60,0
1559,note_on,,119,0,13,,,,,,,,,,,,,,,,12,,68,0
1559,note_on,,119,0,12,,,,,,,,,,,,,,,,11,,63,0
1559,note_on,,119,0,6,,,,,,,,,,,,,,,,2,,56,0
1559,note_on,,14,0,11,,,,,,,,,,,,,,,,10,,72,0
1559,note_on,,119,0,15,,,,,,,,,,,,,,,,15,,56,0
1560,note_on,,1,0,11,,,,,,,,,,,,,,,,10,,80,72
1605,note_on,,46,0,6,,,,,,,,,,,,,,,,2,,48,72
1605,note_on,,46,0,14,,,,,,,,,,,,,,,,13,,48,72
1605,note_on,,46,0,13,,,,,,,,,,,,,,,,12,,63,72
1605,note_on,,46,0,15,,,,,,,,,,,,,,,,15,,48,72
1605,note_on,,46,0,12,,,,,,,,,,,,,,,,11,,68,72
1619,note_on,,14,0,12,,,,,,,,,,,,,,,,11,,68,0
1619,note_on,,14,0,14,,,,,,,,,,,,,,,,13,,48,0
1619,note_on,,14,0,6,,,,,,,,,,,,,,,,2,,48,0
1619,note_on,,14,0,15,,,,,,,,,,,,,,,,15,,48,0
1619,note_on,,14,0,13,,,,,,,,,,,,,,,,12,,63,0
1620,note_on,,1,0,12,,,,,,,,,,,,,,,,11,,68,72
1620,note_on,,0,0,15,,,,,,,,,,,,,,,,15,,63,72
1620,note_on,,0,0,15,,,,,,,,,,,,,,,,15,,60,72
1620,note_on,,1,0,13,,,,,,,,,,,,,,,,12,,63,72
1620,note_on,,0,0,15,,,,,,,,,,,,,,,,15,,68,72
1620,note_on,,1,0,15,,,,,,,,,,,,,,,,15,,48,72
1620,note_on,,1,0,14,,,,,,,,,,,,,,,,13,,48,72
1620,note_on,,1,0,6,,,,,,,,,,,,,,,,2,,48,72
1664,note_on,,44,0,14,,,,,,,,,,,,,,,,13,,48,0
1664,note_on,,44,0,6,,,,,,,,,,,,,,,,2,,48,0
1664,note_on,,44,0,12,,,,,,,,,,,,,,,,11,,68,0
1664,note_on,,44,0,13,,,,,,,,,,,,,,,,12,,63,0
1664,note_on,,44,0,15,,,,,,,,,,,,,,,,15,,48,0
1665,note_on,,1,0,12,,,,,,,,,,,,,,,,11,,68,72
1665,note_on,,1,0,6,,,,,,,,,,,,,,,,2,,48,72
1665,note_on,,1,0,13,,,,,,,,,,,,,,,,12,,63,72
1665,note_on,,1,0,14,,,,,,,,,,,,,,,,13,,48,72
1665,note_on,,1,0,15,,,,,,,,,,,,,,,,15,,48,72
1679,note_on,,14,0,12,,,,,,,,,,,,,,,,11,,68,0
1679,note_on,,14,0,6,,,,,,,,,,,,,,,,2,,48,0
1679,note_on,,14,0,13,,,,,,,,,,,,,,,,12,,63,0
1679,note_on,,0,0,15,,,,,,,,,,,,,,,,15,,60,0
1679,note_on,,119,0,11,,,,,,,,,,,,,,,,10,,80,0
1679,note_on,,0,0,15,,,,,,,,,,,,,,,,15,,63,0
1679,note_on,,14,0,14,,,,,,,,,,,,,,,,13,,48,0
1679,note_on,,14,0,15,,,,,,,,,,,,,,,,15,,68,0
1679,note_on,,0,0,15,,,,,,,,,,,,,,,,15,,48,0
1680,note_on,,1,0,14,,,,,,,,,,,,,,,,13,,50,72
1680,note_on,,1,0,6,,,,,,,,,,,,,,,,2,,50,72
1680,note_on,,0,0,15,,,,,,,,,,,,,,,,15,,58,72
1680,note_on,,0,0,15,,,,,,,,,,,,,,,,15,,65,72
1680,note_on,,1,0,12,,,,,,,,,,,,,,,,11,,68,72
1680,note_on,,0,0,15,,,,,,,,,,,,,,,,15,,68,72
1680,note_on,,1,0,15,,,,,,,,,,,,,,,,15,,50,72
1680,note_on,,1,0,13,,,,,,,,,,,,,,,,12,,65,72
1725,note_on,,46,0,11,,,,,,,,,,,,,,,,10,,70,72
1739,note_on,,14,0,11,,,,,,,,,,,,,,,,10,,70,0
1740,note_on,,1,0,11,,,,,,,,,,,,,,,,10,,70,72
1784,note_on,,44,0,11,,,,,,,,,,,,,,,,10,,70,0
1785,note_on,,1,0,11,,,,,,,,,,,,,,,,10,,70,72
1799,note_on,,119,0,6,,,,,,,,,,,,,,,,2,,50,0
1799,note_on,,0,0,15,,,,,,,,,,,,,,,,15,,68,0
1799,note_on,,0,0,15,,,,,,,,,,,,,,,,15,,65,0
1799,note_on,,119,0,15,,,,,,,,,,,,,,,,15,,50,0
1799,note_on,,119,0,13,,,,,,,,,,,,,,,,12,,65,0
1799,note_on,,0,0,15,,,,,,,,,,,,,,,,15,,58,0
1799,note_on,,119,0,14,,,,,,,,,,,,,,,,13,,50,0
1799,note_on,,119,0,12,,,,,,,,,,,,,,,,11,,68,0
1799,note_on,,14,0,11,,,,,,,,,,,,,,,,10,,70,0
1800,note_on,,1,0,11,,,,,,,,,,,,,,,,10,,79,72
1845,note_on,,46,0,13,,,,,,,,,,,,,,,,12,,60,72
1845,note_on,,46,0,6,,,,,,,,,,,,,,,,2,,52,72
1845,note_on,,46,0,14,,,,,,,,,,,,,,,,13,,52,72
1845,note_on,,46,0,12,,,,,,,,,,,,,,,,11,,67,72
1845,note_on,,46,0,15,,,,,,,,,,,,,,,,15,,52,72
1859,note_on,,14,0,13,,,,,,,,,,,,,,,,12,,60,0
1859,note_on,,14,0,14,,,,,,,,,,,,,,,,13,,52,0
1859,note_on,,14,0,12,,,,,,,,,,,,,,,,11,,67,0
1859,note_on,,14,0,6,,,,,,,,,,,,,,,,2,,52,0
1859,note_on,,14,0,15,,,,,,,,,,,,,,,,15,,52,0
1860,note_on,,1,0,12,,,,,,,,,,,,,,,,11,,67,72
1860,note_on,,1,0,15,,,,,,,,,,,,,,,,15,,52,72
1860,note_on,,0,0,15,,,,,,,,,,,,,,,,15,,67,72
1860,note_on,,1,0,14,,,,,,,,,,,,,,,,13,,52,72
1860,note_on,,0,0,15,,,,,,,,,,,,,,,,15,,60,72
1860,note_on,,0,0,15,,,,,,,,,,,,,,,,15,,58,72
1860,note_on,,1,0,6,,,,,,,,,,,,,,,,2,,52,72
1860,note_on,,1,0,13,,,,,,,,,,,,,,,,12,,60,72
1904,note_on,,44,0,13,,,,,,,,,,,,,,,,12,,60,0
1904,note_on,,44,0,15,,,,,,,,,,,,,,,,15,,52,0
1904,note_on,,44,0,12,,,,,,,,,,,,,,,,11,,67,0
1904,note_on,,44,0,14,,,,,,,,,,,,,,,,13,,52,0
1904,note_on,,44,0,6,,,,,,,,,,,,,,,,2,,52,0
1905,note_on,,1,0,15,,,,,,,,,,,,,,,,15,,52,72
1905,note_on,,1,0,6,,,,,,,,,,,,,,,,2,,52,72
1905,note_on,,1,0,12,,,,,,,,,,,,,,,,11,,67,72
1905,note_on,,1,0,14,,,,,,,,,,,,,,,,13,,52,72
1905,note_on,,1,0,13,,,,,,,,,,,,,,,,12,,60,72
1919,note_on,,14,0,15,,,,,,,,,,,,,,,,15,,67,0
1919,note_on,,0,0,15,,,,,,,,,,,,,,,,15,,52,0
1919,note_on,,119,0,11,,,,,,,,,,,,,,,,10,,79,0
1919,note_on,,0,0,15,,,,,,,,,,,,,,,,15,,58,0
1919,note_on,,0,0,15,,,,,,,,,,,,,,,,15,,60,0
1919,note_on,,14,0,14,,,,,,,,,,,,,,,,13,,52,0
1919,note_on,,14,0,12,,,,,,,,,,,,,,,,11,,67,0
1919,note_on,,14,0,13,,,,,,,,,,,,,,,,12,,60,0
1919,note_on,,14,0,6,,,,,,,,,,,,,,,,2,,52,0
1920,note_on,,1,0,14,,,,,,,,,,,,,,,,13,,53,72
1920,note_on,,1,0,15,,,,,,,,,,,,,,,,15,,53,72
1920,note_on,,0,0,15,,,,,,,,,,,,,,,,15,,60,72
1920,note_on,,0,0,15,,,,,,,,,,,,,,,,15,,56,72
1920,note_on,,1,0,12,,,,,,,,,,,,,,,,11,,67,72
1920,note_on,,1,0,6,,,,,,,,,,,,,,,,2,,53,72
1920,note_on,,1,0,13,,,,,,,,,,,,,,,,12,,60,72
1965,note_on,,46,0,11,,,,,,,,,,,,,,,,10,,68,72
1979,note_on,,14,0,11,,,,,,,,,,,,,,,,10,,68,0
1980,note_on,,1,0,11,,,,,,,,,,,,,,,,10,,68,72
2024,note_on,,44,0,11,,,,,,,,,,,,,,,,10,,68,0
2025,note_on,,1,0,11,,,,,,,,,,,,,,,,10,,68,72
2039,note_on,,0,0,15,,,,,,,,,,,,,,,,15,,56,0
2039,note_on,,119,0,6,,,,,,,,,,,,,,,,2,,53,0
2039,note_on,,14,0,11,,,,,,,,,,,,,,,,10,,68,0
2039,note_on,,119,0,12,,,,,,,,,,,,,,,,11,,67,0
2039,note_on,,119,0,14,,,,,,,,,,,,,,,,13,,53,0
2039,note_on,,119,0,13,,,,,,,,,,,,,,,,12,,60,0
2039,note_on,,119,0,15,,,,,,,,,,,,,,,,15,,53,0
2039,note_on,,0,0,15,,,,,,,,,,,,,,,,15,,60,0
2040,note_on,,1,0,11,,,,,,,,,,,,,,,,10,,77,72
2085,note_on,,46,0,12,,,,,,,,,,,,,,,,11,,65,72
2085,note_on,,46,0,13,,,,,,,,,,,,,,,,12,,61,72
2085,note_on,,46,0,6,,,,,,,,,,,,,,,,2,,49,72
2085,note_on,,46,0,14,,,,,,,,,,,,,,,,13,,49,72
2085,note_on,,46,0,15,,,,,,,,,,,,,,,,15,,49,72
2099,note_on,,14,0,15,,,,,,,,,,,,,,,,15,,49,0
2099,note_on,,14,0,12,,,,,,,,,,,,,,,,11,,65,0
2099,note_on,,14,0,13,,,,,,,,,,,,,,,,12,,61,0
2099,note_on,,14,0,6,,,,,,,,,,,,,,,,2,,49,0
2099,note_on,,14,0,14,,,,,,,,,,,,,,,,13,,49,0
2100,note_on,,0,0,15,,,,,,,,,,,,,,,,15,,70,72
2100,note_on,,0,0,15,,,,,,,,,,,,,,,,15,,65,72
2100,note_on,,1,0,12,,,,,,,,,,,,,,,,11,,65,72
2100,note_on,,1,0,13,,,,,,,,,,,,,,,,12,,61,72
2100,note_on,,1,0,6,,,,,,,,,,,,,,,,2,,49,72
2100,note_on,,1,0,15,,,,,,,,,,,,,,,,15,,49,72
2100,note_on,,0,0,15,,,,,,,,,,,,,,,,15,,58,72
2100,note_on,,1,0,14,,,,,,,,,,,,,,,,13,,49,72
2144,note_on,,44,0,6,,,,,,,,,,,,,,,,2,,49,0
2144,note_on,,44,0,12,,,,,,,,,,,,,,,,11,,65,0
2144,note_on,,44,0,13,,,,,,,,,,,,,,,,12,,61,0
2144,note_on,,44,0,14,,,,,,,,,,,,,,,,13,,49,0
2144,note_on,,44,0,15,,,,,,,,,,,,,,,,15,,49,0
2145,note_on,,1,0,14,,,,,,,,,,,,,,,,13,,49,72
2145,note_on,,1,0,6,,,,,,,,,,,,,,,,2,,49,72
2145,note_on,,1,0,12,,,,,,,,,,,,,,,,11,,65,72
2145,note_on,,1,0,15,,,,,,,,,,,,,,,,15,,49,72
2145,note_on,,1,0,13,,,,,,,,,,,,,,,,12,,61,72
2159,note_on,,14,0,14,,,,,,,,,,,,,,,,13,,49,0
2159,note_on,,0,0,15,,,,,,,,,,,,,,,,15,,49,0
2159,note_on,,0,0,15,,,,,,,,,,,,,,,,15,,65,0
2159,note_on,,14,0,15,,,,,,,,,,,,,,,,15,,70,0
2159,note_on,,14,0,6,,,,,,,,,,,,,,,,2,,49,0
2159,note_on,,0,0,15,,,,,,,,,,,,,,,,15,,58,0
2159,note_on,,14,0,12,,,,,,,,,,,,,,,,11,,65,0
2159,note_on,,14,0,13,,,,,,,,,,,,,,,,12,,61,0
2160,note_on,,1,0,13,,,,,,,,,,,,,,,,12,,60,72
2160,note_on,,1,0,14,,,,,,,,,,,,,,,,13,,44,72
2160,note_on,,1,0,12,,,,,,,,,,,,,,,,11,,65,72
2160,note_on,,0,0,15,,,,,,,,,,,,,,,,15,,53,72
2160,note_on,,1,0,15,,,,,,,,,,,,,,,,15,,44,72
2160,note_on,,0,0,15,,,,,,,,,,,,,,,,15,,72,72
2160,note_on,,0,0,15,,,,,,,,,,,,,,,,15,,65,72
2160,note_on,,1,0,6,,,,,,,,,,,,,,,,2,,44,72
2204,note_on,,164,0,11,,,,,,,,,,,,,,,,10,,77,0
2205,note_on,,1,0,11,,,,,,,,,,,,,,,,10,,72,72
2219,note_on,,59,0,14,,,,,,,,,,,,,,,,13,,44,0
2219,note_on,,14,0,11,,,,,,,,,,,,,,,,10,,72,0
2219,note_on,,0,0,15,,,,,,,,,,,,,,,,15,,53,0
2219,note_on,,0,0,15,,,,,,,,,,,,,,,,15,,65,0
2219,note_on,,59,0,6,,,,,,,,,,,,,,,,2,,44,0
2219,note_on,,59,0,15,,,,,,,,,,,,,,,,15,,44,0
2219,note_on,,59,0,12,,,,,,,,,,,,,,,,11,,65,0
2219,note_on,,59,0,13,,,,,,,,,,,,,,,,12,,60,0
2219,note_on,,0,0,15,,,,,,,,,,,,,,,,15,,72,0
2220,note_on,,1,0,15,,,,,,,,,,,,,,,,15,,46,72
2220,note_on,,0,0,15,,,,,,,,,,,,,,,,15,,65,72
2220,note_on,,0,0,15,,,,,,,,,,,,,,,,15,,58,72
2220,note_on,,1,0,11,,,,,,,,,,,,,,,,10,,70,72
2220,note_on,,1,0,14,,,,,,,,,,,,,,,,13,,46,72
2220,note_on,,1,0,13,,,,,,,,,,,,,,,,12,,61,72
2220,note_on,,1,0,12,,,,,,,,,,,,,,,,11,,65,72
2220,note_on,,1,0,6,,,,,,,,,,,,,,,,2,,46,72
2264,note_on,,44,0,11,,,,,,,,,,,,,,,,10,,70,0
2265,note_on,,1,0,11,,,,,,,,,,,,,,,,10,,68,72
2279,note_on,,59,0,14,,,,,,,,,,,,,,,,13,,46,0
2279,note_on,,59,0,13,,,,,,,,,,,,,,,,12,,61,0
2279,note_on,,59,0,6,,,,,,,,,,,,,,,,2,,46,0
2279,note_on,,0,0,15,,,,,,,,,,,,,,,,15,,58,0
2279,note_on,,59,0,15,,,,,,,,,,,,,,,,15,,46,0
2279,note_on,,14,0,11,,,,,,,,,,,,,,,,10,,68,0
2280,note_on,,1,0,11,,,,,,,,,,,,,,,,10,,67,72
2280,note_on,,1,0,6,,,,,,,,,,,,,,,,2,,48,72
2280,note_on,,0,0,15,,,,,,,,,,,,,,,,15,,55,72
2280,note_on,,0,0,15,,,,,,,,,,,,,,,,15,,60,72
2280,note_on,,1,0,15,,,,,,,,,,,,,,,,15,,48,72
2280,note_on,,1,0,13,,,,,,,,,,,,,,,,12,,55,72
2280,note_on,,1,0,14,,,,,,,,,,,,,,,,13,,48,72
2294,note_on,,14,0,11,,,,,,,,,,,,,,,,10,,67,0
2295,note_on,,1,0,11,,,,,,,,,,,,,,,,10,,68,72
2309,note_on,,14,0,11,,,,,,,,,,,,,,,,10,,68,0
2310,note_on,,1,0,11,,,,,,,,,,,,,,,,10,,67,72
2324,note_on,,14,0,11,,,,,,,,,,,,,,,,10,,67,0
2325,note_on,,1,0,11,,,,,,,,,,,,,,,,10,,68,72
2339,note_on,,59,0,6,,,,,,,,,,,,,,,,2,,48,0
2339,note_on,,14,0,11,,,,,,,,,,,,,,,,10,,68,0
2339,note_on,,119,0,12,,,,,,,,,,,,,,,,11,,65,0
2339,note_on,,59,0,15,,,,,,,,,,,,,,,,15,,65,0
2339,note_on,,0,0,15,,,,,,,,,,,,,,,,15,,48,0
2339,note_on,,59,0,13,,,,,,,,,,,,,,,,12,,55,0
2339,note_on,,59,0,14,,,,,,,,,,,,,,,,13,,48,0
2340,note_on,,1,0,6,,,,,,,,,,,,,,,,2,,36,72
2340,note_on,,1,0,12,,,,,,,,,,,,,,,,11,,63,72
2340,note_on,,1,0,11,,,,,,,,,,,,,,,,10,,65,72
2340,note_on,,1,0,15,,,,,,,,,,,,,,,,15,,36,72
2340,note_on,,1,0,13,,,,,,,,,,,,,,,,12,,60,72
2340,note_on,,0,0,15,,,,,,,,,,,,,,,,15,,64,72
2340,note_on,,1,0,14,,,,,,,,,,,,,,,,13,,36,72
2354,note_on,,14,0,11,,,,,,,,,,,,,,,,10,,65,0
2355,note_on,,1,0,11,,,,,,,,,,,,,,,,10,,67,72
2369,note_on,,14,0,11,,,,,,,,,,,,,,,,10,,67,0
2370,note_on,,1,0,11,,,,,,,,,,,,,,,,10,,65,72
2399,note_on,,59,0,13,,,,,,,,,,,,,,,,12,,60,0
2399,note_on,,0,0,15,,,,,,,,,,,,,,,,15,,36,0
2399,note_on,,59,0,6,,,,,,,,,,,,,,,,2,,36,0
2399,note_on,,59,0,14,,,,,,,,,,,,,,,,13,,36,0
2399,note_on,,59,0,15,,,,,,,,,,,,,,,,15,,60,0
2399,note_on,,29,0,11,,,,,,,,,,,,,,,,10,,65,0
2399,note_on,,59,0,12,,,,,,,,,,,,,,,,11,,63,0
2399,note_on,,0,0,15,,,,,,,,,,,,,,,,15,,55,0
2399,note_on,,0,0,15,,,,,,,,,,,,,,,,15,,64,0
2400,note_on,,0,0,15,,,,,,,,,,,,,,,,15,,60,72
2400,note_on,,0,0,15,,,,,,,,,,,,,,,,15,,56,72
2400,note_on,,2400,0,7,,,,,,,,,,,,,,,,5,,72,72
2400,note_on,,1,0,13,,,,,,,,,,,,,,,,12,,60,72
2400,note_on,,1,0,15,,,,,,,,,,,,,,,,15,,53,72
2400,note_on,,1,0,11,,,,,,,,,,,,,,,,10,,65,72
2400,note_on,,2400,0,8,,,,,,,,,,,,,,,,6,,68,72
2400,note_on,,1,0,14,,,,,,,,,,,,,,,,13,,53,72
2400,note_on,,2400,0,5,,,,,,,,,,,,,,,,1,,72,72
2400,note_on,,2400,0,10,,,,,,,,,,,,,,,,8,,60,72
2400,note_on,,2400,0,9,,,,,,,,,,,,,,,,7,,65,72
2400,note_on,,0,0,15,,,,,,,,,,,,,,,,15,,65,72
2400,note_on,,1,0,6,,,,,,,,,,,,,,,,2,,53,72
2400,note_on,,1,0,12,,,,,,,,,,,,,,,,11,,65,72
2444,note_on,,44,0,7,,,,,,,,,,,,,,,,5,,72,0
2444,note_on,,44,0,5,,,,,,,,,,,,,,,,1,,72,0
2444,note_on,,44,0,11,,,,,,,,,,,,,,,,10,,65,0
2444,note_on,,44,0,9,,,,,,,,,,,,,,,,7,,65,0
2444,note_on,,44,0,10,,,,,,,,,,,,,,,,8,,60,0
2444,note_on,,44,0,8,,,,,,,,,,,,,,,,6,,68,0
2444,note_on,,44,0,12,,,,,,,,,,,,,,,,11,,65,0
2444,note_on,,44,0,13,,,,,,,,,,,,,,,,12,,60,0
2445,note_on,,1,0,11,,,,,,,,,,,,,,,,10,,72,72
2445,note_on,,1,0,13,,,,,,,,,,,,,,,,12,,65,72
2445,note_on,,1,0,5,,,,,,,,,,,,,,,,1,,70,72
2445,note_on,,1,0,8,,,,,,,,,,,,,,,,6,,67,72
2445,note_on,,1,0,10,,,,,,,,,,,,,,,,8,,53,72
2445,note_on,,1,0,12,,,,,,,,,,,,,,,,11,,72,72
2445,note_on,,1,0,9,,,,,,,,,,,,,,,,7,,60,72
2445,note_on,,1,0,7,,,,,,,,,,,,,,,,5,,70,72
2459,note_on,,14,0,11,,,,,,,,,,,,,,,,10,,72,0
2459,note_on,,14,0,10,,,,,,,,,,,,,,,,8,,53,0
2459,note_on,,14,0,12,,,,,,,,,,,,,,,,11,,72,0
2459,note_on,,14,0,13,,,,,,,,,,,,,,,,12,,65,0
2459,note_on,,14,0,5,,,,,,,,,,,,,,,,1,,70,0
2459,note_on,,14,0,9,,,,,,,,,,,,,,,,7,,60,0
2459,note_on,,14,0,7,,,,,,,,,,,,,,,,5,,70,0
2459,note_on,,14,0,8,,,,,,,,,,,,,,,,6,,67,0
2460,note_on,,1,0,13,,,,,,,,,,,,,,,,12,,65,72
2460,note_on,,1,0,7,,,,,,,,,,,,,,,,5,,68,72
2460,note_on,,1,0,8,,,,,,,,,,,,,,,,6,,65,72
2460,note_on,,1,0,10,,,,,,,,,,,,,,,,8,,53,72
2460,note_on,,1,0,5,,,,,,,,,,,,,,,,1,,68,72
2460,note_on,,1,0,9,,,,,,,,,,,,,,,,7,,60,72
2460,note_on,,1,0,12,,,,,,,,,,,,,,,,11,,72,72
2460,note_on,,1,0,11,,,,,,,,,,,,,,,,10,,72,72
2504,note_on,,44,0,11,,,,,,,,,,,,,,,,10,,72,0
2504,note_on,,44,0,12,,,,,,,,,,,,,,,,11,,72,0
2504,note_on,,44,0,13,,,,,,,,,,,,,,,,12,,65,0
2505,note_on,,1,0,11,,,,,,,,,,,,,,,,10,,72,72
2505,note_on,,1,0,13,,,,,,,,,,,,,,,,12,,65,72
2505,note_on,,1,0,12,,,,,,,,,,,,,,,,11,,72,72
2519,note_on,,0,0,15,,,,,,,,,,,,,,,,15,,60,0
2519,note_on,,14,0,12,,,,,,,,,,,,,,,,11,,72,0
2519,note_on,,59,0,9,,,,,,,,,,,,,,,,7,,60,0
2519,note_on,,59,0,5,,,,,,,,,,,,,,,,1,,68,0
2519,note_on,,59,0,7,,,,,,,,,,,,,,,,5,,68,0
2519,note_on,,119,0,14,,,,,,,,,,,,,,,,13,,53,0
2519,note_on,,0,0,15,,,,,,,,,,,,,,,,15,,56,0
2519,note_on,,0,0,15,,,,,,,,,,,,,,,,15,,65,0
2519,note_on,,59,0,10,,,,,,,,,,,,,,,,8,,53,0
2519,note_on,,14,0,13,,,,,,,,,,,,,,,,12,,65,0
2519,note_on,,59,0,8,,,,,,,,,,,,,,,,6,,65,0
2519,note_on,,119,0,6,,,,,,,,,,,,,,,,2,,53,0
2519,note_on,,14,0,11,,,,,,,,,,,,,,,,10,,72,0
2519,note_on,,119,0,15,,,,,,,,,,,,,,,,15,,53,0
2520,note_on,,1,0,12,,,,,,,,,,,,,,,,11,,77,72
2520,note_on,,1,0,13,,,,,,,,,,,,,,,,12,,68,72
2520,note_on,,1,0,11,,,,,,,,,,,,,,,,10,,77,72
2564,note_on,,44,0,12,,,,,,,,,,,,,,,,11,,77,0
2564,note_on,,44,0,13,,,,,,,,,,,,,,,,12,,68,0
2565,note_on,,1,0,13,,,,,,,,,,,,,,,,12,,60,72
2565,note_on,,1,0,12,,,,,,,,,,,,,,,,11,,65,72
2565,note_on,,46,0,14,,,,,,,,,,,,,,,,13,,53,72
2565,note_on,,46,0,6,,,,,,,,,,,,,,,,2,,53,72
2565,note_on,,46,0,15,,,,,,,,,,,,,,,,15,,53,72
2579,note_on,,14,0,14,,,,,,,,,,,,,,,,13,,53,0
2579,note_on,,14,0,12,,,,,,,,,,,,,,,,11,,65,0
2579,note_on,,14,0,6,,,,,,,,,,,,,,,,2,,53,0
2579,note_on,,14,0,13,,,,,,,,,,,,,,,,12,,60,0
2579,note_on,,14,0,15,,,,,,,,,,,,,,,,15,,53,0
2580,note_on,,1,0,15,,,,,,,,,,,,,,,,15,,53,72
2580,note_on,,1,0,13,,,,,,,,,,,,,,,,12,,60,72
2580,note_on,,0,0,15,,,,,,,,,,,,,,,,15,,72,72
2580,note_on,,0,0,15,,,,,,,,,,,,,,,,15,,68,72
2580,note_on,,0,0,15,,,,,,,,,,,,,,,,15,,65,72
2580,note_on,,1,0,6,,,,,,,,,,,,,,,,2,,53,72
2580,note_on,,1,0,14,,,,,,,,,,,,,,,,13,,53,72
2580,note_on,,1,0,12,,,,,,,,,,,,,,,,11,,65,72
2624,note_on,,44,0,15,,,,,,,,,,,,,,,,15,,53,0
2624,note_on,,44,0,14,,,,,,,,,,,,,,,,13,,53,0
2624,note_on,,44,0,6,,,,,,,,,,,,,,,,2,,53,0
2624,note_on,,44,0,12,,,,,,,,,,,,,,,,11,,65,0
2624,note_on,,44,0,13,,,,,,,,,,,,,,,,12,,60,0
2625,note_on,,1,0,12,,,,,,,,,,,,,,,,11,,65,72
2625,note_on,,1,0,15,,,,,,,,,,,,,,,,15,,53,72
2625,note_on,,1,0,6,,,,,,,,,,,,,,,,2,,53,72
2625,note_on,,1,0,13,,,,,,,,,,,,,,,,12,,60,72
2625,note_on,,1,0,14,,,,,,,,,,,,,,,,13,,53,72
2639,note_on,,14,0,6,,,,,,,,,,,,,,,,2,,53,0
2639,note_on,,14,0,14,,,,,,,,,,,,,,,,13,,53,0
2639,note_on,,14,0,13,,,,,,,,,,,,,,,,12,,60,0
2639,note_on,,119,0,11,,,,,,,,,,,,,,,,10,,77,0
2639,note_on,,14,0,12,,,,,,,,,,,,,,,,11,,65,0
2639,note_on,,14,0,15,,,,,,,,,,,,,,,,15,,72,0
2639,note_on,,0,0,15,,,,,,,,,,,,,,,,15,,65,0
2639,note_on,,0,0,15,,,,,,,,,,,,,,,,15,,68,0
2639,note_on,,0,0,15,,,,,,,,,,,,,,,,15,,53,0
2640,note_on,,1,0,13,,,,,,,,,,,,,,,,12,,64,72
2640,note_on,,121,0,7,,,,,,,,,,,,,,,,5,,70,72
2640,note_on,,121,0,5,,,,,,,,,,,,,,,,1,,70,72
2640,note_on,,0,0,15,,,,,,,,,,,,,,,,15,,58,72
2640,note_on,,1,0,14,,,,,,,,,,,,,,,,13,,55,72
2640,note_on,,0,0,15,,,,,,,,,,,,,,,,15,,64,72
2640,note_on,,0,0,15,,,,,,,,,,,,,,,,15,,70,72
2640,note_on,,121,0,9,,,,,,,,,,,,,,,,7,,64,72
2640,note_on,,1,0,12,,,,,,,,,,,,,,,,11,,70,72
2640,note_on,,0,0,15,,,,,,,,,,,,,,,,15,,76,72
2640,note_on,,121,0,10,,,,,,,,,,,,,,,,8,,55,72
2640,note_on,,121,0,8,,,,,,,,,,,,,,,,6,,67,72
2640,note_on,,1,0,15,,,,,,,,,,,,,,,,15,,55,72
2640,note_on,,1,0,6,,,,,,,,,,,,,,,,2,,55,72
2684,note_on,,44,0,5,,,,,,,,,,,,,,,,1,,70,0
2684,note_on,,44,0,8,,,,,,,,,,,,,,,,6,,67,0
2684,note_on,,44,0,10,,,,,,,,,,,,,,,,8,,55,0
2684,note_on,,44,0,9,,,,,,,,,,,,,,,,7,,64,0
2684,note_on,,44,0,7,,,,,,,,,,,,,,,,5,,70,0
2685,note_on,,1,0,7,,,,,,,,,,,,,,,,5,,68,72
2685,note_on,,1,0,8,,,,,,,,,,,,,,,,6,,65,72
2685,note_on,,1,0,5,,,,,,,,,,,,,,,,1,,68,72
2685,note_on,,46,0,11,,,,,,,,,,,,,,,,10,,70,72
2685,note_on,,1,0,10,,,,,,,,,,,,,,,,8,,48,72
2685,note_on,,1,0,9,,,,,,,,,,,,,,,,7,,65,72
2699,note_on,,14,0,7,,,,,,,,,,,,,,,,5,,68,0
2699,note_on,,14,0,8,,,,,,,,,,,,,,,,6,,65,0
2699,note_on,,14,0,11,,,,,,,,,,,,,,,,10,,70,0
2699,note_on,,14,0,10,,,,,,,,,,,,,,,,8,,48,0
2699,note_on,,14,0,9,,,,,,,,,,,,,,,,7,,65,0
2699,note_on,,14,0,5,,,,,,,,,,,,,,,,1,,68,0
2700,note_on,,1,0,9,,,,,,,,,,,,,,,,7,,67,72
2700,note_on,,1,0,11,,,,,,,,,,,,,,,,10,,70,72
2700,note_on,,1,0,7,,,,,,,,,,,,,,,,5,,67,72
2700,note_on,,1,0,10,,,,,,,,,,,,,,,,8,,48,72
2700,note_on,,1,0,5,,,,,,,,,,,,,,,,1,,67,72
2700,note_on,,1,0,8,,,,,,,,,,,,,,,,6,,64,72
2744,note_on,,44,0,11,,,,,,,,,,,,,,,,10,,70,0
2745,note_on,,1,0,11,,,,,,,,,,,,,,,,10,,70,72
2759,note_on,,59,0,7,,,,,,,,,,,,,,,,5,,67,0
2759,note_on,,14,0,11,,,,,,,,,,,,,,,,10,,70,0
2759,note_on,,59,0,10,,,,,,,,,,,,,,,,8,,48,0
2759,note_on,,119,0,15,,,,,,,,,,,,,,,,15,,55,0
2759,note_on,,59,0,8,,,,,,,,,,,,,,,,6,,64,0
2759,note_on,,119,0,6,,,,,,,,,,,,,,,,2,,55,0
2759,note_on,,119,0,14,,,,,,,,,,,,,,,,13,,55,0
2759,note_on,,0,0,15,,,,,,,,,,,,,,,,15,,76,0
2759,note_on,,0,0,15,,,,,,,,,,,,,,,,15,,70,0
2759,note_on,,0,0,15,,,,,,,,,,,,,,,,15,,64,0
2759,note_on,,0,0,15,,,,,,,,,,,,,,,,15,,58,0
2759,note_on,,59,0,9,,,,,,,,,,,,,,,,7,,67,0
2759,note_on,,119,0,12,,,,,,,,,,,,,,,,11,,70,0
2759,note_on,,119,0,13,,,,,,,,,,,,,,,,12,,64,0
2759,note_on,,59,0,5,,,,,,,,,,,,,,,,1,,67,0
2760,note_on,,1,0,11,,,,,,,,,,,,,,,,10,,79,72
2805,note_on,,46,0,6,,,,,,,,,,,,,,,,2,,60,72
2805,note_on,,46,0,13,,,,,,,,,,,,,,,,12,,64,72
2805,note_on,,46,0,15,,,,,,,,,,,,,,,,15,,60,72
2805,note_on,,46,0,12,,,,,,,,,,,,,,,,11,,70,72
2805,note_on,,46,0,14,,,,,,,,,,,,,,,,13,,60,72
2819,note_on,,14,0,14,,,,,,,,,,,,,,,,13,,60,0
2819,note_on,,14,0,13,,,,,,,,,,,,,,,,12,,64,0
2819,note_on,,14,0,6,,,,,,,,,,,,,,,,2,,60,0
2819,note_on,,14,0,12,,,,,,,,,,,,,,,,11,,70,0
2819,note_on,,14,0,15,,,,,,,,,,,,,,,,15,,60,0
2820,note_on,,61,0,5,,,,,,,,,,,,,,,,1,,76,72
2820,note_on,,1,0,15,,,,,,,,,,,,,,,,15,,60,72
2820,note_on,,0,0,15,,,,,,,,,,,,,,,,15,,67,72
2820,note_on,,0,0,15,,,,,,,,,,,,,,,,15,,76,72
2820,note_on,,1,0,6,,,,,,,,,,,,,,,,2,,60,72
2820,note_on,,0,0,15,,,,,,,,,,,,,,,,15,,72,72
2820,note_on,,1,0,12,,,,,,,,,,,,,,,,11,,70,72
2820,note_on,,1,0,13,,,,,,,,,,,,,,,,12,,64,72
2820,note_on,,61,0,7,,,,,,,,,,,,,,,,5,,76,72
2820,note_on,,1,0,14,,,,,,,,,,,,,,,,13,,60,72
2820,note_on,,61,0,9,,,,,,,,,,,,,,,,7,,67,72
2820,note_on,,61,0,10,,,,,,,,,,,,,,,,8,,60,72
2820,note_on,,61,0,8,,,,,,,,,,,,,,,,6,,60,72
2849,note_on,,29,0,7,,,,,,,,,,,,,,,,5,,76,0
2849,note_on,,29,0,5,,,,,,,,,,,,,,,,1,,76,0
2849,note_on,,29,0,9,,,,,,,,,,,,,,,,7,,67,0
2849,note_on,,29,0,10,,,,,,,,,,,,,,,,8,,60,0
2849,note_on,,29,0,8,,,,,,,,,,,,,,,,6,,60,0
2850,note_on,,1,0,9,,,,,,,,,,,,,,,,7,,67,72
2850,note_on,,1,0,7,,,,,,,,,,,,,,,,5,,76,72
2850,note_on,,1,0,10,,,,,,,,,,,,,,,,8,,60,72
2850,note_on,,1,0,8,,,,,,,,,,,,,,,,6,,60,72
2850,note_on,,1,0,5,,,,,,,,,,,,,,,,1,,76,72
2864,note_on,,44,0,12,,,,,,,,,,,,,,,,11,,70,0
2864,note_on,,44,0,14,,,,,,,,,,,,,,,,13,,60,0
2864,note_on,,44,0,6,,,,,,,,,,,,,,,,2,,60,0
2864,note_on,,44,0,13,,,,,,,,,,,,,,,,12,,64,0
2864,note_on,,44,0,15,,,,,,,,,,,,,,,,15,,60,0
2865,note_on,,1,0,13,,,,,,,,,,,,,,,,12,,64,72
2865,note_on,,1,0,6,,,,,,,,,,,,,,,,2,,60,72
2865,note_on,,1,0,15,,,,,,,,,,,,,,,,15,,60,72
2865,note_on,,1,0,14,,,,,,,,,,,,,,,,13,,60,72
2865,note_on,,1,0,12,,,,,,,,,,,,,,,,11,,70,72
2879,note_on,,14,0,15,,,,,,,,,,,,,,,,15,,76,0
2879,note_on,,29,0,7,,,,,,,,,,,,,,,,5,,76,0
2879,note_on,,29,0,8,,,,,,,,,,,,,,,,6,,60,0
2879,note_on,,29,0,5,,,,,,,,,,,,,,,,1,,76,0
2879,note_on,,14,0,6,,,,,,,,,,,,,,,,2,,60,0
2879,note_on,,14,0,13,,,,,,,,,,,,,,,,12,,64,0
2879,note_on,,119,0,11,,,,,,,,,,,,,,,,10,,79,0
2879,note_on,,0,0,15,,,,,,,,,,,,,,,,15,,60,0
2879,note_on,,29,0,10,,,,,,,,,,,,,,,,8,,60,0
2879,note_on,,29,0,9,,,,,,,,,,,,,,,,7,,67,0
2879,note_on,,14,0,12,,,,,,,,,,,,,,,,11,,70,0
2879,note_on,,0,0,15,,,,,,,,,,,,,,,,15,,67,0
2879,note_on,,0,0,15,,,,,,,,,,,,,,,,15,,72,0
2879,note_on,,14,0,14,,,,,,,,,,,,,,,,13,,60,0
2880,note_on,,1,0,7,,,,,,,,,,,,,,,,5,,77,72
2880,note_on,,1,0,8,,,,,,,,,,,,,,,,6,,68,72
2880,note_on,,1,0,6,,,,,,,,,,,,,,,,2,,61,72
2880,note_on,,0,0,15,,,,,,,,,,,,,,,,15,,68,72
2880,note_on,,1,0,12,,,,,,,,,,,,,,,,11,,68,72
2880,note_on,,1,0,10,,,,,,,,,,,,,,,,8,,61,72
2880,note_on,,1,0,9,,,,,,,,,,,,,,,,7,,65,72
2880,note_on,,1,0,5,,,,,,,,,,,,,,,,1,,77,72
2880,note_on,,1,0,15,,,,,,,,,,,,,,,,15,,61,72
2880,note_on,,0,0,15,,,,,,,,,,,,,,,,15,,77,72
2880,note_on,,1,0,14,,,,,,,,,,,,,,,,13,,61,72
2880,note_on,,0,0,15,,,,,,,,,,,,,,,,15,,65,72
2880,note_on,,1,0,13,,,,,,,,,,,,,,,,12,,65,72
2925,note_on,,46,0,11,,,,,,,,,,,,,,,,10,,65,72
2939,note_on,,14,0,11,,,,,,,,,,,,,,,,10,,65,0
2940,note_on,,1,0,11,,,,,,,,,,,,,,,,10,,65,72
2984,note_on,,44,0,11,,,,,,,,,,,,,,,,10,,65,0
2985,note_on,,1,0,11,,,,,,,,,,,,,,,,10,,65,72
2999,note_on,,119,0,6,,,,,,,,,,,,,,,,2,,61,0
2999,note_on,,119,0,15,,,,,,,,,,,,,,,,15,,61,0
2999,note_on,,119,0,14,,,,,,,,,,,,,,,,13,,61,0
2999,note_on,,119,0,13,,,,,,,,,,,,,,,,12,,65,0
2999,note_on,,119,0,12,,,,,,,,,,,,,,,,11,,68,0
2999,note_on,,14,0,11,,,,,,,,,,,,,,,,10,,65,0
3000,note_on,,1,0,11,,,,,,,,,,,,,,,,10,,77,72
3044,note_on,,44,0,11,,,,,,,,,,,,,,,,10,,77,0
3045,note_on,,1,0,11,,,,,,,,,,,,,,,,10,,77,72
3045,note_on,,46,0,12,,,,,,,,,,,,,,,,11,,68,72
3045,note_on,,46,0,6,,,,,,,,,,,,,,,,2,,60,72
3045,note_on,,46,0,15,,,,,,,,,,,,,,,,15,,60,72
3045,note_on,,46,0,14,,,,,,,,,,,,,,,,13,,60,72
3045,note_on,,46,0,13,,,,,,,,,,,,,,,,12,,63,72
3059,note_on,,0,0,15,,,,,,,,,,,,,,,,15,,68,0
3059,note_on,,14,0,12,,,,,,,,,,,,,,,,11,,68,0
3059,note_on,,0,0,15,,,,,,,,,,,,,,,,15,,60,0
3059,note_on,,179,0,8,,,,,,,,,,,,,,,,6,,68,0
3059,note_on,,179,0,7,,,,,,,,,,,,,,,,5,,77,0
3059,note_on,,179,0,5,,,,,,,,,,,,,,,,1,,77,0
3059,note_on,,0,0,15,,,,,,,,,,,,,,,,15,,65,0
3059,note_on,,179,0,9,,,,,,,,,,,,,,,,7,,65,0
3059,note_on,,179,0,10,,,,,,,,,,,,,,,,8,,61,0
3059,note_on,,14,0,11,,,,,,,,,,,,,,,,10,,77,0
3059,note_on,,14,0,14,,,,,,,,,,,,,,,,13,,60,0
3059,note_on,,14,0,13,,,,,,,,,,,,,,,,12,,63,0
3059,note_on,,14,0,15,,,,,,,,,,,,,,,,15,,77,0
3059,note_on,,14,0,6,,,,,,,,,,,,,,,,2,,60,0
3060,note_on,,1,0,12,,,,,,,,,,,,,,,,11,,68,72
3060,note_on,,1,0,10,,,,,,,,,,,,,,,,8,,60,72
3060,note_on,,1,0,7,,,,,,,,,,,,,,,,5,,77,72
3060,note_on,,1,0,5,,,,,,,,,,,,,,,,1,,77,72
3060,note_on,,1,0,11,,,,,,,,,,,,,,,,10,,77,72
3060,note_on,,1,0,14,,,,,,,,,,,,,,,,13,,60,72
3060,note_on,,1,0,9,,,,,,,,,,,,,,,,7,,63,72
3060,note_on,,0,0,15,,,,,,,,,,,,,,,,15,,68,72
3060,note_on,,0,0,15,,,,,,,,,,,,,,,,15,,75,72
3060,note_on,,1,0,13,,,,,,,,,,,,,,,,12,,63,72
3060,note_on,,1,0,15,,,,,,,,,,,,,,,,15,,60,72
3060,note_on,,1,0,6,,,,,,,,,,,,,,,,2,,60,72
3060,note_on,,1,0,8,,,,,,,,,,,,,,,,6,,68,72
3060,note_on,,0,0,15,,,,,,,,,,,,,,,,15,,65,72
3104,note_on,,44,0,13,,,,,,,,,,,,,,,,12,,63,0
3104,note_on,,44,0,6,,,,,,,,,,,,,,,,2,,60,0
3104,note_on,,44,0,12,,,,,,,,,,,,,,,,11,,68,0
3104,note_on,,44,0,15,,,,,,,,,,,,,,,,15,,60,0
3104,note_on,,44,0,14,,,,,,,,,,,,,,,,13,,60,0
3104,note_on,,44,0,11,,,,,,,,,,,,,,,,10,,77,0
3105,note_on,,1,0,13,,,,,,,,,,,,,,,,12,,63,72
3105,note_on,,1,0,6,,,,,,,,,,,,,,,,2,,60,72
3105,note_on,,1,0,12,,,,,,,,,,,,,,,,11,,68,72
3105,note_on,,1,0,11,,,,,,,,,,,,,,,,10,,77,72
3105,note_on,,1,0,14,,,,,,,,,,,,,,,,13,,60,72
3105,note_on,,1,0,15,,,,,,,,,,,,,,,,15,,60,72
3119,note_on,,0,0,15,,,,,,,,,,,,,,,,15,,68,0
3119,note_on,,59,0,10,,,,,,,,,,,,,,,,8,,60,0
3119,note_on,,59,0,5,,,,,,,,,,,,,,,,1,,77,0
3119,note_on,,59,0,7,,,,,,,,,,,,,,,,5,,77,0
3119,note_on,,14,0,14,,,,,,,,,,,,,,,,13,,60,0
3119,note_on,,59,0,9,,,,,,,,,,,,,,,,7,,63,0
3119,note_on,,59,0,8,,,,,,,,,,,,,,,,6,,68,0
3119,note_on,,0,0,15,,,,,,,,,,,,,,,,15,,65,0
3119,note_on,,0,0,15,,,,,,,,,,,,,,,,15,,60,0
3119,note_on,,14,0,12,,,,,,,,,,,,,,,,11,,68,0
3119,note_on,,14,0,6,,,,,,,,,,,,,,,,2,,60,0
3119,note_on,,14,0,13,,,,,,,,,,,,,,,,12,,63,0
3119,note_on,,14,0,11,,,,,,,,,,,,,,,,10,,77,0
3119,note_on,,14,0,15,,,,,,,,,,,,,,,,15,,75,0
3120,note_on,,1,0,7,,,,,,,,,,,,,,,,5,,77,72
3120,note_on,,1,0,5,,,,,,,,,,,,,,,,1,,77,72
3120,note_on,,1,0,6,,,,,,,,,,,,,,,,2,,59,72
3120,note_on,,1,0,10,,,,,,,,,,,,,,,,8,,59,72
3120,note_on,,1,0,13,,,,,,,,,,,,,,,,12,,62,72
3120,note_on,,1,0,12,,,,,,,,,,,,,,,,11,,68,72
3120,note_on,,1,0,9,,,,,,,,,,,,,,,,7,,62,72
3120,note_on,,1,0,11,,,,,,,,,,,,,,,,10,,77,72
3120,note_on,,0,0,15,,,,,,,,,,,,,,,,15,,65,72
3120,note_on,,0,0,15,,,,,,,,,,,,,,,,15,,68,72
3120,note_on,,1,0,14,,,,,,,,,,,,,,,,13,,59,72
3120,note_on,,1,0,8,,,,,,,,,,,,,,,,6,,68,72
3120,note_on,,0,0,15,,,,,,,,,,,,,,,,15,,74,72
3120,note_on,,1,0,15,,,,,,,,,,,,,,,,15,,59,72
3164,note_on,,44,0,13,,,,,,,,,,,,,,,,12,,62,0
3164,note_on,,44,0,11,,,,,,,,,,,,,,,,10,,77,0
3164,note_on,,44,0,15,,,,,,,,,,,,,,,,15,,59,0
3164,note_on,,44,0,14,,,,,,,,,,,,,,,,13,,59,0
3164,note_on,,44,0,12,,,,,,,,,,,,,,,,11,,68,0
3164,note_on,,44,0,6,,,,,,,,,,,,,,,,2,,59,0
3165,note_on,,1,0,13,,,,,,,,,,,,,,,,12,,62,72
3165,note_on,,1,0,14,,,,,,,,,,,,,,,,13,,59,72
3165,note_on,,1,0,12,,,,,,,,,,,,,,,,11,,68,72
3165,note_on,,1,0,6,,,,,,,,,,,,,,,,2,,59,72
3165,note_on,,1,0,11,,,,,,,,,,,,,,,,10,,77,72
3165,note_on,,1,0,15,,,,,,,,,,,,,,,,15,,59,72
3179,note_on,,14,0,6,,,,,,,,,,,,,,,,2,,59,0
3179,note_on,,14,0,14,,,,,,,,,,,,,,,,13,,59,0
3179,note_on,,14,0,15,,,,,,,,,,,,,,,,15,,59,0
3179,note_on,,14,0,13,,,,,,,,,,,,,,,,12,,62,0
3179,note_on,,14,0,11,,,,,,,,,,,,,,,,10,,77,0
3179,note_on,,14,0,12,,,,,,,,,,,,,,,,11,,68,0
3180,note_on,,1,0,11,,,,,,,,,,,,,,,,10,,77,72
3180,note_on,,1,0,14,,,,,,,,,,,,,,,,13,,59,72
3180,note_on,,1,0,6,,,,,,,,,,,,,,,,2,,59,72
3180,note_on,,1,0,15,,,,,,,,,,,,,,,,15,,59,72
3180,note_on,,1,0,13,,,,,,,,,,,,,,,,12,,62,72
3180,note_on,,1,0,12,,,,,,,,,,,,,,,,11,,68,72
3224,note_on,,44,0,14,,,,,,,,,,,,,,,,13,,59,0
3224,note_on,,44,0,12,,,,,,,,,,,,,,,,11,,68,0
3224,note_on,,44,0,15,,,,,,,,,,,,,,,,15,,59,0
3224,note_on,,44,0,6,,,,,,,,,,,,,,,,2,,59,0
3224,note_on,,44,0,11,,,,,,,,,,,,,,,,10,,77,0
3224,note_on,,44,0,13,,,,,,,,,,,,,,,,12,,62,0
3225,note_on,,1,0,14,,,,,,,,,,,,,,,,13,,59,72
3225,note_on,,1,0,12,,,,,,,,,,,,,,,,11,,68,72
3225,note_on,,1,0,13,,,,,,,,,,,,,,,,12,,62,72
3225,note_on,,1,0,6,,,,,,,,,,,,,,,,2,,59,72
3225,note_on,,1,0,11,,,,,,,,,,,,,,,,10,,77,72
3225,note_on,,1,0,15,,,,,,,,,,,,,,,,15,,59,72
3239,note_on,,14,0,13,,,,,,,,,,,,,,,,12,,62,0
3239,note_on,,14,0,6,,,,,,,,,,,,,,,,2,,59,0
3239,note_on,,14,0,11,,,,,,,,,,,,,,,,10,,77,0
3239,note_on,,14,0,14,,,,,,,,,,,,,,,,13,,59,0
3239,note_on,,14,0,15,,,,,,,,,,,,,,,,15,,59,0
3239,note_on,,14,0,12,,,,,,,,,,,,,,,,11,,68,0
3240,note_on,,1,0,6,,,,,,,,,,,,,,,,2,,59,72
3240,note_on,,1,0,15,,,,,,,,,,,,,,,,15,,59,72
3240,note_on,,1,0,13,,,,,,,,,,,,,,,,12,,62,72
3240,note_on,,1,0,11,,,,,,,,,,,,,,,,10,,77,72
3240,note_on,,1,0,12,,,,,,,,,,,,,,,,11,,68,72
3240,note_on,,1,0,14,,,,,,,,,,,,,,,,13,,59,72
3284,note_on,,44,0,14,,,,,,,,,,,,,,,,13,,59,0
3284,note_on,,44,0,12,,,,,,,,,,,,,,,,11,,68,0
3284,note_on,,44,0,6,,,,,,,,,,,,,,,,2,,59,0
3284,note_on,,44,0,11,,,,,,,,,,,,,,,,10,,77,0
3284,note_on,,44,0,15,,,,,,,,,,,,,,,,15,,59,0
3284,note_on,,44,0,13,,,,,,,,,,,,,,,,12,,62,0
3285,note_on,,1,0,6,,,,,,,,,,,,,,,,2,,59,72
3285,note_on,,1,0,14,,,,,,,,,,,,,,,,13,,59,72
3285,note_on,,1,0,13,,,,,,,,,,,,,,,,12,,62,72
3285,note_on,,1,0,11,,,,,,,,,,,,,,,,10,,77,72
3285,note_on,,1,0,12,,,,,,,,,,,,,,,,11,,68,72
3285,note_on,,1,0,15,,,,,,,,,,,,,,,,15,,59,72
3299,note_on,,0,0,15,,,,,,,,,,,,,,,,15,,68,0
3299,note_on,,0,0,15,,,,,,,,,,,,,,,,15,,65,0
3299,note_on,,14,0,14,,,,,,,,,,,,,,,,13,,59,0
3299,note_on,,14,0,13,,,,,,,,,,,,,,,,12,,62,0
3299,note_on,,179,0,9,,,,,,,,,,,,,,,,7,,62,0
3299,note_on,,14,0,15,,,,,,,,,,,,,,,,15,,74,0
3299,note_on,,14,0,6,,,,,,,,,,,,,,,,2,,59,0
3299,note_on,,179,0,5,,,,,,,,,,,,,,,,1,,77,0
3299,note_on,,14,0,12,,,,,,,,,,,,,,,,11,,68,0
3299,note_on,,179,0,7,,,,,,,,,,,,,,,,5,,77,0
3299,note_on,,179,0,10,,,,,,,,,,,,,,,,8,,59,0
3299,note_on,,179,0,8,,,,,,,,,,,,,,,,6,,68,0
3299,note_on,,0,0,15,,,,,,,,,,,,,,,,15,,59,0
3299,note_on,,14,0,11,,,,,,,,,,,,,,,,10,,77,0
3300,note_on,,1,0,12,,,,,,,,,,,,,,,,11,,67,72
3300,note_on,,1,0,13,,,,,,,,,,,,,,,,12,,62,72
3300,note_on,,1,0,7,,,,,,,,,,,,,,,,5,,77,72
3300,note_on,,1,0,9,,,,,,,,,,,,,,,,7,,62,72
3300,note_on,,1,0,10,,,,,,,,,,,,,,,,8,,59,72
3300,note_on,,1,0,5,,,,,,,,,,,,,,,,1,,77,72
3300,note_on,,1,0,6,,,,,,,,,,,,,,,,2,,59,72
3300,note_on,,1,0,11,,,,,,,,,,,,,,,,10,,77,72
3300,note_on,,1,0,15,,,,,,,,,,,,,,,,15,,59,72
3300,note_on,,1,0,14,,,,,,,,,,,,,,,,13,,59,72
3300,note_on,,0,0,15,,,,,,,,,,,,,,,,15,,74,72
3300,note_on,,0,0,15,,,,,,,,,,,,,,,,15,,67,72
3300,note_on,,0,0,15,,,,,,,,,,,,,,,,15,,62,72
3300,note_on,,1,0,8,,,,,,,,,,,,,,,,6,,67,72
3344,note_on,,44,0,14,,,,,,,,,,,,,,,,13,,59,0
3344,note_on,,44,0,15,,,,,,,,,,,,,,,,15,,59,0
3344,note_on,,44,0,13,,,,,,,,,,,,,,,,12,,62,0
3344,note_on,,44,0,12,,,,,,,,,,,,,,,,11,,67,0
3344,note_on,,44,0,11,,,,,,,,,,,,,,,,10,,77,0
3344,note_on,,44,0,6,,,,,,,,,,,,,,,,2,,59,0
3345,note_on,,1,0,14,,,,,,,,,,,,,,,,13,,59,72
3345,note_on,,1,0,13,,,,,,,,,,,,,,,,12,,62,72
3345,note_on,,1,0,6,,,,,,,,,,,,,,,,2,,59,72
3345,note_on,,1,0,11,,,,,,,,,,,,,,,,10,,77,72
3345,note_on,,1,0,12,,,,,,,,,,,,,,,,11,,67,72
3345,note_on,,1,0,15,,,,,,,,,,,,,,,,15,,59,72
3359,note_on,,59,0,9,,,,,,,,,,,,,,,,7,,62,0
3359,note_on,,0,0,15,,,,,,,,,,,,,,,,15,,67,0
3359,note_on,,14,0,13,,,,,,,,,,,,,,,,12,,62,0
3359,note_on,,14,0,15,,,,,,,,,,,,,,,,15,,74,0
3359,note_on,,14,0,6,,,,,,,,,,,,,,,,2,,59,0
3359,note_on,,14,0,11,,,,,,,,,,,,,,,,10,,77,0
3359,note_on,,59,0,8,,,,,,,,,,,,,,,,6,,67,0
3359,note_on,,59,0,5,,,,,,,,,,,,,,,,1,,77,0
3359,note_on,,0,0,15,,,,,,,,,,,,,,,,15,,59,0
3359,note_on,,59,0,7,,,,,,,,,,,,,,,,5,,77,0
3359,note_on,,14,0,12,,,,,,,,,,,,,,,,11,,67,0
3359,note_on,,59,0,10,,,,,,,,,,,,,,,,8,,59,0
3359,note_on,,14,0,14,,,,,,,,,,,,,,,,13,,59,0
3359,note_on,,0,0,15,,,,,,,,,,,,,,,,15,,62,0
3360,note_on,,0,0,15,,,,,,,,,,,,,,,,15,,67,72
3360,note_on,,0,0,15,,,,,,,,,,,,,,,,15,,63,72
3360,note_on,,1,0,11,,,,,,,,,,,,,,,,10,,75,72
3360,note_on,,0,0,15,,,,,,,,,,,,,,,,15,,72,72
3360,note_on,,1,0,5,,,,,,,,,,,,,,,,1,,75,72
3360,note_on,,1,0,7,,,,,,,,,,,,,,,,5,,75,72
3360,note_on,,1,0,12,,,,,,,,,,,,,,,,11,,67,72
3360,note_on,,1,0,10,,,,,,,,,,,,,,,,8,,60,72
3360,note_on,,1,0,14,,,,,,,,,,,,,,,,13,,60,72
3360,note_on,,1,0,15,,,,,,,,,,,,,,,,15,,60,72
3360,note_on,,1,0,6,,,,,,,,,,,,,,,,2,,60,72
3360,note_on,,1,0,8,,,,,,,,,,,,,,,,6,,67,72
3360,note_on,,1,0,13,,,,,,,,,,,,,,,,12,,63,72
3360,note_on,,1,0,9,,,,,,,,,,,,,,,,7,,63,72
3404,note_on,,44,0,15,,,,,,,,,,,,,,,,15,,60,0
3404,note_on,,44,0,6,,,,,,,,,,,,,,,,2,,60,0
3404,note_on,,44,0,13,,,,,,,,,,,,,,,,12,,63,0
3404,note_on,,44,0,12,,,,,,,,,,,,,,,,11,,67,0
3404,note_on,,44,0,14,,,,,,,,,,,,,,,,13,,60,0
3404,note_on,,44,0,11,,,,,,,,,,,,,,,,10,,75,0
3405,note_on,,1,0,12,,,,,,,,,,,,,,,,11,,67,72
3405,note_on,,1,0,6,,,,,,,,,,,,,,,,2,,60,72
3405,note_on,,1,0,14,,,,,,,,,,,,,,,,13,,60,72
3405,note_on,,1,0,15,,,,,,,,,,,,,,,,15,,60,72
3405,note_on,,1,0,11,,,,,,,,,,,,,,,,10,,75,72
3405,note_on,,1,0,13,,,,,,,,,,,,,,,,12,,63,72
3419,note_on,,14,0,13,,,,,,,,,,,,,,,,12,,63,0
3419,note_on,,14,0,15,,,,,,,,,,,,,,,,15,,60,0
3419,note_on,,14,0,12,,,,,,,,,,,,,,,,11,,67,0
3419,note_on,,14,0,11,,,,,,,,,,,,,,,,10,,75,0
3419,note_on,,14,0,14,,,,,,,,,,,,,,,,13,,60,0
3419,note_on,,14,0,6,,,,,,,,,,,,,,,,2,,60,0
3420,note_on,,1,0,12,,,,,,,,,,,,,,,,11,,67,72
3420,note_on,,1,0,11,,,,,,,,,,,,,,,,10,,75,72
3420,note_on,,1,0,13,,,,,,,,,,,,,,,,12,,63,72
3420,note_on,,1,0,14,,,,,,,,,,,,,,,,13,,60,72
3420,note_on,,1,0,6,,,,,,,,,,,,,,,,2,,60,72
3420,note_on,,1,0,15,,,,,,,,,,,,,,,,15,,60,72
3464,note_on,,44,0,12,,,,,,,,,,,,,,,,11,,67,0
3464,note_on,,44,0,11,,,,,,,,,,,,,,,,10,,75,0
3464,note_on,,44,0,13,,,,,,,,,,,,,,,,12,,63,0
3464,note_on,,44,0,6,,,,,,,,,,,,,,,,2,,60,0
3464,note_on,,44,0,14,,,,,,,,,,,,,,,,13,,60,0
3464,note_on,,44,0,15,,,,,,,,,,,,,,,,15,,60,0
3465,note_on,,1,0,12,,,,,,,,,,,,,,,,11,,67,72
3465,note_on,,1,0,15,,,,,,,,,,,,,,,,15,,60,72
3465,note_on,,1,0,11,,,,,,,,,,,,,,,,10,,75,72
3465,note_on,,1,0,14,,,,,,,,,,,,,,,,13,,60,72
3465,note_on,,1,0,13,,,,,,,,,,,,,,,,12,,63,72
3465,note_on,,1,0,6,,,,,,,,,,,,,,,,2,,60,72
3479,note_on,,14,0,6,,,,,,,,,,,,,,,,2,,60,0
3479,note_on,,14,0,12,,,,,,,,,,,,,,,,11,,67,0
3479,note_on,,14,0,13,,,,,,,,,,,,,,,,12,,63,0
3479,note_on,,119,0,5,,,,,,,,,,,,,,,,1,,75,0
3479,note_on,,119,0,7,,,,,,,,,,,,,,,,5,,75,0
3479,note_on,,119,0,8,,,,,,,,,,,,,,,,6,,67,0
3479,note_on,,14,0,15,,,,,,,,,,,,,,,,15,,60,0
3479,note_on,,14,0,11,,,,,,,,,,,,,,,,10,,75,0
3479,note_on,,14,0,14,,,,,,,,,,,,,,,,13,,60,0
3479,note_on,,119,0,10,,,,,,,,,,,,,,,,8,,60,0
3479,note_on,,119,0,9,,,,,,,,,,,,,,,,7,,63,0
3480,note_on,,1,0,15,,,,,,,,,,,,,,,,15,,60,72
3480,note_on,,1,0,5,,,,,,,,,,,,,,,,1,,75,72
3480,note_on,,1,0,11,,,,,,,,,,,,,,,,10,,75,72
3480,note_on,,1,0,13,,,,,,,,,,,,,,,,12,,63,72
3480,note_on,,1,0,10,,,,,,,,,,,,,,,,8,,60,72
3480,note_on,,1,0,9,,,,,,,,,,,,,,,,7,,63,72
3480,note_on,,1,0,8,,,,,,,,,,,,,,,,6,,67,72
3480,note_on,,1,0,7,,,,,,,,,,,,,,,,5,,75,72
3480,note_on,,1,0,6,,,,,,,,,,,,,,,,2,,60,72
3480,note_on,,1,0,14,,,,,,,,,,,,,,,,13,,60,72
3480,note_on,,1,0,12,,,,,,,,,,,,,,,,11,,67,72
3524,note_on,,44,0,14,,,,,,,,,,,,,,,,13,,60,0
3524,note_on,,44,0,13,,,,,,,,,,,,,,,,12,,63,0
3524,note_on,,44,0,6,,,,,,,,,,,,,,,,2,,60,0
3524,note_on,,44,0,15,,,,,,,,,,,,,,,,15,,60,0
3524,note_on,,44,0,11,,,,,,,,,,,,,,,,10,,75,0
3524,note_on,,44,0,12,,,,,,,,,,,,,,,,11,,67,0
3525,note_on,,1,0,14,,,,,,,,,,,,,,,,13,,60,72
3525,note_on,,1,0,13,,,,,,,,,,,,,,,,12,,63,72
3525,note_on,,1,0,6,,,,,,,,,,,,,,,,2,,60,72
3525,note_on,,1,0,11,,,,,,,,,,,,,,,,10,,75,72
3525,note_on,,1,0,12,,,,,,,,,,,,,,,,11,,67,72
3525,note_on,,1,0,15,,,,,,,,,,,,,,,,15,,60,72
3539,note_on,,59,0,10,,,,,,,,,,,,,,,,8,,60,0
3539,note_on,,14,0,13,,,,,,,,,,,,,,,,12,,63,0
3539,note_on,,0,0,15,,,,,,,,,,,,,,,,15,,60,0
3539,note_on,,0,0,15,,,,,,,,,,,,,,,,15,,63,0
3539,note_on,,0,0,15,,,,,,,,,,,,,,,,15,,67,0
3539,note_on,,14,0,15,,,,,,,,,,,,,,,,15,,72,0
3539,note_on,,59,0,8,,,,,,,,,,,,,,,,6,,67,0
3539,note_on,,14,0,11,,,,,,,,,,,,,,,,10,,75,0
3539,note_on,,14,0,14,,,,,,,,,,,,,,,,13,,60,0
3539,note_on,,59,0,5,,,,,,,,,,,,,,,,1,,75,0
3539,note_on,,14,0,12,,,,,,,,,,,,,,,,11,,67,0
3539,note_on,,14,0,6,,,,,,,,,,,,,,,,2,,60,0
3539,note_on,,59,0,7,,,,,,,,,,,,,,,,5,,75,0
3539,note_on,,59,0,9,,,,,,,,,,,,,,,,7,,63,0
3540,note_on,,1,0,11,,,,,,,,,,,,,,,,10,,77,72
3540,note_on,,1,0,14,,,,,,,,,,,,,,,,13,,56,72
3540,note_on,,0,0,15,,,,,,,,,,,,,,,,15,,60,72
3540,note_on,,1,0,10,,,,,,,,,,,,,,,,8,,56,72
3540,note_on,,1,0,7,,,,,,,,,,,,,,,,5,,77,72
3540,note_on,,1,0,13,,,,,,,,,,,,,,,,12,,60,72
3540,note_on,,1,0,5,,,,,,,,,,,,,,,,1,,77,72
3540,note_on,,1,0,12,,,,,,,,,,,,,,,,11,,72,72
3540,note_on,,1,0,15,,,,,,,,,,,,,,,,15,,56,72
3540,note_on,,0,0,15,,,,,,,,,,,,,,,,15,,72,72
3540,note_on,,0,0,15,,,,,,,,,,,,,,,,15,,65,72
3540,note_on,,1,0,8,,,,,,,,,,,,,,,,6,,68,72
3540,note_on,,1,0,6,,,,,,,,,,,,,,,,2,,56,72
3540,note_on,,1,0,9,,,,,,,,,,,,,,,,7,,60,72
3584,note_on,,44,0,14,,,,,,,,,,,,,,,,13,,56,0
3584,note_on,,44,0,15,,,,,,,,,,,,,,,,15,,56,0
3584,note_on,,44,0,11,,,,,,,,,,,,,,,,10,,77,0
3584,note_on,,44,0,6,,,,,,,,,,,,,,,,2,,56,0
3584,note_on,,44,0,13,,,,,,,,,,,,,,,,12,,60,0
3584,note_on,,44,0,12,,,,,,,,,,,,,,,,11,,72,0
3585,note_on,,1,0,15,,,,,,,,,,,,,,,,15,,56,72
3585,note_on,,1,0,13,,,,,,,,,,,,,,,,12,,60,72
3585,note_on,,1,0,14,,,,,,,,,,,,,,,,13,,56,72
3585,note_on,,1,0,6,,,,,,,,,,,,,,,,2,,56,72
3585,note_on,,1,0,11,,,,,,,,,,,,,,,,10,,77,72
3585,note_on,,1,0,12,,,,,,,,,,,,,,,,11,,72,72
3599,note_on,,14,0,6,,,,,,,,,,,,,,,,2,,56,0
3599,note_on,,59,0,10,,,,,,,,,,,,,,,,8,,56,0
3599,note_on,,14,0,13,,,,,,,,,,,,,,,,12,,60,0
3599,note_on,,59,0,5,,,,,,,,,,,,,,,,1,,77,0
3599,note_on,,59,0,7,,,,,,,,,,,,,,,,5,,77,0
3599,note_on,,14,0,12,,,,,,,,,,,,,,,,11,,72,0
3599,note_on,,59,0,8,,,,,,,,,,,,,,,,6,,68,0
3599,note_on,,59,0,9,,,,,,,,,,,,,,,,7,,60,0
3599,note_on,,0,0,15,,,,,,,,,,,,,,,,15,,56,0
3599,note_on,,0,0,15,,,,,,,,,,,,,,,,15,,60,0
3599,note_on,,0,0,15,,,,,,,,,,,,,,,,15,,65,0
3599,note_on,,14,0,15,,,,,,,,,,,,,,,,15,,72,0
3599,note_on,,14,0,14,,,,,,,,,,,,,,,,13,,56,0
3599,note_on,,14,0,11,,,,,,,,,,,,,,,,10,,77,0
3600,note_on,,1,0,10,,,,,,,,,,,,,,,,8,,55,72
3600,note_on,,1,0,5,,,,,,,,,,,,,,,,1,,79,72
3600,note_on,,1,0,12,,,,,,,,,,,,,,,,11,,71,72
3600,note_on,,0,0,15,,,,,,,,,,,,,,,,15,,55,72
3600,note_on,,0,0,15,,,,,,,,,,,,,,,,15,,71,72
3600,note_on,,1,0,6,,,,,,,,,,,,,,,,2,,55,72
3600,note_on,,1,0,9,,,,,,,,,,,,,,,,7,,59,72
3600,note_on,,0,0,15,,,,,,,,,,,,,,,,15,,67,72
3600,note_on,,1,0,11,,,,,,,,,,,,,,,,10,,79,72
3600,note_on,,1,0,14,,,,,,,,,,,,,,,,13,,55,72
3600,note_on,,1,0,15,,,,,,,,,,,,,,,,15,,61,72
3600,note_on,,1,0,7,,,,,,,,,,,,,,,,5,,79,72
3600,note_on,,1,0,8,,,,,,,,,,,,,,,,6,,62,72
3600,note_on,,1,0,13,,,,,,,,,,,,,,,,12,,62,72
3644,note_on,,44,0,15,,,,,,,,,,,,,,,,15,,55,0
3644,note_on,,44,0,14,,,,,,,,,,,,,,,,13,,55,0
3644,note_on,,44,0,6,,,,,,,,,,,,,,,,2,,55,0
3644,note_on,,44,0,12,,,,,,,,,,,,,,,,11,,71,0
3644,note_on,,44,0,13,,,,,,,,,,,,,,,,12,,62,0
3645,note_on,,1,0,13,,,,,,,,,,,,,,,,12,,62,72
3645,note_on,,1,0,12,,,,,,,,,,,,,,,,11,,71,72
3645,note_on,,1,0,15,,,,,,,,,,,,,,,,15,,55,72
3645,note_on,,1,0,14,,,,,,,,,,,,,,,,13,,55,72
3645,note_on,,1,0,6,,,,,,,,,,,,,,,,2,,55,72
3659,note_on,,14,0,15,,,,,,,,,,,,,,,,15,,55,0
3659,note_on,,14,0,13,,,,,,,,,,,,,,,,12,,62,0
3659,note_on,,14,0,14,,,,,,,,,,,,,,,,13,,55,0
3659,note_on,,14,0,6,,,,,,,,,,,,,,,,2,,55,0
3659,note_on,,14,0,12,,,,,,,,,,,,,,,,11,,71,0
3660,note_on,,1,0,15,,,,,,,,,,,,,,,,15,,55,72
3660,note_on,,1,0,6,,,,,,,,,,,,,,,,2,,55,72
3660,note_on,,1,0,14,,,,,,,,,,,,,,,,13,,55,72
3660,note_on,,1,0,13,,,,,,,,,,,,,,,,12,,62,72
3660,note_on,,1,0,12,,,,,,,,,,,,,,,,11,,71,72
3704,note_on,,44,0,15,,,,,,,,,,,,,,,,15,,55,0
3704,note_on,,44,0,12,,,,,,,,,,,,,,,,11,,71,0
3704,note_on,,44,0,13,,,,,,,,,,,,,,,,12,,62,0
3704,note_on,,44,0,14,,,,,,,,,,,,,,,,13,,55,0
3704,note_on,,44,0,6,,,,,,,,,,,,,,,,2,,55,0
3705,note_on,,1,0,15,,,,,,,,,,,,,,,,15,,55,72
3705,note_on,,1,0,13,,,,,,,,,,,,,,,,12,,62,72
3705,note_on,,1,0,6,,,,,,,,,,,,,,,,2,,55,72
3705,note_on,,1,0,14,,,,,,,,,,,,,,,,13,,55,72
3705,note_on,,1,0,12,,,,,,,,,,,,,,,,11,,71,72
3719,note_on,,14,0,6,,,,,,,,,,,,,,,,2,,55,0
3719,note_on,,14,0,15,,,,,,,,,,,,,,,,15,,61,0
3719,note_on,,0,0,15,,,,,,,,,,,,,,,,15,,71,0
3719,note_on,,14,0,14,,,,,,,,,,,,,,,,13,,55,0
3719,note_on,,119,0,5,,,,,,,,,,,,,,,,1,,79,0
3719,note_on,,14,0,12,,,,,,,,,,,,,,,,11,,71,0
3719,note_on,,119,0,7,,,,,,,,,,,,,,,,5,,79,0
3719,note_on,,119,0,9,,,,,,,,,,,,,,,,7,,59,0
3719,note_on,,14,0,13,,,,,,,,,,,,,,,,12,,62,0
3719,note_on,,119,0,8,,,,,,,,,,,,,,,,6,,62,0
3719,note_on,,0,0,15,,,,,,,,,,,,,,,,15,,67,0
3719,note_on,,0,0,15,,,,,,,,,,,,,,,,15,,55,0
3719,note_on,,119,0,10,,,,,,,,,,,,,,,,8,,55,0
3719,note_on,,119,0,11,,,,,,,,,,,,,,,,10,,79,0
3720,note_on,,1,0,13,,,,,,,,,,,,,,,,12,,62,72
3720,note_on,,1,0,9,,,,,,,,,,,,,,,,7,,59,72
3720,note_on,,0,0,15,,,,,,,,,,,,,,,,15,,59,72
3720,note_on,,0,0,15,,,,,,,,,,,,,,,,15,,67,72
3720,note_on,,1,0,15,,,,,,,,,,,,,,,,15,,55,72
3720,note_on,,1,0,14,,,,,,,,,,,,,,,,13,,55,72
3720,note_on,,1,0,8,,,,,,,,,,,,,,,,6,,62,72
3720,note_on,,1,0,10,,,,,,,,,,,,,,,,8,,55,72
3720,note_on,,1,0,11,,,,,,,,,,,,,,,,10,,67,72
3720,note_on,,0,0,15,,,,,,,,,,,,,,,,15,,61,72
3720,note_on,,1,0,12,,,,,,,,,,,,,,,,11,,71,72
3720,note_on,,1,0,6,,,,,,,,,,,,,,,,2,,55,72
3720,note_on,,1,0,7,,,,,,,,,,,,,,,,5,,79,72
3720,note_on,,1,0,5,,,,,,,,,,,,,,,,1,,79,72
3764,note_on,,44,0,14,,,,,,,,,,,,,,,,13,,55,0
3764,note_on,,44,0,15,,,,,,,,,,,,,,,,15,,55,0
3764,note_on,,44,0,12,,,,,,,,,,,,,,,,11,,71,0
3764,note_on,,44,0,13,,,,,,,,,,,,,,,,12,,62,0
3764,note_on,,44,0,6,,,,,,,,,,,,,,,,2,,55,0
3765,note_on,,1,0,6,,,,,,,,,,,,,,,,2,,55,72
3765,note_on,,1,0,15,,,,,,,,,,,,,,,,15,,55,72
3765,note_on,,1,0,14,,,,,,,,,,,,,,,,13,,55,72
3765,note_on,,1,0,12,,,,,,,,,,,,,,,,11,,71,72
3765,note_on,,1,0,13,,,,,,,,,,,,,,,,12,,62,72
3779,note_on,,14,0,12,,,,,,,,,,,,,,,,11,,71,0
3779,note_on,,14,0,14,,,,,,,,,,,,,,,,13,,55,0
3779,note_on,,14,0,6,,,,,,,,,,,,,,,,2,,55,0
3779,note_on,,14,0,15,,,,,,,,,,,,,,,,15,,55,0
3779,note_on,,14,0,13,,,,,,,,,,,,,,,,12,,62,0
3780,note_on,,1,0,14,,,,,,,,,,,,,,,,13,,55,72
3780,note_on,,1,0,15,,,,,,,,,,,,,,,,15,,55,72
3780,note_on,,1,0,12,,,,,,,,,,,,,,,,11,,71,72
3780,note_on,,1,0,6,,,,,,,,,,,,,,,,2,,55,72
3780,note_on,,1,0,13,,,,,,,,,,,,,,,,12,,62,72
3824,note_on,,44,0,13,,,,,,,,,,,,,,,,12,,62,0
3824,note_on,,44,0,14,,,,,,,,,,,,,,,,13,,55,0
3824,note_on,,44,0,6,,,,,,,,,,,,,,,,2,,55,0
3824,note_on,,44,0,15,,,,,,,,,,,,,,,,15,,55,0
3824,note_on,,44,0,12,,,,,,,,,,,,,,,,11,,71,0
3825,note_on,,1,0,12,,,,,,,,,,,,,,,,11,,71,72
3825,note_on,,1,0,13,,,,,,,,,,,,,,,,12,,62,72
3825,note_on,,1,0,6,,,,,,,,,,,,,,,,2,,55,72
3825,note_on,,1,0,15,,,,,,,,,,,,,,,,15,,55,72
3825,note_on,,1,0,14,,,,,,,,,,,,,,,,13,,55,72
3839,note_on,,119,0,7,,,,,,,,,,,,,,,,5,,79,0
3839,note_on,,14,0,12,,,,,,,,,,,,,,,,11,,71,0
3839,note_on,,14,0,13,,,,,,,,,,,,,,,,12,,62,0
3839,note_on,,0,0,15,,,,,,,,,,,,,,,,15,,55,0
3839,note_on,,119,0,8,,,,,,,,,,,,,,,,6,,62,0
3839,note_on,,0,0,15,,,,,,,,,,,,,,,,15,,61,0
3839,note_on,,119,0,5,,,,,,,,,,,,,,,,1,,79,0
3839,note_on,,119,0,10,,,,,,,,,,,,,,,,8,,55,0
3839,note_on,,14,0,15,,,,,,,,,,,,,,,,15,,67,0
3839,note_on,,14,0,14,,,,,,,,,,,,,,,,13,,55,0
3839,note_on,,119,0,9,,,,,,,,,,,,,,,,7,,59,0
3839,note_on,,14,0,6,,,,,,,,,,,,,,,,2,,55,0
3839,note_on,,0,0,15,,,,,,,,,,,,,,,,15,,59,0
3839,note_on,,119,0,11,,,,,,,,,,,,,,,,10,,67,0
3840,note_on,,1,0,8,,,,,,,,,,,,,,,,6,,67,72
3840,note_on,,1,0,7,,,,,,,,,,,,,,,,5,,75,72
3840,note_on,,0,0,15,,,,,,,,,,,,,,,,15,,67,72
3840,note_on,,0,0,15,,,,,,,,,,,,,,,,15,,63,72
3840,note_on,,1,0,5,,,,,,,,,,,,,,,,1,,75,72
3840,note_on,,1,0,6,,,,,,,,,,,,,,,,2,,48,72
3840,note_on,,1,0,15,,,,,,,,,,,,,,,,15,,48,72
3840,note_on,,1,0,13,,,,,,,,,,,,,,,,12,,63,72
3840,note_on,,0,0,15,,,,,,,,,,,,,,,,15,,60,72
3840,note_on,,1,0,14,,,,,,,,,,,,,,,,13,,48,72
3840,note_on,,0,0,15,,,,,,,,,,,,,,,,15,,55,72
3840,note_on,,1,0,9,,,,,,,,,,,,,,,,7,,60,72
3840,note_on,,1,0,10,,,,,,,,,,,,,,,,8,,60,72
3840,note_on,,1,0,12,,,,,,,,,,,,,,,,11,,67,72
3884,note_on,,44,0,8,,,,,,,,,,,,,,,,6,,67,0
3884,note_on,,44,0,10,,,,,,,,,,,,,,,,8,,60,0
3884,note_on,,44,0,5,,,,,,,,,,,,,,,,1,,75,0
3884,note_on,,44,0,9,,,,,,,,,,,,,,,,7,,60,0
3884,note_on,,44,0,7,,,,,,,,,,,,,,,,5,,75,0
3885,note_on,,1,0,10,,,,,,,,,,,,,,,,8,,48,72
3885,note_on,,1,0,9,,,,,,,,,,,,,,,,7,,55,72
3885,note_on,,1,0,7,,,,,,,,,,,,,,,,5,,74,72
3885,note_on,,1,0,8,,,,,,,,,,,,,,,,6,,65,72
3885,note_on,,46,0,11,,,,,,,,,,,,,,,,10,,79,72
3885,note_on,,1,0,5,,,,,,,,,,,,,,,,1,,74,72
3899,note_on,,14,0,5,,,,,,,,,,,,,,,,1,,74,0
3899,note_on,,14,0,10,,,,,,,,,,,,,,,,8,,48,0
3899,note_on,,14,0,9,,,,,,,,,,,,,,,,7,,55,0
3899,note_on,,14,0,7,,,,,,,,,,,,,,,,5,,74,0
3899,note_on,,14,0,8,,,,,,,,,,,,,,,,6,,65,0
3899,note_on,,14,0,11,,,,,,,,,,,,,,,,10,,79,0
3900,note_on,,1,0,11,,,,,,,,,,,,,,,,10,,79,72
3900,note_on,,1,0,9,,,,,,,,,,,,,,,,7,,55,72
3900,note_on,,1,0,8,,,,,,,,,,,,,,,,6,,63,72
3900,note_on,,1,0,5,,,,,,,,,,,,,,,,1,,72,72
3900,note_on,,1,0,10,,,,,,,,,,,,,,,,8,,48,72
3900,note_on,,1,0,7,,,,,,,,,,,,,,,,5,,72,72
3944,note_on,,44,0,11,,,,,,,,,,,,,,,,10,,79,0
3945,note_on,,1,0,11,,,,,,,,,,,,,,,,10,,79,72
3959,note_on,,119,0,13,,,,,,,,,,,,,,,,12,,63,0
3959,note_on,,119,0,12,,,,,,,,,,,,,,,,11,,67,0
3959,note_on,,119,0,14,,,,,,,,,,,,,,,,13,,48,0
3959,note_on,,59,0,9,,,,,,,,,,,,,,,,7,,55,0
3959,note_on,,59,0,10,,,,,,,,,,,,,,,,8,,48,0
3959,note_on,,0,0,15,,,,,,,,,,,,,,,,15,,55,0
3959,note_on,,119,0,6,,,,,,,,,,,,,,,,2,,48,0
3959,note_on,,0,0,15,,,,,,,,,,,,,,,,15,,60,0
3959,note_on,,0,0,15,,,,,,,,,,,,,,,,15,,63,0
3959,note_on,,59,0,5,,,,,,,,,,,,,,,,1,,72,0
3959,note_on,,59,0,8,,,,,,,,,,,,,,,,6,,63,0
3959,note_on,,0,0,15,,,,,,,,,,,,,,,,15,,67,0
3959,note_on,,119,0,15,,,,,,,,,,,,,,,,15,,48,0
3959,note_on,,14,0,11,,,,,,,,,,,,,,,,10,,79,0
3959,note_on,,59,0,7,,,,,,,,,,,,,,,,5,,72,0
3960,note_on,,1,0,11,,,,,,,,,,,,,,,,10,,84,72
4005,note_on,,46,0,14,,,,,,,,,,,,,,,,13,,48,72
4005,note_on,,46,0,6,,,,,,,,,,,,,,,,2,,48,72
4005,note_on,,46,0,15,,,,,,,,,,,,,,,,15,,48,72
4005,note_on,,46,0,13,,,,,,,,,,,,,,,,12,,60,72
4005,note_on,,46,0,12,,,,,,,,,,,,,,,,11,,63,72
4019,note_on,,14,0,15,,,,,,,,,,,,,,,,15,,48,0
4019,note_on,,14,0,6,,,,,,,,,,,,,,,,2,,48,0
4019,note_on,,14,0,14,,,,,,,,,,,,,,,,13,,48,0
4019,note_on,,14,0,13,,,,,,,,,,,,,,,,12,,60,0
4019,note_on,,14,0,12,,,,,,,,,,,,,,,,11,,63,0
4020,note_on,,0,0,15,,,,,,,,,,,,,,,,15,,55,72
4020,note_on,,0,0,15,,,,,,,,,,,,,,,,15,,60,72
4020,note_on,,1,0,15,,,,,,,,,,,,,,,,15,,48,72
4020,note_on,,1,0,13,,,,,,,,,,,,,,,,12,,60,72
4020,note_on,,1,0,14,,,,,,,,,,,,,,,,13,,48,72
4020,note_on,,1,0,6,,,,,,,,,,,,,,,,2,,48,72
4020,note_on,,0,0,15,,,,,,,,,,,,,,,,15,,51,72
4020,note_on,,1,0,12,,,,,,,,,,,,,,,,11,,63,72
4064,note_on,,44,0,12,,,,,,,,,,,,,,,,11,,63,0
4064,note_on,,44,0,6,,,,,,,,,,,,,,,,2,,48,0
4064,note_on,,44,0,13,,,,,,,,,,,,,,,,12,,60,0
4064,note_on,,44,0,15,,,,,,,,,,,,,,,,15,,48,0
4064,note_on,,44,0,14,,,,,,,,,,,,,,,,13,,48,0
4065,note_on,,1,0,6,,,,,,,,,,,,,,,,2,,48,72
4065,note_on,,1,0,15,,,,,,,,,,,,,,,,15,,48,72
4065,note_on,,1,0,12,,,,,,,,,,,,,,,,11,,63,72
4065,note_on,,1,0,14,,,,,,,,,,,,,,,,13,,48,72
4065,note_on,,1,0,13,,,,,,,,,,,,,,,,12,,60,72
4079,note_on,,14,0,14,,,,,,,,,,,,,,,,13,,48,0
4079,note_on,,14,0,12,,,,,,,,,,,,,,,,11,,63,0
4079,note_on,,119,0,11,,,,,,,,,,,,,,,,10,,84,0
4079,note_on,,14,0,6,,,,,,,,,,,,,,,,2,,48,0
4079,note_on,,14,0,15,,,,,,,,,,,,,,,,15,,60,0
4079,note_on,,0,0,15,,,,,,,,,,,,,,,,15,,55,0
4079,note_on,,0,0,15,,,,,,,,,,,,,,,,15,,51,0
4079,note_on,,0,0,15,,,,,,,,,,,,,,,,15,,48,0
4079,note_on,,14,0,13,,,,,,,,,,,,,,,,12,,60,0
4080,note_on,,1,0,13,,,,,,,,,,,,,,,,12,,72,72
4080,note_on,,121,0,7,,,,,,,,,,,,,,,,5,,75,72
4080,note_on,,1,0,14,,,,,,,,,,,,,,,,13,,46,72
4080,note_on,,0,0,15,,,,,,,,,,,,,,,,15,,55,72
4080,note_on,,0,0,15,,,,,,,,,,,,,,,,15,,60,72
4080,note_on,,0,0,15,,,,,,,,,,,,,,,,15,,63,72
4080,note_on,,121,0,9,,,,,,,,,,,,,,,,7,,63,72
4080,note_on,,121,0,8,,,,,,,,,,,,,,,,6,,67,72
4080,note_on,,1,0,15,,,,,,,,,,,,,,,,15,,46,72
4080,note_on,,1,0,12,,,,,,,,,,,,,,,,11,,75,72
4080,note_on,,1,0,6,,,,,,,,,,,,,,,,2,,46,72
4080,note_on,,121,0,10,,,,,,,,,,,,,,,,8,,60,72
4080,note_on,,121,0,5,,,,,,,,,,,,,,,,1,,75,72
4124,note_on,,44,0,8,,,,,,,,,,,,,,,,6,,67,0
4124,note_on,,44,0,10,,,,,,,,,,,,,,,,8,,60,0
4124,note_on,,44,0,9,,,,,,,,,,,,,,,,7,,63,0
4124,note_on,,44,0,7,,,,,,,,,,,,,,,,5,,75,0
4124,note_on,,44,0,5,,,,,,,,,,,,,,,,1,,75,0
4125,note_on,,1,0,5,,,,,,,,,,,,,,,,1,,74,72
4125,note_on,,1,0,9,,,,,,,,,,,,,,,,7,,55,72
4125,note_on,,1,0,10,,,,,,,,,,,,,,,,8,,48,72
4125,note_on,,1,0,7,,,,,,,,,,,,,,,,5,,74,72
4125,note_on,,46,0,11,,,,,,,,,,,,,,,,10,,79,72
4125,note_on,,1,0,8,,,,,,,,,,,,,,,,6,,65,72
4139,note_on,,14,0,7,,,,,,,,,,,,,,,,5,,74,0
4139,note_on,,14,0,9,,,,,,,,,,,,,,,,7,,55,0
4139,note_on,,14,0,10,,,,,,,,,,,,,,,,8,,48,0
4139,note_on,,14,0,8,,,,,,,,,,,,,,,,6,,65,0
4139,note_on,,14,0,5,,,,,,,,,,,,,,,,1,,74,0
4139,note_on,,14,0,11,,,,,,,,,,,,,,,,10,,79,0
4140,note_on,,1,0,11,,,,,,,,,,,,,,,,10,,79,72
4140,note_on,,1,0,9,,,,,,,,,,,,,,,,7,,55,72
4140,note_on,,1,0,10,,,,,,,,,,,,,,,,8,,48,72
4140,note_on,,1,0,7,,,,,,,,,,,,,,,,5,,72,72
4140,note_on,,1,0,8,,,,,,,,,,,,,,,,6,,63,72
4140,note_on,,1,0,5,,,,,,,,,,,,,,,,1,,72,72
4184,note_on,,44,0,11,,,,,,,,,,,,,,,,10,,79,0
4185,note_on,,1,0,11,,,,,,,,,,,,,,,,10,,79,72
4199,note_on,,59,0,8,,,,,,,,,,,,,,,,6,,63,0
4199,note_on,,119,0,14,,,,,,,,,,,,,,,,13,,46,0
4199,note_on,,59,0,7,,,,,,,,,,,,,,,,5,,72,0
4199,note_on,,0,0,15,,,,,,,,,,,,,,,,15,,63,0
4199,note_on,,0,0,15,,,,,,,,,,,,,,,,15,,60,0
4199,note_on,,0,0,15,,,,,,,,,,,,,,,,15,,55,0
4199,note_on,,119,0,15,,,,,,,,,,,,,,,,15,,46,0
4199,note_on,,119,0,13,,,,,,,,,,,,,,,,12,,72,0
4199,note_on,,119,0,12,,,,,,,,,,,,,,,,11,,75,0
4199,note_on,,14,0,11,,,,,,,,,,,,,,,,10,,79,0
4199,note_on,,59,0,5,,,,,,,,,,,,,,,,1,,72,0
4199,note_on,,119,0,6,,,,,,,,,,,,,,,,2,,46,0
4199,note_on,,59,0,9,,,,,,,,,,,,,,,,7,,55,0
4199,note_on,,59,0,10,,,,,,,,,,,,,,,,8,,48,0
4200,note_on,,1,0,11,,,,,,,,,,,,,,,,10,,84,72
4245,note_on,,46,0,6,,,,,,,,,,,,,,,,2,,46,72
4245,note_on,,46,0,15,,,,,,,,,,,,,,,,15,,46,72
4245,note_on,,46,0,14,,,,,,,,,,,,,,,,13,,46,72
4245,note_on,,46,0,13,,,,,,,,,,,,,,,,12,,63,72
4245,note_on,,46,0,12,,,,,,,,,,,,,,,,11,,67,72
4259,note_on,,14,0,12,,,,,,,,,,,,,,,,11,,67,0
4259,note_on,,14,0,6,,,,,,,,,,,,,,,,2,,46,0
4259,note_on,,14,0,15,,,,,,,,,,,,,,,,15,,46,0
4259,note_on,,14,0,13,,,,,,,,,,,,,,,,12,,63,0
4259,note_on,,14,0,14,,,,,,,,,,,,,,,,13,,46,0
4260,note_on,,61,0,9,,,,,,,,,,,,,,,,7,,60,72
4260,note_on,,1,0,15,,,,,,,,,,,,,,,,15,,46,72
4260,note_on,,61,0,5,,,,,,,,,,,,,,,,1,,67,72
4260,note_on,,61,0,8,,,,,,,,,,,,,,,,6,,63,72
4260,note_on,,1,0,14,,,,,,,,,,,,,,,,13,,46,72
4260,note_on,,61,0,7,,,,,,,,,,,,,,,,5,,67,72
4260,note_on,,0,0,15,,,,,,,,,,,,,,,,15,,60,72
4260,note_on,,0,0,15,,,,,,,,,,,,,,,,15,,67,72
4260,note_on,,1,0,6,,,,,,,,,,,,,,,,2,,46,72
4260,note_on,,61,0,10,,,,,,,,,,,,,,,,8,,58,72
4260,note_on,,1,0,12,,,,,,,,,,,,,,,,11,,67,72
4260,note_on,,0,0,15,,,,,,,,,,,,,,,,15,,63,72
4260,note_on,,1,0,13,,,,,,,,,,,,,,,,12,,63,72
4289,note_on,,29,0,5,,,,,,,,,,,,,,,,1,,67,0
4289,note_on,,29,0,7,,,,,,,,,,,,,,,,5,,67,0
4289,note_on,,29,0,10,,,,,,,,,,,,,,,,8,,58,0
4289,note_on,,29,0,9,,,,,,,,,,,,,,,,7,,60,0
4289,note_on,,29,0,8,,,,,,,,,,,,,,,,6,,63,0
4290,note_on,,1,0,5,,,,,,,,,,,,,,,,1,,67,72
4290,note_on,,1,0,7,,,,,,,,,,,,,,,,5,,67,72
4290,note_on,,1,0,8,,,,,,,,,,,,,,,,6,,63,72
4290,note_on,,1,0,9,,,,,,,,,,,,,,,,7,,60,72
4290,note_on,,1,0,10,,,,,,,,,,,,,,,,8,,58,72
4304,note_on,,44,0,12,,,,,,,,,,,,,,,,11,,67,0
4304,note_on,,44,0,13,,,,,,,,,,,,,,,,12,,63,0
4304,note_on,,44,0,14,,,,,,,,,,,,,,,,13,,46,0
4304,note_on,,44,0,15,,,,,,,,,,,,,,,,15,,46,0
4304,note_on,,44,0,6,,,,,,,,,,,,,,,,2,,46,0
4305,note_on,,1,0,12,,,,,,,,,,,,,,,,11,,67,72
4305,note_on,,1,0,13,,,,,,,,,,,,,,,,12,,63,72
4305,note_on,,1,0,15,,,,,,,,,,,,,,,,15,,46,72
4305,note_on,,1,0,6,,,,,,,,,,,,,,,,2,,46,72
4305,note_on,,1,0,14,,,,,,,,,,,,,,,,13,,46,72
4319,note_on,,0,0,15,,,,,,,,,,,,,,,,15,,60,0
4319,note_on,,14,0,13,,,,,,,,,,,,,,,,12,,63,0
4319,note_on,,29,0,8,,,,,,,,,,,,,,,,6,,63,0
4319,note_on,,119,0,11,,,,,,,,,,,,,,,,10,,84,0
4319,note_on,,0,0,15,,,,,,,,,,,,,,,,15,,46,0
4319,note_on,,14,0,12,,,,,,,,,,,,,,,,11,,67,0
4319,note_on,,29,0,7,,,,,,,,,,,,,,,,5,,67,0
4319,note_on,,14,0,14,,,,,,,,,,,,,,,,13,,46,0
4319,note_on,,14,0,6,,,,,,,,,,,,,,,,2,,46,0
4319,note_on,,29,0,9,,,,,,,,,,,,,,,,7,,60,0
4319,note_on,,29,0,10,,,,,,,,,,,,,,,,8,,58,0
4319,note_on,,29,0,5,,,,,,,,,,,,,,,,1,,67,0
4319,note_on,,14,0,15,,,,,,,,,,,,,,,,15,,67,0
4319,note_on,,0,0,15,,,,,,,,,,,,,,,,15,,63,0
4320,note_on,,1,0,15,,,,,,,,,,,,,,,,15,,44,72
4320,note_on,,0,0,15,,,,,,,,,,,,,,,,15,,72,72
4320,note_on,,1,0,12,,,,,,,,,,,,,,,,11,,72,72
4320,note_on,,0,0,15,,,,,,,,,,,,,,,,15,,63,72
4320,note_on,,1,0,7,,,,,,,,,,,,,,,,5,,72,72
4320,note_on,,1,0,14,,,,,,,,,,,,,,,,13,,44,72
4320,note_on,,1,0,13,,,,,,,,,,,,,,,,12,,63,72
4320,note_on,,0,0,15,,,,,,,,,,,,,,,,15,,60,72
4320,note_on,,1,0,8,,,,,,,,,,,,,,,,6,,60,72
4320,note_on,,1,0,10,,,,,,,,,,,,,,,,8,,56,72
4320,note_on,,1,0,6,,,,,,,,,,,,,,,,2,,44,72
4320,note_on,,1,0,9,,,,,,,,,,,,,,,,7,,63,72
4320,note_on,,1,0,5,,,,,,,,,,,,,,,,1,,72,72
4364,note_on,,44,0,14,,,,,,,,,,,,,,,,13,,44,0
4364,note_on,,44,0,15,,,,,,,,,,,,,,,,15,,44,0
4364,note_on,,44,0,6,,,,,,,,,,,,,,,,2,,44,0
4365,note_on,,46,0,11,,,,,,,,,,,,,,,,10,,60,72
4365,note_on,,1,0,15,,,,,,,,,,,,,,,,15,,56,72
4365,note_on,,1,0,6,,,,,,,,,,,,,,,,2,,56,72
4365,note_on,,1,0,14,,,,,,,,,,,,,,,,13,,56,72
4379,note_on,,14,0,15,,,,,,,,,,,,,,,,15,,56,0
4379,note_on,,14,0,6,,,,,,,,,,,,,,,,2,,56,0
4379,note_on,,14,0,14,,,,,,,,,,,,,,,,13,,56,0
4379,note_on,,14,0,11,,,,,,,,,,,,,,,,10,,60,0
4380,note_on,,1,0,6,,,,,,,,,,,,,,,,2,,56,72
4380,note_on,,1,0,14,,,,,,,,,,,,,,,,13,,56,72
4380,note_on,,1,0,15,,,,,,,,,,,,,,,,15,,56,72
4380,note_on,,1,0,11,,,,,,,,,,,,,,,,10,,60,72
4424,note_on,,44,0,14,,,,,,,,,,,,,,,,13,,56,0
4424,note_on,,44,0,6,,,,,,,,,,,,,,,,2,,56,0
4424,note_on,,44,0,15,,,,,,,,,,,,,,,,15,,56,0
4424,note_on,,44,0,11,,,,,,,,,,,,,,,,10,,60,0
4425,note_on,,1,0,15,,,,,,,,,,,,,,,,15,,56,72
4425,note_on,,1,0,14,,,,,,,,,,,,,,,,13,,56,72
4425,note_on,,1,0,11,,,,,,,,,,,,,,,,10,,60,72
4425,note_on,,1,0,6,,,,,,,,,,,,,,,,2,,56,72
4439,note_on,,14,0,15,,,,,,,,,,,,,,,,15,,56,0
4439,note_on,,14,0,14,,,,,,,,,,,,,,,,13,,56,0
4439,note_on,,119,0,12,,,,,,,,,,,,,,,,11,,72,0
4439,note_on,,14,0,11,,,,,,,,,,,,,,,,10,,60,0
4439,note_on,,14,0,6,,,,,,,,,,,,,,,,2,,56,0
4439,note_on,,119,0,13,,,,,,,,,,,,,,,,12,,63,0
4440,note_on,,1,0,11,,,,,,,,,,,,,,,,10,,72,72
4440,note_on,,1,0,15,,,,,,,,,,,,,,,,15,,56,72
4440,note_on,,1,0,6,,,,,,,,,,,,,,,,2,,56,72
4440,note_on,,1,0,14,,,,,,,,,,,,,,,,13,,56,72
4484,note_on,,44,0,15,,,,,,,,,,,,,,,,15,,56,0
4484,note_on,,44,0,11,,,,,,,,,,,,,,,,10,,72,0
4484,note_on,,44,0,14,,,,,,,,,,,,,,,,13,,56,0
4484,note_on,,44,0,6,,,,,,,,,,,,,,,,2,,56,0
4485,note_on,,1,0,14,,,,,,,,,,,,,,,,13,,56,72
4485,note_on,,46,0,13,,,,,,,,,,,,,,,,12,,63,72
4485,note_on,,1,0,6,,,,,,,,,,,,,,,,2,,56,72
4485,note_on,,1,0,15,,,,,,,,,,,,,,,,15,,56,72
4485,note_on,,46,0,12,,,,,,,,,,,,,,,,11,,72,72
4485,note_on,,1,0,11,,,,,,,,,,,,,,,,10,,72,72
4499,note_on,,14,0,14,,,,,,,,,,,,,,,,13,,56,0
4499,note_on,,14,0,11,,,,,,,,,,,,,,,,10,,72,0
4499,note_on,,0,0,15,,,,,,,,,,,,,,,,15,,63,0
4499,note_on,,14,0,12,,,,,,,,,,,,,,,,11,,72,0
4499,note_on,,179,0,7,,,,,,,,,,,,,,,,5,,72,0
4499,note_on,,14,0,15,,,,,,,,,,,,,,,,15,,72,0
4499,note_on,,0,0,15,,,,,,,,,,,,,,,,15,,60,0
4499,note_on,,0,0,15,,,,,,,,,,,,,,,,15,,56,0
4499,note_on,,14,0,13,,,,,,,,,,,,,,,,12,,63,0
4499,note_on,,179,0,10,,,,,,,,,,,,,,,,8,,56,0
4499,note_on,,179,0,5,,,,,,,,,,,,,,,,1,,72,0
4499,note_on,,179,0,9,,,,,,,,,,,,,,,,7,,63,0
4499,note_on,,179,0,8,,,,,,,,,,,,,,,,6,,60,0
4499,note_on,,14,0,6,,,,,,,,,,,,,,,,2,,56,0
4500,note_on,,1,0,5,,,,,,,,,,,,,,,,1,,72,72
4500,note_on,,1,0,11,,,,,,,,,,,,,,,,10,,72,72
4500,note_on,,1,0,12,,,,,,,,,,,,,,,,11,,72,72
4500,note_on,,1,0,15,,,,,,,,,,,,,,,,15,,55,72
4500,note_on,,1,0,9,,,,,,,,,,,,,,,,7,,63,72
4500,note_on,,1,0,13,,,,,,,,,,,,,,,,12,,63,72
4500,note_on,,0,0,15,,,,,,,,,,,,,,,,15,,60,72
4500,note_on,,1,0,14,,,,,,,,,,,,,,,,13,,55,72
4500,note_on,,1,0,8,,,,,,,,,,,,,,,,6,,60,72
4500,note_on,,0,0,15,,,,,,,,,,,,,,,,15,,63,72
4500,note_on,,0,0,15,,,,,,,,,,,,,,,,15,,70,72
4500,note_on,,1,0,7,,,,,,,,,,,,,,,,5,,72,72
4500,note_on,,1,0,10,,,,,,,,,,,,,,,,8,,55,72
4500,note_on,,1,0,6,,,,,,,,,,,,,,,,2,,55,72
4544,note_on,,44,0,13,,,,,,,,,,,,,,,,12,,63,0
4544,note_on,,44,0,15,,,,,,,,,,,,,,,,15,,55,0
4544,note_on,,44,0,6,,,,,,,,,,,,,,,,2,,55,0
4544,note_on,,44,0,12,,,,,,,,,,,,,,,,11,,72,0
4544,note_on,,44,0,14,,,,,,,,,,,,,,,,13,,55,0
4544,note_on,,44,0,11,,,,,,,,,,,,,,,,10,,72,0
4545,note_on,,1,0,15,,,,,,,,,,,,,,,,15,,55,72
4545,note_on,,1,0,11,,,,,,,,,,,,,,,,10,,72,72
4545,note_on,,1,0,14,,,,,,,,,,,,,,,,13,,55,72
4545,note_on,,1,0,13,,,,,,,,,,,,,,,,12,,63,72
4545,note_on,,1,0,6,,,,,,,,,,,,,,,,2,,55,72
4545,note_on,,1,0,12,,,,,,,,,,,,,,,,11,,72,72
4559,note_on,,14,0,13,,,,,,,,,,,,,,,,12,,63,0
4559,note_on,,59,0,9,,,,,,,,,,,,,,,,7,,63,0
4559,note_on,,59,0,10,,,,,,,,,,,,,,,,8,,55,0
4559,note_on,,14,0,15,,,,,,,,,,,,,,,,15,,70,0
4559,note_on,,59,0,5,,,,,,,,,,,,,,,,1,,72,0
4559,note_on,,59,0,8,,,,,,,,,,,,,,,,6,,60,0
4559,note_on,,14,0,12,,,,,,,,,,,,,,,,11,,72,0
4559,note_on,,14,0,6,,,,,,,,,,,,,,,,2,,55,0
4559,note_on,,14,0,14,,,,,,,,,,,,,,,,13,,55,0
4559,note_on,,14,0,11,,,,,,,,,,,,,,,,10,,72,0
4559,note_on,,0,0,15,,,,,,,,,,,,,,,,15,,63,0
4559,note_on,,0,0,15,,,,,,,,,,,,,,,,15,,60,0
4559,note_on,,0,0,15,,,,,,,,,,,,,,,,15,,55,0
4559,note_on,,59,0,7,,,,,,,,,,,,,,,,5,,72,0
4560,note_on,,1,0,9,,,,,,,,,,,,,,,,7,,63,72
4560,note_on,,1,0,14,,,,,,,,,,,,,,,,13,,54,72
4560,note_on,,1,0,11,,,,,,,,,,,,,,,,10,,75,72
4560,note_on,,1,0,6,,,,,,,,,,,,,,,,2,,54,72
4560,note_on,,1,0,5,,,,,,,,,,,,,,,,1,,72,72
4560,note_on,,1,0,7,,,,,,,,,,,,,,,,5,,72,72
4560,note_on,,0,0,15,,,,,,,,,,,,,,,,15,,60,72
4560,note_on,,1,0,10,,,,,,,,,,,,,,,,8,,54,72
4560,note_on,,0,0,15,,,,,,,,,,,,,,,,15,,69,72
4560,note_on,,1,0,8,,,,,,,,,,,,,,,,6,,69,72
4560,note_on,,1,0,12,,,,,,,,,,,,,,,,11,,72,72
4560,note_on,,1,0,15,,,,,,,,,,,,,,,,15,,54,72
4560,note_on,,0,0,15,,,,,,,,,,,,,,,,15,,63,72
4560,note_on,,1,0,13,,,,,,,,,,,,,,,,12,,69,72
4604,note_on,,44,0,13,,,,,,,,,,,,,,,,12,,69,0
4604,note_on,,44,0,12,,,,,,,,,,,,,,,,11,,72,0
4604,note_on,,44,0,6,,,,,,,,,,,,,,,,2,,54,0
4604,note_on,,44,0,11,,,,,,,,,,,,,,,,10,,75,0
4604,note_on,,44,0,14,,,,,,,,,,,,,,,,13,,54,0
4604,note_on,,44,0,15,,,,,,,,,,,,,,,,15,,54,0
4605,note_on,,1,0,14,,,,,,,,,,,,,,,,13,,54,72
4605,note_on,,1,0,13,,,,,,,,,,,,,,,,12,,69,72
4605,note_on,,1,0,12,,,,,,,,,,,,,,,,11,,72,72
4605,note_on,,1,0,15,,,,,,,,,,,,,,,,15,,54,72
4605,note_on,,1,0,6,,,,,,,,,,,,,,,,2,,54,72
4605,note_on,,1,0,11,,,,,,,,,,,,,,,,10,,75,72
4619,note_on,,14,0,14,,,,,,,,,,,,,,,,13,,54,0
4619,note_on,,14,0,12,,,,,,,,,,,,,,,,11,,72,0
4619,note_on,,14,0,6,,,,,,,,,,,,,,,,2,,54,0
4619,note_on,,14,0,13,,,,,,,,,,,,,,,,12,,69,0
4619,note_on,,14,0,15,,,,,,,,,,,,,,,,15,,54,0
4619,note_on,,14,0,11,,,,,,,,,,,,,,,,10,,75,0
4620,note_on,,1,0,12,,,,,,,,,,,,,,,,11,,72,72
4620,note_on,,1,0,15,,,,,,,,,,,,,,,,15,,54,72
4620,note_on,,1,0,11,,,,,,,,,,,,,,,,10,,75,72
4620,note_on,,1,0,14,,,,,,,,,,,,,,,,13,,54,72
4620,note_on,,1,0,6,,,,,,,,,,,,,,,,2,,54,72
4620,note_on,,1,0,13,,,,,,,,,,,,,,,,12,,69,72
4664,note_on,,44,0,15,,,,,,,,,,,,,,,,15,,54,0
4664,note_on,,44,0,6,,,,,,,,,,,,,,,,2,,54,0
4664,note_on,,44,0,14,,,,,,,,,,,,,,,,13,,54,0
4664,note_on,,44,0,13,,,,,,,,,,,,,,,,12,,69,0
4664,note_on,,44,0,11,,,,,,,,,,,,,,,,10,,75,0
4664,note_on,,44,0,12,,,,,,,,,,,,,,,,11,,72,0
4665,note_on,,1,0,12,,,,,,,,,,,,,,,,11,,72,72
4665,note_on,,1,0,13,,,,,,,,,,,,,,,,12,,69,72
4665,note_on,,1,0,14,,,,,,,,,,,,,,,,13,,54,72
4665,note_on,,1,0,11,,,,,,,,,,,,,,,,10,,75,72
4665,note_on,,1,0,15,,,,,,,,,,,,,,,,15,,54,72
4665,note_on,,1,0,6,,,,,,,,,,,,,,,,2,,54,72
4679,note_on,,14,0,11,,,,,,,,,,,,,,,,10,,75,0
4679,note_on,,14,0,13,,,,,,,,,,,,,,,,12,,69,0
4679,note_on,,14,0,6,,,,,,,,,,,,,,,,2,,54,0
4679,note_on,,14,0,12,,,,,,,,,,,,,,,,11,,72,0
4679,note_on,,14,0,15,,,,,,,,,,,,,,,,15,,54,0
4679,note_on,,14,0,14,,,,,,,,,,,,,,,,13,,54,0
4680,note_on,,1,0,15,,,,,,,,,,,,,,,,15,,54,72
4680,note_on,,1,0,6,,,,,,,,,,,,,,,,2,,54,72
4680,note_on,,1,0,12,,,,,,,,,,,,,,,,11,,72,72
4680,note_on,,1,0,11,,,,,,,,,,,,,,,,10,,75,72
4680,note_on,,1,0,13,,,,,,,,,,,,,,,,12,,69,72
4680,note_on,,1,0,14,,,,,,,,,,,,,,,,13,,54,72
4724,note_on,,44,0,12,,,,,,,,,,,,,,,,11,,72,0
4724,note_on,,44,0,15,,,,,,,,,,,,,,,,15,,54,0
4724,note_on,,44,0,6,,,,,,,,,,,,,,,,2,,54,0
4724,note_on,,44,0,13,,,,,,,,,,,,,,,,12,,69,0
4724,note_on,,44,0,11,,,,,,,,,,,,,,,,10,,75,0
4724,note_on,,44,0,14,,,,,,,,,,,,,,,,13,,54,0
4725,note_on,,1,0,14,,,,,,,,,,,,,,,,13,,54,72
4725,note_on,,1,0,6,,,,,,,,,,,,,,,,2,,54,72
4725,note_on,,1,0,12,,,,,,,,,,,,,,,,11,,72,72
4725,note_on,,1,0,11,,,,,,,,,,,,,,,,10,,75,72
4725,note_on,,1,0,15,,,,,,,,,,,,,,,,15,,54,72
4725,note_on,,1,0,13,,,,,,,,,,,,,,,,12,,69,72
4739,note_on,,0,0,15,,,,,,,,,,,,,,,,15,,60,0
4739,note_on,,0,0,15,,,,,,,,,,,,,,,,15,,54,0
4739,note_on,,179,0,9,,,,,,,,,,,,,,,,7,,63,0
4739,note_on,,0,0,15,,,,,,,,,,,,,,,,15,,63,0
4739,note_on,,179,0,10,,,,,,,,,,,,,,,,8,,54,0
4739,note_on,,14,0,13,,,,,,,,,,,,,,,,12,,69,0
4739,note_on,,14,0,12,,,,,,,,,,,,,,,,11,,72,0
4739,note_on,,14,0,6,,,,,,,,,,,,,,,,2,,54,0
4739,note_on,,179,0,7,,,,,,,,,,,,,,,,5,,72,0
4739,note_on,,179,0,8,,,,,,,,,,,,,,,,6,,69,0
4739,note_on,,14,0,14,,,,,,,,,,,,,,,,13,,54,0
4739,note_on,,14,0,11,,,,,,,,,,,,,,,,10,,75,0
4739,note_on,,14,0,15,,,,,,,,,,,,,,,,15,,69,0
4739,note_on,,179,0,5,,,,,,,,,,,,,,,,1,,72,0
4740,note_on,,1,0,11,,,,,,,,,,,,,,,,10,,75,72
4740,note_on,,1,0,10,,,,,,,,,,,,,,,,8,,54,72
4740,note_on,,1,0,13,,,,,,,,,,,,,,,,12,,69,72
4740,note_on,,1,0,14,,,,,,,,,,,,,,,,13,,54,72
4740,note_on,,1,0,12,,,,,,,,,,,,,,,,11,,72,72
4740,note_on,,1,0,15,,,,,,,,,,,,,,,,15,,54,72
4740,note_on,,0,0,15,,,,,,,,,,,,,,,,15,,69,72
4740,note_on,,0,0,15,,,,,,,,,,,,,,,,15,,63,72
4740,note_on,,0,0,15,,,,,,,,,,,,,,,,15,,60,72
4740,note_on,,1,0,7,,,,,,,,,,,,,,,,5,,72,72
4740,note_on,,1,0,5,,,,,,,,,,,,,,,,1,,72,72
4740,note_on,,1,0,6,,,,,,,,,,,,,,,,2,,54,72
4740,note_on,,1,0,9,,,,,,,,,,,,,,,,7,,63,72
4740,note_on,,1,0,8,,,,,,,,,,,,,,,,6,,69,72
4784,note_on,,44,0,15,,,,,,,,,,,,,,,,15,,54,0
4784,note_on,,44,0,6,,,,,,,,,,,,,,,,2,,54,0
4784,note_on,,44,0,11,,,,,,,,,,,,,,,,10,,75,0
4784,note_on,,44,0,12,,,,,,,,,,,,,,,,11,,72,0
4784,note_on,,44,0,13,,,,,,,,,,,,,,,,12,,69,0
4784,note_on,,44,0,14,,,,,,,,,,,,,,,,13,,54,0
4785,note_on,,1,0,11,,,,,,,,,,,,,,,,10,,75,72
4785,note_on,,1,0,6,,,,,,,,,,,,,,,,2,,54,72
4785,note_on,,1,0,12,,,,,,,,,,,,,,,,11,,72,72
4785,note_on,,1,0,13,,,,,,,,,,,,,,,,12,,69,72
4785,note_on,,1,0,15,,,,,,,,,,,,,,,,15,,54,72
4785,note_on,,1,0,14,,,,,,,,,,,,,,,,13,,54,72
4799,note_on,,14,0,15,,,,,,,,,,,,,,,,15,,69,0
4799,note_on,,0,0,15,,,,,,,,,,,,,,,,15,,63,0
4799,note_on,,0,0,15,,,,,,,,,,,,,,,,15,,60,0
4799,note_on,,0,0,15,,,,,,,,,,,,,,,,15,,54,0
4799,note_on,,59,0,9,,,,,,,,,,,,,,,,7,,63,0
4799,note_on,,59,0,8,,,,,,,,,,,,,,,,6,,69,0
4799,note_on,,59,0,5,,,,,,,,,,,,,,,,1,,72,0
4799,note_on,,14,0,13,,,,,,,,,,,,,,,,12,,69,0
4799,note_on,,14,0,12,,,,,,,,,,,,,,,,11,,72,0
4799,note_on,,14,0,6,,,,,,,,,,,,,,,,2,,54,0
4799,note_on,,59,0,10,,,,,,,,,,,,,,,,8,,54,0
4799,note_on,,14,0,11,,,,,,,,,,,,,,,,10,,75,0
4799,note_on,,14,0,14,,,,,,,,,,,,,,,,13,,54,0
4799,note_on,,59,0,7,,,,,,,,,,,,,,,,5,,72,0
4800,note_on,,1,0,12,,,,,,,,,,,,,,,,11,,72,72
4800,note_on,,1,0,8,,,,,,,,,,,,,,,,6,,69,72
4800,note_on,,0,0,15,,,,,,,,,,,,,,,,15,,62,72
4800,note_on,,0,0,15,,,,,,,,,,,,,,,,15,,60,72
4800,note_on,,0,0,15,,,,,,,,,,,,,,,,15,,57,72
4800,note_on,,1,0,5,,,,,,,,,,,,,,,,1,,72,72
4800,note_on,,1,0,13,,,,,,,,,,,,,,,,12,,69,72
4800,note_on,,1,0,6,,,,,,,,,,,,,,,,2,,54,72
4800,note_on,,1,0,14,,,,,,,,,,,,,,,,13,,54,72
4800,note_on,,1,0,10,,,,,,,,,,,,,,,,8,,54,72
4800,note_on,,1,0,7,,,,,,,,,,,,,,,,5,,72,72
4800,note_on,,1,0,15,,,,,,,,,,,,,,,,15,,54,72
4800,note_on,,1,0,9,,,,,,,,,,,,,,,,7,,62,72
4800,note_on,,1,0,11,,,,,,,,,,,,,,,,10,,74,72
4844,note_on,,44,0,15,,,,,,,,,,,,,,,,15,,54,0
4844,note_on,,44,0,6,,,,,,,,,,,,,,,,2,,54,0
4844,note_on,,44,0,14,,,,,,,,,,,,,,,,13,,54,0
4844,note_on,,44,0,11,,,,,,,,,,,,,,,,10,,74,0
4844,note_on,,44,0,12,,,,,,,,,,,,,,,,11,,72,0
4844,note_on,,44,0,13,,,,,,,,,,,,,,,,12,,69,0
4845,note_on,,1,0,12,,,,,,,,,,,,,,,,11,,72,72
4845,note_on,,1,0,14,,,,,,,,,,,,,,,,13,,54,72
4845,note_on,,1,0,11,,,,,,,,,,,,,,,,10,,74,72
4845,note_on,,1,0,6,,,,,,,,,,,,,,,,2,,54,72
4845,note_on,,1,0,13,,,,,,,,,,,,,,,,12,,69,72
4845,note_on,,1,0,15,,,,,,,,,,,,,,,,15,,54,72
4859,note_on,,14,0,11,,,,,,,,,,,,,,,,10,,74,0
4859,note_on,,14,0,15,,,,,,,,,,,,,,,,15,,54,0
4859,note_on,,14,0,12,,,,,,,,,,,,,,,,11,,72,0
4859,note_on,,14,0,13,,,,,,,,,,,,,,,,12,,69,0
4859,note_on,,14,0,14,,,,,,,,,,,,,,,,13,,54,0
4859,note_on,,14,0,6,,,,,,,,,,,,,,,,2,,54,0
4860,note_on,,1,0,13,,,,,,,,,,,,,,,,12,,69,72
4860,note_on,,1,0,6,,,,,,,,,,,,,,,,2,,54,72
4860,note_on,,1,0,11,,,,,,,,,,,,,,,,10,,74,72
4860,note_on,,1,0,14,,,,,,,,,,,,,,,,13,,54,72
4860,note_on,,1,0,15,,,,,,,,,,,,,,,,15,,54,72
4860,note_on,,1,0,12,,,,,,,,,,,,,,,,11,,72,72
4904,note_on,,44,0,13,,,,,,,,,,,,,,,,12,,69,0
4904,note_on,,44,0,14,,,,,,,,,,,,,,,,13,,54,0
4904,note_on,,44,0,15,,,,,,,,,,,,,,,,15,,54,0
4904,note_on,,44,0,12,,,,,,,,,,,,,,,,11,,72,0
4904,note_on,,44,0,6,,,,,,,,,,,,,,,,2,,54,0
4904,note_on,,44,0,11,,,,,,,,,,,,,,,,10,,74,0
4905,note_on,,1,0,11,,,,,,,,,,,,,,,,10,,74,72
4905,note_on,,1,0,15,,,,,,,,,,,,,,,,15,,54,72
4905,note_on,,1,0,13,,,,,,,,,,,,,,,,12,,69,72
4905,note_on,,1,0,6,,,,,,,,,,,,,,,,2,,54,72
4905,note_on,,1,0,14,,,,,,,,,,,,,,,,13,,54,72
4905,note_on,,1,0,12,,,,,,,,,,,,,,,,11,,72,72
4919,note_on,,119,0,8,,,,,,,,,,,,,,,,6,,69,0
4919,note_on,,119,0,10,,,,,,,,,,,,,,,,8,,54,0
4919,note_on,,14,0,15,,,,,,,,,,,,,,,,15,,62,0
4919,note_on,,119,0,9,,,,,,,,,,,,,,,,7,,62,0
4919,note_on,,14,0,14,,,,,,,,,,,,,,,,13,,54,0
4919,note_on,,0,0,15,,,,,,,,,,,,,,,,15,,60,0
4919,note_on,,119,0,7,,,,,,,,,,,,,,,,5,,72,0
4919,note_on,,0,0,15,,,,,,,,,,,,,,,,15,,57,0
4919,note_on,,14,0,12,,,,,,,,,,,,,,,,11,,72,0
4919,note_on,,14,0,6,,,,,,,,,,,,,,,,2,,54,0
4919,note_on,,14,0,13,,,,,,,,,,,,,,,,12,,69,0
4919,note_on,,119,0,5,,,,,,,,,,,,,,,,1,,72,0
4919,note_on,,0,0,15,,,,,,,,,,,,,,,,15,,54,0
4919,note_on,,14,0,11,,,,,,,,,,,,,,,,10,,74,0
4920,note_on,,1,0,15,,,,,,,,,,,,,,,,15,,54,72
4920,note_on,,0,0,15,,,,,,,,,,,,,,,,15,,74,72
4920,note_on,,0,0,15,,,,,,,,,,,,,,,,15,,69,72
4920,note_on,,1,0,8,,,,,,,,,,,,,,,,6,,69,72
4920,note_on,,1,0,10,,,,,,,,,,,,,,,,8,,54,72
4920,note_on,,0,0,15,,,,,,,,,,,,,,,,15,,62,72
4920,note_on,,1,0,5,,,,,,,,,,,,,,,,1,,72,72
4920,note_on,,1,0,9,,,,,,,,,,,,,,,,7,,62,72
4920,note_on,,1,0,6,,,,,,,,,,,,,,,,2,,54,72
4920,note_on,,1,0,7,,,,,,,,,,,,,,,,5,,72,72
4920,note_on,,1,0,14,,,,,,,,,,,,,,,,13,,54,72
4920,note_on,,1,0,12,,,,,,,,,,,,,,,,11,,72,72
4920,note_on,,1,0,13,,,,,,,,,,,,,,,,12,,69,72
4920,note_on,,1,0,11,,,,,,,,,,,,,,,,10,,74,72
4964,note_on,,44,0,15,,,,,,,,,,,,,,,,15,,54,0
4964,note_on,,44,0,14,,,,,,,,,,,,,,,,13,,54,0
4964,note_on,,44,0,12,,,,,,,,,,,,,,,,11,,72,0
4964,note_on,,44,0,13,,,,,,,,,,,,,,,,12,,69,0
4964,note_on,,44,0,6,,,,,,,,,,,,,,,,2,,54,0
4965,note_on,,1,0,13,,,,,,,,,,,,,,,,12,,69,72
4965,note_on,,1,0,12,,,,,,,,,,,,,,,,11,,72,72
4965,note_on,,1,0,14,,,,,,,,,,,,,,,,13,,54,72
4965,note_on,,1,0,15,,,,,,,,,,,,,,,,15,,54,72
4965,note_on,,1,0,6,,,,,,,,,,,,,,,,2,,54,72
4979,note_on,,14,0,13,,,,,,,,,,,,,,,,12,,69,0
4979,note_on,,14,0,6,,,,,,,,,,,,,,,,2,,54,0
4979,note_on,,59,0,11,,,,,,,,,,,,,,,,10,,74,0
4979,note_on,,14,0,12,,,,,,,,,,,,,,,,11,,72,0
4979,note_on,,59,0,8,,,,,,,,,,,,,,,,6,,69,0
4979,note_on,,59,0,10,,,,,,,,,,,,,,,,8,,54,0
4979,note_on,,14,0,14,,,,,,,,,,,,,,,,13,,54,0
4979,note_on,,59,0,5,,,,,,,,,,,,,,,,1,,72,0
4979,note_on,,59,0,9,,,,,,,,,,,,,,,,7,,62,0
4979,note_on,,59,0,7,,,,,,,,,,,,,,,,5,,72,0
4979,note_on,,14,0,15,,,,,,,,,,,,,,,,15,,54,0
4980,note_on,,1,0,14,,,,,,,,,,,,,,,,13,,54,72
4980,note_on,,1,0,12,,,,,,,,,,,,,,,,11,,72,72
4980,note_on,,1,0,15,,,,,,,,,,,,,,,,15,,54,72
4980,note_on,,1,0,8,,,,,,,,,,,,,,,,6,,69,72
4980,note_on,,1,0,7,,,,,,,,,,,,,,,,5,,72,72
4980,note_on,,1,0,13,,,,,,,,,,,,,,,,12,,69,72
4980,note_on,,1,0,6,,,,,,,,,,,,,,,,2,,54,72
4980,note_on,,1,0,9,,,,,,,,,,,,,,,,7,,62,72
4980,note_on,,1,0,5,,,,,,,,,,,,,,,,1,,72,72
4980,note_on,,1,0,11,,,,,,,,,,,,,,,,10,,62,72
4980,note_on,,1,0,10,,,,,,,,,,,,,,,,8,,54,72
5024,note_on,,44,0,12,,,,,,,,,,,,,,,,11,,72,0
5024,note_on,,44,0,14,,,,,,,,,,,,,,,,13,,54,0
5024,note_on,,44,0,15,,,,,,,,,,,,,,,,15,,54,0
5024,note_on,,44,0,13,,,,,,,,,,,,,,,,12,,69,0
5024,note_on,,44,0,6,,,,,,,,,,,,,,,,2,,54,0
5025,note_on,,1,0,14,,,,,,,,,,,,,,,,13,,54,72
5025,note_on,,1,0,12,,,,,,,,,,,,,,,,11,,72,72
5025,note_on,,1,0,6,,,,,,,,,,,,,,,,2,,54,72
5025,note_on,,1,0,13,,,,,,,,,,,,,,,,12,,69,72
5025,note_on,,1,0,15,,,,,,,,,,,,,,,,15,,54,72
5039,note_on,,59,0,8,,,,,,,,,,,,,,,,6,,69,0
5039,note_on,,59,0,9,,,,,,,,,,,,,,,,7,,62,0
5039,note_on,,59,0,10,,,,,,,,,,,,,,,,8,,54,0
5039,note_on,,59,0,11,,,,,,,,,,,,,,,,10,,62,0
5039,note_on,,14,0,12,,,,,,,,,,,,,,,,11,,72,0
5039,note_on,,14,0,13,,,,,,,,,,,,,,,,12,,69,0
5039,note_on,,14,0,15,,,,,,,,,,,,,,,,15,,74,0
5039,note_on,,14,0,6,,,,,,,,,,,,,,,,2,,54,0
5039,note_on,,0,0,15,,,,,,,,,,,,,,,,15,,69,0
5039,note_on,,0,0,15,,,,,,,,,,,,,,,,15,,62,0
5039,note_on,,0,0,15,,,,,,,,,,,,,,,,15,,54,0
5039,note_on,,14,0,14,,,,,,,,,,,,,,,,13,,54,0
5039,note_on,,59,0,5,,,,,,,,,,,,,,,,1,,72,0
5039,note_on,,59,0,7,,,,,,,,,,,,,,,,5,,72,0
5040,note_on,,1,0,14,,,,,,,,,,,,,,,,13,,55,72
5040,note_on,,1,0,5,,,,,,,,,,,,,,,,1,,71,72
5040,note_on,,1,0,10,,,,,,,,,,,,,,,,8,,55,72
5040,note_on,,1,0,15,,,,,,,,,,,,,,,,15,,55,72
5040,note_on,,1,0,13,,,,,,,,,,,,,,,,12,,67,72
5040,note_on,,1,0,8,,,,,,,,,,,,,,,,6,,67,72
5040,note_on,,1,0,12,,,,,,,,,,,,,,,,11,,71,72
5040,note_on,,1,0,6,,,,,,,,,,,,,,,,2,,55,72
5040,note_on,,0,0,15,,,,,,,,,,,,,,,,15,,74,72
5040,note_on,,0,0,15,,,,,,,,,,,,,,,,15,,71,72
5040,note_on,,1,0,7,,,,,,,,,,,,,,,,5,,71,72
5040,note_on,,1,0,9,,,,,,,,,,,,,,,,7,,62,72
5040,note_on,,0,0,15,,,,,,,,,,,,,,,,15,,62,72
5040,note_on,,0,0,15,,,,,,,,,,,,,,,,15,,67,72
5085,note_on,,46,0,11,,,,,,,,,,,,,,,,10,,74,72
5099,note_on,,14,0,11,,,,,,,,,,,,,,,,10,,74,0
5100,note_on,,1,0,11,,,,,,,,,,,,,,,,10,,74,72
5144,note_on,,44,0,11,,,,,,,,,,,,,,,,10,,74,0
5145,note_on,,1,0,11,,,,,,,,,,,,,,,,10,,74,72
5159,note_on,,0,0,15,,,,,,,,,,,,,,,,15,,74,0
5159,note_on,,119,0,9,,,,,,,,,,,,,,,,7,,62,0
5159,note_on,,119,0,15,,,,,,,,,,,,,,,,15,,55,0
5159,note_on,,119,0,14,,,,,,,,,,,,,,,,13,,55,0
5159,note_on,,0,0,15,,,,,,,,,,,,,,,,15,,71,0
5159,note_on,,0,0,15,,,,,,,,,,,,,,,,15,,67,0
5159,note_on,,119,0,10,,,,,,,,,,,,,,,,8,,55,0
5159,note_on,,0,0,15,,,,,,,,,,,,,,,,15,,62,0
5159,note_on,,119,0,13,,,,,,,,,,,,,,,,12,,67,0
5159,note_on,,14,0,11,,,,,,,,,,,,,,,,10,,74,0
5159,note_on,,119,0,5,,,,,,,,,,,,,,,,1,,71,0
5159,note_on,,119,0,6,,,,,,,,,,,,,,,,2,,55,0
5159,note_on,,119,0,8,,,,,,,,,,,,,,,,6,,67,0
5159,note_on,,119,0,7,,,,,,,,,,,,,,,,5,,71,0
5159,note_on,,119,0,12,,,,,,,,,,,,,,,,11,,71,0
5160,note_on,,1,0,9,,,,,,,,,,,,,,,,7,,62,72
5160,note_on,,1,0,10,,,,,,,,,,,,,,,,8,,55,72
5160,note_on,,1,0,8,,,,,,,,,,,,,,,,6,,67,72
5160,note_on,,1,0,11,,,,,,,,,,,,,,,,10,,79,72
5160,note_on,,1,0,7,,,,,,,,,,,,,,,,5,,71,72
5160,note_on,,1,0,5,,,,,,,,,,,,,,,,1,,71,72
5205,note_on,,46,0,13,,,,,,,,,,,,,,,,12,,71,72
5205,note_on,,46,0,6,,,,,,,,,,,,,,,,2,,43,72
5205,note_on,,46,0,15,,,,,,,,,,,,,,,,15,,43,72
5205,note_on,,46,0,14,,,,,,,,,,,,,,,,13,,43,72
5205,note_on,,46,0,12,,,,,,,,,,,,,,,,11,,62,72
5219,note_on,,14,0,6,,,,,,,,,,,,,,,,2,,43,0
5219,note_on,,14,0,15,,,,,,,,,,,,,,,,15,,43,0
5219,note_on,,14,0,12,,,,,,,,,,,,,,,,11,,62,0
5219,note_on,,14,0,14,,,,,,,,,,,,,,,,13,,43,0
5219,note_on,,14,0,13,,,,,,,,,,,,,,,,12,,71,0
5220,note_on,,1,0,12,,,,,,,,,,,,,,,,11,,62,72
5220,note_on,,1,0,13,,,,,,,,,,,,,,,,12,,71,72
5220,note_on,,1,0,14,,,,,,,,,,,,,,,,13,,43,72
5220,note_on,,1,0,15,,,,,,,,,,,,,,,,15,,43,72
5220,note_on,,0,0,15,,,,,,,,,,,,,,,,15,,71,72
5220,note_on,,1,0,6,,,,,,,,,,,,,,,,2,,43,72
5220,note_on,,0,0,15,,,,,,,,,,,,,,,,15,,62,72
5220,note_on,,0,0,15,,,,,,,,,,,,,,,,15,,67,72
5264,note_on,,44,0,15,,,,,,,,,,,,,,,,15,,43,0
5264,note_on,,44,0,6,,,,,,,,,,,,,,,,2,,43,0
5264,note_on,,44,0,13,,,,,,,,,,,,,,,,12,,71,0
5264,note_on,,44,0,12,,,,,,,,,,,,,,,,11,,62,0
5264,note_on,,44,0,14,,,,,,,,,,,,,,,,13,,43,0
5265,note_on,,1,0,6,,,,,,,,,,,,,,,,2,,43,72
5265,note_on,,1,0,15,,,,,,,,,,,,,,,,15,,43,72
5265,note_on,,1,0,14,,,,,,,,,,,,,,,,13,,43,72
5265,note_on,,1,0,13,,,,,,,,,,,,,,,,12,,71,72
5265,note_on,,1,0,12,,,,,,,,,,,,,,,,11,,62,72
5279,note_on,,14,0,14,,,,,,,,,,,,,,,,13,,43,0
5279,note_on,,0,0,15,,,,,,,,,,,,,,,,15,,43,0
5279,note_on,,0,0,15,,,,,,,,,,,,,,,,15,,62,0
5279,note_on,,0,0,15,,,,,,,,,,,,,,,,15,,67,0
5279,note_on,,14,0,15,,,,,,,,,,,,,,,,15,,71,0
5279,note_on,,119,0,8,,,,,,,,,,,,,,,,6,,67,0
5279,note_on,,119,0,11,,,,,,,,,,,,,,,,10,,79,0
5279,note_on,,14,0,13,,,,,,,,,,,,,,,,12,,71,0
5279,note_on,,119,0,9,,,,,,,,,,,,,,,,7,,62,0
5279,note_on,,119,0,5,,,,,,,,,,,,,,,,1,,71,0
5279,note_on,,119,0,7,,,,,,,,,,,,,,,,5,,71,0
5279,note_on,,119,0,10,,,,,,,,,,,,,,,,8,,55,0
5279,note_on,,14,0,6,,,,,,,,,,,,,,,,2,,43,0
5279,note_on,,14,0,12,,,,,,,,,,,,,,,,11,,62,0
5280,note_on,,1,0,6,,,,,,,,,,,,,,,,2,,51,72
5280,note_on,,0,0,15,,,,,,,,,,,,,,,,15,,72,72
5280,note_on,,0,0,15,,,,,,,,,,,,,,,,15,,51,72
5280,note_on,,1,0,15,,,,,,,,,,,,,,,,15,,60,72
5280,note_on,,1,0,14,,,,,,,,,,,,,,,,13,,51,72
5280,note_on,,0,0,15,,,,,,,,,,,,,,,,15,,67,72
5280,note_on,,1,0,13,,,,,,,,,,,,,,,,12,,60,72
5280,note_on,,1,0,12,,,,,,,,,,,,,,,,11,,67,72
5325,note_on,,46,0,11,,,,,,,,,,,,,,,,10,,67,72
5339,note_on,,14,0,11,,,,,,,,,,,,,,,,10,,67,0
5340,note_on,,1,0,11,,,,,,,,,,,,,,,,10,,67,72
5384,note_on,,44,0,11,,,,,,,,,,,,,,,,10,,67,0
5385,note_on,,1,0,11,,,,,,,,,,,,,,,,10,,67,72
5399,note_on,,119,0,14,,,,,,,,,,,,,,,,13,,51,0
5399,note_on,,119,0,13,,,,,,,,,,,,,,,,12,,60,0
5399,note_on,,0,0,15,,,,,,,,,,,,,,,,15,,51,0
5399,note_on,,119,0,12,,,,,,,,,,,,,,,,11,,67,0
5399,note_on,,14,0,11,,,,,,,,,,,,,,,,10,,67,0
5399,note_on,,119,0,15,,,,,,,,,,,,,,,,15,,60,0
5399,note_on,,0,0,15,,,,,,,,,,,,,,,,15,,72,0
5399,note_on,,0,0,15,,,,,,,,,,,,,,,,15,,67,0
5399,note_on,,119,0,6,,,,,,,,,,,,,,,,2,,51,0
5400,note_on,,1,0,11,,,,,,,,,,,,,,,,10,,72,72
5445,note_on,,46,0,13,,,,,,,,,,,,,,,,12,,55,72
5445,note_on,,46,0,15,,,,,,,,,,,,,,,,15,,48,72
5445,note_on,,46,0,14,,,,,,,,,,,,,,,,13,,48,72
5445,note_on,,46,0,12,,,,,,,,,,,,,,,,11,,63,72
5445,note_on,,46,0,6,,,,,,,,,,,,,,,,2,,48,72
5459,note_on,,14,0,6,,,,,,,,,,,,,,,,2,,48,0
5459,note_on,,14,0,15,,,,,,,,,,,,,,,,15,,48,0
5459,note_on,,14,0,13,,,,,,,,,,,,,,,,12,,55,0
5459,note_on,,14,0,14,,,,,,,,,,,,,,,,13,,48,0
5459,note_on,,14,0,12,,,,,,,,,,,,,,,,11,,63,0
5460,note_on,,0,0,15,,,,,,,,,,,,,,,,15,,60,72
5460,note_on,,1,0,6,,,,,,,,,,,,,,,,2,,48,72
5460,note_on,,1,0,13,,,,,,,,,,,,,,,,12,,55,72
5460,note_on,,1,0,12,,,,,,,,,,,,,,,,11,,63,72
5460,note_on,,0,0,15,,,,,,,,,,,,,,,,15,,63,72
5460,note_on,,0,0,15,,,,,,,,,,,,,,,,15,,67,72
5460,note_on,,1,0,14,,,,,,,,,,,,,,,,13,,48,72
5460,note_on,,1,0,15,,,,,,,,,,,,,,,,15,,48,72
5504,note_on,,44,0,15,,,,,,,,,,,,,,,,15,,48,0
5504,note_on,,44,0,12,,,,,,,,,,,,,,,,11,,63,0
5504,note_on,,44,0,14,,,,,,,,,,,,,,,,13,,48,0
5504,note_on,,44,0,6,,,,,,,,,,,,,,,,2,,48,0
5504,note_on,,44,0,13,,,,,,,,,,,,,,,,12,,55,0
5505,note_on,,1,0,14,,,,,,,,,,,,,,,,13,,48,72
5505,note_on,,1,0,12,,,,,,,,,,,,,,,,11,,63,72
5505,note_on,,1,0,6,,,,,,,,,,,,,,,,2,,48,72
5505,note_on,,1,0,13,,,,,,,,,,,,,,,,12,,55,72
5505,note_on,,1,0,15,,,,,,,,,,,,,,,,15,,48,72
5519,note_on,,0,0,15,,,,,,,,,,,,,,,,15,,63,0
5519,note_on,,14,0,6,,,,,,,,,,,,,,,,2,,48,0
5519,note_on,,14,0,12,,,,,,,,,,,,,,,,11,,63,0
5519,note_on,,0,0,15,,,,,,,,,,,,,,,,15,,48,0
5519,note_on,,0,0,15,,,,,,,,,,,,,,,,15,,60,0
5519,note_on,,14,0,15,,,,,,,,,,,,,,,,15,,67,0
5519,note_on,,14,0,13,,,,,,,,,,,,,,,,12,,55,0
5519,note_on,,14,0,14,,,,,,,,,,,,,,,,13,,48,0
5520,note_on,,0,0,15,,,,,,,,,,,,,,,,15,,61,72
5520,note_on,,0,0,15,,,,,,,,,,,,,,,,15,,67,72
5520,note_on,,1,0,15,,,,,,,,,,,,,,,,15,,55,72
5520,note_on,,1,0,13,,,,,,,,,,,,,,,,12,,67,72
5520,note_on,,1,0,14,,,,,,,,,,,,,,,,13,,55,72
5520,note_on,,1,0,6,,,,,,,,,,,,,,,,2,,55,72
5520,note_on,,1,0,12,,,,,,,,,,,,,,,,11,,62,72
5564,note_on,,164,0,11,,,,,,,,,,,,,,,,10,,72,0
5565,note_on,,1,0,11,,,,,,,,,,,,,,,,10,,72,72
5579,note_on,,14,0,11,,,,,,,,,,,,,,,,10,,72,0
5580,note_on,,1,0,11,,,,,,,,,,,,,,,,10,,71,72
5624,note_on,,44,0,11,,,,,,,,,,,,,,,,10,,71,0
5625,note_on,,1,0,11,,,,,,,,,,,,,,,,10,,69,72
5639,note_on,,119,0,14,,,,,,,,,,,,,,,,13,,55,0
5639,note_on,,0,0,15,,,,,,,,,,,,,,,,15,,61,0
5639,note_on,,119,0,12,,,,,,,,,,,,,,,,11,,62,0
5639,note_on,,119,0,6,,,,,,,,,,,,,,,,2,,55,0
5639,note_on,,14,0,11,,,,,,,,,,,,,,,,10,,69,0
5639,note_on,,0,0,15,,,,,,,,,,,,,,,,15,,67,0
5639,note_on,,119,0,13,,,,,,,,,,,,,,,,12,,67,0
5639,note_on,,119,0,15,,,,,,,,,,,,,,,,15,,55,0
5640,note_on,,361,0,8,,,,,,,,,,,,,,,,6,,67,64
5640,note_on,,1,0,11,,,,,,,,,,,,,,,,10,,71,64
5640,note_on,,1,0,12,,,,,,,,,,,,,,,,11,,67,64
5640,note_on,,1,0,15,,,,,,,,,,,,,,,,15,,67,64
5640,note_on,,1,0,13,,,,,,,,,,,,,,,,12,,67,64
5699,note_on,,59,0,11,,,,,,,,,,,,,,,,10,,71,0
5700,note_on,,1,0,11,,,,,,,,,,,,,,,,10,,67,64
5759,note_on,,59,0,11,,,,,,,,,,,,,,,,10,,67,0
5759,note_on,,119,0,13,,,,,,,,,,,,,,,,12,,67,0
5760,note_on,,481,0,5,,,,,,,,,,,,,,,,1,,72,64
5760,note_on,,0,0,15,,,,,,,,,,,,,,,,15,,60,64
5760,note_on,,1,0,11,,,,,,,,,,,,,,,,10,,72,64
5760,note_on,,0,0,15,,,,,,,,,,,,,,,,15,,72,64
5760,note_on,,120,0,15,,,,,,,,,,,,,,,,15,,56,64
5760,note_on,,121,0,14,,,,,,,,,,,,,,,,13,,56,64
5760,note_on,,1,0,13,,,,,,,,,,,,,,,,12,,67,64
5760,note_on,,481,0,10,,,,,,,,,,,,,,,,8,,56,64
5760,note_on,,121,0,6,,,,,,,,,,,,,,,,2,,56,64
5760,note_on,,481,0,7,,,,,,,,,,,,,,,,5,,72,64
5879,note_on,,119,0,13,,,,,,,,,,,,,,,,12,,67,0
5879,note_on,,239,0,12,,,,,,,,,,,,,,,,11,,67,0
5879,note_on,,239,0,8,,,,,,,,,,,,,,,,6,,67,0
5879,note_on,,119,0,15,,,,,,,,,,,,,,,,15,,67,0
5880,note_on,,1,0,13,,,,,,,,,,,,,,,,12,,65,64
5880,note_on,,1,0,15,,,,,,,,,,,,,,,,15,,65,64
5880,note_on,,1,0,8,,,,,,,,,,,,,,,,6,,65,64
5880,note_on,,1,0,12,,,,,,,,,,,,,,,,11,,65,64
5939,note_on,,59,0,13,,,,,,,,,,,,,,,,12,,65,0
5940,note_on,,1,0,13,,,,,,,,,,,,,,,,12,,60,64
5999,note_on,,0,0,15,,,,,,,,,,,,,,,,15,,60,0
5999,note_on,,239,0,14,,,,,,,,,,,,,,,,13,,56,0
5999,note_on,,59,0,13,,,,,,,,,,,,,,,,12,,60,0
5999,note_on,,119,0,8,,,,,,,,,,,,,,,,6,,65,0
5999,note_on,,119,0,12,,,,,,,,,,,,,,,,11,,65,0
5999,note_on,,239,0,10,,,,,,,,,,,,,,,,8,,56,0
5999,note_on,,239,0,6,,,,,,,,,,,,,,,,2,,56,0
5999,note_on,,119,0,15,,,,,,,,,,,,,,,,15,,56,0
5999,note_on,,0,0,15,,,,,,,,,,,,,,,,15,,65,0
6000,note_on,,1,0,8,,,,,,,,,,,,,,,,6,,67,64
6000,note_on,,0,0,15,,,,,,,,,,,,,,,,15,,61,64
6000,note_on,,1,0,10,,,,,,,,,,,,,,,,8,,55,64
6000,note_on,,1,0,14,,,,,,,,,,,,,,,,13,,55,64
6000,note_on,,1,0,15,,,,,,,,,,,,,,,,15,,55,64
6000,note_on,,1,0,13,,,,,,,,,,,,,,,,12,,62,64
6000,note_on,,721,0,9,,,,,,,,,,,,,,,,7,,62,64
6000,note_on,,1,0,6,,,,,,,,,,,,,,,,2,,55,64
6000,note_on,,0,0,15,,,,,,,,,,,,,,,,15,,67,64
6000,note_on,,1,0,12,,,,,,,,,,,,,,,,11,,67,64
6119,note_on,,119,0,15,,,,,,,,,,,,,,,,15,,72,0
6119,note_on,,359,0,11,,,,,,,,,,,,,,,,10,,72,0
6119,note_on,,359,0,7,,,,,,,,,,,,,,,,5,,72,0
6119,note_on,,359,0,5,,,,,,,,,,,,,,,,1,,72,0
6120,note_on,,1,0,15,,,,,,,,,,,,,,,,15,,70,64
6120,note_on,,1,0,5,,,,,,,,,,,,,,,,1,,70,64
6120,note_on,,1,0,11,,,,,,,,,,,,,,,,10,,70,64
6120,note_on,,1,0,7,,,,,,,,,,,,,,,,5,,70,64
6179,note_on,,179,0,9,,,,,,,,,,,,,,,,7,,62,0
6180,note_on,,1,0,9,,,,,,,,,,,,,,,,7,,62,64
6239,note_on,,0,0,15,,,,,,,,,,,,,,,,15,,61,0
6239,note_on,,0,0,15,,,,,,,,,,,,,,,,15,,67,0
6239,note_on,,59,0,9,,,,,,,,,,,,,,,,7,,62,0
6239,note_on,,239,0,6,,,,,,,,,,,,,,,,2,,55,0
6239,note_on,,239,0,10,,,,,,,,,,,,,,,,8,,55,0
6239,note_on,,119,0,11,,,,,,,,,,,,,,,,10,,70,0
6239,note_on,,119,0,7,,,,,,,,,,,,,,,,5,,70,0
6239,note_on,,239,0,14,,,,,,,,,,,,,,,,13,,55,0
6239,note_on,,119,0,15,,,,,,,,,,,,,,,,15,,55,0
6239,note_on,,119,0,5,,,,,,,,,,,,,,,,1,,70,0
6240,note_on,,1,0,10,,,,,,,,,,,,,,,,8,,48,64
6240,note_on,,1,0,7,,,,,,,,,,,,,,,,5,,75,64
6240,note_on,,1,0,11,,,,,,,,,,,,,,,,10,,75,64
6240,note_on,,1,0,15,,,,,,,,,,,,,,,,15,,48,64
6240,note_on,,0,0,15,,,,,,,,,,,,,,,,15,,63,64
6240,note_on,,1,0,6,,,,,,,,,,,,,,,,2,,48,64
6240,note_on,,1,0,14,,,,,,,,,,,,,,,,13,,48,64
6240,note_on,,1,0,9,,,,,,,,,,,,,,,,7,,62,64
6240,note_on,,1,0,5,,,,,,,,,,,,,,,,1,,75,64
6359,note_on,,119,0,14,,,,,,,,,,,,,,,,13,,48,0
6359,note_on,,119,0,15,,,,,,,,,,,,,,,,15,,70,0
6359,note_on,,119,0,10,,,,,,,,,,,,,,,,8,,48,0
6359,note_on,,0,0,15,,,,,,,,,,,,,,,,15,,48,0
6359,note_on,,359,0,8,,,,,,,,,,,,,,,,6,,67,0
6359,note_on,,119,0,5,,,,,,,,,,,,,,,,1,,75,0
6359,note_on,,359,0,13,,,,,,,,,,,,,,,,12,,62,0
6359,note_on,,359,0,12,,,,,,,,,,,,,,,,11,,67,0
6359,note_on,,119,0,9,,,,,,,,,,,,,,,,7,,62,0
6359,note_on,,119,0,6,,,,,,,,,,,,,,,,2,,48,0
6359,note_on,,119,0,7,,,,,,,,,,,,,,,,5,,75,0
6360,note_on,,1,0,6,,,,,,,,,,,,,,,,2,,60,64
6360,note_on,,1,0,15,,,,,,,,,,,,,,,,15,,60,64
6360,note_on,,0,0,15,,,,,,,,,,,,,,,,15,,72,64
6360,note_on,,1,0,10,,,,,,,,,,,,,,,,8,,60,64
6360,note_on,,1,0,8,,,,,,,,,,,,,,,,6,,69,64
6360,note_on,,1,0,14,,,,,,,,,,,,,,,,13,,60,64
6360,note_on,,1,0,12,,,,,,,,,,,,,,,,11,,69,64
6360,note_on,,1,0,9,,,,,,,,,,,,,,,,7,,60,64
6360,note_on,,1,0,5,,,,,,,,,,,,,,,,1,,75,64
6360,note_on,,1,0,7,,,,,,,,,,,,,,,,5,,75,64
6360,note_on,,1,0,13,,,,,,,,,,,,,,,,12,,60,64
6360,note_on,,0,0,15,,,,,,,,,,,,,,,,15,,69,64
6419,note_on,,59,0,5,,,,,,,,,,,,,,,,1,,75,0
6419,note_on,,59,0,9,,,,,,,,,,,,,,,,7,,60,0
6419,note_on,,59,0,10,,,,,,,,,,,,,,,,8,,60,0
6419,note_on,,0,0,15,,,,,,,,,,,,,,,,15,,69,0
6419,note_on,,59,0,12,,,,,,,,,,,,,,,,11,,69,0
6419,note_on,,59,0,8,,,,,,,,,,,,,,,,6,,69,0
6419,note_on,,59,0,7,,,,,,,,,,,,,,,,5,,75,0
6419,note_on,,59,0,15,,,,,,,,,,,,,,,,15,,72,0
6420,note_on,,1,0,8,,,,,,,,,,,,,,,,6,,67,64
6420,note_on,,1,0,10,,,,,,,,,,,,,,,,8,,60,64
6420,note_on,,1,0,7,,,,,,,,,,,,,,,,5,,75,64
6420,note_on,,1,0,5,,,,,,,,,,,,,,,,1,,75,64
6420,note_on,,1,0,12,,,,,,,,,,,,,,,,11,,67,64
6420,note_on,,1,0,9,,,,,,,,,,,,,,,,7,,60,64
6420,note_on,,1,0,15,,,,,,,,,,,,,,,,15,,70,64
6420,note_on,,0,0,15,,,,,,,,,,,,,,,,15,,67,64
6479,note_on,,59,0,15,,,,,,,,,,,,,,,,15,,63,0
6479,note_on,,119,0,14,,,,,,,,,,,,,,,,13,,60,0
6479,note_on,,59,0,5,,,,,,,,,,,,,,,,1,,75,0
6479,note_on,,59,0,10,,,,,,,,,,,,,,,,8,,60,0
6479,note_on,,0,0,15,,,,,,,,,,,,,,,,15,,70,0
6479,note_on,,0,0,15,,,,,,,,,,,,,,,,15,,60,0
6479,note_on,,59,0,9,,,,,,,,,,,,,,,,7,,60,0
6479,note_on,,59,0,8,,,,,,,,,,,,,,,,6,,67,0
6479,note_on,,119,0,6,,,,,,,,,,,,,,,,2,,60,0
6479,note_on,,119,0,13,,,,,,,,,,,,,,,,12,,60,0
6479,note_on,,59,0,12,,,,,,,,,,,,,,,,11,,67,0
6479,note_on,,59,0,7,,,,,,,,,,,,,,,,5,,75,0
6479,note_on,,0,0,15,,,,,,,,,,,,,,,,15,,67,0
6480,note_on,,1,0,15,,,,,,,,,,,,,,,,15,,54,64
6480,note_on,,1,0,7,,,,,,,,,,,,,,,,5,,75,64
6480,note_on,,1,0,9,,,,,,,,,,,,,,,,7,,60,64
6480,note_on,,1,0,5,,,,,,,,,,,,,,,,1,,75,64
6480,note_on,,0,0,15,,,,,,,,,,,,,,,,15,,69,64
6480,note_on,,1,0,13,,,,,,,,,,,,,,,,12,,60,64
6480,note_on,,1,0,14,,,,,,,,,,,,,,,,13,,54,64
6480,note_on,,1,0,10,,,,,,,,,,,,,,,,8,,54,64
6480,note_on,,1,0,6,,,,,,,,,,,,,,,,2,,54,64
6480,note_on,,1,0,8,,,,,,,,,,,,,,,,6,,69,64
6480,note_on,,0,0,15,,,,,,,,,,,,,,,,15,,63,64
6480,note_on,,0,0,15,,,,,,,,,,,,,,,,15,,60,64
6480,note_on,,1,0,12,,,,,,,,,,,,,,,,11,,69,64
6599,note_on,,359,0,11,,,,,,,,,,,,,,,,10,,75,0
6600,note_on,,1,0,11,,,,,,,,,,,,,,,,10,,75,64
6659,note_on,,179,0,10,,,,,,,,,,,,,,,,8,,54,0
6659,note_on,,0,0,15,,,,,,,,,,,,,,,,15,,60,0
6659,note_on,,0,0,15,,,,,,,,,,,,,,,,15,,63,0
6659,note_on,,0,0,15,,,,,,,,,,,,,,,,15,,69,0
6659,note_on,,179,0,15,,,,,,,,,,,,,,,,15,,54,0
6659,note_on,,179,0,9,,,,,,,,,,,,,,,,7,,60,0
6659,note_on,,179,0,5,,,,,,,,,,,,,,,,1,,75,0
6659,note_on,,179,0,14,,,,,,,,,,,,,,,,13,,54,0
6659,note_on,,179,0,7,,,,,,,,,,,,,,,,5,,75,0
6659,note_on,,179,0,13,,,,,,,,,,,,,,,,12,,60,0
6659,note_on,,179,0,8,,,,,,,,,,,,,,,,6,,69,0
6659,note_on,,179,0,6,,,,,,,,,,,,,,,,2,,54,0
6659,note_on,,179,0,12,,,,,,,,,,,,,,,,11,,69,0
6660,note_on,,1,0,7,,,,,,,,,,,,,,,,5,,75,64
6660,note_on,,1,0,15,,,,,,,,,,,,,,,,15,,54,64
6660,note_on,,0,0,15,,,,,,,,,,,,,,,,15,,72,64
6660,note_on,,0,0,15,,,,,,,,,,,,,,,,15,,69,64
6660,note_on,,0,0,15,,,,,,,,,,,,,,,,15,,63,64
6660,note_on,,1,0,5,,,,,,,,,,,,,,,,1,,75,64
6660,note_on,,1,0,6,,,,,,,,,,,,,,,,2,,54,64
6660,note_on,,1,0,8,,,,,,,,,,,,,,,,6,,69,64
6660,note_on,,1,0,13,,,,,,,,,,,,,,,,12,,60,64
6660,note_on,,1,0,14,,,,,,,,,,,,,,,,13,,54,64
6660,note_on,,1,0,10,,,,,,,,,,,,,,,,8,,54,64
6660,note_on,,1,0,9,,,,,,,,,,,,,,,,7,,60,64
6660,note_on,,1,0,12,,,,,,,,,,,,,,,,11,,69,64
6719,note_on,,59,0,9,,,,,,,,,,,,,,,,7,,60,0
6719,note_on,,59,0,7,,,,,,,,,,,,,,,,5,,75,0
6719,note_on,,59,0,8,,,,,,,,,,,,,,,,6,,69,0
6719,note_on,,59,0,14,,,,,,,,,,,,,,,,13,,54,0
6719,note_on,,0,0,15,,,,,,,,,,,,,,,,15,,63,0
6719,note_on,,119,0,11,,,,,,,,,,,,,,,,10,,75,0
6719,note_on,,59,0,13,,,,,,,,,,,,,,,,12,,60,0
6719,note_on,,59,0,12,,,,,,,,,,,,,,,,11,,69,0
6719,note_on,,59,0,10,,,,,,,,,,,,,,,,8,,54,0
6719,note_on,,0,0,15,,,,,,,,,,,,,,,,15,,69,0
6719,note_on,,59,0,6,,,,,,,,,,,,,,,,2,,54,0
6719,note_on,,59,0,15,,,,,,,,,,,,,,,,15,,54,0
6719,note_on,,59,0,5,,,,,,,,,,,,,,,,1,,75,0
6719,note_on,,0,0,15,,,,,,,,,,,,,,,,15,,72,0
6720,note_on,,1,0,7,,,,,,,,,,,,,,,,5,,74,64
6720,note_on,,1,0,8,,,,,,,,,,,,,,,,6,,69,64
6720,note_on,,1,0,13,,,,,,,,,,,,,,,,12,,60,64
6720,note_on,,0,0,15,,,,,,,,,,,,,,,,15,,61,64
6720,note_on,,0,0,15,,,,,,,,,,,,,,,,15,,69,64
6720,note_on,,0,0,15,,,,,,,,,,,,,,,,15,,72,64
6720,note_on,,1,0,15,,,,,,,,,,,,,,,,15,,55,64
6720,note_on,,1,0,10,,,,,,,,,,,,,,,,8,,55,64
6720,note_on,,1,0,9,,,,,,,,,,,,,,,,7,,60,64
6720,note_on,,1,0,14,,,,,,,,,,,,,,,,13,,55,64
6720,note_on,,1,0,6,,,,,,,,,,,,,,,,2,,55,64
6720,note_on,,1,0,5,,,,,,,,,,,,,,,,1,,74,64
6720,note_on,,1,0,12,,,,,,,,,,,,,,,,11,,69,64
6720,note_on,,1,0,11,,,,,,,,,,,,,,,,10,,74,64
6839,note_on,,119,0,9,,,,,,,,,,,,,,,,7,,60,0
6839,note_on,,119,0,5,,,,,,,,,,,,,,,,1,,74,0
6839,note_on,,0,0,15,,,,,,,,,,,,,,,,15,,69,0
6839,note_on,,119,0,8,,,,,,,,,,,,,,,,6,,69,0
6839,note_on,,119,0,12,,,,,,,,,,,,,,,,11,,69,0
6839,note_on,,119,0,15,,,,,,,,,,,,,,,,15,,72,0
6839,note_on,,119,0,7,,,,,,,,,,,,,,,,5,,74,0
6839,note_on,,119,0,10,,,,,,,,,,,,,,,,8,,55,0
6839,note_on,,119,0,11,,,,,,,,,,,,,,,,10,,74,0
6839,note_on,,119,0,13,,,,,,,,,,,,,,,,12,,60,0
6840,note_on,,1,0,15,,,,,,,,,,,,,,,,15,,70,64
6840,note_on,,1,0,9,,,,,,,,,,,,,,,,7,,58,64
6840,note_on,,1,0,7,,,,,,,,,,,,,,,,5,,74,64
6840,note_on,,0,0,15,,,,,,,,,,,,,,,,15,,67,64
6840,note_on,,1,0,13,,,,,,,,,,,,,,,,12,,58,64
6840,note_on,,1,0,5,,,,,,,,,,,,,,,,1,,74,64
6840,note_on,,1,0,10,,,,,,,,,,,,,,,,8,,55,64
6840,note_on,,1,0,12,,,,,,,,,,,,,,,,11,,67,64
6840,note_on,,1,0,8,,,,,,,,,,,,,,,,6,,67,64
6840,note_on,,1,0,11,,,,,,,,,,,,,,,,10,,74,64
6959,note_on,,239,0,6,,,,,,,,,,,,,,,,2,,55,0
6959,note_on,,119,0,13,,,,,,,,,,,,,,,,12,,58,0
6959,note_on,,119,0,8,,,,,,,,,,,,,,,,6,,67,0
6959,note_on,,119,0,9,,,,,,,,,,,,,,,,7,,58,0
6959,note_on,,239,0,14,,,,,,,,,,,,,,,,13,,55,0
6959,note_on,,119,0,5,,,,,,,,,,,,,,,,1,,74,0
6959,note_on,,119,0,15,,,,,,,,,,,,,,,,15,,55,0
6959,note_on,,0,0,15,,,,,,,,,,,,,,,,15,,61,0
6959,note_on,,0,0,15,,,,,,,,,,,,,,,,15,,70,0
6959,note_on,,0,0,15,,,,,,,,,,,,,,,,15,,67,0
6959,note_on,,119,0,12,,,,,,,,,,,,,,,,11,,67,0
6959,note_on,,119,0,10,,,,,,,,,,,,,,,,8,,55,0
6959,note_on,,119,0,7,,,,,,,,,,,,,,,,5,,74,0
6959,note_on,,119,0,11,,,,,,,,,,,,,,,,10,,74,0
6960,note_on,,1,0,8,,,,,,,,,,,,,,,,6,,67,64
6960,note_on,,1,0,13,,,,,,,,,,,,,,,,12,,58,64
6960,note_on,,0,0,15,,,,,,,,,,,,,,,,15,,60,64
6960,note_on,,0,0,15,,,,,,,,,,,,,,,,15,,64,64
6960,note_on,,0,0,15,,,,,,,,,,,,,,,,15,,67,64
6960,note_on,,1,0,15,,,,,,,,,,,,,,,,15,,48,64
6960,note_on,,1,0,5,,,,,,,,,,,,,,,,1,,76,64
6960,note_on,,1,0,12,,,,,,,,,,,,,,,,11,,67,64
6960,note_on,,1,0,6,,,,,,,,,,,,,,,,2,,48,64
6960,note_on,,0,0,15,,,,,,,,,,,,,,,,15,,70,64
6960,note_on,,1,0,7,,,,,,,,,,,,,,,,5,,76,64
6960,note_on,,1,0,10,,,,,,,,,,,,,,,,8,,48,64
6960,note_on,,1,0,14,,,,,,,,,,,,,,,,13,,48,64
6960,note_on,,1,0,9,,,,,,,,,,,,,,,,7,,58,64
6960,note_on,,1,0,11,,,,,,,,,,,,,,,,10,,76,64
7139,note_on,,179,0,10,,,,,,,,,,,,,,,,8,,48,0
7139,note_on,,0,0,15,,,,,,,,,,,,,,,,15,,60,0
7139,note_on,,0,0,15,,,,,,,,,,,,,,,,15,,64,0
7139,note_on,,0,0,15,,,,,,,,,,,,,,,,15,,67,0
7139,note_on,,0,0,15,,,,,,,,,,,,,,,,15,,70,0
7139,note_on,,179,0,15,,,,,,,,,,,,,,,,15,,48,0
7139,note_on,,179,0,14,,,,,,,,,,,,,,,,13,,48,0
7139,note_on,,179,0,13,,,,,,,,,,,,,,,,12,,58,0
7139,note_on,,179,0,9,,,,,,,,,,,,,,,,7,,58,0
7139,note_on,,179,0,5,,,,,,,,,,,,,,,,1,,76,0
7139,note_on,,179,0,6,,,,,,,,,,,,,,,,2,,48,0
7139,note_on,,179,0,7,,,,,,,,,,,,,,,,5,,76,0
7139,note_on,,179,0,12,,,,,,,,,,,,,,,,11,,67,0
7139,note_on,,179,0,11,,,,,,,,,,,,,,,,10,,76,0
7139,note_on,,179,0,8,,,,,,,,,,,,,,,,6,,67,0
7140,note_on,,1,0,5,,,,,,,,,,,,,,,,1,,76,64
7140,note_on,,1,0,11,,,,,,,,,,,,,,,,10,,76,64
7140,note_on,,1,0,10,,,,,,,,,,,,,,,,8,,48,64
7140,note_on,,1,0,8,,,,,,,,,,,,,,,,6,,67,64
7140,note_on,,1,0,9,,,,,,,,,,,,,,,,7,,58,64
7140,note_on,,1,0,12,,,,,,,,,,,,,,,,11,,67,64
7140,note_on,,1,0,13,,,,,,,,,,,,,,,,12,,58,64
7140,note_on,,0,0,15,,,,,,,,,,,,,,,,15,,60,64
7140,note_on,,1,0,14,,,,,,,,,,,,,,,,13,,48,64
7140,note_on,,0,0,15,,,,,,,,,,,,,,,,15,,70,64
7140,note_on,,0,0,15,,,,,,,,,,,,,,,,15,,67,64
7140,note_on,,1,0,15,,,,,,,,,,,,,,,,15,,64,64
7140,note_on,,1,0,6,,,,,,,,,,,,,,,,2,,48,64
7140,note_on,,1,0,7,,,,,,,,,,,,,,,,5,,76,64
7140,note_on,,0,0,15,,,,,,,,,,,,,,,,15,,48,64
7199,note_on,,59,0,15,,,,,,,,,,,,,,,,15,,64,0
7199,note_on,,0,0,15,,,,,,,,,,,,,,,,15,,70,0
7199,note_on,,59,0,5,,,,,,,,,,,,,,,,1,,76,0
7199,note_on,,0,0,15,,,,,,,,,,,,,,,,15,,67,0
7199,note_on,,59,0,12,,,,,,,,,,,,,,,,11,,67,0
7199,note_on,,59,0,9,,,,,,,,,,,,,,,,7,,58,0
7199,note_on,,59,0,10,,,,,,,,,,,,,,,,8,,48,0
7199,note_on,,59,0,7,,,,,,,,,,,,,,,,5,,76,0
7199,note_on,,0,0,15,,,,,,,,,,,,,,,,15,,60,0
7199,note_on,,59,0,11,,,,,,,,,,,,,,,,10,,76,0
7199,note_on,,0,0,15,,,,,,,,,,,,,,,,15,,48,0
7199,note_on,,59,0,8,,,,,,,,,,,,,,,,6,,67,0
7199,note_on,,59,0,6,,,,,,,,,,,,,,,,2,,48,0
7199,note_on,,59,0,14,,,,,,,,,,,,,,,,13,,48,0
7199,note_on,,59,0,13,,,,,,,,,,,,,,,,12,,58,0
7200,note_on,,1,0,8,,,,,,,,,,,,,,,,6,,65,64
7200,note_on,,1,0,10,,,,,,,,,,,,,,,,8,,49,64
7200,note_on,,1,0,9,,,,,,,,,,,,,,,,7,,56,64
7200,note_on,,1,0,12,,,,,,,,,,,,,,,,11,,65,64
7200,note_on,,0,0,15,,,,,,,,,,,,,,,,15,,68,64
7200,note_on,,1,0,14,,,,,,,,,,,,,,,,13,,49,64
7200,note_on,,1,0,5,,,,,,,,,,,,,,,,1,,77,64
7200,note_on,,1,0,13,,,,,,,,,,,,,,,,12,,56,64
7200,note_on,,1,0,15,,,,,,,,,,,,,,,,15,,49,64
7200,note_on,,1,0,6,,,,,,,,,,,,,,,,2,,49,64
7200,note_on,,0,0,15,,,,,,,,,,,,,,,,15,,65,64
7200,note_on,,0,0,15,,,,,,,,,,,,,,,,15,,56,64
7200,note_on,,1,0,7,,,,,,,,,,,,,,,,5,,77,64
7200,note_on,,1,0,11,,,,,,,,,,,,,,,,10,,77,64
7319,note_on,,119,0,13,,,,,,,,,,,,,,,,12,,56,0
7319,note_on,,119,0,15,,,,,,,,,,,,,,,,15,,68,0
7319,note_on,,119,0,9,,,,,,,,,,,,,,,,7,,56,0
7319,note_on,,119,0,8,,,,,,,,,,,,,,,,6,,65,0
7319,note_on,,0,0,15,,,,,,,,,,,,,,,,15,,65,0
7319,note_on,,0,0,15,,,,,,,,,,,,,,,,15,,56,0
7319,note_on,,119,0,12,,,,,,,,,,,,,,,,11,,65,0
7320,note_on,,1,0,9,,,,,,,,,,,,,,,,7,,58,64
7320,note_on,,1,0,8,,,,,,,,,,,,,,,,6,,67,64
7320,note_on,,1,0,12,,,,,,,,,,,,,,,,11,,67,64
7320,note_on,,1,0,13,,,,,,,,,,,,,,,,12,,58,64
7320,note_on,,1,0,15,,,,,,,,,,,,,,,,15,,67,64
7320,note_on,,0,0,15,,,,,,,,,,,,,,,,15,,58,64
7439,note_on,,239,0,6,,,,,,,,,,,,,,,,2,,49,0
7439,note_on,,239,0,14,,,,,,,,,,,,,,,,13,,49,0
7439,note_on,,239,0,10,,,,,,,,,,,,,,,,8,,49,0
7439,note_on,,119,0,9,,,,,,,,,,,,,,,,7,,58,0
7439,note_on,,0,0,15,,,,,,,,,,,,,,,,15,,67,0
7439,note_on,,0,0,15,,,,,,,,,,,,,,,,15,,58,0
7439,note_on,,119,0,15,,,,,,,,,,,,,,,,15,,49,0
7439,note_on,,119,0,13,,,,,,,,,,,,,,,,12,,58,0
7439,note_on,,119,0,8,,,,,,,,,,,,,,,,6,,67,0
7439,note_on,,119,0,12,,,,,,,,,,,,,,,,11,,67,0
7440,note_on,,0,0,15,,,,,,,,,,,,,,,,15,,65,64
7440,note_on,,1,0,8,,,,,,,,,,,,,,,,6,,69,64
7440,note_on,,0,0,15,,,,,,,,,,,,,,,,15,,60,64
7440,note_on,,1,0,15,,,,,,,,,,,,,,,,15,,45,64
7440,note_on,,0,0,15,,,,,,,,,,,,,,,,15,,53,64
7440,note_on,,1,0,14,,,,,,,,,,,,,,,,13,,45,64
7440,note_on,,1,0,9,,,,,,,,,,,,,,,,7,,60,64
7440,note_on,,1,0,10,,,,,,,,,,,,,,,,8,,45,64
7440,note_on,,1,0,12,,,,,,,,,,,,,,,,11,,69,64
7440,note_on,,1,0,6,,,,,,,,,,,,,,,,2,,45,64
7440,note_on,,1,0,13,,,,,,,,,,,,,,,,12,,60,64
7559,note_on,,359,0,7,,,,,,,,,,,,,,,,5,,77,0
7559,note_on,,119,0,9,,,,,,,,,,,,,,,,7,,60,0
7559,note_on,,359,0,5,,,,,,,,,,,,,,,,1,,77,0
7559,note_on,,0,0,15,,,,,,,,,,,,,,,,15,,65,0
7559,note_on,,119,0,15,,,,,,,,,,,,,,,,15,,60,0
7559,note_on,,119,0,13,,,,,,,,,,,,,,,,12,,60,0
7559,note_on,,119,0,8,,,,,,,,,,,,,,,,6,,69,0
7559,note_on,,119,0,12,,,,,,,,,,,,,,,,11,,69,0
7559,note_on,,359,0,11,,,,,,,,,,,,,,,,10,,77,0
7560,note_on,,0,0,15,,,,,,,,,,,,,,,,15,,65,64
7560,note_on,,1,0,15,,,,,,,,,,,,,,,,15,,72,64
7560,note_on,,1,0,5,,,,,,,,,,,,,,,,1,,75,64
7560,note_on,,1,0,12,,,,,,,,,,,,,,,,11,,65,64
7560,note_on,,1,0,8,,,,,,,,,,,,,,,,6,,65,64
7560,note_on,,1,0,7,,,,,,,,,,,,,,,,5,,75,64
7560,note_on,,1,0,13,,,,,,,,,,,,,,,,12,,60,64
7560,note_on,,1,0,9,,,,,,,,,,,,,,,,7,,60,64
7560,note_on,,1,0,11,,,,,,,,,,,,,,,,10,,75,64
7679,note_on,,119,0,12,,,,,,,,,,,,,,,,11,,65,0
7679,note_on,,119,0,15,,,,,,,,,,,,,,,,15,,45,0
7679,note_on,,0,0,15,,,,,,,,,,,,,,,,15,,72,0
7679,note_on,,0,0,15,,,,,,,,,,,,,,,,15,,65,0
7679,note_on,,119,0,8,,,,,,,,,,,,,,,,6,,65,0
7679,note_on,,119,0,7,,,,,,,,,,,,,,,,5,,75,0
7679,note_on,,119,0,5,,,,,,,,,,,,,,,,1,,75,0
7679,note_on,,119,0,11,,,,,,,,,,,,,,,,10,,75,0
7679,note_on,,239,0,10,,,,,,,,,,,,,,,,8,,45,0
7679,note_on,,239,0,14,,,,,,,,,,,,,,,,13,,45,0
7679,note_on,,239,0,6,,,,,,,,,,,,,,,,2,,45,0
7680,note_on,,1,0,14,,,,,,,,,,,,,,,,13,,46,64
7680,note_on,,1,0,5,,,,,,,,,,,,,,,,1,,73,64
7680,note_on,,1,0,12,,,,,,,,,,,,,,,,11,,65,64
7680,note_on,,1,0,11,,,,,,,,,,,,,,,,10,,73,64
7680,note_on,,1,0,6,,,,,,,,,,,,,,,,2,,46,64
7680,note_on,,1,0,10,,,,,,,,,,,,,,,,8,,46,64
7680,note_on,,0,0,15,,,,,,,,,,,,,,,,15,,73,64
7680,note_on,,1,0,15,,,,,,,,,,,,,,,,15,,46,64
7680,note_on,,0,0,15,,,,,,,,,,,,,,,,15,,65,64
7680,note_on,,1,0,8,,,,,,,,,,,,,,,,6,,65,64
7680,note_on,,1,0,7,,,,,,,,,,,,,,,,5,,73,64
7799,note_on,,119,0,7,,,,,,,,,,,,,,,,5,,73,0
7799,note_on,,239,0,13,,,,,,,,,,,,,,,,12,,60,0
7799,note_on,,119,0,15,,,,,,,,,,,,,,,,15,,53,0
7799,note_on,,119,0,10,,,,,,,,,,,,,,,,8,,46,0
7799,note_on,,0,0,15,,,,,,,,,,,,,,,,15,,46,0
7799,note_on,,119,0,6,,,,,,,,,,,,,,,,2,,46,0
7799,note_on,,119,0,8,,,,,,,,,,,,,,,,6,,65,0
7799,note_on,,119,0,14,,,,,,,,,,,,,,,,13,,46,0
7799,note_on,,239,0,9,,,,,,,,,,,,,,,,7,,60,0
7799,note_on,,119,0,5,,,,,,,,,,,,,,,,1,,73,0
7800,note_on,,1,0,6,,,,,,,,,,,,,,,,2,,58,64
7800,note_on,,1,0,8,,,,,,,,,,,,,,,,6,,65,64
7800,note_on,,1,0,14,,,,,,,,,,,,,,,,13,,58,64
7800,note_on,,1,0,9,,,,,,,,,,,,,,,,7,,58,64
7800,note_on,,1,0,13,,,,,,,,,,,,,,,,12,,58,64
7800,note_on,,1,0,5,,,,,,,,,,,,,,,,1,,73,64
7800,note_on,,1,0,15,,,,,,,,,,,,,,,,15,,58,64
7800,note_on,,1,0,7,,,,,,,,,,,,,,,,5,,73,64
7800,note_on,,1,0,10,,,,,,,,,,,,,,,,8,,58,64
7919,note_on,,119,0,14,,,,,,,,,,,,,,,,13,,58,0
7919,note_on,,119,0,9,,,,,,,,,,,,,,,,7,,58,0
7919,note_on,,0,0,15,,,,,,,,,,,,,,,,15,,58,0
7919,note_on,,119,0,8,,,,,,,,,,,,,,,,6,,65,0
7919,note_on,,0,0,15,,,,,,,,,,,,,,,,15,,65,0
7919,note_on,,119,0,15,,,,,,,,,,,,,,,,15,,73,0
7919,note_on,,119,0,7,,,,,,,,,,,,,,,,5,,73,0
7919,note_on,,119,0,10,,,,,,,,,,,,,,,,8,,58,0
7919,note_on,,119,0,5,,,,,,,,,,,,,,,,1,,73,0
7919,note_on,,119,0,6,,,,,,,,,,,,,,,,2,,58,0
7919,note_on,,239,0,11,,,,,,,,,,,,,,,,10,,73,0
7919,note_on,,239,0,12,,,,,,,,,,,,,,,,11,,65,0
7920,note_on,,1,0,6,,,,,,,,,,,,,,,,2,,52,64
7920,note_on,,1,0,11,,,,,,,,,,,,,,,,10,,72,64
7920,note_on,,1,0,8,,,,,,,,,,,,,,,,6,,67,64
7920,note_on,,0,0,15,,,,,,,,,,,,,,,,15,,60,64
7920,note_on,,1,0,10,,,,,,,,,,,,,,,,8,,52,64
7920,note_on,,1,0,15,,,,,,,,,,,,,,,,15,,52,64
7920,note_on,,1,0,7,,,,,,,,,,,,,,,,5,,72,64
7920,note_on,,1,0,14,,,,,,,,,,,,,,,,13,,52,64
7920,note_on,,0,0,15,,,,,,,,,,,,,,,,15,,72,64
7920,note_on,,1,0,9,,,,,,,,,,,,,,,,7,,58,64
7920,note_on,,1,0,12,,,,,,,,,,,,,,,,11,,67,64
7920,note_on,,1,0,5,,,,,,,,,,,,,,,,1,,72,64
7920,note_on,,0,0,15,,,,,,,,,,,,,,,,15,,67,64
8039,note_on,,119,0,12,,,,,,,,,,,,,,,,11,,67,0
8039,note_on,,119,0,6,,,,,,,,,,,,,,,,2,,52,0
8039,note_on,,0,0,15,,,,,,,,,,,,,,,,15,,67,0
8039,note_on,,119,0,14,,,,,,,,,,,,,,,,13,,52,0
8039,note_on,,119,0,15,,,,,,,,,,,,,,,,15,,52,0
8039,note_on,,119,0,8,,,,,,,,,,,,,,,,6,,67,0
8039,note_on,,239,0,13,,,,,,,,,,,,,,,,12,,58,0
8039,note_on,,119,0,5,,,,,,,,,,,,,,,,1,,72,0
8039,note_on,,119,0,9,,,,,,,,,,,,,,,,7,,58,0
8039,note_on,,119,0,7,,,,,,,,,,,,,,,,5,,72,0
8039,note_on,,119,0,10,,,,,,,,,,,,,,,,8,,52,0
8040,note_on,,1,0,5,,,,,,,,,,,,,,,,1,,72,64
8040,note_on,,1,0,14,,,,,,,,,,,,,,,,13,,53,64
8040,note_on,,1,0,9,,,,,,,,,,,,,,,,7,,56,64
8040,note_on,,1,0,15,,,,,,,,,,,,,,,,15,,53,64
8040,note_on,,1,0,6,,,,,,,,,,,,,,,,2,,53,64
8040,note_on,,1,0,12,,,,,,,,,,,,,,,,11,,65,64
8040,note_on,,0,0,15,,,,,,,,,,,,,,,,15,,68,64
8040,note_on,,1,0,10,,,,,,,,,,,,,,,,8,,53,64
8040,note_on,,1,0,13,,,,,,,,,,,,,,,,12,,56,64
8040,note_on,,0,0,15,,,,,,,,,,,,,,,,15,,65,64
8040,note_on,,1,0,7,,,,,,,,,,,,,,,,5,,72,64
8040,note_on,,1,0,8,,,,,,,,,,,,,,,,6,,65,64
8099,note_on,,59,0,8,,,,,,,,,,,,,,,,6,,65,0
8099,note_on,,59,0,9,,,,,,,,,,,,,,,,7,,56,0
8099,note_on,,59,0,13,,,,,,,,,,,,,,,,12,,56,0
8099,note_on,,59,0,10,,,,,,,,,,,,,,,,8,,53,0
8099,note_on,,59,0,5,,,,,,,,,,,,,,,,1,,72,0
8099,note_on,,59,0,7,,,,,,,,,,,,,,,,5,,72,0
8099,note_on,,59,0,12,,,,,,,,,,,,,,,,11,,65,0
8100,note_on,,1,0,8,,,,,,,,,,,,,,,,6,,68,64
8100,note_on,,1,0,13,,,,,,,,,,,,,,,,12,,60,64
8100,note_on,,1,0,5,,,,,,,,,,,,,,,,1,,72,64
8100,note_on,,1,0,12,,,,,,,,,,,,,,,,11,,68,64
8100,note_on,,1,0,9,,,,,,,,,,,,,,,,7,,60,64
8100,note_on,,1,0,10,,,,,,,,,,,,,,,,8,,53,64
8100,note_on,,1,0,7,,,,,,,,,,,,,,,,5,,72,64
8159,note_on,,119,0,6,,,,,,,,,,,,,,,,2,,53,0
8159,note_on,,59,0,12,,,,,,,,,,,,,,,,11,,68,0
8159,note_on,,59,0,7,,,,,,,,,,,,,,,,5,,72,0
8159,note_on,,59,0,13,,,,,,,,,,,,,,,,12,,60,0
8159,note_on,,59,0,8,,,,,,,,,,,,,,,,6,,68,0
8159,note_on,,59,0,10,,,,,,,,,,,,,,,,8,,53,0
8159,note_on,,0,0,15,,,,,,,,,,,,,,,,15,,60,0
8159,note_on,,0,0,15,,,,,,,,,,,,,,,,15,,53,0
8159,note_on,,0,0,15,,,,,,,,,,,,,,,,15,,68,0
8159,note_on,,0,0,15,,,,,,,,,,,,,,,,15,,65,0
8159,note_on,,59,0,5,,,,,,,,,,,,,,,,1,,72,0
8159,note_on,,59,0,9,,,,,,,,,,,,,,,,7,,60,0
8159,note_on,,119,0,14,,,,,,,,,,,,,,,,13,,53,0
8159,note_on,,119,0,15,,,,,,,,,,,,,,,,15,,72,0
8160,note_on,,1,0,5,,,,,,,,,,,,,,,,1,,72,64
8160,note_on,,1,0,7,,,,,,,,,,,,,,,,5,,72,64
8160,note_on,,1,0,9,,,,,,,,,,,,,,,,7,,65,64
8160,note_on,,1,0,14,,,,,,,,,,,,,,,,13,,49,64
8160,note_on,,1,0,6,,,,,,,,,,,,,,,,2,,49,64
8160,note_on,,1,0,13,,,,,,,,,,,,,,,,12,,65,64
8160,note_on,,1,0,8,,,,,,,,,,,,,,,,6,,68,64
8160,note_on,,0,0,15,,,,,,,,,,,,,,,,15,,61,64
8160,note_on,,1,0,12,,,,,,,,,,,,,,,,11,,68,64
8160,note_on,,0,0,15,,,,,,,,,,,,,,,,15,,65,64
8160,note_on,,1,0,10,,,,,,,,,,,,,,,,8,,61,64
8160,note_on,,1,0,15,,,,,,,,,,,,,,,,15,,49,64
8160,note_on,,0,0,15,,,,,,,,,,,,,,,,15,,72,64
8160,note_on,,0,0,15,,,,,,,,,,,,,,,,15,,68,64
8399,note_on,,239,0,5,,,,,,,,,,,,,,,,1,,72,0
8399,note_on,,0,0,15,,,,,,,,,,,,,,,,15,,61,0
8399,note_on,,0,0,15,,,,,,,,,,,,,,,,15,,65,0
8399,note_on,,0,0,15,,,,,,,,,,,,,,,,15,,68,0
8399,note_on,,239,0,15,,,,,,,,,,,,,,,,15,,72,0
8399,note_on,,479,0,11,,,,,,,,,,,,,,,,10,,72,0
8399,note_on,,239,0,12,,,,,,,,,,,,,,,,11,,68,0
8399,note_on,,239,0,8,,,,,,,,,,,,,,,,6,,68,0
8399,note_on,,239,0,7,,,,,,,,,,,,,,,,5,,72,0
8400,note_on,,0,0,15,,,,,,,,,,,,,,,,15,,70,64
8400,note_on,,1,0,7,,,,,,,,,,,,,,,,5,,70,64
8400,note_on,,0,0,15,,,,,,,,,,,,,,,,15,,67,64
8400,note_on,,1,0,15,,,,,,,,,,,,,,,,15,,61,64
8400,note_on,,1,0,5,,,,,,,,,,,,,,,,1,,70,64
8400,note_on,,1,0,11,,,,,,,,,,,,,,,,10,,70,64
8400,note_on,,1,0,12,,,,,,,,,,,,,,,,11,,67,64
8400,note_on,,1,0,8,,,,,,,,,,,,,,,,6,,67,64
8519,note_on,,119,0,8,,,,,,,,,,,,,,,,6,,67,0
8519,note_on,,359,0,10,,,,,,,,,,,,,,,,8,,61,0
8519,note_on,,359,0,13,,,,,,,,,,,,,,,,12,,65,0
8519,note_on,,359,0,9,,,,,,,,,,,,,,,,7,,65,0
8519,note_on,,119,0,12,,,,,,,,,,,,,,,,11,,67,0
8520,note_on,,1,0,8,,,,,,,,,,,,,,,,6,,65,64
8520,note_on,,1,0,13,,,,,,,,,,,,,,,,12,,65,64
8520,note_on,,120,0,15,,,,,,,,,,,,,,,,15,,65,64
8520,note_on,,1,0,9,,,,,,,,,,,,,,,,7,,65,64
8520,note_on,,1,0,10,,,,,,,,,,,,,,,,8,,61,64
8520,note_on,,1,0,12,,,,,,,,,,,,,,,,11,,65,64
8639,note_on,,119,0,13,,,,,,,,,,,,,,,,12,,65,0
8639,note_on,,119,0,12,,,,,,,,,,,,,,,,11,,65,0
8639,note_on,,0,0,15,,,,,,,,,,,,,,,,15,,65,0
8639,note_on,,0,0,15,,,,,,,,,,,,,,,,15,,67,0
8639,note_on,,0,0,15,,,,,,,,,,,,,,,,15,,70,0
8639,note_on,,0,0,15,,,,,,,,,,,,,,,,15,,61,0
8639,note_on,,119,0,15,,,,,,,,,,,,,,,,15,,49,0
8639,note_on,,239,0,5,,,,,,,,,,,,,,,,1,,70,0
8639,note_on,,119,0,10,,,,,,,,,,,,,,,,8,,61,0
8639,note_on,,119,0,9,,,,,,,,,,,,,,,,7,,65,0
8639,note_on,,479,0,14,,,,,,,,,,,,,,,,13,,49,0
8639,note_on,,119,0,8,,,,,,,,,,,,,,,,6,,65,0
8639,note_on,,239,0,11,,,,,,,,,,,,,,,,10,,70,0
8639,note_on,,479,0,6,,,,,,,,,,,,,,,,2,,49,0
8639,note_on,,239,0,7,,,,,,,,,,,,,,,,5,,70,0
8640,note_on,,1,0,14,,,,,,,,,,,,,,,,13,,48,64
8640,note_on,,1,0,5,,,,,,,,,,,,,,,,1,,72,64
8640,note_on,,1,0,11,,,,,,,,,,,,,,,,10,,72,64
8640,note_on,,1,0,15,,,,,,,,,,,,,,,,15,,48,64
8640,note_on,,0,0,15,,,,,,,,,,,,,,,,15,,72,64
8640,note_on,,0,0,15,,,,,,,,,,,,,,,,15,,64,64
8640,note_on,,0,0,15,,,,,,,,,,,,,,,,15,,55,64
8640,note_on,,1,0,10,,,,,,,,,,,,,,,,8,,60,64
8640,note_on,,1,0,12,,,,,,,,,,,,,,,,11,,67,64
8640,note_on,,1,0,13,,,,,,,,,,,,,,,,12,,64,64
8640,note_on,,1,0,7,,,,,,,,,,,,,,,,5,,72,64
8640,note_on,,1,0,8,,,,,,,,,,,,,,,,6,,67,64
8640,note_on,,1,0,6,,,,,,,,,,,,,,,,2,,48,64
8640,note_on,,1,0,9,,,,,,,,,,,,,,,,7,,64,64
8729,note_on,,89,0,10,,,,,,,,,,,,,,,,8,,60,0
8729,note_on,,89,0,5,,,,,,,,,,,,,,,,1,,72,0
8729,note_on,,89,0,7,,,,,,,,,,,,,,,,5,,72,0
8729,note_on,,89,0,9,,,,,,,,,,,,,,,,7,,64,0
8729,note_on,,89,0,8,,,,,,,,,,,,,,,,6,,67,0
8730,note_on,,1,0,10,,,,,,,,,,,,,,,,8,,48,64
8730,note_on,,1,0,5,,,,,,,,,,,,,,,,1,,67,64
8730,note_on,,1,0,8,,,,,,,,,,,,,,,,6,,65,64
8730,note_on,,1,0,9,,,,,,,,,,,,,,,,7,,62,64
8730,note_on,,1,0,7,,,,,,,,,,,,,,,,5,,67,64
8744,note_on,,104,0,11,,,,,,,,,,,,,,,,10,,72,0
8744,note_on,,104,0,12,,,,,,,,,,,,,,,,11,,67,0
8744,note_on,,104,0,13,,,,,,,,,,,,,,,,12,,64,0
8745,note_on,,1,0,12,,,,,,,,,,,,,,,,11,,65,64
8745,note_on,,1,0,11,,,,,,,,,,,,,,,,10,,67,64
8745,note_on,,1,0,13,,,,,,,,,,,,,,,,12,,62,64
8759,note_on,,14,0,12,,,,,,,,,,,,,,,,11,,65,0
8759,note_on,,14,0,11,,,,,,,,,,,,,,,,10,,67,0
8759,note_on,,29,0,5,,,,,,,,,,,,,,,,1,,67,0
8759,note_on,,29,0,9,,,,,,,,,,,,,,,,7,,62,0
8759,note_on,,29,0,10,,,,,,,,,,,,,,,,8,,48,0
8759,note_on,,29,0,7,,,,,,,,,,,,,,,,5,,67,0
8759,note_on,,29,0,8,,,,,,,,,,,,,,,,6,,65,0
8759,note_on,,14,0,13,,,,,,,,,,,,,,,,12,,62,0
8760,note_on,,1,0,12,,,,,,,,,,,,,,,,11,,64,64
8760,note_on,,1,0,5,,,,,,,,,,,,,,,,1,,67,64
8760,note_on,,1,0,9,,,,,,,,,,,,,,,,7,,60,64
8760,note_on,,1,0,11,,,,,,,,,,,,,,,,10,,67,64
8760,note_on,,1,0,13,,,,,,,,,,,,,,,,12,,60,64
8760,note_on,,1,0,8,,,,,,,,,,,,,,,,6,,64,64
8760,note_on,,1,0,10,,,,,,,,,,,,,,,,8,,48,64
8760,note_on,,1,0,7,,,,,,,,,,,,,,,,5,,67,64
8879,note_on,,239,0,6,,,,,,,,,,,,,,,,2,,48,0
8879,note_on,,119,0,8,,,,,,,,,,,,,,,,6,,64,0
8879,note_on,,239,0,14,,,,,,,,,,,,,,,,13,,48,0
8879,note_on,,119,0,10,,,,,,,,,,,,,,,,8,,48,0
8879,note_on,,119,0,9,,,,,,,,,,,,,,,,7,,60,0
8879,note_on,,119,0,5,,,,,,,,,,,,,,,,1,,67,0
8879,note_on,,119,0,7,,,,,,,,,,,,,,,,5,,67,0
8879,note_on,,0,0,15,,,,,,,,,,,,,,,,15,,55,0
8879,note_on,,0,0,15,,,,,,,,,,,,,,,,15,,64,0
8879,note_on,,0,0,15,,,,,,,,,,,,,,,,15,,72,0
8879,note_on,,239,0,15,,,,,,,,,,,,,,,,15,,48,0
8879,note_on,,119,0,11,,,,,,,,,,,,,,,,10,,67,0
8879,note_on,,119,0,12,,,,,,,,,,,,,,,,11,,64,0
8879,note_on,,119,0,13,,,,,,,,,,,,,,,,12,,60,0
8880,note_on,,1,0,11,,,,,,,,,,,,,,,,10,,75,72
8880,note_on,,1,0,13,,,,,,,,,,,,,,,,12,,63,72
8880,note_on,,1,0,6,,,,,,,,,,,,,,,,2,,44,72
8880,note_on,,1,0,14,,,,,,,,,,,,,,,,13,,44,72
8880,note_on,,0,0,15,,,,,,,,,,,,,,,,15,,63,72
8880,note_on,,0,0,15,,,,,,,,,,,,,,,,15,,56,72
8880,note_on,,0,0,15,,,,,,,,,,,,,,,,15,,72,72
8880,note_on,,1,0,15,,,,,,,,,,,,,,,,15,,44,72
8880,note_on,,1,0,12,,,,,,,,,,,,,,,,11,,72,72
8880,note_on,,0,0,15,,,,,,,,,,,,,,,,15,,68,72
8924,note_on,,44,0,13,,,,,,,,,,,,,,,,12,,63,0
8924,note_on,,44,0,12,,,,,,,,,,,,,,,,11,,72,0
8924,note_on,,44,0,11,,,,,,,,,,,,,,,,10,,75,0
8925,note_on,,1,0,12,,,,,,,,,,,,,,,,11,,72,72
8925,note_on,,1,0,11,,,,,,,,,,,,,,,,10,,75,72
8925,note_on,,1,0,13,,,,,,,,,,,,,,,,12,,63,72
8939,note_on,,14,0,11,,,,,,,,,,,,,,,,10,,75,0
8939,note_on,,14,0,13,,,,,,,,,,,,,,,,12,,63,0
8939,note_on,,14,0,12,,,,,,,,,,,,,,,,11,,72,0
8940,note_on,,1,0,13,,,,,,,,,,,,,,,,12,,63,72
8940,note_on,,1,0,12,,,,,,,,,,,,,,,,11,,72,72
8940,note_on,,1,0,11,,,,,,,,,,,,,,,,10,,75,72
8984,note_on,,44,0,12,,,,,,,,,,,,,,,,11,,72,0
8984,note_on,,44,0,11,,,,,,,,,,,,,,,,10,,75,0
8984,note_on,,44,0,13,,,,,,,,,,,,,,,,12,,63,0
8985,note_on,,1,0,11,,,,,,,,,,,,,,,,10,,75,72
8985,note_on,,1,0,12,,,,,,,,,,,,,,,,11,,72,72
8985,note_on,,1,0,13,,,,,,,,,,,,,,,,12,,63,72
8999,note_on,,119,0,6,,,,,,,,,,,,,,,,2,,44,0
8999,note_on,,14,0,11,,,,,,,,,,,,,,,,10,,75,0
8999,note_on,,0,0,15,,,,,,,,,,,,,,,,15,,56,0
8999,note_on,,14,0,13,,,,,,,,,,,,,,,,12,,63,0
8999,note_on,,0,0,15,,,,,,,,,,,,,,,,15,,68,0
8999,note_on,,0,0,15,,,,,,,,,,,,,,,,15,,72,0
8999,note_on,,119,0,15,,,,,,,,,,,,,,,,15,,44,0
8999,note_on,,14,0,12,,,,,,,,,,,,,,,,11,,72,0
8999,note_on,,119,0,14,,,,,,,,,,,,,,,,13,,44,0
8999,note_on,,0,0,15,,,,,,,,,,,,,,,,15,,63,0
9000,note_on,,121,0,7,,,,,,,,,,,,,,,,5,,72,72
9000,note_on,,1,0,13,,,,,,,,,,,,,,,,12,,63,72
9000,note_on,,1,0,6,,,,,,,,,,,,,,,,2,,56,72
9000,note_on,,1,0,15,,,,,,,,,,,,,,,,15,,56,72
9000,note_on,,1,0,11,,,,,,,,,,,,,,,,10,,80,72
9000,note_on,,1,0,12,,,,,,,,,,,,,,,,11,,72,72
9000,note_on,,0,0,15,,,,,,,,,,,,,,,,15,,72,72
9000,note_on,,0,0,15,,,,,,,,,,,,,,,,15,,68,72
9000,note_on,,1,0,14,,,,,,,,,,,,,,,,13,,56,72
9000,note_on,,0,0,15,,,,,,,,,,,,,,,,15,,63,72
9000,note_on,,121,0,9,,,,,,,,,,,,,,,,7,,56,72
9000,note_on,,121,0,5,,,,,,,,,,,,,,,,1,,72,72
9044,note_on,,44,0,11,,,,,,,,,,,,,,,,10,,80,0
9044,note_on,,44,0,12,,,,,,,,,,,,,,,,11,,72,0
9044,note_on,,44,0,13,,,,,,,,,,,,,,,,12,,63,0
9045,note_on,,1,0,11,,,,,,,,,,,,,,,,10,,80,72
9045,note_on,,1,0,13,,,,,,,,,,,,,,,,12,,63,72
9045,note_on,,1,0,12,,,,,,,,,,,,,,,,11,,72,72
9059,note_on,,59,0,5,,,,,,,,,,,,,,,,1,,72,0
9059,note_on,,14,0,12,,,,,,,,,,,,,,,,11,,72,0
9059,note_on,,14,0,11,,,,,,,,,,,,,,,,10,,80,0
9059,note_on,,0,0,15,,,,,,,,,,,,,,,,15,,63,0
9059,note_on,,59,0,15,,,,,,,,,,,,,,,,15,,56,0
9059,note_on,,59,0,14,,,,,,,,,,,,,,,,13,,56,0
9059,note_on,,0,0,15,,,,,,,,,,,,,,,,15,,68,0
9059,note_on,,59,0,7,,,,,,,,,,,,,,,,5,,72,0
9059,note_on,,14,0,13,,,,,,,,,,,,,,,,12,,63,0
9059,note_on,,59,0,6,,,,,,,,,,,,,,,,2,,56,0
9059,note_on,,0,0,15,,,,,,,,,,,,,,,,15,,72,0
9059,note_on,,59,0,9,,,,,,,,,,,,,,,,7,,56,0
9060,note_on,,1,0,15,,,,,,,,,,,,,,,,15,,60,72
9060,note_on,,0,0,15,,,,,,,,,,,,,,,,15,,75,72
9060,note_on,,0,0,15,,,,,,,,,,,,,,,,15,,68,72
9060,note_on,,1,0,14,,,,,,,,,,,,,,,,13,,60,72
9060,note_on,,1,0,5,,,,,,,,,,,,,,,,1,,75,72
9060,note_on,,1,0,13,,,,,,,,,,,,,,,,12,,63,72
9060,note_on,,1,0,9,,,,,,,,,,,,,,,,7,,60,72
9060,note_on,,1,0,6,,,,,,,,,,,,,,,,2,,60,72
9060,note_on,,1,0,11,,,,,,,,,,,,,,,,10,,80,72
9060,note_on,,0,0,15,,,,,,,,,,,,,,,,15,,63,72
9060,note_on,,1,0,7,,,,,,,,,,,,,,,,5,,75,72
9060,note_on,,1,0,12,,,,,,,,,,,,,,,,11,,72,72
9104,note_on,,44,0,11,,,,,,,,,,,,,,,,10,,80,0
9104,note_on,,44,0,13,,,,,,,,,,,,,,,,12,,63,0
9104,note_on,,44,0,12,,,,,,,,,,,,,,,,11,,72,0
9105,note_on,,1,0,12,,,,,,,,,,,,,,,,11,,72,72
9105,note_on,,1,0,13,,,,,,,,,,,,,,,,12,,63,72
9105,note_on,,1,0,11,,,,,,,,,,,,,,,,10,,80,72
9119,note_on,,14,0,13,,,,,,,,,,,,,,,,12,,63,0
9119,note_on,,14,0,12,,,,,,,,,,,,,,,,11,,72,0
9119,note_on,,59,0,5,,,,,,,,,,,,,,,,1,,75,0
9119,note_on,,59,0,9,,,,,,,,,,,,,,,,7,,60,0
9119,note_on,,14,0,11,,,,,,,,,,,,,,,,10,,80,0
9119,note_on,,59,0,15,,,,,,,,,,,,,,,,15,,60,0
9119,note_on,,0,0,15,,,,,,,,,,,,,,,,15,,75,0
9119,note_on,,0,0,15,,,,,,,,,,,,,,,,15,,68,0
9119,note_on,,0,0,15,,,,,,,,,,,,,,,,15,,63,0
9119,note_on,,59,0,7,,,,,,,,,,,,,,,,5,,75,0
9119,note_on,,59,0,6,,,,,,,,,,,,,,,,2,,60,0
9119,note_on,,59,0,14,,,,,,,,,,,,,,,,13,,60,0
9120,note_on,,1,0,9,,,,,,,,,,,,,,,,7,,63,72
9120,note_on,,1,0,12,,,,,,,,,,,,,,,,11,,70,72
9120,note_on,,1,0,7,,,,,,,,,,,,,,,,5,,70,72
9120,note_on,,1,0,5,,,,,,,,,,,,,,,,1,,70,72
9120,note_on,,1,0,13,,,,,,,,,,,,,,,,12,,63,72
9120,note_on,,1,0,14,,,,,,,,,,,,,,,,13,,63,72
9120,note_on,,1,0,11,,,,,,,,,,,,,,,,10,,80,72
9120,note_on,,0,0,15,,,,,,,,,,,,,,,,15,,68,72
9120,note_on,,1,0,6,,,,,,,,,,,,,,,,2,,63,72
9120,note_on,,1,0,15,,,,,,,,,,,,,,,,15,,63,72
9120,note_on,,0,0,15,,,,,,,,,,,,,,,,15,,70,72
9164,note_on,,44,0,12,,,,,,,,,,,,,,,,11,,70,0
9164,note_on,,44,0,11,,,,,,,,,,,,,,,,10,,80,0
9164,note_on,,44,0,13,,,,,,,,,,,,,,,,12,,63,0
9165,note_on,,1,0,12,,,,,,,,,,,,,,,,11,,70,72
9165,note_on,,1,0,13,,,,,,,,,,,,,,,,12,,63,72
9165,note_on,,1,0,11,,,,,,,,,,,,,,,,10,,80,72
9179,note_on,,14,0,12,,,,,,,,,,,,,,,,11,,70,0
9179,note_on,,14,0,13,,,,,,,,,,,,,,,,12,,63,0
9179,note_on,,14,0,11,,,,,,,,,,,,,,,,10,,80,0
9180,note_on,,1,0,12,,,,,,,,,,,,,,,,11,,70,72
9180,note_on,,1,0,13,,,,,,,,,,,,,,,,12,,63,72
9180,note_on,,1,0,11,,,,,,,,,,,,,,,,10,,80,72
9224,note_on,,44,0,11,,,,,,,,,,,,,,,,10,,80,0
9224,note_on,,44,0,13,,,,,,,,,,,,,,,,12,,63,0
9224,note_on,,44,0,12,,,,,,,,,,,,,,,,11,,70,0
9225,note_on,,1,0,13,,,,,,,,,,,,,,,,12,,63,72
9225,note_on,,1,0,12,,,,,,,,,,,,,,,,11,,70,72
9225,note_on,,1,0,11,,,,,,,,,,,,,,,,10,,80,72
9239,note_on,,119,0,14,,,,,,,,,,,,,,,,13,,63,0
9239,note_on,,14,0,11,,,,,,,,,,,,,,,,10,,80,0
9239,note_on,,14,0,12,,,,,,,,,,,,,,,,11,,70,0
9239,note_on,,0,0,15,,,,,,,,,,,,,,,,15,,68,0
9239,note_on,,0,0,15,,,,,,,,,,,,,,,,15,,70,0
9239,note_on,,14,0,13,,,,,,,,,,,,,,,,12,,63,0
9239,note_on,,119,0,15,,,,,,,,,,,,,,,,15,,63,0
9239,note_on,,119,0,6,,,,,,,,,,,,,,,,2,,63,0
9239,note_on,,119,0,5,,,,,,,,,,,,,,,,1,,70,0
9239,note_on,,119,0,9,,,,,,,,,,,,,,,,7,,63,0
9239,note_on,,119,0,7,,,,,,,,,,,,,,,,5,,70,0
9240,note_on,,1,0,5,,,,,,,,,,,,,,,,1,,70,72
9240,note_on,,1,0,15,,,,,,,,,,,,,,,,15,,51,72
9240,note_on,,1,0,6,,,,,,,,,,,,,,,,2,,51,72
9240,note_on,,361,0,8,,,,,,,,,,,,,,,,6,,67,72
9240,note_on,,0,0,15,,,,,,,,,,,,,,,,15,,58,72
9240,note_on,,1,0,14,,,,,,,,,,,,,,,,13,,51,72
9240,note_on,,1,0,13,,,,,,,,,,,,,,,,12,,70,72
9240,note_on,,361,0,10,,,,,,,,,,,,,,,,8,,51,72
9240,note_on,,1,0,11,,,,,,,,,,,,,,,,10,,79,72
9240,note_on,,1,0,12,,,,,,,,,,,,,,,,11,,75,72
9240,note_on,,1,0,7,,,,,,,,,,,,,,,,5,,70,72
9240,note_on,,0,0,15,,,,,,,,,,,,,,,,15,,70,72
9240,note_on,,1,0,9,,,,,,,,,,,,,,,,7,,63,72
9240,note_on,,0,0,15,,,,,,,,,,,,,,,,15,,63,72
9240,note_on,,0,0,15,,,,,,,,,,,,,,,,15,,67,72
9284,note_on,,44,0,13,,,,,,,,,,,,,,,,12,,70,0
9284,note_on,,44,0,11,,,,,,,,,,,,,,,,10,,79,0
9284,note_on,,44,0,12,,,,,,,,,,,,,,,,11,,75,0
9285,note_on,,1,0,13,,,,,,,,,,,,,,,,12,,70,72
9285,note_on,,1,0,11,,,,,,,,,,,,,,,,10,,79,72
9285,note_on,,1,0,12,,,,,,,,,,,,,,,,11,,75,72
9299,note_on,,0,0,15,,,,,,,,,,,,,,,,15,,58,0
9299,note_on,,59,0,14,,,,,,,,,,,,,,,,13,,51,0
9299,note_on,,14,0,13,,,,,,,,,,,,,,,,12,,70,0
9299,note_on,,59,0,10,,,,,,,,,,,,,,,,8,,51,0
9299,note_on,,14,0,11,,,,,,,,,,,,,,,,10,,79,0
9299,note_on,,59,0,15,,,,,,,,,,,,,,,,15,,51,0
9299,note_on,,59,0,8,,,,,,,,,,,,,,,,6,,67,0
9299,note_on,,0,0,15,,,,,,,,,,,,,,,,15,,70,0
9299,note_on,,0,0,15,,,,,,,,,,,,,,,,15,,67,0
9299,note_on,,14,0,12,,,,,,,,,,,,,,,,11,,75,0
9299,note_on,,0,0,15,,,,,,,,,,,,,,,,15,,63,0
9299,note_on,,59,0,6,,,,,,,,,,,,,,,,2,,51,0
9300,note_on,,0,0,15,,,,,,,,,,,,,,,,15,,70,72
9300,note_on,,1,0,13,,,,,,,,,,,,,,,,12,,70,72
9300,note_on,,1,0,14,,,,,,,,,,,,,,,,13,,55,72
9300,note_on,,1,0,15,,,,,,,,,,,,,,,,15,,55,72
9300,note_on,,1,0,10,,,,,,,,,,,,,,,,8,,55,72
9300,note_on,,1,0,6,,,,,,,,,,,,,,,,2,,55,72
9300,note_on,,1,0,12,,,,,,,,,,,,,,,,11,,75,72
9300,note_on,,0,0,15,,,,,,,,,,,,,,,,15,,63,72
9300,note_on,,0,0,15,,,,,,,,,,,,,,,,15,,58,72
9300,note_on,,1,0,11,,,,,,,,,,,,,,,,10,,79,72
9300,note_on,,0,0,15,,,,,,,,,,,,,,,,15,,75,72
9300,note_on,,1,0,8,,,,,,,,,,,,,,,,6,,70,72
9344,note_on,,44,0,13,,,,,,,,,,,,,,,,12,,70,0
9344,note_on,,44,0,11,,,,,,,,,,,,,,,,10,,79,0
9344,note_on,,44,0,12,,,,,,,,,,,,,,,,11,,75,0
9345,note_on,,1,0,11,,,,,,,,,,,,,,,,10,,79,72
9345,note_on,,1,0,12,,,,,,,,,,,,,,,,11,,75,72
9345,note_on,,1,0,13,,,,,,,,,,,,,,,,12,,70,72
9359,note_on,,14,0,13,,,,,,,,,,,,,,,,12,,70,0
9359,note_on,,59,0,8,,,,,,,,,,,,,,,,6,,70,0
9359,note_on,,119,0,9,,,,,,,,,,,,,,,,7,,63,0
9359,note_on,,119,0,5,,,,,,,,,,,,,,,,1,,70,0
9359,note_on,,119,0,7,,,,,,,,,,,,,,,,5,,70,0
9359,note_on,,14,0,11,,,,,,,,,,,,,,,,10,,79,0
9359,note_on,,59,0,10,,,,,,,,,,,,,,,,8,,55,0
9359,note_on,,59,0,15,,,,,,,,,,,,,,,,15,,55,0
9359,note_on,,0,0,15,,,,,,,,,,,,,,,,15,,63,0
9359,note_on,,0,0,15,,,,,,,,,,,,,,,,15,,70,0
9359,note_on,,0,0,15,,,,,,,,,,,,,,,,15,,75,0
9359,note_on,,59,0,6,,,,,,,,,,,,,,,,2,,55,0
9359,note_on,,0,0,15,,,,,,,,,,,,,,,,15,,58,0
9359,note_on,,59,0,14,,,,,,,,,,,,,,,,13,,55,0
9359,note_on,,14,0,12,,,,,,,,,,,,,,,,11,,75,0
9360,note_on,,0,0,15,,,,,,,,,,,,,,,,15,,75,72
9360,note_on,,0,0,15,,,,,,,,,,,,,,,,15,,65,72
9360,note_on,,1,0,6,,,,,,,,,,,,,,,,2,,58,72
9360,note_on,,1,0,14,,,,,,,,,,,,,,,,13,,58,72
9360,note_on,,1,0,11,,,,,,,,,,,,,,,,10,,77,72
9360,note_on,,0,0,15,,,,,,,,,,,,,,,,15,,70,72
9360,note_on,,1,0,15,,,,,,,,,,,,,,,,15,,58,72
9360,note_on,,1,0,10,,,,,,,,,,,,,,,,8,,58,72
9360,note_on,,1,0,12,,,,,,,,,,,,,,,,11,,75,72
9360,note_on,,1,0,13,,,,,,,,,,,,,,,,12,,70,72
9360,note_on,,1,0,8,,,,,,,,,,,,,,,,6,,65,72
9404,note_on,,44,0,12,,,,,,,,,,,,,,,,11,,75,0
9404,note_on,,44,0,13,,,,,,,,,,,,,,,,12,,70,0
9404,note_on,,44,0,11,,,,,,,,,,,,,,,,10,,77,0
9405,note_on,,1,0,13,,,,,,,,,,,,,,,,12,,70,72
9405,note_on,,1,0,11,,,,,,,,,,,,,,,,10,,77,72
9405,note_on,,1,0,12,,,,,,,,,,,,,,,,11,,75,72
9419,note_on,,14,0,13,,,,,,,,,,,,,,,,12,,70,0
9419,note_on,,14,0,12,,,,,,,,,,,,,,,,11,,75,0
9419,note_on,,14,0,11,,,,,,,,,,,,,,,,10,,77,0
9420,note_on,,1,0,12,,,,,,,,,,,,,,,,11,,75,72
9420,note_on,,1,0,13,,,,,,,,,,,,,,,,12,,70,72
9420,note_on,,1,0,11,,,,,,,,,,,,,,,,10,,77,72
9464,note_on,,44,0,12,,,,,,,,,,,,,,,,11,,75,0
9464,note_on,,44,0,13,,,,,,,,,,,,,,,,12,,70,0
9464,note_on,,44,0,11,,,,,,,,,,,,,,,,10,,77,0
9465,note_on,,1,0,13,,,,,,,,,,,,,,,,12,,70,72
9465,note_on,,1,0,12,,,,,,,,,,,,,,,,11,,75,72
9465,note_on,,1,0,11,,,,,,,,,,,,,,,,10,,77,72
9479,note_on,,0,0,15,,,,,,,,,,,,,,,,15,,65,0
9479,note_on,,0,0,15,,,,,,,,,,,,,,,,15,,70,0
9479,note_on,,0,0,15,,,,,,,,,,,,,,,,15,,75,0
9479,note_on,,119,0,15,,,,,,,,,,,,,,,,15,,58,0
9479,note_on,,119,0,14,,,,,,,,,,,,,,,,13,,58,0
9479,note_on,,14,0,13,,,,,,,,,,,,,,,,12,,70,0
9479,note_on,,119,0,10,,,,,,,,,,,,,,,,8,,58,0
9479,note_on,,14,0,11,,,,,,,,,,,,,,,,10,,77,0
9479,note_on,,14,0,12,,,,,,,,,,,,,,,,11,,75,0
9479,note_on,,119,0,6,,,,,,,,,,,,,,,,2,,58,0
9479,note_on,,119,0,8,,,,,,,,,,,,,,,,6,,65,0
9480,note_on,,121,0,5,,,,,,,,,,,,,,,,1,,73,72
9480,note_on,,1,0,14,,,,,,,,,,,,,,,,13,,46,72
9480,note_on,,1,0,13,,,,,,,,,,,,,,,,12,,65,72
9480,note_on,,121,0,7,,,,,,,,,,,,,,,,5,,73,72
9480,note_on,,1,0,6,,,,,,,,,,,,,,,,2,,46,72
9480,note_on,,1,0,12,,,,,,,,,,,,,,,,11,,73,72
9480,note_on,,1,0,15,,,,,,,,,,,,,,,,15,,70,72
9480,note_on,,0,0,15,,,,,,,,,,,,,,,,15,,73,72
9480,note_on,,0,0,15,,,,,,,,,,,,,,,,15,,65,72
9480,note_on,,0,0,15,,,,,,,,,,,,,,,,15,,58,72
9480,note_on,,0,0,15,,,,,,,,,,,,,,,,15,,46,72
9480,note_on,,1,0,11,,,,,,,,,,,,,,,,10,,82,72
9480,note_on,,1,0,10,,,,,,,,,,,,,,,,8,,46,72
9480,note_on,,1,0,8,,,,,,,,,,,,,,,,6,,65,72
9480,note_on,,121,0,9,,,,,,,,,,,,,,,,7,,58,72
9524,note_on,,44,0,13,,,,,,,,,,,,,,,,12,,65,0
9524,note_on,,44,0,11,,,,,,,,,,,,,,,,10,,82,0
9524,note_on,,44,0,12,,,,,,,,,,,,,,,,11,,73,0
9525,note_on,,1,0,11,,,,,,,,,,,,,,,,10,,82,72
9525,note_on,,1,0,13,,,,,,,,,,,,,,,,12,,65,72
9525,note_on,,1,0,12,,,,,,,,,,,,,,,,11,,73,72
9539,note_on,,14,0,11,,,,,,,,,,,,,,,,10,,82,0
9539,note_on,,59,0,5,,,,,,,,,,,,,,,,1,,73,0
9539,note_on,,59,0,14,,,,,,,,,,,,,,,,13,,46,0
9539,note_on,,59,0,6,,,,,,,,,,,,,,,,2,,46,0
9539,note_on,,59,0,9,,,,,,,,,,,,,,,,7,,58,0
9539,note_on,,59,0,7,,,,,,,,,,,,,,,,5,,73,0
9539,note_on,,14,0,13,,,,,,,,,,,,,,,,12,,65,0
9539,note_on,,0,0,15,,,,,,,,,,,,,,,,15,,58,0
9539,note_on,,14,0,12,,,,,,,,,,,,,,,,11,,73,0
9539,note_on,,59,0,15,,,,,,,,,,,,,,,,15,,70,0
9539,note_on,,0,0,15,,,,,,,,,,,,,,,,15,,46,0
9539,note_on,,0,0,15,,,,,,,,,,,,,,,,15,,73,0
9539,note_on,,0,0,15,,,,,,,,,,,,,,,,15,,65,0
9540,note_on,,1,0,5,,,,,,,,,,,,,,,,1,,77,72
9540,note_on,,0,0,15,,,,,,,,,,,,,,,,15,,70,72
9540,note_on,,0,0,15,,,,,,,,,,,,,,,,15,,58,72
9540,note_on,,1,0,11,,,,,,,,,,,,,,,,10,,82,72
9540,note_on,,0,0,15,,,,,,,,,,,,,,,,15,,65,72
9540,note_on,,1,0,15,,,,,,,,,,,,,,,,15,,49,72
9540,note_on,,1,0,14,,,,,,,,,,,,,,,,13,,49,72
9540,note_on,,1,0,9,,,,,,,,,,,,,,,,7,,61,72
9540,note_on,,1,0,7,,,,,,,,,,,,,,,,5,,77,72
9540,note_on,,1,0,6,,,,,,,,,,,,,,,,2,,49,72
9540,note_on,,1,0,12,,,,,,,,,,,,,,,,11,,73,72
9540,note_on,,1,0,13,,,,,,,,,,,,,,,,12,,65,72
9584,note_on,,44,0,11,,,,,,,,,,,,,,,,10,,82,0
9584,note_on,,44,0,12,,,,,,,,,,,,,,,,11,,73,0
9584,note_on,,44,0,13,,,,,,,,,,,,,,,,12,,65,0
9585,note_on,,1,0,13,,,,,,,,,,,,,,,,12,,65,72
9585,note_on,,1,0,11,,,,,,,,,,,,,,,,10,,82,72
9585,note_on,,1,0,12,,,,,,,,,,,,,,,,11,,73,72
9599,note_on,,59,0,6,,,,,,,,,,,,,,,,2,,49,0
9599,note_on,,14,0,11,,,,,,,,,,,,,,,,10,,82,0
9599,note_on,,0,0,15,,,,,,,,,,,,,,,,15,,65,0
9599,note_on,,119,0,10,,,,,,,,,,,,,,,,8,,46,0
9599,note_on,,59,0,9,,,,,,,,,,,,,,,,7,,61,0
9599,note_on,,59,0,14,,,,,,,,,,,,,,,,13,,49,0
9599,note_on,,0,0,15,,,,,,,,,,,,,,,,15,,58,0
9599,note_on,,59,0,7,,,,,,,,,,,,,,,,5,,77,0
9599,note_on,,14,0,13,,,,,,,,,,,,,,,,12,,65,0
9599,note_on,,119,0,8,,,,,,,,,,,,,,,,6,,65,0
9599,note_on,,0,0,15,,,,,,,,,,,,,,,,15,,70,0
9599,note_on,,59,0,15,,,,,,,,,,,,,,,,15,,49,0
9599,note_on,,59,0,5,,,,,,,,,,,,,,,,1,,77,0
9599,note_on,,14,0,12,,,,,,,,,,,,,,,,11,,73,0
9600,note_on,,1,0,9,,,,,,,,,,,,,,,,7,,65,72
9600,note_on,,1,0,7,,,,,,,,,,,,,,,,5,,72,72
9600,note_on,,1,0,11,,,,,,,,,,,,,,,,10,,82,72
9600,note_on,,1,0,13,,,,,,,,,,,,,,,,12,,65,72
9600,note_on,,1,0,12,,,,,,,,,,,,,,,,11,,72,72
9600,note_on,,1,0,15,,,,,,,,,,,,,,,,15,,53,72
9600,note_on,,1,0,5,,,,,,,,,,,,,,,,1,,72,72
9600,note_on,,1,0,14,,,,,,,,,,,,,,,,13,,53,72
9600,note_on,,0,0,15,,,,,,,,,,,,,,,,15,,60,72
9600,note_on,,0,0,15,,,,,,,,,,,,,,,,15,,72,72
9600,note_on,,1,0,6,,,,,,,,,,,,,,,,2,,53,72
9600,note_on,,0,0,15,,,,,,,,,,,,,,,,15,,65,72
9600,note_on,,0,0,15,,,,,,,,,,,,,,,,15,,70,72
9644,note_on,,44,0,11,,,,,,,,,,,,,,,,10,,82,0
9644,note_on,,44,0,13,,,,,,,,,,,,,,,,12,,65,0
9644,note_on,,44,0,12,,,,,,,,,,,,,,,,11,,72,0
9645,note_on,,1,0,11,,,,,,,,,,,,,,,,10,,82,72
9645,note_on,,1,0,13,,,,,,,,,,,,,,,,12,,65,72
9645,note_on,,1,0,12,,,,,,,,,,,,,,,,11,,72,72
9659,note_on,,14,0,12,,,,,,,,,,,,,,,,11,,72,0
9659,note_on,,14,0,11,,,,,,,,,,,,,,,,10,,82,0
9659,note_on,,14,0,13,,,,,,,,,,,,,,,,12,,65,0
9660,note_on,,1,0,13,,,,,,,,,,,,,,,,12,,65,72
9660,note_on,,1,0,11,,,,,,,,,,,,,,,,10,,82,72
9660,note_on,,1,0,12,,,,,,,,,,,,,,,,11,,72,72
9704,note_on,,44,0,13,,,,,,,,,,,,,,,,12,,65,0
9704,note_on,,44,0,11,,,,,,,,,,,,,,,,10,,82,0
9704,note_on,,44,0,12,,,,,,,,,,,,,,,,11,,72,0
9705,note_on,,1,0,13,,,,,,,,,,,,,,,,12,,65,72
9705,note_on,,1,0,12,,,,,,,,,,,,,,,,11,,72,72
9705,note_on,,1,0,11,,,,,,,,,,,,,,,,10,,82,72
9719,note_on,,0,0,15,,,,,,,,,,,,,,,,15,,65,0
9719,note_on,,14,0,13,,,,,,,,,,,,,,,,12,,65,0
9719,note_on,,14,0,11,,,,,,,,,,,,,,,,10,,82,0
9719,note_on,,119,0,15,,,,,,,,,,,,,,,,15,,53,0
9719,note_on,,0,0,15,,,,,,,,,,,,,,,,15,,60,0
9719,note_on,,0,0,15,,,,,,,,,,,,,,,,15,,70,0
9719,note_on,,0,0,15,,,,,,,,,,,,,,,,15,,72,0
9719,note_on,,14,0,12,,,,,,,,,,,,,,,,11,,72,0
9719,note_on,,119,0,14,,,,,,,,,,,,,,,,13,,53,0
9719,note_on,,119,0,6,,,,,,,,,,,,,,,,2,,53,0
9719,note_on,,119,0,5,,,,,,,,,,,,,,,,1,,72,0
9719,note_on,,119,0,7,,,,,,,,,,,,,,,,5,,72,0
9720,note_on,,1,0,6,,,,,,,,,,,,,,,,2,,53,72
9720,note_on,,1,0,13,,,,,,,,,,,,,,,,12,,72,72
9720,note_on,,121,0,10,,,,,,,,,,,,,,,,8,,53,72
9720,note_on,,0,0,15,,,,,,,,,,,,,,,,15,,65,72
9720,note_on,,0,0,15,,,,,,,,,,,,,,,,15,,68,72
9720,note_on,,121,0,8,,,,,,,,,,,,,,,,6,,68,72
9720,note_on,,0,0,15,,,,,,,,,,,,,,,,15,,72,72
9720,note_on,,1,0,15,,,,,,,,,,,,,,,,15,,53,72
9720,note_on,,0,0,15,,,,,,,,,,,,,,,,15,,60,72
9720,note_on,,1,0,5,,,,,,,,,,,,,,,,1,,72,72
9720,note_on,,1,0,12,,,,,,,,,,,,,,,,11,,77,72
9720,note_on,,1,0,14,,,,,,,,,,,,,,,,13,,53,72
9720,note_on,,1,0,11,,,,,,,,,,,,,,,,10,,80,72
9720,note_on,,1,0,7,,,,,,,,,,,,,,,,5,,72,72
9764,note_on,,44,0,13,,,,,,,,,,,,,,,,12,,72,0
9764,note_on,,44,0,11,,,,,,,,,,,,,,,,10,,80,0
9764,note_on,,44,0,12,,,,,,,,,,,,,,,,11,,77,0
9765,note_on,,1,0,12,,,,,,,,,,,,,,,,11,,77,72
9765,note_on,,1,0,13,,,,,,,,,,,,,,,,12,,72,72
9765,note_on,,1,0,11,,,,,,,,,,,,,,,,10,,80,72
9779,note_on,,0,0,15,,,,,,,,,,,,,,,,15,,72,0
9779,note_on,,59,0,15,,,,,,,,,,,,,,,,15,,53,0
9779,note_on,,59,0,6,,,,,,,,,,,,,,,,2,,53,0
9779,note_on,,0,0,15,,,,,,,,,,,,,,,,15,,65,0
9779,note_on,,0,0,15,,,,,,,,,,,,,,,,15,,68,0
9779,note_on,,0,0,15,,,,,,,,,,,,,,,,15,,60,0
9779,note_on,,59,0,10,,,,,,,,,,,,,,,,8,,53,0
9779,note_on,,14,0,12,,,,,,,,,,,,,,,,11,,77,0
9779,note_on,,14,0,13,,,,,,,,,,,,,,,,12,,72,0
9779,note_on,,14,0,11,,,,,,,,,,,,,,,,10,,80,0
9779,note_on,,59,0,14,,,,,,,,,,,,,,,,13,,53,0
9779,note_on,,59,0,8,,,,,,,,,,,,,,,,6,,68,0
9780,note_on,,1,0,8,,,,,,,,,,,,,,,,6,,68,72
9780,note_on,,1,0,14,,,,,,,,,,,,,,,,13,,56,72
9780,note_on,,0,0,15,,,,,,,,,,,,,,,,15,,65,72
9780,note_on,,0,0,15,,,,,,,,,,,,,,,,15,,72,72
9780,note_on,,0,0,15,,,,,,,,,,,,,,,,15,,77,72
9780,note_on,,1,0,15,,,,,,,,,,,,,,,,15,,56,72
9780,note_on,,1,0,11,,,,,,,,,,,,,,,,10,,80,72
9780,note_on,,1,0,6,,,,,,,,,,,,,,,,2,,56,72
9780,note_on,,1,0,12,,,,,,,,,,,,,,,,11,,77,72
9780,note_on,,1,0,10,,,,,,,,,,,,,,,,8,,56,72
9780,note_on,,1,0,13,,,,,,,,,,,,,,,,12,,72,72
9780,note_on,,0,0,15,,,,,,,,,,,,,,,,15,,60,72
9824,note_on,,44,0,13,,,,,,,,,,,,,,,,12,,72,0
9824,note_on,,44,0,11,,,,,,,,,,,,,,,,10,,80,0
9824,note_on,,44,0,12,,,,,,,,,,,,,,,,11,,77,0
9825,note_on,,1,0,13,,,,,,,,,,,,,,,,12,,72,72
9825,note_on,,1,0,12,,,,,,,,,,,,,,,,11,,77,72
9825,note_on,,1,0,11,,,,,,,,,,,,,,,,10,,80,72
9839,note_on,,14,0,11,,,,,,,,,,,,,,,,10,,80,0
9839,note_on,,0,0,15,,,,,,,,,,,,,,,,15,,77,0
9839,note_on,,14,0,12,,,,,,,,,,,,,,,,11,,77,0
9839,note_on,,14,0,13,,,,,,,,,,,,,,,,12,,72,0
9839,note_on,,0,0,15,,,,,,,,,,,,,,,,15,,72,0
9839,note_on,,59,0,10,,,,,,,,,,,,,,,,8,,56,0
9839,note_on,,59,0,15,,,,,,,,,,,,,,,,15,,56,0
9839,note_on,,0,0,15,,,,,,,,,,,,,,,,15,,60,0
9839,note_on,,119,0,7,,,,,,,,,,,,,,,,5,,72,0
9839,note_on,,59,0,8,,,,,,,,,,,,,,,,6,,68,0
9839,note_on,,0,0,15,,,,,,,,,,,,,,,,15,,65,0
9839,note_on,,59,0,14,,,,,,,,,,,,,,,,13,,56,0
9839,note_on,,119,0,5,,,,,,,,,,,,,,,,1,,72,0
9839,note_on,,59,0,6,,,,,,,,,,,,,,,,2,,56,0
9840,note_on,,1,0,11,,,,,,,,,,,,,,,,10,,79,72
9840,note_on,,1,0,8,,,,,,,,,,,,,,,,6,,67,72
9840,note_on,,1,0,10,,,,,,,,,,,,,,,,8,,60,72
9840,note_on,,1,0,15,,,,,,,,,,,,,,,,15,,60,72
9840,note_on,,1,0,12,,,,,,,,,,,,,,,,11,,77,72
9840,note_on,,1,0,14,,,,,,,,,,,,,,,,13,,60,72
9840,note_on,,1,0,6,,,,,,,,,,,,,,,,2,,60,72
9840,note_on,,1,0,13,,,,,,,,,,,,,,,,12,,72,72
9840,note_on,,0,0,15,,,,,,,,,,,,,,,,15,,77,72
9840,note_on,,0,0,15,,,,,,,,,,,,,,,,15,,72,72
9840,note_on,,0,0,15,,,,,,,,,,,,,,,,15,,67,72
9884,note_on,,44,0,13,,,,,,,,,,,,,,,,12,,72,0
9884,note_on,,44,0,12,,,,,,,,,,,,,,,,11,,77,0
9884,note_on,,44,0,11,,,,,,,,,,,,,,,,10,,79,0
9885,note_on,,1,0,13,,,,,,,,,,,,,,,,12,,72,72
9885,note_on,,1,0,12,,,,,,,,,,,,,,,,11,,77,72
9885,note_on,,1,0,11,,,,,,,,,,,,,,,,10,,79,72
9899,note_on,,14,0,13,,,,,,,,,,,,,,,,12,,72,0
9899,note_on,,14,0,12,,,,,,,,,,,,,,,,11,,77,0
9899,note_on,,14,0,11,,,,,,,,,,,,,,,,10,,79,0
9900,note_on,,1,0,12,,,,,,,,,,,,,,,,11,,77,72
9900,note_on,,1,0,11,,,,,,,,,,,,,,,,10,,79,72
9900,note_on,,1,0,13,,,,,,,,,,,,,,,,12,,72,72
9944,note_on,,44,0,12,,,,,,,,,,,,,,,,11,,77,0
9944,note_on,,44,0,11,,,,,,,,,,,,,,,,10,,79,0
9944,note_on,,44,0,13,,,,,,,,,,,,,,,,12,,72,0
9945,note_on,,1,0,13,,,,,,,,,,,,,,,,12,,72,72
9945,note_on,,1,0,12,,,,,,,,,,,,,,,,11,,77,72
9945,note_on,,1,0,11,,,,,,,,,,,,,,,,10,,79,72
9959,note_on,,119,0,15,,,,,,,,,,,,,,,,15,,60,0
9959,note_on,,0,0,15,,,,,,,,,,,,,,,,15,,67,0
9959,note_on,,0,0,15,,,,,,,,,,,,,,,,15,,77,0
9959,note_on,,0,0,15,,,,,,,,,,,,,,,,15,,72,0
9959,note_on,,14,0,11,,,,,,,,,,,,,,,,10,,79,0
9959,note_on,,119,0,6,,,,,,,,,,,,,,,,2,,60,0
9959,note_on,,14,0,13,,,,,,,,,,,,,,,,12,,72,0
9959,note_on,,119,0,8,,,,,,,,,,,,,,,,6,,67,0
9959,note_on,,359,0,9,,,,,,,,,,,,,,,,7,,65,0
9959,note_on,,14,0,12,,,,,,,,,,,,,,,,11,,77,0
9959,note_on,,119,0,14,,,,,,,,,,,,,,,,13,,60,0
9959,note_on,,119,0,10,,,,,,,,,,,,,,,,8,,60,0
9960,note_on,,1,0,14,,,,,,,,,,,,,,,,13,,48,72
9960,note_on,,1,0,13,,,,,,,,,,,,,,,,12,,67,72
9960,note_on,,1,0,15,,,,,,,,,,,,,,,,15,,48,72
9960,note_on,,0,0,15,,,,,,,,,,,,,,,,15,,75,72
9960,note_on,,0,0,15,,,,,,,,,,,,,,,,15,,72,72
9960,note_on,,0,0,15,,,,,,,,,,,,,,,,15,,67,72
9960,note_on,,121,0,5,,,,,,,,,,,,,,,,1,,72,72
9960,note_on,,1,0,10,,,,,,,,,,,,,,,,8,,48,72
9960,note_on,,1,0,6,,,,,,,,,,,,,,,,2,,48,72
9960,note_on,,1,0,11,,,,,,,,,,,,,,,,10,,84,72
9960,note_on,,1,0,12,,,,,,,,,,,,,,,,11,,75,72
9960,note_on,,1,0,9,,,,,,,,,,,,,,,,7,,63,72
9960,note_on,,1,0,8,,,,,,,,,,,,,,,,6,,67,72
9960,note_on,,0,0,15,,,,,,,,,,,,,,,,15,,60,72
9960,note_on,,121,0,7,,,,,,,,,,,,,,,,5,,72,72
10004,note_on,,44,0,11,,,,,,,,,,,,,,,,10,,84,0
10004,note_on,,44,0,12,,,,,,,,,,,,,,,,11,,75,0
10004,note_on,,44,0,13,,,,,,,,,,,,,,,,12,,67,0
10005,note_on,,1,0,13,,,,,,,,,,,,,,,,12,,67,72
10005,note_on,,1,0,11,,,,,,,,,,,,,,,,10,,84,72
10005,note_on,,1,0,12,,,,,,,,,,,,,,,,11,,75,72
10019,note_on,,14,0,11,,,,,,,,,,,,,,,,10,,84,0
10019,note_on,,14,0,13,,,,,,,,,,,,,,,,12,,67,0
10019,note_on,,14,0,12,,,,,,,,,,,,,,,,11,,75,0
10020,note_on,,1,0,12,,,,,,,,,,,,,,,,11,,75,72
10020,note_on,,1,0,13,,,,,,,,,,,,,,,,12,,67,72
10020,note_on,,1,0,11,,,,,,,,,,,,,,,,10,,84,72
10064,note_on,,44,0,11,,,,,,,,,,,,,,,,10,,84,0
10064,note_on,,44,0,13,,,,,,,,,,,,,,,,12,,67,0
10064,note_on,,44,0,12,,,,,,,,,,,,,,,,11,,75,0
10065,note_on,,1,0,11,,,,,,,,,,,,,,,,10,,84,72
10065,note_on,,1,0,13,,,,,,,,,,,,,,,,12,,67,72
10065,note_on,,1,0,12,,,,,,,,,,,,,,,,11,,75,72
10079,note_on,,119,0,14,,,,,,,,,,,,,,,,13,,48,0
10079,note_on,,119,0,9,,,,,,,,,,,,,,,,7,,63,0
10079,note_on,,119,0,8,,,,,,,,,,,,,,,,6,,67,0
10079,note_on,,14,0,13,,,,,,,,,,,,,,,,12,,67,0
10079,note_on,,119,0,6,,,,,,,,,,,,,,,,2,,48,0
10079,note_on,,14,0,12,,,,,,,,,,,,,,,,11,,75,0
10079,note_on,,119,0,10,,,,,,,,,,,,,,,,8,,48,0
10079,note_on,,0,0,15,,,,,,,,,,,,,,,,15,,67,0
10079,note_on,,0,0,15,,,,,,,,,,,,,,,,15,,72,0
10079,note_on,,0,0,15,,,,,,,,,,,,,,,,15,,75,0
10079,note_on,,119,0,15,,,,,,,,,,,,,,,,15,,48,0
10079,note_on,,14,0,11,,,,,,,,,,,,,,,,10,,84,0
10079,note_on,,0,0,15,,,,,,,,,,,,,,,,15,,60,0
10080,note_on,,1,0,10,,,,,,,,,,,,,,,,8,,53,72
10080,note_on,,1,0,6,,,,,,,,,,,,,,,,2,,53,72
10080,note_on,,0,0,15,,,,,,,,,,,,,,,,15,,72,72
10080,note_on,,1,0,8,,,,,,,,,,,,,,,,6,,68,72
10080,note_on,,0,0,15,,,,,,,,,,,,,,,,15,,56,72
10080,note_on,,0,0,15,,,,,,,,,,,,,,,,15,,68,72
10080,note_on,,0,0,15,,,,,,,,,,,,,,,,15,,73,72
10080,note_on,,1,0,15,,,,,,,,,,,,,,,,15,,53,72
10080,note_on,,1,0,9,,,,,,,,,,,,,,,,7,,61,72
10080,note_on,,1,0,12,,,,,,,,,,,,,,,,11,,73,72
10080,note_on,,1,0,11,,,,,,,,,,,,,,,,10,,84,72
10080,note_on,,1,0,14,,,,,,,,,,,,,,,,13,,53,72
10080,note_on,,1,0,13,,,,,,,,,,,,,,,,12,,68,72
10124,note_on,,44,0,12,,,,,,,,,,,,,,,,11,,73,0
10124,note_on,,44,0,13,,,,,,,,,,,,,,,,12,,68,0
10124,note_on,,44,0,11,,,,,,,,,,,,,,,,10,,84,0
10125,note_on,,1,0,13,,,,,,,,,,,,,,,,12,,68,72
10125,note_on,,1,0,12,,,,,,,,,,,,,,,,11,,73,72
10125,note_on,,1,0,11,,,,,,,,,,,,,,,,10,,84,72
10139,note_on,,14,0,13,,,,,,,,,,,,,,,,12,,68,0
10139,note_on,,14,0,12,,,,,,,,,,,,,,,,11,,73,0
10139,note_on,,14,0,11,,,,,,,,,,,,,,,,10,,84,0
10140,note_on,,1,0,11,,,,,,,,,,,,,,,,10,,84,72
10140,note_on,,1,0,12,,,,,,,,,,,,,,,,11,,73,72
10140,note_on,,1,0,13,,,,,,,,,,,,,,,,12,,68,72
10184,note_on,,44,0,12,,,,,,,,,,,,,,,,11,,73,0
10184,note_on,,44,0,11,,,,,,,,,,,,,,,,10,,84,0
10184,note_on,,44,0,13,,,,,,,,,,,,,,,,12,,68,0
10185,note_on,,1,0,12,,,,,,,,,,,,,,,,11,,73,72
10185,note_on,,1,0,11,,,,,,,,,,,,,,,,10,,84,72
10185,note_on,,1,0,13,,,,,,,,,,,,,,,,12,,68,72
10199,note_on,,119,0,6,,,,,,,,,,,,,,,,2,,53,0
10199,note_on,,14,0,12,,,,,,,,,,,,,,,,11,,73,0
10199,note_on,,14,0,11,,,,,,,,,,,,,,,,10,,84,0
10199,note_on,,119,0,10,,,,,,,,,,,,,,,,8,,53,0
10199,note_on,,0,0,15,,,,,,,,,,,,,,,,15,,56,0
10199,note_on,,14,0,13,,,,,,,,,,,,,,,,12,,68,0
10199,note_on,,119,0,8,,,,,,,,,,,,,,,,6,,68,0
10199,note_on,,119,0,14,,,,,,,,,,,,,,,,13,,53,0
10199,note_on,,119,0,15,,,,,,,,,,,,,,,,15,,53,0
10199,note_on,,239,0,5,,,,,,,,,,,,,,,,1,,72,0
10199,note_on,,0,0,15,,,,,,,,,,,,,,,,15,,72,0
10199,note_on,,0,0,15,,,,,,,,,,,,,,,,15,,68,0
10199,note_on,,239,0,7,,,,,,,,,,,,,,,,5,,72,0
10200,note_on,,1,0,8,,,,,,,,,,,,,,,,6,,63,72
10200,note_on,,1,0,6,,,,,,,,,,,,,,,,2,,55,72
10200,note_on,,1,0,5,,,,,,,,,,,,,,,,1,,70,72
10200,note_on,,1,0,12,,,,,,,,,,,,,,,,11,,73,72
10200,note_on,,1,0,7,,,,,,,,,,,,,,,,5,,70,72
10200,note_on,,1,0,11,,,,,,,,,,,,,,,,10,,82,72
10200,note_on,,1,0,14,,,,,,,,,,,,,,,,13,,55,72
10200,note_on,,1,0,13,,,,,,,,,,,,,,,,12,,63,72
10200,note_on,,1,0,15,,,,,,,,,,,,,,,,15,,55,72
10200,note_on,,0,0,15,,,,,,,,,,,,,,,,15,,58,72
10200,note_on,,0,0,15,,,,,,,,,,,,,,,,15,,70,72
10200,note_on,,0,0,15,,,,,,,,,,,,,,,,15,,63,72
10200,note_on,,1,0,10,,,,,,,,,,,,,,,,8,,55,72
10244,note_on,,44,0,13,,,,,,,,,,,,,,,,12,,63,0
10244,note_on,,44,0,11,,,,,,,,,,,,,,,,10,,82,0
10244,note_on,,44,0,12,,,,,,,,,,,,,,,,11,,73,0
10245,note_on,,1,0,11,,,,,,,,,,,,,,,,10,,82,72
10245,note_on,,1,0,13,,,,,,,,,,,,,,,,12,,63,72
10245,note_on,,1,0,12,,,,,,,,,,,,,,,,11,,73,72
10259,note_on,,14,0,13,,,,,,,,,,,,,,,,12,,63,0
10259,note_on,,179,0,9,,,,,,,,,,,,,,,,7,,61,0
10259,note_on,,14,0,11,,,,,,,,,,,,,,,,10,,82,0
10259,note_on,,14,0,12,,,,,,,,,,,,,,,,11,,73,0
10260,note_on,,1,0,11,,,,,,,,,,,,,,,,10,,82,72
10260,note_on,,1,0,9,,,,,,,,,,,,,,,,7,,61,72
10260,note_on,,1,0,13,,,,,,,,,,,,,,,,12,,63,72
10260,note_on,,1,0,12,,,,,,,,,,,,,,,,11,,73,72
10304,note_on,,44,0,13,,,,,,,,,,,,,,,,12,,63,0
10304,note_on,,44,0,12,,,,,,,,,,,,,,,,11,,73,0
10304,note_on,,44,0,11,,,,,,,,,,,,,,,,10,,82,0
10305,note_on,,1,0,11,,,,,,,,,,,,,,,,10,,82,72
10305,note_on,,1,0,12,,,,,,,,,,,,,,,,11,,73,72
10305,note_on,,1,0,13,,,,,,,,,,,,,,,,12,,63,72
10319,note_on,,119,0,7,,,,,,,,,,,,,,,,5,,70,0
10319,note_on,,0,0,15,,,,,,,,,,,,,,,,15,,70,0
10319,note_on,,0,0,15,,,,,,,,,,,,,,,,15,,63,0
10319,note_on,,119,0,5,,,,,,,,,,,,,,,,1,,70,0
10319,note_on,,119,0,14,,,,,,,,,,,,,,,,13,,55,0
10319,note_on,,119,0,6,,,,,,,,,,,,,,,,2,,55,0
10319,note_on,,0,0,15,,,,,,,,,,,,,,,,15,,58,0
10319,note_on,,14,0,12,,,,,,,,,,,,,,,,11,,73,0
10319,note_on,,0,0,15,,,,,,,,,,,,,,,,15,,55,0
10319,note_on,,59,0,9,,,,,,,,,,,,,,,,7,,61,0
10319,note_on,,119,0,15,,,,,,,,,,,,,,,,15,,73,0
10319,note_on,,14,0,13,,,,,,,,,,,,,,,,12,,63,0
10319,note_on,,14,0,11,,,,,,,,,,,,,,,,10,,82,0
10319,note_on,,119,0,10,,,,,,,,,,,,,,,,8,,55,0
10319,note_on,,119,0,8,,,,,,,,,,,,,,,,6,,63,0
10320,note_on,,1,0,11,,,,,,,,,,,,,,,,10,,82,72
10320,note_on,,1,0,15,,,,,,,,,,,,,,,,15,,56,72
10320,note_on,,0,0,15,,,,,,,,,,,,,,,,15,,63,72
10320,note_on,,0,0,15,,,,,,,,,,,,,,,,15,,70,72
10320,note_on,,1,0,9,,,,,,,,,,,,,,,,7,,60,72
10320,note_on,,1,0,7,,,,,,,,,,,,,,,,5,,70,72
10320,note_on,,0,0,15,,,,,,,,,,,,,,,,15,,72,72
10320,note_on,,1,0,14,,,,,,,,,,,,,,,,13,,56,72
10320,note_on,,1,0,10,,,,,,,,,,,,,,,,8,,56,72
10320,note_on,,1,0,12,,,,,,,,,,,,,,,,11,,72,72
10320,note_on,,1,0,13,,,,,,,,,,,,,,,,12,,63,72
10320,note_on,,1,0,6,,,,,,,,,,,,,,,,2,,56,72
10320,note_on,,1,0,8,,,,,,,,,,,,,,,,6,,63,72
10320,note_on,,1,0,5,,,,,,,,,,,,,,,,1,,70,72
10364,note_on,,44,0,12,,,,,,,,,,,,,,,,11,,72,0
10364,note_on,,44,0,13,,,,,,,,,,,,,,,,12,,63,0
10364,note_on,,44,0,11,,,,,,,,,,,,,,,,10,,82,0
10365,note_on,,1,0,12,,,,,,,,,,,,,,,,11,,72,72
10365,note_on,,1,0,13,,,,,,,,,,,,,,,,12,,63,72
10365,note_on,,1,0,11,,,,,,,,,,,,,,,,10,,82,72
10379,note_on,,14,0,13,,,,,,,,,,,,,,,,12,,63,0
10379,note_on,,14,0,12,,,,,,,,,,,,,,,,11,,72,0
10379,note_on,,14,0,11,,,,,,,,,,,,,,,,10,,82,0
10380,note_on,,1,0,13,,,,,,,,,,,,,,,,12,,63,72
10380,note_on,,1,0,12,,,,,,,,,,,,,,,,11,,72,72
10380,note_on,,1,0,11,,,,,,,,,,,,,,,,10,,82,72
10424,note_on,,44,0,11,,,,,,,,,,,,,,,,10,,82,0
10424,note_on,,44,0,13,,,,,,,,,,,,,,,,12,,63,0
10424,note_on,,44,0,12,,,,,,,,,,,,,,,,11,,72,0
10425,note_on,,1,0,11,,,,,,,,,,,,,,,,10,,82,72
10425,note_on,,1,0,13,,,,,,,,,,,,,,,,12,,63,72
10425,note_on,,1,0,12,,,,,,,,,,,,,,,,11,,72,72
10439,note_on,,119,0,15,,,,,,,,,,,,,,,,15,,70,0
10439,note_on,,14,0,11,,,,,,,,,,,,,,,,10,,82,0
10439,note_on,,14,0,12,,,,,,,,,,,,,,,,11,,72,0
10439,note_on,,0,0,15,,,,,,,,,,,,,,,,15,,63,0
10439,note_on,,119,0,7,,,,,,,,,,,,,,,,5,,70,0
10439,note_on,,119,0,5,,,,,,,,,,,,,,,,1,,70,0
10439,note_on,,14,0,13,,,,,,,,,,,,,,,,12,,63,0
10440,note_on,,1,0,11,,,,,,,,,,,,,,,,10,,80,72
10440,note_on,,1,0,5,,,,,,,,,,,,,,,,1,,68,72
10440,note_on,,1,0,13,,,,,,,,,,,,,,,,12,,63,72
10440,note_on,,0,0,15,,,,,,,,,,,,,,,,15,,60,72
10440,note_on,,1,0,15,,,,,,,,,,,,,,,,15,,68,72
10440,note_on,,1,0,12,,,,,,,,,,,,,,,,11,,72,72
10440,note_on,,1,0,7,,,,,,,,,,,,,,,,5,,68,72
10484,note_on,,44,0,12,,,,,,,,,,,,,,,,11,,72,0
10484,note_on,,44,0,13,,,,,,,,,,,,,,,,12,,63,0
10484,note_on,,44,0,11,,,,,,,,,,,,,,,,10,,80,0
10485,note_on,,1,0,11,,,,,,,,,,,,,,,,10,,80,72
10485,note_on,,1,0,13,,,,,,,,,,,,,,,,12,,63,72
10485,note_on,,1,0,12,,,,,,,,,,,,,,,,11,,72,72
10499,note_on,,14,0,11,,,,,,,,,,,,,,,,10,,80,0
10499,note_on,,14,0,12,,,,,,,,,,,,,,,,11,,72,0
10499,note_on,,14,0,13,,,,,,,,,,,,,,,,12,,63,0
10500,note_on,,1,0,12,,,,,,,,,,,,,,,,11,,72,72
10500,note_on,,1,0,13,,,,,,,,,,,,,,,,12,,63,72
10500,note_on,,1,0,11,,,,,,,,,,,,,,,,10,,80,72
10544,note_on,,44,0,13,,,,,,,,,,,,,,,,12,,63,0
10544,note_on,,44,0,12,,,,,,,,,,,,,,,,11,,72,0
10544,note_on,,44,0,11,,,,,,,,,,,,,,,,10,,80,0
10545,note_on,,1,0,11,,,,,,,,,,,,,,,,10,,80,72
10545,note_on,,1,0,13,,,,,,,,,,,,,,,,12,,63,72
10545,note_on,,1,0,12,,,,,,,,,,,,,,,,11,,72,72
10559,note_on,,0,0,15,,,,,,,,,,,,,,,,15,,68,0
10559,note_on,,14,0,13,,,,,,,,,,,,,,,,12,,63,0
10559,note_on,,239,0,10,,,,,,,,,,,,,,,,8,,56,0
10559,note_on,,239,0,8,,,,,,,,,,,,,,,,6,,63,0
10559,note_on,,119,0,5,,,,,,,,,,,,,,,,1,,68,0
10559,note_on,,14,0,11,,,,,,,,,,,,,,,,10,,80,0
10559,note_on,,0,0,15,,,,,,,,,,,,,,,,15,,60,0
10559,note_on,,119,0,15,,,,,,,,,,,,,,,,15,,56,0
10559,note_on,,119,0,7,,,,,,,,,,,,,,,,5,,68,0
10559,note_on,,239,0,6,,,,,,,,,,,,,,,,2,,56,0
10559,note_on,,0,0,15,,,,,,,,,,,,,,,,15,,72,0
10559,note_on,,14,0,12,,,,,,,,,,,,,,,,11,,72,0
10559,note_on,,239,0,14,,,,,,,,,,,,,,,,13,,56,0
10560,note_on,,1,0,10,,,,,,,,,,,,,,,,8,,53,72
10560,note_on,,0,0,15,,,,,,,,,,,,,,,,15,,68,72
10560,note_on,,1,0,13,,,,,,,,,,,,,,,,12,,68,72
10560,note_on,,0,0,15,,,,,,,,,,,,,,,,15,,72,72
10560,note_on,,1,0,14,,,,,,,,,,,,,,,,13,,53,72
10560,note_on,,0,0,15,,,,,,,,,,,,,,,,15,,73,72
10560,note_on,,0,0,15,,,,,,,,,,,,,,,,15,,56,72
10560,note_on,,1,0,15,,,,,,,,,,,,,,,,15,,53,72
10560,note_on,,1,0,6,,,,,,,,,,,,,,,,2,,53,72
10560,note_on,,1,0,8,,,,,,,,,,,,,,,,6,,68,72
10560,note_on,,1,0,5,,,,,,,,,,,,,,,,1,,73,72
10560,note_on,,1,0,7,,,,,,,,,,,,,,,,5,,73,72
10560,note_on,,1,0,12,,,,,,,,,,,,,,,,11,,72,72
10560,note_on,,1,0,11,,,,,,,,,,,,,,,,10,,73,72
10604,note_on,,44,0,13,,,,,,,,,,,,,,,,12,,68,0
10604,note_on,,44,0,12,,,,,,,,,,,,,,,,11,,72,0
10604,note_on,,44,0,11,,,,,,,,,,,,,,,,10,,73,0
10605,note_on,,1,0,11,,,,,,,,,,,,,,,,10,,73,72
10605,note_on,,1,0,13,,,,,,,,,,,,,,,,12,,68,72
10605,note_on,,1,0,12,,,,,,,,,,,,,,,,11,,72,72
10619,note_on,,14,0,13,,,,,,,,,,,,,,,,12,,68,0
10619,note_on,,14,0,12,,,,,,,,,,,,,,,,11,,72,0
10619,note_on,,14,0,11,,,,,,,,,,,,,,,,10,,73,0
10620,note_on,,1,0,12,,,,,,,,,,,,,,,,11,,72,72
10620,note_on,,1,0,13,,,,,,,,,,,,,,,,12,,68,72
10620,note_on,,1,0,11,,,,,,,,,,,,,,,,10,,73,72
10664,note_on,,44,0,11,,,,,,,,,,,,,,,,10,,73,0
10664,note_on,,44,0,12,,,,,,,,,,,,,,,,11,,72,0
10664,note_on,,44,0,13,,,,,,,,,,,,,,,,12,,68,0
10665,note_on,,1,0,13,,,,,,,,,,,,,,,,12,,68,72
10665,note_on,,1,0,12,,,,,,,,,,,,,,,,11,,72,72
10665,note_on,,1,0,11,,,,,,,,,,,,,,,,10,,73,72
10679,note_on,,14,0,11,,,,,,,,,,,,,,,,10,,73,0
10679,note_on,,119,0,10,,,,,,,,,,,,,,,,8,,53,0
10679,note_on,,119,0,15,,,,,,,,,,,,,,,,15,,53,0
10679,note_on,,0,0,15,,,,,,,,,,,,,,,,15,,72,0
10679,note_on,,119,0,14,,,,,,,,,,,,,,,,13,,53,0
10679,note_on,,14,0,12,,,,,,,,,,,,,,,,11,,72,0
10679,note_on,,119,0,6,,,,,,,,,,,,,,,,2,,53,0
10679,note_on,,119,0,8,,,,,,,,,,,,,,,,6,,68,0
10679,note_on,,0,0,15,,,,,,,,,,,,,,,,15,,56,0
10679,note_on,,0,0,15,,,,,,,,,,,,,,,,15,,68,0
10679,note_on,,14,0,13,,,,,,,,,,,,,,,,12,,68,0
10679,note_on,,359,0,9,,,,,,,,,,,,,,,,7,,60,0
10680,note_on,,1,0,8,,,,,,,,,,,,,,,,6,,70,72
10680,note_on,,1,0,12,,,,,,,,,,,,,,,,11,,70,72
10680,note_on,,1,0,14,,,,,,,,,,,,,,,,13,,49,72
10680,note_on,,1,0,9,,,,,,,,,,,,,,,,7,,58,72
10680,note_on,,1,0,10,,,,,,,,,,,,,,,,8,,49,72
10680,note_on,,1,0,6,,,,,,,,,,,,,,,,2,,49,72
10680,note_on,,1,0,13,,,,,,,,,,,,,,,,12,,65,72
10680,note_on,,0,0,15,,,,,,,,,,,,,,,,15,,70,72
10680,note_on,,0,0,15,,,,,,,,,,,,,,,,15,,65,72
10680,note_on,,0,0,15,,,,,,,,,,,,,,,,15,,58,72
10680,note_on,,1,0,15,,,,,,,,,,,,,,,,15,,49,72
10680,note_on,,1,0,11,,,,,,,,,,,,,,,,10,,73,72
10724,note_on,,44,0,11,,,,,,,,,,,,,,,,10,,73,0
10724,note_on,,44,0,12,,,,,,,,,,,,,,,,11,,70,0
10724,note_on,,44,0,13,,,,,,,,,,,,,,,,12,,65,0
10725,note_on,,1,0,12,,,,,,,,,,,,,,,,11,,70,72
10725,note_on,,1,0,13,,,,,,,,,,,,,,,,12,,65,72
10725,note_on,,1,0,11,,,,,,,,,,,,,,,,10,,73,72
10739,note_on,,14,0,12,,,,,,,,,,,,,,,,11,,70,0
10739,note_on,,59,0,9,,,,,,,,,,,,,,,,7,,58,0
10739,note_on,,14,0,13,,,,,,,,,,,,,,,,12,,65,0
10739,note_on,,14,0,11,,,,,,,,,,,,,,,,10,,73,0
10740,note_on,,1,0,12,,,,,,,,,,,,,,,,11,,70,72
10740,note_on,,1,0,11,,,,,,,,,,,,,,,,10,,73,72
10740,note_on,,1,0,9,,,,,,,,,,,,,,,,7,,56,72
10740,note_on,,1,0,13,,,,,,,,,,,,,,,,12,,65,72
10784,note_on,,44,0,12,,,,,,,,,,,,,,,,11,,70,0
10784,note_on,,44,0,11,,,,,,,,,,,,,,,,10,,73,0
10784,note_on,,44,0,13,,,,,,,,,,,,,,,,12,,65,0
10785,note_on,,1,0,11,,,,,,,,,,,,,,,,10,,73,72
10785,note_on,,1,0,13,,,,,,,,,,,,,,,,12,,65,72
10785,note_on,,1,0,12,,,,,,,,,,,,,,,,11,,70,72
10799,note_on,,0,0,15,,,,,,,,,,,,,,,,15,,58,0
10799,note_on,,14,0,13,,,,,,,,,,,,,,,,12,,65,0
10799,note_on,,0,0,15,,,,,,,,,,,,,,,,15,,70,0
10799,note_on,,14,0,12,,,,,,,,,,,,,,,,11,,70,0
10799,note_on,,0,0,15,,,,,,,,,,,,,,,,15,,65,0
10799,note_on,,0,0,15,,,,,,,,,,,,,,,,15,,49,0
10799,note_on,,119,0,10,,,,,,,,,,,,,,,,8,,49,0
10799,note_on,,14,0,11,,,,,,,,,,,,,,,,10,,73,0
10799,note_on,,119,0,15,,,,,,,,,,,,,,,,15,,73,0
10799,note_on,,119,0,14,,,,,,,,,,,,,,,,13,,49,0
10799,note_on,,119,0,6,,,,,,,,,,,,,,,,2,,49,0
10799,note_on,,59,0,9,,,,,,,,,,,,,,,,7,,56,0
10800,note_on,,0,0,15,,,,,,,,,,,,,,,,15,,67,72
10800,note_on,,1,0,13,,,,,,,,,,,,,,,,12,,67,72
10800,note_on,,1,0,14,,,,,,,,,,,,,,,,13,,51,72
10800,note_on,,1,0,15,,,,,,,,,,,,,,,,15,,51,72
10800,note_on,,1,0,10,,,,,,,,,,,,,,,,8,,51,72
10800,note_on,,1,0,6,,,,,,,,,,,,,,,,2,,51,72
10800,note_on,,1,0,9,,,,,,,,,,,,,,,,7,,67,72
10800,note_on,,0,0,15,,,,,,,,,,,,,,,,15,,63,72
10800,note_on,,0,0,15,,,,,,,,,,,,,,,,15,,58,72
10800,note_on,,1,0,12,,,,,,,,,,,,,,,,11,,70,72
10800,note_on,,1,0,11,,,,,,,,,,,,,,,,10,,73,72
10800,note_on,,0,0,15,,,,,,,,,,,,,,,,15,,73,72
10844,note_on,,44,0,12,,,,,,,,,,,,,,,,11,,70,0
10844,note_on,,44,0,11,,,,,,,,,,,,,,,,10,,73,0
10844,note_on,,44,0,13,,,,,,,,,,,,,,,,12,,67,0
10845,note_on,,1,0,13,,,,,,,,,,,,,,,,12,,67,72
10845,note_on,,1,0,11,,,,,,,,,,,,,,,,10,,73,72
10845,note_on,,1,0,12,,,,,,,,,,,,,,,,11,,70,72
10859,note_on,,14,0,12,,,,,,,,,,,,,,,,11,,70,0
10859,note_on,,14,0,13,,,,,,,,,,,,,,,,12,,67,0
10859,note_on,,14,0,11,,,,,,,,,,,,,,,,10,,73,0
10860,note_on,,1,0,12,,,,,,,,,,,,,,,,11,,70,72
10860,note_on,,1,0,11,,,,,,,,,,,,,,,,10,,73,72
10860,note_on,,1,0,13,,,,,,,,,,,,,,,,12,,67,72
10904,note_on,,44,0,12,,,,,,,,,,,,,,,,11,,70,0
10904,note_on,,44,0,11,,,,,,,,,,,,,,,,10,,73,0
10904,note_on,,44,0,13,,,,,,,,,,,,,,,,12,,67,0
10905,note_on,,1,0,13,,,,,,,,,,,,,,,,12,,67,72
10905,note_on,,1,0,11,,,,,,,,,,,,,,,,10,,73,72
10905,note_on,,1,0,12,,,,,,,,,,,,,,,,11,,70,72
10919,note_on,,0,0,15,,,,,,,,,,,,,,,,15,,73,0
10919,note_on,,0,0,15,,,,,,,,,,,,,,,,15,,63,0
10919,note_on,,119,0,14,,,,,,,,,,,,,,,,13,,51,0
10919,note_on,,0,0,15,,,,,,,,,,,,,,,,15,,67,0
10919,note_on,,0,0,15,,,,,,,,,,,,,,,,15,,58,0
10919,note_on,,14,0,11,,,,,,,,,,,,,,,,10,,73,0
10919,note_on,,119,0,9,,,,,,,,,,,,,,,,7,,67,0
10919,note_on,,119,0,15,,,,,,,,,,,,,,,,15,,51,0
10919,note_on,,359,0,5,,,,,,,,,,,,,,,,1,,73,0
10919,note_on,,14,0,12,,,,,,,,,,,,,,,,11,,70,0
10919,note_on,,14,0,13,,,,,,,,,,,,,,,,12,,67,0
10919,note_on,,119,0,10,,,,,,,,,,,,,,,,8,,51,0
10919,note_on,,359,0,7,,,,,,,,,,,,,,,,5,,73,0
10919,note_on,,119,0,6,,,,,,,,,,,,,,,,2,,51,0
10919,note_on,,239,0,8,,,,,,,,,,,,,,,,6,,70,0
10920,note_on,,0,0,15,,,,,,,,,,,,,,,,15,,72,72
10920,note_on,,1,0,9,,,,,,,,,,,,,,,,7,,63,72
10920,note_on,,0,0,15,,,,,,,,,,,,,,,,15,,56,72
10920,note_on,,1,0,8,,,,,,,,,,,,,,,,6,,68,72
10920,note_on,,1,0,15,,,,,,,,,,,,,,,,15,,44,72
10920,note_on,,1,0,11,,,,,,,,,,,,,,,,10,,72,72
10920,note_on,,0,0,15,,,,,,,,,,,,,,,,15,,63,72
10920,note_on,,1,0,14,,,,,,,,,,,,,,,,13,,44,72
10920,note_on,,1,0,12,,,,,,,,,,,,,,,,11,,68,72
10920,note_on,,1,0,13,,,,,,,,,,,,,,,,12,,63,72
10920,note_on,,1,0,5,,,,,,,,,,,,,,,,1,,72,72
10920,note_on,,1,0,7,,,,,,,,,,,,,,,,5,,72,72
10920,note_on,,1,0,10,,,,,,,,,,,,,,,,8,,56,72
10920,note_on,,1,0,6,,,,,,,,,,,,,,,,2,,44,72
10920,note_on,,0,0,15,,,,,,,,,,,,,,,,15,,68,72
10964,note_on,,44,0,11,,,,,,,,,,,,,,,,10,,72,0
10964,note_on,,44,0,13,,,,,,,,,,,,,,,,12,,63,0
10964,note_on,,44,0,12,,,,,,,,,,,,,,,,11,,68,0
10965,note_on,,1,0,11,,,,,,,,,,,,,,,,10,,72,72
10965,note_on,,1,0,13,,,,,,,,,,,,,,,,12,,63,72
10965,note_on,,1,0,12,,,,,,,,,,,,,,,,11,,68,72
10979,note_on,,14,0,12,,,,,,,,,,,,,,,,11,,68,0
10979,note_on,,14,0,11,,,,,,,,,,,,,,,,10,,72,0
10979,note_on,,14,0,13,,,,,,,,,,,,,,,,12,,63,0
10980,note_on,,1,0,12,,,,,,,,,,,,,,,,11,,68,72
10980,note_on,,1,0,13,,,,,,,,,,,,,,,,12,,63,72
10980,note_on,,1,0,11,,,,,,,,,,,,,,,,10,,72,72
11024,note_on,,44,0,11,,,,,,,,,,,,,,,,10,,72,0
11024,note_on,,44,0,12,,,,,,,,,,,,,,,,11,,68,0
11024,note_on,,44,0,13,,,,,,,,,,,,,,,,12,,63,0
11025,note_on,,1,0,11,,,,,,,,,,,,,,,,10,,72,72
11025,note_on,,1,0,12,,,,,,,,,,,,,,,,11,,68,72
11025,note_on,,1,0,13,,,,,,,,,,,,,,,,12,,63,72
11039,note_on,,119,0,14,,,,,,,,,,,,,,,,13,,44,0
11039,note_on,,119,0,7,,,,,,,,,,,,,,,,5,,72,0
11039,note_on,,119,0,15,,,,,,,,,,,,,,,,15,,44,0
11039,note_on,,14,0,12,,,,,,,,,,,,,,,,11,,68,0
11039,note_on,,119,0,5,,,,,,,,,,,,,,,,1,,72,0
11039,note_on,,119,0,10,,,,,,,,,,,,,,,,8,,56,0
11039,note_on,,14,0,13,,,,,,,,,,,,,,,,12,,63,0
11039,note_on,,14,0,11,,,,,,,,,,,,,,,,10,,72,0
11039,note_on,,0,0,15,,,,,,,,,,,,,,,,15,,72,0
11039,note_on,,0,0,15,,,,,,,,,,,,,,,,15,,68,0
11039,note_on,,0,0,15,,,,,,,,,,,,,,,,15,,63,0
11039,note_on,,119,0,6,,,,,,,,,,,,,,,,2,,44,0
11039,note_on,,119,0,8,,,,,,,,,,,,,,,,6,,68,0
11039,note_on,,0,0,15,,,,,,,,,,,,,,,,15,,56,0
11039,note_on,,119,0,9,,,,,,,,,,,,,,,,7,,63,0
11040,note_on,,1,0,15,,,,,,,,,,,,,,,,15,,51,72
11040,note_on,,1,0,11,,,,,,,,,,,,,,,,10,,70,72
11040,note_on,,1,0,5,,,,,,,,,,,,,,,,1,,70,72
11040,note_on,,1,0,7,,,,,,,,,,,,,,,,5,,70,72
11040,note_on,,1,0,6,,,,,,,,,,,,,,,,2,,51,72
11040,note_on,,1,0,12,,,,,,,,,,,,,,,,11,,68,72
11040,note_on,,0,0,15,,,,,,,,,,,,,,,,15,,58,72
11040,note_on,,0,0,15,,,,,,,,,,,,,,,,15,,63,72
11040,note_on,,1,0,13,,,,,,,,,,,,,,,,12,,63,72
11040,note_on,,0,0,15,,,,,,,,,,,,,,,,15,,70,72
11040,note_on,,1,0,9,,,,,,,,,,,,,,,,7,,63,72
11040,note_on,,0,0,15,,,,,,,,,,,,,,,,15,,68,72
11040,note_on,,1,0,14,,,,,,,,,,,,,,,,13,,51,72
11040,note_on,,1,0,8,,,,,,,,,,,,,,,,6,,68,72
11040,note_on,,1,0,10,,,,,,,,,,,,,,,,8,,51,72
11084,note_on,,44,0,13,,,,,,,,,,,,,,,,12,,63,0
11084,note_on,,44,0,11,,,,,,,,,,,,,,,,10,,70,0
11084,note_on,,44,0,12,,,,,,,,,,,,,,,,11,,68,0
11085,note_on,,1,0,13,,,,,,,,,,,,,,,,12,,63,72
11085,note_on,,1,0,11,,,,,,,,,,,,,,,,10,,70,72
11085,note_on,,1,0,12,,,,,,,,,,,,,,,,11,,68,72
11099,note_on,,14,0,12,,,,,,,,,,,,,,,,11,,68,0
11099,note_on,,14,0,11,,,,,,,,,,,,,,,,10,,70,0
11099,note_on,,14,0,13,,,,,,,,,,,,,,,,12,,63,0
11100,note_on,,1,0,12,,,,,,,,,,,,,,,,11,,68,72
11100,note_on,,1,0,13,,,,,,,,,,,,,,,,12,,63,72
11100,note_on,,1,0,11,,,,,,,,,,,,,,,,10,,70,72
11144,note_on,,44,0,13,,,,,,,,,,,,,,,,12,,63,0
11144,note_on,,44,0,11,,,,,,,,,,,,,,,,10,,70,0
11144,note_on,,44,0,12,,,,,,,,,,,,,,,,11,,68,0
11145,note_on,,1,0,13,,,,,,,,,,,,,,,,12,,63,72
11145,note_on,,1,0,11,,,,,,,,,,,,,,,,10,,70,72
11145,note_on,,1,0,12,,,,,,,,,,,,,,,,11,,68,72
11159,note_on,,119,0,8,,,,,,,,,,,,,,,,6,,68,0
11159,note_on,,14,0,11,,,,,,,,,,,,,,,,10,,70,0
11159,note_on,,119,0,15,,,,,,,,,,,,,,,,15,,68,0
11159,note_on,,0,0,15,,,,,,,,,,,,,,,,15,,63,0
11159,note_on,,14,0,12,,,,,,,,,,,,,,,,11,,68,0
11159,note_on,,14,0,13,,,,,,,,,,,,,,,,12,,63,0
11160,note_on,,1,0,11,,,,,,,,,,,,,,,,10,,75,72
11160,note_on,,1,0,12,,,,,,,,,,,,,,,,11,,67,72
11160,note_on,,1,0,8,,,,,,,,,,,,,,,,6,,67,72
11160,note_on,,1,0,15,,,,,,,,,,,,,,,,15,,67,72
11160,note_on,,1,0,13,,,,,,,,,,,,,,,,12,,70,72
11160,note_on,,0,0,15,,,,,,,,,,,,,,,,15,,63,72
11204,note_on,,44,0,13,,,,,,,,,,,,,,,,12,,70,0
11204,note_on,,44,0,12,,,,,,,,,,,,,,,,11,,67,0
11205,note_on,,1,0,13,,,,,,,,,,,,,,,,12,,70,72
11205,note_on,,1,0,12,,,,,,,,,,,,,,,,11,,67,72
11219,note_on,,0,0,15,,,,,,,,,,,,,,,,15,,63,0
11219,note_on,,59,0,15,,,,,,,,,,,,,,,,15,,58,0
11219,note_on,,14,0,13,,,,,,,,,,,,,,,,12,,70,0
11219,note_on,,179,0,9,,,,,,,,,,,,,,,,7,,63,0
11219,note_on,,14,0,12,,,,,,,,,,,,,,,,11,,67,0
11220,note_on,,1,0,9,,,,,,,,,,,,,,,,7,,61,72
11220,note_on,,1,0,15,,,,,,,,,,,,,,,,15,,61,72
11220,note_on,,1,0,12,,,,,,,,,,,,,,,,11,,67,72
11220,note_on,,1,0,13,,,,,,,,,,,,,,,,12,,70,72
11264,note_on,,44,0,13,,,,,,,,,,,,,,,,12,,70,0
11264,note_on,,44,0,12,,,,,,,,,,,,,,,,11,,67,0
11265,note_on,,1,0,12,,,,,,,,,,,,,,,,11,,67,72
11265,note_on,,1,0,13,,,,,,,,,,,,,,,,12,,70,72
11279,note_on,,0,0,15,,,,,,,,,,,,,,,,15,,61,0
11279,note_on,,59,0,15,,,,,,,,,,,,,,,,15,,51,0
11279,note_on,,0,0,15,,,,,,,,,,,,,,,,15,,70,0
11279,note_on,,0,0,15,,,,,,,,,,,,,,,,15,,67,0
11279,note_on,,239,0,5,,,,,,,,,,,,,,,,1,,70,0
11279,note_on,,59,0,9,,,,,,,,,,,,,,,,7,,61,0
11279,note_on,,239,0,10,,,,,,,,,,,,,,,,8,,51,0
11279,note_on,,239,0,6,,,,,,,,,,,,,,,,2,,51,0
11279,note_on,,239,0,7,,,,,,,,,,,,,,,,5,,70,0
11279,note_on,,14,0,12,,,,,,,,,,,,,,,,11,,67,0
11279,note_on,,119,0,11,,,,,,,,,,,,,,,,10,,75,0
11279,note_on,,119,0,8,,,,,,,,,,,,,,,,6,,67,0
11279,note_on,,14,0,13,,,,,,,,,,,,,,,,12,,70,0
11279,note_on,,239,0,14,,,,,,,,,,,,,,,,13,,51,0
11280,note_on,,0,0,15,,,,,,,,,,,,,,,,15,,60,72
11280,note_on,,1,0,7,,,,,,,,,,,,,,,,5,,68,72
11280,note_on,,1,0,15,,,,,,,,,,,,,,,,15,,44,72
11280,note_on,,1,0,10,,,,,,,,,,,,,,,,8,,44,72
11280,note_on,,0,0,15,,,,,,,,,,,,,,,,15,,68,72
11280,note_on,,0,0,15,,,,,,,,,,,,,,,,15,,63,72
11280,note_on,,1,0,8,,,,,,,,,,,,,,,,6,,68,72
11280,note_on,,1,0,13,,,,,,,,,,,,,,,,12,,68,72
11280,note_on,,1,0,6,,,,,,,,,,,,,,,,2,,44,72
11280,note_on,,0,0,15,,,,,,,,,,,,,,,,15,,51,72
11280,note_on,,1,0,5,,,,,,,,,,,,,,,,1,,68,72
11280,note_on,,1,0,12,,,,,,,,,,,,,,,,11,,72,72
11280,note_on,,1,0,14,,,,,,,,,,,,,,,,13,,44,72
11280,note_on,,1,0,9,,,,,,,,,,,,,,,,7,,60,72
11325,note_on,,46,0,11,,,,,,,,,,,,,,,,10,,75,72
11339,note_on,,14,0,11,,,,,,,,,,,,,,,,10,,75,0
11340,note_on,,1,0,11,,,,,,,,,,,,,,,,10,,75,72
11384,note_on,,44,0,11,,,,,,,,,,,,,,,,10,,75,0
11385,note_on,,1,0,11,,,,,,,,,,,,,,,,10,,75,72
11399,note_on,,0,0,15,,,,,,,,,,,,,,,,15,,63,0
11399,note_on,,119,0,12,,,,,,,,,,,,,,,,11,,72,0
11399,note_on,,0,0,15,,,,,,,,,,,,,,,,15,,60,0
11399,note_on,,0,0,15,,,,,,,,,,,,,,,,15,,51,0
11399,note_on,,119,0,13,,,,,,,,,,,,,,,,12,,68,0
11399,note_on,,119,0,14,,,,,,,,,,,,,,,,13,,44,0
11399,note_on,,119,0,15,,,,,,,,,,,,,,,,15,,44,0
11399,note_on,,0,0,15,,,,,,,,,,,,,,,,15,,68,0
11399,note_on,,14,0,11,,,,,,,,,,,,,,,,10,,75,0
11399,note_on,,119,0,6,,,,,,,,,,,,,,,,2,,44,0
11400,note_on,,1,0,11,,,,,,,,,,,,,,,,10,,84,72
11445,note_on,,46,0,13,,,,,,,,,,,,,,,,12,,63,72
11445,note_on,,46,0,14,,,,,,,,,,,,,,,,13,,56,72
11445,note_on,,46,0,12,,,,,,,,,,,,,,,,11,,72,72
11445,note_on,,46,0,15,,,,,,,,,,,,,,,,15,,56,72
11445,note_on,,46,0,6,,,,,,,,,,,,,,,,2,,56,72
11459,note_on,,14,0,14,,,,,,,,,,,,,,,,13,,56,0
11459,note_on,,14,0,15,,,,,,,,,,,,,,,,15,,56,0
11459,note_on,,14,0,12,,,,,,,,,,,,,,,,11,,72,0
11459,note_on,,14,0,13,,,,,,,,,,,,,,,,12,,63,0
11459,note_on,,14,0,6,,,,,,,,,,,,,,,,2,,56,0
11460,note_on,,1,0,13,,,,,,,,,,,,,,,,12,,63,72
11460,note_on,,0,0,15,,,,,,,,,,,,,,,,15,,63,72
11460,note_on,,0,0,15,,,,,,,,,,,,,,,,15,,68,72
11460,note_on,,0,0,15,,,,,,,,,,,,,,,,15,,72,72
11460,note_on,,1,0,15,,,,,,,,,,,,,,,,15,,56,72
11460,note_on,,1,0,14,,,,,,,,,,,,,,,,13,,56,72
11460,note_on,,1,0,6,,,,,,,,,,,,,,,,2,,56,72
11460,note_on,,1,0,12,,,,,,,,,,,,,,,,11,,72,72
11504,note_on,,44,0,15,,,,,,,,,,,,,,,,15,,56,0
11504,note_on,,44,0,6,,,,,,,,,,,,,,,,2,,56,0
11504,note_on,,44,0,13,,,,,,,,,,,,,,,,12,,63,0
11504,note_on,,44,0,12,,,,,,,,,,,,,,,,11,,72,0
11504,note_on,,44,0,14,,,,,,,,,,,,,,,,13,,56,0
11505,note_on,,1,0,6,,,,,,,,,,,,,,,,2,,56,72
11505,note_on,,1,0,13,,,,,,,,,,,,,,,,12,,63,72
11505,note_on,,1,0,12,,,,,,,,,,,,,,,,11,,72,72
11505,note_on,,1,0,15,,,,,,,,,,,,,,,,15,,56,72
11505,note_on,,1,0,14,,,,,,,,,,,,,,,,13,,56,72
11519,note_on,,14,0,13,,,,,,,,,,,,,,,,12,,63,0
11519,note_on,,239,0,10,,,,,,,,,,,,,,,,8,,44,0
11519,note_on,,239,0,5,,,,,,,,,,,,,,,,1,,68,0
11519,note_on,,14,0,12,,,,,,,,,,,,,,,,11,,72,0
11519,note_on,,239,0,8,,,,,,,,,,,,,,,,6,,68,0
11519,end_of_track,,0,1,7,,,,,,,,,,,,,,,,,,,
11519,note_on,,239,0,7,,,,,,,,,,,,,,,,5,,68,0
11519,note_on,,14,0,15,,,,,,,,,,,,,,,,15,,72,0
11519,note_on,,14,0,14,,,,,,,,,,,,,,,,13,,56,0
11519,end_of_track,,0,1,10,,,,,,,,,,,,,,,,,,,
11519,note_on,,0,0,15,,,,,,,,,,,,,,,,15,,63,0
11519,end_of_track,,0,1,5,,,,,,,,,,,,,,,,,,,
11519,note_on,,0,0,15,,,,,,,,,,,,,,,,15,,56,0
11519,end_of_track,,0,1,8,,,,,,,,,,,,,,,,,,,
11519,note_on,,239,0,9,,,,,,,,,,,,,,,,7,,60,0
11519,note_on,,119,0,11,,,,,,,,,,,,,,,,10,,84,0
11519,end_of_track,,0,1,9,,,,,,,,,,,,,,,,,,,
11519,note_on,,0,0,15,,,,,,,,,,,,,,,,15,,68,0
11519,note_on,,14,0,6,,,,,,,,,,,,,,,,2,,56,0
11520,note_on,,1,0,15,,,,,,,,,,,,,,,,15,,73,72
11520,note_on,,0,0,15,,,,,,,,,,,,,,,,15,,53,72
11520,note_on,,0,0,15,,,,,,,,,,,,,,,,15,,72,72
11520,note_on,,0,0,15,,,,,,,,,,,,,,,,15,,68,72
11520,note_on,,0,0,15,,,,,,,,,,,,,,,,15,,65,72
11520,note_on,,1,0,12,,,,,,,,,,,,,,,,11,,72,72
11520,note_on,,1,0,13,,,,,,,,,,,,,,,,12,,68,72
11520,note_on,,1,0,14,,,,,,,,,,,,,,,,13,,53,72
11520,note_on,,1,0,6,,,,,,,,,,,,,,,,2,,53,72
11565,note_on,,46,0,11,,,,,,,,,,,,,,,,10,,73,72
11579,note_on,,14,0,11,,,,,,,,,,,,,,,,10,,73,0
11580,note_on,,1,0,11,,,,,,,,,,,,,,,,10,,73,72
11624,note_on,,44,0,11,,,,,,,,,,,,,,,,10,,73,0
11625,note_on,,1,0,11,,,,,,,,,,,,,,,,10,,73,72
11639,note_on,,14,0,11,,,,,,,,,,,,,,,,10,,73,0
11639,note_on,,119,0,6,,,,,,,,,,,,,,,,2,,53,0
11639,note_on,,119,0,13,,,,,,,,,,,,,,,,12,,68,0
11639,note_on,,119,0,12,,,,,,,,,,,,,,,,11,,72,0
11639,note_on,,119,0,15,,,,,,,,,,,,,,,,15,,73,0
11639,note_on,,0,0,15,,,,,,,,,,,,,,,,15,,53,0
11639,note_on,,0,0,15,,,,,,,,,,,,,,,,15,,72,0
11639,note_on,,0,0,15,,,,,,,,,,,,,,,,15,,68,0
11639,note_on,,0,0,15,,,,,,,,,,,,,,,,15,,65,0
11639,note_on,,119,0,14,,,,,,,,,,,,,,,,13,,53,0
11640,note_on,,1,0,11,,,,,,,,,,,,,,,,10,,82,72
11685,note_on,,46,0,15,,,,,,,,,,,,,,,,15,,55,72
11685,note_on,,46,0,14,,,,,,,,,,,,,,,,13,,55,72
11685,note_on,,46,0,12,,,,,,,,,,,,,,,,11,,70,72
11685,note_on,,46,0,6,,,,,,,,,,,,,,,,2,,55,72
11685,note_on,,46,0,13,,,,,,,,,,,,,,,,12,,63,72
11699,note_on,,14,0,6,,,,,,,,,,,,,,,,2,,55,0
11699,note_on,,14,0,15,,,,,,,,,,,,,,,,15,,55,0
11699,note_on,,14,0,14,,,,,,,,,,,,,,,,13,,55,0
11699,note_on,,14,0,13,,,,,,,,,,,,,,,,12,,63,0
11699,note_on,,14,0,12,,,,,,,,,,,,,,,,11,,70,0
11700,note_on,,1,0,15,,,,,,,,,,,,,,,,15,,55,72
11700,note_on,,0,0,15,,,,,,,,,,,,,,,,15,,61,72
11700,note_on,,1,0,12,,,,,,,,,,,,,,,,11,,70,72
11700,note_on,,1,0,14,,,,,,,,,,,,,,,,13,,55,72
11700,note_on,,0,0,15,,,,,,,,,,,,,,,,15,,63,72
11700,note_on,,0,0,15,,,,,,,,,,,,,,,,15,,70,72
11700,note_on,,1,0,6,,,,,,,,,,,,,,,,2,,55,72
11700,note_on,,1,0,13,,,,,,,,,,,,,,,,12,,63,72
11744,note_on,,44,0,14,,,,,,,,,,,,,,,,13,,55,0
11744,note_on,,44,0,15,,,,,,,,,,,,,,,,15,,55,0
11744,note_on,,44,0,12,,,,,,,,,,,,,,,,11,,70,0
11744,note_on,,44,0,6,,,,,,,,,,,,,,,,2,,55,0
11744,note_on,,44,0,13,,,,,,,,,,,,,,,,12,,63,0
11745,note_on,,1,0,13,,,,,,,,,,,,,,,,12,,63,72
11745,note_on,,1,0,12,,,,,,,,,,,,,,,,11,,70,72
11745,note_on,,1,0,14,,,,,,,,,,,,,,,,13,,55,72
11745,note_on,,1,0,15,,,,,,,,,,,,,,,,15,,55,72
11745,note_on,,1,0,6,,,,,,,,,,,,,,,,2,,55,72
11759,note_on,,0,0,15,,,,,,,,,,,,,,,,15,,55,0
11759,note_on,,0,0,15,,,,,,,,,,,,,,,,15,,63,0
11759,note_on,,14,0,15,,,,,,,,,,,,,,,,15,,70,0
11759,note_on,,14,0,12,,,,,,,,,,,,,,,,11,,70,0
11759,note_on,,0,0,15,,,,,,,,,,,,,,,,15,,61,0
11759,note_on,,14,0,6,,,,,,,,,,,,,,,,2,,55,0
11759,note_on,,119,0,11,,,,,,,,,,,,,,,,10,,82,0
11759,note_on,,14,0,14,,,,,,,,,,,,,,,,13,,55,0
11759,note_on,,14,0,13,,,,,,,,,,,,,,,,12,,63,0
11760,note_on,,1,0,6,,,,,,,,,,,,,,,,2,,56,72
11760,note_on,,1,0,15,,,,,,,,,,,,,,,,15,,56,72
11760,note_on,,0,0,15,,,,,,,,,,,,,,,,15,,70,72
11760,note_on,,1,0,12,,,,,,,,,,,,,,,,11,,70,72
11760,note_on,,1,0,13,,,,,,,,,,,,,,,,12,,63,72
11760,note_on,,0,0,15,,,,,,,,,,,,,,,,15,,63,72
11760,note_on,,1,0,14,,,,,,,,,,,,,,,,13,,56,72
11760,note_on,,0,0,15,,,,,,,,,,,,,,,,15,,60,72
11805,note_on,,46,0,11,,,,,,,,,,,,,,,,10,,72,72
11819,note_on,,14,0,11,,,,,,,,,,,,,,,,10,,72,0
11820,note_on,,1,0,11,,,,,,,,,,,,,,,,10,,72,72
11864,note_on,,44,0,11,,,,,,,,,,,,,,,,10,,72,0
11865,note_on,,1,0,11,,,,,,,,,,,,,,,,10,,72,72
11879,note_on,,119,0,15,,,,,,,,,,,,,,,,15,,56,0
11879,note_on,,0,0,15,,,,,,,,,,,,,,,,15,,63,0
11879,note_on,,119,0,13,,,,,,,,,,,,,,,,12,,63,0
11879,note_on,,119,0,12,,,,,,,,,,,,,,,,11,,70,0
11879,note_on,,119,0,14,,,,,,,,,,,,,,,,13,,56,0
11879,note_on,,119,0,6,,,,,,,,,,,,,,,,2,,56,0
11879,note_on,,14,0,11,,,,,,,,,,,,,,,,10,,72,0
11879,note_on,,0,0,15,,,,,,,,,,,,,,,,15,,70,0
11879,note_on,,0,0,15,,,,,,,,,,,,,,,,15,,60,0
11880,note_on,,1,0,11,,,,,,,,,,,,,,,,10,,80,72
11925,note_on,,46,0,12,,,,,,,,,,,,,,,,11,,68,72
11925,note_on,,46,0,14,,,,,,,,,,,,,,,,13,,53,72
11925,note_on,,46,0,13,,,,,,,,,,,,,,,,12,,65,72
11925,note_on,,46,0,15,,,,,,,,,,,,,,,,15,,53,72
11925,note_on,,46,0,6,,,,,,,,,,,,,,,,2,,53,72
11939,note_on,,14,0,6,,,,,,,,,,,,,,,,2,,53,0
11939,note_on,,14,0,14,,,,,,,,,,,,,,,,13,,53,0
11939,note_on,,14,0,12,,,,,,,,,,,,,,,,11,,68,0
11939,note_on,,14,0,13,,,,,,,,,,,,,,,,12,,65,0
11939,note_on,,14,0,15,,,,,,,,,,,,,,,,15,,53,0
11940,note_on,,1,0,14,,,,,,,,,,,,,,,,13,,53,72
11940,note_on,,0,0,15,,,,,,,,,,,,,,,,15,,65,72
11940,note_on,,1,0,12,,,,,,,,,,,,,,,,11,,68,72
11940,note_on,,1,0,13,,,,,,,,,,,,,,,,12,,65,72
11940,note_on,,1,0,15,,,,,,,,,,,,,,,,15,,53,72
11940,note_on,,0,0,15,,,,,,,,,,,,,,,,15,,68,72
11940,note_on,,0,0,15,,,,,,,,,,,,,,,,15,,60,72
11940,note_on,,1,0,6,,,,,,,,,,,,,,,,2,,53,72
11984,note_on,,44,0,6,,,,,,,,,,,,,,,,2,,53,0
11984,note_on,,44,0,13,,,,,,,,,,,,,,,,12,,65,0
11984,note_on,,44,0,15,,,,,,,,,,,,,,,,15,,53,0
11984,note_on,,44,0,12,,,,,,,,,,,,,,,,11,,68,0
11984,note_on,,44,0,14,,,,,,,,,,,,,,,,13,,53,0
11985,note_on,,1,0,15,,,,,,,,,,,,,,,,15,,53,72
11985,note_on,,1,0,6,,,,,,,,,,,,,,,,2,,53,72
11985,note_on,,1,0,14,,,,,,,,,,,,,,,,13,,53,72
11985,note_on,,1,0,12,,,,,,,,,,,,,,,,11,,68,72
11985,note_on,,1,0,13,,,,,,,,,,,,,,,,12,,65,72
11999,note_on,,119,0,11,,,,,,,,,,,,,,,,10,,80,0
11999,note_on,,14,0,6,,,,,,,,,,,,,,,,2,,53,0
11999,note_on,,14,0,12,,,,,,,,,,,,,,,,11,,68,0
11999,note_on,,14,0,13,,,,,,,,,,,,,,,,12,,65,0
11999,note_on,,14,0,14,,,,,,,,,,,,,,,,13,,53,0
11999,note_on,,0,0,15,,,,,,,,,,,,,,,,15,,53,0
11999,note_on,,0,0,15,,,,,,,,,,,,,,,,15,,65,0
11999,note_on,,14,0,15,,,,,,,,,,,,,,,,15,,68,0
11999,note_on,,0,0,15,,,,,,,,,,,,,,,,15,,60,0
12000,note_on,,1,0,13,,,,,,,,,,,,,,,,12,,65,72
12000,note_on,,0,0,15,,,,,,,,,,,,,,,,15,,65,72
12000,note_on,,0,0,15,,,,,,,,,,,,,,,,15,,61,72
12000,note_on,,1,0,14,,,,,,,,,,,,,,,,13,,49,72
12000,note_on,,0,0,15,,,,,,,,,,,,,,,,15,,68,72
12000,note_on,,1,0,15,,,,,,,,,,,,,,,,15,,49,72
12000,note_on,,1,0,12,,,,,,,,,,,,,,,,11,,68,72
12000,note_on,,1,0,6,,,,,,,,,,,,,,,,2,,49,72
12044,note_on,,44,0,12,,,,,,,,,,,,,,,,11,,68,0
12045,note_on,,46,0,11,,,,,,,,,,,,,,,,10,,70,72
12045,note_on,,1,0,12,,,,,,,,,,,,,,,,11,,67,72
12059,note_on,,0,0,15,,,,,,,,,,,,,,,,15,,61,0
12059,note_on,,0,0,15,,,,,,,,,,,,,,,,15,,65,0
12059,note_on,,59,0,15,,,,,,,,,,,,,,,,15,,49,0
12059,note_on,,59,0,14,,,,,,,,,,,,,,,,13,,49,0
12059,note_on,,59,0,13,,,,,,,,,,,,,,,,12,,65,0
12059,note_on,,59,0,6,,,,,,,,,,,,,,,,2,,49,0
12059,note_on,,14,0,11,,,,,,,,,,,,,,,,10,,70,0
12059,note_on,,14,0,12,,,,,,,,,,,,,,,,11,,67,0
12060,note_on,,1,0,12,,,,,,,,,,,,,,,,11,,68,72
12060,note_on,,1,0,11,,,,,,,,,,,,,,,,10,,72,72
12060,note_on,,0,0,15,,,,,,,,,,,,,,,,15,,63,72
12060,note_on,,0,0,15,,,,,,,,,,,,,,,,15,,60,72
12060,note_on,,1,0,13,,,,,,,,,,,,,,,,12,,63,72
12060,note_on,,1,0,14,,,,,,,,,,,,,,,,13,,44,72
12060,note_on,,1,0,15,,,,,,,,,,,,,,,,15,,44,72
12060,note_on,,1,0,6,,,,,,,,,,,,,,,,2,,44,72
12104,note_on,,44,0,11,,,,,,,,,,,,,,,,10,,72,0
12105,note_on,,1,0,11,,,,,,,,,,,,,,,,10,,73,72
12119,note_on,,0,0,15,,,,,,,,,,,,,,,,15,,60,0
12119,note_on,,59,0,12,,,,,,,,,,,,,,,,11,,68,0
12119,note_on,,59,0,13,,,,,,,,,,,,,,,,12,,63,0
12119,note_on,,59,0,14,,,,,,,,,,,,,,,,13,,44,0
12119,note_on,,0,0,15,,,,,,,,,,,,,,,,15,,63,0
12119,note_on,,0,0,15,,,,,,,,,,,,,,,,15,,44,0
12119,note_on,,59,0,15,,,,,,,,,,,,,,,,15,,68,0
12119,note_on,,14,0,11,,,,,,,,,,,,,,,,10,,73,0
12119,note_on,,59,0,6,,,,,,,,,,,,,,,,2,,44,0
12120,note_on,,1,0,6,,,,,,,,,,,,,,,,2,,51,72
12120,note_on,,1,0,12,,,,,,,,,,,,,,,,11,,68,72
12120,note_on,,1,0,11,,,,,,,,,,,,,,,,10,,70,72
12120,note_on,,0,0,15,,,,,,,,,,,,,,,,15,,58,72
12120,note_on,,1,0,13,,,,,,,,,,,,,,,,12,,63,72
12120,note_on,,1,0,14,,,,,,,,,,,,,,,,13,,51,72
12120,note_on,,1,0,15,,,,,,,,,,,,,,,,15,,51,72
12120,note_on,,0,0,15,,,,,,,,,,,,,,,,15,,68,72
12120,note_on,,0,0,15,,,,,,,,,,,,,,,,15,,63,72
12134,note_on,,14,0,11,,,,,,,,,,,,,,,,10,,70,0
12135,note_on,,1,0,11,,,,,,,,,,,,,,,,10,,72,72
12149,note_on,,14,0,11,,,,,,,,,,,,,,,,10,,72,0
12150,note_on,,1,0,11,,,,,,,,,,,,,,,,10,,70,72
12164,note_on,,14,0,11,,,,,,,,,,,,,,,,10,,70,0
12165,note_on,,1,0,11,,,,,,,,,,,,,,,,10,,72,72
12179,note_on,,59,0,6,,,,,,,,,,,,,,,,2,,51,0
12179,note_on,,59,0,14,,,,,,,,,,,,,,,,13,,51,0
12179,note_on,,59,0,12,,,,,,,,,,,,,,,,11,,68,0
12179,note_on,,59,0,15,,,,,,,,,,,,,,,,15,,51,0
12179,note_on,,0,0,15,,,,,,,,,,,,,,,,15,,68,0
12179,note_on,,0,0,15,,,,,,,,,,,,,,,,15,,63,0
12179,note_on,,14,0,11,,,,,,,,,,,,,,,,10,,72,0
12179,note_on,,59,0,13,,,,,,,,,,,,,,,,12,,63,0
12180,note_on,,1,0,6,,,,,,,,,,,,,,,,2,,39,72
12180,note_on,,1,0,11,,,,,,,,,,,,,,,,10,,68,72
12180,note_on,,0,0,15,,,,,,,,,,,,,,,,15,,67,72
12180,note_on,,0,0,15,,,,,,,,,,,,,,,,15,,61,72
12180,note_on,,1,0,14,,,,,,,,,,,,,,,,13,,39,72
12180,note_on,,1,0,13,,,,,,,,,,,,,,,,12,,61,72
12180,note_on,,1,0,15,,,,,,,,,,,,,,,,15,,39,72
12180,note_on,,1,0,12,,,,,,,,,,,,,,,,11,,67,72
12194,note_on,,14,0,11,,,,,,,,,,,,,,,,10,,68,0
12195,note_on,,1,0,11,,,,,,,,,,,,,,,,10,,70,72
12209,note_on,,14,0,11,,,,,,,,,,,,,,,,10,,70,0
12210,note_on,,1,0,11,,,,,,,,,,,,,,,,10,,68,72
12239,note_on,,59,0,14,,,,,,,,,,,,,,,,13,,39,0
12239,note_on,,0,0,15,,,,,,,,,,,,,,,,15,,67,0
12239,note_on,,59,0,13,,,,,,,,,,,,,,,,12,,61,0
12239,note_on,,0,0,15,,,,,,,,,,,,,,,,15,,61,0
12239,note_on,,0,0,15,,,,,,,,,,,,,,,,15,,39,0
12239,note_on,,59,0,12,,,,,,,,,,,,,,,,11,,67,0
12239,note_on,,29,0,11,,,,,,,,,,,,,,,,10,,68,0
12239,note_on,,59,0,6,,,,,,,,,,,,,,,,2,,39,0
12239,note_on,,59,0,15,,,,,,,,,,,,,,,,15,,58,0
12240,note_on,,1,0,12,,,,,,,,,,,,,,,,11,,68,72
12240,note_on,,0,0,15,,,,,,,,,,,,,,,,15,,68,72
12240,note_on,,1,0,15,,,,,,,,,,,,,,,,15,,44,72
12240,note_on,,0,0,15,,,,,,,,,,,,,,,,15,,56,72
12240,note_on,,1,0,11,,,,,,,,,,,,,,,,10,,68,72
12240,note_on,,1,0,13,,,,,,,,,,,,,,,,12,,60,72
12240,note_on,,1,0,6,,,,,,,,,,,,,,,,2,,44,72
12240,note_on,,1,0,14,,,,,,,,,,,,,,,,13,,44,72
12240,note_on,,0,0,15,,,,,,,,,,,,,,,,15,,60,72
12359,note_on,,119,0,15,,,,,,,,,,,,,,,,15,,44,0
12359,note_on,,0,0,15,,,,,,,,,,,,,,,,15,,60,0
12359,note_on,,0,0,15,,,,,,,,,,,,,,,,15,,68,0
12359,end_of_track,,0,1,15,,,,,,,,,,,,,,,,,,,
12359,end_of_track,,0,1,14,,,,,,,,,,,,,,,,,,,
12359,end_of_track,,0,1,13,,,,,,,,,,,,,,,,,,,
12359,note_on,,119,0,13,,,,,,,,,,,,,,,,12,,60,0
12359,end_of_track,,0,1,12,,,,,,,,,,,,,,,,,,,
12359,note_on,,119,0,12,,,,,,,,,,,,,,,,11,,68,0
12359,note_on,,0,0,15,,,,,,,,,,,,,,,,15,,56,0
12359,end_of_track,,0,1,11,,,,,,,,,,,,,,,,,,,
12359,note_on,,119,0,11,,,,,,,,,,,,,,,,10,,68,0
12359,end_of_track,,0,1,6,,,,,,,,,,,,,,,,,,,
12359,note_on,,119,0,6,,,,,,,,,,,,,,,,2,,44,0
12359,note_on,,119,0,14,,,,,,,,,,,,,,,,13,,44,0
12480,set_tempo,,12480,1,0,,,,,,,,,500000,,,,,,,,,,
12480,end_of_track,,0,1,0,,,,,,,,,,,,,,,,,,,
