tick,type,data,time,meta,track,frame_rate,hours,minutes,seconds,frames,sub_frames,port,key,tempo,numerator,denominator,clocks_per_click,notated_32nd_notes_per_beat,control,value,channel,program,note,velocity
0,sequencer_specific,"(0, 0, 91, 35, 1, 0, 5, 4, 35, 0)",0,1,0,,,,,,,,,,,,,,,,,,,
0,control_change,,0,0,8,,,,,,,,,,,,,,11,127,14,,,
0,control_change,,0,0,8,,,,,,,,,,,,,,10,32,14,,,
0,control_change,,0,0,8,,,,,,,,,,,,,,7,96,14,,,
0,program_change,,0,0,8,,,,,,,,,,,,,,,,14,48,,
0,note_on,,0,0,8,,,,,,,,,,,,,,,,14,,60,56
0,control_change,,0,0,6,,,,,,,,,,,,,,7,96,10,,,
0,program_change,,0,0,6,,,,,,,,,,,,,,,,10,48,,
0,note_on,,0,0,6,,,,,,,,,,,,,,,,10,,72,56
0,control_change,,0,0,11,,,,,,,,,,,,,,11,127,15,,,
0,midi_port,,0,1,11,,,,,,,0,,,,,,,,,,,,
0,track_name,,0,1,11,,,,,,,,,,,,,,,,,,,
0,note_on,,0,0,10,,,,,,,,,,,,,,,,13,,48,56
0,program_change,,0,0,10,,,,,,,,,,,,,,,,13,48,,
0,control_change,,0,0,10,,,,,,,,,,,,,,7,96,13,,,
0,note_on,,0,0,11,,,,,,,,,,,,,,,,15,,55,56
0,midi_port,,0,1,8,,,,,,,0,,,,,,,,,,,,
0,control_change,,0,0,10,,,,,,,,,,,,,,11,127,13,,,
0,track_name,,0,1,8,,,,,,,,,,,,,,,,,,,
0,midi_port,,0,1,9,,,,,,,0,,,,,,,,,,,,
0,note_on,,0,0,11,,,,,,,,,,,,,,,,15,,64,56
0,note_on,,0,0,11,,,,,,,,,,,,,,,,15,,67,56
0,note_on,,0,0,11,,,,,,,,,,,,,,,,15,,72,56
0,note_on,,0,0,11,,,,,,,,,,,,,,,,15,,48,56
0,program_change,,0,0,11,,,,,,,,,,,,,,,,15,6,,
0,control_change,,0,0,11,,,,,,,,,,,,,,7,96,15,,,
0,control_change,,0,0,11,,,,,,,,,,,,,,10,90,15,,,
0,midi_port,,0,1,6,,,,,,,0,,,,,,,,,,,,
0,control_change,,0,0,6,,,,,,,,,,,,,,11,127,10,,,
0,control_change,,0,0,6,,,,,,,,,,,,,,10,48,10,,,
0,note_on,,0,0,9,,,,,,,,,,,,,,,,12,,60,56
0,program_change,,0,0,9,,,,,,,,,,,,,,,,12,48,,
0,control_change,,0,0,9,,,,,,,,,,,,,,7,96,12,,,
0,control_change,,0,0,9,,,,,,,,,,,,,,10,80,12,,,
0,control_change,,0,0,9,,,,,,,,,,,,,,11,127,12,,,
0,track_name,,0,1,9,,,,,,,,,,,,,,,,,,,
0,midi_port,,0,1,10,,,,,,,0,,,,,,,,,,,,
0,control_change,,0,0,10,,,,,,,,,,,,,,10,96,13,,,
0,track_name,,0,1,7,,,,,,,,,,,,,,,,,,,
0,end_of_track,,0,1,3,,,,,,,,,,,,,,,,,,,
0,midi_port,,0,1,3,,,,,,,0,,,,,,,,,,,,
0,track_name,,0,1,3,,,,,,,,,,,,,,,,,,,
0,end_of_track,,0,1,2,,,,,,,,,,,,,,,,,,,
0,midi_port,,0,1,2,,,,,,,0,,,,,,,,,,,,
0,track_name,,0,1,2,,,,,,,,,,,,,,,,,,,
0,end_of_track,,0,1,1,,,,,,,,,,,,,,,,,,,
0,track_name,,0,1,10,,,,,,,,,,,,,,,,,,,
0,midi_port,,0,1,1,,,,,,,0,,,,,,,,,,,,
0,time_signature,,0,1,0,,,,,,,,,,12,8,24,8,,,,,,
0,set_tempo,,0,1,0,,,,,,,,,857142,,,,,,,,,,
0,key_signature,,0,1,0,,,,,,,,C,,,,,,,,,,,
0,midi_port,,0,1,0,,,,,,,0,,,,,,,,,,,,
0,smpte_offset,,0,1,0,25,32,0,3,0,0,,,,,,,,,,,,,
0,instrument_name,,0,1,0,,,,,,,,,,,,,,,,,,,
0,track_name,,0,1,0,,,,,,,,,,,,,,,,,,,
0,track_name,,0,1,1,,,,,,,,,,,,,,,,,,,
0,end_of_track,,0,1,4,,,,,,,,,,,,,,,,,,,
0,midi_port,,0,1,4,,,,,,,0,,,,,,,,,,,,
0,midi_port,,0,1,5,,,,,,,0,,,,,,,,,,,,
0,midi_port,,0,1,7,,,,,,,0,,,,,,,,,,,,
0,control_change,,0,0,7,,,,,,,,,,,,,,11,127,11,,,
0,control_change,,0,0,7,,,,,,,,,,,,,,10,24,11,,,
0,control_change,,0,0,7,,,,,,,,,,,,,,7,96,11,,,
0,program_change,,0,0,7,,,,,,,,,,,,,,,,11,48,,
0,note_on,,0,0,7,,,,,,,,,,,,,,,,11,,72,56
0,track_name,,0,1,5,,,,,,,,,,,,,,,,,,,
0,track_name,,0,1,6,,,,,,,,,,,,,,,,,,,
0,program_change,,0,0,5,,,,,,,,,,,,,,,,2,48,,
0,control_change,,0,0,5,,,,,,,,,,,,,,7,96,2,,,
0,control_change,,0,0,5,,,,,,,,,,,,,,10,65,2,,,
0,control_change,,0,0,5,,,,,,,,,,,,,,11,127,2,,,
0,note_on,,0,0,5,,,,,,,,,,,,,,,,2,,48,56
119,note_on,,119,0,6,,,,,,,,,,,,,,,,10,,72,0
119,note_on,,119,0,8,,,,,,,,,,,,,,,,14,,60,0
120,note_on,,1,0,6,,,,,,,,,,,,,,,,10,,74,56
120,note_on,,1,0,8,,,,,,,,,,,,,,,,14,,62,56
179,note_on,,59,0,8,,,,,,,,,,,,,,,,14,,62,0
179,note_on,,59,0,6,,,,,,,,,,,,,,,,10,,74,0
180,note_on,,1,0,6,,,,,,,,,,,,,,,,10,,76,56
180,note_on,,1,0,8,,,,,,,,,,,,,,,,14,,64,56
299,note_on,,119,0,6,,,,,,,,,,,,,,,,10,,76,0
299,note_on,,299,0,9,,,,,,,,,,,,,,,,12,,60,0
299,note_on,,119,0,8,,,,,,,,,,,,,,,,14,,64,0
299,note_on,,299,0,7,,,,,,,,,,,,,,,,11,,72,0
300,note_on,,1,0,6,,,,,,,,,,,,,,,,10,,77,56
300,note_on,,1,0,7,,,,,,,,,,,,,,,,11,,74,56
300,note_on,,1,0,9,,,,,,,,,,,,,,,,12,,62,56
300,note_on,,1,0,8,,,,,,,,,,,,,,,,14,,65,56
359,note_on,,59,0,7,,,,,,,,,,,,,,,,11,,74,0
359,note_on,,59,0,9,,,,,,,,,,,,,,,,12,,62,0
359,note_on,,59,0,6,,,,,,,,,,,,,,,,10,,77,0
359,note_on,,359,0,11,,,,,,,,,,,,,,,,15,,72,0
359,note_on,,0,0,11,,,,,,,,,,,,,,,,15,,67,0
359,note_on,,0,0,11,,,,,,,,,,,,,,,,15,,64,0
359,note_on,,0,0,11,,,,,,,,,,,,,,,,15,,55,0
359,note_on,,59,0,8,,,,,,,,,,,,,,,,14,,65,0
360,note_on,,0,0,11,,,,,,,,,,,,,,,,15,,64,56
360,note_on,,1,0,11,,,,,,,,,,,,,,,,15,,67,56
360,note_on,,0,0,11,,,,,,,,,,,,,,,,15,,60,56
360,note_on,,1,0,9,,,,,,,,,,,,,,,,12,,64,56
360,note_on,,1,0,7,,,,,,,,,,,,,,,,11,,76,56
360,note_on,,1,0,6,,,,,,,,,,,,,,,,10,,79,56
360,note_on,,1,0,8,,,,,,,,,,,,,,,,14,,67,56
539,note_on,,179,0,6,,,,,,,,,,,,,,,,10,,79,0
539,note_on,,0,0,11,,,,,,,,,,,,,,,,15,,64,0
539,note_on,,0,0,11,,,,,,,,,,,,,,,,15,,60,0
539,note_on,,179,0,11,,,,,,,,,,,,,,,,15,,67,0
539,note_on,,179,0,8,,,,,,,,,,,,,,,,14,,67,0
539,note_on,,179,0,7,,,,,,,,,,,,,,,,11,,76,0
539,note_on,,179,0,9,,,,,,,,,,,,,,,,12,,64,0
540,note_on,,0,0,11,,,,,,,,,,,,,,,,15,,53,56
540,note_on,,0,0,11,,,,,,,,,,,,,,,,15,,60,56
540,note_on,,0,0,11,,,,,,,,,,,,,,,,15,,65,56
540,note_on,,1,0,11,,,,,,,,,,,,,,,,15,,69,56
540,note_on,,1,0,8,,,,,,,,,,,,,,,,14,,69,56
540,note_on,,1,0,7,,,,,,,,,,,,,,,,11,,77,56
540,note_on,,1,0,9,,,,,,,,,,,,,,,,12,,65,56
540,note_on,,1,0,6,,,,,,,,,,,,,,,,10,,81,56
719,note_on,,179,0,9,,,,,,,,,,,,,,,,12,,65,0
719,note_on,,0,0,11,,,,,,,,,,,,,,,,15,,53,0
719,note_on,,0,0,11,,,,,,,,,,,,,,,,15,,60,0
719,note_on,,0,0,11,,,,,,,,,,,,,,,,15,,65,0
719,note_on,,179,0,11,,,,,,,,,,,,,,,,15,,69,0
719,note_on,,179,0,6,,,,,,,,,,,,,,,,10,,81,0
719,note_on,,179,0,8,,,,,,,,,,,,,,,,14,,69,0
719,note_on,,179,0,7,,,,,,,,,,,,,,,,11,,77,0
720,note_on,,1,0,6,,,,,,,,,,,,,,,,10,,79,56
720,note_on,,1,0,7,,,,,,,,,,,,,,,,11,,76,56
720,note_on,,1,0,8,,,,,,,,,,,,,,,,14,,67,56
720,note_on,,0,0,11,,,,,,,,,,,,,,,,15,,60,56
720,note_on,,1,0,9,,,,,,,,,,,,,,,,12,,64,56
720,note_on,,1,0,11,,,,,,,,,,,,,,,,15,,67,56
720,note_on,,0,0,11,,,,,,,,,,,,,,,,15,,64,56
720,note_on,,0,0,11,,,,,,,,,,,,,,,,15,,55,56
809,note_on,,89,0,7,,,,,,,,,,,,,,,,11,,76,0
809,note_on,,89,0,8,,,,,,,,,,,,,,,,14,,67,0
809,note_on,,89,0,9,,,,,,,,,,,,,,,,12,,64,0
809,note_on,,89,0,6,,,,,,,,,,,,,,,,10,,79,0
810,note_on,,1,0,8,,,,,,,,,,,,,,,,14,,65,56
810,note_on,,1,0,9,,,,,,,,,,,,,,,,12,,62,56
810,note_on,,1,0,7,,,,,,,,,,,,,,,,11,,74,56
810,note_on,,1,0,6,,,,,,,,,,,,,,,,10,,77,56
839,note_on,,29,0,6,,,,,,,,,,,,,,,,10,,77,0
839,note_on,,29,0,7,,,,,,,,,,,,,,,,11,,74,0
839,note_on,,29,0,9,,,,,,,,,,,,,,,,12,,62,0
839,note_on,,29,0,8,,,,,,,,,,,,,,,,14,,65,0
840,note_on,,1,0,7,,,,,,,,,,,,,,,,11,,72,56
840,note_on,,1,0,6,,,,,,,,,,,,,,,,10,,76,56
840,note_on,,1,0,8,,,,,,,,,,,,,,,,14,,64,56
840,note_on,,1,0,9,,,,,,,,,,,,,,,,12,,60,56
899,note_on,,59,0,6,,,,,,,,,,,,,,,,10,,76,0
899,note_on,,59,0,8,,,,,,,,,,,,,,,,14,,64,0
899,note_on,,179,0,11,,,,,,,,,,,,,,,,15,,67,0
899,note_on,,0,0,11,,,,,,,,,,,,,,,,15,,64,0
899,note_on,,0,0,11,,,,,,,,,,,,,,,,15,,60,0
899,note_on,,0,0,11,,,,,,,,,,,,,,,,15,,55,0
899,note_on,,59,0,7,,,,,,,,,,,,,,,,11,,72,0
899,note_on,,59,0,9,,,,,,,,,,,,,,,,12,,60,0
900,note_on,,0,0,11,,,,,,,,,,,,,,,,15,,65,56
900,note_on,,1,0,11,,,,,,,,,,,,,,,,15,,53,56
900,note_on,,0,0,11,,,,,,,,,,,,,,,,15,,71,56
900,note_on,,1,0,6,,,,,,,,,,,,,,,,10,,77,56
900,note_on,,1,0,8,,,,,,,,,,,,,,,,14,,65,56
900,note_on,,0,0,11,,,,,,,,,,,,,,,,15,,62,56
900,note_on,,1,0,7,,,,,,,,,,,,,,,,11,,74,56
900,note_on,,1,0,9,,,,,,,,,,,,,,,,12,,62,56
914,note_on,,14,0,9,,,,,,,,,,,,,,,,12,,62,0
914,note_on,,14,0,7,,,,,,,,,,,,,,,,11,,74,0
914,note_on,,14,0,6,,,,,,,,,,,,,,,,10,,77,0
914,note_on,,14,0,8,,,,,,,,,,,,,,,,14,,65,0
915,note_on,,1,0,9,,,,,,,,,,,,,,,,12,,64,56
915,note_on,,1,0,7,,,,,,,,,,,,,,,,11,,76,56
915,note_on,,1,0,8,,,,,,,,,,,,,,,,14,,67,56
915,note_on,,1,0,6,,,,,,,,,,,,,,,,10,,79,56
929,note_on,,14,0,7,,,,,,,,,,,,,,,,11,,76,0
929,note_on,,14,0,8,,,,,,,,,,,,,,,,14,,67,0
929,note_on,,14,0,6,,,,,,,,,,,,,,,,10,,79,0
929,note_on,,14,0,9,,,,,,,,,,,,,,,,12,,64,0
930,note_on,,1,0,9,,,,,,,,,,,,,,,,12,,62,56
930,note_on,,1,0,6,,,,,,,,,,,,,,,,10,,77,56
930,note_on,,1,0,8,,,,,,,,,,,,,,,,14,,65,56
930,note_on,,1,0,7,,,,,,,,,,,,,,,,11,,74,56
944,note_on,,14,0,6,,,,,,,,,,,,,,,,10,,77,0
944,note_on,,14,0,9,,,,,,,,,,,,,,,,12,,62,0
944,note_on,,14,0,8,,,,,,,,,,,,,,,,14,,65,0
944,note_on,,14,0,7,,,,,,,,,,,,,,,,11,,74,0
945,note_on,,1,0,8,,,,,,,,,,,,,,,,14,,67,56
945,note_on,,1,0,6,,,,,,,,,,,,,,,,10,,79,56
945,note_on,,1,0,7,,,,,,,,,,,,,,,,11,,76,56
945,note_on,,1,0,9,,,,,,,,,,,,,,,,12,,64,56
959,note_on,,14,0,6,,,,,,,,,,,,,,,,10,,79,0
959,note_on,,14,0,9,,,,,,,,,,,,,,,,12,,64,0
959,note_on,,14,0,8,,,,,,,,,,,,,,,,14,,67,0
959,note_on,,14,0,7,,,,,,,,,,,,,,,,11,,76,0
960,note_on,,1,0,8,,,,,,,,,,,,,,,,14,,65,56
960,note_on,,1,0,7,,,,,,,,,,,,,,,,11,,74,56
960,note_on,,1,0,9,,,,,,,,,,,,,,,,12,,62,56
960,note_on,,1,0,6,,,,,,,,,,,,,,,,10,,77,56
974,note_on,,14,0,9,,,,,,,,,,,,,,,,12,,62,0
974,note_on,,14,0,8,,,,,,,,,,,,,,,,14,,65,0
974,note_on,,14,0,7,,,,,,,,,,,,,,,,11,,74,0
974,note_on,,14,0,6,,,,,,,,,,,,,,,,10,,77,0
975,note_on,,1,0,8,,,,,,,,,,,,,,,,14,,67,56
975,note_on,,1,0,7,,,,,,,,,,,,,,,,11,,76,56
975,note_on,,1,0,9,,,,,,,,,,,,,,,,12,,64,56
975,note_on,,1,0,6,,,,,,,,,,,,,,,,10,,79,56
989,note_on,,14,0,9,,,,,,,,,,,,,,,,12,,64,0
989,note_on,,14,0,6,,,,,,,,,,,,,,,,10,,79,0
989,note_on,,14,0,7,,,,,,,,,,,,,,,,11,,76,0
989,note_on,,14,0,8,,,,,,,,,,,,,,,,14,,67,0
990,note_on,,1,0,9,,,,,,,,,,,,,,,,12,,62,56
990,note_on,,1,0,6,,,,,,,,,,,,,,,,10,,77,56
990,note_on,,1,0,7,,,,,,,,,,,,,,,,11,,74,56
990,note_on,,1,0,8,,,,,,,,,,,,,,,,14,,65,56
1004,note_on,,14,0,7,,,,,,,,,,,,,,,,11,,74,0
1004,note_on,,14,0,6,,,,,,,,,,,,,,,,10,,77,0
1004,note_on,,14,0,9,,,,,,,,,,,,,,,,12,,62,0
1004,note_on,,14,0,8,,,,,,,,,,,,,,,,14,,65,0
1005,note_on,,1,0,9,,,,,,,,,,,,,,,,12,,64,56
1005,note_on,,1,0,6,,,,,,,,,,,,,,,,10,,79,56
1005,note_on,,1,0,8,,,,,,,,,,,,,,,,14,,67,56
1005,note_on,,1,0,7,,,,,,,,,,,,,,,,11,,76,56
1019,note_on,,14,0,9,,,,,,,,,,,,,,,,12,,64,0
1019,note_on,,14,0,6,,,,,,,,,,,,,,,,10,,79,0
1019,note_on,,14,0,8,,,,,,,,,,,,,,,,14,,67,0
1019,note_on,,14,0,7,,,,,,,,,,,,,,,,11,,76,0
1020,note_on,,1,0,8,,,,,,,,,,,,,,,,14,,65,56
1020,note_on,,1,0,9,,,,,,,,,,,,,,,,12,,62,56
1020,note_on,,1,0,6,,,,,,,,,,,,,,,,10,,77,56
1020,note_on,,1,0,7,,,,,,,,,,,,,,,,11,,74,56
1034,note_on,,14,0,7,,,,,,,,,,,,,,,,11,,74,0
1034,note_on,,14,0,8,,,,,,,,,,,,,,,,14,,65,0
1034,note_on,,14,0,6,,,,,,,,,,,,,,,,10,,77,0
1034,note_on,,14,0,9,,,,,,,,,,,,,,,,12,,62,0
1035,note_on,,1,0,9,,,,,,,,,,,,,,,,12,,64,56
1035,note_on,,1,0,8,,,,,,,,,,,,,,,,14,,67,56
1035,note_on,,1,0,6,,,,,,,,,,,,,,,,10,,79,56
1035,note_on,,1,0,7,,,,,,,,,,,,,,,,11,,76,56
1049,note_on,,14,0,7,,,,,,,,,,,,,,,,11,,76,0
1049,note_on,,14,0,8,,,,,,,,,,,,,,,,14,,67,0
1049,note_on,,14,0,9,,,,,,,,,,,,,,,,12,,64,0
1049,note_on,,14,0,6,,,,,,,,,,,,,,,,10,,79,0
1050,note_on,,1,0,6,,,,,,,,,,,,,,,,10,,76,56
1050,note_on,,1,0,9,,,,,,,,,,,,,,,,12,,60,56
1050,note_on,,1,0,7,,,,,,,,,,,,,,,,11,,72,56
1050,note_on,,1,0,8,,,,,,,,,,,,,,,,14,,64,56
1064,note_on,,14,0,7,,,,,,,,,,,,,,,,11,,72,0
1064,note_on,,14,0,9,,,,,,,,,,,,,,,,12,,60,0
1064,note_on,,14,0,6,,,,,,,,,,,,,,,,10,,76,0
1064,note_on,,14,0,8,,,,,,,,,,,,,,,,14,,64,0
1065,note_on,,1,0,9,,,,,,,,,,,,,,,,12,,62,56
1065,note_on,,1,0,8,,,,,,,,,,,,,,,,14,,65,56
1065,note_on,,1,0,6,,,,,,,,,,,,,,,,10,,77,56
1065,note_on,,1,0,7,,,,,,,,,,,,,,,,11,,74,56
1079,note_on,,14,0,8,,,,,,,,,,,,,,,,14,,65,0
1079,note_on,,14,0,9,,,,,,,,,,,,,,,,12,,62,0
1079,note_on,,14,0,7,,,,,,,,,,,,,,,,11,,74,0
1079,note_on,,179,0,11,,,,,,,,,,,,,,,,15,,53,0
1079,note_on,,0,0,11,,,,,,,,,,,,,,,,15,,71,0
1079,note_on,,0,0,11,,,,,,,,,,,,,,,,15,,65,0
1079,note_on,,0,0,11,,,,,,,,,,,,,,,,15,,62,0
1079,note_on,,14,0,6,,,,,,,,,,,,,,,,10,,77,0
1080,note_on,,1,0,7,,,,,,,,,,,,,,,,11,,72,56
1080,note_on,,0,0,11,,,,,,,,,,,,,,,,15,,67,56
1080,note_on,,1,0,11,,,,,,,,,,,,,,,,15,,52,56
1080,note_on,,0,0,11,,,,,,,,,,,,,,,,15,,72,56
1080,note_on,,0,0,11,,,,,,,,,,,,,,,,15,,64,56
1080,note_on,,1,0,9,,,,,,,,,,,,,,,,12,,60,56
1080,note_on,,1,0,8,,,,,,,,,,,,,,,,14,,64,56
1080,note_on,,1,0,6,,,,,,,,,,,,,,,,10,,76,56
1259,note_on,,0,0,11,,,,,,,,,,,,,,,,15,,72,0
1259,note_on,,179,0,8,,,,,,,,,,,,,,,,14,,64,0
1259,note_on,,179,0,6,,,,,,,,,,,,,,,,10,,76,0
1259,note_on,,179,0,11,,,,,,,,,,,,,,,,15,,52,0
1259,note_on,,179,0,9,,,,,,,,,,,,,,,,12,,60,0
1259,note_on,,179,0,7,,,,,,,,,,,,,,,,11,,72,0
1259,note_on,,0,0,11,,,,,,,,,,,,,,,,15,,67,0
1259,note_on,,0,0,11,,,,,,,,,,,,,,,,15,,64,0
1260,note_on,,1,0,6,,,,,,,,,,,,,,,,10,,77,56
1260,note_on,,1,0,11,,,,,,,,,,,,,,,,15,,53,56
1260,note_on,,0,0,11,,,,,,,,,,,,,,,,15,,72,56
1260,note_on,,1,0,7,,,,,,,,,,,,,,,,11,,74,56
1260,note_on,,0,0,11,,,,,,,,,,,,,,,,15,,65,56
1260,note_on,,1,0,9,,,,,,,,,,,,,,,,12,,62,56
1260,note_on,,0,0,11,,,,,,,,,,,,,,,,15,,69,56
1260,note_on,,1,0,8,,,,,,,,,,,,,,,,14,,65,56
1289,note_on,,29,0,6,,,,,,,,,,,,,,,,10,,77,0
1289,note_on,,29,0,7,,,,,,,,,,,,,,,,11,,74,0
1289,note_on,,29,0,8,,,,,,,,,,,,,,,,14,,65,0
1289,note_on,,29,0,9,,,,,,,,,,,,,,,,12,,62,0
1290,note_on,,1,0,7,,,,,,,,,,,,,,,,11,,76,56
1290,note_on,,1,0,9,,,,,,,,,,,,,,,,12,,64,56
1290,note_on,,1,0,6,,,,,,,,,,,,,,,,10,,79,56
1290,note_on,,1,0,8,,,,,,,,,,,,,,,,14,,67,56
1319,note_on,,29,0,8,,,,,,,,,,,,,,,,14,,67,0
1319,note_on,,29,0,9,,,,,,,,,,,,,,,,12,,64,0
1319,note_on,,29,0,7,,,,,,,,,,,,,,,,11,,76,0
1319,note_on,,29,0,6,,,,,,,,,,,,,,,,10,,79,0
1320,note_on,,1,0,9,,,,,,,,,,,,,,,,12,,65,56
1320,note_on,,1,0,7,,,,,,,,,,,,,,,,11,,77,56
1320,note_on,,1,0,8,,,,,,,,,,,,,,,,14,,69,56
1320,note_on,,1,0,6,,,,,,,,,,,,,,,,10,,81,56
1439,note_on,,119,0,6,,,,,,,,,,,,,,,,10,,81,0
1439,note_on,,179,0,11,,,,,,,,,,,,,,,,15,,53,0
1439,note_on,,0,0,11,,,,,,,,,,,,,,,,15,,69,0
1439,note_on,,119,0,8,,,,,,,,,,,,,,,,14,,69,0
1439,note_on,,0,0,11,,,,,,,,,,,,,,,,15,,65,0
1439,note_on,,119,0,9,,,,,,,,,,,,,,,,12,,65,0
1439,note_on,,119,0,7,,,,,,,,,,,,,,,,11,,77,0
1440,note_on,,1,0,11,,,,,,,,,,,,,,,,15,,67,56
1440,note_on,,0,0,11,,,,,,,,,,,,,,,,15,,64,56
1440,note_on,,1,0,9,,,,,,,,,,,,,,,,12,,64,56
1440,note_on,,1,0,8,,,,,,,,,,,,,,,,14,,67,56
1440,note_on,,1,0,7,,,,,,,,,,,,,,,,11,,76,56
1440,note_on,,1,0,6,,,,,,,,,,,,,,,,10,,79,56
1440,note_on,,0,0,11,,,,,,,,,,,,,,,,15,,55,56
1454,note_on,,14,0,7,,,,,,,,,,,,,,,,11,,76,0
1454,note_on,,14,0,9,,,,,,,,,,,,,,,,12,,64,0
1454,note_on,,14,0,6,,,,,,,,,,,,,,,,10,,79,0
1454,note_on,,14,0,8,,,,,,,,,,,,,,,,14,,67,0
1455,note_on,,1,0,7,,,,,,,,,,,,,,,,11,,77,56
1455,note_on,,1,0,9,,,,,,,,,,,,,,,,12,,65,56
1455,note_on,,1,0,8,,,,,,,,,,,,,,,,14,,69,56
1455,note_on,,1,0,6,,,,,,,,,,,,,,,,10,,81,56
1469,note_on,,14,0,9,,,,,,,,,,,,,,,,12,,65,0
1469,note_on,,14,0,8,,,,,,,,,,,,,,,,14,,69,0
1469,note_on,,14,0,7,,,,,,,,,,,,,,,,11,,77,0
1469,note_on,,14,0,6,,,,,,,,,,,,,,,,10,,81,0
1470,note_on,,1,0,7,,,,,,,,,,,,,,,,11,,76,56
1470,note_on,,1,0,8,,,,,,,,,,,,,,,,14,,67,56
1470,note_on,,1,0,6,,,,,,,,,,,,,,,,10,,79,56
1470,note_on,,1,0,9,,,,,,,,,,,,,,,,12,,64,56
1484,note_on,,14,0,8,,,,,,,,,,,,,,,,14,,67,0
1484,note_on,,14,0,6,,,,,,,,,,,,,,,,10,,79,0
1484,note_on,,14,0,7,,,,,,,,,,,,,,,,11,,76,0
1484,note_on,,14,0,9,,,,,,,,,,,,,,,,12,,64,0
1485,note_on,,1,0,9,,,,,,,,,,,,,,,,12,,65,56
1485,note_on,,1,0,6,,,,,,,,,,,,,,,,10,,81,56
1485,note_on,,1,0,8,,,,,,,,,,,,,,,,14,,69,56
1485,note_on,,1,0,7,,,,,,,,,,,,,,,,11,,77,56
1499,note_on,,14,0,7,,,,,,,,,,,,,,,,11,,77,0
1499,note_on,,14,0,8,,,,,,,,,,,,,,,,14,,69,0
1499,note_on,,14,0,9,,,,,,,,,,,,,,,,12,,65,0
1499,note_on,,14,0,6,,,,,,,,,,,,,,,,10,,81,0
1500,note_on,,1,0,7,,,,,,,,,,,,,,,,11,,74,56
1500,note_on,,1,0,6,,,,,,,,,,,,,,,,10,,77,56
1500,note_on,,1,0,9,,,,,,,,,,,,,,,,12,,62,56
1500,note_on,,1,0,8,,,,,,,,,,,,,,,,14,,65,56
1514,note_on,,14,0,6,,,,,,,,,,,,,,,,10,,77,0
1514,note_on,,14,0,7,,,,,,,,,,,,,,,,11,,74,0
1514,note_on,,14,0,9,,,,,,,,,,,,,,,,12,,62,0
1514,note_on,,14,0,8,,,,,,,,,,,,,,,,14,,65,0
1515,note_on,,1,0,6,,,,,,,,,,,,,,,,10,,79,56
1515,note_on,,1,0,9,,,,,,,,,,,,,,,,12,,64,56
1515,note_on,,1,0,8,,,,,,,,,,,,,,,,14,,67,56
1515,note_on,,1,0,7,,,,,,,,,,,,,,,,11,,76,56
1529,note_on,,14,0,7,,,,,,,,,,,,,,,,11,,76,0
1529,note_on,,14,0,9,,,,,,,,,,,,,,,,12,,64,0
1529,note_on,,14,0,8,,,,,,,,,,,,,,,,14,,67,0
1529,note_on,,14,0,6,,,,,,,,,,,,,,,,10,,79,0
1530,note_on,,1,0,7,,,,,,,,,,,,,,,,11,,74,56
1530,note_on,,1,0,9,,,,,,,,,,,,,,,,12,,62,56
1530,note_on,,1,0,8,,,,,,,,,,,,,,,,14,,65,56
1530,note_on,,1,0,6,,,,,,,,,,,,,,,,10,,77,56
1559,note_on,,29,0,7,,,,,,,,,,,,,,,,11,,74,0
1559,note_on,,29,0,9,,,,,,,,,,,,,,,,12,,62,0
1559,note_on,,29,0,8,,,,,,,,,,,,,,,,14,,65,0
1559,note_on,,29,0,6,,,,,,,,,,,,,,,,10,,77,0
1560,note_on,,1,0,8,,,,,,,,,,,,,,,,14,,64,56
1560,note_on,,1,0,9,,,,,,,,,,,,,,,,12,,60,56
1560,note_on,,1,0,7,,,,,,,,,,,,,,,,11,,72,56
1560,note_on,,1,0,6,,,,,,,,,,,,,,,,10,,76,56
1619,note_on,,0,0,11,,,,,,,,,,,,,,,,15,,55,0
1619,note_on,,0,0,11,,,,,,,,,,,,,,,,15,,64,0
1619,note_on,,0,0,11,,,,,,,,,,,,,,,,15,,67,0
1619,note_on,,179,0,11,,,,,,,,,,,,,,,,15,,72,0
1619,note_on,,59,0,7,,,,,,,,,,,,,,,,11,,72,0
1619,note_on,,59,0,9,,,,,,,,,,,,,,,,12,,60,0
1619,note_on,,59,0,6,,,,,,,,,,,,,,,,10,,76,0
1619,note_on,,59,0,8,,,,,,,,,,,,,,,,14,,64,0
1620,note_on,,0,0,11,,,,,,,,,,,,,,,,15,,59,56
1620,note_on,,0,0,11,,,,,,,,,,,,,,,,15,,62,56
1620,note_on,,1,0,11,,,,,,,,,,,,,,,,15,,67,56
1620,note_on,,1,0,6,,,,,,,,,,,,,,,,10,,77,56
1620,note_on,,1,0,8,,,,,,,,,,,,,,,,14,,65,56
1620,note_on,,1,0,7,,,,,,,,,,,,,,,,11,,74,56
1620,note_on,,1,0,9,,,,,,,,,,,,,,,,12,,62,56
1634,note_on,,14,0,7,,,,,,,,,,,,,,,,11,,74,0
1634,note_on,,14,0,8,,,,,,,,,,,,,,,,14,,65,0
1634,note_on,,14,0,6,,,,,,,,,,,,,,,,10,,77,0
1634,note_on,,14,0,9,,,,,,,,,,,,,,,,12,,62,0
1635,note_on,,1,0,8,,,,,,,,,,,,,,,,14,,67,56
1635,note_on,,1,0,7,,,,,,,,,,,,,,,,11,,76,56
1635,note_on,,1,0,9,,,,,,,,,,,,,,,,12,,64,56
1635,note_on,,1,0,6,,,,,,,,,,,,,,,,10,,79,56
1649,note_on,,14,0,8,,,,,,,,,,,,,,,,14,,67,0
1649,note_on,,14,0,9,,,,,,,,,,,,,,,,12,,64,0
1649,note_on,,14,0,7,,,,,,,,,,,,,,,,11,,76,0
1649,note_on,,14,0,6,,,,,,,,,,,,,,,,10,,79,0
1650,note_on,,1,0,8,,,,,,,,,,,,,,,,14,,65,56
1650,note_on,,1,0,7,,,,,,,,,,,,,,,,11,,74,56
1650,note_on,,1,0,6,,,,,,,,,,,,,,,,10,,77,56
1650,note_on,,1,0,9,,,,,,,,,,,,,,,,12,,62,56
1664,note_on,,14,0,6,,,,,,,,,,,,,,,,10,,77,0
1664,note_on,,14,0,9,,,,,,,,,,,,,,,,12,,62,0
1664,note_on,,14,0,8,,,,,,,,,,,,,,,,14,,65,0
1664,note_on,,14,0,7,,,,,,,,,,,,,,,,11,,74,0
1665,note_on,,1,0,7,,,,,,,,,,,,,,,,11,,76,56
1665,note_on,,1,0,8,,,,,,,,,,,,,,,,14,,67,56
1665,note_on,,1,0,9,,,,,,,,,,,,,,,,12,,64,56
1665,note_on,,1,0,6,,,,,,,,,,,,,,,,10,,79,56
1679,note_on,,14,0,8,,,,,,,,,,,,,,,,14,,67,0
1679,note_on,,14,0,6,,,,,,,,,,,,,,,,10,,79,0
1679,note_on,,14,0,9,,,,,,,,,,,,,,,,12,,64,0
1679,note_on,,14,0,7,,,,,,,,,,,,,,,,11,,76,0
1680,note_on,,1,0,9,,,,,,,,,,,,,,,,12,,62,56
1680,note_on,,1,0,8,,,,,,,,,,,,,,,,14,,65,56
1680,note_on,,1,0,7,,,,,,,,,,,,,,,,11,,74,56
1680,note_on,,1,0,6,,,,,,,,,,,,,,,,10,,77,56
1694,note_on,,14,0,6,,,,,,,,,,,,,,,,10,,77,0
1694,note_on,,14,0,7,,,,,,,,,,,,,,,,11,,74,0
1694,note_on,,14,0,9,,,,,,,,,,,,,,,,12,,62,0
1694,note_on,,14,0,8,,,,,,,,,,,,,,,,14,,65,0
1695,note_on,,1,0,6,,,,,,,,,,,,,,,,10,,79,56
1695,note_on,,1,0,9,,,,,,,,,,,,,,,,12,,64,56
1695,note_on,,1,0,8,,,,,,,,,,,,,,,,14,,67,56
1695,note_on,,1,0,7,,,,,,,,,,,,,,,,11,,76,56
1709,note_on,,14,0,8,,,,,,,,,,,,,,,,14,,67,0
1709,note_on,,14,0,6,,,,,,,,,,,,,,,,10,,79,0
1709,note_on,,14,0,7,,,,,,,,,,,,,,,,11,,76,0
1709,note_on,,14,0,9,,,,,,,,,,,,,,,,12,,64,0
1710,note_on,,1,0,6,,,,,,,,,,,,,,,,10,,77,56
1710,note_on,,1,0,7,,,,,,,,,,,,,,,,11,,74,56
1710,note_on,,1,0,8,,,,,,,,,,,,,,,,14,,65,56
1710,note_on,,1,0,9,,,,,,,,,,,,,,,,12,,62,56
1724,note_on,,14,0,9,,,,,,,,,,,,,,,,12,,62,0
1724,note_on,,14,0,7,,,,,,,,,,,,,,,,11,,74,0
1724,note_on,,14,0,6,,,,,,,,,,,,,,,,10,,77,0
1724,note_on,,14,0,8,,,,,,,,,,,,,,,,14,,65,0
1725,note_on,,1,0,7,,,,,,,,,,,,,,,,11,,76,56
1725,note_on,,1,0,6,,,,,,,,,,,,,,,,10,,79,56
1725,note_on,,1,0,9,,,,,,,,,,,,,,,,12,,64,56
1725,note_on,,1,0,8,,,,,,,,,,,,,,,,14,,67,56
1739,note_on,,14,0,7,,,,,,,,,,,,,,,,11,,76,0
1739,note_on,,14,0,9,,,,,,,,,,,,,,,,12,,64,0
1739,note_on,,14,0,8,,,,,,,,,,,,,,,,14,,67,0
1739,note_on,,14,0,6,,,,,,,,,,,,,,,,10,,79,0
1740,note_on,,1,0,8,,,,,,,,,,,,,,,,14,,65,56
1740,note_on,,1,0,6,,,,,,,,,,,,,,,,10,,77,56
1740,note_on,,1,0,9,,,,,,,,,,,,,,,,12,,62,56
1740,note_on,,1,0,7,,,,,,,,,,,,,,,,11,,74,56
1754,note_on,,14,0,7,,,,,,,,,,,,,,,,11,,74,0
1754,note_on,,14,0,9,,,,,,,,,,,,,,,,12,,62,0
1754,note_on,,14,0,6,,,,,,,,,,,,,,,,10,,77,0
1754,note_on,,14,0,8,,,,,,,,,,,,,,,,14,,65,0
1755,note_on,,1,0,6,,,,,,,,,,,,,,,,10,,79,56
1755,note_on,,1,0,9,,,,,,,,,,,,,,,,12,,64,56
1755,note_on,,1,0,7,,,,,,,,,,,,,,,,11,,76,56
1755,note_on,,1,0,8,,,,,,,,,,,,,,,,14,,67,56
1769,note_on,,14,0,7,,,,,,,,,,,,,,,,11,,76,0
1769,note_on,,14,0,6,,,,,,,,,,,,,,,,10,,79,0
1769,note_on,,14,0,9,,,,,,,,,,,,,,,,12,,64,0
1769,note_on,,14,0,8,,,,,,,,,,,,,,,,14,,67,0
1770,note_on,,1,0,6,,,,,,,,,,,,,,,,10,,76,56
1770,note_on,,1,0,9,,,,,,,,,,,,,,,,12,,60,56
1770,note_on,,1,0,8,,,,,,,,,,,,,,,,14,,64,56
1770,note_on,,1,0,7,,,,,,,,,,,,,,,,11,,72,56
1784,note_on,,14,0,9,,,,,,,,,,,,,,,,12,,60,0
1784,note_on,,14,0,7,,,,,,,,,,,,,,,,11,,72,0
1784,note_on,,14,0,8,,,,,,,,,,,,,,,,14,,64,0
1784,note_on,,14,0,6,,,,,,,,,,,,,,,,10,,76,0
1785,note_on,,1,0,6,,,,,,,,,,,,,,,,10,,77,56
1785,note_on,,1,0,7,,,,,,,,,,,,,,,,11,,74,56
1785,note_on,,1,0,9,,,,,,,,,,,,,,,,12,,62,56
1785,note_on,,1,0,8,,,,,,,,,,,,,,,,14,,65,56
1799,note_on,,14,0,6,,,,,,,,,,,,,,,,10,,77,0
1799,note_on,,0,0,11,,,,,,,,,,,,,,,,15,,59,0
1799,note_on,,179,0,11,,,,,,,,,,,,,,,,15,,62,0
1799,note_on,,14,0,7,,,,,,,,,,,,,,,,11,,74,0
1799,note_on,,14,0,9,,,,,,,,,,,,,,,,12,,62,0
1799,note_on,,14,0,8,,,,,,,,,,,,,,,,14,,65,0
1800,note_on,,1,0,9,,,,,,,,,,,,,,,,12,,60,56
1800,note_on,,1,0,6,,,,,,,,,,,,,,,,10,,76,56
1800,note_on,,0,0,11,,,,,,,,,,,,,,,,15,,60,56
1800,note_on,,1,0,11,,,,,,,,,,,,,,,,15,,64,56
1800,note_on,,1,0,8,,,,,,,,,,,,,,,,14,,64,56
1800,note_on,,1,0,7,,,,,,,,,,,,,,,,11,,72,56
2099,note_on,,299,0,6,,,,,,,,,,,,,,,,10,,76,0
2099,note_on,,299,0,11,,,,,,,,,,,,,,,,15,,48,0
2099,note_on,,0,0,11,,,,,,,,,,,,,,,,15,,67,0
2099,note_on,,0,0,11,,,,,,,,,,,,,,,,15,,64,0
2099,note_on,,2099,0,5,,,,,,,,,,,,,,,,2,,48,0
2099,note_on,,299,0,8,,,,,,,,,,,,,,,,14,,64,0
2099,note_on,,299,0,7,,,,,,,,,,,,,,,,11,,72,0
2099,note_on,,299,0,9,,,,,,,,,,,,,,,,12,,60,0
2099,note_on,,2099,0,10,,,,,,,,,,,,,,,,13,,48,0
2099,note_on,,0,0,11,,,,,,,,,,,,,,,,15,,60,0
2100,note_on,,1,0,10,,,,,,,,,,,,,,,,13,,55,56
2100,note_on,,1,0,9,,,,,,,,,,,,,,,,12,,59,56
2100,note_on,,0,0,11,,,,,,,,,,,,,,,,15,,71,56
2100,note_on,,1,0,5,,,,,,,,,,,,,,,,2,,55,56
2100,note_on,,1,0,8,,,,,,,,,,,,,,,,14,,62,56
2100,note_on,,1,0,11,,,,,,,,,,,,,,,,15,,55,56
2100,note_on,,0,0,11,,,,,,,,,,,,,,,,15,,67,56
2100,note_on,,0,0,11,,,,,,,,,,,,,,,,15,,62,56
2100,note_on,,0,0,11,,,,,,,,,,,,,,,,15,,59,56
2100,note_on,,1,0,6,,,,,,,,,,,,,,,,10,,74,56
2100,note_on,,1,0,7,,,,,,,,,,,,,,,,11,,71,56
2159,note_on,,59,0,6,,,,,,,,,,,,,,,,10,,74,0
2159,note_on,,59,0,9,,,,,,,,,,,,,,,,12,,59,0
2159,note_on,,59,0,5,,,,,,,,,,,,,,,,2,,55,0
2159,note_on,,0,0,11,,,,,,,,,,,,,,,,15,,59,0
2159,note_on,,0,0,11,,,,,,,,,,,,,,,,15,,62,0
2159,note_on,,59,0,8,,,,,,,,,,,,,,,,14,,62,0
2159,note_on,,0,0,11,,,,,,,,,,,,,,,,15,,71,0
2159,note_on,,59,0,7,,,,,,,,,,,,,,,,11,,71,0
2159,note_on,,0,0,11,,,,,,,,,,,,,,,,15,,67,0
2159,note_on,,59,0,11,,,,,,,,,,,,,,,,15,,55,0
2159,note_on,,59,0,10,,,,,,,,,,,,,,,,13,,55,0
2160,note_on,,1,0,11,,,,,,,,,,,,,,,,15,,48,56
2160,note_on,,1,0,6,,,,,,,,,,,,,,,,10,,76,56
2160,note_on,,1,0,5,,,,,,,,,,,,,,,,2,,48,56
2160,note_on,,0,0,11,,,,,,,,,,,,,,,,15,,55,56
2160,note_on,,0,0,11,,,,,,,,,,,,,,,,15,,64,56
2160,note_on,,0,0,11,,,,,,,,,,,,,,,,15,,67,56
2160,note_on,,0,0,11,,,,,,,,,,,,,,,,15,,72,56
2160,note_on,,1,0,7,,,,,,,,,,,,,,,,11,,72,56
2160,note_on,,1,0,9,,,,,,,,,,,,,,,,12,,60,56
2160,note_on,,1,0,8,,,,,,,,,,,,,,,,14,,64,56
2160,note_on,,1,0,10,,,,,,,,,,,,,,,,13,,48,56
2249,note_on,,89,0,9,,,,,,,,,,,,,,,,12,,60,0
2249,note_on,,89,0,8,,,,,,,,,,,,,,,,14,,64,0
2249,note_on,,89,0,6,,,,,,,,,,,,,,,,10,,76,0
2249,note_on,,89,0,7,,,,,,,,,,,,,,,,11,,72,0
2250,note_on,,1,0,8,,,,,,,,,,,,,,,,14,,65,56
2250,note_on,,1,0,6,,,,,,,,,,,,,,,,10,,77,56
2250,note_on,,1,0,7,,,,,,,,,,,,,,,,11,,74,56
2250,note_on,,1,0,9,,,,,,,,,,,,,,,,12,,62,56
2279,note_on,,29,0,6,,,,,,,,,,,,,,,,10,,77,0
2279,note_on,,29,0,9,,,,,,,,,,,,,,,,12,,62,0
2279,note_on,,29,0,7,,,,,,,,,,,,,,,,11,,74,0
2279,note_on,,29,0,8,,,,,,,,,,,,,,,,14,,65,0
2280,note_on,,1,0,8,,,,,,,,,,,,,,,,14,,67,56
2280,note_on,,1,0,9,,,,,,,,,,,,,,,,12,,64,56
2280,note_on,,1,0,7,,,,,,,,,,,,,,,,11,,76,56
2280,note_on,,1,0,6,,,,,,,,,,,,,,,,10,,79,56
2339,note_on,,59,0,7,,,,,,,,,,,,,,,,11,,76,0
2339,note_on,,59,0,6,,,,,,,,,,,,,,,,10,,79,0
2339,note_on,,59,0,8,,,,,,,,,,,,,,,,14,,67,0
2339,note_on,,59,0,9,,,,,,,,,,,,,,,,12,,64,0
2340,note_on,,1,0,7,,,,,,,,,,,,,,,,11,,74,56
2340,note_on,,1,0,9,,,,,,,,,,,,,,,,12,,62,56
2340,note_on,,1,0,6,,,,,,,,,,,,,,,,10,,77,56
2340,note_on,,1,0,8,,,,,,,,,,,,,,,,14,,65,56
2429,note_on,,89,0,7,,,,,,,,,,,,,,,,11,,74,0
2429,note_on,,89,0,6,,,,,,,,,,,,,,,,10,,77,0
2429,note_on,,89,0,9,,,,,,,,,,,,,,,,12,,62,0
2429,note_on,,89,0,8,,,,,,,,,,,,,,,,14,,65,0
2430,note_on,,1,0,8,,,,,,,,,,,,,,,,14,,67,56
2430,note_on,,1,0,9,,,,,,,,,,,,,,,,12,,64,56
2430,note_on,,1,0,7,,,,,,,,,,,,,,,,11,,76,56
2430,note_on,,1,0,6,,,,,,,,,,,,,,,,10,,79,56
2459,note_on,,29,0,8,,,,,,,,,,,,,,,,14,,67,0
2459,note_on,,29,0,9,,,,,,,,,,,,,,,,12,,64,0
2459,note_on,,29,0,7,,,,,,,,,,,,,,,,11,,76,0
2459,note_on,,29,0,6,,,,,,,,,,,,,,,,10,,79,0
2460,note_on,,1,0,9,,,,,,,,,,,,,,,,12,,60,56
2460,note_on,,1,0,8,,,,,,,,,,,,,,,,14,,64,56
2460,note_on,,1,0,7,,,,,,,,,,,,,,,,11,,72,56
2460,note_on,,1,0,6,,,,,,,,,,,,,,,,10,,76,56
2519,note_on,,59,0,8,,,,,,,,,,,,,,,,14,,64,0
2519,note_on,,59,0,7,,,,,,,,,,,,,,,,11,,72,0
2519,note_on,,359,0,11,,,,,,,,,,,,,,,,15,,48,0
2519,note_on,,359,0,5,,,,,,,,,,,,,,,,2,,48,0
2519,note_on,,0,0,11,,,,,,,,,,,,,,,,15,,55,0
2519,note_on,,0,0,11,,,,,,,,,,,,,,,,15,,72,0
2519,note_on,,59,0,6,,,,,,,,,,,,,,,,10,,76,0
2519,note_on,,0,0,11,,,,,,,,,,,,,,,,15,,64,0
2519,note_on,,0,0,11,,,,,,,,,,,,,,,,15,,67,0
2519,note_on,,359,0,10,,,,,,,,,,,,,,,,13,,48,0
2519,note_on,,59,0,9,,,,,,,,,,,,,,,,12,,60,0
2520,note_on,,0,0,11,,,,,,,,,,,,,,,,15,,67,56
2520,note_on,,1,0,5,,,,,,,,,,,,,,,,2,,43,56
2520,note_on,,1,0,7,,,,,,,,,,,,,,,,11,,71,56
2520,note_on,,0,0,11,,,,,,,,,,,,,,,,15,,62,56
2520,note_on,,1,0,6,,,,,,,,,,,,,,,,10,,74,56
2520,note_on,,0,0,11,,,,,,,,,,,,,,,,15,,55,56
2520,note_on,,1,0,10,,,,,,,,,,,,,,,,13,,43,56
2520,note_on,,1,0,8,,,,,,,,,,,,,,,,14,,62,56
2520,note_on,,1,0,9,,,,,,,,,,,,,,,,12,,59,56
2520,note_on,,0,0,11,,,,,,,,,,,,,,,,15,,71,56
2520,note_on,,0,0,11,,,,,,,,,,,,,,,,15,,74,56
2520,note_on,,1,0,11,,,,,,,,,,,,,,,,15,,43,56
2639,note_on,,119,0,7,,,,,,,,,,,,,,,,11,,71,0
2639,note_on,,119,0,9,,,,,,,,,,,,,,,,12,,59,0
2640,note_on,,1,0,7,,,,,,,,,,,,,,,,11,,69,56
2640,note_on,,1,0,9,,,,,,,,,,,,,,,,12,,57,56
2699,note_on,,59,0,7,,,,,,,,,,,,,,,,11,,69,0
2699,note_on,,59,0,9,,,,,,,,,,,,,,,,12,,57,0
2699,note_on,,179,0,6,,,,,,,,,,,,,,,,10,,74,0
2699,note_on,,179,0,8,,,,,,,,,,,,,,,,14,,62,0
2700,note_on,,1,0,9,,,,,,,,,,,,,,,,12,,59,56
2700,note_on,,1,0,8,,,,,,,,,,,,,,,,14,,67,56
2700,note_on,,1,0,7,,,,,,,,,,,,,,,,11,,71,56
2700,note_on,,1,0,6,,,,,,,,,,,,,,,,10,,79,56
2789,note_on,,89,0,7,,,,,,,,,,,,,,,,11,,71,0
2789,note_on,,89,0,9,,,,,,,,,,,,,,,,12,,59,0
2790,note_on,,1,0,7,,,,,,,,,,,,,,,,11,,69,56
2790,note_on,,1,0,9,,,,,,,,,,,,,,,,12,,57,56
2819,note_on,,29,0,7,,,,,,,,,,,,,,,,11,,69,0
2819,note_on,,29,0,9,,,,,,,,,,,,,,,,12,,57,0
2819,note_on,,119,0,8,,,,,,,,,,,,,,,,14,,67,0
2819,note_on,,119,0,6,,,,,,,,,,,,,,,,10,,79,0
2820,note_on,,1,0,6,,,,,,,,,,,,,,,,10,,74,56
2820,note_on,,1,0,8,,,,,,,,,,,,,,,,14,,62,56
2820,note_on,,1,0,7,,,,,,,,,,,,,,,,11,,71,56
2820,note_on,,1,0,9,,,,,,,,,,,,,,,,12,,59,56
2879,note_on,,59,0,9,,,,,,,,,,,,,,,,12,,59,0
2879,note_on,,59,0,7,,,,,,,,,,,,,,,,11,,71,0
2879,note_on,,0,0,11,,,,,,,,,,,,,,,,15,,62,0
2879,note_on,,59,0,8,,,,,,,,,,,,,,,,14,,62,0
2879,note_on,,359,0,11,,,,,,,,,,,,,,,,15,,74,0
2879,note_on,,0,0,11,,,,,,,,,,,,,,,,15,,67,0
2879,note_on,,0,0,11,,,,,,,,,,,,,,,,15,,71,0
2879,note_on,,59,0,6,,,,,,,,,,,,,,,,10,,74,0
2880,note_on,,1,0,8,,,,,,,,,,,,,,,,14,,64,56
2880,note_on,,1,0,11,,,,,,,,,,,,,,,,15,,67,56
2880,note_on,,0,0,11,,,,,,,,,,,,,,,,15,,72,56
2880,note_on,,0,0,11,,,,,,,,,,,,,,,,15,,64,56
2880,note_on,,1,0,9,,,,,,,,,,,,,,,,12,,60,56
2880,note_on,,1,0,6,,,,,,,,,,,,,,,,10,,76,56
2880,note_on,,1,0,7,,,,,,,,,,,,,,,,11,,72,56
2894,note_on,,14,0,6,,,,,,,,,,,,,,,,10,,76,0
2894,note_on,,14,0,9,,,,,,,,,,,,,,,,12,,60,0
2894,note_on,,14,0,8,,,,,,,,,,,,,,,,14,,64,0
2894,note_on,,14,0,7,,,,,,,,,,,,,,,,11,,72,0
2895,note_on,,1,0,6,,,,,,,,,,,,,,,,10,,77,56
2895,note_on,,1,0,9,,,,,,,,,,,,,,,,12,,62,56
2895,note_on,,1,0,7,,,,,,,,,,,,,,,,11,,74,56
2895,note_on,,1,0,8,,,,,,,,,,,,,,,,14,,65,56
2909,note_on,,14,0,7,,,,,,,,,,,,,,,,11,,74,0
2909,note_on,,14,0,9,,,,,,,,,,,,,,,,12,,62,0
2909,note_on,,14,0,8,,,,,,,,,,,,,,,,14,,65,0
2909,note_on,,14,0,6,,,,,,,,,,,,,,,,10,,77,0
2910,note_on,,1,0,7,,,,,,,,,,,,,,,,11,,72,56
2910,note_on,,1,0,6,,,,,,,,,,,,,,,,10,,76,56
2910,note_on,,1,0,9,,,,,,,,,,,,,,,,12,,60,56
2910,note_on,,1,0,8,,,,,,,,,,,,,,,,14,,64,56
2924,note_on,,14,0,9,,,,,,,,,,,,,,,,12,,60,0
2924,note_on,,14,0,7,,,,,,,,,,,,,,,,11,,72,0
2924,note_on,,14,0,8,,,,,,,,,,,,,,,,14,,64,0
2924,note_on,,14,0,6,,,,,,,,,,,,,,,,10,,76,0
2925,note_on,,1,0,9,,,,,,,,,,,,,,,,12,,62,56
2925,note_on,,1,0,7,,,,,,,,,,,,,,,,11,,74,56
2925,note_on,,1,0,8,,,,,,,,,,,,,,,,14,,65,56
2925,note_on,,1,0,6,,,,,,,,,,,,,,,,10,,77,56
2939,note_on,,14,0,7,,,,,,,,,,,,,,,,11,,74,0
2939,note_on,,14,0,6,,,,,,,,,,,,,,,,10,,77,0
2939,note_on,,14,0,8,,,,,,,,,,,,,,,,14,,65,0
2939,note_on,,14,0,9,,,,,,,,,,,,,,,,12,,62,0
2940,note_on,,1,0,6,,,,,,,,,,,,,,,,10,,76,56
2940,note_on,,1,0,8,,,,,,,,,,,,,,,,14,,64,56
2940,note_on,,1,0,7,,,,,,,,,,,,,,,,11,,72,56
2940,note_on,,1,0,9,,,,,,,,,,,,,,,,12,,60,56
2954,note_on,,14,0,7,,,,,,,,,,,,,,,,11,,72,0
2954,note_on,,14,0,9,,,,,,,,,,,,,,,,12,,60,0
2954,note_on,,14,0,8,,,,,,,,,,,,,,,,14,,64,0
2954,note_on,,14,0,6,,,,,,,,,,,,,,,,10,,76,0
2955,note_on,,1,0,8,,,,,,,,,,,,,,,,14,,65,56
2955,note_on,,1,0,6,,,,,,,,,,,,,,,,10,,77,56
2955,note_on,,1,0,9,,,,,,,,,,,,,,,,12,,62,56
2955,note_on,,1,0,7,,,,,,,,,,,,,,,,11,,74,56
2969,note_on,,14,0,8,,,,,,,,,,,,,,,,14,,65,0
2969,note_on,,14,0,7,,,,,,,,,,,,,,,,11,,74,0
2969,note_on,,14,0,9,,,,,,,,,,,,,,,,12,,62,0
2969,note_on,,14,0,6,,,,,,,,,,,,,,,,10,,77,0
2970,note_on,,1,0,6,,,,,,,,,,,,,,,,10,,74,56
2970,note_on,,1,0,7,,,,,,,,,,,,,,,,11,,71,56
2970,note_on,,1,0,9,,,,,,,,,,,,,,,,12,,59,56
2970,note_on,,1,0,8,,,,,,,,,,,,,,,,14,,62,56
2984,note_on,,14,0,9,,,,,,,,,,,,,,,,12,,59,0
2984,note_on,,14,0,7,,,,,,,,,,,,,,,,11,,71,0
2984,note_on,,14,0,6,,,,,,,,,,,,,,,,10,,74,0
2984,note_on,,14,0,8,,,,,,,,,,,,,,,,14,,62,0
2985,note_on,,1,0,7,,,,,,,,,,,,,,,,11,,72,56
2985,note_on,,1,0,6,,,,,,,,,,,,,,,,10,,76,56
2985,note_on,,1,0,9,,,,,,,,,,,,,,,,12,,60,56
2985,note_on,,1,0,8,,,,,,,,,,,,,,,,14,,64,56
2999,note_on,,14,0,7,,,,,,,,,,,,,,,,11,,72,0
2999,note_on,,14,0,6,,,,,,,,,,,,,,,,10,,76,0
2999,note_on,,14,0,8,,,,,,,,,,,,,,,,14,,64,0
2999,note_on,,14,0,9,,,,,,,,,,,,,,,,12,,60,0
3000,note_on,,1,0,8,,,,,,,,,,,,,,,,14,,62,56
3000,note_on,,1,0,7,,,,,,,,,,,,,,,,11,,71,56
3000,note_on,,1,0,9,,,,,,,,,,,,,,,,12,,59,56
3000,note_on,,1,0,6,,,,,,,,,,,,,,,,10,,74,56
3059,note_on,,59,0,7,,,,,,,,,,,,,,,,11,,71,0
3059,note_on,,59,0,6,,,,,,,,,,,,,,,,10,,74,0
3059,note_on,,59,0,8,,,,,,,,,,,,,,,,14,,62,0
3059,note_on,,59,0,9,,,,,,,,,,,,,,,,12,,59,0
3060,note_on,,1,0,6,,,,,,,,,,,,,,,,10,,76,56
3060,note_on,,1,0,9,,,,,,,,,,,,,,,,12,,60,56
3060,note_on,,1,0,7,,,,,,,,,,,,,,,,11,,72,56
3060,note_on,,1,0,8,,,,,,,,,,,,,,,,14,,64,56
3149,note_on,,89,0,8,,,,,,,,,,,,,,,,14,,64,0
3149,note_on,,89,0,9,,,,,,,,,,,,,,,,12,,60,0
3149,note_on,,89,0,7,,,,,,,,,,,,,,,,11,,72,0
3149,note_on,,89,0,6,,,,,,,,,,,,,,,,10,,76,0
3150,note_on,,1,0,9,,,,,,,,,,,,,,,,12,,59,56
3150,note_on,,1,0,8,,,,,,,,,,,,,,,,14,,62,56
3150,note_on,,1,0,6,,,,,,,,,,,,,,,,10,,74,56
3150,note_on,,1,0,7,,,,,,,,,,,,,,,,11,,71,56
3179,note_on,,29,0,9,,,,,,,,,,,,,,,,12,,59,0
3179,note_on,,29,0,6,,,,,,,,,,,,,,,,10,,74,0
3179,note_on,,29,0,7,,,,,,,,,,,,,,,,11,,71,0
3179,note_on,,29,0,8,,,,,,,,,,,,,,,,14,,62,0
3180,note_on,,1,0,9,,,,,,,,,,,,,,,,12,,57,56
3180,note_on,,1,0,8,,,,,,,,,,,,,,,,14,,60,56
3180,note_on,,1,0,7,,,,,,,,,,,,,,,,11,,69,56
3180,note_on,,1,0,6,,,,,,,,,,,,,,,,10,,72,56
3239,note_on,,0,0,11,,,,,,,,,,,,,,,,15,,64,0
3239,note_on,,59,0,6,,,,,,,,,,,,,,,,10,,72,0
3239,note_on,,59,0,9,,,,,,,,,,,,,,,,12,,57,0
3239,note_on,,59,0,8,,,,,,,,,,,,,,,,14,,60,0
3239,note_on,,359,0,11,,,,,,,,,,,,,,,,15,,67,0
3239,note_on,,0,0,11,,,,,,,,,,,,,,,,15,,72,0
3239,note_on,,59,0,7,,,,,,,,,,,,,,,,11,,69,0
3240,note_on,,1,0,9,,,,,,,,,,,,,,,,12,,59,56
3240,note_on,,1,0,7,,,,,,,,,,,,,,,,11,,71,56
3240,note_on,,0,0,11,,,,,,,,,,,,,,,,15,,67,56
3240,note_on,,0,0,11,,,,,,,,,,,,,,,,15,,62,56
3240,note_on,,1,0,11,,,,,,,,,,,,,,,,15,,74,56
3240,note_on,,1,0,8,,,,,,,,,,,,,,,,14,,62,56
3240,note_on,,1,0,6,,,,,,,,,,,,,,,,10,,74,56
3240,note_on,,0,0,11,,,,,,,,,,,,,,,,15,,71,56
3359,note_on,,119,0,7,,,,,,,,,,,,,,,,11,,71,0
3359,note_on,,119,0,9,,,,,,,,,,,,,,,,12,,59,0
3360,note_on,,1,0,7,,,,,,,,,,,,,,,,11,,69,56
3360,note_on,,1,0,9,,,,,,,,,,,,,,,,12,,57,56
3419,note_on,,59,0,9,,,,,,,,,,,,,,,,12,,57,0
3419,note_on,,179,0,6,,,,,,,,,,,,,,,,10,,74,0
3419,note_on,,179,0,8,,,,,,,,,,,,,,,,14,,62,0
3419,note_on,,0,0,11,,,,,,,,,,,,,,,,15,,62,0
3419,note_on,,59,0,7,,,,,,,,,,,,,,,,11,,69,0
3419,note_on,,0,0,11,,,,,,,,,,,,,,,,15,,71,0
3419,note_on,,179,0,11,,,,,,,,,,,,,,,,15,,74,0
3419,note_on,,0,0,11,,,,,,,,,,,,,,,,15,,67,0
3420,note_on,,1,0,11,,,,,,,,,,,,,,,,15,,67,56
3420,note_on,,0,0,11,,,,,,,,,,,,,,,,15,,64,56
3420,note_on,,0,0,11,,,,,,,,,,,,,,,,15,,60,56
3420,note_on,,1,0,8,,,,,,,,,,,,,,,,14,,64,56
3420,note_on,,1,0,9,,,,,,,,,,,,,,,,12,,55,56
3420,note_on,,1,0,6,,,,,,,,,,,,,,,,10,,76,56
3420,note_on,,1,0,7,,,,,,,,,,,,,,,,11,,67,56
3449,note_on,,29,0,6,,,,,,,,,,,,,,,,10,,76,0
3449,note_on,,29,0,8,,,,,,,,,,,,,,,,14,,64,0
3450,note_on,,1,0,8,,,,,,,,,,,,,,,,14,,65,56
3450,note_on,,1,0,6,,,,,,,,,,,,,,,,10,,77,56
3479,note_on,,29,0,6,,,,,,,,,,,,,,,,10,,77,0
3479,note_on,,29,0,8,,,,,,,,,,,,,,,,14,,65,0
3480,note_on,,1,0,8,,,,,,,,,,,,,,,,14,,67,56
3480,note_on,,1,0,6,,,,,,,,,,,,,,,,10,,79,56
3599,note_on,,119,0,6,,,,,,,,,,,,,,,,10,,79,0
3599,note_on,,0,0,11,,,,,,,,,,,,,,,,15,,60,0
3599,note_on,,0,0,11,,,,,,,,,,,,,,,,15,,64,0
3599,note_on,,179,0,11,,,,,,,,,,,,,,,,15,,67,0
3599,note_on,,119,0,8,,,,,,,,,,,,,,,,14,,67,0
3599,note_on,,179,0,7,,,,,,,,,,,,,,,,11,,67,0
3599,note_on,,179,0,9,,,,,,,,,,,,,,,,12,,55,0
3600,note_on,,1,0,11,,,,,,,,,,,,,,,,15,,72,56
3600,note_on,,1,0,8,,,,,,,,,,,,,,,,14,,64,56
3600,note_on,,0,0,11,,,,,,,,,,,,,,,,15,,64,56
3600,note_on,,1,0,7,,,,,,,,,,,,,,,,11,,72,56
3600,note_on,,1,0,6,,,,,,,,,,,,,,,,10,,76,56
3600,note_on,,1,0,9,,,,,,,,,,,,,,,,12,,60,56
3600,note_on,,0,0,11,,,,,,,,,,,,,,,,15,,67,56
3719,note_on,,119,0,9,,,,,,,,,,,,,,,,12,,60,0
3719,note_on,,119,0,7,,,,,,,,,,,,,,,,11,,72,0
3719,note_on,,119,0,8,,,,,,,,,,,,,,,,14,,64,0
3719,note_on,,119,0,6,,,,,,,,,,,,,,,,10,,76,0
3720,note_on,,1,0,9,,,,,,,,,,,,,,,,12,,59,56
3720,note_on,,1,0,7,,,,,,,,,,,,,,,,11,,71,56
3720,note_on,,1,0,8,,,,,,,,,,,,,,,,14,,62,56
3720,note_on,,1,0,6,,,,,,,,,,,,,,,,10,,74,56
3734,note_on,,14,0,7,,,,,,,,,,,,,,,,11,,71,0
3734,note_on,,14,0,8,,,,,,,,,,,,,,,,14,,62,0
3734,note_on,,14,0,9,,,,,,,,,,,,,,,,12,,59,0
3734,note_on,,14,0,6,,,,,,,,,,,,,,,,10,,74,0
3735,note_on,,1,0,9,,,,,,,,,,,,,,,,12,,60,56
3735,note_on,,1,0,8,,,,,,,,,,,,,,,,14,,64,56
3735,note_on,,1,0,6,,,,,,,,,,,,,,,,10,,76,56
3735,note_on,,1,0,7,,,,,,,,,,,,,,,,11,,72,56
3749,note_on,,14,0,9,,,,,,,,,,,,,,,,12,,60,0
3749,note_on,,14,0,6,,,,,,,,,,,,,,,,10,,76,0
3749,note_on,,14,0,8,,,,,,,,,,,,,,,,14,,64,0
3749,note_on,,14,0,7,,,,,,,,,,,,,,,,11,,72,0
3750,note_on,,1,0,9,,,,,,,,,,,,,,,,12,,62,56
3750,note_on,,1,0,8,,,,,,,,,,,,,,,,14,,65,56
3750,note_on,,1,0,7,,,,,,,,,,,,,,,,11,,74,56
3750,note_on,,1,0,6,,,,,,,,,,,,,,,,10,,77,56
3779,note_on,,0,0,11,,,,,,,,,,,,,,,,15,,64,0
3779,note_on,,29,0,9,,,,,,,,,,,,,,,,12,,62,0
3779,note_on,,29,0,7,,,,,,,,,,,,,,,,11,,74,0
3779,note_on,,179,0,11,,,,,,,,,,,,,,,,15,,72,0
3779,note_on,,0,0,11,,,,,,,,,,,,,,,,15,,67,0
3779,note_on,,29,0,8,,,,,,,,,,,,,,,,14,,65,0
3779,note_on,,29,0,6,,,,,,,,,,,,,,,,10,,77,0
3780,note_on,,1,0,11,,,,,,,,,,,,,,,,15,,76,56
3780,note_on,,1,0,7,,,,,,,,,,,,,,,,11,,72,56
3780,note_on,,1,0,9,,,,,,,,,,,,,,,,12,,60,56
3780,note_on,,0,0,11,,,,,,,,,,,,,,,,15,,72,56
3780,note_on,,0,0,11,,,,,,,,,,,,,,,,15,,67,56
3780,note_on,,1,0,6,,,,,,,,,,,,,,,,10,,76,56
3780,note_on,,1,0,8,,,,,,,,,,,,,,,,14,,64,56
3794,note_on,,14,0,9,,,,,,,,,,,,,,,,12,,60,0
3794,note_on,,14,0,7,,,,,,,,,,,,,,,,11,,72,0
3794,note_on,,14,0,6,,,,,,,,,,,,,,,,10,,76,0
3794,note_on,,14,0,8,,,,,,,,,,,,,,,,14,,64,0
3795,note_on,,1,0,9,,,,,,,,,,,,,,,,12,,62,56
3795,note_on,,1,0,7,,,,,,,,,,,,,,,,11,,74,56
3795,note_on,,1,0,6,,,,,,,,,,,,,,,,10,,77,56
3795,note_on,,1,0,8,,,,,,,,,,,,,,,,14,,65,56
3809,note_on,,14,0,9,,,,,,,,,,,,,,,,12,,62,0
3809,note_on,,14,0,6,,,,,,,,,,,,,,,,10,,77,0
3809,note_on,,14,0,7,,,,,,,,,,,,,,,,11,,74,0
3809,note_on,,14,0,8,,,,,,,,,,,,,,,,14,,65,0
3810,note_on,,1,0,6,,,,,,,,,,,,,,,,10,,76,56
3810,note_on,,1,0,8,,,,,,,,,,,,,,,,14,,64,56
3810,note_on,,1,0,9,,,,,,,,,,,,,,,,12,,60,56
3810,note_on,,1,0,7,,,,,,,,,,,,,,,,11,,72,56
3824,note_on,,14,0,7,,,,,,,,,,,,,,,,11,,72,0
3824,note_on,,14,0,6,,,,,,,,,,,,,,,,10,,76,0
3824,note_on,,14,0,9,,,,,,,,,,,,,,,,12,,60,0
3824,note_on,,14,0,8,,,,,,,,,,,,,,,,14,,64,0
3825,note_on,,1,0,7,,,,,,,,,,,,,,,,11,,74,56
3825,note_on,,1,0,6,,,,,,,,,,,,,,,,10,,77,56
3825,note_on,,1,0,8,,,,,,,,,,,,,,,,14,,65,56
3825,note_on,,1,0,9,,,,,,,,,,,,,,,,12,,62,56
3839,note_on,,14,0,9,,,,,,,,,,,,,,,,12,,62,0
3839,note_on,,14,0,8,,,,,,,,,,,,,,,,14,,65,0
3839,note_on,,14,0,6,,,,,,,,,,,,,,,,10,,77,0
3839,note_on,,14,0,7,,,,,,,,,,,,,,,,11,,74,0
3840,note_on,,1,0,6,,,,,,,,,,,,,,,,10,,76,56
3840,note_on,,1,0,8,,,,,,,,,,,,,,,,14,,64,56
3840,note_on,,1,0,9,,,,,,,,,,,,,,,,12,,60,56
3840,note_on,,1,0,7,,,,,,,,,,,,,,,,11,,72,56
3854,note_on,,14,0,9,,,,,,,,,,,,,,,,12,,60,0
3854,note_on,,14,0,6,,,,,,,,,,,,,,,,10,,76,0
3854,note_on,,14,0,8,,,,,,,,,,,,,,,,14,,64,0
3854,note_on,,14,0,7,,,,,,,,,,,,,,,,11,,72,0
3855,note_on,,1,0,7,,,,,,,,,,,,,,,,11,,74,56
3855,note_on,,1,0,9,,,,,,,,,,,,,,,,12,,62,56
3855,note_on,,1,0,8,,,,,,,,,,,,,,,,14,,65,56
3855,note_on,,1,0,6,,,,,,,,,,,,,,,,10,,77,56
3869,note_on,,14,0,9,,,,,,,,,,,,,,,,12,,62,0
3869,note_on,,14,0,7,,,,,,,,,,,,,,,,11,,74,0
3869,note_on,,14,0,8,,,,,,,,,,,,,,,,14,,65,0
3869,note_on,,14,0,6,,,,,,,,,,,,,,,,10,,77,0
3870,note_on,,1,0,9,,,,,,,,,,,,,,,,12,,60,56
3870,note_on,,1,0,7,,,,,,,,,,,,,,,,11,,72,56
3870,note_on,,1,0,8,,,,,,,,,,,,,,,,14,,64,56
3870,note_on,,1,0,6,,,,,,,,,,,,,,,,10,,76,56
3884,note_on,,14,0,9,,,,,,,,,,,,,,,,12,,60,0
3884,note_on,,14,0,7,,,,,,,,,,,,,,,,11,,72,0
3884,note_on,,14,0,8,,,,,,,,,,,,,,,,14,,64,0
3884,note_on,,14,0,6,,,,,,,,,,,,,,,,10,,76,0
3885,note_on,,1,0,9,,,,,,,,,,,,,,,,12,,62,56
3885,note_on,,1,0,7,,,,,,,,,,,,,,,,11,,74,56
3885,note_on,,1,0,6,,,,,,,,,,,,,,,,10,,77,56
3885,note_on,,1,0,8,,,,,,,,,,,,,,,,14,,65,56
3899,note_on,,14,0,7,,,,,,,,,,,,,,,,11,,74,0
3899,note_on,,14,0,9,,,,,,,,,,,,,,,,12,,62,0
3899,note_on,,14,0,8,,,,,,,,,,,,,,,,14,,65,0
3899,note_on,,14,0,6,,,,,,,,,,,,,,,,10,,77,0
3900,note_on,,1,0,8,,,,,,,,,,,,,,,,14,,64,56
3900,note_on,,1,0,6,,,,,,,,,,,,,,,,10,,76,56
3900,note_on,,1,0,9,,,,,,,,,,,,,,,,12,,60,56
3900,note_on,,1,0,7,,,,,,,,,,,,,,,,11,,72,56
3914,note_on,,14,0,8,,,,,,,,,,,,,,,,14,,64,0
3914,note_on,,14,0,7,,,,,,,,,,,,,,,,11,,72,0
3914,note_on,,14,0,6,,,,,,,,,,,,,,,,10,,76,0
3914,note_on,,14,0,9,,,,,,,,,,,,,,,,12,,60,0
3915,note_on,,1,0,8,,,,,,,,,,,,,,,,14,,65,56
3915,note_on,,1,0,6,,,,,,,,,,,,,,,,10,,77,56
3915,note_on,,1,0,7,,,,,,,,,,,,,,,,11,,74,56
3915,note_on,,1,0,9,,,,,,,,,,,,,,,,12,,62,56
3929,note_on,,14,0,6,,,,,,,,,,,,,,,,10,,77,0
3929,note_on,,14,0,7,,,,,,,,,,,,,,,,11,,74,0
3929,note_on,,14,0,8,,,,,,,,,,,,,,,,14,,65,0
3929,note_on,,14,0,9,,,,,,,,,,,,,,,,12,,62,0
3930,note_on,,1,0,7,,,,,,,,,,,,,,,,11,,71,56
3930,note_on,,1,0,8,,,,,,,,,,,,,,,,14,,62,56
3930,note_on,,1,0,6,,,,,,,,,,,,,,,,10,,74,56
3930,note_on,,1,0,9,,,,,,,,,,,,,,,,12,,59,56
3944,note_on,,14,0,7,,,,,,,,,,,,,,,,11,,71,0
3944,note_on,,14,0,8,,,,,,,,,,,,,,,,14,,62,0
3944,note_on,,14,0,6,,,,,,,,,,,,,,,,10,,74,0
3944,note_on,,14,0,9,,,,,,,,,,,,,,,,12,,59,0
3945,note_on,,1,0,9,,,,,,,,,,,,,,,,12,,60,56
3945,note_on,,1,0,7,,,,,,,,,,,,,,,,11,,72,56
3945,note_on,,1,0,6,,,,,,,,,,,,,,,,10,,76,56
3945,note_on,,1,0,8,,,,,,,,,,,,,,,,14,,64,56
3959,note_on,,1439,0,5,,,,,,,,,,,,,,,,2,,43,0
3959,note_on,,179,0,11,,,,,,,,,,,,,,,,15,,43,0
3959,note_on,,0,0,11,,,,,,,,,,,,,,,,15,,55,0
3959,note_on,,0,0,11,,,,,,,,,,,,,,,,15,,76,0
3959,note_on,,0,0,11,,,,,,,,,,,,,,,,15,,72,0
3959,note_on,,0,0,11,,,,,,,,,,,,,,,,15,,67,0
3959,note_on,,1439,0,10,,,,,,,,,,,,,,,,13,,43,0
3959,note_on,,14,0,7,,,,,,,,,,,,,,,,11,,72,0
3959,note_on,,14,0,8,,,,,,,,,,,,,,,,14,,64,0
3959,note_on,,14,0,6,,,,,,,,,,,,,,,,10,,76,0
3959,note_on,,14,0,9,,,,,,,,,,,,,,,,12,,60,0
3960,note_on,,1,0,9,,,,,,,,,,,,,,,,12,,59,56
3960,note_on,,0,0,11,,,,,,,,,,,,,,,,15,,71,56
3960,note_on,,0,0,11,,,,,,,,,,,,,,,,15,,74,56
3960,note_on,,0,0,11,,,,,,,,,,,,,,,,15,,79,56
3960,note_on,,1,0,11,,,,,,,,,,,,,,,,15,,43,56
3960,note_on,,1,0,6,,,,,,,,,,,,,,,,10,,74,56
3960,note_on,,1,0,8,,,,,,,,,,,,,,,,14,,62,56
3960,note_on,,0,0,11,,,,,,,,,,,,,,,,15,,55,56
3960,note_on,,1,0,7,,,,,,,,,,,,,,,,11,,71,56
3960,note_on,,1,0,5,,,,,,,,,,,,,,,,2,,43,56
3960,note_on,,1,0,10,,,,,,,,,,,,,,,,13,,43,56
3960,note_on,,0,0,11,,,,,,,,,,,,,,,,15,,67,56
4079,note_on,,119,0,6,,,,,,,,,,,,,,,,10,,74,0
4079,note_on,,119,0,8,,,,,,,,,,,,,,,,14,,62,0
4080,note_on,,1,0,8,,,,,,,,,,,,,,,,14,,55,56
4080,note_on,,1,0,6,,,,,,,,,,,,,,,,10,,67,56
4139,note_on,,59,0,6,,,,,,,,,,,,,,,,10,,67,0
4139,note_on,,179,0,7,,,,,,,,,,,,,,,,11,,71,0
4139,note_on,,179,0,5,,,,,,,,,,,,,,,,2,,43,0
4139,note_on,,0,0,11,,,,,,,,,,,,,,,,15,,79,0
4139,note_on,,59,0,8,,,,,,,,,,,,,,,,14,,55,0
4139,note_on,,0,0,11,,,,,,,,,,,,,,,,15,,74,0
4139,note_on,,0,0,11,,,,,,,,,,,,,,,,15,,71,0
4139,note_on,,0,0,11,,,,,,,,,,,,,,,,15,,67,0
4139,note_on,,0,0,11,,,,,,,,,,,,,,,,15,,55,0
4139,note_on,,179,0,11,,,,,,,,,,,,,,,,15,,43,0
4139,note_on,,179,0,10,,,,,,,,,,,,,,,,13,,43,0
4139,note_on,,179,0,9,,,,,,,,,,,,,,,,12,,59,0
4140,note_on,,1,0,6,,,,,,,,,,,,,,,,10,,79,56
4140,note_on,,1,0,8,,,,,,,,,,,,,,,,14,,67,56
4260,note_on,,121,0,5,,,,,,,,,,,,,,,,2,,52,56
4260,note_on,,121,0,11,,,,,,,,,,,,,,,,15,,52,56
4260,note_on,,121,0,10,,,,,,,,,,,,,,,,13,,52,56
4260,note_on,,0,0,11,,,,,,,,,,,,,,,,15,,72,56
4260,note_on,,0,0,11,,,,,,,,,,,,,,,,15,,67,56
4260,note_on,,0,0,11,,,,,,,,,,,,,,,,15,,55,56
4260,note_on,,121,0,7,,,,,,,,,,,,,,,,11,,67,56
4260,note_on,,121,0,9,,,,,,,,,,,,,,,,12,,55,56
4319,note_on,,59,0,9,,,,,,,,,,,,,,,,12,,55,0
4319,note_on,,59,0,11,,,,,,,,,,,,,,,,15,,52,0
4319,note_on,,59,0,5,,,,,,,,,,,,,,,,2,,52,0
4319,note_on,,59,0,7,,,,,,,,,,,,,,,,11,,67,0
4319,note_on,,0,0,11,,,,,,,,,,,,,,,,15,,55,0
4319,note_on,,59,0,10,,,,,,,,,,,,,,,,13,,52,0
4319,note_on,,0,0,11,,,,,,,,,,,,,,,,15,,67,0
4319,note_on,,0,0,11,,,,,,,,,,,,,,,,15,,72,0
4320,note_on,,1,0,9,,,,,,,,,,,,,,,,12,,57,56
4320,note_on,,1,0,7,,,,,,,,,,,,,,,,11,,69,56
4320,note_on,,0,0,11,,,,,,,,,,,,,,,,15,,60,56
4320,note_on,,1,0,11,,,,,,,,,,,,,,,,15,,53,56
4320,note_on,,1,0,5,,,,,,,,,,,,,,,,2,,53,56
4320,note_on,,0,0,11,,,,,,,,,,,,,,,,15,,69,56
4320,note_on,,0,0,11,,,,,,,,,,,,,,,,15,,57,56
4320,note_on,,1,0,10,,,,,,,,,,,,,,,,13,,53,56
4334,note_on,,14,0,9,,,,,,,,,,,,,,,,12,,57,0
4334,note_on,,14,0,7,,,,,,,,,,,,,,,,11,,69,0
4335,note_on,,1,0,9,,,,,,,,,,,,,,,,12,,59,56
4335,note_on,,1,0,7,,,,,,,,,,,,,,,,11,,71,56
4349,note_on,,14,0,9,,,,,,,,,,,,,,,,12,,59,0
4349,note_on,,14,0,7,,,,,,,,,,,,,,,,11,,71,0
4350,note_on,,1,0,7,,,,,,,,,,,,,,,,11,,69,56
4350,note_on,,1,0,9,,,,,,,,,,,,,,,,12,,57,56
4364,note_on,,14,0,7,,,,,,,,,,,,,,,,11,,69,0
4364,note_on,,14,0,9,,,,,,,,,,,,,,,,12,,57,0
4365,note_on,,1,0,7,,,,,,,,,,,,,,,,11,,71,56
4365,note_on,,1,0,9,,,,,,,,,,,,,,,,12,,59,56
4379,note_on,,14,0,9,,,,,,,,,,,,,,,,12,,59,0
4379,note_on,,14,0,7,,,,,,,,,,,,,,,,11,,71,0
4380,note_on,,1,0,7,,,,,,,,,,,,,,,,11,,69,56
4380,note_on,,1,0,9,,,,,,,,,,,,,,,,12,,57,56
4394,note_on,,14,0,9,,,,,,,,,,,,,,,,12,,57,0
4394,note_on,,14,0,7,,,,,,,,,,,,,,,,11,,69,0
4395,note_on,,1,0,7,,,,,,,,,,,,,,,,11,,71,56
4395,note_on,,1,0,9,,,,,,,,,,,,,,,,12,,59,56
4409,note_on,,14,0,9,,,,,,,,,,,,,,,,12,,59,0
4409,note_on,,14,0,7,,,,,,,,,,,,,,,,11,,71,0
4410,note_on,,1,0,7,,,,,,,,,,,,,,,,11,,67,56
4410,note_on,,1,0,9,,,,,,,,,,,,,,,,12,,55,56
4424,note_on,,14,0,7,,,,,,,,,,,,,,,,11,,67,0
4424,note_on,,14,0,9,,,,,,,,,,,,,,,,12,,55,0
4425,note_on,,1,0,9,,,,,,,,,,,,,,,,12,,57,56
4425,note_on,,1,0,7,,,,,,,,,,,,,,,,11,,69,56
4439,note_on,,14,0,9,,,,,,,,,,,,,,,,12,,57,0
4439,note_on,,14,0,7,,,,,,,,,,,,,,,,11,,69,0
4440,note_on,,1,0,9,,,,,,,,,,,,,,,,12,,55,56
4440,note_on,,1,0,7,,,,,,,,,,,,,,,,11,,67,56
4499,note_on,,59,0,9,,,,,,,,,,,,,,,,12,,55,0
4499,note_on,,179,0,10,,,,,,,,,,,,,,,,13,,53,0
4499,note_on,,359,0,8,,,,,,,,,,,,,,,,14,,67,0
4499,note_on,,359,0,6,,,,,,,,,,,,,,,,10,,79,0
4499,note_on,,179,0,11,,,,,,,,,,,,,,,,15,,53,0
4499,note_on,,179,0,5,,,,,,,,,,,,,,,,2,,53,0
4499,note_on,,0,0,11,,,,,,,,,,,,,,,,15,,69,0
4499,note_on,,0,0,11,,,,,,,,,,,,,,,,15,,60,0
4499,note_on,,0,0,11,,,,,,,,,,,,,,,,15,,57,0
4499,note_on,,59,0,7,,,,,,,,,,,,,,,,11,,67,0
4500,note_on,,1,0,7,,,,,,,,,,,,,,,,11,,69,56
4500,note_on,,1,0,5,,,,,,,,,,,,,,,,2,,50,56
4500,note_on,,1,0,8,,,,,,,,,,,,,,,,14,,65,56
4500,note_on,,1,0,11,,,,,,,,,,,,,,,,15,,50,56
4500,note_on,,1,0,10,,,,,,,,,,,,,,,,13,,50,56
4500,note_on,,1,0,9,,,,,,,,,,,,,,,,12,,57,56
4500,note_on,,0,0,11,,,,,,,,,,,,,,,,15,,69,56
4500,note_on,,0,0,11,,,,,,,,,,,,,,,,15,,62,56
4500,note_on,,0,0,11,,,,,,,,,,,,,,,,15,,53,56
4500,note_on,,1,0,6,,,,,,,,,,,,,,,,10,,77,56
4619,note_on,,119,0,7,,,,,,,,,,,,,,,,11,,69,0
4619,note_on,,119,0,9,,,,,,,,,,,,,,,,12,,57,0
4620,note_on,,1,0,7,,,,,,,,,,,,,,,,11,,71,56
4620,note_on,,1,0,9,,,,,,,,,,,,,,,,12,,59,56
4679,note_on,,179,0,10,,,,,,,,,,,,,,,,13,,50,0
4679,note_on,,0,0,11,,,,,,,,,,,,,,,,15,,53,0
4679,note_on,,0,0,11,,,,,,,,,,,,,,,,15,,62,0
4679,note_on,,0,0,11,,,,,,,,,,,,,,,,15,,69,0
4679,note_on,,179,0,11,,,,,,,,,,,,,,,,15,,50,0
4679,note_on,,59,0,7,,,,,,,,,,,,,,,,11,,71,0
4679,note_on,,179,0,5,,,,,,,,,,,,,,,,2,,50,0
4679,note_on,,179,0,8,,,,,,,,,,,,,,,,14,,65,0
4679,note_on,,179,0,6,,,,,,,,,,,,,,,,10,,77,0
4679,note_on,,59,0,9,,,,,,,,,,,,,,,,12,,59,0
4680,note_on,,1,0,8,,,,,,,,,,,,,,,,14,,65,56
4680,note_on,,0,0,11,,,,,,,,,,,,,,,,15,,72,56
4680,note_on,,1,0,7,,,,,,,,,,,,,,,,11,,72,56
4680,note_on,,0,0,11,,,,,,,,,,,,,,,,15,,67,56
4680,note_on,,1,0,6,,,,,,,,,,,,,,,,10,,77,56
4680,note_on,,1,0,5,,,,,,,,,,,,,,,,2,,48,56
4680,note_on,,1,0,9,,,,,,,,,,,,,,,,12,,60,56
4680,note_on,,0,0,11,,,,,,,,,,,,,,,,15,,55,56
4680,note_on,,1,0,11,,,,,,,,,,,,,,,,15,,48,56
4680,note_on,,1,0,10,,,,,,,,,,,,,,,,13,,48,56
4694,note_on,,14,0,6,,,,,,,,,,,,,,,,10,,77,0
4694,note_on,,14,0,8,,,,,,,,,,,,,,,,14,,65,0
4695,note_on,,1,0,8,,,,,,,,,,,,,,,,14,,67,56
4695,note_on,,1,0,6,,,,,,,,,,,,,,,,10,,79,56
4709,note_on,,14,0,8,,,,,,,,,,,,,,,,14,,67,0
4709,note_on,,14,0,6,,,,,,,,,,,,,,,,10,,79,0
4710,note_on,,1,0,6,,,,,,,,,,,,,,,,10,,77,56
4710,note_on,,1,0,8,,,,,,,,,,,,,,,,14,,65,56
4724,note_on,,14,0,8,,,,,,,,,,,,,,,,14,,65,0
4724,note_on,,14,0,6,,,,,,,,,,,,,,,,10,,77,0
4725,note_on,,1,0,8,,,,,,,,,,,,,,,,14,,67,56
4725,note_on,,1,0,6,,,,,,,,,,,,,,,,10,,79,56
4739,note_on,,14,0,6,,,,,,,,,,,,,,,,10,,79,0
4739,note_on,,14,0,8,,,,,,,,,,,,,,,,14,,67,0
4740,note_on,,1,0,8,,,,,,,,,,,,,,,,14,,64,56
4740,note_on,,1,0,6,,,,,,,,,,,,,,,,10,,76,56
4754,note_on,,14,0,8,,,,,,,,,,,,,,,,14,,64,0
4754,note_on,,14,0,6,,,,,,,,,,,,,,,,10,,76,0
4755,note_on,,1,0,8,,,,,,,,,,,,,,,,14,,65,56
4755,note_on,,1,0,6,,,,,,,,,,,,,,,,10,,77,56
4769,note_on,,14,0,8,,,,,,,,,,,,,,,,14,,65,0
4769,note_on,,14,0,6,,,,,,,,,,,,,,,,10,,77,0
4770,note_on,,1,0,8,,,,,,,,,,,,,,,,14,,64,56
4770,note_on,,1,0,6,,,,,,,,,,,,,,,,10,,76,56
4799,note_on,,29,0,6,,,,,,,,,,,,,,,,10,,76,0
4799,note_on,,119,0,9,,,,,,,,,,,,,,,,12,,60,0
4799,note_on,,29,0,8,,,,,,,,,,,,,,,,14,,64,0
4799,note_on,,119,0,7,,,,,,,,,,,,,,,,11,,72,0
4800,note_on,,1,0,7,,,,,,,,,,,,,,,,11,,67,56
4800,note_on,,1,0,8,,,,,,,,,,,,,,,,14,,62,56
4800,note_on,,1,0,6,,,,,,,,,,,,,,,,10,,74,56
4800,note_on,,1,0,9,,,,,,,,,,,,,,,,12,,55,56
4859,note_on,,59,0,8,,,,,,,,,,,,,,,,14,,62,0
4859,note_on,,179,0,10,,,,,,,,,,,,,,,,13,,48,0
4859,note_on,,59,0,6,,,,,,,,,,,,,,,,10,,74,0
4859,note_on,,59,0,9,,,,,,,,,,,,,,,,12,,55,0
4859,note_on,,0,0,11,,,,,,,,,,,,,,,,15,,55,0
4859,note_on,,0,0,11,,,,,,,,,,,,,,,,15,,67,0
4859,note_on,,0,0,11,,,,,,,,,,,,,,,,15,,72,0
4859,note_on,,179,0,11,,,,,,,,,,,,,,,,15,,48,0
4859,note_on,,179,0,5,,,,,,,,,,,,,,,,2,,48,0
4859,note_on,,59,0,7,,,,,,,,,,,,,,,,11,,67,0
4860,note_on,,1,0,7,,,,,,,,,,,,,,,,11,,72,56
4860,note_on,,1,0,8,,,,,,,,,,,,,,,,14,,64,56
4860,note_on,,1,0,6,,,,,,,,,,,,,,,,10,,76,56
4860,note_on,,1,0,9,,,,,,,,,,,,,,,,12,,60,56
4979,note_on,,119,0,8,,,,,,,,,,,,,,,,14,,64,0
4979,note_on,,119,0,6,,,,,,,,,,,,,,,,10,,76,0
4980,note_on,,121,0,5,,,,,,,,,,,,,,,,2,,57,56
4980,note_on,,1,0,8,,,,,,,,,,,,,,,,14,,60,56
4980,note_on,,0,0,11,,,,,,,,,,,,,,,,15,,65,56
4980,note_on,,0,0,11,,,,,,,,,,,,,,,,15,,72,56
4980,note_on,,121,0,11,,,,,,,,,,,,,,,,15,,57,56
4980,note_on,,1,0,6,,,,,,,,,,,,,,,,10,,72,56
4980,note_on,,121,0,10,,,,,,,,,,,,,,,,13,,57,56
4980,note_on,,0,0,11,,,,,,,,,,,,,,,,15,,69,56
5039,note_on,,59,0,6,,,,,,,,,,,,,,,,10,,72,0
5039,note_on,,59,0,10,,,,,,,,,,,,,,,,13,,57,0
5039,note_on,,59,0,5,,,,,,,,,,,,,,,,2,,57,0
5039,note_on,,59,0,8,,,,,,,,,,,,,,,,14,,60,0
5039,note_on,,0,0,11,,,,,,,,,,,,,,,,15,,69,0
5039,note_on,,0,0,11,,,,,,,,,,,,,,,,15,,72,0
5039,note_on,,59,0,11,,,,,,,,,,,,,,,,15,,57,0
5039,note_on,,0,0,11,,,,,,,,,,,,,,,,15,,65,0
5040,note_on,,0,0,11,,,,,,,,,,,,,,,,15,,65,56
5040,note_on,,1,0,11,,,,,,,,,,,,,,,,15,,58,56
5040,note_on,,1,0,6,,,,,,,,,,,,,,,,10,,74,56
5040,note_on,,0,0,11,,,,,,,,,,,,,,,,15,,74,56
5040,note_on,,1,0,8,,,,,,,,,,,,,,,,14,,62,56
5040,note_on,,1,0,10,,,,,,,,,,,,,,,,13,,58,56
5040,note_on,,0,0,11,,,,,,,,,,,,,,,,15,,62,56
5040,note_on,,1,0,5,,,,,,,,,,,,,,,,2,,58,56
5159,note_on,,119,0,8,,,,,,,,,,,,,,,,14,,62,0
5159,note_on,,119,0,6,,,,,,,,,,,,,,,,10,,74,0
5160,note_on,,1,0,6,,,,,,,,,,,,,,,,10,,72,56
5160,note_on,,1,0,8,,,,,,,,,,,,,,,,14,,60,56
5219,note_on,,59,0,8,,,,,,,,,,,,,,,,14,,60,0
5219,note_on,,359,0,7,,,,,,,,,,,,,,,,11,,72,0
5219,note_on,,59,0,6,,,,,,,,,,,,,,,,10,,72,0
5219,note_on,,0,0,11,,,,,,,,,,,,,,,,15,,62,0
5219,note_on,,0,0,11,,,,,,,,,,,,,,,,15,,65,0
5219,note_on,,0,0,11,,,,,,,,,,,,,,,,15,,74,0
5219,note_on,,179,0,10,,,,,,,,,,,,,,,,13,,58,0
5219,note_on,,179,0,11,,,,,,,,,,,,,,,,15,,58,0
5219,note_on,,179,0,5,,,,,,,,,,,,,,,,2,,58,0
5219,note_on,,359,0,9,,,,,,,,,,,,,,,,12,,60,0
5220,note_on,,1,0,9,,,,,,,,,,,,,,,,12,,58,56
5220,note_on,,1,0,11,,,,,,,,,,,,,,,,15,,55,56
5220,note_on,,0,0,11,,,,,,,,,,,,,,,,15,,70,56
5220,note_on,,1,0,7,,,,,,,,,,,,,,,,11,,70,56
5220,note_on,,1,0,8,,,,,,,,,,,,,,,,14,,62,56
5220,note_on,,0,0,11,,,,,,,,,,,,,,,,15,,62,56
5220,note_on,,1,0,10,,,,,,,,,,,,,,,,13,,55,56
5220,note_on,,1,0,5,,,,,,,,,,,,,,,,2,,55,56
5220,note_on,,0,0,11,,,,,,,,,,,,,,,,15,,67,56
5220,note_on,,1,0,6,,,,,,,,,,,,,,,,10,,74,56
5339,note_on,,119,0,8,,,,,,,,,,,,,,,,14,,62,0
5339,note_on,,119,0,6,,,,,,,,,,,,,,,,10,,74,0
5340,note_on,,1,0,8,,,,,,,,,,,,,,,,14,,64,56
5340,note_on,,1,0,6,,,,,,,,,,,,,,,,10,,76,56
5399,note_on,,59,0,6,,,,,,,,,,,,,,,,10,,76,0
5399,note_on,,179,0,5,,,,,,,,,,,,,,,,2,,55,0
5399,note_on,,179,0,10,,,,,,,,,,,,,,,,13,,55,0
5399,note_on,,59,0,8,,,,,,,,,,,,,,,,14,,64,0
5399,note_on,,0,0,11,,,,,,,,,,,,,,,,15,,67,0
5399,note_on,,0,0,11,,,,,,,,,,,,,,,,15,,62,0
5399,note_on,,179,0,11,,,,,,,,,,,,,,,,15,,55,0
5399,note_on,,0,0,11,,,,,,,,,,,,,,,,15,,70,0
5400,note_on,,1,0,5,,,,,,,,,,,,,,,,2,,53,56
5400,note_on,,1,0,11,,,,,,,,,,,,,,,,15,,53,56
5400,note_on,,0,0,11,,,,,,,,,,,,,,,,15,,77,56
5400,note_on,,0,0,11,,,,,,,,,,,,,,,,15,,72,56
5400,note_on,,0,0,11,,,,,,,,,,,,,,,,15,,65,56
5400,note_on,,1,0,8,,,,,,,,,,,,,,,,14,,65,56
5400,note_on,,1,0,10,,,,,,,,,,,,,,,,13,,53,56
5400,note_on,,1,0,6,,,,,,,,,,,,,,,,10,,77,56
5519,note_on,,299,0,7,,,,,,,,,,,,,,,,11,,70,0
5519,note_on,,119,0,6,,,,,,,,,,,,,,,,10,,77,0
5519,note_on,,119,0,8,,,,,,,,,,,,,,,,14,,65,0
5519,note_on,,299,0,9,,,,,,,,,,,,,,,,12,,58,0
5520,note_on,,1,0,6,,,,,,,,,,,,,,,,10,,72,56
5520,note_on,,1,0,8,,,,,,,,,,,,,,,,14,,60,56
5520,note_on,,1,0,9,,,,,,,,,,,,,,,,12,,57,56
5520,note_on,,1,0,7,,,,,,,,,,,,,,,,11,,69,56
5579,note_on,,59,0,8,,,,,,,,,,,,,,,,14,,60,0
5579,note_on,,59,0,6,,,,,,,,,,,,,,,,10,,72,0
5579,note_on,,59,0,7,,,,,,,,,,,,,,,,11,,69,0
5579,note_on,,179,0,10,,,,,,,,,,,,,,,,13,,53,0
5579,note_on,,179,0,11,,,,,,,,,,,,,,,,15,,53,0
5579,note_on,,179,0,5,,,,,,,,,,,,,,,,2,,53,0
5579,note_on,,0,0,11,,,,,,,,,,,,,,,,15,,72,0
5579,note_on,,0,0,11,,,,,,,,,,,,,,,,15,,65,0
5579,note_on,,59,0,9,,,,,,,,,,,,,,,,12,,57,0
5579,note_on,,0,0,11,,,,,,,,,,,,,,,,15,,77,0
5580,note_on,,1,0,9,,,,,,,,,,,,,,,,12,,62,56
5580,note_on,,1,0,6,,,,,,,,,,,,,,,,10,,77,56
5580,note_on,,1,0,8,,,,,,,,,,,,,,,,14,,65,56
5580,note_on,,1,0,7,,,,,,,,,,,,,,,,11,,74,56
5700,note_on,,121,0,5,,,,,,,,,,,,,,,,2,,50,56
5700,note_on,,121,0,11,,,,,,,,,,,,,,,,15,,50,56
5700,note_on,,0,0,11,,,,,,,,,,,,,,,,15,,53,56
5700,note_on,,121,0,10,,,,,,,,,,,,,,,,13,,50,56
5700,note_on,,0,0,11,,,,,,,,,,,,,,,,15,,62,56
5700,note_on,,0,0,11,,,,,,,,,,,,,,,,15,,65,56
5759,note_on,,59,0,11,,,,,,,,,,,,,,,,15,,50,0
5759,note_on,,59,0,5,,,,,,,,,,,,,,,,2,,50,0
5759,note_on,,0,0,11,,,,,,,,,,,,,,,,15,,53,0
5759,note_on,,0,0,11,,,,,,,,,,,,,,,,15,,62,0
5759,note_on,,0,0,11,,,,,,,,,,,,,,,,15,,65,0
5759,note_on,,59,0,10,,,,,,,,,,,,,,,,13,,50,0
5760,note_on,,0,0,11,,,,,,,,,,,,,,,,15,,55,56
5760,note_on,,0,0,11,,,,,,,,,,,,,,,,15,,62,56
5760,note_on,,0,0,11,,,,,,,,,,,,,,,,15,,67,56
5760,note_on,,1,0,11,,,,,,,,,,,,,,,,15,,52,56
5760,note_on,,1,0,10,,,,,,,,,,,,,,,,13,,52,56
5760,note_on,,1,0,5,,,,,,,,,,,,,,,,2,,52,56
5879,note_on,,119,0,10,,,,,,,,,,,,,,,,13,,52,0
5879,note_on,,0,0,11,,,,,,,,,,,,,,,,15,,55,0
5879,note_on,,119,0,5,,,,,,,,,,,,,,,,2,,52,0
5879,note_on,,119,0,11,,,,,,,,,,,,,,,,15,,52,0
5880,note_on,,1,0,10,,,,,,,,,,,,,,,,13,,50,56
5880,note_on,,1,0,11,,,,,,,,,,,,,,,,15,,50,56
5880,note_on,,0,0,11,,,,,,,,,,,,,,,,15,,53,56
5880,note_on,,1,0,5,,,,,,,,,,,,,,,,2,,50,56
5939,note_on,,0,0,11,,,,,,,,,,,,,,,,15,,53,0
5939,note_on,,359,0,9,,,,,,,,,,,,,,,,12,,62,0
5939,note_on,,59,0,10,,,,,,,,,,,,,,,,13,,50,0
5939,note_on,,0,0,11,,,,,,,,,,,,,,,,15,,50,0
5939,note_on,,0,0,11,,,,,,,,,,,,,,,,15,,62,0
5939,note_on,,59,0,11,,,,,,,,,,,,,,,,15,,67,0
5939,note_on,,359,0,6,,,,,,,,,,,,,,,,10,,77,0
5939,note_on,,359,0,7,,,,,,,,,,,,,,,,11,,74,0
5939,note_on,,359,0,8,,,,,,,,,,,,,,,,14,,65,0
5939,note_on,,59,0,5,,,,,,,,,,,,,,,,2,,50,0
5940,note_on,,1,0,8,,,,,,,,,,,,,,,,14,,64,56
5940,note_on,,1,0,9,,,,,,,,,,,,,,,,12,,60,56
5940,note_on,,1,0,6,,,,,,,,,,,,,,,,10,,76,56
5940,note_on,,0,0,11,,,,,,,,,,,,,,,,15,,55,56
5940,note_on,,0,0,11,,,,,,,,,,,,,,,,15,,67,56
5940,note_on,,1,0,10,,,,,,,,,,,,,,,,13,,52,56
5940,note_on,,0,0,11,,,,,,,,,,,,,,,,15,,72,56
5940,note_on,,1,0,11,,,,,,,,,,,,,,,,15,,52,56
5940,note_on,,1,0,5,,,,,,,,,,,,,,,,2,,52,56
5940,note_on,,1,0,7,,,,,,,,,,,,,,,,11,,72,56
6029,note_on,,89,0,8,,,,,,,,,,,,,,,,14,,64,0
6029,note_on,,89,0,6,,,,,,,,,,,,,,,,10,,76,0
6030,note_on,,1,0,8,,,,,,,,,,,,,,,,14,,62,56
6030,note_on,,1,0,6,,,,,,,,,,,,,,,,10,,74,56
6059,note_on,,29,0,8,,,,,,,,,,,,,,,,14,,62,0
6059,note_on,,119,0,11,,,,,,,,,,,,,,,,15,,52,0
6059,note_on,,29,0,6,,,,,,,,,,,,,,,,10,,74,0
6059,note_on,,119,0,10,,,,,,,,,,,,,,,,13,,52,0
6059,note_on,,119,0,5,,,,,,,,,,,,,,,,2,,52,0
6060,note_on,,1,0,11,,,,,,,,,,,,,,,,15,,53,56
6060,note_on,,1,0,8,,,,,,,,,,,,,,,,14,,64,56
6060,note_on,,1,0,6,,,,,,,,,,,,,,,,10,,76,56
6060,note_on,,1,0,5,,,,,,,,,,,,,,,,2,,53,56
6060,note_on,,1,0,10,,,,,,,,,,,,,,,,13,,53,56
6119,note_on,,59,0,5,,,,,,,,,,,,,,,,2,,53,0
6119,note_on,,59,0,6,,,,,,,,,,,,,,,,10,,76,0
6119,note_on,,59,0,8,,,,,,,,,,,,,,,,14,,64,0
6119,note_on,,59,0,10,,,,,,,,,,,,,,,,13,,53,0
6119,note_on,,59,0,11,,,,,,,,,,,,,,,,15,,72,0
6119,note_on,,0,0,11,,,,,,,,,,,,,,,,15,,67,0
6119,note_on,,0,0,11,,,,,,,,,,,,,,,,15,,55,0
6119,note_on,,0,0,11,,,,,,,,,,,,,,,,15,,53,0
6120,note_on,,1,0,10,,,,,,,,,,,,,,,,13,,55,56
6120,note_on,,0,0,11,,,,,,,,,,,,,,,,15,,67,56
6120,note_on,,1,0,11,,,,,,,,,,,,,,,,15,,55,56
6120,note_on,,0,0,11,,,,,,,,,,,,,,,,15,,62,56
6120,note_on,,1,0,8,,,,,,,,,,,,,,,,14,,62,56
6120,note_on,,1,0,5,,,,,,,,,,,,,,,,2,,55,56
6120,note_on,,1,0,6,,,,,,,,,,,,,,,,10,,74,56
6239,note_on,,299,0,7,,,,,,,,,,,,,,,,11,,72,0
6239,note_on,,119,0,6,,,,,,,,,,,,,,,,10,,74,0
6239,note_on,,299,0,9,,,,,,,,,,,,,,,,12,,60,0
6239,note_on,,119,0,8,,,,,,,,,,,,,,,,14,,62,0
6240,note_on,,1,0,9,,,,,,,,,,,,,,,,12,,59,56
6240,note_on,,1,0,7,,,,,,,,,,,,,,,,11,,71,56
6240,note_on,,1,0,8,,,,,,,,,,,,,,,,14,,55,56
6240,note_on,,1,0,6,,,,,,,,,,,,,,,,10,,67,56
6299,note_on,,179,0,11,,,,,,,,,,,,,,,,15,,67,0
6299,note_on,,59,0,9,,,,,,,,,,,,,,,,12,,59,0
6299,note_on,,0,0,11,,,,,,,,,,,,,,,,15,,62,0
6299,note_on,,59,0,8,,,,,,,,,,,,,,,,14,,55,0
6299,note_on,,59,0,7,,,,,,,,,,,,,,,,11,,71,0
6299,note_on,,59,0,6,,,,,,,,,,,,,,,,10,,67,0
6300,note_on,,1,0,6,,,,,,,,,,,,,,,,10,,79,56
6300,note_on,,1,0,7,,,,,,,,,,,,,,,,11,,76,56
6300,note_on,,1,0,8,,,,,,,,,,,,,,,,14,,67,56
6300,note_on,,1,0,11,,,,,,,,,,,,,,,,15,,72,56
6300,note_on,,0,0,11,,,,,,,,,,,,,,,,15,,67,56
6300,note_on,,0,0,11,,,,,,,,,,,,,,,,15,,64,56
6300,note_on,,1,0,9,,,,,,,,,,,,,,,,12,,64,56
6479,note_on,,359,0,5,,,,,,,,,,,,,,,,2,,55,0
6479,note_on,,359,0,10,,,,,,,,,,,,,,,,13,,55,0
6479,note_on,,0,0,11,,,,,,,,,,,,,,,,15,,64,0
6479,note_on,,0,0,11,,,,,,,,,,,,,,,,15,,67,0
6479,note_on,,0,0,11,,,,,,,,,,,,,,,,15,,72,0
6479,note_on,,179,0,11,,,,,,,,,,,,,,,,15,,55,0
6480,note_on,,0,0,11,,,,,,,,,,,,,,,,15,,72,56
6480,note_on,,0,0,11,,,,,,,,,,,,,,,,15,,67,56
6480,note_on,,0,0,11,,,,,,,,,,,,,,,,15,,55,56
6480,note_on,,1,0,5,,,,,,,,,,,,,,,,2,,43,56
6480,note_on,,1,0,11,,,,,,,,,,,,,,,,15,,43,56
6480,note_on,,0,0,11,,,,,,,,,,,,,,,,15,,76,56
6480,note_on,,1,0,10,,,,,,,,,,,,,,,,13,,43,56
6569,note_on,,269,0,9,,,,,,,,,,,,,,,,12,,64,0
6569,note_on,,269,0,6,,,,,,,,,,,,,,,,10,,79,0
6569,note_on,,269,0,8,,,,,,,,,,,,,,,,14,,67,0
6569,note_on,,269,0,7,,,,,,,,,,,,,,,,11,,76,0
6570,note_on,,1,0,8,,,,,,,,,,,,,,,,14,,65,56
6570,note_on,,1,0,9,,,,,,,,,,,,,,,,12,,62,56
6570,note_on,,1,0,7,,,,,,,,,,,,,,,,11,,74,56
6570,note_on,,1,0,6,,,,,,,,,,,,,,,,10,,77,56
6599,note_on,,29,0,9,,,,,,,,,,,,,,,,12,,62,0
6599,note_on,,29,0,8,,,,,,,,,,,,,,,,14,,65,0
6599,note_on,,29,0,7,,,,,,,,,,,,,,,,11,,74,0
6599,note_on,,29,0,6,,,,,,,,,,,,,,,,10,,77,0
6600,note_on,,1,0,6,,,,,,,,,,,,,,,,10,,76,56
6600,note_on,,1,0,9,,,,,,,,,,,,,,,,12,,60,56
6600,note_on,,1,0,7,,,,,,,,,,,,,,,,11,,72,56
6600,note_on,,1,0,8,,,,,,,,,,,,,,,,14,,64,56
6659,note_on,,59,0,6,,,,,,,,,,,,,,,,10,,76,0
6659,note_on,,59,0,7,,,,,,,,,,,,,,,,11,,72,0
6659,note_on,,59,0,9,,,,,,,,,,,,,,,,12,,60,0
6659,note_on,,0,0,11,,,,,,,,,,,,,,,,15,,72,0
6659,note_on,,0,0,11,,,,,,,,,,,,,,,,15,,67,0
6659,note_on,,59,0,8,,,,,,,,,,,,,,,,14,,64,0
6659,note_on,,179,0,11,,,,,,,,,,,,,,,,15,,76,0
6660,note_on,,0,0,11,,,,,,,,,,,,,,,,15,,71,56
6660,note_on,,1,0,9,,,,,,,,,,,,,,,,12,,62,56
6660,note_on,,1,0,8,,,,,,,,,,,,,,,,14,,65,56
6660,note_on,,1,0,6,,,,,,,,,,,,,,,,10,,77,56
6660,note_on,,1,0,7,,,,,,,,,,,,,,,,11,,74,56
6660,note_on,,0,0,11,,,,,,,,,,,,,,,,15,,65,56
6660,note_on,,1,0,11,,,,,,,,,,,,,,,,15,,74,56
6674,note_on,,14,0,9,,,,,,,,,,,,,,,,12,,62,0
6674,note_on,,14,0,8,,,,,,,,,,,,,,,,14,,65,0
6674,note_on,,14,0,6,,,,,,,,,,,,,,,,10,,77,0
6674,note_on,,14,0,7,,,,,,,,,,,,,,,,11,,74,0
6675,note_on,,1,0,7,,,,,,,,,,,,,,,,11,,76,56
6675,note_on,,1,0,6,,,,,,,,,,,,,,,,10,,79,56
6675,note_on,,1,0,8,,,,,,,,,,,,,,,,14,,67,56
6675,note_on,,1,0,9,,,,,,,,,,,,,,,,12,,64,56
6689,note_on,,14,0,6,,,,,,,,,,,,,,,,10,,79,0
6689,note_on,,14,0,8,,,,,,,,,,,,,,,,14,,67,0
6689,note_on,,14,0,9,,,,,,,,,,,,,,,,12,,64,0
6689,note_on,,14,0,7,,,,,,,,,,,,,,,,11,,76,0
6690,note_on,,1,0,7,,,,,,,,,,,,,,,,11,,74,56
6690,note_on,,1,0,9,,,,,,,,,,,,,,,,12,,62,56
6690,note_on,,1,0,6,,,,,,,,,,,,,,,,10,,77,56
6690,note_on,,1,0,8,,,,,,,,,,,,,,,,14,,65,56
6704,note_on,,14,0,7,,,,,,,,,,,,,,,,11,,74,0
6704,note_on,,14,0,8,,,,,,,,,,,,,,,,14,,65,0
6704,note_on,,14,0,9,,,,,,,,,,,,,,,,12,,62,0
6704,note_on,,14,0,6,,,,,,,,,,,,,,,,10,,77,0
6705,note_on,,1,0,7,,,,,,,,,,,,,,,,11,,76,56
6705,note_on,,1,0,9,,,,,,,,,,,,,,,,12,,64,56
6705,note_on,,1,0,6,,,,,,,,,,,,,,,,10,,79,56
6705,note_on,,1,0,8,,,,,,,,,,,,,,,,14,,67,56
6719,note_on,,14,0,6,,,,,,,,,,,,,,,,10,,79,0
6719,note_on,,14,0,7,,,,,,,,,,,,,,,,11,,76,0
6719,note_on,,14,0,8,,,,,,,,,,,,,,,,14,,67,0
6719,note_on,,14,0,9,,,,,,,,,,,,,,,,12,,64,0
6720,note_on,,1,0,8,,,,,,,,,,,,,,,,14,,64,56
6720,note_on,,1,0,7,,,,,,,,,,,,,,,,11,,72,56
6720,note_on,,1,0,9,,,,,,,,,,,,,,,,12,,60,56
6720,note_on,,1,0,6,,,,,,,,,,,,,,,,10,,76,56
6734,note_on,,14,0,8,,,,,,,,,,,,,,,,14,,64,0
6734,note_on,,14,0,9,,,,,,,,,,,,,,,,12,,60,0
6734,note_on,,14,0,7,,,,,,,,,,,,,,,,11,,72,0
6734,note_on,,14,0,6,,,,,,,,,,,,,,,,10,,76,0
6735,note_on,,1,0,9,,,,,,,,,,,,,,,,12,,62,56
6735,note_on,,1,0,8,,,,,,,,,,,,,,,,14,,65,56
6735,note_on,,1,0,7,,,,,,,,,,,,,,,,11,,74,56
6735,note_on,,1,0,6,,,,,,,,,,,,,,,,10,,77,56
6749,note_on,,14,0,7,,,,,,,,,,,,,,,,11,,74,0
6749,note_on,,14,0,8,,,,,,,,,,,,,,,,14,,65,0
6749,note_on,,14,0,9,,,,,,,,,,,,,,,,12,,62,0
6749,note_on,,14,0,6,,,,,,,,,,,,,,,,10,,77,0
6750,note_on,,1,0,9,,,,,,,,,,,,,,,,12,,60,56
6750,note_on,,1,0,7,,,,,,,,,,,,,,,,11,,72,56
6750,note_on,,1,0,6,,,,,,,,,,,,,,,,10,,76,56
6750,note_on,,1,0,8,,,,,,,,,,,,,,,,14,,64,56
6779,note_on,,29,0,9,,,,,,,,,,,,,,,,12,,60,0
6779,note_on,,29,0,6,,,,,,,,,,,,,,,,10,,76,0
6779,note_on,,29,0,7,,,,,,,,,,,,,,,,11,,72,0
6779,note_on,,29,0,8,,,,,,,,,,,,,,,,14,,64,0
6780,note_on,,1,0,9,,,,,,,,,,,,,,,,12,,59,56
6780,note_on,,1,0,7,,,,,,,,,,,,,,,,11,,71,56
6780,note_on,,1,0,8,,,,,,,,,,,,,,,,14,,62,56
6780,note_on,,1,0,6,,,,,,,,,,,,,,,,10,,74,56
6839,note_on,,0,0,11,,,,,,,,,,,,,,,,15,,74,0
6839,note_on,,59,0,7,,,,,,,,,,,,,,,,11,,71,0
6839,note_on,,0,0,11,,,,,,,,,,,,,,,,15,,55,0
6839,note_on,,359,0,5,,,,,,,,,,,,,,,,2,,43,0
6839,note_on,,0,0,11,,,,,,,,,,,,,,,,15,,65,0
6839,note_on,,0,0,11,,,,,,,,,,,,,,,,15,,71,0
6839,note_on,,179,0,11,,,,,,,,,,,,,,,,15,,43,0
6839,note_on,,359,0,10,,,,,,,,,,,,,,,,13,,43,0
6839,note_on,,59,0,8,,,,,,,,,,,,,,,,14,,62,0
6839,note_on,,59,0,6,,,,,,,,,,,,,,,,10,,74,0
6839,note_on,,59,0,9,,,,,,,,,,,,,,,,12,,59,0
6840,note_on,,0,0,11,,,,,,,,,,,,,,,,15,,64,56
6840,note_on,,0,0,11,,,,,,,,,,,,,,,,15,,67,56
6840,note_on,,0,0,11,,,,,,,,,,,,,,,,15,,72,56
6840,note_on,,0,0,11,,,,,,,,,,,,,,,,15,,55,56
6840,note_on,,1,0,11,,,,,,,,,,,,,,,,15,,48,56
6840,note_on,,1,0,10,,,,,,,,,,,,,,,,13,,48,56
6840,note_on,,1,0,8,,,,,,,,,,,,,,,,14,,60,56
6840,note_on,,1,0,9,,,,,,,,,,,,,,,,12,,60,56
6840,note_on,,1,0,6,,,,,,,,,,,,,,,,10,,72,56
6840,note_on,,1,0,5,,,,,,,,,,,,,,,,2,,48,56
6840,note_on,,1,0,7,,,,,,,,,,,,,,,,11,,72,56
7019,note_on,,179,0,7,,,,,,,,,,,,,,,,11,,72,0
7019,note_on,,0,0,11,,,,,,,,,,,,,,,,15,,64,0
7019,note_on,,0,0,11,,,,,,,,,,,,,,,,15,,67,0
7019,note_on,,0,0,11,,,,,,,,,,,,,,,,15,,72,0
7019,note_on,,179,0,9,,,,,,,,,,,,,,,,12,,60,0
7019,note_on,,179,0,6,,,,,,,,,,,,,,,,10,,72,0
7019,note_on,,179,0,11,,,,,,,,,,,,,,,,15,,55,0
7019,note_on,,179,0,8,,,,,,,,,,,,,,,,14,,60,0
7020,note_on,,0,0,11,,,,,,,,,,,,,,,,15,,69,56
7020,note_on,,1,0,7,,,,,,,,,,,,,,,,11,,74,56
7020,note_on,,1,0,8,,,,,,,,,,,,,,,,14,,65,56
7020,note_on,,1,0,11,,,,,,,,,,,,,,,,15,,53,56
7020,note_on,,1,0,6,,,,,,,,,,,,,,,,10,,77,56
7020,note_on,,1,0,9,,,,,,,,,,,,,,,,12,,62,56
7020,note_on,,0,0,11,,,,,,,,,,,,,,,,15,,65,56
7020,note_on,,0,0,11,,,,,,,,,,,,,,,,15,,72,56
7049,note_on,,29,0,7,,,,,,,,,,,,,,,,11,,74,0
7049,note_on,,29,0,8,,,,,,,,,,,,,,,,14,,65,0
7049,note_on,,29,0,6,,,,,,,,,,,,,,,,10,,77,0
7049,note_on,,29,0,9,,,,,,,,,,,,,,,,12,,62,0
7050,note_on,,1,0,8,,,,,,,,,,,,,,,,14,,67,56
7050,note_on,,1,0,6,,,,,,,,,,,,,,,,10,,79,56
7050,note_on,,1,0,7,,,,,,,,,,,,,,,,11,,76,56
7050,note_on,,1,0,9,,,,,,,,,,,,,,,,12,,64,56
7079,note_on,,29,0,7,,,,,,,,,,,,,,,,11,,76,0
7079,note_on,,29,0,8,,,,,,,,,,,,,,,,14,,67,0
7079,note_on,,29,0,6,,,,,,,,,,,,,,,,10,,79,0
7079,note_on,,29,0,9,,,,,,,,,,,,,,,,12,,64,0
7080,note_on,,1,0,8,,,,,,,,,,,,,,,,14,,69,56
7080,note_on,,1,0,6,,,,,,,,,,,,,,,,10,,81,56
7080,note_on,,1,0,7,,,,,,,,,,,,,,,,11,,77,56
7080,note_on,,1,0,9,,,,,,,,,,,,,,,,12,,65,56
7199,note_on,,0,0,11,,,,,,,,,,,,,,,,15,,65,0
7199,note_on,,119,0,6,,,,,,,,,,,,,,,,10,,81,0
7199,note_on,,119,0,8,,,,,,,,,,,,,,,,14,,69,0
7199,note_on,,119,0,9,,,,,,,,,,,,,,,,12,,65,0
7199,note_on,,0,0,11,,,,,,,,,,,,,,,,15,,69,0
7199,note_on,,179,0,11,,,,,,,,,,,,,,,,15,,53,0
7199,note_on,,119,0,7,,,,,,,,,,,,,,,,11,,77,0
7200,note_on,,1,0,11,,,,,,,,,,,,,,,,15,,67,56
7200,note_on,,1,0,7,,,,,,,,,,,,,,,,11,,76,56
7200,note_on,,0,0,11,,,,,,,,,,,,,,,,15,,64,56
7200,note_on,,0,0,11,,,,,,,,,,,,,,,,15,,55,56
7200,note_on,,1,0,6,,,,,,,,,,,,,,,,10,,79,56
7200,note_on,,1,0,8,,,,,,,,,,,,,,,,14,,67,56
7200,note_on,,1,0,9,,,,,,,,,,,,,,,,12,,64,56
7214,note_on,,14,0,7,,,,,,,,,,,,,,,,11,,76,0
7214,note_on,,14,0,8,,,,,,,,,,,,,,,,14,,67,0
7214,note_on,,14,0,9,,,,,,,,,,,,,,,,12,,64,0
7214,note_on,,14,0,6,,,,,,,,,,,,,,,,10,,79,0
7215,note_on,,1,0,6,,,,,,,,,,,,,,,,10,,81,56
7215,note_on,,1,0,9,,,,,,,,,,,,,,,,12,,65,56
7215,note_on,,1,0,8,,,,,,,,,,,,,,,,14,,69,56
7215,note_on,,1,0,7,,,,,,,,,,,,,,,,11,,77,56
7229,note_on,,14,0,9,,,,,,,,,,,,,,,,12,,65,0
7229,note_on,,14,0,6,,,,,,,,,,,,,,,,10,,81,0
7229,note_on,,14,0,8,,,,,,,,,,,,,,,,14,,69,0
7229,note_on,,14,0,7,,,,,,,,,,,,,,,,11,,77,0
7230,note_on,,1,0,8,,,,,,,,,,,,,,,,14,,67,56
7230,note_on,,1,0,9,,,,,,,,,,,,,,,,12,,64,56
7230,note_on,,1,0,6,,,,,,,,,,,,,,,,10,,79,56
7230,note_on,,1,0,7,,,,,,,,,,,,,,,,11,,76,56
7244,note_on,,14,0,8,,,,,,,,,,,,,,,,14,,67,0
7244,note_on,,14,0,9,,,,,,,,,,,,,,,,12,,64,0
7244,note_on,,14,0,6,,,,,,,,,,,,,,,,10,,79,0
7244,note_on,,14,0,7,,,,,,,,,,,,,,,,11,,76,0
7245,note_on,,1,0,6,,,,,,,,,,,,,,,,10,,81,56
7245,note_on,,1,0,9,,,,,,,,,,,,,,,,12,,65,56
7245,note_on,,1,0,8,,,,,,,,,,,,,,,,14,,69,56
7245,note_on,,1,0,7,,,,,,,,,,,,,,,,11,,77,56
7259,note_on,,14,0,7,,,,,,,,,,,,,,,,11,,77,0
7259,note_on,,14,0,6,,,,,,,,,,,,,,,,10,,81,0
7259,note_on,,14,0,8,,,,,,,,,,,,,,,,14,,69,0
7259,note_on,,14,0,9,,,,,,,,,,,,,,,,12,,65,0
7260,note_on,,1,0,6,,,,,,,,,,,,,,,,10,,77,56
7260,note_on,,1,0,7,,,,,,,,,,,,,,,,11,,74,56
7260,note_on,,1,0,8,,,,,,,,,,,,,,,,14,,65,56
7260,note_on,,1,0,9,,,,,,,,,,,,,,,,12,,62,56
7274,note_on,,14,0,6,,,,,,,,,,,,,,,,10,,77,0
7274,note_on,,14,0,7,,,,,,,,,,,,,,,,11,,74,0
7274,note_on,,14,0,8,,,,,,,,,,,,,,,,14,,65,0
7274,note_on,,14,0,9,,,,,,,,,,,,,,,,12,,62,0
7275,note_on,,1,0,9,,,,,,,,,,,,,,,,12,,64,56
7275,note_on,,1,0,6,,,,,,,,,,,,,,,,10,,79,56
7275,note_on,,1,0,7,,,,,,,,,,,,,,,,11,,76,56
7275,note_on,,1,0,8,,,,,,,,,,,,,,,,14,,67,56
7289,note_on,,14,0,9,,,,,,,,,,,,,,,,12,,64,0
7289,note_on,,14,0,7,,,,,,,,,,,,,,,,11,,76,0
7289,note_on,,14,0,6,,,,,,,,,,,,,,,,10,,79,0
7289,note_on,,14,0,8,,,,,,,,,,,,,,,,14,,67,0
7290,note_on,,1,0,7,,,,,,,,,,,,,,,,11,,74,56
7290,note_on,,1,0,9,,,,,,,,,,,,,,,,12,,62,56
7290,note_on,,1,0,6,,,,,,,,,,,,,,,,10,,77,56
7290,note_on,,1,0,8,,,,,,,,,,,,,,,,14,,65,56
7319,note_on,,29,0,8,,,,,,,,,,,,,,,,14,,65,0
7319,note_on,,29,0,6,,,,,,,,,,,,,,,,10,,77,0
7319,note_on,,119,0,11,,,,,,,,,,,,,,,,15,,48,0
7319,note_on,,0,0,11,,,,,,,,,,,,,,,,15,,55,0
7319,note_on,,29,0,9,,,,,,,,,,,,,,,,12,,62,0
7319,note_on,,479,0,5,,,,,,,,,,,,,,,,2,,48,0
7319,note_on,,29,0,7,,,,,,,,,,,,,,,,11,,74,0
7319,note_on,,479,0,10,,,,,,,,,,,,,,,,13,,48,0
7320,note_on,,1,0,9,,,,,,,,,,,,,,,,12,,60,56
7320,note_on,,1,0,6,,,,,,,,,,,,,,,,10,,76,56
7320,note_on,,1,0,7,,,,,,,,,,,,,,,,11,,72,56
7320,note_on,,1,0,8,,,,,,,,,,,,,,,,14,,64,56
7320,note_on,,1,0,11,,,,,,,,,,,,,,,,15,,53,56
7320,note_on,,0,0,11,,,,,,,,,,,,,,,,15,,57,56
7320,note_on,,1,0,5,,,,,,,,,,,,,,,,2,,53,56
7320,note_on,,1,0,10,,,,,,,,,,,,,,,,13,,53,56
7379,note_on,,59,0,8,,,,,,,,,,,,,,,,14,,64,0
7379,note_on,,59,0,6,,,,,,,,,,,,,,,,10,,76,0
7379,note_on,,0,0,11,,,,,,,,,,,,,,,,15,,67,0
7379,note_on,,0,0,11,,,,,,,,,,,,,,,,15,,57,0
7379,note_on,,0,0,11,,,,,,,,,,,,,,,,15,,53,0
7379,note_on,,59,0,11,,,,,,,,,,,,,,,,15,,72,0
7379,note_on,,59,0,7,,,,,,,,,,,,,,,,11,,72,0
7379,note_on,,0,0,11,,,,,,,,,,,,,,,,15,,64,0
7379,note_on,,59,0,10,,,,,,,,,,,,,,,,13,,53,0
7379,note_on,,59,0,9,,,,,,,,,,,,,,,,12,,60,0
7379,note_on,,59,0,5,,,,,,,,,,,,,,,,2,,53,0
7380,note_on,,1,0,7,,,,,,,,,,,,,,,,11,,72,56
7380,note_on,,0,0,11,,,,,,,,,,,,,,,,15,,60,56
7380,note_on,,0,0,11,,,,,,,,,,,,,,,,15,,64,56
7380,note_on,,1,0,11,,,,,,,,,,,,,,,,15,,55,56
7380,note_on,,1,0,10,,,,,,,,,,,,,,,,13,,55,56
7380,note_on,,0,0,11,,,,,,,,,,,,,,,,15,,67,56
7380,note_on,,1,0,6,,,,,,,,,,,,,,,,10,,76,56
7380,note_on,,1,0,5,,,,,,,,,,,,,,,,2,,55,56
7380,note_on,,1,0,9,,,,,,,,,,,,,,,,12,,60,56
7380,note_on,,1,0,8,,,,,,,,,,,,,,,,14,,64,56
7499,note_on,,119,0,5,,,,,,,,,,,,,,,,2,,55,0
7499,note_on,,119,0,7,,,,,,,,,,,,,,,,11,,72,0
7499,note_on,,119,0,10,,,,,,,,,,,,,,,,13,,55,0
7499,note_on,,119,0,8,,,,,,,,,,,,,,,,14,,64,0
7499,note_on,,0,0,11,,,,,,,,,,,,,,,,15,,64,0
7499,note_on,,0,0,11,,,,,,,,,,,,,,,,15,,60,0
7499,note_on,,119,0,11,,,,,,,,,,,,,,,,15,,55,0
7499,note_on,,0,0,11,,,,,,,,,,,,,,,,15,,67,0
7499,note_on,,119,0,9,,,,,,,,,,,,,,,,12,,60,0
7499,note_on,,119,0,6,,,,,,,,,,,,,,,,10,,76,0
7500,note_on,,1,0,11,,,,,,,,,,,,,,,,15,,43,56
7500,note_on,,1,0,9,,,,,,,,,,,,,,,,12,,59,56
7500,note_on,,1,0,5,,,,,,,,,,,,,,,,2,,43,56
7500,note_on,,0,0,11,,,,,,,,,,,,,,,,15,,62,56
7500,note_on,,1,0,7,,,,,,,,,,,,,,,,11,,71,56
7500,note_on,,0,0,11,,,,,,,,,,,,,,,,15,,65,56
7500,note_on,,0,0,11,,,,,,,,,,,,,,,,15,,55,56
7500,note_on,,1,0,10,,,,,,,,,,,,,,,,13,,43,56
7500,note_on,,1,0,6,,,,,,,,,,,,,,,,10,,74,56
7500,note_on,,1,0,8,,,,,,,,,,,,,,,,14,,62,56
7500,note_on,,0,0,11,,,,,,,,,,,,,,,,15,,59,56
7559,note_on,,0,0,11,,,,,,,,,,,,,,,,15,,55,0
7559,note_on,,0,0,11,,,,,,,,,,,,,,,,15,,62,0
7559,note_on,,0,0,11,,,,,,,,,,,,,,,,15,,65,0
7559,note_on,,59,0,11,,,,,,,,,,,,,,,,15,,43,0
7559,note_on,,59,0,7,,,,,,,,,,,,,,,,11,,71,0
7559,note_on,,59,0,5,,,,,,,,,,,,,,,,2,,43,0
7559,note_on,,59,0,8,,,,,,,,,,,,,,,,14,,62,0
7559,note_on,,59,0,9,,,,,,,,,,,,,,,,12,,59,0
7559,note_on,,59,0,6,,,,,,,,,,,,,,,,10,,74,0
7559,note_on,,59,0,10,,,,,,,,,,,,,,,,13,,43,0
7559,note_on,,0,0,11,,,,,,,,,,,,,,,,15,,59,0
7560,end_of_track,,0,1,0,,,,,,,,,,,,,,,,,,,
7560,note_on,,1,0,8,,,,,,,,,,,,,,,,14,,60,56
7560,set_tempo,,7560,1,0,,,,,,,,,1090909,,,,,,,,,,
7560,note_on,,0,0,11,,,,,,,,,,,,,,,,15,,60,56
7560,note_on,,1,0,6,,,,,,,,,,,,,,,,10,,72,56
7560,note_on,,0,0,11,,,,,,,,,,,,,,,,15,,55,56
7560,note_on,,1,0,9,,,,,,,,,,,,,,,,12,,60,56
7560,note_on,,1,0,11,,,,,,,,,,,,,,,,15,,48,56
7560,note_on,,1,0,10,,,,,,,,,,,,,,,,13,,48,56
7560,note_on,,1,0,5,,,,,,,,,,,,,,,,2,,48,56
7560,note_on,,1,0,7,,,,,,,,,,,,,,,,11,,72,56
7560,note_on,,0,0,11,,,,,,,,,,,,,,,,15,,64,56
7919,note_on,,0,0,11,,,,,,,,,,,,,,,,15,,60,0
7919,note_on,,0,0,11,,,,,,,,,,,,,,,,15,,55,0
7919,note_on,,359,0,11,,,,,,,,,,,,,,,,15,,48,0
7919,note_on,,359,0,7,,,,,,,,,,,,,,,,11,,72,0
7919,end_of_track,,0,1,5,,,,,,,,,,,,,,,,,,,
7919,end_of_track,,0,1,10,,,,,,,,,,,,,,,,,,,
7919,note_on,,359,0,10,,,,,,,,,,,,,,,,13,,48,0
7919,end_of_track,,0,1,9,,,,,,,,,,,,,,,,,,,
7919,note_on,,359,0,9,,,,,,,,,,,,,,,,12,,60,0
7919,end_of_track,,0,1,7,,,,,,,,,,,,,,,,,,,
7919,note_on,,359,0,6,,,,,,,,,,,,,,,,10,,72,0
7919,end_of_track,,0,1,6,,,,,,,,,,,,,,,,,,,
7919,end_of_track,,0,1,8,,,,,,,,,,,,,,,,,,,
7919,note_on,,359,0,8,,,,,,,,,,,,,,,,14,,60,0
7919,note_on,,0,0,11,,,,,,,,,,,,,,,,15,,64,0
7919,note_on,,359,0,5,,,,,,,,,,,,,,,,2,,48,0
7919,end_of_track,,0,1,11,,,,,,,,,,,,,,,,,,,
