tick,type,data,time,meta,track,frame_rate,hours,minutes,seconds,frames,sub_frames,port,key,tempo,numerator,denominator,clocks_per_click,notated_32nd_notes_per_beat,control,value,channel,program,note,velocity
0,sequencer_specific,"(0, 0, 91, 35, 1, 0, 5, 4, 35, 0)",0,1,0,,,,,,,,,,,,,,,,,,,
0,note_on,,0,0,15,,,,,,,,,,,,,,,,12,,62,64
0,control_change,,0,0,15,,,,,,,,,,,,,,7,96,12,,,
0,program_change,,0,0,15,,,,,,,,,,,,,,,,12,48,,
0,control_change,,0,0,15,,,,,,,,,,,,,,10,80,12,,,
0,control_change,,0,0,15,,,,,,,,,,,,,,11,127,12,,,
0,midi_port,,0,1,15,,,,,,,0,,,,,,,,,,,,
0,track_name,,0,1,15,,,,,,,,,,,,,,,,,,,
0,track_name,,0,1,7,,,,,,,,,,,,,,,,,,,
0,midi_port,,0,1,7,,,,,,,0,,,,,,,,,,,,
0,control_change,,0,0,7,,,,,,,,,,,,,,10,0,3,,,
0,control_change,,0,0,7,,,,,,,,,,,,,,7,96,3,,,
0,program_change,,0,0,7,,,,,,,,,,,,,,,,3,56,,
0,note_on,,0,0,7,,,,,,,,,,,,,,,,3,,78,56
0,note_on,,0,0,14,,,,,,,,,,,,,,,,11,,78,64
0,control_change,,0,0,14,,,,,,,,,,,,,,7,96,11,,,
0,program_change,,0,0,14,,,,,,,,,,,,,,,,11,48,,
0,control_change,,0,0,14,,,,,,,,,,,,,,10,24,11,,,
0,control_change,,0,0,6,,,,,,,,,,,,,,7,96,2,,,
0,control_change,,0,0,14,,,,,,,,,,,,,,11,127,11,,,
0,program_change,,0,0,6,,,,,,,,,,,,,,,,2,70,,
0,control_change,,0,0,6,,,,,,,,,,,,,,11,127,2,,,
0,note_on,,0,0,17,,,,,,,,,,,,,,,,15,,66,64
0,note_on,,0,0,17,,,,,,,,,,,,,,,,15,,62,64
0,control_change,,0,0,17,,,,,,,,,,,,,,7,96,15,,,
0,program_change,,0,0,17,,,,,,,,,,,,,,,,15,6,,
0,control_change,,0,0,17,,,,,,,,,,,,,,10,90,15,,,
0,control_change,,0,0,17,,,,,,,,,,,,,,11,127,15,,,
0,midi_port,,0,1,17,,,,,,,0,,,,,,,,,,,,
0,track_name,,0,1,17,,,,,,,,,,,,,,,,,,,
0,note_on,,0,0,16,,,,,,,,,,,,,,,,13,,62,64
0,control_change,,0,0,16,,,,,,,,,,,,,,7,96,13,,,
0,program_change,,0,0,16,,,,,,,,,,,,,,,,13,48,,
0,control_change,,0,0,16,,,,,,,,,,,,,,10,96,13,,,
0,control_change,,0,0,16,,,,,,,,,,,,,,11,127,13,,,
0,midi_port,,0,1,16,,,,,,,0,,,,,,,,,,,,
0,track_name,,0,1,16,,,,,,,,,,,,,,,,,,,
0,track_name,,0,1,6,,,,,,,,,,,,,,,,,,,
0,midi_port,,0,1,6,,,,,,,0,,,,,,,,,,,,
0,control_change,,0,0,6,,,,,,,,,,,,,,10,65,2,,,
0,midi_port,,0,1,14,,,,,,,0,,,,,,,,,,,,
0,track_name,,0,1,14,,,,,,,,,,,,,,,,,,,
0,track_name,,0,1,8,,,,,,,,,,,,,,,,,,,
0,control_change,,0,0,11,,,,,,,,,,,,,,11,127,7,,,
0,midi_port,,0,1,11,,,,,,,0,,,,,,,,,,,,
0,track_name,,0,1,11,,,,,,,,,,,,,,,,,,,
0,note_on,,0,0,10,,,,,,,,,,,,,,,,6,,69,64
0,control_change,,0,0,10,,,,,,,,,,,,,,7,96,6,,,
0,program_change,,0,0,10,,,,,,,,,,,,,,,,6,73,,
0,control_change,,0,0,10,,,,,,,,,,,,,,10,96,6,,,
0,control_change,,0,0,10,,,,,,,,,,,,,,11,127,6,,,
0,midi_port,,0,1,10,,,,,,,0,,,,,,,,,,,,
0,track_name,,0,1,10,,,,,,,,,,,,,,,,,,,
0,track_name,,0,1,9,,,,,,,,,,,,,,,,,,,
0,midi_port,,0,1,9,,,,,,,0,,,,,,,,,,,,
0,control_change,,0,0,9,,,,,,,,,,,,,,11,127,5,,,
0,control_change,,0,0,9,,,,,,,,,,,,,,10,32,5,,,
0,program_change,,0,0,9,,,,,,,,,,,,,,,,5,73,,
0,control_change,,0,0,9,,,,,,,,,,,,,,7,96,5,,,
0,note_on,,0,0,9,,,,,,,,,,,,,,,,5,,78,64
0,control_change,,0,0,11,,,,,,,,,,,,,,10,48,7,,,
0,program_change,,0,0,11,,,,,,,,,,,,,,,,7,70,,
0,control_change,,0,0,11,,,,,,,,,,,,,,7,96,7,,,
0,note_on,,0,0,11,,,,,,,,,,,,,,,,7,,62,64
0,midi_port,,0,1,8,,,,,,,0,,,,,,,,,,,,
0,control_change,,0,0,8,,,,,,,,,,,,,,11,127,4,,,
0,control_change,,0,0,8,,,,,,,,,,,,,,10,127,4,,,
0,control_change,,0,0,8,,,,,,,,,,,,,,7,96,4,,,
0,program_change,,0,0,8,,,,,,,,,,,,,,,,4,56,,
0,note_on,,0,0,8,,,,,,,,,,,,,,,,4,,74,56
0,note_on,,0,0,13,,,,,,,,,,,,,,,,10,,81,64
0,control_change,,0,0,13,,,,,,,,,,,,,,7,96,10,,,
0,note_on,,0,0,17,,,,,,,,,,,,,,,,15,,74,64
0,program_change,,0,0,13,,,,,,,,,,,,,,,,10,48,,
0,control_change,,0,0,13,,,,,,,,,,,,,,11,127,10,,,
0,midi_port,,0,1,13,,,,,,,0,,,,,,,,,,,,
0,track_name,,0,1,13,,,,,,,,,,,,,,,,,,,
0,program_change,,0,0,12,,,,,,,,,,,,,,,,8,60,,
0,control_change,,0,0,12,,,,,,,,,,,,,,10,80,8,,,
0,control_change,,0,0,12,,,,,,,,,,,,,,11,127,8,,,
0,midi_port,,0,1,12,,,,,,,0,,,,,,,,,,,,
0,track_name,,0,1,12,,,,,,,,,,,,,,,,,,,
0,control_change,,0,0,13,,,,,,,,,,,,,,10,48,10,,,
0,note_on,,0,0,17,,,,,,,,,,,,,,,,15,,69,64
0,control_change,,0,0,7,,,,,,,,,,,,,,11,127,3,,,
0,midi_port,,0,1,3,,,,,,,0,,,,,,,,,,,,
0,end_of_track,,0,1,4,,,,,,,,,,,,,,,,,,,
0,track_name,,0,1,3,,,,,,,,,,,,,,,,,,,
0,track_name,,0,1,0,,,,,,,,,,,,,,,,,,,
0,instrument_name,,0,1,0,,,,,,,,,,,,,,,,,,,
0,smpte_offset,,0,1,0,25,32,0,3,0,0,,,,,,,,,,,,,
0,midi_port,,0,1,0,,,,,,,0,,,,,,,,,,,,
0,key_signature,,0,1,0,,,,,,,,D,,,,,,,,,,,
0,set_tempo,,0,1,0,,,,,,,,,500000,,,,,,,,,,
0,time_signature,,0,1,0,,,,,,,,,,4,4,24,8,,,,,,
0,track_name,,0,1,1,,,,,,,,,,,,,,,,,,,
0,midi_port,,0,1,1,,,,,,,0,,,,,,,,,,,,
0,track_name,,0,1,5,,,,,,,,,,,,,,,,,,,
0,track_name,,0,1,2,,,,,,,,,,,,,,,,,,,
0,midi_port,,0,1,2,,,,,,,0,,,,,,,,,,,,
0,end_of_track,,0,1,1,,,,,,,,,,,,,,,,,,,
0,control_change,,0,0,5,,,,,,,,,,,,,,11,127,0,,,
0,midi_port,,0,1,4,,,,,,,0,,,,,,,,,,,,
0,end_of_track,,0,1,2,,,,,,,,,,,,,,,,,,,
0,end_of_track,,0,1,3,,,,,,,,,,,,,,,,,,,
0,note_on,,0,0,5,,,,,,,,,,,,,,,,0,,78,64
0,program_change,,0,0,5,,,,,,,,,,,,,,,,0,68,,
0,control_change,,0,0,5,,,,,,,,,,,,,,7,72,0,,,
0,control_change,,0,0,5,,,,,,,,,,,,,,10,70,0,,,
0,midi_port,,0,1,5,,,,,,,0,,,,,,,,,,,,
119,note_on,,119,0,15,,,,,,,,,,,,,,,,12,,62,0
119,note_on,,0,0,17,,,,,,,,,,,,,,,,15,,74,0
119,note_on,,0,0,17,,,,,,,,,,,,,,,,15,,66,0
119,note_on,,119,0,13,,,,,,,,,,,,,,,,10,,81,0
119,note_on,,119,0,9,,,,,,,,,,,,,,,,5,,78,0
119,note_on,,119,0,10,,,,,,,,,,,,,,,,6,,69,0
119,note_on,,119,0,5,,,,,,,,,,,,,,,,0,,78,0
119,note_on,,119,0,16,,,,,,,,,,,,,,,,13,,62,0
119,note_on,,119,0,17,,,,,,,,,,,,,,,,15,,62,0
119,note_on,,119,0,11,,,,,,,,,,,,,,,,7,,62,0
119,note_on,,0,0,17,,,,,,,,,,,,,,,,15,,69,0
119,note_on,,119,0,8,,,,,,,,,,,,,,,,4,,74,0
119,note_on,,119,0,14,,,,,,,,,,,,,,,,11,,78,0
119,note_on,,119,0,7,,,,,,,,,,,,,,,,3,,78,0
120,note_on,,1,0,15,,,,,,,,,,,,,,,,12,,61,64
120,note_on,,1,0,16,,,,,,,,,,,,,,,,13,,61,64
120,note_on,,1,0,14,,,,,,,,,,,,,,,,11,,76,64
120,note_on,,1,0,5,,,,,,,,,,,,,,,,0,,76,64
120,note_on,,1,0,13,,,,,,,,,,,,,,,,10,,81,64
120,note_on,,1,0,10,,,,,,,,,,,,,,,,6,,69,64
120,note_on,,1,0,7,,,,,,,,,,,,,,,,3,,76,56
120,note_on,,1,0,8,,,,,,,,,,,,,,,,4,,69,56
120,note_on,,1,0,9,,,,,,,,,,,,,,,,5,,76,64
120,note_on,,1,0,17,,,,,,,,,,,,,,,,15,,61,64
120,note_on,,0,0,17,,,,,,,,,,,,,,,,15,,64,64
120,note_on,,0,0,17,,,,,,,,,,,,,,,,15,,81,64
120,note_on,,0,0,17,,,,,,,,,,,,,,,,15,,69,64
120,note_on,,1,0,11,,,,,,,,,,,,,,,,7,,61,64
209,note_on,,0,0,17,,,,,,,,,,,,,,,,15,,81,0
209,note_on,,89,0,8,,,,,,,,,,,,,,,,4,,69,0
209,note_on,,89,0,7,,,,,,,,,,,,,,,,3,,76,0
209,note_on,,89,0,10,,,,,,,,,,,,,,,,6,,69,0
209,note_on,,0,0,17,,,,,,,,,,,,,,,,15,,69,0
209,note_on,,89,0,15,,,,,,,,,,,,,,,,12,,61,0
209,note_on,,89,0,9,,,,,,,,,,,,,,,,5,,76,0
209,note_on,,89,0,11,,,,,,,,,,,,,,,,7,,61,0
209,note_on,,89,0,13,,,,,,,,,,,,,,,,10,,81,0
209,note_on,,89,0,16,,,,,,,,,,,,,,,,13,,61,0
209,note_on,,89,0,5,,,,,,,,,,,,,,,,0,,76,0
209,note_on,,89,0,17,,,,,,,,,,,,,,,,15,,61,0
209,note_on,,0,0,17,,,,,,,,,,,,,,,,15,,64,0
209,note_on,,89,0,14,,,,,,,,,,,,,,,,11,,76,0
210,note_on,,1,0,13,,,,,,,,,,,,,,,,10,,86,64
210,note_on,,1,0,16,,,,,,,,,,,,,,,,13,,59,64
210,note_on,,1,0,5,,,,,,,,,,,,,,,,0,,74,64
210,note_on,,1,0,10,,,,,,,,,,,,,,,,6,,71,64
210,note_on,,1,0,7,,,,,,,,,,,,,,,,3,,74,56
210,note_on,,1,0,14,,,,,,,,,,,,,,,,11,,74,64
210,note_on,,1,0,8,,,,,,,,,,,,,,,,4,,69,56
210,note_on,,1,0,17,,,,,,,,,,,,,,,,15,,59,64
210,note_on,,1,0,9,,,,,,,,,,,,,,,,5,,74,64
210,note_on,,0,0,17,,,,,,,,,,,,,,,,15,,62,64
210,note_on,,0,0,17,,,,,,,,,,,,,,,,15,,74,64
210,note_on,,0,0,17,,,,,,,,,,,,,,,,15,,71,64
210,note_on,,1,0,15,,,,,,,,,,,,,,,,12,,59,64
210,note_on,,1,0,11,,,,,,,,,,,,,,,,7,,59,64
239,note_on,,29,0,8,,,,,,,,,,,,,,,,4,,69,0
239,note_on,,29,0,5,,,,,,,,,,,,,,,,0,,74,0
239,note_on,,29,0,11,,,,,,,,,,,,,,,,7,,59,0
239,note_on,,29,0,13,,,,,,,,,,,,,,,,10,,86,0
239,note_on,,29,0,15,,,,,,,,,,,,,,,,12,,59,0
239,note_on,,29,0,7,,,,,,,,,,,,,,,,3,,74,0
239,note_on,,29,0,14,,,,,,,,,,,,,,,,11,,74,0
239,note_on,,29,0,9,,,,,,,,,,,,,,,,5,,74,0
239,note_on,,0,0,17,,,,,,,,,,,,,,,,15,,71,0
239,note_on,,0,0,17,,,,,,,,,,,,,,,,15,,74,0
239,note_on,,29,0,10,,,,,,,,,,,,,,,,6,,71,0
239,note_on,,0,0,17,,,,,,,,,,,,,,,,15,,62,0
239,note_on,,29,0,16,,,,,,,,,,,,,,,,13,,59,0
239,note_on,,29,0,17,,,,,,,,,,,,,,,,15,,59,0
240,note_on,,1,0,14,,,,,,,,,,,,,,,,11,,76,64
240,note_on,,1,0,10,,,,,,,,,,,,,,,,6,,64,64
240,note_on,,1,0,16,,,,,,,,,,,,,,,,13,,57,64
240,note_on,,1,0,17,,,,,,,,,,,,,,,,15,,57,64
240,note_on,,0,0,17,,,,,,,,,,,,,,,,15,,73,64
240,note_on,,1,0,9,,,,,,,,,,,,,,,,5,,73,64
240,note_on,,1,0,8,,,,,,,,,,,,,,,,4,,69,56
240,note_on,,1,0,11,,,,,,,,,,,,,,,,7,,57,64
240,note_on,,1,0,7,,,,,,,,,,,,,,,,3,,81,56
240,note_on,,1,0,13,,,,,,,,,,,,,,,,10,,85,64
240,note_on,,0,0,17,,,,,,,,,,,,,,,,15,,69,64
240,note_on,,1,0,5,,,,,,,,,,,,,,,,0,,73,64
240,note_on,,0,0,17,,,,,,,,,,,,,,,,15,,76,64
240,note_on,,1,0,15,,,,,,,,,,,,,,,,12,,57,64
269,note_on,,29,0,14,,,,,,,,,,,,,,,,11,,76,0
269,note_on,,29,0,13,,,,,,,,,,,,,,,,10,,85,0
270,note_on,,1,0,14,,,,,,,,,,,,,,,,11,,78,64
270,note_on,,1,0,13,,,,,,,,,,,,,,,,10,,86,64
299,note_on,,29,0,13,,,,,,,,,,,,,,,,10,,86,0
299,note_on,,29,0,14,,,,,,,,,,,,,,,,11,,78,0
300,note_on,,1,0,13,,,,,,,,,,,,,,,,10,,85,64
300,note_on,,1,0,14,,,,,,,,,,,,,,,,11,,76,64
329,note_on,,29,0,13,,,,,,,,,,,,,,,,10,,85,0
329,note_on,,29,0,14,,,,,,,,,,,,,,,,11,,76,0
330,note_on,,1,0,14,,,,,,,,,,,,,,,,11,,74,64
330,note_on,,1,0,13,,,,,,,,,,,,,,,,10,,83,64
359,note_on,,119,0,11,,,,,,,,,,,,,,,,7,,57,0
359,note_on,,119,0,15,,,,,,,,,,,,,,,,12,,57,0
359,note_on,,119,0,16,,,,,,,,,,,,,,,,13,,57,0
359,note_on,,119,0,17,,,,,,,,,,,,,,,,15,,57,0
359,note_on,,0,0,17,,,,,,,,,,,,,,,,15,,69,0
359,note_on,,0,0,17,,,,,,,,,,,,,,,,15,,76,0
359,note_on,,0,0,17,,,,,,,,,,,,,,,,15,,73,0
359,note_on,,29,0,13,,,,,,,,,,,,,,,,10,,83,0
359,note_on,,119,0,8,,,,,,,,,,,,,,,,4,,69,0
359,note_on,,119,0,5,,,,,,,,,,,,,,,,0,,73,0
359,note_on,,119,0,7,,,,,,,,,,,,,,,,3,,81,0
359,note_on,,29,0,14,,,,,,,,,,,,,,,,11,,74,0
359,note_on,,119,0,10,,,,,,,,,,,,,,,,6,,64,0
359,note_on,,119,0,9,,,,,,,,,,,,,,,,5,,73,0
360,note_on,,1,0,13,,,,,,,,,,,,,,,,10,,81,64
360,note_on,,1,0,14,,,,,,,,,,,,,,,,11,,73,64
389,note_on,,29,0,14,,,,,,,,,,,,,,,,11,,73,0
389,note_on,,29,0,13,,,,,,,,,,,,,,,,10,,81,0
390,note_on,,1,0,14,,,,,,,,,,,,,,,,11,,76,64
390,note_on,,1,0,13,,,,,,,,,,,,,,,,10,,79,64
419,note_on,,29,0,13,,,,,,,,,,,,,,,,10,,79,0
419,note_on,,29,0,14,,,,,,,,,,,,,,,,11,,76,0
420,note_on,,1,0,14,,,,,,,,,,,,,,,,11,,74,64
420,note_on,,1,0,13,,,,,,,,,,,,,,,,10,,78,64
449,note_on,,29,0,14,,,,,,,,,,,,,,,,11,,74,0
449,note_on,,29,0,13,,,,,,,,,,,,,,,,10,,78,0
450,note_on,,1,0,14,,,,,,,,,,,,,,,,11,,73,64
450,note_on,,1,0,13,,,,,,,,,,,,,,,,10,,76,64
479,note_on,,29,0,13,,,,,,,,,,,,,,,,10,,76,0
479,note_on,,29,0,14,,,,,,,,,,,,,,,,11,,73,0
480,note_on,,1,0,13,,,,,,,,,,,,,,,,10,,74,64
480,note_on,,121,0,16,,,,,,,,,,,,,,,,13,,59,64
480,note_on,,121,0,11,,,,,,,,,,,,,,,,7,,59,64
480,note_on,,121,0,8,,,,,,,,,,,,,,,,4,,74,56
480,note_on,,121,0,5,,,,,,,,,,,,,,,,0,,74,64
480,note_on,,1,0,14,,,,,,,,,,,,,,,,11,,74,64
480,note_on,,121,0,7,,,,,,,,,,,,,,,,3,,79,56
480,note_on,,0,0,17,,,,,,,,,,,,,,,,15,,62,64
480,note_on,,0,0,17,,,,,,,,,,,,,,,,15,,67,64
480,note_on,,0,0,17,,,,,,,,,,,,,,,,15,,74,64
480,note_on,,121,0,17,,,,,,,,,,,,,,,,15,,59,64
480,note_on,,121,0,9,,,,,,,,,,,,,,,,5,,74,64
480,note_on,,121,0,15,,,,,,,,,,,,,,,,12,,59,64
480,note_on,,121,0,10,,,,,,,,,,,,,,,,6,,67,64
509,note_on,,29,0,13,,,,,,,,,,,,,,,,10,,74,0
510,note_on,,1,0,13,,,,,,,,,,,,,,,,10,,73,64
539,note_on,,29,0,13,,,,,,,,,,,,,,,,10,,73,0
540,note_on,,1,0,13,,,,,,,,,,,,,,,,10,,71,64
569,note_on,,29,0,13,,,,,,,,,,,,,,,,10,,71,0
570,note_on,,1,0,13,,,,,,,,,,,,,,,,10,,73,64
599,note_on,,119,0,16,,,,,,,,,,,,,,,,13,,59,0
599,note_on,,119,0,14,,,,,,,,,,,,,,,,11,,74,0
599,note_on,,0,0,17,,,,,,,,,,,,,,,,15,,74,0
599,note_on,,119,0,17,,,,,,,,,,,,,,,,15,,59,0
599,note_on,,119,0,8,,,,,,,,,,,,,,,,4,,74,0
599,note_on,,119,0,7,,,,,,,,,,,,,,,,3,,79,0
599,note_on,,119,0,15,,,,,,,,,,,,,,,,12,,59,0
599,note_on,,119,0,10,,,,,,,,,,,,,,,,6,,67,0
599,note_on,,119,0,9,,,,,,,,,,,,,,,,5,,74,0
599,note_on,,29,0,13,,,,,,,,,,,,,,,,10,,73,0
599,note_on,,119,0,5,,,,,,,,,,,,,,,,0,,74,0
599,note_on,,119,0,11,,,,,,,,,,,,,,,,7,,59,0
600,note_on,,1,0,8,,,,,,,,,,,,,,,,4,,74,56
600,note_on,,1,0,15,,,,,,,,,,,,,,,,12,,57,64
600,note_on,,1,0,13,,,,,,,,,,,,,,,,10,,74,64
600,note_on,,1,0,5,,,,,,,,,,,,,,,,0,,74,64
600,note_on,,0,0,17,,,,,,,,,,,,,,,,15,,73,64
600,note_on,,1,0,11,,,,,,,,,,,,,,,,7,,57,64
600,note_on,,1,0,9,,,,,,,,,,,,,,,,5,,74,64
600,note_on,,1,0,16,,,,,,,,,,,,,,,,13,,57,64
600,note_on,,1,0,14,,,,,,,,,,,,,,,,11,,73,64
600,note_on,,1,0,17,,,,,,,,,,,,,,,,15,,57,64
600,note_on,,1,0,7,,,,,,,,,,,,,,,,3,,78,56
600,note_on,,1,0,10,,,,,,,,,,,,,,,,6,,69,64
629,note_on,,29,0,13,,,,,,,,,,,,,,,,10,,74,0
630,note_on,,1,0,13,,,,,,,,,,,,,,,,10,,73,64
659,note_on,,29,0,13,,,,,,,,,,,,,,,,10,,73,0
660,note_on,,1,0,13,,,,,,,,,,,,,,,,10,,74,64
689,note_on,,89,0,16,,,,,,,,,,,,,,,,13,,57,0
689,note_on,,89,0,5,,,,,,,,,,,,,,,,0,,74,0
689,note_on,,89,0,9,,,,,,,,,,,,,,,,5,,74,0
689,note_on,,89,0,7,,,,,,,,,,,,,,,,3,,78,0
689,note_on,,0,0,17,,,,,,,,,,,,,,,,15,,73,0
689,note_on,,0,0,17,,,,,,,,,,,,,,,,15,,57,0
689,note_on,,89,0,14,,,,,,,,,,,,,,,,11,,73,0
689,note_on,,89,0,17,,,,,,,,,,,,,,,,15,,67,0
689,note_on,,89,0,10,,,,,,,,,,,,,,,,6,,69,0
689,note_on,,89,0,8,,,,,,,,,,,,,,,,4,,74,0
689,note_on,,29,0,13,,,,,,,,,,,,,,,,10,,74,0
689,note_on,,89,0,15,,,,,,,,,,,,,,,,12,,57,0
689,note_on,,0,0,17,,,,,,,,,,,,,,,,15,,62,0
689,note_on,,89,0,11,,,,,,,,,,,,,,,,7,,57,0
690,note_on,,1,0,14,,,,,,,,,,,,,,,,11,,71,64
690,note_on,,0,0,17,,,,,,,,,,,,,,,,15,,64,64
690,note_on,,1,0,15,,,,,,,,,,,,,,,,12,,55,64
690,note_on,,1,0,7,,,,,,,,,,,,,,,,3,,79,56
690,note_on,,1,0,9,,,,,,,,,,,,,,,,5,,76,64
690,note_on,,1,0,13,,,,,,,,,,,,,,,,10,,76,64
690,note_on,,1,0,11,,,,,,,,,,,,,,,,7,,55,64
690,note_on,,1,0,5,,,,,,,,,,,,,,,,0,,76,64
690,note_on,,0,0,17,,,,,,,,,,,,,,,,15,,67,64
690,note_on,,0,0,17,,,,,,,,,,,,,,,,15,,71,64
690,note_on,,1,0,17,,,,,,,,,,,,,,,,15,,55,64
690,note_on,,1,0,8,,,,,,,,,,,,,,,,4,,76,56
690,note_on,,1,0,10,,,,,,,,,,,,,,,,6,,71,64
690,note_on,,1,0,16,,,,,,,,,,,,,,,,13,,55,64
719,note_on,,0,0,17,,,,,,,,,,,,,,,,15,,71,0
719,note_on,,29,0,17,,,,,,,,,,,,,,,,15,,55,0
719,note_on,,29,0,10,,,,,,,,,,,,,,,,6,,71,0
719,note_on,,29,0,7,,,,,,,,,,,,,,,,3,,79,0
719,note_on,,29,0,15,,,,,,,,,,,,,,,,12,,55,0
719,note_on,,29,0,16,,,,,,,,,,,,,,,,13,,55,0
719,note_on,,29,0,13,,,,,,,,,,,,,,,,10,,76,0
719,note_on,,0,0,17,,,,,,,,,,,,,,,,15,,64,0
719,note_on,,29,0,9,,,,,,,,,,,,,,,,5,,76,0
719,note_on,,29,0,11,,,,,,,,,,,,,,,,7,,55,0
719,note_on,,29,0,14,,,,,,,,,,,,,,,,11,,71,0
719,note_on,,29,0,8,,,,,,,,,,,,,,,,4,,76,0
719,note_on,,29,0,5,,,,,,,,,,,,,,,,0,,76,0
719,note_on,,0,0,17,,,,,,,,,,,,,,,,15,,67,0
720,note_on,,1,0,5,,,,,,,,,,,,,,,,0,,78,64
720,note_on,,1,0,15,,,,,,,,,,,,,,,,12,,62,64
720,note_on,,1,0,14,,,,,,,,,,,,,,,,11,,69,64
720,note_on,,1,0,7,,,,,,,,,,,,,,,,3,,81,56
720,note_on,,0,0,17,,,,,,,,,,,,,,,,15,,69,64
720,note_on,,1,0,16,,,,,,,,,,,,,,,,13,,62,64
720,note_on,,0,0,17,,,,,,,,,,,,,,,,15,,66,64
720,note_on,,1,0,13,,,,,,,,,,,,,,,,10,,78,64
720,note_on,,1,0,9,,,,,,,,,,,,,,,,5,,78,64
720,note_on,,1,0,11,,,,,,,,,,,,,,,,7,,62,64
720,note_on,,1,0,8,,,,,,,,,,,,,,,,4,,78,56
720,note_on,,1,0,17,,,,,,,,,,,,,,,,15,,62,64
720,note_on,,1,0,10,,,,,,,,,,,,,,,,6,,69,64
749,note_on,,29,0,13,,,,,,,,,,,,,,,,10,,78,0
750,note_on,,1,0,13,,,,,,,,,,,,,,,,10,,76,64
779,note_on,,59,0,14,,,,,,,,,,,,,,,,11,,69,0
779,note_on,,29,0,13,,,,,,,,,,,,,,,,10,,76,0
780,note_on,,1,0,13,,,,,,,,,,,,,,,,10,,78,64
780,note_on,,1,0,14,,,,,,,,,,,,,,,,11,,74,64
809,note_on,,29,0,14,,,,,,,,,,,,,,,,11,,74,0
809,note_on,,29,0,13,,,,,,,,,,,,,,,,10,,78,0
810,note_on,,1,0,14,,,,,,,,,,,,,,,,11,,76,64
810,note_on,,1,0,13,,,,,,,,,,,,,,,,10,,79,64
839,note_on,,119,0,7,,,,,,,,,,,,,,,,3,,81,0
839,note_on,,119,0,16,,,,,,,,,,,,,,,,13,,62,0
839,note_on,,0,0,17,,,,,,,,,,,,,,,,15,,69,0
839,note_on,,0,0,17,,,,,,,,,,,,,,,,15,,66,0
839,note_on,,119,0,9,,,,,,,,,,,,,,,,5,,78,0
839,note_on,,119,0,8,,,,,,,,,,,,,,,,4,,78,0
839,note_on,,119,0,17,,,,,,,,,,,,,,,,15,,62,0
839,note_on,,29,0,13,,,,,,,,,,,,,,,,10,,79,0
839,note_on,,119,0,15,,,,,,,,,,,,,,,,12,,62,0
839,note_on,,119,0,10,,,,,,,,,,,,,,,,6,,69,0
839,note_on,,29,0,14,,,,,,,,,,,,,,,,11,,76,0
839,note_on,,119,0,11,,,,,,,,,,,,,,,,7,,62,0
839,note_on,,119,0,5,,,,,,,,,,,,,,,,0,,78,0
840,note_on,,1,0,10,,,,,,,,,,,,,,,,6,,69,64
840,note_on,,0,0,17,,,,,,,,,,,,,,,,15,,69,64
840,note_on,,0,0,17,,,,,,,,,,,,,,,,15,,74,64
840,note_on,,0,0,17,,,,,,,,,,,,,,,,15,,78,64
840,note_on,,1,0,17,,,,,,,,,,,,,,,,15,,62,64
840,note_on,,1,0,9,,,,,,,,,,,,,,,,5,,78,64
840,note_on,,1,0,13,,,,,,,,,,,,,,,,10,,81,64
840,note_on,,1,0,7,,,,,,,,,,,,,,,,3,,81,56
840,note_on,,1,0,14,,,,,,,,,,,,,,,,11,,78,64
840,note_on,,1,0,11,,,,,,,,,,,,,,,,7,,62,64
840,note_on,,1,0,16,,,,,,,,,,,,,,,,13,,62,64
840,note_on,,1,0,15,,,,,,,,,,,,,,,,12,,62,64
840,note_on,,1,0,8,,,,,,,,,,,,,,,,4,,78,56
840,note_on,,1,0,5,,,,,,,,,,,,,,,,0,,78,64
869,note_on,,29,0,13,,,,,,,,,,,,,,,,10,,81,0
869,note_on,,29,0,14,,,,,,,,,,,,,,,,11,,78,0
870,note_on,,1,0,14,,,,,,,,,,,,,,,,11,,74,64
870,note_on,,1,0,13,,,,,,,,,,,,,,,,10,,78,64
899,note_on,,29,0,13,,,,,,,,,,,,,,,,10,,78,0
899,note_on,,59,0,10,,,,,,,,,,,,,,,,6,,69,0
899,note_on,,59,0,5,,,,,,,,,,,,,,,,0,,78,0
899,note_on,,59,0,8,,,,,,,,,,,,,,,,4,,78,0
899,note_on,,59,0,11,,,,,,,,,,,,,,,,7,,62,0
899,note_on,,59,0,9,,,,,,,,,,,,,,,,5,,78,0
899,note_on,,59,0,16,,,,,,,,,,,,,,,,13,,62,0
899,note_on,,59,0,7,,,,,,,,,,,,,,,,3,,81,0
899,note_on,,0,0,17,,,,,,,,,,,,,,,,15,,69,0
899,note_on,,0,0,17,,,,,,,,,,,,,,,,15,,74,0
899,note_on,,0,0,17,,,,,,,,,,,,,,,,15,,78,0
899,note_on,,59,0,17,,,,,,,,,,,,,,,,15,,62,0
899,note_on,,29,0,14,,,,,,,,,,,,,,,,11,,74,0
899,note_on,,59,0,15,,,,,,,,,,,,,,,,12,,62,0
900,note_on,,1,0,14,,,,,,,,,,,,,,,,11,,76,64
900,note_on,,1,0,11,,,,,,,,,,,,,,,,7,,62,64
900,note_on,,1,0,15,,,,,,,,,,,,,,,,12,,62,64
900,note_on,,1,0,8,,,,,,,,,,,,,,,,4,,78,56
900,note_on,,1,0,13,,,,,,,,,,,,,,,,10,,79,64
900,note_on,,1,0,16,,,,,,,,,,,,,,,,13,,62,64
900,note_on,,1,0,9,,,,,,,,,,,,,,,,5,,78,64
900,note_on,,0,0,17,,,,,,,,,,,,,,,,15,,69,64
900,note_on,,1,0,17,,,,,,,,,,,,,,,,15,,62,64
900,note_on,,1,0,10,,,,,,,,,,,,,,,,6,,69,64
900,note_on,,1,0,5,,,,,,,,,,,,,,,,0,,78,64
900,note_on,,0,0,17,,,,,,,,,,,,,,,,15,,78,64
900,note_on,,0,0,17,,,,,,,,,,,,,,,,15,,74,64
900,note_on,,1,0,7,,,,,,,,,,,,,,,,3,,81,56
929,note_on,,29,0,14,,,,,,,,,,,,,,,,11,,76,0
929,note_on,,29,0,13,,,,,,,,,,,,,,,,10,,79,0
930,note_on,,1,0,14,,,,,,,,,,,,,,,,11,,78,64
930,note_on,,1,0,13,,,,,,,,,,,,,,,,10,,81,64
959,note_on,,29,0,14,,,,,,,,,,,,,,,,11,,78,0
959,note_on,,59,0,11,,,,,,,,,,,,,,,,7,,62,0
959,note_on,,59,0,7,,,,,,,,,,,,,,,,3,,81,0
959,note_on,,59,0,15,,,,,,,,,,,,,,,,12,,62,0
959,note_on,,59,0,10,,,,,,,,,,,,,,,,6,,69,0
959,note_on,,59,0,5,,,,,,,,,,,,,,,,0,,78,0
959,note_on,,29,0,13,,,,,,,,,,,,,,,,10,,81,0
959,note_on,,59,0,9,,,,,,,,,,,,,,,,5,,78,0
959,note_on,,59,0,8,,,,,,,,,,,,,,,,4,,78,0
959,note_on,,59,0,16,,,,,,,,,,,,,,,,13,,62,0
959,note_on,,59,0,17,,,,,,,,,,,,,,,,15,,62,0
959,note_on,,0,0,17,,,,,,,,,,,,,,,,15,,69,0
959,note_on,,0,0,17,,,,,,,,,,,,,,,,15,,74,0
959,note_on,,0,0,17,,,,,,,,,,,,,,,,15,,78,0
960,note_on,,1,0,8,,,,,,,,,,,,,,,,4,,79,56
960,note_on,,1,0,14,,,,,,,,,,,,,,,,11,,74,64
960,note_on,,1,0,11,,,,,,,,,,,,,,,,7,,67,64
960,note_on,,1,0,7,,,,,,,,,,,,,,,,3,,83,56
960,note_on,,1,0,15,,,,,,,,,,,,,,,,12,,67,64
960,note_on,,0,0,17,,,,,,,,,,,,,,,,15,,71,64
960,note_on,,1,0,10,,,,,,,,,,,,,,,,6,,71,64
960,note_on,,1,0,5,,,,,,,,,,,,,,,,0,,74,64
960,note_on,,1,0,17,,,,,,,,,,,,,,,,15,,67,64
960,note_on,,1,0,16,,,,,,,,,,,,,,,,13,,67,64
960,note_on,,0,0,17,,,,,,,,,,,,,,,,15,,79,64
960,note_on,,1,0,13,,,,,,,,,,,,,,,,10,,83,64
960,note_on,,0,0,17,,,,,,,,,,,,,,,,15,,74,64
960,note_on,,1,0,9,,,,,,,,,,,,,,,,5,,74,64
989,note_on,,29,0,13,,,,,,,,,,,,,,,,10,,83,0
989,note_on,,29,0,14,,,,,,,,,,,,,,,,11,,74,0
990,note_on,,1,0,13,,,,,,,,,,,,,,,,10,,74,64
990,note_on,,1,0,14,,,,,,,,,,,,,,,,11,,71,64
1019,note_on,,29,0,14,,,,,,,,,,,,,,,,11,,71,0
1019,note_on,,29,0,13,,,,,,,,,,,,,,,,10,,74,0
1020,note_on,,1,0,14,,,,,,,,,,,,,,,,11,,73,64
1020,note_on,,1,0,13,,,,,,,,,,,,,,,,10,,76,64
1049,note_on,,29,0,14,,,,,,,,,,,,,,,,11,,73,0
1049,note_on,,29,0,13,,,,,,,,,,,,,,,,10,,76,0
1050,note_on,,1,0,14,,,,,,,,,,,,,,,,11,,74,64
1050,note_on,,1,0,13,,,,,,,,,,,,,,,,10,,78,64
1079,note_on,,29,0,13,,,,,,,,,,,,,,,,10,,78,0
1079,note_on,,29,0,14,,,,,,,,,,,,,,,,11,,74,0
1080,note_on,,1,0,13,,,,,,,,,,,,,,,,10,,79,64
1080,note_on,,1,0,14,,,,,,,,,,,,,,,,11,,67,64
1109,note_on,,29,0,13,,,,,,,,,,,,,,,,10,,79,0
1109,note_on,,29,0,14,,,,,,,,,,,,,,,,11,,67,0
1110,note_on,,1,0,13,,,,,,,,,,,,,,,,10,,71,64
1110,note_on,,1,0,14,,,,,,,,,,,,,,,,11,,74,64
1139,note_on,,29,0,13,,,,,,,,,,,,,,,,10,,71,0
1139,note_on,,29,0,14,,,,,,,,,,,,,,,,11,,74,0
1139,note_on,,179,0,8,,,,,,,,,,,,,,,,4,,79,0
1139,note_on,,179,0,7,,,,,,,,,,,,,,,,3,,83,0
1140,note_on,,1,0,13,,,,,,,,,,,,,,,,10,,73,64
1140,note_on,,1,0,8,,,,,,,,,,,,,,,,4,,74,56
1140,note_on,,1,0,7,,,,,,,,,,,,,,,,3,,79,56
1140,note_on,,1,0,14,,,,,,,,,,,,,,,,11,,76,64
1169,note_on,,29,0,14,,,,,,,,,,,,,,,,11,,76,0
1169,note_on,,29,0,13,,,,,,,,,,,,,,,,10,,73,0
1170,note_on,,1,0,14,,,,,,,,,,,,,,,,11,,78,64
1170,note_on,,1,0,13,,,,,,,,,,,,,,,,10,,74,64
1199,note_on,,29,0,13,,,,,,,,,,,,,,,,10,,74,0
1199,note_on,,59,0,8,,,,,,,,,,,,,,,,4,,74,0
1199,note_on,,59,0,7,,,,,,,,,,,,,,,,3,,79,0
1199,note_on,,29,0,14,,,,,,,,,,,,,,,,11,,78,0
1200,note_on,,1,0,8,,,,,,,,,,,,,,,,4,,74,56
1200,note_on,,1,0,14,,,,,,,,,,,,,,,,11,,79,64
1200,note_on,,1,0,13,,,,,,,,,,,,,,,,10,,67,64
1200,note_on,,1,0,7,,,,,,,,,,,,,,,,3,,79,56
1229,note_on,,29,0,14,,,,,,,,,,,,,,,,11,,79,0
1229,note_on,,29,0,13,,,,,,,,,,,,,,,,10,,67,0
1230,note_on,,1,0,14,,,,,,,,,,,,,,,,11,,78,64
1230,note_on,,1,0,13,,,,,,,,,,,,,,,,10,,74,64
1259,note_on,,59,0,8,,,,,,,,,,,,,,,,4,,74,0
1259,note_on,,59,0,7,,,,,,,,,,,,,,,,3,,79,0
1259,note_on,,29,0,14,,,,,,,,,,,,,,,,11,,78,0
1259,note_on,,29,0,13,,,,,,,,,,,,,,,,10,,74,0
1260,note_on,,1,0,7,,,,,,,,,,,,,,,,3,,79,56
1260,note_on,,1,0,13,,,,,,,,,,,,,,,,10,,76,64
1260,note_on,,1,0,8,,,,,,,,,,,,,,,,4,,74,56
1260,note_on,,1,0,14,,,,,,,,,,,,,,,,11,,79,64
1289,note_on,,29,0,13,,,,,,,,,,,,,,,,10,,76,0
1289,note_on,,29,0,14,,,,,,,,,,,,,,,,11,,79,0
1290,note_on,,1,0,14,,,,,,,,,,,,,,,,11,,81,64
1290,note_on,,1,0,13,,,,,,,,,,,,,,,,10,,78,64
1319,note_on,,59,0,8,,,,,,,,,,,,,,,,4,,74,0
1319,note_on,,29,0,14,,,,,,,,,,,,,,,,11,,81,0
1319,note_on,,59,0,7,,,,,,,,,,,,,,,,3,,79,0
1319,note_on,,29,0,13,,,,,,,,,,,,,,,,10,,78,0
1320,note_on,,1,0,7,,,,,,,,,,,,,,,,3,,79,56
1320,note_on,,1,0,14,,,,,,,,,,,,,,,,11,,83,64
1320,note_on,,1,0,8,,,,,,,,,,,,,,,,4,,74,56
1320,note_on,,1,0,13,,,,,,,,,,,,,,,,10,,79,64
1349,note_on,,29,0,14,,,,,,,,,,,,,,,,11,,83,0
1349,note_on,,29,0,13,,,,,,,,,,,,,,,,10,,79,0
1350,note_on,,1,0,13,,,,,,,,,,,,,,,,10,,78,64
1350,note_on,,1,0,14,,,,,,,,,,,,,,,,11,,81,64
1379,note_on,,29,0,13,,,,,,,,,,,,,,,,10,,78,0
1379,note_on,,59,0,8,,,,,,,,,,,,,,,,4,,74,0
1379,note_on,,59,0,7,,,,,,,,,,,,,,,,3,,79,0
1379,note_on,,29,0,14,,,,,,,,,,,,,,,,11,,81,0
1380,note_on,,1,0,13,,,,,,,,,,,,,,,,10,,79,64
1380,note_on,,1,0,7,,,,,,,,,,,,,,,,3,,79,56
1380,note_on,,1,0,14,,,,,,,,,,,,,,,,11,,83,64
1380,note_on,,1,0,8,,,,,,,,,,,,,,,,4,,74,56
1409,note_on,,29,0,14,,,,,,,,,,,,,,,,11,,83,0
1409,note_on,,29,0,13,,,,,,,,,,,,,,,,10,,79,0
1410,note_on,,1,0,13,,,,,,,,,,,,,,,,10,,81,64
1410,note_on,,1,0,14,,,,,,,,,,,,,,,,11,,85,64
1439,note_on,,59,0,7,,,,,,,,,,,,,,,,3,,79,0
1439,note_on,,0,0,17,,,,,,,,,,,,,,,,15,,79,0
1439,note_on,,59,0,8,,,,,,,,,,,,,,,,4,,74,0
1439,note_on,,479,0,17,,,,,,,,,,,,,,,,15,,67,0
1439,note_on,,479,0,11,,,,,,,,,,,,,,,,7,,67,0
1439,note_on,,479,0,15,,,,,,,,,,,,,,,,12,,67,0
1439,note_on,,479,0,16,,,,,,,,,,,,,,,,13,,67,0
1439,note_on,,479,0,10,,,,,,,,,,,,,,,,6,,71,0
1439,note_on,,0,0,17,,,,,,,,,,,,,,,,15,,71,0
1439,note_on,,0,0,17,,,,,,,,,,,,,,,,15,,74,0
1439,note_on,,479,0,9,,,,,,,,,,,,,,,,5,,74,0
1439,note_on,,479,0,5,,,,,,,,,,,,,,,,0,,74,0
1439,note_on,,29,0,13,,,,,,,,,,,,,,,,10,,81,0
1439,note_on,,29,0,14,,,,,,,,,,,,,,,,11,,85,0
1440,note_on,,1,0,7,,,,,,,,,,,,,,,,3,,81,56
1440,note_on,,1,0,13,,,,,,,,,,,,,,,,10,,78,64
1440,note_on,,1,0,15,,,,,,,,,,,,,,,,12,,62,64
1440,note_on,,1,0,14,,,,,,,,,,,,,,,,11,,81,64
1440,note_on,,1,0,11,,,,,,,,,,,,,,,,7,,62,64
1440,note_on,,1,0,10,,,,,,,,,,,,,,,,6,,69,64
1440,note_on,,1,0,8,,,,,,,,,,,,,,,,4,,78,56
1440,note_on,,0,0,17,,,,,,,,,,,,,,,,15,,74,64
1440,note_on,,0,0,17,,,,,,,,,,,,,,,,15,,78,64
1440,note_on,,1,0,17,,,,,,,,,,,,,,,,15,,62,64
1440,note_on,,1,0,16,,,,,,,,,,,,,,,,13,,62,64
1440,note_on,,1,0,9,,,,,,,,,,,,,,,,5,,78,64
1440,note_on,,1,0,5,,,,,,,,,,,,,,,,0,,78,64
1440,note_on,,0,0,17,,,,,,,,,,,,,,,,15,,69,64
1469,note_on,,29,0,13,,,,,,,,,,,,,,,,10,,78,0
1469,note_on,,29,0,14,,,,,,,,,,,,,,,,11,,81,0
1470,note_on,,1,0,14,,,,,,,,,,,,,,,,11,,78,64
1470,note_on,,1,0,13,,,,,,,,,,,,,,,,10,,81,64
1499,note_on,,29,0,14,,,,,,,,,,,,,,,,11,,78,0
1499,note_on,,29,0,13,,,,,,,,,,,,,,,,10,,81,0
1500,note_on,,1,0,14,,,,,,,,,,,,,,,,11,,79,64
1500,note_on,,1,0,13,,,,,,,,,,,,,,,,10,,83,64
1529,note_on,,29,0,14,,,,,,,,,,,,,,,,11,,79,0
1529,note_on,,29,0,13,,,,,,,,,,,,,,,,10,,83,0
1530,note_on,,1,0,14,,,,,,,,,,,,,,,,11,,76,64
1530,note_on,,1,0,13,,,,,,,,,,,,,,,,10,,85,64
1559,note_on,,29,0,14,,,,,,,,,,,,,,,,11,,76,0
1559,note_on,,29,0,13,,,,,,,,,,,,,,,,10,,85,0
1559,note_on,,119,0,8,,,,,,,,,,,,,,,,4,,78,0
1559,note_on,,119,0,7,,,,,,,,,,,,,,,,3,,81,0
1560,note_on,,1,0,13,,,,,,,,,,,,,,,,10,,86,64
1560,note_on,,1,0,14,,,,,,,,,,,,,,,,11,,78,64
1589,note_on,,29,0,14,,,,,,,,,,,,,,,,11,,78,0
1589,note_on,,29,0,13,,,,,,,,,,,,,,,,10,,86,0
1590,note_on,,1,0,13,,,,,,,,,,,,,,,,10,,78,64
1590,note_on,,1,0,14,,,,,,,,,,,,,,,,11,,69,64
1619,note_on,,29,0,14,,,,,,,,,,,,,,,,11,,69,0
1619,note_on,,29,0,13,,,,,,,,,,,,,,,,10,,78,0
1620,note_on,,1,0,14,,,,,,,,,,,,,,,,11,,71,64
1620,note_on,,1,0,13,,,,,,,,,,,,,,,,10,,79,64
1649,note_on,,29,0,14,,,,,,,,,,,,,,,,11,,71,0
1649,note_on,,29,0,13,,,,,,,,,,,,,,,,10,,79,0
1650,note_on,,1,0,14,,,,,,,,,,,,,,,,11,,73,64
1650,note_on,,1,0,13,,,,,,,,,,,,,,,,10,,81,64
1679,note_on,,239,0,10,,,,,,,,,,,,,,,,6,,69,0
1679,note_on,,239,0,9,,,,,,,,,,,,,,,,5,,78,0
1679,note_on,,239,0,15,,,,,,,,,,,,,,,,12,,62,0
1679,note_on,,0,0,17,,,,,,,,,,,,,,,,15,,69,0
1679,note_on,,239,0,11,,,,,,,,,,,,,,,,7,,62,0
1679,note_on,,0,0,17,,,,,,,,,,,,,,,,15,,74,0
1679,note_on,,29,0,13,,,,,,,,,,,,,,,,10,,81,0
1679,note_on,,239,0,17,,,,,,,,,,,,,,,,15,,62,0
1679,note_on,,0,0,17,,,,,,,,,,,,,,,,15,,78,0
1679,note_on,,239,0,16,,,,,,,,,,,,,,,,13,,62,0
1679,note_on,,29,0,14,,,,,,,,,,,,,,,,11,,73,0
1679,note_on,,239,0,5,,,,,,,,,,,,,,,,0,,78,0
1680,note_on,,1,0,13,,,,,,,,,,,,,,,,10,,74,64
1680,note_on,,1,0,14,,,,,,,,,,,,,,,,11,,74,64
1709,note_on,,29,0,14,,,,,,,,,,,,,,,,11,,74,0
1709,note_on,,29,0,13,,,,,,,,,,,,,,,,10,,74,0
1710,note_on,,1,0,13,,,,,,,,,,,,,,,,10,,69,64
1710,note_on,,1,0,14,,,,,,,,,,,,,,,,11,,73,64
1739,note_on,,29,0,13,,,,,,,,,,,,,,,,10,,69,0
1739,note_on,,29,0,14,,,,,,,,,,,,,,,,11,,73,0
1740,note_on,,1,0,13,,,,,,,,,,,,,,,,10,,71,64
1740,note_on,,1,0,14,,,,,,,,,,,,,,,,11,,74,64
1769,note_on,,29,0,14,,,,,,,,,,,,,,,,11,,74,0
1769,note_on,,29,0,13,,,,,,,,,,,,,,,,10,,71,0
1770,note_on,,1,0,14,,,,,,,,,,,,,,,,11,,76,64
1770,note_on,,1,0,13,,,,,,,,,,,,,,,,10,,73,64
1799,note_on,,29,0,13,,,,,,,,,,,,,,,,10,,73,0
1799,note_on,,29,0,14,,,,,,,,,,,,,,,,11,,76,0
1800,note_on,,1,0,13,,,,,,,,,,,,,,,,10,,74,64
1800,note_on,,1,0,14,,,,,,,,,,,,,,,,11,,78,64
1829,note_on,,29,0,13,,,,,,,,,,,,,,,,10,,74,0
1829,note_on,,29,0,14,,,,,,,,,,,,,,,,11,,78,0
1830,note_on,,1,0,13,,,,,,,,,,,,,,,,10,,66,64
1830,note_on,,1,0,14,,,,,,,,,,,,,,,,11,,69,64
1859,note_on,,29,0,13,,,,,,,,,,,,,,,,10,,66,0
1859,note_on,,29,0,14,,,,,,,,,,,,,,,,11,,69,0
1860,note_on,,1,0,13,,,,,,,,,,,,,,,,10,,67,64
1860,note_on,,1,0,14,,,,,,,,,,,,,,,,11,,71,64
1889,note_on,,29,0,13,,,,,,,,,,,,,,,,10,,67,0
1889,note_on,,29,0,14,,,,,,,,,,,,,,,,11,,71,0
1890,note_on,,1,0,13,,,,,,,,,,,,,,,,10,,64,64
1890,note_on,,1,0,14,,,,,,,,,,,,,,,,11,,73,64
1919,note_on,,29,0,14,,,,,,,,,,,,,,,,11,,73,0
1919,note_on,,29,0,13,,,,,,,,,,,,,,,,10,,64,0
1920,note_on,,1,0,14,,,,,,,,,,,,,,,,11,,74,64
1920,note_on,,1,0,13,,,,,,,,,,,,,,,,10,,66,64
2039,note_on,,119,0,14,,,,,,,,,,,,,,,,11,,74,0
2039,note_on,,119,0,13,,,,,,,,,,,,,,,,10,,66,0
2280,note_on,,0,0,12,,,,,,,,,,,,,,,,8,,57,64
2280,control_change,,2280,0,12,,,,,,,,,,,,,,7,96,8,,,
2280,note_on,,601,0,15,,,,,,,,,,,,,,,,12,,69,64
2280,note_on,,601,0,16,,,,,,,,,,,,,,,,13,,57,64
2280,note_on,,0,0,17,,,,,,,,,,,,,,,,15,,69,64
2280,note_on,,2280,0,6,,,,,,,,,,,,,,,,2,,57,64
2280,note_on,,241,0,13,,,,,,,,,,,,,,,,10,,69,64
2280,note_on,,241,0,14,,,,,,,,,,,,,,,,11,,69,64
2280,note_on,,601,0,11,,,,,,,,,,,,,,,,7,,57,64
2280,note_on,,601,0,17,,,,,,,,,,,,,,,,15,,57,64
2399,note_on,,119,0,16,,,,,,,,,,,,,,,,13,,57,0
2399,note_on,,119,0,13,,,,,,,,,,,,,,,,10,,69,0
2399,note_on,,119,0,15,,,,,,,,,,,,,,,,12,,69,0
2399,note_on,,119,0,17,,,,,,,,,,,,,,,,15,,57,0
2399,note_on,,119,0,14,,,,,,,,,,,,,,,,11,,69,0
2399,note_on,,119,0,11,,,,,,,,,,,,,,,,7,,57,0
2399,note_on,,0,0,17,,,,,,,,,,,,,,,,15,,69,0
2399,note_on,,119,0,6,,,,,,,,,,,,,,,,2,,57,0
2399,note_on,,119,0,12,,,,,,,,,,,,,,,,8,,57,0
2400,note_on,,1,0,6,,,,,,,,,,,,,,,,2,,57,64
2400,note_on,,1,0,11,,,,,,,,,,,,,,,,7,,57,64
2400,note_on,,1,0,17,,,,,,,,,,,,,,,,15,,57,64
2400,note_on,,1,0,12,,,,,,,,,,,,,,,,8,,57,64
2400,note_on,,0,0,17,,,,,,,,,,,,,,,,15,,69,64
2400,note_on,,1,0,16,,,,,,,,,,,,,,,,13,,57,64
2400,note_on,,1,0,13,,,,,,,,,,,,,,,,10,,69,64
2400,note_on,,1,0,14,,,,,,,,,,,,,,,,11,,69,64
2400,note_on,,1,0,15,,,,,,,,,,,,,,,,12,,69,64
2759,note_on,,359,0,16,,,,,,,,,,,,,,,,13,,57,0
2759,note_on,,359,0,14,,,,,,,,,,,,,,,,11,,69,0
2759,note_on,,359,0,13,,,,,,,,,,,,,,,,10,,69,0
2759,note_on,,0,0,17,,,,,,,,,,,,,,,,15,,69,0
2759,note_on,,359,0,17,,,,,,,,,,,,,,,,15,,57,0
2759,note_on,,359,0,12,,,,,,,,,,,,,,,,8,,57,0
2759,note_on,,359,0,6,,,,,,,,,,,,,,,,2,,57,0
2759,note_on,,359,0,15,,,,,,,,,,,,,,,,12,,69,0
2759,note_on,,359,0,11,,,,,,,,,,,,,,,,7,,57,0
2760,note_on,,1,0,12,,,,,,,,,,,,,,,,8,,45,64
2760,note_on,,1,0,15,,,,,,,,,,,,,,,,12,,57,64
2760,note_on,,1,0,13,,,,,,,,,,,,,,,,10,,57,64
2760,note_on,,1,0,16,,,,,,,,,,,,,,,,13,,45,64
2760,note_on,,0,0,17,,,,,,,,,,,,,,,,15,,57,64
2760,note_on,,1,0,14,,,,,,,,,,,,,,,,11,,57,64
2760,note_on,,1,0,17,,,,,,,,,,,,,,,,15,,45,64
2760,note_on,,1,0,6,,,,,,,,,,,,,,,,2,,45,64
2760,note_on,,1,0,11,,,,,,,,,,,,,,,,7,,57,64
2879,note_on,,0,0,17,,,,,,,,,,,,,,,,15,,57,0
2879,note_on,,119,0,6,,,,,,,,,,,,,,,,2,,45,0
2879,note_on,,119,0,14,,,,,,,,,,,,,,,,11,,57,0
2879,note_on,,119,0,12,,,,,,,,,,,,,,,,8,,45,0
2879,note_on,,119,0,13,,,,,,,,,,,,,,,,10,,57,0
2879,note_on,,119,0,16,,,,,,,,,,,,,,,,13,,45,0
2879,note_on,,119,0,15,,,,,,,,,,,,,,,,12,,57,0
2879,note_on,,119,0,17,,,,,,,,,,,,,,,,15,,45,0
2879,note_on,,119,0,11,,,,,,,,,,,,,,,,7,,57,0
2880,note_on,,1,0,13,,,,,,,,,,,,,,,,10,,57,64
2880,note_on,,1,0,16,,,,,,,,,,,,,,,,13,,45,64
2880,note_on,,1,0,14,,,,,,,,,,,,,,,,11,,57,64
2880,note_on,,1,0,12,,,,,,,,,,,,,,,,8,,45,64
2880,note_on,,1,0,11,,,,,,,,,,,,,,,,7,,57,64
2880,note_on,,1,0,6,,,,,,,,,,,,,,,,2,,45,64
2880,note_on,,0,0,17,,,,,,,,,,,,,,,,15,,57,64
2880,note_on,,1,0,17,,,,,,,,,,,,,,,,15,,45,64
2880,note_on,,1,0,15,,,,,,,,,,,,,,,,12,,57,64
3059,note_on,,179,0,15,,,,,,,,,,,,,,,,12,,57,0
3059,note_on,,179,0,13,,,,,,,,,,,,,,,,10,,57,0
3059,note_on,,179,0,14,,,,,,,,,,,,,,,,11,,57,0
3060,note_on,,1,0,15,,,,,,,,,,,,,,,,12,,57,48
3060,note_on,,1,0,13,,,,,,,,,,,,,,,,10,,64,48
3060,note_on,,1,0,14,,,,,,,,,,,,,,,,11,,61,48
3119,note_on,,59,0,15,,,,,,,,,,,,,,,,12,,57,0
3119,note_on,,59,0,13,,,,,,,,,,,,,,,,10,,64,0
3119,note_on,,59,0,14,,,,,,,,,,,,,,,,11,,61,0
3120,note_on,,1,0,15,,,,,,,,,,,,,,,,12,,57,48
3120,note_on,,1,0,13,,,,,,,,,,,,,,,,10,,64,48
3120,note_on,,1,0,14,,,,,,,,,,,,,,,,11,,61,48
3149,note_on,,29,0,15,,,,,,,,,,,,,,,,12,,57,0
3149,note_on,,29,0,13,,,,,,,,,,,,,,,,10,,64,0
3149,note_on,,29,0,14,,,,,,,,,,,,,,,,11,,61,0
3180,note_on,,31,0,15,,,,,,,,,,,,,,,,12,,57,48
3180,note_on,,31,0,13,,,,,,,,,,,,,,,,10,,64,48
3180,note_on,,31,0,14,,,,,,,,,,,,,,,,11,,61,48
3209,note_on,,29,0,15,,,,,,,,,,,,,,,,12,,57,0
3209,note_on,,29,0,14,,,,,,,,,,,,,,,,11,,61,0
3209,note_on,,29,0,13,,,,,,,,,,,,,,,,10,,64,0
3240,note_on,,31,0,14,,,,,,,,,,,,,,,,11,,61,48
3240,note_on,,31,0,13,,,,,,,,,,,,,,,,10,,64,48
3240,note_on,,31,0,15,,,,,,,,,,,,,,,,12,,57,48
3269,note_on,,29,0,13,,,,,,,,,,,,,,,,10,,64,0
3269,note_on,,29,0,15,,,,,,,,,,,,,,,,12,,57,0
3269,note_on,,29,0,14,,,,,,,,,,,,,,,,11,,61,0
3300,note_on,,31,0,15,,,,,,,,,,,,,,,,12,,57,48
3300,note_on,,31,0,13,,,,,,,,,,,,,,,,10,,64,48
3300,note_on,,31,0,14,,,,,,,,,,,,,,,,11,,61,48
3329,note_on,,29,0,14,,,,,,,,,,,,,,,,11,,61,0
3329,note_on,,29,0,15,,,,,,,,,,,,,,,,12,,57,0
3329,note_on,,29,0,13,,,,,,,,,,,,,,,,10,,64,0
3359,note_on,,479,0,16,,,,,,,,,,,,,,,,13,,45,0
3359,note_on,,0,0,17,,,,,,,,,,,,,,,,15,,57,0
3359,note_on,,479,0,17,,,,,,,,,,,,,,,,15,,45,0
3359,note_on,,479,0,6,,,,,,,,,,,,,,,,2,,45,0
3359,note_on,,479,0,11,,,,,,,,,,,,,,,,7,,57,0
3359,note_on,,479,0,12,,,,,,,,,,,,,,,,8,,45,0
3360,note_on,,31,0,13,,,,,,,,,,,,,,,,10,,66,48
3360,note_on,,31,0,15,,,,,,,,,,,,,,,,12,,57,48
3360,note_on,,31,0,14,,,,,,,,,,,,,,,,11,,62,48
3389,note_on,,29,0,13,,,,,,,,,,,,,,,,10,,66,0
3389,note_on,,29,0,15,,,,,,,,,,,,,,,,12,,57,0
3389,note_on,,29,0,14,,,,,,,,,,,,,,,,11,,62,0
3420,note_on,,31,0,15,,,,,,,,,,,,,,,,12,,57,48
3420,note_on,,31,0,13,,,,,,,,,,,,,,,,10,,66,48
3420,note_on,,31,0,14,,,,,,,,,,,,,,,,11,,62,48
3449,note_on,,29,0,13,,,,,,,,,,,,,,,,10,,66,0
3449,note_on,,29,0,15,,,,,,,,,,,,,,,,12,,57,0
3449,note_on,,29,0,14,,,,,,,,,,,,,,,,11,,62,0
3480,note_on,,31,0,13,,,,,,,,,,,,,,,,10,,66,48
3480,note_on,,31,0,14,,,,,,,,,,,,,,,,11,,62,48
3480,note_on,,31,0,15,,,,,,,,,,,,,,,,12,,57,48
3509,note_on,,29,0,13,,,,,,,,,,,,,,,,10,,66,0
3509,note_on,,29,0,14,,,,,,,,,,,,,,,,11,,62,0
3509,note_on,,29,0,15,,,,,,,,,,,,,,,,12,,57,0
3540,note_on,,31,0,15,,,,,,,,,,,,,,,,12,,57,48
3540,note_on,,31,0,14,,,,,,,,,,,,,,,,11,,62,48
3540,note_on,,31,0,13,,,,,,,,,,,,,,,,10,,66,48
3569,note_on,,29,0,13,,,,,,,,,,,,,,,,10,,66,0
3569,note_on,,29,0,15,,,,,,,,,,,,,,,,12,,57,0
3569,note_on,,29,0,14,,,,,,,,,,,,,,,,11,,62,0
3600,note_on,,31,0,14,,,,,,,,,,,,,,,,11,,62,48
3600,note_on,,31,0,15,,,,,,,,,,,,,,,,12,,57,48
3600,note_on,,31,0,13,,,,,,,,,,,,,,,,10,,66,48
3629,note_on,,29,0,14,,,,,,,,,,,,,,,,11,,62,0
3629,note_on,,29,0,15,,,,,,,,,,,,,,,,12,,57,0
3629,note_on,,29,0,13,,,,,,,,,,,,,,,,10,,66,0
3660,note_on,,31,0,14,,,,,,,,,,,,,,,,11,,62,48
3660,note_on,,31,0,15,,,,,,,,,,,,,,,,12,,57,48
3660,note_on,,31,0,13,,,,,,,,,,,,,,,,10,,66,48
3689,note_on,,29,0,13,,,,,,,,,,,,,,,,10,,66,0
3689,note_on,,29,0,14,,,,,,,,,,,,,,,,11,,62,0
3689,note_on,,29,0,15,,,,,,,,,,,,,,,,12,,57,0
3720,note_on,,31,0,14,,,,,,,,,,,,,,,,11,,62,48
3720,note_on,,31,0,15,,,,,,,,,,,,,,,,12,,57,48
3720,note_on,,31,0,13,,,,,,,,,,,,,,,,10,,66,48
3749,note_on,,29,0,15,,,,,,,,,,,,,,,,12,,57,0
3749,note_on,,29,0,14,,,,,,,,,,,,,,,,11,,62,0
3749,note_on,,29,0,13,,,,,,,,,,,,,,,,10,,66,0
3780,note_on,,31,0,13,,,,,,,,,,,,,,,,10,,66,48
3780,note_on,,31,0,14,,,,,,,,,,,,,,,,11,,62,48
3780,note_on,,31,0,15,,,,,,,,,,,,,,,,12,,57,48
3809,note_on,,29,0,14,,,,,,,,,,,,,,,,11,,62,0
3809,note_on,,29,0,15,,,,,,,,,,,,,,,,12,,57,0
3809,note_on,,29,0,13,,,,,,,,,,,,,,,,10,,66,0
3840,note_on,,31,0,14,,,,,,,,,,,,,,,,11,,61,48
3840,note_on,,31,0,15,,,,,,,,,,,,,,,,12,,57,48
3840,note_on,,31,0,13,,,,,,,,,,,,,,,,10,,64,48
3869,note_on,,29,0,15,,,,,,,,,,,,,,,,12,,57,0
3869,note_on,,29,0,14,,,,,,,,,,,,,,,,11,,61,0
3869,note_on,,29,0,13,,,,,,,,,,,,,,,,10,,64,0
3900,note_on,,31,0,14,,,,,,,,,,,,,,,,11,,61,48
3900,note_on,,31,0,15,,,,,,,,,,,,,,,,12,,57,48
3900,note_on,,31,0,13,,,,,,,,,,,,,,,,10,,64,48
3929,note_on,,29,0,14,,,,,,,,,,,,,,,,11,,61,0
3929,note_on,,29,0,13,,,,,,,,,,,,,,,,10,,64,0
3929,note_on,,29,0,15,,,,,,,,,,,,,,,,12,,57,0
3960,note_on,,31,0,15,,,,,,,,,,,,,,,,12,,57,48
3960,note_on,,31,0,13,,,,,,,,,,,,,,,,10,,64,48
3960,note_on,,31,0,14,,,,,,,,,,,,,,,,11,,61,48
3989,note_on,,29,0,13,,,,,,,,,,,,,,,,10,,64,0
3989,note_on,,29,0,14,,,,,,,,,,,,,,,,11,,61,0
3989,note_on,,29,0,15,,,,,,,,,,,,,,,,12,,57,0
4020,note_on,,31,0,15,,,,,,,,,,,,,,,,12,,57,48
4020,note_on,,31,0,14,,,,,,,,,,,,,,,,11,,61,48
4020,note_on,,31,0,13,,,,,,,,,,,,,,,,10,,64,48
4049,note_on,,29,0,13,,,,,,,,,,,,,,,,10,,64,0
4049,note_on,,29,0,14,,,,,,,,,,,,,,,,11,,61,0
4049,note_on,,29,0,15,,,,,,,,,,,,,,,,12,,57,0
4080,note_on,,31,0,15,,,,,,,,,,,,,,,,12,,57,48
4080,note_on,,31,0,14,,,,,,,,,,,,,,,,11,,61,48
4080,note_on,,31,0,13,,,,,,,,,,,,,,,,10,,64,48
4199,note_on,,119,0,13,,,,,,,,,,,,,,,,10,,64,0
4199,note_on,,119,0,15,,,,,,,,,,,,,,,,12,,57,0
4199,note_on,,119,0,14,,,,,,,,,,,,,,,,11,,61,0
4320,note_on,,121,0,15,,,,,,,,,,,,,,,,12,,62,72
4320,note_on,,2761,0,8,,,,,,,,,,,,,,,,4,,69,56
4320,note_on,,2641,0,10,,,,,,,,,,,,,,,,6,,66,72
4320,note_on,,121,0,13,,,,,,,,,,,,,,,,10,,78,72
4320,note_on,,2641,0,9,,,,,,,,,,,,,,,,5,,69,72
4320,note_on,,0,0,17,,,,,,,,,,,,,,,,15,,66,72
4320,note_on,,0,0,17,,,,,,,,,,,,,,,,15,,69,72
4320,note_on,,961,0,17,,,,,,,,,,,,,,,,15,,62,72
4320,note_on,,961,0,11,,,,,,,,,,,,,,,,7,,62,72
4320,note_on,,2641,0,5,,,,,,,,,,,,,,,,0,,69,72
4320,note_on,,961,0,16,,,,,,,,,,,,,,,,13,,62,72
4320,note_on,,121,0,14,,,,,,,,,,,,,,,,11,,81,72
4320,note_on,,2761,0,7,,,,,,,,,,,,,,,,3,,78,56
4439,note_on,,119,0,16,,,,,,,,,,,,,,,,13,,62,0
4439,note_on,,119,0,13,,,,,,,,,,,,,,,,10,,78,0
4439,note_on,,119,0,11,,,,,,,,,,,,,,,,7,,62,0
4439,note_on,,119,0,10,,,,,,,,,,,,,,,,6,,66,0
4439,note_on,,119,0,9,,,,,,,,,,,,,,,,5,,69,0
4439,note_on,,119,0,8,,,,,,,,,,,,,,,,4,,69,0
4439,note_on,,119,0,7,,,,,,,,,,,,,,,,3,,78,0
4439,note_on,,0,0,17,,,,,,,,,,,,,,,,15,,69,0
4439,note_on,,119,0,17,,,,,,,,,,,,,,,,15,,62,0
4439,note_on,,119,0,5,,,,,,,,,,,,,,,,0,,69,0
4439,note_on,,119,0,14,,,,,,,,,,,,,,,,11,,81,0
4439,note_on,,0,0,17,,,,,,,,,,,,,,,,15,,66,0
4439,note_on,,119,0,15,,,,,,,,,,,,,,,,12,,62,0
4440,note_on,,1,0,10,,,,,,,,,,,,,,,,6,,64,72
4440,note_on,,0,0,17,,,,,,,,,,,,,,,,15,,64,72
4440,note_on,,0,0,17,,,,,,,,,,,,,,,,15,,69,72
4440,note_on,,1,0,15,,,,,,,,,,,,,,,,12,,61,72
4440,note_on,,1,0,9,,,,,,,,,,,,,,,,5,,69,72
4440,note_on,,1,0,16,,,,,,,,,,,,,,,,13,,61,72
4440,note_on,,1,0,11,,,,,,,,,,,,,,,,7,,61,72
4440,note_on,,1,0,14,,,,,,,,,,,,,,,,11,,81,72
4440,note_on,,1,0,13,,,,,,,,,,,,,,,,10,,76,72
4440,note_on,,1,0,5,,,,,,,,,,,,,,,,0,,69,72
4440,note_on,,1,0,17,,,,,,,,,,,,,,,,15,,61,72
4440,note_on,,1,0,8,,,,,,,,,,,,,,,,4,,69,56
4440,note_on,,1,0,7,,,,,,,,,,,,,,,,3,,76,56
4529,note_on,,89,0,5,,,,,,,,,,,,,,,,0,,69,0
4529,note_on,,89,0,7,,,,,,,,,,,,,,,,3,,76,0
4529,note_on,,89,0,16,,,,,,,,,,,,,,,,13,,61,0
4529,note_on,,0,0,17,,,,,,,,,,,,,,,,15,,69,0
4529,note_on,,89,0,15,,,,,,,,,,,,,,,,12,,61,0
4529,note_on,,89,0,10,,,,,,,,,,,,,,,,6,,64,0
4529,note_on,,89,0,13,,,,,,,,,,,,,,,,10,,76,0
4529,note_on,,0,0,17,,,,,,,,,,,,,,,,15,,64,0
4529,note_on,,89,0,14,,,,,,,,,,,,,,,,11,,81,0
4529,note_on,,89,0,17,,,,,,,,,,,,,,,,15,,61,0
4529,note_on,,89,0,9,,,,,,,,,,,,,,,,5,,69,0
4529,note_on,,89,0,8,,,,,,,,,,,,,,,,4,,69,0
4529,note_on,,89,0,11,,,,,,,,,,,,,,,,7,,61,0
4530,note_on,,0,0,17,,,,,,,,,,,,,,,,15,,71,72
4530,note_on,,1,0,17,,,,,,,,,,,,,,,,15,,59,72
4530,note_on,,1,0,9,,,,,,,,,,,,,,,,5,,74,72
4530,note_on,,1,0,8,,,,,,,,,,,,,,,,4,,74,56
4530,note_on,,1,0,7,,,,,,,,,,,,,,,,3,,74,56
4530,note_on,,0,0,17,,,,,,,,,,,,,,,,15,,62,72
4530,note_on,,1,0,11,,,,,,,,,,,,,,,,7,,59,72
4530,note_on,,1,0,16,,,,,,,,,,,,,,,,13,,59,72
4530,note_on,,1,0,13,,,,,,,,,,,,,,,,10,,74,72
4530,note_on,,1,0,10,,,,,,,,,,,,,,,,6,,62,72
4530,note_on,,1,0,5,,,,,,,,,,,,,,,,0,,74,72
4530,note_on,,1,0,15,,,,,,,,,,,,,,,,12,,59,72
4530,note_on,,1,0,14,,,,,,,,,,,,,,,,11,,86,72
4530,note_on,,0,0,17,,,,,,,,,,,,,,,,15,,74,72
4559,note_on,,29,0,11,,,,,,,,,,,,,,,,7,,59,0
4559,note_on,,29,0,15,,,,,,,,,,,,,,,,12,,59,0
4559,note_on,,29,0,10,,,,,,,,,,,,,,,,6,,62,0
4559,note_on,,29,0,9,,,,,,,,,,,,,,,,5,,74,0
4559,note_on,,29,0,16,,,,,,,,,,,,,,,,13,,59,0
4559,note_on,,29,0,17,,,,,,,,,,,,,,,,15,,59,0
4559,note_on,,0,0,17,,,,,,,,,,,,,,,,15,,74,0
4559,note_on,,0,0,17,,,,,,,,,,,,,,,,15,,71,0
4559,note_on,,29,0,8,,,,,,,,,,,,,,,,4,,74,0
4559,note_on,,29,0,7,,,,,,,,,,,,,,,,3,,74,0
4559,note_on,,29,0,14,,,,,,,,,,,,,,,,11,,86,0
4559,note_on,,29,0,5,,,,,,,,,,,,,,,,0,,74,0
4559,note_on,,0,0,17,,,,,,,,,,,,,,,,15,,62,0
4559,note_on,,29,0,13,,,,,,,,,,,,,,,,10,,74,0
4560,note_on,,0,0,17,,,,,,,,,,,,,,,,15,,73,72
4560,note_on,,0,0,17,,,,,,,,,,,,,,,,15,,69,72
4560,note_on,,1,0,13,,,,,,,,,,,,,,,,10,,81,72
4560,note_on,,1,0,7,,,,,,,,,,,,,,,,3,,81,56
4560,note_on,,1,0,16,,,,,,,,,,,,,,,,13,,57,72
4560,note_on,,1,0,11,,,,,,,,,,,,,,,,7,,57,72
4560,note_on,,1,0,15,,,,,,,,,,,,,,,,12,,57,72
4560,note_on,,1,0,9,,,,,,,,,,,,,,,,5,,73,72
4560,note_on,,1,0,8,,,,,,,,,,,,,,,,4,,76,56
4560,note_on,,0,0,17,,,,,,,,,,,,,,,,15,,76,72
4560,note_on,,1,0,5,,,,,,,,,,,,,,,,0,,73,72
4560,note_on,,1,0,17,,,,,,,,,,,,,,,,15,,57,72
4560,note_on,,1,0,10,,,,,,,,,,,,,,,,6,,69,72
4560,note_on,,1,0,14,,,,,,,,,,,,,,,,11,,85,72
4589,note_on,,29,0,13,,,,,,,,,,,,,,,,10,,81,0
4590,note_on,,1,0,13,,,,,,,,,,,,,,,,10,,86,72
4619,note_on,,29,0,13,,,,,,,,,,,,,,,,10,,86,0
4619,note_on,,59,0,14,,,,,,,,,,,,,,,,11,,85,0
4620,note_on,,1,0,13,,,,,,,,,,,,,,,,10,,85,72
4620,note_on,,1,0,14,,,,,,,,,,,,,,,,11,,76,72
4649,note_on,,29,0,14,,,,,,,,,,,,,,,,11,,76,0
4649,note_on,,29,0,13,,,,,,,,,,,,,,,,10,,85,0
4650,note_on,,1,0,13,,,,,,,,,,,,,,,,10,,83,72
4650,note_on,,1,0,14,,,,,,,,,,,,,,,,11,,74,72
4679,note_on,,119,0,9,,,,,,,,,,,,,,,,5,,73,0
4679,note_on,,119,0,5,,,,,,,,,,,,,,,,0,,73,0
4679,note_on,,119,0,15,,,,,,,,,,,,,,,,12,,57,0
4679,note_on,,119,0,11,,,,,,,,,,,,,,,,7,,57,0
4679,note_on,,0,0,17,,,,,,,,,,,,,,,,15,,73,0
4679,note_on,,0,0,17,,,,,,,,,,,,,,,,15,,69,0
4679,note_on,,119,0,16,,,,,,,,,,,,,,,,13,,57,0
4679,note_on,,119,0,8,,,,,,,,,,,,,,,,4,,76,0
4679,note_on,,0,0,17,,,,,,,,,,,,,,,,15,,76,0
4679,note_on,,119,0,17,,,,,,,,,,,,,,,,15,,57,0
4679,note_on,,119,0,10,,,,,,,,,,,,,,,,6,,69,0
4679,note_on,,119,0,7,,,,,,,,,,,,,,,,3,,81,0
4679,note_on,,29,0,14,,,,,,,,,,,,,,,,11,,74,0
4679,note_on,,29,0,13,,,,,,,,,,,,,,,,10,,83,0
4680,note_on,,1,0,14,,,,,,,,,,,,,,,,11,,73,72
4680,note_on,,1,0,13,,,,,,,,,,,,,,,,10,,81,72
4709,note_on,,29,0,14,,,,,,,,,,,,,,,,11,,73,0
4709,note_on,,29,0,13,,,,,,,,,,,,,,,,10,,81,0
4710,note_on,,1,0,13,,,,,,,,,,,,,,,,10,,79,72
4710,note_on,,1,0,14,,,,,,,,,,,,,,,,11,,76,72
4739,note_on,,29,0,13,,,,,,,,,,,,,,,,10,,79,0
4739,note_on,,29,0,14,,,,,,,,,,,,,,,,11,,76,0
4740,note_on,,1,0,13,,,,,,,,,,,,,,,,10,,78,72
4740,note_on,,1,0,14,,,,,,,,,,,,,,,,11,,74,72
4769,note_on,,29,0,14,,,,,,,,,,,,,,,,11,,74,0
4769,note_on,,29,0,13,,,,,,,,,,,,,,,,10,,78,0
4770,note_on,,1,0,14,,,,,,,,,,,,,,,,11,,73,72
4770,note_on,,1,0,13,,,,,,,,,,,,,,,,10,,76,72
4799,note_on,,29,0,14,,,,,,,,,,,,,,,,11,,73,0
4799,note_on,,29,0,13,,,,,,,,,,,,,,,,10,,76,0
4800,note_on,,121,0,15,,,,,,,,,,,,,,,,12,,59,72
4800,note_on,,0,0,17,,,,,,,,,,,,,,,,15,,74,72
4800,note_on,,121,0,11,,,,,,,,,,,,,,,,7,,59,72
4800,note_on,,0,0,17,,,,,,,,,,,,,,,,15,,66,72
4800,note_on,,121,0,16,,,,,,,,,,,,,,,,13,,59,72
4800,note_on,,0,0,17,,,,,,,,,,,,,,,,15,,62,72
4800,note_on,,1,0,13,,,,,,,,,,,,,,,,10,,74,72
4800,note_on,,121,0,10,,,,,,,,,,,,,,,,6,,66,72
4800,note_on,,0,0,17,,,,,,,,,,,,,,,,15,,71,72
4800,note_on,,121,0,5,,,,,,,,,,,,,,,,0,,74,72
4800,note_on,,121,0,17,,,,,,,,,,,,,,,,15,,59,72
4800,note_on,,1,0,14,,,,,,,,,,,,,,,,11,,71,72
4800,note_on,,121,0,8,,,,,,,,,,,,,,,,4,,74,56
4800,note_on,,121,0,7,,,,,,,,,,,,,,,,3,,78,56
4800,note_on,,121,0,9,,,,,,,,,,,,,,,,5,,74,72
4829,note_on,,29,0,14,,,,,,,,,,,,,,,,11,,71,0
4829,note_on,,29,0,13,,,,,,,,,,,,,,,,10,,74,0
4830,note_on,,1,0,13,,,,,,,,,,,,,,,,10,,73,72
4830,note_on,,1,0,14,,,,,,,,,,,,,,,,11,,73,72
4859,note_on,,29,0,13,,,,,,,,,,,,,,,,10,,73,0
4859,note_on,,29,0,14,,,,,,,,,,,,,,,,11,,73,0
4860,note_on,,1,0,14,,,,,,,,,,,,,,,,11,,74,72
4860,note_on,,1,0,13,,,,,,,,,,,,,,,,10,,71,72
4889,note_on,,29,0,14,,,,,,,,,,,,,,,,11,,74,0
4889,note_on,,29,0,13,,,,,,,,,,,,,,,,10,,71,0
4890,note_on,,1,0,13,,,,,,,,,,,,,,,,10,,73,72
4890,note_on,,1,0,14,,,,,,,,,,,,,,,,11,,76,72
4919,note_on,,0,0,17,,,,,,,,,,,,,,,,15,,74,0
4919,note_on,,119,0,17,,,,,,,,,,,,,,,,15,,59,0
4919,note_on,,119,0,10,,,,,,,,,,,,,,,,6,,66,0
4919,note_on,,119,0,5,,,,,,,,,,,,,,,,0,,74,0
4919,note_on,,119,0,7,,,,,,,,,,,,,,,,3,,78,0
4919,note_on,,119,0,9,,,,,,,,,,,,,,,,5,,74,0
4919,note_on,,29,0,14,,,,,,,,,,,,,,,,11,,76,0
4919,note_on,,119,0,16,,,,,,,,,,,,,,,,13,,59,0
4919,note_on,,29,0,13,,,,,,,,,,,,,,,,10,,73,0
4919,note_on,,119,0,11,,,,,,,,,,,,,,,,7,,59,0
4919,note_on,,119,0,8,,,,,,,,,,,,,,,,4,,74,0
4919,note_on,,119,0,15,,,,,,,,,,,,,,,,12,,59,0
4919,note_on,,0,0,17,,,,,,,,,,,,,,,,15,,62,0
4919,note_on,,0,0,17,,,,,,,,,,,,,,,,15,,66,0
4920,note_on,,1,0,8,,,,,,,,,,,,,,,,4,,74,56
4920,note_on,,1,0,9,,,,,,,,,,,,,,,,5,,74,72
4920,note_on,,1,0,13,,,,,,,,,,,,,,,,10,,74,72
4920,note_on,,1,0,11,,,,,,,,,,,,,,,,7,,57,72
4920,note_on,,1,0,14,,,,,,,,,,,,,,,,11,,78,72
4920,note_on,,1,0,5,,,,,,,,,,,,,,,,0,,74,72
4920,note_on,,1,0,10,,,,,,,,,,,,,,,,6,,66,72
4920,note_on,,1,0,17,,,,,,,,,,,,,,,,15,,57,72
4920,note_on,,0,0,17,,,,,,,,,,,,,,,,15,,74,72
4920,note_on,,0,0,17,,,,,,,,,,,,,,,,15,,66,72
4920,note_on,,1,0,15,,,,,,,,,,,,,,,,12,,57,72
4920,note_on,,0,0,17,,,,,,,,,,,,,,,,15,,61,72
4920,note_on,,1,0,7,,,,,,,,,,,,,,,,3,,78,56
4920,note_on,,1,0,16,,,,,,,,,,,,,,,,13,,57,72
4949,note_on,,29,0,14,,,,,,,,,,,,,,,,11,,78,0
4949,note_on,,29,0,13,,,,,,,,,,,,,,,,10,,74,0
4950,note_on,,1,0,13,,,,,,,,,,,,,,,,10,,73,72
4950,note_on,,1,0,14,,,,,,,,,,,,,,,,11,,76,72
4979,note_on,,29,0,14,,,,,,,,,,,,,,,,11,,76,0
4979,note_on,,29,0,13,,,,,,,,,,,,,,,,10,,73,0
4980,note_on,,1,0,14,,,,,,,,,,,,,,,,11,,78,72
4980,note_on,,1,0,13,,,,,,,,,,,,,,,,10,,74,72
5009,note_on,,0,0,17,,,,,,,,,,,,,,,,15,,74,0
5009,note_on,,0,0,17,,,,,,,,,,,,,,,,15,,66,0
5009,note_on,,89,0,11,,,,,,,,,,,,,,,,7,,57,0
5009,note_on,,0,0,17,,,,,,,,,,,,,,,,15,,61,0
5009,note_on,,29,0,13,,,,,,,,,,,,,,,,10,,74,0
5009,note_on,,89,0,17,,,,,,,,,,,,,,,,15,,57,0
5009,note_on,,89,0,7,,,,,,,,,,,,,,,,3,,78,0
5009,note_on,,89,0,5,,,,,,,,,,,,,,,,0,,74,0
5009,note_on,,89,0,16,,,,,,,,,,,,,,,,13,,57,0
5009,note_on,,89,0,15,,,,,,,,,,,,,,,,12,,57,0
5009,note_on,,89,0,9,,,,,,,,,,,,,,,,5,,74,0
5009,note_on,,89,0,8,,,,,,,,,,,,,,,,4,,74,0
5009,note_on,,29,0,14,,,,,,,,,,,,,,,,11,,78,0
5009,note_on,,89,0,10,,,,,,,,,,,,,,,,6,,66,0
5010,note_on,,1,0,16,,,,,,,,,,,,,,,,13,,55,72
5010,note_on,,1,0,9,,,,,,,,,,,,,,,,5,,76,72
5010,note_on,,1,0,11,,,,,,,,,,,,,,,,7,,55,72
5010,note_on,,1,0,14,,,,,,,,,,,,,,,,11,,79,72
5010,note_on,,0,0,17,,,,,,,,,,,,,,,,15,,59,72
5010,note_on,,0,0,17,,,,,,,,,,,,,,,,15,,67,72
5010,note_on,,1,0,17,,,,,,,,,,,,,,,,15,,55,72
5010,note_on,,1,0,15,,,,,,,,,,,,,,,,12,,55,72
5010,note_on,,1,0,7,,,,,,,,,,,,,,,,3,,79,56
5010,note_on,,1,0,8,,,,,,,,,,,,,,,,4,,74,56
5010,note_on,,1,0,13,,,,,,,,,,,,,,,,10,,76,72
5010,note_on,,1,0,5,,,,,,,,,,,,,,,,0,,76,72
5010,note_on,,0,0,17,,,,,,,,,,,,,,,,15,,76,72
5010,note_on,,1,0,10,,,,,,,,,,,,,,,,6,,67,72
5039,note_on,,29,0,14,,,,,,,,,,,,,,,,11,,79,0
5039,note_on,,29,0,11,,,,,,,,,,,,,,,,7,,55,0
5039,note_on,,29,0,8,,,,,,,,,,,,,,,,4,,74,0
5039,note_on,,29,0,9,,,,,,,,,,,,,,,,5,,76,0
5039,note_on,,29,0,13,,,,,,,,,,,,,,,,10,,76,0
5039,note_on,,29,0,16,,,,,,,,,,,,,,,,13,,55,0
5039,note_on,,29,0,15,,,,,,,,,,,,,,,,12,,55,0
5039,note_on,,29,0,5,,,,,,,,,,,,,,,,0,,76,0
5039,note_on,,29,0,7,,,,,,,,,,,,,,,,3,,79,0
5039,note_on,,29,0,10,,,,,,,,,,,,,,,,6,,67,0
5039,note_on,,29,0,17,,,,,,,,,,,,,,,,15,,71,0
5039,note_on,,0,0,17,,,,,,,,,,,,,,,,15,,55,0
5039,note_on,,0,0,17,,,,,,,,,,,,,,,,15,,76,0
5039,note_on,,0,0,17,,,,,,,,,,,,,,,,15,,59,0
5039,note_on,,0,0,17,,,,,,,,,,,,,,,,15,,67,0
5040,note_on,,1,0,13,,,,,,,,,,,,,,,,10,,78,72
5040,note_on,,1,0,5,,,,,,,,,,,,,,,,0,,78,72
5040,note_on,,1,0,8,,,,,,,,,,,,,,,,4,,74,56
5040,note_on,,1,0,7,,,,,,,,,,,,,,,,3,,81,56
5040,note_on,,1,0,14,,,,,,,,,,,,,,,,11,,81,72
5040,note_on,,1,0,10,,,,,,,,,,,,,,,,6,,69,72
5040,note_on,,0,0,17,,,,,,,,,,,,,,,,15,,57,72
5040,note_on,,1,0,17,,,,,,,,,,,,,,,,15,,54,72
5040,note_on,,0,0,17,,,,,,,,,,,,,,,,15,,78,72
5040,note_on,,1,0,9,,,,,,,,,,,,,,,,5,,78,72
5040,note_on,,1,0,16,,,,,,,,,,,,,,,,13,,54,72
5040,note_on,,0,0,17,,,,,,,,,,,,,,,,15,,74,72
5040,note_on,,1,0,11,,,,,,,,,,,,,,,,7,,54,72
5040,note_on,,1,0,15,,,,,,,,,,,,,,,,12,,54,72
5040,note_on,,0,0,17,,,,,,,,,,,,,,,,15,,69,72
5069,note_on,,29,0,13,,,,,,,,,,,,,,,,10,,78,0
5069,note_on,,29,0,14,,,,,,,,,,,,,,,,11,,81,0
5070,note_on,,1,0,14,,,,,,,,,,,,,,,,11,,79,72
5070,note_on,,1,0,13,,,,,,,,,,,,,,,,10,,76,72
5099,note_on,,29,0,14,,,,,,,,,,,,,,,,11,,79,0
5099,note_on,,29,0,13,,,,,,,,,,,,,,,,10,,76,0
5100,note_on,,1,0,13,,,,,,,,,,,,,,,,10,,74,72
5100,note_on,,1,0,14,,,,,,,,,,,,,,,,11,,78,72
5129,note_on,,29,0,13,,,,,,,,,,,,,,,,10,,74,0
5129,note_on,,29,0,14,,,,,,,,,,,,,,,,11,,78,0
5130,note_on,,1,0,14,,,,,,,,,,,,,,,,11,,79,72
5130,note_on,,1,0,13,,,,,,,,,,,,,,,,10,,76,72
5159,note_on,,119,0,9,,,,,,,,,,,,,,,,5,,78,0
5159,note_on,,119,0,11,,,,,,,,,,,,,,,,7,,54,0
5159,note_on,,119,0,8,,,,,,,,,,,,,,,,4,,74,0
5159,note_on,,29,0,13,,,,,,,,,,,,,,,,10,,76,0
5159,note_on,,119,0,5,,,,,,,,,,,,,,,,0,,78,0
5159,note_on,,119,0,16,,,,,,,,,,,,,,,,13,,54,0
5159,note_on,,119,0,15,,,,,,,,,,,,,,,,12,,54,0
5159,note_on,,119,0,7,,,,,,,,,,,,,,,,3,,81,0
5159,note_on,,119,0,10,,,,,,,,,,,,,,,,6,,69,0
5159,note_on,,29,0,14,,,,,,,,,,,,,,,,11,,79,0
5159,note_on,,119,0,17,,,,,,,,,,,,,,,,15,,54,0
5159,note_on,,0,0,17,,,,,,,,,,,,,,,,15,,78,0
5159,note_on,,0,0,17,,,,,,,,,,,,,,,,15,,74,0
5159,note_on,,0,0,17,,,,,,,,,,,,,,,,15,,69,0
5159,note_on,,0,0,17,,,,,,,,,,,,,,,,15,,57,0
5160,note_on,,1,0,14,,,,,,,,,,,,,,,,11,,81,72
5160,note_on,,1,0,13,,,,,,,,,,,,,,,,10,,78,72
5189,note_on,,29,0,13,,,,,,,,,,,,,,,,10,,78,0
5189,note_on,,29,0,14,,,,,,,,,,,,,,,,11,,81,0
5190,note_on,,1,0,13,,,,,,,,,,,,,,,,10,,79,72
5190,note_on,,1,0,14,,,,,,,,,,,,,,,,11,,79,72
5219,note_on,,29,0,13,,,,,,,,,,,,,,,,10,,79,0
5219,note_on,,29,0,14,,,,,,,,,,,,,,,,11,,79,0
5220,note_on,,1,0,13,,,,,,,,,,,,,,,,10,,81,72
5220,note_on,,1,0,14,,,,,,,,,,,,,,,,11,,78,72
5249,note_on,,29,0,14,,,,,,,,,,,,,,,,11,,78,0
5249,note_on,,29,0,13,,,,,,,,,,,,,,,,10,,81,0
5250,note_on,,1,0,13,,,,,,,,,,,,,,,,10,,78,72
5250,note_on,,1,0,14,,,,,,,,,,,,,,,,11,,81,72
5279,note_on,,29,0,14,,,,,,,,,,,,,,,,11,,81,0
5279,note_on,,29,0,13,,,,,,,,,,,,,,,,10,,78,0
5280,note_on,,121,0,10,,,,,,,,,,,,,,,,6,,71,72
5280,note_on,,121,0,15,,,,,,,,,,,,,,,,12,,67,72
5280,note_on,,121,0,8,,,,,,,,,,,,,,,,4,,74,56
5280,note_on,,121,0,5,,,,,,,,,,,,,,,,0,,74,72
5280,note_on,,0,0,17,,,,,,,,,,,,,,,,15,,71,72
5280,note_on,,121,0,11,,,,,,,,,,,,,,,,7,,67,72
5280,note_on,,121,0,7,,,,,,,,,,,,,,,,3,,83,56
5280,note_on,,121,0,17,,,,,,,,,,,,,,,,15,,67,72
5280,note_on,,121,0,16,,,,,,,,,,,,,,,,13,,67,72
5280,note_on,,0,0,17,,,,,,,,,,,,,,,,15,,74,72
5280,note_on,,1,0,14,,,,,,,,,,,,,,,,11,,74,72
5280,note_on,,1,0,13,,,,,,,,,,,,,,,,10,,83,72
5280,note_on,,121,0,9,,,,,,,,,,,,,,,,5,,74,72
5309,note_on,,29,0,13,,,,,,,,,,,,,,,,10,,83,0
5309,note_on,,29,0,14,,,,,,,,,,,,,,,,11,,74,0
5310,note_on,,1,0,13,,,,,,,,,,,,,,,,10,,81,72
5310,note_on,,1,0,14,,,,,,,,,,,,,,,,11,,73,72
5339,note_on,,29,0,13,,,,,,,,,,,,,,,,10,,81,0
5339,note_on,,29,0,14,,,,,,,,,,,,,,,,11,,73,0
5340,note_on,,1,0,13,,,,,,,,,,,,,,,,10,,79,72
5340,note_on,,1,0,14,,,,,,,,,,,,,,,,11,,71,72
5369,note_on,,29,0,14,,,,,,,,,,,,,,,,11,,71,0
5369,note_on,,29,0,13,,,,,,,,,,,,,,,,10,,79,0
5370,note_on,,1,0,13,,,,,,,,,,,,,,,,10,,81,72
5370,note_on,,1,0,14,,,,,,,,,,,,,,,,11,,73,72
5399,note_on,,119,0,5,,,,,,,,,,,,,,,,0,,74,0
5399,note_on,,119,0,7,,,,,,,,,,,,,,,,3,,83,0
5399,note_on,,119,0,15,,,,,,,,,,,,,,,,12,,67,0
5399,note_on,,119,0,10,,,,,,,,,,,,,,,,6,,71,0
5399,note_on,,119,0,16,,,,,,,,,,,,,,,,13,,67,0
5399,note_on,,119,0,9,,,,,,,,,,,,,,,,5,,74,0
5399,note_on,,29,0,14,,,,,,,,,,,,,,,,11,,73,0
5399,note_on,,0,0,17,,,,,,,,,,,,,,,,15,,74,0
5399,note_on,,0,0,17,,,,,,,,,,,,,,,,15,,71,0
5399,note_on,,29,0,13,,,,,,,,,,,,,,,,10,,81,0
5399,note_on,,119,0,8,,,,,,,,,,,,,,,,4,,74,0
5399,note_on,,119,0,17,,,,,,,,,,,,,,,,15,,67,0
5399,note_on,,119,0,11,,,,,,,,,,,,,,,,7,,67,0
5400,note_on,,1,0,13,,,,,,,,,,,,,,,,10,,83,72
5400,note_on,,1,0,8,,,,,,,,,,,,,,,,4,,74,56
5400,note_on,,1,0,16,,,,,,,,,,,,,,,,13,,66,72
5400,note_on,,1,0,9,,,,,,,,,,,,,,,,5,,74,72
5400,note_on,,1,0,14,,,,,,,,,,,,,,,,11,,74,72
5400,note_on,,1,0,15,,,,,,,,,,,,,,,,12,,66,72
5400,note_on,,0,0,17,,,,,,,,,,,,,,,,15,,69,72
5400,note_on,,1,0,11,,,,,,,,,,,,,,,,7,,66,72
5400,note_on,,1,0,7,,,,,,,,,,,,,,,,3,,81,56
5400,note_on,,1,0,10,,,,,,,,,,,,,,,,6,,69,72
5400,note_on,,1,0,17,,,,,,,,,,,,,,,,15,,66,72
5400,note_on,,0,0,17,,,,,,,,,,,,,,,,15,,74,72
5400,note_on,,1,0,5,,,,,,,,,,,,,,,,0,,74,72
5429,note_on,,29,0,13,,,,,,,,,,,,,,,,10,,83,0
5429,note_on,,29,0,14,,,,,,,,,,,,,,,,11,,74,0
5430,note_on,,1,0,13,,,,,,,,,,,,,,,,10,,81,72
5430,note_on,,1,0,14,,,,,,,,,,,,,,,,11,,73,72
5459,note_on,,29,0,14,,,,,,,,,,,,,,,,11,,73,0
5459,note_on,,29,0,13,,,,,,,,,,,,,,,,10,,81,0
5460,note_on,,1,0,13,,,,,,,,,,,,,,,,10,,83,72
5460,note_on,,1,0,14,,,,,,,,,,,,,,,,11,,74,72
5489,note_on,,89,0,7,,,,,,,,,,,,,,,,3,,81,0
5489,note_on,,89,0,9,,,,,,,,,,,,,,,,5,,74,0
5489,note_on,,29,0,13,,,,,,,,,,,,,,,,10,,83,0
5489,note_on,,89,0,8,,,,,,,,,,,,,,,,4,,74,0
5489,note_on,,89,0,16,,,,,,,,,,,,,,,,13,,66,0
5489,note_on,,89,0,5,,,,,,,,,,,,,,,,0,,74,0
5489,note_on,,29,0,14,,,,,,,,,,,,,,,,11,,74,0
5489,note_on,,89,0,11,,,,,,,,,,,,,,,,7,,66,0
5489,note_on,,89,0,17,,,,,,,,,,,,,,,,15,,66,0
5489,note_on,,0,0,17,,,,,,,,,,,,,,,,15,,74,0
5489,note_on,,0,0,17,,,,,,,,,,,,,,,,15,,69,0
5489,note_on,,89,0,15,,,,,,,,,,,,,,,,12,,66,0
5489,note_on,,89,0,10,,,,,,,,,,,,,,,,6,,69,0
5490,note_on,,1,0,17,,,,,,,,,,,,,,,,15,,64,72
5490,note_on,,1,0,5,,,,,,,,,,,,,,,,0,,73,72
5490,note_on,,1,0,13,,,,,,,,,,,,,,,,10,,85,72
5490,note_on,,1,0,8,,,,,,,,,,,,,,,,4,,76,56
5490,note_on,,1,0,14,,,,,,,,,,,,,,,,11,,76,72
5490,note_on,,1,0,15,,,,,,,,,,,,,,,,12,,64,72
5490,note_on,,1,0,16,,,,,,,,,,,,,,,,13,,64,72
5490,note_on,,1,0,11,,,,,,,,,,,,,,,,7,,64,72
5490,note_on,,0,0,17,,,,,,,,,,,,,,,,15,,76,72
5490,note_on,,0,0,17,,,,,,,,,,,,,,,,15,,73,72
5490,note_on,,1,0,10,,,,,,,,,,,,,,,,6,,67,72
5490,note_on,,0,0,17,,,,,,,,,,,,,,,,15,,67,72
5490,note_on,,1,0,7,,,,,,,,,,,,,,,,3,,79,56
5490,note_on,,1,0,9,,,,,,,,,,,,,,,,5,,73,72
5519,note_on,,29,0,15,,,,,,,,,,,,,,,,12,,64,0
5519,note_on,,29,0,7,,,,,,,,,,,,,,,,3,,79,0
5519,note_on,,29,0,5,,,,,,,,,,,,,,,,0,,73,0
5519,note_on,,29,0,9,,,,,,,,,,,,,,,,5,,73,0
5519,note_on,,29,0,13,,,,,,,,,,,,,,,,10,,85,0
5519,note_on,,29,0,11,,,,,,,,,,,,,,,,7,,64,0
5519,note_on,,29,0,8,,,,,,,,,,,,,,,,4,,76,0
5519,note_on,,29,0,17,,,,,,,,,,,,,,,,15,,64,0
5519,note_on,,0,0,17,,,,,,,,,,,,,,,,15,,76,0
5519,note_on,,29,0,14,,,,,,,,,,,,,,,,11,,76,0
5519,note_on,,0,0,17,,,,,,,,,,,,,,,,15,,73,0
5519,note_on,,0,0,17,,,,,,,,,,,,,,,,15,,67,0
5519,note_on,,29,0,10,,,,,,,,,,,,,,,,6,,67,0
5519,note_on,,29,0,16,,,,,,,,,,,,,,,,13,,64,0
5520,note_on,,1,0,5,,,,,,,,,,,,,,,,0,,74,72
5520,note_on,,1,0,10,,,,,,,,,,,,,,,,6,,66,72
5520,note_on,,1,0,15,,,,,,,,,,,,,,,,12,,62,72
5520,note_on,,1,0,7,,,,,,,,,,,,,,,,3,,81,56
5520,note_on,,1,0,8,,,,,,,,,,,,,,,,4,,78,56
5520,note_on,,1,0,16,,,,,,,,,,,,,,,,13,,62,72
5520,note_on,,1,0,11,,,,,,,,,,,,,,,,7,,62,72
5520,note_on,,1,0,17,,,,,,,,,,,,,,,,15,,62,72
5520,note_on,,0,0,17,,,,,,,,,,,,,,,,15,,78,72
5520,note_on,,0,0,17,,,,,,,,,,,,,,,,15,,74,72
5520,note_on,,0,0,17,,,,,,,,,,,,,,,,15,,69,72
5520,note_on,,0,0,17,,,,,,,,,,,,,,,,15,,66,72
5520,note_on,,1,0,13,,,,,,,,,,,,,,,,10,,86,72
5520,note_on,,1,0,9,,,,,,,,,,,,,,,,5,,74,72
5520,note_on,,1,0,14,,,,,,,,,,,,,,,,11,,78,72
5549,note_on,,29,0,13,,,,,,,,,,,,,,,,10,,86,0
5549,note_on,,29,0,14,,,,,,,,,,,,,,,,11,,78,0
5550,note_on,,1,0,13,,,,,,,,,,,,,,,,10,,81,72
5550,note_on,,1,0,14,,,,,,,,,,,,,,,,11,,81,72
5579,note_on,,29,0,13,,,,,,,,,,,,,,,,10,,81,0
5579,note_on,,29,0,14,,,,,,,,,,,,,,,,11,,81,0
5580,note_on,,1,0,13,,,,,,,,,,,,,,,,10,,83,72
5580,note_on,,1,0,14,,,,,,,,,,,,,,,,11,,79,72
5609,note_on,,29,0,14,,,,,,,,,,,,,,,,11,,79,0
5609,note_on,,29,0,13,,,,,,,,,,,,,,,,10,,83,0
5610,note_on,,1,0,14,,,,,,,,,,,,,,,,11,,81,72
5610,note_on,,1,0,13,,,,,,,,,,,,,,,,10,,85,72
5639,note_on,,0,0,17,,,,,,,,,,,,,,,,15,,66,0
5639,note_on,,119,0,8,,,,,,,,,,,,,,,,4,,78,0
5639,note_on,,29,0,14,,,,,,,,,,,,,,,,11,,81,0
5639,note_on,,119,0,17,,,,,,,,,,,,,,,,15,,62,0
5639,note_on,,0,0,17,,,,,,,,,,,,,,,,15,,78,0
5639,note_on,,0,0,17,,,,,,,,,,,,,,,,15,,74,0
5639,note_on,,119,0,11,,,,,,,,,,,,,,,,7,,62,0
5639,note_on,,119,0,9,,,,,,,,,,,,,,,,5,,74,0
5639,note_on,,29,0,13,,,,,,,,,,,,,,,,10,,85,0
5639,note_on,,119,0,10,,,,,,,,,,,,,,,,6,,66,0
5639,note_on,,119,0,7,,,,,,,,,,,,,,,,3,,81,0
5639,note_on,,119,0,5,,,,,,,,,,,,,,,,0,,74,0
5639,note_on,,119,0,16,,,,,,,,,,,,,,,,13,,62,0
5639,note_on,,119,0,15,,,,,,,,,,,,,,,,12,,62,0
5639,note_on,,0,0,17,,,,,,,,,,,,,,,,15,,69,0
5640,note_on,,1,0,8,,,,,,,,,,,,,,,,4,,74,56
5640,note_on,,1,0,11,,,,,,,,,,,,,,,,7,,66,72
5640,note_on,,1,0,10,,,,,,,,,,,,,,,,6,,69,72
5640,note_on,,1,0,5,,,,,,,,,,,,,,,,0,,74,72
5640,note_on,,1,0,15,,,,,,,,,,,,,,,,12,,66,72
5640,note_on,,1,0,14,,,,,,,,,,,,,,,,11,,69,72
5640,note_on,,1,0,13,,,,,,,,,,,,,,,,10,,86,72
5640,note_on,,1,0,7,,,,,,,,,,,,,,,,3,,78,56
5640,note_on,,0,0,17,,,,,,,,,,,,,,,,15,,69,72
5640,note_on,,1,0,16,,,,,,,,,,,,,,,,13,,66,72
5640,note_on,,0,0,17,,,,,,,,,,,,,,,,15,,74,72
5640,note_on,,1,0,17,,,,,,,,,,,,,,,,15,,66,72
5640,note_on,,1,0,9,,,,,,,,,,,,,,,,5,,74,72
5669,note_on,,29,0,13,,,,,,,,,,,,,,,,10,,86,0
5670,note_on,,1,0,13,,,,,,,,,,,,,,,,10,,85,72
5699,note_on,,59,0,9,,,,,,,,,,,,,,,,5,,74,0
5699,note_on,,0,0,17,,,,,,,,,,,,,,,,15,,69,0
5699,note_on,,59,0,14,,,,,,,,,,,,,,,,11,,69,0
5699,note_on,,0,0,17,,,,,,,,,,,,,,,,15,,74,0
5699,note_on,,59,0,15,,,,,,,,,,,,,,,,12,,66,0
5699,note_on,,59,0,11,,,,,,,,,,,,,,,,7,,66,0
5699,note_on,,59,0,10,,,,,,,,,,,,,,,,6,,69,0
5699,note_on,,59,0,16,,,,,,,,,,,,,,,,13,,66,0
5699,note_on,,59,0,8,,,,,,,,,,,,,,,,4,,74,0
5699,note_on,,59,0,5,,,,,,,,,,,,,,,,0,,74,0
5699,note_on,,59,0,17,,,,,,,,,,,,,,,,15,,66,0
5699,note_on,,29,0,13,,,,,,,,,,,,,,,,10,,85,0
5699,note_on,,59,0,7,,,,,,,,,,,,,,,,3,,78,0
5700,note_on,,1,0,11,,,,,,,,,,,,,,,,7,,66,72
5700,note_on,,1,0,9,,,,,,,,,,,,,,,,5,,74,72
5700,note_on,,1,0,5,,,,,,,,,,,,,,,,0,,74,72
5700,note_on,,1,0,17,,,,,,,,,,,,,,,,15,,66,72
5700,note_on,,0,0,17,,,,,,,,,,,,,,,,15,,74,72
5700,note_on,,1,0,10,,,,,,,,,,,,,,,,6,,69,72
5700,note_on,,1,0,7,,,,,,,,,,,,,,,,3,,78,56
5700,note_on,,1,0,15,,,,,,,,,,,,,,,,12,,66,72
5700,note_on,,1,0,14,,,,,,,,,,,,,,,,11,,81,72
5700,note_on,,1,0,16,,,,,,,,,,,,,,,,13,,66,72
5700,note_on,,1,0,8,,,,,,,,,,,,,,,,4,,74,56
5700,note_on,,1,0,13,,,,,,,,,,,,,,,,10,,86,72
5700,note_on,,0,0,17,,,,,,,,,,,,,,,,15,,69,72
5729,note_on,,29,0,13,,,,,,,,,,,,,,,,10,,86,0
5730,note_on,,1,0,13,,,,,,,,,,,,,,,,10,,83,72
5759,note_on,,59,0,7,,,,,,,,,,,,,,,,3,,78,0
5759,note_on,,59,0,10,,,,,,,,,,,,,,,,6,,69,0
5759,note_on,,59,0,15,,,,,,,,,,,,,,,,12,,66,0
5759,note_on,,59,0,8,,,,,,,,,,,,,,,,4,,74,0
5759,note_on,,59,0,9,,,,,,,,,,,,,,,,5,,74,0
5759,note_on,,59,0,17,,,,,,,,,,,,,,,,15,,66,0
5759,note_on,,29,0,13,,,,,,,,,,,,,,,,10,,83,0
5759,note_on,,59,0,5,,,,,,,,,,,,,,,,0,,74,0
5759,note_on,,59,0,16,,,,,,,,,,,,,,,,13,,66,0
5759,note_on,,59,0,11,,,,,,,,,,,,,,,,7,,66,0
5759,note_on,,59,0,14,,,,,,,,,,,,,,,,11,,81,0
5759,note_on,,0,0,17,,,,,,,,,,,,,,,,15,,69,0
5759,note_on,,0,0,17,,,,,,,,,,,,,,,,15,,74,0
5760,note_on,,0,0,17,,,,,,,,,,,,,,,,15,,76,72
5760,note_on,,0,0,17,,,,,,,,,,,,,,,,15,,73,72
5760,note_on,,1,0,16,,,,,,,,,,,,,,,,13,,69,72
5760,note_on,,1,0,15,,,,,,,,,,,,,,,,12,,69,72
5760,note_on,,1,0,14,,,,,,,,,,,,,,,,11,,76,72
5760,note_on,,1,0,9,,,,,,,,,,,,,,,,5,,73,72
5760,note_on,,1,0,7,,,,,,,,,,,,,,,,3,,76,56
5760,note_on,,1,0,13,,,,,,,,,,,,,,,,10,,85,72
5760,note_on,,1,0,8,,,,,,,,,,,,,,,,4,,69,56
5760,note_on,,1,0,17,,,,,,,,,,,,,,,,15,,69,72
5760,note_on,,1,0,11,,,,,,,,,,,,,,,,7,,69,72
5760,note_on,,1,0,10,,,,,,,,,,,,,,,,6,,69,72
5760,note_on,,1,0,5,,,,,,,,,,,,,,,,0,,73,72
5789,note_on,,29,0,14,,,,,,,,,,,,,,,,11,,76,0
5789,note_on,,29,0,13,,,,,,,,,,,,,,,,10,,85,0
5790,note_on,,1,0,14,,,,,,,,,,,,,,,,11,,73,72
5790,note_on,,1,0,13,,,,,,,,,,,,,,,,10,,76,72
5819,note_on,,29,0,13,,,,,,,,,,,,,,,,10,,76,0
5819,note_on,,29,0,14,,,,,,,,,,,,,,,,11,,73,0
5820,note_on,,1,0,14,,,,,,,,,,,,,,,,11,,74,72
5820,note_on,,1,0,13,,,,,,,,,,,,,,,,10,,78,72
5849,note_on,,29,0,13,,,,,,,,,,,,,,,,10,,78,0
5849,note_on,,29,0,14,,,,,,,,,,,,,,,,11,,74,0
5850,note_on,,1,0,14,,,,,,,,,,,,,,,,11,,71,72
5850,note_on,,1,0,13,,,,,,,,,,,,,,,,10,,80,72
5879,note_on,,29,0,14,,,,,,,,,,,,,,,,11,,71,0
5879,note_on,,29,0,13,,,,,,,,,,,,,,,,10,,80,0
5880,note_on,,1,0,13,,,,,,,,,,,,,,,,10,,81,72
5880,note_on,,1,0,14,,,,,,,,,,,,,,,,11,,73,72
5909,note_on,,29,0,13,,,,,,,,,,,,,,,,10,,81,0
5909,note_on,,29,0,14,,,,,,,,,,,,,,,,11,,73,0
5910,note_on,,1,0,14,,,,,,,,,,,,,,,,11,,76,72
5910,note_on,,1,0,13,,,,,,,,,,,,,,,,10,,73,72
5939,note_on,,29,0,13,,,,,,,,,,,,,,,,10,,73,0
5939,note_on,,29,0,14,,,,,,,,,,,,,,,,11,,76,0
5940,note_on,,1,0,14,,,,,,,,,,,,,,,,11,,78,72
5940,note_on,,1,0,13,,,,,,,,,,,,,,,,10,,74,72
5969,note_on,,29,0,14,,,,,,,,,,,,,,,,11,,78,0
5969,note_on,,29,0,13,,,,,,,,,,,,,,,,10,,74,0
5970,note_on,,1,0,14,,,,,,,,,,,,,,,,11,,80,72
5970,note_on,,1,0,13,,,,,,,,,,,,,,,,10,,71,72
5999,note_on,,239,0,8,,,,,,,,,,,,,,,,4,,69,0
5999,note_on,,239,0,15,,,,,,,,,,,,,,,,12,,69,0
5999,note_on,,239,0,5,,,,,,,,,,,,,,,,0,,73,0
5999,note_on,,239,0,10,,,,,,,,,,,,,,,,6,,69,0
5999,note_on,,239,0,16,,,,,,,,,,,,,,,,13,,69,0
5999,note_on,,29,0,14,,,,,,,,,,,,,,,,11,,80,0
5999,note_on,,239,0,7,,,,,,,,,,,,,,,,3,,76,0
5999,note_on,,239,0,11,,,,,,,,,,,,,,,,7,,69,0
5999,note_on,,29,0,13,,,,,,,,,,,,,,,,10,,71,0
5999,note_on,,239,0,9,,,,,,,,,,,,,,,,5,,73,0
5999,note_on,,0,0,17,,,,,,,,,,,,,,,,15,,73,0
5999,note_on,,0,0,17,,,,,,,,,,,,,,,,15,,76,0
5999,note_on,,239,0,17,,,,,,,,,,,,,,,,15,,69,0
6000,note_on,,0,0,17,,,,,,,,,,,,,,,,15,,73,72
6000,note_on,,1,0,9,,,,,,,,,,,,,,,,5,,73,72
6000,note_on,,1,0,5,,,,,,,,,,,,,,,,0,,73,72
6000,note_on,,1,0,14,,,,,,,,,,,,,,,,11,,81,72
6000,note_on,,1,0,13,,,,,,,,,,,,,,,,10,,73,72
6000,note_on,,0,0,17,,,,,,,,,,,,,,,,15,,76,72
6000,note_on,,1,0,7,,,,,,,,,,,,,,,,3,,76,56
6000,note_on,,1,0,17,,,,,,,,,,,,,,,,15,,57,72
6000,note_on,,1,0,10,,,,,,,,,,,,,,,,6,,64,72
6000,note_on,,0,0,17,,,,,,,,,,,,,,,,15,,81,72
6000,note_on,,1,0,16,,,,,,,,,,,,,,,,13,,57,72
6000,note_on,,1,0,11,,,,,,,,,,,,,,,,7,,57,72
6000,note_on,,1,0,8,,,,,,,,,,,,,,,,4,,69,56
6000,note_on,,1,0,15,,,,,,,,,,,,,,,,12,,57,72
6029,note_on,,29,0,14,,,,,,,,,,,,,,,,11,,81,0
6029,note_on,,29,0,13,,,,,,,,,,,,,,,,10,,73,0
6030,note_on,,1,0,13,,,,,,,,,,,,,,,,10,,64,72
6030,note_on,,1,0,14,,,,,,,,,,,,,,,,11,,73,72
6059,note_on,,29,0,13,,,,,,,,,,,,,,,,10,,64,0
6059,note_on,,29,0,14,,,,,,,,,,,,,,,,11,,73,0
6060,note_on,,1,0,14,,,,,,,,,,,,,,,,11,,74,72
6060,note_on,,1,0,13,,,,,,,,,,,,,,,,10,,66,72
6089,note_on,,29,0,13,,,,,,,,,,,,,,,,10,,66,0
6089,note_on,,29,0,14,,,,,,,,,,,,,,,,11,,74,0
6090,note_on,,1,0,14,,,,,,,,,,,,,,,,11,,71,72
6090,note_on,,1,0,13,,,,,,,,,,,,,,,,10,,68,72
6119,note_on,,29,0,13,,,,,,,,,,,,,,,,10,,68,0
6119,note_on,,29,0,14,,,,,,,,,,,,,,,,11,,71,0
6120,note_on,,1,0,13,,,,,,,,,,,,,,,,10,,69,72
6120,note_on,,1,0,14,,,,,,,,,,,,,,,,11,,73,72
6149,note_on,,29,0,14,,,,,,,,,,,,,,,,11,,73,0
6149,note_on,,29,0,13,,,,,,,,,,,,,,,,10,,69,0
6150,note_on,,1,0,14,,,,,,,,,,,,,,,,11,,64,72
6150,note_on,,1,0,13,,,,,,,,,,,,,,,,10,,61,72
6179,note_on,,29,0,13,,,,,,,,,,,,,,,,10,,61,0
6179,note_on,,29,0,14,,,,,,,,,,,,,,,,11,,64,0
6180,note_on,,1,0,13,,,,,,,,,,,,,,,,10,,62,72
6180,note_on,,1,0,14,,,,,,,,,,,,,,,,11,,66,72
6209,note_on,,29,0,13,,,,,,,,,,,,,,,,10,,62,0
6209,note_on,,29,0,14,,,,,,,,,,,,,,,,11,,66,0
6210,note_on,,1,0,13,,,,,,,,,,,,,,,,10,,64,72
6210,note_on,,1,0,14,,,,,,,,,,,,,,,,11,,68,72
6239,note_on,,0,0,17,,,,,,,,,,,,,,,,15,,76,0
6239,note_on,,29,0,14,,,,,,,,,,,,,,,,11,,68,0
6239,note_on,,239,0,15,,,,,,,,,,,,,,,,12,,57,0
6239,note_on,,239,0,17,,,,,,,,,,,,,,,,15,,57,0
6239,note_on,,0,0,17,,,,,,,,,,,,,,,,15,,81,0
6239,note_on,,0,0,17,,,,,,,,,,,,,,,,15,,73,0
6239,note_on,,239,0,7,,,,,,,,,,,,,,,,3,,76,0
6239,note_on,,239,0,11,,,,,,,,,,,,,,,,7,,57,0
6239,note_on,,239,0,5,,,,,,,,,,,,,,,,0,,73,0
6239,note_on,,239,0,10,,,,,,,,,,,,,,,,6,,64,0
6239,note_on,,239,0,16,,,,,,,,,,,,,,,,13,,57,0
6239,note_on,,29,0,13,,,,,,,,,,,,,,,,10,,64,0
6239,note_on,,239,0,9,,,,,,,,,,,,,,,,5,,73,0
6239,note_on,,239,0,8,,,,,,,,,,,,,,,,4,,69,0
6240,note_on,,1,0,14,,,,,,,,,,,,,,,,11,,69,72
6240,note_on,,1,0,13,,,,,,,,,,,,,,,,10,,57,72
6359,note_on,,119,0,14,,,,,,,,,,,,,,,,11,,69,0
6359,note_on,,119,0,13,,,,,,,,,,,,,,,,10,,57,0
6600,note_on,,361,0,15,,,,,,,,,,,,,,,,12,,62,72
6600,note_on,,361,0,11,,,,,,,,,,,,,,,,7,,62,72
6600,note_on,,3241,0,12,,,,,,,,,,,,,,,,8,,62,72
6600,note_on,,241,0,14,,,,,,,,,,,,,,,,11,,74,72
6600,note_on,,3241,0,6,,,,,,,,,,,,,,,,2,,62,72
6600,note_on,,361,0,17,,,,,,,,,,,,,,,,15,,62,72
6600,note_on,,241,0,13,,,,,,,,,,,,,,,,10,,74,72
6600,note_on,,361,0,16,,,,,,,,,,,,,,,,13,,62,72
6600,note_on,,0,0,17,,,,,,,,,,,,,,,,15,,74,72
6719,note_on,,119,0,17,,,,,,,,,,,,,,,,15,,62,0
6719,note_on,,119,0,6,,,,,,,,,,,,,,,,2,,62,0
6719,note_on,,119,0,15,,,,,,,,,,,,,,,,12,,62,0
6719,note_on,,119,0,12,,,,,,,,,,,,,,,,8,,62,0
6719,note_on,,0,0,17,,,,,,,,,,,,,,,,15,,74,0
6719,note_on,,119,0,16,,,,,,,,,,,,,,,,13,,62,0
6719,note_on,,119,0,14,,,,,,,,,,,,,,,,11,,74,0
6719,note_on,,119,0,13,,,,,,,,,,,,,,,,10,,74,0
6719,note_on,,119,0,11,,,,,,,,,,,,,,,,7,,62,0
6720,note_on,,1,0,11,,,,,,,,,,,,,,,,7,,62,72
6720,note_on,,1,0,15,,,,,,,,,,,,,,,,12,,62,72
6720,note_on,,1,0,13,,,,,,,,,,,,,,,,10,,74,72
6720,note_on,,1,0,12,,,,,,,,,,,,,,,,8,,62,72
6720,note_on,,1,0,16,,,,,,,,,,,,,,,,13,,62,72
6720,note_on,,1,0,6,,,,,,,,,,,,,,,,2,,62,72
6720,note_on,,1,0,14,,,,,,,,,,,,,,,,11,,74,72
6720,note_on,,1,0,17,,,,,,,,,,,,,,,,15,,62,72
6720,note_on,,0,0,17,,,,,,,,,,,,,,,,15,,74,72
7079,note_on,,359,0,11,,,,,,,,,,,,,,,,7,,62,0
7079,note_on,,359,0,16,,,,,,,,,,,,,,,,13,,62,0
7079,note_on,,359,0,15,,,,,,,,,,,,,,,,12,,62,0
7079,note_on,,359,0,17,,,,,,,,,,,,,,,,15,,62,0
7079,note_on,,0,0,17,,,,,,,,,,,,,,,,15,,74,0
7079,note_on,,359,0,12,,,,,,,,,,,,,,,,8,,62,0
7079,note_on,,359,0,13,,,,,,,,,,,,,,,,10,,74,0
7079,note_on,,359,0,14,,,,,,,,,,,,,,,,11,,74,0
7079,note_on,,359,0,6,,,,,,,,,,,,,,,,2,,62,0
7080,note_on,,1,0,13,,,,,,,,,,,,,,,,10,,62,72
7080,note_on,,1,0,16,,,,,,,,,,,,,,,,13,,50,72
7080,note_on,,1,0,11,,,,,,,,,,,,,,,,7,,50,72
7080,note_on,,1,0,17,,,,,,,,,,,,,,,,15,,50,72
7080,note_on,,1,0,14,,,,,,,,,,,,,,,,11,,62,72
7080,note_on,,1,0,12,,,,,,,,,,,,,,,,8,,50,72
7080,note_on,,0,0,17,,,,,,,,,,,,,,,,15,,62,72
7080,note_on,,1,0,15,,,,,,,,,,,,,,,,12,,50,72
7080,note_on,,1,0,6,,,,,,,,,,,,,,,,2,,50,72
7199,note_on,,119,0,16,,,,,,,,,,,,,,,,13,,50,0
7199,note_on,,119,0,6,,,,,,,,,,,,,,,,2,,50,0
7199,note_on,,119,0,12,,,,,,,,,,,,,,,,8,,50,0
7199,note_on,,119,0,15,,,,,,,,,,,,,,,,12,,50,0
7199,note_on,,119,0,14,,,,,,,,,,,,,,,,11,,62,0
7199,note_on,,119,0,13,,,,,,,,,,,,,,,,10,,62,0
7199,note_on,,0,0,17,,,,,,,,,,,,,,,,15,,62,0
7199,note_on,,119,0,11,,,,,,,,,,,,,,,,7,,50,0
7199,note_on,,119,0,17,,,,,,,,,,,,,,,,15,,50,0
7200,note_on,,0,0,17,,,,,,,,,,,,,,,,15,,62,72
7200,note_on,,1,0,17,,,,,,,,,,,,,,,,15,,50,72
7200,note_on,,1,0,12,,,,,,,,,,,,,,,,8,,50,72
7200,note_on,,1,0,11,,,,,,,,,,,,,,,,7,,50,72
7200,note_on,,1,0,16,,,,,,,,,,,,,,,,13,,50,72
7200,note_on,,1,0,6,,,,,,,,,,,,,,,,2,,50,72
7200,note_on,,1,0,13,,,,,,,,,,,,,,,,10,,62,72
7200,note_on,,1,0,14,,,,,,,,,,,,,,,,11,,62,72
7200,note_on,,1,0,15,,,,,,,,,,,,,,,,12,,50,72
7379,note_on,,179,0,13,,,,,,,,,,,,,,,,10,,62,0
7379,note_on,,179,0,15,,,,,,,,,,,,,,,,12,,50,0
7379,note_on,,179,0,14,,,,,,,,,,,,,,,,11,,62,0
7380,note_on,,1,0,14,,,,,,,,,,,,,,,,11,,66,48
7380,note_on,,1,0,13,,,,,,,,,,,,,,,,10,,69,48
7380,note_on,,1,0,15,,,,,,,,,,,,,,,,12,,62,48
7439,note_on,,59,0,15,,,,,,,,,,,,,,,,12,,62,0
7439,note_on,,59,0,13,,,,,,,,,,,,,,,,10,,69,0
7439,note_on,,59,0,14,,,,,,,,,,,,,,,,11,,66,0
7440,note_on,,1,0,14,,,,,,,,,,,,,,,,11,,66,48
7440,note_on,,1,0,15,,,,,,,,,,,,,,,,12,,62,48
7440,note_on,,1,0,13,,,,,,,,,,,,,,,,10,,69,48
7469,note_on,,29,0,14,,,,,,,,,,,,,,,,11,,66,0
7469,note_on,,29,0,15,,,,,,,,,,,,,,,,12,,62,0
7469,note_on,,29,0,13,,,,,,,,,,,,,,,,10,,69,0
7500,note_on,,31,0,13,,,,,,,,,,,,,,,,10,,69,48
7500,note_on,,31,0,15,,,,,,,,,,,,,,,,12,,62,48
7500,note_on,,31,0,14,,,,,,,,,,,,,,,,11,,66,48
7529,note_on,,29,0,15,,,,,,,,,,,,,,,,12,,62,0
7529,note_on,,29,0,13,,,,,,,,,,,,,,,,10,,69,0
7529,note_on,,29,0,14,,,,,,,,,,,,,,,,11,,66,0
7560,note_on,,31,0,15,,,,,,,,,,,,,,,,12,,62,48
7560,note_on,,31,0,13,,,,,,,,,,,,,,,,10,,69,48
7560,note_on,,31,0,14,,,,,,,,,,,,,,,,11,,66,48
7589,note_on,,29,0,15,,,,,,,,,,,,,,,,12,,62,0
7589,note_on,,29,0,13,,,,,,,,,,,,,,,,10,,69,0
7589,note_on,,29,0,14,,,,,,,,,,,,,,,,11,,66,0
7620,note_on,,31,0,15,,,,,,,,,,,,,,,,12,,62,48
7620,note_on,,31,0,13,,,,,,,,,,,,,,,,10,,69,48
7620,note_on,,31,0,14,,,,,,,,,,,,,,,,11,,66,48
7649,note_on,,29,0,15,,,,,,,,,,,,,,,,12,,62,0
7649,note_on,,29,0,14,,,,,,,,,,,,,,,,11,,66,0
7649,note_on,,29,0,13,,,,,,,,,,,,,,,,10,,69,0
7679,note_on,,479,0,12,,,,,,,,,,,,,,,,8,,50,0
7679,note_on,,479,0,16,,,,,,,,,,,,,,,,13,,50,0
7679,note_on,,479,0,6,,,,,,,,,,,,,,,,2,,50,0
7679,note_on,,479,0,17,,,,,,,,,,,,,,,,15,,50,0
7679,note_on,,0,0,17,,,,,,,,,,,,,,,,15,,62,0
7679,note_on,,479,0,11,,,,,,,,,,,,,,,,7,,50,0
7680,note_on,,31,0,13,,,,,,,,,,,,,,,,10,,71,48
7680,note_on,,31,0,14,,,,,,,,,,,,,,,,11,,67,48
7680,note_on,,31,0,15,,,,,,,,,,,,,,,,12,,62,48
7709,note_on,,29,0,15,,,,,,,,,,,,,,,,12,,62,0
7709,note_on,,29,0,14,,,,,,,,,,,,,,,,11,,67,0
7709,note_on,,29,0,13,,,,,,,,,,,,,,,,10,,71,0
7740,note_on,,31,0,13,,,,,,,,,,,,,,,,10,,71,48
7740,note_on,,31,0,14,,,,,,,,,,,,,,,,11,,67,48
7740,note_on,,31,0,15,,,,,,,,,,,,,,,,12,,62,48
7769,note_on,,29,0,14,,,,,,,,,,,,,,,,11,,67,0
7769,note_on,,29,0,15,,,,,,,,,,,,,,,,12,,62,0
7769,note_on,,29,0,13,,,,,,,,,,,,,,,,10,,71,0
7800,note_on,,31,0,13,,,,,,,,,,,,,,,,10,,71,48
7800,note_on,,31,0,15,,,,,,,,,,,,,,,,12,,62,48
7800,note_on,,31,0,14,,,,,,,,,,,,,,,,11,,67,48
7829,note_on,,29,0,15,,,,,,,,,,,,,,,,12,,62,0
7829,note_on,,29,0,14,,,,,,,,,,,,,,,,11,,67,0
7829,note_on,,29,0,13,,,,,,,,,,,,,,,,10,,71,0
7860,note_on,,31,0,14,,,,,,,,,,,,,,,,11,,67,48
7860,note_on,,31,0,13,,,,,,,,,,,,,,,,10,,71,48
7860,note_on,,31,0,15,,,,,,,,,,,,,,,,12,,62,48
7889,note_on,,29,0,13,,,,,,,,,,,,,,,,10,,71,0
7889,note_on,,29,0,15,,,,,,,,,,,,,,,,12,,62,0
7889,note_on,,29,0,14,,,,,,,,,,,,,,,,11,,67,0
7920,note_on,,31,0,13,,,,,,,,,,,,,,,,10,,71,48
7920,note_on,,31,0,15,,,,,,,,,,,,,,,,12,,62,48
7920,note_on,,31,0,14,,,,,,,,,,,,,,,,11,,67,48
7949,note_on,,29,0,13,,,,,,,,,,,,,,,,10,,71,0
7949,note_on,,29,0,14,,,,,,,,,,,,,,,,11,,67,0
7949,note_on,,29,0,15,,,,,,,,,,,,,,,,12,,62,0
7980,note_on,,31,0,13,,,,,,,,,,,,,,,,10,,71,48
7980,note_on,,31,0,15,,,,,,,,,,,,,,,,12,,62,48
7980,note_on,,31,0,14,,,,,,,,,,,,,,,,11,,67,48
8009,note_on,,29,0,14,,,,,,,,,,,,,,,,11,,67,0
8009,note_on,,29,0,13,,,,,,,,,,,,,,,,10,,71,0
8009,note_on,,29,0,15,,,,,,,,,,,,,,,,12,,62,0
8040,note_on,,31,0,13,,,,,,,,,,,,,,,,10,,71,48
8040,note_on,,31,0,15,,,,,,,,,,,,,,,,12,,62,48
8040,note_on,,31,0,14,,,,,,,,,,,,,,,,11,,67,48
8069,note_on,,29,0,15,,,,,,,,,,,,,,,,12,,62,0
8069,note_on,,29,0,13,,,,,,,,,,,,,,,,10,,71,0
8069,note_on,,29,0,14,,,,,,,,,,,,,,,,11,,67,0
8100,note_on,,31,0,14,,,,,,,,,,,,,,,,11,,67,48
8100,note_on,,31,0,15,,,,,,,,,,,,,,,,12,,62,48
8100,note_on,,31,0,13,,,,,,,,,,,,,,,,10,,71,48
8129,note_on,,29,0,14,,,,,,,,,,,,,,,,11,,67,0
8129,note_on,,29,0,15,,,,,,,,,,,,,,,,12,,62,0
8129,note_on,,29,0,13,,,,,,,,,,,,,,,,10,,71,0
8160,note_on,,481,0,12,,,,,,,,,,,,,,,,8,,50,72
8160,note_on,,481,0,17,,,,,,,,,,,,,,,,15,,50,72
8160,note_on,,31,0,15,,,,,,,,,,,,,,,,12,,62,48
8160,note_on,,481,0,6,,,,,,,,,,,,,,,,2,,50,72
8160,note_on,,481,0,16,,,,,,,,,,,,,,,,13,,50,72
8160,note_on,,31,0,13,,,,,,,,,,,,,,,,10,,69,48
8160,note_on,,31,0,14,,,,,,,,,,,,,,,,11,,66,48
8279,note_on,,119,0,15,,,,,,,,,,,,,,,,12,,62,0
8279,note_on,,119,0,12,,,,,,,,,,,,,,,,8,,50,0
8279,note_on,,119,0,14,,,,,,,,,,,,,,,,11,,66,0
8279,note_on,,119,0,6,,,,,,,,,,,,,,,,2,,50,0
8279,note_on,,119,0,16,,,,,,,,,,,,,,,,13,,50,0
8279,note_on,,119,0,17,,,,,,,,,,,,,,,,15,,50,0
8279,note_on,,119,0,13,,,,,,,,,,,,,,,,10,,69,0
8280,note_on,,1,0,17,,,,,,,,,,,,,,,,15,,55,72
8280,note_on,,1,0,12,,,,,,,,,,,,,,,,8,,55,72
8280,note_on,,1,0,6,,,,,,,,,,,,,,,,2,,55,72
8280,note_on,,1,0,16,,,,,,,,,,,,,,,,13,,55,72
8400,note_on,,721,0,11,,,,,,,,,,,,,,,,7,,57,72
8400,note_on,,121,0,15,,,,,,,,,,,,,,,,12,,57,72
8400,note_on,,120,0,17,,,,,,,,,,,,,,,,15,,57,72
8459,note_on,,179,0,16,,,,,,,,,,,,,,,,13,,55,0
8459,note_on,,179,0,6,,,,,,,,,,,,,,,,2,,55,0
8459,note_on,,59,0,17,,,,,,,,,,,,,,,,15,,55,0
8459,note_on,,179,0,12,,,,,,,,,,,,,,,,8,,55,0
8460,note_on,,1,0,6,,,,,,,,,,,,,,,,2,,54,72
8460,note_on,,1,0,17,,,,,,,,,,,,,,,,15,,54,72
8460,note_on,,1,0,12,,,,,,,,,,,,,,,,8,,54,72
8460,note_on,,1,0,16,,,,,,,,,,,,,,,,13,,54,72
8489,note_on,,29,0,16,,,,,,,,,,,,,,,,13,,54,0
8489,note_on,,29,0,12,,,,,,,,,,,,,,,,8,,54,0
8489,note_on,,29,0,6,,,,,,,,,,,,,,,,2,,54,0
8489,note_on,,29,0,17,,,,,,,,,,,,,,,,15,,54,0
8490,note_on,,1,0,12,,,,,,,,,,,,,,,,8,,52,72
8490,note_on,,1,0,16,,,,,,,,,,,,,,,,13,,52,72
8490,note_on,,1,0,6,,,,,,,,,,,,,,,,2,,52,72
8490,note_on,,1,0,17,,,,,,,,,,,,,,,,15,,52,72
8519,note_on,,29,0,16,,,,,,,,,,,,,,,,13,,52,0
8519,note_on,,29,0,6,,,,,,,,,,,,,,,,2,,52,0
8519,note_on,,29,0,12,,,,,,,,,,,,,,,,8,,52,0
8519,note_on,,119,0,11,,,,,,,,,,,,,,,,7,,57,0
8519,note_on,,119,0,15,,,,,,,,,,,,,,,,12,,57,0
8519,note_on,,0,0,17,,,,,,,,,,,,,,,,15,,52,0
8519,note_on,,29,0,17,,,,,,,,,,,,,,,,15,,57,0
8520,note_on,,1,0,6,,,,,,,,,,,,,,,,2,,54,72
8520,note_on,,1,0,11,,,,,,,,,,,,,,,,7,,62,72
8520,note_on,,1,0,15,,,,,,,,,,,,,,,,12,,62,72
8520,note_on,,1,0,17,,,,,,,,,,,,,,,,15,,54,72
8520,note_on,,1,0,12,,,,,,,,,,,,,,,,8,,54,72
8520,note_on,,0,0,17,,,,,,,,,,,,,,,,15,,62,72
8520,note_on,,1,0,16,,,,,,,,,,,,,,,,13,,54,72
8579,note_on,,59,0,6,,,,,,,,,,,,,,,,2,,54,0
8579,note_on,,59,0,12,,,,,,,,,,,,,,,,8,,54,0
8579,note_on,,59,0,16,,,,,,,,,,,,,,,,13,,54,0
8579,note_on,,59,0,17,,,,,,,,,,,,,,,,15,,54,0
8580,note_on,,1,0,6,,,,,,,,,,,,,,,,2,,50,72
8580,note_on,,1,0,17,,,,,,,,,,,,,,,,15,,50,72
8580,note_on,,1,0,12,,,,,,,,,,,,,,,,8,,50,72
8580,note_on,,1,0,16,,,,,,,,,,,,,,,,13,,50,72
8639,note_on,,0,0,17,,,,,,,,,,,,,,,,15,,50,0
8639,note_on,,59,0,16,,,,,,,,,,,,,,,,13,,50,0
8639,note_on,,59,0,17,,,,,,,,,,,,,,,,15,,62,0
8639,note_on,,59,0,6,,,,,,,,,,,,,,,,2,,50,0
8639,note_on,,59,0,12,,,,,,,,,,,,,,,,8,,50,0
8640,note_on,,361,0,14,,,,,,,,,,,,,,,,11,,64,72
8640,note_on,,1,0,12,,,,,,,,,,,,,,,,8,,57,72
8640,note_on,,2401,0,10,,,,,,,,,,,,,,,,6,,64,72
8640,note_on,,1,0,17,,,,,,,,,,,,,,,,15,,57,72
8640,note_on,,0,0,17,,,,,,,,,,,,,,,,15,,64,72
8640,note_on,,0,0,17,,,,,,,,,,,,,,,,15,,62,72
8640,note_on,,1,0,6,,,,,,,,,,,,,,,,2,,57,72
8640,note_on,,1,0,16,,,,,,,,,,,,,,,,13,,57,72
8699,note_on,,179,0,11,,,,,,,,,,,,,,,,7,,62,0
8699,note_on,,179,0,15,,,,,,,,,,,,,,,,12,,62,0
8700,note_on,,1,0,15,,,,,,,,,,,,,,,,12,,61,72
8700,note_on,,1,0,11,,,,,,,,,,,,,,,,7,,61,72
8729,note_on,,29,0,11,,,,,,,,,,,,,,,,7,,61,0
8729,note_on,,29,0,15,,,,,,,,,,,,,,,,12,,61,0
8730,note_on,,1,0,11,,,,,,,,,,,,,,,,7,,59,72
8730,note_on,,1,0,15,,,,,,,,,,,,,,,,12,,59,72
8759,note_on,,119,0,10,,,,,,,,,,,,,,,,6,,64,0
8759,note_on,,119,0,14,,,,,,,,,,,,,,,,11,,64,0
8759,note_on,,29,0,11,,,,,,,,,,,,,,,,7,,59,0
8759,note_on,,119,0,17,,,,,,,,,,,,,,,,15,,64,0
8759,note_on,,0,0,17,,,,,,,,,,,,,,,,15,,62,0
8759,note_on,,29,0,15,,,,,,,,,,,,,,,,12,,59,0
8760,note_on,,1,0,14,,,,,,,,,,,,,,,,11,,69,72
8760,note_on,,1,0,11,,,,,,,,,,,,,,,,7,,61,72
8760,note_on,,1,0,10,,,,,,,,,,,,,,,,6,,69,72
8760,note_on,,0,0,17,,,,,,,,,,,,,,,,15,,64,72
8760,note_on,,0,0,17,,,,,,,,,,,,,,,,15,,61,72
8760,note_on,,1,0,15,,,,,,,,,,,,,,,,12,,61,72
8760,note_on,,1,0,17,,,,,,,,,,,,,,,,15,,69,72
8819,note_on,,59,0,11,,,,,,,,,,,,,,,,7,,61,0
8819,note_on,,59,0,15,,,,,,,,,,,,,,,,12,,61,0
8820,note_on,,1,0,15,,,,,,,,,,,,,,,,12,,57,72
8820,note_on,,1,0,11,,,,,,,,,,,,,,,,7,,57,72
8879,note_on,,59,0,15,,,,,,,,,,,,,,,,12,,57,0
8879,note_on,,239,0,12,,,,,,,,,,,,,,,,8,,57,0
8879,note_on,,0,0,17,,,,,,,,,,,,,,,,15,,64,0
8879,note_on,,59,0,11,,,,,,,,,,,,,,,,7,,57,0
8879,note_on,,239,0,6,,,,,,,,,,,,,,,,2,,57,0
8879,note_on,,0,0,17,,,,,,,,,,,,,,,,15,,69,0
8879,note_on,,119,0,17,,,,,,,,,,,,,,,,15,,57,0
8879,note_on,,239,0,16,,,,,,,,,,,,,,,,13,,57,0
8879,note_on,,0,0,17,,,,,,,,,,,,,,,,15,,61,0
8880,note_on,,1,0,15,,,,,,,,,,,,,,,,12,,64,72
8880,note_on,,0,0,17,,,,,,,,,,,,,,,,15,,71,72
8880,note_on,,1,0,16,,,,,,,,,,,,,,,,13,,64,72
8880,note_on,,0,0,17,,,,,,,,,,,,,,,,15,,69,72
8880,note_on,,1,0,17,,,,,,,,,,,,,,,,15,,64,72
8880,note_on,,1,0,11,,,,,,,,,,,,,,,,7,,64,72
8939,note_on,,179,0,10,,,,,,,,,,,,,,,,6,,69,0
8939,note_on,,179,0,14,,,,,,,,,,,,,,,,11,,69,0
8940,note_on,,1,0,10,,,,,,,,,,,,,,,,6,,67,72
8940,note_on,,1,0,14,,,,,,,,,,,,,,,,11,,67,72
8969,note_on,,29,0,14,,,,,,,,,,,,,,,,11,,67,0
8969,note_on,,29,0,10,,,,,,,,,,,,,,,,6,,67,0
8970,note_on,,1,0,14,,,,,,,,,,,,,,,,11,,66,72
8970,note_on,,1,0,10,,,,,,,,,,,,,,,,6,,66,72
8999,note_on,,0,0,17,,,,,,,,,,,,,,,,15,,69,0
8999,note_on,,29,0,14,,,,,,,,,,,,,,,,11,,66,0
8999,note_on,,29,0,10,,,,,,,,,,,,,,,,6,,66,0
8999,note_on,,119,0,17,,,,,,,,,,,,,,,,15,,71,0
9000,note_on,,1,0,17,,,,,,,,,,,,,,,,15,,76,72
9000,note_on,,0,0,17,,,,,,,,,,,,,,,,15,,73,72
9000,note_on,,0,0,17,,,,,,,,,,,,,,,,15,,67,72
9000,note_on,,1,0,14,,,,,,,,,,,,,,,,11,,67,72
9000,note_on,,1,0,10,,,,,,,,,,,,,,,,6,,67,72
9059,note_on,,59,0,10,,,,,,,,,,,,,,,,6,,67,0
9059,note_on,,59,0,14,,,,,,,,,,,,,,,,11,,67,0
9060,note_on,,1,0,10,,,,,,,,,,,,,,,,6,,64,72
9060,note_on,,1,0,14,,,,,,,,,,,,,,,,11,,64,72
9119,note_on,,0,0,17,,,,,,,,,,,,,,,,15,,76,0
9119,note_on,,119,0,17,,,,,,,,,,,,,,,,15,,64,0
9119,note_on,,0,0,17,,,,,,,,,,,,,,,,15,,67,0
9119,note_on,,239,0,11,,,,,,,,,,,,,,,,7,,64,0
9119,note_on,,59,0,14,,,,,,,,,,,,,,,,11,,64,0
9119,note_on,,239,0,15,,,,,,,,,,,,,,,,12,,64,0
9119,note_on,,59,0,10,,,,,,,,,,,,,,,,6,,64,0
9119,note_on,,239,0,16,,,,,,,,,,,,,,,,13,,64,0
9119,note_on,,0,0,17,,,,,,,,,,,,,,,,15,,73,0
9120,note_on,,1,0,11,,,,,,,,,,,,,,,,7,,62,72
9120,note_on,,0,0,17,,,,,,,,,,,,,,,,15,,78,72
9120,note_on,,841,0,13,,,,,,,,,,,,,,,,10,,69,72
9120,note_on,,1,0,10,,,,,,,,,,,,,,,,6,,66,72
9120,note_on,,1,0,15,,,,,,,,,,,,,,,,12,,62,72
9120,note_on,,1,0,14,,,,,,,,,,,,,,,,11,,66,72
9120,note_on,,1,0,16,,,,,,,,,,,,,,,,13,,62,72
9120,note_on,,0,0,17,,,,,,,,,,,,,,,,15,,69,72
9120,note_on,,2881,0,9,,,,,,,,,,,,,,,,5,,69,72
9120,note_on,,1,0,17,,,,,,,,,,,,,,,,15,,62,72
9120,note_on,,0,0,17,,,,,,,,,,,,,,,,15,,74,72
9120,note_on,,2881,0,5,,,,,,,,,,,,,,,,0,,69,72
9239,note_on,,119,0,13,,,,,,,,,,,,,,,,10,,69,0
9239,note_on,,119,0,10,,,,,,,,,,,,,,,,6,,66,0
9239,note_on,,119,0,9,,,,,,,,,,,,,,,,5,,69,0
9239,note_on,,119,0,5,,,,,,,,,,,,,,,,0,,69,0
9240,note_on,,1,0,9,,,,,,,,,,,,,,,,5,,74,72
9240,note_on,,1,0,5,,,,,,,,,,,,,,,,0,,74,72
9240,note_on,,1,0,13,,,,,,,,,,,,,,,,10,,74,72
9240,note_on,,1,0,10,,,,,,,,,,,,,,,,6,,66,72
9299,note_on,,0,0,17,,,,,,,,,,,,,,,,15,,69,0
9299,note_on,,0,0,17,,,,,,,,,,,,,,,,15,,74,0
9299,note_on,,179,0,16,,,,,,,,,,,,,,,,13,,62,0
9299,note_on,,179,0,14,,,,,,,,,,,,,,,,11,,66,0
9299,note_on,,0,0,17,,,,,,,,,,,,,,,,15,,78,0
9299,note_on,,179,0,17,,,,,,,,,,,,,,,,15,,62,0
9299,note_on,,59,0,10,,,,,,,,,,,,,,,,6,,66,0
9299,note_on,,179,0,11,,,,,,,,,,,,,,,,7,,62,0
9299,note_on,,179,0,15,,,,,,,,,,,,,,,,12,,62,0
9300,note_on,,0,0,17,,,,,,,,,,,,,,,,15,,69,72
9300,note_on,,1,0,16,,,,,,,,,,,,,,,,13,,62,72
9300,note_on,,1,0,10,,,,,,,,,,,,,,,,6,,66,72
9300,note_on,,1,0,11,,,,,,,,,,,,,,,,7,,62,72
9300,note_on,,1,0,14,,,,,,,,,,,,,,,,11,,66,72
9300,note_on,,0,0,17,,,,,,,,,,,,,,,,15,,74,72
9300,note_on,,1,0,15,,,,,,,,,,,,,,,,12,,62,72
9300,note_on,,1,0,17,,,,,,,,,,,,,,,,15,,62,72
9300,note_on,,0,0,17,,,,,,,,,,,,,,,,15,,78,72
9359,note_on,,59,0,10,,,,,,,,,,,,,,,,6,,66,0
9359,note_on,,59,0,17,,,,,,,,,,,,,,,,15,,62,0
9359,note_on,,0,0,17,,,,,,,,,,,,,,,,15,,78,0
9359,note_on,,59,0,11,,,,,,,,,,,,,,,,7,,62,0
9359,note_on,,59,0,16,,,,,,,,,,,,,,,,13,,62,0
9359,note_on,,0,0,17,,,,,,,,,,,,,,,,15,,69,0
9359,note_on,,0,0,17,,,,,,,,,,,,,,,,15,,74,0
9359,note_on,,59,0,15,,,,,,,,,,,,,,,,12,,62,0
9359,note_on,,59,0,14,,,,,,,,,,,,,,,,11,,66,0
9360,note_on,,0,0,17,,,,,,,,,,,,,,,,15,,69,72
9360,note_on,,1,0,16,,,,,,,,,,,,,,,,13,,57,72
9360,note_on,,0,0,17,,,,,,,,,,,,,,,,15,,76,72
9360,note_on,,0,0,17,,,,,,,,,,,,,,,,15,,74,72
9360,note_on,,1,0,14,,,,,,,,,,,,,,,,11,,64,72
9360,note_on,,1,0,11,,,,,,,,,,,,,,,,7,,57,72
9360,note_on,,1,0,10,,,,,,,,,,,,,,,,6,,64,72
9360,note_on,,1,0,15,,,,,,,,,,,,,,,,12,,57,72
9360,note_on,,1,0,17,,,,,,,,,,,,,,,,15,,57,72
9419,note_on,,179,0,13,,,,,,,,,,,,,,,,10,,74,0
9419,note_on,,179,0,9,,,,,,,,,,,,,,,,5,,74,0
9419,note_on,,179,0,5,,,,,,,,,,,,,,,,0,,74,0
9420,note_on,,1,0,13,,,,,,,,,,,,,,,,10,,73,72
9420,note_on,,1,0,9,,,,,,,,,,,,,,,,5,,73,72
9420,note_on,,1,0,5,,,,,,,,,,,,,,,,0,,73,72
9449,note_on,,29,0,5,,,,,,,,,,,,,,,,0,,73,0
9449,note_on,,29,0,9,,,,,,,,,,,,,,,,5,,73,0
9449,note_on,,29,0,13,,,,,,,,,,,,,,,,10,,73,0
9450,note_on,,1,0,13,,,,,,,,,,,,,,,,10,,71,72
9450,note_on,,1,0,9,,,,,,,,,,,,,,,,5,,71,72
9450,note_on,,1,0,5,,,,,,,,,,,,,,,,0,,71,72
9479,note_on,,0,0,17,,,,,,,,,,,,,,,,15,,69,0
9479,note_on,,29,0,9,,,,,,,,,,,,,,,,5,,71,0
9479,note_on,,119,0,17,,,,,,,,,,,,,,,,15,,74,0
9479,note_on,,29,0,5,,,,,,,,,,,,,,,,0,,71,0
9479,note_on,,29,0,13,,,,,,,,,,,,,,,,10,,71,0
9480,note_on,,1,0,5,,,,,,,,,,,,,,,,0,,73,72
9480,note_on,,1,0,9,,,,,,,,,,,,,,,,5,,73,72
9480,note_on,,0,0,17,,,,,,,,,,,,,,,,15,,64,72
9480,note_on,,1,0,13,,,,,,,,,,,,,,,,10,,73,72
9480,note_on,,1,0,17,,,,,,,,,,,,,,,,15,,73,72
9539,note_on,,59,0,13,,,,,,,,,,,,,,,,10,,73,0
9539,note_on,,59,0,5,,,,,,,,,,,,,,,,0,,73,0
9539,note_on,,59,0,9,,,,,,,,,,,,,,,,5,,73,0
9540,note_on,,1,0,9,,,,,,,,,,,,,,,,5,,69,72
9540,note_on,,1,0,13,,,,,,,,,,,,,,,,10,,69,72
9540,note_on,,1,0,5,,,,,,,,,,,,,,,,0,,69,72
9599,note_on,,0,0,17,,,,,,,,,,,,,,,,15,,76,0
9599,note_on,,0,0,17,,,,,,,,,,,,,,,,15,,73,0
9599,note_on,,0,0,17,,,,,,,,,,,,,,,,15,,64,0
9599,note_on,,119,0,17,,,,,,,,,,,,,,,,15,,57,0
9599,note_on,,239,0,10,,,,,,,,,,,,,,,,6,,64,0
9599,note_on,,239,0,16,,,,,,,,,,,,,,,,13,,57,0
9599,note_on,,239,0,11,,,,,,,,,,,,,,,,7,,57,0
9599,note_on,,59,0,13,,,,,,,,,,,,,,,,10,,69,0
9599,note_on,,59,0,9,,,,,,,,,,,,,,,,5,,69,0
9599,note_on,,239,0,15,,,,,,,,,,,,,,,,12,,57,0
9599,note_on,,239,0,14,,,,,,,,,,,,,,,,11,,64,0
9599,note_on,,59,0,5,,,,,,,,,,,,,,,,0,,69,0
9600,note_on,,1,0,5,,,,,,,,,,,,,,,,0,,71,72
9600,note_on,,1,0,14,,,,,,,,,,,,,,,,11,,62,72
9600,note_on,,1,0,17,,,,,,,,,,,,,,,,15,,71,72
9600,note_on,,0,0,17,,,,,,,,,,,,,,,,15,,62,72
9600,note_on,,1,0,9,,,,,,,,,,,,,,,,5,,71,72
9600,note_on,,1,0,13,,,,,,,,,,,,,,,,10,,71,72
9600,note_on,,1,0,10,,,,,,,,,,,,,,,,6,,62,72
9719,note_on,,119,0,9,,,,,,,,,,,,,,,,5,,71,0
9719,note_on,,119,0,14,,,,,,,,,,,,,,,,11,,62,0
9719,note_on,,119,0,10,,,,,,,,,,,,,,,,6,,62,0
9719,note_on,,119,0,5,,,,,,,,,,,,,,,,0,,71,0
9719,note_on,,119,0,17,,,,,,,,,,,,,,,,15,,62,0
9720,note_on,,1,0,9,,,,,,,,,,,,,,,,5,,71,72
9720,note_on,,1,0,5,,,,,,,,,,,,,,,,0,,71,72
9720,note_on,,1,0,10,,,,,,,,,,,,,,,,6,,67,72
9720,note_on,,1,0,14,,,,,,,,,,,,,,,,11,,67,72
9720,note_on,,1,0,17,,,,,,,,,,,,,,,,15,,67,72
9779,note_on,,59,0,5,,,,,,,,,,,,,,,,0,,71,0
9779,note_on,,179,0,13,,,,,,,,,,,,,,,,10,,71,0
9779,note_on,,59,0,9,,,,,,,,,,,,,,,,5,,71,0
9779,note_on,,59,0,17,,,,,,,,,,,,,,,,15,,71,0
9780,note_on,,1,0,17,,,,,,,,,,,,,,,,15,,71,72
9780,note_on,,1,0,9,,,,,,,,,,,,,,,,5,,71,72
9780,note_on,,1,0,13,,,,,,,,,,,,,,,,10,,71,72
9780,note_on,,1,0,5,,,,,,,,,,,,,,,,0,,71,72
9839,note_on,,59,0,5,,,,,,,,,,,,,,,,0,,71,0
9839,note_on,,59,0,17,,,,,,,,,,,,,,,,15,,67,0
9839,note_on,,0,0,17,,,,,,,,,,,,,,,,15,,71,0
9839,note_on,,59,0,13,,,,,,,,,,,,,,,,10,,71,0
9839,note_on,,59,0,9,,,,,,,,,,,,,,,,5,,71,0
9840,note_on,,1,0,5,,,,,,,,,,,,,,,,0,,69,72
9840,note_on,,961,0,6,,,,,,,,,,,,,,,,2,,57,72
9840,note_on,,0,0,17,,,,,,,,,,,,,,,,15,,69,72
9840,note_on,,0,0,17,,,,,,,,,,,,,,,,15,,67,72
9840,note_on,,1,0,17,,,,,,,,,,,,,,,,15,,57,72
9840,note_on,,961,0,12,,,,,,,,,,,,,,,,8,,57,72
9840,note_on,,241,0,16,,,,,,,,,,,,,,,,13,,57,72
9840,note_on,,1,0,13,,,,,,,,,,,,,,,,10,,69,72
9840,note_on,,1,0,9,,,,,,,,,,,,,,,,5,,69,72
9899,note_on,,179,0,14,,,,,,,,,,,,,,,,11,,67,0
9899,note_on,,179,0,10,,,,,,,,,,,,,,,,6,,67,0
9900,note_on,,1,0,14,,,,,,,,,,,,,,,,11,,66,72
9900,note_on,,1,0,10,,,,,,,,,,,,,,,,6,,66,72
9929,note_on,,29,0,10,,,,,,,,,,,,,,,,6,,66,0
9929,note_on,,29,0,14,,,,,,,,,,,,,,,,11,,66,0
9930,note_on,,1,0,14,,,,,,,,,,,,,,,,11,,64,72
9930,note_on,,1,0,10,,,,,,,,,,,,,,,,6,,64,72
9959,note_on,,119,0,12,,,,,,,,,,,,,,,,8,,57,0
9959,note_on,,119,0,6,,,,,,,,,,,,,,,,2,,57,0
9959,note_on,,29,0,14,,,,,,,,,,,,,,,,11,,64,0
9959,note_on,,0,0,17,,,,,,,,,,,,,,,,15,,67,0
9959,note_on,,119,0,17,,,,,,,,,,,,,,,,15,,57,0
9959,note_on,,119,0,16,,,,,,,,,,,,,,,,13,,57,0
9959,note_on,,29,0,10,,,,,,,,,,,,,,,,6,,64,0
9960,note_on,,1,0,10,,,,,,,,,,,,,,,,6,,66,72
9960,note_on,,1,0,14,,,,,,,,,,,,,,,,11,,66,72
9960,note_on,,0,0,17,,,,,,,,,,,,,,,,15,,66,72
9960,note_on,,1,0,12,,,,,,,,,,,,,,,,8,,62,72
9960,note_on,,1,0,16,,,,,,,,,,,,,,,,13,,62,72
9960,note_on,,1,0,6,,,,,,,,,,,,,,,,2,,62,72
9960,note_on,,1,0,17,,,,,,,,,,,,,,,,15,,62,72
10019,note_on,,59,0,10,,,,,,,,,,,,,,,,6,,66,0
10019,note_on,,59,0,14,,,,,,,,,,,,,,,,11,,66,0
10020,note_on,,1,0,10,,,,,,,,,,,,,,,,6,,62,72
10020,note_on,,1,0,14,,,,,,,,,,,,,,,,11,,62,72
10079,note_on,,59,0,14,,,,,,,,,,,,,,,,11,,62,0
10079,note_on,,239,0,13,,,,,,,,,,,,,,,,10,,69,0
10079,note_on,,119,0,17,,,,,,,,,,,,,,,,15,,69,0
10079,note_on,,0,0,17,,,,,,,,,,,,,,,,15,,66,0
10079,note_on,,239,0,5,,,,,,,,,,,,,,,,0,,69,0
10079,note_on,,59,0,10,,,,,,,,,,,,,,,,6,,62,0
10079,note_on,,239,0,9,,,,,,,,,,,,,,,,5,,69,0
10080,note_on,,3841,0,7,,,,,,,,,,,,,,,,3,,76,56
10080,note_on,,1,0,14,,,,,,,,,,,,,,,,11,,64,72
10080,note_on,,1,0,10,,,,,,,,,,,,,,,,6,,64,72
10080,note_on,,0,0,17,,,,,,,,,,,,,,,,15,,69,72
10080,note_on,,0,0,17,,,,,,,,,,,,,,,,15,,64,72
10080,note_on,,1,0,17,,,,,,,,,,,,,,,,15,,76,72
10080,note_on,,481,0,15,,,,,,,,,,,,,,,,12,,64,72
10080,note_on,,481,0,11,,,,,,,,,,,,,,,,7,,64,72
10139,note_on,,179,0,16,,,,,,,,,,,,,,,,13,,62,0
10139,note_on,,179,0,6,,,,,,,,,,,,,,,,2,,62,0
10139,note_on,,179,0,12,,,,,,,,,,,,,,,,8,,62,0
10139,note_on,,59,0,17,,,,,,,,,,,,,,,,15,,62,0
10140,note_on,,1,0,16,,,,,,,,,,,,,,,,13,,61,72
10140,note_on,,1,0,6,,,,,,,,,,,,,,,,2,,61,72
10140,note_on,,1,0,12,,,,,,,,,,,,,,,,8,,61,72
10140,note_on,,1,0,17,,,,,,,,,,,,,,,,15,,61,72
10169,note_on,,29,0,16,,,,,,,,,,,,,,,,13,,61,0
10169,note_on,,29,0,12,,,,,,,,,,,,,,,,8,,61,0
10169,note_on,,29,0,17,,,,,,,,,,,,,,,,15,,61,0
10169,note_on,,29,0,6,,,,,,,,,,,,,,,,2,,61,0
10170,note_on,,1,0,12,,,,,,,,,,,,,,,,8,,59,72
10170,note_on,,1,0,6,,,,,,,,,,,,,,,,2,,59,72
10170,note_on,,1,0,17,,,,,,,,,,,,,,,,15,,59,72
10170,note_on,,1,0,16,,,,,,,,,,,,,,,,13,,59,72
10199,note_on,,0,0,17,,,,,,,,,,,,,,,,15,,59,0
10199,note_on,,29,0,6,,,,,,,,,,,,,,,,2,,59,0
10199,note_on,,29,0,16,,,,,,,,,,,,,,,,13,,59,0
10199,note_on,,119,0,11,,,,,,,,,,,,,,,,7,,64,0
10199,note_on,,119,0,7,,,,,,,,,,,,,,,,3,,76,0
10199,note_on,,29,0,12,,,,,,,,,,,,,,,,8,,59,0
10199,note_on,,0,0,17,,,,,,,,,,,,,,,,15,,69,0
10199,note_on,,0,0,17,,,,,,,,,,,,,,,,15,,64,0
10199,note_on,,29,0,17,,,,,,,,,,,,,,,,15,,76,0
10199,note_on,,119,0,15,,,,,,,,,,,,,,,,12,,64,0
10200,note_on,,1,0,17,,,,,,,,,,,,,,,,15,,61,72
10200,note_on,,1,0,11,,,,,,,,,,,,,,,,7,,69,72
10200,note_on,,1,0,15,,,,,,,,,,,,,,,,12,,69,72
10200,note_on,,1,0,16,,,,,,,,,,,,,,,,13,,61,72
10200,note_on,,1,0,7,,,,,,,,,,,,,,,,3,,81,56
10200,note_on,,0,0,17,,,,,,,,,,,,,,,,15,,69,72
10200,note_on,,0,0,17,,,,,,,,,,,,,,,,15,,64,72
10200,note_on,,1,0,12,,,,,,,,,,,,,,,,8,,61,72
10200,note_on,,1,0,6,,,,,,,,,,,,,,,,2,,61,72
10259,note_on,,59,0,16,,,,,,,,,,,,,,,,13,,61,0
10259,note_on,,59,0,17,,,,,,,,,,,,,,,,15,,61,0
10259,note_on,,0,0,17,,,,,,,,,,,,,,,,15,,69,0
10259,note_on,,0,0,17,,,,,,,,,,,,,,,,15,,64,0
10259,note_on,,59,0,12,,,,,,,,,,,,,,,,8,,61,0
10259,note_on,,59,0,6,,,,,,,,,,,,,,,,2,,61,0
10260,note_on,,1,0,6,,,,,,,,,,,,,,,,2,,57,72
10260,note_on,,1,0,17,,,,,,,,,,,,,,,,15,,57,72
10260,note_on,,1,0,12,,,,,,,,,,,,,,,,8,,57,72
10260,note_on,,1,0,16,,,,,,,,,,,,,,,,13,,57,72
10260,note_on,,0,0,17,,,,,,,,,,,,,,,,15,,73,72
10260,note_on,,0,0,17,,,,,,,,,,,,,,,,15,,69,72
10260,note_on,,0,0,17,,,,,,,,,,,,,,,,15,,64,72
10319,note_on,,59,0,16,,,,,,,,,,,,,,,,13,,57,0
10319,note_on,,59,0,12,,,,,,,,,,,,,,,,8,,57,0
10319,note_on,,0,0,17,,,,,,,,,,,,,,,,15,,73,0
10319,note_on,,59,0,17,,,,,,,,,,,,,,,,15,,57,0
10319,note_on,,0,0,17,,,,,,,,,,,,,,,,15,,64,0
10319,note_on,,239,0,10,,,,,,,,,,,,,,,,6,,64,0
10319,note_on,,239,0,14,,,,,,,,,,,,,,,,11,,64,0
10319,note_on,,0,0,17,,,,,,,,,,,,,,,,15,,69,0
10319,note_on,,59,0,6,,,,,,,,,,,,,,,,2,,57,0
10320,note_on,,1,0,10,,,,,,,,,,,,,,,,6,,62,72
10320,note_on,,1,0,16,,,,,,,,,,,,,,,,13,,59,72
10320,note_on,,241,0,5,,,,,,,,,,,,,,,,0,,74,72
10320,note_on,,1,0,6,,,,,,,,,,,,,,,,2,,59,72
10320,note_on,,241,0,13,,,,,,,,,,,,,,,,10,,74,72
10320,note_on,,0,0,17,,,,,,,,,,,,,,,,15,,69,72
10320,note_on,,241,0,9,,,,,,,,,,,,,,,,5,,74,72
10320,note_on,,1,0,17,,,,,,,,,,,,,,,,15,,59,72
10320,note_on,,0,0,17,,,,,,,,,,,,,,,,15,,74,72
10320,note_on,,4081,0,8,,,,,,,,,,,,,,,,4,,74,56
10320,note_on,,0,0,17,,,,,,,,,,,,,,,,15,,62,72
10320,note_on,,1,0,12,,,,,,,,,,,,,,,,8,,59,72
10320,note_on,,1,0,14,,,,,,,,,,,,,,,,11,,62,72
10379,note_on,,179,0,15,,,,,,,,,,,,,,,,12,,69,0
10379,note_on,,179,0,11,,,,,,,,,,,,,,,,7,,69,0
10379,note_on,,179,0,7,,,,,,,,,,,,,,,,3,,81,0
10380,note_on,,1,0,15,,,,,,,,,,,,,,,,12,,67,72
10380,note_on,,1,0,7,,,,,,,,,,,,,,,,3,,79,56
10380,note_on,,1,0,11,,,,,,,,,,,,,,,,7,,67,72
10409,note_on,,29,0,7,,,,,,,,,,,,,,,,3,,79,0
10409,note_on,,29,0,11,,,,,,,,,,,,,,,,7,,67,0
10409,note_on,,29,0,15,,,,,,,,,,,,,,,,12,,67,0
10410,note_on,,1,0,15,,,,,,,,,,,,,,,,12,,66,72
10410,note_on,,1,0,7,,,,,,,,,,,,,,,,3,,78,56
10410,note_on,,1,0,11,,,,,,,,,,,,,,,,7,,66,72
10439,note_on,,29,0,11,,,,,,,,,,,,,,,,7,,66,0
10439,note_on,,29,0,15,,,,,,,,,,,,,,,,12,,66,0
10439,note_on,,29,0,7,,,,,,,,,,,,,,,,3,,78,0
10439,note_on,,119,0,14,,,,,,,,,,,,,,,,11,,62,0
10439,note_on,,119,0,13,,,,,,,,,,,,,,,,10,,74,0
10439,note_on,,119,0,9,,,,,,,,,,,,,,,,5,,74,0
10439,note_on,,119,0,8,,,,,,,,,,,,,,,,4,,74,0
10439,note_on,,119,0,10,,,,,,,,,,,,,,,,6,,62,0
10439,note_on,,119,0,17,,,,,,,,,,,,,,,,15,,69,0
10439,note_on,,0,0,17,,,,,,,,,,,,,,,,15,,62,0
10439,note_on,,119,0,5,,,,,,,,,,,,,,,,0,,74,0
10440,note_on,,1,0,8,,,,,,,,,,,,,,,,4,,79,56
10440,note_on,,1,0,11,,,,,,,,,,,,,,,,7,,64,72
10440,note_on,,1,0,10,,,,,,,,,,,,,,,,6,,71,72
10440,note_on,,1,0,17,,,,,,,,,,,,,,,,15,,64,72
10440,note_on,,0,0,17,,,,,,,,,,,,,,,,15,,67,72
10440,note_on,,1,0,5,,,,,,,,,,,,,,,,0,,79,72
10440,note_on,,1,0,7,,,,,,,,,,,,,,,,3,,76,56
10440,note_on,,1,0,9,,,,,,,,,,,,,,,,5,,79,72
10440,note_on,,1,0,15,,,,,,,,,,,,,,,,12,,64,72
10440,note_on,,1,0,14,,,,,,,,,,,,,,,,11,,71,72
10440,note_on,,1,0,13,,,,,,,,,,,,,,,,10,,79,72
10499,note_on,,59,0,7,,,,,,,,,,,,,,,,3,,76,0
10499,note_on,,59,0,15,,,,,,,,,,,,,,,,12,,64,0
10499,note_on,,59,0,11,,,,,,,,,,,,,,,,7,,64,0
10499,note_on,,59,0,17,,,,,,,,,,,,,,,,15,,64,0
10499,note_on,,0,0,17,,,,,,,,,,,,,,,,15,,67,0
10500,note_on,,1,0,17,,,,,,,,,,,,,,,,15,,66,72
10500,note_on,,0,0,17,,,,,,,,,,,,,,,,15,,62,72
10500,note_on,,1,0,7,,,,,,,,,,,,,,,,3,,74,56
10500,note_on,,1,0,11,,,,,,,,,,,,,,,,7,,62,72
10500,note_on,,1,0,15,,,,,,,,,,,,,,,,12,,62,72
10559,note_on,,59,0,7,,,,,,,,,,,,,,,,3,,74,0
10559,note_on,,119,0,14,,,,,,,,,,,,,,,,11,,71,0
10559,note_on,,239,0,12,,,,,,,,,,,,,,,,8,,59,0
10559,note_on,,239,0,6,,,,,,,,,,,,,,,,2,,59,0
10559,note_on,,119,0,10,,,,,,,,,,,,,,,,6,,71,0
10559,note_on,,239,0,16,,,,,,,,,,,,,,,,13,,59,0
10559,note_on,,59,0,17,,,,,,,,,,,,,,,,15,,59,0
10559,note_on,,0,0,17,,,,,,,,,,,,,,,,15,,74,0
10559,note_on,,0,0,17,,,,,,,,,,,,,,,,15,,66,0
10559,note_on,,59,0,11,,,,,,,,,,,,,,,,7,,62,0
10559,note_on,,0,0,17,,,,,,,,,,,,,,,,15,,62,0
10559,note_on,,59,0,15,,,,,,,,,,,,,,,,12,,62,0
10560,note_on,,1,0,14,,,,,,,,,,,,,,,,11,,64,72
10560,note_on,,0,0,17,,,,,,,,,,,,,,,,15,,67,72
10560,note_on,,0,0,17,,,,,,,,,,,,,,,,15,,61,72
10560,note_on,,1,0,10,,,,,,,,,,,,,,,,6,,64,72
10560,note_on,,1,0,12,,,,,,,,,,,,,,,,8,,57,72
10560,note_on,,1,0,17,,,,,,,,,,,,,,,,15,,57,72
10560,note_on,,1,0,16,,,,,,,,,,,,,,,,13,,57,72
10560,note_on,,0,0,17,,,,,,,,,,,,,,,,15,,76,72
10560,note_on,,1,0,11,,,,,,,,,,,,,,,,7,,61,72
10560,note_on,,1,0,15,,,,,,,,,,,,,,,,12,,61,72
10560,note_on,,1,0,7,,,,,,,,,,,,,,,,3,,76,56
10560,note_on,,1,0,6,,,,,,,,,,,,,,,,2,,57,72
10619,note_on,,179,0,9,,,,,,,,,,,,,,,,5,,79,0
10619,note_on,,179,0,8,,,,,,,,,,,,,,,,4,,79,0
10619,note_on,,179,0,5,,,,,,,,,,,,,,,,0,,79,0
10619,note_on,,179,0,13,,,,,,,,,,,,,,,,10,,79,0
10620,note_on,,1,0,13,,,,,,,,,,,,,,,,10,,78,72
10620,note_on,,1,0,8,,,,,,,,,,,,,,,,4,,78,56
10620,note_on,,1,0,5,,,,,,,,,,,,,,,,0,,78,72
10620,note_on,,1,0,9,,,,,,,,,,,,,,,,5,,78,72
10649,note_on,,29,0,5,,,,,,,,,,,,,,,,0,,78,0
10649,note_on,,29,0,13,,,,,,,,,,,,,,,,10,,78,0
10649,note_on,,29,0,9,,,,,,,,,,,,,,,,5,,78,0
10649,note_on,,29,0,8,,,,,,,,,,,,,,,,4,,78,0
10650,note_on,,1,0,5,,,,,,,,,,,,,,,,0,,76,72
10650,note_on,,1,0,13,,,,,,,,,,,,,,,,10,,76,72
10650,note_on,,90,0,7,,,,,,,,,,,,,,,,3,,76,56
10650,note_on,,1,0,9,,,,,,,,,,,,,,,,5,,76,72
10650,note_on,,1,0,8,,,,,,,,,,,,,,,,4,,76,56
10679,note_on,,29,0,8,,,,,,,,,,,,,,,,4,,76,0
10679,note_on,,29,0,7,,,,,,,,,,,,,,,,3,,76,0
10679,note_on,,119,0,17,,,,,,,,,,,,,,,,15,,76,0
10679,note_on,,119,0,14,,,,,,,,,,,,,,,,11,,64,0
10679,note_on,,0,0,17,,,,,,,,,,,,,,,,15,,67,0
10679,note_on,,119,0,15,,,,,,,,,,,,,,,,12,,61,0
10679,note_on,,0,0,7,,,,,,,,,,,,,,,,3,,76,0
10679,note_on,,119,0,10,,,,,,,,,,,,,,,,6,,64,0
10679,note_on,,29,0,9,,,,,,,,,,,,,,,,5,,76,0
10679,note_on,,29,0,5,,,,,,,,,,,,,,,,0,,76,0
10679,note_on,,29,0,13,,,,,,,,,,,,,,,,10,,76,0
10680,note_on,,0,0,17,,,,,,,,,,,,,,,,15,,69,72
10680,note_on,,1,0,9,,,,,,,,,,,,,,,,5,,78,72
10680,note_on,,1,0,15,,,,,,,,,,,,,,,,12,,73,72
10680,note_on,,1,0,5,,,,,,,,,,,,,,,,0,,78,72
10680,note_on,,0,0,17,,,,,,,,,,,,,,,,15,,78,72
10680,note_on,,1,0,13,,,,,,,,,,,,,,,,10,,78,72
10680,note_on,,1,0,14,,,,,,,,,,,,,,,,11,,69,72
10680,note_on,,1,0,17,,,,,,,,,,,,,,,,15,,73,72
10680,note_on,,1,0,8,,,,,,,,,,,,,,,,4,,78,56
10680,note_on,,1,0,10,,,,,,,,,,,,,,,,6,,69,72
10680,note_on,,1,0,7,,,,,,,,,,,,,,,,3,,69,56
10739,note_on,,59,0,5,,,,,,,,,,,,,,,,0,,78,0
10739,note_on,,59,0,17,,,,,,,,,,,,,,,,15,,78,0
10739,note_on,,59,0,8,,,,,,,,,,,,,,,,4,,78,0
10739,note_on,,0,0,17,,,,,,,,,,,,,,,,15,,69,0
10739,note_on,,59,0,13,,,,,,,,,,,,,,,,10,,78,0
10739,note_on,,59,0,9,,,,,,,,,,,,,,,,5,,78,0
10740,note_on,,1,0,5,,,,,,,,,,,,,,,,0,,73,72
10740,note_on,,1,0,17,,,,,,,,,,,,,,,,15,,76,72
10740,note_on,,0,0,17,,,,,,,,,,,,,,,,15,,67,72
10740,note_on,,1,0,13,,,,,,,,,,,,,,,,10,,73,72
10740,note_on,,1,0,8,,,,,,,,,,,,,,,,4,,76,56
10740,note_on,,1,0,9,,,,,,,,,,,,,,,,5,,73,72
10799,note_on,,119,0,7,,,,,,,,,,,,,,,,3,,69,0
10799,note_on,,0,0,17,,,,,,,,,,,,,,,,15,,67,0
10799,note_on,,0,0,17,,,,,,,,,,,,,,,,15,,76,0
10799,note_on,,0,0,17,,,,,,,,,,,,,,,,15,,73,0
10799,note_on,,59,0,17,,,,,,,,,,,,,,,,15,,61,0
10799,note_on,,239,0,11,,,,,,,,,,,,,,,,7,,61,0
10799,note_on,,59,0,5,,,,,,,,,,,,,,,,0,,73,0
10799,note_on,,119,0,15,,,,,,,,,,,,,,,,12,,73,0
10799,note_on,,119,0,14,,,,,,,,,,,,,,,,11,,69,0
10799,note_on,,59,0,8,,,,,,,,,,,,,,,,4,,76,0
10799,note_on,,59,0,9,,,,,,,,,,,,,,,,5,,73,0
10799,note_on,,119,0,10,,,,,,,,,,,,,,,,6,,69,0
10799,note_on,,59,0,13,,,,,,,,,,,,,,,,10,,73,0
10800,note_on,,1,0,8,,,,,,,,,,,,,,,,4,,74,56
10800,note_on,,0,0,17,,,,,,,,,,,,,,,,15,,62,72
10800,note_on,,0,0,17,,,,,,,,,,,,,,,,15,,66,72
10800,note_on,,0,0,17,,,,,,,,,,,,,,,,15,,71,72
10800,note_on,,1,0,17,,,,,,,,,,,,,,,,15,,74,72
10800,note_on,,1,0,15,,,,,,,,,,,,,,,,12,,71,72
10800,note_on,,1,0,13,,,,,,,,,,,,,,,,10,,74,72
10800,note_on,,1,0,14,,,,,,,,,,,,,,,,11,,66,72
10800,note_on,,1,0,11,,,,,,,,,,,,,,,,7,,59,72
10800,note_on,,1,0,5,,,,,,,,,,,,,,,,0,,74,72
10800,note_on,,1,0,10,,,,,,,,,,,,,,,,6,,66,72
10800,note_on,,1,0,7,,,,,,,,,,,,,,,,3,,78,56
10800,note_on,,1,0,9,,,,,,,,,,,,,,,,5,,74,72
10919,note_on,,119,0,14,,,,,,,,,,,,,,,,11,,66,0
10919,note_on,,359,0,16,,,,,,,,,,,,,,,,13,,57,0
10919,note_on,,119,0,9,,,,,,,,,,,,,,,,5,,74,0
10919,note_on,,359,0,6,,,,,,,,,,,,,,,,2,,57,0
10919,note_on,,0,0,17,,,,,,,,,,,,,,,,15,,66,0
10919,note_on,,0,0,17,,,,,,,,,,,,,,,,15,,62,0
10919,note_on,,0,0,17,,,,,,,,,,,,,,,,15,,71,0
10919,note_on,,0,0,17,,,,,,,,,,,,,,,,15,,74,0
10919,note_on,,119,0,17,,,,,,,,,,,,,,,,15,,57,0
10919,note_on,,119,0,10,,,,,,,,,,,,,,,,6,,66,0
10919,note_on,,359,0,12,,,,,,,,,,,,,,,,8,,57,0
10919,note_on,,119,0,7,,,,,,,,,,,,,,,,3,,78,0
10919,note_on,,119,0,8,,,,,,,,,,,,,,,,4,,74,0
10919,note_on,,119,0,5,,,,,,,,,,,,,,,,0,,74,0
10919,note_on,,119,0,13,,,,,,,,,,,,,,,,10,,74,0
10920,note_on,,1,0,10,,,,,,,,,,,,,,,,6,,67,72
10920,note_on,,1,0,16,,,,,,,,,,,,,,,,13,,55,72
10920,note_on,,0,0,17,,,,,,,,,,,,,,,,15,,71,72
10920,note_on,,0,0,17,,,,,,,,,,,,,,,,15,,59,72
10920,note_on,,1,0,9,,,,,,,,,,,,,,,,5,,76,72
10920,note_on,,0,0,17,,,,,,,,,,,,,,,,15,,67,72
10920,note_on,,1,0,8,,,,,,,,,,,,,,,,4,,76,56
10920,note_on,,1,0,14,,,,,,,,,,,,,,,,11,,67,72
10920,note_on,,1,0,7,,,,,,,,,,,,,,,,3,,79,56
10920,note_on,,0,0,17,,,,,,,,,,,,,,,,15,,76,72
10920,note_on,,1,0,5,,,,,,,,,,,,,,,,0,,76,72
10920,note_on,,1,0,13,,,,,,,,,,,,,,,,10,,76,72
10920,note_on,,1,0,6,,,,,,,,,,,,,,,,2,,55,72
10920,note_on,,1,0,17,,,,,,,,,,,,,,,,15,,55,72
10920,note_on,,1,0,12,,,,,,,,,,,,,,,,8,,55,72
10979,note_on,,59,0,7,,,,,,,,,,,,,,,,3,,79,0
10979,note_on,,59,0,8,,,,,,,,,,,,,,,,4,,76,0
10979,note_on,,59,0,9,,,,,,,,,,,,,,,,5,,76,0
10979,note_on,,59,0,13,,,,,,,,,,,,,,,,10,,76,0
10979,note_on,,59,0,5,,,,,,,,,,,,,,,,0,,76,0
10979,note_on,,0,0,17,,,,,,,,,,,,,,,,15,,67,0
10979,note_on,,59,0,17,,,,,,,,,,,,,,,,15,,76,0
10980,note_on,,1,0,9,,,,,,,,,,,,,,,,5,,74,72
10980,note_on,,1,0,17,,,,,,,,,,,,,,,,15,,74,72
10980,note_on,,1,0,13,,,,,,,,,,,,,,,,10,,86,72
10980,note_on,,1,0,5,,,,,,,,,,,,,,,,0,,74,72
10980,note_on,,0,0,17,,,,,,,,,,,,,,,,15,,66,72
10980,note_on,,1,0,7,,,,,,,,,,,,,,,,3,,78,56
10980,note_on,,1,0,8,,,,,,,,,,,,,,,,4,,74,56
11039,note_on,,239,0,11,,,,,,,,,,,,,,,,7,,59,0
11039,note_on,,0,0,17,,,,,,,,,,,,,,,,15,,74,0
11039,note_on,,0,0,17,,,,,,,,,,,,,,,,15,,66,0
11039,note_on,,0,0,17,,,,,,,,,,,,,,,,15,,59,0
11039,note_on,,59,0,13,,,,,,,,,,,,,,,,10,,86,0
11039,note_on,,59,0,7,,,,,,,,,,,,,,,,3,,78,0
11039,note_on,,59,0,9,,,,,,,,,,,,,,,,5,,74,0
11039,note_on,,239,0,15,,,,,,,,,,,,,,,,12,,71,0
11039,note_on,,59,0,17,,,,,,,,,,,,,,,,15,,71,0
11039,note_on,,119,0,14,,,,,,,,,,,,,,,,11,,67,0
11039,note_on,,119,0,10,,,,,,,,,,,,,,,,6,,67,0
11039,note_on,,59,0,8,,,,,,,,,,,,,,,,4,,74,0
11039,note_on,,59,0,5,,,,,,,,,,,,,,,,0,,74,0
11040,note_on,,1,0,11,,,,,,,,,,,,,,,,7,,64,72
11040,note_on,,1,0,14,,,,,,,,,,,,,,,,11,,69,72
11040,note_on,,1,0,8,,,,,,,,,,,,,,,,4,,69,56
11040,note_on,,1,0,17,,,,,,,,,,,,,,,,15,,73,72
11040,note_on,,1,0,13,,,,,,,,,,,,,,,,10,,85,72
11040,note_on,,1,0,15,,,,,,,,,,,,,,,,12,,64,72
11040,note_on,,0,0,17,,,,,,,,,,,,,,,,15,,61,72
11040,note_on,,1,0,5,,,,,,,,,,,,,,,,0,,73,72
11040,note_on,,0,0,17,,,,,,,,,,,,,,,,15,,69,72
11040,note_on,,0,0,17,,,,,,,,,,,,,,,,15,,64,72
11040,note_on,,1,0,7,,,,,,,,,,,,,,,,3,,76,56
11040,note_on,,1,0,10,,,,,,,,,,,,,,,,6,,69,72
11040,note_on,,1,0,9,,,,,,,,,,,,,,,,5,,73,72
11159,note_on,,239,0,12,,,,,,,,,,,,,,,,8,,55,0
11159,note_on,,119,0,13,,,,,,,,,,,,,,,,10,,85,0
11159,note_on,,119,0,15,,,,,,,,,,,,,,,,12,,64,0
11159,note_on,,239,0,6,,,,,,,,,,,,,,,,2,,55,0
11159,note_on,,119,0,5,,,,,,,,,,,,,,,,0,,73,0
11159,note_on,,239,0,16,,,,,,,,,,,,,,,,13,,55,0
11159,note_on,,119,0,7,,,,,,,,,,,,,,,,3,,76,0
11159,note_on,,0,0,17,,,,,,,,,,,,,,,,15,,69,0
11159,note_on,,119,0,17,,,,,,,,,,,,,,,,15,,55,0
11159,note_on,,0,0,17,,,,,,,,,,,,,,,,15,,73,0
11159,note_on,,0,0,17,,,,,,,,,,,,,,,,15,,61,0
11159,note_on,,119,0,11,,,,,,,,,,,,,,,,7,,64,0
11159,note_on,,0,0,17,,,,,,,,,,,,,,,,15,,64,0
11159,note_on,,119,0,9,,,,,,,,,,,,,,,,5,,73,0
11160,note_on,,1,0,7,,,,,,,,,,,,,,,,3,,74,56
11160,note_on,,1,0,12,,,,,,,,,,,,,,,,8,,54,72
11160,note_on,,1,0,15,,,,,,,,,,,,,,,,12,,62,72
11160,note_on,,0,0,17,,,,,,,,,,,,,,,,15,,57,72
11160,note_on,,1,0,13,,,,,,,,,,,,,,,,10,,86,72
11160,note_on,,1,0,6,,,,,,,,,,,,,,,,2,,54,72
11160,note_on,,0,0,17,,,,,,,,,,,,,,,,15,,62,72
11160,note_on,,1,0,9,,,,,,,,,,,,,,,,5,,74,72
11160,note_on,,1,0,5,,,,,,,,,,,,,,,,0,,74,72
11160,note_on,,1,0,17,,,,,,,,,,,,,,,,15,,54,72
11160,note_on,,1,0,11,,,,,,,,,,,,,,,,7,,62,72
11160,note_on,,0,0,17,,,,,,,,,,,,,,,,15,,69,72
11160,note_on,,0,0,17,,,,,,,,,,,,,,,,15,,74,72
11160,note_on,,1,0,16,,,,,,,,,,,,,,,,13,,54,72
11219,note_on,,179,0,8,,,,,,,,,,,,,,,,4,,69,0
11219,note_on,,179,0,14,,,,,,,,,,,,,,,,11,,69,0
11220,note_on,,1,0,8,,,,,,,,,,,,,,,,4,,69,56
11220,note_on,,1,0,14,,,,,,,,,,,,,,,,11,,81,72
11279,note_on,,0,0,17,,,,,,,,,,,,,,,,15,,57,0
11279,note_on,,59,0,14,,,,,,,,,,,,,,,,11,,81,0
11279,note_on,,0,0,17,,,,,,,,,,,,,,,,15,,74,0
11279,note_on,,119,0,17,,,,,,,,,,,,,,,,15,,54,0
11279,note_on,,119,0,6,,,,,,,,,,,,,,,,2,,54,0
11279,note_on,,0,0,17,,,,,,,,,,,,,,,,15,,69,0
11279,note_on,,0,0,17,,,,,,,,,,,,,,,,15,,62,0
11279,note_on,,239,0,10,,,,,,,,,,,,,,,,6,,69,0
11279,note_on,,119,0,12,,,,,,,,,,,,,,,,8,,54,0
11279,note_on,,119,0,15,,,,,,,,,,,,,,,,12,,62,0
11279,note_on,,119,0,7,,,,,,,,,,,,,,,,3,,74,0
11279,note_on,,119,0,11,,,,,,,,,,,,,,,,7,,62,0
11279,note_on,,119,0,16,,,,,,,,,,,,,,,,13,,54,0
11279,note_on,,59,0,8,,,,,,,,,,,,,,,,4,,69,0
11280,note_on,,1,0,8,,,,,,,,,,,,,,,,4,,76,56
11280,note_on,,0,0,17,,,,,,,,,,,,,,,,15,,71,72
11280,note_on,,1,0,7,,,,,,,,,,,,,,,,3,,79,56
11280,note_on,,0,0,17,,,,,,,,,,,,,,,,15,,55,72
11280,note_on,,1,0,11,,,,,,,,,,,,,,,,7,,64,72
11280,note_on,,1,0,12,,,,,,,,,,,,,,,,8,,52,72
11280,note_on,,1,0,16,,,,,,,,,,,,,,,,13,,52,72
11280,note_on,,0,0,17,,,,,,,,,,,,,,,,15,,74,72
11280,note_on,,1,0,17,,,,,,,,,,,,,,,,15,,52,72
11280,note_on,,0,0,17,,,,,,,,,,,,,,,,15,,79,72
11280,note_on,,1,0,6,,,,,,,,,,,,,,,,2,,52,72
11280,note_on,,1,0,15,,,,,,,,,,,,,,,,12,,64,72
11280,note_on,,1,0,14,,,,,,,,,,,,,,,,11,,79,72
11280,note_on,,1,0,10,,,,,,,,,,,,,,,,6,,67,72
11399,note_on,,239,0,13,,,,,,,,,,,,,,,,10,,86,0
11399,note_on,,119,0,17,,,,,,,,,,,,,,,,15,,74,0
11399,note_on,,239,0,9,,,,,,,,,,,,,,,,5,,74,0
11399,note_on,,239,0,5,,,,,,,,,,,,,,,,0,,74,0
11399,note_on,,0,0,17,,,,,,,,,,,,,,,,15,,71,0
11399,note_on,,0,0,17,,,,,,,,,,,,,,,,15,,55,0
11400,note_on,,1,0,17,,,,,,,,,,,,,,,,15,,73,72
11400,note_on,,0,0,17,,,,,,,,,,,,,,,,15,,67,72
11400,note_on,,1,0,13,,,,,,,,,,,,,,,,10,,85,72
11400,note_on,,1,0,5,,,,,,,,,,,,,,,,0,,73,72
11400,note_on,,1,0,9,,,,,,,,,,,,,,,,5,,73,72
11400,note_on,,0,0,17,,,,,,,,,,,,,,,,15,,64,72
11459,note_on,,179,0,10,,,,,,,,,,,,,,,,6,,67,0
11459,note_on,,179,0,16,,,,,,,,,,,,,,,,13,,52,0
11459,note_on,,179,0,12,,,,,,,,,,,,,,,,8,,52,0
11459,note_on,,179,0,11,,,,,,,,,,,,,,,,7,,64,0
11459,note_on,,179,0,8,,,,,,,,,,,,,,,,4,,76,0
11459,note_on,,179,0,6,,,,,,,,,,,,,,,,2,,52,0
11459,note_on,,179,0,14,,,,,,,,,,,,,,,,11,,79,0
11459,note_on,,59,0,17,,,,,,,,,,,,,,,,15,,52,0
11459,note_on,,179,0,15,,,,,,,,,,,,,,,,12,,64,0
11459,note_on,,179,0,7,,,,,,,,,,,,,,,,3,,79,0
11460,note_on,,1,0,17,,,,,,,,,,,,,,,,15,,52,72
11460,note_on,,1,0,15,,,,,,,,,,,,,,,,12,,64,72
11460,note_on,,1,0,7,,,,,,,,,,,,,,,,3,,79,56
11460,note_on,,1,0,8,,,,,,,,,,,,,,,,4,,76,56
11460,note_on,,1,0,10,,,,,,,,,,,,,,,,6,,67,72
11460,note_on,,1,0,11,,,,,,,,,,,,,,,,7,,64,72
11460,note_on,,1,0,16,,,,,,,,,,,,,,,,13,,52,72
11460,note_on,,1,0,12,,,,,,,,,,,,,,,,8,,52,72
11460,note_on,,1,0,6,,,,,,,,,,,,,,,,2,,52,72
11460,note_on,,1,0,14,,,,,,,,,,,,,,,,11,,79,72
11519,note_on,,0,0,17,,,,,,,,,,,,,,,,15,,67,0
11519,note_on,,0,0,17,,,,,,,,,,,,,,,,15,,73,0
11519,note_on,,59,0,17,,,,,,,,,,,,,,,,15,,79,0
11519,note_on,,59,0,8,,,,,,,,,,,,,,,,4,,76,0
11519,note_on,,119,0,13,,,,,,,,,,,,,,,,10,,85,0
11519,note_on,,59,0,12,,,,,,,,,,,,,,,,8,,52,0
11519,note_on,,59,0,11,,,,,,,,,,,,,,,,7,,64,0
11519,note_on,,59,0,15,,,,,,,,,,,,,,,,12,,64,0
11519,note_on,,59,0,7,,,,,,,,,,,,,,,,3,,79,0
11519,note_on,,119,0,9,,,,,,,,,,,,,,,,5,,73,0
11519,note_on,,0,0,17,,,,,,,,,,,,,,,,15,,64,0
11519,note_on,,0,0,17,,,,,,,,,,,,,,,,15,,52,0
11519,note_on,,59,0,14,,,,,,,,,,,,,,,,11,,79,0
11519,note_on,,59,0,10,,,,,,,,,,,,,,,,6,,67,0
11519,note_on,,59,0,6,,,,,,,,,,,,,,,,2,,52,0
11519,note_on,,59,0,16,,,,,,,,,,,,,,,,13,,52,0
11519,note_on,,119,0,5,,,,,,,,,,,,,,,,0,,73,0
11520,note_on,,1,0,9,,,,,,,,,,,,,,,,5,,74,72
11520,note_on,,1,0,14,,,,,,,,,,,,,,,,11,,78,72
11520,note_on,,1,0,6,,,,,,,,,,,,,,,,2,,50,72
11520,note_on,,1,0,16,,,,,,,,,,,,,,,,13,,50,72
11520,note_on,,1,0,15,,,,,,,,,,,,,,,,12,,69,72
11520,note_on,,1,0,8,,,,,,,,,,,,,,,,4,,69,56
11520,note_on,,1,0,7,,,,,,,,,,,,,,,,3,,78,56
11520,note_on,,0,0,17,,,,,,,,,,,,,,,,15,,57,72
11520,note_on,,1,0,12,,,,,,,,,,,,,,,,8,,50,72
11520,note_on,,1,0,5,,,,,,,,,,,,,,,,0,,74,72
11520,note_on,,0,0,17,,,,,,,,,,,,,,,,15,,69,72
11520,note_on,,0,0,17,,,,,,,,,,,,,,,,15,,74,72
11520,note_on,,0,0,17,,,,,,,,,,,,,,,,15,,78,72
11520,note_on,,1,0,17,,,,,,,,,,,,,,,,15,,50,72
11520,note_on,,1,0,13,,,,,,,,,,,,,,,,10,,86,72
11520,note_on,,1,0,10,,,,,,,,,,,,,,,,6,,66,72
11520,note_on,,1,0,11,,,,,,,,,,,,,,,,7,,57,72
11549,note_on,,29,0,13,,,,,,,,,,,,,,,,10,,86,0
11550,note_on,,1,0,13,,,,,,,,,,,,,,,,10,,81,72
11579,note_on,,29,0,13,,,,,,,,,,,,,,,,10,,81,0
11580,note_on,,1,0,13,,,,,,,,,,,,,,,,10,,83,72
11609,note_on,,29,0,13,,,,,,,,,,,,,,,,10,,83,0
11609,note_on,,89,0,14,,,,,,,,,,,,,,,,11,,78,0
11610,note_on,,1,0,13,,,,,,,,,,,,,,,,10,,85,72
11610,note_on,,1,0,14,,,,,,,,,,,,,,,,11,,76,72
11639,note_on,,29,0,13,,,,,,,,,,,,,,,,10,,85,0
11639,note_on,,29,0,14,,,,,,,,,,,,,,,,11,,76,0
11640,note_on,,1,0,14,,,,,,,,,,,,,,,,11,,78,72
11640,note_on,,1,0,13,,,,,,,,,,,,,,,,10,,86,72
11669,note_on,,29,0,14,,,,,,,,,,,,,,,,11,,78,0
11669,note_on,,29,0,13,,,,,,,,,,,,,,,,10,,86,0
11670,note_on,,1,0,14,,,,,,,,,,,,,,,,11,,69,72
11670,note_on,,1,0,13,,,,,,,,,,,,,,,,10,,78,72
11699,note_on,,29,0,13,,,,,,,,,,,,,,,,10,,78,0
11699,note_on,,29,0,14,,,,,,,,,,,,,,,,11,,69,0
11700,note_on,,1,0,13,,,,,,,,,,,,,,,,10,,79,72
11700,note_on,,1,0,14,,,,,,,,,,,,,,,,11,,71,72
11729,note_on,,29,0,13,,,,,,,,,,,,,,,,10,,79,0
11729,note_on,,29,0,14,,,,,,,,,,,,,,,,11,,71,0
11730,note_on,,1,0,14,,,,,,,,,,,,,,,,11,,73,72
11730,note_on,,1,0,13,,,,,,,,,,,,,,,,10,,76,72
11759,note_on,,0,0,17,,,,,,,,,,,,,,,,15,,57,0
11759,note_on,,0,0,17,,,,,,,,,,,,,,,,15,,69,0
11759,note_on,,239,0,9,,,,,,,,,,,,,,,,5,,74,0
11759,note_on,,0,0,17,,,,,,,,,,,,,,,,15,,74,0
11759,note_on,,239,0,16,,,,,,,,,,,,,,,,13,,50,0
11759,note_on,,239,0,15,,,,,,,,,,,,,,,,12,,69,0
11759,note_on,,29,0,13,,,,,,,,,,,,,,,,10,,76,0
11759,note_on,,239,0,17,,,,,,,,,,,,,,,,15,,50,0
11759,note_on,,239,0,6,,,,,,,,,,,,,,,,2,,50,0
11759,note_on,,239,0,12,,,,,,,,,,,,,,,,8,,50,0
11759,note_on,,239,0,10,,,,,,,,,,,,,,,,6,,66,0
11759,note_on,,239,0,11,,,,,,,,,,,,,,,,7,,57,0
11759,note_on,,239,0,5,,,,,,,,,,,,,,,,0,,74,0
11759,note_on,,239,0,7,,,,,,,,,,,,,,,,3,,78,0
11759,note_on,,29,0,14,,,,,,,,,,,,,,,,11,,73,0
11759,note_on,,0,0,17,,,,,,,,,,,,,,,,15,,78,0
11759,note_on,,239,0,8,,,,,,,,,,,,,,,,4,,69,0
11760,note_on,,1,0,13,,,,,,,,,,,,,,,,10,,78,72
11760,note_on,,1,0,14,,,,,,,,,,,,,,,,11,,74,72
11789,note_on,,29,0,13,,,,,,,,,,,,,,,,10,,78,0
11789,note_on,,29,0,14,,,,,,,,,,,,,,,,11,,74,0
11790,note_on,,1,0,14,,,,,,,,,,,,,,,,11,,73,72
11790,note_on,,1,0,13,,,,,,,,,,,,,,,,10,,69,72
11819,note_on,,29,0,13,,,,,,,,,,,,,,,,10,,69,0
11819,note_on,,29,0,14,,,,,,,,,,,,,,,,11,,73,0
11820,note_on,,1,0,14,,,,,,,,,,,,,,,,11,,74,72
11820,note_on,,1,0,13,,,,,,,,,,,,,,,,10,,71,72
11849,note_on,,29,0,13,,,,,,,,,,,,,,,,10,,71,0
11849,note_on,,29,0,14,,,,,,,,,,,,,,,,11,,74,0
11850,note_on,,1,0,13,,,,,,,,,,,,,,,,10,,73,72
11850,note_on,,1,0,14,,,,,,,,,,,,,,,,11,,76,72
11879,note_on,,29,0,14,,,,,,,,,,,,,,,,11,,76,0
11879,note_on,,29,0,13,,,,,,,,,,,,,,,,10,,73,0
11880,note_on,,1,0,13,,,,,,,,,,,,,,,,10,,74,72
11880,note_on,,1,0,14,,,,,,,,,,,,,,,,11,,78,72
11909,note_on,,29,0,14,,,,,,,,,,,,,,,,11,,78,0
11909,note_on,,29,0,13,,,,,,,,,,,,,,,,10,,74,0
11910,note_on,,1,0,13,,,,,,,,,,,,,,,,10,,76,72
11910,note_on,,1,0,14,,,,,,,,,,,,,,,,11,,73,72
11939,note_on,,29,0,14,,,,,,,,,,,,,,,,11,,73,0
11939,note_on,,29,0,13,,,,,,,,,,,,,,,,10,,76,0
11940,note_on,,1,0,14,,,,,,,,,,,,,,,,11,,74,72
11940,note_on,,1,0,13,,,,,,,,,,,,,,,,10,,78,72
11969,note_on,,29,0,14,,,,,,,,,,,,,,,,11,,74,0
11969,note_on,,29,0,13,,,,,,,,,,,,,,,,10,,78,0
11970,note_on,,1,0,13,,,,,,,,,,,,,,,,10,,79,72
11970,note_on,,1,0,14,,,,,,,,,,,,,,,,11,,76,72
11999,note_on,,29,0,13,,,,,,,,,,,,,,,,10,,79,0
11999,note_on,,29,0,14,,,,,,,,,,,,,,,,11,,76,0
12000,note_on,,0,0,17,,,,,,,,,,,,,,,,15,,78,72
12000,note_on,,241,0,9,,,,,,,,,,,,,,,,5,,78,72
12000,note_on,,241,0,6,,,,,,,,,,,,,,,,2,,62,72
12000,note_on,,1,0,14,,,,,,,,,,,,,,,,11,,78,72
12000,note_on,,241,0,12,,,,,,,,,,,,,,,,8,,62,72
12000,note_on,,241,0,10,,,,,,,,,,,,,,,,6,,69,72
12000,note_on,,241,0,7,,,,,,,,,,,,,,,,3,,78,56
12000,note_on,,241,0,17,,,,,,,,,,,,,,,,15,,62,72
12000,note_on,,241,0,11,,,,,,,,,,,,,,,,7,,66,72
12000,note_on,,1,0,13,,,,,,,,,,,,,,,,10,,81,72
12000,note_on,,241,0,16,,,,,,,,,,,,,,,,13,,62,72
12000,note_on,,0,0,17,,,,,,,,,,,,,,,,15,,66,72
12000,note_on,,0,0,17,,,,,,,,,,,,,,,,15,,69,72
12000,note_on,,241,0,15,,,,,,,,,,,,,,,,12,,69,72
12000,note_on,,241,0,8,,,,,,,,,,,,,,,,4,,69,56
12000,note_on,,0,0,17,,,,,,,,,,,,,,,,15,,74,72
12000,note_on,,241,0,5,,,,,,,,,,,,,,,,0,,78,72
12119,note_on,,119,0,13,,,,,,,,,,,,,,,,10,,81,0
12119,note_on,,119,0,6,,,,,,,,,,,,,,,,2,,62,0
12119,note_on,,119,0,9,,,,,,,,,,,,,,,,5,,78,0
12119,note_on,,119,0,5,,,,,,,,,,,,,,,,0,,78,0
12119,note_on,,119,0,15,,,,,,,,,,,,,,,,12,,69,0
12119,note_on,,119,0,14,,,,,,,,,,,,,,,,11,,78,0
12119,note_on,,119,0,12,,,,,,,,,,,,,,,,8,,62,0
12119,note_on,,0,0,17,,,,,,,,,,,,,,,,15,,66,0
12119,note_on,,119,0,7,,,,,,,,,,,,,,,,3,,78,0
12119,note_on,,0,0,17,,,,,,,,,,,,,,,,15,,69,0
12119,note_on,,119,0,11,,,,,,,,,,,,,,,,7,,66,0
12119,note_on,,0,0,17,,,,,,,,,,,,,,,,15,,74,0
12119,note_on,,119,0,16,,,,,,,,,,,,,,,,13,,62,0
12119,note_on,,119,0,10,,,,,,,,,,,,,,,,6,,69,0
12119,note_on,,0,0,17,,,,,,,,,,,,,,,,15,,78,0
12119,note_on,,119,0,17,,,,,,,,,,,,,,,,15,,62,0
12119,note_on,,119,0,8,,,,,,,,,,,,,,,,4,,69,0
12120,note_on,,0,0,17,,,,,,,,,,,,,,,,15,,81,72
12120,note_on,,1,0,17,,,,,,,,,,,,,,,,15,,61,72
12120,note_on,,1,0,8,,,,,,,,,,,,,,,,4,,69,56
12120,note_on,,1,0,15,,,,,,,,,,,,,,,,12,,69,72
12120,note_on,,0,0,17,,,,,,,,,,,,,,,,15,,69,72
12120,note_on,,1,0,13,,,,,,,,,,,,,,,,10,,81,72
12120,note_on,,1,0,16,,,,,,,,,,,,,,,,13,,61,72
12120,note_on,,1,0,11,,,,,,,,,,,,,,,,7,,66,72
12120,note_on,,1,0,7,,,,,,,,,,,,,,,,3,,76,56
12120,note_on,,1,0,12,,,,,,,,,,,,,,,,8,,61,72
12120,note_on,,1,0,5,,,,,,,,,,,,,,,,0,,76,72
12120,note_on,,1,0,10,,,,,,,,,,,,,,,,6,,69,72
12120,note_on,,0,0,17,,,,,,,,,,,,,,,,15,,64,72
12120,note_on,,1,0,14,,,,,,,,,,,,,,,,11,,76,72
12120,note_on,,1,0,6,,,,,,,,,,,,,,,,2,,61,72
12120,note_on,,1,0,9,,,,,,,,,,,,,,,,5,,76,72
12209,note_on,,0,0,17,,,,,,,,,,,,,,,,15,,81,0
12209,note_on,,89,0,17,,,,,,,,,,,,,,,,15,,61,0
12209,note_on,,89,0,13,,,,,,,,,,,,,,,,10,,81,0
12209,note_on,,89,0,9,,,,,,,,,,,,,,,,5,,76,0
12209,note_on,,0,0,17,,,,,,,,,,,,,,,,15,,64,0
12209,note_on,,89,0,8,,,,,,,,,,,,,,,,4,,69,0
12209,note_on,,89,0,14,,,,,,,,,,,,,,,,11,,76,0
12209,note_on,,89,0,16,,,,,,,,,,,,,,,,13,,61,0
12209,note_on,,89,0,11,,,,,,,,,,,,,,,,7,,66,0
12209,note_on,,89,0,10,,,,,,,,,,,,,,,,6,,69,0
12209,note_on,,0,0,17,,,,,,,,,,,,,,,,15,,69,0
12209,note_on,,89,0,6,,,,,,,,,,,,,,,,2,,61,0
12209,note_on,,89,0,15,,,,,,,,,,,,,,,,12,,69,0
12209,note_on,,89,0,5,,,,,,,,,,,,,,,,0,,76,0
12209,note_on,,89,0,12,,,,,,,,,,,,,,,,8,,61,0
12209,note_on,,89,0,7,,,,,,,,,,,,,,,,3,,76,0
12210,note_on,,1,0,11,,,,,,,,,,,,,,,,7,,67,72
12210,note_on,,1,0,5,,,,,,,,,,,,,,,,0,,74,72
12210,note_on,,1,0,15,,,,,,,,,,,,,,,,12,,71,72
12210,note_on,,1,0,14,,,,,,,,,,,,,,,,11,,74,72
12210,note_on,,1,0,12,,,,,,,,,,,,,,,,8,,59,72
12210,note_on,,1,0,16,,,,,,,,,,,,,,,,13,,59,72
12210,note_on,,0,0,17,,,,,,,,,,,,,,,,15,,74,72
12210,note_on,,1,0,9,,,,,,,,,,,,,,,,5,,74,72
12210,note_on,,1,0,7,,,,,,,,,,,,,,,,3,,74,56
12210,note_on,,1,0,17,,,,,,,,,,,,,,,,15,,59,72
12210,note_on,,0,0,17,,,,,,,,,,,,,,,,15,,71,72
12210,note_on,,1,0,13,,,,,,,,,,,,,,,,10,,86,72
12210,note_on,,1,0,6,,,,,,,,,,,,,,,,2,,59,72
12210,note_on,,1,0,10,,,,,,,,,,,,,,,,6,,71,72
12210,note_on,,1,0,8,,,,,,,,,,,,,,,,4,,74,56
12210,note_on,,0,0,17,,,,,,,,,,,,,,,,15,,62,72
12239,note_on,,29,0,14,,,,,,,,,,,,,,,,11,,74,0
12239,note_on,,29,0,16,,,,,,,,,,,,,,,,13,,59,0
12239,note_on,,29,0,9,,,,,,,,,,,,,,,,5,,74,0
12239,note_on,,0,0,17,,,,,,,,,,,,,,,,15,,62,0
12239,note_on,,0,0,17,,,,,,,,,,,,,,,,15,,71,0
12239,note_on,,29,0,8,,,,,,,,,,,,,,,,4,,74,0
12239,note_on,,29,0,11,,,,,,,,,,,,,,,,7,,67,0
12239,note_on,,29,0,5,,,,,,,,,,,,,,,,0,,74,0
12239,note_on,,29,0,17,,,,,,,,,,,,,,,,15,,59,0
12239,note_on,,29,0,7,,,,,,,,,,,,,,,,3,,74,0
12239,note_on,,29,0,12,,,,,,,,,,,,,,,,8,,59,0
12239,note_on,,29,0,6,,,,,,,,,,,,,,,,2,,59,0
12239,note_on,,0,0,17,,,,,,,,,,,,,,,,15,,74,0
12239,note_on,,29,0,15,,,,,,,,,,,,,,,,12,,71,0
12239,note_on,,29,0,10,,,,,,,,,,,,,,,,6,,71,0
12239,note_on,,29,0,13,,,,,,,,,,,,,,,,10,,86,0
12240,note_on,,1,0,10,,,,,,,,,,,,,,,,6,,64,72
12240,note_on,,1,0,12,,,,,,,,,,,,,,,,8,,57,72
12240,note_on,,1,0,11,,,,,,,,,,,,,,,,7,,69,72
12240,note_on,,1,0,5,,,,,,,,,,,,,,,,0,,73,72
12240,note_on,,1,0,7,,,,,,,,,,,,,,,,3,,81,56
12240,note_on,,1,0,15,,,,,,,,,,,,,,,,12,,64,72
12240,note_on,,1,0,9,,,,,,,,,,,,,,,,5,,73,72
12240,note_on,,1,0,17,,,,,,,,,,,,,,,,15,,57,72
12240,note_on,,1,0,6,,,,,,,,,,,,,,,,2,,57,72
12240,note_on,,1,0,16,,,,,,,,,,,,,,,,13,,57,72
12240,note_on,,1,0,13,,,,,,,,,,,,,,,,10,,85,72
12240,note_on,,0,0,17,,,,,,,,,,,,,,,,15,,76,72
12240,note_on,,0,0,17,,,,,,,,,,,,,,,,15,,73,72
12240,note_on,,1,0,14,,,,,,,,,,,,,,,,11,,76,72
12240,note_on,,0,0,17,,,,,,,,,,,,,,,,15,,69,72
12240,note_on,,1,0,8,,,,,,,,,,,,,,,,4,,76,56
12269,note_on,,29,0,14,,,,,,,,,,,,,,,,11,,76,0
12269,note_on,,29,0,13,,,,,,,,,,,,,,,,10,,85,0
12270,note_on,,1,0,13,,,,,,,,,,,,,,,,10,,86,72
12270,note_on,,1,0,14,,,,,,,,,,,,,,,,11,,78,72
12299,note_on,,29,0,13,,,,,,,,,,,,,,,,10,,86,0
12299,note_on,,29,0,14,,,,,,,,,,,,,,,,11,,78,0
12300,note_on,,1,0,13,,,,,,,,,,,,,,,,10,,85,72
12300,note_on,,1,0,14,,,,,,,,,,,,,,,,11,,76,72
12329,note_on,,29,0,13,,,,,,,,,,,,,,,,10,,85,0
12329,note_on,,29,0,14,,,,,,,,,,,,,,,,11,,76,0
12330,note_on,,1,0,13,,,,,,,,,,,,,,,,10,,83,72
12330,note_on,,1,0,14,,,,,,,,,,,,,,,,11,,74,72
12359,note_on,,119,0,5,,,,,,,,,,,,,,,,0,,73,0
12359,note_on,,119,0,6,,,,,,,,,,,,,,,,2,,57,0
12359,note_on,,0,0,17,,,,,,,,,,,,,,,,15,,73,0
12359,note_on,,119,0,12,,,,,,,,,,,,,,,,8,,57,0
12359,note_on,,119,0,11,,,,,,,,,,,,,,,,7,,69,0
12359,note_on,,119,0,7,,,,,,,,,,,,,,,,3,,81,0
12359,note_on,,119,0,15,,,,,,,,,,,,,,,,12,,64,0
12359,note_on,,119,0,16,,,,,,,,,,,,,,,,13,,57,0
12359,note_on,,119,0,9,,,,,,,,,,,,,,,,5,,73,0
12359,note_on,,119,0,10,,,,,,,,,,,,,,,,6,,64,0
12359,note_on,,119,0,8,,,,,,,,,,,,,,,,4,,76,0
12359,note_on,,29,0,14,,,,,,,,,,,,,,,,11,,74,0
12359,note_on,,0,0,17,,,,,,,,,,,,,,,,15,,69,0
12359,note_on,,0,0,17,,,,,,,,,,,,,,,,15,,76,0
12359,note_on,,119,0,17,,,,,,,,,,,,,,,,15,,57,0
12359,note_on,,29,0,13,,,,,,,,,,,,,,,,10,,83,0
12360,note_on,,1,0,13,,,,,,,,,,,,,,,,10,,81,72
12360,note_on,,1,0,14,,,,,,,,,,,,,,,,11,,73,72
12389,note_on,,29,0,13,,,,,,,,,,,,,,,,10,,81,0
12389,note_on,,29,0,14,,,,,,,,,,,,,,,,11,,73,0
12390,note_on,,1,0,13,,,,,,,,,,,,,,,,10,,79,72
12390,note_on,,1,0,14,,,,,,,,,,,,,,,,11,,76,72
12419,note_on,,29,0,13,,,,,,,,,,,,,,,,10,,79,0
12419,note_on,,29,0,14,,,,,,,,,,,,,,,,11,,76,0
12420,note_on,,1,0,13,,,,,,,,,,,,,,,,10,,78,72
12420,note_on,,1,0,14,,,,,,,,,,,,,,,,11,,74,72
12449,note_on,,29,0,13,,,,,,,,,,,,,,,,10,,78,0
12449,note_on,,29,0,14,,,,,,,,,,,,,,,,11,,74,0
12450,note_on,,1,0,13,,,,,,,,,,,,,,,,10,,76,72
12450,note_on,,1,0,14,,,,,,,,,,,,,,,,11,,73,72
12479,note_on,,29,0,14,,,,,,,,,,,,,,,,11,,73,0
12479,note_on,,29,0,13,,,,,,,,,,,,,,,,10,,76,0
12480,note_on,,121,0,11,,,,,,,,,,,,,,,,7,,66,72
12480,note_on,,1,0,13,,,,,,,,,,,,,,,,10,,74,72
12480,note_on,,121,0,8,,,,,,,,,,,,,,,,4,,74,56
12480,note_on,,121,0,15,,,,,,,,,,,,,,,,12,,71,72
12480,note_on,,121,0,5,,,,,,,,,,,,,,,,0,,74,72
12480,note_on,,121,0,6,,,,,,,,,,,,,,,,2,,59,72
12480,note_on,,0,0,17,,,,,,,,,,,,,,,,15,,62,72
12480,note_on,,0,0,17,,,,,,,,,,,,,,,,15,,66,72
12480,note_on,,0,0,17,,,,,,,,,,,,,,,,15,,74,72
12480,note_on,,121,0,17,,,,,,,,,,,,,,,,15,,59,72
12480,note_on,,121,0,12,,,,,,,,,,,,,,,,8,,59,72
12480,note_on,,121,0,7,,,,,,,,,,,,,,,,3,,78,56
12480,note_on,,121,0,10,,,,,,,,,,,,,,,,6,,62,72
12480,note_on,,121,0,9,,,,,,,,,,,,,,,,5,,74,72
12480,note_on,,0,0,17,,,,,,,,,,,,,,,,15,,71,72
12480,note_on,,121,0,16,,,,,,,,,,,,,,,,13,,59,72
12480,note_on,,1,0,14,,,,,,,,,,,,,,,,11,,71,72
12509,note_on,,29,0,13,,,,,,,,,,,,,,,,10,,74,0
12509,note_on,,29,0,14,,,,,,,,,,,,,,,,11,,71,0
12510,note_on,,1,0,14,,,,,,,,,,,,,,,,11,,69,72
12510,note_on,,1,0,13,,,,,,,,,,,,,,,,10,,73,72
12539,note_on,,29,0,14,,,,,,,,,,,,,,,,11,,69,0
12539,note_on,,29,0,13,,,,,,,,,,,,,,,,10,,73,0
12540,note_on,,1,0,14,,,,,,,,,,,,,,,,11,,71,72
12540,note_on,,1,0,13,,,,,,,,,,,,,,,,10,,74,72
12569,note_on,,29,0,13,,,,,,,,,,,,,,,,10,,74,0
12569,note_on,,29,0,14,,,,,,,,,,,,,,,,11,,71,0
12570,note_on,,1,0,13,,,,,,,,,,,,,,,,10,,76,72
12570,note_on,,1,0,14,,,,,,,,,,,,,,,,11,,73,72
12599,note_on,,29,0,13,,,,,,,,,,,,,,,,10,,76,0
12599,note_on,,119,0,9,,,,,,,,,,,,,,,,5,,74,0
12599,note_on,,119,0,11,,,,,,,,,,,,,,,,7,,66,0
12599,note_on,,119,0,10,,,,,,,,,,,,,,,,6,,62,0
12599,note_on,,119,0,8,,,,,,,,,,,,,,,,4,,74,0
12599,note_on,,119,0,12,,,,,,,,,,,,,,,,8,,59,0
12599,note_on,,0,0,17,,,,,,,,,,,,,,,,15,,62,0
12599,note_on,,0,0,17,,,,,,,,,,,,,,,,15,,71,0
12599,note_on,,0,0,17,,,,,,,,,,,,,,,,15,,74,0
12599,note_on,,0,0,17,,,,,,,,,,,,,,,,15,,66,0
12599,note_on,,119,0,7,,,,,,,,,,,,,,,,3,,78,0
12599,note_on,,119,0,5,,,,,,,,,,,,,,,,0,,74,0
12599,note_on,,119,0,6,,,,,,,,,,,,,,,,2,,59,0
12599,note_on,,119,0,16,,,,,,,,,,,,,,,,13,,59,0
12599,note_on,,119,0,17,,,,,,,,,,,,,,,,15,,59,0
12599,note_on,,29,0,14,,,,,,,,,,,,,,,,11,,73,0
12599,note_on,,119,0,15,,,,,,,,,,,,,,,,12,,71,0
12600,note_on,,1,0,13,,,,,,,,,,,,,,,,10,,78,72
12600,note_on,,1,0,16,,,,,,,,,,,,,,,,13,,57,72
12600,note_on,,1,0,8,,,,,,,,,,,,,,,,4,,74,56
12600,note_on,,1,0,11,,,,,,,,,,,,,,,,7,,66,72
12600,note_on,,1,0,6,,,,,,,,,,,,,,,,2,,57,72
12600,note_on,,0,0,17,,,,,,,,,,,,,,,,15,,61,72
12600,note_on,,0,0,17,,,,,,,,,,,,,,,,15,,74,72
12600,note_on,,0,0,17,,,,,,,,,,,,,,,,15,,71,72
12600,note_on,,1,0,9,,,,,,,,,,,,,,,,5,,73,72
12600,note_on,,1,0,7,,,,,,,,,,,,,,,,3,,78,56
12600,note_on,,1,0,15,,,,,,,,,,,,,,,,12,,71,72
12600,note_on,,0,0,17,,,,,,,,,,,,,,,,15,,66,72
12600,note_on,,1,0,12,,,,,,,,,,,,,,,,8,,57,72
12600,note_on,,1,0,10,,,,,,,,,,,,,,,,6,,62,72
12600,note_on,,1,0,14,,,,,,,,,,,,,,,,11,,74,72
12600,note_on,,1,0,5,,,,,,,,,,,,,,,,0,,73,72
12600,note_on,,1,0,17,,,,,,,,,,,,,,,,15,,57,72
12629,note_on,,29,0,13,,,,,,,,,,,,,,,,10,,78,0
12629,note_on,,29,0,14,,,,,,,,,,,,,,,,11,,74,0
12630,note_on,,1,0,13,,,,,,,,,,,,,,,,10,,76,72
12630,note_on,,1,0,14,,,,,,,,,,,,,,,,11,,73,72
12659,note_on,,29,0,13,,,,,,,,,,,,,,,,10,,76,0
12659,note_on,,29,0,14,,,,,,,,,,,,,,,,11,,73,0
12660,note_on,,1,0,14,,,,,,,,,,,,,,,,11,,74,72
12660,note_on,,1,0,13,,,,,,,,,,,,,,,,10,,78,72
12689,note_on,,89,0,11,,,,,,,,,,,,,,,,7,,66,0
12689,note_on,,0,0,17,,,,,,,,,,,,,,,,15,,66,0
12689,note_on,,0,0,17,,,,,,,,,,,,,,,,15,,61,0
12689,note_on,,0,0,17,,,,,,,,,,,,,,,,15,,71,0
12689,note_on,,89,0,15,,,,,,,,,,,,,,,,12,,71,0
12689,note_on,,89,0,9,,,,,,,,,,,,,,,,5,,73,0
12689,note_on,,89,0,12,,,,,,,,,,,,,,,,8,,57,0
12689,note_on,,0,0,17,,,,,,,,,,,,,,,,15,,74,0
12689,note_on,,89,0,10,,,,,,,,,,,,,,,,6,,62,0
12689,note_on,,89,0,6,,,,,,,,,,,,,,,,2,,57,0
12689,note_on,,89,0,17,,,,,,,,,,,,,,,,15,,57,0
12689,note_on,,89,0,7,,,,,,,,,,,,,,,,3,,78,0
12689,note_on,,89,0,5,,,,,,,,,,,,,,,,0,,73,0
12689,note_on,,89,0,8,,,,,,,,,,,,,,,,4,,74,0
12689,note_on,,29,0,13,,,,,,,,,,,,,,,,10,,78,0
12689,note_on,,29,0,14,,,,,,,,,,,,,,,,11,,74,0
12689,note_on,,89,0,16,,,,,,,,,,,,,,,,13,,57,0
12690,note_on,,1,0,12,,,,,,,,,,,,,,,,8,,55,72
12690,note_on,,1,0,17,,,,,,,,,,,,,,,,15,,55,72
12690,note_on,,0,0,17,,,,,,,,,,,,,,,,15,,76,72
12690,note_on,,0,0,17,,,,,,,,,,,,,,,,15,,71,72
12690,note_on,,1,0,5,,,,,,,,,,,,,,,,0,,71,72
12690,note_on,,1,0,9,,,,,,,,,,,,,,,,5,,71,72
12690,note_on,,1,0,6,,,,,,,,,,,,,,,,2,,55,72
12690,note_on,,1,0,10,,,,,,,,,,,,,,,,6,,64,72
12690,note_on,,1,0,16,,,,,,,,,,,,,,,,13,,55,72
12690,note_on,,1,0,11,,,,,,,,,,,,,,,,7,,67,72
12690,note_on,,1,0,15,,,,,,,,,,,,,,,,12,,71,72
12690,note_on,,0,0,17,,,,,,,,,,,,,,,,15,,67,72
12690,note_on,,0,0,17,,,,,,,,,,,,,,,,15,,59,72
12690,note_on,,1,0,13,,,,,,,,,,,,,,,,10,,79,72
12690,note_on,,1,0,7,,,,,,,,,,,,,,,,3,,79,56
12690,note_on,,1,0,8,,,,,,,,,,,,,,,,4,,74,56
12690,note_on,,1,0,14,,,,,,,,,,,,,,,,11,,76,72
12719,note_on,,29,0,17,,,,,,,,,,,,,,,,15,,55,0
12719,note_on,,0,0,17,,,,,,,,,,,,,,,,15,,59,0
12719,note_on,,0,0,17,,,,,,,,,,,,,,,,15,,67,0
12719,note_on,,0,0,17,,,,,,,,,,,,,,,,15,,71,0
12719,note_on,,0,0,17,,,,,,,,,,,,,,,,15,,76,0
12719,note_on,,29,0,8,,,,,,,,,,,,,,,,4,,74,0
12719,note_on,,29,0,7,,,,,,,,,,,,,,,,3,,79,0
12719,note_on,,29,0,6,,,,,,,,,,,,,,,,2,,55,0
12719,note_on,,29,0,15,,,,,,,,,,,,,,,,12,,71,0
12719,note_on,,29,0,11,,,,,,,,,,,,,,,,7,,67,0
12719,note_on,,29,0,16,,,,,,,,,,,,,,,,13,,55,0
12719,note_on,,29,0,9,,,,,,,,,,,,,,,,5,,71,0
12719,note_on,,29,0,10,,,,,,,,,,,,,,,,6,,64,0
12719,note_on,,29,0,14,,,,,,,,,,,,,,,,11,,76,0
12719,note_on,,29,0,5,,,,,,,,,,,,,,,,0,,71,0
12719,note_on,,29,0,13,,,,,,,,,,,,,,,,10,,79,0
12719,note_on,,29,0,12,,,,,,,,,,,,,,,,8,,55,0
12720,note_on,,1,0,6,,,,,,,,,,,,,,,,2,,54,72
12720,note_on,,1,0,8,,,,,,,,,,,,,,,,4,,74,56
12720,note_on,,1,0,12,,,,,,,,,,,,,,,,8,,54,72
12720,note_on,,1,0,13,,,,,,,,,,,,,,,,10,,81,72
12720,note_on,,1,0,14,,,,,,,,,,,,,,,,11,,78,72
12720,note_on,,1,0,17,,,,,,,,,,,,,,,,15,,54,72
12720,note_on,,1,0,9,,,,,,,,,,,,,,,,5,,69,72
12720,note_on,,1,0,11,,,,,,,,,,,,,,,,7,,62,72
12720,note_on,,0,0,17,,,,,,,,,,,,,,,,15,,74,72
12720,note_on,,1,0,15,,,,,,,,,,,,,,,,12,,62,72
12720,note_on,,0,0,17,,,,,,,,,,,,,,,,15,,69,72
12720,note_on,,0,0,17,,,,,,,,,,,,,,,,15,,57,72
12720,note_on,,1,0,16,,,,,,,,,,,,,,,,13,,54,72
12720,note_on,,1,0,5,,,,,,,,,,,,,,,,0,,69,72
12720,note_on,,1,0,10,,,,,,,,,,,,,,,,6,,66,72
12720,note_on,,0,0,17,,,,,,,,,,,,,,,,15,,78,72
12720,note_on,,1,0,7,,,,,,,,,,,,,,,,3,,81,56
12749,note_on,,29,0,14,,,,,,,,,,,,,,,,11,,78,0
12749,note_on,,29,0,13,,,,,,,,,,,,,,,,10,,81,0
12750,note_on,,1,0,14,,,,,,,,,,,,,,,,11,,76,72
12750,note_on,,1,0,13,,,,,,,,,,,,,,,,10,,79,72
12779,note_on,,29,0,14,,,,,,,,,,,,,,,,11,,76,0
12779,note_on,,29,0,13,,,,,,,,,,,,,,,,10,,79,0
12780,note_on,,1,0,14,,,,,,,,,,,,,,,,11,,74,72
12780,note_on,,1,0,13,,,,,,,,,,,,,,,,10,,78,72
12809,note_on,,29,0,13,,,,,,,,,,,,,,,,10,,78,0
12809,note_on,,29,0,14,,,,,,,,,,,,,,,,11,,74,0
12810,note_on,,1,0,13,,,,,,,,,,,,,,,,10,,79,72
12810,note_on,,1,0,14,,,,,,,,,,,,,,,,11,,76,72
12839,note_on,,119,0,11,,,,,,,,,,,,,,,,7,,62,0
12839,note_on,,119,0,12,,,,,,,,,,,,,,,,8,,54,0
12839,note_on,,29,0,14,,,,,,,,,,,,,,,,11,,76,0
12839,note_on,,119,0,17,,,,,,,,,,,,,,,,15,,54,0
12839,note_on,,119,0,15,,,,,,,,,,,,,,,,12,,62,0
12839,note_on,,119,0,16,,,,,,,,,,,,,,,,13,,54,0
12839,note_on,,0,0,17,,,,,,,,,,,,,,,,15,,57,0
12839,note_on,,0,0,17,,,,,,,,,,,,,,,,15,,69,0
12839,note_on,,0,0,17,,,,,,,,,,,,,,,,15,,74,0
12839,note_on,,0,0,17,,,,,,,,,,,,,,,,15,,78,0
12839,note_on,,119,0,10,,,,,,,,,,,,,,,,6,,66,0
12839,note_on,,119,0,7,,,,,,,,,,,,,,,,3,,81,0
12839,note_on,,119,0,9,,,,,,,,,,,,,,,,5,,69,0
12839,note_on,,119,0,8,,,,,,,,,,,,,,,,4,,74,0
12839,note_on,,29,0,13,,,,,,,,,,,,,,,,10,,79,0
12839,note_on,,119,0,5,,,,,,,,,,,,,,,,0,,69,0
12839,note_on,,119,0,6,,,,,,,,,,,,,,,,2,,54,0
12840,note_on,,1,0,16,,,,,,,,,,,,,,,,13,,54,72
12840,note_on,,0,0,17,,,,,,,,,,,,,,,,15,,57,72
12840,note_on,,0,0,17,,,,,,,,,,,,,,,,15,,62,72
12840,note_on,,1,0,13,,,,,,,,,,,,,,,,10,,81,72
12840,note_on,,0,0,17,,,,,,,,,,,,,,,,15,,69,72
12840,note_on,,0,0,17,,,,,,,,,,,,,,,,15,,74,72
12840,note_on,,1,0,17,,,,,,,,,,,,,,,,15,,54,72
12840,note_on,,1,0,15,,,,,,,,,,,,,,,,12,,74,72
12840,note_on,,1,0,6,,,,,,,,,,,,,,,,2,,54,72
12840,note_on,,1,0,9,,,,,,,,,,,,,,,,5,,74,72
12840,note_on,,1,0,12,,,,,,,,,,,,,,,,8,,54,72
12840,note_on,,1,0,10,,,,,,,,,,,,,,,,6,,69,72
12840,note_on,,1,0,5,,,,,,,,,,,,,,,,0,,74,72
12840,note_on,,1,0,7,,,,,,,,,,,,,,,,3,,81,56
12840,note_on,,1,0,8,,,,,,,,,,,,,,,,4,,78,56
12840,note_on,,1,0,14,,,,,,,,,,,,,,,,11,,78,72
12840,note_on,,1,0,11,,,,,,,,,,,,,,,,7,,62,72
12869,note_on,,29,0,13,,,,,,,,,,,,,,,,10,,81,0
12869,note_on,,29,0,14,,,,,,,,,,,,,,,,11,,78,0
12870,note_on,,1,0,14,,,,,,,,,,,,,,,,11,,74,72
12870,note_on,,1,0,13,,,,,,,,,,,,,,,,10,,78,72
12899,note_on,,59,0,6,,,,,,,,,,,,,,,,2,,54,0
12899,note_on,,59,0,11,,,,,,,,,,,,,,,,7,,62,0
12899,note_on,,59,0,17,,,,,,,,,,,,,,,,15,,54,0
12899,note_on,,0,0,17,,,,,,,,,,,,,,,,15,,74,0
12899,note_on,,29,0,13,,,,,,,,,,,,,,,,10,,78,0
12899,note_on,,0,0,17,,,,,,,,,,,,,,,,15,,62,0
12899,note_on,,59,0,10,,,,,,,,,,,,,,,,6,,69,0
12899,note_on,,29,0,14,,,,,,,,,,,,,,,,11,,74,0
12899,note_on,,59,0,8,,,,,,,,,,,,,,,,4,,78,0
12899,note_on,,59,0,5,,,,,,,,,,,,,,,,0,,74,0
12899,note_on,,0,0,17,,,,,,,,,,,,,,,,15,,69,0
12899,note_on,,59,0,12,,,,,,,,,,,,,,,,8,,54,0
12899,note_on,,59,0,9,,,,,,,,,,,,,,,,5,,74,0
12899,note_on,,59,0,16,,,,,,,,,,,,,,,,13,,54,0
12899,note_on,,59,0,7,,,,,,,,,,,,,,,,3,,81,0
12899,note_on,,59,0,15,,,,,,,,,,,,,,,,12,,74,0
12899,note_on,,0,0,17,,,,,,,,,,,,,,,,15,,57,0
12900,note_on,,1,0,16,,,,,,,,,,,,,,,,13,,54,72
12900,note_on,,1,0,11,,,,,,,,,,,,,,,,7,,62,72
12900,note_on,,1,0,5,,,,,,,,,,,,,,,,0,,74,72
12900,note_on,,1,0,12,,,,,,,,,,,,,,,,8,,54,72
12900,note_on,,1,0,7,,,,,,,,,,,,,,,,3,,81,56
12900,note_on,,1,0,6,,,,,,,,,,,,,,,,2,,54,72
12900,note_on,,0,0,17,,,,,,,,,,,,,,,,15,,74,72
12900,note_on,,1,0,15,,,,,,,,,,,,,,,,12,,74,72
12900,note_on,,1,0,10,,,,,,,,,,,,,,,,6,,69,72
12900,note_on,,1,0,9,,,,,,,,,,,,,,,,5,,74,72
12900,note_on,,1,0,8,,,,,,,,,,,,,,,,4,,78,56
12900,note_on,,1,0,13,,,,,,,,,,,,,,,,10,,79,72
12900,note_on,,1,0,17,,,,,,,,,,,,,,,,15,,54,72
12900,note_on,,0,0,17,,,,,,,,,,,,,,,,15,,62,72
12900,note_on,,0,0,17,,,,,,,,,,,,,,,,15,,57,72
12900,note_on,,1,0,14,,,,,,,,,,,,,,,,11,,76,72
12900,note_on,,0,0,17,,,,,,,,,,,,,,,,15,,69,72
12929,note_on,,29,0,13,,,,,,,,,,,,,,,,10,,79,0
12929,note_on,,29,0,14,,,,,,,,,,,,,,,,11,,76,0
12930,note_on,,1,0,13,,,,,,,,,,,,,,,,10,,81,72
12930,note_on,,1,0,14,,,,,,,,,,,,,,,,11,,78,72
12959,note_on,,59,0,8,,,,,,,,,,,,,,,,4,,78,0
12959,note_on,,59,0,9,,,,,,,,,,,,,,,,5,,74,0
12959,note_on,,59,0,6,,,,,,,,,,,,,,,,2,,54,0
12959,note_on,,59,0,17,,,,,,,,,,,,,,,,15,,54,0
12959,note_on,,0,0,17,,,,,,,,,,,,,,,,15,,74,0
12959,note_on,,59,0,16,,,,,,,,,,,,,,,,13,,54,0
12959,note_on,,29,0,13,,,,,,,,,,,,,,,,10,,81,0
12959,note_on,,59,0,5,,,,,,,,,,,,,,,,0,,74,0
12959,note_on,,59,0,11,,,,,,,,,,,,,,,,7,,62,0
12959,note_on,,59,0,7,,,,,,,,,,,,,,,,3,,81,0
12959,note_on,,0,0,17,,,,,,,,,,,,,,,,15,,69,0
12959,note_on,,59,0,10,,,,,,,,,,,,,,,,6,,69,0
12959,note_on,,59,0,12,,,,,,,,,,,,,,,,8,,54,0
12959,note_on,,29,0,14,,,,,,,,,,,,,,,,11,,78,0
12959,note_on,,0,0,17,,,,,,,,,,,,,,,,15,,62,0
12959,note_on,,59,0,15,,,,,,,,,,,,,,,,12,,74,0
12959,note_on,,0,0,17,,,,,,,,,,,,,,,,15,,57,0
12960,note_on,,1,0,7,,,,,,,,,,,,,,,,3,,79,56
12960,note_on,,1,0,15,,,,,,,,,,,,,,,,12,,74,72
12960,note_on,,1,0,9,,,,,,,,,,,,,,,,5,,74,72
12960,note_on,,1,0,12,,,,,,,,,,,,,,,,8,,55,72
12960,note_on,,1,0,11,,,,,,,,,,,,,,,,7,,67,72
12960,note_on,,1,0,13,,,,,,,,,,,,,,,,10,,74,72
12960,note_on,,1,0,8,,,,,,,,,,,,,,,,4,,74,56
12960,note_on,,1,0,6,,,,,,,,,,,,,,,,2,,55,72
12960,note_on,,1,0,16,,,,,,,,,,,,,,,,13,,55,72
12960,note_on,,1,0,14,,,,,,,,,,,,,,,,11,,71,72
12960,note_on,,0,0,17,,,,,,,,,,,,,,,,15,,59,72
12960,note_on,,0,0,17,,,,,,,,,,,,,,,,15,,62,72
12960,note_on,,0,0,17,,,,,,,,,,,,,,,,15,,67,72
12960,note_on,,0,0,17,,,,,,,,,,,,,,,,15,,71,72
12960,note_on,,1,0,17,,,,,,,,,,,,,,,,15,,55,72
12960,note_on,,1,0,10,,,,,,,,,,,,,,,,6,,71,72
12960,note_on,,1,0,5,,,,,,,,,,,,,,,,0,,74,72
12989,note_on,,29,0,13,,,,,,,,,,,,,,,,10,,74,0
12989,note_on,,29,0,14,,,,,,,,,,,,,,,,11,,71,0
12990,note_on,,1,0,13,,,,,,,,,,,,,,,,10,,78,72
12990,note_on,,1,0,14,,,,,,,,,,,,,,,,11,,74,72
13019,note_on,,29,0,14,,,,,,,,,,,,,,,,11,,74,0
13019,note_on,,29,0,13,,,,,,,,,,,,,,,,10,,78,0
13020,note_on,,1,0,14,,,,,,,,,,,,,,,,11,,76,72
13020,note_on,,1,0,13,,,,,,,,,,,,,,,,10,,79,72
13049,note_on,,29,0,14,,,,,,,,,,,,,,,,11,,76,0
13049,note_on,,29,0,13,,,,,,,,,,,,,,,,10,,79,0
13050,note_on,,1,0,14,,,,,,,,,,,,,,,,11,,78,72
13050,note_on,,1,0,13,,,,,,,,,,,,,,,,10,,81,72
13079,note_on,,119,0,7,,,,,,,,,,,,,,,,3,,79,0
13079,note_on,,119,0,8,,,,,,,,,,,,,,,,4,,74,0
13079,note_on,,119,0,15,,,,,,,,,,,,,,,,12,,74,0
13079,note_on,,29,0,14,,,,,,,,,,,,,,,,11,,78,0
13079,note_on,,29,0,13,,,,,,,,,,,,,,,,10,,81,0
13080,note_on,,1,0,13,,,,,,,,,,,,,,,,10,,83,72
13080,note_on,,1,0,7,,,,,,,,,,,,,,,,3,,83,56
13080,note_on,,1,0,14,,,,,,,,,,,,,,,,11,,79,72
13080,note_on,,1,0,15,,,,,,,,,,,,,,,,12,,74,72
13080,note_on,,1,0,8,,,,,,,,,,,,,,,,4,,79,56
13109,note_on,,29,0,14,,,,,,,,,,,,,,,,11,,79,0
13109,note_on,,29,0,13,,,,,,,,,,,,,,,,10,,83,0
13110,note_on,,1,0,13,,,,,,,,,,,,,,,,10,,81,72
13110,note_on,,1,0,14,,,,,,,,,,,,,,,,11,,78,72
13139,note_on,,29,0,13,,,,,,,,,,,,,,,,10,,81,0
13139,note_on,,29,0,14,,,,,,,,,,,,,,,,11,,78,0
13139,note_on,,59,0,15,,,,,,,,,,,,,,,,12,,74,0
13140,note_on,,1,0,15,,,,,,,,,,,,,,,,12,,67,72
13140,note_on,,1,0,14,,,,,,,,,,,,,,,,11,,79,72
13140,note_on,,1,0,13,,,,,,,,,,,,,,,,10,,83,72
13169,note_on,,29,0,14,,,,,,,,,,,,,,,,11,,79,0
13169,note_on,,29,0,13,,,,,,,,,,,,,,,,10,,83,0
13170,note_on,,1,0,13,,,,,,,,,,,,,,,,10,,85,72
13170,note_on,,1,0,14,,,,,,,,,,,,,,,,11,,81,72
13199,note_on,,0,0,17,,,,,,,,,,,,,,,,15,,62,0
13199,note_on,,119,0,8,,,,,,,,,,,,,,,,4,,79,0
13199,note_on,,0,0,17,,,,,,,,,,,,,,,,15,,71,0
13199,note_on,,239,0,17,,,,,,,,,,,,,,,,15,,55,0
13199,note_on,,0,0,17,,,,,,,,,,,,,,,,15,,67,0
13199,note_on,,0,0,17,,,,,,,,,,,,,,,,15,,59,0
13199,note_on,,239,0,16,,,,,,,,,,,,,,,,13,,55,0
13199,note_on,,239,0,5,,,,,,,,,,,,,,,,0,,74,0
13199,note_on,,59,0,15,,,,,,,,,,,,,,,,12,,67,0
13199,note_on,,239,0,6,,,,,,,,,,,,,,,,2,,55,0
13199,note_on,,239,0,10,,,,,,,,,,,,,,,,6,,71,0
13199,note_on,,239,0,9,,,,,,,,,,,,,,,,5,,74,0
13199,note_on,,119,0,7,,,,,,,,,,,,,,,,3,,83,0
13199,note_on,,29,0,13,,,,,,,,,,,,,,,,10,,85,0
13199,note_on,,239,0,12,,,,,,,,,,,,,,,,8,,55,0
13199,note_on,,239,0,11,,,,,,,,,,,,,,,,7,,67,0
13199,note_on,,29,0,14,,,,,,,,,,,,,,,,11,,81,0
13200,note_on,,1,0,16,,,,,,,,,,,,,,,,13,,50,72
13200,note_on,,1,0,5,,,,,,,,,,,,,,,,0,,74,72
13200,note_on,,0,0,17,,,,,,,,,,,,,,,,15,,66,72
13200,note_on,,0,0,17,,,,,,,,,,,,,,,,15,,57,72
13200,note_on,,1,0,17,,,,,,,,,,,,,,,,15,,50,72
13200,note_on,,1,0,15,,,,,,,,,,,,,,,,12,,69,72
13200,note_on,,0,0,17,,,,,,,,,,,,,,,,15,,69,72
13200,note_on,,1,0,11,,,,,,,,,,,,,,,,7,,66,72
13200,note_on,,1,0,9,,,,,,,,,,,,,,,,5,,74,72
13200,note_on,,1,0,6,,,,,,,,,,,,,,,,2,,50,72
13200,note_on,,0,0,17,,,,,,,,,,,,,,,,15,,74,72
13200,note_on,,1,0,14,,,,,,,,,,,,,,,,11,,78,72
13200,note_on,,1,0,8,,,,,,,,,,,,,,,,4,,78,56
13200,note_on,,1,0,10,,,,,,,,,,,,,,,,6,,69,72
13200,note_on,,1,0,7,,,,,,,,,,,,,,,,3,,81,56
13200,note_on,,1,0,12,,,,,,,,,,,,,,,,8,,50,72
13200,note_on,,1,0,13,,,,,,,,,,,,,,,,10,,86,72
13229,note_on,,29,0,13,,,,,,,,,,,,,,,,10,,86,0
13229,note_on,,29,0,14,,,,,,,,,,,,,,,,11,,78,0
13230,note_on,,1,0,13,,,,,,,,,,,,,,,,10,,81,72
13230,note_on,,1,0,14,,,,,,,,,,,,,,,,11,,74,72
13259,note_on,,29,0,13,,,,,,,,,,,,,,,,10,,81,0
13259,note_on,,29,0,14,,,,,,,,,,,,,,,,11,,74,0
13260,note_on,,1,0,13,,,,,,,,,,,,,,,,10,,83,72
13260,note_on,,1,0,14,,,,,,,,,,,,,,,,11,,79,72
13289,note_on,,29,0,13,,,,,,,,,,,,,,,,10,,83,0
13289,note_on,,29,0,14,,,,,,,,,,,,,,,,11,,79,0
13290,note_on,,1,0,14,,,,,,,,,,,,,,,,11,,76,72
13290,note_on,,1,0,13,,,,,,,,,,,,,,,,10,,85,72
13319,note_on,,29,0,14,,,,,,,,,,,,,,,,11,,76,0
13319,note_on,,29,0,13,,,,,,,,,,,,,,,,10,,85,0
13320,note_on,,1,0,14,,,,,,,,,,,,,,,,11,,78,72
13320,note_on,,1,0,13,,,,,,,,,,,,,,,,10,,86,72
13349,note_on,,29,0,14,,,,,,,,,,,,,,,,11,,78,0
13349,note_on,,29,0,13,,,,,,,,,,,,,,,,10,,86,0
13350,note_on,,1,0,14,,,,,,,,,,,,,,,,11,,69,72
13350,note_on,,1,0,13,,,,,,,,,,,,,,,,10,,78,72
13379,note_on,,29,0,13,,,,,,,,,,,,,,,,10,,78,0
13379,note_on,,29,0,14,,,,,,,,,,,,,,,,11,,69,0
13380,note_on,,1,0,14,,,,,,,,,,,,,,,,11,,71,72
13380,note_on,,1,0,13,,,,,,,,,,,,,,,,10,,79,72
13409,note_on,,29,0,13,,,,,,,,,,,,,,,,10,,79,0
13409,note_on,,29,0,14,,,,,,,,,,,,,,,,11,,71,0
13410,note_on,,1,0,14,,,,,,,,,,,,,,,,11,,73,72
13410,note_on,,1,0,13,,,,,,,,,,,,,,,,10,,76,72
13439,note_on,,239,0,17,,,,,,,,,,,,,,,,15,,50,0
13439,note_on,,29,0,14,,,,,,,,,,,,,,,,11,,73,0
13439,note_on,,239,0,6,,,,,,,,,,,,,,,,2,,50,0
13439,note_on,,239,0,16,,,,,,,,,,,,,,,,13,,50,0
13439,note_on,,0,0,17,,,,,,,,,,,,,,,,15,,57,0
13439,note_on,,0,0,17,,,,,,,,,,,,,,,,15,,66,0
13439,note_on,,0,0,17,,,,,,,,,,,,,,,,15,,69,0
13439,note_on,,0,0,17,,,,,,,,,,,,,,,,15,,74,0
13439,note_on,,239,0,5,,,,,,,,,,,,,,,,0,,74,0
13439,note_on,,239,0,15,,,,,,,,,,,,,,,,12,,69,0
13439,note_on,,239,0,12,,,,,,,,,,,,,,,,8,,50,0
13439,note_on,,239,0,9,,,,,,,,,,,,,,,,5,,74,0
13439,note_on,,239,0,8,,,,,,,,,,,,,,,,4,,78,0
13439,note_on,,239,0,10,,,,,,,,,,,,,,,,6,,69,0
13439,note_on,,239,0,11,,,,,,,,,,,,,,,,7,,66,0
13439,note_on,,239,0,7,,,,,,,,,,,,,,,,3,,81,0
13439,note_on,,29,0,13,,,,,,,,,,,,,,,,10,,76,0
13440,note_on,,1,0,14,,,,,,,,,,,,,,,,11,,74,72
13440,note_on,,1,0,13,,,,,,,,,,,,,,,,10,,78,72
13469,note_on,,29,0,13,,,,,,,,,,,,,,,,10,,78,0
13469,note_on,,29,0,14,,,,,,,,,,,,,,,,11,,74,0
13470,note_on,,1,0,13,,,,,,,,,,,,,,,,10,,69,72
13470,note_on,,1,0,14,,,,,,,,,,,,,,,,11,,66,72
13499,note_on,,29,0,14,,,,,,,,,,,,,,,,11,,66,0
13499,note_on,,29,0,13,,,,,,,,,,,,,,,,10,,69,0
13500,note_on,,1,0,13,,,,,,,,,,,,,,,,10,,71,72
13500,note_on,,1,0,14,,,,,,,,,,,,,,,,11,,67,72
13529,note_on,,29,0,13,,,,,,,,,,,,,,,,10,,71,0
13529,note_on,,29,0,14,,,,,,,,,,,,,,,,11,,67,0
13530,note_on,,1,0,13,,,,,,,,,,,,,,,,10,,73,72
13530,note_on,,1,0,14,,,,,,,,,,,,,,,,11,,64,72
13559,note_on,,29,0,13,,,,,,,,,,,,,,,,10,,73,0
13559,note_on,,29,0,14,,,,,,,,,,,,,,,,11,,64,0
13560,note_on,,1,0,14,,,,,,,,,,,,,,,,11,,66,72
13560,note_on,,1,0,13,,,,,,,,,,,,,,,,10,,74,72
13589,note_on,,29,0,14,,,,,,,,,,,,,,,,11,,66,0
13589,note_on,,29,0,13,,,,,,,,,,,,,,,,10,,74,0
13590,note_on,,1,0,13,,,,,,,,,,,,,,,,10,,66,72
13590,note_on,,1,0,14,,,,,,,,,,,,,,,,11,,57,72
13619,note_on,,29,0,13,,,,,,,,,,,,,,,,10,,66,0
13619,note_on,,29,0,14,,,,,,,,,,,,,,,,11,,57,0
13620,note_on,,1,0,14,,,,,,,,,,,,,,,,11,,59,72
13620,note_on,,1,0,13,,,,,,,,,,,,,,,,10,,67,72
13649,note_on,,29,0,13,,,,,,,,,,,,,,,,10,,67,0
13649,note_on,,29,0,14,,,,,,,,,,,,,,,,11,,59,0
13650,note_on,,1,0,13,,,,,,,,,,,,,,,,10,,64,72
13650,note_on,,1,0,14,,,,,,,,,,,,,,,,11,,61,72
13679,note_on,,29,0,14,,,,,,,,,,,,,,,,11,,61,0
13679,note_on,,29,0,13,,,,,,,,,,,,,,,,10,,64,0
13680,note_on,,1,0,14,,,,,,,,,,,,,,,,11,,62,72
13680,note_on,,1,0,13,,,,,,,,,,,,,,,,10,,66,72
13799,note_on,,119,0,14,,,,,,,,,,,,,,,,11,,62,0
13799,note_on,,119,0,13,,,,,,,,,,,,,,,,10,,66,0
13800,note_on,,361,0,10,,,,,,,,,,,,,,,,6,,59,72
13800,note_on,,1,0,14,,,,,,,,,,,,,,,,11,,55,72
13800,note_on,,361,0,15,,,,,,,,,,,,,,,,12,,55,72
13800,note_on,,361,0,9,,,,,,,,,,,,,,,,5,,62,72
13800,note_on,,361,0,5,,,,,,,,,,,,,,,,0,,62,72
13800,note_on,,0,0,17,,,,,,,,,,,,,,,,15,,62,72
13800,note_on,,0,0,17,,,,,,,,,,,,,,,,15,,59,72
13800,note_on,,361,0,16,,,,,,,,,,,,,,,,13,,55,72
13800,note_on,,361,0,6,,,,,,,,,,,,,,,,2,,55,72
13800,note_on,,361,0,12,,,,,,,,,,,,,,,,8,,55,72
13800,note_on,,361,0,11,,,,,,,,,,,,,,,,7,,55,72
13800,note_on,,0,0,17,,,,,,,,,,,,,,,,15,,67,72
13800,note_on,,1,0,13,,,,,,,,,,,,,,,,10,,55,72
13800,note_on,,361,0,17,,,,,,,,,,,,,,,,15,,55,72
13919,note_on,,119,0,9,,,,,,,,,,,,,,,,5,,62,0
13919,note_on,,119,0,12,,,,,,,,,,,,,,,,8,,55,0
13919,note_on,,119,0,5,,,,,,,,,,,,,,,,0,,62,0
13919,note_on,,119,0,17,,,,,,,,,,,,,,,,15,,55,0
13919,note_on,,0,0,17,,,,,,,,,,,,,,,,15,,67,0
13919,note_on,,0,0,17,,,,,,,,,,,,,,,,15,,62,0
13919,note_on,,0,0,17,,,,,,,,,,,,,,,,15,,59,0
13919,note_on,,119,0,16,,,,,,,,,,,,,,,,13,,55,0
13919,note_on,,119,0,15,,,,,,,,,,,,,,,,12,,55,0
13919,note_on,,119,0,10,,,,,,,,,,,,,,,,6,,59,0
13919,note_on,,119,0,11,,,,,,,,,,,,,,,,7,,55,0
13919,note_on,,119,0,14,,,,,,,,,,,,,,,,11,,55,0
13919,note_on,,119,0,6,,,,,,,,,,,,,,,,2,,55,0
13919,note_on,,119,0,13,,,,,,,,,,,,,,,,10,,55,0
13920,note_on,,1,0,9,,,,,,,,,,,,,,,,5,,62,72
13920,note_on,,1,0,13,,,,,,,,,,,,,,,,10,,55,72
13920,note_on,,1,0,11,,,,,,,,,,,,,,,,7,,55,72
13920,note_on,,1,0,14,,,,,,,,,,,,,,,,11,,55,72
13920,note_on,,1,0,15,,,,,,,,,,,,,,,,12,,55,72
13920,note_on,,1,0,12,,,,,,,,,,,,,,,,8,,55,72
13920,note_on,,1,0,6,,,,,,,,,,,,,,,,2,,55,72
13920,note_on,,1,0,10,,,,,,,,,,,,,,,,6,,59,72
13920,note_on,,1,0,16,,,,,,,,,,,,,,,,13,,55,72
13920,note_on,,1,0,17,,,,,,,,,,,,,,,,15,,55,72
13920,note_on,,0,0,17,,,,,,,,,,,,,,,,15,,67,72
13920,note_on,,0,0,17,,,,,,,,,,,,,,,,15,,62,72
13920,note_on,,0,0,17,,,,,,,,,,,,,,,,15,,59,72
13920,note_on,,1,0,5,,,,,,,,,,,,,,,,0,,62,72
14279,note_on,,359,0,6,,,,,,,,,,,,,,,,2,,55,0
14279,note_on,,359,0,10,,,,,,,,,,,,,,,,6,,59,0
14279,note_on,,359,0,14,,,,,,,,,,,,,,,,11,,55,0
14279,note_on,,359,0,17,,,,,,,,,,,,,,,,15,,55,0
14279,note_on,,0,0,17,,,,,,,,,,,,,,,,15,,67,0
14279,note_on,,0,0,17,,,,,,,,,,,,,,,,15,,62,0
14279,note_on,,0,0,17,,,,,,,,,,,,,,,,15,,59,0
14279,note_on,,359,0,5,,,,,,,,,,,,,,,,0,,62,0
14279,note_on,,359,0,13,,,,,,,,,,,,,,,,10,,55,0
14279,note_on,,359,0,12,,,,,,,,,,,,,,,,8,,55,0
14279,note_on,,359,0,16,,,,,,,,,,,,,,,,13,,55,0
14279,note_on,,359,0,9,,,,,,,,,,,,,,,,5,,62,0
14279,note_on,,359,0,15,,,,,,,,,,,,,,,,12,,55,0
14279,note_on,,359,0,11,,,,,,,,,,,,,,,,7,,55,0
14280,note_on,,1,0,11,,,,,,,,,,,,,,,,7,,55,72
14280,note_on,,1,0,12,,,,,,,,,,,,,,,,8,,43,72
14280,note_on,,1,0,9,,,,,,,,,,,,,,,,5,,62,72
14280,note_on,,1,0,10,,,,,,,,,,,,,,,,6,,59,72
14280,note_on,,1,0,17,,,,,,,,,,,,,,,,15,,43,72
14280,note_on,,0,0,17,,,,,,,,,,,,,,,,15,,62,72
14280,note_on,,1,0,13,,,,,,,,,,,,,,,,10,,55,72
14280,note_on,,0,0,17,,,,,,,,,,,,,,,,15,,59,72
14280,note_on,,0,0,17,,,,,,,,,,,,,,,,15,,55,72
14280,note_on,,1,0,16,,,,,,,,,,,,,,,,13,,43,72
14280,note_on,,1,0,6,,,,,,,,,,,,,,,,2,,43,72
14280,note_on,,1,0,14,,,,,,,,,,,,,,,,11,,55,72
14280,note_on,,1,0,5,,,,,,,,,,,,,,,,0,,62,72
14280,note_on,,1,0,15,,,,,,,,,,,,,,,,12,,55,72
14399,note_on,,119,0,16,,,,,,,,,,,,,,,,13,,43,0
14399,note_on,,119,0,13,,,,,,,,,,,,,,,,10,,55,0
14399,note_on,,119,0,12,,,,,,,,,,,,,,,,8,,43,0
14399,note_on,,119,0,6,,,,,,,,,,,,,,,,2,,43,0
14399,note_on,,119,0,14,,,,,,,,,,,,,,,,11,,55,0
14399,note_on,,119,0,9,,,,,,,,,,,,,,,,5,,62,0
14399,note_on,,0,0,17,,,,,,,,,,,,,,,,15,,59,0
14399,note_on,,0,0,17,,,,,,,,,,,,,,,,15,,62,0
14399,note_on,,0,0,17,,,,,,,,,,,,,,,,15,,55,0
14399,note_on,,119,0,5,,,,,,,,,,,,,,,,0,,62,0
14399,note_on,,119,0,15,,,,,,,,,,,,,,,,12,,55,0
14399,note_on,,119,0,11,,,,,,,,,,,,,,,,7,,55,0
14399,note_on,,119,0,17,,,,,,,,,,,,,,,,15,,43,0
14399,note_on,,119,0,10,,,,,,,,,,,,,,,,6,,59,0
14400,note_on,,1,0,13,,,,,,,,,,,,,,,,10,,55,72
14400,note_on,,1,0,9,,,,,,,,,,,,,,,,5,,62,72
14400,note_on,,1,0,5,,,,,,,,,,,,,,,,0,,62,72
14400,note_on,,1,0,14,,,,,,,,,,,,,,,,11,,55,72
14400,note_on,,1,0,6,,,,,,,,,,,,,,,,2,,43,72
14400,note_on,,1,0,11,,,,,,,,,,,,,,,,7,,55,72
14400,note_on,,1,0,16,,,,,,,,,,,,,,,,13,,43,72
14400,note_on,,1,0,15,,,,,,,,,,,,,,,,12,,55,72
14400,note_on,,1,0,12,,,,,,,,,,,,,,,,8,,43,72
14400,note_on,,0,0,17,,,,,,,,,,,,,,,,15,,62,72
14400,note_on,,0,0,17,,,,,,,,,,,,,,,,15,,59,72
14400,note_on,,0,0,17,,,,,,,,,,,,,,,,15,,55,72
14400,note_on,,1,0,17,,,,,,,,,,,,,,,,15,,43,72
14400,note_on,,1,0,10,,,,,,,,,,,,,,,,6,,59,72
14579,note_on,,179,0,15,,,,,,,,,,,,,,,,12,,55,0
14579,note_on,,179,0,14,,,,,,,,,,,,,,,,11,,55,0
14579,note_on,,179,0,13,,,,,,,,,,,,,,,,10,,55,0
14580,note_on,,1,0,15,,,,,,,,,,,,,,,,12,,55,48
14580,note_on,,1,0,14,,,,,,,,,,,,,,,,11,,59,48
14580,note_on,,1,0,13,,,,,,,,,,,,,,,,10,,62,48
14639,note_on,,59,0,14,,,,,,,,,,,,,,,,11,,59,0
14639,note_on,,59,0,13,,,,,,,,,,,,,,,,10,,62,0
14639,note_on,,59,0,15,,,,,,,,,,,,,,,,12,,55,0
14640,note_on,,1,0,14,,,,,,,,,,,,,,,,11,,59,48
14640,note_on,,1,0,13,,,,,,,,,,,,,,,,10,,62,48
14640,note_on,,1,0,15,,,,,,,,,,,,,,,,12,,55,48
14669,note_on,,29,0,13,,,,,,,,,,,,,,,,10,,62,0
14669,note_on,,29,0,15,,,,,,,,,,,,,,,,12,,55,0
14669,note_on,,29,0,14,,,,,,,,,,,,,,,,11,,59,0
14700,note_on,,31,0,14,,,,,,,,,,,,,,,,11,,59,48
14700,note_on,,31,0,15,,,,,,,,,,,,,,,,12,,55,48
14700,note_on,,31,0,13,,,,,,,,,,,,,,,,10,,62,48
14729,note_on,,29,0,14,,,,,,,,,,,,,,,,11,,59,0
14729,note_on,,29,0,13,,,,,,,,,,,,,,,,10,,62,0
14729,note_on,,29,0,15,,,,,,,,,,,,,,,,12,,55,0
14760,note_on,,31,0,15,,,,,,,,,,,,,,,,12,,55,48
14760,note_on,,31,0,13,,,,,,,,,,,,,,,,10,,62,48
14760,note_on,,31,0,14,,,,,,,,,,,,,,,,11,,59,48
14789,note_on,,29,0,14,,,,,,,,,,,,,,,,11,,59,0
14789,note_on,,29,0,15,,,,,,,,,,,,,,,,12,,55,0
14789,note_on,,29,0,13,,,,,,,,,,,,,,,,10,,62,0
14820,note_on,,31,0,15,,,,,,,,,,,,,,,,12,,55,48
14820,note_on,,31,0,14,,,,,,,,,,,,,,,,11,,59,48
14820,note_on,,31,0,13,,,,,,,,,,,,,,,,10,,62,48
14849,note_on,,29,0,13,,,,,,,,,,,,,,,,10,,62,0
14849,note_on,,29,0,15,,,,,,,,,,,,,,,,12,,55,0
14849,note_on,,29,0,14,,,,,,,,,,,,,,,,11,,59,0
14879,note_on,,479,0,17,,,,,,,,,,,,,,,,15,,43,0
14879,note_on,,479,0,10,,,,,,,,,,,,,,,,6,,59,0
14879,note_on,,479,0,11,,,,,,,,,,,,,,,,7,,55,0
14879,note_on,,0,0,17,,,,,,,,,,,,,,,,15,,62,0
14879,note_on,,479,0,16,,,,,,,,,,,,,,,,13,,43,0
14879,note_on,,0,0,17,,,,,,,,,,,,,,,,15,,55,0
14879,note_on,,0,0,17,,,,,,,,,,,,,,,,15,,59,0
14879,note_on,,479,0,12,,,,,,,,,,,,,,,,8,,43,0
14879,note_on,,479,0,6,,,,,,,,,,,,,,,,2,,43,0
14879,note_on,,479,0,9,,,,,,,,,,,,,,,,5,,62,0
14879,note_on,,479,0,5,,,,,,,,,,,,,,,,0,,62,0
14880,note_on,,31,0,15,,,,,,,,,,,,,,,,12,,55,48
14880,note_on,,31,0,13,,,,,,,,,,,,,,,,10,,64,48
14880,note_on,,31,0,14,,,,,,,,,,,,,,,,11,,60,48
14909,note_on,,29,0,15,,,,,,,,,,,,,,,,12,,55,0
14909,note_on,,29,0,13,,,,,,,,,,,,,,,,10,,64,0
14909,note_on,,29,0,14,,,,,,,,,,,,,,,,11,,60,0
14940,note_on,,31,0,15,,,,,,,,,,,,,,,,12,,55,48
14940,note_on,,31,0,14,,,,,,,,,,,,,,,,11,,60,48
14940,note_on,,31,0,13,,,,,,,,,,,,,,,,10,,64,48
14969,note_on,,29,0,15,,,,,,,,,,,,,,,,12,,55,0
14969,note_on,,29,0,14,,,,,,,,,,,,,,,,11,,60,0
14969,note_on,,29,0,13,,,,,,,,,,,,,,,,10,,64,0
15000,note_on,,31,0,15,,,,,,,,,,,,,,,,12,,55,48
15000,note_on,,31,0,13,,,,,,,,,,,,,,,,10,,64,48
15000,note_on,,31,0,14,,,,,,,,,,,,,,,,11,,60,48
15029,note_on,,29,0,13,,,,,,,,,,,,,,,,10,,64,0
15029,note_on,,29,0,14,,,,,,,,,,,,,,,,11,,60,0
15029,note_on,,29,0,15,,,,,,,,,,,,,,,,12,,55,0
15060,note_on,,31,0,14,,,,,,,,,,,,,,,,11,,60,48
15060,note_on,,31,0,15,,,,,,,,,,,,,,,,12,,55,48
15060,note_on,,31,0,13,,,,,,,,,,,,,,,,10,,64,48
15089,note_on,,29,0,14,,,,,,,,,,,,,,,,11,,60,0
15089,note_on,,29,0,15,,,,,,,,,,,,,,,,12,,55,0
15089,note_on,,29,0,13,,,,,,,,,,,,,,,,10,,64,0
15120,note_on,,31,0,14,,,,,,,,,,,,,,,,11,,60,48
15120,note_on,,31,0,15,,,,,,,,,,,,,,,,12,,55,48
15120,note_on,,31,0,13,,,,,,,,,,,,,,,,10,,64,48
15149,note_on,,29,0,15,,,,,,,,,,,,,,,,12,,55,0
15149,note_on,,29,0,14,,,,,,,,,,,,,,,,11,,60,0
15149,note_on,,29,0,13,,,,,,,,,,,,,,,,10,,64,0
15180,note_on,,31,0,14,,,,,,,,,,,,,,,,11,,60,48
15180,note_on,,31,0,15,,,,,,,,,,,,,,,,12,,55,48
15180,note_on,,31,0,13,,,,,,,,,,,,,,,,10,,64,48
15209,note_on,,29,0,13,,,,,,,,,,,,,,,,10,,64,0
15209,note_on,,29,0,14,,,,,,,,,,,,,,,,11,,60,0
15209,note_on,,29,0,15,,,,,,,,,,,,,,,,12,,55,0
15240,note_on,,31,0,13,,,,,,,,,,,,,,,,10,,64,48
15240,note_on,,31,0,14,,,,,,,,,,,,,,,,11,,60,48
15240,note_on,,31,0,15,,,,,,,,,,,,,,,,12,,55,48
15269,note_on,,29,0,15,,,,,,,,,,,,,,,,12,,55,0
15269,note_on,,29,0,13,,,,,,,,,,,,,,,,10,,64,0
15269,note_on,,29,0,14,,,,,,,,,,,,,,,,11,,60,0
15300,note_on,,31,0,15,,,,,,,,,,,,,,,,12,,55,48
15300,note_on,,31,0,13,,,,,,,,,,,,,,,,10,,64,48
15300,note_on,,31,0,14,,,,,,,,,,,,,,,,11,,60,48
15329,note_on,,29,0,13,,,,,,,,,,,,,,,,10,,64,0
15329,note_on,,29,0,14,,,,,,,,,,,,,,,,11,,60,0
15329,note_on,,29,0,15,,,,,,,,,,,,,,,,12,,55,0
15360,note_on,,31,0,14,,,,,,,,,,,,,,,,11,,59,48
15360,note_on,,31,0,13,,,,,,,,,,,,,,,,10,,62,72
15360,note_on,,481,0,10,,,,,,,,,,,,,,,,6,,62,72
15360,note_on,,31,0,15,,,,,,,,,,,,,,,,12,,55,48
15360,note_on,,481,0,17,,,,,,,,,,,,,,,,15,,62,72
15479,note_on,,119,0,15,,,,,,,,,,,,,,,,12,,55,0
15479,note_on,,119,0,14,,,,,,,,,,,,,,,,11,,59,0
15479,note_on,,119,0,13,,,,,,,,,,,,,,,,10,,62,0
15479,note_on,,119,0,17,,,,,,,,,,,,,,,,15,,62,0
15479,note_on,,119,0,10,,,,,,,,,,,,,,,,6,,62,0
15480,note_on,,1,0,13,,,,,,,,,,,,,,,,10,,67,72
15480,note_on,,1,0,10,,,,,,,,,,,,,,,,6,,67,72
15480,note_on,,1,0,17,,,,,,,,,,,,,,,,15,,67,72
15600,note_on,,721,0,11,,,,,,,,,,,,,,,,7,,57,72
15600,note_on,,721,0,16,,,,,,,,,,,,,,,,13,,57,72
15600,note_on,,121,0,14,,,,,,,,,,,,,,,,11,,57,72
15600,note_on,,120,0,17,,,,,,,,,,,,,,,,15,,57,72
15659,note_on,,59,0,17,,,,,,,,,,,,,,,,15,,67,0
15659,note_on,,179,0,10,,,,,,,,,,,,,,,,6,,67,0
15659,note_on,,179,0,13,,,,,,,,,,,,,,,,10,,67,0
15660,note_on,,1,0,13,,,,,,,,,,,,,,,,10,,66,72
15660,note_on,,1,0,17,,,,,,,,,,,,,,,,15,,66,72
15660,note_on,,1,0,10,,,,,,,,,,,,,,,,6,,66,72
15689,note_on,,29,0,13,,,,,,,,,,,,,,,,10,,66,0
15689,note_on,,29,0,17,,,,,,,,,,,,,,,,15,,66,0
15689,note_on,,29,0,10,,,,,,,,,,,,,,,,6,,66,0
15690,note_on,,1,0,10,,,,,,,,,,,,,,,,6,,64,72
15690,note_on,,1,0,13,,,,,,,,,,,,,,,,10,,64,72
15690,note_on,,1,0,17,,,,,,,,,,,,,,,,15,,64,72
15719,note_on,,29,0,13,,,,,,,,,,,,,,,,10,,64,0
15719,note_on,,119,0,14,,,,,,,,,,,,,,,,11,,57,0
15719,note_on,,0,0,17,,,,,,,,,,,,,,,,15,,64,0
15719,note_on,,119,0,16,,,,,,,,,,,,,,,,13,,57,0
15719,note_on,,29,0,17,,,,,,,,,,,,,,,,15,,57,0
15719,note_on,,29,0,10,,,,,,,,,,,,,,,,6,,64,0
15719,note_on,,119,0,11,,,,,,,,,,,,,,,,7,,57,0
15720,note_on,,0,0,17,,,,,,,,,,,,,,,,15,,66,72
15720,note_on,,1,0,16,,,,,,,,,,,,,,,,13,,62,72
15720,note_on,,1,0,13,,,,,,,,,,,,,,,,10,,66,72
15720,note_on,,1,0,17,,,,,,,,,,,,,,,,15,,62,72
15720,note_on,,1,0,11,,,,,,,,,,,,,,,,7,,62,72
15720,note_on,,1,0,14,,,,,,,,,,,,,,,,11,,62,72
15720,note_on,,1,0,10,,,,,,,,,,,,,,,,6,,66,72
15779,note_on,,59,0,17,,,,,,,,,,,,,,,,15,,66,0
15779,note_on,,59,0,13,,,,,,,,,,,,,,,,10,,66,0
15779,note_on,,59,0,10,,,,,,,,,,,,,,,,6,,66,0
15780,note_on,,1,0,13,,,,,,,,,,,,,,,,10,,62,72
15780,note_on,,1,0,10,,,,,,,,,,,,,,,,6,,62,72
15780,note_on,,1,0,17,,,,,,,,,,,,,,,,15,,62,72
15839,note_on,,59,0,17,,,,,,,,,,,,,,,,15,,62,0
15839,note_on,,59,0,13,,,,,,,,,,,,,,,,10,,62,0
15839,note_on,,59,0,10,,,,,,,,,,,,,,,,6,,62,0
15840,note_on,,361,0,15,,,,,,,,,,,,,,,,12,,64,72
15840,note_on,,1,0,13,,,,,,,,,,,,,,,,10,,64,72
15840,note_on,,1,0,10,,,,,,,,,,,,,,,,6,,64,72
15840,note_on,,1,0,17,,,,,,,,,,,,,,,,15,,64,72
15899,note_on,,179,0,14,,,,,,,,,,,,,,,,11,,62,0
15899,note_on,,179,0,16,,,,,,,,,,,,,,,,13,,62,0
15899,note_on,,179,0,11,,,,,,,,,,,,,,,,7,,62,0
15899,note_on,,59,0,17,,,,,,,,,,,,,,,,15,,62,0
15900,note_on,,1,0,11,,,,,,,,,,,,,,,,7,,61,72
15900,note_on,,1,0,17,,,,,,,,,,,,,,,,15,,61,72
15900,note_on,,1,0,14,,,,,,,,,,,,,,,,11,,61,72
15900,note_on,,1,0,16,,,,,,,,,,,,,,,,13,,61,72
15929,note_on,,29,0,11,,,,,,,,,,,,,,,,7,,61,0
15929,note_on,,29,0,14,,,,,,,,,,,,,,,,11,,61,0
15929,note_on,,29,0,17,,,,,,,,,,,,,,,,15,,61,0
15929,note_on,,29,0,16,,,,,,,,,,,,,,,,13,,61,0
15930,note_on,,1,0,14,,,,,,,,,,,,,,,,11,,59,72
15930,note_on,,1,0,17,,,,,,,,,,,,,,,,15,,59,72
15930,note_on,,1,0,11,,,,,,,,,,,,,,,,7,,59,72
15930,note_on,,1,0,16,,,,,,,,,,,,,,,,13,,59,72
15959,note_on,,29,0,16,,,,,,,,,,,,,,,,13,,59,0
15959,note_on,,29,0,17,,,,,,,,,,,,,,,,15,,64,0
15959,note_on,,119,0,15,,,,,,,,,,,,,,,,12,,64,0
15959,note_on,,119,0,10,,,,,,,,,,,,,,,,6,,64,0
15959,note_on,,29,0,14,,,,,,,,,,,,,,,,11,,59,0
15959,note_on,,119,0,13,,,,,,,,,,,,,,,,10,,64,0
15959,note_on,,0,0,17,,,,,,,,,,,,,,,,15,,59,0
15959,note_on,,29,0,11,,,,,,,,,,,,,,,,7,,59,0
15960,note_on,,0,0,17,,,,,,,,,,,,,,,,15,,69,72
15960,note_on,,1,0,11,,,,,,,,,,,,,,,,7,,61,72
15960,note_on,,1,0,10,,,,,,,,,,,,,,,,6,,69,72
15960,note_on,,1,0,14,,,,,,,,,,,,,,,,11,,61,72
15960,note_on,,1,0,17,,,,,,,,,,,,,,,,15,,61,72
15960,note_on,,1,0,15,,,,,,,,,,,,,,,,12,,69,72
15960,note_on,,1,0,16,,,,,,,,,,,,,,,,13,,61,72
16019,note_on,,59,0,14,,,,,,,,,,,,,,,,11,,61,0
16019,note_on,,59,0,17,,,,,,,,,,,,,,,,15,,61,0
16019,note_on,,59,0,16,,,,,,,,,,,,,,,,13,,61,0
16019,note_on,,59,0,11,,,,,,,,,,,,,,,,7,,61,0
16020,note_on,,1,0,11,,,,,,,,,,,,,,,,7,,57,72
16020,note_on,,1,0,16,,,,,,,,,,,,,,,,13,,57,72
16020,note_on,,1,0,17,,,,,,,,,,,,,,,,15,,57,72
16020,note_on,,1,0,14,,,,,,,,,,,,,,,,11,,57,72
16079,note_on,,59,0,16,,,,,,,,,,,,,,,,13,,57,0
16079,note_on,,59,0,11,,,,,,,,,,,,,,,,7,,57,0
16079,note_on,,59,0,17,,,,,,,,,,,,,,,,15,,57,0
16079,note_on,,59,0,14,,,,,,,,,,,,,,,,11,,57,0
16080,note_on,,1,0,16,,,,,,,,,,,,,,,,13,,59,72
16080,note_on,,1,0,11,,,,,,,,,,,,,,,,7,,59,72
16080,note_on,,1,0,14,,,,,,,,,,,,,,,,11,,59,72
16080,note_on,,1,0,17,,,,,,,,,,,,,,,,15,,59,72
16139,note_on,,59,0,17,,,,,,,,,,,,,,,,15,,69,0
16139,note_on,,179,0,10,,,,,,,,,,,,,,,,6,,69,0
16139,note_on,,0,0,17,,,,,,,,,,,,,,,,15,,59,0
16139,note_on,,59,0,16,,,,,,,,,,,,,,,,13,,59,0
16139,note_on,,179,0,15,,,,,,,,,,,,,,,,12,,69,0
16139,note_on,,59,0,14,,,,,,,,,,,,,,,,11,,59,0
16139,note_on,,59,0,11,,,,,,,,,,,,,,,,7,,59,0
16140,note_on,,1,0,16,,,,,,,,,,,,,,,,13,,57,72
16140,note_on,,1,0,14,,,,,,,,,,,,,,,,11,,57,72
16140,note_on,,1,0,11,,,,,,,,,,,,,,,,7,,57,72
16140,note_on,,1,0,17,,,,,,,,,,,,,,,,15,,57,72
16140,note_on,,1,0,10,,,,,,,,,,,,,,,,6,,67,72
16140,note_on,,1,0,15,,,,,,,,,,,,,,,,12,,67,72
16140,note_on,,0,0,17,,,,,,,,,,,,,,,,15,,67,72
16169,note_on,,29,0,17,,,,,,,,,,,,,,,,15,,67,0
16169,note_on,,29,0,10,,,,,,,,,,,,,,,,6,,67,0
16169,note_on,,29,0,15,,,,,,,,,,,,,,,,12,,67,0
16170,note_on,,1,0,15,,,,,,,,,,,,,,,,12,,66,72
16170,note_on,,1,0,17,,,,,,,,,,,,,,,,15,,66,72
16170,note_on,,1,0,10,,,,,,,,,,,,,,,,6,,66,72
16199,note_on,,29,0,10,,,,,,,,,,,,,,,,6,,66,0
16199,note_on,,0,0,17,,,,,,,,,,,,,,,,15,,66,0
16199,note_on,,29,0,17,,,,,,,,,,,,,,,,15,,57,0
16199,note_on,,59,0,16,,,,,,,,,,,,,,,,13,,57,0
16199,note_on,,59,0,14,,,,,,,,,,,,,,,,11,,57,0
16199,note_on,,29,0,15,,,,,,,,,,,,,,,,12,,66,0
16199,note_on,,59,0,11,,,,,,,,,,,,,,,,7,,57,0
16200,note_on,,1,0,15,,,,,,,,,,,,,,,,12,,67,72
16200,note_on,,1,0,14,,,,,,,,,,,,,,,,11,,59,72
16200,note_on,,1,0,16,,,,,,,,,,,,,,,,13,,59,72
16200,note_on,,1,0,11,,,,,,,,,,,,,,,,7,,59,72
16200,note_on,,1,0,17,,,,,,,,,,,,,,,,15,,59,72
16200,note_on,,0,0,17,,,,,,,,,,,,,,,,15,,67,72
16200,note_on,,1,0,10,,,,,,,,,,,,,,,,6,,67,72
16259,note_on,,59,0,14,,,,,,,,,,,,,,,,11,,59,0
16259,note_on,,59,0,11,,,,,,,,,,,,,,,,7,,59,0
16259,note_on,,59,0,15,,,,,,,,,,,,,,,,12,,67,0
16259,note_on,,59,0,17,,,,,,,,,,,,,,,,15,,59,0
16259,note_on,,0,0,17,,,,,,,,,,,,,,,,15,,67,0
16259,note_on,,59,0,16,,,,,,,,,,,,,,,,13,,59,0
16259,note_on,,59,0,10,,,,,,,,,,,,,,,,6,,67,0
16260,note_on,,1,0,11,,,,,,,,,,,,,,,,7,,61,72
16260,note_on,,1,0,15,,,,,,,,,,,,,,,,12,,64,72
16260,note_on,,1,0,10,,,,,,,,,,,,,,,,6,,64,72
16260,note_on,,1,0,16,,,,,,,,,,,,,,,,13,,61,72
16260,note_on,,1,0,17,,,,,,,,,,,,,,,,15,,61,72
16260,note_on,,0,0,17,,,,,,,,,,,,,,,,15,,64,72
16260,note_on,,1,0,14,,,,,,,,,,,,,,,,11,,61,72
16319,note_on,,59,0,11,,,,,,,,,,,,,,,,7,,61,0
16319,note_on,,59,0,10,,,,,,,,,,,,,,,,6,,64,0
16319,note_on,,59,0,15,,,,,,,,,,,,,,,,12,,64,0
16319,note_on,,0,0,17,,,,,,,,,,,,,,,,15,,64,0
16319,note_on,,59,0,17,,,,,,,,,,,,,,,,15,,61,0
16319,note_on,,59,0,14,,,,,,,,,,,,,,,,11,,61,0
16319,note_on,,59,0,16,,,,,,,,,,,,,,,,13,,61,0
16320,note_on,,1,0,16,,,,,,,,,,,,,,,,13,,62,72
16320,note_on,,1,0,15,,,,,,,,,,,,,,,,12,,66,72
16320,note_on,,1441,0,5,,,,,,,,,,,,,,,,0,,69,72
16320,note_on,,1,0,11,,,,,,,,,,,,,,,,7,,62,72
16320,note_on,,1441,0,9,,,,,,,,,,,,,,,,5,,69,72
16320,note_on,,0,0,17,,,,,,,,,,,,,,,,15,,66,72
16320,note_on,,1,0,17,,,,,,,,,,,,,,,,15,,62,72
16320,note_on,,1,0,10,,,,,,,,,,,,,,,,6,,66,72
16320,note_on,,361,0,13,,,,,,,,,,,,,,,,10,,69,72
16320,note_on,,1,0,14,,,,,,,,,,,,,,,,11,,62,72
16320,note_on,,2881,0,8,,,,,,,,,,,,,,,,4,,62,56
16320,note_on,,0,0,17,,,,,,,,,,,,,,,,15,,69,72
16320,note_on,,2881,0,7,,,,,,,,,,,,,,,,3,,69,56
16439,note_on,,119,0,13,,,,,,,,,,,,,,,,10,,69,0
16439,note_on,,119,0,17,,,,,,,,,,,,,,,,15,,69,0
16439,note_on,,119,0,10,,,,,,,,,,,,,,,,6,,66,0
16439,note_on,,119,0,5,,,,,,,,,,,,,,,,0,,69,0
16439,note_on,,119,0,15,,,,,,,,,,,,,,,,12,,66,0
16439,note_on,,119,0,14,,,,,,,,,,,,,,,,11,,62,0
16439,note_on,,119,0,8,,,,,,,,,,,,,,,,4,,62,0
16439,note_on,,119,0,9,,,,,,,,,,,,,,,,5,,69,0
16439,note_on,,119,0,7,,,,,,,,,,,,,,,,3,,69,0
16439,note_on,,119,0,11,,,,,,,,,,,,,,,,7,,62,0
16440,note_on,,1,0,13,,,,,,,,,,,,,,,,10,,74,72
16440,note_on,,1,0,8,,,,,,,,,,,,,,,,4,,66,56
16440,note_on,,1,0,9,,,,,,,,,,,,,,,,5,,74,72
16440,note_on,,1,0,7,,,,,,,,,,,,,,,,3,,74,56
16440,note_on,,1,0,5,,,,,,,,,,,,,,,,0,,74,72
16440,note_on,,1,0,17,,,,,,,,,,,,,,,,15,,74,72
16559,note_on,,119,0,17,,,,,,,,,,,,,,,,15,,62,0
16559,note_on,,119,0,7,,,,,,,,,,,,,,,,3,,74,0
16559,note_on,,0,0,17,,,,,,,,,,,,,,,,15,,66,0
16559,note_on,,119,0,8,,,,,,,,,,,,,,,,4,,66,0
16559,note_on,,119,0,5,,,,,,,,,,,,,,,,0,,74,0
16559,note_on,,119,0,13,,,,,,,,,,,,,,,,10,,74,0
16559,note_on,,119,0,9,,,,,,,,,,,,,,,,5,,74,0
16559,note_on,,239,0,16,,,,,,,,,,,,,,,,13,,62,0
16559,note_on,,0,0,17,,,,,,,,,,,,,,,,15,,74,0
16560,note_on,,121,0,15,,,,,,,,,,,,,,,,12,,57,72
16560,note_on,,121,0,10,,,,,,,,,,,,,,,,6,,66,72
16560,note_on,,1681,0,12,,,,,,,,,,,,,,,,8,,50,72
16560,note_on,,1,0,17,,,,,,,,,,,,,,,,15,,78,72
16560,note_on,,0,0,17,,,,,,,,,,,,,,,,15,,50,72
16560,note_on,,121,0,14,,,,,,,,,,,,,,,,11,,66,72
16560,note_on,,0,0,17,,,,,,,,,,,,,,,,15,,74,72
16560,note_on,,0,0,17,,,,,,,,,,,,,,,,15,,69,72
16560,note_on,,121,0,11,,,,,,,,,,,,,,,,7,,57,72
16560,note_on,,0,0,17,,,,,,,,,,,,,,,,15,,57,72
16560,note_on,,1,0,16,,,,,,,,,,,,,,,,13,,50,72
16560,note_on,,1681,0,6,,,,,,,,,,,,,,,,2,,50,72
16679,note_on,,119,0,15,,,,,,,,,,,,,,,,12,,57,0
16679,note_on,,119,0,14,,,,,,,,,,,,,,,,11,,66,0
16679,note_on,,119,0,10,,,,,,,,,,,,,,,,6,,66,0
16679,note_on,,119,0,11,,,,,,,,,,,,,,,,7,,57,0
16679,note_on,,119,0,16,,,,,,,,,,,,,,,,13,,50,0
16679,note_on,,0,0,17,,,,,,,,,,,,,,,,15,,57,0
16679,note_on,,0,0,17,,,,,,,,,,,,,,,,15,,69,0
16679,note_on,,0,0,17,,,,,,,,,,,,,,,,15,,74,0
16679,note_on,,0,0,17,,,,,,,,,,,,,,,,15,,50,0
16679,note_on,,119,0,17,,,,,,,,,,,,,,,,15,,78,0
16679,note_on,,119,0,6,,,,,,,,,,,,,,,,2,,50,0
16679,note_on,,119,0,12,,,,,,,,,,,,,,,,8,,50,0
16680,note_on,,1,0,11,,,,,,,,,,,,,,,,7,,59,72
16680,note_on,,1,0,14,,,,,,,,,,,,,,,,11,,62,72
16680,note_on,,0,0,17,,,,,,,,,,,,,,,,15,,67,72
16680,note_on,,0,0,17,,,,,,,,,,,,,,,,15,,71,72
16680,note_on,,0,0,17,,,,,,,,,,,,,,,,15,,74,72
16680,note_on,,1,0,10,,,,,,,,,,,,,,,,6,,62,72
16680,note_on,,1,0,15,,,,,,,,,,,,,,,,12,,59,72
16680,note_on,,1,0,6,,,,,,,,,,,,,,,,2,,55,72
16680,note_on,,1,0,16,,,,,,,,,,,,,,,,13,,55,72
16680,note_on,,1,0,17,,,,,,,,,,,,,,,,15,,55,72
16680,note_on,,1,0,12,,,,,,,,,,,,,,,,8,,55,72
16680,note_on,,0,0,17,,,,,,,,,,,,,,,,15,,59,72
16799,note_on,,119,0,11,,,,,,,,,,,,,,,,7,,59,0
16799,note_on,,119,0,14,,,,,,,,,,,,,,,,11,,62,0
16799,note_on,,119,0,6,,,,,,,,,,,,,,,,2,,55,0
16799,note_on,,119,0,15,,,,,,,,,,,,,,,,12,,59,0
16799,note_on,,0,0,17,,,,,,,,,,,,,,,,15,,74,0
16799,note_on,,0,0,17,,,,,,,,,,,,,,,,15,,71,0
16799,note_on,,0,0,17,,,,,,,,,,,,,,,,15,,67,0
16799,note_on,,0,0,17,,,,,,,,,,,,,,,,15,,59,0
16799,note_on,,119,0,16,,,,,,,,,,,,,,,,13,,55,0
16799,note_on,,119,0,12,,,,,,,,,,,,,,,,8,,55,0
16799,note_on,,119,0,10,,,,,,,,,,,,,,,,6,,62,0
16799,note_on,,119,0,17,,,,,,,,,,,,,,,,15,,55,0
16800,note_on,,241,0,9,,,,,,,,,,,,,,,,5,,71,72
16800,note_on,,1,0,17,,,,,,,,,,,,,,,,15,,71,72
16800,note_on,,241,0,5,,,,,,,,,,,,,,,,0,,71,72
16800,note_on,,241,0,13,,,,,,,,,,,,,,,,10,,71,72
16919,note_on,,119,0,13,,,,,,,,,,,,,,,,10,,71,0
16919,note_on,,119,0,5,,,,,,,,,,,,,,,,0,,71,0
16919,note_on,,119,0,9,,,,,,,,,,,,,,,,5,,71,0
16919,note_on,,119,0,17,,,,,,,,,,,,,,,,15,,71,0
16920,note_on,,1,0,5,,,,,,,,,,,,,,,,0,,76,72
16920,note_on,,1,0,17,,,,,,,,,,,,,,,,15,,76,72
16920,note_on,,1,0,13,,,,,,,,,,,,,,,,10,,76,72
16920,note_on,,1,0,9,,,,,,,,,,,,,,,,5,,76,72
17039,note_on,,119,0,9,,,,,,,,,,,,,,,,5,,76,0
17039,note_on,,119,0,5,,,,,,,,,,,,,,,,0,,76,0
17039,note_on,,119,0,13,,,,,,,,,,,,,,,,10,,76,0
17039,note_on,,119,0,17,,,,,,,,,,,,,,,,15,,76,0
17040,note_on,,1,0,17,,,,,,,,,,,,,,,,15,,52,72
17040,note_on,,0,0,17,,,,,,,,,,,,,,,,15,,76,72
17040,note_on,,241,0,6,,,,,,,,,,,,,,,,2,,52,72
17040,note_on,,241,0,15,,,,,,,,,,,,,,,,12,,64,72
17040,note_on,,241,0,16,,,,,,,,,,,,,,,,13,,52,72
17040,note_on,,241,0,14,,,,,,,,,,,,,,,,11,,67,72
17040,note_on,,0,0,17,,,,,,,,,,,,,,,,15,,79,72
17040,note_on,,241,0,11,,,,,,,,,,,,,,,,7,,64,72
17040,note_on,,0,0,17,,,,,,,,,,,,,,,,15,,71,72
17040,note_on,,241,0,12,,,,,,,,,,,,,,,,8,,52,72
17040,note_on,,0,0,17,,,,,,,,,,,,,,,,15,,55,72
17040,note_on,,241,0,10,,,,,,,,,,,,,,,,6,,67,72
17159,note_on,,119,0,14,,,,,,,,,,,,,,,,11,,67,0
17159,note_on,,119,0,15,,,,,,,,,,,,,,,,12,,64,0
17159,note_on,,119,0,6,,,,,,,,,,,,,,,,2,,52,0
17159,note_on,,0,0,17,,,,,,,,,,,,,,,,15,,55,0
17159,note_on,,0,0,17,,,,,,,,,,,,,,,,15,,71,0
17159,note_on,,119,0,10,,,,,,,,,,,,,,,,6,,67,0
17159,note_on,,119,0,11,,,,,,,,,,,,,,,,7,,64,0
17159,note_on,,119,0,17,,,,,,,,,,,,,,,,15,,52,0
17159,note_on,,0,0,17,,,,,,,,,,,,,,,,15,,76,0
17159,note_on,,0,0,17,,,,,,,,,,,,,,,,15,,79,0
17159,note_on,,119,0,12,,,,,,,,,,,,,,,,8,,52,0
17159,note_on,,119,0,16,,,,,,,,,,,,,,,,13,,52,0
17160,note_on,,1,0,16,,,,,,,,,,,,,,,,13,,57,72
17160,note_on,,1,0,11,,,,,,,,,,,,,,,,7,,61,72
17160,note_on,,1,0,15,,,,,,,,,,,,,,,,12,,61,72
17160,note_on,,0,0,17,,,,,,,,,,,,,,,,15,,69,72
17160,note_on,,1,0,6,,,,,,,,,,,,,,,,2,,57,72
17160,note_on,,0,0,17,,,,,,,,,,,,,,,,15,,76,72
17160,note_on,,1,0,17,,,,,,,,,,,,,,,,15,,57,72
17160,note_on,,1,0,14,,,,,,,,,,,,,,,,11,,64,72
17160,note_on,,1,0,10,,,,,,,,,,,,,,,,6,,64,72
17160,note_on,,1,0,12,,,,,,,,,,,,,,,,8,,57,72
17160,note_on,,0,0,17,,,,,,,,,,,,,,,,15,,73,72
17160,note_on,,0,0,17,,,,,,,,,,,,,,,,15,,64,72
17279,note_on,,119,0,10,,,,,,,,,,,,,,,,6,,64,0
17279,note_on,,119,0,11,,,,,,,,,,,,,,,,7,,61,0
17279,note_on,,119,0,12,,,,,,,,,,,,,,,,8,,57,0
17279,note_on,,0,0,17,,,,,,,,,,,,,,,,15,,76,0
17279,note_on,,119,0,14,,,,,,,,,,,,,,,,11,,64,0
17279,note_on,,119,0,17,,,,,,,,,,,,,,,,15,,57,0
17279,note_on,,0,0,17,,,,,,,,,,,,,,,,15,,73,0
17279,note_on,,0,0,17,,,,,,,,,,,,,,,,15,,69,0
17279,note_on,,0,0,17,,,,,,,,,,,,,,,,15,,64,0
17279,note_on,,119,0,6,,,,,,,,,,,,,,,,2,,57,0
17279,note_on,,119,0,16,,,,,,,,,,,,,,,,13,,57,0
17279,note_on,,119,0,15,,,,,,,,,,,,,,,,12,,61,0
17280,note_on,,241,0,5,,,,,,,,,,,,,,,,0,,73,72
17280,note_on,,1,0,17,,,,,,,,,,,,,,,,15,,73,72
17280,note_on,,241,0,13,,,,,,,,,,,,,,,,10,,73,72
17280,note_on,,241,0,9,,,,,,,,,,,,,,,,5,,73,72
17399,note_on,,119,0,5,,,,,,,,,,,,,,,,0,,73,0
17399,note_on,,119,0,17,,,,,,,,,,,,,,,,15,,73,0
17399,note_on,,119,0,13,,,,,,,,,,,,,,,,10,,73,0
17399,note_on,,119,0,9,,,,,,,,,,,,,,,,5,,73,0
17400,note_on,,1,0,5,,,,,,,,,,,,,,,,0,,78,72
17400,note_on,,1,0,17,,,,,,,,,,,,,,,,15,,78,72
17400,note_on,,1,0,9,,,,,,,,,,,,,,,,5,,78,72
17400,note_on,,1,0,13,,,,,,,,,,,,,,,,10,,78,72
17519,note_on,,119,0,9,,,,,,,,,,,,,,,,5,,78,0
17519,note_on,,119,0,13,,,,,,,,,,,,,,,,10,,78,0
17519,note_on,,119,0,5,,,,,,,,,,,,,,,,0,,78,0
17519,note_on,,119,0,17,,,,,,,,,,,,,,,,15,,78,0
17520,note_on,,0,0,17,,,,,,,,,,,,,,,,15,,57,72
17520,note_on,,241,0,10,,,,,,,,,,,,,,,,6,,69,72
17520,note_on,,1,0,17,,,,,,,,,,,,,,,,15,,54,72
17520,note_on,,0,0,17,,,,,,,,,,,,,,,,15,,81,72
17520,note_on,,241,0,14,,,,,,,,,,,,,,,,11,,69,72
17520,note_on,,0,0,17,,,,,,,,,,,,,,,,15,,73,72
17520,note_on,,241,0,15,,,,,,,,,,,,,,,,12,,66,72
17520,note_on,,241,0,6,,,,,,,,,,,,,,,,2,,54,72
17520,note_on,,241,0,12,,,,,,,,,,,,,,,,8,,54,72
17520,note_on,,0,0,17,,,,,,,,,,,,,,,,15,,78,72
17520,note_on,,241,0,16,,,,,,,,,,,,,,,,13,,54,72
17520,note_on,,241,0,11,,,,,,,,,,,,,,,,7,,66,72
17639,note_on,,119,0,14,,,,,,,,,,,,,,,,11,,69,0
17639,note_on,,119,0,16,,,,,,,,,,,,,,,,13,,54,0
17639,note_on,,119,0,10,,,,,,,,,,,,,,,,6,,69,0
17639,note_on,,0,0,17,,,,,,,,,,,,,,,,15,,81,0
17639,note_on,,119,0,17,,,,,,,,,,,,,,,,15,,54,0
17639,note_on,,0,0,17,,,,,,,,,,,,,,,,15,,73,0
17639,note_on,,0,0,17,,,,,,,,,,,,,,,,15,,57,0
17639,note_on,,119,0,15,,,,,,,,,,,,,,,,12,,66,0
17639,note_on,,119,0,12,,,,,,,,,,,,,,,,8,,54,0
17639,note_on,,119,0,11,,,,,,,,,,,,,,,,7,,66,0
17639,note_on,,119,0,6,,,,,,,,,,,,,,,,2,,54,0
17639,note_on,,0,0,17,,,,,,,,,,,,,,,,15,,78,0
17640,note_on,,1,0,16,,,,,,,,,,,,,,,,13,,59,72
17640,note_on,,1,0,15,,,,,,,,,,,,,,,,12,,62,72
17640,note_on,,1,0,14,,,,,,,,,,,,,,,,11,,66,72
17640,note_on,,1,0,10,,,,,,,,,,,,,,,,6,,66,72
17640,note_on,,1,0,11,,,,,,,,,,,,,,,,7,,62,72
17640,note_on,,1,0,6,,,,,,,,,,,,,,,,2,,59,72
17640,note_on,,0,0,17,,,,,,,,,,,,,,,,15,,62,72
17640,note_on,,1,0,12,,,,,,,,,,,,,,,,8,,59,72
17640,note_on,,0,0,17,,,,,,,,,,,,,,,,15,,71,72
17640,note_on,,0,0,17,,,,,,,,,,,,,,,,15,,78,72
17640,note_on,,0,0,17,,,,,,,,,,,,,,,,15,,74,72
17640,note_on,,1,0,17,,,,,,,,,,,,,,,,15,,59,72
17759,note_on,,0,0,17,,,,,,,,,,,,,,,,15,,62,0
17759,note_on,,119,0,10,,,,,,,,,,,,,,,,6,,66,0
17759,note_on,,0,0,17,,,,,,,,,,,,,,,,15,,78,0
17759,note_on,,119,0,15,,,,,,,,,,,,,,,,12,,62,0
17759,note_on,,0,0,17,,,,,,,,,,,,,,,,15,,74,0
17759,note_on,,119,0,17,,,,,,,,,,,,,,,,15,,59,0
17759,note_on,,119,0,14,,,,,,,,,,,,,,,,11,,66,0
17759,note_on,,0,0,17,,,,,,,,,,,,,,,,15,,71,0
17759,note_on,,119,0,6,,,,,,,,,,,,,,,,2,,59,0
17759,note_on,,119,0,12,,,,,,,,,,,,,,,,8,,59,0
17759,note_on,,119,0,16,,,,,,,,,,,,,,,,13,,59,0
17759,note_on,,119,0,11,,,,,,,,,,,,,,,,7,,62,0
17760,note_on,,1,0,17,,,,,,,,,,,,,,,,15,,74,72
17760,note_on,,241,0,9,,,,,,,,,,,,,,,,5,,74,72
17760,note_on,,1201,0,7,,,,,,,,,,,,,,,,3,,74,56
17760,note_on,,241,0,5,,,,,,,,,,,,,,,,0,,74,72
17760,note_on,,241,0,13,,,,,,,,,,,,,,,,10,,74,72
17879,note_on,,119,0,5,,,,,,,,,,,,,,,,0,,74,0
17879,note_on,,119,0,9,,,,,,,,,,,,,,,,5,,74,0
17879,note_on,,119,0,17,,,,,,,,,,,,,,,,15,,74,0
17879,note_on,,119,0,13,,,,,,,,,,,,,,,,10,,74,0
17879,note_on,,119,0,7,,,,,,,,,,,,,,,,3,,74,0
17880,note_on,,1,0,5,,,,,,,,,,,,,,,,0,,79,72
17880,note_on,,1,0,9,,,,,,,,,,,,,,,,5,,79,72
17880,note_on,,1,0,7,,,,,,,,,,,,,,,,3,,79,56
17880,note_on,,1,0,17,,,,,,,,,,,,,,,,15,,79,72
17880,note_on,,1,0,13,,,,,,,,,,,,,,,,10,,79,72
17999,note_on,,119,0,17,,,,,,,,,,,,,,,,15,,79,0
18000,note_on,,0,0,17,,,,,,,,,,,,,,,,15,,69,72
18000,note_on,,241,0,16,,,,,,,,,,,,,,,,13,,57,72
18000,note_on,,0,0,17,,,,,,,,,,,,,,,,15,,73,72
18000,note_on,,241,0,12,,,,,,,,,,,,,,,,8,,57,72
18000,note_on,,0,0,17,,,,,,,,,,,,,,,,15,,61,72
18000,note_on,,241,0,6,,,,,,,,,,,,,,,,2,,57,72
18000,note_on,,1,0,17,,,,,,,,,,,,,,,,15,,57,72
18000,note_on,,0,0,17,,,,,,,,,,,,,,,,15,,76,72
18059,note_on,,179,0,13,,,,,,,,,,,,,,,,10,,79,0
18059,note_on,,179,0,7,,,,,,,,,,,,,,,,3,,79,0
18059,note_on,,179,0,9,,,,,,,,,,,,,,,,5,,79,0
18059,note_on,,179,0,5,,,,,,,,,,,,,,,,0,,79,0
18060,note_on,,1,0,9,,,,,,,,,,,,,,,,5,,78,72
18060,note_on,,1,0,13,,,,,,,,,,,,,,,,10,,78,72
18060,note_on,,1,0,5,,,,,,,,,,,,,,,,0,,78,72
18060,note_on,,1,0,7,,,,,,,,,,,,,,,,3,,78,56
18089,note_on,,29,0,7,,,,,,,,,,,,,,,,3,,78,0
18089,note_on,,29,0,13,,,,,,,,,,,,,,,,10,,78,0
18089,note_on,,29,0,9,,,,,,,,,,,,,,,,5,,78,0
18089,note_on,,29,0,5,,,,,,,,,,,,,,,,0,,78,0
18090,note_on,,1,0,13,,,,,,,,,,,,,,,,10,,76,72
18090,note_on,,1,0,5,,,,,,,,,,,,,,,,0,,76,72
18090,note_on,,1,0,9,,,,,,,,,,,,,,,,5,,76,72
18090,note_on,,1,0,7,,,,,,,,,,,,,,,,3,,76,56
18119,note_on,,29,0,9,,,,,,,,,,,,,,,,5,,76,0
18119,note_on,,29,0,5,,,,,,,,,,,,,,,,0,,76,0
18119,note_on,,29,0,7,,,,,,,,,,,,,,,,3,,76,0
18119,note_on,,29,0,13,,,,,,,,,,,,,,,,10,,76,0
18119,note_on,,119,0,6,,,,,,,,,,,,,,,,2,,57,0
18119,note_on,,119,0,16,,,,,,,,,,,,,,,,13,,57,0
18119,note_on,,0,0,17,,,,,,,,,,,,,,,,15,,61,0
18119,note_on,,0,0,17,,,,,,,,,,,,,,,,15,,69,0
18119,note_on,,0,0,17,,,,,,,,,,,,,,,,15,,73,0
18119,note_on,,0,0,17,,,,,,,,,,,,,,,,15,,76,0
18119,note_on,,119,0,17,,,,,,,,,,,,,,,,15,,57,0
18119,note_on,,119,0,12,,,,,,,,,,,,,,,,8,,57,0
18120,note_on,,1,0,12,,,,,,,,,,,,,,,,8,,62,72
18120,note_on,,361,0,11,,,,,,,,,,,,,,,,7,,66,72
18120,note_on,,1,0,7,,,,,,,,,,,,,,,,3,,78,56
18120,note_on,,1,0,13,,,,,,,,,,,,,,,,10,,78,72
18120,note_on,,361,0,14,,,,,,,,,,,,,,,,11,,81,72
18120,note_on,,1,0,9,,,,,,,,,,,,,,,,5,,78,72
18120,note_on,,0,0,17,,,,,,,,,,,,,,,,15,,78,72
18120,note_on,,1,0,6,,,,,,,,,,,,,,,,2,,62,72
18120,note_on,,0,0,17,,,,,,,,,,,,,,,,15,,74,72
18120,note_on,,0,0,17,,,,,,,,,,,,,,,,15,,69,72
18120,note_on,,0,0,17,,,,,,,,,,,,,,,,15,,66,72
18120,note_on,,1,0,17,,,,,,,,,,,,,,,,15,,62,72
18120,note_on,,361,0,10,,,,,,,,,,,,,,,,6,,69,72
18120,note_on,,1,0,5,,,,,,,,,,,,,,,,0,,78,72
18120,note_on,,1,0,16,,,,,,,,,,,,,,,,13,,62,72
18120,note_on,,361,0,15,,,,,,,,,,,,,,,,12,,66,72
18179,note_on,,59,0,13,,,,,,,,,,,,,,,,10,,78,0
18179,note_on,,59,0,5,,,,,,,,,,,,,,,,0,,78,0
18179,note_on,,59,0,9,,,,,,,,,,,,,,,,5,,78,0
18179,note_on,,59,0,7,,,,,,,,,,,,,,,,3,,78,0
18180,note_on,,1,0,13,,,,,,,,,,,,,,,,10,,74,72
18180,note_on,,1,0,9,,,,,,,,,,,,,,,,5,,74,72
18180,note_on,,1,0,5,,,,,,,,,,,,,,,,0,,74,72
18180,note_on,,1,0,7,,,,,,,,,,,,,,,,3,,74,56
18239,note_on,,119,0,14,,,,,,,,,,,,,,,,11,,81,0
18239,note_on,,59,0,13,,,,,,,,,,,,,,,,10,,74,0
18239,note_on,,119,0,15,,,,,,,,,,,,,,,,12,,66,0
18239,note_on,,119,0,17,,,,,,,,,,,,,,,,15,,78,0
18239,note_on,,0,0,17,,,,,,,,,,,,,,,,15,,74,0
18239,note_on,,0,0,17,,,,,,,,,,,,,,,,15,,69,0
18239,note_on,,0,0,17,,,,,,,,,,,,,,,,15,,66,0
18239,note_on,,59,0,5,,,,,,,,,,,,,,,,0,,74,0
18239,note_on,,119,0,11,,,,,,,,,,,,,,,,7,,66,0
18239,note_on,,59,0,9,,,,,,,,,,,,,,,,5,,74,0
18239,note_on,,59,0,7,,,,,,,,,,,,,,,,3,,74,0
18239,note_on,,119,0,10,,,,,,,,,,,,,,,,6,,69,0
18240,note_on,,0,0,17,,,,,,,,,,,,,,,,15,,76,72
18240,note_on,,0,0,17,,,,,,,,,,,,,,,,15,,64,72
18240,note_on,,1,0,7,,,,,,,,,,,,,,,,3,,76,56
18240,note_on,,1,0,9,,,,,,,,,,,,,,,,5,,76,72
18240,note_on,,1,0,15,,,,,,,,,,,,,,,,12,,64,72
18240,note_on,,1,0,5,,,,,,,,,,,,,,,,0,,76,72
18240,note_on,,1,0,11,,,,,,,,,,,,,,,,7,,64,72
18240,note_on,,1,0,14,,,,,,,,,,,,,,,,11,,79,72
18240,note_on,,0,0,17,,,,,,,,,,,,,,,,15,,71,72
18240,note_on,,1681,0,8,,,,,,,,,,,,,,,,4,,69,56
18240,note_on,,1,0,17,,,,,,,,,,,,,,,,15,,79,72
18240,note_on,,1,0,13,,,,,,,,,,,,,,,,10,,76,72
18240,note_on,,1,0,10,,,,,,,,,,,,,,,,6,,67,72
18299,note_on,,179,0,16,,,,,,,,,,,,,,,,13,,62,0
18299,note_on,,179,0,6,,,,,,,,,,,,,,,,2,,62,0
18299,note_on,,59,0,17,,,,,,,,,,,,,,,,15,,62,0
18299,note_on,,179,0,12,,,,,,,,,,,,,,,,8,,62,0
18300,note_on,,1,0,16,,,,,,,,,,,,,,,,13,,61,72
18300,note_on,,1,0,6,,,,,,,,,,,,,,,,2,,61,72
18300,note_on,,1,0,17,,,,,,,,,,,,,,,,15,,61,72
18300,note_on,,1,0,12,,,,,,,,,,,,,,,,8,,61,72
18329,note_on,,29,0,16,,,,,,,,,,,,,,,,13,,61,0
18329,note_on,,29,0,17,,,,,,,,,,,,,,,,15,,61,0
18329,note_on,,29,0,12,,,,,,,,,,,,,,,,8,,61,0
18329,note_on,,29,0,6,,,,,,,,,,,,,,,,2,,61,0
18330,note_on,,1,0,6,,,,,,,,,,,,,,,,2,,59,72
18330,note_on,,1,0,16,,,,,,,,,,,,,,,,13,,59,72
18330,note_on,,1,0,12,,,,,,,,,,,,,,,,8,,59,72
18330,note_on,,1,0,17,,,,,,,,,,,,,,,,15,,59,72
18359,note_on,,119,0,8,,,,,,,,,,,,,,,,4,,69,0
18359,note_on,,119,0,10,,,,,,,,,,,,,,,,6,,67,0
18359,note_on,,29,0,6,,,,,,,,,,,,,,,,2,,59,0
18359,note_on,,29,0,12,,,,,,,,,,,,,,,,8,,59,0
18359,note_on,,119,0,11,,,,,,,,,,,,,,,,7,,64,0
18359,note_on,,0,0,17,,,,,,,,,,,,,,,,15,,76,0
18359,note_on,,29,0,16,,,,,,,,,,,,,,,,13,,59,0
18359,note_on,,29,0,17,,,,,,,,,,,,,,,,15,,79,0
18359,note_on,,119,0,14,,,,,,,,,,,,,,,,11,,79,0
18359,note_on,,0,0,17,,,,,,,,,,,,,,,,15,,71,0
18359,note_on,,0,0,17,,,,,,,,,,,,,,,,15,,59,0
18359,note_on,,0,0,17,,,,,,,,,,,,,,,,15,,64,0
18360,note_on,,0,0,17,,,,,,,,,,,,,,,,15,,64,72
18360,note_on,,1,0,11,,,,,,,,,,,,,,,,7,,64,72
18360,note_on,,0,0,17,,,,,,,,,,,,,,,,15,,69,72
18360,note_on,,0,0,17,,,,,,,,,,,,,,,,15,,76,72
18360,note_on,,1,0,17,,,,,,,,,,,,,,,,15,,61,72
18360,note_on,,1,0,8,,,,,,,,,,,,,,,,4,,76,56
18360,note_on,,1,0,14,,,,,,,,,,,,,,,,11,,81,72
18360,note_on,,1,0,10,,,,,,,,,,,,,,,,6,,69,72
18360,note_on,,1,0,16,,,,,,,,,,,,,,,,13,,61,72
18360,note_on,,1,0,12,,,,,,,,,,,,,,,,8,,61,72
18360,note_on,,1,0,6,,,,,,,,,,,,,,,,2,,61,72
18419,note_on,,0,0,17,,,,,,,,,,,,,,,,15,,76,0
18419,note_on,,179,0,9,,,,,,,,,,,,,,,,5,,76,0
18419,note_on,,179,0,7,,,,,,,,,,,,,,,,3,,76,0
18419,note_on,,59,0,17,,,,,,,,,,,,,,,,15,,61,0
18419,note_on,,59,0,6,,,,,,,,,,,,,,,,2,,61,0
18419,note_on,,59,0,11,,,,,,,,,,,,,,,,7,,64,0
18419,note_on,,59,0,12,,,,,,,,,,,,,,,,8,,61,0
18419,note_on,,59,0,16,,,,,,,,,,,,,,,,13,,61,0
18419,note_on,,179,0,15,,,,,,,,,,,,,,,,12,,64,0
18419,note_on,,179,0,13,,,,,,,,,,,,,,,,10,,76,0
18419,note_on,,59,0,10,,,,,,,,,,,,,,,,6,,69,0
18419,note_on,,179,0,5,,,,,,,,,,,,,,,,0,,76,0
18420,note_on,,1,0,10,,,,,,,,,,,,,,,,6,,69,72
18420,note_on,,1,0,7,,,,,,,,,,,,,,,,3,,78,56
18420,note_on,,1,0,11,,,,,,,,,,,,,,,,7,,61,72
18420,note_on,,1,0,5,,,,,,,,,,,,,,,,0,,78,72
18420,note_on,,1,0,15,,,,,,,,,,,,,,,,12,,61,72
18420,note_on,,1,0,12,,,,,,,,,,,,,,,,8,,57,72
18420,note_on,,1,0,13,,,,,,,,,,,,,,,,10,,78,72
18420,note_on,,1,0,9,,,,,,,,,,,,,,,,5,,78,72
18420,note_on,,1,0,16,,,,,,,,,,,,,,,,13,,57,72
18420,note_on,,1,0,6,,,,,,,,,,,,,,,,2,,57,72
18420,note_on,,1,0,17,,,,,,,,,,,,,,,,15,,57,72
18420,note_on,,0,0,17,,,,,,,,,,,,,,,,15,,73,72
18479,note_on,,59,0,10,,,,,,,,,,,,,,,,6,,69,0
18479,note_on,,0,0,17,,,,,,,,,,,,,,,,15,,64,0
18479,note_on,,119,0,14,,,,,,,,,,,,,,,,11,,81,0
18479,note_on,,59,0,7,,,,,,,,,,,,,,,,3,,78,0
18479,note_on,,59,0,6,,,,,,,,,,,,,,,,2,,57,0
18479,note_on,,59,0,11,,,,,,,,,,,,,,,,7,,61,0
18479,note_on,,119,0,8,,,,,,,,,,,,,,,,4,,76,0
18479,note_on,,0,0,17,,,,,,,,,,,,,,,,15,,57,0
18479,note_on,,59,0,5,,,,,,,,,,,,,,,,0,,78,0
18479,note_on,,59,0,15,,,,,,,,,,,,,,,,12,,61,0
18479,note_on,,59,0,12,,,,,,,,,,,,,,,,8,,57,0
18479,note_on,,59,0,17,,,,,,,,,,,,,,,,15,,69,0
18479,note_on,,59,0,9,,,,,,,,,,,,,,,,5,,78,0
18479,note_on,,59,0,16,,,,,,,,,,,,,,,,13,,57,0
18479,note_on,,59,0,13,,,,,,,,,,,,,,,,10,,78,0
18479,note_on,,0,0,17,,,,,,,,,,,,,,,,15,,73,0
18480,note_on,,1,0,5,,,,,,,,,,,,,,,,0,,79,72
18480,note_on,,1,0,6,,,,,,,,,,,,,,,,2,,59,72
18480,note_on,,1,0,13,,,,,,,,,,,,,,,,10,,79,72
18480,note_on,,1,0,10,,,,,,,,,,,,,,,,6,,62,72
18480,note_on,,1,0,12,,,,,,,,,,,,,,,,8,,59,72
18480,note_on,,1,0,11,,,,,,,,,,,,,,,,7,,62,72
18480,note_on,,1,0,16,,,,,,,,,,,,,,,,13,,59,72
18480,note_on,,1,0,15,,,,,,,,,,,,,,,,12,,62,72
18480,note_on,,1,0,8,,,,,,,,,,,,,,,,4,,74,56
18480,note_on,,0,0,17,,,,,,,,,,,,,,,,15,,74,72
18480,note_on,,1,0,17,,,,,,,,,,,,,,,,15,,59,72
18480,note_on,,1,0,9,,,,,,,,,,,,,,,,5,,79,72
18480,note_on,,1,0,14,,,,,,,,,,,,,,,,11,,74,72
18480,note_on,,1,0,7,,,,,,,,,,,,,,,,3,,79,56
18480,note_on,,0,0,17,,,,,,,,,,,,,,,,15,,62,72
18480,note_on,,0,0,17,,,,,,,,,,,,,,,,15,,67,72
18539,note_on,,59,0,17,,,,,,,,,,,,,,,,15,,59,0
18539,note_on,,59,0,15,,,,,,,,,,,,,,,,12,,62,0
18539,note_on,,59,0,6,,,,,,,,,,,,,,,,2,,59,0
18539,note_on,,59,0,16,,,,,,,,,,,,,,,,13,,59,0
18539,note_on,,59,0,12,,,,,,,,,,,,,,,,8,,59,0
18539,note_on,,59,0,11,,,,,,,,,,,,,,,,7,,62,0
18539,note_on,,0,0,17,,,,,,,,,,,,,,,,15,,62,0
18540,note_on,,1,0,17,,,,,,,,,,,,,,,,15,,57,72
18540,note_on,,1,0,16,,,,,,,,,,,,,,,,13,,57,72
18540,note_on,,0,0,17,,,,,,,,,,,,,,,,15,,61,72
18540,note_on,,1,0,12,,,,,,,,,,,,,,,,8,,57,72
18540,note_on,,1,0,6,,,,,,,,,,,,,,,,2,,57,72
18540,note_on,,1,0,11,,,,,,,,,,,,,,,,7,,61,72
18540,note_on,,1,0,15,,,,,,,,,,,,,,,,12,,61,72
18599,note_on,,59,0,12,,,,,,,,,,,,,,,,8,,57,0
18599,note_on,,59,0,6,,,,,,,,,,,,,,,,2,,57,0
18599,note_on,,59,0,15,,,,,,,,,,,,,,,,12,,61,0
18599,note_on,,59,0,17,,,,,,,,,,,,,,,,15,,57,0
18599,note_on,,0,0,17,,,,,,,,,,,,,,,,15,,61,0
18599,note_on,,59,0,11,,,,,,,,,,,,,,,,7,,61,0
18599,note_on,,59,0,16,,,,,,,,,,,,,,,,13,,57,0
18599,note_on,,119,0,10,,,,,,,,,,,,,,,,6,,62,0
18599,note_on,,119,0,14,,,,,,,,,,,,,,,,11,,74,0
18600,note_on,,1,0,6,,,,,,,,,,,,,,,,2,,59,72
18600,note_on,,1,0,16,,,,,,,,,,,,,,,,13,,59,72
18600,note_on,,1,0,17,,,,,,,,,,,,,,,,15,,59,72
18600,note_on,,0,0,17,,,,,,,,,,,,,,,,15,,62,72
18600,note_on,,1,0,12,,,,,,,,,,,,,,,,8,,59,72
18600,note_on,,1,0,11,,,,,,,,,,,,,,,,7,,62,72
18600,note_on,,1,0,15,,,,,,,,,,,,,,,,12,,62,72
18600,note_on,,1,0,14,,,,,,,,,,,,,,,,11,,83,72
18600,note_on,,1,0,10,,,,,,,,,,,,,,,,6,,71,72
18659,note_on,,59,0,16,,,,,,,,,,,,,,,,13,,59,0
18659,note_on,,59,0,11,,,,,,,,,,,,,,,,7,,62,0
18659,note_on,,179,0,8,,,,,,,,,,,,,,,,4,,74,0
18659,note_on,,0,0,17,,,,,,,,,,,,,,,,15,,59,0
18659,note_on,,0,0,17,,,,,,,,,,,,,,,,15,,62,0
18659,note_on,,59,0,15,,,,,,,,,,,,,,,,12,,62,0
18659,note_on,,59,0,6,,,,,,,,,,,,,,,,2,,59,0
18659,note_on,,0,0,17,,,,,,,,,,,,,,,,15,,67,0
18659,note_on,,59,0,12,,,,,,,,,,,,,,,,8,,59,0
18659,note_on,,59,0,17,,,,,,,,,,,,,,,,15,,74,0
18660,note_on,,1,0,11,,,,,,,,,,,,,,,,7,,64,72
18660,note_on,,1,0,8,,,,,,,,,,,,,,,,4,,76,56
18660,note_on,,1,0,17,,,,,,,,,,,,,,,,15,,61,72
18660,note_on,,1,0,12,,,,,,,,,,,,,,,,8,,61,72
18660,note_on,,1,0,15,,,,,,,,,,,,,,,,12,,64,72
18660,note_on,,1,0,16,,,,,,,,,,,,,,,,13,,61,72
18660,note_on,,0,0,17,,,,,,,,,,,,,,,,15,,64,72
18660,note_on,,0,0,17,,,,,,,,,,,,,,,,15,,69,72
18660,note_on,,1,0,6,,,,,,,,,,,,,,,,2,,61,72
18660,note_on,,0,0,17,,,,,,,,,,,,,,,,15,,67,72
18719,note_on,,59,0,12,,,,,,,,,,,,,,,,8,,61,0
18719,note_on,,59,0,6,,,,,,,,,,,,,,,,2,,61,0
18719,note_on,,59,0,11,,,,,,,,,,,,,,,,7,,64,0
18719,note_on,,0,0,17,,,,,,,,,,,,,,,,15,,64,0
18719,note_on,,0,0,17,,,,,,,,,,,,,,,,15,,69,0
18719,note_on,,0,0,17,,,,,,,,,,,,,,,,15,,67,0
18719,note_on,,239,0,7,,,,,,,,,,,,,,,,3,,79,0
18719,note_on,,239,0,13,,,,,,,,,,,,,,,,10,,79,0
18719,note_on,,119,0,10,,,,,,,,,,,,,,,,6,,71,0
18719,note_on,,59,0,17,,,,,,,,,,,,,,,,15,,61,0
18719,note_on,,59,0,8,,,,,,,,,,,,,,,,4,,76,0
18719,note_on,,59,0,16,,,,,,,,,,,,,,,,13,,61,0
18719,note_on,,119,0,14,,,,,,,,,,,,,,,,11,,83,0
18719,note_on,,59,0,15,,,,,,,,,,,,,,,,12,,64,0
18719,note_on,,239,0,9,,,,,,,,,,,,,,,,5,,79,0
18719,note_on,,239,0,5,,,,,,,,,,,,,,,,0,,79,0
18720,note_on,,1,0,13,,,,,,,,,,,,,,,,10,,78,72
18720,note_on,,1,0,15,,,,,,,,,,,,,,,,12,,66,72
18720,note_on,,1,0,7,,,,,,,,,,,,,,,,3,,78,56
18720,note_on,,1,0,17,,,,,,,,,,,,,,,,15,,62,72
18720,note_on,,1,0,5,,,,,,,,,,,,,,,,0,,78,72
18720,note_on,,0,0,17,,,,,,,,,,,,,,,,15,,66,72
18720,note_on,,1,0,16,,,,,,,,,,,,,,,,13,,62,72
18720,note_on,,1,0,14,,,,,,,,,,,,,,,,11,,81,72
18720,note_on,,0,0,17,,,,,,,,,,,,,,,,15,,69,72
18720,note_on,,1,0,10,,,,,,,,,,,,,,,,6,,69,72
18720,note_on,,1,0,8,,,,,,,,,,,,,,,,4,,69,56
18720,note_on,,1,0,9,,,,,,,,,,,,,,,,5,,78,72
18720,note_on,,1,0,6,,,,,,,,,,,,,,,,2,,62,72
18720,note_on,,1,0,12,,,,,,,,,,,,,,,,8,,62,72
18720,note_on,,1,0,11,,,,,,,,,,,,,,,,7,,66,72
18839,note_on,,119,0,10,,,,,,,,,,,,,,,,6,,69,0
18839,note_on,,119,0,13,,,,,,,,,,,,,,,,10,,78,0
18839,note_on,,119,0,8,,,,,,,,,,,,,,,,4,,69,0
18839,note_on,,119,0,7,,,,,,,,,,,,,,,,3,,78,0
18839,note_on,,119,0,15,,,,,,,,,,,,,,,,12,,66,0
18839,note_on,,119,0,12,,,,,,,,,,,,,,,,8,,62,0
18839,note_on,,119,0,5,,,,,,,,,,,,,,,,0,,78,0
18839,note_on,,119,0,6,,,,,,,,,,,,,,,,2,,62,0
18839,note_on,,0,0,17,,,,,,,,,,,,,,,,15,,69,0
18839,note_on,,119,0,17,,,,,,,,,,,,,,,,15,,62,0
18839,note_on,,119,0,14,,,,,,,,,,,,,,,,11,,81,0
18839,note_on,,119,0,16,,,,,,,,,,,,,,,,13,,62,0
18839,note_on,,119,0,11,,,,,,,,,,,,,,,,7,,66,0
18839,note_on,,119,0,9,,,,,,,,,,,,,,,,5,,78,0
18839,note_on,,0,0,17,,,,,,,,,,,,,,,,15,,66,0
18840,note_on,,1,0,9,,,,,,,,,,,,,,,,5,,76,72
18840,note_on,,0,0,17,,,,,,,,,,,,,,,,15,,59,72
18840,note_on,,0,0,17,,,,,,,,,,,,,,,,15,,67,72
18840,note_on,,0,0,17,,,,,,,,,,,,,,,,15,,76,72
18840,note_on,,1,0,5,,,,,,,,,,,,,,,,0,,76,72
18840,note_on,,1,0,15,,,,,,,,,,,,,,,,12,,71,72
18840,note_on,,1,0,6,,,,,,,,,,,,,,,,2,,55,72
18840,note_on,,1,0,16,,,,,,,,,,,,,,,,13,,55,72
18840,note_on,,1,0,14,,,,,,,,,,,,,,,,11,,79,72
18840,note_on,,1,0,8,,,,,,,,,,,,,,,,4,,79,56
18840,note_on,,1,0,17,,,,,,,,,,,,,,,,15,,55,72
18840,note_on,,1,0,10,,,,,,,,,,,,,,,,6,,67,72
18840,note_on,,0,0,17,,,,,,,,,,,,,,,,15,,71,72
18840,note_on,,1,0,11,,,,,,,,,,,,,,,,7,,59,72
18840,note_on,,1,0,12,,,,,,,,,,,,,,,,8,,55,72
18840,note_on,,1,0,7,,,,,,,,,,,,,,,,3,,76,56
18840,note_on,,1,0,13,,,,,,,,,,,,,,,,10,,76,72
18899,note_on,,59,0,8,,,,,,,,,,,,,,,,4,,79,0
18899,note_on,,59,0,13,,,,,,,,,,,,,,,,10,,76,0
18899,note_on,,59,0,14,,,,,,,,,,,,,,,,11,,79,0
18899,note_on,,59,0,5,,,,,,,,,,,,,,,,0,,76,0
18899,note_on,,59,0,9,,,,,,,,,,,,,,,,5,,76,0
18899,note_on,,59,0,15,,,,,,,,,,,,,,,,12,,71,0
18900,note_on,,1,0,5,,,,,,,,,,,,,,,,0,,74,72
18900,note_on,,1,0,14,,,,,,,,,,,,,,,,11,,78,72
18900,note_on,,1,0,15,,,,,,,,,,,,,,,,12,,74,72
18900,note_on,,1,0,8,,,,,,,,,,,,,,,,4,,78,56
18900,note_on,,1,0,9,,,,,,,,,,,,,,,,5,,74,72
18900,note_on,,1,0,13,,,,,,,,,,,,,,,,10,,74,72
18959,note_on,,59,0,5,,,,,,,,,,,,,,,,0,,74,0
18959,note_on,,119,0,11,,,,,,,,,,,,,,,,7,,59,0
18959,note_on,,59,0,8,,,,,,,,,,,,,,,,4,,78,0
18959,note_on,,59,0,13,,,,,,,,,,,,,,,,10,,74,0
18959,note_on,,119,0,10,,,,,,,,,,,,,,,,6,,67,0
18959,note_on,,119,0,17,,,,,,,,,,,,,,,,15,,76,0
18959,note_on,,59,0,9,,,,,,,,,,,,,,,,5,,74,0
18959,note_on,,119,0,7,,,,,,,,,,,,,,,,3,,76,0
18959,note_on,,0,0,17,,,,,,,,,,,,,,,,15,,71,0
18959,note_on,,0,0,17,,,,,,,,,,,,,,,,15,,67,0
18959,note_on,,59,0,14,,,,,,,,,,,,,,,,11,,78,0
18959,note_on,,59,0,15,,,,,,,,,,,,,,,,12,,74,0
18959,note_on,,0,0,17,,,,,,,,,,,,,,,,15,,59,0
18960,note_on,,0,0,17,,,,,,,,,,,,,,,,15,,69,72
18960,note_on,,0,0,17,,,,,,,,,,,,,,,,15,,73,72
18960,note_on,,0,0,17,,,,,,,,,,,,,,,,15,,57,72
18960,note_on,,1,0,13,,,,,,,,,,,,,,,,10,,85,72
18960,note_on,,1,0,5,,,,,,,,,,,,,,,,0,,73,72
18960,note_on,,1,0,7,,,,,,,,,,,,,,,,3,,81,56
18960,note_on,,1,0,15,,,,,,,,,,,,,,,,12,,69,72
18960,note_on,,1,0,14,,,,,,,,,,,,,,,,11,,76,72
18960,note_on,,1,0,9,,,,,,,,,,,,,,,,5,,73,72
18960,note_on,,1,0,10,,,,,,,,,,,,,,,,6,,69,72
18960,note_on,,1,0,17,,,,,,,,,,,,,,,,15,,81,72
18960,note_on,,0,0,17,,,,,,,,,,,,,,,,15,,76,72
18960,note_on,,1,0,11,,,,,,,,,,,,,,,,7,,64,72
18960,note_on,,1,0,8,,,,,,,,,,,,,,,,4,,76,56
19079,note_on,,119,0,8,,,,,,,,,,,,,,,,4,,76,0
19079,note_on,,119,0,9,,,,,,,,,,,,,,,,5,,73,0
19079,note_on,,119,0,11,,,,,,,,,,,,,,,,7,,64,0
19079,note_on,,119,0,14,,,,,,,,,,,,,,,,11,,76,0
19079,note_on,,119,0,15,,,,,,,,,,,,,,,,12,,69,0
19079,note_on,,239,0,6,,,,,,,,,,,,,,,,2,,55,0
19079,note_on,,239,0,12,,,,,,,,,,,,,,,,8,,55,0
19079,note_on,,119,0,5,,,,,,,,,,,,,,,,0,,73,0
19079,note_on,,119,0,13,,,,,,,,,,,,,,,,10,,85,0
19079,note_on,,239,0,16,,,,,,,,,,,,,,,,13,,55,0
19079,note_on,,0,0,17,,,,,,,,,,,,,,,,15,,81,0
19079,note_on,,119,0,17,,,,,,,,,,,,,,,,15,,55,0
19079,note_on,,0,0,17,,,,,,,,,,,,,,,,15,,69,0
19079,note_on,,0,0,17,,,,,,,,,,,,,,,,15,,57,0
19079,note_on,,0,0,17,,,,,,,,,,,,,,,,15,,73,0
19079,note_on,,0,0,17,,,,,,,,,,,,,,,,15,,76,0
19080,note_on,,1,0,12,,,,,,,,,,,,,,,,8,,54,72
19080,note_on,,1,0,15,,,,,,,,,,,,,,,,12,,69,72
19080,note_on,,1,0,14,,,,,,,,,,,,,,,,11,,81,72
19080,note_on,,1,0,16,,,,,,,,,,,,,,,,13,,54,72
19080,note_on,,1,0,9,,,,,,,,,,,,,,,,5,,74,72
19080,note_on,,1,0,8,,,,,,,,,,,,,,,,4,,74,56
19080,note_on,,0,0,17,,,,,,,,,,,,,,,,15,,66,72
19080,note_on,,0,0,17,,,,,,,,,,,,,,,,15,,69,72
19080,note_on,,1,0,11,,,,,,,,,,,,,,,,7,,66,72
19080,note_on,,1,0,5,,,,,,,,,,,,,,,,0,,74,72
19080,note_on,,1,0,6,,,,,,,,,,,,,,,,2,,54,72
19080,note_on,,0,0,17,,,,,,,,,,,,,,,,15,,57,72
19080,note_on,,0,0,17,,,,,,,,,,,,,,,,15,,74,72
19080,note_on,,1,0,17,,,,,,,,,,,,,,,,15,,54,72
19080,note_on,,1,0,13,,,,,,,,,,,,,,,,10,,86,72
19139,note_on,,179,0,7,,,,,,,,,,,,,,,,3,,81,0
19140,note_on,,1,0,7,,,,,,,,,,,,,,,,3,,79,56
19169,note_on,,29,0,7,,,,,,,,,,,,,,,,3,,79,0
19170,note_on,,1,0,7,,,,,,,,,,,,,,,,3,,78,56
19199,note_on,,119,0,15,,,,,,,,,,,,,,,,12,,69,0
19199,note_on,,0,0,17,,,,,,,,,,,,,,,,15,,57,0
19199,note_on,,0,0,17,,,,,,,,,,,,,,,,15,,66,0
19199,note_on,,0,0,17,,,,,,,,,,,,,,,,15,,69,0
19199,note_on,,119,0,17,,,,,,,,,,,,,,,,15,,54,0
19199,note_on,,119,0,11,,,,,,,,,,,,,,,,7,,66,0
19199,note_on,,0,0,17,,,,,,,,,,,,,,,,15,,74,0
19199,note_on,,119,0,14,,,,,,,,,,,,,,,,11,,81,0
19199,note_on,,239,0,10,,,,,,,,,,,,,,,,6,,69,0
19199,note_on,,119,0,16,,,,,,,,,,,,,,,,13,,54,0
19199,note_on,,29,0,7,,,,,,,,,,,,,,,,3,,78,0
19199,note_on,,119,0,12,,,,,,,,,,,,,,,,8,,54,0
19199,note_on,,119,0,6,,,,,,,,,,,,,,,,2,,54,0
19199,note_on,,119,0,8,,,,,,,,,,,,,,,,4,,74,0
19200,note_on,,1,0,14,,,,,,,,,,,,,,,,11,,76,72
19200,note_on,,1,0,6,,,,,,,,,,,,,,,,2,,57,72
19200,note_on,,0,0,17,,,,,,,,,,,,,,,,15,,76,72
19200,note_on,,0,0,17,,,,,,,,,,,,,,,,15,,74,72
19200,note_on,,0,0,17,,,,,,,,,,,,,,,,15,,69,72
19200,note_on,,0,0,17,,,,,,,,,,,,,,,,15,,64,72
19200,note_on,,1,0,17,,,,,,,,,,,,,,,,15,,57,72
19200,note_on,,1,0,15,,,,,,,,,,,,,,,,12,,69,72
19200,note_on,,1,0,10,,,,,,,,,,,,,,,,6,,69,72
19200,note_on,,1,0,7,,,,,,,,,,,,,,,,3,,76,56
19200,note_on,,1,0,11,,,,,,,,,,,,,,,,7,,64,72
19200,note_on,,1,0,12,,,,,,,,,,,,,,,,8,,57,72
19200,note_on,,1,0,8,,,,,,,,,,,,,,,,4,,69,56
19200,note_on,,1,0,16,,,,,,,,,,,,,,,,13,,57,72
19439,note_on,,359,0,9,,,,,,,,,,,,,,,,5,,74,0
19439,note_on,,239,0,6,,,,,,,,,,,,,,,,2,,57,0
19439,note_on,,239,0,17,,,,,,,,,,,,,,,,15,,57,0
19439,note_on,,0,0,17,,,,,,,,,,,,,,,,15,,69,0
19439,note_on,,359,0,13,,,,,,,,,,,,,,,,10,,86,0
19439,note_on,,0,0,17,,,,,,,,,,,,,,,,15,,64,0
19439,note_on,,239,0,16,,,,,,,,,,,,,,,,13,,57,0
19439,note_on,,359,0,5,,,,,,,,,,,,,,,,0,,74,0
19439,note_on,,0,0,17,,,,,,,,,,,,,,,,15,,74,0
19440,note_on,,1,0,13,,,,,,,,,,,,,,,,10,,85,72
19440,note_on,,1,0,17,,,,,,,,,,,,,,,,15,,64,72
19440,note_on,,0,0,17,,,,,,,,,,,,,,,,15,,45,72
19440,note_on,,0,0,17,,,,,,,,,,,,,,,,15,,73,72
19440,note_on,,0,0,17,,,,,,,,,,,,,,,,15,,69,72
19440,note_on,,0,0,17,,,,,,,,,,,,,,,,15,,57,72
19440,note_on,,1,0,9,,,,,,,,,,,,,,,,5,,73,72
19440,note_on,,1,0,5,,,,,,,,,,,,,,,,0,,73,72
19440,note_on,,1,0,16,,,,,,,,,,,,,,,,13,,45,72
19440,note_on,,1,0,6,,,,,,,,,,,,,,,,2,,45,72
19559,note_on,,359,0,10,,,,,,,,,,,,,,,,6,,69,0
19559,note_on,,359,0,8,,,,,,,,,,,,,,,,4,,69,0
19559,note_on,,359,0,15,,,,,,,,,,,,,,,,12,,69,0
19559,note_on,,359,0,7,,,,,,,,,,,,,,,,3,,76,0
19559,note_on,,359,0,11,,,,,,,,,,,,,,,,7,,64,0
19559,note_on,,359,0,14,,,,,,,,,,,,,,,,11,,76,0
19559,note_on,,359,0,12,,,,,,,,,,,,,,,,8,,57,0
19560,note_on,,1,0,15,,,,,,,,,,,,,,,,12,,69,72
19560,note_on,,1,0,10,,,,,,,,,,,,,,,,6,,69,72
19560,note_on,,1,0,7,,,,,,,,,,,,,,,,3,,76,56
19560,note_on,,1,0,12,,,,,,,,,,,,,,,,8,,57,72
19560,note_on,,1,0,14,,,,,,,,,,,,,,,,11,,76,72
19560,note_on,,1,0,11,,,,,,,,,,,,,,,,7,,64,72
19560,note_on,,1,0,8,,,,,,,,,,,,,,,,4,,69,56
19679,note_on,,239,0,16,,,,,,,,,,,,,,,,13,,45,0
19679,note_on,,0,0,17,,,,,,,,,,,,,,,,15,,73,0
19679,note_on,,239,0,17,,,,,,,,,,,,,,,,15,,76,0
19679,note_on,,119,0,7,,,,,,,,,,,,,,,,3,,76,0
19679,note_on,,239,0,13,,,,,,,,,,,,,,,,10,,85,0
19679,note_on,,0,0,17,,,,,,,,,,,,,,,,15,,64,0
19679,note_on,,119,0,8,,,,,,,,,,,,,,,,4,,69,0
19679,note_on,,119,0,15,,,,,,,,,,,,,,,,12,,69,0
19679,note_on,,239,0,5,,,,,,,,,,,,,,,,0,,73,0
19679,note_on,,239,0,6,,,,,,,,,,,,,,,,2,,45,0
19679,note_on,,119,0,12,,,,,,,,,,,,,,,,8,,57,0
19679,note_on,,0,0,17,,,,,,,,,,,,,,,,15,,45,0
19679,note_on,,239,0,9,,,,,,,,,,,,,,,,5,,73,0
19679,note_on,,0,0,17,,,,,,,,,,,,,,,,15,,57,0
19679,note_on,,119,0,14,,,,,,,,,,,,,,,,11,,76,0
19679,note_on,,119,0,11,,,,,,,,,,,,,,,,7,,64,0
19679,note_on,,119,0,10,,,,,,,,,,,,,,,,6,,69,0
19679,note_on,,0,0,17,,,,,,,,,,,,,,,,15,,69,0
19680,note_on,,0,0,17,,,,,,,,,,,,,,,,15,,57,72
19680,note_on,,1,0,8,,,,,,,,,,,,,,,,4,,66,56
19680,note_on,,1,0,9,,,,,,,,,,,,,,,,5,,74,72
19680,note_on,,1,0,6,,,,,,,,,,,,,,,,2,,50,72
19680,note_on,,1,0,14,,,,,,,,,,,,,,,,11,,74,72
19680,note_on,,1,0,16,,,,,,,,,,,,,,,,13,,50,72
19680,note_on,,1,0,11,,,,,,,,,,,,,,,,7,,66,72
19680,note_on,,1,0,12,,,,,,,,,,,,,,,,8,,50,72
19680,note_on,,1,0,17,,,,,,,,,,,,,,,,15,,50,72
19680,note_on,,1,0,7,,,,,,,,,,,,,,,,3,,74,56
19680,note_on,,1,0,13,,,,,,,,,,,,,,,,10,,86,72
19680,note_on,,0,0,17,,,,,,,,,,,,,,,,15,,66,72
19680,note_on,,1,0,10,,,,,,,,,,,,,,,,6,,69,72
19680,note_on,,0,0,17,,,,,,,,,,,,,,,,15,,74,72
19680,note_on,,1,0,15,,,,,,,,,,,,,,,,12,,69,72
19680,note_on,,0,0,17,,,,,,,,,,,,,,,,15,,69,72
19680,note_on,,1,0,5,,,,,,,,,,,,,,,,0,,74,72
19799,note_on,,119,0,14,,,,,,,,,,,,,,,,11,,74,0
19799,note_on,,119,0,17,,,,,,,,,,,,,,,,15,,74,0
19799,note_on,,119,0,15,,,,,,,,,,,,,,,,12,,69,0
19800,note_on,,1,0,14,,,,,,,,,,,,,,,,11,,81,72
19800,note_on,,1,0,17,,,,,,,,,,,,,,,,15,,69,72
19800,note_on,,1,0,15,,,,,,,,,,,,,,,,12,,66,72
19919,note_on,,0,0,17,,,,,,,,,,,,,,,,15,,69,0
19919,note_on,,0,0,17,,,,,,,,,,,,,,,,15,,57,0
19919,note_on,,0,0,17,,,,,,,,,,,,,,,,15,,66,0
19919,note_on,,119,0,17,,,,,,,,,,,,,,,,15,,50,0
19919,note_on,,239,0,8,,,,,,,,,,,,,,,,4,,66,0
19919,note_on,,239,0,11,,,,,,,,,,,,,,,,7,,66,0
19919,end_of_track,,0,1,8,,,,,,,,,,,,,,,,,,,
19919,note_on,,239,0,9,,,,,,,,,,,,,,,,5,,74,0
19919,end_of_track,,0,1,9,,,,,,,,,,,,,,,,,,,
19919,note_on,,239,0,10,,,,,,,,,,,,,,,,6,,69,0
19919,end_of_track,,0,1,10,,,,,,,,,,,,,,,,,,,
19919,end_of_track,,0,1,11,,,,,,,,,,,,,,,,,,,
19919,note_on,,239,0,12,,,,,,,,,,,,,,,,8,,50,0
19919,end_of_track,,0,1,7,,,,,,,,,,,,,,,,,,,
19919,note_on,,239,0,7,,,,,,,,,,,,,,,,3,,74,0
19919,note_on,,239,0,13,,,,,,,,,,,,,,,,10,,86,0
19919,end_of_track,,0,1,12,,,,,,,,,,,,,,,,,,,
19919,note_on,,119,0,15,,,,,,,,,,,,,,,,12,,66,0
19919,note_on,,239,0,16,,,,,,,,,,,,,,,,13,,50,0
19919,note_on,,239,0,6,,,,,,,,,,,,,,,,2,,50,0
19919,end_of_track,,0,1,6,,,,,,,,,,,,,,,,,,,
19919,end_of_track,,0,1,5,,,,,,,,,,,,,,,,,,,
19919,note_on,,239,0,5,,,,,,,,,,,,,,,,0,,74,0
19920,note_on,,0,0,17,,,,,,,,,,,,,,,,15,,62,72
19920,note_on,,1,0,16,,,,,,,,,,,,,,,,13,,59,72
19920,note_on,,1,0,17,,,,,,,,,,,,,,,,15,,59,72
19920,note_on,,1,0,15,,,,,,,,,,,,,,,,12,,59,72
19979,note_on,,179,0,14,,,,,,,,,,,,,,,,11,,81,0
19980,note_on,,1,0,14,,,,,,,,,,,,,,,,11,,79,72
20009,note_on,,29,0,14,,,,,,,,,,,,,,,,11,,79,0
20010,note_on,,1,0,14,,,,,,,,,,,,,,,,11,,78,72
20039,note_on,,119,0,17,,,,,,,,,,,,,,,,15,,69,0
20039,note_on,,29,0,14,,,,,,,,,,,,,,,,11,,78,0
20040,note_on,,1,0,14,,,,,,,,,,,,,,,,11,,79,72
20040,note_on,,1,0,17,,,,,,,,,,,,,,,,15,,71,72
20040,note_on,,0,0,17,,,,,,,,,,,,,,,,15,,67,72
20099,note_on,,179,0,16,,,,,,,,,,,,,,,,13,,59,0
20099,note_on,,59,0,17,,,,,,,,,,,,,,,,15,,59,0
20099,note_on,,59,0,14,,,,,,,,,,,,,,,,11,,79,0
20099,note_on,,179,0,15,,,,,,,,,,,,,,,,12,,59,0
20099,note_on,,0,0,17,,,,,,,,,,,,,,,,15,,62,0
20100,note_on,,1,0,14,,,,,,,,,,,,,,,,11,,76,72
20100,note_on,,1,0,16,,,,,,,,,,,,,,,,13,,61,72
20100,note_on,,1,0,15,,,,,,,,,,,,,,,,12,,61,72
20100,note_on,,0,0,17,,,,,,,,,,,,,,,,15,,64,72
20100,note_on,,1,0,17,,,,,,,,,,,,,,,,15,,61,72
20159,note_on,,0,0,17,,,,,,,,,,,,,,,,15,,67,0
20159,note_on,,59,0,17,,,,,,,,,,,,,,,,15,,71,0
20159,note_on,,0,0,17,,,,,,,,,,,,,,,,15,,64,0
20159,note_on,,59,0,15,,,,,,,,,,,,,,,,12,,61,0
20159,note_on,,59,0,14,,,,,,,,,,,,,,,,11,,76,0
20159,note_on,,0,0,17,,,,,,,,,,,,,,,,15,,61,0
20159,note_on,,59,0,16,,,,,,,,,,,,,,,,13,,61,0
20160,note_on,,0,0,17,,,,,,,,,,,,,,,,15,,66,72
20160,note_on,,1,0,17,,,,,,,,,,,,,,,,15,,62,72
20160,note_on,,1,0,16,,,,,,,,,,,,,,,,13,,62,72
20160,note_on,,241,0,13,,,,,,,,,,,,,,,,10,,81,72
20160,note_on,,0,0,17,,,,,,,,,,,,,,,,15,,69,72
20160,note_on,,1,0,15,,,,,,,,,,,,,,,,12,,62,72
20160,note_on,,1,0,14,,,,,,,,,,,,,,,,11,,78,72
20219,note_on,,59,0,15,,,,,,,,,,,,,,,,12,,62,0
20219,note_on,,59,0,17,,,,,,,,,,,,,,,,15,,62,0
20219,note_on,,59,0,16,,,,,,,,,,,,,,,,13,,62,0
20219,note_on,,0,0,17,,,,,,,,,,,,,,,,15,,66,0
20220,note_on,,1,0,15,,,,,,,,,,,,,,,,12,,64,72
20220,note_on,,1,0,16,,,,,,,,,,,,,,,,13,,64,72
20220,note_on,,1,0,17,,,,,,,,,,,,,,,,15,,64,72
20220,note_on,,0,0,17,,,,,,,,,,,,,,,,15,,67,72
20279,note_on,,59,0,15,,,,,,,,,,,,,,,,12,,64,0
20279,note_on,,59,0,17,,,,,,,,,,,,,,,,15,,69,0
20279,note_on,,0,0,17,,,,,,,,,,,,,,,,15,,64,0
20279,note_on,,0,0,17,,,,,,,,,,,,,,,,15,,67,0
20279,note_on,,119,0,13,,,,,,,,,,,,,,,,10,,81,0
20279,note_on,,59,0,16,,,,,,,,,,,,,,,,13,,64,0
20280,note_on,,1,0,13,,,,,,,,,,,,,,,,10,,86,72
20280,note_on,,0,0,17,,,,,,,,,,,,,,,,15,,69,72
20280,note_on,,1,0,15,,,,,,,,,,,,,,,,12,,66,72
20280,note_on,,0,0,17,,,,,,,,,,,,,,,,15,,78,72
20280,note_on,,1,0,17,,,,,,,,,,,,,,,,15,,66,72
20280,note_on,,1,0,16,,,,,,,,,,,,,,,,13,,66,72
20280,note_on,,0,0,17,,,,,,,,,,,,,,,,15,,74,72
20339,note_on,,59,0,17,,,,,,,,,,,,,,,,15,,66,0
20339,note_on,,59,0,16,,,,,,,,,,,,,,,,13,,66,0
20339,note_on,,59,0,15,,,,,,,,,,,,,,,,12,,66,0
20339,note_on,,0,0,17,,,,,,,,,,,,,,,,15,,69,0
20340,note_on,,0,0,17,,,,,,,,,,,,,,,,15,,71,72
20340,note_on,,1,0,17,,,,,,,,,,,,,,,,15,,67,72
20340,note_on,,1,0,15,,,,,,,,,,,,,,,,12,,67,72
20340,note_on,,1,0,16,,,,,,,,,,,,,,,,13,,67,72
20399,note_on,,239,0,14,,,,,,,,,,,,,,,,11,,78,0
20399,note_on,,0,0,17,,,,,,,,,,,,,,,,15,,74,0
20399,note_on,,59,0,17,,,,,,,,,,,,,,,,15,,78,0
20399,note_on,,0,0,17,,,,,,,,,,,,,,,,15,,71,0
20399,note_on,,0,0,17,,,,,,,,,,,,,,,,15,,67,0
20399,note_on,,59,0,15,,,,,,,,,,,,,,,,12,,67,0
20399,note_on,,59,0,16,,,,,,,,,,,,,,,,13,,67,0
20400,note_on,,1,0,15,,,,,,,,,,,,,,,,12,,69,72
20400,note_on,,0,0,17,,,,,,,,,,,,,,,,15,,74,72
20400,note_on,,0,0,17,,,,,,,,,,,,,,,,15,,76,72
20400,note_on,,1,0,17,,,,,,,,,,,,,,,,15,,69,72
20400,note_on,,1,0,16,,,,,,,,,,,,,,,,13,,69,72
20400,note_on,,1,0,14,,,,,,,,,,,,,,,,11,,76,72
20459,note_on,,59,0,17,,,,,,,,,,,,,,,,15,,69,0
20459,note_on,,59,0,16,,,,,,,,,,,,,,,,13,,69,0
20459,note_on,,179,0,13,,,,,,,,,,,,,,,,10,,86,0
20459,note_on,,59,0,15,,,,,,,,,,,,,,,,12,,69,0
20460,note_on,,1,0,17,,,,,,,,,,,,,,,,15,,57,72
20460,note_on,,1,0,16,,,,,,,,,,,,,,,,13,,57,72
20460,note_on,,1,0,15,,,,,,,,,,,,,,,,12,,57,72
20460,note_on,,1,0,13,,,,,,,,,,,,,,,,10,,85,72
20489,note_on,,29,0,13,,,,,,,,,,,,,,,,10,,85,0
20490,note_on,,1,0,13,,,,,,,,,,,,,,,,10,,83,72
20519,note_on,,59,0,15,,,,,,,,,,,,,,,,12,,57,0
20519,note_on,,59,0,16,,,,,,,,,,,,,,,,13,,57,0
20519,note_on,,59,0,17,,,,,,,,,,,,,,,,15,,74,0
20519,note_on,,0,0,17,,,,,,,,,,,,,,,,15,,57,0
20519,note_on,,29,0,13,,,,,,,,,,,,,,,,10,,83,0
20520,note_on,,0,0,17,,,,,,,,,,,,,,,,15,,73,72
20520,note_on,,1,0,17,,,,,,,,,,,,,,,,15,,69,72
20520,note_on,,1,0,13,,,,,,,,,,,,,,,,10,,85,72
20520,note_on,,1,0,16,,,,,,,,,,,,,,,,13,,69,72
20520,note_on,,1,0,15,,,,,,,,,,,,,,,,12,,69,72
20579,note_on,,59,0,13,,,,,,,,,,,,,,,,10,,85,0
20579,note_on,,179,0,14,,,,,,,,,,,,,,,,11,,76,0
20580,note_on,,1,0,14,,,,,,,,,,,,,,,,11,,73,72
20580,note_on,,1,0,13,,,,,,,,,,,,,,,,10,,81,72
20639,note_on,,59,0,14,,,,,,,,,,,,,,,,11,,73,0
20639,note_on,,0,0,17,,,,,,,,,,,,,,,,15,,73,0
20639,note_on,,119,0,17,,,,,,,,,,,,,,,,15,,76,0
20639,note_on,,59,0,13,,,,,,,,,,,,,,,,10,,81,0
20640,note_on,,0,0,17,,,,,,,,,,,,,,,,15,,71,72
20640,note_on,,1,0,14,,,,,,,,,,,,,,,,11,,74,72
20640,note_on,,1,0,17,,,,,,,,,,,,,,,,15,,74,72
20640,note_on,,1,0,13,,,,,,,,,,,,,,,,10,,83,72
20699,note_on,,59,0,17,,,,,,,,,,,,,,,,15,,69,0
20699,note_on,,179,0,15,,,,,,,,,,,,,,,,12,,69,0
20699,note_on,,179,0,16,,,,,,,,,,,,,,,,13,,69,0
20700,note_on,,1,0,15,,,,,,,,,,,,,,,,12,,67,72
20700,note_on,,1,0,17,,,,,,,,,,,,,,,,15,,67,72
20700,note_on,,1,0,16,,,,,,,,,,,,,,,,13,,67,72
20729,note_on,,29,0,17,,,,,,,,,,,,,,,,15,,67,0
20729,note_on,,29,0,15,,,,,,,,,,,,,,,,12,,67,0
20729,note_on,,29,0,16,,,,,,,,,,,,,,,,13,,67,0
20730,note_on,,1,0,17,,,,,,,,,,,,,,,,15,,66,72
20730,note_on,,1,0,16,,,,,,,,,,,,,,,,13,,66,72
20730,note_on,,1,0,15,,,,,,,,,,,,,,,,12,,66,72
20759,note_on,,0,0,17,,,,,,,,,,,,,,,,15,,71,0
20759,note_on,,119,0,14,,,,,,,,,,,,,,,,11,,74,0
20759,note_on,,29,0,16,,,,,,,,,,,,,,,,13,,66,0
20759,note_on,,29,0,17,,,,,,,,,,,,,,,,15,,74,0
20759,note_on,,29,0,15,,,,,,,,,,,,,,,,12,,66,0
20759,note_on,,0,0,17,,,,,,,,,,,,,,,,15,,66,0
20760,note_on,,0,0,17,,,,,,,,,,,,,,,,15,,67,72
20760,note_on,,0,0,17,,,,,,,,,,,,,,,,15,,71,72
20760,note_on,,1,0,16,,,,,,,,,,,,,,,,13,,64,72
20760,note_on,,0,0,17,,,,,,,,,,,,,,,,15,,76,72
20760,note_on,,1,0,17,,,,,,,,,,,,,,,,15,,64,72
20760,note_on,,1,0,14,,,,,,,,,,,,,,,,11,,79,72
20760,note_on,,1,0,15,,,,,,,,,,,,,,,,12,,64,72
20819,note_on,,0,0,17,,,,,,,,,,,,,,,,15,,67,0
20819,note_on,,59,0,15,,,,,,,,,,,,,,,,12,,64,0
20819,note_on,,59,0,17,,,,,,,,,,,,,,,,15,,64,0
20819,note_on,,59,0,16,,,,,,,,,,,,,,,,13,,64,0
20820,note_on,,1,0,15,,,,,,,,,,,,,,,,12,,62,72
20820,note_on,,1,0,16,,,,,,,,,,,,,,,,13,,62,72
20820,note_on,,1,0,17,,,,,,,,,,,,,,,,15,,62,72
20820,note_on,,0,0,17,,,,,,,,,,,,,,,,15,,66,72
20879,note_on,,59,0,17,,,,,,,,,,,,,,,,15,,71,0
20879,note_on,,59,0,16,,,,,,,,,,,,,,,,13,,62,0
20879,note_on,,0,0,17,,,,,,,,,,,,,,,,15,,66,0
20879,note_on,,0,0,17,,,,,,,,,,,,,,,,15,,62,0
20879,note_on,,239,0,13,,,,,,,,,,,,,,,,10,,83,0
20879,note_on,,59,0,15,,,,,,,,,,,,,,,,12,,62,0
20880,note_on,,1,0,13,,,,,,,,,,,,,,,,10,,81,72
20880,note_on,,1,0,16,,,,,,,,,,,,,,,,13,,61,72
20880,note_on,,0,0,17,,,,,,,,,,,,,,,,15,,69,72
20880,note_on,,1,0,17,,,,,,,,,,,,,,,,15,,61,72
20880,note_on,,1,0,15,,,,,,,,,,,,,,,,12,,61,72
20880,note_on,,0,0,17,,,,,,,,,,,,,,,,15,,64,72
20939,note_on,,0,0,17,,,,,,,,,,,,,,,,15,,69,0
20939,note_on,,0,0,17,,,,,,,,,,,,,,,,15,,64,0
20939,note_on,,59,0,17,,,,,,,,,,,,,,,,15,,76,0
20939,note_on,,59,0,15,,,,,,,,,,,,,,,,12,,61,0
20939,note_on,,59,0,16,,,,,,,,,,,,,,,,13,,61,0
20939,note_on,,0,0,17,,,,,,,,,,,,,,,,15,,61,0
20940,note_on,,0,0,17,,,,,,,,,,,,,,,,15,,73,72
20940,note_on,,1,0,16,,,,,,,,,,,,,,,,13,,57,72
20940,note_on,,1,0,17,,,,,,,,,,,,,,,,15,,57,72
20940,note_on,,0,0,17,,,,,,,,,,,,,,,,15,,69,72
20940,note_on,,1,0,15,,,,,,,,,,,,,,,,12,,57,72
20940,note_on,,0,0,17,,,,,,,,,,,,,,,,15,,64,72
20999,note_on,,0,0,17,,,,,,,,,,,,,,,,15,,64,0
20999,note_on,,0,0,17,,,,,,,,,,,,,,,,15,,73,0
20999,note_on,,59,0,17,,,,,,,,,,,,,,,,15,,57,0
20999,note_on,,59,0,16,,,,,,,,,,,,,,,,13,,57,0
20999,note_on,,0,0,17,,,,,,,,,,,,,,,,15,,69,0
20999,note_on,,239,0,14,,,,,,,,,,,,,,,,11,,79,0
20999,note_on,,59,0,15,,,,,,,,,,,,,,,,12,,57,0
21000,note_on,,1,0,15,,,,,,,,,,,,,,,,12,,62,48
21000,note_on,,1,0,14,,,,,,,,,,,,,,,,11,,78,48
21000,note_on,,0,0,17,,,,,,,,,,,,,,,,15,,69,48
21000,note_on,,1,0,16,,,,,,,,,,,,,,,,13,,62,48
21000,note_on,,0,0,17,,,,,,,,,,,,,,,,15,,66,48
21000,note_on,,1,0,17,,,,,,,,,,,,,,,,15,,62,48
21000,note_on,,0,0,17,,,,,,,,,,,,,,,,15,,78,48
21059,note_on,,59,0,14,,,,,,,,,,,,,,,,11,,78,0
21059,note_on,,59,0,16,,,,,,,,,,,,,,,,13,,62,0
21059,note_on,,59,0,15,,,,,,,,,,,,,,,,12,,62,0
21059,note_on,,179,0,13,,,,,,,,,,,,,,,,10,,81,0
21059,note_on,,0,0,17,,,,,,,,,,,,,,,,15,,66,0
21059,note_on,,59,0,17,,,,,,,,,,,,,,,,15,,62,0
21060,note_on,,1,0,16,,,,,,,,,,,,,,,,13,,61,48
21060,note_on,,1,0,14,,,,,,,,,,,,,,,,11,,76,48
21060,note_on,,0,0,17,,,,,,,,,,,,,,,,15,,64,48
21060,note_on,,1,0,17,,,,,,,,,,,,,,,,15,,61,48
21060,note_on,,1,0,13,,,,,,,,,,,,,,,,10,,81,48
21060,note_on,,1,0,15,,,,,,,,,,,,,,,,12,,61,48
21119,note_on,,0,0,17,,,,,,,,,,,,,,,,15,,61,0
21119,note_on,,59,0,16,,,,,,,,,,,,,,,,13,,61,0
21119,note_on,,0,0,17,,,,,,,,,,,,,,,,15,,64,0
21119,note_on,,59,0,15,,,,,,,,,,,,,,,,12,,61,0
21119,note_on,,0,0,17,,,,,,,,,,,,,,,,15,,69,0
21119,note_on,,59,0,17,,,,,,,,,,,,,,,,15,,78,0
21119,note_on,,59,0,13,,,,,,,,,,,,,,,,10,,81,0
21119,note_on,,59,0,14,,,,,,,,,,,,,,,,11,,76,0
21120,note_on,,1,0,13,,,,,,,,,,,,,,,,10,,79,48
21120,note_on,,0,0,17,,,,,,,,,,,,,,,,15,,62,48
21120,note_on,,0,0,17,,,,,,,,,,,,,,,,15,,67,48
21120,note_on,,0,0,17,,,,,,,,,,,,,,,,15,,78,48
21120,note_on,,1,0,16,,,,,,,,,,,,,,,,13,,59,48
21120,note_on,,1,0,14,,,,,,,,,,,,,,,,11,,74,48
21120,note_on,,1,0,17,,,,,,,,,,,,,,,,15,,59,48
21120,note_on,,1,0,15,,,,,,,,,,,,,,,,12,,59,48
21134,note_on,,14,0,13,,,,,,,,,,,,,,,,10,,79,0
21135,note_on,,1,0,13,,,,,,,,,,,,,,,,10,,81,48
21149,note_on,,14,0,13,,,,,,,,,,,,,,,,10,,81,0
21150,note_on,,1,0,13,,,,,,,,,,,,,,,,10,,79,48
21164,note_on,,14,0,13,,,,,,,,,,,,,,,,10,,79,0
21165,note_on,,1,0,13,,,,,,,,,,,,,,,,10,,81,48
21179,note_on,,14,0,13,,,,,,,,,,,,,,,,10,,81,0
21180,note_on,,1,0,13,,,,,,,,,,,,,,,,10,,79,48
21194,note_on,,14,0,13,,,,,,,,,,,,,,,,10,,79,0
21195,note_on,,1,0,13,,,,,,,,,,,,,,,,10,,81,48
21209,note_on,,14,0,13,,,,,,,,,,,,,,,,10,,81,0
21210,note_on,,1,0,13,,,,,,,,,,,,,,,,10,,79,48
21224,note_on,,14,0,13,,,,,,,,,,,,,,,,10,,79,0
21225,note_on,,1,0,13,,,,,,,,,,,,,,,,10,,81,48
21239,note_on,,14,0,13,,,,,,,,,,,,,,,,10,,81,0
21239,note_on,,119,0,15,,,,,,,,,,,,,,,,12,,59,0
21239,note_on,,119,0,14,,,,,,,,,,,,,,,,11,,74,0
21239,note_on,,0,0,17,,,,,,,,,,,,,,,,15,,62,0
21239,note_on,,0,0,17,,,,,,,,,,,,,,,,15,,67,0
21239,note_on,,0,0,17,,,,,,,,,,,,,,,,15,,78,0
21239,note_on,,119,0,17,,,,,,,,,,,,,,,,15,,59,0
21239,note_on,,119,0,16,,,,,,,,,,,,,,,,13,,59,0
21240,note_on,,1,0,14,,,,,,,,,,,,,,,,11,,76,48
21240,note_on,,1,0,15,,,,,,,,,,,,,,,,12,,61,48
21240,note_on,,1,0,16,,,,,,,,,,,,,,,,13,,61,48
21240,note_on,,1,0,13,,,,,,,,,,,,,,,,10,,79,48
21240,note_on,,1,0,17,,,,,,,,,,,,,,,,15,,61,48
21240,note_on,,0,0,17,,,,,,,,,,,,,,,,15,,76,48
21240,note_on,,0,0,17,,,,,,,,,,,,,,,,15,,69,48
21240,note_on,,0,0,17,,,,,,,,,,,,,,,,15,,67,48
21240,note_on,,0,0,17,,,,,,,,,,,,,,,,15,,64,48
21254,note_on,,14,0,13,,,,,,,,,,,,,,,,10,,79,0
21255,note_on,,1,0,13,,,,,,,,,,,,,,,,10,,81,48
21269,note_on,,14,0,13,,,,,,,,,,,,,,,,10,,81,0
21270,note_on,,1,0,13,,,,,,,,,,,,,,,,10,,79,48
21284,note_on,,14,0,13,,,,,,,,,,,,,,,,10,,79,0
21285,note_on,,1,0,13,,,,,,,,,,,,,,,,10,,81,48
21299,note_on,,14,0,13,,,,,,,,,,,,,,,,10,,81,0
21300,note_on,,1,0,13,,,,,,,,,,,,,,,,10,,79,48
21314,note_on,,14,0,13,,,,,,,,,,,,,,,,10,,79,0
21315,note_on,,1,0,13,,,,,,,,,,,,,,,,10,,81,48
21329,note_on,,14,0,13,,,,,,,,,,,,,,,,10,,81,0
21330,note_on,,1,0,13,,,,,,,,,,,,,,,,10,,78,48
21344,note_on,,14,0,13,,,,,,,,,,,,,,,,10,,78,0
21345,note_on,,1,0,13,,,,,,,,,,,,,,,,10,,79,48
21359,note_on,,0,0,17,,,,,,,,,,,,,,,,15,,76,0
21359,note_on,,0,0,17,,,,,,,,,,,,,,,,15,,69,0
21359,note_on,,0,0,17,,,,,,,,,,,,,,,,15,,67,0
21359,note_on,,0,0,17,,,,,,,,,,,,,,,,15,,64,0
21359,note_on,,119,0,17,,,,,,,,,,,,,,,,15,,61,0
21359,note_on,,14,0,13,,,,,,,,,,,,,,,,10,,79,0
21359,note_on,,119,0,14,,,,,,,,,,,,,,,,11,,76,0
21359,note_on,,119,0,16,,,,,,,,,,,,,,,,13,,61,0
21359,note_on,,119,0,15,,,,,,,,,,,,,,,,12,,61,0
21360,note_on,,0,0,17,,,,,,,,,,,,,,,,15,,66,48
21360,note_on,,1,0,13,,,,,,,,,,,,,,,,10,,78,48
21360,note_on,,1,0,14,,,,,,,,,,,,,,,,11,,69,48
21360,note_on,,1,0,16,,,,,,,,,,,,,,,,13,,62,48
21360,note_on,,1,0,15,,,,,,,,,,,,,,,,12,,62,48
21360,note_on,,1,0,17,,,,,,,,,,,,,,,,15,,62,48
21360,note_on,,0,0,17,,,,,,,,,,,,,,,,15,,69,48
21479,note_on,,119,0,15,,,,,,,,,,,,,,,,12,,62,0
21479,note_on,,119,0,16,,,,,,,,,,,,,,,,13,,62,0
21479,note_on,,119,0,17,,,,,,,,,,,,,,,,15,,62,0
21479,note_on,,0,0,17,,,,,,,,,,,,,,,,15,,69,0
21479,note_on,,119,0,14,,,,,,,,,,,,,,,,11,,69,0
21479,note_on,,0,0,17,,,,,,,,,,,,,,,,15,,66,0
21479,note_on,,119,0,13,,,,,,,,,,,,,,,,10,,78,0
21480,note_on,,1,0,14,,,,,,,,,,,,,,,,11,,76,48
21480,note_on,,1,0,13,,,,,,,,,,,,,,,,10,,81,48
21480,note_on,,0,0,17,,,,,,,,,,,,,,,,15,,64,48
21480,note_on,,0,0,17,,,,,,,,,,,,,,,,15,,69,48
21480,note_on,,0,0,17,,,,,,,,,,,,,,,,15,,76,48
21480,note_on,,1,0,17,,,,,,,,,,,,,,,,15,,61,48
21480,note_on,,1,0,15,,,,,,,,,,,,,,,,12,,61,48
21480,note_on,,1,0,16,,,,,,,,,,,,,,,,13,,61,48
21599,note_on,,119,0,13,,,,,,,,,,,,,,,,10,,81,0
21599,note_on,,119,0,15,,,,,,,,,,,,,,,,12,,61,0
21599,note_on,,119,0,16,,,,,,,,,,,,,,,,13,,61,0
21599,note_on,,0,0,17,,,,,,,,,,,,,,,,15,,64,0
21599,note_on,,119,0,14,,,,,,,,,,,,,,,,11,,76,0
21599,note_on,,0,0,17,,,,,,,,,,,,,,,,15,,69,0
21599,note_on,,0,0,17,,,,,,,,,,,,,,,,15,,76,0
21599,note_on,,119,0,17,,,,,,,,,,,,,,,,15,,61,0
21600,note_on,,1,0,14,,,,,,,,,,,,,,,,11,,74,40
21600,note_on,,1,0,17,,,,,,,,,,,,,,,,15,,59,40
21600,note_on,,1,0,16,,,,,,,,,,,,,,,,13,,59,40
21600,note_on,,0,0,17,,,,,,,,,,,,,,,,15,,66,40
21600,note_on,,0,0,17,,,,,,,,,,,,,,,,15,,74,40
21600,note_on,,0,0,17,,,,,,,,,,,,,,,,15,,69,40
21600,note_on,,1,0,13,,,,,,,,,,,,,,,,10,,81,40
21600,note_on,,1,0,15,,,,,,,,,,,,,,,,12,,59,40
21719,note_on,,0,0,17,,,,,,,,,,,,,,,,15,,69,0
21719,note_on,,0,0,17,,,,,,,,,,,,,,,,15,,74,0
21719,note_on,,0,0,17,,,,,,,,,,,,,,,,15,,66,0
21719,note_on,,119,0,17,,,,,,,,,,,,,,,,15,,59,0
21719,note_on,,119,0,16,,,,,,,,,,,,,,,,13,,59,0
21719,note_on,,119,0,14,,,,,,,,,,,,,,,,11,,74,0
21719,note_on,,119,0,15,,,,,,,,,,,,,,,,12,,59,0
21719,note_on,,119,0,13,,,,,,,,,,,,,,,,10,,81,0
21840,note_on,,121,0,15,,,,,,,,,,,,,,,,12,,64,40
21840,note_on,,0,0,17,,,,,,,,,,,,,,,,15,,67,40
21840,note_on,,0,0,17,,,,,,,,,,,,,,,,15,,71,40
21840,note_on,,121,0,17,,,,,,,,,,,,,,,,15,,64,40
21840,note_on,,121,0,16,,,,,,,,,,,,,,,,13,,64,40
21840,note_on,,0,0,17,,,,,,,,,,,,,,,,15,,79,40
21840,note_on,,0,0,17,,,,,,,,,,,,,,,,15,,74,40
21840,note_on,,121,0,13,,,,,,,,,,,,,,,,10,,79,40
21840,note_on,,121,0,14,,,,,,,,,,,,,,,,11,,74,40
21959,note_on,,0,0,17,,,,,,,,,,,,,,,,15,,74,0
21959,note_on,,119,0,13,,,,,,,,,,,,,,,,10,,79,0
21959,note_on,,119,0,14,,,,,,,,,,,,,,,,11,,74,0
21959,note_on,,119,0,17,,,,,,,,,,,,,,,,15,,64,0
21959,note_on,,0,0,17,,,,,,,,,,,,,,,,15,,79,0
21959,note_on,,119,0,15,,,,,,,,,,,,,,,,12,,64,0
21959,note_on,,119,0,16,,,,,,,,,,,,,,,,13,,64,0
21959,note_on,,0,0,17,,,,,,,,,,,,,,,,15,,67,0
21959,note_on,,0,0,17,,,,,,,,,,,,,,,,15,,71,0
22080,note_on,,0,0,17,,,,,,,,,,,,,,,,15,,64,40
22080,note_on,,0,0,17,,,,,,,,,,,,,,,,15,,67,40
22080,note_on,,0,0,17,,,,,,,,,,,,,,,,15,,69,40
22080,note_on,,121,0,14,,,,,,,,,,,,,,,,11,,73,40
22080,note_on,,121,0,17,,,,,,,,,,,,,,,,15,,57,40
22080,note_on,,0,0,17,,,,,,,,,,,,,,,,15,,73,40
22080,note_on,,121,0,16,,,,,,,,,,,,,,,,13,,57,40
22080,note_on,,121,0,15,,,,,,,,,,,,,,,,12,,57,40
22080,note_on,,121,0,13,,,,,,,,,,,,,,,,10,,79,40
22199,note_on,,119,0,14,,,,,,,,,,,,,,,,11,,73,0
22199,note_on,,119,0,16,,,,,,,,,,,,,,,,13,,57,0
22199,note_on,,119,0,15,,,,,,,,,,,,,,,,12,,57,0
22199,note_on,,119,0,13,,,,,,,,,,,,,,,,10,,79,0
22199,note_on,,0,0,17,,,,,,,,,,,,,,,,15,,64,0
22199,note_on,,0,0,17,,,,,,,,,,,,,,,,15,,67,0
22199,note_on,,0,0,17,,,,,,,,,,,,,,,,15,,69,0
22199,note_on,,0,0,17,,,,,,,,,,,,,,,,15,,73,0
22199,note_on,,119,0,17,,,,,,,,,,,,,,,,15,,57,0
22320,note_on,,121,0,15,,,,,,,,,,,,,,,,12,,62,40
22320,note_on,,121,0,14,,,,,,,,,,,,,,,,11,,74,40
22320,note_on,,0,0,17,,,,,,,,,,,,,,,,15,,74,40
22320,note_on,,0,0,17,,,,,,,,,,,,,,,,15,,69,40
22320,note_on,,0,0,17,,,,,,,,,,,,,,,,15,,66,40
22320,note_on,,121,0,16,,,,,,,,,,,,,,,,13,,62,40
22320,note_on,,121,0,13,,,,,,,,,,,,,,,,10,,78,40
22320,note_on,,121,0,17,,,,,,,,,,,,,,,,15,,62,40
22439,note_on,,119,0,16,,,,,,,,,,,,,,,,13,,62,0
22439,note_on,,119,0,13,,,,,,,,,,,,,,,,10,,78,0
22439,note_on,,119,0,15,,,,,,,,,,,,,,,,12,,62,0
22439,note_on,,119,0,17,,,,,,,,,,,,,,,,15,,62,0
22439,note_on,,0,0,17,,,,,,,,,,,,,,,,15,,66,0
22439,note_on,,0,0,17,,,,,,,,,,,,,,,,15,,69,0
22439,note_on,,0,0,17,,,,,,,,,,,,,,,,15,,74,0
22439,note_on,,119,0,14,,,,,,,,,,,,,,,,11,,74,0
22560,note_on,,0,0,17,,,,,,,,,,,,,,,,15,,76,40
22560,note_on,,0,0,17,,,,,,,,,,,,,,,,15,,73,40
22560,note_on,,121,0,13,,,,,,,,,,,,,,,,10,,76,40
22560,note_on,,121,0,14,,,,,,,,,,,,,,,,11,,73,40
22560,note_on,,121,0,16,,,,,,,,,,,,,,,,13,,69,40
22560,note_on,,121,0,15,,,,,,,,,,,,,,,,12,,69,40
22560,note_on,,121,0,17,,,,,,,,,,,,,,,,15,,69,40
22679,note_on,,119,0,14,,,,,,,,,,,,,,,,11,,73,0
22679,note_on,,119,0,16,,,,,,,,,,,,,,,,13,,69,0
22679,note_on,,119,0,17,,,,,,,,,,,,,,,,15,,69,0
22679,note_on,,0,0,17,,,,,,,,,,,,,,,,15,,76,0
22679,note_on,,0,0,17,,,,,,,,,,,,,,,,15,,73,0
22679,note_on,,119,0,13,,,,,,,,,,,,,,,,10,,76,0
22679,note_on,,119,0,15,,,,,,,,,,,,,,,,12,,69,0
22800,note_on,,121,0,13,,,,,,,,,,,,,,,,10,,85,40
22800,note_on,,121,0,16,,,,,,,,,,,,,,,,13,,57,40
22800,note_on,,121,0,14,,,,,,,,,,,,,,,,11,,76,40
22800,note_on,,121,0,15,,,,,,,,,,,,,,,,12,,57,40
22800,note_on,,0,0,17,,,,,,,,,,,,,,,,15,,64,40
22800,note_on,,0,0,17,,,,,,,,,,,,,,,,15,,73,40
22800,note_on,,0,0,17,,,,,,,,,,,,,,,,15,,76,40
22800,note_on,,121,0,17,,,,,,,,,,,,,,,,15,,57,40
22800,note_on,,0,0,17,,,,,,,,,,,,,,,,15,,81,40
22814,note_on,,14,0,14,,,,,,,,,,,,,,,,11,,76,0
22814,note_on,,14,0,13,,,,,,,,,,,,,,,,10,,85,0
22815,note_on,,1,0,14,,,,,,,,,,,,,,,,11,,78,40
22815,note_on,,1,0,13,,,,,,,,,,,,,,,,10,,86,40
22829,note_on,,14,0,13,,,,,,,,,,,,,,,,10,,86,0
22829,note_on,,14,0,14,,,,,,,,,,,,,,,,11,,78,0
22830,note_on,,1,0,13,,,,,,,,,,,,,,,,10,,85,40
22830,note_on,,1,0,14,,,,,,,,,,,,,,,,11,,76,40
22844,note_on,,14,0,14,,,,,,,,,,,,,,,,11,,76,0
22844,note_on,,14,0,13,,,,,,,,,,,,,,,,10,,85,0
22845,note_on,,1,0,14,,,,,,,,,,,,,,,,11,,78,40
22845,note_on,,1,0,13,,,,,,,,,,,,,,,,10,,86,40
22859,note_on,,14,0,14,,,,,,,,,,,,,,,,11,,78,0
22859,note_on,,14,0,13,,,,,,,,,,,,,,,,10,,86,0
22860,note_on,,1,0,14,,,,,,,,,,,,,,,,11,,76,40
22860,note_on,,1,0,13,,,,,,,,,,,,,,,,10,,85,40
22874,note_on,,14,0,13,,,,,,,,,,,,,,,,10,,85,0
22874,note_on,,14,0,14,,,,,,,,,,,,,,,,11,,76,0
22875,note_on,,1,0,13,,,,,,,,,,,,,,,,10,,86,40
22875,note_on,,1,0,14,,,,,,,,,,,,,,,,11,,78,40
22889,note_on,,14,0,13,,,,,,,,,,,,,,,,10,,86,0
22889,note_on,,14,0,14,,,,,,,,,,,,,,,,11,,78,0
22890,note_on,,1,0,13,,,,,,,,,,,,,,,,10,,85,40
22890,note_on,,1,0,14,,,,,,,,,,,,,,,,11,,76,40
22904,note_on,,14,0,13,,,,,,,,,,,,,,,,10,,85,0
22904,note_on,,14,0,14,,,,,,,,,,,,,,,,11,,76,0
22905,note_on,,1,0,13,,,,,,,,,,,,,,,,10,,86,40
22905,note_on,,1,0,14,,,,,,,,,,,,,,,,11,,78,40
22919,note_on,,0,0,17,,,,,,,,,,,,,,,,15,,81,0
22919,note_on,,119,0,17,,,,,,,,,,,,,,,,15,,57,0
22919,note_on,,0,0,17,,,,,,,,,,,,,,,,15,,76,0
22919,note_on,,0,0,17,,,,,,,,,,,,,,,,15,,73,0
22919,note_on,,14,0,13,,,,,,,,,,,,,,,,10,,86,0
22919,note_on,,119,0,16,,,,,,,,,,,,,,,,13,,57,0
22919,note_on,,14,0,14,,,,,,,,,,,,,,,,11,,78,0
22919,note_on,,119,0,15,,,,,,,,,,,,,,,,12,,57,0
22919,note_on,,0,0,17,,,,,,,,,,,,,,,,15,,64,0
22920,note_on,,1,0,13,,,,,,,,,,,,,,,,10,,85,40
22920,note_on,,1,0,14,,,,,,,,,,,,,,,,11,,76,40
22934,note_on,,14,0,13,,,,,,,,,,,,,,,,10,,85,0
22934,note_on,,14,0,14,,,,,,,,,,,,,,,,11,,76,0
22935,note_on,,1,0,14,,,,,,,,,,,,,,,,11,,78,40
22935,note_on,,1,0,13,,,,,,,,,,,,,,,,10,,86,40
22949,note_on,,14,0,14,,,,,,,,,,,,,,,,11,,78,0
22949,note_on,,14,0,13,,,,,,,,,,,,,,,,10,,86,0
22950,note_on,,1,0,14,,,,,,,,,,,,,,,,11,,74,40
22950,note_on,,1,0,13,,,,,,,,,,,,,,,,10,,83,40
22964,note_on,,14,0,14,,,,,,,,,,,,,,,,11,,74,0
22964,note_on,,14,0,13,,,,,,,,,,,,,,,,10,,83,0
22965,note_on,,1,0,13,,,,,,,,,,,,,,,,10,,85,40
22965,note_on,,1,0,14,,,,,,,,,,,,,,,,11,,76,40
22979,note_on,,14,0,13,,,,,,,,,,,,,,,,10,,85,0
22979,note_on,,14,0,14,,,,,,,,,,,,,,,,11,,76,0
23010,note_on,,31,0,13,,,,,,,,,,,,,,,,10,,85,40
23010,note_on,,31,0,14,,,,,,,,,,,,,,,,11,,79,40
23039,note_on,,29,0,13,,,,,,,,,,,,,,,,10,,85,0
23039,note_on,,29,0,14,,,,,,,,,,,,,,,,11,,79,0
23040,note_on,,121,0,16,,,,,,,,,,,,,,,,13,,50,40
23040,note_on,,1,0,14,,,,,,,,,,,,,,,,11,,78,40
23040,note_on,,121,0,17,,,,,,,,,,,,,,,,15,,50,40
23040,note_on,,0,0,17,,,,,,,,,,,,,,,,15,,69,40
23040,note_on,,0,0,17,,,,,,,,,,,,,,,,15,,78,40
23040,note_on,,0,0,17,,,,,,,,,,,,,,,,15,,74,40
23040,note_on,,121,0,15,,,,,,,,,,,,,,,,12,,62,40
23040,note_on,,0,0,17,,,,,,,,,,,,,,,,15,,62,40
23040,note_on,,1,0,13,,,,,,,,,,,,,,,,10,,86,40
23159,note_on,,119,0,17,,,,,,,,,,,,,,,,15,,50,0
23159,note_on,,0,0,17,,,,,,,,,,,,,,,,15,,78,0
23159,note_on,,0,0,17,,,,,,,,,,,,,,,,15,,69,0
23159,note_on,,0,0,17,,,,,,,,,,,,,,,,15,,74,0
23159,end_of_track,,0,1,17,,,,,,,,,,,,,,,,,,,
23159,note_on,,119,0,13,,,,,,,,,,,,,,,,10,,86,0
23159,end_of_track,,0,1,13,,,,,,,,,,,,,,,,,,,
23159,note_on,,0,0,17,,,,,,,,,,,,,,,,15,,62,0
23159,note_on,,119,0,14,,,,,,,,,,,,,,,,11,,78,0
23159,end_of_track,,0,1,14,,,,,,,,,,,,,,,,,,,
23159,note_on,,119,0,15,,,,,,,,,,,,,,,,12,,62,0
23159,end_of_track,,0,1,15,,,,,,,,,,,,,,,,,,,
23159,note_on,,119,0,16,,,,,,,,,,,,,,,,13,,50,0
23159,end_of_track,,0,1,16,,,,,,,,,,,,,,,,,,,
24000,set_tempo,,24000,1,0,,,,,,,,,500000,,,,,,,,,,
24000,end_of_track,,0,1,0,,,,,,,,,,,,,,,,,,,
