tick,type,data,time,meta,track,frame_rate,hours,minutes,seconds,frames,sub_frames,port,key,tempo,numerator,denominator,clocks_per_click,notated_32nd_notes_per_beat,control,value,channel,program,note,velocity
0,sequencer_specific,"(0, 0, 91, 35, 1, 0, 5, 4, 35, 0)",0,1,0,,,,,,,,,,,,,,,,,,,
0,control_change,,0,0,6,,,,,,,,,,,,,,11,127,1,,,
0,control_change,,0,0,6,,,,,,,,,,,,,,10,75,1,,,
0,control_change,,0,0,6,,,,,,,,,,,,,,7,72,1,,,
0,program_change,,0,0,6,,,,,,,,,,,,,,,,1,68,,
0,program_change,,0,0,14,,,,,,,,,,,,,,,,12,48,,
0,control_change,,0,0,14,,,,,,,,,,,,,,7,96,12,,,
0,midi_port,,0,1,6,,,,,,,0,,,,,,,,,,,,
0,control_change,,0,0,14,,,,,,,,,,,,,,10,80,12,,,
0,midi_port,,0,1,14,,,,,,,0,,,,,,,,,,,,
0,track_name,,0,1,14,,,,,,,,,,,,,,,,,,,
0,midi_port,,0,1,8,,,,,,,0,,,,,,,,,,,,
0,program_change,,0,0,13,,,,,,,,,,,,,,,,11,48,,
0,control_change,,0,0,13,,,,,,,,,,,,,,7,96,11,,,
0,control_change,,0,0,13,,,,,,,,,,,,,,10,24,11,,,
0,control_change,,0,0,14,,,,,,,,,,,,,,11,127,12,,,
0,track_name,,0,1,6,,,,,,,,,,,,,,,,,,,
0,track_name,,0,1,15,,,,,,,,,,,,,,,,,,,
0,midi_port,,0,1,15,,,,,,,0,,,,,,,,,,,,
0,note_on,,0,0,16,,,,,,,,,,,,,,,,15,,70,72
0,note_on,,0,0,16,,,,,,,,,,,,,,,,15,,74,72
0,note_on,,0,0,16,,,,,,,,,,,,,,,,15,,77,72
0,note_on,,0,0,16,,,,,,,,,,,,,,,,15,,46,72
0,program_change,,0,0,16,,,,,,,,,,,,,,,,15,6,,
0,control_change,,0,0,16,,,,,,,,,,,,,,7,96,15,,,
0,control_change,,0,0,16,,,,,,,,,,,,,,10,90,15,,,
0,control_change,,0,0,16,,,,,,,,,,,,,,11,127,15,,,
0,midi_port,,0,1,16,,,,,,,0,,,,,,,,,,,,
0,track_name,,0,1,16,,,,,,,,,,,,,,,,,,,
0,note_on,,0,0,15,,,,,,,,,,,,,,,,13,,46,72
0,program_change,,0,0,15,,,,,,,,,,,,,,,,13,48,,
0,control_change,,0,0,15,,,,,,,,,,,,,,7,96,13,,,
0,control_change,,0,0,15,,,,,,,,,,,,,,10,96,13,,,
0,control_change,,0,0,15,,,,,,,,,,,,,,11,127,13,,,
0,control_change,,0,0,13,,,,,,,,,,,,,,11,127,11,,,
0,midi_port,,0,1,13,,,,,,,0,,,,,,,,,,,,
0,track_name,,0,1,13,,,,,,,,,,,,,,,,,,,
0,program_change,,0,0,12,,,,,,,,,,,,,,,,10,48,,
0,control_change,,0,0,10,,,,,,,,,,,,,,7,96,7,,,
0,control_change,,0,0,10,,,,,,,,,,,,,,10,48,7,,,
0,control_change,,0,0,10,,,,,,,,,,,,,,11,127,7,,,
0,midi_port,,0,1,10,,,,,,,0,,,,,,,,,,,,
0,track_name,,0,1,10,,,,,,,,,,,,,,,,,,,
0,program_change,,0,0,9,,,,,,,,,,,,,,,,6,73,,
0,control_change,,0,0,9,,,,,,,,,,,,,,10,96,6,,,
0,control_change,,0,0,9,,,,,,,,,,,,,,7,96,6,,,
0,control_change,,0,0,9,,,,,,,,,,,,,,11,127,6,,,
0,midi_port,,0,1,9,,,,,,,0,,,,,,,,,,,,
0,track_name,,0,1,9,,,,,,,,,,,,,,,,,,,
0,program_change,,0,0,8,,,,,,,,,,,,,,,,5,73,,
0,control_change,,0,0,8,,,,,,,,,,,,,,7,96,5,,,
0,control_change,,0,0,8,,,,,,,,,,,,,,10,32,5,,,
0,control_change,,0,0,8,,,,,,,,,,,,,,11,127,5,,,
0,program_change,,0,0,10,,,,,,,,,,,,,,,,7,70,,
0,note_on,,0,0,16,,,,,,,,,,,,,,,,15,,65,72
0,track_name,,0,1,11,,,,,,,,,,,,,,,,,,,
0,control_change,,0,0,11,,,,,,,,,,,,,,11,127,8,,,
0,control_change,,0,0,12,,,,,,,,,,,,,,7,96,10,,,
0,control_change,,0,0,12,,,,,,,,,,,,,,10,48,10,,,
0,control_change,,0,0,12,,,,,,,,,,,,,,11,127,10,,,
0,midi_port,,0,1,12,,,,,,,0,,,,,,,,,,,,
0,track_name,,0,1,12,,,,,,,,,,,,,,,,,,,
0,track_name,,0,1,7,,,,,,,,,,,,,,,,,,,
0,midi_port,,0,1,7,,,,,,,0,,,,,,,,,,,,
0,control_change,,0,0,7,,,,,,,,,,,,,,11,127,2,,,
0,control_change,,0,0,7,,,,,,,,,,,,,,10,65,2,,,
0,control_change,,0,0,7,,,,,,,,,,,,,,7,80,2,,,
0,program_change,,0,0,7,,,,,,,,,,,,,,,,2,70,,
0,note_on,,0,0,7,,,,,,,,,,,,,,,,2,,46,72
0,program_change,,0,0,11,,,,,,,,,,,,,,,,8,60,,
0,control_change,,0,0,11,,,,,,,,,,,,,,10,80,8,,,
0,control_change,,0,0,11,,,,,,,,,,,,,,7,96,8,,,
0,midi_port,,0,1,11,,,,,,,0,,,,,,,,,,,,
0,note_on,,0,0,16,,,,,,,,,,,,,,,,15,,58,72
0,track_name,,0,1,8,,,,,,,,,,,,,,,,,,,
0,key_signature,,0,1,0,,,,,,,,Bb,,,,,,,,,,,
0,track_name,,0,1,3,,,,,,,,,,,,,,,,,,,
0,end_of_track,,0,1,2,,,,,,,,,,,,,,,,,,,
0,midi_port,,0,1,2,,,,,,,0,,,,,,,,,,,,
0,program_change,,0,0,5,,,,,,,,,,,,,,,,0,68,,
0,control_change,,0,0,5,,,,,,,,,,,,,,7,72,0,,,
0,midi_port,,0,1,5,,,,,,,0,,,,,,,,,,,,
0,track_name,,0,1,5,,,,,,,,,,,,,,,,,,,
0,end_of_track,,0,1,4,,,,,,,,,,,,,,,,,,,
0,midi_port,,0,1,4,,,,,,,0,,,,,,,,,,,,
0,end_of_track,,0,1,3,,,,,,,,,,,,,,,,,,,
0,midi_port,,0,1,3,,,,,,,0,,,,,,,,,,,,
0,control_change,,0,0,5,,,,,,,,,,,,,,10,70,0,,,
0,control_change,,0,0,5,,,,,,,,,,,,,,11,127,0,,,
0,track_name,,0,1,2,,,,,,,,,,,,,,,,,,,
0,end_of_track,,0,1,1,,,,,,,,,,,,,,,,,,,
0,midi_port,,0,1,1,,,,,,,0,,,,,,,,,,,,
0,track_name,,0,1,1,,,,,,,,,,,,,,,,,,,
0,time_signature,,0,1,0,,,,,,,,,,4,4,24,8,,,,,,
0,midi_port,,0,1,0,,,,,,,0,,,,,,,,,,,,
0,smpte_offset,,0,1,0,25,32,0,3,0,0,,,,,,,,,,,,,
0,instrument_name,,0,1,0,,,,,,,,,,,,,,,,,,,
0,track_name,,0,1,0,,,,,,,,,,,,,,,,,,,
0,set_tempo,,0,1,0,,,,,,,,,666666,,,,,,,,,,
119,note_on,,119,0,7,,,,,,,,,,,,,,,,2,,46,0
119,note_on,,0,0,16,,,,,,,,,,,,,,,,15,,58,0
119,note_on,,0,0,16,,,,,,,,,,,,,,,,15,,65,0
119,note_on,,0,0,16,,,,,,,,,,,,,,,,15,,70,0
119,note_on,,119,0,15,,,,,,,,,,,,,,,,13,,46,0
119,note_on,,0,0,16,,,,,,,,,,,,,,,,15,,74,0
119,note_on,,0,0,16,,,,,,,,,,,,,,,,15,,77,0
119,note_on,,119,0,16,,,,,,,,,,,,,,,,15,,46,0
210,note_on,,210,0,10,,,,,,,,,,,,,,,,7,,58,72
210,note_on,,210,0,11,,,,,,,,,,,,,,,,8,,58,72
239,note_on,,29,0,11,,,,,,,,,,,,,,,,8,,58,0
239,note_on,,29,0,10,,,,,,,,,,,,,,,,7,,58,0
240,note_on,,1,0,11,,,,,,,,,,,,,,,,8,,58,72
240,note_on,,1,0,10,,,,,,,,,,,,,,,,7,,58,72
479,note_on,,239,0,11,,,,,,,,,,,,,,,,8,,58,0
479,note_on,,239,0,10,,,,,,,,,,,,,,,,7,,58,0
480,note_on,,1,0,10,,,,,,,,,,,,,,,,7,,58,72
480,note_on,,1,0,11,,,,,,,,,,,,,,,,8,,58,72
689,note_on,,209,0,11,,,,,,,,,,,,,,,,8,,58,0
689,note_on,,209,0,10,,,,,,,,,,,,,,,,7,,58,0
690,note_on,,1,0,11,,,,,,,,,,,,,,,,8,,60,72
690,note_on,,1,0,10,,,,,,,,,,,,,,,,7,,60,72
719,note_on,,29,0,10,,,,,,,,,,,,,,,,7,,60,0
719,note_on,,29,0,11,,,,,,,,,,,,,,,,8,,60,0
720,note_on,,1,0,10,,,,,,,,,,,,,,,,7,,62,72
720,note_on,,1,0,11,,,,,,,,,,,,,,,,8,,62,72
959,note_on,,239,0,11,,,,,,,,,,,,,,,,8,,62,0
959,note_on,,239,0,10,,,,,,,,,,,,,,,,7,,62,0
1080,note_on,,1080,0,12,,,,,,,,,,,,,,,,10,,77,72
1080,note_on,,1080,0,13,,,,,,,,,,,,,,,,11,,74,72
1080,note_on,,121,0,10,,,,,,,,,,,,,,,,7,,62,72
1080,note_on,,1080,0,8,,,,,,,,,,,,,,,,5,,70,72
1080,note_on,,961,0,7,,,,,,,,,,,,,,,,2,,58,72
1080,note_on,,1080,0,5,,,,,,,,,,,,,,,,0,,70,72
1080,note_on,,1080,0,6,,,,,,,,,,,,,,,,1,,65,72
1080,note_on,,0,0,16,,,,,,,,,,,,,,,,15,,65,72
1080,note_on,,961,0,15,,,,,,,,,,,,,,,,13,,58,72
1080,note_on,,0,0,16,,,,,,,,,,,,,,,,15,,74,72
1080,note_on,,961,0,16,,,,,,,,,,,,,,,,15,,58,72
1080,note_on,,121,0,11,,,,,,,,,,,,,,,,8,,58,72
1080,note_on,,1080,0,14,,,,,,,,,,,,,,,,12,,70,72
1080,note_on,,1080,0,9,,,,,,,,,,,,,,,,6,,65,72
1080,note_on,,0,0,16,,,,,,,,,,,,,,,,15,,70,72
1139,note_on,,59,0,5,,,,,,,,,,,,,,,,0,,70,0
1139,note_on,,59,0,14,,,,,,,,,,,,,,,,12,,70,0
1139,note_on,,59,0,7,,,,,,,,,,,,,,,,2,,58,0
1139,note_on,,59,0,6,,,,,,,,,,,,,,,,1,,65,0
1139,note_on,,59,0,10,,,,,,,,,,,,,,,,7,,62,0
1139,note_on,,59,0,11,,,,,,,,,,,,,,,,8,,58,0
1139,note_on,,59,0,12,,,,,,,,,,,,,,,,10,,77,0
1139,note_on,,59,0,15,,,,,,,,,,,,,,,,13,,58,0
1139,note_on,,59,0,16,,,,,,,,,,,,,,,,15,,58,0
1139,note_on,,59,0,9,,,,,,,,,,,,,,,,6,,65,0
1139,note_on,,59,0,8,,,,,,,,,,,,,,,,5,,70,0
1139,note_on,,59,0,13,,,,,,,,,,,,,,,,11,,74,0
1140,note_on,,1,0,14,,,,,,,,,,,,,,,,12,,70,72
1140,note_on,,1,0,12,,,,,,,,,,,,,,,,10,,77,72
1140,note_on,,1,0,6,,,,,,,,,,,,,,,,1,,65,72
1140,note_on,,1,0,8,,,,,,,,,,,,,,,,5,,70,72
1140,note_on,,1,0,5,,,,,,,,,,,,,,,,0,,70,72
1140,note_on,,1,0,7,,,,,,,,,,,,,,,,2,,58,72
1140,note_on,,1,0,10,,,,,,,,,,,,,,,,7,,62,72
1140,note_on,,1,0,13,,,,,,,,,,,,,,,,11,,74,72
1140,note_on,,1,0,9,,,,,,,,,,,,,,,,6,,65,72
1140,note_on,,1,0,15,,,,,,,,,,,,,,,,13,,58,72
1140,note_on,,1,0,11,,,,,,,,,,,,,,,,8,,58,72
1140,note_on,,1,0,16,,,,,,,,,,,,,,,,15,,58,72
1169,note_on,,29,0,12,,,,,,,,,,,,,,,,10,,77,0
1169,note_on,,29,0,5,,,,,,,,,,,,,,,,0,,70,0
1169,note_on,,29,0,9,,,,,,,,,,,,,,,,6,,65,0
1169,note_on,,29,0,14,,,,,,,,,,,,,,,,12,,70,0
1169,note_on,,29,0,13,,,,,,,,,,,,,,,,11,,74,0
1169,note_on,,29,0,7,,,,,,,,,,,,,,,,2,,58,0
1169,note_on,,29,0,6,,,,,,,,,,,,,,,,1,,65,0
1169,note_on,,29,0,10,,,,,,,,,,,,,,,,7,,62,0
1169,note_on,,29,0,8,,,,,,,,,,,,,,,,5,,70,0
1169,note_on,,29,0,11,,,,,,,,,,,,,,,,8,,58,0
1169,note_on,,29,0,15,,,,,,,,,,,,,,,,13,,58,0
1169,note_on,,29,0,16,,,,,,,,,,,,,,,,15,,58,0
1170,note_on,,1,0,8,,,,,,,,,,,,,,,,5,,70,72
1170,note_on,,1,0,16,,,,,,,,,,,,,,,,15,,58,72
1170,note_on,,1,0,15,,,,,,,,,,,,,,,,13,,58,72
1170,note_on,,1,0,6,,,,,,,,,,,,,,,,1,,65,72
1170,note_on,,1,0,7,,,,,,,,,,,,,,,,2,,58,72
1170,note_on,,1,0,11,,,,,,,,,,,,,,,,8,,58,72
1170,note_on,,1,0,12,,,,,,,,,,,,,,,,10,,77,72
1170,note_on,,1,0,5,,,,,,,,,,,,,,,,0,,70,72
1170,note_on,,1,0,13,,,,,,,,,,,,,,,,11,,74,72
1170,note_on,,1,0,10,,,,,,,,,,,,,,,,7,,62,72
1170,note_on,,1,0,9,,,,,,,,,,,,,,,,6,,65,72
1170,note_on,,1,0,14,,,,,,,,,,,,,,,,12,,70,72
1199,note_on,,0,0,16,,,,,,,,,,,,,,,,15,,70,0
1199,note_on,,0,0,16,,,,,,,,,,,,,,,,15,,65,0
1199,note_on,,0,0,16,,,,,,,,,,,,,,,,15,,58,0
1199,note_on,,29,0,10,,,,,,,,,,,,,,,,7,,62,0
1199,note_on,,29,0,5,,,,,,,,,,,,,,,,0,,70,0
1199,note_on,,29,0,7,,,,,,,,,,,,,,,,2,,58,0
1199,note_on,,29,0,9,,,,,,,,,,,,,,,,6,,65,0
1199,note_on,,29,0,8,,,,,,,,,,,,,,,,5,,70,0
1199,note_on,,29,0,13,,,,,,,,,,,,,,,,11,,74,0
1199,note_on,,29,0,15,,,,,,,,,,,,,,,,13,,58,0
1199,note_on,,29,0,12,,,,,,,,,,,,,,,,10,,77,0
1199,note_on,,29,0,16,,,,,,,,,,,,,,,,15,,74,0
1199,note_on,,29,0,6,,,,,,,,,,,,,,,,1,,65,0
1199,note_on,,29,0,14,,,,,,,,,,,,,,,,12,,70,0
1199,note_on,,29,0,11,,,,,,,,,,,,,,,,8,,58,0
1200,note_on,,1,0,13,,,,,,,,,,,,,,,,11,,75,72
1200,note_on,,1,0,7,,,,,,,,,,,,,,,,2,,55,72
1200,note_on,,1,0,11,,,,,,,,,,,,,,,,8,,55,72
1200,note_on,,1,0,8,,,,,,,,,,,,,,,,5,,70,72
1200,note_on,,1,0,6,,,,,,,,,,,,,,,,1,,67,72
1200,note_on,,1,0,15,,,,,,,,,,,,,,,,13,,55,72
1200,note_on,,0,0,16,,,,,,,,,,,,,,,,15,,67,72
1200,note_on,,0,0,16,,,,,,,,,,,,,,,,15,,70,72
1200,note_on,,0,0,16,,,,,,,,,,,,,,,,15,,75,72
1200,note_on,,1,0,16,,,,,,,,,,,,,,,,15,,55,72
1200,note_on,,0,0,16,,,,,,,,,,,,,,,,15,,58,72
1200,note_on,,1,0,12,,,,,,,,,,,,,,,,10,,79,72
1200,note_on,,1,0,14,,,,,,,,,,,,,,,,12,,70,72
1200,note_on,,1,0,9,,,,,,,,,,,,,,,,6,,67,72
1200,note_on,,1,0,10,,,,,,,,,,,,,,,,7,,63,72
1200,note_on,,1,0,5,,,,,,,,,,,,,,,,0,,70,72
1259,note_on,,59,0,13,,,,,,,,,,,,,,,,11,,75,0
1259,note_on,,59,0,16,,,,,,,,,,,,,,,,15,,55,0
1259,note_on,,59,0,6,,,,,,,,,,,,,,,,1,,67,0
1259,note_on,,59,0,14,,,,,,,,,,,,,,,,12,,70,0
1259,note_on,,59,0,11,,,,,,,,,,,,,,,,8,,55,0
1259,note_on,,59,0,9,,,,,,,,,,,,,,,,6,,67,0
1259,note_on,,59,0,7,,,,,,,,,,,,,,,,2,,55,0
1259,note_on,,59,0,10,,,,,,,,,,,,,,,,7,,63,0
1259,note_on,,59,0,5,,,,,,,,,,,,,,,,0,,70,0
1259,note_on,,59,0,12,,,,,,,,,,,,,,,,10,,79,0
1259,note_on,,59,0,8,,,,,,,,,,,,,,,,5,,70,0
1259,note_on,,59,0,15,,,,,,,,,,,,,,,,13,,55,0
1260,note_on,,1,0,16,,,,,,,,,,,,,,,,15,,55,72
1260,note_on,,1,0,11,,,,,,,,,,,,,,,,8,,55,72
1260,note_on,,1,0,5,,,,,,,,,,,,,,,,0,,70,72
1260,note_on,,1,0,9,,,,,,,,,,,,,,,,6,,67,72
1260,note_on,,1,0,13,,,,,,,,,,,,,,,,11,,75,72
1260,note_on,,1,0,10,,,,,,,,,,,,,,,,7,,63,72
1260,note_on,,1,0,7,,,,,,,,,,,,,,,,2,,55,72
1260,note_on,,1,0,14,,,,,,,,,,,,,,,,12,,70,72
1260,note_on,,1,0,6,,,,,,,,,,,,,,,,1,,67,72
1260,note_on,,1,0,12,,,,,,,,,,,,,,,,10,,79,72
1260,note_on,,1,0,8,,,,,,,,,,,,,,,,5,,70,72
1260,note_on,,1,0,15,,,,,,,,,,,,,,,,13,,55,72
1289,note_on,,29,0,5,,,,,,,,,,,,,,,,0,,70,0
1289,note_on,,29,0,10,,,,,,,,,,,,,,,,7,,63,0
1289,note_on,,29,0,9,,,,,,,,,,,,,,,,6,,67,0
1289,note_on,,29,0,12,,,,,,,,,,,,,,,,10,,79,0
1289,note_on,,29,0,13,,,,,,,,,,,,,,,,11,,75,0
1289,note_on,,29,0,8,,,,,,,,,,,,,,,,5,,70,0
1289,note_on,,29,0,14,,,,,,,,,,,,,,,,12,,70,0
1289,note_on,,29,0,16,,,,,,,,,,,,,,,,15,,55,0
1289,note_on,,29,0,15,,,,,,,,,,,,,,,,13,,55,0
1289,note_on,,29,0,7,,,,,,,,,,,,,,,,2,,55,0
1289,note_on,,29,0,11,,,,,,,,,,,,,,,,8,,55,0
1289,note_on,,29,0,6,,,,,,,,,,,,,,,,1,,67,0
1290,note_on,,1,0,14,,,,,,,,,,,,,,,,12,,70,72
1290,note_on,,1,0,7,,,,,,,,,,,,,,,,2,,55,72
1290,note_on,,1,0,13,,,,,,,,,,,,,,,,11,,75,72
1290,note_on,,1,0,12,,,,,,,,,,,,,,,,10,,79,72
1290,note_on,,1,0,9,,,,,,,,,,,,,,,,6,,67,72
1290,note_on,,1,0,6,,,,,,,,,,,,,,,,1,,67,72
1290,note_on,,1,0,10,,,,,,,,,,,,,,,,7,,63,72
1290,note_on,,1,0,15,,,,,,,,,,,,,,,,13,,55,72
1290,note_on,,1,0,8,,,,,,,,,,,,,,,,5,,70,72
1290,note_on,,1,0,16,,,,,,,,,,,,,,,,15,,55,72
1290,note_on,,1,0,11,,,,,,,,,,,,,,,,8,,55,72
1290,note_on,,1,0,5,,,,,,,,,,,,,,,,0,,70,72
1319,note_on,,29,0,15,,,,,,,,,,,,,,,,13,,55,0
1319,note_on,,29,0,10,,,,,,,,,,,,,,,,7,,63,0
1319,note_on,,29,0,11,,,,,,,,,,,,,,,,8,,55,0
1319,note_on,,0,0,16,,,,,,,,,,,,,,,,15,,70,0
1319,note_on,,29,0,8,,,,,,,,,,,,,,,,5,,70,0
1319,note_on,,29,0,12,,,,,,,,,,,,,,,,10,,79,0
1319,note_on,,29,0,9,,,,,,,,,,,,,,,,6,,67,0
1319,note_on,,29,0,5,,,,,,,,,,,,,,,,0,,70,0
1319,note_on,,29,0,13,,,,,,,,,,,,,,,,11,,75,0
1319,note_on,,29,0,7,,,,,,,,,,,,,,,,2,,55,0
1319,note_on,,29,0,16,,,,,,,,,,,,,,,,15,,75,0
1319,note_on,,29,0,6,,,,,,,,,,,,,,,,1,,67,0
1319,note_on,,29,0,14,,,,,,,,,,,,,,,,12,,70,0
1319,note_on,,0,0,16,,,,,,,,,,,,,,,,15,,67,0
1319,note_on,,0,0,16,,,,,,,,,,,,,,,,15,,58,0
1319,note_on,,0,0,16,,,,,,,,,,,,,,,,15,,55,0
1320,note_on,,1,0,6,,,,,,,,,,,,,,,,1,,67,72
1320,note_on,,1,0,10,,,,,,,,,,,,,,,,7,,63,72
1320,note_on,,1,0,8,,,,,,,,,,,,,,,,5,,70,72
1320,note_on,,1,0,12,,,,,,,,,,,,,,,,10,,79,72
1320,note_on,,1,0,9,,,,,,,,,,,,,,,,6,,67,72
1320,note_on,,1,0,16,,,,,,,,,,,,,,,,15,,51,72
1320,note_on,,1,0,5,,,,,,,,,,,,,,,,0,,70,72
1320,note_on,,0,0,16,,,,,,,,,,,,,,,,15,,58,72
1320,note_on,,0,0,16,,,,,,,,,,,,,,,,15,,67,72
1320,note_on,,1,0,13,,,,,,,,,,,,,,,,11,,75,72
1320,note_on,,0,0,16,,,,,,,,,,,,,,,,15,,79,72
1320,note_on,,1,0,7,,,,,,,,,,,,,,,,2,,51,72
1320,note_on,,0,0,16,,,,,,,,,,,,,,,,15,,75,72
1320,note_on,,1,0,14,,,,,,,,,,,,,,,,12,,70,72
1320,note_on,,1,0,11,,,,,,,,,,,,,,,,8,,51,72
1320,note_on,,1,0,15,,,,,,,,,,,,,,,,13,,51,72
1379,note_on,,59,0,7,,,,,,,,,,,,,,,,2,,51,0
1379,note_on,,59,0,12,,,,,,,,,,,,,,,,10,,79,0
1379,note_on,,59,0,14,,,,,,,,,,,,,,,,12,,70,0
1379,note_on,,59,0,11,,,,,,,,,,,,,,,,8,,51,0
1379,note_on,,59,0,6,,,,,,,,,,,,,,,,1,,67,0
1379,note_on,,59,0,13,,,,,,,,,,,,,,,,11,,75,0
1379,note_on,,59,0,15,,,,,,,,,,,,,,,,13,,51,0
1379,note_on,,59,0,5,,,,,,,,,,,,,,,,0,,70,0
1379,note_on,,59,0,16,,,,,,,,,,,,,,,,15,,51,0
1379,note_on,,59,0,10,,,,,,,,,,,,,,,,7,,63,0
1379,note_on,,59,0,9,,,,,,,,,,,,,,,,6,,67,0
1379,note_on,,59,0,8,,,,,,,,,,,,,,,,5,,70,0
1380,note_on,,1,0,14,,,,,,,,,,,,,,,,12,,70,72
1380,note_on,,1,0,11,,,,,,,,,,,,,,,,8,,51,72
1380,note_on,,1,0,12,,,,,,,,,,,,,,,,10,,79,72
1380,note_on,,1,0,10,,,,,,,,,,,,,,,,7,,63,72
1380,note_on,,1,0,6,,,,,,,,,,,,,,,,1,,67,72
1380,note_on,,1,0,9,,,,,,,,,,,,,,,,6,,67,72
1380,note_on,,1,0,15,,,,,,,,,,,,,,,,13,,51,72
1380,note_on,,1,0,16,,,,,,,,,,,,,,,,15,,51,72
1380,note_on,,1,0,5,,,,,,,,,,,,,,,,0,,70,72
1380,note_on,,1,0,13,,,,,,,,,,,,,,,,11,,75,72
1380,note_on,,1,0,8,,,,,,,,,,,,,,,,5,,70,72
1380,note_on,,1,0,7,,,,,,,,,,,,,,,,2,,51,72
1439,note_on,,59,0,6,,,,,,,,,,,,,,,,1,,67,0
1439,note_on,,59,0,15,,,,,,,,,,,,,,,,13,,51,0
1439,note_on,,0,0,16,,,,,,,,,,,,,,,,15,,67,0
1439,note_on,,0,0,16,,,,,,,,,,,,,,,,15,,75,0
1439,note_on,,0,0,16,,,,,,,,,,,,,,,,15,,79,0
1439,note_on,,59,0,16,,,,,,,,,,,,,,,,15,,58,0
1439,note_on,,0,0,16,,,,,,,,,,,,,,,,15,,51,0
1439,note_on,,59,0,11,,,,,,,,,,,,,,,,8,,51,0
1439,note_on,,59,0,14,,,,,,,,,,,,,,,,12,,70,0
1439,note_on,,59,0,5,,,,,,,,,,,,,,,,0,,70,0
1439,note_on,,59,0,8,,,,,,,,,,,,,,,,5,,70,0
1439,note_on,,59,0,12,,,,,,,,,,,,,,,,10,,79,0
1439,note_on,,59,0,9,,,,,,,,,,,,,,,,6,,67,0
1439,note_on,,59,0,13,,,,,,,,,,,,,,,,11,,75,0
1439,note_on,,59,0,10,,,,,,,,,,,,,,,,7,,63,0
1439,note_on,,59,0,7,,,,,,,,,,,,,,,,2,,51,0
1440,note_on,,0,0,16,,,,,,,,,,,,,,,,15,,70,72
1440,note_on,,0,0,16,,,,,,,,,,,,,,,,15,,74,72
1440,note_on,,0,0,16,,,,,,,,,,,,,,,,15,,77,72
1440,note_on,,1,0,16,,,,,,,,,,,,,,,,15,,58,72
1440,note_on,,1,0,11,,,,,,,,,,,,,,,,8,,58,72
1440,note_on,,1,0,13,,,,,,,,,,,,,,,,11,,74,72
1440,note_on,,1,0,9,,,,,,,,,,,,,,,,6,,65,72
1440,note_on,,1,0,7,,,,,,,,,,,,,,,,2,,58,72
1440,note_on,,1,0,12,,,,,,,,,,,,,,,,10,,77,72
1440,note_on,,1,0,6,,,,,,,,,,,,,,,,1,,65,72
1440,note_on,,1,0,8,,,,,,,,,,,,,,,,5,,70,72
1440,note_on,,1,0,5,,,,,,,,,,,,,,,,0,,70,72
1440,note_on,,0,0,16,,,,,,,,,,,,,,,,15,,62,72
1440,note_on,,1,0,14,,,,,,,,,,,,,,,,12,,70,72
1440,note_on,,1,0,10,,,,,,,,,,,,,,,,7,,62,72
1440,note_on,,1,0,15,,,,,,,,,,,,,,,,13,,58,72
1499,note_on,,59,0,12,,,,,,,,,,,,,,,,10,,77,0
1499,note_on,,59,0,7,,,,,,,,,,,,,,,,2,,58,0
1499,note_on,,59,0,11,,,,,,,,,,,,,,,,8,,58,0
1499,note_on,,59,0,6,,,,,,,,,,,,,,,,1,,65,0
1499,note_on,,59,0,16,,,,,,,,,,,,,,,,15,,58,0
1499,note_on,,59,0,15,,,,,,,,,,,,,,,,13,,58,0
1499,note_on,,59,0,8,,,,,,,,,,,,,,,,5,,70,0
1499,note_on,,59,0,9,,,,,,,,,,,,,,,,6,,65,0
1499,note_on,,59,0,14,,,,,,,,,,,,,,,,12,,70,0
1499,note_on,,59,0,5,,,,,,,,,,,,,,,,0,,70,0
1499,note_on,,59,0,13,,,,,,,,,,,,,,,,11,,74,0
1499,note_on,,59,0,10,,,,,,,,,,,,,,,,7,,62,0
1500,note_on,,1,0,14,,,,,,,,,,,,,,,,12,,70,72
1500,note_on,,1,0,15,,,,,,,,,,,,,,,,13,,58,72
1500,note_on,,1,0,5,,,,,,,,,,,,,,,,0,,70,72
1500,note_on,,1,0,6,,,,,,,,,,,,,,,,1,,65,72
1500,note_on,,1,0,8,,,,,,,,,,,,,,,,5,,70,72
1500,note_on,,1,0,16,,,,,,,,,,,,,,,,15,,58,72
1500,note_on,,1,0,11,,,,,,,,,,,,,,,,8,,58,72
1500,note_on,,1,0,12,,,,,,,,,,,,,,,,10,,77,72
1500,note_on,,1,0,10,,,,,,,,,,,,,,,,7,,62,72
1500,note_on,,1,0,7,,,,,,,,,,,,,,,,2,,58,72
1500,note_on,,1,0,13,,,,,,,,,,,,,,,,11,,74,72
1500,note_on,,1,0,9,,,,,,,,,,,,,,,,6,,65,72
1559,note_on,,59,0,11,,,,,,,,,,,,,,,,8,,58,0
1559,note_on,,59,0,13,,,,,,,,,,,,,,,,11,,74,0
1559,note_on,,59,0,10,,,,,,,,,,,,,,,,7,,62,0
1559,note_on,,0,0,16,,,,,,,,,,,,,,,,15,,58,0
1559,note_on,,59,0,8,,,,,,,,,,,,,,,,5,,70,0
1559,note_on,,0,0,16,,,,,,,,,,,,,,,,15,,70,0
1559,note_on,,0,0,16,,,,,,,,,,,,,,,,15,,74,0
1559,note_on,,59,0,16,,,,,,,,,,,,,,,,15,,77,0
1559,note_on,,59,0,6,,,,,,,,,,,,,,,,1,,65,0
1559,note_on,,59,0,5,,,,,,,,,,,,,,,,0,,70,0
1559,note_on,,0,0,16,,,,,,,,,,,,,,,,15,,62,0
1559,note_on,,59,0,15,,,,,,,,,,,,,,,,13,,58,0
1559,note_on,,59,0,12,,,,,,,,,,,,,,,,10,,77,0
1559,note_on,,59,0,7,,,,,,,,,,,,,,,,2,,58,0
1559,note_on,,59,0,9,,,,,,,,,,,,,,,,6,,65,0
1559,note_on,,59,0,14,,,,,,,,,,,,,,,,12,,70,0
1560,note_on,,1,0,9,,,,,,,,,,,,,,,,6,,65,72
1560,note_on,,1,0,13,,,,,,,,,,,,,,,,11,,65,72
1560,note_on,,1,0,14,,,,,,,,,,,,,,,,12,,62,72
1560,note_on,,1,0,5,,,,,,,,,,,,,,,,0,,70,72
1560,note_on,,1,0,16,,,,,,,,,,,,,,,,15,,58,72
1560,note_on,,0,0,16,,,,,,,,,,,,,,,,15,,62,72
1560,note_on,,0,0,16,,,,,,,,,,,,,,,,15,,74,72
1560,note_on,,0,0,16,,,,,,,,,,,,,,,,15,,70,72
1560,note_on,,0,0,16,,,,,,,,,,,,,,,,15,,65,72
1560,note_on,,1,0,8,,,,,,,,,,,,,,,,5,,70,72
1560,note_on,,1,0,10,,,,,,,,,,,,,,,,7,,62,72
1560,note_on,,1,0,15,,,,,,,,,,,,,,,,13,,58,72
1560,note_on,,1,0,6,,,,,,,,,,,,,,,,1,,65,72
1560,note_on,,1,0,7,,,,,,,,,,,,,,,,2,,58,72
1560,note_on,,1,0,12,,,,,,,,,,,,,,,,10,,70,72
1560,note_on,,1,0,11,,,,,,,,,,,,,,,,8,,58,72
1619,note_on,,59,0,8,,,,,,,,,,,,,,,,5,,70,0
1619,note_on,,59,0,16,,,,,,,,,,,,,,,,15,,58,0
1619,note_on,,59,0,12,,,,,,,,,,,,,,,,10,,70,0
1619,note_on,,59,0,15,,,,,,,,,,,,,,,,13,,58,0
1619,note_on,,59,0,7,,,,,,,,,,,,,,,,2,,58,0
1619,note_on,,59,0,14,,,,,,,,,,,,,,,,12,,62,0
1619,note_on,,59,0,11,,,,,,,,,,,,,,,,8,,58,0
1619,note_on,,59,0,10,,,,,,,,,,,,,,,,7,,62,0
1619,note_on,,59,0,13,,,,,,,,,,,,,,,,11,,65,0
1619,note_on,,59,0,9,,,,,,,,,,,,,,,,6,,65,0
1619,note_on,,59,0,6,,,,,,,,,,,,,,,,1,,65,0
1619,note_on,,59,0,5,,,,,,,,,,,,,,,,0,,70,0
1620,note_on,,1,0,7,,,,,,,,,,,,,,,,2,,58,72
1620,note_on,,1,0,11,,,,,,,,,,,,,,,,8,,58,72
1620,note_on,,1,0,14,,,,,,,,,,,,,,,,12,,62,72
1620,note_on,,1,0,13,,,,,,,,,,,,,,,,11,,65,72
1620,note_on,,1,0,12,,,,,,,,,,,,,,,,10,,70,72
1620,note_on,,1,0,16,,,,,,,,,,,,,,,,15,,58,72
1620,note_on,,1,0,9,,,,,,,,,,,,,,,,6,,65,72
1620,note_on,,1,0,8,,,,,,,,,,,,,,,,5,,70,72
1620,note_on,,1,0,15,,,,,,,,,,,,,,,,13,,58,72
1620,note_on,,1,0,5,,,,,,,,,,,,,,,,0,,70,72
1620,note_on,,1,0,10,,,,,,,,,,,,,,,,7,,62,72
1620,note_on,,1,0,6,,,,,,,,,,,,,,,,1,,65,72
1649,note_on,,29,0,10,,,,,,,,,,,,,,,,7,,62,0
1649,note_on,,29,0,11,,,,,,,,,,,,,,,,8,,58,0
1649,note_on,,29,0,16,,,,,,,,,,,,,,,,15,,58,0
1649,note_on,,29,0,15,,,,,,,,,,,,,,,,13,,58,0
1649,note_on,,29,0,13,,,,,,,,,,,,,,,,11,,65,0
1649,note_on,,29,0,9,,,,,,,,,,,,,,,,6,,65,0
1649,note_on,,29,0,5,,,,,,,,,,,,,,,,0,,70,0
1649,note_on,,29,0,7,,,,,,,,,,,,,,,,2,,58,0
1649,note_on,,29,0,14,,,,,,,,,,,,,,,,12,,62,0
1649,note_on,,29,0,8,,,,,,,,,,,,,,,,5,,70,0
1649,note_on,,29,0,12,,,,,,,,,,,,,,,,10,,70,0
1649,note_on,,29,0,6,,,,,,,,,,,,,,,,1,,65,0
1650,note_on,,1,0,7,,,,,,,,,,,,,,,,2,,58,72
1650,note_on,,1,0,14,,,,,,,,,,,,,,,,12,,63,72
1650,note_on,,1,0,10,,,,,,,,,,,,,,,,7,,62,72
1650,note_on,,1,0,8,,,,,,,,,,,,,,,,5,,72,72
1650,note_on,,1,0,11,,,,,,,,,,,,,,,,8,,58,72
1650,note_on,,1,0,12,,,,,,,,,,,,,,,,10,,72,72
1650,note_on,,1,0,15,,,,,,,,,,,,,,,,13,,58,72
1650,note_on,,1,0,5,,,,,,,,,,,,,,,,0,,72,72
1650,note_on,,1,0,16,,,,,,,,,,,,,,,,15,,58,72
1650,note_on,,1,0,6,,,,,,,,,,,,,,,,1,,65,72
1650,note_on,,1,0,9,,,,,,,,,,,,,,,,6,,65,72
1650,note_on,,1,0,13,,,,,,,,,,,,,,,,11,,69,72
1679,note_on,,29,0,14,,,,,,,,,,,,,,,,12,,63,0
1679,note_on,,29,0,10,,,,,,,,,,,,,,,,7,,62,0
1679,note_on,,29,0,7,,,,,,,,,,,,,,,,2,,58,0
1679,note_on,,0,0,16,,,,,,,,,,,,,,,,15,,58,0
1679,note_on,,29,0,5,,,,,,,,,,,,,,,,0,,72,0
1679,note_on,,0,0,16,,,,,,,,,,,,,,,,15,,65,0
1679,note_on,,29,0,12,,,,,,,,,,,,,,,,10,,72,0
1679,note_on,,29,0,6,,,,,,,,,,,,,,,,1,,65,0
1679,note_on,,0,0,16,,,,,,,,,,,,,,,,15,,70,0
1679,note_on,,29,0,11,,,,,,,,,,,,,,,,8,,58,0
1679,note_on,,29,0,8,,,,,,,,,,,,,,,,5,,72,0
1679,note_on,,0,0,16,,,,,,,,,,,,,,,,15,,74,0
1679,note_on,,29,0,15,,,,,,,,,,,,,,,,13,,58,0
1679,note_on,,29,0,16,,,,,,,,,,,,,,,,15,,62,0
1679,note_on,,29,0,13,,,,,,,,,,,,,,,,11,,69,0
1679,note_on,,29,0,9,,,,,,,,,,,,,,,,6,,65,0
1680,note_on,,1,0,16,,,,,,,,,,,,,,,,15,,46,72
1680,note_on,,1,0,7,,,,,,,,,,,,,,,,2,,46,72
1680,note_on,,1,0,8,,,,,,,,,,,,,,,,5,,74,72
1680,note_on,,1,0,10,,,,,,,,,,,,,,,,7,,58,72
1680,note_on,,1,0,12,,,,,,,,,,,,,,,,10,,74,72
1680,note_on,,0,0,16,,,,,,,,,,,,,,,,15,,62,72
1680,note_on,,1,0,15,,,,,,,,,,,,,,,,13,,46,72
1680,note_on,,1,0,6,,,,,,,,,,,,,,,,1,,65,72
1680,note_on,,1,0,13,,,,,,,,,,,,,,,,11,,70,72
1680,note_on,,0,0,16,,,,,,,,,,,,,,,,15,,65,72
1680,note_on,,1,0,9,,,,,,,,,,,,,,,,6,,65,72
1680,note_on,,1,0,11,,,,,,,,,,,,,,,,8,,46,72
1680,note_on,,1,0,5,,,,,,,,,,,,,,,,0,,74,72
1680,note_on,,0,0,16,,,,,,,,,,,,,,,,15,,58,72
1680,note_on,,1,0,14,,,,,,,,,,,,,,,,12,,65,72
1709,note_on,,29,0,12,,,,,,,,,,,,,,,,10,,74,0
1709,note_on,,29,0,7,,,,,,,,,,,,,,,,2,,46,0
1709,note_on,,29,0,16,,,,,,,,,,,,,,,,15,,46,0
1709,note_on,,29,0,15,,,,,,,,,,,,,,,,13,,46,0
1709,note_on,,29,0,8,,,,,,,,,,,,,,,,5,,74,0
1709,note_on,,29,0,11,,,,,,,,,,,,,,,,8,,46,0
1709,note_on,,29,0,5,,,,,,,,,,,,,,,,0,,74,0
1710,note_on,,1,0,12,,,,,,,,,,,,,,,,10,,75,72
1710,note_on,,1,0,8,,,,,,,,,,,,,,,,5,,75,72
1710,note_on,,1,0,11,,,,,,,,,,,,,,,,8,,48,72
1710,note_on,,1,0,7,,,,,,,,,,,,,,,,2,,48,72
1710,note_on,,1,0,5,,,,,,,,,,,,,,,,0,,75,72
1710,note_on,,1,0,15,,,,,,,,,,,,,,,,13,,48,72
1710,note_on,,1,0,16,,,,,,,,,,,,,,,,15,,48,72
1739,note_on,,29,0,12,,,,,,,,,,,,,,,,10,,75,0
1739,note_on,,29,0,5,,,,,,,,,,,,,,,,0,,75,0
1739,note_on,,29,0,7,,,,,,,,,,,,,,,,2,,48,0
1739,note_on,,29,0,15,,,,,,,,,,,,,,,,13,,48,0
1739,note_on,,29,0,8,,,,,,,,,,,,,,,,5,,75,0
1739,note_on,,29,0,11,,,,,,,,,,,,,,,,8,,48,0
1739,note_on,,29,0,16,,,,,,,,,,,,,,,,15,,48,0
1740,note_on,,1,0,12,,,,,,,,,,,,,,,,10,,74,72
1740,note_on,,1,0,15,,,,,,,,,,,,,,,,13,,46,72
1740,note_on,,1,0,5,,,,,,,,,,,,,,,,0,,74,72
1740,note_on,,1,0,11,,,,,,,,,,,,,,,,8,,46,72
1740,note_on,,1,0,7,,,,,,,,,,,,,,,,2,,46,72
1740,note_on,,1,0,16,,,,,,,,,,,,,,,,15,,46,72
1740,note_on,,1,0,8,,,,,,,,,,,,,,,,5,,74,72
1769,note_on,,29,0,12,,,,,,,,,,,,,,,,10,,74,0
1769,note_on,,89,0,6,,,,,,,,,,,,,,,,1,,65,0
1769,note_on,,89,0,13,,,,,,,,,,,,,,,,11,,70,0
1769,note_on,,29,0,16,,,,,,,,,,,,,,,,15,,46,0
1769,note_on,,89,0,9,,,,,,,,,,,,,,,,6,,65,0
1769,note_on,,89,0,10,,,,,,,,,,,,,,,,7,,58,0
1769,note_on,,29,0,15,,,,,,,,,,,,,,,,13,,46,0
1769,note_on,,29,0,11,,,,,,,,,,,,,,,,8,,46,0
1769,note_on,,29,0,7,,,,,,,,,,,,,,,,2,,46,0
1769,note_on,,29,0,5,,,,,,,,,,,,,,,,0,,74,0
1769,note_on,,29,0,8,,,,,,,,,,,,,,,,5,,74,0
1769,note_on,,89,0,14,,,,,,,,,,,,,,,,12,,65,0
1770,note_on,,1,0,14,,,,,,,,,,,,,,,,12,,65,72
1770,note_on,,1,0,16,,,,,,,,,,,,,,,,15,,48,72
1770,note_on,,1,0,11,,,,,,,,,,,,,,,,8,,48,72
1770,note_on,,1,0,9,,,,,,,,,,,,,,,,6,,65,72
1770,note_on,,1,0,8,,,,,,,,,,,,,,,,5,,75,72
1770,note_on,,1,0,12,,,,,,,,,,,,,,,,10,,75,72
1770,note_on,,1,0,5,,,,,,,,,,,,,,,,0,,75,72
1770,note_on,,1,0,6,,,,,,,,,,,,,,,,1,,65,72
1770,note_on,,1,0,7,,,,,,,,,,,,,,,,2,,48,72
1770,note_on,,1,0,10,,,,,,,,,,,,,,,,7,,58,72
1770,note_on,,1,0,15,,,,,,,,,,,,,,,,13,,48,72
1770,note_on,,1,0,13,,,,,,,,,,,,,,,,11,,70,72
1799,note_on,,29,0,8,,,,,,,,,,,,,,,,5,,75,0
1799,note_on,,29,0,6,,,,,,,,,,,,,,,,1,,65,0
1799,note_on,,29,0,9,,,,,,,,,,,,,,,,6,,65,0
1799,note_on,,29,0,10,,,,,,,,,,,,,,,,7,,58,0
1799,note_on,,29,0,11,,,,,,,,,,,,,,,,8,,48,0
1799,note_on,,29,0,16,,,,,,,,,,,,,,,,15,,65,0
1799,note_on,,0,0,16,,,,,,,,,,,,,,,,15,,58,0
1799,note_on,,0,0,16,,,,,,,,,,,,,,,,15,,48,0
1799,note_on,,29,0,5,,,,,,,,,,,,,,,,0,,75,0
1799,note_on,,0,0,16,,,,,,,,,,,,,,,,15,,62,0
1799,note_on,,29,0,15,,,,,,,,,,,,,,,,13,,48,0
1799,note_on,,29,0,7,,,,,,,,,,,,,,,,2,,48,0
1799,note_on,,29,0,14,,,,,,,,,,,,,,,,12,,65,0
1799,note_on,,29,0,13,,,,,,,,,,,,,,,,11,,70,0
1799,note_on,,29,0,12,,,,,,,,,,,,,,,,10,,75,0
1800,note_on,,0,0,16,,,,,,,,,,,,,,,,15,,53,72
1800,note_on,,1,0,11,,,,,,,,,,,,,,,,8,,50,72
1800,note_on,,0,0,16,,,,,,,,,,,,,,,,15,,58,72
1800,note_on,,0,0,16,,,,,,,,,,,,,,,,15,,65,72
1800,note_on,,0,0,16,,,,,,,,,,,,,,,,15,,70,72
1800,note_on,,1,0,8,,,,,,,,,,,,,,,,5,,77,72
1800,note_on,,1,0,5,,,,,,,,,,,,,,,,0,,77,72
1800,note_on,,1,0,7,,,,,,,,,,,,,,,,2,,50,72
1800,note_on,,1,0,10,,,,,,,,,,,,,,,,7,,58,72
1800,note_on,,1,0,15,,,,,,,,,,,,,,,,13,,50,72
1800,note_on,,1,0,6,,,,,,,,,,,,,,,,1,,65,72
1800,note_on,,1,0,14,,,,,,,,,,,,,,,,12,,65,72
1800,note_on,,1,0,13,,,,,,,,,,,,,,,,11,,70,72
1800,note_on,,1,0,12,,,,,,,,,,,,,,,,10,,77,72
1800,note_on,,1,0,16,,,,,,,,,,,,,,,,15,,50,72
1800,note_on,,1,0,9,,,,,,,,,,,,,,,,6,,65,72
1829,note_on,,29,0,12,,,,,,,,,,,,,,,,10,,77,0
1829,note_on,,29,0,7,,,,,,,,,,,,,,,,2,,50,0
1829,note_on,,29,0,5,,,,,,,,,,,,,,,,0,,77,0
1829,note_on,,29,0,8,,,,,,,,,,,,,,,,5,,77,0
1829,note_on,,29,0,11,,,,,,,,,,,,,,,,8,,50,0
1829,note_on,,29,0,15,,,,,,,,,,,,,,,,13,,50,0
1829,note_on,,29,0,16,,,,,,,,,,,,,,,,15,,50,0
1830,note_on,,1,0,11,,,,,,,,,,,,,,,,8,,51,72
1830,note_on,,1,0,8,,,,,,,,,,,,,,,,5,,79,72
1830,note_on,,1,0,15,,,,,,,,,,,,,,,,13,,51,72
1830,note_on,,1,0,16,,,,,,,,,,,,,,,,15,,51,72
1830,note_on,,1,0,7,,,,,,,,,,,,,,,,2,,51,72
1830,note_on,,1,0,12,,,,,,,,,,,,,,,,10,,79,72
1830,note_on,,1,0,5,,,,,,,,,,,,,,,,0,,79,72
1859,note_on,,29,0,8,,,,,,,,,,,,,,,,5,,79,0
1859,note_on,,29,0,7,,,,,,,,,,,,,,,,2,,51,0
1859,note_on,,29,0,12,,,,,,,,,,,,,,,,10,,79,0
1859,note_on,,29,0,16,,,,,,,,,,,,,,,,15,,51,0
1859,note_on,,29,0,15,,,,,,,,,,,,,,,,13,,51,0
1859,note_on,,59,0,14,,,,,,,,,,,,,,,,12,,65,0
1859,note_on,,59,0,10,,,,,,,,,,,,,,,,7,,58,0
1859,note_on,,29,0,11,,,,,,,,,,,,,,,,8,,51,0
1859,note_on,,59,0,9,,,,,,,,,,,,,,,,6,,65,0
1859,note_on,,59,0,6,,,,,,,,,,,,,,,,1,,65,0
1859,note_on,,29,0,5,,,,,,,,,,,,,,,,0,,79,0
1859,note_on,,59,0,13,,,,,,,,,,,,,,,,11,,70,0
1860,note_on,,1,0,11,,,,,,,,,,,,,,,,8,,50,72
1860,note_on,,1,0,9,,,,,,,,,,,,,,,,6,,65,72
1860,note_on,,1,0,5,,,,,,,,,,,,,,,,0,,77,72
1860,note_on,,1,0,13,,,,,,,,,,,,,,,,11,,70,72
1860,note_on,,1,0,7,,,,,,,,,,,,,,,,2,,50,72
1860,note_on,,1,0,15,,,,,,,,,,,,,,,,13,,50,72
1860,note_on,,1,0,12,,,,,,,,,,,,,,,,10,,77,72
1860,note_on,,1,0,14,,,,,,,,,,,,,,,,12,,65,72
1860,note_on,,1,0,10,,,,,,,,,,,,,,,,7,,58,72
1860,note_on,,1,0,6,,,,,,,,,,,,,,,,1,,65,72
1860,note_on,,1,0,16,,,,,,,,,,,,,,,,15,,50,72
1860,note_on,,1,0,8,,,,,,,,,,,,,,,,5,,77,72
1889,note_on,,29,0,12,,,,,,,,,,,,,,,,10,,77,0
1889,note_on,,29,0,7,,,,,,,,,,,,,,,,2,,50,0
1889,note_on,,29,0,15,,,,,,,,,,,,,,,,13,,50,0
1889,note_on,,29,0,11,,,,,,,,,,,,,,,,8,,50,0
1889,note_on,,29,0,8,,,,,,,,,,,,,,,,5,,77,0
1889,note_on,,29,0,5,,,,,,,,,,,,,,,,0,,77,0
1889,note_on,,29,0,16,,,,,,,,,,,,,,,,15,,50,0
1890,note_on,,1,0,7,,,,,,,,,,,,,,,,2,,51,72
1890,note_on,,1,0,16,,,,,,,,,,,,,,,,15,,51,72
1890,note_on,,1,0,15,,,,,,,,,,,,,,,,13,,51,72
1890,note_on,,1,0,12,,,,,,,,,,,,,,,,10,,79,72
1890,note_on,,1,0,5,,,,,,,,,,,,,,,,0,,79,72
1890,note_on,,1,0,11,,,,,,,,,,,,,,,,8,,51,72
1890,note_on,,1,0,8,,,,,,,,,,,,,,,,5,,79,72
1919,note_on,,29,0,15,,,,,,,,,,,,,,,,13,,51,0
1919,note_on,,0,0,16,,,,,,,,,,,,,,,,15,,65,0
1919,note_on,,0,0,16,,,,,,,,,,,,,,,,15,,58,0
1919,note_on,,0,0,16,,,,,,,,,,,,,,,,15,,51,0
1919,note_on,,29,0,11,,,,,,,,,,,,,,,,8,,51,0
1919,note_on,,29,0,8,,,,,,,,,,,,,,,,5,,79,0
1919,note_on,,29,0,5,,,,,,,,,,,,,,,,0,,79,0
1919,note_on,,59,0,14,,,,,,,,,,,,,,,,12,,65,0
1919,note_on,,29,0,16,,,,,,,,,,,,,,,,15,,53,0
1919,note_on,,29,0,7,,,,,,,,,,,,,,,,2,,51,0
1919,note_on,,59,0,13,,,,,,,,,,,,,,,,11,,70,0
1919,note_on,,0,0,16,,,,,,,,,,,,,,,,15,,70,0
1919,note_on,,59,0,10,,,,,,,,,,,,,,,,7,,58,0
1919,note_on,,29,0,12,,,,,,,,,,,,,,,,10,,79,0
1919,note_on,,59,0,6,,,,,,,,,,,,,,,,1,,65,0
1919,note_on,,59,0,9,,,,,,,,,,,,,,,,6,,65,0
1920,note_on,,1,0,10,,,,,,,,,,,,,,,,7,,53,72
1920,note_on,,1,0,7,,,,,,,,,,,,,,,,2,,53,72
1920,note_on,,1,0,5,,,,,,,,,,,,,,,,0,,69,72
1920,note_on,,1,0,6,,,,,,,,,,,,,,,,1,,65,72
1920,note_on,,1,0,14,,,,,,,,,,,,,,,,12,,60,72
1920,note_on,,1,0,11,,,,,,,,,,,,,,,,8,,53,72
1920,note_on,,0,0,16,,,,,,,,,,,,,,,,15,,60,72
1920,note_on,,1,0,8,,,,,,,,,,,,,,,,5,,69,72
1920,note_on,,1,0,15,,,,,,,,,,,,,,,,13,,53,72
1920,note_on,,0,0,16,,,,,,,,,,,,,,,,15,,65,72
1920,note_on,,1,0,12,,,,,,,,,,,,,,,,10,,69,72
1920,note_on,,1,0,16,,,,,,,,,,,,,,,,15,,53,72
1920,note_on,,1,0,13,,,,,,,,,,,,,,,,11,,65,72
1920,note_on,,1,0,9,,,,,,,,,,,,,,,,6,,65,72
1920,note_on,,0,0,16,,,,,,,,,,,,,,,,15,,57,72
1949,note_on,,29,0,6,,,,,,,,,,,,,,,,1,,65,0
1949,note_on,,29,0,13,,,,,,,,,,,,,,,,11,,65,0
1949,note_on,,29,0,10,,,,,,,,,,,,,,,,7,,53,0
1949,note_on,,29,0,5,,,,,,,,,,,,,,,,0,,69,0
1949,note_on,,29,0,8,,,,,,,,,,,,,,,,5,,69,0
1949,note_on,,29,0,12,,,,,,,,,,,,,,,,10,,69,0
1950,note_on,,1,0,8,,,,,,,,,,,,,,,,5,,70,72
1950,note_on,,1,0,10,,,,,,,,,,,,,,,,7,,55,72
1950,note_on,,1,0,13,,,,,,,,,,,,,,,,11,,67,72
1950,note_on,,1,0,12,,,,,,,,,,,,,,,,10,,70,72
1950,note_on,,1,0,6,,,,,,,,,,,,,,,,1,,67,72
1950,note_on,,1,0,5,,,,,,,,,,,,,,,,0,,70,72
1979,note_on,,29,0,12,,,,,,,,,,,,,,,,10,,70,0
1979,note_on,,29,0,13,,,,,,,,,,,,,,,,11,,67,0
1979,note_on,,29,0,6,,,,,,,,,,,,,,,,1,,67,0
1979,note_on,,29,0,5,,,,,,,,,,,,,,,,0,,70,0
1979,note_on,,29,0,10,,,,,,,,,,,,,,,,7,,55,0
1979,note_on,,29,0,8,,,,,,,,,,,,,,,,5,,70,0
1980,note_on,,1,0,5,,,,,,,,,,,,,,,,0,,69,72
1980,note_on,,1,0,12,,,,,,,,,,,,,,,,10,,69,72
1980,note_on,,1,0,6,,,,,,,,,,,,,,,,1,,65,72
1980,note_on,,1,0,13,,,,,,,,,,,,,,,,11,,65,72
1980,note_on,,1,0,8,,,,,,,,,,,,,,,,5,,69,72
1980,note_on,,1,0,10,,,,,,,,,,,,,,,,7,,53,72
2009,note_on,,29,0,12,,,,,,,,,,,,,,,,10,,69,0
2009,note_on,,29,0,13,,,,,,,,,,,,,,,,11,,65,0
2009,note_on,,29,0,6,,,,,,,,,,,,,,,,1,,65,0
2009,note_on,,89,0,9,,,,,,,,,,,,,,,,6,,65,0
2009,note_on,,89,0,11,,,,,,,,,,,,,,,,8,,53,0
2009,note_on,,89,0,7,,,,,,,,,,,,,,,,2,,53,0
2009,note_on,,89,0,15,,,,,,,,,,,,,,,,13,,53,0
2009,note_on,,29,0,8,,,,,,,,,,,,,,,,5,,69,0
2009,note_on,,89,0,16,,,,,,,,,,,,,,,,15,,53,0
2009,note_on,,29,0,5,,,,,,,,,,,,,,,,0,,69,0
2009,note_on,,29,0,10,,,,,,,,,,,,,,,,7,,53,0
2009,note_on,,89,0,14,,,,,,,,,,,,,,,,12,,60,0
2010,note_on,,1,0,13,,,,,,,,,,,,,,,,11,,67,72
2010,note_on,,1,0,9,,,,,,,,,,,,,,,,6,,60,72
2010,note_on,,1,0,7,,,,,,,,,,,,,,,,2,,53,72
2010,note_on,,1,0,6,,,,,,,,,,,,,,,,1,,67,72
2010,note_on,,1,0,15,,,,,,,,,,,,,,,,13,,53,72
2010,note_on,,1,0,8,,,,,,,,,,,,,,,,5,,70,72
2010,note_on,,1,0,16,,,,,,,,,,,,,,,,15,,53,72
2010,note_on,,1,0,14,,,,,,,,,,,,,,,,12,,60,72
2010,note_on,,1,0,11,,,,,,,,,,,,,,,,8,,53,72
2010,note_on,,1,0,10,,,,,,,,,,,,,,,,7,,55,72
2010,note_on,,1,0,5,,,,,,,,,,,,,,,,0,,70,72
2010,note_on,,1,0,12,,,,,,,,,,,,,,,,10,,70,72
2039,note_on,,29,0,14,,,,,,,,,,,,,,,,12,,60,0
2039,note_on,,29,0,13,,,,,,,,,,,,,,,,11,,67,0
2039,note_on,,29,0,6,,,,,,,,,,,,,,,,1,,67,0
2039,note_on,,29,0,10,,,,,,,,,,,,,,,,7,,55,0
2039,note_on,,29,0,15,,,,,,,,,,,,,,,,13,,53,0
2039,note_on,,29,0,16,,,,,,,,,,,,,,,,15,,65,0
2039,note_on,,0,0,16,,,,,,,,,,,,,,,,15,,60,0
2039,note_on,,0,0,16,,,,,,,,,,,,,,,,15,,57,0
2039,note_on,,0,0,16,,,,,,,,,,,,,,,,15,,53,0
2039,note_on,,29,0,9,,,,,,,,,,,,,,,,6,,60,0
2039,note_on,,29,0,7,,,,,,,,,,,,,,,,2,,53,0
2039,note_on,,29,0,11,,,,,,,,,,,,,,,,8,,53,0
2039,note_on,,29,0,5,,,,,,,,,,,,,,,,0,,70,0
2039,note_on,,29,0,8,,,,,,,,,,,,,,,,5,,70,0
2039,note_on,,29,0,12,,,,,,,,,,,,,,,,10,,70,0
2040,note_on,,1,0,8,,,,,,,,,,,,,,,,5,,72,72
2040,note_on,,1,0,11,,,,,,,,,,,,,,,,8,,53,72
2040,note_on,,1,0,14,,,,,,,,,,,,,,,,12,,60,72
2040,note_on,,1,0,6,,,,,,,,,,,,,,,,1,,69,72
2040,note_on,,1,0,13,,,,,,,,,,,,,,,,11,,69,72
2040,note_on,,1,0,10,,,,,,,,,,,,,,,,7,,57,72
2040,note_on,,1,0,5,,,,,,,,,,,,,,,,0,,72,72
2040,note_on,,1,0,15,,,,,,,,,,,,,,,,13,,53,72
2040,note_on,,1,0,12,,,,,,,,,,,,,,,,10,,72,72
2040,note_on,,1,0,16,,,,,,,,,,,,,,,,15,,53,72
2040,note_on,,0,0,16,,,,,,,,,,,,,,,,15,,60,72
2040,note_on,,1,0,9,,,,,,,,,,,,,,,,6,,60,72
2040,note_on,,1,0,7,,,,,,,,,,,,,,,,2,,53,72
2040,note_on,,0,0,16,,,,,,,,,,,,,,,,15,,65,72
2040,note_on,,0,0,16,,,,,,,,,,,,,,,,15,,69,72
2069,note_on,,29,0,8,,,,,,,,,,,,,,,,5,,72,0
2069,note_on,,29,0,6,,,,,,,,,,,,,,,,1,,69,0
2069,note_on,,29,0,13,,,,,,,,,,,,,,,,11,,69,0
2069,note_on,,29,0,5,,,,,,,,,,,,,,,,0,,72,0
2069,note_on,,29,0,10,,,,,,,,,,,,,,,,7,,57,0
2069,note_on,,29,0,12,,,,,,,,,,,,,,,,10,,72,0
2070,note_on,,1,0,10,,,,,,,,,,,,,,,,7,,58,72
2070,note_on,,1,0,8,,,,,,,,,,,,,,,,5,,74,72
2070,note_on,,1,0,6,,,,,,,,,,,,,,,,1,,70,72
2070,note_on,,1,0,13,,,,,,,,,,,,,,,,11,,70,72
2070,note_on,,1,0,5,,,,,,,,,,,,,,,,0,,74,72
2070,note_on,,1,0,12,,,,,,,,,,,,,,,,10,,74,72
2099,note_on,,29,0,8,,,,,,,,,,,,,,,,5,,74,0
2099,note_on,,29,0,12,,,,,,,,,,,,,,,,10,,74,0
2099,note_on,,29,0,6,,,,,,,,,,,,,,,,1,,70,0
2099,note_on,,59,0,14,,,,,,,,,,,,,,,,12,,60,0
2099,note_on,,29,0,10,,,,,,,,,,,,,,,,7,,58,0
2099,note_on,,29,0,5,,,,,,,,,,,,,,,,0,,74,0
2099,note_on,,59,0,7,,,,,,,,,,,,,,,,2,,53,0
2099,note_on,,59,0,16,,,,,,,,,,,,,,,,15,,53,0
2099,note_on,,59,0,9,,,,,,,,,,,,,,,,6,,60,0
2099,note_on,,59,0,11,,,,,,,,,,,,,,,,8,,53,0
2099,note_on,,59,0,15,,,,,,,,,,,,,,,,13,,53,0
2099,note_on,,29,0,13,,,,,,,,,,,,,,,,11,,70,0
2100,note_on,,1,0,10,,,,,,,,,,,,,,,,7,,57,72
2100,note_on,,1,0,8,,,,,,,,,,,,,,,,5,,72,72
2100,note_on,,1,0,13,,,,,,,,,,,,,,,,11,,69,72
2100,note_on,,1,0,7,,,,,,,,,,,,,,,,2,,53,72
2100,note_on,,1,0,6,,,,,,,,,,,,,,,,1,,69,72
2100,note_on,,1,0,16,,,,,,,,,,,,,,,,15,,53,72
2100,note_on,,1,0,11,,,,,,,,,,,,,,,,8,,53,72
2100,note_on,,1,0,15,,,,,,,,,,,,,,,,13,,53,72
2100,note_on,,1,0,9,,,,,,,,,,,,,,,,6,,65,72
2100,note_on,,1,0,5,,,,,,,,,,,,,,,,0,,72,72
2100,note_on,,1,0,14,,,,,,,,,,,,,,,,12,,60,72
2100,note_on,,1,0,12,,,,,,,,,,,,,,,,10,,72,72
2129,note_on,,29,0,12,,,,,,,,,,,,,,,,10,,72,0
2129,note_on,,29,0,13,,,,,,,,,,,,,,,,11,,69,0
2129,note_on,,29,0,6,,,,,,,,,,,,,,,,1,,69,0
2129,note_on,,29,0,8,,,,,,,,,,,,,,,,5,,72,0
2129,note_on,,29,0,5,,,,,,,,,,,,,,,,0,,72,0
2129,note_on,,29,0,10,,,,,,,,,,,,,,,,7,,57,0
2130,note_on,,1,0,6,,,,,,,,,,,,,,,,1,,70,72
2130,note_on,,1,0,8,,,,,,,,,,,,,,,,5,,74,72
2130,note_on,,1,0,13,,,,,,,,,,,,,,,,11,,70,72
2130,note_on,,1,0,12,,,,,,,,,,,,,,,,10,,74,72
2130,note_on,,1,0,5,,,,,,,,,,,,,,,,0,,74,72
2130,note_on,,1,0,10,,,,,,,,,,,,,,,,7,,58,72
2159,note_on,,29,0,6,,,,,,,,,,,,,,,,1,,70,0
2159,note_on,,29,0,8,,,,,,,,,,,,,,,,5,,74,0
2159,note_on,,59,0,14,,,,,,,,,,,,,,,,12,,60,0
2159,note_on,,29,0,10,,,,,,,,,,,,,,,,7,,58,0
2159,note_on,,29,0,12,,,,,,,,,,,,,,,,10,,74,0
2159,note_on,,29,0,13,,,,,,,,,,,,,,,,11,,70,0
2159,note_on,,59,0,9,,,,,,,,,,,,,,,,6,,65,0
2159,note_on,,59,0,11,,,,,,,,,,,,,,,,8,,53,0
2159,note_on,,59,0,7,,,,,,,,,,,,,,,,2,,53,0
2159,note_on,,0,0,16,,,,,,,,,,,,,,,,15,,53,0
2159,note_on,,0,0,16,,,,,,,,,,,,,,,,15,,60,0
2159,note_on,,0,0,16,,,,,,,,,,,,,,,,15,,65,0
2159,note_on,,59,0,16,,,,,,,,,,,,,,,,15,,69,0
2159,note_on,,29,0,5,,,,,,,,,,,,,,,,0,,74,0
2159,note_on,,59,0,15,,,,,,,,,,,,,,,,13,,53,0
2160,note_on,,1,0,15,,,,,,,,,,,,,,,,13,,48,72
2160,note_on,,1,0,14,,,,,,,,,,,,,,,,12,,67,72
2160,note_on,,1,0,10,,,,,,,,,,,,,,,,7,,60,72
2160,note_on,,1,0,8,,,,,,,,,,,,,,,,5,,75,72
2160,note_on,,0,0,16,,,,,,,,,,,,,,,,15,,60,72
2160,note_on,,1,0,16,,,,,,,,,,,,,,,,15,,48,72
2160,note_on,,0,0,16,,,,,,,,,,,,,,,,15,,55,72
2160,note_on,,0,0,16,,,,,,,,,,,,,,,,15,,63,72
2160,note_on,,1,0,9,,,,,,,,,,,,,,,,6,,63,72
2160,note_on,,0,0,16,,,,,,,,,,,,,,,,15,,67,72
2160,note_on,,1,0,6,,,,,,,,,,,,,,,,1,,72,72
2160,note_on,,1,0,7,,,,,,,,,,,,,,,,2,,48,72
2160,note_on,,1,0,5,,,,,,,,,,,,,,,,0,,75,72
2160,note_on,,1,0,13,,,,,,,,,,,,,,,,11,,72,72
2160,note_on,,1,0,12,,,,,,,,,,,,,,,,10,,75,72
2160,note_on,,1,0,11,,,,,,,,,,,,,,,,8,,48,72
2189,note_on,,29,0,5,,,,,,,,,,,,,,,,0,,75,0
2189,note_on,,29,0,8,,,,,,,,,,,,,,,,5,,75,0
2189,note_on,,29,0,12,,,,,,,,,,,,,,,,10,,75,0
2189,note_on,,29,0,9,,,,,,,,,,,,,,,,6,,63,0
2189,note_on,,29,0,16,,,,,,,,,,,,,,,,15,,48,0
2189,note_on,,29,0,11,,,,,,,,,,,,,,,,8,,48,0
2189,note_on,,29,0,7,,,,,,,,,,,,,,,,2,,48,0
2189,note_on,,29,0,15,,,,,,,,,,,,,,,,13,,48,0
2190,note_on,,1,0,7,,,,,,,,,,,,,,,,2,,50,72
2190,note_on,,1,0,5,,,,,,,,,,,,,,,,0,,74,72
2190,note_on,,1,0,11,,,,,,,,,,,,,,,,8,,50,72
2190,note_on,,1,0,16,,,,,,,,,,,,,,,,15,,50,72
2190,note_on,,1,0,9,,,,,,,,,,,,,,,,6,,65,72
2190,note_on,,1,0,8,,,,,,,,,,,,,,,,5,,74,72
2190,note_on,,1,0,12,,,,,,,,,,,,,,,,10,,77,72
2190,note_on,,1,0,15,,,,,,,,,,,,,,,,13,,50,72
2219,note_on,,29,0,8,,,,,,,,,,,,,,,,5,,74,0
2219,note_on,,29,0,5,,,,,,,,,,,,,,,,0,,74,0
2219,note_on,,29,0,7,,,,,,,,,,,,,,,,2,,50,0
2219,note_on,,29,0,16,,,,,,,,,,,,,,,,15,,50,0
2219,note_on,,29,0,12,,,,,,,,,,,,,,,,10,,77,0
2219,note_on,,29,0,15,,,,,,,,,,,,,,,,13,,50,0
2219,note_on,,29,0,11,,,,,,,,,,,,,,,,8,,50,0
2219,note_on,,29,0,9,,,,,,,,,,,,,,,,6,,65,0
2220,note_on,,1,0,8,,,,,,,,,,,,,,,,5,,75,72
2220,note_on,,1,0,7,,,,,,,,,,,,,,,,2,,48,72
2220,note_on,,1,0,11,,,,,,,,,,,,,,,,8,,48,72
2220,note_on,,1,0,12,,,,,,,,,,,,,,,,10,,75,72
2220,note_on,,1,0,5,,,,,,,,,,,,,,,,0,,75,72
2220,note_on,,1,0,16,,,,,,,,,,,,,,,,15,,48,72
2220,note_on,,1,0,15,,,,,,,,,,,,,,,,13,,48,72
2220,note_on,,1,0,9,,,,,,,,,,,,,,,,6,,63,72
2249,note_on,,29,0,9,,,,,,,,,,,,,,,,6,,63,0
2249,note_on,,29,0,15,,,,,,,,,,,,,,,,13,,48,0
2249,note_on,,29,0,7,,,,,,,,,,,,,,,,2,,48,0
2249,note_on,,29,0,5,,,,,,,,,,,,,,,,0,,75,0
2249,note_on,,89,0,10,,,,,,,,,,,,,,,,7,,60,0
2249,note_on,,29,0,16,,,,,,,,,,,,,,,,15,,48,0
2249,note_on,,89,0,13,,,,,,,,,,,,,,,,11,,72,0
2249,note_on,,89,0,6,,,,,,,,,,,,,,,,1,,72,0
2249,note_on,,29,0,8,,,,,,,,,,,,,,,,5,,75,0
2249,note_on,,89,0,14,,,,,,,,,,,,,,,,12,,67,0
2249,note_on,,29,0,11,,,,,,,,,,,,,,,,8,,48,0
2249,note_on,,29,0,12,,,,,,,,,,,,,,,,10,,75,0
2250,note_on,,1,0,15,,,,,,,,,,,,,,,,13,,50,72
2250,note_on,,1,0,11,,,,,,,,,,,,,,,,8,,50,72
2250,note_on,,1,0,8,,,,,,,,,,,,,,,,5,,74,72
2250,note_on,,1,0,13,,,,,,,,,,,,,,,,11,,72,72
2250,note_on,,1,0,14,,,,,,,,,,,,,,,,12,,67,72
2250,note_on,,1,0,5,,,,,,,,,,,,,,,,0,,74,72
2250,note_on,,1,0,7,,,,,,,,,,,,,,,,2,,50,72
2250,note_on,,1,0,6,,,,,,,,,,,,,,,,1,,72,72
2250,note_on,,1,0,12,,,,,,,,,,,,,,,,10,,77,72
2250,note_on,,1,0,16,,,,,,,,,,,,,,,,15,,50,72
2250,note_on,,1,0,9,,,,,,,,,,,,,,,,6,,65,72
2250,note_on,,1,0,10,,,,,,,,,,,,,,,,7,,60,72
2279,note_on,,0,0,16,,,,,,,,,,,,,,,,15,,60,0
2279,note_on,,0,0,16,,,,,,,,,,,,,,,,15,,50,0
2279,note_on,,29,0,8,,,,,,,,,,,,,,,,5,,74,0
2279,note_on,,0,0,16,,,,,,,,,,,,,,,,15,,67,0
2279,note_on,,29,0,13,,,,,,,,,,,,,,,,11,,72,0
2279,note_on,,29,0,16,,,,,,,,,,,,,,,,15,,55,0
2279,note_on,,29,0,14,,,,,,,,,,,,,,,,12,,67,0
2279,note_on,,29,0,9,,,,,,,,,,,,,,,,6,,65,0
2279,note_on,,29,0,5,,,,,,,,,,,,,,,,0,,74,0
2279,note_on,,29,0,12,,,,,,,,,,,,,,,,10,,77,0
2279,note_on,,29,0,6,,,,,,,,,,,,,,,,1,,72,0
2279,note_on,,29,0,15,,,,,,,,,,,,,,,,13,,50,0
2279,note_on,,29,0,10,,,,,,,,,,,,,,,,7,,60,0
2279,note_on,,29,0,7,,,,,,,,,,,,,,,,2,,50,0
2279,note_on,,29,0,11,,,,,,,,,,,,,,,,8,,50,0
2279,note_on,,0,0,16,,,,,,,,,,,,,,,,15,,63,0
2280,note_on,,1,0,6,,,,,,,,,,,,,,,,1,,72,72
2280,note_on,,1,0,15,,,,,,,,,,,,,,,,13,,51,72
2280,note_on,,1,0,8,,,,,,,,,,,,,,,,5,,72,72
2280,note_on,,1,0,9,,,,,,,,,,,,,,,,6,,67,72
2280,note_on,,1,0,11,,,,,,,,,,,,,,,,8,,51,72
2280,note_on,,1,0,5,,,,,,,,,,,,,,,,0,,72,72
2280,note_on,,1,0,12,,,,,,,,,,,,,,,,10,,79,72
2280,note_on,,1,0,16,,,,,,,,,,,,,,,,15,,51,72
2280,note_on,,0,0,16,,,,,,,,,,,,,,,,15,,55,72
2280,note_on,,0,0,16,,,,,,,,,,,,,,,,15,,72,72
2280,note_on,,0,0,16,,,,,,,,,,,,,,,,15,,67,72
2280,note_on,,1,0,14,,,,,,,,,,,,,,,,12,,67,72
2280,note_on,,1,0,13,,,,,,,,,,,,,,,,11,,72,72
2280,note_on,,0,0,16,,,,,,,,,,,,,,,,15,,60,72
2280,note_on,,1,0,10,,,,,,,,,,,,,,,,7,,60,72
2280,note_on,,1,0,7,,,,,,,,,,,,,,,,2,,51,72
2309,note_on,,29,0,9,,,,,,,,,,,,,,,,6,,67,0
2309,note_on,,29,0,15,,,,,,,,,,,,,,,,13,,51,0
2309,note_on,,29,0,16,,,,,,,,,,,,,,,,15,,51,0
2309,note_on,,29,0,12,,,,,,,,,,,,,,,,10,,79,0
2309,note_on,,29,0,5,,,,,,,,,,,,,,,,0,,72,0
2309,note_on,,29,0,11,,,,,,,,,,,,,,,,8,,51,0
2309,note_on,,29,0,8,,,,,,,,,,,,,,,,5,,72,0
2309,note_on,,29,0,6,,,,,,,,,,,,,,,,1,,72,0
2309,note_on,,29,0,7,,,,,,,,,,,,,,,,2,,51,0
2309,note_on,,29,0,13,,,,,,,,,,,,,,,,11,,72,0
2310,note_on,,1,0,12,,,,,,,,,,,,,,,,10,,69,72
2310,note_on,,1,0,5,,,,,,,,,,,,,,,,0,,74,72
2310,note_on,,1,0,9,,,,,,,,,,,,,,,,6,,69,72
2310,note_on,,1,0,8,,,,,,,,,,,,,,,,5,,74,72
2310,note_on,,1,0,16,,,,,,,,,,,,,,,,15,,53,72
2310,note_on,,1,0,13,,,,,,,,,,,,,,,,11,,74,72
2310,note_on,,1,0,6,,,,,,,,,,,,,,,,1,,74,72
2310,note_on,,1,0,11,,,,,,,,,,,,,,,,8,,53,72
2310,note_on,,1,0,7,,,,,,,,,,,,,,,,2,,53,72
2310,note_on,,1,0,15,,,,,,,,,,,,,,,,13,,53,72
2339,note_on,,29,0,5,,,,,,,,,,,,,,,,0,,74,0
2339,note_on,,59,0,10,,,,,,,,,,,,,,,,7,,60,0
2339,note_on,,29,0,16,,,,,,,,,,,,,,,,15,,53,0
2339,note_on,,29,0,15,,,,,,,,,,,,,,,,13,,53,0
2339,note_on,,29,0,9,,,,,,,,,,,,,,,,6,,69,0
2339,note_on,,59,0,14,,,,,,,,,,,,,,,,12,,67,0
2339,note_on,,29,0,11,,,,,,,,,,,,,,,,8,,53,0
2339,note_on,,29,0,8,,,,,,,,,,,,,,,,5,,74,0
2339,note_on,,29,0,12,,,,,,,,,,,,,,,,10,,69,0
2339,note_on,,29,0,7,,,,,,,,,,,,,,,,2,,53,0
2339,note_on,,29,0,13,,,,,,,,,,,,,,,,11,,74,0
2339,note_on,,29,0,6,,,,,,,,,,,,,,,,1,,74,0
2340,note_on,,1,0,14,,,,,,,,,,,,,,,,12,,67,72
2340,note_on,,1,0,12,,,,,,,,,,,,,,,,10,,67,72
2340,note_on,,1,0,9,,,,,,,,,,,,,,,,6,,67,72
2340,note_on,,1,0,15,,,,,,,,,,,,,,,,13,,51,72
2340,note_on,,1,0,10,,,,,,,,,,,,,,,,7,,60,72
2340,note_on,,1,0,7,,,,,,,,,,,,,,,,2,,51,72
2340,note_on,,1,0,11,,,,,,,,,,,,,,,,8,,51,72
2340,note_on,,1,0,8,,,,,,,,,,,,,,,,5,,72,72
2340,note_on,,1,0,6,,,,,,,,,,,,,,,,1,,72,72
2340,note_on,,1,0,13,,,,,,,,,,,,,,,,11,,72,72
2340,note_on,,1,0,5,,,,,,,,,,,,,,,,0,,72,72
2340,note_on,,1,0,16,,,,,,,,,,,,,,,,15,,51,72
2369,note_on,,29,0,5,,,,,,,,,,,,,,,,0,,72,0
2369,note_on,,29,0,16,,,,,,,,,,,,,,,,15,,51,0
2369,note_on,,29,0,8,,,,,,,,,,,,,,,,5,,72,0
2369,note_on,,29,0,6,,,,,,,,,,,,,,,,1,,72,0
2369,note_on,,29,0,12,,,,,,,,,,,,,,,,10,,67,0
2369,note_on,,29,0,11,,,,,,,,,,,,,,,,8,,51,0
2369,note_on,,29,0,7,,,,,,,,,,,,,,,,2,,51,0
2369,note_on,,29,0,13,,,,,,,,,,,,,,,,11,,72,0
2369,note_on,,29,0,9,,,,,,,,,,,,,,,,6,,67,0
2369,note_on,,29,0,15,,,,,,,,,,,,,,,,13,,51,0
2370,note_on,,1,0,8,,,,,,,,,,,,,,,,5,,75,72
2370,note_on,,1,0,9,,,,,,,,,,,,,,,,6,,69,72
2370,note_on,,1,0,6,,,,,,,,,,,,,,,,1,,75,72
2370,note_on,,1,0,7,,,,,,,,,,,,,,,,2,,53,72
2370,note_on,,1,0,13,,,,,,,,,,,,,,,,11,,75,72
2370,note_on,,1,0,16,,,,,,,,,,,,,,,,15,,53,72
2370,note_on,,1,0,12,,,,,,,,,,,,,,,,10,,69,72
2370,note_on,,1,0,5,,,,,,,,,,,,,,,,0,,75,72
2370,note_on,,1,0,15,,,,,,,,,,,,,,,,13,,53,72
2370,note_on,,1,0,11,,,,,,,,,,,,,,,,8,,53,72
2399,note_on,,29,0,8,,,,,,,,,,,,,,,,5,,75,0
2399,note_on,,29,0,16,,,,,,,,,,,,,,,,15,,55,0
2399,note_on,,0,0,16,,,,,,,,,,,,,,,,15,,72,0
2399,note_on,,29,0,9,,,,,,,,,,,,,,,,6,,69,0
2399,note_on,,0,0,16,,,,,,,,,,,,,,,,15,,67,0
2399,note_on,,0,0,16,,,,,,,,,,,,,,,,15,,53,0
2399,note_on,,29,0,6,,,,,,,,,,,,,,,,1,,75,0
2399,note_on,,0,0,16,,,,,,,,,,,,,,,,15,,60,0
2399,note_on,,59,0,10,,,,,,,,,,,,,,,,7,,60,0
2399,note_on,,29,0,7,,,,,,,,,,,,,,,,2,,53,0
2399,note_on,,29,0,11,,,,,,,,,,,,,,,,8,,53,0
2399,note_on,,29,0,15,,,,,,,,,,,,,,,,13,,53,0
2399,note_on,,29,0,13,,,,,,,,,,,,,,,,11,,75,0
2399,note_on,,59,0,14,,,,,,,,,,,,,,,,12,,67,0
2399,note_on,,29,0,12,,,,,,,,,,,,,,,,10,,69,0
2399,note_on,,29,0,5,,,,,,,,,,,,,,,,0,,75,0
2400,note_on,,1,0,8,,,,,,,,,,,,,,,,5,,74,72
2400,note_on,,1,0,15,,,,,,,,,,,,,,,,13,,55,72
2400,note_on,,1,0,10,,,,,,,,,,,,,,,,7,,58,72
2400,note_on,,1,0,16,,,,,,,,,,,,,,,,15,,55,72
2400,note_on,,1,0,12,,,,,,,,,,,,,,,,10,,70,72
2400,note_on,,1,0,5,,,,,,,,,,,,,,,,0,,74,72
2400,note_on,,0,0,16,,,,,,,,,,,,,,,,15,,67,72
2400,note_on,,1,0,7,,,,,,,,,,,,,,,,2,,55,72
2400,note_on,,1,0,14,,,,,,,,,,,,,,,,12,,67,72
2400,note_on,,1,0,9,,,,,,,,,,,,,,,,6,,70,72
2400,note_on,,1,0,13,,,,,,,,,,,,,,,,11,,74,72
2400,note_on,,0,0,16,,,,,,,,,,,,,,,,15,,58,72
2400,note_on,,1,0,11,,,,,,,,,,,,,,,,8,,55,72
2400,note_on,,0,0,16,,,,,,,,,,,,,,,,15,,62,72
2400,note_on,,1,0,6,,,,,,,,,,,,,,,,1,,74,72
2429,note_on,,29,0,16,,,,,,,,,,,,,,,,15,,55,0
2429,note_on,,29,0,6,,,,,,,,,,,,,,,,1,,74,0
2429,note_on,,29,0,13,,,,,,,,,,,,,,,,11,,74,0
2429,note_on,,29,0,7,,,,,,,,,,,,,,,,2,,55,0
2429,note_on,,29,0,15,,,,,,,,,,,,,,,,13,,55,0
2429,note_on,,29,0,11,,,,,,,,,,,,,,,,8,,55,0
2429,note_on,,29,0,12,,,,,,,,,,,,,,,,10,,70,0
2429,note_on,,29,0,10,,,,,,,,,,,,,,,,7,,58,0
2430,note_on,,1,0,12,,,,,,,,,,,,,,,,10,,72,72
2430,note_on,,1,0,7,,,,,,,,,,,,,,,,2,,57,72
2430,note_on,,1,0,6,,,,,,,,,,,,,,,,1,,72,72
2430,note_on,,1,0,13,,,,,,,,,,,,,,,,11,,72,72
2430,note_on,,1,0,16,,,,,,,,,,,,,,,,15,,57,72
2430,note_on,,1,0,15,,,,,,,,,,,,,,,,13,,57,72
2430,note_on,,1,0,10,,,,,,,,,,,,,,,,7,,60,72
2430,note_on,,1,0,11,,,,,,,,,,,,,,,,8,,57,72
2459,note_on,,29,0,13,,,,,,,,,,,,,,,,11,,72,0
2459,note_on,,29,0,6,,,,,,,,,,,,,,,,1,,72,0
2459,note_on,,29,0,12,,,,,,,,,,,,,,,,10,,72,0
2459,note_on,,29,0,16,,,,,,,,,,,,,,,,15,,57,0
2459,note_on,,29,0,7,,,,,,,,,,,,,,,,2,,57,0
2459,note_on,,29,0,10,,,,,,,,,,,,,,,,7,,60,0
2459,note_on,,59,0,14,,,,,,,,,,,,,,,,12,,67,0
2459,note_on,,29,0,11,,,,,,,,,,,,,,,,8,,57,0
2459,note_on,,29,0,15,,,,,,,,,,,,,,,,13,,57,0
2460,note_on,,1,0,16,,,,,,,,,,,,,,,,15,,55,72
2460,note_on,,1,0,7,,,,,,,,,,,,,,,,2,,55,72
2460,note_on,,1,0,15,,,,,,,,,,,,,,,,13,,55,72
2460,note_on,,1,0,12,,,,,,,,,,,,,,,,10,,70,72
2460,note_on,,1,0,11,,,,,,,,,,,,,,,,8,,55,72
2460,note_on,,1,0,14,,,,,,,,,,,,,,,,12,,67,72
2460,note_on,,1,0,13,,,,,,,,,,,,,,,,11,,74,72
2460,note_on,,1,0,6,,,,,,,,,,,,,,,,1,,74,72
2460,note_on,,1,0,10,,,,,,,,,,,,,,,,7,,58,72
2489,note_on,,89,0,9,,,,,,,,,,,,,,,,6,,70,0
2489,note_on,,29,0,16,,,,,,,,,,,,,,,,15,,55,0
2489,note_on,,29,0,13,,,,,,,,,,,,,,,,11,,74,0
2489,note_on,,29,0,11,,,,,,,,,,,,,,,,8,,55,0
2489,note_on,,89,0,8,,,,,,,,,,,,,,,,5,,74,0
2489,note_on,,29,0,6,,,,,,,,,,,,,,,,1,,74,0
2489,note_on,,29,0,12,,,,,,,,,,,,,,,,10,,70,0
2489,note_on,,29,0,7,,,,,,,,,,,,,,,,2,,55,0
2489,note_on,,89,0,5,,,,,,,,,,,,,,,,0,,74,0
2489,note_on,,29,0,15,,,,,,,,,,,,,,,,13,,55,0
2489,note_on,,29,0,10,,,,,,,,,,,,,,,,7,,58,0
2490,note_on,,1,0,5,,,,,,,,,,,,,,,,0,,75,72
2490,note_on,,1,0,11,,,,,,,,,,,,,,,,8,,57,72
2490,note_on,,1,0,16,,,,,,,,,,,,,,,,15,,57,72
2490,note_on,,1,0,15,,,,,,,,,,,,,,,,13,,57,72
2490,note_on,,1,0,6,,,,,,,,,,,,,,,,1,,72,72
2490,note_on,,1,0,10,,,,,,,,,,,,,,,,7,,60,72
2490,note_on,,1,0,9,,,,,,,,,,,,,,,,6,,70,72
2490,note_on,,1,0,13,,,,,,,,,,,,,,,,11,,72,72
2490,note_on,,1,0,7,,,,,,,,,,,,,,,,2,,57,72
2490,note_on,,1,0,8,,,,,,,,,,,,,,,,5,,75,72
2490,note_on,,1,0,12,,,,,,,,,,,,,,,,10,,72,72
2519,note_on,,29,0,6,,,,,,,,,,,,,,,,1,,72,0
2519,note_on,,29,0,15,,,,,,,,,,,,,,,,13,,57,0
2519,note_on,,29,0,13,,,,,,,,,,,,,,,,11,,72,0
2519,note_on,,59,0,14,,,,,,,,,,,,,,,,12,,67,0
2519,note_on,,29,0,7,,,,,,,,,,,,,,,,2,,57,0
2519,note_on,,29,0,11,,,,,,,,,,,,,,,,8,,57,0
2519,note_on,,29,0,5,,,,,,,,,,,,,,,,0,,75,0
2519,note_on,,29,0,8,,,,,,,,,,,,,,,,5,,75,0
2519,note_on,,0,0,16,,,,,,,,,,,,,,,,15,,57,0
2519,note_on,,0,0,16,,,,,,,,,,,,,,,,15,,58,0
2519,note_on,,0,0,16,,,,,,,,,,,,,,,,15,,62,0
2519,note_on,,29,0,16,,,,,,,,,,,,,,,,15,,67,0
2519,note_on,,29,0,9,,,,,,,,,,,,,,,,6,,70,0
2519,note_on,,29,0,10,,,,,,,,,,,,,,,,7,,60,0
2519,note_on,,29,0,12,,,,,,,,,,,,,,,,10,,72,0
2520,note_on,,1,0,13,,,,,,,,,,,,,,,,11,,70,72
2520,note_on,,1,0,15,,,,,,,,,,,,,,,,13,,58,72
2520,note_on,,0,0,16,,,,,,,,,,,,,,,,15,,67,72
2520,note_on,,0,0,16,,,,,,,,,,,,,,,,15,,74,72
2520,note_on,,1,0,16,,,,,,,,,,,,,,,,15,,58,72
2520,note_on,,1,0,7,,,,,,,,,,,,,,,,2,,58,72
2520,note_on,,1,0,6,,,,,,,,,,,,,,,,1,,70,72
2520,note_on,,1,0,8,,,,,,,,,,,,,,,,5,,74,72
2520,note_on,,1,0,11,,,,,,,,,,,,,,,,8,,58,72
2520,note_on,,0,0,16,,,,,,,,,,,,,,,,15,,62,72
2520,note_on,,1,0,5,,,,,,,,,,,,,,,,0,,74,72
2520,note_on,,1,0,10,,,,,,,,,,,,,,,,7,,62,72
2520,note_on,,1,0,12,,,,,,,,,,,,,,,,10,,74,72
2520,note_on,,1,0,14,,,,,,,,,,,,,,,,12,,67,72
2520,note_on,,1,0,9,,,,,,,,,,,,,,,,6,,70,72
2549,note_on,,29,0,15,,,,,,,,,,,,,,,,13,,58,0
2549,note_on,,29,0,10,,,,,,,,,,,,,,,,7,,62,0
2549,note_on,,29,0,16,,,,,,,,,,,,,,,,15,,58,0
2549,note_on,,29,0,13,,,,,,,,,,,,,,,,11,,70,0
2549,note_on,,29,0,11,,,,,,,,,,,,,,,,8,,58,0
2549,note_on,,29,0,8,,,,,,,,,,,,,,,,5,,74,0
2549,note_on,,29,0,12,,,,,,,,,,,,,,,,10,,74,0
2549,note_on,,29,0,7,,,,,,,,,,,,,,,,2,,58,0
2549,note_on,,29,0,6,,,,,,,,,,,,,,,,1,,70,0
2549,note_on,,29,0,5,,,,,,,,,,,,,,,,0,,74,0
2550,note_on,,1,0,8,,,,,,,,,,,,,,,,5,,72,72
2550,note_on,,1,0,10,,,,,,,,,,,,,,,,7,,63,72
2550,note_on,,1,0,7,,,,,,,,,,,,,,,,2,,60,72
2550,note_on,,1,0,15,,,,,,,,,,,,,,,,13,,60,72
2550,note_on,,1,0,12,,,,,,,,,,,,,,,,10,,75,72
2550,note_on,,1,0,16,,,,,,,,,,,,,,,,15,,60,72
2550,note_on,,1,0,11,,,,,,,,,,,,,,,,8,,60,72
2550,note_on,,1,0,6,,,,,,,,,,,,,,,,1,,69,72
2550,note_on,,1,0,13,,,,,,,,,,,,,,,,11,,69,72
2550,note_on,,1,0,5,,,,,,,,,,,,,,,,0,,72,72
2579,note_on,,29,0,7,,,,,,,,,,,,,,,,2,,60,0
2579,note_on,,29,0,8,,,,,,,,,,,,,,,,5,,72,0
2579,note_on,,29,0,13,,,,,,,,,,,,,,,,11,,69,0
2579,note_on,,29,0,11,,,,,,,,,,,,,,,,8,,60,0
2579,note_on,,29,0,15,,,,,,,,,,,,,,,,13,,60,0
2579,note_on,,29,0,10,,,,,,,,,,,,,,,,7,,63,0
2579,note_on,,59,0,14,,,,,,,,,,,,,,,,12,,67,0
2579,note_on,,29,0,5,,,,,,,,,,,,,,,,0,,72,0
2579,note_on,,29,0,16,,,,,,,,,,,,,,,,15,,60,0
2579,note_on,,29,0,6,,,,,,,,,,,,,,,,1,,69,0
2579,note_on,,59,0,9,,,,,,,,,,,,,,,,6,,70,0
2579,note_on,,29,0,12,,,,,,,,,,,,,,,,10,,75,0
2580,note_on,,1,0,13,,,,,,,,,,,,,,,,11,,70,72
2580,note_on,,1,0,14,,,,,,,,,,,,,,,,12,,67,72
2580,note_on,,1,0,8,,,,,,,,,,,,,,,,5,,74,72
2580,note_on,,1,0,12,,,,,,,,,,,,,,,,10,,74,72
2580,note_on,,1,0,6,,,,,,,,,,,,,,,,1,,70,72
2580,note_on,,1,0,11,,,,,,,,,,,,,,,,8,,58,72
2580,note_on,,1,0,10,,,,,,,,,,,,,,,,7,,62,72
2580,note_on,,1,0,9,,,,,,,,,,,,,,,,6,,70,72
2580,note_on,,1,0,5,,,,,,,,,,,,,,,,0,,74,72
2580,note_on,,1,0,16,,,,,,,,,,,,,,,,15,,58,72
2580,note_on,,1,0,15,,,,,,,,,,,,,,,,13,,58,72
2580,note_on,,1,0,7,,,,,,,,,,,,,,,,2,,58,72
2609,note_on,,29,0,10,,,,,,,,,,,,,,,,7,,62,0
2609,note_on,,29,0,7,,,,,,,,,,,,,,,,2,,58,0
2609,note_on,,29,0,15,,,,,,,,,,,,,,,,13,,58,0
2609,note_on,,29,0,11,,,,,,,,,,,,,,,,8,,58,0
2609,note_on,,29,0,6,,,,,,,,,,,,,,,,1,,70,0
2609,note_on,,29,0,13,,,,,,,,,,,,,,,,11,,70,0
2609,note_on,,29,0,8,,,,,,,,,,,,,,,,5,,74,0
2609,note_on,,29,0,16,,,,,,,,,,,,,,,,15,,58,0
2609,note_on,,29,0,12,,,,,,,,,,,,,,,,10,,74,0
2609,note_on,,29,0,5,,,,,,,,,,,,,,,,0,,74,0
2610,note_on,,1,0,7,,,,,,,,,,,,,,,,2,,60,72
2610,note_on,,1,0,12,,,,,,,,,,,,,,,,10,,75,72
2610,note_on,,1,0,10,,,,,,,,,,,,,,,,7,,63,72
2610,note_on,,1,0,15,,,,,,,,,,,,,,,,13,,60,72
2610,note_on,,1,0,8,,,,,,,,,,,,,,,,5,,72,72
2610,note_on,,1,0,5,,,,,,,,,,,,,,,,0,,72,72
2610,note_on,,1,0,11,,,,,,,,,,,,,,,,8,,60,72
2610,note_on,,1,0,16,,,,,,,,,,,,,,,,15,,60,72
2610,note_on,,1,0,6,,,,,,,,,,,,,,,,1,,69,72
2610,note_on,,1,0,13,,,,,,,,,,,,,,,,11,,69,72
2639,note_on,,29,0,6,,,,,,,,,,,,,,,,1,,69,0
2639,note_on,,0,0,16,,,,,,,,,,,,,,,,15,,60,0
2639,note_on,,29,0,12,,,,,,,,,,,,,,,,10,,75,0
2639,note_on,,29,0,13,,,,,,,,,,,,,,,,11,,69,0
2639,note_on,,29,0,10,,,,,,,,,,,,,,,,7,,63,0
2639,note_on,,29,0,16,,,,,,,,,,,,,,,,15,,74,0
2639,note_on,,29,0,8,,,,,,,,,,,,,,,,5,,72,0
2639,note_on,,0,0,16,,,,,,,,,,,,,,,,15,,62,0
2639,note_on,,29,0,7,,,,,,,,,,,,,,,,2,,60,0
2639,note_on,,29,0,5,,,,,,,,,,,,,,,,0,,72,0
2639,note_on,,0,0,16,,,,,,,,,,,,,,,,15,,67,0
2639,note_on,,59,0,9,,,,,,,,,,,,,,,,6,,70,0
2639,note_on,,29,0,15,,,,,,,,,,,,,,,,13,,60,0
2639,note_on,,59,0,14,,,,,,,,,,,,,,,,12,,67,0
2639,note_on,,29,0,11,,,,,,,,,,,,,,,,8,,60,0
2640,note_on,,1,0,6,,,,,,,,,,,,,,,,1,,70,72
2640,note_on,,1,0,16,,,,,,,,,,,,,,,,15,,62,72
2640,note_on,,0,0,16,,,,,,,,,,,,,,,,15,,74,72
2640,note_on,,0,0,16,,,,,,,,,,,,,,,,15,,70,72
2640,note_on,,0,0,16,,,,,,,,,,,,,,,,15,,65,72
2640,note_on,,1,0,12,,,,,,,,,,,,,,,,10,,77,72
2640,note_on,,1,0,14,,,,,,,,,,,,,,,,12,,65,72
2640,note_on,,1,0,9,,,,,,,,,,,,,,,,6,,70,72
2640,note_on,,1,0,10,,,,,,,,,,,,,,,,7,,65,72
2640,note_on,,1,0,8,,,,,,,,,,,,,,,,5,,70,72
2640,note_on,,1,0,15,,,,,,,,,,,,,,,,13,,62,72
2640,note_on,,1,0,7,,,,,,,,,,,,,,,,2,,62,72
2640,note_on,,1,0,13,,,,,,,,,,,,,,,,11,,70,72
2640,note_on,,1,0,5,,,,,,,,,,,,,,,,0,,70,72
2640,note_on,,1,0,11,,,,,,,,,,,,,,,,8,,62,72
2699,note_on,,59,0,15,,,,,,,,,,,,,,,,13,,62,0
2699,note_on,,59,0,11,,,,,,,,,,,,,,,,8,,62,0
2699,note_on,,59,0,8,,,,,,,,,,,,,,,,5,,70,0
2699,note_on,,0,0,16,,,,,,,,,,,,,,,,15,,65,0
2699,note_on,,59,0,16,,,,,,,,,,,,,,,,15,,62,0
2699,note_on,,59,0,13,,,,,,,,,,,,,,,,11,,70,0
2699,note_on,,59,0,7,,,,,,,,,,,,,,,,2,,62,0
2699,note_on,,59,0,12,,,,,,,,,,,,,,,,10,,77,0
2699,note_on,,59,0,10,,,,,,,,,,,,,,,,7,,65,0
2699,note_on,,59,0,5,,,,,,,,,,,,,,,,0,,70,0
2699,note_on,,59,0,6,,,,,,,,,,,,,,,,1,,70,0
2699,note_on,,59,0,9,,,,,,,,,,,,,,,,6,,70,0
2700,note_on,,1,0,6,,,,,,,,,,,,,,,,1,,70,72
2700,note_on,,1,0,11,,,,,,,,,,,,,,,,8,,63,72
2700,note_on,,1,0,15,,,,,,,,,,,,,,,,13,,63,72
2700,note_on,,1,0,13,,,,,,,,,,,,,,,,11,,70,72
2700,note_on,,1,0,7,,,,,,,,,,,,,,,,2,,63,72
2700,note_on,,0,0,16,,,,,,,,,,,,,,,,15,,67,72
2700,note_on,,1,0,12,,,,,,,,,,,,,,,,10,,79,72
2700,note_on,,1,0,9,,,,,,,,,,,,,,,,6,,70,72
2700,note_on,,1,0,8,,,,,,,,,,,,,,,,5,,70,72
2700,note_on,,1,0,5,,,,,,,,,,,,,,,,0,,70,72
2700,note_on,,1,0,10,,,,,,,,,,,,,,,,7,,67,72
2700,note_on,,1,0,16,,,,,,,,,,,,,,,,15,,63,72
2729,note_on,,29,0,7,,,,,,,,,,,,,,,,2,,63,0
2729,note_on,,29,0,5,,,,,,,,,,,,,,,,0,,70,0
2729,note_on,,29,0,10,,,,,,,,,,,,,,,,7,,67,0
2729,note_on,,29,0,12,,,,,,,,,,,,,,,,10,,79,0
2729,note_on,,29,0,6,,,,,,,,,,,,,,,,1,,70,0
2729,note_on,,29,0,13,,,,,,,,,,,,,,,,11,,70,0
2729,note_on,,89,0,14,,,,,,,,,,,,,,,,12,,65,0
2729,note_on,,29,0,11,,,,,,,,,,,,,,,,8,,63,0
2729,note_on,,0,0,16,,,,,,,,,,,,,,,,15,,67,0
2729,note_on,,29,0,16,,,,,,,,,,,,,,,,15,,63,0
2729,note_on,,29,0,9,,,,,,,,,,,,,,,,6,,70,0
2729,note_on,,29,0,8,,,,,,,,,,,,,,,,5,,70,0
2729,note_on,,29,0,15,,,,,,,,,,,,,,,,13,,63,0
2730,note_on,,1,0,8,,,,,,,,,,,,,,,,5,,70,72
2730,note_on,,1,0,7,,,,,,,,,,,,,,,,2,,60,72
2730,note_on,,1,0,13,,,,,,,,,,,,,,,,11,,70,72
2730,note_on,,1,0,5,,,,,,,,,,,,,,,,0,,70,72
2730,note_on,,1,0,16,,,,,,,,,,,,,,,,15,,60,72
2730,note_on,,1,0,6,,,,,,,,,,,,,,,,1,,70,72
2730,note_on,,1,0,10,,,,,,,,,,,,,,,,7,,65,72
2730,note_on,,1,0,12,,,,,,,,,,,,,,,,10,,77,72
2730,note_on,,1,0,14,,,,,,,,,,,,,,,,12,,65,72
2730,note_on,,0,0,16,,,,,,,,,,,,,,,,15,,65,72
2730,note_on,,1,0,15,,,,,,,,,,,,,,,,13,,60,72
2730,note_on,,1,0,9,,,,,,,,,,,,,,,,6,,70,72
2730,note_on,,1,0,11,,,,,,,,,,,,,,,,8,,62,72
2759,note_on,,0,0,16,,,,,,,,,,,,,,,,15,,60,0
2759,note_on,,29,0,16,,,,,,,,,,,,,,,,15,,74,0
2759,note_on,,0,0,16,,,,,,,,,,,,,,,,15,,70,0
2759,note_on,,29,0,14,,,,,,,,,,,,,,,,12,,65,0
2759,note_on,,29,0,13,,,,,,,,,,,,,,,,11,,70,0
2759,note_on,,29,0,15,,,,,,,,,,,,,,,,13,,60,0
2759,note_on,,29,0,11,,,,,,,,,,,,,,,,8,,62,0
2759,note_on,,29,0,8,,,,,,,,,,,,,,,,5,,70,0
2759,note_on,,0,0,16,,,,,,,,,,,,,,,,15,,65,0
2759,note_on,,29,0,9,,,,,,,,,,,,,,,,6,,70,0
2759,note_on,,29,0,10,,,,,,,,,,,,,,,,7,,65,0
2759,note_on,,29,0,5,,,,,,,,,,,,,,,,0,,70,0
2759,note_on,,29,0,12,,,,,,,,,,,,,,,,10,,77,0
2759,note_on,,29,0,7,,,,,,,,,,,,,,,,2,,60,0
2759,note_on,,29,0,6,,,,,,,,,,,,,,,,1,,70,0
2760,note_on,,1,0,16,,,,,,,,,,,,,,,,15,,60,72
2760,note_on,,1,0,7,,,,,,,,,,,,,,,,2,,60,72
2760,note_on,,1,0,12,,,,,,,,,,,,,,,,10,,75,72
2760,note_on,,1,0,13,,,,,,,,,,,,,,,,11,,69,72
2760,note_on,,1,0,15,,,,,,,,,,,,,,,,13,,60,72
2760,note_on,,1,0,9,,,,,,,,,,,,,,,,6,,69,72
2760,note_on,,1,0,11,,,,,,,,,,,,,,,,8,,60,72
2760,note_on,,1,0,14,,,,,,,,,,,,,,,,12,,60,72
2760,note_on,,0,0,16,,,,,,,,,,,,,,,,15,,69,72
2760,note_on,,0,0,16,,,,,,,,,,,,,,,,15,,75,72
2760,note_on,,0,0,16,,,,,,,,,,,,,,,,15,,63,72
2760,note_on,,1,0,5,,,,,,,,,,,,,,,,0,,75,72
2760,note_on,,1,0,8,,,,,,,,,,,,,,,,5,,75,72
2760,note_on,,1,0,10,,,,,,,,,,,,,,,,7,,63,72
2760,note_on,,1,0,6,,,,,,,,,,,,,,,,1,,69,72
2819,note_on,,59,0,16,,,,,,,,,,,,,,,,15,,60,0
2819,note_on,,0,0,16,,,,,,,,,,,,,,,,15,,63,0
2819,note_on,,0,0,16,,,,,,,,,,,,,,,,15,,75,0
2819,note_on,,0,0,16,,,,,,,,,,,,,,,,15,,69,0
2819,note_on,,59,0,9,,,,,,,,,,,,,,,,6,,69,0
2819,note_on,,59,0,8,,,,,,,,,,,,,,,,5,,75,0
2819,note_on,,59,0,12,,,,,,,,,,,,,,,,10,,75,0
2819,note_on,,59,0,7,,,,,,,,,,,,,,,,2,,60,0
2819,note_on,,59,0,13,,,,,,,,,,,,,,,,11,,69,0
2819,note_on,,59,0,15,,,,,,,,,,,,,,,,13,,60,0
2819,note_on,,59,0,6,,,,,,,,,,,,,,,,1,,69,0
2819,note_on,,59,0,14,,,,,,,,,,,,,,,,12,,60,0
2819,note_on,,59,0,5,,,,,,,,,,,,,,,,0,,75,0
2819,note_on,,59,0,10,,,,,,,,,,,,,,,,7,,63,0
2819,note_on,,59,0,11,,,,,,,,,,,,,,,,8,,60,0
2820,note_on,,1,0,7,,,,,,,,,,,,,,,,2,,58,72
2820,note_on,,1,0,11,,,,,,,,,,,,,,,,8,,58,72
2820,note_on,,1,0,5,,,,,,,,,,,,,,,,0,,74,72
2820,note_on,,1,0,13,,,,,,,,,,,,,,,,11,,70,72
2820,note_on,,1,0,10,,,,,,,,,,,,,,,,7,,65,72
2820,note_on,,0,0,16,,,,,,,,,,,,,,,,15,,62,72
2820,note_on,,0,0,16,,,,,,,,,,,,,,,,15,,65,72
2820,note_on,,1,0,15,,,,,,,,,,,,,,,,13,,58,72
2820,note_on,,1,0,8,,,,,,,,,,,,,,,,5,,74,72
2820,note_on,,1,0,6,,,,,,,,,,,,,,,,1,,70,72
2820,note_on,,1,0,12,,,,,,,,,,,,,,,,10,,74,72
2820,note_on,,0,0,16,,,,,,,,,,,,,,,,15,,70,72
2820,note_on,,1,0,9,,,,,,,,,,,,,,,,6,,70,72
2820,note_on,,1,0,16,,,,,,,,,,,,,,,,15,,58,72
2820,note_on,,1,0,14,,,,,,,,,,,,,,,,12,,65,72
2820,note_on,,0,0,16,,,,,,,,,,,,,,,,15,,77,72
2879,note_on,,59,0,10,,,,,,,,,,,,,,,,7,,65,0
2879,note_on,,59,0,9,,,,,,,,,,,,,,,,6,,70,0
2879,note_on,,59,0,7,,,,,,,,,,,,,,,,2,,58,0
2879,note_on,,59,0,12,,,,,,,,,,,,,,,,10,,74,0
2879,note_on,,0,0,16,,,,,,,,,,,,,,,,15,,65,0
2879,note_on,,0,0,16,,,,,,,,,,,,,,,,15,,70,0
2879,note_on,,59,0,6,,,,,,,,,,,,,,,,1,,70,0
2879,note_on,,59,0,16,,,,,,,,,,,,,,,,15,,58,0
2879,note_on,,0,0,16,,,,,,,,,,,,,,,,15,,62,0
2879,note_on,,59,0,13,,,,,,,,,,,,,,,,11,,70,0
2879,note_on,,59,0,8,,,,,,,,,,,,,,,,5,,74,0
2879,note_on,,0,0,16,,,,,,,,,,,,,,,,15,,77,0
2879,note_on,,59,0,14,,,,,,,,,,,,,,,,12,,65,0
2879,note_on,,59,0,11,,,,,,,,,,,,,,,,8,,58,0
2879,note_on,,59,0,15,,,,,,,,,,,,,,,,13,,58,0
2879,note_on,,59,0,5,,,,,,,,,,,,,,,,0,,74,0
2880,note_on,,1,0,11,,,,,,,,,,,,,,,,8,,53,72
2880,note_on,,1,0,16,,,,,,,,,,,,,,,,15,,53,72
2880,note_on,,0,0,16,,,,,,,,,,,,,,,,15,,77,72
2880,note_on,,0,0,16,,,,,,,,,,,,,,,,15,,72,72
2880,note_on,,1,0,10,,,,,,,,,,,,,,,,7,,65,72
2880,note_on,,1,0,14,,,,,,,,,,,,,,,,12,,65,72
2880,note_on,,0,0,16,,,,,,,,,,,,,,,,15,,69,72
2880,note_on,,1,0,9,,,,,,,,,,,,,,,,6,,69,72
2880,note_on,,0,0,16,,,,,,,,,,,,,,,,15,,60,72
2880,note_on,,1,0,7,,,,,,,,,,,,,,,,2,,53,72
2880,note_on,,1,0,13,,,,,,,,,,,,,,,,11,,69,72
2880,note_on,,1,0,5,,,,,,,,,,,,,,,,0,,72,72
2880,note_on,,1,0,8,,,,,,,,,,,,,,,,5,,72,72
2880,note_on,,1,0,15,,,,,,,,,,,,,,,,13,,53,72
2880,note_on,,1,0,12,,,,,,,,,,,,,,,,10,,72,72
2880,note_on,,1,0,6,,,,,,,,,,,,,,,,1,,69,72
2939,note_on,,59,0,15,,,,,,,,,,,,,,,,13,,53,0
2939,note_on,,59,0,16,,,,,,,,,,,,,,,,15,,53,0
2939,note_on,,59,0,7,,,,,,,,,,,,,,,,2,,53,0
2940,note_on,,1,0,7,,,,,,,,,,,,,,,,2,,53,72
2940,note_on,,1,0,16,,,,,,,,,,,,,,,,15,,53,72
2940,note_on,,1,0,15,,,,,,,,,,,,,,,,13,,53,72
2999,note_on,,119,0,14,,,,,,,,,,,,,,,,12,,65,0
2999,note_on,,0,0,16,,,,,,,,,,,,,,,,15,,53,0
2999,note_on,,119,0,5,,,,,,,,,,,,,,,,0,,72,0
2999,note_on,,119,0,10,,,,,,,,,,,,,,,,7,,65,0
2999,note_on,,0,0,16,,,,,,,,,,,,,,,,15,,60,0
2999,note_on,,59,0,16,,,,,,,,,,,,,,,,15,,77,0
2999,note_on,,0,0,16,,,,,,,,,,,,,,,,15,,72,0
2999,note_on,,0,0,16,,,,,,,,,,,,,,,,15,,69,0
2999,note_on,,119,0,9,,,,,,,,,,,,,,,,6,,69,0
2999,note_on,,119,0,8,,,,,,,,,,,,,,,,5,,72,0
2999,note_on,,119,0,11,,,,,,,,,,,,,,,,8,,53,0
2999,note_on,,119,0,12,,,,,,,,,,,,,,,,10,,72,0
2999,note_on,,59,0,15,,,,,,,,,,,,,,,,13,,53,0
2999,note_on,,59,0,7,,,,,,,,,,,,,,,,2,,53,0
2999,note_on,,119,0,6,,,,,,,,,,,,,,,,1,,69,0
2999,note_on,,119,0,13,,,,,,,,,,,,,,,,11,,69,0
3000,note_on,,1,0,11,,,,,,,,,,,,,,,,8,,53,72
3000,note_on,,1,0,14,,,,,,,,,,,,,,,,12,,65,72
3000,note_on,,0,0,16,,,,,,,,,,,,,,,,15,,53,72
3000,note_on,,1,0,16,,,,,,,,,,,,,,,,15,,60,72
3000,note_on,,1,0,15,,,,,,,,,,,,,,,,13,,53,72
3000,note_on,,1,0,9,,,,,,,,,,,,,,,,6,,69,72
3000,note_on,,1,0,8,,,,,,,,,,,,,,,,5,,72,72
3000,note_on,,0,0,16,,,,,,,,,,,,,,,,15,,72,72
3000,note_on,,0,0,16,,,,,,,,,,,,,,,,15,,69,72
3000,note_on,,1,0,5,,,,,,,,,,,,,,,,0,,72,72
3000,note_on,,1,0,13,,,,,,,,,,,,,,,,11,,81,72
3000,note_on,,1,0,10,,,,,,,,,,,,,,,,7,,65,72
3000,note_on,,1,0,12,,,,,,,,,,,,,,,,10,,84,72
3000,note_on,,1,0,7,,,,,,,,,,,,,,,,2,,53,72
3059,note_on,,59,0,13,,,,,,,,,,,,,,,,11,,81,0
3059,note_on,,59,0,15,,,,,,,,,,,,,,,,13,,53,0
3059,note_on,,59,0,14,,,,,,,,,,,,,,,,12,,65,0
3059,note_on,,59,0,12,,,,,,,,,,,,,,,,10,,84,0
3059,note_on,,59,0,7,,,,,,,,,,,,,,,,2,,53,0
3059,note_on,,59,0,16,,,,,,,,,,,,,,,,15,,53,0
3060,note_on,,1,0,15,,,,,,,,,,,,,,,,13,,53,72
3060,note_on,,1,0,13,,,,,,,,,,,,,,,,11,,81,72
3060,note_on,,1,0,12,,,,,,,,,,,,,,,,10,,84,72
3060,note_on,,1,0,14,,,,,,,,,,,,,,,,12,,65,72
3060,note_on,,1,0,7,,,,,,,,,,,,,,,,2,,53,72
3060,note_on,,1,0,16,,,,,,,,,,,,,,,,15,,53,72
3089,note_on,,29,0,16,,,,,,,,,,,,,,,,15,,53,0
3089,note_on,,29,0,15,,,,,,,,,,,,,,,,13,,53,0
3089,note_on,,29,0,12,,,,,,,,,,,,,,,,10,,84,0
3089,note_on,,29,0,14,,,,,,,,,,,,,,,,12,,65,0
3089,note_on,,29,0,7,,,,,,,,,,,,,,,,2,,53,0
3089,note_on,,29,0,13,,,,,,,,,,,,,,,,11,,81,0
3090,note_on,,1,0,15,,,,,,,,,,,,,,,,13,,53,72
3090,note_on,,1,0,7,,,,,,,,,,,,,,,,2,,53,72
3090,note_on,,1,0,16,,,,,,,,,,,,,,,,15,,53,72
3090,note_on,,1,0,13,,,,,,,,,,,,,,,,11,,81,72
3090,note_on,,1,0,14,,,,,,,,,,,,,,,,12,,65,72
3090,note_on,,1,0,12,,,,,,,,,,,,,,,,10,,84,72
3119,note_on,,29,0,16,,,,,,,,,,,,,,,,15,,60,0
3119,note_on,,0,0,16,,,,,,,,,,,,,,,,15,,69,0
3119,note_on,,0,0,16,,,,,,,,,,,,,,,,15,,72,0
3119,note_on,,0,0,16,,,,,,,,,,,,,,,,15,,53,0
3119,note_on,,119,0,11,,,,,,,,,,,,,,,,8,,53,0
3119,note_on,,119,0,10,,,,,,,,,,,,,,,,7,,65,0
3119,note_on,,29,0,13,,,,,,,,,,,,,,,,11,,81,0
3119,note_on,,29,0,14,,,,,,,,,,,,,,,,12,,65,0
3119,note_on,,119,0,5,,,,,,,,,,,,,,,,0,,72,0
3119,note_on,,119,0,8,,,,,,,,,,,,,,,,5,,72,0
3119,note_on,,29,0,15,,,,,,,,,,,,,,,,13,,53,0
3119,note_on,,119,0,9,,,,,,,,,,,,,,,,6,,69,0
3119,note_on,,29,0,7,,,,,,,,,,,,,,,,2,,53,0
3119,note_on,,29,0,12,,,,,,,,,,,,,,,,10,,84,0
3120,note_on,,0,0,16,,,,,,,,,,,,,,,,15,,70,72
3120,note_on,,1,0,12,,,,,,,,,,,,,,,,10,,86,72
3120,note_on,,1,0,7,,,,,,,,,,,,,,,,2,,50,72
3120,note_on,,1,0,16,,,,,,,,,,,,,,,,15,,50,72
3120,note_on,,0,0,16,,,,,,,,,,,,,,,,15,,65,72
3120,note_on,,0,0,16,,,,,,,,,,,,,,,,15,,62,72
3120,note_on,,0,0,16,,,,,,,,,,,,,,,,15,,53,72
3120,note_on,,1,0,15,,,,,,,,,,,,,,,,13,,50,72
3120,note_on,,1,0,14,,,,,,,,,,,,,,,,12,,65,72
3120,note_on,,1,0,13,,,,,,,,,,,,,,,,11,,82,72
3179,note_on,,59,0,16,,,,,,,,,,,,,,,,15,,50,0
3179,note_on,,59,0,12,,,,,,,,,,,,,,,,10,,86,0
3179,note_on,,59,0,15,,,,,,,,,,,,,,,,13,,50,0
3179,note_on,,59,0,14,,,,,,,,,,,,,,,,12,,65,0
3179,note_on,,59,0,7,,,,,,,,,,,,,,,,2,,50,0
3179,note_on,,59,0,13,,,,,,,,,,,,,,,,11,,82,0
3180,note_on,,1,0,16,,,,,,,,,,,,,,,,15,,50,72
3180,note_on,,1,0,14,,,,,,,,,,,,,,,,12,,65,72
3180,note_on,,1,0,15,,,,,,,,,,,,,,,,13,,50,72
3180,note_on,,1,0,13,,,,,,,,,,,,,,,,11,,82,72
3180,note_on,,1,0,7,,,,,,,,,,,,,,,,2,,50,72
3180,note_on,,1,0,12,,,,,,,,,,,,,,,,10,,86,72
3209,note_on,,29,0,15,,,,,,,,,,,,,,,,13,,50,0
3209,note_on,,29,0,13,,,,,,,,,,,,,,,,11,,82,0
3209,note_on,,29,0,14,,,,,,,,,,,,,,,,12,,65,0
3209,note_on,,29,0,12,,,,,,,,,,,,,,,,10,,86,0
3209,note_on,,29,0,7,,,,,,,,,,,,,,,,2,,50,0
3209,note_on,,29,0,16,,,,,,,,,,,,,,,,15,,50,0
3210,note_on,,1,0,14,,,,,,,,,,,,,,,,12,,65,72
3210,note_on,,1,0,13,,,,,,,,,,,,,,,,11,,82,72
3210,note_on,,1,0,7,,,,,,,,,,,,,,,,2,,50,72
3210,note_on,,1,0,12,,,,,,,,,,,,,,,,10,,86,72
3210,note_on,,1,0,15,,,,,,,,,,,,,,,,13,,50,72
3210,note_on,,1,0,16,,,,,,,,,,,,,,,,15,,50,72
3239,note_on,,29,0,12,,,,,,,,,,,,,,,,10,,86,0
3239,note_on,,29,0,7,,,,,,,,,,,,,,,,2,,50,0
3239,note_on,,29,0,14,,,,,,,,,,,,,,,,12,,65,0
3239,note_on,,0,0,16,,,,,,,,,,,,,,,,15,,62,0
3239,note_on,,29,0,15,,,,,,,,,,,,,,,,13,,50,0
3239,note_on,,29,0,13,,,,,,,,,,,,,,,,11,,82,0
3239,note_on,,0,0,16,,,,,,,,,,,,,,,,15,,65,0
3239,note_on,,29,0,16,,,,,,,,,,,,,,,,15,,53,0
3239,note_on,,0,0,16,,,,,,,,,,,,,,,,15,,50,0
3239,note_on,,0,0,16,,,,,,,,,,,,,,,,15,,70,0
3240,note_on,,1,0,7,,,,,,,,,,,,,,,,2,,46,72
3240,note_on,,0,0,16,,,,,,,,,,,,,,,,15,,65,72
3240,note_on,,1,0,13,,,,,,,,,,,,,,,,11,,82,72
3240,note_on,,0,0,16,,,,,,,,,,,,,,,,15,,77,72
3240,note_on,,0,0,16,,,,,,,,,,,,,,,,15,,74,72
3240,note_on,,1,0,15,,,,,,,,,,,,,,,,13,,46,72
3240,note_on,,1,0,16,,,,,,,,,,,,,,,,15,,46,72
3240,note_on,,0,0,16,,,,,,,,,,,,,,,,15,,53,72
3240,note_on,,1,0,14,,,,,,,,,,,,,,,,12,,65,72
3240,note_on,,1,0,12,,,,,,,,,,,,,,,,10,,86,72
3240,note_on,,0,0,16,,,,,,,,,,,,,,,,15,,70,72
3299,note_on,,59,0,16,,,,,,,,,,,,,,,,15,,46,0
3299,note_on,,59,0,13,,,,,,,,,,,,,,,,11,,82,0
3299,note_on,,59,0,14,,,,,,,,,,,,,,,,12,,65,0
3299,note_on,,59,0,12,,,,,,,,,,,,,,,,10,,86,0
3299,note_on,,59,0,15,,,,,,,,,,,,,,,,13,,46,0
3299,note_on,,59,0,7,,,,,,,,,,,,,,,,2,,46,0
3300,note_on,,1,0,16,,,,,,,,,,,,,,,,15,,46,72
3300,note_on,,1,0,7,,,,,,,,,,,,,,,,2,,46,72
3300,note_on,,1,0,13,,,,,,,,,,,,,,,,11,,82,72
3300,note_on,,1,0,12,,,,,,,,,,,,,,,,10,,86,72
3300,note_on,,1,0,15,,,,,,,,,,,,,,,,13,,46,72
3300,note_on,,1,0,14,,,,,,,,,,,,,,,,12,,65,72
3359,note_on,,0,0,16,,,,,,,,,,,,,,,,15,,46,0
3359,note_on,,0,0,16,,,,,,,,,,,,,,,,15,,74,0
3359,note_on,,0,0,16,,,,,,,,,,,,,,,,15,,77,0
3359,note_on,,59,0,16,,,,,,,,,,,,,,,,15,,53,0
3359,note_on,,0,0,16,,,,,,,,,,,,,,,,15,,65,0
3359,note_on,,0,0,16,,,,,,,,,,,,,,,,15,,70,0
3359,note_on,,59,0,13,,,,,,,,,,,,,,,,11,,82,0
3359,note_on,,59,0,15,,,,,,,,,,,,,,,,13,,46,0
3359,note_on,,59,0,7,,,,,,,,,,,,,,,,2,,46,0
3359,note_on,,59,0,14,,,,,,,,,,,,,,,,12,,65,0
3359,note_on,,59,0,12,,,,,,,,,,,,,,,,10,,86,0
3360,note_on,,0,0,16,,,,,,,,,,,,,,,,15,,69,72
3360,note_on,,1,0,15,,,,,,,,,,,,,,,,13,,53,72
3360,note_on,,1,0,14,,,,,,,,,,,,,,,,12,,65,72
3360,note_on,,0,0,16,,,,,,,,,,,,,,,,15,,57,72
3360,note_on,,0,0,16,,,,,,,,,,,,,,,,15,,65,72
3360,note_on,,1,0,12,,,,,,,,,,,,,,,,10,,84,72
3360,note_on,,1,0,16,,,,,,,,,,,,,,,,15,,53,72
3360,note_on,,1,0,13,,,,,,,,,,,,,,,,11,,81,72
3360,note_on,,1,0,7,,,,,,,,,,,,,,,,2,,53,72
3360,note_on,,0,0,16,,,,,,,,,,,,,,,,15,,72,72
3419,note_on,,59,0,14,,,,,,,,,,,,,,,,12,,65,0
3419,note_on,,59,0,13,,,,,,,,,,,,,,,,11,,81,0
3419,note_on,,59,0,7,,,,,,,,,,,,,,,,2,,53,0
3419,note_on,,59,0,12,,,,,,,,,,,,,,,,10,,84,0
3419,note_on,,59,0,15,,,,,,,,,,,,,,,,13,,53,0
3419,note_on,,59,0,16,,,,,,,,,,,,,,,,15,,53,0
3420,note_on,,1,0,12,,,,,,,,,,,,,,,,10,,84,72
3420,note_on,,1,0,14,,,,,,,,,,,,,,,,12,,65,72
3420,note_on,,1,0,15,,,,,,,,,,,,,,,,13,,53,72
3420,note_on,,1,0,7,,,,,,,,,,,,,,,,2,,53,72
3420,note_on,,1,0,13,,,,,,,,,,,,,,,,11,,81,72
3420,note_on,,1,0,16,,,,,,,,,,,,,,,,15,,53,72
3479,note_on,,0,0,16,,,,,,,,,,,,,,,,15,,65,0
3479,note_on,,0,0,16,,,,,,,,,,,,,,,,15,,69,0
3479,note_on,,59,0,16,,,,,,,,,,,,,,,,15,,72,0
3479,note_on,,0,0,16,,,,,,,,,,,,,,,,15,,57,0
3479,note_on,,59,0,15,,,,,,,,,,,,,,,,13,,53,0
3479,note_on,,59,0,14,,,,,,,,,,,,,,,,12,,65,0
3479,note_on,,59,0,12,,,,,,,,,,,,,,,,10,,84,0
3479,note_on,,59,0,13,,,,,,,,,,,,,,,,11,,81,0
3479,note_on,,0,0,16,,,,,,,,,,,,,,,,15,,53,0
3479,note_on,,59,0,7,,,,,,,,,,,,,,,,2,,53,0
3480,note_on,,0,0,16,,,,,,,,,,,,,,,,15,,60,72
3480,note_on,,0,0,16,,,,,,,,,,,,,,,,15,,57,72
3480,note_on,,0,0,16,,,,,,,,,,,,,,,,15,,69,72
3480,note_on,,0,0,16,,,,,,,,,,,,,,,,15,,65,72
3480,note_on,,361,0,8,,,,,,,,,,,,,,,,5,,72,72
3480,note_on,,361,0,5,,,,,,,,,,,,,,,,0,,72,72
3480,note_on,,1,0,13,,,,,,,,,,,,,,,,11,,81,72
3480,note_on,,1,0,16,,,,,,,,,,,,,,,,15,,53,72
3480,note_on,,1,0,15,,,,,,,,,,,,,,,,13,,53,72
3480,note_on,,481,0,6,,,,,,,,,,,,,,,,1,,69,72
3480,note_on,,1,0,14,,,,,,,,,,,,,,,,12,,65,72
3480,note_on,,361,0,9,,,,,,,,,,,,,,,,6,,69,72
3480,note_on,,361,0,11,,,,,,,,,,,,,,,,8,,53,72
3480,note_on,,361,0,10,,,,,,,,,,,,,,,,7,,65,72
3480,note_on,,1,0,12,,,,,,,,,,,,,,,,10,,84,72
3480,note_on,,1,0,7,,,,,,,,,,,,,,,,2,,53,72
3539,note_on,,59,0,13,,,,,,,,,,,,,,,,11,,81,0
3539,note_on,,59,0,12,,,,,,,,,,,,,,,,10,,84,0
3539,note_on,,59,0,14,,,,,,,,,,,,,,,,12,,65,0
3539,note_on,,59,0,15,,,,,,,,,,,,,,,,13,,53,0
3539,note_on,,59,0,6,,,,,,,,,,,,,,,,1,,69,0
3539,note_on,,59,0,9,,,,,,,,,,,,,,,,6,,69,0
3539,note_on,,59,0,10,,,,,,,,,,,,,,,,7,,65,0
3539,note_on,,59,0,5,,,,,,,,,,,,,,,,0,,72,0
3539,note_on,,59,0,8,,,,,,,,,,,,,,,,5,,72,0
3539,note_on,,59,0,7,,,,,,,,,,,,,,,,2,,53,0
3539,note_on,,59,0,11,,,,,,,,,,,,,,,,8,,53,0
3539,note_on,,59,0,16,,,,,,,,,,,,,,,,15,,53,0
3540,note_on,,1,0,8,,,,,,,,,,,,,,,,5,,72,72
3540,note_on,,1,0,5,,,,,,,,,,,,,,,,0,,72,72
3540,note_on,,1,0,10,,,,,,,,,,,,,,,,7,,65,72
3540,note_on,,1,0,15,,,,,,,,,,,,,,,,13,,53,72
3540,note_on,,1,0,13,,,,,,,,,,,,,,,,11,,81,72
3540,note_on,,1,0,7,,,,,,,,,,,,,,,,2,,53,72
3540,note_on,,1,0,11,,,,,,,,,,,,,,,,8,,53,72
3540,note_on,,1,0,6,,,,,,,,,,,,,,,,1,,69,72
3540,note_on,,1,0,14,,,,,,,,,,,,,,,,12,,65,72
3540,note_on,,1,0,12,,,,,,,,,,,,,,,,10,,84,72
3540,note_on,,1,0,9,,,,,,,,,,,,,,,,6,,69,72
3540,note_on,,1,0,16,,,,,,,,,,,,,,,,15,,53,72
3569,note_on,,29,0,7,,,,,,,,,,,,,,,,2,,53,0
3569,note_on,,29,0,8,,,,,,,,,,,,,,,,5,,72,0
3569,note_on,,29,0,16,,,,,,,,,,,,,,,,15,,53,0
3569,note_on,,29,0,14,,,,,,,,,,,,,,,,12,,65,0
3569,note_on,,29,0,5,,,,,,,,,,,,,,,,0,,72,0
3569,note_on,,29,0,9,,,,,,,,,,,,,,,,6,,69,0
3569,note_on,,29,0,6,,,,,,,,,,,,,,,,1,,69,0
3569,note_on,,29,0,15,,,,,,,,,,,,,,,,13,,53,0
3569,note_on,,29,0,10,,,,,,,,,,,,,,,,7,,65,0
3569,note_on,,29,0,11,,,,,,,,,,,,,,,,8,,53,0
3569,note_on,,29,0,13,,,,,,,,,,,,,,,,11,,81,0
3569,note_on,,29,0,12,,,,,,,,,,,,,,,,10,,84,0
3570,note_on,,1,0,11,,,,,,,,,,,,,,,,8,,53,72
3570,note_on,,1,0,7,,,,,,,,,,,,,,,,2,,53,72
3570,note_on,,1,0,6,,,,,,,,,,,,,,,,1,,69,72
3570,note_on,,1,0,12,,,,,,,,,,,,,,,,10,,84,72
3570,note_on,,1,0,16,,,,,,,,,,,,,,,,15,,53,72
3570,note_on,,1,0,8,,,,,,,,,,,,,,,,5,,72,72
3570,note_on,,1,0,14,,,,,,,,,,,,,,,,12,,65,72
3570,note_on,,1,0,15,,,,,,,,,,,,,,,,13,,53,72
3570,note_on,,1,0,9,,,,,,,,,,,,,,,,6,,69,72
3570,note_on,,1,0,5,,,,,,,,,,,,,,,,0,,72,72
3570,note_on,,1,0,13,,,,,,,,,,,,,,,,11,,81,72
3570,note_on,,1,0,10,,,,,,,,,,,,,,,,7,,65,72
3599,note_on,,0,0,16,,,,,,,,,,,,,,,,15,,65,0
3599,note_on,,29,0,8,,,,,,,,,,,,,,,,5,,72,0
3599,note_on,,0,0,16,,,,,,,,,,,,,,,,15,,53,0
3599,note_on,,29,0,9,,,,,,,,,,,,,,,,6,,69,0
3599,note_on,,0,0,16,,,,,,,,,,,,,,,,15,,60,0
3599,note_on,,0,0,16,,,,,,,,,,,,,,,,15,,69,0
3599,note_on,,29,0,14,,,,,,,,,,,,,,,,12,,65,0
3599,note_on,,29,0,12,,,,,,,,,,,,,,,,10,,84,0
3599,note_on,,29,0,6,,,,,,,,,,,,,,,,1,,69,0
3599,note_on,,29,0,10,,,,,,,,,,,,,,,,7,,65,0
3599,note_on,,29,0,11,,,,,,,,,,,,,,,,8,,53,0
3599,note_on,,29,0,7,,,,,,,,,,,,,,,,2,,53,0
3599,note_on,,29,0,13,,,,,,,,,,,,,,,,11,,81,0
3599,note_on,,29,0,15,,,,,,,,,,,,,,,,13,,53,0
3599,note_on,,29,0,5,,,,,,,,,,,,,,,,0,,72,0
3599,note_on,,29,0,16,,,,,,,,,,,,,,,,15,,57,0
3600,note_on,,1,0,11,,,,,,,,,,,,,,,,8,,50,72
3600,note_on,,1,0,14,,,,,,,,,,,,,,,,12,,65,72
3600,note_on,,1,0,5,,,,,,,,,,,,,,,,0,,74,72
3600,note_on,,0,0,16,,,,,,,,,,,,,,,,15,,65,72
3600,note_on,,1,0,7,,,,,,,,,,,,,,,,2,,50,72
3600,note_on,,1,0,13,,,,,,,,,,,,,,,,11,,82,72
3600,note_on,,1,0,12,,,,,,,,,,,,,,,,10,,86,72
3600,note_on,,1,0,8,,,,,,,,,,,,,,,,5,,74,72
3600,note_on,,1,0,6,,,,,,,,,,,,,,,,1,,70,72
3600,note_on,,1,0,10,,,,,,,,,,,,,,,,7,,65,72
3600,note_on,,0,0,16,,,,,,,,,,,,,,,,15,,70,72
3600,note_on,,1,0,15,,,,,,,,,,,,,,,,13,,50,72
3600,note_on,,0,0,16,,,,,,,,,,,,,,,,15,,53,72
3600,note_on,,1,0,16,,,,,,,,,,,,,,,,15,,50,72
3600,note_on,,0,0,16,,,,,,,,,,,,,,,,15,,62,72
3600,note_on,,1,0,9,,,,,,,,,,,,,,,,6,,70,72
3659,note_on,,59,0,9,,,,,,,,,,,,,,,,6,,70,0
3659,note_on,,59,0,15,,,,,,,,,,,,,,,,13,,50,0
3659,note_on,,59,0,7,,,,,,,,,,,,,,,,2,,50,0
3659,note_on,,59,0,14,,,,,,,,,,,,,,,,12,,65,0
3659,note_on,,59,0,11,,,,,,,,,,,,,,,,8,,50,0
3659,note_on,,59,0,13,,,,,,,,,,,,,,,,11,,82,0
3659,note_on,,59,0,16,,,,,,,,,,,,,,,,15,,50,0
3659,note_on,,59,0,10,,,,,,,,,,,,,,,,7,,65,0
3659,note_on,,59,0,6,,,,,,,,,,,,,,,,1,,70,0
3659,note_on,,59,0,5,,,,,,,,,,,,,,,,0,,74,0
3659,note_on,,59,0,8,,,,,,,,,,,,,,,,5,,74,0
3659,note_on,,59,0,12,,,,,,,,,,,,,,,,10,,86,0
3660,note_on,,1,0,10,,,,,,,,,,,,,,,,7,,65,72
3660,note_on,,1,0,11,,,,,,,,,,,,,,,,8,,50,72
3660,note_on,,1,0,15,,,,,,,,,,,,,,,,13,,50,72
3660,note_on,,1,0,5,,,,,,,,,,,,,,,,0,,74,72
3660,note_on,,1,0,16,,,,,,,,,,,,,,,,15,,50,72
3660,note_on,,1,0,6,,,,,,,,,,,,,,,,1,,70,72
3660,note_on,,1,0,8,,,,,,,,,,,,,,,,5,,74,72
3660,note_on,,1,0,14,,,,,,,,,,,,,,,,12,,65,72
3660,note_on,,1,0,9,,,,,,,,,,,,,,,,6,,70,72
3660,note_on,,1,0,7,,,,,,,,,,,,,,,,2,,50,72
3660,note_on,,1,0,12,,,,,,,,,,,,,,,,10,,86,72
3660,note_on,,1,0,13,,,,,,,,,,,,,,,,11,,82,72
3689,note_on,,29,0,9,,,,,,,,,,,,,,,,6,,70,0
3689,note_on,,29,0,8,,,,,,,,,,,,,,,,5,,74,0
3689,note_on,,29,0,7,,,,,,,,,,,,,,,,2,,50,0
3689,note_on,,29,0,13,,,,,,,,,,,,,,,,11,,82,0
3689,note_on,,29,0,5,,,,,,,,,,,,,,,,0,,74,0
3689,note_on,,29,0,14,,,,,,,,,,,,,,,,12,,65,0
3689,note_on,,29,0,6,,,,,,,,,,,,,,,,1,,70,0
3689,note_on,,29,0,15,,,,,,,,,,,,,,,,13,,50,0
3689,note_on,,29,0,12,,,,,,,,,,,,,,,,10,,86,0
3689,note_on,,29,0,11,,,,,,,,,,,,,,,,8,,50,0
3689,note_on,,29,0,16,,,,,,,,,,,,,,,,15,,50,0
3689,note_on,,29,0,10,,,,,,,,,,,,,,,,7,,65,0
3690,note_on,,1,0,6,,,,,,,,,,,,,,,,1,,70,72
3690,note_on,,1,0,16,,,,,,,,,,,,,,,,15,,50,72
3690,note_on,,1,0,7,,,,,,,,,,,,,,,,2,,50,72
3690,note_on,,1,0,11,,,,,,,,,,,,,,,,8,,50,72
3690,note_on,,1,0,15,,,,,,,,,,,,,,,,13,,50,72
3690,note_on,,1,0,8,,,,,,,,,,,,,,,,5,,74,72
3690,note_on,,1,0,14,,,,,,,,,,,,,,,,12,,65,72
3690,note_on,,1,0,13,,,,,,,,,,,,,,,,11,,82,72
3690,note_on,,1,0,9,,,,,,,,,,,,,,,,6,,70,72
3690,note_on,,1,0,10,,,,,,,,,,,,,,,,7,,65,72
3690,note_on,,1,0,12,,,,,,,,,,,,,,,,10,,86,72
3690,note_on,,1,0,5,,,,,,,,,,,,,,,,0,,74,72
3719,note_on,,29,0,6,,,,,,,,,,,,,,,,1,,70,0
3719,note_on,,29,0,15,,,,,,,,,,,,,,,,13,,50,0
3719,note_on,,29,0,13,,,,,,,,,,,,,,,,11,,82,0
3719,note_on,,29,0,12,,,,,,,,,,,,,,,,10,,86,0
3719,note_on,,29,0,5,,,,,,,,,,,,,,,,0,,74,0
3719,note_on,,0,0,16,,,,,,,,,,,,,,,,15,,70,0
3719,note_on,,29,0,8,,,,,,,,,,,,,,,,5,,74,0
3719,note_on,,29,0,16,,,,,,,,,,,,,,,,15,,53,0
3719,note_on,,29,0,10,,,,,,,,,,,,,,,,7,,65,0
3719,note_on,,29,0,14,,,,,,,,,,,,,,,,12,,65,0
3719,note_on,,29,0,11,,,,,,,,,,,,,,,,8,,50,0
3719,note_on,,0,0,16,,,,,,,,,,,,,,,,15,,50,0
3719,note_on,,0,0,16,,,,,,,,,,,,,,,,15,,62,0
3719,note_on,,29,0,9,,,,,,,,,,,,,,,,6,,70,0
3719,note_on,,0,0,16,,,,,,,,,,,,,,,,15,,65,0
3719,note_on,,29,0,7,,,,,,,,,,,,,,,,2,,50,0
3720,note_on,,1,0,8,,,,,,,,,,,,,,,,5,,74,72
3720,note_on,,0,0,16,,,,,,,,,,,,,,,,15,,70,72
3720,note_on,,1,0,11,,,,,,,,,,,,,,,,8,,46,72
3720,note_on,,0,0,16,,,,,,,,,,,,,,,,15,,74,72
3720,note_on,,1,0,15,,,,,,,,,,,,,,,,13,,46,72
3720,note_on,,1,0,5,,,,,,,,,,,,,,,,0,,74,72
3720,note_on,,1,0,10,,,,,,,,,,,,,,,,7,,65,72
3720,note_on,,0,0,16,,,,,,,,,,,,,,,,15,,65,72
3720,note_on,,0,0,16,,,,,,,,,,,,,,,,15,,53,72
3720,note_on,,1,0,9,,,,,,,,,,,,,,,,6,,70,72
3720,note_on,,1,0,13,,,,,,,,,,,,,,,,11,,82,72
3720,note_on,,1,0,6,,,,,,,,,,,,,,,,1,,70,72
3720,note_on,,1,0,16,,,,,,,,,,,,,,,,15,,46,72
3720,note_on,,1,0,7,,,,,,,,,,,,,,,,2,,46,72
3720,note_on,,1,0,14,,,,,,,,,,,,,,,,12,,65,72
3720,note_on,,1,0,12,,,,,,,,,,,,,,,,10,,86,72
3779,note_on,,59,0,8,,,,,,,,,,,,,,,,5,,74,0
3779,note_on,,59,0,12,,,,,,,,,,,,,,,,10,,86,0
3779,note_on,,59,0,10,,,,,,,,,,,,,,,,7,,65,0
3779,note_on,,59,0,7,,,,,,,,,,,,,,,,2,,46,0
3779,note_on,,59,0,15,,,,,,,,,,,,,,,,13,,46,0
3779,note_on,,59,0,9,,,,,,,,,,,,,,,,6,,70,0
3779,note_on,,59,0,11,,,,,,,,,,,,,,,,8,,46,0
3779,note_on,,59,0,5,,,,,,,,,,,,,,,,0,,74,0
3779,note_on,,59,0,16,,,,,,,,,,,,,,,,15,,46,0
3779,note_on,,59,0,6,,,,,,,,,,,,,,,,1,,70,0
3779,note_on,,59,0,13,,,,,,,,,,,,,,,,11,,82,0
3779,note_on,,59,0,14,,,,,,,,,,,,,,,,12,,65,0
3780,note_on,,1,0,9,,,,,,,,,,,,,,,,6,,70,72
3780,note_on,,1,0,5,,,,,,,,,,,,,,,,0,,74,72
3780,note_on,,1,0,15,,,,,,,,,,,,,,,,13,,46,72
3780,note_on,,1,0,16,,,,,,,,,,,,,,,,15,,46,72
3780,note_on,,1,0,10,,,,,,,,,,,,,,,,7,,65,72
3780,note_on,,1,0,11,,,,,,,,,,,,,,,,8,,46,72
3780,note_on,,1,0,6,,,,,,,,,,,,,,,,1,,70,72
3780,note_on,,1,0,7,,,,,,,,,,,,,,,,2,,46,72
3780,note_on,,1,0,14,,,,,,,,,,,,,,,,12,,65,72
3780,note_on,,1,0,8,,,,,,,,,,,,,,,,5,,74,72
3780,note_on,,1,0,13,,,,,,,,,,,,,,,,11,,82,72
3780,note_on,,1,0,12,,,,,,,,,,,,,,,,10,,86,72
3839,note_on,,59,0,10,,,,,,,,,,,,,,,,7,,65,0
3839,note_on,,59,0,11,,,,,,,,,,,,,,,,8,,46,0
3839,note_on,,59,0,9,,,,,,,,,,,,,,,,6,,70,0
3839,note_on,,59,0,14,,,,,,,,,,,,,,,,12,,65,0
3839,note_on,,59,0,6,,,,,,,,,,,,,,,,1,,70,0
3839,note_on,,0,0,16,,,,,,,,,,,,,,,,15,,65,0
3839,note_on,,59,0,12,,,,,,,,,,,,,,,,10,,86,0
3839,note_on,,59,0,7,,,,,,,,,,,,,,,,2,,46,0
3839,note_on,,0,0,16,,,,,,,,,,,,,,,,15,,70,0
3839,note_on,,0,0,16,,,,,,,,,,,,,,,,15,,74,0
3839,note_on,,59,0,8,,,,,,,,,,,,,,,,5,,74,0
3839,note_on,,59,0,16,,,,,,,,,,,,,,,,15,,53,0
3839,note_on,,59,0,13,,,,,,,,,,,,,,,,11,,82,0
3839,note_on,,59,0,15,,,,,,,,,,,,,,,,13,,46,0
3839,note_on,,59,0,5,,,,,,,,,,,,,,,,0,,74,0
3839,note_on,,0,0,16,,,,,,,,,,,,,,,,15,,46,0
3840,note_on,,1,0,14,,,,,,,,,,,,,,,,12,,65,72
3840,note_on,,1,0,8,,,,,,,,,,,,,,,,5,,72,72
3840,note_on,,1,0,5,,,,,,,,,,,,,,,,0,,72,72
3840,note_on,,1,0,7,,,,,,,,,,,,,,,,2,,53,72
3840,note_on,,1,0,9,,,,,,,,,,,,,,,,6,,69,72
3840,note_on,,1,0,12,,,,,,,,,,,,,,,,10,,84,72
3840,note_on,,0,0,16,,,,,,,,,,,,,,,,15,,69,72
3840,note_on,,0,0,16,,,,,,,,,,,,,,,,15,,65,72
3840,note_on,,0,0,16,,,,,,,,,,,,,,,,15,,72,72
3840,note_on,,0,0,16,,,,,,,,,,,,,,,,15,,77,72
3840,note_on,,1,0,10,,,,,,,,,,,,,,,,7,,65,72
3840,note_on,,1,0,11,,,,,,,,,,,,,,,,8,,53,72
3840,note_on,,1,0,13,,,,,,,,,,,,,,,,11,,81,72
3840,note_on,,1,0,15,,,,,,,,,,,,,,,,13,,53,72
3840,note_on,,1,0,6,,,,,,,,,,,,,,,,1,,69,72
3840,note_on,,1,0,16,,,,,,,,,,,,,,,,15,,53,72
3899,note_on,,59,0,9,,,,,,,,,,,,,,,,6,,69,0
3899,note_on,,59,0,14,,,,,,,,,,,,,,,,12,,65,0
3899,note_on,,59,0,5,,,,,,,,,,,,,,,,0,,72,0
3899,note_on,,59,0,10,,,,,,,,,,,,,,,,7,,65,0
3899,note_on,,59,0,8,,,,,,,,,,,,,,,,5,,72,0
3899,note_on,,59,0,7,,,,,,,,,,,,,,,,2,,53,0
3899,note_on,,59,0,6,,,,,,,,,,,,,,,,1,,69,0
3899,note_on,,59,0,11,,,,,,,,,,,,,,,,8,,53,0
3899,note_on,,59,0,12,,,,,,,,,,,,,,,,10,,84,0
3899,note_on,,59,0,13,,,,,,,,,,,,,,,,11,,81,0
3899,note_on,,59,0,15,,,,,,,,,,,,,,,,13,,53,0
3899,note_on,,59,0,16,,,,,,,,,,,,,,,,15,,53,0
3900,note_on,,1,0,12,,,,,,,,,,,,,,,,10,,84,72
3900,note_on,,1,0,14,,,,,,,,,,,,,,,,12,,65,72
3900,note_on,,1,0,10,,,,,,,,,,,,,,,,7,,65,72
3900,note_on,,1,0,5,,,,,,,,,,,,,,,,0,,72,72
3900,note_on,,1,0,6,,,,,,,,,,,,,,,,1,,69,72
3900,note_on,,1,0,7,,,,,,,,,,,,,,,,2,,41,72
3900,note_on,,1,0,11,,,,,,,,,,,,,,,,8,,53,72
3900,note_on,,1,0,8,,,,,,,,,,,,,,,,5,,72,72
3900,note_on,,1,0,15,,,,,,,,,,,,,,,,13,,41,72
3900,note_on,,1,0,9,,,,,,,,,,,,,,,,6,,69,72
3900,note_on,,1,0,13,,,,,,,,,,,,,,,,11,,81,72
3900,note_on,,1,0,16,,,,,,,,,,,,,,,,15,,41,72
3959,note_on,,0,0,16,,,,,,,,,,,,,,,,15,,65,0
3959,note_on,,59,0,11,,,,,,,,,,,,,,,,8,,53,0
3959,note_on,,59,0,5,,,,,,,,,,,,,,,,0,,72,0
3959,note_on,,59,0,10,,,,,,,,,,,,,,,,7,,65,0
3959,note_on,,59,0,7,,,,,,,,,,,,,,,,2,,41,0
3959,note_on,,0,0,16,,,,,,,,,,,,,,,,15,,41,0
3959,note_on,,59,0,14,,,,,,,,,,,,,,,,12,,65,0
3959,note_on,,59,0,8,,,,,,,,,,,,,,,,5,,72,0
3959,note_on,,0,0,16,,,,,,,,,,,,,,,,15,,72,0
3959,note_on,,59,0,16,,,,,,,,,,,,,,,,15,,77,0
3959,note_on,,59,0,13,,,,,,,,,,,,,,,,11,,81,0
3959,note_on,,59,0,12,,,,,,,,,,,,,,,,10,,84,0
3959,note_on,,59,0,9,,,,,,,,,,,,,,,,6,,69,0
3959,note_on,,59,0,6,,,,,,,,,,,,,,,,1,,69,0
3959,note_on,,59,0,15,,,,,,,,,,,,,,,,13,,41,0
3959,note_on,,0,0,16,,,,,,,,,,,,,,,,15,,69,0
4050,note_on,,91,0,9,,,,,,,,,,,,,,,,6,,65,72
4050,note_on,,91,0,8,,,,,,,,,,,,,,,,5,,65,72
4050,note_on,,91,0,5,,,,,,,,,,,,,,,,0,,65,72
4079,note_on,,29,0,9,,,,,,,,,,,,,,,,6,,65,0
4079,note_on,,29,0,5,,,,,,,,,,,,,,,,0,,65,0
4079,note_on,,29,0,8,,,,,,,,,,,,,,,,5,,65,0
4080,note_on,,1,0,8,,,,,,,,,,,,,,,,5,,65,72
4080,note_on,,1,0,9,,,,,,,,,,,,,,,,6,,65,72
4080,note_on,,1,0,5,,,,,,,,,,,,,,,,0,,65,72
4319,note_on,,239,0,9,,,,,,,,,,,,,,,,6,,65,0
4319,note_on,,239,0,8,,,,,,,,,,,,,,,,5,,65,0
4319,note_on,,239,0,5,,,,,,,,,,,,,,,,0,,65,0
4320,note_on,,1,0,9,,,,,,,,,,,,,,,,6,,65,72
4320,note_on,,361,0,6,,,,,,,,,,,,,,,,1,,65,72
4320,note_on,,1,0,5,,,,,,,,,,,,,,,,0,,65,72
4320,note_on,,1,0,8,,,,,,,,,,,,,,,,5,,65,72
4529,note_on,,209,0,8,,,,,,,,,,,,,,,,5,,65,0
4529,note_on,,209,0,6,,,,,,,,,,,,,,,,1,,65,0
4529,note_on,,209,0,5,,,,,,,,,,,,,,,,0,,65,0
4529,note_on,,209,0,9,,,,,,,,,,,,,,,,6,,65,0
4530,note_on,,1,0,8,,,,,,,,,,,,,,,,5,,67,72
4530,note_on,,1,0,9,,,,,,,,,,,,,,,,6,,67,72
4530,note_on,,1,0,5,,,,,,,,,,,,,,,,0,,67,72
4530,note_on,,1,0,6,,,,,,,,,,,,,,,,1,,67,72
4559,note_on,,29,0,6,,,,,,,,,,,,,,,,1,,67,0
4559,note_on,,29,0,9,,,,,,,,,,,,,,,,6,,67,0
4559,note_on,,29,0,8,,,,,,,,,,,,,,,,5,,67,0
4559,note_on,,29,0,5,,,,,,,,,,,,,,,,0,,67,0
4560,note_on,,1,0,8,,,,,,,,,,,,,,,,5,,69,72
4560,note_on,,1,0,9,,,,,,,,,,,,,,,,6,,69,72
4560,note_on,,1,0,6,,,,,,,,,,,,,,,,1,,69,72
4560,note_on,,1,0,5,,,,,,,,,,,,,,,,0,,69,72
4799,note_on,,239,0,5,,,,,,,,,,,,,,,,0,,69,0
4799,note_on,,239,0,8,,,,,,,,,,,,,,,,5,,69,0
4799,note_on,,239,0,9,,,,,,,,,,,,,,,,6,,69,0
4799,note_on,,239,0,6,,,,,,,,,,,,,,,,1,,69,0
4800,note_on,,0,0,16,,,,,,,,,,,,,,,,15,,65,72
4800,note_on,,841,0,15,,,,,,,,,,,,,,,,13,,53,72
4800,note_on,,1,0,8,,,,,,,,,,,,,,,,5,,72,72
4800,note_on,,841,0,13,,,,,,,,,,,,,,,,11,,72,72
4800,note_on,,841,0,12,,,,,,,,,,,,,,,,10,,81,72
4800,note_on,,0,0,16,,,,,,,,,,,,,,,,15,,69,72
4800,note_on,,1,0,9,,,,,,,,,,,,,,,,6,,69,72
4800,note_on,,841,0,10,,,,,,,,,,,,,,,,7,,65,72
4800,note_on,,841,0,7,,,,,,,,,,,,,,,,2,,53,72
4800,note_on,,1,0,6,,,,,,,,,,,,,,,,1,,69,72
4800,note_on,,841,0,11,,,,,,,,,,,,,,,,8,,53,72
4800,note_on,,841,0,14,,,,,,,,,,,,,,,,12,,65,72
4800,note_on,,1,0,5,,,,,,,,,,,,,,,,0,,72,72
4800,note_on,,0,0,16,,,,,,,,,,,,,,,,15,,72,72
4800,note_on,,841,0,16,,,,,,,,,,,,,,,,15,,53,72
4919,note_on,,119,0,6,,,,,,,,,,,,,,,,1,,69,0
4919,note_on,,119,0,15,,,,,,,,,,,,,,,,13,,53,0
4919,note_on,,0,0,16,,,,,,,,,,,,,,,,15,,65,0
4919,note_on,,0,0,16,,,,,,,,,,,,,,,,15,,69,0
4919,note_on,,0,0,16,,,,,,,,,,,,,,,,15,,72,0
4919,note_on,,119,0,8,,,,,,,,,,,,,,,,5,,72,0
4919,note_on,,119,0,14,,,,,,,,,,,,,,,,12,,65,0
4919,note_on,,119,0,7,,,,,,,,,,,,,,,,2,,53,0
4919,note_on,,119,0,12,,,,,,,,,,,,,,,,10,,81,0
4919,note_on,,119,0,16,,,,,,,,,,,,,,,,15,,53,0
4919,note_on,,119,0,9,,,,,,,,,,,,,,,,6,,69,0
4919,note_on,,119,0,5,,,,,,,,,,,,,,,,0,,72,0
4919,note_on,,119,0,10,,,,,,,,,,,,,,,,7,,65,0
4919,note_on,,119,0,13,,,,,,,,,,,,,,,,11,,72,0
4919,note_on,,119,0,11,,,,,,,,,,,,,,,,8,,53,0
4920,note_on,,1,0,10,,,,,,,,,,,,,,,,7,,65,72
4920,note_on,,1,0,6,,,,,,,,,,,,,,,,1,,69,72
4920,note_on,,1,0,5,,,,,,,,,,,,,,,,0,,72,72
4920,note_on,,1,0,15,,,,,,,,,,,,,,,,13,,53,72
4920,note_on,,0,0,16,,,,,,,,,,,,,,,,15,,65,72
4920,note_on,,0,0,16,,,,,,,,,,,,,,,,15,,69,72
4920,note_on,,0,0,16,,,,,,,,,,,,,,,,15,,72,72
4920,note_on,,1,0,11,,,,,,,,,,,,,,,,8,,53,72
4920,note_on,,1,0,16,,,,,,,,,,,,,,,,15,,53,72
4920,note_on,,1,0,9,,,,,,,,,,,,,,,,6,,69,72
4920,note_on,,1,0,14,,,,,,,,,,,,,,,,12,,65,72
4920,note_on,,1,0,8,,,,,,,,,,,,,,,,5,,72,72
4920,note_on,,1,0,12,,,,,,,,,,,,,,,,10,,81,72
4920,note_on,,1,0,13,,,,,,,,,,,,,,,,11,,72,72
4920,note_on,,1,0,7,,,,,,,,,,,,,,,,2,,53,72
4979,note_on,,59,0,7,,,,,,,,,,,,,,,,2,,53,0
4979,note_on,,59,0,14,,,,,,,,,,,,,,,,12,,65,0
4979,note_on,,59,0,15,,,,,,,,,,,,,,,,13,,53,0
4979,note_on,,59,0,8,,,,,,,,,,,,,,,,5,,72,0
4979,note_on,,59,0,9,,,,,,,,,,,,,,,,6,,69,0
4979,note_on,,0,0,16,,,,,,,,,,,,,,,,15,,72,0
4979,note_on,,59,0,6,,,,,,,,,,,,,,,,1,,69,0
4979,note_on,,0,0,16,,,,,,,,,,,,,,,,15,,69,0
4979,note_on,,0,0,16,,,,,,,,,,,,,,,,15,,65,0
4979,note_on,,59,0,13,,,,,,,,,,,,,,,,11,,72,0
4979,note_on,,59,0,16,,,,,,,,,,,,,,,,15,,53,0
4979,note_on,,59,0,12,,,,,,,,,,,,,,,,10,,81,0
4979,note_on,,59,0,10,,,,,,,,,,,,,,,,7,,65,0
4979,note_on,,59,0,5,,,,,,,,,,,,,,,,0,,72,0
4979,note_on,,59,0,11,,,,,,,,,,,,,,,,8,,53,0
4980,note_on,,1,0,11,,,,,,,,,,,,,,,,8,,53,72
4980,note_on,,0,0,16,,,,,,,,,,,,,,,,15,,69,72
4980,note_on,,1,0,5,,,,,,,,,,,,,,,,0,,72,72
4980,note_on,,0,0,16,,,,,,,,,,,,,,,,15,,72,72
4980,note_on,,1,0,16,,,,,,,,,,,,,,,,15,,53,72
4980,note_on,,1,0,15,,,,,,,,,,,,,,,,13,,53,72
4980,note_on,,1,0,7,,,,,,,,,,,,,,,,2,,53,72
4980,note_on,,0,0,16,,,,,,,,,,,,,,,,15,,65,72
4980,note_on,,1,0,6,,,,,,,,,,,,,,,,1,,69,72
4980,note_on,,1,0,9,,,,,,,,,,,,,,,,6,,69,72
4980,note_on,,1,0,14,,,,,,,,,,,,,,,,12,,65,72
4980,note_on,,1,0,12,,,,,,,,,,,,,,,,10,,81,72
4980,note_on,,1,0,13,,,,,,,,,,,,,,,,11,,72,72
4980,note_on,,1,0,10,,,,,,,,,,,,,,,,7,,65,72
4980,note_on,,1,0,8,,,,,,,,,,,,,,,,5,,72,72
5039,note_on,,59,0,10,,,,,,,,,,,,,,,,7,,65,0
5039,note_on,,59,0,6,,,,,,,,,,,,,,,,1,,69,0
5039,note_on,,0,0,16,,,,,,,,,,,,,,,,15,,65,0
5039,note_on,,59,0,12,,,,,,,,,,,,,,,,10,,81,0
5039,note_on,,59,0,5,,,,,,,,,,,,,,,,0,,72,0
5039,note_on,,59,0,11,,,,,,,,,,,,,,,,8,,53,0
5039,note_on,,59,0,15,,,,,,,,,,,,,,,,13,,53,0
5039,note_on,,59,0,8,,,,,,,,,,,,,,,,5,,72,0
5039,note_on,,0,0,16,,,,,,,,,,,,,,,,15,,69,0
5039,note_on,,0,0,16,,,,,,,,,,,,,,,,15,,72,0
5039,note_on,,59,0,16,,,,,,,,,,,,,,,,15,,53,0
5039,note_on,,59,0,13,,,,,,,,,,,,,,,,11,,72,0
5039,note_on,,59,0,9,,,,,,,,,,,,,,,,6,,69,0
5039,note_on,,59,0,7,,,,,,,,,,,,,,,,2,,53,0
5039,note_on,,59,0,14,,,,,,,,,,,,,,,,12,,65,0
5040,note_on,,1,0,9,,,,,,,,,,,,,,,,6,,69,72
5040,note_on,,1,0,8,,,,,,,,,,,,,,,,5,,65,72
5040,note_on,,1,0,10,,,,,,,,,,,,,,,,7,,60,72
5040,note_on,,1,0,5,,,,,,,,,,,,,,,,0,,65,72
5040,note_on,,1,0,7,,,,,,,,,,,,,,,,2,,53,72
5040,note_on,,1,0,16,,,,,,,,,,,,,,,,15,,53,72
5040,note_on,,1,0,12,,,,,,,,,,,,,,,,10,,77,72
5040,note_on,,0,0,16,,,,,,,,,,,,,,,,15,,77,72
5040,note_on,,0,0,16,,,,,,,,,,,,,,,,15,,72,72
5040,note_on,,0,0,16,,,,,,,,,,,,,,,,15,,69,72
5040,note_on,,0,0,16,,,,,,,,,,,,,,,,15,,65,72
5040,note_on,,1,0,13,,,,,,,,,,,,,,,,11,,69,72
5040,note_on,,1,0,15,,,,,,,,,,,,,,,,13,,53,72
5040,note_on,,1,0,11,,,,,,,,,,,,,,,,8,,53,72
5040,note_on,,1,0,6,,,,,,,,,,,,,,,,1,,69,72
5040,note_on,,1,0,14,,,,,,,,,,,,,,,,12,,69,72
5069,note_on,,29,0,12,,,,,,,,,,,,,,,,10,,77,0
5069,note_on,,29,0,6,,,,,,,,,,,,,,,,1,,69,0
5069,note_on,,29,0,9,,,,,,,,,,,,,,,,6,,69,0
5069,note_on,,29,0,8,,,,,,,,,,,,,,,,5,,65,0
5069,note_on,,29,0,14,,,,,,,,,,,,,,,,12,,69,0
5069,note_on,,29,0,5,,,,,,,,,,,,,,,,0,,65,0
5069,note_on,,29,0,13,,,,,,,,,,,,,,,,11,,69,0
5070,note_on,,1,0,5,,,,,,,,,,,,,,,,0,,67,72
5070,note_on,,1,0,9,,,,,,,,,,,,,,,,6,,67,72
5070,note_on,,1,0,14,,,,,,,,,,,,,,,,12,,67,72
5070,note_on,,1,0,13,,,,,,,,,,,,,,,,11,,70,72
5070,note_on,,1,0,12,,,,,,,,,,,,,,,,10,,79,72
5070,note_on,,1,0,8,,,,,,,,,,,,,,,,5,,67,72
5070,note_on,,1,0,6,,,,,,,,,,,,,,,,1,,67,72
5099,note_on,,29,0,13,,,,,,,,,,,,,,,,11,,70,0
5099,note_on,,29,0,6,,,,,,,,,,,,,,,,1,,67,0
5099,note_on,,29,0,12,,,,,,,,,,,,,,,,10,,79,0
5099,note_on,,29,0,9,,,,,,,,,,,,,,,,6,,67,0
5099,note_on,,29,0,14,,,,,,,,,,,,,,,,12,,67,0
5099,note_on,,29,0,8,,,,,,,,,,,,,,,,5,,67,0
5099,note_on,,29,0,5,,,,,,,,,,,,,,,,0,,67,0
5099,note_on,,59,0,15,,,,,,,,,,,,,,,,13,,53,0
5099,note_on,,59,0,16,,,,,,,,,,,,,,,,15,,53,0
5099,note_on,,59,0,7,,,,,,,,,,,,,,,,2,,53,0
5100,note_on,,1,0,6,,,,,,,,,,,,,,,,1,,69,72
5100,note_on,,1,0,14,,,,,,,,,,,,,,,,12,,69,72
5100,note_on,,1,0,8,,,,,,,,,,,,,,,,5,,65,72
5100,note_on,,1,0,5,,,,,,,,,,,,,,,,0,,65,72
5100,note_on,,1,0,16,,,,,,,,,,,,,,,,15,,53,72
5100,note_on,,1,0,9,,,,,,,,,,,,,,,,6,,69,72
5100,note_on,,1,0,7,,,,,,,,,,,,,,,,2,,53,72
5100,note_on,,1,0,12,,,,,,,,,,,,,,,,10,,77,72
5100,note_on,,1,0,15,,,,,,,,,,,,,,,,13,,53,72
5100,note_on,,1,0,13,,,,,,,,,,,,,,,,11,,69,72
5129,note_on,,29,0,14,,,,,,,,,,,,,,,,12,,69,0
5129,note_on,,29,0,8,,,,,,,,,,,,,,,,5,,65,0
5129,note_on,,29,0,6,,,,,,,,,,,,,,,,1,,69,0
5129,note_on,,89,0,10,,,,,,,,,,,,,,,,7,,60,0
5129,note_on,,29,0,12,,,,,,,,,,,,,,,,10,,77,0
5129,note_on,,29,0,13,,,,,,,,,,,,,,,,11,,69,0
5129,note_on,,89,0,11,,,,,,,,,,,,,,,,8,,53,0
5129,note_on,,29,0,9,,,,,,,,,,,,,,,,6,,69,0
5129,note_on,,29,0,5,,,,,,,,,,,,,,,,0,,65,0
5130,note_on,,1,0,12,,,,,,,,,,,,,,,,10,,79,72
5130,note_on,,1,0,10,,,,,,,,,,,,,,,,7,,60,72
5130,note_on,,1,0,14,,,,,,,,,,,,,,,,12,,67,72
5130,note_on,,1,0,11,,,,,,,,,,,,,,,,8,,53,72
5130,note_on,,1,0,5,,,,,,,,,,,,,,,,0,,67,72
5130,note_on,,1,0,8,,,,,,,,,,,,,,,,5,,67,72
5130,note_on,,1,0,13,,,,,,,,,,,,,,,,11,,70,72
5130,note_on,,1,0,9,,,,,,,,,,,,,,,,6,,67,72
5130,note_on,,1,0,6,,,,,,,,,,,,,,,,1,,67,72
5159,note_on,,59,0,7,,,,,,,,,,,,,,,,2,,53,0
5159,note_on,,29,0,5,,,,,,,,,,,,,,,,0,,67,0
5159,note_on,,59,0,16,,,,,,,,,,,,,,,,15,,53,0
5159,note_on,,29,0,11,,,,,,,,,,,,,,,,8,,53,0
5159,note_on,,59,0,15,,,,,,,,,,,,,,,,13,,53,0
5159,note_on,,29,0,13,,,,,,,,,,,,,,,,11,,70,0
5159,note_on,,29,0,10,,,,,,,,,,,,,,,,7,,60,0
5159,note_on,,29,0,9,,,,,,,,,,,,,,,,6,,67,0
5159,note_on,,29,0,12,,,,,,,,,,,,,,,,10,,79,0
5159,note_on,,29,0,6,,,,,,,,,,,,,,,,1,,67,0
5159,note_on,,29,0,8,,,,,,,,,,,,,,,,5,,67,0
5159,note_on,,29,0,14,,,,,,,,,,,,,,,,12,,67,0
5160,note_on,,1,0,9,,,,,,,,,,,,,,,,6,,65,72
5160,note_on,,1,0,7,,,,,,,,,,,,,,,,2,,53,72
5160,note_on,,1,0,5,,,,,,,,,,,,,,,,0,,69,72
5160,note_on,,1,0,12,,,,,,,,,,,,,,,,10,,81,72
5160,note_on,,1,0,16,,,,,,,,,,,,,,,,15,,53,72
5160,note_on,,1,0,14,,,,,,,,,,,,,,,,12,,65,72
5160,note_on,,1,0,6,,,,,,,,,,,,,,,,1,,65,72
5160,note_on,,1,0,11,,,,,,,,,,,,,,,,8,,53,72
5160,note_on,,1,0,10,,,,,,,,,,,,,,,,7,,60,72
5160,note_on,,1,0,8,,,,,,,,,,,,,,,,5,,69,72
5160,note_on,,1,0,13,,,,,,,,,,,,,,,,11,,72,72
5160,note_on,,1,0,15,,,,,,,,,,,,,,,,13,,53,72
5189,note_on,,29,0,6,,,,,,,,,,,,,,,,1,,65,0
5189,note_on,,29,0,13,,,,,,,,,,,,,,,,11,,72,0
5189,note_on,,29,0,9,,,,,,,,,,,,,,,,6,,65,0
5189,note_on,,29,0,5,,,,,,,,,,,,,,,,0,,69,0
5189,note_on,,29,0,12,,,,,,,,,,,,,,,,10,,81,0
5189,note_on,,29,0,14,,,,,,,,,,,,,,,,12,,65,0
5189,note_on,,29,0,8,,,,,,,,,,,,,,,,5,,69,0
5190,note_on,,1,0,6,,,,,,,,,,,,,,,,1,,67,72
5190,note_on,,1,0,12,,,,,,,,,,,,,,,,10,,82,72
5190,note_on,,1,0,8,,,,,,,,,,,,,,,,5,,70,72
5190,note_on,,1,0,13,,,,,,,,,,,,,,,,11,,70,72
5190,note_on,,1,0,14,,,,,,,,,,,,,,,,12,,67,72
5190,note_on,,1,0,9,,,,,,,,,,,,,,,,6,,67,72
5190,note_on,,1,0,5,,,,,,,,,,,,,,,,0,,70,72
5219,note_on,,59,0,15,,,,,,,,,,,,,,,,13,,53,0
5219,note_on,,59,0,7,,,,,,,,,,,,,,,,2,,53,0
5219,note_on,,59,0,10,,,,,,,,,,,,,,,,7,,60,0
5219,note_on,,59,0,16,,,,,,,,,,,,,,,,15,,53,0
5219,note_on,,29,0,8,,,,,,,,,,,,,,,,5,,70,0
5219,note_on,,29,0,6,,,,,,,,,,,,,,,,1,,67,0
5219,note_on,,29,0,13,,,,,,,,,,,,,,,,11,,70,0
5219,note_on,,29,0,12,,,,,,,,,,,,,,,,10,,82,0
5219,note_on,,29,0,5,,,,,,,,,,,,,,,,0,,70,0
5219,note_on,,29,0,14,,,,,,,,,,,,,,,,12,,67,0
5219,note_on,,59,0,11,,,,,,,,,,,,,,,,8,,53,0
5219,note_on,,29,0,9,,,,,,,,,,,,,,,,6,,67,0
5220,note_on,,1,0,12,,,,,,,,,,,,,,,,10,,81,72
5220,note_on,,1,0,13,,,,,,,,,,,,,,,,11,,72,72
5220,note_on,,1,0,15,,,,,,,,,,,,,,,,13,,53,72
5220,note_on,,1,0,10,,,,,,,,,,,,,,,,7,,60,72
5220,note_on,,1,0,8,,,,,,,,,,,,,,,,5,,69,72
5220,note_on,,1,0,9,,,,,,,,,,,,,,,,6,,65,72
5220,note_on,,1,0,6,,,,,,,,,,,,,,,,1,,65,72
5220,note_on,,1,0,14,,,,,,,,,,,,,,,,12,,65,72
5220,note_on,,1,0,16,,,,,,,,,,,,,,,,15,,53,72
5220,note_on,,1,0,5,,,,,,,,,,,,,,,,0,,69,72
5220,note_on,,1,0,11,,,,,,,,,,,,,,,,8,,53,72
5220,note_on,,1,0,7,,,,,,,,,,,,,,,,2,,53,72
5249,note_on,,29,0,14,,,,,,,,,,,,,,,,12,,65,0
5249,note_on,,29,0,9,,,,,,,,,,,,,,,,6,,65,0
5249,note_on,,29,0,12,,,,,,,,,,,,,,,,10,,81,0
5249,note_on,,29,0,13,,,,,,,,,,,,,,,,11,,72,0
5249,note_on,,29,0,6,,,,,,,,,,,,,,,,1,,65,0
5249,note_on,,29,0,5,,,,,,,,,,,,,,,,0,,69,0
5249,note_on,,29,0,8,,,,,,,,,,,,,,,,5,,69,0
5250,note_on,,1,0,8,,,,,,,,,,,,,,,,5,,70,72
5250,note_on,,1,0,6,,,,,,,,,,,,,,,,1,,67,72
5250,note_on,,1,0,13,,,,,,,,,,,,,,,,11,,70,72
5250,note_on,,1,0,5,,,,,,,,,,,,,,,,0,,70,72
5250,note_on,,1,0,14,,,,,,,,,,,,,,,,12,,67,72
5250,note_on,,1,0,9,,,,,,,,,,,,,,,,6,,67,72
5250,note_on,,1,0,12,,,,,,,,,,,,,,,,10,,82,72
5279,note_on,,59,0,11,,,,,,,,,,,,,,,,8,,53,0
5279,note_on,,29,0,8,,,,,,,,,,,,,,,,5,,70,0
5279,note_on,,59,0,15,,,,,,,,,,,,,,,,13,,53,0
5279,note_on,,29,0,12,,,,,,,,,,,,,,,,10,,82,0
5279,note_on,,29,0,5,,,,,,,,,,,,,,,,0,,70,0
5279,note_on,,29,0,14,,,,,,,,,,,,,,,,12,,67,0
5279,note_on,,59,0,10,,,,,,,,,,,,,,,,7,,60,0
5279,note_on,,29,0,6,,,,,,,,,,,,,,,,1,,67,0
5279,note_on,,0,0,16,,,,,,,,,,,,,,,,15,,53,0
5279,note_on,,59,0,16,,,,,,,,,,,,,,,,15,,77,0
5279,note_on,,0,0,16,,,,,,,,,,,,,,,,15,,72,0
5279,note_on,,0,0,16,,,,,,,,,,,,,,,,15,,69,0
5279,note_on,,0,0,16,,,,,,,,,,,,,,,,15,,65,0
5279,note_on,,29,0,13,,,,,,,,,,,,,,,,11,,70,0
5279,note_on,,59,0,7,,,,,,,,,,,,,,,,2,,53,0
5279,note_on,,29,0,9,,,,,,,,,,,,,,,,6,,67,0
5280,note_on,,1,0,7,,,,,,,,,,,,,,,,2,,53,72
5280,note_on,,1,0,9,,,,,,,,,,,,,,,,6,,69,72
5280,note_on,,1,0,6,,,,,,,,,,,,,,,,1,,69,72
5280,note_on,,1,0,8,,,,,,,,,,,,,,,,5,,72,72
5280,note_on,,1,0,16,,,,,,,,,,,,,,,,15,,53,72
5280,note_on,,0,0,16,,,,,,,,,,,,,,,,15,,69,72
5280,note_on,,0,0,16,,,,,,,,,,,,,,,,15,,65,72
5280,note_on,,0,0,16,,,,,,,,,,,,,,,,15,,60,72
5280,note_on,,1,0,5,,,,,,,,,,,,,,,,0,,72,72
5280,note_on,,1,0,10,,,,,,,,,,,,,,,,7,,57,72
5280,note_on,,1,0,15,,,,,,,,,,,,,,,,13,,53,72
5280,note_on,,1,0,13,,,,,,,,,,,,,,,,11,,69,72
5280,note_on,,1,0,14,,,,,,,,,,,,,,,,12,,65,72
5280,note_on,,1,0,12,,,,,,,,,,,,,,,,10,,84,72
5280,note_on,,1,0,11,,,,,,,,,,,,,,,,8,,53,72
5309,note_on,,29,0,14,,,,,,,,,,,,,,,,12,,65,0
5309,note_on,,29,0,11,,,,,,,,,,,,,,,,8,,53,0
5309,note_on,,29,0,13,,,,,,,,,,,,,,,,11,,69,0
5309,note_on,,29,0,10,,,,,,,,,,,,,,,,7,,57,0
5310,note_on,,1,0,13,,,,,,,,,,,,,,,,11,,70,72
5310,note_on,,1,0,10,,,,,,,,,,,,,,,,7,,58,72
5310,note_on,,1,0,11,,,,,,,,,,,,,,,,8,,55,72
5310,note_on,,1,0,14,,,,,,,,,,,,,,,,12,,67,72
5339,note_on,,29,0,10,,,,,,,,,,,,,,,,7,,58,0
5339,note_on,,59,0,7,,,,,,,,,,,,,,,,2,,53,0
5339,note_on,,59,0,16,,,,,,,,,,,,,,,,15,,53,0
5339,note_on,,29,0,14,,,,,,,,,,,,,,,,12,,67,0
5339,note_on,,29,0,13,,,,,,,,,,,,,,,,11,,70,0
5339,note_on,,59,0,15,,,,,,,,,,,,,,,,13,,53,0
5339,note_on,,29,0,11,,,,,,,,,,,,,,,,8,,55,0
5340,note_on,,1,0,11,,,,,,,,,,,,,,,,8,,53,72
5340,note_on,,1,0,7,,,,,,,,,,,,,,,,2,,53,72
5340,note_on,,1,0,15,,,,,,,,,,,,,,,,13,,53,72
5340,note_on,,1,0,13,,,,,,,,,,,,,,,,11,,69,72
5340,note_on,,1,0,10,,,,,,,,,,,,,,,,7,,57,72
5340,note_on,,1,0,16,,,,,,,,,,,,,,,,15,,53,72
5340,note_on,,1,0,14,,,,,,,,,,,,,,,,12,,65,72
5369,note_on,,29,0,13,,,,,,,,,,,,,,,,11,,69,0
5369,note_on,,89,0,5,,,,,,,,,,,,,,,,0,,72,0
5369,note_on,,89,0,6,,,,,,,,,,,,,,,,1,,69,0
5369,note_on,,29,0,11,,,,,,,,,,,,,,,,8,,53,0
5369,note_on,,89,0,9,,,,,,,,,,,,,,,,6,,69,0
5369,note_on,,29,0,10,,,,,,,,,,,,,,,,7,,57,0
5369,note_on,,89,0,8,,,,,,,,,,,,,,,,5,,72,0
5369,note_on,,89,0,12,,,,,,,,,,,,,,,,10,,84,0
5369,note_on,,29,0,14,,,,,,,,,,,,,,,,12,,65,0
5370,note_on,,1,0,6,,,,,,,,,,,,,,,,1,,65,72
5370,note_on,,1,0,8,,,,,,,,,,,,,,,,5,,69,72
5370,note_on,,1,0,12,,,,,,,,,,,,,,,,10,,69,72
5370,note_on,,1,0,14,,,,,,,,,,,,,,,,12,,67,72
5370,note_on,,1,0,5,,,,,,,,,,,,,,,,0,,69,72
5370,note_on,,1,0,11,,,,,,,,,,,,,,,,8,,55,72
5370,note_on,,1,0,9,,,,,,,,,,,,,,,,6,,65,72
5370,note_on,,1,0,10,,,,,,,,,,,,,,,,7,,58,72
5370,note_on,,1,0,13,,,,,,,,,,,,,,,,11,,70,72
5399,note_on,,29,0,13,,,,,,,,,,,,,,,,11,,70,0
5399,note_on,,29,0,14,,,,,,,,,,,,,,,,12,,67,0
5399,note_on,,59,0,15,,,,,,,,,,,,,,,,13,,53,0
5399,note_on,,29,0,10,,,,,,,,,,,,,,,,7,,58,0
5399,note_on,,29,0,8,,,,,,,,,,,,,,,,5,,69,0
5399,note_on,,29,0,9,,,,,,,,,,,,,,,,6,,65,0
5399,note_on,,29,0,12,,,,,,,,,,,,,,,,10,,69,0
5399,note_on,,59,0,16,,,,,,,,,,,,,,,,15,,53,0
5399,note_on,,29,0,5,,,,,,,,,,,,,,,,0,,69,0
5399,note_on,,29,0,6,,,,,,,,,,,,,,,,1,,65,0
5399,note_on,,59,0,7,,,,,,,,,,,,,,,,2,,53,0
5399,note_on,,29,0,11,,,,,,,,,,,,,,,,8,,55,0
5400,note_on,,1,0,13,,,,,,,,,,,,,,,,11,,72,72
5400,note_on,,1,0,11,,,,,,,,,,,,,,,,8,,57,72
5400,note_on,,1,0,9,,,,,,,,,,,,,,,,6,,65,72
5400,note_on,,1,0,14,,,,,,,,,,,,,,,,12,,69,72
5400,note_on,,1,0,8,,,,,,,,,,,,,,,,5,,69,72
5400,note_on,,1,0,16,,,,,,,,,,,,,,,,15,,53,72
5400,note_on,,1,0,10,,,,,,,,,,,,,,,,7,,60,72
5400,note_on,,1,0,7,,,,,,,,,,,,,,,,2,,53,72
5400,note_on,,1,0,5,,,,,,,,,,,,,,,,0,,69,72
5400,note_on,,1,0,12,,,,,,,,,,,,,,,,10,,69,72
5400,note_on,,1,0,6,,,,,,,,,,,,,,,,1,,65,72
5400,note_on,,1,0,15,,,,,,,,,,,,,,,,13,,53,72
5429,note_on,,29,0,11,,,,,,,,,,,,,,,,8,,57,0
5429,note_on,,29,0,13,,,,,,,,,,,,,,,,11,,72,0
5429,note_on,,29,0,14,,,,,,,,,,,,,,,,12,,69,0
5429,note_on,,29,0,10,,,,,,,,,,,,,,,,7,,60,0
5430,note_on,,1,0,11,,,,,,,,,,,,,,,,8,,58,72
5430,note_on,,1,0,13,,,,,,,,,,,,,,,,11,,72,72
5430,note_on,,1,0,10,,,,,,,,,,,,,,,,7,,60,72
5430,note_on,,1,0,14,,,,,,,,,,,,,,,,12,,70,72
5459,note_on,,29,0,11,,,,,,,,,,,,,,,,8,,58,0
5459,note_on,,59,0,6,,,,,,,,,,,,,,,,1,,65,0
5459,note_on,,29,0,14,,,,,,,,,,,,,,,,12,,70,0
5459,note_on,,59,0,12,,,,,,,,,,,,,,,,10,,69,0
5459,note_on,,59,0,9,,,,,,,,,,,,,,,,6,,65,0
5459,note_on,,59,0,5,,,,,,,,,,,,,,,,0,,69,0
5459,note_on,,29,0,10,,,,,,,,,,,,,,,,7,,60,0
5459,note_on,,59,0,16,,,,,,,,,,,,,,,,15,,53,0
5459,note_on,,59,0,15,,,,,,,,,,,,,,,,13,,53,0
5459,note_on,,29,0,13,,,,,,,,,,,,,,,,11,,72,0
5459,note_on,,59,0,7,,,,,,,,,,,,,,,,2,,53,0
5459,note_on,,59,0,8,,,,,,,,,,,,,,,,5,,69,0
5460,note_on,,1,0,16,,,,,,,,,,,,,,,,15,,53,72
5460,note_on,,1,0,6,,,,,,,,,,,,,,,,1,,65,72
5460,note_on,,1,0,15,,,,,,,,,,,,,,,,13,,53,72
5460,note_on,,1,0,10,,,,,,,,,,,,,,,,7,,62,72
5460,note_on,,1,0,12,,,,,,,,,,,,,,,,10,,69,72
5460,note_on,,1,0,7,,,,,,,,,,,,,,,,2,,53,72
5460,note_on,,1,0,13,,,,,,,,,,,,,,,,11,,74,72
5460,note_on,,1,0,9,,,,,,,,,,,,,,,,6,,65,72
5460,note_on,,1,0,14,,,,,,,,,,,,,,,,12,,69,72
5460,note_on,,1,0,8,,,,,,,,,,,,,,,,5,,69,72
5460,note_on,,1,0,5,,,,,,,,,,,,,,,,0,,69,72
5460,note_on,,1,0,11,,,,,,,,,,,,,,,,8,,57,72
5489,note_on,,29,0,13,,,,,,,,,,,,,,,,11,,74,0
5489,note_on,,29,0,14,,,,,,,,,,,,,,,,12,,69,0
5489,note_on,,29,0,10,,,,,,,,,,,,,,,,7,,62,0
5489,note_on,,29,0,11,,,,,,,,,,,,,,,,8,,57,0
5490,note_on,,1,0,11,,,,,,,,,,,,,,,,8,,58,72
5490,note_on,,1,0,14,,,,,,,,,,,,,,,,12,,70,72
5490,note_on,,1,0,10,,,,,,,,,,,,,,,,7,,64,72
5490,note_on,,1,0,13,,,,,,,,,,,,,,,,11,,76,72
5519,note_on,,29,0,14,,,,,,,,,,,,,,,,12,,70,0
5519,note_on,,59,0,6,,,,,,,,,,,,,,,,1,,65,0
5519,note_on,,59,0,8,,,,,,,,,,,,,,,,5,,69,0
5519,note_on,,29,0,11,,,,,,,,,,,,,,,,8,,58,0
5519,note_on,,59,0,16,,,,,,,,,,,,,,,,15,,69,0
5519,note_on,,0,0,16,,,,,,,,,,,,,,,,15,,65,0
5519,note_on,,0,0,16,,,,,,,,,,,,,,,,15,,60,0
5519,note_on,,29,0,13,,,,,,,,,,,,,,,,11,,76,0
5519,note_on,,29,0,10,,,,,,,,,,,,,,,,7,,64,0
5519,note_on,,0,0,16,,,,,,,,,,,,,,,,15,,53,0
5519,note_on,,59,0,7,,,,,,,,,,,,,,,,2,,53,0
5519,note_on,,59,0,5,,,,,,,,,,,,,,,,0,,69,0
5519,note_on,,59,0,15,,,,,,,,,,,,,,,,13,,53,0
5519,note_on,,59,0,12,,,,,,,,,,,,,,,,10,,69,0
5519,note_on,,59,0,9,,,,,,,,,,,,,,,,6,,65,0
5520,note_on,,1,0,6,,,,,,,,,,,,,,,,1,,65,72
5520,note_on,,1,0,8,,,,,,,,,,,,,,,,5,,69,72
5520,note_on,,1,0,10,,,,,,,,,,,,,,,,7,,65,72
5520,note_on,,1,0,13,,,,,,,,,,,,,,,,11,,77,72
5520,note_on,,1,0,5,,,,,,,,,,,,,,,,0,,69,72
5520,note_on,,1,0,7,,,,,,,,,,,,,,,,2,,53,72
5520,note_on,,1,0,12,,,,,,,,,,,,,,,,10,,69,72
5520,note_on,,1,0,14,,,,,,,,,,,,,,,,12,,72,72
5520,note_on,,1,0,9,,,,,,,,,,,,,,,,6,,65,72
5520,note_on,,1,0,11,,,,,,,,,,,,,,,,8,,60,72
5520,note_on,,0,0,16,,,,,,,,,,,,,,,,15,,65,72
5520,note_on,,1,0,15,,,,,,,,,,,,,,,,13,,53,72
5520,note_on,,0,0,16,,,,,,,,,,,,,,,,15,,72,72
5520,note_on,,1,0,16,,,,,,,,,,,,,,,,15,,53,72
5520,note_on,,0,0,16,,,,,,,,,,,,,,,,15,,69,72
5520,note_on,,0,0,16,,,,,,,,,,,,,,,,15,,60,72
5549,note_on,,29,0,5,,,,,,,,,,,,,,,,0,,69,0
5549,note_on,,29,0,12,,,,,,,,,,,,,,,,10,,69,0
5549,note_on,,29,0,9,,,,,,,,,,,,,,,,6,,65,0
5549,note_on,,29,0,6,,,,,,,,,,,,,,,,1,,65,0
5549,note_on,,29,0,8,,,,,,,,,,,,,,,,5,,69,0
5550,note_on,,1,0,6,,,,,,,,,,,,,,,,1,,67,72
5550,note_on,,1,0,9,,,,,,,,,,,,,,,,6,,67,72
5550,note_on,,1,0,5,,,,,,,,,,,,,,,,0,,70,72
5550,note_on,,1,0,8,,,,,,,,,,,,,,,,5,,70,72
5550,note_on,,1,0,12,,,,,,,,,,,,,,,,10,,70,72
5579,note_on,,29,0,9,,,,,,,,,,,,,,,,6,,67,0
5579,note_on,,29,0,12,,,,,,,,,,,,,,,,10,,70,0
5579,note_on,,29,0,8,,,,,,,,,,,,,,,,5,,70,0
5579,note_on,,29,0,5,,,,,,,,,,,,,,,,0,,70,0
5579,note_on,,59,0,16,,,,,,,,,,,,,,,,15,,53,0
5579,note_on,,29,0,6,,,,,,,,,,,,,,,,1,,67,0
5579,note_on,,59,0,14,,,,,,,,,,,,,,,,12,,72,0
5579,note_on,,59,0,15,,,,,,,,,,,,,,,,13,,53,0
5579,note_on,,59,0,7,,,,,,,,,,,,,,,,2,,53,0
5580,note_on,,1,0,9,,,,,,,,,,,,,,,,6,,65,72
5580,note_on,,1,0,12,,,,,,,,,,,,,,,,10,,69,72
5580,note_on,,1,0,7,,,,,,,,,,,,,,,,2,,53,72
5580,note_on,,1,0,5,,,,,,,,,,,,,,,,0,,69,72
5580,note_on,,1,0,14,,,,,,,,,,,,,,,,12,,65,72
5580,note_on,,1,0,16,,,,,,,,,,,,,,,,15,,53,72
5580,note_on,,1,0,15,,,,,,,,,,,,,,,,13,,53,72
5580,note_on,,1,0,6,,,,,,,,,,,,,,,,1,,65,72
5580,note_on,,1,0,8,,,,,,,,,,,,,,,,5,,69,72
5609,note_on,,89,0,10,,,,,,,,,,,,,,,,7,,65,0
5609,note_on,,29,0,14,,,,,,,,,,,,,,,,12,,65,0
5609,note_on,,29,0,12,,,,,,,,,,,,,,,,10,,69,0
5609,note_on,,29,0,8,,,,,,,,,,,,,,,,5,,69,0
5609,note_on,,89,0,13,,,,,,,,,,,,,,,,11,,77,0
5609,note_on,,29,0,5,,,,,,,,,,,,,,,,0,,69,0
5609,note_on,,89,0,11,,,,,,,,,,,,,,,,8,,60,0
5609,note_on,,29,0,6,,,,,,,,,,,,,,,,1,,65,0
5609,note_on,,29,0,9,,,,,,,,,,,,,,,,6,,65,0
5610,note_on,,1,0,10,,,,,,,,,,,,,,,,7,,60,72
5610,note_on,,1,0,13,,,,,,,,,,,,,,,,11,,72,72
5610,note_on,,1,0,5,,,,,,,,,,,,,,,,0,,70,72
5610,note_on,,1,0,12,,,,,,,,,,,,,,,,10,,70,72
5610,note_on,,1,0,14,,,,,,,,,,,,,,,,12,,67,72
5610,note_on,,1,0,9,,,,,,,,,,,,,,,,6,,67,72
5610,note_on,,1,0,6,,,,,,,,,,,,,,,,1,,67,72
5610,note_on,,1,0,8,,,,,,,,,,,,,,,,5,,70,72
5610,note_on,,1,0,11,,,,,,,,,,,,,,,,8,,53,72
5639,note_on,,29,0,14,,,,,,,,,,,,,,,,12,,67,0
5639,note_on,,29,0,9,,,,,,,,,,,,,,,,6,,67,0
5639,note_on,,59,0,16,,,,,,,,,,,,,,,,15,,53,0
5639,note_on,,29,0,10,,,,,,,,,,,,,,,,7,,60,0
5639,note_on,,29,0,6,,,,,,,,,,,,,,,,1,,67,0
5639,note_on,,59,0,7,,,,,,,,,,,,,,,,2,,53,0
5639,note_on,,29,0,11,,,,,,,,,,,,,,,,8,,53,0
5639,note_on,,29,0,5,,,,,,,,,,,,,,,,0,,70,0
5639,note_on,,29,0,13,,,,,,,,,,,,,,,,11,,72,0
5639,note_on,,29,0,8,,,,,,,,,,,,,,,,5,,70,0
5639,note_on,,59,0,15,,,,,,,,,,,,,,,,13,,53,0
5639,note_on,,29,0,12,,,,,,,,,,,,,,,,10,,70,0
5640,note_on,,1,0,8,,,,,,,,,,,,,,,,5,,72,72
5640,note_on,,1,0,10,,,,,,,,,,,,,,,,7,,60,72
5640,note_on,,1,0,6,,,,,,,,,,,,,,,,1,,69,72
5640,note_on,,1,0,7,,,,,,,,,,,,,,,,2,,53,72
5640,note_on,,1,0,15,,,,,,,,,,,,,,,,13,,53,72
5640,note_on,,1,0,16,,,,,,,,,,,,,,,,15,,53,72
5640,note_on,,1,0,11,,,,,,,,,,,,,,,,8,,53,72
5640,note_on,,1,0,12,,,,,,,,,,,,,,,,10,,72,72
5640,note_on,,1,0,13,,,,,,,,,,,,,,,,11,,72,72
5640,note_on,,1,0,14,,,,,,,,,,,,,,,,12,,69,72
5640,note_on,,1,0,9,,,,,,,,,,,,,,,,6,,69,72
5640,note_on,,1,0,5,,,,,,,,,,,,,,,,0,,72,72
5669,note_on,,29,0,9,,,,,,,,,,,,,,,,6,,69,0
5669,note_on,,29,0,8,,,,,,,,,,,,,,,,5,,72,0
5669,note_on,,29,0,6,,,,,,,,,,,,,,,,1,,69,0
5669,note_on,,29,0,14,,,,,,,,,,,,,,,,12,,69,0
5669,note_on,,29,0,5,,,,,,,,,,,,,,,,0,,72,0
5669,note_on,,29,0,12,,,,,,,,,,,,,,,,10,,72,0
5670,note_on,,1,0,5,,,,,,,,,,,,,,,,0,,72,72
5670,note_on,,1,0,6,,,,,,,,,,,,,,,,1,,70,72
5670,note_on,,1,0,12,,,,,,,,,,,,,,,,10,,72,72
5670,note_on,,1,0,14,,,,,,,,,,,,,,,,12,,70,72
5670,note_on,,1,0,8,,,,,,,,,,,,,,,,5,,72,72
5670,note_on,,1,0,9,,,,,,,,,,,,,,,,6,,70,72
5699,note_on,,59,0,16,,,,,,,,,,,,,,,,15,,53,0
5699,note_on,,29,0,9,,,,,,,,,,,,,,,,6,,70,0
5699,note_on,,59,0,15,,,,,,,,,,,,,,,,13,,53,0
5699,note_on,,29,0,6,,,,,,,,,,,,,,,,1,,70,0
5699,note_on,,29,0,14,,,,,,,,,,,,,,,,12,,70,0
5699,note_on,,59,0,11,,,,,,,,,,,,,,,,8,,53,0
5699,note_on,,29,0,12,,,,,,,,,,,,,,,,10,,72,0
5699,note_on,,59,0,10,,,,,,,,,,,,,,,,7,,60,0
5699,note_on,,29,0,5,,,,,,,,,,,,,,,,0,,72,0
5699,note_on,,29,0,8,,,,,,,,,,,,,,,,5,,72,0
5699,note_on,,59,0,7,,,,,,,,,,,,,,,,2,,53,0
5699,note_on,,59,0,13,,,,,,,,,,,,,,,,11,,72,0
5700,note_on,,1,0,5,,,,,,,,,,,,,,,,0,,74,72
5700,note_on,,1,0,8,,,,,,,,,,,,,,,,5,,74,72
5700,note_on,,1,0,9,,,,,,,,,,,,,,,,6,,69,72
5700,note_on,,1,0,13,,,,,,,,,,,,,,,,11,,72,72
5700,note_on,,1,0,14,,,,,,,,,,,,,,,,12,,69,72
5700,note_on,,1,0,16,,,,,,,,,,,,,,,,15,,53,72
5700,note_on,,1,0,12,,,,,,,,,,,,,,,,10,,74,72
5700,note_on,,1,0,15,,,,,,,,,,,,,,,,13,,53,72
5700,note_on,,1,0,6,,,,,,,,,,,,,,,,1,,69,72
5700,note_on,,1,0,10,,,,,,,,,,,,,,,,7,,60,72
5700,note_on,,1,0,7,,,,,,,,,,,,,,,,2,,53,72
5700,note_on,,1,0,11,,,,,,,,,,,,,,,,8,,53,72
5729,note_on,,29,0,9,,,,,,,,,,,,,,,,6,,69,0
5729,note_on,,29,0,14,,,,,,,,,,,,,,,,12,,69,0
5729,note_on,,29,0,8,,,,,,,,,,,,,,,,5,,74,0
5729,note_on,,29,0,5,,,,,,,,,,,,,,,,0,,74,0
5729,note_on,,29,0,12,,,,,,,,,,,,,,,,10,,74,0
5729,note_on,,29,0,6,,,,,,,,,,,,,,,,1,,69,0
5730,note_on,,1,0,9,,,,,,,,,,,,,,,,6,,67,72
5730,note_on,,1,0,8,,,,,,,,,,,,,,,,5,,76,72
5730,note_on,,1,0,5,,,,,,,,,,,,,,,,0,,76,72
5730,note_on,,1,0,12,,,,,,,,,,,,,,,,10,,76,72
5730,note_on,,1,0,14,,,,,,,,,,,,,,,,12,,67,72
5730,note_on,,1,0,6,,,,,,,,,,,,,,,,1,,67,72
5759,note_on,,29,0,8,,,,,,,,,,,,,,,,5,,76,0
5759,note_on,,59,0,11,,,,,,,,,,,,,,,,8,,53,0
5759,note_on,,29,0,9,,,,,,,,,,,,,,,,6,,67,0
5759,note_on,,59,0,16,,,,,,,,,,,,,,,,15,,72,0
5759,note_on,,59,0,7,,,,,,,,,,,,,,,,2,,53,0
5759,note_on,,29,0,12,,,,,,,,,,,,,,,,10,,76,0
5759,note_on,,29,0,5,,,,,,,,,,,,,,,,0,,76,0
5759,note_on,,59,0,10,,,,,,,,,,,,,,,,7,,60,0
5759,note_on,,59,0,13,,,,,,,,,,,,,,,,11,,72,0
5759,note_on,,29,0,6,,,,,,,,,,,,,,,,1,,67,0
5759,note_on,,29,0,14,,,,,,,,,,,,,,,,12,,67,0
5759,note_on,,0,0,16,,,,,,,,,,,,,,,,15,,69,0
5759,note_on,,0,0,16,,,,,,,,,,,,,,,,15,,53,0
5759,note_on,,0,0,16,,,,,,,,,,,,,,,,15,,60,0
5759,note_on,,0,0,16,,,,,,,,,,,,,,,,15,,65,0
5759,note_on,,59,0,15,,,,,,,,,,,,,,,,13,,53,0
5760,note_on,,1,0,7,,,,,,,,,,,,,,,,2,,53,72
5760,note_on,,0,0,16,,,,,,,,,,,,,,,,15,,57,72
5760,note_on,,0,0,16,,,,,,,,,,,,,,,,15,,65,72
5760,note_on,,0,0,16,,,,,,,,,,,,,,,,15,,72,72
5760,note_on,,1,0,12,,,,,,,,,,,,,,,,10,,77,72
5760,note_on,,1,0,11,,,,,,,,,,,,,,,,8,,53,72
5760,note_on,,1,0,5,,,,,,,,,,,,,,,,0,,77,72
5760,note_on,,0,0,16,,,,,,,,,,,,,,,,15,,77,72
5760,note_on,,1,0,16,,,,,,,,,,,,,,,,15,,53,72
5760,note_on,,1,0,6,,,,,,,,,,,,,,,,1,,69,72
5760,note_on,,1,0,10,,,,,,,,,,,,,,,,7,,57,72
5760,note_on,,1,0,9,,,,,,,,,,,,,,,,6,,69,72
5760,note_on,,1,0,15,,,,,,,,,,,,,,,,13,,53,72
5760,note_on,,1,0,13,,,,,,,,,,,,,,,,11,,69,72
5760,note_on,,1,0,14,,,,,,,,,,,,,,,,12,,65,72
5760,note_on,,1,0,8,,,,,,,,,,,,,,,,5,,77,72
5789,note_on,,29,0,10,,,,,,,,,,,,,,,,7,,57,0
5789,note_on,,29,0,13,,,,,,,,,,,,,,,,11,,69,0
5789,note_on,,29,0,14,,,,,,,,,,,,,,,,12,,65,0
5789,note_on,,29,0,11,,,,,,,,,,,,,,,,8,,53,0
5790,note_on,,1,0,13,,,,,,,,,,,,,,,,11,,70,72
5790,note_on,,1,0,10,,,,,,,,,,,,,,,,7,,58,72
5790,note_on,,1,0,11,,,,,,,,,,,,,,,,8,,55,72
5790,note_on,,1,0,14,,,,,,,,,,,,,,,,12,,67,72
5819,note_on,,29,0,14,,,,,,,,,,,,,,,,12,,67,0
5819,note_on,,29,0,13,,,,,,,,,,,,,,,,11,,70,0
5819,note_on,,59,0,16,,,,,,,,,,,,,,,,15,,53,0
5819,note_on,,29,0,10,,,,,,,,,,,,,,,,7,,58,0
5819,note_on,,59,0,7,,,,,,,,,,,,,,,,2,,53,0
5819,note_on,,59,0,15,,,,,,,,,,,,,,,,13,,53,0
5819,note_on,,29,0,11,,,,,,,,,,,,,,,,8,,55,0
5820,note_on,,1,0,13,,,,,,,,,,,,,,,,11,,69,72
5820,note_on,,1,0,7,,,,,,,,,,,,,,,,2,,53,72
5820,note_on,,1,0,10,,,,,,,,,,,,,,,,7,,57,72
5820,note_on,,1,0,16,,,,,,,,,,,,,,,,15,,53,72
5820,note_on,,1,0,14,,,,,,,,,,,,,,,,12,,65,72
5820,note_on,,1,0,15,,,,,,,,,,,,,,,,13,,53,72
5820,note_on,,1,0,11,,,,,,,,,,,,,,,,8,,53,72
5849,note_on,,89,0,12,,,,,,,,,,,,,,,,10,,77,0
5849,note_on,,89,0,9,,,,,,,,,,,,,,,,6,,69,0
5849,note_on,,29,0,11,,,,,,,,,,,,,,,,8,,53,0
5849,note_on,,29,0,13,,,,,,,,,,,,,,,,11,,69,0
5849,note_on,,89,0,5,,,,,,,,,,,,,,,,0,,77,0
5849,note_on,,89,0,6,,,,,,,,,,,,,,,,1,,69,0
5849,note_on,,29,0,10,,,,,,,,,,,,,,,,7,,57,0
5849,note_on,,89,0,8,,,,,,,,,,,,,,,,5,,77,0
5849,note_on,,29,0,14,,,,,,,,,,,,,,,,12,,65,0
5850,note_on,,1,0,12,,,,,,,,,,,,,,,,10,,72,72
5850,note_on,,1,0,11,,,,,,,,,,,,,,,,8,,55,72
5850,note_on,,1,0,5,,,,,,,,,,,,,,,,0,,72,72
5850,note_on,,1,0,8,,,,,,,,,,,,,,,,5,,72,72
5850,note_on,,1,0,9,,,,,,,,,,,,,,,,6,,69,72
5850,note_on,,1,0,13,,,,,,,,,,,,,,,,11,,70,72
5850,note_on,,1,0,6,,,,,,,,,,,,,,,,1,,69,72
5850,note_on,,1,0,14,,,,,,,,,,,,,,,,12,,67,72
5850,note_on,,1,0,10,,,,,,,,,,,,,,,,7,,58,72
5879,note_on,,29,0,10,,,,,,,,,,,,,,,,7,,58,0
5879,note_on,,29,0,13,,,,,,,,,,,,,,,,11,,70,0
5879,note_on,,29,0,11,,,,,,,,,,,,,,,,8,,55,0
5879,note_on,,29,0,5,,,,,,,,,,,,,,,,0,,72,0
5879,note_on,,29,0,6,,,,,,,,,,,,,,,,1,,69,0
5879,note_on,,29,0,12,,,,,,,,,,,,,,,,10,,72,0
5879,note_on,,59,0,7,,,,,,,,,,,,,,,,2,,53,0
5879,note_on,,29,0,8,,,,,,,,,,,,,,,,5,,72,0
5879,note_on,,29,0,14,,,,,,,,,,,,,,,,12,,67,0
5879,note_on,,29,0,9,,,,,,,,,,,,,,,,6,,69,0
5879,note_on,,59,0,16,,,,,,,,,,,,,,,,15,,53,0
5879,note_on,,59,0,15,,,,,,,,,,,,,,,,13,,53,0
5880,note_on,,1,0,8,,,,,,,,,,,,,,,,5,,72,72
5880,note_on,,1,0,5,,,,,,,,,,,,,,,,0,,72,72
5880,note_on,,1,0,13,,,,,,,,,,,,,,,,11,,72,72
5880,note_on,,1,0,14,,,,,,,,,,,,,,,,12,,69,72
5880,note_on,,1,0,12,,,,,,,,,,,,,,,,10,,72,72
5880,note_on,,1,0,16,,,,,,,,,,,,,,,,15,,53,72
5880,note_on,,1,0,10,,,,,,,,,,,,,,,,7,,60,72
5880,note_on,,1,0,6,,,,,,,,,,,,,,,,1,,69,72
5880,note_on,,1,0,7,,,,,,,,,,,,,,,,2,,53,72
5880,note_on,,1,0,11,,,,,,,,,,,,,,,,8,,57,72
5880,note_on,,1,0,9,,,,,,,,,,,,,,,,6,,69,72
5880,note_on,,1,0,15,,,,,,,,,,,,,,,,13,,53,72
5909,note_on,,29,0,10,,,,,,,,,,,,,,,,7,,60,0
5909,note_on,,29,0,11,,,,,,,,,,,,,,,,8,,57,0
5909,note_on,,29,0,13,,,,,,,,,,,,,,,,11,,72,0
5909,note_on,,29,0,14,,,,,,,,,,,,,,,,12,,69,0
5910,note_on,,1,0,10,,,,,,,,,,,,,,,,7,,60,72
5910,note_on,,1,0,13,,,,,,,,,,,,,,,,11,,72,72
5910,note_on,,1,0,14,,,,,,,,,,,,,,,,12,,70,72
5910,note_on,,1,0,11,,,,,,,,,,,,,,,,8,,58,72
5939,note_on,,29,0,13,,,,,,,,,,,,,,,,11,,72,0
5939,note_on,,59,0,15,,,,,,,,,,,,,,,,13,,53,0
5939,note_on,,59,0,16,,,,,,,,,,,,,,,,15,,53,0
5939,note_on,,29,0,14,,,,,,,,,,,,,,,,12,,70,0
5939,note_on,,59,0,12,,,,,,,,,,,,,,,,10,,72,0
5939,note_on,,29,0,10,,,,,,,,,,,,,,,,7,,60,0
5939,note_on,,59,0,7,,,,,,,,,,,,,,,,2,,53,0
5939,note_on,,59,0,8,,,,,,,,,,,,,,,,5,,72,0
5939,note_on,,29,0,11,,,,,,,,,,,,,,,,8,,58,0
5939,note_on,,59,0,5,,,,,,,,,,,,,,,,0,,72,0
5939,note_on,,59,0,6,,,,,,,,,,,,,,,,1,,69,0
5939,note_on,,59,0,9,,,,,,,,,,,,,,,,6,,69,0
5940,note_on,,1,0,12,,,,,,,,,,,,,,,,10,,72,72
5940,note_on,,1,0,6,,,,,,,,,,,,,,,,1,,69,72
5940,note_on,,1,0,5,,,,,,,,,,,,,,,,0,,72,72
5940,note_on,,1,0,7,,,,,,,,,,,,,,,,2,,53,72
5940,note_on,,1,0,16,,,,,,,,,,,,,,,,15,,53,72
5940,note_on,,1,0,9,,,,,,,,,,,,,,,,6,,69,72
5940,note_on,,1,0,8,,,,,,,,,,,,,,,,5,,72,72
5940,note_on,,1,0,11,,,,,,,,,,,,,,,,8,,57,72
5940,note_on,,1,0,10,,,,,,,,,,,,,,,,7,,62,72
5940,note_on,,1,0,14,,,,,,,,,,,,,,,,12,,69,72
5940,note_on,,1,0,13,,,,,,,,,,,,,,,,11,,74,72
5940,note_on,,1,0,15,,,,,,,,,,,,,,,,13,,53,72
5969,note_on,,29,0,10,,,,,,,,,,,,,,,,7,,62,0
5969,note_on,,29,0,13,,,,,,,,,,,,,,,,11,,74,0
5969,note_on,,29,0,11,,,,,,,,,,,,,,,,8,,57,0
5969,note_on,,29,0,14,,,,,,,,,,,,,,,,12,,69,0
5970,note_on,,1,0,11,,,,,,,,,,,,,,,,8,,55,72
5970,note_on,,1,0,10,,,,,,,,,,,,,,,,7,,64,72
5970,note_on,,1,0,14,,,,,,,,,,,,,,,,12,,67,72
5970,note_on,,1,0,13,,,,,,,,,,,,,,,,11,,76,72
5999,note_on,,59,0,6,,,,,,,,,,,,,,,,1,,69,0
5999,note_on,,29,0,14,,,,,,,,,,,,,,,,12,,67,0
5999,note_on,,59,0,12,,,,,,,,,,,,,,,,10,,72,0
5999,note_on,,29,0,13,,,,,,,,,,,,,,,,11,,76,0
5999,note_on,,59,0,5,,,,,,,,,,,,,,,,0,,72,0
5999,note_on,,0,0,16,,,,,,,,,,,,,,,,15,,72,0
5999,note_on,,0,0,16,,,,,,,,,,,,,,,,15,,65,0
5999,note_on,,59,0,8,,,,,,,,,,,,,,,,5,,72,0
5999,note_on,,59,0,15,,,,,,,,,,,,,,,,13,,53,0
5999,note_on,,0,0,16,,,,,,,,,,,,,,,,15,,57,0
5999,note_on,,29,0,10,,,,,,,,,,,,,,,,7,,64,0
5999,note_on,,59,0,7,,,,,,,,,,,,,,,,2,,53,0
5999,note_on,,0,0,16,,,,,,,,,,,,,,,,15,,53,0
5999,note_on,,29,0,11,,,,,,,,,,,,,,,,8,,55,0
5999,note_on,,59,0,16,,,,,,,,,,,,,,,,15,,77,0
5999,note_on,,59,0,9,,,,,,,,,,,,,,,,6,,69,0
6000,note_on,,1,0,15,,,,,,,,,,,,,,,,13,,53,72
6000,note_on,,1,0,16,,,,,,,,,,,,,,,,15,,53,72
6000,note_on,,0,0,16,,,,,,,,,,,,,,,,15,,60,72
6000,note_on,,0,0,16,,,,,,,,,,,,,,,,15,,81,72
6000,note_on,,1,0,11,,,,,,,,,,,,,,,,8,,53,72
6000,note_on,,0,0,16,,,,,,,,,,,,,,,,15,,72,72
6000,note_on,,1,0,6,,,,,,,,,,,,,,,,1,,69,72
6000,note_on,,1,0,14,,,,,,,,,,,,,,,,12,,72,72
6000,note_on,,1,0,7,,,,,,,,,,,,,,,,2,,53,72
6000,note_on,,1,0,10,,,,,,,,,,,,,,,,7,,65,72
6000,note_on,,1,0,8,,,,,,,,,,,,,,,,5,,69,72
6000,note_on,,1,0,12,,,,,,,,,,,,,,,,10,,69,72
6000,note_on,,0,0,16,,,,,,,,,,,,,,,,15,,77,72
6000,note_on,,1,0,13,,,,,,,,,,,,,,,,11,,77,72
6000,note_on,,1,0,5,,,,,,,,,,,,,,,,0,,69,72
6000,note_on,,1,0,9,,,,,,,,,,,,,,,,6,,60,72
6029,note_on,,29,0,5,,,,,,,,,,,,,,,,0,,69,0
6029,note_on,,29,0,6,,,,,,,,,,,,,,,,1,,69,0
6029,note_on,,29,0,8,,,,,,,,,,,,,,,,5,,69,0
6029,note_on,,29,0,12,,,,,,,,,,,,,,,,10,,69,0
6029,note_on,,29,0,11,,,,,,,,,,,,,,,,8,,53,0
6029,note_on,,29,0,15,,,,,,,,,,,,,,,,13,,53,0
6029,note_on,,29,0,7,,,,,,,,,,,,,,,,2,,53,0
6029,note_on,,29,0,16,,,,,,,,,,,,,,,,15,,53,0
6030,note_on,,1,0,11,,,,,,,,,,,,,,,,8,,55,72
6030,note_on,,1,0,6,,,,,,,,,,,,,,,,1,,70,72
6030,note_on,,1,0,8,,,,,,,,,,,,,,,,5,,70,72
6030,note_on,,1,0,12,,,,,,,,,,,,,,,,10,,70,72
6030,note_on,,1,0,16,,,,,,,,,,,,,,,,15,,55,72
6030,note_on,,1,0,15,,,,,,,,,,,,,,,,13,,55,72
6030,note_on,,1,0,5,,,,,,,,,,,,,,,,0,,70,72
6030,note_on,,1,0,7,,,,,,,,,,,,,,,,2,,55,72
6059,note_on,,59,0,10,,,,,,,,,,,,,,,,7,,65,0
6059,note_on,,29,0,15,,,,,,,,,,,,,,,,13,,55,0
6059,note_on,,29,0,5,,,,,,,,,,,,,,,,0,,70,0
6059,note_on,,29,0,6,,,,,,,,,,,,,,,,1,,70,0
6059,note_on,,29,0,12,,,,,,,,,,,,,,,,10,,70,0
6059,note_on,,59,0,14,,,,,,,,,,,,,,,,12,,72,0
6059,note_on,,29,0,8,,,,,,,,,,,,,,,,5,,70,0
6059,note_on,,29,0,7,,,,,,,,,,,,,,,,2,,55,0
6059,note_on,,29,0,16,,,,,,,,,,,,,,,,15,,55,0
6059,note_on,,29,0,11,,,,,,,,,,,,,,,,8,,55,0
6059,note_on,,59,0,13,,,,,,,,,,,,,,,,11,,77,0
6059,note_on,,59,0,9,,,,,,,,,,,,,,,,6,,60,0
6060,note_on,,1,0,14,,,,,,,,,,,,,,,,12,,60,72
6060,note_on,,1,0,8,,,,,,,,,,,,,,,,5,,69,72
6060,note_on,,1,0,6,,,,,,,,,,,,,,,,1,,69,72
6060,note_on,,1,0,12,,,,,,,,,,,,,,,,10,,69,72
6060,note_on,,1,0,13,,,,,,,,,,,,,,,,11,,65,72
6060,note_on,,1,0,16,,,,,,,,,,,,,,,,15,,53,72
6060,note_on,,1,0,11,,,,,,,,,,,,,,,,8,,53,72
6060,note_on,,1,0,7,,,,,,,,,,,,,,,,2,,53,72
6060,note_on,,1,0,9,,,,,,,,,,,,,,,,6,,60,72
6060,note_on,,1,0,10,,,,,,,,,,,,,,,,7,,65,72
6060,note_on,,1,0,15,,,,,,,,,,,,,,,,13,,53,72
6060,note_on,,1,0,5,,,,,,,,,,,,,,,,0,,69,72
6089,note_on,,29,0,15,,,,,,,,,,,,,,,,13,,53,0
6089,note_on,,29,0,14,,,,,,,,,,,,,,,,12,,60,0
6089,note_on,,29,0,7,,,,,,,,,,,,,,,,2,,53,0
6089,note_on,,29,0,16,,,,,,,,,,,,,,,,15,,53,0
6089,note_on,,29,0,10,,,,,,,,,,,,,,,,7,,65,0
6089,note_on,,29,0,13,,,,,,,,,,,,,,,,11,,65,0
6089,note_on,,29,0,8,,,,,,,,,,,,,,,,5,,69,0
6089,note_on,,29,0,6,,,,,,,,,,,,,,,,1,,69,0
6089,note_on,,29,0,12,,,,,,,,,,,,,,,,10,,69,0
6089,note_on,,29,0,11,,,,,,,,,,,,,,,,8,,53,0
6089,note_on,,29,0,9,,,,,,,,,,,,,,,,6,,60,0
6089,note_on,,29,0,5,,,,,,,,,,,,,,,,0,,69,0
6090,note_on,,1,0,16,,,,,,,,,,,,,,,,15,,55,72
6090,note_on,,1,0,13,,,,,,,,,,,,,,,,11,,65,72
6090,note_on,,1,0,8,,,,,,,,,,,,,,,,5,,70,72
6090,note_on,,1,0,14,,,,,,,,,,,,,,,,12,,60,72
6090,note_on,,1,0,11,,,,,,,,,,,,,,,,8,,55,72
6090,note_on,,1,0,9,,,,,,,,,,,,,,,,6,,60,72
6090,note_on,,1,0,5,,,,,,,,,,,,,,,,0,,70,72
6090,note_on,,1,0,15,,,,,,,,,,,,,,,,13,,55,72
6090,note_on,,1,0,6,,,,,,,,,,,,,,,,1,,70,72
6090,note_on,,1,0,10,,,,,,,,,,,,,,,,7,,65,72
6090,note_on,,1,0,7,,,,,,,,,,,,,,,,2,,55,72
6090,note_on,,1,0,12,,,,,,,,,,,,,,,,10,,70,72
6119,note_on,,29,0,15,,,,,,,,,,,,,,,,13,,55,0
6119,note_on,,29,0,12,,,,,,,,,,,,,,,,10,,70,0
6119,note_on,,29,0,13,,,,,,,,,,,,,,,,11,,65,0
6119,note_on,,29,0,10,,,,,,,,,,,,,,,,7,,65,0
6119,note_on,,29,0,16,,,,,,,,,,,,,,,,15,,55,0
6119,note_on,,29,0,7,,,,,,,,,,,,,,,,2,,55,0
6119,note_on,,29,0,9,,,,,,,,,,,,,,,,6,,60,0
6119,note_on,,29,0,6,,,,,,,,,,,,,,,,1,,70,0
6119,note_on,,29,0,14,,,,,,,,,,,,,,,,12,,60,0
6119,note_on,,29,0,11,,,,,,,,,,,,,,,,8,,55,0
6119,note_on,,29,0,8,,,,,,,,,,,,,,,,5,,70,0
6119,note_on,,29,0,5,,,,,,,,,,,,,,,,0,,70,0
6120,note_on,,1,0,9,,,,,,,,,,,,,,,,6,,65,72
6120,note_on,,1,0,7,,,,,,,,,,,,,,,,2,,57,72
6120,note_on,,1,0,10,,,,,,,,,,,,,,,,7,,65,72
6120,note_on,,1,0,14,,,,,,,,,,,,,,,,12,,60,72
6120,note_on,,1,0,15,,,,,,,,,,,,,,,,13,,57,72
6120,note_on,,1,0,5,,,,,,,,,,,,,,,,0,,72,72
6120,note_on,,1,0,13,,,,,,,,,,,,,,,,11,,65,72
6120,note_on,,1,0,6,,,,,,,,,,,,,,,,1,,72,72
6120,note_on,,1,0,8,,,,,,,,,,,,,,,,5,,72,72
6120,note_on,,1,0,11,,,,,,,,,,,,,,,,8,,57,72
6120,note_on,,1,0,12,,,,,,,,,,,,,,,,10,,72,72
6120,note_on,,1,0,16,,,,,,,,,,,,,,,,15,,57,72
6149,note_on,,29,0,16,,,,,,,,,,,,,,,,15,,57,0
6149,note_on,,29,0,5,,,,,,,,,,,,,,,,0,,72,0
6149,note_on,,29,0,6,,,,,,,,,,,,,,,,1,,72,0
6149,note_on,,29,0,12,,,,,,,,,,,,,,,,10,,72,0
6149,note_on,,29,0,7,,,,,,,,,,,,,,,,2,,57,0
6149,note_on,,29,0,11,,,,,,,,,,,,,,,,8,,57,0
6149,note_on,,29,0,8,,,,,,,,,,,,,,,,5,,72,0
6149,note_on,,29,0,15,,,,,,,,,,,,,,,,13,,57,0
6150,note_on,,1,0,8,,,,,,,,,,,,,,,,5,,74,72
6150,note_on,,1,0,15,,,,,,,,,,,,,,,,13,,58,72
6150,note_on,,1,0,6,,,,,,,,,,,,,,,,1,,74,72
6150,note_on,,1,0,7,,,,,,,,,,,,,,,,2,,58,72
6150,note_on,,1,0,11,,,,,,,,,,,,,,,,8,,58,72
6150,note_on,,1,0,12,,,,,,,,,,,,,,,,10,,74,72
6150,note_on,,1,0,5,,,,,,,,,,,,,,,,0,,74,72
6150,note_on,,1,0,16,,,,,,,,,,,,,,,,15,,58,72
6179,note_on,,29,0,11,,,,,,,,,,,,,,,,8,,58,0
6179,note_on,,29,0,7,,,,,,,,,,,,,,,,2,,58,0
6179,note_on,,29,0,15,,,,,,,,,,,,,,,,13,,58,0
6179,note_on,,59,0,13,,,,,,,,,,,,,,,,11,,65,0
6179,note_on,,29,0,16,,,,,,,,,,,,,,,,15,,58,0
6179,note_on,,59,0,10,,,,,,,,,,,,,,,,7,,65,0
6179,note_on,,59,0,14,,,,,,,,,,,,,,,,12,,60,0
6179,note_on,,59,0,9,,,,,,,,,,,,,,,,6,,65,0
6179,note_on,,29,0,5,,,,,,,,,,,,,,,,0,,74,0
6179,note_on,,29,0,6,,,,,,,,,,,,,,,,1,,74,0
6179,note_on,,29,0,12,,,,,,,,,,,,,,,,10,,74,0
6179,note_on,,29,0,8,,,,,,,,,,,,,,,,5,,74,0
6180,note_on,,1,0,12,,,,,,,,,,,,,,,,10,,72,72
6180,note_on,,1,0,10,,,,,,,,,,,,,,,,7,,65,72
6180,note_on,,1,0,5,,,,,,,,,,,,,,,,0,,72,72
6180,note_on,,1,0,8,,,,,,,,,,,,,,,,5,,72,72
6180,note_on,,1,0,7,,,,,,,,,,,,,,,,2,,57,72
6180,note_on,,1,0,16,,,,,,,,,,,,,,,,15,,57,72
6180,note_on,,1,0,9,,,,,,,,,,,,,,,,6,,69,72
6180,note_on,,1,0,11,,,,,,,,,,,,,,,,8,,57,72
6180,note_on,,1,0,13,,,,,,,,,,,,,,,,11,,65,72
6180,note_on,,1,0,15,,,,,,,,,,,,,,,,13,,57,72
6180,note_on,,1,0,6,,,,,,,,,,,,,,,,1,,72,72
6180,note_on,,1,0,14,,,,,,,,,,,,,,,,12,,60,72
6209,note_on,,29,0,15,,,,,,,,,,,,,,,,13,,57,0
6209,note_on,,29,0,12,,,,,,,,,,,,,,,,10,,72,0
6209,note_on,,29,0,5,,,,,,,,,,,,,,,,0,,72,0
6209,note_on,,29,0,8,,,,,,,,,,,,,,,,5,,72,0
6209,note_on,,29,0,6,,,,,,,,,,,,,,,,1,,72,0
6209,note_on,,29,0,16,,,,,,,,,,,,,,,,15,,57,0
6209,note_on,,29,0,7,,,,,,,,,,,,,,,,2,,57,0
6209,note_on,,29,0,11,,,,,,,,,,,,,,,,8,,57,0
6210,note_on,,1,0,15,,,,,,,,,,,,,,,,13,,58,72
6210,note_on,,1,0,5,,,,,,,,,,,,,,,,0,,74,72
6210,note_on,,1,0,16,,,,,,,,,,,,,,,,15,,58,72
6210,note_on,,1,0,11,,,,,,,,,,,,,,,,8,,58,72
6210,note_on,,1,0,6,,,,,,,,,,,,,,,,1,,74,72
6210,note_on,,1,0,7,,,,,,,,,,,,,,,,2,,58,72
6210,note_on,,1,0,8,,,,,,,,,,,,,,,,5,,74,72
6210,note_on,,1,0,12,,,,,,,,,,,,,,,,10,,74,72
6239,note_on,,0,0,16,,,,,,,,,,,,,,,,15,,58,0
6239,note_on,,0,0,16,,,,,,,,,,,,,,,,15,,72,0
6239,note_on,,0,0,16,,,,,,,,,,,,,,,,15,,77,0
6239,note_on,,29,0,6,,,,,,,,,,,,,,,,1,,74,0
6239,note_on,,29,0,16,,,,,,,,,,,,,,,,15,,60,0
6239,note_on,,29,0,5,,,,,,,,,,,,,,,,0,,74,0
6239,note_on,,29,0,11,,,,,,,,,,,,,,,,8,,58,0
6239,note_on,,29,0,12,,,,,,,,,,,,,,,,10,,74,0
6239,note_on,,59,0,13,,,,,,,,,,,,,,,,11,,65,0
6239,note_on,,29,0,15,,,,,,,,,,,,,,,,13,,58,0
6239,note_on,,59,0,10,,,,,,,,,,,,,,,,7,,65,0
6239,note_on,,29,0,8,,,,,,,,,,,,,,,,5,,74,0
6239,note_on,,0,0,16,,,,,,,,,,,,,,,,15,,81,0
6239,note_on,,59,0,14,,,,,,,,,,,,,,,,12,,60,0
6239,note_on,,59,0,9,,,,,,,,,,,,,,,,6,,69,0
6239,note_on,,29,0,7,,,,,,,,,,,,,,,,2,,58,0
6240,note_on,,1,0,5,,,,,,,,,,,,,,,,0,,76,72
6240,note_on,,1,0,6,,,,,,,,,,,,,,,,1,,76,72
6240,note_on,,0,0,16,,,,,,,,,,,,,,,,15,,67,72
6240,note_on,,0,0,16,,,,,,,,,,,,,,,,15,,72,72
6240,note_on,,0,0,16,,,,,,,,,,,,,,,,15,,76,72
6240,note_on,,1,0,16,,,,,,,,,,,,,,,,15,,60,72
6240,note_on,,1,0,14,,,,,,,,,,,,,,,,12,,67,72
6240,note_on,,1,0,7,,,,,,,,,,,,,,,,2,,60,72
6240,note_on,,1,0,11,,,,,,,,,,,,,,,,8,,60,72
6240,note_on,,1,0,13,,,,,,,,,,,,,,,,11,,72,72
6240,note_on,,1,0,15,,,,,,,,,,,,,,,,13,,60,72
6240,note_on,,1,0,8,,,,,,,,,,,,,,,,5,,76,72
6240,note_on,,1,0,9,,,,,,,,,,,,,,,,6,,67,72
6240,note_on,,1,0,10,,,,,,,,,,,,,,,,7,,64,72
6240,note_on,,1,0,12,,,,,,,,,,,,,,,,10,,76,72
6269,note_on,,29,0,12,,,,,,,,,,,,,,,,10,,76,0
6269,note_on,,29,0,13,,,,,,,,,,,,,,,,11,,72,0
6270,note_on,,1,0,12,,,,,,,,,,,,,,,,10,,77,72
6270,note_on,,1,0,13,,,,,,,,,,,,,,,,11,,74,72
6299,note_on,,59,0,15,,,,,,,,,,,,,,,,13,,60,0
6299,note_on,,59,0,16,,,,,,,,,,,,,,,,15,,60,0
6299,note_on,,29,0,12,,,,,,,,,,,,,,,,10,,77,0
6299,note_on,,29,0,13,,,,,,,,,,,,,,,,11,,74,0
6299,note_on,,59,0,7,,,,,,,,,,,,,,,,2,,60,0
6300,note_on,,1,0,12,,,,,,,,,,,,,,,,10,,76,72
6300,note_on,,1,0,16,,,,,,,,,,,,,,,,15,,48,72
6300,note_on,,1,0,13,,,,,,,,,,,,,,,,11,,72,72
6300,note_on,,1,0,15,,,,,,,,,,,,,,,,13,,48,72
6300,note_on,,1,0,7,,,,,,,,,,,,,,,,2,,48,72
6329,note_on,,89,0,8,,,,,,,,,,,,,,,,5,,76,0
6329,note_on,,89,0,5,,,,,,,,,,,,,,,,0,,76,0
6329,note_on,,89,0,11,,,,,,,,,,,,,,,,8,,60,0
6329,note_on,,89,0,6,,,,,,,,,,,,,,,,1,,76,0
6329,note_on,,29,0,12,,,,,,,,,,,,,,,,10,,76,0
6329,note_on,,29,0,13,,,,,,,,,,,,,,,,11,,72,0
6329,note_on,,89,0,14,,,,,,,,,,,,,,,,12,,67,0
6330,note_on,,1,0,12,,,,,,,,,,,,,,,,10,,77,72
6330,note_on,,1,0,13,,,,,,,,,,,,,,,,11,,74,72
6330,note_on,,1,0,11,,,,,,,,,,,,,,,,8,,60,72
6330,note_on,,1,0,8,,,,,,,,,,,,,,,,5,,74,72
6330,note_on,,1,0,6,,,,,,,,,,,,,,,,1,,74,72
6330,note_on,,1,0,5,,,,,,,,,,,,,,,,0,,74,72
6330,note_on,,1,0,14,,,,,,,,,,,,,,,,12,,67,72
6359,note_on,,29,0,12,,,,,,,,,,,,,,,,10,,77,0
6359,note_on,,59,0,15,,,,,,,,,,,,,,,,13,,48,0
6359,note_on,,29,0,11,,,,,,,,,,,,,,,,8,,60,0
6359,note_on,,59,0,7,,,,,,,,,,,,,,,,2,,48,0
6359,note_on,,29,0,5,,,,,,,,,,,,,,,,0,,74,0
6359,note_on,,29,0,6,,,,,,,,,,,,,,,,1,,74,0
6359,note_on,,119,0,9,,,,,,,,,,,,,,,,6,,67,0
6359,note_on,,29,0,13,,,,,,,,,,,,,,,,11,,74,0
6359,note_on,,29,0,8,,,,,,,,,,,,,,,,5,,74,0
6359,note_on,,119,0,10,,,,,,,,,,,,,,,,7,,64,0
6359,note_on,,29,0,14,,,,,,,,,,,,,,,,12,,67,0
6359,note_on,,59,0,16,,,,,,,,,,,,,,,,15,,48,0
6360,note_on,,1,0,6,,,,,,,,,,,,,,,,1,,72,72
6360,note_on,,1,0,9,,,,,,,,,,,,,,,,6,,67,72
6360,note_on,,1,0,7,,,,,,,,,,,,,,,,2,,48,72
6360,note_on,,1,0,14,,,,,,,,,,,,,,,,12,,72,72
6360,note_on,,1,0,8,,,,,,,,,,,,,,,,5,,72,72
6360,note_on,,1,0,11,,,,,,,,,,,,,,,,8,,60,72
6360,note_on,,1,0,15,,,,,,,,,,,,,,,,13,,48,72
6360,note_on,,1,0,10,,,,,,,,,,,,,,,,7,,64,72
6360,note_on,,1,0,13,,,,,,,,,,,,,,,,11,,76,72
6360,note_on,,1,0,5,,,,,,,,,,,,,,,,0,,72,72
6360,note_on,,1,0,16,,,,,,,,,,,,,,,,15,,48,72
6360,note_on,,1,0,12,,,,,,,,,,,,,,,,10,,79,72
6389,note_on,,29,0,12,,,,,,,,,,,,,,,,10,,79,0
6389,note_on,,29,0,13,,,,,,,,,,,,,,,,11,,76,0
6390,note_on,,1,0,12,,,,,,,,,,,,,,,,10,,81,72
6390,note_on,,1,0,13,,,,,,,,,,,,,,,,11,,77,72
6419,note_on,,29,0,13,,,,,,,,,,,,,,,,11,,77,0
6419,note_on,,59,0,7,,,,,,,,,,,,,,,,2,,48,0
6419,note_on,,59,0,14,,,,,,,,,,,,,,,,12,,72,0
6419,note_on,,29,0,12,,,,,,,,,,,,,,,,10,,81,0
6419,note_on,,59,0,15,,,,,,,,,,,,,,,,13,,48,0
6419,note_on,,59,0,16,,,,,,,,,,,,,,,,15,,48,0
6420,note_on,,1,0,15,,,,,,,,,,,,,,,,13,,60,72
6420,note_on,,1,0,14,,,,,,,,,,,,,,,,12,,72,72
6420,note_on,,1,0,16,,,,,,,,,,,,,,,,15,,60,72
6420,note_on,,1,0,7,,,,,,,,,,,,,,,,2,,60,72
6420,note_on,,1,0,13,,,,,,,,,,,,,,,,11,,79,72
6420,note_on,,1,0,12,,,,,,,,,,,,,,,,10,,82,72
6449,note_on,,29,0,12,,,,,,,,,,,,,,,,10,,82,0
6449,note_on,,29,0,13,,,,,,,,,,,,,,,,11,,79,0
6450,note_on,,1,0,13,,,,,,,,,,,,,,,,11,,76,72
6450,note_on,,1,0,12,,,,,,,,,,,,,,,,10,,84,72
6479,note_on,,119,0,9,,,,,,,,,,,,,,,,6,,67,0
6479,note_on,,119,0,5,,,,,,,,,,,,,,,,0,,72,0
6479,note_on,,119,0,11,,,,,,,,,,,,,,,,8,,60,0
6479,note_on,,0,0,16,,,,,,,,,,,,,,,,15,,60,0
6479,note_on,,59,0,16,,,,,,,,,,,,,,,,15,,76,0
6479,note_on,,29,0,12,,,,,,,,,,,,,,,,10,,84,0
6479,note_on,,59,0,7,,,,,,,,,,,,,,,,2,,60,0
6479,note_on,,59,0,14,,,,,,,,,,,,,,,,12,,72,0
6479,note_on,,119,0,8,,,,,,,,,,,,,,,,5,,72,0
6479,note_on,,119,0,10,,,,,,,,,,,,,,,,7,,64,0
6479,note_on,,119,0,6,,,,,,,,,,,,,,,,1,,72,0
6479,note_on,,59,0,15,,,,,,,,,,,,,,,,13,,60,0
6479,note_on,,29,0,13,,,,,,,,,,,,,,,,11,,76,0
6479,note_on,,0,0,16,,,,,,,,,,,,,,,,15,,67,0
6479,note_on,,0,0,16,,,,,,,,,,,,,,,,15,,72,0
6480,note_on,,1,0,14,,,,,,,,,,,,,,,,12,,65,72
6480,note_on,,1,0,9,,,,,,,,,,,,,,,,6,,65,72
6480,note_on,,1,0,8,,,,,,,,,,,,,,,,5,,69,72
6480,note_on,,1,0,10,,,,,,,,,,,,,,,,7,,65,72
6480,note_on,,1,0,6,,,,,,,,,,,,,,,,1,,69,72
6480,note_on,,1,0,15,,,,,,,,,,,,,,,,13,,62,72
6480,note_on,,0,0,16,,,,,,,,,,,,,,,,15,,77,72
6480,note_on,,1,0,5,,,,,,,,,,,,,,,,0,,69,72
6480,note_on,,1,0,7,,,,,,,,,,,,,,,,2,,62,72
6480,note_on,,0,0,16,,,,,,,,,,,,,,,,15,,69,72
6480,note_on,,1,0,11,,,,,,,,,,,,,,,,8,,62,72
6480,note_on,,0,0,16,,,,,,,,,,,,,,,,15,,65,72
6480,note_on,,1,0,12,,,,,,,,,,,,,,,,10,,81,72
6480,note_on,,1,0,16,,,,,,,,,,,,,,,,15,,62,72
6480,note_on,,1,0,13,,,,,,,,,,,,,,,,11,,77,72
6539,note_on,,59,0,6,,,,,,,,,,,,,,,,1,,69,0
6539,note_on,,59,0,7,,,,,,,,,,,,,,,,2,,62,0
6539,note_on,,59,0,9,,,,,,,,,,,,,,,,6,,65,0
6539,note_on,,59,0,8,,,,,,,,,,,,,,,,5,,69,0
6539,note_on,,59,0,10,,,,,,,,,,,,,,,,7,,65,0
6539,note_on,,59,0,12,,,,,,,,,,,,,,,,10,,81,0
6539,note_on,,59,0,13,,,,,,,,,,,,,,,,11,,77,0
6539,note_on,,59,0,11,,,,,,,,,,,,,,,,8,,62,0
6539,note_on,,0,0,16,,,,,,,,,,,,,,,,15,,77,0
6539,note_on,,0,0,16,,,,,,,,,,,,,,,,15,,65,0
6539,note_on,,0,0,16,,,,,,,,,,,,,,,,15,,69,0
6539,note_on,,59,0,16,,,,,,,,,,,,,,,,15,,62,0
6539,note_on,,59,0,5,,,,,,,,,,,,,,,,0,,69,0
6539,note_on,,59,0,15,,,,,,,,,,,,,,,,13,,62,0
6539,note_on,,59,0,14,,,,,,,,,,,,,,,,12,,65,0
6540,note_on,,1,0,12,,,,,,,,,,,,,,,,10,,82,72
6540,note_on,,1,0,6,,,,,,,,,,,,,,,,1,,74,72
6540,note_on,,1,0,11,,,,,,,,,,,,,,,,8,,58,72
6540,note_on,,1,0,13,,,,,,,,,,,,,,,,11,,74,72
6540,note_on,,1,0,7,,,,,,,,,,,,,,,,2,,58,72
6540,note_on,,1,0,16,,,,,,,,,,,,,,,,15,,58,72
6540,note_on,,1,0,15,,,,,,,,,,,,,,,,13,,58,72
6540,note_on,,0,0,16,,,,,,,,,,,,,,,,15,,77,72
6540,note_on,,1,0,5,,,,,,,,,,,,,,,,0,,74,72
6540,note_on,,1,0,10,,,,,,,,,,,,,,,,7,,65,72
6540,note_on,,1,0,8,,,,,,,,,,,,,,,,5,,74,72
6540,note_on,,1,0,14,,,,,,,,,,,,,,,,12,,65,72
6540,note_on,,0,0,16,,,,,,,,,,,,,,,,15,,74,72
6540,note_on,,1,0,9,,,,,,,,,,,,,,,,6,,70,72
6540,note_on,,0,0,16,,,,,,,,,,,,,,,,15,,70,72
6599,note_on,,59,0,11,,,,,,,,,,,,,,,,8,,58,0
6599,note_on,,59,0,7,,,,,,,,,,,,,,,,2,,58,0
6599,note_on,,59,0,8,,,,,,,,,,,,,,,,5,,74,0
6599,note_on,,59,0,6,,,,,,,,,,,,,,,,1,,74,0
6599,note_on,,59,0,9,,,,,,,,,,,,,,,,6,,70,0
6599,note_on,,59,0,12,,,,,,,,,,,,,,,,10,,82,0
6599,note_on,,0,0,16,,,,,,,,,,,,,,,,15,,74,0
6599,note_on,,59,0,16,,,,,,,,,,,,,,,,15,,58,0
6599,note_on,,59,0,10,,,,,,,,,,,,,,,,7,,65,0
6599,note_on,,0,0,16,,,,,,,,,,,,,,,,15,,77,0
6599,note_on,,0,0,16,,,,,,,,,,,,,,,,15,,70,0
6599,note_on,,59,0,5,,,,,,,,,,,,,,,,0,,74,0
6599,note_on,,59,0,14,,,,,,,,,,,,,,,,12,,65,0
6599,note_on,,59,0,15,,,,,,,,,,,,,,,,13,,58,0
6599,note_on,,59,0,13,,,,,,,,,,,,,,,,11,,74,0
6600,note_on,,1,0,6,,,,,,,,,,,,,,,,1,,72,72
6600,note_on,,1,0,11,,,,,,,,,,,,,,,,8,,60,72
6600,note_on,,1,0,7,,,,,,,,,,,,,,,,2,,60,72
6600,note_on,,0,0,16,,,,,,,,,,,,,,,,15,,67,72
6600,note_on,,0,0,16,,,,,,,,,,,,,,,,15,,72,72
6600,note_on,,0,0,16,,,,,,,,,,,,,,,,15,,76,72
6600,note_on,,1,0,16,,,,,,,,,,,,,,,,15,,60,72
6600,note_on,,1,0,15,,,,,,,,,,,,,,,,13,,60,72
6600,note_on,,1,0,14,,,,,,,,,,,,,,,,12,,72,72
6600,note_on,,1,0,12,,,,,,,,,,,,,,,,10,,79,72
6600,note_on,,1,0,8,,,,,,,,,,,,,,,,5,,72,72
6600,note_on,,1,0,5,,,,,,,,,,,,,,,,0,,72,72
6600,note_on,,1,0,10,,,,,,,,,,,,,,,,7,,64,72
6600,note_on,,1,0,9,,,,,,,,,,,,,,,,6,,67,72
6600,note_on,,1,0,13,,,,,,,,,,,,,,,,11,,76,72
6659,note_on,,59,0,16,,,,,,,,,,,,,,,,15,,60,0
6659,note_on,,59,0,15,,,,,,,,,,,,,,,,13,,60,0
6659,note_on,,59,0,7,,,,,,,,,,,,,,,,2,,60,0
6660,note_on,,1,0,15,,,,,,,,,,,,,,,,13,,48,72
6660,note_on,,1,0,7,,,,,,,,,,,,,,,,2,,48,72
6660,note_on,,1,0,16,,,,,,,,,,,,,,,,15,,48,72
6719,note_on,,59,0,15,,,,,,,,,,,,,,,,13,,48,0
6719,note_on,,119,0,12,,,,,,,,,,,,,,,,10,,79,0
6719,note_on,,119,0,14,,,,,,,,,,,,,,,,12,,72,0
6719,note_on,,119,0,6,,,,,,,,,,,,,,,,1,,72,0
6719,note_on,,59,0,16,,,,,,,,,,,,,,,,15,,76,0
6719,note_on,,0,0,16,,,,,,,,,,,,,,,,15,,72,0
6719,note_on,,0,0,16,,,,,,,,,,,,,,,,15,,67,0
6719,note_on,,0,0,16,,,,,,,,,,,,,,,,15,,48,0
6719,note_on,,119,0,11,,,,,,,,,,,,,,,,8,,60,0
6719,note_on,,59,0,7,,,,,,,,,,,,,,,,2,,48,0
6719,note_on,,119,0,8,,,,,,,,,,,,,,,,5,,72,0
6719,note_on,,119,0,10,,,,,,,,,,,,,,,,7,,64,0
6719,note_on,,119,0,13,,,,,,,,,,,,,,,,11,,76,0
6719,note_on,,119,0,5,,,,,,,,,,,,,,,,0,,72,0
6719,note_on,,119,0,9,,,,,,,,,,,,,,,,6,,67,0
6720,note_on,,1,0,9,,,,,,,,,,,,,,,,6,,69,72
6720,note_on,,1,0,11,,,,,,,,,,,,,,,,8,,53,72
6720,note_on,,1,0,7,,,,,,,,,,,,,,,,2,,53,72
6720,note_on,,1,0,5,,,,,,,,,,,,,,,,0,,72,72
6720,note_on,,1,0,14,,,,,,,,,,,,,,,,12,,72,72
6720,note_on,,1,0,12,,,,,,,,,,,,,,,,10,,81,72
6720,note_on,,1,0,16,,,,,,,,,,,,,,,,15,,53,72
6720,note_on,,1,0,10,,,,,,,,,,,,,,,,7,,65,72
6720,note_on,,1,0,15,,,,,,,,,,,,,,,,13,,53,72
6720,note_on,,1,0,13,,,,,,,,,,,,,,,,11,,77,72
6720,note_on,,1,0,8,,,,,,,,,,,,,,,,5,,72,72
6720,note_on,,1,0,6,,,,,,,,,,,,,,,,1,,72,72
6720,note_on,,0,0,16,,,,,,,,,,,,,,,,15,,77,72
6720,note_on,,0,0,16,,,,,,,,,,,,,,,,15,,72,72
6720,note_on,,0,0,16,,,,,,,,,,,,,,,,15,,69,72
6720,note_on,,0,0,16,,,,,,,,,,,,,,,,15,,60,72
6779,note_on,,59,0,12,,,,,,,,,,,,,,,,10,,81,0
6779,note_on,,59,0,13,,,,,,,,,,,,,,,,11,,77,0
6779,note_on,,59,0,14,,,,,,,,,,,,,,,,12,,72,0
6780,note_on,,1,0,13,,,,,,,,,,,,,,,,11,,69,72
6780,note_on,,1,0,12,,,,,,,,,,,,,,,,10,,72,72
6780,note_on,,1,0,14,,,,,,,,,,,,,,,,12,,72,72
6809,note_on,,29,0,14,,,,,,,,,,,,,,,,12,,72,0
6809,note_on,,29,0,13,,,,,,,,,,,,,,,,11,,69,0
6809,note_on,,29,0,12,,,,,,,,,,,,,,,,10,,72,0
6810,note_on,,1,0,13,,,,,,,,,,,,,,,,11,,70,72
6810,note_on,,1,0,14,,,,,,,,,,,,,,,,12,,70,72
6810,note_on,,1,0,12,,,,,,,,,,,,,,,,10,,74,72
6839,note_on,,119,0,8,,,,,,,,,,,,,,,,5,,72,0
6839,note_on,,0,0,16,,,,,,,,,,,,,,,,15,,60,0
6839,note_on,,0,0,16,,,,,,,,,,,,,,,,15,,69,0
6839,note_on,,0,0,16,,,,,,,,,,,,,,,,15,,72,0
6839,note_on,,119,0,15,,,,,,,,,,,,,,,,13,,53,0
6839,note_on,,0,0,16,,,,,,,,,,,,,,,,15,,77,0
6839,note_on,,119,0,16,,,,,,,,,,,,,,,,15,,53,0
6839,note_on,,119,0,10,,,,,,,,,,,,,,,,7,,65,0
6839,note_on,,119,0,7,,,,,,,,,,,,,,,,2,,53,0
6839,note_on,,29,0,14,,,,,,,,,,,,,,,,12,,70,0
6839,note_on,,119,0,6,,,,,,,,,,,,,,,,1,,72,0
6839,note_on,,119,0,9,,,,,,,,,,,,,,,,6,,69,0
6839,note_on,,119,0,11,,,,,,,,,,,,,,,,8,,53,0
6839,note_on,,29,0,13,,,,,,,,,,,,,,,,11,,70,0
6839,note_on,,119,0,5,,,,,,,,,,,,,,,,0,,72,0
6839,note_on,,29,0,12,,,,,,,,,,,,,,,,10,,74,0
6840,note_on,,1,0,14,,,,,,,,,,,,,,,,12,,69,72
6840,note_on,,1,0,12,,,,,,,,,,,,,,,,10,,75,72
6840,note_on,,1,0,13,,,,,,,,,,,,,,,,11,,72,72
6869,note_on,,29,0,12,,,,,,,,,,,,,,,,10,,75,0
6869,note_on,,29,0,13,,,,,,,,,,,,,,,,11,,72,0
6870,note_on,,1,0,12,,,,,,,,,,,,,,,,10,,74,72
6870,note_on,,1,0,13,,,,,,,,,,,,,,,,11,,70,72
6899,note_on,,29,0,13,,,,,,,,,,,,,,,,11,,70,0
6899,note_on,,59,0,14,,,,,,,,,,,,,,,,12,,69,0
6899,note_on,,29,0,12,,,,,,,,,,,,,,,,10,,74,0
6900,note_on,,1,0,14,,,,,,,,,,,,,,,,12,,69,72
6900,note_on,,1,0,13,,,,,,,,,,,,,,,,11,,72,72
6900,note_on,,1,0,12,,,,,,,,,,,,,,,,10,,75,72
6929,note_on,,29,0,12,,,,,,,,,,,,,,,,10,,75,0
6929,note_on,,29,0,13,,,,,,,,,,,,,,,,11,,72,0
6930,note_on,,1,0,12,,,,,,,,,,,,,,,,10,,72,72
6930,note_on,,1,0,13,,,,,,,,,,,,,,,,11,,69,72
6959,note_on,,29,0,13,,,,,,,,,,,,,,,,11,,69,0
6959,note_on,,59,0,14,,,,,,,,,,,,,,,,12,,69,0
6959,note_on,,29,0,12,,,,,,,,,,,,,,,,10,,72,0
6960,note_on,,1,0,14,,,,,,,,,,,,,,,,12,,65,72
6960,note_on,,121,0,9,,,,,,,,,,,,,,,,6,,70,72
6960,note_on,,0,0,16,,,,,,,,,,,,,,,,15,,62,72
6960,note_on,,0,0,16,,,,,,,,,,,,,,,,15,,70,72
6960,note_on,,1,0,13,,,,,,,,,,,,,,,,11,,70,72
6960,note_on,,121,0,15,,,,,,,,,,,,,,,,13,,58,72
6960,note_on,,1,0,12,,,,,,,,,,,,,,,,10,,74,72
6960,note_on,,121,0,8,,,,,,,,,,,,,,,,5,,74,72
6960,note_on,,121,0,16,,,,,,,,,,,,,,,,15,,58,72
6960,note_on,,121,0,6,,,,,,,,,,,,,,,,1,,74,72
6960,note_on,,0,0,16,,,,,,,,,,,,,,,,15,,65,72
6960,note_on,,0,0,16,,,,,,,,,,,,,,,,15,,74,72
6960,note_on,,121,0,5,,,,,,,,,,,,,,,,0,,74,72
6960,note_on,,121,0,7,,,,,,,,,,,,,,,,2,,58,72
6960,note_on,,121,0,10,,,,,,,,,,,,,,,,7,,65,72
6960,note_on,,121,0,11,,,,,,,,,,,,,,,,8,,58,72
6989,note_on,,29,0,12,,,,,,,,,,,,,,,,10,,74,0
6989,note_on,,29,0,13,,,,,,,,,,,,,,,,11,,70,0
6990,note_on,,1,0,12,,,,,,,,,,,,,,,,10,,75,72
6990,note_on,,1,0,13,,,,,,,,,,,,,,,,11,,72,72
7019,note_on,,29,0,12,,,,,,,,,,,,,,,,10,,75,0
7019,note_on,,29,0,13,,,,,,,,,,,,,,,,11,,72,0
7020,note_on,,1,0,13,,,,,,,,,,,,,,,,11,,70,72
7020,note_on,,1,0,12,,,,,,,,,,,,,,,,10,,74,72
7049,note_on,,29,0,13,,,,,,,,,,,,,,,,11,,70,0
7049,note_on,,29,0,12,,,,,,,,,,,,,,,,10,,74,0
7050,note_on,,1,0,13,,,,,,,,,,,,,,,,11,,72,72
7050,note_on,,1,0,12,,,,,,,,,,,,,,,,10,,75,72
7079,note_on,,0,0,16,,,,,,,,,,,,,,,,15,,65,0
7079,note_on,,0,0,16,,,,,,,,,,,,,,,,15,,70,0
7079,note_on,,0,0,16,,,,,,,,,,,,,,,,15,,74,0
7079,note_on,,0,0,16,,,,,,,,,,,,,,,,15,,62,0
7079,note_on,,29,0,13,,,,,,,,,,,,,,,,11,,72,0
7079,note_on,,119,0,15,,,,,,,,,,,,,,,,13,,58,0
7079,note_on,,119,0,10,,,,,,,,,,,,,,,,7,,65,0
7079,note_on,,119,0,14,,,,,,,,,,,,,,,,12,,65,0
7079,note_on,,119,0,5,,,,,,,,,,,,,,,,0,,74,0
7079,note_on,,119,0,16,,,,,,,,,,,,,,,,15,,58,0
7079,note_on,,119,0,6,,,,,,,,,,,,,,,,1,,74,0
7079,note_on,,119,0,8,,,,,,,,,,,,,,,,5,,74,0
7079,note_on,,119,0,9,,,,,,,,,,,,,,,,6,,70,0
7079,note_on,,119,0,7,,,,,,,,,,,,,,,,2,,58,0
7079,note_on,,119,0,11,,,,,,,,,,,,,,,,8,,58,0
7079,note_on,,29,0,12,,,,,,,,,,,,,,,,10,,75,0
7080,note_on,,1,0,8,,,,,,,,,,,,,,,,5,,74,72
7080,note_on,,1,0,14,,,,,,,,,,,,,,,,12,,70,72
7080,note_on,,1,0,9,,,,,,,,,,,,,,,,6,,70,72
7080,note_on,,1,0,10,,,,,,,,,,,,,,,,7,,65,72
7080,note_on,,1,0,11,,,,,,,,,,,,,,,,8,,58,72
7080,note_on,,1,0,15,,,,,,,,,,,,,,,,13,,58,72
7080,note_on,,0,0,16,,,,,,,,,,,,,,,,15,,62,72
7080,note_on,,0,0,16,,,,,,,,,,,,,,,,15,,65,72
7080,note_on,,0,0,16,,,,,,,,,,,,,,,,15,,70,72
7080,note_on,,0,0,16,,,,,,,,,,,,,,,,15,,74,72
7080,note_on,,1,0,16,,,,,,,,,,,,,,,,15,,58,72
7080,note_on,,1,0,12,,,,,,,,,,,,,,,,10,,77,72
7080,note_on,,1,0,5,,,,,,,,,,,,,,,,0,,74,72
7080,note_on,,1,0,7,,,,,,,,,,,,,,,,2,,58,72
7080,note_on,,1,0,13,,,,,,,,,,,,,,,,11,,74,72
7080,note_on,,1,0,6,,,,,,,,,,,,,,,,1,,74,72
7109,note_on,,29,0,13,,,,,,,,,,,,,,,,11,,74,0
7109,note_on,,29,0,12,,,,,,,,,,,,,,,,10,,77,0
7110,note_on,,1,0,12,,,,,,,,,,,,,,,,10,,79,72
7110,note_on,,1,0,13,,,,,,,,,,,,,,,,11,,75,72
7139,note_on,,59,0,14,,,,,,,,,,,,,,,,12,,70,0
7139,note_on,,59,0,8,,,,,,,,,,,,,,,,5,,74,0
7139,note_on,,59,0,11,,,,,,,,,,,,,,,,8,,58,0
7139,note_on,,59,0,10,,,,,,,,,,,,,,,,7,,65,0
7139,note_on,,59,0,15,,,,,,,,,,,,,,,,13,,58,0
7139,note_on,,29,0,13,,,,,,,,,,,,,,,,11,,75,0
7139,note_on,,59,0,5,,,,,,,,,,,,,,,,0,,74,0
7139,note_on,,59,0,9,,,,,,,,,,,,,,,,6,,70,0
7139,note_on,,0,0,16,,,,,,,,,,,,,,,,15,,62,0
7139,note_on,,0,0,16,,,,,,,,,,,,,,,,15,,65,0
7139,note_on,,0,0,16,,,,,,,,,,,,,,,,15,,70,0
7139,note_on,,0,0,16,,,,,,,,,,,,,,,,15,,74,0
7139,note_on,,59,0,16,,,,,,,,,,,,,,,,15,,58,0
7139,note_on,,59,0,7,,,,,,,,,,,,,,,,2,,58,0
7139,note_on,,59,0,6,,,,,,,,,,,,,,,,1,,74,0
7139,note_on,,29,0,12,,,,,,,,,,,,,,,,10,,79,0
7140,note_on,,1,0,10,,,,,,,,,,,,,,,,7,,65,72
7140,note_on,,1,0,14,,,,,,,,,,,,,,,,12,,70,72
7140,note_on,,1,0,5,,,,,,,,,,,,,,,,0,,70,72
7140,note_on,,1,0,9,,,,,,,,,,,,,,,,6,,70,72
7140,note_on,,1,0,15,,,,,,,,,,,,,,,,13,,58,72
7140,note_on,,1,0,6,,,,,,,,,,,,,,,,1,,70,72
7140,note_on,,1,0,11,,,,,,,,,,,,,,,,8,,58,72
7140,note_on,,1,0,16,,,,,,,,,,,,,,,,15,,58,72
7140,note_on,,0,0,16,,,,,,,,,,,,,,,,15,,74,72
7140,note_on,,0,0,16,,,,,,,,,,,,,,,,15,,70,72
7140,note_on,,0,0,16,,,,,,,,,,,,,,,,15,,65,72
7140,note_on,,0,0,16,,,,,,,,,,,,,,,,15,,62,72
7140,note_on,,1,0,7,,,,,,,,,,,,,,,,2,,58,72
7140,note_on,,1,0,8,,,,,,,,,,,,,,,,5,,70,72
7140,note_on,,1,0,12,,,,,,,,,,,,,,,,10,,77,72
7140,note_on,,1,0,13,,,,,,,,,,,,,,,,11,,74,72
7169,note_on,,29,0,13,,,,,,,,,,,,,,,,11,,74,0
7169,note_on,,29,0,12,,,,,,,,,,,,,,,,10,,77,0
7170,note_on,,1,0,12,,,,,,,,,,,,,,,,10,,79,72
7170,note_on,,1,0,13,,,,,,,,,,,,,,,,11,,75,72
7199,note_on,,29,0,13,,,,,,,,,,,,,,,,11,,75,0
7199,note_on,,0,0,16,,,,,,,,,,,,,,,,15,,62,0
7199,note_on,,0,0,16,,,,,,,,,,,,,,,,15,,65,0
7199,note_on,,0,0,16,,,,,,,,,,,,,,,,15,,74,0
7199,note_on,,59,0,15,,,,,,,,,,,,,,,,13,,58,0
7199,note_on,,59,0,7,,,,,,,,,,,,,,,,2,,58,0
7199,note_on,,59,0,6,,,,,,,,,,,,,,,,1,,70,0
7199,note_on,,59,0,11,,,,,,,,,,,,,,,,8,,58,0
7199,note_on,,59,0,16,,,,,,,,,,,,,,,,15,,58,0
7199,note_on,,59,0,14,,,,,,,,,,,,,,,,12,,70,0
7199,note_on,,59,0,10,,,,,,,,,,,,,,,,7,,65,0
7199,note_on,,59,0,5,,,,,,,,,,,,,,,,0,,70,0
7199,note_on,,59,0,8,,,,,,,,,,,,,,,,5,,70,0
7199,note_on,,29,0,12,,,,,,,,,,,,,,,,10,,79,0
7199,note_on,,0,0,16,,,,,,,,,,,,,,,,15,,70,0
7199,note_on,,59,0,9,,,,,,,,,,,,,,,,6,,70,0
7200,note_on,,1,0,7,,,,,,,,,,,,,,,,2,,58,72
7200,note_on,,1,0,5,,,,,,,,,,,,,,,,0,,65,72
7200,note_on,,1,0,13,,,,,,,,,,,,,,,,11,,77,72
7200,note_on,,1,0,16,,,,,,,,,,,,,,,,15,,58,72
7200,note_on,,0,0,16,,,,,,,,,,,,,,,,15,,77,72
7200,note_on,,1,0,11,,,,,,,,,,,,,,,,8,,58,72
7200,note_on,,1,0,14,,,,,,,,,,,,,,,,12,,58,72
7200,note_on,,1,0,9,,,,,,,,,,,,,,,,6,,58,72
7200,note_on,,0,0,16,,,,,,,,,,,,,,,,15,,65,72
7200,note_on,,1,0,15,,,,,,,,,,,,,,,,13,,58,72
7200,note_on,,1,0,12,,,,,,,,,,,,,,,,10,,74,72
7200,note_on,,1,0,6,,,,,,,,,,,,,,,,1,,65,72
7200,note_on,,0,0,16,,,,,,,,,,,,,,,,15,,74,72
7200,note_on,,0,0,16,,,,,,,,,,,,,,,,15,,70,72
7200,note_on,,1,0,10,,,,,,,,,,,,,,,,7,,62,72
7200,note_on,,1,0,8,,,,,,,,,,,,,,,,5,,65,72
7229,note_on,,29,0,9,,,,,,,,,,,,,,,,6,,58,0
7229,note_on,,29,0,12,,,,,,,,,,,,,,,,10,,74,0
7229,note_on,,29,0,13,,,,,,,,,,,,,,,,11,,77,0
7229,note_on,,29,0,14,,,,,,,,,,,,,,,,12,,58,0
7230,note_on,,1,0,12,,,,,,,,,,,,,,,,10,,75,72
7230,note_on,,1,0,9,,,,,,,,,,,,,,,,6,,60,72
7230,note_on,,1,0,14,,,,,,,,,,,,,,,,12,,60,72
7230,note_on,,1,0,13,,,,,,,,,,,,,,,,11,,77,72
7259,note_on,,59,0,7,,,,,,,,,,,,,,,,2,,58,0
7259,note_on,,29,0,13,,,,,,,,,,,,,,,,11,,77,0
7259,note_on,,29,0,9,,,,,,,,,,,,,,,,6,,60,0
7259,note_on,,59,0,5,,,,,,,,,,,,,,,,0,,65,0
7259,note_on,,59,0,10,,,,,,,,,,,,,,,,7,,62,0
7259,note_on,,59,0,16,,,,,,,,,,,,,,,,15,,58,0
7259,note_on,,29,0,12,,,,,,,,,,,,,,,,10,,75,0
7259,note_on,,29,0,14,,,,,,,,,,,,,,,,12,,60,0
7259,note_on,,59,0,15,,,,,,,,,,,,,,,,13,,58,0
7259,note_on,,59,0,8,,,,,,,,,,,,,,,,5,,65,0
7259,note_on,,59,0,6,,,,,,,,,,,,,,,,1,,65,0
7260,note_on,,1,0,5,,,,,,,,,,,,,,,,0,,65,72
7260,note_on,,1,0,7,,,,,,,,,,,,,,,,2,,46,72
7260,note_on,,1,0,10,,,,,,,,,,,,,,,,7,,62,72
7260,note_on,,1,0,16,,,,,,,,,,,,,,,,15,,46,72
7260,note_on,,1,0,13,,,,,,,,,,,,,,,,11,,79,72
7260,note_on,,1,0,12,,,,,,,,,,,,,,,,10,,74,72
7260,note_on,,1,0,15,,,,,,,,,,,,,,,,13,,46,72
7260,note_on,,1,0,14,,,,,,,,,,,,,,,,12,,58,72
7260,note_on,,1,0,8,,,,,,,,,,,,,,,,5,,65,72
7260,note_on,,1,0,9,,,,,,,,,,,,,,,,6,,58,72
7260,note_on,,1,0,6,,,,,,,,,,,,,,,,1,,65,72
7289,note_on,,29,0,10,,,,,,,,,,,,,,,,7,,62,0
7289,note_on,,29,0,14,,,,,,,,,,,,,,,,12,,58,0
7289,note_on,,29,0,8,,,,,,,,,,,,,,,,5,,65,0
7289,note_on,,29,0,6,,,,,,,,,,,,,,,,1,,65,0
7289,note_on,,29,0,13,,,,,,,,,,,,,,,,11,,79,0
7289,note_on,,29,0,5,,,,,,,,,,,,,,,,0,,65,0
7289,note_on,,89,0,11,,,,,,,,,,,,,,,,8,,58,0
7289,note_on,,29,0,9,,,,,,,,,,,,,,,,6,,58,0
7289,note_on,,29,0,12,,,,,,,,,,,,,,,,10,,74,0
7290,note_on,,1,0,14,,,,,,,,,,,,,,,,12,,60,72
7290,note_on,,1,0,11,,,,,,,,,,,,,,,,8,,46,72
7290,note_on,,1,0,9,,,,,,,,,,,,,,,,6,,60,72
7290,note_on,,1,0,8,,,,,,,,,,,,,,,,5,,65,72
7290,note_on,,1,0,10,,,,,,,,,,,,,,,,7,,63,72
7290,note_on,,1,0,13,,,,,,,,,,,,,,,,11,,81,72
7290,note_on,,1,0,5,,,,,,,,,,,,,,,,0,,65,72
7290,note_on,,1,0,6,,,,,,,,,,,,,,,,1,,65,72
7290,note_on,,1,0,12,,,,,,,,,,,,,,,,10,,75,72
7319,note_on,,29,0,8,,,,,,,,,,,,,,,,5,,65,0
7319,note_on,,29,0,14,,,,,,,,,,,,,,,,12,,60,0
7319,note_on,,59,0,16,,,,,,,,,,,,,,,,15,,46,0
7319,note_on,,29,0,10,,,,,,,,,,,,,,,,7,,63,0
7319,note_on,,29,0,6,,,,,,,,,,,,,,,,1,,65,0
7319,note_on,,29,0,9,,,,,,,,,,,,,,,,6,,60,0
7319,note_on,,29,0,11,,,,,,,,,,,,,,,,8,,46,0
7319,note_on,,29,0,12,,,,,,,,,,,,,,,,10,,75,0
7319,note_on,,29,0,5,,,,,,,,,,,,,,,,0,,65,0
7319,note_on,,59,0,7,,,,,,,,,,,,,,,,2,,46,0
7319,note_on,,29,0,13,,,,,,,,,,,,,,,,11,,81,0
7319,note_on,,59,0,15,,,,,,,,,,,,,,,,13,,46,0
7320,note_on,,1,0,7,,,,,,,,,,,,,,,,2,,46,72
7320,note_on,,1,0,6,,,,,,,,,,,,,,,,1,,65,72
7320,note_on,,1,0,5,,,,,,,,,,,,,,,,0,,65,72
7320,note_on,,1,0,10,,,,,,,,,,,,,,,,7,,65,72
7320,note_on,,1,0,8,,,,,,,,,,,,,,,,5,,65,72
7320,note_on,,1,0,15,,,,,,,,,,,,,,,,13,,46,72
7320,note_on,,1,0,12,,,,,,,,,,,,,,,,10,,77,72
7320,note_on,,1,0,14,,,,,,,,,,,,,,,,12,,58,72
7320,note_on,,1,0,13,,,,,,,,,,,,,,,,11,,82,72
7320,note_on,,1,0,11,,,,,,,,,,,,,,,,8,,46,72
7320,note_on,,1,0,9,,,,,,,,,,,,,,,,6,,58,72
7320,note_on,,1,0,16,,,,,,,,,,,,,,,,15,,46,72
7349,note_on,,29,0,14,,,,,,,,,,,,,,,,12,,58,0
7349,note_on,,29,0,9,,,,,,,,,,,,,,,,6,,58,0
7349,note_on,,29,0,12,,,,,,,,,,,,,,,,10,,77,0
7350,note_on,,1,0,14,,,,,,,,,,,,,,,,12,,60,72
7350,note_on,,1,0,12,,,,,,,,,,,,,,,,10,,77,72
7350,note_on,,1,0,9,,,,,,,,,,,,,,,,6,,60,72
7379,note_on,,59,0,8,,,,,,,,,,,,,,,,5,,65,0
7379,note_on,,59,0,13,,,,,,,,,,,,,,,,11,,82,0
7379,note_on,,29,0,12,,,,,,,,,,,,,,,,10,,77,0
7379,note_on,,59,0,5,,,,,,,,,,,,,,,,0,,65,0
7379,note_on,,59,0,6,,,,,,,,,,,,,,,,1,,65,0
7379,note_on,,59,0,15,,,,,,,,,,,,,,,,13,,46,0
7379,note_on,,59,0,7,,,,,,,,,,,,,,,,2,,46,0
7379,note_on,,29,0,9,,,,,,,,,,,,,,,,6,,60,0
7379,note_on,,59,0,10,,,,,,,,,,,,,,,,7,,65,0
7379,note_on,,29,0,14,,,,,,,,,,,,,,,,12,,60,0
7379,note_on,,59,0,16,,,,,,,,,,,,,,,,15,,46,0
7379,note_on,,59,0,11,,,,,,,,,,,,,,,,8,,46,0
7380,note_on,,1,0,12,,,,,,,,,,,,,,,,10,,79,72
7380,note_on,,1,0,6,,,,,,,,,,,,,,,,1,,67,72
7380,note_on,,1,0,10,,,,,,,,,,,,,,,,7,,65,72
7380,note_on,,1,0,9,,,,,,,,,,,,,,,,6,,58,72
7380,note_on,,1,0,8,,,,,,,,,,,,,,,,5,,67,72
7380,note_on,,1,0,11,,,,,,,,,,,,,,,,8,,46,72
7380,note_on,,1,0,16,,,,,,,,,,,,,,,,15,,46,72
7380,note_on,,1,0,5,,,,,,,,,,,,,,,,0,,67,72
7380,note_on,,1,0,13,,,,,,,,,,,,,,,,11,,77,72
7380,note_on,,1,0,7,,,,,,,,,,,,,,,,2,,46,72
7380,note_on,,1,0,15,,,,,,,,,,,,,,,,13,,46,72
7380,note_on,,1,0,14,,,,,,,,,,,,,,,,12,,58,72
7409,note_on,,29,0,9,,,,,,,,,,,,,,,,6,,58,0
7409,note_on,,29,0,6,,,,,,,,,,,,,,,,1,,67,0
7409,note_on,,29,0,12,,,,,,,,,,,,,,,,10,,79,0
7409,note_on,,29,0,14,,,,,,,,,,,,,,,,12,,58,0
7409,note_on,,29,0,8,,,,,,,,,,,,,,,,5,,67,0
7409,note_on,,29,0,5,,,,,,,,,,,,,,,,0,,67,0
7410,note_on,,1,0,12,,,,,,,,,,,,,,,,10,,81,72
7410,note_on,,1,0,5,,,,,,,,,,,,,,,,0,,69,72
7410,note_on,,1,0,14,,,,,,,,,,,,,,,,12,,60,72
7410,note_on,,1,0,9,,,,,,,,,,,,,,,,6,,60,72
7410,note_on,,1,0,6,,,,,,,,,,,,,,,,1,,69,72
7410,note_on,,1,0,8,,,,,,,,,,,,,,,,5,,69,72
7439,note_on,,59,0,10,,,,,,,,,,,,,,,,7,,65,0
7439,note_on,,29,0,14,,,,,,,,,,,,,,,,12,,60,0
7439,note_on,,29,0,9,,,,,,,,,,,,,,,,6,,60,0
7439,note_on,,0,0,16,,,,,,,,,,,,,,,,15,,65,0
7439,note_on,,0,0,16,,,,,,,,,,,,,,,,15,,70,0
7439,note_on,,0,0,16,,,,,,,,,,,,,,,,15,,74,0
7439,note_on,,0,0,16,,,,,,,,,,,,,,,,15,,46,0
7439,note_on,,29,0,5,,,,,,,,,,,,,,,,0,,69,0
7439,note_on,,59,0,15,,,,,,,,,,,,,,,,13,,46,0
7439,note_on,,29,0,8,,,,,,,,,,,,,,,,5,,69,0
7439,note_on,,59,0,13,,,,,,,,,,,,,,,,11,,77,0
7439,note_on,,29,0,12,,,,,,,,,,,,,,,,10,,81,0
7439,note_on,,59,0,11,,,,,,,,,,,,,,,,8,,46,0
7439,note_on,,59,0,7,,,,,,,,,,,,,,,,2,,46,0
7439,note_on,,59,0,16,,,,,,,,,,,,,,,,15,,77,0
7439,note_on,,29,0,6,,,,,,,,,,,,,,,,1,,69,0
7440,note_on,,1,0,12,,,,,,,,,,,,,,,,10,,82,72
7440,note_on,,1,0,7,,,,,,,,,,,,,,,,2,,46,72
7440,note_on,,1,0,5,,,,,,,,,,,,,,,,0,,70,72
7440,note_on,,1,0,8,,,,,,,,,,,,,,,,5,,70,72
7440,note_on,,1,0,15,,,,,,,,,,,,,,,,13,,46,72
7440,note_on,,1,0,13,,,,,,,,,,,,,,,,11,,74,72
7440,note_on,,1,0,10,,,,,,,,,,,,,,,,7,,65,72
7440,note_on,,1,0,11,,,,,,,,,,,,,,,,8,,46,72
7440,note_on,,1,0,16,,,,,,,,,,,,,,,,15,,46,72
7440,note_on,,1,0,6,,,,,,,,,,,,,,,,1,,70,72
7440,note_on,,1,0,14,,,,,,,,,,,,,,,,12,,53,72
7440,note_on,,1,0,9,,,,,,,,,,,,,,,,6,,62,72
7440,note_on,,0,0,16,,,,,,,,,,,,,,,,15,,65,72
7440,note_on,,0,0,16,,,,,,,,,,,,,,,,15,,62,72
7440,note_on,,0,0,16,,,,,,,,,,,,,,,,15,,58,72
7469,note_on,,29,0,16,,,,,,,,,,,,,,,,15,,46,0
7469,note_on,,29,0,13,,,,,,,,,,,,,,,,11,,74,0
7469,note_on,,29,0,11,,,,,,,,,,,,,,,,8,,46,0
7469,note_on,,29,0,7,,,,,,,,,,,,,,,,2,,46,0
7469,note_on,,29,0,9,,,,,,,,,,,,,,,,6,,62,0
7469,note_on,,29,0,15,,,,,,,,,,,,,,,,13,,46,0
7470,note_on,,1,0,11,,,,,,,,,,,,,,,,8,,48,72
7470,note_on,,1,0,15,,,,,,,,,,,,,,,,13,,48,72
7470,note_on,,1,0,9,,,,,,,,,,,,,,,,6,,63,72
7470,note_on,,1,0,16,,,,,,,,,,,,,,,,15,,48,72
7470,note_on,,1,0,7,,,,,,,,,,,,,,,,2,,48,72
7470,note_on,,1,0,13,,,,,,,,,,,,,,,,11,,75,72
7499,note_on,,59,0,12,,,,,,,,,,,,,,,,10,,82,0
7499,note_on,,59,0,6,,,,,,,,,,,,,,,,1,,70,0
7499,note_on,,29,0,13,,,,,,,,,,,,,,,,11,,75,0
7499,note_on,,29,0,9,,,,,,,,,,,,,,,,6,,63,0
7499,note_on,,29,0,11,,,,,,,,,,,,,,,,8,,48,0
7499,note_on,,29,0,7,,,,,,,,,,,,,,,,2,,48,0
7499,note_on,,59,0,5,,,,,,,,,,,,,,,,0,,70,0
7499,note_on,,29,0,16,,,,,,,,,,,,,,,,15,,48,0
7499,note_on,,29,0,15,,,,,,,,,,,,,,,,13,,48,0
7499,note_on,,59,0,10,,,,,,,,,,,,,,,,7,,65,0
7499,note_on,,59,0,8,,,,,,,,,,,,,,,,5,,70,0
7500,note_on,,1,0,12,,,,,,,,,,,,,,,,10,,77,72
7500,note_on,,1,0,15,,,,,,,,,,,,,,,,13,,46,72
7500,note_on,,1,0,8,,,,,,,,,,,,,,,,5,,65,72
7500,note_on,,1,0,13,,,,,,,,,,,,,,,,11,,74,72
7500,note_on,,1,0,6,,,,,,,,,,,,,,,,1,,65,72
7500,note_on,,1,0,10,,,,,,,,,,,,,,,,7,,62,72
7500,note_on,,1,0,5,,,,,,,,,,,,,,,,0,,65,72
7500,note_on,,1,0,9,,,,,,,,,,,,,,,,6,,62,72
7500,note_on,,1,0,11,,,,,,,,,,,,,,,,8,,46,72
7500,note_on,,1,0,7,,,,,,,,,,,,,,,,2,,46,72
7500,note_on,,1,0,16,,,,,,,,,,,,,,,,15,,46,72
7529,note_on,,29,0,7,,,,,,,,,,,,,,,,2,,46,0
7529,note_on,,29,0,15,,,,,,,,,,,,,,,,13,,46,0
7529,note_on,,89,0,14,,,,,,,,,,,,,,,,12,,53,0
7529,note_on,,29,0,13,,,,,,,,,,,,,,,,11,,74,0
7529,note_on,,29,0,9,,,,,,,,,,,,,,,,6,,62,0
7529,note_on,,29,0,11,,,,,,,,,,,,,,,,8,,46,0
7529,note_on,,29,0,16,,,,,,,,,,,,,,,,15,,46,0
7530,note_on,,1,0,11,,,,,,,,,,,,,,,,8,,48,72
7530,note_on,,1,0,14,,,,,,,,,,,,,,,,12,,53,72
7530,note_on,,1,0,16,,,,,,,,,,,,,,,,15,,48,72
7530,note_on,,1,0,13,,,,,,,,,,,,,,,,11,,75,72
7530,note_on,,1,0,7,,,,,,,,,,,,,,,,2,,48,72
7530,note_on,,1,0,9,,,,,,,,,,,,,,,,6,,63,72
7530,note_on,,1,0,15,,,,,,,,,,,,,,,,13,,48,72
7559,note_on,,59,0,5,,,,,,,,,,,,,,,,0,,65,0
7559,note_on,,29,0,11,,,,,,,,,,,,,,,,8,,48,0
7559,note_on,,29,0,7,,,,,,,,,,,,,,,,2,,48,0
7559,note_on,,59,0,10,,,,,,,,,,,,,,,,7,,62,0
7559,note_on,,29,0,15,,,,,,,,,,,,,,,,13,,48,0
7559,note_on,,59,0,8,,,,,,,,,,,,,,,,5,,65,0
7559,note_on,,59,0,6,,,,,,,,,,,,,,,,1,,65,0
7559,note_on,,59,0,12,,,,,,,,,,,,,,,,10,,77,0
7559,note_on,,29,0,9,,,,,,,,,,,,,,,,6,,63,0
7559,note_on,,29,0,14,,,,,,,,,,,,,,,,12,,53,0
7559,note_on,,29,0,16,,,,,,,,,,,,,,,,15,,48,0
7559,note_on,,29,0,13,,,,,,,,,,,,,,,,11,,75,0
7560,note_on,,1,0,12,,,,,,,,,,,,,,,,10,,74,72
7560,note_on,,1,0,14,,,,,,,,,,,,,,,,12,,53,72
7560,note_on,,1,0,15,,,,,,,,,,,,,,,,13,,46,72
7560,note_on,,1,0,9,,,,,,,,,,,,,,,,6,,65,72
7560,note_on,,1,0,7,,,,,,,,,,,,,,,,2,,46,72
7560,note_on,,1,0,13,,,,,,,,,,,,,,,,11,,77,72
7560,note_on,,1,0,11,,,,,,,,,,,,,,,,8,,46,72
7560,note_on,,1,0,16,,,,,,,,,,,,,,,,15,,46,72
7589,note_on,,29,0,11,,,,,,,,,,,,,,,,8,,46,0
7589,note_on,,29,0,12,,,,,,,,,,,,,,,,10,,74,0
7589,note_on,,29,0,9,,,,,,,,,,,,,,,,6,,65,0
7589,note_on,,29,0,13,,,,,,,,,,,,,,,,11,,77,0
7589,note_on,,29,0,16,,,,,,,,,,,,,,,,15,,46,0
7589,note_on,,29,0,7,,,,,,,,,,,,,,,,2,,46,0
7589,note_on,,29,0,15,,,,,,,,,,,,,,,,13,,46,0
7590,note_on,,1,0,15,,,,,,,,,,,,,,,,13,,48,72
7590,note_on,,1,0,16,,,,,,,,,,,,,,,,15,,48,72
7590,note_on,,1,0,9,,,,,,,,,,,,,,,,6,,65,72
7590,note_on,,1,0,11,,,,,,,,,,,,,,,,8,,48,72
7590,note_on,,1,0,13,,,,,,,,,,,,,,,,11,,77,72
7590,note_on,,1,0,12,,,,,,,,,,,,,,,,10,,75,72
7590,note_on,,1,0,7,,,,,,,,,,,,,,,,2,,48,72
7619,note_on,,29,0,13,,,,,,,,,,,,,,,,11,,77,0
7619,note_on,,59,0,14,,,,,,,,,,,,,,,,12,,53,0
7619,note_on,,29,0,9,,,,,,,,,,,,,,,,6,,65,0
7619,note_on,,29,0,7,,,,,,,,,,,,,,,,2,,48,0
7619,note_on,,29,0,16,,,,,,,,,,,,,,,,15,,48,0
7619,note_on,,29,0,15,,,,,,,,,,,,,,,,13,,48,0
7619,note_on,,29,0,11,,,,,,,,,,,,,,,,8,,48,0
7619,note_on,,29,0,12,,,,,,,,,,,,,,,,10,,75,0
7620,note_on,,1,0,7,,,,,,,,,,,,,,,,2,,46,72
7620,note_on,,1,0,13,,,,,,,,,,,,,,,,11,,79,72
7620,note_on,,1,0,9,,,,,,,,,,,,,,,,6,,67,72
7620,note_on,,1,0,14,,,,,,,,,,,,,,,,12,,65,72
7620,note_on,,1,0,11,,,,,,,,,,,,,,,,8,,46,72
7620,note_on,,1,0,12,,,,,,,,,,,,,,,,10,,74,72
7620,note_on,,1,0,16,,,,,,,,,,,,,,,,15,,46,72
7620,note_on,,1,0,15,,,,,,,,,,,,,,,,13,,46,72
7649,note_on,,29,0,9,,,,,,,,,,,,,,,,6,,67,0
7649,note_on,,29,0,15,,,,,,,,,,,,,,,,13,,46,0
7649,note_on,,29,0,11,,,,,,,,,,,,,,,,8,,46,0
7649,note_on,,29,0,12,,,,,,,,,,,,,,,,10,,74,0
7649,note_on,,29,0,7,,,,,,,,,,,,,,,,2,,46,0
7649,note_on,,29,0,13,,,,,,,,,,,,,,,,11,,79,0
7649,note_on,,29,0,16,,,,,,,,,,,,,,,,15,,46,0
7650,note_on,,1,0,13,,,,,,,,,,,,,,,,11,,81,72
7650,note_on,,1,0,15,,,,,,,,,,,,,,,,13,,48,72
7650,note_on,,1,0,16,,,,,,,,,,,,,,,,15,,48,72
7650,note_on,,1,0,9,,,,,,,,,,,,,,,,6,,69,72
7650,note_on,,1,0,12,,,,,,,,,,,,,,,,10,,75,72
7650,note_on,,1,0,7,,,,,,,,,,,,,,,,2,,48,72
7650,note_on,,1,0,11,,,,,,,,,,,,,,,,8,,48,72
7679,note_on,,29,0,7,,,,,,,,,,,,,,,,2,,48,0
7679,note_on,,29,0,9,,,,,,,,,,,,,,,,6,,69,0
7679,note_on,,29,0,13,,,,,,,,,,,,,,,,11,,81,0
7679,note_on,,59,0,14,,,,,,,,,,,,,,,,12,,65,0
7679,note_on,,29,0,12,,,,,,,,,,,,,,,,10,,75,0
7679,note_on,,0,0,16,,,,,,,,,,,,,,,,15,,48,0
7679,note_on,,0,0,16,,,,,,,,,,,,,,,,15,,58,0
7679,note_on,,29,0,16,,,,,,,,,,,,,,,,15,,65,0
7679,note_on,,0,0,16,,,,,,,,,,,,,,,,15,,62,0
7679,note_on,,29,0,15,,,,,,,,,,,,,,,,13,,48,0
7679,note_on,,29,0,11,,,,,,,,,,,,,,,,8,,48,0
7680,note_on,,1,0,11,,,,,,,,,,,,,,,,8,,50,72
7680,note_on,,1,0,9,,,,,,,,,,,,,,,,6,,70,72
7680,note_on,,121,0,5,,,,,,,,,,,,,,,,0,,77,72
7680,note_on,,1,0,14,,,,,,,,,,,,,,,,12,,65,72
7680,note_on,,1,0,13,,,,,,,,,,,,,,,,11,,82,72
7680,note_on,,1,0,15,,,,,,,,,,,,,,,,13,,46,72
7680,note_on,,121,0,6,,,,,,,,,,,,,,,,1,,77,72
7680,note_on,,1,0,12,,,,,,,,,,,,,,,,10,,62,72
7680,note_on,,0,0,16,,,,,,,,,,,,,,,,15,,50,72
7680,note_on,,0,0,16,,,,,,,,,,,,,,,,15,,58,72
7680,note_on,,0,0,16,,,,,,,,,,,,,,,,15,,70,72
7680,note_on,,1,0,16,,,,,,,,,,,,,,,,15,,46,72
7680,note_on,,0,0,16,,,,,,,,,,,,,,,,15,,65,72
7680,note_on,,1,0,7,,,,,,,,,,,,,,,,2,,46,72
7680,note_on,,121,0,8,,,,,,,,,,,,,,,,5,,77,72
7680,note_on,,121,0,10,,,,,,,,,,,,,,,,7,,62,72
7709,note_on,,29,0,11,,,,,,,,,,,,,,,,8,,50,0
7709,note_on,,29,0,12,,,,,,,,,,,,,,,,10,,62,0
7709,note_on,,29,0,14,,,,,,,,,,,,,,,,12,,65,0
7710,note_on,,1,0,11,,,,,,,,,,,,,,,,8,,51,72
7710,note_on,,1,0,12,,,,,,,,,,,,,,,,10,,63,72
7710,note_on,,1,0,14,,,,,,,,,,,,,,,,12,,65,72
7739,note_on,,29,0,11,,,,,,,,,,,,,,,,8,,51,0
7739,note_on,,59,0,7,,,,,,,,,,,,,,,,2,,46,0
7739,note_on,,29,0,14,,,,,,,,,,,,,,,,12,,65,0
7739,note_on,,59,0,15,,,,,,,,,,,,,,,,13,,46,0
7739,note_on,,59,0,16,,,,,,,,,,,,,,,,15,,46,0
7739,note_on,,29,0,12,,,,,,,,,,,,,,,,10,,63,0
7740,note_on,,1,0,7,,,,,,,,,,,,,,,,2,,46,72
7740,note_on,,1,0,12,,,,,,,,,,,,,,,,10,,62,72
7740,note_on,,1,0,14,,,,,,,,,,,,,,,,12,,67,72
7740,note_on,,1,0,11,,,,,,,,,,,,,,,,8,,50,72
7740,note_on,,1,0,15,,,,,,,,,,,,,,,,13,,46,72
7740,note_on,,1,0,16,,,,,,,,,,,,,,,,15,,46,72
7769,note_on,,89,0,9,,,,,,,,,,,,,,,,6,,70,0
7769,note_on,,29,0,14,,,,,,,,,,,,,,,,12,,67,0
7769,note_on,,29,0,11,,,,,,,,,,,,,,,,8,,50,0
7769,note_on,,29,0,12,,,,,,,,,,,,,,,,10,,62,0
7769,note_on,,89,0,13,,,,,,,,,,,,,,,,11,,82,0
7770,note_on,,1,0,14,,,,,,,,,,,,,,,,12,,69,72
7770,note_on,,1,0,11,,,,,,,,,,,,,,,,8,,51,72
7770,note_on,,1,0,12,,,,,,,,,,,,,,,,10,,63,72
7770,note_on,,1,0,13,,,,,,,,,,,,,,,,11,,77,72
7770,note_on,,1,0,9,,,,,,,,,,,,,,,,6,,65,72
7799,note_on,,59,0,16,,,,,,,,,,,,,,,,15,,46,0
7799,note_on,,119,0,6,,,,,,,,,,,,,,,,1,,77,0
7799,note_on,,29,0,9,,,,,,,,,,,,,,,,6,,65,0
7799,note_on,,29,0,13,,,,,,,,,,,,,,,,11,,77,0
7799,note_on,,29,0,11,,,,,,,,,,,,,,,,8,,51,0
7799,note_on,,29,0,12,,,,,,,,,,,,,,,,10,,63,0
7799,note_on,,119,0,10,,,,,,,,,,,,,,,,7,,62,0
7799,note_on,,119,0,8,,,,,,,,,,,,,,,,5,,77,0
7799,note_on,,29,0,14,,,,,,,,,,,,,,,,12,,69,0
7799,note_on,,59,0,15,,,,,,,,,,,,,,,,13,,46,0
7799,note_on,,119,0,5,,,,,,,,,,,,,,,,0,,77,0
7799,note_on,,59,0,7,,,,,,,,,,,,,,,,2,,46,0
7800,note_on,,1,0,13,,,,,,,,,,,,,,,,11,,77,72
7800,note_on,,1,0,12,,,,,,,,,,,,,,,,10,,65,72
7800,note_on,,1,0,15,,,,,,,,,,,,,,,,13,,46,72
7800,note_on,,1,0,11,,,,,,,,,,,,,,,,8,,53,72
7800,note_on,,1,0,14,,,,,,,,,,,,,,,,12,,70,72
7800,note_on,,1,0,9,,,,,,,,,,,,,,,,6,,65,72
7800,note_on,,1,0,16,,,,,,,,,,,,,,,,15,,46,72
7800,note_on,,1,0,5,,,,,,,,,,,,,,,,0,,77,72
7800,note_on,,1,0,10,,,,,,,,,,,,,,,,7,,62,72
7800,note_on,,1,0,7,,,,,,,,,,,,,,,,2,,46,72
7800,note_on,,1,0,8,,,,,,,,,,,,,,,,5,,77,72
7800,note_on,,1,0,6,,,,,,,,,,,,,,,,1,,77,72
7829,note_on,,29,0,11,,,,,,,,,,,,,,,,8,,53,0
7829,note_on,,29,0,12,,,,,,,,,,,,,,,,10,,65,0
7830,note_on,,1,0,11,,,,,,,,,,,,,,,,8,,53,72
7830,note_on,,1,0,12,,,,,,,,,,,,,,,,10,,65,72
7859,note_on,,59,0,16,,,,,,,,,,,,,,,,15,,46,0
7859,note_on,,59,0,9,,,,,,,,,,,,,,,,6,,65,0
7859,note_on,,59,0,6,,,,,,,,,,,,,,,,1,,77,0
7859,note_on,,29,0,11,,,,,,,,,,,,,,,,8,,53,0
7859,note_on,,59,0,13,,,,,,,,,,,,,,,,11,,77,0
7859,note_on,,59,0,7,,,,,,,,,,,,,,,,2,,46,0
7859,note_on,,59,0,15,,,,,,,,,,,,,,,,13,,46,0
7859,note_on,,59,0,14,,,,,,,,,,,,,,,,12,,70,0
7859,note_on,,29,0,12,,,,,,,,,,,,,,,,10,,65,0
7859,note_on,,59,0,5,,,,,,,,,,,,,,,,0,,77,0
7859,note_on,,59,0,8,,,,,,,,,,,,,,,,5,,77,0
7859,note_on,,59,0,10,,,,,,,,,,,,,,,,7,,62,0
7860,note_on,,1,0,6,,,,,,,,,,,,,,,,1,,77,72
7860,note_on,,1,0,16,,,,,,,,,,,,,,,,15,,46,72
7860,note_on,,1,0,5,,,,,,,,,,,,,,,,0,,77,72
7860,note_on,,1,0,9,,,,,,,,,,,,,,,,6,,65,72
7860,note_on,,1,0,15,,,,,,,,,,,,,,,,13,,46,72
7860,note_on,,1,0,14,,,,,,,,,,,,,,,,12,,62,72
7860,note_on,,1,0,11,,,,,,,,,,,,,,,,8,,55,72
7860,note_on,,1,0,8,,,,,,,,,,,,,,,,5,,77,72
7860,note_on,,1,0,12,,,,,,,,,,,,,,,,10,,67,72
7860,note_on,,1,0,13,,,,,,,,,,,,,,,,11,,77,72
7860,note_on,,1,0,10,,,,,,,,,,,,,,,,7,,62,72
7860,note_on,,1,0,7,,,,,,,,,,,,,,,,2,,46,72
7889,note_on,,29,0,11,,,,,,,,,,,,,,,,8,,55,0
7889,note_on,,29,0,12,,,,,,,,,,,,,,,,10,,67,0
7890,note_on,,1,0,12,,,,,,,,,,,,,,,,10,,69,72
7890,note_on,,1,0,11,,,,,,,,,,,,,,,,8,,57,72
7919,note_on,,0,0,16,,,,,,,,,,,,,,,,15,,46,0
7919,note_on,,59,0,15,,,,,,,,,,,,,,,,13,,46,0
7919,note_on,,59,0,8,,,,,,,,,,,,,,,,5,,77,0
7919,note_on,,59,0,14,,,,,,,,,,,,,,,,12,,62,0
7919,note_on,,0,0,16,,,,,,,,,,,,,,,,15,,65,0
7919,note_on,,0,0,16,,,,,,,,,,,,,,,,15,,50,0
7919,note_on,,59,0,9,,,,,,,,,,,,,,,,6,,65,0
7919,note_on,,59,0,10,,,,,,,,,,,,,,,,7,,62,0
7919,note_on,,59,0,16,,,,,,,,,,,,,,,,15,,70,0
7919,note_on,,0,0,16,,,,,,,,,,,,,,,,15,,58,0
7919,note_on,,59,0,6,,,,,,,,,,,,,,,,1,,77,0
7919,note_on,,29,0,11,,,,,,,,,,,,,,,,8,,57,0
7919,note_on,,59,0,7,,,,,,,,,,,,,,,,2,,46,0
7919,note_on,,59,0,5,,,,,,,,,,,,,,,,0,,77,0
7919,note_on,,29,0,12,,,,,,,,,,,,,,,,10,,69,0
7920,note_on,,0,0,16,,,,,,,,,,,,,,,,15,,58,72
7920,note_on,,0,0,16,,,,,,,,,,,,,,,,15,,62,72
7920,note_on,,0,0,16,,,,,,,,,,,,,,,,15,,53,72
7920,note_on,,1,0,10,,,,,,,,,,,,,,,,7,,65,72
7920,note_on,,1,0,7,,,,,,,,,,,,,,,,2,,46,72
7920,note_on,,1,0,8,,,,,,,,,,,,,,,,5,,65,72
7920,note_on,,1,0,15,,,,,,,,,,,,,,,,13,,46,72
7920,note_on,,1,0,14,,,,,,,,,,,,,,,,12,,62,72
7920,note_on,,1,0,16,,,,,,,,,,,,,,,,15,,46,72
7920,note_on,,1,0,11,,,,,,,,,,,,,,,,8,,58,72
7920,note_on,,1,0,6,,,,,,,,,,,,,,,,1,,65,72
7920,note_on,,1,0,9,,,,,,,,,,,,,,,,6,,58,72
7920,note_on,,1,0,12,,,,,,,,,,,,,,,,10,,70,72
7920,note_on,,1,0,5,,,,,,,,,,,,,,,,0,,65,72
7949,note_on,,29,0,9,,,,,,,,,,,,,,,,6,,58,0
7949,note_on,,29,0,14,,,,,,,,,,,,,,,,12,,62,0
7949,note_on,,29,0,12,,,,,,,,,,,,,,,,10,,70,0
7949,note_on,,89,0,13,,,,,,,,,,,,,,,,11,,77,0
7950,note_on,,1,0,12,,,,,,,,,,,,,,,,10,,72,72
7950,note_on,,1,0,9,,,,,,,,,,,,,,,,6,,60,72
7950,note_on,,1,0,13,,,,,,,,,,,,,,,,11,,77,72
7950,note_on,,1,0,14,,,,,,,,,,,,,,,,12,,63,72
7979,note_on,,29,0,12,,,,,,,,,,,,,,,,10,,72,0
7979,note_on,,59,0,7,,,,,,,,,,,,,,,,2,,46,0
7979,note_on,,29,0,9,,,,,,,,,,,,,,,,6,,60,0
7979,note_on,,59,0,6,,,,,,,,,,,,,,,,1,,65,0
7979,note_on,,59,0,15,,,,,,,,,,,,,,,,13,,46,0
7979,note_on,,59,0,5,,,,,,,,,,,,,,,,0,,65,0
7979,note_on,,59,0,8,,,,,,,,,,,,,,,,5,,65,0
7979,note_on,,29,0,14,,,,,,,,,,,,,,,,12,,63,0
7979,note_on,,59,0,10,,,,,,,,,,,,,,,,7,,65,0
7979,note_on,,59,0,16,,,,,,,,,,,,,,,,15,,46,0
7979,note_on,,29,0,13,,,,,,,,,,,,,,,,11,,77,0
7980,note_on,,1,0,5,,,,,,,,,,,,,,,,0,,67,72
7980,note_on,,1,0,12,,,,,,,,,,,,,,,,10,,70,72
7980,note_on,,1,0,8,,,,,,,,,,,,,,,,5,,67,72
7980,note_on,,1,0,13,,,,,,,,,,,,,,,,11,,79,72
7980,note_on,,1,0,7,,,,,,,,,,,,,,,,2,,46,72
7980,note_on,,1,0,6,,,,,,,,,,,,,,,,1,,67,72
7980,note_on,,1,0,9,,,,,,,,,,,,,,,,6,,58,72
7980,note_on,,1,0,10,,,,,,,,,,,,,,,,7,,65,72
7980,note_on,,1,0,14,,,,,,,,,,,,,,,,12,,62,72
7980,note_on,,1,0,16,,,,,,,,,,,,,,,,15,,46,72
7980,note_on,,1,0,15,,,,,,,,,,,,,,,,13,,46,72
8009,note_on,,89,0,11,,,,,,,,,,,,,,,,8,,58,0
8009,note_on,,29,0,10,,,,,,,,,,,,,,,,7,,65,0
8009,note_on,,29,0,5,,,,,,,,,,,,,,,,0,,67,0
8009,note_on,,29,0,8,,,,,,,,,,,,,,,,5,,67,0
8009,note_on,,29,0,13,,,,,,,,,,,,,,,,11,,79,0
8009,note_on,,29,0,14,,,,,,,,,,,,,,,,12,,62,0
8009,note_on,,29,0,6,,,,,,,,,,,,,,,,1,,67,0
8009,note_on,,29,0,12,,,,,,,,,,,,,,,,10,,70,0
8009,note_on,,29,0,9,,,,,,,,,,,,,,,,6,,58,0
8010,note_on,,1,0,14,,,,,,,,,,,,,,,,12,,63,72
8010,note_on,,1,0,11,,,,,,,,,,,,,,,,8,,53,72
8010,note_on,,1,0,5,,,,,,,,,,,,,,,,0,,69,72
8010,note_on,,1,0,12,,,,,,,,,,,,,,,,10,,72,72
8010,note_on,,1,0,6,,,,,,,,,,,,,,,,1,,69,72
8010,note_on,,1,0,13,,,,,,,,,,,,,,,,11,,81,72
8010,note_on,,1,0,10,,,,,,,,,,,,,,,,7,,63,72
8010,note_on,,1,0,9,,,,,,,,,,,,,,,,6,,60,72
8010,note_on,,1,0,8,,,,,,,,,,,,,,,,5,,69,72
8039,note_on,,29,0,10,,,,,,,,,,,,,,,,7,,63,0
8039,note_on,,29,0,12,,,,,,,,,,,,,,,,10,,72,0
8039,note_on,,59,0,15,,,,,,,,,,,,,,,,13,,46,0
8039,note_on,,29,0,8,,,,,,,,,,,,,,,,5,,69,0
8039,note_on,,29,0,13,,,,,,,,,,,,,,,,11,,81,0
8039,note_on,,29,0,14,,,,,,,,,,,,,,,,12,,63,0
8039,note_on,,29,0,9,,,,,,,,,,,,,,,,6,,60,0
8039,note_on,,59,0,16,,,,,,,,,,,,,,,,15,,46,0
8039,note_on,,29,0,5,,,,,,,,,,,,,,,,0,,69,0
8039,note_on,,59,0,7,,,,,,,,,,,,,,,,2,,46,0
8039,note_on,,29,0,11,,,,,,,,,,,,,,,,8,,53,0
8039,note_on,,29,0,6,,,,,,,,,,,,,,,,1,,69,0
8040,note_on,,1,0,9,,,,,,,,,,,,,,,,6,,62,72
8040,note_on,,1,0,16,,,,,,,,,,,,,,,,15,,46,72
8040,note_on,,1,0,15,,,,,,,,,,,,,,,,13,,46,72
8040,note_on,,1,0,13,,,,,,,,,,,,,,,,11,,82,72
8040,note_on,,1,0,7,,,,,,,,,,,,,,,,2,,46,72
8040,note_on,,1,0,14,,,,,,,,,,,,,,,,12,,65,72
8040,note_on,,1,0,5,,,,,,,,,,,,,,,,0,,70,72
8040,note_on,,1,0,8,,,,,,,,,,,,,,,,5,,70,72
8040,note_on,,1,0,6,,,,,,,,,,,,,,,,1,,70,72
8040,note_on,,1,0,11,,,,,,,,,,,,,,,,8,,53,72
8040,note_on,,1,0,12,,,,,,,,,,,,,,,,10,,74,72
8040,note_on,,1,0,10,,,,,,,,,,,,,,,,7,,62,72
8069,note_on,,29,0,9,,,,,,,,,,,,,,,,6,,62,0
8069,note_on,,29,0,14,,,,,,,,,,,,,,,,12,,65,0
8069,note_on,,29,0,12,,,,,,,,,,,,,,,,10,,74,0
8070,note_on,,1,0,12,,,,,,,,,,,,,,,,10,,75,72
8070,note_on,,1,0,14,,,,,,,,,,,,,,,,12,,67,72
8070,note_on,,1,0,9,,,,,,,,,,,,,,,,6,,63,72
8099,note_on,,59,0,6,,,,,,,,,,,,,,,,1,,70,0
8099,note_on,,29,0,12,,,,,,,,,,,,,,,,10,,75,0
8099,note_on,,59,0,13,,,,,,,,,,,,,,,,11,,82,0
8099,note_on,,59,0,11,,,,,,,,,,,,,,,,8,,53,0
8099,note_on,,59,0,10,,,,,,,,,,,,,,,,7,,62,0
8099,note_on,,59,0,8,,,,,,,,,,,,,,,,5,,70,0
8099,note_on,,29,0,9,,,,,,,,,,,,,,,,6,,63,0
8099,note_on,,29,0,14,,,,,,,,,,,,,,,,12,,67,0
8099,note_on,,59,0,16,,,,,,,,,,,,,,,,15,,46,0
8099,note_on,,59,0,7,,,,,,,,,,,,,,,,2,,46,0
8099,note_on,,59,0,5,,,,,,,,,,,,,,,,0,,70,0
8099,note_on,,59,0,15,,,,,,,,,,,,,,,,13,,46,0
8100,note_on,,1,0,11,,,,,,,,,,,,,,,,8,,53,72
8100,note_on,,1,0,14,,,,,,,,,,,,,,,,12,,65,72
8100,note_on,,1,0,10,,,,,,,,,,,,,,,,7,,60,72
8100,note_on,,1,0,8,,,,,,,,,,,,,,,,5,,65,72
8100,note_on,,1,0,6,,,,,,,,,,,,,,,,1,,65,72
8100,note_on,,1,0,16,,,,,,,,,,,,,,,,15,,46,72
8100,note_on,,1,0,7,,,,,,,,,,,,,,,,2,,46,72
8100,note_on,,1,0,9,,,,,,,,,,,,,,,,6,,62,72
8100,note_on,,1,0,12,,,,,,,,,,,,,,,,10,,74,72
8100,note_on,,1,0,15,,,,,,,,,,,,,,,,13,,46,72
8100,note_on,,1,0,13,,,,,,,,,,,,,,,,11,,77,72
8100,note_on,,1,0,5,,,,,,,,,,,,,,,,0,,65,72
8129,note_on,,29,0,12,,,,,,,,,,,,,,,,10,,74,0
8129,note_on,,29,0,14,,,,,,,,,,,,,,,,12,,65,0
8129,note_on,,29,0,9,,,,,,,,,,,,,,,,6,,62,0
8130,note_on,,1,0,9,,,,,,,,,,,,,,,,6,,63,72
8130,note_on,,1,0,14,,,,,,,,,,,,,,,,12,,67,72
8130,note_on,,1,0,12,,,,,,,,,,,,,,,,10,,75,72
8159,note_on,,59,0,8,,,,,,,,,,,,,,,,5,,65,0
8159,note_on,,29,0,14,,,,,,,,,,,,,,,,12,,67,0
8159,note_on,,59,0,6,,,,,,,,,,,,,,,,1,,65,0
8159,note_on,,59,0,7,,,,,,,,,,,,,,,,2,,46,0
8159,note_on,,59,0,13,,,,,,,,,,,,,,,,11,,77,0
8159,note_on,,29,0,9,,,,,,,,,,,,,,,,6,,63,0
8159,note_on,,0,0,16,,,,,,,,,,,,,,,,15,,58,0
8159,note_on,,59,0,15,,,,,,,,,,,,,,,,13,,46,0
8159,note_on,,29,0,12,,,,,,,,,,,,,,,,10,,75,0
8159,note_on,,0,0,16,,,,,,,,,,,,,,,,15,,62,0
8159,note_on,,59,0,16,,,,,,,,,,,,,,,,15,,53,0
8159,note_on,,0,0,16,,,,,,,,,,,,,,,,15,,46,0
8159,note_on,,59,0,10,,,,,,,,,,,,,,,,7,,60,0
8159,note_on,,59,0,5,,,,,,,,,,,,,,,,0,,65,0
8159,note_on,,59,0,11,,,,,,,,,,,,,,,,8,,53,0
8160,note_on,,1,0,16,,,,,,,,,,,,,,,,15,,46,72
8160,note_on,,0,0,16,,,,,,,,,,,,,,,,15,,58,72
8160,note_on,,0,0,16,,,,,,,,,,,,,,,,15,,74,72
8160,note_on,,0,0,16,,,,,,,,,,,,,,,,15,,70,72
8160,note_on,,0,0,16,,,,,,,,,,,,,,,,15,,65,72
8160,note_on,,1,0,7,,,,,,,,,,,,,,,,2,,46,72
8160,note_on,,1,0,8,,,,,,,,,,,,,,,,5,,77,72
8160,note_on,,1,0,5,,,,,,,,,,,,,,,,0,,77,72
8160,note_on,,1,0,6,,,,,,,,,,,,,,,,1,,77,72
8160,note_on,,1,0,13,,,,,,,,,,,,,,,,11,,74,72
8160,note_on,,1,0,15,,,,,,,,,,,,,,,,13,,46,72
8160,note_on,,1,0,12,,,,,,,,,,,,,,,,10,,77,72
8160,note_on,,1,0,10,,,,,,,,,,,,,,,,7,,58,72
8160,note_on,,1,0,11,,,,,,,,,,,,,,,,8,,46,72
8160,note_on,,1,0,9,,,,,,,,,,,,,,,,6,,62,72
8160,note_on,,1,0,14,,,,,,,,,,,,,,,,12,,65,72
8189,note_on,,29,0,12,,,,,,,,,,,,,,,,10,,77,0
8189,note_on,,29,0,13,,,,,,,,,,,,,,,,11,,74,0
8189,note_on,,29,0,11,,,,,,,,,,,,,,,,8,,46,0
8189,note_on,,29,0,9,,,,,,,,,,,,,,,,6,,62,0
8190,note_on,,1,0,11,,,,,,,,,,,,,,,,8,,48,72
8190,note_on,,1,0,9,,,,,,,,,,,,,,,,6,,63,72
8190,note_on,,1,0,13,,,,,,,,,,,,,,,,11,,75,72
8190,note_on,,1,0,12,,,,,,,,,,,,,,,,10,,77,72
8219,note_on,,59,0,16,,,,,,,,,,,,,,,,15,,46,0
8219,note_on,,59,0,15,,,,,,,,,,,,,,,,13,,46,0
8219,note_on,,29,0,11,,,,,,,,,,,,,,,,8,,48,0
8219,note_on,,29,0,12,,,,,,,,,,,,,,,,10,,77,0
8219,note_on,,29,0,9,,,,,,,,,,,,,,,,6,,63,0
8219,note_on,,59,0,5,,,,,,,,,,,,,,,,0,,77,0
8219,note_on,,59,0,14,,,,,,,,,,,,,,,,12,,65,0
8219,note_on,,59,0,10,,,,,,,,,,,,,,,,7,,58,0
8219,note_on,,59,0,8,,,,,,,,,,,,,,,,5,,77,0
8219,note_on,,29,0,13,,,,,,,,,,,,,,,,11,,75,0
8219,note_on,,59,0,6,,,,,,,,,,,,,,,,1,,77,0
8219,note_on,,59,0,7,,,,,,,,,,,,,,,,2,,46,0
8220,note_on,,1,0,12,,,,,,,,,,,,,,,,10,,79,72
8220,note_on,,1,0,13,,,,,,,,,,,,,,,,11,,74,72
8220,note_on,,1,0,10,,,,,,,,,,,,,,,,7,,58,72
8220,note_on,,1,0,11,,,,,,,,,,,,,,,,8,,46,72
8220,note_on,,1,0,9,,,,,,,,,,,,,,,,6,,62,72
8220,note_on,,1,0,15,,,,,,,,,,,,,,,,13,,46,72
8220,note_on,,1,0,16,,,,,,,,,,,,,,,,15,,46,72
8220,note_on,,1,0,14,,,,,,,,,,,,,,,,12,,58,72
8220,note_on,,1,0,5,,,,,,,,,,,,,,,,0,,77,72
8220,note_on,,1,0,8,,,,,,,,,,,,,,,,5,,77,72
8220,note_on,,1,0,7,,,,,,,,,,,,,,,,2,,46,72
8220,note_on,,1,0,6,,,,,,,,,,,,,,,,1,,77,72
8249,note_on,,29,0,11,,,,,,,,,,,,,,,,8,,46,0
8249,note_on,,29,0,14,,,,,,,,,,,,,,,,12,,58,0
8249,note_on,,29,0,12,,,,,,,,,,,,,,,,10,,79,0
8249,note_on,,29,0,9,,,,,,,,,,,,,,,,6,,62,0
8249,note_on,,29,0,13,,,,,,,,,,,,,,,,11,,74,0
8250,note_on,,1,0,13,,,,,,,,,,,,,,,,11,,75,72
8250,note_on,,1,0,12,,,,,,,,,,,,,,,,10,,81,72
8250,note_on,,1,0,14,,,,,,,,,,,,,,,,12,,60,72
8250,note_on,,1,0,11,,,,,,,,,,,,,,,,8,,48,72
8250,note_on,,1,0,9,,,,,,,,,,,,,,,,6,,63,72
8279,note_on,,59,0,10,,,,,,,,,,,,,,,,7,,58,0
8279,note_on,,59,0,15,,,,,,,,,,,,,,,,13,,46,0
8279,note_on,,59,0,5,,,,,,,,,,,,,,,,0,,77,0
8279,note_on,,59,0,6,,,,,,,,,,,,,,,,1,,77,0
8279,note_on,,29,0,14,,,,,,,,,,,,,,,,12,,60,0
8279,note_on,,59,0,8,,,,,,,,,,,,,,,,5,,77,0
8279,note_on,,59,0,7,,,,,,,,,,,,,,,,2,,46,0
8279,note_on,,29,0,12,,,,,,,,,,,,,,,,10,,81,0
8279,note_on,,29,0,13,,,,,,,,,,,,,,,,11,,75,0
8279,note_on,,29,0,9,,,,,,,,,,,,,,,,6,,63,0
8279,note_on,,29,0,11,,,,,,,,,,,,,,,,8,,48,0
8279,note_on,,59,0,16,,,,,,,,,,,,,,,,15,,46,0
8280,note_on,,1,0,7,,,,,,,,,,,,,,,,2,,46,72
8280,note_on,,1,0,13,,,,,,,,,,,,,,,,11,,77,72
8280,note_on,,1,0,15,,,,,,,,,,,,,,,,13,,46,72
8280,note_on,,1,0,9,,,,,,,,,,,,,,,,6,,65,72
8280,note_on,,1,0,5,,,,,,,,,,,,,,,,0,,70,72
8280,note_on,,1,0,11,,,,,,,,,,,,,,,,8,,46,72
8280,note_on,,1,0,14,,,,,,,,,,,,,,,,12,,58,72
8280,note_on,,1,0,16,,,,,,,,,,,,,,,,15,,46,72
8280,note_on,,1,0,12,,,,,,,,,,,,,,,,10,,82,72
8280,note_on,,1,0,6,,,,,,,,,,,,,,,,1,,70,72
8280,note_on,,1,0,8,,,,,,,,,,,,,,,,5,,70,72
8309,note_on,,29,0,11,,,,,,,,,,,,,,,,8,,46,0
8309,note_on,,29,0,14,,,,,,,,,,,,,,,,12,,58,0
8309,note_on,,29,0,9,,,,,,,,,,,,,,,,6,,65,0
8309,note_on,,29,0,13,,,,,,,,,,,,,,,,11,,77,0
8310,note_on,,1,0,11,,,,,,,,,,,,,,,,8,,48,72
8310,note_on,,1,0,9,,,,,,,,,,,,,,,,6,,65,72
8310,note_on,,1,0,13,,,,,,,,,,,,,,,,11,,77,72
8310,note_on,,1,0,14,,,,,,,,,,,,,,,,12,,60,72
8339,note_on,,59,0,7,,,,,,,,,,,,,,,,2,,46,0
8339,note_on,,59,0,12,,,,,,,,,,,,,,,,10,,82,0
8339,note_on,,59,0,6,,,,,,,,,,,,,,,,1,,70,0
8339,note_on,,29,0,9,,,,,,,,,,,,,,,,6,,65,0
8339,note_on,,29,0,13,,,,,,,,,,,,,,,,11,,77,0
8339,note_on,,29,0,11,,,,,,,,,,,,,,,,8,,48,0
8339,note_on,,59,0,8,,,,,,,,,,,,,,,,5,,70,0
8339,note_on,,59,0,16,,,,,,,,,,,,,,,,15,,46,0
8339,note_on,,59,0,15,,,,,,,,,,,,,,,,13,,46,0
8339,note_on,,59,0,5,,,,,,,,,,,,,,,,0,,70,0
8339,note_on,,29,0,14,,,,,,,,,,,,,,,,12,,60,0
8340,note_on,,1,0,13,,,,,,,,,,,,,,,,11,,79,72
8340,note_on,,1,0,6,,,,,,,,,,,,,,,,1,,77,72
8340,note_on,,1,0,8,,,,,,,,,,,,,,,,5,,77,72
8340,note_on,,1,0,9,,,,,,,,,,,,,,,,6,,67,72
8340,note_on,,1,0,5,,,,,,,,,,,,,,,,0,,77,72
8340,note_on,,1,0,16,,,,,,,,,,,,,,,,15,,46,72
8340,note_on,,1,0,15,,,,,,,,,,,,,,,,13,,46,72
8340,note_on,,61,0,10,,,,,,,,,,,,,,,,7,,62,72
8340,note_on,,1,0,7,,,,,,,,,,,,,,,,2,,46,72
8340,note_on,,1,0,14,,,,,,,,,,,,,,,,12,,58,72
8340,note_on,,1,0,11,,,,,,,,,,,,,,,,8,,46,72
8340,note_on,,1,0,12,,,,,,,,,,,,,,,,10,,77,72
8369,note_on,,29,0,9,,,,,,,,,,,,,,,,6,,67,0
8369,note_on,,29,0,13,,,,,,,,,,,,,,,,11,,79,0
8369,note_on,,29,0,14,,,,,,,,,,,,,,,,12,,58,0
8369,note_on,,29,0,11,,,,,,,,,,,,,,,,8,,46,0
8370,note_on,,1,0,14,,,,,,,,,,,,,,,,12,,60,72
8370,note_on,,1,0,9,,,,,,,,,,,,,,,,6,,69,72
8370,note_on,,1,0,13,,,,,,,,,,,,,,,,11,,81,72
8370,note_on,,1,0,11,,,,,,,,,,,,,,,,8,,48,72
8399,note_on,,0,0,16,,,,,,,,,,,,,,,,15,,70,0
8399,note_on,,0,0,16,,,,,,,,,,,,,,,,15,,65,0
8399,note_on,,0,0,16,,,,,,,,,,,,,,,,15,,46,0
8399,note_on,,29,0,14,,,,,,,,,,,,,,,,12,,60,0
8399,note_on,,29,0,13,,,,,,,,,,,,,,,,11,,81,0
8399,note_on,,59,0,15,,,,,,,,,,,,,,,,13,,46,0
8399,note_on,,29,0,11,,,,,,,,,,,,,,,,8,,48,0
8399,note_on,,59,0,12,,,,,,,,,,,,,,,,10,,77,0
8399,note_on,,29,0,9,,,,,,,,,,,,,,,,6,,69,0
8399,note_on,,59,0,7,,,,,,,,,,,,,,,,2,,46,0
8399,note_on,,0,0,16,,,,,,,,,,,,,,,,15,,74,0
8399,note_on,,59,0,5,,,,,,,,,,,,,,,,0,,77,0
8399,note_on,,59,0,8,,,,,,,,,,,,,,,,5,,77,0
8399,note_on,,59,0,6,,,,,,,,,,,,,,,,1,,77,0
8399,note_on,,59,0,10,,,,,,,,,,,,,,,,7,,62,0
8399,note_on,,59,0,16,,,,,,,,,,,,,,,,15,,58,0
8400,note_on,,0,0,16,,,,,,,,,,,,,,,,15,,70,72
8400,note_on,,0,0,16,,,,,,,,,,,,,,,,15,,65,72
8400,note_on,,1,0,16,,,,,,,,,,,,,,,,15,,46,72
8400,note_on,,0,0,16,,,,,,,,,,,,,,,,15,,62,72
8400,note_on,,1,0,13,,,,,,,,,,,,,,,,11,,82,72
8400,note_on,,1,0,6,,,,,,,,,,,,,,,,1,,77,72
8400,note_on,,1,0,8,,,,,,,,,,,,,,,,5,,77,72
8400,note_on,,1,0,9,,,,,,,,,,,,,,,,6,,70,72
8400,note_on,,1,0,5,,,,,,,,,,,,,,,,0,,77,72
8400,note_on,,1,0,14,,,,,,,,,,,,,,,,12,,53,72
8400,note_on,,1,0,7,,,,,,,,,,,,,,,,2,,46,72
8400,note_on,,1,0,12,,,,,,,,,,,,,,,,10,,62,72
8400,note_on,,1,0,10,,,,,,,,,,,,,,,,7,,58,72
8400,note_on,,1,0,11,,,,,,,,,,,,,,,,8,,50,72
8400,note_on,,1,0,15,,,,,,,,,,,,,,,,13,,46,72
8429,note_on,,29,0,12,,,,,,,,,,,,,,,,10,,62,0
8429,note_on,,29,0,10,,,,,,,,,,,,,,,,7,,58,0
8429,note_on,,29,0,11,,,,,,,,,,,,,,,,8,,50,0
8430,note_on,,1,0,12,,,,,,,,,,,,,,,,10,,63,72
8430,note_on,,1,0,10,,,,,,,,,,,,,,,,7,,60,72
8430,note_on,,1,0,11,,,,,,,,,,,,,,,,8,,51,72
8459,note_on,,59,0,6,,,,,,,,,,,,,,,,1,,77,0
8459,note_on,,29,0,12,,,,,,,,,,,,,,,,10,,63,0
8459,note_on,,59,0,16,,,,,,,,,,,,,,,,15,,46,0
8459,note_on,,59,0,8,,,,,,,,,,,,,,,,5,,77,0
8459,note_on,,59,0,7,,,,,,,,,,,,,,,,2,,46,0
8459,note_on,,29,0,10,,,,,,,,,,,,,,,,7,,60,0
8459,note_on,,59,0,13,,,,,,,,,,,,,,,,11,,82,0
8459,note_on,,29,0,11,,,,,,,,,,,,,,,,8,,51,0
8459,note_on,,59,0,14,,,,,,,,,,,,,,,,12,,53,0
8459,note_on,,59,0,5,,,,,,,,,,,,,,,,0,,77,0
8459,note_on,,59,0,15,,,,,,,,,,,,,,,,13,,46,0
8460,note_on,,1,0,15,,,,,,,,,,,,,,,,13,,46,72
8460,note_on,,1,0,6,,,,,,,,,,,,,,,,1,,70,72
8460,note_on,,1,0,12,,,,,,,,,,,,,,,,10,,62,72
8460,note_on,,1,0,14,,,,,,,,,,,,,,,,12,,58,72
8460,note_on,,1,0,5,,,,,,,,,,,,,,,,0,,70,72
8460,note_on,,1,0,16,,,,,,,,,,,,,,,,15,,46,72
8460,note_on,,1,0,10,,,,,,,,,,,,,,,,7,,58,72
8460,note_on,,1,0,11,,,,,,,,,,,,,,,,8,,50,72
8460,note_on,,1,0,7,,,,,,,,,,,,,,,,2,,46,72
8460,note_on,,1,0,13,,,,,,,,,,,,,,,,11,,77,72
8460,note_on,,1,0,8,,,,,,,,,,,,,,,,5,,70,72
8489,note_on,,29,0,10,,,,,,,,,,,,,,,,7,,58,0
8489,note_on,,29,0,11,,,,,,,,,,,,,,,,8,,50,0
8489,note_on,,29,0,14,,,,,,,,,,,,,,,,12,,58,0
8489,note_on,,89,0,9,,,,,,,,,,,,,,,,6,,70,0
8489,note_on,,29,0,12,,,,,,,,,,,,,,,,10,,62,0
8490,note_on,,1,0,11,,,,,,,,,,,,,,,,8,,51,72
8490,note_on,,1,0,10,,,,,,,,,,,,,,,,7,,60,72
8490,note_on,,1,0,14,,,,,,,,,,,,,,,,12,,60,72
8490,note_on,,1,0,12,,,,,,,,,,,,,,,,10,,63,72
8490,note_on,,1,0,9,,,,,,,,,,,,,,,,6,,65,72
8519,note_on,,59,0,5,,,,,,,,,,,,,,,,0,,70,0
8519,note_on,,29,0,12,,,,,,,,,,,,,,,,10,,63,0
8519,note_on,,59,0,15,,,,,,,,,,,,,,,,13,,46,0
8519,note_on,,29,0,11,,,,,,,,,,,,,,,,8,,51,0
8519,note_on,,59,0,6,,,,,,,,,,,,,,,,1,,70,0
8519,note_on,,29,0,14,,,,,,,,,,,,,,,,12,,60,0
8519,note_on,,59,0,8,,,,,,,,,,,,,,,,5,,70,0
8519,note_on,,29,0,10,,,,,,,,,,,,,,,,7,,60,0
8519,note_on,,59,0,7,,,,,,,,,,,,,,,,2,,46,0
8519,note_on,,29,0,9,,,,,,,,,,,,,,,,6,,65,0
8519,note_on,,59,0,13,,,,,,,,,,,,,,,,11,,77,0
8519,note_on,,59,0,16,,,,,,,,,,,,,,,,15,,46,0
8520,note_on,,1,0,11,,,,,,,,,,,,,,,,8,,53,72
8520,note_on,,1,0,14,,,,,,,,,,,,,,,,12,,62,72
8520,note_on,,1,0,9,,,,,,,,,,,,,,,,6,,65,72
8520,note_on,,1,0,13,,,,,,,,,,,,,,,,11,,58,72
8520,note_on,,1,0,10,,,,,,,,,,,,,,,,7,,62,72
8520,note_on,,1,0,12,,,,,,,,,,,,,,,,10,,65,72
8520,note_on,,1,0,15,,,,,,,,,,,,,,,,13,,46,72
8520,note_on,,1,0,16,,,,,,,,,,,,,,,,15,,46,72
8520,note_on,,1,0,7,,,,,,,,,,,,,,,,2,,46,72
8549,note_on,,29,0,14,,,,,,,,,,,,,,,,12,,62,0
8549,note_on,,29,0,12,,,,,,,,,,,,,,,,10,,65,0
8549,note_on,,29,0,13,,,,,,,,,,,,,,,,11,,58,0
8549,note_on,,29,0,11,,,,,,,,,,,,,,,,8,,53,0
8549,note_on,,29,0,10,,,,,,,,,,,,,,,,7,,62,0
8550,note_on,,1,0,12,,,,,,,,,,,,,,,,10,,65,72
8550,note_on,,1,0,13,,,,,,,,,,,,,,,,11,,60,72
8550,note_on,,1,0,14,,,,,,,,,,,,,,,,12,,63,72
8550,note_on,,1,0,10,,,,,,,,,,,,,,,,7,,63,72
8550,note_on,,1,0,11,,,,,,,,,,,,,,,,8,,53,72
8579,note_on,,59,0,15,,,,,,,,,,,,,,,,13,,46,0
8579,note_on,,29,0,12,,,,,,,,,,,,,,,,10,,65,0
8579,note_on,,29,0,11,,,,,,,,,,,,,,,,8,,53,0
8579,note_on,,59,0,7,,,,,,,,,,,,,,,,2,,46,0
8579,note_on,,29,0,14,,,,,,,,,,,,,,,,12,,63,0
8579,note_on,,59,0,16,,,,,,,,,,,,,,,,15,,46,0
8579,note_on,,59,0,9,,,,,,,,,,,,,,,,6,,65,0
8579,note_on,,29,0,13,,,,,,,,,,,,,,,,11,,60,0
8579,note_on,,29,0,10,,,,,,,,,,,,,,,,7,,63,0
8580,note_on,,1,0,7,,,,,,,,,,,,,,,,2,,46,72
8580,note_on,,1,0,14,,,,,,,,,,,,,,,,12,,62,72
8580,note_on,,1,0,9,,,,,,,,,,,,,,,,6,,65,72
8580,note_on,,1,0,16,,,,,,,,,,,,,,,,15,,46,72
8580,note_on,,1,0,11,,,,,,,,,,,,,,,,8,,55,72
8580,note_on,,1,0,10,,,,,,,,,,,,,,,,7,,62,72
8580,note_on,,1,0,12,,,,,,,,,,,,,,,,10,,67,72
8580,note_on,,1,0,15,,,,,,,,,,,,,,,,13,,46,72
8580,note_on,,1,0,13,,,,,,,,,,,,,,,,11,,58,72
8609,note_on,,29,0,14,,,,,,,,,,,,,,,,12,,62,0
8609,note_on,,29,0,10,,,,,,,,,,,,,,,,7,,62,0
8609,note_on,,29,0,11,,,,,,,,,,,,,,,,8,,55,0
8609,note_on,,29,0,13,,,,,,,,,,,,,,,,11,,58,0
8609,note_on,,29,0,12,,,,,,,,,,,,,,,,10,,67,0
8610,note_on,,1,0,10,,,,,,,,,,,,,,,,7,,63,72
8610,note_on,,1,0,12,,,,,,,,,,,,,,,,10,,69,72
8610,note_on,,1,0,13,,,,,,,,,,,,,,,,11,,60,72
8610,note_on,,1,0,14,,,,,,,,,,,,,,,,12,,63,72
8610,note_on,,1,0,11,,,,,,,,,,,,,,,,8,,57,72
8639,note_on,,29,0,12,,,,,,,,,,,,,,,,10,,69,0
8639,note_on,,29,0,13,,,,,,,,,,,,,,,,11,,60,0
8639,note_on,,29,0,14,,,,,,,,,,,,,,,,12,,63,0
8639,note_on,,59,0,15,,,,,,,,,,,,,,,,13,,46,0
8639,note_on,,59,0,7,,,,,,,,,,,,,,,,2,,46,0
8639,note_on,,29,0,11,,,,,,,,,,,,,,,,8,,57,0
8639,note_on,,59,0,9,,,,,,,,,,,,,,,,6,,65,0
8639,note_on,,0,0,16,,,,,,,,,,,,,,,,15,,62,0
8639,note_on,,0,0,16,,,,,,,,,,,,,,,,15,,46,0
8639,note_on,,59,0,16,,,,,,,,,,,,,,,,15,,70,0
8639,note_on,,29,0,10,,,,,,,,,,,,,,,,7,,63,0
8639,note_on,,0,0,16,,,,,,,,,,,,,,,,15,,65,0
8640,note_on,,121,0,8,,,,,,,,,,,,,,,,5,,77,72
8640,note_on,,1,0,13,,,,,,,,,,,,,,,,11,,62,72
8640,note_on,,0,0,16,,,,,,,,,,,,,,,,15,,65,72
8640,note_on,,121,0,5,,,,,,,,,,,,,,,,0,,77,72
8640,note_on,,0,0,16,,,,,,,,,,,,,,,,15,,70,72
8640,note_on,,0,0,16,,,,,,,,,,,,,,,,15,,74,72
8640,note_on,,0,0,16,,,,,,,,,,,,,,,,15,,77,72
8640,note_on,,1,0,14,,,,,,,,,,,,,,,,12,,58,72
8640,note_on,,1,0,10,,,,,,,,,,,,,,,,7,,58,72
8640,note_on,,0,0,16,,,,,,,,,,,,,,,,15,,58,72
8640,note_on,,1,0,16,,,,,,,,,,,,,,,,15,,46,72
8640,note_on,,1,0,7,,,,,,,,,,,,,,,,2,,46,72
8640,note_on,,1,0,12,,,,,,,,,,,,,,,,10,,70,72
8640,note_on,,1,0,11,,,,,,,,,,,,,,,,8,,58,72
8640,note_on,,1,0,9,,,,,,,,,,,,,,,,6,,62,72
8640,note_on,,121,0,6,,,,,,,,,,,,,,,,1,,77,72
8640,note_on,,1,0,15,,,,,,,,,,,,,,,,13,,46,72
8669,note_on,,29,0,10,,,,,,,,,,,,,,,,7,,58,0
8669,note_on,,29,0,9,,,,,,,,,,,,,,,,6,,62,0
8669,note_on,,29,0,13,,,,,,,,,,,,,,,,11,,62,0
8669,note_on,,29,0,14,,,,,,,,,,,,,,,,12,,58,0
8670,note_on,,1,0,10,,,,,,,,,,,,,,,,7,,60,72
8670,note_on,,1,0,9,,,,,,,,,,,,,,,,6,,63,72
8670,note_on,,1,0,14,,,,,,,,,,,,,,,,12,,60,72
8670,note_on,,1,0,13,,,,,,,,,,,,,,,,11,,63,72
8699,note_on,,29,0,14,,,,,,,,,,,,,,,,12,,60,0
8699,note_on,,59,0,16,,,,,,,,,,,,,,,,15,,46,0
8699,note_on,,29,0,13,,,,,,,,,,,,,,,,11,,63,0
8699,note_on,,59,0,7,,,,,,,,,,,,,,,,2,,46,0
8699,note_on,,29,0,10,,,,,,,,,,,,,,,,7,,60,0
8699,note_on,,29,0,9,,,,,,,,,,,,,,,,6,,63,0
8699,note_on,,59,0,12,,,,,,,,,,,,,,,,10,,70,0
8699,note_on,,59,0,15,,,,,,,,,,,,,,,,13,,46,0
8700,note_on,,1,0,12,,,,,,,,,,,,,,,,10,,65,72
8700,note_on,,1,0,9,,,,,,,,,,,,,,,,6,,62,72
8700,note_on,,1,0,16,,,,,,,,,,,,,,,,15,,46,72
8700,note_on,,1,0,10,,,,,,,,,,,,,,,,7,,58,72
8700,note_on,,1,0,13,,,,,,,,,,,,,,,,11,,62,72
8700,note_on,,1,0,15,,,,,,,,,,,,,,,,13,,46,72
8700,note_on,,1,0,14,,,,,,,,,,,,,,,,12,,58,72
8700,note_on,,1,0,7,,,,,,,,,,,,,,,,2,,46,72
8729,note_on,,29,0,9,,,,,,,,,,,,,,,,6,,62,0
8729,note_on,,29,0,14,,,,,,,,,,,,,,,,12,,58,0
8729,note_on,,29,0,13,,,,,,,,,,,,,,,,11,,62,0
8729,note_on,,29,0,10,,,,,,,,,,,,,,,,7,,58,0
8729,note_on,,89,0,11,,,,,,,,,,,,,,,,8,,58,0
8730,note_on,,1,0,11,,,,,,,,,,,,,,,,8,,58,72
8730,note_on,,1,0,13,,,,,,,,,,,,,,,,11,,63,72
8730,note_on,,1,0,10,,,,,,,,,,,,,,,,7,,60,72
8730,note_on,,1,0,9,,,,,,,,,,,,,,,,6,,63,72
8730,note_on,,1,0,14,,,,,,,,,,,,,,,,12,,60,72
8759,note_on,,29,0,14,,,,,,,,,,,,,,,,12,,60,0
8759,note_on,,119,0,6,,,,,,,,,,,,,,,,1,,77,0
8759,note_on,,119,0,8,,,,,,,,,,,,,,,,5,,77,0
8759,note_on,,59,0,12,,,,,,,,,,,,,,,,10,,65,0
8759,note_on,,29,0,11,,,,,,,,,,,,,,,,8,,58,0
8759,note_on,,59,0,15,,,,,,,,,,,,,,,,13,,46,0
8759,note_on,,29,0,10,,,,,,,,,,,,,,,,7,,60,0
8759,note_on,,29,0,13,,,,,,,,,,,,,,,,11,,63,0
8759,note_on,,59,0,16,,,,,,,,,,,,,,,,15,,46,0
8759,note_on,,29,0,9,,,,,,,,,,,,,,,,6,,63,0
8759,note_on,,59,0,7,,,,,,,,,,,,,,,,2,,46,0
8759,note_on,,119,0,5,,,,,,,,,,,,,,,,0,,77,0
8760,note_on,,1,0,6,,,,,,,,,,,,,,,,1,,77,72
8760,note_on,,1,0,9,,,,,,,,,,,,,,,,6,,65,72
8760,note_on,,1,0,7,,,,,,,,,,,,,,,,2,,46,72
8760,note_on,,1,0,8,,,,,,,,,,,,,,,,5,,77,72
8760,note_on,,1,0,15,,,,,,,,,,,,,,,,13,,46,72
8760,note_on,,1,0,5,,,,,,,,,,,,,,,,0,,77,72
8760,note_on,,1,0,10,,,,,,,,,,,,,,,,7,,62,72
8760,note_on,,1,0,14,,,,,,,,,,,,,,,,12,,62,72
8760,note_on,,1,0,16,,,,,,,,,,,,,,,,15,,46,72
8760,note_on,,1,0,13,,,,,,,,,,,,,,,,11,,65,72
8760,note_on,,1,0,11,,,,,,,,,,,,,,,,8,,58,72
8760,note_on,,1,0,12,,,,,,,,,,,,,,,,10,,70,72
8789,note_on,,29,0,9,,,,,,,,,,,,,,,,6,,65,0
8789,note_on,,29,0,10,,,,,,,,,,,,,,,,7,,62,0
8789,note_on,,29,0,14,,,,,,,,,,,,,,,,12,,62,0
8789,note_on,,29,0,12,,,,,,,,,,,,,,,,10,,70,0
8789,note_on,,29,0,13,,,,,,,,,,,,,,,,11,,65,0
8790,note_on,,1,0,14,,,,,,,,,,,,,,,,12,,63,72
8790,note_on,,1,0,9,,,,,,,,,,,,,,,,6,,67,72
8790,note_on,,1,0,12,,,,,,,,,,,,,,,,10,,72,72
8790,note_on,,1,0,10,,,,,,,,,,,,,,,,7,,63,72
8790,note_on,,1,0,13,,,,,,,,,,,,,,,,11,,67,72
8819,note_on,,29,0,14,,,,,,,,,,,,,,,,12,,63,0
8819,note_on,,29,0,10,,,,,,,,,,,,,,,,7,,63,0
8819,note_on,,59,0,7,,,,,,,,,,,,,,,,2,,46,0
8819,note_on,,29,0,13,,,,,,,,,,,,,,,,11,,67,0
8819,note_on,,59,0,16,,,,,,,,,,,,,,,,15,,46,0
8819,note_on,,59,0,6,,,,,,,,,,,,,,,,1,,77,0
8819,note_on,,59,0,15,,,,,,,,,,,,,,,,13,,46,0
8819,note_on,,29,0,9,,,,,,,,,,,,,,,,6,,67,0
8819,note_on,,29,0,12,,,,,,,,,,,,,,,,10,,72,0
8819,note_on,,59,0,11,,,,,,,,,,,,,,,,8,,58,0
8819,note_on,,59,0,8,,,,,,,,,,,,,,,,5,,77,0
8819,note_on,,59,0,5,,,,,,,,,,,,,,,,0,,77,0
8820,note_on,,1,0,8,,,,,,,,,,,,,,,,5,,77,72
8820,note_on,,1,0,7,,,,,,,,,,,,,,,,2,,46,72
8820,note_on,,1,0,13,,,,,,,,,,,,,,,,11,,65,72
8820,note_on,,1,0,15,,,,,,,,,,,,,,,,13,,46,72
8820,note_on,,1,0,12,,,,,,,,,,,,,,,,10,,70,72
8820,note_on,,1,0,9,,,,,,,,,,,,,,,,6,,65,72
8820,note_on,,1,0,10,,,,,,,,,,,,,,,,7,,62,72
8820,note_on,,1,0,6,,,,,,,,,,,,,,,,1,,77,72
8820,note_on,,1,0,14,,,,,,,,,,,,,,,,12,,62,72
8820,note_on,,1,0,11,,,,,,,,,,,,,,,,8,,58,72
8820,note_on,,1,0,16,,,,,,,,,,,,,,,,15,,46,72
8820,note_on,,1,0,5,,,,,,,,,,,,,,,,0,,77,72
8849,note_on,,29,0,13,,,,,,,,,,,,,,,,11,,65,0
8849,note_on,,29,0,10,,,,,,,,,,,,,,,,7,,62,0
8849,note_on,,29,0,9,,,,,,,,,,,,,,,,6,,65,0
8849,note_on,,29,0,12,,,,,,,,,,,,,,,,10,,70,0
8849,note_on,,29,0,14,,,,,,,,,,,,,,,,12,,62,0
8850,note_on,,1,0,13,,,,,,,,,,,,,,,,11,,67,72
8850,note_on,,1,0,14,,,,,,,,,,,,,,,,12,,63,72
8850,note_on,,1,0,9,,,,,,,,,,,,,,,,6,,67,72
8850,note_on,,1,0,12,,,,,,,,,,,,,,,,10,,72,72
8850,note_on,,1,0,10,,,,,,,,,,,,,,,,7,,63,72
8879,note_on,,29,0,9,,,,,,,,,,,,,,,,6,,67,0
8879,note_on,,59,0,5,,,,,,,,,,,,,,,,0,,77,0
8879,note_on,,0,0,16,,,,,,,,,,,,,,,,15,,74,0
8879,note_on,,0,0,16,,,,,,,,,,,,,,,,15,,70,0
8879,note_on,,59,0,15,,,,,,,,,,,,,,,,13,,46,0
8879,note_on,,29,0,10,,,,,,,,,,,,,,,,7,,63,0
8879,note_on,,59,0,16,,,,,,,,,,,,,,,,15,,58,0
8879,note_on,,0,0,16,,,,,,,,,,,,,,,,15,,77,0
8879,note_on,,0,0,16,,,,,,,,,,,,,,,,15,,65,0
8879,note_on,,0,0,16,,,,,,,,,,,,,,,,15,,46,0
8879,note_on,,59,0,11,,,,,,,,,,,,,,,,8,,58,0
8879,note_on,,29,0,13,,,,,,,,,,,,,,,,11,,67,0
8879,note_on,,59,0,8,,,,,,,,,,,,,,,,5,,77,0
8879,note_on,,59,0,7,,,,,,,,,,,,,,,,2,,46,0
8879,note_on,,29,0,14,,,,,,,,,,,,,,,,12,,63,0
8879,note_on,,29,0,12,,,,,,,,,,,,,,,,10,,72,0
8879,note_on,,59,0,6,,,,,,,,,,,,,,,,1,,77,0
8880,note_on,,1,0,14,,,,,,,,,,,,,,,,12,,62,72
8880,note_on,,1,0,9,,,,,,,,,,,,,,,,6,,65,72
8880,note_on,,1,0,13,,,,,,,,,,,,,,,,11,,65,72
8880,note_on,,1,0,8,,,,,,,,,,,,,,,,5,,74,72
8880,note_on,,1,0,12,,,,,,,,,,,,,,,,10,,74,72
8880,note_on,,1,0,6,,,,,,,,,,,,,,,,1,,74,72
8880,note_on,,1,0,7,,,,,,,,,,,,,,,,2,,46,72
8880,note_on,,1,0,15,,,,,,,,,,,,,,,,13,,46,72
8880,note_on,,1,0,11,,,,,,,,,,,,,,,,8,,46,72
8880,note_on,,1,0,5,,,,,,,,,,,,,,,,0,,74,72
8880,note_on,,1,0,10,,,,,,,,,,,,,,,,7,,62,72
8880,note_on,,0,0,16,,,,,,,,,,,,,,,,15,,74,72
8880,note_on,,0,0,16,,,,,,,,,,,,,,,,15,,77,72
8880,note_on,,0,0,16,,,,,,,,,,,,,,,,15,,82,72
8880,note_on,,0,0,16,,,,,,,,,,,,,,,,15,,53,72
8880,note_on,,1,0,16,,,,,,,,,,,,,,,,15,,46,72
8909,note_on,,29,0,11,,,,,,,,,,,,,,,,8,,46,0
8909,note_on,,29,0,12,,,,,,,,,,,,,,,,10,,74,0
8909,note_on,,29,0,8,,,,,,,,,,,,,,,,5,,74,0
8909,note_on,,29,0,16,,,,,,,,,,,,,,,,15,,46,0
8909,note_on,,29,0,6,,,,,,,,,,,,,,,,1,,74,0
8909,note_on,,29,0,7,,,,,,,,,,,,,,,,2,,46,0
8909,note_on,,29,0,15,,,,,,,,,,,,,,,,13,,46,0
8909,note_on,,29,0,5,,,,,,,,,,,,,,,,0,,74,0
8910,note_on,,1,0,8,,,,,,,,,,,,,,,,5,,75,72
8910,note_on,,1,0,7,,,,,,,,,,,,,,,,2,,48,72
8910,note_on,,1,0,5,,,,,,,,,,,,,,,,0,,75,72
8910,note_on,,1,0,12,,,,,,,,,,,,,,,,10,,75,72
8910,note_on,,1,0,15,,,,,,,,,,,,,,,,13,,48,72
8910,note_on,,1,0,11,,,,,,,,,,,,,,,,8,,48,72
8910,note_on,,1,0,6,,,,,,,,,,,,,,,,1,,75,72
8910,note_on,,1,0,16,,,,,,,,,,,,,,,,15,,48,72
8939,note_on,,29,0,11,,,,,,,,,,,,,,,,8,,48,0
8939,note_on,,29,0,12,,,,,,,,,,,,,,,,10,,75,0
8939,note_on,,29,0,5,,,,,,,,,,,,,,,,0,,75,0
8939,note_on,,29,0,16,,,,,,,,,,,,,,,,15,,48,0
8939,note_on,,29,0,15,,,,,,,,,,,,,,,,13,,48,0
8939,note_on,,29,0,6,,,,,,,,,,,,,,,,1,,75,0
8939,note_on,,29,0,7,,,,,,,,,,,,,,,,2,,48,0
8939,note_on,,29,0,8,,,,,,,,,,,,,,,,5,,75,0
8940,note_on,,1,0,8,,,,,,,,,,,,,,,,5,,74,72
8940,note_on,,1,0,5,,,,,,,,,,,,,,,,0,,74,72
8940,note_on,,1,0,6,,,,,,,,,,,,,,,,1,,74,72
8940,note_on,,1,0,16,,,,,,,,,,,,,,,,15,,46,72
8940,note_on,,1,0,11,,,,,,,,,,,,,,,,8,,46,72
8940,note_on,,1,0,7,,,,,,,,,,,,,,,,2,,46,72
8940,note_on,,1,0,12,,,,,,,,,,,,,,,,10,,74,72
8940,note_on,,1,0,15,,,,,,,,,,,,,,,,13,,46,72
8969,note_on,,29,0,5,,,,,,,,,,,,,,,,0,,74,0
8969,note_on,,89,0,10,,,,,,,,,,,,,,,,7,,62,0
8969,note_on,,29,0,15,,,,,,,,,,,,,,,,13,,46,0
8969,note_on,,89,0,9,,,,,,,,,,,,,,,,6,,65,0
8969,note_on,,29,0,12,,,,,,,,,,,,,,,,10,,74,0
8969,note_on,,89,0,13,,,,,,,,,,,,,,,,11,,65,0
8969,note_on,,29,0,8,,,,,,,,,,,,,,,,5,,74,0
8969,note_on,,89,0,14,,,,,,,,,,,,,,,,12,,62,0
8969,note_on,,29,0,7,,,,,,,,,,,,,,,,2,,46,0
8969,note_on,,29,0,6,,,,,,,,,,,,,,,,1,,74,0
8969,note_on,,29,0,11,,,,,,,,,,,,,,,,8,,46,0
8969,note_on,,29,0,16,,,,,,,,,,,,,,,,15,,46,0
8970,note_on,,1,0,5,,,,,,,,,,,,,,,,0,,75,72
8970,note_on,,1,0,6,,,,,,,,,,,,,,,,1,,75,72
8970,note_on,,1,0,11,,,,,,,,,,,,,,,,8,,48,72
8970,note_on,,1,0,12,,,,,,,,,,,,,,,,10,,75,72
8970,note_on,,1,0,16,,,,,,,,,,,,,,,,15,,48,72
8970,note_on,,1,0,15,,,,,,,,,,,,,,,,13,,48,72
8970,note_on,,1,0,14,,,,,,,,,,,,,,,,12,,60,72
8970,note_on,,1,0,9,,,,,,,,,,,,,,,,6,,65,72
8970,note_on,,1,0,7,,,,,,,,,,,,,,,,2,,48,72
8970,note_on,,1,0,13,,,,,,,,,,,,,,,,11,,65,72
8970,note_on,,1,0,10,,,,,,,,,,,,,,,,7,,60,72
8970,note_on,,1,0,8,,,,,,,,,,,,,,,,5,,75,72
8999,note_on,,29,0,16,,,,,,,,,,,,,,,,15,,48,0
8999,note_on,,29,0,14,,,,,,,,,,,,,,,,12,,60,0
8999,note_on,,29,0,7,,,,,,,,,,,,,,,,2,,48,0
8999,note_on,,29,0,12,,,,,,,,,,,,,,,,10,,75,0
8999,note_on,,29,0,6,,,,,,,,,,,,,,,,1,,75,0
8999,note_on,,29,0,10,,,,,,,,,,,,,,,,7,,60,0
8999,note_on,,29,0,13,,,,,,,,,,,,,,,,11,,65,0
8999,note_on,,29,0,15,,,,,,,,,,,,,,,,13,,48,0
8999,note_on,,29,0,9,,,,,,,,,,,,,,,,6,,65,0
8999,note_on,,29,0,5,,,,,,,,,,,,,,,,0,,75,0
8999,note_on,,29,0,11,,,,,,,,,,,,,,,,8,,48,0
8999,note_on,,29,0,8,,,,,,,,,,,,,,,,5,,75,0
9000,note_on,,1,0,16,,,,,,,,,,,,,,,,15,,46,72
9000,note_on,,1,0,6,,,,,,,,,,,,,,,,1,,77,72
9000,note_on,,1,0,9,,,,,,,,,,,,,,,,6,,65,72
9000,note_on,,1,0,14,,,,,,,,,,,,,,,,12,,58,72
9000,note_on,,1,0,13,,,,,,,,,,,,,,,,11,,70,72
9000,note_on,,1,0,8,,,,,,,,,,,,,,,,5,,77,72
9000,note_on,,1,0,7,,,,,,,,,,,,,,,,2,,46,72
9000,note_on,,1,0,11,,,,,,,,,,,,,,,,8,,50,72
9000,note_on,,1,0,12,,,,,,,,,,,,,,,,10,,77,72
9000,note_on,,1,0,5,,,,,,,,,,,,,,,,0,,77,72
9000,note_on,,1,0,15,,,,,,,,,,,,,,,,13,,46,72
9000,note_on,,1,0,10,,,,,,,,,,,,,,,,7,,58,72
9029,note_on,,29,0,12,,,,,,,,,,,,,,,,10,,77,0
9029,note_on,,29,0,5,,,,,,,,,,,,,,,,0,,77,0
9029,note_on,,29,0,6,,,,,,,,,,,,,,,,1,,77,0
9029,note_on,,29,0,8,,,,,,,,,,,,,,,,5,,77,0
9029,note_on,,29,0,7,,,,,,,,,,,,,,,,2,,46,0
9029,note_on,,29,0,16,,,,,,,,,,,,,,,,15,,46,0
9029,note_on,,29,0,15,,,,,,,,,,,,,,,,13,,46,0
9029,note_on,,29,0,11,,,,,,,,,,,,,,,,8,,50,0
9030,note_on,,1,0,15,,,,,,,,,,,,,,,,13,,48,72
9030,note_on,,1,0,8,,,,,,,,,,,,,,,,5,,79,72
9030,note_on,,1,0,11,,,,,,,,,,,,,,,,8,,51,72
9030,note_on,,1,0,12,,,,,,,,,,,,,,,,10,,79,72
9030,note_on,,1,0,6,,,,,,,,,,,,,,,,1,,79,72
9030,note_on,,1,0,16,,,,,,,,,,,,,,,,15,,48,72
9030,note_on,,1,0,5,,,,,,,,,,,,,,,,0,,79,72
9030,note_on,,1,0,7,,,,,,,,,,,,,,,,2,,48,72
9059,note_on,,29,0,6,,,,,,,,,,,,,,,,1,,79,0
9059,note_on,,29,0,7,,,,,,,,,,,,,,,,2,,48,0
9059,note_on,,29,0,11,,,,,,,,,,,,,,,,8,,51,0
9059,note_on,,29,0,12,,,,,,,,,,,,,,,,10,,79,0
9059,note_on,,59,0,14,,,,,,,,,,,,,,,,12,,58,0
9059,note_on,,59,0,13,,,,,,,,,,,,,,,,11,,70,0
9059,note_on,,59,0,9,,,,,,,,,,,,,,,,6,,65,0
9059,note_on,,29,0,15,,,,,,,,,,,,,,,,13,,48,0
9059,note_on,,59,0,10,,,,,,,,,,,,,,,,7,,58,0
9059,note_on,,29,0,8,,,,,,,,,,,,,,,,5,,79,0
9059,note_on,,29,0,5,,,,,,,,,,,,,,,,0,,79,0
9059,note_on,,29,0,16,,,,,,,,,,,,,,,,15,,48,0
9060,note_on,,1,0,9,,,,,,,,,,,,,,,,6,,65,72
9060,note_on,,1,0,11,,,,,,,,,,,,,,,,8,,50,72
9060,note_on,,1,0,15,,,,,,,,,,,,,,,,13,,46,72
9060,note_on,,1,0,7,,,,,,,,,,,,,,,,2,,46,72
9060,note_on,,1,0,8,,,,,,,,,,,,,,,,5,,77,72
9060,note_on,,1,0,12,,,,,,,,,,,,,,,,10,,77,72
9060,note_on,,1,0,16,,,,,,,,,,,,,,,,15,,46,72
9060,note_on,,1,0,14,,,,,,,,,,,,,,,,12,,65,72
9060,note_on,,1,0,5,,,,,,,,,,,,,,,,0,,77,72
9060,note_on,,1,0,6,,,,,,,,,,,,,,,,1,,77,72
9060,note_on,,1,0,10,,,,,,,,,,,,,,,,7,,58,72
9060,note_on,,1,0,13,,,,,,,,,,,,,,,,11,,70,72
9089,note_on,,29,0,12,,,,,,,,,,,,,,,,10,,77,0
9089,note_on,,29,0,16,,,,,,,,,,,,,,,,15,,46,0
9089,note_on,,29,0,15,,,,,,,,,,,,,,,,13,,46,0
9089,note_on,,29,0,6,,,,,,,,,,,,,,,,1,,77,0
9089,note_on,,29,0,5,,,,,,,,,,,,,,,,0,,77,0
9089,note_on,,29,0,11,,,,,,,,,,,,,,,,8,,50,0
9089,note_on,,29,0,7,,,,,,,,,,,,,,,,2,,46,0
9089,note_on,,29,0,8,,,,,,,,,,,,,,,,5,,77,0
9090,note_on,,1,0,6,,,,,,,,,,,,,,,,1,,79,72
9090,note_on,,1,0,15,,,,,,,,,,,,,,,,13,,48,72
9090,note_on,,1,0,7,,,,,,,,,,,,,,,,2,,48,72
9090,note_on,,1,0,5,,,,,,,,,,,,,,,,0,,79,72
9090,note_on,,1,0,16,,,,,,,,,,,,,,,,15,,48,72
9090,note_on,,1,0,12,,,,,,,,,,,,,,,,10,,79,72
9090,note_on,,1,0,8,,,,,,,,,,,,,,,,5,,79,72
9090,note_on,,1,0,11,,,,,,,,,,,,,,,,8,,51,72
9119,note_on,,59,0,10,,,,,,,,,,,,,,,,7,,58,0
9119,note_on,,29,0,8,,,,,,,,,,,,,,,,5,,79,0
9119,note_on,,0,0,16,,,,,,,,,,,,,,,,15,,48,0
9119,note_on,,29,0,7,,,,,,,,,,,,,,,,2,,48,0
9119,note_on,,59,0,13,,,,,,,,,,,,,,,,11,,70,0
9119,note_on,,0,0,16,,,,,,,,,,,,,,,,15,,74,0
9119,note_on,,0,0,16,,,,,,,,,,,,,,,,15,,82,0
9119,note_on,,29,0,16,,,,,,,,,,,,,,,,15,,53,0
9119,note_on,,29,0,12,,,,,,,,,,,,,,,,10,,79,0
9119,note_on,,29,0,15,,,,,,,,,,,,,,,,13,,48,0
9119,note_on,,0,0,16,,,,,,,,,,,,,,,,15,,77,0
9119,note_on,,59,0,9,,,,,,,,,,,,,,,,6,,65,0
9119,note_on,,29,0,6,,,,,,,,,,,,,,,,1,,79,0
9119,note_on,,59,0,14,,,,,,,,,,,,,,,,12,,65,0
9119,note_on,,29,0,5,,,,,,,,,,,,,,,,0,,79,0
9119,note_on,,29,0,11,,,,,,,,,,,,,,,,8,,51,0
9120,note_on,,1,0,11,,,,,,,,,,,,,,,,8,,53,72
9120,note_on,,0,0,16,,,,,,,,,,,,,,,,15,,77,72
9120,note_on,,0,0,16,,,,,,,,,,,,,,,,15,,72,72
9120,note_on,,0,0,16,,,,,,,,,,,,,,,,15,,65,72
9120,note_on,,1,0,14,,,,,,,,,,,,,,,,12,,60,72
9120,note_on,,1,0,6,,,,,,,,,,,,,,,,1,,69,72
9120,note_on,,1,0,5,,,,,,,,,,,,,,,,0,,69,72
9120,note_on,,1,0,7,,,,,,,,,,,,,,,,2,,53,72
9120,note_on,,0,0,16,,,,,,,,,,,,,,,,15,,57,72
9120,note_on,,1,0,12,,,,,,,,,,,,,,,,10,,69,72
9120,note_on,,1,0,15,,,,,,,,,,,,,,,,13,,53,72
9120,note_on,,1,0,8,,,,,,,,,,,,,,,,5,,69,72
9120,note_on,,1,0,9,,,,,,,,,,,,,,,,6,,65,72
9120,note_on,,1,0,10,,,,,,,,,,,,,,,,7,,53,72
9120,note_on,,1,0,13,,,,,,,,,,,,,,,,11,,65,72
9120,note_on,,1,0,16,,,,,,,,,,,,,,,,15,,53,72
9149,note_on,,29,0,5,,,,,,,,,,,,,,,,0,,69,0
9149,note_on,,29,0,8,,,,,,,,,,,,,,,,5,,69,0
9149,note_on,,29,0,6,,,,,,,,,,,,,,,,1,,69,0
9149,note_on,,29,0,10,,,,,,,,,,,,,,,,7,,53,0
9149,note_on,,29,0,13,,,,,,,,,,,,,,,,11,,65,0
9149,note_on,,29,0,12,,,,,,,,,,,,,,,,10,,69,0
9150,note_on,,1,0,12,,,,,,,,,,,,,,,,10,,70,72
9150,note_on,,1,0,5,,,,,,,,,,,,,,,,0,,70,72
9150,note_on,,1,0,10,,,,,,,,,,,,,,,,7,,55,72
9150,note_on,,1,0,13,,,,,,,,,,,,,,,,11,,67,72
9150,note_on,,1,0,6,,,,,,,,,,,,,,,,1,,70,72
9150,note_on,,1,0,8,,,,,,,,,,,,,,,,5,,70,72
9179,note_on,,29,0,8,,,,,,,,,,,,,,,,5,,70,0
9179,note_on,,29,0,10,,,,,,,,,,,,,,,,7,,55,0
9179,note_on,,29,0,13,,,,,,,,,,,,,,,,11,,67,0
9179,note_on,,29,0,6,,,,,,,,,,,,,,,,1,,70,0
9179,note_on,,29,0,5,,,,,,,,,,,,,,,,0,,70,0
9179,note_on,,29,0,12,,,,,,,,,,,,,,,,10,,70,0
9180,note_on,,1,0,10,,,,,,,,,,,,,,,,7,,53,72
9180,note_on,,1,0,13,,,,,,,,,,,,,,,,11,,65,72
9180,note_on,,1,0,6,,,,,,,,,,,,,,,,1,,69,72
9180,note_on,,1,0,8,,,,,,,,,,,,,,,,5,,69,72
9180,note_on,,1,0,12,,,,,,,,,,,,,,,,10,,69,72
9180,note_on,,1,0,5,,,,,,,,,,,,,,,,0,,69,72
9209,note_on,,89,0,14,,,,,,,,,,,,,,,,12,,60,0
9209,note_on,,89,0,15,,,,,,,,,,,,,,,,13,,53,0
9209,note_on,,29,0,13,,,,,,,,,,,,,,,,11,,65,0
9209,note_on,,29,0,6,,,,,,,,,,,,,,,,1,,69,0
9209,note_on,,29,0,8,,,,,,,,,,,,,,,,5,,69,0
9209,note_on,,29,0,5,,,,,,,,,,,,,,,,0,,69,0
9209,note_on,,89,0,16,,,,,,,,,,,,,,,,15,,53,0
9209,note_on,,89,0,11,,,,,,,,,,,,,,,,8,,53,0
9209,note_on,,89,0,9,,,,,,,,,,,,,,,,6,,65,0
9209,note_on,,29,0,12,,,,,,,,,,,,,,,,10,,69,0
9209,note_on,,89,0,7,,,,,,,,,,,,,,,,2,,53,0
9209,note_on,,29,0,10,,,,,,,,,,,,,,,,7,,53,0
9210,note_on,,1,0,10,,,,,,,,,,,,,,,,7,,55,72
9210,note_on,,1,0,5,,,,,,,,,,,,,,,,0,,70,72
9210,note_on,,1,0,13,,,,,,,,,,,,,,,,11,,67,72
9210,note_on,,1,0,14,,,,,,,,,,,,,,,,12,,60,72
9210,note_on,,1,0,7,,,,,,,,,,,,,,,,2,,53,72
9210,note_on,,1,0,6,,,,,,,,,,,,,,,,1,,70,72
9210,note_on,,1,0,8,,,,,,,,,,,,,,,,5,,70,72
9210,note_on,,1,0,16,,,,,,,,,,,,,,,,15,,53,72
9210,note_on,,1,0,15,,,,,,,,,,,,,,,,13,,53,72
9210,note_on,,1,0,9,,,,,,,,,,,,,,,,6,,60,72
9210,note_on,,1,0,12,,,,,,,,,,,,,,,,10,,70,72
9210,note_on,,1,0,11,,,,,,,,,,,,,,,,8,,53,72
9239,note_on,,29,0,16,,,,,,,,,,,,,,,,15,,53,0
9239,note_on,,29,0,15,,,,,,,,,,,,,,,,13,,53,0
9239,note_on,,29,0,9,,,,,,,,,,,,,,,,6,,60,0
9239,note_on,,29,0,5,,,,,,,,,,,,,,,,0,,70,0
9239,note_on,,29,0,8,,,,,,,,,,,,,,,,5,,70,0
9239,note_on,,29,0,13,,,,,,,,,,,,,,,,11,,67,0
9239,note_on,,29,0,7,,,,,,,,,,,,,,,,2,,53,0
9239,note_on,,29,0,11,,,,,,,,,,,,,,,,8,,53,0
9239,note_on,,29,0,10,,,,,,,,,,,,,,,,7,,55,0
9239,note_on,,29,0,14,,,,,,,,,,,,,,,,12,,60,0
9239,note_on,,29,0,6,,,,,,,,,,,,,,,,1,,70,0
9239,note_on,,29,0,12,,,,,,,,,,,,,,,,10,,70,0
9240,note_on,,1,0,15,,,,,,,,,,,,,,,,13,,53,72
9240,note_on,,1,0,16,,,,,,,,,,,,,,,,15,,53,72
9240,note_on,,1,0,14,,,,,,,,,,,,,,,,12,,60,72
9240,note_on,,1,0,8,,,,,,,,,,,,,,,,5,,72,72
9240,note_on,,1,0,6,,,,,,,,,,,,,,,,1,,72,72
9240,note_on,,1,0,9,,,,,,,,,,,,,,,,6,,60,72
9240,note_on,,1,0,10,,,,,,,,,,,,,,,,7,,57,72
9240,note_on,,1,0,11,,,,,,,,,,,,,,,,8,,53,72
9240,note_on,,1,0,7,,,,,,,,,,,,,,,,2,,53,72
9240,note_on,,1,0,5,,,,,,,,,,,,,,,,0,,72,72
9240,note_on,,1,0,13,,,,,,,,,,,,,,,,11,,69,72
9240,note_on,,1,0,12,,,,,,,,,,,,,,,,10,,72,72
9269,note_on,,29,0,10,,,,,,,,,,,,,,,,7,,57,0
9269,note_on,,29,0,5,,,,,,,,,,,,,,,,0,,72,0
9269,note_on,,29,0,13,,,,,,,,,,,,,,,,11,,69,0
9269,note_on,,29,0,12,,,,,,,,,,,,,,,,10,,72,0
9269,note_on,,29,0,6,,,,,,,,,,,,,,,,1,,72,0
9269,note_on,,29,0,8,,,,,,,,,,,,,,,,5,,72,0
9270,note_on,,1,0,6,,,,,,,,,,,,,,,,1,,74,72
9270,note_on,,1,0,8,,,,,,,,,,,,,,,,5,,74,72
9270,note_on,,1,0,10,,,,,,,,,,,,,,,,7,,58,72
9270,note_on,,1,0,5,,,,,,,,,,,,,,,,0,,74,72
9270,note_on,,1,0,12,,,,,,,,,,,,,,,,10,,74,72
9270,note_on,,1,0,13,,,,,,,,,,,,,,,,11,,70,72
9299,note_on,,59,0,7,,,,,,,,,,,,,,,,2,,53,0
9299,note_on,,59,0,15,,,,,,,,,,,,,,,,13,,53,0
9299,note_on,,59,0,14,,,,,,,,,,,,,,,,12,,60,0
9299,note_on,,29,0,6,,,,,,,,,,,,,,,,1,,74,0
9299,note_on,,29,0,13,,,,,,,,,,,,,,,,11,,70,0
9299,note_on,,59,0,16,,,,,,,,,,,,,,,,15,,53,0
9299,note_on,,29,0,10,,,,,,,,,,,,,,,,7,,58,0
9299,note_on,,59,0,9,,,,,,,,,,,,,,,,6,,60,0
9299,note_on,,29,0,12,,,,,,,,,,,,,,,,10,,74,0
9299,note_on,,29,0,8,,,,,,,,,,,,,,,,5,,74,0
9299,note_on,,59,0,11,,,,,,,,,,,,,,,,8,,53,0
9299,note_on,,29,0,5,,,,,,,,,,,,,,,,0,,74,0
9300,note_on,,1,0,11,,,,,,,,,,,,,,,,8,,53,72
9300,note_on,,1,0,10,,,,,,,,,,,,,,,,7,,57,72
9300,note_on,,1,0,16,,,,,,,,,,,,,,,,15,,53,72
9300,note_on,,1,0,5,,,,,,,,,,,,,,,,0,,72,72
9300,note_on,,1,0,14,,,,,,,,,,,,,,,,12,,60,72
9300,note_on,,1,0,15,,,,,,,,,,,,,,,,13,,53,72
9300,note_on,,1,0,13,,,,,,,,,,,,,,,,11,,69,72
9300,note_on,,1,0,9,,,,,,,,,,,,,,,,6,,65,72
9300,note_on,,1,0,6,,,,,,,,,,,,,,,,1,,72,72
9300,note_on,,1,0,12,,,,,,,,,,,,,,,,10,,72,72
9300,note_on,,1,0,8,,,,,,,,,,,,,,,,5,,72,72
9300,note_on,,1,0,7,,,,,,,,,,,,,,,,2,,53,72
9329,note_on,,29,0,10,,,,,,,,,,,,,,,,7,,57,0
9329,note_on,,29,0,13,,,,,,,,,,,,,,,,11,,69,0
9329,note_on,,29,0,6,,,,,,,,,,,,,,,,1,,72,0
9329,note_on,,29,0,8,,,,,,,,,,,,,,,,5,,72,0
9329,note_on,,29,0,5,,,,,,,,,,,,,,,,0,,72,0
9329,note_on,,29,0,12,,,,,,,,,,,,,,,,10,,72,0
9330,note_on,,1,0,10,,,,,,,,,,,,,,,,7,,58,72
9330,note_on,,1,0,5,,,,,,,,,,,,,,,,0,,74,72
9330,note_on,,1,0,8,,,,,,,,,,,,,,,,5,,74,72
9330,note_on,,1,0,12,,,,,,,,,,,,,,,,10,,74,72
9330,note_on,,1,0,13,,,,,,,,,,,,,,,,11,,70,72
9330,note_on,,1,0,6,,,,,,,,,,,,,,,,1,,74,72
9359,note_on,,29,0,13,,,,,,,,,,,,,,,,11,,70,0
9359,note_on,,59,0,14,,,,,,,,,,,,,,,,12,,60,0
9359,note_on,,29,0,5,,,,,,,,,,,,,,,,0,,74,0
9359,note_on,,59,0,9,,,,,,,,,,,,,,,,6,,65,0
9359,note_on,,29,0,12,,,,,,,,,,,,,,,,10,,74,0
9359,note_on,,29,0,10,,,,,,,,,,,,,,,,7,,58,0
9359,note_on,,0,0,16,,,,,,,,,,,,,,,,15,,77,0
9359,note_on,,59,0,15,,,,,,,,,,,,,,,,13,,53,0
9359,note_on,,59,0,11,,,,,,,,,,,,,,,,8,,53,0
9359,note_on,,59,0,16,,,,,,,,,,,,,,,,15,,57,0
9359,note_on,,0,0,16,,,,,,,,,,,,,,,,15,,53,0
9359,note_on,,29,0,6,,,,,,,,,,,,,,,,1,,74,0
9359,note_on,,59,0,7,,,,,,,,,,,,,,,,2,,53,0
9359,note_on,,29,0,8,,,,,,,,,,,,,,,,5,,74,0
9359,note_on,,0,0,16,,,,,,,,,,,,,,,,15,,65,0
9359,note_on,,0,0,16,,,,,,,,,,,,,,,,15,,72,0
9360,note_on,,1,0,11,,,,,,,,,,,,,,,,8,,48,72
9360,note_on,,1,0,6,,,,,,,,,,,,,,,,1,,75,72
9360,note_on,,0,0,16,,,,,,,,,,,,,,,,15,,55,72
9360,note_on,,1,0,12,,,,,,,,,,,,,,,,10,,75,72
9360,note_on,,1,0,10,,,,,,,,,,,,,,,,7,,60,72
9360,note_on,,1,0,5,,,,,,,,,,,,,,,,0,,75,72
9360,note_on,,1,0,7,,,,,,,,,,,,,,,,2,,48,72
9360,note_on,,0,0,16,,,,,,,,,,,,,,,,15,,48,72
9360,note_on,,1,0,16,,,,,,,,,,,,,,,,15,,67,72
9360,note_on,,0,0,16,,,,,,,,,,,,,,,,15,,72,72
9360,note_on,,0,0,16,,,,,,,,,,,,,,,,15,,75,72
9360,note_on,,1,0,14,,,,,,,,,,,,,,,,12,,67,72
9360,note_on,,1,0,13,,,,,,,,,,,,,,,,11,,72,72
9360,note_on,,1,0,9,,,,,,,,,,,,,,,,6,,63,72
9360,note_on,,1,0,8,,,,,,,,,,,,,,,,5,,75,72
9360,note_on,,1,0,15,,,,,,,,,,,,,,,,13,,48,72
9389,note_on,,29,0,16,,,,,,,,,,,,,,,,15,,48,0
9389,note_on,,29,0,7,,,,,,,,,,,,,,,,2,,48,0
9389,note_on,,29,0,11,,,,,,,,,,,,,,,,8,,48,0
9389,note_on,,29,0,15,,,,,,,,,,,,,,,,13,,48,0
9389,note_on,,29,0,12,,,,,,,,,,,,,,,,10,,75,0
9389,note_on,,29,0,5,,,,,,,,,,,,,,,,0,,75,0
9389,note_on,,29,0,6,,,,,,,,,,,,,,,,1,,75,0
9389,note_on,,29,0,9,,,,,,,,,,,,,,,,6,,63,0
9389,note_on,,29,0,8,,,,,,,,,,,,,,,,5,,75,0
9390,note_on,,1,0,12,,,,,,,,,,,,,,,,10,,77,72
9390,note_on,,1,0,6,,,,,,,,,,,,,,,,1,,74,72
9390,note_on,,1,0,7,,,,,,,,,,,,,,,,2,,50,72
9390,note_on,,1,0,9,,,,,,,,,,,,,,,,6,,65,72
9390,note_on,,1,0,15,,,,,,,,,,,,,,,,13,,50,72
9390,note_on,,1,0,16,,,,,,,,,,,,,,,,15,,50,72
9390,note_on,,1,0,8,,,,,,,,,,,,,,,,5,,74,72
9390,note_on,,1,0,11,,,,,,,,,,,,,,,,8,,50,72
9390,note_on,,1,0,5,,,,,,,,,,,,,,,,0,,74,72
9419,note_on,,29,0,8,,,,,,,,,,,,,,,,5,,74,0
9419,note_on,,29,0,11,,,,,,,,,,,,,,,,8,,50,0
9419,note_on,,29,0,15,,,,,,,,,,,,,,,,13,,50,0
9419,note_on,,29,0,9,,,,,,,,,,,,,,,,6,,65,0
9419,note_on,,29,0,5,,,,,,,,,,,,,,,,0,,74,0
9419,note_on,,29,0,16,,,,,,,,,,,,,,,,15,,50,0
9419,note_on,,29,0,12,,,,,,,,,,,,,,,,10,,77,0
9419,note_on,,29,0,7,,,,,,,,,,,,,,,,2,,50,0
9419,note_on,,29,0,6,,,,,,,,,,,,,,,,1,,74,0
9420,note_on,,1,0,9,,,,,,,,,,,,,,,,6,,63,72
9420,note_on,,1,0,7,,,,,,,,,,,,,,,,2,,48,72
9420,note_on,,1,0,12,,,,,,,,,,,,,,,,10,,75,72
9420,note_on,,1,0,8,,,,,,,,,,,,,,,,5,,75,72
9420,note_on,,1,0,6,,,,,,,,,,,,,,,,1,,75,72
9420,note_on,,1,0,15,,,,,,,,,,,,,,,,13,,48,72
9420,note_on,,1,0,5,,,,,,,,,,,,,,,,0,,75,72
9420,note_on,,1,0,16,,,,,,,,,,,,,,,,15,,48,72
9420,note_on,,1,0,11,,,,,,,,,,,,,,,,8,,48,72
9449,note_on,,89,0,13,,,,,,,,,,,,,,,,11,,72,0
9449,note_on,,29,0,6,,,,,,,,,,,,,,,,1,,75,0
9449,note_on,,29,0,7,,,,,,,,,,,,,,,,2,,48,0
9449,note_on,,29,0,12,,,,,,,,,,,,,,,,10,,75,0
9449,note_on,,29,0,15,,,,,,,,,,,,,,,,13,,48,0
9449,note_on,,29,0,5,,,,,,,,,,,,,,,,0,,75,0
9449,note_on,,29,0,16,,,,,,,,,,,,,,,,15,,48,0
9449,note_on,,89,0,14,,,,,,,,,,,,,,,,12,,67,0
9449,note_on,,89,0,10,,,,,,,,,,,,,,,,7,,60,0
9449,note_on,,29,0,11,,,,,,,,,,,,,,,,8,,48,0
9449,note_on,,29,0,8,,,,,,,,,,,,,,,,5,,75,0
9449,note_on,,29,0,9,,,,,,,,,,,,,,,,6,,63,0
9450,note_on,,1,0,9,,,,,,,,,,,,,,,,6,,65,72
9450,note_on,,1,0,6,,,,,,,,,,,,,,,,1,,74,72
9450,note_on,,1,0,7,,,,,,,,,,,,,,,,2,,50,72
9450,note_on,,1,0,14,,,,,,,,,,,,,,,,12,,67,72
9450,note_on,,1,0,11,,,,,,,,,,,,,,,,8,,50,72
9450,note_on,,1,0,12,,,,,,,,,,,,,,,,10,,77,72
9450,note_on,,1,0,13,,,,,,,,,,,,,,,,11,,72,72
9450,note_on,,1,0,15,,,,,,,,,,,,,,,,13,,50,72
9450,note_on,,1,0,10,,,,,,,,,,,,,,,,7,,60,72
9450,note_on,,1,0,16,,,,,,,,,,,,,,,,15,,50,72
9450,note_on,,1,0,5,,,,,,,,,,,,,,,,0,,74,72
9450,note_on,,1,0,8,,,,,,,,,,,,,,,,5,,74,72
9479,note_on,,29,0,15,,,,,,,,,,,,,,,,13,,50,0
9479,note_on,,29,0,10,,,,,,,,,,,,,,,,7,,60,0
9479,note_on,,29,0,9,,,,,,,,,,,,,,,,6,,65,0
9479,note_on,,29,0,13,,,,,,,,,,,,,,,,11,,72,0
9479,note_on,,29,0,12,,,,,,,,,,,,,,,,10,,77,0
9479,note_on,,29,0,14,,,,,,,,,,,,,,,,12,,67,0
9479,note_on,,29,0,5,,,,,,,,,,,,,,,,0,,74,0
9479,note_on,,29,0,6,,,,,,,,,,,,,,,,1,,74,0
9479,note_on,,29,0,8,,,,,,,,,,,,,,,,5,,74,0
9479,note_on,,29,0,7,,,,,,,,,,,,,,,,2,,50,0
9479,note_on,,29,0,16,,,,,,,,,,,,,,,,15,,50,0
9479,note_on,,29,0,11,,,,,,,,,,,,,,,,8,,50,0
9480,note_on,,1,0,9,,,,,,,,,,,,,,,,6,,67,72
9480,note_on,,1,0,7,,,,,,,,,,,,,,,,2,,51,72
9480,note_on,,1,0,14,,,,,,,,,,,,,,,,12,,67,72
9480,note_on,,1,0,15,,,,,,,,,,,,,,,,13,,51,72
9480,note_on,,1,0,5,,,,,,,,,,,,,,,,0,,72,72
9480,note_on,,1,0,16,,,,,,,,,,,,,,,,15,,51,72
9480,note_on,,1,0,10,,,,,,,,,,,,,,,,7,,60,72
9480,note_on,,1,0,13,,,,,,,,,,,,,,,,11,,72,72
9480,note_on,,1,0,12,,,,,,,,,,,,,,,,10,,79,72
9480,note_on,,1,0,11,,,,,,,,,,,,,,,,8,,51,72
9480,note_on,,1,0,8,,,,,,,,,,,,,,,,5,,72,72
9480,note_on,,1,0,6,,,,,,,,,,,,,,,,1,,72,72
9509,note_on,,29,0,13,,,,,,,,,,,,,,,,11,,72,0
9509,note_on,,29,0,7,,,,,,,,,,,,,,,,2,,51,0
9509,note_on,,29,0,9,,,,,,,,,,,,,,,,6,,67,0
9509,note_on,,29,0,8,,,,,,,,,,,,,,,,5,,72,0
9509,note_on,,29,0,16,,,,,,,,,,,,,,,,15,,51,0
9509,note_on,,29,0,12,,,,,,,,,,,,,,,,10,,79,0
9509,note_on,,29,0,11,,,,,,,,,,,,,,,,8,,51,0
9509,note_on,,29,0,15,,,,,,,,,,,,,,,,13,,51,0
9509,note_on,,29,0,5,,,,,,,,,,,,,,,,0,,72,0
9509,note_on,,29,0,6,,,,,,,,,,,,,,,,1,,72,0
9510,note_on,,1,0,8,,,,,,,,,,,,,,,,5,,74,72
9510,note_on,,1,0,16,,,,,,,,,,,,,,,,15,,53,72
9510,note_on,,1,0,6,,,,,,,,,,,,,,,,1,,74,72
9510,note_on,,1,0,11,,,,,,,,,,,,,,,,8,,53,72
9510,note_on,,1,0,15,,,,,,,,,,,,,,,,13,,53,72
9510,note_on,,1,0,7,,,,,,,,,,,,,,,,2,,53,72
9510,note_on,,1,0,9,,,,,,,,,,,,,,,,6,,69,72
9510,note_on,,1,0,5,,,,,,,,,,,,,,,,0,,74,72
9510,note_on,,1,0,12,,,,,,,,,,,,,,,,10,,69,72
9510,note_on,,1,0,13,,,,,,,,,,,,,,,,11,,74,72
9539,note_on,,29,0,8,,,,,,,,,,,,,,,,5,,74,0
9539,note_on,,59,0,10,,,,,,,,,,,,,,,,7,,60,0
9539,note_on,,59,0,14,,,,,,,,,,,,,,,,12,,67,0
9539,note_on,,29,0,16,,,,,,,,,,,,,,,,15,,53,0
9539,note_on,,29,0,9,,,,,,,,,,,,,,,,6,,69,0
9539,note_on,,29,0,12,,,,,,,,,,,,,,,,10,,69,0
9539,note_on,,29,0,6,,,,,,,,,,,,,,,,1,,74,0
9539,note_on,,29,0,5,,,,,,,,,,,,,,,,0,,74,0
9539,note_on,,29,0,13,,,,,,,,,,,,,,,,11,,74,0
9539,note_on,,29,0,15,,,,,,,,,,,,,,,,13,,53,0
9539,note_on,,29,0,11,,,,,,,,,,,,,,,,8,,53,0
9539,note_on,,29,0,7,,,,,,,,,,,,,,,,2,,53,0
9540,note_on,,1,0,6,,,,,,,,,,,,,,,,1,,72,72
9540,note_on,,1,0,13,,,,,,,,,,,,,,,,11,,72,72
9540,note_on,,1,0,8,,,,,,,,,,,,,,,,5,,72,72
9540,note_on,,1,0,7,,,,,,,,,,,,,,,,2,,51,72
9540,note_on,,1,0,11,,,,,,,,,,,,,,,,8,,51,72
9540,note_on,,1,0,16,,,,,,,,,,,,,,,,15,,51,72
9540,note_on,,1,0,15,,,,,,,,,,,,,,,,13,,51,72
9540,note_on,,1,0,14,,,,,,,,,,,,,,,,12,,67,72
9540,note_on,,1,0,5,,,,,,,,,,,,,,,,0,,72,72
9540,note_on,,1,0,9,,,,,,,,,,,,,,,,6,,67,72
9540,note_on,,1,0,10,,,,,,,,,,,,,,,,7,,60,72
9540,note_on,,1,0,12,,,,,,,,,,,,,,,,10,,67,72
9569,note_on,,29,0,7,,,,,,,,,,,,,,,,2,,51,0
9569,note_on,,29,0,6,,,,,,,,,,,,,,,,1,,72,0
9569,note_on,,29,0,8,,,,,,,,,,,,,,,,5,,72,0
9569,note_on,,29,0,9,,,,,,,,,,,,,,,,6,,67,0
9569,note_on,,29,0,12,,,,,,,,,,,,,,,,10,,67,0
9569,note_on,,29,0,16,,,,,,,,,,,,,,,,15,,51,0
9569,note_on,,29,0,5,,,,,,,,,,,,,,,,0,,72,0
9569,note_on,,29,0,13,,,,,,,,,,,,,,,,11,,72,0
9569,note_on,,29,0,11,,,,,,,,,,,,,,,,8,,51,0
9569,note_on,,29,0,15,,,,,,,,,,,,,,,,13,,51,0
9570,note_on,,1,0,11,,,,,,,,,,,,,,,,8,,53,72
9570,note_on,,1,0,8,,,,,,,,,,,,,,,,5,,75,72
9570,note_on,,1,0,16,,,,,,,,,,,,,,,,15,,53,72
9570,note_on,,1,0,5,,,,,,,,,,,,,,,,0,,75,72
9570,note_on,,1,0,13,,,,,,,,,,,,,,,,11,,75,72
9570,note_on,,1,0,7,,,,,,,,,,,,,,,,2,,53,72
9570,note_on,,1,0,6,,,,,,,,,,,,,,,,1,,75,72
9570,note_on,,1,0,12,,,,,,,,,,,,,,,,10,,69,72
9570,note_on,,1,0,9,,,,,,,,,,,,,,,,6,,69,72
9570,note_on,,1,0,15,,,,,,,,,,,,,,,,13,,53,72
9599,note_on,,29,0,7,,,,,,,,,,,,,,,,2,,53,0
9599,note_on,,29,0,8,,,,,,,,,,,,,,,,5,,75,0
9599,note_on,,29,0,9,,,,,,,,,,,,,,,,6,,69,0
9599,note_on,,59,0,10,,,,,,,,,,,,,,,,7,,60,0
9599,note_on,,0,0,16,,,,,,,,,,,,,,,,15,,72,0
9599,note_on,,29,0,15,,,,,,,,,,,,,,,,13,,53,0
9599,note_on,,29,0,16,,,,,,,,,,,,,,,,15,,67,0
9599,note_on,,29,0,5,,,,,,,,,,,,,,,,0,,75,0
9599,note_on,,0,0,16,,,,,,,,,,,,,,,,15,,53,0
9599,note_on,,0,0,16,,,,,,,,,,,,,,,,15,,75,0
9599,note_on,,59,0,14,,,,,,,,,,,,,,,,12,,67,0
9599,note_on,,0,0,16,,,,,,,,,,,,,,,,15,,55,0
9599,note_on,,29,0,6,,,,,,,,,,,,,,,,1,,75,0
9599,note_on,,29,0,12,,,,,,,,,,,,,,,,10,,69,0
9599,note_on,,29,0,13,,,,,,,,,,,,,,,,11,,75,0
9599,note_on,,29,0,11,,,,,,,,,,,,,,,,8,,53,0
9600,note_on,,1,0,14,,,,,,,,,,,,,,,,12,,67,72
9600,note_on,,0,0,16,,,,,,,,,,,,,,,,15,,70,72
9600,note_on,,0,0,16,,,,,,,,,,,,,,,,15,,74,72
9600,note_on,,1,0,16,,,,,,,,,,,,,,,,15,,55,72
9600,note_on,,1,0,12,,,,,,,,,,,,,,,,10,,70,72
9600,note_on,,1,0,7,,,,,,,,,,,,,,,,2,,55,72
9600,note_on,,0,0,16,,,,,,,,,,,,,,,,15,,62,72
9600,note_on,,1,0,5,,,,,,,,,,,,,,,,0,,74,72
9600,note_on,,1,0,10,,,,,,,,,,,,,,,,7,,58,72
9600,note_on,,1,0,8,,,,,,,,,,,,,,,,5,,74,72
9600,note_on,,1,0,15,,,,,,,,,,,,,,,,13,,55,72
9600,note_on,,1,0,11,,,,,,,,,,,,,,,,8,,55,72
9600,note_on,,1,0,9,,,,,,,,,,,,,,,,6,,70,72
9600,note_on,,1,0,6,,,,,,,,,,,,,,,,1,,74,72
9600,note_on,,1,0,13,,,,,,,,,,,,,,,,11,,74,72
9629,note_on,,29,0,11,,,,,,,,,,,,,,,,8,,55,0
9629,note_on,,29,0,15,,,,,,,,,,,,,,,,13,,55,0
9629,note_on,,29,0,7,,,,,,,,,,,,,,,,2,,55,0
9629,note_on,,29,0,12,,,,,,,,,,,,,,,,10,,70,0
9629,note_on,,29,0,16,,,,,,,,,,,,,,,,15,,55,0
9629,note_on,,29,0,10,,,,,,,,,,,,,,,,7,,58,0
9629,note_on,,29,0,13,,,,,,,,,,,,,,,,11,,74,0
9630,note_on,,1,0,12,,,,,,,,,,,,,,,,10,,72,72
9630,note_on,,1,0,10,,,,,,,,,,,,,,,,7,,60,72
9630,note_on,,1,0,11,,,,,,,,,,,,,,,,8,,57,72
9630,note_on,,1,0,7,,,,,,,,,,,,,,,,2,,57,72
9630,note_on,,1,0,15,,,,,,,,,,,,,,,,13,,57,72
9630,note_on,,1,0,13,,,,,,,,,,,,,,,,11,,72,72
9630,note_on,,1,0,16,,,,,,,,,,,,,,,,15,,57,72
9659,note_on,,29,0,12,,,,,,,,,,,,,,,,10,,72,0
9659,note_on,,29,0,15,,,,,,,,,,,,,,,,13,,57,0
9659,note_on,,29,0,11,,,,,,,,,,,,,,,,8,,57,0
9659,note_on,,29,0,7,,,,,,,,,,,,,,,,2,,57,0
9659,note_on,,59,0,14,,,,,,,,,,,,,,,,12,,67,0
9659,note_on,,29,0,13,,,,,,,,,,,,,,,,11,,72,0
9659,note_on,,29,0,10,,,,,,,,,,,,,,,,7,,60,0
9659,note_on,,29,0,16,,,,,,,,,,,,,,,,15,,57,0
9660,note_on,,1,0,14,,,,,,,,,,,,,,,,12,,67,72
9660,note_on,,1,0,15,,,,,,,,,,,,,,,,13,,55,72
9660,note_on,,1,0,11,,,,,,,,,,,,,,,,8,,55,72
9660,note_on,,1,0,16,,,,,,,,,,,,,,,,15,,55,72
9660,note_on,,1,0,7,,,,,,,,,,,,,,,,2,,55,72
9660,note_on,,1,0,13,,,,,,,,,,,,,,,,11,,74,72
9660,note_on,,1,0,12,,,,,,,,,,,,,,,,10,,70,72
9660,note_on,,1,0,10,,,,,,,,,,,,,,,,7,,58,72
9689,note_on,,29,0,12,,,,,,,,,,,,,,,,10,,70,0
9689,note_on,,29,0,15,,,,,,,,,,,,,,,,13,,55,0
9689,note_on,,89,0,8,,,,,,,,,,,,,,,,5,,74,0
9689,note_on,,89,0,6,,,,,,,,,,,,,,,,1,,74,0
9689,note_on,,29,0,11,,,,,,,,,,,,,,,,8,,55,0
9689,note_on,,29,0,13,,,,,,,,,,,,,,,,11,,74,0
9689,note_on,,89,0,5,,,,,,,,,,,,,,,,0,,74,0
9689,note_on,,89,0,9,,,,,,,,,,,,,,,,6,,70,0
9689,note_on,,29,0,10,,,,,,,,,,,,,,,,7,,58,0
9689,note_on,,29,0,7,,,,,,,,,,,,,,,,2,,55,0
9689,note_on,,29,0,16,,,,,,,,,,,,,,,,15,,55,0
9690,note_on,,1,0,10,,,,,,,,,,,,,,,,7,,60,72
9690,note_on,,1,0,15,,,,,,,,,,,,,,,,13,,57,72
9690,note_on,,1,0,13,,,,,,,,,,,,,,,,11,,72,72
9690,note_on,,1,0,6,,,,,,,,,,,,,,,,1,,75,72
9690,note_on,,1,0,12,,,,,,,,,,,,,,,,10,,72,72
9690,note_on,,1,0,7,,,,,,,,,,,,,,,,2,,57,72
9690,note_on,,1,0,11,,,,,,,,,,,,,,,,8,,57,72
9690,note_on,,1,0,16,,,,,,,,,,,,,,,,15,,57,72
9690,note_on,,1,0,8,,,,,,,,,,,,,,,,5,,75,72
9690,note_on,,1,0,9,,,,,,,,,,,,,,,,6,,70,72
9690,note_on,,1,0,5,,,,,,,,,,,,,,,,0,,75,72
9719,note_on,,29,0,9,,,,,,,,,,,,,,,,6,,70,0
9719,note_on,,29,0,7,,,,,,,,,,,,,,,,2,,57,0
9719,note_on,,29,0,13,,,,,,,,,,,,,,,,11,,72,0
9719,note_on,,29,0,8,,,,,,,,,,,,,,,,5,,75,0
9719,note_on,,29,0,15,,,,,,,,,,,,,,,,13,,57,0
9719,note_on,,29,0,11,,,,,,,,,,,,,,,,8,,57,0
9719,note_on,,29,0,5,,,,,,,,,,,,,,,,0,,75,0
9719,note_on,,29,0,16,,,,,,,,,,,,,,,,15,,57,0
9719,note_on,,59,0,14,,,,,,,,,,,,,,,,12,,67,0
9719,note_on,,29,0,12,,,,,,,,,,,,,,,,10,,72,0
9719,note_on,,29,0,10,,,,,,,,,,,,,,,,7,,60,0
9719,note_on,,29,0,6,,,,,,,,,,,,,,,,1,,75,0
9720,note_on,,1,0,16,,,,,,,,,,,,,,,,15,,58,72
9720,note_on,,1,0,14,,,,,,,,,,,,,,,,12,,67,72
9720,note_on,,1,0,9,,,,,,,,,,,,,,,,6,,70,72
9720,note_on,,1,0,13,,,,,,,,,,,,,,,,11,,70,72
9720,note_on,,1,0,8,,,,,,,,,,,,,,,,5,,74,72
9720,note_on,,1,0,5,,,,,,,,,,,,,,,,0,,74,72
9720,note_on,,1,0,11,,,,,,,,,,,,,,,,8,,58,72
9720,note_on,,1,0,7,,,,,,,,,,,,,,,,2,,58,72
9720,note_on,,1,0,6,,,,,,,,,,,,,,,,1,,74,72
9720,note_on,,1,0,12,,,,,,,,,,,,,,,,10,,74,72
9720,note_on,,1,0,10,,,,,,,,,,,,,,,,7,,62,72
9720,note_on,,1,0,15,,,,,,,,,,,,,,,,13,,58,72
9749,note_on,,29,0,16,,,,,,,,,,,,,,,,15,,58,0
9749,note_on,,29,0,8,,,,,,,,,,,,,,,,5,,74,0
9749,note_on,,29,0,10,,,,,,,,,,,,,,,,7,,62,0
9749,note_on,,29,0,12,,,,,,,,,,,,,,,,10,,74,0
9749,note_on,,29,0,15,,,,,,,,,,,,,,,,13,,58,0
9749,note_on,,29,0,6,,,,,,,,,,,,,,,,1,,74,0
9749,note_on,,29,0,7,,,,,,,,,,,,,,,,2,,58,0
9749,note_on,,29,0,5,,,,,,,,,,,,,,,,0,,74,0
9749,note_on,,29,0,13,,,,,,,,,,,,,,,,11,,70,0
9749,note_on,,29,0,11,,,,,,,,,,,,,,,,8,,58,0
9750,note_on,,1,0,8,,,,,,,,,,,,,,,,5,,72,72
9750,note_on,,1,0,5,,,,,,,,,,,,,,,,0,,72,72
9750,note_on,,1,0,12,,,,,,,,,,,,,,,,10,,75,72
9750,note_on,,1,0,16,,,,,,,,,,,,,,,,15,,60,72
9750,note_on,,1,0,11,,,,,,,,,,,,,,,,8,,60,72
9750,note_on,,1,0,10,,,,,,,,,,,,,,,,7,,63,72
9750,note_on,,1,0,7,,,,,,,,,,,,,,,,2,,60,72
9750,note_on,,1,0,15,,,,,,,,,,,,,,,,13,,60,72
9750,note_on,,1,0,6,,,,,,,,,,,,,,,,1,,72,72
9750,note_on,,1,0,13,,,,,,,,,,,,,,,,11,,69,72
9779,note_on,,29,0,15,,,,,,,,,,,,,,,,13,,60,0
9779,note_on,,29,0,10,,,,,,,,,,,,,,,,7,,63,0
9779,note_on,,29,0,16,,,,,,,,,,,,,,,,15,,60,0
9779,note_on,,29,0,8,,,,,,,,,,,,,,,,5,,72,0
9779,note_on,,29,0,13,,,,,,,,,,,,,,,,11,,69,0
9779,note_on,,29,0,5,,,,,,,,,,,,,,,,0,,72,0
9779,note_on,,59,0,9,,,,,,,,,,,,,,,,6,,70,0
9779,note_on,,29,0,11,,,,,,,,,,,,,,,,8,,60,0
9779,note_on,,29,0,12,,,,,,,,,,,,,,,,10,,75,0
9779,note_on,,59,0,14,,,,,,,,,,,,,,,,12,,67,0
9779,note_on,,29,0,6,,,,,,,,,,,,,,,,1,,72,0
9779,note_on,,29,0,7,,,,,,,,,,,,,,,,2,,60,0
9780,note_on,,1,0,6,,,,,,,,,,,,,,,,1,,74,72
9780,note_on,,1,0,13,,,,,,,,,,,,,,,,11,,70,72
9780,note_on,,1,0,10,,,,,,,,,,,,,,,,7,,62,72
9780,note_on,,1,0,16,,,,,,,,,,,,,,,,15,,58,72
9780,note_on,,1,0,15,,,,,,,,,,,,,,,,13,,58,72
9780,note_on,,1,0,7,,,,,,,,,,,,,,,,2,,58,72
9780,note_on,,1,0,5,,,,,,,,,,,,,,,,0,,74,72
9780,note_on,,1,0,11,,,,,,,,,,,,,,,,8,,58,72
9780,note_on,,1,0,14,,,,,,,,,,,,,,,,12,,67,72
9780,note_on,,1,0,8,,,,,,,,,,,,,,,,5,,74,72
9780,note_on,,1,0,9,,,,,,,,,,,,,,,,6,,70,72
9780,note_on,,1,0,12,,,,,,,,,,,,,,,,10,,74,72
9809,note_on,,29,0,15,,,,,,,,,,,,,,,,13,,58,0
9809,note_on,,29,0,5,,,,,,,,,,,,,,,,0,,74,0
9809,note_on,,29,0,7,,,,,,,,,,,,,,,,2,,58,0
9809,note_on,,29,0,16,,,,,,,,,,,,,,,,15,,58,0
9809,note_on,,29,0,6,,,,,,,,,,,,,,,,1,,74,0
9809,note_on,,29,0,11,,,,,,,,,,,,,,,,8,,58,0
9809,note_on,,29,0,13,,,,,,,,,,,,,,,,11,,70,0
9809,note_on,,29,0,8,,,,,,,,,,,,,,,,5,,74,0
9809,note_on,,29,0,12,,,,,,,,,,,,,,,,10,,74,0
9809,note_on,,29,0,10,,,,,,,,,,,,,,,,7,,62,0
9810,note_on,,1,0,10,,,,,,,,,,,,,,,,7,,63,72
9810,note_on,,1,0,13,,,,,,,,,,,,,,,,11,,69,72
9810,note_on,,1,0,15,,,,,,,,,,,,,,,,13,,60,72
9810,note_on,,1,0,8,,,,,,,,,,,,,,,,5,,72,72
9810,note_on,,1,0,7,,,,,,,,,,,,,,,,2,,60,72
9810,note_on,,1,0,11,,,,,,,,,,,,,,,,8,,60,72
9810,note_on,,1,0,16,,,,,,,,,,,,,,,,15,,60,72
9810,note_on,,1,0,5,,,,,,,,,,,,,,,,0,,72,72
9810,note_on,,1,0,6,,,,,,,,,,,,,,,,1,,72,72
9810,note_on,,1,0,12,,,,,,,,,,,,,,,,10,,75,72
9839,note_on,,29,0,5,,,,,,,,,,,,,,,,0,,72,0
9839,note_on,,29,0,12,,,,,,,,,,,,,,,,10,,75,0
9839,note_on,,59,0,14,,,,,,,,,,,,,,,,12,,67,0
9839,note_on,,0,0,16,,,,,,,,,,,,,,,,15,,62,0
9839,note_on,,0,0,16,,,,,,,,,,,,,,,,15,,60,0
9839,note_on,,29,0,15,,,,,,,,,,,,,,,,13,,60,0
9839,note_on,,29,0,6,,,,,,,,,,,,,,,,1,,72,0
9839,note_on,,29,0,11,,,,,,,,,,,,,,,,8,,60,0
9839,note_on,,29,0,7,,,,,,,,,,,,,,,,2,,60,0
9839,note_on,,29,0,8,,,,,,,,,,,,,,,,5,,72,0
9839,note_on,,59,0,9,,,,,,,,,,,,,,,,6,,70,0
9839,note_on,,29,0,10,,,,,,,,,,,,,,,,7,,63,0
9839,note_on,,29,0,13,,,,,,,,,,,,,,,,11,,69,0
9839,note_on,,29,0,16,,,,,,,,,,,,,,,,15,,74,0
9839,note_on,,0,0,16,,,,,,,,,,,,,,,,15,,70,0
9840,note_on,,1,0,11,,,,,,,,,,,,,,,,8,,62,72
9840,note_on,,1,0,6,,,,,,,,,,,,,,,,1,,70,72
9840,note_on,,1,0,16,,,,,,,,,,,,,,,,15,,62,72
9840,note_on,,1,0,14,,,,,,,,,,,,,,,,12,,65,72
9840,note_on,,1,0,12,,,,,,,,,,,,,,,,10,,77,72
9840,note_on,,0,0,16,,,,,,,,,,,,,,,,15,,74,72
9840,note_on,,0,0,16,,,,,,,,,,,,,,,,15,,70,72
9840,note_on,,1,0,15,,,,,,,,,,,,,,,,13,,62,72
9840,note_on,,0,0,16,,,,,,,,,,,,,,,,15,,65,72
9840,note_on,,1,0,13,,,,,,,,,,,,,,,,11,,70,72
9840,note_on,,1,0,5,,,,,,,,,,,,,,,,0,,70,72
9840,note_on,,1,0,8,,,,,,,,,,,,,,,,5,,70,72
9840,note_on,,1,0,7,,,,,,,,,,,,,,,,2,,62,72
9840,note_on,,1,0,9,,,,,,,,,,,,,,,,6,,70,72
9840,note_on,,1,0,10,,,,,,,,,,,,,,,,7,,65,72
9899,note_on,,59,0,13,,,,,,,,,,,,,,,,11,,70,0
9899,note_on,,59,0,10,,,,,,,,,,,,,,,,7,,65,0
9899,note_on,,59,0,12,,,,,,,,,,,,,,,,10,,77,0
9899,note_on,,59,0,11,,,,,,,,,,,,,,,,8,,62,0
9899,note_on,,59,0,16,,,,,,,,,,,,,,,,15,,62,0
9899,note_on,,0,0,16,,,,,,,,,,,,,,,,15,,65,0
9899,note_on,,59,0,8,,,,,,,,,,,,,,,,5,,70,0
9899,note_on,,59,0,6,,,,,,,,,,,,,,,,1,,70,0
9899,note_on,,59,0,9,,,,,,,,,,,,,,,,6,,70,0
9899,note_on,,59,0,5,,,,,,,,,,,,,,,,0,,70,0
9899,note_on,,59,0,15,,,,,,,,,,,,,,,,13,,62,0
9899,note_on,,59,0,7,,,,,,,,,,,,,,,,2,,62,0
9900,note_on,,1,0,9,,,,,,,,,,,,,,,,6,,70,72
9900,note_on,,1,0,12,,,,,,,,,,,,,,,,10,,79,72
9900,note_on,,1,0,16,,,,,,,,,,,,,,,,15,,63,72
9900,note_on,,0,0,16,,,,,,,,,,,,,,,,15,,67,72
9900,note_on,,1,0,10,,,,,,,,,,,,,,,,7,,67,72
9900,note_on,,1,0,15,,,,,,,,,,,,,,,,13,,63,72
9900,note_on,,1,0,6,,,,,,,,,,,,,,,,1,,70,72
9900,note_on,,1,0,13,,,,,,,,,,,,,,,,11,,70,72
9900,note_on,,1,0,7,,,,,,,,,,,,,,,,2,,63,72
9900,note_on,,1,0,8,,,,,,,,,,,,,,,,5,,70,72
9900,note_on,,1,0,5,,,,,,,,,,,,,,,,0,,70,72
9900,note_on,,1,0,11,,,,,,,,,,,,,,,,8,,63,72
9929,note_on,,29,0,11,,,,,,,,,,,,,,,,8,,63,0
9929,note_on,,29,0,13,,,,,,,,,,,,,,,,11,,70,0
9929,note_on,,29,0,10,,,,,,,,,,,,,,,,7,,67,0
9929,note_on,,29,0,5,,,,,,,,,,,,,,,,0,,70,0
9929,note_on,,29,0,7,,,,,,,,,,,,,,,,2,,63,0
9929,note_on,,29,0,9,,,,,,,,,,,,,,,,6,,70,0
9929,note_on,,29,0,15,,,,,,,,,,,,,,,,13,,63,0
9929,note_on,,29,0,8,,,,,,,,,,,,,,,,5,,70,0
9929,note_on,,29,0,16,,,,,,,,,,,,,,,,15,,63,0
9929,note_on,,29,0,12,,,,,,,,,,,,,,,,10,,79,0
9929,note_on,,89,0,14,,,,,,,,,,,,,,,,12,,65,0
9929,note_on,,29,0,6,,,,,,,,,,,,,,,,1,,70,0
9929,note_on,,0,0,16,,,,,,,,,,,,,,,,15,,67,0
9930,note_on,,1,0,8,,,,,,,,,,,,,,,,5,,70,72
9930,note_on,,1,0,13,,,,,,,,,,,,,,,,11,,70,72
9930,note_on,,1,0,14,,,,,,,,,,,,,,,,12,,65,72
9930,note_on,,0,0,16,,,,,,,,,,,,,,,,15,,65,72
9930,note_on,,1,0,16,,,,,,,,,,,,,,,,15,,62,72
9930,note_on,,1,0,5,,,,,,,,,,,,,,,,0,,70,72
9930,note_on,,1,0,11,,,,,,,,,,,,,,,,8,,62,72
9930,note_on,,1,0,10,,,,,,,,,,,,,,,,7,,65,72
9930,note_on,,1,0,7,,,,,,,,,,,,,,,,2,,62,72
9930,note_on,,1,0,9,,,,,,,,,,,,,,,,6,,70,72
9930,note_on,,1,0,6,,,,,,,,,,,,,,,,1,,70,72
9930,note_on,,1,0,12,,,,,,,,,,,,,,,,10,,77,72
9930,note_on,,1,0,15,,,,,,,,,,,,,,,,13,,62,72
9959,note_on,,29,0,5,,,,,,,,,,,,,,,,0,,70,0
9959,note_on,,0,0,16,,,,,,,,,,,,,,,,15,,65,0
9959,note_on,,0,0,16,,,,,,,,,,,,,,,,15,,62,0
9959,note_on,,29,0,14,,,,,,,,,,,,,,,,12,,65,0
9959,note_on,,29,0,8,,,,,,,,,,,,,,,,5,,70,0
9959,note_on,,0,0,16,,,,,,,,,,,,,,,,15,,70,0
9959,note_on,,29,0,13,,,,,,,,,,,,,,,,11,,70,0
9959,note_on,,29,0,16,,,,,,,,,,,,,,,,15,,74,0
9959,note_on,,29,0,6,,,,,,,,,,,,,,,,1,,70,0
9959,note_on,,29,0,12,,,,,,,,,,,,,,,,10,,77,0
9959,note_on,,29,0,10,,,,,,,,,,,,,,,,7,,65,0
9959,note_on,,29,0,7,,,,,,,,,,,,,,,,2,,62,0
9959,note_on,,29,0,11,,,,,,,,,,,,,,,,8,,62,0
9959,note_on,,29,0,15,,,,,,,,,,,,,,,,13,,62,0
9959,note_on,,29,0,9,,,,,,,,,,,,,,,,6,,70,0
9960,note_on,,1,0,8,,,,,,,,,,,,,,,,5,,75,72
9960,note_on,,1,0,5,,,,,,,,,,,,,,,,0,,75,72
9960,note_on,,1,0,14,,,,,,,,,,,,,,,,12,,60,72
9960,note_on,,1,0,15,,,,,,,,,,,,,,,,13,,60,72
9960,note_on,,1,0,7,,,,,,,,,,,,,,,,2,,60,72
9960,note_on,,1,0,10,,,,,,,,,,,,,,,,7,,63,72
9960,note_on,,1,0,6,,,,,,,,,,,,,,,,1,,75,72
9960,note_on,,1,0,12,,,,,,,,,,,,,,,,10,,75,72
9960,note_on,,1,0,13,,,,,,,,,,,,,,,,11,,69,72
9960,note_on,,1,0,11,,,,,,,,,,,,,,,,8,,60,72
9960,note_on,,0,0,16,,,,,,,,,,,,,,,,15,,69,72
9960,note_on,,1,0,9,,,,,,,,,,,,,,,,6,,69,72
9960,note_on,,0,0,16,,,,,,,,,,,,,,,,15,,63,72
9960,note_on,,1,0,16,,,,,,,,,,,,,,,,15,,60,72
9960,note_on,,0,0,16,,,,,,,,,,,,,,,,15,,75,72
10019,note_on,,0,0,16,,,,,,,,,,,,,,,,15,,63,0
10019,note_on,,59,0,12,,,,,,,,,,,,,,,,10,,75,0
10019,note_on,,0,0,16,,,,,,,,,,,,,,,,15,,69,0
10019,note_on,,59,0,7,,,,,,,,,,,,,,,,2,,60,0
10019,note_on,,59,0,14,,,,,,,,,,,,,,,,12,,60,0
10019,note_on,,59,0,8,,,,,,,,,,,,,,,,5,,75,0
10019,note_on,,0,0,16,,,,,,,,,,,,,,,,15,,75,0
10019,note_on,,59,0,11,,,,,,,,,,,,,,,,8,,60,0
10019,note_on,,59,0,10,,,,,,,,,,,,,,,,7,,63,0
10019,note_on,,59,0,15,,,,,,,,,,,,,,,,13,,60,0
10019,note_on,,59,0,9,,,,,,,,,,,,,,,,6,,69,0
10019,note_on,,59,0,13,,,,,,,,,,,,,,,,11,,69,0
10019,note_on,,59,0,5,,,,,,,,,,,,,,,,0,,75,0
10019,note_on,,59,0,6,,,,,,,,,,,,,,,,1,,75,0
10019,note_on,,59,0,16,,,,,,,,,,,,,,,,15,,60,0
10020,note_on,,1,0,13,,,,,,,,,,,,,,,,11,,70,72
10020,note_on,,1,0,9,,,,,,,,,,,,,,,,6,,70,72
10020,note_on,,1,0,16,,,,,,,,,,,,,,,,15,,58,72
10020,note_on,,1,0,10,,,,,,,,,,,,,,,,7,,65,72
10020,note_on,,0,0,16,,,,,,,,,,,,,,,,15,,62,72
10020,note_on,,0,0,16,,,,,,,,,,,,,,,,15,,77,72
10020,note_on,,1,0,6,,,,,,,,,,,,,,,,1,,74,72
10020,note_on,,0,0,16,,,,,,,,,,,,,,,,15,,70,72
10020,note_on,,0,0,16,,,,,,,,,,,,,,,,15,,65,72
10020,note_on,,1,0,12,,,,,,,,,,,,,,,,10,,74,72
10020,note_on,,1,0,8,,,,,,,,,,,,,,,,5,,74,72
10020,note_on,,1,0,11,,,,,,,,,,,,,,,,8,,58,72
10020,note_on,,1,0,14,,,,,,,,,,,,,,,,12,,65,72
10020,note_on,,1,0,5,,,,,,,,,,,,,,,,0,,74,72
10020,note_on,,1,0,15,,,,,,,,,,,,,,,,13,,58,72
10020,note_on,,1,0,7,,,,,,,,,,,,,,,,2,,58,72
10079,note_on,,59,0,6,,,,,,,,,,,,,,,,1,,74,0
10079,note_on,,59,0,8,,,,,,,,,,,,,,,,5,,74,0
10079,note_on,,59,0,15,,,,,,,,,,,,,,,,13,,58,0
10079,note_on,,59,0,11,,,,,,,,,,,,,,,,8,,58,0
10079,note_on,,59,0,10,,,,,,,,,,,,,,,,7,,65,0
10079,note_on,,59,0,13,,,,,,,,,,,,,,,,11,,70,0
10079,note_on,,0,0,16,,,,,,,,,,,,,,,,15,,77,0
10079,note_on,,59,0,12,,,,,,,,,,,,,,,,10,,74,0
10079,note_on,,0,0,16,,,,,,,,,,,,,,,,15,,70,0
10079,note_on,,59,0,9,,,,,,,,,,,,,,,,6,,70,0
10079,note_on,,0,0,16,,,,,,,,,,,,,,,,15,,62,0
10079,note_on,,59,0,16,,,,,,,,,,,,,,,,15,,58,0
10079,note_on,,59,0,14,,,,,,,,,,,,,,,,12,,65,0
10079,note_on,,59,0,5,,,,,,,,,,,,,,,,0,,74,0
10079,note_on,,0,0,16,,,,,,,,,,,,,,,,15,,65,0
10079,note_on,,59,0,7,,,,,,,,,,,,,,,,2,,58,0
10080,note_on,,1,0,11,,,,,,,,,,,,,,,,8,,53,72
10080,note_on,,1,0,12,,,,,,,,,,,,,,,,10,,72,72
10080,note_on,,0,0,16,,,,,,,,,,,,,,,,15,,69,72
10080,note_on,,1,0,10,,,,,,,,,,,,,,,,7,,65,72
10080,note_on,,1,0,7,,,,,,,,,,,,,,,,2,,53,72
10080,note_on,,1,0,6,,,,,,,,,,,,,,,,1,,72,72
10080,note_on,,0,0,16,,,,,,,,,,,,,,,,15,,60,72
10080,note_on,,1,0,16,,,,,,,,,,,,,,,,15,,53,72
10080,note_on,,1,0,14,,,,,,,,,,,,,,,,12,,65,72
10080,note_on,,0,0,16,,,,,,,,,,,,,,,,15,,72,72
10080,note_on,,1,0,8,,,,,,,,,,,,,,,,5,,72,72
10080,note_on,,0,0,16,,,,,,,,,,,,,,,,15,,77,72
10080,note_on,,1,0,5,,,,,,,,,,,,,,,,0,,72,72
10080,note_on,,1,0,15,,,,,,,,,,,,,,,,13,,53,72
10080,note_on,,1,0,13,,,,,,,,,,,,,,,,11,,69,72
10080,note_on,,1,0,9,,,,,,,,,,,,,,,,6,,69,72
10109,note_on,,29,0,13,,,,,,,,,,,,,,,,11,,69,0
10109,note_on,,29,0,12,,,,,,,,,,,,,,,,10,,72,0
10110,note_on,,1,0,13,,,,,,,,,,,,,,,,11,,70,72
10110,note_on,,1,0,12,,,,,,,,,,,,,,,,10,,74,72
10139,note_on,,59,0,16,,,,,,,,,,,,,,,,15,,53,0
10139,note_on,,59,0,7,,,,,,,,,,,,,,,,2,,53,0
10139,note_on,,59,0,14,,,,,,,,,,,,,,,,12,,65,0
10139,note_on,,29,0,13,,,,,,,,,,,,,,,,11,,70,0
10139,note_on,,29,0,12,,,,,,,,,,,,,,,,10,,74,0
10139,note_on,,59,0,15,,,,,,,,,,,,,,,,13,,53,0
10140,note_on,,1,0,12,,,,,,,,,,,,,,,,10,,72,72
10140,note_on,,1,0,14,,,,,,,,,,,,,,,,12,,65,72
10140,note_on,,1,0,7,,,,,,,,,,,,,,,,2,,53,72
10140,note_on,,1,0,15,,,,,,,,,,,,,,,,13,,53,72
10140,note_on,,1,0,13,,,,,,,,,,,,,,,,11,,69,72
10140,note_on,,1,0,16,,,,,,,,,,,,,,,,15,,53,72
10169,note_on,,29,0,16,,,,,,,,,,,,,,,,15,,53,0
10169,note_on,,29,0,13,,,,,,,,,,,,,,,,11,,69,0
10169,note_on,,29,0,14,,,,,,,,,,,,,,,,12,,65,0
10169,note_on,,29,0,7,,,,,,,,,,,,,,,,2,,53,0
10169,note_on,,29,0,15,,,,,,,,,,,,,,,,13,,53,0
10169,note_on,,29,0,12,,,,,,,,,,,,,,,,10,,72,0
10170,note_on,,1,0,13,,,,,,,,,,,,,,,,11,,70,72
10170,note_on,,1,0,7,,,,,,,,,,,,,,,,2,,53,72
10170,note_on,,1,0,14,,,,,,,,,,,,,,,,12,,65,72
10170,note_on,,1,0,15,,,,,,,,,,,,,,,,13,,53,72
10170,note_on,,1,0,16,,,,,,,,,,,,,,,,15,,53,72
10170,note_on,,1,0,12,,,,,,,,,,,,,,,,10,,74,72
10199,note_on,,0,0,16,,,,,,,,,,,,,,,,15,,69,0
10199,note_on,,0,0,16,,,,,,,,,,,,,,,,15,,53,0
10199,note_on,,119,0,5,,,,,,,,,,,,,,,,0,,72,0
10199,note_on,,119,0,6,,,,,,,,,,,,,,,,1,,72,0
10199,note_on,,119,0,8,,,,,,,,,,,,,,,,5,,72,0
10199,note_on,,0,0,16,,,,,,,,,,,,,,,,15,,77,0
10199,note_on,,29,0,12,,,,,,,,,,,,,,,,10,,74,0
10199,note_on,,0,0,16,,,,,,,,,,,,,,,,15,,72,0
10199,note_on,,29,0,13,,,,,,,,,,,,,,,,11,,70,0
10199,note_on,,119,0,11,,,,,,,,,,,,,,,,8,,53,0
10199,note_on,,119,0,9,,,,,,,,,,,,,,,,6,,69,0
10199,note_on,,29,0,14,,,,,,,,,,,,,,,,12,,65,0
10199,note_on,,119,0,10,,,,,,,,,,,,,,,,7,,65,0
10199,note_on,,29,0,7,,,,,,,,,,,,,,,,2,,53,0
10199,note_on,,29,0,16,,,,,,,,,,,,,,,,15,,60,0
10199,note_on,,29,0,15,,,,,,,,,,,,,,,,13,,53,0
10200,note_on,,0,0,16,,,,,,,,,,,,,,,,15,,69,72
10200,note_on,,0,0,16,,,,,,,,,,,,,,,,15,,65,72
10200,note_on,,0,0,16,,,,,,,,,,,,,,,,15,,72,72
10200,note_on,,0,0,16,,,,,,,,,,,,,,,,15,,60,72
10200,note_on,,1,0,7,,,,,,,,,,,,,,,,2,,53,72
10200,note_on,,1,0,10,,,,,,,,,,,,,,,,7,,60,72
10200,note_on,,1,0,8,,,,,,,,,,,,,,,,5,,72,72
10200,note_on,,1,0,14,,,,,,,,,,,,,,,,12,,69,72
10200,note_on,,1,0,11,,,,,,,,,,,,,,,,8,,53,72
10200,note_on,,1,0,5,,,,,,,,,,,,,,,,0,,72,72
10200,note_on,,1,0,16,,,,,,,,,,,,,,,,15,,53,72
10200,note_on,,1,0,9,,,,,,,,,,,,,,,,6,,69,72
10200,note_on,,1,0,6,,,,,,,,,,,,,,,,1,,72,72
10200,note_on,,1,0,15,,,,,,,,,,,,,,,,13,,53,72
10200,note_on,,1,0,12,,,,,,,,,,,,,,,,10,,75,72
10200,note_on,,1,0,13,,,,,,,,,,,,,,,,11,,72,72
10229,note_on,,29,0,13,,,,,,,,,,,,,,,,11,,72,0
10229,note_on,,29,0,12,,,,,,,,,,,,,,,,10,,75,0
10230,note_on,,1,0,13,,,,,,,,,,,,,,,,11,,70,72
10230,note_on,,1,0,12,,,,,,,,,,,,,,,,10,,74,72
10259,note_on,,29,0,13,,,,,,,,,,,,,,,,11,,70,0
10259,note_on,,59,0,14,,,,,,,,,,,,,,,,12,,69,0
10259,note_on,,29,0,12,,,,,,,,,,,,,,,,10,,74,0
10260,note_on,,1,0,14,,,,,,,,,,,,,,,,12,,65,72
10260,note_on,,1,0,13,,,,,,,,,,,,,,,,11,,72,72
10260,note_on,,1,0,12,,,,,,,,,,,,,,,,10,,75,72
10289,note_on,,29,0,13,,,,,,,,,,,,,,,,11,,72,0
10289,note_on,,29,0,12,,,,,,,,,,,,,,,,10,,75,0
10290,note_on,,1,0,13,,,,,,,,,,,,,,,,11,,69,72
10290,note_on,,1,0,12,,,,,,,,,,,,,,,,10,,72,72
10319,note_on,,119,0,15,,,,,,,,,,,,,,,,13,,53,0
10319,note_on,,119,0,6,,,,,,,,,,,,,,,,1,,72,0
10319,note_on,,119,0,9,,,,,,,,,,,,,,,,6,,69,0
10319,note_on,,119,0,16,,,,,,,,,,,,,,,,15,,53,0
10319,note_on,,0,0,16,,,,,,,,,,,,,,,,15,,60,0
10319,note_on,,119,0,5,,,,,,,,,,,,,,,,0,,72,0
10319,note_on,,0,0,16,,,,,,,,,,,,,,,,15,,72,0
10319,note_on,,0,0,16,,,,,,,,,,,,,,,,15,,69,0
10319,note_on,,0,0,16,,,,,,,,,,,,,,,,15,,65,0
10319,note_on,,119,0,7,,,,,,,,,,,,,,,,2,,53,0
10319,note_on,,119,0,11,,,,,,,,,,,,,,,,8,,53,0
10319,note_on,,59,0,14,,,,,,,,,,,,,,,,12,,65,0
10319,note_on,,29,0,12,,,,,,,,,,,,,,,,10,,72,0
10319,note_on,,119,0,10,,,,,,,,,,,,,,,,7,,60,0
10319,note_on,,119,0,8,,,,,,,,,,,,,,,,5,,72,0
10319,note_on,,29,0,13,,,,,,,,,,,,,,,,11,,69,0
10320,note_on,,1,0,7,,,,,,,,,,,,,,,,2,,58,72
10320,note_on,,0,0,16,,,,,,,,,,,,,,,,15,,65,72
10320,note_on,,1,0,9,,,,,,,,,,,,,,,,6,,65,72
10320,note_on,,1,0,16,,,,,,,,,,,,,,,,15,,58,72
10320,note_on,,1,0,14,,,,,,,,,,,,,,,,12,,65,72
10320,note_on,,0,0,16,,,,,,,,,,,,,,,,15,,74,72
10320,note_on,,1,0,6,,,,,,,,,,,,,,,,1,,70,72
10320,note_on,,1,0,10,,,,,,,,,,,,,,,,7,,62,72
10320,note_on,,0,0,16,,,,,,,,,,,,,,,,15,,70,72
10320,note_on,,1,0,11,,,,,,,,,,,,,,,,8,,58,72
10320,note_on,,1,0,8,,,,,,,,,,,,,,,,5,,70,72
10320,note_on,,1,0,12,,,,,,,,,,,,,,,,10,,74,72
10320,note_on,,1,0,15,,,,,,,,,,,,,,,,13,,58,72
10320,note_on,,1,0,5,,,,,,,,,,,,,,,,0,,70,72
10320,note_on,,1,0,13,,,,,,,,,,,,,,,,11,,70,72
10379,note_on,,0,0,16,,,,,,,,,,,,,,,,15,,65,0
10379,note_on,,59,0,6,,,,,,,,,,,,,,,,1,,70,0
10379,note_on,,59,0,8,,,,,,,,,,,,,,,,5,,70,0
10379,note_on,,59,0,7,,,,,,,,,,,,,,,,2,,58,0
10379,note_on,,59,0,9,,,,,,,,,,,,,,,,6,,65,0
10379,note_on,,59,0,15,,,,,,,,,,,,,,,,13,,58,0
10379,note_on,,0,0,16,,,,,,,,,,,,,,,,15,,70,0
10379,note_on,,59,0,16,,,,,,,,,,,,,,,,15,,58,0
10379,note_on,,59,0,5,,,,,,,,,,,,,,,,0,,70,0
10379,note_on,,59,0,12,,,,,,,,,,,,,,,,10,,74,0
10379,note_on,,59,0,14,,,,,,,,,,,,,,,,12,,65,0
10379,note_on,,59,0,11,,,,,,,,,,,,,,,,8,,58,0
10379,note_on,,59,0,13,,,,,,,,,,,,,,,,11,,70,0
10379,note_on,,0,0,16,,,,,,,,,,,,,,,,15,,74,0
10379,note_on,,59,0,10,,,,,,,,,,,,,,,,7,,62,0
10380,note_on,,1,0,6,,,,,,,,,,,,,,,,1,,70,72
10380,note_on,,1,0,5,,,,,,,,,,,,,,,,0,,70,72
10380,note_on,,1,0,16,,,,,,,,,,,,,,,,15,,51,72
10380,note_on,,1,0,15,,,,,,,,,,,,,,,,13,,51,72
10380,note_on,,1,0,12,,,,,,,,,,,,,,,,10,,82,72
10380,note_on,,1,0,11,,,,,,,,,,,,,,,,8,,51,72
10380,note_on,,0,0,16,,,,,,,,,,,,,,,,15,,55,72
10380,note_on,,0,0,16,,,,,,,,,,,,,,,,15,,70,72
10380,note_on,,1,0,8,,,,,,,,,,,,,,,,5,,70,72
10380,note_on,,0,0,16,,,,,,,,,,,,,,,,15,,79,72
10380,note_on,,0,0,16,,,,,,,,,,,,,,,,15,,75,72
10380,note_on,,1,0,14,,,,,,,,,,,,,,,,12,,67,72
10380,note_on,,1,0,9,,,,,,,,,,,,,,,,6,,67,72
10380,note_on,,1,0,10,,,,,,,,,,,,,,,,7,,63,72
10380,note_on,,1,0,7,,,,,,,,,,,,,,,,2,,51,72
10380,note_on,,1,0,13,,,,,,,,,,,,,,,,11,,79,72
10439,note_on,,59,0,10,,,,,,,,,,,,,,,,7,,63,0
10439,note_on,,59,0,12,,,,,,,,,,,,,,,,10,,82,0
10439,note_on,,59,0,7,,,,,,,,,,,,,,,,2,,51,0
10439,note_on,,59,0,8,,,,,,,,,,,,,,,,5,,70,0
10439,note_on,,59,0,6,,,,,,,,,,,,,,,,1,,70,0
10439,note_on,,59,0,9,,,,,,,,,,,,,,,,6,,67,0
10439,note_on,,0,0,16,,,,,,,,,,,,,,,,15,,70,0
10439,note_on,,59,0,5,,,,,,,,,,,,,,,,0,,70,0
10439,note_on,,59,0,16,,,,,,,,,,,,,,,,15,,51,0
10439,note_on,,0,0,16,,,,,,,,,,,,,,,,15,,55,0
10439,note_on,,59,0,14,,,,,,,,,,,,,,,,12,,67,0
10439,note_on,,59,0,13,,,,,,,,,,,,,,,,11,,79,0
10439,note_on,,59,0,15,,,,,,,,,,,,,,,,13,,51,0
10439,note_on,,0,0,16,,,,,,,,,,,,,,,,15,,75,0
10439,note_on,,59,0,11,,,,,,,,,,,,,,,,8,,51,0
10439,note_on,,0,0,16,,,,,,,,,,,,,,,,15,,79,0
10440,note_on,,0,0,16,,,,,,,,,,,,,,,,15,,69,72
10440,note_on,,0,0,16,,,,,,,,,,,,,,,,15,,65,72
10440,note_on,,0,0,16,,,,,,,,,,,,,,,,15,,60,72
10440,note_on,,0,0,16,,,,,,,,,,,,,,,,15,,72,72
10440,note_on,,1,0,16,,,,,,,,,,,,,,,,15,,53,72
10440,note_on,,1,0,12,,,,,,,,,,,,,,,,10,,81,72
10440,note_on,,1,0,10,,,,,,,,,,,,,,,,7,,60,72
10440,note_on,,1,0,8,,,,,,,,,,,,,,,,5,,69,72
10440,note_on,,1,0,13,,,,,,,,,,,,,,,,11,,72,72
10440,note_on,,1,0,7,,,,,,,,,,,,,,,,2,,53,72
10440,note_on,,1,0,5,,,,,,,,,,,,,,,,0,,69,72
10440,note_on,,1,0,11,,,,,,,,,,,,,,,,8,,53,72
10440,note_on,,1,0,14,,,,,,,,,,,,,,,,12,,65,72
10440,note_on,,1,0,9,,,,,,,,,,,,,,,,6,,65,72
10440,note_on,,1,0,6,,,,,,,,,,,,,,,,1,,69,72
10440,note_on,,1,0,15,,,,,,,,,,,,,,,,13,,53,72
10559,note_on,,119,0,7,,,,,,,,,,,,,,,,2,,53,0
10559,note_on,,0,0,16,,,,,,,,,,,,,,,,15,,60,0
10559,note_on,,0,0,16,,,,,,,,,,,,,,,,15,,65,0
10559,note_on,,0,0,16,,,,,,,,,,,,,,,,15,,69,0
10559,note_on,,0,0,16,,,,,,,,,,,,,,,,15,,72,0
10559,note_on,,119,0,12,,,,,,,,,,,,,,,,10,,81,0
10559,note_on,,119,0,10,,,,,,,,,,,,,,,,7,,60,0
10559,note_on,,119,0,16,,,,,,,,,,,,,,,,15,,53,0
10559,note_on,,119,0,6,,,,,,,,,,,,,,,,1,,69,0
10559,note_on,,119,0,15,,,,,,,,,,,,,,,,13,,53,0
10559,note_on,,119,0,5,,,,,,,,,,,,,,,,0,,69,0
10559,note_on,,119,0,11,,,,,,,,,,,,,,,,8,,53,0
10559,note_on,,119,0,9,,,,,,,,,,,,,,,,6,,65,0
10559,note_on,,119,0,14,,,,,,,,,,,,,,,,12,,65,0
10559,note_on,,119,0,8,,,,,,,,,,,,,,,,5,,69,0
10559,note_on,,119,0,13,,,,,,,,,,,,,,,,11,,72,0
10560,note_on,,1,0,16,,,,,,,,,,,,,,,,15,,46,72
10560,note_on,,0,0,16,,,,,,,,,,,,,,,,15,,58,72
10560,note_on,,0,0,16,,,,,,,,,,,,,,,,15,,74,72
10560,note_on,,0,0,16,,,,,,,,,,,,,,,,15,,70,72
10560,note_on,,0,0,16,,,,,,,,,,,,,,,,15,,65,72
10560,note_on,,1,0,7,,,,,,,,,,,,,,,,2,,46,72
10560,note_on,,1,0,6,,,,,,,,,,,,,,,,1,,70,72
10560,note_on,,1,0,5,,,,,,,,,,,,,,,,0,,70,72
10560,note_on,,1,0,8,,,,,,,,,,,,,,,,5,,70,72
10560,note_on,,1,0,12,,,,,,,,,,,,,,,,10,,82,72
10560,note_on,,1,0,9,,,,,,,,,,,,,,,,6,,65,72
10560,note_on,,1,0,15,,,,,,,,,,,,,,,,13,,46,72
10560,note_on,,1,0,11,,,,,,,,,,,,,,,,8,,46,72
10560,note_on,,1,0,13,,,,,,,,,,,,,,,,11,,74,72
10560,note_on,,1,0,14,,,,,,,,,,,,,,,,12,,65,72
10560,note_on,,1,0,10,,,,,,,,,,,,,,,,7,,62,72
10589,note_on,,29,0,13,,,,,,,,,,,,,,,,11,,74,0
10590,note_on,,1,0,13,,,,,,,,,,,,,,,,11,,75,72
10619,note_on,,59,0,16,,,,,,,,,,,,,,,,15,,46,0
10619,note_on,,59,0,14,,,,,,,,,,,,,,,,12,,65,0
10619,note_on,,59,0,15,,,,,,,,,,,,,,,,13,,46,0
10619,note_on,,59,0,7,,,,,,,,,,,,,,,,2,,46,0
10619,note_on,,59,0,12,,,,,,,,,,,,,,,,10,,82,0
10619,note_on,,29,0,13,,,,,,,,,,,,,,,,11,,75,0
10620,note_on,,1,0,7,,,,,,,,,,,,,,,,2,,46,72
10620,note_on,,1,0,13,,,,,,,,,,,,,,,,11,,74,72
10620,note_on,,1,0,14,,,,,,,,,,,,,,,,12,,65,72
10620,note_on,,1,0,12,,,,,,,,,,,,,,,,10,,70,72
10620,note_on,,1,0,15,,,,,,,,,,,,,,,,13,,46,72
10620,note_on,,1,0,16,,,,,,,,,,,,,,,,15,,46,72
10649,note_on,,29,0,13,,,,,,,,,,,,,,,,11,,74,0
10650,note_on,,1,0,13,,,,,,,,,,,,,,,,11,,75,72
10679,end_of_track,,0,1,8,,,,,,,,,,,,,,,,,,,
10679,note_on,,59,0,15,,,,,,,,,,,,,,,,13,,46,0
10679,note_on,,0,0,16,,,,,,,,,,,,,,,,15,,74,0
10679,note_on,,0,0,16,,,,,,,,,,,,,,,,15,,70,0
10679,note_on,,119,0,8,,,,,,,,,,,,,,,,5,,70,0
10679,note_on,,59,0,16,,,,,,,,,,,,,,,,15,,58,0
10679,note_on,,29,0,13,,,,,,,,,,,,,,,,11,,75,0
10679,note_on,,59,0,14,,,,,,,,,,,,,,,,12,,65,0
10679,note_on,,0,0,16,,,,,,,,,,,,,,,,15,,46,0
10679,note_on,,119,0,5,,,,,,,,,,,,,,,,0,,70,0
10679,end_of_track,,0,1,5,,,,,,,,,,,,,,,,,,,
10679,note_on,,119,0,9,,,,,,,,,,,,,,,,6,,65,0
10679,end_of_track,,0,1,9,,,,,,,,,,,,,,,,,,,
10679,note_on,,119,0,10,,,,,,,,,,,,,,,,7,,62,0
10679,end_of_track,,0,1,10,,,,,,,,,,,,,,,,,,,
10679,end_of_track,,0,1,6,,,,,,,,,,,,,,,,,,,
10679,note_on,,119,0,6,,,,,,,,,,,,,,,,1,,70,0
10679,note_on,,119,0,11,,,,,,,,,,,,,,,,8,,46,0
10679,end_of_track,,0,1,11,,,,,,,,,,,,,,,,,,,
10679,note_on,,59,0,12,,,,,,,,,,,,,,,,10,,70,0
10679,note_on,,59,0,7,,,,,,,,,,,,,,,,2,,46,0
10679,note_on,,0,0,16,,,,,,,,,,,,,,,,15,,65,0
10680,note_on,,0,0,16,,,,,,,,,,,,,,,,15,,65,72
10680,note_on,,0,0,16,,,,,,,,,,,,,,,,15,,50,72
10680,note_on,,1,0,15,,,,,,,,,,,,,,,,13,,46,72
10680,note_on,,1,0,13,,,,,,,,,,,,,,,,11,,77,72
10680,note_on,,1,0,7,,,,,,,,,,,,,,,,2,,46,72
10680,note_on,,0,0,16,,,,,,,,,,,,,,,,15,,58,72
10680,note_on,,1,0,14,,,,,,,,,,,,,,,,12,,62,72
10680,note_on,,1,0,16,,,,,,,,,,,,,,,,15,,46,72
10680,note_on,,1,0,12,,,,,,,,,,,,,,,,10,,70,72
10709,note_on,,29,0,13,,,,,,,,,,,,,,,,11,,77,0
10709,note_on,,29,0,12,,,,,,,,,,,,,,,,10,,70,0
10709,note_on,,29,0,14,,,,,,,,,,,,,,,,12,,62,0
10710,note_on,,1,0,12,,,,,,,,,,,,,,,,10,,72,72
10710,note_on,,1,0,14,,,,,,,,,,,,,,,,12,,63,72
10710,note_on,,1,0,13,,,,,,,,,,,,,,,,11,,77,72
10739,note_on,,29,0,13,,,,,,,,,,,,,,,,11,,77,0
10739,note_on,,29,0,12,,,,,,,,,,,,,,,,10,,72,0
10739,note_on,,29,0,14,,,,,,,,,,,,,,,,12,,63,0
10739,note_on,,59,0,7,,,,,,,,,,,,,,,,2,,46,0
10739,note_on,,59,0,16,,,,,,,,,,,,,,,,15,,46,0
10739,note_on,,59,0,15,,,,,,,,,,,,,,,,13,,46,0
10740,note_on,,1,0,14,,,,,,,,,,,,,,,,12,,62,72
10740,note_on,,1,0,12,,,,,,,,,,,,,,,,10,,70,72
10740,note_on,,1,0,16,,,,,,,,,,,,,,,,15,,46,72
10740,note_on,,1,0,7,,,,,,,,,,,,,,,,2,,46,72
10740,note_on,,1,0,15,,,,,,,,,,,,,,,,13,,46,72
10740,note_on,,1,0,13,,,,,,,,,,,,,,,,11,,79,72
10769,note_on,,29,0,13,,,,,,,,,,,,,,,,11,,79,0
10769,note_on,,29,0,14,,,,,,,,,,,,,,,,12,,62,0
10769,note_on,,29,0,12,,,,,,,,,,,,,,,,10,,70,0
10770,note_on,,1,0,12,,,,,,,,,,,,,,,,10,,72,72
10770,note_on,,1,0,13,,,,,,,,,,,,,,,,11,,81,72
10770,note_on,,1,0,14,,,,,,,,,,,,,,,,12,,63,72
10799,note_on,,0,0,16,,,,,,,,,,,,,,,,15,,58,0
10799,note_on,,0,0,16,,,,,,,,,,,,,,,,15,,65,0
10799,note_on,,59,0,16,,,,,,,,,,,,,,,,15,,50,0
10799,note_on,,29,0,12,,,,,,,,,,,,,,,,10,,72,0
10799,note_on,,0,0,16,,,,,,,,,,,,,,,,15,,46,0
10799,note_on,,29,0,13,,,,,,,,,,,,,,,,11,,81,0
10799,note_on,,59,0,7,,,,,,,,,,,,,,,,2,,46,0
10799,note_on,,59,0,15,,,,,,,,,,,,,,,,13,,46,0
10799,note_on,,29,0,14,,,,,,,,,,,,,,,,12,,63,0
10800,note_on,,1,0,16,,,,,,,,,,,,,,,,15,,46,72
10800,note_on,,1,0,7,,,,,,,,,,,,,,,,2,,46,72
10800,note_on,,1,0,14,,,,,,,,,,,,,,,,12,,65,72
10800,note_on,,1,0,13,,,,,,,,,,,,,,,,11,,82,72
10800,note_on,,0,0,16,,,,,,,,,,,,,,,,15,,62,72
10800,note_on,,1,0,15,,,,,,,,,,,,,,,,13,,46,72
10800,note_on,,1,0,12,,,,,,,,,,,,,,,,10,,74,72
10800,note_on,,0,0,16,,,,,,,,,,,,,,,,15,,53,72
10800,note_on,,0,0,16,,,,,,,,,,,,,,,,15,,70,72
10829,note_on,,29,0,12,,,,,,,,,,,,,,,,10,,74,0
10829,note_on,,29,0,14,,,,,,,,,,,,,,,,12,,65,0
10830,note_on,,1,0,12,,,,,,,,,,,,,,,,10,,75,72
10830,note_on,,1,0,14,,,,,,,,,,,,,,,,12,,65,72
10859,note_on,,59,0,7,,,,,,,,,,,,,,,,2,,46,0
10859,note_on,,59,0,13,,,,,,,,,,,,,,,,11,,82,0
10859,note_on,,29,0,12,,,,,,,,,,,,,,,,10,,75,0
10859,note_on,,59,0,15,,,,,,,,,,,,,,,,13,,46,0
10859,note_on,,59,0,16,,,,,,,,,,,,,,,,15,,46,0
10859,note_on,,29,0,14,,,,,,,,,,,,,,,,12,,65,0
10860,note_on,,1,0,14,,,,,,,,,,,,,,,,12,,67,72
10860,note_on,,1,0,12,,,,,,,,,,,,,,,,10,,74,72
10860,note_on,,1,0,13,,,,,,,,,,,,,,,,11,,77,72
10860,note_on,,1,0,15,,,,,,,,,,,,,,,,13,,46,72
10860,note_on,,1,0,16,,,,,,,,,,,,,,,,15,,46,72
10860,note_on,,1,0,7,,,,,,,,,,,,,,,,2,,46,72
10889,note_on,,29,0,14,,,,,,,,,,,,,,,,12,,67,0
10889,note_on,,29,0,12,,,,,,,,,,,,,,,,10,,74,0
10890,note_on,,1,0,12,,,,,,,,,,,,,,,,10,,77,72
10890,note_on,,1,0,14,,,,,,,,,,,,,,,,12,,69,72
10919,note_on,,29,0,14,,,,,,,,,,,,,,,,12,,69,0
10919,note_on,,59,0,15,,,,,,,,,,,,,,,,13,,46,0
10919,note_on,,59,0,16,,,,,,,,,,,,,,,,15,,53,0
10919,note_on,,0,0,16,,,,,,,,,,,,,,,,15,,70,0
10919,note_on,,0,0,16,,,,,,,,,,,,,,,,15,,62,0
10919,note_on,,0,0,16,,,,,,,,,,,,,,,,15,,46,0
10919,note_on,,59,0,13,,,,,,,,,,,,,,,,11,,77,0
10919,note_on,,29,0,12,,,,,,,,,,,,,,,,10,,77,0
10919,note_on,,59,0,7,,,,,,,,,,,,,,,,2,,46,0
10920,note_on,,1,0,12,,,,,,,,,,,,,,,,10,,77,72
10920,note_on,,0,0,16,,,,,,,,,,,,,,,,15,,74,72
10920,note_on,,1,0,14,,,,,,,,,,,,,,,,12,,70,72
10920,note_on,,0,0,16,,,,,,,,,,,,,,,,15,,65,72
10920,note_on,,1,0,13,,,,,,,,,,,,,,,,11,,77,72
10920,note_on,,0,0,16,,,,,,,,,,,,,,,,15,,58,72
10920,note_on,,1,0,16,,,,,,,,,,,,,,,,15,,46,72
10920,note_on,,1,0,15,,,,,,,,,,,,,,,,13,,46,72
10920,note_on,,1,0,7,,,,,,,,,,,,,,,,2,,46,72
10949,note_on,,29,0,12,,,,,,,,,,,,,,,,10,,77,0
10950,note_on,,1,0,12,,,,,,,,,,,,,,,,10,,77,72
10979,note_on,,59,0,14,,,,,,,,,,,,,,,,12,,70,0
10979,note_on,,59,0,16,,,,,,,,,,,,,,,,15,,46,0
10979,note_on,,29,0,12,,,,,,,,,,,,,,,,10,,77,0
10979,note_on,,59,0,7,,,,,,,,,,,,,,,,2,,46,0
10979,note_on,,59,0,15,,,,,,,,,,,,,,,,13,,46,0
10980,note_on,,1,0,15,,,,,,,,,,,,,,,,13,,46,72
10980,note_on,,1,0,7,,,,,,,,,,,,,,,,2,,46,72
10980,note_on,,1,0,12,,,,,,,,,,,,,,,,10,,79,72
10980,note_on,,1,0,14,,,,,,,,,,,,,,,,12,,65,72
10980,note_on,,1,0,16,,,,,,,,,,,,,,,,15,,46,72
11009,note_on,,29,0,12,,,,,,,,,,,,,,,,10,,79,0
11010,note_on,,1,0,12,,,,,,,,,,,,,,,,10,,81,72
11039,note_on,,0,0,16,,,,,,,,,,,,,,,,15,,65,0
11039,note_on,,0,0,16,,,,,,,,,,,,,,,,15,,74,0
11039,note_on,,59,0,16,,,,,,,,,,,,,,,,15,,58,0
11039,note_on,,59,0,7,,,,,,,,,,,,,,,,2,,46,0
11039,note_on,,0,0,16,,,,,,,,,,,,,,,,15,,46,0
11039,note_on,,29,0,12,,,,,,,,,,,,,,,,10,,81,0
11039,note_on,,59,0,15,,,,,,,,,,,,,,,,13,,46,0
11039,note_on,,59,0,14,,,,,,,,,,,,,,,,12,,65,0
11040,note_on,,0,0,16,,,,,,,,,,,,,,,,15,,65,72
11040,note_on,,1,0,15,,,,,,,,,,,,,,,,13,,46,72
11040,note_on,,1,0,14,,,,,,,,,,,,,,,,12,,62,72
11040,note_on,,0,0,16,,,,,,,,,,,,,,,,15,,70,72
11040,note_on,,1,0,7,,,,,,,,,,,,,,,,2,,46,72
11040,note_on,,1,0,12,,,,,,,,,,,,,,,,10,,82,72
11040,note_on,,0,0,16,,,,,,,,,,,,,,,,15,,74,72
11040,note_on,,1,0,16,,,,,,,,,,,,,,,,15,,46,72
11040,note_on,,0,0,16,,,,,,,,,,,,,,,,15,,77,72
11069,note_on,,29,0,7,,,,,,,,,,,,,,,,2,,46,0
11069,note_on,,29,0,16,,,,,,,,,,,,,,,,15,,46,0
11069,note_on,,29,0,15,,,,,,,,,,,,,,,,13,,46,0
11069,note_on,,29,0,14,,,,,,,,,,,,,,,,12,,62,0
11069,note_on,,149,0,13,,,,,,,,,,,,,,,,11,,77,0
11070,note_on,,1,0,14,,,,,,,,,,,,,,,,12,,63,72
11070,note_on,,1,0,16,,,,,,,,,,,,,,,,15,,48,72
11070,note_on,,1,0,15,,,,,,,,,,,,,,,,13,,48,72
11070,note_on,,1,0,7,,,,,,,,,,,,,,,,2,,48,72
11070,note_on,,1,0,13,,,,,,,,,,,,,,,,11,,75,72
11099,note_on,,29,0,15,,,,,,,,,,,,,,,,13,,48,0
11099,note_on,,29,0,14,,,,,,,,,,,,,,,,12,,63,0
11099,note_on,,29,0,13,,,,,,,,,,,,,,,,11,,75,0
11099,note_on,,59,0,12,,,,,,,,,,,,,,,,10,,82,0
11099,note_on,,29,0,16,,,,,,,,,,,,,,,,15,,48,0
11099,note_on,,29,0,7,,,,,,,,,,,,,,,,2,,48,0
11100,note_on,,1,0,13,,,,,,,,,,,,,,,,11,,74,72
11100,note_on,,1,0,14,,,,,,,,,,,,,,,,12,,65,72
11100,note_on,,1,0,15,,,,,,,,,,,,,,,,13,,46,72
11100,note_on,,1,0,7,,,,,,,,,,,,,,,,2,,46,72
11100,note_on,,1,0,12,,,,,,,,,,,,,,,,10,,77,72
11100,note_on,,1,0,16,,,,,,,,,,,,,,,,15,,46,72
11129,note_on,,29,0,15,,,,,,,,,,,,,,,,13,,46,0
11129,note_on,,29,0,7,,,,,,,,,,,,,,,,2,,46,0
11129,note_on,,29,0,13,,,,,,,,,,,,,,,,11,,74,0
11129,note_on,,29,0,16,,,,,,,,,,,,,,,,15,,46,0
11129,note_on,,29,0,14,,,,,,,,,,,,,,,,12,,65,0
11130,note_on,,1,0,15,,,,,,,,,,,,,,,,13,,48,72
11130,note_on,,1,0,13,,,,,,,,,,,,,,,,11,,72,72
11130,note_on,,1,0,7,,,,,,,,,,,,,,,,2,,48,72
11130,note_on,,1,0,16,,,,,,,,,,,,,,,,15,,48,72
11130,note_on,,1,0,14,,,,,,,,,,,,,,,,12,,63,72
11159,note_on,,29,0,7,,,,,,,,,,,,,,,,2,,48,0
11159,note_on,,29,0,14,,,,,,,,,,,,,,,,12,,63,0
11159,note_on,,29,0,13,,,,,,,,,,,,,,,,11,,72,0
11159,note_on,,29,0,15,,,,,,,,,,,,,,,,13,,48,0
11159,note_on,,59,0,12,,,,,,,,,,,,,,,,10,,77,0
11159,note_on,,29,0,16,,,,,,,,,,,,,,,,15,,77,0
11159,note_on,,0,0,16,,,,,,,,,,,,,,,,15,,48,0
11159,note_on,,0,0,16,,,,,,,,,,,,,,,,15,,65,0
11159,note_on,,0,0,16,,,,,,,,,,,,,,,,15,,70,0
11159,note_on,,0,0,16,,,,,,,,,,,,,,,,15,,74,0
11160,note_on,,1,0,15,,,,,,,,,,,,,,,,13,,50,72
11160,note_on,,1,0,7,,,,,,,,,,,,,,,,2,,50,72
11160,note_on,,0,0,16,,,,,,,,,,,,,,,,15,,65,72
11160,note_on,,0,0,16,,,,,,,,,,,,,,,,15,,70,72
11160,note_on,,1,0,12,,,,,,,,,,,,,,,,10,,77,72
11160,note_on,,1,0,16,,,,,,,,,,,,,,,,15,,50,72
11160,note_on,,0,0,16,,,,,,,,,,,,,,,,15,,53,72
11160,note_on,,1,0,14,,,,,,,,,,,,,,,,12,,65,72
11160,note_on,,1,0,13,,,,,,,,,,,,,,,,11,,70,72
11189,note_on,,29,0,15,,,,,,,,,,,,,,,,13,,50,0
11189,note_on,,29,0,7,,,,,,,,,,,,,,,,2,,50,0
11189,note_on,,29,0,14,,,,,,,,,,,,,,,,12,,65,0
11189,note_on,,29,0,13,,,,,,,,,,,,,,,,11,,70,0
11189,note_on,,29,0,16,,,,,,,,,,,,,,,,15,,50,0
11190,note_on,,1,0,16,,,,,,,,,,,,,,,,15,,51,72
11190,note_on,,1,0,15,,,,,,,,,,,,,,,,13,,51,72
11190,note_on,,1,0,14,,,,,,,,,,,,,,,,12,,67,72
11190,note_on,,1,0,7,,,,,,,,,,,,,,,,2,,51,72
11190,note_on,,1,0,13,,,,,,,,,,,,,,,,11,,72,72
11219,note_on,,29,0,15,,,,,,,,,,,,,,,,13,,51,0
11219,note_on,,29,0,7,,,,,,,,,,,,,,,,2,,51,0
11219,note_on,,29,0,14,,,,,,,,,,,,,,,,12,,67,0
11219,note_on,,29,0,13,,,,,,,,,,,,,,,,11,,72,0
11219,note_on,,29,0,16,,,,,,,,,,,,,,,,15,,51,0
11220,note_on,,1,0,15,,,,,,,,,,,,,,,,13,,50,72
11220,note_on,,1,0,7,,,,,,,,,,,,,,,,2,,50,72
11220,note_on,,1,0,13,,,,,,,,,,,,,,,,11,,70,72
11220,note_on,,1,0,16,,,,,,,,,,,,,,,,15,,50,72
11220,note_on,,1,0,14,,,,,,,,,,,,,,,,12,,65,72
11249,note_on,,29,0,7,,,,,,,,,,,,,,,,2,,50,0
11249,note_on,,29,0,15,,,,,,,,,,,,,,,,13,,50,0
11249,note_on,,29,0,16,,,,,,,,,,,,,,,,15,,50,0
11249,note_on,,29,0,13,,,,,,,,,,,,,,,,11,,70,0
11249,note_on,,29,0,14,,,,,,,,,,,,,,,,12,,65,0
11250,note_on,,1,0,15,,,,,,,,,,,,,,,,13,,51,72
11250,note_on,,1,0,14,,,,,,,,,,,,,,,,12,,67,72
11250,note_on,,1,0,13,,,,,,,,,,,,,,,,11,,72,72
11250,note_on,,1,0,7,,,,,,,,,,,,,,,,2,,51,72
11250,note_on,,1,0,16,,,,,,,,,,,,,,,,15,,51,72
11279,note_on,,29,0,13,,,,,,,,,,,,,,,,11,,72,0
11279,note_on,,0,0,16,,,,,,,,,,,,,,,,15,,51,0
11279,note_on,,0,0,16,,,,,,,,,,,,,,,,15,,65,0
11279,note_on,,0,0,16,,,,,,,,,,,,,,,,15,,70,0
11279,note_on,,29,0,16,,,,,,,,,,,,,,,,15,,53,0
11279,note_on,,29,0,14,,,,,,,,,,,,,,,,12,,67,0
11279,note_on,,29,0,7,,,,,,,,,,,,,,,,2,,51,0
11279,note_on,,29,0,15,,,,,,,,,,,,,,,,13,,51,0
11280,note_on,,0,0,16,,,,,,,,,,,,,,,,15,,65,72
11280,note_on,,1,0,16,,,,,,,,,,,,,,,,15,,53,72
11280,note_on,,1,0,14,,,,,,,,,,,,,,,,12,,60,72
11280,note_on,,0,0,16,,,,,,,,,,,,,,,,15,,60,72
11280,note_on,,0,0,16,,,,,,,,,,,,,,,,15,,69,72
11280,note_on,,1,0,13,,,,,,,,,,,,,,,,11,,69,72
11280,note_on,,1,0,15,,,,,,,,,,,,,,,,13,,53,72
11280,note_on,,1,0,7,,,,,,,,,,,,,,,,2,,53,72
11339,note_on,,59,0,15,,,,,,,,,,,,,,,,13,,53,0
11339,note_on,,179,0,12,,,,,,,,,,,,,,,,10,,77,0
11339,note_on,,59,0,7,,,,,,,,,,,,,,,,2,,53,0
11339,note_on,,0,0,16,,,,,,,,,,,,,,,,15,,60,0
11339,note_on,,59,0,13,,,,,,,,,,,,,,,,11,,69,0
11339,note_on,,59,0,16,,,,,,,,,,,,,,,,15,,53,0
11339,note_on,,59,0,14,,,,,,,,,,,,,,,,12,,60,0
11339,note_on,,0,0,16,,,,,,,,,,,,,,,,15,,69,0
11340,note_on,,1,0,12,,,,,,,,,,,,,,,,10,,75,72
11340,note_on,,1,0,15,,,,,,,,,,,,,,,,13,,58,72
11340,note_on,,1,0,14,,,,,,,,,,,,,,,,12,,58,72
11340,note_on,,1,0,7,,,,,,,,,,,,,,,,2,,58,72
11340,note_on,,0,0,16,,,,,,,,,,,,,,,,15,,62,72
11340,note_on,,1,0,13,,,,,,,,,,,,,,,,11,,70,72
11340,note_on,,0,0,16,,,,,,,,,,,,,,,,15,,70,72
11340,note_on,,1,0,16,,,,,,,,,,,,,,,,15,,58,72
11369,note_on,,29,0,12,,,,,,,,,,,,,,,,10,,75,0
11370,note_on,,1,0,12,,,,,,,,,,,,,,,,10,,74,72
11399,note_on,,59,0,14,,,,,,,,,,,,,,,,12,,58,0
11399,note_on,,0,0,16,,,,,,,,,,,,,,,,15,,62,0
11399,note_on,,59,0,7,,,,,,,,,,,,,,,,2,,58,0
11399,note_on,,29,0,12,,,,,,,,,,,,,,,,10,,74,0
11399,note_on,,0,0,16,,,,,,,,,,,,,,,,15,,58,0
11399,note_on,,59,0,16,,,,,,,,,,,,,,,,15,,65,0
11399,note_on,,59,0,15,,,,,,,,,,,,,,,,13,,58,0
11400,note_on,,1,0,12,,,,,,,,,,,,,,,,10,,72,72
11400,note_on,,0,0,16,,,,,,,,,,,,,,,,15,,65,72
11400,note_on,,1,0,14,,,,,,,,,,,,,,,,12,,60,72
11400,note_on,,1,0,7,,,,,,,,,,,,,,,,2,,53,72
11400,note_on,,0,0,16,,,,,,,,,,,,,,,,15,,60,72
11400,note_on,,1,0,16,,,,,,,,,,,,,,,,15,,53,72
11400,note_on,,1,0,15,,,,,,,,,,,,,,,,13,,53,72
11414,note_on,,14,0,12,,,,,,,,,,,,,,,,10,,72,0
11415,note_on,,1,0,12,,,,,,,,,,,,,,,,10,,74,72
11429,note_on,,14,0,12,,,,,,,,,,,,,,,,10,,74,0
11430,note_on,,1,0,12,,,,,,,,,,,,,,,,10,,72,72
11444,note_on,,14,0,12,,,,,,,,,,,,,,,,10,,72,0
11445,note_on,,1,0,12,,,,,,,,,,,,,,,,10,,74,72
11459,note_on,,59,0,7,,,,,,,,,,,,,,,,2,,53,0
11459,note_on,,59,0,14,,,,,,,,,,,,,,,,12,,60,0
11459,note_on,,14,0,12,,,,,,,,,,,,,,,,10,,74,0
11459,note_on,,119,0,13,,,,,,,,,,,,,,,,11,,70,0
11459,note_on,,59,0,15,,,,,,,,,,,,,,,,13,,53,0
11459,note_on,,59,0,16,,,,,,,,,,,,,,,,15,,70,0
11460,note_on,,1,0,12,,,,,,,,,,,,,,,,10,,72,72
11460,note_on,,1,0,7,,,,,,,,,,,,,,,,2,,41,72
11460,note_on,,0,0,16,,,,,,,,,,,,,,,,15,,69,72
11460,note_on,,1,0,13,,,,,,,,,,,,,,,,11,,69,72
11460,note_on,,1,0,16,,,,,,,,,,,,,,,,15,,41,72
11460,note_on,,1,0,14,,,,,,,,,,,,,,,,12,,65,72
11460,note_on,,1,0,15,,,,,,,,,,,,,,,,13,,41,72
11474,note_on,,14,0,12,,,,,,,,,,,,,,,,10,,72,0
11475,note_on,,1,0,12,,,,,,,,,,,,,,,,10,,74,72
11489,note_on,,14,0,12,,,,,,,,,,,,,,,,10,,74,0
11490,note_on,,1,0,12,,,,,,,,,,,,,,,,10,,70,72
11504,note_on,,14,0,12,,,,,,,,,,,,,,,,10,,70,0
11505,note_on,,1,0,12,,,,,,,,,,,,,,,,10,,72,72
11519,note_on,,14,0,12,,,,,,,,,,,,,,,,10,,72,0
11519,note_on,,0,0,16,,,,,,,,,,,,,,,,15,,69,0
11519,note_on,,59,0,16,,,,,,,,,,,,,,,,15,,53,0
11519,note_on,,0,0,16,,,,,,,,,,,,,,,,15,,65,0
11519,note_on,,0,0,16,,,,,,,,,,,,,,,,15,,60,0
11519,note_on,,59,0,15,,,,,,,,,,,,,,,,13,,41,0
11519,note_on,,59,0,13,,,,,,,,,,,,,,,,11,,69,0
11519,note_on,,59,0,14,,,,,,,,,,,,,,,,12,,65,0
11519,note_on,,59,0,7,,,,,,,,,,,,,,,,2,,41,0
11519,note_on,,0,0,16,,,,,,,,,,,,,,,,15,,41,0
11520,note_on,,1,0,15,,,,,,,,,,,,,,,,13,,46,72
11520,note_on,,1,0,14,,,,,,,,,,,,,,,,12,,62,72
11520,note_on,,1,0,7,,,,,,,,,,,,,,,,2,,46,72
11520,note_on,,0,0,16,,,,,,,,,,,,,,,,15,,70,72
11520,note_on,,1,0,16,,,,,,,,,,,,,,,,15,,46,72
11520,note_on,,0,0,16,,,,,,,,,,,,,,,,15,,62,72
11520,note_on,,0,0,16,,,,,,,,,,,,,,,,15,,65,72
11520,note_on,,1,0,13,,,,,,,,,,,,,,,,11,,70,72
11520,note_on,,1,0,12,,,,,,,,,,,,,,,,10,,70,72
11520,note_on,,0,0,16,,,,,,,,,,,,,,,,15,,53,72
11639,note_on,,119,0,16,,,,,,,,,,,,,,,,15,,46,0
11639,note_on,,0,0,16,,,,,,,,,,,,,,,,15,,53,0
11639,note_on,,0,0,16,,,,,,,,,,,,,,,,15,,65,0
11639,note_on,,0,0,16,,,,,,,,,,,,,,,,15,,70,0
11639,end_of_track,,0,1,16,,,,,,,,,,,,,,,,,,,
11639,end_of_track,,0,1,7,,,,,,,,,,,,,,,,,,,
11639,note_on,,0,0,16,,,,,,,,,,,,,,,,15,,62,0
11639,note_on,,119,0,12,,,,,,,,,,,,,,,,10,,70,0
11639,end_of_track,,0,1,12,,,,,,,,,,,,,,,,,,,
11639,note_on,,119,0,13,,,,,,,,,,,,,,,,11,,70,0
11639,end_of_track,,0,1,13,,,,,,,,,,,,,,,,,,,
11639,note_on,,119,0,14,,,,,,,,,,,,,,,,12,,62,0
11639,end_of_track,,0,1,14,,,,,,,,,,,,,,,,,,,
11639,note_on,,119,0,15,,,,,,,,,,,,,,,,13,,46,0
11639,end_of_track,,0,1,15,,,,,,,,,,,,,,,,,,,
11639,note_on,,119,0,7,,,,,,,,,,,,,,,,2,,46,0
12240,set_tempo,,12240,1,0,,,,,,,,,500000,,,,,,,,,,
12240,end_of_track,,0,1,0,,,,,,,,,,,,,,,,,,,
