tick,type,data,time,meta,track,frame_rate,hours,minutes,seconds,frames,sub_frames,port,key,tempo,numerator,denominator,clocks_per_click,notated_32nd_notes_per_beat,program,channel,control,value,note,velocity
0,sequencer_specific,"(0, 0, 91, 35, 1, 0, 5, 4, 35, 0)",0,1,0,,,,,,,,,,,,,,,,,,,
0,control_change,,0,0,10,,,,,,,,,,,,,,,12,7,96,,
0,note_on,,0,0,10,,,,,,,,,,,,,,,12,,,55,72
0,control_change,,0,0,6,,,,,,,,,,,,,,,1,7,80,,
0,control_change,,0,0,6,,,,,,,,,,,,,,,1,10,75,,
0,control_change,,0,0,6,,,,,,,,,,,,,,,1,11,127,,
0,program_change,,0,0,6,,,,,,,,,,,,,,68,1,,,,
0,midi_port,,0,1,6,,,,,,,0,,,,,,,,,,,,
0,track_name,,0,1,6,,,,,,,,,,,,,,,,,,,
0,track_name,,0,1,11,,,,,,,,,,,,,,,,,,,
0,midi_port,,0,1,11,,,,,,,0,,,,,,,,,,,,
0,program_change,,0,0,10,,,,,,,,,,,,,,48,12,,,,
0,control_change,,0,0,11,,,,,,,,,,,,,,,13,11,127,,
0,control_change,,0,0,11,,,,,,,,,,,,,,,13,7,96,,
0,note_on,,0,0,11,,,,,,,,,,,,,,,13,,,52,72
0,track_name,,0,1,12,,,,,,,,,,,,,,,,,,,
0,midi_port,,0,1,12,,,,,,,0,,,,,,,,,,,,
0,control_change,,0,0,12,,,,,,,,,,,,,,,15,10,90,,
0,control_change,,0,0,12,,,,,,,,,,,,,,,15,7,96,,
0,control_change,,0,0,12,,,,,,,,,,,,,,,15,11,127,,
0,program_change,,0,0,12,,,,,,,,,,,,,,6,15,,,,
0,note_on,,0,0,12,,,,,,,,,,,,,,,15,,,52,72
0,note_on,,0,0,12,,,,,,,,,,,,,,,15,,,55,72
0,control_change,,0,0,11,,,,,,,,,,,,,,,13,10,96,,
0,note_on,,0,0,12,,,,,,,,,,,,,,,15,,,59,72
0,control_change,,0,0,10,,,,,,,,,,,,,,,12,10,80,,
0,midi_port,,0,1,10,,,,,,,0,,,,,,,,,,,,
0,note_on,,0,0,8,,,,,,,,,,,,,,,10,,,64,72
0,control_change,,0,0,8,,,,,,,,,,,,,,,10,7,96,,
0,program_change,,0,0,8,,,,,,,,,,,,,,48,10,,,,
0,control_change,,0,0,8,,,,,,,,,,,,,,,10,10,48,,
0,control_change,,0,0,8,,,,,,,,,,,,,,,10,11,127,,
0,midi_port,,0,1,8,,,,,,,0,,,,,,,,,,,,
0,track_name,,0,1,8,,,,,,,,,,,,,,,,,,,
0,track_name,,0,1,7,,,,,,,,,,,,,,,,,,,
0,midi_port,,0,1,7,,,,,,,0,,,,,,,,,,,,
0,program_change,,0,0,7,,,,,,,,,,,,,,70,2,,,,
0,control_change,,0,0,10,,,,,,,,,,,,,,,12,11,127,,
0,control_change,,0,0,7,,,,,,,,,,,,,,,2,11,127,,
0,control_change,,0,0,7,,,,,,,,,,,,,,,2,7,96,,
0,note_on,,0,0,7,,,,,,,,,,,,,,,2,,,52,72
0,track_name,,0,1,9,,,,,,,,,,,,,,,,,,,
0,midi_port,,0,1,9,,,,,,,0,,,,,,,,,,,,
0,control_change,,0,0,9,,,,,,,,,,,,,,,11,11,127,,
0,control_change,,0,0,9,,,,,,,,,,,,,,,11,10,24,,
0,program_change,,0,0,9,,,,,,,,,,,,,,48,11,,,,
0,control_change,,0,0,9,,,,,,,,,,,,,,,11,7,96,,
0,note_on,,0,0,9,,,,,,,,,,,,,,,11,,,59,72
0,track_name,,0,1,10,,,,,,,,,,,,,,,,,,,
0,control_change,,0,0,7,,,,,,,,,,,,,,,2,10,65,,
0,note_on,,0,0,12,,,,,,,,,,,,,,,15,,,64,72
0,program_change,,0,0,11,,,,,,,,,,,,,,48,13,,,,
0,end_of_track,,0,1,3,,,,,,,,,,,,,,,,,,,
0,end_of_track,,0,1,4,,,,,,,,,,,,,,,,,,,
0,program_change,,0,0,5,,,,,,,,,,,,,,68,0,,,,
0,control_change,,0,0,5,,,,,,,,,,,,,,,0,11,127,,
0,control_change,,0,0,5,,,,,,,,,,,,,,,0,10,70,,
0,midi_port,,0,1,4,,,,,,,0,,,,,,,,,,,,
0,control_change,,0,0,5,,,,,,,,,,,,,,,0,7,80,,
0,midi_port,,0,1,3,,,,,,,0,,,,,,,,,,,,
0,track_name,,0,1,3,,,,,,,,,,,,,,,,,,,
0,end_of_track,,0,1,2,,,,,,,,,,,,,,,,,,,
0,midi_port,,0,1,2,,,,,,,0,,,,,,,,,,,,
0,track_name,,0,1,2,,,,,,,,,,,,,,,,,,,
0,note_on,,0,0,5,,,,,,,,,,,,,,,0,,,64,72
0,end_of_track,,0,1,1,,,,,,,,,,,,,,,,,,,
0,midi_port,,0,1,1,,,,,,,0,,,,,,,,,,,,
0,track_name,,0,1,1,,,,,,,,,,,,,,,,,,,
0,time_signature,,0,1,0,,,,,,,,,,4,4,24,8,,,,,,
0,set_tempo,,0,1,0,,,,,,,,,1000000,,,,,,,,,,
0,key_signature,,0,1,0,,,,,,,,G,,,,,,,,,,,
0,midi_port,,0,1,0,,,,,,,0,,,,,,,,,,,,
0,smpte_offset,,0,1,0,25,32,0,3,0,0,,,,,,,,,,,,,
0,instrument_name,,0,1,0,,,,,,,,,,,,,,,,,,,
0,track_name,,0,1,0,,,,,,,,,,,,,,,,,,,
0,track_name,,0,1,5,,,,,,,,,,,,,,,,,,,
0,midi_port,,0,1,5,,,,,,,0,,,,,,,,,,,,
179,note_on,,179,0,5,,,,,,,,,,,,,,,0,,,64,0
179,note_on,,179,0,10,,,,,,,,,,,,,,,12,,,55,0
179,note_on,,179,0,9,,,,,,,,,,,,,,,11,,,59,0
179,note_on,,179,0,8,,,,,,,,,,,,,,,10,,,64,0
180,note_on,,1,0,9,,,,,,,,,,,,,,,11,,,69,72
180,note_on,,1,0,8,,,,,,,,,,,,,,,10,,,72,72
180,note_on,,1,0,10,,,,,,,,,,,,,,,12,,,57,72
180,note_on,,1,0,5,,,,,,,,,,,,,,,0,,,72,72
239,note_on,,59,0,10,,,,,,,,,,,,,,,12,,,57,0
239,note_on,,239,0,7,,,,,,,,,,,,,,,2,,,52,0
239,note_on,,59,0,5,,,,,,,,,,,,,,,0,,,72,0
239,note_on,,59,0,9,,,,,,,,,,,,,,,11,,,69,0
239,note_on,,239,0,11,,,,,,,,,,,,,,,13,,,52,0
239,note_on,,59,0,8,,,,,,,,,,,,,,,10,,,72,0
239,note_on,,239,0,12,,,,,,,,,,,,,,,15,,,52,0
239,note_on,,0,0,12,,,,,,,,,,,,,,,15,,,55,0
239,note_on,,0,0,12,,,,,,,,,,,,,,,15,,,59,0
239,note_on,,0,0,12,,,,,,,,,,,,,,,15,,,64,0
240,note_on,,1,0,9,,,,,,,,,,,,,,,11,,,67,72
240,note_on,,1,0,10,,,,,,,,,,,,,,,12,,,59,72
240,note_on,,1,0,8,,,,,,,,,,,,,,,10,,,71,72
240,note_on,,1,0,5,,,,,,,,,,,,,,,0,,,71,72
419,note_on,,179,0,9,,,,,,,,,,,,,,,11,,,67,0
419,note_on,,179,0,10,,,,,,,,,,,,,,,12,,,59,0
419,note_on,,179,0,5,,,,,,,,,,,,,,,0,,,71,0
419,note_on,,179,0,8,,,,,,,,,,,,,,,10,,,71,0
420,note_on,,1,0,9,,,,,,,,,,,,,,,11,,,66,72
420,note_on,,1,0,8,,,,,,,,,,,,,,,10,,,69,72
420,note_on,,1,0,5,,,,,,,,,,,,,,,0,,,69,72
420,note_on,,1,0,10,,,,,,,,,,,,,,,12,,,59,72
479,note_on,,59,0,5,,,,,,,,,,,,,,,0,,,69,0
479,note_on,,59,0,9,,,,,,,,,,,,,,,11,,,66,0
479,note_on,,59,0,10,,,,,,,,,,,,,,,12,,,59,0
479,note_on,,59,0,8,,,,,,,,,,,,,,,10,,,69,0
480,note_on,,1,0,10,,,,,,,,,,,,,,,12,,,59,72
480,note_on,,0,0,12,,,,,,,,,,,,,,,15,,,54,72
480,note_on,,1,0,9,,,,,,,,,,,,,,,11,,,66,72
480,note_on,,1,0,5,,,,,,,,,,,,,,,0,,,75,72
480,note_on,,241,0,12,,,,,,,,,,,,,,,15,,,66,72
480,note_on,,241,0,7,,,,,,,,,,,,,,,2,,,47,72
480,note_on,,0,0,12,,,,,,,,,,,,,,,15,,,63,72
480,note_on,,0,0,12,,,,,,,,,,,,,,,15,,,59,72
480,note_on,,241,0,11,,,,,,,,,,,,,,,13,,,47,72
480,note_on,,0,0,12,,,,,,,,,,,,,,,15,,,47,72
480,note_on,,1,0,8,,,,,,,,,,,,,,,10,,,75,72
659,note_on,,179,0,8,,,,,,,,,,,,,,,10,,,75,0
659,note_on,,179,0,11,,,,,,,,,,,,,,,13,,,47,0
659,note_on,,0,0,12,,,,,,,,,,,,,,,15,,,59,0
659,note_on,,179,0,10,,,,,,,,,,,,,,,12,,,59,0
659,note_on,,179,0,7,,,,,,,,,,,,,,,2,,,47,0
659,note_on,,179,0,12,,,,,,,,,,,,,,,15,,,66,0
659,note_on,,0,0,12,,,,,,,,,,,,,,,15,,,47,0
659,note_on,,0,0,12,,,,,,,,,,,,,,,15,,,54,0
659,note_on,,0,0,12,,,,,,,,,,,,,,,15,,,63,0
659,note_on,,179,0,5,,,,,,,,,,,,,,,0,,,75,0
659,note_on,,179,0,9,,,,,,,,,,,,,,,11,,,66,0
660,note_on,,1,0,8,,,,,,,,,,,,,,,10,,,73,72
660,note_on,,1,0,7,,,,,,,,,,,,,,,2,,,55,72
660,note_on,,1,0,12,,,,,,,,,,,,,,,15,,,64,72
660,note_on,,0,0,12,,,,,,,,,,,,,,,15,,,59,72
660,note_on,,0,0,12,,,,,,,,,,,,,,,15,,,55,72
660,note_on,,1,0,11,,,,,,,,,,,,,,,13,,,55,72
660,note_on,,1,0,5,,,,,,,,,,,,,,,0,,,73,72
660,note_on,,1,0,10,,,,,,,,,,,,,,,12,,,71,72
660,note_on,,1,0,9,,,,,,,,,,,,,,,11,,,64,72
689,note_on,,29,0,5,,,,,,,,,,,,,,,0,,,73,0
689,note_on,,29,0,8,,,,,,,,,,,,,,,10,,,73,0
690,note_on,,1,0,5,,,,,,,,,,,,,,,0,,,71,72
690,note_on,,1,0,8,,,,,,,,,,,,,,,10,,,71,72
719,note_on,,59,0,9,,,,,,,,,,,,,,,11,,,64,0
719,note_on,,0,0,12,,,,,,,,,,,,,,,15,,,59,0
719,note_on,,59,0,12,,,,,,,,,,,,,,,15,,,64,0
719,note_on,,59,0,7,,,,,,,,,,,,,,,2,,,55,0
719,note_on,,59,0,10,,,,,,,,,,,,,,,12,,,71,0
719,note_on,,29,0,5,,,,,,,,,,,,,,,0,,,71,0
719,note_on,,29,0,8,,,,,,,,,,,,,,,10,,,71,0
719,note_on,,0,0,12,,,,,,,,,,,,,,,15,,,55,0
719,note_on,,59,0,11,,,,,,,,,,,,,,,13,,,55,0
720,note_on,,0,0,12,,,,,,,,,,,,,,,15,,,54,72
720,note_on,,1,0,10,,,,,,,,,,,,,,,12,,,71,72
720,note_on,,1,0,5,,,,,,,,,,,,,,,0,,,79,72
720,note_on,,1,0,7,,,,,,,,,,,,,,,2,,,54,72
720,note_on,,0,0,12,,,,,,,,,,,,,,,15,,,71,72
720,note_on,,1,0,12,,,,,,,,,,,,,,,15,,,55,72
720,note_on,,1,0,11,,,,,,,,,,,,,,,13,,,54,72
720,note_on,,0,0,12,,,,,,,,,,,,,,,15,,,64,72
720,note_on,,1,0,9,,,,,,,,,,,,,,,11,,,71,72
720,note_on,,1,0,8,,,,,,,,,,,,,,,10,,,79,72
899,note_on,,179,0,12,,,,,,,,,,,,,,,15,,,54,0
899,note_on,,179,0,10,,,,,,,,,,,,,,,12,,,71,0
899,note_on,,179,0,9,,,,,,,,,,,,,,,11,,,71,0
899,note_on,,179,0,8,,,,,,,,,,,,,,,10,,,79,0
899,note_on,,179,0,7,,,,,,,,,,,,,,,2,,,54,0
899,note_on,,179,0,11,,,,,,,,,,,,,,,13,,,54,0
899,note_on,,179,0,5,,,,,,,,,,,,,,,0,,,79,0
900,note_on,,1,0,11,,,,,,,,,,,,,,,13,,,52,72
900,note_on,,1,0,7,,,,,,,,,,,,,,,2,,,52,72
900,note_on,,1,0,5,,,,,,,,,,,,,,,0,,,79,72
900,note_on,,1,0,8,,,,,,,,,,,,,,,10,,,79,72
900,note_on,,1,0,9,,,,,,,,,,,,,,,11,,,71,72
900,note_on,,1,0,10,,,,,,,,,,,,,,,12,,,67,72
900,note_on,,1,0,12,,,,,,,,,,,,,,,15,,,52,72
959,note_on,,59,0,11,,,,,,,,,,,,,,,13,,,52,0
959,note_on,,0,0,12,,,,,,,,,,,,,,,15,,,71,0
959,note_on,,0,0,12,,,,,,,,,,,,,,,15,,,64,0
959,note_on,,59,0,12,,,,,,,,,,,,,,,15,,,55,0
959,note_on,,0,0,12,,,,,,,,,,,,,,,15,,,52,0
959,note_on,,59,0,10,,,,,,,,,,,,,,,12,,,67,0
959,note_on,,59,0,7,,,,,,,,,,,,,,,2,,,52,0
959,note_on,,59,0,9,,,,,,,,,,,,,,,11,,,71,0
959,note_on,,59,0,5,,,,,,,,,,,,,,,0,,,79,0
959,note_on,,59,0,8,,,,,,,,,,,,,,,10,,,79,0
960,note_on,,0,0,12,,,,,,,,,,,,,,,15,,,73,72
960,note_on,,1,0,10,,,,,,,,,,,,,,,12,,,64,72
960,note_on,,0,0,12,,,,,,,,,,,,,,,15,,,58,72
960,note_on,,1,0,9,,,,,,,,,,,,,,,11,,,73,72
960,note_on,,1,0,8,,,,,,,,,,,,,,,10,,,79,72
960,note_on,,1,0,11,,,,,,,,,,,,,,,13,,,58,72
960,note_on,,0,0,12,,,,,,,,,,,,,,,15,,,64,72
960,note_on,,1,0,12,,,,,,,,,,,,,,,15,,,61,72
960,note_on,,1,0,5,,,,,,,,,,,,,,,0,,,79,72
960,note_on,,1,0,7,,,,,,,,,,,,,,,2,,,58,72
1139,note_on,,179,0,7,,,,,,,,,,,,,,,2,,,58,0
1139,note_on,,179,0,12,,,,,,,,,,,,,,,15,,,58,0
1139,note_on,,179,0,5,,,,,,,,,,,,,,,0,,,79,0
1139,note_on,,179,0,8,,,,,,,,,,,,,,,10,,,79,0
1139,note_on,,179,0,9,,,,,,,,,,,,,,,11,,,73,0
1139,note_on,,179,0,10,,,,,,,,,,,,,,,12,,,64,0
1139,note_on,,179,0,11,,,,,,,,,,,,,,,13,,,58,0
1140,note_on,,1,0,12,,,,,,,,,,,,,,,15,,,58,72
1140,note_on,,1,0,11,,,,,,,,,,,,,,,13,,,58,72
1140,note_on,,1,0,8,,,,,,,,,,,,,,,10,,,78,72
1140,note_on,,1,0,5,,,,,,,,,,,,,,,0,,,78,72
1140,note_on,,1,0,10,,,,,,,,,,,,,,,12,,,66,72
1140,note_on,,1,0,9,,,,,,,,,,,,,,,11,,,73,72
1140,note_on,,1,0,7,,,,,,,,,,,,,,,2,,,58,72
1199,note_on,,59,0,5,,,,,,,,,,,,,,,0,,,78,0
1199,note_on,,59,0,7,,,,,,,,,,,,,,,2,,,58,0
1199,note_on,,59,0,12,,,,,,,,,,,,,,,15,,,64,0
1199,note_on,,0,0,12,,,,,,,,,,,,,,,15,,,73,0
1199,note_on,,0,0,12,,,,,,,,,,,,,,,15,,,58,0
1199,note_on,,59,0,10,,,,,,,,,,,,,,,12,,,66,0
1199,note_on,,59,0,11,,,,,,,,,,,,,,,13,,,58,0
1199,note_on,,59,0,8,,,,,,,,,,,,,,,10,,,78,0
1199,note_on,,59,0,9,,,,,,,,,,,,,,,11,,,73,0
1200,note_on,,0,0,12,,,,,,,,,,,,,,,15,,,66,72
1200,note_on,,0,0,12,,,,,,,,,,,,,,,15,,,78,72
1200,note_on,,0,0,12,,,,,,,,,,,,,,,15,,,73,72
1200,note_on,,1,0,9,,,,,,,,,,,,,,,11,,,73,72
1200,note_on,,1,0,5,,,,,,,,,,,,,,,0,,,78,72
1200,note_on,,1,0,10,,,,,,,,,,,,,,,12,,,66,72
1200,note_on,,1,0,12,,,,,,,,,,,,,,,15,,,58,72
1200,note_on,,1,0,11,,,,,,,,,,,,,,,13,,,58,72
1200,note_on,,1,0,8,,,,,,,,,,,,,,,10,,,78,72
1200,note_on,,1,0,7,,,,,,,,,,,,,,,2,,,58,72
1379,note_on,,179,0,7,,,,,,,,,,,,,,,2,,,58,0
1379,note_on,,179,0,5,,,,,,,,,,,,,,,0,,,78,0
1379,note_on,,179,0,12,,,,,,,,,,,,,,,15,,,58,0
1379,note_on,,179,0,11,,,,,,,,,,,,,,,13,,,58,0
1379,note_on,,179,0,9,,,,,,,,,,,,,,,11,,,73,0
1379,note_on,,179,0,10,,,,,,,,,,,,,,,12,,,66,0
1379,note_on,,179,0,8,,,,,,,,,,,,,,,10,,,78,0
1380,note_on,,1,0,11,,,,,,,,,,,,,,,13,,,54,72
1380,note_on,,1,0,9,,,,,,,,,,,,,,,11,,,70,72
1380,note_on,,1,0,8,,,,,,,,,,,,,,,10,,,76,72
1380,note_on,,1,0,7,,,,,,,,,,,,,,,2,,,54,72
1380,note_on,,1,0,12,,,,,,,,,,,,,,,15,,,54,72
1380,note_on,,1,0,10,,,,,,,,,,,,,,,12,,,73,72
1380,note_on,,1,0,5,,,,,,,,,,,,,,,0,,,76,72
1439,note_on,,59,0,7,,,,,,,,,,,,,,,2,,,54,0
1439,note_on,,0,0,12,,,,,,,,,,,,,,,15,,,73,0
1439,note_on,,59,0,8,,,,,,,,,,,,,,,10,,,76,0
1439,note_on,,59,0,10,,,,,,,,,,,,,,,12,,,73,0
1439,note_on,,0,0,12,,,,,,,,,,,,,,,15,,,54,0
1439,note_on,,0,0,12,,,,,,,,,,,,,,,15,,,78,0
1439,note_on,,0,0,12,,,,,,,,,,,,,,,15,,,66,0
1439,note_on,,59,0,5,,,,,,,,,,,,,,,0,,,76,0
1439,note_on,,59,0,9,,,,,,,,,,,,,,,11,,,70,0
1439,note_on,,59,0,12,,,,,,,,,,,,,,,15,,,61,0
1439,note_on,,59,0,11,,,,,,,,,,,,,,,13,,,54,0
1440,note_on,,1,0,12,,,,,,,,,,,,,,,15,,,59,72
1440,note_on,,0,0,12,,,,,,,,,,,,,,,15,,,66,72
1440,note_on,,1,0,5,,,,,,,,,,,,,,,0,,,75,72
1440,note_on,,1,0,7,,,,,,,,,,,,,,,2,,,59,72
1440,note_on,,0,0,12,,,,,,,,,,,,,,,15,,,75,72
1440,note_on,,1,0,9,,,,,,,,,,,,,,,11,,,66,72
1440,note_on,,1,0,8,,,,,,,,,,,,,,,10,,,75,72
1440,note_on,,1,0,10,,,,,,,,,,,,,,,12,,,71,72
1440,note_on,,1,0,11,,,,,,,,,,,,,,,13,,,59,72
1440,note_on,,0,0,12,,,,,,,,,,,,,,,15,,,78,72
1619,note_on,,179,0,11,,,,,,,,,,,,,,,13,,,59,0
1619,note_on,,179,0,5,,,,,,,,,,,,,,,0,,,75,0
1619,note_on,,179,0,10,,,,,,,,,,,,,,,12,,,71,0
1619,note_on,,179,0,9,,,,,,,,,,,,,,,11,,,66,0
1619,note_on,,179,0,7,,,,,,,,,,,,,,,2,,,59,0
1619,note_on,,179,0,8,,,,,,,,,,,,,,,10,,,75,0
1620,note_on,,1,0,7,,,,,,,,,,,,,,,2,,,47,72
1620,note_on,,1,0,9,,,,,,,,,,,,,,,11,,,63,72
1620,note_on,,1,0,10,,,,,,,,,,,,,,,12,,,71,72
1620,note_on,,180,0,12,,,,,,,,,,,,,,,15,,,47,72
1620,note_on,,1,0,5,,,,,,,,,,,,,,,0,,,78,72
1620,note_on,,1,0,11,,,,,,,,,,,,,,,13,,,47,72
1620,note_on,,1,0,8,,,,,,,,,,,,,,,10,,,78,72
1679,note_on,,59,0,9,,,,,,,,,,,,,,,11,,,63,0
1679,note_on,,0,0,12,,,,,,,,,,,,,,,15,,,66,0
1679,note_on,,59,0,11,,,,,,,,,,,,,,,13,,,47,0
1679,note_on,,0,0,12,,,,,,,,,,,,,,,15,,,78,0
1679,note_on,,0,0,12,,,,,,,,,,,,,,,15,,,75,0
1679,note_on,,59,0,12,,,,,,,,,,,,,,,15,,,59,0
1679,note_on,,0,0,12,,,,,,,,,,,,,,,15,,,47,0
1679,note_on,,59,0,5,,,,,,,,,,,,,,,0,,,78,0
1679,note_on,,59,0,8,,,,,,,,,,,,,,,10,,,78,0
1679,note_on,,59,0,10,,,,,,,,,,,,,,,12,,,71,0
1679,note_on,,59,0,7,,,,,,,,,,,,,,,2,,,47,0
1680,note_on,,1,0,8,,,,,,,,,,,,,,,10,,,79,72
1680,note_on,,1,0,5,,,,,,,,,,,,,,,0,,,79,72
1680,note_on,,1,0,7,,,,,,,,,,,,,,,2,,,47,72
1680,note_on,,0,0,12,,,,,,,,,,,,,,,15,,,47,72
1680,note_on,,1,0,12,,,,,,,,,,,,,,,15,,,67,72
1680,note_on,,1,0,10,,,,,,,,,,,,,,,12,,,62,72
1680,note_on,,0,0,12,,,,,,,,,,,,,,,15,,,74,72
1680,note_on,,0,0,12,,,,,,,,,,,,,,,15,,,55,72
1680,note_on,,1,0,11,,,,,,,,,,,,,,,13,,,47,72
1680,note_on,,1,0,9,,,,,,,,,,,,,,,11,,,59,72
1859,note_on,,179,0,12,,,,,,,,,,,,,,,15,,,67,0
1859,note_on,,0,0,12,,,,,,,,,,,,,,,15,,,47,0
1859,note_on,,179,0,5,,,,,,,,,,,,,,,0,,,79,0
1859,note_on,,179,0,10,,,,,,,,,,,,,,,12,,,62,0
1859,note_on,,179,0,9,,,,,,,,,,,,,,,11,,,59,0
1859,note_on,,179,0,11,,,,,,,,,,,,,,,13,,,47,0
1859,note_on,,179,0,8,,,,,,,,,,,,,,,10,,,79,0
1859,note_on,,179,0,7,,,,,,,,,,,,,,,2,,,47,0
1860,note_on,,1,0,9,,,,,,,,,,,,,,,11,,,62,72
1860,note_on,,1,0,8,,,,,,,,,,,,,,,10,,,83,72
1860,note_on,,1,0,7,,,,,,,,,,,,,,,2,,,43,72
1860,note_on,,1,0,5,,,,,,,,,,,,,,,0,,,83,72
1860,note_on,,1,0,11,,,,,,,,,,,,,,,13,,,43,72
1860,note_on,,1,0,12,,,,,,,,,,,,,,,15,,,43,72
1860,note_on,,1,0,10,,,,,,,,,,,,,,,12,,,67,72
1860,note_on,,0,0,12,,,,,,,,,,,,,,,15,,,67,72
1860,note_on,,0,0,12,,,,,,,,,,,,,,,15,,,71,72
1919,note_on,,0,0,12,,,,,,,,,,,,,,,15,,,71,0
1919,note_on,,59,0,8,,,,,,,,,,,,,,,10,,,83,0
1919,note_on,,59,0,7,,,,,,,,,,,,,,,2,,,43,0
1919,note_on,,0,0,12,,,,,,,,,,,,,,,15,,,43,0
1919,note_on,,0,0,12,,,,,,,,,,,,,,,15,,,55,0
1919,note_on,,59,0,12,,,,,,,,,,,,,,,15,,,74,0
1919,note_on,,59,0,11,,,,,,,,,,,,,,,13,,,43,0
1919,note_on,,59,0,9,,,,,,,,,,,,,,,11,,,62,0
1919,note_on,,59,0,5,,,,,,,,,,,,,,,0,,,83,0
1919,note_on,,0,0,12,,,,,,,,,,,,,,,15,,,67,0
1919,note_on,,59,0,10,,,,,,,,,,,,,,,12,,,67,0
1920,note_on,,1,0,10,,,,,,,,,,,,,,,12,,,67,72
1920,note_on,,1,0,11,,,,,,,,,,,,,,,13,,,48,72
1920,note_on,,1,0,5,,,,,,,,,,,,,,,0,,,76,72
1920,note_on,,0,0,12,,,,,,,,,,,,,,,15,,,55,72
1920,note_on,,0,0,12,,,,,,,,,,,,,,,15,,,48,72
1920,note_on,,1,0,7,,,,,,,,,,,,,,,2,,,48,72
1920,note_on,,1,0,12,,,,,,,,,,,,,,,15,,,76,72
1920,note_on,,1,0,9,,,,,,,,,,,,,,,11,,,64,72
1920,note_on,,0,0,12,,,,,,,,,,,,,,,15,,,67,72
1920,note_on,,0,0,12,,,,,,,,,,,,,,,15,,,72,72
1920,note_on,,1,0,8,,,,,,,,,,,,,,,10,,,76,72
2099,note_on,,179,0,8,,,,,,,,,,,,,,,10,,,76,0
2099,note_on,,179,0,5,,,,,,,,,,,,,,,0,,,76,0
2100,note_on,,1,0,8,,,,,,,,,,,,,,,10,,,69,72
2100,note_on,,1,0,5,,,,,,,,,,,,,,,0,,,69,72
2159,note_on,,239,0,11,,,,,,,,,,,,,,,13,,,48,0
2159,note_on,,239,0,7,,,,,,,,,,,,,,,2,,,48,0
2159,note_on,,239,0,12,,,,,,,,,,,,,,,15,,,76,0
2159,note_on,,239,0,10,,,,,,,,,,,,,,,12,,,67,0
2159,note_on,,59,0,5,,,,,,,,,,,,,,,0,,,69,0
2159,note_on,,239,0,9,,,,,,,,,,,,,,,11,,,64,0
2159,note_on,,0,0,12,,,,,,,,,,,,,,,15,,,48,0
2159,note_on,,59,0,8,,,,,,,,,,,,,,,10,,,69,0
2159,note_on,,0,0,12,,,,,,,,,,,,,,,15,,,67,0
2159,note_on,,0,0,12,,,,,,,,,,,,,,,15,,,72,0
2159,note_on,,0,0,12,,,,,,,,,,,,,,,15,,,55,0
2160,note_on,,1,0,11,,,,,,,,,,,,,,,13,,,49,72
2160,note_on,,1,0,7,,,,,,,,,,,,,,,2,,,49,72
2160,note_on,,1,0,8,,,,,,,,,,,,,,,10,,,67,72
2160,note_on,,0,0,12,,,,,,,,,,,,,,,15,,,64,72
2160,note_on,,1,0,10,,,,,,,,,,,,,,,12,,,57,72
2160,note_on,,0,0,12,,,,,,,,,,,,,,,15,,,69,72
2160,note_on,,1,0,9,,,,,,,,,,,,,,,11,,,64,72
2160,note_on,,0,0,12,,,,,,,,,,,,,,,15,,,49,72
2160,note_on,,1,0,5,,,,,,,,,,,,,,,0,,,67,72
2160,note_on,,1,0,12,,,,,,,,,,,,,,,15,,,55,72
2160,note_on,,0,0,12,,,,,,,,,,,,,,,15,,,57,72
2279,note_on,,119,0,10,,,,,,,,,,,,,,,12,,,57,0
2279,note_on,,0,0,12,,,,,,,,,,,,,,,15,,,57,0
2279,note_on,,0,0,12,,,,,,,,,,,,,,,15,,,69,0
2279,note_on,,0,0,12,,,,,,,,,,,,,,,15,,,64,0
2279,note_on,,119,0,7,,,,,,,,,,,,,,,2,,,49,0
2279,note_on,,119,0,12,,,,,,,,,,,,,,,15,,,55,0
2279,note_on,,0,0,12,,,,,,,,,,,,,,,15,,,49,0
2279,note_on,,119,0,11,,,,,,,,,,,,,,,13,,,49,0
2279,note_on,,119,0,9,,,,,,,,,,,,,,,11,,,64,0
2280,note_on,,1,0,12,,,,,,,,,,,,,,,15,,,45,72
2280,note_on,,0,0,12,,,,,,,,,,,,,,,15,,,64,72
2280,note_on,,0,0,12,,,,,,,,,,,,,,,15,,,73,72
2280,note_on,,0,0,12,,,,,,,,,,,,,,,15,,,52,72
2280,note_on,,0,0,12,,,,,,,,,,,,,,,15,,,69,72
2280,note_on,,1,0,10,,,,,,,,,,,,,,,12,,,64,72
2280,note_on,,1,0,7,,,,,,,,,,,,,,,2,,,45,72
2280,note_on,,1,0,11,,,,,,,,,,,,,,,13,,,45,72
2280,note_on,,1,0,9,,,,,,,,,,,,,,,11,,,61,72
2339,note_on,,179,0,8,,,,,,,,,,,,,,,10,,,67,0
2339,note_on,,179,0,5,,,,,,,,,,,,,,,0,,,67,0
2340,note_on,,1,0,5,,,,,,,,,,,,,,,0,,,66,72
2340,note_on,,1,0,8,,,,,,,,,,,,,,,10,,,66,72
2399,note_on,,119,0,11,,,,,,,,,,,,,,,13,,,45,0
2399,note_on,,119,0,10,,,,,,,,,,,,,,,12,,,64,0
2399,note_on,,119,0,9,,,,,,,,,,,,,,,11,,,61,0
2399,note_on,,59,0,5,,,,,,,,,,,,,,,0,,,66,0
2399,note_on,,59,0,8,,,,,,,,,,,,,,,10,,,66,0
2399,note_on,,119,0,12,,,,,,,,,,,,,,,15,,,45,0
2399,note_on,,0,0,12,,,,,,,,,,,,,,,15,,,64,0
2399,note_on,,0,0,12,,,,,,,,,,,,,,,15,,,73,0
2399,note_on,,0,0,12,,,,,,,,,,,,,,,15,,,52,0
2399,note_on,,0,0,12,,,,,,,,,,,,,,,15,,,69,0
2399,note_on,,119,0,7,,,,,,,,,,,,,,,2,,,45,0
2400,note_on,,0,0,12,,,,,,,,,,,,,,,15,,,62,72
2400,note_on,,0,0,12,,,,,,,,,,,,,,,15,,,69,72
2400,note_on,,1,0,11,,,,,,,,,,,,,,,13,,,50,72
2400,note_on,,1,0,8,,,,,,,,,,,,,,,10,,,66,72
2400,note_on,,1,0,10,,,,,,,,,,,,,,,12,,,62,72
2400,note_on,,1,0,9,,,,,,,,,,,,,,,11,,,57,72
2400,note_on,,1,0,5,,,,,,,,,,,,,,,0,,,66,72
2400,note_on,,0,0,12,,,,,,,,,,,,,,,15,,,54,72
2400,note_on,,0,0,12,,,,,,,,,,,,,,,15,,,74,72
2400,note_on,,1,0,7,,,,,,,,,,,,,,,2,,,50,72
2400,note_on,,1,0,12,,,,,,,,,,,,,,,15,,,50,72
2579,note_on,,179,0,9,,,,,,,,,,,,,,,11,,,57,0
2579,note_on,,179,0,8,,,,,,,,,,,,,,,10,,,66,0
2579,note_on,,179,0,5,,,,,,,,,,,,,,,0,,,66,0
2580,note_on,,1,0,9,,,,,,,,,,,,,,,11,,,66,72
2580,note_on,,1,0,8,,,,,,,,,,,,,,,10,,,69,72
2580,note_on,,1,0,5,,,,,,,,,,,,,,,0,,,69,72
2639,note_on,,0,0,12,,,,,,,,,,,,,,,15,,,54,0
2639,note_on,,0,0,12,,,,,,,,,,,,,,,15,,,69,0
2639,note_on,,59,0,8,,,,,,,,,,,,,,,10,,,69,0
2639,note_on,,239,0,10,,,,,,,,,,,,,,,12,,,62,0
2639,note_on,,239,0,12,,,,,,,,,,,,,,,15,,,50,0
2639,note_on,,239,0,7,,,,,,,,,,,,,,,2,,,50,0
2639,note_on,,239,0,11,,,,,,,,,,,,,,,13,,,50,0
2639,note_on,,59,0,9,,,,,,,,,,,,,,,11,,,66,0
2639,note_on,,59,0,5,,,,,,,,,,,,,,,0,,,69,0
2639,note_on,,0,0,12,,,,,,,,,,,,,,,15,,,62,0
2639,note_on,,0,0,12,,,,,,,,,,,,,,,15,,,74,0
2640,note_on,,1,0,8,,,,,,,,,,,,,,,10,,,74,72
2640,note_on,,1,0,5,,,,,,,,,,,,,,,0,,,74,72
2640,note_on,,1,0,11,,,,,,,,,,,,,,,13,,,47,72
2640,note_on,,1,0,12,,,,,,,,,,,,,,,15,,,66,72
2640,note_on,,0,0,12,,,,,,,,,,,,,,,15,,,47,72
2640,note_on,,0,0,12,,,,,,,,,,,,,,,15,,,59,72
2640,note_on,,0,0,12,,,,,,,,,,,,,,,15,,,71,72
2640,note_on,,0,0,12,,,,,,,,,,,,,,,15,,,74,72
2640,note_on,,1,0,10,,,,,,,,,,,,,,,12,,,62,72
2640,note_on,,1,0,7,,,,,,,,,,,,,,,2,,,47,72
2640,note_on,,1,0,9,,,,,,,,,,,,,,,11,,,66,72
2819,note_on,,179,0,5,,,,,,,,,,,,,,,0,,,74,0
2819,note_on,,179,0,9,,,,,,,,,,,,,,,11,,,66,0
2819,note_on,,179,0,8,,,,,,,,,,,,,,,10,,,74,0
2819,note_on,,179,0,7,,,,,,,,,,,,,,,2,,,47,0
2819,note_on,,179,0,11,,,,,,,,,,,,,,,13,,,47,0
2819,note_on,,179,0,12,,,,,,,,,,,,,,,15,,,47,0
2819,note_on,,179,0,10,,,,,,,,,,,,,,,12,,,62,0
2820,note_on,,1,0,9,,,,,,,,,,,,,,,11,,,66,72
2820,note_on,,1,0,10,,,,,,,,,,,,,,,12,,,62,72
2820,note_on,,1,0,11,,,,,,,,,,,,,,,13,,,59,72
2820,note_on,,1,0,8,,,,,,,,,,,,,,,10,,,74,72
2820,note_on,,1,0,7,,,,,,,,,,,,,,,2,,,59,72
2820,note_on,,1,0,5,,,,,,,,,,,,,,,0,,,74,72
2879,note_on,,0,0,12,,,,,,,,,,,,,,,15,,,71,0
2879,note_on,,60,0,12,,,,,,,,,,,,,,,15,,,66,0
2879,note_on,,0,0,12,,,,,,,,,,,,,,,15,,,74,0
2879,note_on,,59,0,7,,,,,,,,,,,,,,,2,,,59,0
2879,note_on,,0,0,12,,,,,,,,,,,,,,,15,,,59,0
2879,note_on,,59,0,11,,,,,,,,,,,,,,,13,,,59,0
2879,note_on,,59,0,10,,,,,,,,,,,,,,,12,,,62,0
2879,note_on,,59,0,9,,,,,,,,,,,,,,,11,,,66,0
2879,note_on,,59,0,5,,,,,,,,,,,,,,,0,,,74,0
2879,note_on,,59,0,8,,,,,,,,,,,,,,,10,,,74,0
2880,note_on,,0,0,12,,,,,,,,,,,,,,,15,,,62,72
2880,note_on,,0,0,12,,,,,,,,,,,,,,,15,,,59,72
2880,note_on,,0,0,12,,,,,,,,,,,,,,,15,,,64,72
2880,note_on,,1,0,9,,,,,,,,,,,,,,,11,,,71,72
2880,note_on,,1,0,7,,,,,,,,,,,,,,,2,,,56,72
2880,note_on,,1,0,10,,,,,,,,,,,,,,,12,,,64,72
2880,note_on,,0,0,12,,,,,,,,,,,,,,,15,,,56,72
2880,note_on,,1,0,12,,,,,,,,,,,,,,,15,,,71,72
2880,note_on,,1,0,5,,,,,,,,,,,,,,,0,,,74,72
2880,note_on,,1,0,11,,,,,,,,,,,,,,,13,,,56,72
2880,note_on,,1,0,8,,,,,,,,,,,,,,,10,,,74,72
3059,note_on,,179,0,5,,,,,,,,,,,,,,,0,,,74,0
3059,note_on,,179,0,9,,,,,,,,,,,,,,,11,,,71,0
3059,note_on,,179,0,8,,,,,,,,,,,,,,,10,,,74,0
3060,note_on,,1,0,9,,,,,,,,,,,,,,,11,,,71,72
3060,note_on,,1,0,5,,,,,,,,,,,,,,,0,,,76,72
3060,note_on,,1,0,8,,,,,,,,,,,,,,,10,,,76,72
3119,note_on,,59,0,9,,,,,,,,,,,,,,,11,,,71,0
3119,note_on,,59,0,5,,,,,,,,,,,,,,,0,,,76,0
3119,note_on,,59,0,8,,,,,,,,,,,,,,,10,,,76,0
3119,note_on,,239,0,11,,,,,,,,,,,,,,,13,,,56,0
3119,note_on,,0,0,12,,,,,,,,,,,,,,,15,,,56,0
3119,note_on,,239,0,7,,,,,,,,,,,,,,,2,,,56,0
3119,note_on,,239,0,10,,,,,,,,,,,,,,,12,,,64,0
3119,note_on,,0,0,12,,,,,,,,,,,,,,,15,,,62,0
3119,note_on,,0,0,12,,,,,,,,,,,,,,,15,,,59,0
3119,note_on,,0,0,12,,,,,,,,,,,,,,,15,,,64,0
3119,note_on,,239,0,12,,,,,,,,,,,,,,,15,,,71,0
3120,note_on,,1,0,7,,,,,,,,,,,,,,,2,,,57,72
3120,note_on,,1,0,9,,,,,,,,,,,,,,,11,,,69,72
3120,note_on,,1,0,10,,,,,,,,,,,,,,,12,,,64,72
3120,note_on,,0,0,12,,,,,,,,,,,,,,,15,,,60,72
3120,note_on,,0,0,12,,,,,,,,,,,,,,,15,,,57,72
3120,note_on,,1,0,5,,,,,,,,,,,,,,,0,,,72,72
3120,note_on,,1,0,8,,,,,,,,,,,,,,,10,,,72,72
3120,note_on,,1,0,12,,,,,,,,,,,,,,,15,,,64,72
3120,note_on,,1,0,11,,,,,,,,,,,,,,,13,,,57,72
3239,note_on,,119,0,7,,,,,,,,,,,,,,,2,,,57,0
3239,note_on,,119,0,10,,,,,,,,,,,,,,,12,,,64,0
3239,note_on,,119,0,9,,,,,,,,,,,,,,,11,,,69,0
3239,note_on,,119,0,11,,,,,,,,,,,,,,,13,,,57,0
3239,note_on,,119,0,12,,,,,,,,,,,,,,,15,,,64,0
3240,note_on,,1,0,9,,,,,,,,,,,,,,,11,,,69,72
3240,note_on,,1,0,7,,,,,,,,,,,,,,,2,,,54,72
3240,note_on,,1,0,10,,,,,,,,,,,,,,,12,,,66,72
3240,note_on,,1,0,12,,,,,,,,,,,,,,,15,,,69,72
3240,note_on,,0,0,12,,,,,,,,,,,,,,,15,,,54,72
3240,note_on,,1,0,11,,,,,,,,,,,,,,,13,,,54,72
3299,note_on,,179,0,5,,,,,,,,,,,,,,,0,,,72,0
3299,note_on,,179,0,8,,,,,,,,,,,,,,,10,,,72,0
3300,note_on,,1,0,5,,,,,,,,,,,,,,,0,,,71,72
3300,note_on,,1,0,8,,,,,,,,,,,,,,,10,,,71,72
3359,note_on,,0,0,12,,,,,,,,,,,,,,,15,,,57,0
3359,note_on,,119,0,11,,,,,,,,,,,,,,,13,,,54,0
3359,note_on,,119,0,9,,,,,,,,,,,,,,,11,,,69,0
3359,note_on,,59,0,5,,,,,,,,,,,,,,,0,,,71,0
3359,note_on,,0,0,12,,,,,,,,,,,,,,,15,,,69,0
3359,note_on,,119,0,7,,,,,,,,,,,,,,,2,,,54,0
3359,note_on,,0,0,12,,,,,,,,,,,,,,,15,,,54,0
3359,note_on,,119,0,10,,,,,,,,,,,,,,,12,,,66,0
3359,note_on,,119,0,12,,,,,,,,,,,,,,,15,,,60,0
3359,note_on,,59,0,8,,,,,,,,,,,,,,,10,,,71,0
3360,note_on,,0,0,12,,,,,,,,,,,,,,,15,,,59,72
3360,note_on,,0,0,12,,,,,,,,,,,,,,,15,,,69,72
3360,note_on,,1,0,7,,,,,,,,,,,,,,,2,,,51,72
3360,note_on,,1,0,12,,,,,,,,,,,,,,,15,,,51,72
3360,note_on,,1,0,11,,,,,,,,,,,,,,,13,,,51,72
3360,note_on,,1,0,9,,,,,,,,,,,,,,,11,,,69,72
3360,note_on,,0,0,12,,,,,,,,,,,,,,,15,,,66,72
3360,note_on,,1,0,8,,,,,,,,,,,,,,,10,,,71,72
3360,note_on,,1,0,10,,,,,,,,,,,,,,,12,,,66,72
3360,note_on,,1,0,5,,,,,,,,,,,,,,,0,,,71,72
3449,note_on,,89,0,10,,,,,,,,,,,,,,,12,,,66,0
3449,note_on,,89,0,9,,,,,,,,,,,,,,,11,,,69,0
3450,note_on,,1,0,10,,,,,,,,,,,,,,,12,,,66,72
3450,note_on,,1,0,9,,,,,,,,,,,,,,,11,,,69,72
3479,note_on,,29,0,9,,,,,,,,,,,,,,,11,,,69,0
3479,note_on,,29,0,10,,,,,,,,,,,,,,,12,,,66,0
3480,note_on,,1,0,9,,,,,,,,,,,,,,,11,,,67,72
3480,note_on,,1,0,10,,,,,,,,,,,,,,,12,,,64,72
3539,note_on,,179,0,11,,,,,,,,,,,,,,,13,,,51,0
3539,note_on,,179,0,7,,,,,,,,,,,,,,,2,,,51,0
3539,note_on,,179,0,12,,,,,,,,,,,,,,,15,,,51,0
3540,note_on,,1,0,7,,,,,,,,,,,,,,,2,,,47,72
3540,note_on,,1,0,11,,,,,,,,,,,,,,,13,,,47,72
3540,note_on,,1,0,12,,,,,,,,,,,,,,,15,,,47,72
3569,note_on,,89,0,9,,,,,,,,,,,,,,,11,,,67,0
3569,note_on,,89,0,10,,,,,,,,,,,,,,,12,,,64,0
3570,note_on,,1,0,9,,,,,,,,,,,,,,,11,,,66,72
3570,note_on,,1,0,10,,,,,,,,,,,,,,,12,,,63,72
3599,note_on,,59,0,12,,,,,,,,,,,,,,,15,,,66,0
3599,note_on,,0,0,12,,,,,,,,,,,,,,,15,,,69,0
3599,note_on,,0,0,12,,,,,,,,,,,,,,,15,,,59,0
3599,note_on,,0,0,12,,,,,,,,,,,,,,,15,,,47,0
3599,note_on,,29,0,9,,,,,,,,,,,,,,,11,,,66,0
3599,note_on,,29,0,10,,,,,,,,,,,,,,,12,,,63,0
3599,note_on,,59,0,7,,,,,,,,,,,,,,,2,,,47,0
3599,note_on,,59,0,11,,,,,,,,,,,,,,,13,,,47,0
3600,note_on,,1,0,7,,,,,,,,,,,,,,,2,,,52,72
3600,note_on,,0,0,12,,,,,,,,,,,,,,,15,,,67,72
3600,note_on,,1,0,9,,,,,,,,,,,,,,,11,,,67,72
3600,note_on,,1,0,10,,,,,,,,,,,,,,,12,,,64,72
3600,note_on,,1,0,11,,,,,,,,,,,,,,,13,,,52,72
3600,note_on,,1,0,12,,,,,,,,,,,,,,,15,,,64,72
3600,note_on,,0,0,12,,,,,,,,,,,,,,,15,,,59,72
3600,note_on,,0,0,12,,,,,,,,,,,,,,,15,,,52,72
3689,note_on,,329,0,8,,,,,,,,,,,,,,,10,,,71,0
3689,note_on,,329,0,5,,,,,,,,,,,,,,,0,,,71,0
3690,note_on,,1,0,8,,,,,,,,,,,,,,,10,,,71,72
3690,note_on,,1,0,5,,,,,,,,,,,,,,,0,,,71,72
3719,note_on,,0,0,12,,,,,,,,,,,,,,,15,,,67,0
3719,note_on,,0,0,12,,,,,,,,,,,,,,,15,,,52,0
3719,note_on,,119,0,11,,,,,,,,,,,,,,,13,,,52,0
3719,note_on,,29,0,8,,,,,,,,,,,,,,,10,,,71,0
3719,note_on,,119,0,12,,,,,,,,,,,,,,,15,,,64,0
3719,note_on,,119,0,7,,,,,,,,,,,,,,,2,,,52,0
3719,note_on,,119,0,9,,,,,,,,,,,,,,,11,,,67,0
3719,note_on,,119,0,10,,,,,,,,,,,,,,,12,,,64,0
3719,note_on,,0,0,12,,,,,,,,,,,,,,,15,,,59,0
3719,note_on,,29,0,5,,,,,,,,,,,,,,,0,,,71,0
3720,note_on,,1,0,11,,,,,,,,,,,,,,,13,,,50,72
3720,note_on,,1,0,8,,,,,,,,,,,,,,,10,,,71,72
3720,note_on,,1,0,9,,,,,,,,,,,,,,,11,,,66,72
3720,note_on,,1,0,7,,,,,,,,,,,,,,,2,,,50,72
3720,note_on,,1,0,5,,,,,,,,,,,,,,,0,,,71,72
3720,note_on,,1,0,10,,,,,,,,,,,,,,,12,,,59,72
3720,note_on,,0,0,12,,,,,,,,,,,,,,,15,,,66,72
3720,note_on,,0,0,12,,,,,,,,,,,,,,,15,,,54,72
3720,note_on,,0,0,12,,,,,,,,,,,,,,,15,,,50,72
3720,note_on,,1,0,12,,,,,,,,,,,,,,,15,,,59,72
3809,note_on,,89,0,5,,,,,,,,,,,,,,,0,,,71,0
3809,note_on,,89,0,8,,,,,,,,,,,,,,,10,,,71,0
3810,note_on,,1,0,5,,,,,,,,,,,,,,,0,,,71,72
3810,note_on,,1,0,8,,,,,,,,,,,,,,,10,,,71,72
3839,note_on,,0,0,12,,,,,,,,,,,,,,,15,,,66,0
3839,note_on,,0,0,12,,,,,,,,,,,,,,,15,,,54,0
3839,note_on,,0,0,12,,,,,,,,,,,,,,,15,,,50,0
3839,note_on,,119,0,12,,,,,,,,,,,,,,,15,,,59,0
3839,note_on,,29,0,5,,,,,,,,,,,,,,,0,,,71,0
3839,note_on,,29,0,8,,,,,,,,,,,,,,,10,,,71,0
3839,note_on,,119,0,7,,,,,,,,,,,,,,,2,,,50,0
3839,note_on,,119,0,10,,,,,,,,,,,,,,,12,,,59,0
3839,note_on,,119,0,9,,,,,,,,,,,,,,,11,,,66,0
3839,note_on,,119,0,11,,,,,,,,,,,,,,,13,,,50,0
3840,note_on,,0,0,12,,,,,,,,,,,,,,,15,,,64,72
3840,note_on,,1,0,12,,,,,,,,,,,,,,,15,,,48,72
3840,note_on,,1,0,10,,,,,,,,,,,,,,,12,,,67,72
3840,note_on,,1,0,7,,,,,,,,,,,,,,,2,,,48,72
3840,note_on,,1,0,9,,,,,,,,,,,,,,,11,,,64,72
3840,note_on,,1,0,11,,,,,,,,,,,,,,,13,,,48,72
3840,note_on,,0,0,12,,,,,,,,,,,,,,,15,,,60,72
3840,note_on,,1,0,8,,,,,,,,,,,,,,,10,,,76,72
3840,note_on,,0,0,12,,,,,,,,,,,,,,,15,,,55,72
3840,note_on,,1,0,5,,,,,,,,,,,,,,,0,,,76,72
3959,note_on,,0,0,12,,,,,,,,,,,,,,,15,,,55,0
3959,note_on,,119,0,12,,,,,,,,,,,,,,,15,,,48,0
3959,note_on,,119,0,10,,,,,,,,,,,,,,,12,,,67,0
3959,note_on,,119,0,7,,,,,,,,,,,,,,,2,,,48,0
3959,note_on,,119,0,9,,,,,,,,,,,,,,,11,,,64,0
3959,note_on,,119,0,11,,,,,,,,,,,,,,,13,,,48,0
3960,note_on,,1,0,7,,,,,,,,,,,,,,,2,,,45,72
3960,note_on,,1,0,10,,,,,,,,,,,,,,,12,,,69,72
3960,note_on,,0,0,12,,,,,,,,,,,,,,,15,,,57,72
3960,note_on,,1,0,9,,,,,,,,,,,,,,,11,,,72,72
3960,note_on,,1,0,11,,,,,,,,,,,,,,,13,,,45,72
3960,note_on,,1,0,12,,,,,,,,,,,,,,,15,,,45,72
4019,note_on,,179,0,5,,,,,,,,,,,,,,,0,,,76,0
4019,note_on,,179,0,8,,,,,,,,,,,,,,,10,,,76,0
4020,note_on,,1,0,5,,,,,,,,,,,,,,,0,,,78,72
4020,note_on,,1,0,8,,,,,,,,,,,,,,,10,,,78,72
4079,note_on,,119,0,9,,,,,,,,,,,,,,,11,,,72,0
4079,note_on,,0,0,12,,,,,,,,,,,,,,,15,,,57,0
4079,note_on,,59,0,5,,,,,,,,,,,,,,,0,,,78,0
4079,note_on,,119,0,7,,,,,,,,,,,,,,,2,,,45,0
4079,note_on,,119,0,11,,,,,,,,,,,,,,,13,,,45,0
4079,note_on,,0,0,12,,,,,,,,,,,,,,,15,,,45,0
4079,note_on,,0,0,12,,,,,,,,,,,,,,,15,,,60,0
4079,note_on,,119,0,12,,,,,,,,,,,,,,,15,,,64,0
4079,note_on,,119,0,10,,,,,,,,,,,,,,,12,,,69,0
4079,note_on,,59,0,8,,,,,,,,,,,,,,,10,,,78,0
4080,note_on,,1,0,9,,,,,,,,,,,,,,,11,,,72,72
4080,note_on,,1,0,7,,,,,,,,,,,,,,,2,,,57,72
4080,note_on,,1,0,12,,,,,,,,,,,,,,,15,,,66,72
4080,note_on,,1,0,5,,,,,,,,,,,,,,,0,,,78,72
4080,note_on,,0,0,12,,,,,,,,,,,,,,,15,,,57,72
4080,note_on,,1,0,10,,,,,,,,,,,,,,,12,,,57,72
4080,note_on,,0,0,12,,,,,,,,,,,,,,,15,,,60,72
4080,note_on,,1,0,11,,,,,,,,,,,,,,,13,,,57,72
4080,note_on,,1,0,8,,,,,,,,,,,,,,,10,,,78,72
4094,note_on,,14,0,8,,,,,,,,,,,,,,,10,,,78,0
4094,note_on,,14,0,5,,,,,,,,,,,,,,,0,,,78,0
4095,note_on,,1,0,8,,,,,,,,,,,,,,,10,,,79,72
4095,note_on,,1,0,5,,,,,,,,,,,,,,,0,,,79,72
4109,note_on,,14,0,8,,,,,,,,,,,,,,,10,,,79,0
4109,note_on,,14,0,5,,,,,,,,,,,,,,,0,,,79,0
4110,note_on,,1,0,8,,,,,,,,,,,,,,,10,,,78,72
4110,note_on,,1,0,5,,,,,,,,,,,,,,,0,,,78,72
4124,note_on,,14,0,8,,,,,,,,,,,,,,,10,,,78,0
4124,note_on,,14,0,5,,,,,,,,,,,,,,,0,,,78,0
4125,note_on,,1,0,8,,,,,,,,,,,,,,,10,,,79,72
4125,note_on,,1,0,5,,,,,,,,,,,,,,,0,,,79,72
4139,note_on,,14,0,5,,,,,,,,,,,,,,,0,,,79,0
4139,note_on,,14,0,8,,,,,,,,,,,,,,,10,,,79,0
4140,note_on,,1,0,8,,,,,,,,,,,,,,,10,,,78,72
4140,note_on,,1,0,5,,,,,,,,,,,,,,,0,,,78,72
4154,note_on,,14,0,5,,,,,,,,,,,,,,,0,,,78,0
4154,note_on,,14,0,8,,,,,,,,,,,,,,,10,,,78,0
4155,note_on,,1,0,5,,,,,,,,,,,,,,,0,,,79,72
4155,note_on,,1,0,8,,,,,,,,,,,,,,,10,,,79,72
4169,note_on,,14,0,5,,,,,,,,,,,,,,,0,,,79,0
4169,note_on,,14,0,8,,,,,,,,,,,,,,,10,,,79,0
4170,note_on,,1,0,8,,,,,,,,,,,,,,,10,,,78,72
4170,note_on,,1,0,5,,,,,,,,,,,,,,,0,,,78,72
4184,note_on,,14,0,5,,,,,,,,,,,,,,,0,,,78,0
4184,note_on,,14,0,8,,,,,,,,,,,,,,,10,,,78,0
4185,note_on,,1,0,8,,,,,,,,,,,,,,,10,,,79,72
4185,note_on,,1,0,5,,,,,,,,,,,,,,,0,,,79,72
4199,note_on,,119,0,10,,,,,,,,,,,,,,,12,,,57,0
4199,note_on,,14,0,8,,,,,,,,,,,,,,,10,,,79,0
4199,note_on,,14,0,5,,,,,,,,,,,,,,,0,,,79,0
4200,note_on,,1,0,8,,,,,,,,,,,,,,,10,,,78,72
4200,note_on,,1,0,10,,,,,,,,,,,,,,,12,,,60,72
4200,note_on,,1,0,5,,,,,,,,,,,,,,,0,,,78,72
4214,note_on,,14,0,8,,,,,,,,,,,,,,,10,,,78,0
4214,note_on,,14,0,5,,,,,,,,,,,,,,,0,,,78,0
4215,note_on,,1,0,8,,,,,,,,,,,,,,,10,,,79,72
4215,note_on,,1,0,5,,,,,,,,,,,,,,,0,,,79,72
4229,note_on,,14,0,8,,,,,,,,,,,,,,,10,,,79,0
4229,note_on,,14,0,5,,,,,,,,,,,,,,,0,,,79,0
4230,note_on,,1,0,8,,,,,,,,,,,,,,,10,,,76,72
4230,note_on,,1,0,5,,,,,,,,,,,,,,,0,,,76,72
4244,note_on,,14,0,8,,,,,,,,,,,,,,,10,,,76,0
4244,note_on,,14,0,5,,,,,,,,,,,,,,,0,,,76,0
4245,note_on,,1,0,5,,,,,,,,,,,,,,,0,,,78,72
4245,note_on,,1,0,8,,,,,,,,,,,,,,,10,,,78,72
4259,note_on,,14,0,8,,,,,,,,,,,,,,,10,,,78,0
4259,note_on,,179,0,11,,,,,,,,,,,,,,,13,,,57,0
4259,note_on,,14,0,5,,,,,,,,,,,,,,,0,,,78,0
4259,note_on,,179,0,12,,,,,,,,,,,,,,,15,,,57,0
4259,note_on,,179,0,9,,,,,,,,,,,,,,,11,,,72,0
4259,note_on,,179,0,7,,,,,,,,,,,,,,,2,,,57,0
4260,note_on,,1,0,11,,,,,,,,,,,,,,,13,,,55,72
4260,note_on,,1,0,8,,,,,,,,,,,,,,,10,,,76,72
4260,note_on,,1,0,9,,,,,,,,,,,,,,,11,,,71,72
4260,note_on,,1,0,7,,,,,,,,,,,,,,,2,,,55,72
4260,note_on,,1,0,5,,,,,,,,,,,,,,,0,,,76,72
4260,note_on,,1,0,12,,,,,,,,,,,,,,,15,,,55,72
4289,note_on,,29,0,8,,,,,,,,,,,,,,,10,,,76,0
4289,note_on,,29,0,9,,,,,,,,,,,,,,,11,,,71,0
4289,note_on,,29,0,7,,,,,,,,,,,,,,,2,,,55,0
4289,note_on,,29,0,11,,,,,,,,,,,,,,,13,,,55,0
4289,note_on,,29,0,12,,,,,,,,,,,,,,,15,,,55,0
4289,note_on,,29,0,5,,,,,,,,,,,,,,,0,,,76,0
4290,note_on,,1,0,12,,,,,,,,,,,,,,,15,,,54,72
4290,note_on,,1,0,9,,,,,,,,,,,,,,,11,,,69,72
4290,note_on,,1,0,8,,,,,,,,,,,,,,,10,,,78,72
4290,note_on,,1,0,5,,,,,,,,,,,,,,,0,,,78,72
4290,note_on,,1,0,7,,,,,,,,,,,,,,,2,,,54,72
4290,note_on,,1,0,11,,,,,,,,,,,,,,,13,,,54,72
4319,note_on,,29,0,5,,,,,,,,,,,,,,,0,,,78,0
4319,note_on,,29,0,12,,,,,,,,,,,,,,,15,,,66,0
4319,note_on,,29,0,9,,,,,,,,,,,,,,,11,,,69,0
4319,note_on,,29,0,8,,,,,,,,,,,,,,,10,,,78,0
4319,note_on,,0,0,12,,,,,,,,,,,,,,,15,,,60,0
4319,note_on,,0,0,12,,,,,,,,,,,,,,,15,,,54,0
4319,note_on,,29,0,11,,,,,,,,,,,,,,,13,,,54,0
4319,note_on,,119,0,10,,,,,,,,,,,,,,,12,,,60,0
4319,note_on,,29,0,7,,,,,,,,,,,,,,,2,,,54,0
4320,note_on,,1,0,5,,,,,,,,,,,,,,,0,,,79,72
4320,note_on,,0,0,12,,,,,,,,,,,,,,,15,,,64,72
4320,note_on,,0,0,12,,,,,,,,,,,,,,,15,,,52,72
4320,note_on,,1,0,9,,,,,,,,,,,,,,,11,,,71,72
4320,note_on,,1,0,12,,,,,,,,,,,,,,,15,,,67,72
4320,note_on,,1,0,8,,,,,,,,,,,,,,,10,,,79,72
4320,note_on,,0,0,12,,,,,,,,,,,,,,,15,,,59,72
4320,note_on,,1,0,10,,,,,,,,,,,,,,,12,,,64,72
4320,note_on,,1,0,7,,,,,,,,,,,,,,,2,,,52,72
4320,note_on,,1,0,11,,,,,,,,,,,,,,,13,,,52,72
4499,note_on,,179,0,7,,,,,,,,,,,,,,,2,,,52,0
4499,note_on,,179,0,5,,,,,,,,,,,,,,,0,,,79,0
4499,note_on,,179,0,8,,,,,,,,,,,,,,,10,,,79,0
4499,note_on,,179,0,11,,,,,,,,,,,,,,,13,,,52,0
4499,note_on,,179,0,9,,,,,,,,,,,,,,,11,,,71,0
4499,note_on,,179,0,10,,,,,,,,,,,,,,,12,,,64,0
4499,note_on,,179,0,12,,,,,,,,,,,,,,,15,,,52,0
4500,note_on,,1,0,11,,,,,,,,,,,,,,,13,,,52,72
4500,note_on,,1,0,12,,,,,,,,,,,,,,,15,,,52,72
4500,note_on,,1,0,10,,,,,,,,,,,,,,,12,,,64,72
4500,note_on,,1,0,9,,,,,,,,,,,,,,,11,,,59,72
4500,note_on,,1,0,7,,,,,,,,,,,,,,,2,,,52,72
4500,note_on,,1,0,5,,,,,,,,,,,,,,,0,,,67,72
4500,note_on,,1,0,8,,,,,,,,,,,,,,,10,,,67,72
4559,note_on,,59,0,10,,,,,,,,,,,,,,,12,,,64,0
4559,note_on,,59,0,9,,,,,,,,,,,,,,,11,,,59,0
4559,note_on,,59,0,5,,,,,,,,,,,,,,,0,,,67,0
4559,note_on,,59,0,8,,,,,,,,,,,,,,,10,,,67,0
4559,note_on,,59,0,7,,,,,,,,,,,,,,,2,,,52,0
4559,note_on,,0,0,12,,,,,,,,,,,,,,,15,,,52,0
4559,note_on,,0,0,12,,,,,,,,,,,,,,,15,,,59,0
4559,note_on,,0,0,12,,,,,,,,,,,,,,,15,,,64,0
4559,note_on,,59,0,12,,,,,,,,,,,,,,,15,,,67,0
4559,note_on,,59,0,11,,,,,,,,,,,,,,,13,,,52,0
4560,note_on,,1,0,7,,,,,,,,,,,,,,,2,,,50,72
4560,note_on,,1,0,5,,,,,,,,,,,,,,,0,,,66,72
4560,note_on,,0,0,12,,,,,,,,,,,,,,,15,,,50,72
4560,note_on,,1,0,10,,,,,,,,,,,,,,,12,,,66,72
4560,note_on,,1,0,12,,,,,,,,,,,,,,,15,,,59,72
4560,note_on,,0,0,12,,,,,,,,,,,,,,,15,,,66,72
4560,note_on,,1,0,8,,,,,,,,,,,,,,,10,,,66,72
4560,note_on,,1,0,11,,,,,,,,,,,,,,,13,,,50,72
4560,note_on,,1,0,9,,,,,,,,,,,,,,,11,,,59,72
4679,note_on,,119,0,5,,,,,,,,,,,,,,,0,,,66,0
4679,note_on,,119,0,8,,,,,,,,,,,,,,,10,,,66,0
4680,note_on,,1,0,8,,,,,,,,,,,,,,,10,,,71,72
4680,note_on,,1,0,5,,,,,,,,,,,,,,,0,,,71,72
4739,note_on,,179,0,10,,,,,,,,,,,,,,,12,,,66,0
4739,note_on,,179,0,12,,,,,,,,,,,,,,,15,,,50,0
4739,note_on,,179,0,9,,,,,,,,,,,,,,,11,,,59,0
4739,note_on,,179,0,7,,,,,,,,,,,,,,,2,,,50,0
4739,note_on,,179,0,11,,,,,,,,,,,,,,,13,,,50,0
4740,note_on,,1,0,10,,,,,,,,,,,,,,,12,,,59,72
4740,note_on,,1,0,11,,,,,,,,,,,,,,,13,,,50,72
4740,note_on,,1,0,12,,,,,,,,,,,,,,,15,,,50,72
4740,note_on,,1,0,9,,,,,,,,,,,,,,,11,,,66,72
4740,note_on,,1,0,7,,,,,,,,,,,,,,,2,,,50,72
4799,note_on,,59,0,7,,,,,,,,,,,,,,,2,,,50,0
4799,note_on,,119,0,5,,,,,,,,,,,,,,,0,,,71,0
4799,note_on,,59,0,11,,,,,,,,,,,,,,,13,,,50,0
4799,note_on,,59,0,9,,,,,,,,,,,,,,,11,,,66,0
4799,note_on,,59,0,10,,,,,,,,,,,,,,,12,,,59,0
4799,note_on,,59,0,12,,,,,,,,,,,,,,,15,,,59,0
4799,note_on,,0,0,12,,,,,,,,,,,,,,,15,,,66,0
4799,note_on,,0,0,12,,,,,,,,,,,,,,,15,,,50,0
4799,note_on,,119,0,8,,,,,,,,,,,,,,,10,,,71,0
4800,note_on,,1,0,10,,,,,,,,,,,,,,,12,,,59,72
4800,note_on,,1,0,7,,,,,,,,,,,,,,,2,,,48,72
4800,note_on,,1,0,8,,,,,,,,,,,,,,,10,,,76,72
4800,note_on,,0,0,12,,,,,,,,,,,,,,,15,,,48,72
4800,note_on,,1,0,11,,,,,,,,,,,,,,,13,,,48,72
4800,note_on,,0,0,12,,,,,,,,,,,,,,,15,,,64,72
4800,note_on,,0,0,12,,,,,,,,,,,,,,,15,,,59,72
4800,note_on,,1,0,12,,,,,,,,,,,,,,,15,,,55,72
4800,note_on,,1,0,9,,,,,,,,,,,,,,,11,,,67,72
4800,note_on,,1,0,5,,,,,,,,,,,,,,,0,,,76,72
4919,note_on,,119,0,10,,,,,,,,,,,,,,,12,,,59,0
4920,note_on,,1,0,10,,,,,,,,,,,,,,,12,,,57,72
4979,note_on,,59,0,10,,,,,,,,,,,,,,,12,,,57,0
4979,note_on,,179,0,11,,,,,,,,,,,,,,,13,,,48,0
4979,note_on,,179,0,9,,,,,,,,,,,,,,,11,,,67,0
4979,note_on,,179,0,7,,,,,,,,,,,,,,,2,,,48,0
4979,note_on,,179,0,12,,,,,,,,,,,,,,,15,,,48,0
4979,note_on,,179,0,8,,,,,,,,,,,,,,,10,,,76,0
4979,note_on,,179,0,5,,,,,,,,,,,,,,,0,,,76,0
4980,note_on,,1,0,11,,,,,,,,,,,,,,,13,,,48,72
4980,note_on,,1,0,7,,,,,,,,,,,,,,,2,,,48,72
4980,note_on,,1,0,12,,,,,,,,,,,,,,,15,,,48,72
4980,note_on,,1,0,8,,,,,,,,,,,,,,,10,,,71,72
4980,note_on,,1,0,10,,,,,,,,,,,,,,,12,,,55,72
4980,note_on,,1,0,5,,,,,,,,,,,,,,,0,,,71,72
4980,note_on,,1,0,9,,,,,,,,,,,,,,,11,,,67,72
5039,note_on,,59,0,10,,,,,,,,,,,,,,,12,,,55,0
5039,note_on,,0,0,12,,,,,,,,,,,,,,,15,,,48,0
5039,note_on,,59,0,8,,,,,,,,,,,,,,,10,,,71,0
5039,note_on,,59,0,9,,,,,,,,,,,,,,,11,,,67,0
5039,note_on,,59,0,7,,,,,,,,,,,,,,,2,,,48,0
5039,note_on,,59,0,11,,,,,,,,,,,,,,,13,,,48,0
5039,note_on,,59,0,12,,,,,,,,,,,,,,,15,,,55,0
5039,note_on,,0,0,12,,,,,,,,,,,,,,,15,,,59,0
5039,note_on,,0,0,12,,,,,,,,,,,,,,,15,,,64,0
5039,note_on,,59,0,5,,,,,,,,,,,,,,,0,,,71,0
5040,note_on,,1,0,8,,,,,,,,,,,,,,,10,,,69,72
5040,note_on,,1,0,9,,,,,,,,,,,,,,,11,,,64,72
5040,note_on,,1,0,11,,,,,,,,,,,,,,,13,,,48,72
5040,note_on,,1,0,5,,,,,,,,,,,,,,,0,,,69,72
5040,note_on,,1,0,7,,,,,,,,,,,,,,,2,,,48,72
5040,note_on,,1,0,12,,,,,,,,,,,,,,,15,,,48,72
5040,note_on,,0,0,12,,,,,,,,,,,,,,,15,,,57,72
5040,note_on,,0,0,12,,,,,,,,,,,,,,,15,,,64,72
5040,note_on,,0,0,12,,,,,,,,,,,,,,,15,,,52,72
5040,note_on,,1,0,10,,,,,,,,,,,,,,,12,,,57,72
5054,note_on,,14,0,8,,,,,,,,,,,,,,,10,,,69,0
5054,note_on,,14,0,5,,,,,,,,,,,,,,,0,,,69,0
5055,note_on,,1,0,8,,,,,,,,,,,,,,,10,,,71,72
5055,note_on,,1,0,5,,,,,,,,,,,,,,,0,,,71,72
5069,note_on,,14,0,8,,,,,,,,,,,,,,,10,,,71,0
5069,note_on,,14,0,5,,,,,,,,,,,,,,,0,,,71,0
5070,note_on,,1,0,8,,,,,,,,,,,,,,,10,,,69,72
5070,note_on,,1,0,5,,,,,,,,,,,,,,,0,,,69,72
5084,note_on,,14,0,8,,,,,,,,,,,,,,,10,,,69,0
5084,note_on,,14,0,5,,,,,,,,,,,,,,,0,,,69,0
5085,note_on,,1,0,5,,,,,,,,,,,,,,,0,,,71,72
5085,note_on,,1,0,8,,,,,,,,,,,,,,,10,,,71,72
5099,note_on,,14,0,8,,,,,,,,,,,,,,,10,,,71,0
5099,note_on,,14,0,5,,,,,,,,,,,,,,,0,,,71,0
5100,note_on,,1,0,5,,,,,,,,,,,,,,,0,,,69,72
5100,note_on,,1,0,8,,,,,,,,,,,,,,,10,,,69,72
5114,note_on,,14,0,5,,,,,,,,,,,,,,,0,,,69,0
5114,note_on,,14,0,8,,,,,,,,,,,,,,,10,,,69,0
5115,note_on,,1,0,8,,,,,,,,,,,,,,,10,,,71,72
5115,note_on,,1,0,5,,,,,,,,,,,,,,,0,,,71,72
5129,note_on,,14,0,8,,,,,,,,,,,,,,,10,,,71,0
5129,note_on,,14,0,5,,,,,,,,,,,,,,,0,,,71,0
5130,note_on,,1,0,5,,,,,,,,,,,,,,,0,,,69,72
5130,note_on,,1,0,8,,,,,,,,,,,,,,,10,,,69,72
5144,note_on,,14,0,8,,,,,,,,,,,,,,,10,,,69,0
5144,note_on,,14,0,5,,,,,,,,,,,,,,,0,,,69,0
5145,note_on,,1,0,5,,,,,,,,,,,,,,,0,,,71,72
5145,note_on,,1,0,8,,,,,,,,,,,,,,,10,,,71,72
5159,note_on,,14,0,5,,,,,,,,,,,,,,,0,,,71,0
5159,note_on,,14,0,8,,,,,,,,,,,,,,,10,,,71,0
5160,note_on,,1,0,8,,,,,,,,,,,,,,,10,,,69,72
5160,note_on,,1,0,5,,,,,,,,,,,,,,,0,,,69,72
5174,note_on,,14,0,8,,,,,,,,,,,,,,,10,,,69,0
5174,note_on,,14,0,5,,,,,,,,,,,,,,,0,,,69,0
5175,note_on,,1,0,8,,,,,,,,,,,,,,,10,,,71,72
5175,note_on,,1,0,5,,,,,,,,,,,,,,,0,,,71,72
5189,note_on,,14,0,8,,,,,,,,,,,,,,,10,,,71,0
5189,note_on,,14,0,5,,,,,,,,,,,,,,,0,,,71,0
5190,note_on,,1,0,8,,,,,,,,,,,,,,,10,,,67,72
5190,note_on,,1,0,5,,,,,,,,,,,,,,,0,,,67,72
5204,note_on,,14,0,8,,,,,,,,,,,,,,,10,,,67,0
5204,note_on,,14,0,5,,,,,,,,,,,,,,,0,,,67,0
5205,note_on,,1,0,5,,,,,,,,,,,,,,,0,,,69,72
5205,note_on,,1,0,8,,,,,,,,,,,,,,,10,,,69,72
5219,note_on,,0,0,12,,,,,,,,,,,,,,,15,,,52,0
5219,note_on,,179,0,11,,,,,,,,,,,,,,,13,,,48,0
5219,note_on,,0,0,12,,,,,,,,,,,,,,,15,,,64,0
5219,note_on,,0,0,12,,,,,,,,,,,,,,,15,,,57,0
5219,note_on,,179,0,12,,,,,,,,,,,,,,,15,,,48,0
5219,note_on,,14,0,8,,,,,,,,,,,,,,,10,,,69,0
5219,note_on,,179,0,7,,,,,,,,,,,,,,,2,,,48,0
5219,note_on,,179,0,10,,,,,,,,,,,,,,,12,,,57,0
5219,note_on,,14,0,5,,,,,,,,,,,,,,,0,,,69,0
5219,note_on,,179,0,9,,,,,,,,,,,,,,,11,,,64,0
5220,note_on,,1,0,7,,,,,,,,,,,,,,,2,,,47,72
5220,note_on,,1,0,5,,,,,,,,,,,,,,,0,,,71,72
5220,note_on,,1,0,8,,,,,,,,,,,,,,,10,,,71,72
5220,note_on,,1,0,9,,,,,,,,,,,,,,,11,,,63,72
5220,note_on,,0,0,12,,,,,,,,,,,,,,,15,,,59,72
5220,note_on,,0,0,12,,,,,,,,,,,,,,,15,,,63,72
5220,note_on,,0,0,12,,,,,,,,,,,,,,,15,,,47,72
5220,note_on,,1,0,10,,,,,,,,,,,,,,,12,,,66,72
5220,note_on,,1,0,11,,,,,,,,,,,,,,,13,,,47,72
5220,note_on,,1,0,12,,,,,,,,,,,,,,,15,,,54,72
5279,note_on,,0,0,12,,,,,,,,,,,,,,,15,,,59,0
5279,note_on,,0,0,12,,,,,,,,,,,,,,,15,,,63,0
5279,note_on,,0,0,12,,,,,,,,,,,,,,,15,,,47,0
5279,note_on,,59,0,8,,,,,,,,,,,,,,,10,,,71,0
5279,note_on,,59,0,9,,,,,,,,,,,,,,,11,,,63,0
5279,note_on,,59,0,10,,,,,,,,,,,,,,,12,,,66,0
5279,note_on,,59,0,11,,,,,,,,,,,,,,,13,,,47,0
5279,note_on,,59,0,5,,,,,,,,,,,,,,,0,,,71,0
5279,note_on,,59,0,7,,,,,,,,,,,,,,,2,,,47,0
5279,note_on,,59,0,12,,,,,,,,,,,,,,,15,,,54,0
5280,note_on,,0,0,12,,,,,,,,,,,,,,,15,,,63,72
5280,note_on,,1,0,5,,,,,,,,,,,,,,,0,,,71,72
5280,note_on,,1,0,12,,,,,,,,,,,,,,,15,,,59,72
5280,note_on,,0,0,12,,,,,,,,,,,,,,,15,,,47,72
5280,note_on,,1,0,11,,,,,,,,,,,,,,,13,,,47,72
5280,note_on,,1,0,8,,,,,,,,,,,,,,,10,,,71,72
5280,note_on,,1,0,9,,,,,,,,,,,,,,,11,,,63,72
5280,note_on,,0,0,12,,,,,,,,,,,,,,,15,,,54,72
5280,note_on,,1,0,10,,,,,,,,,,,,,,,12,,,66,72
5280,note_on,,1,0,7,,,,,,,,,,,,,,,2,,,47,72
5459,note_on,,179,0,12,,,,,,,,,,,,,,,15,,,54,0
5459,note_on,,0,0,12,,,,,,,,,,,,,,,15,,,47,0
5459,note_on,,179,0,7,,,,,,,,,,,,,,,2,,,47,0
5459,note_on,,179,0,11,,,,,,,,,,,,,,,13,,,47,0
5460,note_on,,1,0,12,,,,,,,,,,,,,,,15,,,57,72
5460,note_on,,1,0,7,,,,,,,,,,,,,,,2,,,57,72
5460,note_on,,1,0,11,,,,,,,,,,,,,,,13,,,57,72
5519,note_on,,239,0,10,,,,,,,,,,,,,,,12,,,66,0
5519,note_on,,59,0,11,,,,,,,,,,,,,,,13,,,57,0
5519,note_on,,239,0,9,,,,,,,,,,,,,,,11,,,63,0
5519,note_on,,0,0,12,,,,,,,,,,,,,,,15,,,57,0
5519,note_on,,59,0,7,,,,,,,,,,,,,,,2,,,57,0
5519,note_on,,59,0,12,,,,,,,,,,,,,,,15,,,59,0
5520,note_on,,1,0,7,,,,,,,,,,,,,,,2,,,55,72
5520,note_on,,1,0,11,,,,,,,,,,,,,,,13,,,55,72
5520,note_on,,1,0,12,,,,,,,,,,,,,,,15,,,59,72
5520,note_on,,0,0,12,,,,,,,,,,,,,,,15,,,55,72
5609,note_on,,329,0,8,,,,,,,,,,,,,,,10,,,71,0
5609,note_on,,329,0,5,,,,,,,,,,,,,,,0,,,71,0
5610,note_on,,1,0,8,,,,,,,,,,,,,,,10,,,59,72
5610,note_on,,1,0,5,,,,,,,,,,,,,,,0,,,59,72
5639,note_on,,0,0,12,,,,,,,,,,,,,,,15,,,55,0
5639,note_on,,119,0,11,,,,,,,,,,,,,,,13,,,55,0
5639,note_on,,29,0,5,,,,,,,,,,,,,,,0,,,59,0
5639,note_on,,119,0,12,,,,,,,,,,,,,,,15,,,59,0
5639,note_on,,119,0,7,,,,,,,,,,,,,,,2,,,55,0
5639,note_on,,29,0,8,,,,,,,,,,,,,,,10,,,59,0
5640,note_on,,1,0,8,,,,,,,,,,,,,,,10,,,61,72
5640,note_on,,0,0,12,,,,,,,,,,,,,,,15,,,54,72
5640,note_on,,1,0,11,,,,,,,,,,,,,,,13,,,54,72
5640,note_on,,1,0,12,,,,,,,,,,,,,,,15,,,57,72
5640,note_on,,1,0,7,,,,,,,,,,,,,,,2,,,54,72
5640,note_on,,1,0,5,,,,,,,,,,,,,,,0,,,61,72
5729,note_on,,89,0,5,,,,,,,,,,,,,,,0,,,61,0
5729,note_on,,89,0,8,,,,,,,,,,,,,,,10,,,61,0
5730,note_on,,1,0,5,,,,,,,,,,,,,,,0,,,63,72
5730,note_on,,1,0,8,,,,,,,,,,,,,,,10,,,63,72
5759,note_on,,119,0,12,,,,,,,,,,,,,,,15,,,63,0
5759,note_on,,0,0,12,,,,,,,,,,,,,,,15,,,54,0
5759,note_on,,0,0,12,,,,,,,,,,,,,,,15,,,57,0
5759,note_on,,29,0,8,,,,,,,,,,,,,,,10,,,63,0
5759,note_on,,29,0,5,,,,,,,,,,,,,,,0,,,63,0
5759,note_on,,119,0,11,,,,,,,,,,,,,,,13,,,54,0
5759,note_on,,119,0,7,,,,,,,,,,,,,,,2,,,54,0
5760,note_on,,1,0,11,,,,,,,,,,,,,,,13,,,52,72
5760,note_on,,1,0,7,,,,,,,,,,,,,,,2,,,52,72
5760,note_on,,1,0,8,,,,,,,,,,,,,,,10,,,64,72
5760,note_on,,1,0,12,,,,,,,,,,,,,,,15,,,59,72
5760,note_on,,0,0,12,,,,,,,,,,,,,,,15,,,55,72
5760,note_on,,0,0,12,,,,,,,,,,,,,,,15,,,64,72
5760,note_on,,0,0,12,,,,,,,,,,,,,,,15,,,52,72
5760,note_on,,241,0,10,,,,,,,,,,,,,,,12,,,55,72
5760,note_on,,241,0,9,,,,,,,,,,,,,,,11,,,59,72
5760,note_on,,1,0,5,,,,,,,,,,,,,,,0,,,64,72
5939,note_on,,179,0,9,,,,,,,,,,,,,,,11,,,59,0
5939,note_on,,179,0,10,,,,,,,,,,,,,,,12,,,55,0
5939,note_on,,179,0,5,,,,,,,,,,,,,,,0,,,64,0
5939,note_on,,179,0,8,,,,,,,,,,,,,,,10,,,64,0
5940,note_on,,1,0,9,,,,,,,,,,,,,,,11,,,69,72
5940,note_on,,1,0,5,,,,,,,,,,,,,,,0,,,72,72
5940,note_on,,1,0,10,,,,,,,,,,,,,,,12,,,57,72
5940,note_on,,1,0,8,,,,,,,,,,,,,,,10,,,72,72
5999,note_on,,59,0,10,,,,,,,,,,,,,,,12,,,57,0
5999,note_on,,59,0,9,,,,,,,,,,,,,,,11,,,69,0
5999,note_on,,59,0,5,,,,,,,,,,,,,,,0,,,72,0
5999,note_on,,0,0,12,,,,,,,,,,,,,,,15,,,64,0
5999,note_on,,0,0,12,,,,,,,,,,,,,,,15,,,55,0
5999,note_on,,239,0,12,,,,,,,,,,,,,,,15,,,59,0
5999,note_on,,59,0,8,,,,,,,,,,,,,,,10,,,72,0
5999,note_on,,0,0,12,,,,,,,,,,,,,,,15,,,52,0
5999,note_on,,239,0,7,,,,,,,,,,,,,,,2,,,52,0
5999,note_on,,239,0,11,,,,,,,,,,,,,,,13,,,52,0
6000,note_on,,1,0,9,,,,,,,,,,,,,,,11,,,67,72
6000,note_on,,1,0,10,,,,,,,,,,,,,,,12,,,59,72
6000,note_on,,1,0,5,,,,,,,,,,,,,,,0,,,71,72
6000,note_on,,1,0,8,,,,,,,,,,,,,,,10,,,71,72
6179,note_on,,179,0,8,,,,,,,,,,,,,,,10,,,71,0
6179,note_on,,179,0,9,,,,,,,,,,,,,,,11,,,67,0
6179,note_on,,179,0,10,,,,,,,,,,,,,,,12,,,59,0
6179,note_on,,179,0,5,,,,,,,,,,,,,,,0,,,71,0
6180,note_on,,1,0,9,,,,,,,,,,,,,,,11,,,66,72
6180,note_on,,1,0,10,,,,,,,,,,,,,,,12,,,59,72
6180,note_on,,1,0,8,,,,,,,,,,,,,,,10,,,69,72
6180,note_on,,1,0,5,,,,,,,,,,,,,,,0,,,69,72
6239,note_on,,59,0,10,,,,,,,,,,,,,,,12,,,59,0
6239,note_on,,59,0,9,,,,,,,,,,,,,,,11,,,66,0
6239,note_on,,59,0,8,,,,,,,,,,,,,,,10,,,69,0
6239,note_on,,59,0,5,,,,,,,,,,,,,,,0,,,69,0
6240,note_on,,241,0,12,,,,,,,,,,,,,,,15,,,66,72
6240,note_on,,241,0,7,,,,,,,,,,,,,,,2,,,47,72
6240,note_on,,0,0,12,,,,,,,,,,,,,,,15,,,63,72
6240,note_on,,1,0,5,,,,,,,,,,,,,,,0,,,75,72
6240,note_on,,1,0,9,,,,,,,,,,,,,,,11,,,66,72
6240,note_on,,0,0,12,,,,,,,,,,,,,,,15,,,47,72
6240,note_on,,0,0,12,,,,,,,,,,,,,,,15,,,54,72
6240,note_on,,241,0,11,,,,,,,,,,,,,,,13,,,47,72
6240,note_on,,1,0,10,,,,,,,,,,,,,,,12,,,59,72
6240,note_on,,1,0,8,,,,,,,,,,,,,,,10,,,75,72
6240,note_on,,0,0,12,,,,,,,,,,,,,,,15,,,59,72
6419,note_on,,179,0,12,,,,,,,,,,,,,,,15,,,66,0
6419,note_on,,179,0,8,,,,,,,,,,,,,,,10,,,75,0
6419,note_on,,179,0,10,,,,,,,,,,,,,,,12,,,59,0
6419,note_on,,0,0,12,,,,,,,,,,,,,,,15,,,63,0
6419,note_on,,0,0,12,,,,,,,,,,,,,,,15,,,54,0
6419,note_on,,179,0,9,,,,,,,,,,,,,,,11,,,66,0
6419,note_on,,0,0,12,,,,,,,,,,,,,,,15,,,47,0
6419,note_on,,179,0,11,,,,,,,,,,,,,,,13,,,47,0
6419,note_on,,0,0,12,,,,,,,,,,,,,,,15,,,59,0
6419,note_on,,179,0,5,,,,,,,,,,,,,,,0,,,75,0
6419,note_on,,179,0,7,,,,,,,,,,,,,,,2,,,47,0
6420,note_on,,1,0,8,,,,,,,,,,,,,,,10,,,73,72
6420,note_on,,1,0,11,,,,,,,,,,,,,,,13,,,55,72
6420,note_on,,1,0,9,,,,,,,,,,,,,,,11,,,64,72
6420,note_on,,1,0,5,,,,,,,,,,,,,,,0,,,73,72
6420,note_on,,1,0,7,,,,,,,,,,,,,,,2,,,55,72
6420,note_on,,0,0,12,,,,,,,,,,,,,,,15,,,59,72
6420,note_on,,0,0,12,,,,,,,,,,,,,,,15,,,64,72
6420,note_on,,1,0,12,,,,,,,,,,,,,,,15,,,55,72
6420,note_on,,1,0,10,,,,,,,,,,,,,,,12,,,71,72
6449,note_on,,29,0,5,,,,,,,,,,,,,,,0,,,73,0
6449,note_on,,29,0,8,,,,,,,,,,,,,,,10,,,73,0
6450,note_on,,1,0,5,,,,,,,,,,,,,,,0,,,71,72
6450,note_on,,1,0,8,,,,,,,,,,,,,,,10,,,71,72
6479,note_on,,59,0,7,,,,,,,,,,,,,,,2,,,55,0
6479,note_on,,29,0,5,,,,,,,,,,,,,,,0,,,71,0
6479,note_on,,29,0,8,,,,,,,,,,,,,,,10,,,71,0
6479,note_on,,59,0,10,,,,,,,,,,,,,,,12,,,71,0
6479,note_on,,59,0,9,,,,,,,,,,,,,,,11,,,64,0
6479,note_on,,59,0,12,,,,,,,,,,,,,,,15,,,55,0
6479,note_on,,0,0,12,,,,,,,,,,,,,,,15,,,64,0
6479,note_on,,0,0,12,,,,,,,,,,,,,,,15,,,59,0
6479,note_on,,59,0,11,,,,,,,,,,,,,,,13,,,55,0
6480,note_on,,1,0,11,,,,,,,,,,,,,,,13,,,54,72
6480,note_on,,1,0,7,,,,,,,,,,,,,,,2,,,54,72
6480,note_on,,1,0,5,,,,,,,,,,,,,,,0,,,79,72
6480,note_on,,1,0,12,,,,,,,,,,,,,,,15,,,71,72
6480,note_on,,1,0,9,,,,,,,,,,,,,,,11,,,71,72
6480,note_on,,0,0,12,,,,,,,,,,,,,,,15,,,64,72
6480,note_on,,0,0,12,,,,,,,,,,,,,,,15,,,55,72
6480,note_on,,1,0,8,,,,,,,,,,,,,,,10,,,79,72
6480,note_on,,0,0,12,,,,,,,,,,,,,,,15,,,54,72
6480,note_on,,1,0,10,,,,,,,,,,,,,,,12,,,71,72
6659,note_on,,179,0,12,,,,,,,,,,,,,,,15,,,54,0
6659,note_on,,179,0,7,,,,,,,,,,,,,,,2,,,54,0
6659,note_on,,179,0,10,,,,,,,,,,,,,,,12,,,71,0
6659,note_on,,179,0,9,,,,,,,,,,,,,,,11,,,71,0
6659,note_on,,179,0,5,,,,,,,,,,,,,,,0,,,79,0
6659,note_on,,179,0,8,,,,,,,,,,,,,,,10,,,79,0
6659,note_on,,179,0,11,,,,,,,,,,,,,,,13,,,54,0
6660,note_on,,1,0,8,,,,,,,,,,,,,,,10,,,79,72
6660,note_on,,1,0,10,,,,,,,,,,,,,,,12,,,67,72
6660,note_on,,1,0,5,,,,,,,,,,,,,,,0,,,79,72
6660,note_on,,1,0,7,,,,,,,,,,,,,,,2,,,52,72
6660,note_on,,1,0,9,,,,,,,,,,,,,,,11,,,71,72
6660,note_on,,1,0,12,,,,,,,,,,,,,,,15,,,52,72
6660,note_on,,1,0,11,,,,,,,,,,,,,,,13,,,52,72
6719,note_on,,59,0,11,,,,,,,,,,,,,,,13,,,52,0
6719,note_on,,0,0,12,,,,,,,,,,,,,,,15,,,52,0
6719,note_on,,0,0,12,,,,,,,,,,,,,,,15,,,55,0
6719,note_on,,0,0,12,,,,,,,,,,,,,,,15,,,64,0
6719,note_on,,59,0,10,,,,,,,,,,,,,,,12,,,67,0
6719,note_on,,59,0,12,,,,,,,,,,,,,,,15,,,71,0
6719,note_on,,59,0,9,,,,,,,,,,,,,,,11,,,71,0
6719,note_on,,59,0,8,,,,,,,,,,,,,,,10,,,79,0
6719,note_on,,59,0,7,,,,,,,,,,,,,,,2,,,52,0
6719,note_on,,59,0,5,,,,,,,,,,,,,,,0,,,79,0
6720,note_on,,1,0,8,,,,,,,,,,,,,,,10,,,79,72
6720,note_on,,1,0,12,,,,,,,,,,,,,,,15,,,64,72
6720,note_on,,0,0,12,,,,,,,,,,,,,,,15,,,73,72
6720,note_on,,1,0,9,,,,,,,,,,,,,,,11,,,73,72
6720,note_on,,1,0,7,,,,,,,,,,,,,,,2,,,58,72
6720,note_on,,1,0,5,,,,,,,,,,,,,,,0,,,79,72
6720,note_on,,0,0,12,,,,,,,,,,,,,,,15,,,61,72
6720,note_on,,1,0,10,,,,,,,,,,,,,,,12,,,64,72
6720,note_on,,0,0,12,,,,,,,,,,,,,,,15,,,58,72
6720,note_on,,1,0,11,,,,,,,,,,,,,,,13,,,58,72
6899,note_on,,179,0,12,,,,,,,,,,,,,,,15,,,58,0
6899,note_on,,179,0,10,,,,,,,,,,,,,,,12,,,64,0
6899,note_on,,179,0,9,,,,,,,,,,,,,,,11,,,73,0
6899,note_on,,179,0,8,,,,,,,,,,,,,,,10,,,79,0
6899,note_on,,179,0,11,,,,,,,,,,,,,,,13,,,58,0
6899,note_on,,179,0,5,,,,,,,,,,,,,,,0,,,79,0
6899,note_on,,179,0,7,,,,,,,,,,,,,,,2,,,58,0
6900,note_on,,1,0,5,,,,,,,,,,,,,,,0,,,78,72
6900,note_on,,1,0,8,,,,,,,,,,,,,,,10,,,78,72
6900,note_on,,1,0,11,,,,,,,,,,,,,,,13,,,58,72
6900,note_on,,1,0,9,,,,,,,,,,,,,,,11,,,73,72
6900,note_on,,1,0,12,,,,,,,,,,,,,,,15,,,58,72
6900,note_on,,1,0,10,,,,,,,,,,,,,,,12,,,66,72
6900,note_on,,1,0,7,,,,,,,,,,,,,,,2,,,58,72
6959,note_on,,59,0,5,,,,,,,,,,,,,,,0,,,78,0
6959,note_on,,0,0,12,,,,,,,,,,,,,,,15,,,58,0
6959,note_on,,0,0,12,,,,,,,,,,,,,,,15,,,73,0
6959,note_on,,59,0,12,,,,,,,,,,,,,,,15,,,64,0
6959,note_on,,59,0,9,,,,,,,,,,,,,,,11,,,73,0
6959,note_on,,59,0,10,,,,,,,,,,,,,,,12,,,66,0
6959,note_on,,59,0,7,,,,,,,,,,,,,,,2,,,58,0
6959,note_on,,59,0,8,,,,,,,,,,,,,,,10,,,78,0
6959,note_on,,59,0,11,,,,,,,,,,,,,,,13,,,58,0
6960,note_on,,1,0,8,,,,,,,,,,,,,,,10,,,78,72
6960,note_on,,0,0,12,,,,,,,,,,,,,,,15,,,58,72
6960,note_on,,1,0,9,,,,,,,,,,,,,,,11,,,73,72
6960,note_on,,1,0,11,,,,,,,,,,,,,,,13,,,58,72
6960,note_on,,1,0,12,,,,,,,,,,,,,,,15,,,66,72
6960,note_on,,1,0,7,,,,,,,,,,,,,,,2,,,58,72
6960,note_on,,0,0,12,,,,,,,,,,,,,,,15,,,73,72
6960,note_on,,0,0,12,,,,,,,,,,,,,,,15,,,78,72
6960,note_on,,1,0,10,,,,,,,,,,,,,,,12,,,66,72
6960,note_on,,1,0,5,,,,,,,,,,,,,,,0,,,78,72
7139,note_on,,179,0,11,,,,,,,,,,,,,,,13,,,58,0
7139,note_on,,179,0,10,,,,,,,,,,,,,,,12,,,66,0
7139,note_on,,179,0,9,,,,,,,,,,,,,,,11,,,73,0
7139,note_on,,179,0,8,,,,,,,,,,,,,,,10,,,78,0
7139,note_on,,179,0,7,,,,,,,,,,,,,,,2,,,58,0
7139,note_on,,179,0,5,,,,,,,,,,,,,,,0,,,78,0
7139,note_on,,179,0,12,,,,,,,,,,,,,,,15,,,58,0
7140,note_on,,1,0,9,,,,,,,,,,,,,,,11,,,70,72
7140,note_on,,1,0,7,,,,,,,,,,,,,,,2,,,54,72
7140,note_on,,1,0,11,,,,,,,,,,,,,,,13,,,54,72
7140,note_on,,1,0,10,,,,,,,,,,,,,,,12,,,73,72
7140,note_on,,1,0,12,,,,,,,,,,,,,,,15,,,54,72
7140,note_on,,1,0,5,,,,,,,,,,,,,,,0,,,76,72
7140,note_on,,1,0,8,,,,,,,,,,,,,,,10,,,76,72
7199,note_on,,59,0,12,,,,,,,,,,,,,,,15,,,61,0
7199,note_on,,0,0,12,,,,,,,,,,,,,,,15,,,66,0
7199,note_on,,0,0,12,,,,,,,,,,,,,,,15,,,73,0
7199,note_on,,0,0,12,,,,,,,,,,,,,,,15,,,78,0
7199,note_on,,0,0,12,,,,,,,,,,,,,,,15,,,54,0
7199,note_on,,59,0,7,,,,,,,,,,,,,,,2,,,54,0
7199,note_on,,59,0,10,,,,,,,,,,,,,,,12,,,73,0
7199,note_on,,59,0,5,,,,,,,,,,,,,,,0,,,76,0
7199,note_on,,59,0,9,,,,,,,,,,,,,,,11,,,70,0
7199,note_on,,59,0,8,,,,,,,,,,,,,,,10,,,76,0
7199,note_on,,59,0,11,,,,,,,,,,,,,,,13,,,54,0
7200,note_on,,1,0,9,,,,,,,,,,,,,,,11,,,66,72
7200,note_on,,1,0,5,,,,,,,,,,,,,,,0,,,75,72
7200,note_on,,1,0,8,,,,,,,,,,,,,,,10,,,75,72
7200,note_on,,1,0,12,,,,,,,,,,,,,,,15,,,78,72
7200,note_on,,0,0,12,,,,,,,,,,,,,,,15,,,75,72
7200,note_on,,0,0,12,,,,,,,,,,,,,,,15,,,66,72
7200,note_on,,0,0,12,,,,,,,,,,,,,,,15,,,59,72
7200,note_on,,1,0,7,,,,,,,,,,,,,,,2,,,59,72
7200,note_on,,1,0,11,,,,,,,,,,,,,,,13,,,59,72
7200,note_on,,1,0,10,,,,,,,,,,,,,,,12,,,71,72
7379,note_on,,179,0,5,,,,,,,,,,,,,,,0,,,75,0
7379,note_on,,179,0,11,,,,,,,,,,,,,,,13,,,59,0
7379,note_on,,179,0,8,,,,,,,,,,,,,,,10,,,75,0
7379,note_on,,179,0,9,,,,,,,,,,,,,,,11,,,66,0
7379,note_on,,179,0,10,,,,,,,,,,,,,,,12,,,71,0
7379,note_on,,179,0,7,,,,,,,,,,,,,,,2,,,59,0
7380,note_on,,1,0,9,,,,,,,,,,,,,,,11,,,63,72
7380,note_on,,1,0,5,,,,,,,,,,,,,,,0,,,78,72
7380,note_on,,1,0,11,,,,,,,,,,,,,,,13,,,47,72
7380,note_on,,1,0,8,,,,,,,,,,,,,,,10,,,78,72
7380,note_on,,180,0,12,,,,,,,,,,,,,,,15,,,47,72
7380,note_on,,1,0,10,,,,,,,,,,,,,,,12,,,71,72
7380,note_on,,1,0,7,,,,,,,,,,,,,,,2,,,47,72
7439,note_on,,0,0,12,,,,,,,,,,,,,,,15,,,59,0
7439,note_on,,59,0,10,,,,,,,,,,,,,,,12,,,71,0
7439,note_on,,0,0,12,,,,,,,,,,,,,,,15,,,47,0
7439,note_on,,59,0,9,,,,,,,,,,,,,,,11,,,63,0
7439,note_on,,0,0,12,,,,,,,,,,,,,,,15,,,75,0
7439,note_on,,59,0,12,,,,,,,,,,,,,,,15,,,78,0
7439,note_on,,59,0,7,,,,,,,,,,,,,,,2,,,47,0
7439,note_on,,59,0,8,,,,,,,,,,,,,,,10,,,78,0
7439,note_on,,59,0,11,,,,,,,,,,,,,,,13,,,47,0
7439,note_on,,59,0,5,,,,,,,,,,,,,,,0,,,78,0
7439,note_on,,0,0,12,,,,,,,,,,,,,,,15,,,66,0
7440,note_on,,0,0,12,,,,,,,,,,,,,,,15,,,74,72
7440,note_on,,0,0,12,,,,,,,,,,,,,,,15,,,67,72
7440,note_on,,1,0,8,,,,,,,,,,,,,,,10,,,79,72
7440,note_on,,0,0,12,,,,,,,,,,,,,,,15,,,47,72
7440,note_on,,1,0,12,,,,,,,,,,,,,,,15,,,55,72
7440,note_on,,1,0,7,,,,,,,,,,,,,,,2,,,47,72
7440,note_on,,1,0,11,,,,,,,,,,,,,,,13,,,47,72
7440,note_on,,1,0,10,,,,,,,,,,,,,,,12,,,62,72
7440,note_on,,1,0,9,,,,,,,,,,,,,,,11,,,59,72
7440,note_on,,1,0,5,,,,,,,,,,,,,,,0,,,79,72
7619,note_on,,179,0,7,,,,,,,,,,,,,,,2,,,47,0
7619,note_on,,0,0,12,,,,,,,,,,,,,,,15,,,67,0
7619,note_on,,179,0,11,,,,,,,,,,,,,,,13,,,47,0
7619,note_on,,179,0,8,,,,,,,,,,,,,,,10,,,79,0
7619,note_on,,179,0,12,,,,,,,,,,,,,,,15,,,47,0
7619,note_on,,179,0,5,,,,,,,,,,,,,,,0,,,79,0
7619,note_on,,179,0,10,,,,,,,,,,,,,,,12,,,62,0
7619,note_on,,179,0,9,,,,,,,,,,,,,,,11,,,59,0
7620,note_on,,1,0,5,,,,,,,,,,,,,,,0,,,83,72
7620,note_on,,0,0,12,,,,,,,,,,,,,,,15,,,71,72
7620,note_on,,0,0,12,,,,,,,,,,,,,,,15,,,43,72
7620,note_on,,1,0,7,,,,,,,,,,,,,,,2,,,43,72
7620,note_on,,1,0,10,,,,,,,,,,,,,,,12,,,67,72
7620,note_on,,1,0,8,,,,,,,,,,,,,,,10,,,83,72
7620,note_on,,1,0,9,,,,,,,,,,,,,,,11,,,62,72
7620,note_on,,1,0,11,,,,,,,,,,,,,,,13,,,43,72
7620,note_on,,1,0,12,,,,,,,,,,,,,,,15,,,67,72
7679,note_on,,59,0,7,,,,,,,,,,,,,,,2,,,43,0
7679,note_on,,59,0,5,,,,,,,,,,,,,,,0,,,83,0
7679,note_on,,59,0,8,,,,,,,,,,,,,,,10,,,83,0
7679,note_on,,0,0,12,,,,,,,,,,,,,,,15,,,67,0
7679,note_on,,0,0,12,,,,,,,,,,,,,,,15,,,71,0
7679,note_on,,0,0,12,,,,,,,,,,,,,,,15,,,74,0
7679,note_on,,59,0,12,,,,,,,,,,,,,,,15,,,55,0
7679,note_on,,59,0,11,,,,,,,,,,,,,,,13,,,43,0
7679,note_on,,59,0,9,,,,,,,,,,,,,,,11,,,62,0
7679,note_on,,59,0,10,,,,,,,,,,,,,,,12,,,67,0
7679,note_on,,0,0,12,,,,,,,,,,,,,,,15,,,43,0
7680,note_on,,1,0,7,,,,,,,,,,,,,,,2,,,48,72
7680,note_on,,0,0,12,,,,,,,,,,,,,,,15,,,67,72
7680,note_on,,0,0,12,,,,,,,,,,,,,,,15,,,76,72
7680,note_on,,0,0,12,,,,,,,,,,,,,,,15,,,48,72
7680,note_on,,1,0,9,,,,,,,,,,,,,,,11,,,64,72
7680,note_on,,1,0,10,,,,,,,,,,,,,,,12,,,67,72
7680,note_on,,1,0,5,,,,,,,,,,,,,,,0,,,76,72
7680,note_on,,0,0,12,,,,,,,,,,,,,,,15,,,55,72
7680,note_on,,1,0,12,,,,,,,,,,,,,,,15,,,72,72
7680,note_on,,1,0,8,,,,,,,,,,,,,,,10,,,76,72
7680,note_on,,1,0,11,,,,,,,,,,,,,,,13,,,48,72
7859,note_on,,179,0,5,,,,,,,,,,,,,,,0,,,76,0
7859,note_on,,179,0,8,,,,,,,,,,,,,,,10,,,76,0
7860,note_on,,1,0,5,,,,,,,,,,,,,,,0,,,69,72
7860,note_on,,1,0,8,,,,,,,,,,,,,,,10,,,69,72
7919,note_on,,239,0,7,,,,,,,,,,,,,,,2,,,48,0
7919,note_on,,0,0,12,,,,,,,,,,,,,,,15,,,67,0
7919,note_on,,239,0,9,,,,,,,,,,,,,,,11,,,64,0
7919,note_on,,0,0,12,,,,,,,,,,,,,,,15,,,48,0
7919,note_on,,0,0,12,,,,,,,,,,,,,,,15,,,55,0
7919,note_on,,239,0,12,,,,,,,,,,,,,,,15,,,72,0
7919,note_on,,59,0,5,,,,,,,,,,,,,,,0,,,69,0
7919,note_on,,59,0,8,,,,,,,,,,,,,,,10,,,69,0
7919,note_on,,239,0,11,,,,,,,,,,,,,,,13,,,48,0
7919,note_on,,0,0,12,,,,,,,,,,,,,,,15,,,76,0
7919,note_on,,239,0,10,,,,,,,,,,,,,,,12,,,67,0
7920,note_on,,1,0,5,,,,,,,,,,,,,,,0,,,67,72
7920,note_on,,1,0,9,,,,,,,,,,,,,,,11,,,64,72
7920,note_on,,1,0,12,,,,,,,,,,,,,,,15,,,64,72
7920,note_on,,1,0,10,,,,,,,,,,,,,,,12,,,57,72
7920,note_on,,1,0,8,,,,,,,,,,,,,,,10,,,67,72
7920,note_on,,0,0,12,,,,,,,,,,,,,,,15,,,69,72
7920,note_on,,1,0,11,,,,,,,,,,,,,,,13,,,49,72
7920,note_on,,0,0,12,,,,,,,,,,,,,,,15,,,57,72
7920,note_on,,1,0,7,,,,,,,,,,,,,,,2,,,49,72
7920,note_on,,0,0,12,,,,,,,,,,,,,,,15,,,55,72
7920,note_on,,0,0,12,,,,,,,,,,,,,,,15,,,49,72
8039,note_on,,119,0,12,,,,,,,,,,,,,,,15,,,64,0
8039,note_on,,0,0,12,,,,,,,,,,,,,,,15,,,69,0
8039,note_on,,0,0,12,,,,,,,,,,,,,,,15,,,55,0
8039,note_on,,0,0,12,,,,,,,,,,,,,,,15,,,49,0
8039,note_on,,119,0,10,,,,,,,,,,,,,,,12,,,57,0
8039,note_on,,119,0,11,,,,,,,,,,,,,,,13,,,49,0
8039,note_on,,0,0,12,,,,,,,,,,,,,,,15,,,57,0
8039,note_on,,119,0,9,,,,,,,,,,,,,,,11,,,64,0
8039,note_on,,119,0,7,,,,,,,,,,,,,,,2,,,49,0
8040,note_on,,1,0,10,,,,,,,,,,,,,,,12,,,64,72
8040,note_on,,1,0,11,,,,,,,,,,,,,,,13,,,45,72
8040,note_on,,1,0,9,,,,,,,,,,,,,,,11,,,61,72
8040,note_on,,1,0,7,,,,,,,,,,,,,,,2,,,45,72
8040,note_on,,0,0,12,,,,,,,,,,,,,,,15,,,45,72
8040,note_on,,1,0,12,,,,,,,,,,,,,,,15,,,73,72
8040,note_on,,0,0,12,,,,,,,,,,,,,,,15,,,52,72
8040,note_on,,0,0,12,,,,,,,,,,,,,,,15,,,64,72
8040,note_on,,0,0,12,,,,,,,,,,,,,,,15,,,69,72
8099,note_on,,179,0,5,,,,,,,,,,,,,,,0,,,67,0
8099,note_on,,179,0,8,,,,,,,,,,,,,,,10,,,67,0
8100,note_on,,1,0,8,,,,,,,,,,,,,,,10,,,66,72
8100,note_on,,1,0,5,,,,,,,,,,,,,,,0,,,66,72
8159,note_on,,0,0,12,,,,,,,,,,,,,,,15,,,45,0
8159,note_on,,59,0,5,,,,,,,,,,,,,,,0,,,66,0
8159,note_on,,0,0,12,,,,,,,,,,,,,,,15,,,52,0
8159,note_on,,119,0,12,,,,,,,,,,,,,,,15,,,73,0
8159,note_on,,59,0,8,,,,,,,,,,,,,,,10,,,66,0
8159,note_on,,0,0,12,,,,,,,,,,,,,,,15,,,69,0
8159,note_on,,0,0,12,,,,,,,,,,,,,,,15,,,64,0
8159,note_on,,119,0,9,,,,,,,,,,,,,,,11,,,61,0
8159,note_on,,119,0,10,,,,,,,,,,,,,,,12,,,64,0
8159,note_on,,119,0,7,,,,,,,,,,,,,,,2,,,45,0
8159,note_on,,119,0,11,,,,,,,,,,,,,,,13,,,45,0
8160,note_on,,1,0,10,,,,,,,,,,,,,,,12,,,62,72
8160,note_on,,0,0,12,,,,,,,,,,,,,,,15,,,74,72
8160,note_on,,0,0,12,,,,,,,,,,,,,,,15,,,69,72
8160,note_on,,0,0,12,,,,,,,,,,,,,,,15,,,50,72
8160,note_on,,1,0,5,,,,,,,,,,,,,,,0,,,66,72
8160,note_on,,0,0,12,,,,,,,,,,,,,,,15,,,54,72
8160,note_on,,1,0,12,,,,,,,,,,,,,,,15,,,62,72
8160,note_on,,1,0,11,,,,,,,,,,,,,,,13,,,50,72
8160,note_on,,1,0,8,,,,,,,,,,,,,,,10,,,66,72
8160,note_on,,1,0,7,,,,,,,,,,,,,,,2,,,50,72
8160,note_on,,1,0,9,,,,,,,,,,,,,,,11,,,57,72
8339,note_on,,179,0,9,,,,,,,,,,,,,,,11,,,57,0
8339,note_on,,179,0,5,,,,,,,,,,,,,,,0,,,66,0
8339,note_on,,179,0,8,,,,,,,,,,,,,,,10,,,66,0
8340,note_on,,1,0,9,,,,,,,,,,,,,,,11,,,66,72
8340,note_on,,1,0,5,,,,,,,,,,,,,,,0,,,69,72
8340,note_on,,1,0,8,,,,,,,,,,,,,,,10,,,69,72
8399,note_on,,0,0,12,,,,,,,,,,,,,,,15,,,54,0
8399,note_on,,59,0,5,,,,,,,,,,,,,,,0,,,69,0
8399,note_on,,239,0,12,,,,,,,,,,,,,,,15,,,62,0
8399,note_on,,59,0,8,,,,,,,,,,,,,,,10,,,69,0
8399,note_on,,0,0,12,,,,,,,,,,,,,,,15,,,50,0
8399,note_on,,239,0,7,,,,,,,,,,,,,,,2,,,50,0
8399,note_on,,239,0,10,,,,,,,,,,,,,,,12,,,62,0
8399,note_on,,239,0,11,,,,,,,,,,,,,,,13,,,50,0
8399,note_on,,0,0,12,,,,,,,,,,,,,,,15,,,74,0
8399,note_on,,0,0,12,,,,,,,,,,,,,,,15,,,69,0
8399,note_on,,59,0,9,,,,,,,,,,,,,,,11,,,66,0
8400,note_on,,1,0,7,,,,,,,,,,,,,,,2,,,47,72
8400,note_on,,1,0,12,,,,,,,,,,,,,,,15,,,71,72
8400,note_on,,0,0,12,,,,,,,,,,,,,,,15,,,59,72
8400,note_on,,0,0,12,,,,,,,,,,,,,,,15,,,74,72
8400,note_on,,1,0,8,,,,,,,,,,,,,,,10,,,74,72
8400,note_on,,1,0,10,,,,,,,,,,,,,,,12,,,62,72
8400,note_on,,1,0,5,,,,,,,,,,,,,,,0,,,74,72
8400,note_on,,1,0,9,,,,,,,,,,,,,,,11,,,66,72
8400,note_on,,1,0,11,,,,,,,,,,,,,,,13,,,47,72
8400,note_on,,0,0,12,,,,,,,,,,,,,,,15,,,66,72
8400,note_on,,0,0,12,,,,,,,,,,,,,,,15,,,47,72
8579,note_on,,179,0,5,,,,,,,,,,,,,,,0,,,74,0
8579,note_on,,179,0,11,,,,,,,,,,,,,,,13,,,47,0
8579,note_on,,179,0,8,,,,,,,,,,,,,,,10,,,74,0
8579,note_on,,179,0,12,,,,,,,,,,,,,,,15,,,47,0
8579,note_on,,179,0,9,,,,,,,,,,,,,,,11,,,66,0
8579,note_on,,179,0,10,,,,,,,,,,,,,,,12,,,62,0
8579,note_on,,179,0,7,,,,,,,,,,,,,,,2,,,47,0
8580,note_on,,1,0,9,,,,,,,,,,,,,,,11,,,66,72
8580,note_on,,1,0,11,,,,,,,,,,,,,,,13,,,59,72
8580,note_on,,1,0,5,,,,,,,,,,,,,,,0,,,74,72
8580,note_on,,1,0,8,,,,,,,,,,,,,,,10,,,74,72
8580,note_on,,1,0,7,,,,,,,,,,,,,,,2,,,59,72
8580,note_on,,1,0,10,,,,,,,,,,,,,,,12,,,62,72
8639,note_on,,0,0,12,,,,,,,,,,,,,,,15,,,59,0
8639,note_on,,0,0,12,,,,,,,,,,,,,,,15,,,74,0
8639,note_on,,59,0,9,,,,,,,,,,,,,,,11,,,66,0
8639,note_on,,0,0,12,,,,,,,,,,,,,,,15,,,66,0
8639,note_on,,60,0,12,,,,,,,,,,,,,,,15,,,71,0
8639,note_on,,59,0,10,,,,,,,,,,,,,,,12,,,62,0
8639,note_on,,59,0,8,,,,,,,,,,,,,,,10,,,74,0
8639,note_on,,59,0,7,,,,,,,,,,,,,,,2,,,59,0
8639,note_on,,59,0,11,,,,,,,,,,,,,,,13,,,59,0
8639,note_on,,59,0,5,,,,,,,,,,,,,,,0,,,74,0
8640,note_on,,0,0,12,,,,,,,,,,,,,,,15,,,71,72
8640,note_on,,1,0,12,,,,,,,,,,,,,,,15,,,62,72
8640,note_on,,1,0,11,,,,,,,,,,,,,,,13,,,56,72
8640,note_on,,1,0,7,,,,,,,,,,,,,,,2,,,56,72
8640,note_on,,1,0,8,,,,,,,,,,,,,,,10,,,74,72
8640,note_on,,0,0,12,,,,,,,,,,,,,,,15,,,64,72
8640,note_on,,1,0,9,,,,,,,,,,,,,,,11,,,71,72
8640,note_on,,1,0,5,,,,,,,,,,,,,,,0,,,74,72
8640,note_on,,0,0,12,,,,,,,,,,,,,,,15,,,56,72
8640,note_on,,0,0,12,,,,,,,,,,,,,,,15,,,59,72
8640,note_on,,1,0,10,,,,,,,,,,,,,,,12,,,64,72
8819,note_on,,179,0,8,,,,,,,,,,,,,,,10,,,74,0
8819,note_on,,179,0,5,,,,,,,,,,,,,,,0,,,74,0
8819,note_on,,179,0,9,,,,,,,,,,,,,,,11,,,71,0
8820,note_on,,1,0,5,,,,,,,,,,,,,,,0,,,76,72
8820,note_on,,1,0,9,,,,,,,,,,,,,,,11,,,71,72
8820,note_on,,1,0,8,,,,,,,,,,,,,,,10,,,76,72
8879,note_on,,59,0,9,,,,,,,,,,,,,,,11,,,71,0
8879,note_on,,0,0,12,,,,,,,,,,,,,,,15,,,59,0
8879,note_on,,239,0,10,,,,,,,,,,,,,,,12,,,64,0
8879,note_on,,0,0,12,,,,,,,,,,,,,,,15,,,71,0
8879,note_on,,0,0,12,,,,,,,,,,,,,,,15,,,56,0
8879,note_on,,0,0,12,,,,,,,,,,,,,,,15,,,64,0
8879,note_on,,239,0,7,,,,,,,,,,,,,,,2,,,56,0
8879,note_on,,239,0,11,,,,,,,,,,,,,,,13,,,56,0
8879,note_on,,59,0,8,,,,,,,,,,,,,,,10,,,76,0
8879,note_on,,239,0,12,,,,,,,,,,,,,,,15,,,62,0
8879,note_on,,59,0,5,,,,,,,,,,,,,,,0,,,76,0
8880,note_on,,1,0,12,,,,,,,,,,,,,,,15,,,57,72
8880,note_on,,0,0,12,,,,,,,,,,,,,,,15,,,64,72
8880,note_on,,0,0,12,,,,,,,,,,,,,,,15,,,60,72
8880,note_on,,1,0,11,,,,,,,,,,,,,,,13,,,57,72
8880,note_on,,1,0,10,,,,,,,,,,,,,,,12,,,64,72
8880,note_on,,1,0,5,,,,,,,,,,,,,,,0,,,72,72
8880,note_on,,1,0,9,,,,,,,,,,,,,,,11,,,69,72
8880,note_on,,1,0,8,,,,,,,,,,,,,,,10,,,72,72
8880,note_on,,1,0,7,,,,,,,,,,,,,,,2,,,57,72
8999,note_on,,119,0,12,,,,,,,,,,,,,,,15,,,64,0
8999,note_on,,119,0,11,,,,,,,,,,,,,,,13,,,57,0
8999,note_on,,119,0,7,,,,,,,,,,,,,,,2,,,57,0
8999,note_on,,119,0,9,,,,,,,,,,,,,,,11,,,69,0
8999,note_on,,119,0,10,,,,,,,,,,,,,,,12,,,64,0
9000,note_on,,1,0,9,,,,,,,,,,,,,,,11,,,69,72
9000,note_on,,1,0,11,,,,,,,,,,,,,,,13,,,54,72
9000,note_on,,0,0,12,,,,,,,,,,,,,,,15,,,69,72
9000,note_on,,1,0,7,,,,,,,,,,,,,,,2,,,54,72
9000,note_on,,1,0,10,,,,,,,,,,,,,,,12,,,66,72
9000,note_on,,1,0,12,,,,,,,,,,,,,,,15,,,54,72
9059,note_on,,179,0,5,,,,,,,,,,,,,,,0,,,72,0
9059,note_on,,179,0,8,,,,,,,,,,,,,,,10,,,72,0
9060,note_on,,1,0,8,,,,,,,,,,,,,,,10,,,71,72
9060,note_on,,1,0,5,,,,,,,,,,,,,,,0,,,71,72
9119,note_on,,119,0,10,,,,,,,,,,,,,,,12,,,66,0
9119,note_on,,119,0,7,,,,,,,,,,,,,,,2,,,54,0
9119,note_on,,119,0,11,,,,,,,,,,,,,,,13,,,54,0
9119,note_on,,0,0,12,,,,,,,,,,,,,,,15,,,60,0
9119,note_on,,0,0,12,,,,,,,,,,,,,,,15,,,54,0
9119,note_on,,0,0,12,,,,,,,,,,,,,,,15,,,69,0
9119,note_on,,59,0,8,,,,,,,,,,,,,,,10,,,71,0
9119,note_on,,119,0,9,,,,,,,,,,,,,,,11,,,69,0
9119,note_on,,59,0,5,,,,,,,,,,,,,,,0,,,71,0
9119,note_on,,119,0,12,,,,,,,,,,,,,,,15,,,57,0
9120,note_on,,1,0,10,,,,,,,,,,,,,,,12,,,66,72
9120,note_on,,1,0,11,,,,,,,,,,,,,,,13,,,51,72
9120,note_on,,1,0,9,,,,,,,,,,,,,,,11,,,69,72
9120,note_on,,0,0,12,,,,,,,,,,,,,,,15,,,59,72
9120,note_on,,0,0,12,,,,,,,,,,,,,,,15,,,66,72
9120,note_on,,1,0,12,,,,,,,,,,,,,,,15,,,51,72
9120,note_on,,0,0,12,,,,,,,,,,,,,,,15,,,69,72
9120,note_on,,1,0,5,,,,,,,,,,,,,,,0,,,71,72
9120,note_on,,1,0,7,,,,,,,,,,,,,,,2,,,51,72
9120,note_on,,1,0,8,,,,,,,,,,,,,,,10,,,71,72
9209,note_on,,89,0,10,,,,,,,,,,,,,,,12,,,66,0
9209,note_on,,89,0,9,,,,,,,,,,,,,,,11,,,69,0
9210,note_on,,1,0,10,,,,,,,,,,,,,,,12,,,66,72
9210,note_on,,1,0,9,,,,,,,,,,,,,,,11,,,69,72
9239,note_on,,29,0,10,,,,,,,,,,,,,,,12,,,66,0
9239,note_on,,29,0,9,,,,,,,,,,,,,,,11,,,69,0
9240,note_on,,1,0,10,,,,,,,,,,,,,,,12,,,64,72
9240,note_on,,1,0,9,,,,,,,,,,,,,,,11,,,67,72
9299,note_on,,179,0,7,,,,,,,,,,,,,,,2,,,51,0
9299,note_on,,179,0,11,,,,,,,,,,,,,,,13,,,51,0
9299,note_on,,179,0,12,,,,,,,,,,,,,,,15,,,51,0
9300,note_on,,1,0,7,,,,,,,,,,,,,,,2,,,47,72
9300,note_on,,1,0,12,,,,,,,,,,,,,,,15,,,47,72
9300,note_on,,1,0,11,,,,,,,,,,,,,,,13,,,47,72
9329,note_on,,89,0,9,,,,,,,,,,,,,,,11,,,67,0
9329,note_on,,89,0,10,,,,,,,,,,,,,,,12,,,64,0
9330,note_on,,1,0,10,,,,,,,,,,,,,,,12,,,63,72
9330,note_on,,1,0,9,,,,,,,,,,,,,,,11,,,66,72
9359,note_on,,59,0,11,,,,,,,,,,,,,,,13,,,47,0
9359,note_on,,59,0,7,,,,,,,,,,,,,,,2,,,47,0
9359,note_on,,29,0,10,,,,,,,,,,,,,,,12,,,63,0
9359,note_on,,29,0,9,,,,,,,,,,,,,,,11,,,66,0
9359,note_on,,59,0,12,,,,,,,,,,,,,,,15,,,66,0
9359,note_on,,0,0,12,,,,,,,,,,,,,,,15,,,69,0
9359,note_on,,0,0,12,,,,,,,,,,,,,,,15,,,47,0
9359,note_on,,0,0,12,,,,,,,,,,,,,,,15,,,59,0
9360,note_on,,0,0,12,,,,,,,,,,,,,,,15,,,52,72
9360,note_on,,1,0,9,,,,,,,,,,,,,,,11,,,67,72
9360,note_on,,1,0,11,,,,,,,,,,,,,,,13,,,52,72
9360,note_on,,1,0,10,,,,,,,,,,,,,,,12,,,64,72
9360,note_on,,1,0,7,,,,,,,,,,,,,,,2,,,52,72
9360,note_on,,1,0,12,,,,,,,,,,,,,,,15,,,67,72
9360,note_on,,0,0,12,,,,,,,,,,,,,,,15,,,64,72
9360,note_on,,0,0,12,,,,,,,,,,,,,,,15,,,59,72
9449,note_on,,329,0,8,,,,,,,,,,,,,,,10,,,71,0
9449,note_on,,329,0,5,,,,,,,,,,,,,,,0,,,71,0
9450,note_on,,1,0,5,,,,,,,,,,,,,,,0,,,71,72
9450,note_on,,1,0,8,,,,,,,,,,,,,,,10,,,71,72
9479,note_on,,29,0,8,,,,,,,,,,,,,,,10,,,71,0
9479,note_on,,119,0,10,,,,,,,,,,,,,,,12,,,64,0
9479,note_on,,119,0,11,,,,,,,,,,,,,,,13,,,52,0
9479,note_on,,29,0,5,,,,,,,,,,,,,,,0,,,71,0
9479,note_on,,0,0,12,,,,,,,,,,,,,,,15,,,64,0
9479,note_on,,0,0,12,,,,,,,,,,,,,,,15,,,52,0
9479,note_on,,119,0,12,,,,,,,,,,,,,,,15,,,67,0
9479,note_on,,119,0,9,,,,,,,,,,,,,,,11,,,67,0
9479,note_on,,119,0,7,,,,,,,,,,,,,,,2,,,52,0
9479,note_on,,0,0,12,,,,,,,,,,,,,,,15,,,59,0
9480,note_on,,0,0,12,,,,,,,,,,,,,,,15,,,66,72
9480,note_on,,1,0,5,,,,,,,,,,,,,,,0,,,71,72
9480,note_on,,1,0,7,,,,,,,,,,,,,,,2,,,50,72
9480,note_on,,1,0,11,,,,,,,,,,,,,,,13,,,50,72
9480,note_on,,1,0,10,,,,,,,,,,,,,,,12,,,59,72
9480,note_on,,0,0,12,,,,,,,,,,,,,,,15,,,54,72
9480,note_on,,1,0,9,,,,,,,,,,,,,,,11,,,66,72
9480,note_on,,1,0,8,,,,,,,,,,,,,,,10,,,71,72
9480,note_on,,1,0,12,,,,,,,,,,,,,,,15,,,59,72
9480,note_on,,0,0,12,,,,,,,,,,,,,,,15,,,50,72
9569,note_on,,89,0,5,,,,,,,,,,,,,,,0,,,71,0
9569,note_on,,89,0,8,,,,,,,,,,,,,,,10,,,71,0
9570,note_on,,1,0,8,,,,,,,,,,,,,,,10,,,71,72
9570,note_on,,1,0,5,,,,,,,,,,,,,,,0,,,71,72
9599,note_on,,119,0,10,,,,,,,,,,,,,,,12,,,59,0
9599,note_on,,119,0,9,,,,,,,,,,,,,,,11,,,66,0
9599,note_on,,119,0,11,,,,,,,,,,,,,,,13,,,50,0
9599,note_on,,119,0,7,,,,,,,,,,,,,,,2,,,50,0
9599,note_on,,29,0,8,,,,,,,,,,,,,,,10,,,71,0
9599,note_on,,29,0,5,,,,,,,,,,,,,,,0,,,71,0
9599,note_on,,119,0,12,,,,,,,,,,,,,,,15,,,59,0
9599,note_on,,0,0,12,,,,,,,,,,,,,,,15,,,50,0
9599,note_on,,0,0,12,,,,,,,,,,,,,,,15,,,54,0
9599,note_on,,0,0,12,,,,,,,,,,,,,,,15,,,66,0
9600,note_on,,1,0,5,,,,,,,,,,,,,,,0,,,76,72
9600,note_on,,1,0,9,,,,,,,,,,,,,,,11,,,64,72
9600,note_on,,1,0,7,,,,,,,,,,,,,,,2,,,48,72
9600,note_on,,1,0,8,,,,,,,,,,,,,,,10,,,76,72
9600,note_on,,1,0,11,,,,,,,,,,,,,,,13,,,48,72
9600,note_on,,0,0,12,,,,,,,,,,,,,,,15,,,48,72
9600,note_on,,1,0,10,,,,,,,,,,,,,,,12,,,67,72
9600,note_on,,0,0,12,,,,,,,,,,,,,,,15,,,60,72
9600,note_on,,0,0,12,,,,,,,,,,,,,,,15,,,64,72
9600,note_on,,1,0,12,,,,,,,,,,,,,,,15,,,55,72
9719,note_on,,119,0,12,,,,,,,,,,,,,,,15,,,55,0
9719,note_on,,0,0,12,,,,,,,,,,,,,,,15,,,48,0
9719,note_on,,119,0,9,,,,,,,,,,,,,,,11,,,64,0
9719,note_on,,119,0,7,,,,,,,,,,,,,,,2,,,48,0
9719,note_on,,119,0,11,,,,,,,,,,,,,,,13,,,48,0
9719,note_on,,119,0,10,,,,,,,,,,,,,,,12,,,67,0
9720,note_on,,1,0,10,,,,,,,,,,,,,,,12,,,69,72
9720,note_on,,1,0,9,,,,,,,,,,,,,,,11,,,72,72
9720,note_on,,1,0,7,,,,,,,,,,,,,,,2,,,45,72
9720,note_on,,1,0,12,,,,,,,,,,,,,,,15,,,45,72
9720,note_on,,0,0,12,,,,,,,,,,,,,,,15,,,57,72
9720,note_on,,1,0,11,,,,,,,,,,,,,,,13,,,45,72
9779,note_on,,179,0,5,,,,,,,,,,,,,,,0,,,76,0
9779,note_on,,179,0,8,,,,,,,,,,,,,,,10,,,76,0
9780,note_on,,1,0,5,,,,,,,,,,,,,,,0,,,78,72
9780,note_on,,1,0,8,,,,,,,,,,,,,,,10,,,78,72
9839,note_on,,119,0,10,,,,,,,,,,,,,,,12,,,69,0
9839,note_on,,59,0,8,,,,,,,,,,,,,,,10,,,78,0
9839,note_on,,119,0,12,,,,,,,,,,,,,,,15,,,60,0
9839,note_on,,119,0,9,,,,,,,,,,,,,,,11,,,72,0
9839,note_on,,119,0,11,,,,,,,,,,,,,,,13,,,45,0
9839,note_on,,119,0,7,,,,,,,,,,,,,,,2,,,45,0
9839,note_on,,0,0,12,,,,,,,,,,,,,,,15,,,57,0
9839,note_on,,59,0,5,,,,,,,,,,,,,,,0,,,78,0
9839,note_on,,0,0,12,,,,,,,,,,,,,,,15,,,64,0
9839,note_on,,0,0,12,,,,,,,,,,,,,,,15,,,45,0
9840,note_on,,0,0,12,,,,,,,,,,,,,,,15,,,66,72
9840,note_on,,1,0,7,,,,,,,,,,,,,,,2,,,57,72
9840,note_on,,0,0,12,,,,,,,,,,,,,,,15,,,60,72
9840,note_on,,1,0,10,,,,,,,,,,,,,,,12,,,57,72
9840,note_on,,1,0,9,,,,,,,,,,,,,,,11,,,72,72
9840,note_on,,1,0,12,,,,,,,,,,,,,,,15,,,57,72
9840,note_on,,1,0,11,,,,,,,,,,,,,,,13,,,57,72
9840,note_on,,1,0,8,,,,,,,,,,,,,,,10,,,78,72
9840,note_on,,1,0,5,,,,,,,,,,,,,,,0,,,78,72
9854,note_on,,14,0,5,,,,,,,,,,,,,,,0,,,78,0
9854,note_on,,14,0,8,,,,,,,,,,,,,,,10,,,78,0
9855,note_on,,1,0,8,,,,,,,,,,,,,,,10,,,79,72
9855,note_on,,1,0,5,,,,,,,,,,,,,,,0,,,79,72
9869,note_on,,14,0,5,,,,,,,,,,,,,,,0,,,79,0
9869,note_on,,14,0,8,,,,,,,,,,,,,,,10,,,79,0
9870,note_on,,1,0,5,,,,,,,,,,,,,,,0,,,78,72
9870,note_on,,1,0,8,,,,,,,,,,,,,,,10,,,78,72
9884,note_on,,14,0,5,,,,,,,,,,,,,,,0,,,78,0
9884,note_on,,14,0,8,,,,,,,,,,,,,,,10,,,78,0
9885,note_on,,1,0,8,,,,,,,,,,,,,,,10,,,79,72
9885,note_on,,1,0,5,,,,,,,,,,,,,,,0,,,79,72
9899,note_on,,14,0,5,,,,,,,,,,,,,,,0,,,79,0
9899,note_on,,14,0,8,,,,,,,,,,,,,,,10,,,79,0
9900,note_on,,1,0,5,,,,,,,,,,,,,,,0,,,78,72
9900,note_on,,1,0,8,,,,,,,,,,,,,,,10,,,78,72
9914,note_on,,14,0,5,,,,,,,,,,,,,,,0,,,78,0
9914,note_on,,14,0,8,,,,,,,,,,,,,,,10,,,78,0
9915,note_on,,1,0,5,,,,,,,,,,,,,,,0,,,79,72
9915,note_on,,1,0,8,,,,,,,,,,,,,,,10,,,79,72
9929,note_on,,14,0,8,,,,,,,,,,,,,,,10,,,79,0
9929,note_on,,14,0,5,,,,,,,,,,,,,,,0,,,79,0
9930,note_on,,1,0,8,,,,,,,,,,,,,,,10,,,78,72
9930,note_on,,1,0,5,,,,,,,,,,,,,,,0,,,78,72
9944,note_on,,14,0,8,,,,,,,,,,,,,,,10,,,78,0
9944,note_on,,14,0,5,,,,,,,,,,,,,,,0,,,78,0
9945,note_on,,1,0,8,,,,,,,,,,,,,,,10,,,79,72
9945,note_on,,1,0,5,,,,,,,,,,,,,,,0,,,79,72
9959,note_on,,14,0,8,,,,,,,,,,,,,,,10,,,79,0
9959,note_on,,14,0,5,,,,,,,,,,,,,,,0,,,79,0
9959,note_on,,119,0,10,,,,,,,,,,,,,,,12,,,57,0
9960,note_on,,1,0,5,,,,,,,,,,,,,,,0,,,78,72
9960,note_on,,1,0,10,,,,,,,,,,,,,,,12,,,60,72
9960,note_on,,1,0,8,,,,,,,,,,,,,,,10,,,78,72
9974,note_on,,14,0,8,,,,,,,,,,,,,,,10,,,78,0
9974,note_on,,14,0,5,,,,,,,,,,,,,,,0,,,78,0
9975,note_on,,1,0,5,,,,,,,,,,,,,,,0,,,79,72
9975,note_on,,1,0,8,,,,,,,,,,,,,,,10,,,79,72
9989,note_on,,14,0,8,,,,,,,,,,,,,,,10,,,79,0
9989,note_on,,14,0,5,,,,,,,,,,,,,,,0,,,79,0
9990,note_on,,1,0,8,,,,,,,,,,,,,,,10,,,76,72
9990,note_on,,1,0,5,,,,,,,,,,,,,,,0,,,76,72
10004,note_on,,14,0,5,,,,,,,,,,,,,,,0,,,76,0
10004,note_on,,14,0,8,,,,,,,,,,,,,,,10,,,76,0
10005,note_on,,1,0,8,,,,,,,,,,,,,,,10,,,78,72
10005,note_on,,1,0,5,,,,,,,,,,,,,,,0,,,78,72
10019,note_on,,14,0,5,,,,,,,,,,,,,,,0,,,78,0
10019,note_on,,179,0,7,,,,,,,,,,,,,,,2,,,57,0
10019,note_on,,179,0,12,,,,,,,,,,,,,,,15,,,57,0
10019,note_on,,14,0,8,,,,,,,,,,,,,,,10,,,78,0
10019,note_on,,179,0,9,,,,,,,,,,,,,,,11,,,72,0
10019,note_on,,179,0,11,,,,,,,,,,,,,,,13,,,57,0
10020,note_on,,1,0,12,,,,,,,,,,,,,,,15,,,55,72
10020,note_on,,1,0,11,,,,,,,,,,,,,,,13,,,55,72
10020,note_on,,1,0,5,,,,,,,,,,,,,,,0,,,76,72
10020,note_on,,1,0,9,,,,,,,,,,,,,,,11,,,71,72
10020,note_on,,1,0,7,,,,,,,,,,,,,,,2,,,55,72
10020,note_on,,1,0,8,,,,,,,,,,,,,,,10,,,76,72
10049,note_on,,29,0,5,,,,,,,,,,,,,,,0,,,76,0
10049,note_on,,29,0,8,,,,,,,,,,,,,,,10,,,76,0
10049,note_on,,29,0,12,,,,,,,,,,,,,,,15,,,55,0
10049,note_on,,29,0,9,,,,,,,,,,,,,,,11,,,71,0
10049,note_on,,29,0,11,,,,,,,,,,,,,,,13,,,55,0
10049,note_on,,29,0,7,,,,,,,,,,,,,,,2,,,55,0
10050,note_on,,1,0,7,,,,,,,,,,,,,,,2,,,54,72
10050,note_on,,1,0,9,,,,,,,,,,,,,,,11,,,69,72
10050,note_on,,1,0,8,,,,,,,,,,,,,,,10,,,78,72
10050,note_on,,1,0,11,,,,,,,,,,,,,,,13,,,54,72
10050,note_on,,1,0,12,,,,,,,,,,,,,,,15,,,54,72
10050,note_on,,1,0,5,,,,,,,,,,,,,,,0,,,78,72
10079,note_on,,29,0,12,,,,,,,,,,,,,,,15,,,60,0
10079,note_on,,29,0,7,,,,,,,,,,,,,,,2,,,54,0
10079,note_on,,29,0,8,,,,,,,,,,,,,,,10,,,78,0
10079,note_on,,0,0,12,,,,,,,,,,,,,,,15,,,66,0
10079,note_on,,0,0,12,,,,,,,,,,,,,,,15,,,54,0
10079,note_on,,119,0,10,,,,,,,,,,,,,,,12,,,60,0
10079,note_on,,29,0,11,,,,,,,,,,,,,,,13,,,54,0
10079,note_on,,29,0,9,,,,,,,,,,,,,,,11,,,69,0
10079,note_on,,29,0,5,,,,,,,,,,,,,,,0,,,78,0
10080,note_on,,1,0,9,,,,,,,,,,,,,,,11,,,71,72
10080,note_on,,1,0,7,,,,,,,,,,,,,,,2,,,52,72
10080,note_on,,0,0,12,,,,,,,,,,,,,,,15,,,67,72
10080,note_on,,1,0,5,,,,,,,,,,,,,,,0,,,79,72
10080,note_on,,1,0,11,,,,,,,,,,,,,,,13,,,52,72
10080,note_on,,1,0,12,,,,,,,,,,,,,,,15,,,59,72
10080,note_on,,0,0,12,,,,,,,,,,,,,,,15,,,52,72
10080,note_on,,0,0,12,,,,,,,,,,,,,,,15,,,64,72
10080,note_on,,1,0,10,,,,,,,,,,,,,,,12,,,64,72
10080,note_on,,1,0,8,,,,,,,,,,,,,,,10,,,79,72
10259,note_on,,179,0,10,,,,,,,,,,,,,,,12,,,64,0
10259,note_on,,179,0,9,,,,,,,,,,,,,,,11,,,71,0
10259,note_on,,179,0,5,,,,,,,,,,,,,,,0,,,79,0
10259,note_on,,179,0,11,,,,,,,,,,,,,,,13,,,52,0
10259,note_on,,179,0,7,,,,,,,,,,,,,,,2,,,52,0
10259,note_on,,179,0,8,,,,,,,,,,,,,,,10,,,79,0
10259,note_on,,179,0,12,,,,,,,,,,,,,,,15,,,52,0
10260,note_on,,1,0,12,,,,,,,,,,,,,,,15,,,52,72
10260,note_on,,1,0,7,,,,,,,,,,,,,,,2,,,52,72
10260,note_on,,1,0,5,,,,,,,,,,,,,,,0,,,67,72
10260,note_on,,1,0,11,,,,,,,,,,,,,,,13,,,52,72
10260,note_on,,1,0,10,,,,,,,,,,,,,,,12,,,64,72
10260,note_on,,1,0,8,,,,,,,,,,,,,,,10,,,67,72
10260,note_on,,1,0,9,,,,,,,,,,,,,,,11,,,59,72
10319,note_on,,59,0,5,,,,,,,,,,,,,,,0,,,67,0
10319,note_on,,59,0,9,,,,,,,,,,,,,,,11,,,59,0
10319,note_on,,59,0,8,,,,,,,,,,,,,,,10,,,67,0
10319,note_on,,0,0,12,,,,,,,,,,,,,,,15,,,64,0
10319,note_on,,0,0,12,,,,,,,,,,,,,,,15,,,67,0
10319,note_on,,0,0,12,,,,,,,,,,,,,,,15,,,52,0
10319,note_on,,59,0,7,,,,,,,,,,,,,,,2,,,52,0
10319,note_on,,59,0,10,,,,,,,,,,,,,,,12,,,64,0
10319,note_on,,59,0,12,,,,,,,,,,,,,,,15,,,59,0
10319,note_on,,59,0,11,,,,,,,,,,,,,,,13,,,52,0
10320,note_on,,1,0,5,,,,,,,,,,,,,,,0,,,66,72
10320,note_on,,1,0,7,,,,,,,,,,,,,,,2,,,50,72
10320,note_on,,1,0,10,,,,,,,,,,,,,,,12,,,66,72
10320,note_on,,0,0,12,,,,,,,,,,,,,,,15,,,50,72
10320,note_on,,0,0,12,,,,,,,,,,,,,,,15,,,66,72
10320,note_on,,1,0,8,,,,,,,,,,,,,,,10,,,66,72
10320,note_on,,1,0,11,,,,,,,,,,,,,,,13,,,50,72
10320,note_on,,1,0,9,,,,,,,,,,,,,,,11,,,59,72
10320,note_on,,1,0,12,,,,,,,,,,,,,,,15,,,59,72
10439,note_on,,119,0,8,,,,,,,,,,,,,,,10,,,66,0
10439,note_on,,119,0,5,,,,,,,,,,,,,,,0,,,66,0
10440,note_on,,1,0,8,,,,,,,,,,,,,,,10,,,71,72
10440,note_on,,1,0,5,,,,,,,,,,,,,,,0,,,71,72
10499,note_on,,179,0,12,,,,,,,,,,,,,,,15,,,50,0
10499,note_on,,179,0,11,,,,,,,,,,,,,,,13,,,50,0
10499,note_on,,179,0,9,,,,,,,,,,,,,,,11,,,59,0
10499,note_on,,179,0,7,,,,,,,,,,,,,,,2,,,50,0
10499,note_on,,179,0,10,,,,,,,,,,,,,,,12,,,66,0
10500,note_on,,1,0,11,,,,,,,,,,,,,,,13,,,50,72
10500,note_on,,1,0,9,,,,,,,,,,,,,,,11,,,66,72
10500,note_on,,1,0,7,,,,,,,,,,,,,,,2,,,50,72
10500,note_on,,1,0,12,,,,,,,,,,,,,,,15,,,50,72
10500,note_on,,1,0,10,,,,,,,,,,,,,,,12,,,59,72
10559,note_on,,0,0,12,,,,,,,,,,,,,,,15,,,50,0
10559,note_on,,59,0,9,,,,,,,,,,,,,,,11,,,66,0
10559,note_on,,59,0,12,,,,,,,,,,,,,,,15,,,59,0
10559,note_on,,59,0,10,,,,,,,,,,,,,,,12,,,59,0
10559,note_on,,59,0,11,,,,,,,,,,,,,,,13,,,50,0
10559,note_on,,0,0,12,,,,,,,,,,,,,,,15,,,66,0
10559,note_on,,119,0,8,,,,,,,,,,,,,,,10,,,71,0
10559,note_on,,59,0,7,,,,,,,,,,,,,,,2,,,50,0
10559,note_on,,119,0,5,,,,,,,,,,,,,,,0,,,71,0
10560,note_on,,0,0,12,,,,,,,,,,,,,,,15,,,59,72
10560,note_on,,1,0,11,,,,,,,,,,,,,,,13,,,48,72
10560,note_on,,1,0,7,,,,,,,,,,,,,,,2,,,48,72
10560,note_on,,0,0,12,,,,,,,,,,,,,,,15,,,55,72
10560,note_on,,1,0,9,,,,,,,,,,,,,,,11,,,67,72
10560,note_on,,1,0,12,,,,,,,,,,,,,,,15,,,48,72
10560,note_on,,1,0,8,,,,,,,,,,,,,,,10,,,76,72
10560,note_on,,1,0,10,,,,,,,,,,,,,,,12,,,59,72
10560,note_on,,0,0,12,,,,,,,,,,,,,,,15,,,64,72
10560,note_on,,1,0,5,,,,,,,,,,,,,,,0,,,76,72
10679,note_on,,119,0,10,,,,,,,,,,,,,,,12,,,59,0
10680,note_on,,1,0,10,,,,,,,,,,,,,,,12,,,57,72
10739,note_on,,179,0,7,,,,,,,,,,,,,,,2,,,48,0
10739,note_on,,179,0,8,,,,,,,,,,,,,,,10,,,76,0
10739,note_on,,179,0,11,,,,,,,,,,,,,,,13,,,48,0
10739,note_on,,179,0,12,,,,,,,,,,,,,,,15,,,48,0
10739,note_on,,179,0,5,,,,,,,,,,,,,,,0,,,76,0
10739,note_on,,59,0,10,,,,,,,,,,,,,,,12,,,57,0
10739,note_on,,179,0,9,,,,,,,,,,,,,,,11,,,67,0
10740,note_on,,1,0,7,,,,,,,,,,,,,,,2,,,48,72
10740,note_on,,1,0,8,,,,,,,,,,,,,,,10,,,71,72
10740,note_on,,1,0,12,,,,,,,,,,,,,,,15,,,48,72
10740,note_on,,1,0,10,,,,,,,,,,,,,,,12,,,55,72
10740,note_on,,1,0,9,,,,,,,,,,,,,,,11,,,67,72
10740,note_on,,1,0,11,,,,,,,,,,,,,,,13,,,48,72
10740,note_on,,1,0,5,,,,,,,,,,,,,,,0,,,71,72
10799,note_on,,59,0,11,,,,,,,,,,,,,,,13,,,48,0
10799,note_on,,59,0,7,,,,,,,,,,,,,,,2,,,48,0
10799,note_on,,59,0,10,,,,,,,,,,,,,,,12,,,55,0
10799,note_on,,59,0,5,,,,,,,,,,,,,,,0,,,71,0
10799,note_on,,59,0,9,,,,,,,,,,,,,,,11,,,67,0
10799,note_on,,59,0,8,,,,,,,,,,,,,,,10,,,71,0
10799,note_on,,0,0,12,,,,,,,,,,,,,,,15,,,48,0
10799,note_on,,0,0,12,,,,,,,,,,,,,,,15,,,64,0
10799,note_on,,0,0,12,,,,,,,,,,,,,,,15,,,55,0
10799,note_on,,59,0,12,,,,,,,,,,,,,,,15,,,59,0
10800,note_on,,1,0,5,,,,,,,,,,,,,,,0,,,69,72
10800,note_on,,1,0,9,,,,,,,,,,,,,,,11,,,64,72
10800,note_on,,0,0,12,,,,,,,,,,,,,,,15,,,52,72
10800,note_on,,0,0,12,,,,,,,,,,,,,,,15,,,57,72
10800,note_on,,0,0,12,,,,,,,,,,,,,,,15,,,48,72
10800,note_on,,1,0,12,,,,,,,,,,,,,,,15,,,64,72
10800,note_on,,1,0,11,,,,,,,,,,,,,,,13,,,48,72
10800,note_on,,1,0,10,,,,,,,,,,,,,,,12,,,57,72
10800,note_on,,1,0,7,,,,,,,,,,,,,,,2,,,48,72
10800,note_on,,1,0,8,,,,,,,,,,,,,,,10,,,69,72
10814,note_on,,14,0,5,,,,,,,,,,,,,,,0,,,69,0
10814,note_on,,14,0,8,,,,,,,,,,,,,,,10,,,69,0
10815,note_on,,1,0,5,,,,,,,,,,,,,,,0,,,71,72
10815,note_on,,1,0,8,,,,,,,,,,,,,,,10,,,71,72
10829,note_on,,14,0,5,,,,,,,,,,,,,,,0,,,71,0
10829,note_on,,14,0,8,,,,,,,,,,,,,,,10,,,71,0
10830,note_on,,1,0,8,,,,,,,,,,,,,,,10,,,69,72
10830,note_on,,1,0,5,,,,,,,,,,,,,,,0,,,69,72
10844,note_on,,14,0,5,,,,,,,,,,,,,,,0,,,69,0
10844,note_on,,14,0,8,,,,,,,,,,,,,,,10,,,69,0
10845,note_on,,1,0,5,,,,,,,,,,,,,,,0,,,71,72
10845,note_on,,1,0,8,,,,,,,,,,,,,,,10,,,71,72
10859,note_on,,14,0,8,,,,,,,,,,,,,,,10,,,71,0
10859,note_on,,14,0,5,,,,,,,,,,,,,,,0,,,71,0
10860,note_on,,1,0,5,,,,,,,,,,,,,,,0,,,69,72
10860,note_on,,1,0,8,,,,,,,,,,,,,,,10,,,69,72
10874,note_on,,14,0,8,,,,,,,,,,,,,,,10,,,69,0
10874,note_on,,14,0,5,,,,,,,,,,,,,,,0,,,69,0
10875,note_on,,1,0,5,,,,,,,,,,,,,,,0,,,71,72
10875,note_on,,1,0,8,,,,,,,,,,,,,,,10,,,71,72
10889,note_on,,14,0,8,,,,,,,,,,,,,,,10,,,71,0
10889,note_on,,14,0,5,,,,,,,,,,,,,,,0,,,71,0
10890,note_on,,1,0,8,,,,,,,,,,,,,,,10,,,69,72
10890,note_on,,1,0,5,,,,,,,,,,,,,,,0,,,69,72
10904,note_on,,14,0,5,,,,,,,,,,,,,,,0,,,69,0
10904,note_on,,14,0,8,,,,,,,,,,,,,,,10,,,69,0
10905,note_on,,1,0,8,,,,,,,,,,,,,,,10,,,71,72
10905,note_on,,1,0,5,,,,,,,,,,,,,,,0,,,71,72
10919,note_on,,14,0,5,,,,,,,,,,,,,,,0,,,71,0
10919,note_on,,14,0,8,,,,,,,,,,,,,,,10,,,71,0
10920,note_on,,1,0,5,,,,,,,,,,,,,,,0,,,69,72
10920,note_on,,1,0,8,,,,,,,,,,,,,,,10,,,69,72
10934,note_on,,14,0,5,,,,,,,,,,,,,,,0,,,69,0
10934,note_on,,14,0,8,,,,,,,,,,,,,,,10,,,69,0
10935,note_on,,1,0,8,,,,,,,,,,,,,,,10,,,71,72
10935,note_on,,1,0,5,,,,,,,,,,,,,,,0,,,71,72
10949,note_on,,14,0,8,,,,,,,,,,,,,,,10,,,71,0
10949,note_on,,14,0,5,,,,,,,,,,,,,,,0,,,71,0
10950,note_on,,1,0,8,,,,,,,,,,,,,,,10,,,67,72
10950,note_on,,1,0,5,,,,,,,,,,,,,,,0,,,67,72
10964,note_on,,14,0,5,,,,,,,,,,,,,,,0,,,67,0
10964,note_on,,14,0,8,,,,,,,,,,,,,,,10,,,67,0
10965,note_on,,1,0,5,,,,,,,,,,,,,,,0,,,69,72
10965,note_on,,1,0,8,,,,,,,,,,,,,,,10,,,69,72
10979,note_on,,14,0,8,,,,,,,,,,,,,,,10,,,69,0
10979,note_on,,14,0,5,,,,,,,,,,,,,,,0,,,69,0
10979,note_on,,179,0,11,,,,,,,,,,,,,,,13,,,48,0
10979,note_on,,179,0,9,,,,,,,,,,,,,,,11,,,64,0
10979,note_on,,0,0,12,,,,,,,,,,,,,,,15,,,57,0
10979,note_on,,0,0,12,,,,,,,,,,,,,,,15,,,48,0
10979,note_on,,179,0,12,,,,,,,,,,,,,,,15,,,64,0
10979,note_on,,179,0,7,,,,,,,,,,,,,,,2,,,48,0
10979,note_on,,0,0,12,,,,,,,,,,,,,,,15,,,52,0
10979,note_on,,179,0,10,,,,,,,,,,,,,,,12,,,57,0
10980,note_on,,1,0,11,,,,,,,,,,,,,,,13,,,47,72
10980,note_on,,0,0,12,,,,,,,,,,,,,,,15,,,63,72
10980,note_on,,1,0,12,,,,,,,,,,,,,,,15,,,54,72
10980,note_on,,1,0,7,,,,,,,,,,,,,,,2,,,47,72
10980,note_on,,1,0,10,,,,,,,,,,,,,,,12,,,66,72
10980,note_on,,0,0,12,,,,,,,,,,,,,,,15,,,59,72
10980,note_on,,0,0,12,,,,,,,,,,,,,,,15,,,47,72
10980,note_on,,1,0,5,,,,,,,,,,,,,,,0,,,71,72
10980,note_on,,1,0,8,,,,,,,,,,,,,,,10,,,71,72
10980,note_on,,1,0,9,,,,,,,,,,,,,,,11,,,63,72
11039,note_on,,0,0,12,,,,,,,,,,,,,,,15,,,47,0
11039,note_on,,0,0,12,,,,,,,,,,,,,,,15,,,59,0
11039,note_on,,0,0,12,,,,,,,,,,,,,,,15,,,63,0
11039,note_on,,59,0,9,,,,,,,,,,,,,,,11,,,63,0
11039,note_on,,59,0,11,,,,,,,,,,,,,,,13,,,47,0
11039,note_on,,59,0,7,,,,,,,,,,,,,,,2,,,47,0
11039,note_on,,59,0,12,,,,,,,,,,,,,,,15,,,54,0
11039,note_on,,59,0,8,,,,,,,,,,,,,,,10,,,71,0
11039,note_on,,59,0,5,,,,,,,,,,,,,,,0,,,71,0
11039,note_on,,59,0,10,,,,,,,,,,,,,,,12,,,66,0
11040,note_on,,1,0,10,,,,,,,,,,,,,,,12,,,66,72
11040,note_on,,1,0,7,,,,,,,,,,,,,,,2,,,47,72
11040,note_on,,1,0,9,,,,,,,,,,,,,,,11,,,63,72
11040,note_on,,1,0,8,,,,,,,,,,,,,,,10,,,71,72
11040,note_on,,0,0,12,,,,,,,,,,,,,,,15,,,59,72
11040,note_on,,0,0,12,,,,,,,,,,,,,,,15,,,63,72
11040,note_on,,1,0,12,,,,,,,,,,,,,,,15,,,54,72
11040,note_on,,1,0,11,,,,,,,,,,,,,,,13,,,47,72
11040,note_on,,1,0,5,,,,,,,,,,,,,,,0,,,71,72
11040,note_on,,0,0,12,,,,,,,,,,,,,,,15,,,47,72
11519,note_on,,479,0,5,,,,,,,,,,,,,,,0,,,71,0
11519,note_on,,0,0,12,,,,,,,,,,,,,,,15,,,59,0
11519,note_on,,0,0,12,,,,,,,,,,,,,,,15,,,47,0
11519,note_on,,0,0,12,,,,,,,,,,,,,,,15,,,63,0
11519,note_on,,479,0,12,,,,,,,,,,,,,,,15,,,54,0
11519,note_on,,479,0,10,,,,,,,,,,,,,,,12,,,66,0
11519,note_on,,479,0,7,,,,,,,,,,,,,,,2,,,47,0
11519,note_on,,479,0,8,,,,,,,,,,,,,,,10,,,71,0
11519,note_on,,479,0,11,,,,,,,,,,,,,,,13,,,47,0
11519,note_on,,479,0,9,,,,,,,,,,,,,,,11,,,63,0
11520,set_tempo,,11520,1,0,,,,,,,,,352941,,,,,,,,,,
11640,note_on,,121,0,5,,,,,,,,,,,,,,,0,,,83,48
11640,note_on,,121,0,8,,,,,,,,,,,,,,,10,,,83,48
11759,note_on,,119,0,5,,,,,,,,,,,,,,,0,,,83,0
11759,note_on,,119,0,8,,,,,,,,,,,,,,,10,,,83,0
11760,note_on,,1,0,5,,,,,,,,,,,,,,,0,,,79,48
11760,note_on,,1,0,8,,,,,,,,,,,,,,,10,,,79,48
11879,note_on,,119,0,5,,,,,,,,,,,,,,,0,,,79,0
11879,note_on,,119,0,8,,,,,,,,,,,,,,,10,,,79,0
11880,note_on,,1,0,5,,,,,,,,,,,,,,,0,,,78,48
11880,note_on,,1,0,8,,,,,,,,,,,,,,,10,,,78,48
11939,note_on,,59,0,8,,,,,,,,,,,,,,,10,,,78,0
11939,note_on,,59,0,5,,,,,,,,,,,,,,,0,,,78,0
11940,note_on,,1,0,5,,,,,,,,,,,,,,,0,,,76,48
11940,note_on,,1,0,8,,,,,,,,,,,,,,,10,,,76,48
11999,note_on,,59,0,5,,,,,,,,,,,,,,,0,,,76,0
11999,note_on,,59,0,8,,,,,,,,,,,,,,,10,,,76,0
12000,note_on,,1,0,5,,,,,,,,,,,,,,,0,,,78,48
12000,note_on,,1,0,8,,,,,,,,,,,,,,,10,,,78,48
12119,note_on,,119,0,8,,,,,,,,,,,,,,,10,,,78,0
12119,note_on,,119,0,5,,,,,,,,,,,,,,,0,,,78,0
12120,note_on,,1,0,5,,,,,,,,,,,,,,,0,,,71,48
12120,note_on,,1,0,8,,,,,,,,,,,,,,,10,,,71,48
12239,note_on,,119,0,8,,,,,,,,,,,,,,,10,,,71,0
12239,note_on,,119,0,5,,,,,,,,,,,,,,,0,,,71,0
12240,note_on,,1,0,5,,,,,,,,,,,,,,,0,,,78,48
12240,note_on,,1,0,8,,,,,,,,,,,,,,,10,,,78,48
12359,note_on,,119,0,5,,,,,,,,,,,,,,,0,,,78,0
12359,note_on,,119,0,8,,,,,,,,,,,,,,,10,,,78,0
12360,note_on,,1,0,5,,,,,,,,,,,,,,,0,,,80,48
12360,note_on,,1,0,8,,,,,,,,,,,,,,,10,,,80,48
12374,note_on,,14,0,8,,,,,,,,,,,,,,,10,,,80,0
12374,note_on,,14,0,5,,,,,,,,,,,,,,,0,,,80,0
12375,note_on,,1,0,5,,,,,,,,,,,,,,,0,,,81,48
12375,note_on,,1,0,8,,,,,,,,,,,,,,,10,,,81,48
12389,note_on,,14,0,8,,,,,,,,,,,,,,,10,,,81,0
12389,note_on,,14,0,5,,,,,,,,,,,,,,,0,,,81,0
12390,note_on,,1,0,5,,,,,,,,,,,,,,,0,,,80,48
12390,note_on,,1,0,8,,,,,,,,,,,,,,,10,,,80,48
12404,note_on,,14,0,5,,,,,,,,,,,,,,,0,,,80,0
12404,note_on,,14,0,8,,,,,,,,,,,,,,,10,,,80,0
12405,note_on,,1,0,5,,,,,,,,,,,,,,,0,,,81,48
12405,note_on,,1,0,8,,,,,,,,,,,,,,,10,,,81,48
12419,note_on,,14,0,8,,,,,,,,,,,,,,,10,,,81,0
12419,note_on,,14,0,5,,,,,,,,,,,,,,,0,,,81,0
12420,note_on,,1,0,8,,,,,,,,,,,,,,,10,,,80,48
12420,note_on,,1,0,5,,,,,,,,,,,,,,,0,,,80,48
12434,note_on,,14,0,8,,,,,,,,,,,,,,,10,,,80,0
12434,note_on,,14,0,5,,,,,,,,,,,,,,,0,,,80,0
12435,note_on,,1,0,8,,,,,,,,,,,,,,,10,,,81,48
12435,note_on,,1,0,5,,,,,,,,,,,,,,,0,,,81,48
12449,note_on,,14,0,5,,,,,,,,,,,,,,,0,,,81,0
12449,note_on,,14,0,8,,,,,,,,,,,,,,,10,,,81,0
12450,note_on,,1,0,8,,,,,,,,,,,,,,,10,,,78,48
12450,note_on,,1,0,5,,,,,,,,,,,,,,,0,,,78,48
12464,note_on,,14,0,5,,,,,,,,,,,,,,,0,,,78,0
12464,note_on,,14,0,8,,,,,,,,,,,,,,,10,,,78,0
12465,note_on,,1,0,8,,,,,,,,,,,,,,,10,,,80,48
12465,note_on,,1,0,5,,,,,,,,,,,,,,,0,,,80,48
12479,note_on,,14,0,8,,,,,,,,,,,,,,,10,,,80,0
12479,note_on,,14,0,5,,,,,,,,,,,,,,,0,,,80,0
12480,note_on,,1,0,5,,,,,,,,,,,,,,,0,,,81,48
12480,note_on,,1,0,8,,,,,,,,,,,,,,,10,,,81,48
12599,note_on,,119,0,8,,,,,,,,,,,,,,,10,,,81,0
12599,note_on,,119,0,5,,,,,,,,,,,,,,,0,,,81,0
12600,note_on,,1,0,8,,,,,,,,,,,,,,,10,,,76,48
12600,note_on,,1,0,5,,,,,,,,,,,,,,,0,,,76,48
12719,note_on,,119,0,8,,,,,,,,,,,,,,,10,,,76,0
12719,note_on,,119,0,5,,,,,,,,,,,,,,,0,,,76,0
12720,note_on,,1,0,8,,,,,,,,,,,,,,,10,,,81,48
12720,note_on,,1,0,5,,,,,,,,,,,,,,,0,,,81,48
13019,note_on,,299,0,5,,,,,,,,,,,,,,,0,,,81,0
13019,note_on,,299,0,8,,,,,,,,,,,,,,,10,,,81,0
13020,note_on,,1,0,8,,,,,,,,,,,,,,,10,,,83,48
13020,note_on,,1,0,5,,,,,,,,,,,,,,,0,,,83,48
13079,note_on,,59,0,8,,,,,,,,,,,,,,,10,,,83,0
13079,note_on,,59,0,5,,,,,,,,,,,,,,,0,,,83,0
13080,note_on,,1,0,5,,,,,,,,,,,,,,,0,,,79,48
13080,note_on,,1,0,8,,,,,,,,,,,,,,,10,,,79,48
13139,note_on,,59,0,8,,,,,,,,,,,,,,,10,,,79,0
13139,note_on,,59,0,5,,,,,,,,,,,,,,,0,,,79,0
13140,note_on,,1,0,5,,,,,,,,,,,,,,,0,,,81,48
13140,note_on,,1,0,8,,,,,,,,,,,,,,,10,,,81,48
13199,note_on,,59,0,5,,,,,,,,,,,,,,,0,,,81,0
13199,note_on,,59,0,8,,,,,,,,,,,,,,,10,,,81,0
13200,note_on,,1,0,5,,,,,,,,,,,,,,,0,,,78,48
13200,note_on,,1,0,8,,,,,,,,,,,,,,,10,,,78,48
13259,note_on,,59,0,5,,,,,,,,,,,,,,,0,,,78,0
13259,note_on,,59,0,8,,,,,,,,,,,,,,,10,,,78,0
13260,note_on,,1,0,5,,,,,,,,,,,,,,,0,,,83,48
13260,note_on,,1,0,8,,,,,,,,,,,,,,,10,,,83,48
13319,note_on,,59,0,5,,,,,,,,,,,,,,,0,,,83,0
13319,note_on,,59,0,8,,,,,,,,,,,,,,,10,,,83,0
13320,note_on,,1,0,5,,,,,,,,,,,,,,,0,,,81,48
13320,note_on,,1,0,8,,,,,,,,,,,,,,,10,,,81,48
13379,note_on,,59,0,5,,,,,,,,,,,,,,,0,,,81,0
13379,note_on,,59,0,8,,,,,,,,,,,,,,,10,,,81,0
13380,note_on,,1,0,5,,,,,,,,,,,,,,,0,,,83,48
13380,note_on,,1,0,8,,,,,,,,,,,,,,,10,,,83,48
13439,note_on,,59,0,8,,,,,,,,,,,,,,,10,,,83,0
13439,note_on,,59,0,5,,,,,,,,,,,,,,,0,,,83,0
13440,note_on,,1,0,5,,,,,,,,,,,,,,,0,,,79,48
13440,note_on,,1,0,8,,,,,,,,,,,,,,,10,,,79,48
13559,note_on,,119,0,8,,,,,,,,,,,,,,,10,,,79,0
13559,note_on,,119,0,5,,,,,,,,,,,,,,,0,,,79,0
13560,note_on,,1,0,5,,,,,,,,,,,,,,,0,,,76,48
13560,note_on,,2041,0,9,,,,,,,,,,,,,,,11,,,76,48
13560,note_on,,13560,0,6,,,,,,,,,,,,,,,1,,,76,48
13560,note_on,,1,0,8,,,,,,,,,,,,,,,10,,,76,48
13679,note_on,,119,0,5,,,,,,,,,,,,,,,0,,,76,0
13679,note_on,,119,0,9,,,,,,,,,,,,,,,11,,,76,0
13679,note_on,,119,0,8,,,,,,,,,,,,,,,10,,,76,0
13679,note_on,,119,0,6,,,,,,,,,,,,,,,1,,,76,0
13680,note_on,,1,0,9,,,,,,,,,,,,,,,11,,,74,48
13680,note_on,,1,0,5,,,,,,,,,,,,,,,0,,,83,48
13680,note_on,,1,0,8,,,,,,,,,,,,,,,10,,,83,48
13680,note_on,,1,0,6,,,,,,,,,,,,,,,1,,,74,48
13799,note_on,,119,0,9,,,,,,,,,,,,,,,11,,,74,0
13799,note_on,,119,0,6,,,,,,,,,,,,,,,1,,,74,0
13800,note_on,,1,0,6,,,,,,,,,,,,,,,1,,,73,48
13800,note_on,,1,0,9,,,,,,,,,,,,,,,11,,,73,48
13859,note_on,,59,0,9,,,,,,,,,,,,,,,11,,,73,0
13859,note_on,,59,0,6,,,,,,,,,,,,,,,1,,,73,0
13860,note_on,,1,0,6,,,,,,,,,,,,,,,1,,,71,48
13860,note_on,,1,0,9,,,,,,,,,,,,,,,11,,,71,48
13919,note_on,,59,0,6,,,,,,,,,,,,,,,1,,,71,0
13919,note_on,,59,0,9,,,,,,,,,,,,,,,11,,,71,0
13920,note_on,,1,0,9,,,,,,,,,,,,,,,11,,,73,48
13920,note_on,,1,0,6,,,,,,,,,,,,,,,1,,,73,48
14039,note_on,,359,0,5,,,,,,,,,,,,,,,0,,,83,0
14039,note_on,,119,0,6,,,,,,,,,,,,,,,1,,,73,0
14039,note_on,,119,0,9,,,,,,,,,,,,,,,11,,,73,0
14039,note_on,,359,0,8,,,,,,,,,,,,,,,10,,,83,0
14040,note_on,,1,0,5,,,,,,,,,,,,,,,0,,,81,48
14040,note_on,,1,0,6,,,,,,,,,,,,,,,1,,,66,48
14040,note_on,,1,0,9,,,,,,,,,,,,,,,11,,,66,48
14040,note_on,,1,0,8,,,,,,,,,,,,,,,10,,,81,48
14099,note_on,,59,0,5,,,,,,,,,,,,,,,0,,,81,0
14099,note_on,,59,0,8,,,,,,,,,,,,,,,10,,,81,0
14100,note_on,,1,0,5,,,,,,,,,,,,,,,0,,,79,48
14100,note_on,,1,0,8,,,,,,,,,,,,,,,10,,,79,48
14159,note_on,,59,0,5,,,,,,,,,,,,,,,0,,,79,0
14159,note_on,,59,0,8,,,,,,,,,,,,,,,10,,,79,0
14159,note_on,,119,0,6,,,,,,,,,,,,,,,1,,,66,0
14159,note_on,,119,0,9,,,,,,,,,,,,,,,11,,,66,0
14160,note_on,,1,0,5,,,,,,,,,,,,,,,0,,,81,48
14160,note_on,,1,0,8,,,,,,,,,,,,,,,10,,,81,48
14160,note_on,,1,0,9,,,,,,,,,,,,,,,11,,,73,48
14160,note_on,,1,0,6,,,,,,,,,,,,,,,1,,,73,48
14279,note_on,,119,0,5,,,,,,,,,,,,,,,0,,,81,0
14279,note_on,,119,0,8,,,,,,,,,,,,,,,10,,,81,0
14279,note_on,,119,0,9,,,,,,,,,,,,,,,11,,,73,0
14279,note_on,,119,0,6,,,,,,,,,,,,,,,1,,,73,0
14280,note_on,,1,0,6,,,,,,,,,,,,,,,1,,,75,48
14280,note_on,,1,0,5,,,,,,,,,,,,,,,0,,,79,48
14280,note_on,,1,0,9,,,,,,,,,,,,,,,11,,,75,48
14280,note_on,,1,0,8,,,,,,,,,,,,,,,10,,,79,48
14294,note_on,,14,0,6,,,,,,,,,,,,,,,1,,,75,0
14294,note_on,,14,0,9,,,,,,,,,,,,,,,11,,,75,0
14295,note_on,,1,0,9,,,,,,,,,,,,,,,11,,,76,48
14295,note_on,,1,0,6,,,,,,,,,,,,,,,1,,,76,48
14309,note_on,,14,0,6,,,,,,,,,,,,,,,1,,,76,0
14309,note_on,,14,0,9,,,,,,,,,,,,,,,11,,,76,0
14310,note_on,,1,0,9,,,,,,,,,,,,,,,11,,,75,48
14310,note_on,,1,0,6,,,,,,,,,,,,,,,1,,,75,48
14324,note_on,,14,0,9,,,,,,,,,,,,,,,11,,,75,0
14324,note_on,,14,0,6,,,,,,,,,,,,,,,1,,,75,0
14325,note_on,,1,0,9,,,,,,,,,,,,,,,11,,,76,48
14325,note_on,,1,0,6,,,,,,,,,,,,,,,1,,,76,48
14339,note_on,,14,0,9,,,,,,,,,,,,,,,11,,,76,0
14339,note_on,,14,0,6,,,,,,,,,,,,,,,1,,,76,0
14339,note_on,,59,0,5,,,,,,,,,,,,,,,0,,,79,0
14339,note_on,,59,0,8,,,,,,,,,,,,,,,10,,,79,0
14340,note_on,,1,0,9,,,,,,,,,,,,,,,11,,,75,48
14340,note_on,,1,0,6,,,,,,,,,,,,,,,1,,,75,48
14340,note_on,,1,0,8,,,,,,,,,,,,,,,10,,,78,48
14340,note_on,,1,0,5,,,,,,,,,,,,,,,0,,,78,48
14354,note_on,,14,0,6,,,,,,,,,,,,,,,1,,,75,0
14354,note_on,,14,0,9,,,,,,,,,,,,,,,11,,,75,0
14355,note_on,,1,0,6,,,,,,,,,,,,,,,1,,,76,48
14355,note_on,,1,0,9,,,,,,,,,,,,,,,11,,,76,48
14369,note_on,,14,0,9,,,,,,,,,,,,,,,11,,,76,0
14369,note_on,,14,0,6,,,,,,,,,,,,,,,1,,,76,0
14370,note_on,,1,0,9,,,,,,,,,,,,,,,11,,,73,48
14370,note_on,,1,0,6,,,,,,,,,,,,,,,1,,,73,48
14384,note_on,,14,0,9,,,,,,,,,,,,,,,11,,,73,0
14384,note_on,,14,0,6,,,,,,,,,,,,,,,1,,,73,0
14385,note_on,,1,0,9,,,,,,,,,,,,,,,11,,,75,48
14385,note_on,,1,0,6,,,,,,,,,,,,,,,1,,,75,48
14399,note_on,,59,0,8,,,,,,,,,,,,,,,10,,,78,0
14399,note_on,,14,0,9,,,,,,,,,,,,,,,11,,,75,0
14399,note_on,,59,0,5,,,,,,,,,,,,,,,0,,,78,0
14399,note_on,,14,0,6,,,,,,,,,,,,,,,1,,,75,0
14400,note_on,,1,0,9,,,,,,,,,,,,,,,11,,,76,48
14400,note_on,,1,0,6,,,,,,,,,,,,,,,1,,,76,48
14400,note_on,,1,0,5,,,,,,,,,,,,,,,0,,,79,48
14400,note_on,,1,0,8,,,,,,,,,,,,,,,10,,,79,48
14519,note_on,,119,0,9,,,,,,,,,,,,,,,11,,,76,0
14519,note_on,,119,0,6,,,,,,,,,,,,,,,1,,,76,0
14520,note_on,,1,0,9,,,,,,,,,,,,,,,11,,,71,48
14520,note_on,,1,0,6,,,,,,,,,,,,,,,1,,,71,48
14639,note_on,,119,0,6,,,,,,,,,,,,,,,1,,,71,0
14639,note_on,,119,0,9,,,,,,,,,,,,,,,11,,,71,0
14640,note_on,,1,0,6,,,,,,,,,,,,,,,1,,,76,48
14640,note_on,,1,0,9,,,,,,,,,,,,,,,11,,,76,48
14699,note_on,,299,0,8,,,,,,,,,,,,,,,10,,,79,0
14699,note_on,,299,0,5,,,,,,,,,,,,,,,0,,,79,0
14700,note_on,,1,0,5,,,,,,,,,,,,,,,0,,,78,48
14700,note_on,,1,0,8,,,,,,,,,,,,,,,10,,,78,48
14759,note_on,,59,0,5,,,,,,,,,,,,,,,0,,,78,0
14759,note_on,,59,0,8,,,,,,,,,,,,,,,10,,,78,0
14760,note_on,,1,0,5,,,,,,,,,,,,,,,0,,,79,48
14760,note_on,,1,0,8,,,,,,,,,,,,,,,10,,,79,48
14819,note_on,,59,0,5,,,,,,,,,,,,,,,0,,,79,0
14819,note_on,,59,0,8,,,,,,,,,,,,,,,10,,,79,0
14820,note_on,,1,0,8,,,,,,,,,,,,,,,10,,,76,48
14820,note_on,,1,0,5,,,,,,,,,,,,,,,0,,,76,48
14879,note_on,,59,0,8,,,,,,,,,,,,,,,10,,,76,0
14879,note_on,,59,0,5,,,,,,,,,,,,,,,0,,,76,0
14880,note_on,,1,0,5,,,,,,,,,,,,,,,0,,,78,48
14880,note_on,,1,0,8,,,,,,,,,,,,,,,10,,,78,48
14939,note_on,,299,0,9,,,,,,,,,,,,,,,11,,,76,0
14939,note_on,,299,0,6,,,,,,,,,,,,,,,1,,,76,0
14940,note_on,,1,0,9,,,,,,,,,,,,,,,11,,,78,48
14940,note_on,,1,0,6,,,,,,,,,,,,,,,1,,,78,48
14999,note_on,,119,0,5,,,,,,,,,,,,,,,0,,,78,0
14999,note_on,,59,0,6,,,,,,,,,,,,,,,1,,,78,0
14999,note_on,,59,0,9,,,,,,,,,,,,,,,11,,,78,0
14999,note_on,,119,0,8,,,,,,,,,,,,,,,10,,,78,0
15000,note_on,,1,0,5,,,,,,,,,,,,,,,0,,,83,48
15000,note_on,,1,0,9,,,,,,,,,,,,,,,11,,,74,48
15000,note_on,,1,0,8,,,,,,,,,,,,,,,10,,,83,48
15000,note_on,,1,0,6,,,,,,,,,,,,,,,1,,,74,48
15059,note_on,,59,0,6,,,,,,,,,,,,,,,1,,,74,0
15059,note_on,,59,0,9,,,,,,,,,,,,,,,11,,,74,0
15060,note_on,,1,0,6,,,,,,,,,,,,,,,1,,,76,48
15060,note_on,,1,0,9,,,,,,,,,,,,,,,11,,,76,48
15119,note_on,,59,0,6,,,,,,,,,,,,,,,1,,,76,0
15119,note_on,,59,0,9,,,,,,,,,,,,,,,11,,,76,0
15120,note_on,,1,0,6,,,,,,,,,,,,,,,1,,,73,48
15120,note_on,,1,0,9,,,,,,,,,,,,,,,11,,,73,48
15179,note_on,,59,0,9,,,,,,,,,,,,,,,11,,,73,0
15179,note_on,,59,0,6,,,,,,,,,,,,,,,1,,,73,0
15180,note_on,,1,0,9,,,,,,,,,,,,,,,11,,,78,48
15180,note_on,,1,0,6,,,,,,,,,,,,,,,1,,,78,48
15239,note_on,,239,0,8,,,,,,,,,,,,,,,10,,,83,0
15239,note_on,,59,0,9,,,,,,,,,,,,,,,11,,,78,0
15239,note_on,,59,0,6,,,,,,,,,,,,,,,1,,,78,0
15239,note_on,,239,0,5,,,,,,,,,,,,,,,0,,,83,0
15240,note_on,,1,0,8,,,,,,,,,,,,,,,10,,,82,48
15240,note_on,,1,0,9,,,,,,,,,,,,,,,11,,,76,48
15240,note_on,,1,0,5,,,,,,,,,,,,,,,0,,,82,48
15240,note_on,,1,0,6,,,,,,,,,,,,,,,1,,,76,48
15299,note_on,,59,0,9,,,,,,,,,,,,,,,11,,,76,0
15299,note_on,,59,0,6,,,,,,,,,,,,,,,1,,,76,0
15300,note_on,,1,0,9,,,,,,,,,,,,,,,11,,,78,48
15300,note_on,,1,0,6,,,,,,,,,,,,,,,1,,,78,48
15359,note_on,,59,0,9,,,,,,,,,,,,,,,11,,,78,0
15359,note_on,,59,0,6,,,,,,,,,,,,,,,1,,,78,0
15359,note_on,,119,0,8,,,,,,,,,,,,,,,10,,,82,0
15359,note_on,,119,0,5,,,,,,,,,,,,,,,0,,,82,0
15360,note_on,,1,0,5,,,,,,,,,,,,,,,0,,,83,48
15360,note_on,,1,0,6,,,,,,,,,,,,,,,1,,,75,48
15360,note_on,,1,0,9,,,,,,,,,,,,,,,11,,,75,48
15360,note_on,,1,0,8,,,,,,,,,,,,,,,10,,,83,48
15419,note_on,,59,0,5,,,,,,,,,,,,,,,0,,,83,0
15419,note_on,,59,0,8,,,,,,,,,,,,,,,10,,,83,0
15420,note_on,,1,0,5,,,,,,,,,,,,,,,0,,,71,48
15420,note_on,,1,0,8,,,,,,,,,,,,,,,10,,,71,48
15479,note_on,,59,0,5,,,,,,,,,,,,,,,0,,,71,0
15479,note_on,,119,0,6,,,,,,,,,,,,,,,1,,,75,0
15479,note_on,,59,0,8,,,,,,,,,,,,,,,10,,,71,0
15479,note_on,,119,0,9,,,,,,,,,,,,,,,11,,,75,0
15480,note_on,,3961,0,11,,,,,,,,,,,,,,,13,,,59,64
15480,note_on,,1,0,9,,,,,,,,,,,,,,,11,,,66,64
15480,note_on,,3961,0,7,,,,,,,,,,,,,,,2,,,59,64
15480,note_on,,1,0,5,,,,,,,,,,,,,,,0,,,73,64
15480,note_on,,3961,0,12,,,,,,,,,,,,,,,15,,,59,64
15480,note_on,,1,0,8,,,,,,,,,,,,,,,10,,,73,64
15480,note_on,,3961,0,10,,,,,,,,,,,,,,,12,,,71,64
15480,note_on,,1,0,6,,,,,,,,,,,,,,,1,,,66,64
15539,note_on,,59,0,5,,,,,,,,,,,,,,,0,,,73,0
15539,note_on,,59,0,8,,,,,,,,,,,,,,,10,,,73,0
15540,note_on,,1,0,5,,,,,,,,,,,,,,,0,,,75,64
15540,note_on,,1,0,8,,,,,,,,,,,,,,,10,,,75,64
15599,note_on,,119,0,6,,,,,,,,,,,,,,,1,,,66,0
15599,note_on,,59,0,8,,,,,,,,,,,,,,,10,,,75,0
15599,note_on,,119,0,12,,,,,,,,,,,,,,,15,,,59,0
15599,note_on,,119,0,10,,,,,,,,,,,,,,,12,,,71,0
15599,note_on,,119,0,11,,,,,,,,,,,,,,,13,,,59,0
15599,note_on,,59,0,5,,,,,,,,,,,,,,,0,,,75,0
15599,note_on,,119,0,7,,,,,,,,,,,,,,,2,,,59,0
15599,note_on,,119,0,9,,,,,,,,,,,,,,,11,,,66,0
15600,note_on,,1,0,9,,,,,,,,,,,,,,,11,,,71,64
15600,note_on,,1,0,8,,,,,,,,,,,,,,,10,,,76,64
15600,note_on,,1,0,11,,,,,,,,,,,,,,,13,,,55,64
15600,note_on,,1,0,6,,,,,,,,,,,,,,,1,,,71,64
15600,note_on,,1,0,5,,,,,,,,,,,,,,,0,,,76,64
15600,note_on,,0,0,12,,,,,,,,,,,,,,,15,,,64,64
15600,note_on,,0,0,12,,,,,,,,,,,,,,,15,,,59,64
15600,note_on,,1,0,12,,,,,,,,,,,,,,,15,,,55,64
15600,note_on,,1,0,7,,,,,,,,,,,,,,,2,,,55,64
15600,note_on,,1,0,10,,,,,,,,,,,,,,,12,,,59,64
15600,note_on,,0,0,12,,,,,,,,,,,,,,,15,,,71,64
15659,note_on,,59,0,5,,,,,,,,,,,,,,,0,,,76,0
15659,note_on,,59,0,8,,,,,,,,,,,,,,,10,,,76,0
15660,note_on,,1,0,5,,,,,,,,,,,,,,,0,,,64,64
15660,note_on,,1,0,8,,,,,,,,,,,,,,,10,,,64,64
15719,note_on,,119,0,11,,,,,,,,,,,,,,,13,,,55,0
15719,note_on,,59,0,8,,,,,,,,,,,,,,,10,,,64,0
15719,note_on,,59,0,5,,,,,,,,,,,,,,,0,,,64,0
15719,note_on,,119,0,6,,,,,,,,,,,,,,,1,,,71,0
15719,note_on,,119,0,10,,,,,,,,,,,,,,,12,,,59,0
15719,note_on,,119,0,12,,,,,,,,,,,,,,,15,,,55,0
15719,note_on,,119,0,7,,,,,,,,,,,,,,,2,,,55,0
15719,note_on,,119,0,9,,,,,,,,,,,,,,,11,,,71,0
15720,note_on,,1,0,5,,,,,,,,,,,,,,,0,,,76,64
15720,note_on,,1,0,6,,,,,,,,,,,,,,,1,,,69,64
15720,note_on,,1,0,7,,,,,,,,,,,,,,,2,,,54,64
15720,note_on,,1,0,12,,,,,,,,,,,,,,,15,,,54,64
15720,note_on,,1,0,11,,,,,,,,,,,,,,,13,,,54,64
15720,note_on,,1,0,9,,,,,,,,,,,,,,,11,,,69,64
15720,note_on,,1,0,10,,,,,,,,,,,,,,,12,,,71,64
15720,note_on,,1,0,8,,,,,,,,,,,,,,,10,,,76,64
15779,note_on,,59,0,11,,,,,,,,,,,,,,,13,,,54,0
15779,note_on,,59,0,9,,,,,,,,,,,,,,,11,,,69,0
15779,note_on,,59,0,6,,,,,,,,,,,,,,,1,,,69,0
15779,note_on,,59,0,12,,,,,,,,,,,,,,,15,,,54,0
15779,note_on,,59,0,7,,,,,,,,,,,,,,,2,,,54,0
15780,note_on,,1,0,11,,,,,,,,,,,,,,,13,,,52,64
15780,note_on,,1,0,6,,,,,,,,,,,,,,,1,,,67,64
15780,note_on,,1,0,7,,,,,,,,,,,,,,,2,,,52,64
15780,note_on,,1,0,12,,,,,,,,,,,,,,,15,,,52,64
15780,note_on,,1,0,9,,,,,,,,,,,,,,,11,,,67,64
15839,note_on,,59,0,12,,,,,,,,,,,,,,,15,,,59,0
15839,note_on,,59,0,7,,,,,,,,,,,,,,,2,,,52,0
15839,note_on,,119,0,10,,,,,,,,,,,,,,,12,,,71,0
15839,note_on,,0,0,12,,,,,,,,,,,,,,,15,,,71,0
15839,note_on,,0,0,12,,,,,,,,,,,,,,,15,,,52,0
15839,note_on,,59,0,9,,,,,,,,,,,,,,,11,,,67,0
15839,note_on,,59,0,11,,,,,,,,,,,,,,,13,,,52,0
15839,note_on,,0,0,12,,,,,,,,,,,,,,,15,,,64,0
15839,note_on,,59,0,6,,,,,,,,,,,,,,,1,,,67,0
15840,note_on,,1,0,7,,,,,,,,,,,,,,,2,,,54,64
15840,note_on,,1,0,10,,,,,,,,,,,,,,,12,,,69,64
15840,note_on,,1,0,11,,,,,,,,,,,,,,,13,,,54,64
15840,note_on,,0,0,12,,,,,,,,,,,,,,,15,,,57,64
15840,note_on,,0,0,12,,,,,,,,,,,,,,,15,,,64,64
15840,note_on,,0,0,12,,,,,,,,,,,,,,,15,,,66,64
15840,note_on,,1,0,12,,,,,,,,,,,,,,,15,,,54,64
15840,note_on,,1,0,9,,,,,,,,,,,,,,,11,,,69,64
15840,note_on,,1,0,6,,,,,,,,,,,,,,,1,,,69,64
15959,note_on,,119,0,6,,,,,,,,,,,,,,,1,,,69,0
15959,note_on,,119,0,11,,,,,,,,,,,,,,,13,,,54,0
15959,note_on,,239,0,8,,,,,,,,,,,,,,,10,,,76,0
15959,note_on,,119,0,7,,,,,,,,,,,,,,,2,,,54,0
15959,note_on,,119,0,10,,,,,,,,,,,,,,,12,,,69,0
15959,note_on,,239,0,5,,,,,,,,,,,,,,,0,,,76,0
15959,note_on,,119,0,9,,,,,,,,,,,,,,,11,,,69,0
15959,note_on,,119,0,12,,,,,,,,,,,,,,,15,,,54,0
15960,note_on,,1,0,6,,,,,,,,,,,,,,,1,,,66,64
15960,note_on,,1,0,12,,,,,,,,,,,,,,,15,,,47,64
15960,note_on,,1,0,10,,,,,,,,,,,,,,,12,,,71,64
15960,note_on,,1,0,11,,,,,,,,,,,,,,,13,,,47,64
15960,note_on,,1,0,8,,,,,,,,,,,,,,,10,,,74,64
15960,note_on,,1,0,9,,,,,,,,,,,,,,,11,,,66,64
15960,note_on,,1,0,5,,,,,,,,,,,,,,,0,,,74,64
15960,note_on,,1,0,7,,,,,,,,,,,,,,,2,,,47,64
16019,note_on,,59,0,8,,,,,,,,,,,,,,,10,,,74,0
16019,note_on,,59,0,5,,,,,,,,,,,,,,,0,,,74,0
16020,note_on,,1,0,5,,,,,,,,,,,,,,,0,,,72,64
16020,note_on,,1,0,8,,,,,,,,,,,,,,,10,,,72,64
16079,note_on,,59,0,8,,,,,,,,,,,,,,,10,,,72,0
16079,note_on,,119,0,11,,,,,,,,,,,,,,,13,,,47,0
16079,note_on,,59,0,5,,,,,,,,,,,,,,,0,,,72,0
16079,note_on,,119,0,10,,,,,,,,,,,,,,,12,,,71,0
16079,note_on,,119,0,12,,,,,,,,,,,,,,,15,,,64,0
16079,note_on,,0,0,12,,,,,,,,,,,,,,,15,,,57,0
16079,note_on,,0,0,12,,,,,,,,,,,,,,,15,,,47,0
16079,note_on,,119,0,7,,,,,,,,,,,,,,,2,,,47,0
16080,note_on,,1,0,10,,,,,,,,,,,,,,,12,,,69,64
16080,note_on,,0,0,12,,,,,,,,,,,,,,,15,,,62,64
16080,note_on,,1,0,11,,,,,,,,,,,,,,,13,,,54,64
16080,note_on,,0,0,12,,,,,,,,,,,,,,,15,,,57,64
16080,note_on,,1,0,5,,,,,,,,,,,,,,,0,,,74,64
16080,note_on,,1,0,12,,,,,,,,,,,,,,,15,,,54,64
16080,note_on,,1,0,7,,,,,,,,,,,,,,,2,,,54,64
16080,note_on,,1,0,8,,,,,,,,,,,,,,,10,,,74,64
16199,note_on,,119,0,8,,,,,,,,,,,,,,,10,,,74,0
16199,note_on,,239,0,9,,,,,,,,,,,,,,,11,,,66,0
16199,note_on,,239,0,6,,,,,,,,,,,,,,,1,,,66,0
16199,note_on,,119,0,7,,,,,,,,,,,,,,,2,,,54,0
16199,note_on,,0,0,12,,,,,,,,,,,,,,,15,,,57,0
16199,note_on,,119,0,5,,,,,,,,,,,,,,,0,,,74,0
16199,note_on,,119,0,10,,,,,,,,,,,,,,,12,,,69,0
16199,note_on,,119,0,12,,,,,,,,,,,,,,,15,,,66,0
16199,note_on,,0,0,12,,,,,,,,,,,,,,,15,,,54,0
16199,note_on,,119,0,11,,,,,,,,,,,,,,,13,,,54,0
16200,note_on,,1,0,11,,,,,,,,,,,,,,,13,,,56,64
16200,note_on,,1,0,7,,,,,,,,,,,,,,,2,,,56,64
16200,note_on,,1,0,9,,,,,,,,,,,,,,,11,,,64,64
16200,note_on,,1,0,6,,,,,,,,,,,,,,,1,,,64,64
16200,note_on,,1,0,8,,,,,,,,,,,,,,,10,,,72,64
16200,note_on,,0,0,12,,,,,,,,,,,,,,,15,,,64,64
16200,note_on,,1,0,5,,,,,,,,,,,,,,,0,,,72,64
16200,note_on,,0,0,12,,,,,,,,,,,,,,,15,,,59,64
16200,note_on,,1,0,12,,,,,,,,,,,,,,,15,,,56,64
16200,note_on,,1,0,10,,,,,,,,,,,,,,,12,,,64,64
16259,note_on,,59,0,5,,,,,,,,,,,,,,,0,,,72,0
16259,note_on,,59,0,8,,,,,,,,,,,,,,,10,,,72,0
16260,note_on,,1,0,8,,,,,,,,,,,,,,,10,,,71,64
16260,note_on,,1,0,5,,,,,,,,,,,,,,,0,,,71,64
16319,note_on,,119,0,12,,,,,,,,,,,,,,,15,,,62,0
16319,note_on,,0,0,12,,,,,,,,,,,,,,,15,,,64,0
16319,note_on,,119,0,11,,,,,,,,,,,,,,,13,,,56,0
16319,note_on,,119,0,7,,,,,,,,,,,,,,,2,,,56,0
16319,note_on,,0,0,12,,,,,,,,,,,,,,,15,,,59,0
16319,note_on,,119,0,10,,,,,,,,,,,,,,,12,,,64,0
16319,note_on,,119,0,6,,,,,,,,,,,,,,,1,,,64,0
16319,note_on,,0,0,12,,,,,,,,,,,,,,,15,,,56,0
16319,note_on,,59,0,8,,,,,,,,,,,,,,,10,,,71,0
16319,note_on,,59,0,5,,,,,,,,,,,,,,,0,,,71,0
16319,note_on,,119,0,9,,,,,,,,,,,,,,,11,,,64,0
16320,note_on,,1,0,5,,,,,,,,,,,,,,,0,,,72,64
16320,note_on,,0,0,12,,,,,,,,,,,,,,,15,,,60,64
16320,note_on,,0,0,12,,,,,,,,,,,,,,,15,,,64,64
16320,note_on,,1,0,12,,,,,,,,,,,,,,,15,,,57,64
16320,note_on,,1,0,8,,,,,,,,,,,,,,,10,,,72,64
16320,note_on,,1,0,9,,,,,,,,,,,,,,,11,,,64,64
16320,note_on,,1,0,10,,,,,,,,,,,,,,,12,,,64,64
16320,note_on,,1,0,11,,,,,,,,,,,,,,,13,,,57,64
16320,note_on,,1,0,7,,,,,,,,,,,,,,,2,,,57,64
16320,note_on,,1,0,6,,,,,,,,,,,,,,,1,,,64,64
16439,note_on,,119,0,9,,,,,,,,,,,,,,,11,,,64,0
16439,note_on,,119,0,7,,,,,,,,,,,,,,,2,,,57,0
16439,note_on,,119,0,12,,,,,,,,,,,,,,,15,,,57,0
16439,note_on,,119,0,11,,,,,,,,,,,,,,,13,,,57,0
16439,note_on,,119,0,6,,,,,,,,,,,,,,,1,,,64,0
16440,note_on,,1,0,7,,,,,,,,,,,,,,,2,,,52,64
16440,note_on,,1,0,12,,,,,,,,,,,,,,,15,,,52,64
16440,note_on,,1,0,11,,,,,,,,,,,,,,,13,,,52,64
16440,note_on,,1,0,9,,,,,,,,,,,,,,,11,,,68,64
16440,note_on,,1,0,6,,,,,,,,,,,,,,,1,,,68,64
16499,note_on,,179,0,8,,,,,,,,,,,,,,,10,,,72,0
16499,note_on,,179,0,5,,,,,,,,,,,,,,,0,,,72,0
16499,note_on,,179,0,10,,,,,,,,,,,,,,,12,,,64,0
16500,note_on,,1,0,8,,,,,,,,,,,,,,,10,,,71,64
16500,note_on,,1,0,5,,,,,,,,,,,,,,,0,,,71,64
16500,note_on,,1,0,10,,,,,,,,,,,,,,,12,,,62,64
16559,note_on,,0,0,12,,,,,,,,,,,,,,,15,,,60,0
16559,note_on,,119,0,7,,,,,,,,,,,,,,,2,,,52,0
16559,note_on,,0,0,12,,,,,,,,,,,,,,,15,,,52,0
16559,note_on,,119,0,9,,,,,,,,,,,,,,,11,,,68,0
16559,note_on,,59,0,8,,,,,,,,,,,,,,,10,,,71,0
16559,note_on,,119,0,12,,,,,,,,,,,,,,,15,,,64,0
16559,note_on,,59,0,10,,,,,,,,,,,,,,,12,,,62,0
16559,note_on,,119,0,6,,,,,,,,,,,,,,,1,,,68,0
16559,note_on,,59,0,5,,,,,,,,,,,,,,,0,,,71,0
16559,note_on,,119,0,11,,,,,,,,,,,,,,,13,,,52,0
16560,note_on,,1,0,5,,,,,,,,,,,,,,,0,,,69,64
16560,note_on,,1,0,10,,,,,,,,,,,,,,,12,,,60,64
16560,note_on,,1,0,6,,,,,,,,,,,,,,,1,,,69,64
16560,note_on,,1,0,7,,,,,,,,,,,,,,,2,,,57,64
16560,note_on,,0,0,12,,,,,,,,,,,,,,,15,,,64,64
16560,note_on,,0,0,12,,,,,,,,,,,,,,,15,,,72,64
16560,note_on,,0,0,12,,,,,,,,,,,,,,,15,,,76,64
16560,note_on,,1,0,9,,,,,,,,,,,,,,,11,,,69,64
16560,note_on,,1,0,12,,,,,,,,,,,,,,,15,,,57,64
16560,note_on,,1,0,11,,,,,,,,,,,,,,,13,,,57,64
16560,note_on,,1,0,8,,,,,,,,,,,,,,,10,,,69,64
16619,note_on,,59,0,6,,,,,,,,,,,,,,,1,,,69,0
16619,note_on,,59,0,9,,,,,,,,,,,,,,,11,,,69,0
16619,note_on,,59,0,8,,,,,,,,,,,,,,,10,,,69,0
16619,note_on,,59,0,5,,,,,,,,,,,,,,,0,,,69,0
16619,note_on,,59,0,10,,,,,,,,,,,,,,,12,,,60,0
16620,note_on,,1,0,9,,,,,,,,,,,,,,,11,,,71,64
16620,note_on,,1,0,5,,,,,,,,,,,,,,,0,,,67,64
16620,note_on,,1,0,8,,,,,,,,,,,,,,,10,,,67,64
16620,note_on,,1,0,6,,,,,,,,,,,,,,,1,,,71,64
16620,note_on,,1,0,10,,,,,,,,,,,,,,,12,,,59,64
16679,note_on,,59,0,6,,,,,,,,,,,,,,,1,,,71,0
16679,note_on,,59,0,5,,,,,,,,,,,,,,,0,,,67,0
16679,note_on,,59,0,9,,,,,,,,,,,,,,,11,,,71,0
16679,note_on,,59,0,10,,,,,,,,,,,,,,,12,,,59,0
16679,note_on,,59,0,8,,,,,,,,,,,,,,,10,,,67,0
16680,note_on,,1,0,8,,,,,,,,,,,,,,,10,,,66,64
16680,note_on,,1,0,10,,,,,,,,,,,,,,,12,,,57,64
16680,note_on,,1,0,9,,,,,,,,,,,,,,,11,,,72,64
16680,note_on,,1,0,6,,,,,,,,,,,,,,,1,,,72,64
16680,note_on,,1,0,5,,,,,,,,,,,,,,,0,,,66,64
16739,note_on,,59,0,5,,,,,,,,,,,,,,,0,,,66,0
16739,note_on,,59,0,8,,,,,,,,,,,,,,,10,,,66,0
16740,note_on,,1,0,5,,,,,,,,,,,,,,,0,,,64,64
16740,note_on,,1,0,8,,,,,,,,,,,,,,,10,,,64,64
16799,note_on,,0,0,12,,,,,,,,,,,,,,,15,,,64,0
16799,note_on,,239,0,12,,,,,,,,,,,,,,,15,,,76,0
16799,note_on,,119,0,10,,,,,,,,,,,,,,,12,,,57,0
16799,note_on,,119,0,6,,,,,,,,,,,,,,,1,,,72,0
16799,note_on,,0,0,12,,,,,,,,,,,,,,,15,,,72,0
16799,note_on,,59,0,5,,,,,,,,,,,,,,,0,,,64,0
16799,note_on,,119,0,9,,,,,,,,,,,,,,,11,,,72,0
16799,note_on,,59,0,8,,,,,,,,,,,,,,,10,,,64,0
16800,note_on,,1,0,9,,,,,,,,,,,,,,,11,,,71,64
16800,note_on,,1,0,12,,,,,,,,,,,,,,,15,,,71,64
16800,note_on,,0,0,12,,,,,,,,,,,,,,,15,,,66,64
16800,note_on,,0,0,12,,,,,,,,,,,,,,,15,,,63,64
16800,note_on,,1,0,8,,,,,,,,,,,,,,,10,,,75,64
16800,note_on,,1,0,6,,,,,,,,,,,,,,,1,,,71,64
16800,note_on,,1,0,10,,,,,,,,,,,,,,,12,,,66,64
16800,note_on,,1,0,5,,,,,,,,,,,,,,,0,,,75,64
16859,note_on,,299,0,11,,,,,,,,,,,,,,,13,,,57,0
16859,note_on,,299,0,7,,,,,,,,,,,,,,,2,,,57,0
16859,note_on,,59,0,12,,,,,,,,,,,,,,,15,,,57,0
16860,note_on,,1,0,12,,,,,,,,,,,,,,,15,,,59,64
16860,note_on,,1,0,7,,,,,,,,,,,,,,,2,,,59,64
16860,note_on,,1,0,11,,,,,,,,,,,,,,,13,,,59,64
16919,note_on,,119,0,5,,,,,,,,,,,,,,,0,,,75,0
16919,note_on,,59,0,12,,,,,,,,,,,,,,,15,,,71,0
16919,note_on,,0,0,12,,,,,,,,,,,,,,,15,,,66,0
16919,note_on,,0,0,12,,,,,,,,,,,,,,,15,,,63,0
16919,note_on,,119,0,10,,,,,,,,,,,,,,,12,,,66,0
16919,note_on,,59,0,7,,,,,,,,,,,,,,,2,,,59,0
16919,note_on,,59,0,11,,,,,,,,,,,,,,,13,,,59,0
16919,note_on,,119,0,8,,,,,,,,,,,,,,,10,,,75,0
16919,note_on,,0,0,12,,,,,,,,,,,,,,,15,,,59,0
16920,note_on,,0,0,12,,,,,,,,,,,,,,,15,,,64,64
16920,note_on,,1,0,7,,,,,,,,,,,,,,,2,,,55,64
16920,note_on,,1,0,5,,,,,,,,,,,,,,,0,,,76,64
16920,note_on,,1,0,10,,,,,,,,,,,,,,,12,,,64,64
16920,note_on,,1,0,11,,,,,,,,,,,,,,,13,,,55,64
16920,note_on,,1,0,8,,,,,,,,,,,,,,,10,,,76,64
16920,note_on,,1,0,12,,,,,,,,,,,,,,,15,,,55,64
16979,note_on,,59,0,11,,,,,,,,,,,,,,,13,,,55,0
16979,note_on,,179,0,6,,,,,,,,,,,,,,,1,,,71,0
16979,note_on,,59,0,12,,,,,,,,,,,,,,,15,,,55,0
16979,note_on,,179,0,9,,,,,,,,,,,,,,,11,,,71,0
16979,note_on,,59,0,7,,,,,,,,,,,,,,,2,,,55,0
16980,note_on,,1,0,12,,,,,,,,,,,,,,,15,,,57,64
16980,note_on,,1,0,6,,,,,,,,,,,,,,,1,,,72,64
16980,note_on,,1,0,11,,,,,,,,,,,,,,,13,,,57,64
16980,note_on,,1,0,9,,,,,,,,,,,,,,,11,,,72,64
16980,note_on,,1,0,7,,,,,,,,,,,,,,,2,,,57,64
17039,note_on,,119,0,10,,,,,,,,,,,,,,,12,,,64,0
17039,note_on,,59,0,11,,,,,,,,,,,,,,,13,,,57,0
17039,note_on,,59,0,9,,,,,,,,,,,,,,,11,,,72,0
17039,note_on,,59,0,7,,,,,,,,,,,,,,,2,,,57,0
17039,note_on,,59,0,6,,,,,,,,,,,,,,,1,,,72,0
17039,note_on,,59,0,12,,,,,,,,,,,,,,,15,,,57,0
17040,note_on,,1,0,10,,,,,,,,,,,,,,,12,,,66,64
17040,note_on,,1,0,11,,,,,,,,,,,,,,,13,,,54,64
17040,note_on,,1,0,7,,,,,,,,,,,,,,,2,,,54,64
17040,note_on,,1,0,9,,,,,,,,,,,,,,,11,,,69,64
17040,note_on,,1,0,12,,,,,,,,,,,,,,,15,,,54,64
17040,note_on,,0,0,12,,,,,,,,,,,,,,,15,,,66,64
17040,note_on,,1,0,6,,,,,,,,,,,,,,,1,,,69,64
17099,note_on,,59,0,7,,,,,,,,,,,,,,,2,,,54,0
17099,note_on,,59,0,11,,,,,,,,,,,,,,,13,,,54,0
17099,note_on,,59,0,12,,,,,,,,,,,,,,,15,,,54,0
17100,note_on,,1,0,12,,,,,,,,,,,,,,,15,,,59,64
17100,note_on,,1,0,11,,,,,,,,,,,,,,,13,,,59,64
17100,note_on,,1,0,7,,,,,,,,,,,,,,,2,,,59,64
17159,note_on,,239,0,5,,,,,,,,,,,,,,,0,,,76,0
17159,note_on,,0,0,12,,,,,,,,,,,,,,,15,,,59,0
17159,note_on,,59,0,7,,,,,,,,,,,,,,,2,,,59,0
17159,note_on,,119,0,9,,,,,,,,,,,,,,,11,,,69,0
17159,note_on,,119,0,6,,,,,,,,,,,,,,,1,,,69,0
17159,note_on,,239,0,8,,,,,,,,,,,,,,,10,,,76,0
17159,note_on,,59,0,12,,,,,,,,,,,,,,,15,,,64,0
17159,note_on,,59,0,11,,,,,,,,,,,,,,,13,,,59,0
17160,note_on,,1,0,5,,,,,,,,,,,,,,,0,,,75,64
17160,note_on,,1,0,6,,,,,,,,,,,,,,,1,,,66,64
17160,note_on,,1,0,11,,,,,,,,,,,,,,,13,,,57,64
17160,note_on,,1,0,8,,,,,,,,,,,,,,,10,,,75,64
17160,note_on,,1,0,9,,,,,,,,,,,,,,,11,,,66,64
17160,note_on,,1,0,12,,,,,,,,,,,,,,,15,,,62,64
17160,note_on,,0,0,12,,,,,,,,,,,,,,,15,,,57,64
17160,note_on,,1,0,7,,,,,,,,,,,,,,,2,,,57,64
17219,note_on,,59,0,11,,,,,,,,,,,,,,,13,,,57,0
17219,note_on,,59,0,7,,,,,,,,,,,,,,,2,,,57,0
17219,note_on,,59,0,12,,,,,,,,,,,,,,,15,,,57,0
17219,note_on,,179,0,10,,,,,,,,,,,,,,,12,,,66,0
17220,note_on,,1,0,10,,,,,,,,,,,,,,,12,,,59,64
17220,note_on,,1,0,7,,,,,,,,,,,,,,,2,,,59,64
17220,note_on,,1,0,12,,,,,,,,,,,,,,,15,,,59,64
17220,note_on,,1,0,11,,,,,,,,,,,,,,,13,,,59,64
17279,note_on,,59,0,10,,,,,,,,,,,,,,,12,,,59,0
17279,note_on,,119,0,9,,,,,,,,,,,,,,,11,,,66,0
17279,note_on,,119,0,5,,,,,,,,,,,,,,,0,,,75,0
17279,note_on,,119,0,8,,,,,,,,,,,,,,,10,,,75,0
17279,note_on,,59,0,11,,,,,,,,,,,,,,,13,,,59,0
17279,note_on,,59,0,7,,,,,,,,,,,,,,,2,,,59,0
17279,note_on,,0,0,12,,,,,,,,,,,,,,,15,,,59,0
17279,note_on,,0,0,12,,,,,,,,,,,,,,,15,,,62,0
17279,note_on,,59,0,12,,,,,,,,,,,,,,,15,,,66,0
17279,note_on,,119,0,6,,,,,,,,,,,,,,,1,,,66,0
17280,note_on,,1,0,6,,,,,,,,,,,,,,,1,,,71,64
17280,note_on,,1,0,8,,,,,,,,,,,,,,,10,,,76,64
17280,note_on,,1,0,9,,,,,,,,,,,,,,,11,,,71,64
17280,note_on,,1,0,7,,,,,,,,,,,,,,,2,,,55,64
17280,note_on,,1,0,10,,,,,,,,,,,,,,,12,,,55,64
17280,note_on,,1,0,5,,,,,,,,,,,,,,,0,,,76,64
17280,note_on,,0,0,12,,,,,,,,,,,,,,,15,,,59,64
17280,note_on,,0,0,12,,,,,,,,,,,,,,,15,,,64,64
17280,note_on,,1,0,12,,,,,,,,,,,,,,,15,,,55,64
17280,note_on,,1,0,11,,,,,,,,,,,,,,,13,,,55,64
17399,note_on,,119,0,10,,,,,,,,,,,,,,,12,,,55,0
17399,note_on,,119,0,7,,,,,,,,,,,,,,,2,,,55,0
17399,note_on,,119,0,11,,,,,,,,,,,,,,,13,,,55,0
17399,note_on,,119,0,9,,,,,,,,,,,,,,,11,,,71,0
17399,note_on,,119,0,8,,,,,,,,,,,,,,,10,,,76,0
17399,note_on,,119,0,12,,,,,,,,,,,,,,,15,,,55,0
17399,note_on,,119,0,5,,,,,,,,,,,,,,,0,,,76,0
17399,note_on,,119,0,6,,,,,,,,,,,,,,,1,,,71,0
17400,note_on,,1,0,7,,,,,,,,,,,,,,,2,,,52,64
17400,note_on,,1,0,12,,,,,,,,,,,,,,,15,,,52,64
17400,note_on,,1,0,10,,,,,,,,,,,,,,,12,,,52,64
17400,note_on,,1,0,11,,,,,,,,,,,,,,,13,,,52,64
17400,note_on,,1,0,6,,,,,,,,,,,,,,,1,,,67,64
17400,note_on,,1,0,8,,,,,,,,,,,,,,,10,,,71,64
17400,note_on,,1,0,5,,,,,,,,,,,,,,,0,,,71,64
17400,note_on,,1,0,9,,,,,,,,,,,,,,,11,,,67,64
17519,note_on,,119,0,11,,,,,,,,,,,,,,,13,,,52,0
17519,note_on,,0,0,12,,,,,,,,,,,,,,,15,,,52,0
17519,note_on,,0,0,12,,,,,,,,,,,,,,,15,,,59,0
17519,note_on,,119,0,10,,,,,,,,,,,,,,,12,,,52,0
17519,note_on,,119,0,12,,,,,,,,,,,,,,,15,,,64,0
17519,note_on,,119,0,7,,,,,,,,,,,,,,,2,,,52,0
17519,note_on,,119,0,5,,,,,,,,,,,,,,,0,,,71,0
17519,note_on,,119,0,8,,,,,,,,,,,,,,,10,,,71,0
17520,note_on,,1,0,12,,,,,,,,,,,,,,,15,,,64,64
17520,note_on,,0,0,12,,,,,,,,,,,,,,,15,,,67,64
17520,note_on,,1,0,11,,,,,,,,,,,,,,,13,,,64,64
17520,note_on,,1,0,7,,,,,,,,,,,,,,,2,,,64,64
17520,note_on,,1,0,10,,,,,,,,,,,,,,,12,,,64,64
17579,note_on,,179,0,9,,,,,,,,,,,,,,,11,,,67,0
17579,note_on,,179,0,6,,,,,,,,,,,,,,,1,,,67,0
17580,note_on,,1,0,9,,,,,,,,,,,,,,,11,,,64,64
17580,note_on,,1,0,6,,,,,,,,,,,,,,,1,,,64,64
17639,note_on,,59,0,6,,,,,,,,,,,,,,,1,,,64,0
17639,note_on,,59,0,9,,,,,,,,,,,,,,,11,,,64,0
17640,note_on,,1,0,6,,,,,,,,,,,,,,,1,,,66,64
17640,note_on,,1,0,9,,,,,,,,,,,,,,,11,,,66,64
17699,note_on,,59,0,9,,,,,,,,,,,,,,,11,,,66,0
17699,note_on,,59,0,6,,,,,,,,,,,,,,,1,,,66,0
17700,note_on,,1,0,9,,,,,,,,,,,,,,,11,,,67,64
17700,note_on,,1,0,6,,,,,,,,,,,,,,,1,,,67,64
17759,note_on,,239,0,12,,,,,,,,,,,,,,,15,,,67,0
17759,note_on,,59,0,6,,,,,,,,,,,,,,,1,,,67,0
17759,note_on,,59,0,9,,,,,,,,,,,,,,,11,,,67,0
17760,note_on,,1,0,9,,,,,,,,,,,,,,,11,,,69,64
17760,note_on,,1,0,6,,,,,,,,,,,,,,,1,,,69,64
17819,note_on,,59,0,6,,,,,,,,,,,,,,,1,,,69,0
17819,note_on,,59,0,9,,,,,,,,,,,,,,,11,,,69,0
17820,note_on,,1,0,6,,,,,,,,,,,,,,,1,,,71,64
17820,note_on,,1,0,9,,,,,,,,,,,,,,,11,,,71,64
17879,note_on,,59,0,6,,,,,,,,,,,,,,,1,,,71,0
17879,note_on,,59,0,9,,,,,,,,,,,,,,,11,,,71,0
17880,note_on,,1,0,9,,,,,,,,,,,,,,,11,,,67,64
17880,note_on,,1,0,6,,,,,,,,,,,,,,,1,,,67,64
17939,note_on,,59,0,9,,,,,,,,,,,,,,,11,,,67,0
17939,note_on,,59,0,6,,,,,,,,,,,,,,,1,,,67,0
17940,note_on,,1,0,9,,,,,,,,,,,,,,,11,,,69,64
17940,note_on,,1,0,6,,,,,,,,,,,,,,,1,,,69,64
17999,note_on,,479,0,11,,,,,,,,,,,,,,,13,,,64,0
17999,note_on,,59,0,9,,,,,,,,,,,,,,,11,,,69,0
17999,note_on,,479,0,10,,,,,,,,,,,,,,,12,,,64,0
17999,note_on,,59,0,6,,,,,,,,,,,,,,,1,,,69,0
17999,note_on,,479,0,7,,,,,,,,,,,,,,,2,,,64,0
17999,note_on,,240,0,12,,,,,,,,,,,,,,,15,,,64,0
18000,note_on,,1,0,9,,,,,,,,,,,,,,,11,,,66,64
18000,note_on,,1,0,12,,,,,,,,,,,,,,,15,,,63,64
18000,note_on,,1,0,7,,,,,,,,,,,,,,,2,,,63,64
18000,note_on,,1,0,6,,,,,,,,,,,,,,,1,,,66,64
18000,note_on,,1,0,10,,,,,,,,,,,,,,,12,,,63,64
18000,note_on,,1,0,11,,,,,,,,,,,,,,,13,,,63,64
18059,note_on,,59,0,6,,,,,,,,,,,,,,,1,,,66,0
18059,note_on,,59,0,9,,,,,,,,,,,,,,,11,,,66,0
18060,note_on,,1,0,6,,,,,,,,,,,,,,,1,,,71,64
18060,note_on,,1,0,9,,,,,,,,,,,,,,,11,,,71,64
18119,note_on,,59,0,6,,,,,,,,,,,,,,,1,,,71,0
18119,note_on,,59,0,9,,,,,,,,,,,,,,,11,,,71,0
18120,note_on,,1,0,6,,,,,,,,,,,,,,,1,,,69,64
18120,note_on,,1,0,9,,,,,,,,,,,,,,,11,,,69,64
18179,note_on,,59,0,9,,,,,,,,,,,,,,,11,,,69,0
18179,note_on,,59,0,6,,,,,,,,,,,,,,,1,,,69,0
18180,note_on,,1,0,6,,,,,,,,,,,,,,,1,,,71,64
18180,note_on,,1,0,9,,,,,,,,,,,,,,,11,,,71,64
18239,note_on,,239,0,10,,,,,,,,,,,,,,,12,,,63,0
18239,note_on,,239,0,7,,,,,,,,,,,,,,,2,,,63,0
18239,note_on,,59,0,6,,,,,,,,,,,,,,,1,,,71,0
18239,note_on,,239,0,12,,,,,,,,,,,,,,,15,,,63,0
18239,note_on,,239,0,11,,,,,,,,,,,,,,,13,,,63,0
18239,note_on,,59,0,9,,,,,,,,,,,,,,,11,,,71,0
18240,note_on,,1,0,12,,,,,,,,,,,,,,,15,,,64,64
18240,note_on,,0,0,12,,,,,,,,,,,,,,,15,,,66,64
18240,note_on,,1,0,9,,,,,,,,,,,,,,,11,,,67,64
18240,note_on,,1,0,7,,,,,,,,,,,,,,,2,,,64,64
18240,note_on,,1,0,10,,,,,,,,,,,,,,,12,,,64,64
18240,note_on,,1,0,6,,,,,,,,,,,,,,,1,,,67,64
18240,note_on,,0,0,12,,,,,,,,,,,,,,,15,,,69,64
18240,note_on,,1,0,11,,,,,,,,,,,,,,,13,,,64,64
18359,note_on,,119,0,9,,,,,,,,,,,,,,,11,,,67,0
18359,note_on,,119,0,10,,,,,,,,,,,,,,,12,,,64,0
18359,note_on,,119,0,6,,,,,,,,,,,,,,,1,,,67,0
18360,note_on,,1,0,6,,,,,,,,,,,,,,,1,,,64,64
18360,note_on,,1,0,10,,,,,,,,,,,,,,,12,,,67,64
18360,note_on,,1,0,9,,,,,,,,,,,,,,,11,,,64,64
18419,note_on,,59,0,6,,,,,,,,,,,,,,,1,,,64,0
18419,note_on,,59,0,9,,,,,,,,,,,,,,,11,,,64,0
18419,note_on,,59,0,10,,,,,,,,,,,,,,,12,,,67,0
18420,note_on,,1,0,6,,,,,,,,,,,,,,,1,,,66,64
18420,note_on,,1,0,10,,,,,,,,,,,,,,,12,,,66,64
18420,note_on,,1,0,9,,,,,,,,,,,,,,,11,,,66,64
18479,note_on,,239,0,11,,,,,,,,,,,,,,,13,,,64,0
18479,note_on,,59,0,10,,,,,,,,,,,,,,,12,,,66,0
18479,note_on,,59,0,6,,,,,,,,,,,,,,,1,,,66,0
18479,note_on,,59,0,9,,,,,,,,,,,,,,,11,,,66,0
18479,note_on,,239,0,12,,,,,,,,,,,,,,,15,,,64,0
18479,note_on,,0,0,12,,,,,,,,,,,,,,,15,,,69,0
18479,note_on,,0,0,12,,,,,,,,,,,,,,,15,,,66,0
18479,note_on,,239,0,7,,,,,,,,,,,,,,,2,,,64,0
18480,note_on,,1,0,6,,,,,,,,,,,,,,,1,,,67,64
18480,note_on,,0,0,12,,,,,,,,,,,,,,,15,,,66,64
18480,note_on,,1,0,12,,,,,,,,,,,,,,,15,,,71,64
18480,note_on,,1,0,9,,,,,,,,,,,,,,,11,,,67,64
18480,note_on,,1,0,10,,,,,,,,,,,,,,,12,,,67,64
18540,note_on,,1021,0,8,,,,,,,,,,,,,,,10,,,67,64
18540,note_on,,1021,0,5,,,,,,,,,,,,,,,0,,,67,64
18599,note_on,,59,0,8,,,,,,,,,,,,,,,10,,,67,0
18599,note_on,,59,0,5,,,,,,,,,,,,,,,0,,,67,0
18600,note_on,,1,0,8,,,,,,,,,,,,,,,10,,,69,64
18600,note_on,,1,0,5,,,,,,,,,,,,,,,0,,,69,64
18659,note_on,,59,0,5,,,,,,,,,,,,,,,0,,,69,0
18659,note_on,,59,0,8,,,,,,,,,,,,,,,10,,,69,0
18660,note_on,,1,0,5,,,,,,,,,,,,,,,0,,,71,64
18660,note_on,,1,0,8,,,,,,,,,,,,,,,10,,,71,64
18719,note_on,,59,0,5,,,,,,,,,,,,,,,0,,,71,0
18719,note_on,,239,0,12,,,,,,,,,,,,,,,15,,,71,0
18719,note_on,,0,0,12,,,,,,,,,,,,,,,15,,,66,0
18719,note_on,,59,0,8,,,,,,,,,,,,,,,10,,,71,0
18720,note_on,,1,0,12,,,,,,,,,,,,,,,15,,,71,64
18720,note_on,,0,0,12,,,,,,,,,,,,,,,15,,,67,64
18720,note_on,,1,0,8,,,,,,,,,,,,,,,10,,,72,64
18720,note_on,,1,0,5,,,,,,,,,,,,,,,0,,,72,64
18779,note_on,,59,0,5,,,,,,,,,,,,,,,0,,,72,0
18779,note_on,,59,0,8,,,,,,,,,,,,,,,10,,,72,0
18780,note_on,,1,0,5,,,,,,,,,,,,,,,0,,,74,64
18780,note_on,,1,0,8,,,,,,,,,,,,,,,10,,,74,64
18839,note_on,,59,0,8,,,,,,,,,,,,,,,10,,,74,0
18839,note_on,,59,0,5,,,,,,,,,,,,,,,0,,,74,0
18840,note_on,,1,0,5,,,,,,,,,,,,,,,0,,,71,64
18840,note_on,,1,0,8,,,,,,,,,,,,,,,10,,,71,64
18899,note_on,,59,0,8,,,,,,,,,,,,,,,10,,,71,0
18899,note_on,,59,0,5,,,,,,,,,,,,,,,0,,,71,0
18900,note_on,,1,0,8,,,,,,,,,,,,,,,10,,,72,64
18900,note_on,,1,0,5,,,,,,,,,,,,,,,0,,,72,64
18959,note_on,,59,0,8,,,,,,,,,,,,,,,10,,,72,0
18959,note_on,,59,0,5,,,,,,,,,,,,,,,0,,,72,0
18959,note_on,,0,0,12,,,,,,,,,,,,,,,15,,,67,0
18959,note_on,,239,0,12,,,,,,,,,,,,,,,15,,,71,0
18959,note_on,,479,0,9,,,,,,,,,,,,,,,11,,,67,0
18959,note_on,,479,0,6,,,,,,,,,,,,,,,1,,,67,0
18959,note_on,,479,0,10,,,,,,,,,,,,,,,12,,,67,0
18960,note_on,,1,0,8,,,,,,,,,,,,,,,10,,,69,64
18960,note_on,,1,0,5,,,,,,,,,,,,,,,0,,,69,64
18960,note_on,,1,0,6,,,,,,,,,,,,,,,1,,,66,64
18960,note_on,,1,0,9,,,,,,,,,,,,,,,11,,,66,64
18960,note_on,,1,0,10,,,,,,,,,,,,,,,12,,,66,64
19019,note_on,,59,0,5,,,,,,,,,,,,,,,0,,,69,0
19019,note_on,,59,0,8,,,,,,,,,,,,,,,10,,,69,0
19020,note_on,,1,0,5,,,,,,,,,,,,,,,0,,,74,64
19020,note_on,,1,0,8,,,,,,,,,,,,,,,10,,,74,64
19079,note_on,,59,0,5,,,,,,,,,,,,,,,0,,,74,0
19079,note_on,,59,0,8,,,,,,,,,,,,,,,10,,,74,0
19080,note_on,,1,0,5,,,,,,,,,,,,,,,0,,,72,64
19080,note_on,,1,0,8,,,,,,,,,,,,,,,10,,,72,64
19139,note_on,,59,0,8,,,,,,,,,,,,,,,10,,,72,0
19139,note_on,,59,0,5,,,,,,,,,,,,,,,0,,,72,0
19140,note_on,,1,0,5,,,,,,,,,,,,,,,0,,,74,64
19140,note_on,,1,0,8,,,,,,,,,,,,,,,10,,,74,64
19199,note_on,,239,0,10,,,,,,,,,,,,,,,12,,,66,0
19199,note_on,,59,0,8,,,,,,,,,,,,,,,10,,,74,0
19199,note_on,,239,0,9,,,,,,,,,,,,,,,11,,,66,0
19199,note_on,,59,0,5,,,,,,,,,,,,,,,0,,,74,0
19199,note_on,,239,0,6,,,,,,,,,,,,,,,1,,,66,0
19200,note_on,,1,0,10,,,,,,,,,,,,,,,12,,,67,64
19200,note_on,,1,0,9,,,,,,,,,,,,,,,11,,,67,64
19200,note_on,,1,0,8,,,,,,,,,,,,,,,10,,,71,64
19200,note_on,,1,0,6,,,,,,,,,,,,,,,1,,,67,64
19200,note_on,,1,0,5,,,,,,,,,,,,,,,0,,,71,64
19319,note_on,,119,0,9,,,,,,,,,,,,,,,11,,,67,0
19319,note_on,,119,0,8,,,,,,,,,,,,,,,10,,,71,0
19319,note_on,,119,0,10,,,,,,,,,,,,,,,12,,,67,0
19319,note_on,,119,0,6,,,,,,,,,,,,,,,1,,,67,0
19319,note_on,,119,0,5,,,,,,,,,,,,,,,0,,,71,0
19320,note_on,,1,0,8,,,,,,,,,,,,,,,10,,,67,64
19320,note_on,,1,0,10,,,,,,,,,,,,,,,12,,,71,64
19320,note_on,,1,0,6,,,,,,,,,,,,,,,1,,,74,64
19320,note_on,,1,0,5,,,,,,,,,,,,,,,0,,,67,64
19320,note_on,,1,0,9,,,,,,,,,,,,,,,11,,,74,64
19379,note_on,,59,0,10,,,,,,,,,,,,,,,12,,,71,0
19380,note_on,,1,0,10,,,,,,,,,,,,,,,12,,,69,64
19439,note_on,,119,0,9,,,,,,,,,,,,,,,11,,,74,0
19439,note_on,,119,0,5,,,,,,,,,,,,,,,0,,,67,0
19439,note_on,,59,0,10,,,,,,,,,,,,,,,12,,,69,0
19439,note_on,,119,0,6,,,,,,,,,,,,,,,1,,,74,0
19439,note_on,,119,0,8,,,,,,,,,,,,,,,10,,,67,0
19440,note_on,,1,0,9,,,,,,,,,,,,,,,11,,,79,64
19440,note_on,,1,0,6,,,,,,,,,,,,,,,1,,,79,64
19440,note_on,,1,0,10,,,,,,,,,,,,,,,12,,,71,64
19499,note_on,,59,0,10,,,,,,,,,,,,,,,12,,,71,0
19500,note_on,,1021,0,7,,,,,,,,,,,,,,,2,,,55,64
19500,note_on,,0,0,12,,,,,,,,,,,,,,,15,,,59,64
19500,note_on,,1021,0,11,,,,,,,,,,,,,,,13,,,55,64
19500,note_on,,0,0,12,,,,,,,,,,,,,,,15,,,67,64
19500,note_on,,541,0,12,,,,,,,,,,,,,,,15,,,55,64
19500,note_on,,1,0,10,,,,,,,,,,,,,,,12,,,59,64
19559,note_on,,59,0,7,,,,,,,,,,,,,,,2,,,55,0
19559,note_on,,59,0,10,,,,,,,,,,,,,,,12,,,59,0
19559,note_on,,59,0,12,,,,,,,,,,,,,,,15,,,55,0
19559,note_on,,0,0,12,,,,,,,,,,,,,,,15,,,59,0
19559,note_on,,59,0,11,,,,,,,,,,,,,,,13,,,55,0
19560,note_on,,1,0,11,,,,,,,,,,,,,,,13,,,57,64
19560,note_on,,1,0,7,,,,,,,,,,,,,,,2,,,57,64
19560,note_on,,1,0,10,,,,,,,,,,,,,,,12,,,60,64
19560,note_on,,1,0,12,,,,,,,,,,,,,,,15,,,57,64
19560,note_on,,0,0,12,,,,,,,,,,,,,,,15,,,60,64
19619,note_on,,59,0,10,,,,,,,,,,,,,,,12,,,60,0
19619,note_on,,59,0,12,,,,,,,,,,,,,,,15,,,57,0
19619,note_on,,0,0,12,,,,,,,,,,,,,,,15,,,60,0
19619,note_on,,59,0,11,,,,,,,,,,,,,,,13,,,57,0
19619,note_on,,59,0,7,,,,,,,,,,,,,,,2,,,57,0
19620,note_on,,0,0,12,,,,,,,,,,,,,,,15,,,62,64
19620,note_on,,1,0,10,,,,,,,,,,,,,,,12,,,62,64
19620,note_on,,1,0,11,,,,,,,,,,,,,,,13,,,59,64
19620,note_on,,1,0,7,,,,,,,,,,,,,,,2,,,59,64
19620,note_on,,1,0,12,,,,,,,,,,,,,,,15,,,59,64
19679,note_on,,59,0,11,,,,,,,,,,,,,,,13,,,59,0
19679,note_on,,59,0,7,,,,,,,,,,,,,,,2,,,59,0
19679,note_on,,59,0,10,,,,,,,,,,,,,,,12,,,62,0
19679,note_on,,0,0,12,,,,,,,,,,,,,,,15,,,62,0
19679,note_on,,59,0,12,,,,,,,,,,,,,,,15,,,59,0
19680,note_on,,1,0,11,,,,,,,,,,,,,,,13,,,60,64
19680,note_on,,0,0,12,,,,,,,,,,,,,,,15,,,64,64
19680,note_on,,1,0,12,,,,,,,,,,,,,,,15,,,60,64
19680,note_on,,1,0,7,,,,,,,,,,,,,,,2,,,60,64
19680,note_on,,1,0,10,,,,,,,,,,,,,,,12,,,64,64
19739,note_on,,59,0,11,,,,,,,,,,,,,,,13,,,60,0
19739,note_on,,59,0,10,,,,,,,,,,,,,,,12,,,64,0
19739,note_on,,59,0,12,,,,,,,,,,,,,,,15,,,60,0
19739,note_on,,59,0,7,,,,,,,,,,,,,,,2,,,60,0
19740,note_on,,1,0,10,,,,,,,,,,,,,,,12,,,66,64
19740,note_on,,1,0,12,,,,,,,,,,,,,,,15,,,62,64
19740,note_on,,1,0,11,,,,,,,,,,,,,,,13,,,62,64
19740,note_on,,1,0,7,,,,,,,,,,,,,,,2,,,62,64
19799,note_on,,59,0,11,,,,,,,,,,,,,,,13,,,62,0
19799,note_on,,59,0,12,,,,,,,,,,,,,,,15,,,62,0
19799,note_on,,59,0,10,,,,,,,,,,,,,,,12,,,66,0
19799,note_on,,59,0,7,,,,,,,,,,,,,,,2,,,62,0
19800,note_on,,1,0,7,,,,,,,,,,,,,,,2,,,59,64
19800,note_on,,1,0,10,,,,,,,,,,,,,,,12,,,62,64
19800,note_on,,1,0,12,,,,,,,,,,,,,,,15,,,59,64
19800,note_on,,1,0,11,,,,,,,,,,,,,,,13,,,59,64
19859,note_on,,59,0,7,,,,,,,,,,,,,,,2,,,59,0
19859,note_on,,59,0,10,,,,,,,,,,,,,,,12,,,62,0
19859,note_on,,59,0,11,,,,,,,,,,,,,,,13,,,59,0
19859,note_on,,59,0,12,,,,,,,,,,,,,,,15,,,59,0
19860,note_on,,1,0,11,,,,,,,,,,,,,,,13,,,60,64
19860,note_on,,1,0,10,,,,,,,,,,,,,,,12,,,64,64
19860,note_on,,1,0,7,,,,,,,,,,,,,,,2,,,60,64
19860,note_on,,1,0,12,,,,,,,,,,,,,,,15,,,60,64
19919,note_on,,59,0,7,,,,,,,,,,,,,,,2,,,60,0
19919,note_on,,59,0,10,,,,,,,,,,,,,,,12,,,64,0
19919,note_on,,479,0,6,,,,,,,,,,,,,,,1,,,79,0
19919,note_on,,479,0,9,,,,,,,,,,,,,,,11,,,79,0
19919,note_on,,59,0,12,,,,,,,,,,,,,,,15,,,67,0
19919,note_on,,0,0,12,,,,,,,,,,,,,,,15,,,64,0
19919,note_on,,0,0,12,,,,,,,,,,,,,,,15,,,60,0
19919,note_on,,59,0,11,,,,,,,,,,,,,,,13,,,60,0
19920,note_on,,1,0,11,,,,,,,,,,,,,,,13,,,57,64
19920,note_on,,1,0,10,,,,,,,,,,,,,,,12,,,60,64
19920,note_on,,1,0,7,,,,,,,,,,,,,,,2,,,57,64
19920,note_on,,1,0,6,,,,,,,,,,,,,,,1,,,78,64
19920,note_on,,0,0,12,,,,,,,,,,,,,,,15,,,60,64
19920,note_on,,0,0,12,,,,,,,,,,,,,,,15,,,66,64
19920,note_on,,1,0,12,,,,,,,,,,,,,,,15,,,57,64
19920,note_on,,1,0,9,,,,,,,,,,,,,,,11,,,78,64
19920,note_on,,0,0,12,,,,,,,,,,,,,,,15,,,69,64
19979,note_on,,59,0,7,,,,,,,,,,,,,,,2,,,57,0
19979,note_on,,59,0,11,,,,,,,,,,,,,,,13,,,57,0
19979,note_on,,59,0,12,,,,,,,,,,,,,,,15,,,57,0
19980,note_on,,1,0,12,,,,,,,,,,,,,,,15,,,62,64
19980,note_on,,1,0,7,,,,,,,,,,,,,,,2,,,62,64
19980,note_on,,1,0,11,,,,,,,,,,,,,,,13,,,62,64
20039,note_on,,59,0,12,,,,,,,,,,,,,,,15,,,62,0
20039,note_on,,59,0,7,,,,,,,,,,,,,,,2,,,62,0
20039,note_on,,59,0,11,,,,,,,,,,,,,,,13,,,62,0
20039,note_on,,119,0,10,,,,,,,,,,,,,,,12,,,60,0
20040,note_on,,1,0,7,,,,,,,,,,,,,,,2,,,60,64
20040,note_on,,1,0,11,,,,,,,,,,,,,,,13,,,60,64
20040,note_on,,1,0,10,,,,,,,,,,,,,,,12,,,69,64
20099,note_on,,59,0,11,,,,,,,,,,,,,,,13,,,60,0
20099,note_on,,59,0,7,,,,,,,,,,,,,,,2,,,60,0
20100,note_on,,61,0,12,,,,,,,,,,,,,,,15,,,62,64
20100,note_on,,1,0,7,,,,,,,,,,,,,,,2,,,62,64
20100,note_on,,1,0,11,,,,,,,,,,,,,,,13,,,62,64
20159,note_on,,59,0,11,,,,,,,,,,,,,,,13,,,62,0
20159,note_on,,59,0,7,,,,,,,,,,,,,,,2,,,62,0
20159,note_on,,239,0,9,,,,,,,,,,,,,,,11,,,78,0
20159,note_on,,0,0,12,,,,,,,,,,,,,,,15,,,62,0
20159,note_on,,239,0,6,,,,,,,,,,,,,,,1,,,78,0
20159,note_on,,0,0,12,,,,,,,,,,,,,,,15,,,66,0
20159,note_on,,59,0,12,,,,,,,,,,,,,,,15,,,69,0
20159,note_on,,0,0,12,,,,,,,,,,,,,,,15,,,60,0
20159,note_on,,119,0,10,,,,,,,,,,,,,,,12,,,69,0
20160,note_on,,1,0,7,,,,,,,,,,,,,,,2,,,59,64
20160,note_on,,1,0,12,,,,,,,,,,,,,,,15,,,59,64
20160,note_on,,0,0,12,,,,,,,,,,,,,,,15,,,74,64
20160,note_on,,0,0,12,,,,,,,,,,,,,,,15,,,67,64
20160,note_on,,0,0,12,,,,,,,,,,,,,,,15,,,62,64
20160,note_on,,1,0,10,,,,,,,,,,,,,,,12,,,62,64
20160,note_on,,1,0,9,,,,,,,,,,,,,,,11,,,79,64
20160,note_on,,1,0,11,,,,,,,,,,,,,,,13,,,59,64
20160,note_on,,1,0,6,,,,,,,,,,,,,,,1,,,79,64
20279,note_on,,119,0,12,,,,,,,,,,,,,,,15,,,59,0
20279,note_on,,119,0,11,,,,,,,,,,,,,,,13,,,59,0
20279,note_on,,119,0,10,,,,,,,,,,,,,,,12,,,62,0
20279,note_on,,119,0,7,,,,,,,,,,,,,,,2,,,59,0
20280,note_on,,841,0,8,,,,,,,,,,,,,,,10,,,86,64
20280,note_on,,1,0,12,,,,,,,,,,,,,,,15,,,55,64
20280,note_on,,1,0,11,,,,,,,,,,,,,,,13,,,55,64
20280,note_on,,841,0,5,,,,,,,,,,,,,,,0,,,86,64
20280,note_on,,1,0,10,,,,,,,,,,,,,,,12,,,71,64
20280,note_on,,1,0,7,,,,,,,,,,,,,,,2,,,55,64
20399,note_on,,119,0,8,,,,,,,,,,,,,,,10,,,86,0
20399,note_on,,119,0,5,,,,,,,,,,,,,,,0,,,86,0
20399,note_on,,119,0,10,,,,,,,,,,,,,,,12,,,71,0
20399,note_on,,0,0,12,,,,,,,,,,,,,,,15,,,62,0
20399,note_on,,0,0,12,,,,,,,,,,,,,,,15,,,67,0
20399,note_on,,0,0,12,,,,,,,,,,,,,,,15,,,55,0
20399,note_on,,119,0,12,,,,,,,,,,,,,,,15,,,74,0
20399,note_on,,119,0,7,,,,,,,,,,,,,,,2,,,55,0
20399,note_on,,239,0,9,,,,,,,,,,,,,,,11,,,79,0
20399,note_on,,239,0,6,,,,,,,,,,,,,,,1,,,79,0
20399,note_on,,119,0,11,,,,,,,,,,,,,,,13,,,55,0
20400,note_on,,1,0,10,,,,,,,,,,,,,,,12,,,74,64
20400,note_on,,1,0,5,,,,,,,,,,,,,,,0,,,83,64
20400,note_on,,1,0,8,,,,,,,,,,,,,,,10,,,83,64
20400,note_on,,1,0,9,,,,,,,,,,,,,,,11,,,67,64
20400,note_on,,1,0,6,,,,,,,,,,,,,,,1,,,67,64
20519,note_on,,119,0,5,,,,,,,,,,,,,,,0,,,83,0
20519,note_on,,119,0,10,,,,,,,,,,,,,,,12,,,74,0
20519,note_on,,119,0,8,,,,,,,,,,,,,,,10,,,83,0
20520,note_on,,1,0,5,,,,,,,,,,,,,,,0,,,81,64
20520,note_on,,1,0,10,,,,,,,,,,,,,,,12,,,67,64
20520,note_on,,1,0,8,,,,,,,,,,,,,,,10,,,81,64
20579,note_on,,59,0,8,,,,,,,,,,,,,,,10,,,81,0
20579,note_on,,59,0,5,,,,,,,,,,,,,,,0,,,81,0
20580,note_on,,1,0,8,,,,,,,,,,,,,,,10,,,79,64
20580,note_on,,1,0,5,,,,,,,,,,,,,,,0,,,79,64
20639,note_on,,239,0,6,,,,,,,,,,,,,,,1,,,67,0
20639,note_on,,59,0,8,,,,,,,,,,,,,,,10,,,79,0
20639,note_on,,239,0,9,,,,,,,,,,,,,,,11,,,67,0
20639,note_on,,119,0,10,,,,,,,,,,,,,,,12,,,67,0
20639,note_on,,59,0,5,,,,,,,,,,,,,,,0,,,79,0
20640,note_on,,1,0,8,,,,,,,,,,,,,,,10,,,81,64
20640,note_on,,1,0,10,,,,,,,,,,,,,,,12,,,74,64
20640,note_on,,1,0,6,,,,,,,,,,,,,,,1,,,66,64
20640,note_on,,1,0,5,,,,,,,,,,,,,,,0,,,81,64
20640,note_on,,1,0,9,,,,,,,,,,,,,,,11,,,66,64
20759,note_on,,119,0,5,,,,,,,,,,,,,,,0,,,81,0
20759,note_on,,119,0,8,,,,,,,,,,,,,,,10,,,81,0
20760,note_on,,1,0,5,,,,,,,,,,,,,,,0,,,74,64
20760,note_on,,361,0,7,,,,,,,,,,,,,,,2,,,55,64
20760,note_on,,361,0,12,,,,,,,,,,,,,,,15,,,55,64
20760,note_on,,1,0,8,,,,,,,,,,,,,,,10,,,74,64
20760,note_on,,361,0,11,,,,,,,,,,,,,,,13,,,55,64
20879,note_on,,119,0,11,,,,,,,,,,,,,,,13,,,55,0
20879,note_on,,239,0,9,,,,,,,,,,,,,,,11,,,66,0
20879,note_on,,119,0,7,,,,,,,,,,,,,,,2,,,55,0
20879,note_on,,119,0,12,,,,,,,,,,,,,,,15,,,55,0
20879,note_on,,239,0,6,,,,,,,,,,,,,,,1,,,66,0
20879,note_on,,119,0,5,,,,,,,,,,,,,,,0,,,74,0
20879,note_on,,119,0,8,,,,,,,,,,,,,,,10,,,74,0
20879,note_on,,239,0,10,,,,,,,,,,,,,,,12,,,74,0
20880,note_on,,1,0,12,,,,,,,,,,,,,,,15,,,54,64
20880,note_on,,0,0,12,,,,,,,,,,,,,,,15,,,69,64
20880,note_on,,0,0,12,,,,,,,,,,,,,,,15,,,62,64
20880,note_on,,1,0,9,,,,,,,,,,,,,,,11,,,74,64
20880,note_on,,0,0,12,,,,,,,,,,,,,,,15,,,74,64
20880,note_on,,1,0,10,,,,,,,,,,,,,,,12,,,69,64
20880,note_on,,1,0,11,,,,,,,,,,,,,,,13,,,54,64
20880,note_on,,1,0,6,,,,,,,,,,,,,,,1,,,74,64
20880,note_on,,1,0,7,,,,,,,,,,,,,,,2,,,54,64
20999,note_on,,119,0,11,,,,,,,,,,,,,,,13,,,54,0
20999,note_on,,119,0,7,,,,,,,,,,,,,,,2,,,54,0
20999,note_on,,119,0,10,,,,,,,,,,,,,,,12,,,69,0
20999,note_on,,119,0,12,,,,,,,,,,,,,,,15,,,54,0
21000,note_on,,1,0,7,,,,,,,,,,,,,,,2,,,52,64
21000,note_on,,1,0,12,,,,,,,,,,,,,,,15,,,52,64
21000,note_on,,1,0,11,,,,,,,,,,,,,,,13,,,52,64
21000,note_on,,1,0,10,,,,,,,,,,,,,,,12,,,67,64
21059,note_on,,59,0,10,,,,,,,,,,,,,,,12,,,67,0
21059,note_on,,59,0,7,,,,,,,,,,,,,,,2,,,52,0
21059,note_on,,59,0,12,,,,,,,,,,,,,,,15,,,52,0
21059,note_on,,59,0,11,,,,,,,,,,,,,,,13,,,52,0
21060,note_on,,1,0,10,,,,,,,,,,,,,,,12,,,66,64
21060,note_on,,1,0,12,,,,,,,,,,,,,,,15,,,50,64
21060,note_on,,1,0,7,,,,,,,,,,,,,,,2,,,50,64
21060,note_on,,1,0,11,,,,,,,,,,,,,,,13,,,50,64
21119,note_on,,59,0,10,,,,,,,,,,,,,,,12,,,66,0
21119,note_on,,59,0,7,,,,,,,,,,,,,,,2,,,50,0
21119,note_on,,59,0,12,,,,,,,,,,,,,,,15,,,69,0
21119,note_on,,0,0,12,,,,,,,,,,,,,,,15,,,50,0
21119,note_on,,0,0,12,,,,,,,,,,,,,,,15,,,62,0
21119,note_on,,59,0,11,,,,,,,,,,,,,,,13,,,50,0
21120,note_on,,1,0,11,,,,,,,,,,,,,,,13,,,52,64
21120,note_on,,1,0,7,,,,,,,,,,,,,,,2,,,52,64
21120,note_on,,1,0,10,,,,,,,,,,,,,,,12,,,64,64
21120,note_on,,0,0,12,,,,,,,,,,,,,,,15,,,55,64
21120,note_on,,1,0,12,,,,,,,,,,,,,,,15,,,52,64
21120,note_on,,0,0,12,,,,,,,,,,,,,,,15,,,64,64
21239,note_on,,359,0,9,,,,,,,,,,,,,,,11,,,74,0
21239,note_on,,119,0,12,,,,,,,,,,,,,,,15,,,74,0
21239,note_on,,0,0,12,,,,,,,,,,,,,,,15,,,52,0
21239,note_on,,0,0,12,,,,,,,,,,,,,,,15,,,55,0
21239,note_on,,119,0,11,,,,,,,,,,,,,,,13,,,52,0
21239,note_on,,119,0,7,,,,,,,,,,,,,,,2,,,52,0
21239,note_on,,359,0,6,,,,,,,,,,,,,,,1,,,74,0
21240,note_on,,1,0,7,,,,,,,,,,,,,,,2,,,45,64
21240,note_on,,1,0,6,,,,,,,,,,,,,,,1,,,72,64
21240,note_on,,361,0,5,,,,,,,,,,,,,,,0,,,76,64
21240,note_on,,0,0,12,,,,,,,,,,,,,,,15,,,72,64
21240,note_on,,361,0,8,,,,,,,,,,,,,,,10,,,76,64
21240,note_on,,1,0,9,,,,,,,,,,,,,,,11,,,72,64
21240,note_on,,1,0,12,,,,,,,,,,,,,,,15,,,45,64
21240,note_on,,1,0,11,,,,,,,,,,,,,,,13,,,45,64
21240,note_on,,0,0,12,,,,,,,,,,,,,,,15,,,57,64
21359,note_on,,119,0,6,,,,,,,,,,,,,,,1,,,72,0
21359,note_on,,0,0,12,,,,,,,,,,,,,,,15,,,72,0
21359,note_on,,119,0,5,,,,,,,,,,,,,,,0,,,76,0
21359,note_on,,119,0,7,,,,,,,,,,,,,,,2,,,45,0
21359,note_on,,239,0,10,,,,,,,,,,,,,,,12,,,64,0
21359,note_on,,119,0,12,,,,,,,,,,,,,,,15,,,64,0
21359,note_on,,119,0,11,,,,,,,,,,,,,,,13,,,45,0
21359,note_on,,0,0,12,,,,,,,,,,,,,,,15,,,57,0
21359,note_on,,119,0,9,,,,,,,,,,,,,,,11,,,72,0
21359,note_on,,119,0,8,,,,,,,,,,,,,,,10,,,76,0
21359,note_on,,0,0,12,,,,,,,,,,,,,,,15,,,45,0
21360,note_on,,1,0,8,,,,,,,,,,,,,,,10,,,72,64
21360,note_on,,1,0,6,,,,,,,,,,,,,,,1,,,64,64
21360,note_on,,1,0,9,,,,,,,,,,,,,,,11,,,64,64
21360,note_on,,1,0,10,,,,,,,,,,,,,,,12,,,57,64
21360,note_on,,1,0,5,,,,,,,,,,,,,,,0,,,72,64
21479,note_on,,119,0,5,,,,,,,,,,,,,,,0,,,72,0
21479,note_on,,119,0,8,,,,,,,,,,,,,,,10,,,72,0
21479,note_on,,119,0,6,,,,,,,,,,,,,,,1,,,64,0
21479,note_on,,119,0,9,,,,,,,,,,,,,,,11,,,64,0
21480,note_on,,1,0,8,,,,,,,,,,,,,,,10,,,71,64
21480,note_on,,1,0,5,,,,,,,,,,,,,,,0,,,71,64
21480,note_on,,1,0,9,,,,,,,,,,,,,,,11,,,69,64
21480,note_on,,1,0,6,,,,,,,,,,,,,,,1,,,69,64
21539,note_on,,59,0,5,,,,,,,,,,,,,,,0,,,71,0
21539,note_on,,59,0,8,,,,,,,,,,,,,,,10,,,71,0
21540,note_on,,1,0,5,,,,,,,,,,,,,,,0,,,69,64
21540,note_on,,1,0,8,,,,,,,,,,,,,,,10,,,69,64
21599,note_on,,119,0,9,,,,,,,,,,,,,,,11,,,69,0
21599,note_on,,119,0,6,,,,,,,,,,,,,,,1,,,69,0
21599,note_on,,239,0,10,,,,,,,,,,,,,,,12,,,57,0
21599,note_on,,59,0,8,,,,,,,,,,,,,,,10,,,69,0
21599,note_on,,59,0,5,,,,,,,,,,,,,,,0,,,69,0
21600,note_on,,1,0,8,,,,,,,,,,,,,,,10,,,71,64
21600,note_on,,1,0,5,,,,,,,,,,,,,,,0,,,71,64
21719,note_on,,119,0,5,,,,,,,,,,,,,,,0,,,71,0
21719,note_on,,119,0,8,,,,,,,,,,,,,,,10,,,71,0
21720,note_on,,361,0,7,,,,,,,,,,,,,,,2,,,57,64
21720,note_on,,361,0,12,,,,,,,,,,,,,,,15,,,57,64
21720,note_on,,1,0,8,,,,,,,,,,,,,,,10,,,64,64
21720,note_on,,1,0,5,,,,,,,,,,,,,,,0,,,64,64
21720,note_on,,361,0,11,,,,,,,,,,,,,,,13,,,57,64
21839,note_on,,119,0,11,,,,,,,,,,,,,,,13,,,57,0
21839,note_on,,119,0,12,,,,,,,,,,,,,,,15,,,57,0
21839,note_on,,119,0,5,,,,,,,,,,,,,,,0,,,64,0
21839,note_on,,119,0,7,,,,,,,,,,,,,,,2,,,57,0
21839,note_on,,119,0,8,,,,,,,,,,,,,,,10,,,64,0
21840,note_on,,1,0,11,,,,,,,,,,,,,,,13,,,55,64
21840,note_on,,241,0,9,,,,,,,,,,,,,,,11,,,76,64
21840,note_on,,241,0,6,,,,,,,,,,,,,,,1,,,76,64
21840,note_on,,1,0,7,,,,,,,,,,,,,,,2,,,55,64
21840,note_on,,241,0,10,,,,,,,,,,,,,,,12,,,71,64
21840,note_on,,1,0,12,,,,,,,,,,,,,,,15,,,55,64
21840,note_on,,0,0,12,,,,,,,,,,,,,,,15,,,71,64
21840,note_on,,0,0,12,,,,,,,,,,,,,,,15,,,64,64
21959,note_on,,119,0,11,,,,,,,,,,,,,,,13,,,55,0
21959,note_on,,119,0,7,,,,,,,,,,,,,,,2,,,55,0
21959,note_on,,119,0,12,,,,,,,,,,,,,,,15,,,55,0
21960,note_on,,1,0,12,,,,,,,,,,,,,,,15,,,54,64
21960,note_on,,1,0,11,,,,,,,,,,,,,,,13,,,54,64
21960,note_on,,1,0,7,,,,,,,,,,,,,,,2,,,54,64
22019,note_on,,59,0,11,,,,,,,,,,,,,,,13,,,54,0
22019,note_on,,59,0,12,,,,,,,,,,,,,,,15,,,54,0
22019,note_on,,59,0,7,,,,,,,,,,,,,,,2,,,54,0
22020,note_on,,1,0,7,,,,,,,,,,,,,,,2,,,52,64
22020,note_on,,1,0,11,,,,,,,,,,,,,,,13,,,52,64
22020,note_on,,1,0,12,,,,,,,,,,,,,,,15,,,52,64
22079,note_on,,59,0,11,,,,,,,,,,,,,,,13,,,52,0
22079,note_on,,239,0,9,,,,,,,,,,,,,,,11,,,76,0
22079,note_on,,239,0,6,,,,,,,,,,,,,,,1,,,76,0
22079,note_on,,239,0,10,,,,,,,,,,,,,,,12,,,71,0
22079,note_on,,59,0,12,,,,,,,,,,,,,,,15,,,71,0
22079,note_on,,0,0,12,,,,,,,,,,,,,,,15,,,52,0
22079,note_on,,59,0,7,,,,,,,,,,,,,,,2,,,52,0
22080,note_on,,1,0,9,,,,,,,,,,,,,,,11,,,61,64
22080,note_on,,1,0,12,,,,,,,,,,,,,,,15,,,54,64
22080,note_on,,0,0,12,,,,,,,,,,,,,,,15,,,70,64
22080,note_on,,1,0,7,,,,,,,,,,,,,,,2,,,54,64
22080,note_on,,1,0,11,,,,,,,,,,,,,,,13,,,54,64
22080,note_on,,1,0,6,,,,,,,,,,,,,,,1,,,61,64
22080,note_on,,1,0,10,,,,,,,,,,,,,,,12,,,70,64
22199,note_on,,119,0,9,,,,,,,,,,,,,,,11,,,61,0
22199,note_on,,119,0,12,,,,,,,,,,,,,,,15,,,64,0
22199,note_on,,0,0,12,,,,,,,,,,,,,,,15,,,54,0
22199,note_on,,0,0,12,,,,,,,,,,,,,,,15,,,70,0
22199,note_on,,119,0,10,,,,,,,,,,,,,,,12,,,70,0
22199,note_on,,119,0,6,,,,,,,,,,,,,,,1,,,61,0
22199,note_on,,119,0,11,,,,,,,,,,,,,,,13,,,54,0
22199,note_on,,119,0,7,,,,,,,,,,,,,,,2,,,54,0
22200,note_on,,1,0,11,,,,,,,,,,,,,,,13,,,47,64
22200,note_on,,361,0,8,,,,,,,,,,,,,,,10,,,78,64
22200,note_on,,1,0,12,,,,,,,,,,,,,,,15,,,47,64
22200,note_on,,0,0,12,,,,,,,,,,,,,,,15,,,71,64
22200,note_on,,0,0,12,,,,,,,,,,,,,,,15,,,66,64
22200,note_on,,0,0,12,,,,,,,,,,,,,,,15,,,62,64
22200,note_on,,1,0,10,,,,,,,,,,,,,,,12,,,71,64
22200,note_on,,361,0,5,,,,,,,,,,,,,,,0,,,78,64
22200,note_on,,1,0,7,,,,,,,,,,,,,,,2,,,47,64
22200,note_on,,1,0,6,,,,,,,,,,,,,,,1,,,62,64
22200,note_on,,1,0,9,,,,,,,,,,,,,,,11,,,62,64
22319,note_on,,119,0,9,,,,,,,,,,,,,,,11,,,62,0
22319,note_on,,0,0,12,,,,,,,,,,,,,,,15,,,62,0
22319,note_on,,0,0,12,,,,,,,,,,,,,,,15,,,66,0
22319,note_on,,119,0,8,,,,,,,,,,,,,,,10,,,78,0
22319,note_on,,119,0,11,,,,,,,,,,,,,,,13,,,47,0
22319,note_on,,0,0,12,,,,,,,,,,,,,,,15,,,71,0
22319,note_on,,119,0,6,,,,,,,,,,,,,,,1,,,62,0
22319,note_on,,119,0,12,,,,,,,,,,,,,,,15,,,47,0
22319,note_on,,119,0,10,,,,,,,,,,,,,,,12,,,71,0
22319,note_on,,119,0,7,,,,,,,,,,,,,,,2,,,47,0
22319,note_on,,119,0,5,,,,,,,,,,,,,,,0,,,78,0
22320,note_on,,1,0,5,,,,,,,,,,,,,,,0,,,74,64
22320,note_on,,1,0,8,,,,,,,,,,,,,,,10,,,74,64
22439,note_on,,119,0,5,,,,,,,,,,,,,,,0,,,74,0
22439,note_on,,119,0,8,,,,,,,,,,,,,,,10,,,74,0
22440,note_on,,1,0,5,,,,,,,,,,,,,,,0,,,73,64
22440,note_on,,1,0,8,,,,,,,,,,,,,,,10,,,73,64
22499,note_on,,59,0,5,,,,,,,,,,,,,,,0,,,73,0
22499,note_on,,59,0,8,,,,,,,,,,,,,,,10,,,73,0
22500,note_on,,1,0,5,,,,,,,,,,,,,,,0,,,71,64
22500,note_on,,1,0,8,,,,,,,,,,,,,,,10,,,71,64
22559,note_on,,59,0,5,,,,,,,,,,,,,,,0,,,71,0
22559,note_on,,59,0,8,,,,,,,,,,,,,,,10,,,71,0
22560,note_on,,1,0,8,,,,,,,,,,,,,,,10,,,73,64
22560,note_on,,1,0,5,,,,,,,,,,,,,,,0,,,73,64
22679,note_on,,119,0,5,,,,,,,,,,,,,,,0,,,73,0
22679,note_on,,119,0,8,,,,,,,,,,,,,,,10,,,73,0
22680,note_on,,361,0,10,,,,,,,,,,,,,,,12,,,62,64
22680,note_on,,361,0,9,,,,,,,,,,,,,,,11,,,66,64
22680,note_on,,1,0,5,,,,,,,,,,,,,,,0,,,66,64
22680,note_on,,361,0,6,,,,,,,,,,,,,,,1,,,66,64
22680,note_on,,361,0,11,,,,,,,,,,,,,,,13,,,59,64
22680,note_on,,361,0,12,,,,,,,,,,,,,,,15,,,59,64
22680,note_on,,361,0,7,,,,,,,,,,,,,,,2,,,59,64
22680,note_on,,1,0,8,,,,,,,,,,,,,,,10,,,66,64
22799,note_on,,119,0,8,,,,,,,,,,,,,,,10,,,66,0
22799,note_on,,119,0,9,,,,,,,,,,,,,,,11,,,66,0
22799,note_on,,119,0,5,,,,,,,,,,,,,,,0,,,66,0
22799,note_on,,119,0,6,,,,,,,,,,,,,,,1,,,66,0
22799,note_on,,119,0,7,,,,,,,,,,,,,,,2,,,59,0
22799,note_on,,119,0,10,,,,,,,,,,,,,,,12,,,62,0
22799,note_on,,119,0,11,,,,,,,,,,,,,,,13,,,59,0
22799,note_on,,119,0,12,,,,,,,,,,,,,,,15,,,59,0
22800,note_on,,0,0,12,,,,,,,,,,,,,,,15,,,73,64
22800,note_on,,1,0,10,,,,,,,,,,,,,,,12,,,61,64
22800,note_on,,1,0,6,,,,,,,,,,,,,,,1,,,66,64
22800,note_on,,1,0,7,,,,,,,,,,,,,,,2,,,57,64
22800,note_on,,1,0,8,,,,,,,,,,,,,,,10,,,73,64
22800,note_on,,1,0,11,,,,,,,,,,,,,,,13,,,57,64
22800,note_on,,1,0,5,,,,,,,,,,,,,,,0,,,73,64
22800,note_on,,1,0,12,,,,,,,,,,,,,,,15,,,57,64
22800,note_on,,0,0,12,,,,,,,,,,,,,,,15,,,66,64
22800,note_on,,1,0,9,,,,,,,,,,,,,,,11,,,66,64
22919,note_on,,0,0,12,,,,,,,,,,,,,,,15,,,73,0
22919,note_on,,119,0,5,,,,,,,,,,,,,,,0,,,73,0
22919,note_on,,119,0,12,,,,,,,,,,,,,,,15,,,57,0
22919,note_on,,119,0,10,,,,,,,,,,,,,,,12,,,61,0
22919,note_on,,119,0,7,,,,,,,,,,,,,,,2,,,57,0
22919,note_on,,119,0,11,,,,,,,,,,,,,,,13,,,57,0
22919,note_on,,119,0,8,,,,,,,,,,,,,,,10,,,73,0
22919,note_on,,119,0,9,,,,,,,,,,,,,,,11,,,66,0
22919,note_on,,119,0,6,,,,,,,,,,,,,,,1,,,66,0
22920,note_on,,1,0,6,,,,,,,,,,,,,,,1,,,66,64
22920,note_on,,1,0,8,,,,,,,,,,,,,,,10,,,75,64
22920,note_on,,1,0,10,,,,,,,,,,,,,,,12,,,59,64
22920,note_on,,1,0,5,,,,,,,,,,,,,,,0,,,75,64
22920,note_on,,1,0,9,,,,,,,,,,,,,,,11,,,66,64
22920,note_on,,1,0,7,,,,,,,,,,,,,,,2,,,55,64
22920,note_on,,1,0,11,,,,,,,,,,,,,,,13,,,55,64
22920,note_on,,1,0,12,,,,,,,,,,,,,,,15,,,55,64
22920,note_on,,0,0,12,,,,,,,,,,,,,,,15,,,71,64
22979,note_on,,59,0,7,,,,,,,,,,,,,,,2,,,55,0
22979,note_on,,59,0,11,,,,,,,,,,,,,,,13,,,55,0
22979,note_on,,59,0,10,,,,,,,,,,,,,,,12,,,59,0
22979,note_on,,0,0,12,,,,,,,,,,,,,,,15,,,71,0
22979,note_on,,59,0,12,,,,,,,,,,,,,,,15,,,55,0
22980,note_on,,1,0,7,,,,,,,,,,,,,,,2,,,54,64
22980,note_on,,0,0,12,,,,,,,,,,,,,,,15,,,69,64
22980,note_on,,1,0,12,,,,,,,,,,,,,,,15,,,54,64
22980,note_on,,1,0,10,,,,,,,,,,,,,,,12,,,58,64
22980,note_on,,1,0,11,,,,,,,,,,,,,,,13,,,54,64
23039,note_on,,119,0,5,,,,,,,,,,,,,,,0,,,75,0
23039,note_on,,119,0,8,,,,,,,,,,,,,,,10,,,75,0
23039,note_on,,59,0,12,,,,,,,,,,,,,,,15,,,66,0
23039,note_on,,0,0,12,,,,,,,,,,,,,,,15,,,54,0
23039,note_on,,0,0,12,,,,,,,,,,,,,,,15,,,69,0
23039,note_on,,59,0,7,,,,,,,,,,,,,,,2,,,54,0
23039,note_on,,59,0,10,,,,,,,,,,,,,,,12,,,58,0
23039,note_on,,59,0,11,,,,,,,,,,,,,,,13,,,54,0
23039,note_on,,119,0,6,,,,,,,,,,,,,,,1,,,66,0
23039,note_on,,119,0,9,,,,,,,,,,,,,,,11,,,66,0
23040,note_on,,1,0,11,,,,,,,,,,,,,,,13,,,55,64
23040,note_on,,0,0,12,,,,,,,,,,,,,,,15,,,71,64
23040,note_on,,1,0,6,,,,,,,,,,,,,,,1,,,71,64
23040,note_on,,1,0,12,,,,,,,,,,,,,,,15,,,55,64
23040,note_on,,1,0,9,,,,,,,,,,,,,,,11,,,71,64
23040,note_on,,1,0,7,,,,,,,,,,,,,,,2,,,55,64
23040,note_on,,0,0,12,,,,,,,,,,,,,,,15,,,59,64
23040,note_on,,1,0,5,,,,,,,,,,,,,,,0,,,76,64
23040,note_on,,1,0,10,,,,,,,,,,,,,,,12,,,59,64
23040,note_on,,1,0,8,,,,,,,,,,,,,,,10,,,76,64
23159,note_on,,119,0,8,,,,,,,,,,,,,,,10,,,76,0
23159,note_on,,119,0,5,,,,,,,,,,,,,,,0,,,76,0
23159,note_on,,119,0,10,,,,,,,,,,,,,,,12,,,59,0
23159,note_on,,119,0,12,,,,,,,,,,,,,,,15,,,71,0
23160,note_on,,1,0,12,,,,,,,,,,,,,,,15,,,64,64
23160,note_on,,1,0,5,,,,,,,,,,,,,,,0,,,71,64
23160,note_on,,1,0,10,,,,,,,,,,,,,,,12,,,71,64
23160,note_on,,1,0,8,,,,,,,,,,,,,,,10,,,71,64
23219,note_on,,59,0,12,,,,,,,,,,,,,,,15,,,55,0
23219,note_on,,179,0,7,,,,,,,,,,,,,,,2,,,55,0
23219,note_on,,179,0,9,,,,,,,,,,,,,,,11,,,71,0
23219,note_on,,179,0,6,,,,,,,,,,,,,,,1,,,71,0
23219,note_on,,179,0,11,,,,,,,,,,,,,,,13,,,55,0
23220,note_on,,1,0,11,,,,,,,,,,,,,,,13,,,54,64
23220,note_on,,1,0,9,,,,,,,,,,,,,,,11,,,69,64
23220,note_on,,1,0,6,,,,,,,,,,,,,,,1,,,69,64
23220,note_on,,1,0,7,,,,,,,,,,,,,,,2,,,54,64
23220,note_on,,1,0,12,,,,,,,,,,,,,,,15,,,54,64
23279,note_on,,119,0,5,,,,,,,,,,,,,,,0,,,71,0
23279,note_on,,59,0,12,,,,,,,,,,,,,,,15,,,54,0
23279,note_on,,59,0,6,,,,,,,,,,,,,,,1,,,69,0
23279,note_on,,119,0,8,,,,,,,,,,,,,,,10,,,71,0
23279,note_on,,59,0,11,,,,,,,,,,,,,,,13,,,54,0
23279,note_on,,59,0,7,,,,,,,,,,,,,,,2,,,54,0
23279,note_on,,59,0,9,,,,,,,,,,,,,,,11,,,69,0
23280,note_on,,1,0,12,,,,,,,,,,,,,,,15,,,52,64
23280,note_on,,0,0,12,,,,,,,,,,,,,,,15,,,67,64
23280,note_on,,1,0,9,,,,,,,,,,,,,,,11,,,67,64
23280,note_on,,1,0,6,,,,,,,,,,,,,,,1,,,67,64
23280,note_on,,1,0,5,,,,,,,,,,,,,,,0,,,76,64
23280,note_on,,1,0,11,,,,,,,,,,,,,,,13,,,52,64
23280,note_on,,1,0,8,,,,,,,,,,,,,,,10,,,76,64
23280,note_on,,1,0,7,,,,,,,,,,,,,,,2,,,52,64
23339,note_on,,59,0,6,,,,,,,,,,,,,,,1,,,67,0
23339,note_on,,59,0,9,,,,,,,,,,,,,,,11,,,67,0
23339,note_on,,59,0,11,,,,,,,,,,,,,,,13,,,52,0
23339,note_on,,59,0,7,,,,,,,,,,,,,,,2,,,52,0
23339,note_on,,59,0,12,,,,,,,,,,,,,,,15,,,52,0
23340,note_on,,1,0,11,,,,,,,,,,,,,,,13,,,50,64
23340,note_on,,1,0,7,,,,,,,,,,,,,,,2,,,50,64
23340,note_on,,1,0,12,,,,,,,,,,,,,,,15,,,50,64
23340,note_on,,1,0,6,,,,,,,,,,,,,,,1,,,66,64
23340,note_on,,1,0,9,,,,,,,,,,,,,,,11,,,66,64
23399,note_on,,59,0,9,,,,,,,,,,,,,,,11,,,66,0
23399,note_on,,59,0,12,,,,,,,,,,,,,,,15,,,50,0
23399,note_on,,59,0,11,,,,,,,,,,,,,,,13,,,50,0
23399,note_on,,59,0,6,,,,,,,,,,,,,,,1,,,66,0
23399,note_on,,59,0,7,,,,,,,,,,,,,,,2,,,50,0
23399,note_on,,239,0,10,,,,,,,,,,,,,,,12,,,71,0
23400,note_on,,1,0,11,,,,,,,,,,,,,,,13,,,49,64
23400,note_on,,1,0,10,,,,,,,,,,,,,,,12,,,64,64
23400,note_on,,1,0,12,,,,,,,,,,,,,,,15,,,49,64
23400,note_on,,1,0,6,,,,,,,,,,,,,,,1,,,64,64
23400,note_on,,1,0,9,,,,,,,,,,,,,,,11,,,64,64
23400,note_on,,1,0,7,,,,,,,,,,,,,,,2,,,49,64
23459,note_on,,59,0,12,,,,,,,,,,,,,,,15,,,49,0
23459,note_on,,59,0,9,,,,,,,,,,,,,,,11,,,64,0
23459,note_on,,59,0,6,,,,,,,,,,,,,,,1,,,64,0
23459,note_on,,59,0,7,,,,,,,,,,,,,,,2,,,49,0
23459,note_on,,59,0,11,,,,,,,,,,,,,,,13,,,49,0
23460,note_on,,1,0,6,,,,,,,,,,,,,,,1,,,62,64
23460,note_on,,1,0,7,,,,,,,,,,,,,,,2,,,47,64
23460,note_on,,1,0,12,,,,,,,,,,,,,,,15,,,47,64
23460,note_on,,1,0,11,,,,,,,,,,,,,,,13,,,47,64
23460,note_on,,1,0,9,,,,,,,,,,,,,,,11,,,62,64
23519,note_on,,0,0,12,,,,,,,,,,,,,,,15,,,67,0
23519,note_on,,0,0,12,,,,,,,,,,,,,,,15,,,64,0
23519,note_on,,59,0,12,,,,,,,,,,,,,,,15,,,59,0
23519,note_on,,59,0,7,,,,,,,,,,,,,,,2,,,47,0
23519,note_on,,59,0,6,,,,,,,,,,,,,,,1,,,62,0
23519,note_on,,119,0,10,,,,,,,,,,,,,,,12,,,64,0
23519,note_on,,0,0,12,,,,,,,,,,,,,,,15,,,47,0
23519,note_on,,59,0,11,,,,,,,,,,,,,,,13,,,47,0
23519,note_on,,59,0,9,,,,,,,,,,,,,,,11,,,62,0
23520,note_on,,1,0,11,,,,,,,,,,,,,,,13,,,46,64
23520,note_on,,0,0,12,,,,,,,,,,,,,,,15,,,66,64
23520,note_on,,0,0,12,,,,,,,,,,,,,,,15,,,64,64
23520,note_on,,0,0,12,,,,,,,,,,,,,,,15,,,61,64
23520,note_on,,1,0,6,,,,,,,,,,,,,,,1,,,61,64
23520,note_on,,1,0,9,,,,,,,,,,,,,,,11,,,61,64
23520,note_on,,1,0,12,,,,,,,,,,,,,,,15,,,46,64
23520,note_on,,1,0,10,,,,,,,,,,,,,,,12,,,66,64
23520,note_on,,1,0,7,,,,,,,,,,,,,,,2,,,46,64
23579,note_on,,299,0,5,,,,,,,,,,,,,,,0,,,76,0
23579,note_on,,299,0,8,,,,,,,,,,,,,,,10,,,76,0
23580,note_on,,1,0,5,,,,,,,,,,,,,,,0,,,78,64
23580,note_on,,1,0,8,,,,,,,,,,,,,,,10,,,78,64
23639,note_on,,59,0,5,,,,,,,,,,,,,,,0,,,78,0
23639,note_on,,119,0,7,,,,,,,,,,,,,,,2,,,46,0
23639,note_on,,119,0,12,,,,,,,,,,,,,,,15,,,46,0
23639,note_on,,0,0,12,,,,,,,,,,,,,,,15,,,64,0
23639,note_on,,0,0,12,,,,,,,,,,,,,,,15,,,61,0
23639,note_on,,119,0,9,,,,,,,,,,,,,,,11,,,61,0
23639,note_on,,119,0,6,,,,,,,,,,,,,,,1,,,61,0
23639,note_on,,59,0,8,,,,,,,,,,,,,,,10,,,78,0
23639,note_on,,119,0,11,,,,,,,,,,,,,,,13,,,46,0
23639,note_on,,119,0,10,,,,,,,,,,,,,,,12,,,66,0
23640,note_on,,0,0,12,,,,,,,,,,,,,,,15,,,59,64
23640,note_on,,1,0,6,,,,,,,,,,,,,,,1,,,71,64
23640,note_on,,1,0,8,,,,,,,,,,,,,,,10,,,74,64
23640,note_on,,1,0,7,,,,,,,,,,,,,,,2,,,47,64
23640,note_on,,1,0,9,,,,,,,,,,,,,,,11,,,71,64
23640,note_on,,0,0,12,,,,,,,,,,,,,,,15,,,62,64
23640,note_on,,1,0,12,,,,,,,,,,,,,,,15,,,47,64
23640,note_on,,1,0,11,,,,,,,,,,,,,,,13,,,47,64
23640,note_on,,1,0,10,,,,,,,,,,,,,,,12,,,66,64
23640,note_on,,1,0,5,,,,,,,,,,,,,,,0,,,74,64
23699,note_on,,59,0,5,,,,,,,,,,,,,,,0,,,74,0
23699,note_on,,59,0,8,,,,,,,,,,,,,,,10,,,74,0
23700,note_on,,1,0,5,,,,,,,,,,,,,,,0,,,76,64
23700,note_on,,1,0,8,,,,,,,,,,,,,,,10,,,76,64
23759,note_on,,59,0,8,,,,,,,,,,,,,,,10,,,76,0
23759,note_on,,119,0,7,,,,,,,,,,,,,,,2,,,47,0
23759,note_on,,0,0,12,,,,,,,,,,,,,,,15,,,62,0
23759,note_on,,59,0,5,,,,,,,,,,,,,,,0,,,76,0
23759,note_on,,119,0,12,,,,,,,,,,,,,,,15,,,47,0
23759,note_on,,119,0,11,,,,,,,,,,,,,,,13,,,47,0
23760,note_on,,1,0,11,,,,,,,,,,,,,,,13,,,54,64
23760,note_on,,1,0,12,,,,,,,,,,,,,,,15,,,54,64
23760,note_on,,0,0,12,,,,,,,,,,,,,,,15,,,61,64
23760,note_on,,1,0,5,,,,,,,,,,,,,,,0,,,73,64
23760,note_on,,1,0,8,,,,,,,,,,,,,,,10,,,73,64
23760,note_on,,1,0,7,,,,,,,,,,,,,,,2,,,54,64
23819,note_on,,59,0,5,,,,,,,,,,,,,,,0,,,73,0
23819,note_on,,59,0,8,,,,,,,,,,,,,,,10,,,73,0
23820,note_on,,1,0,8,,,,,,,,,,,,,,,10,,,78,64
23820,note_on,,1,0,5,,,,,,,,,,,,,,,0,,,78,64
23879,note_on,,59,0,8,,,,,,,,,,,,,,,10,,,78,0
23879,note_on,,119,0,11,,,,,,,,,,,,,,,13,,,54,0
23879,note_on,,119,0,7,,,,,,,,,,,,,,,2,,,54,0
23879,note_on,,239,0,6,,,,,,,,,,,,,,,1,,,71,0
23879,note_on,,0,0,12,,,,,,,,,,,,,,,15,,,54,0
23879,note_on,,119,0,12,,,,,,,,,,,,,,,15,,,59,0
23879,note_on,,239,0,9,,,,,,,,,,,,,,,11,,,71,0
23879,note_on,,59,0,5,,,,,,,,,,,,,,,0,,,78,0
23879,note_on,,239,0,10,,,,,,,,,,,,,,,12,,,66,0
23880,note_on,,1,0,11,,,,,,,,,,,,,,,13,,,42,64
23880,note_on,,1,0,9,,,,,,,,,,,,,,,11,,,70,64
23880,note_on,,1,0,5,,,,,,,,,,,,,,,0,,,76,64
23880,note_on,,1,0,8,,,,,,,,,,,,,,,10,,,76,64
23880,note_on,,1,0,10,,,,,,,,,,,,,,,12,,,66,64
23880,note_on,,1,0,6,,,,,,,,,,,,,,,1,,,70,64
23880,note_on,,1,0,12,,,,,,,,,,,,,,,15,,,42,64
23880,note_on,,0,0,12,,,,,,,,,,,,,,,15,,,58,64
23880,note_on,,1,0,7,,,,,,,,,,,,,,,2,,,42,64
23939,note_on,,59,0,5,,,,,,,,,,,,,,,0,,,76,0
23939,note_on,,59,0,8,,,,,,,,,,,,,,,10,,,76,0
23940,note_on,,1,0,8,,,,,,,,,,,,,,,10,,,78,64
23940,note_on,,1,0,5,,,,,,,,,,,,,,,0,,,78,64
23999,note_on,,119,0,6,,,,,,,,,,,,,,,1,,,70,0
23999,note_on,,119,0,10,,,,,,,,,,,,,,,12,,,66,0
23999,note_on,,119,0,9,,,,,,,,,,,,,,,11,,,70,0
23999,note_on,,119,0,7,,,,,,,,,,,,,,,2,,,42,0
23999,note_on,,119,0,11,,,,,,,,,,,,,,,13,,,42,0
23999,note_on,,119,0,12,,,,,,,,,,,,,,,15,,,66,0
23999,note_on,,0,0,12,,,,,,,,,,,,,,,15,,,61,0
23999,note_on,,59,0,5,,,,,,,,,,,,,,,0,,,78,0
23999,note_on,,0,0,12,,,,,,,,,,,,,,,15,,,42,0
23999,note_on,,59,0,8,,,,,,,,,,,,,,,10,,,78,0
23999,note_on,,0,0,12,,,,,,,,,,,,,,,15,,,58,0
24000,note_on,,1,0,12,,,,,,,,,,,,,,,15,,,47,64
24000,note_on,,1,0,6,,,,,,,,,,,,,,,1,,,71,64
24000,note_on,,0,0,12,,,,,,,,,,,,,,,15,,,63,64
24000,note_on,,1,0,10,,,,,,,,,,,,,,,12,,,66,64
24000,note_on,,1,0,7,,,,,,,,,,,,,,,2,,,47,64
24000,note_on,,0,0,12,,,,,,,,,,,,,,,15,,,59,64
24000,note_on,,1,0,9,,,,,,,,,,,,,,,11,,,71,64
24000,note_on,,1,0,11,,,,,,,,,,,,,,,13,,,47,64
24000,note_on,,1,0,5,,,,,,,,,,,,,,,0,,,75,64
24000,note_on,,1,0,8,,,,,,,,,,,,,,,10,,,75,64
24059,note_on,,59,0,5,,,,,,,,,,,,,,,0,,,75,0
24059,note_on,,59,0,8,,,,,,,,,,,,,,,10,,,75,0
24060,note_on,,1,0,5,,,,,,,,,,,,,,,0,,,79,64
24060,note_on,,1,0,8,,,,,,,,,,,,,,,10,,,79,64
24119,note_on,,119,0,7,,,,,,,,,,,,,,,2,,,47,0
24119,note_on,,59,0,8,,,,,,,,,,,,,,,10,,,79,0
24119,note_on,,119,0,6,,,,,,,,,,,,,,,1,,,71,0
24119,note_on,,119,0,10,,,,,,,,,,,,,,,12,,,66,0
24119,note_on,,119,0,11,,,,,,,,,,,,,,,13,,,47,0
24119,note_on,,59,0,5,,,,,,,,,,,,,,,0,,,79,0
24119,note_on,,119,0,12,,,,,,,,,,,,,,,15,,,47,0
24119,note_on,,119,0,9,,,,,,,,,,,,,,,11,,,71,0
24120,note_on,,1,0,11,,,,,,,,,,,,,,,13,,,59,64
24120,note_on,,1,0,8,,,,,,,,,,,,,,,10,,,78,64
24120,note_on,,1,0,9,,,,,,,,,,,,,,,11,,,75,64
24120,note_on,,1,0,10,,,,,,,,,,,,,,,12,,,59,64
24120,note_on,,1,0,6,,,,,,,,,,,,,,,1,,,75,64
24120,note_on,,1,0,5,,,,,,,,,,,,,,,0,,,78,64
24120,note_on,,1,0,7,,,,,,,,,,,,,,,2,,,59,64
24179,note_on,,59,0,5,,,,,,,,,,,,,,,0,,,78,0
24179,note_on,,59,0,8,,,,,,,,,,,,,,,10,,,78,0
24180,note_on,,1,0,8,,,,,,,,,,,,,,,10,,,79,64
24180,note_on,,1,0,5,,,,,,,,,,,,,,,0,,,79,64
24239,note_on,,0,0,12,,,,,,,,,,,,,,,15,,,63,0
24239,note_on,,120,0,12,,,,,,,,,,,,,,,15,,,59,0
24239,note_on,,119,0,10,,,,,,,,,,,,,,,12,,,59,0
24239,note_on,,59,0,8,,,,,,,,,,,,,,,10,,,79,0
24239,note_on,,59,0,5,,,,,,,,,,,,,,,0,,,79,0
24239,note_on,,119,0,6,,,,,,,,,,,,,,,1,,,75,0
24239,note_on,,119,0,9,,,,,,,,,,,,,,,11,,,75,0
24240,note_on,,1,0,12,,,,,,,,,,,,,,,15,,,63,64
24240,note_on,,0,0,12,,,,,,,,,,,,,,,15,,,66,64
24240,note_on,,1,0,8,,,,,,,,,,,,,,,10,,,75,64
24240,note_on,,1,0,5,,,,,,,,,,,,,,,0,,,75,64
24299,note_on,,59,0,8,,,,,,,,,,,,,,,10,,,75,0
24299,note_on,,59,0,5,,,,,,,,,,,,,,,0,,,75,0
24300,note_on,,61,0,6,,,,,,,,,,,,,,,1,,,75,64
24300,note_on,,1,0,5,,,,,,,,,,,,,,,0,,,79,64
24300,note_on,,61,0,9,,,,,,,,,,,,,,,11,,,75,64
24300,note_on,,61,0,10,,,,,,,,,,,,,,,12,,,71,64
24300,note_on,,1,0,8,,,,,,,,,,,,,,,10,,,79,64
24359,note_on,,59,0,5,,,,,,,,,,,,,,,0,,,79,0
24359,note_on,,59,0,10,,,,,,,,,,,,,,,12,,,71,0
24359,note_on,,239,0,7,,,,,,,,,,,,,,,2,,,59,0
24359,note_on,,59,0,9,,,,,,,,,,,,,,,11,,,75,0
24359,note_on,,59,0,6,,,,,,,,,,,,,,,1,,,75,0
24359,note_on,,239,0,11,,,,,,,,,,,,,,,13,,,59,0
24359,note_on,,59,0,8,,,,,,,,,,,,,,,10,,,79,0
24360,note_on,,1,0,10,,,,,,,,,,,,,,,12,,,71,64
24360,note_on,,1,0,9,,,,,,,,,,,,,,,11,,,75,64
24360,note_on,,1,0,5,,,,,,,,,,,,,,,0,,,78,64
24360,note_on,,120,0,12,,,,,,,,,,,,,,,15,,,47,64
24360,note_on,,1,0,8,,,,,,,,,,,,,,,10,,,78,64
24360,note_on,,1,0,7,,,,,,,,,,,,,,,2,,,47,64
24360,note_on,,1,0,6,,,,,,,,,,,,,,,1,,,75,64
24360,note_on,,0,0,12,,,,,,,,,,,,,,,15,,,59,64
24360,note_on,,1,0,11,,,,,,,,,,,,,,,13,,,47,64
24419,note_on,,59,0,5,,,,,,,,,,,,,,,0,,,78,0
24419,note_on,,59,0,9,,,,,,,,,,,,,,,11,,,75,0
24419,note_on,,59,0,6,,,,,,,,,,,,,,,1,,,75,0
24419,note_on,,59,0,10,,,,,,,,,,,,,,,12,,,71,0
24419,note_on,,59,0,8,,,,,,,,,,,,,,,10,,,78,0
24420,note_on,,1,0,6,,,,,,,,,,,,,,,1,,,75,64
24420,note_on,,1,0,10,,,,,,,,,,,,,,,12,,,71,64
24420,note_on,,1,0,8,,,,,,,,,,,,,,,10,,,79,64
24420,note_on,,1,0,5,,,,,,,,,,,,,,,0,,,79,64
24420,note_on,,1,0,9,,,,,,,,,,,,,,,11,,,75,64
24479,note_on,,119,0,7,,,,,,,,,,,,,,,2,,,47,0
24479,note_on,,59,0,6,,,,,,,,,,,,,,,1,,,75,0
24479,note_on,,59,0,5,,,,,,,,,,,,,,,0,,,79,0
24479,note_on,,59,0,10,,,,,,,,,,,,,,,12,,,71,0
24479,note_on,,119,0,11,,,,,,,,,,,,,,,13,,,47,0
24479,note_on,,59,0,8,,,,,,,,,,,,,,,10,,,79,0
24479,note_on,,119,0,12,,,,,,,,,,,,,,,15,,,63,0
24479,note_on,,0,0,12,,,,,,,,,,,,,,,15,,,66,0
24479,note_on,,0,0,12,,,,,,,,,,,,,,,15,,,47,0
24479,note_on,,0,0,12,,,,,,,,,,,,,,,15,,,59,0
24479,note_on,,59,0,9,,,,,,,,,,,,,,,11,,,75,0
24480,note_on,,1,0,8,,,,,,,,,,,,,,,10,,,76,64
24480,note_on,,1,0,5,,,,,,,,,,,,,,,0,,,76,64
24480,note_on,,1,0,12,,,,,,,,,,,,,,,15,,,48,64
24480,note_on,,0,0,12,,,,,,,,,,,,,,,15,,,64,64
24480,note_on,,1,0,11,,,,,,,,,,,,,,,13,,,48,64
24480,note_on,,0,0,12,,,,,,,,,,,,,,,15,,,52,64
24480,note_on,,1,0,7,,,,,,,,,,,,,,,2,,,48,64
24480,note_on,,0,0,12,,,,,,,,,,,,,,,15,,,57,64
24480,note_on,,1,0,10,,,,,,,,,,,,,,,12,,,64,64
24480,note_on,,1,0,9,,,,,,,,,,,,,,,11,,,76,64
24480,note_on,,1,0,6,,,,,,,,,,,,,,,1,,,76,64
24539,note_on,,59,0,8,,,,,,,,,,,,,,,10,,,76,0
24539,note_on,,59,0,5,,,,,,,,,,,,,,,0,,,76,0
24540,note_on,,1,0,5,,,,,,,,,,,,,,,0,,,81,64
24540,note_on,,1,0,8,,,,,,,,,,,,,,,10,,,81,64
24599,note_on,,59,0,5,,,,,,,,,,,,,,,0,,,81,0
24599,note_on,,119,0,6,,,,,,,,,,,,,,,1,,,76,0
24599,note_on,,59,0,8,,,,,,,,,,,,,,,10,,,81,0
24599,note_on,,119,0,9,,,,,,,,,,,,,,,11,,,76,0
24600,note_on,,1,0,6,,,,,,,,,,,,,,,1,,,64,64
24600,note_on,,1,0,5,,,,,,,,,,,,,,,0,,,79,64
24600,note_on,,1,0,8,,,,,,,,,,,,,,,10,,,79,64
24600,note_on,,1,0,9,,,,,,,,,,,,,,,11,,,64,64
24659,note_on,,59,0,8,,,,,,,,,,,,,,,10,,,79,0
24659,note_on,,59,0,5,,,,,,,,,,,,,,,0,,,79,0
24660,note_on,,1,0,8,,,,,,,,,,,,,,,10,,,81,64
24660,note_on,,1,0,5,,,,,,,,,,,,,,,0,,,81,64
24719,note_on,,59,0,5,,,,,,,,,,,,,,,0,,,81,0
24719,note_on,,59,0,8,,,,,,,,,,,,,,,10,,,81,0
24719,note_on,,119,0,9,,,,,,,,,,,,,,,11,,,64,0
24719,note_on,,239,0,11,,,,,,,,,,,,,,,13,,,48,0
24719,note_on,,239,0,10,,,,,,,,,,,,,,,12,,,64,0
24719,note_on,,239,0,12,,,,,,,,,,,,,,,15,,,48,0
24719,note_on,,0,0,12,,,,,,,,,,,,,,,15,,,64,0
24719,note_on,,0,0,12,,,,,,,,,,,,,,,15,,,57,0
24719,note_on,,0,0,12,,,,,,,,,,,,,,,15,,,52,0
24719,note_on,,239,0,7,,,,,,,,,,,,,,,2,,,48,0
24719,note_on,,119,0,6,,,,,,,,,,,,,,,1,,,64,0
24720,note_on,,1,0,7,,,,,,,,,,,,,,,2,,,49,64
24720,note_on,,1,0,8,,,,,,,,,,,,,,,10,,,76,64
24720,note_on,,1,0,5,,,,,,,,,,,,,,,0,,,76,64
24720,note_on,,0,0,12,,,,,,,,,,,,,,,15,,,57,64
24720,note_on,,0,0,12,,,,,,,,,,,,,,,15,,,64,64
24720,note_on,,0,0,12,,,,,,,,,,,,,,,15,,,69,64
24720,note_on,,1,0,12,,,,,,,,,,,,,,,15,,,49,64
24720,note_on,,0,0,12,,,,,,,,,,,,,,,15,,,52,64
24720,note_on,,1,0,11,,,,,,,,,,,,,,,13,,,49,64
24779,note_on,,59,0,8,,,,,,,,,,,,,,,10,,,76,0
24779,note_on,,59,0,5,,,,,,,,,,,,,,,0,,,76,0
24780,note_on,,1,0,5,,,,,,,,,,,,,,,0,,,81,64
24780,note_on,,61,0,10,,,,,,,,,,,,,,,12,,,73,64
24780,note_on,,61,0,9,,,,,,,,,,,,,,,11,,,76,64
24780,note_on,,1,0,8,,,,,,,,,,,,,,,10,,,81,64
24780,note_on,,61,0,6,,,,,,,,,,,,,,,1,,,76,64
24839,note_on,,59,0,9,,,,,,,,,,,,,,,11,,,76,0
24839,note_on,,59,0,8,,,,,,,,,,,,,,,10,,,81,0
24839,note_on,,59,0,10,,,,,,,,,,,,,,,12,,,73,0
24839,note_on,,59,0,6,,,,,,,,,,,,,,,1,,,76,0
24839,note_on,,59,0,5,,,,,,,,,,,,,,,0,,,81,0
24840,note_on,,1,0,10,,,,,,,,,,,,,,,12,,,71,64
24840,note_on,,1,0,6,,,,,,,,,,,,,,,1,,,74,64
24840,note_on,,1,0,9,,,,,,,,,,,,,,,11,,,74,64
24840,note_on,,1,0,8,,,,,,,,,,,,,,,10,,,79,64
24840,note_on,,1,0,5,,,,,,,,,,,,,,,0,,,79,64
24899,note_on,,59,0,5,,,,,,,,,,,,,,,0,,,79,0
24899,note_on,,59,0,10,,,,,,,,,,,,,,,12,,,71,0
24899,note_on,,59,0,9,,,,,,,,,,,,,,,11,,,74,0
24899,note_on,,59,0,6,,,,,,,,,,,,,,,1,,,74,0
24899,note_on,,59,0,8,,,,,,,,,,,,,,,10,,,79,0
24900,note_on,,1,0,8,,,,,,,,,,,,,,,10,,,81,64
24900,note_on,,1,0,10,,,,,,,,,,,,,,,12,,,73,64
24900,note_on,,1,0,9,,,,,,,,,,,,,,,11,,,76,64
24900,note_on,,1,0,6,,,,,,,,,,,,,,,1,,,76,64
24900,note_on,,1,0,5,,,,,,,,,,,,,,,0,,,81,64
24959,note_on,,239,0,11,,,,,,,,,,,,,,,13,,,49,0
24959,note_on,,59,0,9,,,,,,,,,,,,,,,11,,,76,0
24959,note_on,,59,0,6,,,,,,,,,,,,,,,1,,,76,0
24959,note_on,,59,0,10,,,,,,,,,,,,,,,12,,,73,0
24959,note_on,,59,0,5,,,,,,,,,,,,,,,0,,,81,0
24959,note_on,,0,0,12,,,,,,,,,,,,,,,15,,,52,0
24959,note_on,,0,0,12,,,,,,,,,,,,,,,15,,,57,0
24959,note_on,,0,0,12,,,,,,,,,,,,,,,15,,,64,0
24959,note_on,,0,0,12,,,,,,,,,,,,,,,15,,,69,0
24959,note_on,,239,0,12,,,,,,,,,,,,,,,15,,,49,0
24959,note_on,,59,0,8,,,,,,,,,,,,,,,10,,,81,0
24959,note_on,,239,0,7,,,,,,,,,,,,,,,2,,,49,0
24960,note_on,,1,0,6,,,,,,,,,,,,,,,1,,,69,64
24960,note_on,,0,0,12,,,,,,,,,,,,,,,15,,,66,64
24960,note_on,,1,0,12,,,,,,,,,,,,,,,15,,,50,64
24960,note_on,,1,0,10,,,,,,,,,,,,,,,12,,,66,64
24960,note_on,,1,0,5,,,,,,,,,,,,,,,0,,,78,64
24960,note_on,,1,0,11,,,,,,,,,,,,,,,13,,,50,64
24960,note_on,,0,0,12,,,,,,,,,,,,,,,15,,,62,64
24960,note_on,,1,0,8,,,,,,,,,,,,,,,10,,,78,64
24960,note_on,,1,0,9,,,,,,,,,,,,,,,11,,,69,64
24960,note_on,,1,0,7,,,,,,,,,,,,,,,2,,,50,64
24960,note_on,,0,0,12,,,,,,,,,,,,,,,15,,,54,64
25019,note_on,,59,0,5,,,,,,,,,,,,,,,0,,,78,0
25019,note_on,,59,0,8,,,,,,,,,,,,,,,10,,,78,0
25020,note_on,,1,0,5,,,,,,,,,,,,,,,0,,,83,64
25020,note_on,,1,0,8,,,,,,,,,,,,,,,10,,,83,64
25079,note_on,,119,0,10,,,,,,,,,,,,,,,12,,,66,0
25079,note_on,,59,0,5,,,,,,,,,,,,,,,0,,,83,0
25079,note_on,,119,0,9,,,,,,,,,,,,,,,11,,,69,0
25079,note_on,,59,0,8,,,,,,,,,,,,,,,10,,,83,0
25079,note_on,,119,0,6,,,,,,,,,,,,,,,1,,,69,0
25080,note_on,,1,0,6,,,,,,,,,,,,,,,1,,,66,64
25080,note_on,,1,0,10,,,,,,,,,,,,,,,12,,,59,64
25080,note_on,,1,0,8,,,,,,,,,,,,,,,10,,,81,64
25080,note_on,,1,0,9,,,,,,,,,,,,,,,11,,,66,64
25080,note_on,,1,0,5,,,,,,,,,,,,,,,0,,,81,64
25139,note_on,,59,0,8,,,,,,,,,,,,,,,10,,,81,0
25139,note_on,,59,0,5,,,,,,,,,,,,,,,0,,,81,0
25140,note_on,,1,0,5,,,,,,,,,,,,,,,0,,,83,64
25140,note_on,,1,0,8,,,,,,,,,,,,,,,10,,,83,64
25199,note_on,,119,0,10,,,,,,,,,,,,,,,12,,,59,0
25199,note_on,,119,0,6,,,,,,,,,,,,,,,1,,,66,0
25199,note_on,,119,0,9,,,,,,,,,,,,,,,11,,,66,0
25199,note_on,,239,0,12,,,,,,,,,,,,,,,15,,,50,0
25199,note_on,,0,0,12,,,,,,,,,,,,,,,15,,,66,0
25199,note_on,,0,0,12,,,,,,,,,,,,,,,15,,,62,0
25199,note_on,,0,0,12,,,,,,,,,,,,,,,15,,,54,0
25199,note_on,,239,0,7,,,,,,,,,,,,,,,2,,,50,0
25199,note_on,,59,0,5,,,,,,,,,,,,,,,0,,,83,0
25199,note_on,,59,0,8,,,,,,,,,,,,,,,10,,,83,0
25199,note_on,,239,0,11,,,,,,,,,,,,,,,13,,,50,0
25200,note_on,,0,0,12,,,,,,,,,,,,,,,15,,,71,64
25200,note_on,,1,0,8,,,,,,,,,,,,,,,10,,,78,64
25200,note_on,,1,0,12,,,,,,,,,,,,,,,15,,,51,64
25200,note_on,,1,0,11,,,,,,,,,,,,,,,13,,,51,64
25200,note_on,,0,0,12,,,,,,,,,,,,,,,15,,,59,64
25200,note_on,,1,0,5,,,,,,,,,,,,,,,0,,,78,64
25200,note_on,,0,0,12,,,,,,,,,,,,,,,15,,,66,64
25200,note_on,,1,0,7,,,,,,,,,,,,,,,2,,,51,64
25259,note_on,,59,0,5,,,,,,,,,,,,,,,0,,,78,0
25259,note_on,,59,0,8,,,,,,,,,,,,,,,10,,,78,0
25260,note_on,,61,0,10,,,,,,,,,,,,,,,12,,,63,64
25260,note_on,,61,0,6,,,,,,,,,,,,,,,1,,,78,64
25260,note_on,,61,0,9,,,,,,,,,,,,,,,11,,,78,64
25260,note_on,,1,0,5,,,,,,,,,,,,,,,0,,,83,64
25260,note_on,,1,0,8,,,,,,,,,,,,,,,10,,,83,64
25319,note_on,,59,0,10,,,,,,,,,,,,,,,12,,,63,0
25319,note_on,,59,0,6,,,,,,,,,,,,,,,1,,,78,0
25319,note_on,,59,0,8,,,,,,,,,,,,,,,10,,,83,0
25319,note_on,,59,0,9,,,,,,,,,,,,,,,11,,,78,0
25319,note_on,,59,0,5,,,,,,,,,,,,,,,0,,,83,0
25320,note_on,,1,0,8,,,,,,,,,,,,,,,10,,,81,64
25320,note_on,,1,0,9,,,,,,,,,,,,,,,11,,,76,64
25320,note_on,,1,0,10,,,,,,,,,,,,,,,12,,,61,64
25320,note_on,,1,0,6,,,,,,,,,,,,,,,1,,,76,64
25320,note_on,,1,0,5,,,,,,,,,,,,,,,0,,,81,64
25379,note_on,,59,0,10,,,,,,,,,,,,,,,12,,,61,0
25379,note_on,,59,0,9,,,,,,,,,,,,,,,11,,,76,0
25379,note_on,,59,0,8,,,,,,,,,,,,,,,10,,,81,0
25379,note_on,,59,0,5,,,,,,,,,,,,,,,0,,,81,0
25379,note_on,,59,0,6,,,,,,,,,,,,,,,1,,,76,0
25380,note_on,,1,0,6,,,,,,,,,,,,,,,1,,,78,64
25380,note_on,,1,0,9,,,,,,,,,,,,,,,11,,,78,64
25380,note_on,,1,0,5,,,,,,,,,,,,,,,0,,,83,64
25380,note_on,,1,0,8,,,,,,,,,,,,,,,10,,,83,64
25380,note_on,,1,0,10,,,,,,,,,,,,,,,12,,,63,64
25439,note_on,,59,0,6,,,,,,,,,,,,,,,1,,,78,0
25439,note_on,,239,0,12,,,,,,,,,,,,,,,15,,,51,0
25439,note_on,,59,0,8,,,,,,,,,,,,,,,10,,,83,0
25439,note_on,,239,0,7,,,,,,,,,,,,,,,2,,,51,0
25439,note_on,,0,0,12,,,,,,,,,,,,,,,15,,,59,0
25439,note_on,,59,0,5,,,,,,,,,,,,,,,0,,,83,0
25439,note_on,,59,0,10,,,,,,,,,,,,,,,12,,,63,0
25439,note_on,,239,0,11,,,,,,,,,,,,,,,13,,,51,0
25439,note_on,,59,0,9,,,,,,,,,,,,,,,11,,,78,0
25439,note_on,,0,0,12,,,,,,,,,,,,,,,15,,,71,0
25439,note_on,,0,0,12,,,,,,,,,,,,,,,15,,,66,0
25440,note_on,,0,0,12,,,,,,,,,,,,,,,15,,,55,64
25440,note_on,,0,0,12,,,,,,,,,,,,,,,15,,,64,64
25440,note_on,,0,0,12,,,,,,,,,,,,,,,15,,,67,64
25440,note_on,,1,0,12,,,,,,,,,,,,,,,15,,,52,64
25440,note_on,,1,0,5,,,,,,,,,,,,,,,0,,,79,64
25440,note_on,,1,0,11,,,,,,,,,,,,,,,13,,,52,64
25440,note_on,,1,0,6,,,,,,,,,,,,,,,1,,,79,64
25440,note_on,,1,0,10,,,,,,,,,,,,,,,12,,,59,64
25440,note_on,,1,0,8,,,,,,,,,,,,,,,10,,,79,64
25440,note_on,,1,0,9,,,,,,,,,,,,,,,11,,,79,64
25440,note_on,,1,0,7,,,,,,,,,,,,,,,2,,,52,64
25499,note_on,,59,0,5,,,,,,,,,,,,,,,0,,,79,0
25499,note_on,,59,0,8,,,,,,,,,,,,,,,10,,,79,0
25500,note_on,,1,0,5,,,,,,,,,,,,,,,0,,,84,64
25500,note_on,,1,0,8,,,,,,,,,,,,,,,10,,,84,64
25559,note_on,,59,0,5,,,,,,,,,,,,,,,0,,,84,0
25559,note_on,,119,0,9,,,,,,,,,,,,,,,11,,,79,0
25559,note_on,,119,0,6,,,,,,,,,,,,,,,1,,,79,0
25559,note_on,,119,0,10,,,,,,,,,,,,,,,12,,,59,0
25559,note_on,,59,0,8,,,,,,,,,,,,,,,10,,,84,0
25560,note_on,,1,0,5,,,,,,,,,,,,,,,0,,,83,64
25560,note_on,,1,0,9,,,,,,,,,,,,,,,11,,,76,64
25560,note_on,,1,0,10,,,,,,,,,,,,,,,12,,,64,64
25560,note_on,,1,0,6,,,,,,,,,,,,,,,1,,,76,64
25560,note_on,,1,0,8,,,,,,,,,,,,,,,10,,,83,64
25619,note_on,,59,0,5,,,,,,,,,,,,,,,0,,,83,0
25619,note_on,,59,0,8,,,,,,,,,,,,,,,10,,,83,0
25620,note_on,,1,0,5,,,,,,,,,,,,,,,0,,,84,64
25620,note_on,,1,0,8,,,,,,,,,,,,,,,10,,,84,64
25679,note_on,,0,0,12,,,,,,,,,,,,,,,15,,,64,0
25679,note_on,,119,0,9,,,,,,,,,,,,,,,11,,,76,0
25679,note_on,,239,0,12,,,,,,,,,,,,,,,15,,,52,0
25679,note_on,,0,0,12,,,,,,,,,,,,,,,15,,,67,0
25679,note_on,,119,0,10,,,,,,,,,,,,,,,12,,,64,0
25679,note_on,,239,0,11,,,,,,,,,,,,,,,13,,,52,0
25679,note_on,,239,0,7,,,,,,,,,,,,,,,2,,,52,0
25679,note_on,,59,0,5,,,,,,,,,,,,,,,0,,,84,0
25679,note_on,,0,0,12,,,,,,,,,,,,,,,15,,,55,0
25679,note_on,,119,0,6,,,,,,,,,,,,,,,1,,,76,0
25679,note_on,,59,0,8,,,,,,,,,,,,,,,10,,,84,0
25680,note_on,,1,0,8,,,,,,,,,,,,,,,10,,,79,64
25680,note_on,,1,0,5,,,,,,,,,,,,,,,0,,,79,64
25739,note_on,,59,0,8,,,,,,,,,,,,,,,10,,,79,0
25739,note_on,,59,0,5,,,,,,,,,,,,,,,0,,,79,0
25740,note_on,,1,0,8,,,,,,,,,,,,,,,10,,,84,64
25740,note_on,,61,0,6,,,,,,,,,,,,,,,1,,,76,64
25740,note_on,,1,0,5,,,,,,,,,,,,,,,0,,,84,64
25740,note_on,,61,0,9,,,,,,,,,,,,,,,11,,,76,64
25799,note_on,,59,0,5,,,,,,,,,,,,,,,0,,,84,0
25799,note_on,,59,0,9,,,,,,,,,,,,,,,11,,,76,0
25799,note_on,,59,0,6,,,,,,,,,,,,,,,1,,,76,0
25799,note_on,,59,0,8,,,,,,,,,,,,,,,10,,,84,0
25800,note_on,,0,0,12,,,,,,,,,,,,,,,15,,,60,64
25800,note_on,,0,0,12,,,,,,,,,,,,,,,15,,,64,64
25800,note_on,,0,0,12,,,,,,,,,,,,,,,15,,,67,64
25800,note_on,,121,0,10,,,,,,,,,,,,,,,12,,,67,64
25800,note_on,,121,0,11,,,,,,,,,,,,,,,13,,,52,64
25800,note_on,,1,0,6,,,,,,,,,,,,,,,1,,,74,64
25800,note_on,,121,0,12,,,,,,,,,,,,,,,15,,,52,64
25800,note_on,,121,0,7,,,,,,,,,,,,,,,2,,,52,64
25800,note_on,,1,0,5,,,,,,,,,,,,,,,0,,,83,64
25800,note_on,,1,0,9,,,,,,,,,,,,,,,11,,,74,64
25800,note_on,,1,0,8,,,,,,,,,,,,,,,10,,,83,64
25859,note_on,,59,0,5,,,,,,,,,,,,,,,0,,,83,0
25859,note_on,,59,0,8,,,,,,,,,,,,,,,10,,,83,0
25859,note_on,,59,0,6,,,,,,,,,,,,,,,1,,,74,0
25859,note_on,,59,0,9,,,,,,,,,,,,,,,11,,,74,0
25860,note_on,,1,0,8,,,,,,,,,,,,,,,10,,,84,64
25860,note_on,,1,0,6,,,,,,,,,,,,,,,1,,,76,64
25860,note_on,,1,0,5,,,,,,,,,,,,,,,0,,,84,64
25860,note_on,,1,0,9,,,,,,,,,,,,,,,11,,,76,64
25919,note_on,,59,0,6,,,,,,,,,,,,,,,1,,,76,0
25919,note_on,,119,0,12,,,,,,,,,,,,,,,15,,,52,0
25919,note_on,,119,0,11,,,,,,,,,,,,,,,13,,,52,0
25919,note_on,,0,0,12,,,,,,,,,,,,,,,15,,,67,0
25919,note_on,,59,0,8,,,,,,,,,,,,,,,10,,,84,0
25919,note_on,,59,0,5,,,,,,,,,,,,,,,0,,,84,0
25919,note_on,,0,0,12,,,,,,,,,,,,,,,15,,,60,0
25919,note_on,,119,0,10,,,,,,,,,,,,,,,12,,,67,0
25919,note_on,,119,0,7,,,,,,,,,,,,,,,2,,,52,0
25919,note_on,,59,0,9,,,,,,,,,,,,,,,11,,,76,0
25919,note_on,,0,0,12,,,,,,,,,,,,,,,15,,,64,0
25920,note_on,,1,0,6,,,,,,,,,,,,,,,1,,,69,64
25920,note_on,,1,0,7,,,,,,,,,,,,,,,2,,,54,64
25920,note_on,,1,0,5,,,,,,,,,,,,,,,0,,,81,64
25920,note_on,,1,0,12,,,,,,,,,,,,,,,15,,,54,64
25920,note_on,,1,0,10,,,,,,,,,,,,,,,12,,,74,64
25920,note_on,,1,0,11,,,,,,,,,,,,,,,13,,,54,64
25920,note_on,,1,0,9,,,,,,,,,,,,,,,11,,,69,64
25920,note_on,,0,0,12,,,,,,,,,,,,,,,15,,,69,64
25920,note_on,,0,0,12,,,,,,,,,,,,,,,15,,,62,64
25920,note_on,,1,0,8,,,,,,,,,,,,,,,10,,,81,64
25920,note_on,,0,0,12,,,,,,,,,,,,,,,15,,,57,64
25979,note_on,,59,0,9,,,,,,,,,,,,,,,11,,,69,0
25979,note_on,,59,0,5,,,,,,,,,,,,,,,0,,,81,0
25979,note_on,,59,0,6,,,,,,,,,,,,,,,1,,,69,0
25979,note_on,,59,0,8,,,,,,,,,,,,,,,10,,,81,0
25980,note_on,,1,0,6,,,,,,,,,,,,,,,1,,,78,64
25980,note_on,,1,0,9,,,,,,,,,,,,,,,11,,,78,64
25980,note_on,,1,0,8,,,,,,,,,,,,,,,10,,,86,64
25980,note_on,,1,0,5,,,,,,,,,,,,,,,0,,,86,64
26039,note_on,,59,0,6,,,,,,,,,,,,,,,1,,,78,0
26039,note_on,,59,0,5,,,,,,,,,,,,,,,0,,,86,0
26039,note_on,,59,0,9,,,,,,,,,,,,,,,11,,,78,0
26039,note_on,,119,0,10,,,,,,,,,,,,,,,12,,,74,0
26039,note_on,,59,0,8,,,,,,,,,,,,,,,10,,,86,0
26040,note_on,,1,0,5,,,,,,,,,,,,,,,0,,,84,64
26040,note_on,,1,0,10,,,,,,,,,,,,,,,12,,,69,64
26040,note_on,,1,0,9,,,,,,,,,,,,,,,11,,,76,64
26040,note_on,,1,0,6,,,,,,,,,,,,,,,1,,,76,64
26040,note_on,,1,0,8,,,,,,,,,,,,,,,10,,,84,64
26099,note_on,,59,0,5,,,,,,,,,,,,,,,0,,,84,0
26099,note_on,,59,0,6,,,,,,,,,,,,,,,1,,,76,0
26099,note_on,,59,0,9,,,,,,,,,,,,,,,11,,,76,0
26099,note_on,,59,0,8,,,,,,,,,,,,,,,10,,,84,0
26100,note_on,,1,0,5,,,,,,,,,,,,,,,0,,,86,64
26100,note_on,,1,0,6,,,,,,,,,,,,,,,1,,,78,64
26100,note_on,,1,0,9,,,,,,,,,,,,,,,11,,,78,64
26100,note_on,,1,0,8,,,,,,,,,,,,,,,10,,,86,64
26159,note_on,,59,0,8,,,,,,,,,,,,,,,10,,,86,0
26159,note_on,,239,0,12,,,,,,,,,,,,,,,15,,,54,0
26159,note_on,,0,0,12,,,,,,,,,,,,,,,15,,,62,0
26159,note_on,,0,0,12,,,,,,,,,,,,,,,15,,,69,0
26159,note_on,,239,0,7,,,,,,,,,,,,,,,2,,,54,0
26159,note_on,,59,0,9,,,,,,,,,,,,,,,11,,,78,0
26159,note_on,,239,0,11,,,,,,,,,,,,,,,13,,,54,0
26159,note_on,,59,0,5,,,,,,,,,,,,,,,0,,,86,0
26159,note_on,,0,0,12,,,,,,,,,,,,,,,15,,,57,0
26159,note_on,,59,0,6,,,,,,,,,,,,,,,1,,,78,0
26159,note_on,,119,0,10,,,,,,,,,,,,,,,12,,,69,0
26160,note_on,,1,0,5,,,,,,,,,,,,,,,0,,,81,64
26160,note_on,,1,0,8,,,,,,,,,,,,,,,10,,,81,64
26160,note_on,,1,0,6,,,,,,,,,,,,,,,1,,,69,64
26160,note_on,,1,0,10,,,,,,,,,,,,,,,12,,,74,64
26160,note_on,,1,0,9,,,,,,,,,,,,,,,11,,,69,64
26219,note_on,,59,0,8,,,,,,,,,,,,,,,10,,,81,0
26219,note_on,,59,0,5,,,,,,,,,,,,,,,0,,,81,0
26219,note_on,,59,0,6,,,,,,,,,,,,,,,1,,,69,0
26219,note_on,,59,0,9,,,,,,,,,,,,,,,11,,,69,0
26220,note_on,,1,0,9,,,,,,,,,,,,,,,11,,,78,64
26220,note_on,,1,0,8,,,,,,,,,,,,,,,10,,,86,64
26220,note_on,,1,0,5,,,,,,,,,,,,,,,0,,,86,64
26220,note_on,,1,0,6,,,,,,,,,,,,,,,1,,,78,64
26279,note_on,,59,0,9,,,,,,,,,,,,,,,11,,,78,0
26279,note_on,,59,0,8,,,,,,,,,,,,,,,10,,,86,0
26279,note_on,,119,0,10,,,,,,,,,,,,,,,12,,,74,0
26279,note_on,,59,0,5,,,,,,,,,,,,,,,0,,,86,0
26279,note_on,,59,0,6,,,,,,,,,,,,,,,1,,,78,0
26280,note_on,,1,0,8,,,,,,,,,,,,,,,10,,,84,64
26280,note_on,,0,0,12,,,,,,,,,,,,,,,15,,,57,64
26280,note_on,,1,0,10,,,,,,,,,,,,,,,12,,,62,64
26280,note_on,,1,0,9,,,,,,,,,,,,,,,11,,,76,64
26280,note_on,,121,0,12,,,,,,,,,,,,,,,15,,,54,64
26280,note_on,,0,0,12,,,,,,,,,,,,,,,15,,,74,64
26280,note_on,,0,0,12,,,,,,,,,,,,,,,15,,,69,64
26280,note_on,,121,0,7,,,,,,,,,,,,,,,2,,,54,64
26280,note_on,,1,0,5,,,,,,,,,,,,,,,0,,,84,64
26280,note_on,,121,0,11,,,,,,,,,,,,,,,13,,,54,64
26280,note_on,,0,0,12,,,,,,,,,,,,,,,15,,,62,64
26280,note_on,,1,0,6,,,,,,,,,,,,,,,1,,,76,64
26339,note_on,,59,0,6,,,,,,,,,,,,,,,1,,,76,0
26339,note_on,,59,0,8,,,,,,,,,,,,,,,10,,,84,0
26339,note_on,,59,0,9,,,,,,,,,,,,,,,11,,,76,0
26339,note_on,,59,0,5,,,,,,,,,,,,,,,0,,,84,0
26340,note_on,,1,0,8,,,,,,,,,,,,,,,10,,,86,64
26340,note_on,,1,0,9,,,,,,,,,,,,,,,11,,,78,64
26340,note_on,,1,0,5,,,,,,,,,,,,,,,0,,,86,64
26340,note_on,,1,0,6,,,,,,,,,,,,,,,1,,,78,64
26399,note_on,,59,0,6,,,,,,,,,,,,,,,1,,,78,0
26399,note_on,,59,0,8,,,,,,,,,,,,,,,10,,,86,0
26399,note_on,,119,0,7,,,,,,,,,,,,,,,2,,,54,0
26399,note_on,,119,0,11,,,,,,,,,,,,,,,13,,,54,0
26399,note_on,,0,0,12,,,,,,,,,,,,,,,15,,,57,0
26399,note_on,,0,0,12,,,,,,,,,,,,,,,15,,,62,0
26399,note_on,,119,0,10,,,,,,,,,,,,,,,12,,,62,0
26399,note_on,,59,0,9,,,,,,,,,,,,,,,11,,,78,0
26399,note_on,,59,0,5,,,,,,,,,,,,,,,0,,,86,0
26399,note_on,,0,0,12,,,,,,,,,,,,,,,15,,,74,0
26399,note_on,,119,0,12,,,,,,,,,,,,,,,15,,,54,0
26399,note_on,,0,0,12,,,,,,,,,,,,,,,15,,,69,0
26400,note_on,,1,0,10,,,,,,,,,,,,,,,12,,,67,64
26400,note_on,,1,0,6,,,,,,,,,,,,,,,1,,,74,64
26400,note_on,,1,0,12,,,,,,,,,,,,,,,15,,,55,64
26400,note_on,,1,0,9,,,,,,,,,,,,,,,11,,,74,64
26400,note_on,,0,0,12,,,,,,,,,,,,,,,15,,,74,64
26400,note_on,,0,0,12,,,,,,,,,,,,,,,15,,,71,64
26400,note_on,,0,0,12,,,,,,,,,,,,,,,15,,,67,64
26400,note_on,,1,0,8,,,,,,,,,,,,,,,10,,,83,64
26400,note_on,,1,0,11,,,,,,,,,,,,,,,13,,,55,64
26400,note_on,,1,0,7,,,,,,,,,,,,,,,2,,,55,64
26400,note_on,,1,0,5,,,,,,,,,,,,,,,0,,,83,64
26519,note_on,,119,0,5,,,,,,,,,,,,,,,0,,,83,0
26519,note_on,,119,0,6,,,,,,,,,,,,,,,1,,,74,0
26519,note_on,,119,0,9,,,,,,,,,,,,,,,11,,,74,0
26519,note_on,,119,0,8,,,,,,,,,,,,,,,10,,,83,0
26520,note_on,,1,0,6,,,,,,,,,,,,,,,1,,,76,64
26520,note_on,,1,0,5,,,,,,,,,,,,,,,0,,,84,64
26520,note_on,,1,0,9,,,,,,,,,,,,,,,11,,,76,64
26520,note_on,,1,0,8,,,,,,,,,,,,,,,10,,,84,64
26579,note_on,,59,0,8,,,,,,,,,,,,,,,10,,,84,0
26579,note_on,,59,0,5,,,,,,,,,,,,,,,0,,,84,0
26579,note_on,,59,0,9,,,,,,,,,,,,,,,11,,,76,0
26579,note_on,,59,0,6,,,,,,,,,,,,,,,1,,,76,0
26580,note_on,,1,0,8,,,,,,,,,,,,,,,10,,,83,64
26580,note_on,,1,0,9,,,,,,,,,,,,,,,11,,,74,64
26580,note_on,,1,0,5,,,,,,,,,,,,,,,0,,,83,64
26580,note_on,,1,0,6,,,,,,,,,,,,,,,1,,,74,64
26639,note_on,,239,0,7,,,,,,,,,,,,,,,2,,,55,0
26639,note_on,,239,0,10,,,,,,,,,,,,,,,12,,,67,0
26639,note_on,,59,0,5,,,,,,,,,,,,,,,0,,,83,0
26639,note_on,,59,0,6,,,,,,,,,,,,,,,1,,,74,0
26639,note_on,,0,0,12,,,,,,,,,,,,,,,15,,,71,0
26639,note_on,,59,0,9,,,,,,,,,,,,,,,11,,,74,0
26639,note_on,,0,0,12,,,,,,,,,,,,,,,15,,,67,0
26639,note_on,,0,0,12,,,,,,,,,,,,,,,15,,,74,0
26639,note_on,,239,0,12,,,,,,,,,,,,,,,15,,,55,0
26639,note_on,,239,0,11,,,,,,,,,,,,,,,13,,,55,0
26639,note_on,,59,0,8,,,,,,,,,,,,,,,10,,,83,0
26640,note_on,,1,0,5,,,,,,,,,,,,,,,0,,,81,64
26640,note_on,,1,0,12,,,,,,,,,,,,,,,15,,,57,64
26640,note_on,,0,0,12,,,,,,,,,,,,,,,15,,,72,64
26640,note_on,,0,0,12,,,,,,,,,,,,,,,15,,,69,64
26640,note_on,,0,0,12,,,,,,,,,,,,,,,15,,,64,64
26640,note_on,,1,0,8,,,,,,,,,,,,,,,10,,,81,64
26640,note_on,,1,0,6,,,,,,,,,,,,,,,1,,,72,64
26640,note_on,,1,0,11,,,,,,,,,,,,,,,13,,,57,64
26640,note_on,,1,0,9,,,,,,,,,,,,,,,11,,,72,64
26640,note_on,,1,0,7,,,,,,,,,,,,,,,2,,,57,64
26640,note_on,,1,0,10,,,,,,,,,,,,,,,12,,,64,64
26699,note_on,,59,0,6,,,,,,,,,,,,,,,1,,,72,0
26699,note_on,,59,0,8,,,,,,,,,,,,,,,10,,,81,0
26699,note_on,,59,0,5,,,,,,,,,,,,,,,0,,,81,0
26699,note_on,,59,0,9,,,,,,,,,,,,,,,11,,,72,0
26700,note_on,,1,0,5,,,,,,,,,,,,,,,0,,,79,64
26700,note_on,,1,0,6,,,,,,,,,,,,,,,1,,,71,64
26700,note_on,,1,0,8,,,,,,,,,,,,,,,10,,,79,64
26700,note_on,,1,0,9,,,,,,,,,,,,,,,11,,,71,64
26759,note_on,,119,0,10,,,,,,,,,,,,,,,12,,,64,0
26759,note_on,,119,0,12,,,,,,,,,,,,,,,15,,,64,0
26759,note_on,,59,0,8,,,,,,,,,,,,,,,10,,,79,0
26759,note_on,,59,0,9,,,,,,,,,,,,,,,11,,,71,0
26759,note_on,,59,0,5,,,,,,,,,,,,,,,0,,,79,0
26759,note_on,,59,0,6,,,,,,,,,,,,,,,1,,,71,0
26760,note_on,,1,0,12,,,,,,,,,,,,,,,15,,,66,64
26760,note_on,,1,0,6,,,,,,,,,,,,,,,1,,,69,64
26760,note_on,,1,0,10,,,,,,,,,,,,,,,12,,,66,64
26760,note_on,,1,0,9,,,,,,,,,,,,,,,11,,,69,64
26760,note_on,,1,0,5,,,,,,,,,,,,,,,0,,,78,64
26760,note_on,,1,0,8,,,,,,,,,,,,,,,10,,,78,64
26819,note_on,,59,0,6,,,,,,,,,,,,,,,1,,,69,0
26819,note_on,,59,0,9,,,,,,,,,,,,,,,11,,,69,0
26819,note_on,,59,0,5,,,,,,,,,,,,,,,0,,,78,0
26819,note_on,,59,0,8,,,,,,,,,,,,,,,10,,,78,0
26820,note_on,,1,0,6,,,,,,,,,,,,,,,1,,,72,64
26820,note_on,,1,0,9,,,,,,,,,,,,,,,11,,,72,64
26820,note_on,,1,0,8,,,,,,,,,,,,,,,10,,,76,64
26820,note_on,,1,0,5,,,,,,,,,,,,,,,0,,,76,64
26879,note_on,,119,0,12,,,,,,,,,,,,,,,15,,,57,0
26879,note_on,,59,0,6,,,,,,,,,,,,,,,1,,,72,0
26879,note_on,,119,0,10,,,,,,,,,,,,,,,12,,,66,0
26879,note_on,,59,0,9,,,,,,,,,,,,,,,11,,,72,0
26879,note_on,,59,0,8,,,,,,,,,,,,,,,10,,,76,0
26879,note_on,,0,0,12,,,,,,,,,,,,,,,15,,,72,0
26879,note_on,,59,0,5,,,,,,,,,,,,,,,0,,,76,0
26879,note_on,,239,0,7,,,,,,,,,,,,,,,2,,,57,0
26879,note_on,,0,0,12,,,,,,,,,,,,,,,15,,,69,0
26879,note_on,,0,0,12,,,,,,,,,,,,,,,15,,,66,0
26879,note_on,,239,0,11,,,,,,,,,,,,,,,13,,,57,0
26880,note_on,,1,0,11,,,,,,,,,,,,,,,13,,,59,64
26880,note_on,,1,0,10,,,,,,,,,,,,,,,12,,,67,64
26880,note_on,,0,0,12,,,,,,,,,,,,,,,15,,,62,64
26880,note_on,,1,0,5,,,,,,,,,,,,,,,0,,,74,64
26880,note_on,,0,0,12,,,,,,,,,,,,,,,15,,,67,64
26880,note_on,,0,0,12,,,,,,,,,,,,,,,15,,,71,64
26880,note_on,,1,0,12,,,,,,,,,,,,,,,15,,,59,64
26880,note_on,,1,0,8,,,,,,,,,,,,,,,10,,,74,64
26880,note_on,,1,0,6,,,,,,,,,,,,,,,1,,,62,64
26880,note_on,,1,0,9,,,,,,,,,,,,,,,11,,,62,64
26880,note_on,,1,0,7,,,,,,,,,,,,,,,2,,,59,64
26999,note_on,,119,0,7,,,,,,,,,,,,,,,2,,,59,0
26999,note_on,,119,0,12,,,,,,,,,,,,,,,15,,,59,0
26999,note_on,,119,0,8,,,,,,,,,,,,,,,10,,,74,0
26999,note_on,,119,0,11,,,,,,,,,,,,,,,13,,,59,0
26999,note_on,,119,0,9,,,,,,,,,,,,,,,11,,,62,0
26999,note_on,,119,0,5,,,,,,,,,,,,,,,0,,,74,0
26999,note_on,,119,0,10,,,,,,,,,,,,,,,12,,,67,0
26999,note_on,,119,0,6,,,,,,,,,,,,,,,1,,,62,0
27000,note_on,,1,0,8,,,,,,,,,,,,,,,10,,,76,64
27000,note_on,,1,0,6,,,,,,,,,,,,,,,1,,,67,64
27000,note_on,,1,0,9,,,,,,,,,,,,,,,11,,,67,64
27000,note_on,,1,0,7,,,,,,,,,,,,,,,2,,,60,64
27000,note_on,,1,0,10,,,,,,,,,,,,,,,12,,,67,64
27000,note_on,,1,0,5,,,,,,,,,,,,,,,0,,,76,64
27000,note_on,,1,0,11,,,,,,,,,,,,,,,13,,,60,64
27000,note_on,,1,0,12,,,,,,,,,,,,,,,15,,,60,64
27059,note_on,,59,0,11,,,,,,,,,,,,,,,13,,,60,0
27059,note_on,,59,0,7,,,,,,,,,,,,,,,2,,,60,0
27059,note_on,,59,0,8,,,,,,,,,,,,,,,10,,,76,0
27059,note_on,,59,0,12,,,,,,,,,,,,,,,15,,,60,0
27059,note_on,,59,0,5,,,,,,,,,,,,,,,0,,,76,0
27060,note_on,,1,0,11,,,,,,,,,,,,,,,13,,,59,64
27060,note_on,,1,0,8,,,,,,,,,,,,,,,10,,,74,64
27060,note_on,,1,0,5,,,,,,,,,,,,,,,0,,,74,64
27060,note_on,,1,0,12,,,,,,,,,,,,,,,15,,,59,64
27060,note_on,,1,0,7,,,,,,,,,,,,,,,2,,,59,64
27119,note_on,,59,0,12,,,,,,,,,,,,,,,15,,,71,0
27119,note_on,,59,0,7,,,,,,,,,,,,,,,2,,,59,0
27119,note_on,,59,0,8,,,,,,,,,,,,,,,10,,,74,0
27119,note_on,,0,0,12,,,,,,,,,,,,,,,15,,,67,0
27119,note_on,,59,0,5,,,,,,,,,,,,,,,0,,,74,0
27119,note_on,,59,0,11,,,,,,,,,,,,,,,13,,,59,0
27119,note_on,,119,0,10,,,,,,,,,,,,,,,12,,,67,0
27119,note_on,,0,0,12,,,,,,,,,,,,,,,15,,,62,0
27119,note_on,,0,0,12,,,,,,,,,,,,,,,15,,,59,0
27119,note_on,,119,0,9,,,,,,,,,,,,,,,11,,,67,0
27119,note_on,,119,0,6,,,,,,,,,,,,,,,1,,,67,0
27120,note_on,,1,0,5,,,,,,,,,,,,,,,0,,,72,64
27120,note_on,,1,0,8,,,,,,,,,,,,,,,10,,,72,64
27120,note_on,,0,0,12,,,,,,,,,,,,,,,15,,,60,64
27120,note_on,,1,0,9,,,,,,,,,,,,,,,11,,,69,64
27120,note_on,,1,0,11,,,,,,,,,,,,,,,13,,,57,64
27120,note_on,,1,0,7,,,,,,,,,,,,,,,2,,,57,64
27120,note_on,,1,0,10,,,,,,,,,,,,,,,12,,,60,64
27120,note_on,,1,0,12,,,,,,,,,,,,,,,15,,,57,64
27120,note_on,,1,0,6,,,,,,,,,,,,,,,1,,,69,64
27120,note_on,,0,0,12,,,,,,,,,,,,,,,15,,,69,64
27120,note_on,,0,0,12,,,,,,,,,,,,,,,15,,,72,64
27179,note_on,,59,0,12,,,,,,,,,,,,,,,15,,,57,0
27179,note_on,,59,0,7,,,,,,,,,,,,,,,2,,,57,0
27179,note_on,,59,0,11,,,,,,,,,,,,,,,13,,,57,0
27179,note_on,,59,0,8,,,,,,,,,,,,,,,10,,,72,0
27179,note_on,,59,0,5,,,,,,,,,,,,,,,0,,,72,0
27180,note_on,,1,0,11,,,,,,,,,,,,,,,13,,,55,64
27180,note_on,,1,0,12,,,,,,,,,,,,,,,15,,,55,64
27180,note_on,,1,0,5,,,,,,,,,,,,,,,0,,,71,64
27180,note_on,,1,0,7,,,,,,,,,,,,,,,2,,,55,64
27180,note_on,,1,0,8,,,,,,,,,,,,,,,10,,,71,64
27239,note_on,,59,0,5,,,,,,,,,,,,,,,0,,,71,0
27239,note_on,,119,0,10,,,,,,,,,,,,,,,12,,,60,0
27239,note_on,,59,0,8,,,,,,,,,,,,,,,10,,,71,0
27239,note_on,,59,0,7,,,,,,,,,,,,,,,2,,,55,0
27239,note_on,,59,0,12,,,,,,,,,,,,,,,15,,,55,0
27239,note_on,,59,0,11,,,,,,,,,,,,,,,13,,,55,0
27240,note_on,,1,0,7,,,,,,,,,,,,,,,2,,,54,64
27240,note_on,,1,0,5,,,,,,,,,,,,,,,0,,,69,64
27240,note_on,,1,0,12,,,,,,,,,,,,,,,15,,,54,64
27240,note_on,,1,0,11,,,,,,,,,,,,,,,13,,,54,64
27240,note_on,,1,0,10,,,,,,,,,,,,,,,12,,,64,64
27240,note_on,,1,0,8,,,,,,,,,,,,,,,10,,,69,64
27299,note_on,,59,0,5,,,,,,,,,,,,,,,0,,,69,0
27299,note_on,,59,0,11,,,,,,,,,,,,,,,13,,,54,0
27299,note_on,,59,0,12,,,,,,,,,,,,,,,15,,,54,0
27299,note_on,,59,0,7,,,,,,,,,,,,,,,2,,,54,0
27299,note_on,,59,0,8,,,,,,,,,,,,,,,10,,,69,0
27300,note_on,,1,0,5,,,,,,,,,,,,,,,0,,,67,64
27300,note_on,,1,0,12,,,,,,,,,,,,,,,15,,,52,64
27300,note_on,,1,0,8,,,,,,,,,,,,,,,10,,,67,64
27300,note_on,,1,0,11,,,,,,,,,,,,,,,13,,,52,64
27300,note_on,,1,0,7,,,,,,,,,,,,,,,2,,,52,64
27359,note_on,,59,0,12,,,,,,,,,,,,,,,15,,,72,0
27359,note_on,,59,0,5,,,,,,,,,,,,,,,0,,,67,0
27359,note_on,,0,0,12,,,,,,,,,,,,,,,15,,,52,0
27359,note_on,,59,0,11,,,,,,,,,,,,,,,13,,,52,0
27359,note_on,,0,0,12,,,,,,,,,,,,,,,15,,,69,0
27359,note_on,,59,0,7,,,,,,,,,,,,,,,2,,,52,0
27359,note_on,,239,0,6,,,,,,,,,,,,,,,1,,,69,0
27359,note_on,,59,0,8,,,,,,,,,,,,,,,10,,,67,0
27359,note_on,,239,0,9,,,,,,,,,,,,,,,11,,,69,0
27359,note_on,,0,0,12,,,,,,,,,,,,,,,15,,,60,0
27359,note_on,,119,0,10,,,,,,,,,,,,,,,12,,,64,0
27360,note_on,,1,0,11,,,,,,,,,,,,,,,13,,,50,64
27360,note_on,,1,0,10,,,,,,,,,,,,,,,12,,,57,64
27360,note_on,,1,0,7,,,,,,,,,,,,,,,2,,,50,64
27360,note_on,,1,0,12,,,,,,,,,,,,,,,15,,,50,64
27360,note_on,,0,0,12,,,,,,,,,,,,,,,15,,,57,64
27360,note_on,,0,0,12,,,,,,,,,,,,,,,15,,,66,64
27360,note_on,,1,0,5,,,,,,,,,,,,,,,0,,,66,64
27360,note_on,,1,0,8,,,,,,,,,,,,,,,10,,,66,64
27360,note_on,,0,0,12,,,,,,,,,,,,,,,15,,,74,64
27480,note_on,,121,0,9,,,,,,,,,,,,,,,11,,,69,64
27480,note_on,,121,0,6,,,,,,,,,,,,,,,1,,,69,64
27599,note_on,,239,0,8,,,,,,,,,,,,,,,10,,,66,0
27599,note_on,,119,0,9,,,,,,,,,,,,,,,11,,,69,0
27599,note_on,,239,0,5,,,,,,,,,,,,,,,0,,,66,0
27599,note_on,,119,0,6,,,,,,,,,,,,,,,1,,,69,0
27599,note_on,,239,0,10,,,,,,,,,,,,,,,12,,,57,0
27600,note_on,,1,0,8,,,,,,,,,,,,,,,10,,,69,64
27600,note_on,,1,0,10,,,,,,,,,,,,,,,12,,,62,64
27600,note_on,,1,0,6,,,,,,,,,,,,,,,1,,,66,64
27600,note_on,,1,0,9,,,,,,,,,,,,,,,11,,,66,64
27600,note_on,,1,0,5,,,,,,,,,,,,,,,0,,,69,64
27719,note_on,,119,0,6,,,,,,,,,,,,,,,1,,,66,0
27719,note_on,,119,0,9,,,,,,,,,,,,,,,11,,,66,0
27720,note_on,,1,0,6,,,,,,,,,,,,,,,1,,,64,64
27720,note_on,,1,0,9,,,,,,,,,,,,,,,11,,,64,64
27779,note_on,,59,0,6,,,,,,,,,,,,,,,1,,,64,0
27779,note_on,,59,0,9,,,,,,,,,,,,,,,11,,,64,0
27780,note_on,,1,0,6,,,,,,,,,,,,,,,1,,,62,64
27780,note_on,,1,0,9,,,,,,,,,,,,,,,11,,,62,64
27839,note_on,,239,0,10,,,,,,,,,,,,,,,12,,,62,0
27839,note_on,,59,0,9,,,,,,,,,,,,,,,11,,,62,0
27839,note_on,,59,0,6,,,,,,,,,,,,,,,1,,,62,0
27839,note_on,,0,0,12,,,,,,,,,,,,,,,15,,,57,0
27839,note_on,,0,0,12,,,,,,,,,,,,,,,15,,,66,0
27839,note_on,,239,0,5,,,,,,,,,,,,,,,0,,,69,0
27839,note_on,,239,0,8,,,,,,,,,,,,,,,10,,,69,0
27839,note_on,,479,0,12,,,,,,,,,,,,,,,15,,,74,0
27840,note_on,,0,0,12,,,,,,,,,,,,,,,15,,,59,64
27840,note_on,,1,0,9,,,,,,,,,,,,,,,11,,,71,64
27840,note_on,,1,0,6,,,,,,,,,,,,,,,1,,,71,64
27840,note_on,,1,0,12,,,,,,,,,,,,,,,15,,,67,64
27840,note_on,,0,0,12,,,,,,,,,,,,,,,15,,,62,64
27959,note_on,,119,0,9,,,,,,,,,,,,,,,11,,,71,0
27959,note_on,,119,0,6,,,,,,,,,,,,,,,1,,,71,0
27960,note_on,,121,0,5,,,,,,,,,,,,,,,0,,,74,64
27960,note_on,,1,0,6,,,,,,,,,,,,,,,1,,,59,64
27960,note_on,,121,0,8,,,,,,,,,,,,,,,10,,,74,64
27960,note_on,,121,0,10,,,,,,,,,,,,,,,12,,,67,64
27960,note_on,,1,0,9,,,,,,,,,,,,,,,11,,,59,64
28079,note_on,,119,0,10,,,,,,,,,,,,,,,12,,,67,0
28079,note_on,,119,0,9,,,,,,,,,,,,,,,11,,,59,0
28079,note_on,,119,0,6,,,,,,,,,,,,,,,1,,,59,0
28079,note_on,,119,0,8,,,,,,,,,,,,,,,10,,,74,0
28079,note_on,,119,0,5,,,,,,,,,,,,,,,0,,,74,0
28080,note_on,,1,0,8,,,,,,,,,,,,,,,10,,,71,64
28080,note_on,,1,0,5,,,,,,,,,,,,,,,0,,,71,64
28080,note_on,,1,0,10,,,,,,,,,,,,,,,12,,,62,64
28199,note_on,,119,0,8,,,,,,,,,,,,,,,10,,,71,0
28199,note_on,,119,0,5,,,,,,,,,,,,,,,0,,,71,0
28199,note_on,,119,0,10,,,,,,,,,,,,,,,12,,,62,0
28200,note_on,,1,0,8,,,,,,,,,,,,,,,10,,,69,64
28200,note_on,,1,0,5,,,,,,,,,,,,,,,0,,,69,64
28200,note_on,,121,0,6,,,,,,,,,,,,,,,1,,,67,64
28200,note_on,,121,0,9,,,,,,,,,,,,,,,11,,,67,64
28200,note_on,,1,0,10,,,,,,,,,,,,,,,12,,,62,64
28259,note_on,,59,0,8,,,,,,,,,,,,,,,10,,,69,0
28259,note_on,,59,0,5,,,,,,,,,,,,,,,0,,,69,0
28260,note_on,,1,0,5,,,,,,,,,,,,,,,0,,,67,64
28260,note_on,,1,0,8,,,,,,,,,,,,,,,10,,,67,64
28319,note_on,,119,0,6,,,,,,,,,,,,,,,1,,,67,0
28319,note_on,,0,0,12,,,,,,,,,,,,,,,15,,,62,0
28319,note_on,,59,0,5,,,,,,,,,,,,,,,0,,,67,0
28319,note_on,,119,0,9,,,,,,,,,,,,,,,11,,,67,0
28319,note_on,,0,0,12,,,,,,,,,,,,,,,15,,,59,0
28319,note_on,,479,0,12,,,,,,,,,,,,,,,15,,,67,0
28319,note_on,,59,0,8,,,,,,,,,,,,,,,10,,,67,0
28319,note_on,,119,0,10,,,,,,,,,,,,,,,12,,,62,0
28320,note_on,,0,0,12,,,,,,,,,,,,,,,15,,,69,64
28320,note_on,,1,0,9,,,,,,,,,,,,,,,11,,,66,64
28320,note_on,,1,0,12,,,,,,,,,,,,,,,15,,,57,64
28320,note_on,,0,0,12,,,,,,,,,,,,,,,15,,,66,64
28320,note_on,,0,0,12,,,,,,,,,,,,,,,15,,,62,64
28320,note_on,,1,0,6,,,,,,,,,,,,,,,1,,,66,64
28320,note_on,,1,0,10,,,,,,,,,,,,,,,12,,,62,64
28320,note_on,,1,0,5,,,,,,,,,,,,,,,0,,,69,64
28320,note_on,,1,0,8,,,,,,,,,,,,,,,10,,,69,64
28439,note_on,,119,0,8,,,,,,,,,,,,,,,10,,,69,0
28439,note_on,,119,0,10,,,,,,,,,,,,,,,12,,,62,0
28439,note_on,,119,0,9,,,,,,,,,,,,,,,11,,,66,0
28439,note_on,,119,0,5,,,,,,,,,,,,,,,0,,,69,0
28439,note_on,,119,0,6,,,,,,,,,,,,,,,1,,,66,0
28440,note_on,,1,0,9,,,,,,,,,,,,,,,11,,,81,64
28440,note_on,,1,0,6,,,,,,,,,,,,,,,1,,,81,64
28440,note_on,,1,0,8,,,,,,,,,,,,,,,10,,,62,64
28440,note_on,,1,0,10,,,,,,,,,,,,,,,12,,,66,64
28440,note_on,,1,0,5,,,,,,,,,,,,,,,0,,,62,64
28559,note_on,,119,0,8,,,,,,,,,,,,,,,10,,,62,0
28559,note_on,,119,0,10,,,,,,,,,,,,,,,12,,,66,0
28559,note_on,,119,0,5,,,,,,,,,,,,,,,0,,,62,0
28559,note_on,,119,0,9,,,,,,,,,,,,,,,11,,,81,0
28559,note_on,,119,0,6,,,,,,,,,,,,,,,1,,,81,0
28560,note_on,,1,0,10,,,,,,,,,,,,,,,12,,,69,64
28560,note_on,,1,0,9,,,,,,,,,,,,,,,11,,,78,64
28560,note_on,,1,0,6,,,,,,,,,,,,,,,1,,,78,64
28679,note_on,,119,0,6,,,,,,,,,,,,,,,1,,,78,0
28679,note_on,,119,0,9,,,,,,,,,,,,,,,11,,,78,0
28679,note_on,,119,0,10,,,,,,,,,,,,,,,12,,,69,0
28680,note_on,,1,0,6,,,,,,,,,,,,,,,1,,,76,64
28680,note_on,,1,0,9,,,,,,,,,,,,,,,11,,,76,64
28680,note_on,,1,0,10,,,,,,,,,,,,,,,12,,,67,64
28739,note_on,,59,0,6,,,,,,,,,,,,,,,1,,,76,0
28739,note_on,,59,0,10,,,,,,,,,,,,,,,12,,,67,0
28739,note_on,,59,0,9,,,,,,,,,,,,,,,11,,,76,0
28740,note_on,,1,0,6,,,,,,,,,,,,,,,1,,,74,64
28740,note_on,,1,0,9,,,,,,,,,,,,,,,11,,,74,64
28740,note_on,,1,0,10,,,,,,,,,,,,,,,12,,,66,64
28799,note_on,,59,0,9,,,,,,,,,,,,,,,11,,,74,0
28799,note_on,,59,0,10,,,,,,,,,,,,,,,12,,,66,0
28799,note_on,,59,0,6,,,,,,,,,,,,,,,1,,,74,0
28799,note_on,,0,0,12,,,,,,,,,,,,,,,15,,,62,0
28799,note_on,,0,0,12,,,,,,,,,,,,,,,15,,,69,0
28799,note_on,,479,0,12,,,,,,,,,,,,,,,15,,,57,0
28799,note_on,,0,0,12,,,,,,,,,,,,,,,15,,,66,0
28800,note_on,,1,0,10,,,,,,,,,,,,,,,12,,,67,64
28800,note_on,,1,0,9,,,,,,,,,,,,,,,11,,,83,64
28800,note_on,,1,0,6,,,,,,,,,,,,,,,1,,,83,64
28800,note_on,,1,0,12,,,,,,,,,,,,,,,15,,,55,64
28829,note_on,,29,0,12,,,,,,,,,,,,,,,15,,,55,0
28830,note_on,,1,0,12,,,,,,,,,,,,,,,15,,,62,64
28859,note_on,,29,0,12,,,,,,,,,,,,,,,15,,,62,0
28860,note_on,,1,0,12,,,,,,,,,,,,,,,15,,,67,64
28889,note_on,,29,0,12,,,,,,,,,,,,,,,15,,,67,0
28890,note_on,,1,0,12,,,,,,,,,,,,,,,15,,,71,64
28919,note_on,,29,0,12,,,,,,,,,,,,,,,15,,,71,0
28919,note_on,,119,0,9,,,,,,,,,,,,,,,11,,,83,0
28919,note_on,,119,0,6,,,,,,,,,,,,,,,1,,,83,0
28920,note_on,,1,0,9,,,,,,,,,,,,,,,11,,,71,64
28920,note_on,,361,0,8,,,,,,,,,,,,,,,10,,,86,64
28920,note_on,,361,0,5,,,,,,,,,,,,,,,0,,,86,64
28920,note_on,,1,0,6,,,,,,,,,,,,,,,1,,,71,64
28920,note_on,,1,0,12,,,,,,,,,,,,,,,15,,,74,64
29039,note_on,,119,0,8,,,,,,,,,,,,,,,10,,,86,0
29039,note_on,,119,0,9,,,,,,,,,,,,,,,11,,,71,0
29039,note_on,,119,0,5,,,,,,,,,,,,,,,0,,,86,0
29039,note_on,,239,0,10,,,,,,,,,,,,,,,12,,,67,0
29039,note_on,,119,0,6,,,,,,,,,,,,,,,1,,,71,0
29040,note_on,,1,0,5,,,,,,,,,,,,,,,0,,,83,64
29040,note_on,,1,0,10,,,,,,,,,,,,,,,12,,,62,64
29040,note_on,,1,0,8,,,,,,,,,,,,,,,10,,,83,64
29159,note_on,,119,0,5,,,,,,,,,,,,,,,0,,,83,0
29159,note_on,,119,0,8,,,,,,,,,,,,,,,10,,,83,0
29160,note_on,,121,0,6,,,,,,,,,,,,,,,1,,,67,64
29160,note_on,,1,0,8,,,,,,,,,,,,,,,10,,,81,64
29160,note_on,,121,0,9,,,,,,,,,,,,,,,11,,,67,64
29160,note_on,,1,0,5,,,,,,,,,,,,,,,0,,,81,64
29219,note_on,,59,0,8,,,,,,,,,,,,,,,10,,,81,0
29219,note_on,,59,0,5,,,,,,,,,,,,,,,0,,,81,0
29220,note_on,,1,0,5,,,,,,,,,,,,,,,0,,,79,64
29220,note_on,,1,0,8,,,,,,,,,,,,,,,10,,,79,64
29279,note_on,,119,0,9,,,,,,,,,,,,,,,11,,,67,0
29279,note_on,,119,0,6,,,,,,,,,,,,,,,1,,,67,0
29279,note_on,,59,0,8,,,,,,,,,,,,,,,10,,,79,0
29279,note_on,,359,0,12,,,,,,,,,,,,,,,15,,,74,0
29279,note_on,,59,0,5,,,,,,,,,,,,,,,0,,,79,0
29279,note_on,,239,0,10,,,,,,,,,,,,,,,12,,,62,0
29280,note_on,,1,0,9,,,,,,,,,,,,,,,11,,,66,64
29280,note_on,,1,0,12,,,,,,,,,,,,,,,15,,,54,64
29280,note_on,,1,0,8,,,,,,,,,,,,,,,10,,,81,64
29280,note_on,,1,0,6,,,,,,,,,,,,,,,1,,,66,64
29280,note_on,,1,0,5,,,,,,,,,,,,,,,0,,,81,64
29319,note_on,,39,0,12,,,,,,,,,,,,,,,15,,,54,0
29320,note_on,,1,0,12,,,,,,,,,,,,,,,15,,,62,64
29359,note_on,,39,0,12,,,,,,,,,,,,,,,15,,,62,0
29360,note_on,,1,0,12,,,,,,,,,,,,,,,15,,,69,64
29399,note_on,,2039,0,7,,,,,,,,,,,,,,,2,,,50,0
29399,note_on,,119,0,8,,,,,,,,,,,,,,,10,,,81,0
29399,note_on,,2039,0,11,,,,,,,,,,,,,,,13,,,50,0
29399,note_on,,119,0,5,,,,,,,,,,,,,,,0,,,81,0
29399,note_on,,0,0,12,,,,,,,,,,,,,,,15,,,69,0
29399,note_on,,39,0,12,,,,,,,,,,,,,,,15,,,50,0
29400,note_on,,1,0,12,,,,,,,,,,,,,,,15,,,74,64
29400,note_on,,0,0,12,,,,,,,,,,,,,,,15,,,62,64
29400,note_on,,1,0,5,,,,,,,,,,,,,,,0,,,74,64
29400,note_on,,1,0,7,,,,,,,,,,,,,,,2,,,62,64
29400,note_on,,121,0,10,,,,,,,,,,,,,,,12,,,69,64
29400,note_on,,1,0,8,,,,,,,,,,,,,,,10,,,74,64
29400,note_on,,1,0,11,,,,,,,,,,,,,,,13,,,62,64
29519,note_on,,119,0,10,,,,,,,,,,,,,,,12,,,69,0
29519,note_on,,119,0,7,,,,,,,,,,,,,,,2,,,62,0
29519,note_on,,0,0,12,,,,,,,,,,,,,,,15,,,62,0
29519,note_on,,119,0,11,,,,,,,,,,,,,,,13,,,62,0
29519,note_on,,119,0,5,,,,,,,,,,,,,,,0,,,74,0
29519,note_on,,119,0,12,,,,,,,,,,,,,,,15,,,74,0
29519,note_on,,119,0,8,,,,,,,,,,,,,,,10,,,74,0
29519,note_on,,239,0,6,,,,,,,,,,,,,,,1,,,66,0
29519,note_on,,239,0,9,,,,,,,,,,,,,,,11,,,66,0
29520,note_on,,0,0,12,,,,,,,,,,,,,,,15,,,67,64
29520,note_on,,1,0,10,,,,,,,,,,,,,,,12,,,67,64
29520,note_on,,1,0,9,,,,,,,,,,,,,,,11,,,74,64
29520,note_on,,1,0,11,,,,,,,,,,,,,,,13,,,59,64
29520,note_on,,1,0,8,,,,,,,,,,,,,,,10,,,79,64
29520,note_on,,1,0,12,,,,,,,,,,,,,,,15,,,59,64
29520,note_on,,1,0,6,,,,,,,,,,,,,,,1,,,74,64
29520,note_on,,0,0,12,,,,,,,,,,,,,,,15,,,62,64
29520,note_on,,1,0,7,,,,,,,,,,,,,,,2,,,59,64
29520,note_on,,1,0,5,,,,,,,,,,,,,,,0,,,79,64
29639,note_on,,119,0,9,,,,,,,,,,,,,,,11,,,74,0
29639,note_on,,119,0,12,,,,,,,,,,,,,,,15,,,59,0
29639,note_on,,119,0,11,,,,,,,,,,,,,,,13,,,59,0
29639,note_on,,119,0,7,,,,,,,,,,,,,,,2,,,59,0
29639,note_on,,119,0,10,,,,,,,,,,,,,,,12,,,67,0
29639,note_on,,119,0,6,,,,,,,,,,,,,,,1,,,74,0
29640,note_on,,1,0,11,,,,,,,,,,,,,,,13,,,57,64
29640,note_on,,1,0,10,,,,,,,,,,,,,,,12,,,62,64
29640,note_on,,1,0,9,,,,,,,,,,,,,,,11,,,72,64
29640,note_on,,1,0,6,,,,,,,,,,,,,,,1,,,72,64
29640,note_on,,1,0,7,,,,,,,,,,,,,,,2,,,57,64
29640,note_on,,1,0,12,,,,,,,,,,,,,,,15,,,57,64
29699,note_on,,59,0,12,,,,,,,,,,,,,,,15,,,57,0
29699,note_on,,59,0,11,,,,,,,,,,,,,,,13,,,57,0
29699,note_on,,59,0,9,,,,,,,,,,,,,,,11,,,72,0
29699,note_on,,59,0,6,,,,,,,,,,,,,,,1,,,72,0
29699,note_on,,59,0,7,,,,,,,,,,,,,,,2,,,57,0
29700,note_on,,1,0,9,,,,,,,,,,,,,,,11,,,71,64
29700,note_on,,1,0,6,,,,,,,,,,,,,,,1,,,71,64
29700,note_on,,1,0,11,,,,,,,,,,,,,,,13,,,55,64
29700,note_on,,1,0,7,,,,,,,,,,,,,,,2,,,55,64
29700,note_on,,1,0,12,,,,,,,,,,,,,,,15,,,55,64
29759,note_on,,0,0,12,,,,,,,,,,,,,,,15,,,55,0
29759,note_on,,59,0,6,,,,,,,,,,,,,,,1,,,71,0
29759,note_on,,59,0,9,,,,,,,,,,,,,,,11,,,71,0
29759,note_on,,59,0,7,,,,,,,,,,,,,,,2,,,55,0
29759,note_on,,59,0,11,,,,,,,,,,,,,,,13,,,55,0
29759,note_on,,0,0,12,,,,,,,,,,,,,,,15,,,62,0
29759,note_on,,59,0,12,,,,,,,,,,,,,,,15,,,67,0
29759,note_on,,119,0,10,,,,,,,,,,,,,,,12,,,62,0
29760,note_on,,1,0,9,,,,,,,,,,,,,,,11,,,72,64
29760,note_on,,1,0,12,,,,,,,,,,,,,,,15,,,57,64
29760,note_on,,1,0,7,,,,,,,,,,,,,,,2,,,57,64
29760,note_on,,1,0,6,,,,,,,,,,,,,,,1,,,72,64
29760,note_on,,1,0,10,,,,,,,,,,,,,,,12,,,60,64
29760,note_on,,0,0,12,,,,,,,,,,,,,,,15,,,72,64
29760,note_on,,1,0,11,,,,,,,,,,,,,,,13,,,57,64
29760,note_on,,0,0,12,,,,,,,,,,,,,,,15,,,60,64
29879,note_on,,119,0,10,,,,,,,,,,,,,,,12,,,60,0
29879,note_on,,359,0,8,,,,,,,,,,,,,,,10,,,79,0
29879,note_on,,119,0,6,,,,,,,,,,,,,,,1,,,72,0
29879,note_on,,119,0,12,,,,,,,,,,,,,,,15,,,57,0
29879,note_on,,119,0,11,,,,,,,,,,,,,,,13,,,57,0
29879,note_on,,119,0,7,,,,,,,,,,,,,,,2,,,57,0
29879,note_on,,119,0,9,,,,,,,,,,,,,,,11,,,72,0
29879,note_on,,359,0,5,,,,,,,,,,,,,,,0,,,79,0
29880,note_on,,1,0,12,,,,,,,,,,,,,,,15,,,50,64
29880,note_on,,1,0,10,,,,,,,,,,,,,,,12,,,62,64
29880,note_on,,1,0,8,,,,,,,,,,,,,,,10,,,77,64
29880,note_on,,1,0,6,,,,,,,,,,,,,,,1,,,69,64
29880,note_on,,1,0,5,,,,,,,,,,,,,,,0,,,77,64
29880,note_on,,1,0,7,,,,,,,,,,,,,,,2,,,50,64
29880,note_on,,1,0,11,,,,,,,,,,,,,,,13,,,50,64
29880,note_on,,1,0,9,,,,,,,,,,,,,,,11,,,69,64
29939,note_on,,59,0,5,,,,,,,,,,,,,,,0,,,77,0
29939,note_on,,59,0,8,,,,,,,,,,,,,,,10,,,77,0
29940,note_on,,1,0,5,,,,,,,,,,,,,,,0,,,76,64
29940,note_on,,1,0,8,,,,,,,,,,,,,,,10,,,76,64
29999,note_on,,59,0,8,,,,,,,,,,,,,,,10,,,76,0
29999,note_on,,119,0,7,,,,,,,,,,,,,,,2,,,50,0
29999,note_on,,119,0,6,,,,,,,,,,,,,,,1,,,69,0
29999,note_on,,0,0,12,,,,,,,,,,,,,,,15,,,50,0
29999,note_on,,119,0,11,,,,,,,,,,,,,,,13,,,50,0
29999,note_on,,59,0,5,,,,,,,,,,,,,,,0,,,76,0
29999,note_on,,119,0,12,,,,,,,,,,,,,,,15,,,72,0
29999,note_on,,119,0,10,,,,,,,,,,,,,,,12,,,62,0
29999,note_on,,119,0,9,,,,,,,,,,,,,,,11,,,69,0
30000,note_on,,1,0,7,,,,,,,,,,,,,,,2,,,57,64
30000,note_on,,1,0,6,,,,,,,,,,,,,,,1,,,72,64
30000,note_on,,1,0,11,,,,,,,,,,,,,,,13,,,57,64
30000,note_on,,1,0,8,,,,,,,,,,,,,,,10,,,77,64
30000,note_on,,0,0,12,,,,,,,,,,,,,,,15,,,65,64
30000,note_on,,1,0,9,,,,,,,,,,,,,,,11,,,72,64
30000,note_on,,1,0,10,,,,,,,,,,,,,,,12,,,60,64
30000,note_on,,1,0,5,,,,,,,,,,,,,,,0,,,77,64
30000,note_on,,1,0,12,,,,,,,,,,,,,,,15,,,57,64
30119,note_on,,119,0,8,,,,,,,,,,,,,,,10,,,77,0
30119,note_on,,119,0,12,,,,,,,,,,,,,,,15,,,60,0
30119,note_on,,0,0,12,,,,,,,,,,,,,,,15,,,57,0
30119,note_on,,0,0,12,,,,,,,,,,,,,,,15,,,65,0
30119,note_on,,119,0,7,,,,,,,,,,,,,,,2,,,57,0
30119,note_on,,119,0,10,,,,,,,,,,,,,,,12,,,60,0
30119,note_on,,119,0,5,,,,,,,,,,,,,,,0,,,77,0
30119,note_on,,119,0,11,,,,,,,,,,,,,,,13,,,57,0
30119,note_on,,119,0,6,,,,,,,,,,,,,,,1,,,72,0
30119,note_on,,119,0,9,,,,,,,,,,,,,,,11,,,72,0
30120,note_on,,1,0,11,,,,,,,,,,,,,,,13,,,59,64
30120,note_on,,1,0,9,,,,,,,,,,,,,,,11,,,67,64
30120,note_on,,1,0,7,,,,,,,,,,,,,,,2,,,59,64
30120,note_on,,1,0,12,,,,,,,,,,,,,,,15,,,59,64
30120,note_on,,0,0,12,,,,,,,,,,,,,,,15,,,67,64
30120,note_on,,1,0,10,,,,,,,,,,,,,,,12,,,62,64
30120,note_on,,1,0,5,,,,,,,,,,,,,,,0,,,76,64
30120,note_on,,1,0,8,,,,,,,,,,,,,,,10,,,76,64
30120,note_on,,0,0,12,,,,,,,,,,,,,,,15,,,62,64
30120,note_on,,1,0,6,,,,,,,,,,,,,,,1,,,67,64
30179,note_on,,59,0,5,,,,,,,,,,,,,,,0,,,76,0
30179,note_on,,59,0,8,,,,,,,,,,,,,,,10,,,76,0
30180,note_on,,1,0,5,,,,,,,,,,,,,,,0,,,74,64
30180,note_on,,1,0,8,,,,,,,,,,,,,,,10,,,74,64
30239,note_on,,119,0,11,,,,,,,,,,,,,,,13,,,59,0
30239,note_on,,119,0,12,,,,,,,,,,,,,,,15,,,59,0
30239,note_on,,0,0,12,,,,,,,,,,,,,,,15,,,67,0
30239,note_on,,119,0,9,,,,,,,,,,,,,,,11,,,67,0
30239,note_on,,0,0,12,,,,,,,,,,,,,,,15,,,62,0
30239,note_on,,119,0,10,,,,,,,,,,,,,,,12,,,62,0
30239,note_on,,59,0,5,,,,,,,,,,,,,,,0,,,74,0
30239,note_on,,119,0,6,,,,,,,,,,,,,,,1,,,67,0
30239,note_on,,59,0,8,,,,,,,,,,,,,,,10,,,74,0
30239,note_on,,119,0,7,,,,,,,,,,,,,,,2,,,59,0
30240,note_on,,1,0,7,,,,,,,,,,,,,,,2,,,60,64
30240,note_on,,0,0,12,,,,,,,,,,,,,,,15,,,64,64
30240,note_on,,1,0,6,,,,,,,,,,,,,,,1,,,67,64
30240,note_on,,1,0,8,,,,,,,,,,,,,,,10,,,76,64
30240,note_on,,1,0,5,,,,,,,,,,,,,,,0,,,76,64
30240,note_on,,1,0,11,,,,,,,,,,,,,,,13,,,60,64
30240,note_on,,1,0,12,,,,,,,,,,,,,,,15,,,60,64
30240,note_on,,1,0,9,,,,,,,,,,,,,,,11,,,67,64
30240,note_on,,1,0,10,,,,,,,,,,,,,,,12,,,60,64
30240,note_on,,0,0,12,,,,,,,,,,,,,,,15,,,67,64
30359,note_on,,119,0,11,,,,,,,,,,,,,,,13,,,60,0
30359,note_on,,119,0,7,,,,,,,,,,,,,,,2,,,60,0
30359,note_on,,119,0,12,,,,,,,,,,,,,,,15,,,60,0
30359,note_on,,119,0,9,,,,,,,,,,,,,,,11,,,67,0
30359,note_on,,119,0,10,,,,,,,,,,,,,,,12,,,60,0
30359,note_on,,119,0,6,,,,,,,,,,,,,,,1,,,67,0
30360,note_on,,1,0,12,,,,,,,,,,,,,,,15,,,55,64
30360,note_on,,1,0,7,,,,,,,,,,,,,,,2,,,55,64
30360,note_on,,1,0,6,,,,,,,,,,,,,,,1,,,67,64
30360,note_on,,1,0,9,,,,,,,,,,,,,,,11,,,67,64
30360,note_on,,1,0,11,,,,,,,,,,,,,,,13,,,55,64
30360,note_on,,1,0,10,,,,,,,,,,,,,,,12,,,59,64
30419,note_on,,179,0,5,,,,,,,,,,,,,,,0,,,76,0
30419,note_on,,179,0,8,,,,,,,,,,,,,,,10,,,76,0
30420,note_on,,1,0,5,,,,,,,,,,,,,,,0,,,74,64
30420,note_on,,1,0,8,,,,,,,,,,,,,,,10,,,74,64
30479,note_on,,119,0,10,,,,,,,,,,,,,,,12,,,59,0
30479,note_on,,59,0,8,,,,,,,,,,,,,,,10,,,74,0
30479,note_on,,0,0,12,,,,,,,,,,,,,,,15,,,64,0
30479,note_on,,0,0,12,,,,,,,,,,,,,,,15,,,55,0
30479,note_on,,59,0,5,,,,,,,,,,,,,,,0,,,74,0
30479,note_on,,119,0,11,,,,,,,,,,,,,,,13,,,55,0
30479,note_on,,119,0,7,,,,,,,,,,,,,,,2,,,55,0
30479,note_on,,119,0,12,,,,,,,,,,,,,,,15,,,67,0
30480,note_on,,1,0,5,,,,,,,,,,,,,,,0,,,76,64
30480,note_on,,1,0,11,,,,,,,,,,,,,,,13,,,60,64
30480,note_on,,1,0,10,,,,,,,,,,,,,,,12,,,60,64
30480,note_on,,1,0,8,,,,,,,,,,,,,,,10,,,76,64
30480,note_on,,1,0,7,,,,,,,,,,,,,,,2,,,60,64
30480,note_on,,0,0,12,,,,,,,,,,,,,,,15,,,79,64
30480,note_on,,0,0,12,,,,,,,,,,,,,,,15,,,76,64
30480,note_on,,0,0,12,,,,,,,,,,,,,,,15,,,67,64
30480,note_on,,1,0,12,,,,,,,,,,,,,,,15,,,60,64
30539,note_on,,59,0,5,,,,,,,,,,,,,,,0,,,76,0
30539,note_on,,59,0,8,,,,,,,,,,,,,,,10,,,76,0
30539,note_on,,179,0,9,,,,,,,,,,,,,,,11,,,67,0
30539,note_on,,179,0,6,,,,,,,,,,,,,,,1,,,67,0
30540,note_on,,1,0,5,,,,,,,,,,,,,,,0,,,78,64
30540,note_on,,1,0,8,,,,,,,,,,,,,,,10,,,78,64
30540,note_on,,1,0,9,,,,,,,,,,,,,,,11,,,69,64
30540,note_on,,1,0,6,,,,,,,,,,,,,,,1,,,69,64
30599,note_on,,59,0,9,,,,,,,,,,,,,,,11,,,69,0
30599,note_on,,59,0,8,,,,,,,,,,,,,,,10,,,78,0
30599,note_on,,59,0,6,,,,,,,,,,,,,,,1,,,69,0
30599,note_on,,59,0,5,,,,,,,,,,,,,,,0,,,78,0
30600,note_on,,1,0,5,,,,,,,,,,,,,,,0,,,79,64
30600,note_on,,1,0,6,,,,,,,,,,,,,,,1,,,71,64
30600,note_on,,1,0,8,,,,,,,,,,,,,,,10,,,79,64
30600,note_on,,1,0,9,,,,,,,,,,,,,,,11,,,71,64
30659,note_on,,59,0,5,,,,,,,,,,,,,,,0,,,79,0
30659,note_on,,59,0,6,,,,,,,,,,,,,,,1,,,71,0
30659,note_on,,59,0,8,,,,,,,,,,,,,,,10,,,79,0
30659,note_on,,59,0,9,,,,,,,,,,,,,,,11,,,71,0
30660,note_on,,1,0,9,,,,,,,,,,,,,,,11,,,72,64
30660,note_on,,1,0,8,,,,,,,,,,,,,,,10,,,81,64
30660,note_on,,1,0,5,,,,,,,,,,,,,,,0,,,81,64
30660,note_on,,1,0,6,,,,,,,,,,,,,,,1,,,72,64
30719,note_on,,59,0,6,,,,,,,,,,,,,,,1,,,72,0
30719,note_on,,239,0,12,,,,,,,,,,,,,,,15,,,79,0
30719,note_on,,59,0,8,,,,,,,,,,,,,,,10,,,81,0
30719,note_on,,59,0,5,,,,,,,,,,,,,,,0,,,81,0
30719,note_on,,0,0,12,,,,,,,,,,,,,,,15,,,67,0
30719,note_on,,0,0,12,,,,,,,,,,,,,,,15,,,76,0
30719,note_on,,59,0,9,,,,,,,,,,,,,,,11,,,72,0
30719,note_on,,239,0,10,,,,,,,,,,,,,,,12,,,60,0
30720,note_on,,1,0,6,,,,,,,,,,,,,,,1,,,69,64
30720,note_on,,1,0,9,,,,,,,,,,,,,,,11,,,69,64
30720,note_on,,0,0,12,,,,,,,,,,,,,,,15,,,66,64
30720,note_on,,0,0,12,,,,,,,,,,,,,,,15,,,69,64
30720,note_on,,1,0,12,,,,,,,,,,,,,,,15,,,74,64
30720,note_on,,1,0,8,,,,,,,,,,,,,,,10,,,78,64
30720,note_on,,1,0,5,,,,,,,,,,,,,,,0,,,78,64
30720,note_on,,1,0,10,,,,,,,,,,,,,,,12,,,62,64
30779,note_on,,299,0,7,,,,,,,,,,,,,,,2,,,60,0
30779,note_on,,59,0,12,,,,,,,,,,,,,,,15,,,60,0
30779,note_on,,299,0,11,,,,,,,,,,,,,,,13,,,60,0
30780,note_on,,1,0,11,,,,,,,,,,,,,,,13,,,62,64
30780,note_on,,1,0,12,,,,,,,,,,,,,,,15,,,62,64
30780,note_on,,1,0,7,,,,,,,,,,,,,,,2,,,62,64
30839,note_on,,119,0,10,,,,,,,,,,,,,,,12,,,62,0
30839,note_on,,59,0,7,,,,,,,,,,,,,,,2,,,62,0
30839,note_on,,119,0,5,,,,,,,,,,,,,,,0,,,78,0
30839,note_on,,119,0,9,,,,,,,,,,,,,,,11,,,69,0
30839,note_on,,59,0,11,,,,,,,,,,,,,,,13,,,62,0
30839,note_on,,119,0,6,,,,,,,,,,,,,,,1,,,69,0
30839,note_on,,59,0,12,,,,,,,,,,,,,,,15,,,69,0
30839,note_on,,0,0,12,,,,,,,,,,,,,,,15,,,66,0
30839,note_on,,0,0,12,,,,,,,,,,,,,,,15,,,62,0
30839,note_on,,119,0,8,,,,,,,,,,,,,,,10,,,78,0
30840,note_on,,1,0,10,,,,,,,,,,,,,,,12,,,62,64
30840,note_on,,1,0,6,,,,,,,,,,,,,,,1,,,74,64
30840,note_on,,1,0,7,,,,,,,,,,,,,,,2,,,59,64
30840,note_on,,1,0,5,,,,,,,,,,,,,,,0,,,79,64
30840,note_on,,1,0,12,,,,,,,,,,,,,,,15,,,59,64
30840,note_on,,0,0,12,,,,,,,,,,,,,,,15,,,71,64
30840,note_on,,0,0,12,,,,,,,,,,,,,,,15,,,67,64
30840,note_on,,1,0,11,,,,,,,,,,,,,,,13,,,59,64
30840,note_on,,1,0,9,,,,,,,,,,,,,,,11,,,74,64
30840,note_on,,1,0,8,,,,,,,,,,,,,,,10,,,79,64
30899,note_on,,59,0,11,,,,,,,,,,,,,,,13,,,59,0
30899,note_on,,59,0,7,,,,,,,,,,,,,,,2,,,59,0
30899,note_on,,59,0,12,,,,,,,,,,,,,,,15,,,59,0
30900,note_on,,1,0,11,,,,,,,,,,,,,,,13,,,60,64
30900,note_on,,1,0,7,,,,,,,,,,,,,,,2,,,60,64
30900,note_on,,1,0,12,,,,,,,,,,,,,,,15,,,60,64
30959,note_on,,0,0,12,,,,,,,,,,,,,,,15,,,60,0
30959,note_on,,119,0,6,,,,,,,,,,,,,,,1,,,74,0
30959,note_on,,59,0,12,,,,,,,,,,,,,,,15,,,71,0
30959,note_on,,0,0,12,,,,,,,,,,,,,,,15,,,67,0
30959,note_on,,59,0,7,,,,,,,,,,,,,,,2,,,60,0
30959,note_on,,119,0,10,,,,,,,,,,,,,,,12,,,62,0
30959,note_on,,119,0,9,,,,,,,,,,,,,,,11,,,74,0
30959,note_on,,59,0,11,,,,,,,,,,,,,,,13,,,60,0
30960,note_on,,1,0,11,,,,,,,,,,,,,,,13,,,57,64
30960,note_on,,1,0,9,,,,,,,,,,,,,,,11,,,72,64
30960,note_on,,1,0,6,,,,,,,,,,,,,,,1,,,72,64
30960,note_on,,1,0,10,,,,,,,,,,,,,,,12,,,69,64
30960,note_on,,1,0,7,,,,,,,,,,,,,,,2,,,57,64
30960,note_on,,0,0,12,,,,,,,,,,,,,,,15,,,69,64
30960,note_on,,0,0,12,,,,,,,,,,,,,,,15,,,72,64
30960,note_on,,1,0,12,,,,,,,,,,,,,,,15,,,57,64
31019,note_on,,59,0,11,,,,,,,,,,,,,,,13,,,57,0
31019,note_on,,59,0,12,,,,,,,,,,,,,,,15,,,57,0
31019,note_on,,59,0,7,,,,,,,,,,,,,,,2,,,57,0
31020,note_on,,1,0,7,,,,,,,,,,,,,,,2,,,62,64
31020,note_on,,1,0,11,,,,,,,,,,,,,,,13,,,62,64
31020,note_on,,1,0,12,,,,,,,,,,,,,,,15,,,62,64
31079,note_on,,119,0,6,,,,,,,,,,,,,,,1,,,72,0
31079,note_on,,119,0,10,,,,,,,,,,,,,,,12,,,69,0
31079,note_on,,0,0,12,,,,,,,,,,,,,,,15,,,62,0
31079,note_on,,0,0,12,,,,,,,,,,,,,,,15,,,69,0
31079,note_on,,59,0,11,,,,,,,,,,,,,,,13,,,62,0
31079,note_on,,59,0,7,,,,,,,,,,,,,,,2,,,62,0
31079,note_on,,59,0,12,,,,,,,,,,,,,,,15,,,72,0
31079,note_on,,239,0,5,,,,,,,,,,,,,,,0,,,79,0
31079,note_on,,239,0,8,,,,,,,,,,,,,,,10,,,79,0
31079,note_on,,119,0,9,,,,,,,,,,,,,,,11,,,72,0
31080,note_on,,1,0,8,,,,,,,,,,,,,,,10,,,78,64
31080,note_on,,1,0,7,,,,,,,,,,,,,,,2,,,60,64
31080,note_on,,1,0,5,,,,,,,,,,,,,,,0,,,78,64
31080,note_on,,0,0,12,,,,,,,,,,,,,,,15,,,69,64
31080,note_on,,1,0,10,,,,,,,,,,,,,,,12,,,74,64
31080,note_on,,1,0,11,,,,,,,,,,,,,,,13,,,60,64
31080,note_on,,0,0,12,,,,,,,,,,,,,,,15,,,66,64
31080,note_on,,1,0,6,,,,,,,,,,,,,,,1,,,69,64
31080,note_on,,1,0,12,,,,,,,,,,,,,,,15,,,60,64
31080,note_on,,1,0,9,,,,,,,,,,,,,,,11,,,69,64
31139,note_on,,59,0,12,,,,,,,,,,,,,,,15,,,60,0
31139,note_on,,59,0,7,,,,,,,,,,,,,,,2,,,60,0
31139,note_on,,59,0,11,,,,,,,,,,,,,,,13,,,60,0
31140,note_on,,1,0,12,,,,,,,,,,,,,,,15,,,62,64
31140,note_on,,1,0,11,,,,,,,,,,,,,,,13,,,62,64
31140,note_on,,1,0,7,,,,,,,,,,,,,,,2,,,62,64
31199,note_on,,119,0,8,,,,,,,,,,,,,,,10,,,78,0
31199,note_on,,59,0,11,,,,,,,,,,,,,,,13,,,62,0
31199,note_on,,0,0,12,,,,,,,,,,,,,,,15,,,66,0
31199,note_on,,0,0,12,,,,,,,,,,,,,,,15,,,69,0
31199,note_on,,59,0,12,,,,,,,,,,,,,,,15,,,74,0
31199,note_on,,119,0,10,,,,,,,,,,,,,,,12,,,74,0
31199,note_on,,119,0,5,,,,,,,,,,,,,,,0,,,78,0
31199,note_on,,0,0,12,,,,,,,,,,,,,,,15,,,62,0
31199,note_on,,59,0,7,,,,,,,,,,,,,,,2,,,62,0
31199,note_on,,119,0,6,,,,,,,,,,,,,,,1,,,69,0
31199,note_on,,119,0,9,,,,,,,,,,,,,,,11,,,69,0
31200,note_on,,1,0,10,,,,,,,,,,,,,,,12,,,74,64
31200,note_on,,1,0,9,,,,,,,,,,,,,,,11,,,62,64
31200,note_on,,1,0,8,,,,,,,,,,,,,,,10,,,79,64
31200,note_on,,1,0,5,,,,,,,,,,,,,,,0,,,79,64
31200,note_on,,1,0,7,,,,,,,,,,,,,,,2,,,59,64
31200,note_on,,1,0,11,,,,,,,,,,,,,,,13,,,59,64
31200,note_on,,0,0,12,,,,,,,,,,,,,,,15,,,67,64
31200,note_on,,0,0,12,,,,,,,,,,,,,,,15,,,62,64
31200,note_on,,1,0,12,,,,,,,,,,,,,,,15,,,59,64
31200,note_on,,1,0,6,,,,,,,,,,,,,,,1,,,62,64
31200,note_on,,0,0,12,,,,,,,,,,,,,,,15,,,74,64
31259,note_on,,59,0,6,,,,,,,,,,,,,,,1,,,62,0
31259,note_on,,59,0,9,,,,,,,,,,,,,,,11,,,62,0
31260,note_on,,1,0,9,,,,,,,,,,,,,,,11,,,67,64
31260,note_on,,1,0,6,,,,,,,,,,,,,,,1,,,67,64
31319,note_on,,119,0,12,,,,,,,,,,,,,,,15,,,59,0
31319,note_on,,0,0,12,,,,,,,,,,,,,,,15,,,62,0
31319,note_on,,119,0,10,,,,,,,,,,,,,,,12,,,74,0
31319,note_on,,119,0,7,,,,,,,,,,,,,,,2,,,59,0
31319,note_on,,59,0,6,,,,,,,,,,,,,,,1,,,67,0
31319,note_on,,59,0,9,,,,,,,,,,,,,,,11,,,67,0
31319,note_on,,119,0,11,,,,,,,,,,,,,,,13,,,59,0
31320,note_on,,1,0,9,,,,,,,,,,,,,,,11,,,69,64
31320,note_on,,1,0,7,,,,,,,,,,,,,,,2,,,55,64
31320,note_on,,1,0,10,,,,,,,,,,,,,,,12,,,62,64
31320,note_on,,1,0,12,,,,,,,,,,,,,,,15,,,55,64
31320,note_on,,1,0,6,,,,,,,,,,,,,,,1,,,69,64
31320,note_on,,1,0,11,,,,,,,,,,,,,,,13,,,55,64
31320,note_on,,0,0,12,,,,,,,,,,,,,,,15,,,59,64
31379,note_on,,59,0,6,,,,,,,,,,,,,,,1,,,69,0
31379,note_on,,59,0,9,,,,,,,,,,,,,,,11,,,69,0
31380,note_on,,1,0,6,,,,,,,,,,,,,,,1,,,71,64
31380,note_on,,1,0,9,,,,,,,,,,,,,,,11,,,71,64
31439,note_on,,119,0,11,,,,,,,,,,,,,,,13,,,55,0
31439,note_on,,239,0,5,,,,,,,,,,,,,,,0,,,79,0
31439,note_on,,239,0,8,,,,,,,,,,,,,,,10,,,79,0
31439,note_on,,59,0,9,,,,,,,,,,,,,,,11,,,71,0
31439,note_on,,119,0,7,,,,,,,,,,,,,,,2,,,55,0
31439,note_on,,119,0,10,,,,,,,,,,,,,,,12,,,62,0
31439,note_on,,59,0,6,,,,,,,,,,,,,,,1,,,71,0
31439,note_on,,119,0,12,,,,,,,,,,,,,,,15,,,74,0
31439,note_on,,0,0,12,,,,,,,,,,,,,,,15,,,67,0
31439,note_on,,0,0,12,,,,,,,,,,,,,,,15,,,55,0
31439,note_on,,0,0,12,,,,,,,,,,,,,,,15,,,59,0
31440,note_on,,0,0,12,,,,,,,,,,,,,,,15,,,67,64
31440,note_on,,1,0,11,,,,,,,,,,,,,,,13,,,52,64
31440,note_on,,0,0,12,,,,,,,,,,,,,,,15,,,60,64
31440,note_on,,0,0,12,,,,,,,,,,,,,,,15,,,64,64
31440,note_on,,1,0,9,,,,,,,,,,,,,,,11,,,72,64
31440,note_on,,1,0,6,,,,,,,,,,,,,,,1,,,72,64
31440,note_on,,1,0,10,,,,,,,,,,,,,,,12,,,67,64
31440,note_on,,1,0,7,,,,,,,,,,,,,,,2,,,52,64
31440,note_on,,1,0,12,,,,,,,,,,,,,,,15,,,52,64
31500,note_on,,61,0,8,,,,,,,,,,,,,,,10,,,72,64
31500,note_on,,61,0,5,,,,,,,,,,,,,,,0,,,72,64
31559,note_on,,119,0,7,,,,,,,,,,,,,,,2,,,52,0
31559,note_on,,59,0,8,,,,,,,,,,,,,,,10,,,72,0
31559,note_on,,119,0,10,,,,,,,,,,,,,,,12,,,67,0
31559,note_on,,119,0,11,,,,,,,,,,,,,,,13,,,52,0
31559,note_on,,119,0,12,,,,,,,,,,,,,,,15,,,52,0
31559,note_on,,0,0,12,,,,,,,,,,,,,,,15,,,67,0
31559,note_on,,59,0,5,,,,,,,,,,,,,,,0,,,72,0
31560,note_on,,1,0,11,,,,,,,,,,,,,,,13,,,50,64
31560,note_on,,1,0,5,,,,,,,,,,,,,,,0,,,74,64
31560,note_on,,0,0,12,,,,,,,,,,,,,,,15,,,65,64
31560,note_on,,1,0,12,,,,,,,,,,,,,,,15,,,50,64
31560,note_on,,1,0,10,,,,,,,,,,,,,,,12,,,72,64
31560,note_on,,1,0,7,,,,,,,,,,,,,,,2,,,50,64
31560,note_on,,1,0,8,,,,,,,,,,,,,,,10,,,74,64
31619,note_on,,59,0,11,,,,,,,,,,,,,,,13,,,50,0
31619,note_on,,0,0,12,,,,,,,,,,,,,,,15,,,65,0
31619,note_on,,59,0,5,,,,,,,,,,,,,,,0,,,74,0
31619,note_on,,59,0,8,,,,,,,,,,,,,,,10,,,74,0
31619,note_on,,59,0,7,,,,,,,,,,,,,,,2,,,50,0
31619,note_on,,59,0,12,,,,,,,,,,,,,,,15,,,50,0
31620,note_on,,1,0,7,,,,,,,,,,,,,,,2,,,48,64
31620,note_on,,1,0,8,,,,,,,,,,,,,,,10,,,76,64
31620,note_on,,1,0,5,,,,,,,,,,,,,,,0,,,76,64
31620,note_on,,1,0,11,,,,,,,,,,,,,,,13,,,48,64
31620,note_on,,1,0,12,,,,,,,,,,,,,,,15,,,48,64
31620,note_on,,0,0,12,,,,,,,,,,,,,,,15,,,64,64
31679,note_on,,59,0,11,,,,,,,,,,,,,,,13,,,48,0
31679,note_on,,59,0,7,,,,,,,,,,,,,,,2,,,48,0
31679,note_on,,59,0,12,,,,,,,,,,,,,,,15,,,60,0
31679,note_on,,0,0,12,,,,,,,,,,,,,,,15,,,64,0
31679,note_on,,0,0,12,,,,,,,,,,,,,,,15,,,64,0
31679,note_on,,0,0,12,,,,,,,,,,,,,,,15,,,48,0
31679,note_on,,59,0,8,,,,,,,,,,,,,,,10,,,76,0
31679,note_on,,59,0,5,,,,,,,,,,,,,,,0,,,76,0
31679,note_on,,119,0,10,,,,,,,,,,,,,,,12,,,72,0
31680,note_on,,1,0,7,,,,,,,,,,,,,,,2,,,50,64
31680,note_on,,1,0,8,,,,,,,,,,,,,,,10,,,77,64
31680,note_on,,1,0,10,,,,,,,,,,,,,,,12,,,69,64
31680,note_on,,1,0,5,,,,,,,,,,,,,,,0,,,77,64
31680,note_on,,1,0,12,,,,,,,,,,,,,,,15,,,50,64
31680,note_on,,1,0,11,,,,,,,,,,,,,,,13,,,50,64
31680,note_on,,0,0,12,,,,,,,,,,,,,,,15,,,53,64
31680,note_on,,0,0,12,,,,,,,,,,,,,,,15,,,62,64
31739,note_on,,59,0,8,,,,,,,,,,,,,,,10,,,77,0
31739,note_on,,59,0,5,,,,,,,,,,,,,,,0,,,77,0
31740,note_on,,1,0,8,,,,,,,,,,,,,,,10,,,79,64
31740,note_on,,1,0,5,,,,,,,,,,,,,,,0,,,79,64
31799,note_on,,0,0,12,,,,,,,,,,,,,,,15,,,53,0
31799,note_on,,119,0,12,,,,,,,,,,,,,,,15,,,50,0
31799,note_on,,119,0,10,,,,,,,,,,,,,,,12,,,69,0
31799,note_on,,59,0,8,,,,,,,,,,,,,,,10,,,79,0
31799,note_on,,119,0,11,,,,,,,,,,,,,,,13,,,50,0
31799,note_on,,119,0,7,,,,,,,,,,,,,,,2,,,50,0
31799,note_on,,59,0,5,,,,,,,,,,,,,,,0,,,79,0
31800,note_on,,1,0,5,,,,,,,,,,,,,,,0,,,76,64
31800,note_on,,1,0,12,,,,,,,,,,,,,,,15,,,43,64
31800,note_on,,1,0,7,,,,,,,,,,,,,,,2,,,43,64
31800,note_on,,1,0,10,,,,,,,,,,,,,,,12,,,67,64
31800,note_on,,0,0,12,,,,,,,,,,,,,,,15,,,55,64
31800,note_on,,1,0,8,,,,,,,,,,,,,,,10,,,76,64
31800,note_on,,1,0,11,,,,,,,,,,,,,,,13,,,43,64
31859,note_on,,59,0,5,,,,,,,,,,,,,,,0,,,76,0
31859,note_on,,59,0,8,,,,,,,,,,,,,,,10,,,76,0
31860,note_on,,1,0,5,,,,,,,,,,,,,,,0,,,77,64
31860,note_on,,1,0,8,,,,,,,,,,,,,,,10,,,77,64
31919,note_on,,119,0,11,,,,,,,,,,,,,,,13,,,43,0
31919,note_on,,479,0,6,,,,,,,,,,,,,,,1,,,72,0
31919,note_on,,119,0,7,,,,,,,,,,,,,,,2,,,43,0
31919,note_on,,59,0,8,,,,,,,,,,,,,,,10,,,77,0
31919,note_on,,119,0,12,,,,,,,,,,,,,,,15,,,62,0
31919,note_on,,59,0,5,,,,,,,,,,,,,,,0,,,77,0
31919,note_on,,0,0,12,,,,,,,,,,,,,,,15,,,43,0
31919,note_on,,0,0,12,,,,,,,,,,,,,,,15,,,55,0
31919,note_on,,119,0,10,,,,,,,,,,,,,,,12,,,67,0
31919,note_on,,479,0,9,,,,,,,,,,,,,,,11,,,72,0
31920,note_on,,1,0,10,,,,,,,,,,,,,,,12,,,67,64
31920,note_on,,1,0,5,,,,,,,,,,,,,,,0,,,74,64
31920,note_on,,1,0,6,,,,,,,,,,,,,,,1,,,71,64
31920,note_on,,1,0,8,,,,,,,,,,,,,,,10,,,74,64
31920,note_on,,1,0,9,,,,,,,,,,,,,,,11,,,71,64
31979,note_on,,59,0,5,,,,,,,,,,,,,,,0,,,74,0
31979,note_on,,59,0,8,,,,,,,,,,,,,,,10,,,74,0
31980,note_on,,1,0,8,,,,,,,,,,,,,,,10,,,79,64
31980,note_on,,1,0,5,,,,,,,,,,,,,,,0,,,79,64
32039,note_on,,59,0,5,,,,,,,,,,,,,,,0,,,79,0
32039,note_on,,119,0,10,,,,,,,,,,,,,,,12,,,67,0
32039,note_on,,59,0,8,,,,,,,,,,,,,,,10,,,79,0
32040,note_on,,1,0,10,,,,,,,,,,,,,,,12,,,67,64
32040,note_on,,1,0,5,,,,,,,,,,,,,,,0,,,77,64
32040,note_on,,1,0,8,,,,,,,,,,,,,,,10,,,77,64
32099,note_on,,59,0,8,,,,,,,,,,,,,,,10,,,77,0
32099,note_on,,59,0,5,,,,,,,,,,,,,,,0,,,77,0
32100,note_on,,1,0,8,,,,,,,,,,,,,,,10,,,79,64
32100,note_on,,1,0,5,,,,,,,,,,,,,,,0,,,79,64
32159,note_on,,119,0,10,,,,,,,,,,,,,,,12,,,67,0
32159,note_on,,239,0,6,,,,,,,,,,,,,,,1,,,71,0
32159,note_on,,59,0,8,,,,,,,,,,,,,,,10,,,79,0
32159,note_on,,239,0,9,,,,,,,,,,,,,,,11,,,71,0
32159,note_on,,59,0,5,,,,,,,,,,,,,,,0,,,79,0
32160,note_on,,1,0,10,,,,,,,,,,,,,,,12,,,60,64
32160,note_on,,1,0,6,,,,,,,,,,,,,,,1,,,72,64
32160,note_on,,1,0,8,,,,,,,,,,,,,,,10,,,76,64
32160,note_on,,1,0,9,,,,,,,,,,,,,,,11,,,72,64
32160,note_on,,1,0,5,,,,,,,,,,,,,,,0,,,76,64
32219,note_on,,59,0,8,,,,,,,,,,,,,,,10,,,76,0
32219,note_on,,59,0,5,,,,,,,,,,,,,,,0,,,76,0
32220,note_on,,1,0,5,,,,,,,,,,,,,,,0,,,64,64
32220,note_on,,1,0,8,,,,,,,,,,,,,,,10,,,64,64
32279,note_on,,59,0,8,,,,,,,,,,,,,,,10,,,64,0
32279,note_on,,119,0,6,,,,,,,,,,,,,,,1,,,72,0
32279,note_on,,119,0,10,,,,,,,,,,,,,,,12,,,60,0
32279,note_on,,119,0,9,,,,,,,,,,,,,,,11,,,72,0
32279,note_on,,59,0,5,,,,,,,,,,,,,,,0,,,64,0
32280,note_on,,1,0,8,,,,,,,,,,,,,,,10,,,66,64
32280,note_on,,1,0,5,,,,,,,,,,,,,,,0,,,66,64
32280,note_on,,1,0,10,,,,,,,,,,,,,,,12,,,59,64
32280,note_on,,361,0,12,,,,,,,,,,,,,,,15,,,52,64
32280,note_on,,361,0,11,,,,,,,,,,,,,,,13,,,52,64
32280,note_on,,361,0,7,,,,,,,,,,,,,,,2,,,52,64
32339,note_on,,59,0,8,,,,,,,,,,,,,,,10,,,66,0
32339,note_on,,59,0,5,,,,,,,,,,,,,,,0,,,66,0
32340,note_on,,1,0,8,,,,,,,,,,,,,,,10,,,68,64
32340,note_on,,1,0,5,,,,,,,,,,,,,,,0,,,68,64
32399,note_on,,119,0,7,,,,,,,,,,,,,,,2,,,52,0
32399,note_on,,119,0,10,,,,,,,,,,,,,,,12,,,59,0
32399,note_on,,119,0,12,,,,,,,,,,,,,,,15,,,52,0
32399,note_on,,119,0,11,,,,,,,,,,,,,,,13,,,52,0
32399,note_on,,59,0,5,,,,,,,,,,,,,,,0,,,68,0
32399,note_on,,59,0,8,,,,,,,,,,,,,,,10,,,68,0
32400,note_on,,1,0,7,,,,,,,,,,,,,,,2,,,48,64
32400,note_on,,1,0,10,,,,,,,,,,,,,,,12,,,64,64
32400,note_on,,1,0,12,,,,,,,,,,,,,,,15,,,48,64
32400,note_on,,1,0,5,,,,,,,,,,,,,,,0,,,69,64
32400,note_on,,0,0,12,,,,,,,,,,,,,,,15,,,52,64
32400,note_on,,0,0,12,,,,,,,,,,,,,,,15,,,64,64
32400,note_on,,1,0,8,,,,,,,,,,,,,,,10,,,69,64
32400,note_on,,1,0,11,,,,,,,,,,,,,,,13,,,48,64
32460,note_on,,181,0,6,,,,,,,,,,,,,,,1,,,69,64
32460,note_on,,181,0,9,,,,,,,,,,,,,,,11,,,69,64
32519,note_on,,119,0,12,,,,,,,,,,,,,,,15,,,48,0
32519,note_on,,59,0,9,,,,,,,,,,,,,,,11,,,69,0
32519,note_on,,0,0,12,,,,,,,,,,,,,,,15,,,64,0
32519,note_on,,119,0,10,,,,,,,,,,,,,,,12,,,64,0
32519,note_on,,119,0,7,,,,,,,,,,,,,,,2,,,48,0
32519,note_on,,119,0,11,,,,,,,,,,,,,,,13,,,48,0
32519,note_on,,59,0,6,,,,,,,,,,,,,,,1,,,69,0
32520,note_on,,1,0,9,,,,,,,,,,,,,,,11,,,71,64
32520,note_on,,1,0,12,,,,,,,,,,,,,,,15,,,47,64
32520,note_on,,0,0,12,,,,,,,,,,,,,,,15,,,62,64
32520,note_on,,1,0,10,,,,,,,,,,,,,,,12,,,64,64
32520,note_on,,1,0,11,,,,,,,,,,,,,,,13,,,47,64
32520,note_on,,1,0,7,,,,,,,,,,,,,,,2,,,47,64
32520,note_on,,1,0,6,,,,,,,,,,,,,,,1,,,71,64
32579,note_on,,59,0,11,,,,,,,,,,,,,,,13,,,47,0
32579,note_on,,0,0,12,,,,,,,,,,,,,,,15,,,62,0
32579,note_on,,59,0,12,,,,,,,,,,,,,,,15,,,47,0
32579,note_on,,59,0,7,,,,,,,,,,,,,,,2,,,47,0
32579,note_on,,59,0,9,,,,,,,,,,,,,,,11,,,71,0
32579,note_on,,59,0,6,,,,,,,,,,,,,,,1,,,71,0
32580,note_on,,1,0,6,,,,,,,,,,,,,,,1,,,72,64
32580,note_on,,0,0,12,,,,,,,,,,,,,,,15,,,60,64
32580,note_on,,1,0,7,,,,,,,,,,,,,,,2,,,45,64
32580,note_on,,1,0,11,,,,,,,,,,,,,,,13,,,45,64
32580,note_on,,1,0,12,,,,,,,,,,,,,,,15,,,45,64
32580,note_on,,1,0,9,,,,,,,,,,,,,,,11,,,72,64
32639,note_on,,59,0,12,,,,,,,,,,,,,,,15,,,52,0
32639,note_on,,59,0,11,,,,,,,,,,,,,,,13,,,45,0
32639,note_on,,59,0,9,,,,,,,,,,,,,,,11,,,72,0
32639,note_on,,59,0,7,,,,,,,,,,,,,,,2,,,45,0
32639,note_on,,119,0,10,,,,,,,,,,,,,,,12,,,64,0
32639,note_on,,59,0,6,,,,,,,,,,,,,,,1,,,72,0
32639,note_on,,0,0,12,,,,,,,,,,,,,,,15,,,60,0
32639,note_on,,0,0,12,,,,,,,,,,,,,,,15,,,45,0
32640,note_on,,0,0,12,,,,,,,,,,,,,,,15,,,50,64
32640,note_on,,0,0,12,,,,,,,,,,,,,,,15,,,59,64
32640,note_on,,1,0,9,,,,,,,,,,,,,,,11,,,74,64
32640,note_on,,1,0,12,,,,,,,,,,,,,,,15,,,47,64
32640,note_on,,1,0,10,,,,,,,,,,,,,,,12,,,62,64
32640,note_on,,1,0,11,,,,,,,,,,,,,,,13,,,47,64
32640,note_on,,1,0,7,,,,,,,,,,,,,,,2,,,47,64
32640,note_on,,1,0,6,,,,,,,,,,,,,,,1,,,74,64
32699,note_on,,59,0,6,,,,,,,,,,,,,,,1,,,74,0
32699,note_on,,59,0,9,,,,,,,,,,,,,,,11,,,74,0
32700,note_on,,1,0,9,,,,,,,,,,,,,,,11,,,76,64
32700,note_on,,1,0,6,,,,,,,,,,,,,,,1,,,76,64
32759,note_on,,59,0,6,,,,,,,,,,,,,,,1,,,76,0
32759,note_on,,119,0,7,,,,,,,,,,,,,,,2,,,47,0
32759,note_on,,59,0,9,,,,,,,,,,,,,,,11,,,76,0
32759,note_on,,119,0,11,,,,,,,,,,,,,,,13,,,47,0
32759,note_on,,0,0,12,,,,,,,,,,,,,,,15,,,50,0
32759,note_on,,119,0,10,,,,,,,,,,,,,,,12,,,62,0
32759,note_on,,119,0,12,,,,,,,,,,,,,,,15,,,47,0
32760,note_on,,1,0,12,,,,,,,,,,,,,,,15,,,40,64
32760,note_on,,0,0,12,,,,,,,,,,,,,,,15,,,52,64
32760,note_on,,1,0,6,,,,,,,,,,,,,,,1,,,72,64
32760,note_on,,1,0,10,,,,,,,,,,,,,,,12,,,64,64
32760,note_on,,1,0,11,,,,,,,,,,,,,,,13,,,40,64
32760,note_on,,1,0,9,,,,,,,,,,,,,,,11,,,72,64
32760,note_on,,1,0,7,,,,,,,,,,,,,,,2,,,40,64
32819,note_on,,59,0,9,,,,,,,,,,,,,,,11,,,72,0
32819,note_on,,59,0,6,,,,,,,,,,,,,,,1,,,72,0
32820,note_on,,1,0,9,,,,,,,,,,,,,,,11,,,74,64
32820,note_on,,1,0,6,,,,,,,,,,,,,,,1,,,74,64
32879,note_on,,59,0,6,,,,,,,,,,,,,,,1,,,74,0
32879,note_on,,119,0,11,,,,,,,,,,,,,,,13,,,40,0
32879,note_on,,0,0,12,,,,,,,,,,,,,,,15,,,52,0
32879,note_on,,0,0,12,,,,,,,,,,,,,,,15,,,40,0
32879,note_on,,119,0,12,,,,,,,,,,,,,,,15,,,59,0
32879,note_on,,479,0,8,,,,,,,,,,,,,,,10,,,69,0
32879,note_on,,119,0,7,,,,,,,,,,,,,,,2,,,40,0
32879,note_on,,119,0,10,,,,,,,,,,,,,,,12,,,64,0
32879,note_on,,59,0,9,,,,,,,,,,,,,,,11,,,74,0
32879,note_on,,479,0,5,,,,,,,,,,,,,,,0,,,69,0
32880,note_on,,1,0,6,,,,,,,,,,,,,,,1,,,71,64
32880,note_on,,1,0,10,,,,,,,,,,,,,,,12,,,64,64
32880,note_on,,1,0,5,,,,,,,,,,,,,,,0,,,68,64
32880,note_on,,1,0,9,,,,,,,,,,,,,,,11,,,71,64
32880,note_on,,1,0,8,,,,,,,,,,,,,,,10,,,68,64
32939,note_on,,59,0,6,,,,,,,,,,,,,,,1,,,71,0
32939,note_on,,59,0,9,,,,,,,,,,,,,,,11,,,71,0
32940,note_on,,1,0,6,,,,,,,,,,,,,,,1,,,76,64
32940,note_on,,1,0,9,,,,,,,,,,,,,,,11,,,76,64
32999,note_on,,59,0,9,,,,,,,,,,,,,,,11,,,76,0
32999,note_on,,59,0,6,,,,,,,,,,,,,,,1,,,76,0
32999,note_on,,119,0,10,,,,,,,,,,,,,,,12,,,64,0
33000,note_on,,1,0,6,,,,,,,,,,,,,,,1,,,74,64
33000,note_on,,1,0,9,,,,,,,,,,,,,,,11,,,74,64
33000,note_on,,1,0,10,,,,,,,,,,,,,,,12,,,64,64
33059,note_on,,59,0,9,,,,,,,,,,,,,,,11,,,74,0
33059,note_on,,59,0,6,,,,,,,,,,,,,,,1,,,74,0
33060,note_on,,1,0,9,,,,,,,,,,,,,,,11,,,76,64
33060,note_on,,1,0,6,,,,,,,,,,,,,,,1,,,76,64
33119,note_on,,239,0,5,,,,,,,,,,,,,,,0,,,68,0
33119,note_on,,239,0,8,,,,,,,,,,,,,,,10,,,68,0
33119,note_on,,59,0,9,,,,,,,,,,,,,,,11,,,76,0
33119,note_on,,59,0,6,,,,,,,,,,,,,,,1,,,76,0
33119,note_on,,119,0,10,,,,,,,,,,,,,,,12,,,64,0
33120,note_on,,1,0,10,,,,,,,,,,,,,,,12,,,69,64
33120,note_on,,1,0,5,,,,,,,,,,,,,,,0,,,69,64
33120,note_on,,1,0,6,,,,,,,,,,,,,,,1,,,72,64
33120,note_on,,1,0,9,,,,,,,,,,,,,,,11,,,72,64
33120,note_on,,1,0,8,,,,,,,,,,,,,,,10,,,69,64
33179,note_on,,59,0,8,,,,,,,,,,,,,,,10,,,69,0
33179,note_on,,59,0,5,,,,,,,,,,,,,,,0,,,69,0
33180,note_on,,1,0,8,,,,,,,,,,,,,,,10,,,76,64
33180,note_on,,1,0,5,,,,,,,,,,,,,,,0,,,76,64
33239,note_on,,119,0,10,,,,,,,,,,,,,,,12,,,69,0
33239,note_on,,59,0,5,,,,,,,,,,,,,,,0,,,76,0
33239,note_on,,59,0,8,,,,,,,,,,,,,,,10,,,76,0
33240,note_on,,1,0,10,,,,,,,,,,,,,,,12,,,64,64
33240,note_on,,361,0,11,,,,,,,,,,,,,,,13,,,64,64
33240,note_on,,361,0,12,,,,,,,,,,,,,,,15,,,64,64
33240,note_on,,1,0,8,,,,,,,,,,,,,,,10,,,76,64
33240,note_on,,1,0,5,,,,,,,,,,,,,,,0,,,76,64
33240,note_on,,361,0,7,,,,,,,,,,,,,,,2,,,64,64
33299,note_on,,59,0,5,,,,,,,,,,,,,,,0,,,76,0
33299,note_on,,59,0,8,,,,,,,,,,,,,,,10,,,76,0
33299,note_on,,179,0,6,,,,,,,,,,,,,,,1,,,72,0
33299,note_on,,179,0,9,,,,,,,,,,,,,,,11,,,72,0
33300,note_on,,1,0,5,,,,,,,,,,,,,,,0,,,80,64
33300,note_on,,1,0,9,,,,,,,,,,,,,,,11,,,71,64
33300,note_on,,1,0,8,,,,,,,,,,,,,,,10,,,80,64
33300,note_on,,1,0,6,,,,,,,,,,,,,,,1,,,71,64
33359,note_on,,59,0,5,,,,,,,,,,,,,,,0,,,80,0
33359,note_on,,59,0,8,,,,,,,,,,,,,,,10,,,80,0
33359,note_on,,119,0,11,,,,,,,,,,,,,,,13,,,64,0
33359,note_on,,59,0,9,,,,,,,,,,,,,,,11,,,71,0
33359,note_on,,59,0,6,,,,,,,,,,,,,,,1,,,71,0
33359,note_on,,119,0,7,,,,,,,,,,,,,,,2,,,64,0
33359,note_on,,119,0,10,,,,,,,,,,,,,,,12,,,64,0
33359,note_on,,119,0,12,,,,,,,,,,,,,,,15,,,64,0
33360,note_on,,1,0,9,,,,,,,,,,,,,,,11,,,69,64
33360,note_on,,1,0,12,,,,,,,,,,,,,,,15,,,60,64
33360,note_on,,1,0,8,,,,,,,,,,,,,,,10,,,81,64
33360,note_on,,1,0,7,,,,,,,,,,,,,,,2,,,60,64
33360,note_on,,1,0,5,,,,,,,,,,,,,,,0,,,81,64
33360,note_on,,1,0,11,,,,,,,,,,,,,,,13,,,60,64
33360,note_on,,1,0,10,,,,,,,,,,,,,,,12,,,64,64
33360,note_on,,0,0,12,,,,,,,,,,,,,,,15,,,69,64
33360,note_on,,1,0,6,,,,,,,,,,,,,,,1,,,69,64
33360,note_on,,0,0,12,,,,,,,,,,,,,,,15,,,64,64
33419,note_on,,59,0,9,,,,,,,,,,,,,,,11,,,69,0
33419,note_on,,59,0,6,,,,,,,,,,,,,,,1,,,69,0
33420,note_on,,1,0,6,,,,,,,,,,,,,,,1,,,76,64
33420,note_on,,1,0,9,,,,,,,,,,,,,,,11,,,76,64
33479,note_on,,119,0,12,,,,,,,,,,,,,,,15,,,60,0
33479,note_on,,119,0,10,,,,,,,,,,,,,,,12,,,64,0
33479,note_on,,59,0,6,,,,,,,,,,,,,,,1,,,76,0
33479,note_on,,119,0,7,,,,,,,,,,,,,,,2,,,60,0
33479,note_on,,119,0,11,,,,,,,,,,,,,,,13,,,60,0
33479,note_on,,59,0,9,,,,,,,,,,,,,,,11,,,76,0
33480,note_on,,1,0,10,,,,,,,,,,,,,,,12,,,69,64
33480,note_on,,1,0,7,,,,,,,,,,,,,,,2,,,59,64
33480,note_on,,1,0,9,,,,,,,,,,,,,,,11,,,74,64
33480,note_on,,1,0,11,,,,,,,,,,,,,,,13,,,59,64
33480,note_on,,1,0,6,,,,,,,,,,,,,,,1,,,74,64
33480,note_on,,1,0,12,,,,,,,,,,,,,,,15,,,59,64
33539,note_on,,59,0,9,,,,,,,,,,,,,,,11,,,74,0
33539,note_on,,59,0,6,,,,,,,,,,,,,,,1,,,74,0
33539,note_on,,59,0,7,,,,,,,,,,,,,,,2,,,59,0
33539,note_on,,59,0,12,,,,,,,,,,,,,,,15,,,59,0
33539,note_on,,59,0,11,,,,,,,,,,,,,,,13,,,59,0
33540,note_on,,1,0,6,,,,,,,,,,,,,,,1,,,72,64
33540,note_on,,1,0,7,,,,,,,,,,,,,,,2,,,57,64
33540,note_on,,1,0,12,,,,,,,,,,,,,,,15,,,57,64
33540,note_on,,1,0,9,,,,,,,,,,,,,,,11,,,72,64
33540,note_on,,1,0,11,,,,,,,,,,,,,,,13,,,57,64
33599,note_on,,59,0,7,,,,,,,,,,,,,,,2,,,57,0
33599,note_on,,59,0,6,,,,,,,,,,,,,,,1,,,72,0
33599,note_on,,0,0,12,,,,,,,,,,,,,,,15,,,57,0
33599,note_on,,0,0,12,,,,,,,,,,,,,,,15,,,69,0
33599,note_on,,59,0,11,,,,,,,,,,,,,,,13,,,57,0
33599,note_on,,59,0,12,,,,,,,,,,,,,,,15,,,64,0
33599,note_on,,119,0,10,,,,,,,,,,,,,,,12,,,69,0
33599,note_on,,59,0,9,,,,,,,,,,,,,,,11,,,72,0
33600,note_on,,1,0,6,,,,,,,,,,,,,,,1,,,71,64
33600,note_on,,0,0,12,,,,,,,,,,,,,,,15,,,65,64
33600,note_on,,0,0,12,,,,,,,,,,,,,,,15,,,71,64
33600,note_on,,0,0,12,,,,,,,,,,,,,,,15,,,69,64
33600,note_on,,1,0,12,,,,,,,,,,,,,,,15,,,62,64
33600,note_on,,1,0,10,,,,,,,,,,,,,,,12,,,71,64
33600,note_on,,1,0,11,,,,,,,,,,,,,,,13,,,62,64
33600,note_on,,1,0,9,,,,,,,,,,,,,,,11,,,71,64
33600,note_on,,1,0,7,,,,,,,,,,,,,,,2,,,62,64
33659,note_on,,59,0,12,,,,,,,,,,,,,,,15,,,62,0
33659,note_on,,59,0,11,,,,,,,,,,,,,,,13,,,62,0
33659,note_on,,59,0,7,,,,,,,,,,,,,,,2,,,62,0
33660,note_on,,1,0,12,,,,,,,,,,,,,,,15,,,64,64
33660,note_on,,1,0,11,,,,,,,,,,,,,,,13,,,64,64
33660,note_on,,1,0,7,,,,,,,,,,,,,,,2,,,64,64
33719,note_on,,59,0,12,,,,,,,,,,,,,,,15,,,64,0
33719,note_on,,59,0,11,,,,,,,,,,,,,,,13,,,64,0
33719,note_on,,59,0,7,,,,,,,,,,,,,,,2,,,64,0
33719,note_on,,119,0,10,,,,,,,,,,,,,,,12,,,71,0
33720,note_on,,1,0,12,,,,,,,,,,,,,,,15,,,60,64
33720,note_on,,1,0,11,,,,,,,,,,,,,,,13,,,60,64
33720,note_on,,1,0,7,,,,,,,,,,,,,,,2,,,60,64
33720,note_on,,1,0,10,,,,,,,,,,,,,,,12,,,64,64
33779,note_on,,59,0,7,,,,,,,,,,,,,,,2,,,60,0
33779,note_on,,59,0,12,,,,,,,,,,,,,,,15,,,60,0
33779,note_on,,59,0,11,,,,,,,,,,,,,,,13,,,60,0
33780,note_on,,1,0,11,,,,,,,,,,,,,,,13,,,62,64
33780,note_on,,1,0,7,,,,,,,,,,,,,,,2,,,62,64
33780,note_on,,1,0,12,,,,,,,,,,,,,,,15,,,62,64
33839,note_on,,119,0,10,,,,,,,,,,,,,,,12,,,64,0
33839,note_on,,479,0,5,,,,,,,,,,,,,,,0,,,81,0
33839,note_on,,59,0,12,,,,,,,,,,,,,,,15,,,69,0
33839,note_on,,0,0,12,,,,,,,,,,,,,,,15,,,65,0
33839,note_on,,59,0,11,,,,,,,,,,,,,,,13,,,62,0
33839,note_on,,0,0,12,,,,,,,,,,,,,,,15,,,62,0
33839,note_on,,59,0,7,,,,,,,,,,,,,,,2,,,62,0
33839,note_on,,479,0,8,,,,,,,,,,,,,,,10,,,81,0
33840,note_on,,0,0,12,,,,,,,,,,,,,,,15,,,68,64
33840,note_on,,1,0,12,,,,,,,,,,,,,,,15,,,59,64
33840,note_on,,1,0,11,,,,,,,,,,,,,,,13,,,59,64
33840,note_on,,1,0,8,,,,,,,,,,,,,,,10,,,80,64
33840,note_on,,1,0,7,,,,,,,,,,,,,,,2,,,59,64
33840,note_on,,1,0,10,,,,,,,,,,,,,,,12,,,62,64
33840,note_on,,0,0,12,,,,,,,,,,,,,,,15,,,62,64
33840,note_on,,1,0,5,,,,,,,,,,,,,,,0,,,80,64
33899,note_on,,59,0,12,,,,,,,,,,,,,,,15,,,59,0
33899,note_on,,59,0,11,,,,,,,,,,,,,,,13,,,59,0
33899,note_on,,59,0,7,,,,,,,,,,,,,,,2,,,59,0
33900,note_on,,1,0,7,,,,,,,,,,,,,,,2,,,64,64
33900,note_on,,1,0,11,,,,,,,,,,,,,,,13,,,64,64
33900,note_on,,1,0,12,,,,,,,,,,,,,,,15,,,64,64
33959,note_on,,119,0,10,,,,,,,,,,,,,,,12,,,62,0
33959,note_on,,59,0,7,,,,,,,,,,,,,,,2,,,64,0
33959,note_on,,359,0,6,,,,,,,,,,,,,,,1,,,71,0
33959,note_on,,59,0,12,,,,,,,,,,,,,,,15,,,64,0
33959,note_on,,59,0,11,,,,,,,,,,,,,,,13,,,64,0
33959,note_on,,359,0,9,,,,,,,,,,,,,,,11,,,71,0
33960,note_on,,1,0,6,,,,,,,,,,,,,,,1,,,71,64
33960,note_on,,1,0,7,,,,,,,,,,,,,,,2,,,62,64
33960,note_on,,1,0,11,,,,,,,,,,,,,,,13,,,62,64
33960,note_on,,1,0,10,,,,,,,,,,,,,,,12,,,71,64
33960,note_on,,1,0,9,,,,,,,,,,,,,,,11,,,71,64
34019,note_on,,59,0,11,,,,,,,,,,,,,,,13,,,62,0
34019,note_on,,59,0,7,,,,,,,,,,,,,,,2,,,62,0
34020,note_on,,1,0,7,,,,,,,,,,,,,,,2,,,64,64
34020,note_on,,1,0,11,,,,,,,,,,,,,,,13,,,64,64
34020,note_on,,61,0,12,,,,,,,,,,,,,,,15,,,64,64
34079,note_on,,119,0,9,,,,,,,,,,,,,,,11,,,71,0
34079,note_on,,119,0,10,,,,,,,,,,,,,,,12,,,71,0
34079,note_on,,239,0,5,,,,,,,,,,,,,,,0,,,80,0
34079,note_on,,59,0,11,,,,,,,,,,,,,,,13,,,64,0
34079,note_on,,239,0,8,,,,,,,,,,,,,,,10,,,80,0
34079,note_on,,0,0,12,,,,,,,,,,,,,,,15,,,62,0
34079,note_on,,59,0,7,,,,,,,,,,,,,,,2,,,64,0
34079,note_on,,0,0,12,,,,,,,,,,,,,,,15,,,64,0
34079,note_on,,119,0,6,,,,,,,,,,,,,,,1,,,71,0
34079,note_on,,59,0,12,,,,,,,,,,,,,,,15,,,71,0
34079,note_on,,0,0,12,,,,,,,,,,,,,,,15,,,68,0
34080,note_on,,1,0,10,,,,,,,,,,,,,,,12,,,69,64
34080,note_on,,1,0,6,,,,,,,,,,,,,,,1,,,76,64
34080,note_on,,0,0,12,,,,,,,,,,,,,,,15,,,64,64
34080,note_on,,1,0,7,,,,,,,,,,,,,,,2,,,60,64
34080,note_on,,0,0,12,,,,,,,,,,,,,,,15,,,69,64
34080,note_on,,1,0,8,,,,,,,,,,,,,,,10,,,81,64
34080,note_on,,1,0,12,,,,,,,,,,,,,,,15,,,60,64
34080,note_on,,1,0,11,,,,,,,,,,,,,,,13,,,60,64
34080,note_on,,1,0,5,,,,,,,,,,,,,,,0,,,81,64
34080,note_on,,0,0,12,,,,,,,,,,,,,,,15,,,72,64
34080,note_on,,1,0,9,,,,,,,,,,,,,,,11,,,76,64
34139,note_on,,59,0,5,,,,,,,,,,,,,,,0,,,81,0
34139,note_on,,59,0,8,,,,,,,,,,,,,,,10,,,81,0
34140,note_on,,1,0,5,,,,,,,,,,,,,,,0,,,76,64
34140,note_on,,1,0,8,,,,,,,,,,,,,,,10,,,76,64
34199,note_on,,119,0,7,,,,,,,,,,,,,,,2,,,60,0
34199,note_on,,119,0,11,,,,,,,,,,,,,,,13,,,60,0
34199,note_on,,119,0,9,,,,,,,,,,,,,,,11,,,76,0
34199,note_on,,119,0,10,,,,,,,,,,,,,,,12,,,69,0
34199,note_on,,119,0,12,,,,,,,,,,,,,,,15,,,60,0
34199,note_on,,119,0,6,,,,,,,,,,,,,,,1,,,76,0
34199,note_on,,59,0,8,,,,,,,,,,,,,,,10,,,76,0
34199,note_on,,59,0,5,,,,,,,,,,,,,,,0,,,76,0
34200,note_on,,1,0,6,,,,,,,,,,,,,,,1,,,69,64
34200,note_on,,1,0,12,,,,,,,,,,,,,,,15,,,48,64
34200,note_on,,1,0,9,,,,,,,,,,,,,,,11,,,69,64
34200,note_on,,1,0,8,,,,,,,,,,,,,,,10,,,74,64
34200,note_on,,1,0,11,,,,,,,,,,,,,,,13,,,48,64
34200,note_on,,1,0,5,,,,,,,,,,,,,,,0,,,74,64
34200,note_on,,1,0,10,,,,,,,,,,,,,,,12,,,64,64
34200,note_on,,1,0,7,,,,,,,,,,,,,,,2,,,48,64
34259,note_on,,59,0,5,,,,,,,,,,,,,,,0,,,74,0
34259,note_on,,59,0,8,,,,,,,,,,,,,,,10,,,74,0
34260,note_on,,1,0,8,,,,,,,,,,,,,,,10,,,76,64
34260,note_on,,1,0,5,,,,,,,,,,,,,,,0,,,76,64
34319,note_on,,0,0,12,,,,,,,,,,,,,,,15,,,48,0
34319,note_on,,0,0,12,,,,,,,,,,,,,,,15,,,64,0
34319,note_on,,0,0,12,,,,,,,,,,,,,,,15,,,69,0
34319,note_on,,119,0,9,,,,,,,,,,,,,,,11,,,69,0
34319,note_on,,59,0,5,,,,,,,,,,,,,,,0,,,76,0
34319,note_on,,119,0,12,,,,,,,,,,,,,,,15,,,72,0
34319,note_on,,119,0,10,,,,,,,,,,,,,,,12,,,64,0
34319,note_on,,119,0,11,,,,,,,,,,,,,,,13,,,48,0
34319,note_on,,119,0,6,,,,,,,,,,,,,,,1,,,69,0
34319,note_on,,119,0,7,,,,,,,,,,,,,,,2,,,48,0
34319,note_on,,59,0,8,,,,,,,,,,,,,,,10,,,76,0
34320,note_on,,0,0,12,,,,,,,,,,,,,,,15,,,72,64
34320,note_on,,1,0,8,,,,,,,,,,,,,,,10,,,72,64
34320,note_on,,0,0,12,,,,,,,,,,,,,,,15,,,57,64
34320,note_on,,0,0,12,,,,,,,,,,,,,,,15,,,69,64
34320,note_on,,1,0,10,,,,,,,,,,,,,,,12,,,69,64
34320,note_on,,1,0,5,,,,,,,,,,,,,,,0,,,72,64
34320,note_on,,1,0,6,,,,,,,,,,,,,,,1,,,64,64
34320,note_on,,1,0,7,,,,,,,,,,,,,,,2,,,45,64
34320,note_on,,1,0,11,,,,,,,,,,,,,,,13,,,45,64
34320,note_on,,1,0,9,,,,,,,,,,,,,,,11,,,64,64
34320,note_on,,1,0,12,,,,,,,,,,,,,,,15,,,45,64
34320,note_on,,0,0,12,,,,,,,,,,,,,,,15,,,76,64
34379,note_on,,59,0,8,,,,,,,,,,,,,,,10,,,72,0
34379,note_on,,59,0,5,,,,,,,,,,,,,,,0,,,72,0
34380,note_on,,1,0,8,,,,,,,,,,,,,,,10,,,76,64
34380,note_on,,1,0,5,,,,,,,,,,,,,,,0,,,76,64
34439,note_on,,59,0,5,,,,,,,,,,,,,,,0,,,76,0
34439,note_on,,119,0,9,,,,,,,,,,,,,,,11,,,64,0
34439,note_on,,119,0,10,,,,,,,,,,,,,,,12,,,69,0
34439,note_on,,119,0,6,,,,,,,,,,,,,,,1,,,64,0
34439,note_on,,59,0,8,,,,,,,,,,,,,,,10,,,76,0
34439,note_on,,119,0,12,,,,,,,,,,,,,,,15,,,45,0
34439,note_on,,119,0,11,,,,,,,,,,,,,,,13,,,45,0
34439,note_on,,119,0,7,,,,,,,,,,,,,,,2,,,45,0
34440,note_on,,1,0,11,,,,,,,,,,,,,,,13,,,48,64
34440,note_on,,1,0,12,,,,,,,,,,,,,,,15,,,48,64
34440,note_on,,1,0,9,,,,,,,,,,,,,,,11,,,69,64
34440,note_on,,1,0,10,,,,,,,,,,,,,,,12,,,64,64
34440,note_on,,1,0,8,,,,,,,,,,,,,,,10,,,74,64
34440,note_on,,1,0,6,,,,,,,,,,,,,,,1,,,69,64
34440,note_on,,1,0,5,,,,,,,,,,,,,,,0,,,74,64
34440,note_on,,1,0,7,,,,,,,,,,,,,,,2,,,48,64
34499,note_on,,59,0,5,,,,,,,,,,,,,,,0,,,74,0
34499,note_on,,59,0,8,,,,,,,,,,,,,,,10,,,74,0
34500,note_on,,1,0,5,,,,,,,,,,,,,,,0,,,76,64
34500,note_on,,1,0,8,,,,,,,,,,,,,,,10,,,76,64
34559,note_on,,0,0,12,,,,,,,,,,,,,,,15,,,57,0
34559,note_on,,59,0,8,,,,,,,,,,,,,,,10,,,76,0
34559,note_on,,59,0,5,,,,,,,,,,,,,,,0,,,76,0
34559,note_on,,0,0,12,,,,,,,,,,,,,,,15,,,69,0
34559,note_on,,119,0,10,,,,,,,,,,,,,,,12,,,64,0
34559,note_on,,119,0,9,,,,,,,,,,,,,,,11,,,69,0
34559,note_on,,0,0,12,,,,,,,,,,,,,,,15,,,48,0
34559,note_on,,119,0,12,,,,,,,,,,,,,,,15,,,76,0
34559,note_on,,119,0,7,,,,,,,,,,,,,,,2,,,48,0
34559,note_on,,0,0,12,,,,,,,,,,,,,,,15,,,72,0
34559,note_on,,119,0,11,,,,,,,,,,,,,,,13,,,48,0
34559,note_on,,119,0,6,,,,,,,,,,,,,,,1,,,69,0
34560,note_on,,1,0,7,,,,,,,,,,,,,,,2,,,42,64
34560,note_on,,1,0,11,,,,,,,,,,,,,,,13,,,42,64
34560,note_on,,1,0,10,,,,,,,,,,,,,,,12,,,66,64
34560,note_on,,0,0,12,,,,,,,,,,,,,,,15,,,62,64
34560,note_on,,0,0,12,,,,,,,,,,,,,,,15,,,69,64
34560,note_on,,0,0,12,,,,,,,,,,,,,,,15,,,72,64
34560,note_on,,0,0,12,,,,,,,,,,,,,,,15,,,74,64
34560,note_on,,1,0,12,,,,,,,,,,,,,,,15,,,42,64
34560,note_on,,1,0,5,,,,,,,,,,,,,,,0,,,69,64
34560,note_on,,1,0,9,,,,,,,,,,,,,,,11,,,69,64
34560,note_on,,1,0,6,,,,,,,,,,,,,,,1,,,69,64
34560,note_on,,1,0,8,,,,,,,,,,,,,,,10,,,69,64
34619,note_on,,59,0,5,,,,,,,,,,,,,,,0,,,69,0
34619,note_on,,59,0,8,,,,,,,,,,,,,,,10,,,69,0
34620,note_on,,1,0,5,,,,,,,,,,,,,,,0,,,74,64
34620,note_on,,1,0,8,,,,,,,,,,,,,,,10,,,74,64
34679,note_on,,119,0,9,,,,,,,,,,,,,,,11,,,69,0
34679,note_on,,119,0,12,,,,,,,,,,,,,,,15,,,42,0
34679,note_on,,119,0,7,,,,,,,,,,,,,,,2,,,42,0
34679,note_on,,119,0,10,,,,,,,,,,,,,,,12,,,66,0
34679,note_on,,59,0,8,,,,,,,,,,,,,,,10,,,74,0
34679,note_on,,59,0,5,,,,,,,,,,,,,,,0,,,74,0
34679,note_on,,119,0,11,,,,,,,,,,,,,,,13,,,42,0
34679,note_on,,119,0,6,,,,,,,,,,,,,,,1,,,69,0
34680,note_on,,1,0,6,,,,,,,,,,,,,,,1,,,69,64
34680,note_on,,1,0,5,,,,,,,,,,,,,,,0,,,72,64
34680,note_on,,1,0,9,,,,,,,,,,,,,,,11,,,69,64
34680,note_on,,1,0,12,,,,,,,,,,,,,,,15,,,54,64
34680,note_on,,1,0,7,,,,,,,,,,,,,,,2,,,54,64
34680,note_on,,1,0,10,,,,,,,,,,,,,,,12,,,62,64
34680,note_on,,1,0,8,,,,,,,,,,,,,,,10,,,72,64
34680,note_on,,1,0,11,,,,,,,,,,,,,,,13,,,54,64
34739,note_on,,59,0,5,,,,,,,,,,,,,,,0,,,72,0
34739,note_on,,59,0,8,,,,,,,,,,,,,,,10,,,72,0
34740,note_on,,1,0,5,,,,,,,,,,,,,,,0,,,74,64
34740,note_on,,1,0,8,,,,,,,,,,,,,,,10,,,74,64
34799,note_on,,119,0,11,,,,,,,,,,,,,,,13,,,54,0
34799,note_on,,119,0,7,,,,,,,,,,,,,,,2,,,54,0
34799,note_on,,119,0,10,,,,,,,,,,,,,,,12,,,62,0
34799,note_on,,119,0,12,,,,,,,,,,,,,,,15,,,54,0
34799,note_on,,59,0,8,,,,,,,,,,,,,,,10,,,74,0
34799,note_on,,119,0,9,,,,,,,,,,,,,,,11,,,69,0
34799,note_on,,119,0,6,,,,,,,,,,,,,,,1,,,69,0
34799,note_on,,59,0,5,,,,,,,,,,,,,,,0,,,74,0
34800,note_on,,1,0,8,,,,,,,,,,,,,,,10,,,66,64
34800,note_on,,1,0,7,,,,,,,,,,,,,,,2,,,50,64
34800,note_on,,1,0,11,,,,,,,,,,,,,,,13,,,50,64
34800,note_on,,1,0,6,,,,,,,,,,,,,,,1,,,69,64
34800,note_on,,1,0,9,,,,,,,,,,,,,,,11,,,57,64
34800,note_on,,1,0,5,,,,,,,,,,,,,,,0,,,66,64
34800,note_on,,1,0,10,,,,,,,,,,,,,,,12,,,62,64
34800,note_on,,1,0,12,,,,,,,,,,,,,,,15,,,50,64
34859,note_on,,59,0,8,,,,,,,,,,,,,,,10,,,66,0
34859,note_on,,59,0,5,,,,,,,,,,,,,,,0,,,66,0
34860,note_on,,1,0,8,,,,,,,,,,,,,,,10,,,74,64
34860,note_on,,1,0,5,,,,,,,,,,,,,,,0,,,74,64
34919,note_on,,59,0,8,,,,,,,,,,,,,,,10,,,74,0
34919,note_on,,119,0,9,,,,,,,,,,,,,,,11,,,57,0
34919,note_on,,119,0,10,,,,,,,,,,,,,,,12,,,62,0
34919,note_on,,119,0,12,,,,,,,,,,,,,,,15,,,50,0
34919,note_on,,59,0,5,,,,,,,,,,,,,,,0,,,74,0
34919,note_on,,119,0,7,,,,,,,,,,,,,,,2,,,50,0
34919,note_on,,119,0,6,,,,,,,,,,,,,,,1,,,69,0
34919,note_on,,119,0,11,,,,,,,,,,,,,,,13,,,50,0
34920,note_on,,1,0,11,,,,,,,,,,,,,,,13,,,54,64
34920,note_on,,1,0,10,,,,,,,,,,,,,,,12,,,62,64
34920,note_on,,1,0,7,,,,,,,,,,,,,,,2,,,54,64
34920,note_on,,1,0,9,,,,,,,,,,,,,,,11,,,69,64
34920,note_on,,1,0,6,,,,,,,,,,,,,,,1,,,69,64
34920,note_on,,1,0,12,,,,,,,,,,,,,,,15,,,54,64
34920,note_on,,1,0,8,,,,,,,,,,,,,,,10,,,72,64
34920,note_on,,1,0,5,,,,,,,,,,,,,,,0,,,72,64
34979,note_on,,59,0,5,,,,,,,,,,,,,,,0,,,72,0
34979,note_on,,59,0,8,,,,,,,,,,,,,,,10,,,72,0
34980,note_on,,1,0,5,,,,,,,,,,,,,,,0,,,74,64
34980,note_on,,1,0,8,,,,,,,,,,,,,,,10,,,74,64
35039,note_on,,59,0,8,,,,,,,,,,,,,,,10,,,74,0
35039,note_on,,119,0,9,,,,,,,,,,,,,,,11,,,69,0
35039,note_on,,119,0,7,,,,,,,,,,,,,,,2,,,54,0
35039,note_on,,119,0,12,,,,,,,,,,,,,,,15,,,74,0
35039,note_on,,0,0,12,,,,,,,,,,,,,,,15,,,72,0
35039,note_on,,0,0,12,,,,,,,,,,,,,,,15,,,69,0
35039,note_on,,119,0,6,,,,,,,,,,,,,,,1,,,69,0
35039,note_on,,0,0,12,,,,,,,,,,,,,,,15,,,54,0
35039,note_on,,0,0,12,,,,,,,,,,,,,,,15,,,62,0
35039,note_on,,119,0,11,,,,,,,,,,,,,,,13,,,54,0
35039,note_on,,119,0,10,,,,,,,,,,,,,,,12,,,62,0
35039,note_on,,59,0,5,,,,,,,,,,,,,,,0,,,74,0
35040,note_on,,1,0,11,,,,,,,,,,,,,,,13,,,55,64
35040,note_on,,0,0,12,,,,,,,,,,,,,,,15,,,71,64
35040,note_on,,0,0,12,,,,,,,,,,,,,,,15,,,67,64
35040,note_on,,0,0,12,,,,,,,,,,,,,,,15,,,62,64
35040,note_on,,1,0,7,,,,,,,,,,,,,,,2,,,55,64
35040,note_on,,1,0,10,,,,,,,,,,,,,,,12,,,62,64
35040,note_on,,1,0,12,,,,,,,,,,,,,,,15,,,55,64
35040,note_on,,1,0,5,,,,,,,,,,,,,,,0,,,71,64
35040,note_on,,1,0,6,,,,,,,,,,,,,,,1,,,67,64
35040,note_on,,1,0,8,,,,,,,,,,,,,,,10,,,71,64
35040,note_on,,1,0,9,,,,,,,,,,,,,,,11,,,67,64
35099,note_on,,59,0,5,,,,,,,,,,,,,,,0,,,71,0
35099,note_on,,59,0,8,,,,,,,,,,,,,,,10,,,71,0
35100,note_on,,1,0,5,,,,,,,,,,,,,,,0,,,74,64
35100,note_on,,1,0,8,,,,,,,,,,,,,,,10,,,74,64
35159,note_on,,119,0,6,,,,,,,,,,,,,,,1,,,67,0
35159,note_on,,119,0,10,,,,,,,,,,,,,,,12,,,62,0
35159,note_on,,119,0,7,,,,,,,,,,,,,,,2,,,55,0
35159,note_on,,59,0,5,,,,,,,,,,,,,,,0,,,74,0
35159,note_on,,119,0,9,,,,,,,,,,,,,,,11,,,67,0
35159,note_on,,119,0,11,,,,,,,,,,,,,,,13,,,55,0
35159,note_on,,119,0,12,,,,,,,,,,,,,,,15,,,55,0
35159,note_on,,59,0,8,,,,,,,,,,,,,,,10,,,74,0
35160,note_on,,1,0,10,,,,,,,,,,,,,,,12,,,67,64
35160,note_on,,1,0,6,,,,,,,,,,,,,,,1,,,62,64
35160,note_on,,1,0,7,,,,,,,,,,,,,,,2,,,43,64
35160,note_on,,1,0,8,,,,,,,,,,,,,,,10,,,72,64
35160,note_on,,1,0,5,,,,,,,,,,,,,,,0,,,72,64
35160,note_on,,1,0,9,,,,,,,,,,,,,,,11,,,62,64
35160,note_on,,1,0,11,,,,,,,,,,,,,,,13,,,43,64
35160,note_on,,1,0,12,,,,,,,,,,,,,,,15,,,43,64
35219,note_on,,59,0,5,,,,,,,,,,,,,,,0,,,72,0
35219,note_on,,59,0,8,,,,,,,,,,,,,,,10,,,72,0
35220,note_on,,1,0,8,,,,,,,,,,,,,,,10,,,74,64
35220,note_on,,1,0,5,,,,,,,,,,,,,,,0,,,74,64
35279,note_on,,119,0,9,,,,,,,,,,,,,,,11,,,62,0
35279,note_on,,119,0,10,,,,,,,,,,,,,,,12,,,67,0
35279,note_on,,119,0,7,,,,,,,,,,,,,,,2,,,43,0
35279,note_on,,119,0,11,,,,,,,,,,,,,,,13,,,43,0
35279,note_on,,119,0,6,,,,,,,,,,,,,,,1,,,62,0
35279,note_on,,59,0,8,,,,,,,,,,,,,,,10,,,74,0
35279,note_on,,59,0,5,,,,,,,,,,,,,,,0,,,74,0
35279,note_on,,119,0,12,,,,,,,,,,,,,,,15,,,43,0
35280,note_on,,1,0,12,,,,,,,,,,,,,,,15,,,55,64
35280,note_on,,1,0,7,,,,,,,,,,,,,,,2,,,55,64
35280,note_on,,1,0,10,,,,,,,,,,,,,,,12,,,67,64
35280,note_on,,1,0,6,,,,,,,,,,,,,,,1,,,62,64
35280,note_on,,1,0,11,,,,,,,,,,,,,,,13,,,55,64
35280,note_on,,1,0,5,,,,,,,,,,,,,,,0,,,71,64
35280,note_on,,1,0,9,,,,,,,,,,,,,,,11,,,62,64
35280,note_on,,1,0,8,,,,,,,,,,,,,,,10,,,71,64
35339,note_on,,59,0,5,,,,,,,,,,,,,,,0,,,71,0
35339,note_on,,59,0,8,,,,,,,,,,,,,,,10,,,71,0
35340,note_on,,1,0,5,,,,,,,,,,,,,,,0,,,74,64
35340,note_on,,1,0,8,,,,,,,,,,,,,,,10,,,74,64
35399,note_on,,59,0,5,,,,,,,,,,,,,,,0,,,74,0
35399,note_on,,0,0,12,,,,,,,,,,,,,,,15,,,67,0
35399,note_on,,0,0,12,,,,,,,,,,,,,,,15,,,62,0
35399,note_on,,59,0,8,,,,,,,,,,,,,,,10,,,74,0
35399,note_on,,119,0,11,,,,,,,,,,,,,,,13,,,55,0
35399,note_on,,0,0,12,,,,,,,,,,,,,,,15,,,55,0
35399,note_on,,119,0,12,,,,,,,,,,,,,,,15,,,71,0
35399,note_on,,119,0,9,,,,,,,,,,,,,,,11,,,62,0
35399,note_on,,119,0,7,,,,,,,,,,,,,,,2,,,55,0
35399,note_on,,119,0,10,,,,,,,,,,,,,,,12,,,67,0
35399,note_on,,119,0,6,,,,,,,,,,,,,,,1,,,62,0
35400,note_on,,1,0,7,,,,,,,,,,,,,,,2,,,54,64
35400,note_on,,1,0,10,,,,,,,,,,,,,,,12,,,62,64
35400,note_on,,1,0,8,,,,,,,,,,,,,,,10,,,72,64
35400,note_on,,1,0,6,,,,,,,,,,,,,,,1,,,66,64
35400,note_on,,1,0,11,,,,,,,,,,,,,,,13,,,54,64
35400,note_on,,1,0,5,,,,,,,,,,,,,,,0,,,72,64
35400,note_on,,0,0,12,,,,,,,,,,,,,,,15,,,69,64
35400,note_on,,0,0,12,,,,,,,,,,,,,,,15,,,62,64
35400,note_on,,1,0,12,,,,,,,,,,,,,,,15,,,54,64
35400,note_on,,1,0,9,,,,,,,,,,,,,,,11,,,66,64
35459,note_on,,59,0,5,,,,,,,,,,,,,,,0,,,72,0
35459,note_on,,59,0,8,,,,,,,,,,,,,,,10,,,72,0
35460,note_on,,1,0,8,,,,,,,,,,,,,,,10,,,74,64
35460,note_on,,1,0,5,,,,,,,,,,,,,,,0,,,74,64
35519,note_on,,119,0,11,,,,,,,,,,,,,,,13,,,54,0
35519,note_on,,119,0,10,,,,,,,,,,,,,,,12,,,62,0
35519,note_on,,59,0,8,,,,,,,,,,,,,,,10,,,74,0
35519,note_on,,119,0,7,,,,,,,,,,,,,,,2,,,54,0
35519,note_on,,119,0,6,,,,,,,,,,,,,,,1,,,66,0
35519,note_on,,0,0,12,,,,,,,,,,,,,,,15,,,69,0
35519,note_on,,119,0,9,,,,,,,,,,,,,,,11,,,66,0
35519,note_on,,59,0,5,,,,,,,,,,,,,,,0,,,74,0
35519,note_on,,0,0,12,,,,,,,,,,,,,,,15,,,62,0
35519,note_on,,119,0,12,,,,,,,,,,,,,,,15,,,54,0
35520,note_on,,1,0,11,,,,,,,,,,,,,,,13,,,52,64
35520,note_on,,1,0,6,,,,,,,,,,,,,,,1,,,67,64
35520,note_on,,1,0,7,,,,,,,,,,,,,,,2,,,52,64
35520,note_on,,1,0,8,,,,,,,,,,,,,,,10,,,67,64
35520,note_on,,0,0,12,,,,,,,,,,,,,,,15,,,64,64
35520,note_on,,1,0,10,,,,,,,,,,,,,,,12,,,59,64
35520,note_on,,0,0,12,,,,,,,,,,,,,,,15,,,67,64
35520,note_on,,1,0,12,,,,,,,,,,,,,,,15,,,52,64
35520,note_on,,1,0,9,,,,,,,,,,,,,,,11,,,67,64
35520,note_on,,1,0,5,,,,,,,,,,,,,,,0,,,67,64
35579,note_on,,59,0,8,,,,,,,,,,,,,,,10,,,67,0
35579,note_on,,59,0,5,,,,,,,,,,,,,,,0,,,67,0
35580,note_on,,1,0,5,,,,,,,,,,,,,,,0,,,72,64
35580,note_on,,1,0,8,,,,,,,,,,,,,,,10,,,72,64
35639,note_on,,59,0,5,,,,,,,,,,,,,,,0,,,72,0
35639,note_on,,59,0,8,,,,,,,,,,,,,,,10,,,72,0
35639,note_on,,119,0,10,,,,,,,,,,,,,,,12,,,59,0
35640,note_on,,1,0,5,,,,,,,,,,,,,,,0,,,71,64
35640,note_on,,1,0,8,,,,,,,,,,,,,,,10,,,71,64
35640,note_on,,1,0,10,,,,,,,,,,,,,,,12,,,64,64
35699,note_on,,59,0,5,,,,,,,,,,,,,,,0,,,71,0
35699,note_on,,59,0,8,,,,,,,,,,,,,,,10,,,71,0
35700,note_on,,1,0,8,,,,,,,,,,,,,,,10,,,72,64
35700,note_on,,1,0,5,,,,,,,,,,,,,,,0,,,72,64
35759,note_on,,59,0,5,,,,,,,,,,,,,,,0,,,72,0
35759,note_on,,239,0,6,,,,,,,,,,,,,,,1,,,67,0
35759,note_on,,119,0,10,,,,,,,,,,,,,,,12,,,64,0
35759,note_on,,239,0,9,,,,,,,,,,,,,,,11,,,67,0
35759,note_on,,239,0,12,,,,,,,,,,,,,,,15,,,52,0
35759,note_on,,0,0,12,,,,,,,,,,,,,,,15,,,67,0
35759,note_on,,0,0,12,,,,,,,,,,,,,,,15,,,64,0
35759,note_on,,239,0,7,,,,,,,,,,,,,,,2,,,52,0
35759,note_on,,59,0,8,,,,,,,,,,,,,,,10,,,72,0
35759,note_on,,239,0,11,,,,,,,,,,,,,,,13,,,52,0
35760,note_on,,1,0,6,,,,,,,,,,,,,,,1,,,60,64
35760,note_on,,1,0,12,,,,,,,,,,,,,,,15,,,40,64
35760,note_on,,0,0,12,,,,,,,,,,,,,,,15,,,72,64
35760,note_on,,0,0,12,,,,,,,,,,,,,,,15,,,67,64
35760,note_on,,0,0,12,,,,,,,,,,,,,,,15,,,60,64
35760,note_on,,1,0,10,,,,,,,,,,,,,,,12,,,64,64
35760,note_on,,1,0,9,,,,,,,,,,,,,,,11,,,60,64
35760,note_on,,1,0,7,,,,,,,,,,,,,,,2,,,40,64
35760,note_on,,1,0,5,,,,,,,,,,,,,,,0,,,67,64
35760,note_on,,1,0,11,,,,,,,,,,,,,,,13,,,40,64
35760,note_on,,1,0,8,,,,,,,,,,,,,,,10,,,67,64
35819,note_on,,59,0,8,,,,,,,,,,,,,,,10,,,67,0
35819,note_on,,59,0,5,,,,,,,,,,,,,,,0,,,67,0
35820,note_on,,1,0,8,,,,,,,,,,,,,,,10,,,72,64
35820,note_on,,1,0,5,,,,,,,,,,,,,,,0,,,72,64
35879,note_on,,59,0,8,,,,,,,,,,,,,,,10,,,72,0
35879,note_on,,59,0,5,,,,,,,,,,,,,,,0,,,72,0
35880,note_on,,1,0,8,,,,,,,,,,,,,,,10,,,71,64
35880,note_on,,1,0,5,,,,,,,,,,,,,,,0,,,71,64
35939,note_on,,59,0,5,,,,,,,,,,,,,,,0,,,71,0
35939,note_on,,59,0,8,,,,,,,,,,,,,,,10,,,71,0
35940,note_on,,1,0,8,,,,,,,,,,,,,,,10,,,72,64
35940,note_on,,1,0,5,,,,,,,,,,,,,,,0,,,72,64
35999,note_on,,239,0,6,,,,,,,,,,,,,,,1,,,60,0
35999,note_on,,59,0,8,,,,,,,,,,,,,,,10,,,72,0
35999,note_on,,59,0,5,,,,,,,,,,,,,,,0,,,72,0
35999,note_on,,239,0,12,,,,,,,,,,,,,,,15,,,40,0
35999,note_on,,0,0,12,,,,,,,,,,,,,,,15,,,72,0
35999,note_on,,0,0,12,,,,,,,,,,,,,,,15,,,67,0
35999,note_on,,0,0,12,,,,,,,,,,,,,,,15,,,60,0
35999,note_on,,239,0,9,,,,,,,,,,,,,,,11,,,60,0
35999,note_on,,239,0,11,,,,,,,,,,,,,,,13,,,40,0
35999,note_on,,239,0,7,,,,,,,,,,,,,,,2,,,40,0
35999,note_on,,239,0,10,,,,,,,,,,,,,,,12,,,64,0
36000,note_on,,1,0,8,,,,,,,,,,,,,,,10,,,69,64
36000,note_on,,1,0,11,,,,,,,,,,,,,,,13,,,42,64
36000,note_on,,1,0,5,,,,,,,,,,,,,,,0,,,69,64
36000,note_on,,1,0,7,,,,,,,,,,,,,,,2,,,42,64
36000,note_on,,1,0,12,,,,,,,,,,,,,,,15,,,42,64
36000,note_on,,0,0,12,,,,,,,,,,,,,,,15,,,69,64
36000,note_on,,0,0,12,,,,,,,,,,,,,,,15,,,60,64
36000,note_on,,0,0,12,,,,,,,,,,,,,,,15,,,62,64
36059,note_on,,59,0,8,,,,,,,,,,,,,,,10,,,69,0
36059,note_on,,59,0,5,,,,,,,,,,,,,,,0,,,69,0
36060,note_on,,1,0,8,,,,,,,,,,,,,,,10,,,72,64
36060,note_on,,1,0,5,,,,,,,,,,,,,,,0,,,72,64
36119,note_on,,59,0,8,,,,,,,,,,,,,,,10,,,72,0
36119,note_on,,59,0,5,,,,,,,,,,,,,,,0,,,72,0
36120,note_on,,1,0,8,,,,,,,,,,,,,,,10,,,71,64
36120,note_on,,1,0,5,,,,,,,,,,,,,,,0,,,71,64
36120,note_on,,121,0,6,,,,,,,,,,,,,,,1,,,69,64
36120,note_on,,121,0,9,,,,,,,,,,,,,,,11,,,69,64
36120,note_on,,121,0,10,,,,,,,,,,,,,,,12,,,62,64
36179,note_on,,59,0,8,,,,,,,,,,,,,,,10,,,71,0
36179,note_on,,59,0,5,,,,,,,,,,,,,,,0,,,71,0
36180,note_on,,1,0,8,,,,,,,,,,,,,,,10,,,72,64
36180,note_on,,1,0,5,,,,,,,,,,,,,,,0,,,72,64
36239,note_on,,119,0,9,,,,,,,,,,,,,,,11,,,69,0
36239,note_on,,239,0,7,,,,,,,,,,,,,,,2,,,42,0
36239,note_on,,59,0,8,,,,,,,,,,,,,,,10,,,72,0
36239,note_on,,239,0,11,,,,,,,,,,,,,,,13,,,42,0
36239,note_on,,119,0,10,,,,,,,,,,,,,,,12,,,62,0
36239,note_on,,59,0,5,,,,,,,,,,,,,,,0,,,72,0
36239,note_on,,239,0,12,,,,,,,,,,,,,,,15,,,42,0
36239,note_on,,119,0,6,,,,,,,,,,,,,,,1,,,69,0
36240,note_on,,1,0,12,,,,,,,,,,,,,,,15,,,54,64
36240,note_on,,1,0,8,,,,,,,,,,,,,,,10,,,69,64
36240,note_on,,1,0,10,,,,,,,,,,,,,,,12,,,62,64
36240,note_on,,1,0,5,,,,,,,,,,,,,,,0,,,69,64
36240,note_on,,1,0,6,,,,,,,,,,,,,,,1,,,69,64
36240,note_on,,1,0,11,,,,,,,,,,,,,,,13,,,54,64
36240,note_on,,1,0,7,,,,,,,,,,,,,,,2,,,54,64
36240,note_on,,1,0,9,,,,,,,,,,,,,,,11,,,69,64
36299,note_on,,59,0,5,,,,,,,,,,,,,,,0,,,69,0
36299,note_on,,59,0,8,,,,,,,,,,,,,,,10,,,69,0
36300,note_on,,1,0,8,,,,,,,,,,,,,,,10,,,72,64
36300,note_on,,1,0,5,,,,,,,,,,,,,,,0,,,72,64
36359,note_on,,119,0,6,,,,,,,,,,,,,,,1,,,69,0
36359,note_on,,59,0,8,,,,,,,,,,,,,,,10,,,72,0
36359,note_on,,119,0,9,,,,,,,,,,,,,,,11,,,69,0
36359,note_on,,119,0,10,,,,,,,,,,,,,,,12,,,62,0
36359,note_on,,59,0,5,,,,,,,,,,,,,,,0,,,72,0
36360,note_on,,1,0,6,,,,,,,,,,,,,,,1,,,66,64
36360,note_on,,1,0,10,,,,,,,,,,,,,,,12,,,66,64
36360,note_on,,1,0,9,,,,,,,,,,,,,,,11,,,66,64
36360,note_on,,1,0,8,,,,,,,,,,,,,,,10,,,71,64
36360,note_on,,1,0,5,,,,,,,,,,,,,,,0,,,71,64
36419,note_on,,59,0,8,,,,,,,,,,,,,,,10,,,71,0
36419,note_on,,59,0,5,,,,,,,,,,,,,,,0,,,71,0
36420,note_on,,1,0,8,,,,,,,,,,,,,,,10,,,72,64
36420,note_on,,1,0,5,,,,,,,,,,,,,,,0,,,72,64
36479,note_on,,239,0,12,,,,,,,,,,,,,,,15,,,69,0
36479,note_on,,119,0,10,,,,,,,,,,,,,,,12,,,66,0
36479,note_on,,59,0,5,,,,,,,,,,,,,,,0,,,72,0
36479,note_on,,0,0,12,,,,,,,,,,,,,,,15,,,54,0
36479,note_on,,0,0,12,,,,,,,,,,,,,,,15,,,60,0
36479,note_on,,119,0,6,,,,,,,,,,,,,,,1,,,66,0
36479,note_on,,239,0,11,,,,,,,,,,,,,,,13,,,54,0
36479,note_on,,119,0,9,,,,,,,,,,,,,,,11,,,66,0
36479,note_on,,239,0,7,,,,,,,,,,,,,,,2,,,54,0
36479,note_on,,0,0,12,,,,,,,,,,,,,,,15,,,62,0
36479,note_on,,59,0,8,,,,,,,,,,,,,,,10,,,72,0
36480,note_on,,1,0,12,,,,,,,,,,,,,,,15,,,51,64
36480,note_on,,0,0,12,,,,,,,,,,,,,,,15,,,69,64
36480,note_on,,1,0,7,,,,,,,,,,,,,,,2,,,51,64
36480,note_on,,1,0,6,,,,,,,,,,,,,,,1,,,71,64
36480,note_on,,1,0,8,,,,,,,,,,,,,,,10,,,66,64
36480,note_on,,0,0,12,,,,,,,,,,,,,,,15,,,59,64
36480,note_on,,1,0,9,,,,,,,,,,,,,,,11,,,59,64
36480,note_on,,1,0,11,,,,,,,,,,,,,,,13,,,51,64
36480,note_on,,0,0,12,,,,,,,,,,,,,,,15,,,66,64
36480,note_on,,1,0,5,,,,,,,,,,,,,,,0,,,66,64
36480,note_on,,1,0,10,,,,,,,,,,,,,,,12,,,66,64
36539,note_on,,59,0,5,,,,,,,,,,,,,,,0,,,66,0
36539,note_on,,59,0,8,,,,,,,,,,,,,,,10,,,66,0
36540,note_on,,1,0,8,,,,,,,,,,,,,,,10,,,71,64
36540,note_on,,1,0,5,,,,,,,,,,,,,,,0,,,71,64
36599,note_on,,59,0,8,,,,,,,,,,,,,,,10,,,71,0
36599,note_on,,59,0,5,,,,,,,,,,,,,,,0,,,71,0
36600,note_on,,1,0,5,,,,,,,,,,,,,,,0,,,69,64
36600,note_on,,1,0,8,,,,,,,,,,,,,,,10,,,69,64
36659,note_on,,59,0,5,,,,,,,,,,,,,,,0,,,69,0
36659,note_on,,59,0,8,,,,,,,,,,,,,,,10,,,69,0
36660,note_on,,1,0,8,,,,,,,,,,,,,,,10,,,71,64
36660,note_on,,1,0,5,,,,,,,,,,,,,,,0,,,71,64
36719,note_on,,239,0,6,,,,,,,,,,,,,,,1,,,71,0
36719,note_on,,59,0,5,,,,,,,,,,,,,,,0,,,71,0
36719,note_on,,59,0,8,,,,,,,,,,,,,,,10,,,71,0
36719,note_on,,239,0,7,,,,,,,,,,,,,,,2,,,51,0
36719,note_on,,0,0,12,,,,,,,,,,,,,,,15,,,66,0
36719,note_on,,0,0,12,,,,,,,,,,,,,,,15,,,59,0
36719,note_on,,239,0,12,,,,,,,,,,,,,,,15,,,51,0
36719,note_on,,0,0,12,,,,,,,,,,,,,,,15,,,69,0
36719,note_on,,239,0,9,,,,,,,,,,,,,,,11,,,59,0
36719,note_on,,239,0,11,,,,,,,,,,,,,,,13,,,51,0
36720,note_on,,1,0,7,,,,,,,,,,,,,,,2,,,47,64
36720,note_on,,1,0,9,,,,,,,,,,,,,,,11,,,66,64
36720,note_on,,1,0,8,,,,,,,,,,,,,,,10,,,63,64
36720,note_on,,1,0,11,,,,,,,,,,,,,,,13,,,47,64
36720,note_on,,1,0,5,,,,,,,,,,,,,,,0,,,63,64
36720,note_on,,0,0,12,,,,,,,,,,,,,,,15,,,66,64
36720,note_on,,0,0,12,,,,,,,,,,,,,,,15,,,71,64
36720,note_on,,0,0,12,,,,,,,,,,,,,,,15,,,63,64
36720,note_on,,1,0,6,,,,,,,,,,,,,,,1,,,66,64
36720,note_on,,1,0,12,,,,,,,,,,,,,,,15,,,47,64
36779,note_on,,59,0,5,,,,,,,,,,,,,,,0,,,63,0
36779,note_on,,59,0,8,,,,,,,,,,,,,,,10,,,63,0
36780,note_on,,1,0,5,,,,,,,,,,,,,,,0,,,71,64
36780,note_on,,1,0,8,,,,,,,,,,,,,,,10,,,71,64
36839,note_on,,59,0,8,,,,,,,,,,,,,,,10,,,71,0
36839,note_on,,59,0,5,,,,,,,,,,,,,,,0,,,71,0
36839,note_on,,359,0,10,,,,,,,,,,,,,,,12,,,66,0
36840,note_on,,1,0,8,,,,,,,,,,,,,,,10,,,69,64
36840,note_on,,1,0,10,,,,,,,,,,,,,,,12,,,63,64
36840,note_on,,1,0,5,,,,,,,,,,,,,,,0,,,69,64
36899,note_on,,59,0,5,,,,,,,,,,,,,,,0,,,69,0
36899,note_on,,59,0,8,,,,,,,,,,,,,,,10,,,69,0
36900,note_on,,1,0,8,,,,,,,,,,,,,,,10,,,71,64
36900,note_on,,1,0,5,,,,,,,,,,,,,,,0,,,71,64
36959,note_on,,0,0,12,,,,,,,,,,,,,,,15,,,66,0
36959,note_on,,0,0,12,,,,,,,,,,,,,,,15,,,71,0
36959,note_on,,0,0,12,,,,,,,,,,,,,,,15,,,63,0
36959,note_on,,59,0,5,,,,,,,,,,,,,,,0,,,71,0
36959,note_on,,239,0,7,,,,,,,,,,,,,,,2,,,47,0
36959,note_on,,119,0,10,,,,,,,,,,,,,,,12,,,63,0
36959,note_on,,239,0,12,,,,,,,,,,,,,,,15,,,47,0
36959,note_on,,239,0,6,,,,,,,,,,,,,,,1,,,66,0
36959,note_on,,239,0,11,,,,,,,,,,,,,,,13,,,47,0
36959,note_on,,239,0,9,,,,,,,,,,,,,,,11,,,66,0
36959,note_on,,59,0,8,,,,,,,,,,,,,,,10,,,71,0
36960,note_on,,1,0,9,,,,,,,,,,,,,,,11,,,64,64
36960,note_on,,1,0,5,,,,,,,,,,,,,,,0,,,67,64
36960,note_on,,0,0,12,,,,,,,,,,,,,,,15,,,67,64
36960,note_on,,1,0,12,,,,,,,,,,,,,,,15,,,52,64
36960,note_on,,1,0,11,,,,,,,,,,,,,,,13,,,52,64
36960,note_on,,0,0,12,,,,,,,,,,,,,,,15,,,64,64
36960,note_on,,1,0,7,,,,,,,,,,,,,,,2,,,52,64
36960,note_on,,1,0,10,,,,,,,,,,,,,,,12,,,59,64
36960,note_on,,1,0,6,,,,,,,,,,,,,,,1,,,64,64
36960,note_on,,1,0,8,,,,,,,,,,,,,,,10,,,67,64
36960,note_on,,0,0,12,,,,,,,,,,,,,,,15,,,59,64
37019,note_on,,59,0,5,,,,,,,,,,,,,,,0,,,67,0
37019,note_on,,59,0,8,,,,,,,,,,,,,,,10,,,67,0
37020,note_on,,1,0,8,,,,,,,,,,,,,,,10,,,71,64
37020,note_on,,1,0,5,,,,,,,,,,,,,,,0,,,71,64
37079,note_on,,119,0,10,,,,,,,,,,,,,,,12,,,59,0
37079,note_on,,119,0,9,,,,,,,,,,,,,,,11,,,64,0
37079,note_on,,59,0,5,,,,,,,,,,,,,,,0,,,71,0
37079,note_on,,59,0,8,,,,,,,,,,,,,,,10,,,71,0
37079,note_on,,119,0,11,,,,,,,,,,,,,,,13,,,52,0
37079,note_on,,119,0,6,,,,,,,,,,,,,,,1,,,64,0
37079,note_on,,119,0,7,,,,,,,,,,,,,,,2,,,52,0
37079,note_on,,119,0,12,,,,,,,,,,,,,,,15,,,52,0
37079,note_on,,0,0,12,,,,,,,,,,,,,,,15,,,67,0
37079,note_on,,0,0,12,,,,,,,,,,,,,,,15,,,64,0
37079,note_on,,0,0,12,,,,,,,,,,,,,,,15,,,59,0
37080,note_on,,0,0,12,,,,,,,,,,,,,,,15,,,63,64
37080,note_on,,1,0,6,,,,,,,,,,,,,,,1,,,63,64
37080,note_on,,1,0,10,,,,,,,,,,,,,,,12,,,66,64
37080,note_on,,1,0,7,,,,,,,,,,,,,,,2,,,54,64
37080,note_on,,0,0,12,,,,,,,,,,,,,,,15,,,66,64
37080,note_on,,1,0,9,,,,,,,,,,,,,,,11,,,63,64
37080,note_on,,1,0,12,,,,,,,,,,,,,,,15,,,54,64
37080,note_on,,1,0,11,,,,,,,,,,,,,,,13,,,54,64
37080,note_on,,0,0,12,,,,,,,,,,,,,,,15,,,57,64
37080,note_on,,1,0,8,,,,,,,,,,,,,,,10,,,69,64
37080,note_on,,1,0,5,,,,,,,,,,,,,,,0,,,69,64
37139,note_on,,59,0,5,,,,,,,,,,,,,,,0,,,69,0
37139,note_on,,59,0,8,,,,,,,,,,,,,,,10,,,69,0
37140,note_on,,1,0,5,,,,,,,,,,,,,,,0,,,71,64
37140,note_on,,1,0,8,,,,,,,,,,,,,,,10,,,71,64
37199,note_on,,0,0,12,,,,,,,,,,,,,,,15,,,57,0
37199,note_on,,0,0,12,,,,,,,,,,,,,,,15,,,63,0
37199,note_on,,119,0,12,,,,,,,,,,,,,,,15,,,54,0
37199,note_on,,0,0,12,,,,,,,,,,,,,,,15,,,66,0
37199,note_on,,119,0,6,,,,,,,,,,,,,,,1,,,63,0
37199,note_on,,119,0,10,,,,,,,,,,,,,,,12,,,66,0
37199,note_on,,119,0,7,,,,,,,,,,,,,,,2,,,54,0
37199,note_on,,119,0,11,,,,,,,,,,,,,,,13,,,54,0
37199,note_on,,59,0,5,,,,,,,,,,,,,,,0,,,71,0
37199,note_on,,59,0,8,,,,,,,,,,,,,,,10,,,71,0
37199,note_on,,119,0,9,,,,,,,,,,,,,,,11,,,63,0
37200,note_on,,1,0,9,,,,,,,,,,,,,,,11,,,64,64
37200,note_on,,0,0,12,,,,,,,,,,,,,,,15,,,59,64
37200,note_on,,1,0,7,,,,,,,,,,,,,,,2,,,55,64
37200,note_on,,0,0,12,,,,,,,,,,,,,,,15,,,64,64
37200,note_on,,1,0,12,,,,,,,,,,,,,,,15,,,55,64
37200,note_on,,1,0,10,,,,,,,,,,,,,,,12,,,59,64
37200,note_on,,1,0,5,,,,,,,,,,,,,,,0,,,64,64
37200,note_on,,1,0,11,,,,,,,,,,,,,,,13,,,55,64
37200,note_on,,1,0,8,,,,,,,,,,,,,,,10,,,64,64
37200,note_on,,1,0,6,,,,,,,,,,,,,,,1,,,64,64
37259,note_on,,59,0,8,,,,,,,,,,,,,,,10,,,64,0
37259,note_on,,59,0,5,,,,,,,,,,,,,,,0,,,64,0
37260,note_on,,1,0,8,,,,,,,,,,,,,,,10,,,76,64
37260,note_on,,1,0,5,,,,,,,,,,,,,,,0,,,76,64
37319,note_on,,119,0,11,,,,,,,,,,,,,,,13,,,55,0
37319,note_on,,59,0,8,,,,,,,,,,,,,,,10,,,76,0
37319,note_on,,119,0,10,,,,,,,,,,,,,,,12,,,59,0
37319,note_on,,119,0,9,,,,,,,,,,,,,,,11,,,64,0
37319,note_on,,119,0,6,,,,,,,,,,,,,,,1,,,64,0
37319,note_on,,119,0,7,,,,,,,,,,,,,,,2,,,55,0
37319,note_on,,119,0,12,,,,,,,,,,,,,,,15,,,55,0
37319,note_on,,0,0,12,,,,,,,,,,,,,,,15,,,64,0
37319,note_on,,0,0,12,,,,,,,,,,,,,,,15,,,59,0
37319,note_on,,59,0,5,,,,,,,,,,,,,,,0,,,76,0
37320,note_on,,1,0,8,,,,,,,,,,,,,,,10,,,74,64
37320,note_on,,0,0,12,,,,,,,,,,,,,,,15,,,59,64
37320,note_on,,1,0,12,,,,,,,,,,,,,,,15,,,56,64
37320,note_on,,0,0,12,,,,,,,,,,,,,,,15,,,76,64
37320,note_on,,1,0,6,,,,,,,,,,,,,,,1,,,71,64
37320,note_on,,0,0,12,,,,,,,,,,,,,,,15,,,64,64
37320,note_on,,1,0,11,,,,,,,,,,,,,,,13,,,56,64
37320,note_on,,1,0,9,,,,,,,,,,,,,,,11,,,71,64
37320,note_on,,1,0,7,,,,,,,,,,,,,,,2,,,56,64
37320,note_on,,1,0,10,,,,,,,,,,,,,,,12,,,64,64
37320,note_on,,1,0,5,,,,,,,,,,,,,,,0,,,74,64
37320,note_on,,0,0,12,,,,,,,,,,,,,,,15,,,71,64
37379,note_on,,59,0,8,,,,,,,,,,,,,,,10,,,74,0
37379,note_on,,59,0,5,,,,,,,,,,,,,,,0,,,74,0
37380,note_on,,1,0,8,,,,,,,,,,,,,,,10,,,76,64
37380,note_on,,1,0,5,,,,,,,,,,,,,,,0,,,76,64
37439,note_on,,119,0,7,,,,,,,,,,,,,,,2,,,56,0
37439,note_on,,0,0,12,,,,,,,,,,,,,,,15,,,76,0
37439,note_on,,0,0,12,,,,,,,,,,,,,,,15,,,59,0
37439,note_on,,119,0,12,,,,,,,,,,,,,,,15,,,56,0
37439,note_on,,59,0,8,,,,,,,,,,,,,,,10,,,76,0
37439,note_on,,119,0,6,,,,,,,,,,,,,,,1,,,71,0
37439,note_on,,0,0,12,,,,,,,,,,,,,,,15,,,64,0
37439,note_on,,119,0,11,,,,,,,,,,,,,,,13,,,56,0
37439,note_on,,59,0,5,,,,,,,,,,,,,,,0,,,76,0
37439,note_on,,119,0,10,,,,,,,,,,,,,,,12,,,64,0
37439,note_on,,119,0,9,,,,,,,,,,,,,,,11,,,71,0
37439,note_on,,0,0,12,,,,,,,,,,,,,,,15,,,71,0
37440,note_on,,1,0,5,,,,,,,,,,,,,,,0,,,73,64
37440,note_on,,1,0,11,,,,,,,,,,,,,,,13,,,57,64
37440,note_on,,1,0,12,,,,,,,,,,,,,,,15,,,57,64
37440,note_on,,0,0,12,,,,,,,,,,,,,,,15,,,73,64
37440,note_on,,0,0,12,,,,,,,,,,,,,,,15,,,69,64
37440,note_on,,1,0,9,,,,,,,,,,,,,,,11,,,64,64
37440,note_on,,1,0,7,,,,,,,,,,,,,,,2,,,57,64
37440,note_on,,1,0,8,,,,,,,,,,,,,,,10,,,73,64
37440,note_on,,1,0,10,,,,,,,,,,,,,,,12,,,64,64
37440,note_on,,1,0,6,,,,,,,,,,,,,,,1,,,64,64
37440,note_on,,0,0,12,,,,,,,,,,,,,,,15,,,61,64
37499,note_on,,59,0,5,,,,,,,,,,,,,,,0,,,73,0
37499,note_on,,59,0,8,,,,,,,,,,,,,,,10,,,73,0
37500,note_on,,1,0,5,,,,,,,,,,,,,,,0,,,78,64
37500,note_on,,1,0,8,,,,,,,,,,,,,,,10,,,78,64
37559,note_on,,59,0,8,,,,,,,,,,,,,,,10,,,78,0
37559,note_on,,59,0,5,,,,,,,,,,,,,,,0,,,78,0
37559,note_on,,119,0,9,,,,,,,,,,,,,,,11,,,64,0
37559,note_on,,119,0,6,,,,,,,,,,,,,,,1,,,64,0
37559,note_on,,119,0,10,,,,,,,,,,,,,,,12,,,64,0
37560,note_on,,1,0,9,,,,,,,,,,,,,,,11,,,69,64
37560,note_on,,1,0,5,,,,,,,,,,,,,,,0,,,76,64
37560,note_on,,1,0,6,,,,,,,,,,,,,,,1,,,69,64
37560,note_on,,1,0,10,,,,,,,,,,,,,,,12,,,66,64
37560,note_on,,1,0,8,,,,,,,,,,,,,,,10,,,76,64
37619,note_on,,59,0,5,,,,,,,,,,,,,,,0,,,76,0
37619,note_on,,59,0,8,,,,,,,,,,,,,,,10,,,76,0
37620,note_on,,1,0,5,,,,,,,,,,,,,,,0,,,78,64
37620,note_on,,1,0,8,,,,,,,,,,,,,,,10,,,78,64
37679,note_on,,59,0,8,,,,,,,,,,,,,,,10,,,78,0
37679,note_on,,0,0,12,,,,,,,,,,,,,,,15,,,61,0
37679,note_on,,119,0,9,,,,,,,,,,,,,,,11,,,69,0
37679,note_on,,239,0,11,,,,,,,,,,,,,,,13,,,57,0
37679,note_on,,59,0,5,,,,,,,,,,,,,,,0,,,78,0
37679,note_on,,0,0,12,,,,,,,,,,,,,,,15,,,73,0
37679,note_on,,0,0,12,,,,,,,,,,,,,,,15,,,69,0
37679,note_on,,119,0,6,,,,,,,,,,,,,,,1,,,69,0
37679,note_on,,239,0,12,,,,,,,,,,,,,,,15,,,57,0
37679,note_on,,119,0,10,,,,,,,,,,,,,,,12,,,66,0
37679,note_on,,239,0,7,,,,,,,,,,,,,,,2,,,57,0
37680,note_on,,0,0,12,,,,,,,,,,,,,,,15,,,61,64
37680,note_on,,1,0,7,,,,,,,,,,,,,,,2,,,58,64
37680,note_on,,1,0,11,,,,,,,,,,,,,,,13,,,58,64
37680,note_on,,1,0,10,,,,,,,,,,,,,,,12,,,66,64
37680,note_on,,1,0,9,,,,,,,,,,,,,,,11,,,73,64
37680,note_on,,0,0,12,,,,,,,,,,,,,,,15,,,78,64
37680,note_on,,0,0,12,,,,,,,,,,,,,,,15,,,73,64
37680,note_on,,1,0,12,,,,,,,,,,,,,,,15,,,58,64
37680,note_on,,1,0,5,,,,,,,,,,,,,,,0,,,73,64
37680,note_on,,1,0,6,,,,,,,,,,,,,,,1,,,73,64
37680,note_on,,1,0,8,,,,,,,,,,,,,,,10,,,73,64
37680,note_on,,0,0,12,,,,,,,,,,,,,,,15,,,66,64
37739,note_on,,59,0,5,,,,,,,,,,,,,,,0,,,73,0
37739,note_on,,59,0,8,,,,,,,,,,,,,,,10,,,73,0
37740,note_on,,1,0,8,,,,,,,,,,,,,,,10,,,78,64
37740,note_on,,1,0,5,,,,,,,,,,,,,,,0,,,78,64
37799,note_on,,59,0,5,,,,,,,,,,,,,,,0,,,78,0
37799,note_on,,119,0,6,,,,,,,,,,,,,,,1,,,73,0
37799,note_on,,59,0,8,,,,,,,,,,,,,,,10,,,78,0
37799,note_on,,119,0,9,,,,,,,,,,,,,,,11,,,73,0
37799,note_on,,119,0,10,,,,,,,,,,,,,,,12,,,66,0
37800,note_on,,1,0,5,,,,,,,,,,,,,,,0,,,76,64
37800,note_on,,1,0,8,,,,,,,,,,,,,,,10,,,76,64
37800,note_on,,1,0,9,,,,,,,,,,,,,,,11,,,66,64
37800,note_on,,1,0,6,,,,,,,,,,,,,,,1,,,66,64
37800,note_on,,1,0,10,,,,,,,,,,,,,,,12,,,70,64
37859,note_on,,59,0,5,,,,,,,,,,,,,,,0,,,76,0
37859,note_on,,59,0,8,,,,,,,,,,,,,,,10,,,76,0
37860,note_on,,1,0,5,,,,,,,,,,,,,,,0,,,78,64
37860,note_on,,1,0,8,,,,,,,,,,,,,,,10,,,78,64
37919,note_on,,119,0,6,,,,,,,,,,,,,,,1,,,66,0
37919,note_on,,119,0,9,,,,,,,,,,,,,,,11,,,66,0
37919,note_on,,59,0,8,,,,,,,,,,,,,,,10,,,78,0
37919,note_on,,239,0,11,,,,,,,,,,,,,,,13,,,58,0
37919,note_on,,59,0,5,,,,,,,,,,,,,,,0,,,78,0
37919,note_on,,239,0,7,,,,,,,,,,,,,,,2,,,58,0
37919,note_on,,0,0,12,,,,,,,,,,,,,,,15,,,66,0
37919,note_on,,119,0,10,,,,,,,,,,,,,,,12,,,70,0
37919,note_on,,0,0,12,,,,,,,,,,,,,,,15,,,73,0
37919,note_on,,0,0,12,,,,,,,,,,,,,,,15,,,78,0
37919,note_on,,239,0,12,,,,,,,,,,,,,,,15,,,58,0
37919,note_on,,0,0,12,,,,,,,,,,,,,,,15,,,61,0
37920,note_on,,0,0,12,,,,,,,,,,,,,,,15,,,71,64
37920,note_on,,0,0,12,,,,,,,,,,,,,,,15,,,75,64
37920,note_on,,1,0,12,,,,,,,,,,,,,,,15,,,66,64
37920,note_on,,0,0,12,,,,,,,,,,,,,,,15,,,59,64
37920,note_on,,1,0,9,,,,,,,,,,,,,,,11,,,66,64
37920,note_on,,1,0,7,,,,,,,,,,,,,,,2,,,59,64
37920,note_on,,1,0,10,,,,,,,,,,,,,,,12,,,66,64
37920,note_on,,1,0,5,,,,,,,,,,,,,,,0,,,75,64
37920,note_on,,1,0,8,,,,,,,,,,,,,,,10,,,75,64
37920,note_on,,1,0,11,,,,,,,,,,,,,,,13,,,59,64
37920,note_on,,1,0,6,,,,,,,,,,,,,,,1,,,66,64
37979,note_on,,59,0,8,,,,,,,,,,,,,,,10,,,75,0
37979,note_on,,59,0,9,,,,,,,,,,,,,,,11,,,66,0
37979,note_on,,59,0,5,,,,,,,,,,,,,,,0,,,75,0
37979,note_on,,59,0,6,,,,,,,,,,,,,,,1,,,66,0
37980,note_on,,1,0,6,,,,,,,,,,,,,,,1,,,63,64
37980,note_on,,1,0,8,,,,,,,,,,,,,,,10,,,71,64
37980,note_on,,1,0,5,,,,,,,,,,,,,,,0,,,71,64
37980,note_on,,1,0,9,,,,,,,,,,,,,,,11,,,63,64
38039,note_on,,119,0,10,,,,,,,,,,,,,,,12,,,66,0
38039,note_on,,59,0,6,,,,,,,,,,,,,,,1,,,63,0
38039,note_on,,119,0,12,,,,,,,,,,,,,,,15,,,59,0
38039,note_on,,59,0,9,,,,,,,,,,,,,,,11,,,63,0
38039,note_on,,119,0,7,,,,,,,,,,,,,,,2,,,59,0
38039,note_on,,59,0,8,,,,,,,,,,,,,,,10,,,71,0
38039,note_on,,59,0,5,,,,,,,,,,,,,,,0,,,71,0
38039,note_on,,119,0,11,,,,,,,,,,,,,,,13,,,59,0
38040,note_on,,1,0,12,,,,,,,,,,,,,,,15,,,57,64
38040,note_on,,1,0,7,,,,,,,,,,,,,,,2,,,57,64
38040,note_on,,1,0,5,,,,,,,,,,,,,,,0,,,73,64
38040,note_on,,1,0,8,,,,,,,,,,,,,,,10,,,73,64
38040,note_on,,1,0,9,,,,,,,,,,,,,,,11,,,64,64
38040,note_on,,1,0,6,,,,,,,,,,,,,,,1,,,64,64
38040,note_on,,1,0,10,,,,,,,,,,,,,,,12,,,59,64
38040,note_on,,1,0,11,,,,,,,,,,,,,,,13,,,57,64
38099,note_on,,59,0,5,,,,,,,,,,,,,,,0,,,73,0
38099,note_on,,59,0,6,,,,,,,,,,,,,,,1,,,64,0
38099,note_on,,59,0,9,,,,,,,,,,,,,,,11,,,64,0
38099,note_on,,59,0,8,,,,,,,,,,,,,,,10,,,73,0
38100,note_on,,1,0,5,,,,,,,,,,,,,,,0,,,75,64
38100,note_on,,1,0,6,,,,,,,,,,,,,,,1,,,66,64
38100,note_on,,1,0,9,,,,,,,,,,,,,,,11,,,66,64
38100,note_on,,1,0,8,,,,,,,,,,,,,,,10,,,75,64
38159,note_on,,119,0,11,,,,,,,,,,,,,,,13,,,57,0
38159,note_on,,0,0,12,,,,,,,,,,,,,,,15,,,75,0
38159,note_on,,119,0,12,,,,,,,,,,,,,,,15,,,66,0
38159,note_on,,59,0,5,,,,,,,,,,,,,,,0,,,75,0
38159,note_on,,119,0,10,,,,,,,,,,,,,,,12,,,59,0
38159,note_on,,59,0,8,,,,,,,,,,,,,,,10,,,75,0
38159,note_on,,59,0,9,,,,,,,,,,,,,,,11,,,66,0
38159,note_on,,59,0,6,,,,,,,,,,,,,,,1,,,66,0
38159,note_on,,119,0,7,,,,,,,,,,,,,,,2,,,57,0
38159,note_on,,0,0,12,,,,,,,,,,,,,,,15,,,71,0
38159,note_on,,0,0,12,,,,,,,,,,,,,,,15,,,57,0
38160,note_on,,1,0,6,,,,,,,,,,,,,,,1,,,67,64
38160,note_on,,0,0,12,,,,,,,,,,,,,,,15,,,59,64
38160,note_on,,1,0,11,,,,,,,,,,,,,,,13,,,55,64
38160,note_on,,0,0,12,,,,,,,,,,,,,,,15,,,76,64
38160,note_on,,1,0,10,,,,,,,,,,,,,,,12,,,59,64
38160,note_on,,1,0,7,,,,,,,,,,,,,,,2,,,55,64
38160,note_on,,1,0,5,,,,,,,,,,,,,,,0,,,76,64
38160,note_on,,0,0,12,,,,,,,,,,,,,,,15,,,71,64
38160,note_on,,1,0,12,,,,,,,,,,,,,,,15,,,55,64
38160,note_on,,1,0,9,,,,,,,,,,,,,,,11,,,67,64
38160,note_on,,1,0,8,,,,,,,,,,,,,,,10,,,76,64
38219,note_on,,59,0,5,,,,,,,,,,,,,,,0,,,76,0
38219,note_on,,59,0,9,,,,,,,,,,,,,,,11,,,67,0
38219,note_on,,59,0,8,,,,,,,,,,,,,,,10,,,76,0
38219,note_on,,59,0,6,,,,,,,,,,,,,,,1,,,67,0
38220,note_on,,1,0,9,,,,,,,,,,,,,,,11,,,69,64
38220,note_on,,1,0,5,,,,,,,,,,,,,,,0,,,78,64
38220,note_on,,1,0,8,,,,,,,,,,,,,,,10,,,78,64
38220,note_on,,1,0,6,,,,,,,,,,,,,,,1,,,69,64
38279,note_on,,59,0,6,,,,,,,,,,,,,,,1,,,69,0
38279,note_on,,0,0,12,,,,,,,,,,,,,,,15,,,71,0
38279,note_on,,119,0,11,,,,,,,,,,,,,,,13,,,55,0
38279,note_on,,119,0,12,,,,,,,,,,,,,,,15,,,55,0
38279,note_on,,59,0,5,,,,,,,,,,,,,,,0,,,78,0
38279,note_on,,59,0,8,,,,,,,,,,,,,,,10,,,78,0
38279,note_on,,119,0,10,,,,,,,,,,,,,,,12,,,59,0
38279,note_on,,59,0,9,,,,,,,,,,,,,,,11,,,69,0
38279,note_on,,119,0,7,,,,,,,,,,,,,,,2,,,55,0
38280,note_on,,1,0,11,,,,,,,,,,,,,,,13,,,54,64
38280,note_on,,1,0,10,,,,,,,,,,,,,,,12,,,64,64
38280,note_on,,1,0,9,,,,,,,,,,,,,,,11,,,71,64
38280,note_on,,0,0,12,,,,,,,,,,,,,,,15,,,69,64
38280,note_on,,1,0,7,,,,,,,,,,,,,,,2,,,54,64
38280,note_on,,1,0,8,,,,,,,,,,,,,,,10,,,79,64
38280,note_on,,1,0,12,,,,,,,,,,,,,,,15,,,54,64
38280,note_on,,1,0,6,,,,,,,,,,,,,,,1,,,71,64
38280,note_on,,1,0,5,,,,,,,,,,,,,,,0,,,79,64
38339,note_on,,59,0,12,,,,,,,,,,,,,,,15,,,54,0
38339,note_on,,59,0,5,,,,,,,,,,,,,,,0,,,79,0
38339,note_on,,59,0,6,,,,,,,,,,,,,,,1,,,71,0
38339,note_on,,0,0,12,,,,,,,,,,,,,,,15,,,69,0
38339,note_on,,59,0,8,,,,,,,,,,,,,,,10,,,79,0
38339,note_on,,59,0,9,,,,,,,,,,,,,,,11,,,71,0
38339,note_on,,59,0,7,,,,,,,,,,,,,,,2,,,54,0
38339,note_on,,59,0,11,,,,,,,,,,,,,,,13,,,54,0
38340,note_on,,1,0,9,,,,,,,,,,,,,,,11,,,72,64
38340,note_on,,1,0,5,,,,,,,,,,,,,,,0,,,81,64
38340,note_on,,1,0,6,,,,,,,,,,,,,,,1,,,72,64
38340,note_on,,1,0,8,,,,,,,,,,,,,,,10,,,81,64
38340,note_on,,1,0,11,,,,,,,,,,,,,,,13,,,52,64
38340,note_on,,1,0,12,,,,,,,,,,,,,,,15,,,52,64
38340,note_on,,0,0,12,,,,,,,,,,,,,,,15,,,67,64
38340,note_on,,1,0,7,,,,,,,,,,,,,,,2,,,52,64
38399,note_on,,59,0,9,,,,,,,,,,,,,,,11,,,72,0
38399,note_on,,59,0,11,,,,,,,,,,,,,,,13,,,52,0
38399,note_on,,59,0,6,,,,,,,,,,,,,,,1,,,72,0
38399,note_on,,59,0,12,,,,,,,,,,,,,,,15,,,76,0
38399,note_on,,0,0,12,,,,,,,,,,,,,,,15,,,59,0
38399,note_on,,0,0,12,,,,,,,,,,,,,,,15,,,52,0
38399,note_on,,59,0,5,,,,,,,,,,,,,,,0,,,81,0
38399,note_on,,59,0,8,,,,,,,,,,,,,,,10,,,81,0
38399,note_on,,0,0,12,,,,,,,,,,,,,,,15,,,67,0
38399,note_on,,59,0,7,,,,,,,,,,,,,,,2,,,52,0
38399,note_on,,119,0,10,,,,,,,,,,,,,,,12,,,64,0
38400,note_on,,1,0,5,,,,,,,,,,,,,,,0,,,83,64
38400,note_on,,1,0,11,,,,,,,,,,,,,,,13,,,51,64
38400,note_on,,1,0,7,,,,,,,,,,,,,,,2,,,51,64
38400,note_on,,1,0,6,,,,,,,,,,,,,,,1,,,71,64
38400,note_on,,1,0,12,,,,,,,,,,,,,,,15,,,71,64
38400,note_on,,0,0,12,,,,,,,,,,,,,,,15,,,66,64
38400,note_on,,0,0,12,,,,,,,,,,,,,,,15,,,78,64
38400,note_on,,0,0,12,,,,,,,,,,,,,,,15,,,51,64
38400,note_on,,1,0,8,,,,,,,,,,,,,,,10,,,83,64
38400,note_on,,1,0,9,,,,,,,,,,,,,,,11,,,71,64
38400,note_on,,1,0,10,,,,,,,,,,,,,,,12,,,66,64
38519,note_on,,119,0,12,,,,,,,,,,,,,,,15,,,51,0
38519,note_on,,119,0,7,,,,,,,,,,,,,,,2,,,51,0
38519,note_on,,119,0,8,,,,,,,,,,,,,,,10,,,83,0
38519,note_on,,119,0,6,,,,,,,,,,,,,,,1,,,71,0
38519,note_on,,119,0,10,,,,,,,,,,,,,,,12,,,66,0
38519,note_on,,119,0,5,,,,,,,,,,,,,,,0,,,83,0
38519,note_on,,119,0,9,,,,,,,,,,,,,,,11,,,71,0
38519,note_on,,119,0,11,,,,,,,,,,,,,,,13,,,51,0
38520,note_on,,1,0,5,,,,,,,,,,,,,,,0,,,78,64
38520,note_on,,1,0,7,,,,,,,,,,,,,,,2,,,47,64
38520,note_on,,1,0,12,,,,,,,,,,,,,,,15,,,47,64
38520,note_on,,1,0,6,,,,,,,,,,,,,,,1,,,75,64
38520,note_on,,1,0,11,,,,,,,,,,,,,,,13,,,47,64
38520,note_on,,1,0,8,,,,,,,,,,,,,,,10,,,78,64
38520,note_on,,1,0,9,,,,,,,,,,,,,,,11,,,75,64
38520,note_on,,1,0,10,,,,,,,,,,,,,,,12,,,71,64
38639,note_on,,119,0,8,,,,,,,,,,,,,,,10,,,78,0
38639,note_on,,119,0,6,,,,,,,,,,,,,,,1,,,75,0
38639,note_on,,119,0,9,,,,,,,,,,,,,,,11,,,75,0
38639,note_on,,119,0,10,,,,,,,,,,,,,,,12,,,71,0
38639,note_on,,119,0,11,,,,,,,,,,,,,,,13,,,47,0
38639,note_on,,119,0,12,,,,,,,,,,,,,,,15,,,71,0
38639,note_on,,0,0,12,,,,,,,,,,,,,,,15,,,78,0
38639,note_on,,0,0,12,,,,,,,,,,,,,,,15,,,66,0
38639,note_on,,0,0,12,,,,,,,,,,,,,,,15,,,47,0
38639,note_on,,119,0,7,,,,,,,,,,,,,,,2,,,47,0
38639,note_on,,119,0,5,,,,,,,,,,,,,,,0,,,78,0
38640,note_on,,1,0,8,,,,,,,,,,,,,,,10,,,75,64
38640,note_on,,1,0,9,,,,,,,,,,,,,,,11,,,71,64
38640,note_on,,1,0,12,,,,,,,,,,,,,,,15,,,59,64
38640,note_on,,0,0,12,,,,,,,,,,,,,,,15,,,71,64
38640,note_on,,1,0,11,,,,,,,,,,,,,,,13,,,59,64
38640,note_on,,0,0,12,,,,,,,,,,,,,,,15,,,63,64
38640,note_on,,1,0,7,,,,,,,,,,,,,,,2,,,59,64
38640,note_on,,1,0,5,,,,,,,,,,,,,,,0,,,75,64
38640,note_on,,0,0,12,,,,,,,,,,,,,,,15,,,66,64
38640,note_on,,1,0,10,,,,,,,,,,,,,,,12,,,66,64
38640,note_on,,1,0,6,,,,,,,,,,,,,,,1,,,71,64
38759,note_on,,119,0,9,,,,,,,,,,,,,,,11,,,71,0
38759,note_on,,119,0,5,,,,,,,,,,,,,,,0,,,75,0
38759,note_on,,119,0,10,,,,,,,,,,,,,,,12,,,66,0
38759,note_on,,119,0,6,,,,,,,,,,,,,,,1,,,71,0
38759,note_on,,119,0,8,,,,,,,,,,,,,,,10,,,75,0
38760,note_on,,1,0,6,,,,,,,,,,,,,,,1,,,66,64
38760,note_on,,1,0,9,,,,,,,,,,,,,,,11,,,66,64
38760,note_on,,1,0,8,,,,,,,,,,,,,,,10,,,73,64
38760,note_on,,1,0,10,,,,,,,,,,,,,,,12,,,63,64
38760,note_on,,1,0,5,,,,,,,,,,,,,,,0,,,73,64
38819,note_on,,59,0,5,,,,,,,,,,,,,,,0,,,73,0
38819,note_on,,59,0,8,,,,,,,,,,,,,,,10,,,73,0
38820,note_on,,1,0,8,,,,,,,,,,,,,,,10,,,71,64
38820,note_on,,1,0,5,,,,,,,,,,,,,,,0,,,71,64
38879,note_on,,119,0,9,,,,,,,,,,,,,,,11,,,66,0
38879,note_on,,119,0,6,,,,,,,,,,,,,,,1,,,66,0
38879,note_on,,59,0,8,,,,,,,,,,,,,,,10,,,71,0
38879,note_on,,59,0,5,,,,,,,,,,,,,,,0,,,71,0
38879,note_on,,0,0,12,,,,,,,,,,,,,,,15,,,71,0
38879,note_on,,0,0,12,,,,,,,,,,,,,,,15,,,66,0
38879,note_on,,0,0,12,,,,,,,,,,,,,,,15,,,63,0
38879,note_on,,239,0,11,,,,,,,,,,,,,,,13,,,59,0
38879,note_on,,239,0,7,,,,,,,,,,,,,,,2,,,59,0
38879,note_on,,119,0,10,,,,,,,,,,,,,,,12,,,63,0
38879,note_on,,239,0,12,,,,,,,,,,,,,,,15,,,59,0
38880,note_on,,1,0,11,,,,,,,,,,,,,,,13,,,47,64
38880,note_on,,1,0,7,,,,,,,,,,,,,,,2,,,47,64
38880,note_on,,1,0,10,,,,,,,,,,,,,,,12,,,71,64
38880,note_on,,1,0,5,,,,,,,,,,,,,,,0,,,79,64
38880,note_on,,1,0,8,,,,,,,,,,,,,,,10,,,79,64
38880,note_on,,0,0,12,,,,,,,,,,,,,,,15,,,52,64
38880,note_on,,0,0,12,,,,,,,,,,,,,,,15,,,59,64
38880,note_on,,0,0,12,,,,,,,,,,,,,,,15,,,64,64
38880,note_on,,0,0,12,,,,,,,,,,,,,,,15,,,67,64
38880,note_on,,1,0,12,,,,,,,,,,,,,,,15,,,47,64
39000,note_on,,121,0,6,,,,,,,,,,,,,,,1,,,83,64
39000,note_on,,121,0,9,,,,,,,,,,,,,,,11,,,83,64
39119,note_on,,239,0,10,,,,,,,,,,,,,,,12,,,71,0
39119,note_on,,239,0,8,,,,,,,,,,,,,,,10,,,79,0
39119,note_on,,119,0,6,,,,,,,,,,,,,,,1,,,83,0
39119,note_on,,239,0,5,,,,,,,,,,,,,,,0,,,79,0
39119,note_on,,119,0,9,,,,,,,,,,,,,,,11,,,83,0
39120,note_on,,1,0,5,,,,,,,,,,,,,,,0,,,76,64
39120,note_on,,1,0,6,,,,,,,,,,,,,,,1,,,79,64
39120,note_on,,1,0,10,,,,,,,,,,,,,,,12,,,59,64
39120,note_on,,1,0,8,,,,,,,,,,,,,,,10,,,76,64
39120,note_on,,1,0,9,,,,,,,,,,,,,,,11,,,79,64
39239,note_on,,119,0,6,,,,,,,,,,,,,,,1,,,79,0
39239,note_on,,119,0,9,,,,,,,,,,,,,,,11,,,79,0
39240,note_on,,1,0,6,,,,,,,,,,,,,,,1,,,78,64
39240,note_on,,1,0,9,,,,,,,,,,,,,,,11,,,78,64
39299,note_on,,59,0,9,,,,,,,,,,,,,,,11,,,78,0
39299,note_on,,59,0,6,,,,,,,,,,,,,,,1,,,78,0
39300,note_on,,1,0,6,,,,,,,,,,,,,,,1,,,76,64
39300,note_on,,1,0,9,,,,,,,,,,,,,,,11,,,76,64
39359,note_on,,0,0,12,,,,,,,,,,,,,,,15,,,52,0
39359,note_on,,59,0,9,,,,,,,,,,,,,,,11,,,76,0
39359,note_on,,0,0,12,,,,,,,,,,,,,,,15,,,59,0
39359,note_on,,0,0,12,,,,,,,,,,,,,,,15,,,64,0
39359,note_on,,479,0,12,,,,,,,,,,,,,,,15,,,67,0
39359,note_on,,59,0,6,,,,,,,,,,,,,,,1,,,76,0
39359,note_on,,239,0,10,,,,,,,,,,,,,,,12,,,59,0
39360,note_on,,1,0,9,,,,,,,,,,,,,,,11,,,78,64
39360,note_on,,1,0,6,,,,,,,,,,,,,,,1,,,78,64
39360,note_on,,1,0,10,,,,,,,,,,,,,,,12,,,71,64
39360,note_on,,0,0,12,,,,,,,,,,,,,,,15,,,54,64
39360,note_on,,0,0,12,,,,,,,,,,,,,,,15,,,59,64
39360,note_on,,1,0,12,,,,,,,,,,,,,,,15,,,66,64
39479,note_on,,119,0,6,,,,,,,,,,,,,,,1,,,78,0
39479,note_on,,359,0,5,,,,,,,,,,,,,,,0,,,76,0
39479,note_on,,359,0,8,,,,,,,,,,,,,,,10,,,76,0
39479,note_on,,119,0,9,,,,,,,,,,,,,,,11,,,78,0
39480,note_on,,1,0,5,,,,,,,,,,,,,,,0,,,76,64
39480,note_on,,1,0,6,,,,,,,,,,,,,,,1,,,71,64
39480,note_on,,1,0,8,,,,,,,,,,,,,,,10,,,76,64
39480,note_on,,1,0,9,,,,,,,,,,,,,,,11,,,71,64
39599,note_on,,119,0,6,,,,,,,,,,,,,,,1,,,71,0
39599,note_on,,119,0,9,,,,,,,,,,,,,,,11,,,71,0
39599,note_on,,119,0,8,,,,,,,,,,,,,,,10,,,76,0
39599,note_on,,119,0,5,,,,,,,,,,,,,,,0,,,76,0
39599,note_on,,239,0,10,,,,,,,,,,,,,,,12,,,71,0
39600,note_on,,1,0,10,,,,,,,,,,,,,,,12,,,66,64
39600,note_on,,1,0,8,,,,,,,,,,,,,,,10,,,75,64
39600,note_on,,1,0,5,,,,,,,,,,,,,,,0,,,75,64
39719,note_on,,119,0,5,,,,,,,,,,,,,,,0,,,75,0
39719,note_on,,119,0,8,,,,,,,,,,,,,,,10,,,75,0
39719,note_on,,119,0,10,,,,,,,,,,,,,,,12,,,66,0
39720,note_on,,1,0,10,,,,,,,,,,,,,,,12,,,63,64
39720,note_on,,1,0,5,,,,,,,,,,,,,,,0,,,73,64
39720,note_on,,1,0,8,,,,,,,,,,,,,,,10,,,73,64
39779,note_on,,59,0,8,,,,,,,,,,,,,,,10,,,73,0
39779,note_on,,59,0,5,,,,,,,,,,,,,,,0,,,73,0
39780,note_on,,1,0,8,,,,,,,,,,,,,,,10,,,71,64
39780,note_on,,1,0,5,,,,,,,,,,,,,,,0,,,71,64
39839,note_on,,0,0,12,,,,,,,,,,,,,,,15,,,59,0
39839,note_on,,59,0,8,,,,,,,,,,,,,,,10,,,71,0
39839,note_on,,119,0,10,,,,,,,,,,,,,,,12,,,63,0
39839,note_on,,479,0,12,,,,,,,,,,,,,,,15,,,66,0
39839,note_on,,0,0,12,,,,,,,,,,,,,,,15,,,54,0
39839,note_on,,59,0,5,,,,,,,,,,,,,,,0,,,71,0
39840,note_on,,1,0,12,,,,,,,,,,,,,,,15,,,55,64
39840,note_on,,1,0,5,,,,,,,,,,,,,,,0,,,79,64
39840,note_on,,1,0,8,,,,,,,,,,,,,,,10,,,79,64
39840,note_on,,1,0,10,,,,,,,,,,,,,,,12,,,59,64
39879,note_on,,39,0,12,,,,,,,,,,,,,,,15,,,55,0
39880,note_on,,1,0,12,,,,,,,,,,,,,,,15,,,59,64
39919,note_on,,39,0,12,,,,,,,,,,,,,,,15,,,59,0
39920,note_on,,1,0,12,,,,,,,,,,,,,,,15,,,64,64
39959,note_on,,39,0,12,,,,,,,,,,,,,,,15,,,64,0
39959,note_on,,119,0,8,,,,,,,,,,,,,,,10,,,79,0
39959,note_on,,119,0,5,,,,,,,,,,,,,,,0,,,79,0
39960,note_on,,1,0,5,,,,,,,,,,,,,,,0,,,67,64
39960,note_on,,361,0,9,,,,,,,,,,,,,,,11,,,71,64
39960,note_on,,361,0,6,,,,,,,,,,,,,,,1,,,71,64
39960,note_on,,1,0,12,,,,,,,,,,,,,,,15,,,71,64
39960,note_on,,1,0,8,,,,,,,,,,,,,,,10,,,67,64
40079,note_on,,119,0,9,,,,,,,,,,,,,,,11,,,71,0
40079,note_on,,239,0,10,,,,,,,,,,,,,,,12,,,59,0
40079,note_on,,119,0,6,,,,,,,,,,,,,,,1,,,71,0
40079,note_on,,119,0,5,,,,,,,,,,,,,,,0,,,67,0
40079,note_on,,119,0,8,,,,,,,,,,,,,,,10,,,67,0
40080,note_on,,1,0,8,,,,,,,,,,,,,,,10,,,64,64
40080,note_on,,1,0,5,,,,,,,,,,,,,,,0,,,64,64
40080,note_on,,1,0,9,,,,,,,,,,,,,,,11,,,67,64
40080,note_on,,1,0,6,,,,,,,,,,,,,,,1,,,67,64
40080,note_on,,1,0,10,,,,,,,,,,,,,,,12,,,59,64
40199,note_on,,119,0,6,,,,,,,,,,,,,,,1,,,67,0
40199,note_on,,119,0,9,,,,,,,,,,,,,,,11,,,67,0
40200,note_on,,1,0,9,,,,,,,,,,,,,,,11,,,66,64
40200,note_on,,1,0,6,,,,,,,,,,,,,,,1,,,66,64
40259,note_on,,59,0,6,,,,,,,,,,,,,,,1,,,66,0
40259,note_on,,59,0,9,,,,,,,,,,,,,,,11,,,66,0
40260,note_on,,1,0,6,,,,,,,,,,,,,,,1,,,64,64
40260,note_on,,1,0,9,,,,,,,,,,,,,,,11,,,64,64
40319,note_on,,59,0,6,,,,,,,,,,,,,,,1,,,64,0
40319,note_on,,59,0,9,,,,,,,,,,,,,,,11,,,64,0
40319,note_on,,359,0,12,,,,,,,,,,,,,,,15,,,71,0
40319,note_on,,239,0,10,,,,,,,,,,,,,,,12,,,59,0
40320,note_on,,1,0,9,,,,,,,,,,,,,,,11,,,66,64
40320,note_on,,1,0,6,,,,,,,,,,,,,,,1,,,66,64
40320,note_on,,1,0,12,,,,,,,,,,,,,,,15,,,59,64
40320,note_on,,0,0,12,,,,,,,,,,,,,,,15,,,64,64
40320,note_on,,1,0,10,,,,,,,,,,,,,,,12,,,59,64
40379,note_on,,59,0,12,,,,,,,,,,,,,,,15,,,59,0
40380,note_on,,1,0,12,,,,,,,,,,,,,,,15,,,66,64
40439,note_on,,0,0,12,,,,,,,,,,,,,,,15,,,64,0
40439,note_on,,359,0,8,,,,,,,,,,,,,,,10,,,64,0
40439,note_on,,59,0,12,,,,,,,,,,,,,,,15,,,47,0
40439,note_on,,1559,0,7,,,,,,,,,,,,,,,2,,,47,0
40439,note_on,,119,0,10,,,,,,,,,,,,,,,12,,,59,0
40439,note_on,,359,0,5,,,,,,,,,,,,,,,0,,,64,0
40439,note_on,,0,0,12,,,,,,,,,,,,,,,15,,,66,0
40439,note_on,,1559,0,11,,,,,,,,,,,,,,,13,,,47,0
40440,note_on,,0,0,12,,,,,,,,,,,,,,,15,,,63,64
40440,note_on,,1,0,10,,,,,,,,,,,,,,,12,,,59,64
40440,note_on,,1,0,7,,,,,,,,,,,,,,,2,,,59,64
40440,note_on,,0,0,12,,,,,,,,,,,,,,,15,,,71,64
40440,note_on,,1,0,12,,,,,,,,,,,,,,,15,,,59,64
40440,note_on,,1,0,8,,,,,,,,,,,,,,,10,,,63,64
40440,note_on,,1,0,5,,,,,,,,,,,,,,,0,,,63,64
40440,note_on,,1,0,11,,,,,,,,,,,,,,,13,,,59,64
40559,note_on,,119,0,8,,,,,,,,,,,,,,,10,,,63,0
40559,note_on,,239,0,9,,,,,,,,,,,,,,,11,,,66,0
40559,note_on,,0,0,12,,,,,,,,,,,,,,,15,,,63,0
40559,note_on,,119,0,12,,,,,,,,,,,,,,,15,,,59,0
40559,note_on,,239,0,6,,,,,,,,,,,,,,,1,,,66,0
40559,note_on,,119,0,10,,,,,,,,,,,,,,,12,,,59,0
40559,note_on,,119,0,11,,,,,,,,,,,,,,,13,,,59,0
40559,note_on,,119,0,5,,,,,,,,,,,,,,,0,,,63,0
40559,note_on,,119,0,7,,,,,,,,,,,,,,,2,,,59,0
40560,note_on,,1,0,12,,,,,,,,,,,,,,,15,,,55,64
40560,note_on,,1,0,9,,,,,,,,,,,,,,,11,,,64,64
40560,note_on,,0,0,12,,,,,,,,,,,,,,,15,,,67,64
40560,note_on,,1,0,7,,,,,,,,,,,,,,,2,,,55,64
40560,note_on,,0,0,12,,,,,,,,,,,,,,,15,,,64,64
40560,note_on,,1,0,10,,,,,,,,,,,,,,,12,,,59,64
40560,note_on,,1,0,8,,,,,,,,,,,,,,,10,,,71,64
40560,note_on,,1,0,11,,,,,,,,,,,,,,,13,,,55,64
40560,note_on,,1,0,5,,,,,,,,,,,,,,,0,,,71,64
40560,note_on,,1,0,6,,,,,,,,,,,,,,,1,,,64,64
40679,note_on,,119,0,7,,,,,,,,,,,,,,,2,,,55,0
40679,note_on,,119,0,11,,,,,,,,,,,,,,,13,,,55,0
40679,note_on,,119,0,12,,,,,,,,,,,,,,,15,,,55,0
40679,note_on,,119,0,10,,,,,,,,,,,,,,,12,,,59,0
40680,note_on,,1,0,12,,,,,,,,,,,,,,,15,,,54,64
40680,note_on,,1,0,10,,,,,,,,,,,,,,,12,,,57,64
40680,note_on,,1,0,11,,,,,,,,,,,,,,,13,,,54,64
40680,note_on,,1,0,7,,,,,,,,,,,,,,,2,,,54,64
40739,note_on,,59,0,12,,,,,,,,,,,,,,,15,,,54,0
40739,note_on,,59,0,10,,,,,,,,,,,,,,,12,,,57,0
40739,note_on,,59,0,11,,,,,,,,,,,,,,,13,,,54,0
40739,note_on,,59,0,7,,,,,,,,,,,,,,,2,,,54,0
40740,note_on,,1,0,12,,,,,,,,,,,,,,,15,,,52,64
40740,note_on,,1,0,10,,,,,,,,,,,,,,,12,,,55,64
40740,note_on,,1,0,11,,,,,,,,,,,,,,,13,,,52,64
40740,note_on,,1,0,7,,,,,,,,,,,,,,,2,,,52,64
40799,note_on,,59,0,7,,,,,,,,,,,,,,,2,,,52,0
40799,note_on,,0,0,12,,,,,,,,,,,,,,,15,,,52,0
40799,note_on,,0,0,12,,,,,,,,,,,,,,,15,,,67,0
40799,note_on,,59,0,12,,,,,,,,,,,,,,,15,,,71,0
40799,note_on,,239,0,6,,,,,,,,,,,,,,,1,,,64,0
40799,note_on,,59,0,11,,,,,,,,,,,,,,,13,,,52,0
40799,note_on,,59,0,10,,,,,,,,,,,,,,,12,,,55,0
40799,note_on,,239,0,9,,,,,,,,,,,,,,,11,,,64,0
40799,note_on,,239,0,8,,,,,,,,,,,,,,,10,,,71,0
40799,note_on,,239,0,5,,,,,,,,,,,,,,,0,,,71,0
40800,note_on,,1,0,12,,,,,,,,,,,,,,,15,,,54,64
40800,note_on,,0,0,12,,,,,,,,,,,,,,,15,,,69,64
40800,note_on,,1,0,6,,,,,,,,,,,,,,,1,,,69,64
40800,note_on,,1,0,9,,,,,,,,,,,,,,,11,,,69,64
40800,note_on,,1,0,10,,,,,,,,,,,,,,,12,,,54,64
40800,note_on,,1,0,7,,,,,,,,,,,,,,,2,,,54,64
40800,note_on,,1,0,11,,,,,,,,,,,,,,,13,,,54,64
40919,note_on,,119,0,11,,,,,,,,,,,,,,,13,,,54,0
40919,note_on,,119,0,7,,,,,,,,,,,,,,,2,,,54,0
40919,note_on,,119,0,12,,,,,,,,,,,,,,,15,,,64,0
40919,note_on,,0,0,12,,,,,,,,,,,,,,,15,,,54,0
40920,note_on,,121,0,5,,,,,,,,,,,,,,,0,,,78,64
40920,note_on,,121,0,8,,,,,,,,,,,,,,,10,,,78,64
40920,note_on,,1,0,7,,,,,,,,,,,,,,,2,,,47,64
40920,note_on,,0,0,12,,,,,,,,,,,,,,,15,,,63,64
40920,note_on,,1,0,11,,,,,,,,,,,,,,,13,,,47,64
40920,note_on,,1,0,12,,,,,,,,,,,,,,,15,,,47,64
40979,note_on,,59,0,12,,,,,,,,,,,,,,,15,,,63,0
40980,note_on,,1,0,12,,,,,,,,,,,,,,,15,,,61,64
41039,note_on,,119,0,7,,,,,,,,,,,,,,,2,,,47,0
41039,note_on,,59,0,12,,,,,,,,,,,,,,,15,,,69,0
41039,note_on,,0,0,12,,,,,,,,,,,,,,,15,,,47,0
41039,note_on,,119,0,11,,,,,,,,,,,,,,,13,,,47,0
41039,note_on,,119,0,5,,,,,,,,,,,,,,,0,,,78,0
41039,note_on,,119,0,8,,,,,,,,,,,,,,,10,,,78,0
41039,note_on,,239,0,10,,,,,,,,,,,,,,,12,,,54,0
41039,note_on,,0,0,12,,,,,,,,,,,,,,,15,,,61,0
41040,note_on,,1,0,12,,,,,,,,,,,,,,,15,,,59,64
41040,note_on,,0,0,12,,,,,,,,,,,,,,,15,,,66,64
41040,note_on,,1,0,10,,,,,,,,,,,,,,,12,,,59,64
41040,note_on,,1,0,7,,,,,,,,,,,,,,,2,,,59,64
41040,note_on,,1,0,5,,,,,,,,,,,,,,,0,,,75,64
41040,note_on,,1,0,8,,,,,,,,,,,,,,,10,,,75,64
41040,note_on,,0,0,12,,,,,,,,,,,,,,,15,,,63,64
41040,note_on,,1,0,11,,,,,,,,,,,,,,,13,,,59,64
41159,note_on,,359,0,9,,,,,,,,,,,,,,,11,,,69,0
41159,note_on,,119,0,5,,,,,,,,,,,,,,,0,,,75,0
41159,note_on,,359,0,6,,,,,,,,,,,,,,,1,,,69,0
41159,note_on,,119,0,8,,,,,,,,,,,,,,,10,,,75,0
41160,note_on,,1,0,6,,,,,,,,,,,,,,,1,,,69,64
41160,note_on,,1,0,9,,,,,,,,,,,,,,,11,,,69,64
41160,note_on,,1,0,5,,,,,,,,,,,,,,,0,,,73,64
41160,note_on,,1,0,8,,,,,,,,,,,,,,,10,,,73,64
41219,note_on,,59,0,5,,,,,,,,,,,,,,,0,,,73,0
41219,note_on,,59,0,8,,,,,,,,,,,,,,,10,,,73,0
41220,note_on,,1,0,5,,,,,,,,,,,,,,,0,,,71,64
41220,note_on,,1,0,8,,,,,,,,,,,,,,,10,,,71,64
41279,note_on,,119,0,6,,,,,,,,,,,,,,,1,,,69,0
41279,note_on,,59,0,5,,,,,,,,,,,,,,,0,,,71,0
41279,note_on,,119,0,9,,,,,,,,,,,,,,,11,,,69,0
41279,note_on,,239,0,10,,,,,,,,,,,,,,,12,,,59,0
41279,note_on,,0,0,12,,,,,,,,,,,,,,,15,,,63,0
41279,note_on,,239,0,12,,,,,,,,,,,,,,,15,,,66,0
41279,note_on,,59,0,8,,,,,,,,,,,,,,,10,,,71,0
41280,note_on,,1,0,10,,,,,,,,,,,,,,,12,,,64,64
41280,note_on,,0,0,12,,,,,,,,,,,,,,,15,,,64,64
41280,note_on,,1,0,12,,,,,,,,,,,,,,,15,,,67,64
41280,note_on,,1,0,9,,,,,,,,,,,,,,,11,,,67,64
41280,note_on,,1,0,8,,,,,,,,,,,,,,,10,,,79,64
41280,note_on,,1,0,5,,,,,,,,,,,,,,,0,,,79,64
41280,note_on,,1,0,6,,,,,,,,,,,,,,,1,,,67,64
41399,note_on,,119,0,12,,,,,,,,,,,,,,,15,,,59,0
41399,note_on,,119,0,5,,,,,,,,,,,,,,,0,,,79,0
41399,note_on,,119,0,10,,,,,,,,,,,,,,,12,,,64,0
41399,note_on,,119,0,8,,,,,,,,,,,,,,,10,,,79,0
41399,note_on,,119,0,9,,,,,,,,,,,,,,,11,,,67,0
41399,note_on,,359,0,7,,,,,,,,,,,,,,,2,,,59,0
41399,note_on,,359,0,11,,,,,,,,,,,,,,,13,,,59,0
41399,note_on,,119,0,6,,,,,,,,,,,,,,,1,,,67,0
41400,note_on,,1,0,6,,,,,,,,,,,,,,,1,,,63,64
41400,note_on,,1,0,5,,,,,,,,,,,,,,,0,,,67,64
41400,note_on,,1,0,8,,,,,,,,,,,,,,,10,,,67,64
41400,note_on,,1,0,7,,,,,,,,,,,,,,,2,,,59,64
41400,note_on,,1,0,11,,,,,,,,,,,,,,,13,,,59,64
41400,note_on,,1,0,10,,,,,,,,,,,,,,,12,,,63,64
41400,note_on,,1,0,12,,,,,,,,,,,,,,,15,,,59,64
41400,note_on,,1,0,9,,,,,,,,,,,,,,,11,,,63,64
41519,note_on,,119,0,10,,,,,,,,,,,,,,,12,,,63,0
41519,note_on,,119,0,7,,,,,,,,,,,,,,,2,,,59,0
41519,note_on,,119,0,12,,,,,,,,,,,,,,,15,,,67,0
41519,note_on,,119,0,11,,,,,,,,,,,,,,,13,,,59,0
41519,note_on,,119,0,5,,,,,,,,,,,,,,,0,,,67,0
41519,note_on,,119,0,6,,,,,,,,,,,,,,,1,,,63,0
41519,note_on,,119,0,8,,,,,,,,,,,,,,,10,,,67,0
41519,note_on,,0,0,12,,,,,,,,,,,,,,,15,,,64,0
41519,note_on,,119,0,9,,,,,,,,,,,,,,,11,,,63,0
41519,note_on,,0,0,12,,,,,,,,,,,,,,,15,,,59,0
41520,note_on,,1,0,8,,,,,,,,,,,,,,,10,,,79,64
41520,note_on,,1,0,9,,,,,,,,,,,,,,,11,,,71,64
41520,note_on,,0,0,12,,,,,,,,,,,,,,,15,,,59,64
41520,note_on,,1,0,10,,,,,,,,,,,,,,,12,,,64,64
41520,note_on,,0,0,12,,,,,,,,,,,,,,,15,,,64,64
41520,note_on,,1,0,12,,,,,,,,,,,,,,,15,,,55,64
41520,note_on,,1,0,6,,,,,,,,,,,,,,,1,,,71,64
41520,note_on,,0,0,12,,,,,,,,,,,,,,,15,,,71,64
41520,note_on,,1,0,5,,,,,,,,,,,,,,,0,,,79,64
41520,note_on,,1,0,11,,,,,,,,,,,,,,,13,,,55,64
41520,note_on,,1,0,7,,,,,,,,,,,,,,,2,,,55,64
41639,note_on,,119,0,7,,,,,,,,,,,,,,,2,,,55,0
41639,note_on,,119,0,11,,,,,,,,,,,,,,,13,,,55,0
41639,note_on,,119,0,9,,,,,,,,,,,,,,,11,,,71,0
41639,note_on,,119,0,6,,,,,,,,,,,,,,,1,,,71,0
41639,note_on,,119,0,12,,,,,,,,,,,,,,,15,,,55,0
41640,note_on,,1,0,11,,,,,,,,,,,,,,,13,,,54,64
41640,note_on,,1,0,9,,,,,,,,,,,,,,,11,,,69,64
41640,note_on,,1,0,7,,,,,,,,,,,,,,,2,,,54,64
41640,note_on,,1,0,6,,,,,,,,,,,,,,,1,,,69,64
41640,note_on,,1,0,12,,,,,,,,,,,,,,,15,,,54,64
41699,note_on,,59,0,7,,,,,,,,,,,,,,,2,,,54,0
41699,note_on,,59,0,11,,,,,,,,,,,,,,,13,,,54,0
41699,note_on,,59,0,12,,,,,,,,,,,,,,,15,,,54,0
41699,note_on,,59,0,9,,,,,,,,,,,,,,,11,,,69,0
41699,note_on,,59,0,6,,,,,,,,,,,,,,,1,,,69,0
41700,note_on,,1,0,7,,,,,,,,,,,,,,,2,,,52,64
41700,note_on,,1,0,12,,,,,,,,,,,,,,,15,,,52,64
41700,note_on,,1,0,9,,,,,,,,,,,,,,,11,,,67,64
41700,note_on,,1,0,6,,,,,,,,,,,,,,,1,,,67,64
41700,note_on,,1,0,11,,,,,,,,,,,,,,,13,,,52,64
41759,note_on,,59,0,7,,,,,,,,,,,,,,,2,,,52,0
41759,note_on,,59,0,6,,,,,,,,,,,,,,,1,,,67,0
41759,note_on,,0,0,12,,,,,,,,,,,,,,,15,,,52,0
41759,note_on,,59,0,9,,,,,,,,,,,,,,,11,,,67,0
41759,note_on,,0,0,12,,,,,,,,,,,,,,,15,,,59,0
41759,note_on,,0,0,12,,,,,,,,,,,,,,,15,,,64,0
41759,note_on,,59,0,12,,,,,,,,,,,,,,,15,,,71,0
41759,note_on,,59,0,11,,,,,,,,,,,,,,,13,,,52,0
41760,note_on,,0,0,12,,,,,,,,,,,,,,,15,,,69,64
41760,note_on,,1,0,6,,,,,,,,,,,,,,,1,,,76,64
41760,note_on,,1,0,9,,,,,,,,,,,,,,,11,,,76,64
41760,note_on,,1,0,7,,,,,,,,,,,,,,,2,,,60,64
41760,note_on,,1,0,11,,,,,,,,,,,,,,,13,,,60,64
41760,note_on,,1,0,12,,,,,,,,,,,,,,,15,,,60,64
41760,note_on,,0,0,12,,,,,,,,,,,,,,,15,,,64,64
41879,note_on,,359,0,10,,,,,,,,,,,,,,,12,,,64,0
41879,note_on,,359,0,8,,,,,,,,,,,,,,,10,,,79,0
41879,note_on,,359,0,5,,,,,,,,,,,,,,,0,,,79,0
41880,note_on,,1,0,8,,,,,,,,,,,,,,,10,,,78,64
41880,note_on,,1,0,10,,,,,,,,,,,,,,,12,,,67,64
41880,note_on,,1,0,5,,,,,,,,,,,,,,,0,,,78,64
41939,note_on,,59,0,8,,,,,,,,,,,,,,,10,,,78,0
41939,note_on,,59,0,5,,,,,,,,,,,,,,,0,,,78,0
41940,note_on,,1,0,5,,,,,,,,,,,,,,,0,,,76,64
41940,note_on,,1,0,8,,,,,,,,,,,,,,,10,,,76,64
41999,note_on,,119,0,10,,,,,,,,,,,,,,,12,,,67,0
41999,note_on,,239,0,12,,,,,,,,,,,,,,,15,,,69,0
41999,note_on,,0,0,12,,,,,,,,,,,,,,,15,,,64,0
41999,note_on,,59,0,8,,,,,,,,,,,,,,,10,,,76,0
41999,note_on,,59,0,5,,,,,,,,,,,,,,,0,,,76,0
42000,note_on,,0,0,12,,,,,,,,,,,,,,,15,,,69,64
42000,note_on,,1,0,5,,,,,,,,,,,,,,,0,,,81,64
42000,note_on,,1,0,8,,,,,,,,,,,,,,,10,,,81,64
42000,note_on,,1,0,10,,,,,,,,,,,,,,,12,,,69,64
42000,note_on,,1,0,12,,,,,,,,,,,,,,,15,,,76,64
42000,note_on,,0,0,12,,,,,,,,,,,,,,,15,,,64,64
42119,note_on,,359,0,6,,,,,,,,,,,,,,,1,,,76,0
42119,note_on,,359,0,11,,,,,,,,,,,,,,,13,,,60,0
42119,note_on,,359,0,9,,,,,,,,,,,,,,,11,,,76,0
42119,note_on,,359,0,7,,,,,,,,,,,,,,,2,,,60,0
42119,note_on,,119,0,12,,,,,,,,,,,,,,,15,,,60,0
42120,note_on,,1,0,11,,,,,,,,,,,,,,,13,,,59,64
42120,note_on,,1,0,9,,,,,,,,,,,,,,,11,,,64,64
42120,note_on,,1,0,6,,,,,,,,,,,,,,,1,,,64,64
42120,note_on,,1,0,12,,,,,,,,,,,,,,,15,,,59,64
42120,note_on,,1,0,7,,,,,,,,,,,,,,,2,,,59,64
42179,note_on,,59,0,11,,,,,,,,,,,,,,,13,,,59,0
42179,note_on,,59,0,7,,,,,,,,,,,,,,,2,,,59,0
42179,note_on,,59,0,12,,,,,,,,,,,,,,,15,,,59,0
42180,note_on,,1,0,12,,,,,,,,,,,,,,,15,,,57,64
42180,note_on,,1,0,11,,,,,,,,,,,,,,,13,,,57,64
42180,note_on,,1,0,7,,,,,,,,,,,,,,,2,,,57,64
42239,note_on,,59,0,11,,,,,,,,,,,,,,,13,,,57,0
42239,note_on,,0,0,12,,,,,,,,,,,,,,,15,,,57,0
42239,note_on,,0,0,12,,,,,,,,,,,,,,,15,,,64,0
42239,note_on,,119,0,9,,,,,,,,,,,,,,,11,,,64,0
42239,note_on,,59,0,7,,,,,,,,,,,,,,,2,,,57,0
42239,note_on,,119,0,6,,,,,,,,,,,,,,,1,,,64,0
42239,note_on,,59,0,12,,,,,,,,,,,,,,,15,,,76,0
42239,note_on,,0,0,12,,,,,,,,,,,,,,,15,,,69,0
42240,note_on,,1,0,9,,,,,,,,,,,,,,,11,,,66,64
42240,note_on,,1,0,12,,,,,,,,,,,,,,,15,,,62,64
42240,note_on,,0,0,12,,,,,,,,,,,,,,,15,,,69,64
42240,note_on,,0,0,12,,,,,,,,,,,,,,,15,,,66,64
42240,note_on,,1,0,7,,,,,,,,,,,,,,,2,,,62,64
42240,note_on,,1,0,11,,,,,,,,,,,,,,,13,,,62,64
42240,note_on,,1,0,6,,,,,,,,,,,,,,,1,,,66,64
42359,note_on,,359,0,8,,,,,,,,,,,,,,,10,,,81,0
42359,note_on,,359,0,10,,,,,,,,,,,,,,,12,,,69,0
42359,note_on,,359,0,5,,,,,,,,,,,,,,,0,,,81,0
42360,note_on,,1,0,10,,,,,,,,,,,,,,,12,,,69,64
42360,note_on,,1,0,5,,,,,,,,,,,,,,,0,,,79,64
42360,note_on,,1,0,8,,,,,,,,,,,,,,,10,,,79,64
42419,note_on,,59,0,8,,,,,,,,,,,,,,,10,,,79,0
42419,note_on,,59,0,5,,,,,,,,,,,,,,,0,,,79,0
42420,note_on,,1,0,5,,,,,,,,,,,,,,,0,,,78,64
42420,note_on,,1,0,8,,,,,,,,,,,,,,,10,,,78,64
42479,note_on,,0,0,12,,,,,,,,,,,,,,,15,,,66,0
42479,note_on,,59,0,5,,,,,,,,,,,,,,,0,,,78,0
42479,note_on,,119,0,10,,,,,,,,,,,,,,,12,,,69,0
42479,note_on,,59,0,8,,,,,,,,,,,,,,,10,,,78,0
42479,note_on,,239,0,12,,,,,,,,,,,,,,,15,,,69,0
42480,note_on,,1,0,8,,,,,,,,,,,,,,,10,,,83,64
42480,note_on,,1,0,10,,,,,,,,,,,,,,,12,,,71,64
42480,note_on,,1,0,5,,,,,,,,,,,,,,,0,,,83,64
42480,note_on,,0,0,12,,,,,,,,,,,,,,,15,,,71,64
42480,note_on,,0,0,12,,,,,,,,,,,,,,,15,,,74,64
42480,note_on,,1,0,12,,,,,,,,,,,,,,,15,,,78,64
42599,note_on,,119,0,12,,,,,,,,,,,,,,,15,,,62,0
42599,note_on,,359,0,6,,,,,,,,,,,,,,,1,,,66,0
42599,note_on,,359,0,9,,,,,,,,,,,,,,,11,,,66,0
42599,note_on,,359,0,11,,,,,,,,,,,,,,,13,,,62,0
42599,note_on,,359,0,7,,,,,,,,,,,,,,,2,,,62,0
42600,note_on,,1,0,7,,,,,,,,,,,,,,,2,,,60,64
42600,note_on,,1,0,9,,,,,,,,,,,,,,,11,,,64,64
42600,note_on,,1,0,12,,,,,,,,,,,,,,,15,,,60,64
42600,note_on,,1,0,11,,,,,,,,,,,,,,,13,,,60,64
42600,note_on,,1,0,6,,,,,,,,,,,,,,,1,,,64,64
42659,note_on,,59,0,6,,,,,,,,,,,,,,,1,,,64,0
42659,note_on,,59,0,11,,,,,,,,,,,,,,,13,,,60,0
42659,note_on,,59,0,9,,,,,,,,,,,,,,,11,,,64,0
42659,note_on,,59,0,12,,,,,,,,,,,,,,,15,,,60,0
42659,note_on,,59,0,7,,,,,,,,,,,,,,,2,,,60,0
42660,note_on,,1,0,12,,,,,,,,,,,,,,,15,,,59,64
42660,note_on,,1,0,6,,,,,,,,,,,,,,,1,,,62,64
42660,note_on,,1,0,7,,,,,,,,,,,,,,,2,,,59,64
42660,note_on,,1,0,9,,,,,,,,,,,,,,,11,,,62,64
42660,note_on,,1,0,11,,,,,,,,,,,,,,,13,,,59,64
42719,note_on,,0,0,12,,,,,,,,,,,,,,,15,,,71,0
42719,note_on,,0,0,12,,,,,,,,,,,,,,,15,,,59,0
42719,note_on,,59,0,9,,,,,,,,,,,,,,,11,,,62,0
42719,note_on,,239,0,8,,,,,,,,,,,,,,,10,,,83,0
42719,note_on,,59,0,6,,,,,,,,,,,,,,,1,,,62,0
42719,note_on,,59,0,7,,,,,,,,,,,,,,,2,,,59,0
42719,note_on,,59,0,12,,,,,,,,,,,,,,,15,,,78,0
42719,note_on,,0,0,12,,,,,,,,,,,,,,,15,,,74,0
42719,note_on,,239,0,5,,,,,,,,,,,,,,,0,,,83,0
42719,note_on,,59,0,11,,,,,,,,,,,,,,,13,,,59,0
42720,note_on,,1,0,12,,,,,,,,,,,,,,,15,,,64,64
42720,note_on,,0,0,12,,,,,,,,,,,,,,,15,,,79,64
42720,note_on,,1,0,9,,,,,,,,,,,,,,,11,,,67,64
42720,note_on,,1,0,7,,,,,,,,,,,,,,,2,,,64,64
42720,note_on,,1,0,11,,,,,,,,,,,,,,,13,,,64,64
42720,note_on,,0,0,12,,,,,,,,,,,,,,,15,,,71,64
42720,note_on,,1,0,6,,,,,,,,,,,,,,,1,,,67,64
42720,note_on,,0,0,12,,,,,,,,,,,,,,,15,,,67,64
42839,note_on,,359,0,10,,,,,,,,,,,,,,,12,,,71,0
42840,note_on,,121,0,8,,,,,,,,,,,,,,,10,,,83,64
42840,note_on,,1,0,10,,,,,,,,,,,,,,,12,,,67,64
42840,note_on,,121,0,5,,,,,,,,,,,,,,,0,,,83,64
42959,note_on,,239,0,7,,,,,,,,,,,,,,,2,,,64,0
42959,note_on,,119,0,8,,,,,,,,,,,,,,,10,,,83,0
42959,note_on,,119,0,10,,,,,,,,,,,,,,,12,,,67,0
42959,note_on,,119,0,5,,,,,,,,,,,,,,,0,,,83,0
42959,note_on,,0,0,12,,,,,,,,,,,,,,,15,,,79,0
42959,note_on,,239,0,9,,,,,,,,,,,,,,,11,,,67,0
42959,note_on,,0,0,12,,,,,,,,,,,,,,,15,,,71,0
42959,note_on,,0,0,12,,,,,,,,,,,,,,,15,,,67,0
42959,note_on,,239,0,11,,,,,,,,,,,,,,,13,,,64,0
42959,note_on,,239,0,6,,,,,,,,,,,,,,,1,,,67,0
42959,note_on,,239,0,12,,,,,,,,,,,,,,,15,,,64,0
42960,note_on,,1,0,10,,,,,,,,,,,,,,,12,,,64,64
42960,note_on,,1,0,9,,,,,,,,,,,,,,,11,,,71,64
42960,note_on,,1,0,8,,,,,,,,,,,,,,,10,,,79,64
42960,note_on,,1,0,6,,,,,,,,,,,,,,,1,,,71,64
42960,note_on,,1,0,5,,,,,,,,,,,,,,,0,,,79,64
43079,note_on,,119,0,8,,,,,,,,,,,,,,,10,,,79,0
43079,note_on,,119,0,6,,,,,,,,,,,,,,,1,,,71,0
43079,note_on,,119,0,5,,,,,,,,,,,,,,,0,,,79,0
43079,note_on,,119,0,10,,,,,,,,,,,,,,,12,,,64,0
43079,note_on,,119,0,9,,,,,,,,,,,,,,,11,,,71,0
43080,note_on,,1,0,9,,,,,,,,,,,,,,,11,,,76,64
43080,note_on,,1,0,6,,,,,,,,,,,,,,,1,,,76,64
43080,note_on,,1,0,8,,,,,,,,,,,,,,,10,,,78,64
43080,note_on,,1,0,10,,,,,,,,,,,,,,,12,,,67,64
43080,note_on,,1,0,5,,,,,,,,,,,,,,,0,,,78,64
43139,note_on,,59,0,8,,,,,,,,,,,,,,,10,,,78,0
43139,note_on,,59,0,5,,,,,,,,,,,,,,,0,,,78,0
43140,note_on,,1,0,5,,,,,,,,,,,,,,,0,,,76,64
43140,note_on,,1,0,8,,,,,,,,,,,,,,,10,,,76,64
43199,note_on,,59,0,8,,,,,,,,,,,,,,,10,,,76,0
43199,note_on,,119,0,6,,,,,,,,,,,,,,,1,,,76,0
43199,note_on,,119,0,10,,,,,,,,,,,,,,,12,,,67,0
43199,note_on,,59,0,5,,,,,,,,,,,,,,,0,,,76,0
43199,note_on,,119,0,9,,,,,,,,,,,,,,,11,,,76,0
43200,note_on,,1,0,8,,,,,,,,,,,,,,,10,,,84,64
43200,note_on,,1,0,9,,,,,,,,,,,,,,,11,,,76,64
43200,note_on,,1,0,10,,,,,,,,,,,,,,,12,,,69,64
43200,note_on,,1,0,6,,,,,,,,,,,,,,,1,,,76,64
43200,note_on,,1,0,5,,,,,,,,,,,,,,,0,,,84,64
43319,note_on,,119,0,5,,,,,,,,,,,,,,,0,,,84,0
43319,note_on,,119,0,9,,,,,,,,,,,,,,,11,,,76,0
43319,note_on,,119,0,8,,,,,,,,,,,,,,,10,,,84,0
43319,note_on,,119,0,6,,,,,,,,,,,,,,,1,,,76,0
43319,note_on,,119,0,10,,,,,,,,,,,,,,,12,,,69,0
43320,note_on,,1,0,10,,,,,,,,,,,,,,,12,,,64,64
43320,note_on,,1,0,8,,,,,,,,,,,,,,,10,,,72,64
43320,note_on,,1,0,5,,,,,,,,,,,,,,,0,,,72,64
43320,note_on,,361,0,7,,,,,,,,,,,,,,,2,,,64,64
43320,note_on,,361,0,11,,,,,,,,,,,,,,,13,,,64,64
43320,note_on,,1,0,6,,,,,,,,,,,,,,,1,,,72,64
43320,note_on,,1,0,9,,,,,,,,,,,,,,,11,,,72,64
43320,note_on,,361,0,12,,,,,,,,,,,,,,,15,,,64,64
43439,note_on,,119,0,6,,,,,,,,,,,,,,,1,,,72,0
43439,note_on,,119,0,5,,,,,,,,,,,,,,,0,,,72,0
43439,note_on,,119,0,12,,,,,,,,,,,,,,,15,,,64,0
43439,note_on,,119,0,11,,,,,,,,,,,,,,,13,,,64,0
43439,note_on,,119,0,10,,,,,,,,,,,,,,,12,,,64,0
43439,note_on,,119,0,9,,,,,,,,,,,,,,,11,,,72,0
43439,note_on,,119,0,7,,,,,,,,,,,,,,,2,,,64,0
43439,note_on,,119,0,8,,,,,,,,,,,,,,,10,,,72,0
43440,note_on,,1,0,9,,,,,,,,,,,,,,,11,,,69,64
43440,note_on,,1,0,12,,,,,,,,,,,,,,,15,,,60,64
43440,note_on,,0,0,12,,,,,,,,,,,,,,,15,,,69,64
43440,note_on,,1,0,5,,,,,,,,,,,,,,,0,,,84,64
43440,note_on,,0,0,12,,,,,,,,,,,,,,,15,,,72,64
43440,note_on,,1,0,8,,,,,,,,,,,,,,,10,,,84,64
43440,note_on,,0,0,12,,,,,,,,,,,,,,,15,,,76,64
43440,note_on,,1,0,11,,,,,,,,,,,,,,,13,,,60,64
43440,note_on,,1,0,10,,,,,,,,,,,,,,,12,,,64,64
43440,note_on,,1,0,7,,,,,,,,,,,,,,,2,,,60,64
43440,note_on,,1,0,6,,,,,,,,,,,,,,,1,,,69,64
43559,note_on,,119,0,12,,,,,,,,,,,,,,,15,,,60,0
43559,note_on,,119,0,11,,,,,,,,,,,,,,,13,,,60,0
43559,note_on,,119,0,9,,,,,,,,,,,,,,,11,,,69,0
43559,note_on,,119,0,6,,,,,,,,,,,,,,,1,,,69,0
43559,note_on,,119,0,10,,,,,,,,,,,,,,,12,,,64,0
43559,note_on,,119,0,7,,,,,,,,,,,,,,,2,,,60,0
43560,note_on,,1,0,7,,,,,,,,,,,,,,,2,,,59,64
43560,note_on,,1,0,9,,,,,,,,,,,,,,,11,,,76,64
43560,note_on,,1,0,10,,,,,,,,,,,,,,,12,,,69,64
43560,note_on,,1,0,11,,,,,,,,,,,,,,,13,,,59,64
43560,note_on,,1,0,12,,,,,,,,,,,,,,,15,,,59,64
43560,note_on,,1,0,6,,,,,,,,,,,,,,,1,,,76,64
43619,note_on,,59,0,7,,,,,,,,,,,,,,,2,,,59,0
43619,note_on,,59,0,11,,,,,,,,,,,,,,,13,,,59,0
43619,note_on,,59,0,12,,,,,,,,,,,,,,,15,,,59,0
43620,note_on,,1,0,11,,,,,,,,,,,,,,,13,,,57,64
43620,note_on,,1,0,12,,,,,,,,,,,,,,,15,,,57,64
43620,note_on,,1,0,7,,,,,,,,,,,,,,,2,,,57,64
43679,note_on,,119,0,10,,,,,,,,,,,,,,,12,,,69,0
43679,note_on,,0,0,12,,,,,,,,,,,,,,,15,,,72,0
43679,note_on,,119,0,9,,,,,,,,,,,,,,,11,,,76,0
43679,note_on,,0,0,12,,,,,,,,,,,,,,,15,,,69,0
43679,note_on,,0,0,12,,,,,,,,,,,,,,,15,,,57,0
43679,note_on,,119,0,6,,,,,,,,,,,,,,,1,,,76,0
43679,note_on,,59,0,7,,,,,,,,,,,,,,,2,,,57,0
43679,note_on,,59,0,12,,,,,,,,,,,,,,,15,,,76,0
43679,note_on,,59,0,11,,,,,,,,,,,,,,,13,,,57,0
43680,note_on,,0,0,12,,,,,,,,,,,,,,,15,,,66,64
43680,note_on,,0,0,12,,,,,,,,,,,,,,,15,,,69,64
43680,note_on,,1,0,11,,,,,,,,,,,,,,,13,,,62,64
43680,note_on,,1,0,7,,,,,,,,,,,,,,,2,,,62,64
43680,note_on,,1,0,9,,,,,,,,,,,,,,,11,,,78,64
43680,note_on,,1,0,12,,,,,,,,,,,,,,,15,,,62,64
43680,note_on,,1,0,10,,,,,,,,,,,,,,,12,,,69,64
43680,note_on,,1,0,6,,,,,,,,,,,,,,,1,,,78,64
43799,note_on,,359,0,5,,,,,,,,,,,,,,,0,,,84,0
43799,note_on,,119,0,10,,,,,,,,,,,,,,,12,,,69,0
43799,note_on,,119,0,12,,,,,,,,,,,,,,,15,,,69,0
43799,note_on,,359,0,8,,,,,,,,,,,,,,,10,,,84,0
43800,note_on,,1,0,8,,,,,,,,,,,,,,,10,,,83,64
43800,note_on,,1,0,5,,,,,,,,,,,,,,,0,,,83,64
43800,note_on,,1,0,10,,,,,,,,,,,,,,,12,,,71,64
43800,note_on,,1,0,12,,,,,,,,,,,,,,,15,,,71,64
43919,note_on,,239,0,7,,,,,,,,,,,,,,,2,,,62,0
43919,note_on,,239,0,11,,,,,,,,,,,,,,,13,,,62,0
43919,note_on,,239,0,9,,,,,,,,,,,,,,,11,,,78,0
43919,note_on,,239,0,6,,,,,,,,,,,,,,,1,,,78,0
43919,note_on,,119,0,10,,,,,,,,,,,,,,,12,,,71,0
43919,note_on,,119,0,12,,,,,,,,,,,,,,,15,,,62,0
43919,note_on,,0,0,12,,,,,,,,,,,,,,,15,,,66,0
43920,note_on,,1,0,6,,,,,,,,,,,,,,,1,,,76,64
43920,note_on,,1,0,7,,,,,,,,,,,,,,,2,,,60,64
43920,note_on,,1,0,12,,,,,,,,,,,,,,,15,,,60,64
43920,note_on,,1,0,11,,,,,,,,,,,,,,,13,,,60,64
43920,note_on,,0,0,12,,,,,,,,,,,,,,,15,,,64,64
43920,note_on,,0,0,12,,,,,,,,,,,,,,,15,,,76,64
43920,note_on,,1,0,10,,,,,,,,,,,,,,,12,,,72,64
43920,note_on,,1,0,9,,,,,,,,,,,,,,,11,,,76,64
44039,note_on,,239,0,8,,,,,,,,,,,,,,,10,,,83,0
44039,note_on,,239,0,5,,,,,,,,,,,,,,,0,,,83,0
44039,note_on,,119,0,10,,,,,,,,,,,,,,,12,,,72,0
44039,note_on,,119,0,12,,,,,,,,,,,,,,,15,,,71,0
44040,note_on,,1,0,8,,,,,,,,,,,,,,,10,,,81,64
44040,note_on,,1,0,12,,,,,,,,,,,,,,,15,,,69,64
44040,note_on,,1,0,5,,,,,,,,,,,,,,,0,,,81,64
44040,note_on,,1,0,10,,,,,,,,,,,,,,,12,,,64,64
44159,note_on,,239,0,6,,,,,,,,,,,,,,,1,,,76,0
44159,note_on,,0,0,12,,,,,,,,,,,,,,,15,,,69,0
44159,note_on,,119,0,12,,,,,,,,,,,,,,,15,,,60,0
44159,note_on,,239,0,9,,,,,,,,,,,,,,,11,,,76,0
44159,note_on,,119,0,10,,,,,,,,,,,,,,,12,,,64,0
44159,note_on,,239,0,11,,,,,,,,,,,,,,,13,,,60,0
44159,note_on,,0,0,12,,,,,,,,,,,,,,,15,,,76,0
44159,note_on,,119,0,5,,,,,,,,,,,,,,,0,,,81,0
44159,note_on,,119,0,8,,,,,,,,,,,,,,,10,,,81,0
44159,note_on,,239,0,7,,,,,,,,,,,,,,,2,,,60,0
44159,note_on,,0,0,12,,,,,,,,,,,,,,,15,,,64,0
44160,note_on,,1,0,6,,,,,,,,,,,,,,,1,,,75,64
44160,note_on,,1,0,8,,,,,,,,,,,,,,,10,,,83,64
44160,note_on,,1,0,11,,,,,,,,,,,,,,,13,,,59,64
44160,note_on,,1,0,5,,,,,,,,,,,,,,,0,,,83,64
44160,note_on,,1,0,7,,,,,,,,,,,,,,,2,,,59,64
44160,note_on,,0,0,12,,,,,,,,,,,,,,,15,,,66,64
44160,note_on,,0,0,12,,,,,,,,,,,,,,,15,,,71,64
44160,note_on,,0,0,12,,,,,,,,,,,,,,,15,,,75,64
44160,note_on,,1,0,12,,,,,,,,,,,,,,,15,,,59,64
44160,note_on,,1,0,9,,,,,,,,,,,,,,,11,,,75,64
44160,note_on,,1,0,10,,,,,,,,,,,,,,,12,,,66,64
44279,note_on,,119,0,5,,,,,,,,,,,,,,,0,,,83,0
44279,note_on,,119,0,8,,,,,,,,,,,,,,,10,,,83,0
44280,note_on,,1,0,8,,,,,,,,,,,,,,,10,,,78,64
44280,note_on,,1,0,5,,,,,,,,,,,,,,,0,,,78,64
44399,note_on,,0,0,12,,,,,,,,,,,,,,,15,,,71,0
44399,note_on,,0,0,12,,,,,,,,,,,,,,,15,,,66,0
44399,note_on,,239,0,11,,,,,,,,,,,,,,,13,,,59,0
44399,note_on,,119,0,8,,,,,,,,,,,,,,,10,,,78,0
44399,note_on,,119,0,5,,,,,,,,,,,,,,,0,,,78,0
44399,note_on,,239,0,6,,,,,,,,,,,,,,,1,,,75,0
44399,note_on,,239,0,7,,,,,,,,,,,,,,,2,,,59,0
44399,note_on,,239,0,9,,,,,,,,,,,,,,,11,,,75,0
44399,note_on,,239,0,10,,,,,,,,,,,,,,,12,,,66,0
44399,note_on,,239,0,12,,,,,,,,,,,,,,,15,,,59,0
44399,note_on,,0,0,12,,,,,,,,,,,,,,,15,,,75,0
44400,note_on,,1,0,8,,,,,,,,,,,,,,,10,,,79,64
44400,note_on,,1,0,6,,,,,,,,,,,,,,,1,,,71,64
44400,note_on,,1,0,9,,,,,,,,,,,,,,,11,,,71,64
44400,note_on,,1,0,5,,,,,,,,,,,,,,,0,,,79,64
44400,note_on,,1,0,10,,,,,,,,,,,,,,,12,,,64,64
44459,note_on,,59,0,9,,,,,,,,,,,,,,,11,,,71,0
44459,note_on,,59,0,6,,,,,,,,,,,,,,,1,,,71,0
44460,note_on,,61,0,11,,,,,,,,,,,,,,,13,,,52,64
44460,note_on,,0,0,12,,,,,,,,,,,,,,,15,,,67,64
44460,note_on,,0,0,12,,,,,,,,,,,,,,,15,,,76,64
44460,note_on,,61,0,7,,,,,,,,,,,,,,,2,,,52,64
44460,note_on,,61,0,12,,,,,,,,,,,,,,,15,,,52,64
44460,note_on,,1,0,6,,,,,,,,,,,,,,,1,,,67,64
44460,note_on,,1,0,9,,,,,,,,,,,,,,,11,,,67,64
44519,note_on,,59,0,7,,,,,,,,,,,,,,,2,,,52,0
44519,note_on,,59,0,11,,,,,,,,,,,,,,,13,,,52,0
44519,note_on,,119,0,8,,,,,,,,,,,,,,,10,,,79,0
44519,note_on,,59,0,9,,,,,,,,,,,,,,,11,,,67,0
44519,note_on,,59,0,12,,,,,,,,,,,,,,,15,,,52,0
44519,note_on,,0,0,12,,,,,,,,,,,,,,,15,,,67,0
44519,note_on,,59,0,6,,,,,,,,,,,,,,,1,,,67,0
44519,note_on,,119,0,5,,,,,,,,,,,,,,,0,,,79,0
44520,note_on,,1,0,11,,,,,,,,,,,,,,,13,,,54,64
44520,note_on,,1,0,9,,,,,,,,,,,,,,,11,,,69,64
44520,note_on,,1,0,8,,,,,,,,,,,,,,,10,,,76,64
44520,note_on,,1,0,5,,,,,,,,,,,,,,,0,,,76,64
44520,note_on,,1,0,6,,,,,,,,,,,,,,,1,,,69,64
44520,note_on,,0,0,12,,,,,,,,,,,,,,,15,,,69,64
44520,note_on,,1,0,7,,,,,,,,,,,,,,,2,,,54,64
44520,note_on,,1,0,12,,,,,,,,,,,,,,,15,,,54,64
44579,note_on,,59,0,12,,,,,,,,,,,,,,,15,,,54,0
44579,note_on,,59,0,11,,,,,,,,,,,,,,,13,,,54,0
44579,note_on,,59,0,6,,,,,,,,,,,,,,,1,,,69,0
44579,note_on,,59,0,7,,,,,,,,,,,,,,,2,,,54,0
44579,note_on,,59,0,9,,,,,,,,,,,,,,,11,,,69,0
44579,note_on,,0,0,12,,,,,,,,,,,,,,,15,,,69,0
44580,note_on,,1,0,6,,,,,,,,,,,,,,,1,,,71,64
44580,note_on,,1,0,7,,,,,,,,,,,,,,,2,,,55,64
44580,note_on,,1,0,11,,,,,,,,,,,,,,,13,,,55,64
44580,note_on,,1,0,9,,,,,,,,,,,,,,,11,,,71,64
44580,note_on,,0,0,12,,,,,,,,,,,,,,,15,,,71,64
44580,note_on,,1,0,12,,,,,,,,,,,,,,,15,,,55,64
44639,note_on,,59,0,9,,,,,,,,,,,,,,,11,,,71,0
44639,note_on,,59,0,7,,,,,,,,,,,,,,,2,,,55,0
44639,note_on,,59,0,12,,,,,,,,,,,,,,,15,,,55,0
44639,note_on,,0,0,12,,,,,,,,,,,,,,,15,,,71,0
44639,note_on,,59,0,6,,,,,,,,,,,,,,,1,,,71,0
44639,note_on,,239,0,10,,,,,,,,,,,,,,,12,,,64,0
44639,note_on,,59,0,11,,,,,,,,,,,,,,,13,,,55,0
44640,note_on,,1,0,11,,,,,,,,,,,,,,,13,,,57,64
44640,note_on,,1,0,7,,,,,,,,,,,,,,,2,,,57,64
44640,note_on,,1,0,12,,,,,,,,,,,,,,,15,,,57,64
44640,note_on,,0,0,12,,,,,,,,,,,,,,,15,,,72,64
44640,note_on,,0,0,12,,,,,,,,,,,,,,,15,,,66,64
44640,note_on,,1,0,6,,,,,,,,,,,,,,,1,,,72,64
44640,note_on,,1,0,10,,,,,,,,,,,,,,,12,,,66,64
44640,note_on,,1,0,9,,,,,,,,,,,,,,,11,,,72,64
44699,note_on,,59,0,12,,,,,,,,,,,,,,,15,,,57,0
44699,note_on,,59,0,11,,,,,,,,,,,,,,,13,,,57,0
44699,note_on,,59,0,7,,,,,,,,,,,,,,,2,,,57,0
44700,note_on,,1,0,11,,,,,,,,,,,,,,,13,,,59,64
44700,note_on,,1,0,12,,,,,,,,,,,,,,,15,,,59,64
44700,note_on,,1,0,7,,,,,,,,,,,,,,,2,,,59,64
44759,note_on,,119,0,10,,,,,,,,,,,,,,,12,,,66,0
44759,note_on,,119,0,9,,,,,,,,,,,,,,,11,,,72,0
44759,note_on,,59,0,12,,,,,,,,,,,,,,,15,,,59,0
44759,note_on,,59,0,11,,,,,,,,,,,,,,,13,,,59,0
44759,note_on,,59,0,7,,,,,,,,,,,,,,,2,,,59,0
44759,note_on,,119,0,6,,,,,,,,,,,,,,,1,,,72,0
44760,note_on,,1,0,12,,,,,,,,,,,,,,,15,,,55,64
44760,note_on,,1,0,7,,,,,,,,,,,,,,,2,,,55,64
44760,note_on,,1,0,6,,,,,,,,,,,,,,,1,,,71,64
44760,note_on,,1,0,11,,,,,,,,,,,,,,,13,,,55,64
44760,note_on,,1,0,10,,,,,,,,,,,,,,,12,,,67,64
44760,note_on,,1,0,9,,,,,,,,,,,,,,,11,,,71,64
44819,note_on,,59,0,7,,,,,,,,,,,,,,,2,,,55,0
44819,note_on,,59,0,12,,,,,,,,,,,,,,,15,,,55,0
44819,note_on,,59,0,11,,,,,,,,,,,,,,,13,,,55,0
44820,note_on,,1,0,12,,,,,,,,,,,,,,,15,,,57,64
44820,note_on,,1,0,11,,,,,,,,,,,,,,,13,,,57,64
44820,note_on,,1,0,7,,,,,,,,,,,,,,,2,,,57,64
44879,note_on,,59,0,11,,,,,,,,,,,,,,,13,,,57,0
44879,note_on,,59,0,12,,,,,,,,,,,,,,,15,,,76,0
44879,note_on,,0,0,12,,,,,,,,,,,,,,,15,,,72,0
44879,note_on,,0,0,12,,,,,,,,,,,,,,,15,,,66,0
44879,note_on,,0,0,12,,,,,,,,,,,,,,,15,,,57,0
44879,note_on,,119,0,6,,,,,,,,,,,,,,,1,,,71,0
44879,note_on,,359,0,8,,,,,,,,,,,,,,,10,,,76,0
44879,note_on,,359,0,5,,,,,,,,,,,,,,,0,,,76,0
44879,note_on,,119,0,10,,,,,,,,,,,,,,,12,,,67,0
44879,note_on,,119,0,9,,,,,,,,,,,,,,,11,,,71,0
44879,note_on,,59,0,7,,,,,,,,,,,,,,,2,,,57,0
44880,note_on,,0,0,12,,,,,,,,,,,,,,,15,,,75,64
44880,note_on,,1,0,5,,,,,,,,,,,,,,,0,,,75,64
44880,note_on,,1,0,9,,,,,,,,,,,,,,,11,,,69,64
44880,note_on,,1,0,10,,,,,,,,,,,,,,,12,,,69,64
44880,note_on,,0,0,12,,,,,,,,,,,,,,,15,,,66,64
44880,note_on,,1,0,12,,,,,,,,,,,,,,,15,,,54,64
44880,note_on,,1,0,8,,,,,,,,,,,,,,,10,,,75,64
44880,note_on,,0,0,12,,,,,,,,,,,,,,,15,,,69,64
44880,note_on,,1,0,7,,,,,,,,,,,,,,,2,,,54,64
44880,note_on,,1,0,6,,,,,,,,,,,,,,,1,,,69,64
44880,note_on,,1,0,11,,,,,,,,,,,,,,,13,,,54,64
44939,note_on,,59,0,11,,,,,,,,,,,,,,,13,,,54,0
44939,note_on,,59,0,12,,,,,,,,,,,,,,,15,,,54,0
44939,note_on,,59,0,7,,,,,,,,,,,,,,,2,,,54,0
44940,note_on,,1,0,12,,,,,,,,,,,,,,,15,,,59,64
44940,note_on,,1,0,11,,,,,,,,,,,,,,,13,,,59,64
44940,note_on,,1,0,7,,,,,,,,,,,,,,,2,,,59,64
44999,note_on,,119,0,9,,,,,,,,,,,,,,,11,,,69,0
44999,note_on,,59,0,7,,,,,,,,,,,,,,,2,,,59,0
44999,note_on,,59,0,11,,,,,,,,,,,,,,,13,,,59,0
44999,note_on,,59,0,12,,,,,,,,,,,,,,,15,,,59,0
44999,note_on,,119,0,6,,,,,,,,,,,,,,,1,,,69,0
44999,note_on,,119,0,10,,,,,,,,,,,,,,,12,,,69,0
45000,note_on,,1,0,7,,,,,,,,,,,,,,,2,,,57,64
45000,note_on,,1,0,12,,,,,,,,,,,,,,,15,,,57,64
45000,note_on,,1,0,9,,,,,,,,,,,,,,,11,,,66,64
45000,note_on,,1,0,10,,,,,,,,,,,,,,,12,,,71,64
45000,note_on,,1,0,6,,,,,,,,,,,,,,,1,,,66,64
45000,note_on,,1,0,11,,,,,,,,,,,,,,,13,,,57,64
45059,note_on,,59,0,7,,,,,,,,,,,,,,,2,,,57,0
45059,note_on,,59,0,12,,,,,,,,,,,,,,,15,,,57,0
45059,note_on,,59,0,11,,,,,,,,,,,,,,,13,,,57,0
45060,note_on,,1,0,12,,,,,,,,,,,,,,,15,,,59,64
45060,note_on,,1,0,7,,,,,,,,,,,,,,,2,,,59,64
45060,note_on,,1,0,11,,,,,,,,,,,,,,,13,,,59,64
45119,note_on,,59,0,12,,,,,,,,,,,,,,,15,,,75,0
45119,note_on,,0,0,12,,,,,,,,,,,,,,,15,,,59,0
45119,note_on,,239,0,5,,,,,,,,,,,,,,,0,,,75,0
45119,note_on,,119,0,6,,,,,,,,,,,,,,,1,,,66,0
45119,note_on,,59,0,7,,,,,,,,,,,,,,,2,,,59,0
45119,note_on,,119,0,10,,,,,,,,,,,,,,,12,,,71,0
45119,note_on,,59,0,11,,,,,,,,,,,,,,,13,,,59,0
45119,note_on,,119,0,9,,,,,,,,,,,,,,,11,,,66,0
45119,note_on,,239,0,8,,,,,,,,,,,,,,,10,,,75,0
45119,note_on,,0,0,12,,,,,,,,,,,,,,,15,,,69,0
45119,note_on,,0,0,12,,,,,,,,,,,,,,,15,,,66,0
45120,note_on,,1,0,10,,,,,,,,,,,,,,,12,,,59,64
45120,note_on,,1,0,9,,,,,,,,,,,,,,,11,,,71,64
45120,note_on,,1,0,11,,,,,,,,,,,,,,,13,,,55,64
45120,note_on,,1,0,7,,,,,,,,,,,,,,,2,,,55,64
45120,note_on,,1,0,5,,,,,,,,,,,,,,,0,,,76,64
45120,note_on,,1,0,12,,,,,,,,,,,,,,,15,,,55,64
45120,note_on,,1,0,6,,,,,,,,,,,,,,,1,,,71,64
45120,note_on,,0,0,12,,,,,,,,,,,,,,,15,,,76,64
45120,note_on,,0,0,12,,,,,,,,,,,,,,,15,,,71,64
45120,note_on,,0,0,12,,,,,,,,,,,,,,,15,,,64,64
45120,note_on,,1,0,8,,,,,,,,,,,,,,,10,,,76,64
45179,note_on,,59,0,6,,,,,,,,,,,,,,,1,,,71,0
45179,note_on,,59,0,9,,,,,,,,,,,,,,,11,,,71,0
45180,note_on,,1,0,6,,,,,,,,,,,,,,,1,,,67,64
45180,note_on,,1,0,9,,,,,,,,,,,,,,,11,,,67,64
45239,note_on,,59,0,9,,,,,,,,,,,,,,,11,,,67,0
45239,note_on,,119,0,8,,,,,,,,,,,,,,,10,,,76,0
45239,note_on,,119,0,5,,,,,,,,,,,,,,,0,,,76,0
45239,note_on,,59,0,6,,,,,,,,,,,,,,,1,,,67,0
45239,note_on,,119,0,10,,,,,,,,,,,,,,,12,,,59,0
45239,note_on,,119,0,11,,,,,,,,,,,,,,,13,,,55,0
45239,note_on,,119,0,12,,,,,,,,,,,,,,,15,,,55,0
45239,note_on,,119,0,7,,,,,,,,,,,,,,,2,,,55,0
45240,note_on,,1,0,11,,,,,,,,,,,,,,,13,,,52,64
45240,note_on,,1,0,7,,,,,,,,,,,,,,,2,,,52,64
45240,note_on,,1,0,5,,,,,,,,,,,,,,,0,,,71,64
45240,note_on,,1,0,9,,,,,,,,,,,,,,,11,,,66,64
45240,note_on,,1,0,6,,,,,,,,,,,,,,,1,,,66,64
45240,note_on,,1,0,8,,,,,,,,,,,,,,,10,,,71,64
45240,note_on,,1,0,10,,,,,,,,,,,,,,,12,,,64,64
45240,note_on,,1,0,12,,,,,,,,,,,,,,,15,,,52,64
45299,note_on,,59,0,6,,,,,,,,,,,,,,,1,,,66,0
45299,note_on,,59,0,9,,,,,,,,,,,,,,,11,,,66,0
45300,note_on,,1,0,6,,,,,,,,,,,,,,,1,,,67,64
45300,note_on,,1,0,9,,,,,,,,,,,,,,,11,,,67,64
45359,note_on,,59,0,9,,,,,,,,,,,,,,,11,,,67,0
45359,note_on,,0,0,12,,,,,,,,,,,,,,,15,,,52,0
45359,note_on,,119,0,8,,,,,,,,,,,,,,,10,,,71,0
45359,note_on,,119,0,11,,,,,,,,,,,,,,,13,,,52,0
45359,note_on,,0,0,12,,,,,,,,,,,,,,,15,,,64,0
45359,note_on,,0,0,12,,,,,,,,,,,,,,,15,,,71,0
45359,note_on,,119,0,5,,,,,,,,,,,,,,,0,,,71,0
45359,note_on,,119,0,7,,,,,,,,,,,,,,,2,,,52,0
45359,note_on,,59,0,6,,,,,,,,,,,,,,,1,,,67,0
45359,note_on,,119,0,12,,,,,,,,,,,,,,,15,,,76,0
45359,note_on,,119,0,10,,,,,,,,,,,,,,,12,,,64,0
45360,note_on,,1,0,6,,,,,,,,,,,,,,,1,,,64,64
45360,note_on,,1,0,5,,,,,,,,,,,,,,,0,,,72,64
45360,note_on,,1,0,10,,,,,,,,,,,,,,,12,,,64,64
45360,note_on,,1,0,11,,,,,,,,,,,,,,,13,,,57,64
45360,note_on,,1,0,9,,,,,,,,,,,,,,,11,,,64,64
45360,note_on,,1,0,8,,,,,,,,,,,,,,,10,,,72,64
45360,note_on,,0,0,12,,,,,,,,,,,,,,,15,,,72,64
45360,note_on,,0,0,12,,,,,,,,,,,,,,,15,,,69,64
45360,note_on,,1,0,12,,,,,,,,,,,,,,,15,,,57,64
45360,note_on,,0,0,12,,,,,,,,,,,,,,,15,,,64,64
45360,note_on,,1,0,7,,,,,,,,,,,,,,,2,,,57,64
45419,note_on,,59,0,6,,,,,,,,,,,,,,,1,,,64,0
45419,note_on,,59,0,9,,,,,,,,,,,,,,,11,,,64,0
45419,note_on,,59,0,10,,,,,,,,,,,,,,,12,,,64,0
45420,note_on,,1,0,10,,,,,,,,,,,,,,,12,,,60,64
45420,note_on,,1,0,6,,,,,,,,,,,,,,,1,,,69,64
45420,note_on,,1,0,9,,,,,,,,,,,,,,,11,,,69,64
45479,note_on,,59,0,10,,,,,,,,,,,,,,,12,,,60,0
45479,note_on,,59,0,6,,,,,,,,,,,,,,,1,,,69,0
45479,note_on,,59,0,9,,,,,,,,,,,,,,,11,,,69,0
45480,note_on,,1,0,6,,,,,,,,,,,,,,,1,,,67,64
45480,note_on,,1,0,9,,,,,,,,,,,,,,,11,,,67,64
45480,note_on,,1,0,10,,,,,,,,,,,,,,,12,,,59,64
45539,note_on,,59,0,6,,,,,,,,,,,,,,,1,,,67,0
45539,note_on,,59,0,10,,,,,,,,,,,,,,,12,,,59,0
45539,note_on,,59,0,9,,,,,,,,,,,,,,,11,,,67,0
45540,note_on,,1,0,6,,,,,,,,,,,,,,,1,,,69,64
45540,note_on,,1,0,10,,,,,,,,,,,,,,,12,,,60,64
45540,note_on,,1,0,9,,,,,,,,,,,,,,,11,,,69,64
45599,note_on,,0,0,12,,,,,,,,,,,,,,,15,,,69,0
45599,note_on,,0,0,12,,,,,,,,,,,,,,,15,,,64,0
45599,note_on,,59,0,10,,,,,,,,,,,,,,,12,,,60,0
45599,note_on,,239,0,7,,,,,,,,,,,,,,,2,,,57,0
45599,note_on,,239,0,12,,,,,,,,,,,,,,,15,,,57,0
45599,note_on,,59,0,9,,,,,,,,,,,,,,,11,,,69,0
45599,note_on,,239,0,11,,,,,,,,,,,,,,,13,,,57,0
45599,note_on,,59,0,6,,,,,,,,,,,,,,,1,,,69,0
45600,note_on,,1,0,12,,,,,,,,,,,,,,,15,,,50,64
45600,note_on,,1,0,9,,,,,,,,,,,,,,,11,,,66,64
45600,note_on,,0,0,12,,,,,,,,,,,,,,,15,,,57,64
45600,note_on,,0,0,12,,,,,,,,,,,,,,,15,,,66,64
45600,note_on,,1,0,10,,,,,,,,,,,,,,,12,,,57,64
45600,note_on,,1,0,6,,,,,,,,,,,,,,,1,,,66,64
45600,note_on,,1,0,7,,,,,,,,,,,,,,,2,,,50,64
45600,note_on,,1,0,11,,,,,,,,,,,,,,,13,,,50,64
45659,note_on,,59,0,6,,,,,,,,,,,,,,,1,,,66,0
45659,note_on,,59,0,9,,,,,,,,,,,,,,,11,,,66,0
45660,note_on,,1,0,6,,,,,,,,,,,,,,,1,,,69,64
45660,note_on,,1,0,9,,,,,,,,,,,,,,,11,,,69,64
45719,note_on,,119,0,7,,,,,,,,,,,,,,,2,,,50,0
45719,note_on,,59,0,6,,,,,,,,,,,,,,,1,,,69,0
45719,note_on,,119,0,10,,,,,,,,,,,,,,,12,,,57,0
45719,note_on,,119,0,12,,,,,,,,,,,,,,,15,,,50,0
45719,note_on,,0,0,12,,,,,,,,,,,,,,,15,,,66,0
45719,note_on,,59,0,9,,,,,,,,,,,,,,,11,,,69,0
45719,note_on,,119,0,11,,,,,,,,,,,,,,,13,,,50,0
45720,note_on,,1,0,11,,,,,,,,,,,,,,,13,,,54,64
45720,note_on,,1,0,6,,,,,,,,,,,,,,,1,,,67,64
45720,note_on,,1,0,7,,,,,,,,,,,,,,,2,,,54,64
45720,note_on,,1,0,10,,,,,,,,,,,,,,,12,,,62,64
45720,note_on,,1,0,12,,,,,,,,,,,,,,,15,,,54,64
45720,note_on,,0,0,12,,,,,,,,,,,,,,,15,,,69,64
45720,note_on,,1,0,9,,,,,,,,,,,,,,,11,,,67,64
45779,note_on,,59,0,6,,,,,,,,,,,,,,,1,,,67,0
45779,note_on,,59,0,9,,,,,,,,,,,,,,,11,,,67,0
45780,note_on,,1,0,6,,,,,,,,,,,,,,,1,,,69,64
45780,note_on,,1,0,9,,,,,,,,,,,,,,,11,,,69,64
45839,note_on,,0,0,12,,,,,,,,,,,,,,,15,,,57,0
45839,note_on,,119,0,11,,,,,,,,,,,,,,,13,,,54,0
45839,note_on,,479,0,8,,,,,,,,,,,,,,,10,,,72,0
45839,note_on,,59,0,9,,,,,,,,,,,,,,,11,,,69,0
45839,note_on,,119,0,7,,,,,,,,,,,,,,,2,,,54,0
45839,note_on,,479,0,5,,,,,,,,,,,,,,,0,,,72,0
45839,note_on,,59,0,6,,,,,,,,,,,,,,,1,,,69,0
45839,note_on,,0,0,12,,,,,,,,,,,,,,,15,,,69,0
45839,note_on,,119,0,12,,,,,,,,,,,,,,,15,,,72,0
45839,note_on,,0,0,12,,,,,,,,,,,,,,,15,,,54,0
45840,note_on,,1,0,9,,,,,,,,,,,,,,,11,,,62,64
45840,note_on,,1,0,11,,,,,,,,,,,,,,,13,,,55,64
45840,note_on,,1,0,6,,,,,,,,,,,,,,,1,,,62,64
45840,note_on,,1,0,5,,,,,,,,,,,,,,,0,,,71,64
45840,note_on,,1,0,8,,,,,,,,,,,,,,,10,,,71,64
45840,note_on,,1,0,7,,,,,,,,,,,,,,,2,,,55,64
45840,note_on,,0,0,12,,,,,,,,,,,,,,,15,,,62,64
45840,note_on,,0,0,12,,,,,,,,,,,,,,,15,,,67,64
45840,note_on,,1,0,12,,,,,,,,,,,,,,,15,,,55,64
45840,note_on,,0,0,12,,,,,,,,,,,,,,,15,,,59,64
45840,note_on,,0,0,12,,,,,,,,,,,,,,,15,,,71,64
45899,note_on,,59,0,6,,,,,,,,,,,,,,,1,,,62,0
45899,note_on,,59,0,9,,,,,,,,,,,,,,,11,,,62,0
45899,note_on,,179,0,10,,,,,,,,,,,,,,,12,,,62,0
45900,note_on,,1,0,9,,,,,,,,,,,,,,,11,,,67,64
45900,note_on,,1,0,10,,,,,,,,,,,,,,,12,,,59,64
45900,note_on,,1,0,6,,,,,,,,,,,,,,,1,,,67,64
45959,note_on,,59,0,9,,,,,,,,,,,,,,,11,,,67,0
45959,note_on,,119,0,11,,,,,,,,,,,,,,,13,,,55,0
45959,note_on,,59,0,6,,,,,,,,,,,,,,,1,,,67,0
45959,note_on,,119,0,7,,,,,,,,,,,,,,,2,,,55,0
45959,note_on,,59,0,10,,,,,,,,,,,,,,,12,,,59,0
45959,note_on,,119,0,12,,,,,,,,,,,,,,,15,,,55,0
45959,note_on,,0,0,12,,,,,,,,,,,,,,,15,,,59,0
45960,note_on,,1,0,9,,,,,,,,,,,,,,,11,,,66,64
45960,note_on,,1,0,11,,,,,,,,,,,,,,,13,,,43,64
45960,note_on,,1,0,12,,,,,,,,,,,,,,,15,,,43,64
45960,note_on,,0,0,12,,,,,,,,,,,,,,,15,,,55,64
45960,note_on,,1,0,7,,,,,,,,,,,,,,,2,,,43,64
45960,note_on,,1,0,10,,,,,,,,,,,,,,,12,,,57,64
45960,note_on,,1,0,6,,,,,,,,,,,,,,,1,,,66,64
46019,note_on,,59,0,6,,,,,,,,,,,,,,,1,,,66,0
46019,note_on,,59,0,10,,,,,,,,,,,,,,,12,,,57,0
46019,note_on,,59,0,9,,,,,,,,,,,,,,,11,,,66,0
46020,note_on,,1,0,6,,,,,,,,,,,,,,,1,,,67,64
46020,note_on,,1,0,10,,,,,,,,,,,,,,,12,,,59,64
46020,note_on,,1,0,9,,,,,,,,,,,,,,,11,,,67,64
46079,note_on,,119,0,7,,,,,,,,,,,,,,,2,,,43,0
46079,note_on,,59,0,9,,,,,,,,,,,,,,,11,,,67,0
46079,note_on,,119,0,11,,,,,,,,,,,,,,,13,,,43,0
46079,note_on,,59,0,10,,,,,,,,,,,,,,,12,,,59,0
46079,note_on,,0,0,12,,,,,,,,,,,,,,,15,,,55,0
46079,note_on,,119,0,12,,,,,,,,,,,,,,,15,,,71,0
46079,note_on,,59,0,6,,,,,,,,,,,,,,,1,,,67,0
46079,note_on,,0,0,12,,,,,,,,,,,,,,,15,,,43,0
46079,note_on,,0,0,12,,,,,,,,,,,,,,,15,,,62,0
46079,note_on,,0,0,12,,,,,,,,,,,,,,,15,,,67,0
46080,note_on,,1,0,12,,,,,,,,,,,,,,,15,,,48,64
46080,note_on,,1,0,9,,,,,,,,,,,,,,,11,,,64,64
46080,note_on,,0,0,12,,,,,,,,,,,,,,,15,,,55,64
46080,note_on,,1,0,11,,,,,,,,,,,,,,,13,,,48,64
46080,note_on,,1,0,7,,,,,,,,,,,,,,,2,,,48,64
46080,note_on,,0,0,12,,,,,,,,,,,,,,,15,,,64,64
46080,note_on,,0,0,12,,,,,,,,,,,,,,,15,,,76,64
46080,note_on,,1,0,10,,,,,,,,,,,,,,,12,,,55,64
46080,note_on,,1,0,6,,,,,,,,,,,,,,,1,,,64,64
46139,note_on,,299,0,8,,,,,,,,,,,,,,,10,,,71,0
46139,note_on,,299,0,5,,,,,,,,,,,,,,,0,,,71,0
46140,note_on,,1,0,8,,,,,,,,,,,,,,,10,,,72,64
46140,note_on,,1,0,5,,,,,,,,,,,,,,,0,,,72,64
46199,note_on,,119,0,10,,,,,,,,,,,,,,,12,,,55,0
46199,note_on,,59,0,8,,,,,,,,,,,,,,,10,,,72,0
46199,note_on,,59,0,5,,,,,,,,,,,,,,,0,,,72,0
46200,note_on,,1,0,10,,,,,,,,,,,,,,,12,,,67,64
46200,note_on,,1,0,8,,,,,,,,,,,,,,,10,,,71,64
46200,note_on,,1,0,5,,,,,,,,,,,,,,,0,,,71,64
46259,note_on,,59,0,8,,,,,,,,,,,,,,,10,,,71,0
46259,note_on,,59,0,5,,,,,,,,,,,,,,,0,,,71,0
46260,note_on,,1,0,8,,,,,,,,,,,,,,,10,,,72,64
46260,note_on,,1,0,5,,,,,,,,,,,,,,,0,,,72,64
46319,note_on,,0,0,12,,,,,,,,,,,,,,,15,,,64,0
46319,note_on,,119,0,10,,,,,,,,,,,,,,,12,,,67,0
46319,note_on,,239,0,11,,,,,,,,,,,,,,,13,,,48,0
46319,note_on,,239,0,7,,,,,,,,,,,,,,,2,,,48,0
46319,note_on,,59,0,8,,,,,,,,,,,,,,,10,,,72,0
46319,note_on,,239,0,12,,,,,,,,,,,,,,,15,,,48,0
46319,note_on,,0,0,12,,,,,,,,,,,,,,,15,,,55,0
46319,note_on,,59,0,5,,,,,,,,,,,,,,,0,,,72,0
46320,note_on,,1,0,5,,,,,,,,,,,,,,,0,,,69,64
46320,note_on,,1,0,7,,,,,,,,,,,,,,,2,,,60,64
46320,note_on,,1,0,8,,,,,,,,,,,,,,,10,,,69,64
46320,note_on,,1,0,11,,,,,,,,,,,,,,,13,,,60,64
46320,note_on,,1,0,12,,,,,,,,,,,,,,,15,,,60,64
46320,note_on,,0,0,12,,,,,,,,,,,,,,,15,,,69,64
46320,note_on,,1,0,10,,,,,,,,,,,,,,,12,,,69,64
46379,note_on,,299,0,6,,,,,,,,,,,,,,,1,,,64,0
46379,note_on,,299,0,9,,,,,,,,,,,,,,,11,,,64,0
46379,note_on,,59,0,8,,,,,,,,,,,,,,,10,,,69,0
46379,note_on,,59,0,5,,,,,,,,,,,,,,,0,,,69,0
46380,note_on,,1,0,8,,,,,,,,,,,,,,,10,,,78,64
46380,note_on,,1,0,6,,,,,,,,,,,,,,,1,,,69,64
46380,note_on,,1,0,9,,,,,,,,,,,,,,,11,,,69,64
46380,note_on,,1,0,5,,,,,,,,,,,,,,,0,,,78,64
46439,note_on,,59,0,9,,,,,,,,,,,,,,,11,,,69,0
46439,note_on,,59,0,5,,,,,,,,,,,,,,,0,,,78,0
46439,note_on,,59,0,6,,,,,,,,,,,,,,,1,,,69,0
46439,note_on,,59,0,8,,,,,,,,,,,,,,,10,,,78,0
46440,note_on,,1,0,5,,,,,,,,,,,,,,,0,,,76,64
46440,note_on,,1,0,6,,,,,,,,,,,,,,,1,,,67,64
46440,note_on,,1,0,8,,,,,,,,,,,,,,,10,,,76,64
46440,note_on,,1,0,9,,,,,,,,,,,,,,,11,,,67,64
46499,note_on,,59,0,6,,,,,,,,,,,,,,,1,,,67,0
46499,note_on,,179,0,10,,,,,,,,,,,,,,,12,,,69,0
46499,note_on,,59,0,5,,,,,,,,,,,,,,,0,,,76,0
46499,note_on,,59,0,9,,,,,,,,,,,,,,,11,,,67,0
46499,note_on,,59,0,8,,,,,,,,,,,,,,,10,,,76,0
46500,note_on,,1,0,5,,,,,,,,,,,,,,,0,,,78,64
46500,note_on,,1,0,10,,,,,,,,,,,,,,,12,,,69,64
46500,note_on,,1,0,8,,,,,,,,,,,,,,,10,,,78,64
46500,note_on,,1,0,9,,,,,,,,,,,,,,,11,,,69,64
46500,note_on,,1,0,6,,,,,,,,,,,,,,,1,,,69,64
46559,note_on,,239,0,7,,,,,,,,,,,,,,,2,,,60,0
46559,note_on,,59,0,6,,,,,,,,,,,,,,,1,,,69,0
46559,note_on,,0,0,12,,,,,,,,,,,,,,,15,,,60,0
46559,note_on,,59,0,8,,,,,,,,,,,,,,,10,,,78,0
46559,note_on,,59,0,5,,,,,,,,,,,,,,,0,,,78,0
46559,note_on,,239,0,11,,,,,,,,,,,,,,,13,,,60,0
46559,note_on,,59,0,9,,,,,,,,,,,,,,,11,,,69,0
46559,note_on,,0,0,12,,,,,,,,,,,,,,,15,,,69,0
46559,note_on,,59,0,10,,,,,,,,,,,,,,,12,,,69,0
46559,note_on,,239,0,12,,,,,,,,,,,,,,,15,,,76,0
46560,note_on,,0,0,12,,,,,,,,,,,,,,,15,,,71,64
46560,note_on,,1,0,8,,,,,,,,,,,,,,,10,,,75,64
46560,note_on,,0,0,12,,,,,,,,,,,,,,,15,,,66,64
46560,note_on,,1,0,6,,,,,,,,,,,,,,,1,,,71,64
46560,note_on,,1,0,7,,,,,,,,,,,,,,,2,,,59,64
46560,note_on,,0,0,12,,,,,,,,,,,,,,,15,,,75,64
46560,note_on,,1,0,10,,,,,,,,,,,,,,,12,,,66,64
46560,note_on,,1,0,9,,,,,,,,,,,,,,,11,,,71,64
46560,note_on,,1,0,12,,,,,,,,,,,,,,,15,,,59,64
46560,note_on,,1,0,11,,,,,,,,,,,,,,,13,,,59,64
46560,note_on,,1,0,5,,,,,,,,,,,,,,,0,,,75,64
46679,note_on,,119,0,8,,,,,,,,,,,,,,,10,,,75,0
46679,note_on,,119,0,5,,,,,,,,,,,,,,,0,,,75,0
46680,note_on,,1,0,5,,,,,,,,,,,,,,,0,,,83,64
46680,note_on,,1,0,8,,,,,,,,,,,,,,,10,,,83,64
46799,note_on,,239,0,11,,,,,,,,,,,,,,,13,,,59,0
46799,note_on,,239,0,7,,,,,,,,,,,,,,,2,,,59,0
46799,note_on,,239,0,6,,,,,,,,,,,,,,,1,,,71,0
46799,note_on,,119,0,8,,,,,,,,,,,,,,,10,,,83,0
46799,note_on,,119,0,5,,,,,,,,,,,,,,,0,,,83,0
46799,note_on,,239,0,9,,,,,,,,,,,,,,,11,,,71,0
46799,note_on,,0,0,12,,,,,,,,,,,,,,,15,,,66,0
46799,note_on,,0,0,12,,,,,,,,,,,,,,,15,,,71,0
46799,note_on,,0,0,12,,,,,,,,,,,,,,,15,,,75,0
46799,note_on,,239,0,12,,,,,,,,,,,,,,,15,,,59,0
46799,note_on,,239,0,10,,,,,,,,,,,,,,,12,,,66,0
46800,note_on,,1,0,5,,,,,,,,,,,,,,,0,,,79,64
46800,note_on,,1,0,8,,,,,,,,,,,,,,,10,,,79,64
46919,note_on,,119,0,8,,,,,,,,,,,,,,,10,,,79,0
46919,note_on,,119,0,5,,,,,,,,,,,,,,,0,,,79,0
46920,note_on,,1,0,5,,,,,,,,,,,,,,,0,,,78,64
46920,note_on,,1,0,8,,,,,,,,,,,,,,,10,,,78,64
46979,note_on,,59,0,8,,,,,,,,,,,,,,,10,,,78,0
46979,note_on,,59,0,5,,,,,,,,,,,,,,,0,,,78,0
46980,note_on,,1,0,5,,,,,,,,,,,,,,,0,,,76,64
46980,note_on,,1,0,8,,,,,,,,,,,,,,,10,,,76,64
47039,note_on,,59,0,5,,,,,,,,,,,,,,,0,,,76,0
47039,note_on,,59,0,8,,,,,,,,,,,,,,,10,,,76,0
47040,note_on,,1,0,5,,,,,,,,,,,,,,,0,,,78,64
47040,note_on,,1,0,8,,,,,,,,,,,,,,,10,,,78,64
47159,note_on,,119,0,8,,,,,,,,,,,,,,,10,,,78,0
47159,note_on,,119,0,5,,,,,,,,,,,,,,,0,,,78,0
47160,note_on,,361,0,9,,,,,,,,,,,,,,,11,,,71,64
47160,note_on,,361,0,6,,,,,,,,,,,,,,,1,,,71,64
47160,note_on,,0,0,12,,,,,,,,,,,,,,,15,,,67,64
47160,note_on,,361,0,11,,,,,,,,,,,,,,,13,,,64,64
47160,note_on,,361,0,7,,,,,,,,,,,,,,,2,,,64,64
47160,note_on,,0,0,12,,,,,,,,,,,,,,,15,,,71,64
47160,note_on,,361,0,12,,,,,,,,,,,,,,,15,,,64,64
47160,note_on,,1,0,8,,,,,,,,,,,,,,,10,,,71,64
47160,note_on,,361,0,10,,,,,,,,,,,,,,,12,,,67,64
47160,note_on,,1,0,5,,,,,,,,,,,,,,,0,,,71,64
47279,note_on,,0,0,12,,,,,,,,,,,,,,,15,,,67,0
47279,note_on,,119,0,12,,,,,,,,,,,,,,,15,,,64,0
47279,note_on,,119,0,5,,,,,,,,,,,,,,,0,,,71,0
47279,note_on,,119,0,10,,,,,,,,,,,,,,,12,,,67,0
47279,note_on,,119,0,9,,,,,,,,,,,,,,,11,,,71,0
47279,note_on,,119,0,11,,,,,,,,,,,,,,,13,,,64,0
47279,note_on,,119,0,6,,,,,,,,,,,,,,,1,,,71,0
47279,note_on,,119,0,7,,,,,,,,,,,,,,,2,,,64,0
47279,note_on,,119,0,8,,,,,,,,,,,,,,,10,,,71,0
47280,note_on,,1,0,12,,,,,,,,,,,,,,,15,,,62,64
47280,note_on,,1,0,9,,,,,,,,,,,,,,,11,,,71,64
47280,note_on,,0,0,12,,,,,,,,,,,,,,,15,,,66,64
47280,note_on,,1,0,8,,,,,,,,,,,,,,,10,,,78,64
47280,note_on,,1,0,6,,,,,,,,,,,,,,,1,,,71,64
47280,note_on,,1,0,10,,,,,,,,,,,,,,,12,,,66,64
47280,note_on,,1,0,7,,,,,,,,,,,,,,,2,,,62,64
47280,note_on,,1,0,5,,,,,,,,,,,,,,,0,,,78,64
47280,note_on,,1,0,11,,,,,,,,,,,,,,,13,,,62,64
47399,note_on,,0,0,12,,,,,,,,,,,,,,,15,,,62,0
47399,note_on,,0,0,12,,,,,,,,,,,,,,,15,,,66,0
47399,note_on,,119,0,9,,,,,,,,,,,,,,,11,,,71,0
47399,note_on,,119,0,10,,,,,,,,,,,,,,,12,,,66,0
47399,note_on,,119,0,8,,,,,,,,,,,,,,,10,,,78,0
47399,note_on,,119,0,7,,,,,,,,,,,,,,,2,,,62,0
47399,note_on,,119,0,5,,,,,,,,,,,,,,,0,,,78,0
47399,note_on,,119,0,11,,,,,,,,,,,,,,,13,,,62,0
47399,note_on,,119,0,12,,,,,,,,,,,,,,,15,,,71,0
47399,note_on,,119,0,6,,,,,,,,,,,,,,,1,,,71,0
47400,note_on,,0,0,12,,,,,,,,,,,,,,,15,,,71,64
47400,note_on,,1,0,10,,,,,,,,,,,,,,,12,,,64,64
47400,note_on,,1,0,7,,,,,,,,,,,,,,,2,,,60,64
47400,note_on,,0,0,12,,,,,,,,,,,,,,,15,,,62,64
47400,note_on,,1,0,12,,,,,,,,,,,,,,,15,,,60,64
47400,note_on,,1,0,6,,,,,,,,,,,,,,,1,,,71,64
47400,note_on,,0,0,12,,,,,,,,,,,,,,,15,,,68,64
47400,note_on,,1,0,8,,,,,,,,,,,,,,,10,,,80,64
47400,note_on,,1,0,5,,,,,,,,,,,,,,,0,,,80,64
47400,note_on,,1,0,9,,,,,,,,,,,,,,,11,,,71,64
47400,note_on,,1,0,11,,,,,,,,,,,,,,,13,,,60,64
47414,note_on,,14,0,5,,,,,,,,,,,,,,,0,,,80,0
47414,note_on,,14,0,8,,,,,,,,,,,,,,,10,,,80,0
47415,note_on,,1,0,8,,,,,,,,,,,,,,,10,,,81,64
47415,note_on,,1,0,5,,,,,,,,,,,,,,,0,,,81,64
47429,note_on,,14,0,8,,,,,,,,,,,,,,,10,,,81,0
47429,note_on,,14,0,5,,,,,,,,,,,,,,,0,,,81,0
47430,note_on,,1,0,5,,,,,,,,,,,,,,,0,,,80,64
47430,note_on,,1,0,8,,,,,,,,,,,,,,,10,,,80,64
47444,note_on,,14,0,8,,,,,,,,,,,,,,,10,,,80,0
47444,note_on,,14,0,5,,,,,,,,,,,,,,,0,,,80,0
47445,note_on,,1,0,8,,,,,,,,,,,,,,,10,,,81,64
47445,note_on,,1,0,5,,,,,,,,,,,,,,,0,,,81,64
47459,note_on,,59,0,11,,,,,,,,,,,,,,,13,,,60,0
47459,note_on,,59,0,7,,,,,,,,,,,,,,,2,,,60,0
47459,note_on,,14,0,8,,,,,,,,,,,,,,,10,,,81,0
47459,note_on,,59,0,12,,,,,,,,,,,,,,,15,,,60,0
47459,note_on,,14,0,5,,,,,,,,,,,,,,,0,,,81,0
47460,note_on,,1,0,7,,,,,,,,,,,,,,,2,,,59,64
47460,note_on,,1,0,12,,,,,,,,,,,,,,,15,,,59,64
47460,note_on,,1,0,8,,,,,,,,,,,,,,,10,,,80,64
47460,note_on,,1,0,11,,,,,,,,,,,,,,,13,,,59,64
47460,note_on,,1,0,5,,,,,,,,,,,,,,,0,,,80,64
47474,note_on,,14,0,8,,,,,,,,,,,,,,,10,,,80,0
47474,note_on,,14,0,5,,,,,,,,,,,,,,,0,,,80,0
47475,note_on,,1,0,5,,,,,,,,,,,,,,,0,,,81,64
47475,note_on,,1,0,8,,,,,,,,,,,,,,,10,,,81,64
47489,note_on,,14,0,5,,,,,,,,,,,,,,,0,,,81,0
47489,note_on,,14,0,8,,,,,,,,,,,,,,,10,,,81,0
47490,note_on,,1,0,5,,,,,,,,,,,,,,,0,,,78,64
47490,note_on,,1,0,8,,,,,,,,,,,,,,,10,,,78,64
47504,note_on,,14,0,5,,,,,,,,,,,,,,,0,,,78,0
47504,note_on,,14,0,8,,,,,,,,,,,,,,,10,,,78,0
47505,note_on,,1,0,8,,,,,,,,,,,,,,,10,,,80,64
47505,note_on,,1,0,5,,,,,,,,,,,,,,,0,,,80,64
47519,note_on,,59,0,7,,,,,,,,,,,,,,,2,,,59,0
47519,note_on,,59,0,11,,,,,,,,,,,,,,,13,,,59,0
47519,note_on,,119,0,10,,,,,,,,,,,,,,,12,,,64,0
47519,note_on,,119,0,6,,,,,,,,,,,,,,,1,,,71,0
47519,note_on,,59,0,12,,,,,,,,,,,,,,,15,,,71,0
47519,note_on,,119,0,9,,,,,,,,,,,,,,,11,,,71,0
47519,note_on,,14,0,8,,,,,,,,,,,,,,,10,,,80,0
47519,note_on,,14,0,5,,,,,,,,,,,,,,,0,,,80,0
47519,note_on,,0,0,12,,,,,,,,,,,,,,,15,,,59,0
47519,note_on,,0,0,12,,,,,,,,,,,,,,,15,,,62,0
47519,note_on,,0,0,12,,,,,,,,,,,,,,,15,,,68,0
47520,note_on,,1,0,8,,,,,,,,,,,,,,,10,,,81,64
47520,note_on,,1,0,5,,,,,,,,,,,,,,,0,,,81,64
47520,note_on,,1,0,7,,,,,,,,,,,,,,,2,,,60,64
47520,note_on,,1,0,9,,,,,,,,,,,,,,,11,,,76,64
47520,note_on,,1,0,12,,,,,,,,,,,,,,,15,,,60,64
47520,note_on,,1,0,6,,,,,,,,,,,,,,,1,,,76,64
47520,note_on,,1,0,11,,,,,,,,,,,,,,,13,,,60,64
47520,note_on,,1,0,10,,,,,,,,,,,,,,,12,,,64,64
47520,note_on,,0,0,12,,,,,,,,,,,,,,,15,,,64,64
47520,note_on,,0,0,12,,,,,,,,,,,,,,,15,,,76,64
47639,note_on,,119,0,12,,,,,,,,,,,,,,,15,,,76,0
47639,note_on,,119,0,5,,,,,,,,,,,,,,,0,,,81,0
47639,note_on,,119,0,10,,,,,,,,,,,,,,,12,,,64,0
47639,note_on,,119,0,8,,,,,,,,,,,,,,,10,,,81,0
47640,note_on,,1,0,12,,,,,,,,,,,,,,,15,,,69,64
47640,note_on,,1,0,5,,,,,,,,,,,,,,,0,,,76,64
47640,note_on,,1,0,8,,,,,,,,,,,,,,,10,,,76,64
47640,note_on,,1,0,10,,,,,,,,,,,,,,,12,,,69,64
47699,note_on,,179,0,9,,,,,,,,,,,,,,,11,,,76,0
47699,note_on,,59,0,12,,,,,,,,,,,,,,,15,,,60,0
47699,note_on,,179,0,11,,,,,,,,,,,,,,,13,,,60,0
47699,note_on,,179,0,6,,,,,,,,,,,,,,,1,,,76,0
47699,note_on,,179,0,7,,,,,,,,,,,,,,,2,,,60,0
47700,note_on,,1,0,9,,,,,,,,,,,,,,,11,,,74,64
47700,note_on,,1,0,6,,,,,,,,,,,,,,,1,,,74,64
47700,note_on,,1,0,12,,,,,,,,,,,,,,,15,,,59,64
47700,note_on,,1,0,7,,,,,,,,,,,,,,,2,,,59,64
47700,note_on,,1,0,11,,,,,,,,,,,,,,,13,,,59,64
47759,note_on,,59,0,6,,,,,,,,,,,,,,,1,,,74,0
47759,note_on,,119,0,5,,,,,,,,,,,,,,,0,,,76,0
47759,note_on,,59,0,11,,,,,,,,,,,,,,,13,,,59,0
47759,note_on,,119,0,8,,,,,,,,,,,,,,,10,,,76,0
47759,note_on,,59,0,12,,,,,,,,,,,,,,,15,,,59,0
47759,note_on,,59,0,7,,,,,,,,,,,,,,,2,,,59,0
47759,note_on,,119,0,10,,,,,,,,,,,,,,,12,,,69,0
47759,note_on,,59,0,9,,,,,,,,,,,,,,,11,,,74,0
47760,note_on,,0,0,12,,,,,,,,,,,,,,,15,,,72,64
47760,note_on,,1,0,10,,,,,,,,,,,,,,,12,,,64,64
47760,note_on,,1,0,7,,,,,,,,,,,,,,,2,,,57,64
47760,note_on,,1,0,6,,,,,,,,,,,,,,,1,,,72,64
47760,note_on,,1,0,11,,,,,,,,,,,,,,,13,,,57,64
47760,note_on,,1,0,8,,,,,,,,,,,,,,,10,,,81,64
47760,note_on,,1,0,9,,,,,,,,,,,,,,,11,,,72,64
47760,note_on,,1,0,5,,,,,,,,,,,,,,,0,,,81,64
47760,note_on,,1,0,12,,,,,,,,,,,,,,,15,,,57,64
47819,note_on,,59,0,6,,,,,,,,,,,,,,,1,,,72,0
47819,note_on,,59,0,7,,,,,,,,,,,,,,,2,,,57,0
47819,note_on,,59,0,9,,,,,,,,,,,,,,,11,,,72,0
47819,note_on,,59,0,12,,,,,,,,,,,,,,,15,,,57,0
47819,note_on,,59,0,11,,,,,,,,,,,,,,,13,,,57,0
47820,note_on,,1,0,7,,,,,,,,,,,,,,,2,,,55,64
47820,note_on,,1,0,12,,,,,,,,,,,,,,,15,,,55,64
47820,note_on,,1,0,9,,,,,,,,,,,,,,,11,,,71,64
47820,note_on,,1,0,6,,,,,,,,,,,,,,,1,,,71,64
47820,note_on,,1,0,11,,,,,,,,,,,,,,,13,,,55,64
47879,note_on,,59,0,12,,,,,,,,,,,,,,,15,,,55,0
47879,note_on,,59,0,9,,,,,,,,,,,,,,,11,,,71,0
47879,note_on,,59,0,7,,,,,,,,,,,,,,,2,,,55,0
47879,note_on,,119,0,10,,,,,,,,,,,,,,,12,,,64,0
47879,note_on,,59,0,6,,,,,,,,,,,,,,,1,,,71,0
47879,note_on,,59,0,11,,,,,,,,,,,,,,,13,,,55,0
47880,note_on,,1,0,9,,,,,,,,,,,,,,,11,,,69,64
47880,note_on,,1,0,12,,,,,,,,,,,,,,,15,,,54,64
47880,note_on,,1,0,10,,,,,,,,,,,,,,,12,,,66,64
47880,note_on,,1,0,11,,,,,,,,,,,,,,,13,,,54,64
47880,note_on,,1,0,7,,,,,,,,,,,,,,,2,,,54,64
47880,note_on,,1,0,6,,,,,,,,,,,,,,,1,,,69,64
47939,note_on,,59,0,11,,,,,,,,,,,,,,,13,,,54,0
47939,note_on,,59,0,6,,,,,,,,,,,,,,,1,,,69,0
47939,note_on,,59,0,12,,,,,,,,,,,,,,,15,,,54,0
47939,note_on,,59,0,9,,,,,,,,,,,,,,,11,,,69,0
47939,note_on,,59,0,7,,,,,,,,,,,,,,,2,,,54,0
47940,note_on,,1,0,12,,,,,,,,,,,,,,,15,,,52,64
47940,note_on,,1,0,11,,,,,,,,,,,,,,,13,,,52,64
47940,note_on,,1,0,7,,,,,,,,,,,,,,,2,,,52,64
47940,note_on,,1,0,6,,,,,,,,,,,,,,,1,,,67,64
47940,note_on,,1,0,9,,,,,,,,,,,,,,,11,,,67,64
47999,note_on,,59,0,11,,,,,,,,,,,,,,,13,,,52,0
47999,note_on,,59,0,7,,,,,,,,,,,,,,,2,,,52,0
47999,note_on,,59,0,12,,,,,,,,,,,,,,,15,,,64,0
47999,note_on,,59,0,9,,,,,,,,,,,,,,,11,,,67,0
47999,note_on,,59,0,6,,,,,,,,,,,,,,,1,,,67,0
47999,note_on,,0,0,12,,,,,,,,,,,,,,,15,,,52,0
47999,note_on,,0,0,12,,,,,,,,,,,,,,,15,,,72,0
47999,note_on,,0,0,12,,,,,,,,,,,,,,,15,,,69,0
47999,note_on,,119,0,10,,,,,,,,,,,,,,,12,,,66,0
48000,note_on,,0,0,12,,,,,,,,,,,,,,,15,,,69,64
48000,note_on,,0,0,12,,,,,,,,,,,,,,,15,,,66,64
48000,note_on,,0,0,12,,,,,,,,,,,,,,,15,,,71,64
48000,note_on,,1,0,12,,,,,,,,,,,,,,,15,,,51,64
48000,note_on,,1,0,7,,,,,,,,,,,,,,,2,,,51,64
48000,note_on,,1,0,10,,,,,,,,,,,,,,,12,,,59,64
48000,note_on,,1,0,6,,,,,,,,,,,,,,,1,,,66,64
48000,note_on,,1,0,9,,,,,,,,,,,,,,,11,,,66,64
48000,note_on,,1,0,11,,,,,,,,,,,,,,,13,,,51,64
48059,note_on,,299,0,5,,,,,,,,,,,,,,,0,,,81,0
48059,note_on,,299,0,8,,,,,,,,,,,,,,,10,,,81,0
48060,note_on,,1,0,5,,,,,,,,,,,,,,,0,,,83,64
48060,note_on,,1,0,8,,,,,,,,,,,,,,,10,,,83,64
48119,note_on,,119,0,6,,,,,,,,,,,,,,,1,,,66,0
48119,note_on,,119,0,9,,,,,,,,,,,,,,,11,,,66,0
48119,note_on,,59,0,8,,,,,,,,,,,,,,,10,,,83,0
48119,note_on,,0,0,12,,,,,,,,,,,,,,,15,,,66,0
48119,note_on,,0,0,12,,,,,,,,,,,,,,,15,,,69,0
48119,note_on,,119,0,10,,,,,,,,,,,,,,,12,,,59,0
48119,note_on,,119,0,11,,,,,,,,,,,,,,,13,,,51,0
48119,note_on,,59,0,5,,,,,,,,,,,,,,,0,,,83,0
48119,note_on,,119,0,7,,,,,,,,,,,,,,,2,,,51,0
48119,note_on,,119,0,12,,,,,,,,,,,,,,,15,,,51,0
48120,note_on,,1,0,11,,,,,,,,,,,,,,,13,,,52,64
48120,note_on,,1,0,8,,,,,,,,,,,,,,,10,,,79,64
48120,note_on,,1,0,7,,,,,,,,,,,,,,,2,,,52,64
48120,note_on,,1,0,10,,,,,,,,,,,,,,,12,,,59,64
48120,note_on,,1,0,12,,,,,,,,,,,,,,,15,,,52,64
48120,note_on,,0,0,12,,,,,,,,,,,,,,,15,,,67,64
48120,note_on,,0,0,12,,,,,,,,,,,,,,,15,,,64,64
48120,note_on,,1,0,5,,,,,,,,,,,,,,,0,,,79,64
48120,note_on,,1,0,9,,,,,,,,,,,,,,,11,,,76,64
48120,note_on,,1,0,6,,,,,,,,,,,,,,,1,,,76,64
48179,note_on,,59,0,8,,,,,,,,,,,,,,,10,,,79,0
48179,note_on,,59,0,5,,,,,,,,,,,,,,,0,,,79,0
48180,note_on,,1,0,8,,,,,,,,,,,,,,,10,,,81,64
48180,note_on,,1,0,5,,,,,,,,,,,,,,,0,,,81,64
48239,note_on,,59,0,8,,,,,,,,,,,,,,,10,,,81,0
48239,note_on,,119,0,12,,,,,,,,,,,,,,,15,,,52,0
48239,note_on,,119,0,11,,,,,,,,,,,,,,,13,,,52,0
48239,note_on,,119,0,7,,,,,,,,,,,,,,,2,,,52,0
48239,note_on,,119,0,10,,,,,,,,,,,,,,,12,,,59,0
48239,note_on,,59,0,5,,,,,,,,,,,,,,,0,,,81,0
48239,note_on,,0,0,12,,,,,,,,,,,,,,,15,,,67,0
48240,note_on,,1,0,8,,,,,,,,,,,,,,,10,,,78,64
48240,note_on,,1,0,11,,,,,,,,,,,,,,,13,,,59,64
48240,note_on,,1,0,5,,,,,,,,,,,,,,,0,,,78,64
48240,note_on,,1,0,7,,,,,,,,,,,,,,,2,,,59,64
48240,note_on,,0,0,12,,,,,,,,,,,,,,,15,,,66,64
48240,note_on,,1,0,12,,,,,,,,,,,,,,,15,,,59,64
48240,note_on,,1,0,10,,,,,,,,,,,,,,,12,,,66,64
48299,note_on,,59,0,5,,,,,,,,,,,,,,,0,,,78,0
48299,note_on,,59,0,8,,,,,,,,,,,,,,,10,,,78,0
48300,note_on,,1,0,5,,,,,,,,,,,,,,,0,,,83,64
48300,note_on,,1,0,8,,,,,,,,,,,,,,,10,,,83,64
48359,note_on,,239,0,6,,,,,,,,,,,,,,,1,,,76,0
48359,note_on,,59,0,8,,,,,,,,,,,,,,,10,,,83,0
48359,note_on,,119,0,7,,,,,,,,,,,,,,,2,,,59,0
48359,note_on,,119,0,10,,,,,,,,,,,,,,,12,,,66,0
48359,note_on,,119,0,11,,,,,,,,,,,,,,,13,,,59,0
48359,note_on,,119,0,12,,,,,,,,,,,,,,,15,,,64,0
48359,note_on,,0,0,12,,,,,,,,,,,,,,,15,,,59,0
48359,note_on,,239,0,9,,,,,,,,,,,,,,,11,,,76,0
48359,note_on,,59,0,5,,,,,,,,,,,,,,,0,,,83,0
48360,note_on,,1,0,7,,,,,,,,,,,,,,,2,,,47,64
48360,note_on,,1,0,10,,,,,,,,,,,,,,,12,,,66,64
48360,note_on,,1,0,9,,,,,,,,,,,,,,,11,,,75,64
48360,note_on,,1,0,11,,,,,,,,,,,,,,,13,,,47,64
48360,note_on,,1,0,6,,,,,,,,,,,,,,,1,,,75,64
48360,note_on,,1,0,5,,,,,,,,,,,,,,,0,,,81,64
48360,note_on,,0,0,12,,,,,,,,,,,,,,,15,,,63,64
48360,note_on,,1,0,8,,,,,,,,,,,,,,,10,,,81,64
48360,note_on,,1,0,12,,,,,,,,,,,,,,,15,,,47,64
48419,note_on,,59,0,8,,,,,,,,,,,,,,,10,,,81,0
48419,note_on,,59,0,5,,,,,,,,,,,,,,,0,,,81,0
48420,note_on,,1,0,5,,,,,,,,,,,,,,,0,,,83,64
48420,note_on,,1,0,8,,,,,,,,,,,,,,,10,,,83,64
48479,note_on,,119,0,10,,,,,,,,,,,,,,,12,,,66,0
48479,note_on,,119,0,11,,,,,,,,,,,,,,,13,,,47,0
48479,note_on,,0,0,12,,,,,,,,,,,,,,,15,,,66,0
48479,note_on,,0,0,12,,,,,,,,,,,,,,,15,,,47,0
48479,note_on,,0,0,12,,,,,,,,,,,,,,,15,,,63,0
48479,note_on,,119,0,6,,,,,,,,,,,,,,,1,,,75,0
48479,note_on,,119,0,7,,,,,,,,,,,,,,,2,,,47,0
48479,note_on,,119,0,12,,,,,,,,,,,,,,,15,,,71,0
48479,note_on,,59,0,5,,,,,,,,,,,,,,,0,,,83,0
48479,note_on,,119,0,9,,,,,,,,,,,,,,,11,,,75,0
48479,note_on,,59,0,8,,,,,,,,,,,,,,,10,,,83,0
48480,note_on,,1,0,9,,,,,,,,,,,,,,,11,,,76,64
48480,note_on,,1,0,12,,,,,,,,,,,,,,,15,,,48,64
48480,note_on,,0,0,12,,,,,,,,,,,,,,,15,,,64,64
48480,note_on,,0,0,12,,,,,,,,,,,,,,,15,,,60,64
48480,note_on,,1,0,7,,,,,,,,,,,,,,,2,,,48,64
48480,note_on,,0,0,12,,,,,,,,,,,,,,,15,,,69,64
48480,note_on,,1,0,11,,,,,,,,,,,,,,,13,,,48,64
48480,note_on,,1,0,5,,,,,,,,,,,,,,,0,,,76,64
48480,note_on,,1,0,10,,,,,,,,,,,,,,,12,,,69,64
48480,note_on,,1,0,8,,,,,,,,,,,,,,,10,,,76,64
48480,note_on,,1,0,6,,,,,,,,,,,,,,,1,,,76,64
48539,note_on,,59,0,9,,,,,,,,,,,,,,,11,,,76,0
48539,note_on,,59,0,6,,,,,,,,,,,,,,,1,,,76,0
48540,note_on,,1,0,6,,,,,,,,,,,,,,,1,,,69,64
48540,note_on,,1,0,9,,,,,,,,,,,,,,,11,,,69,64
48599,note_on,,59,0,6,,,,,,,,,,,,,,,1,,,69,0
48599,note_on,,119,0,12,,,,,,,,,,,,,,,15,,,48,0
48599,note_on,,119,0,11,,,,,,,,,,,,,,,13,,,48,0
48599,note_on,,119,0,7,,,,,,,,,,,,,,,2,,,48,0
48599,note_on,,59,0,9,,,,,,,,,,,,,,,11,,,69,0
48599,note_on,,119,0,10,,,,,,,,,,,,,,,12,,,69,0
48600,note_on,,1,0,6,,,,,,,,,,,,,,,1,,,68,64
48600,note_on,,1,0,11,,,,,,,,,,,,,,,13,,,52,64
48600,note_on,,1,0,10,,,,,,,,,,,,,,,12,,,64,64
48600,note_on,,1,0,7,,,,,,,,,,,,,,,2,,,52,64
48600,note_on,,1,0,9,,,,,,,,,,,,,,,11,,,68,64
48600,note_on,,1,0,12,,,,,,,,,,,,,,,15,,,52,64
48659,note_on,,59,0,9,,,,,,,,,,,,,,,11,,,68,0
48659,note_on,,59,0,6,,,,,,,,,,,,,,,1,,,68,0
48660,note_on,,1,0,6,,,,,,,,,,,,,,,1,,,69,64
48660,note_on,,1,0,9,,,,,,,,,,,,,,,11,,,69,64
48719,note_on,,59,0,6,,,,,,,,,,,,,,,1,,,69,0
48719,note_on,,0,0,12,,,,,,,,,,,,,,,15,,,52,0
48719,note_on,,0,0,12,,,,,,,,,,,,,,,15,,,60,0
48719,note_on,,119,0,11,,,,,,,,,,,,,,,13,,,52,0
48719,note_on,,119,0,12,,,,,,,,,,,,,,,15,,,69,0
48719,note_on,,119,0,7,,,,,,,,,,,,,,,2,,,52,0
48719,note_on,,119,0,10,,,,,,,,,,,,,,,12,,,64,0
48719,note_on,,59,0,9,,,,,,,,,,,,,,,11,,,69,0
48719,note_on,,0,0,12,,,,,,,,,,,,,,,15,,,64,0
48720,note_on,,0,0,12,,,,,,,,,,,,,,,15,,,64,64
48720,note_on,,1,0,7,,,,,,,,,,,,,,,2,,,44,64
48720,note_on,,1,0,9,,,,,,,,,,,,,,,11,,,71,64
48720,note_on,,1,0,11,,,,,,,,,,,,,,,13,,,44,64
48720,note_on,,0,0,12,,,,,,,,,,,,,,,15,,,59,64
48720,note_on,,1,0,6,,,,,,,,,,,,,,,1,,,71,64
48720,note_on,,0,0,12,,,,,,,,,,,,,,,15,,,52,64
48720,note_on,,1,0,12,,,,,,,,,,,,,,,15,,,44,64
48720,note_on,,0,0,12,,,,,,,,,,,,,,,15,,,71,64
48720,note_on,,1,0,10,,,,,,,,,,,,,,,12,,,64,64
48779,note_on,,299,0,5,,,,,,,,,,,,,,,0,,,76,0
48779,note_on,,299,0,8,,,,,,,,,,,,,,,10,,,76,0
48780,note_on,,1,0,8,,,,,,,,,,,,,,,10,,,76,64
48780,note_on,,1,0,5,,,,,,,,,,,,,,,0,,,76,64
48839,note_on,,59,0,8,,,,,,,,,,,,,,,10,,,76,0
48839,note_on,,59,0,5,,,,,,,,,,,,,,,0,,,76,0
48839,note_on,,119,0,9,,,,,,,,,,,,,,,11,,,71,0
48839,note_on,,119,0,10,,,,,,,,,,,,,,,12,,,64,0
48839,note_on,,119,0,6,,,,,,,,,,,,,,,1,,,71,0
48840,note_on,,1,0,6,,,,,,,,,,,,,,,1,,,71,64
48840,note_on,,1,0,10,,,,,,,,,,,,,,,12,,,64,64
48840,note_on,,1,0,8,,,,,,,,,,,,,,,10,,,74,64
48840,note_on,,1,0,5,,,,,,,,,,,,,,,0,,,74,64
48840,note_on,,1,0,9,,,,,,,,,,,,,,,11,,,71,64
48899,note_on,,59,0,5,,,,,,,,,,,,,,,0,,,74,0
48899,note_on,,59,0,8,,,,,,,,,,,,,,,10,,,74,0
48900,note_on,,1,0,5,,,,,,,,,,,,,,,0,,,76,64
48900,note_on,,1,0,8,,,,,,,,,,,,,,,10,,,76,64
48959,note_on,,239,0,12,,,,,,,,,,,,,,,15,,,44,0
48959,note_on,,0,0,12,,,,,,,,,,,,,,,15,,,71,0
48959,note_on,,59,0,8,,,,,,,,,,,,,,,10,,,76,0
48959,note_on,,0,0,12,,,,,,,,,,,,,,,15,,,64,0
48959,note_on,,0,0,12,,,,,,,,,,,,,,,15,,,59,0
48959,note_on,,119,0,9,,,,,,,,,,,,,,,11,,,71,0
48959,note_on,,239,0,11,,,,,,,,,,,,,,,13,,,44,0
48959,note_on,,0,0,12,,,,,,,,,,,,,,,15,,,52,0
48959,note_on,,119,0,6,,,,,,,,,,,,,,,1,,,71,0
48959,note_on,,59,0,5,,,,,,,,,,,,,,,0,,,76,0
48959,note_on,,119,0,10,,,,,,,,,,,,,,,12,,,64,0
48959,note_on,,239,0,7,,,,,,,,,,,,,,,2,,,44,0
48960,note_on,,1,0,10,,,,,,,,,,,,,,,12,,,69,64
48960,note_on,,1,0,11,,,,,,,,,,,,,,,13,,,45,64
48960,note_on,,1,0,6,,,,,,,,,,,,,,,1,,,64,64
48960,note_on,,1,0,9,,,,,,,,,,,,,,,11,,,64,64
48960,note_on,,1,0,8,,,,,,,,,,,,,,,10,,,72,64
48960,note_on,,1,0,12,,,,,,,,,,,,,,,15,,,45,64
48960,note_on,,0,0,12,,,,,,,,,,,,,,,15,,,52,64
48960,note_on,,0,0,12,,,,,,,,,,,,,,,15,,,64,64
48960,note_on,,0,0,12,,,,,,,,,,,,,,,15,,,60,64
48960,note_on,,1,0,5,,,,,,,,,,,,,,,0,,,72,64
48960,note_on,,1,0,7,,,,,,,,,,,,,,,2,,,45,64
49019,note_on,,59,0,6,,,,,,,,,,,,,,,1,,,64,0
49019,note_on,,59,0,9,,,,,,,,,,,,,,,11,,,64,0
49019,note_on,,59,0,5,,,,,,,,,,,,,,,0,,,72,0
49019,note_on,,59,0,8,,,,,,,,,,,,,,,10,,,72,0
49020,note_on,,1,0,5,,,,,,,,,,,,,,,0,,,76,64
49020,note_on,,1,0,6,,,,,,,,,,,,,,,1,,,72,64
49020,note_on,,1,0,8,,,,,,,,,,,,,,,10,,,76,64
49020,note_on,,1,0,9,,,,,,,,,,,,,,,11,,,72,64
49079,note_on,,59,0,8,,,,,,,,,,,,,,,10,,,76,0
49079,note_on,,59,0,6,,,,,,,,,,,,,,,1,,,72,0
49079,note_on,,59,0,5,,,,,,,,,,,,,,,0,,,76,0
49079,note_on,,59,0,9,,,,,,,,,,,,,,,11,,,72,0
49080,note_on,,1,0,9,,,,,,,,,,,,,,,11,,,71,64
49080,note_on,,1,0,6,,,,,,,,,,,,,,,1,,,71,64
49080,note_on,,1,0,5,,,,,,,,,,,,,,,0,,,74,64
49080,note_on,,1,0,8,,,,,,,,,,,,,,,10,,,74,64
49139,note_on,,59,0,5,,,,,,,,,,,,,,,0,,,74,0
49139,note_on,,59,0,9,,,,,,,,,,,,,,,11,,,71,0
49139,note_on,,59,0,6,,,,,,,,,,,,,,,1,,,71,0
49139,note_on,,59,0,8,,,,,,,,,,,,,,,10,,,74,0
49140,note_on,,1,0,9,,,,,,,,,,,,,,,11,,,72,64
49140,note_on,,1,0,6,,,,,,,,,,,,,,,1,,,72,64
49140,note_on,,1,0,8,,,,,,,,,,,,,,,10,,,76,64
49140,note_on,,1,0,5,,,,,,,,,,,,,,,0,,,76,64
49199,note_on,,59,0,6,,,,,,,,,,,,,,,1,,,72,0
49199,note_on,,239,0,10,,,,,,,,,,,,,,,12,,,69,0
49199,note_on,,239,0,7,,,,,,,,,,,,,,,2,,,45,0
49199,note_on,,59,0,5,,,,,,,,,,,,,,,0,,,76,0
49199,note_on,,239,0,11,,,,,,,,,,,,,,,13,,,45,0
49199,note_on,,59,0,8,,,,,,,,,,,,,,,10,,,76,0
49199,note_on,,0,0,12,,,,,,,,,,,,,,,15,,,52,0
49199,note_on,,239,0,12,,,,,,,,,,,,,,,15,,,45,0
49199,note_on,,0,0,12,,,,,,,,,,,,,,,15,,,64,0
49199,note_on,,59,0,9,,,,,,,,,,,,,,,11,,,72,0
49199,note_on,,0,0,12,,,,,,,,,,,,,,,15,,,60,0
49200,note_on,,1,0,5,,,,,,,,,,,,,,,0,,,68,64
49200,note_on,,1,0,7,,,,,,,,,,,,,,,2,,,47,64
49200,note_on,,1,0,12,,,,,,,,,,,,,,,15,,,47,64
49200,note_on,,0,0,12,,,,,,,,,,,,,,,15,,,68,64
49200,note_on,,1,0,9,,,,,,,,,,,,,,,11,,,62,64
49200,note_on,,0,0,12,,,,,,,,,,,,,,,15,,,62,64
49200,note_on,,1,0,10,,,,,,,,,,,,,,,12,,,62,64
49200,note_on,,0,0,12,,,,,,,,,,,,,,,15,,,50,64
49200,note_on,,1,0,6,,,,,,,,,,,,,,,1,,,62,64
49200,note_on,,1,0,11,,,,,,,,,,,,,,,13,,,47,64
49200,note_on,,1,0,8,,,,,,,,,,,,,,,10,,,68,64
49259,note_on,,59,0,8,,,,,,,,,,,,,,,10,,,68,0
49259,note_on,,59,0,5,,,,,,,,,,,,,,,0,,,68,0
49260,note_on,,1,0,8,,,,,,,,,,,,,,,10,,,76,64
49260,note_on,,1,0,5,,,,,,,,,,,,,,,0,,,76,64
49319,note_on,,119,0,6,,,,,,,,,,,,,,,1,,,62,0
49319,note_on,,59,0,8,,,,,,,,,,,,,,,10,,,76,0
49319,note_on,,119,0,9,,,,,,,,,,,,,,,11,,,62,0
49319,note_on,,59,0,5,,,,,,,,,,,,,,,0,,,76,0
49320,note_on,,1,0,9,,,,,,,,,,,,,,,11,,,68,64
49320,note_on,,1,0,8,,,,,,,,,,,,,,,10,,,74,64
49320,note_on,,1,0,6,,,,,,,,,,,,,,,1,,,68,64
49320,note_on,,1,0,5,,,,,,,,,,,,,,,0,,,74,64
49379,note_on,,59,0,8,,,,,,,,,,,,,,,10,,,74,0
49379,note_on,,59,0,5,,,,,,,,,,,,,,,0,,,74,0
49380,note_on,,1,0,5,,,,,,,,,,,,,,,0,,,76,64
49380,note_on,,1,0,8,,,,,,,,,,,,,,,10,,,76,64
49439,note_on,,59,0,8,,,,,,,,,,,,,,,10,,,76,0
49439,note_on,,239,0,7,,,,,,,,,,,,,,,2,,,47,0
49439,note_on,,239,0,10,,,,,,,,,,,,,,,12,,,62,0
49439,note_on,,239,0,12,,,,,,,,,,,,,,,15,,,47,0
49439,note_on,,0,0,12,,,,,,,,,,,,,,,15,,,68,0
49439,note_on,,0,0,12,,,,,,,,,,,,,,,15,,,62,0
49439,note_on,,0,0,12,,,,,,,,,,,,,,,15,,,50,0
49439,note_on,,239,0,11,,,,,,,,,,,,,,,13,,,47,0
49439,note_on,,119,0,6,,,,,,,,,,,,,,,1,,,68,0
49439,note_on,,59,0,5,,,,,,,,,,,,,,,0,,,76,0
49439,note_on,,119,0,9,,,,,,,,,,,,,,,11,,,68,0
49440,note_on,,1,0,11,,,,,,,,,,,,,,,13,,,48,64
49440,note_on,,0,0,12,,,,,,,,,,,,,,,15,,,64,64
49440,note_on,,1,0,10,,,,,,,,,,,,,,,12,,,64,64
49440,note_on,,1,0,8,,,,,,,,,,,,,,,10,,,69,64
49440,note_on,,0,0,12,,,,,,,,,,,,,,,15,,,69,64
49440,note_on,,1,0,12,,,,,,,,,,,,,,,15,,,48,64
49440,note_on,,1,0,9,,,,,,,,,,,,,,,11,,,69,64
49440,note_on,,1,0,6,,,,,,,,,,,,,,,1,,,69,64
49440,note_on,,0,0,12,,,,,,,,,,,,,,,15,,,57,64
49440,note_on,,1,0,5,,,,,,,,,,,,,,,0,,,69,64
49440,note_on,,1,0,7,,,,,,,,,,,,,,,2,,,48,64
49499,note_on,,59,0,5,,,,,,,,,,,,,,,0,,,69,0
49499,note_on,,59,0,6,,,,,,,,,,,,,,,1,,,69,0
49499,note_on,,59,0,9,,,,,,,,,,,,,,,11,,,69,0
49499,note_on,,59,0,8,,,,,,,,,,,,,,,10,,,69,0
49500,note_on,,1,0,9,,,,,,,,,,,,,,,11,,,72,64
49500,note_on,,1,0,5,,,,,,,,,,,,,,,0,,,76,64
49500,note_on,,1,0,6,,,,,,,,,,,,,,,1,,,72,64
49500,note_on,,1,0,8,,,,,,,,,,,,,,,10,,,76,64
49559,note_on,,59,0,8,,,,,,,,,,,,,,,10,,,76,0
49559,note_on,,59,0,9,,,,,,,,,,,,,,,11,,,72,0
49559,note_on,,59,0,5,,,,,,,,,,,,,,,0,,,76,0
49559,note_on,,59,0,6,,,,,,,,,,,,,,,1,,,72,0
49560,note_on,,1,0,9,,,,,,,,,,,,,,,11,,,71,64
49560,note_on,,1,0,6,,,,,,,,,,,,,,,1,,,71,64
49560,note_on,,1,0,5,,,,,,,,,,,,,,,0,,,74,64
49560,note_on,,1,0,8,,,,,,,,,,,,,,,10,,,74,64
49619,note_on,,59,0,6,,,,,,,,,,,,,,,1,,,71,0
49619,note_on,,59,0,5,,,,,,,,,,,,,,,0,,,74,0
49619,note_on,,59,0,9,,,,,,,,,,,,,,,11,,,71,0
49619,note_on,,59,0,8,,,,,,,,,,,,,,,10,,,74,0
49620,note_on,,1,0,9,,,,,,,,,,,,,,,11,,,72,64
49620,note_on,,1,0,6,,,,,,,,,,,,,,,1,,,72,64
49620,note_on,,1,0,8,,,,,,,,,,,,,,,10,,,76,64
49620,note_on,,1,0,5,,,,,,,,,,,,,,,0,,,76,64
49679,note_on,,239,0,10,,,,,,,,,,,,,,,12,,,64,0
49679,note_on,,239,0,12,,,,,,,,,,,,,,,15,,,48,0
49679,note_on,,0,0,12,,,,,,,,,,,,,,,15,,,69,0
49679,note_on,,0,0,12,,,,,,,,,,,,,,,15,,,64,0
49679,note_on,,239,0,7,,,,,,,,,,,,,,,2,,,48,0
49679,note_on,,0,0,12,,,,,,,,,,,,,,,15,,,57,0
49679,note_on,,59,0,6,,,,,,,,,,,,,,,1,,,72,0
49679,note_on,,59,0,5,,,,,,,,,,,,,,,0,,,76,0
49679,note_on,,59,0,8,,,,,,,,,,,,,,,10,,,76,0
49679,note_on,,239,0,11,,,,,,,,,,,,,,,13,,,48,0
49679,note_on,,59,0,9,,,,,,,,,,,,,,,11,,,72,0
49680,note_on,,1,0,10,,,,,,,,,,,,,,,12,,,64,64
49680,note_on,,1,0,8,,,,,,,,,,,,,,,10,,,71,64
49680,note_on,,1,0,12,,,,,,,,,,,,,,,15,,,44,64
49680,note_on,,1,0,7,,,,,,,,,,,,,,,2,,,44,64
49680,note_on,,0,0,12,,,,,,,,,,,,,,,15,,,64,64
49680,note_on,,1,0,11,,,,,,,,,,,,,,,13,,,44,64
49680,note_on,,1,0,6,,,,,,,,,,,,,,,1,,,64,64
49680,note_on,,1,0,9,,,,,,,,,,,,,,,11,,,64,64
49680,note_on,,0,0,12,,,,,,,,,,,,,,,15,,,71,64
49680,note_on,,1,0,5,,,,,,,,,,,,,,,0,,,71,64
49680,note_on,,0,0,12,,,,,,,,,,,,,,,15,,,59,64
49680,note_on,,0,0,12,,,,,,,,,,,,,,,15,,,52,64
49739,note_on,,59,0,8,,,,,,,,,,,,,,,10,,,71,0
49739,note_on,,59,0,5,,,,,,,,,,,,,,,0,,,71,0
49740,note_on,,1,0,8,,,,,,,,,,,,,,,10,,,76,64
49740,note_on,,1,0,5,,,,,,,,,,,,,,,0,,,76,64
49799,note_on,,119,0,6,,,,,,,,,,,,,,,1,,,64,0
49799,note_on,,59,0,8,,,,,,,,,,,,,,,10,,,76,0
49799,note_on,,59,0,5,,,,,,,,,,,,,,,0,,,76,0
49799,note_on,,119,0,9,,,,,,,,,,,,,,,11,,,64,0
49800,note_on,,1,0,6,,,,,,,,,,,,,,,1,,,71,64
49800,note_on,,1,0,5,,,,,,,,,,,,,,,0,,,74,64
49800,note_on,,1,0,8,,,,,,,,,,,,,,,10,,,74,64
49800,note_on,,1,0,9,,,,,,,,,,,,,,,11,,,71,64
49859,note_on,,59,0,5,,,,,,,,,,,,,,,0,,,74,0
49859,note_on,,59,0,8,,,,,,,,,,,,,,,10,,,74,0
49860,note_on,,1,0,5,,,,,,,,,,,,,,,0,,,76,64
49860,note_on,,1,0,8,,,,,,,,,,,,,,,10,,,76,64
49919,note_on,,59,0,5,,,,,,,,,,,,,,,0,,,76,0
49919,note_on,,239,0,11,,,,,,,,,,,,,,,13,,,44,0
49919,note_on,,119,0,9,,,,,,,,,,,,,,,11,,,71,0
49919,note_on,,59,0,8,,,,,,,,,,,,,,,10,,,76,0
49919,note_on,,239,0,10,,,,,,,,,,,,,,,12,,,64,0
49919,note_on,,239,0,12,,,,,,,,,,,,,,,15,,,44,0
49919,note_on,,239,0,7,,,,,,,,,,,,,,,2,,,44,0
49919,note_on,,0,0,12,,,,,,,,,,,,,,,15,,,71,0
49919,note_on,,119,0,6,,,,,,,,,,,,,,,1,,,71,0
49919,note_on,,0,0,12,,,,,,,,,,,,,,,15,,,64,0
49919,note_on,,0,0,12,,,,,,,,,,,,,,,15,,,59,0
49919,note_on,,0,0,12,,,,,,,,,,,,,,,15,,,52,0
49920,note_on,,1,0,8,,,,,,,,,,,,,,,10,,,72,64
49920,note_on,,1,0,10,,,,,,,,,,,,,,,12,,,69,64
49920,note_on,,1,0,9,,,,,,,,,,,,,,,11,,,64,64
49920,note_on,,1,0,12,,,,,,,,,,,,,,,15,,,45,64
49920,note_on,,0,0,12,,,,,,,,,,,,,,,15,,,72,64
49920,note_on,,0,0,12,,,,,,,,,,,,,,,15,,,69,64
49920,note_on,,0,0,12,,,,,,,,,,,,,,,15,,,52,64
49920,note_on,,0,0,12,,,,,,,,,,,,,,,15,,,64,64
49920,note_on,,1,0,6,,,,,,,,,,,,,,,1,,,64,64
49920,note_on,,1,0,11,,,,,,,,,,,,,,,13,,,45,64
49920,note_on,,1,0,7,,,,,,,,,,,,,,,2,,,45,64
49920,note_on,,1,0,5,,,,,,,,,,,,,,,0,,,72,64
49979,note_on,,59,0,5,,,,,,,,,,,,,,,0,,,72,0
49979,note_on,,59,0,8,,,,,,,,,,,,,,,10,,,72,0
49980,note_on,,1,0,5,,,,,,,,,,,,,,,0,,,74,64
49980,note_on,,1,0,8,,,,,,,,,,,,,,,10,,,74,64
50039,note_on,,59,0,5,,,,,,,,,,,,,,,0,,,74,0
50039,note_on,,59,0,8,,,,,,,,,,,,,,,10,,,74,0
50039,note_on,,119,0,9,,,,,,,,,,,,,,,11,,,64,0
50039,note_on,,119,0,10,,,,,,,,,,,,,,,12,,,69,0
50039,note_on,,119,0,6,,,,,,,,,,,,,,,1,,,64,0
50040,note_on,,1,0,6,,,,,,,,,,,,,,,1,,,64,64
50040,note_on,,1,0,10,,,,,,,,,,,,,,,12,,,69,64
50040,note_on,,1,0,8,,,,,,,,,,,,,,,10,,,72,64
50040,note_on,,1,0,5,,,,,,,,,,,,,,,0,,,72,64
50040,note_on,,1,0,9,,,,,,,,,,,,,,,11,,,64,64
50099,note_on,,59,0,8,,,,,,,,,,,,,,,10,,,72,0
50099,note_on,,59,0,5,,,,,,,,,,,,,,,0,,,72,0
50100,note_on,,1,0,8,,,,,,,,,,,,,,,10,,,71,64
50100,note_on,,1,0,5,,,,,,,,,,,,,,,0,,,71,64
50159,note_on,,239,0,11,,,,,,,,,,,,,,,13,,,45,0
50159,note_on,,239,0,7,,,,,,,,,,,,,,,2,,,45,0
50159,note_on,,59,0,8,,,,,,,,,,,,,,,10,,,71,0
50159,note_on,,239,0,12,,,,,,,,,,,,,,,15,,,45,0
50159,note_on,,0,0,12,,,,,,,,,,,,,,,15,,,72,0
50159,note_on,,59,0,5,,,,,,,,,,,,,,,0,,,71,0
50159,note_on,,119,0,6,,,,,,,,,,,,,,,1,,,64,0
50159,note_on,,0,0,12,,,,,,,,,,,,,,,15,,,52,0
50159,note_on,,119,0,10,,,,,,,,,,,,,,,12,,,69,0
50159,note_on,,0,0,12,,,,,,,,,,,,,,,15,,,69,0
50159,note_on,,0,0,12,,,,,,,,,,,,,,,15,,,64,0
50159,note_on,,119,0,9,,,,,,,,,,,,,,,11,,,64,0
50160,note_on,,0,0,12,,,,,,,,,,,,,,,15,,,52,64
50160,note_on,,0,0,12,,,,,,,,,,,,,,,15,,,64,64
50160,note_on,,1,0,7,,,,,,,,,,,,,,,2,,,48,64
50160,note_on,,0,0,12,,,,,,,,,,,,,,,15,,,69,64
50160,note_on,,1,0,11,,,,,,,,,,,,,,,13,,,48,64
50160,note_on,,1,0,6,,,,,,,,,,,,,,,1,,,69,64
50160,note_on,,0,0,12,,,,,,,,,,,,,,,15,,,76,64
50160,note_on,,1,0,12,,,,,,,,,,,,,,,15,,,48,64
50160,note_on,,1,0,10,,,,,,,,,,,,,,,12,,,64,64
50160,note_on,,1,0,9,,,,,,,,,,,,,,,11,,,69,64
50160,note_on,,1,0,5,,,,,,,,,,,,,,,0,,,69,64
50160,note_on,,1,0,8,,,,,,,,,,,,,,,10,,,69,64
50219,note_on,,59,0,8,,,,,,,,,,,,,,,10,,,69,0
50219,note_on,,59,0,5,,,,,,,,,,,,,,,0,,,69,0
50220,note_on,,1,0,8,,,,,,,,,,,,,,,10,,,67,64
50220,note_on,,1,0,5,,,,,,,,,,,,,,,0,,,67,64
50279,note_on,,59,0,5,,,,,,,,,,,,,,,0,,,67,0
50279,note_on,,119,0,10,,,,,,,,,,,,,,,12,,,64,0
50279,note_on,,119,0,6,,,,,,,,,,,,,,,1,,,69,0
50279,note_on,,59,0,8,,,,,,,,,,,,,,,10,,,67,0
50279,note_on,,119,0,9,,,,,,,,,,,,,,,11,,,69,0
50280,note_on,,1,0,10,,,,,,,,,,,,,,,12,,,64,64
50280,note_on,,1,0,8,,,,,,,,,,,,,,,10,,,66,64
50280,note_on,,1,0,6,,,,,,,,,,,,,,,1,,,72,64
50280,note_on,,1,0,9,,,,,,,,,,,,,,,11,,,72,64
50280,note_on,,1,0,5,,,,,,,,,,,,,,,0,,,66,64
50339,note_on,,59,0,8,,,,,,,,,,,,,,,10,,,66,0
50339,note_on,,59,0,5,,,,,,,,,,,,,,,0,,,66,0
50340,note_on,,1,0,5,,,,,,,,,,,,,,,0,,,64,64
50340,note_on,,1,0,8,,,,,,,,,,,,,,,10,,,64,64
50399,note_on,,119,0,10,,,,,,,,,,,,,,,12,,,64,0
50399,note_on,,239,0,11,,,,,,,,,,,,,,,13,,,48,0
50399,note_on,,59,0,5,,,,,,,,,,,,,,,0,,,64,0
50399,note_on,,119,0,6,,,,,,,,,,,,,,,1,,,72,0
50399,note_on,,0,0,12,,,,,,,,,,,,,,,15,,,64,0
50399,note_on,,119,0,9,,,,,,,,,,,,,,,11,,,72,0
50399,note_on,,0,0,12,,,,,,,,,,,,,,,15,,,69,0
50399,note_on,,0,0,12,,,,,,,,,,,,,,,15,,,76,0
50399,note_on,,0,0,12,,,,,,,,,,,,,,,15,,,52,0
50399,note_on,,239,0,12,,,,,,,,,,,,,,,15,,,48,0
50399,note_on,,59,0,8,,,,,,,,,,,,,,,10,,,64,0
50399,note_on,,239,0,7,,,,,,,,,,,,,,,2,,,48,0
50400,note_on,,1,0,7,,,,,,,,,,,,,,,2,,,47,64
50400,note_on,,1,0,6,,,,,,,,,,,,,,,1,,,66,64
50400,note_on,,0,0,12,,,,,,,,,,,,,,,15,,,71,64
50400,note_on,,0,0,12,,,,,,,,,,,,,,,15,,,66,64
50400,note_on,,0,0,12,,,,,,,,,,,,,,,15,,,59,64
50400,note_on,,1,0,5,,,,,,,,,,,,,,,0,,,75,64
50400,note_on,,0,0,12,,,,,,,,,,,,,,,15,,,75,64
50400,note_on,,1,0,11,,,,,,,,,,,,,,,13,,,47,64
50400,note_on,,1,0,9,,,,,,,,,,,,,,,11,,,66,64
50400,note_on,,1,0,8,,,,,,,,,,,,,,,10,,,75,64
50400,note_on,,1,0,10,,,,,,,,,,,,,,,12,,,71,64
50400,note_on,,1,0,12,,,,,,,,,,,,,,,15,,,47,64
50639,note_on,,239,0,11,,,,,,,,,,,,,,,13,,,47,0
50639,note_on,,0,0,12,,,,,,,,,,,,,,,15,,,75,0
50639,note_on,,0,0,12,,,,,,,,,,,,,,,15,,,66,0
50639,note_on,,0,0,12,,,,,,,,,,,,,,,15,,,59,0
50639,note_on,,239,0,10,,,,,,,,,,,,,,,12,,,71,0
50639,note_on,,0,0,12,,,,,,,,,,,,,,,15,,,71,0
50639,note_on,,239,0,12,,,,,,,,,,,,,,,15,,,47,0
50639,note_on,,239,0,6,,,,,,,,,,,,,,,1,,,66,0
50639,note_on,,239,0,7,,,,,,,,,,,,,,,2,,,47,0
50639,note_on,,239,0,8,,,,,,,,,,,,,,,10,,,75,0
50639,note_on,,239,0,5,,,,,,,,,,,,,,,0,,,75,0
50639,note_on,,239,0,9,,,,,,,,,,,,,,,11,,,66,0
50760,note_on,,121,0,8,,,,,,,,,,,,,,,10,,,71,64
50760,note_on,,121,0,7,,,,,,,,,,,,,,,2,,,45,64
50760,note_on,,121,0,10,,,,,,,,,,,,,,,12,,,66,64
50760,note_on,,0,0,12,,,,,,,,,,,,,,,15,,,54,64
50760,note_on,,0,0,12,,,,,,,,,,,,,,,15,,,63,64
50760,note_on,,0,0,12,,,,,,,,,,,,,,,15,,,66,64
50760,note_on,,0,0,12,,,,,,,,,,,,,,,15,,,71,64
50760,note_on,,121,0,5,,,,,,,,,,,,,,,0,,,71,64
50760,note_on,,121,0,12,,,,,,,,,,,,,,,15,,,45,64
50760,note_on,,121,0,6,,,,,,,,,,,,,,,1,,,63,64
50760,note_on,,121,0,9,,,,,,,,,,,,,,,11,,,63,64
50760,note_on,,121,0,11,,,,,,,,,,,,,,,13,,,45,64
50879,note_on,,119,0,7,,,,,,,,,,,,,,,2,,,45,0
50879,note_on,,119,0,6,,,,,,,,,,,,,,,1,,,63,0
50879,note_on,,119,0,8,,,,,,,,,,,,,,,10,,,71,0
50879,note_on,,119,0,10,,,,,,,,,,,,,,,12,,,66,0
50879,note_on,,0,0,12,,,,,,,,,,,,,,,15,,,63,0
50879,note_on,,0,0,12,,,,,,,,,,,,,,,15,,,66,0
50879,note_on,,0,0,12,,,,,,,,,,,,,,,15,,,71,0
50879,note_on,,119,0,12,,,,,,,,,,,,,,,15,,,45,0
50879,note_on,,119,0,11,,,,,,,,,,,,,,,13,,,45,0
50879,note_on,,119,0,9,,,,,,,,,,,,,,,11,,,63,0
50879,note_on,,0,0,12,,,,,,,,,,,,,,,15,,,54,0
50879,note_on,,119,0,5,,,,,,,,,,,,,,,0,,,71,0
50880,note_on,,0,0,12,,,,,,,,,,,,,,,15,,,76,64
50880,note_on,,0,0,12,,,,,,,,,,,,,,,15,,,71,64
50880,note_on,,1,0,5,,,,,,,,,,,,,,,0,,,76,64
50880,note_on,,1,0,11,,,,,,,,,,,,,,,13,,,43,64
50880,note_on,,1,0,10,,,,,,,,,,,,,,,12,,,64,64
50880,note_on,,0,0,12,,,,,,,,,,,,,,,15,,,67,64
50880,note_on,,1,0,6,,,,,,,,,,,,,,,1,,,71,64
50880,note_on,,1,0,9,,,,,,,,,,,,,,,11,,,71,64
50880,note_on,,1,0,7,,,,,,,,,,,,,,,2,,,43,64
50880,note_on,,1,0,8,,,,,,,,,,,,,,,10,,,76,64
50880,note_on,,1,0,12,,,,,,,,,,,,,,,15,,,43,64
50880,note_on,,0,0,12,,,,,,,,,,,,,,,15,,,52,64
51059,note_on,,179,0,5,,,,,,,,,,,,,,,0,,,76,0
51059,note_on,,179,0,8,,,,,,,,,,,,,,,10,,,76,0
51060,note_on,,1,0,5,,,,,,,,,,,,,,,0,,,74,64
51060,note_on,,1,0,8,,,,,,,,,,,,,,,10,,,74,64
51089,note_on,,29,0,8,,,,,,,,,,,,,,,10,,,74,0
51089,note_on,,29,0,5,,,,,,,,,,,,,,,0,,,74,0
51090,note_on,,1,0,8,,,,,,,,,,,,,,,10,,,72,64
51090,note_on,,1,0,5,,,,,,,,,,,,,,,0,,,72,64
51119,note_on,,29,0,5,,,,,,,,,,,,,,,0,,,72,0
51119,note_on,,239,0,6,,,,,,,,,,,,,,,1,,,71,0
51119,note_on,,29,0,8,,,,,,,,,,,,,,,10,,,72,0
51119,note_on,,239,0,10,,,,,,,,,,,,,,,12,,,64,0
51119,note_on,,239,0,9,,,,,,,,,,,,,,,11,,,71,0
51120,note_on,,1,0,6,,,,,,,,,,,,,,,1,,,64,64
51120,note_on,,1,0,9,,,,,,,,,,,,,,,11,,,64,64
51120,note_on,,1,0,10,,,,,,,,,,,,,,,12,,,64,64
51120,note_on,,1,0,8,,,,,,,,,,,,,,,10,,,71,64
51120,note_on,,1,0,5,,,,,,,,,,,,,,,0,,,71,64
51239,note_on,,119,0,9,,,,,,,,,,,,,,,11,,,64,0
51239,note_on,,119,0,10,,,,,,,,,,,,,,,12,,,64,0
51239,note_on,,119,0,8,,,,,,,,,,,,,,,10,,,71,0
51239,note_on,,119,0,5,,,,,,,,,,,,,,,0,,,71,0
51239,note_on,,359,0,12,,,,,,,,,,,,,,,15,,,43,0
51239,note_on,,0,0,12,,,,,,,,,,,,,,,15,,,76,0
51239,note_on,,0,0,12,,,,,,,,,,,,,,,15,,,71,0
51239,note_on,,0,0,12,,,,,,,,,,,,,,,15,,,67,0
51239,note_on,,0,0,12,,,,,,,,,,,,,,,15,,,52,0
51239,note_on,,359,0,7,,,,,,,,,,,,,,,2,,,43,0
51239,note_on,,119,0,6,,,,,,,,,,,,,,,1,,,64,0
51239,note_on,,359,0,11,,,,,,,,,,,,,,,13,,,43,0
51240,note_on,,1,0,7,,,,,,,,,,,,,,,2,,,45,64
51240,note_on,,1,0,8,,,,,,,,,,,,,,,10,,,69,64
51240,note_on,,1,0,9,,,,,,,,,,,,,,,11,,,64,64
51240,note_on,,1,0,6,,,,,,,,,,,,,,,1,,,64,64
51240,note_on,,1,0,5,,,,,,,,,,,,,,,0,,,69,64
51240,note_on,,1,0,11,,,,,,,,,,,,,,,13,,,45,64
51240,note_on,,0,0,12,,,,,,,,,,,,,,,15,,,52,64
51240,note_on,,0,0,12,,,,,,,,,,,,,,,15,,,72,64
51240,note_on,,0,0,12,,,,,,,,,,,,,,,15,,,76,64
51240,note_on,,1,0,12,,,,,,,,,,,,,,,15,,,45,64
51240,note_on,,0,0,12,,,,,,,,,,,,,,,15,,,69,64
51240,note_on,,0,0,12,,,,,,,,,,,,,,,15,,,64,64
51240,note_on,,1,0,10,,,,,,,,,,,,,,,12,,,60,64
51359,note_on,,0,0,12,,,,,,,,,,,,,,,15,,,72,0
51359,note_on,,119,0,6,,,,,,,,,,,,,,,1,,,64,0
51359,note_on,,119,0,8,,,,,,,,,,,,,,,10,,,69,0
51359,note_on,,119,0,7,,,,,,,,,,,,,,,2,,,45,0
51359,note_on,,0,0,12,,,,,,,,,,,,,,,15,,,76,0
51359,note_on,,119,0,10,,,,,,,,,,,,,,,12,,,60,0
51359,note_on,,119,0,5,,,,,,,,,,,,,,,0,,,69,0
51359,note_on,,119,0,9,,,,,,,,,,,,,,,11,,,64,0
51359,note_on,,0,0,12,,,,,,,,,,,,,,,15,,,69,0
51359,note_on,,119,0,12,,,,,,,,,,,,,,,15,,,45,0
51359,note_on,,0,0,12,,,,,,,,,,,,,,,15,,,64,0
51359,note_on,,0,0,12,,,,,,,,,,,,,,,15,,,52,0
51359,note_on,,119,0,11,,,,,,,,,,,,,,,13,,,45,0
51360,note_on,,0,0,12,,,,,,,,,,,,,,,15,,,59,64
51360,note_on,,1,0,6,,,,,,,,,,,,,,,1,,,64,64
51360,note_on,,1,0,9,,,,,,,,,,,,,,,11,,,64,64
51360,note_on,,1,0,5,,,,,,,,,,,,,,,0,,,67,64
51360,note_on,,0,0,12,,,,,,,,,,,,,,,15,,,64,64
51360,note_on,,1,0,8,,,,,,,,,,,,,,,10,,,67,64
51360,note_on,,0,0,12,,,,,,,,,,,,,,,15,,,67,64
51360,note_on,,1,0,10,,,,,,,,,,,,,,,12,,,59,64
51360,note_on,,1,0,11,,,,,,,,,,,,,,,13,,,47,64
51360,note_on,,0,0,12,,,,,,,,,,,,,,,15,,,71,64
51360,note_on,,1,0,12,,,,,,,,,,,,,,,15,,,47,64
51360,note_on,,1,0,7,,,,,,,,,,,,,,,2,,,47,64
51360,note_on,,0,0,12,,,,,,,,,,,,,,,15,,,76,64
51539,note_on,,179,0,5,,,,,,,,,,,,,,,0,,,67,0
51539,note_on,,179,0,8,,,,,,,,,,,,,,,10,,,67,0
51540,note_on,,1,0,8,,,,,,,,,,,,,,,10,,,69,64
51540,note_on,,1,0,5,,,,,,,,,,,,,,,0,,,69,64
51599,note_on,,239,0,9,,,,,,,,,,,,,,,11,,,64,0
51599,note_on,,59,0,8,,,,,,,,,,,,,,,10,,,69,0
51599,note_on,,0,0,12,,,,,,,,,,,,,,,15,,,59,0
51599,note_on,,239,0,12,,,,,,,,,,,,,,,15,,,76,0
51599,note_on,,0,0,12,,,,,,,,,,,,,,,15,,,71,0
51599,note_on,,0,0,12,,,,,,,,,,,,,,,15,,,67,0
51599,note_on,,239,0,6,,,,,,,,,,,,,,,1,,,64,0
51599,note_on,,0,0,12,,,,,,,,,,,,,,,15,,,64,0
51599,note_on,,59,0,5,,,,,,,,,,,,,,,0,,,69,0
51600,note_on,,1,0,8,,,,,,,,,,,,,,,10,,,66,64
51600,note_on,,1,0,12,,,,,,,,,,,,,,,15,,,75,64
51600,note_on,,1,0,6,,,,,,,,,,,,,,,1,,,63,64
51600,note_on,,0,0,12,,,,,,,,,,,,,,,15,,,71,64
51600,note_on,,0,0,12,,,,,,,,,,,,,,,15,,,66,64
51600,note_on,,0,0,12,,,,,,,,,,,,,,,15,,,54,64
51600,note_on,,1,0,5,,,,,,,,,,,,,,,0,,,66,64
51600,note_on,,1,0,9,,,,,,,,,,,,,,,11,,,63,64
51614,note_on,,14,0,8,,,,,,,,,,,,,,,10,,,66,0
51614,note_on,,14,0,5,,,,,,,,,,,,,,,0,,,66,0
51615,note_on,,1,0,8,,,,,,,,,,,,,,,10,,,67,64
51615,note_on,,1,0,5,,,,,,,,,,,,,,,0,,,67,64
51629,note_on,,14,0,5,,,,,,,,,,,,,,,0,,,67,0
51629,note_on,,14,0,8,,,,,,,,,,,,,,,10,,,67,0
51630,note_on,,1,0,5,,,,,,,,,,,,,,,0,,,66,64
51630,note_on,,1,0,8,,,,,,,,,,,,,,,10,,,66,64
51644,note_on,,14,0,5,,,,,,,,,,,,,,,0,,,66,0
51644,note_on,,14,0,8,,,,,,,,,,,,,,,10,,,66,0
51645,note_on,,1,0,8,,,,,,,,,,,,,,,10,,,67,64
51645,note_on,,1,0,5,,,,,,,,,,,,,,,0,,,67,64
51659,note_on,,14,0,5,,,,,,,,,,,,,,,0,,,67,0
51659,note_on,,14,0,8,,,,,,,,,,,,,,,10,,,67,0
51660,note_on,,1,0,5,,,,,,,,,,,,,,,0,,,66,64
51660,note_on,,1,0,8,,,,,,,,,,,,,,,10,,,66,64
51674,note_on,,14,0,5,,,,,,,,,,,,,,,0,,,66,0
51674,note_on,,14,0,8,,,,,,,,,,,,,,,10,,,66,0
51675,note_on,,1,0,8,,,,,,,,,,,,,,,10,,,67,64
51675,note_on,,1,0,5,,,,,,,,,,,,,,,0,,,67,64
51689,note_on,,14,0,5,,,,,,,,,,,,,,,0,,,67,0
51689,note_on,,14,0,8,,,,,,,,,,,,,,,10,,,67,0
51690,note_on,,1,0,8,,,,,,,,,,,,,,,10,,,66,64
51690,note_on,,1,0,5,,,,,,,,,,,,,,,0,,,66,64
51704,note_on,,14,0,5,,,,,,,,,,,,,,,0,,,66,0
51704,note_on,,14,0,8,,,,,,,,,,,,,,,10,,,66,0
51705,note_on,,1,0,5,,,,,,,,,,,,,,,0,,,67,64
51705,note_on,,1,0,8,,,,,,,,,,,,,,,10,,,67,64
51719,note_on,,14,0,5,,,,,,,,,,,,,,,0,,,67,0
51719,note_on,,14,0,8,,,,,,,,,,,,,,,10,,,67,0
51719,note_on,,359,0,10,,,,,,,,,,,,,,,12,,,59,0
51720,note_on,,1,0,5,,,,,,,,,,,,,,,0,,,66,64
51720,note_on,,1,0,8,,,,,,,,,,,,,,,10,,,66,64
51720,note_on,,1,0,10,,,,,,,,,,,,,,,12,,,57,64
51734,note_on,,14,0,8,,,,,,,,,,,,,,,10,,,66,0
51734,note_on,,14,0,5,,,,,,,,,,,,,,,0,,,66,0
51735,note_on,,1,0,8,,,,,,,,,,,,,,,10,,,67,64
51735,note_on,,1,0,5,,,,,,,,,,,,,,,0,,,67,64
51749,note_on,,14,0,8,,,,,,,,,,,,,,,10,,,67,0
51749,note_on,,14,0,5,,,,,,,,,,,,,,,0,,,67,0
51750,note_on,,1,0,8,,,,,,,,,,,,,,,10,,,64,64
51750,note_on,,1,0,5,,,,,,,,,,,,,,,0,,,64,64
51764,note_on,,14,0,5,,,,,,,,,,,,,,,0,,,64,0
51764,note_on,,14,0,8,,,,,,,,,,,,,,,10,,,64,0
51765,note_on,,1,0,8,,,,,,,,,,,,,,,10,,,66,64
51765,note_on,,1,0,5,,,,,,,,,,,,,,,0,,,66,64
51779,note_on,,14,0,5,,,,,,,,,,,,,,,0,,,66,0
51779,note_on,,14,0,8,,,,,,,,,,,,,,,10,,,66,0
51780,note_on,,1,0,5,,,,,,,,,,,,,,,0,,,64,64
51780,note_on,,1,0,8,,,,,,,,,,,,,,,10,,,64,64
51839,note_on,,479,0,7,,,,,,,,,,,,,,,2,,,47,0
51839,note_on,,239,0,12,,,,,,,,,,,,,,,15,,,47,0
51839,note_on,,0,0,12,,,,,,,,,,,,,,,15,,,75,0
51839,note_on,,479,0,11,,,,,,,,,,,,,,,13,,,47,0
51839,note_on,,0,0,12,,,,,,,,,,,,,,,15,,,71,0
51839,note_on,,0,0,12,,,,,,,,,,,,,,,15,,,66,0
51839,note_on,,59,0,8,,,,,,,,,,,,,,,10,,,64,0
51839,note_on,,119,0,10,,,,,,,,,,,,,,,12,,,57,0
51839,note_on,,239,0,6,,,,,,,,,,,,,,,1,,,63,0
51839,note_on,,59,0,5,,,,,,,,,,,,,,,0,,,64,0
51839,note_on,,239,0,9,,,,,,,,,,,,,,,11,,,63,0
51839,note_on,,0,0,12,,,,,,,,,,,,,,,15,,,54,0
51840,note_on,,1,0,5,,,,,,,,,,,,,,,0,,,64,64
51840,note_on,,1,0,12,,,,,,,,,,,,,,,15,,,40,64
51840,note_on,,0,0,12,,,,,,,,,,,,,,,15,,,76,64
51840,note_on,,0,0,12,,,,,,,,,,,,,,,15,,,71,64
51840,note_on,,1,0,7,,,,,,,,,,,,,,,2,,,40,64
51840,note_on,,1,0,8,,,,,,,,,,,,,,,10,,,64,64
51840,note_on,,1,0,11,,,,,,,,,,,,,,,13,,,40,64
51840,note_on,,1,0,6,,,,,,,,,,,,,,,1,,,64,64
51840,note_on,,0,0,12,,,,,,,,,,,,,,,15,,,52,64
51840,note_on,,1,0,10,,,,,,,,,,,,,,,12,,,55,64
51840,note_on,,1,0,9,,,,,,,,,,,,,,,11,,,64,64
51840,note_on,,0,0,12,,,,,,,,,,,,,,,15,,,67,64
52319,note_on,,0,0,12,,,,,,,,,,,,,,,15,,,71,0
52319,note_on,,0,0,12,,,,,,,,,,,,,,,15,,,67,0
52319,note_on,,479,0,12,,,,,,,,,,,,,,,15,,,40,0
52319,note_on,,0,0,12,,,,,,,,,,,,,,,15,,,76,0
52319,note_on,,479,0,6,,,,,,,,,,,,,,,1,,,64,0
52319,end_of_track,,0,1,5,,,,,,,,,,,,,,,,,,,
52319,note_on,,479,0,7,,,,,,,,,,,,,,,2,,,40,0
52319,end_of_track,,0,1,7,,,,,,,,,,,,,,,,,,,
52319,note_on,,479,0,8,,,,,,,,,,,,,,,10,,,64,0
52319,end_of_track,,0,1,8,,,,,,,,,,,,,,,,,,,
52319,note_on,,0,0,12,,,,,,,,,,,,,,,15,,,52,0
52319,note_on,,479,0,9,,,,,,,,,,,,,,,11,,,64,0
52319,end_of_track,,0,1,9,,,,,,,,,,,,,,,,,,,
52319,end_of_track,,0,1,12,,,,,,,,,,,,,,,,,,,
52319,note_on,,479,0,5,,,,,,,,,,,,,,,0,,,64,0
52319,end_of_track,,0,1,6,,,,,,,,,,,,,,,,,,,
52319,note_on,,479,0,10,,,,,,,,,,,,,,,12,,,55,0
52319,end_of_track,,0,1,10,,,,,,,,,,,,,,,,,,,
52319,note_on,,479,0,11,,,,,,,,,,,,,,,13,,,40,0
52319,end_of_track,,0,1,11,,,,,,,,,,,,,,,,,,,
52320,set_tempo,,40800,1,0,,,,,,,,,352941,,,,,,,,,,
53280,end_of_track,,0,1,0,,,,,,,,,,,,,,,,,,,
53280,set_tempo,,960,1,0,,,,,,,,,352941,,,,,,,,,,
