tick,type,data,time,meta,track,frame_rate,hours,minutes,seconds,frames,sub_frames,port,key,tempo,numerator,denominator,clocks_per_click,notated_32nd_notes_per_beat,control,value,channel,program,note,velocity
0,sequencer_specific,"(0, 0, 91, 35, 1, 0, 5, 4, 35, 0)",0,1,0,,,,,,,,,,,,,,,,,,,
0,control_change,,0,0,10,,,,,,,,,,,,,,11,127,5,,,
0,control_change,,0,0,10,,,,,,,,,,,,,,10,32,5,,,
0,control_change,,0,0,10,,,,,,,,,,,,,,7,96,5,,,
0,program_change,,0,0,10,,,,,,,,,,,,,,,,5,73,,
0,midi_port,,0,1,14,,,,,,,0,,,,,,,,,,,,
0,track_name,,0,1,11,,,,,,,,,,,,,,,,,,,
0,midi_port,,0,1,10,,,,,,,0,,,,,,,,,,,,
0,midi_port,,0,1,11,,,,,,,0,,,,,,,,,,,,
0,program_change,,0,0,11,,,,,,,,,,,,,,,,6,73,,
0,note_on,,0,0,18,,,,,,,,,,,,,,,,15,,67,56
0,note_on,,0,0,18,,,,,,,,,,,,,,,,15,,63,56
0,note_on,,0,0,18,,,,,,,,,,,,,,,,15,,58,56
0,note_on,,0,0,18,,,,,,,,,,,,,,,,15,,51,56
0,program_change,,0,0,18,,,,,,,,,,,,,,,,15,6,,
0,control_change,,0,0,11,,,,,,,,,,,,,,7,96,6,,,
0,control_change,,0,0,18,,,,,,,,,,,,,,10,90,15,,,
0,track_name,,0,1,10,,,,,,,,,,,,,,,,,,,
0,control_change,,0,0,9,,,,,,,,,,,,,,7,96,7,,,
0,control_change,,0,0,7,,,,,,,,,,,,,,11,127,2,,,
0,control_change,,0,0,7,,,,,,,,,,,,,,7,80,2,,,
0,control_change,,0,0,7,,,,,,,,,,,,,,10,65,2,,,
0,program_change,,0,0,7,,,,,,,,,,,,,,,,2,70,,
0,track_name,,0,1,8,,,,,,,,,,,,,,,,,,,
0,midi_port,,0,1,8,,,,,,,0,,,,,,,,,,,,
0,program_change,,0,0,9,,,,,,,,,,,,,,,,7,70,,
0,control_change,,0,0,8,,,,,,,,,,,,,,11,127,6,,,
0,control_change,,0,0,8,,,,,,,,,,,,,,10,70,6,,,
0,program_change,,0,0,8,,,,,,,,,,,,,,,,6,73,,
0,track_name,,0,1,9,,,,,,,,,,,,,,,,,,,
0,midi_port,,0,1,9,,,,,,,0,,,,,,,,,,,,
0,control_change,,0,0,9,,,,,,,,,,,,,,11,127,7,,,
0,control_change,,0,0,9,,,,,,,,,,,,,,10,80,7,,,
0,control_change,,0,0,8,,,,,,,,,,,,,,7,96,6,,,
0,control_change,,0,0,18,,,,,,,,,,,,,,7,96,15,,,
0,control_change,,0,0,18,,,,,,,,,,,,,,11,127,15,,,
0,midi_port,,0,1,18,,,,,,,0,,,,,,,,,,,,
0,control_change,,0,0,13,,,,,,,,,,,,,,11,127,8,,,
0,control_change,,0,0,13,,,,,,,,,,,,,,7,96,8,,,
0,control_change,,0,0,13,,,,,,,,,,,,,,10,80,8,,,
0,program_change,,0,0,13,,,,,,,,,,,,,,,,8,60,,
0,program_change,,0,0,15,,,,,,,,,,,,,,,,11,48,,
0,control_change,,0,0,15,,,,,,,,,,,,,,10,24,11,,,
0,midi_port,,0,1,13,,,,,,,0,,,,,,,,,,,,
0,control_change,,0,0,15,,,,,,,,,,,,,,7,96,11,,,
0,midi_port,,0,1,15,,,,,,,0,,,,,,,,,,,,
0,track_name,,0,1,15,,,,,,,,,,,,,,,,,,,
0,program_change,,0,0,14,,,,,,,,,,,,,,,,10,48,,
0,control_change,,0,0,14,,,,,,,,,,,,,,10,48,10,,,
0,control_change,,0,0,14,,,,,,,,,,,,,,7,96,10,,,
0,control_change,,0,0,14,,,,,,,,,,,,,,11,127,10,,,
0,control_change,,0,0,15,,,,,,,,,,,,,,11,127,11,,,
0,track_name,,0,1,13,,,,,,,,,,,,,,,,,,,
0,track_name,,0,1,16,,,,,,,,,,,,,,,,,,,
0,midi_port,,0,1,16,,,,,,,0,,,,,,,,,,,,
0,track_name,,0,1,18,,,,,,,,,,,,,,,,,,,
0,track_name,,0,1,12,,,,,,,,,,,,,,,,,,,
0,midi_port,,0,1,12,,,,,,,0,,,,,,,,,,,,
0,control_change,,0,0,12,,,,,,,,,,,,,,7,96,7,,,
0,program_change,,0,0,12,,,,,,,,,,,,,,,,7,70,,
0,program_change,,0,0,17,,,,,,,,,,,,,,,,13,48,,
0,control_change,,0,0,17,,,,,,,,,,,,,,10,96,13,,,
0,control_change,,0,0,17,,,,,,,,,,,,,,7,96,13,,,
0,control_change,,0,0,17,,,,,,,,,,,,,,11,127,13,,,
0,midi_port,,0,1,17,,,,,,,0,,,,,,,,,,,,
0,track_name,,0,1,17,,,,,,,,,,,,,,,,,,,
0,program_change,,0,0,16,,,,,,,,,,,,,,,,12,48,,
0,control_change,,0,0,16,,,,,,,,,,,,,,10,80,12,,,
0,control_change,,0,0,16,,,,,,,,,,,,,,7,96,12,,,
0,control_change,,0,0,16,,,,,,,,,,,,,,11,127,12,,,
0,midi_port,,0,1,7,,,,,,,0,,,,,,,,,,,,
0,track_name,,0,1,7,,,,,,,,,,,,,,,,,,,
0,track_name,,0,1,14,,,,,,,,,,,,,,,,,,,
0,key_signature,,0,1,0,,,,,,,,Eb,,,,,,,,,,,
0,end_of_track,,0,1,5,,,,,,,,,,,,,,,,,,,
0,track_name,,0,1,6,,,,,,,,,,,,,,,,,,,
0,midi_port,,0,1,6,,,,,,,0,,,,,,,,,,,,
0,control_change,,0,0,6,,,,,,,,,,,,,,11,127,1,,,
0,control_change,,0,0,6,,,,,,,,,,,,,,7,72,1,,,
0,end_of_track,,0,1,4,,,,,,,,,,,,,,,,,,,
0,midi_port,,0,1,4,,,,,,,0,,,,,,,,,,,,
0,track_name,,0,1,4,,,,,,,,,,,,,,,,,,,
0,end_of_track,,0,1,3,,,,,,,,,,,,,,,,,,,
0,midi_port,,0,1,3,,,,,,,0,,,,,,,,,,,,
0,program_change,,0,0,6,,,,,,,,,,,,,,,,1,68,,
0,control_change,,0,0,6,,,,,,,,,,,,,,10,70,1,,,
0,track_name,,0,1,3,,,,,,,,,,,,,,,,,,,
0,end_of_track,,0,1,2,,,,,,,,,,,,,,,,,,,
0,midi_port,,0,1,2,,,,,,,0,,,,,,,,,,,,
0,track_name,,0,1,2,,,,,,,,,,,,,,,,,,,
0,set_tempo,,0,1,0,,,,,,,,,705882,,,,,,,,,,
0,time_signature,,0,1,0,,,,,,,,,,4,4,24,8,,,,,,
0,end_of_track,,0,1,1,,,,,,,,,,,,,,,,,,,
0,midi_port,,0,1,5,,,,,,,0,,,,,,,,,,,,
0,midi_port,,0,1,1,,,,,,,0,,,,,,,,,,,,
0,track_name,,0,1,1,,,,,,,,,,,,,,,,,,,
0,track_name,,0,1,0,,,,,,,,,,,,,,,,,,,
0,instrument_name,,0,1,0,,,,,,,,,,,,,,,,,,,
0,smpte_offset,,0,1,0,25,32,0,3,0,0,,,,,,,,,,,,,
0,midi_port,,0,1,0,,,,,,,0,,,,,,,,,,,,
59,note_on,,59,0,18,,,,,,,,,,,,,,,,15,,51,0
60,note_on,,1,0,18,,,,,,,,,,,,,,,,15,,53,56
119,note_on,,0,0,18,,,,,,,,,,,,,,,,15,,67,0
119,note_on,,0,0,18,,,,,,,,,,,,,,,,15,,63,0
119,note_on,,59,0,18,,,,,,,,,,,,,,,,15,,58,0
119,note_on,,0,0,18,,,,,,,,,,,,,,,,15,,53,0
120,note_on,,0,0,18,,,,,,,,,,,,,,,,15,,75,56
120,note_on,,0,0,18,,,,,,,,,,,,,,,,15,,63,56
120,note_on,,1,0,18,,,,,,,,,,,,,,,,15,,70,56
120,note_on,,0,0,18,,,,,,,,,,,,,,,,15,,55,56
179,note_on,,59,0,18,,,,,,,,,,,,,,,,15,,55,0
180,note_on,,1,0,18,,,,,,,,,,,,,,,,15,,51,56
180,note_on,,180,0,8,,,,,,,,,,,,,,,,6,,63,64
239,note_on,,59,0,18,,,,,,,,,,,,,,,,15,,70,0
239,note_on,,0,0,18,,,,,,,,,,,,,,,,15,,63,0
239,note_on,,0,0,18,,,,,,,,,,,,,,,,15,,51,0
239,note_on,,59,0,8,,,,,,,,,,,,,,,,6,,63,0
240,note_on,,1,0,8,,,,,,,,,,,,,,,,6,,65,64
240,note_on,,0,0,18,,,,,,,,,,,,,,,,15,,65,56
240,note_on,,0,0,18,,,,,,,,,,,,,,,,15,,56,56
240,note_on,,1,0,18,,,,,,,,,,,,,,,,15,,68,56
299,note_on,,59,0,18,,,,,,,,,,,,,,,,15,,56,0
300,note_on,,1,0,18,,,,,,,,,,,,,,,,15,,53,56
359,note_on,,119,0,8,,,,,,,,,,,,,,,,6,,65,0
359,note_on,,0,0,18,,,,,,,,,,,,,,,,15,,65,0
359,note_on,,0,0,18,,,,,,,,,,,,,,,,15,,53,0
359,note_on,,59,0,18,,,,,,,,,,,,,,,,15,,75,0
360,note_on,,1,0,18,,,,,,,,,,,,,,,,15,,74,56
360,note_on,,0,0,18,,,,,,,,,,,,,,,,15,,58,56
360,note_on,,0,0,18,,,,,,,,,,,,,,,,15,,65,56
419,note_on,,59,0,18,,,,,,,,,,,,,,,,15,,58,0
420,note_on,,61,0,8,,,,,,,,,,,,,,,,6,,65,64
420,note_on,,1,0,18,,,,,,,,,,,,,,,,15,,46,56
479,note_on,,0,0,18,,,,,,,,,,,,,,,,15,,74,0
479,note_on,,59,0,18,,,,,,,,,,,,,,,,15,,68,0
479,note_on,,0,0,18,,,,,,,,,,,,,,,,15,,46,0
479,note_on,,59,0,8,,,,,,,,,,,,,,,,6,,65,0
479,note_on,,0,0,18,,,,,,,,,,,,,,,,15,,65,0
480,note_on,,0,0,18,,,,,,,,,,,,,,,,15,,67,56
480,note_on,,0,0,18,,,,,,,,,,,,,,,,15,,63,56
480,note_on,,1,0,18,,,,,,,,,,,,,,,,15,,75,56
480,note_on,,1,0,8,,,,,,,,,,,,,,,,6,,67,64
480,note_on,,0,0,18,,,,,,,,,,,,,,,,15,,51,56
539,note_on,,59,0,18,,,,,,,,,,,,,,,,15,,51,0
540,note_on,,1,0,18,,,,,,,,,,,,,,,,15,,48,56
599,note_on,,0,0,18,,,,,,,,,,,,,,,,15,,48,0
599,note_on,,0,0,18,,,,,,,,,,,,,,,,15,,63,0
599,note_on,,59,0,18,,,,,,,,,,,,,,,,15,,67,0
599,note_on,,119,0,8,,,,,,,,,,,,,,,,6,,67,0
600,note_on,,1,0,18,,,,,,,,,,,,,,,,15,,53,56
600,note_on,,0,0,18,,,,,,,,,,,,,,,,15,,60,56
600,note_on,,1,0,8,,,,,,,,,,,,,,,,6,,68,64
600,note_on,,0,0,18,,,,,,,,,,,,,,,,15,,68,56
659,note_on,,59,0,18,,,,,,,,,,,,,,,,15,,53,0
660,note_on,,1,0,18,,,,,,,,,,,,,,,,15,,51,56
719,note_on,,119,0,8,,,,,,,,,,,,,,,,6,,68,0
719,note_on,,0,0,18,,,,,,,,,,,,,,,,15,,68,0
719,note_on,,59,0,18,,,,,,,,,,,,,,,,15,,75,0
719,note_on,,0,0,18,,,,,,,,,,,,,,,,15,,51,0
719,note_on,,0,0,18,,,,,,,,,,,,,,,,15,,60,0
720,note_on,,0,0,18,,,,,,,,,,,,,,,,15,,70,56
720,note_on,,0,0,18,,,,,,,,,,,,,,,,15,,58,56
720,note_on,,0,0,18,,,,,,,,,,,,,,,,15,,65,56
720,note_on,,1,0,18,,,,,,,,,,,,,,,,15,,50,56
779,note_on,,0,0,18,,,,,,,,,,,,,,,,15,,58,0
779,note_on,,0,0,18,,,,,,,,,,,,,,,,15,,65,0
779,note_on,,59,0,18,,,,,,,,,,,,,,,,15,,50,0
780,note_on,,0,0,18,,,,,,,,,,,,,,,,15,,67,56
780,note_on,,1,0,18,,,,,,,,,,,,,,,,15,,51,56
780,note_on,,61,0,8,,,,,,,,,,,,,,,,6,,67,64
780,note_on,,0,0,18,,,,,,,,,,,,,,,,15,,63,56
839,note_on,,59,0,8,,,,,,,,,,,,,,,,6,,67,0
839,note_on,,0,0,18,,,,,,,,,,,,,,,,15,,51,0
839,note_on,,0,0,18,,,,,,,,,,,,,,,,15,,67,0
839,note_on,,0,0,18,,,,,,,,,,,,,,,,15,,63,0
839,note_on,,59,0,18,,,,,,,,,,,,,,,,15,,70,0
840,note_on,,1,0,18,,,,,,,,,,,,,,,,15,,72,56
840,note_on,,0,0,18,,,,,,,,,,,,,,,,15,,63,56
840,note_on,,0,0,18,,,,,,,,,,,,,,,,15,,68,56
840,note_on,,0,0,18,,,,,,,,,,,,,,,,15,,56,56
840,note_on,,1,0,8,,,,,,,,,,,,,,,,6,,65,64
899,note_on,,59,0,18,,,,,,,,,,,,,,,,15,,56,0
899,note_on,,59,0,8,,,,,,,,,,,,,,,,6,,65,0
900,note_on,,1,0,8,,,,,,,,,,,,,,,,6,,63,64
900,note_on,,1,0,18,,,,,,,,,,,,,,,,15,,60,56
959,note_on,,0,0,18,,,,,,,,,,,,,,,,15,,63,0
959,note_on,,59,0,18,,,,,,,,,,,,,,,,15,,72,0
959,note_on,,59,0,8,,,,,,,,,,,,,,,,6,,63,0
959,note_on,,0,0,18,,,,,,,,,,,,,,,,15,,60,0
959,note_on,,0,0,18,,,,,,,,,,,,,,,,15,,68,0
960,note_on,,1,0,18,,,,,,,,,,,,,,,,15,,65,56
960,note_on,,0,0,18,,,,,,,,,,,,,,,,15,,62,56
960,note_on,,0,0,18,,,,,,,,,,,,,,,,15,,58,56
960,note_on,,1,0,8,,,,,,,,,,,,,,,,6,,70,64
1019,note_on,,59,0,8,,,,,,,,,,,,,,,,6,,70,0
1019,note_on,,59,0,18,,,,,,,,,,,,,,,,15,,58,0
1020,note_on,,1,0,18,,,,,,,,,,,,,,,,15,,57,56
1020,note_on,,1,0,8,,,,,,,,,,,,,,,,6,,65,64
1079,note_on,,59,0,18,,,,,,,,,,,,,,,,15,,65,0
1079,note_on,,0,0,18,,,,,,,,,,,,,,,,15,,62,0
1079,note_on,,0,0,18,,,,,,,,,,,,,,,,15,,57,0
1079,note_on,,59,0,8,,,,,,,,,,,,,,,,6,,65,0
1080,note_on,,1,0,8,,,,,,,,,,,,,,,,6,,70,64
1080,note_on,,0,0,18,,,,,,,,,,,,,,,,15,,70,56
1080,note_on,,0,0,18,,,,,,,,,,,,,,,,15,,55,56
1080,note_on,,1,0,18,,,,,,,,,,,,,,,,15,,62,56
1139,note_on,,59,0,18,,,,,,,,,,,,,,,,15,,55,0
1140,note_on,,1140,0,9,,,,,,,,,,,,,,,,7,,58,64
1140,note_on,,1,0,18,,,,,,,,,,,,,,,,15,,50,56
1199,note_on,,59,0,18,,,,,,,,,,,,,,,,15,,62,0
1199,note_on,,0,0,18,,,,,,,,,,,,,,,,15,,70,0
1199,note_on,,0,0,18,,,,,,,,,,,,,,,,15,,50,0
1199,note_on,,59,0,9,,,,,,,,,,,,,,,,7,,58,0
1199,note_on,,119,0,8,,,,,,,,,,,,,,,,6,,70,0
1200,note_on,,0,0,18,,,,,,,,,,,,,,,,15,,60,56
1200,note_on,,1,0,9,,,,,,,,,,,,,,,,7,,60,64
1200,note_on,,1,0,18,,,,,,,,,,,,,,,,15,,51,56
1200,note_on,,0,0,18,,,,,,,,,,,,,,,,15,,67,56
1259,note_on,,59,0,18,,,,,,,,,,,,,,,,15,,51,0
1260,note_on,,61,0,8,,,,,,,,,,,,,,,,6,,70,64
1260,note_on,,1,0,18,,,,,,,,,,,,,,,,15,,48,56
1319,note_on,,119,0,9,,,,,,,,,,,,,,,,7,,60,0
1319,note_on,,59,0,8,,,,,,,,,,,,,,,,6,,70,0
1319,note_on,,59,0,18,,,,,,,,,,,,,,,,15,,60,0
1319,note_on,,0,0,18,,,,,,,,,,,,,,,,15,,48,0
1319,note_on,,0,0,18,,,,,,,,,,,,,,,,15,,67,0
1320,note_on,,0,0,18,,,,,,,,,,,,,,,,15,,53,56
1320,note_on,,0,0,18,,,,,,,,,,,,,,,,15,,57,56
1320,note_on,,0,0,18,,,,,,,,,,,,,,,,15,,60,56
1320,note_on,,1,0,18,,,,,,,,,,,,,,,,15,,65,56
1320,note_on,,1,0,8,,,,,,,,,,,,,,,,6,,69,64
1379,note_on,,59,0,18,,,,,,,,,,,,,,,,15,,53,0
1380,note_on,,1,0,18,,,,,,,,,,,,,,,,15,,41,56
1380,note_on,,61,0,9,,,,,,,,,,,,,,,,7,,60,64
1409,note_on,,89,0,8,,,,,,,,,,,,,,,,6,,69,0
1410,note_on,,1,0,8,,,,,,,,,,,,,,,,6,,69,64
1439,note_on,,59,0,18,,,,,,,,,,,,,,,,15,,60,0
1439,note_on,,59,0,9,,,,,,,,,,,,,,,,7,,60,0
1439,note_on,,29,0,8,,,,,,,,,,,,,,,,6,,69,0
1439,note_on,,0,0,18,,,,,,,,,,,,,,,,15,,57,0
1439,note_on,,0,0,18,,,,,,,,,,,,,,,,15,,41,0
1440,note_on,,1,0,18,,,,,,,,,,,,,,,,15,,58,56
1440,note_on,,0,0,18,,,,,,,,,,,,,,,,15,,62,56
1440,note_on,,0,0,18,,,,,,,,,,,,,,,,15,,46,56
1440,note_on,,1,0,8,,,,,,,,,,,,,,,,6,,70,64
1440,note_on,,1,0,9,,,,,,,,,,,,,,,,7,,62,64
1499,note_on,,59,0,18,,,,,,,,,,,,,,,,15,,46,0
1500,note_on,,1,0,18,,,,,,,,,,,,,,,,15,,43,56
1559,note_on,,0,0,18,,,,,,,,,,,,,,,,15,,58,0
1559,note_on,,119,0,9,,,,,,,,,,,,,,,,7,,62,0
1559,note_on,,0,0,18,,,,,,,,,,,,,,,,15,,62,0
1559,note_on,,59,0,18,,,,,,,,,,,,,,,,15,,65,0
1559,note_on,,119,0,8,,,,,,,,,,,,,,,,6,,70,0
1559,note_on,,0,0,18,,,,,,,,,,,,,,,,15,,43,0
1560,note_on,,1,0,18,,,,,,,,,,,,,,,,15,,48,56
1560,note_on,,0,0,18,,,,,,,,,,,,,,,,15,,63,56
1560,note_on,,0,0,18,,,,,,,,,,,,,,,,15,,55,56
1560,note_on,,1,0,9,,,,,,,,,,,,,,,,7,,63,64
1560,note_on,,0,0,18,,,,,,,,,,,,,,,,15,,67,56
1619,note_on,,59,0,18,,,,,,,,,,,,,,,,15,,48,0
1620,note_on,,1,0,18,,,,,,,,,,,,,,,,15,,46,56
1679,note_on,,59,0,18,,,,,,,,,,,,,,,,15,,55,0
1679,note_on,,0,0,18,,,,,,,,,,,,,,,,15,,46,0
1679,note_on,,0,0,18,,,,,,,,,,,,,,,,15,,67,0
1679,note_on,,0,0,18,,,,,,,,,,,,,,,,15,,63,0
1679,note_on,,119,0,9,,,,,,,,,,,,,,,,7,,63,0
1680,note_on,,0,0,18,,,,,,,,,,,,,,,,15,,45,56
1680,note_on,,0,0,18,,,,,,,,,,,,,,,,15,,65,56
1680,note_on,,1,0,18,,,,,,,,,,,,,,,,15,,60,56
1739,note_on,,59,0,18,,,,,,,,,,,,,,,,15,,45,0
1740,note_on,,1,0,18,,,,,,,,,,,,,,,,15,,46,56
1740,note_on,,61,0,9,,,,,,,,,,,,,,,,7,,62,64
1799,note_on,,0,0,18,,,,,,,,,,,,,,,,15,,46,0
1799,note_on,,59,0,9,,,,,,,,,,,,,,,,7,,62,0
1799,note_on,,59,0,18,,,,,,,,,,,,,,,,15,,60,0
1799,note_on,,0,0,18,,,,,,,,,,,,,,,,15,,65,0
1800,note_on,,1,0,18,,,,,,,,,,,,,,,,15,,63,56
1800,note_on,,0,0,18,,,,,,,,,,,,,,,,15,,58,56
1800,note_on,,0,0,18,,,,,,,,,,,,,,,,15,,67,56
1800,note_on,,1,0,9,,,,,,,,,,,,,,,,7,,60,64
1800,note_on,,0,0,18,,,,,,,,,,,,,,,,15,,51,56
1859,note_on,,59,0,9,,,,,,,,,,,,,,,,7,,60,0
1859,note_on,,59,0,18,,,,,,,,,,,,,,,,15,,51,0
1860,note_on,,1,0,18,,,,,,,,,,,,,,,,15,,55,56
1860,note_on,,1,0,9,,,,,,,,,,,,,,,,7,,58,64
1919,note_on,,59,0,18,,,,,,,,,,,,,,,,15,,63,0
1919,note_on,,0,0,18,,,,,,,,,,,,,,,,15,,67,0
1919,note_on,,0,0,18,,,,,,,,,,,,,,,,15,,55,0
1919,note_on,,59,0,9,,,,,,,,,,,,,,,,7,,58,0
1919,note_on,,0,0,18,,,,,,,,,,,,,,,,15,,58,0
1920,note_on,,1,0,18,,,,,,,,,,,,,,,,15,,53,56
1920,note_on,,1,0,9,,,,,,,,,,,,,,,,7,,65,64
1920,note_on,,0,0,18,,,,,,,,,,,,,,,,15,,57,56
1920,note_on,,0,0,18,,,,,,,,,,,,,,,,15,,60,56
1979,note_on,,0,0,18,,,,,,,,,,,,,,,,15,,57,0
1979,note_on,,59,0,18,,,,,,,,,,,,,,,,15,,53,0
1980,note_on,,1,0,18,,,,,,,,,,,,,,,,15,,55,56
1980,note_on,,0,0,18,,,,,,,,,,,,,,,,15,,58,56
2009,note_on,,89,0,9,,,,,,,,,,,,,,,,7,,65,0
2010,note_on,,1,0,9,,,,,,,,,,,,,,,,7,,53,64
2039,note_on,,29,0,9,,,,,,,,,,,,,,,,7,,53,0
2039,note_on,,59,0,18,,,,,,,,,,,,,,,,15,,60,0
2039,note_on,,0,0,18,,,,,,,,,,,,,,,,15,,55,0
2039,note_on,,0,0,18,,,,,,,,,,,,,,,,15,,58,0
2040,note_on,,1,0,18,,,,,,,,,,,,,,,,15,,65,56
2040,note_on,,1,0,9,,,,,,,,,,,,,,,,7,,53,64
2040,note_on,,0,0,18,,,,,,,,,,,,,,,,15,,57,56
2040,note_on,,0,0,18,,,,,,,,,,,,,,,,15,,60,56
2099,note_on,,59,0,18,,,,,,,,,,,,,,,,15,,57,0
2099,note_on,,0,0,18,,,,,,,,,,,,,,,,15,,60,0
2100,note_on,,541,0,8,,,,,,,,,,,,,,,,6,,62,64
2100,note_on,,1,0,18,,,,,,,,,,,,,,,,15,,58,56
2100,note_on,,0,0,18,,,,,,,,,,,,,,,,15,,62,56
2159,note_on,,59,0,8,,,,,,,,,,,,,,,,6,,62,0
2159,note_on,,59,0,18,,,,,,,,,,,,,,,,15,,65,0
2159,note_on,,0,0,18,,,,,,,,,,,,,,,,15,,58,0
2159,note_on,,119,0,9,,,,,,,,,,,,,,,,7,,53,0
2159,note_on,,0,0,18,,,,,,,,,,,,,,,,15,,62,0
2160,note_on,,1,0,8,,,,,,,,,,,,,,,,6,,63,64
2160,note_on,,0,0,18,,,,,,,,,,,,,,,,15,,67,56
2160,note_on,,0,0,18,,,,,,,,,,,,,,,,15,,55,56
2160,note_on,,1,0,18,,,,,,,,,,,,,,,,15,,58,56
2160,note_on,,0,0,18,,,,,,,,,,,,,,,,15,,63,56
2219,note_on,,0,0,18,,,,,,,,,,,,,,,,15,,55,0
2219,note_on,,59,0,18,,,,,,,,,,,,,,,,15,,58,0
2219,note_on,,59,0,8,,,,,,,,,,,,,,,,6,,63,0
2219,note_on,,0,0,18,,,,,,,,,,,,,,,,15,,63,0
2220,note_on,,61,0,9,,,,,,,,,,,,,,,,7,,60,64
2220,note_on,,1,0,8,,,,,,,,,,,,,,,,6,,63,64
2220,note_on,,0,0,18,,,,,,,,,,,,,,,,15,,48,56
2220,note_on,,1,0,18,,,,,,,,,,,,,,,,15,,63,56
2279,note_on,,59,0,8,,,,,,,,,,,,,,,,6,,63,0
2279,note_on,,0,0,18,,,,,,,,,,,,,,,,15,,48,0
2279,note_on,,59,0,18,,,,,,,,,,,,,,,,15,,67,0
2279,note_on,,59,0,9,,,,,,,,,,,,,,,,7,,60,0
2279,note_on,,0,0,18,,,,,,,,,,,,,,,,15,,63,0
2280,note_on,,0,0,18,,,,,,,,,,,,,,,,15,,60,56
2280,note_on,,0,0,18,,,,,,,,,,,,,,,,15,,45,56
2280,note_on,,1,0,18,,,,,,,,,,,,,,,,15,,65,56
2280,note_on,,1,0,8,,,,,,,,,,,,,,,,6,,60,64
2280,note_on,,1,0,9,,,,,,,,,,,,,,,,7,,65,64
2339,note_on,,59,0,8,,,,,,,,,,,,,,,,6,,60,0
2339,note_on,,59,0,9,,,,,,,,,,,,,,,,7,,65,0
2339,note_on,,59,0,18,,,,,,,,,,,,,,,,15,,45,0
2340,note_on,,1,0,8,,,,,,,,,,,,,,,,6,,69,64
2340,note_on,,1,0,9,,,,,,,,,,,,,,,,7,,63,64
2340,note_on,,1,0,18,,,,,,,,,,,,,,,,15,,41,56
2340,note_on,,0,0,18,,,,,,,,,,,,,,,,15,,57,56
2399,note_on,,0,0,18,,,,,,,,,,,,,,,,15,,41,0
2399,note_on,,59,0,9,,,,,,,,,,,,,,,,7,,63,0
2399,note_on,,59,0,8,,,,,,,,,,,,,,,,6,,69,0
2399,note_on,,59,0,18,,,,,,,,,,,,,,,,15,,65,0
2399,note_on,,0,0,18,,,,,,,,,,,,,,,,15,,60,0
2399,note_on,,0,0,18,,,,,,,,,,,,,,,,15,,57,0
2400,note_on,,1,0,8,,,,,,,,,,,,,,,,6,,70,64
2400,note_on,,0,0,18,,,,,,,,,,,,,,,,15,,58,56
2400,note_on,,0,0,18,,,,,,,,,,,,,,,,15,,62,56
2400,note_on,,0,0,18,,,,,,,,,,,,,,,,15,,46,56
2400,note_on,,1,0,9,,,,,,,,,,,,,,,,7,,62,64
2400,note_on,,1,0,18,,,,,,,,,,,,,,,,15,,53,56
2459,note_on,,59,0,18,,,,,,,,,,,,,,,,15,,46,0
2460,note_on,,1,0,18,,,,,,,,,,,,,,,,15,,48,56
2489,note_on,,89,0,8,,,,,,,,,,,,,,,,6,,70,0
2489,note_on,,89,0,9,,,,,,,,,,,,,,,,7,,62,0
2490,note_on,,1,0,8,,,,,,,,,,,,,,,,6,,65,64
2490,note_on,,1,0,9,,,,,,,,,,,,,,,,7,,60,64
2519,note_on,,59,0,18,,,,,,,,,,,,,,,,15,,53,0
2519,note_on,,0,0,18,,,,,,,,,,,,,,,,15,,62,0
2519,note_on,,0,0,18,,,,,,,,,,,,,,,,15,,58,0
2519,note_on,,0,0,18,,,,,,,,,,,,,,,,15,,48,0
2519,note_on,,29,0,8,,,,,,,,,,,,,,,,6,,65,0
2519,note_on,,29,0,9,,,,,,,,,,,,,,,,7,,60,0
2520,note_on,,1,0,8,,,,,,,,,,,,,,,,6,,65,64
2520,note_on,,0,0,18,,,,,,,,,,,,,,,,15,,65,56
2520,note_on,,0,0,18,,,,,,,,,,,,,,,,15,,50,56
2520,note_on,,1,0,18,,,,,,,,,,,,,,,,15,,58,56
2520,note_on,,1,0,9,,,,,,,,,,,,,,,,7,,58,64
2579,note_on,,0,0,18,,,,,,,,,,,,,,,,15,,50,0
2579,note_on,,59,0,18,,,,,,,,,,,,,,,,15,,58,0
2579,note_on,,59,0,8,,,,,,,,,,,,,,,,6,,65,0
2580,note_on,,1,0,8,,,,,,,,,,,,,,,,6,,62,64
2580,note_on,,0,0,18,,,,,,,,,,,,,,,,15,,46,56
2580,note_on,,1,0,18,,,,,,,,,,,,,,,,15,,62,56
2639,note_on,,59,0,8,,,,,,,,,,,,,,,,6,,62,0
2639,note_on,,119,0,9,,,,,,,,,,,,,,,,7,,58,0
2639,note_on,,59,0,18,,,,,,,,,,,,,,,,15,,65,0
2639,note_on,,0,0,18,,,,,,,,,,,,,,,,15,,62,0
2639,note_on,,0,0,18,,,,,,,,,,,,,,,,15,,46,0
2640,note_on,,0,0,18,,,,,,,,,,,,,,,,15,,58,56
2640,note_on,,1,0,18,,,,,,,,,,,,,,,,15,,43,56
2640,note_on,,0,0,18,,,,,,,,,,,,,,,,15,,63,56
2640,note_on,,0,0,18,,,,,,,,,,,,,,,,15,,70,56
2640,note_on,,1,0,8,,,,,,,,,,,,,,,,6,,58,64
2699,note_on,,59,0,18,,,,,,,,,,,,,,,,15,,43,0
2700,note_on,,61,0,9,,,,,,,,,,,,,,,,7,,58,64
2700,note_on,,1,0,18,,,,,,,,,,,,,,,,15,,55,56
2759,note_on,,59,0,9,,,,,,,,,,,,,,,,7,,58,0
2759,note_on,,0,0,18,,,,,,,,,,,,,,,,15,,55,0
2759,note_on,,0,0,18,,,,,,,,,,,,,,,,15,,58,0
2759,note_on,,0,0,18,,,,,,,,,,,,,,,,15,,70,0
2759,note_on,,59,0,18,,,,,,,,,,,,,,,,15,,63,0
2759,note_on,,119,0,8,,,,,,,,,,,,,,,,6,,58,0
2760,note_on,,1,0,9,,,,,,,,,,,,,,,,7,,63,64
2760,note_on,,1,0,18,,,,,,,,,,,,,,,,15,,60,56
2760,note_on,,0,0,18,,,,,,,,,,,,,,,,15,,63,56
2760,note_on,,0,0,18,,,,,,,,,,,,,,,,15,,67,56
2819,note_on,,59,0,18,,,,,,,,,,,,,,,,15,,60,0
2820,note_on,,1,0,18,,,,,,,,,,,,,,,,15,,58,56
2820,note_on,,61,0,8,,,,,,,,,,,,,,,,6,,58,64
2879,note_on,,119,0,9,,,,,,,,,,,,,,,,7,,63,0
2879,note_on,,59,0,8,,,,,,,,,,,,,,,,6,,58,0
2879,note_on,,0,0,18,,,,,,,,,,,,,,,,15,,67,0
2879,note_on,,0,0,18,,,,,,,,,,,,,,,,15,,58,0
2879,note_on,,59,0,18,,,,,,,,,,,,,,,,15,,63,0
2880,note_on,,1,0,18,,,,,,,,,,,,,,,,15,,68,56
2880,note_on,,0,0,18,,,,,,,,,,,,,,,,15,,63,56
2880,note_on,,0,0,18,,,,,,,,,,,,,,,,15,,72,56
2880,note_on,,0,0,18,,,,,,,,,,,,,,,,15,,65,56
2880,note_on,,0,0,18,,,,,,,,,,,,,,,,15,,56,56
2880,note_on,,1,0,8,,,,,,,,,,,,,,,,6,,65,64
2939,note_on,,59,0,18,,,,,,,,,,,,,,,,15,,56,0
2940,note_on,,1,0,18,,,,,,,,,,,,,,,,15,,53,56
2999,note_on,,0,0,18,,,,,,,,,,,,,,,,15,,53,0
2999,note_on,,0,0,18,,,,,,,,,,,,,,,,15,,65,0
2999,note_on,,0,0,18,,,,,,,,,,,,,,,,15,,72,0
2999,note_on,,59,0,18,,,,,,,,,,,,,,,,15,,68,0
2999,note_on,,0,0,18,,,,,,,,,,,,,,,,15,,63,0
2999,note_on,,119,0,8,,,,,,,,,,,,,,,,6,,65,0
3000,note_on,,121,0,9,,,,,,,,,,,,,,,,7,,62,64
3000,note_on,,0,0,18,,,,,,,,,,,,,,,,15,,70,56
3000,note_on,,0,0,18,,,,,,,,,,,,,,,,15,,58,56
3000,note_on,,0,0,18,,,,,,,,,,,,,,,,15,,65,56
3000,note_on,,1,0,18,,,,,,,,,,,,,,,,15,,62,56
3059,note_on,,59,0,18,,,,,,,,,,,,,,,,15,,58,0
3060,note_on,,1,0,18,,,,,,,,,,,,,,,,15,,46,56
3060,note_on,,61,0,8,,,,,,,,,,,,,,,,6,,65,64
3119,note_on,,0,0,18,,,,,,,,,,,,,,,,15,,65,0
3119,note_on,,59,0,18,,,,,,,,,,,,,,,,15,,62,0
3119,note_on,,59,0,8,,,,,,,,,,,,,,,,6,,65,0
3119,note_on,,119,0,9,,,,,,,,,,,,,,,,7,,62,0
3119,note_on,,0,0,18,,,,,,,,,,,,,,,,15,,46,0
3120,note_on,,1,0,8,,,,,,,,,,,,,,,,6,,67,64
3120,note_on,,1,0,18,,,,,,,,,,,,,,,,15,,39,56
3120,note_on,,0,0,18,,,,,,,,,,,,,,,,15,,63,56
3120,note_on,,0,0,18,,,,,,,,,,,,,,,,15,,67,56
3179,note_on,,59,0,18,,,,,,,,,,,,,,,,15,,39,0
3180,note_on,,61,0,9,,,,,,,,,,,,,,,,7,,62,64
3180,note_on,,1,0,18,,,,,,,,,,,,,,,,15,,51,56
3239,note_on,,59,0,18,,,,,,,,,,,,,,,,15,,70,0
3239,note_on,,0,0,18,,,,,,,,,,,,,,,,15,,63,0
3239,note_on,,59,0,9,,,,,,,,,,,,,,,,7,,62,0
3239,note_on,,119,0,8,,,,,,,,,,,,,,,,6,,67,0
3239,note_on,,0,0,18,,,,,,,,,,,,,,,,15,,51,0
3239,note_on,,0,0,18,,,,,,,,,,,,,,,,15,,67,0
3240,note_on,,1,0,18,,,,,,,,,,,,,,,,15,,65,56
3240,note_on,,1,0,9,,,,,,,,,,,,,,,,7,,60,64
3240,note_on,,0,0,18,,,,,,,,,,,,,,,,15,,68,56
3240,note_on,,0,0,18,,,,,,,,,,,,,,,,15,,60,56
3240,note_on,,0,0,18,,,,,,,,,,,,,,,,15,,53,56
3240,note_on,,1,0,8,,,,,,,,,,,,,,,,6,,68,64
3299,note_on,,59,0,9,,,,,,,,,,,,,,,,7,,60,0
3299,note_on,,59,0,18,,,,,,,,,,,,,,,,15,,53,0
3300,note_on,,1,0,9,,,,,,,,,,,,,,,,7,,65,64
3300,note_on,,1,0,18,,,,,,,,,,,,,,,,15,,41,56
3359,note_on,,59,0,18,,,,,,,,,,,,,,,,15,,60,0
3359,note_on,,119,0,8,,,,,,,,,,,,,,,,6,,68,0
3359,note_on,,0,0,18,,,,,,,,,,,,,,,,15,,41,0
3359,note_on,,59,0,9,,,,,,,,,,,,,,,,7,,65,0
3360,note_on,,1,0,9,,,,,,,,,,,,,,,,7,,58,64
3360,note_on,,1,0,18,,,,,,,,,,,,,,,,15,,58,56
3360,note_on,,0,0,18,,,,,,,,,,,,,,,,15,,43,56
3419,note_on,,59,0,18,,,,,,,,,,,,,,,,15,,43,0
3420,note_on,,61,0,8,,,,,,,,,,,,,,,,6,,68,64
3420,note_on,,1,0,18,,,,,,,,,,,,,,,,15,,41,56
3479,note_on,,0,0,18,,,,,,,,,,,,,,,,15,,68,0
3479,note_on,,119,0,9,,,,,,,,,,,,,,,,7,,58,0
3479,note_on,,0,0,18,,,,,,,,,,,,,,,,15,,41,0
3479,note_on,,59,0,8,,,,,,,,,,,,,,,,6,,68,0
3479,note_on,,59,0,18,,,,,,,,,,,,,,,,15,,65,0
3480,note_on,,1,0,18,,,,,,,,,,,,,,,,15,,67,56
3480,note_on,,0,0,18,,,,,,,,,,,,,,,,15,,63,56
3480,note_on,,0,0,18,,,,,,,,,,,,,,,,15,,43,56
3480,note_on,,1,0,8,,,,,,,,,,,,,,,,6,,67,64
3480,note_on,,1,0,9,,,,,,,,,,,,,,,,7,,63,64
3539,note_on,,59,0,18,,,,,,,,,,,,,,,,15,,58,0
3539,note_on,,0,0,18,,,,,,,,,,,,,,,,15,,43,0
3539,note_on,,59,0,8,,,,,,,,,,,,,,,,6,,67,0
3540,note_on,,1,0,8,,,,,,,,,,,,,,,,6,,72,64
3540,note_on,,0,0,18,,,,,,,,,,,,,,,,15,,44,56
3540,note_on,,1,0,18,,,,,,,,,,,,,,,,15,,56,56
3599,note_on,,0,0,18,,,,,,,,,,,,,,,,15,,63,0
3599,note_on,,59,0,8,,,,,,,,,,,,,,,,6,,72,0
3599,note_on,,59,0,18,,,,,,,,,,,,,,,,15,,67,0
3599,note_on,,119,0,9,,,,,,,,,,,,,,,,7,,63,0
3599,note_on,,0,0,18,,,,,,,,,,,,,,,,15,,44,0
3600,note_on,,0,0,18,,,,,,,,,,,,,,,,15,,58,56
3600,note_on,,0,0,18,,,,,,,,,,,,,,,,15,,46,56
3600,note_on,,1,0,18,,,,,,,,,,,,,,,,15,,65,56
3600,note_on,,1,0,8,,,,,,,,,,,,,,,,6,,65,64
3659,note_on,,59,0,18,,,,,,,,,,,,,,,,15,,46,0
3660,note_on,,1,0,18,,,,,,,,,,,,,,,,15,,44,56
3660,note_on,,61,0,9,,,,,,,,,,,,,,,,7,,63,64
3719,note_on,,59,0,18,,,,,,,,,,,,,,,,15,,65,0
3719,note_on,,0,0,18,,,,,,,,,,,,,,,,15,,58,0
3719,note_on,,0,0,18,,,,,,,,,,,,,,,,15,,44,0
3719,note_on,,119,0,8,,,,,,,,,,,,,,,,6,,65,0
3719,note_on,,59,0,9,,,,,,,,,,,,,,,,7,,63,0
3720,note_on,,0,0,18,,,,,,,,,,,,,,,,15,,58,56
3720,note_on,,0,0,18,,,,,,,,,,,,,,,,15,,46,56
3720,note_on,,1,0,18,,,,,,,,,,,,,,,,15,,62,56
3720,note_on,,1,0,9,,,,,,,,,,,,,,,,7,,62,64
3720,note_on,,1,0,8,,,,,,,,,,,,,,,,6,,70,64
3779,note_on,,59,0,9,,,,,,,,,,,,,,,,7,,62,0
3779,note_on,,0,0,18,,,,,,,,,,,,,,,,15,,46,0
3779,note_on,,0,0,18,,,,,,,,,,,,,,,,15,,62,0
3779,note_on,,59,0,18,,,,,,,,,,,,,,,,15,,56,0
3780,note_on,,1,0,9,,,,,,,,,,,,,,,,7,,67,64
3780,note_on,,0,0,18,,,,,,,,,,,,,,,,15,,63,56
3780,note_on,,1,0,18,,,,,,,,,,,,,,,,15,,43,56
3809,note_on,,29,0,18,,,,,,,,,,,,,,,,15,,63,0
3810,note_on,,1,0,18,,,,,,,,,,,,,,,,15,,62,56
3839,note_on,,59,0,9,,,,,,,,,,,,,,,,7,,67,0
3839,note_on,,119,0,8,,,,,,,,,,,,,,,,6,,70,0
3839,note_on,,0,0,18,,,,,,,,,,,,,,,,15,,62,0
3839,note_on,,0,0,18,,,,,,,,,,,,,,,,15,,43,0
3839,note_on,,29,0,18,,,,,,,,,,,,,,,,15,,58,0
3840,note_on,,1,0,18,,,,,,,,,,,,,,,,15,,55,56
3840,note_on,,0,0,18,,,,,,,,,,,,,,,,15,,60,56
3840,note_on,,1,0,9,,,,,,,,,,,,,,,,7,,60,64
3840,note_on,,0,0,18,,,,,,,,,,,,,,,,15,,51,56
3899,note_on,,59,0,18,,,,,,,,,,,,,,,,15,,55,0
3899,note_on,,0,0,18,,,,,,,,,,,,,,,,15,,51,0
3900,note_on,,1,0,18,,,,,,,,,,,,,,,,15,,48,56
3900,note_on,,0,0,18,,,,,,,,,,,,,,,,15,,51,56
3900,note_on,,61,0,8,,,,,,,,,,,,,,,,6,,63,64
3959,note_on,,59,0,18,,,,,,,,,,,,,,,,15,,48,0
3959,note_on,,0,0,18,,,,,,,,,,,,,,,,15,,51,0
3959,note_on,,119,0,9,,,,,,,,,,,,,,,,7,,60,0
3959,note_on,,59,0,8,,,,,,,,,,,,,,,,6,,63,0
3960,note_on,,0,0,18,,,,,,,,,,,,,,,,15,,56,56
3960,note_on,,1,0,8,,,,,,,,,,,,,,,,6,,68,64
3960,note_on,,0,0,18,,,,,,,,,,,,,,,,15,,53,56
3960,note_on,,1,0,18,,,,,,,,,,,,,,,,15,,72,56
4019,note_on,,59,0,18,,,,,,,,,,,,,,,,15,,53,0
4019,note_on,,0,0,18,,,,,,,,,,,,,,,,15,,56,0
4020,note_on,,61,0,9,,,,,,,,,,,,,,,,7,,60,64
4020,note_on,,1,0,18,,,,,,,,,,,,,,,,15,,56,56
4079,note_on,,59,0,9,,,,,,,,,,,,,,,,7,,60,0
4079,note_on,,119,0,8,,,,,,,,,,,,,,,,6,,68,0
4079,note_on,,0,0,18,,,,,,,,,,,,,,,,15,,56,0
4079,note_on,,0,0,18,,,,,,,,,,,,,,,,15,,72,0
4079,note_on,,59,0,18,,,,,,,,,,,,,,,,15,,60,0
4080,note_on,,1,0,18,,,,,,,,,,,,,,,,15,,65,56
4080,note_on,,0,0,18,,,,,,,,,,,,,,,,15,,62,56
4080,note_on,,1,0,9,,,,,,,,,,,,,,,,7,,62,64
4080,note_on,,0,0,18,,,,,,,,,,,,,,,,15,,58,56
4139,note_on,,59,0,9,,,,,,,,,,,,,,,,7,,62,0
4139,note_on,,59,0,18,,,,,,,,,,,,,,,,15,,58,0
4140,note_on,,61,0,8,,,,,,,,,,,,,,,,6,,68,64
4140,note_on,,1,0,9,,,,,,,,,,,,,,,,7,,62,64
4140,note_on,,1,0,18,,,,,,,,,,,,,,,,15,,53,56
4199,note_on,,0,0,18,,,,,,,,,,,,,,,,15,,62,0
4199,note_on,,0,0,18,,,,,,,,,,,,,,,,15,,53,0
4199,note_on,,59,0,18,,,,,,,,,,,,,,,,15,,65,0
4199,note_on,,59,0,8,,,,,,,,,,,,,,,,6,,68,0
4199,note_on,,59,0,9,,,,,,,,,,,,,,,,7,,62,0
4200,note_on,,1,0,18,,,,,,,,,,,,,,,,15,,70,56
4200,note_on,,0,0,18,,,,,,,,,,,,,,,,15,,67,56
4200,note_on,,0,0,18,,,,,,,,,,,,,,,,15,,55,56
4200,note_on,,0,0,18,,,,,,,,,,,,,,,,15,,75,56
4200,note_on,,1,0,9,,,,,,,,,,,,,,,,7,,63,64
4200,note_on,,1,0,8,,,,,,,,,,,,,,,,6,,67,64
4259,note_on,,59,0,18,,,,,,,,,,,,,,,,15,,55,0
4260,note_on,,1,0,18,,,,,,,,,,,,,,,,15,,51,56
4289,note_on,,89,0,8,,,,,,,,,,,,,,,,6,,67,0
4289,note_on,,89,0,9,,,,,,,,,,,,,,,,7,,63,0
4290,note_on,,1,0,9,,,,,,,,,,,,,,,,7,,65,64
4290,note_on,,1,0,8,,,,,,,,,,,,,,,,6,,68,64
4319,note_on,,0,0,18,,,,,,,,,,,,,,,,15,,75,0
4319,note_on,,29,0,8,,,,,,,,,,,,,,,,6,,68,0
4319,note_on,,29,0,9,,,,,,,,,,,,,,,,7,,65,0
4319,note_on,,0,0,18,,,,,,,,,,,,,,,,15,,51,0
4319,note_on,,0,0,18,,,,,,,,,,,,,,,,15,,67,0
4319,note_on,,59,0,18,,,,,,,,,,,,,,,,15,,70,0
4320,note_on,,1,0,18,,,,,,,,,,,,,,,,15,,62,56
4320,note_on,,0,0,18,,,,,,,,,,,,,,,,15,,70,56
4320,note_on,,0,0,18,,,,,,,,,,,,,,,,15,,65,56
4320,note_on,,0,0,18,,,,,,,,,,,,,,,,15,,58,56
4320,note_on,,1,0,8,,,,,,,,,,,,,,,,6,,65,64
4320,note_on,,1,0,9,,,,,,,,,,,,,,,,7,,62,64
4379,note_on,,59,0,18,,,,,,,,,,,,,,,,15,,58,0
4380,note_on,,1,0,18,,,,,,,,,,,,,,,,15,,53,56
4409,note_on,,89,0,9,,,,,,,,,,,,,,,,7,,62,0
4409,note_on,,89,0,8,,,,,,,,,,,,,,,,6,,65,0
4410,note_on,,1,0,8,,,,,,,,,,,,,,,,6,,65,64
4410,note_on,,1,0,9,,,,,,,,,,,,,,,,7,,62,64
4439,note_on,,29,0,8,,,,,,,,,,,,,,,,6,,65,0
4439,note_on,,59,0,18,,,,,,,,,,,,,,,,15,,53,0
4439,note_on,,29,0,9,,,,,,,,,,,,,,,,7,,62,0
4440,note_on,,1,0,8,,,,,,,,,,,,,,,,6,,65,64
4440,note_on,,1,0,9,,,,,,,,,,,,,,,,7,,62,64
4440,note_on,,1,0,18,,,,,,,,,,,,,,,,15,,58,56
4499,note_on,,0,0,18,,,,,,,,,,,,,,,,15,,58,0
4499,note_on,,59,0,18,,,,,,,,,,,,,,,,15,,62,0
4499,note_on,,0,0,18,,,,,,,,,,,,,,,,15,,65,0
4499,note_on,,59,0,9,,,,,,,,,,,,,,,,7,,62,0
4499,note_on,,0,0,18,,,,,,,,,,,,,,,,15,,70,0
4500,note_on,,1,0,18,,,,,,,,,,,,,,,,15,,56,56
4500,note_on,,1,0,9,,,,,,,,,,,,,,,,7,,65,64
4559,note_on,,59,0,18,,,,,,,,,,,,,,,,15,,56,0
4559,note_on,,119,0,8,,,,,,,,,,,,,,,,6,,65,0
4559,note_on,,59,0,9,,,,,,,,,,,,,,,,7,,65,0
4560,note_on,,0,0,18,,,,,,,,,,,,,,,,15,,55,56
4560,note_on,,1,0,18,,,,,,,,,,,,,,,,15,,58,56
4560,note_on,,1,0,9,,,,,,,,,,,,,,,,7,,58,64
4560,note_on,,0,0,18,,,,,,,,,,,,,,,,15,,63,56
4560,note_on,,0,0,18,,,,,,,,,,,,,,,,15,,70,56
4619,note_on,,59,0,18,,,,,,,,,,,,,,,,15,,58,0
4619,note_on,,0,0,18,,,,,,,,,,,,,,,,15,,55,0
4620,note_on,,61,0,8,,,,,,,,,,,,,,,,6,,62,64
4620,note_on,,1,0,18,,,,,,,,,,,,,,,,15,,53,56
4620,note_on,,0,0,18,,,,,,,,,,,,,,,,15,,56,56
4679,note_on,,59,0,8,,,,,,,,,,,,,,,,6,,62,0
4679,note_on,,0,0,18,,,,,,,,,,,,,,,,15,,56,0
4679,note_on,,59,0,18,,,,,,,,,,,,,,,,15,,53,0
4679,note_on,,119,0,9,,,,,,,,,,,,,,,,7,,58,0
4680,note_on,,1,0,8,,,,,,,,,,,,,,,,6,,63,64
4680,note_on,,0,0,18,,,,,,,,,,,,,,,,15,,58,56
4680,note_on,,1,0,18,,,,,,,,,,,,,,,,15,,55,56
4739,note_on,,0,0,18,,,,,,,,,,,,,,,,15,,58,0
4739,note_on,,0,0,18,,,,,,,,,,,,,,,,15,,55,0
4739,note_on,,0,0,18,,,,,,,,,,,,,,,,15,,70,0
4739,note_on,,59,0,18,,,,,,,,,,,,,,,,15,,63,0
4740,note_on,,0,0,18,,,,,,,,,,,,,,,,15,,67,56
4740,note_on,,0,0,18,,,,,,,,,,,,,,,,15,,43,56
4740,note_on,,1,0,18,,,,,,,,,,,,,,,,15,,63,56
4740,note_on,,61,0,9,,,,,,,,,,,,,,,,7,,58,64
4799,note_on,,0,0,18,,,,,,,,,,,,,,,,15,,43,0
4799,note_on,,59,0,18,,,,,,,,,,,,,,,,15,,63,0
4799,note_on,,119,0,8,,,,,,,,,,,,,,,,6,,63,0
4799,note_on,,0,0,18,,,,,,,,,,,,,,,,15,,67,0
4799,note_on,,59,0,9,,,,,,,,,,,,,,,,7,,58,0
4800,note_on,,1,0,9,,,,,,,,,,,,,,,,7,,60,64
4800,note_on,,0,0,18,,,,,,,,,,,,,,,,15,,60,56
4800,note_on,,1,0,18,,,,,,,,,,,,,,,,15,,63,56
4800,note_on,,0,0,18,,,,,,,,,,,,,,,,15,,44,56
4859,note_on,,59,0,18,,,,,,,,,,,,,,,,15,,44,0
4860,note_on,,1,0,18,,,,,,,,,,,,,,,,15,,43,56
4919,note_on,,59,0,18,,,,,,,,,,,,,,,,15,,63,0
4919,note_on,,0,0,18,,,,,,,,,,,,,,,,15,,60,0
4919,note_on,,0,0,18,,,,,,,,,,,,,,,,15,,43,0
4919,note_on,,119,0,9,,,,,,,,,,,,,,,,7,,60,0
4920,note_on,,0,0,18,,,,,,,,,,,,,,,,15,,44,56
4920,note_on,,0,0,18,,,,,,,,,,,,,,,,15,,60,56
4920,note_on,,0,0,18,,,,,,,,,,,,,,,,15,,65,56
4920,note_on,,121,0,8,,,,,,,,,,,,,,,,6,,65,64
4920,note_on,,1,0,18,,,,,,,,,,,,,,,,15,,68,56
4979,note_on,,59,0,18,,,,,,,,,,,,,,,,15,,44,0
4980,note_on,,1,0,18,,,,,,,,,,,,,,,,15,,41,56
5039,note_on,,0,0,18,,,,,,,,,,,,,,,,15,,41,0
5039,note_on,,59,0,18,,,,,,,,,,,,,,,,15,,68,0
5039,note_on,,119,0,8,,,,,,,,,,,,,,,,6,,65,0
5039,note_on,,0,0,18,,,,,,,,,,,,,,,,15,,65,0
5039,note_on,,0,0,18,,,,,,,,,,,,,,,,15,,60,0
5040,note_on,,0,0,18,,,,,,,,,,,,,,,,15,,62,56
5040,note_on,,0,0,18,,,,,,,,,,,,,,,,15,,58,56
5040,note_on,,1,0,18,,,,,,,,,,,,,,,,15,,46,56
5040,note_on,,0,0,18,,,,,,,,,,,,,,,,15,,65,56
5040,note_on,,121,0,9,,,,,,,,,,,,,,,,7,,62,64
5100,note_on,,61,0,8,,,,,,,,,,,,,,,,6,,65,64
5159,note_on,,119,0,9,,,,,,,,,,,,,,,,7,,62,0
5159,note_on,,119,0,18,,,,,,,,,,,,,,,,15,,46,0
5159,note_on,,59,0,8,,,,,,,,,,,,,,,,6,,65,0
5160,note_on,,1,0,18,,,,,,,,,,,,,,,,15,,58,56
5160,note_on,,1,0,8,,,,,,,,,,,,,,,,6,,63,64
5219,note_on,,0,0,18,,,,,,,,,,,,,,,,15,,65,0
5219,note_on,,0,0,18,,,,,,,,,,,,,,,,15,,62,0
5219,note_on,,59,0,8,,,,,,,,,,,,,,,,6,,63,0
5219,note_on,,59,0,18,,,,,,,,,,,,,,,,15,,58,0
5220,note_on,,1,0,8,,,,,,,,,,,,,,,,6,,62,64
5279,note_on,,59,0,8,,,,,,,,,,,,,,,,6,,62,0
5279,note_on,,60,0,18,,,,,,,,,,,,,,,,15,,58,0
5280,note_on,,1,0,8,,,,,,,,,,,,,,,,6,,67,64
5340,note_on,,61,0,18,,,,,,,,,,,,,,,,15,,46,56
5340,note_on,,181,0,9,,,,,,,,,,,,,,,,7,,62,64
5399,note_on,,59,0,18,,,,,,,,,,,,,,,,15,,46,0
5399,note_on,,119,0,8,,,,,,,,,,,,,,,,6,,67,0
5399,note_on,,59,0,9,,,,,,,,,,,,,,,,7,,62,0
5400,note_on,,0,0,18,,,,,,,,,,,,,,,,15,,44,56
5400,note_on,,0,0,18,,,,,,,,,,,,,,,,15,,70,56
5400,note_on,,0,0,18,,,,,,,,,,,,,,,,15,,65,56
5400,note_on,,1,0,18,,,,,,,,,,,,,,,,15,,62,56
5400,note_on,,1,0,9,,,,,,,,,,,,,,,,7,,60,64
5459,note_on,,59,0,9,,,,,,,,,,,,,,,,7,,60,0
5459,note_on,,59,0,18,,,,,,,,,,,,,,,,15,,44,0
5460,note_on,,1,0,9,,,,,,,,,,,,,,,,7,,58,64
5460,note_on,,1,0,18,,,,,,,,,,,,,,,,15,,43,56
5519,note_on,,59,0,9,,,,,,,,,,,,,,,,7,,58,0
5519,note_on,,0,0,18,,,,,,,,,,,,,,,,15,,43,0
5519,note_on,,0,0,18,,,,,,,,,,,,,,,,15,,70,0
5519,note_on,,59,0,18,,,,,,,,,,,,,,,,15,,62,0
5519,note_on,,0,0,18,,,,,,,,,,,,,,,,15,,65,0
5520,note_on,,1,0,9,,,,,,,,,,,,,,,,7,,63,64
5520,note_on,,0,0,18,,,,,,,,,,,,,,,,15,,63,56
5520,note_on,,0,0,18,,,,,,,,,,,,,,,,15,,67,56
5520,note_on,,0,0,18,,,,,,,,,,,,,,,,15,,60,56
5520,note_on,,1,0,18,,,,,,,,,,,,,,,,15,,48,56
5580,note_on,,181,0,8,,,,,,,,,,,,,,,,6,,63,64
5639,note_on,,119,0,18,,,,,,,,,,,,,,,,15,,48,0
5639,note_on,,0,0,18,,,,,,,,,,,,,,,,15,,63,0
5639,note_on,,0,0,18,,,,,,,,,,,,,,,,15,,67,0
5639,note_on,,0,0,18,,,,,,,,,,,,,,,,15,,60,0
5639,note_on,,59,0,8,,,,,,,,,,,,,,,,6,,63,0
5639,note_on,,119,0,9,,,,,,,,,,,,,,,,7,,63,0
5640,note_on,,0,0,18,,,,,,,,,,,,,,,,15,,68,56
5640,note_on,,0,0,18,,,,,,,,,,,,,,,,15,,63,56
5640,note_on,,1,0,8,,,,,,,,,,,,,,,,6,,68,64
5640,note_on,,1,0,18,,,,,,,,,,,,,,,,15,,75,56
5700,note_on,,60,0,18,,,,,,,,,,,,,,,,15,,44,56
5700,note_on,,61,0,9,,,,,,,,,,,,,,,,7,,60,64
5759,note_on,,59,0,18,,,,,,,,,,,,,,,,15,,75,0
5759,note_on,,0,0,18,,,,,,,,,,,,,,,,15,,63,0
5759,note_on,,0,0,18,,,,,,,,,,,,,,,,15,,68,0
5759,note_on,,0,0,18,,,,,,,,,,,,,,,,15,,44,0
5759,note_on,,59,0,9,,,,,,,,,,,,,,,,7,,60,0
5760,note_on,,0,0,18,,,,,,,,,,,,,,,,15,,46,56
5760,note_on,,1,0,18,,,,,,,,,,,,,,,,15,,62,56
5760,note_on,,1,0,9,,,,,,,,,,,,,,,,7,,62,64
5760,note_on,,0,0,18,,,,,,,,,,,,,,,,15,,70,56
5760,note_on,,0,0,18,,,,,,,,,,,,,,,,15,,65,56
5879,note_on,,239,0,8,,,,,,,,,,,,,,,,6,,68,0
5879,note_on,,0,0,18,,,,,,,,,,,,,,,,15,,70,0
5879,note_on,,0,0,18,,,,,,,,,,,,,,,,15,,65,0
5879,note_on,,0,0,18,,,,,,,,,,,,,,,,15,,46,0
5879,note_on,,119,0,18,,,,,,,,,,,,,,,,15,,62,0
5879,note_on,,119,0,9,,,,,,,,,,,,,,,,7,,62,0
5940,note_on,,61,0,18,,,,,,,,,,,,,,,,15,,46,56
5940,note_on,,0,0,18,,,,,,,,,,,,,,,,15,,70,56
5940,note_on,,0,0,18,,,,,,,,,,,,,,,,15,,65,56
5940,note_on,,0,0,18,,,,,,,,,,,,,,,,15,,62,56
5940,note_on,,61,0,8,,,,,,,,,,,,,,,,6,,65,64
5940,note_on,,61,0,9,,,,,,,,,,,,,,,,7,,62,64
5999,note_on,,0,0,18,,,,,,,,,,,,,,,,15,,70,0
5999,note_on,,59,0,9,,,,,,,,,,,,,,,,7,,62,0
5999,note_on,,59,0,18,,,,,,,,,,,,,,,,15,,46,0
5999,note_on,,59,0,8,,,,,,,,,,,,,,,,6,,65,0
5999,note_on,,0,0,18,,,,,,,,,,,,,,,,15,,65,0
5999,note_on,,0,0,18,,,,,,,,,,,,,,,,15,,62,0
6000,note_on,,0,0,18,,,,,,,,,,,,,,,,15,,58,56
6000,note_on,,1,0,8,,,,,,,,,,,,,,,,6,,67,64
6000,note_on,,0,0,18,,,,,,,,,,,,,,,,15,,63,56
6000,note_on,,0,0,18,,,,,,,,,,,,,,,,15,,51,56
6000,note_on,,1,0,18,,,,,,,,,,,,,,,,15,,67,56
6000,note_on,,1,0,9,,,,,,,,,,,,,,,,7,,63,64
6059,note_on,,59,0,8,,,,,,,,,,,,,,,,6,,67,0
6059,note_on,,59,0,9,,,,,,,,,,,,,,,,7,,63,0
6060,note_on,,1,0,8,,,,,,,,,,,,,,,,6,,65,64
6060,note_on,,1,0,9,,,,,,,,,,,,,,,,7,,62,64
6119,note_on,,59,0,8,,,,,,,,,,,,,,,,6,,65,0
6119,note_on,,119,0,18,,,,,,,,,,,,,,,,15,,67,0
6119,note_on,,0,0,18,,,,,,,,,,,,,,,,15,,63,0
6119,note_on,,0,0,18,,,,,,,,,,,,,,,,15,,58,0
6119,note_on,,59,0,9,,,,,,,,,,,,,,,,7,,62,0
6120,note_on,,0,0,18,,,,,,,,,,,,,,,,15,,75,56
6120,note_on,,1,0,18,,,,,,,,,,,,,,,,15,,67,56
6120,note_on,,0,0,18,,,,,,,,,,,,,,,,15,,70,56
6120,note_on,,1,0,9,,,,,,,,,,,,,,,,7,,63,64
6120,note_on,,1,0,8,,,,,,,,,,,,,,,,6,,67,64
6179,note_on,,59,0,8,,,,,,,,,,,,,,,,6,,67,0
6179,note_on,,59,0,9,,,,,,,,,,,,,,,,7,,63,0
6179,note_on,,59,0,18,,,,,,,,,,,,,,,,15,,51,0
6179,note_on,,0,0,18,,,,,,,,,,,,,,,,15,,67,0
6179,note_on,,0,0,18,,,,,,,,,,,,,,,,15,,70,0
6180,note_on,,1,0,8,,,,,,,,,,,,,,,,6,,68,64
6180,note_on,,1,0,9,,,,,,,,,,,,,,,,7,,60,64
6180,note_on,,1,0,18,,,,,,,,,,,,,,,,15,,44,56
6180,note_on,,0,0,18,,,,,,,,,,,,,,,,15,,72,56
6180,note_on,,0,0,18,,,,,,,,,,,,,,,,15,,68,56
6239,note_on,,59,0,9,,,,,,,,,,,,,,,,7,,60,0
6239,note_on,,59,0,8,,,,,,,,,,,,,,,,6,,68,0
6239,note_on,,0,0,18,,,,,,,,,,,,,,,,15,,44,0
6239,note_on,,59,0,18,,,,,,,,,,,,,,,,15,,75,0
6239,note_on,,0,0,18,,,,,,,,,,,,,,,,15,,68,0
6239,note_on,,0,0,18,,,,,,,,,,,,,,,,15,,72,0
6240,note_on,,1,0,18,,,,,,,,,,,,,,,,15,,65,56
6240,note_on,,1,0,8,,,,,,,,,,,,,,,,6,,65,64
6240,note_on,,0,0,18,,,,,,,,,,,,,,,,15,,74,56
6240,note_on,,1,0,9,,,,,,,,,,,,,,,,7,,62,64
6240,note_on,,0,0,18,,,,,,,,,,,,,,,,15,,70,56
6240,note_on,,0,0,18,,,,,,,,,,,,,,,,15,,46,56
6359,note_on,,0,0,18,,,,,,,,,,,,,,,,15,,70,0
6359,note_on,,119,0,18,,,,,,,,,,,,,,,,15,,65,0
6359,note_on,,0,0,18,,,,,,,,,,,,,,,,15,,74,0
6359,note_on,,0,0,18,,,,,,,,,,,,,,,,15,,46,0
6360,note_on,,0,0,18,,,,,,,,,,,,,,,,15,,65,56
6360,note_on,,1,0,18,,,,,,,,,,,,,,,,15,,46,56
6375,note_on,,15,0,18,,,,,,,,,,,,,,,,15,,70,56
6390,note_on,,15,0,18,,,,,,,,,,,,,,,,15,,74,56
6405,note_on,,15,0,18,,,,,,,,,,,,,,,,15,,77,56
6419,note_on,,179,0,9,,,,,,,,,,,,,,,,7,,62,0
6419,note_on,,179,0,8,,,,,,,,,,,,,,,,6,,65,0
6420,note_on,,1,0,9,,,,,,,,,,,,,,,,7,,62,64
6420,note_on,,1,0,8,,,,,,,,,,,,,,,,6,,65,64
6479,note_on,,0,0,18,,,,,,,,,,,,,,,,15,,65,0
6479,note_on,,0,0,18,,,,,,,,,,,,,,,,15,,70,0
6479,note_on,,0,0,18,,,,,,,,,,,,,,,,15,,74,0
6479,note_on,,0,0,18,,,,,,,,,,,,,,,,15,,77,0
6479,note_on,,59,0,8,,,,,,,,,,,,,,,,6,,65,0
6479,note_on,,59,0,9,,,,,,,,,,,,,,,,7,,62,0
6479,note_on,,74,0,18,,,,,,,,,,,,,,,,15,,46,0
6480,note_on,,1,0,18,,,,,,,,,,,,,,,,15,,63,56
6480,note_on,,0,0,18,,,,,,,,,,,,,,,,15,,67,56
6480,note_on,,0,0,18,,,,,,,,,,,,,,,,15,,70,56
6480,note_on,,0,0,18,,,,,,,,,,,,,,,,15,,51,56
6480,note_on,,1,0,8,,,,,,,,,,,,,,,,6,,67,64
6480,note_on,,1,0,9,,,,,,,,,,,,,,,,7,,63,64
6569,note_on,,89,0,8,,,,,,,,,,,,,,,,6,,67,0
6569,note_on,,89,0,9,,,,,,,,,,,,,,,,7,,63,0
6570,note_on,,1,0,8,,,,,,,,,,,,,,,,6,,65,64
6570,note_on,,1,0,9,,,,,,,,,,,,,,,,7,,58,64
6599,note_on,,29,0,9,,,,,,,,,,,,,,,,7,,58,0
6599,note_on,,29,0,8,,,,,,,,,,,,,,,,6,,65,0
6600,note_on,,1,0,9,,,,,,,,,,,,,,,,7,,58,64
6600,note_on,,1,0,8,,,,,,,,,,,,,,,,6,,63,64
6659,note_on,,0,0,18,,,,,,,,,,,,,,,,15,,67,0
6659,note_on,,0,0,18,,,,,,,,,,,,,,,,15,,51,0
6659,note_on,,59,0,9,,,,,,,,,,,,,,,,7,,58,0
6659,note_on,,179,0,18,,,,,,,,,,,,,,,,15,,63,0
6659,note_on,,59,0,8,,,,,,,,,,,,,,,,6,,63,0
6660,note_on,,0,0,18,,,,,,,,,,,,,,,,15,,65,56
6660,note_on,,0,0,18,,,,,,,,,,,,,,,,15,,62,56
6660,note_on,,1,0,18,,,,,,,,,,,,,,,,15,,46,56
6660,note_on,,1,0,9,,,,,,,,,,,,,,,,7,,62,64
6660,note_on,,1,0,8,,,,,,,,,,,,,,,,6,,65,64
6719,note_on,,59,0,8,,,,,,,,,,,,,,,,6,,65,0
6719,note_on,,0,0,18,,,,,,,,,,,,,,,,15,,62,0
6719,note_on,,59,0,18,,,,,,,,,,,,,,,,15,,46,0
6719,note_on,,59,0,9,,,,,,,,,,,,,,,,7,,62,0
6719,note_on,,0,0,18,,,,,,,,,,,,,,,,15,,65,0
6720,note_on,,1,0,9,,,,,,,,,,,,,,,,7,,63,64
6720,note_on,,1,0,8,,,,,,,,,,,,,,,,6,,67,64
6720,note_on,,1,0,18,,,,,,,,,,,,,,,,15,,67,56
6720,note_on,,0,0,18,,,,,,,,,,,,,,,,15,,51,56
6720,note_on,,0,0,18,,,,,,,,,,,,,,,,15,,63,56
6779,note_on,,59,0,8,,,,,,,,,,,,,,,,6,,67,0
6779,note_on,,59,0,18,,,,,,,,,,,,,,,,15,,70,0
6779,note_on,,0,0,18,,,,,,,,,,,,,,,,15,,67,0
6780,note_on,,1,0,8,,,,,,,,,,,,,,,,6,,69,64
6780,note_on,,1,0,18,,,,,,,,,,,,,,,,15,,69,56
6780,note_on,,0,0,18,,,,,,,,,,,,,,,,15,,72,56
6839,note_on,,0,0,18,,,,,,,,,,,,,,,,15,,69,0
6839,note_on,,59,0,18,,,,,,,,,,,,,,,,15,,51,0
6839,note_on,,59,0,8,,,,,,,,,,,,,,,,6,,69,0
6839,note_on,,0,0,18,,,,,,,,,,,,,,,,15,,72,0
6839,note_on,,0,0,18,,,,,,,,,,,,,,,,15,,63,0
6839,note_on,,119,0,9,,,,,,,,,,,,,,,,7,,63,0
6840,note_on,,1,0,18,,,,,,,,,,,,,,,,15,,46,56
6840,note_on,,1,0,9,,,,,,,,,,,,,,,,7,,62,64
6840,note_on,,0,0,18,,,,,,,,,,,,,,,,15,,65,56
6840,note_on,,0,0,18,,,,,,,,,,,,,,,,15,,74,56
6840,note_on,,0,0,18,,,,,,,,,,,,,,,,15,,70,56
6840,note_on,,1,0,8,,,,,,,,,,,,,,,,6,,70,64
6899,note_on,,0,0,18,,,,,,,,,,,,,,,,15,,65,0
6899,note_on,,59,0,18,,,,,,,,,,,,,,,,15,,46,0
6899,note_on,,0,0,18,,,,,,,,,,,,,,,,15,,70,0
6899,note_on,,0,0,18,,,,,,,,,,,,,,,,15,,74,0
6899,note_on,,59,0,8,,,,,,,,,,,,,,,,6,,70,0
6899,note_on,,59,0,9,,,,,,,,,,,,,,,,7,,62,0
6900,note_on,,1,0,18,,,,,,,,,,,,,,,,15,,67,56
6900,note_on,,0,0,18,,,,,,,,,,,,,,,,15,,63,56
6900,note_on,,1,0,8,,,,,,,,,,,,,,,,6,,67,64
6900,note_on,,1,0,9,,,,,,,,,,,,,,,,7,,63,64
6900,note_on,,0,0,18,,,,,,,,,,,,,,,,15,,51,56
6900,note_on,,0,0,18,,,,,,,,,,,,,,,,15,,72,56
6959,note_on,,0,0,18,,,,,,,,,,,,,,,,15,,72,0
6959,note_on,,59,0,8,,,,,,,,,,,,,,,,6,,67,0
6959,note_on,,0,0,18,,,,,,,,,,,,,,,,15,,51,0
6959,note_on,,0,0,18,,,,,,,,,,,,,,,,15,,63,0
6959,note_on,,59,0,18,,,,,,,,,,,,,,,,15,,67,0
6959,note_on,,59,0,9,,,,,,,,,,,,,,,,7,,63,0
6960,note_on,,0,0,18,,,,,,,,,,,,,,,,15,,65,56
6960,note_on,,1,0,8,,,,,,,,,,,,,,,,6,,69,64
6960,note_on,,0,0,18,,,,,,,,,,,,,,,,15,,69,56
6960,note_on,,0,0,18,,,,,,,,,,,,,,,,15,,53,56
6960,note_on,,1,0,18,,,,,,,,,,,,,,,,15,,60,56
6960,note_on,,1,0,9,,,,,,,,,,,,,,,,7,,60,64
7079,note_on,,0,0,18,,,,,,,,,,,,,,,,15,,65,0
7079,note_on,,0,0,18,,,,,,,,,,,,,,,,15,,69,0
7079,note_on,,0,0,18,,,,,,,,,,,,,,,,15,,53,0
7079,note_on,,119,0,18,,,,,,,,,,,,,,,,15,,60,0
7080,note_on,,1,0,18,,,,,,,,,,,,,,,,15,,41,56
7080,note_on,,0,0,18,,,,,,,,,,,,,,,,15,,72,56
7080,note_on,,0,0,18,,,,,,,,,,,,,,,,15,,69,56
7080,note_on,,0,0,18,,,,,,,,,,,,,,,,15,,77,56
7139,note_on,,179,0,8,,,,,,,,,,,,,,,,6,,69,0
7139,note_on,,179,0,9,,,,,,,,,,,,,,,,7,,60,0
7140,note_on,,1,0,8,,,,,,,,,,,,,,,,6,,69,64
7140,note_on,,1,0,9,,,,,,,,,,,,,,,,7,,63,64
7199,note_on,,59,0,9,,,,,,,,,,,,,,,,7,,63,0
7199,note_on,,0,0,18,,,,,,,,,,,,,,,,15,,69,0
7199,note_on,,0,0,18,,,,,,,,,,,,,,,,15,,77,0
7199,note_on,,0,0,18,,,,,,,,,,,,,,,,15,,72,0
7199,note_on,,119,0,18,,,,,,,,,,,,,,,,15,,41,0
7199,note_on,,59,0,8,,,,,,,,,,,,,,,,6,,69,0
7200,note_on,,1,0,9,,,,,,,,,,,,,,,,7,,62,64
7200,note_on,,0,0,18,,,,,,,,,,,,,,,,15,,74,56
7200,note_on,,1,0,18,,,,,,,,,,,,,,,,15,,65,56
7200,note_on,,1,0,8,,,,,,,,,,,,,,,,6,,70,64
7200,note_on,,0,0,18,,,,,,,,,,,,,,,,15,,70,56
7200,note_on,,0,0,18,,,,,,,,,,,,,,,,15,,46,56
7289,note_on,,89,0,9,,,,,,,,,,,,,,,,7,,62,0
7289,note_on,,89,0,8,,,,,,,,,,,,,,,,6,,70,0
7290,note_on,,1,0,9,,,,,,,,,,,,,,,,7,,60,64
7290,note_on,,1,0,8,,,,,,,,,,,,,,,,6,,69,64
7319,note_on,,29,0,8,,,,,,,,,,,,,,,,6,,69,0
7319,note_on,,29,0,9,,,,,,,,,,,,,,,,7,,60,0
7320,note_on,,1,0,9,,,,,,,,,,,,,,,,7,,58,64
7320,note_on,,1,0,8,,,,,,,,,,,,,,,,6,,70,64
7379,note_on,,179,0,18,,,,,,,,,,,,,,,,15,,46,0
7380,note_on,,1,0,18,,,,,,,,,,,,,,,,15,,46,56
7439,note_on,,119,0,9,,,,,,,,,,,,,,,,7,,58,0
7439,note_on,,59,0,18,,,,,,,,,,,,,,,,15,,65,0
7439,note_on,,0,0,18,,,,,,,,,,,,,,,,15,,70,0
7439,note_on,,0,0,18,,,,,,,,,,,,,,,,15,,74,0
7439,note_on,,0,0,18,,,,,,,,,,,,,,,,15,,46,0
7439,note_on,,119,0,8,,,,,,,,,,,,,,,,6,,70,0
7440,note_on,,0,0,18,,,,,,,,,,,,,,,,15,,63,56
7440,note_on,,0,0,18,,,,,,,,,,,,,,,,15,,48,56
7440,note_on,,0,0,18,,,,,,,,,,,,,,,,15,,69,56
7440,note_on,,1,0,18,,,,,,,,,,,,,,,,15,,72,56
7500,note_on,,61,0,8,,,,,,,,,,,,,,,,6,,69,64
7559,note_on,,59,0,8,,,,,,,,,,,,,,,,6,,69,0
7560,note_on,,1,0,8,,,,,,,,,,,,,,,,6,,69,64
7619,note_on,,179,0,18,,,,,,,,,,,,,,,,15,,48,0
7620,note_on,,1,0,18,,,,,,,,,,,,,,,,15,,50,56
7679,note_on,,0,0,18,,,,,,,,,,,,,,,,15,,50,0
7679,note_on,,59,0,18,,,,,,,,,,,,,,,,15,,63,0
7680,note_on,,1,0,18,,,,,,,,,,,,,,,,15,,51,56
7680,note_on,,0,0,18,,,,,,,,,,,,,,,,15,,60,56
7739,note_on,,179,0,8,,,,,,,,,,,,,,,,6,,69,0
7740,note_on,,1,0,8,,,,,,,,,,,,,,,,6,,67,64
7769,note_on,,29,0,8,,,,,,,,,,,,,,,,6,,67,0
7770,note_on,,1,0,8,,,,,,,,,,,,,,,,6,,66,64
7799,note_on,,29,0,8,,,,,,,,,,,,,,,,6,,66,0
7800,note_on,,1,0,8,,,,,,,,,,,,,,,,6,,67,64
7859,note_on,,179,0,18,,,,,,,,,,,,,,,,15,,51,0
7859,note_on,,59,0,8,,,,,,,,,,,,,,,,6,,67,0
7859,note_on,,0,0,18,,,,,,,,,,,,,,,,15,,60,0
7860,note_on,,1,0,18,,,,,,,,,,,,,,,,15,,48,56
7860,note_on,,0,0,18,,,,,,,,,,,,,,,,15,,63,56
7860,note_on,,1,0,8,,,,,,,,,,,,,,,,6,,67,64
7919,note_on,,0,0,18,,,,,,,,,,,,,,,,15,,69,0
7919,note_on,,0,0,18,,,,,,,,,,,,,,,,15,,48,0
7919,note_on,,0,0,18,,,,,,,,,,,,,,,,15,,63,0
7919,note_on,,59,0,8,,,,,,,,,,,,,,,,6,,67,0
7919,note_on,,59,0,18,,,,,,,,,,,,,,,,15,,72,0
7920,note_on,,1,0,18,,,,,,,,,,,,,,,,15,,50,56
7920,note_on,,0,0,18,,,,,,,,,,,,,,,,15,,69,56
7920,note_on,,0,0,18,,,,,,,,,,,,,,,,15,,62,56
7920,note_on,,0,0,18,,,,,,,,,,,,,,,,15,,57,56
7920,note_on,,1,0,8,,,,,,,,,,,,,,,,6,,67,64
7979,note_on,,59,0,8,,,,,,,,,,,,,,,,6,,67,0
7980,note_on,,541,0,9,,,,,,,,,,,,,,,,7,,62,64
7980,note_on,,1,0,8,,,,,,,,,,,,,,,,6,,66,64
8039,note_on,,59,0,8,,,,,,,,,,,,,,,,6,,66,0
8039,note_on,,59,0,9,,,,,,,,,,,,,,,,7,,62,0
8040,note_on,,1,0,9,,,,,,,,,,,,,,,,7,,62,64
8099,note_on,,0,0,18,,,,,,,,,,,,,,,,15,,62,0
8099,note_on,,179,0,18,,,,,,,,,,,,,,,,15,,50,0
8099,note_on,,0,0,18,,,,,,,,,,,,,,,,15,,57,0
8099,note_on,,0,0,18,,,,,,,,,,,,,,,,15,,69,0
8100,note_on,,61,0,8,,,,,,,,,,,,,,,,6,,66,64
8100,note_on,,1,0,18,,,,,,,,,,,,,,,,15,,74,56
8100,note_on,,0,0,18,,,,,,,,,,,,,,,,15,,50,56
8100,note_on,,0,0,18,,,,,,,,,,,,,,,,15,,66,56
8100,note_on,,0,0,18,,,,,,,,,,,,,,,,15,,69,56
8159,note_on,,0,0,18,,,,,,,,,,,,,,,,15,,69,0
8159,note_on,,0,0,18,,,,,,,,,,,,,,,,15,,66,0
8159,note_on,,59,0,8,,,,,,,,,,,,,,,,6,,66,0
8159,note_on,,59,0,18,,,,,,,,,,,,,,,,15,,74,0
8159,note_on,,0,0,18,,,,,,,,,,,,,,,,15,,50,0
8160,note_on,,1,0,18,,,,,,,,,,,,,,,,15,,64,56
8160,note_on,,0,0,18,,,,,,,,,,,,,,,,15,,67,56
8160,note_on,,0,0,18,,,,,,,,,,,,,,,,15,,52,56
8160,note_on,,1,0,8,,,,,,,,,,,,,,,,6,,67,64
8219,note_on,,59,0,8,,,,,,,,,,,,,,,,6,,67,0
8219,note_on,,179,0,9,,,,,,,,,,,,,,,,7,,62,0
8220,note_on,,1,0,8,,,,,,,,,,,,,,,,6,,67,64
8220,note_on,,1,0,9,,,,,,,,,,,,,,,,7,,60,64
8249,note_on,,29,0,9,,,,,,,,,,,,,,,,7,,60,0
8250,note_on,,1,0,9,,,,,,,,,,,,,,,,7,,59,64
8279,note_on,,119,0,18,,,,,,,,,,,,,,,,15,,64,0
8279,note_on,,0,0,18,,,,,,,,,,,,,,,,15,,67,0
8279,note_on,,59,0,8,,,,,,,,,,,,,,,,6,,67,0
8279,note_on,,29,0,9,,,,,,,,,,,,,,,,7,,59,0
8279,note_on,,0,0,18,,,,,,,,,,,,,,,,15,,52,0
8280,note_on,,1,0,9,,,,,,,,,,,,,,,,7,,60,64
8280,note_on,,0,0,18,,,,,,,,,,,,,,,,15,,69,56
8280,note_on,,0,0,18,,,,,,,,,,,,,,,,15,,62,56
8280,note_on,,1,0,18,,,,,,,,,,,,,,,,15,,57,56
8280,note_on,,0,0,18,,,,,,,,,,,,,,,,15,,54,56
8280,note_on,,1,0,8,,,,,,,,,,,,,,,,6,,69,64
8339,note_on,,59,0,8,,,,,,,,,,,,,,,,6,,69,0
8339,note_on,,59,0,9,,,,,,,,,,,,,,,,7,,60,0
8340,note_on,,1,0,8,,,,,,,,,,,,,,,,6,,69,64
8340,note_on,,1,0,9,,,,,,,,,,,,,,,,7,,60,64
8399,note_on,,59,0,8,,,,,,,,,,,,,,,,6,,69,0
8399,note_on,,59,0,9,,,,,,,,,,,,,,,,7,,60,0
8399,note_on,,119,0,18,,,,,,,,,,,,,,,,15,,57,0
8399,note_on,,0,0,18,,,,,,,,,,,,,,,,15,,62,0
8399,note_on,,0,0,18,,,,,,,,,,,,,,,,15,,69,0
8399,note_on,,0,0,18,,,,,,,,,,,,,,,,15,,54,0
8400,note_on,,1,0,9,,,,,,,,,,,,,,,,7,,60,64
8400,note_on,,1,0,18,,,,,,,,,,,,,,,,15,,55,56
8400,note_on,,1,0,8,,,,,,,,,,,,,,,,6,,62,64
8400,note_on,,0,0,18,,,,,,,,,,,,,,,,15,,62,56
8459,note_on,,59,0,9,,,,,,,,,,,,,,,,7,,60,0
8460,note_on,,1,0,9,,,,,,,,,,,,,,,,7,,58,64
8519,note_on,,59,0,9,,,,,,,,,,,,,,,,7,,58,0
8519,note_on,,119,0,8,,,,,,,,,,,,,,,,6,,62,0
8519,note_on,,119,0,18,,,,,,,,,,,,,,,,15,,62,0
8520,note_on,,1,0,8,,,,,,,,,,,,,,,,6,,70,64
8520,note_on,,0,0,18,,,,,,,,,,,,,,,,15,,62,56
8520,note_on,,0,0,18,,,,,,,,,,,,,,,,15,,67,56
8520,note_on,,1,0,18,,,,,,,,,,,,,,,,15,,74,56
8520,note_on,,1,0,9,,,,,,,,,,,,,,,,7,,58,64
8520,note_on,,0,0,18,,,,,,,,,,,,,,,,15,,70,56
8579,note_on,,59,0,18,,,,,,,,,,,,,,,,15,,55,0
8579,note_on,,59,0,9,,,,,,,,,,,,,,,,7,,58,0
8580,note_on,,1,0,18,,,,,,,,,,,,,,,,15,,43,56
8580,note_on,,1,0,9,,,,,,,,,,,,,,,,7,,60,64
8609,note_on,,29,0,9,,,,,,,,,,,,,,,,7,,60,0
8610,note_on,,1,0,9,,,,,,,,,,,,,,,,7,,62,64
8639,note_on,,59,0,18,,,,,,,,,,,,,,,,15,,74,0
8639,note_on,,0,0,18,,,,,,,,,,,,,,,,15,,70,0
8639,note_on,,0,0,18,,,,,,,,,,,,,,,,15,,67,0
8639,note_on,,0,0,18,,,,,,,,,,,,,,,,15,,62,0
8639,note_on,,0,0,18,,,,,,,,,,,,,,,,15,,43,0
8639,note_on,,29,0,9,,,,,,,,,,,,,,,,7,,62,0
8640,note_on,,1,0,9,,,,,,,,,,,,,,,,7,,63,64
8640,note_on,,1,0,18,,,,,,,,,,,,,,,,15,,63,56
8640,note_on,,0,0,18,,,,,,,,,,,,,,,,15,,67,56
8640,note_on,,0,0,18,,,,,,,,,,,,,,,,15,,72,56
8640,note_on,,0,0,18,,,,,,,,,,,,,,,,15,,48,56
8699,note_on,,179,0,8,,,,,,,,,,,,,,,,6,,70,0
8700,note_on,,1,0,8,,,,,,,,,,,,,,,,6,,70,64
8759,note_on,,59,0,8,,,,,,,,,,,,,,,,6,,70,0
8760,note_on,,1,0,8,,,,,,,,,,,,,,,,6,,69,64
8819,note_on,,59,0,8,,,,,,,,,,,,,,,,6,,69,0
8819,note_on,,179,0,9,,,,,,,,,,,,,,,,7,,63,0
8819,note_on,,179,0,18,,,,,,,,,,,,,,,,15,,48,0
8820,note_on,,1,0,18,,,,,,,,,,,,,,,,15,,48,56
8820,note_on,,1,0,8,,,,,,,,,,,,,,,,6,,67,64
8820,note_on,,1,0,9,,,,,,,,,,,,,,,,7,,63,64
8879,note_on,,59,0,9,,,,,,,,,,,,,,,,7,,63,0
8879,note_on,,0,0,18,,,,,,,,,,,,,,,,15,,72,0
8879,note_on,,59,0,8,,,,,,,,,,,,,,,,6,,67,0
8879,note_on,,59,0,18,,,,,,,,,,,,,,,,15,,63,0
8879,note_on,,0,0,18,,,,,,,,,,,,,,,,15,,48,0
8879,note_on,,0,0,18,,,,,,,,,,,,,,,,15,,67,0
8880,note_on,,1,0,8,,,,,,,,,,,,,,,,6,,66,64
8880,note_on,,1,0,18,,,,,,,,,,,,,,,,15,,50,56
8880,note_on,,0,0,18,,,,,,,,,,,,,,,,15,,62,56
8880,note_on,,0,0,18,,,,,,,,,,,,,,,,15,,57,56
8880,note_on,,0,0,18,,,,,,,,,,,,,,,,15,,66,56
8880,note_on,,1,0,9,,,,,,,,,,,,,,,,7,,63,64
8939,note_on,,59,0,9,,,,,,,,,,,,,,,,7,,63,0
8940,note_on,,1,0,9,,,,,,,,,,,,,,,,7,,62,64
8999,note_on,,0,0,18,,,,,,,,,,,,,,,,15,,66,0
8999,note_on,,119,0,8,,,,,,,,,,,,,,,,6,,66,0
8999,note_on,,0,0,18,,,,,,,,,,,,,,,,15,,57,0
8999,note_on,,0,0,18,,,,,,,,,,,,,,,,15,,62,0
8999,note_on,,119,0,18,,,,,,,,,,,,,,,,15,,50,0
9000,note_on,,0,0,18,,,,,,,,,,,,,,,,15,,67,56
9000,note_on,,0,0,18,,,,,,,,,,,,,,,,15,,58,56
9000,note_on,,1,0,18,,,,,,,,,,,,,,,,15,,51,56
9000,note_on,,0,0,18,,,,,,,,,,,,,,,,15,,55,56
9000,note_on,,1,0,8,,,,,,,,,,,,,,,,6,,67,64
9059,note_on,,119,0,9,,,,,,,,,,,,,,,,7,,62,0
9060,note_on,,1,0,9,,,,,,,,,,,,,,,,7,,60,64
9119,note_on,,119,0,18,,,,,,,,,,,,,,,,15,,51,0
9119,note_on,,0,0,18,,,,,,,,,,,,,,,,15,,58,0
9119,note_on,,0,0,18,,,,,,,,,,,,,,,,15,,55,0
9119,note_on,,59,0,9,,,,,,,,,,,,,,,,7,,60,0
9120,note_on,,1,0,9,,,,,,,,,,,,,,,,7,,58,64
9120,note_on,,0,0,18,,,,,,,,,,,,,,,,15,,50,56
9120,note_on,,1,0,18,,,,,,,,,,,,,,,,15,,62,56
9120,note_on,,0,0,18,,,,,,,,,,,,,,,,15,,58,56
9239,note_on,,0,0,18,,,,,,,,,,,,,,,,15,,58,0
9239,note_on,,0,0,18,,,,,,,,,,,,,,,,15,,50,0
9239,note_on,,119,0,18,,,,,,,,,,,,,,,,15,,67,0
9239,note_on,,119,0,9,,,,,,,,,,,,,,,,7,,58,0
9239,note_on,,239,0,8,,,,,,,,,,,,,,,,6,,67,0
9239,note_on,,0,0,18,,,,,,,,,,,,,,,,15,,62,0
9240,note_on,,0,0,18,,,,,,,,,,,,,,,,15,,38,56
9240,note_on,,1,0,9,,,,,,,,,,,,,,,,7,,57,64
9240,note_on,,1,0,18,,,,,,,,,,,,,,,,15,,69,56
9240,note_on,,1,0,8,,,,,,,,,,,,,,,,6,,66,64
9240,note_on,,0,0,18,,,,,,,,,,,,,,,,15,,66,56
9240,note_on,,0,0,18,,,,,,,,,,,,,,,,15,,62,56
9254,note_on,,14,0,8,,,,,,,,,,,,,,,,6,,66,0
9254,note_on,,14,0,9,,,,,,,,,,,,,,,,7,,57,0
9255,note_on,,1,0,8,,,,,,,,,,,,,,,,6,,67,64
9255,note_on,,1,0,9,,,,,,,,,,,,,,,,7,,58,64
9269,note_on,,14,0,8,,,,,,,,,,,,,,,,6,,67,0
9269,note_on,,14,0,9,,,,,,,,,,,,,,,,7,,58,0
9270,note_on,,1,0,8,,,,,,,,,,,,,,,,6,,66,64
9270,note_on,,1,0,9,,,,,,,,,,,,,,,,7,,57,64
9284,note_on,,14,0,8,,,,,,,,,,,,,,,,6,,66,0
9284,note_on,,14,0,9,,,,,,,,,,,,,,,,7,,57,0
9285,note_on,,1,0,9,,,,,,,,,,,,,,,,7,,58,64
9285,note_on,,1,0,8,,,,,,,,,,,,,,,,6,,67,64
9299,note_on,,14,0,8,,,,,,,,,,,,,,,,6,,67,0
9299,note_on,,14,0,9,,,,,,,,,,,,,,,,7,,58,0
9300,note_on,,1,0,8,,,,,,,,,,,,,,,,6,,66,64
9300,note_on,,1,0,9,,,,,,,,,,,,,,,,7,,55,64
9314,note_on,,14,0,9,,,,,,,,,,,,,,,,7,,55,0
9314,note_on,,14,0,8,,,,,,,,,,,,,,,,6,,66,0
9315,note_on,,1,0,8,,,,,,,,,,,,,,,,6,,67,64
9315,note_on,,1,0,9,,,,,,,,,,,,,,,,7,,57,64
9329,note_on,,14,0,8,,,,,,,,,,,,,,,,6,,67,0
9329,note_on,,14,0,9,,,,,,,,,,,,,,,,7,,57,0
9330,note_on,,1,0,8,,,,,,,,,,,,,,,,6,,63,64
9330,note_on,,1,0,9,,,,,,,,,,,,,,,,7,,55,64
9344,note_on,,14,0,8,,,,,,,,,,,,,,,,6,,63,0
9345,note_on,,1,0,8,,,,,,,,,,,,,,,,6,,66,64
9359,note_on,,14,0,8,,,,,,,,,,,,,,,,6,,66,0
9359,note_on,,0,0,18,,,,,,,,,,,,,,,,15,,66,0
9359,note_on,,29,0,9,,,,,,,,,,,,,,,,7,,55,0
9359,note_on,,0,0,18,,,,,,,,,,,,,,,,15,,62,0
9359,note_on,,0,0,18,,,,,,,,,,,,,,,,15,,38,0
9359,note_on,,119,0,18,,,,,,,,,,,,,,,,15,,69,0
9360,note_on,,1,0,9,,,,,,,,,,,,,,,,7,,55,64
9360,note_on,,1,0,8,,,,,,,,,,,,,,,,6,,67,64
9360,note_on,,0,0,18,,,,,,,,,,,,,,,,15,,70,56
9360,note_on,,0,0,18,,,,,,,,,,,,,,,,15,,62,56
9360,note_on,,0,0,18,,,,,,,,,,,,,,,,15,,43,56
9360,note_on,,1,0,18,,,,,,,,,,,,,,,,15,,67,56
9419,note_on,,59,0,9,,,,,,,,,,,,,,,,7,,55,0
9420,note_on,,1,0,9,,,,,,,,,,,,,,,,7,,62,64
9479,note_on,,119,0,8,,,,,,,,,,,,,,,,6,,67,0
9479,note_on,,59,0,9,,,,,,,,,,,,,,,,7,,62,0
9479,note_on,,0,0,18,,,,,,,,,,,,,,,,15,,43,0
9479,note_on,,119,0,18,,,,,,,,,,,,,,,,15,,67,0
9479,note_on,,0,0,18,,,,,,,,,,,,,,,,15,,70,0
9480,note_on,,1,0,9,,,,,,,,,,,,,,,,7,,62,64
9480,note_on,,1,0,18,,,,,,,,,,,,,,,,15,,69,56
9480,note_on,,0,0,18,,,,,,,,,,,,,,,,15,,41,56
9539,note_on,,59,0,18,,,,,,,,,,,,,,,,15,,69,0
9539,note_on,,0,0,18,,,,,,,,,,,,,,,,15,,41,0
9540,note_on,,1,0,18,,,,,,,,,,,,,,,,15,,43,56
9540,note_on,,0,0,18,,,,,,,,,,,,,,,,15,,67,56
9599,note_on,,59,0,18,,,,,,,,,,,,,,,,15,,43,0
9599,note_on,,0,0,18,,,,,,,,,,,,,,,,15,,67,0
9600,note_on,,1,0,18,,,,,,,,,,,,,,,,15,,44,56
9600,note_on,,0,0,18,,,,,,,,,,,,,,,,15,,65,56
9659,note_on,,179,0,9,,,,,,,,,,,,,,,,7,,62,0
9660,note_on,,1,0,9,,,,,,,,,,,,,,,,7,,60,64
9689,note_on,,29,0,9,,,,,,,,,,,,,,,,7,,60,0
9690,note_on,,1,0,9,,,,,,,,,,,,,,,,7,,59,64
9719,note_on,,29,0,9,,,,,,,,,,,,,,,,7,,59,0
9719,note_on,,119,0,18,,,,,,,,,,,,,,,,15,,62,0
9719,note_on,,0,0,18,,,,,,,,,,,,,,,,15,,65,0
9720,note_on,,1,0,9,,,,,,,,,,,,,,,,7,,60,64
9720,note_on,,1,0,18,,,,,,,,,,,,,,,,15,,68,56
9720,note_on,,0,0,18,,,,,,,,,,,,,,,,15,,65,56
9720,note_on,,0,0,18,,,,,,,,,,,,,,,,15,,60,56
9779,note_on,,59,0,9,,,,,,,,,,,,,,,,7,,60,0
9779,note_on,,59,0,18,,,,,,,,,,,,,,,,15,,44,0
9780,note_on,,1,0,9,,,,,,,,,,,,,,,,7,,60,64
9780,note_on,,1,0,18,,,,,,,,,,,,,,,,15,,41,56
9839,note_on,,0,0,18,,,,,,,,,,,,,,,,15,,41,0
9839,note_on,,0,0,18,,,,,,,,,,,,,,,,15,,60,0
9839,note_on,,0,0,18,,,,,,,,,,,,,,,,15,,65,0
9839,note_on,,59,0,18,,,,,,,,,,,,,,,,15,,68,0
9839,note_on,,59,0,9,,,,,,,,,,,,,,,,7,,60,0
9840,note_on,,1,0,18,,,,,,,,,,,,,,,,15,,55,56
9840,note_on,,1,0,9,,,,,,,,,,,,,,,,7,,60,64
9840,note_on,,0,0,18,,,,,,,,,,,,,,,,15,,62,56
9840,note_on,,0,0,18,,,,,,,,,,,,,,,,15,,67,56
9840,note_on,,0,0,18,,,,,,,,,,,,,,,,15,,43,56
9899,note_on,,59,0,9,,,,,,,,,,,,,,,,7,,60,0
9900,note_on,,421,0,8,,,,,,,,,,,,,,,,6,,67,64
9900,note_on,,1,0,9,,,,,,,,,,,,,,,,7,,59,64
9959,note_on,,119,0,18,,,,,,,,,,,,,,,,15,,55,0
9959,note_on,,0,0,18,,,,,,,,,,,,,,,,15,,67,0
9959,note_on,,0,0,18,,,,,,,,,,,,,,,,15,,62,0
9959,note_on,,59,0,8,,,,,,,,,,,,,,,,6,,67,0
9959,note_on,,59,0,9,,,,,,,,,,,,,,,,7,,59,0
9960,note_on,,0,0,18,,,,,,,,,,,,,,,,15,,67,56
9960,note_on,,1,0,8,,,,,,,,,,,,,,,,6,,67,64
9960,note_on,,0,0,18,,,,,,,,,,,,,,,,15,,62,56
9960,note_on,,1,0,18,,,,,,,,,,,,,,,,15,,71,56
10019,note_on,,59,0,18,,,,,,,,,,,,,,,,15,,43,0
10020,note_on,,1,0,18,,,,,,,,,,,,,,,,15,,43,56
10020,note_on,,61,0,9,,,,,,,,,,,,,,,,7,,59,64
10079,note_on,,0,0,18,,,,,,,,,,,,,,,,15,,43,0
10079,note_on,,0,0,18,,,,,,,,,,,,,,,,15,,67,0
10079,note_on,,59,0,18,,,,,,,,,,,,,,,,15,,71,0
10079,note_on,,59,0,9,,,,,,,,,,,,,,,,7,,59,0
10079,note_on,,0,0,18,,,,,,,,,,,,,,,,15,,62,0
10080,note_on,,1,0,18,,,,,,,,,,,,,,,,15,,45,56
10080,note_on,,0,0,18,,,,,,,,,,,,,,,,15,,60,56
10080,note_on,,1,0,9,,,,,,,,,,,,,,,,7,,60,64
10080,note_on,,0,0,18,,,,,,,,,,,,,,,,15,,69,56
10139,note_on,,179,0,8,,,,,,,,,,,,,,,,6,,67,0
10139,note_on,,59,0,9,,,,,,,,,,,,,,,,7,,60,0
10140,note_on,,1,0,9,,,,,,,,,,,,,,,,7,,60,64
10140,note_on,,1,0,8,,,,,,,,,,,,,,,,6,,65,64
10169,note_on,,29,0,8,,,,,,,,,,,,,,,,6,,65,0
10170,note_on,,1,0,8,,,,,,,,,,,,,,,,6,,64,64
10199,note_on,,29,0,8,,,,,,,,,,,,,,,,6,,64,0
10199,note_on,,119,0,18,,,,,,,,,,,,,,,,15,,45,0
10199,note_on,,0,0,18,,,,,,,,,,,,,,,,15,,60,0
10199,note_on,,0,0,18,,,,,,,,,,,,,,,,15,,69,0
10199,note_on,,59,0,9,,,,,,,,,,,,,,,,7,,60,0
10200,note_on,,0,0,18,,,,,,,,,,,,,,,,15,,62,56
10200,note_on,,1,0,8,,,,,,,,,,,,,,,,6,,65,64
10200,note_on,,1,0,18,,,,,,,,,,,,,,,,15,,55,56
10200,note_on,,0,0,18,,,,,,,,,,,,,,,,15,,47,56
10200,note_on,,0,0,18,,,,,,,,,,,,,,,,15,,67,56
10200,note_on,,1,0,9,,,,,,,,,,,,,,,,7,,62,64
10259,note_on,,59,0,8,,,,,,,,,,,,,,,,6,,65,0
10259,note_on,,59,0,9,,,,,,,,,,,,,,,,7,,62,0
10260,note_on,,1,0,9,,,,,,,,,,,,,,,,7,,62,64
10260,note_on,,1,0,8,,,,,,,,,,,,,,,,6,,65,64
10319,note_on,,119,0,18,,,,,,,,,,,,,,,,15,,55,0
10319,note_on,,59,0,8,,,,,,,,,,,,,,,,6,,65,0
10319,note_on,,0,0,18,,,,,,,,,,,,,,,,15,,67,0
10319,note_on,,59,0,9,,,,,,,,,,,,,,,,7,,62,0
10319,note_on,,0,0,18,,,,,,,,,,,,,,,,15,,62,0
10319,note_on,,0,0,18,,,,,,,,,,,,,,,,15,,47,0
10320,note_on,,1,0,9,,,,,,,,,,,,,,,,7,,55,64
10320,note_on,,1,0,8,,,,,,,,,,,,,,,,6,,65,64
10320,note_on,,0,0,18,,,,,,,,,,,,,,,,15,,48,56
10320,note_on,,0,0,18,,,,,,,,,,,,,,,,15,,60,56
10320,note_on,,1,0,18,,,,,,,,,,,,,,,,15,,55,56
10379,note_on,,59,0,8,,,,,,,,,,,,,,,,6,,65,0
10380,note_on,,1,0,8,,,,,,,,,,,,,,,,6,,63,64
10439,note_on,,59,0,8,,,,,,,,,,,,,,,,6,,63,0
10439,note_on,,119,0,9,,,,,,,,,,,,,,,,7,,55,0
10439,note_on,,119,0,18,,,,,,,,,,,,,,,,15,,55,0
10439,note_on,,0,0,18,,,,,,,,,,,,,,,,15,,60,0
10440,note_on,,1,0,9,,,,,,,,,,,,,,,,7,,63,64
10440,note_on,,0,0,18,,,,,,,,,,,,,,,,15,,67,56
10440,note_on,,0,0,18,,,,,,,,,,,,,,,,15,,63,56
10440,note_on,,1,0,18,,,,,,,,,,,,,,,,15,,72,56
10440,note_on,,1,0,8,,,,,,,,,,,,,,,,6,,63,64
10499,note_on,,59,0,8,,,,,,,,,,,,,,,,6,,63,0
10499,note_on,,59,0,18,,,,,,,,,,,,,,,,15,,48,0
10500,note_on,,1,0,8,,,,,,,,,,,,,,,,6,,65,64
10500,note_on,,1,0,18,,,,,,,,,,,,,,,,15,,48,56
10529,note_on,,29,0,8,,,,,,,,,,,,,,,,6,,65,0
10530,note_on,,1,0,8,,,,,,,,,,,,,,,,6,,67,64
10559,note_on,,0,0,18,,,,,,,,,,,,,,,,15,,63,0
10559,note_on,,59,0,18,,,,,,,,,,,,,,,,15,,72,0
10559,note_on,,0,0,18,,,,,,,,,,,,,,,,15,,67,0
10559,note_on,,0,0,18,,,,,,,,,,,,,,,,15,,48,0
10559,note_on,,29,0,8,,,,,,,,,,,,,,,,6,,67,0
10560,note_on,,1,0,18,,,,,,,,,,,,,,,,15,,41,56
10560,note_on,,0,0,18,,,,,,,,,,,,,,,,15,,68,56
10560,note_on,,0,0,18,,,,,,,,,,,,,,,,15,,65,56
10560,note_on,,0,0,18,,,,,,,,,,,,,,,,15,,60,56
10560,note_on,,1,0,8,,,,,,,,,,,,,,,,6,,68,64
10619,note_on,,179,0,9,,,,,,,,,,,,,,,,7,,63,0
10620,note_on,,1,0,9,,,,,,,,,,,,,,,,7,,63,64
10679,note_on,,119,0,18,,,,,,,,,,,,,,,,15,,41,0
10679,note_on,,0,0,18,,,,,,,,,,,,,,,,15,,60,0
10679,note_on,,0,0,18,,,,,,,,,,,,,,,,15,,65,0
10679,note_on,,0,0,18,,,,,,,,,,,,,,,,15,,68,0
10679,note_on,,59,0,9,,,,,,,,,,,,,,,,7,,63,0
10680,note_on,,1,0,18,,,,,,,,,,,,,,,,15,,65,56
10680,note_on,,0,0,18,,,,,,,,,,,,,,,,15,,53,56
10680,note_on,,0,0,18,,,,,,,,,,,,,,,,15,,68,56
10680,note_on,,0,0,18,,,,,,,,,,,,,,,,15,,74,56
10680,note_on,,1,0,9,,,,,,,,,,,,,,,,7,,62,64
10739,note_on,,59,0,9,,,,,,,,,,,,,,,,7,,62,0
10739,note_on,,179,0,8,,,,,,,,,,,,,,,,6,,68,0
10740,note_on,,1,0,9,,,,,,,,,,,,,,,,7,,60,64
10740,note_on,,1,0,8,,,,,,,,,,,,,,,,6,,68,64
10799,note_on,,0,0,18,,,,,,,,,,,,,,,,15,,74,0
10799,note_on,,59,0,8,,,,,,,,,,,,,,,,6,,68,0
10799,note_on,,0,0,18,,,,,,,,,,,,,,,,15,,53,0
10799,note_on,,119,0,18,,,,,,,,,,,,,,,,15,,65,0
10799,note_on,,59,0,9,,,,,,,,,,,,,,,,7,,60,0
10799,note_on,,0,0,18,,,,,,,,,,,,,,,,15,,68,0
10800,note_on,,1,0,8,,,,,,,,,,,,,,,,6,,68,64
10800,note_on,,1,0,9,,,,,,,,,,,,,,,,7,,59,64
10800,note_on,,1,0,18,,,,,,,,,,,,,,,,15,,55,56
10800,note_on,,0,0,18,,,,,,,,,,,,,,,,15,,62,56
10800,note_on,,0,0,18,,,,,,,,,,,,,,,,15,,71,56
10859,note_on,,59,0,8,,,,,,,,,,,,,,,,6,,68,0
10860,note_on,,1,0,8,,,,,,,,,,,,,,,,6,,67,64
10919,note_on,,0,0,18,,,,,,,,,,,,,,,,15,,62,0
10919,note_on,,0,0,18,,,,,,,,,,,,,,,,15,,71,0
10919,note_on,,119,0,18,,,,,,,,,,,,,,,,15,,55,0
10919,note_on,,119,0,9,,,,,,,,,,,,,,,,7,,59,0
10920,note_on,,1,0,18,,,,,,,,,,,,,,,,15,,72,56
10920,note_on,,0,0,18,,,,,,,,,,,,,,,,15,,60,56
10920,note_on,,0,0,18,,,,,,,,,,,,,,,,15,,68,56
10920,note_on,,0,0,18,,,,,,,,,,,,,,,,15,,56,56
10920,note_on,,1,0,9,,,,,,,,,,,,,,,,7,,60,64
10979,note_on,,59,0,18,,,,,,,,,,,,,,,,15,,60,0
10979,note_on,,119,0,8,,,,,,,,,,,,,,,,6,,67,0
10980,note_on,,1,0,8,,,,,,,,,,,,,,,,6,,65,64
10980,note_on,,1,0,18,,,,,,,,,,,,,,,,15,,62,56
11039,note_on,,59,0,8,,,,,,,,,,,,,,,,6,,65,0
11039,note_on,,59,0,18,,,,,,,,,,,,,,,,15,,72,0
11039,note_on,,0,0,18,,,,,,,,,,,,,,,,15,,68,0
11039,note_on,,0,0,18,,,,,,,,,,,,,,,,15,,56,0
11039,note_on,,0,0,18,,,,,,,,,,,,,,,,15,,62,0
11040,note_on,,1,0,8,,,,,,,,,,,,,,,,6,,63,64
11040,note_on,,1,0,18,,,,,,,,,,,,,,,,15,,63,56
11040,note_on,,0,0,18,,,,,,,,,,,,,,,,15,,72,56
11040,note_on,,0,0,18,,,,,,,,,,,,,,,,15,,67,56
11040,note_on,,0,0,18,,,,,,,,,,,,,,,,15,,55,56
11159,note_on,,0,0,18,,,,,,,,,,,,,,,,15,,72,0
11159,note_on,,0,0,18,,,,,,,,,,,,,,,,15,,67,0
11159,note_on,,0,0,18,,,,,,,,,,,,,,,,15,,55,0
11159,note_on,,239,0,9,,,,,,,,,,,,,,,,7,,60,0
11159,note_on,,119,0,18,,,,,,,,,,,,,,,,15,,63,0
11159,note_on,,119,0,8,,,,,,,,,,,,,,,,6,,63,0
11160,note_on,,0,0,18,,,,,,,,,,,,,,,,15,,67,56
11160,note_on,,0,0,18,,,,,,,,,,,,,,,,15,,71,56
11160,note_on,,1,0,8,,,,,,,,,,,,,,,,6,,62,64
11160,note_on,,1,0,18,,,,,,,,,,,,,,,,15,,62,56
11160,note_on,,0,0,18,,,,,,,,,,,,,,,,15,,43,56
11160,note_on,,1,0,9,,,,,,,,,,,,,,,,7,,59,64
11174,note_on,,14,0,9,,,,,,,,,,,,,,,,7,,59,0
11174,note_on,,14,0,8,,,,,,,,,,,,,,,,6,,62,0
11175,note_on,,1,0,8,,,,,,,,,,,,,,,,6,,63,64
11175,note_on,,1,0,9,,,,,,,,,,,,,,,,7,,60,64
11189,note_on,,14,0,8,,,,,,,,,,,,,,,,6,,63,0
11189,note_on,,14,0,9,,,,,,,,,,,,,,,,7,,60,0
11190,note_on,,1,0,8,,,,,,,,,,,,,,,,6,,62,64
11190,note_on,,1,0,9,,,,,,,,,,,,,,,,7,,59,64
11204,note_on,,14,0,8,,,,,,,,,,,,,,,,6,,62,0
11204,note_on,,14,0,9,,,,,,,,,,,,,,,,7,,59,0
11205,note_on,,1,0,9,,,,,,,,,,,,,,,,7,,60,64
11205,note_on,,1,0,8,,,,,,,,,,,,,,,,6,,63,64
11219,note_on,,14,0,9,,,,,,,,,,,,,,,,7,,60,0
11219,note_on,,14,0,8,,,,,,,,,,,,,,,,6,,63,0
11220,note_on,,1,0,9,,,,,,,,,,,,,,,,7,,59,64
11220,note_on,,1,0,8,,,,,,,,,,,,,,,,6,,60,64
11234,note_on,,14,0,9,,,,,,,,,,,,,,,,7,,59,0
11234,note_on,,14,0,8,,,,,,,,,,,,,,,,6,,60,0
11235,note_on,,1,0,8,,,,,,,,,,,,,,,,6,,62,64
11235,note_on,,1,0,9,,,,,,,,,,,,,,,,7,,60,64
11249,note_on,,14,0,9,,,,,,,,,,,,,,,,7,,60,0
11249,note_on,,14,0,8,,,,,,,,,,,,,,,,6,,62,0
11250,note_on,,1,0,8,,,,,,,,,,,,,,,,6,,60,64
11250,note_on,,1,0,9,,,,,,,,,,,,,,,,7,,56,64
11264,note_on,,14,0,9,,,,,,,,,,,,,,,,7,,56,0
11265,note_on,,1,0,9,,,,,,,,,,,,,,,,7,,59,64
11279,note_on,,119,0,18,,,,,,,,,,,,,,,,15,,62,0
11279,note_on,,0,0,18,,,,,,,,,,,,,,,,15,,43,0
11279,note_on,,0,0,18,,,,,,,,,,,,,,,,15,,71,0
11279,note_on,,29,0,8,,,,,,,,,,,,,,,,6,,60,0
11279,note_on,,14,0,9,,,,,,,,,,,,,,,,7,,59,0
11279,note_on,,0,0,18,,,,,,,,,,,,,,,,15,,67,0
11280,note_on,,1,0,9,,,,,,,,,,,,,,,,7,,60,64
11280,note_on,,1,0,8,,,,,,,,,,,,,,,,6,,60,64
11280,note_on,,0,0,18,,,,,,,,,,,,,,,,15,,67,56
11280,note_on,,0,0,18,,,,,,,,,,,,,,,,15,,72,56
11280,note_on,,1,0,18,,,,,,,,,,,,,,,,15,,48,56
11280,note_on,,0,0,18,,,,,,,,,,,,,,,,15,,63,56
11459,note_on,,0,0,18,,,,,,,,,,,,,,,,15,,67,0
11459,note_on,,179,0,18,,,,,,,,,,,,,,,,15,,48,0
11460,note_on,,1,0,18,,,,,,,,,,,,,,,,15,,65,56
11460,note_on,,0,0,18,,,,,,,,,,,,,,,,15,,50,56
11519,end_of_track,,0,1,8,,,,,,,,,,,,,,,,,,,
11519,note_on,,239,0,8,,,,,,,,,,,,,,,,6,,60,0
11519,end_of_track,,0,1,9,,,,,,,,,,,,,,,,,,,
11519,note_on,,0,0,18,,,,,,,,,,,,,,,,15,,65,0
11519,note_on,,0,0,18,,,,,,,,,,,,,,,,15,,50,0
11519,note_on,,0,0,18,,,,,,,,,,,,,,,,15,,63,0
11519,note_on,,239,0,9,,,,,,,,,,,,,,,,7,,60,0
11519,note_on,,59,0,18,,,,,,,,,,,,,,,,15,,72,0
11520,note_on,,11520,0,17,,,,,,,,,,,,,,,,13,,51,72
11520,note_on,,11520,0,7,,,,,,,,,,,,,,,,2,,51,72
11520,note_on,,0,0,18,,,,,,,,,,,,,,,,15,,67,72
11520,note_on,,0,0,18,,,,,,,,,,,,,,,,15,,63,72
11520,note_on,,0,0,18,,,,,,,,,,,,,,,,15,,70,72
11520,note_on,,1,0,18,,,,,,,,,,,,,,,,15,,51,72
11579,note_on,,59,0,18,,,,,,,,,,,,,,,,15,,51,0
11579,note_on,,59,0,7,,,,,,,,,,,,,,,,2,,51,0
11579,note_on,,59,0,17,,,,,,,,,,,,,,,,13,,51,0
11579,note_on,,0,0,18,,,,,,,,,,,,,,,,15,,67,0
11580,note_on,,1,0,17,,,,,,,,,,,,,,,,13,,53,72
11580,note_on,,1,0,18,,,,,,,,,,,,,,,,15,,53,72
11580,note_on,,1,0,7,,,,,,,,,,,,,,,,2,,53,72
11580,note_on,,0,0,18,,,,,,,,,,,,,,,,15,,68,72
11639,note_on,,59,0,7,,,,,,,,,,,,,,,,2,,53,0
11639,note_on,,59,0,18,,,,,,,,,,,,,,,,15,,70,0
11639,note_on,,0,0,18,,,,,,,,,,,,,,,,15,,53,0
11639,note_on,,0,0,18,,,,,,,,,,,,,,,,15,,68,0
11639,note_on,,59,0,17,,,,,,,,,,,,,,,,13,,53,0
11640,note_on,,1,0,18,,,,,,,,,,,,,,,,15,,55,72
11640,note_on,,1,0,7,,,,,,,,,,,,,,,,2,,55,72
11640,note_on,,1,0,17,,,,,,,,,,,,,,,,13,,55,72
11640,note_on,,0,0,18,,,,,,,,,,,,,,,,15,,70,72
11640,note_on,,0,0,18,,,,,,,,,,,,,,,,15,,75,72
11699,note_on,,59,0,7,,,,,,,,,,,,,,,,2,,55,0
11699,note_on,,0,0,18,,,,,,,,,,,,,,,,15,,55,0
11699,note_on,,59,0,17,,,,,,,,,,,,,,,,13,,55,0
11699,note_on,,59,0,18,,,,,,,,,,,,,,,,15,,63,0
11700,note_on,,0,0,11,,,,,,,,,,,,,,,,6,,67,72
11700,note_on,,11700,0,13,,,,,,,,,,,,,,,,8,,51,72
11700,note_on,,11700,0,14,,,,,,,,,,,,,,,,10,,75,72
11700,note_on,,11700,0,15,,,,,,,,,,,,,,,,11,,67,72
11700,note_on,,11700,0,10,,,,,,,,,,,,,,,,5,,75,72
11700,note_on,,1,0,7,,,,,,,,,,,,,,,,2,,51,72
11700,control_change,,11700,0,11,,,,,,,,,,,,,,10,96,6,,,
11700,note_on,,11700,0,6,,,,,,,,,,,,,,,,1,,75,72
11700,control_change,,11700,0,12,,,,,,,,,,,,,,10,48,7,,,
11700,note_on,,0,0,12,,,,,,,,,,,,,,,,7,,58,72
11700,note_on,,11700,0,16,,,,,,,,,,,,,,,,12,,58,72
11700,note_on,,0,0,18,,,,,,,,,,,,,,,,15,,67,72
11700,note_on,,1,0,18,,,,,,,,,,,,,,,,15,,51,72
11700,note_on,,1,0,17,,,,,,,,,,,,,,,,13,,51,72
11759,note_on,,0,0,18,,,,,,,,,,,,,,,,15,,51,0
11759,note_on,,0,0,18,,,,,,,,,,,,,,,,15,,67,0
11759,note_on,,0,0,18,,,,,,,,,,,,,,,,15,,70,0
11759,note_on,,59,0,18,,,,,,,,,,,,,,,,15,,75,0
11759,note_on,,59,0,16,,,,,,,,,,,,,,,,12,,58,0
11759,note_on,,59,0,11,,,,,,,,,,,,,,,,6,,67,0
11759,note_on,,59,0,10,,,,,,,,,,,,,,,,5,,75,0
11759,note_on,,59,0,15,,,,,,,,,,,,,,,,11,,67,0
11759,note_on,,59,0,17,,,,,,,,,,,,,,,,13,,51,0
11759,note_on,,59,0,14,,,,,,,,,,,,,,,,10,,75,0
11759,note_on,,59,0,7,,,,,,,,,,,,,,,,2,,51,0
11759,note_on,,59,0,12,,,,,,,,,,,,,,,,7,,58,0
11759,note_on,,59,0,13,,,,,,,,,,,,,,,,8,,51,0
11759,note_on,,59,0,6,,,,,,,,,,,,,,,,1,,75,0
11760,note_on,,1,0,14,,,,,,,,,,,,,,,,10,,75,72
11760,note_on,,0,0,18,,,,,,,,,,,,,,,,15,,68,72
11760,note_on,,1,0,18,,,,,,,,,,,,,,,,15,,53,72
11760,note_on,,1,0,12,,,,,,,,,,,,,,,,7,,56,72
11760,note_on,,1,0,16,,,,,,,,,,,,,,,,12,,65,72
11760,note_on,,1,0,11,,,,,,,,,,,,,,,,6,,65,72
11760,note_on,,1,0,6,,,,,,,,,,,,,,,,1,,75,72
11760,note_on,,1,0,10,,,,,,,,,,,,,,,,5,,75,72
11760,note_on,,1,0,17,,,,,,,,,,,,,,,,13,,53,72
11760,note_on,,0,0,18,,,,,,,,,,,,,,,,15,,65,72
11760,note_on,,1,0,15,,,,,,,,,,,,,,,,11,,68,72
11760,note_on,,1,0,7,,,,,,,,,,,,,,,,2,,53,72
11760,note_on,,1,0,13,,,,,,,,,,,,,,,,8,,53,72
11819,note_on,,59,0,6,,,,,,,,,,,,,,,,1,,75,0
11819,note_on,,59,0,14,,,,,,,,,,,,,,,,10,,75,0
11819,note_on,,59,0,10,,,,,,,,,,,,,,,,5,,75,0
11819,note_on,,59,0,17,,,,,,,,,,,,,,,,13,,53,0
11819,note_on,,59,0,18,,,,,,,,,,,,,,,,15,,53,0
11819,note_on,,59,0,7,,,,,,,,,,,,,,,,2,,53,0
11820,note_on,,1,0,18,,,,,,,,,,,,,,,,15,,55,72
11820,note_on,,1,0,6,,,,,,,,,,,,,,,,1,,74,72
11820,note_on,,1,0,17,,,,,,,,,,,,,,,,13,,55,72
11820,note_on,,1,0,14,,,,,,,,,,,,,,,,10,,74,72
11820,note_on,,1,0,7,,,,,,,,,,,,,,,,2,,55,72
11820,note_on,,1,0,10,,,,,,,,,,,,,,,,5,,74,72
11879,note_on,,59,0,14,,,,,,,,,,,,,,,,10,,74,0
11879,note_on,,59,0,10,,,,,,,,,,,,,,,,5,,74,0
11879,note_on,,119,0,15,,,,,,,,,,,,,,,,11,,68,0
11879,note_on,,119,0,11,,,,,,,,,,,,,,,,6,,65,0
11879,note_on,,119,0,13,,,,,,,,,,,,,,,,8,,53,0
11879,note_on,,119,0,16,,,,,,,,,,,,,,,,12,,65,0
11879,note_on,,59,0,17,,,,,,,,,,,,,,,,13,,55,0
11879,note_on,,119,0,12,,,,,,,,,,,,,,,,7,,56,0
11879,note_on,,0,0,18,,,,,,,,,,,,,,,,15,,65,0
11879,note_on,,0,0,18,,,,,,,,,,,,,,,,15,,55,0
11879,note_on,,59,0,6,,,,,,,,,,,,,,,,1,,74,0
11879,note_on,,59,0,7,,,,,,,,,,,,,,,,2,,55,0
11879,note_on,,59,0,18,,,,,,,,,,,,,,,,15,,68,0
11880,note_on,,1,0,18,,,,,,,,,,,,,,,,15,,56,72
11880,note_on,,0,0,18,,,,,,,,,,,,,,,,15,,77,72
11880,note_on,,0,0,18,,,,,,,,,,,,,,,,15,,74,72
11880,note_on,,0,0,18,,,,,,,,,,,,,,,,15,,65,72
11880,note_on,,1,0,17,,,,,,,,,,,,,,,,13,,56,72
11880,note_on,,1,0,7,,,,,,,,,,,,,,,,2,,56,72
11939,note_on,,59,0,18,,,,,,,,,,,,,,,,15,,56,0
11939,note_on,,59,0,17,,,,,,,,,,,,,,,,13,,56,0
11939,note_on,,59,0,7,,,,,,,,,,,,,,,,2,,56,0
11940,note_on,,61,0,15,,,,,,,,,,,,,,,,11,,68,72
11940,note_on,,61,0,13,,,,,,,,,,,,,,,,8,,53,72
11940,note_on,,1,0,7,,,,,,,,,,,,,,,,2,,53,72
11940,note_on,,61,0,6,,,,,,,,,,,,,,,,1,,74,72
11940,note_on,,61,0,16,,,,,,,,,,,,,,,,12,,65,72
11940,note_on,,61,0,14,,,,,,,,,,,,,,,,10,,74,72
11940,note_on,,61,0,10,,,,,,,,,,,,,,,,5,,74,72
11940,note_on,,1,0,17,,,,,,,,,,,,,,,,13,,53,72
11940,note_on,,61,0,11,,,,,,,,,,,,,,,,6,,65,72
11940,note_on,,61,0,12,,,,,,,,,,,,,,,,7,,56,72
11940,note_on,,1,0,18,,,,,,,,,,,,,,,,15,,53,72
11999,note_on,,59,0,18,,,,,,,,,,,,,,,,15,,77,0
11999,note_on,,59,0,7,,,,,,,,,,,,,,,,2,,53,0
11999,note_on,,0,0,18,,,,,,,,,,,,,,,,15,,74,0
11999,note_on,,0,0,18,,,,,,,,,,,,,,,,15,,65,0
11999,note_on,,0,0,18,,,,,,,,,,,,,,,,15,,53,0
11999,note_on,,59,0,15,,,,,,,,,,,,,,,,11,,68,0
11999,note_on,,59,0,11,,,,,,,,,,,,,,,,6,,65,0
11999,note_on,,59,0,6,,,,,,,,,,,,,,,,1,,74,0
11999,note_on,,59,0,14,,,,,,,,,,,,,,,,10,,74,0
11999,note_on,,59,0,13,,,,,,,,,,,,,,,,8,,53,0
11999,note_on,,59,0,10,,,,,,,,,,,,,,,,5,,74,0
11999,note_on,,59,0,17,,,,,,,,,,,,,,,,13,,53,0
11999,note_on,,59,0,16,,,,,,,,,,,,,,,,12,,65,0
11999,note_on,,59,0,12,,,,,,,,,,,,,,,,7,,56,0
12000,note_on,,1,0,17,,,,,,,,,,,,,,,,13,,55,72
12000,note_on,,1,0,7,,,,,,,,,,,,,,,,2,,55,72
12000,note_on,,1,0,16,,,,,,,,,,,,,,,,12,,63,72
12000,note_on,,1,0,12,,,,,,,,,,,,,,,,7,,58,72
12000,note_on,,1,0,13,,,,,,,,,,,,,,,,8,,55,72
12000,note_on,,1,0,6,,,,,,,,,,,,,,,,1,,75,72
12000,note_on,,1,0,18,,,,,,,,,,,,,,,,15,,55,72
12000,note_on,,1,0,15,,,,,,,,,,,,,,,,11,,70,72
12000,note_on,,0,0,18,,,,,,,,,,,,,,,,15,,70,72
12000,note_on,,0,0,18,,,,,,,,,,,,,,,,15,,67,72
12000,note_on,,0,0,18,,,,,,,,,,,,,,,,15,,63,72
12000,note_on,,1,0,11,,,,,,,,,,,,,,,,6,,63,72
12000,note_on,,1,0,10,,,,,,,,,,,,,,,,5,,75,72
12000,note_on,,1,0,14,,,,,,,,,,,,,,,,10,,75,72
12119,note_on,,119,0,17,,,,,,,,,,,,,,,,13,,55,0
12119,note_on,,119,0,18,,,,,,,,,,,,,,,,15,,55,0
12119,note_on,,119,0,16,,,,,,,,,,,,,,,,12,,63,0
12119,note_on,,119,0,12,,,,,,,,,,,,,,,,7,,58,0
12119,note_on,,0,0,18,,,,,,,,,,,,,,,,15,,70,0
12119,note_on,,119,0,11,,,,,,,,,,,,,,,,6,,63,0
12119,note_on,,119,0,13,,,,,,,,,,,,,,,,8,,55,0
12119,note_on,,119,0,6,,,,,,,,,,,,,,,,1,,75,0
12119,note_on,,119,0,15,,,,,,,,,,,,,,,,11,,70,0
12119,note_on,,0,0,18,,,,,,,,,,,,,,,,15,,63,0
12119,note_on,,119,0,7,,,,,,,,,,,,,,,,2,,55,0
12119,note_on,,0,0,18,,,,,,,,,,,,,,,,15,,67,0
12119,note_on,,119,0,14,,,,,,,,,,,,,,,,10,,75,0
12119,note_on,,119,0,10,,,,,,,,,,,,,,,,5,,75,0
12120,note_on,,1,0,13,,,,,,,,,,,,,,,,8,,56,72
12120,note_on,,1,0,15,,,,,,,,,,,,,,,,11,,68,72
12120,note_on,,1,0,14,,,,,,,,,,,,,,,,10,,72,72
12120,note_on,,1,0,11,,,,,,,,,,,,,,,,6,,68,72
12120,note_on,,1,0,6,,,,,,,,,,,,,,,,1,,72,72
12120,note_on,,1,0,18,,,,,,,,,,,,,,,,15,,56,72
12120,note_on,,1,0,7,,,,,,,,,,,,,,,,2,,56,72
12120,note_on,,1,0,17,,,,,,,,,,,,,,,,13,,56,72
12120,note_on,,1,0,16,,,,,,,,,,,,,,,,12,,63,72
12120,note_on,,1,0,10,,,,,,,,,,,,,,,,5,,72,72
12120,note_on,,0,0,18,,,,,,,,,,,,,,,,15,,60,72
12120,note_on,,0,0,18,,,,,,,,,,,,,,,,15,,63,72
12120,note_on,,0,0,18,,,,,,,,,,,,,,,,15,,72,72
12120,note_on,,1,0,12,,,,,,,,,,,,,,,,7,,63,72
12239,note_on,,119,0,15,,,,,,,,,,,,,,,,11,,68,0
12239,note_on,,119,0,14,,,,,,,,,,,,,,,,10,,72,0
12239,note_on,,119,0,6,,,,,,,,,,,,,,,,1,,72,0
12239,note_on,,119,0,17,,,,,,,,,,,,,,,,13,,56,0
12239,note_on,,119,0,10,,,,,,,,,,,,,,,,5,,72,0
12239,note_on,,119,0,16,,,,,,,,,,,,,,,,12,,63,0
12239,note_on,,119,0,13,,,,,,,,,,,,,,,,8,,56,0
12239,note_on,,119,0,18,,,,,,,,,,,,,,,,15,,56,0
12239,note_on,,0,0,18,,,,,,,,,,,,,,,,15,,72,0
12239,note_on,,0,0,18,,,,,,,,,,,,,,,,15,,63,0
12239,note_on,,0,0,18,,,,,,,,,,,,,,,,15,,60,0
12239,note_on,,119,0,7,,,,,,,,,,,,,,,,2,,56,0
12239,note_on,,119,0,11,,,,,,,,,,,,,,,,6,,68,0
12239,note_on,,119,0,12,,,,,,,,,,,,,,,,7,,63,0
12300,note_on,,61,0,7,,,,,,,,,,,,,,,,2,,55,72
12300,note_on,,0,0,18,,,,,,,,,,,,,,,,15,,63,72
12300,note_on,,61,0,11,,,,,,,,,,,,,,,,6,,63,72
12300,note_on,,61,0,16,,,,,,,,,,,,,,,,12,,58,72
12300,note_on,,61,0,10,,,,,,,,,,,,,,,,5,,75,72
12300,note_on,,61,0,14,,,,,,,,,,,,,,,,10,,75,72
12300,note_on,,61,0,6,,,,,,,,,,,,,,,,1,,75,72
12300,note_on,,0,0,18,,,,,,,,,,,,,,,,15,,67,72
12300,note_on,,61,0,15,,,,,,,,,,,,,,,,11,,70,72
12300,note_on,,61,0,17,,,,,,,,,,,,,,,,13,,55,72
12300,note_on,,0,0,18,,,,,,,,,,,,,,,,15,,70,72
12300,note_on,,61,0,18,,,,,,,,,,,,,,,,15,,55,72
12300,note_on,,61,0,13,,,,,,,,,,,,,,,,8,,55,72
12300,note_on,,61,0,12,,,,,,,,,,,,,,,,7,,58,72
12359,note_on,,59,0,6,,,,,,,,,,,,,,,,1,,75,0
12359,note_on,,59,0,12,,,,,,,,,,,,,,,,7,,58,0
12359,note_on,,0,0,18,,,,,,,,,,,,,,,,15,,70,0
12359,note_on,,0,0,18,,,,,,,,,,,,,,,,15,,67,0
12359,note_on,,0,0,18,,,,,,,,,,,,,,,,15,,63,0
12359,note_on,,59,0,17,,,,,,,,,,,,,,,,13,,55,0
12359,note_on,,59,0,16,,,,,,,,,,,,,,,,12,,58,0
12359,note_on,,59,0,7,,,,,,,,,,,,,,,,2,,55,0
12359,note_on,,59,0,10,,,,,,,,,,,,,,,,5,,75,0
12359,note_on,,59,0,18,,,,,,,,,,,,,,,,15,,55,0
12359,note_on,,59,0,13,,,,,,,,,,,,,,,,8,,55,0
12359,note_on,,59,0,14,,,,,,,,,,,,,,,,10,,75,0
12359,note_on,,59,0,15,,,,,,,,,,,,,,,,11,,70,0
12359,note_on,,59,0,11,,,,,,,,,,,,,,,,6,,63,0
12360,note_on,,1,0,6,,,,,,,,,,,,,,,,1,,74,72
12360,note_on,,1,0,14,,,,,,,,,,,,,,,,10,,74,72
12360,note_on,,1,0,17,,,,,,,,,,,,,,,,13,,53,72
12360,note_on,,1,0,10,,,,,,,,,,,,,,,,5,,74,72
12360,note_on,,1,0,15,,,,,,,,,,,,,,,,11,,68,72
12360,note_on,,1,0,7,,,,,,,,,,,,,,,,2,,53,72
12360,note_on,,1,0,12,,,,,,,,,,,,,,,,7,,58,72
12360,note_on,,1,0,11,,,,,,,,,,,,,,,,6,,68,72
12360,note_on,,0,0,18,,,,,,,,,,,,,,,,15,,68,72
12360,note_on,,0,0,18,,,,,,,,,,,,,,,,15,,74,72
12360,note_on,,1,0,18,,,,,,,,,,,,,,,,15,,53,72
12360,note_on,,1,0,16,,,,,,,,,,,,,,,,12,,65,72
12360,note_on,,1,0,13,,,,,,,,,,,,,,,,8,,53,72
12360,note_on,,0,0,18,,,,,,,,,,,,,,,,15,,65,72
12419,note_on,,59,0,15,,,,,,,,,,,,,,,,11,,68,0
12419,note_on,,59,0,16,,,,,,,,,,,,,,,,12,,65,0
12419,note_on,,0,0,18,,,,,,,,,,,,,,,,15,,65,0
12419,note_on,,59,0,17,,,,,,,,,,,,,,,,13,,53,0
12419,note_on,,0,0,18,,,,,,,,,,,,,,,,15,,68,0
12419,note_on,,0,0,18,,,,,,,,,,,,,,,,15,,74,0
12419,note_on,,59,0,18,,,,,,,,,,,,,,,,15,,53,0
12419,note_on,,59,0,13,,,,,,,,,,,,,,,,8,,53,0
12419,note_on,,59,0,12,,,,,,,,,,,,,,,,7,,58,0
12419,note_on,,59,0,10,,,,,,,,,,,,,,,,5,,74,0
12419,note_on,,59,0,14,,,,,,,,,,,,,,,,10,,74,0
12419,note_on,,59,0,6,,,,,,,,,,,,,,,,1,,74,0
12419,note_on,,59,0,7,,,,,,,,,,,,,,,,2,,53,0
12419,note_on,,59,0,11,,,,,,,,,,,,,,,,6,,68,0
12420,note_on,,1,0,10,,,,,,,,,,,,,,,,5,,75,72
12420,note_on,,1,0,12,,,,,,,,,,,,,,,,7,,58,72
12420,note_on,,1,0,7,,,,,,,,,,,,,,,,2,,51,72
12420,note_on,,1,0,15,,,,,,,,,,,,,,,,11,,67,72
12420,note_on,,1,0,17,,,,,,,,,,,,,,,,13,,51,72
12420,note_on,,0,0,18,,,,,,,,,,,,,,,,15,,70,72
12420,note_on,,0,0,18,,,,,,,,,,,,,,,,15,,75,72
12420,note_on,,0,0,18,,,,,,,,,,,,,,,,15,,51,72
12420,note_on,,1,0,18,,,,,,,,,,,,,,,,15,,67,72
12420,note_on,,1,0,11,,,,,,,,,,,,,,,,6,,67,72
12420,note_on,,1,0,16,,,,,,,,,,,,,,,,12,,70,72
12420,note_on,,1,0,14,,,,,,,,,,,,,,,,10,,75,72
12420,note_on,,1,0,13,,,,,,,,,,,,,,,,8,,51,72
12420,note_on,,1,0,6,,,,,,,,,,,,,,,,1,,75,72
12479,note_on,,59,0,12,,,,,,,,,,,,,,,,7,,58,0
12479,note_on,,59,0,14,,,,,,,,,,,,,,,,10,,75,0
12479,note_on,,59,0,7,,,,,,,,,,,,,,,,2,,51,0
12479,note_on,,59,0,11,,,,,,,,,,,,,,,,6,,67,0
12479,note_on,,59,0,17,,,,,,,,,,,,,,,,13,,51,0
12479,note_on,,0,0,18,,,,,,,,,,,,,,,,15,,70,0
12479,note_on,,59,0,13,,,,,,,,,,,,,,,,8,,51,0
12479,note_on,,0,0,18,,,,,,,,,,,,,,,,15,,51,0
12479,note_on,,59,0,18,,,,,,,,,,,,,,,,15,,67,0
12479,note_on,,59,0,16,,,,,,,,,,,,,,,,12,,70,0
12479,note_on,,59,0,10,,,,,,,,,,,,,,,,5,,75,0
12479,note_on,,59,0,15,,,,,,,,,,,,,,,,11,,67,0
12479,note_on,,59,0,6,,,,,,,,,,,,,,,,1,,75,0
12479,note_on,,0,0,18,,,,,,,,,,,,,,,,15,,75,0
12480,note_on,,1,0,18,,,,,,,,,,,,,,,,15,,58,72
12480,note_on,,1,0,13,,,,,,,,,,,,,,,,8,,58,72
12480,note_on,,1,0,17,,,,,,,,,,,,,,,,13,,58,72
12480,note_on,,1,0,14,,,,,,,,,,,,,,,,10,,77,72
12480,note_on,,1,0,7,,,,,,,,,,,,,,,,2,,58,72
12480,note_on,,0,0,18,,,,,,,,,,,,,,,,15,,65,72
12480,note_on,,0,0,18,,,,,,,,,,,,,,,,15,,62,72
12480,note_on,,1,0,15,,,,,,,,,,,,,,,,11,,74,72
12480,note_on,,0,0,18,,,,,,,,,,,,,,,,15,,70,72
12480,note_on,,1,0,12,,,,,,,,,,,,,,,,7,,62,72
12480,note_on,,1,0,10,,,,,,,,,,,,,,,,5,,77,72
12480,note_on,,1,0,11,,,,,,,,,,,,,,,,6,,65,72
12480,note_on,,1,0,16,,,,,,,,,,,,,,,,12,,70,72
12480,note_on,,1,0,6,,,,,,,,,,,,,,,,1,,77,72
12539,note_on,,59,0,16,,,,,,,,,,,,,,,,12,,70,0
12539,note_on,,59,0,11,,,,,,,,,,,,,,,,6,,65,0
12539,note_on,,59,0,15,,,,,,,,,,,,,,,,11,,74,0
12540,note_on,,1,0,16,,,,,,,,,,,,,,,,12,,62,72
12540,note_on,,1,0,11,,,,,,,,,,,,,,,,6,,65,72
12540,note_on,,1,0,15,,,,,,,,,,,,,,,,11,,70,72
12599,note_on,,0,0,18,,,,,,,,,,,,,,,,15,,65,0
12599,note_on,,59,0,11,,,,,,,,,,,,,,,,6,,65,0
12599,note_on,,59,0,15,,,,,,,,,,,,,,,,11,,70,0
12599,note_on,,119,0,18,,,,,,,,,,,,,,,,15,,58,0
12599,note_on,,0,0,18,,,,,,,,,,,,,,,,15,,70,0
12599,note_on,,59,0,16,,,,,,,,,,,,,,,,12,,62,0
12599,note_on,,119,0,13,,,,,,,,,,,,,,,,8,,58,0
12599,note_on,,0,0,18,,,,,,,,,,,,,,,,15,,62,0
12599,note_on,,119,0,6,,,,,,,,,,,,,,,,1,,77,0
12599,note_on,,119,0,14,,,,,,,,,,,,,,,,10,,77,0
12599,note_on,,119,0,10,,,,,,,,,,,,,,,,5,,77,0
12599,note_on,,119,0,12,,,,,,,,,,,,,,,,7,,62,0
12599,note_on,,119,0,7,,,,,,,,,,,,,,,,2,,58,0
12599,note_on,,119,0,17,,,,,,,,,,,,,,,,13,,58,0
12600,note_on,,1,0,15,,,,,,,,,,,,,,,,11,,82,72
12600,note_on,,1,0,11,,,,,,,,,,,,,,,,6,,70,72
12600,note_on,,1,0,16,,,,,,,,,,,,,,,,12,,74,72
12659,note_on,,59,0,16,,,,,,,,,,,,,,,,12,,74,0
12660,note_on,,61,0,17,,,,,,,,,,,,,,,,13,,55,72
12660,note_on,,61,0,14,,,,,,,,,,,,,,,,10,,70,72
12660,note_on,,61,0,12,,,,,,,,,,,,,,,,7,,62,72
12660,note_on,,61,0,18,,,,,,,,,,,,,,,,15,,55,72
12660,note_on,,61,0,6,,,,,,,,,,,,,,,,1,,70,72
12660,note_on,,61,0,7,,,,,,,,,,,,,,,,2,,55,72
12660,note_on,,61,0,10,,,,,,,,,,,,,,,,5,,70,72
12660,note_on,,1,0,16,,,,,,,,,,,,,,,,12,,62,72
12660,note_on,,61,0,13,,,,,,,,,,,,,,,,8,,55,72
12719,note_on,,59,0,14,,,,,,,,,,,,,,,,10,,70,0
12719,note_on,,59,0,18,,,,,,,,,,,,,,,,15,,55,0
12719,note_on,,59,0,6,,,,,,,,,,,,,,,,1,,70,0
12719,note_on,,59,0,7,,,,,,,,,,,,,,,,2,,55,0
12719,note_on,,59,0,13,,,,,,,,,,,,,,,,8,,55,0
12719,note_on,,59,0,12,,,,,,,,,,,,,,,,7,,62,0
12719,note_on,,59,0,10,,,,,,,,,,,,,,,,5,,70,0
12719,note_on,,59,0,16,,,,,,,,,,,,,,,,12,,62,0
12719,note_on,,59,0,17,,,,,,,,,,,,,,,,13,,55,0
12720,note_on,,1,0,6,,,,,,,,,,,,,,,,1,,72,72
12720,note_on,,1,0,13,,,,,,,,,,,,,,,,8,,51,72
12720,note_on,,1,0,12,,,,,,,,,,,,,,,,7,,67,72
12720,note_on,,1,0,7,,,,,,,,,,,,,,,,2,,51,72
12720,note_on,,0,0,18,,,,,,,,,,,,,,,,15,,63,72
12720,note_on,,1,0,10,,,,,,,,,,,,,,,,5,,72,72
12720,note_on,,1,0,16,,,,,,,,,,,,,,,,12,,67,72
12720,note_on,,0,0,18,,,,,,,,,,,,,,,,15,,67,72
12720,note_on,,1,0,18,,,,,,,,,,,,,,,,15,,51,72
12720,note_on,,0,0,18,,,,,,,,,,,,,,,,15,,70,72
12720,note_on,,1,0,14,,,,,,,,,,,,,,,,10,,72,72
12720,note_on,,1,0,17,,,,,,,,,,,,,,,,13,,51,72
12779,note_on,,59,0,18,,,,,,,,,,,,,,,,15,,51,0
12779,note_on,,179,0,15,,,,,,,,,,,,,,,,11,,82,0
12779,note_on,,59,0,7,,,,,,,,,,,,,,,,2,,51,0
12779,note_on,,179,0,11,,,,,,,,,,,,,,,,6,,70,0
12779,note_on,,59,0,17,,,,,,,,,,,,,,,,13,,51,0
12780,note_on,,1,0,7,,,,,,,,,,,,,,,,2,,48,72
12780,note_on,,1,0,11,,,,,,,,,,,,,,,,6,,70,72
12780,note_on,,1,0,18,,,,,,,,,,,,,,,,15,,48,72
12780,note_on,,1,0,15,,,,,,,,,,,,,,,,11,,82,72
12780,note_on,,1,0,17,,,,,,,,,,,,,,,,13,,48,72
12839,note_on,,59,0,11,,,,,,,,,,,,,,,,6,,70,0
12839,note_on,,119,0,14,,,,,,,,,,,,,,,,10,,72,0
12839,note_on,,0,0,18,,,,,,,,,,,,,,,,15,,67,0
12839,note_on,,59,0,17,,,,,,,,,,,,,,,,13,,48,0
12839,note_on,,0,0,18,,,,,,,,,,,,,,,,15,,63,0
12839,note_on,,0,0,18,,,,,,,,,,,,,,,,15,,48,0
12839,note_on,,59,0,18,,,,,,,,,,,,,,,,15,,70,0
12839,note_on,,119,0,13,,,,,,,,,,,,,,,,8,,51,0
12839,note_on,,119,0,12,,,,,,,,,,,,,,,,7,,67,0
12839,note_on,,119,0,16,,,,,,,,,,,,,,,,12,,67,0
12839,note_on,,59,0,7,,,,,,,,,,,,,,,,2,,48,0
12839,note_on,,119,0,10,,,,,,,,,,,,,,,,5,,72,0
12839,note_on,,59,0,15,,,,,,,,,,,,,,,,11,,82,0
12839,note_on,,119,0,6,,,,,,,,,,,,,,,,1,,72,0
12840,note_on,,1,0,13,,,,,,,,,,,,,,,,8,,53,72
12840,note_on,,1,0,11,,,,,,,,,,,,,,,,6,,69,72
12840,note_on,,0,0,18,,,,,,,,,,,,,,,,15,,65,72
12840,note_on,,0,0,18,,,,,,,,,,,,,,,,15,,69,72
12840,note_on,,1,0,18,,,,,,,,,,,,,,,,15,,53,72
12840,note_on,,1,0,7,,,,,,,,,,,,,,,,2,,53,72
12840,note_on,,1,0,15,,,,,,,,,,,,,,,,11,,81,72
12840,note_on,,1,0,12,,,,,,,,,,,,,,,,7,,65,72
12840,note_on,,0,0,18,,,,,,,,,,,,,,,,15,,60,72
12840,note_on,,1,0,17,,,,,,,,,,,,,,,,13,,53,72
12899,note_on,,59,0,18,,,,,,,,,,,,,,,,15,,53,0
12899,note_on,,59,0,17,,,,,,,,,,,,,,,,13,,53,0
12899,note_on,,59,0,7,,,,,,,,,,,,,,,,2,,53,0
12900,note_on,,1,0,17,,,,,,,,,,,,,,,,13,,41,72
12900,note_on,,61,0,10,,,,,,,,,,,,,,,,5,,72,72
12900,note_on,,1,0,18,,,,,,,,,,,,,,,,15,,41,72
12900,note_on,,61,0,14,,,,,,,,,,,,,,,,10,,72,72
12900,note_on,,61,0,16,,,,,,,,,,,,,,,,12,,65,72
12900,note_on,,61,0,6,,,,,,,,,,,,,,,,1,,72,72
12900,note_on,,1,0,7,,,,,,,,,,,,,,,,2,,41,72
12929,note_on,,89,0,11,,,,,,,,,,,,,,,,6,,69,0
12929,note_on,,89,0,15,,,,,,,,,,,,,,,,11,,81,0
12930,note_on,,1,0,11,,,,,,,,,,,,,,,,6,,69,72
12930,note_on,,1,0,15,,,,,,,,,,,,,,,,11,,81,72
12959,note_on,,59,0,7,,,,,,,,,,,,,,,,2,,41,0
12959,note_on,,59,0,16,,,,,,,,,,,,,,,,12,,65,0
12959,note_on,,59,0,10,,,,,,,,,,,,,,,,5,,72,0
12959,note_on,,0,0,18,,,,,,,,,,,,,,,,15,,41,0
12959,note_on,,0,0,18,,,,,,,,,,,,,,,,15,,60,0
12959,note_on,,119,0,13,,,,,,,,,,,,,,,,8,,53,0
12959,note_on,,59,0,18,,,,,,,,,,,,,,,,15,,69,0
12959,note_on,,119,0,12,,,,,,,,,,,,,,,,7,,65,0
12959,note_on,,59,0,17,,,,,,,,,,,,,,,,13,,41,0
12959,note_on,,29,0,15,,,,,,,,,,,,,,,,11,,81,0
12959,note_on,,29,0,11,,,,,,,,,,,,,,,,6,,69,0
12959,note_on,,59,0,14,,,,,,,,,,,,,,,,10,,72,0
12959,note_on,,59,0,6,,,,,,,,,,,,,,,,1,,72,0
12959,note_on,,0,0,18,,,,,,,,,,,,,,,,15,,65,0
12960,note_on,,1,0,10,,,,,,,,,,,,,,,,5,,74,72
12960,note_on,,1,0,15,,,,,,,,,,,,,,,,11,,82,72
12960,note_on,,1,0,11,,,,,,,,,,,,,,,,6,,70,72
12960,note_on,,1,0,7,,,,,,,,,,,,,,,,2,,46,72
12960,note_on,,1,0,13,,,,,,,,,,,,,,,,8,,46,72
12960,note_on,,1,0,16,,,,,,,,,,,,,,,,12,,65,72
12960,note_on,,1,0,6,,,,,,,,,,,,,,,,1,,74,72
12960,note_on,,1,0,12,,,,,,,,,,,,,,,,7,,65,72
12960,note_on,,1,0,14,,,,,,,,,,,,,,,,10,,74,72
12960,note_on,,0,0,18,,,,,,,,,,,,,,,,15,,62,72
12960,note_on,,0,0,18,,,,,,,,,,,,,,,,15,,65,72
12960,note_on,,0,0,18,,,,,,,,,,,,,,,,15,,70,72
12960,note_on,,1,0,18,,,,,,,,,,,,,,,,15,,46,72
12960,note_on,,1,0,17,,,,,,,,,,,,,,,,13,,46,72
13019,note_on,,59,0,18,,,,,,,,,,,,,,,,15,,46,0
13019,note_on,,59,0,17,,,,,,,,,,,,,,,,13,,46,0
13019,note_on,,59,0,7,,,,,,,,,,,,,,,,2,,46,0
13019,note_on,,59,0,16,,,,,,,,,,,,,,,,12,,65,0
13019,note_on,,59,0,12,,,,,,,,,,,,,,,,7,,65,0
13019,note_on,,59,0,15,,,,,,,,,,,,,,,,11,,82,0
13020,note_on,,1,0,12,,,,,,,,,,,,,,,,7,,58,72
13020,note_on,,1,0,15,,,,,,,,,,,,,,,,11,,65,72
13020,note_on,,1,0,17,,,,,,,,,,,,,,,,13,,58,72
13020,note_on,,1,0,16,,,,,,,,,,,,,,,,12,,58,72
13020,note_on,,1,0,18,,,,,,,,,,,,,,,,15,,58,72
13020,note_on,,1,0,7,,,,,,,,,,,,,,,,2,,58,72
13079,note_on,,119,0,14,,,,,,,,,,,,,,,,10,,74,0
13079,note_on,,59,0,17,,,,,,,,,,,,,,,,13,,58,0
13079,note_on,,0,0,18,,,,,,,,,,,,,,,,15,,58,0
13079,note_on,,0,0,18,,,,,,,,,,,,,,,,15,,62,0
13079,note_on,,0,0,18,,,,,,,,,,,,,,,,15,,65,0
13079,note_on,,59,0,16,,,,,,,,,,,,,,,,12,,58,0
13079,note_on,,59,0,7,,,,,,,,,,,,,,,,2,,58,0
13079,note_on,,59,0,12,,,,,,,,,,,,,,,,7,,58,0
13079,note_on,,119,0,11,,,,,,,,,,,,,,,,6,,70,0
13079,note_on,,59,0,18,,,,,,,,,,,,,,,,15,,70,0
13079,note_on,,119,0,6,,,,,,,,,,,,,,,,1,,74,0
13079,note_on,,59,0,15,,,,,,,,,,,,,,,,11,,65,0
13079,note_on,,119,0,10,,,,,,,,,,,,,,,,5,,74,0
13079,note_on,,119,0,13,,,,,,,,,,,,,,,,8,,46,0
13080,note_on,,1,0,16,,,,,,,,,,,,,,,,12,,55,72
13080,note_on,,0,0,18,,,,,,,,,,,,,,,,15,,75,72
13080,note_on,,1,0,12,,,,,,,,,,,,,,,,7,,55,72
13080,note_on,,1,0,7,,,,,,,,,,,,,,,,2,,55,72
13080,note_on,,0,0,18,,,,,,,,,,,,,,,,15,,67,72
13080,note_on,,0,0,18,,,,,,,,,,,,,,,,15,,63,72
13080,note_on,,1,0,14,,,,,,,,,,,,,,,,10,,75,72
13080,note_on,,1,0,17,,,,,,,,,,,,,,,,13,,55,72
13080,note_on,,1,0,10,,,,,,,,,,,,,,,,5,,75,72
13080,note_on,,1,0,15,,,,,,,,,,,,,,,,11,,70,72
13080,note_on,,1,0,6,,,,,,,,,,,,,,,,1,,75,72
13080,note_on,,1,0,18,,,,,,,,,,,,,,,,15,,55,72
13139,note_on,,59,0,7,,,,,,,,,,,,,,,,2,,55,0
13139,note_on,,59,0,15,,,,,,,,,,,,,,,,11,,70,0
13139,note_on,,59,0,16,,,,,,,,,,,,,,,,12,,55,0
13139,note_on,,59,0,18,,,,,,,,,,,,,,,,15,,55,0
13139,note_on,,59,0,17,,,,,,,,,,,,,,,,13,,55,0
13139,note_on,,59,0,12,,,,,,,,,,,,,,,,7,,55,0
13140,note_on,,1,0,17,,,,,,,,,,,,,,,,13,,60,72
13140,note_on,,1,0,16,,,,,,,,,,,,,,,,12,,60,72
13140,note_on,,1,0,12,,,,,,,,,,,,,,,,7,,60,72
13140,note_on,,1,0,15,,,,,,,,,,,,,,,,11,,67,72
13140,note_on,,1,0,18,,,,,,,,,,,,,,,,15,,60,72
13140,note_on,,1,0,7,,,,,,,,,,,,,,,,2,,60,72
13199,note_on,,59,0,15,,,,,,,,,,,,,,,,11,,67,0
13199,note_on,,0,0,18,,,,,,,,,,,,,,,,15,,60,0
13199,note_on,,59,0,18,,,,,,,,,,,,,,,,15,,67,0
13199,note_on,,59,0,17,,,,,,,,,,,,,,,,13,,60,0
13199,note_on,,119,0,14,,,,,,,,,,,,,,,,10,,75,0
13199,note_on,,0,0,18,,,,,,,,,,,,,,,,15,,63,0
13199,note_on,,119,0,10,,,,,,,,,,,,,,,,5,,75,0
13199,note_on,,59,0,12,,,,,,,,,,,,,,,,7,,60,0
13199,note_on,,59,0,16,,,,,,,,,,,,,,,,12,,60,0
13199,note_on,,119,0,6,,,,,,,,,,,,,,,,1,,75,0
13199,note_on,,59,0,7,,,,,,,,,,,,,,,,2,,60,0
13200,note_on,,1,0,17,,,,,,,,,,,,,,,,13,,53,72
13200,note_on,,0,0,18,,,,,,,,,,,,,,,,15,,69,72
13200,note_on,,1,0,18,,,,,,,,,,,,,,,,15,,53,72
13200,note_on,,0,0,18,,,,,,,,,,,,,,,,15,,65,72
13200,note_on,,1,0,16,,,,,,,,,,,,,,,,12,,53,72
13200,note_on,,1,0,12,,,,,,,,,,,,,,,,7,,53,72
13200,note_on,,1,0,7,,,,,,,,,,,,,,,,2,,53,72
13200,note_on,,1,0,15,,,,,,,,,,,,,,,,11,,69,72
13259,note_on,,0,0,18,,,,,,,,,,,,,,,,15,,53,0
13259,note_on,,59,0,18,,,,,,,,,,,,,,,,15,,75,0
13259,note_on,,59,0,16,,,,,,,,,,,,,,,,12,,53,0
13259,note_on,,59,0,15,,,,,,,,,,,,,,,,11,,69,0
13259,note_on,,0,0,18,,,,,,,,,,,,,,,,15,,69,0
13259,note_on,,59,0,7,,,,,,,,,,,,,,,,2,,53,0
13259,note_on,,59,0,17,,,,,,,,,,,,,,,,13,,53,0
13260,note_on,,1,0,7,,,,,,,,,,,,,,,,2,,58,72
13260,note_on,,1,0,16,,,,,,,,,,,,,,,,12,,58,72
13260,note_on,,61,0,6,,,,,,,,,,,,,,,,1,,74,72
13260,note_on,,181,0,11,,,,,,,,,,,,,,,,6,,65,72
13260,note_on,,1,0,17,,,,,,,,,,,,,,,,13,,58,72
13260,note_on,,61,0,10,,,,,,,,,,,,,,,,5,,74,72
13260,note_on,,1,0,18,,,,,,,,,,,,,,,,15,,58,72
13260,note_on,,0,0,18,,,,,,,,,,,,,,,,15,,74,72
13260,note_on,,0,0,18,,,,,,,,,,,,,,,,15,,70,72
13260,note_on,,61,0,14,,,,,,,,,,,,,,,,10,,74,72
13260,note_on,,181,0,13,,,,,,,,,,,,,,,,8,,58,72
13260,note_on,,1,0,15,,,,,,,,,,,,,,,,11,,65,72
13319,note_on,,59,0,15,,,,,,,,,,,,,,,,11,,65,0
13319,note_on,,59,0,11,,,,,,,,,,,,,,,,6,,65,0
13319,note_on,,59,0,16,,,,,,,,,,,,,,,,12,,58,0
13319,note_on,,59,0,18,,,,,,,,,,,,,,,,15,,65,0
13319,note_on,,59,0,6,,,,,,,,,,,,,,,,1,,74,0
13319,note_on,,59,0,13,,,,,,,,,,,,,,,,8,,58,0
13319,note_on,,59,0,10,,,,,,,,,,,,,,,,5,,74,0
13319,note_on,,0,0,18,,,,,,,,,,,,,,,,15,,58,0
13319,note_on,,0,0,18,,,,,,,,,,,,,,,,15,,74,0
13319,note_on,,0,0,18,,,,,,,,,,,,,,,,15,,70,0
13319,note_on,,119,0,12,,,,,,,,,,,,,,,,7,,53,0
13319,note_on,,59,0,14,,,,,,,,,,,,,,,,10,,74,0
13319,note_on,,59,0,7,,,,,,,,,,,,,,,,2,,58,0
13319,note_on,,59,0,17,,,,,,,,,,,,,,,,13,,58,0
13320,note_on,,0,0,18,,,,,,,,,,,,,,,,15,,60,72
13320,note_on,,1,0,13,,,,,,,,,,,,,,,,8,,57,72
13320,note_on,,1,0,7,,,,,,,,,,,,,,,,2,,57,72
13320,note_on,,1,0,16,,,,,,,,,,,,,,,,12,,60,72
13320,note_on,,1,0,15,,,,,,,,,,,,,,,,11,,65,72
13320,note_on,,1,0,6,,,,,,,,,,,,,,,,1,,72,72
13320,note_on,,1,0,11,,,,,,,,,,,,,,,,6,,65,72
13320,note_on,,0,0,18,,,,,,,,,,,,,,,,15,,65,72
13320,note_on,,1,0,18,,,,,,,,,,,,,,,,15,,57,72
13320,note_on,,1,0,10,,,,,,,,,,,,,,,,5,,72,72
13320,note_on,,1,0,17,,,,,,,,,,,,,,,,13,,57,72
13320,note_on,,1,0,14,,,,,,,,,,,,,,,,10,,72,72
13379,note_on,,59,0,10,,,,,,,,,,,,,,,,5,,72,0
13379,note_on,,59,0,13,,,,,,,,,,,,,,,,8,,57,0
13379,note_on,,59,0,11,,,,,,,,,,,,,,,,6,,65,0
13379,note_on,,59,0,14,,,,,,,,,,,,,,,,10,,72,0
13379,note_on,,59,0,6,,,,,,,,,,,,,,,,1,,72,0
13379,note_on,,59,0,16,,,,,,,,,,,,,,,,12,,60,0
13379,note_on,,59,0,15,,,,,,,,,,,,,,,,11,,65,0
13379,note_on,,0,0,18,,,,,,,,,,,,,,,,15,,60,0
13379,note_on,,0,0,18,,,,,,,,,,,,,,,,15,,65,0
13379,note_on,,59,0,18,,,,,,,,,,,,,,,,15,,57,0
13379,note_on,,59,0,7,,,,,,,,,,,,,,,,2,,57,0
13379,note_on,,59,0,17,,,,,,,,,,,,,,,,13,,57,0
13380,note_on,,1,0,6,,,,,,,,,,,,,,,,1,,70,72
13380,note_on,,61,0,12,,,,,,,,,,,,,,,,7,,58,72
13380,note_on,,1,0,11,,,,,,,,,,,,,,,,6,,67,72
13380,note_on,,1,0,14,,,,,,,,,,,,,,,,10,,70,72
13380,note_on,,0,0,18,,,,,,,,,,,,,,,,15,,64,72
13380,note_on,,1,0,17,,,,,,,,,,,,,,,,13,,55,72
13380,note_on,,0,0,18,,,,,,,,,,,,,,,,15,,58,72
13380,note_on,,1,0,16,,,,,,,,,,,,,,,,12,,64,72
13380,note_on,,1,0,13,,,,,,,,,,,,,,,,8,,55,72
13380,note_on,,1,0,18,,,,,,,,,,,,,,,,15,,55,72
13380,note_on,,1,0,10,,,,,,,,,,,,,,,,5,,70,72
13380,note_on,,0,0,18,,,,,,,,,,,,,,,,15,,67,72
13380,note_on,,1,0,15,,,,,,,,,,,,,,,,11,,67,72
13380,note_on,,1,0,7,,,,,,,,,,,,,,,,2,,55,72
13439,note_on,,59,0,18,,,,,,,,,,,,,,,,15,,55,0
13439,note_on,,0,0,18,,,,,,,,,,,,,,,,15,,64,0
13439,note_on,,0,0,18,,,,,,,,,,,,,,,,15,,67,0
13439,note_on,,59,0,12,,,,,,,,,,,,,,,,7,,58,0
13439,note_on,,59,0,14,,,,,,,,,,,,,,,,10,,70,0
13439,note_on,,59,0,16,,,,,,,,,,,,,,,,12,,64,0
13439,note_on,,59,0,10,,,,,,,,,,,,,,,,5,,70,0
13439,note_on,,0,0,18,,,,,,,,,,,,,,,,15,,58,0
13439,note_on,,59,0,17,,,,,,,,,,,,,,,,13,,55,0
13439,note_on,,59,0,7,,,,,,,,,,,,,,,,2,,55,0
13439,note_on,,59,0,6,,,,,,,,,,,,,,,,1,,70,0
13439,note_on,,59,0,13,,,,,,,,,,,,,,,,8,,55,0
13439,note_on,,59,0,15,,,,,,,,,,,,,,,,11,,67,0
13439,note_on,,59,0,11,,,,,,,,,,,,,,,,6,,67,0
13440,note_on,,1,0,15,,,,,,,,,,,,,,,,11,,69,72
13440,note_on,,1,0,10,,,,,,,,,,,,,,,,5,,77,72
13440,note_on,,1,0,13,,,,,,,,,,,,,,,,8,,53,72
13440,note_on,,1,0,16,,,,,,,,,,,,,,,,12,,60,72
13440,note_on,,0,0,18,,,,,,,,,,,,,,,,15,,65,72
13440,note_on,,0,0,18,,,,,,,,,,,,,,,,15,,60,72
13440,note_on,,1,0,7,,,,,,,,,,,,,,,,2,,53,72
13440,note_on,,1,0,6,,,,,,,,,,,,,,,,1,,77,72
13440,note_on,,1,0,17,,,,,,,,,,,,,,,,13,,53,72
13440,note_on,,1,0,18,,,,,,,,,,,,,,,,15,,53,72
13440,note_on,,1,0,12,,,,,,,,,,,,,,,,7,,60,72
13440,note_on,,1,0,11,,,,,,,,,,,,,,,,6,,69,72
13440,note_on,,0,0,18,,,,,,,,,,,,,,,,15,,69,72
13440,note_on,,1,0,14,,,,,,,,,,,,,,,,10,,77,72
13559,note_on,,119,0,12,,,,,,,,,,,,,,,,7,,60,0
13559,note_on,,119,0,10,,,,,,,,,,,,,,,,5,,77,0
13559,note_on,,0,0,18,,,,,,,,,,,,,,,,15,,60,0
13559,note_on,,119,0,13,,,,,,,,,,,,,,,,8,,53,0
13559,note_on,,119,0,16,,,,,,,,,,,,,,,,12,,60,0
13559,note_on,,119,0,7,,,,,,,,,,,,,,,,2,,53,0
13559,note_on,,0,0,18,,,,,,,,,,,,,,,,15,,69,0
13559,note_on,,119,0,18,,,,,,,,,,,,,,,,15,,53,0
13559,note_on,,119,0,6,,,,,,,,,,,,,,,,1,,77,0
13559,note_on,,119,0,14,,,,,,,,,,,,,,,,10,,77,0
13559,note_on,,119,0,17,,,,,,,,,,,,,,,,13,,53,0
13559,note_on,,119,0,11,,,,,,,,,,,,,,,,6,,69,0
13559,note_on,,0,0,18,,,,,,,,,,,,,,,,15,,65,0
13620,note_on,,61,0,18,,,,,,,,,,,,,,,,15,,70,72
13620,note_on,,61,0,10,,,,,,,,,,,,,,,,5,,70,72
13620,note_on,,61,0,6,,,,,,,,,,,,,,,,1,,70,72
13620,note_on,,61,0,14,,,,,,,,,,,,,,,,10,,70,72
13679,note_on,,59,0,14,,,,,,,,,,,,,,,,10,,70,0
13679,note_on,,59,0,6,,,,,,,,,,,,,,,,1,,70,0
13679,note_on,,239,0,15,,,,,,,,,,,,,,,,11,,69,0
13679,note_on,,59,0,10,,,,,,,,,,,,,,,,5,,70,0
13679,note_on,,59,0,18,,,,,,,,,,,,,,,,15,,70,0
13680,note_on,,1,0,14,,,,,,,,,,,,,,,,10,,74,72
13680,note_on,,1,0,6,,,,,,,,,,,,,,,,1,,74,72
13680,note_on,,1,0,18,,,,,,,,,,,,,,,,15,,74,72
13680,note_on,,1,0,10,,,,,,,,,,,,,,,,5,,74,72
13739,note_on,,59,0,14,,,,,,,,,,,,,,,,10,,74,0
13739,note_on,,59,0,10,,,,,,,,,,,,,,,,5,,74,0
13739,note_on,,59,0,6,,,,,,,,,,,,,,,,1,,74,0
13739,note_on,,59,0,18,,,,,,,,,,,,,,,,15,,74,0
13740,note_on,,1,0,14,,,,,,,,,,,,,,,,10,,72,72
13740,note_on,,1,0,6,,,,,,,,,,,,,,,,1,,72,72
13740,note_on,,1,0,18,,,,,,,,,,,,,,,,15,,72,72
13740,note_on,,1,0,10,,,,,,,,,,,,,,,,5,,72,72
13769,note_on,,29,0,6,,,,,,,,,,,,,,,,1,,72,0
13769,note_on,,29,0,10,,,,,,,,,,,,,,,,5,,72,0
13769,note_on,,29,0,18,,,,,,,,,,,,,,,,15,,72,0
13769,note_on,,29,0,14,,,,,,,,,,,,,,,,10,,72,0
13770,note_on,,1,0,6,,,,,,,,,,,,,,,,1,,70,72
13770,note_on,,1,0,14,,,,,,,,,,,,,,,,10,,70,72
13770,note_on,,1,0,10,,,,,,,,,,,,,,,,5,,70,72
13770,note_on,,1,0,18,,,,,,,,,,,,,,,,15,,70,72
13799,note_on,,29,0,6,,,,,,,,,,,,,,,,1,,70,0
13799,note_on,,29,0,18,,,,,,,,,,,,,,,,15,,70,0
13799,note_on,,29,0,10,,,,,,,,,,,,,,,,5,,70,0
13799,note_on,,29,0,14,,,,,,,,,,,,,,,,10,,70,0
13800,note_on,,1,0,18,,,,,,,,,,,,,,,,15,,69,72
13800,note_on,,1,0,10,,,,,,,,,,,,,,,,5,,69,72
13800,note_on,,1,0,14,,,,,,,,,,,,,,,,10,,69,72
13800,note_on,,1,0,6,,,,,,,,,,,,,,,,1,,69,72
13859,note_on,,59,0,10,,,,,,,,,,,,,,,,5,,69,0
13859,note_on,,59,0,6,,,,,,,,,,,,,,,,1,,69,0
13859,note_on,,59,0,18,,,,,,,,,,,,,,,,15,,69,0
13859,note_on,,59,0,14,,,,,,,,,,,,,,,,10,,69,0
13860,note_on,,301,0,11,,,,,,,,,,,,,,,,6,,62,72
13860,note_on,,1,0,14,,,,,,,,,,,,,,,,10,,67,72
13860,note_on,,0,0,18,,,,,,,,,,,,,,,,15,,67,72
13860,note_on,,1,0,18,,,,,,,,,,,,,,,,15,,58,72
13860,note_on,,301,0,17,,,,,,,,,,,,,,,,13,,58,72
13860,note_on,,1,0,10,,,,,,,,,,,,,,,,5,,67,72
13860,note_on,,301,0,16,,,,,,,,,,,,,,,,12,,58,72
13860,note_on,,0,0,18,,,,,,,,,,,,,,,,15,,62,72
13860,note_on,,301,0,12,,,,,,,,,,,,,,,,7,,58,72
13860,note_on,,181,0,15,,,,,,,,,,,,,,,,11,,62,72
13860,note_on,,1,0,6,,,,,,,,,,,,,,,,1,,67,72
13919,note_on,,59,0,17,,,,,,,,,,,,,,,,13,,58,0
13919,note_on,,59,0,12,,,,,,,,,,,,,,,,7,,58,0
13919,note_on,,59,0,18,,,,,,,,,,,,,,,,15,,58,0
13919,note_on,,59,0,11,,,,,,,,,,,,,,,,6,,62,0
13919,note_on,,59,0,15,,,,,,,,,,,,,,,,11,,62,0
13919,note_on,,59,0,16,,,,,,,,,,,,,,,,12,,58,0
13919,note_on,,59,0,14,,,,,,,,,,,,,,,,10,,67,0
13919,note_on,,59,0,10,,,,,,,,,,,,,,,,5,,67,0
13919,note_on,,0,0,18,,,,,,,,,,,,,,,,15,,67,0
13919,note_on,,59,0,6,,,,,,,,,,,,,,,,1,,67,0
13919,note_on,,0,0,18,,,,,,,,,,,,,,,,15,,62,0
13920,note_on,,1,0,12,,,,,,,,,,,,,,,,7,,62,72
13920,note_on,,0,0,18,,,,,,,,,,,,,,,,15,,65,72
13920,note_on,,1,0,11,,,,,,,,,,,,,,,,6,,65,72
13920,note_on,,1,0,18,,,,,,,,,,,,,,,,15,,62,72
13920,note_on,,1,0,14,,,,,,,,,,,,,,,,10,,65,72
13920,note_on,,1,0,17,,,,,,,,,,,,,,,,13,,62,72
13920,note_on,,1,0,10,,,,,,,,,,,,,,,,5,,65,72
13920,note_on,,1,0,6,,,,,,,,,,,,,,,,1,,65,72
13920,note_on,,1,0,15,,,,,,,,,,,,,,,,11,,65,72
13920,note_on,,1,0,16,,,,,,,,,,,,,,,,12,,62,72
13979,note_on,,59,0,11,,,,,,,,,,,,,,,,6,,65,0
13979,note_on,,59,0,17,,,,,,,,,,,,,,,,13,,62,0
13979,note_on,,59,0,12,,,,,,,,,,,,,,,,7,,62,0
13979,note_on,,59,0,15,,,,,,,,,,,,,,,,11,,65,0
13979,note_on,,59,0,18,,,,,,,,,,,,,,,,15,,62,0
13979,note_on,,59,0,16,,,,,,,,,,,,,,,,12,,62,0
13980,note_on,,1,0,18,,,,,,,,,,,,,,,,15,,60,72
13980,note_on,,0,0,18,,,,,,,,,,,,,,,,15,,63,72
13980,note_on,,1,0,12,,,,,,,,,,,,,,,,7,,60,72
13980,note_on,,1,0,16,,,,,,,,,,,,,,,,12,,60,72
13980,note_on,,1,0,15,,,,,,,,,,,,,,,,11,,63,72
13980,note_on,,1,0,17,,,,,,,,,,,,,,,,13,,60,72
13980,note_on,,1,0,11,,,,,,,,,,,,,,,,6,,63,72
14009,note_on,,29,0,16,,,,,,,,,,,,,,,,12,,60,0
14009,note_on,,89,0,6,,,,,,,,,,,,,,,,1,,65,0
14009,note_on,,29,0,17,,,,,,,,,,,,,,,,13,,60,0
14009,note_on,,89,0,10,,,,,,,,,,,,,,,,5,,65,0
14009,note_on,,29,0,11,,,,,,,,,,,,,,,,6,,63,0
14009,note_on,,29,0,15,,,,,,,,,,,,,,,,11,,63,0
14009,note_on,,29,0,12,,,,,,,,,,,,,,,,7,,60,0
14009,note_on,,29,0,18,,,,,,,,,,,,,,,,15,,60,0
14009,note_on,,0,0,18,,,,,,,,,,,,,,,,15,,63,0
14010,note_on,,1,0,15,,,,,,,,,,,,,,,,11,,62,72
14010,note_on,,1,0,6,,,,,,,,,,,,,,,,1,,65,72
14010,note_on,,1,0,10,,,,,,,,,,,,,,,,5,,65,72
14010,note_on,,1,0,11,,,,,,,,,,,,,,,,6,,62,72
14010,note_on,,1,0,12,,,,,,,,,,,,,,,,7,,58,72
14010,note_on,,1,0,17,,,,,,,,,,,,,,,,13,,58,72
14010,note_on,,1,0,16,,,,,,,,,,,,,,,,12,,58,72
14010,note_on,,1,0,18,,,,,,,,,,,,,,,,15,,58,72
14010,note_on,,0,0,18,,,,,,,,,,,,,,,,15,,62,72
14039,note_on,,29,0,6,,,,,,,,,,,,,,,,1,,65,0
14039,note_on,,29,0,15,,,,,,,,,,,,,,,,11,,62,0
14039,note_on,,0,0,18,,,,,,,,,,,,,,,,15,,62,0
14039,note_on,,29,0,16,,,,,,,,,,,,,,,,12,,58,0
14039,note_on,,119,0,14,,,,,,,,,,,,,,,,10,,65,0
14039,note_on,,29,0,10,,,,,,,,,,,,,,,,5,,65,0
14039,note_on,,29,0,17,,,,,,,,,,,,,,,,13,,58,0
14039,note_on,,29,0,12,,,,,,,,,,,,,,,,7,,58,0
14039,note_on,,29,0,11,,,,,,,,,,,,,,,,6,,62,0
14039,note_on,,29,0,18,,,,,,,,,,,,,,,,15,,58,0
14040,note_on,,1,0,15,,,,,,,,,,,,,,,,11,,60,72
14040,note_on,,1,0,10,,,,,,,,,,,,,,,,5,,65,72
14040,note_on,,1,0,6,,,,,,,,,,,,,,,,1,,65,72
14040,note_on,,1,0,11,,,,,,,,,,,,,,,,6,,60,72
14040,note_on,,0,0,18,,,,,,,,,,,,,,,,15,,60,72
14040,note_on,,1,0,12,,,,,,,,,,,,,,,,7,,57,72
14040,note_on,,1,0,17,,,,,,,,,,,,,,,,13,,57,72
14040,note_on,,1,0,14,,,,,,,,,,,,,,,,10,,65,72
14040,note_on,,1,0,18,,,,,,,,,,,,,,,,15,,57,72
14040,note_on,,1,0,16,,,,,,,,,,,,,,,,12,,57,72
14099,note_on,,59,0,15,,,,,,,,,,,,,,,,11,,60,0
14099,note_on,,59,0,6,,,,,,,,,,,,,,,,1,,65,0
14099,note_on,,59,0,17,,,,,,,,,,,,,,,,13,,57,0
14099,note_on,,0,0,18,,,,,,,,,,,,,,,,15,,57,0
14099,note_on,,59,0,16,,,,,,,,,,,,,,,,12,,57,0
14099,note_on,,0,0,18,,,,,,,,,,,,,,,,15,,60,0
14099,note_on,,59,0,10,,,,,,,,,,,,,,,,5,,65,0
14099,note_on,,59,0,18,,,,,,,,,,,,,,,,15,,65,0
14099,note_on,,59,0,11,,,,,,,,,,,,,,,,6,,60,0
14099,note_on,,59,0,14,,,,,,,,,,,,,,,,10,,65,0
14099,note_on,,59,0,12,,,,,,,,,,,,,,,,7,,57,0
14100,note_on,,1,0,6,,,,,,,,,,,,,,,,1,,67,72
14100,note_on,,1,0,11,,,,,,,,,,,,,,,,6,,58,72
14100,note_on,,0,0,18,,,,,,,,,,,,,,,,15,,67,72
14100,note_on,,0,0,18,,,,,,,,,,,,,,,,15,,64,72
14100,note_on,,1,0,12,,,,,,,,,,,,,,,,7,,55,72
14100,note_on,,1,0,16,,,,,,,,,,,,,,,,12,,55,72
14100,note_on,,1,0,14,,,,,,,,,,,,,,,,10,,67,72
14100,note_on,,1,0,17,,,,,,,,,,,,,,,,13,,55,72
14100,note_on,,1,0,15,,,,,,,,,,,,,,,,11,,58,72
14100,note_on,,1,0,18,,,,,,,,,,,,,,,,15,,55,72
14100,note_on,,0,0,18,,,,,,,,,,,,,,,,15,,58,72
14100,note_on,,1,0,10,,,,,,,,,,,,,,,,5,,67,72
14159,note_on,,59,0,11,,,,,,,,,,,,,,,,6,,58,0
14159,note_on,,0,0,18,,,,,,,,,,,,,,,,15,,67,0
14159,note_on,,59,0,16,,,,,,,,,,,,,,,,12,,55,0
14159,note_on,,0,0,18,,,,,,,,,,,,,,,,15,,64,0
14159,note_on,,59,0,10,,,,,,,,,,,,,,,,5,,67,0
14159,note_on,,59,0,18,,,,,,,,,,,,,,,,15,,55,0
14159,note_on,,59,0,12,,,,,,,,,,,,,,,,7,,55,0
14159,note_on,,59,0,15,,,,,,,,,,,,,,,,11,,58,0
14159,note_on,,0,0,18,,,,,,,,,,,,,,,,15,,58,0
14159,note_on,,59,0,14,,,,,,,,,,,,,,,,10,,67,0
14159,note_on,,59,0,17,,,,,,,,,,,,,,,,13,,55,0
14159,note_on,,59,0,6,,,,,,,,,,,,,,,,1,,67,0
14160,note_on,,1,0,12,,,,,,,,,,,,,,,,7,,53,72
14160,note_on,,1,0,14,,,,,,,,,,,,,,,,10,,69,72
14160,note_on,,0,0,18,,,,,,,,,,,,,,,,15,,69,72
14160,note_on,,1,0,6,,,,,,,,,,,,,,,,1,,69,72
14160,note_on,,0,0,18,,,,,,,,,,,,,,,,15,,65,72
14160,note_on,,1,0,18,,,,,,,,,,,,,,,,15,,53,72
14160,note_on,,1,0,17,,,,,,,,,,,,,,,,13,,53,72
14160,note_on,,1,0,11,,,,,,,,,,,,,,,,6,,60,72
14160,note_on,,1,0,15,,,,,,,,,,,,,,,,11,,60,72
14160,note_on,,0,0,18,,,,,,,,,,,,,,,,15,,60,72
14160,note_on,,1,0,10,,,,,,,,,,,,,,,,5,,69,72
14160,note_on,,1,0,16,,,,,,,,,,,,,,,,12,,53,72
14249,note_on,,89,0,11,,,,,,,,,,,,,,,,6,,60,0
14249,note_on,,89,0,12,,,,,,,,,,,,,,,,7,,53,0
14249,note_on,,89,0,16,,,,,,,,,,,,,,,,12,,53,0
14249,note_on,,89,0,10,,,,,,,,,,,,,,,,5,,69,0
14249,note_on,,89,0,15,,,,,,,,,,,,,,,,11,,60,0
14249,note_on,,89,0,6,,,,,,,,,,,,,,,,1,,69,0
14250,note_on,,1,0,16,,,,,,,,,,,,,,,,12,,53,72
14250,note_on,,1,0,10,,,,,,,,,,,,,,,,5,,69,72
14250,note_on,,1,0,12,,,,,,,,,,,,,,,,7,,53,72
14250,note_on,,1,0,6,,,,,,,,,,,,,,,,1,,69,72
14250,note_on,,1,0,15,,,,,,,,,,,,,,,,11,,60,72
14250,note_on,,1,0,11,,,,,,,,,,,,,,,,6,,60,72
14279,note_on,,119,0,18,,,,,,,,,,,,,,,,15,,53,0
14279,note_on,,29,0,10,,,,,,,,,,,,,,,,5,,69,0
14279,note_on,,119,0,17,,,,,,,,,,,,,,,,13,,53,0
14279,note_on,,29,0,15,,,,,,,,,,,,,,,,11,,60,0
14279,note_on,,29,0,16,,,,,,,,,,,,,,,,12,,53,0
14279,note_on,,29,0,6,,,,,,,,,,,,,,,,1,,69,0
14279,note_on,,29,0,12,,,,,,,,,,,,,,,,7,,53,0
14279,note_on,,29,0,11,,,,,,,,,,,,,,,,6,,60,0
14280,note_on,,1,0,17,,,,,,,,,,,,,,,,13,,53,72
14280,note_on,,1,0,18,,,,,,,,,,,,,,,,15,,53,72
14280,note_on,,1,0,15,,,,,,,,,,,,,,,,11,,60,72
14280,note_on,,1,0,12,,,,,,,,,,,,,,,,7,,53,72
14280,note_on,,1,0,11,,,,,,,,,,,,,,,,6,,60,72
14280,note_on,,1,0,6,,,,,,,,,,,,,,,,1,,69,72
14280,note_on,,1,0,16,,,,,,,,,,,,,,,,12,,53,72
14280,note_on,,1,0,10,,,,,,,,,,,,,,,,5,,69,72
14339,note_on,,179,0,14,,,,,,,,,,,,,,,,10,,69,0
14339,note_on,,0,0,18,,,,,,,,,,,,,,,,15,,53,0
14339,note_on,,59,0,11,,,,,,,,,,,,,,,,6,,60,0
14339,note_on,,59,0,12,,,,,,,,,,,,,,,,7,,53,0
14339,note_on,,59,0,18,,,,,,,,,,,,,,,,15,,69,0
14339,note_on,,59,0,17,,,,,,,,,,,,,,,,13,,53,0
14339,note_on,,59,0,10,,,,,,,,,,,,,,,,5,,69,0
14339,note_on,,59,0,15,,,,,,,,,,,,,,,,11,,60,0
14339,note_on,,59,0,16,,,,,,,,,,,,,,,,12,,53,0
14339,note_on,,59,0,6,,,,,,,,,,,,,,,,1,,69,0
14340,note_on,,1,0,15,,,,,,,,,,,,,,,,11,,70,72
14340,note_on,,0,0,18,,,,,,,,,,,,,,,,15,,70,72
14340,note_on,,1,0,12,,,,,,,,,,,,,,,,7,,55,72
14340,note_on,,1,0,14,,,,,,,,,,,,,,,,10,,70,72
14340,note_on,,1,0,18,,,,,,,,,,,,,,,,15,,55,72
14340,note_on,,1,0,11,,,,,,,,,,,,,,,,6,,70,72
14340,note_on,,1,0,10,,,,,,,,,,,,,,,,5,,70,72
14340,note_on,,1,0,6,,,,,,,,,,,,,,,,1,,70,72
14340,note_on,,1,0,17,,,,,,,,,,,,,,,,13,,55,72
14340,note_on,,1,0,16,,,,,,,,,,,,,,,,12,,55,72
14399,note_on,,59,0,18,,,,,,,,,,,,,,,,15,,65,0
14399,note_on,,0,0,18,,,,,,,,,,,,,,,,15,,60,0
14399,note_on,,0,0,18,,,,,,,,,,,,,,,,15,,70,0
14399,note_on,,0,0,18,,,,,,,,,,,,,,,,15,,55,0
14399,note_on,,59,0,14,,,,,,,,,,,,,,,,10,,70,0
14399,note_on,,59,0,11,,,,,,,,,,,,,,,,6,,70,0
14399,note_on,,59,0,15,,,,,,,,,,,,,,,,11,,70,0
14399,note_on,,59,0,16,,,,,,,,,,,,,,,,12,,55,0
14399,note_on,,59,0,17,,,,,,,,,,,,,,,,13,,55,0
14399,note_on,,59,0,6,,,,,,,,,,,,,,,,1,,70,0
14399,note_on,,59,0,10,,,,,,,,,,,,,,,,5,,70,0
14399,note_on,,59,0,12,,,,,,,,,,,,,,,,7,,55,0
14400,note_on,,1,0,14,,,,,,,,,,,,,,,,10,,72,72
14400,note_on,,1,0,16,,,,,,,,,,,,,,,,12,,57,72
14400,note_on,,1,0,11,,,,,,,,,,,,,,,,6,,69,72
14400,note_on,,0,0,18,,,,,,,,,,,,,,,,15,,60,72
14400,note_on,,1,0,12,,,,,,,,,,,,,,,,7,,57,72
14400,note_on,,1,0,18,,,,,,,,,,,,,,,,15,,57,72
14400,note_on,,0,0,18,,,,,,,,,,,,,,,,15,,72,72
14400,note_on,,1,0,15,,,,,,,,,,,,,,,,11,,69,72
14400,note_on,,1,0,17,,,,,,,,,,,,,,,,13,,57,72
14400,note_on,,1,0,6,,,,,,,,,,,,,,,,1,,72,72
14400,note_on,,1,0,10,,,,,,,,,,,,,,,,5,,72,72
14459,note_on,,0,0,18,,,,,,,,,,,,,,,,15,,60,0
14459,note_on,,59,0,15,,,,,,,,,,,,,,,,11,,69,0
14459,note_on,,59,0,17,,,,,,,,,,,,,,,,13,,57,0
14459,note_on,,59,0,16,,,,,,,,,,,,,,,,12,,57,0
14459,note_on,,59,0,12,,,,,,,,,,,,,,,,7,,57,0
14459,note_on,,59,0,18,,,,,,,,,,,,,,,,15,,57,0
14459,note_on,,0,0,18,,,,,,,,,,,,,,,,15,,72,0
14459,note_on,,59,0,10,,,,,,,,,,,,,,,,5,,72,0
14459,note_on,,59,0,6,,,,,,,,,,,,,,,,1,,72,0
14459,note_on,,59,0,14,,,,,,,,,,,,,,,,10,,72,0
14459,note_on,,59,0,11,,,,,,,,,,,,,,,,6,,69,0
14460,note_on,,1,0,17,,,,,,,,,,,,,,,,13,,58,72
14460,note_on,,1,0,6,,,,,,,,,,,,,,,,1,,74,72
14460,note_on,,1,0,10,,,,,,,,,,,,,,,,5,,74,72
14460,note_on,,1,0,15,,,,,,,,,,,,,,,,11,,67,72
14460,note_on,,1,0,12,,,,,,,,,,,,,,,,7,,58,72
14460,note_on,,0,0,18,,,,,,,,,,,,,,,,15,,62,72
14460,note_on,,1,0,16,,,,,,,,,,,,,,,,12,,58,72
14460,note_on,,1,0,11,,,,,,,,,,,,,,,,6,,67,72
14460,note_on,,1,0,18,,,,,,,,,,,,,,,,15,,58,72
14460,note_on,,0,0,18,,,,,,,,,,,,,,,,15,,67,72
14460,note_on,,1,0,14,,,,,,,,,,,,,,,,10,,74,72
14519,note_on,,59,0,16,,,,,,,,,,,,,,,,12,,58,0
14519,note_on,,59,0,17,,,,,,,,,,,,,,,,13,,58,0
14519,note_on,,59,0,6,,,,,,,,,,,,,,,,1,,74,0
14519,note_on,,59,0,10,,,,,,,,,,,,,,,,5,,74,0
14519,note_on,,0,0,18,,,,,,,,,,,,,,,,15,,62,0
14519,note_on,,59,0,12,,,,,,,,,,,,,,,,7,,58,0
14519,note_on,,59,0,14,,,,,,,,,,,,,,,,10,,74,0
14519,note_on,,59,0,18,,,,,,,,,,,,,,,,15,,58,0
14520,note_on,,0,0,18,,,,,,,,,,,,,,,,15,,63,72
14520,note_on,,1,0,18,,,,,,,,,,,,,,,,15,,60,72
14520,note_on,,1,0,14,,,,,,,,,,,,,,,,10,,75,72
14520,note_on,,1,0,12,,,,,,,,,,,,,,,,7,,60,72
14520,note_on,,1,0,16,,,,,,,,,,,,,,,,12,,60,72
14520,note_on,,1,0,17,,,,,,,,,,,,,,,,13,,60,72
14520,note_on,,1,0,6,,,,,,,,,,,,,,,,1,,75,72
14520,note_on,,1,0,10,,,,,,,,,,,,,,,,5,,75,72
14579,note_on,,59,0,12,,,,,,,,,,,,,,,,7,,60,0
14579,note_on,,59,0,18,,,,,,,,,,,,,,,,15,,67,0
14579,note_on,,0,0,18,,,,,,,,,,,,,,,,15,,63,0
14579,note_on,,0,0,18,,,,,,,,,,,,,,,,15,,60,0
14579,note_on,,119,0,11,,,,,,,,,,,,,,,,6,,67,0
14579,note_on,,59,0,17,,,,,,,,,,,,,,,,13,,60,0
14579,note_on,,59,0,10,,,,,,,,,,,,,,,,5,,75,0
14579,note_on,,59,0,6,,,,,,,,,,,,,,,,1,,75,0
14579,note_on,,59,0,14,,,,,,,,,,,,,,,,10,,75,0
14579,note_on,,119,0,15,,,,,,,,,,,,,,,,11,,67,0
14579,note_on,,59,0,16,,,,,,,,,,,,,,,,12,,60,0
14580,note_on,,0,0,18,,,,,,,,,,,,,,,,15,,66,72
14580,note_on,,0,0,18,,,,,,,,,,,,,,,,15,,68,72
14580,note_on,,0,0,18,,,,,,,,,,,,,,,,15,,74,72
14580,note_on,,1,0,18,,,,,,,,,,,,,,,,15,,62,72
14580,note_on,,1,0,17,,,,,,,,,,,,,,,,13,,62,72
14580,note_on,,1,0,15,,,,,,,,,,,,,,,,11,,66,72
14580,note_on,,1,0,14,,,,,,,,,,,,,,,,10,,74,72
14580,note_on,,1,0,6,,,,,,,,,,,,,,,,1,,74,72
14580,note_on,,1,0,12,,,,,,,,,,,,,,,,7,,62,72
14580,note_on,,1,0,10,,,,,,,,,,,,,,,,5,,74,72
14580,note_on,,1,0,16,,,,,,,,,,,,,,,,12,,62,72
14580,note_on,,1,0,11,,,,,,,,,,,,,,,,6,,66,72
14639,note_on,,59,0,12,,,,,,,,,,,,,,,,7,,62,0
14639,note_on,,59,0,16,,,,,,,,,,,,,,,,12,,62,0
14639,note_on,,59,0,10,,,,,,,,,,,,,,,,5,,74,0
14639,note_on,,59,0,18,,,,,,,,,,,,,,,,15,,62,0
14639,note_on,,59,0,6,,,,,,,,,,,,,,,,1,,74,0
14639,note_on,,0,0,18,,,,,,,,,,,,,,,,15,,74,0
14639,note_on,,0,0,18,,,,,,,,,,,,,,,,15,,68,0
14639,note_on,,59,0,17,,,,,,,,,,,,,,,,13,,62,0
14639,note_on,,0,0,18,,,,,,,,,,,,,,,,15,,66,0
14639,note_on,,59,0,14,,,,,,,,,,,,,,,,10,,74,0
14639,note_on,,59,0,11,,,,,,,,,,,,,,,,6,,66,0
14639,note_on,,59,0,15,,,,,,,,,,,,,,,,11,,66,0
14640,note_on,,1,0,15,,,,,,,,,,,,,,,,11,,67,72
14640,note_on,,1,0,10,,,,,,,,,,,,,,,,5,,72,72
14640,note_on,,1,0,6,,,,,,,,,,,,,,,,1,,72,72
14640,note_on,,1,0,14,,,,,,,,,,,,,,,,10,,72,72
14640,note_on,,1,0,11,,,,,,,,,,,,,,,,6,,67,72
14640,note_on,,0,0,18,,,,,,,,,,,,,,,,15,,67,72
14640,note_on,,1,0,18,,,,,,,,,,,,,,,,15,,63,72
14640,note_on,,1,0,16,,,,,,,,,,,,,,,,12,,63,72
14640,note_on,,1,0,17,,,,,,,,,,,,,,,,13,,63,72
14640,note_on,,1,0,12,,,,,,,,,,,,,,,,7,,63,72
14640,note_on,,0,0,18,,,,,,,,,,,,,,,,15,,72,72
14819,note_on,,179,0,11,,,,,,,,,,,,,,,,6,,67,0
14819,note_on,,179,0,16,,,,,,,,,,,,,,,,12,,63,0
14819,note_on,,179,0,14,,,,,,,,,,,,,,,,10,,72,0
14819,note_on,,179,0,18,,,,,,,,,,,,,,,,15,,63,0
14819,note_on,,179,0,6,,,,,,,,,,,,,,,,1,,72,0
14819,note_on,,179,0,17,,,,,,,,,,,,,,,,13,,63,0
14819,note_on,,179,0,12,,,,,,,,,,,,,,,,7,,63,0
14819,note_on,,179,0,15,,,,,,,,,,,,,,,,11,,67,0
14819,note_on,,179,0,10,,,,,,,,,,,,,,,,5,,72,0
14820,note_on,,1,0,18,,,,,,,,,,,,,,,,15,,63,72
14820,note_on,,1,0,6,,,,,,,,,,,,,,,,1,,72,72
14820,note_on,,1,0,17,,,,,,,,,,,,,,,,13,,63,72
14820,note_on,,1,0,11,,,,,,,,,,,,,,,,6,,67,72
14820,note_on,,1,0,16,,,,,,,,,,,,,,,,12,,63,72
14820,note_on,,1,0,15,,,,,,,,,,,,,,,,11,,67,72
14820,note_on,,1,0,10,,,,,,,,,,,,,,,,5,,72,72
14820,note_on,,1,0,14,,,,,,,,,,,,,,,,10,,72,72
14820,note_on,,1,0,12,,,,,,,,,,,,,,,,7,,63,72
14879,note_on,,59,0,11,,,,,,,,,,,,,,,,6,,67,0
14879,note_on,,59,0,14,,,,,,,,,,,,,,,,10,,72,0
14879,note_on,,59,0,18,,,,,,,,,,,,,,,,15,,72,0
14879,note_on,,59,0,17,,,,,,,,,,,,,,,,13,,63,0
14879,note_on,,0,0,18,,,,,,,,,,,,,,,,15,,67,0
14879,note_on,,59,0,10,,,,,,,,,,,,,,,,5,,72,0
14879,note_on,,59,0,12,,,,,,,,,,,,,,,,7,,63,0
14879,note_on,,0,0,18,,,,,,,,,,,,,,,,15,,63,0
14879,note_on,,59,0,15,,,,,,,,,,,,,,,,11,,67,0
14879,note_on,,59,0,16,,,,,,,,,,,,,,,,12,,63,0
14879,note_on,,59,0,6,,,,,,,,,,,,,,,,1,,72,0
14880,note_on,,1,0,14,,,,,,,,,,,,,,,,10,,74,72
14880,note_on,,1,0,18,,,,,,,,,,,,,,,,15,,62,72
14880,note_on,,0,0,18,,,,,,,,,,,,,,,,15,,74,72
14880,note_on,,0,0,18,,,,,,,,,,,,,,,,15,,66,72
14880,note_on,,0,0,18,,,,,,,,,,,,,,,,15,,68,72
14880,note_on,,1,0,10,,,,,,,,,,,,,,,,5,,74,72
14880,note_on,,1,0,6,,,,,,,,,,,,,,,,1,,74,72
14880,note_on,,1,0,17,,,,,,,,,,,,,,,,13,,62,72
14880,note_on,,1,0,16,,,,,,,,,,,,,,,,12,,62,72
14880,note_on,,1,0,12,,,,,,,,,,,,,,,,7,,62,72
14880,note_on,,1,0,15,,,,,,,,,,,,,,,,11,,66,72
14880,note_on,,1,0,11,,,,,,,,,,,,,,,,6,,66,72
14939,note_on,,59,0,14,,,,,,,,,,,,,,,,10,,74,0
14939,note_on,,59,0,15,,,,,,,,,,,,,,,,11,,66,0
14940,note_on,,1,0,15,,,,,,,,,,,,,,,,11,,69,72
14940,note_on,,1,0,14,,,,,,,,,,,,,,,,10,,72,72
14999,note_on,,0,0,18,,,,,,,,,,,,,,,,15,,66,0
14999,note_on,,119,0,18,,,,,,,,,,,,,,,,15,,74,0
14999,note_on,,59,0,14,,,,,,,,,,,,,,,,10,,72,0
14999,note_on,,59,0,15,,,,,,,,,,,,,,,,11,,69,0
14999,note_on,,0,0,18,,,,,,,,,,,,,,,,15,,68,0
15000,note_on,,1,0,15,,,,,,,,,,,,,,,,11,,67,72
15000,note_on,,1,0,14,,,,,,,,,,,,,,,,10,,70,72
15059,note_on,,59,0,15,,,,,,,,,,,,,,,,11,,67,0
15059,note_on,,60,0,18,,,,,,,,,,,,,,,,15,,62,0
15059,note_on,,179,0,17,,,,,,,,,,,,,,,,13,,62,0
15059,note_on,,179,0,16,,,,,,,,,,,,,,,,12,,62,0
15059,note_on,,59,0,14,,,,,,,,,,,,,,,,10,,70,0
15060,note_on,,1501,0,13,,,,,,,,,,,,,,,,8,,50,72
15060,note_on,,1,0,15,,,,,,,,,,,,,,,,11,,66,72
15060,note_on,,1,0,17,,,,,,,,,,,,,,,,13,,50,72
15060,note_on,,1501,0,7,,,,,,,,,,,,,,,,2,,50,72
15060,note_on,,1,0,16,,,,,,,,,,,,,,,,12,,62,72
15060,note_on,,1,0,14,,,,,,,,,,,,,,,,10,,69,72
15060,note_on,,1,0,18,,,,,,,,,,,,,,,,15,,50,72
15119,note_on,,59,0,18,,,,,,,,,,,,,,,,15,,50,0
15119,note_on,,59,0,17,,,,,,,,,,,,,,,,13,,50,0
15119,note_on,,59,0,14,,,,,,,,,,,,,,,,10,,69,0
15119,note_on,,239,0,12,,,,,,,,,,,,,,,,7,,62,0
15119,note_on,,239,0,10,,,,,,,,,,,,,,,,5,,74,0
15119,note_on,,239,0,6,,,,,,,,,,,,,,,,1,,74,0
15119,note_on,,59,0,7,,,,,,,,,,,,,,,,2,,50,0
15119,note_on,,59,0,13,,,,,,,,,,,,,,,,8,,50,0
15119,note_on,,59,0,16,,,,,,,,,,,,,,,,12,,62,0
15119,note_on,,59,0,15,,,,,,,,,,,,,,,,11,,66,0
15119,note_on,,239,0,11,,,,,,,,,,,,,,,,6,,66,0
15120,note_on,,1,0,13,,,,,,,,,,,,,,,,8,,58,72
15120,note_on,,1,0,7,,,,,,,,,,,,,,,,2,,58,72
15120,note_on,,1,0,15,,,,,,,,,,,,,,,,11,,67,72
15120,note_on,,1,0,18,,,,,,,,,,,,,,,,15,,58,72
15120,note_on,,1,0,17,,,,,,,,,,,,,,,,13,,58,72
15120,note_on,,1,0,16,,,,,,,,,,,,,,,,12,,62,72
15120,note_on,,1,0,14,,,,,,,,,,,,,,,,10,,70,72
15179,note_on,,59,0,13,,,,,,,,,,,,,,,,8,,58,0
15179,note_on,,59,0,18,,,,,,,,,,,,,,,,15,,58,0
15179,note_on,,59,0,15,,,,,,,,,,,,,,,,11,,67,0
15179,note_on,,59,0,17,,,,,,,,,,,,,,,,13,,58,0
15179,note_on,,59,0,7,,,,,,,,,,,,,,,,2,,58,0
15180,note_on,,1,0,18,,,,,,,,,,,,,,,,15,,57,72
15180,note_on,,1,0,15,,,,,,,,,,,,,,,,11,,69,72
15180,note_on,,1,0,13,,,,,,,,,,,,,,,,8,,57,72
15180,note_on,,1,0,17,,,,,,,,,,,,,,,,13,,57,72
15180,note_on,,1,0,7,,,,,,,,,,,,,,,,2,,57,72
15209,note_on,,29,0,13,,,,,,,,,,,,,,,,8,,57,0
15209,note_on,,29,0,18,,,,,,,,,,,,,,,,15,,57,0
15209,note_on,,29,0,7,,,,,,,,,,,,,,,,2,,57,0
15209,note_on,,29,0,17,,,,,,,,,,,,,,,,13,,57,0
15209,note_on,,29,0,15,,,,,,,,,,,,,,,,11,,69,0
15210,note_on,,1,0,13,,,,,,,,,,,,,,,,8,,55,72
15210,note_on,,1,0,17,,,,,,,,,,,,,,,,13,,55,72
15210,note_on,,1,0,15,,,,,,,,,,,,,,,,11,,70,72
15210,note_on,,1,0,7,,,,,,,,,,,,,,,,2,,55,72
15210,note_on,,1,0,18,,,,,,,,,,,,,,,,15,,55,72
15239,note_on,,119,0,14,,,,,,,,,,,,,,,,10,,70,0
15239,note_on,,29,0,13,,,,,,,,,,,,,,,,8,,55,0
15239,note_on,,29,0,17,,,,,,,,,,,,,,,,13,,55,0
15239,note_on,,29,0,15,,,,,,,,,,,,,,,,11,,70,0
15239,note_on,,29,0,7,,,,,,,,,,,,,,,,2,,55,0
15239,note_on,,29,0,18,,,,,,,,,,,,,,,,15,,55,0
15239,note_on,,119,0,16,,,,,,,,,,,,,,,,12,,62,0
15240,note_on,,1,0,16,,,,,,,,,,,,,,,,12,,57,72
15240,note_on,,1,0,15,,,,,,,,,,,,,,,,11,,69,72
15240,note_on,,1,0,7,,,,,,,,,,,,,,,,2,,53,72
15240,note_on,,1,0,14,,,,,,,,,,,,,,,,10,,72,72
15240,note_on,,1,0,18,,,,,,,,,,,,,,,,15,,53,72
15240,note_on,,1,0,17,,,,,,,,,,,,,,,,13,,53,72
15240,note_on,,1,0,13,,,,,,,,,,,,,,,,8,,53,72
15299,note_on,,59,0,13,,,,,,,,,,,,,,,,8,,53,0
15299,note_on,,59,0,15,,,,,,,,,,,,,,,,11,,69,0
15299,note_on,,59,0,17,,,,,,,,,,,,,,,,13,,53,0
15299,note_on,,59,0,18,,,,,,,,,,,,,,,,15,,53,0
15299,note_on,,59,0,7,,,,,,,,,,,,,,,,2,,53,0
15300,note_on,,181,0,12,,,,,,,,,,,,,,,,7,,55,72
15300,note_on,,1,0,17,,,,,,,,,,,,,,,,13,,51,72
15300,note_on,,1,0,13,,,,,,,,,,,,,,,,8,,51,72
15300,note_on,,1,0,18,,,,,,,,,,,,,,,,15,,51,72
15300,note_on,,0,0,18,,,,,,,,,,,,,,,,15,,55,72
15300,note_on,,1,0,15,,,,,,,,,,,,,,,,11,,67,72
15300,note_on,,1,0,7,,,,,,,,,,,,,,,,2,,51,72
15359,note_on,,59,0,13,,,,,,,,,,,,,,,,8,,51,0
15359,note_on,,119,0,14,,,,,,,,,,,,,,,,10,,72,0
15359,note_on,,59,0,12,,,,,,,,,,,,,,,,7,,55,0
15359,note_on,,59,0,18,,,,,,,,,,,,,,,,15,,51,0
15359,note_on,,59,0,7,,,,,,,,,,,,,,,,2,,51,0
15359,note_on,,0,0,18,,,,,,,,,,,,,,,,15,,55,0
15359,note_on,,59,0,15,,,,,,,,,,,,,,,,11,,67,0
15359,note_on,,59,0,17,,,,,,,,,,,,,,,,13,,51,0
15359,note_on,,119,0,16,,,,,,,,,,,,,,,,12,,57,0
15360,note_on,,0,0,18,,,,,,,,,,,,,,,,15,,56,72
15360,note_on,,1,0,12,,,,,,,,,,,,,,,,7,,62,72
15360,note_on,,1,0,17,,,,,,,,,,,,,,,,13,,50,72
15360,note_on,,1,0,7,,,,,,,,,,,,,,,,2,,50,72
15360,note_on,,0,0,18,,,,,,,,,,,,,,,,15,,54,72
15360,note_on,,1,0,13,,,,,,,,,,,,,,,,8,,50,72
15360,note_on,,0,0,18,,,,,,,,,,,,,,,,15,,62,72
15360,note_on,,1,0,14,,,,,,,,,,,,,,,,10,,66,72
15360,note_on,,1,0,16,,,,,,,,,,,,,,,,12,,57,72
15360,note_on,,1,0,15,,,,,,,,,,,,,,,,11,,74,72
15360,note_on,,1,0,18,,,,,,,,,,,,,,,,15,,50,72
15419,note_on,,59,0,16,,,,,,,,,,,,,,,,12,,57,0
15419,note_on,,59,0,15,,,,,,,,,,,,,,,,11,,74,0
15419,note_on,,59,0,12,,,,,,,,,,,,,,,,7,,62,0
15420,note_on,,1,0,16,,,,,,,,,,,,,,,,12,,69,72
15420,note_on,,1,0,15,,,,,,,,,,,,,,,,11,,72,72
15420,note_on,,1,0,12,,,,,,,,,,,,,,,,7,,60,72
15449,note_on,,29,0,16,,,,,,,,,,,,,,,,12,,69,0
15449,note_on,,29,0,12,,,,,,,,,,,,,,,,7,,60,0
15449,note_on,,29,0,15,,,,,,,,,,,,,,,,11,,72,0
15449,note_on,,89,0,13,,,,,,,,,,,,,,,,8,,50,0
15450,note_on,,1,0,12,,,,,,,,,,,,,,,,7,,58,72
15450,note_on,,1,0,15,,,,,,,,,,,,,,,,11,,70,72
15450,note_on,,1,0,13,,,,,,,,,,,,,,,,8,,50,72
15450,note_on,,1,0,16,,,,,,,,,,,,,,,,12,,67,72
15479,note_on,,29,0,13,,,,,,,,,,,,,,,,8,,50,0
15479,note_on,,29,0,12,,,,,,,,,,,,,,,,7,,58,0
15479,note_on,,29,0,16,,,,,,,,,,,,,,,,12,,67,0
15479,note_on,,29,0,15,,,,,,,,,,,,,,,,11,,70,0
15480,note_on,,1,0,15,,,,,,,,,,,,,,,,11,,69,72
15480,note_on,,1,0,13,,,,,,,,,,,,,,,,8,,50,72
15480,note_on,,1,0,12,,,,,,,,,,,,,,,,7,,57,72
15480,note_on,,1,0,16,,,,,,,,,,,,,,,,12,,66,72
15539,note_on,,59,0,13,,,,,,,,,,,,,,,,8,,50,0
15539,note_on,,59,0,12,,,,,,,,,,,,,,,,7,,57,0
15539,note_on,,59,0,16,,,,,,,,,,,,,,,,12,,66,0
15539,note_on,,179,0,18,,,,,,,,,,,,,,,,15,,50,0
15539,note_on,,0,0,18,,,,,,,,,,,,,,,,15,,56,0
15539,note_on,,0,0,18,,,,,,,,,,,,,,,,15,,54,0
15539,note_on,,179,0,17,,,,,,,,,,,,,,,,13,,50,0
15539,note_on,,179,0,14,,,,,,,,,,,,,,,,10,,66,0
15539,note_on,,179,0,7,,,,,,,,,,,,,,,,2,,50,0
15539,note_on,,59,0,15,,,,,,,,,,,,,,,,11,,69,0
15539,note_on,,0,0,18,,,,,,,,,,,,,,,,15,,62,0
15540,note_on,,1,0,16,,,,,,,,,,,,,,,,12,,57,72
15540,note_on,,1,0,18,,,,,,,,,,,,,,,,15,,48,72
15540,note_on,,0,0,18,,,,,,,,,,,,,,,,15,,66,72
15540,note_on,,0,0,18,,,,,,,,,,,,,,,,15,,56,72
15540,note_on,,1,0,14,,,,,,,,,,,,,,,,10,,66,72
15540,note_on,,421,0,11,,,,,,,,,,,,,,,,6,,62,72
15540,note_on,,1,0,17,,,,,,,,,,,,,,,,13,,48,72
15540,note_on,,0,0,18,,,,,,,,,,,,,,,,15,,62,72
15540,note_on,,1,0,15,,,,,,,,,,,,,,,,11,,69,72
15540,note_on,,1,0,13,,,,,,,,,,,,,,,,8,,48,72
15540,note_on,,1,0,7,,,,,,,,,,,,,,,,2,,48,72
15540,note_on,,1,0,12,,,,,,,,,,,,,,,,7,,57,72
15599,note_on,,59,0,12,,,,,,,,,,,,,,,,7,,57,0
15599,note_on,,59,0,15,,,,,,,,,,,,,,,,11,,69,0
15599,note_on,,59,0,13,,,,,,,,,,,,,,,,8,,48,0
15599,note_on,,59,0,16,,,,,,,,,,,,,,,,12,,57,0
15599,note_on,,59,0,11,,,,,,,,,,,,,,,,6,,62,0
15599,note_on,,59,0,17,,,,,,,,,,,,,,,,13,,48,0
15599,note_on,,59,0,7,,,,,,,,,,,,,,,,2,,48,0
15599,note_on,,0,0,18,,,,,,,,,,,,,,,,15,,56,0
15599,note_on,,0,0,18,,,,,,,,,,,,,,,,15,,62,0
15599,note_on,,59,0,14,,,,,,,,,,,,,,,,10,,66,0
15599,note_on,,59,0,18,,,,,,,,,,,,,,,,15,,48,0
15599,note_on,,0,0,18,,,,,,,,,,,,,,,,15,,66,0
15600,note_on,,1,0,14,,,,,,,,,,,,,,,,10,,67,72
15600,note_on,,1,0,7,,,,,,,,,,,,,,,,2,,46,72
15600,note_on,,1,0,16,,,,,,,,,,,,,,,,12,,58,72
15600,note_on,,1,0,13,,,,,,,,,,,,,,,,8,,46,72
15600,note_on,,1,0,17,,,,,,,,,,,,,,,,13,,46,72
15600,note_on,,1,0,15,,,,,,,,,,,,,,,,11,,62,72
15600,note_on,,1,0,12,,,,,,,,,,,,,,,,7,,62,72
15600,note_on,,1,0,11,,,,,,,,,,,,,,,,6,,67,72
15600,note_on,,0,0,18,,,,,,,,,,,,,,,,15,,58,72
15600,note_on,,1,0,18,,,,,,,,,,,,,,,,15,,46,72
15600,note_on,,0,0,18,,,,,,,,,,,,,,,,15,,67,72
15600,note_on,,0,0,18,,,,,,,,,,,,,,,,15,,62,72
15659,note_on,,59,0,14,,,,,,,,,,,,,,,,10,,67,0
15659,note_on,,59,0,11,,,,,,,,,,,,,,,,6,,67,0
15660,note_on,,1,0,11,,,,,,,,,,,,,,,,6,,65,72
15660,note_on,,1,0,14,,,,,,,,,,,,,,,,10,,65,72
15689,note_on,,89,0,12,,,,,,,,,,,,,,,,7,,62,0
15689,note_on,,89,0,13,,,,,,,,,,,,,,,,8,,46,0
15689,note_on,,29,0,11,,,,,,,,,,,,,,,,6,,65,0
15689,note_on,,89,0,15,,,,,,,,,,,,,,,,11,,62,0
15689,note_on,,29,0,14,,,,,,,,,,,,,,,,10,,65,0
15690,note_on,,1,0,11,,,,,,,,,,,,,,,,6,,63,72
15690,note_on,,1,0,12,,,,,,,,,,,,,,,,7,,55,72
15690,note_on,,1,0,14,,,,,,,,,,,,,,,,10,,63,72
15690,note_on,,1,0,15,,,,,,,,,,,,,,,,11,,55,72
15690,note_on,,1,0,13,,,,,,,,,,,,,,,,8,,46,72
15719,note_on,,29,0,12,,,,,,,,,,,,,,,,7,,55,0
15719,note_on,,29,0,14,,,,,,,,,,,,,,,,10,,63,0
15719,note_on,,29,0,15,,,,,,,,,,,,,,,,11,,55,0
15719,note_on,,29,0,11,,,,,,,,,,,,,,,,6,,63,0
15719,note_on,,29,0,13,,,,,,,,,,,,,,,,8,,46,0
15720,note_on,,1,0,15,,,,,,,,,,,,,,,,11,,55,72
15720,note_on,,1,0,12,,,,,,,,,,,,,,,,7,,55,72
15720,note_on,,1,0,14,,,,,,,,,,,,,,,,10,,62,72
15720,note_on,,1,0,11,,,,,,,,,,,,,,,,6,,62,72
15720,note_on,,1,0,13,,,,,,,,,,,,,,,,8,,46,72
15779,note_on,,179,0,18,,,,,,,,,,,,,,,,15,,46,0
15779,note_on,,0,0,18,,,,,,,,,,,,,,,,15,,67,0
15779,note_on,,0,0,18,,,,,,,,,,,,,,,,15,,62,0
15779,note_on,,0,0,18,,,,,,,,,,,,,,,,15,,58,0
15779,note_on,,59,0,14,,,,,,,,,,,,,,,,10,,62,0
15779,note_on,,59,0,11,,,,,,,,,,,,,,,,6,,62,0
15779,note_on,,179,0,7,,,,,,,,,,,,,,,,2,,46,0
15779,note_on,,179,0,16,,,,,,,,,,,,,,,,12,,58,0
15779,note_on,,59,0,13,,,,,,,,,,,,,,,,8,,46,0
15779,note_on,,179,0,17,,,,,,,,,,,,,,,,13,,46,0
15779,note_on,,59,0,12,,,,,,,,,,,,,,,,7,,55,0
15779,note_on,,59,0,15,,,,,,,,,,,,,,,,11,,55,0
15780,note_on,,1,0,11,,,,,,,,,,,,,,,,6,,60,72
15780,note_on,,1,0,14,,,,,,,,,,,,,,,,10,,60,72
15780,note_on,,1,0,13,,,,,,,,,,,,,,,,8,,56,72
15780,note_on,,1,0,16,,,,,,,,,,,,,,,,12,,65,72
15780,note_on,,1,0,7,,,,,,,,,,,,,,,,2,,44,72
15780,note_on,,1,0,15,,,,,,,,,,,,,,,,11,,72,72
15780,note_on,,1,0,18,,,,,,,,,,,,,,,,15,,44,72
15780,note_on,,0,0,18,,,,,,,,,,,,,,,,15,,72,72
15780,note_on,,0,0,18,,,,,,,,,,,,,,,,15,,68,72
15780,note_on,,0,0,18,,,,,,,,,,,,,,,,15,,65,72
15780,note_on,,0,0,18,,,,,,,,,,,,,,,,15,,53,72
15780,note_on,,1,0,17,,,,,,,,,,,,,,,,13,,44,72
15780,note_on,,1,0,12,,,,,,,,,,,,,,,,7,,60,72
15839,note_on,,59,0,18,,,,,,,,,,,,,,,,15,,44,0
15839,note_on,,0,0,18,,,,,,,,,,,,,,,,15,,72,0
15839,note_on,,0,0,18,,,,,,,,,,,,,,,,15,,68,0
15839,note_on,,0,0,18,,,,,,,,,,,,,,,,15,,65,0
15839,note_on,,59,0,12,,,,,,,,,,,,,,,,7,,60,0
15839,note_on,,59,0,15,,,,,,,,,,,,,,,,11,,72,0
15839,note_on,,59,0,14,,,,,,,,,,,,,,,,10,,60,0
15839,note_on,,59,0,7,,,,,,,,,,,,,,,,2,,44,0
15839,note_on,,59,0,17,,,,,,,,,,,,,,,,13,,44,0
15839,note_on,,59,0,16,,,,,,,,,,,,,,,,12,,65,0
15839,note_on,,59,0,13,,,,,,,,,,,,,,,,8,,56,0
15839,note_on,,59,0,11,,,,,,,,,,,,,,,,6,,60,0
15839,note_on,,0,0,18,,,,,,,,,,,,,,,,15,,53,0
15840,note_on,,1,0,14,,,,,,,,,,,,,,,,10,,59,72
15840,note_on,,1,0,15,,,,,,,,,,,,,,,,11,,79,72
15840,note_on,,1,0,13,,,,,,,,,,,,,,,,8,,55,72
15840,note_on,,0,0,18,,,,,,,,,,,,,,,,15,,71,72
15840,note_on,,1,0,11,,,,,,,,,,,,,,,,6,,59,72
15840,note_on,,1,0,7,,,,,,,,,,,,,,,,2,,43,72
15840,note_on,,1,0,16,,,,,,,,,,,,,,,,12,,62,72
15840,note_on,,0,0,18,,,,,,,,,,,,,,,,15,,55,72
15840,note_on,,0,0,18,,,,,,,,,,,,,,,,15,,74,72
15840,note_on,,0,0,18,,,,,,,,,,,,,,,,15,,79,72
15840,note_on,,1,0,18,,,,,,,,,,,,,,,,15,,43,72
15840,note_on,,1,0,12,,,,,,,,,,,,,,,,7,,67,72
15840,note_on,,1,0,17,,,,,,,,,,,,,,,,13,,43,72
15899,note_on,,59,0,15,,,,,,,,,,,,,,,,11,,79,0
15899,note_on,,59,0,12,,,,,,,,,,,,,,,,7,,67,0
15900,note_on,,1,0,15,,,,,,,,,,,,,,,,11,,77,72
15900,note_on,,1,0,12,,,,,,,,,,,,,,,,7,,65,72
15929,note_on,,89,0,14,,,,,,,,,,,,,,,,10,,59,0
15929,note_on,,89,0,11,,,,,,,,,,,,,,,,6,,59,0
15929,note_on,,29,0,15,,,,,,,,,,,,,,,,11,,77,0
15929,note_on,,29,0,12,,,,,,,,,,,,,,,,7,,65,0
15930,note_on,,1,0,14,,,,,,,,,,,,,,,,10,,59,72
15930,note_on,,1,0,11,,,,,,,,,,,,,,,,6,,59,72
15930,note_on,,1,0,12,,,,,,,,,,,,,,,,7,,63,72
15930,note_on,,1,0,15,,,,,,,,,,,,,,,,11,,75,72
15959,note_on,,29,0,12,,,,,,,,,,,,,,,,7,,63,0
15959,note_on,,29,0,11,,,,,,,,,,,,,,,,6,,59,0
15959,note_on,,29,0,14,,,,,,,,,,,,,,,,10,,59,0
15959,note_on,,29,0,15,,,,,,,,,,,,,,,,11,,75,0
15960,note_on,,1,0,11,,,,,,,,,,,,,,,,6,,59,72
15960,note_on,,1,0,12,,,,,,,,,,,,,,,,7,,62,72
15960,note_on,,1,0,15,,,,,,,,,,,,,,,,11,,74,72
15960,note_on,,1,0,14,,,,,,,,,,,,,,,,10,,59,72
16019,note_on,,179,0,17,,,,,,,,,,,,,,,,13,,43,0
16019,note_on,,59,0,14,,,,,,,,,,,,,,,,10,,59,0
16019,note_on,,59,0,15,,,,,,,,,,,,,,,,11,,74,0
16019,note_on,,179,0,16,,,,,,,,,,,,,,,,12,,62,0
16019,note_on,,179,0,7,,,,,,,,,,,,,,,,2,,43,0
16019,note_on,,59,0,12,,,,,,,,,,,,,,,,7,,62,0
16019,note_on,,59,0,11,,,,,,,,,,,,,,,,6,,59,0
16019,note_on,,179,0,18,,,,,,,,,,,,,,,,15,,43,0
16019,note_on,,179,0,13,,,,,,,,,,,,,,,,8,,55,0
16020,note_on,,1,0,16,,,,,,,,,,,,,,,,12,,67,72
16020,note_on,,901,0,10,,,,,,,,,,,,,,,,5,,74,72
16020,note_on,,1,0,14,,,,,,,,,,,,,,,,10,,74,72
16020,note_on,,1,0,7,,,,,,,,,,,,,,,,2,,43,72
16020,note_on,,1,0,17,,,,,,,,,,,,,,,,13,,43,72
16020,note_on,,1,0,15,,,,,,,,,,,,,,,,11,,72,72
16020,note_on,,1,0,18,,,,,,,,,,,,,,,,15,,43,72
16020,note_on,,1,0,12,,,,,,,,,,,,,,,,7,,60,72
16020,note_on,,901,0,6,,,,,,,,,,,,,,,,1,,74,72
16020,note_on,,1,0,11,,,,,,,,,,,,,,,,6,,67,72
16020,note_on,,1,0,13,,,,,,,,,,,,,,,,8,,55,72
16049,note_on,,29,0,12,,,,,,,,,,,,,,,,7,,60,0
16049,note_on,,29,0,15,,,,,,,,,,,,,,,,11,,72,0
16050,note_on,,1,0,12,,,,,,,,,,,,,,,,7,,59,72
16050,note_on,,1,0,15,,,,,,,,,,,,,,,,11,,71,72
16079,note_on,,59,0,13,,,,,,,,,,,,,,,,8,,55,0
16079,note_on,,29,0,12,,,,,,,,,,,,,,,,7,,59,0
16079,note_on,,29,0,15,,,,,,,,,,,,,,,,11,,71,0
16079,note_on,,59,0,7,,,,,,,,,,,,,,,,2,,43,0
16079,note_on,,59,0,10,,,,,,,,,,,,,,,,5,,74,0
16079,note_on,,59,0,17,,,,,,,,,,,,,,,,13,,43,0
16079,note_on,,59,0,14,,,,,,,,,,,,,,,,10,,74,0
16079,note_on,,59,0,18,,,,,,,,,,,,,,,,15,,79,0
16079,note_on,,59,0,16,,,,,,,,,,,,,,,,12,,67,0
16079,note_on,,0,0,18,,,,,,,,,,,,,,,,15,,74,0
16079,note_on,,59,0,11,,,,,,,,,,,,,,,,6,,67,0
16079,note_on,,59,0,6,,,,,,,,,,,,,,,,1,,74,0
16079,note_on,,0,0,18,,,,,,,,,,,,,,,,15,,71,0
16079,note_on,,0,0,18,,,,,,,,,,,,,,,,15,,43,0
16079,note_on,,0,0,18,,,,,,,,,,,,,,,,15,,55,0
16080,note_on,,1,0,15,,,,,,,,,,,,,,,,11,,72,72
16080,note_on,,1,0,16,,,,,,,,,,,,,,,,12,,67,72
16080,note_on,,1,0,12,,,,,,,,,,,,,,,,7,,60,72
16080,note_on,,1,0,17,,,,,,,,,,,,,,,,13,,48,72
16080,note_on,,1,0,7,,,,,,,,,,,,,,,,2,,48,72
16080,note_on,,1,0,13,,,,,,,,,,,,,,,,8,,48,72
16080,note_on,,0,0,18,,,,,,,,,,,,,,,,15,,55,72
16080,note_on,,1,0,18,,,,,,,,,,,,,,,,15,,48,72
16080,note_on,,0,0,18,,,,,,,,,,,,,,,,15,,67,72
16080,note_on,,1,0,14,,,,,,,,,,,,,,,,10,,75,72
16080,note_on,,1,0,11,,,,,,,,,,,,,,,,6,,67,72
16080,note_on,,0,0,18,,,,,,,,,,,,,,,,15,,75,72
16080,note_on,,1,0,10,,,,,,,,,,,,,,,,5,,75,72
16080,note_on,,0,0,18,,,,,,,,,,,,,,,,15,,72,72
16080,note_on,,1,0,6,,,,,,,,,,,,,,,,1,,75,72
16139,note_on,,59,0,14,,,,,,,,,,,,,,,,10,,75,0
16139,note_on,,59,0,11,,,,,,,,,,,,,,,,6,,67,0
16139,note_on,,59,0,6,,,,,,,,,,,,,,,,1,,75,0
16139,note_on,,59,0,12,,,,,,,,,,,,,,,,7,,60,0
16139,note_on,,59,0,10,,,,,,,,,,,,,,,,5,,75,0
16139,note_on,,59,0,15,,,,,,,,,,,,,,,,11,,72,0
16139,note_on,,59,0,16,,,,,,,,,,,,,,,,12,,67,0
16140,note_on,,1,0,6,,,,,,,,,,,,,,,,1,,74,72
16140,note_on,,1,0,15,,,,,,,,,,,,,,,,11,,67,72
16140,note_on,,1,0,16,,,,,,,,,,,,,,,,12,,65,72
16140,note_on,,1,0,11,,,,,,,,,,,,,,,,6,,65,72
16140,note_on,,1,0,12,,,,,,,,,,,,,,,,7,,60,72
16140,note_on,,1,0,14,,,,,,,,,,,,,,,,10,,74,72
16140,note_on,,1,0,10,,,,,,,,,,,,,,,,5,,74,72
16169,note_on,,29,0,6,,,,,,,,,,,,,,,,1,,74,0
16169,note_on,,29,0,16,,,,,,,,,,,,,,,,12,,65,0
16169,note_on,,29,0,11,,,,,,,,,,,,,,,,6,,65,0
16169,note_on,,29,0,10,,,,,,,,,,,,,,,,5,,74,0
16169,note_on,,29,0,14,,,,,,,,,,,,,,,,10,,74,0
16170,note_on,,1,0,14,,,,,,,,,,,,,,,,10,,72,72
16170,note_on,,1,0,10,,,,,,,,,,,,,,,,5,,72,72
16170,note_on,,1,0,11,,,,,,,,,,,,,,,,6,,63,72
16170,note_on,,1,0,16,,,,,,,,,,,,,,,,12,,63,72
16170,note_on,,1,0,6,,,,,,,,,,,,,,,,1,,72,72
16199,note_on,,29,0,10,,,,,,,,,,,,,,,,5,,72,0
16199,note_on,,59,0,12,,,,,,,,,,,,,,,,7,,60,0
16199,note_on,,59,0,15,,,,,,,,,,,,,,,,11,,67,0
16199,note_on,,29,0,14,,,,,,,,,,,,,,,,10,,72,0
16199,note_on,,119,0,7,,,,,,,,,,,,,,,,2,,48,0
16199,note_on,,29,0,6,,,,,,,,,,,,,,,,1,,72,0
16199,note_on,,0,0,18,,,,,,,,,,,,,,,,15,,55,0
16199,note_on,,119,0,13,,,,,,,,,,,,,,,,8,,48,0
16199,note_on,,29,0,11,,,,,,,,,,,,,,,,6,,63,0
16199,note_on,,119,0,18,,,,,,,,,,,,,,,,15,,48,0
16199,note_on,,0,0,18,,,,,,,,,,,,,,,,15,,75,0
16199,note_on,,0,0,18,,,,,,,,,,,,,,,,15,,72,0
16199,note_on,,0,0,18,,,,,,,,,,,,,,,,15,,67,0
16199,note_on,,119,0,17,,,,,,,,,,,,,,,,13,,48,0
16199,note_on,,29,0,16,,,,,,,,,,,,,,,,12,,63,0
16200,note_on,,1,0,17,,,,,,,,,,,,,,,,13,,50,72
16200,note_on,,1,0,16,,,,,,,,,,,,,,,,12,,62,72
16200,note_on,,1,0,13,,,,,,,,,,,,,,,,8,,50,72
16200,note_on,,1,0,7,,,,,,,,,,,,,,,,2,,50,72
16200,note_on,,1,0,14,,,,,,,,,,,,,,,,10,,70,72
16200,note_on,,1,0,18,,,,,,,,,,,,,,,,15,,50,72
16200,note_on,,0,0,18,,,,,,,,,,,,,,,,15,,70,72
16200,note_on,,0,0,18,,,,,,,,,,,,,,,,15,,65,72
16200,note_on,,0,0,18,,,,,,,,,,,,,,,,15,,58,72
16200,note_on,,1,0,6,,,,,,,,,,,,,,,,1,,70,72
16200,note_on,,1,0,10,,,,,,,,,,,,,,,,5,,70,72
16200,note_on,,1,0,12,,,,,,,,,,,,,,,,7,,53,72
16200,note_on,,1,0,15,,,,,,,,,,,,,,,,11,,65,72
16200,note_on,,1,0,11,,,,,,,,,,,,,,,,6,,65,72
16259,note_on,,59,0,16,,,,,,,,,,,,,,,,12,,62,0
16259,note_on,,59,0,11,,,,,,,,,,,,,,,,6,,65,0
16259,note_on,,59,0,12,,,,,,,,,,,,,,,,7,,53,0
16259,note_on,,59,0,15,,,,,,,,,,,,,,,,11,,65,0
16259,note_on,,59,0,10,,,,,,,,,,,,,,,,5,,70,0
16259,note_on,,59,0,6,,,,,,,,,,,,,,,,1,,70,0
16259,note_on,,59,0,14,,,,,,,,,,,,,,,,10,,70,0
16260,note_on,,1,0,16,,,,,,,,,,,,,,,,12,,58,72
16260,note_on,,1,0,12,,,,,,,,,,,,,,,,7,,58,72
16260,note_on,,1,0,14,,,,,,,,,,,,,,,,10,,68,72
16260,note_on,,1,0,11,,,,,,,,,,,,,,,,6,,65,72
16260,note_on,,1,0,6,,,,,,,,,,,,,,,,1,,68,72
16260,note_on,,1,0,15,,,,,,,,,,,,,,,,11,,65,72
16260,note_on,,1,0,10,,,,,,,,,,,,,,,,5,,68,72
16319,note_on,,59,0,14,,,,,,,,,,,,,,,,10,,68,0
16319,note_on,,119,0,7,,,,,,,,,,,,,,,,2,,50,0
16319,note_on,,119,0,13,,,,,,,,,,,,,,,,8,,50,0
16319,note_on,,119,0,17,,,,,,,,,,,,,,,,13,,50,0
16319,note_on,,59,0,10,,,,,,,,,,,,,,,,5,,68,0
16319,note_on,,59,0,6,,,,,,,,,,,,,,,,1,,68,0
16319,note_on,,59,0,11,,,,,,,,,,,,,,,,6,,65,0
16319,note_on,,59,0,15,,,,,,,,,,,,,,,,11,,65,0
16319,note_on,,59,0,16,,,,,,,,,,,,,,,,12,,58,0
16319,note_on,,0,0,18,,,,,,,,,,,,,,,,15,,58,0
16319,note_on,,59,0,12,,,,,,,,,,,,,,,,7,,58,0
16319,note_on,,119,0,18,,,,,,,,,,,,,,,,15,,50,0
16319,note_on,,0,0,18,,,,,,,,,,,,,,,,15,,70,0
16319,note_on,,0,0,18,,,,,,,,,,,,,,,,15,,65,0
16320,note_on,,1,0,16,,,,,,,,,,,,,,,,12,,58,72
16320,note_on,,1,0,6,,,,,,,,,,,,,,,,1,,67,72
16320,note_on,,0,0,18,,,,,,,,,,,,,,,,15,,55,72
16320,note_on,,1,0,12,,,,,,,,,,,,,,,,7,,58,72
16320,note_on,,1,0,15,,,,,,,,,,,,,,,,11,,67,72
16320,note_on,,1,0,17,,,,,,,,,,,,,,,,13,,51,72
16320,note_on,,0,0,18,,,,,,,,,,,,,,,,15,,63,72
16320,note_on,,0,0,18,,,,,,,,,,,,,,,,15,,67,72
16320,note_on,,1,0,10,,,,,,,,,,,,,,,,5,,67,72
16320,note_on,,1,0,18,,,,,,,,,,,,,,,,15,,51,72
16320,note_on,,0,0,18,,,,,,,,,,,,,,,,15,,70,72
16320,note_on,,1,0,7,,,,,,,,,,,,,,,,2,,51,72
16320,note_on,,1,0,14,,,,,,,,,,,,,,,,10,,67,72
16320,note_on,,1,0,13,,,,,,,,,,,,,,,,8,,51,72
16320,note_on,,1,0,11,,,,,,,,,,,,,,,,6,,67,72
16379,note_on,,59,0,16,,,,,,,,,,,,,,,,12,,58,0
16379,note_on,,59,0,12,,,,,,,,,,,,,,,,7,,58,0
16380,note_on,,1,0,12,,,,,,,,,,,,,,,,7,,55,72
16380,note_on,,1,0,16,,,,,,,,,,,,,,,,12,,55,72
16409,note_on,,89,0,14,,,,,,,,,,,,,,,,10,,67,0
16409,note_on,,89,0,10,,,,,,,,,,,,,,,,5,,67,0
16409,note_on,,89,0,6,,,,,,,,,,,,,,,,1,,67,0
16409,note_on,,89,0,15,,,,,,,,,,,,,,,,11,,67,0
16409,note_on,,89,0,11,,,,,,,,,,,,,,,,6,,67,0
16410,note_on,,1,0,15,,,,,,,,,,,,,,,,11,,65,72
16410,note_on,,1,0,10,,,,,,,,,,,,,,,,5,,67,72
16410,note_on,,1,0,6,,,,,,,,,,,,,,,,1,,67,72
16410,note_on,,1,0,14,,,,,,,,,,,,,,,,10,,67,72
16410,note_on,,1,0,11,,,,,,,,,,,,,,,,6,,65,72
16439,note_on,,29,0,6,,,,,,,,,,,,,,,,1,,67,0
16439,note_on,,29,0,10,,,,,,,,,,,,,,,,5,,67,0
16439,note_on,,59,0,16,,,,,,,,,,,,,,,,12,,55,0
16439,note_on,,29,0,14,,,,,,,,,,,,,,,,10,,67,0
16439,note_on,,59,0,12,,,,,,,,,,,,,,,,7,,55,0
16439,note_on,,29,0,11,,,,,,,,,,,,,,,,6,,65,0
16439,note_on,,29,0,15,,,,,,,,,,,,,,,,11,,65,0
16440,note_on,,1,0,14,,,,,,,,,,,,,,,,10,,67,72
16440,note_on,,1,0,10,,,,,,,,,,,,,,,,5,,67,72
16440,note_on,,1,0,11,,,,,,,,,,,,,,,,6,,63,72
16440,note_on,,1,0,16,,,,,,,,,,,,,,,,12,,60,72
16440,note_on,,1,0,15,,,,,,,,,,,,,,,,11,,63,72
16440,note_on,,1,0,12,,,,,,,,,,,,,,,,7,,60,72
16440,note_on,,1,0,6,,,,,,,,,,,,,,,,1,,67,72
16499,note_on,,179,0,13,,,,,,,,,,,,,,,,8,,51,0
16499,note_on,,59,0,12,,,,,,,,,,,,,,,,7,,60,0
16499,note_on,,179,0,17,,,,,,,,,,,,,,,,13,,51,0
16499,note_on,,59,0,11,,,,,,,,,,,,,,,,6,,63,0
16499,note_on,,59,0,15,,,,,,,,,,,,,,,,11,,63,0
16499,note_on,,59,0,10,,,,,,,,,,,,,,,,5,,67,0
16499,note_on,,59,0,6,,,,,,,,,,,,,,,,1,,67,0
16499,note_on,,0,0,18,,,,,,,,,,,,,,,,15,,70,0
16499,note_on,,179,0,18,,,,,,,,,,,,,,,,15,,51,0
16499,note_on,,0,0,18,,,,,,,,,,,,,,,,15,,67,0
16499,note_on,,0,0,18,,,,,,,,,,,,,,,,15,,63,0
16499,note_on,,0,0,18,,,,,,,,,,,,,,,,15,,55,0
16499,note_on,,179,0,7,,,,,,,,,,,,,,,,2,,51,0
16499,note_on,,59,0,14,,,,,,,,,,,,,,,,10,,67,0
16499,note_on,,59,0,16,,,,,,,,,,,,,,,,12,,60,0
16500,note_on,,1,0,6,,,,,,,,,,,,,,,,1,,69,72
16500,note_on,,1,0,15,,,,,,,,,,,,,,,,11,,63,72
16500,note_on,,0,0,18,,,,,,,,,,,,,,,,15,,60,72
16500,note_on,,0,0,18,,,,,,,,,,,,,,,,15,,65,72
16500,note_on,,1,0,7,,,,,,,,,,,,,,,,2,,53,72
16500,note_on,,1,0,13,,,,,,,,,,,,,,,,8,,53,72
16500,note_on,,1,0,10,,,,,,,,,,,,,,,,5,,69,72
16500,note_on,,1,0,14,,,,,,,,,,,,,,,,10,,69,72
16500,note_on,,1,0,11,,,,,,,,,,,,,,,,6,,63,72
16500,note_on,,1,0,16,,,,,,,,,,,,,,,,12,,60,72
16500,note_on,,0,0,18,,,,,,,,,,,,,,,,15,,69,72
16500,note_on,,1,0,12,,,,,,,,,,,,,,,,7,,60,72
16500,note_on,,1,0,17,,,,,,,,,,,,,,,,13,,53,72
16500,note_on,,1,0,18,,,,,,,,,,,,,,,,15,,53,72
16500,note_on,,0,0,18,,,,,,,,,,,,,,,,15,,57,72
16559,note_on,,0,0,18,,,,,,,,,,,,,,,,15,,65,0
16559,note_on,,0,0,18,,,,,,,,,,,,,,,,15,,60,0
16559,note_on,,0,0,18,,,,,,,,,,,,,,,,15,,57,0
16559,note_on,,0,0,18,,,,,,,,,,,,,,,,15,,69,0
16559,note_on,,59,0,10,,,,,,,,,,,,,,,,5,,69,0
16559,note_on,,59,0,13,,,,,,,,,,,,,,,,8,,53,0
16559,note_on,,59,0,7,,,,,,,,,,,,,,,,2,,53,0
16559,note_on,,59,0,18,,,,,,,,,,,,,,,,15,,53,0
16559,note_on,,59,0,6,,,,,,,,,,,,,,,,1,,69,0
16559,note_on,,59,0,14,,,,,,,,,,,,,,,,10,,69,0
16559,note_on,,59,0,15,,,,,,,,,,,,,,,,11,,63,0
16559,note_on,,59,0,17,,,,,,,,,,,,,,,,13,,53,0
16559,note_on,,59,0,12,,,,,,,,,,,,,,,,7,,60,0
16559,note_on,,59,0,16,,,,,,,,,,,,,,,,12,,60,0
16559,note_on,,59,0,11,,,,,,,,,,,,,,,,6,,63,0
16560,note_on,,1,0,18,,,,,,,,,,,,,,,,15,,55,72
16560,note_on,,0,0,18,,,,,,,,,,,,,,,,15,,67,72
16560,note_on,,0,0,18,,,,,,,,,,,,,,,,15,,62,72
16560,note_on,,0,0,18,,,,,,,,,,,,,,,,15,,59,72
16560,note_on,,1,0,16,,,,,,,,,,,,,,,,12,,55,72
16560,note_on,,1,0,14,,,,,,,,,,,,,,,,10,,71,72
16560,note_on,,1,0,15,,,,,,,,,,,,,,,,11,,62,72
16560,note_on,,1,0,11,,,,,,,,,,,,,,,,6,,62,72
16560,note_on,,1,0,7,,,,,,,,,,,,,,,,2,,55,72
16560,note_on,,1,0,6,,,,,,,,,,,,,,,,1,,71,72
16560,note_on,,1,0,13,,,,,,,,,,,,,,,,8,,55,72
16560,note_on,,1,0,12,,,,,,,,,,,,,,,,7,,55,72
16560,note_on,,1,0,17,,,,,,,,,,,,,,,,13,,55,72
16560,note_on,,1,0,10,,,,,,,,,,,,,,,,5,,71,72
16679,note_on,,119,0,15,,,,,,,,,,,,,,,,11,,62,0
16679,note_on,,119,0,11,,,,,,,,,,,,,,,,6,,62,0
16679,note_on,,119,0,18,,,,,,,,,,,,,,,,15,,55,0
16679,note_on,,0,0,18,,,,,,,,,,,,,,,,15,,62,0
16679,note_on,,119,0,14,,,,,,,,,,,,,,,,10,,71,0
16679,note_on,,0,0,18,,,,,,,,,,,,,,,,15,,59,0
16679,note_on,,119,0,6,,,,,,,,,,,,,,,,1,,71,0
16679,note_on,,119,0,12,,,,,,,,,,,,,,,,7,,55,0
16679,note_on,,0,0,18,,,,,,,,,,,,,,,,15,,67,0
16679,note_on,,119,0,16,,,,,,,,,,,,,,,,12,,55,0
16679,note_on,,119,0,7,,,,,,,,,,,,,,,,2,,55,0
16679,note_on,,119,0,17,,,,,,,,,,,,,,,,13,,55,0
16679,note_on,,119,0,10,,,,,,,,,,,,,,,,5,,71,0
16679,note_on,,119,0,13,,,,,,,,,,,,,,,,8,,55,0
16680,note_on,,1,0,13,,,,,,,,,,,,,,,,8,,56,72
16680,note_on,,0,0,18,,,,,,,,,,,,,,,,15,,72,72
16680,note_on,,1,0,16,,,,,,,,,,,,,,,,12,,65,72
16680,note_on,,1,0,18,,,,,,,,,,,,,,,,15,,56,72
16680,note_on,,1,0,14,,,,,,,,,,,,,,,,10,,72,72
16680,note_on,,1,0,17,,,,,,,,,,,,,,,,13,,56,72
16680,note_on,,1,0,6,,,,,,,,,,,,,,,,1,,72,72
16680,note_on,,0,0,18,,,,,,,,,,,,,,,,15,,65,72
16680,note_on,,1,0,7,,,,,,,,,,,,,,,,2,,56,72
16680,note_on,,0,0,18,,,,,,,,,,,,,,,,15,,60,72
16680,note_on,,1,0,12,,,,,,,,,,,,,,,,7,,65,72
16680,note_on,,1,0,10,,,,,,,,,,,,,,,,5,,72,72
16680,note_on,,1,0,11,,,,,,,,,,,,,,,,6,,60,72
16680,note_on,,1,0,15,,,,,,,,,,,,,,,,11,,60,72
16799,note_on,,119,0,12,,,,,,,,,,,,,,,,7,,65,0
16799,note_on,,119,0,18,,,,,,,,,,,,,,,,15,,56,0
16799,note_on,,0,0,18,,,,,,,,,,,,,,,,15,,65,0
16799,note_on,,119,0,14,,,,,,,,,,,,,,,,10,,72,0
16799,note_on,,119,0,11,,,,,,,,,,,,,,,,6,,60,0
16799,note_on,,119,0,7,,,,,,,,,,,,,,,,2,,56,0
16799,note_on,,119,0,17,,,,,,,,,,,,,,,,13,,56,0
16799,note_on,,119,0,13,,,,,,,,,,,,,,,,8,,56,0
16799,note_on,,119,0,6,,,,,,,,,,,,,,,,1,,72,0
16799,note_on,,119,0,10,,,,,,,,,,,,,,,,5,,72,0
16799,note_on,,119,0,15,,,,,,,,,,,,,,,,11,,60,0
16799,note_on,,119,0,16,,,,,,,,,,,,,,,,12,,65,0
16800,note_on,,1,0,13,,,,,,,,,,,,,,,,8,,55,72
16800,note_on,,1,0,10,,,,,,,,,,,,,,,,5,,72,72
16800,note_on,,1,0,6,,,,,,,,,,,,,,,,1,,72,72
16800,note_on,,1,0,14,,,,,,,,,,,,,,,,10,,72,72
16800,note_on,,1,0,12,,,,,,,,,,,,,,,,7,,63,72
16800,note_on,,0,0,18,,,,,,,,,,,,,,,,15,,67,72
16800,note_on,,1,0,15,,,,,,,,,,,,,,,,11,,67,72
16800,note_on,,1,0,17,,,,,,,,,,,,,,,,13,,55,72
16800,note_on,,0,0,18,,,,,,,,,,,,,,,,15,,63,72
16800,note_on,,1,0,11,,,,,,,,,,,,,,,,6,,67,72
16800,note_on,,1,0,16,,,,,,,,,,,,,,,,12,,63,72
16800,note_on,,1,0,7,,,,,,,,,,,,,,,,2,,55,72
16800,note_on,,1,0,18,,,,,,,,,,,,,,,,15,,55,72
16919,note_on,,119,0,10,,,,,,,,,,,,,,,,5,,72,0
16919,note_on,,119,0,14,,,,,,,,,,,,,,,,10,,72,0
16919,note_on,,119,0,16,,,,,,,,,,,,,,,,12,,63,0
16919,note_on,,119,0,7,,,,,,,,,,,,,,,,2,,55,0
16919,note_on,,119,0,12,,,,,,,,,,,,,,,,7,,63,0
16919,note_on,,0,0,18,,,,,,,,,,,,,,,,15,,67,0
16919,note_on,,0,0,18,,,,,,,,,,,,,,,,15,,55,0
16919,note_on,,0,0,18,,,,,,,,,,,,,,,,15,,60,0
16919,note_on,,119,0,18,,,,,,,,,,,,,,,,15,,72,0
16919,note_on,,119,0,6,,,,,,,,,,,,,,,,1,,72,0
16919,note_on,,119,0,17,,,,,,,,,,,,,,,,13,,55,0
16919,note_on,,0,0,18,,,,,,,,,,,,,,,,15,,63,0
16920,note_on,,1,0,16,,,,,,,,,,,,,,,,12,,62,72
16920,note_on,,1,0,7,,,,,,,,,,,,,,,,2,,43,72
16920,note_on,,1,0,10,,,,,,,,,,,,,,,,5,,71,72
16920,note_on,,1,0,14,,,,,,,,,,,,,,,,10,,71,72
16920,note_on,,1,0,6,,,,,,,,,,,,,,,,1,,71,72
16920,note_on,,1,0,17,,,,,,,,,,,,,,,,13,,43,72
16920,note_on,,1,0,12,,,,,,,,,,,,,,,,7,,62,72
16920,note_on,,1,0,18,,,,,,,,,,,,,,,,15,,43,72
16920,note_on,,0,0,18,,,,,,,,,,,,,,,,15,,71,72
16920,note_on,,0,0,18,,,,,,,,,,,,,,,,15,,67,72
16920,note_on,,0,0,18,,,,,,,,,,,,,,,,15,,55,72
16920,note_on,,0,0,18,,,,,,,,,,,,,,,,15,,62,72
16979,note_on,,59,0,12,,,,,,,,,,,,,,,,7,,62,0
16979,note_on,,59,0,16,,,,,,,,,,,,,,,,12,,62,0
16979,note_on,,179,0,11,,,,,,,,,,,,,,,,6,,67,0
16979,note_on,,179,0,13,,,,,,,,,,,,,,,,8,,55,0
16979,note_on,,179,0,15,,,,,,,,,,,,,,,,11,,67,0
16980,note_on,,1,0,13,,,,,,,,,,,,,,,,8,,55,72
16980,note_on,,1,0,12,,,,,,,,,,,,,,,,7,,55,72
16980,note_on,,1,0,11,,,,,,,,,,,,,,,,6,,65,72
16980,note_on,,1,0,15,,,,,,,,,,,,,,,,11,,65,72
16980,note_on,,1,0,16,,,,,,,,,,,,,,,,12,,55,72
17039,note_on,,59,0,15,,,,,,,,,,,,,,,,11,,65,0
17039,note_on,,119,0,10,,,,,,,,,,,,,,,,5,,71,0
17039,note_on,,59,0,12,,,,,,,,,,,,,,,,7,,55,0
17039,note_on,,119,0,14,,,,,,,,,,,,,,,,10,,71,0
17039,note_on,,119,0,7,,,,,,,,,,,,,,,,2,,43,0
17039,note_on,,119,0,17,,,,,,,,,,,,,,,,13,,43,0
17039,note_on,,119,0,18,,,,,,,,,,,,,,,,15,,43,0
17039,note_on,,59,0,11,,,,,,,,,,,,,,,,6,,65,0
17039,note_on,,119,0,6,,,,,,,,,,,,,,,,1,,71,0
17039,note_on,,59,0,16,,,,,,,,,,,,,,,,12,,55,0
17039,note_on,,0,0,18,,,,,,,,,,,,,,,,15,,55,0
17039,note_on,,0,0,18,,,,,,,,,,,,,,,,15,,62,0
17039,note_on,,0,0,18,,,,,,,,,,,,,,,,15,,67,0
17039,note_on,,0,0,18,,,,,,,,,,,,,,,,15,,71,0
17039,note_on,,59,0,13,,,,,,,,,,,,,,,,8,,55,0
17040,note_on,,1,0,7,,,,,,,,,,,,,,,,2,,48,72
17040,note_on,,1,0,12,,,,,,,,,,,,,,,,7,,55,72
17040,note_on,,1,0,16,,,,,,,,,,,,,,,,12,,55,72
17040,note_on,,0,0,18,,,,,,,,,,,,,,,,15,,55,72
17040,note_on,,1,0,17,,,,,,,,,,,,,,,,13,,48,72
17040,note_on,,1,0,14,,,,,,,,,,,,,,,,10,,72,72
17040,note_on,,1,0,6,,,,,,,,,,,,,,,,1,,72,72
17040,note_on,,1,0,18,,,,,,,,,,,,,,,,15,,48,72
17040,note_on,,0,0,18,,,,,,,,,,,,,,,,15,,72,72
17040,note_on,,1,0,11,,,,,,,,,,,,,,,,6,,63,72
17040,note_on,,0,0,18,,,,,,,,,,,,,,,,15,,67,72
17040,note_on,,1,0,13,,,,,,,,,,,,,,,,8,,48,72
17040,note_on,,0,0,18,,,,,,,,,,,,,,,,15,,63,72
17040,note_on,,1,0,15,,,,,,,,,,,,,,,,11,,63,72
17040,note_on,,1,0,10,,,,,,,,,,,,,,,,5,,72,72
17099,note_on,,59,0,18,,,,,,,,,,,,,,,,15,,48,0
17099,note_on,,0,0,18,,,,,,,,,,,,,,,,15,,67,0
17099,note_on,,59,0,17,,,,,,,,,,,,,,,,13,,48,0
17099,note_on,,0,0,18,,,,,,,,,,,,,,,,15,,55,0
17099,note_on,,59,0,7,,,,,,,,,,,,,,,,2,,48,0
17099,note_on,,0,0,18,,,,,,,,,,,,,,,,15,,63,0
17100,note_on,,1,0,17,,,,,,,,,,,,,,,,13,,50,72
17100,note_on,,0,0,18,,,,,,,,,,,,,,,,15,,65,72
17100,note_on,,1,0,18,,,,,,,,,,,,,,,,15,,50,72
17100,note_on,,1,0,7,,,,,,,,,,,,,,,,2,,50,72
17159,note_on,,59,0,17,,,,,,,,,,,,,,,,13,,50,0
17159,note_on,,119,0,15,,,,,,,,,,,,,,,,11,,63,0
17159,note_on,,119,0,14,,,,,,,,,,,,,,,,10,,72,0
17159,note_on,,119,0,13,,,,,,,,,,,,,,,,8,,48,0
17159,note_on,,119,0,16,,,,,,,,,,,,,,,,12,,55,0
17159,note_on,,119,0,12,,,,,,,,,,,,,,,,7,,55,0
17159,note_on,,59,0,7,,,,,,,,,,,,,,,,2,,50,0
17159,note_on,,0,0,18,,,,,,,,,,,,,,,,15,,65,0
17159,note_on,,59,0,18,,,,,,,,,,,,,,,,15,,50,0
17159,note_on,,119,0,11,,,,,,,,,,,,,,,,6,,63,0
17159,note_on,,119,0,6,,,,,,,,,,,,,,,,1,,72,0
17159,note_on,,119,0,10,,,,,,,,,,,,,,,,5,,72,0
17160,note_on,,0,0,18,,,,,,,,,,,,,,,,15,,67,72
17160,note_on,,1,0,18,,,,,,,,,,,,,,,,15,,51,72
17160,note_on,,1,0,17,,,,,,,,,,,,,,,,13,,51,72
17160,note_on,,1,0,7,,,,,,,,,,,,,,,,2,,51,72
17219,note_on,,59,0,17,,,,,,,,,,,,,,,,13,,51,0
17219,note_on,,0,0,18,,,,,,,,,,,,,,,,15,,67,0
17219,note_on,,59,0,7,,,,,,,,,,,,,,,,2,,51,0
17219,note_on,,0,0,18,,,,,,,,,,,,,,,,15,,51,0
17219,note_on,,59,0,18,,,,,,,,,,,,,,,,15,,72,0
17220,note_on,,0,0,18,,,,,,,,,,,,,,,,15,,63,72
17220,note_on,,1,0,7,,,,,,,,,,,,,,,,2,,48,72
17220,note_on,,1,0,18,,,,,,,,,,,,,,,,15,,48,72
17220,note_on,,61,0,11,,,,,,,,,,,,,,,,6,,63,72
17220,note_on,,61,0,15,,,,,,,,,,,,,,,,11,,63,72
17220,note_on,,1,0,17,,,,,,,,,,,,,,,,13,,48,72
17279,note_on,,0,0,18,,,,,,,,,,,,,,,,15,,63,0
17279,note_on,,59,0,17,,,,,,,,,,,,,,,,13,,48,0
17279,note_on,,59,0,11,,,,,,,,,,,,,,,,6,,63,0
17279,note_on,,59,0,15,,,,,,,,,,,,,,,,11,,63,0
17279,note_on,,59,0,7,,,,,,,,,,,,,,,,2,,48,0
17279,note_on,,59,0,18,,,,,,,,,,,,,,,,15,,48,0
17280,note_on,,1,0,7,,,,,,,,,,,,,,,,2,,56,72
17280,note_on,,0,0,18,,,,,,,,,,,,,,,,15,,65,72
17280,note_on,,0,0,18,,,,,,,,,,,,,,,,15,,63,72
17280,note_on,,0,0,18,,,,,,,,,,,,,,,,15,,60,72
17280,note_on,,1,0,11,,,,,,,,,,,,,,,,6,,65,72
17280,note_on,,1,0,15,,,,,,,,,,,,,,,,11,,65,72
17280,note_on,,1,0,17,,,,,,,,,,,,,,,,13,,56,72
17280,note_on,,1,0,18,,,,,,,,,,,,,,,,15,,56,72
17339,note_on,,59,0,18,,,,,,,,,,,,,,,,15,,56,0
17339,note_on,,59,0,17,,,,,,,,,,,,,,,,13,,56,0
17339,note_on,,59,0,7,,,,,,,,,,,,,,,,2,,56,0
17340,note_on,,1,0,7,,,,,,,,,,,,,,,,2,,53,72
17340,note_on,,1,0,17,,,,,,,,,,,,,,,,13,,53,72
17340,note_on,,1,0,18,,,,,,,,,,,,,,,,15,,53,72
17399,note_on,,59,0,7,,,,,,,,,,,,,,,,2,,53,0
17399,note_on,,59,0,17,,,,,,,,,,,,,,,,13,,53,0
17399,note_on,,119,0,15,,,,,,,,,,,,,,,,11,,65,0
17399,note_on,,119,0,11,,,,,,,,,,,,,,,,6,,65,0
17399,note_on,,59,0,18,,,,,,,,,,,,,,,,15,,63,0
17399,note_on,,0,0,18,,,,,,,,,,,,,,,,15,,60,0
17399,note_on,,0,0,18,,,,,,,,,,,,,,,,15,,53,0
17400,note_on,,0,0,18,,,,,,,,,,,,,,,,15,,62,72
17400,note_on,,1,0,17,,,,,,,,,,,,,,,,13,,58,72
17400,note_on,,1,0,7,,,,,,,,,,,,,,,,2,,58,72
17400,note_on,,1,0,18,,,,,,,,,,,,,,,,15,,58,72
17459,note_on,,59,0,18,,,,,,,,,,,,,,,,15,,65,0
17459,note_on,,59,0,17,,,,,,,,,,,,,,,,13,,58,0
17459,note_on,,0,0,18,,,,,,,,,,,,,,,,15,,58,0
17459,note_on,,0,0,18,,,,,,,,,,,,,,,,15,,62,0
17459,note_on,,59,0,7,,,,,,,,,,,,,,,,2,,58,0
17460,note_on,,0,0,18,,,,,,,,,,,,,,,,15,,65,72
17460,note_on,,0,0,18,,,,,,,,,,,,,,,,15,,70,72
17460,note_on,,0,0,18,,,,,,,,,,,,,,,,15,,62,72
17460,note_on,,1,0,18,,,,,,,,,,,,,,,,15,,46,72
17460,note_on,,1,0,7,,,,,,,,,,,,,,,,2,,46,72
17460,note_on,,61,0,11,,,,,,,,,,,,,,,,6,,65,72
17460,note_on,,61,0,15,,,,,,,,,,,,,,,,11,,65,72
17460,note_on,,1,0,17,,,,,,,,,,,,,,,,13,,46,72
17519,note_on,,59,0,15,,,,,,,,,,,,,,,,11,,65,0
17519,note_on,,59,0,17,,,,,,,,,,,,,,,,13,,46,0
17519,note_on,,59,0,7,,,,,,,,,,,,,,,,2,,46,0
17519,note_on,,59,0,18,,,,,,,,,,,,,,,,15,,46,0
17519,note_on,,0,0,18,,,,,,,,,,,,,,,,15,,62,0
17519,note_on,,0,0,18,,,,,,,,,,,,,,,,15,,70,0
17519,note_on,,0,0,18,,,,,,,,,,,,,,,,15,,65,0
17519,note_on,,59,0,11,,,,,,,,,,,,,,,,6,,65,0
17520,note_on,,1,0,17,,,,,,,,,,,,,,,,13,,51,72
17520,note_on,,1,0,18,,,,,,,,,,,,,,,,15,,51,72
17520,note_on,,0,0,18,,,,,,,,,,,,,,,,15,,67,72
17520,note_on,,0,0,18,,,,,,,,,,,,,,,,15,,63,72
17520,note_on,,1,0,15,,,,,,,,,,,,,,,,11,,67,72
17520,note_on,,1,0,11,,,,,,,,,,,,,,,,6,,67,72
17520,note_on,,1,0,7,,,,,,,,,,,,,,,,2,,51,72
17579,note_on,,59,0,18,,,,,,,,,,,,,,,,15,,51,0
17579,note_on,,59,0,17,,,,,,,,,,,,,,,,13,,51,0
17579,note_on,,59,0,7,,,,,,,,,,,,,,,,2,,51,0
17580,note_on,,1,0,18,,,,,,,,,,,,,,,,15,,48,72
17580,note_on,,1,0,17,,,,,,,,,,,,,,,,13,,48,72
17580,note_on,,1,0,7,,,,,,,,,,,,,,,,2,,48,72
17639,note_on,,119,0,15,,,,,,,,,,,,,,,,11,,67,0
17639,note_on,,0,0,18,,,,,,,,,,,,,,,,15,,48,0
17639,note_on,,0,0,18,,,,,,,,,,,,,,,,15,,63,0
17639,note_on,,59,0,18,,,,,,,,,,,,,,,,15,,67,0
17639,note_on,,119,0,11,,,,,,,,,,,,,,,,6,,67,0
17639,note_on,,59,0,7,,,,,,,,,,,,,,,,2,,48,0
17639,note_on,,59,0,17,,,,,,,,,,,,,,,,13,,48,0
17640,note_on,,1,0,17,,,,,,,,,,,,,,,,13,,53,72
17640,note_on,,1,0,11,,,,,,,,,,,,,,,,6,,68,72
17640,note_on,,1,0,7,,,,,,,,,,,,,,,,2,,53,72
17640,note_on,,0,0,18,,,,,,,,,,,,,,,,15,,56,72
17640,note_on,,0,0,18,,,,,,,,,,,,,,,,15,,60,72
17640,note_on,,0,0,18,,,,,,,,,,,,,,,,15,,65,72
17640,note_on,,1,0,18,,,,,,,,,,,,,,,,15,,53,72
17640,note_on,,1,0,15,,,,,,,,,,,,,,,,11,,68,72
17699,note_on,,59,0,18,,,,,,,,,,,,,,,,15,,53,0
17699,note_on,,59,0,7,,,,,,,,,,,,,,,,2,,53,0
17699,note_on,,59,0,17,,,,,,,,,,,,,,,,13,,53,0
17700,note_on,,1,0,18,,,,,,,,,,,,,,,,15,,51,72
17700,note_on,,1,0,17,,,,,,,,,,,,,,,,13,,51,72
17700,note_on,,1,0,7,,,,,,,,,,,,,,,,2,,51,72
17759,note_on,,59,0,17,,,,,,,,,,,,,,,,13,,51,0
17759,note_on,,59,0,7,,,,,,,,,,,,,,,,2,,51,0
17759,note_on,,59,0,18,,,,,,,,,,,,,,,,15,,60,0
17759,note_on,,119,0,11,,,,,,,,,,,,,,,,6,,68,0
17759,note_on,,119,0,15,,,,,,,,,,,,,,,,11,,68,0
17759,note_on,,0,0,18,,,,,,,,,,,,,,,,15,,51,0
17760,note_on,,0,0,18,,,,,,,,,,,,,,,,15,,58,72
17760,note_on,,1,0,18,,,,,,,,,,,,,,,,15,,50,72
17760,note_on,,1,0,7,,,,,,,,,,,,,,,,2,,50,72
17760,note_on,,1,0,17,,,,,,,,,,,,,,,,13,,50,72
17819,note_on,,59,0,7,,,,,,,,,,,,,,,,2,,50,0
17819,note_on,,0,0,18,,,,,,,,,,,,,,,,15,,58,0
17819,note_on,,59,0,17,,,,,,,,,,,,,,,,13,,50,0
17819,note_on,,59,0,18,,,,,,,,,,,,,,,,15,,65,0
17819,note_on,,0,0,18,,,,,,,,,,,,,,,,15,,50,0
17819,note_on,,0,0,18,,,,,,,,,,,,,,,,15,,56,0
17820,note_on,,61,0,15,,,,,,,,,,,,,,,,11,,67,72
17820,note_on,,1,0,17,,,,,,,,,,,,,,,,13,,51,72
17820,note_on,,1,0,7,,,,,,,,,,,,,,,,2,,51,72
17820,note_on,,61,0,11,,,,,,,,,,,,,,,,6,,67,72
17820,note_on,,1,0,18,,,,,,,,,,,,,,,,15,,51,72
17820,note_on,,0,0,18,,,,,,,,,,,,,,,,15,,63,72
17820,note_on,,0,0,18,,,,,,,,,,,,,,,,15,,58,72
17820,note_on,,0,0,18,,,,,,,,,,,,,,,,15,,55,72
17879,note_on,,59,0,11,,,,,,,,,,,,,,,,6,,67,0
17879,note_on,,59,0,15,,,,,,,,,,,,,,,,11,,67,0
17879,note_on,,0,0,18,,,,,,,,,,,,,,,,15,,55,0
17879,note_on,,0,0,18,,,,,,,,,,,,,,,,15,,58,0
17879,note_on,,59,0,18,,,,,,,,,,,,,,,,15,,51,0
17879,note_on,,59,0,7,,,,,,,,,,,,,,,,2,,51,0
17879,note_on,,59,0,17,,,,,,,,,,,,,,,,13,,51,0
17880,note_on,,1,0,15,,,,,,,,,,,,,,,,11,,65,72
17880,note_on,,1,0,17,,,,,,,,,,,,,,,,13,,44,72
17880,note_on,,0,0,18,,,,,,,,,,,,,,,,15,,60,72
17880,note_on,,1,0,18,,,,,,,,,,,,,,,,15,,44,72
17880,note_on,,1,0,7,,,,,,,,,,,,,,,,2,,44,72
17880,note_on,,1,0,11,,,,,,,,,,,,,,,,6,,65,72
17939,note_on,,59,0,7,,,,,,,,,,,,,,,,2,,44,0
17939,note_on,,59,0,15,,,,,,,,,,,,,,,,11,,65,0
17939,note_on,,59,0,11,,,,,,,,,,,,,,,,6,,65,0
17939,note_on,,0,0,18,,,,,,,,,,,,,,,,15,,60,0
17939,note_on,,59,0,18,,,,,,,,,,,,,,,,15,,44,0
17939,note_on,,59,0,17,,,,,,,,,,,,,,,,13,,44,0
17940,note_on,,1,0,7,,,,,,,,,,,,,,,,2,,48,72
17940,note_on,,1,0,17,,,,,,,,,,,,,,,,13,,48,72
17940,note_on,,1,0,18,,,,,,,,,,,,,,,,15,,48,72
17940,note_on,,1,0,11,,,,,,,,,,,,,,,,6,,63,72
17940,note_on,,0,0,18,,,,,,,,,,,,,,,,15,,56,72
17940,note_on,,1,0,15,,,,,,,,,,,,,,,,11,,63,72
17999,note_on,,0,0,18,,,,,,,,,,,,,,,,15,,48,0
17999,note_on,,59,0,15,,,,,,,,,,,,,,,,11,,63,0
17999,note_on,,59,0,11,,,,,,,,,,,,,,,,6,,63,0
17999,note_on,,59,0,17,,,,,,,,,,,,,,,,13,,48,0
17999,note_on,,59,0,18,,,,,,,,,,,,,,,,15,,63,0
17999,note_on,,0,0,18,,,,,,,,,,,,,,,,15,,56,0
17999,note_on,,59,0,7,,,,,,,,,,,,,,,,2,,48,0
18000,note_on,,1,0,18,,,,,,,,,,,,,,,,15,,46,72
18000,note_on,,0,0,18,,,,,,,,,,,,,,,,15,,62,72
18000,note_on,,0,0,18,,,,,,,,,,,,,,,,15,,53,72
18000,note_on,,1,0,17,,,,,,,,,,,,,,,,13,,46,72
18000,note_on,,1,0,11,,,,,,,,,,,,,,,,6,,70,72
18000,note_on,,1,0,7,,,,,,,,,,,,,,,,2,,46,72
18000,note_on,,1,0,15,,,,,,,,,,,,,,,,11,,70,72
18059,note_on,,59,0,15,,,,,,,,,,,,,,,,11,,70,0
18059,note_on,,59,0,17,,,,,,,,,,,,,,,,13,,46,0
18059,note_on,,59,0,18,,,,,,,,,,,,,,,,15,,46,0
18059,note_on,,59,0,7,,,,,,,,,,,,,,,,2,,46,0
18060,note_on,,1,0,17,,,,,,,,,,,,,,,,13,,50,72
18060,note_on,,1,0,7,,,,,,,,,,,,,,,,2,,50,72
18060,note_on,,1,0,18,,,,,,,,,,,,,,,,15,,50,72
18060,note_on,,1,0,15,,,,,,,,,,,,,,,,11,,65,72
18119,note_on,,0,0,18,,,,,,,,,,,,,,,,15,,53,0
18119,note_on,,0,0,18,,,,,,,,,,,,,,,,15,,50,0
18119,note_on,,59,0,17,,,,,,,,,,,,,,,,13,,50,0
18119,note_on,,59,0,18,,,,,,,,,,,,,,,,15,,62,0
18119,note_on,,59,0,15,,,,,,,,,,,,,,,,11,,65,0
18119,note_on,,59,0,7,,,,,,,,,,,,,,,,2,,50,0
18120,note_on,,1,0,7,,,,,,,,,,,,,,,,2,,55,72
18120,note_on,,0,0,18,,,,,,,,,,,,,,,,15,,58,72
18120,note_on,,1,0,15,,,,,,,,,,,,,,,,11,,70,72
18120,note_on,,1,0,18,,,,,,,,,,,,,,,,15,,55,72
18120,note_on,,0,0,18,,,,,,,,,,,,,,,,15,,62,72
18120,note_on,,1,0,17,,,,,,,,,,,,,,,,13,,55,72
18179,note_on,,59,0,7,,,,,,,,,,,,,,,,2,,55,0
18179,note_on,,59,0,17,,,,,,,,,,,,,,,,13,,55,0
18179,note_on,,59,0,18,,,,,,,,,,,,,,,,15,,55,0
18180,note_on,,1,0,7,,,,,,,,,,,,,,,,2,,50,72
18180,note_on,,1021,0,12,,,,,,,,,,,,,,,,7,,58,72
18180,note_on,,1,0,17,,,,,,,,,,,,,,,,13,,50,72
18180,note_on,,1021,0,16,,,,,,,,,,,,,,,,12,,58,72
18180,note_on,,1,0,18,,,,,,,,,,,,,,,,15,,50,72
18239,note_on,,59,0,12,,,,,,,,,,,,,,,,7,,58,0
18239,note_on,,59,0,16,,,,,,,,,,,,,,,,12,,58,0
18239,note_on,,59,0,18,,,,,,,,,,,,,,,,15,,62,0
18239,note_on,,0,0,18,,,,,,,,,,,,,,,,15,,50,0
18239,note_on,,59,0,17,,,,,,,,,,,,,,,,13,,50,0
18239,note_on,,59,0,7,,,,,,,,,,,,,,,,2,,50,0
18239,note_on,,0,0,18,,,,,,,,,,,,,,,,15,,58,0
18240,note_on,,1,0,18,,,,,,,,,,,,,,,,15,,51,72
18240,note_on,,0,0,18,,,,,,,,,,,,,,,,15,,67,72
18240,note_on,,0,0,18,,,,,,,,,,,,,,,,15,,60,72
18240,note_on,,0,0,18,,,,,,,,,,,,,,,,15,,58,72
18240,note_on,,1,0,16,,,,,,,,,,,,,,,,12,,60,72
18240,note_on,,1,0,17,,,,,,,,,,,,,,,,13,,51,72
18240,note_on,,1,0,7,,,,,,,,,,,,,,,,2,,51,72
18240,note_on,,1,0,12,,,,,,,,,,,,,,,,7,,60,72
18299,note_on,,299,0,11,,,,,,,,,,,,,,,,6,,70,0
18299,note_on,,59,0,17,,,,,,,,,,,,,,,,13,,51,0
18299,note_on,,59,0,7,,,,,,,,,,,,,,,,2,,51,0
18299,note_on,,179,0,15,,,,,,,,,,,,,,,,11,,70,0
18299,note_on,,59,0,18,,,,,,,,,,,,,,,,15,,51,0
18300,note_on,,1,0,7,,,,,,,,,,,,,,,,2,,48,72
18300,note_on,,1,0,11,,,,,,,,,,,,,,,,6,,70,72
18300,note_on,,1,0,18,,,,,,,,,,,,,,,,15,,48,72
18300,note_on,,1,0,15,,,,,,,,,,,,,,,,11,,70,72
18300,note_on,,1,0,17,,,,,,,,,,,,,,,,13,,48,72
18359,note_on,,0,0,18,,,,,,,,,,,,,,,,15,,60,0
18359,note_on,,0,0,18,,,,,,,,,,,,,,,,15,,48,0
18359,note_on,,0,0,18,,,,,,,,,,,,,,,,15,,58,0
18359,note_on,,59,0,18,,,,,,,,,,,,,,,,15,,67,0
18359,note_on,,59,0,15,,,,,,,,,,,,,,,,11,,70,0
18359,note_on,,119,0,16,,,,,,,,,,,,,,,,12,,60,0
18359,note_on,,59,0,17,,,,,,,,,,,,,,,,13,,48,0
18359,note_on,,119,0,12,,,,,,,,,,,,,,,,7,,60,0
18359,note_on,,59,0,11,,,,,,,,,,,,,,,,6,,70,0
18359,note_on,,59,0,7,,,,,,,,,,,,,,,,2,,48,0
18360,note_on,,1,0,17,,,,,,,,,,,,,,,,13,,53,72
18360,note_on,,1,0,15,,,,,,,,,,,,,,,,11,,69,72
18360,note_on,,1,0,18,,,,,,,,,,,,,,,,15,,53,72
18360,note_on,,0,0,18,,,,,,,,,,,,,,,,15,,57,72
18360,note_on,,0,0,18,,,,,,,,,,,,,,,,15,,65,72
18360,note_on,,0,0,18,,,,,,,,,,,,,,,,15,,60,72
18360,note_on,,1,0,11,,,,,,,,,,,,,,,,6,,69,72
18360,note_on,,1,0,7,,,,,,,,,,,,,,,,2,,53,72
18419,note_on,,59,0,17,,,,,,,,,,,,,,,,13,,53,0
18419,note_on,,59,0,7,,,,,,,,,,,,,,,,2,,53,0
18419,note_on,,59,0,18,,,,,,,,,,,,,,,,15,,53,0
18420,note_on,,1,0,17,,,,,,,,,,,,,,,,13,,41,72
18420,note_on,,61,0,16,,,,,,,,,,,,,,,,12,,60,72
18420,note_on,,1,0,7,,,,,,,,,,,,,,,,2,,41,72
18420,note_on,,61,0,12,,,,,,,,,,,,,,,,7,,60,72
18420,note_on,,1,0,18,,,,,,,,,,,,,,,,15,,41,72
18449,note_on,,89,0,11,,,,,,,,,,,,,,,,6,,69,0
18449,note_on,,89,0,15,,,,,,,,,,,,,,,,11,,69,0
18450,note_on,,1,0,11,,,,,,,,,,,,,,,,6,,69,72
18450,note_on,,1,0,15,,,,,,,,,,,,,,,,11,,69,72
18479,note_on,,29,0,15,,,,,,,,,,,,,,,,11,,69,0
18479,note_on,,59,0,12,,,,,,,,,,,,,,,,7,,60,0
18479,note_on,,59,0,16,,,,,,,,,,,,,,,,12,,60,0
18479,note_on,,0,0,18,,,,,,,,,,,,,,,,15,,57,0
18479,note_on,,0,0,18,,,,,,,,,,,,,,,,15,,41,0
18479,note_on,,59,0,7,,,,,,,,,,,,,,,,2,,41,0
18479,note_on,,29,0,11,,,,,,,,,,,,,,,,6,,69,0
18479,note_on,,59,0,17,,,,,,,,,,,,,,,,13,,41,0
18479,note_on,,59,0,18,,,,,,,,,,,,,,,,15,,60,0
18480,note_on,,1,0,15,,,,,,,,,,,,,,,,11,,70,72
18480,note_on,,1,0,12,,,,,,,,,,,,,,,,7,,62,72
18480,note_on,,1,0,17,,,,,,,,,,,,,,,,13,,46,72
18480,note_on,,0,0,18,,,,,,,,,,,,,,,,15,,62,72
18480,note_on,,1,0,18,,,,,,,,,,,,,,,,15,,46,72
18480,note_on,,0,0,18,,,,,,,,,,,,,,,,15,,58,72
18480,note_on,,1,0,7,,,,,,,,,,,,,,,,2,,46,72
18480,note_on,,1,0,16,,,,,,,,,,,,,,,,12,,62,72
18480,note_on,,1,0,11,,,,,,,,,,,,,,,,6,,70,72
18539,note_on,,59,0,7,,,,,,,,,,,,,,,,2,,46,0
18539,note_on,,59,0,17,,,,,,,,,,,,,,,,13,,46,0
18539,note_on,,59,0,18,,,,,,,,,,,,,,,,15,,46,0
18540,note_on,,1,0,17,,,,,,,,,,,,,,,,13,,58,72
18540,note_on,,1,0,7,,,,,,,,,,,,,,,,2,,58,72
18599,note_on,,0,0,18,,,,,,,,,,,,,,,,15,,62,0
18599,note_on,,0,0,18,,,,,,,,,,,,,,,,15,,58,0
18599,note_on,,59,0,7,,,,,,,,,,,,,,,,2,,58,0
18599,note_on,,119,0,16,,,,,,,,,,,,,,,,12,,62,0
18599,note_on,,119,0,11,,,,,,,,,,,,,,,,6,,70,0
18599,note_on,,59,0,17,,,,,,,,,,,,,,,,13,,58,0
18599,note_on,,119,0,12,,,,,,,,,,,,,,,,7,,62,0
18599,note_on,,119,0,15,,,,,,,,,,,,,,,,11,,70,0
18599,note_on,,60,0,18,,,,,,,,,,,,,,,,15,,65,0
18600,note_on,,1,0,12,,,,,,,,,,,,,,,,7,,63,72
18600,note_on,,1,0,18,,,,,,,,,,,,,,,,15,,55,72
18600,note_on,,1,0,17,,,,,,,,,,,,,,,,13,,55,72
18600,note_on,,1,0,16,,,,,,,,,,,,,,,,12,,63,72
18600,note_on,,0,0,18,,,,,,,,,,,,,,,,15,,63,72
18600,note_on,,0,0,18,,,,,,,,,,,,,,,,15,,67,72
18600,note_on,,1,0,7,,,,,,,,,,,,,,,,2,,55,72
18659,note_on,,59,0,17,,,,,,,,,,,,,,,,13,,55,0
18659,note_on,,59,0,18,,,,,,,,,,,,,,,,15,,55,0
18659,note_on,,59,0,7,,,,,,,,,,,,,,,,2,,55,0
18660,note_on,,1,0,7,,,,,,,,,,,,,,,,2,,60,72
18660,note_on,,1,0,17,,,,,,,,,,,,,,,,13,,60,72
18660,note_on,,1501,0,6,,,,,,,,,,,,,,,,1,,75,72
18660,note_on,,1,0,18,,,,,,,,,,,,,,,,15,,60,72
18660,note_on,,1501,0,14,,,,,,,,,,,,,,,,10,,75,72
18660,note_on,,1501,0,10,,,,,,,,,,,,,,,,5,,75,72
18719,note_on,,119,0,12,,,,,,,,,,,,,,,,7,,63,0
18719,note_on,,59,0,17,,,,,,,,,,,,,,,,13,,60,0
18719,note_on,,119,0,16,,,,,,,,,,,,,,,,12,,63,0
18719,note_on,,59,0,10,,,,,,,,,,,,,,,,5,,75,0
18719,note_on,,59,0,18,,,,,,,,,,,,,,,,15,,67,0
18719,note_on,,59,0,7,,,,,,,,,,,,,,,,2,,60,0
18719,note_on,,59,0,6,,,,,,,,,,,,,,,,1,,75,0
18719,note_on,,0,0,18,,,,,,,,,,,,,,,,15,,60,0
18719,note_on,,0,0,18,,,,,,,,,,,,,,,,15,,63,0
18719,note_on,,59,0,14,,,,,,,,,,,,,,,,10,,75,0
18720,note_on,,0,0,18,,,,,,,,,,,,,,,,15,,63,72
18720,note_on,,0,0,18,,,,,,,,,,,,,,,,15,,65,72
18720,note_on,,1,0,10,,,,,,,,,,,,,,,,5,,77,72
18720,note_on,,1,0,17,,,,,,,,,,,,,,,,13,,56,72
18720,note_on,,1,0,18,,,,,,,,,,,,,,,,15,,56,72
18720,note_on,,0,0,18,,,,,,,,,,,,,,,,15,,72,72
18720,note_on,,1,0,7,,,,,,,,,,,,,,,,2,,56,72
18720,note_on,,1,0,14,,,,,,,,,,,,,,,,10,,77,72
18720,note_on,,1,0,6,,,,,,,,,,,,,,,,1,,77,72
18780,note_on,,61,0,16,,,,,,,,,,,,,,,,12,,63,72
18780,note_on,,61,0,12,,,,,,,,,,,,,,,,7,,63,72
18839,note_on,,119,0,14,,,,,,,,,,,,,,,,10,,77,0
18839,note_on,,119,0,10,,,,,,,,,,,,,,,,5,,77,0
18839,note_on,,59,0,12,,,,,,,,,,,,,,,,7,,63,0
18839,note_on,,119,0,18,,,,,,,,,,,,,,,,15,,56,0
18839,note_on,,119,0,17,,,,,,,,,,,,,,,,13,,56,0
18839,note_on,,0,0,18,,,,,,,,,,,,,,,,15,,72,0
18839,note_on,,59,0,16,,,,,,,,,,,,,,,,12,,63,0
18839,note_on,,0,0,18,,,,,,,,,,,,,,,,15,,65,0
18839,note_on,,0,0,18,,,,,,,,,,,,,,,,15,,63,0
18839,note_on,,119,0,6,,,,,,,,,,,,,,,,1,,77,0
18839,note_on,,119,0,7,,,,,,,,,,,,,,,,2,,56,0
18840,note_on,,0,0,18,,,,,,,,,,,,,,,,15,,62,72
18840,note_on,,0,0,18,,,,,,,,,,,,,,,,15,,65,72
18840,note_on,,1,0,12,,,,,,,,,,,,,,,,7,,62,72
18840,note_on,,1,0,7,,,,,,,,,,,,,,,,2,,58,72
18840,note_on,,1,0,16,,,,,,,,,,,,,,,,12,,62,72
18840,note_on,,0,0,18,,,,,,,,,,,,,,,,15,,70,72
18840,note_on,,1,0,17,,,,,,,,,,,,,,,,13,,58,72
18840,note_on,,1,0,18,,,,,,,,,,,,,,,,15,,58,72
18899,note_on,,59,0,12,,,,,,,,,,,,,,,,7,,62,0
18899,note_on,,59,0,17,,,,,,,,,,,,,,,,13,,58,0
18899,note_on,,59,0,18,,,,,,,,,,,,,,,,15,,58,0
18899,note_on,,59,0,16,,,,,,,,,,,,,,,,12,,62,0
18899,note_on,,59,0,7,,,,,,,,,,,,,,,,2,,58,0
18900,note_on,,1,0,17,,,,,,,,,,,,,,,,13,,50,72
18900,note_on,,61,0,10,,,,,,,,,,,,,,,,5,,77,72
18900,note_on,,1,0,18,,,,,,,,,,,,,,,,15,,50,72
18900,note_on,,61,0,14,,,,,,,,,,,,,,,,10,,77,72
18900,note_on,,61,0,6,,,,,,,,,,,,,,,,1,,77,72
18900,note_on,,1,0,12,,,,,,,,,,,,,,,,7,,65,72
18900,note_on,,1,0,16,,,,,,,,,,,,,,,,12,,65,72
18900,note_on,,1,0,7,,,,,,,,,,,,,,,,2,,50,72
18959,note_on,,59,0,7,,,,,,,,,,,,,,,,2,,50,0
18959,note_on,,59,0,6,,,,,,,,,,,,,,,,1,,77,0
18959,note_on,,59,0,16,,,,,,,,,,,,,,,,12,,65,0
18959,note_on,,59,0,10,,,,,,,,,,,,,,,,5,,77,0
18959,note_on,,0,0,18,,,,,,,,,,,,,,,,15,,62,0
18959,note_on,,59,0,17,,,,,,,,,,,,,,,,13,,50,0
18959,note_on,,59,0,18,,,,,,,,,,,,,,,,15,,65,0
18959,note_on,,59,0,14,,,,,,,,,,,,,,,,10,,77,0
18959,note_on,,59,0,12,,,,,,,,,,,,,,,,7,,65,0
18959,note_on,,0,0,18,,,,,,,,,,,,,,,,15,,50,0
18960,note_on,,1,0,18,,,,,,,,,,,,,,,,15,,51,72
18960,note_on,,1,0,7,,,,,,,,,,,,,,,,2,,51,72
18960,note_on,,0,0,18,,,,,,,,,,,,,,,,15,,58,72
18960,note_on,,1,0,12,,,,,,,,,,,,,,,,7,,58,72
18960,note_on,,1,0,16,,,,,,,,,,,,,,,,12,,58,72
18960,note_on,,1,0,14,,,,,,,,,,,,,,,,10,,79,72
18960,note_on,,1,0,10,,,,,,,,,,,,,,,,5,,79,72
18960,note_on,,0,0,18,,,,,,,,,,,,,,,,15,,67,72
18960,note_on,,1,0,17,,,,,,,,,,,,,,,,13,,51,72
18960,note_on,,1,0,6,,,,,,,,,,,,,,,,1,,79,72
19019,note_on,,59,0,16,,,,,,,,,,,,,,,,12,,58,0
19019,note_on,,59,0,12,,,,,,,,,,,,,,,,7,,58,0
19020,note_on,,1,0,16,,,,,,,,,,,,,,,,12,,58,72
19020,note_on,,1,0,12,,,,,,,,,,,,,,,,7,,58,72
19079,note_on,,119,0,6,,,,,,,,,,,,,,,,1,,79,0
19079,note_on,,119,0,14,,,,,,,,,,,,,,,,10,,79,0
19079,note_on,,119,0,17,,,,,,,,,,,,,,,,13,,51,0
19079,note_on,,119,0,10,,,,,,,,,,,,,,,,5,,79,0
19079,note_on,,59,0,16,,,,,,,,,,,,,,,,12,,58,0
19079,note_on,,0,0,18,,,,,,,,,,,,,,,,15,,67,0
19079,note_on,,59,0,12,,,,,,,,,,,,,,,,7,,58,0
19079,note_on,,0,0,18,,,,,,,,,,,,,,,,15,,58,0
19079,note_on,,119,0,18,,,,,,,,,,,,,,,,15,,70,0
19079,note_on,,119,0,7,,,,,,,,,,,,,,,,2,,51,0
19079,note_on,,0,0,18,,,,,,,,,,,,,,,,15,,51,0
19080,note_on,,1,0,16,,,,,,,,,,,,,,,,12,,63,72
19080,note_on,,1,0,12,,,,,,,,,,,,,,,,7,,63,72
19080,note_on,,1,0,18,,,,,,,,,,,,,,,,15,,79,72
19080,note_on,,0,0,18,,,,,,,,,,,,,,,,15,,70,72
19080,note_on,,0,0,18,,,,,,,,,,,,,,,,15,,75,72
19140,note_on,,61,0,17,,,,,,,,,,,,,,,,13,,51,72
19140,note_on,,61,0,7,,,,,,,,,,,,,,,,2,,51,72
19140,note_on,,60,0,18,,,,,,,,,,,,,,,,15,,51,72
19140,note_on,,61,0,6,,,,,,,,,,,,,,,,1,,67,72
19140,note_on,,1981,0,13,,,,,,,,,,,,,,,,8,,51,72
19140,note_on,,61,0,14,,,,,,,,,,,,,,,,10,,67,72
19140,note_on,,61,0,10,,,,,,,,,,,,,,,,5,,67,72
19199,note_on,,0,0,18,,,,,,,,,,,,,,,,15,,51,0
19199,note_on,,0,0,18,,,,,,,,,,,,,,,,15,,70,0
19199,note_on,,0,0,18,,,,,,,,,,,,,,,,15,,75,0
19199,note_on,,59,0,18,,,,,,,,,,,,,,,,15,,79,0
19199,note_on,,59,0,6,,,,,,,,,,,,,,,,1,,67,0
19199,note_on,,59,0,10,,,,,,,,,,,,,,,,5,,67,0
19199,note_on,,59,0,14,,,,,,,,,,,,,,,,10,,67,0
19199,note_on,,119,0,16,,,,,,,,,,,,,,,,12,,63,0
19199,note_on,,119,0,12,,,,,,,,,,,,,,,,7,,63,0
19199,note_on,,59,0,7,,,,,,,,,,,,,,,,2,,51,0
19199,note_on,,59,0,13,,,,,,,,,,,,,,,,8,,51,0
19199,note_on,,59,0,17,,,,,,,,,,,,,,,,13,,51,0
19200,note_on,,1,0,14,,,,,,,,,,,,,,,,10,,68,72
19200,note_on,,0,0,18,,,,,,,,,,,,,,,,15,,68,72
19200,note_on,,0,0,18,,,,,,,,,,,,,,,,15,,65,72
19200,note_on,,1,0,10,,,,,,,,,,,,,,,,5,,68,72
19200,note_on,,1,0,7,,,,,,,,,,,,,,,,2,,53,72
19200,note_on,,1,0,13,,,,,,,,,,,,,,,,8,,53,72
19200,note_on,,1,0,18,,,,,,,,,,,,,,,,15,,53,72
19200,note_on,,1,0,6,,,,,,,,,,,,,,,,1,,68,72
19200,note_on,,1,0,17,,,,,,,,,,,,,,,,13,,53,72
19260,note_on,,661,0,15,,,,,,,,,,,,,,,,11,,62,72
19260,note_on,,661,0,11,,,,,,,,,,,,,,,,6,,62,72
19319,note_on,,119,0,7,,,,,,,,,,,,,,,,2,,53,0
19319,note_on,,59,0,15,,,,,,,,,,,,,,,,11,,62,0
19319,note_on,,119,0,17,,,,,,,,,,,,,,,,13,,53,0
19319,note_on,,119,0,18,,,,,,,,,,,,,,,,15,,53,0
19319,note_on,,0,0,18,,,,,,,,,,,,,,,,15,,68,0
19319,note_on,,0,0,18,,,,,,,,,,,,,,,,15,,65,0
19319,note_on,,119,0,6,,,,,,,,,,,,,,,,1,,68,0
19319,note_on,,119,0,10,,,,,,,,,,,,,,,,5,,68,0
19319,note_on,,119,0,13,,,,,,,,,,,,,,,,8,,53,0
19319,note_on,,59,0,11,,,,,,,,,,,,,,,,6,,62,0
19319,note_on,,119,0,14,,,,,,,,,,,,,,,,10,,68,0
19320,note_on,,1,0,18,,,,,,,,,,,,,,,,15,,77,72
19320,note_on,,0,0,18,,,,,,,,,,,,,,,,15,,74,72
19320,note_on,,0,0,18,,,,,,,,,,,,,,,,15,,68,72
19320,note_on,,1,0,15,,,,,,,,,,,,,,,,11,,63,72
19320,note_on,,1,0,11,,,,,,,,,,,,,,,,6,,63,72
19379,note_on,,59,0,11,,,,,,,,,,,,,,,,6,,63,0
19379,note_on,,59,0,15,,,,,,,,,,,,,,,,11,,63,0
19380,note_on,,61,0,7,,,,,,,,,,,,,,,,2,,53,72
19380,note_on,,61,0,6,,,,,,,,,,,,,,,,1,,68,72
19380,note_on,,1,0,11,,,,,,,,,,,,,,,,6,,65,72
19380,note_on,,61,0,17,,,,,,,,,,,,,,,,13,,53,72
19380,note_on,,61,0,10,,,,,,,,,,,,,,,,5,,68,72
19380,note_on,,61,0,13,,,,,,,,,,,,,,,,8,,53,72
19380,note_on,,1,0,15,,,,,,,,,,,,,,,,11,,65,72
19380,note_on,,60,0,18,,,,,,,,,,,,,,,,15,,53,72
19380,note_on,,61,0,14,,,,,,,,,,,,,,,,10,,68,72
19439,note_on,,0,0,18,,,,,,,,,,,,,,,,15,,53,0
19439,note_on,,0,0,18,,,,,,,,,,,,,,,,15,,68,0
19439,note_on,,59,0,18,,,,,,,,,,,,,,,,15,,77,0
19439,note_on,,59,0,14,,,,,,,,,,,,,,,,10,,68,0
19439,note_on,,59,0,11,,,,,,,,,,,,,,,,6,,65,0
19439,note_on,,59,0,10,,,,,,,,,,,,,,,,5,,68,0
19439,note_on,,59,0,15,,,,,,,,,,,,,,,,11,,65,0
19439,note_on,,59,0,6,,,,,,,,,,,,,,,,1,,68,0
19439,note_on,,59,0,7,,,,,,,,,,,,,,,,2,,53,0
19439,note_on,,59,0,13,,,,,,,,,,,,,,,,8,,53,0
19439,note_on,,0,0,18,,,,,,,,,,,,,,,,15,,74,0
19439,note_on,,59,0,17,,,,,,,,,,,,,,,,13,,53,0
19440,note_on,,1,0,14,,,,,,,,,,,,,,,,10,,70,72
19440,note_on,,1,0,7,,,,,,,,,,,,,,,,2,,55,72
19440,note_on,,1,0,6,,,,,,,,,,,,,,,,1,,70,72
19440,note_on,,1,0,11,,,,,,,,,,,,,,,,6,,58,72
19440,note_on,,1,0,13,,,,,,,,,,,,,,,,8,,55,72
19440,note_on,,1,0,17,,,,,,,,,,,,,,,,13,,55,72
19440,note_on,,0,0,18,,,,,,,,,,,,,,,,15,,63,72
19440,note_on,,0,0,18,,,,,,,,,,,,,,,,15,,67,72
19440,note_on,,0,0,18,,,,,,,,,,,,,,,,15,,70,72
19440,note_on,,1,0,18,,,,,,,,,,,,,,,,15,,55,72
19440,note_on,,1,0,10,,,,,,,,,,,,,,,,5,,70,72
19440,note_on,,1,0,15,,,,,,,,,,,,,,,,11,,58,72
19500,note_on,,301,0,16,,,,,,,,,,,,,,,,12,,63,72
19500,note_on,,301,0,12,,,,,,,,,,,,,,,,7,,63,72
19559,note_on,,0,0,18,,,,,,,,,,,,,,,,15,,63,0
19559,note_on,,0,0,18,,,,,,,,,,,,,,,,15,,67,0
19559,note_on,,59,0,12,,,,,,,,,,,,,,,,7,,63,0
19559,note_on,,119,0,6,,,,,,,,,,,,,,,,1,,70,0
19559,note_on,,119,0,17,,,,,,,,,,,,,,,,13,,55,0
19559,note_on,,119,0,11,,,,,,,,,,,,,,,,6,,58,0
19559,note_on,,119,0,7,,,,,,,,,,,,,,,,2,,55,0
19559,note_on,,119,0,10,,,,,,,,,,,,,,,,5,,70,0
19559,note_on,,119,0,13,,,,,,,,,,,,,,,,8,,55,0
19559,note_on,,59,0,16,,,,,,,,,,,,,,,,12,,63,0
19559,note_on,,119,0,18,,,,,,,,,,,,,,,,15,,55,0
19559,note_on,,0,0,18,,,,,,,,,,,,,,,,15,,70,0
19559,note_on,,119,0,15,,,,,,,,,,,,,,,,11,,58,0
19559,note_on,,119,0,14,,,,,,,,,,,,,,,,10,,70,0
19560,note_on,,1,0,18,,,,,,,,,,,,,,,,15,,75,72
19560,note_on,,0,0,18,,,,,,,,,,,,,,,,15,,67,72
19560,note_on,,0,0,18,,,,,,,,,,,,,,,,15,,70,72
19560,note_on,,1,0,12,,,,,,,,,,,,,,,,7,,65,72
19560,note_on,,1,0,16,,,,,,,,,,,,,,,,12,,65,72
19619,note_on,,59,0,12,,,,,,,,,,,,,,,,7,,65,0
19619,note_on,,59,0,16,,,,,,,,,,,,,,,,12,,65,0
19620,note_on,,61,0,17,,,,,,,,,,,,,,,,13,,51,72
19620,note_on,,61,0,13,,,,,,,,,,,,,,,,8,,51,72
19620,note_on,,60,0,18,,,,,,,,,,,,,,,,15,,51,72
19620,note_on,,61,0,7,,,,,,,,,,,,,,,,2,,51,72
19620,note_on,,1,0,16,,,,,,,,,,,,,,,,12,,67,72
19620,note_on,,1,0,12,,,,,,,,,,,,,,,,7,,67,72
19679,note_on,,0,0,18,,,,,,,,,,,,,,,,15,,67,0
19679,note_on,,0,0,18,,,,,,,,,,,,,,,,15,,51,0
19679,note_on,,59,0,13,,,,,,,,,,,,,,,,8,,51,0
19679,note_on,,59,0,16,,,,,,,,,,,,,,,,12,,67,0
19679,note_on,,59,0,12,,,,,,,,,,,,,,,,7,,67,0
19679,note_on,,59,0,18,,,,,,,,,,,,,,,,15,,75,0
19679,note_on,,0,0,18,,,,,,,,,,,,,,,,15,,70,0
19679,note_on,,59,0,7,,,,,,,,,,,,,,,,2,,51,0
19679,note_on,,59,0,17,,,,,,,,,,,,,,,,13,,51,0
19680,note_on,,1,0,18,,,,,,,,,,,,,,,,15,,56,72
19680,note_on,,1,0,16,,,,,,,,,,,,,,,,12,,60,72
19680,note_on,,1,0,17,,,,,,,,,,,,,,,,13,,56,72
19680,note_on,,0,0,18,,,,,,,,,,,,,,,,15,,63,72
19680,note_on,,0,0,18,,,,,,,,,,,,,,,,15,,68,72
19680,note_on,,0,0,18,,,,,,,,,,,,,,,,15,,72,72
19680,note_on,,1,0,13,,,,,,,,,,,,,,,,8,,56,72
19680,note_on,,1,0,12,,,,,,,,,,,,,,,,7,,60,72
19680,note_on,,1,0,7,,,,,,,,,,,,,,,,2,,56,72
19739,note_on,,59,0,7,,,,,,,,,,,,,,,,2,,56,0
19739,note_on,,59,0,13,,,,,,,,,,,,,,,,8,,56,0
19739,note_on,,59,0,18,,,,,,,,,,,,,,,,15,,56,0
19739,note_on,,0,0,18,,,,,,,,,,,,,,,,15,,72,0
19739,note_on,,0,0,18,,,,,,,,,,,,,,,,15,,68,0
19739,note_on,,0,0,18,,,,,,,,,,,,,,,,15,,63,0
19739,note_on,,59,0,17,,,,,,,,,,,,,,,,13,,56,0
19740,note_on,,181,0,11,,,,,,,,,,,,,,,,6,,63,72
19740,note_on,,0,0,18,,,,,,,,,,,,,,,,15,,70,72
19740,note_on,,0,0,18,,,,,,,,,,,,,,,,15,,75,72
19740,note_on,,1,0,18,,,,,,,,,,,,,,,,15,,55,72
19740,note_on,,1,0,13,,,,,,,,,,,,,,,,8,,55,72
19740,note_on,,1,0,17,,,,,,,,,,,,,,,,13,,55,72
19740,note_on,,181,0,14,,,,,,,,,,,,,,,,10,,70,72
19740,note_on,,181,0,6,,,,,,,,,,,,,,,,1,,70,72
19740,note_on,,1,0,7,,,,,,,,,,,,,,,,2,,55,72
19740,note_on,,181,0,10,,,,,,,,,,,,,,,,5,,70,72
19740,note_on,,181,0,15,,,,,,,,,,,,,,,,11,,63,72
19740,note_on,,0,0,18,,,,,,,,,,,,,,,,15,,67,72
19799,note_on,,119,0,16,,,,,,,,,,,,,,,,12,,60,0
19799,note_on,,0,0,18,,,,,,,,,,,,,,,,15,,67,0
19799,note_on,,59,0,6,,,,,,,,,,,,,,,,1,,70,0
19799,note_on,,119,0,12,,,,,,,,,,,,,,,,7,,60,0
19799,note_on,,59,0,15,,,,,,,,,,,,,,,,11,,63,0
19799,note_on,,59,0,17,,,,,,,,,,,,,,,,13,,55,0
19799,note_on,,59,0,13,,,,,,,,,,,,,,,,8,,55,0
19799,note_on,,59,0,14,,,,,,,,,,,,,,,,10,,70,0
19799,note_on,,59,0,10,,,,,,,,,,,,,,,,5,,70,0
19799,note_on,,59,0,11,,,,,,,,,,,,,,,,6,,63,0
19799,note_on,,59,0,7,,,,,,,,,,,,,,,,2,,55,0
19799,note_on,,59,0,18,,,,,,,,,,,,,,,,15,,55,0
19799,note_on,,0,0,18,,,,,,,,,,,,,,,,15,,70,0
19800,note_on,,0,0,18,,,,,,,,,,,,,,,,15,,68,72
19800,note_on,,0,0,18,,,,,,,,,,,,,,,,15,,72,72
19800,note_on,,1,0,18,,,,,,,,,,,,,,,,15,,53,72
19800,note_on,,1,0,17,,,,,,,,,,,,,,,,13,,53,72
19800,note_on,,1,0,6,,,,,,,,,,,,,,,,1,,72,72
19800,note_on,,1,0,15,,,,,,,,,,,,,,,,11,,68,72
19800,note_on,,1,0,14,,,,,,,,,,,,,,,,10,,72,72
19800,note_on,,1,0,13,,,,,,,,,,,,,,,,8,,53,72
19800,note_on,,1,0,10,,,,,,,,,,,,,,,,5,,72,72
19800,note_on,,1,0,11,,,,,,,,,,,,,,,,6,,68,72
19800,note_on,,1,0,7,,,,,,,,,,,,,,,,2,,53,72
19859,note_on,,0,0,18,,,,,,,,,,,,,,,,15,,72,0
19859,note_on,,59,0,6,,,,,,,,,,,,,,,,1,,72,0
19859,note_on,,59,0,7,,,,,,,,,,,,,,,,2,,53,0
19859,note_on,,0,0,18,,,,,,,,,,,,,,,,15,,53,0
19859,note_on,,59,0,17,,,,,,,,,,,,,,,,13,,53,0
19859,note_on,,59,0,10,,,,,,,,,,,,,,,,5,,72,0
19859,note_on,,59,0,14,,,,,,,,,,,,,,,,10,,72,0
19859,note_on,,0,0,18,,,,,,,,,,,,,,,,15,,68,0
19859,note_on,,59,0,18,,,,,,,,,,,,,,,,15,,75,0
19859,note_on,,59,0,13,,,,,,,,,,,,,,,,8,,53,0
19860,note_on,,1,0,10,,,,,,,,,,,,,,,,5,,74,72
19860,note_on,,1,0,18,,,,,,,,,,,,,,,,15,,58,72
19860,note_on,,0,0,18,,,,,,,,,,,,,,,,15,,62,72
19860,note_on,,1,0,6,,,,,,,,,,,,,,,,1,,74,72
19860,note_on,,1,0,17,,,,,,,,,,,,,,,,13,,58,72
19860,note_on,,61,0,16,,,,,,,,,,,,,,,,12,,58,72
19860,note_on,,1,0,13,,,,,,,,,,,,,,,,8,,58,72
19860,note_on,,61,0,12,,,,,,,,,,,,,,,,7,,58,72
19860,note_on,,1,0,14,,,,,,,,,,,,,,,,10,,74,72
19860,note_on,,0,0,18,,,,,,,,,,,,,,,,15,,65,72
19860,note_on,,1,0,7,,,,,,,,,,,,,,,,2,,58,72
19860,note_on,,0,0,18,,,,,,,,,,,,,,,,15,,70,72
19919,note_on,,59,0,6,,,,,,,,,,,,,,,,1,,74,0
19919,note_on,,59,0,10,,,,,,,,,,,,,,,,5,,74,0
19919,note_on,,0,0,18,,,,,,,,,,,,,,,,15,,62,0
19919,note_on,,0,0,18,,,,,,,,,,,,,,,,15,,65,0
19919,note_on,,59,0,18,,,,,,,,,,,,,,,,15,,58,0
19919,note_on,,59,0,13,,,,,,,,,,,,,,,,8,,58,0
19919,note_on,,59,0,7,,,,,,,,,,,,,,,,2,,58,0
19919,note_on,,59,0,14,,,,,,,,,,,,,,,,10,,74,0
19919,note_on,,59,0,12,,,,,,,,,,,,,,,,7,,58,0
19919,note_on,,59,0,16,,,,,,,,,,,,,,,,12,,58,0
19919,note_on,,59,0,17,,,,,,,,,,,,,,,,13,,58,0
19919,note_on,,119,0,11,,,,,,,,,,,,,,,,6,,68,0
19919,note_on,,119,0,15,,,,,,,,,,,,,,,,11,,68,0
19920,note_on,,1,0,7,,,,,,,,,,,,,,,,2,,51,72
19920,note_on,,1,0,12,,,,,,,,,,,,,,,,7,,58,72
19920,note_on,,1,0,10,,,,,,,,,,,,,,,,5,,75,72
19920,note_on,,1,0,6,,,,,,,,,,,,,,,,1,,75,72
19920,note_on,,1,0,17,,,,,,,,,,,,,,,,13,,51,72
19920,note_on,,0,0,18,,,,,,,,,,,,,,,,15,,63,72
19920,note_on,,0,0,18,,,,,,,,,,,,,,,,15,,67,72
19920,note_on,,1,0,18,,,,,,,,,,,,,,,,15,,51,72
19920,note_on,,1,0,16,,,,,,,,,,,,,,,,12,,58,72
19920,note_on,,1,0,14,,,,,,,,,,,,,,,,10,,75,72
19920,note_on,,1,0,13,,,,,,,,,,,,,,,,8,,51,72
19980,note_on,,61,0,15,,,,,,,,,,,,,,,,11,,67,72
19980,note_on,,61,0,11,,,,,,,,,,,,,,,,6,,67,72
20039,note_on,,0,0,18,,,,,,,,,,,,,,,,15,,51,0
20039,note_on,,59,0,15,,,,,,,,,,,,,,,,11,,67,0
20039,note_on,,119,0,7,,,,,,,,,,,,,,,,2,,51,0
20039,note_on,,119,0,17,,,,,,,,,,,,,,,,13,,51,0
20039,note_on,,59,0,11,,,,,,,,,,,,,,,,6,,67,0
20039,note_on,,0,0,18,,,,,,,,,,,,,,,,15,,67,0
20039,note_on,,119,0,13,,,,,,,,,,,,,,,,8,,51,0
20039,note_on,,0,0,18,,,,,,,,,,,,,,,,15,,63,0
20039,note_on,,119,0,16,,,,,,,,,,,,,,,,12,,58,0
20039,note_on,,119,0,12,,,,,,,,,,,,,,,,7,,58,0
20039,note_on,,119,0,10,,,,,,,,,,,,,,,,5,,75,0
20039,note_on,,119,0,18,,,,,,,,,,,,,,,,15,,70,0
20039,note_on,,119,0,14,,,,,,,,,,,,,,,,10,,75,0
20039,note_on,,119,0,6,,,,,,,,,,,,,,,,1,,75,0
20040,note_on,,1,0,15,,,,,,,,,,,,,,,,11,,68,72
20040,note_on,,1,0,11,,,,,,,,,,,,,,,,6,,68,72
20099,note_on,,59,0,11,,,,,,,,,,,,,,,,6,,68,0
20099,note_on,,59,0,15,,,,,,,,,,,,,,,,11,,68,0
20100,note_on,,61,0,17,,,,,,,,,,,,,,,,13,,50,72
20100,note_on,,61,0,18,,,,,,,,,,,,,,,,15,,50,72
20100,note_on,,61,0,7,,,,,,,,,,,,,,,,2,,50,72
20100,note_on,,1,0,15,,,,,,,,,,,,,,,,11,,70,72
20100,note_on,,1,0,11,,,,,,,,,,,,,,,,6,,70,72
20100,note_on,,61,0,13,,,,,,,,,,,,,,,,8,,50,72
20159,note_on,,59,0,7,,,,,,,,,,,,,,,,2,,50,0
20159,note_on,,59,0,15,,,,,,,,,,,,,,,,11,,70,0
20159,note_on,,59,0,11,,,,,,,,,,,,,,,,6,,70,0
20159,note_on,,59,0,13,,,,,,,,,,,,,,,,8,,50,0
20159,note_on,,59,0,17,,,,,,,,,,,,,,,,13,,50,0
20159,note_on,,59,0,18,,,,,,,,,,,,,,,,15,,50,0
20160,note_on,,1,0,15,,,,,,,,,,,,,,,,11,,63,72
20160,note_on,,0,0,18,,,,,,,,,,,,,,,,15,,63,72
20160,note_on,,0,0,18,,,,,,,,,,,,,,,,15,,67,72
20160,note_on,,0,0,18,,,,,,,,,,,,,,,,15,,72,72
20160,note_on,,1,0,18,,,,,,,,,,,,,,,,15,,48,72
20160,note_on,,1,0,7,,,,,,,,,,,,,,,,2,,48,72
20160,note_on,,1,0,11,,,,,,,,,,,,,,,,6,,63,72
20160,note_on,,1,0,17,,,,,,,,,,,,,,,,13,,48,72
20160,note_on,,1,0,13,,,,,,,,,,,,,,,,8,,48,72
20220,note_on,,181,0,6,,,,,,,,,,,,,,,,1,,65,72
20220,note_on,,181,0,14,,,,,,,,,,,,,,,,10,,77,72
20220,note_on,,181,0,10,,,,,,,,,,,,,,,,5,,65,72
20279,note_on,,0,0,18,,,,,,,,,,,,,,,,15,,63,0
20279,note_on,,0,0,18,,,,,,,,,,,,,,,,15,,67,0
20279,note_on,,119,0,18,,,,,,,,,,,,,,,,15,,72,0
20279,note_on,,59,0,14,,,,,,,,,,,,,,,,10,,77,0
20279,note_on,,59,0,10,,,,,,,,,,,,,,,,5,,65,0
20279,note_on,,119,0,11,,,,,,,,,,,,,,,,6,,63,0
20279,note_on,,59,0,6,,,,,,,,,,,,,,,,1,,65,0
20279,note_on,,119,0,15,,,,,,,,,,,,,,,,11,,63,0
20280,note_on,,1,0,10,,,,,,,,,,,,,,,,5,,67,72
20280,note_on,,1,0,14,,,,,,,,,,,,,,,,10,,79,72
20280,note_on,,1,0,6,,,,,,,,,,,,,,,,1,,67,72
20339,note_on,,60,0,18,,,,,,,,,,,,,,,,15,,48,0
20339,note_on,,179,0,13,,,,,,,,,,,,,,,,8,,48,0
20339,note_on,,59,0,14,,,,,,,,,,,,,,,,10,,79,0
20339,note_on,,179,0,7,,,,,,,,,,,,,,,,2,,48,0
20339,note_on,,179,0,17,,,,,,,,,,,,,,,,13,,48,0
20339,note_on,,59,0,10,,,,,,,,,,,,,,,,5,,67,0
20339,note_on,,59,0,6,,,,,,,,,,,,,,,,1,,67,0
20340,note_on,,1,0,17,,,,,,,,,,,,,,,,13,,48,72
20340,note_on,,1,0,13,,,,,,,,,,,,,,,,8,,48,72
20340,note_on,,61,0,11,,,,,,,,,,,,,,,,6,,63,72
20340,note_on,,1,0,14,,,,,,,,,,,,,,,,10,,81,72
20340,note_on,,1,0,6,,,,,,,,,,,,,,,,1,,69,72
20340,note_on,,1,0,10,,,,,,,,,,,,,,,,5,,69,72
20340,note_on,,1,0,18,,,,,,,,,,,,,,,,15,,48,72
20340,note_on,,61,0,15,,,,,,,,,,,,,,,,11,,75,72
20340,note_on,,1,0,7,,,,,,,,,,,,,,,,2,,48,72
20399,note_on,,59,0,13,,,,,,,,,,,,,,,,8,,48,0
20399,note_on,,59,0,11,,,,,,,,,,,,,,,,6,,63,0
20399,note_on,,59,0,18,,,,,,,,,,,,,,,,15,,48,0
20399,note_on,,59,0,17,,,,,,,,,,,,,,,,13,,48,0
20399,note_on,,59,0,15,,,,,,,,,,,,,,,,11,,75,0
20399,note_on,,59,0,6,,,,,,,,,,,,,,,,1,,69,0
20399,note_on,,59,0,7,,,,,,,,,,,,,,,,2,,48,0
20399,note_on,,59,0,14,,,,,,,,,,,,,,,,10,,81,0
20399,note_on,,59,0,10,,,,,,,,,,,,,,,,5,,69,0
20400,note_on,,1,0,11,,,,,,,,,,,,,,,,6,,62,72
20400,note_on,,1,0,15,,,,,,,,,,,,,,,,11,,74,72
20400,note_on,,1,0,17,,,,,,,,,,,,,,,,13,,46,72
20400,note_on,,1,0,6,,,,,,,,,,,,,,,,1,,70,72
20400,note_on,,1,0,7,,,,,,,,,,,,,,,,2,,46,72
20400,note_on,,1,0,13,,,,,,,,,,,,,,,,8,,46,72
20400,note_on,,1,0,14,,,,,,,,,,,,,,,,10,,82,72
20400,note_on,,1,0,18,,,,,,,,,,,,,,,,15,,46,72
20400,note_on,,0,0,18,,,,,,,,,,,,,,,,15,,74,72
20400,note_on,,1,0,10,,,,,,,,,,,,,,,,5,,70,72
20400,note_on,,0,0,18,,,,,,,,,,,,,,,,15,,65,72
20400,note_on,,0,0,18,,,,,,,,,,,,,,,,15,,70,72
20460,note_on,,421,0,16,,,,,,,,,,,,,,,,12,,53,72
20460,note_on,,421,0,12,,,,,,,,,,,,,,,,7,,53,72
20519,note_on,,119,0,18,,,,,,,,,,,,,,,,15,,46,0
20519,note_on,,0,0,18,,,,,,,,,,,,,,,,15,,74,0
20519,note_on,,0,0,18,,,,,,,,,,,,,,,,15,,70,0
20519,note_on,,0,0,18,,,,,,,,,,,,,,,,15,,65,0
20519,note_on,,119,0,10,,,,,,,,,,,,,,,,5,,70,0
20519,note_on,,119,0,13,,,,,,,,,,,,,,,,8,,46,0
20519,note_on,,119,0,7,,,,,,,,,,,,,,,,2,,46,0
20519,note_on,,119,0,17,,,,,,,,,,,,,,,,13,,46,0
20519,note_on,,59,0,12,,,,,,,,,,,,,,,,7,,53,0
20519,note_on,,119,0,15,,,,,,,,,,,,,,,,11,,74,0
20519,note_on,,59,0,16,,,,,,,,,,,,,,,,12,,53,0
20519,note_on,,119,0,6,,,,,,,,,,,,,,,,1,,70,0
20519,note_on,,119,0,14,,,,,,,,,,,,,,,,10,,82,0
20519,note_on,,119,0,11,,,,,,,,,,,,,,,,6,,62,0
20520,note_on,,1,0,12,,,,,,,,,,,,,,,,7,,58,72
20520,note_on,,1,0,16,,,,,,,,,,,,,,,,12,,58,72
20580,note_on,,61,0,7,,,,,,,,,,,,,,,,2,,46,72
20580,note_on,,61,0,18,,,,,,,,,,,,,,,,15,,46,72
20580,note_on,,61,0,13,,,,,,,,,,,,,,,,8,,46,72
20580,note_on,,61,0,17,,,,,,,,,,,,,,,,13,,46,72
20639,note_on,,59,0,18,,,,,,,,,,,,,,,,15,,46,0
20639,note_on,,59,0,13,,,,,,,,,,,,,,,,8,,46,0
20639,note_on,,59,0,17,,,,,,,,,,,,,,,,13,,46,0
20639,note_on,,59,0,7,,,,,,,,,,,,,,,,2,,46,0
20640,note_on,,1,0,17,,,,,,,,,,,,,,,,13,,48,72
20640,note_on,,1,0,7,,,,,,,,,,,,,,,,2,,48,72
20640,note_on,,1,0,18,,,,,,,,,,,,,,,,15,,48,72
20640,note_on,,0,0,18,,,,,,,,,,,,,,,,15,,75,72
20640,note_on,,0,0,18,,,,,,,,,,,,,,,,15,,63,72
20640,note_on,,0,0,18,,,,,,,,,,,,,,,,15,,60,72
20640,note_on,,1,0,13,,,,,,,,,,,,,,,,8,,48,72
20759,note_on,,239,0,16,,,,,,,,,,,,,,,,12,,58,0
20759,note_on,,119,0,17,,,,,,,,,,,,,,,,13,,48,0
20759,note_on,,239,0,12,,,,,,,,,,,,,,,,7,,58,0
20759,note_on,,0,0,18,,,,,,,,,,,,,,,,15,,63,0
20759,note_on,,119,0,13,,,,,,,,,,,,,,,,8,,48,0
20759,note_on,,0,0,18,,,,,,,,,,,,,,,,15,,60,0
20759,note_on,,0,0,18,,,,,,,,,,,,,,,,15,,75,0
20759,note_on,,119,0,18,,,,,,,,,,,,,,,,15,,48,0
20759,note_on,,119,0,7,,,,,,,,,,,,,,,,2,,48,0
20760,note_on,,1,0,12,,,,,,,,,,,,,,,,7,,57,72
20760,note_on,,1,0,16,,,,,,,,,,,,,,,,12,,57,72
20819,note_on,,59,0,12,,,,,,,,,,,,,,,,7,,57,0
20819,note_on,,59,0,16,,,,,,,,,,,,,,,,12,,57,0
20820,note_on,,61,0,17,,,,,,,,,,,,,,,,13,,48,72
20820,note_on,,61,0,13,,,,,,,,,,,,,,,,8,,48,72
20820,note_on,,61,0,7,,,,,,,,,,,,,,,,2,,48,72
20820,note_on,,1,0,16,,,,,,,,,,,,,,,,12,,57,72
20820,note_on,,1,0,12,,,,,,,,,,,,,,,,7,,57,72
20820,note_on,,61,0,18,,,,,,,,,,,,,,,,15,,48,72
20879,note_on,,59,0,12,,,,,,,,,,,,,,,,7,,57,0
20879,note_on,,59,0,7,,,,,,,,,,,,,,,,2,,48,0
20879,note_on,,59,0,16,,,,,,,,,,,,,,,,12,,57,0
20879,note_on,,59,0,17,,,,,,,,,,,,,,,,13,,48,0
20879,note_on,,59,0,13,,,,,,,,,,,,,,,,8,,48,0
20879,note_on,,59,0,18,,,,,,,,,,,,,,,,15,,48,0
20880,note_on,,1,0,13,,,,,,,,,,,,,,,,8,,50,72
20880,note_on,,0,0,18,,,,,,,,,,,,,,,,15,,65,72
20880,note_on,,0,0,18,,,,,,,,,,,,,,,,15,,70,72
20880,note_on,,1,0,12,,,,,,,,,,,,,,,,7,,58,72
20880,note_on,,1,0,18,,,,,,,,,,,,,,,,15,,50,72
20880,note_on,,1,0,7,,,,,,,,,,,,,,,,2,,50,72
20880,note_on,,1,0,17,,,,,,,,,,,,,,,,13,,50,72
20880,note_on,,0,0,18,,,,,,,,,,,,,,,,15,,77,72
20880,note_on,,1,0,16,,,,,,,,,,,,,,,,12,,58,72
20940,note_on,,421,0,11,,,,,,,,,,,,,,,,6,,65,72
20940,note_on,,421,0,15,,,,,,,,,,,,,,,,11,,65,72
20999,note_on,,59,0,11,,,,,,,,,,,,,,,,6,,65,0
20999,note_on,,59,0,15,,,,,,,,,,,,,,,,11,,65,0
20999,note_on,,119,0,16,,,,,,,,,,,,,,,,12,,58,0
20999,note_on,,119,0,12,,,,,,,,,,,,,,,,7,,58,0
20999,note_on,,119,0,7,,,,,,,,,,,,,,,,2,,50,0
20999,note_on,,0,0,18,,,,,,,,,,,,,,,,15,,65,0
20999,note_on,,0,0,18,,,,,,,,,,,,,,,,15,,77,0
20999,note_on,,0,0,18,,,,,,,,,,,,,,,,15,,70,0
20999,note_on,,119,0,17,,,,,,,,,,,,,,,,13,,50,0
20999,note_on,,119,0,18,,,,,,,,,,,,,,,,15,,50,0
20999,note_on,,119,0,13,,,,,,,,,,,,,,,,8,,50,0
21000,note_on,,1,0,11,,,,,,,,,,,,,,,,6,,70,72
21000,note_on,,1,0,15,,,,,,,,,,,,,,,,11,,70,72
21060,note_on,,61,0,7,,,,,,,,,,,,,,,,2,,50,72
21060,note_on,,541,0,10,,,,,,,,,,,,,,,,5,,70,72
21060,note_on,,61,0,17,,,,,,,,,,,,,,,,13,,50,72
21060,note_on,,541,0,14,,,,,,,,,,,,,,,,10,,70,72
21060,note_on,,541,0,6,,,,,,,,,,,,,,,,1,,70,72
21060,note_on,,61,0,13,,,,,,,,,,,,,,,,8,,50,72
21060,note_on,,61,0,18,,,,,,,,,,,,,,,,15,,50,72
21119,note_on,,59,0,18,,,,,,,,,,,,,,,,15,,50,0
21119,note_on,,59,0,17,,,,,,,,,,,,,,,,13,,50,0
21119,note_on,,59,0,13,,,,,,,,,,,,,,,,8,,50,0
21119,note_on,,59,0,14,,,,,,,,,,,,,,,,10,,70,0
21119,note_on,,59,0,7,,,,,,,,,,,,,,,,2,,50,0
21119,note_on,,59,0,6,,,,,,,,,,,,,,,,1,,70,0
21119,note_on,,59,0,10,,,,,,,,,,,,,,,,5,,70,0
21120,note_on,,1,0,14,,,,,,,,,,,,,,,,10,,72,72
21120,note_on,,1,0,7,,,,,,,,,,,,,,,,2,,51,72
21120,note_on,,0,0,18,,,,,,,,,,,,,,,,15,,60,72
21120,note_on,,0,0,18,,,,,,,,,,,,,,,,15,,67,72
21120,note_on,,0,0,18,,,,,,,,,,,,,,,,15,,70,72
21120,note_on,,0,0,18,,,,,,,,,,,,,,,,15,,75,72
21120,note_on,,1,0,18,,,,,,,,,,,,,,,,15,,51,72
21120,note_on,,1,0,17,,,,,,,,,,,,,,,,13,,51,72
21120,note_on,,1,0,10,,,,,,,,,,,,,,,,5,,72,72
21120,note_on,,1,0,6,,,,,,,,,,,,,,,,1,,72,72
21120,note_on,,1,0,13,,,,,,,,,,,,,,,,8,,51,72
21239,note_on,,119,0,7,,,,,,,,,,,,,,,,2,,51,0
21239,note_on,,119,0,6,,,,,,,,,,,,,,,,1,,72,0
21239,note_on,,119,0,17,,,,,,,,,,,,,,,,13,,51,0
21239,note_on,,0,0,18,,,,,,,,,,,,,,,,15,,67,0
21239,note_on,,119,0,10,,,,,,,,,,,,,,,,5,,72,0
21239,note_on,,0,0,18,,,,,,,,,,,,,,,,15,,70,0
21239,note_on,,239,0,11,,,,,,,,,,,,,,,,6,,70,0
21239,note_on,,0,0,18,,,,,,,,,,,,,,,,15,,75,0
21239,note_on,,119,0,18,,,,,,,,,,,,,,,,15,,51,0
21239,note_on,,119,0,14,,,,,,,,,,,,,,,,10,,72,0
21239,note_on,,119,0,13,,,,,,,,,,,,,,,,8,,51,0
21239,note_on,,239,0,15,,,,,,,,,,,,,,,,11,,70,0
21240,note_on,,1,0,13,,,,,,,,,,,,,,,,8,,53,72
21240,note_on,,1,0,15,,,,,,,,,,,,,,,,11,,69,72
21240,note_on,,0,0,18,,,,,,,,,,,,,,,,15,,69,72
21240,note_on,,1,0,7,,,,,,,,,,,,,,,,2,,53,72
21240,note_on,,1,0,17,,,,,,,,,,,,,,,,13,,53,72
21240,note_on,,0,0,18,,,,,,,,,,,,,,,,15,,65,72
21240,note_on,,0,0,18,,,,,,,,,,,,,,,,15,,72,72
21240,note_on,,1,0,11,,,,,,,,,,,,,,,,6,,69,72
21240,note_on,,1,0,18,,,,,,,,,,,,,,,,15,,53,72
21299,note_on,,59,0,11,,,,,,,,,,,,,,,,6,,69,0
21299,note_on,,59,0,15,,,,,,,,,,,,,,,,11,,69,0
21300,note_on,,1,0,15,,,,,,,,,,,,,,,,11,,69,72
21300,note_on,,61,0,10,,,,,,,,,,,,,,,,5,,72,72
21300,note_on,,61,0,6,,,,,,,,,,,,,,,,1,,72,72
21300,note_on,,61,0,14,,,,,,,,,,,,,,,,10,,72,72
21300,note_on,,1,0,11,,,,,,,,,,,,,,,,6,,69,72
21359,note_on,,119,0,18,,,,,,,,,,,,,,,,15,,60,0
21359,note_on,,59,0,15,,,,,,,,,,,,,,,,11,,69,0
21359,note_on,,59,0,14,,,,,,,,,,,,,,,,10,,72,0
21359,note_on,,0,0,18,,,,,,,,,,,,,,,,15,,65,0
21359,note_on,,0,0,18,,,,,,,,,,,,,,,,15,,69,0
21359,note_on,,0,0,18,,,,,,,,,,,,,,,,15,,72,0
21359,note_on,,0,0,18,,,,,,,,,,,,,,,,15,,53,0
21359,note_on,,119,0,17,,,,,,,,,,,,,,,,13,,53,0
21359,note_on,,119,0,13,,,,,,,,,,,,,,,,8,,53,0
21359,note_on,,59,0,11,,,,,,,,,,,,,,,,6,,69,0
21359,note_on,,59,0,6,,,,,,,,,,,,,,,,1,,72,0
21359,note_on,,119,0,7,,,,,,,,,,,,,,,,2,,53,0
21359,note_on,,59,0,10,,,,,,,,,,,,,,,,5,,72,0
21360,note_on,,1,0,17,,,,,,,,,,,,,,,,13,,46,72
21360,note_on,,0,0,18,,,,,,,,,,,,,,,,15,,70,72
21360,note_on,,1,0,14,,,,,,,,,,,,,,,,10,,74,72
21360,note_on,,1,0,7,,,,,,,,,,,,,,,,2,,46,72
21360,note_on,,1,0,10,,,,,,,,,,,,,,,,5,,74,72
21360,note_on,,0,0,18,,,,,,,,,,,,,,,,15,,65,72
21360,note_on,,0,0,18,,,,,,,,,,,,,,,,15,,58,72
21360,note_on,,1,0,15,,,,,,,,,,,,,,,,11,,70,72
21360,note_on,,1,0,13,,,,,,,,,,,,,,,,8,,46,72
21360,note_on,,1,0,11,,,,,,,,,,,,,,,,6,,70,72
21360,note_on,,1,0,18,,,,,,,,,,,,,,,,15,,46,72
21360,note_on,,0,0,18,,,,,,,,,,,,,,,,15,,74,72
21360,note_on,,1,0,6,,,,,,,,,,,,,,,,1,,74,72
21419,note_on,,59,0,18,,,,,,,,,,,,,,,,15,,46,0
21419,note_on,,0,0,18,,,,,,,,,,,,,,,,15,,58,0
21419,note_on,,59,0,17,,,,,,,,,,,,,,,,13,,46,0
21419,note_on,,59,0,7,,,,,,,,,,,,,,,,2,,46,0
21420,note_on,,1,0,18,,,,,,,,,,,,,,,,15,,58,72
21420,note_on,,1,0,17,,,,,,,,,,,,,,,,13,,58,72
21420,note_on,,1,0,7,,,,,,,,,,,,,,,,2,,58,72
21479,note_on,,119,0,6,,,,,,,,,,,,,,,,1,,74,0
21479,note_on,,119,0,10,,,,,,,,,,,,,,,,5,,74,0
21479,note_on,,119,0,15,,,,,,,,,,,,,,,,11,,70,0
21479,note_on,,119,0,13,,,,,,,,,,,,,,,,8,,46,0
21479,note_on,,119,0,11,,,,,,,,,,,,,,,,6,,70,0
21479,note_on,,0,0,18,,,,,,,,,,,,,,,,15,,58,0
21479,note_on,,59,0,17,,,,,,,,,,,,,,,,13,,58,0
21479,note_on,,59,0,18,,,,,,,,,,,,,,,,15,,74,0
21479,note_on,,119,0,14,,,,,,,,,,,,,,,,10,,74,0
21479,note_on,,0,0,18,,,,,,,,,,,,,,,,15,,65,0
21479,note_on,,59,0,7,,,,,,,,,,,,,,,,2,,58,0
21479,note_on,,0,0,18,,,,,,,,,,,,,,,,15,,70,0
21480,note_on,,1,0,6,,,,,,,,,,,,,,,,1,,75,72
21480,note_on,,1,0,18,,,,,,,,,,,,,,,,15,,55,72
21480,note_on,,0,0,18,,,,,,,,,,,,,,,,15,,67,72
21480,note_on,,1,0,17,,,,,,,,,,,,,,,,13,,55,72
21480,note_on,,0,0,18,,,,,,,,,,,,,,,,15,,63,72
21480,note_on,,1,0,14,,,,,,,,,,,,,,,,10,,75,72
21480,note_on,,1,0,10,,,,,,,,,,,,,,,,5,,75,72
21480,note_on,,1,0,7,,,,,,,,,,,,,,,,2,,55,72
21539,note_on,,59,0,17,,,,,,,,,,,,,,,,13,,55,0
21539,note_on,,59,0,7,,,,,,,,,,,,,,,,2,,55,0
21539,note_on,,59,0,18,,,,,,,,,,,,,,,,15,,55,0
21540,note_on,,61,0,15,,,,,,,,,,,,,,,,11,,63,72
21540,note_on,,1,0,18,,,,,,,,,,,,,,,,15,,48,72
21540,note_on,,541,0,12,,,,,,,,,,,,,,,,7,,51,72
21540,note_on,,1,0,17,,,,,,,,,,,,,,,,13,,48,72
21540,note_on,,1,0,7,,,,,,,,,,,,,,,,2,,48,72
21599,note_on,,59,0,7,,,,,,,,,,,,,,,,2,,48,0
21599,note_on,,59,0,12,,,,,,,,,,,,,,,,7,,51,0
21599,note_on,,59,0,17,,,,,,,,,,,,,,,,13,,48,0
21599,note_on,,59,0,18,,,,,,,,,,,,,,,,15,,67,0
21599,note_on,,0,0,18,,,,,,,,,,,,,,,,15,,63,0
21599,note_on,,0,0,18,,,,,,,,,,,,,,,,15,,48,0
21599,note_on,,59,0,15,,,,,,,,,,,,,,,,11,,63,0
21600,note_on,,0,0,18,,,,,,,,,,,,,,,,15,,68,72
21600,note_on,,1,0,7,,,,,,,,,,,,,,,,2,,44,72
21600,note_on,,0,0,18,,,,,,,,,,,,,,,,15,,65,72
21600,note_on,,1,0,18,,,,,,,,,,,,,,,,15,,44,72
21600,note_on,,0,0,18,,,,,,,,,,,,,,,,15,,63,72
21600,note_on,,1,0,15,,,,,,,,,,,,,,,,11,,65,72
21600,note_on,,1,0,17,,,,,,,,,,,,,,,,13,,44,72
21600,note_on,,1,0,12,,,,,,,,,,,,,,,,7,,53,72
21659,note_on,,59,0,17,,,,,,,,,,,,,,,,13,,44,0
21659,note_on,,59,0,18,,,,,,,,,,,,,,,,15,,44,0
21659,note_on,,59,0,7,,,,,,,,,,,,,,,,2,,44,0
21660,note_on,,1,0,17,,,,,,,,,,,,,,,,13,,41,72
21660,note_on,,1,0,18,,,,,,,,,,,,,,,,15,,41,72
21660,note_on,,1,0,7,,,,,,,,,,,,,,,,2,,41,72
21719,note_on,,0,0,18,,,,,,,,,,,,,,,,15,,41,0
21719,note_on,,119,0,12,,,,,,,,,,,,,,,,7,,53,0
21719,note_on,,59,0,18,,,,,,,,,,,,,,,,15,,65,0
21719,note_on,,0,0,18,,,,,,,,,,,,,,,,15,,63,0
21719,note_on,,239,0,14,,,,,,,,,,,,,,,,10,,75,0
21719,note_on,,239,0,6,,,,,,,,,,,,,,,,1,,75,0
21719,note_on,,59,0,17,,,,,,,,,,,,,,,,13,,41,0
21719,note_on,,119,0,15,,,,,,,,,,,,,,,,11,,65,0
21719,note_on,,239,0,10,,,,,,,,,,,,,,,,5,,75,0
21719,note_on,,59,0,7,,,,,,,,,,,,,,,,2,,41,0
21720,note_on,,0,0,18,,,,,,,,,,,,,,,,15,,62,72
21720,note_on,,1,0,6,,,,,,,,,,,,,,,,1,,74,72
21720,note_on,,1,0,17,,,,,,,,,,,,,,,,13,,46,72
21720,note_on,,1,0,10,,,,,,,,,,,,,,,,5,,74,72
21720,note_on,,0,0,18,,,,,,,,,,,,,,,,15,,65,72
21720,note_on,,0,0,18,,,,,,,,,,,,,,,,15,,58,72
21720,note_on,,1,0,18,,,,,,,,,,,,,,,,15,,46,72
21720,note_on,,1,0,14,,,,,,,,,,,,,,,,10,,74,72
21720,note_on,,1,0,7,,,,,,,,,,,,,,,,2,,46,72
21779,note_on,,59,0,18,,,,,,,,,,,,,,,,15,,46,0
21779,note_on,,59,0,17,,,,,,,,,,,,,,,,13,,46,0
21779,note_on,,59,0,7,,,,,,,,,,,,,,,,2,,46,0
21780,note_on,,1,0,18,,,,,,,,,,,,,,,,15,,46,72
21780,note_on,,1,0,17,,,,,,,,,,,,,,,,13,,46,72
21780,note_on,,61,0,15,,,,,,,,,,,,,,,,11,,65,72
21780,note_on,,1,0,7,,,,,,,,,,,,,,,,2,,46,72
21780,note_on,,61,0,12,,,,,,,,,,,,,,,,7,,53,72
21839,note_on,,119,0,14,,,,,,,,,,,,,,,,10,,74,0
21839,note_on,,59,0,12,,,,,,,,,,,,,,,,7,,53,0
21839,note_on,,0,0,18,,,,,,,,,,,,,,,,15,,46,0
21839,note_on,,59,0,7,,,,,,,,,,,,,,,,2,,46,0
21839,note_on,,0,0,18,,,,,,,,,,,,,,,,15,,58,0
21839,note_on,,119,0,10,,,,,,,,,,,,,,,,5,,74,0
21839,note_on,,59,0,17,,,,,,,,,,,,,,,,13,,46,0
21839,note_on,,0,0,18,,,,,,,,,,,,,,,,15,,62,0
21839,note_on,,119,0,6,,,,,,,,,,,,,,,,1,,74,0
21839,note_on,,0,0,18,,,,,,,,,,,,,,,,15,,65,0
21839,note_on,,59,0,15,,,,,,,,,,,,,,,,11,,65,0
21839,note_on,,59,0,18,,,,,,,,,,,,,,,,15,,68,0
21840,note_on,,1,0,15,,,,,,,,,,,,,,,,11,,67,72
21840,note_on,,0,0,18,,,,,,,,,,,,,,,,15,,63,72
21840,note_on,,1,0,17,,,,,,,,,,,,,,,,13,,51,72
21840,note_on,,0,0,18,,,,,,,,,,,,,,,,15,,58,72
21840,note_on,,1,0,18,,,,,,,,,,,,,,,,15,,51,72
21840,note_on,,1,0,7,,,,,,,,,,,,,,,,2,,51,72
21840,note_on,,0,0,18,,,,,,,,,,,,,,,,15,,67,72
21840,note_on,,1,0,12,,,,,,,,,,,,,,,,7,,55,72
21899,note_on,,59,0,7,,,,,,,,,,,,,,,,2,,51,0
21899,note_on,,59,0,17,,,,,,,,,,,,,,,,13,,51,0
21899,note_on,,59,0,18,,,,,,,,,,,,,,,,15,,51,0
21900,note_on,,1,0,7,,,,,,,,,,,,,,,,2,,39,72
21900,note_on,,61,0,6,,,,,,,,,,,,,,,,1,,74,72
21900,note_on,,61,0,14,,,,,,,,,,,,,,,,10,,74,72
21900,note_on,,1,0,17,,,,,,,,,,,,,,,,13,,39,72
21900,note_on,,1,0,18,,,,,,,,,,,,,,,,15,,39,72
21900,note_on,,61,0,10,,,,,,,,,,,,,,,,5,,74,72
21959,note_on,,0,0,18,,,,,,,,,,,,,,,,15,,63,0
21959,note_on,,59,0,14,,,,,,,,,,,,,,,,10,,74,0
21959,note_on,,119,0,12,,,,,,,,,,,,,,,,7,,55,0
21959,note_on,,119,0,15,,,,,,,,,,,,,,,,11,,67,0
21959,note_on,,59,0,18,,,,,,,,,,,,,,,,15,,67,0
21959,note_on,,0,0,18,,,,,,,,,,,,,,,,15,,58,0
21959,note_on,,0,0,18,,,,,,,,,,,,,,,,15,,39,0
21959,note_on,,59,0,17,,,,,,,,,,,,,,,,13,,39,0
21959,note_on,,59,0,6,,,,,,,,,,,,,,,,1,,74,0
21959,note_on,,59,0,7,,,,,,,,,,,,,,,,2,,39,0
21959,note_on,,59,0,10,,,,,,,,,,,,,,,,5,,74,0
21960,note_on,,1,0,7,,,,,,,,,,,,,,,,2,,41,72
21960,note_on,,1,0,14,,,,,,,,,,,,,,,,10,,72,72
21960,note_on,,1,0,12,,,,,,,,,,,,,,,,7,,56,72
21960,note_on,,1,0,6,,,,,,,,,,,,,,,,1,,72,72
21960,note_on,,1,0,15,,,,,,,,,,,,,,,,11,,68,72
21960,note_on,,1,0,17,,,,,,,,,,,,,,,,13,,41,72
21960,note_on,,1,0,10,,,,,,,,,,,,,,,,5,,72,72
21960,note_on,,1,0,18,,,,,,,,,,,,,,,,15,,41,72
21960,note_on,,0,0,18,,,,,,,,,,,,,,,,15,,60,72
21960,note_on,,0,0,18,,,,,,,,,,,,,,,,15,,56,72
21960,note_on,,0,0,18,,,,,,,,,,,,,,,,15,,53,72
22019,note_on,,59,0,6,,,,,,,,,,,,,,,,1,,72,0
22019,note_on,,59,0,17,,,,,,,,,,,,,,,,13,,41,0
22019,note_on,,59,0,7,,,,,,,,,,,,,,,,2,,41,0
22019,note_on,,59,0,14,,,,,,,,,,,,,,,,10,,72,0
22019,note_on,,59,0,10,,,,,,,,,,,,,,,,5,,72,0
22019,note_on,,59,0,18,,,,,,,,,,,,,,,,15,,41,0
22020,note_on,,1,0,18,,,,,,,,,,,,,,,,15,,51,72
22020,note_on,,1,0,14,,,,,,,,,,,,,,,,10,,77,72
22020,note_on,,1,0,10,,,,,,,,,,,,,,,,5,,77,72
22020,note_on,,1,0,6,,,,,,,,,,,,,,,,1,,77,72
22020,note_on,,1,0,17,,,,,,,,,,,,,,,,13,,51,72
22020,note_on,,1,0,7,,,,,,,,,,,,,,,,2,,51,72
22079,note_on,,59,0,6,,,,,,,,,,,,,,,,1,,77,0
22079,note_on,,59,0,10,,,,,,,,,,,,,,,,5,,77,0
22079,note_on,,59,0,17,,,,,,,,,,,,,,,,13,,51,0
22079,note_on,,119,0,12,,,,,,,,,,,,,,,,7,,56,0
22079,note_on,,0,0,18,,,,,,,,,,,,,,,,15,,56,0
22079,note_on,,59,0,18,,,,,,,,,,,,,,,,15,,60,0
22079,note_on,,59,0,7,,,,,,,,,,,,,,,,2,,51,0
22079,note_on,,0,0,18,,,,,,,,,,,,,,,,15,,51,0
22079,note_on,,119,0,15,,,,,,,,,,,,,,,,11,,68,0
22079,note_on,,59,0,14,,,,,,,,,,,,,,,,10,,77,0
22080,note_on,,1,0,6,,,,,,,,,,,,,,,,1,,70,72
22080,note_on,,1,0,7,,,,,,,,,,,,,,,,2,,50,72
22080,note_on,,1,0,14,,,,,,,,,,,,,,,,10,,70,72
22080,note_on,,1,0,18,,,,,,,,,,,,,,,,15,,50,72
22080,note_on,,0,0,18,,,,,,,,,,,,,,,,15,,65,72
22080,note_on,,0,0,18,,,,,,,,,,,,,,,,15,,58,72
22080,note_on,,1,0,10,,,,,,,,,,,,,,,,5,,70,72
22080,note_on,,1,0,17,,,,,,,,,,,,,,,,13,,50,72
22139,note_on,,59,0,17,,,,,,,,,,,,,,,,13,,50,0
22139,note_on,,59,0,18,,,,,,,,,,,,,,,,15,,53,0
22139,note_on,,59,0,7,,,,,,,,,,,,,,,,2,,50,0
22139,note_on,,0,0,18,,,,,,,,,,,,,,,,15,,50,0
22139,note_on,,0,0,18,,,,,,,,,,,,,,,,15,,58,0
22140,note_on,,0,0,18,,,,,,,,,,,,,,,,15,,62,72
22140,note_on,,61,0,12,,,,,,,,,,,,,,,,7,,56,72
22140,note_on,,1,0,17,,,,,,,,,,,,,,,,13,,46,72
22140,note_on,,1,0,7,,,,,,,,,,,,,,,,2,,46,72
22140,note_on,,61,0,15,,,,,,,,,,,,,,,,11,,68,72
22140,note_on,,0,0,18,,,,,,,,,,,,,,,,15,,58,72
22140,note_on,,1,0,18,,,,,,,,,,,,,,,,15,,46,72
22199,note_on,,59,0,17,,,,,,,,,,,,,,,,13,,46,0
22199,note_on,,59,0,7,,,,,,,,,,,,,,,,2,,46,0
22199,note_on,,59,0,12,,,,,,,,,,,,,,,,7,,56,0
22199,note_on,,59,0,18,,,,,,,,,,,,,,,,15,,65,0
22199,note_on,,0,0,18,,,,,,,,,,,,,,,,15,,46,0
22199,note_on,,0,0,18,,,,,,,,,,,,,,,,15,,62,0
22199,note_on,,0,0,18,,,,,,,,,,,,,,,,15,,58,0
22199,note_on,,119,0,6,,,,,,,,,,,,,,,,1,,70,0
22199,note_on,,119,0,10,,,,,,,,,,,,,,,,5,,70,0
22199,note_on,,119,0,14,,,,,,,,,,,,,,,,10,,70,0
22199,note_on,,59,0,15,,,,,,,,,,,,,,,,11,,68,0
22200,note_on,,1,0,17,,,,,,,,,,,,,,,,13,,48,72
22200,note_on,,0,0,18,,,,,,,,,,,,,,,,15,,60,72
22200,note_on,,1,0,18,,,,,,,,,,,,,,,,15,,48,72
22200,note_on,,1,0,14,,,,,,,,,,,,,,,,10,,75,72
22200,note_on,,0,0,18,,,,,,,,,,,,,,,,15,,55,72
22200,note_on,,1,0,7,,,,,,,,,,,,,,,,2,,48,72
22200,note_on,,0,0,18,,,,,,,,,,,,,,,,15,,63,72
22200,note_on,,1,0,15,,,,,,,,,,,,,,,,11,,67,72
22200,note_on,,1,0,10,,,,,,,,,,,,,,,,5,,75,72
22200,note_on,,1,0,6,,,,,,,,,,,,,,,,1,,75,72
22200,note_on,,1,0,12,,,,,,,,,,,,,,,,7,,55,72
22259,note_on,,59,0,15,,,,,,,,,,,,,,,,11,,67,0
22259,note_on,,59,0,18,,,,,,,,,,,,,,,,15,,48,0
22259,note_on,,0,0,18,,,,,,,,,,,,,,,,15,,63,0
22259,note_on,,0,0,18,,,,,,,,,,,,,,,,15,,60,0
22259,note_on,,0,0,18,,,,,,,,,,,,,,,,15,,55,0
22259,note_on,,59,0,7,,,,,,,,,,,,,,,,2,,48,0
22259,note_on,,59,0,12,,,,,,,,,,,,,,,,7,,55,0
22259,note_on,,59,0,17,,,,,,,,,,,,,,,,13,,48,0
22260,note_on,,0,0,18,,,,,,,,,,,,,,,,15,,63,72
22260,note_on,,1,0,7,,,,,,,,,,,,,,,,2,,44,72
22260,note_on,,1,0,12,,,,,,,,,,,,,,,,7,,60,72
22260,note_on,,0,0,18,,,,,,,,,,,,,,,,15,,68,72
22260,note_on,,0,0,18,,,,,,,,,,,,,,,,15,,72,72
22260,note_on,,1,0,17,,,,,,,,,,,,,,,,13,,44,72
22260,note_on,,1,0,15,,,,,,,,,,,,,,,,11,,72,72
22260,note_on,,1,0,18,,,,,,,,,,,,,,,,15,,44,72
22319,note_on,,59,0,17,,,,,,,,,,,,,,,,13,,44,0
22319,note_on,,119,0,10,,,,,,,,,,,,,,,,5,,75,0
22319,note_on,,0,0,18,,,,,,,,,,,,,,,,15,,63,0
22319,note_on,,59,0,18,,,,,,,,,,,,,,,,15,,44,0
22319,note_on,,0,0,18,,,,,,,,,,,,,,,,15,,68,0
22319,note_on,,59,0,7,,,,,,,,,,,,,,,,2,,44,0
22319,note_on,,59,0,15,,,,,,,,,,,,,,,,11,,72,0
22319,note_on,,59,0,12,,,,,,,,,,,,,,,,7,,60,0
22319,note_on,,119,0,14,,,,,,,,,,,,,,,,10,,75,0
22319,note_on,,119,0,6,,,,,,,,,,,,,,,,1,,75,0
22319,note_on,,0,0,18,,,,,,,,,,,,,,,,15,,72,0
22320,note_on,,1,0,18,,,,,,,,,,,,,,,,15,,46,72
22320,note_on,,0,0,18,,,,,,,,,,,,,,,,15,,70,72
22320,note_on,,0,0,18,,,,,,,,,,,,,,,,15,,65,72
22320,note_on,,0,0,18,,,,,,,,,,,,,,,,15,,58,72
22320,note_on,,1,0,15,,,,,,,,,,,,,,,,11,,65,72
22320,note_on,,1,0,12,,,,,,,,,,,,,,,,7,,53,72
22320,note_on,,1,0,17,,,,,,,,,,,,,,,,13,,46,72
22320,note_on,,1,0,7,,,,,,,,,,,,,,,,2,,46,72
22379,note_on,,59,0,17,,,,,,,,,,,,,,,,13,,46,0
22379,note_on,,59,0,18,,,,,,,,,,,,,,,,15,,46,0
22379,note_on,,59,0,7,,,,,,,,,,,,,,,,2,,46,0
22380,note_on,,61,0,6,,,,,,,,,,,,,,,,1,,75,72
22380,note_on,,1,0,18,,,,,,,,,,,,,,,,15,,44,72
22380,note_on,,61,0,14,,,,,,,,,,,,,,,,10,,75,72
22380,note_on,,1,0,17,,,,,,,,,,,,,,,,13,,44,72
22380,note_on,,61,0,10,,,,,,,,,,,,,,,,5,,75,72
22380,note_on,,1,0,7,,,,,,,,,,,,,,,,2,,44,72
22439,note_on,,59,0,6,,,,,,,,,,,,,,,,1,,75,0
22439,note_on,,59,0,18,,,,,,,,,,,,,,,,15,,44,0
22439,note_on,,59,0,10,,,,,,,,,,,,,,,,5,,75,0
22439,note_on,,59,0,17,,,,,,,,,,,,,,,,13,,44,0
22439,note_on,,59,0,14,,,,,,,,,,,,,,,,10,,75,0
22439,note_on,,59,0,7,,,,,,,,,,,,,,,,2,,44,0
22439,note_on,,119,0,15,,,,,,,,,,,,,,,,11,,65,0
22439,note_on,,119,0,12,,,,,,,,,,,,,,,,7,,53,0
22440,note_on,,1,0,17,,,,,,,,,,,,,,,,13,,46,72
22440,note_on,,1,0,6,,,,,,,,,,,,,,,,1,,74,72
22440,note_on,,1,0,12,,,,,,,,,,,,,,,,7,,58,72
22440,note_on,,1,0,7,,,,,,,,,,,,,,,,2,,46,72
22440,note_on,,1,0,15,,,,,,,,,,,,,,,,11,,70,72
22440,note_on,,1,0,18,,,,,,,,,,,,,,,,15,,46,72
22440,note_on,,1,0,14,,,,,,,,,,,,,,,,10,,74,72
22440,note_on,,1,0,10,,,,,,,,,,,,,,,,5,,74,72
22499,note_on,,59,0,14,,,,,,,,,,,,,,,,10,,74,0
22499,note_on,,59,0,6,,,,,,,,,,,,,,,,1,,74,0
22499,note_on,,59,0,17,,,,,,,,,,,,,,,,13,,46,0
22499,note_on,,59,0,7,,,,,,,,,,,,,,,,2,,46,0
22499,note_on,,59,0,18,,,,,,,,,,,,,,,,15,,70,0
22499,note_on,,0,0,18,,,,,,,,,,,,,,,,15,,65,0
22499,note_on,,0,0,18,,,,,,,,,,,,,,,,15,,58,0
22499,note_on,,0,0,18,,,,,,,,,,,,,,,,15,,46,0
22499,note_on,,59,0,10,,,,,,,,,,,,,,,,5,,74,0
22500,note_on,,1,0,6,,,,,,,,,,,,,,,,1,,79,72
22500,note_on,,1,0,7,,,,,,,,,,,,,,,,2,,43,72
22500,note_on,,0,0,18,,,,,,,,,,,,,,,,15,,67,72
22500,note_on,,1,0,17,,,,,,,,,,,,,,,,13,,43,72
22500,note_on,,1,0,10,,,,,,,,,,,,,,,,5,,79,72
22500,note_on,,1,0,14,,,,,,,,,,,,,,,,10,,79,72
22500,note_on,,1,0,18,,,,,,,,,,,,,,,,15,,43,72
22500,note_on,,0,0,18,,,,,,,,,,,,,,,,15,,74,72
22500,note_on,,0,0,18,,,,,,,,,,,,,,,,15,,70,72
22559,note_on,,59,0,17,,,,,,,,,,,,,,,,13,,43,0
22559,note_on,,59,0,10,,,,,,,,,,,,,,,,5,,79,0
22559,note_on,,59,0,6,,,,,,,,,,,,,,,,1,,79,0
22559,note_on,,0,0,18,,,,,,,,,,,,,,,,15,,67,0
22559,note_on,,0,0,18,,,,,,,,,,,,,,,,15,,70,0
22559,note_on,,0,0,18,,,,,,,,,,,,,,,,15,,74,0
22559,note_on,,59,0,14,,,,,,,,,,,,,,,,10,,79,0
22559,note_on,,59,0,7,,,,,,,,,,,,,,,,2,,43,0
22559,note_on,,59,0,18,,,,,,,,,,,,,,,,15,,43,0
22560,note_on,,1,0,7,,,,,,,,,,,,,,,,2,,52,72
22560,note_on,,1,0,18,,,,,,,,,,,,,,,,15,,52,72
22560,note_on,,0,0,18,,,,,,,,,,,,,,,,15,,72,72
22560,note_on,,0,0,18,,,,,,,,,,,,,,,,15,,67,72
22560,note_on,,0,0,18,,,,,,,,,,,,,,,,15,,60,72
22560,note_on,,1,0,14,,,,,,,,,,,,,,,,10,,72,72
22560,note_on,,1,0,10,,,,,,,,,,,,,,,,5,,72,72
22560,note_on,,1,0,6,,,,,,,,,,,,,,,,1,,72,72
22560,note_on,,1,0,17,,,,,,,,,,,,,,,,13,,52,72
22619,note_on,,59,0,7,,,,,,,,,,,,,,,,2,,52,0
22619,note_on,,59,0,18,,,,,,,,,,,,,,,,15,,52,0
22619,note_on,,0,0,18,,,,,,,,,,,,,,,,15,,60,0
22619,note_on,,59,0,17,,,,,,,,,,,,,,,,13,,52,0
22620,note_on,,1,0,7,,,,,,,,,,,,,,,,2,,48,72
22620,note_on,,1,0,18,,,,,,,,,,,,,,,,15,,48,72
22620,note_on,,1,0,17,,,,,,,,,,,,,,,,13,,48,72
22620,note_on,,0,0,18,,,,,,,,,,,,,,,,15,,64,72
22679,note_on,,59,0,17,,,,,,,,,,,,,,,,13,,48,0
22679,note_on,,119,0,14,,,,,,,,,,,,,,,,10,,72,0
22679,note_on,,119,0,6,,,,,,,,,,,,,,,,1,,72,0
22679,note_on,,119,0,10,,,,,,,,,,,,,,,,5,,72,0
22679,note_on,,0,0,18,,,,,,,,,,,,,,,,15,,48,0
22679,note_on,,0,0,18,,,,,,,,,,,,,,,,15,,64,0
22679,note_on,,0,0,18,,,,,,,,,,,,,,,,15,,67,0
22679,note_on,,59,0,18,,,,,,,,,,,,,,,,15,,72,0
22679,note_on,,59,0,7,,,,,,,,,,,,,,,,2,,48,0
22679,note_on,,239,0,12,,,,,,,,,,,,,,,,7,,58,0
22679,note_on,,239,0,15,,,,,,,,,,,,,,,,11,,70,0
22680,note_on,,0,0,18,,,,,,,,,,,,,,,,15,,65,72
22680,note_on,,0,0,18,,,,,,,,,,,,,,,,15,,68,72
22680,note_on,,1,0,18,,,,,,,,,,,,,,,,15,,53,72
22680,note_on,,1,0,14,,,,,,,,,,,,,,,,10,,72,72
22680,note_on,,1,0,17,,,,,,,,,,,,,,,,13,,53,72
22680,note_on,,1,0,10,,,,,,,,,,,,,,,,5,,72,72
22680,note_on,,1,0,12,,,,,,,,,,,,,,,,7,,56,72
22680,note_on,,0,0,18,,,,,,,,,,,,,,,,15,,72,72
22680,note_on,,1,0,6,,,,,,,,,,,,,,,,1,,72,72
22680,note_on,,1,0,15,,,,,,,,,,,,,,,,11,,68,72
22680,note_on,,1,0,7,,,,,,,,,,,,,,,,2,,53,72
22739,note_on,,59,0,7,,,,,,,,,,,,,,,,2,,53,0
22739,note_on,,59,0,15,,,,,,,,,,,,,,,,11,,68,0
22739,note_on,,59,0,17,,,,,,,,,,,,,,,,13,,53,0
22739,note_on,,59,0,12,,,,,,,,,,,,,,,,7,,56,0
22739,note_on,,59,0,18,,,,,,,,,,,,,,,,15,,53,0
22740,note_on,,1,0,17,,,,,,,,,,,,,,,,13,,56,72
22740,note_on,,1,0,18,,,,,,,,,,,,,,,,15,,56,72
22740,note_on,,1,0,12,,,,,,,,,,,,,,,,7,,53,72
22740,note_on,,1,0,15,,,,,,,,,,,,,,,,11,,65,72
22740,note_on,,1,0,7,,,,,,,,,,,,,,,,2,,56,72
22799,note_on,,59,0,7,,,,,,,,,,,,,,,,2,,56,0
22799,note_on,,59,0,17,,,,,,,,,,,,,,,,13,,56,0
22799,note_on,,59,0,15,,,,,,,,,,,,,,,,11,,65,0
22799,note_on,,59,0,12,,,,,,,,,,,,,,,,7,,53,0
22799,note_on,,0,0,18,,,,,,,,,,,,,,,,15,,65,0
22799,note_on,,0,0,18,,,,,,,,,,,,,,,,15,,68,0
22799,note_on,,59,0,18,,,,,,,,,,,,,,,,15,,72,0
22799,note_on,,0,0,18,,,,,,,,,,,,,,,,15,,56,0
22800,note_on,,1,0,18,,,,,,,,,,,,,,,,15,,46,72
22800,note_on,,0,0,18,,,,,,,,,,,,,,,,15,,73,72
22800,note_on,,0,0,18,,,,,,,,,,,,,,,,15,,68,72
22800,note_on,,1,0,15,,,,,,,,,,,,,,,,11,,73,72
22800,note_on,,1,0,12,,,,,,,,,,,,,,,,7,,61,72
22800,note_on,,1,0,7,,,,,,,,,,,,,,,,2,,46,72
22800,note_on,,1,0,17,,,,,,,,,,,,,,,,13,,46,72
22800,note_on,,0,0,18,,,,,,,,,,,,,,,,15,,65,72
22859,note_on,,59,0,18,,,,,,,,,,,,,,,,15,,46,0
22859,note_on,,59,0,7,,,,,,,,,,,,,,,,2,,46,0
22859,note_on,,59,0,17,,,,,,,,,,,,,,,,13,,46,0
22859,note_on,,179,0,14,,,,,,,,,,,,,,,,10,,72,0
22859,note_on,,179,0,10,,,,,,,,,,,,,,,,5,,72,0
22859,note_on,,179,0,6,,,,,,,,,,,,,,,,1,,72,0
22860,note_on,,1,0,7,,,,,,,,,,,,,,,,2,,58,72
22860,note_on,,1,0,18,,,,,,,,,,,,,,,,15,,58,72
22860,note_on,,1,0,6,,,,,,,,,,,,,,,,1,,70,72
22860,note_on,,1,0,14,,,,,,,,,,,,,,,,10,,70,72
22860,note_on,,1,0,17,,,,,,,,,,,,,,,,13,,58,72
22860,note_on,,1,0,10,,,,,,,,,,,,,,,,5,,70,72
22889,note_on,,29,0,10,,,,,,,,,,,,,,,,5,,70,0
22889,note_on,,29,0,14,,,,,,,,,,,,,,,,10,,70,0
22889,note_on,,29,0,6,,,,,,,,,,,,,,,,1,,70,0
22890,note_on,,1,0,6,,,,,,,,,,,,,,,,1,,68,72
22890,note_on,,1,0,14,,,,,,,,,,,,,,,,10,,68,72
22890,note_on,,1,0,10,,,,,,,,,,,,,,,,5,,68,72
22919,note_on,,29,0,14,,,,,,,,,,,,,,,,10,,68,0
22919,note_on,,59,0,18,,,,,,,,,,,,,,,,15,,58,0
22919,note_on,,29,0,10,,,,,,,,,,,,,,,,5,,68,0
22919,note_on,,59,0,7,,,,,,,,,,,,,,,,2,,58,0
22919,note_on,,29,0,6,,,,,,,,,,,,,,,,1,,68,0
22919,note_on,,59,0,17,,,,,,,,,,,,,,,,13,,58,0
22920,note_on,,1,0,18,,,,,,,,,,,,,,,,15,,60,72
22920,note_on,,1,0,6,,,,,,,,,,,,,,,,1,,67,72
22920,note_on,,1,0,10,,,,,,,,,,,,,,,,5,,67,72
22920,note_on,,1,0,7,,,,,,,,,,,,,,,,2,,60,72
22920,note_on,,1,0,17,,,,,,,,,,,,,,,,13,,60,72
22920,note_on,,1,0,14,,,,,,,,,,,,,,,,10,,67,72
22979,note_on,,59,0,6,,,,,,,,,,,,,,,,1,,67,0
22979,note_on,,59,0,10,,,,,,,,,,,,,,,,5,,67,0
22979,note_on,,59,0,7,,,,,,,,,,,,,,,,2,,60,0
22979,note_on,,59,0,18,,,,,,,,,,,,,,,,15,,60,0
22979,note_on,,59,0,17,,,,,,,,,,,,,,,,13,,60,0
22979,note_on,,179,0,15,,,,,,,,,,,,,,,,11,,73,0
22979,note_on,,179,0,12,,,,,,,,,,,,,,,,7,,61,0
22979,note_on,,59,0,14,,,,,,,,,,,,,,,,10,,67,0
22980,note_on,,1,0,14,,,,,,,,,,,,,,,,10,,65,72
22980,note_on,,1,0,10,,,,,,,,,,,,,,,,5,,65,72
22980,note_on,,1,0,6,,,,,,,,,,,,,,,,1,,65,72
22980,note_on,,1,0,18,,,,,,,,,,,,,,,,15,,61,72
22980,note_on,,1,0,17,,,,,,,,,,,,,,,,13,,61,72
22980,note_on,,1,0,7,,,,,,,,,,,,,,,,2,,61,72
22980,note_on,,1,0,12,,,,,,,,,,,,,,,,7,,61,72
22980,note_on,,1,0,15,,,,,,,,,,,,,,,,11,,73,72
23039,note_on,,59,0,15,,,,,,,,,,,,,,,,11,,73,0
23039,note_on,,59,0,17,,,,,,,,,,,,,,,,13,,61,0
23039,note_on,,59,0,7,,,,,,,,,,,,,,,,2,,61,0
23039,note_on,,59,0,6,,,,,,,,,,,,,,,,1,,65,0
23039,note_on,,0,0,18,,,,,,,,,,,,,,,,15,,61,0
23039,note_on,,0,0,18,,,,,,,,,,,,,,,,15,,68,0
23039,note_on,,59,0,18,,,,,,,,,,,,,,,,15,,73,0
23039,note_on,,59,0,10,,,,,,,,,,,,,,,,5,,65,0
23039,note_on,,59,0,12,,,,,,,,,,,,,,,,7,,61,0
23039,note_on,,0,0,18,,,,,,,,,,,,,,,,15,,65,0
23039,note_on,,59,0,14,,,,,,,,,,,,,,,,10,,65,0
23040,note_on,,1,0,14,,,,,,,,,,,,,,,,10,,64,72
23040,note_on,,1,0,7,,,,,,,,,,,,,,,,2,,60,72
23040,note_on,,1,0,15,,,,,,,,,,,,,,,,11,,72,72
23040,note_on,,1,0,17,,,,,,,,,,,,,,,,13,,60,72
23040,note_on,,1,0,6,,,,,,,,,,,,,,,,1,,64,72
23040,note_on,,0,0,18,,,,,,,,,,,,,,,,15,,64,72
23040,note_on,,1,0,18,,,,,,,,,,,,,,,,15,,60,72
23040,note_on,,1,0,12,,,,,,,,,,,,,,,,7,,60,72
23040,note_on,,0,0,18,,,,,,,,,,,,,,,,15,,67,72
23040,note_on,,1,0,10,,,,,,,,,,,,,,,,5,,64,72
23099,note_on,,59,0,17,,,,,,,,,,,,,,,,13,,60,0
23099,note_on,,59,0,7,,,,,,,,,,,,,,,,2,,60,0
23099,note_on,,59,0,18,,,,,,,,,,,,,,,,15,,60,0
23100,note_on,,1,0,18,,,,,,,,,,,,,,,,15,,48,72
23100,note_on,,1,0,17,,,,,,,,,,,,,,,,13,,48,72
23100,note_on,,1,0,7,,,,,,,,,,,,,,,,2,,48,72
23159,note_on,,59,0,17,,,,,,,,,,,,,,,,13,,48,0
23159,note_on,,59,0,18,,,,,,,,,,,,,,,,15,,48,0
23159,note_on,,59,0,7,,,,,,,,,,,,,,,,2,,48,0
23159,note_on,,119,0,15,,,,,,,,,,,,,,,,11,,72,0
23160,note_on,,1,0,17,,,,,,,,,,,,,,,,13,,52,72
23160,note_on,,1,0,7,,,,,,,,,,,,,,,,2,,52,72
23160,note_on,,1,0,18,,,,,,,,,,,,,,,,15,,52,72
23219,note_on,,0,0,18,,,,,,,,,,,,,,,,15,,52,0
23219,note_on,,59,0,18,,,,,,,,,,,,,,,,15,,67,0
23219,note_on,,59,0,17,,,,,,,,,,,,,,,,13,,52,0
23219,note_on,,59,0,7,,,,,,,,,,,,,,,,2,,52,0
23219,note_on,,0,0,18,,,,,,,,,,,,,,,,15,,64,0
23220,note_on,,0,0,18,,,,,,,,,,,,,,,,15,,64,72
23220,note_on,,1,0,17,,,,,,,,,,,,,,,,13,,48,72
23220,note_on,,0,0,18,,,,,,,,,,,,,,,,15,,67,72
23220,note_on,,0,0,18,,,,,,,,,,,,,,,,15,,72,72
23220,note_on,,1,0,18,,,,,,,,,,,,,,,,15,,48,72
23220,note_on,,1741,0,11,,,,,,,,,,,,,,,,6,,67,72
23220,note_on,,1,0,7,,,,,,,,,,,,,,,,2,,48,72
23220,note_on,,61,0,15,,,,,,,,,,,,,,,,11,,67,72
23279,note_on,,59,0,15,,,,,,,,,,,,,,,,11,,67,0
23279,note_on,,59,0,7,,,,,,,,,,,,,,,,2,,48,0
23279,note_on,,239,0,6,,,,,,,,,,,,,,,,1,,64,0
23279,note_on,,59,0,11,,,,,,,,,,,,,,,,6,,67,0
23279,note_on,,59,0,17,,,,,,,,,,,,,,,,13,,48,0
23279,note_on,,239,0,14,,,,,,,,,,,,,,,,10,,64,0
23279,note_on,,239,0,10,,,,,,,,,,,,,,,,5,,64,0
23279,note_on,,239,0,12,,,,,,,,,,,,,,,,7,,60,0
23279,note_on,,0,0,18,,,,,,,,,,,,,,,,15,,64,0
23279,note_on,,0,0,18,,,,,,,,,,,,,,,,15,,67,0
23279,note_on,,0,0,18,,,,,,,,,,,,,,,,15,,72,0
23279,note_on,,59,0,18,,,,,,,,,,,,,,,,15,,48,0
23280,note_on,,0,0,18,,,,,,,,,,,,,,,,15,,68,72
23280,note_on,,1,0,18,,,,,,,,,,,,,,,,15,,53,72
23280,note_on,,1,0,11,,,,,,,,,,,,,,,,6,,68,72
23280,note_on,,1,0,15,,,,,,,,,,,,,,,,11,,68,72
23280,note_on,,0,0,18,,,,,,,,,,,,,,,,15,,65,72
23280,note_on,,1,0,7,,,,,,,,,,,,,,,,2,,53,72
23280,note_on,,1,0,17,,,,,,,,,,,,,,,,13,,53,72
23280,note_on,,0,0,18,,,,,,,,,,,,,,,,15,,60,72
23339,note_on,,59,0,15,,,,,,,,,,,,,,,,11,,68,0
23339,note_on,,59,0,11,,,,,,,,,,,,,,,,6,,68,0
23339,note_on,,59,0,7,,,,,,,,,,,,,,,,2,,53,0
23339,note_on,,59,0,18,,,,,,,,,,,,,,,,15,,53,0
23339,note_on,,59,0,17,,,,,,,,,,,,,,,,13,,53,0
23340,note_on,,1,0,7,,,,,,,,,,,,,,,,2,,56,72
23340,note_on,,1,0,15,,,,,,,,,,,,,,,,11,,67,72
23340,note_on,,1,0,18,,,,,,,,,,,,,,,,15,,56,72
23340,note_on,,1,0,17,,,,,,,,,,,,,,,,13,,56,72
23340,note_on,,1,0,11,,,,,,,,,,,,,,,,6,,67,72
23369,note_on,,29,0,15,,,,,,,,,,,,,,,,11,,67,0
23369,note_on,,29,0,11,,,,,,,,,,,,,,,,6,,67,0
23370,note_on,,1,0,11,,,,,,,,,,,,,,,,6,,65,72
23370,note_on,,1,0,15,,,,,,,,,,,,,,,,11,,65,72
23399,note_on,,59,0,7,,,,,,,,,,,,,,,,2,,56,0
23399,note_on,,29,0,11,,,,,,,,,,,,,,,,6,,65,0
23399,note_on,,59,0,17,,,,,,,,,,,,,,,,13,,56,0
23399,note_on,,29,0,15,,,,,,,,,,,,,,,,11,,65,0
23399,note_on,,59,0,18,,,,,,,,,,,,,,,,15,,68,0
23399,note_on,,0,0,18,,,,,,,,,,,,,,,,15,,65,0
23399,note_on,,0,0,18,,,,,,,,,,,,,,,,15,,60,0
23399,note_on,,0,0,18,,,,,,,,,,,,,,,,15,,56,0
23400,note_on,,1,0,11,,,,,,,,,,,,,,,,6,,63,72
23400,note_on,,1,0,18,,,,,,,,,,,,,,,,15,,55,72
23400,note_on,,0,0,18,,,,,,,,,,,,,,,,15,,70,72
23400,note_on,,1,0,15,,,,,,,,,,,,,,,,11,,63,72
23400,note_on,,0,0,18,,,,,,,,,,,,,,,,15,,64,72
23400,note_on,,1,0,7,,,,,,,,,,,,,,,,2,,55,72
23400,note_on,,1,0,17,,,,,,,,,,,,,,,,13,,55,72
23400,note_on,,0,0,18,,,,,,,,,,,,,,,,15,,58,72
23459,note_on,,59,0,18,,,,,,,,,,,,,,,,15,,55,0
23459,note_on,,59,0,7,,,,,,,,,,,,,,,,2,,55,0
23459,note_on,,59,0,17,,,,,,,,,,,,,,,,13,,55,0
23459,note_on,,59,0,15,,,,,,,,,,,,,,,,11,,63,0
23459,note_on,,59,0,11,,,,,,,,,,,,,,,,6,,63,0
23460,note_on,,1,0,15,,,,,,,,,,,,,,,,11,,61,72
23460,note_on,,1,0,7,,,,,,,,,,,,,,,,2,,51,72
23460,note_on,,1,0,17,,,,,,,,,,,,,,,,13,,51,72
23460,note_on,,2461,0,16,,,,,,,,,,,,,,,,12,,67,72
23460,note_on,,1,0,18,,,,,,,,,,,,,,,,15,,51,72
23460,note_on,,181,0,12,,,,,,,,,,,,,,,,7,,55,72
23460,note_on,,1,0,11,,,,,,,,,,,,,,,,6,,61,72
23519,note_on,,0,0,18,,,,,,,,,,,,,,,,15,,51,0
23519,note_on,,59,0,16,,,,,,,,,,,,,,,,12,,67,0
23519,note_on,,59,0,17,,,,,,,,,,,,,,,,13,,51,0
23519,note_on,,59,0,15,,,,,,,,,,,,,,,,11,,61,0
23519,note_on,,59,0,18,,,,,,,,,,,,,,,,15,,70,0
23519,note_on,,0,0,18,,,,,,,,,,,,,,,,15,,64,0
23519,note_on,,0,0,18,,,,,,,,,,,,,,,,15,,58,0
23519,note_on,,59,0,7,,,,,,,,,,,,,,,,2,,51,0
23519,note_on,,59,0,12,,,,,,,,,,,,,,,,7,,55,0
23519,note_on,,59,0,11,,,,,,,,,,,,,,,,6,,61,0
23520,note_on,,1,0,17,,,,,,,,,,,,,,,,13,,56,72
23520,note_on,,1,0,18,,,,,,,,,,,,,,,,15,,56,72
23520,note_on,,1,0,15,,,,,,,,,,,,,,,,11,,60,72
23520,note_on,,1,0,7,,,,,,,,,,,,,,,,2,,56,72
23520,note_on,,1,0,12,,,,,,,,,,,,,,,,7,,60,72
23520,note_on,,1,0,11,,,,,,,,,,,,,,,,6,,60,72
23520,note_on,,0,0,18,,,,,,,,,,,,,,,,15,,60,72
23520,note_on,,0,0,18,,,,,,,,,,,,,,,,15,,63,72
23520,note_on,,1,0,16,,,,,,,,,,,,,,,,12,,72,72
23579,note_on,,59,0,18,,,,,,,,,,,,,,,,15,,56,0
23579,note_on,,59,0,17,,,,,,,,,,,,,,,,13,,56,0
23579,note_on,,59,0,12,,,,,,,,,,,,,,,,7,,60,0
23579,note_on,,59,0,7,,,,,,,,,,,,,,,,2,,56,0
23579,note_on,,59,0,16,,,,,,,,,,,,,,,,12,,72,0
23580,note_on,,1,0,17,,,,,,,,,,,,,,,,13,,53,72
23580,note_on,,1,0,18,,,,,,,,,,,,,,,,15,,53,72
23580,note_on,,1,0,16,,,,,,,,,,,,,,,,12,,70,72
23580,note_on,,1,0,12,,,,,,,,,,,,,,,,7,,58,72
23580,note_on,,1,0,7,,,,,,,,,,,,,,,,2,,53,72
23609,note_on,,29,0,16,,,,,,,,,,,,,,,,12,,70,0
23609,note_on,,29,0,12,,,,,,,,,,,,,,,,7,,58,0
23609,note_on,,89,0,11,,,,,,,,,,,,,,,,6,,60,0
23610,note_on,,1,0,11,,,,,,,,,,,,,,,,6,,60,72
23610,note_on,,1,0,16,,,,,,,,,,,,,,,,12,,68,72
23610,note_on,,1,0,12,,,,,,,,,,,,,,,,7,,56,72
23639,note_on,,29,0,16,,,,,,,,,,,,,,,,12,,68,0
23639,note_on,,59,0,18,,,,,,,,,,,,,,,,15,,53,0
23639,note_on,,29,0,12,,,,,,,,,,,,,,,,7,,56,0
23639,note_on,,119,0,15,,,,,,,,,,,,,,,,11,,60,0
23639,note_on,,59,0,7,,,,,,,,,,,,,,,,2,,53,0
23639,note_on,,29,0,11,,,,,,,,,,,,,,,,6,,60,0
23639,note_on,,59,0,17,,,,,,,,,,,,,,,,13,,53,0
23640,note_on,,1,0,17,,,,,,,,,,,,,,,,13,,48,72
23640,note_on,,1,0,12,,,,,,,,,,,,,,,,7,,55,72
23640,note_on,,1,0,11,,,,,,,,,,,,,,,,6,,60,72
23640,note_on,,1,0,16,,,,,,,,,,,,,,,,12,,67,72
23640,note_on,,1,0,18,,,,,,,,,,,,,,,,15,,48,72
23640,note_on,,1,0,7,,,,,,,,,,,,,,,,2,,48,72
23699,note_on,,59,0,12,,,,,,,,,,,,,,,,7,,55,0
23699,note_on,,0,0,18,,,,,,,,,,,,,,,,15,,48,0
23699,note_on,,0,0,18,,,,,,,,,,,,,,,,15,,60,0
23699,note_on,,59,0,18,,,,,,,,,,,,,,,,15,,63,0
23699,note_on,,59,0,16,,,,,,,,,,,,,,,,12,,67,0
23699,note_on,,59,0,7,,,,,,,,,,,,,,,,2,,48,0
23699,note_on,,59,0,17,,,,,,,,,,,,,,,,13,,48,0
23700,note_on,,1,0,17,,,,,,,,,,,,,,,,13,,41,72
23700,note_on,,1,0,7,,,,,,,,,,,,,,,,2,,41,72
23700,note_on,,1,0,18,,,,,,,,,,,,,,,,15,,41,72
23700,note_on,,0,0,18,,,,,,,,,,,,,,,,15,,68,72
23700,note_on,,1,0,16,,,,,,,,,,,,,,,,12,,65,72
23700,note_on,,0,0,18,,,,,,,,,,,,,,,,15,,65,72
23700,note_on,,1,0,12,,,,,,,,,,,,,,,,7,,53,72
23700,note_on,,0,0,18,,,,,,,,,,,,,,,,15,,60,72
23759,note_on,,0,0,18,,,,,,,,,,,,,,,,15,,65,0
23759,note_on,,59,0,17,,,,,,,,,,,,,,,,13,,41,0
23759,note_on,,0,0,18,,,,,,,,,,,,,,,,15,,68,0
23759,note_on,,59,0,12,,,,,,,,,,,,,,,,7,,53,0
23759,note_on,,59,0,16,,,,,,,,,,,,,,,,12,,65,0
23759,note_on,,59,0,7,,,,,,,,,,,,,,,,2,,41,0
23759,note_on,,119,0,11,,,,,,,,,,,,,,,,6,,60,0
23759,note_on,,0,0,18,,,,,,,,,,,,,,,,15,,60,0
23759,note_on,,59,0,18,,,,,,,,,,,,,,,,15,,41,0
23760,note_on,,0,0,18,,,,,,,,,,,,,,,,15,,67,72
23760,note_on,,0,0,18,,,,,,,,,,,,,,,,15,,64,72
23760,note_on,,0,0,18,,,,,,,,,,,,,,,,15,,60,72
23760,note_on,,1,0,18,,,,,,,,,,,,,,,,15,,48,72
23760,note_on,,1,0,17,,,,,,,,,,,,,,,,13,,48,72
23760,note_on,,1,0,16,,,,,,,,,,,,,,,,12,,64,72
23760,note_on,,1,0,7,,,,,,,,,,,,,,,,2,,48,72
23760,note_on,,1,0,12,,,,,,,,,,,,,,,,7,,64,72
23819,note_on,,59,0,17,,,,,,,,,,,,,,,,13,,48,0
23819,note_on,,59,0,7,,,,,,,,,,,,,,,,2,,48,0
23819,note_on,,59,0,18,,,,,,,,,,,,,,,,15,,48,0
23820,note_on,,1,0,17,,,,,,,,,,,,,,,,13,,50,72
23820,note_on,,1,0,7,,,,,,,,,,,,,,,,2,,50,72
23820,note_on,,1,0,18,,,,,,,,,,,,,,,,15,,50,72
23849,note_on,,89,0,12,,,,,,,,,,,,,,,,7,,64,0
23849,note_on,,89,0,16,,,,,,,,,,,,,,,,12,,64,0
23850,note_on,,1,0,12,,,,,,,,,,,,,,,,7,,62,72
23850,note_on,,1,0,16,,,,,,,,,,,,,,,,12,,62,72
23879,note_on,,59,0,7,,,,,,,,,,,,,,,,2,,50,0
23879,note_on,,29,0,12,,,,,,,,,,,,,,,,7,,62,0
23879,note_on,,59,0,17,,,,,,,,,,,,,,,,13,,50,0
23879,note_on,,59,0,18,,,,,,,,,,,,,,,,15,,50,0
23879,note_on,,29,0,16,,,,,,,,,,,,,,,,12,,62,0
23880,note_on,,1,0,16,,,,,,,,,,,,,,,,12,,60,72
23880,note_on,,1,0,12,,,,,,,,,,,,,,,,7,,60,72
23880,note_on,,1,0,7,,,,,,,,,,,,,,,,2,,52,72
23880,note_on,,1,0,17,,,,,,,,,,,,,,,,13,,52,72
23880,note_on,,1,0,18,,,,,,,,,,,,,,,,15,,52,72
23939,note_on,,59,0,7,,,,,,,,,,,,,,,,2,,52,0
23939,note_on,,59,0,17,,,,,,,,,,,,,,,,13,,52,0
23939,note_on,,0,0,18,,,,,,,,,,,,,,,,15,,64,0
23939,note_on,,0,0,18,,,,,,,,,,,,,,,,15,,52,0
23939,note_on,,0,0,18,,,,,,,,,,,,,,,,15,,60,0
23939,note_on,,59,0,18,,,,,,,,,,,,,,,,15,,67,0
23940,note_on,,1,0,17,,,,,,,,,,,,,,,,13,,64,72
23940,note_on,,661,0,10,,,,,,,,,,,,,,,,5,,79,72
23940,note_on,,661,0,14,,,,,,,,,,,,,,,,10,,79,72
23940,note_on,,0,0,18,,,,,,,,,,,,,,,,15,,67,72
23940,note_on,,0,0,18,,,,,,,,,,,,,,,,15,,72,72
23940,note_on,,1,0,18,,,,,,,,,,,,,,,,15,,64,72
23940,note_on,,661,0,6,,,,,,,,,,,,,,,,1,,79,72
23940,note_on,,1,0,7,,,,,,,,,,,,,,,,2,,64,72
23999,note_on,,59,0,10,,,,,,,,,,,,,,,,5,,79,0
23999,note_on,,59,0,17,,,,,,,,,,,,,,,,13,,64,0
23999,note_on,,0,0,18,,,,,,,,,,,,,,,,15,,67,0
23999,note_on,,0,0,18,,,,,,,,,,,,,,,,15,,72,0
23999,note_on,,59,0,18,,,,,,,,,,,,,,,,15,,64,0
23999,note_on,,59,0,7,,,,,,,,,,,,,,,,2,,64,0
23999,note_on,,59,0,6,,,,,,,,,,,,,,,,1,,79,0
23999,note_on,,119,0,16,,,,,,,,,,,,,,,,12,,60,0
23999,note_on,,119,0,12,,,,,,,,,,,,,,,,7,,60,0
23999,note_on,,59,0,14,,,,,,,,,,,,,,,,10,,79,0
24000,note_on,,1,0,7,,,,,,,,,,,,,,,,2,,65,72
24000,note_on,,1,0,6,,,,,,,,,,,,,,,,1,,80,72
24000,note_on,,1,0,10,,,,,,,,,,,,,,,,5,,80,72
24000,note_on,,1,0,18,,,,,,,,,,,,,,,,15,,65,72
24000,note_on,,0,0,18,,,,,,,,,,,,,,,,15,,77,72
24000,note_on,,0,0,18,,,,,,,,,,,,,,,,15,,72,72
24000,note_on,,0,0,18,,,,,,,,,,,,,,,,15,,68,72
24000,note_on,,1,0,14,,,,,,,,,,,,,,,,10,,80,72
24000,note_on,,1,0,17,,,,,,,,,,,,,,,,13,,65,72
24059,note_on,,59,0,6,,,,,,,,,,,,,,,,1,,80,0
24059,note_on,,59,0,14,,,,,,,,,,,,,,,,10,,80,0
24059,note_on,,59,0,17,,,,,,,,,,,,,,,,13,,65,0
24059,note_on,,59,0,18,,,,,,,,,,,,,,,,15,,65,0
24059,note_on,,59,0,7,,,,,,,,,,,,,,,,2,,65,0
24059,note_on,,59,0,10,,,,,,,,,,,,,,,,5,,80,0
24060,note_on,,1,0,18,,,,,,,,,,,,,,,,15,,56,72
24060,note_on,,1,0,14,,,,,,,,,,,,,,,,10,,79,72
24060,note_on,,1,0,7,,,,,,,,,,,,,,,,2,,56,72
24060,note_on,,1,0,6,,,,,,,,,,,,,,,,1,,79,72
24060,note_on,,1,0,17,,,,,,,,,,,,,,,,13,,56,72
24060,note_on,,1,0,10,,,,,,,,,,,,,,,,5,,79,72
24089,note_on,,29,0,10,,,,,,,,,,,,,,,,5,,79,0
24089,note_on,,29,0,14,,,,,,,,,,,,,,,,10,,79,0
24089,note_on,,29,0,6,,,,,,,,,,,,,,,,1,,79,0
24090,note_on,,1,0,10,,,,,,,,,,,,,,,,5,,77,72
24090,note_on,,1,0,14,,,,,,,,,,,,,,,,10,,77,72
24090,note_on,,1,0,6,,,,,,,,,,,,,,,,1,,77,72
24119,note_on,,29,0,14,,,,,,,,,,,,,,,,10,,77,0
24119,note_on,,29,0,10,,,,,,,,,,,,,,,,5,,77,0
24119,note_on,,59,0,17,,,,,,,,,,,,,,,,13,,56,0
24119,note_on,,0,0,18,,,,,,,,,,,,,,,,15,,56,0
24119,note_on,,0,0,18,,,,,,,,,,,,,,,,15,,68,0
24119,note_on,,0,0,18,,,,,,,,,,,,,,,,15,,72,0
24119,note_on,,59,0,18,,,,,,,,,,,,,,,,15,,77,0
24119,note_on,,59,0,7,,,,,,,,,,,,,,,,2,,56,0
24119,note_on,,29,0,6,,,,,,,,,,,,,,,,1,,77,0
24120,note_on,,1,0,6,,,,,,,,,,,,,,,,1,,75,72
24120,note_on,,1,0,14,,,,,,,,,,,,,,,,10,,75,72
24120,note_on,,1,0,17,,,,,,,,,,,,,,,,13,,55,72
24120,note_on,,1,0,18,,,,,,,,,,,,,,,,15,,55,72
24120,note_on,,1,0,7,,,,,,,,,,,,,,,,2,,55,72
24120,note_on,,0,0,18,,,,,,,,,,,,,,,,15,,75,72
24120,note_on,,0,0,18,,,,,,,,,,,,,,,,15,,70,72
24120,note_on,,1,0,10,,,,,,,,,,,,,,,,5,,75,72
24120,note_on,,0,0,18,,,,,,,,,,,,,,,,15,,63,72
24179,note_on,,59,0,7,,,,,,,,,,,,,,,,2,,55,0
24179,note_on,,59,0,10,,,,,,,,,,,,,,,,5,,75,0
24179,note_on,,59,0,17,,,,,,,,,,,,,,,,13,,55,0
24179,note_on,,59,0,14,,,,,,,,,,,,,,,,10,,75,0
24179,note_on,,59,0,18,,,,,,,,,,,,,,,,15,,55,0
24179,note_on,,59,0,6,,,,,,,,,,,,,,,,1,,75,0
24180,note_on,,2701,0,13,,,,,,,,,,,,,,,,8,,55,72
24180,note_on,,181,0,12,,,,,,,,,,,,,,,,7,,63,72
24180,note_on,,1,0,18,,,,,,,,,,,,,,,,15,,55,72
24180,note_on,,181,0,16,,,,,,,,,,,,,,,,12,,63,72
24180,note_on,,1,0,10,,,,,,,,,,,,,,,,5,,73,72
24180,note_on,,1,0,14,,,,,,,,,,,,,,,,10,,73,72
24180,note_on,,1,0,17,,,,,,,,,,,,,,,,13,,55,72
24180,note_on,,1,0,6,,,,,,,,,,,,,,,,1,,73,72
24180,note_on,,421,0,11,,,,,,,,,,,,,,,,6,,70,72
24180,note_on,,541,0,15,,,,,,,,,,,,,,,,11,,70,72
24180,note_on,,1,0,7,,,,,,,,,,,,,,,,2,,55,72
24239,note_on,,0,0,18,,,,,,,,,,,,,,,,15,,55,0
24239,note_on,,0,0,18,,,,,,,,,,,,,,,,15,,63,0
24239,note_on,,59,0,12,,,,,,,,,,,,,,,,7,,63,0
24239,note_on,,59,0,16,,,,,,,,,,,,,,,,12,,63,0
24239,note_on,,0,0,18,,,,,,,,,,,,,,,,15,,70,0
24239,note_on,,59,0,15,,,,,,,,,,,,,,,,11,,70,0
24239,note_on,,59,0,6,,,,,,,,,,,,,,,,1,,73,0
24239,note_on,,59,0,18,,,,,,,,,,,,,,,,15,,75,0
24239,note_on,,59,0,13,,,,,,,,,,,,,,,,8,,55,0
24239,note_on,,59,0,11,,,,,,,,,,,,,,,,6,,70,0
24239,note_on,,59,0,17,,,,,,,,,,,,,,,,13,,55,0
24239,note_on,,59,0,14,,,,,,,,,,,,,,,,10,,73,0
24239,note_on,,59,0,10,,,,,,,,,,,,,,,,5,,73,0
24239,note_on,,59,0,7,,,,,,,,,,,,,,,,2,,55,0
24240,note_on,,1,0,11,,,,,,,,,,,,,,,,6,,68,72
24240,note_on,,1,0,15,,,,,,,,,,,,,,,,11,,68,72
24240,note_on,,1,0,7,,,,,,,,,,,,,,,,2,,56,72
24240,note_on,,1,0,17,,,,,,,,,,,,,,,,13,,56,72
24240,note_on,,1,0,14,,,,,,,,,,,,,,,,10,,72,72
24240,note_on,,1,0,12,,,,,,,,,,,,,,,,7,,63,72
24240,note_on,,1,0,18,,,,,,,,,,,,,,,,15,,56,72
24240,note_on,,0,0,18,,,,,,,,,,,,,,,,15,,72,72
24240,note_on,,0,0,18,,,,,,,,,,,,,,,,15,,68,72
24240,note_on,,1,0,16,,,,,,,,,,,,,,,,12,,63,72
24240,note_on,,0,0,18,,,,,,,,,,,,,,,,15,,63,72
24240,note_on,,1,0,13,,,,,,,,,,,,,,,,8,,56,72
24240,note_on,,1,0,10,,,,,,,,,,,,,,,,5,,72,72
24240,note_on,,1,0,6,,,,,,,,,,,,,,,,1,,72,72
24299,note_on,,0,0,18,,,,,,,,,,,,,,,,15,,68,0
24299,note_on,,0,0,18,,,,,,,,,,,,,,,,15,,72,0
24299,note_on,,0,0,18,,,,,,,,,,,,,,,,15,,63,0
24299,note_on,,59,0,18,,,,,,,,,,,,,,,,15,,56,0
24299,note_on,,59,0,12,,,,,,,,,,,,,,,,7,,63,0
24299,note_on,,59,0,7,,,,,,,,,,,,,,,,2,,56,0
24299,note_on,,59,0,13,,,,,,,,,,,,,,,,8,,56,0
24299,note_on,,59,0,11,,,,,,,,,,,,,,,,6,,68,0
24299,note_on,,59,0,17,,,,,,,,,,,,,,,,13,,56,0
24300,note_on,,1,0,17,,,,,,,,,,,,,,,,13,,55,72
24300,note_on,,1,0,7,,,,,,,,,,,,,,,,2,,55,72
24300,note_on,,0,0,18,,,,,,,,,,,,,,,,15,,70,72
24300,note_on,,1,0,18,,,,,,,,,,,,,,,,15,,55,72
24300,note_on,,1,0,11,,,,,,,,,,,,,,,,6,,68,72
24300,note_on,,1,0,13,,,,,,,,,,,,,,,,8,,55,72
24300,note_on,,1,0,12,,,,,,,,,,,,,,,,7,,65,72
24329,note_on,,29,0,17,,,,,,,,,,,,,,,,13,,55,0
24329,note_on,,89,0,15,,,,,,,,,,,,,,,,11,,68,0
24329,note_on,,89,0,14,,,,,,,,,,,,,,,,10,,72,0
24329,note_on,,29,0,13,,,,,,,,,,,,,,,,8,,55,0
24329,note_on,,89,0,16,,,,,,,,,,,,,,,,12,,63,0
24329,note_on,,89,0,10,,,,,,,,,,,,,,,,5,,72,0
24329,note_on,,89,0,6,,,,,,,,,,,,,,,,1,,72,0
24329,note_on,,29,0,18,,,,,,,,,,,,,,,,15,,55,0
24329,note_on,,0,0,18,,,,,,,,,,,,,,,,15,,70,0
24329,note_on,,29,0,7,,,,,,,,,,,,,,,,2,,55,0
24330,note_on,,1,0,10,,,,,,,,,,,,,,,,5,,72,72
24330,note_on,,1,0,7,,,,,,,,,,,,,,,,2,,53,72
24330,note_on,,1,0,16,,,,,,,,,,,,,,,,12,,65,72
24330,note_on,,1,0,17,,,,,,,,,,,,,,,,13,,53,72
24330,note_on,,1,0,15,,,,,,,,,,,,,,,,11,,68,72
24330,note_on,,1,0,18,,,,,,,,,,,,,,,,15,,53,72
24330,note_on,,1,0,13,,,,,,,,,,,,,,,,8,,53,72
24330,note_on,,0,0,18,,,,,,,,,,,,,,,,15,,68,72
24330,note_on,,1,0,6,,,,,,,,,,,,,,,,1,,72,72
24330,note_on,,1,0,14,,,,,,,,,,,,,,,,10,,72,72
24359,note_on,,29,0,15,,,,,,,,,,,,,,,,11,,68,0
24359,note_on,,29,0,10,,,,,,,,,,,,,,,,5,,72,0
24359,note_on,,29,0,7,,,,,,,,,,,,,,,,2,,53,0
24359,note_on,,59,0,12,,,,,,,,,,,,,,,,7,,65,0
24359,note_on,,29,0,6,,,,,,,,,,,,,,,,1,,72,0
24359,note_on,,29,0,16,,,,,,,,,,,,,,,,12,,65,0
24359,note_on,,59,0,11,,,,,,,,,,,,,,,,6,,68,0
24359,note_on,,29,0,14,,,,,,,,,,,,,,,,10,,72,0
24359,note_on,,0,0,18,,,,,,,,,,,,,,,,15,,68,0
24359,note_on,,29,0,18,,,,,,,,,,,,,,,,15,,53,0
24359,note_on,,29,0,13,,,,,,,,,,,,,,,,8,,53,0
24359,note_on,,29,0,17,,,,,,,,,,,,,,,,13,,53,0
24360,note_on,,1,0,17,,,,,,,,,,,,,,,,13,,51,72
24360,note_on,,1,0,14,,,,,,,,,,,,,,,,10,,72,72
24360,note_on,,1,0,12,,,,,,,,,,,,,,,,7,,60,72
24360,note_on,,1,0,10,,,,,,,,,,,,,,,,5,,72,72
24360,note_on,,1,0,6,,,,,,,,,,,,,,,,1,,72,72
24360,note_on,,1,0,16,,,,,,,,,,,,,,,,12,,60,72
24360,note_on,,1,0,7,,,,,,,,,,,,,,,,2,,51,72
24360,note_on,,1,0,13,,,,,,,,,,,,,,,,8,,51,72
24360,note_on,,1,0,15,,,,,,,,,,,,,,,,11,,67,72
24360,note_on,,1,0,11,,,,,,,,,,,,,,,,6,,67,72
24360,note_on,,1,0,18,,,,,,,,,,,,,,,,15,,51,72
24360,note_on,,0,0,18,,,,,,,,,,,,,,,,15,,67,72
24360,note_on,,0,0,18,,,,,,,,,,,,,,,,15,,63,72
24419,note_on,,59,0,11,,,,,,,,,,,,,,,,6,,67,0
24419,note_on,,0,0,18,,,,,,,,,,,,,,,,15,,63,0
24419,note_on,,59,0,14,,,,,,,,,,,,,,,,10,,72,0
24419,note_on,,59,0,12,,,,,,,,,,,,,,,,7,,60,0
24419,note_on,,0,0,18,,,,,,,,,,,,,,,,15,,67,0
24419,note_on,,59,0,18,,,,,,,,,,,,,,,,15,,51,0
24419,note_on,,59,0,10,,,,,,,,,,,,,,,,5,,72,0
24419,note_on,,59,0,17,,,,,,,,,,,,,,,,13,,51,0
24419,note_on,,59,0,7,,,,,,,,,,,,,,,,2,,51,0
24419,note_on,,59,0,15,,,,,,,,,,,,,,,,11,,67,0
24419,note_on,,59,0,6,,,,,,,,,,,,,,,,1,,72,0
24419,note_on,,59,0,16,,,,,,,,,,,,,,,,12,,60,0
24419,note_on,,59,0,13,,,,,,,,,,,,,,,,8,,51,0
24420,note_on,,1,0,6,,,,,,,,,,,,,,,,1,,70,72
24420,note_on,,1,0,12,,,,,,,,,,,,,,,,7,,53,72
24420,note_on,,1,0,10,,,,,,,,,,,,,,,,5,,70,72
24420,note_on,,1,0,18,,,,,,,,,,,,,,,,15,,49,72
24420,note_on,,1,0,7,,,,,,,,,,,,,,,,2,,49,72
24420,note_on,,1,0,11,,,,,,,,,,,,,,,,6,,65,72
24420,note_on,,1,0,14,,,,,,,,,,,,,,,,10,,70,72
24420,note_on,,0,0,18,,,,,,,,,,,,,,,,15,,70,72
24420,note_on,,1,0,13,,,,,,,,,,,,,,,,8,,49,72
24420,note_on,,1,0,17,,,,,,,,,,,,,,,,13,,49,72
24420,note_on,,0,0,18,,,,,,,,,,,,,,,,15,,65,72
24420,note_on,,0,0,18,,,,,,,,,,,,,,,,15,,58,72
24420,note_on,,1,0,15,,,,,,,,,,,,,,,,11,,65,72
24420,note_on,,1,0,16,,,,,,,,,,,,,,,,12,,53,72
24479,note_on,,59,0,13,,,,,,,,,,,,,,,,8,,49,0
24479,note_on,,59,0,17,,,,,,,,,,,,,,,,13,,49,0
24479,note_on,,59,0,18,,,,,,,,,,,,,,,,15,,49,0
24479,note_on,,59,0,6,,,,,,,,,,,,,,,,1,,70,0
24479,note_on,,0,0,18,,,,,,,,,,,,,,,,15,,70,0
24479,note_on,,0,0,18,,,,,,,,,,,,,,,,15,,65,0
24479,note_on,,59,0,12,,,,,,,,,,,,,,,,7,,53,0
24479,note_on,,0,0,18,,,,,,,,,,,,,,,,15,,58,0
24479,note_on,,59,0,7,,,,,,,,,,,,,,,,2,,49,0
24479,note_on,,59,0,16,,,,,,,,,,,,,,,,12,,53,0
24479,note_on,,59,0,10,,,,,,,,,,,,,,,,5,,70,0
24479,note_on,,59,0,11,,,,,,,,,,,,,,,,6,,65,0
24479,note_on,,59,0,14,,,,,,,,,,,,,,,,10,,70,0
24479,note_on,,59,0,15,,,,,,,,,,,,,,,,11,,65,0
24480,note_on,,1,0,11,,,,,,,,,,,,,,,,6,,64,72
24480,note_on,,1,0,12,,,,,,,,,,,,,,,,7,,55,72
24480,note_on,,1,0,15,,,,,,,,,,,,,,,,11,,64,72
24480,note_on,,1,0,13,,,,,,,,,,,,,,,,8,,48,72
24480,note_on,,1,0,14,,,,,,,,,,,,,,,,10,,70,72
24480,note_on,,1,0,10,,,,,,,,,,,,,,,,5,,70,72
24480,note_on,,1,0,6,,,,,,,,,,,,,,,,1,,70,72
24480,note_on,,1,0,16,,,,,,,,,,,,,,,,12,,55,72
24480,note_on,,1,0,7,,,,,,,,,,,,,,,,2,,48,72
24480,note_on,,1,0,18,,,,,,,,,,,,,,,,15,,48,72
24480,note_on,,0,0,18,,,,,,,,,,,,,,,,15,,70,72
24480,note_on,,0,0,18,,,,,,,,,,,,,,,,15,,64,72
24480,note_on,,1,0,17,,,,,,,,,,,,,,,,13,,48,72
24480,note_on,,0,0,18,,,,,,,,,,,,,,,,15,,55,72
24569,note_on,,89,0,10,,,,,,,,,,,,,,,,5,,70,0
24569,note_on,,89,0,15,,,,,,,,,,,,,,,,11,,64,0
24569,note_on,,89,0,11,,,,,,,,,,,,,,,,6,,64,0
24569,note_on,,89,0,16,,,,,,,,,,,,,,,,12,,55,0
24569,note_on,,89,0,14,,,,,,,,,,,,,,,,10,,70,0
24569,note_on,,89,0,7,,,,,,,,,,,,,,,,2,,48,0
24569,note_on,,89,0,17,,,,,,,,,,,,,,,,13,,48,0
24569,note_on,,89,0,12,,,,,,,,,,,,,,,,7,,55,0
24569,note_on,,89,0,6,,,,,,,,,,,,,,,,1,,70,0
24569,note_on,,89,0,18,,,,,,,,,,,,,,,,15,,48,0
24569,note_on,,89,0,13,,,,,,,,,,,,,,,,8,,48,0
24570,note_on,,1,0,7,,,,,,,,,,,,,,,,2,,48,72
24570,note_on,,1,0,11,,,,,,,,,,,,,,,,6,,64,72
24570,note_on,,1,0,18,,,,,,,,,,,,,,,,15,,48,72
24570,note_on,,1,0,17,,,,,,,,,,,,,,,,13,,48,72
24570,note_on,,1,0,6,,,,,,,,,,,,,,,,1,,70,72
24570,note_on,,1,0,13,,,,,,,,,,,,,,,,8,,48,72
24570,note_on,,1,0,15,,,,,,,,,,,,,,,,11,,64,72
24570,note_on,,1,0,12,,,,,,,,,,,,,,,,7,,55,72
24570,note_on,,1,0,16,,,,,,,,,,,,,,,,12,,55,72
24570,note_on,,1,0,10,,,,,,,,,,,,,,,,5,,70,72
24570,note_on,,1,0,14,,,,,,,,,,,,,,,,10,,70,72
24599,note_on,,29,0,13,,,,,,,,,,,,,,,,8,,48,0
24599,note_on,,29,0,10,,,,,,,,,,,,,,,,5,,70,0
24599,note_on,,29,0,6,,,,,,,,,,,,,,,,1,,70,0
24599,note_on,,29,0,16,,,,,,,,,,,,,,,,12,,55,0
24599,note_on,,29,0,7,,,,,,,,,,,,,,,,2,,48,0
24599,note_on,,29,0,18,,,,,,,,,,,,,,,,15,,48,0
24599,note_on,,29,0,15,,,,,,,,,,,,,,,,11,,64,0
24599,note_on,,29,0,17,,,,,,,,,,,,,,,,13,,48,0
24599,note_on,,29,0,12,,,,,,,,,,,,,,,,7,,55,0
24599,note_on,,29,0,14,,,,,,,,,,,,,,,,10,,70,0
24599,note_on,,29,0,11,,,,,,,,,,,,,,,,6,,64,0
24600,note_on,,1,0,18,,,,,,,,,,,,,,,,15,,48,72
24600,note_on,,1,0,14,,,,,,,,,,,,,,,,10,,70,72
24600,note_on,,1,0,17,,,,,,,,,,,,,,,,13,,48,72
24600,note_on,,1,0,16,,,,,,,,,,,,,,,,12,,55,72
24600,note_on,,1,0,11,,,,,,,,,,,,,,,,6,,64,72
24600,note_on,,1,0,12,,,,,,,,,,,,,,,,7,,55,72
24600,note_on,,1,0,13,,,,,,,,,,,,,,,,8,,48,72
24600,note_on,,1,0,15,,,,,,,,,,,,,,,,11,,64,72
24600,note_on,,1,0,10,,,,,,,,,,,,,,,,5,,70,72
24600,note_on,,1,0,6,,,,,,,,,,,,,,,,1,,70,72
24600,note_on,,1,0,7,,,,,,,,,,,,,,,,2,,48,72
24659,note_on,,0,0,18,,,,,,,,,,,,,,,,15,,48,0
24659,note_on,,0,0,18,,,,,,,,,,,,,,,,15,,55,0
24659,note_on,,59,0,12,,,,,,,,,,,,,,,,7,,55,0
24659,note_on,,59,0,13,,,,,,,,,,,,,,,,8,,48,0
24659,note_on,,59,0,14,,,,,,,,,,,,,,,,10,,70,0
24659,note_on,,59,0,11,,,,,,,,,,,,,,,,6,,64,0
24659,note_on,,59,0,10,,,,,,,,,,,,,,,,5,,70,0
24659,note_on,,59,0,16,,,,,,,,,,,,,,,,12,,55,0
24659,note_on,,59,0,6,,,,,,,,,,,,,,,,1,,70,0
24659,note_on,,59,0,7,,,,,,,,,,,,,,,,2,,48,0
24659,note_on,,59,0,15,,,,,,,,,,,,,,,,11,,64,0
24659,note_on,,59,0,17,,,,,,,,,,,,,,,,13,,48,0
24659,note_on,,0,0,18,,,,,,,,,,,,,,,,15,,64,0
24659,note_on,,59,0,18,,,,,,,,,,,,,,,,15,,70,0
24660,note_on,,1,0,16,,,,,,,,,,,,,,,,12,,60,72
24660,note_on,,1,0,11,,,,,,,,,,,,,,,,6,,67,72
24660,note_on,,1,0,13,,,,,,,,,,,,,,,,8,,52,72
24660,note_on,,1,0,15,,,,,,,,,,,,,,,,11,,67,72
24660,note_on,,0,0,18,,,,,,,,,,,,,,,,15,,67,72
24660,note_on,,0,0,18,,,,,,,,,,,,,,,,15,,60,72
24660,note_on,,0,0,18,,,,,,,,,,,,,,,,15,,55,72
24660,note_on,,1,0,10,,,,,,,,,,,,,,,,5,,72,72
24660,note_on,,1,0,6,,,,,,,,,,,,,,,,1,,72,72
24660,note_on,,1,0,14,,,,,,,,,,,,,,,,10,,72,72
24660,note_on,,1,0,7,,,,,,,,,,,,,,,,2,,52,72
24660,note_on,,1,0,12,,,,,,,,,,,,,,,,7,,60,72
24660,note_on,,1,0,17,,,,,,,,,,,,,,,,13,,52,72
24660,note_on,,1,0,18,,,,,,,,,,,,,,,,15,,52,72
24719,note_on,,59,0,6,,,,,,,,,,,,,,,,1,,72,0
24719,note_on,,59,0,7,,,,,,,,,,,,,,,,2,,52,0
24719,note_on,,59,0,17,,,,,,,,,,,,,,,,13,,52,0
24719,note_on,,0,0,18,,,,,,,,,,,,,,,,15,,60,0
24719,note_on,,59,0,14,,,,,,,,,,,,,,,,10,,72,0
24719,note_on,,59,0,16,,,,,,,,,,,,,,,,12,,60,0
24719,note_on,,59,0,18,,,,,,,,,,,,,,,,15,,52,0
24719,note_on,,0,0,18,,,,,,,,,,,,,,,,15,,67,0
24719,note_on,,0,0,18,,,,,,,,,,,,,,,,15,,55,0
24719,note_on,,59,0,12,,,,,,,,,,,,,,,,7,,60,0
24719,note_on,,59,0,10,,,,,,,,,,,,,,,,5,,72,0
24719,note_on,,59,0,15,,,,,,,,,,,,,,,,11,,67,0
24719,note_on,,59,0,11,,,,,,,,,,,,,,,,6,,67,0
24719,note_on,,59,0,13,,,,,,,,,,,,,,,,8,,52,0
24720,note_on,,1,0,14,,,,,,,,,,,,,,,,10,,68,72
24720,note_on,,1,0,15,,,,,,,,,,,,,,,,11,,65,72
24720,note_on,,1,0,12,,,,,,,,,,,,,,,,7,,60,72
24720,note_on,,1,0,7,,,,,,,,,,,,,,,,2,,53,72
24720,note_on,,1,0,6,,,,,,,,,,,,,,,,1,,68,72
24720,note_on,,1,0,10,,,,,,,,,,,,,,,,5,,68,72
24720,note_on,,1,0,11,,,,,,,,,,,,,,,,6,,65,72
24720,note_on,,1,0,18,,,,,,,,,,,,,,,,15,,53,72
24720,note_on,,1,0,17,,,,,,,,,,,,,,,,13,,53,72
24720,note_on,,1,0,16,,,,,,,,,,,,,,,,12,,60,72
24720,note_on,,0,0,18,,,,,,,,,,,,,,,,15,,65,72
24720,note_on,,0,0,18,,,,,,,,,,,,,,,,15,,60,72
24720,note_on,,0,0,18,,,,,,,,,,,,,,,,15,,56,72
24720,note_on,,1,0,13,,,,,,,,,,,,,,,,8,,53,72
24839,note_on,,119,0,17,,,,,,,,,,,,,,,,13,,53,0
24839,note_on,,119,0,11,,,,,,,,,,,,,,,,6,,65,0
24839,note_on,,119,0,14,,,,,,,,,,,,,,,,10,,68,0
24839,note_on,,119,0,15,,,,,,,,,,,,,,,,11,,65,0
24839,note_on,,119,0,13,,,,,,,,,,,,,,,,8,,53,0
24839,note_on,,119,0,7,,,,,,,,,,,,,,,,2,,53,0
24839,note_on,,119,0,10,,,,,,,,,,,,,,,,5,,68,0
24839,note_on,,119,0,16,,,,,,,,,,,,,,,,12,,60,0
24839,note_on,,119,0,6,,,,,,,,,,,,,,,,1,,68,0
24839,note_on,,0,0,18,,,,,,,,,,,,,,,,15,,65,0
24839,note_on,,0,0,18,,,,,,,,,,,,,,,,15,,60,0
24839,note_on,,0,0,18,,,,,,,,,,,,,,,,15,,56,0
24839,note_on,,119,0,18,,,,,,,,,,,,,,,,15,,53,0
24839,note_on,,119,0,12,,,,,,,,,,,,,,,,7,,60,0
24840,note_on,,1,0,10,,,,,,,,,,,,,,,,5,,67,72
24840,note_on,,1,0,15,,,,,,,,,,,,,,,,11,,65,72
24840,note_on,,1,0,6,,,,,,,,,,,,,,,,1,,67,72
24840,note_on,,1,0,11,,,,,,,,,,,,,,,,6,,65,72
24840,note_on,,1,0,13,,,,,,,,,,,,,,,,8,,46,72
24840,note_on,,1,0,18,,,,,,,,,,,,,,,,15,,46,72
24840,note_on,,0,0,18,,,,,,,,,,,,,,,,15,,65,72
24840,note_on,,1,0,17,,,,,,,,,,,,,,,,13,,46,72
24840,note_on,,1,0,14,,,,,,,,,,,,,,,,10,,67,72
24840,note_on,,1,0,7,,,,,,,,,,,,,,,,2,,46,72
24840,note_on,,1,0,16,,,,,,,,,,,,,,,,12,,61,72
24840,note_on,,1,0,12,,,,,,,,,,,,,,,,7,,61,72
24840,note_on,,0,0,18,,,,,,,,,,,,,,,,15,,73,72
24840,note_on,,0,0,18,,,,,,,,,,,,,,,,15,,70,72
24959,note_on,,0,0,18,,,,,,,,,,,,,,,,15,,73,0
24959,note_on,,119,0,18,,,,,,,,,,,,,,,,15,,46,0
24959,note_on,,119,0,7,,,,,,,,,,,,,,,,2,,46,0
24959,note_on,,119,0,12,,,,,,,,,,,,,,,,7,,61,0
24959,note_on,,119,0,11,,,,,,,,,,,,,,,,6,,65,0
24959,note_on,,0,0,18,,,,,,,,,,,,,,,,15,,65,0
24959,note_on,,119,0,15,,,,,,,,,,,,,,,,11,,65,0
24959,note_on,,119,0,16,,,,,,,,,,,,,,,,12,,61,0
24959,note_on,,119,0,14,,,,,,,,,,,,,,,,10,,67,0
24959,note_on,,119,0,6,,,,,,,,,,,,,,,,1,,67,0
24959,note_on,,119,0,17,,,,,,,,,,,,,,,,13,,46,0
24959,note_on,,119,0,13,,,,,,,,,,,,,,,,8,,46,0
24959,note_on,,0,0,18,,,,,,,,,,,,,,,,15,,70,0
24959,note_on,,119,0,10,,,,,,,,,,,,,,,,5,,67,0
24960,note_on,,1,0,11,,,,,,,,,,,,,,,,6,,65,72
24960,note_on,,1,0,15,,,,,,,,,,,,,,,,11,,65,72
24960,note_on,,1,0,14,,,,,,,,,,,,,,,,10,,67,72
24960,note_on,,1,0,17,,,,,,,,,,,,,,,,13,,48,72
24960,note_on,,1,0,10,,,,,,,,,,,,,,,,5,,67,72
24960,note_on,,1,0,12,,,,,,,,,,,,,,,,7,,60,72
24960,note_on,,0,0,18,,,,,,,,,,,,,,,,15,,67,72
24960,note_on,,0,0,18,,,,,,,,,,,,,,,,15,,65,72
24960,note_on,,1,0,13,,,,,,,,,,,,,,,,8,,48,72
24960,note_on,,1,0,6,,,,,,,,,,,,,,,,1,,67,72
24960,note_on,,0,0,18,,,,,,,,,,,,,,,,15,,60,72
24960,note_on,,1,0,16,,,,,,,,,,,,,,,,12,,60,72
24960,note_on,,1,0,7,,,,,,,,,,,,,,,,2,,48,72
24960,note_on,,1,0,18,,,,,,,,,,,,,,,,15,,48,72
25079,note_on,,119,0,17,,,,,,,,,,,,,,,,13,,48,0
25079,note_on,,119,0,11,,,,,,,,,,,,,,,,6,,65,0
25079,note_on,,119,0,15,,,,,,,,,,,,,,,,11,,65,0
25079,note_on,,119,0,18,,,,,,,,,,,,,,,,15,,48,0
25079,note_on,,119,0,7,,,,,,,,,,,,,,,,2,,48,0
25079,note_on,,0,0,18,,,,,,,,,,,,,,,,15,,67,0
25079,note_on,,0,0,18,,,,,,,,,,,,,,,,15,,65,0
25079,note_on,,0,0,18,,,,,,,,,,,,,,,,15,,60,0
25080,note_on,,0,0,18,,,,,,,,,,,,,,,,15,,72,72
25080,note_on,,0,0,18,,,,,,,,,,,,,,,,15,,67,72
25080,note_on,,1,0,7,,,,,,,,,,,,,,,,2,,36,72
25080,note_on,,0,0,18,,,,,,,,,,,,,,,,15,,64,72
25080,note_on,,1,0,15,,,,,,,,,,,,,,,,11,,64,72
25080,note_on,,1,0,11,,,,,,,,,,,,,,,,6,,64,72
25080,note_on,,1,0,18,,,,,,,,,,,,,,,,15,,36,72
25080,note_on,,1,0,17,,,,,,,,,,,,,,,,13,,36,72
25139,note_on,,179,0,10,,,,,,,,,,,,,,,,5,,67,0
25139,note_on,,179,0,6,,,,,,,,,,,,,,,,1,,67,0
25139,note_on,,179,0,14,,,,,,,,,,,,,,,,10,,67,0
25139,note_on,,179,0,13,,,,,,,,,,,,,,,,8,,48,0
25139,note_on,,179,0,16,,,,,,,,,,,,,,,,12,,60,0
25139,note_on,,179,0,12,,,,,,,,,,,,,,,,7,,60,0
25140,note_on,,1,0,10,,,,,,,,,,,,,,,,5,,67,72
25140,note_on,,1,0,6,,,,,,,,,,,,,,,,1,,67,72
25140,note_on,,1,0,13,,,,,,,,,,,,,,,,8,,48,72
25140,note_on,,1,0,16,,,,,,,,,,,,,,,,12,,58,72
25140,note_on,,1,0,14,,,,,,,,,,,,,,,,10,,67,72
25140,note_on,,1,0,12,,,,,,,,,,,,,,,,7,,60,72
25199,note_on,,119,0,17,,,,,,,,,,,,,,,,13,,36,0
25199,note_on,,59,0,10,,,,,,,,,,,,,,,,5,,67,0
25199,note_on,,119,0,11,,,,,,,,,,,,,,,,6,,64,0
25199,note_on,,0,0,18,,,,,,,,,,,,,,,,15,,64,0
25199,note_on,,0,0,18,,,,,,,,,,,,,,,,15,,67,0
25199,note_on,,0,0,18,,,,,,,,,,,,,,,,15,,72,0
25199,note_on,,119,0,18,,,,,,,,,,,,,,,,15,,36,0
25199,note_on,,59,0,12,,,,,,,,,,,,,,,,7,,60,0
25199,note_on,,119,0,7,,,,,,,,,,,,,,,,2,,36,0
25199,note_on,,59,0,16,,,,,,,,,,,,,,,,12,,58,0
25199,note_on,,59,0,14,,,,,,,,,,,,,,,,10,,67,0
25199,note_on,,59,0,13,,,,,,,,,,,,,,,,8,,48,0
25199,note_on,,59,0,6,,,,,,,,,,,,,,,,1,,67,0
25199,note_on,,119,0,15,,,,,,,,,,,,,,,,11,,64,0
25200,note_on,,1,0,16,,,,,,,,,,,,,,,,12,,56,72
25200,note_on,,1,0,13,,,,,,,,,,,,,,,,8,,53,72
25200,note_on,,1,0,18,,,,,,,,,,,,,,,,15,,41,72
25200,note_on,,0,0,18,,,,,,,,,,,,,,,,15,,68,72
25200,note_on,,1,0,6,,,,,,,,,,,,,,,,1,,65,72
25200,note_on,,0,0,18,,,,,,,,,,,,,,,,15,,65,72
25200,note_on,,0,0,18,,,,,,,,,,,,,,,,15,,60,72
25200,note_on,,1,0,17,,,,,,,,,,,,,,,,13,,41,72
25200,note_on,,1,0,7,,,,,,,,,,,,,,,,2,,41,72
25200,note_on,,1,0,15,,,,,,,,,,,,,,,,11,,65,72
25200,note_on,,1,0,12,,,,,,,,,,,,,,,,7,,60,72
25200,note_on,,1,0,14,,,,,,,,,,,,,,,,10,,65,72
25200,note_on,,1,0,11,,,,,,,,,,,,,,,,6,,65,72
25200,note_on,,1,0,10,,,,,,,,,,,,,,,,5,,65,72
25259,note_on,,59,0,11,,,,,,,,,,,,,,,,6,,65,0
25259,note_on,,59,0,7,,,,,,,,,,,,,,,,2,,41,0
25259,note_on,,59,0,17,,,,,,,,,,,,,,,,13,,41,0
25259,note_on,,59,0,15,,,,,,,,,,,,,,,,11,,65,0
25259,note_on,,59,0,18,,,,,,,,,,,,,,,,15,,41,0
25260,note_on,,1,0,17,,,,,,,,,,,,,,,,13,,48,72
25260,note_on,,1,0,11,,,,,,,,,,,,,,,,6,,67,72
25260,note_on,,1,0,18,,,,,,,,,,,,,,,,15,,48,72
25260,note_on,,1,0,7,,,,,,,,,,,,,,,,2,,48,72
25260,note_on,,1,0,15,,,,,,,,,,,,,,,,11,,67,72
25319,note_on,,119,0,16,,,,,,,,,,,,,,,,12,,56,0
25319,note_on,,59,0,18,,,,,,,,,,,,,,,,15,,48,0
25319,note_on,,59,0,17,,,,,,,,,,,,,,,,13,,48,0
25319,note_on,,119,0,10,,,,,,,,,,,,,,,,5,,65,0
25319,note_on,,119,0,12,,,,,,,,,,,,,,,,7,,60,0
25319,note_on,,59,0,7,,,,,,,,,,,,,,,,2,,48,0
25319,note_on,,59,0,15,,,,,,,,,,,,,,,,11,,67,0
25319,note_on,,59,0,11,,,,,,,,,,,,,,,,6,,67,0
25319,note_on,,119,0,13,,,,,,,,,,,,,,,,8,,53,0
25319,note_on,,119,0,6,,,,,,,,,,,,,,,,1,,65,0
25319,note_on,,119,0,14,,,,,,,,,,,,,,,,10,,65,0
25320,note_on,,1,0,7,,,,,,,,,,,,,,,,2,,53,72
25320,note_on,,1,0,17,,,,,,,,,,,,,,,,13,,53,72
25320,note_on,,1,0,18,,,,,,,,,,,,,,,,15,,53,72
25320,note_on,,1,0,11,,,,,,,,,,,,,,,,6,,68,72
25320,note_on,,1,0,15,,,,,,,,,,,,,,,,11,,68,72
25379,note_on,,59,0,17,,,,,,,,,,,,,,,,13,,53,0
25379,note_on,,0,0,18,,,,,,,,,,,,,,,,15,,53,0
25379,note_on,,0,0,18,,,,,,,,,,,,,,,,15,,60,0
25379,note_on,,59,0,7,,,,,,,,,,,,,,,,2,,53,0
25379,note_on,,0,0,18,,,,,,,,,,,,,,,,15,,65,0
25379,note_on,,59,0,18,,,,,,,,,,,,,,,,15,,68,0
25380,note_on,,61,0,16,,,,,,,,,,,,,,,,12,,65,72
25380,note_on,,61,0,14,,,,,,,,,,,,,,,,10,,72,72
25380,note_on,,61,0,13,,,,,,,,,,,,,,,,8,,51,72
25380,note_on,,1,0,7,,,,,,,,,,,,,,,,2,,51,72
25380,note_on,,61,0,12,,,,,,,,,,,,,,,,7,,65,72
25380,note_on,,61,0,6,,,,,,,,,,,,,,,,1,,72,72
25380,note_on,,0,0,18,,,,,,,,,,,,,,,,15,,68,72
25380,note_on,,1,0,18,,,,,,,,,,,,,,,,15,,51,72
25380,note_on,,0,0,18,,,,,,,,,,,,,,,,15,,65,72
25380,note_on,,61,0,10,,,,,,,,,,,,,,,,5,,72,72
25380,note_on,,1,0,17,,,,,,,,,,,,,,,,13,,51,72
25380,note_on,,0,0,18,,,,,,,,,,,,,,,,15,,60,72
25439,note_on,,0,0,18,,,,,,,,,,,,,,,,15,,65,0
25439,note_on,,59,0,13,,,,,,,,,,,,,,,,8,,51,0
25439,note_on,,59,0,16,,,,,,,,,,,,,,,,12,,65,0
25439,note_on,,59,0,18,,,,,,,,,,,,,,,,15,,51,0
25439,note_on,,59,0,6,,,,,,,,,,,,,,,,1,,72,0
25439,note_on,,59,0,7,,,,,,,,,,,,,,,,2,,51,0
25439,note_on,,119,0,11,,,,,,,,,,,,,,,,6,,68,0
25439,note_on,,0,0,18,,,,,,,,,,,,,,,,15,,68,0
25439,note_on,,59,0,17,,,,,,,,,,,,,,,,13,,51,0
25439,note_on,,59,0,12,,,,,,,,,,,,,,,,7,,65,0
25439,note_on,,59,0,10,,,,,,,,,,,,,,,,5,,72,0
25439,note_on,,119,0,15,,,,,,,,,,,,,,,,11,,68,0
25439,note_on,,59,0,14,,,,,,,,,,,,,,,,10,,72,0
25439,note_on,,0,0,18,,,,,,,,,,,,,,,,15,,60,0
25440,note_on,,1,0,6,,,,,,,,,,,,,,,,1,,70,72
25440,note_on,,1,0,15,,,,,,,,,,,,,,,,11,,68,72
25440,note_on,,1,0,17,,,,,,,,,,,,,,,,13,,50,72
25440,note_on,,1,0,18,,,,,,,,,,,,,,,,15,,50,72
25440,note_on,,1,0,16,,,,,,,,,,,,,,,,12,,65,72
25440,note_on,,0,0,18,,,,,,,,,,,,,,,,15,,65,72
25440,note_on,,0,0,18,,,,,,,,,,,,,,,,15,,58,72
25440,note_on,,1,0,13,,,,,,,,,,,,,,,,8,,50,72
25440,note_on,,1,0,10,,,,,,,,,,,,,,,,5,,70,72
25440,note_on,,1,0,7,,,,,,,,,,,,,,,,2,,50,72
25440,note_on,,1,0,11,,,,,,,,,,,,,,,,6,,68,72
25440,note_on,,1,0,12,,,,,,,,,,,,,,,,7,,65,72
25440,note_on,,1,0,14,,,,,,,,,,,,,,,,10,,70,72
25440,note_on,,0,0,18,,,,,,,,,,,,,,,,15,,68,72
25559,note_on,,119,0,16,,,,,,,,,,,,,,,,12,,65,0
25559,note_on,,119,0,12,,,,,,,,,,,,,,,,7,,65,0
25559,note_on,,119,0,10,,,,,,,,,,,,,,,,5,,70,0
25559,note_on,,119,0,18,,,,,,,,,,,,,,,,15,,50,0
25559,note_on,,119,0,6,,,,,,,,,,,,,,,,1,,70,0
25559,note_on,,119,0,14,,,,,,,,,,,,,,,,10,,70,0
25559,note_on,,0,0,18,,,,,,,,,,,,,,,,15,,68,0
25559,note_on,,0,0,18,,,,,,,,,,,,,,,,15,,65,0
25559,note_on,,0,0,18,,,,,,,,,,,,,,,,15,,58,0
25559,note_on,,119,0,17,,,,,,,,,,,,,,,,13,,50,0
25559,note_on,,119,0,15,,,,,,,,,,,,,,,,11,,68,0
25559,note_on,,119,0,7,,,,,,,,,,,,,,,,2,,50,0
25559,note_on,,119,0,13,,,,,,,,,,,,,,,,8,,50,0
25559,note_on,,119,0,11,,,,,,,,,,,,,,,,6,,68,0
25560,note_on,,0,0,18,,,,,,,,,,,,,,,,15,,63,72
25560,note_on,,0,0,18,,,,,,,,,,,,,,,,15,,58,72
25560,note_on,,1,0,18,,,,,,,,,,,,,,,,15,,51,72
25560,note_on,,1,0,10,,,,,,,,,,,,,,,,5,,70,72
25560,note_on,,1,0,7,,,,,,,,,,,,,,,,2,,51,72
25560,note_on,,1,0,14,,,,,,,,,,,,,,,,10,,70,72
25560,note_on,,0,0,18,,,,,,,,,,,,,,,,15,,67,72
25560,note_on,,1,0,11,,,,,,,,,,,,,,,,6,,67,72
25560,note_on,,1,0,16,,,,,,,,,,,,,,,,12,,63,72
25560,note_on,,1,0,15,,,,,,,,,,,,,,,,11,,67,72
25560,note_on,,1,0,6,,,,,,,,,,,,,,,,1,,70,72
25560,note_on,,1,0,12,,,,,,,,,,,,,,,,7,,63,72
25560,note_on,,1,0,17,,,,,,,,,,,,,,,,13,,51,72
25560,note_on,,1,0,13,,,,,,,,,,,,,,,,8,,51,72
25619,note_on,,59,0,6,,,,,,,,,,,,,,,,1,,70,0
25619,note_on,,59,0,11,,,,,,,,,,,,,,,,6,,67,0
25619,note_on,,59,0,16,,,,,,,,,,,,,,,,12,,63,0
25619,note_on,,59,0,10,,,,,,,,,,,,,,,,5,,70,0
25619,note_on,,59,0,15,,,,,,,,,,,,,,,,11,,67,0
25619,note_on,,59,0,13,,,,,,,,,,,,,,,,8,,51,0
25619,note_on,,59,0,14,,,,,,,,,,,,,,,,10,,70,0
25619,note_on,,59,0,12,,,,,,,,,,,,,,,,7,,63,0
25620,note_on,,1,0,13,,,,,,,,,,,,,,,,8,,51,72
25620,note_on,,1,0,15,,,,,,,,,,,,,,,,11,,67,72
25620,note_on,,1,0,11,,,,,,,,,,,,,,,,6,,67,72
25620,note_on,,1,0,6,,,,,,,,,,,,,,,,1,,70,72
25620,note_on,,1,0,10,,,,,,,,,,,,,,,,5,,70,72
25620,note_on,,1,0,12,,,,,,,,,,,,,,,,7,,63,72
25620,note_on,,1,0,14,,,,,,,,,,,,,,,,10,,70,72
25620,note_on,,1,0,16,,,,,,,,,,,,,,,,12,,63,72
25679,note_on,,0,0,18,,,,,,,,,,,,,,,,15,,58,0
25679,note_on,,59,0,14,,,,,,,,,,,,,,,,10,,70,0
25679,note_on,,59,0,11,,,,,,,,,,,,,,,,6,,67,0
25679,note_on,,119,0,18,,,,,,,,,,,,,,,,15,,51,0
25679,note_on,,59,0,13,,,,,,,,,,,,,,,,8,,51,0
25679,note_on,,0,0,18,,,,,,,,,,,,,,,,15,,63,0
25679,note_on,,0,0,18,,,,,,,,,,,,,,,,15,,67,0
25679,note_on,,59,0,12,,,,,,,,,,,,,,,,7,,63,0
25679,note_on,,119,0,17,,,,,,,,,,,,,,,,13,,51,0
25679,note_on,,59,0,16,,,,,,,,,,,,,,,,12,,63,0
25679,note_on,,59,0,10,,,,,,,,,,,,,,,,5,,70,0
25679,note_on,,119,0,7,,,,,,,,,,,,,,,,2,,51,0
25679,note_on,,59,0,6,,,,,,,,,,,,,,,,1,,70,0
25679,note_on,,59,0,15,,,,,,,,,,,,,,,,11,,67,0
25680,note_on,,0,0,18,,,,,,,,,,,,,,,,15,,62,72
25680,note_on,,0,0,18,,,,,,,,,,,,,,,,15,,65,72
25680,note_on,,1,0,18,,,,,,,,,,,,,,,,15,,58,72
25680,note_on,,1,0,11,,,,,,,,,,,,,,,,6,,65,72
25680,note_on,,1,0,14,,,,,,,,,,,,,,,,10,,70,72
25680,note_on,,1,0,7,,,,,,,,,,,,,,,,2,,58,72
25680,note_on,,1,0,13,,,,,,,,,,,,,,,,8,,58,72
25680,note_on,,1,0,10,,,,,,,,,,,,,,,,5,,70,72
25680,note_on,,1,0,17,,,,,,,,,,,,,,,,13,,58,72
25680,note_on,,1,0,16,,,,,,,,,,,,,,,,12,,62,72
25680,note_on,,1,0,15,,,,,,,,,,,,,,,,11,,65,72
25680,note_on,,1,0,6,,,,,,,,,,,,,,,,1,,70,72
25680,note_on,,1,0,12,,,,,,,,,,,,,,,,7,,62,72
25739,note_on,,59,0,14,,,,,,,,,,,,,,,,10,,70,0
25739,note_on,,59,0,6,,,,,,,,,,,,,,,,1,,70,0
25739,note_on,,59,0,10,,,,,,,,,,,,,,,,5,,70,0
25740,note_on,,1,0,6,,,,,,,,,,,,,,,,1,,65,72
25740,note_on,,1,0,10,,,,,,,,,,,,,,,,5,,65,72
25740,note_on,,1,0,14,,,,,,,,,,,,,,,,10,,65,72
25799,note_on,,119,0,12,,,,,,,,,,,,,,,,7,,62,0
25799,note_on,,119,0,17,,,,,,,,,,,,,,,,13,,58,0
25799,note_on,,119,0,13,,,,,,,,,,,,,,,,8,,58,0
25799,note_on,,119,0,7,,,,,,,,,,,,,,,,2,,58,0
25799,note_on,,59,0,14,,,,,,,,,,,,,,,,10,,65,0
25799,note_on,,59,0,6,,,,,,,,,,,,,,,,1,,65,0
25799,note_on,,59,0,10,,,,,,,,,,,,,,,,5,,65,0
25799,note_on,,0,0,18,,,,,,,,,,,,,,,,15,,62,0
25799,note_on,,0,0,18,,,,,,,,,,,,,,,,15,,65,0
25799,note_on,,119,0,18,,,,,,,,,,,,,,,,15,,58,0
25799,note_on,,119,0,15,,,,,,,,,,,,,,,,11,,65,0
25799,note_on,,119,0,16,,,,,,,,,,,,,,,,12,,62,0
25799,note_on,,119,0,11,,,,,,,,,,,,,,,,6,,65,0
25800,note_on,,1,0,6,,,,,,,,,,,,,,,,1,,70,72
25800,note_on,,1,0,10,,,,,,,,,,,,,,,,5,,70,72
25800,note_on,,1,0,14,,,,,,,,,,,,,,,,10,,70,72
25860,note_on,,0,0,18,,,,,,,,,,,,,,,,15,,58,72
25860,note_on,,0,0,18,,,,,,,,,,,,,,,,15,,65,72
25860,note_on,,61,0,13,,,,,,,,,,,,,,,,8,,50,72
25860,note_on,,61,0,7,,,,,,,,,,,,,,,,2,,50,72
25860,note_on,,0,0,18,,,,,,,,,,,,,,,,15,,70,72
25860,note_on,,61,0,18,,,,,,,,,,,,,,,,15,,50,72
25860,note_on,,61,0,11,,,,,,,,,,,,,,,,6,,65,72
25860,note_on,,61,0,15,,,,,,,,,,,,,,,,11,,65,72
25860,note_on,,61,0,17,,,,,,,,,,,,,,,,13,,50,72
25860,note_on,,61,0,12,,,,,,,,,,,,,,,,7,,62,72
25860,note_on,,61,0,16,,,,,,,,,,,,,,,,12,,62,72
25919,note_on,,59,0,17,,,,,,,,,,,,,,,,13,,50,0
25919,note_on,,59,0,7,,,,,,,,,,,,,,,,2,,50,0
25919,note_on,,59,0,13,,,,,,,,,,,,,,,,8,,50,0
25919,note_on,,59,0,12,,,,,,,,,,,,,,,,7,,62,0
25919,note_on,,0,0,18,,,,,,,,,,,,,,,,15,,58,0
25919,note_on,,0,0,18,,,,,,,,,,,,,,,,15,,65,0
25919,note_on,,119,0,6,,,,,,,,,,,,,,,,1,,70,0
25919,note_on,,59,0,18,,,,,,,,,,,,,,,,15,,50,0
25919,note_on,,0,0,18,,,,,,,,,,,,,,,,15,,70,0
25919,note_on,,59,0,15,,,,,,,,,,,,,,,,11,,65,0
25919,note_on,,59,0,11,,,,,,,,,,,,,,,,6,,65,0
25919,note_on,,59,0,16,,,,,,,,,,,,,,,,12,,62,0
25919,note_on,,119,0,10,,,,,,,,,,,,,,,,5,,70,0
25919,note_on,,119,0,14,,,,,,,,,,,,,,,,10,,70,0
25920,note_on,,1,0,11,,,,,,,,,,,,,,,,6,,67,72
25920,note_on,,0,0,18,,,,,,,,,,,,,,,,15,,63,72
25920,note_on,,0,0,18,,,,,,,,,,,,,,,,15,,58,72
25920,note_on,,1,0,17,,,,,,,,,,,,,,,,13,,51,72
25920,note_on,,1,0,12,,,,,,,,,,,,,,,,7,,58,72
25920,note_on,,1,0,7,,,,,,,,,,,,,,,,2,,51,72
25920,note_on,,0,0,18,,,,,,,,,,,,,,,,15,,67,72
25920,note_on,,1,0,15,,,,,,,,,,,,,,,,11,,67,72
25920,note_on,,1,0,18,,,,,,,,,,,,,,,,15,,51,72
25920,note_on,,1,0,16,,,,,,,,,,,,,,,,12,,58,72
25920,note_on,,1,0,13,,,,,,,,,,,,,,,,8,,51,72
25980,note_on,,61,0,10,,,,,,,,,,,,,,,,5,,70,72
25980,note_on,,61,0,14,,,,,,,,,,,,,,,,10,,70,72
25980,note_on,,61,0,6,,,,,,,,,,,,,,,,1,,70,72
26039,note_on,,59,0,10,,,,,,,,,,,,,,,,5,,70,0
26039,note_on,,119,0,11,,,,,,,,,,,,,,,,6,,67,0
26039,note_on,,119,0,7,,,,,,,,,,,,,,,,2,,51,0
26039,note_on,,119,0,15,,,,,,,,,,,,,,,,11,,67,0
26039,note_on,,59,0,14,,,,,,,,,,,,,,,,10,,70,0
26039,note_on,,119,0,16,,,,,,,,,,,,,,,,12,,58,0
26039,note_on,,119,0,12,,,,,,,,,,,,,,,,7,,58,0
26039,note_on,,119,0,17,,,,,,,,,,,,,,,,13,,51,0
26039,note_on,,119,0,13,,,,,,,,,,,,,,,,8,,51,0
26039,note_on,,119,0,18,,,,,,,,,,,,,,,,15,,51,0
26039,note_on,,0,0,18,,,,,,,,,,,,,,,,15,,67,0
26039,note_on,,59,0,6,,,,,,,,,,,,,,,,1,,70,0
26039,note_on,,0,0,18,,,,,,,,,,,,,,,,15,,63,0
26039,note_on,,0,0,18,,,,,,,,,,,,,,,,15,,58,0
26040,note_on,,1,0,10,,,,,,,,,,,,,,,,5,,72,72
26040,note_on,,1,0,6,,,,,,,,,,,,,,,,1,,72,72
26040,note_on,,1,0,14,,,,,,,,,,,,,,,,10,,72,72
26100,note_on,,61,0,7,,,,,,,,,,,,,,,,2,,51,72
26100,note_on,,61,0,16,,,,,,,,,,,,,,,,12,,63,72
26100,note_on,,61,0,18,,,,,,,,,,,,,,,,15,,51,72
26100,note_on,,0,0,18,,,,,,,,,,,,,,,,15,,72,72
26100,note_on,,0,0,18,,,,,,,,,,,,,,,,15,,67,72
26100,note_on,,61,0,17,,,,,,,,,,,,,,,,13,,51,72
26100,note_on,,0,0,18,,,,,,,,,,,,,,,,15,,60,72
26100,note_on,,61,0,12,,,,,,,,,,,,,,,,7,,63,72
26100,note_on,,61,0,11,,,,,,,,,,,,,,,,6,,67,72
26100,note_on,,61,0,13,,,,,,,,,,,,,,,,8,,51,72
26100,note_on,,61,0,15,,,,,,,,,,,,,,,,11,,67,72
26159,note_on,,59,0,11,,,,,,,,,,,,,,,,6,,67,0
26159,note_on,,59,0,16,,,,,,,,,,,,,,,,12,,63,0
26159,note_on,,59,0,15,,,,,,,,,,,,,,,,11,,67,0
26159,note_on,,59,0,12,,,,,,,,,,,,,,,,7,,63,0
26159,note_on,,119,0,14,,,,,,,,,,,,,,,,10,,72,0
26159,note_on,,59,0,7,,,,,,,,,,,,,,,,2,,51,0
26159,note_on,,119,0,6,,,,,,,,,,,,,,,,1,,72,0
26159,note_on,,119,0,10,,,,,,,,,,,,,,,,5,,72,0
26159,note_on,,59,0,13,,,,,,,,,,,,,,,,8,,51,0
26159,note_on,,0,0,18,,,,,,,,,,,,,,,,15,,72,0
26159,note_on,,0,0,18,,,,,,,,,,,,,,,,15,,67,0
26159,note_on,,59,0,17,,,,,,,,,,,,,,,,13,,51,0
26159,note_on,,0,0,18,,,,,,,,,,,,,,,,15,,60,0
26159,note_on,,59,0,18,,,,,,,,,,,,,,,,15,,51,0
26160,note_on,,1,0,13,,,,,,,,,,,,,,,,8,,53,72
26160,note_on,,1,0,15,,,,,,,,,,,,,,,,11,,69,72
26160,note_on,,1,0,12,,,,,,,,,,,,,,,,7,,60,72
26160,note_on,,1,0,16,,,,,,,,,,,,,,,,12,,60,72
26160,note_on,,1,0,18,,,,,,,,,,,,,,,,15,,53,72
26160,note_on,,1,0,17,,,,,,,,,,,,,,,,13,,53,72
26160,note_on,,0,0,18,,,,,,,,,,,,,,,,15,,60,72
26160,note_on,,1,0,11,,,,,,,,,,,,,,,,6,,69,72
26160,note_on,,1,0,7,,,,,,,,,,,,,,,,2,,53,72
26160,note_on,,0,0,18,,,,,,,,,,,,,,,,15,,69,72
26160,note_on,,0,0,18,,,,,,,,,,,,,,,,15,,65,72
26279,note_on,,119,0,16,,,,,,,,,,,,,,,,12,,60,0
26279,note_on,,119,0,13,,,,,,,,,,,,,,,,8,,53,0
26279,note_on,,119,0,18,,,,,,,,,,,,,,,,15,,53,0
26279,note_on,,0,0,18,,,,,,,,,,,,,,,,15,,65,0
26279,note_on,,119,0,15,,,,,,,,,,,,,,,,11,,69,0
26279,note_on,,0,0,18,,,,,,,,,,,,,,,,15,,69,0
26279,note_on,,119,0,17,,,,,,,,,,,,,,,,13,,53,0
26279,note_on,,0,0,18,,,,,,,,,,,,,,,,15,,60,0
26279,note_on,,119,0,11,,,,,,,,,,,,,,,,6,,69,0
26279,note_on,,119,0,12,,,,,,,,,,,,,,,,7,,60,0
26279,note_on,,119,0,7,,,,,,,,,,,,,,,,2,,53,0
26280,note_on,,121,0,6,,,,,,,,,,,,,,,,1,,74,72
26280,note_on,,121,0,14,,,,,,,,,,,,,,,,10,,74,72
26280,note_on,,121,0,10,,,,,,,,,,,,,,,,5,,74,72
26400,note_on,,121,0,12,,,,,,,,,,,,,,,,7,,58,72
26400,note_on,,0,0,18,,,,,,,,,,,,,,,,15,,62,72
26400,note_on,,0,0,18,,,,,,,,,,,,,,,,15,,58,72
26400,note_on,,0,0,18,,,,,,,,,,,,,,,,15,,67,72
26400,note_on,,121,0,13,,,,,,,,,,,,,,,,8,,55,72
26400,note_on,,121,0,7,,,,,,,,,,,,,,,,2,,55,72
26400,note_on,,121,0,16,,,,,,,,,,,,,,,,12,,58,72
26400,note_on,,121,0,11,,,,,,,,,,,,,,,,6,,62,72
26400,note_on,,121,0,17,,,,,,,,,,,,,,,,13,,55,72
26400,note_on,,121,0,15,,,,,,,,,,,,,,,,11,,62,72
26400,note_on,,121,0,18,,,,,,,,,,,,,,,,15,,55,72
26519,note_on,,239,0,6,,,,,,,,,,,,,,,,1,,74,0
26519,note_on,,239,0,10,,,,,,,,,,,,,,,,5,,74,0
26519,note_on,,239,0,14,,,,,,,,,,,,,,,,10,,74,0
26520,note_on,,1,0,10,,,,,,,,,,,,,,,,5,,72,72
26520,note_on,,1,0,14,,,,,,,,,,,,,,,,10,,72,72
26520,note_on,,1,0,6,,,,,,,,,,,,,,,,1,,72,72
26579,note_on,,59,0,14,,,,,,,,,,,,,,,,10,,72,0
26579,note_on,,59,0,10,,,,,,,,,,,,,,,,5,,72,0
26579,note_on,,59,0,6,,,,,,,,,,,,,,,,1,,72,0
26580,note_on,,1,0,10,,,,,,,,,,,,,,,,5,,70,72
26580,note_on,,1,0,6,,,,,,,,,,,,,,,,1,,70,72
26580,note_on,,1,0,14,,,,,,,,,,,,,,,,10,,70,72
26639,note_on,,239,0,15,,,,,,,,,,,,,,,,11,,62,0
26639,note_on,,59,0,6,,,,,,,,,,,,,,,,1,,70,0
26639,note_on,,59,0,14,,,,,,,,,,,,,,,,10,,70,0
26639,note_on,,0,0,18,,,,,,,,,,,,,,,,15,,62,0
26639,note_on,,239,0,11,,,,,,,,,,,,,,,,6,,62,0
26639,note_on,,239,0,18,,,,,,,,,,,,,,,,15,,67,0
26639,note_on,,59,0,10,,,,,,,,,,,,,,,,5,,70,0
26639,note_on,,239,0,12,,,,,,,,,,,,,,,,7,,58,0
26640,note_on,,1,0,6,,,,,,,,,,,,,,,,1,,75,72
26640,note_on,,1,0,14,,,,,,,,,,,,,,,,10,,75,72
26640,note_on,,1,0,10,,,,,,,,,,,,,,,,5,,75,72
26640,note_on,,1,0,11,,,,,,,,,,,,,,,,6,,67,72
26640,note_on,,1,0,18,,,,,,,,,,,,,,,,15,,75,72
26640,note_on,,1,0,15,,,,,,,,,,,,,,,,11,,67,72
26640,note_on,,0,0,18,,,,,,,,,,,,,,,,15,,67,72
26640,note_on,,1,0,12,,,,,,,,,,,,,,,,7,,58,72
26759,note_on,,119,0,18,,,,,,,,,,,,,,,,15,,55,0
26759,note_on,,0,0,18,,,,,,,,,,,,,,,,15,,58,0
26759,note_on,,359,0,13,,,,,,,,,,,,,,,,8,,55,0
26759,note_on,,119,0,12,,,,,,,,,,,,,,,,7,,58,0
26759,note_on,,359,0,16,,,,,,,,,,,,,,,,12,,58,0
26759,note_on,,359,0,17,,,,,,,,,,,,,,,,13,,55,0
26759,note_on,,359,0,7,,,,,,,,,,,,,,,,2,,55,0
26760,note_on,,1,0,17,,,,,,,,,,,,,,,,13,,53,72
26760,note_on,,1,0,13,,,,,,,,,,,,,,,,8,,53,72
26760,note_on,,1,0,12,,,,,,,,,,,,,,,,7,,60,72
26760,note_on,,1,0,7,,,,,,,,,,,,,,,,2,,53,72
26760,note_on,,1,0,16,,,,,,,,,,,,,,,,12,,60,72
26760,note_on,,0,0,18,,,,,,,,,,,,,,,,15,,60,72
26760,note_on,,1,0,18,,,,,,,,,,,,,,,,15,,53,72
26819,note_on,,59,0,18,,,,,,,,,,,,,,,,15,,53,0
26819,note_on,,179,0,6,,,,,,,,,,,,,,,,1,,75,0
26819,note_on,,59,0,13,,,,,,,,,,,,,,,,8,,53,0
26819,note_on,,179,0,14,,,,,,,,,,,,,,,,10,,75,0
26819,note_on,,179,0,15,,,,,,,,,,,,,,,,11,,67,0
26819,note_on,,179,0,11,,,,,,,,,,,,,,,,6,,67,0
26819,note_on,,59,0,7,,,,,,,,,,,,,,,,2,,53,0
26819,note_on,,59,0,17,,,,,,,,,,,,,,,,13,,53,0
26819,note_on,,179,0,10,,,,,,,,,,,,,,,,5,,75,0
26820,note_on,,1,0,6,,,,,,,,,,,,,,,,1,,75,72
26820,note_on,,1,0,15,,,,,,,,,,,,,,,,11,,67,72
26820,note_on,,1,0,11,,,,,,,,,,,,,,,,6,,67,72
26820,note_on,,1,0,10,,,,,,,,,,,,,,,,5,,75,72
26820,note_on,,1,0,7,,,,,,,,,,,,,,,,2,,51,72
26820,note_on,,1,0,18,,,,,,,,,,,,,,,,15,,51,72
26820,note_on,,1,0,13,,,,,,,,,,,,,,,,8,,51,72
26820,note_on,,1,0,14,,,,,,,,,,,,,,,,10,,75,72
26820,note_on,,1,0,17,,,,,,,,,,,,,,,,13,,51,72
26879,note_on,,0,0,18,,,,,,,,,,,,,,,,15,,51,0
26879,note_on,,119,0,16,,,,,,,,,,,,,,,,12,,60,0
26879,note_on,,59,0,6,,,,,,,,,,,,,,,,1,,75,0
26879,note_on,,59,0,17,,,,,,,,,,,,,,,,13,,51,0
26879,note_on,,59,0,7,,,,,,,,,,,,,,,,2,,51,0
26879,note_on,,0,0,18,,,,,,,,,,,,,,,,15,,60,0
26879,note_on,,59,0,15,,,,,,,,,,,,,,,,11,,67,0
26879,note_on,,59,0,11,,,,,,,,,,,,,,,,6,,67,0
26879,note_on,,119,0,12,,,,,,,,,,,,,,,,7,,60,0
26879,note_on,,59,0,14,,,,,,,,,,,,,,,,10,,75,0
26879,note_on,,59,0,13,,,,,,,,,,,,,,,,8,,51,0
26879,note_on,,59,0,10,,,,,,,,,,,,,,,,5,,75,0
26879,note_on,,0,0,18,,,,,,,,,,,,,,,,15,,67,0
26879,note_on,,59,0,18,,,,,,,,,,,,,,,,15,,75,0
26880,note_on,,1,0,14,,,,,,,,,,,,,,,,10,,74,72
26880,note_on,,1,0,15,,,,,,,,,,,,,,,,11,,65,72
26880,note_on,,0,0,18,,,,,,,,,,,,,,,,15,,62,72
26880,note_on,,0,0,18,,,,,,,,,,,,,,,,15,,65,72
26880,note_on,,1,0,17,,,,,,,,,,,,,,,,13,,58,72
26880,note_on,,1,0,13,,,,,,,,,,,,,,,,8,,58,72
26880,note_on,,1,0,7,,,,,,,,,,,,,,,,2,,58,72
26880,note_on,,0,0,18,,,,,,,,,,,,,,,,15,,70,72
26880,note_on,,0,0,18,,,,,,,,,,,,,,,,15,,74,72
26880,note_on,,1,0,18,,,,,,,,,,,,,,,,15,,58,72
26880,note_on,,1,0,11,,,,,,,,,,,,,,,,6,,65,72
26880,note_on,,1,0,12,,,,,,,,,,,,,,,,7,,62,72
26880,note_on,,1,0,10,,,,,,,,,,,,,,,,5,,74,72
26880,note_on,,1,0,16,,,,,,,,,,,,,,,,12,,62,72
26880,note_on,,1,0,6,,,,,,,,,,,,,,,,1,,74,72
26999,note_on,,119,0,18,,,,,,,,,,,,,,,,15,,58,0
26999,note_on,,0,0,18,,,,,,,,,,,,,,,,15,,74,0
26999,note_on,,0,0,18,,,,,,,,,,,,,,,,15,,70,0
26999,note_on,,0,0,18,,,,,,,,,,,,,,,,15,,65,0
26999,note_on,,0,0,18,,,,,,,,,,,,,,,,15,,62,0
26999,note_on,,119,0,15,,,,,,,,,,,,,,,,11,,65,0
26999,note_on,,119,0,7,,,,,,,,,,,,,,,,2,,58,0
26999,note_on,,119,0,13,,,,,,,,,,,,,,,,8,,58,0
26999,note_on,,119,0,12,,,,,,,,,,,,,,,,7,,62,0
26999,note_on,,119,0,11,,,,,,,,,,,,,,,,6,,65,0
26999,note_on,,119,0,10,,,,,,,,,,,,,,,,5,,74,0
26999,note_on,,119,0,14,,,,,,,,,,,,,,,,10,,74,0
26999,note_on,,119,0,6,,,,,,,,,,,,,,,,1,,74,0
26999,note_on,,119,0,17,,,,,,,,,,,,,,,,13,,58,0
26999,note_on,,119,0,16,,,,,,,,,,,,,,,,12,,62,0
27060,note_on,,61,0,6,,,,,,,,,,,,,,,,1,,70,72
27060,note_on,,61,0,10,,,,,,,,,,,,,,,,5,,70,72
27060,note_on,,61,0,14,,,,,,,,,,,,,,,,10,,70,72
27060,note_on,,61,0,18,,,,,,,,,,,,,,,,15,,70,72
27119,note_on,,59,0,18,,,,,,,,,,,,,,,,15,,70,0
27119,note_on,,59,0,10,,,,,,,,,,,,,,,,5,,70,0
27119,note_on,,59,0,6,,,,,,,,,,,,,,,,1,,70,0
27119,note_on,,59,0,14,,,,,,,,,,,,,,,,10,,70,0
27120,note_on,,1,0,14,,,,,,,,,,,,,,,,10,,74,72
27120,note_on,,1,0,6,,,,,,,,,,,,,,,,1,,74,72
27120,note_on,,1,0,10,,,,,,,,,,,,,,,,5,,74,72
27120,note_on,,1,0,18,,,,,,,,,,,,,,,,15,,74,72
27179,note_on,,59,0,18,,,,,,,,,,,,,,,,15,,74,0
27179,note_on,,59,0,6,,,,,,,,,,,,,,,,1,,74,0
27179,note_on,,59,0,10,,,,,,,,,,,,,,,,5,,74,0
27179,note_on,,59,0,14,,,,,,,,,,,,,,,,10,,74,0
27180,note_on,,1,0,18,,,,,,,,,,,,,,,,15,,72,72
27180,note_on,,1,0,6,,,,,,,,,,,,,,,,1,,72,72
27180,note_on,,1,0,14,,,,,,,,,,,,,,,,10,,72,72
27180,note_on,,1,0,10,,,,,,,,,,,,,,,,5,,72,72
27209,note_on,,29,0,14,,,,,,,,,,,,,,,,10,,72,0
27209,note_on,,29,0,6,,,,,,,,,,,,,,,,1,,72,0
27209,note_on,,29,0,18,,,,,,,,,,,,,,,,15,,72,0
27209,note_on,,29,0,10,,,,,,,,,,,,,,,,5,,72,0
27210,note_on,,1,0,18,,,,,,,,,,,,,,,,15,,70,72
27210,note_on,,1,0,6,,,,,,,,,,,,,,,,1,,70,72
27210,note_on,,1,0,10,,,,,,,,,,,,,,,,5,,70,72
27210,note_on,,1,0,14,,,,,,,,,,,,,,,,10,,70,72
27239,note_on,,29,0,14,,,,,,,,,,,,,,,,10,,70,0
27239,note_on,,29,0,18,,,,,,,,,,,,,,,,15,,70,0
27239,note_on,,29,0,6,,,,,,,,,,,,,,,,1,,70,0
27239,note_on,,29,0,10,,,,,,,,,,,,,,,,5,,70,0
27240,note_on,,1,0,14,,,,,,,,,,,,,,,,10,,69,72
27240,note_on,,1,0,6,,,,,,,,,,,,,,,,1,,69,72
27240,note_on,,1,0,10,,,,,,,,,,,,,,,,5,,69,72
27240,note_on,,1,0,18,,,,,,,,,,,,,,,,15,,69,72
27299,note_on,,59,0,6,,,,,,,,,,,,,,,,1,,69,0
27299,note_on,,59,0,10,,,,,,,,,,,,,,,,5,,69,0
27299,note_on,,59,0,14,,,,,,,,,,,,,,,,10,,69,0
27299,note_on,,59,0,18,,,,,,,,,,,,,,,,15,,69,0
27300,note_on,,1,0,14,,,,,,,,,,,,,,,,10,,67,72
27300,note_on,,301,0,17,,,,,,,,,,,,,,,,13,,58,72
27300,note_on,,301,0,16,,,,,,,,,,,,,,,,12,,62,72
27300,note_on,,301,0,12,,,,,,,,,,,,,,,,7,,62,72
27300,note_on,,301,0,13,,,,,,,,,,,,,,,,8,,58,72
27300,note_on,,1,0,10,,,,,,,,,,,,,,,,5,,67,72
27300,note_on,,1,0,6,,,,,,,,,,,,,,,,1,,67,72
27300,note_on,,0,0,18,,,,,,,,,,,,,,,,15,,62,72
27300,note_on,,0,0,18,,,,,,,,,,,,,,,,15,,67,72
27300,note_on,,0,0,18,,,,,,,,,,,,,,,,15,,70,72
27300,note_on,,1,0,18,,,,,,,,,,,,,,,,15,,58,72
27300,note_on,,301,0,7,,,,,,,,,,,,,,,,2,,58,72
27359,note_on,,59,0,16,,,,,,,,,,,,,,,,12,,62,0
27359,note_on,,59,0,17,,,,,,,,,,,,,,,,13,,58,0
27359,note_on,,59,0,14,,,,,,,,,,,,,,,,10,,67,0
27359,note_on,,59,0,12,,,,,,,,,,,,,,,,7,,62,0
27359,note_on,,59,0,6,,,,,,,,,,,,,,,,1,,67,0
27359,note_on,,59,0,7,,,,,,,,,,,,,,,,2,,58,0
27359,note_on,,0,0,18,,,,,,,,,,,,,,,,15,,62,0
27359,note_on,,59,0,10,,,,,,,,,,,,,,,,5,,67,0
27359,note_on,,0,0,18,,,,,,,,,,,,,,,,15,,70,0
27359,note_on,,59,0,18,,,,,,,,,,,,,,,,15,,58,0
27359,note_on,,59,0,13,,,,,,,,,,,,,,,,8,,58,0
27359,note_on,,0,0,18,,,,,,,,,,,,,,,,15,,67,0
27360,note_on,,0,0,18,,,,,,,,,,,,,,,,15,,77,72
27360,note_on,,0,0,18,,,,,,,,,,,,,,,,15,,70,72
27360,note_on,,0,0,18,,,,,,,,,,,,,,,,15,,65,72
27360,note_on,,1,0,17,,,,,,,,,,,,,,,,13,,62,72
27360,note_on,,1,0,7,,,,,,,,,,,,,,,,2,,62,72
27360,note_on,,1,0,10,,,,,,,,,,,,,,,,5,,65,72
27360,note_on,,1,0,13,,,,,,,,,,,,,,,,8,,62,72
27360,note_on,,1,0,14,,,,,,,,,,,,,,,,10,,65,72
27360,note_on,,1,0,18,,,,,,,,,,,,,,,,15,,62,72
27360,note_on,,1,0,16,,,,,,,,,,,,,,,,12,,65,72
27360,note_on,,1,0,6,,,,,,,,,,,,,,,,1,,65,72
27360,note_on,,1,0,12,,,,,,,,,,,,,,,,7,,65,72
27419,note_on,,59,0,18,,,,,,,,,,,,,,,,15,,62,0
27419,note_on,,59,0,16,,,,,,,,,,,,,,,,12,,65,0
27419,note_on,,59,0,12,,,,,,,,,,,,,,,,7,,65,0
27419,note_on,,59,0,13,,,,,,,,,,,,,,,,8,,62,0
27419,note_on,,59,0,17,,,,,,,,,,,,,,,,13,,62,0
27419,note_on,,59,0,7,,,,,,,,,,,,,,,,2,,62,0
27420,note_on,,1,0,12,,,,,,,,,,,,,,,,7,,63,72
27420,note_on,,1,0,18,,,,,,,,,,,,,,,,15,,60,72
27420,note_on,,1,0,17,,,,,,,,,,,,,,,,13,,60,72
27420,note_on,,1,0,7,,,,,,,,,,,,,,,,2,,60,72
27420,note_on,,1,0,13,,,,,,,,,,,,,,,,8,,60,72
27420,note_on,,1,0,16,,,,,,,,,,,,,,,,12,,63,72
27449,note_on,,89,0,14,,,,,,,,,,,,,,,,10,,65,0
27449,note_on,,29,0,17,,,,,,,,,,,,,,,,13,,60,0
27449,note_on,,29,0,18,,,,,,,,,,,,,,,,15,,60,0
27449,note_on,,29,0,7,,,,,,,,,,,,,,,,2,,60,0
27449,note_on,,29,0,12,,,,,,,,,,,,,,,,7,,63,0
27449,note_on,,89,0,10,,,,,,,,,,,,,,,,5,,65,0
27449,note_on,,29,0,13,,,,,,,,,,,,,,,,8,,60,0
27449,note_on,,89,0,6,,,,,,,,,,,,,,,,1,,65,0
27449,note_on,,29,0,16,,,,,,,,,,,,,,,,12,,63,0
27450,note_on,,1,0,7,,,,,,,,,,,,,,,,2,,58,72
27450,note_on,,1,0,16,,,,,,,,,,,,,,,,12,,62,72
27450,note_on,,1,0,14,,,,,,,,,,,,,,,,10,,65,72
27450,note_on,,1,0,18,,,,,,,,,,,,,,,,15,,58,72
27450,note_on,,1,0,12,,,,,,,,,,,,,,,,7,,62,72
27450,note_on,,1,0,17,,,,,,,,,,,,,,,,13,,58,72
27450,note_on,,1,0,10,,,,,,,,,,,,,,,,5,,65,72
27450,note_on,,1,0,6,,,,,,,,,,,,,,,,1,,65,72
27450,note_on,,1,0,13,,,,,,,,,,,,,,,,8,,58,72
27479,note_on,,29,0,7,,,,,,,,,,,,,,,,2,,58,0
27479,note_on,,29,0,13,,,,,,,,,,,,,,,,8,,58,0
27479,note_on,,29,0,12,,,,,,,,,,,,,,,,7,,62,0
27479,note_on,,0,0,18,,,,,,,,,,,,,,,,15,,58,0
27479,note_on,,29,0,14,,,,,,,,,,,,,,,,10,,65,0
27479,note_on,,29,0,6,,,,,,,,,,,,,,,,1,,65,0
27479,note_on,,0,0,18,,,,,,,,,,,,,,,,15,,65,0
27479,note_on,,0,0,18,,,,,,,,,,,,,,,,15,,70,0
27479,note_on,,29,0,17,,,,,,,,,,,,,,,,13,,58,0
27479,note_on,,29,0,18,,,,,,,,,,,,,,,,15,,77,0
27479,note_on,,29,0,10,,,,,,,,,,,,,,,,5,,65,0
27479,note_on,,29,0,16,,,,,,,,,,,,,,,,12,,62,0
27480,note_on,,1,0,13,,,,,,,,,,,,,,,,8,,57,72
27480,note_on,,0,0,18,,,,,,,,,,,,,,,,15,,60,72
27480,note_on,,0,0,18,,,,,,,,,,,,,,,,15,,65,72
27480,note_on,,1,0,12,,,,,,,,,,,,,,,,7,,60,72
27480,note_on,,1,0,14,,,,,,,,,,,,,,,,10,,65,72
27480,note_on,,1,0,16,,,,,,,,,,,,,,,,12,,60,72
27480,note_on,,1,0,7,,,,,,,,,,,,,,,,2,,57,72
27480,note_on,,1,0,10,,,,,,,,,,,,,,,,5,,65,72
27480,note_on,,1,0,18,,,,,,,,,,,,,,,,15,,57,72
27480,note_on,,1,0,6,,,,,,,,,,,,,,,,1,,65,72
27480,note_on,,1,0,17,,,,,,,,,,,,,,,,13,,57,72
27539,note_on,,59,0,10,,,,,,,,,,,,,,,,5,,65,0
27539,note_on,,59,0,16,,,,,,,,,,,,,,,,12,,60,0
27539,note_on,,59,0,7,,,,,,,,,,,,,,,,2,,57,0
27539,note_on,,59,0,14,,,,,,,,,,,,,,,,10,,65,0
27539,note_on,,59,0,6,,,,,,,,,,,,,,,,1,,65,0
27539,note_on,,59,0,17,,,,,,,,,,,,,,,,13,,57,0
27539,note_on,,59,0,18,,,,,,,,,,,,,,,,15,,57,0
27539,note_on,,59,0,12,,,,,,,,,,,,,,,,7,,60,0
27539,note_on,,59,0,13,,,,,,,,,,,,,,,,8,,57,0
27540,note_on,,1,0,16,,,,,,,,,,,,,,,,12,,58,72
27540,note_on,,1,0,12,,,,,,,,,,,,,,,,7,,58,72
27540,note_on,,1,0,17,,,,,,,,,,,,,,,,13,,55,72
27540,note_on,,1,0,18,,,,,,,,,,,,,,,,15,,55,72
27540,note_on,,1,0,14,,,,,,,,,,,,,,,,10,,65,72
27540,note_on,,1,0,10,,,,,,,,,,,,,,,,5,,65,72
27540,note_on,,1,0,6,,,,,,,,,,,,,,,,1,,65,72
27540,note_on,,1,0,7,,,,,,,,,,,,,,,,2,,55,72
27540,note_on,,1,0,13,,,,,,,,,,,,,,,,8,,55,72
27599,note_on,,0,0,18,,,,,,,,,,,,,,,,15,,60,0
27599,note_on,,59,0,16,,,,,,,,,,,,,,,,12,,58,0
27599,note_on,,59,0,10,,,,,,,,,,,,,,,,5,,65,0
27599,note_on,,59,0,6,,,,,,,,,,,,,,,,1,,65,0
27599,note_on,,59,0,17,,,,,,,,,,,,,,,,13,,55,0
27599,note_on,,0,0,18,,,,,,,,,,,,,,,,15,,55,0
27599,note_on,,59,0,7,,,,,,,,,,,,,,,,2,,55,0
27599,note_on,,59,0,14,,,,,,,,,,,,,,,,10,,65,0
27599,note_on,,59,0,13,,,,,,,,,,,,,,,,8,,55,0
27599,note_on,,59,0,12,,,,,,,,,,,,,,,,7,,58,0
27599,note_on,,59,0,18,,,,,,,,,,,,,,,,15,,65,0
27600,note_on,,1,0,13,,,,,,,,,,,,,,,,8,,53,72
27600,note_on,,1,0,16,,,,,,,,,,,,,,,,12,,57,72
27600,note_on,,0,0,18,,,,,,,,,,,,,,,,15,,57,72
27600,note_on,,1,0,10,,,,,,,,,,,,,,,,5,,77,72
27600,note_on,,1,0,6,,,,,,,,,,,,,,,,1,,77,72
27600,note_on,,1,0,17,,,,,,,,,,,,,,,,13,,53,72
27600,note_on,,1,0,7,,,,,,,,,,,,,,,,2,,53,72
27600,note_on,,1,0,14,,,,,,,,,,,,,,,,10,,77,72
27600,note_on,,0,0,18,,,,,,,,,,,,,,,,15,,65,72
27600,note_on,,0,0,18,,,,,,,,,,,,,,,,15,,72,72
27600,note_on,,1,0,18,,,,,,,,,,,,,,,,15,,53,72
27600,note_on,,1,0,12,,,,,,,,,,,,,,,,7,,57,72
27659,note_on,,59,0,14,,,,,,,,,,,,,,,,10,,77,0
27659,note_on,,59,0,10,,,,,,,,,,,,,,,,5,,77,0
27659,note_on,,59,0,6,,,,,,,,,,,,,,,,1,,77,0
27660,note_on,,1,0,10,,,,,,,,,,,,,,,,5,,75,72
27660,note_on,,1,0,14,,,,,,,,,,,,,,,,10,,75,72
27660,note_on,,1,0,6,,,,,,,,,,,,,,,,1,,75,72
27689,note_on,,89,0,18,,,,,,,,,,,,,,,,15,,53,0
27689,note_on,,89,0,13,,,,,,,,,,,,,,,,8,,53,0
27689,note_on,,89,0,7,,,,,,,,,,,,,,,,2,,53,0
27689,note_on,,89,0,12,,,,,,,,,,,,,,,,7,,57,0
27689,note_on,,89,0,16,,,,,,,,,,,,,,,,12,,57,0
27689,note_on,,89,0,17,,,,,,,,,,,,,,,,13,,53,0
27689,note_on,,29,0,10,,,,,,,,,,,,,,,,5,,75,0
27689,note_on,,29,0,6,,,,,,,,,,,,,,,,1,,75,0
27689,note_on,,29,0,14,,,,,,,,,,,,,,,,10,,75,0
27690,note_on,,1,0,12,,,,,,,,,,,,,,,,7,,57,72
27690,note_on,,1,0,17,,,,,,,,,,,,,,,,13,,53,72
27690,note_on,,1,0,16,,,,,,,,,,,,,,,,12,,57,72
27690,note_on,,1,0,10,,,,,,,,,,,,,,,,5,,74,72
27690,note_on,,1,0,6,,,,,,,,,,,,,,,,1,,74,72
27690,note_on,,1,0,18,,,,,,,,,,,,,,,,15,,53,72
27690,note_on,,1,0,7,,,,,,,,,,,,,,,,2,,53,72
27690,note_on,,1,0,13,,,,,,,,,,,,,,,,8,,53,72
27690,note_on,,1,0,14,,,,,,,,,,,,,,,,10,,74,72
27719,note_on,,29,0,10,,,,,,,,,,,,,,,,5,,74,0
27719,note_on,,29,0,18,,,,,,,,,,,,,,,,15,,53,0
27719,note_on,,29,0,7,,,,,,,,,,,,,,,,2,,53,0
27719,note_on,,29,0,14,,,,,,,,,,,,,,,,10,,74,0
27719,note_on,,29,0,17,,,,,,,,,,,,,,,,13,,53,0
27719,note_on,,29,0,12,,,,,,,,,,,,,,,,7,,57,0
27719,note_on,,29,0,16,,,,,,,,,,,,,,,,12,,57,0
27719,note_on,,29,0,6,,,,,,,,,,,,,,,,1,,74,0
27719,note_on,,29,0,13,,,,,,,,,,,,,,,,8,,53,0
27720,note_on,,1,0,16,,,,,,,,,,,,,,,,12,,57,72
27720,note_on,,1,0,10,,,,,,,,,,,,,,,,5,,72,72
27720,note_on,,1,0,12,,,,,,,,,,,,,,,,7,,57,72
27720,note_on,,1,0,17,,,,,,,,,,,,,,,,13,,53,72
27720,note_on,,1,0,18,,,,,,,,,,,,,,,,15,,53,72
27720,note_on,,1,0,7,,,,,,,,,,,,,,,,2,,53,72
27720,note_on,,1,0,14,,,,,,,,,,,,,,,,10,,72,72
27720,note_on,,1,0,13,,,,,,,,,,,,,,,,8,,53,72
27720,note_on,,1,0,6,,,,,,,,,,,,,,,,1,,72,72
27779,note_on,,59,0,18,,,,,,,,,,,,,,,,15,,72,0
27779,note_on,,59,0,12,,,,,,,,,,,,,,,,7,,57,0
27779,note_on,,59,0,10,,,,,,,,,,,,,,,,5,,72,0
27779,note_on,,59,0,16,,,,,,,,,,,,,,,,12,,57,0
27779,note_on,,59,0,6,,,,,,,,,,,,,,,,1,,72,0
27779,note_on,,59,0,17,,,,,,,,,,,,,,,,13,,53,0
27779,note_on,,59,0,13,,,,,,,,,,,,,,,,8,,53,0
27779,note_on,,0,0,18,,,,,,,,,,,,,,,,15,,53,0
27779,note_on,,0,0,18,,,,,,,,,,,,,,,,15,,57,0
27779,note_on,,59,0,7,,,,,,,,,,,,,,,,2,,53,0
27779,note_on,,0,0,18,,,,,,,,,,,,,,,,15,,65,0
27779,note_on,,59,0,14,,,,,,,,,,,,,,,,10,,72,0
27780,note_on,,1,0,12,,,,,,,,,,,,,,,,7,,62,72
27780,note_on,,781,0,15,,,,,,,,,,,,,,,,11,,65,72
27780,note_on,,0,0,18,,,,,,,,,,,,,,,,15,,65,72
27780,note_on,,0,0,18,,,,,,,,,,,,,,,,15,,70,72
27780,note_on,,0,0,18,,,,,,,,,,,,,,,,15,,74,72
27780,note_on,,1,0,16,,,,,,,,,,,,,,,,12,,62,72
27780,note_on,,1,0,18,,,,,,,,,,,,,,,,15,,46,72
27780,note_on,,1,0,17,,,,,,,,,,,,,,,,13,,46,72
27780,note_on,,1,0,14,,,,,,,,,,,,,,,,10,,70,72
27780,note_on,,1,0,10,,,,,,,,,,,,,,,,5,,70,72
27780,note_on,,1,0,13,,,,,,,,,,,,,,,,8,,46,72
27780,note_on,,1,0,7,,,,,,,,,,,,,,,,2,,46,72
27780,note_on,,781,0,11,,,,,,,,,,,,,,,,6,,65,72
27780,note_on,,1,0,6,,,,,,,,,,,,,,,,1,,70,72
27839,note_on,,0,0,18,,,,,,,,,,,,,,,,15,,74,0
27839,note_on,,59,0,15,,,,,,,,,,,,,,,,11,,65,0
27839,note_on,,59,0,12,,,,,,,,,,,,,,,,7,,62,0
27839,note_on,,59,0,13,,,,,,,,,,,,,,,,8,,46,0
27839,note_on,,59,0,18,,,,,,,,,,,,,,,,15,,46,0
27839,note_on,,59,0,16,,,,,,,,,,,,,,,,12,,62,0
27839,note_on,,0,0,18,,,,,,,,,,,,,,,,15,,70,0
27839,note_on,,59,0,6,,,,,,,,,,,,,,,,1,,70,0
27839,note_on,,59,0,7,,,,,,,,,,,,,,,,2,,46,0
27839,note_on,,0,0,18,,,,,,,,,,,,,,,,15,,65,0
27839,note_on,,59,0,17,,,,,,,,,,,,,,,,13,,46,0
27839,note_on,,59,0,14,,,,,,,,,,,,,,,,10,,70,0
27839,note_on,,59,0,11,,,,,,,,,,,,,,,,6,,65,0
27839,note_on,,59,0,10,,,,,,,,,,,,,,,,5,,70,0
27840,note_on,,1,0,14,,,,,,,,,,,,,,,,10,,69,72
27840,note_on,,1,0,11,,,,,,,,,,,,,,,,6,,65,72
27840,note_on,,1,0,7,,,,,,,,,,,,,,,,2,,53,72
27840,note_on,,0,0,18,,,,,,,,,,,,,,,,15,,69,72
27840,note_on,,1,0,15,,,,,,,,,,,,,,,,11,,77,72
27840,note_on,,1,0,16,,,,,,,,,,,,,,,,12,,60,72
27840,note_on,,1,0,17,,,,,,,,,,,,,,,,13,,53,72
27840,note_on,,0,0,18,,,,,,,,,,,,,,,,15,,60,72
27840,note_on,,0,0,18,,,,,,,,,,,,,,,,15,,65,72
27840,note_on,,1,0,12,,,,,,,,,,,,,,,,7,,60,72
27840,note_on,,1,0,13,,,,,,,,,,,,,,,,8,,53,72
27840,note_on,,1,0,6,,,,,,,,,,,,,,,,1,,69,72
27840,note_on,,1,0,18,,,,,,,,,,,,,,,,15,,53,72
27840,note_on,,1,0,10,,,,,,,,,,,,,,,,5,,69,72
27899,note_on,,59,0,11,,,,,,,,,,,,,,,,6,,65,0
27899,note_on,,59,0,15,,,,,,,,,,,,,,,,11,,77,0
27900,note_on,,1,0,15,,,,,,,,,,,,,,,,11,,75,72
27900,note_on,,1,0,11,,,,,,,,,,,,,,,,6,,63,72
27929,note_on,,89,0,14,,,,,,,,,,,,,,,,10,,69,0
27929,note_on,,29,0,11,,,,,,,,,,,,,,,,6,,63,0
27929,note_on,,89,0,7,,,,,,,,,,,,,,,,2,,53,0
27929,note_on,,89,0,6,,,,,,,,,,,,,,,,1,,69,0
27929,note_on,,89,0,13,,,,,,,,,,,,,,,,8,,53,0
27929,note_on,,89,0,16,,,,,,,,,,,,,,,,12,,60,0
27929,note_on,,29,0,15,,,,,,,,,,,,,,,,11,,75,0
27929,note_on,,89,0,12,,,,,,,,,,,,,,,,7,,60,0
27929,note_on,,89,0,18,,,,,,,,,,,,,,,,15,,53,0
27929,note_on,,89,0,10,,,,,,,,,,,,,,,,5,,69,0
27929,note_on,,89,0,17,,,,,,,,,,,,,,,,13,,53,0
27930,note_on,,1,0,13,,,,,,,,,,,,,,,,8,,53,72
27930,note_on,,1,0,10,,,,,,,,,,,,,,,,5,,69,72
27930,note_on,,1,0,11,,,,,,,,,,,,,,,,6,,62,72
27930,note_on,,1,0,15,,,,,,,,,,,,,,,,11,,74,72
27930,note_on,,1,0,7,,,,,,,,,,,,,,,,2,,53,72
27930,note_on,,1,0,18,,,,,,,,,,,,,,,,15,,53,72
27930,note_on,,1,0,6,,,,,,,,,,,,,,,,1,,69,72
27930,note_on,,1,0,17,,,,,,,,,,,,,,,,13,,53,72
27930,note_on,,1,0,12,,,,,,,,,,,,,,,,7,,53,72
27930,note_on,,1,0,16,,,,,,,,,,,,,,,,12,,65,72
27930,note_on,,1,0,14,,,,,,,,,,,,,,,,10,,69,72
27959,note_on,,29,0,12,,,,,,,,,,,,,,,,7,,53,0
27959,note_on,,29,0,13,,,,,,,,,,,,,,,,8,,53,0
27959,note_on,,29,0,6,,,,,,,,,,,,,,,,1,,69,0
27959,note_on,,29,0,15,,,,,,,,,,,,,,,,11,,74,0
27959,note_on,,29,0,7,,,,,,,,,,,,,,,,2,,53,0
27959,note_on,,29,0,11,,,,,,,,,,,,,,,,6,,62,0
27959,note_on,,29,0,18,,,,,,,,,,,,,,,,15,,53,0
27959,note_on,,29,0,17,,,,,,,,,,,,,,,,13,,53,0
27959,note_on,,29,0,10,,,,,,,,,,,,,,,,5,,69,0
27959,note_on,,29,0,14,,,,,,,,,,,,,,,,10,,69,0
27959,note_on,,29,0,16,,,,,,,,,,,,,,,,12,,65,0
27960,note_on,,1,0,13,,,,,,,,,,,,,,,,8,,53,72
27960,note_on,,1,0,7,,,,,,,,,,,,,,,,2,,53,72
27960,note_on,,1,0,14,,,,,,,,,,,,,,,,10,,69,72
27960,note_on,,1,0,6,,,,,,,,,,,,,,,,1,,69,72
27960,note_on,,1,0,10,,,,,,,,,,,,,,,,5,,69,72
27960,note_on,,1,0,12,,,,,,,,,,,,,,,,7,,53,72
27960,note_on,,1,0,11,,,,,,,,,,,,,,,,6,,60,72
27960,note_on,,1,0,17,,,,,,,,,,,,,,,,13,,53,72
27960,note_on,,1,0,15,,,,,,,,,,,,,,,,11,,72,72
27960,note_on,,1,0,16,,,,,,,,,,,,,,,,12,,65,72
27960,note_on,,1,0,18,,,,,,,,,,,,,,,,15,,53,72
28019,note_on,,59,0,18,,,,,,,,,,,,,,,,15,,69,0
28019,note_on,,59,0,17,,,,,,,,,,,,,,,,13,,53,0
28019,note_on,,59,0,12,,,,,,,,,,,,,,,,7,,53,0
28019,note_on,,59,0,10,,,,,,,,,,,,,,,,5,,69,0
28019,note_on,,0,0,18,,,,,,,,,,,,,,,,15,,65,0
28019,note_on,,0,0,18,,,,,,,,,,,,,,,,15,,60,0
28019,note_on,,59,0,14,,,,,,,,,,,,,,,,10,,69,0
28019,note_on,,59,0,7,,,,,,,,,,,,,,,,2,,53,0
28019,note_on,,0,0,18,,,,,,,,,,,,,,,,15,,53,0
28019,note_on,,59,0,11,,,,,,,,,,,,,,,,6,,60,0
28019,note_on,,59,0,6,,,,,,,,,,,,,,,,1,,69,0
28019,note_on,,59,0,16,,,,,,,,,,,,,,,,12,,65,0
28019,note_on,,59,0,15,,,,,,,,,,,,,,,,11,,72,0
28019,note_on,,59,0,13,,,,,,,,,,,,,,,,8,,53,0
28020,note_on,,1,0,17,,,,,,,,,,,,,,,,13,,46,72
28020,note_on,,1,0,18,,,,,,,,,,,,,,,,15,,46,72
28020,note_on,,1,0,16,,,,,,,,,,,,,,,,12,,62,72
28020,note_on,,1,0,15,,,,,,,,,,,,,,,,11,,70,72
28020,note_on,,0,0,18,,,,,,,,,,,,,,,,15,,70,72
28020,note_on,,0,0,18,,,,,,,,,,,,,,,,15,,65,72
28020,note_on,,1,0,11,,,,,,,,,,,,,,,,6,,58,72
28020,note_on,,1,0,12,,,,,,,,,,,,,,,,7,,62,72
28020,note_on,,1,0,7,,,,,,,,,,,,,,,,2,,46,72
28020,note_on,,1,0,10,,,,,,,,,,,,,,,,5,,70,72
28020,note_on,,1,0,13,,,,,,,,,,,,,,,,8,,46,72
28020,note_on,,0,0,18,,,,,,,,,,,,,,,,15,,77,72
28020,note_on,,0,0,18,,,,,,,,,,,,,,,,15,,74,72
28020,note_on,,1,0,14,,,,,,,,,,,,,,,,10,,70,72
28020,note_on,,1,0,6,,,,,,,,,,,,,,,,1,,70,72
28079,note_on,,59,0,6,,,,,,,,,,,,,,,,1,,70,0
28079,note_on,,0,0,18,,,,,,,,,,,,,,,,15,,77,0
28079,note_on,,0,0,18,,,,,,,,,,,,,,,,15,,65,0
28079,note_on,,59,0,18,,,,,,,,,,,,,,,,15,,46,0
28079,note_on,,59,0,11,,,,,,,,,,,,,,,,6,,58,0
28079,note_on,,0,0,18,,,,,,,,,,,,,,,,15,,70,0
28079,note_on,,59,0,7,,,,,,,,,,,,,,,,2,,46,0
28079,note_on,,59,0,13,,,,,,,,,,,,,,,,8,,46,0
28079,note_on,,59,0,16,,,,,,,,,,,,,,,,12,,62,0
28079,note_on,,59,0,10,,,,,,,,,,,,,,,,5,,70,0
28079,note_on,,59,0,14,,,,,,,,,,,,,,,,10,,70,0
28079,note_on,,59,0,15,,,,,,,,,,,,,,,,11,,70,0
28079,note_on,,59,0,17,,,,,,,,,,,,,,,,13,,46,0
28079,note_on,,59,0,12,,,,,,,,,,,,,,,,7,,62,0
28079,note_on,,0,0,18,,,,,,,,,,,,,,,,15,,74,0
28080,note_on,,1,0,11,,,,,,,,,,,,,,,,6,,69,72
28080,note_on,,1,0,14,,,,,,,,,,,,,,,,10,,72,72
28080,note_on,,0,0,18,,,,,,,,,,,,,,,,15,,69,72
28080,note_on,,1,0,17,,,,,,,,,,,,,,,,13,,53,72
28080,note_on,,1,0,6,,,,,,,,,,,,,,,,1,,72,72
28080,note_on,,0,0,18,,,,,,,,,,,,,,,,15,,72,72
28080,note_on,,0,0,18,,,,,,,,,,,,,,,,15,,65,72
28080,note_on,,1,0,13,,,,,,,,,,,,,,,,8,,53,72
28080,note_on,,1,0,12,,,,,,,,,,,,,,,,7,,60,72
28080,note_on,,1,0,18,,,,,,,,,,,,,,,,15,,53,72
28080,note_on,,1,0,7,,,,,,,,,,,,,,,,2,,53,72
28080,note_on,,1,0,10,,,,,,,,,,,,,,,,5,,72,72
28080,note_on,,1,0,15,,,,,,,,,,,,,,,,11,,69,72
28080,note_on,,1,0,16,,,,,,,,,,,,,,,,12,,60,72
28139,note_on,,59,0,18,,,,,,,,,,,,,,,,15,,53,0
28139,note_on,,59,0,14,,,,,,,,,,,,,,,,10,,72,0
28139,note_on,,59,0,6,,,,,,,,,,,,,,,,1,,72,0
28139,note_on,,59,0,13,,,,,,,,,,,,,,,,8,,53,0
28139,note_on,,59,0,17,,,,,,,,,,,,,,,,13,,53,0
28139,note_on,,59,0,10,,,,,,,,,,,,,,,,5,,72,0
28139,note_on,,59,0,7,,,,,,,,,,,,,,,,2,,53,0
28140,note_on,,1,0,7,,,,,,,,,,,,,,,,2,,51,72
28140,note_on,,1,0,17,,,,,,,,,,,,,,,,13,,51,72
28140,note_on,,1,0,18,,,,,,,,,,,,,,,,15,,51,72
28140,note_on,,1,0,14,,,,,,,,,,,,,,,,10,,72,72
28140,note_on,,1,0,6,,,,,,,,,,,,,,,,1,,72,72
28140,note_on,,1,0,10,,,,,,,,,,,,,,,,5,,72,72
28140,note_on,,1,0,13,,,,,,,,,,,,,,,,8,,51,72
28169,note_on,,89,0,12,,,,,,,,,,,,,,,,7,,60,0
28169,note_on,,89,0,15,,,,,,,,,,,,,,,,11,,69,0
28169,note_on,,29,0,17,,,,,,,,,,,,,,,,13,,51,0
28169,note_on,,89,0,11,,,,,,,,,,,,,,,,6,,69,0
28169,note_on,,29,0,13,,,,,,,,,,,,,,,,8,,51,0
28169,note_on,,29,0,18,,,,,,,,,,,,,,,,15,,51,0
28169,note_on,,89,0,16,,,,,,,,,,,,,,,,12,,60,0
28169,note_on,,29,0,7,,,,,,,,,,,,,,,,2,,51,0
28170,note_on,,1,0,11,,,,,,,,,,,,,,,,6,,69,72
28170,note_on,,1,0,7,,,,,,,,,,,,,,,,2,,50,72
28170,note_on,,1,0,17,,,,,,,,,,,,,,,,13,,50,72
28170,note_on,,1,0,12,,,,,,,,,,,,,,,,7,,62,72
28170,note_on,,1,0,15,,,,,,,,,,,,,,,,11,,69,72
28170,note_on,,1,0,13,,,,,,,,,,,,,,,,8,,50,72
28170,note_on,,1,0,18,,,,,,,,,,,,,,,,15,,50,72
28170,note_on,,1,0,16,,,,,,,,,,,,,,,,12,,62,72
28199,note_on,,29,0,18,,,,,,,,,,,,,,,,15,,72,0
28199,note_on,,59,0,14,,,,,,,,,,,,,,,,10,,72,0
28199,note_on,,0,0,18,,,,,,,,,,,,,,,,15,,65,0
28199,note_on,,0,0,18,,,,,,,,,,,,,,,,15,,50,0
28199,note_on,,0,0,18,,,,,,,,,,,,,,,,15,,69,0
28199,note_on,,29,0,15,,,,,,,,,,,,,,,,11,,69,0
28199,note_on,,29,0,17,,,,,,,,,,,,,,,,13,,50,0
28199,note_on,,29,0,13,,,,,,,,,,,,,,,,8,,50,0
28199,note_on,,59,0,6,,,,,,,,,,,,,,,,1,,72,0
28199,note_on,,29,0,16,,,,,,,,,,,,,,,,12,,62,0
28199,note_on,,59,0,10,,,,,,,,,,,,,,,,5,,72,0
28199,note_on,,29,0,12,,,,,,,,,,,,,,,,7,,62,0
28199,note_on,,29,0,7,,,,,,,,,,,,,,,,2,,50,0
28199,note_on,,29,0,11,,,,,,,,,,,,,,,,6,,69,0
28200,note_on,,1,0,13,,,,,,,,,,,,,,,,8,,48,72
28200,note_on,,1,0,6,,,,,,,,,,,,,,,,1,,72,72
28200,note_on,,1,0,10,,,,,,,,,,,,,,,,5,,72,72
28200,note_on,,1,0,12,,,,,,,,,,,,,,,,7,,63,72
28200,note_on,,1,0,17,,,,,,,,,,,,,,,,13,,48,72
28200,note_on,,1,0,15,,,,,,,,,,,,,,,,11,,69,72
28200,note_on,,0,0,18,,,,,,,,,,,,,,,,15,,69,72
28200,note_on,,1,0,18,,,,,,,,,,,,,,,,15,,48,72
28200,note_on,,0,0,18,,,,,,,,,,,,,,,,15,,63,72
28200,note_on,,1,0,11,,,,,,,,,,,,,,,,6,,69,72
28200,note_on,,1,0,14,,,,,,,,,,,,,,,,10,,72,72
28200,note_on,,1,0,7,,,,,,,,,,,,,,,,2,,48,72
28200,note_on,,1,0,16,,,,,,,,,,,,,,,,12,,63,72
28259,note_on,,59,0,16,,,,,,,,,,,,,,,,12,,63,0
28259,note_on,,59,0,18,,,,,,,,,,,,,,,,15,,48,0
28259,note_on,,0,0,18,,,,,,,,,,,,,,,,15,,69,0
28259,note_on,,0,0,18,,,,,,,,,,,,,,,,15,,63,0
28259,note_on,,59,0,10,,,,,,,,,,,,,,,,5,,72,0
28259,note_on,,59,0,6,,,,,,,,,,,,,,,,1,,72,0
28259,note_on,,59,0,7,,,,,,,,,,,,,,,,2,,48,0
28259,note_on,,59,0,15,,,,,,,,,,,,,,,,11,,69,0
28259,note_on,,59,0,12,,,,,,,,,,,,,,,,7,,63,0
28259,note_on,,59,0,11,,,,,,,,,,,,,,,,6,,69,0
28259,note_on,,59,0,13,,,,,,,,,,,,,,,,8,,48,0
28259,note_on,,59,0,14,,,,,,,,,,,,,,,,10,,72,0
28259,note_on,,59,0,17,,,,,,,,,,,,,,,,13,,48,0
28260,note_on,,0,0,18,,,,,,,,,,,,,,,,15,,65,72
28260,note_on,,0,0,18,,,,,,,,,,,,,,,,15,,62,72
28260,note_on,,1,0,15,,,,,,,,,,,,,,,,11,,70,72
28260,note_on,,1,0,11,,,,,,,,,,,,,,,,6,,70,72
28260,note_on,,1,0,10,,,,,,,,,,,,,,,,5,,74,72
28260,note_on,,1,0,18,,,,,,,,,,,,,,,,15,,46,72
28260,note_on,,1,0,17,,,,,,,,,,,,,,,,13,,46,72
28260,note_on,,1,0,12,,,,,,,,,,,,,,,,7,,65,72
28260,note_on,,1,0,7,,,,,,,,,,,,,,,,2,,46,72
28260,note_on,,0,0,18,,,,,,,,,,,,,,,,15,,70,72
28260,note_on,,1,0,13,,,,,,,,,,,,,,,,8,,46,72
28260,note_on,,1,0,6,,,,,,,,,,,,,,,,1,,74,72
28260,note_on,,1,0,14,,,,,,,,,,,,,,,,10,,74,72
28260,note_on,,1,0,16,,,,,,,,,,,,,,,,12,,65,72
28319,note_on,,0,0,18,,,,,,,,,,,,,,,,15,,62,0
28319,note_on,,59,0,11,,,,,,,,,,,,,,,,6,,70,0
28319,note_on,,59,0,7,,,,,,,,,,,,,,,,2,,46,0
28319,note_on,,59,0,18,,,,,,,,,,,,,,,,15,,46,0
28319,note_on,,0,0,18,,,,,,,,,,,,,,,,15,,70,0
28319,note_on,,59,0,6,,,,,,,,,,,,,,,,1,,74,0
28319,note_on,,0,0,18,,,,,,,,,,,,,,,,15,,65,0
28319,note_on,,59,0,14,,,,,,,,,,,,,,,,10,,74,0
28319,note_on,,59,0,12,,,,,,,,,,,,,,,,7,,65,0
28319,note_on,,59,0,16,,,,,,,,,,,,,,,,12,,65,0
28319,note_on,,59,0,15,,,,,,,,,,,,,,,,11,,70,0
28319,note_on,,59,0,10,,,,,,,,,,,,,,,,5,,74,0
28319,note_on,,59,0,17,,,,,,,,,,,,,,,,13,,46,0
28319,note_on,,59,0,13,,,,,,,,,,,,,,,,8,,46,0
28320,note_on,,1,0,15,,,,,,,,,,,,,,,,11,,65,72
28320,note_on,,1,0,14,,,,,,,,,,,,,,,,10,,75,72
28320,note_on,,1,0,13,,,,,,,,,,,,,,,,8,,57,72
28320,note_on,,1,0,17,,,,,,,,,,,,,,,,13,,45,72
28320,note_on,,1,0,12,,,,,,,,,,,,,,,,7,,60,72
28320,note_on,,0,0,18,,,,,,,,,,,,,,,,15,,65,72
28320,note_on,,1,0,16,,,,,,,,,,,,,,,,12,,72,72
28320,note_on,,1,0,10,,,,,,,,,,,,,,,,5,,75,72
28320,note_on,,0,0,18,,,,,,,,,,,,,,,,15,,60,72
28320,note_on,,0,0,18,,,,,,,,,,,,,,,,15,,72,72
28320,note_on,,1,0,18,,,,,,,,,,,,,,,,15,,45,72
28320,note_on,,1,0,6,,,,,,,,,,,,,,,,1,,75,72
28320,note_on,,1,0,11,,,,,,,,,,,,,,,,6,,65,72
28320,note_on,,1,0,7,,,,,,,,,,,,,,,,2,,45,72
28409,note_on,,89,0,10,,,,,,,,,,,,,,,,5,,75,0
28409,note_on,,89,0,16,,,,,,,,,,,,,,,,12,,72,0
28409,note_on,,89,0,15,,,,,,,,,,,,,,,,11,,65,0
28409,note_on,,89,0,17,,,,,,,,,,,,,,,,13,,45,0
28409,note_on,,89,0,18,,,,,,,,,,,,,,,,15,,45,0
28409,note_on,,89,0,6,,,,,,,,,,,,,,,,1,,75,0
28409,note_on,,89,0,14,,,,,,,,,,,,,,,,10,,75,0
28409,note_on,,89,0,11,,,,,,,,,,,,,,,,6,,65,0
28409,note_on,,89,0,12,,,,,,,,,,,,,,,,7,,60,0
28409,note_on,,89,0,13,,,,,,,,,,,,,,,,8,,57,0
28409,note_on,,89,0,7,,,,,,,,,,,,,,,,2,,45,0
28410,note_on,,1,0,13,,,,,,,,,,,,,,,,8,,55,72
28410,note_on,,1,0,16,,,,,,,,,,,,,,,,12,,70,72
28410,note_on,,1,0,15,,,,,,,,,,,,,,,,11,,67,72
28410,note_on,,1,0,6,,,,,,,,,,,,,,,,1,,75,72
28410,note_on,,1,0,12,,,,,,,,,,,,,,,,7,,58,72
28410,note_on,,1,0,10,,,,,,,,,,,,,,,,5,,75,72
28410,note_on,,1,0,14,,,,,,,,,,,,,,,,10,,75,72
28410,note_on,,1,0,18,,,,,,,,,,,,,,,,15,,43,72
28410,note_on,,1,0,11,,,,,,,,,,,,,,,,6,,67,72
28410,note_on,,1,0,7,,,,,,,,,,,,,,,,2,,43,72
28410,note_on,,1,0,17,,,,,,,,,,,,,,,,13,,43,72
28439,note_on,,29,0,13,,,,,,,,,,,,,,,,8,,55,0
28439,note_on,,0,0,18,,,,,,,,,,,,,,,,15,,60,0
28439,note_on,,29,0,11,,,,,,,,,,,,,,,,6,,67,0
28439,note_on,,0,0,18,,,,,,,,,,,,,,,,15,,43,0
28439,note_on,,29,0,16,,,,,,,,,,,,,,,,12,,70,0
28439,note_on,,29,0,12,,,,,,,,,,,,,,,,7,,58,0
28439,note_on,,29,0,7,,,,,,,,,,,,,,,,2,,43,0
28439,note_on,,29,0,10,,,,,,,,,,,,,,,,5,,75,0
28439,note_on,,29,0,14,,,,,,,,,,,,,,,,10,,75,0
28439,note_on,,29,0,6,,,,,,,,,,,,,,,,1,,75,0
28439,note_on,,0,0,18,,,,,,,,,,,,,,,,15,,65,0
28439,note_on,,29,0,15,,,,,,,,,,,,,,,,11,,67,0
28439,note_on,,29,0,17,,,,,,,,,,,,,,,,13,,43,0
28439,note_on,,29,0,18,,,,,,,,,,,,,,,,15,,72,0
28440,note_on,,1,0,17,,,,,,,,,,,,,,,,13,,41,72
28440,note_on,,1,0,7,,,,,,,,,,,,,,,,2,,41,72
28440,note_on,,1,0,14,,,,,,,,,,,,,,,,10,,75,72
28440,note_on,,1,0,11,,,,,,,,,,,,,,,,6,,69,72
28440,note_on,,1,0,16,,,,,,,,,,,,,,,,12,,72,72
28440,note_on,,1,0,10,,,,,,,,,,,,,,,,5,,75,72
28440,note_on,,1,0,6,,,,,,,,,,,,,,,,1,,75,72
28440,note_on,,1,0,13,,,,,,,,,,,,,,,,8,,53,72
28440,note_on,,0,0,18,,,,,,,,,,,,,,,,15,,60,72
28440,note_on,,0,0,18,,,,,,,,,,,,,,,,15,,65,72
28440,note_on,,0,0,18,,,,,,,,,,,,,,,,15,,69,72
28440,note_on,,1,0,18,,,,,,,,,,,,,,,,15,,41,72
28440,note_on,,1,0,15,,,,,,,,,,,,,,,,11,,69,72
28440,note_on,,1,0,12,,,,,,,,,,,,,,,,7,,60,72
28499,note_on,,59,0,11,,,,,,,,,,,,,,,,6,,69,0
28499,note_on,,0,0,18,,,,,,,,,,,,,,,,15,,60,0
28499,note_on,,59,0,14,,,,,,,,,,,,,,,,10,,75,0
28499,note_on,,59,0,17,,,,,,,,,,,,,,,,13,,41,0
28499,note_on,,59,0,13,,,,,,,,,,,,,,,,8,,53,0
28499,note_on,,59,0,12,,,,,,,,,,,,,,,,7,,60,0
28499,note_on,,0,0,18,,,,,,,,,,,,,,,,15,,65,0
28499,note_on,,59,0,15,,,,,,,,,,,,,,,,11,,69,0
28499,note_on,,59,0,7,,,,,,,,,,,,,,,,2,,41,0
28499,note_on,,0,0,18,,,,,,,,,,,,,,,,15,,69,0
28499,note_on,,59,0,16,,,,,,,,,,,,,,,,12,,72,0
28499,note_on,,59,0,6,,,,,,,,,,,,,,,,1,,75,0
28499,note_on,,59,0,18,,,,,,,,,,,,,,,,15,,41,0
28499,note_on,,59,0,10,,,,,,,,,,,,,,,,5,,75,0
28500,note_on,,1,0,13,,,,,,,,,,,,,,,,8,,57,72
28500,note_on,,1,0,11,,,,,,,,,,,,,,,,6,,65,72
28500,note_on,,1,0,17,,,,,,,,,,,,,,,,13,,45,72
28500,note_on,,1,0,6,,,,,,,,,,,,,,,,1,,77,72
28500,note_on,,1,0,18,,,,,,,,,,,,,,,,15,,45,72
28500,note_on,,1,0,15,,,,,,,,,,,,,,,,11,,65,72
28500,note_on,,1,0,14,,,,,,,,,,,,,,,,10,,77,72
28500,note_on,,0,0,18,,,,,,,,,,,,,,,,15,,65,72
28500,note_on,,0,0,18,,,,,,,,,,,,,,,,15,,72,72
28500,note_on,,1,0,10,,,,,,,,,,,,,,,,5,,77,72
28500,note_on,,1,0,16,,,,,,,,,,,,,,,,12,,72,72
28500,note_on,,1,0,12,,,,,,,,,,,,,,,,7,,60,72
28500,note_on,,1,0,7,,,,,,,,,,,,,,,,2,,45,72
28500,note_on,,0,0,18,,,,,,,,,,,,,,,,15,,60,72
28559,note_on,,0,0,18,,,,,,,,,,,,,,,,15,,60,0
28559,note_on,,59,0,18,,,,,,,,,,,,,,,,15,,45,0
28559,note_on,,59,0,16,,,,,,,,,,,,,,,,12,,72,0
28559,note_on,,0,0,18,,,,,,,,,,,,,,,,15,,65,0
28559,note_on,,59,0,6,,,,,,,,,,,,,,,,1,,77,0
28559,note_on,,59,0,11,,,,,,,,,,,,,,,,6,,65,0
28559,note_on,,59,0,13,,,,,,,,,,,,,,,,8,,57,0
28559,note_on,,59,0,12,,,,,,,,,,,,,,,,7,,60,0
28559,note_on,,59,0,17,,,,,,,,,,,,,,,,13,,45,0
28559,note_on,,0,0,18,,,,,,,,,,,,,,,,15,,72,0
28559,note_on,,59,0,10,,,,,,,,,,,,,,,,5,,77,0
28559,note_on,,59,0,15,,,,,,,,,,,,,,,,11,,65,0
28559,note_on,,59,0,7,,,,,,,,,,,,,,,,2,,45,0
28559,note_on,,59,0,14,,,,,,,,,,,,,,,,10,,77,0
28560,note_on,,1,0,13,,,,,,,,,,,,,,,,8,,58,72
28560,note_on,,1,0,6,,,,,,,,,,,,,,,,1,,74,72
28560,note_on,,1,0,16,,,,,,,,,,,,,,,,12,,65,72
28560,note_on,,1,0,15,,,,,,,,,,,,,,,,11,,70,72
28560,note_on,,1,0,10,,,,,,,,,,,,,,,,5,,74,72
28560,note_on,,1,0,17,,,,,,,,,,,,,,,,13,,46,72
28560,note_on,,0,0,18,,,,,,,,,,,,,,,,15,,58,72
28560,note_on,,1,0,12,,,,,,,,,,,,,,,,7,,62,72
28560,note_on,,1,0,7,,,,,,,,,,,,,,,,2,,46,72
28560,note_on,,1,0,11,,,,,,,,,,,,,,,,6,,65,72
28560,note_on,,0,0,18,,,,,,,,,,,,,,,,15,,62,72
28560,note_on,,1,0,14,,,,,,,,,,,,,,,,10,,74,72
28560,note_on,,1,0,18,,,,,,,,,,,,,,,,15,,46,72
28560,note_on,,0,0,18,,,,,,,,,,,,,,,,15,,65,72
28679,note_on,,119,0,12,,,,,,,,,,,,,,,,7,,62,0
28679,note_on,,119,0,18,,,,,,,,,,,,,,,,15,,46,0
28679,note_on,,0,0,18,,,,,,,,,,,,,,,,15,,65,0
28679,note_on,,119,0,15,,,,,,,,,,,,,,,,11,,70,0
28679,note_on,,119,0,17,,,,,,,,,,,,,,,,13,,46,0
28679,note_on,,0,0,18,,,,,,,,,,,,,,,,15,,62,0
28679,note_on,,0,0,18,,,,,,,,,,,,,,,,15,,58,0
28679,note_on,,119,0,7,,,,,,,,,,,,,,,,2,,46,0
28679,note_on,,119,0,11,,,,,,,,,,,,,,,,6,,65,0
28679,note_on,,119,0,13,,,,,,,,,,,,,,,,8,,58,0
28679,note_on,,119,0,16,,,,,,,,,,,,,,,,12,,65,0
28680,note_on,,1,0,12,,,,,,,,,,,,,,,,7,,58,72
28680,note_on,,1,0,16,,,,,,,,,,,,,,,,12,,67,72
28680,note_on,,1,0,17,,,,,,,,,,,,,,,,13,,51,72
28680,note_on,,1,0,7,,,,,,,,,,,,,,,,2,,51,72
28680,note_on,,0,0,18,,,,,,,,,,,,,,,,15,,67,72
28680,note_on,,1,0,13,,,,,,,,,,,,,,,,8,,51,72
28680,note_on,,1,0,11,,,,,,,,,,,,,,,,6,,67,72
28680,note_on,,1,0,15,,,,,,,,,,,,,,,,11,,70,72
28680,note_on,,1,0,18,,,,,,,,,,,,,,,,15,,51,72
28680,note_on,,0,0,18,,,,,,,,,,,,,,,,15,,58,72
28680,note_on,,0,0,18,,,,,,,,,,,,,,,,15,,55,72
28739,note_on,,179,0,6,,,,,,,,,,,,,,,,1,,74,0
28739,note_on,,179,0,14,,,,,,,,,,,,,,,,10,,74,0
28739,note_on,,179,0,10,,,,,,,,,,,,,,,,5,,74,0
28740,note_on,,1,0,6,,,,,,,,,,,,,,,,1,,72,72
28740,note_on,,1,0,14,,,,,,,,,,,,,,,,10,,72,72
28740,note_on,,1,0,10,,,,,,,,,,,,,,,,5,,72,72
28799,note_on,,119,0,13,,,,,,,,,,,,,,,,8,,51,0
28799,note_on,,59,0,6,,,,,,,,,,,,,,,,1,,72,0
28799,note_on,,119,0,11,,,,,,,,,,,,,,,,6,,67,0
28799,note_on,,59,0,14,,,,,,,,,,,,,,,,10,,72,0
28799,note_on,,59,0,10,,,,,,,,,,,,,,,,5,,72,0
28799,note_on,,0,0,18,,,,,,,,,,,,,,,,15,,55,0
28799,note_on,,119,0,7,,,,,,,,,,,,,,,,2,,51,0
28799,note_on,,119,0,17,,,,,,,,,,,,,,,,13,,51,0
28799,note_on,,119,0,15,,,,,,,,,,,,,,,,11,,70,0
28799,note_on,,119,0,16,,,,,,,,,,,,,,,,12,,67,0
28799,note_on,,119,0,12,,,,,,,,,,,,,,,,7,,58,0
28799,note_on,,119,0,18,,,,,,,,,,,,,,,,15,,51,0
28799,note_on,,0,0,18,,,,,,,,,,,,,,,,15,,67,0
28799,note_on,,0,0,18,,,,,,,,,,,,,,,,15,,58,0
28800,note_on,,1,0,13,,,,,,,,,,,,,,,,8,,53,72
28800,note_on,,1,0,16,,,,,,,,,,,,,,,,12,,65,72
28800,note_on,,1,0,14,,,,,,,,,,,,,,,,10,,72,72
28800,note_on,,1,0,11,,,,,,,,,,,,,,,,6,,65,72
28800,note_on,,1,0,18,,,,,,,,,,,,,,,,15,,53,72
28800,note_on,,1,0,15,,,,,,,,,,,,,,,,11,,70,72
28800,note_on,,1,0,10,,,,,,,,,,,,,,,,5,,72,72
28800,note_on,,1,0,17,,,,,,,,,,,,,,,,13,,53,72
28800,note_on,,1,0,6,,,,,,,,,,,,,,,,1,,72,72
28800,note_on,,1,0,12,,,,,,,,,,,,,,,,7,,58,72
28800,note_on,,1,0,7,,,,,,,,,,,,,,,,2,,53,72
28800,note_on,,0,0,18,,,,,,,,,,,,,,,,15,,60,72
28800,note_on,,0,0,18,,,,,,,,,,,,,,,,15,,58,72
28919,note_on,,119,0,12,,,,,,,,,,,,,,,,7,,58,0
28919,note_on,,119,0,7,,,,,,,,,,,,,,,,2,,53,0
28919,note_on,,119,0,16,,,,,,,,,,,,,,,,12,,65,0
28919,note_on,,119,0,18,,,,,,,,,,,,,,,,15,,53,0
28919,note_on,,0,0,18,,,,,,,,,,,,,,,,15,,60,0
28919,note_on,,119,0,15,,,,,,,,,,,,,,,,11,,70,0
28919,note_on,,0,0,18,,,,,,,,,,,,,,,,15,,58,0
28919,note_on,,119,0,17,,,,,,,,,,,,,,,,13,,53,0
28920,note_on,,0,0,18,,,,,,,,,,,,,,,,15,,57,72
28920,note_on,,1,0,15,,,,,,,,,,,,,,,,11,,69,72
28920,note_on,,1,0,18,,,,,,,,,,,,,,,,15,,41,72
28920,note_on,,0,0,18,,,,,,,,,,,,,,,,15,,65,72
28920,note_on,,0,0,18,,,,,,,,,,,,,,,,15,,60,72
28920,note_on,,1,0,7,,,,,,,,,,,,,,,,2,,41,72
28920,note_on,,1,0,12,,,,,,,,,,,,,,,,7,,57,72
28920,note_on,,1,0,16,,,,,,,,,,,,,,,,12,,65,72
28920,note_on,,1,0,17,,,,,,,,,,,,,,,,13,,41,72
28979,note_on,,179,0,10,,,,,,,,,,,,,,,,5,,72,0
28979,note_on,,179,0,14,,,,,,,,,,,,,,,,10,,72,0
28979,note_on,,179,0,13,,,,,,,,,,,,,,,,8,,53,0
28979,note_on,,179,0,6,,,,,,,,,,,,,,,,1,,72,0
28979,note_on,,179,0,11,,,,,,,,,,,,,,,,6,,65,0
28980,note_on,,1,0,10,,,,,,,,,,,,,,,,5,,70,72
28980,note_on,,1,0,11,,,,,,,,,,,,,,,,6,,65,72
28980,note_on,,1,0,14,,,,,,,,,,,,,,,,10,,70,72
28980,note_on,,1,0,13,,,,,,,,,,,,,,,,8,,53,72
28980,note_on,,1,0,6,,,,,,,,,,,,,,,,1,,70,72
29009,note_on,,89,0,15,,,,,,,,,,,,,,,,11,,69,0
29010,note_on,,1,0,15,,,,,,,,,,,,,,,,11,,63,72
29039,note_on,,59,0,14,,,,,,,,,,,,,,,,10,,70,0
29039,note_on,,0,0,18,,,,,,,,,,,,,,,,15,,57,0
29039,note_on,,59,0,10,,,,,,,,,,,,,,,,5,,70,0
29039,note_on,,119,0,16,,,,,,,,,,,,,,,,12,,65,0
29039,note_on,,59,0,13,,,,,,,,,,,,,,,,8,,53,0
29039,note_on,,119,0,17,,,,,,,,,,,,,,,,13,,41,0
29039,note_on,,59,0,11,,,,,,,,,,,,,,,,6,,65,0
29039,note_on,,0,0,18,,,,,,,,,,,,,,,,15,,60,0
29039,note_on,,0,0,18,,,,,,,,,,,,,,,,15,,65,0
29039,note_on,,119,0,18,,,,,,,,,,,,,,,,15,,41,0
29039,note_on,,119,0,7,,,,,,,,,,,,,,,,2,,41,0
29039,note_on,,119,0,12,,,,,,,,,,,,,,,,7,,57,0
29039,note_on,,59,0,6,,,,,,,,,,,,,,,,1,,70,0
29039,note_on,,29,0,15,,,,,,,,,,,,,,,,11,,63,0
29040,note_on,,1,0,6,,,,,,,,,,,,,,,,1,,70,72
29040,note_on,,1,0,7,,,,,,,,,,,,,,,,2,,46,72
29040,note_on,,1,0,13,,,,,,,,,,,,,,,,8,,46,72
29040,note_on,,1,0,12,,,,,,,,,,,,,,,,7,,62,72
29040,note_on,,1,0,17,,,,,,,,,,,,,,,,13,,46,72
29040,note_on,,1,0,14,,,,,,,,,,,,,,,,10,,70,72
29040,note_on,,0,0,18,,,,,,,,,,,,,,,,15,,62,72
29040,note_on,,1,0,18,,,,,,,,,,,,,,,,15,,46,72
29040,note_on,,0,0,18,,,,,,,,,,,,,,,,15,,53,72
29040,note_on,,0,0,18,,,,,,,,,,,,,,,,15,,58,72
29040,note_on,,1,0,10,,,,,,,,,,,,,,,,5,,70,72
29040,note_on,,1,0,15,,,,,,,,,,,,,,,,11,,62,72
29040,note_on,,1,0,11,,,,,,,,,,,,,,,,6,,65,72
29040,note_on,,1,0,16,,,,,,,,,,,,,,,,12,,65,72
29099,note_on,,59,0,17,,,,,,,,,,,,,,,,13,,46,0
29099,note_on,,59,0,12,,,,,,,,,,,,,,,,7,,62,0
29099,note_on,,59,0,7,,,,,,,,,,,,,,,,2,,46,0
29099,note_on,,59,0,15,,,,,,,,,,,,,,,,11,,62,0
29099,note_on,,59,0,18,,,,,,,,,,,,,,,,15,,46,0
29100,note_on,,1,0,12,,,,,,,,,,,,,,,,7,,58,72
29100,note_on,,1,0,17,,,,,,,,,,,,,,,,13,,58,72
29100,note_on,,1,0,7,,,,,,,,,,,,,,,,2,,58,72
29100,note_on,,1,0,15,,,,,,,,,,,,,,,,11,,70,72
29159,note_on,,119,0,6,,,,,,,,,,,,,,,,1,,70,0
29159,note_on,,59,0,15,,,,,,,,,,,,,,,,11,,70,0
29159,note_on,,60,0,18,,,,,,,,,,,,,,,,15,,62,0
29159,note_on,,0,0,18,,,,,,,,,,,,,,,,15,,58,0
29159,note_on,,119,0,11,,,,,,,,,,,,,,,,6,,65,0
29159,note_on,,0,0,18,,,,,,,,,,,,,,,,15,,53,0
29159,note_on,,119,0,13,,,,,,,,,,,,,,,,8,,46,0
29159,note_on,,59,0,17,,,,,,,,,,,,,,,,13,,58,0
29159,note_on,,59,0,12,,,,,,,,,,,,,,,,7,,58,0
29159,note_on,,59,0,7,,,,,,,,,,,,,,,,2,,58,0
29159,note_on,,119,0,14,,,,,,,,,,,,,,,,10,,70,0
29159,note_on,,119,0,16,,,,,,,,,,,,,,,,12,,65,0
29159,note_on,,119,0,10,,,,,,,,,,,,,,,,5,,70,0
29160,note_on,,1,0,18,,,,,,,,,,,,,,,,15,,55,72
29160,note_on,,1,0,7,,,,,,,,,,,,,,,,2,,55,72
29160,note_on,,0,0,18,,,,,,,,,,,,,,,,15,,67,72
29160,note_on,,0,0,18,,,,,,,,,,,,,,,,15,,63,72
29160,note_on,,1,0,17,,,,,,,,,,,,,,,,13,,55,72
29160,note_on,,1,0,12,,,,,,,,,,,,,,,,7,,63,72
29160,note_on,,1,0,15,,,,,,,,,,,,,,,,11,,75,72
29219,note_on,,59,0,17,,,,,,,,,,,,,,,,13,,55,0
29219,note_on,,59,0,7,,,,,,,,,,,,,,,,2,,55,0
29219,note_on,,59,0,18,,,,,,,,,,,,,,,,15,,55,0
29220,note_on,,61,0,11,,,,,,,,,,,,,,,,6,,63,72
29220,note_on,,1,0,17,,,,,,,,,,,,,,,,13,,60,72
29220,note_on,,1,0,7,,,,,,,,,,,,,,,,2,,60,72
29220,note_on,,1,0,18,,,,,,,,,,,,,,,,15,,60,72
29220,note_on,,61,0,14,,,,,,,,,,,,,,,,10,,75,72
29279,note_on,,0,0,18,,,,,,,,,,,,,,,,15,,60,0
29279,note_on,,119,0,12,,,,,,,,,,,,,,,,7,,63,0
29279,note_on,,0,0,18,,,,,,,,,,,,,,,,15,,63,0
29279,note_on,,59,0,18,,,,,,,,,,,,,,,,15,,67,0
29279,note_on,,59,0,7,,,,,,,,,,,,,,,,2,,60,0
29279,note_on,,119,0,15,,,,,,,,,,,,,,,,11,,75,0
29279,note_on,,59,0,14,,,,,,,,,,,,,,,,10,,75,0
29279,note_on,,59,0,17,,,,,,,,,,,,,,,,13,,60,0
29279,note_on,,59,0,11,,,,,,,,,,,,,,,,6,,63,0
29280,note_on,,1,0,17,,,,,,,,,,,,,,,,13,,56,72
29280,note_on,,0,0,18,,,,,,,,,,,,,,,,15,,63,72
29280,note_on,,0,0,18,,,,,,,,,,,,,,,,15,,65,72
29280,note_on,,0,0,18,,,,,,,,,,,,,,,,15,,68,72
29280,note_on,,1,0,18,,,,,,,,,,,,,,,,15,,56,72
29280,note_on,,1,0,7,,,,,,,,,,,,,,,,2,,56,72
29280,note_on,,1,0,11,,,,,,,,,,,,,,,,6,,65,72
29280,note_on,,1,0,14,,,,,,,,,,,,,,,,10,,77,72
29339,note_on,,59,0,17,,,,,,,,,,,,,,,,13,,56,0
29339,note_on,,59,0,18,,,,,,,,,,,,,,,,15,,56,0
29339,note_on,,59,0,7,,,,,,,,,,,,,,,,2,,56,0
29340,note_on,,1,0,18,,,,,,,,,,,,,,,,15,,53,72
29340,note_on,,1,0,7,,,,,,,,,,,,,,,,2,,53,72
29340,note_on,,1,0,17,,,,,,,,,,,,,,,,13,,53,72
29399,note_on,,59,0,7,,,,,,,,,,,,,,,,2,,53,0
29399,note_on,,59,0,17,,,,,,,,,,,,,,,,13,,53,0
29399,note_on,,0,0,18,,,,,,,,,,,,,,,,15,,63,0
29399,note_on,,0,0,18,,,,,,,,,,,,,,,,15,,65,0
29399,note_on,,0,0,18,,,,,,,,,,,,,,,,15,,53,0
29399,note_on,,119,0,14,,,,,,,,,,,,,,,,10,,77,0
29399,note_on,,59,0,18,,,,,,,,,,,,,,,,15,,68,0
29399,note_on,,119,0,11,,,,,,,,,,,,,,,,6,,65,0
29400,note_on,,121,0,15,,,,,,,,,,,,,,,,11,,74,72
29400,note_on,,1,0,18,,,,,,,,,,,,,,,,15,,58,72
29400,note_on,,121,0,12,,,,,,,,,,,,,,,,7,,62,72
29400,note_on,,1,0,17,,,,,,,,,,,,,,,,13,,58,72
29400,note_on,,0,0,18,,,,,,,,,,,,,,,,15,,62,72
29400,note_on,,0,0,18,,,,,,,,,,,,,,,,15,,65,72
29400,note_on,,1,0,7,,,,,,,,,,,,,,,,2,,58,72
29459,note_on,,59,0,17,,,,,,,,,,,,,,,,13,,58,0
29459,note_on,,59,0,7,,,,,,,,,,,,,,,,2,,58,0
29459,note_on,,0,0,18,,,,,,,,,,,,,,,,15,,62,0
29459,note_on,,0,0,18,,,,,,,,,,,,,,,,15,,65,0
29459,note_on,,59,0,18,,,,,,,,,,,,,,,,15,,58,0
29460,note_on,,1,0,17,,,,,,,,,,,,,,,,13,,46,72
29460,note_on,,61,0,14,,,,,,,,,,,,,,,,10,,77,72
29460,note_on,,61,0,11,,,,,,,,,,,,,,,,6,,65,72
29460,note_on,,1,0,7,,,,,,,,,,,,,,,,2,,46,72
29460,note_on,,1,0,18,,,,,,,,,,,,,,,,15,,46,72
29460,note_on,,0,0,18,,,,,,,,,,,,,,,,15,,62,72
29460,note_on,,0,0,18,,,,,,,,,,,,,,,,15,,65,72
29460,note_on,,0,0,18,,,,,,,,,,,,,,,,15,,70,72
29519,note_on,,119,0,12,,,,,,,,,,,,,,,,7,,62,0
29519,note_on,,119,0,15,,,,,,,,,,,,,,,,11,,74,0
29519,note_on,,59,0,18,,,,,,,,,,,,,,,,15,,46,0
29519,note_on,,59,0,7,,,,,,,,,,,,,,,,2,,46,0
29519,note_on,,59,0,14,,,,,,,,,,,,,,,,10,,77,0
29519,note_on,,0,0,18,,,,,,,,,,,,,,,,15,,62,0
29519,note_on,,0,0,18,,,,,,,,,,,,,,,,15,,65,0
29519,note_on,,0,0,18,,,,,,,,,,,,,,,,15,,70,0
29519,note_on,,59,0,17,,,,,,,,,,,,,,,,13,,46,0
29519,note_on,,59,0,11,,,,,,,,,,,,,,,,6,,65,0
29520,note_on,,1,0,18,,,,,,,,,,,,,,,,15,,51,72
29520,note_on,,1,0,17,,,,,,,,,,,,,,,,13,,51,72
29520,note_on,,1,0,7,,,,,,,,,,,,,,,,2,,51,72
29520,note_on,,0,0,18,,,,,,,,,,,,,,,,15,,58,72
29520,note_on,,1,0,14,,,,,,,,,,,,,,,,10,,79,72
29520,note_on,,0,0,18,,,,,,,,,,,,,,,,15,,63,72
29520,note_on,,1,0,11,,,,,,,,,,,,,,,,6,,67,72
29520,note_on,,0,0,18,,,,,,,,,,,,,,,,15,,67,72
29580,note_on,,61,0,12,,,,,,,,,,,,,,,,7,,62,72
29580,note_on,,61,0,15,,,,,,,,,,,,,,,,11,,74,72
29639,note_on,,59,0,15,,,,,,,,,,,,,,,,11,,74,0
29639,note_on,,0,0,18,,,,,,,,,,,,,,,,15,,67,0
29639,note_on,,0,0,18,,,,,,,,,,,,,,,,15,,63,0
29639,note_on,,0,0,18,,,,,,,,,,,,,,,,15,,58,0
29639,note_on,,59,0,12,,,,,,,,,,,,,,,,7,,62,0
29639,note_on,,119,0,11,,,,,,,,,,,,,,,,6,,67,0
29639,note_on,,119,0,17,,,,,,,,,,,,,,,,13,,51,0
29639,note_on,,119,0,14,,,,,,,,,,,,,,,,10,,79,0
29639,note_on,,119,0,7,,,,,,,,,,,,,,,,2,,51,0
29639,note_on,,119,0,18,,,,,,,,,,,,,,,,15,,51,0
29640,note_on,,1,0,17,,,,,,,,,,,,,,,,13,,53,72
29640,note_on,,0,0,18,,,,,,,,,,,,,,,,15,,65,72
29640,note_on,,0,0,18,,,,,,,,,,,,,,,,15,,56,72
29640,note_on,,1,0,18,,,,,,,,,,,,,,,,15,,53,72
29640,note_on,,1,0,12,,,,,,,,,,,,,,,,7,,60,72
29640,note_on,,1,0,14,,,,,,,,,,,,,,,,10,,80,72
29640,note_on,,1,0,15,,,,,,,,,,,,,,,,11,,72,72
29640,note_on,,1,0,11,,,,,,,,,,,,,,,,6,,68,72
29640,note_on,,1,0,7,,,,,,,,,,,,,,,,2,,53,72
29640,note_on,,0,0,18,,,,,,,,,,,,,,,,15,,60,72
29699,note_on,,59,0,15,,,,,,,,,,,,,,,,11,,72,0
29699,note_on,,59,0,12,,,,,,,,,,,,,,,,7,,60,0
29700,note_on,,1,0,12,,,,,,,,,,,,,,,,7,,65,72
29700,note_on,,1,0,15,,,,,,,,,,,,,,,,11,,77,72
29759,note_on,,0,0,18,,,,,,,,,,,,,,,,15,,60,0
29759,note_on,,119,0,18,,,,,,,,,,,,,,,,15,,53,0
29759,note_on,,0,0,18,,,,,,,,,,,,,,,,15,,56,0
29759,note_on,,119,0,11,,,,,,,,,,,,,,,,6,,68,0
29759,note_on,,119,0,17,,,,,,,,,,,,,,,,13,,53,0
29759,note_on,,59,0,12,,,,,,,,,,,,,,,,7,,65,0
29759,note_on,,59,0,15,,,,,,,,,,,,,,,,11,,77,0
29759,note_on,,119,0,7,,,,,,,,,,,,,,,,2,,53,0
29759,note_on,,119,0,14,,,,,,,,,,,,,,,,10,,80,0
29760,note_on,,1,0,12,,,,,,,,,,,,,,,,7,,58,72
29760,note_on,,1,0,17,,,,,,,,,,,,,,,,13,,55,72
29760,note_on,,1,0,15,,,,,,,,,,,,,,,,11,,70,72
29760,note_on,,1,0,18,,,,,,,,,,,,,,,,15,,55,72
29760,note_on,,1,0,7,,,,,,,,,,,,,,,,2,,55,72
29760,note_on,,0,0,18,,,,,,,,,,,,,,,,15,,58,72
29819,note_on,,0,0,18,,,,,,,,,,,,,,,,15,,55,0
29819,note_on,,59,0,7,,,,,,,,,,,,,,,,2,,55,0
29819,note_on,,59,0,17,,,,,,,,,,,,,,,,13,,55,0
29819,note_on,,59,0,18,,,,,,,,,,,,,,,,15,,65,0
29820,note_on,,61,0,11,,,,,,,,,,,,,,,,6,,68,72
29820,note_on,,1,0,18,,,,,,,,,,,,,,,,15,,53,72
29820,note_on,,1,0,17,,,,,,,,,,,,,,,,13,,53,72
29820,note_on,,1,0,7,,,,,,,,,,,,,,,,2,,53,72
29820,note_on,,0,0,18,,,,,,,,,,,,,,,,15,,63,72
29820,note_on,,61,0,14,,,,,,,,,,,,,,,,10,,80,72
29849,note_on,,29,0,18,,,,,,,,,,,,,,,,15,,63,0
29850,note_on,,1,0,18,,,,,,,,,,,,,,,,15,,62,72
29879,note_on,,59,0,11,,,,,,,,,,,,,,,,6,,68,0
29879,note_on,,119,0,15,,,,,,,,,,,,,,,,11,,70,0
29879,note_on,,59,0,7,,,,,,,,,,,,,,,,2,,53,0
29879,note_on,,59,0,17,,,,,,,,,,,,,,,,13,,53,0
29879,note_on,,0,0,18,,,,,,,,,,,,,,,,15,,62,0
29879,note_on,,29,0,18,,,,,,,,,,,,,,,,15,,53,0
29879,note_on,,59,0,14,,,,,,,,,,,,,,,,10,,80,0
29879,note_on,,119,0,12,,,,,,,,,,,,,,,,7,,58,0
29880,note_on,,1,0,14,,,,,,,,,,,,,,,,10,,79,72
29880,note_on,,1,0,12,,,,,,,,,,,,,,,,7,,63,72
29880,note_on,,1,0,17,,,,,,,,,,,,,,,,13,,55,72
29880,note_on,,1,0,11,,,,,,,,,,,,,,,,6,,67,72
29880,note_on,,1,0,7,,,,,,,,,,,,,,,,2,,55,72
29880,note_on,,0,0,18,,,,,,,,,,,,,,,,15,,63,72
29880,note_on,,1,0,18,,,,,,,,,,,,,,,,15,,55,72
29880,note_on,,1,0,15,,,,,,,,,,,,,,,,11,,75,72
29939,note_on,,59,0,18,,,,,,,,,,,,,,,,15,,58,0
29939,note_on,,0,0,18,,,,,,,,,,,,,,,,15,,63,0
29939,note_on,,59,0,14,,,,,,,,,,,,,,,,10,,79,0
29939,note_on,,59,0,17,,,,,,,,,,,,,,,,13,,55,0
29939,note_on,,59,0,7,,,,,,,,,,,,,,,,2,,55,0
29939,note_on,,0,0,18,,,,,,,,,,,,,,,,15,,55,0
29939,note_on,,59,0,11,,,,,,,,,,,,,,,,6,,67,0
29940,note_on,,1,0,7,,,,,,,,,,,,,,,,2,,56,72
29940,note_on,,1,0,17,,,,,,,,,,,,,,,,13,,56,72
29940,note_on,,0,0,18,,,,,,,,,,,,,,,,15,,60,72
29940,note_on,,0,0,18,,,,,,,,,,,,,,,,15,,63,72
29940,note_on,,1,0,14,,,,,,,,,,,,,,,,10,,84,72
29940,note_on,,1,0,11,,,,,,,,,,,,,,,,6,,72,72
29940,note_on,,0,0,18,,,,,,,,,,,,,,,,15,,68,72
29940,note_on,,1,0,18,,,,,,,,,,,,,,,,15,,56,72
29999,note_on,,59,0,18,,,,,,,,,,,,,,,,15,,56,0
29999,note_on,,0,0,18,,,,,,,,,,,,,,,,15,,68,0
29999,note_on,,0,0,18,,,,,,,,,,,,,,,,15,,63,0
29999,note_on,,0,0,18,,,,,,,,,,,,,,,,15,,60,0
29999,note_on,,119,0,15,,,,,,,,,,,,,,,,11,,75,0
29999,note_on,,59,0,7,,,,,,,,,,,,,,,,2,,56,0
29999,note_on,,59,0,17,,,,,,,,,,,,,,,,13,,56,0
29999,note_on,,119,0,12,,,,,,,,,,,,,,,,7,,63,0
29999,note_on,,59,0,11,,,,,,,,,,,,,,,,6,,72,0
29999,note_on,,59,0,14,,,,,,,,,,,,,,,,10,,84,0
30000,note_on,,0,0,18,,,,,,,,,,,,,,,,15,,65,72
30000,note_on,,1,0,17,,,,,,,,,,,,,,,,13,,58,72
30000,note_on,,1,0,18,,,,,,,,,,,,,,,,15,,58,72
30000,note_on,,1,0,11,,,,,,,,,,,,,,,,6,,65,72
30000,note_on,,1,0,14,,,,,,,,,,,,,,,,10,,77,72
30000,note_on,,0,0,18,,,,,,,,,,,,,,,,15,,63,72
30000,note_on,,1,0,7,,,,,,,,,,,,,,,,2,,58,72
30060,note_on,,61,0,12,,,,,,,,,,,,,,,,7,,63,72
30060,note_on,,61,0,15,,,,,,,,,,,,,,,,11,,75,72
30119,note_on,,119,0,18,,,,,,,,,,,,,,,,15,,58,0
30119,note_on,,119,0,17,,,,,,,,,,,,,,,,13,,58,0
30119,note_on,,0,0,18,,,,,,,,,,,,,,,,15,,65,0
30119,note_on,,0,0,18,,,,,,,,,,,,,,,,15,,63,0
30119,note_on,,119,0,14,,,,,,,,,,,,,,,,10,,77,0
30119,note_on,,59,0,15,,,,,,,,,,,,,,,,11,,75,0
30119,note_on,,119,0,11,,,,,,,,,,,,,,,,6,,65,0
30119,note_on,,59,0,12,,,,,,,,,,,,,,,,7,,63,0
30119,note_on,,119,0,7,,,,,,,,,,,,,,,,2,,58,0
30120,note_on,,1,0,11,,,,,,,,,,,,,,,,6,,70,72
30120,note_on,,1,0,14,,,,,,,,,,,,,,,,10,,82,72
30120,note_on,,1,0,15,,,,,,,,,,,,,,,,11,,74,72
30120,note_on,,0,0,18,,,,,,,,,,,,,,,,15,,62,72
30120,note_on,,0,0,18,,,,,,,,,,,,,,,,15,,70,72
30120,note_on,,1,0,18,,,,,,,,,,,,,,,,15,,74,72
30120,note_on,,1,0,12,,,,,,,,,,,,,,,,7,,62,72
30179,note_on,,59,0,15,,,,,,,,,,,,,,,,11,,74,0
30179,note_on,,59,0,12,,,,,,,,,,,,,,,,7,,62,0
30180,note_on,,61,0,7,,,,,,,,,,,,,,,,2,,55,72
30180,note_on,,1,0,15,,,,,,,,,,,,,,,,11,,79,72
30180,note_on,,61,0,17,,,,,,,,,,,,,,,,13,,55,72
30180,note_on,,60,0,18,,,,,,,,,,,,,,,,15,,55,72
30180,note_on,,1,0,12,,,,,,,,,,,,,,,,7,,67,72
30239,note_on,,0,0,18,,,,,,,,,,,,,,,,15,,70,0
30239,note_on,,0,0,18,,,,,,,,,,,,,,,,15,,62,0
30239,note_on,,0,0,18,,,,,,,,,,,,,,,,15,,55,0
30239,note_on,,59,0,18,,,,,,,,,,,,,,,,15,,74,0
30239,note_on,,59,0,17,,,,,,,,,,,,,,,,13,,55,0
30239,note_on,,59,0,12,,,,,,,,,,,,,,,,7,,67,0
30239,note_on,,119,0,14,,,,,,,,,,,,,,,,10,,82,0
30239,note_on,,59,0,7,,,,,,,,,,,,,,,,2,,55,0
30239,note_on,,59,0,15,,,,,,,,,,,,,,,,11,,79,0
30239,note_on,,119,0,11,,,,,,,,,,,,,,,,6,,70,0
30240,note_on,,1,0,15,,,,,,,,,,,,,,,,11,,72,72
30240,note_on,,0,0,18,,,,,,,,,,,,,,,,15,,67,72
30240,note_on,,0,0,18,,,,,,,,,,,,,,,,15,,70,72
30240,note_on,,1,0,12,,,,,,,,,,,,,,,,7,,60,72
30240,note_on,,0,0,18,,,,,,,,,,,,,,,,15,,72,72
30240,note_on,,1,0,18,,,,,,,,,,,,,,,,15,,56,72
30240,note_on,,1,0,17,,,,,,,,,,,,,,,,13,,56,72
30240,note_on,,1,0,7,,,,,,,,,,,,,,,,2,,56,72
30299,note_on,,59,0,7,,,,,,,,,,,,,,,,2,,56,0
30299,note_on,,59,0,17,,,,,,,,,,,,,,,,13,,56,0
30299,note_on,,59,0,18,,,,,,,,,,,,,,,,15,,56,0
30299,note_on,,0,0,18,,,,,,,,,,,,,,,,15,,67,0
30300,note_on,,61,0,14,,,,,,,,,,,,,,,,10,,75,72
30300,note_on,,1,0,7,,,,,,,,,,,,,,,,2,,55,72
30300,note_on,,1,0,17,,,,,,,,,,,,,,,,13,,55,72
30300,note_on,,0,0,18,,,,,,,,,,,,,,,,15,,63,72
30300,note_on,,1,0,18,,,,,,,,,,,,,,,,15,,55,72
30300,note_on,,61,0,11,,,,,,,,,,,,,,,,6,,63,72
30359,note_on,,59,0,17,,,,,,,,,,,,,,,,13,,55,0
30359,note_on,,119,0,12,,,,,,,,,,,,,,,,7,,60,0
30359,note_on,,59,0,14,,,,,,,,,,,,,,,,10,,75,0
30359,note_on,,59,0,18,,,,,,,,,,,,,,,,15,,72,0
30359,note_on,,59,0,7,,,,,,,,,,,,,,,,2,,55,0
30359,note_on,,0,0,18,,,,,,,,,,,,,,,,15,,70,0
30359,note_on,,0,0,18,,,,,,,,,,,,,,,,15,,55,0
30359,note_on,,119,0,15,,,,,,,,,,,,,,,,11,,72,0
30359,note_on,,0,0,18,,,,,,,,,,,,,,,,15,,63,0
30359,note_on,,59,0,11,,,,,,,,,,,,,,,,6,,63,0
30360,note_on,,1,0,14,,,,,,,,,,,,,,,,10,,80,72
30360,note_on,,1,0,18,,,,,,,,,,,,,,,,15,,53,72
30360,note_on,,0,0,18,,,,,,,,,,,,,,,,15,,77,72
30360,note_on,,0,0,18,,,,,,,,,,,,,,,,15,,68,72
30360,note_on,,0,0,18,,,,,,,,,,,,,,,,15,,72,72
30360,note_on,,1,0,7,,,,,,,,,,,,,,,,2,,53,72
30360,note_on,,1,0,17,,,,,,,,,,,,,,,,13,,53,72
30360,note_on,,1,0,11,,,,,,,,,,,,,,,,6,,68,72
30419,note_on,,59,0,18,,,,,,,,,,,,,,,,15,,53,0
30419,note_on,,59,0,14,,,,,,,,,,,,,,,,10,,80,0
30419,note_on,,59,0,7,,,,,,,,,,,,,,,,2,,53,0
30419,note_on,,59,0,17,,,,,,,,,,,,,,,,13,,53,0
30419,note_on,,59,0,11,,,,,,,,,,,,,,,,6,,68,0
30420,note_on,,1,0,11,,,,,,,,,,,,,,,,6,,68,72
30420,note_on,,1,0,14,,,,,,,,,,,,,,,,10,,80,72
30420,note_on,,1,0,17,,,,,,,,,,,,,,,,13,,56,72
30420,note_on,,61,0,15,,,,,,,,,,,,,,,,11,,77,72
30420,note_on,,61,0,12,,,,,,,,,,,,,,,,7,,65,72
30420,note_on,,1,0,18,,,,,,,,,,,,,,,,15,,56,72
30420,note_on,,1,0,7,,,,,,,,,,,,,,,,2,,56,72
30479,note_on,,59,0,7,,,,,,,,,,,,,,,,2,,56,0
30479,note_on,,59,0,18,,,,,,,,,,,,,,,,15,,77,0
30479,note_on,,59,0,14,,,,,,,,,,,,,,,,10,,80,0
30479,note_on,,0,0,18,,,,,,,,,,,,,,,,15,,72,0
30479,note_on,,59,0,17,,,,,,,,,,,,,,,,13,,56,0
30479,note_on,,59,0,15,,,,,,,,,,,,,,,,11,,77,0
30479,note_on,,0,0,18,,,,,,,,,,,,,,,,15,,56,0
30479,note_on,,0,0,18,,,,,,,,,,,,,,,,15,,68,0
30479,note_on,,59,0,11,,,,,,,,,,,,,,,,6,,68,0
30479,note_on,,59,0,12,,,,,,,,,,,,,,,,7,,65,0
30480,note_on,,1,0,7,,,,,,,,,,,,,,,,2,,58,72
30480,note_on,,0,0,18,,,,,,,,,,,,,,,,15,,74,72
30480,note_on,,1,0,11,,,,,,,,,,,,,,,,6,,65,72
30480,note_on,,1,0,15,,,,,,,,,,,,,,,,11,,74,72
30480,note_on,,1,0,18,,,,,,,,,,,,,,,,15,,58,72
30480,note_on,,0,0,18,,,,,,,,,,,,,,,,15,,70,72
30480,note_on,,0,0,18,,,,,,,,,,,,,,,,15,,65,72
30480,note_on,,1,0,17,,,,,,,,,,,,,,,,13,,58,72
30480,note_on,,1,0,12,,,,,,,,,,,,,,,,7,,62,72
30480,note_on,,1,0,14,,,,,,,,,,,,,,,,10,,77,72
30539,note_on,,59,0,14,,,,,,,,,,,,,,,,10,,77,0
30539,note_on,,59,0,7,,,,,,,,,,,,,,,,2,,58,0
30539,note_on,,59,0,18,,,,,,,,,,,,,,,,15,,58,0
30539,note_on,,59,0,17,,,,,,,,,,,,,,,,13,,58,0
30540,note_on,,1,0,17,,,,,,,,,,,,,,,,13,,56,72
30540,note_on,,1381,0,6,,,,,,,,,,,,,,,,1,,70,72
30540,note_on,,1,0,7,,,,,,,,,,,,,,,,2,,56,72
30540,note_on,,1381,0,10,,,,,,,,,,,,,,,,5,,70,72
30540,note_on,,1,0,18,,,,,,,,,,,,,,,,15,,56,72
30540,note_on,,1,0,14,,,,,,,,,,,,,,,,10,,70,72
30599,note_on,,0,0,18,,,,,,,,,,,,,,,,15,,70,0
30599,note_on,,59,0,18,,,,,,,,,,,,,,,,15,,74,0
30599,note_on,,59,0,14,,,,,,,,,,,,,,,,10,,70,0
30599,note_on,,119,0,15,,,,,,,,,,,,,,,,11,,74,0
30599,note_on,,119,0,11,,,,,,,,,,,,,,,,6,,65,0
30599,note_on,,119,0,12,,,,,,,,,,,,,,,,7,,62,0
30599,note_on,,59,0,10,,,,,,,,,,,,,,,,5,,70,0
30599,note_on,,0,0,18,,,,,,,,,,,,,,,,15,,56,0
30599,note_on,,59,0,6,,,,,,,,,,,,,,,,1,,70,0
30599,note_on,,0,0,18,,,,,,,,,,,,,,,,15,,65,0
30599,note_on,,59,0,17,,,,,,,,,,,,,,,,13,,56,0
30599,note_on,,59,0,7,,,,,,,,,,,,,,,,2,,56,0
30600,note_on,,1,0,6,,,,,,,,,,,,,,,,1,,75,72
30600,note_on,,1,0,17,,,,,,,,,,,,,,,,13,,55,72
30600,note_on,,1,0,10,,,,,,,,,,,,,,,,5,,75,72
30600,note_on,,0,0,18,,,,,,,,,,,,,,,,15,,67,72
30600,note_on,,0,0,18,,,,,,,,,,,,,,,,15,,70,72
30600,note_on,,0,0,18,,,,,,,,,,,,,,,,15,,75,72
30600,note_on,,1,0,18,,,,,,,,,,,,,,,,15,,55,72
30600,note_on,,1,0,14,,,,,,,,,,,,,,,,10,,75,72
30600,note_on,,1,0,7,,,,,,,,,,,,,,,,2,,55,72
30659,note_on,,59,0,7,,,,,,,,,,,,,,,,2,,55,0
30659,note_on,,59,0,18,,,,,,,,,,,,,,,,15,,55,0
30659,note_on,,59,0,17,,,,,,,,,,,,,,,,13,,55,0
30660,note_on,,1,0,7,,,,,,,,,,,,,,,,2,,51,72
30660,note_on,,1501,0,16,,,,,,,,,,,,,,,,12,,67,72
30660,note_on,,1501,0,13,,,,,,,,,,,,,,,,8,,51,72
30660,note_on,,61,0,15,,,,,,,,,,,,,,,,11,,70,72
30660,note_on,,1,0,17,,,,,,,,,,,,,,,,13,,51,72
30660,note_on,,1,0,18,,,,,,,,,,,,,,,,15,,51,72
30660,note_on,,61,0,12,,,,,,,,,,,,,,,,7,,58,72
30660,note_on,,61,0,11,,,,,,,,,,,,,,,,6,,67,72
30719,note_on,,59,0,11,,,,,,,,,,,,,,,,6,,67,0
30719,note_on,,119,0,10,,,,,,,,,,,,,,,,5,,75,0
30719,note_on,,59,0,18,,,,,,,,,,,,,,,,15,,75,0
30719,note_on,,0,0,18,,,,,,,,,,,,,,,,15,,70,0
30719,note_on,,59,0,16,,,,,,,,,,,,,,,,12,,67,0
30719,note_on,,0,0,18,,,,,,,,,,,,,,,,15,,67,0
30719,note_on,,0,0,18,,,,,,,,,,,,,,,,15,,51,0
30719,note_on,,119,0,6,,,,,,,,,,,,,,,,1,,75,0
30719,note_on,,59,0,7,,,,,,,,,,,,,,,,2,,51,0
30719,note_on,,59,0,17,,,,,,,,,,,,,,,,13,,51,0
30719,note_on,,59,0,12,,,,,,,,,,,,,,,,7,,58,0
30719,note_on,,59,0,15,,,,,,,,,,,,,,,,11,,70,0
30719,note_on,,119,0,14,,,,,,,,,,,,,,,,10,,75,0
30719,note_on,,59,0,13,,,,,,,,,,,,,,,,8,,51,0
30720,note_on,,0,0,18,,,,,,,,,,,,,,,,15,,68,72
30720,note_on,,1,0,12,,,,,,,,,,,,,,,,7,,60,72
30720,note_on,,1,0,7,,,,,,,,,,,,,,,,2,,56,72
30720,note_on,,0,0,18,,,,,,,,,,,,,,,,15,,63,72
30720,note_on,,0,0,18,,,,,,,,,,,,,,,,15,,72,72
30720,note_on,,1,0,11,,,,,,,,,,,,,,,,6,,63,72
30720,note_on,,1,0,18,,,,,,,,,,,,,,,,15,,56,72
30720,note_on,,1,0,17,,,,,,,,,,,,,,,,13,,56,72
30720,note_on,,1,0,16,,,,,,,,,,,,,,,,12,,63,72
30720,note_on,,1,0,13,,,,,,,,,,,,,,,,8,,56,72
30720,note_on,,1,0,15,,,,,,,,,,,,,,,,11,,72,72
30839,note_on,,119,0,17,,,,,,,,,,,,,,,,13,,56,0
30839,note_on,,119,0,11,,,,,,,,,,,,,,,,6,,63,0
30839,note_on,,119,0,12,,,,,,,,,,,,,,,,7,,60,0
30839,note_on,,119,0,13,,,,,,,,,,,,,,,,8,,56,0
30839,note_on,,119,0,7,,,,,,,,,,,,,,,,2,,56,0
30839,note_on,,0,0,18,,,,,,,,,,,,,,,,15,,63,0
30839,note_on,,119,0,16,,,,,,,,,,,,,,,,12,,63,0
30839,note_on,,119,0,18,,,,,,,,,,,,,,,,15,,56,0
30839,note_on,,0,0,18,,,,,,,,,,,,,,,,15,,72,0
30839,note_on,,0,0,18,,,,,,,,,,,,,,,,15,,68,0
30839,note_on,,119,0,15,,,,,,,,,,,,,,,,11,,72,0
30840,note_on,,121,0,10,,,,,,,,,,,,,,,,5,,77,72
30840,note_on,,121,0,6,,,,,,,,,,,,,,,,1,,77,72
30840,note_on,,121,0,14,,,,,,,,,,,,,,,,10,,77,72
30959,note_on,,119,0,10,,,,,,,,,,,,,,,,5,,77,0
30959,note_on,,119,0,14,,,,,,,,,,,,,,,,10,,77,0
30959,note_on,,119,0,6,,,,,,,,,,,,,,,,1,,77,0
30960,note_on,,121,0,18,,,,,,,,,,,,,,,,15,,58,72
30960,note_on,,121,0,7,,,,,,,,,,,,,,,,2,,58,72
30960,note_on,,0,0,18,,,,,,,,,,,,,,,,15,,70,72
30960,note_on,,0,0,18,,,,,,,,,,,,,,,,15,,65,72
30960,note_on,,0,0,18,,,,,,,,,,,,,,,,15,,62,72
30960,note_on,,121,0,15,,,,,,,,,,,,,,,,11,,74,72
30960,note_on,,121,0,16,,,,,,,,,,,,,,,,12,,70,72
30960,note_on,,121,0,12,,,,,,,,,,,,,,,,7,,62,72
30960,note_on,,121,0,13,,,,,,,,,,,,,,,,8,,58,72
30960,note_on,,121,0,17,,,,,,,,,,,,,,,,13,,58,72
30960,note_on,,121,0,11,,,,,,,,,,,,,,,,6,,70,72
31020,note_on,,61,0,10,,,,,,,,,,,,,,,,5,,77,72
31020,note_on,,61,0,14,,,,,,,,,,,,,,,,10,,77,72
31020,note_on,,61,0,6,,,,,,,,,,,,,,,,1,,77,72
31079,note_on,,119,0,16,,,,,,,,,,,,,,,,12,,70,0
31079,note_on,,59,0,10,,,,,,,,,,,,,,,,5,,77,0
31079,note_on,,0,0,18,,,,,,,,,,,,,,,,15,,62,0
31079,note_on,,0,0,18,,,,,,,,,,,,,,,,15,,65,0
31079,note_on,,119,0,17,,,,,,,,,,,,,,,,13,,58,0
31079,note_on,,0,0,18,,,,,,,,,,,,,,,,15,,70,0
31079,note_on,,119,0,18,,,,,,,,,,,,,,,,15,,58,0
31079,note_on,,59,0,6,,,,,,,,,,,,,,,,1,,77,0
31079,note_on,,119,0,11,,,,,,,,,,,,,,,,6,,70,0
31079,note_on,,59,0,14,,,,,,,,,,,,,,,,10,,77,0
31079,note_on,,119,0,7,,,,,,,,,,,,,,,,2,,58,0
31079,note_on,,119,0,15,,,,,,,,,,,,,,,,11,,74,0
31079,note_on,,119,0,13,,,,,,,,,,,,,,,,8,,58,0
31079,note_on,,119,0,12,,,,,,,,,,,,,,,,7,,62,0
31080,note_on,,1,0,14,,,,,,,,,,,,,,,,10,,75,72
31080,note_on,,1,0,10,,,,,,,,,,,,,,,,5,,75,72
31080,note_on,,1,0,6,,,,,,,,,,,,,,,,1,,75,72
31139,note_on,,59,0,10,,,,,,,,,,,,,,,,5,,75,0
31139,note_on,,59,0,6,,,,,,,,,,,,,,,,1,,75,0
31139,note_on,,59,0,14,,,,,,,,,,,,,,,,10,,75,0
31140,note_on,,1,0,14,,,,,,,,,,,,,,,,10,,74,72
31140,note_on,,1,0,6,,,,,,,,,,,,,,,,1,,74,72
31140,note_on,,1,0,10,,,,,,,,,,,,,,,,5,,74,72
31199,note_on,,59,0,10,,,,,,,,,,,,,,,,5,,74,0
31199,note_on,,59,0,6,,,,,,,,,,,,,,,,1,,74,0
31199,note_on,,59,0,14,,,,,,,,,,,,,,,,10,,74,0
31200,note_on,,1,0,10,,,,,,,,,,,,,,,,5,,79,72
31200,note_on,,1,0,6,,,,,,,,,,,,,,,,1,,79,72
31200,note_on,,1,0,14,,,,,,,,,,,,,,,,10,,79,72
31260,note_on,,181,0,15,,,,,,,,,,,,,,,,11,,74,72
31260,note_on,,181,0,18,,,,,,,,,,,,,,,,15,,58,72
31260,note_on,,181,0,12,,,,,,,,,,,,,,,,7,,62,72
31260,note_on,,181,0,13,,,,,,,,,,,,,,,,8,,58,72
31260,note_on,,181,0,7,,,,,,,,,,,,,,,,2,,58,72
31260,note_on,,181,0,17,,,,,,,,,,,,,,,,13,,58,72
31319,note_on,,59,0,17,,,,,,,,,,,,,,,,13,,58,0
31319,note_on,,59,0,7,,,,,,,,,,,,,,,,2,,58,0
31319,note_on,,59,0,15,,,,,,,,,,,,,,,,11,,74,0
31319,note_on,,59,0,18,,,,,,,,,,,,,,,,15,,58,0
31319,note_on,,59,0,12,,,,,,,,,,,,,,,,7,,62,0
31319,note_on,,119,0,14,,,,,,,,,,,,,,,,10,,79,0
31319,note_on,,59,0,13,,,,,,,,,,,,,,,,8,,58,0
31320,note_on,,1,0,7,,,,,,,,,,,,,,,,2,,56,72
31320,note_on,,1,0,12,,,,,,,,,,,,,,,,7,,60,72
31320,note_on,,1,0,17,,,,,,,,,,,,,,,,13,,56,72
31320,note_on,,0,0,18,,,,,,,,,,,,,,,,15,,65,72
31320,note_on,,1,0,15,,,,,,,,,,,,,,,,11,,72,72
31320,note_on,,0,0,18,,,,,,,,,,,,,,,,15,,74,72
31320,note_on,,0,0,18,,,,,,,,,,,,,,,,15,,70,72
31320,note_on,,1,0,13,,,,,,,,,,,,,,,,8,,56,72
31320,note_on,,1,0,18,,,,,,,,,,,,,,,,15,,56,72
31379,note_on,,59,0,17,,,,,,,,,,,,,,,,13,,56,0
31379,note_on,,59,0,7,,,,,,,,,,,,,,,,2,,56,0
31379,note_on,,59,0,15,,,,,,,,,,,,,,,,11,,72,0
31379,note_on,,59,0,18,,,,,,,,,,,,,,,,15,,56,0
31379,note_on,,59,0,12,,,,,,,,,,,,,,,,7,,60,0
31379,note_on,,59,0,13,,,,,,,,,,,,,,,,8,,56,0
31380,note_on,,1,0,18,,,,,,,,,,,,,,,,15,,55,72
31380,note_on,,1,0,15,,,,,,,,,,,,,,,,11,,70,72
31380,note_on,,1,0,7,,,,,,,,,,,,,,,,2,,55,72
31380,note_on,,1,0,17,,,,,,,,,,,,,,,,13,,55,72
31380,note_on,,1,0,12,,,,,,,,,,,,,,,,7,,58,72
31380,note_on,,301,0,16,,,,,,,,,,,,,,,,12,,70,72
31380,note_on,,1,0,13,,,,,,,,,,,,,,,,8,,55,72
31439,note_on,,59,0,18,,,,,,,,,,,,,,,,15,,74,0
31439,note_on,,0,0,18,,,,,,,,,,,,,,,,15,,70,0
31439,note_on,,239,0,6,,,,,,,,,,,,,,,,1,,79,0
31439,note_on,,59,0,16,,,,,,,,,,,,,,,,12,,70,0
31439,note_on,,239,0,10,,,,,,,,,,,,,,,,5,,79,0
31439,note_on,,59,0,13,,,,,,,,,,,,,,,,8,,55,0
31439,note_on,,59,0,17,,,,,,,,,,,,,,,,13,,55,0
31439,note_on,,59,0,15,,,,,,,,,,,,,,,,11,,70,0
31439,note_on,,59,0,12,,,,,,,,,,,,,,,,7,,58,0
31439,note_on,,59,0,7,,,,,,,,,,,,,,,,2,,55,0
31439,note_on,,0,0,18,,,,,,,,,,,,,,,,15,,65,0
31439,note_on,,0,0,18,,,,,,,,,,,,,,,,15,,55,0
31440,note_on,,1,0,18,,,,,,,,,,,,,,,,15,,60,72
31440,note_on,,0,0,18,,,,,,,,,,,,,,,,15,,72,72
31440,note_on,,1,0,13,,,,,,,,,,,,,,,,8,,60,72
31440,note_on,,1,0,15,,,,,,,,,,,,,,,,11,,75,72
31440,note_on,,0,0,18,,,,,,,,,,,,,,,,15,,67,72
31440,note_on,,0,0,18,,,,,,,,,,,,,,,,15,,63,72
31440,note_on,,1,0,17,,,,,,,,,,,,,,,,13,,60,72
31440,note_on,,1,0,7,,,,,,,,,,,,,,,,2,,60,72
31440,note_on,,1,0,12,,,,,,,,,,,,,,,,7,,63,72
31440,note_on,,1,0,16,,,,,,,,,,,,,,,,12,,67,72
31500,note_on,,421,0,11,,,,,,,,,,,,,,,,6,,67,72
31500,note_on,,181,0,14,,,,,,,,,,,,,,,,10,,79,72
31559,note_on,,0,0,18,,,,,,,,,,,,,,,,15,,72,0
31559,note_on,,59,0,11,,,,,,,,,,,,,,,,6,,67,0
31559,note_on,,119,0,17,,,,,,,,,,,,,,,,13,,60,0
31559,note_on,,119,0,12,,,,,,,,,,,,,,,,7,,63,0
31559,note_on,,119,0,15,,,,,,,,,,,,,,,,11,,75,0
31559,note_on,,0,0,18,,,,,,,,,,,,,,,,15,,67,0
31559,note_on,,119,0,13,,,,,,,,,,,,,,,,8,,60,0
31559,note_on,,119,0,7,,,,,,,,,,,,,,,,2,,60,0
31559,note_on,,59,0,14,,,,,,,,,,,,,,,,10,,79,0
31559,note_on,,119,0,16,,,,,,,,,,,,,,,,12,,67,0
31559,note_on,,119,0,18,,,,,,,,,,,,,,,,15,,60,0
31559,note_on,,0,0,18,,,,,,,,,,,,,,,,15,,63,0
31560,note_on,,1,0,11,,,,,,,,,,,,,,,,6,,65,72
31560,note_on,,1,0,14,,,,,,,,,,,,,,,,10,,77,72
31619,note_on,,59,0,11,,,,,,,,,,,,,,,,6,,65,0
31619,note_on,,59,0,14,,,,,,,,,,,,,,,,10,,77,0
31620,note_on,,1,0,14,,,,,,,,,,,,,,,,10,,75,72
31620,note_on,,61,0,16,,,,,,,,,,,,,,,,12,,67,72
31620,note_on,,1,0,11,,,,,,,,,,,,,,,,6,,63,72
31679,note_on,,59,0,14,,,,,,,,,,,,,,,,10,,75,0
31679,note_on,,59,0,16,,,,,,,,,,,,,,,,12,,67,0
31679,note_on,,59,0,11,,,,,,,,,,,,,,,,6,,63,0
31680,note_on,,1,0,14,,,,,,,,,,,,,,,,10,,80,72
31680,note_on,,1,0,16,,,,,,,,,,,,,,,,12,,72,72
31680,note_on,,1,0,11,,,,,,,,,,,,,,,,6,,68,72
31740,note_on,,181,0,18,,,,,,,,,,,,,,,,15,,58,72
31740,note_on,,181,0,15,,,,,,,,,,,,,,,,11,,74,72
31740,note_on,,181,0,7,,,,,,,,,,,,,,,,2,,58,72
31740,note_on,,181,0,12,,,,,,,,,,,,,,,,7,,62,72
31740,note_on,,301,0,6,,,,,,,,,,,,,,,,1,,72,72
31740,note_on,,301,0,10,,,,,,,,,,,,,,,,5,,72,72
31740,note_on,,181,0,17,,,,,,,,,,,,,,,,13,,58,72
31740,note_on,,181,0,13,,,,,,,,,,,,,,,,8,,58,72
31799,note_on,,59,0,7,,,,,,,,,,,,,,,,2,,58,0
31799,note_on,,59,0,6,,,,,,,,,,,,,,,,1,,72,0
31799,note_on,,59,0,18,,,,,,,,,,,,,,,,15,,58,0
31799,note_on,,59,0,13,,,,,,,,,,,,,,,,8,,58,0
31799,note_on,,59,0,15,,,,,,,,,,,,,,,,11,,74,0
31799,note_on,,59,0,10,,,,,,,,,,,,,,,,5,,72,0
31799,note_on,,59,0,17,,,,,,,,,,,,,,,,13,,58,0
31799,note_on,,59,0,12,,,,,,,,,,,,,,,,7,,62,0
31800,note_on,,1,0,17,,,,,,,,,,,,,,,,13,,60,72
31800,note_on,,1,0,6,,,,,,,,,,,,,,,,1,,72,72
31800,note_on,,1,0,13,,,,,,,,,,,,,,,,8,,60,72
31800,note_on,,1,0,15,,,,,,,,,,,,,,,,11,,75,72
31800,note_on,,0,0,18,,,,,,,,,,,,,,,,15,,68,72
31800,note_on,,1,0,10,,,,,,,,,,,,,,,,5,,72,72
31800,note_on,,0,0,18,,,,,,,,,,,,,,,,15,,72,72
31800,note_on,,1,0,12,,,,,,,,,,,,,,,,7,,63,72
31800,note_on,,1,0,7,,,,,,,,,,,,,,,,2,,60,72
31800,note_on,,0,0,18,,,,,,,,,,,,,,,,15,,75,72
31800,note_on,,1,0,18,,,,,,,,,,,,,,,,15,,60,72
31859,note_on,,59,0,12,,,,,,,,,,,,,,,,7,,63,0
31859,note_on,,59,0,18,,,,,,,,,,,,,,,,15,,60,0
31859,note_on,,59,0,15,,,,,,,,,,,,,,,,11,,75,0
31859,note_on,,179,0,11,,,,,,,,,,,,,,,,6,,68,0
31859,note_on,,59,0,10,,,,,,,,,,,,,,,,5,,72,0
31859,note_on,,59,0,13,,,,,,,,,,,,,,,,8,,60,0
31859,note_on,,59,0,17,,,,,,,,,,,,,,,,13,,60,0
31859,note_on,,179,0,14,,,,,,,,,,,,,,,,10,,80,0
31859,note_on,,59,0,6,,,,,,,,,,,,,,,,1,,72,0
31859,note_on,,59,0,7,,,,,,,,,,,,,,,,2,,60,0
31859,note_on,,179,0,16,,,,,,,,,,,,,,,,12,,72,0
31860,note_on,,1,0,12,,,,,,,,,,,,,,,,7,,65,72
31860,note_on,,1,0,7,,,,,,,,,,,,,,,,2,,62,72
31860,note_on,,1,0,6,,,,,,,,,,,,,,,,1,,72,72
31860,note_on,,1,0,16,,,,,,,,,,,,,,,,12,,70,72
31860,note_on,,1,0,18,,,,,,,,,,,,,,,,15,,62,72
31860,note_on,,1,0,11,,,,,,,,,,,,,,,,6,,68,72
31860,note_on,,1,0,13,,,,,,,,,,,,,,,,8,,62,72
31860,note_on,,1,0,10,,,,,,,,,,,,,,,,5,,72,72
31860,note_on,,1,0,17,,,,,,,,,,,,,,,,13,,62,72
31860,note_on,,1,0,14,,,,,,,,,,,,,,,,10,,80,72
31860,note_on,,1,0,15,,,,,,,,,,,,,,,,11,,77,72
31919,note_on,,59,0,17,,,,,,,,,,,,,,,,13,,62,0
31919,note_on,,0,0,18,,,,,,,,,,,,,,,,15,,62,0
31919,note_on,,59,0,16,,,,,,,,,,,,,,,,12,,70,0
31919,note_on,,0,0,18,,,,,,,,,,,,,,,,15,,72,0
31919,note_on,,59,0,13,,,,,,,,,,,,,,,,8,,62,0
31919,note_on,,59,0,7,,,,,,,,,,,,,,,,2,,62,0
31919,note_on,,0,0,18,,,,,,,,,,,,,,,,15,,68,0
31919,note_on,,59,0,10,,,,,,,,,,,,,,,,5,,72,0
31919,note_on,,59,0,12,,,,,,,,,,,,,,,,7,,65,0
31919,note_on,,59,0,6,,,,,,,,,,,,,,,,1,,72,0
31919,note_on,,59,0,14,,,,,,,,,,,,,,,,10,,80,0
31919,note_on,,59,0,18,,,,,,,,,,,,,,,,15,,75,0
31919,note_on,,59,0,15,,,,,,,,,,,,,,,,11,,77,0
31919,note_on,,59,0,11,,,,,,,,,,,,,,,,6,,68,0
31920,note_on,,1,0,14,,,,,,,,,,,,,,,,10,,79,72
31920,note_on,,0,0,18,,,,,,,,,,,,,,,,15,,67,72
31920,note_on,,1,0,13,,,,,,,,,,,,,,,,8,,63,72
31920,note_on,,1,0,7,,,,,,,,,,,,,,,,2,,63,72
31920,note_on,,1,0,17,,,,,,,,,,,,,,,,13,,63,72
31920,note_on,,1,0,6,,,,,,,,,,,,,,,,1,,70,72
31920,note_on,,1,0,10,,,,,,,,,,,,,,,,5,,70,72
31920,note_on,,1,0,16,,,,,,,,,,,,,,,,12,,75,72
31920,note_on,,1,0,15,,,,,,,,,,,,,,,,11,,70,72
31920,note_on,,0,0,18,,,,,,,,,,,,,,,,15,,79,72
31920,note_on,,1,0,11,,,,,,,,,,,,,,,,6,,67,72
31920,note_on,,1,0,12,,,,,,,,,,,,,,,,7,,67,72
31920,note_on,,0,0,18,,,,,,,,,,,,,,,,15,,70,72
31920,note_on,,1,0,18,,,,,,,,,,,,,,,,15,,63,72
32039,note_on,,119,0,17,,,,,,,,,,,,,,,,13,,63,0
32039,note_on,,0,0,18,,,,,,,,,,,,,,,,15,,70,0
32039,note_on,,0,0,18,,,,,,,,,,,,,,,,15,,67,0
32039,note_on,,119,0,12,,,,,,,,,,,,,,,,7,,67,0
32039,note_on,,119,0,15,,,,,,,,,,,,,,,,11,,70,0
32039,note_on,,119,0,13,,,,,,,,,,,,,,,,8,,63,0
32039,note_on,,119,0,14,,,,,,,,,,,,,,,,10,,79,0
32039,note_on,,119,0,6,,,,,,,,,,,,,,,,1,,70,0
32039,note_on,,0,0,18,,,,,,,,,,,,,,,,15,,79,0
32039,note_on,,119,0,18,,,,,,,,,,,,,,,,15,,63,0
32039,note_on,,119,0,7,,,,,,,,,,,,,,,,2,,63,0
32039,note_on,,119,0,11,,,,,,,,,,,,,,,,6,,67,0
32039,note_on,,119,0,16,,,,,,,,,,,,,,,,12,,75,0
32039,note_on,,119,0,10,,,,,,,,,,,,,,,,5,,70,0
32100,note_on,,61,0,14,,,,,,,,,,,,,,,,10,,75,72
32100,note_on,,61,0,10,,,,,,,,,,,,,,,,5,,75,72
32100,note_on,,61,0,6,,,,,,,,,,,,,,,,1,,75,72
32100,note_on,,61,0,18,,,,,,,,,,,,,,,,15,,75,72
32159,note_on,,59,0,18,,,,,,,,,,,,,,,,15,,75,0
32159,note_on,,59,0,10,,,,,,,,,,,,,,,,5,,75,0
32159,note_on,,59,0,6,,,,,,,,,,,,,,,,1,,75,0
32159,note_on,,59,0,14,,,,,,,,,,,,,,,,10,,75,0
32160,note_on,,1,0,10,,,,,,,,,,,,,,,,5,,79,72
32160,note_on,,1,0,14,,,,,,,,,,,,,,,,10,,79,72
32160,note_on,,1,0,18,,,,,,,,,,,,,,,,15,,79,72
32160,note_on,,1,0,6,,,,,,,,,,,,,,,,1,,79,72
32219,note_on,,59,0,14,,,,,,,,,,,,,,,,10,,79,0
32219,note_on,,59,0,18,,,,,,,,,,,,,,,,15,,79,0
32219,note_on,,59,0,10,,,,,,,,,,,,,,,,5,,79,0
32219,note_on,,59,0,6,,,,,,,,,,,,,,,,1,,79,0
32220,note_on,,1,0,10,,,,,,,,,,,,,,,,5,,77,72
32220,note_on,,1,0,6,,,,,,,,,,,,,,,,1,,77,72
32220,note_on,,1,0,14,,,,,,,,,,,,,,,,10,,77,72
32220,note_on,,1,0,18,,,,,,,,,,,,,,,,15,,77,72
32249,note_on,,29,0,6,,,,,,,,,,,,,,,,1,,77,0
32249,note_on,,29,0,10,,,,,,,,,,,,,,,,5,,77,0
32249,note_on,,29,0,14,,,,,,,,,,,,,,,,10,,77,0
32249,note_on,,29,0,18,,,,,,,,,,,,,,,,15,,77,0
32250,note_on,,1,0,14,,,,,,,,,,,,,,,,10,,75,72
32250,note_on,,1,0,10,,,,,,,,,,,,,,,,5,,75,72
32250,note_on,,1,0,18,,,,,,,,,,,,,,,,15,,75,72
32250,note_on,,1,0,6,,,,,,,,,,,,,,,,1,,75,72
32279,note_on,,29,0,14,,,,,,,,,,,,,,,,10,,75,0
32279,note_on,,29,0,6,,,,,,,,,,,,,,,,1,,75,0
32279,note_on,,29,0,18,,,,,,,,,,,,,,,,15,,75,0
32279,note_on,,29,0,10,,,,,,,,,,,,,,,,5,,75,0
32280,note_on,,1,0,14,,,,,,,,,,,,,,,,10,,74,72
32280,note_on,,1,0,10,,,,,,,,,,,,,,,,5,,74,72
32280,note_on,,1,0,6,,,,,,,,,,,,,,,,1,,74,72
32280,note_on,,1,0,18,,,,,,,,,,,,,,,,15,,74,72
32339,note_on,,59,0,10,,,,,,,,,,,,,,,,5,,74,0
32339,note_on,,59,0,6,,,,,,,,,,,,,,,,1,,74,0
32339,note_on,,59,0,18,,,,,,,,,,,,,,,,15,,74,0
32339,note_on,,59,0,14,,,,,,,,,,,,,,,,10,,74,0
32340,note_on,,1,0,18,,,,,,,,,,,,,,,,15,,63,72
32340,note_on,,1,0,14,,,,,,,,,,,,,,,,10,,72,72
32340,note_on,,301,0,16,,,,,,,,,,,,,,,,12,,63,72
32340,note_on,,301,0,12,,,,,,,,,,,,,,,,7,,63,72
32340,note_on,,0,0,18,,,,,,,,,,,,,,,,15,,72,72
32340,note_on,,301,0,17,,,,,,,,,,,,,,,,13,,63,72
32340,note_on,,1,0,10,,,,,,,,,,,,,,,,5,,72,72
32340,note_on,,1,0,6,,,,,,,,,,,,,,,,1,,72,72
32399,note_on,,59,0,18,,,,,,,,,,,,,,,,15,,63,0
32399,note_on,,59,0,17,,,,,,,,,,,,,,,,13,,63,0
32399,note_on,,59,0,12,,,,,,,,,,,,,,,,7,,63,0
32399,note_on,,59,0,10,,,,,,,,,,,,,,,,5,,72,0
32399,note_on,,59,0,6,,,,,,,,,,,,,,,,1,,72,0
32399,note_on,,59,0,14,,,,,,,,,,,,,,,,10,,72,0
32399,note_on,,59,0,16,,,,,,,,,,,,,,,,12,,63,0
32399,note_on,,0,0,18,,,,,,,,,,,,,,,,15,,72,0
32400,note_on,,1,0,17,,,,,,,,,,,,,,,,13,,67,72
32400,note_on,,1,0,18,,,,,,,,,,,,,,,,15,,67,72
32400,note_on,,0,0,18,,,,,,,,,,,,,,,,15,,70,72
32400,note_on,,1,0,6,,,,,,,,,,,,,,,,1,,70,72
32400,note_on,,1,0,16,,,,,,,,,,,,,,,,12,,67,72
32400,note_on,,1,0,12,,,,,,,,,,,,,,,,7,,67,72
32400,note_on,,1,0,14,,,,,,,,,,,,,,,,10,,70,72
32400,note_on,,1,0,10,,,,,,,,,,,,,,,,5,,70,72
32459,note_on,,59,0,17,,,,,,,,,,,,,,,,13,,67,0
32459,note_on,,59,0,12,,,,,,,,,,,,,,,,7,,67,0
32459,note_on,,59,0,18,,,,,,,,,,,,,,,,15,,67,0
32459,note_on,,59,0,16,,,,,,,,,,,,,,,,12,,67,0
32460,note_on,,1,0,16,,,,,,,,,,,,,,,,12,,65,72
32460,note_on,,1,0,17,,,,,,,,,,,,,,,,13,,65,72
32460,note_on,,1,0,12,,,,,,,,,,,,,,,,7,,65,72
32460,note_on,,1,0,18,,,,,,,,,,,,,,,,15,,65,72
32489,note_on,,29,0,12,,,,,,,,,,,,,,,,7,,65,0
32489,note_on,,29,0,16,,,,,,,,,,,,,,,,12,,65,0
32489,note_on,,29,0,17,,,,,,,,,,,,,,,,13,,65,0
32489,note_on,,29,0,18,,,,,,,,,,,,,,,,15,,65,0
32490,note_on,,1,0,18,,,,,,,,,,,,,,,,15,,63,72
32490,note_on,,1,0,16,,,,,,,,,,,,,,,,12,,63,72
32490,note_on,,1,0,17,,,,,,,,,,,,,,,,13,,63,72
32490,note_on,,1,0,12,,,,,,,,,,,,,,,,7,,63,72
32519,note_on,,29,0,18,,,,,,,,,,,,,,,,15,,63,0
32519,note_on,,29,0,12,,,,,,,,,,,,,,,,7,,63,0
32519,note_on,,29,0,16,,,,,,,,,,,,,,,,12,,63,0
32519,note_on,,29,0,17,,,,,,,,,,,,,,,,13,,63,0
32520,note_on,,1,0,18,,,,,,,,,,,,,,,,15,,62,72
32520,note_on,,1,0,16,,,,,,,,,,,,,,,,12,,62,72
32520,note_on,,1,0,12,,,,,,,,,,,,,,,,7,,62,72
32520,note_on,,1,0,17,,,,,,,,,,,,,,,,13,,62,72
32579,note_on,,179,0,14,,,,,,,,,,,,,,,,10,,70,0
32579,note_on,,59,0,16,,,,,,,,,,,,,,,,12,,62,0
32579,note_on,,59,0,17,,,,,,,,,,,,,,,,13,,62,0
32579,note_on,,179,0,10,,,,,,,,,,,,,,,,5,,70,0
32579,note_on,,179,0,6,,,,,,,,,,,,,,,,1,,70,0
32579,note_on,,59,0,12,,,,,,,,,,,,,,,,7,,62,0
32579,note_on,,59,0,18,,,,,,,,,,,,,,,,15,,62,0
32580,note_on,,541,0,7,,,,,,,,,,,,,,,,2,,51,72
32580,note_on,,541,0,13,,,,,,,,,,,,,,,,8,,51,72
32580,note_on,,1,0,6,,,,,,,,,,,,,,,,1,,70,72
32580,note_on,,0,0,18,,,,,,,,,,,,,,,,15,,60,72
32580,note_on,,1,0,18,,,,,,,,,,,,,,,,15,,51,72
32580,note_on,,541,0,15,,,,,,,,,,,,,,,,11,,67,72
32580,note_on,,1,0,16,,,,,,,,,,,,,,,,12,,60,72
32580,note_on,,1,0,12,,,,,,,,,,,,,,,,7,,60,72
32580,note_on,,541,0,11,,,,,,,,,,,,,,,,6,,67,72
32580,note_on,,1,0,10,,,,,,,,,,,,,,,,5,,70,72
32580,note_on,,1,0,14,,,,,,,,,,,,,,,,10,,70,72
32580,note_on,,1,0,17,,,,,,,,,,,,,,,,13,,51,72
32639,note_on,,59,0,6,,,,,,,,,,,,,,,,1,,70,0
32639,note_on,,59,0,11,,,,,,,,,,,,,,,,6,,67,0
32639,note_on,,59,0,15,,,,,,,,,,,,,,,,11,,67,0
32639,note_on,,59,0,17,,,,,,,,,,,,,,,,13,,51,0
32639,note_on,,59,0,16,,,,,,,,,,,,,,,,12,,60,0
32639,note_on,,59,0,13,,,,,,,,,,,,,,,,8,,51,0
32639,note_on,,59,0,7,,,,,,,,,,,,,,,,2,,51,0
32639,note_on,,0,0,18,,,,,,,,,,,,,,,,15,,51,0
32639,note_on,,59,0,18,,,,,,,,,,,,,,,,15,,70,0
32639,note_on,,59,0,12,,,,,,,,,,,,,,,,7,,60,0
32639,note_on,,59,0,14,,,,,,,,,,,,,,,,10,,70,0
32639,note_on,,59,0,10,,,,,,,,,,,,,,,,5,,70,0
32639,note_on,,0,0,18,,,,,,,,,,,,,,,,15,,60,0
32640,note_on,,1,0,14,,,,,,,,,,,,,,,,10,,70,72
32640,note_on,,1,0,15,,,,,,,,,,,,,,,,11,,70,72
32640,note_on,,1,0,13,,,,,,,,,,,,,,,,8,,55,72
32640,note_on,,1,0,7,,,,,,,,,,,,,,,,2,,55,72
32640,note_on,,1,0,16,,,,,,,,,,,,,,,,12,,58,72
32640,note_on,,1,0,11,,,,,,,,,,,,,,,,6,,70,72
32640,note_on,,1,0,6,,,,,,,,,,,,,,,,1,,70,72
32640,note_on,,0,0,18,,,,,,,,,,,,,,,,15,,70,72
32640,note_on,,1,0,17,,,,,,,,,,,,,,,,13,,55,72
32640,note_on,,0,0,18,,,,,,,,,,,,,,,,15,,75,72
32640,note_on,,1,0,10,,,,,,,,,,,,,,,,5,,70,72
32640,note_on,,0,0,18,,,,,,,,,,,,,,,,15,,58,72
32640,note_on,,1,0,18,,,,,,,,,,,,,,,,15,,55,72
32640,note_on,,0,0,18,,,,,,,,,,,,,,,,15,,63,72
32640,note_on,,1,0,12,,,,,,,,,,,,,,,,7,,58,72
32699,note_on,,0,0,18,,,,,,,,,,,,,,,,15,,58,0
32699,note_on,,59,0,18,,,,,,,,,,,,,,,,15,,55,0
32699,note_on,,59,0,13,,,,,,,,,,,,,,,,8,,55,0
32699,note_on,,59,0,17,,,,,,,,,,,,,,,,13,,55,0
32699,note_on,,59,0,7,,,,,,,,,,,,,,,,2,,55,0
32699,note_on,,59,0,11,,,,,,,,,,,,,,,,6,,70,0
32699,note_on,,59,0,15,,,,,,,,,,,,,,,,11,,70,0
32700,note_on,,1,0,13,,,,,,,,,,,,,,,,8,,53,72
32700,note_on,,1,0,11,,,,,,,,,,,,,,,,6,,68,72
32700,note_on,,1,0,18,,,,,,,,,,,,,,,,15,,53,72
32700,note_on,,1,0,15,,,,,,,,,,,,,,,,11,,68,72
32700,note_on,,1,0,7,,,,,,,,,,,,,,,,2,,53,72
32700,note_on,,1,0,17,,,,,,,,,,,,,,,,13,,53,72
32729,note_on,,29,0,11,,,,,,,,,,,,,,,,6,,68,0
32729,note_on,,29,0,18,,,,,,,,,,,,,,,,15,,53,0
32729,note_on,,29,0,15,,,,,,,,,,,,,,,,11,,68,0
32729,note_on,,89,0,12,,,,,,,,,,,,,,,,7,,58,0
32729,note_on,,29,0,13,,,,,,,,,,,,,,,,8,,53,0
32729,note_on,,29,0,7,,,,,,,,,,,,,,,,2,,53,0
32729,note_on,,89,0,16,,,,,,,,,,,,,,,,12,,58,0
32729,note_on,,29,0,17,,,,,,,,,,,,,,,,13,,53,0
32730,note_on,,1,0,15,,,,,,,,,,,,,,,,11,,67,72
32730,note_on,,1,0,12,,,,,,,,,,,,,,,,7,,58,72
32730,note_on,,1,0,11,,,,,,,,,,,,,,,,6,,67,72
32730,note_on,,1,0,18,,,,,,,,,,,,,,,,15,,51,72
32730,note_on,,1,0,17,,,,,,,,,,,,,,,,13,,51,72
32730,note_on,,1,0,7,,,,,,,,,,,,,,,,2,,51,72
32730,note_on,,1,0,16,,,,,,,,,,,,,,,,12,,58,72
32730,note_on,,1,0,13,,,,,,,,,,,,,,,,8,,51,72
32759,note_on,,29,0,17,,,,,,,,,,,,,,,,13,,51,0
32759,note_on,,29,0,15,,,,,,,,,,,,,,,,11,,67,0
32759,note_on,,29,0,7,,,,,,,,,,,,,,,,2,,51,0
32759,note_on,,29,0,11,,,,,,,,,,,,,,,,6,,67,0
32759,note_on,,0,0,18,,,,,,,,,,,,,,,,15,,63,0
32759,note_on,,0,0,18,,,,,,,,,,,,,,,,15,,70,0
32759,note_on,,29,0,18,,,,,,,,,,,,,,,,15,,75,0
32759,note_on,,29,0,16,,,,,,,,,,,,,,,,12,,58,0
32759,note_on,,29,0,13,,,,,,,,,,,,,,,,8,,51,0
32759,note_on,,0,0,18,,,,,,,,,,,,,,,,15,,51,0
32759,note_on,,29,0,12,,,,,,,,,,,,,,,,7,,58,0
32760,note_on,,1,0,16,,,,,,,,,,,,,,,,12,,58,72
32760,note_on,,1,0,7,,,,,,,,,,,,,,,,2,,50,72
32760,note_on,,1,0,18,,,,,,,,,,,,,,,,15,,50,72
32760,note_on,,1,0,12,,,,,,,,,,,,,,,,7,,58,72
32760,note_on,,1,0,13,,,,,,,,,,,,,,,,8,,50,72
32760,note_on,,1,0,15,,,,,,,,,,,,,,,,11,,65,72
32760,note_on,,1,0,11,,,,,,,,,,,,,,,,6,,65,72
32760,note_on,,1,0,17,,,,,,,,,,,,,,,,13,,50,72
32819,note_on,,59,0,17,,,,,,,,,,,,,,,,13,,50,0
32819,note_on,,179,0,10,,,,,,,,,,,,,,,,5,,70,0
32819,note_on,,59,0,11,,,,,,,,,,,,,,,,6,,65,0
32819,note_on,,59,0,18,,,,,,,,,,,,,,,,15,,50,0
32819,note_on,,59,0,16,,,,,,,,,,,,,,,,12,,58,0
32819,note_on,,59,0,12,,,,,,,,,,,,,,,,7,,58,0
32819,note_on,,179,0,6,,,,,,,,,,,,,,,,1,,70,0
32819,note_on,,59,0,13,,,,,,,,,,,,,,,,8,,50,0
32819,note_on,,59,0,7,,,,,,,,,,,,,,,,2,,50,0
32819,note_on,,59,0,15,,,,,,,,,,,,,,,,11,,65,0
32819,note_on,,179,0,14,,,,,,,,,,,,,,,,10,,70,0
32820,note_on,,1,0,12,,,,,,,,,,,,,,,,7,,55,72
32820,note_on,,1,0,13,,,,,,,,,,,,,,,,8,,48,72
32820,note_on,,1,0,17,,,,,,,,,,,,,,,,13,,48,72
32820,note_on,,1,0,16,,,,,,,,,,,,,,,,12,,60,72
32820,note_on,,1,0,7,,,,,,,,,,,,,,,,2,,48,72
32820,note_on,,1,0,14,,,,,,,,,,,,,,,,10,,75,72
32820,note_on,,1,0,18,,,,,,,,,,,,,,,,15,,48,72
32820,note_on,,1,0,11,,,,,,,,,,,,,,,,6,,63,72
32820,note_on,,1,0,6,,,,,,,,,,,,,,,,1,,72,72
32820,note_on,,1,0,15,,,,,,,,,,,,,,,,11,,63,72
32820,note_on,,1,0,10,,,,,,,,,,,,,,,,5,,72,72
32879,note_on,,59,0,14,,,,,,,,,,,,,,,,10,,75,0
32879,note_on,,59,0,15,,,,,,,,,,,,,,,,11,,63,0
32879,note_on,,59,0,16,,,,,,,,,,,,,,,,12,,60,0
32879,note_on,,59,0,7,,,,,,,,,,,,,,,,2,,48,0
32879,note_on,,59,0,11,,,,,,,,,,,,,,,,6,,63,0
32879,note_on,,59,0,13,,,,,,,,,,,,,,,,8,,48,0
32879,note_on,,59,0,10,,,,,,,,,,,,,,,,5,,72,0
32879,note_on,,59,0,12,,,,,,,,,,,,,,,,7,,55,0
32879,note_on,,59,0,6,,,,,,,,,,,,,,,,1,,72,0
32879,note_on,,59,0,17,,,,,,,,,,,,,,,,13,,48,0
32879,note_on,,59,0,18,,,,,,,,,,,,,,,,15,,48,0
32880,note_on,,1,0,7,,,,,,,,,,,,,,,,2,,46,72
32880,note_on,,1,0,13,,,,,,,,,,,,,,,,8,,46,72
32880,note_on,,1,0,15,,,,,,,,,,,,,,,,11,,65,72
32880,note_on,,1,0,12,,,,,,,,,,,,,,,,7,,58,72
32880,note_on,,1,0,6,,,,,,,,,,,,,,,,1,,74,72
32880,note_on,,1,0,17,,,,,,,,,,,,,,,,13,,46,72
32880,note_on,,1,0,11,,,,,,,,,,,,,,,,6,,62,72
32880,note_on,,1,0,14,,,,,,,,,,,,,,,,10,,82,72
32880,note_on,,1,0,18,,,,,,,,,,,,,,,,15,,46,72
32880,note_on,,0,0,18,,,,,,,,,,,,,,,,15,,74,72
32880,note_on,,0,0,18,,,,,,,,,,,,,,,,15,,65,72
32880,note_on,,1,0,10,,,,,,,,,,,,,,,,5,,74,72
32880,note_on,,1,0,16,,,,,,,,,,,,,,,,12,,62,72
32880,note_on,,0,0,18,,,,,,,,,,,,,,,,15,,70,72
32939,note_on,,59,0,14,,,,,,,,,,,,,,,,10,,82,0
32939,note_on,,59,0,12,,,,,,,,,,,,,,,,7,,58,0
32940,note_on,,1,0,12,,,,,,,,,,,,,,,,7,,56,72
32940,note_on,,1,0,14,,,,,,,,,,,,,,,,10,,80,72
32969,note_on,,89,0,13,,,,,,,,,,,,,,,,8,,46,0
32969,note_on,,89,0,17,,,,,,,,,,,,,,,,13,,46,0
32969,note_on,,89,0,7,,,,,,,,,,,,,,,,2,,46,0
32969,note_on,,29,0,12,,,,,,,,,,,,,,,,7,,56,0
32969,note_on,,89,0,18,,,,,,,,,,,,,,,,15,,46,0
32969,note_on,,29,0,14,,,,,,,,,,,,,,,,10,,80,0
32969,note_on,,89,0,11,,,,,,,,,,,,,,,,6,,62,0
32970,note_on,,1,0,14,,,,,,,,,,,,,,,,10,,79,72
32970,note_on,,1,0,11,,,,,,,,,,,,,,,,6,,63,72
32970,note_on,,1,0,13,,,,,,,,,,,,,,,,8,,46,72
32970,note_on,,1,0,17,,,,,,,,,,,,,,,,13,,46,72
32970,note_on,,1,0,7,,,,,,,,,,,,,,,,2,,46,72
32970,note_on,,1,0,18,,,,,,,,,,,,,,,,15,,46,72
32970,note_on,,1,0,12,,,,,,,,,,,,,,,,7,,55,72
32999,note_on,,29,0,11,,,,,,,,,,,,,,,,6,,63,0
32999,note_on,,29,0,17,,,,,,,,,,,,,,,,13,,46,0
32999,note_on,,29,0,7,,,,,,,,,,,,,,,,2,,46,0
32999,note_on,,29,0,13,,,,,,,,,,,,,,,,8,,46,0
32999,note_on,,29,0,14,,,,,,,,,,,,,,,,10,,79,0
32999,note_on,,29,0,18,,,,,,,,,,,,,,,,15,,46,0
32999,note_on,,29,0,12,,,,,,,,,,,,,,,,7,,55,0
33000,note_on,,1,0,18,,,,,,,,,,,,,,,,15,,46,72
33000,note_on,,1,0,14,,,,,,,,,,,,,,,,10,,77,72
33000,note_on,,1,0,11,,,,,,,,,,,,,,,,6,,65,72
33000,note_on,,1,0,12,,,,,,,,,,,,,,,,7,,53,72
33000,note_on,,1,0,13,,,,,,,,,,,,,,,,8,,46,72
33000,note_on,,1,0,7,,,,,,,,,,,,,,,,2,,46,72
33000,note_on,,1,0,17,,,,,,,,,,,,,,,,13,,46,72
33059,note_on,,179,0,16,,,,,,,,,,,,,,,,12,,62,0
33059,note_on,,59,0,11,,,,,,,,,,,,,,,,6,,65,0
33059,note_on,,179,0,10,,,,,,,,,,,,,,,,5,,74,0
33059,note_on,,0,0,18,,,,,,,,,,,,,,,,15,,46,0
33059,note_on,,59,0,17,,,,,,,,,,,,,,,,13,,46,0
33059,note_on,,0,0,18,,,,,,,,,,,,,,,,15,,65,0
33059,note_on,,59,0,18,,,,,,,,,,,,,,,,15,,74,0
33059,note_on,,0,0,18,,,,,,,,,,,,,,,,15,,70,0
33059,note_on,,59,0,12,,,,,,,,,,,,,,,,7,,53,0
33059,note_on,,59,0,7,,,,,,,,,,,,,,,,2,,46,0
33059,note_on,,179,0,6,,,,,,,,,,,,,,,,1,,74,0
33059,note_on,,59,0,14,,,,,,,,,,,,,,,,10,,77,0
33059,note_on,,179,0,15,,,,,,,,,,,,,,,,11,,65,0
33059,note_on,,59,0,13,,,,,,,,,,,,,,,,8,,46,0
33060,note_on,,1,0,13,,,,,,,,,,,,,,,,8,,51,72
33060,note_on,,1,0,11,,,,,,,,,,,,,,,,6,,67,72
33060,note_on,,1,0,17,,,,,,,,,,,,,,,,13,,51,72
33060,note_on,,0,0,18,,,,,,,,,,,,,,,,15,,70,72
33060,note_on,,1,0,6,,,,,,,,,,,,,,,,1,,75,72
33060,note_on,,1,0,12,,,,,,,,,,,,,,,,7,,51,72
33060,note_on,,1,0,7,,,,,,,,,,,,,,,,2,,51,72
33060,note_on,,1,0,16,,,,,,,,,,,,,,,,12,,63,72
33060,note_on,,1,0,15,,,,,,,,,,,,,,,,11,,67,72
33060,note_on,,0,0,18,,,,,,,,,,,,,,,,15,,67,72
33060,note_on,,0,0,18,,,,,,,,,,,,,,,,15,,63,72
33060,note_on,,1,0,10,,,,,,,,,,,,,,,,5,,75,72
33060,note_on,,1,0,18,,,,,,,,,,,,,,,,15,,51,72
33060,note_on,,1,0,14,,,,,,,,,,,,,,,,10,,75,72
33119,note_on,,59,0,13,,,,,,,,,,,,,,,,8,,51,0
33119,note_on,,59,0,7,,,,,,,,,,,,,,,,2,,51,0
33119,note_on,,0,0,18,,,,,,,,,,,,,,,,15,,70,0
33119,note_on,,0,0,18,,,,,,,,,,,,,,,,15,,63,0
33119,note_on,,0,0,18,,,,,,,,,,,,,,,,15,,67,0
33119,note_on,,59,0,12,,,,,,,,,,,,,,,,7,,51,0
33119,note_on,,59,0,6,,,,,,,,,,,,,,,,1,,75,0
33119,note_on,,59,0,14,,,,,,,,,,,,,,,,10,,75,0
33119,note_on,,59,0,18,,,,,,,,,,,,,,,,15,,51,0
33119,note_on,,59,0,11,,,,,,,,,,,,,,,,6,,67,0
33119,note_on,,59,0,17,,,,,,,,,,,,,,,,13,,51,0
33119,note_on,,59,0,10,,,,,,,,,,,,,,,,5,,75,0
33119,note_on,,59,0,16,,,,,,,,,,,,,,,,12,,63,0
33119,note_on,,59,0,15,,,,,,,,,,,,,,,,11,,67,0
33120,note_on,,0,0,18,,,,,,,,,,,,,,,,15,,70,72
33120,note_on,,0,0,18,,,,,,,,,,,,,,,,15,,65,72
33120,note_on,,1,0,14,,,,,,,,,,,,,,,,10,,74,72
33120,note_on,,1,0,13,,,,,,,,,,,,,,,,8,,58,72
33120,note_on,,1,0,6,,,,,,,,,,,,,,,,1,,77,72
33120,note_on,,1,0,11,,,,,,,,,,,,,,,,6,,65,72
33120,note_on,,1,0,15,,,,,,,,,,,,,,,,11,,70,72
33120,note_on,,0,0,18,,,,,,,,,,,,,,,,15,,62,72
33120,note_on,,1,0,7,,,,,,,,,,,,,,,,2,,58,72
33120,note_on,,1,0,17,,,,,,,,,,,,,,,,13,,58,72
33120,note_on,,1,0,16,,,,,,,,,,,,,,,,12,,65,72
33120,note_on,,1,0,10,,,,,,,,,,,,,,,,5,,77,72
33120,note_on,,1,0,18,,,,,,,,,,,,,,,,15,,58,72
33120,note_on,,1,0,12,,,,,,,,,,,,,,,,7,,62,72
33179,note_on,,59,0,18,,,,,,,,,,,,,,,,15,,58,0
33179,note_on,,59,0,7,,,,,,,,,,,,,,,,2,,58,0
33179,note_on,,59,0,13,,,,,,,,,,,,,,,,8,,58,0
33179,note_on,,59,0,17,,,,,,,,,,,,,,,,13,,58,0
33180,note_on,,1,0,17,,,,,,,,,,,,,,,,13,,56,72
33180,note_on,,1,0,13,,,,,,,,,,,,,,,,8,,56,72
33180,note_on,,1,0,7,,,,,,,,,,,,,,,,2,,56,72
33180,note_on,,1,0,18,,,,,,,,,,,,,,,,15,,56,72
33209,note_on,,89,0,15,,,,,,,,,,,,,,,,11,,70,0
33209,note_on,,89,0,11,,,,,,,,,,,,,,,,6,,65,0
33209,note_on,,29,0,7,,,,,,,,,,,,,,,,2,,56,0
33209,note_on,,29,0,18,,,,,,,,,,,,,,,,15,,56,0
33209,note_on,,29,0,13,,,,,,,,,,,,,,,,8,,56,0
33209,note_on,,29,0,17,,,,,,,,,,,,,,,,13,,56,0
33209,note_on,,89,0,16,,,,,,,,,,,,,,,,12,,65,0
33209,note_on,,89,0,12,,,,,,,,,,,,,,,,7,,62,0
33209,note_on,,89,0,14,,,,,,,,,,,,,,,,10,,74,0
33210,note_on,,1,0,15,,,,,,,,,,,,,,,,11,,72,72
33210,note_on,,1,0,18,,,,,,,,,,,,,,,,15,,55,72
33210,note_on,,1,0,17,,,,,,,,,,,,,,,,13,,55,72
33210,note_on,,1,0,16,,,,,,,,,,,,,,,,12,,67,72
33210,note_on,,1,0,11,,,,,,,,,,,,,,,,6,,67,72
33210,note_on,,1,0,14,,,,,,,,,,,,,,,,10,,75,72
33210,note_on,,1,0,12,,,,,,,,,,,,,,,,7,,62,72
33210,note_on,,1,0,13,,,,,,,,,,,,,,,,8,,55,72
33210,note_on,,1,0,7,,,,,,,,,,,,,,,,2,,55,72
33239,note_on,,0,0,18,,,,,,,,,,,,,,,,15,,62,0
33239,note_on,,0,0,18,,,,,,,,,,,,,,,,15,,65,0
33239,note_on,,29,0,14,,,,,,,,,,,,,,,,10,,75,0
33239,note_on,,29,0,12,,,,,,,,,,,,,,,,7,,62,0
33239,note_on,,29,0,7,,,,,,,,,,,,,,,,2,,55,0
33239,note_on,,29,0,15,,,,,,,,,,,,,,,,11,,72,0
33239,note_on,,29,0,18,,,,,,,,,,,,,,,,15,,70,0
33239,note_on,,29,0,13,,,,,,,,,,,,,,,,8,,55,0
33239,note_on,,29,0,16,,,,,,,,,,,,,,,,12,,67,0
33239,note_on,,0,0,18,,,,,,,,,,,,,,,,15,,55,0
33239,note_on,,29,0,11,,,,,,,,,,,,,,,,6,,67,0
33239,note_on,,29,0,17,,,,,,,,,,,,,,,,13,,55,0
33240,note_on,,1,0,13,,,,,,,,,,,,,,,,8,,53,72
33240,note_on,,0,0,18,,,,,,,,,,,,,,,,15,,65,72
33240,note_on,,1,0,14,,,,,,,,,,,,,,,,10,,77,72
33240,note_on,,1,0,17,,,,,,,,,,,,,,,,13,,53,72
33240,note_on,,1,0,11,,,,,,,,,,,,,,,,6,,68,72
33240,note_on,,0,0,18,,,,,,,,,,,,,,,,15,,68,72
33240,note_on,,1,0,7,,,,,,,,,,,,,,,,2,,53,72
33240,note_on,,1,0,18,,,,,,,,,,,,,,,,15,,53,72
33240,note_on,,1,0,16,,,,,,,,,,,,,,,,12,,68,72
33240,note_on,,0,0,18,,,,,,,,,,,,,,,,15,,74,72
33240,note_on,,1,0,12,,,,,,,,,,,,,,,,7,,62,72
33240,note_on,,1,0,15,,,,,,,,,,,,,,,,11,,74,72
33299,note_on,,0,0,18,,,,,,,,,,,,,,,,15,,68,0
33299,note_on,,179,0,10,,,,,,,,,,,,,,,,5,,77,0
33299,note_on,,59,0,11,,,,,,,,,,,,,,,,6,,68,0
33299,note_on,,179,0,6,,,,,,,,,,,,,,,,1,,77,0
33299,note_on,,59,0,17,,,,,,,,,,,,,,,,13,,53,0
33299,note_on,,59,0,15,,,,,,,,,,,,,,,,11,,74,0
33299,note_on,,0,0,18,,,,,,,,,,,,,,,,15,,74,0
33299,note_on,,59,0,18,,,,,,,,,,,,,,,,15,,53,0
33299,note_on,,59,0,12,,,,,,,,,,,,,,,,7,,62,0
33299,note_on,,59,0,14,,,,,,,,,,,,,,,,10,,77,0
33299,note_on,,59,0,13,,,,,,,,,,,,,,,,8,,53,0
33299,note_on,,59,0,16,,,,,,,,,,,,,,,,12,,68,0
33299,note_on,,0,0,18,,,,,,,,,,,,,,,,15,,65,0
33299,note_on,,59,0,7,,,,,,,,,,,,,,,,2,,53,0
33300,note_on,,1,0,7,,,,,,,,,,,,,,,,2,,51,72
33300,note_on,,1,0,10,,,,,,,,,,,,,,,,5,,79,72
33300,note_on,,1,0,11,,,,,,,,,,,,,,,,6,,67,72
33300,note_on,,1,0,18,,,,,,,,,,,,,,,,15,,51,72
33300,note_on,,1,0,16,,,,,,,,,,,,,,,,12,,67,72
33300,note_on,,0,0,18,,,,,,,,,,,,,,,,15,,75,72
33300,note_on,,1,0,6,,,,,,,,,,,,,,,,1,,79,72
33300,note_on,,1,0,17,,,,,,,,,,,,,,,,13,,51,72
33300,note_on,,1,0,15,,,,,,,,,,,,,,,,11,,75,72
33300,note_on,,0,0,18,,,,,,,,,,,,,,,,15,,67,72
33300,note_on,,1,0,14,,,,,,,,,,,,,,,,10,,79,72
33300,note_on,,1,0,12,,,,,,,,,,,,,,,,7,,63,72
33300,note_on,,0,0,18,,,,,,,,,,,,,,,,15,,70,72
33300,note_on,,1,0,13,,,,,,,,,,,,,,,,8,,51,72
33359,note_on,,59,0,13,,,,,,,,,,,,,,,,8,,51,0
33359,note_on,,59,0,11,,,,,,,,,,,,,,,,6,,67,0
33359,note_on,,59,0,15,,,,,,,,,,,,,,,,11,,75,0
33359,note_on,,59,0,10,,,,,,,,,,,,,,,,5,,79,0
33359,note_on,,59,0,16,,,,,,,,,,,,,,,,12,,67,0
33359,note_on,,59,0,6,,,,,,,,,,,,,,,,1,,79,0
33359,note_on,,59,0,17,,,,,,,,,,,,,,,,13,,51,0
33359,note_on,,0,0,18,,,,,,,,,,,,,,,,15,,75,0
33359,note_on,,0,0,18,,,,,,,,,,,,,,,,15,,70,0
33359,note_on,,0,0,18,,,,,,,,,,,,,,,,15,,67,0
33359,note_on,,59,0,7,,,,,,,,,,,,,,,,2,,51,0
33359,note_on,,59,0,14,,,,,,,,,,,,,,,,10,,79,0
33359,note_on,,59,0,18,,,,,,,,,,,,,,,,15,,51,0
33359,note_on,,59,0,12,,,,,,,,,,,,,,,,7,,63,0
33360,note_on,,1,0,7,,,,,,,,,,,,,,,,2,,50,72
33360,note_on,,1,0,11,,,,,,,,,,,,,,,,6,,65,72
33360,note_on,,1,0,13,,,,,,,,,,,,,,,,8,,50,72
33360,note_on,,1,0,10,,,,,,,,,,,,,,,,5,,80,72
33360,note_on,,1,0,17,,,,,,,,,,,,,,,,13,,50,72
33360,note_on,,1,0,14,,,,,,,,,,,,,,,,10,,80,72
33360,note_on,,0,0,18,,,,,,,,,,,,,,,,15,,70,72
33360,note_on,,1,0,12,,,,,,,,,,,,,,,,7,,58,72
33360,note_on,,1,0,18,,,,,,,,,,,,,,,,15,,50,72
33360,note_on,,1,0,15,,,,,,,,,,,,,,,,11,,77,72
33360,note_on,,1,0,6,,,,,,,,,,,,,,,,1,,80,72
33360,note_on,,0,0,18,,,,,,,,,,,,,,,,15,,77,72
33360,note_on,,0,0,18,,,,,,,,,,,,,,,,15,,65,72
33360,note_on,,1,0,16,,,,,,,,,,,,,,,,12,,70,72
33449,note_on,,89,0,17,,,,,,,,,,,,,,,,13,,50,0
33449,note_on,,89,0,13,,,,,,,,,,,,,,,,8,,50,0
33449,note_on,,89,0,12,,,,,,,,,,,,,,,,7,,58,0
33449,note_on,,89,0,7,,,,,,,,,,,,,,,,2,,50,0
33449,note_on,,89,0,11,,,,,,,,,,,,,,,,6,,65,0
33449,note_on,,89,0,16,,,,,,,,,,,,,,,,12,,70,0
33449,note_on,,89,0,18,,,,,,,,,,,,,,,,15,,50,0
33450,note_on,,1,0,13,,,,,,,,,,,,,,,,8,,50,72
33450,note_on,,1,0,17,,,,,,,,,,,,,,,,13,,50,72
33450,note_on,,1,0,11,,,,,,,,,,,,,,,,6,,65,72
33450,note_on,,1,0,12,,,,,,,,,,,,,,,,7,,58,72
33450,note_on,,1,0,18,,,,,,,,,,,,,,,,15,,50,72
33450,note_on,,1,0,7,,,,,,,,,,,,,,,,2,,50,72
33450,note_on,,1,0,16,,,,,,,,,,,,,,,,12,,70,72
33479,note_on,,29,0,18,,,,,,,,,,,,,,,,15,,50,0
33479,note_on,,29,0,11,,,,,,,,,,,,,,,,6,,65,0
33479,note_on,,29,0,17,,,,,,,,,,,,,,,,13,,50,0
33479,note_on,,29,0,16,,,,,,,,,,,,,,,,12,,70,0
33479,note_on,,29,0,12,,,,,,,,,,,,,,,,7,,58,0
33479,note_on,,29,0,13,,,,,,,,,,,,,,,,8,,50,0
33479,note_on,,29,0,7,,,,,,,,,,,,,,,,2,,50,0
33480,note_on,,1,0,16,,,,,,,,,,,,,,,,12,,70,72
33480,note_on,,1,0,13,,,,,,,,,,,,,,,,8,,50,72
33480,note_on,,1,0,12,,,,,,,,,,,,,,,,7,,58,72
33480,note_on,,1,0,18,,,,,,,,,,,,,,,,15,,50,72
33480,note_on,,1,0,7,,,,,,,,,,,,,,,,2,,50,72
33480,note_on,,1,0,11,,,,,,,,,,,,,,,,6,,65,72
33480,note_on,,1,0,17,,,,,,,,,,,,,,,,13,,50,72
33539,note_on,,179,0,10,,,,,,,,,,,,,,,,5,,80,0
33539,note_on,,59,0,16,,,,,,,,,,,,,,,,12,,70,0
33539,note_on,,59,0,7,,,,,,,,,,,,,,,,2,,50,0
33539,note_on,,0,0,18,,,,,,,,,,,,,,,,15,,50,0
33539,note_on,,0,0,18,,,,,,,,,,,,,,,,15,,65,0
33539,note_on,,59,0,13,,,,,,,,,,,,,,,,8,,50,0
33539,note_on,,0,0,18,,,,,,,,,,,,,,,,15,,70,0
33539,note_on,,59,0,11,,,,,,,,,,,,,,,,6,,65,0
33539,note_on,,59,0,12,,,,,,,,,,,,,,,,7,,58,0
33539,note_on,,179,0,15,,,,,,,,,,,,,,,,11,,77,0
33539,note_on,,179,0,14,,,,,,,,,,,,,,,,10,,80,0
33539,note_on,,59,0,18,,,,,,,,,,,,,,,,15,,77,0
33539,note_on,,179,0,6,,,,,,,,,,,,,,,,1,,80,0
33539,note_on,,59,0,17,,,,,,,,,,,,,,,,13,,50,0
33540,note_on,,1,0,11,,,,,,,,,,,,,,,,6,,63,72
33540,note_on,,1,0,6,,,,,,,,,,,,,,,,1,,79,72
33540,note_on,,1,0,7,,,,,,,,,,,,,,,,2,,51,72
33540,note_on,,1,0,15,,,,,,,,,,,,,,,,11,,75,72
33540,note_on,,1,0,14,,,,,,,,,,,,,,,,10,,79,72
33540,note_on,,1,0,16,,,,,,,,,,,,,,,,12,,70,72
33540,note_on,,1,0,12,,,,,,,,,,,,,,,,7,,58,72
33540,note_on,,1,0,18,,,,,,,,,,,,,,,,15,,51,72
33540,note_on,,0,0,18,,,,,,,,,,,,,,,,15,,75,72
33540,note_on,,1,0,13,,,,,,,,,,,,,,,,8,,51,72
33540,note_on,,0,0,18,,,,,,,,,,,,,,,,15,,70,72
33540,note_on,,0,0,18,,,,,,,,,,,,,,,,15,,67,72
33540,note_on,,1,0,10,,,,,,,,,,,,,,,,5,,79,72
33540,note_on,,1,0,17,,,,,,,,,,,,,,,,13,,51,72
33599,note_on,,59,0,18,,,,,,,,,,,,,,,,15,,51,0
33599,note_on,,0,0,18,,,,,,,,,,,,,,,,15,,75,0
33599,note_on,,0,0,18,,,,,,,,,,,,,,,,15,,70,0
33599,note_on,,0,0,18,,,,,,,,,,,,,,,,15,,67,0
33599,note_on,,59,0,11,,,,,,,,,,,,,,,,6,,63,0
33599,note_on,,59,0,13,,,,,,,,,,,,,,,,8,,51,0
33599,note_on,,59,0,7,,,,,,,,,,,,,,,,2,,51,0
33599,note_on,,59,0,10,,,,,,,,,,,,,,,,5,,79,0
33599,note_on,,59,0,14,,,,,,,,,,,,,,,,10,,79,0
33599,note_on,,59,0,15,,,,,,,,,,,,,,,,11,,75,0
33599,note_on,,59,0,16,,,,,,,,,,,,,,,,12,,70,0
33599,note_on,,59,0,6,,,,,,,,,,,,,,,,1,,79,0
33599,note_on,,59,0,12,,,,,,,,,,,,,,,,7,,58,0
33599,note_on,,59,0,17,,,,,,,,,,,,,,,,13,,51,0
33600,note_on,,0,0,18,,,,,,,,,,,,,,,,15,,68,72
33600,note_on,,0,0,18,,,,,,,,,,,,,,,,15,,63,72
33600,note_on,,1,0,14,,,,,,,,,,,,,,,,10,,84,72
33600,note_on,,1,0,15,,,,,,,,,,,,,,,,11,,75,72
33600,note_on,,1,0,12,,,,,,,,,,,,,,,,7,,65,72
33600,note_on,,1,0,7,,,,,,,,,,,,,,,,2,,56,72
33600,note_on,,0,0,18,,,,,,,,,,,,,,,,15,,72,72
33600,note_on,,1,0,16,,,,,,,,,,,,,,,,12,,65,72
33600,note_on,,1,0,10,,,,,,,,,,,,,,,,5,,72,72
33600,note_on,,1,0,6,,,,,,,,,,,,,,,,1,,72,72
33600,note_on,,1,0,13,,,,,,,,,,,,,,,,8,,56,72
33600,note_on,,1,0,11,,,,,,,,,,,,,,,,6,,63,72
33600,note_on,,1,0,18,,,,,,,,,,,,,,,,15,,56,72
33600,note_on,,1,0,17,,,,,,,,,,,,,,,,13,,56,72
33689,note_on,,89,0,17,,,,,,,,,,,,,,,,13,,56,0
33689,note_on,,89,0,14,,,,,,,,,,,,,,,,10,,84,0
33689,note_on,,89,0,13,,,,,,,,,,,,,,,,8,,56,0
33689,note_on,,89,0,11,,,,,,,,,,,,,,,,6,,63,0
33689,note_on,,89,0,10,,,,,,,,,,,,,,,,5,,72,0
33689,note_on,,89,0,18,,,,,,,,,,,,,,,,15,,56,0
33689,note_on,,89,0,12,,,,,,,,,,,,,,,,7,,65,0
33689,note_on,,89,0,7,,,,,,,,,,,,,,,,2,,56,0
33689,note_on,,89,0,6,,,,,,,,,,,,,,,,1,,72,0
33689,note_on,,89,0,15,,,,,,,,,,,,,,,,11,,75,0
33689,note_on,,89,0,16,,,,,,,,,,,,,,,,12,,65,0
33690,note_on,,1,0,17,,,,,,,,,,,,,,,,13,,56,72
33690,note_on,,1,0,12,,,,,,,,,,,,,,,,7,,65,72
33690,note_on,,1,0,15,,,,,,,,,,,,,,,,11,,75,72
33690,note_on,,1,0,18,,,,,,,,,,,,,,,,15,,56,72
33690,note_on,,1,0,7,,,,,,,,,,,,,,,,2,,56,72
33690,note_on,,1,0,6,,,,,,,,,,,,,,,,1,,72,72
33690,note_on,,1,0,11,,,,,,,,,,,,,,,,6,,63,72
33690,note_on,,1,0,13,,,,,,,,,,,,,,,,8,,56,72
33690,note_on,,1,0,16,,,,,,,,,,,,,,,,12,,65,72
33690,note_on,,1,0,14,,,,,,,,,,,,,,,,10,,72,72
33690,note_on,,1,0,10,,,,,,,,,,,,,,,,5,,72,72
33719,note_on,,29,0,18,,,,,,,,,,,,,,,,15,,72,0
33719,note_on,,0,0,18,,,,,,,,,,,,,,,,15,,68,0
33719,note_on,,0,0,18,,,,,,,,,,,,,,,,15,,56,0
33719,note_on,,29,0,13,,,,,,,,,,,,,,,,8,,56,0
33719,note_on,,29,0,12,,,,,,,,,,,,,,,,7,,65,0
33719,note_on,,29,0,6,,,,,,,,,,,,,,,,1,,72,0
33719,note_on,,29,0,16,,,,,,,,,,,,,,,,12,,65,0
33719,note_on,,29,0,17,,,,,,,,,,,,,,,,13,,56,0
33719,note_on,,29,0,14,,,,,,,,,,,,,,,,10,,72,0
33719,note_on,,29,0,15,,,,,,,,,,,,,,,,11,,75,0
33719,note_on,,29,0,11,,,,,,,,,,,,,,,,6,,63,0
33719,note_on,,29,0,7,,,,,,,,,,,,,,,,2,,56,0
33719,note_on,,29,0,10,,,,,,,,,,,,,,,,5,,72,0
33720,note_on,,1,0,16,,,,,,,,,,,,,,,,12,,65,72
33720,note_on,,1,0,11,,,,,,,,,,,,,,,,6,,62,72
33720,note_on,,1,0,13,,,,,,,,,,,,,,,,8,,57,72
33720,note_on,,0,0,18,,,,,,,,,,,,,,,,15,,65,72
33720,note_on,,1,0,10,,,,,,,,,,,,,,,,5,,74,72
33720,note_on,,1,0,6,,,,,,,,,,,,,,,,1,,74,72
33720,note_on,,1,0,15,,,,,,,,,,,,,,,,11,,74,72
33720,note_on,,1,0,14,,,,,,,,,,,,,,,,10,,74,72
33720,note_on,,1,0,12,,,,,,,,,,,,,,,,7,,65,72
33720,note_on,,1,0,17,,,,,,,,,,,,,,,,13,,57,72
33720,note_on,,1,0,18,,,,,,,,,,,,,,,,15,,57,72
33720,note_on,,1,0,7,,,,,,,,,,,,,,,,2,,57,72
33779,note_on,,59,0,18,,,,,,,,,,,,,,,,15,,57,0
33779,note_on,,59,0,10,,,,,,,,,,,,,,,,5,,74,0
33779,note_on,,59,0,17,,,,,,,,,,,,,,,,13,,57,0
33779,note_on,,59,0,6,,,,,,,,,,,,,,,,1,,74,0
33779,note_on,,59,0,11,,,,,,,,,,,,,,,,6,,62,0
33779,note_on,,59,0,7,,,,,,,,,,,,,,,,2,,57,0
33779,note_on,,59,0,12,,,,,,,,,,,,,,,,7,,65,0
33779,note_on,,59,0,15,,,,,,,,,,,,,,,,11,,74,0
33779,note_on,,59,0,13,,,,,,,,,,,,,,,,8,,57,0
33779,note_on,,59,0,14,,,,,,,,,,,,,,,,10,,74,0
33779,note_on,,59,0,16,,,,,,,,,,,,,,,,12,,65,0
33780,note_on,,1,0,17,,,,,,,,,,,,,,,,13,,57,72
33780,note_on,,1,0,11,,,,,,,,,,,,,,,,6,,60,72
33780,note_on,,1,0,7,,,,,,,,,,,,,,,,2,,57,72
33780,note_on,,1,0,18,,,,,,,,,,,,,,,,15,,57,72
33780,note_on,,1,0,16,,,,,,,,,,,,,,,,12,,65,72
33780,note_on,,1,0,13,,,,,,,,,,,,,,,,8,,57,72
33780,note_on,,1,0,10,,,,,,,,,,,,,,,,5,,75,72
33780,note_on,,1,0,6,,,,,,,,,,,,,,,,1,,75,72
33780,note_on,,1,0,14,,,,,,,,,,,,,,,,10,,75,72
33780,note_on,,1,0,15,,,,,,,,,,,,,,,,11,,72,72
33780,note_on,,1,0,12,,,,,,,,,,,,,,,,7,,65,72
33839,note_on,,0,0,18,,,,,,,,,,,,,,,,15,,57,0
33839,note_on,,0,0,18,,,,,,,,,,,,,,,,15,,65,0
33839,note_on,,59,0,17,,,,,,,,,,,,,,,,13,,57,0
33839,note_on,,59,0,6,,,,,,,,,,,,,,,,1,,75,0
33839,note_on,,59,0,18,,,,,,,,,,,,,,,,15,,63,0
33839,note_on,,59,0,7,,,,,,,,,,,,,,,,2,,57,0
33839,note_on,,59,0,14,,,,,,,,,,,,,,,,10,,75,0
33839,note_on,,59,0,15,,,,,,,,,,,,,,,,11,,72,0
33839,note_on,,59,0,12,,,,,,,,,,,,,,,,7,,65,0
33839,note_on,,59,0,13,,,,,,,,,,,,,,,,8,,57,0
33839,note_on,,59,0,16,,,,,,,,,,,,,,,,12,,65,0
33839,note_on,,59,0,10,,,,,,,,,,,,,,,,5,,75,0
33839,note_on,,59,0,11,,,,,,,,,,,,,,,,6,,60,0
33840,note_on,,1,0,13,,,,,,,,,,,,,,,,8,,58,72
33840,note_on,,1,0,12,,,,,,,,,,,,,,,,7,,65,72
33840,note_on,,1,0,15,,,,,,,,,,,,,,,,11,,70,72
33840,note_on,,1,0,17,,,,,,,,,,,,,,,,13,,58,72
33840,note_on,,1,0,11,,,,,,,,,,,,,,,,6,,70,72
33840,note_on,,1,0,14,,,,,,,,,,,,,,,,10,,74,72
33840,note_on,,1,0,18,,,,,,,,,,,,,,,,15,,58,72
33840,note_on,,0,0,18,,,,,,,,,,,,,,,,15,,70,72
33840,note_on,,0,0,18,,,,,,,,,,,,,,,,15,,65,72
33840,note_on,,0,0,18,,,,,,,,,,,,,,,,15,,62,72
33840,note_on,,1,0,10,,,,,,,,,,,,,,,,5,,74,72
33840,note_on,,1,0,16,,,,,,,,,,,,,,,,12,,65,72
33840,note_on,,1,0,7,,,,,,,,,,,,,,,,2,,58,72
33840,note_on,,1,0,6,,,,,,,,,,,,,,,,1,,74,72
33929,note_on,,89,0,6,,,,,,,,,,,,,,,,1,,74,0
33929,note_on,,89,0,18,,,,,,,,,,,,,,,,15,,58,0
33929,note_on,,89,0,15,,,,,,,,,,,,,,,,11,,70,0
33929,note_on,,89,0,14,,,,,,,,,,,,,,,,10,,74,0
33929,note_on,,89,0,16,,,,,,,,,,,,,,,,12,,65,0
33929,note_on,,89,0,11,,,,,,,,,,,,,,,,6,,70,0
33929,note_on,,89,0,12,,,,,,,,,,,,,,,,7,,65,0
33929,note_on,,89,0,7,,,,,,,,,,,,,,,,2,,58,0
33929,note_on,,89,0,13,,,,,,,,,,,,,,,,8,,58,0
33929,note_on,,89,0,17,,,,,,,,,,,,,,,,13,,58,0
33929,note_on,,89,0,10,,,,,,,,,,,,,,,,5,,74,0
33930,note_on,,1,0,12,,,,,,,,,,,,,,,,7,,63,72
33930,note_on,,1,0,11,,,,,,,,,,,,,,,,6,,65,72
33930,note_on,,1,0,18,,,,,,,,,,,,,,,,15,,46,72
33930,note_on,,1,0,15,,,,,,,,,,,,,,,,11,,65,72
33930,note_on,,1,0,14,,,,,,,,,,,,,,,,10,,72,72
33930,note_on,,1,0,7,,,,,,,,,,,,,,,,2,,46,72
33930,note_on,,1,0,6,,,,,,,,,,,,,,,,1,,72,72
33930,note_on,,1,0,13,,,,,,,,,,,,,,,,8,,58,72
33930,note_on,,1,0,16,,,,,,,,,,,,,,,,12,,63,72
33930,note_on,,1,0,10,,,,,,,,,,,,,,,,5,,72,72
33930,note_on,,1,0,17,,,,,,,,,,,,,,,,13,,46,72
33959,note_on,,29,0,7,,,,,,,,,,,,,,,,2,,46,0
33959,note_on,,29,0,15,,,,,,,,,,,,,,,,11,,65,0
33959,note_on,,29,0,14,,,,,,,,,,,,,,,,10,,72,0
33959,note_on,,29,0,13,,,,,,,,,,,,,,,,8,,58,0
33959,note_on,,29,0,11,,,,,,,,,,,,,,,,6,,65,0
33959,note_on,,29,0,17,,,,,,,,,,,,,,,,13,,46,0
33959,note_on,,29,0,6,,,,,,,,,,,,,,,,1,,72,0
33959,note_on,,29,0,12,,,,,,,,,,,,,,,,7,,63,0
33959,note_on,,29,0,16,,,,,,,,,,,,,,,,12,,63,0
33959,note_on,,29,0,10,,,,,,,,,,,,,,,,5,,72,0
33959,note_on,,29,0,18,,,,,,,,,,,,,,,,15,,46,0
33960,note_on,,1,0,7,,,,,,,,,,,,,,,,2,,46,72
33960,note_on,,1,0,14,,,,,,,,,,,,,,,,10,,70,72
33960,note_on,,1,0,16,,,,,,,,,,,,,,,,12,,62,72
33960,note_on,,1,0,11,,,,,,,,,,,,,,,,6,,65,72
33960,note_on,,1,0,13,,,,,,,,,,,,,,,,8,,58,72
33960,note_on,,1,0,12,,,,,,,,,,,,,,,,7,,62,72
33960,note_on,,1,0,10,,,,,,,,,,,,,,,,5,,70,72
33960,note_on,,1,0,15,,,,,,,,,,,,,,,,11,,65,72
33960,note_on,,1,0,6,,,,,,,,,,,,,,,,1,,70,72
33960,note_on,,1,0,18,,,,,,,,,,,,,,,,15,,46,72
33960,note_on,,1,0,17,,,,,,,,,,,,,,,,13,,46,72
34079,note_on,,119,0,14,,,,,,,,,,,,,,,,10,,70,0
34079,note_on,,119,0,13,,,,,,,,,,,,,,,,8,,58,0
34079,note_on,,119,0,16,,,,,,,,,,,,,,,,12,,62,0
34079,note_on,,119,0,12,,,,,,,,,,,,,,,,7,,62,0
34079,note_on,,119,0,10,,,,,,,,,,,,,,,,5,,70,0
34079,note_on,,0,0,18,,,,,,,,,,,,,,,,15,,46,0
34079,note_on,,0,0,18,,,,,,,,,,,,,,,,15,,62,0
34079,note_on,,0,0,18,,,,,,,,,,,,,,,,15,,65,0
34079,note_on,,119,0,18,,,,,,,,,,,,,,,,15,,70,0
34079,note_on,,119,0,6,,,,,,,,,,,,,,,,1,,70,0
34079,note_on,,119,0,15,,,,,,,,,,,,,,,,11,,65,0
34079,note_on,,119,0,7,,,,,,,,,,,,,,,,2,,46,0
34079,note_on,,119,0,17,,,,,,,,,,,,,,,,13,,46,0
34079,note_on,,119,0,11,,,,,,,,,,,,,,,,6,,65,0
34080,set_tempo,,34080,1,0,,,,,,,,,1090909,,,,,,,,,,
34200,note_on,,121,0,6,,,,,,,,,,,,,,,,1,,75,72
34200,note_on,,121,0,15,,,,,,,,,,,,,,,,11,,70,72
34200,note_on,,121,0,16,,,,,,,,,,,,,,,,12,,63,72
34200,note_on,,121,0,13,,,,,,,,,,,,,,,,8,,55,72
34200,note_on,,121,0,12,,,,,,,,,,,,,,,,7,,63,72
34200,note_on,,121,0,14,,,,,,,,,,,,,,,,10,,75,72
34200,note_on,,0,0,18,,,,,,,,,,,,,,,,15,,58,72
34200,note_on,,121,0,11,,,,,,,,,,,,,,,,6,,70,72
34200,note_on,,121,0,18,,,,,,,,,,,,,,,,15,,55,72
34200,note_on,,0,0,18,,,,,,,,,,,,,,,,15,,63,72
34200,note_on,,121,0,17,,,,,,,,,,,,,,,,13,,55,72
34200,note_on,,121,0,7,,,,,,,,,,,,,,,,2,,55,72
34200,note_on,,121,0,10,,,,,,,,,,,,,,,,5,,75,72
34319,note_on,,119,0,12,,,,,,,,,,,,,,,,7,,63,0
34319,note_on,,119,0,15,,,,,,,,,,,,,,,,11,,70,0
34319,note_on,,119,0,10,,,,,,,,,,,,,,,,5,,75,0
34319,note_on,,119,0,11,,,,,,,,,,,,,,,,6,,70,0
34319,note_on,,119,0,16,,,,,,,,,,,,,,,,12,,63,0
34319,note_on,,119,0,6,,,,,,,,,,,,,,,,1,,75,0
34319,note_on,,119,0,7,,,,,,,,,,,,,,,,2,,55,0
34319,note_on,,119,0,17,,,,,,,,,,,,,,,,13,,55,0
34319,note_on,,119,0,18,,,,,,,,,,,,,,,,15,,55,0
34319,note_on,,119,0,13,,,,,,,,,,,,,,,,8,,55,0
34319,note_on,,119,0,14,,,,,,,,,,,,,,,,10,,75,0
34319,note_on,,0,0,18,,,,,,,,,,,,,,,,15,,63,0
34319,note_on,,0,0,18,,,,,,,,,,,,,,,,15,,58,0
34320,note_on,,1,0,6,,,,,,,,,,,,,,,,1,,74,72
34320,note_on,,1,0,17,,,,,,,,,,,,,,,,13,,53,72
34320,note_on,,1,0,11,,,,,,,,,,,,,,,,6,,68,72
34320,note_on,,1,0,12,,,,,,,,,,,,,,,,7,,65,72
34320,note_on,,1,0,7,,,,,,,,,,,,,,,,2,,53,72
34320,note_on,,1,0,16,,,,,,,,,,,,,,,,12,,65,72
34320,note_on,,1,0,10,,,,,,,,,,,,,,,,5,,74,72
34320,note_on,,0,0,18,,,,,,,,,,,,,,,,15,,62,72
34320,note_on,,0,0,18,,,,,,,,,,,,,,,,15,,65,72
34320,note_on,,1,0,14,,,,,,,,,,,,,,,,10,,74,72
34320,note_on,,0,0,18,,,,,,,,,,,,,,,,15,,56,72
34320,note_on,,1,0,13,,,,,,,,,,,,,,,,8,,53,72
34320,note_on,,1,0,18,,,,,,,,,,,,,,,,15,,53,72
34320,note_on,,1,0,15,,,,,,,,,,,,,,,,11,,68,72
34439,note_on,,119,0,17,,,,,,,,,,,,,,,,13,,53,0
34439,note_on,,119,0,7,,,,,,,,,,,,,,,,2,,53,0
34439,note_on,,119,0,10,,,,,,,,,,,,,,,,5,,74,0
34439,note_on,,119,0,6,,,,,,,,,,,,,,,,1,,74,0
34439,note_on,,119,0,11,,,,,,,,,,,,,,,,6,,68,0
34439,note_on,,119,0,18,,,,,,,,,,,,,,,,15,,53,0
34439,note_on,,0,0,18,,,,,,,,,,,,,,,,15,,56,0
34439,note_on,,0,0,18,,,,,,,,,,,,,,,,15,,65,0
34439,note_on,,119,0,16,,,,,,,,,,,,,,,,12,,65,0
34439,note_on,,119,0,12,,,,,,,,,,,,,,,,7,,65,0
34439,note_on,,119,0,14,,,,,,,,,,,,,,,,10,,74,0
34439,note_on,,119,0,13,,,,,,,,,,,,,,,,8,,53,0
34439,note_on,,0,0,18,,,,,,,,,,,,,,,,15,,62,0
34439,note_on,,119,0,15,,,,,,,,,,,,,,,,11,,68,0
34440,note_on,,1,0,12,,,,,,,,,,,,,,,,7,,58,72
34440,note_on,,1,0,18,,,,,,,,,,,,,,,,15,,51,72
34440,note_on,,1,0,15,,,,,,,,,,,,,,,,11,,67,72
34440,note_on,,1,0,7,,,,,,,,,,,,,,,,2,,51,72
34440,note_on,,1,0,17,,,,,,,,,,,,,,,,13,,51,72
34440,note_on,,1,0,14,,,,,,,,,,,,,,,,10,,75,72
34440,note_on,,1,0,6,,,,,,,,,,,,,,,,1,,75,72
34440,note_on,,0,0,18,,,,,,,,,,,,,,,,15,,63,72
34440,note_on,,0,0,18,,,,,,,,,,,,,,,,15,,67,72
34440,note_on,,0,0,18,,,,,,,,,,,,,,,,15,,58,72
34440,note_on,,1,0,11,,,,,,,,,,,,,,,,6,,67,72
34440,note_on,,1,0,16,,,,,,,,,,,,,,,,12,,58,72
34440,note_on,,1,0,13,,,,,,,,,,,,,,,,8,,51,72
34440,note_on,,1,0,10,,,,,,,,,,,,,,,,5,,75,72
34559,note_on,,119,0,18,,,,,,,,,,,,,,,,15,,51,0
34559,note_on,,0,0,18,,,,,,,,,,,,,,,,15,,63,0
34559,note_on,,119,0,13,,,,,,,,,,,,,,,,8,,51,0
34559,note_on,,119,0,14,,,,,,,,,,,,,,,,10,,75,0
34559,note_on,,0,0,18,,,,,,,,,,,,,,,,15,,67,0
34559,note_on,,119,0,17,,,,,,,,,,,,,,,,13,,51,0
34559,note_on,,119,0,16,,,,,,,,,,,,,,,,12,,58,0
34559,note_on,,119,0,6,,,,,,,,,,,,,,,,1,,75,0
34559,note_on,,0,0,18,,,,,,,,,,,,,,,,15,,58,0
34559,note_on,,119,0,11,,,,,,,,,,,,,,,,6,,67,0
34559,note_on,,119,0,10,,,,,,,,,,,,,,,,5,,75,0
34559,note_on,,119,0,7,,,,,,,,,,,,,,,,2,,51,0
34559,note_on,,119,0,12,,,,,,,,,,,,,,,,7,,58,0
34559,note_on,,119,0,15,,,,,,,,,,,,,,,,11,,67,0
34560,note_on,,1,0,15,,,,,,,,,,,,,,,,11,,65,72
34560,note_on,,1,0,13,,,,,,,,,,,,,,,,8,,58,72
34560,note_on,,1,0,18,,,,,,,,,,,,,,,,15,,58,72
34560,note_on,,1,0,6,,,,,,,,,,,,,,,,1,,75,72
34560,note_on,,1,0,11,,,,,,,,,,,,,,,,6,,65,72
34560,note_on,,1,0,7,,,,,,,,,,,,,,,,2,,58,72
34560,note_on,,1,0,16,,,,,,,,,,,,,,,,12,,58,72
34560,note_on,,1,0,17,,,,,,,,,,,,,,,,13,,58,72
34560,note_on,,0,0,18,,,,,,,,,,,,,,,,15,,65,72
34560,note_on,,1,0,12,,,,,,,,,,,,,,,,7,,58,72
34560,note_on,,1,0,10,,,,,,,,,,,,,,,,5,,75,72
34560,note_on,,1,0,14,,,,,,,,,,,,,,,,10,,75,72
34560,note_on,,0,0,18,,,,,,,,,,,,,,,,15,,63,72
34799,note_on,,0,0,18,,,,,,,,,,,,,,,,15,,65,0
34799,note_on,,239,0,13,,,,,,,,,,,,,,,,8,,58,0
34799,note_on,,239,0,18,,,,,,,,,,,,,,,,15,,58,0
34799,note_on,,239,0,17,,,,,,,,,,,,,,,,13,,58,0
34799,note_on,,239,0,6,,,,,,,,,,,,,,,,1,,75,0
34799,note_on,,239,0,10,,,,,,,,,,,,,,,,5,,75,0
34799,note_on,,239,0,7,,,,,,,,,,,,,,,,2,,58,0
34799,note_on,,239,0,14,,,,,,,,,,,,,,,,10,,75,0
34799,note_on,,0,0,18,,,,,,,,,,,,,,,,15,,63,0
34800,note_on,,1,0,6,,,,,,,,,,,,,,,,1,,74,72
34800,note_on,,0,0,18,,,,,,,,,,,,,,,,15,,65,72
34800,note_on,,0,0,18,,,,,,,,,,,,,,,,15,,62,72
34800,note_on,,1,0,17,,,,,,,,,,,,,,,,13,,46,72
34800,note_on,,1,0,13,,,,,,,,,,,,,,,,8,,46,72
34800,note_on,,0,0,18,,,,,,,,,,,,,,,,15,,70,72
34800,note_on,,1,0,18,,,,,,,,,,,,,,,,15,,46,72
34800,note_on,,1,0,10,,,,,,,,,,,,,,,,5,,74,72
34800,note_on,,1,0,14,,,,,,,,,,,,,,,,10,,74,72
34800,note_on,,1,0,7,,,,,,,,,,,,,,,,2,,46,72
34919,note_on,,359,0,11,,,,,,,,,,,,,,,,6,,65,0
34919,note_on,,359,0,16,,,,,,,,,,,,,,,,12,,58,0
34919,note_on,,359,0,12,,,,,,,,,,,,,,,,7,,58,0
34919,note_on,,359,0,15,,,,,,,,,,,,,,,,11,,65,0
34920,note_on,,1,0,11,,,,,,,,,,,,,,,,6,,68,72
34920,note_on,,1,0,12,,,,,,,,,,,,,,,,7,,58,72
34920,note_on,,1,0,16,,,,,,,,,,,,,,,,12,,58,72
34920,note_on,,1,0,15,,,,,,,,,,,,,,,,11,,68,72
34979,note_on,,59,0,11,,,,,,,,,,,,,,,,6,,68,0
34979,note_on,,59,0,15,,,,,,,,,,,,,,,,11,,68,0
34980,note_on,,1,0,11,,,,,,,,,,,,,,,,6,,67,72
34980,note_on,,1,0,15,,,,,,,,,,,,,,,,11,,67,72
35039,note_on,,239,0,14,,,,,,,,,,,,,,,,10,,74,0
35039,note_on,,239,0,10,,,,,,,,,,,,,,,,5,,74,0
35039,note_on,,0,0,18,,,,,,,,,,,,,,,,15,,62,0
35039,note_on,,0,0,18,,,,,,,,,,,,,,,,15,,65,0
35039,note_on,,239,0,6,,,,,,,,,,,,,,,,1,,74,0
35039,note_on,,239,0,17,,,,,,,,,,,,,,,,13,,46,0
35039,note_on,,59,0,15,,,,,,,,,,,,,,,,11,,67,0
35039,note_on,,239,0,13,,,,,,,,,,,,,,,,8,,46,0
35039,note_on,,119,0,16,,,,,,,,,,,,,,,,12,,58,0
35039,note_on,,239,0,18,,,,,,,,,,,,,,,,15,,46,0
35039,note_on,,0,0,18,,,,,,,,,,,,,,,,15,,70,0
35039,note_on,,119,0,12,,,,,,,,,,,,,,,,7,,58,0
35039,note_on,,59,0,11,,,,,,,,,,,,,,,,6,,67,0
35039,note_on,,239,0,7,,,,,,,,,,,,,,,,2,,46,0
35040,note_on,,1,0,6,,,,,,,,,,,,,,,,1,,75,72
35040,note_on,,1,0,12,,,,,,,,,,,,,,,,7,,58,72
35040,note_on,,0,0,18,,,,,,,,,,,,,,,,15,,58,72
35040,note_on,,0,0,18,,,,,,,,,,,,,,,,15,,63,72
35040,note_on,,1,0,10,,,,,,,,,,,,,,,,5,,75,72
35040,note_on,,0,0,18,,,,,,,,,,,,,,,,15,,67,72
35040,note_on,,1,0,18,,,,,,,,,,,,,,,,15,,51,72
35040,note_on,,1,0,17,,,,,,,,,,,,,,,,13,,51,72
35040,note_on,,1,0,16,,,,,,,,,,,,,,,,12,,58,72
35040,note_on,,1,0,13,,,,,,,,,,,,,,,,8,,51,72
35040,note_on,,1,0,15,,,,,,,,,,,,,,,,11,,67,72
35040,note_on,,1,0,14,,,,,,,,,,,,,,,,10,,75,72
35040,note_on,,1,0,7,,,,,,,,,,,,,,,,2,,51,72
35040,note_on,,1,0,11,,,,,,,,,,,,,,,,6,,67,72
35519,note_on,,479,0,18,,,,,,,,,,,,,,,,15,,51,0
35519,note_on,,0,0,18,,,,,,,,,,,,,,,,15,,67,0
35519,note_on,,0,0,18,,,,,,,,,,,,,,,,15,,63,0
35519,end_of_track,,0,1,18,,,,,,,,,,,,,,,,,,,
35519,end_of_track,,0,1,13,,,,,,,,,,,,,,,,,,,
35519,note_on,,479,0,6,,,,,,,,,,,,,,,,1,,75,0
35519,end_of_track,,0,1,6,,,,,,,,,,,,,,,,,,,
35519,note_on,,479,0,7,,,,,,,,,,,,,,,,2,,51,0
35519,end_of_track,,0,1,7,,,,,,,,,,,,,,,,,,,
35519,note_on,,479,0,10,,,,,,,,,,,,,,,,5,,75,0
35519,end_of_track,,0,1,10,,,,,,,,,,,,,,,,,,,
35519,end_of_track,,0,1,17,,,,,,,,,,,,,,,,,,,
35519,note_on,,479,0,17,,,,,,,,,,,,,,,,13,,51,0
35519,note_on,,479,0,13,,,,,,,,,,,,,,,,8,,51,0
35519,note_on,,479,0,11,,,,,,,,,,,,,,,,6,,67,0
35519,end_of_track,,0,1,16,,,,,,,,,,,,,,,,,,,
35519,note_on,,479,0,16,,,,,,,,,,,,,,,,12,,58,0
35519,end_of_track,,0,1,15,,,,,,,,,,,,,,,,,,,
35519,note_on,,479,0,15,,,,,,,,,,,,,,,,11,,67,0
35519,note_on,,0,0,18,,,,,,,,,,,,,,,,15,,58,0
35519,note_on,,479,0,12,,,,,,,,,,,,,,,,7,,58,0
35519,end_of_track,,0,1,12,,,,,,,,,,,,,,,,,,,
35519,end_of_track,,0,1,14,,,,,,,,,,,,,,,,,,,
35519,note_on,,479,0,14,,,,,,,,,,,,,,,,10,,75,0
35519,end_of_track,,0,1,11,,,,,,,,,,,,,,,,,,,
36000,end_of_track,,0,1,0,,,,,,,,,,,,,,,,,,,
36000,set_tempo,,1920,1,0,,,,,,,,,1090909,,,,,,,,,,
