tick,type,data,time,meta,track,frame_rate,hours,minutes,seconds,frames,sub_frames,port,key,tempo,numerator,denominator,clocks_per_click,notated_32nd_notes_per_beat,control,value,channel,program,note,velocity
0,sequencer_specific,"(0, 0, 91, 35, 1, 0, 5, 4, 35, 0)",0,1,0,,,,,,,,,,,,,,,,,,,
0,program_change,,0,0,9,,,,,,,,,,,,,,,,12,48,,
0,control_change,,0,0,9,,,,,,,,,,,,,,7,96,12,,,
0,note_on,,0,0,9,,,,,,,,,,,,,,,,12,,78,64
0,midi_port,,0,1,7,,,,,,,0,,,,,,,,,,,,
0,track_name,,0,1,10,,,,,,,,,,,,,,,,,,,
0,midi_port,,0,1,10,,,,,,,0,,,,,,,,,,,,
0,control_change,,0,0,10,,,,,,,,,,,,,,11,127,13,,,
0,control_change,,0,0,10,,,,,,,,,,,,,,10,96,13,,,
0,program_change,,0,0,10,,,,,,,,,,,,,,,,13,48,,
0,control_change,,0,0,10,,,,,,,,,,,,,,7,96,13,,,
0,note_on,,0,0,10,,,,,,,,,,,,,,,,13,,54,64
0,track_name,,0,1,11,,,,,,,,,,,,,,,,,,,
0,midi_port,,0,1,11,,,,,,,0,,,,,,,,,,,,
0,control_change,,0,0,11,,,,,,,,,,,,,,11,127,15,,,
0,control_change,,0,0,11,,,,,,,,,,,,,,10,90,15,,,
0,program_change,,0,0,11,,,,,,,,,,,,,,,,15,6,,
0,control_change,,0,0,11,,,,,,,,,,,,,,7,96,15,,,
0,control_change,,0,0,9,,,,,,,,,,,,,,10,80,12,,,
0,note_on,,0,0,11,,,,,,,,,,,,,,,,15,,54,64
0,control_change,,0,0,9,,,,,,,,,,,,,,11,127,12,,,
0,track_name,,0,1,9,,,,,,,,,,,,,,,,,,,
0,control_change,,0,0,7,,,,,,,,,,,,,,11,127,10,,,
0,control_change,,0,0,7,,,,,,,,,,,,,,10,48,10,,,
0,program_change,,0,0,7,,,,,,,,,,,,,,,,10,48,,
0,control_change,,0,0,7,,,,,,,,,,,,,,7,96,10,,,
0,note_on,,0,0,7,,,,,,,,,,,,,,,,10,,66,64
0,track_name,,0,1,8,,,,,,,,,,,,,,,,,,,
0,midi_port,,0,1,8,,,,,,,0,,,,,,,,,,,,
0,control_change,,0,0,8,,,,,,,,,,,,,,11,127,11,,,
0,control_change,,0,0,8,,,,,,,,,,,,,,10,24,11,,,
0,program_change,,0,0,8,,,,,,,,,,,,,,,,11,48,,
0,control_change,,0,0,8,,,,,,,,,,,,,,7,96,11,,,
0,note_on,,0,0,8,,,,,,,,,,,,,,,,11,,66,64
0,program_change,,0,0,6,,,,,,,,,,,,,,,,8,60,,
0,control_change,,0,0,6,,,,,,,,,,,,,,10,70,8,,,
0,control_change,,0,0,6,,,,,,,,,,,,,,11,127,8,,,
0,midi_port,,0,1,6,,,,,,,0,,,,,,,,,,,,
0,track_name,,0,1,6,,,,,,,,,,,,,,,,,,,
0,midi_port,,0,1,9,,,,,,,0,,,,,,,,,,,,
0,note_on,,0,0,11,,,,,,,,,,,,,,,,15,,66,64
0,track_name,,0,1,7,,,,,,,,,,,,,,,,,,,
0,control_change,,0,0,5,,,,,,,,,,,,,,11,127,2,,,
0,midi_port,,0,1,4,,,,,,,0,,,,,,,,,,,,
0,end_of_track,,0,1,4,,,,,,,,,,,,,,,,,,,
0,track_name,,0,1,5,,,,,,,,,,,,,,,,,,,
0,midi_port,,0,1,5,,,,,,,0,,,,,,,,,,,,
0,end_of_track,,0,1,3,,,,,,,,,,,,,,,,,,,
0,midi_port,,0,1,3,,,,,,,0,,,,,,,,,,,,
0,track_name,,0,1,3,,,,,,,,,,,,,,,,,,,
0,control_change,,0,0,5,,,,,,,,,,,,,,10,65,2,,,
0,control_change,,0,0,5,,,,,,,,,,,,,,7,96,2,,,
0,program_change,,0,0,5,,,,,,,,,,,,,,,,2,70,,
0,note_on,,0,0,5,,,,,,,,,,,,,,,,2,,54,64
0,end_of_track,,0,1,2,,,,,,,,,,,,,,,,,,,
0,track_name,,0,1,0,,,,,,,,,,,,,,,,,,,
0,instrument_name,,0,1,0,,,,,,,,,,,,,,,,,,,
0,smpte_offset,,0,1,0,25,32,0,3,0,0,,,,,,,,,,,,,
0,midi_port,,0,1,0,,,,,,,0,,,,,,,,,,,,
0,key_signature,,0,1,0,,,,,,,,D,,,,,,,,,,,
0,track_name,,0,1,2,,,,,,,,,,,,,,,,,,,
0,end_of_track,,0,1,1,,,,,,,,,,,,,,,,,,,
0,set_tempo,,0,1,0,,,,,,,,,800000,,,,,,,,,,
0,time_signature,,0,1,0,,,,,,,,,,9,8,12,8,,,,,,
0,track_name,,0,1,1,,,,,,,,,,,,,,,,,,,
0,midi_port,,0,1,1,,,,,,,0,,,,,,,,,,,,
0,midi_port,,0,1,2,,,,,,,0,,,,,,,,,,,,
59,note_on,,59,0,11,,,,,,,,,,,,,,,,15,,54,0
59,note_on,,0,0,11,,,,,,,,,,,,,,,,15,,66,0
59,note_on,,59,0,9,,,,,,,,,,,,,,,,12,,78,0
59,note_on,,59,0,8,,,,,,,,,,,,,,,,11,,66,0
59,note_on,,59,0,5,,,,,,,,,,,,,,,,2,,54,0
59,note_on,,59,0,7,,,,,,,,,,,,,,,,10,,66,0
59,note_on,,59,0,10,,,,,,,,,,,,,,,,13,,54,0
60,note_on,,0,0,11,,,,,,,,,,,,,,,,15,,59,64
60,note_on,,1,0,9,,,,,,,,,,,,,,,,12,,83,64
60,note_on,,1,0,5,,,,,,,,,,,,,,,,2,,59,64
60,note_on,,1,0,7,,,,,,,,,,,,,,,,10,,71,64
60,note_on,,1,0,10,,,,,,,,,,,,,,,,13,,59,64
60,note_on,,1,0,11,,,,,,,,,,,,,,,,15,,71,64
60,note_on,,1,0,8,,,,,,,,,,,,,,,,11,,71,64
119,note_on,,59,0,9,,,,,,,,,,,,,,,,12,,83,0
119,note_on,,59,0,7,,,,,,,,,,,,,,,,10,,71,0
119,note_on,,59,0,10,,,,,,,,,,,,,,,,13,,59,0
119,note_on,,59,0,5,,,,,,,,,,,,,,,,2,,59,0
119,note_on,,59,0,8,,,,,,,,,,,,,,,,11,,71,0
119,note_on,,0,0,11,,,,,,,,,,,,,,,,15,,59,0
119,note_on,,59,0,11,,,,,,,,,,,,,,,,15,,71,0
120,note_on,,1,0,8,,,,,,,,,,,,,,,,11,,70,64
120,note_on,,1,0,9,,,,,,,,,,,,,,,,12,,82,64
120,note_on,,1,0,5,,,,,,,,,,,,,,,,2,,58,64
120,note_on,,0,0,11,,,,,,,,,,,,,,,,15,,70,64
120,note_on,,1,0,11,,,,,,,,,,,,,,,,15,,58,64
120,note_on,,1,0,10,,,,,,,,,,,,,,,,13,,58,64
120,note_on,,1,0,7,,,,,,,,,,,,,,,,10,,70,64
179,note_on,,59,0,9,,,,,,,,,,,,,,,,12,,82,0
179,note_on,,59,0,8,,,,,,,,,,,,,,,,11,,70,0
179,note_on,,59,0,10,,,,,,,,,,,,,,,,13,,58,0
179,note_on,,59,0,7,,,,,,,,,,,,,,,,10,,70,0
179,note_on,,59,0,11,,,,,,,,,,,,,,,,15,,58,0
179,note_on,,0,0,11,,,,,,,,,,,,,,,,15,,70,0
179,note_on,,59,0,5,,,,,,,,,,,,,,,,2,,58,0
180,note_on,,1,0,7,,,,,,,,,,,,,,,,10,,71,64
180,note_on,,1,0,10,,,,,,,,,,,,,,,,13,,59,64
180,note_on,,1,0,9,,,,,,,,,,,,,,,,12,,83,64
180,note_on,,1,0,5,,,,,,,,,,,,,,,,2,,59,64
180,note_on,,1,0,11,,,,,,,,,,,,,,,,15,,71,64
180,note_on,,1,0,8,,,,,,,,,,,,,,,,11,,71,64
180,note_on,,0,0,11,,,,,,,,,,,,,,,,15,,59,64
239,note_on,,59,0,9,,,,,,,,,,,,,,,,12,,83,0
239,note_on,,59,0,8,,,,,,,,,,,,,,,,11,,71,0
239,note_on,,59,0,11,,,,,,,,,,,,,,,,15,,71,0
239,note_on,,0,0,11,,,,,,,,,,,,,,,,15,,59,0
239,note_on,,59,0,10,,,,,,,,,,,,,,,,13,,59,0
239,note_on,,59,0,7,,,,,,,,,,,,,,,,10,,71,0
239,note_on,,59,0,5,,,,,,,,,,,,,,,,2,,59,0
240,note_on,,1,0,10,,,,,,,,,,,,,,,,13,,58,64
240,note_on,,1,0,11,,,,,,,,,,,,,,,,15,,70,64
240,note_on,,0,0,11,,,,,,,,,,,,,,,,15,,58,64
240,note_on,,1,0,7,,,,,,,,,,,,,,,,10,,70,64
240,note_on,,1,0,5,,,,,,,,,,,,,,,,2,,58,64
240,note_on,,1,0,8,,,,,,,,,,,,,,,,11,,70,64
240,note_on,,1,0,9,,,,,,,,,,,,,,,,12,,82,64
299,note_on,,59,0,5,,,,,,,,,,,,,,,,2,,58,0
299,note_on,,59,0,10,,,,,,,,,,,,,,,,13,,58,0
299,note_on,,59,0,7,,,,,,,,,,,,,,,,10,,70,0
299,note_on,,59,0,9,,,,,,,,,,,,,,,,12,,82,0
299,note_on,,0,0,11,,,,,,,,,,,,,,,,15,,58,0
299,note_on,,59,0,8,,,,,,,,,,,,,,,,11,,70,0
299,note_on,,59,0,11,,,,,,,,,,,,,,,,15,,70,0
300,note_on,,1,0,10,,,,,,,,,,,,,,,,13,,59,64
300,note_on,,0,0,11,,,,,,,,,,,,,,,,15,,59,64
300,note_on,,1,0,9,,,,,,,,,,,,,,,,12,,83,64
300,note_on,,1,0,11,,,,,,,,,,,,,,,,15,,71,64
300,note_on,,1,0,5,,,,,,,,,,,,,,,,2,,59,64
300,note_on,,1,0,8,,,,,,,,,,,,,,,,11,,71,64
300,note_on,,1,0,7,,,,,,,,,,,,,,,,10,,71,64
359,note_on,,59,0,11,,,,,,,,,,,,,,,,15,,71,0
359,note_on,,0,0,11,,,,,,,,,,,,,,,,15,,59,0
359,note_on,,59,0,8,,,,,,,,,,,,,,,,11,,71,0
359,note_on,,59,0,9,,,,,,,,,,,,,,,,12,,83,0
359,note_on,,59,0,10,,,,,,,,,,,,,,,,13,,59,0
359,note_on,,59,0,5,,,,,,,,,,,,,,,,2,,59,0
359,note_on,,59,0,7,,,,,,,,,,,,,,,,10,,71,0
360,note_on,,1,0,7,,,,,,,,,,,,,,,,10,,73,64
360,note_on,,1,0,11,,,,,,,,,,,,,,,,15,,73,64
360,note_on,,1,0,10,,,,,,,,,,,,,,,,13,,61,64
360,note_on,,1,0,9,,,,,,,,,,,,,,,,12,,85,64
360,note_on,,1,0,5,,,,,,,,,,,,,,,,2,,61,64
360,note_on,,1,0,8,,,,,,,,,,,,,,,,11,,73,64
360,note_on,,0,0,11,,,,,,,,,,,,,,,,15,,61,64
419,note_on,,59,0,11,,,,,,,,,,,,,,,,15,,73,0
419,note_on,,59,0,5,,,,,,,,,,,,,,,,2,,61,0
419,note_on,,59,0,9,,,,,,,,,,,,,,,,12,,85,0
419,note_on,,59,0,8,,,,,,,,,,,,,,,,11,,73,0
419,note_on,,59,0,7,,,,,,,,,,,,,,,,10,,73,0
419,note_on,,0,0,11,,,,,,,,,,,,,,,,15,,61,0
419,note_on,,59,0,10,,,,,,,,,,,,,,,,13,,61,0
420,note_on,,1,0,10,,,,,,,,,,,,,,,,13,,62,64
420,note_on,,1,0,11,,,,,,,,,,,,,,,,15,,74,64
420,note_on,,0,0,11,,,,,,,,,,,,,,,,15,,62,64
420,note_on,,1,0,5,,,,,,,,,,,,,,,,2,,62,64
420,note_on,,1,0,7,,,,,,,,,,,,,,,,10,,74,64
420,note_on,,1,0,9,,,,,,,,,,,,,,,,12,,86,64
420,note_on,,1,0,8,,,,,,,,,,,,,,,,11,,74,64
479,note_on,,59,0,9,,,,,,,,,,,,,,,,12,,86,0
479,note_on,,59,0,5,,,,,,,,,,,,,,,,2,,62,0
479,note_on,,59,0,8,,,,,,,,,,,,,,,,11,,74,0
479,note_on,,59,0,11,,,,,,,,,,,,,,,,15,,74,0
479,note_on,,0,0,11,,,,,,,,,,,,,,,,15,,62,0
479,note_on,,59,0,10,,,,,,,,,,,,,,,,13,,62,0
479,note_on,,59,0,7,,,,,,,,,,,,,,,,10,,74,0
480,note_on,,1,0,5,,,,,,,,,,,,,,,,2,,58,64
480,note_on,,1,0,11,,,,,,,,,,,,,,,,15,,58,64
480,note_on,,0,0,11,,,,,,,,,,,,,,,,15,,70,64
480,note_on,,1,0,10,,,,,,,,,,,,,,,,13,,58,64
480,note_on,,1,0,8,,,,,,,,,,,,,,,,11,,70,64
480,note_on,,1,0,9,,,,,,,,,,,,,,,,12,,82,64
480,note_on,,1,0,7,,,,,,,,,,,,,,,,10,,70,64
539,note_on,,59,0,7,,,,,,,,,,,,,,,,10,,70,0
539,note_on,,59,0,11,,,,,,,,,,,,,,,,15,,58,0
539,note_on,,0,0,11,,,,,,,,,,,,,,,,15,,70,0
539,note_on,,59,0,5,,,,,,,,,,,,,,,,2,,58,0
539,note_on,,59,0,8,,,,,,,,,,,,,,,,11,,70,0
539,note_on,,59,0,10,,,,,,,,,,,,,,,,13,,58,0
539,note_on,,59,0,9,,,,,,,,,,,,,,,,12,,82,0
540,time_signature,,540,1,0,,,,,,,,,,4,4,24,8,,,,,,
540,note_on,,1,0,8,,,,,,,,,,,,,,,,11,,71,64
540,note_on,,1,0,10,,,,,,,,,,,,,,,,13,,59,64
540,note_on,,1,0,5,,,,,,,,,,,,,,,,2,,59,64
540,note_on,,1,0,9,,,,,,,,,,,,,,,,12,,83,64
540,note_on,,1,0,7,,,,,,,,,,,,,,,,10,,71,64
540,note_on,,1,0,11,,,,,,,,,,,,,,,,15,,71,64
540,note_on,,0,0,11,,,,,,,,,,,,,,,,15,,59,64
599,note_on,,59,0,10,,,,,,,,,,,,,,,,13,,59,0
599,note_on,,59,0,7,,,,,,,,,,,,,,,,10,,71,0
599,note_on,,59,0,5,,,,,,,,,,,,,,,,2,,59,0
599,note_on,,59,0,11,,,,,,,,,,,,,,,,15,,71,0
599,note_on,,0,0,11,,,,,,,,,,,,,,,,15,,59,0
599,note_on,,59,0,9,,,,,,,,,,,,,,,,12,,83,0
599,note_on,,59,0,8,,,,,,,,,,,,,,,,11,,71,0
600,note_on,,1,0,5,,,,,,,,,,,,,,,,2,,55,64
600,note_on,,1,0,11,,,,,,,,,,,,,,,,15,,67,64
600,note_on,,0,0,11,,,,,,,,,,,,,,,,15,,55,64
600,note_on,,1,0,8,,,,,,,,,,,,,,,,11,,67,64
600,note_on,,1,0,7,,,,,,,,,,,,,,,,10,,67,64
600,note_on,,1,0,10,,,,,,,,,,,,,,,,13,,55,64
600,note_on,,1,0,9,,,,,,,,,,,,,,,,12,,79,64
659,note_on,,59,0,9,,,,,,,,,,,,,,,,12,,79,0
659,note_on,,59,0,5,,,,,,,,,,,,,,,,2,,55,0
659,note_on,,59,0,7,,,,,,,,,,,,,,,,10,,67,0
659,note_on,,59,0,11,,,,,,,,,,,,,,,,15,,67,0
659,note_on,,59,0,10,,,,,,,,,,,,,,,,13,,55,0
659,note_on,,59,0,8,,,,,,,,,,,,,,,,11,,67,0
659,note_on,,0,0,11,,,,,,,,,,,,,,,,15,,55,0
660,note_on,,1,0,9,,,,,,,,,,,,,,,,12,,78,64
660,note_on,,1,0,5,,,,,,,,,,,,,,,,2,,54,64
660,note_on,,1,0,7,,,,,,,,,,,,,,,,10,,66,64
660,note_on,,0,0,11,,,,,,,,,,,,,,,,15,,54,64
660,note_on,,1,0,11,,,,,,,,,,,,,,,,15,,66,64
660,note_on,,1,0,8,,,,,,,,,,,,,,,,11,,66,64
660,note_on,,1,0,10,,,,,,,,,,,,,,,,13,,54,64
719,note_on,,59,0,8,,,,,,,,,,,,,,,,11,,66,0
719,note_on,,59,0,10,,,,,,,,,,,,,,,,13,,54,0
719,note_on,,59,0,9,,,,,,,,,,,,,,,,12,,78,0
719,note_on,,59,0,7,,,,,,,,,,,,,,,,10,,66,0
719,note_on,,59,0,5,,,,,,,,,,,,,,,,2,,54,0
719,note_on,,59,0,11,,,,,,,,,,,,,,,,15,,66,0
719,note_on,,0,0,11,,,,,,,,,,,,,,,,15,,54,0
720,note_on,,1,0,9,,,,,,,,,,,,,,,,12,,77,64
720,note_on,,1,0,11,,,,,,,,,,,,,,,,15,,53,64
720,note_on,,0,0,11,,,,,,,,,,,,,,,,15,,65,64
720,note_on,,1,0,5,,,,,,,,,,,,,,,,2,,53,64
720,note_on,,1,0,7,,,,,,,,,,,,,,,,10,,65,64
720,note_on,,1,0,10,,,,,,,,,,,,,,,,13,,53,64
720,note_on,,1,0,8,,,,,,,,,,,,,,,,11,,65,64
779,note_on,,59,0,7,,,,,,,,,,,,,,,,10,,65,0
779,note_on,,0,0,11,,,,,,,,,,,,,,,,15,,65,0
779,note_on,,59,0,9,,,,,,,,,,,,,,,,12,,77,0
779,note_on,,59,0,11,,,,,,,,,,,,,,,,15,,53,0
779,note_on,,59,0,5,,,,,,,,,,,,,,,,2,,53,0
779,note_on,,59,0,10,,,,,,,,,,,,,,,,13,,53,0
779,note_on,,59,0,8,,,,,,,,,,,,,,,,11,,65,0
780,note_on,,0,0,11,,,,,,,,,,,,,,,,15,,54,64
780,note_on,,1,0,11,,,,,,,,,,,,,,,,15,,66,64
780,note_on,,1,0,9,,,,,,,,,,,,,,,,12,,78,64
780,note_on,,1,0,7,,,,,,,,,,,,,,,,10,,66,64
780,note_on,,1,0,10,,,,,,,,,,,,,,,,13,,54,64
780,note_on,,1,0,5,,,,,,,,,,,,,,,,2,,54,64
780,note_on,,1,0,8,,,,,,,,,,,,,,,,11,,66,64
839,note_on,,59,0,10,,,,,,,,,,,,,,,,13,,54,0
839,note_on,,59,0,11,,,,,,,,,,,,,,,,15,,66,0
839,note_on,,59,0,9,,,,,,,,,,,,,,,,12,,78,0
839,note_on,,0,0,11,,,,,,,,,,,,,,,,15,,54,0
839,note_on,,59,0,7,,,,,,,,,,,,,,,,10,,66,0
839,note_on,,59,0,8,,,,,,,,,,,,,,,,11,,66,0
839,note_on,,59,0,5,,,,,,,,,,,,,,,,2,,54,0
840,note_on,,0,0,11,,,,,,,,,,,,,,,,15,,51,64
840,note_on,,1,0,11,,,,,,,,,,,,,,,,15,,63,64
840,note_on,,1,0,10,,,,,,,,,,,,,,,,13,,51,64
840,note_on,,1,0,9,,,,,,,,,,,,,,,,12,,75,64
840,note_on,,1,0,5,,,,,,,,,,,,,,,,2,,51,64
840,note_on,,1,0,8,,,,,,,,,,,,,,,,11,,63,64
840,note_on,,1,0,7,,,,,,,,,,,,,,,,10,,63,64
899,note_on,,59,0,11,,,,,,,,,,,,,,,,15,,63,0
899,note_on,,59,0,9,,,,,,,,,,,,,,,,12,,75,0
899,note_on,,59,0,10,,,,,,,,,,,,,,,,13,,51,0
899,note_on,,0,0,11,,,,,,,,,,,,,,,,15,,51,0
899,note_on,,59,0,8,,,,,,,,,,,,,,,,11,,63,0
899,note_on,,59,0,7,,,,,,,,,,,,,,,,10,,63,0
899,note_on,,59,0,5,,,,,,,,,,,,,,,,2,,51,0
900,note_on,,1,0,5,,,,,,,,,,,,,,,,2,,52,64
900,note_on,,1,0,11,,,,,,,,,,,,,,,,15,,64,64
900,note_on,,0,0,11,,,,,,,,,,,,,,,,15,,52,64
900,note_on,,1,0,8,,,,,,,,,,,,,,,,11,,64,64
900,note_on,,1,0,9,,,,,,,,,,,,,,,,12,,76,64
900,note_on,,1,0,7,,,,,,,,,,,,,,,,10,,64,64
900,note_on,,1,0,10,,,,,,,,,,,,,,,,13,,52,64
959,note_on,,59,0,9,,,,,,,,,,,,,,,,12,,76,0
959,note_on,,59,0,7,,,,,,,,,,,,,,,,10,,64,0
959,note_on,,59,0,5,,,,,,,,,,,,,,,,2,,52,0
959,note_on,,0,0,11,,,,,,,,,,,,,,,,15,,52,0
959,note_on,,59,0,11,,,,,,,,,,,,,,,,15,,64,0
959,note_on,,59,0,8,,,,,,,,,,,,,,,,11,,64,0
959,note_on,,59,0,10,,,,,,,,,,,,,,,,13,,52,0
960,note_on,,1,0,8,,,,,,,,,,,,,,,,11,,61,64
960,note_on,,1,0,9,,,,,,,,,,,,,,,,12,,73,64
960,note_on,,1,0,5,,,,,,,,,,,,,,,,2,,49,64
960,note_on,,1,0,10,,,,,,,,,,,,,,,,13,,49,64
960,note_on,,0,0,11,,,,,,,,,,,,,,,,15,,49,64
960,note_on,,1,0,11,,,,,,,,,,,,,,,,15,,61,64
960,note_on,,1,0,7,,,,,,,,,,,,,,,,10,,61,64
1019,note_on,,59,0,7,,,,,,,,,,,,,,,,10,,61,0
1019,note_on,,59,0,10,,,,,,,,,,,,,,,,13,,49,0
1019,note_on,,59,0,11,,,,,,,,,,,,,,,,15,,61,0
1019,note_on,,0,0,11,,,,,,,,,,,,,,,,15,,49,0
1019,note_on,,59,0,8,,,,,,,,,,,,,,,,11,,61,0
1019,note_on,,59,0,9,,,,,,,,,,,,,,,,12,,73,0
1019,note_on,,59,0,5,,,,,,,,,,,,,,,,2,,49,0
1020,note_on,,1,0,9,,,,,,,,,,,,,,,,12,,74,64
1020,note_on,,1,0,5,,,,,,,,,,,,,,,,2,,50,64
1020,note_on,,1,0,10,,,,,,,,,,,,,,,,13,,50,64
1020,note_on,,1,0,7,,,,,,,,,,,,,,,,10,,62,64
1020,note_on,,0,0,11,,,,,,,,,,,,,,,,15,,62,64
1020,note_on,,1,0,11,,,,,,,,,,,,,,,,15,,50,64
1020,note_on,,1,0,8,,,,,,,,,,,,,,,,11,,62,64
1079,note_on,,59,0,5,,,,,,,,,,,,,,,,2,,50,0
1079,note_on,,59,0,10,,,,,,,,,,,,,,,,13,,50,0
1079,note_on,,59,0,8,,,,,,,,,,,,,,,,11,,62,0
1079,note_on,,59,0,7,,,,,,,,,,,,,,,,10,,62,0
1079,note_on,,0,0,11,,,,,,,,,,,,,,,,15,,62,0
1079,note_on,,59,0,11,,,,,,,,,,,,,,,,15,,50,0
1079,note_on,,59,0,9,,,,,,,,,,,,,,,,12,,74,0
1080,note_on,,1,0,10,,,,,,,,,,,,,,,,13,,47,64
1080,note_on,,1,0,5,,,,,,,,,,,,,,,,2,,47,64
1080,note_on,,1,0,9,,,,,,,,,,,,,,,,12,,71,64
1080,note_on,,1,0,11,,,,,,,,,,,,,,,,15,,59,64
1080,note_on,,0,0,11,,,,,,,,,,,,,,,,15,,47,64
1080,note_on,,1,0,7,,,,,,,,,,,,,,,,10,,59,64
1080,note_on,,1,0,8,,,,,,,,,,,,,,,,11,,59,64
1139,note_on,,59,0,7,,,,,,,,,,,,,,,,10,,59,0
1139,note_on,,59,0,11,,,,,,,,,,,,,,,,15,,59,0
1139,note_on,,0,0,11,,,,,,,,,,,,,,,,15,,47,0
1139,note_on,,59,0,9,,,,,,,,,,,,,,,,12,,71,0
1139,note_on,,59,0,10,,,,,,,,,,,,,,,,13,,47,0
1139,note_on,,59,0,5,,,,,,,,,,,,,,,,2,,47,0
1139,note_on,,59,0,8,,,,,,,,,,,,,,,,11,,59,0
1140,note_on,,1,0,7,,,,,,,,,,,,,,,,10,,58,64
1140,note_on,,1,0,5,,,,,,,,,,,,,,,,2,,46,64
1140,note_on,,1,0,9,,,,,,,,,,,,,,,,12,,70,64
1140,note_on,,0,0,11,,,,,,,,,,,,,,,,15,,46,64
1140,note_on,,1,0,8,,,,,,,,,,,,,,,,11,,58,64
1140,note_on,,1,0,10,,,,,,,,,,,,,,,,13,,46,64
1140,note_on,,1,0,11,,,,,,,,,,,,,,,,15,,58,64
1199,note_on,,59,0,8,,,,,,,,,,,,,,,,11,,58,0
1199,note_on,,0,0,11,,,,,,,,,,,,,,,,15,,46,0
1199,note_on,,59,0,5,,,,,,,,,,,,,,,,2,,46,0
1199,note_on,,59,0,11,,,,,,,,,,,,,,,,15,,58,0
1199,note_on,,59,0,7,,,,,,,,,,,,,,,,10,,58,0
1199,note_on,,59,0,9,,,,,,,,,,,,,,,,12,,70,0
1199,note_on,,59,0,10,,,,,,,,,,,,,,,,13,,46,0
1200,note_on,,1,0,10,,,,,,,,,,,,,,,,13,,47,64
1200,note_on,,1,0,11,,,,,,,,,,,,,,,,15,,59,64
1200,note_on,,1,0,7,,,,,,,,,,,,,,,,10,,59,64
1200,note_on,,0,0,11,,,,,,,,,,,,,,,,15,,47,64
1200,note_on,,1,0,8,,,,,,,,,,,,,,,,11,,59,64
1200,note_on,,1,0,9,,,,,,,,,,,,,,,,12,,71,64
1200,note_on,,1,0,5,,,,,,,,,,,,,,,,2,,47,64
1259,note_on,,59,0,11,,,,,,,,,,,,,,,,15,,59,0
1259,note_on,,0,0,11,,,,,,,,,,,,,,,,15,,47,0
1259,note_on,,59,0,5,,,,,,,,,,,,,,,,2,,47,0
1259,note_on,,59,0,10,,,,,,,,,,,,,,,,13,,47,0
1259,note_on,,59,0,7,,,,,,,,,,,,,,,,10,,59,0
1259,note_on,,59,0,8,,,,,,,,,,,,,,,,11,,59,0
1259,note_on,,59,0,9,,,,,,,,,,,,,,,,12,,71,0
1260,note_on,,1,0,9,,,,,,,,,,,,,,,,12,,79,64
1260,note_on,,1,0,7,,,,,,,,,,,,,,,,10,,67,64
1260,note_on,,0,0,11,,,,,,,,,,,,,,,,15,,67,64
1260,note_on,,1,0,11,,,,,,,,,,,,,,,,15,,55,64
1260,note_on,,1,0,8,,,,,,,,,,,,,,,,11,,67,64
1260,note_on,,1,0,5,,,,,,,,,,,,,,,,2,,55,64
1260,note_on,,1,0,10,,,,,,,,,,,,,,,,13,,55,64
1319,note_on,,59,0,5,,,,,,,,,,,,,,,,2,,55,0
1319,note_on,,59,0,7,,,,,,,,,,,,,,,,10,,67,0
1319,note_on,,59,0,10,,,,,,,,,,,,,,,,13,,55,0
1319,note_on,,59,0,9,,,,,,,,,,,,,,,,12,,79,0
1319,note_on,,59,0,8,,,,,,,,,,,,,,,,11,,67,0
1319,note_on,,59,0,11,,,,,,,,,,,,,,,,15,,55,0
1319,note_on,,0,0,11,,,,,,,,,,,,,,,,15,,67,0
1320,note_on,,1,0,10,,,,,,,,,,,,,,,,13,,52,64
1320,note_on,,1,0,5,,,,,,,,,,,,,,,,2,,52,64
1320,note_on,,1,0,7,,,,,,,,,,,,,,,,10,,64,64
1320,note_on,,1,0,11,,,,,,,,,,,,,,,,15,,52,64
1320,note_on,,0,0,11,,,,,,,,,,,,,,,,15,,64,64
1320,note_on,,1,0,9,,,,,,,,,,,,,,,,12,,76,64
1320,note_on,,1,0,8,,,,,,,,,,,,,,,,11,,64,64
1379,note_on,,59,0,11,,,,,,,,,,,,,,,,15,,52,0
1379,note_on,,59,0,9,,,,,,,,,,,,,,,,12,,76,0
1379,note_on,,0,0,11,,,,,,,,,,,,,,,,15,,64,0
1379,note_on,,59,0,10,,,,,,,,,,,,,,,,13,,52,0
1379,note_on,,59,0,8,,,,,,,,,,,,,,,,11,,64,0
1379,note_on,,59,0,5,,,,,,,,,,,,,,,,2,,52,0
1379,note_on,,59,0,7,,,,,,,,,,,,,,,,10,,64,0
1380,note_on,,1,0,10,,,,,,,,,,,,,,,,13,,58,64
1380,note_on,,1,0,8,,,,,,,,,,,,,,,,11,,70,64
1380,note_on,,1,0,5,,,,,,,,,,,,,,,,2,,58,64
1380,note_on,,0,0,11,,,,,,,,,,,,,,,,15,,58,64
1380,note_on,,1,0,9,,,,,,,,,,,,,,,,12,,82,64
1380,note_on,,1,0,7,,,,,,,,,,,,,,,,10,,70,64
1380,note_on,,1,0,11,,,,,,,,,,,,,,,,15,,70,64
1439,note_on,,59,0,9,,,,,,,,,,,,,,,,12,,82,0
1439,note_on,,59,0,10,,,,,,,,,,,,,,,,13,,58,0
1439,note_on,,59,0,7,,,,,,,,,,,,,,,,10,,70,0
1439,note_on,,59,0,8,,,,,,,,,,,,,,,,11,,70,0
1439,note_on,,59,0,5,,,,,,,,,,,,,,,,2,,58,0
1439,note_on,,59,0,11,,,,,,,,,,,,,,,,15,,70,0
1439,note_on,,0,0,11,,,,,,,,,,,,,,,,15,,58,0
1440,note_on,,1,0,11,,,,,,,,,,,,,,,,15,,59,64
1440,note_on,,0,0,11,,,,,,,,,,,,,,,,15,,71,64
1440,note_on,,1,0,10,,,,,,,,,,,,,,,,13,,59,64
1440,note_on,,1,0,8,,,,,,,,,,,,,,,,11,,71,64
1440,note_on,,1,0,7,,,,,,,,,,,,,,,,10,,71,64
1440,note_on,,1,0,9,,,,,,,,,,,,,,,,12,,83,64
1440,note_on,,1,0,5,,,,,,,,,,,,,,,,2,,59,64
1499,note_on,,59,0,11,,,,,,,,,,,,,,,,15,,59,0
1499,note_on,,59,0,10,,,,,,,,,,,,,,,,13,,59,0
1499,note_on,,59,0,7,,,,,,,,,,,,,,,,10,,71,0
1499,note_on,,59,0,5,,,,,,,,,,,,,,,,2,,59,0
1499,note_on,,59,0,8,,,,,,,,,,,,,,,,11,,71,0
1499,note_on,,59,0,9,,,,,,,,,,,,,,,,12,,83,0
1499,note_on,,0,0,11,,,,,,,,,,,,,,,,15,,71,0
1500,note_on,,1,0,5,,,,,,,,,,,,,,,,2,,54,64
1500,note_on,,1,0,8,,,,,,,,,,,,,,,,11,,66,64
1500,note_on,,1,0,7,,,,,,,,,,,,,,,,10,,66,64
1500,note_on,,1,0,10,,,,,,,,,,,,,,,,13,,54,64
1500,note_on,,1,0,11,,,,,,,,,,,,,,,,15,,66,64
1500,note_on,,0,0,11,,,,,,,,,,,,,,,,15,,54,64
1500,note_on,,1,0,9,,,,,,,,,,,,,,,,12,,78,64
1679,note_on,,179,0,5,,,,,,,,,,,,,,,,2,,54,0
1679,note_on,,179,0,10,,,,,,,,,,,,,,,,13,,54,0
1679,note_on,,179,0,9,,,,,,,,,,,,,,,,12,,78,0
1679,note_on,,179,0,11,,,,,,,,,,,,,,,,15,,66,0
1679,note_on,,179,0,8,,,,,,,,,,,,,,,,11,,66,0
1679,note_on,,0,0,11,,,,,,,,,,,,,,,,15,,54,0
1679,note_on,,179,0,7,,,,,,,,,,,,,,,,10,,66,0
1680,note_on,,1,0,11,,,,,,,,,,,,,,,,15,,66,64
1680,note_on,,1,0,5,,,,,,,,,,,,,,,,2,,54,64
1680,note_on,,1,0,9,,,,,,,,,,,,,,,,12,,78,64
1680,note_on,,0,0,11,,,,,,,,,,,,,,,,15,,54,64
1680,note_on,,1,0,8,,,,,,,,,,,,,,,,11,,66,64
1680,note_on,,1,0,10,,,,,,,,,,,,,,,,13,,54,64
1680,note_on,,1,0,7,,,,,,,,,,,,,,,,10,,66,64
1739,note_on,,59,0,8,,,,,,,,,,,,,,,,11,,66,0
1739,note_on,,59,0,5,,,,,,,,,,,,,,,,2,,54,0
1739,note_on,,59,0,9,,,,,,,,,,,,,,,,12,,78,0
1739,note_on,,59,0,10,,,,,,,,,,,,,,,,13,,54,0
1739,note_on,,59,0,7,,,,,,,,,,,,,,,,10,,66,0
1739,note_on,,59,0,11,,,,,,,,,,,,,,,,15,,66,0
1739,note_on,,0,0,11,,,,,,,,,,,,,,,,15,,54,0
1740,note_on,,1,0,7,,,,,,,,,,,,,,,,10,,59,64
1740,note_on,,1,0,8,,,,,,,,,,,,,,,,11,,59,64
1740,note_on,,1,0,11,,,,,,,,,,,,,,,,15,,47,64
1740,note_on,,0,0,11,,,,,,,,,,,,,,,,15,,59,64
1740,note_on,,1,0,10,,,,,,,,,,,,,,,,13,,47,64
1740,note_on,,1,0,5,,,,,,,,,,,,,,,,2,,47,64
1740,note_on,,1,0,9,,,,,,,,,,,,,,,,12,,71,64
1859,note_on,,119,0,7,,,,,,,,,,,,,,,,10,,59,0
1859,note_on,,119,0,8,,,,,,,,,,,,,,,,11,,59,0
1859,note_on,,119,0,11,,,,,,,,,,,,,,,,15,,47,0
1859,note_on,,119,0,5,,,,,,,,,,,,,,,,2,,47,0
1859,note_on,,119,0,9,,,,,,,,,,,,,,,,12,,71,0
1859,note_on,,0,0,11,,,,,,,,,,,,,,,,15,,59,0
1859,note_on,,119,0,10,,,,,,,,,,,,,,,,13,,47,0
1920,note_on,,0,0,11,,,,,,,,,,,,,,,,15,,54,48
1920,note_on,,61,0,7,,,,,,,,,,,,,,,,10,,66,48
1920,note_on,,61,0,5,,,,,,,,,,,,,,,,2,,54,48
1920,note_on,,61,0,10,,,,,,,,,,,,,,,,13,,54,48
1920,control_change,,1920,0,6,,,,,,,,,,,,,,7,96,8,,,
1920,note_on,,0,0,6,,,,,,,,,,,,,,,,8,,54,74
1920,note_on,,61,0,11,,,,,,,,,,,,,,,,15,,66,48
1920,note_on,,61,0,8,,,,,,,,,,,,,,,,11,,66,48
1920,note_on,,61,0,9,,,,,,,,,,,,,,,,12,,78,48
1979,note_on,,59,0,7,,,,,,,,,,,,,,,,10,,66,0
1979,note_on,,59,0,6,,,,,,,,,,,,,,,,8,,54,0
1979,note_on,,59,0,8,,,,,,,,,,,,,,,,11,,66,0
1979,note_on,,0,0,11,,,,,,,,,,,,,,,,15,,54,0
1979,note_on,,59,0,10,,,,,,,,,,,,,,,,13,,54,0
1979,note_on,,59,0,11,,,,,,,,,,,,,,,,15,,66,0
1979,note_on,,59,0,9,,,,,,,,,,,,,,,,12,,78,0
1979,note_on,,59,0,5,,,,,,,,,,,,,,,,2,,54,0
1980,note_on,,1,0,9,,,,,,,,,,,,,,,,12,,83,48
1980,note_on,,1,0,6,,,,,,,,,,,,,,,,8,,59,68
1980,note_on,,1,0,5,,,,,,,,,,,,,,,,2,,59,48
1980,note_on,,1,0,10,,,,,,,,,,,,,,,,13,,59,48
1980,note_on,,1,0,7,,,,,,,,,,,,,,,,10,,71,48
1980,note_on,,1,0,11,,,,,,,,,,,,,,,,15,,71,48
1980,note_on,,1,0,8,,,,,,,,,,,,,,,,11,,71,48
1980,note_on,,0,0,11,,,,,,,,,,,,,,,,15,,59,48
2039,note_on,,59,0,5,,,,,,,,,,,,,,,,2,,59,0
2039,note_on,,59,0,10,,,,,,,,,,,,,,,,13,,59,0
2039,note_on,,59,0,6,,,,,,,,,,,,,,,,8,,59,0
2039,note_on,,59,0,7,,,,,,,,,,,,,,,,10,,71,0
2039,note_on,,59,0,9,,,,,,,,,,,,,,,,12,,83,0
2039,note_on,,59,0,11,,,,,,,,,,,,,,,,15,,71,0
2039,note_on,,59,0,8,,,,,,,,,,,,,,,,11,,71,0
2039,note_on,,0,0,11,,,,,,,,,,,,,,,,15,,59,0
2040,note_on,,1,0,6,,,,,,,,,,,,,,,,8,,58,74
2040,note_on,,1,0,7,,,,,,,,,,,,,,,,10,,70,48
2040,note_on,,1,0,10,,,,,,,,,,,,,,,,13,,58,48
2040,note_on,,1,0,8,,,,,,,,,,,,,,,,11,,70,48
2040,note_on,,1,0,11,,,,,,,,,,,,,,,,15,,58,48
2040,note_on,,1,0,9,,,,,,,,,,,,,,,,12,,82,48
2040,note_on,,1,0,5,,,,,,,,,,,,,,,,2,,58,48
2040,note_on,,0,0,11,,,,,,,,,,,,,,,,15,,70,48
2099,note_on,,59,0,5,,,,,,,,,,,,,,,,2,,58,0
2099,note_on,,59,0,10,,,,,,,,,,,,,,,,13,,58,0
2099,note_on,,59,0,6,,,,,,,,,,,,,,,,8,,58,0
2099,note_on,,59,0,7,,,,,,,,,,,,,,,,10,,70,0
2099,note_on,,59,0,8,,,,,,,,,,,,,,,,11,,70,0
2099,note_on,,59,0,9,,,,,,,,,,,,,,,,12,,82,0
2099,note_on,,0,0,11,,,,,,,,,,,,,,,,15,,70,0
2099,note_on,,59,0,11,,,,,,,,,,,,,,,,15,,58,0
2100,note_on,,1,0,5,,,,,,,,,,,,,,,,2,,59,48
2100,note_on,,1,0,8,,,,,,,,,,,,,,,,11,,71,48
2100,note_on,,1,0,10,,,,,,,,,,,,,,,,13,,59,48
2100,note_on,,1,0,7,,,,,,,,,,,,,,,,10,,71,48
2100,note_on,,1,0,9,,,,,,,,,,,,,,,,12,,83,48
2100,note_on,,0,0,11,,,,,,,,,,,,,,,,15,,59,48
2100,note_on,,1,0,6,,,,,,,,,,,,,,,,8,,59,73
2100,note_on,,1,0,11,,,,,,,,,,,,,,,,15,,71,48
2159,note_on,,59,0,6,,,,,,,,,,,,,,,,8,,59,0
2159,note_on,,59,0,5,,,,,,,,,,,,,,,,2,,59,0
2159,note_on,,59,0,8,,,,,,,,,,,,,,,,11,,71,0
2159,note_on,,59,0,9,,,,,,,,,,,,,,,,12,,83,0
2159,note_on,,59,0,10,,,,,,,,,,,,,,,,13,,59,0
2159,note_on,,59,0,7,,,,,,,,,,,,,,,,10,,71,0
2159,note_on,,59,0,11,,,,,,,,,,,,,,,,15,,71,0
2159,note_on,,0,0,11,,,,,,,,,,,,,,,,15,,59,0
2160,note_on,,1,0,11,,,,,,,,,,,,,,,,15,,70,48
2160,note_on,,1,0,10,,,,,,,,,,,,,,,,13,,58,48
2160,note_on,,0,0,11,,,,,,,,,,,,,,,,15,,58,48
2160,note_on,,1,0,6,,,,,,,,,,,,,,,,8,,58,75
2160,note_on,,1,0,7,,,,,,,,,,,,,,,,10,,70,48
2160,note_on,,1,0,8,,,,,,,,,,,,,,,,11,,70,48
2160,note_on,,1,0,5,,,,,,,,,,,,,,,,2,,58,48
2160,note_on,,1,0,9,,,,,,,,,,,,,,,,12,,82,48
2219,note_on,,59,0,7,,,,,,,,,,,,,,,,10,,70,0
2219,note_on,,59,0,8,,,,,,,,,,,,,,,,11,,70,0
2219,note_on,,59,0,10,,,,,,,,,,,,,,,,13,,58,0
2219,note_on,,59,0,6,,,,,,,,,,,,,,,,8,,58,0
2219,note_on,,0,0,11,,,,,,,,,,,,,,,,15,,58,0
2219,note_on,,59,0,9,,,,,,,,,,,,,,,,12,,82,0
2219,note_on,,59,0,5,,,,,,,,,,,,,,,,2,,58,0
2219,note_on,,59,0,11,,,,,,,,,,,,,,,,15,,70,0
2220,note_on,,1,0,9,,,,,,,,,,,,,,,,12,,83,48
2220,note_on,,1,0,5,,,,,,,,,,,,,,,,2,,59,48
2220,note_on,,1,0,6,,,,,,,,,,,,,,,,8,,59,69
2220,note_on,,1,0,10,,,,,,,,,,,,,,,,13,,59,48
2220,note_on,,1,0,11,,,,,,,,,,,,,,,,15,,59,48
2220,note_on,,1,0,7,,,,,,,,,,,,,,,,10,,71,48
2220,note_on,,0,0,11,,,,,,,,,,,,,,,,15,,71,48
2220,note_on,,1,0,8,,,,,,,,,,,,,,,,11,,71,48
2279,note_on,,59,0,6,,,,,,,,,,,,,,,,8,,59,0
2279,note_on,,59,0,11,,,,,,,,,,,,,,,,15,,59,0
2279,note_on,,0,0,11,,,,,,,,,,,,,,,,15,,71,0
2279,note_on,,59,0,8,,,,,,,,,,,,,,,,11,,71,0
2279,note_on,,59,0,7,,,,,,,,,,,,,,,,10,,71,0
2279,note_on,,59,0,9,,,,,,,,,,,,,,,,12,,83,0
2279,note_on,,59,0,5,,,,,,,,,,,,,,,,2,,59,0
2279,note_on,,59,0,10,,,,,,,,,,,,,,,,13,,59,0
2280,note_on,,0,0,11,,,,,,,,,,,,,,,,15,,61,48
2280,note_on,,1,0,6,,,,,,,,,,,,,,,,8,,61,69
2280,note_on,,1,0,9,,,,,,,,,,,,,,,,12,,85,48
2280,note_on,,1,0,5,,,,,,,,,,,,,,,,2,,61,48
2280,note_on,,1,0,8,,,,,,,,,,,,,,,,11,,73,48
2280,note_on,,1,0,10,,,,,,,,,,,,,,,,13,,61,48
2280,note_on,,1,0,7,,,,,,,,,,,,,,,,10,,73,48
2280,note_on,,1,0,11,,,,,,,,,,,,,,,,15,,73,48
2339,note_on,,59,0,5,,,,,,,,,,,,,,,,2,,61,0
2339,note_on,,59,0,9,,,,,,,,,,,,,,,,12,,85,0
2339,note_on,,59,0,11,,,,,,,,,,,,,,,,15,,73,0
2339,note_on,,59,0,10,,,,,,,,,,,,,,,,13,,61,0
2339,note_on,,0,0,11,,,,,,,,,,,,,,,,15,,61,0
2339,note_on,,59,0,7,,,,,,,,,,,,,,,,10,,73,0
2339,note_on,,59,0,8,,,,,,,,,,,,,,,,11,,73,0
2339,note_on,,59,0,6,,,,,,,,,,,,,,,,8,,61,0
2340,note_on,,1,0,10,,,,,,,,,,,,,,,,13,,62,48
2340,note_on,,1,0,7,,,,,,,,,,,,,,,,10,,74,48
2340,note_on,,0,0,11,,,,,,,,,,,,,,,,15,,74,48
2340,note_on,,1,0,8,,,,,,,,,,,,,,,,11,,74,48
2340,note_on,,1,0,5,,,,,,,,,,,,,,,,2,,62,48
2340,note_on,,1,0,9,,,,,,,,,,,,,,,,12,,86,48
2340,note_on,,1,0,11,,,,,,,,,,,,,,,,15,,62,48
2340,note_on,,1,0,6,,,,,,,,,,,,,,,,8,,62,75
2399,note_on,,0,0,11,,,,,,,,,,,,,,,,15,,74,0
2399,note_on,,59,0,5,,,,,,,,,,,,,,,,2,,62,0
2399,note_on,,59,0,7,,,,,,,,,,,,,,,,10,,74,0
2399,note_on,,59,0,9,,,,,,,,,,,,,,,,12,,86,0
2399,note_on,,59,0,8,,,,,,,,,,,,,,,,11,,74,0
2399,note_on,,59,0,11,,,,,,,,,,,,,,,,15,,62,0
2399,note_on,,59,0,10,,,,,,,,,,,,,,,,13,,62,0
2399,note_on,,59,0,6,,,,,,,,,,,,,,,,8,,62,0
2400,note_on,,1,0,5,,,,,,,,,,,,,,,,2,,58,48
2400,note_on,,1,0,11,,,,,,,,,,,,,,,,15,,70,48
2400,note_on,,0,0,11,,,,,,,,,,,,,,,,15,,58,48
2400,note_on,,1,0,6,,,,,,,,,,,,,,,,8,,58,75
2400,note_on,,1,0,10,,,,,,,,,,,,,,,,13,,58,48
2400,note_on,,1,0,7,,,,,,,,,,,,,,,,10,,70,48
2400,note_on,,1,0,9,,,,,,,,,,,,,,,,12,,82,48
2400,note_on,,1,0,8,,,,,,,,,,,,,,,,11,,70,48
2459,note_on,,59,0,9,,,,,,,,,,,,,,,,12,,82,0
2459,note_on,,59,0,7,,,,,,,,,,,,,,,,10,,70,0
2459,note_on,,59,0,8,,,,,,,,,,,,,,,,11,,70,0
2459,note_on,,59,0,6,,,,,,,,,,,,,,,,8,,58,0
2459,note_on,,59,0,10,,,,,,,,,,,,,,,,13,,58,0
2459,note_on,,59,0,5,,,,,,,,,,,,,,,,2,,58,0
2459,note_on,,59,0,11,,,,,,,,,,,,,,,,15,,70,0
2459,note_on,,0,0,11,,,,,,,,,,,,,,,,15,,58,0
2460,note_on,,1,0,6,,,,,,,,,,,,,,,,8,,59,72
2460,note_on,,1,0,11,,,,,,,,,,,,,,,,15,,59,48
2460,note_on,,1,0,8,,,,,,,,,,,,,,,,11,,71,48
2460,note_on,,1,0,5,,,,,,,,,,,,,,,,2,,59,48
2460,note_on,,1,0,7,,,,,,,,,,,,,,,,10,,71,48
2460,note_on,,0,0,11,,,,,,,,,,,,,,,,15,,71,48
2460,note_on,,1,0,9,,,,,,,,,,,,,,,,12,,83,48
2460,note_on,,1,0,10,,,,,,,,,,,,,,,,13,,59,48
2519,note_on,,59,0,6,,,,,,,,,,,,,,,,8,,59,0
2519,note_on,,59,0,11,,,,,,,,,,,,,,,,15,,59,0
2519,note_on,,59,0,9,,,,,,,,,,,,,,,,12,,83,0
2519,note_on,,59,0,8,,,,,,,,,,,,,,,,11,,71,0
2519,note_on,,59,0,10,,,,,,,,,,,,,,,,13,,59,0
2519,note_on,,59,0,7,,,,,,,,,,,,,,,,10,,71,0
2519,note_on,,0,0,11,,,,,,,,,,,,,,,,15,,71,0
2519,note_on,,59,0,5,,,,,,,,,,,,,,,,2,,59,0
2520,note_on,,1,0,7,,,,,,,,,,,,,,,,10,,67,48
2520,note_on,,1,0,10,,,,,,,,,,,,,,,,13,,55,48
2520,note_on,,1,0,9,,,,,,,,,,,,,,,,12,,79,48
2520,note_on,,1,0,11,,,,,,,,,,,,,,,,15,,55,48
2520,note_on,,0,0,11,,,,,,,,,,,,,,,,15,,67,48
2520,note_on,,1,0,8,,,,,,,,,,,,,,,,11,,67,48
2520,note_on,,1,0,6,,,,,,,,,,,,,,,,8,,55,69
2520,note_on,,1,0,5,,,,,,,,,,,,,,,,2,,55,48
2579,note_on,,59,0,10,,,,,,,,,,,,,,,,13,,55,0
2579,note_on,,59,0,5,,,,,,,,,,,,,,,,2,,55,0
2579,note_on,,59,0,8,,,,,,,,,,,,,,,,11,,67,0
2579,note_on,,59,0,6,,,,,,,,,,,,,,,,8,,55,0
2579,note_on,,59,0,7,,,,,,,,,,,,,,,,10,,67,0
2579,note_on,,59,0,11,,,,,,,,,,,,,,,,15,,55,0
2579,note_on,,0,0,11,,,,,,,,,,,,,,,,15,,67,0
2579,note_on,,59,0,9,,,,,,,,,,,,,,,,12,,79,0
2580,note_on,,1,0,5,,,,,,,,,,,,,,,,2,,54,48
2580,note_on,,1,0,7,,,,,,,,,,,,,,,,10,,66,48
2580,note_on,,1,0,10,,,,,,,,,,,,,,,,13,,54,48
2580,note_on,,1,0,8,,,,,,,,,,,,,,,,11,,66,48
2580,note_on,,1,0,6,,,,,,,,,,,,,,,,8,,54,74
2580,note_on,,0,0,11,,,,,,,,,,,,,,,,15,,54,48
2580,note_on,,1,0,11,,,,,,,,,,,,,,,,15,,66,48
2580,note_on,,1,0,9,,,,,,,,,,,,,,,,12,,78,48
2639,note_on,,59,0,7,,,,,,,,,,,,,,,,10,,66,0
2639,note_on,,59,0,9,,,,,,,,,,,,,,,,12,,78,0
2639,note_on,,59,0,10,,,,,,,,,,,,,,,,13,,54,0
2639,note_on,,59,0,5,,,,,,,,,,,,,,,,2,,54,0
2639,note_on,,59,0,8,,,,,,,,,,,,,,,,11,,66,0
2639,note_on,,59,0,6,,,,,,,,,,,,,,,,8,,54,0
2639,note_on,,0,0,11,,,,,,,,,,,,,,,,15,,54,0
2639,note_on,,59,0,11,,,,,,,,,,,,,,,,15,,66,0
2640,note_on,,1,0,11,,,,,,,,,,,,,,,,15,,65,48
2640,note_on,,0,0,11,,,,,,,,,,,,,,,,15,,53,48
2640,note_on,,1,0,7,,,,,,,,,,,,,,,,10,,65,48
2640,note_on,,1,0,5,,,,,,,,,,,,,,,,2,,53,48
2640,note_on,,1,0,10,,,,,,,,,,,,,,,,13,,53,48
2640,note_on,,1,0,8,,,,,,,,,,,,,,,,11,,65,48
2640,note_on,,1,0,6,,,,,,,,,,,,,,,,8,,53,69
2640,note_on,,1,0,9,,,,,,,,,,,,,,,,12,,77,48
2699,note_on,,59,0,11,,,,,,,,,,,,,,,,15,,65,0
2699,note_on,,0,0,11,,,,,,,,,,,,,,,,15,,53,0
2699,note_on,,59,0,9,,,,,,,,,,,,,,,,12,,77,0
2699,note_on,,59,0,6,,,,,,,,,,,,,,,,8,,53,0
2699,note_on,,59,0,8,,,,,,,,,,,,,,,,11,,65,0
2699,note_on,,59,0,5,,,,,,,,,,,,,,,,2,,53,0
2699,note_on,,59,0,10,,,,,,,,,,,,,,,,13,,53,0
2699,note_on,,59,0,7,,,,,,,,,,,,,,,,10,,65,0
2700,note_on,,1,0,10,,,,,,,,,,,,,,,,13,,54,48
2700,note_on,,1,0,5,,,,,,,,,,,,,,,,2,,54,48
2700,note_on,,1,0,11,,,,,,,,,,,,,,,,15,,54,48
2700,note_on,,0,0,11,,,,,,,,,,,,,,,,15,,66,48
2700,note_on,,1,0,6,,,,,,,,,,,,,,,,8,,54,74
2700,note_on,,1,0,9,,,,,,,,,,,,,,,,12,,78,48
2700,note_on,,1,0,7,,,,,,,,,,,,,,,,10,,66,48
2700,note_on,,1,0,8,,,,,,,,,,,,,,,,11,,66,48
2759,note_on,,59,0,6,,,,,,,,,,,,,,,,8,,54,0
2759,note_on,,59,0,10,,,,,,,,,,,,,,,,13,,54,0
2759,note_on,,59,0,9,,,,,,,,,,,,,,,,12,,78,0
2759,note_on,,0,0,11,,,,,,,,,,,,,,,,15,,66,0
2759,note_on,,59,0,11,,,,,,,,,,,,,,,,15,,54,0
2759,note_on,,59,0,5,,,,,,,,,,,,,,,,2,,54,0
2759,note_on,,59,0,7,,,,,,,,,,,,,,,,10,,66,0
2759,note_on,,59,0,8,,,,,,,,,,,,,,,,11,,66,0
2760,note_on,,1,0,8,,,,,,,,,,,,,,,,11,,63,48
2760,note_on,,1,0,6,,,,,,,,,,,,,,,,8,,51,69
2760,note_on,,1,0,7,,,,,,,,,,,,,,,,10,,63,48
2760,note_on,,0,0,11,,,,,,,,,,,,,,,,15,,51,48
2760,note_on,,1,0,11,,,,,,,,,,,,,,,,15,,63,48
2760,note_on,,1,0,5,,,,,,,,,,,,,,,,2,,51,48
2760,note_on,,1,0,9,,,,,,,,,,,,,,,,12,,75,48
2760,note_on,,1,0,10,,,,,,,,,,,,,,,,13,,51,48
2819,note_on,,59,0,6,,,,,,,,,,,,,,,,8,,51,0
2819,note_on,,59,0,10,,,,,,,,,,,,,,,,13,,51,0
2819,note_on,,59,0,5,,,,,,,,,,,,,,,,2,,51,0
2819,note_on,,59,0,8,,,,,,,,,,,,,,,,11,,63,0
2819,note_on,,59,0,9,,,,,,,,,,,,,,,,12,,75,0
2819,note_on,,0,0,11,,,,,,,,,,,,,,,,15,,51,0
2819,note_on,,59,0,11,,,,,,,,,,,,,,,,15,,63,0
2819,note_on,,59,0,7,,,,,,,,,,,,,,,,10,,63,0
2820,note_on,,1,0,6,,,,,,,,,,,,,,,,8,,52,71
2820,note_on,,1,0,5,,,,,,,,,,,,,,,,2,,52,48
2820,note_on,,1,0,8,,,,,,,,,,,,,,,,11,,64,48
2820,note_on,,0,0,11,,,,,,,,,,,,,,,,15,,64,48
2820,note_on,,1,0,11,,,,,,,,,,,,,,,,15,,52,48
2820,note_on,,1,0,10,,,,,,,,,,,,,,,,13,,52,48
2820,note_on,,1,0,9,,,,,,,,,,,,,,,,12,,76,48
2820,note_on,,1,0,7,,,,,,,,,,,,,,,,10,,64,48
2879,note_on,,59,0,6,,,,,,,,,,,,,,,,8,,52,0
2879,note_on,,59,0,10,,,,,,,,,,,,,,,,13,,52,0
2879,note_on,,0,0,11,,,,,,,,,,,,,,,,15,,64,0
2879,note_on,,59,0,11,,,,,,,,,,,,,,,,15,,52,0
2879,note_on,,59,0,7,,,,,,,,,,,,,,,,10,,64,0
2879,note_on,,59,0,5,,,,,,,,,,,,,,,,2,,52,0
2879,note_on,,59,0,8,,,,,,,,,,,,,,,,11,,64,0
2879,note_on,,59,0,9,,,,,,,,,,,,,,,,12,,76,0
2880,note_on,,1,0,7,,,,,,,,,,,,,,,,10,,61,48
2880,note_on,,1,0,5,,,,,,,,,,,,,,,,2,,49,48
2880,note_on,,1,0,9,,,,,,,,,,,,,,,,12,,73,48
2880,note_on,,1,0,11,,,,,,,,,,,,,,,,15,,61,48
2880,note_on,,0,0,11,,,,,,,,,,,,,,,,15,,49,48
2880,note_on,,1,0,10,,,,,,,,,,,,,,,,13,,49,48
2880,note_on,,1,0,6,,,,,,,,,,,,,,,,8,,49,71
2880,note_on,,1,0,8,,,,,,,,,,,,,,,,11,,61,48
2939,note_on,,59,0,11,,,,,,,,,,,,,,,,15,,61,0
2939,note_on,,59,0,10,,,,,,,,,,,,,,,,13,,49,0
2939,note_on,,59,0,7,,,,,,,,,,,,,,,,10,,61,0
2939,note_on,,59,0,5,,,,,,,,,,,,,,,,2,,49,0
2939,note_on,,59,0,9,,,,,,,,,,,,,,,,12,,73,0
2939,note_on,,59,0,8,,,,,,,,,,,,,,,,11,,61,0
2939,note_on,,59,0,6,,,,,,,,,,,,,,,,8,,49,0
2939,note_on,,0,0,11,,,,,,,,,,,,,,,,15,,49,0
2940,note_on,,1,0,6,,,,,,,,,,,,,,,,8,,50,71
2940,note_on,,1,0,5,,,,,,,,,,,,,,,,2,,50,48
2940,note_on,,1,0,7,,,,,,,,,,,,,,,,10,,62,48
2940,note_on,,0,0,11,,,,,,,,,,,,,,,,15,,50,48
2940,note_on,,1,0,9,,,,,,,,,,,,,,,,12,,74,48
2940,note_on,,1,0,10,,,,,,,,,,,,,,,,13,,50,48
2940,note_on,,1,0,8,,,,,,,,,,,,,,,,11,,62,48
2940,note_on,,1,0,11,,,,,,,,,,,,,,,,15,,62,48
2999,note_on,,59,0,7,,,,,,,,,,,,,,,,10,,62,0
2999,note_on,,59,0,8,,,,,,,,,,,,,,,,11,,62,0
2999,note_on,,59,0,11,,,,,,,,,,,,,,,,15,,62,0
2999,note_on,,0,0,11,,,,,,,,,,,,,,,,15,,50,0
2999,note_on,,59,0,5,,,,,,,,,,,,,,,,2,,50,0
2999,note_on,,59,0,10,,,,,,,,,,,,,,,,13,,50,0
2999,note_on,,59,0,6,,,,,,,,,,,,,,,,8,,50,0
2999,note_on,,59,0,9,,,,,,,,,,,,,,,,12,,74,0
3000,note_on,,1,0,9,,,,,,,,,,,,,,,,12,,71,48
3000,note_on,,1,0,11,,,,,,,,,,,,,,,,15,,47,48
3000,note_on,,1,0,10,,,,,,,,,,,,,,,,13,,47,48
3000,note_on,,0,0,11,,,,,,,,,,,,,,,,15,,59,48
3000,note_on,,1,0,7,,,,,,,,,,,,,,,,10,,59,48
3000,note_on,,1,0,8,,,,,,,,,,,,,,,,11,,59,48
3000,note_on,,1,0,6,,,,,,,,,,,,,,,,8,,47,74
3000,note_on,,1,0,5,,,,,,,,,,,,,,,,2,,47,48
3059,note_on,,59,0,10,,,,,,,,,,,,,,,,13,,47,0
3059,note_on,,59,0,6,,,,,,,,,,,,,,,,8,,47,0
3059,note_on,,59,0,7,,,,,,,,,,,,,,,,10,,59,0
3059,note_on,,59,0,8,,,,,,,,,,,,,,,,11,,59,0
3059,note_on,,59,0,5,,,,,,,,,,,,,,,,2,,47,0
3059,note_on,,59,0,9,,,,,,,,,,,,,,,,12,,71,0
3059,note_on,,59,0,11,,,,,,,,,,,,,,,,15,,47,0
3059,note_on,,0,0,11,,,,,,,,,,,,,,,,15,,59,0
3060,note_on,,1,0,5,,,,,,,,,,,,,,,,2,,46,48
3060,note_on,,1,0,10,,,,,,,,,,,,,,,,13,,46,48
3060,note_on,,1,0,9,,,,,,,,,,,,,,,,12,,70,48
3060,note_on,,1,0,8,,,,,,,,,,,,,,,,11,,58,48
3060,note_on,,1,0,7,,,,,,,,,,,,,,,,10,,58,48
3060,note_on,,1,0,6,,,,,,,,,,,,,,,,8,,46,71
3060,note_on,,0,0,11,,,,,,,,,,,,,,,,15,,58,48
3060,note_on,,1,0,11,,,,,,,,,,,,,,,,15,,46,48
3119,note_on,,59,0,11,,,,,,,,,,,,,,,,15,,46,0
3119,note_on,,59,0,8,,,,,,,,,,,,,,,,11,,58,0
3119,note_on,,59,0,6,,,,,,,,,,,,,,,,8,,46,0
3119,note_on,,59,0,7,,,,,,,,,,,,,,,,10,,58,0
3119,note_on,,59,0,9,,,,,,,,,,,,,,,,12,,70,0
3119,note_on,,59,0,10,,,,,,,,,,,,,,,,13,,46,0
3119,note_on,,59,0,5,,,,,,,,,,,,,,,,2,,46,0
3119,note_on,,0,0,11,,,,,,,,,,,,,,,,15,,58,0
3120,note_on,,1,0,8,,,,,,,,,,,,,,,,11,,59,48
3120,note_on,,1,0,11,,,,,,,,,,,,,,,,15,,47,48
3120,note_on,,1,0,10,,,,,,,,,,,,,,,,13,,47,48
3120,note_on,,1,0,6,,,,,,,,,,,,,,,,8,,47,70
3120,note_on,,1,0,5,,,,,,,,,,,,,,,,2,,47,48
3120,note_on,,1,0,7,,,,,,,,,,,,,,,,10,,59,48
3120,note_on,,1,0,9,,,,,,,,,,,,,,,,12,,71,48
3120,note_on,,0,0,11,,,,,,,,,,,,,,,,15,,59,48
3179,note_on,,59,0,6,,,,,,,,,,,,,,,,8,,47,0
3179,note_on,,59,0,8,,,,,,,,,,,,,,,,11,,59,0
3179,note_on,,59,0,9,,,,,,,,,,,,,,,,12,,71,0
3179,note_on,,0,0,11,,,,,,,,,,,,,,,,15,,59,0
3179,note_on,,59,0,5,,,,,,,,,,,,,,,,2,,47,0
3179,note_on,,59,0,10,,,,,,,,,,,,,,,,13,,47,0
3179,note_on,,59,0,7,,,,,,,,,,,,,,,,10,,59,0
3179,note_on,,59,0,11,,,,,,,,,,,,,,,,15,,47,0
3180,note_on,,1,0,7,,,,,,,,,,,,,,,,10,,64,48
3180,note_on,,1,0,6,,,,,,,,,,,,,,,,8,,52,71
3180,note_on,,1,0,10,,,,,,,,,,,,,,,,13,,52,48
3180,note_on,,1,0,9,,,,,,,,,,,,,,,,12,,76,48
3180,note_on,,0,0,11,,,,,,,,,,,,,,,,15,,52,48
3180,note_on,,1,0,8,,,,,,,,,,,,,,,,11,,64,48
3180,note_on,,1,0,5,,,,,,,,,,,,,,,,2,,52,48
3180,note_on,,1,0,11,,,,,,,,,,,,,,,,15,,64,48
3239,note_on,,59,0,9,,,,,,,,,,,,,,,,12,,76,0
3239,note_on,,59,0,10,,,,,,,,,,,,,,,,13,,52,0
3239,note_on,,59,0,8,,,,,,,,,,,,,,,,11,,64,0
3239,note_on,,59,0,6,,,,,,,,,,,,,,,,8,,52,0
3239,note_on,,59,0,11,,,,,,,,,,,,,,,,15,,64,0
3239,note_on,,0,0,11,,,,,,,,,,,,,,,,15,,52,0
3239,note_on,,59,0,7,,,,,,,,,,,,,,,,10,,64,0
3239,note_on,,59,0,5,,,,,,,,,,,,,,,,2,,52,0
3240,note_on,,1,0,7,,,,,,,,,,,,,,,,10,,62,48
3240,note_on,,1,0,9,,,,,,,,,,,,,,,,12,,74,48
3240,note_on,,1,0,8,,,,,,,,,,,,,,,,11,,62,48
3240,note_on,,1,0,5,,,,,,,,,,,,,,,,2,,50,48
3240,note_on,,0,0,11,,,,,,,,,,,,,,,,15,,50,48
3240,note_on,,1,0,10,,,,,,,,,,,,,,,,13,,50,48
3240,note_on,,1,0,11,,,,,,,,,,,,,,,,15,,62,48
3240,note_on,,1,0,6,,,,,,,,,,,,,,,,8,,50,69
3299,note_on,,59,0,11,,,,,,,,,,,,,,,,15,,62,0
3299,note_on,,59,0,8,,,,,,,,,,,,,,,,11,,62,0
3299,note_on,,59,0,10,,,,,,,,,,,,,,,,13,,50,0
3299,note_on,,59,0,6,,,,,,,,,,,,,,,,8,,50,0
3299,note_on,,0,0,11,,,,,,,,,,,,,,,,15,,50,0
3299,note_on,,59,0,7,,,,,,,,,,,,,,,,10,,62,0
3299,note_on,,59,0,5,,,,,,,,,,,,,,,,2,,50,0
3299,note_on,,59,0,9,,,,,,,,,,,,,,,,12,,74,0
3300,note_on,,1,0,6,,,,,,,,,,,,,,,,8,,55,72
3300,note_on,,1,0,7,,,,,,,,,,,,,,,,10,,67,48
3300,note_on,,1,0,10,,,,,,,,,,,,,,,,13,,55,48
3300,note_on,,1,0,5,,,,,,,,,,,,,,,,2,,55,48
3300,note_on,,1,0,8,,,,,,,,,,,,,,,,11,,67,48
3300,note_on,,1,0,11,,,,,,,,,,,,,,,,15,,67,48
3300,note_on,,0,0,11,,,,,,,,,,,,,,,,15,,55,48
3300,note_on,,1,0,9,,,,,,,,,,,,,,,,12,,79,48
3359,note_on,,59,0,9,,,,,,,,,,,,,,,,12,,79,0
3359,note_on,,0,0,11,,,,,,,,,,,,,,,,15,,55,0
3359,note_on,,59,0,7,,,,,,,,,,,,,,,,10,,67,0
3359,note_on,,59,0,11,,,,,,,,,,,,,,,,15,,67,0
3359,note_on,,59,0,5,,,,,,,,,,,,,,,,2,,55,0
3359,note_on,,59,0,6,,,,,,,,,,,,,,,,8,,55,0
3359,note_on,,59,0,8,,,,,,,,,,,,,,,,11,,67,0
3359,note_on,,59,0,10,,,,,,,,,,,,,,,,13,,55,0
3360,note_on,,1,0,9,,,,,,,,,,,,,,,,12,,78,48
3360,note_on,,1,0,7,,,,,,,,,,,,,,,,10,,66,48
3360,note_on,,1,0,10,,,,,,,,,,,,,,,,13,,54,48
3360,note_on,,1,0,6,,,,,,,,,,,,,,,,8,,54,69
3360,note_on,,1,0,5,,,,,,,,,,,,,,,,2,,54,48
3360,note_on,,1,0,8,,,,,,,,,,,,,,,,11,,66,48
3360,note_on,,0,0,11,,,,,,,,,,,,,,,,15,,54,48
3360,note_on,,1,0,11,,,,,,,,,,,,,,,,15,,66,48
3419,note_on,,59,0,10,,,,,,,,,,,,,,,,13,,54,0
3419,note_on,,59,0,11,,,,,,,,,,,,,,,,15,,66,0
3419,note_on,,0,0,11,,,,,,,,,,,,,,,,15,,54,0
3419,note_on,,59,0,6,,,,,,,,,,,,,,,,8,,54,0
3419,note_on,,59,0,8,,,,,,,,,,,,,,,,11,,66,0
3419,note_on,,59,0,7,,,,,,,,,,,,,,,,10,,66,0
3419,note_on,,59,0,5,,,,,,,,,,,,,,,,2,,54,0
3419,note_on,,59,0,9,,,,,,,,,,,,,,,,12,,78,0
3420,note_on,,1,0,10,,,,,,,,,,,,,,,,13,,43,48
3420,note_on,,1,0,8,,,,,,,,,,,,,,,,11,,55,48
3420,note_on,,1,0,11,,,,,,,,,,,,,,,,15,,55,48
3420,note_on,,0,0,11,,,,,,,,,,,,,,,,15,,43,48
3420,note_on,,1,0,9,,,,,,,,,,,,,,,,12,,67,48
3420,note_on,,1,0,7,,,,,,,,,,,,,,,,10,,55,48
3420,note_on,,1,0,5,,,,,,,,,,,,,,,,2,,43,48
3420,note_on,,1,0,6,,,,,,,,,,,,,,,,8,,43,72
3539,note_on,,119,0,7,,,,,,,,,,,,,,,,10,,55,0
3539,note_on,,119,0,9,,,,,,,,,,,,,,,,12,,67,0
3539,note_on,,119,0,8,,,,,,,,,,,,,,,,11,,55,0
3540,note_on,,1,0,9,,,,,,,,,,,,,,,,12,,76,48
3540,note_on,,1,0,8,,,,,,,,,,,,,,,,11,,64,48
3540,note_on,,1,0,7,,,,,,,,,,,,,,,,10,,64,48
3540,note_on,,120,0,11,,,,,,,,,,,,,,,,15,,64,48
3540,note_on,,0,0,11,,,,,,,,,,,,,,,,15,,59,48
3554,note_on,,14,0,7,,,,,,,,,,,,,,,,10,,64,0
3554,note_on,,14,0,8,,,,,,,,,,,,,,,,11,,64,0
3554,note_on,,14,0,9,,,,,,,,,,,,,,,,12,,76,0
3555,note_on,,1,0,9,,,,,,,,,,,,,,,,12,,78,48
3555,note_on,,1,0,8,,,,,,,,,,,,,,,,11,,66,48
3555,note_on,,1,0,7,,,,,,,,,,,,,,,,10,,66,48
3569,note_on,,14,0,7,,,,,,,,,,,,,,,,10,,66,0
3569,note_on,,14,0,9,,,,,,,,,,,,,,,,12,,78,0
3569,note_on,,14,0,8,,,,,,,,,,,,,,,,11,,66,0
3570,note_on,,1,0,9,,,,,,,,,,,,,,,,12,,76,48
3570,note_on,,1,0,7,,,,,,,,,,,,,,,,10,,64,48
3570,note_on,,1,0,8,,,,,,,,,,,,,,,,11,,64,48
3584,note_on,,14,0,7,,,,,,,,,,,,,,,,10,,64,0
3584,note_on,,14,0,8,,,,,,,,,,,,,,,,11,,64,0
3584,note_on,,14,0,9,,,,,,,,,,,,,,,,12,,76,0
3585,note_on,,1,0,8,,,,,,,,,,,,,,,,11,,66,48
3585,note_on,,1,0,9,,,,,,,,,,,,,,,,12,,78,48
3585,note_on,,1,0,7,,,,,,,,,,,,,,,,10,,66,48
3599,note_on,,14,0,7,,,,,,,,,,,,,,,,10,,66,0
3599,note_on,,14,0,8,,,,,,,,,,,,,,,,11,,66,0
3599,note_on,,14,0,9,,,,,,,,,,,,,,,,12,,78,0
3600,note_on,,1,0,9,,,,,,,,,,,,,,,,12,,74,48
3600,note_on,,1,0,7,,,,,,,,,,,,,,,,10,,62,48
3600,note_on,,1,0,8,,,,,,,,,,,,,,,,11,,62,48
3614,note_on,,14,0,9,,,,,,,,,,,,,,,,12,,74,0
3614,note_on,,14,0,7,,,,,,,,,,,,,,,,10,,62,0
3614,note_on,,14,0,8,,,,,,,,,,,,,,,,11,,62,0
3615,note_on,,1,0,7,,,,,,,,,,,,,,,,10,,64,48
3615,note_on,,1,0,8,,,,,,,,,,,,,,,,11,,64,48
3615,note_on,,1,0,9,,,,,,,,,,,,,,,,12,,76,48
3629,note_on,,14,0,7,,,,,,,,,,,,,,,,10,,64,0
3629,note_on,,14,0,9,,,,,,,,,,,,,,,,12,,76,0
3629,note_on,,14,0,8,,,,,,,,,,,,,,,,11,,64,0
3630,note_on,,1,0,8,,,,,,,,,,,,,,,,11,,66,48
3630,note_on,,1,0,7,,,,,,,,,,,,,,,,10,,66,48
3630,note_on,,1,0,9,,,,,,,,,,,,,,,,12,,78,48
3659,note_on,,239,0,10,,,,,,,,,,,,,,,,13,,43,0
3659,note_on,,29,0,7,,,,,,,,,,,,,,,,10,,66,0
3659,note_on,,0,0,11,,,,,,,,,,,,,,,,15,,43,0
3659,note_on,,0,0,11,,,,,,,,,,,,,,,,15,,64,0
3659,note_on,,0,0,11,,,,,,,,,,,,,,,,15,,59,0
3659,note_on,,239,0,6,,,,,,,,,,,,,,,,8,,43,0
3659,note_on,,239,0,5,,,,,,,,,,,,,,,,2,,43,0
3659,note_on,,29,0,9,,,,,,,,,,,,,,,,12,,78,0
3659,note_on,,29,0,8,,,,,,,,,,,,,,,,11,,66,0
3659,note_on,,119,0,11,,,,,,,,,,,,,,,,15,,55,0
3660,note_on,,0,0,11,,,,,,,,,,,,,,,,15,,66,48
3660,note_on,,1,0,11,,,,,,,,,,,,,,,,15,,49,48
3660,note_on,,0,0,11,,,,,,,,,,,,,,,,15,,58,48
3660,note_on,,0,0,11,,,,,,,,,,,,,,,,15,,42,48
3660,note_on,,0,0,11,,,,,,,,,,,,,,,,15,,61,48
3660,note_on,,1,0,6,,,,,,,,,,,,,,,,8,,42,74
3660,note_on,,1,0,9,,,,,,,,,,,,,,,,12,,78,48
3660,note_on,,1,0,7,,,,,,,,,,,,,,,,10,,66,48
3660,note_on,,1,0,10,,,,,,,,,,,,,,,,13,,42,48
3660,note_on,,1,0,5,,,,,,,,,,,,,,,,2,,42,48
3660,note_on,,1,0,8,,,,,,,,,,,,,,,,11,,66,48
3779,note_on,,119,0,7,,,,,,,,,,,,,,,,10,,66,0
3779,note_on,,119,0,9,,,,,,,,,,,,,,,,12,,78,0
3779,note_on,,119,0,5,,,,,,,,,,,,,,,,2,,42,0
3779,note_on,,119,0,8,,,,,,,,,,,,,,,,11,,66,0
3779,note_on,,0,0,11,,,,,,,,,,,,,,,,15,,66,0
3779,note_on,,0,0,11,,,,,,,,,,,,,,,,15,,61,0
3779,note_on,,0,0,11,,,,,,,,,,,,,,,,15,,58,0
3779,note_on,,0,0,11,,,,,,,,,,,,,,,,15,,42,0
3779,note_on,,119,0,6,,,,,,,,,,,,,,,,8,,42,0
3779,note_on,,119,0,11,,,,,,,,,,,,,,,,15,,49,0
3779,note_on,,119,0,10,,,,,,,,,,,,,,,,13,,42,0
3840,note_on,,61,0,9,,,,,,,,,,,,,,,,12,,78,48
3840,note_on,,61,0,8,,,,,,,,,,,,,,,,11,,66,48
3840,note_on,,61,0,7,,,,,,,,,,,,,,,,10,,66,48
3899,note_on,,59,0,7,,,,,,,,,,,,,,,,10,,66,0
3899,note_on,,59,0,9,,,,,,,,,,,,,,,,12,,78,0
3899,note_on,,59,0,8,,,,,,,,,,,,,,,,11,,66,0
3900,note_on,,1,0,7,,,,,,,,,,,,,,,,10,,71,48
3900,note_on,,1,0,9,,,,,,,,,,,,,,,,12,,83,48
3900,note_on,,1,0,8,,,,,,,,,,,,,,,,11,,71,48
3959,note_on,,59,0,9,,,,,,,,,,,,,,,,12,,83,0
3959,note_on,,59,0,7,,,,,,,,,,,,,,,,10,,71,0
3959,note_on,,59,0,8,,,,,,,,,,,,,,,,11,,71,0
3960,note_on,,1,0,7,,,,,,,,,,,,,,,,10,,70,48
3960,note_on,,1,0,8,,,,,,,,,,,,,,,,11,,70,48
3960,note_on,,1,0,9,,,,,,,,,,,,,,,,12,,82,48
4019,note_on,,59,0,9,,,,,,,,,,,,,,,,12,,82,0
4019,note_on,,59,0,7,,,,,,,,,,,,,,,,10,,70,0
4019,note_on,,59,0,8,,,,,,,,,,,,,,,,11,,70,0
4020,note_on,,1,0,8,,,,,,,,,,,,,,,,11,,71,48
4020,note_on,,1,0,9,,,,,,,,,,,,,,,,12,,83,48
4020,note_on,,1,0,7,,,,,,,,,,,,,,,,10,,71,48
4079,note_on,,59,0,8,,,,,,,,,,,,,,,,11,,71,0
4079,note_on,,59,0,9,,,,,,,,,,,,,,,,12,,83,0
4079,note_on,,59,0,7,,,,,,,,,,,,,,,,10,,71,0
4080,note_on,,1,0,8,,,,,,,,,,,,,,,,11,,70,48
4080,note_on,,1,0,9,,,,,,,,,,,,,,,,12,,82,48
4080,note_on,,1,0,7,,,,,,,,,,,,,,,,10,,70,48
4139,note_on,,59,0,9,,,,,,,,,,,,,,,,12,,82,0
4139,note_on,,59,0,7,,,,,,,,,,,,,,,,10,,70,0
4139,note_on,,59,0,8,,,,,,,,,,,,,,,,11,,70,0
4140,note_on,,1,0,7,,,,,,,,,,,,,,,,10,,71,48
4140,note_on,,1,0,8,,,,,,,,,,,,,,,,11,,71,48
4140,note_on,,1,0,9,,,,,,,,,,,,,,,,12,,83,48
4199,note_on,,59,0,8,,,,,,,,,,,,,,,,11,,71,0
4199,note_on,,59,0,9,,,,,,,,,,,,,,,,12,,83,0
4199,note_on,,59,0,7,,,,,,,,,,,,,,,,10,,71,0
4200,note_on,,1,0,8,,,,,,,,,,,,,,,,11,,73,48
4200,note_on,,1,0,9,,,,,,,,,,,,,,,,12,,85,48
4200,note_on,,1,0,7,,,,,,,,,,,,,,,,10,,73,48
4259,note_on,,59,0,8,,,,,,,,,,,,,,,,11,,73,0
4259,note_on,,59,0,7,,,,,,,,,,,,,,,,10,,73,0
4259,note_on,,59,0,9,,,,,,,,,,,,,,,,12,,85,0
4260,note_on,,1,0,9,,,,,,,,,,,,,,,,12,,86,48
4260,note_on,,1,0,8,,,,,,,,,,,,,,,,11,,74,48
4260,note_on,,1,0,7,,,,,,,,,,,,,,,,10,,74,48
4319,note_on,,59,0,7,,,,,,,,,,,,,,,,10,,74,0
4319,note_on,,59,0,9,,,,,,,,,,,,,,,,12,,86,0
4319,note_on,,59,0,8,,,,,,,,,,,,,,,,11,,74,0
4320,note_on,,1,0,8,,,,,,,,,,,,,,,,11,,66,48
4320,note_on,,1,0,7,,,,,,,,,,,,,,,,10,,66,48
4320,note_on,,541,0,6,,,,,,,,,,,,,,,,8,,54,75
4320,note_on,,1,0,9,,,,,,,,,,,,,,,,12,,78,48
4320,note_on,,541,0,5,,,,,,,,,,,,,,,,2,,54,48
4320,note_on,,541,0,11,,,,,,,,,,,,,,,,15,,54,48
4320,note_on,,541,0,10,,,,,,,,,,,,,,,,13,,54,48
4320,note_on,,0,0,11,,,,,,,,,,,,,,,,15,,66,48
4379,note_on,,59,0,10,,,,,,,,,,,,,,,,13,,54,0
4379,note_on,,59,0,11,,,,,,,,,,,,,,,,15,,54,0
4379,note_on,,0,0,11,,,,,,,,,,,,,,,,15,,66,0
4379,note_on,,59,0,9,,,,,,,,,,,,,,,,12,,78,0
4379,note_on,,59,0,6,,,,,,,,,,,,,,,,8,,54,0
4379,note_on,,59,0,8,,,,,,,,,,,,,,,,11,,66,0
4379,note_on,,59,0,7,,,,,,,,,,,,,,,,10,,66,0
4379,note_on,,59,0,5,,,,,,,,,,,,,,,,2,,54,0
4380,note_on,,1,0,10,,,,,,,,,,,,,,,,13,,55,48
4380,note_on,,1,0,11,,,,,,,,,,,,,,,,15,,55,48
4380,note_on,,0,0,11,,,,,,,,,,,,,,,,15,,67,48
4380,note_on,,1,0,6,,,,,,,,,,,,,,,,8,,55,72
4380,note_on,,1,0,7,,,,,,,,,,,,,,,,10,,67,48
4380,note_on,,1,0,9,,,,,,,,,,,,,,,,12,,79,48
4380,note_on,,1,0,8,,,,,,,,,,,,,,,,11,,67,48
4380,note_on,,1,0,5,,,,,,,,,,,,,,,,2,,55,48
4439,note_on,,59,0,5,,,,,,,,,,,,,,,,2,,55,0
4439,note_on,,59,0,10,,,,,,,,,,,,,,,,13,,55,0
4439,note_on,,59,0,8,,,,,,,,,,,,,,,,11,,67,0
4439,note_on,,59,0,9,,,,,,,,,,,,,,,,12,,79,0
4439,note_on,,59,0,11,,,,,,,,,,,,,,,,15,,55,0
4439,note_on,,0,0,11,,,,,,,,,,,,,,,,15,,67,0
4439,note_on,,59,0,6,,,,,,,,,,,,,,,,8,,55,0
4439,note_on,,59,0,7,,,,,,,,,,,,,,,,10,,67,0
4440,note_on,,1,0,10,,,,,,,,,,,,,,,,13,,51,48
4440,note_on,,1,0,8,,,,,,,,,,,,,,,,11,,63,48
4440,note_on,,1,0,9,,,,,,,,,,,,,,,,12,,75,48
4440,note_on,,1,0,11,,,,,,,,,,,,,,,,15,,51,48
4440,note_on,,0,0,11,,,,,,,,,,,,,,,,15,,63,48
4440,note_on,,1,0,7,,,,,,,,,,,,,,,,10,,63,48
4440,note_on,,1,0,6,,,,,,,,,,,,,,,,8,,51,71
4440,note_on,,1,0,5,,,,,,,,,,,,,,,,2,,51,48
4499,note_on,,59,0,10,,,,,,,,,,,,,,,,13,,51,0
4499,note_on,,0,0,11,,,,,,,,,,,,,,,,15,,63,0
4499,note_on,,59,0,11,,,,,,,,,,,,,,,,15,,51,0
4499,note_on,,59,0,6,,,,,,,,,,,,,,,,8,,51,0
4499,note_on,,59,0,9,,,,,,,,,,,,,,,,12,,75,0
4499,note_on,,59,0,5,,,,,,,,,,,,,,,,2,,51,0
4499,note_on,,59,0,8,,,,,,,,,,,,,,,,11,,63,0
4499,note_on,,59,0,7,,,,,,,,,,,,,,,,10,,63,0
4500,note_on,,1,0,6,,,,,,,,,,,,,,,,8,,52,74
4500,note_on,,0,0,11,,,,,,,,,,,,,,,,15,,64,48
4500,note_on,,1,0,10,,,,,,,,,,,,,,,,13,,52,48
4500,note_on,,1,0,7,,,,,,,,,,,,,,,,10,,64,48
4500,note_on,,1,0,11,,,,,,,,,,,,,,,,15,,52,48
4500,note_on,,1,0,8,,,,,,,,,,,,,,,,11,,64,48
4500,note_on,,1,0,5,,,,,,,,,,,,,,,,2,,52,48
4500,note_on,,1,0,9,,,,,,,,,,,,,,,,12,,76,48
4559,note_on,,59,0,8,,,,,,,,,,,,,,,,11,,64,0
4559,note_on,,59,0,10,,,,,,,,,,,,,,,,13,,52,0
4559,note_on,,59,0,11,,,,,,,,,,,,,,,,15,,52,0
4559,note_on,,0,0,11,,,,,,,,,,,,,,,,15,,64,0
4559,note_on,,59,0,9,,,,,,,,,,,,,,,,12,,76,0
4559,note_on,,59,0,7,,,,,,,,,,,,,,,,10,,64,0
4559,note_on,,59,0,5,,,,,,,,,,,,,,,,2,,52,0
4559,note_on,,59,0,6,,,,,,,,,,,,,,,,8,,52,0
4560,note_on,,1,0,9,,,,,,,,,,,,,,,,12,,80,48
4560,note_on,,1,0,7,,,,,,,,,,,,,,,,10,,68,48
4560,note_on,,1,0,8,,,,,,,,,,,,,,,,11,,68,48
4560,note_on,,1,0,10,,,,,,,,,,,,,,,,13,,56,48
4560,note_on,,1,0,11,,,,,,,,,,,,,,,,15,,68,48
4560,note_on,,0,0,11,,,,,,,,,,,,,,,,15,,56,48
4560,note_on,,1,0,6,,,,,,,,,,,,,,,,8,,56,75
4560,note_on,,1,0,5,,,,,,,,,,,,,,,,2,,56,48
4619,note_on,,59,0,5,,,,,,,,,,,,,,,,2,,56,0
4619,note_on,,59,0,6,,,,,,,,,,,,,,,,8,,56,0
4619,note_on,,59,0,8,,,,,,,,,,,,,,,,11,,68,0
4619,note_on,,59,0,9,,,,,,,,,,,,,,,,12,,80,0
4619,note_on,,59,0,7,,,,,,,,,,,,,,,,10,,68,0
4619,note_on,,59,0,10,,,,,,,,,,,,,,,,13,,56,0
4619,note_on,,59,0,11,,,,,,,,,,,,,,,,15,,68,0
4619,note_on,,0,0,11,,,,,,,,,,,,,,,,15,,56,0
4620,note_on,,1,0,8,,,,,,,,,,,,,,,,11,,69,48
4620,note_on,,1,0,6,,,,,,,,,,,,,,,,8,,57,68
4620,note_on,,1,0,7,,,,,,,,,,,,,,,,10,,69,48
4620,note_on,,1,0,11,,,,,,,,,,,,,,,,15,,69,48
4620,note_on,,0,0,11,,,,,,,,,,,,,,,,15,,57,48
4620,note_on,,1,0,10,,,,,,,,,,,,,,,,13,,57,48
4620,note_on,,1,0,5,,,,,,,,,,,,,,,,2,,57,48
4620,note_on,,1,0,9,,,,,,,,,,,,,,,,12,,81,48
4679,note_on,,59,0,8,,,,,,,,,,,,,,,,11,,69,0
4679,note_on,,0,0,11,,,,,,,,,,,,,,,,15,,57,0
4679,note_on,,59,0,11,,,,,,,,,,,,,,,,15,,69,0
4679,note_on,,59,0,7,,,,,,,,,,,,,,,,10,,69,0
4679,note_on,,59,0,5,,,,,,,,,,,,,,,,2,,57,0
4679,note_on,,59,0,6,,,,,,,,,,,,,,,,8,,57,0
4679,note_on,,59,0,10,,,,,,,,,,,,,,,,13,,57,0
4679,note_on,,59,0,9,,,,,,,,,,,,,,,,12,,81,0
4680,note_on,,1,0,9,,,,,,,,,,,,,,,,12,,77,48
4680,note_on,,1,0,7,,,,,,,,,,,,,,,,10,,65,48
4680,note_on,,1,0,5,,,,,,,,,,,,,,,,2,,53,48
4680,note_on,,1,0,6,,,,,,,,,,,,,,,,8,,53,73
4680,note_on,,1,0,11,,,,,,,,,,,,,,,,15,,65,48
4680,note_on,,1,0,10,,,,,,,,,,,,,,,,13,,53,48
4680,note_on,,1,0,8,,,,,,,,,,,,,,,,11,,65,48
4680,note_on,,0,0,11,,,,,,,,,,,,,,,,15,,53,48
4739,note_on,,59,0,8,,,,,,,,,,,,,,,,11,,65,0
4739,note_on,,59,0,6,,,,,,,,,,,,,,,,8,,53,0
4739,note_on,,0,0,11,,,,,,,,,,,,,,,,15,,53,0
4739,note_on,,59,0,11,,,,,,,,,,,,,,,,15,,65,0
4739,note_on,,59,0,7,,,,,,,,,,,,,,,,10,,65,0
4739,note_on,,59,0,9,,,,,,,,,,,,,,,,12,,77,0
4739,note_on,,59,0,10,,,,,,,,,,,,,,,,13,,53,0
4739,note_on,,59,0,5,,,,,,,,,,,,,,,,2,,53,0
4740,note_on,,1,0,10,,,,,,,,,,,,,,,,13,,54,48
4740,note_on,,0,0,11,,,,,,,,,,,,,,,,15,,66,48
4740,note_on,,1,0,11,,,,,,,,,,,,,,,,15,,54,48
4740,note_on,,1,0,9,,,,,,,,,,,,,,,,12,,78,48
4740,note_on,,1,0,5,,,,,,,,,,,,,,,,2,,54,48
4740,note_on,,1,0,8,,,,,,,,,,,,,,,,11,,66,48
4740,note_on,,1,0,7,,,,,,,,,,,,,,,,10,,66,48
4740,note_on,,1,0,6,,,,,,,,,,,,,,,,8,,54,74
4799,note_on,,59,0,8,,,,,,,,,,,,,,,,11,,66,0
4799,note_on,,59,0,9,,,,,,,,,,,,,,,,12,,78,0
4799,note_on,,59,0,7,,,,,,,,,,,,,,,,10,,66,0
4799,note_on,,59,0,6,,,,,,,,,,,,,,,,8,,54,0
4799,note_on,,59,0,5,,,,,,,,,,,,,,,,2,,54,0
4799,note_on,,59,0,11,,,,,,,,,,,,,,,,15,,54,0
4799,note_on,,0,0,11,,,,,,,,,,,,,,,,15,,66,0
4799,note_on,,59,0,10,,,,,,,,,,,,,,,,13,,54,0
4800,note_on,,1,0,5,,,,,,,,,,,,,,,,2,,58,48
4800,note_on,,1,0,8,,,,,,,,,,,,,,,,11,,70,48
4800,note_on,,1,0,9,,,,,,,,,,,,,,,,12,,82,48
4800,note_on,,1,0,11,,,,,,,,,,,,,,,,15,,58,48
4800,note_on,,0,0,11,,,,,,,,,,,,,,,,15,,70,48
4800,note_on,,1,0,10,,,,,,,,,,,,,,,,13,,58,48
4800,note_on,,1,0,6,,,,,,,,,,,,,,,,8,,58,73
4800,note_on,,1,0,7,,,,,,,,,,,,,,,,10,,70,48
4859,note_on,,59,0,6,,,,,,,,,,,,,,,,8,,58,0
4859,note_on,,59,0,7,,,,,,,,,,,,,,,,10,,70,0
4859,note_on,,59,0,8,,,,,,,,,,,,,,,,11,,70,0
4859,note_on,,59,0,11,,,,,,,,,,,,,,,,15,,58,0
4859,note_on,,59,0,5,,,,,,,,,,,,,,,,2,,58,0
4859,note_on,,59,0,9,,,,,,,,,,,,,,,,12,,82,0
4859,note_on,,59,0,10,,,,,,,,,,,,,,,,13,,58,0
4859,note_on,,0,0,11,,,,,,,,,,,,,,,,15,,70,0
4860,note_on,,1,0,5,,,,,,,,,,,,,,,,2,,59,48
4860,note_on,,1,0,9,,,,,,,,,,,,,,,,12,,83,48
4860,note_on,,1,0,8,,,,,,,,,,,,,,,,11,,71,48
4860,note_on,,1,0,10,,,,,,,,,,,,,,,,13,,59,48
4860,note_on,,1,0,11,,,,,,,,,,,,,,,,15,,71,48
4860,note_on,,1,0,7,,,,,,,,,,,,,,,,10,,71,48
4860,note_on,,0,0,11,,,,,,,,,,,,,,,,15,,59,48
4860,note_on,,1,0,6,,,,,,,,,,,,,,,,8,,59,69
4979,note_on,,119,0,10,,,,,,,,,,,,,,,,13,,59,0
4979,note_on,,119,0,6,,,,,,,,,,,,,,,,8,,59,0
4979,note_on,,119,0,7,,,,,,,,,,,,,,,,10,,71,0
4979,note_on,,119,0,11,,,,,,,,,,,,,,,,15,,71,0
4979,note_on,,119,0,5,,,,,,,,,,,,,,,,2,,59,0
4979,note_on,,119,0,9,,,,,,,,,,,,,,,,12,,83,0
4979,note_on,,119,0,8,,,,,,,,,,,,,,,,11,,71,0
4979,note_on,,0,0,11,,,,,,,,,,,,,,,,15,,59,0
4980,note_on,,1,0,11,,,,,,,,,,,,,,,,15,,73,48
4980,note_on,,0,0,11,,,,,,,,,,,,,,,,15,,61,48
4980,note_on,,1,0,5,,,,,,,,,,,,,,,,2,,61,48
4980,note_on,,1,0,9,,,,,,,,,,,,,,,,12,,85,48
4980,note_on,,1,0,6,,,,,,,,,,,,,,,,8,,61,69
4980,note_on,,1,0,8,,,,,,,,,,,,,,,,11,,73,48
4980,note_on,,1,0,10,,,,,,,,,,,,,,,,13,,61,48
4980,note_on,,1,0,7,,,,,,,,,,,,,,,,10,,73,48
5039,note_on,,59,0,7,,,,,,,,,,,,,,,,10,,73,0
5039,note_on,,59,0,11,,,,,,,,,,,,,,,,15,,73,0
5039,note_on,,0,0,11,,,,,,,,,,,,,,,,15,,61,0
5039,note_on,,59,0,5,,,,,,,,,,,,,,,,2,,61,0
5039,note_on,,59,0,9,,,,,,,,,,,,,,,,12,,85,0
5039,note_on,,59,0,8,,,,,,,,,,,,,,,,11,,73,0
5039,note_on,,59,0,10,,,,,,,,,,,,,,,,13,,61,0
5039,note_on,,59,0,6,,,,,,,,,,,,,,,,8,,61,0
5040,note_on,,1,0,10,,,,,,,,,,,,,,,,13,,62,48
5040,note_on,,1,0,9,,,,,,,,,,,,,,,,12,,86,48
5040,note_on,,1,0,5,,,,,,,,,,,,,,,,2,,62,48
5040,note_on,,1,0,7,,,,,,,,,,,,,,,,10,,74,48
5040,note_on,,1,0,8,,,,,,,,,,,,,,,,11,,74,48
5040,note_on,,0,0,11,,,,,,,,,,,,,,,,15,,74,48
5040,note_on,,1,0,11,,,,,,,,,,,,,,,,15,,62,48
5040,note_on,,1,0,6,,,,,,,,,,,,,,,,8,,62,68
5099,note_on,,59,0,8,,,,,,,,,,,,,,,,11,,74,0
5099,note_on,,59,0,6,,,,,,,,,,,,,,,,8,,62,0
5099,note_on,,59,0,7,,,,,,,,,,,,,,,,10,,74,0
5099,note_on,,0,0,11,,,,,,,,,,,,,,,,15,,74,0
5099,note_on,,59,0,11,,,,,,,,,,,,,,,,15,,62,0
5099,note_on,,59,0,9,,,,,,,,,,,,,,,,12,,86,0
5099,note_on,,59,0,10,,,,,,,,,,,,,,,,13,,62,0
5099,note_on,,59,0,5,,,,,,,,,,,,,,,,2,,62,0
5100,note_on,,1,0,6,,,,,,,,,,,,,,,,8,,54,71
5100,note_on,,1,0,10,,,,,,,,,,,,,,,,13,,54,48
5100,note_on,,1,0,9,,,,,,,,,,,,,,,,12,,78,48
5100,note_on,,1,0,7,,,,,,,,,,,,,,,,10,,66,48
5100,note_on,,1,0,8,,,,,,,,,,,,,,,,11,,66,48
5100,note_on,,1,0,5,,,,,,,,,,,,,,,,2,,54,48
5100,note_on,,0,0,11,,,,,,,,,,,,,,,,15,,54,48
5100,note_on,,1,0,11,,,,,,,,,,,,,,,,15,,66,48
5219,note_on,,0,0,11,,,,,,,,,,,,,,,,15,,54,0
5219,note_on,,119,0,11,,,,,,,,,,,,,,,,15,,66,0
5219,note_on,,119,0,10,,,,,,,,,,,,,,,,13,,54,0
5219,note_on,,119,0,7,,,,,,,,,,,,,,,,10,,66,0
5219,note_on,,119,0,8,,,,,,,,,,,,,,,,11,,66,0
5219,note_on,,119,0,9,,,,,,,,,,,,,,,,12,,78,0
5219,note_on,,119,0,5,,,,,,,,,,,,,,,,2,,54,0
5219,note_on,,119,0,6,,,,,,,,,,,,,,,,8,,54,0
5220,note_on,,1,0,9,,,,,,,,,,,,,,,,12,,78,48
5220,note_on,,1,0,6,,,,,,,,,,,,,,,,8,,54,74
5220,note_on,,0,0,11,,,,,,,,,,,,,,,,15,,66,48
5220,note_on,,1,0,11,,,,,,,,,,,,,,,,15,,54,48
5220,note_on,,1,0,5,,,,,,,,,,,,,,,,2,,54,48
5220,note_on,,1,0,10,,,,,,,,,,,,,,,,13,,54,48
5220,note_on,,1,0,7,,,,,,,,,,,,,,,,10,,66,48
5220,note_on,,1,0,8,,,,,,,,,,,,,,,,11,,66,48
5279,note_on,,59,0,7,,,,,,,,,,,,,,,,10,,66,0
5279,note_on,,59,0,9,,,,,,,,,,,,,,,,12,,78,0
5279,note_on,,59,0,6,,,,,,,,,,,,,,,,8,,54,0
5279,note_on,,59,0,10,,,,,,,,,,,,,,,,13,,54,0
5279,note_on,,59,0,11,,,,,,,,,,,,,,,,15,,54,0
5279,note_on,,0,0,11,,,,,,,,,,,,,,,,15,,66,0
5279,note_on,,59,0,5,,,,,,,,,,,,,,,,2,,54,0
5279,note_on,,59,0,8,,,,,,,,,,,,,,,,11,,66,0
5280,note_on,,1,0,8,,,,,,,,,,,,,,,,11,,69,48
5280,note_on,,1,0,9,,,,,,,,,,,,,,,,12,,81,48
5280,note_on,,1,0,11,,,,,,,,,,,,,,,,15,,57,48
5280,note_on,,0,0,11,,,,,,,,,,,,,,,,15,,69,48
5280,note_on,,1,0,6,,,,,,,,,,,,,,,,8,,57,68
5280,note_on,,1,0,5,,,,,,,,,,,,,,,,2,,57,48
5280,note_on,,1,0,10,,,,,,,,,,,,,,,,13,,57,48
5280,note_on,,1,0,7,,,,,,,,,,,,,,,,10,,69,48
5339,note_on,,59,0,6,,,,,,,,,,,,,,,,8,,57,0
5339,note_on,,59,0,10,,,,,,,,,,,,,,,,13,,57,0
5339,note_on,,59,0,9,,,,,,,,,,,,,,,,12,,81,0
5339,note_on,,59,0,5,,,,,,,,,,,,,,,,2,,57,0
5339,note_on,,59,0,11,,,,,,,,,,,,,,,,15,,57,0
5339,note_on,,59,0,7,,,,,,,,,,,,,,,,10,,69,0
5339,note_on,,59,0,8,,,,,,,,,,,,,,,,11,,69,0
5339,note_on,,0,0,11,,,,,,,,,,,,,,,,15,,69,0
5340,note_on,,1,0,7,,,,,,,,,,,,,,,,10,,71,48
5340,note_on,,0,0,11,,,,,,,,,,,,,,,,15,,71,48
5340,note_on,,1,0,11,,,,,,,,,,,,,,,,15,,59,48
5340,note_on,,1,0,6,,,,,,,,,,,,,,,,8,,59,71
5340,note_on,,1,0,5,,,,,,,,,,,,,,,,2,,59,48
5340,note_on,,1,0,10,,,,,,,,,,,,,,,,13,,59,48
5340,note_on,,1,0,8,,,,,,,,,,,,,,,,11,,71,48
5340,note_on,,1,0,9,,,,,,,,,,,,,,,,12,,83,48
5399,note_on,,59,0,9,,,,,,,,,,,,,,,,12,,83,0
5399,note_on,,59,0,7,,,,,,,,,,,,,,,,10,,71,0
5399,note_on,,59,0,8,,,,,,,,,,,,,,,,11,,71,0
5399,note_on,,59,0,6,,,,,,,,,,,,,,,,8,,59,0
5399,note_on,,59,0,10,,,,,,,,,,,,,,,,13,,59,0
5399,note_on,,59,0,5,,,,,,,,,,,,,,,,2,,59,0
5399,note_on,,59,0,11,,,,,,,,,,,,,,,,15,,59,0
5399,note_on,,0,0,11,,,,,,,,,,,,,,,,15,,71,0
5400,note_on,,1,0,6,,,,,,,,,,,,,,,,8,,55,74
5400,note_on,,0,0,11,,,,,,,,,,,,,,,,15,,67,48
5400,note_on,,1,0,11,,,,,,,,,,,,,,,,15,,55,48
5400,note_on,,1,0,9,,,,,,,,,,,,,,,,12,,79,48
5400,note_on,,1,0,8,,,,,,,,,,,,,,,,11,,67,48
5400,note_on,,1,0,7,,,,,,,,,,,,,,,,10,,67,48
5400,note_on,,1,0,5,,,,,,,,,,,,,,,,2,,55,48
5400,note_on,,1,0,10,,,,,,,,,,,,,,,,13,,55,48
5459,note_on,,59,0,9,,,,,,,,,,,,,,,,12,,79,0
5459,note_on,,59,0,7,,,,,,,,,,,,,,,,10,,67,0
5459,note_on,,59,0,5,,,,,,,,,,,,,,,,2,,55,0
5459,note_on,,59,0,11,,,,,,,,,,,,,,,,15,,55,0
5459,note_on,,59,0,8,,,,,,,,,,,,,,,,11,,67,0
5459,note_on,,0,0,11,,,,,,,,,,,,,,,,15,,67,0
5459,note_on,,59,0,6,,,,,,,,,,,,,,,,8,,55,0
5459,note_on,,59,0,10,,,,,,,,,,,,,,,,13,,55,0
5460,note_on,,1,0,8,,,,,,,,,,,,,,,,11,,64,48
5460,note_on,,1,0,9,,,,,,,,,,,,,,,,12,,76,48
5460,note_on,,1,0,11,,,,,,,,,,,,,,,,15,,52,48
5460,note_on,,0,0,11,,,,,,,,,,,,,,,,15,,64,48
5460,note_on,,1,0,10,,,,,,,,,,,,,,,,13,,52,48
5460,note_on,,1,0,5,,,,,,,,,,,,,,,,2,,52,48
5460,note_on,,1,0,6,,,,,,,,,,,,,,,,8,,52,73
5460,note_on,,1,0,7,,,,,,,,,,,,,,,,10,,64,48
5519,note_on,,59,0,6,,,,,,,,,,,,,,,,8,,52,0
5519,note_on,,59,0,7,,,,,,,,,,,,,,,,10,,64,0
5519,note_on,,59,0,8,,,,,,,,,,,,,,,,11,,64,0
5519,note_on,,59,0,9,,,,,,,,,,,,,,,,12,,76,0
5519,note_on,,59,0,10,,,,,,,,,,,,,,,,13,,52,0
5519,note_on,,0,0,11,,,,,,,,,,,,,,,,15,,64,0
5519,note_on,,59,0,5,,,,,,,,,,,,,,,,2,,52,0
5519,note_on,,59,0,11,,,,,,,,,,,,,,,,15,,52,0
5520,note_on,,0,0,11,,,,,,,,,,,,,,,,15,,73,48
5520,note_on,,1,0,7,,,,,,,,,,,,,,,,10,,73,48
5520,note_on,,1,0,11,,,,,,,,,,,,,,,,15,,61,48
5520,note_on,,1,0,8,,,,,,,,,,,,,,,,11,,73,48
5520,note_on,,1,0,5,,,,,,,,,,,,,,,,2,,61,48
5520,note_on,,1,0,6,,,,,,,,,,,,,,,,8,,61,68
5520,note_on,,1,0,10,,,,,,,,,,,,,,,,13,,61,48
5520,note_on,,1,0,9,,,,,,,,,,,,,,,,12,,85,48
5579,note_on,,59,0,8,,,,,,,,,,,,,,,,11,,73,0
5579,note_on,,59,0,5,,,,,,,,,,,,,,,,2,,61,0
5579,note_on,,59,0,11,,,,,,,,,,,,,,,,15,,61,0
5579,note_on,,59,0,9,,,,,,,,,,,,,,,,12,,85,0
5579,note_on,,59,0,7,,,,,,,,,,,,,,,,10,,73,0
5579,note_on,,59,0,6,,,,,,,,,,,,,,,,8,,61,0
5579,note_on,,59,0,10,,,,,,,,,,,,,,,,13,,61,0
5579,note_on,,0,0,11,,,,,,,,,,,,,,,,15,,73,0
5580,note_on,,0,0,11,,,,,,,,,,,,,,,,15,,62,48
5580,note_on,,1,0,6,,,,,,,,,,,,,,,,8,,62,70
5580,note_on,,1,0,7,,,,,,,,,,,,,,,,10,,74,48
5580,note_on,,1,0,10,,,,,,,,,,,,,,,,13,,62,48
5580,note_on,,1,0,9,,,,,,,,,,,,,,,,12,,86,48
5580,note_on,,1,0,8,,,,,,,,,,,,,,,,11,,74,48
5580,note_on,,1,0,11,,,,,,,,,,,,,,,,15,,74,48
5580,note_on,,1,0,5,,,,,,,,,,,,,,,,2,,62,48
5639,note_on,,59,0,5,,,,,,,,,,,,,,,,2,,62,0
5639,note_on,,59,0,8,,,,,,,,,,,,,,,,11,,74,0
5639,note_on,,59,0,7,,,,,,,,,,,,,,,,10,,74,0
5639,note_on,,59,0,9,,,,,,,,,,,,,,,,12,,86,0
5639,note_on,,59,0,11,,,,,,,,,,,,,,,,15,,74,0
5639,note_on,,0,0,11,,,,,,,,,,,,,,,,15,,62,0
5639,note_on,,59,0,10,,,,,,,,,,,,,,,,13,,62,0
5640,note_on,,1,0,11,,,,,,,,,,,,,,,,15,,50,48
5640,note_on,,1,0,10,,,,,,,,,,,,,,,,13,,50,48
5640,note_on,,0,0,11,,,,,,,,,,,,,,,,15,,62,48
5640,note_on,,1,0,7,,,,,,,,,,,,,,,,10,,62,48
5640,note_on,,1,0,8,,,,,,,,,,,,,,,,11,,62,48
5640,note_on,,1,0,9,,,,,,,,,,,,,,,,12,,74,48
5640,note_on,,1,0,5,,,,,,,,,,,,,,,,2,,50,48
5699,note_on,,59,0,11,,,,,,,,,,,,,,,,15,,50,0
5699,note_on,,59,0,8,,,,,,,,,,,,,,,,11,,62,0
5699,note_on,,0,0,11,,,,,,,,,,,,,,,,15,,62,0
5699,note_on,,59,0,9,,,,,,,,,,,,,,,,12,,74,0
5699,note_on,,59,0,7,,,,,,,,,,,,,,,,10,,62,0
5699,note_on,,59,0,5,,,,,,,,,,,,,,,,2,,50,0
5699,note_on,,119,0,6,,,,,,,,,,,,,,,,8,,62,0
5699,note_on,,59,0,10,,,,,,,,,,,,,,,,13,,50,0
5700,note_on,,1,0,7,,,,,,,,,,,,,,,,10,,66,48
5700,note_on,,1,0,11,,,,,,,,,,,,,,,,15,,54,48
5700,note_on,,0,0,11,,,,,,,,,,,,,,,,15,,66,48
5700,note_on,,1,0,10,,,,,,,,,,,,,,,,13,,54,48
5700,note_on,,1,0,5,,,,,,,,,,,,,,,,2,,54,48
5700,note_on,,1,0,9,,,,,,,,,,,,,,,,12,,78,48
5700,note_on,,1,0,8,,,,,,,,,,,,,,,,11,,66,48
5759,note_on,,59,0,8,,,,,,,,,,,,,,,,11,,66,0
5759,note_on,,59,0,7,,,,,,,,,,,,,,,,10,,66,0
5759,note_on,,59,0,10,,,,,,,,,,,,,,,,13,,54,0
5759,note_on,,59,0,5,,,,,,,,,,,,,,,,2,,54,0
5759,note_on,,59,0,9,,,,,,,,,,,,,,,,12,,78,0
5759,note_on,,59,0,11,,,,,,,,,,,,,,,,15,,54,0
5759,note_on,,0,0,11,,,,,,,,,,,,,,,,15,,66,0
5760,note_on,,61,0,6,,,,,,,,,,,,,,,,8,,57,71
5760,note_on,,1,0,7,,,,,,,,,,,,,,,,10,,69,48
5760,note_on,,1,0,5,,,,,,,,,,,,,,,,2,,57,48
5760,note_on,,1,0,11,,,,,,,,,,,,,,,,15,,57,48
5760,note_on,,1,0,9,,,,,,,,,,,,,,,,12,,81,48
5760,note_on,,1,0,10,,,,,,,,,,,,,,,,13,,57,48
5760,note_on,,1,0,8,,,,,,,,,,,,,,,,11,,69,48
5760,note_on,,0,0,11,,,,,,,,,,,,,,,,15,,69,48
5819,note_on,,59,0,11,,,,,,,,,,,,,,,,15,,57,0
5819,note_on,,0,0,11,,,,,,,,,,,,,,,,15,,69,0
5819,note_on,,59,0,9,,,,,,,,,,,,,,,,12,,81,0
5819,note_on,,59,0,5,,,,,,,,,,,,,,,,2,,57,0
5819,note_on,,59,0,8,,,,,,,,,,,,,,,,11,,69,0
5819,note_on,,59,0,7,,,,,,,,,,,,,,,,10,,69,0
5819,note_on,,59,0,6,,,,,,,,,,,,,,,,8,,57,0
5819,note_on,,59,0,10,,,,,,,,,,,,,,,,13,,57,0
5820,note_on,,1,0,6,,,,,,,,,,,,,,,,8,,59,74
5820,note_on,,1,0,10,,,,,,,,,,,,,,,,13,,59,48
5820,note_on,,1,0,5,,,,,,,,,,,,,,,,2,,59,48
5820,note_on,,1,0,7,,,,,,,,,,,,,,,,10,,71,48
5820,note_on,,1,0,11,,,,,,,,,,,,,,,,15,,71,48
5820,note_on,,0,0,11,,,,,,,,,,,,,,,,15,,59,48
5820,note_on,,1,0,9,,,,,,,,,,,,,,,,12,,83,48
5820,note_on,,1,0,8,,,,,,,,,,,,,,,,11,,71,48
5879,note_on,,59,0,7,,,,,,,,,,,,,,,,10,,71,0
5879,note_on,,59,0,5,,,,,,,,,,,,,,,,2,,59,0
5879,note_on,,59,0,6,,,,,,,,,,,,,,,,8,,59,0
5879,note_on,,59,0,11,,,,,,,,,,,,,,,,15,,71,0
5879,note_on,,0,0,11,,,,,,,,,,,,,,,,15,,59,0
5879,note_on,,59,0,9,,,,,,,,,,,,,,,,12,,83,0
5879,note_on,,59,0,8,,,,,,,,,,,,,,,,11,,71,0
5879,note_on,,59,0,10,,,,,,,,,,,,,,,,13,,59,0
5880,note_on,,1,0,5,,,,,,,,,,,,,,,,2,,55,48
5880,note_on,,1,0,8,,,,,,,,,,,,,,,,11,,67,48
5880,note_on,,0,0,11,,,,,,,,,,,,,,,,15,,67,48
5880,note_on,,1,0,7,,,,,,,,,,,,,,,,10,,67,48
5880,note_on,,1,0,11,,,,,,,,,,,,,,,,15,,55,48
5880,note_on,,1,0,6,,,,,,,,,,,,,,,,8,,55,69
5880,note_on,,1,0,10,,,,,,,,,,,,,,,,13,,55,48
5880,note_on,,1,0,9,,,,,,,,,,,,,,,,12,,79,48
5939,note_on,,59,0,7,,,,,,,,,,,,,,,,10,,67,0
5939,note_on,,59,0,10,,,,,,,,,,,,,,,,13,,55,0
5939,note_on,,59,0,6,,,,,,,,,,,,,,,,8,,55,0
5939,note_on,,59,0,9,,,,,,,,,,,,,,,,12,,79,0
5939,note_on,,59,0,11,,,,,,,,,,,,,,,,15,,55,0
5939,note_on,,0,0,11,,,,,,,,,,,,,,,,15,,67,0
5939,note_on,,59,0,8,,,,,,,,,,,,,,,,11,,67,0
5939,note_on,,59,0,5,,,,,,,,,,,,,,,,2,,55,0
5940,note_on,,1,0,10,,,,,,,,,,,,,,,,13,,52,48
5940,note_on,,1,0,6,,,,,,,,,,,,,,,,8,,52,73
5940,note_on,,1,0,11,,,,,,,,,,,,,,,,15,,52,48
5940,note_on,,0,0,11,,,,,,,,,,,,,,,,15,,64,48
5940,note_on,,1,0,8,,,,,,,,,,,,,,,,11,,64,48
5940,note_on,,1,0,7,,,,,,,,,,,,,,,,10,,64,48
5940,note_on,,1,0,9,,,,,,,,,,,,,,,,12,,76,48
5940,note_on,,1,0,5,,,,,,,,,,,,,,,,2,,52,48
5999,note_on,,59,0,11,,,,,,,,,,,,,,,,15,,52,0
5999,note_on,,0,0,11,,,,,,,,,,,,,,,,15,,64,0
5999,note_on,,59,0,10,,,,,,,,,,,,,,,,13,,52,0
5999,note_on,,59,0,5,,,,,,,,,,,,,,,,2,,52,0
5999,note_on,,59,0,9,,,,,,,,,,,,,,,,12,,76,0
5999,note_on,,59,0,8,,,,,,,,,,,,,,,,11,,64,0
5999,note_on,,59,0,7,,,,,,,,,,,,,,,,10,,64,0
5999,note_on,,59,0,6,,,,,,,,,,,,,,,,8,,52,0
6000,note_on,,1,0,8,,,,,,,,,,,,,,,,11,,73,48
6000,note_on,,1,0,11,,,,,,,,,,,,,,,,15,,61,48
6000,note_on,,1,0,10,,,,,,,,,,,,,,,,13,,61,48
6000,note_on,,1,0,5,,,,,,,,,,,,,,,,2,,61,48
6000,note_on,,1,0,6,,,,,,,,,,,,,,,,8,,61,68
6000,note_on,,1,0,7,,,,,,,,,,,,,,,,10,,73,48
6000,note_on,,0,0,11,,,,,,,,,,,,,,,,15,,73,48
6000,note_on,,1,0,9,,,,,,,,,,,,,,,,12,,85,48
6059,note_on,,59,0,5,,,,,,,,,,,,,,,,2,,61,0
6059,note_on,,59,0,7,,,,,,,,,,,,,,,,10,,73,0
6059,note_on,,59,0,8,,,,,,,,,,,,,,,,11,,73,0
6059,note_on,,59,0,6,,,,,,,,,,,,,,,,8,,61,0
6059,note_on,,59,0,10,,,,,,,,,,,,,,,,13,,61,0
6059,note_on,,59,0,11,,,,,,,,,,,,,,,,15,,61,0
6059,note_on,,59,0,9,,,,,,,,,,,,,,,,12,,85,0
6059,note_on,,0,0,11,,,,,,,,,,,,,,,,15,,73,0
6060,note_on,,1,0,11,,,,,,,,,,,,,,,,15,,74,48
6060,note_on,,1,0,9,,,,,,,,,,,,,,,,12,,86,48
6060,note_on,,0,0,11,,,,,,,,,,,,,,,,15,,62,48
6060,note_on,,1,0,10,,,,,,,,,,,,,,,,13,,62,48
6060,note_on,,1,0,7,,,,,,,,,,,,,,,,10,,74,48
6060,note_on,,1,0,8,,,,,,,,,,,,,,,,11,,74,48
6060,note_on,,1,0,5,,,,,,,,,,,,,,,,2,,62,48
6060,note_on,,1,0,6,,,,,,,,,,,,,,,,8,,62,70
6179,note_on,,119,0,10,,,,,,,,,,,,,,,,13,,62,0
6179,note_on,,119,0,5,,,,,,,,,,,,,,,,2,,62,0
6179,note_on,,119,0,11,,,,,,,,,,,,,,,,15,,74,0
6179,note_on,,0,0,11,,,,,,,,,,,,,,,,15,,62,0
6240,note_on,,61,0,10,,,,,,,,,,,,,,,,13,,50,48
6240,note_on,,61,0,11,,,,,,,,,,,,,,,,15,,66,48
6240,note_on,,61,0,5,,,,,,,,,,,,,,,,2,,50,48
6240,note_on,,0,0,11,,,,,,,,,,,,,,,,15,,69,48
6240,note_on,,0,0,11,,,,,,,,,,,,,,,,15,,50,48
6240,note_on,,0,0,11,,,,,,,,,,,,,,,,15,,57,48
6240,note_on,,0,0,11,,,,,,,,,,,,,,,,15,,62,48
6299,note_on,,59,0,10,,,,,,,,,,,,,,,,13,,50,0
6299,note_on,,0,0,11,,,,,,,,,,,,,,,,15,,50,0
6299,note_on,,0,0,11,,,,,,,,,,,,,,,,15,,62,0
6299,note_on,,0,0,11,,,,,,,,,,,,,,,,15,,57,0
6299,note_on,,0,0,11,,,,,,,,,,,,,,,,15,,69,0
6299,note_on,,59,0,5,,,,,,,,,,,,,,,,2,,50,0
6299,note_on,,59,0,11,,,,,,,,,,,,,,,,15,,66,0
6300,note_on,,1,0,11,,,,,,,,,,,,,,,,15,,62,48
6300,note_on,,0,0,11,,,,,,,,,,,,,,,,15,,71,48
6300,note_on,,0,0,11,,,,,,,,,,,,,,,,15,,67,48
6300,note_on,,0,0,11,,,,,,,,,,,,,,,,15,,55,48
6300,note_on,,1,0,10,,,,,,,,,,,,,,,,13,,55,48
6300,note_on,,1,0,5,,,,,,,,,,,,,,,,2,,55,48
6359,note_on,,0,0,11,,,,,,,,,,,,,,,,15,,55,0
6359,note_on,,59,0,11,,,,,,,,,,,,,,,,15,,71,0
6359,note_on,,59,0,5,,,,,,,,,,,,,,,,2,,55,0
6359,note_on,,59,0,10,,,,,,,,,,,,,,,,13,,55,0
6360,note_on,,1,0,10,,,,,,,,,,,,,,,,13,,54,48
6360,note_on,,1,0,11,,,,,,,,,,,,,,,,15,,54,48
6360,note_on,,0,0,11,,,,,,,,,,,,,,,,15,,69,48
6360,note_on,,1,0,5,,,,,,,,,,,,,,,,2,,54,48
6419,note_on,,59,0,5,,,,,,,,,,,,,,,,2,,54,0
6419,note_on,,59,0,10,,,,,,,,,,,,,,,,13,,54,0
6419,note_on,,59,0,11,,,,,,,,,,,,,,,,15,,54,0
6419,note_on,,0,0,11,,,,,,,,,,,,,,,,15,,69,0
6420,note_on,,1,0,5,,,,,,,,,,,,,,,,2,,55,48
6420,note_on,,1,0,10,,,,,,,,,,,,,,,,13,,55,48
6420,note_on,,1,0,11,,,,,,,,,,,,,,,,15,,71,48
6420,note_on,,0,0,11,,,,,,,,,,,,,,,,15,,55,48
6479,note_on,,59,0,10,,,,,,,,,,,,,,,,13,,55,0
6479,note_on,,0,0,11,,,,,,,,,,,,,,,,15,,55,0
6479,note_on,,59,0,5,,,,,,,,,,,,,,,,2,,55,0
6479,note_on,,59,0,11,,,,,,,,,,,,,,,,15,,71,0
6480,note_on,,1,0,5,,,,,,,,,,,,,,,,2,,54,48
6480,note_on,,0,0,11,,,,,,,,,,,,,,,,15,,69,48
6480,note_on,,1,0,10,,,,,,,,,,,,,,,,13,,54,48
6480,note_on,,1,0,11,,,,,,,,,,,,,,,,15,,54,48
6539,note_on,,59,0,10,,,,,,,,,,,,,,,,13,,54,0
6539,note_on,,59,0,11,,,,,,,,,,,,,,,,15,,67,0
6539,note_on,,0,0,11,,,,,,,,,,,,,,,,15,,54,0
6539,note_on,,0,0,11,,,,,,,,,,,,,,,,15,,69,0
6539,note_on,,59,0,5,,,,,,,,,,,,,,,,2,,54,0
6540,note_on,,1,0,11,,,,,,,,,,,,,,,,15,,71,48
6540,note_on,,0,0,11,,,,,,,,,,,,,,,,15,,55,48
6540,note_on,,1,0,5,,,,,,,,,,,,,,,,2,,55,48
6540,note_on,,1,0,10,,,,,,,,,,,,,,,,13,,55,48
6599,note_on,,59,0,5,,,,,,,,,,,,,,,,2,,55,0
6599,note_on,,0,0,11,,,,,,,,,,,,,,,,15,,55,0
6599,note_on,,59,0,10,,,,,,,,,,,,,,,,13,,55,0
6599,note_on,,0,0,11,,,,,,,,,,,,,,,,15,,71,0
6599,note_on,,59,0,11,,,,,,,,,,,,,,,,15,,62,0
6600,note_on,,1,0,5,,,,,,,,,,,,,,,,2,,57,48
6600,note_on,,1,0,10,,,,,,,,,,,,,,,,13,,57,48
6600,note_on,,1,0,11,,,,,,,,,,,,,,,,15,,66,48
6600,note_on,,0,0,11,,,,,,,,,,,,,,,,15,,57,48
6600,note_on,,0,0,11,,,,,,,,,,,,,,,,15,,60,48
6659,note_on,,0,0,11,,,,,,,,,,,,,,,,15,,60,0
6659,note_on,,59,0,5,,,,,,,,,,,,,,,,2,,57,0
6659,note_on,,599,0,7,,,,,,,,,,,,,,,,10,,74,0
6659,note_on,,599,0,6,,,,,,,,,,,,,,,,8,,62,0
6659,note_on,,599,0,9,,,,,,,,,,,,,,,,12,,86,0
6659,note_on,,59,0,11,,,,,,,,,,,,,,,,15,,66,0
6659,note_on,,0,0,11,,,,,,,,,,,,,,,,15,,57,0
6659,note_on,,599,0,8,,,,,,,,,,,,,,,,11,,74,0
6659,note_on,,59,0,10,,,,,,,,,,,,,,,,13,,57,0
6660,note_on,,1,0,5,,,,,,,,,,,,,,,,2,,59,48
6660,note_on,,1,0,11,,,,,,,,,,,,,,,,15,,59,48
6660,note_on,,0,0,11,,,,,,,,,,,,,,,,15,,67,48
6660,note_on,,0,0,11,,,,,,,,,,,,,,,,15,,62,48
6660,note_on,,1,0,10,,,,,,,,,,,,,,,,13,,59,48
6719,note_on,,59,0,11,,,,,,,,,,,,,,,,15,,59,0
6719,note_on,,0,0,11,,,,,,,,,,,,,,,,15,,62,0
6719,note_on,,59,0,10,,,,,,,,,,,,,,,,13,,59,0
6719,note_on,,59,0,5,,,,,,,,,,,,,,,,2,,59,0
6720,note_on,,1,0,10,,,,,,,,,,,,,,,,13,,47,48
6720,note_on,,61,0,8,,,,,,,,,,,,,,,,11,,62,48
6720,note_on,,1,0,11,,,,,,,,,,,,,,,,15,,62,48
6720,note_on,,0,0,11,,,,,,,,,,,,,,,,15,,55,48
6720,note_on,,0,0,11,,,,,,,,,,,,,,,,15,,47,48
6720,note_on,,1,0,5,,,,,,,,,,,,,,,,2,,47,48
6720,note_on,,61,0,6,,,,,,,,,,,,,,,,8,,50,72
6720,note_on,,61,0,7,,,,,,,,,,,,,,,,10,,62,48
6720,note_on,,61,0,9,,,,,,,,,,,,,,,,12,,74,48
6779,note_on,,59,0,5,,,,,,,,,,,,,,,,2,,47,0
6779,note_on,,59,0,7,,,,,,,,,,,,,,,,10,,62,0
6779,note_on,,59,0,9,,,,,,,,,,,,,,,,12,,74,0
6779,note_on,,0,0,11,,,,,,,,,,,,,,,,15,,47,0
6779,note_on,,0,0,11,,,,,,,,,,,,,,,,15,,55,0
6779,note_on,,0,0,11,,,,,,,,,,,,,,,,15,,62,0
6779,note_on,,59,0,11,,,,,,,,,,,,,,,,15,,67,0
6779,note_on,,59,0,6,,,,,,,,,,,,,,,,8,,50,0
6779,note_on,,59,0,8,,,,,,,,,,,,,,,,11,,62,0
6779,note_on,,59,0,10,,,,,,,,,,,,,,,,13,,47,0
6780,note_on,,1,0,6,,,,,,,,,,,,,,,,8,,52,69
6780,note_on,,1,0,9,,,,,,,,,,,,,,,,12,,76,48
6780,note_on,,1,0,7,,,,,,,,,,,,,,,,10,,64,48
6780,note_on,,0,0,11,,,,,,,,,,,,,,,,15,,67,48
6780,note_on,,0,0,11,,,,,,,,,,,,,,,,15,,55,48
6780,note_on,,0,0,11,,,,,,,,,,,,,,,,15,,64,48
6780,note_on,,1,0,11,,,,,,,,,,,,,,,,15,,48,48
6780,note_on,,1,0,10,,,,,,,,,,,,,,,,13,,48,48
6780,note_on,,1,0,5,,,,,,,,,,,,,,,,2,,48,48
6780,note_on,,1,0,8,,,,,,,,,,,,,,,,11,,64,48
6839,note_on,,59,0,7,,,,,,,,,,,,,,,,10,,64,0
6839,note_on,,59,0,10,,,,,,,,,,,,,,,,13,,48,0
6839,note_on,,59,0,6,,,,,,,,,,,,,,,,8,,52,0
6839,note_on,,59,0,5,,,,,,,,,,,,,,,,2,,48,0
6839,note_on,,59,0,11,,,,,,,,,,,,,,,,15,,48,0
6839,note_on,,0,0,11,,,,,,,,,,,,,,,,15,,64,0
6839,note_on,,59,0,9,,,,,,,,,,,,,,,,12,,76,0
6839,note_on,,59,0,8,,,,,,,,,,,,,,,,11,,64,0
6840,note_on,,1,0,8,,,,,,,,,,,,,,,,11,,62,48
6840,note_on,,1,0,11,,,,,,,,,,,,,,,,15,,47,48
6840,note_on,,0,0,11,,,,,,,,,,,,,,,,15,,62,48
6840,note_on,,1,0,7,,,,,,,,,,,,,,,,10,,62,48
6840,note_on,,1,0,5,,,,,,,,,,,,,,,,2,,47,48
6840,note_on,,1,0,10,,,,,,,,,,,,,,,,13,,47,48
6840,note_on,,1,0,6,,,,,,,,,,,,,,,,8,,50,73
6840,note_on,,1,0,9,,,,,,,,,,,,,,,,12,,74,48
6899,note_on,,0,0,11,,,,,,,,,,,,,,,,15,,62,0
6899,note_on,,59,0,11,,,,,,,,,,,,,,,,15,,47,0
6899,note_on,,59,0,6,,,,,,,,,,,,,,,,8,,50,0
6899,note_on,,59,0,5,,,,,,,,,,,,,,,,2,,47,0
6899,note_on,,59,0,7,,,,,,,,,,,,,,,,10,,62,0
6899,note_on,,59,0,8,,,,,,,,,,,,,,,,11,,62,0
6899,note_on,,59,0,9,,,,,,,,,,,,,,,,12,,74,0
6899,note_on,,59,0,10,,,,,,,,,,,,,,,,13,,47,0
6900,note_on,,1,0,8,,,,,,,,,,,,,,,,11,,64,48
6900,note_on,,1,0,9,,,,,,,,,,,,,,,,12,,76,48
6900,note_on,,1,0,11,,,,,,,,,,,,,,,,15,,64,48
6900,note_on,,1,0,6,,,,,,,,,,,,,,,,8,,52,68
6900,note_on,,0,0,11,,,,,,,,,,,,,,,,15,,48,48
6900,note_on,,1,0,7,,,,,,,,,,,,,,,,10,,64,48
6900,note_on,,1,0,10,,,,,,,,,,,,,,,,13,,48,48
6900,note_on,,1,0,5,,,,,,,,,,,,,,,,2,,48,48
6959,note_on,,59,0,11,,,,,,,,,,,,,,,,15,,55,0
6959,note_on,,0,0,11,,,,,,,,,,,,,,,,15,,67,0
6959,note_on,,59,0,10,,,,,,,,,,,,,,,,13,,48,0
6959,note_on,,59,0,5,,,,,,,,,,,,,,,,2,,48,0
6959,note_on,,0,0,11,,,,,,,,,,,,,,,,15,,64,0
6959,note_on,,59,0,8,,,,,,,,,,,,,,,,11,,64,0
6959,note_on,,0,0,11,,,,,,,,,,,,,,,,15,,48,0
6959,note_on,,59,0,7,,,,,,,,,,,,,,,,10,,64,0
6959,note_on,,59,0,6,,,,,,,,,,,,,,,,8,,52,0
6959,note_on,,59,0,9,,,,,,,,,,,,,,,,12,,76,0
6960,note_on,,1,0,11,,,,,,,,,,,,,,,,15,,60,48
6960,note_on,,0,0,11,,,,,,,,,,,,,,,,15,,66,48
6960,note_on,,1,0,5,,,,,,,,,,,,,,,,2,,45,48
6960,note_on,,0,0,11,,,,,,,,,,,,,,,,15,,45,48
6960,note_on,,0,0,11,,,,,,,,,,,,,,,,15,,69,48
6960,note_on,,1,0,6,,,,,,,,,,,,,,,,8,,54,71
6960,note_on,,1,0,9,,,,,,,,,,,,,,,,12,,78,48
6960,note_on,,1,0,8,,,,,,,,,,,,,,,,11,,66,48
6960,note_on,,1,0,10,,,,,,,,,,,,,,,,13,,45,48
6960,note_on,,1,0,7,,,,,,,,,,,,,,,,10,,66,48
7019,note_on,,59,0,11,,,,,,,,,,,,,,,,15,,60,0
7019,note_on,,59,0,7,,,,,,,,,,,,,,,,10,,66,0
7019,note_on,,59,0,10,,,,,,,,,,,,,,,,13,,45,0
7019,note_on,,0,0,11,,,,,,,,,,,,,,,,15,,66,0
7019,note_on,,59,0,8,,,,,,,,,,,,,,,,11,,66,0
7019,note_on,,59,0,6,,,,,,,,,,,,,,,,8,,54,0
7019,note_on,,59,0,5,,,,,,,,,,,,,,,,2,,45,0
7019,note_on,,0,0,11,,,,,,,,,,,,,,,,15,,45,0
7019,note_on,,0,0,11,,,,,,,,,,,,,,,,15,,69,0
7019,note_on,,59,0,9,,,,,,,,,,,,,,,,12,,78,0
7020,note_on,,1,0,6,,,,,,,,,,,,,,,,8,,55,72
7020,note_on,,1,0,11,,,,,,,,,,,,,,,,15,,62,48
7020,note_on,,1,0,7,,,,,,,,,,,,,,,,10,,67,48
7020,note_on,,1,0,9,,,,,,,,,,,,,,,,12,,79,48
7020,note_on,,1,0,10,,,,,,,,,,,,,,,,13,,47,48
7020,note_on,,0,0,11,,,,,,,,,,,,,,,,15,,55,48
7020,note_on,,0,0,11,,,,,,,,,,,,,,,,15,,59,48
7020,note_on,,1,0,5,,,,,,,,,,,,,,,,2,,47,48
7020,note_on,,0,0,11,,,,,,,,,,,,,,,,15,,47,48
7020,note_on,,1,0,8,,,,,,,,,,,,,,,,11,,67,48
7079,note_on,,59,0,6,,,,,,,,,,,,,,,,8,,55,0
7079,note_on,,59,0,5,,,,,,,,,,,,,,,,2,,47,0
7079,note_on,,59,0,10,,,,,,,,,,,,,,,,13,,47,0
7079,note_on,,59,0,8,,,,,,,,,,,,,,,,11,,67,0
7079,note_on,,59,0,9,,,,,,,,,,,,,,,,12,,79,0
7079,note_on,,59,0,7,,,,,,,,,,,,,,,,10,,67,0
7079,note_on,,0,0,11,,,,,,,,,,,,,,,,15,,47,0
7079,note_on,,59,0,11,,,,,,,,,,,,,,,,15,,62,0
7080,note_on,,1,0,8,,,,,,,,,,,,,,,,11,,66,48
7080,note_on,,1,0,7,,,,,,,,,,,,,,,,10,,66,48
7080,note_on,,1,0,6,,,,,,,,,,,,,,,,8,,54,68
7080,note_on,,1,0,11,,,,,,,,,,,,,,,,15,,60,48
7080,note_on,,1,0,5,,,,,,,,,,,,,,,,2,,45,48
7080,note_on,,1,0,9,,,,,,,,,,,,,,,,12,,78,48
7080,note_on,,1,0,10,,,,,,,,,,,,,,,,13,,45,48
7080,note_on,,0,0,11,,,,,,,,,,,,,,,,15,,45,48
7139,note_on,,59,0,6,,,,,,,,,,,,,,,,8,,54,0
7139,note_on,,59,0,10,,,,,,,,,,,,,,,,13,,45,0
7139,note_on,,0,0,11,,,,,,,,,,,,,,,,15,,45,0
7139,note_on,,59,0,11,,,,,,,,,,,,,,,,15,,60,0
7139,note_on,,59,0,8,,,,,,,,,,,,,,,,11,,66,0
7139,note_on,,59,0,9,,,,,,,,,,,,,,,,12,,78,0
7139,note_on,,59,0,5,,,,,,,,,,,,,,,,2,,45,0
7139,note_on,,59,0,7,,,,,,,,,,,,,,,,10,,66,0
7140,note_on,,1,0,11,,,,,,,,,,,,,,,,15,,47,48
7140,note_on,,1,0,5,,,,,,,,,,,,,,,,2,,47,48
7140,note_on,,1,0,10,,,,,,,,,,,,,,,,13,,47,48
7140,note_on,,1,0,9,,,,,,,,,,,,,,,,12,,79,48
7140,note_on,,0,0,11,,,,,,,,,,,,,,,,15,,62,48
7140,note_on,,1,0,6,,,,,,,,,,,,,,,,8,,55,74
7140,note_on,,1,0,8,,,,,,,,,,,,,,,,11,,67,48
7140,note_on,,1,0,7,,,,,,,,,,,,,,,,10,,67,48
7199,note_on,,59,0,7,,,,,,,,,,,,,,,,10,,67,0
7199,note_on,,59,0,9,,,,,,,,,,,,,,,,12,,79,0
7199,note_on,,59,0,6,,,,,,,,,,,,,,,,8,,55,0
7199,note_on,,59,0,5,,,,,,,,,,,,,,,,2,,47,0
7199,note_on,,0,0,11,,,,,,,,,,,,,,,,15,,47,0
7199,note_on,,0,0,11,,,,,,,,,,,,,,,,15,,59,0
7199,note_on,,59,0,11,,,,,,,,,,,,,,,,15,,55,0
7199,note_on,,59,0,10,,,,,,,,,,,,,,,,13,,47,0
7199,note_on,,59,0,8,,,,,,,,,,,,,,,,11,,67,0
7199,note_on,,0,0,11,,,,,,,,,,,,,,,,15,,62,0
7200,note_on,,1,0,9,,,,,,,,,,,,,,,,12,,81,48
7200,note_on,,0,0,11,,,,,,,,,,,,,,,,15,,62,48
7200,note_on,,1,0,7,,,,,,,,,,,,,,,,10,,69,48
7200,note_on,,1,0,6,,,,,,,,,,,,,,,,8,,57,75
7200,note_on,,1,0,10,,,,,,,,,,,,,,,,13,,42,48
7200,note_on,,0,0,11,,,,,,,,,,,,,,,,15,,74,48
7200,note_on,,1,0,8,,,,,,,,,,,,,,,,11,,69,48
7200,note_on,,1,0,5,,,,,,,,,,,,,,,,2,,42,48
7200,note_on,,0,0,11,,,,,,,,,,,,,,,,15,,42,48
7200,note_on,,1,0,11,,,,,,,,,,,,,,,,15,,69,48
7259,note_on,,0,0,11,,,,,,,,,,,,,,,,15,,62,0
7259,note_on,,59,0,7,,,,,,,,,,,,,,,,10,,69,0
7259,note_on,,59,0,9,,,,,,,,,,,,,,,,12,,81,0
7259,note_on,,0,0,11,,,,,,,,,,,,,,,,15,,74,0
7259,note_on,,0,0,11,,,,,,,,,,,,,,,,15,,42,0
7259,note_on,,59,0,11,,,,,,,,,,,,,,,,15,,69,0
7259,note_on,,59,0,8,,,,,,,,,,,,,,,,11,,69,0
7259,note_on,,59,0,5,,,,,,,,,,,,,,,,2,,42,0
7259,note_on,,59,0,6,,,,,,,,,,,,,,,,8,,57,0
7259,note_on,,59,0,10,,,,,,,,,,,,,,,,13,,42,0
7260,note_on,,1,0,5,,,,,,,,,,,,,,,,2,,43,48
7260,note_on,,1,0,7,,,,,,,,,,,,,,,,10,,71,48
7260,note_on,,1,0,9,,,,,,,,,,,,,,,,12,,83,48
7260,note_on,,0,0,11,,,,,,,,,,,,,,,,15,,62,48
7260,note_on,,0,0,11,,,,,,,,,,,,,,,,15,,43,48
7260,note_on,,1,0,10,,,,,,,,,,,,,,,,13,,43,48
7260,note_on,,1,0,11,,,,,,,,,,,,,,,,15,,71,48
7260,note_on,,1,0,8,,,,,,,,,,,,,,,,11,,71,48
7260,note_on,,0,0,11,,,,,,,,,,,,,,,,15,,74,48
7260,note_on,,1,0,6,,,,,,,,,,,,,,,,8,,59,71
7319,note_on,,59,0,10,,,,,,,,,,,,,,,,13,,43,0
7319,note_on,,59,0,5,,,,,,,,,,,,,,,,2,,43,0
7319,note_on,,59,0,9,,,,,,,,,,,,,,,,12,,83,0
7319,note_on,,59,0,11,,,,,,,,,,,,,,,,15,,71,0
7319,note_on,,0,0,11,,,,,,,,,,,,,,,,15,,43,0
7319,note_on,,59,0,7,,,,,,,,,,,,,,,,10,,71,0
7319,note_on,,59,0,6,,,,,,,,,,,,,,,,8,,59,0
7319,note_on,,59,0,8,,,,,,,,,,,,,,,,11,,71,0
7320,note_on,,1,0,10,,,,,,,,,,,,,,,,13,,42,48
7320,note_on,,1,0,11,,,,,,,,,,,,,,,,15,,69,48
7320,note_on,,0,0,11,,,,,,,,,,,,,,,,15,,42,48
7320,note_on,,1,0,6,,,,,,,,,,,,,,,,8,,57,70
7320,note_on,,1,0,5,,,,,,,,,,,,,,,,2,,42,48
7320,note_on,,1,0,9,,,,,,,,,,,,,,,,12,,81,48
7320,note_on,,1,0,8,,,,,,,,,,,,,,,,11,,69,48
7320,note_on,,1,0,7,,,,,,,,,,,,,,,,10,,69,48
7379,note_on,,59,0,11,,,,,,,,,,,,,,,,15,,69,0
7379,note_on,,59,0,7,,,,,,,,,,,,,,,,10,,69,0
7379,note_on,,59,0,5,,,,,,,,,,,,,,,,2,,42,0
7379,note_on,,59,0,6,,,,,,,,,,,,,,,,8,,57,0
7379,note_on,,59,0,8,,,,,,,,,,,,,,,,11,,69,0
7379,note_on,,0,0,11,,,,,,,,,,,,,,,,15,,42,0
7379,note_on,,59,0,10,,,,,,,,,,,,,,,,13,,42,0
7379,note_on,,59,0,9,,,,,,,,,,,,,,,,12,,81,0
7380,note_on,,1,0,11,,,,,,,,,,,,,,,,15,,43,48
7380,note_on,,1,0,9,,,,,,,,,,,,,,,,12,,83,48
7380,note_on,,1,0,10,,,,,,,,,,,,,,,,13,,43,48
7380,note_on,,1,0,5,,,,,,,,,,,,,,,,2,,43,48
7380,note_on,,1,0,8,,,,,,,,,,,,,,,,11,,71,48
7380,note_on,,1,0,7,,,,,,,,,,,,,,,,10,,71,48
7380,note_on,,0,0,11,,,,,,,,,,,,,,,,15,,71,48
7380,note_on,,1,0,6,,,,,,,,,,,,,,,,8,,59,74
7439,note_on,,59,0,6,,,,,,,,,,,,,,,,8,,59,0
7439,note_on,,59,0,8,,,,,,,,,,,,,,,,11,,71,0
7439,note_on,,59,0,7,,,,,,,,,,,,,,,,10,,71,0
7439,note_on,,59,0,10,,,,,,,,,,,,,,,,13,,43,0
7439,note_on,,59,0,5,,,,,,,,,,,,,,,,2,,43,0
7439,note_on,,59,0,11,,,,,,,,,,,,,,,,15,,74,0
7439,note_on,,0,0,11,,,,,,,,,,,,,,,,15,,62,0
7439,note_on,,0,0,11,,,,,,,,,,,,,,,,15,,43,0
7439,note_on,,59,0,9,,,,,,,,,,,,,,,,12,,83,0
7439,note_on,,0,0,11,,,,,,,,,,,,,,,,15,,71,0
7440,note_on,,1,0,9,,,,,,,,,,,,,,,,12,,84,48
7440,note_on,,1,0,6,,,,,,,,,,,,,,,,8,,60,70
7440,note_on,,1,0,10,,,,,,,,,,,,,,,,13,,45,48
7440,note_on,,0,0,11,,,,,,,,,,,,,,,,15,,60,48
7440,note_on,,0,0,11,,,,,,,,,,,,,,,,15,,66,48
7440,note_on,,1,0,5,,,,,,,,,,,,,,,,2,,45,48
7440,note_on,,1,0,11,,,,,,,,,,,,,,,,15,,69,48
7440,note_on,,1,0,8,,,,,,,,,,,,,,,,11,,72,48
7440,note_on,,1,0,7,,,,,,,,,,,,,,,,10,,72,48
7440,note_on,,0,0,11,,,,,,,,,,,,,,,,15,,45,48
7499,note_on,,59,0,11,,,,,,,,,,,,,,,,15,,69,0
7499,note_on,,0,0,11,,,,,,,,,,,,,,,,15,,66,0
7499,note_on,,0,0,11,,,,,,,,,,,,,,,,15,,60,0
7499,note_on,,59,0,6,,,,,,,,,,,,,,,,8,,60,0
7499,note_on,,0,0,11,,,,,,,,,,,,,,,,15,,45,0
7499,note_on,,59,0,5,,,,,,,,,,,,,,,,2,,45,0
7499,note_on,,59,0,8,,,,,,,,,,,,,,,,11,,72,0
7499,note_on,,59,0,9,,,,,,,,,,,,,,,,12,,84,0
7499,note_on,,59,0,10,,,,,,,,,,,,,,,,13,,45,0
7499,note_on,,59,0,7,,,,,,,,,,,,,,,,10,,72,0
7500,note_on,,0,0,11,,,,,,,,,,,,,,,,15,,67,48
7500,note_on,,0,0,11,,,,,,,,,,,,,,,,15,,62,48
7500,note_on,,1,0,11,,,,,,,,,,,,,,,,15,,59,48
7500,note_on,,1,0,5,,,,,,,,,,,,,,,,2,,47,48
7500,note_on,,0,0,11,,,,,,,,,,,,,,,,15,,47,48
7500,note_on,,1,0,9,,,,,,,,,,,,,,,,12,,86,48
7500,note_on,,1,0,10,,,,,,,,,,,,,,,,13,,47,48
7500,note_on,,1,0,7,,,,,,,,,,,,,,,,10,,74,48
7500,note_on,,1,0,8,,,,,,,,,,,,,,,,11,,74,48
7500,note_on,,1,0,6,,,,,,,,,,,,,,,,8,,62,68
7559,note_on,,59,0,9,,,,,,,,,,,,,,,,12,,86,0
7559,note_on,,59,0,6,,,,,,,,,,,,,,,,8,,62,0
7559,note_on,,59,0,5,,,,,,,,,,,,,,,,2,,47,0
7559,note_on,,0,0,11,,,,,,,,,,,,,,,,15,,67,0
7559,note_on,,59,0,11,,,,,,,,,,,,,,,,15,,59,0
7559,note_on,,0,0,11,,,,,,,,,,,,,,,,15,,62,0
7559,note_on,,59,0,7,,,,,,,,,,,,,,,,10,,74,0
7559,note_on,,59,0,10,,,,,,,,,,,,,,,,13,,47,0
7559,note_on,,0,0,11,,,,,,,,,,,,,,,,15,,47,0
7559,note_on,,59,0,8,,,,,,,,,,,,,,,,11,,74,0
7560,note_on,,1,0,11,,,,,,,,,,,,,,,,15,,66,48
7560,note_on,,0,0,11,,,,,,,,,,,,,,,,15,,60,48
7560,note_on,,1,0,6,,,,,,,,,,,,,,,,8,,54,73
7560,note_on,,0,0,11,,,,,,,,,,,,,,,,15,,69,48
7560,note_on,,1,0,9,,,,,,,,,,,,,,,,12,,78,48
7560,note_on,,1,0,5,,,,,,,,,,,,,,,,2,,45,48
7560,note_on,,0,0,11,,,,,,,,,,,,,,,,15,,45,48
7560,note_on,,1,0,7,,,,,,,,,,,,,,,,10,,66,48
7560,note_on,,1,0,10,,,,,,,,,,,,,,,,13,,45,48
7560,note_on,,1,0,8,,,,,,,,,,,,,,,,11,,66,48
7619,note_on,,0,0,11,,,,,,,,,,,,,,,,15,,45,0
7619,note_on,,59,0,5,,,,,,,,,,,,,,,,2,,45,0
7619,note_on,,59,0,7,,,,,,,,,,,,,,,,10,,66,0
7619,note_on,,59,0,8,,,,,,,,,,,,,,,,11,,66,0
7619,note_on,,0,0,11,,,,,,,,,,,,,,,,15,,60,0
7619,note_on,,0,0,11,,,,,,,,,,,,,,,,15,,69,0
7619,note_on,,59,0,6,,,,,,,,,,,,,,,,8,,54,0
7619,note_on,,59,0,10,,,,,,,,,,,,,,,,13,,45,0
7619,note_on,,59,0,9,,,,,,,,,,,,,,,,12,,78,0
7619,note_on,,59,0,11,,,,,,,,,,,,,,,,15,,66,0
7620,note_on,,0,0,11,,,,,,,,,,,,,,,,15,,62,48
7620,note_on,,0,0,11,,,,,,,,,,,,,,,,15,,47,48
7620,note_on,,0,0,11,,,,,,,,,,,,,,,,15,,59,48
7620,note_on,,1,0,8,,,,,,,,,,,,,,,,11,,67,48
7620,note_on,,1,0,6,,,,,,,,,,,,,,,,8,,55,73
7620,note_on,,1,0,5,,,,,,,,,,,,,,,,2,,47,48
7620,note_on,,1,0,9,,,,,,,,,,,,,,,,12,,79,48
7620,note_on,,1,0,7,,,,,,,,,,,,,,,,10,,67,48
7620,note_on,,1,0,11,,,,,,,,,,,,,,,,15,,55,48
7620,note_on,,1,0,10,,,,,,,,,,,,,,,,13,,47,48
7679,note_on,,59,0,10,,,,,,,,,,,,,,,,13,,47,0
7679,note_on,,0,0,11,,,,,,,,,,,,,,,,15,,47,0
7679,note_on,,0,0,11,,,,,,,,,,,,,,,,15,,62,0
7679,note_on,,59,0,9,,,,,,,,,,,,,,,,12,,79,0
7679,note_on,,59,0,7,,,,,,,,,,,,,,,,10,,67,0
7679,note_on,,59,0,6,,,,,,,,,,,,,,,,8,,55,0
7679,note_on,,59,0,11,,,,,,,,,,,,,,,,15,,55,0
7679,note_on,,59,0,8,,,,,,,,,,,,,,,,11,,67,0
7679,note_on,,0,0,11,,,,,,,,,,,,,,,,15,,59,0
7679,note_on,,59,0,5,,,,,,,,,,,,,,,,2,,47,0
7680,note_on,,1,0,5,,,,,,,,,,,,,,,,2,,48,48
7680,note_on,,1,0,6,,,,,,,,,,,,,,,,8,,48,74
7680,note_on,,1,0,7,,,,,,,,,,,,,,,,10,,60,48
7680,note_on,,1,0,11,,,,,,,,,,,,,,,,15,,55,48
7680,note_on,,0,0,11,,,,,,,,,,,,,,,,15,,64,48
7680,note_on,,0,0,11,,,,,,,,,,,,,,,,15,,57,48
7680,note_on,,0,0,11,,,,,,,,,,,,,,,,15,,48,48
7680,note_on,,1,0,8,,,,,,,,,,,,,,,,11,,60,48
7680,note_on,,1,0,10,,,,,,,,,,,,,,,,13,,48,48
7680,note_on,,1,0,9,,,,,,,,,,,,,,,,12,,72,48
7739,note_on,,59,0,9,,,,,,,,,,,,,,,,12,,72,0
7739,note_on,,59,0,5,,,,,,,,,,,,,,,,2,,48,0
7739,note_on,,59,0,8,,,,,,,,,,,,,,,,11,,60,0
7739,note_on,,59,0,10,,,,,,,,,,,,,,,,13,,48,0
7739,note_on,,59,0,6,,,,,,,,,,,,,,,,8,,48,0
7739,note_on,,0,0,11,,,,,,,,,,,,,,,,15,,48,0
7739,note_on,,0,0,11,,,,,,,,,,,,,,,,15,,57,0
7739,note_on,,0,0,11,,,,,,,,,,,,,,,,15,,64,0
7739,note_on,,59,0,7,,,,,,,,,,,,,,,,10,,60,0
7739,note_on,,59,0,11,,,,,,,,,,,,,,,,15,,55,0
7740,note_on,,0,0,11,,,,,,,,,,,,,,,,15,,62,48
7740,note_on,,1,0,8,,,,,,,,,,,,,,,,11,,62,48
7740,note_on,,1,0,9,,,,,,,,,,,,,,,,12,,74,48
7740,note_on,,0,0,11,,,,,,,,,,,,,,,,15,,59,48
7740,note_on,,1,0,5,,,,,,,,,,,,,,,,2,,50,48
7740,note_on,,1,0,7,,,,,,,,,,,,,,,,10,,62,48
7740,note_on,,1,0,10,,,,,,,,,,,,,,,,13,,50,48
7740,note_on,,1,0,6,,,,,,,,,,,,,,,,8,,50,70
7740,note_on,,0,0,11,,,,,,,,,,,,,,,,15,,55,48
7740,note_on,,1,0,11,,,,,,,,,,,,,,,,15,,50,48
7859,note_on,,119,0,9,,,,,,,,,,,,,,,,12,,74,0
7859,note_on,,119,0,10,,,,,,,,,,,,,,,,13,,50,0
7859,note_on,,0,0,11,,,,,,,,,,,,,,,,15,,55,0
7859,note_on,,119,0,7,,,,,,,,,,,,,,,,10,,62,0
7859,note_on,,0,0,11,,,,,,,,,,,,,,,,15,,62,0
7859,note_on,,119,0,5,,,,,,,,,,,,,,,,2,,50,0
7859,note_on,,0,0,11,,,,,,,,,,,,,,,,15,,59,0
7859,note_on,,119,0,6,,,,,,,,,,,,,,,,8,,50,0
7859,note_on,,119,0,11,,,,,,,,,,,,,,,,15,,50,0
7859,note_on,,119,0,8,,,,,,,,,,,,,,,,11,,62,0
7860,note_on,,1,0,10,,,,,,,,,,,,,,,,13,,38,48
7860,note_on,,1,0,9,,,,,,,,,,,,,,,,12,,79,48
7860,note_on,,1,0,6,,,,,,,,,,,,,,,,8,,59,75
7860,note_on,,0,0,11,,,,,,,,,,,,,,,,15,,67,48
7860,note_on,,0,0,11,,,,,,,,,,,,,,,,15,,38,48
7860,note_on,,0,0,11,,,,,,,,,,,,,,,,15,,62,48
7860,note_on,,1,0,5,,,,,,,,,,,,,,,,2,,38,48
7860,note_on,,1,0,8,,,,,,,,,,,,,,,,11,,67,48
7860,note_on,,1,0,7,,,,,,,,,,,,,,,,10,,67,48
7860,note_on,,1,0,11,,,,,,,,,,,,,,,,15,,59,48
7860,note_on,,0,0,11,,,,,,,,,,,,,,,,15,,50,48
7919,note_on,,0,0,11,,,,,,,,,,,,,,,,15,,67,0
7919,note_on,,59,0,6,,,,,,,,,,,,,,,,8,,59,0
7919,note_on,,59,0,8,,,,,,,,,,,,,,,,11,,67,0
7919,note_on,,59,0,9,,,,,,,,,,,,,,,,12,,79,0
7919,note_on,,59,0,7,,,,,,,,,,,,,,,,10,,67,0
7919,note_on,,59,0,11,,,,,,,,,,,,,,,,15,,59,0
7920,note_on,,1,0,9,,,,,,,,,,,,,,,,12,,78,48
7920,note_on,,0,0,11,,,,,,,,,,,,,,,,15,,57,48
7920,note_on,,1,0,6,,,,,,,,,,,,,,,,8,,57,70
7920,note_on,,1,0,11,,,,,,,,,,,,,,,,15,,66,48
7920,note_on,,1,0,8,,,,,,,,,,,,,,,,11,,66,48
7920,note_on,,1,0,7,,,,,,,,,,,,,,,,10,,66,48
7949,note_on,,29,0,6,,,,,,,,,,,,,,,,8,,57,0
7950,note_on,,1,0,6,,,,,,,,,,,,,,,,8,,55,74
7979,note_on,,119,0,10,,,,,,,,,,,,,,,,13,,38,0
7979,note_on,,59,0,8,,,,,,,,,,,,,,,,11,,66,0
7979,note_on,,59,0,11,,,,,,,,,,,,,,,,15,,38,0
7979,note_on,,59,0,9,,,,,,,,,,,,,,,,12,,78,0
7979,note_on,,59,0,7,,,,,,,,,,,,,,,,10,,66,0
7979,note_on,,0,0,11,,,,,,,,,,,,,,,,15,,50,0
7979,note_on,,119,0,5,,,,,,,,,,,,,,,,2,,38,0
7979,note_on,,0,0,11,,,,,,,,,,,,,,,,15,,57,0
7979,note_on,,0,0,11,,,,,,,,,,,,,,,,15,,66,0
7979,note_on,,29,0,6,,,,,,,,,,,,,,,,8,,55,0
7979,note_on,,0,0,11,,,,,,,,,,,,,,,,15,,62,0
7980,note_on,,1,0,11,,,,,,,,,,,,,,,,15,,62,48
7980,note_on,,1,0,9,,,,,,,,,,,,,,,,12,,67,48
7980,note_on,,0,0,11,,,,,,,,,,,,,,,,15,,43,48
7980,note_on,,1,0,10,,,,,,,,,,,,,,,,13,,43,48
7980,note_on,,1,0,5,,,,,,,,,,,,,,,,2,,43,48
7980,note_on,,1,0,8,,,,,,,,,,,,,,,,11,,67,48
7980,note_on,,1,0,6,,,,,,,,,,,,,,,,8,,55,70
7980,note_on,,0,0,11,,,,,,,,,,,,,,,,15,,59,48
7980,note_on,,0,0,11,,,,,,,,,,,,,,,,15,,67,48
7980,note_on,,1,0,7,,,,,,,,,,,,,,,,10,,67,48
7980,note_on,,0,0,11,,,,,,,,,,,,,,,,15,,50,48
8039,note_on,,59,0,7,,,,,,,,,,,,,,,,10,,67,0
8039,note_on,,59,0,8,,,,,,,,,,,,,,,,11,,67,0
8040,note_on,,1,0,7,,,,,,,,,,,,,,,,10,,71,72
8040,note_on,,1,0,8,,,,,,,,,,,,,,,,11,,71,72
8099,note_on,,119,0,10,,,,,,,,,,,,,,,,13,,43,0
8099,note_on,,119,0,5,,,,,,,,,,,,,,,,2,,43,0
8099,note_on,,119,0,9,,,,,,,,,,,,,,,,12,,67,0
8099,note_on,,0,0,11,,,,,,,,,,,,,,,,15,,43,0
8099,note_on,,0,0,11,,,,,,,,,,,,,,,,15,,50,0
8099,note_on,,0,0,11,,,,,,,,,,,,,,,,15,,67,0
8099,note_on,,0,0,11,,,,,,,,,,,,,,,,15,,59,0
8099,note_on,,119,0,11,,,,,,,,,,,,,,,,15,,62,0
8099,note_on,,59,0,7,,,,,,,,,,,,,,,,10,,71,0
8099,note_on,,59,0,8,,,,,,,,,,,,,,,,11,,71,0
8100,note_on,,1,0,7,,,,,,,,,,,,,,,,10,,74,72
8100,note_on,,1,0,8,,,,,,,,,,,,,,,,11,,74,72
8159,note_on,,59,0,7,,,,,,,,,,,,,,,,10,,74,0
8159,note_on,,59,0,8,,,,,,,,,,,,,,,,11,,74,0
8160,note_on,,0,0,11,,,,,,,,,,,,,,,,15,,47,72
8160,note_on,,0,0,11,,,,,,,,,,,,,,,,15,,62,72
8160,note_on,,0,0,11,,,,,,,,,,,,,,,,15,,55,72
8160,note_on,,61,0,9,,,,,,,,,,,,,,,,12,,71,72
8160,note_on,,1,0,8,,,,,,,,,,,,,,,,11,,79,72
8160,note_on,,61,0,11,,,,,,,,,,,,,,,,15,,67,72
8160,note_on,,61,0,10,,,,,,,,,,,,,,,,13,,47,72
8160,note_on,,0,0,11,,,,,,,,,,,,,,,,15,,59,72
8160,note_on,,1,0,7,,,,,,,,,,,,,,,,10,,79,72
8160,note_on,,61,0,5,,,,,,,,,,,,,,,,2,,47,72
8219,note_on,,59,0,5,,,,,,,,,,,,,,,,2,,47,0
8219,note_on,,59,0,8,,,,,,,,,,,,,,,,11,,79,0
8219,note_on,,0,0,11,,,,,,,,,,,,,,,,15,,59,0
8219,note_on,,59,0,10,,,,,,,,,,,,,,,,13,,47,0
8219,note_on,,59,0,9,,,,,,,,,,,,,,,,12,,71,0
8219,note_on,,59,0,7,,,,,,,,,,,,,,,,10,,79,0
8219,note_on,,0,0,11,,,,,,,,,,,,,,,,15,,55,0
8219,note_on,,0,0,11,,,,,,,,,,,,,,,,15,,62,0
8219,note_on,,0,0,11,,,,,,,,,,,,,,,,15,,47,0
8219,note_on,,59,0,11,,,,,,,,,,,,,,,,15,,67,0
8219,note_on,,239,0,6,,,,,,,,,,,,,,,,8,,55,0
8220,note_on,,0,0,11,,,,,,,,,,,,,,,,15,,48,72
8220,note_on,,0,0,11,,,,,,,,,,,,,,,,15,,67,72
8220,note_on,,1,0,10,,,,,,,,,,,,,,,,13,,48,72
8220,note_on,,1,0,11,,,,,,,,,,,,,,,,15,,64,72
8220,note_on,,1,0,5,,,,,,,,,,,,,,,,2,,48,72
8220,note_on,,0,0,11,,,,,,,,,,,,,,,,15,,60,72
8220,note_on,,1,0,7,,,,,,,,,,,,,,,,10,,76,72
8220,note_on,,1,0,9,,,,,,,,,,,,,,,,12,,72,72
8220,note_on,,1,0,8,,,,,,,,,,,,,,,,11,,76,72
8279,note_on,,59,0,7,,,,,,,,,,,,,,,,10,,76,0
8279,note_on,,59,0,8,,,,,,,,,,,,,,,,11,,76,0
8280,note_on,,1,0,8,,,,,,,,,,,,,,,,11,,67,72
8280,note_on,,1,0,7,,,,,,,,,,,,,,,,10,,67,72
8339,note_on,,59,0,7,,,,,,,,,,,,,,,,10,,67,0
8339,note_on,,119,0,9,,,,,,,,,,,,,,,,12,,72,0
8339,note_on,,119,0,5,,,,,,,,,,,,,,,,2,,48,0
8339,note_on,,119,0,10,,,,,,,,,,,,,,,,13,,48,0
8339,note_on,,119,0,11,,,,,,,,,,,,,,,,15,,64,0
8339,note_on,,59,0,8,,,,,,,,,,,,,,,,11,,67,0
8339,note_on,,0,0,11,,,,,,,,,,,,,,,,15,,60,0
8339,note_on,,0,0,11,,,,,,,,,,,,,,,,15,,48,0
8339,note_on,,0,0,11,,,,,,,,,,,,,,,,15,,67,0
8340,note_on,,1,0,5,,,,,,,,,,,,,,,,2,,50,72
8340,note_on,,1,0,7,,,,,,,,,,,,,,,,10,,66,72
8340,note_on,,0,0,11,,,,,,,,,,,,,,,,15,,50,72
8340,note_on,,0,0,11,,,,,,,,,,,,,,,,15,,62,72
8340,note_on,,0,0,11,,,,,,,,,,,,,,,,15,,66,72
8340,note_on,,1,0,11,,,,,,,,,,,,,,,,15,,57,72
8340,note_on,,1,0,8,,,,,,,,,,,,,,,,11,,66,72
8340,note_on,,1,0,10,,,,,,,,,,,,,,,,13,,50,72
8340,note_on,,1,0,9,,,,,,,,,,,,,,,,12,,74,72
8399,note_on,,59,0,8,,,,,,,,,,,,,,,,11,,66,0
8399,note_on,,59,0,7,,,,,,,,,,,,,,,,10,,66,0
8400,note_on,,1,0,7,,,,,,,,,,,,,,,,10,,78,72
8400,note_on,,1,0,8,,,,,,,,,,,,,,,,11,,78,72
8459,note_on,,59,0,7,,,,,,,,,,,,,,,,10,,78,0
8459,note_on,,0,0,11,,,,,,,,,,,,,,,,15,,50,0
8459,note_on,,119,0,10,,,,,,,,,,,,,,,,13,,50,0
8459,note_on,,119,0,9,,,,,,,,,,,,,,,,12,,74,0
8459,note_on,,0,0,11,,,,,,,,,,,,,,,,15,,66,0
8459,note_on,,119,0,11,,,,,,,,,,,,,,,,15,,57,0
8459,note_on,,119,0,5,,,,,,,,,,,,,,,,2,,50,0
8459,note_on,,59,0,8,,,,,,,,,,,,,,,,11,,78,0
8459,note_on,,0,0,11,,,,,,,,,,,,,,,,15,,62,0
8460,note_on,,1,0,8,,,,,,,,,,,,,,,,11,,79,72
8460,note_on,,1,0,10,,,,,,,,,,,,,,,,13,,52,72
8460,note_on,,1,0,9,,,,,,,,,,,,,,,,12,,76,72
8460,note_on,,0,0,11,,,,,,,,,,,,,,,,15,,55,72
8460,note_on,,1,0,11,,,,,,,,,,,,,,,,15,,64,72
8460,note_on,,0,0,11,,,,,,,,,,,,,,,,15,,52,72
8460,note_on,,1,0,5,,,,,,,,,,,,,,,,2,,52,72
8460,note_on,,1,0,7,,,,,,,,,,,,,,,,10,,79,72
8460,note_on,,0,0,11,,,,,,,,,,,,,,,,15,,59,72
8519,note_on,,59,0,7,,,,,,,,,,,,,,,,10,,79,0
8519,note_on,,59,0,8,,,,,,,,,,,,,,,,11,,79,0
8520,note_on,,1,0,7,,,,,,,,,,,,,,,,10,,74,72
8520,note_on,,1,0,8,,,,,,,,,,,,,,,,11,,74,72
8579,note_on,,119,0,5,,,,,,,,,,,,,,,,2,,52,0
8579,note_on,,59,0,7,,,,,,,,,,,,,,,,10,,74,0
8579,note_on,,119,0,9,,,,,,,,,,,,,,,,12,,76,0
8579,note_on,,119,0,10,,,,,,,,,,,,,,,,13,,52,0
8579,note_on,,119,0,11,,,,,,,,,,,,,,,,15,,64,0
8579,note_on,,0,0,11,,,,,,,,,,,,,,,,15,,52,0
8579,note_on,,0,0,11,,,,,,,,,,,,,,,,15,,59,0
8579,note_on,,0,0,11,,,,,,,,,,,,,,,,15,,55,0
8579,note_on,,59,0,8,,,,,,,,,,,,,,,,11,,74,0
8580,note_on,,1,0,7,,,,,,,,,,,,,,,,10,,72,72
8580,note_on,,1,0,11,,,,,,,,,,,,,,,,15,,54,72
8580,note_on,,0,0,11,,,,,,,,,,,,,,,,15,,57,72
8580,note_on,,0,0,11,,,,,,,,,,,,,,,,15,,62,72
8580,note_on,,0,0,11,,,,,,,,,,,,,,,,15,,69,72
8580,note_on,,1,0,9,,,,,,,,,,,,,,,,12,,78,72
8580,note_on,,1,0,5,,,,,,,,,,,,,,,,2,,54,72
8580,note_on,,1,0,10,,,,,,,,,,,,,,,,13,,54,72
8580,note_on,,1,0,8,,,,,,,,,,,,,,,,11,,72,72
8639,note_on,,59,0,8,,,,,,,,,,,,,,,,11,,72,0
8639,note_on,,59,0,7,,,,,,,,,,,,,,,,10,,72,0
8640,note_on,,1,0,7,,,,,,,,,,,,,,,,10,,81,72
8640,note_on,,1,0,8,,,,,,,,,,,,,,,,11,,81,72
8699,note_on,,119,0,11,,,,,,,,,,,,,,,,15,,54,0
8699,note_on,,119,0,9,,,,,,,,,,,,,,,,12,,78,0
8699,note_on,,119,0,10,,,,,,,,,,,,,,,,13,,54,0
8699,note_on,,0,0,11,,,,,,,,,,,,,,,,15,,62,0
8699,note_on,,119,0,5,,,,,,,,,,,,,,,,2,,54,0
8699,note_on,,59,0,7,,,,,,,,,,,,,,,,10,,81,0
8699,note_on,,59,0,8,,,,,,,,,,,,,,,,11,,81,0
8699,note_on,,0,0,11,,,,,,,,,,,,,,,,15,,69,0
8699,note_on,,0,0,11,,,,,,,,,,,,,,,,15,,57,0
8700,note_on,,1,0,10,,,,,,,,,,,,,,,,13,,55,72
8700,note_on,,1,0,9,,,,,,,,,,,,,,,,12,,79,72
8700,note_on,,1,0,8,,,,,,,,,,,,,,,,11,,71,72
8700,note_on,,1,0,5,,,,,,,,,,,,,,,,2,,55,72
8700,note_on,,1,0,11,,,,,,,,,,,,,,,,15,,55,72
8700,note_on,,0,0,11,,,,,,,,,,,,,,,,15,,67,72
8700,note_on,,0,0,11,,,,,,,,,,,,,,,,15,,62,72
8700,note_on,,0,0,11,,,,,,,,,,,,,,,,15,,71,72
8700,note_on,,1,0,7,,,,,,,,,,,,,,,,10,,71,72
8759,note_on,,59,0,9,,,,,,,,,,,,,,,,12,,79,0
8759,note_on,,59,0,11,,,,,,,,,,,,,,,,15,,55,0
8759,note_on,,0,0,11,,,,,,,,,,,,,,,,15,,67,0
8759,note_on,,0,0,11,,,,,,,,,,,,,,,,15,,62,0
8759,note_on,,0,0,11,,,,,,,,,,,,,,,,15,,71,0
8759,note_on,,59,0,5,,,,,,,,,,,,,,,,2,,55,0
8759,note_on,,59,0,7,,,,,,,,,,,,,,,,10,,71,0
8759,note_on,,59,0,10,,,,,,,,,,,,,,,,13,,55,0
8759,note_on,,59,0,8,,,,,,,,,,,,,,,,11,,71,0
8760,note_on,,1,0,5,,,,,,,,,,,,,,,,2,,52,72
8760,note_on,,1,0,8,,,,,,,,,,,,,,,,11,,79,72
8760,note_on,,1,0,10,,,,,,,,,,,,,,,,13,,52,72
8760,note_on,,1,0,9,,,,,,,,,,,,,,,,12,,76,72
8760,note_on,,0,0,11,,,,,,,,,,,,,,,,15,,60,72
8760,note_on,,0,0,11,,,,,,,,,,,,,,,,15,,72,72
8760,note_on,,0,0,11,,,,,,,,,,,,,,,,15,,67,72
8760,note_on,,1,0,11,,,,,,,,,,,,,,,,15,,52,72
8760,note_on,,1,0,7,,,,,,,,,,,,,,,,10,,79,72
8819,note_on,,59,0,8,,,,,,,,,,,,,,,,11,,79,0
8819,note_on,,0,0,11,,,,,,,,,,,,,,,,15,,72,0
8819,note_on,,0,0,11,,,,,,,,,,,,,,,,15,,67,0
8819,note_on,,59,0,11,,,,,,,,,,,,,,,,15,,52,0
8819,note_on,,59,0,5,,,,,,,,,,,,,,,,2,,52,0
8819,note_on,,0,0,11,,,,,,,,,,,,,,,,15,,60,0
8819,note_on,,59,0,10,,,,,,,,,,,,,,,,13,,52,0
8819,note_on,,59,0,9,,,,,,,,,,,,,,,,12,,76,0
8819,note_on,,59,0,7,,,,,,,,,,,,,,,,10,,79,0
8820,note_on,,1,0,5,,,,,,,,,,,,,,,,2,,48,72
8820,note_on,,0,0,11,,,,,,,,,,,,,,,,15,,69,72
8820,note_on,,0,0,11,,,,,,,,,,,,,,,,15,,67,72
8820,note_on,,0,0,11,,,,,,,,,,,,,,,,15,,48,72
8820,note_on,,1,0,10,,,,,,,,,,,,,,,,13,,48,72
8820,note_on,,1,0,11,,,,,,,,,,,,,,,,15,,64,72
8820,note_on,,1,0,7,,,,,,,,,,,,,,,,10,,69,72
8820,note_on,,1,0,8,,,,,,,,,,,,,,,,11,,69,72
8820,note_on,,1,0,9,,,,,,,,,,,,,,,,12,,72,72
8879,note_on,,59,0,7,,,,,,,,,,,,,,,,10,,69,0
8879,note_on,,59,0,5,,,,,,,,,,,,,,,,2,,48,0
8879,note_on,,59,0,11,,,,,,,,,,,,,,,,15,,64,0
8879,note_on,,59,0,8,,,,,,,,,,,,,,,,11,,69,0
8879,note_on,,59,0,10,,,,,,,,,,,,,,,,13,,48,0
8879,note_on,,0,0,11,,,,,,,,,,,,,,,,15,,48,0
8879,note_on,,59,0,9,,,,,,,,,,,,,,,,12,,72,0
8879,note_on,,0,0,11,,,,,,,,,,,,,,,,15,,67,0
8880,note_on,,1,0,9,,,,,,,,,,,,,,,,12,,74,72
8880,note_on,,0,0,11,,,,,,,,,,,,,,,,15,,50,72
8880,note_on,,1,0,11,,,,,,,,,,,,,,,,15,,66,72
8880,note_on,,1,0,5,,,,,,,,,,,,,,,,2,,50,72
8880,note_on,,1,0,7,,,,,,,,,,,,,,,,10,,78,72
8880,note_on,,1,0,10,,,,,,,,,,,,,,,,13,,50,72
8880,note_on,,1,0,8,,,,,,,,,,,,,,,,11,,78,72
8880,note_on,,0,0,11,,,,,,,,,,,,,,,,15,,57,72
8939,note_on,,59,0,5,,,,,,,,,,,,,,,,2,,50,0
8939,note_on,,59,0,7,,,,,,,,,,,,,,,,10,,78,0
8939,note_on,,59,0,8,,,,,,,,,,,,,,,,11,,78,0
8939,note_on,,0,0,11,,,,,,,,,,,,,,,,15,,57,0
8939,note_on,,0,0,11,,,,,,,,,,,,,,,,15,,50,0
8939,note_on,,59,0,10,,,,,,,,,,,,,,,,13,,50,0
8939,note_on,,0,0,11,,,,,,,,,,,,,,,,15,,66,0
8939,note_on,,59,0,11,,,,,,,,,,,,,,,,15,,69,0
8939,note_on,,59,0,9,,,,,,,,,,,,,,,,12,,74,0
8940,note_on,,1,0,11,,,,,,,,,,,,,,,,15,,62,72
8940,note_on,,0,0,11,,,,,,,,,,,,,,,,15,,59,72
8940,note_on,,0,0,11,,,,,,,,,,,,,,,,15,,50,72
8940,note_on,,1,0,8,,,,,,,,,,,,,,,,11,,55,72
8940,note_on,,1,0,9,,,,,,,,,,,,,,,,12,,67,72
8940,note_on,,1,0,10,,,,,,,,,,,,,,,,13,,43,72
8940,note_on,,0,0,11,,,,,,,,,,,,,,,,15,,43,72
8940,note_on,,1,0,7,,,,,,,,,,,,,,,,10,,55,72
8940,note_on,,0,0,11,,,,,,,,,,,,,,,,15,,67,72
8940,note_on,,1,0,5,,,,,,,,,,,,,,,,2,,43,72
9059,note_on,,119,0,7,,,,,,,,,,,,,,,,10,,55,0
9059,note_on,,0,0,11,,,,,,,,,,,,,,,,15,,59,0
9059,note_on,,119,0,11,,,,,,,,,,,,,,,,15,,62,0
9059,note_on,,119,0,5,,,,,,,,,,,,,,,,2,,43,0
9059,note_on,,0,0,11,,,,,,,,,,,,,,,,15,,67,0
9059,note_on,,119,0,8,,,,,,,,,,,,,,,,11,,55,0
9059,note_on,,119,0,9,,,,,,,,,,,,,,,,12,,67,0
9059,note_on,,0,0,11,,,,,,,,,,,,,,,,15,,50,0
9059,note_on,,0,0,11,,,,,,,,,,,,,,,,15,,43,0
9059,note_on,,119,0,10,,,,,,,,,,,,,,,,13,,43,0
9120,note_on,,61,0,5,,,,,,,,,,,,,,,,2,,47,48
9120,note_on,,901,0,6,,,,,,,,,,,,,,,,8,,47,69
9120,note_on,,61,0,9,,,,,,,,,,,,,,,,12,,71,48
9120,note_on,,61,0,11,,,,,,,,,,,,,,,,15,,59,48
9120,note_on,,61,0,8,,,,,,,,,,,,,,,,11,,59,48
9120,note_on,,61,0,7,,,,,,,,,,,,,,,,10,,59,48
9120,note_on,,61,0,10,,,,,,,,,,,,,,,,13,,47,48
9120,note_on,,0,0,11,,,,,,,,,,,,,,,,15,,47,48
9179,note_on,,59,0,5,,,,,,,,,,,,,,,,2,,47,0
9179,note_on,,59,0,7,,,,,,,,,,,,,,,,10,,59,0
9179,note_on,,59,0,9,,,,,,,,,,,,,,,,12,,71,0
9179,note_on,,59,0,11,,,,,,,,,,,,,,,,15,,59,0
9179,note_on,,59,0,10,,,,,,,,,,,,,,,,13,,47,0
9179,note_on,,59,0,8,,,,,,,,,,,,,,,,11,,59,0
9179,note_on,,59,0,6,,,,,,,,,,,,,,,,8,,47,0
9179,note_on,,0,0,11,,,,,,,,,,,,,,,,15,,47,0
9180,note_on,,1,0,11,,,,,,,,,,,,,,,,15,,52,48
9180,note_on,,1,0,8,,,,,,,,,,,,,,,,11,,64,48
9180,note_on,,1,0,9,,,,,,,,,,,,,,,,12,,76,48
9180,note_on,,1,0,7,,,,,,,,,,,,,,,,10,,64,48
9180,note_on,,1,0,5,,,,,,,,,,,,,,,,2,,52,48
9180,note_on,,1,0,10,,,,,,,,,,,,,,,,13,,52,48
9180,note_on,,0,0,11,,,,,,,,,,,,,,,,15,,64,48
9180,note_on,,1,0,6,,,,,,,,,,,,,,,,8,,52,70
9239,note_on,,59,0,5,,,,,,,,,,,,,,,,2,,52,0
9239,note_on,,59,0,10,,,,,,,,,,,,,,,,13,,52,0
9239,note_on,,59,0,8,,,,,,,,,,,,,,,,11,,64,0
9239,note_on,,59,0,7,,,,,,,,,,,,,,,,10,,64,0
9239,note_on,,59,0,9,,,,,,,,,,,,,,,,12,,76,0
9239,note_on,,59,0,11,,,,,,,,,,,,,,,,15,,52,0
9239,note_on,,0,0,11,,,,,,,,,,,,,,,,15,,64,0
9239,note_on,,59,0,6,,,,,,,,,,,,,,,,8,,52,0
9240,note_on,,1,0,7,,,,,,,,,,,,,,,,10,,63,48
9240,note_on,,1,0,5,,,,,,,,,,,,,,,,2,,51,48
9240,note_on,,1,0,9,,,,,,,,,,,,,,,,12,,75,48
9240,note_on,,1,0,8,,,,,,,,,,,,,,,,11,,63,48
9240,note_on,,0,0,11,,,,,,,,,,,,,,,,15,,63,48
9240,note_on,,1,0,6,,,,,,,,,,,,,,,,8,,51,71
9240,note_on,,1,0,11,,,,,,,,,,,,,,,,15,,51,48
9240,note_on,,1,0,10,,,,,,,,,,,,,,,,13,,51,48
9299,note_on,,59,0,5,,,,,,,,,,,,,,,,2,,51,0
9299,note_on,,59,0,10,,,,,,,,,,,,,,,,13,,51,0
9299,note_on,,59,0,9,,,,,,,,,,,,,,,,12,,75,0
9299,note_on,,59,0,11,,,,,,,,,,,,,,,,15,,51,0
9299,note_on,,59,0,6,,,,,,,,,,,,,,,,8,,51,0
9299,note_on,,59,0,7,,,,,,,,,,,,,,,,10,,63,0
9299,note_on,,59,0,8,,,,,,,,,,,,,,,,11,,63,0
9299,note_on,,0,0,11,,,,,,,,,,,,,,,,15,,63,0
9300,note_on,,1,0,11,,,,,,,,,,,,,,,,15,,64,48
9300,note_on,,0,0,11,,,,,,,,,,,,,,,,15,,52,48
9300,note_on,,1,0,6,,,,,,,,,,,,,,,,8,,52,71
9300,note_on,,1,0,7,,,,,,,,,,,,,,,,10,,64,48
9300,note_on,,1,0,9,,,,,,,,,,,,,,,,12,,76,48
9300,note_on,,1,0,10,,,,,,,,,,,,,,,,13,,52,48
9300,note_on,,1,0,8,,,,,,,,,,,,,,,,11,,64,48
9300,note_on,,1,0,5,,,,,,,,,,,,,,,,2,,52,48
9359,note_on,,59,0,11,,,,,,,,,,,,,,,,15,,64,0
9359,note_on,,59,0,5,,,,,,,,,,,,,,,,2,,52,0
9359,note_on,,0,0,11,,,,,,,,,,,,,,,,15,,52,0
9359,note_on,,59,0,7,,,,,,,,,,,,,,,,10,,64,0
9359,note_on,,59,0,10,,,,,,,,,,,,,,,,13,,52,0
9359,note_on,,59,0,8,,,,,,,,,,,,,,,,11,,64,0
9359,note_on,,59,0,6,,,,,,,,,,,,,,,,8,,52,0
9359,note_on,,59,0,9,,,,,,,,,,,,,,,,12,,76,0
9360,note_on,,1,0,8,,,,,,,,,,,,,,,,11,,63,48
9360,note_on,,1,0,6,,,,,,,,,,,,,,,,8,,51,70
9360,note_on,,1,0,11,,,,,,,,,,,,,,,,15,,51,48
9360,note_on,,0,0,11,,,,,,,,,,,,,,,,15,,63,48
9360,note_on,,1,0,9,,,,,,,,,,,,,,,,12,,75,48
9360,note_on,,1,0,10,,,,,,,,,,,,,,,,13,,51,48
9360,note_on,,1,0,7,,,,,,,,,,,,,,,,10,,63,48
9360,note_on,,1,0,5,,,,,,,,,,,,,,,,2,,51,48
9419,note_on,,59,0,9,,,,,,,,,,,,,,,,12,,75,0
9419,note_on,,59,0,8,,,,,,,,,,,,,,,,11,,63,0
9419,note_on,,59,0,11,,,,,,,,,,,,,,,,15,,51,0
9419,note_on,,59,0,7,,,,,,,,,,,,,,,,10,,63,0
9419,note_on,,59,0,6,,,,,,,,,,,,,,,,8,,51,0
9419,note_on,,59,0,10,,,,,,,,,,,,,,,,13,,51,0
9419,note_on,,59,0,5,,,,,,,,,,,,,,,,2,,51,0
9419,note_on,,0,0,11,,,,,,,,,,,,,,,,15,,63,0
9420,note_on,,1,0,10,,,,,,,,,,,,,,,,13,,52,48
9420,note_on,,1,0,11,,,,,,,,,,,,,,,,15,,52,48
9420,note_on,,0,0,11,,,,,,,,,,,,,,,,15,,64,48
9420,note_on,,1,0,5,,,,,,,,,,,,,,,,2,,52,48
9420,note_on,,1,0,7,,,,,,,,,,,,,,,,10,,64,48
9420,note_on,,1,0,8,,,,,,,,,,,,,,,,11,,64,48
9420,note_on,,1,0,6,,,,,,,,,,,,,,,,8,,52,72
9420,note_on,,1,0,9,,,,,,,,,,,,,,,,12,,76,48
9479,note_on,,59,0,5,,,,,,,,,,,,,,,,2,,52,0
9479,note_on,,59,0,6,,,,,,,,,,,,,,,,8,,52,0
9479,note_on,,0,0,11,,,,,,,,,,,,,,,,15,,64,0
9479,note_on,,59,0,10,,,,,,,,,,,,,,,,13,,52,0
9479,note_on,,59,0,11,,,,,,,,,,,,,,,,15,,52,0
9479,note_on,,59,0,7,,,,,,,,,,,,,,,,10,,64,0
9479,note_on,,59,0,8,,,,,,,,,,,,,,,,11,,64,0
9479,note_on,,59,0,9,,,,,,,,,,,,,,,,12,,76,0
9480,note_on,,1,0,7,,,,,,,,,,,,,,,,10,,66,48
9480,note_on,,1,0,5,,,,,,,,,,,,,,,,2,,54,48
9480,note_on,,0,0,11,,,,,,,,,,,,,,,,15,,54,48
9480,note_on,,1,0,11,,,,,,,,,,,,,,,,15,,66,48
9480,note_on,,1,0,8,,,,,,,,,,,,,,,,11,,66,48
9480,note_on,,1,0,6,,,,,,,,,,,,,,,,8,,54,69
9480,note_on,,1,0,10,,,,,,,,,,,,,,,,13,,54,48
9480,note_on,,1,0,9,,,,,,,,,,,,,,,,12,,78,48
9539,note_on,,59,0,9,,,,,,,,,,,,,,,,12,,78,0
9539,note_on,,59,0,8,,,,,,,,,,,,,,,,11,,66,0
9539,note_on,,59,0,5,,,,,,,,,,,,,,,,2,,54,0
9539,note_on,,0,0,11,,,,,,,,,,,,,,,,15,,54,0
9539,note_on,,59,0,7,,,,,,,,,,,,,,,,10,,66,0
9539,note_on,,59,0,6,,,,,,,,,,,,,,,,8,,54,0
9539,note_on,,59,0,10,,,,,,,,,,,,,,,,13,,54,0
9539,note_on,,59,0,11,,,,,,,,,,,,,,,,15,,66,0
9540,note_on,,1,0,7,,,,,,,,,,,,,,,,10,,67,48
9540,note_on,,0,0,11,,,,,,,,,,,,,,,,15,,67,48
9540,note_on,,1,0,5,,,,,,,,,,,,,,,,2,,55,48
9540,note_on,,1,0,9,,,,,,,,,,,,,,,,12,,79,48
9540,note_on,,1,0,8,,,,,,,,,,,,,,,,11,,67,48
9540,note_on,,1,0,6,,,,,,,,,,,,,,,,8,,55,75
9540,note_on,,1,0,10,,,,,,,,,,,,,,,,13,,55,48
9540,note_on,,1,0,11,,,,,,,,,,,,,,,,15,,55,48
9599,note_on,,59,0,6,,,,,,,,,,,,,,,,8,,55,0
9599,note_on,,59,0,5,,,,,,,,,,,,,,,,2,,55,0
9599,note_on,,59,0,9,,,,,,,,,,,,,,,,12,,79,0
9599,note_on,,0,0,11,,,,,,,,,,,,,,,,15,,67,0
9599,note_on,,59,0,11,,,,,,,,,,,,,,,,15,,55,0
9599,note_on,,59,0,10,,,,,,,,,,,,,,,,13,,55,0
9599,note_on,,59,0,7,,,,,,,,,,,,,,,,10,,67,0
9599,note_on,,59,0,8,,,,,,,,,,,,,,,,11,,67,0
9600,note_on,,1,0,10,,,,,,,,,,,,,,,,13,,51,48
9600,note_on,,1,0,8,,,,,,,,,,,,,,,,11,,63,48
9600,note_on,,1,0,9,,,,,,,,,,,,,,,,12,,75,48
9600,note_on,,1,0,11,,,,,,,,,,,,,,,,15,,63,48
9600,note_on,,1,0,6,,,,,,,,,,,,,,,,8,,51,71
9600,note_on,,1,0,7,,,,,,,,,,,,,,,,10,,63,48
9600,note_on,,1,0,5,,,,,,,,,,,,,,,,2,,51,48
9600,note_on,,0,0,11,,,,,,,,,,,,,,,,15,,51,48
9659,note_on,,0,0,11,,,,,,,,,,,,,,,,15,,51,0
9659,note_on,,59,0,9,,,,,,,,,,,,,,,,12,,75,0
9659,note_on,,59,0,8,,,,,,,,,,,,,,,,11,,63,0
9659,note_on,,59,0,7,,,,,,,,,,,,,,,,10,,63,0
9659,note_on,,59,0,6,,,,,,,,,,,,,,,,8,,51,0
9659,note_on,,59,0,10,,,,,,,,,,,,,,,,13,,51,0
9659,note_on,,59,0,5,,,,,,,,,,,,,,,,2,,51,0
9659,note_on,,59,0,11,,,,,,,,,,,,,,,,15,,63,0
9660,note_on,,1,0,9,,,,,,,,,,,,,,,,12,,76,48
9660,note_on,,0,0,11,,,,,,,,,,,,,,,,15,,52,48
9660,note_on,,1,0,11,,,,,,,,,,,,,,,,15,,64,48
9660,note_on,,1,0,7,,,,,,,,,,,,,,,,10,,64,48
9660,note_on,,1,0,8,,,,,,,,,,,,,,,,11,,64,48
9660,note_on,,1,0,10,,,,,,,,,,,,,,,,13,,52,48
9660,note_on,,1,0,6,,,,,,,,,,,,,,,,8,,52,68
9660,note_on,,1,0,5,,,,,,,,,,,,,,,,2,,52,48
9719,note_on,,59,0,6,,,,,,,,,,,,,,,,8,,52,0
9719,note_on,,59,0,9,,,,,,,,,,,,,,,,12,,76,0
9719,note_on,,59,0,5,,,,,,,,,,,,,,,,2,,52,0
9719,note_on,,59,0,11,,,,,,,,,,,,,,,,15,,64,0
9719,note_on,,59,0,10,,,,,,,,,,,,,,,,13,,52,0
9719,note_on,,59,0,7,,,,,,,,,,,,,,,,10,,64,0
9719,note_on,,59,0,8,,,,,,,,,,,,,,,,11,,64,0
9719,note_on,,0,0,11,,,,,,,,,,,,,,,,15,,52,0
9720,note_on,,1,0,8,,,,,,,,,,,,,,,,11,,72,48
9720,note_on,,1,0,11,,,,,,,,,,,,,,,,15,,72,48
9720,note_on,,0,0,11,,,,,,,,,,,,,,,,15,,60,48
9720,note_on,,1,0,10,,,,,,,,,,,,,,,,13,,60,48
9720,note_on,,1,0,5,,,,,,,,,,,,,,,,2,,60,48
9720,note_on,,1,0,7,,,,,,,,,,,,,,,,10,,72,48
9720,note_on,,1,0,6,,,,,,,,,,,,,,,,8,,60,75
9720,note_on,,1,0,9,,,,,,,,,,,,,,,,12,,84,48
9779,note_on,,59,0,8,,,,,,,,,,,,,,,,11,,72,0
9779,note_on,,59,0,6,,,,,,,,,,,,,,,,8,,60,0
9779,note_on,,59,0,9,,,,,,,,,,,,,,,,12,,84,0
9779,note_on,,59,0,5,,,,,,,,,,,,,,,,2,,60,0
9779,note_on,,59,0,11,,,,,,,,,,,,,,,,15,,72,0
9779,note_on,,0,0,11,,,,,,,,,,,,,,,,15,,60,0
9779,note_on,,59,0,7,,,,,,,,,,,,,,,,10,,72,0
9779,note_on,,59,0,10,,,,,,,,,,,,,,,,13,,60,0
9780,note_on,,1,0,7,,,,,,,,,,,,,,,,10,,71,48
9780,note_on,,1,0,6,,,,,,,,,,,,,,,,8,,59,71
9780,note_on,,1,0,11,,,,,,,,,,,,,,,,15,,71,48
9780,note_on,,1,0,5,,,,,,,,,,,,,,,,2,,59,48
9780,note_on,,0,0,11,,,,,,,,,,,,,,,,15,,59,48
9780,note_on,,1,0,9,,,,,,,,,,,,,,,,12,,83,48
9780,note_on,,1,0,8,,,,,,,,,,,,,,,,11,,71,48
9780,note_on,,1,0,10,,,,,,,,,,,,,,,,13,,59,48
9839,note_on,,59,0,5,,,,,,,,,,,,,,,,2,,59,0
9839,note_on,,59,0,9,,,,,,,,,,,,,,,,12,,83,0
9839,note_on,,59,0,6,,,,,,,,,,,,,,,,8,,59,0
9839,note_on,,59,0,7,,,,,,,,,,,,,,,,10,,71,0
9839,note_on,,59,0,10,,,,,,,,,,,,,,,,13,,59,0
9839,note_on,,59,0,8,,,,,,,,,,,,,,,,11,,71,0
9839,note_on,,59,0,11,,,,,,,,,,,,,,,,15,,71,0
9839,note_on,,0,0,11,,,,,,,,,,,,,,,,15,,59,0
9840,note_on,,1,0,8,,,,,,,,,,,,,,,,11,,70,48
9840,note_on,,1,0,11,,,,,,,,,,,,,,,,15,,70,48
9840,note_on,,0,0,11,,,,,,,,,,,,,,,,15,,58,48
9840,note_on,,1,0,5,,,,,,,,,,,,,,,,2,,58,48
9840,note_on,,1,0,6,,,,,,,,,,,,,,,,8,,58,70
9840,note_on,,1,0,9,,,,,,,,,,,,,,,,12,,82,48
9840,note_on,,1,0,7,,,,,,,,,,,,,,,,10,,70,48
9840,note_on,,1,0,10,,,,,,,,,,,,,,,,13,,58,48
9899,note_on,,59,0,10,,,,,,,,,,,,,,,,13,,58,0
9899,note_on,,59,0,6,,,,,,,,,,,,,,,,8,,58,0
9899,note_on,,59,0,5,,,,,,,,,,,,,,,,2,,58,0
9899,note_on,,59,0,7,,,,,,,,,,,,,,,,10,,70,0
9899,note_on,,59,0,11,,,,,,,,,,,,,,,,15,,70,0
9899,note_on,,59,0,9,,,,,,,,,,,,,,,,12,,82,0
9899,note_on,,59,0,8,,,,,,,,,,,,,,,,11,,70,0
9899,note_on,,0,0,11,,,,,,,,,,,,,,,,15,,58,0
9900,note_on,,1,0,10,,,,,,,,,,,,,,,,13,,59,48
9900,note_on,,1,0,11,,,,,,,,,,,,,,,,15,,71,48
9900,note_on,,0,0,11,,,,,,,,,,,,,,,,15,,59,48
9900,note_on,,1,0,9,,,,,,,,,,,,,,,,12,,83,48
9900,note_on,,1,0,7,,,,,,,,,,,,,,,,10,,71,48
9900,note_on,,1,0,5,,,,,,,,,,,,,,,,2,,59,48
9900,note_on,,1,0,8,,,,,,,,,,,,,,,,11,,71,48
9900,note_on,,1,0,6,,,,,,,,,,,,,,,,8,,59,69
9959,note_on,,59,0,8,,,,,,,,,,,,,,,,11,,71,0
9959,note_on,,59,0,11,,,,,,,,,,,,,,,,15,,71,0
9959,note_on,,0,0,11,,,,,,,,,,,,,,,,15,,59,0
9959,note_on,,59,0,6,,,,,,,,,,,,,,,,8,,59,0
9959,note_on,,59,0,7,,,,,,,,,,,,,,,,10,,71,0
9959,note_on,,59,0,5,,,,,,,,,,,,,,,,2,,59,0
9959,note_on,,59,0,9,,,,,,,,,,,,,,,,12,,83,0
9959,note_on,,59,0,10,,,,,,,,,,,,,,,,13,,59,0
9960,note_on,,1,0,8,,,,,,,,,,,,,,,,11,,68,48
9960,note_on,,1,0,11,,,,,,,,,,,,,,,,15,,56,48
9960,note_on,,1,0,9,,,,,,,,,,,,,,,,12,,80,48
9960,note_on,,1,0,10,,,,,,,,,,,,,,,,13,,56,48
9960,note_on,,1,0,5,,,,,,,,,,,,,,,,2,,56,48
9960,note_on,,1,0,6,,,,,,,,,,,,,,,,8,,56,74
9960,note_on,,0,0,11,,,,,,,,,,,,,,,,15,,68,48
9960,note_on,,1,0,7,,,,,,,,,,,,,,,,10,,68,48
10019,note_on,,59,0,9,,,,,,,,,,,,,,,,12,,80,0
10019,note_on,,0,0,11,,,,,,,,,,,,,,,,15,,68,0
10019,note_on,,59,0,6,,,,,,,,,,,,,,,,8,,56,0
10019,note_on,,59,0,11,,,,,,,,,,,,,,,,15,,56,0
10019,note_on,,59,0,5,,,,,,,,,,,,,,,,2,,56,0
10019,note_on,,59,0,8,,,,,,,,,,,,,,,,11,,68,0
10019,note_on,,59,0,10,,,,,,,,,,,,,,,,13,,56,0
10019,note_on,,59,0,7,,,,,,,,,,,,,,,,10,,68,0
10020,note_on,,1,0,11,,,,,,,,,,,,,,,,15,,69,48
10020,note_on,,0,0,11,,,,,,,,,,,,,,,,15,,57,48
10020,note_on,,1,0,8,,,,,,,,,,,,,,,,11,,69,48
10020,note_on,,1,0,10,,,,,,,,,,,,,,,,13,,57,48
10020,note_on,,1,0,9,,,,,,,,,,,,,,,,12,,81,48
10020,note_on,,1,0,6,,,,,,,,,,,,,,,,8,,57,75
10020,note_on,,1,0,5,,,,,,,,,,,,,,,,2,,57,48
10020,note_on,,1,0,7,,,,,,,,,,,,,,,,10,,69,48
10079,note_on,,59,0,5,,,,,,,,,,,,,,,,2,,57,0
10079,note_on,,59,0,10,,,,,,,,,,,,,,,,13,,57,0
10079,note_on,,0,0,11,,,,,,,,,,,,,,,,15,,57,0
10079,note_on,,59,0,8,,,,,,,,,,,,,,,,11,,69,0
10079,note_on,,59,0,9,,,,,,,,,,,,,,,,12,,81,0
10079,note_on,,59,0,7,,,,,,,,,,,,,,,,10,,69,0
10079,note_on,,59,0,11,,,,,,,,,,,,,,,,15,,69,0
10079,note_on,,59,0,6,,,,,,,,,,,,,,,,8,,57,0
10080,note_on,,1,0,11,,,,,,,,,,,,,,,,15,,66,48
10080,note_on,,1,0,9,,,,,,,,,,,,,,,,12,,78,48
10080,note_on,,0,0,11,,,,,,,,,,,,,,,,15,,54,48
10080,note_on,,1,0,5,,,,,,,,,,,,,,,,2,,54,48
10080,note_on,,1,0,8,,,,,,,,,,,,,,,,11,,66,48
10080,note_on,,1,0,7,,,,,,,,,,,,,,,,10,,66,48
10080,note_on,,1,0,10,,,,,,,,,,,,,,,,13,,54,48
10080,note_on,,1,0,6,,,,,,,,,,,,,,,,8,,54,73
10139,note_on,,59,0,9,,,,,,,,,,,,,,,,12,,78,0
10139,note_on,,59,0,5,,,,,,,,,,,,,,,,2,,54,0
10139,note_on,,59,0,7,,,,,,,,,,,,,,,,10,,66,0
10139,note_on,,59,0,8,,,,,,,,,,,,,,,,11,,66,0
10139,note_on,,59,0,6,,,,,,,,,,,,,,,,8,,54,0
10139,note_on,,0,0,11,,,,,,,,,,,,,,,,15,,54,0
10139,note_on,,59,0,11,,,,,,,,,,,,,,,,15,,66,0
10139,note_on,,59,0,10,,,,,,,,,,,,,,,,13,,54,0
10140,note_on,,1,0,8,,,,,,,,,,,,,,,,11,,67,48
10140,note_on,,1,0,9,,,,,,,,,,,,,,,,12,,79,48
10140,note_on,,1,0,7,,,,,,,,,,,,,,,,10,,67,48
10140,note_on,,0,0,11,,,,,,,,,,,,,,,,15,,67,48
10140,note_on,,1,0,11,,,,,,,,,,,,,,,,15,,55,48
10140,note_on,,1,0,6,,,,,,,,,,,,,,,,8,,55,73
10140,note_on,,1,0,5,,,,,,,,,,,,,,,,2,,55,48
10140,note_on,,1,0,10,,,,,,,,,,,,,,,,13,,55,48
10199,note_on,,59,0,8,,,,,,,,,,,,,,,,11,,67,0
10199,note_on,,59,0,6,,,,,,,,,,,,,,,,8,,55,0
10199,note_on,,59,0,7,,,,,,,,,,,,,,,,10,,67,0
10199,note_on,,59,0,10,,,,,,,,,,,,,,,,13,,55,0
10199,note_on,,0,0,11,,,,,,,,,,,,,,,,15,,67,0
10199,note_on,,59,0,11,,,,,,,,,,,,,,,,15,,55,0
10199,note_on,,59,0,5,,,,,,,,,,,,,,,,2,,55,0
10199,note_on,,59,0,9,,,,,,,,,,,,,,,,12,,79,0
10200,note_on,,0,0,11,,,,,,,,,,,,,,,,15,,64,48
10200,note_on,,1,0,5,,,,,,,,,,,,,,,,2,,52,48
10200,note_on,,1,0,11,,,,,,,,,,,,,,,,15,,52,48
10200,note_on,,1,0,7,,,,,,,,,,,,,,,,10,,64,48
10200,note_on,,1,0,6,,,,,,,,,,,,,,,,8,,52,75
10200,note_on,,1,0,10,,,,,,,,,,,,,,,,13,,52,48
10200,note_on,,1,0,8,,,,,,,,,,,,,,,,11,,64,48
10200,note_on,,1,0,9,,,,,,,,,,,,,,,,12,,76,48
10259,note_on,,59,0,5,,,,,,,,,,,,,,,,2,,52,0
10259,note_on,,59,0,7,,,,,,,,,,,,,,,,10,,64,0
10259,note_on,,59,0,11,,,,,,,,,,,,,,,,15,,52,0
10259,note_on,,0,0,11,,,,,,,,,,,,,,,,15,,64,0
10259,note_on,,59,0,10,,,,,,,,,,,,,,,,13,,52,0
10259,note_on,,59,0,6,,,,,,,,,,,,,,,,8,,52,0
10259,note_on,,59,0,9,,,,,,,,,,,,,,,,12,,76,0
10259,note_on,,59,0,8,,,,,,,,,,,,,,,,11,,64,0
10260,note_on,,1,0,9,,,,,,,,,,,,,,,,12,,75,48
10260,note_on,,1,0,8,,,,,,,,,,,,,,,,11,,63,48
10260,note_on,,0,0,11,,,,,,,,,,,,,,,,15,,63,48
10260,note_on,,1,0,11,,,,,,,,,,,,,,,,15,,51,48
10260,note_on,,1,0,7,,,,,,,,,,,,,,,,10,,63,48
10260,note_on,,1,0,5,,,,,,,,,,,,,,,,2,,51,48
10260,note_on,,1,0,10,,,,,,,,,,,,,,,,13,,51,48
10260,note_on,,1,0,6,,,,,,,,,,,,,,,,8,,51,71
10319,note_on,,59,0,9,,,,,,,,,,,,,,,,12,,75,0
10319,note_on,,59,0,8,,,,,,,,,,,,,,,,11,,63,0
10319,note_on,,59,0,10,,,,,,,,,,,,,,,,13,,51,0
10319,note_on,,59,0,11,,,,,,,,,,,,,,,,15,,51,0
10319,note_on,,59,0,6,,,,,,,,,,,,,,,,8,,51,0
10319,note_on,,0,0,11,,,,,,,,,,,,,,,,15,,63,0
10319,note_on,,59,0,7,,,,,,,,,,,,,,,,10,,63,0
10319,note_on,,59,0,5,,,,,,,,,,,,,,,,2,,51,0
10320,note_on,,1,0,11,,,,,,,,,,,,,,,,15,,52,48
10320,note_on,,1,0,8,,,,,,,,,,,,,,,,11,,64,48
10320,note_on,,1,0,7,,,,,,,,,,,,,,,,10,,64,48
10320,note_on,,1,0,9,,,,,,,,,,,,,,,,12,,76,48
10320,note_on,,1,0,6,,,,,,,,,,,,,,,,8,,52,75
10320,note_on,,1,0,5,,,,,,,,,,,,,,,,2,,52,48
10320,note_on,,0,0,11,,,,,,,,,,,,,,,,15,,64,48
10320,note_on,,1,0,10,,,,,,,,,,,,,,,,13,,52,48
10379,note_on,,59,0,11,,,,,,,,,,,,,,,,15,,52,0
10379,note_on,,0,0,11,,,,,,,,,,,,,,,,15,,64,0
10379,note_on,,59,0,9,,,,,,,,,,,,,,,,12,,76,0
10379,note_on,,59,0,7,,,,,,,,,,,,,,,,10,,64,0
10379,note_on,,59,0,6,,,,,,,,,,,,,,,,8,,52,0
10379,note_on,,59,0,5,,,,,,,,,,,,,,,,2,,52,0
10379,note_on,,59,0,8,,,,,,,,,,,,,,,,11,,64,0
10379,note_on,,59,0,10,,,,,,,,,,,,,,,,13,,52,0
10380,note_on,,1,0,6,,,,,,,,,,,,,,,,8,,48,72
10380,note_on,,1,0,10,,,,,,,,,,,,,,,,13,,48,48
10380,note_on,,1,0,9,,,,,,,,,,,,,,,,12,,72,48
10380,note_on,,1,0,7,,,,,,,,,,,,,,,,10,,60,48
10380,note_on,,0,0,11,,,,,,,,,,,,,,,,15,,60,48
10380,note_on,,1,0,11,,,,,,,,,,,,,,,,15,,48,48
10380,note_on,,1,0,8,,,,,,,,,,,,,,,,11,,60,48
10380,note_on,,1,0,5,,,,,,,,,,,,,,,,2,,48,48
10439,note_on,,59,0,5,,,,,,,,,,,,,,,,2,,48,0
10439,note_on,,59,0,9,,,,,,,,,,,,,,,,12,,72,0
10439,note_on,,59,0,8,,,,,,,,,,,,,,,,11,,60,0
10439,note_on,,0,0,11,,,,,,,,,,,,,,,,15,,60,0
10439,note_on,,59,0,7,,,,,,,,,,,,,,,,10,,60,0
10439,note_on,,59,0,10,,,,,,,,,,,,,,,,13,,48,0
10439,note_on,,59,0,6,,,,,,,,,,,,,,,,8,,48,0
10439,note_on,,59,0,11,,,,,,,,,,,,,,,,15,,48,0
10440,note_on,,1,0,6,,,,,,,,,,,,,,,,8,,45,69
10440,note_on,,1,0,7,,,,,,,,,,,,,,,,10,,57,48
10440,note_on,,1,0,10,,,,,,,,,,,,,,,,13,,45,48
10440,note_on,,1,0,5,,,,,,,,,,,,,,,,2,,45,48
10440,note_on,,0,0,11,,,,,,,,,,,,,,,,15,,45,48
10440,note_on,,1,0,11,,,,,,,,,,,,,,,,15,,57,48
10440,note_on,,1,0,9,,,,,,,,,,,,,,,,12,,69,48
10440,note_on,,1,0,8,,,,,,,,,,,,,,,,11,,57,48
10499,note_on,,59,0,11,,,,,,,,,,,,,,,,15,,57,0
10499,note_on,,59,0,7,,,,,,,,,,,,,,,,10,,57,0
10499,note_on,,59,0,6,,,,,,,,,,,,,,,,8,,45,0
10499,note_on,,0,0,11,,,,,,,,,,,,,,,,15,,45,0
10499,note_on,,59,0,9,,,,,,,,,,,,,,,,12,,69,0
10499,note_on,,59,0,10,,,,,,,,,,,,,,,,13,,45,0
10499,note_on,,59,0,8,,,,,,,,,,,,,,,,11,,57,0
10499,note_on,,59,0,5,,,,,,,,,,,,,,,,2,,45,0
10500,note_on,,1,0,10,,,,,,,,,,,,,,,,13,,47,48
10500,note_on,,1,0,9,,,,,,,,,,,,,,,,12,,71,48
10500,note_on,,1,0,5,,,,,,,,,,,,,,,,2,,47,48
10500,note_on,,1,0,11,,,,,,,,,,,,,,,,15,,47,48
10500,note_on,,1,0,7,,,,,,,,,,,,,,,,10,,59,48
10500,note_on,,1,0,8,,,,,,,,,,,,,,,,11,,59,48
10500,note_on,,0,0,11,,,,,,,,,,,,,,,,15,,59,48
10500,note_on,,1,0,6,,,,,,,,,,,,,,,,8,,47,74
10559,note_on,,59,0,11,,,,,,,,,,,,,,,,15,,47,0
10559,note_on,,0,0,11,,,,,,,,,,,,,,,,15,,59,0
10559,note_on,,59,0,10,,,,,,,,,,,,,,,,13,,47,0
10559,note_on,,59,0,6,,,,,,,,,,,,,,,,8,,47,0
10559,note_on,,59,0,5,,,,,,,,,,,,,,,,2,,47,0
10559,note_on,,59,0,8,,,,,,,,,,,,,,,,11,,59,0
10559,note_on,,59,0,9,,,,,,,,,,,,,,,,12,,71,0
10559,note_on,,59,0,7,,,,,,,,,,,,,,,,10,,59,0
10560,note_on,,0,0,11,,,,,,,,,,,,,,,,15,,43,48
10560,note_on,,1,0,7,,,,,,,,,,,,,,,,10,,55,48
10560,note_on,,1,0,11,,,,,,,,,,,,,,,,15,,55,48
10560,note_on,,1,0,8,,,,,,,,,,,,,,,,11,,55,48
10560,note_on,,1,0,10,,,,,,,,,,,,,,,,13,,43,48
10560,note_on,,1,0,9,,,,,,,,,,,,,,,,12,,67,48
10560,note_on,,1,0,6,,,,,,,,,,,,,,,,8,,43,69
10560,note_on,,1,0,5,,,,,,,,,,,,,,,,2,,43,48
10619,note_on,,59,0,10,,,,,,,,,,,,,,,,13,,43,0
10619,note_on,,59,0,8,,,,,,,,,,,,,,,,11,,55,0
10619,note_on,,59,0,11,,,,,,,,,,,,,,,,15,,55,0
10619,note_on,,59,0,7,,,,,,,,,,,,,,,,10,,55,0
10619,note_on,,59,0,6,,,,,,,,,,,,,,,,8,,43,0
10619,note_on,,59,0,9,,,,,,,,,,,,,,,,12,,67,0
10619,note_on,,59,0,5,,,,,,,,,,,,,,,,2,,43,0
10619,note_on,,0,0,11,,,,,,,,,,,,,,,,15,,43,0
10620,note_on,,1,0,8,,,,,,,,,,,,,,,,11,,57,48
10620,note_on,,0,0,11,,,,,,,,,,,,,,,,15,,57,48
10620,note_on,,1,0,6,,,,,,,,,,,,,,,,8,,45,71
10620,note_on,,1,0,7,,,,,,,,,,,,,,,,10,,57,48
10620,note_on,,1,0,5,,,,,,,,,,,,,,,,2,,45,48
10620,note_on,,1,0,10,,,,,,,,,,,,,,,,13,,45,48
10620,note_on,,1,0,11,,,,,,,,,,,,,,,,15,,45,48
10620,note_on,,1,0,9,,,,,,,,,,,,,,,,12,,69,48
10739,note_on,,119,0,11,,,,,,,,,,,,,,,,15,,57,0
10740,note_on,,1,0,11,,,,,,,,,,,,,,,,15,,72,48
10740,note_on,,0,0,11,,,,,,,,,,,,,,,,15,,52,48
10740,note_on,,0,0,11,,,,,,,,,,,,,,,,15,,69,48
10740,note_on,,0,0,11,,,,,,,,,,,,,,,,15,,64,48
10859,note_on,,239,0,10,,,,,,,,,,,,,,,,13,,45,0
10859,note_on,,239,0,5,,,,,,,,,,,,,,,,2,,45,0
10859,note_on,,119,0,11,,,,,,,,,,,,,,,,15,,45,0
10859,note_on,,0,0,11,,,,,,,,,,,,,,,,15,,72,0
10859,note_on,,0,0,11,,,,,,,,,,,,,,,,15,,52,0
10859,note_on,,0,0,11,,,,,,,,,,,,,,,,15,,69,0
10859,note_on,,239,0,9,,,,,,,,,,,,,,,,12,,69,0
10859,note_on,,239,0,6,,,,,,,,,,,,,,,,8,,45,0
10859,note_on,,239,0,8,,,,,,,,,,,,,,,,11,,57,0
10859,note_on,,0,0,11,,,,,,,,,,,,,,,,15,,64,0
10859,note_on,,239,0,7,,,,,,,,,,,,,,,,10,,57,0
10860,note_on,,1,0,9,,,,,,,,,,,,,,,,12,,71,48
10860,note_on,,1,0,8,,,,,,,,,,,,,,,,11,,59,48
10860,note_on,,1,0,7,,,,,,,,,,,,,,,,10,,59,48
10860,note_on,,0,0,11,,,,,,,,,,,,,,,,15,,59,48
10860,note_on,,0,0,11,,,,,,,,,,,,,,,,15,,63,48
10860,note_on,,1,0,6,,,,,,,,,,,,,,,,8,,47,73
10860,note_on,,0,0,11,,,,,,,,,,,,,,,,15,,66,48
10860,note_on,,1,0,10,,,,,,,,,,,,,,,,13,,47,48
10860,note_on,,1,0,5,,,,,,,,,,,,,,,,2,,47,48
10860,note_on,,0,0,11,,,,,,,,,,,,,,,,15,,71,48
10860,note_on,,1,0,11,,,,,,,,,,,,,,,,15,,47,48
10979,note_on,,119,0,8,,,,,,,,,,,,,,,,11,,59,0
10979,note_on,,119,0,9,,,,,,,,,,,,,,,,12,,71,0
10979,note_on,,119,0,11,,,,,,,,,,,,,,,,15,,47,0
10979,note_on,,0,0,11,,,,,,,,,,,,,,,,15,,71,0
10979,note_on,,0,0,11,,,,,,,,,,,,,,,,15,,59,0
10979,note_on,,0,0,11,,,,,,,,,,,,,,,,15,,63,0
10979,note_on,,0,0,11,,,,,,,,,,,,,,,,15,,66,0
10979,note_on,,119,0,5,,,,,,,,,,,,,,,,2,,47,0
10979,note_on,,119,0,6,,,,,,,,,,,,,,,,8,,47,0
10979,note_on,,119,0,10,,,,,,,,,,,,,,,,13,,47,0
10979,note_on,,119,0,7,,,,,,,,,,,,,,,,10,,59,0
11040,note_on,,0,0,11,,,,,,,,,,,,,,,,15,,71,48
11040,note_on,,61,0,11,,,,,,,,,,,,,,,,15,,59,48
11040,note_on,,61,0,10,,,,,,,,,,,,,,,,13,,59,48
11040,note_on,,61,0,6,,,,,,,,,,,,,,,,8,,59,73
11040,note_on,,61,0,5,,,,,,,,,,,,,,,,2,,59,48
11040,note_on,,61,0,7,,,,,,,,,,,,,,,,10,,71,48
11040,note_on,,61,0,8,,,,,,,,,,,,,,,,11,,71,48
11040,note_on,,61,0,9,,,,,,,,,,,,,,,,12,,83,48
11099,note_on,,59,0,11,,,,,,,,,,,,,,,,15,,59,0
11099,note_on,,59,0,10,,,,,,,,,,,,,,,,13,,59,0
11099,note_on,,59,0,9,,,,,,,,,,,,,,,,12,,83,0
11099,note_on,,59,0,6,,,,,,,,,,,,,,,,8,,59,0
11099,note_on,,59,0,7,,,,,,,,,,,,,,,,10,,71,0
11099,note_on,,0,0,11,,,,,,,,,,,,,,,,15,,71,0
11099,note_on,,59,0,5,,,,,,,,,,,,,,,,2,,59,0
11099,note_on,,59,0,8,,,,,,,,,,,,,,,,11,,71,0
11100,note_on,,1,0,5,,,,,,,,,,,,,,,,2,,60,48
11100,note_on,,1,0,6,,,,,,,,,,,,,,,,8,,60,72
11100,note_on,,1,0,8,,,,,,,,,,,,,,,,11,,72,48
11100,note_on,,1,0,9,,,,,,,,,,,,,,,,12,,84,48
11100,note_on,,1,0,10,,,,,,,,,,,,,,,,13,,60,48
11100,note_on,,1,0,7,,,,,,,,,,,,,,,,10,,72,48
11100,note_on,,1,0,11,,,,,,,,,,,,,,,,15,,72,48
11100,note_on,,0,0,11,,,,,,,,,,,,,,,,15,,60,48
11159,note_on,,59,0,10,,,,,,,,,,,,,,,,13,,60,0
11159,note_on,,59,0,7,,,,,,,,,,,,,,,,10,,72,0
11159,note_on,,59,0,5,,,,,,,,,,,,,,,,2,,60,0
11159,note_on,,59,0,9,,,,,,,,,,,,,,,,12,,84,0
11159,note_on,,59,0,11,,,,,,,,,,,,,,,,15,,72,0
11159,note_on,,0,0,11,,,,,,,,,,,,,,,,15,,60,0
11159,note_on,,59,0,8,,,,,,,,,,,,,,,,11,,72,0
11159,note_on,,59,0,6,,,,,,,,,,,,,,,,8,,60,0
11160,note_on,,1,0,8,,,,,,,,,,,,,,,,11,,68,48
11160,note_on,,1,0,9,,,,,,,,,,,,,,,,12,,80,48
11160,note_on,,1,0,5,,,,,,,,,,,,,,,,2,,56,48
11160,note_on,,1,0,7,,,,,,,,,,,,,,,,10,,68,48
11160,note_on,,1,0,10,,,,,,,,,,,,,,,,13,,56,48
11160,note_on,,1,0,11,,,,,,,,,,,,,,,,15,,68,48
11160,note_on,,1,0,6,,,,,,,,,,,,,,,,8,,56,75
11160,note_on,,0,0,11,,,,,,,,,,,,,,,,15,,56,48
11219,note_on,,59,0,11,,,,,,,,,,,,,,,,15,,68,0
11219,note_on,,0,0,11,,,,,,,,,,,,,,,,15,,56,0
11219,note_on,,59,0,5,,,,,,,,,,,,,,,,2,,56,0
11219,note_on,,59,0,6,,,,,,,,,,,,,,,,8,,56,0
11219,note_on,,59,0,8,,,,,,,,,,,,,,,,11,,68,0
11219,note_on,,59,0,9,,,,,,,,,,,,,,,,12,,80,0
11219,note_on,,59,0,7,,,,,,,,,,,,,,,,10,,68,0
11219,note_on,,59,0,10,,,,,,,,,,,,,,,,13,,56,0
11220,note_on,,1,0,6,,,,,,,,,,,,,,,,8,,57,68
11220,note_on,,1,0,5,,,,,,,,,,,,,,,,2,,57,48
11220,note_on,,1,0,10,,,,,,,,,,,,,,,,13,,57,48
11220,note_on,,1,0,7,,,,,,,,,,,,,,,,10,,69,48
11220,note_on,,1,0,8,,,,,,,,,,,,,,,,11,,69,48
11220,note_on,,1,0,9,,,,,,,,,,,,,,,,12,,81,48
11220,note_on,,1,0,11,,,,,,,,,,,,,,,,15,,69,48
11220,note_on,,0,0,11,,,,,,,,,,,,,,,,15,,57,48
11279,note_on,,59,0,8,,,,,,,,,,,,,,,,11,,69,0
11279,note_on,,59,0,7,,,,,,,,,,,,,,,,10,,69,0
11279,note_on,,59,0,9,,,,,,,,,,,,,,,,12,,81,0
11279,note_on,,59,0,10,,,,,,,,,,,,,,,,13,,57,0
11279,note_on,,59,0,6,,,,,,,,,,,,,,,,8,,57,0
11279,note_on,,59,0,11,,,,,,,,,,,,,,,,15,,69,0
11279,note_on,,0,0,11,,,,,,,,,,,,,,,,15,,57,0
11279,note_on,,59,0,5,,,,,,,,,,,,,,,,2,,57,0
11280,note_on,,1,0,7,,,,,,,,,,,,,,,,10,,73,48
11280,note_on,,1,0,11,,,,,,,,,,,,,,,,15,,61,48
11280,note_on,,1,0,10,,,,,,,,,,,,,,,,13,,61,48
11280,note_on,,0,0,11,,,,,,,,,,,,,,,,15,,73,48
11280,note_on,,1,0,6,,,,,,,,,,,,,,,,8,,61,75
11280,note_on,,1,0,8,,,,,,,,,,,,,,,,11,,73,48
11280,note_on,,1,0,9,,,,,,,,,,,,,,,,12,,85,48
11280,note_on,,1,0,5,,,,,,,,,,,,,,,,2,,61,48
11339,note_on,,59,0,5,,,,,,,,,,,,,,,,2,,61,0
11339,note_on,,59,0,10,,,,,,,,,,,,,,,,13,,61,0
11339,note_on,,59,0,9,,,,,,,,,,,,,,,,12,,85,0
11339,note_on,,59,0,7,,,,,,,,,,,,,,,,10,,73,0
11339,note_on,,59,0,6,,,,,,,,,,,,,,,,8,,61,0
11339,note_on,,0,0,11,,,,,,,,,,,,,,,,15,,73,0
11339,note_on,,59,0,11,,,,,,,,,,,,,,,,15,,61,0
11339,note_on,,59,0,8,,,,,,,,,,,,,,,,11,,73,0
11340,note_on,,1,0,9,,,,,,,,,,,,,,,,12,,86,48
11340,note_on,,1,0,5,,,,,,,,,,,,,,,,2,,62,48
11340,note_on,,1,0,10,,,,,,,,,,,,,,,,13,,62,48
11340,note_on,,1,0,8,,,,,,,,,,,,,,,,11,,74,48
11340,note_on,,1,0,11,,,,,,,,,,,,,,,,15,,62,48
11340,note_on,,0,0,11,,,,,,,,,,,,,,,,15,,74,48
11340,note_on,,1,0,6,,,,,,,,,,,,,,,,8,,62,72
11340,note_on,,1,0,7,,,,,,,,,,,,,,,,10,,74,48
11399,note_on,,59,0,5,,,,,,,,,,,,,,,,2,,62,0
11399,note_on,,59,0,6,,,,,,,,,,,,,,,,8,,62,0
11399,note_on,,59,0,7,,,,,,,,,,,,,,,,10,,74,0
11399,note_on,,59,0,10,,,,,,,,,,,,,,,,13,,62,0
11399,note_on,,59,0,8,,,,,,,,,,,,,,,,11,,74,0
11399,note_on,,0,0,11,,,,,,,,,,,,,,,,15,,74,0
11399,note_on,,59,0,11,,,,,,,,,,,,,,,,15,,62,0
11399,note_on,,59,0,9,,,,,,,,,,,,,,,,12,,86,0
11400,note_on,,0,0,11,,,,,,,,,,,,,,,,15,,58,48
11400,note_on,,1,0,11,,,,,,,,,,,,,,,,15,,70,48
11400,note_on,,1,0,8,,,,,,,,,,,,,,,,11,,70,48
11400,note_on,,1,0,5,,,,,,,,,,,,,,,,2,,58,48
11400,note_on,,1,0,10,,,,,,,,,,,,,,,,13,,58,48
11400,note_on,,1,0,9,,,,,,,,,,,,,,,,12,,82,48
11400,note_on,,1,0,7,,,,,,,,,,,,,,,,10,,70,48
11400,note_on,,1,0,6,,,,,,,,,,,,,,,,8,,58,71
11459,note_on,,59,0,6,,,,,,,,,,,,,,,,8,,58,0
11459,note_on,,59,0,10,,,,,,,,,,,,,,,,13,,58,0
11459,note_on,,59,0,8,,,,,,,,,,,,,,,,11,,70,0
11459,note_on,,0,0,11,,,,,,,,,,,,,,,,15,,58,0
11459,note_on,,59,0,5,,,,,,,,,,,,,,,,2,,58,0
11459,note_on,,59,0,11,,,,,,,,,,,,,,,,15,,70,0
11459,note_on,,59,0,9,,,,,,,,,,,,,,,,12,,82,0
11459,note_on,,59,0,7,,,,,,,,,,,,,,,,10,,70,0
11460,note_on,,0,0,11,,,,,,,,,,,,,,,,15,,71,48
11460,note_on,,1,0,11,,,,,,,,,,,,,,,,15,,59,48
11460,note_on,,1,0,7,,,,,,,,,,,,,,,,10,,71,48
11460,note_on,,1,0,6,,,,,,,,,,,,,,,,8,,59,71
11460,note_on,,1,0,5,,,,,,,,,,,,,,,,2,,59,48
11460,note_on,,1,0,10,,,,,,,,,,,,,,,,13,,59,48
11460,note_on,,1,0,9,,,,,,,,,,,,,,,,12,,83,48
11460,note_on,,1,0,8,,,,,,,,,,,,,,,,11,,71,48
11519,note_on,,59,0,6,,,,,,,,,,,,,,,,8,,59,0
11519,note_on,,59,0,10,,,,,,,,,,,,,,,,13,,59,0
11519,note_on,,59,0,11,,,,,,,,,,,,,,,,15,,59,0
11519,note_on,,0,0,11,,,,,,,,,,,,,,,,15,,71,0
11519,note_on,,59,0,7,,,,,,,,,,,,,,,,10,,71,0
11519,note_on,,59,0,8,,,,,,,,,,,,,,,,11,,71,0
11519,note_on,,59,0,9,,,,,,,,,,,,,,,,12,,83,0
11519,note_on,,59,0,5,,,,,,,,,,,,,,,,2,,59,0
11520,note_on,,1,0,5,,,,,,,,,,,,,,,,2,,63,48
11520,note_on,,0,0,11,,,,,,,,,,,,,,,,15,,63,48
11520,note_on,,1,0,11,,,,,,,,,,,,,,,,15,,75,48
11520,note_on,,1,0,6,,,,,,,,,,,,,,,,8,,63,70
11520,note_on,,1,0,9,,,,,,,,,,,,,,,,12,,87,48
11520,note_on,,1,0,8,,,,,,,,,,,,,,,,11,,75,48
11520,note_on,,1,0,10,,,,,,,,,,,,,,,,13,,63,48
11520,note_on,,1,0,7,,,,,,,,,,,,,,,,10,,75,48
11579,note_on,,59,0,5,,,,,,,,,,,,,,,,2,,63,0
11579,note_on,,59,0,11,,,,,,,,,,,,,,,,15,,75,0
11579,note_on,,59,0,9,,,,,,,,,,,,,,,,12,,87,0
11579,note_on,,59,0,6,,,,,,,,,,,,,,,,8,,63,0
11579,note_on,,59,0,7,,,,,,,,,,,,,,,,10,,75,0
11579,note_on,,59,0,8,,,,,,,,,,,,,,,,11,,75,0
11579,note_on,,0,0,11,,,,,,,,,,,,,,,,15,,63,0
11579,note_on,,59,0,10,,,,,,,,,,,,,,,,13,,63,0
11580,note_on,,1,0,5,,,,,,,,,,,,,,,,2,,64,48
11580,note_on,,1,0,6,,,,,,,,,,,,,,,,8,,64,72
11580,note_on,,1,0,9,,,,,,,,,,,,,,,,12,,88,48
11580,note_on,,1,0,7,,,,,,,,,,,,,,,,10,,76,48
11580,note_on,,1,0,8,,,,,,,,,,,,,,,,11,,76,48
11580,note_on,,0,0,11,,,,,,,,,,,,,,,,15,,76,48
11580,note_on,,1,0,11,,,,,,,,,,,,,,,,15,,64,48
11580,note_on,,1,0,10,,,,,,,,,,,,,,,,13,,64,48
11639,note_on,,59,0,5,,,,,,,,,,,,,,,,2,,64,0
11639,note_on,,59,0,8,,,,,,,,,,,,,,,,11,,76,0
11639,note_on,,59,0,9,,,,,,,,,,,,,,,,12,,88,0
11639,note_on,,59,0,7,,,,,,,,,,,,,,,,10,,76,0
11639,note_on,,59,0,6,,,,,,,,,,,,,,,,8,,64,0
11639,note_on,,59,0,11,,,,,,,,,,,,,,,,15,,64,0
11639,note_on,,0,0,11,,,,,,,,,,,,,,,,15,,76,0
11639,note_on,,59,0,10,,,,,,,,,,,,,,,,13,,64,0
11640,note_on,,1,0,6,,,,,,,,,,,,,,,,8,,59,72
11640,note_on,,1,0,7,,,,,,,,,,,,,,,,10,,71,48
11640,note_on,,1,0,9,,,,,,,,,,,,,,,,12,,83,48
11640,note_on,,1,0,11,,,,,,,,,,,,,,,,15,,59,48
11640,note_on,,0,0,11,,,,,,,,,,,,,,,,15,,71,48
11640,note_on,,1,0,8,,,,,,,,,,,,,,,,11,,71,48
11640,note_on,,1,0,5,,,,,,,,,,,,,,,,2,,59,48
11640,note_on,,1,0,10,,,,,,,,,,,,,,,,13,,59,48
11699,note_on,,59,0,10,,,,,,,,,,,,,,,,13,,59,0
11699,note_on,,59,0,7,,,,,,,,,,,,,,,,10,,71,0
11699,note_on,,59,0,5,,,,,,,,,,,,,,,,2,,59,0
11699,note_on,,59,0,8,,,,,,,,,,,,,,,,11,,71,0
11699,note_on,,59,0,9,,,,,,,,,,,,,,,,12,,83,0
11699,note_on,,59,0,11,,,,,,,,,,,,,,,,15,,59,0
11699,note_on,,0,0,11,,,,,,,,,,,,,,,,15,,71,0
11699,note_on,,59,0,6,,,,,,,,,,,,,,,,8,,59,0
11700,note_on,,1,0,8,,,,,,,,,,,,,,,,11,,72,48
11700,note_on,,1,0,6,,,,,,,,,,,,,,,,8,,60,71
11700,note_on,,1,0,10,,,,,,,,,,,,,,,,13,,60,48
11700,note_on,,1,0,7,,,,,,,,,,,,,,,,10,,72,48
11700,note_on,,1,0,5,,,,,,,,,,,,,,,,2,,60,48
11700,note_on,,1,0,11,,,,,,,,,,,,,,,,15,,72,48
11700,note_on,,0,0,11,,,,,,,,,,,,,,,,15,,60,48
11700,note_on,,1,0,9,,,,,,,,,,,,,,,,12,,84,48
11759,note_on,,59,0,6,,,,,,,,,,,,,,,,8,,60,0
11759,note_on,,59,0,7,,,,,,,,,,,,,,,,10,,72,0
11759,note_on,,59,0,9,,,,,,,,,,,,,,,,12,,84,0
11759,note_on,,59,0,11,,,,,,,,,,,,,,,,15,,72,0
11759,note_on,,59,0,8,,,,,,,,,,,,,,,,11,,72,0
11759,note_on,,0,0,11,,,,,,,,,,,,,,,,15,,60,0
11759,note_on,,59,0,10,,,,,,,,,,,,,,,,13,,60,0
11759,note_on,,59,0,5,,,,,,,,,,,,,,,,2,,60,0
11760,note_on,,1,0,11,,,,,,,,,,,,,,,,15,,68,48
11760,note_on,,0,0,11,,,,,,,,,,,,,,,,15,,56,48
11760,note_on,,1,0,6,,,,,,,,,,,,,,,,8,,56,68
11760,note_on,,1,0,8,,,,,,,,,,,,,,,,11,,68,48
11760,note_on,,1,0,5,,,,,,,,,,,,,,,,2,,56,48
11760,note_on,,1,0,9,,,,,,,,,,,,,,,,12,,80,48
11760,note_on,,1,0,7,,,,,,,,,,,,,,,,10,,68,48
11760,note_on,,1,0,10,,,,,,,,,,,,,,,,13,,56,48
11819,note_on,,59,0,10,,,,,,,,,,,,,,,,13,,56,0
11819,note_on,,59,0,9,,,,,,,,,,,,,,,,12,,80,0
11819,note_on,,0,0,11,,,,,,,,,,,,,,,,15,,56,0
11819,note_on,,59,0,7,,,,,,,,,,,,,,,,10,,68,0
11819,note_on,,59,0,6,,,,,,,,,,,,,,,,8,,56,0
11819,note_on,,59,0,11,,,,,,,,,,,,,,,,15,,68,0
11819,note_on,,59,0,5,,,,,,,,,,,,,,,,2,,56,0
11819,note_on,,59,0,8,,,,,,,,,,,,,,,,11,,68,0
11820,note_on,,1,0,10,,,,,,,,,,,,,,,,13,,57,48
11820,note_on,,1,0,9,,,,,,,,,,,,,,,,12,,81,48
11820,note_on,,1,0,5,,,,,,,,,,,,,,,,2,,57,48
11820,note_on,,1,0,6,,,,,,,,,,,,,,,,8,,57,68
11820,note_on,,1,0,7,,,,,,,,,,,,,,,,10,,69,48
11820,note_on,,1,0,8,,,,,,,,,,,,,,,,11,,69,48
11820,note_on,,1,0,11,,,,,,,,,,,,,,,,15,,69,48
11820,note_on,,0,0,11,,,,,,,,,,,,,,,,15,,57,48
11879,note_on,,59,0,6,,,,,,,,,,,,,,,,8,,57,0
11879,note_on,,59,0,9,,,,,,,,,,,,,,,,12,,81,0
11879,note_on,,59,0,7,,,,,,,,,,,,,,,,10,,69,0
11879,note_on,,0,0,11,,,,,,,,,,,,,,,,15,,57,0
11879,note_on,,59,0,11,,,,,,,,,,,,,,,,15,,69,0
11879,note_on,,59,0,8,,,,,,,,,,,,,,,,11,,69,0
11879,note_on,,59,0,5,,,,,,,,,,,,,,,,2,,57,0
11879,note_on,,59,0,10,,,,,,,,,,,,,,,,13,,57,0
11880,note_on,,1,0,6,,,,,,,,,,,,,,,,8,,54,72
11880,note_on,,1,0,11,,,,,,,,,,,,,,,,15,,54,48
11880,note_on,,0,0,11,,,,,,,,,,,,,,,,15,,66,48
11880,note_on,,1,0,8,,,,,,,,,,,,,,,,11,,66,48
11880,note_on,,1,0,7,,,,,,,,,,,,,,,,10,,66,48
11880,note_on,,1,0,9,,,,,,,,,,,,,,,,12,,78,48
11880,note_on,,1,0,5,,,,,,,,,,,,,,,,2,,54,48
11880,note_on,,1,0,10,,,,,,,,,,,,,,,,13,,54,48
11939,note_on,,59,0,10,,,,,,,,,,,,,,,,13,,54,0
11939,note_on,,59,0,5,,,,,,,,,,,,,,,,2,,54,0
11939,note_on,,59,0,8,,,,,,,,,,,,,,,,11,,66,0
11939,note_on,,59,0,9,,,,,,,,,,,,,,,,12,,78,0
11939,note_on,,59,0,6,,,,,,,,,,,,,,,,8,,54,0
11939,note_on,,59,0,7,,,,,,,,,,,,,,,,10,,66,0
11939,note_on,,0,0,11,,,,,,,,,,,,,,,,15,,66,0
11939,note_on,,59,0,11,,,,,,,,,,,,,,,,15,,54,0
11940,note_on,,1,0,5,,,,,,,,,,,,,,,,2,,55,48
11940,note_on,,0,0,11,,,,,,,,,,,,,,,,15,,67,48
11940,note_on,,1,0,11,,,,,,,,,,,,,,,,15,,55,48
11940,note_on,,1,0,10,,,,,,,,,,,,,,,,13,,55,48
11940,note_on,,1,0,8,,,,,,,,,,,,,,,,11,,67,48
11940,note_on,,1,0,6,,,,,,,,,,,,,,,,8,,55,69
11940,note_on,,1,0,9,,,,,,,,,,,,,,,,12,,79,48
11940,note_on,,1,0,7,,,,,,,,,,,,,,,,10,,67,48
11999,note_on,,59,0,8,,,,,,,,,,,,,,,,11,,67,0
11999,note_on,,59,0,11,,,,,,,,,,,,,,,,15,,55,0
11999,note_on,,0,0,11,,,,,,,,,,,,,,,,15,,67,0
11999,note_on,,59,0,7,,,,,,,,,,,,,,,,10,,67,0
11999,note_on,,59,0,10,,,,,,,,,,,,,,,,13,,55,0
11999,note_on,,59,0,6,,,,,,,,,,,,,,,,8,,55,0
11999,note_on,,59,0,9,,,,,,,,,,,,,,,,12,,79,0
11999,note_on,,59,0,5,,,,,,,,,,,,,,,,2,,55,0
12000,note_on,,1,0,7,,,,,,,,,,,,,,,,10,,63,48
12000,note_on,,1,0,6,,,,,,,,,,,,,,,,8,,51,68
12000,note_on,,1,0,8,,,,,,,,,,,,,,,,11,,63,48
12000,note_on,,1,0,5,,,,,,,,,,,,,,,,2,,51,48
12000,note_on,,1,0,11,,,,,,,,,,,,,,,,15,,63,48
12000,note_on,,0,0,11,,,,,,,,,,,,,,,,15,,51,48
12000,note_on,,1,0,9,,,,,,,,,,,,,,,,12,,75,48
12000,note_on,,1,0,10,,,,,,,,,,,,,,,,13,,51,48
12059,note_on,,0,0,11,,,,,,,,,,,,,,,,15,,51,0
12059,note_on,,59,0,9,,,,,,,,,,,,,,,,12,,75,0
12059,note_on,,59,0,6,,,,,,,,,,,,,,,,8,,51,0
12059,note_on,,59,0,7,,,,,,,,,,,,,,,,10,,63,0
12059,note_on,,59,0,11,,,,,,,,,,,,,,,,15,,63,0
12059,note_on,,59,0,10,,,,,,,,,,,,,,,,13,,51,0
12059,note_on,,59,0,8,,,,,,,,,,,,,,,,11,,63,0
12059,note_on,,59,0,5,,,,,,,,,,,,,,,,2,,51,0
12060,note_on,,1,0,9,,,,,,,,,,,,,,,,12,,76,48
12060,note_on,,1,0,8,,,,,,,,,,,,,,,,11,,64,48
12060,note_on,,1,0,7,,,,,,,,,,,,,,,,10,,64,48
12060,note_on,,1,0,5,,,,,,,,,,,,,,,,2,,52,48
12060,note_on,,0,0,11,,,,,,,,,,,,,,,,15,,52,48
12060,note_on,,1,0,6,,,,,,,,,,,,,,,,8,,52,68
12060,note_on,,1,0,11,,,,,,,,,,,,,,,,15,,64,48
12060,note_on,,1,0,10,,,,,,,,,,,,,,,,13,,52,48
12119,note_on,,59,0,9,,,,,,,,,,,,,,,,12,,76,0
12119,note_on,,59,0,5,,,,,,,,,,,,,,,,2,,52,0
12119,note_on,,59,0,11,,,,,,,,,,,,,,,,15,,64,0
12119,note_on,,0,0,11,,,,,,,,,,,,,,,,15,,52,0
12119,note_on,,59,0,6,,,,,,,,,,,,,,,,8,,52,0
12119,note_on,,59,0,10,,,,,,,,,,,,,,,,13,,52,0
12119,note_on,,59,0,8,,,,,,,,,,,,,,,,11,,64,0
12119,note_on,,59,0,7,,,,,,,,,,,,,,,,10,,64,0
12120,note_on,,1,0,11,,,,,,,,,,,,,,,,15,,48,48
12120,note_on,,1,0,9,,,,,,,,,,,,,,,,12,,72,48
12120,note_on,,1,0,7,,,,,,,,,,,,,,,,10,,60,48
12120,note_on,,1,0,8,,,,,,,,,,,,,,,,11,,60,48
12120,note_on,,1,0,6,,,,,,,,,,,,,,,,8,,48,71
12120,note_on,,1,0,10,,,,,,,,,,,,,,,,13,,48,48
12120,note_on,,1,0,5,,,,,,,,,,,,,,,,2,,48,48
12120,note_on,,0,0,11,,,,,,,,,,,,,,,,15,,60,48
12179,note_on,,59,0,7,,,,,,,,,,,,,,,,10,,60,0
12179,note_on,,59,0,6,,,,,,,,,,,,,,,,8,,48,0
12179,note_on,,59,0,9,,,,,,,,,,,,,,,,12,,72,0
12179,note_on,,0,0,11,,,,,,,,,,,,,,,,15,,60,0
12179,note_on,,59,0,11,,,,,,,,,,,,,,,,15,,48,0
12179,note_on,,59,0,5,,,,,,,,,,,,,,,,2,,48,0
12179,note_on,,59,0,10,,,,,,,,,,,,,,,,13,,48,0
12179,note_on,,59,0,8,,,,,,,,,,,,,,,,11,,60,0
12180,note_on,,1,0,7,,,,,,,,,,,,,,,,10,,59,48
12180,note_on,,1,0,9,,,,,,,,,,,,,,,,12,,71,48
12180,note_on,,1,0,5,,,,,,,,,,,,,,,,2,,47,48
12180,note_on,,1,0,6,,,,,,,,,,,,,,,,8,,47,69
12180,note_on,,1,0,10,,,,,,,,,,,,,,,,13,,47,48
12180,note_on,,1,0,8,,,,,,,,,,,,,,,,11,,59,48
12180,note_on,,0,0,11,,,,,,,,,,,,,,,,15,,59,48
12180,note_on,,1,0,11,,,,,,,,,,,,,,,,15,,47,48
12239,note_on,,59,0,11,,,,,,,,,,,,,,,,15,,47,0
12239,note_on,,59,0,9,,,,,,,,,,,,,,,,12,,71,0
12239,note_on,,0,0,11,,,,,,,,,,,,,,,,15,,59,0
12239,note_on,,59,0,8,,,,,,,,,,,,,,,,11,,59,0
12239,note_on,,59,0,5,,,,,,,,,,,,,,,,2,,47,0
12239,note_on,,59,0,6,,,,,,,,,,,,,,,,8,,47,0
12239,note_on,,59,0,7,,,,,,,,,,,,,,,,10,,59,0
12239,note_on,,59,0,10,,,,,,,,,,,,,,,,13,,47,0
12240,note_on,,1,0,8,,,,,,,,,,,,,,,,11,,58,48
12240,note_on,,1,0,10,,,,,,,,,,,,,,,,13,,46,48
12240,note_on,,0,0,11,,,,,,,,,,,,,,,,15,,46,48
12240,note_on,,1,0,5,,,,,,,,,,,,,,,,2,,46,48
12240,note_on,,1,0,11,,,,,,,,,,,,,,,,15,,58,48
12240,note_on,,1,0,7,,,,,,,,,,,,,,,,10,,58,48
12240,note_on,,1,0,9,,,,,,,,,,,,,,,,12,,70,48
12240,note_on,,1,0,6,,,,,,,,,,,,,,,,8,,46,68
12299,note_on,,59,0,9,,,,,,,,,,,,,,,,12,,70,0
12299,note_on,,59,0,11,,,,,,,,,,,,,,,,15,,58,0
12299,note_on,,0,0,11,,,,,,,,,,,,,,,,15,,46,0
12299,note_on,,59,0,6,,,,,,,,,,,,,,,,8,,46,0
12299,note_on,,59,0,10,,,,,,,,,,,,,,,,13,,46,0
12299,note_on,,59,0,5,,,,,,,,,,,,,,,,2,,46,0
12299,note_on,,59,0,7,,,,,,,,,,,,,,,,10,,58,0
12299,note_on,,59,0,8,,,,,,,,,,,,,,,,11,,58,0
12300,note_on,,1,0,7,,,,,,,,,,,,,,,,10,,59,48
12300,note_on,,1,0,11,,,,,,,,,,,,,,,,15,,47,48
12300,note_on,,1,0,5,,,,,,,,,,,,,,,,2,,47,48
12300,note_on,,1,0,8,,,,,,,,,,,,,,,,11,,59,48
12300,note_on,,1,0,10,,,,,,,,,,,,,,,,13,,47,48
12300,note_on,,0,0,11,,,,,,,,,,,,,,,,15,,59,48
12300,note_on,,1,0,6,,,,,,,,,,,,,,,,8,,47,75
12300,note_on,,1,0,9,,,,,,,,,,,,,,,,12,,71,48
12359,note_on,,59,0,10,,,,,,,,,,,,,,,,13,,47,0
12359,note_on,,59,0,11,,,,,,,,,,,,,,,,15,,47,0
12359,note_on,,0,0,11,,,,,,,,,,,,,,,,15,,59,0
12359,note_on,,59,0,5,,,,,,,,,,,,,,,,2,,47,0
12359,note_on,,59,0,7,,,,,,,,,,,,,,,,10,,59,0
12359,note_on,,59,0,8,,,,,,,,,,,,,,,,11,,59,0
12359,note_on,,59,0,6,,,,,,,,,,,,,,,,8,,47,0
12359,note_on,,59,0,9,,,,,,,,,,,,,,,,12,,71,0
12360,note_on,,1,0,8,,,,,,,,,,,,,,,,11,,63,48
12360,note_on,,1,0,5,,,,,,,,,,,,,,,,2,,51,48
12360,note_on,,1,0,7,,,,,,,,,,,,,,,,10,,63,48
12360,note_on,,1,0,10,,,,,,,,,,,,,,,,13,,51,48
12360,note_on,,0,0,11,,,,,,,,,,,,,,,,15,,63,48
12360,note_on,,1,0,6,,,,,,,,,,,,,,,,8,,57,70
12360,note_on,,1,0,9,,,,,,,,,,,,,,,,12,,75,48
12360,note_on,,1,0,11,,,,,,,,,,,,,,,,15,,51,48
12419,note_on,,59,0,9,,,,,,,,,,,,,,,,12,,75,0
12419,note_on,,59,0,5,,,,,,,,,,,,,,,,2,,51,0
12419,note_on,,59,0,7,,,,,,,,,,,,,,,,10,,63,0
12419,note_on,,59,0,11,,,,,,,,,,,,,,,,15,,51,0
12419,note_on,,0,0,11,,,,,,,,,,,,,,,,15,,63,0
12419,note_on,,59,0,10,,,,,,,,,,,,,,,,13,,51,0
12419,note_on,,59,0,6,,,,,,,,,,,,,,,,8,,57,0
12419,note_on,,59,0,8,,,,,,,,,,,,,,,,11,,63,0
12420,note_on,,1,0,5,,,,,,,,,,,,,,,,2,,52,48
12420,note_on,,1,0,10,,,,,,,,,,,,,,,,13,,52,48
12420,note_on,,1,0,7,,,,,,,,,,,,,,,,10,,64,48
12420,note_on,,1,0,8,,,,,,,,,,,,,,,,11,,64,48
12420,note_on,,1,0,9,,,,,,,,,,,,,,,,12,,76,48
12420,note_on,,0,0,11,,,,,,,,,,,,,,,,15,,64,48
12420,note_on,,1,0,11,,,,,,,,,,,,,,,,15,,52,48
12420,note_on,,1,0,6,,,,,,,,,,,,,,,,8,,55,74
12479,note_on,,59,0,10,,,,,,,,,,,,,,,,13,,52,0
12479,note_on,,59,0,5,,,,,,,,,,,,,,,,2,,52,0
12479,note_on,,0,0,11,,,,,,,,,,,,,,,,15,,64,0
12479,note_on,,59,0,11,,,,,,,,,,,,,,,,15,,52,0
12479,note_on,,59,0,6,,,,,,,,,,,,,,,,8,,55,0
12480,note_on,,0,0,11,,,,,,,,,,,,,,,,15,,72,48
12480,note_on,,0,0,11,,,,,,,,,,,,,,,,15,,69,48
12480,note_on,,1,0,10,,,,,,,,,,,,,,,,13,,45,48
12480,note_on,,0,0,11,,,,,,,,,,,,,,,,15,,45,48
12480,note_on,,1,0,5,,,,,,,,,,,,,,,,2,,45,48
12480,note_on,,0,0,11,,,,,,,,,,,,,,,,15,,54,48
12480,note_on,,1,0,11,,,,,,,,,,,,,,,,15,,64,48
12480,note_on,,1,0,6,,,,,,,,,,,,,,,,8,,54,72
12539,note_on,,0,0,11,,,,,,,,,,,,,,,,15,,54,0
12539,note_on,,59,0,5,,,,,,,,,,,,,,,,2,,45,0
12539,note_on,,59,0,10,,,,,,,,,,,,,,,,13,,45,0
12539,note_on,,59,0,6,,,,,,,,,,,,,,,,8,,54,0
12539,note_on,,0,0,11,,,,,,,,,,,,,,,,15,,45,0
12539,note_on,,0,0,11,,,,,,,,,,,,,,,,15,,69,0
12539,note_on,,0,0,11,,,,,,,,,,,,,,,,15,,72,0
12539,note_on,,59,0,11,,,,,,,,,,,,,,,,15,,64,0
12540,note_on,,1,0,6,,,,,,,,,,,,,,,,8,,55,68
12540,note_on,,0,0,11,,,,,,,,,,,,,,,,15,,52,48
12540,note_on,,0,0,11,,,,,,,,,,,,,,,,15,,71,48
12540,note_on,,1,0,5,,,,,,,,,,,,,,,,2,,47,48
12540,note_on,,0,0,11,,,,,,,,,,,,,,,,15,,59,48
12540,note_on,,0,0,11,,,,,,,,,,,,,,,,15,,47,48
12540,note_on,,1,0,11,,,,,,,,,,,,,,,,15,,67,48
12540,note_on,,1,0,10,,,,,,,,,,,,,,,,13,,47,48
12540,note_on,,0,0,11,,,,,,,,,,,,,,,,15,,64,48
12659,note_on,,239,0,9,,,,,,,,,,,,,,,,12,,76,0
12659,note_on,,0,0,11,,,,,,,,,,,,,,,,15,,52,0
12659,note_on,,0,0,11,,,,,,,,,,,,,,,,15,,71,0
12659,note_on,,239,0,8,,,,,,,,,,,,,,,,11,,64,0
12659,note_on,,119,0,10,,,,,,,,,,,,,,,,13,,47,0
12659,note_on,,0,0,11,,,,,,,,,,,,,,,,15,,64,0
12659,note_on,,0,0,11,,,,,,,,,,,,,,,,15,,59,0
12659,note_on,,119,0,5,,,,,,,,,,,,,,,,2,,47,0
12659,note_on,,239,0,7,,,,,,,,,,,,,,,,10,,64,0
12659,note_on,,119,0,6,,,,,,,,,,,,,,,,8,,55,0
12659,note_on,,119,0,11,,,,,,,,,,,,,,,,15,,67,0
12659,note_on,,0,0,11,,,,,,,,,,,,,,,,15,,47,0
12660,note_on,,1,0,9,,,,,,,,,,,,,,,,12,,75,48
12660,note_on,,1,0,5,,,,,,,,,,,,,,,,2,,47,48
12660,note_on,,1,0,10,,,,,,,,,,,,,,,,13,,47,48
12660,note_on,,0,0,11,,,,,,,,,,,,,,,,15,,59,48
12660,note_on,,0,0,11,,,,,,,,,,,,,,,,15,,54,48
12660,note_on,,0,0,11,,,,,,,,,,,,,,,,15,,63,48
12660,note_on,,0,0,11,,,,,,,,,,,,,,,,15,,66,48
12660,note_on,,1,0,6,,,,,,,,,,,,,,,,8,,54,69
12660,note_on,,1,0,11,,,,,,,,,,,,,,,,15,,47,48
12660,note_on,,1,0,7,,,,,,,,,,,,,,,,10,,63,48
12660,note_on,,1,0,8,,,,,,,,,,,,,,,,11,,63,48
12749,note_on,,89,0,6,,,,,,,,,,,,,,,,8,,54,0
12750,note_on,,1,0,6,,,,,,,,,,,,,,,,8,,52,74
12779,note_on,,0,0,11,,,,,,,,,,,,,,,,15,,54,0
12779,note_on,,0,0,11,,,,,,,,,,,,,,,,15,,63,0
12779,note_on,,0,0,11,,,,,,,,,,,,,,,,15,,66,0
12779,note_on,,119,0,11,,,,,,,,,,,,,,,,15,,47,0
12779,note_on,,0,0,11,,,,,,,,,,,,,,,,15,,59,0
12779,note_on,,29,0,6,,,,,,,,,,,,,,,,8,,52,0
12779,note_on,,119,0,7,,,,,,,,,,,,,,,,10,,63,0
12779,note_on,,119,0,5,,,,,,,,,,,,,,,,2,,47,0
12779,note_on,,119,0,9,,,,,,,,,,,,,,,,12,,75,0
12779,note_on,,119,0,10,,,,,,,,,,,,,,,,13,,47,0
12779,note_on,,119,0,8,,,,,,,,,,,,,,,,11,,63,0
12780,note_on,,1,0,5,,,,,,,,,,,,,,,,2,,40,48
12780,note_on,,0,0,11,,,,,,,,,,,,,,,,15,,40,48
12780,note_on,,0,0,11,,,,,,,,,,,,,,,,15,,67,48
12780,note_on,,0,0,11,,,,,,,,,,,,,,,,15,,59,48
12780,note_on,,0,0,11,,,,,,,,,,,,,,,,15,,64,48
12780,note_on,,1,0,11,,,,,,,,,,,,,,,,15,,52,48
12780,note_on,,1,0,7,,,,,,,,,,,,,,,,10,,64,48
12780,note_on,,1,0,8,,,,,,,,,,,,,,,,11,,64,48
12780,note_on,,1,0,10,,,,,,,,,,,,,,,,13,,40,48
12780,note_on,,1,0,9,,,,,,,,,,,,,,,,12,,76,48
12780,note_on,,1,0,6,,,,,,,,,,,,,,,,8,,52,74
12899,note_on,,119,0,8,,,,,,,,,,,,,,,,11,,64,0
12899,note_on,,0,0,11,,,,,,,,,,,,,,,,15,,59,0
12899,note_on,,0,0,11,,,,,,,,,,,,,,,,15,,64,0
12899,note_on,,119,0,11,,,,,,,,,,,,,,,,15,,52,0
12899,note_on,,119,0,5,,,,,,,,,,,,,,,,2,,40,0
12899,note_on,,119,0,9,,,,,,,,,,,,,,,,12,,76,0
12899,note_on,,0,0,11,,,,,,,,,,,,,,,,15,,40,0
12899,note_on,,119,0,7,,,,,,,,,,,,,,,,10,,64,0
12899,note_on,,119,0,10,,,,,,,,,,,,,,,,13,,40,0
12899,note_on,,0,0,11,,,,,,,,,,,,,,,,15,,67,0
12899,note_on,,119,0,6,,,,,,,,,,,,,,,,8,,52,0
12960,note_on,,0,0,11,,,,,,,,,,,,,,,,15,,52,48
12960,note_on,,61,0,5,,,,,,,,,,,,,,,,2,,52,48
12960,note_on,,61,0,11,,,,,,,,,,,,,,,,15,,64,48
12960,note_on,,61,0,10,,,,,,,,,,,,,,,,13,,52,48
12960,note_on,,61,0,6,,,,,,,,,,,,,,,,8,,52,68
13019,note_on,,59,0,11,,,,,,,,,,,,,,,,15,,64,0
13019,note_on,,0,0,11,,,,,,,,,,,,,,,,15,,52,0
13019,note_on,,59,0,10,,,,,,,,,,,,,,,,13,,52,0
13019,note_on,,59,0,6,,,,,,,,,,,,,,,,8,,52,0
13019,note_on,,59,0,5,,,,,,,,,,,,,,,,2,,52,0
13020,note_on,,1,0,5,,,,,,,,,,,,,,,,2,,54,48
13020,note_on,,1,0,10,,,,,,,,,,,,,,,,13,,54,48
13020,note_on,,0,0,11,,,,,,,,,,,,,,,,15,,66,48
13020,note_on,,1,0,11,,,,,,,,,,,,,,,,15,,54,48
13020,note_on,,1,0,6,,,,,,,,,,,,,,,,8,,54,73
13079,note_on,,0,0,11,,,,,,,,,,,,,,,,15,,66,0
13079,note_on,,59,0,11,,,,,,,,,,,,,,,,15,,54,0
13079,note_on,,59,0,10,,,,,,,,,,,,,,,,13,,54,0
13079,note_on,,59,0,6,,,,,,,,,,,,,,,,8,,54,0
13079,note_on,,59,0,5,,,,,,,,,,,,,,,,2,,54,0
13080,note_on,,1,0,10,,,,,,,,,,,,,,,,13,,50,48
13080,note_on,,1,0,6,,,,,,,,,,,,,,,,8,,50,73
13080,note_on,,1,0,5,,,,,,,,,,,,,,,,2,,50,48
13080,note_on,,1,0,11,,,,,,,,,,,,,,,,15,,50,48
13080,note_on,,0,0,11,,,,,,,,,,,,,,,,15,,62,48
13139,note_on,,59,0,10,,,,,,,,,,,,,,,,13,,50,0
13139,note_on,,0,0,11,,,,,,,,,,,,,,,,15,,62,0
13139,note_on,,59,0,11,,,,,,,,,,,,,,,,15,,50,0
13139,note_on,,59,0,5,,,,,,,,,,,,,,,,2,,50,0
13139,note_on,,59,0,6,,,,,,,,,,,,,,,,8,,50,0
13140,note_on,,1,0,5,,,,,,,,,,,,,,,,2,,47,48
13140,note_on,,1,0,6,,,,,,,,,,,,,,,,8,,47,68
13140,note_on,,1,0,10,,,,,,,,,,,,,,,,13,,47,48
13140,note_on,,0,0,11,,,,,,,,,,,,,,,,15,,47,48
13140,note_on,,1,0,11,,,,,,,,,,,,,,,,15,,59,48
13199,note_on,,59,0,5,,,,,,,,,,,,,,,,2,,47,0
13199,note_on,,59,0,11,,,,,,,,,,,,,,,,15,,59,0
13199,note_on,,0,0,11,,,,,,,,,,,,,,,,15,,47,0
13199,note_on,,59,0,10,,,,,,,,,,,,,,,,13,,47,0
13199,note_on,,59,0,6,,,,,,,,,,,,,,,,8,,47,0
13200,note_on,,1,0,6,,,,,,,,,,,,,,,,8,,56,68
13200,note_on,,1,0,5,,,,,,,,,,,,,,,,2,,56,48
13200,note_on,,1,0,11,,,,,,,,,,,,,,,,15,,68,48
13200,note_on,,1,0,10,,,,,,,,,,,,,,,,13,,56,48
13200,note_on,,0,0,11,,,,,,,,,,,,,,,,15,,56,48
13259,note_on,,59,0,11,,,,,,,,,,,,,,,,15,,68,0
13259,note_on,,59,0,5,,,,,,,,,,,,,,,,2,,56,0
13259,note_on,,0,0,11,,,,,,,,,,,,,,,,15,,56,0
13259,note_on,,59,0,10,,,,,,,,,,,,,,,,13,,56,0
13259,note_on,,59,0,6,,,,,,,,,,,,,,,,8,,56,0
13260,note_on,,1,0,6,,,,,,,,,,,,,,,,8,,57,75
13260,note_on,,1,0,11,,,,,,,,,,,,,,,,15,,57,48
13260,note_on,,0,0,11,,,,,,,,,,,,,,,,15,,69,48
13260,note_on,,1,0,5,,,,,,,,,,,,,,,,2,,57,48
13260,note_on,,1,0,10,,,,,,,,,,,,,,,,13,,57,48
13319,note_on,,59,0,11,,,,,,,,,,,,,,,,15,,57,0
13319,note_on,,0,0,11,,,,,,,,,,,,,,,,15,,69,0
13319,note_on,,59,0,5,,,,,,,,,,,,,,,,2,,57,0
13319,note_on,,59,0,10,,,,,,,,,,,,,,,,13,,57,0
13320,note_on,,1,0,10,,,,,,,,,,,,,,,,13,,59,48
13320,note_on,,1,0,5,,,,,,,,,,,,,,,,2,,59,48
13320,note_on,,0,0,11,,,,,,,,,,,,,,,,15,,68,48
13320,note_on,,0,0,11,,,,,,,,,,,,,,,,15,,59,48
13320,note_on,,1,0,11,,,,,,,,,,,,,,,,15,,62,48
13320,note_on,,0,0,11,,,,,,,,,,,,,,,,15,,74,48
13379,note_on,,0,0,11,,,,,,,,,,,,,,,,15,,74,0
13379,note_on,,59,0,10,,,,,,,,,,,,,,,,13,,59,0
13379,note_on,,0,0,11,,,,,,,,,,,,,,,,15,,68,0
13379,note_on,,59,0,5,,,,,,,,,,,,,,,,2,,59,0
13379,note_on,,0,0,11,,,,,,,,,,,,,,,,15,,59,0
13379,note_on,,59,0,11,,,,,,,,,,,,,,,,15,,62,0
13380,note_on,,1,0,5,,,,,,,,,,,,,,,,2,,61,48
13380,note_on,,0,0,11,,,,,,,,,,,,,,,,15,,61,48
13380,note_on,,0,0,11,,,,,,,,,,,,,,,,15,,69,48
13380,note_on,,0,0,11,,,,,,,,,,,,,,,,15,,76,48
13380,note_on,,1,0,11,,,,,,,,,,,,,,,,15,,73,48
13380,note_on,,1,0,10,,,,,,,,,,,,,,,,13,,61,48
13439,note_on,,59,0,5,,,,,,,,,,,,,,,,2,,61,0
13439,note_on,,59,0,10,,,,,,,,,,,,,,,,13,,61,0
13439,note_on,,59,0,11,,,,,,,,,,,,,,,,15,,73,0
13439,note_on,,0,0,11,,,,,,,,,,,,,,,,15,,61,0
13439,note_on,,0,0,11,,,,,,,,,,,,,,,,15,,76,0
13439,note_on,,0,0,11,,,,,,,,,,,,,,,,15,,69,0
13440,note_on,,1,0,5,,,,,,,,,,,,,,,,2,,49,48
13440,note_on,,1,0,10,,,,,,,,,,,,,,,,13,,49,48
13440,note_on,,541,0,7,,,,,,,,,,,,,,,,10,,64,48
13440,note_on,,0,0,11,,,,,,,,,,,,,,,,15,,49,48
13440,note_on,,0,0,11,,,,,,,,,,,,,,,,15,,69,48
13440,note_on,,1,0,11,,,,,,,,,,,,,,,,15,,64,48
13440,note_on,,541,0,8,,,,,,,,,,,,,,,,11,,64,48
13440,note_on,,541,0,9,,,,,,,,,,,,,,,,12,,76,48
13499,note_on,,59,0,5,,,,,,,,,,,,,,,,2,,49,0
13499,note_on,,0,0,11,,,,,,,,,,,,,,,,15,,69,0
13499,note_on,,59,0,11,,,,,,,,,,,,,,,,15,,64,0
13499,note_on,,59,0,7,,,,,,,,,,,,,,,,10,,64,0
13499,note_on,,59,0,9,,,,,,,,,,,,,,,,12,,76,0
13499,note_on,,59,0,8,,,,,,,,,,,,,,,,11,,64,0
13499,note_on,,59,0,10,,,,,,,,,,,,,,,,13,,49,0
13499,note_on,,0,0,11,,,,,,,,,,,,,,,,15,,49,0
13500,note_on,,0,0,11,,,,,,,,,,,,,,,,15,,57,48
13500,note_on,,1,0,10,,,,,,,,,,,,,,,,13,,50,48
13500,note_on,,1,0,5,,,,,,,,,,,,,,,,2,,50,48
13500,note_on,,1,0,11,,,,,,,,,,,,,,,,15,,50,48
13500,note_on,,0,0,11,,,,,,,,,,,,,,,,15,,62,48
13500,note_on,,0,0,11,,,,,,,,,,,,,,,,15,,66,48
13500,note_on,,1,0,8,,,,,,,,,,,,,,,,11,,66,48
13500,note_on,,1,0,7,,,,,,,,,,,,,,,,10,,66,48
13500,note_on,,1,0,9,,,,,,,,,,,,,,,,12,,78,48
13559,note_on,,0,0,11,,,,,,,,,,,,,,,,15,,57,0
13559,note_on,,0,0,11,,,,,,,,,,,,,,,,15,,66,0
13559,note_on,,0,0,11,,,,,,,,,,,,,,,,15,,62,0
13559,note_on,,59,0,11,,,,,,,,,,,,,,,,15,,50,0
13559,note_on,,59,0,10,,,,,,,,,,,,,,,,13,,50,0
13559,note_on,,59,0,8,,,,,,,,,,,,,,,,11,,66,0
13559,note_on,,59,0,9,,,,,,,,,,,,,,,,12,,78,0
13559,note_on,,59,0,5,,,,,,,,,,,,,,,,2,,50,0
13559,note_on,,59,0,7,,,,,,,,,,,,,,,,10,,66,0
13560,note_on,,1,0,5,,,,,,,,,,,,,,,,2,,47,48
13560,note_on,,1,0,10,,,,,,,,,,,,,,,,13,,47,48
13560,note_on,,1,0,8,,,,,,,,,,,,,,,,11,,62,48
13560,note_on,,0,0,11,,,,,,,,,,,,,,,,15,,47,48
13560,note_on,,0,0,11,,,,,,,,,,,,,,,,15,,71,48
13560,note_on,,0,0,11,,,,,,,,,,,,,,,,15,,66,48
13560,note_on,,1,0,11,,,,,,,,,,,,,,,,15,,62,48
13560,note_on,,1,0,7,,,,,,,,,,,,,,,,10,,62,48
13560,note_on,,1,0,9,,,,,,,,,,,,,,,,12,,74,48
13619,note_on,,59,0,7,,,,,,,,,,,,,,,,10,,62,0
13619,note_on,,359,0,6,,,,,,,,,,,,,,,,8,,57,0
13619,note_on,,59,0,8,,,,,,,,,,,,,,,,11,,62,0
13619,note_on,,59,0,5,,,,,,,,,,,,,,,,2,,47,0
13619,note_on,,0,0,11,,,,,,,,,,,,,,,,15,,66,0
13619,note_on,,0,0,11,,,,,,,,,,,,,,,,15,,71,0
13619,note_on,,0,0,11,,,,,,,,,,,,,,,,15,,47,0
13619,note_on,,59,0,10,,,,,,,,,,,,,,,,13,,47,0
13619,note_on,,59,0,11,,,,,,,,,,,,,,,,15,,62,0
13619,note_on,,59,0,9,,,,,,,,,,,,,,,,12,,74,0
13620,note_on,,1,0,6,,,,,,,,,,,,,,,,8,,52,75
13620,note_on,,1,0,10,,,,,,,,,,,,,,,,13,,52,48
13620,note_on,,1,0,7,,,,,,,,,,,,,,,,10,,59,48
13620,note_on,,0,0,11,,,,,,,,,,,,,,,,15,,68,48
13620,note_on,,0,0,11,,,,,,,,,,,,,,,,15,,64,48
13620,note_on,,0,0,11,,,,,,,,,,,,,,,,15,,52,48
13620,note_on,,1,0,5,,,,,,,,,,,,,,,,2,,52,48
13620,note_on,,1,0,9,,,,,,,,,,,,,,,,12,,71,48
13620,note_on,,1,0,8,,,,,,,,,,,,,,,,11,,59,48
13620,note_on,,1,0,11,,,,,,,,,,,,,,,,15,,59,48
13679,note_on,,59,0,5,,,,,,,,,,,,,,,,2,,52,0
13679,note_on,,59,0,9,,,,,,,,,,,,,,,,12,,71,0
13679,note_on,,59,0,6,,,,,,,,,,,,,,,,8,,52,0
13679,note_on,,59,0,8,,,,,,,,,,,,,,,,11,,59,0
13679,note_on,,59,0,7,,,,,,,,,,,,,,,,10,,59,0
13679,note_on,,59,0,10,,,,,,,,,,,,,,,,13,,52,0
13679,note_on,,0,0,11,,,,,,,,,,,,,,,,15,,52,0
13679,note_on,,0,0,11,,,,,,,,,,,,,,,,15,,64,0
13679,note_on,,0,0,11,,,,,,,,,,,,,,,,15,,68,0
13679,note_on,,59,0,11,,,,,,,,,,,,,,,,15,,59,0
13680,note_on,,0,0,11,,,,,,,,,,,,,,,,15,,76,48
13680,note_on,,0,0,11,,,,,,,,,,,,,,,,15,,68,48
13680,note_on,,1,0,5,,,,,,,,,,,,,,,,2,,40,48
13680,note_on,,1,0,7,,,,,,,,,,,,,,,,10,,68,48
13680,note_on,,1,0,10,,,,,,,,,,,,,,,,13,,40,48
13680,note_on,,1,0,11,,,,,,,,,,,,,,,,15,,40,48
13680,note_on,,1,0,9,,,,,,,,,,,,,,,,12,,80,48
13680,note_on,,0,0,11,,,,,,,,,,,,,,,,15,,71,48
13680,note_on,,1,0,6,,,,,,,,,,,,,,,,8,,59,70
13680,note_on,,1,0,8,,,,,,,,,,,,,,,,11,,68,48
13739,note_on,,59,0,11,,,,,,,,,,,,,,,,15,,40,0
13739,note_on,,0,0,11,,,,,,,,,,,,,,,,15,,71,0
13739,note_on,,0,0,11,,,,,,,,,,,,,,,,15,,68,0
13739,note_on,,59,0,7,,,,,,,,,,,,,,,,10,,68,0
13739,note_on,,59,0,5,,,,,,,,,,,,,,,,2,,40,0
13739,note_on,,59,0,8,,,,,,,,,,,,,,,,11,,68,0
13739,note_on,,59,0,9,,,,,,,,,,,,,,,,12,,80,0
13739,note_on,,59,0,6,,,,,,,,,,,,,,,,8,,59,0
13739,note_on,,0,0,11,,,,,,,,,,,,,,,,15,,76,0
13739,note_on,,59,0,10,,,,,,,,,,,,,,,,13,,40,0
13740,note_on,,0,0,11,,,,,,,,,,,,,,,,15,,73,48
13740,note_on,,1,0,5,,,,,,,,,,,,,,,,2,,45,48
13740,note_on,,1,0,8,,,,,,,,,,,,,,,,11,,69,48
13740,note_on,,1,0,9,,,,,,,,,,,,,,,,12,,81,48
13740,note_on,,1,0,11,,,,,,,,,,,,,,,,15,,45,48
13740,note_on,,0,0,11,,,,,,,,,,,,,,,,15,,64,48
13740,note_on,,0,0,11,,,,,,,,,,,,,,,,15,,69,48
13740,note_on,,1,0,7,,,,,,,,,,,,,,,,10,,69,48
13740,note_on,,1,0,6,,,,,,,,,,,,,,,,8,,61,71
13740,note_on,,1,0,10,,,,,,,,,,,,,,,,13,,45,48
13799,note_on,,59,0,9,,,,,,,,,,,,,,,,12,,81,0
13799,note_on,,59,0,7,,,,,,,,,,,,,,,,10,,69,0
13799,note_on,,59,0,8,,,,,,,,,,,,,,,,11,,69,0
13800,note_on,,1,0,7,,,,,,,,,,,,,,,,10,,64,48
13800,note_on,,1,0,8,,,,,,,,,,,,,,,,11,,64,48
13800,note_on,,1,0,9,,,,,,,,,,,,,,,,12,,76,48
13859,note_on,,59,0,7,,,,,,,,,,,,,,,,10,,64,0
13859,note_on,,59,0,8,,,,,,,,,,,,,,,,11,,64,0
13859,note_on,,59,0,9,,,,,,,,,,,,,,,,12,,76,0
13860,note_on,,1,0,9,,,,,,,,,,,,,,,,12,,69,48
13860,note_on,,1,0,7,,,,,,,,,,,,,,,,10,,57,48
13860,note_on,,1,0,8,,,,,,,,,,,,,,,,11,,57,48
13919,note_on,,59,0,7,,,,,,,,,,,,,,,,10,,57,0
13919,note_on,,179,0,6,,,,,,,,,,,,,,,,8,,61,0
13919,note_on,,0,0,11,,,,,,,,,,,,,,,,15,,73,0
13919,note_on,,179,0,5,,,,,,,,,,,,,,,,2,,45,0
13919,note_on,,179,0,10,,,,,,,,,,,,,,,,13,,45,0
13919,note_on,,0,0,11,,,,,,,,,,,,,,,,15,,64,0
13919,note_on,,179,0,11,,,,,,,,,,,,,,,,15,,45,0
13919,note_on,,59,0,9,,,,,,,,,,,,,,,,12,,69,0
13919,note_on,,0,0,11,,,,,,,,,,,,,,,,15,,69,0
13919,note_on,,59,0,8,,,,,,,,,,,,,,,,11,,57,0
13920,note_on,,0,0,11,,,,,,,,,,,,,,,,15,,47,48
13920,note_on,,0,0,11,,,,,,,,,,,,,,,,15,,67,48
13920,note_on,,1,0,10,,,,,,,,,,,,,,,,13,,47,48
13920,note_on,,1,0,11,,,,,,,,,,,,,,,,15,,71,48
13920,note_on,,0,0,11,,,,,,,,,,,,,,,,15,,62,48
13920,note_on,,1,0,7,,,,,,,,,,,,,,,,10,,59,48
13920,note_on,,1,0,5,,,,,,,,,,,,,,,,2,,47,48
13920,note_on,,1,0,6,,,,,,,,,,,,,,,,8,,62,73
13920,note_on,,1,0,8,,,,,,,,,,,,,,,,11,,59,48
13920,note_on,,1,0,9,,,,,,,,,,,,,,,,12,,71,48
13979,note_on,,59,0,7,,,,,,,,,,,,,,,,10,,59,0
13979,note_on,,59,0,8,,,,,,,,,,,,,,,,11,,59,0
13979,note_on,,59,0,10,,,,,,,,,,,,,,,,13,,47,0
13979,note_on,,0,0,11,,,,,,,,,,,,,,,,15,,67,0
13979,note_on,,59,0,9,,,,,,,,,,,,,,,,12,,71,0
13979,note_on,,0,0,11,,,,,,,,,,,,,,,,15,,62,0
13979,note_on,,0,0,11,,,,,,,,,,,,,,,,15,,47,0
13979,note_on,,59,0,11,,,,,,,,,,,,,,,,15,,71,0
13979,note_on,,59,0,5,,,,,,,,,,,,,,,,2,,47,0
13979,note_on,,59,0,6,,,,,,,,,,,,,,,,8,,62,0
13980,note_on,,1,0,10,,,,,,,,,,,,,,,,13,,49,48
13980,note_on,,1,0,8,,,,,,,,,,,,,,,,11,,61,48
13980,note_on,,0,0,11,,,,,,,,,,,,,,,,15,,57,48
13980,note_on,,0,0,11,,,,,,,,,,,,,,,,15,,49,48
13980,note_on,,0,0,11,,,,,,,,,,,,,,,,15,,69,48
13980,note_on,,1,0,6,,,,,,,,,,,,,,,,8,,64,74
13980,note_on,,1,0,7,,,,,,,,,,,,,,,,10,,61,48
13980,note_on,,1,0,5,,,,,,,,,,,,,,,,2,,49,48
13980,note_on,,1,0,11,,,,,,,,,,,,,,,,15,,64,48
13980,note_on,,1,0,9,,,,,,,,,,,,,,,,12,,73,48
14039,note_on,,59,0,5,,,,,,,,,,,,,,,,2,,49,0
14039,note_on,,59,0,9,,,,,,,,,,,,,,,,12,,73,0
14039,note_on,,59,0,11,,,,,,,,,,,,,,,,15,,64,0
14039,note_on,,0,0,11,,,,,,,,,,,,,,,,15,,69,0
14039,note_on,,59,0,8,,,,,,,,,,,,,,,,11,,61,0
14039,note_on,,0,0,11,,,,,,,,,,,,,,,,15,,49,0
14039,note_on,,59,0,6,,,,,,,,,,,,,,,,8,,64,0
14039,note_on,,59,0,10,,,,,,,,,,,,,,,,13,,49,0
14039,note_on,,59,0,7,,,,,,,,,,,,,,,,10,,61,0
14039,note_on,,0,0,11,,,,,,,,,,,,,,,,15,,57,0
14040,note_on,,1,0,10,,,,,,,,,,,,,,,,13,,45,48
14040,note_on,,1,0,9,,,,,,,,,,,,,,,,12,,81,48
14040,note_on,,1,0,5,,,,,,,,,,,,,,,,2,,45,48
14040,note_on,,1,0,11,,,,,,,,,,,,,,,,15,,69,48
14040,note_on,,0,0,11,,,,,,,,,,,,,,,,15,,64,48
14040,note_on,,0,0,11,,,,,,,,,,,,,,,,15,,45,48
14040,note_on,,0,0,11,,,,,,,,,,,,,,,,15,,73,48
14040,note_on,,1,0,6,,,,,,,,,,,,,,,,8,,62,69
14040,note_on,,1,0,7,,,,,,,,,,,,,,,,10,,69,48
14040,note_on,,1,0,8,,,,,,,,,,,,,,,,11,,69,48
14069,note_on,,29,0,6,,,,,,,,,,,,,,,,8,,62,0
14070,note_on,,1,0,6,,,,,,,,,,,,,,,,8,,61,73
14099,note_on,,29,0,6,,,,,,,,,,,,,,,,8,,61,0
14099,note_on,,59,0,10,,,,,,,,,,,,,,,,13,,45,0
14099,note_on,,59,0,8,,,,,,,,,,,,,,,,11,,69,0
14099,note_on,,59,0,11,,,,,,,,,,,,,,,,15,,69,0
14099,note_on,,59,0,5,,,,,,,,,,,,,,,,2,,45,0
14099,note_on,,59,0,9,,,,,,,,,,,,,,,,12,,81,0
14099,note_on,,0,0,11,,,,,,,,,,,,,,,,15,,64,0
14099,note_on,,59,0,7,,,,,,,,,,,,,,,,10,,69,0
14099,note_on,,0,0,11,,,,,,,,,,,,,,,,15,,45,0
14099,note_on,,0,0,11,,,,,,,,,,,,,,,,15,,73,0
14100,note_on,,1,0,11,,,,,,,,,,,,,,,,15,,62,48
14100,note_on,,0,0,11,,,,,,,,,,,,,,,,15,,71,48
14100,note_on,,0,0,11,,,,,,,,,,,,,,,,15,,66,48
14100,note_on,,1,0,8,,,,,,,,,,,,,,,,11,,62,48
14100,note_on,,1,0,6,,,,,,,,,,,,,,,,8,,59,72
14100,note_on,,1,0,7,,,,,,,,,,,,,,,,10,,62,48
14100,note_on,,1,0,9,,,,,,,,,,,,,,,,12,,74,48
14100,note_on,,1,0,5,,,,,,,,,,,,,,,,2,,50,48
14100,note_on,,0,0,11,,,,,,,,,,,,,,,,15,,50,48
14100,note_on,,1,0,10,,,,,,,,,,,,,,,,13,,50,48
14129,note_on,,29,0,6,,,,,,,,,,,,,,,,8,,59,0
14130,note_on,,1,0,6,,,,,,,,,,,,,,,,8,,57,71
14159,note_on,,59,0,7,,,,,,,,,,,,,,,,10,,62,0
14159,note_on,,59,0,10,,,,,,,,,,,,,,,,13,,50,0
14159,note_on,,59,0,8,,,,,,,,,,,,,,,,11,,62,0
14159,note_on,,29,0,6,,,,,,,,,,,,,,,,8,,57,0
14159,note_on,,59,0,9,,,,,,,,,,,,,,,,12,,74,0
14159,note_on,,59,0,5,,,,,,,,,,,,,,,,2,,50,0
14159,note_on,,59,0,11,,,,,,,,,,,,,,,,15,,62,0
14159,note_on,,0,0,11,,,,,,,,,,,,,,,,15,,71,0
14159,note_on,,0,0,11,,,,,,,,,,,,,,,,15,,66,0
14159,note_on,,0,0,11,,,,,,,,,,,,,,,,15,,50,0
14160,note_on,,1,0,6,,,,,,,,,,,,,,,,8,,56,69
14160,note_on,,1,0,7,,,,,,,,,,,,,,,,10,,59,48
14160,note_on,,1,0,9,,,,,,,,,,,,,,,,12,,71,48
14160,note_on,,1,0,5,,,,,,,,,,,,,,,,2,,47,48
14160,note_on,,0,0,11,,,,,,,,,,,,,,,,15,,71,48
14160,note_on,,0,0,11,,,,,,,,,,,,,,,,15,,74,48
14160,note_on,,0,0,11,,,,,,,,,,,,,,,,15,,47,48
14160,note_on,,1,0,11,,,,,,,,,,,,,,,,15,,66,48
14160,note_on,,1,0,8,,,,,,,,,,,,,,,,11,,59,48
14160,note_on,,1,0,10,,,,,,,,,,,,,,,,13,,47,48
14189,note_on,,29,0,6,,,,,,,,,,,,,,,,8,,56,0
14190,note_on,,1,0,6,,,,,,,,,,,,,,,,8,,54,74
14219,note_on,,59,0,5,,,,,,,,,,,,,,,,2,,47,0
14219,note_on,,59,0,8,,,,,,,,,,,,,,,,11,,59,0
14219,note_on,,59,0,9,,,,,,,,,,,,,,,,12,,71,0
14219,note_on,,59,0,7,,,,,,,,,,,,,,,,10,,59,0
14219,note_on,,59,0,10,,,,,,,,,,,,,,,,13,,47,0
14219,note_on,,59,0,11,,,,,,,,,,,,,,,,15,,66,0
14219,note_on,,0,0,11,,,,,,,,,,,,,,,,15,,47,0
14219,note_on,,0,0,11,,,,,,,,,,,,,,,,15,,74,0
14219,note_on,,0,0,11,,,,,,,,,,,,,,,,15,,71,0
14219,note_on,,29,0,6,,,,,,,,,,,,,,,,8,,54,0
14220,note_on,,1,0,9,,,,,,,,,,,,,,,,12,,76,48
14220,note_on,,1,0,5,,,,,,,,,,,,,,,,2,,49,48
14220,note_on,,1,0,11,,,,,,,,,,,,,,,,15,,69,48
14220,note_on,,1,0,7,,,,,,,,,,,,,,,,10,,64,48
14220,note_on,,0,0,11,,,,,,,,,,,,,,,,15,,73,48
14220,note_on,,0,0,11,,,,,,,,,,,,,,,,15,,64,48
14220,note_on,,1,0,8,,,,,,,,,,,,,,,,11,,64,48
14220,note_on,,1,0,10,,,,,,,,,,,,,,,,13,,49,48
14220,note_on,,0,0,11,,,,,,,,,,,,,,,,15,,49,48
14220,note_on,,1,0,6,,,,,,,,,,,,,,,,8,,52,68
14279,note_on,,59,0,5,,,,,,,,,,,,,,,,2,,49,0
14279,note_on,,59,0,9,,,,,,,,,,,,,,,,12,,76,0
14279,note_on,,59,0,11,,,,,,,,,,,,,,,,15,,49,0
14279,note_on,,59,0,10,,,,,,,,,,,,,,,,13,,49,0
14279,note_on,,59,0,8,,,,,,,,,,,,,,,,11,,64,0
14279,note_on,,59,0,6,,,,,,,,,,,,,,,,8,,52,0
14279,note_on,,59,0,7,,,,,,,,,,,,,,,,10,,64,0
14280,note_on,,1,0,11,,,,,,,,,,,,,,,,15,,52,48
14280,note_on,,1,0,7,,,,,,,,,,,,,,,,10,,68,48
14280,note_on,,1,0,10,,,,,,,,,,,,,,,,13,,52,48
14280,note_on,,1,0,5,,,,,,,,,,,,,,,,2,,52,48
14280,note_on,,1,0,8,,,,,,,,,,,,,,,,11,,68,48
14280,note_on,,1,0,9,,,,,,,,,,,,,,,,12,,80,48
14280,note_on,,1,0,6,,,,,,,,,,,,,,,,8,,56,72
14339,note_on,,59,0,11,,,,,,,,,,,,,,,,15,,69,0
14339,note_on,,0,0,11,,,,,,,,,,,,,,,,15,,64,0
14339,note_on,,0,0,11,,,,,,,,,,,,,,,,15,,52,0
14339,note_on,,59,0,6,,,,,,,,,,,,,,,,8,,56,0
14339,note_on,,59,0,8,,,,,,,,,,,,,,,,11,,68,0
14339,note_on,,59,0,5,,,,,,,,,,,,,,,,2,,52,0
14339,note_on,,59,0,7,,,,,,,,,,,,,,,,10,,68,0
14339,note_on,,59,0,10,,,,,,,,,,,,,,,,13,,52,0
14339,note_on,,0,0,11,,,,,,,,,,,,,,,,15,,73,0
14339,note_on,,59,0,9,,,,,,,,,,,,,,,,12,,80,0
14340,note_on,,1,0,5,,,,,,,,,,,,,,,,2,,54,48
14340,note_on,,1,0,10,,,,,,,,,,,,,,,,13,,54,48
14340,note_on,,1,0,7,,,,,,,,,,,,,,,,10,,69,48
14340,note_on,,1,0,8,,,,,,,,,,,,,,,,11,,69,48
14340,note_on,,1,0,6,,,,,,,,,,,,,,,,8,,57,74
14340,note_on,,0,0,11,,,,,,,,,,,,,,,,15,,66,48
14340,note_on,,0,0,11,,,,,,,,,,,,,,,,15,,61,48
14340,note_on,,0,0,11,,,,,,,,,,,,,,,,15,,69,48
14340,note_on,,1,0,11,,,,,,,,,,,,,,,,15,,54,48
14340,note_on,,1,0,9,,,,,,,,,,,,,,,,12,,81,48
14399,note_on,,59,0,5,,,,,,,,,,,,,,,,2,,54,0
14399,note_on,,59,0,6,,,,,,,,,,,,,,,,8,,57,0
14399,note_on,,59,0,10,,,,,,,,,,,,,,,,13,,54,0
14399,note_on,,0,0,11,,,,,,,,,,,,,,,,15,,66,0
14399,note_on,,0,0,11,,,,,,,,,,,,,,,,15,,61,0
14399,note_on,,0,0,11,,,,,,,,,,,,,,,,15,,69,0
14399,note_on,,59,0,11,,,,,,,,,,,,,,,,15,,54,0
14400,note_on,,1,0,6,,,,,,,,,,,,,,,,8,,62,74
14400,note_on,,0,0,11,,,,,,,,,,,,,,,,15,,78,48
14400,note_on,,0,0,11,,,,,,,,,,,,,,,,15,,74,48
14400,note_on,,1,0,11,,,,,,,,,,,,,,,,15,,69,48
14400,note_on,,0,0,11,,,,,,,,,,,,,,,,15,,50,48
14400,note_on,,1,0,5,,,,,,,,,,,,,,,,2,,50,48
14400,note_on,,1,0,10,,,,,,,,,,,,,,,,13,,50,48
14459,note_on,,59,0,5,,,,,,,,,,,,,,,,2,,50,0
14459,note_on,,0,0,11,,,,,,,,,,,,,,,,15,,74,0
14459,note_on,,59,0,11,,,,,,,,,,,,,,,,15,,69,0
14459,note_on,,0,0,11,,,,,,,,,,,,,,,,15,,78,0
14459,note_on,,59,0,10,,,,,,,,,,,,,,,,13,,50,0
14459,note_on,,0,0,11,,,,,,,,,,,,,,,,15,,50,0
14459,note_on,,59,0,6,,,,,,,,,,,,,,,,8,,62,0
14460,note_on,,1,0,6,,,,,,,,,,,,,,,,8,,61,74
14460,note_on,,1,0,10,,,,,,,,,,,,,,,,13,,52,48
14460,note_on,,1,0,5,,,,,,,,,,,,,,,,2,,52,48
14460,note_on,,0,0,11,,,,,,,,,,,,,,,,15,,64,48
14460,note_on,,0,0,11,,,,,,,,,,,,,,,,15,,76,48
14460,note_on,,0,0,11,,,,,,,,,,,,,,,,15,,73,48
14460,note_on,,0,0,11,,,,,,,,,,,,,,,,15,,52,48
14460,note_on,,1,0,11,,,,,,,,,,,,,,,,15,,69,48
14519,note_on,,59,0,11,,,,,,,,,,,,,,,,15,,52,0
14519,note_on,,59,0,5,,,,,,,,,,,,,,,,2,,52,0
14519,note_on,,59,0,10,,,,,,,,,,,,,,,,13,,52,0
14520,note_on,,1,0,10,,,,,,,,,,,,,,,,13,,50,48
14520,note_on,,1,0,5,,,,,,,,,,,,,,,,2,,50,48
14520,note_on,,1,0,11,,,,,,,,,,,,,,,,15,,50,48
14579,note_on,,0,0,11,,,,,,,,,,,,,,,,15,,73,0
14579,note_on,,59,0,5,,,,,,,,,,,,,,,,2,,50,0
14579,note_on,,239,0,9,,,,,,,,,,,,,,,,12,,81,0
14579,note_on,,239,0,7,,,,,,,,,,,,,,,,10,,69,0
14579,note_on,,0,0,11,,,,,,,,,,,,,,,,15,,50,0
14579,note_on,,239,0,8,,,,,,,,,,,,,,,,11,,69,0
14579,note_on,,59,0,11,,,,,,,,,,,,,,,,15,,69,0
14579,note_on,,119,0,6,,,,,,,,,,,,,,,,8,,61,0
14579,note_on,,59,0,10,,,,,,,,,,,,,,,,13,,50,0
14580,note_on,,1,0,10,,,,,,,,,,,,,,,,13,,52,48
14580,note_on,,1,0,7,,,,,,,,,,,,,,,,10,,68,48
14580,note_on,,1,0,5,,,,,,,,,,,,,,,,2,,52,48
14580,note_on,,1,0,11,,,,,,,,,,,,,,,,15,,71,48
14580,note_on,,1,0,8,,,,,,,,,,,,,,,,11,,68,48
14580,note_on,,1,0,6,,,,,,,,,,,,,,,,8,,59,70
14580,note_on,,0,0,11,,,,,,,,,,,,,,,,15,,68,48
14580,note_on,,1,0,9,,,,,,,,,,,,,,,,12,,80,48
14580,note_on,,0,0,11,,,,,,,,,,,,,,,,15,,52,48
14639,note_on,,59,0,11,,,,,,,,,,,,,,,,15,,52,0
14639,note_on,,59,0,5,,,,,,,,,,,,,,,,2,,52,0
14639,note_on,,59,0,6,,,,,,,,,,,,,,,,8,,59,0
14639,note_on,,59,0,10,,,,,,,,,,,,,,,,13,,52,0
14640,note_on,,1,0,6,,,,,,,,,,,,,,,,8,,57,72
14640,note_on,,1,0,10,,,,,,,,,,,,,,,,13,,40,48
14640,note_on,,1,0,5,,,,,,,,,,,,,,,,2,,40,48
14640,note_on,,1,0,11,,,,,,,,,,,,,,,,15,,40,48
14699,note_on,,0,0,11,,,,,,,,,,,,,,,,15,,40,0
14699,note_on,,119,0,7,,,,,,,,,,,,,,,,10,,68,0
14699,note_on,,59,0,6,,,,,,,,,,,,,,,,8,,57,0
14699,note_on,,59,0,5,,,,,,,,,,,,,,,,2,,40,0
14699,note_on,,59,0,10,,,,,,,,,,,,,,,,13,,40,0
14699,note_on,,119,0,8,,,,,,,,,,,,,,,,11,,68,0
14699,note_on,,0,0,11,,,,,,,,,,,,,,,,15,,71,0
14699,note_on,,0,0,11,,,,,,,,,,,,,,,,15,,64,0
14699,note_on,,59,0,11,,,,,,,,,,,,,,,,15,,76,0
14699,note_on,,119,0,9,,,,,,,,,,,,,,,,12,,80,0
14699,note_on,,0,0,11,,,,,,,,,,,,,,,,15,,68,0
14700,note_on,,1,0,5,,,,,,,,,,,,,,,,2,,45,48
14700,note_on,,1,0,6,,,,,,,,,,,,,,,,8,,57,73
14700,note_on,,0,0,11,,,,,,,,,,,,,,,,15,,69,48
14700,note_on,,1,0,10,,,,,,,,,,,,,,,,13,,45,48
14700,note_on,,0,0,11,,,,,,,,,,,,,,,,15,,64,48
14700,note_on,,0,0,11,,,,,,,,,,,,,,,,15,,73,48
14700,note_on,,1,0,11,,,,,,,,,,,,,,,,15,,45,48
14760,note_on,,61,0,8,,,,,,,,,,,,,,,,11,,69,72
14760,note_on,,61,0,7,,,,,,,,,,,,,,,,10,,69,72
14819,note_on,,0,0,11,,,,,,,,,,,,,,,,15,,64,0
14819,note_on,,59,0,7,,,,,,,,,,,,,,,,10,,69,0
14819,note_on,,119,0,10,,,,,,,,,,,,,,,,13,,45,0
14819,note_on,,119,0,11,,,,,,,,,,,,,,,,15,,45,0
14819,note_on,,0,0,11,,,,,,,,,,,,,,,,15,,69,0
14819,note_on,,59,0,8,,,,,,,,,,,,,,,,11,,69,0
14819,note_on,,119,0,5,,,,,,,,,,,,,,,,2,,45,0
14819,note_on,,0,0,11,,,,,,,,,,,,,,,,15,,73,0
14820,note_on,,1,0,7,,,,,,,,,,,,,,,,10,,73,72
14820,note_on,,1,0,8,,,,,,,,,,,,,,,,11,,73,72
14879,note_on,,59,0,7,,,,,,,,,,,,,,,,10,,73,0
14879,note_on,,59,0,8,,,,,,,,,,,,,,,,11,,73,0
14880,note_on,,1,0,7,,,,,,,,,,,,,,,,10,,76,72
14880,note_on,,61,0,10,,,,,,,,,,,,,,,,13,,49,72
14880,note_on,,1,0,8,,,,,,,,,,,,,,,,11,,76,72
14880,note_on,,0,0,11,,,,,,,,,,,,,,,,15,,69,72
14880,note_on,,0,0,11,,,,,,,,,,,,,,,,15,,64,72
14880,note_on,,0,0,11,,,,,,,,,,,,,,,,15,,57,72
14880,note_on,,61,0,5,,,,,,,,,,,,,,,,2,,49,72
14880,note_on,,61,0,11,,,,,,,,,,,,,,,,15,,49,72
14880,note_on,,181,0,9,,,,,,,,,,,,,,,,12,,73,72
14939,note_on,,59,0,5,,,,,,,,,,,,,,,,2,,49,0
14939,note_on,,59,0,10,,,,,,,,,,,,,,,,13,,49,0
14939,note_on,,239,0,6,,,,,,,,,,,,,,,,8,,57,0
14939,note_on,,59,0,8,,,,,,,,,,,,,,,,11,,76,0
14939,note_on,,59,0,7,,,,,,,,,,,,,,,,10,,76,0
14939,note_on,,59,0,11,,,,,,,,,,,,,,,,15,,49,0
14939,note_on,,0,0,11,,,,,,,,,,,,,,,,15,,57,0
14939,note_on,,0,0,11,,,,,,,,,,,,,,,,15,,64,0
14939,note_on,,0,0,11,,,,,,,,,,,,,,,,15,,69,0
14939,note_on,,59,0,9,,,,,,,,,,,,,,,,12,,73,0
14940,note_on,,1,0,9,,,,,,,,,,,,,,,,12,,74,72
14940,note_on,,1,0,10,,,,,,,,,,,,,,,,13,,50,72
14940,note_on,,1,0,7,,,,,,,,,,,,,,,,10,,78,72
14940,note_on,,0,0,11,,,,,,,,,,,,,,,,15,,62,72
14940,note_on,,1,0,5,,,,,,,,,,,,,,,,2,,50,72
14940,note_on,,1,0,8,,,,,,,,,,,,,,,,11,,78,72
14940,note_on,,1,0,11,,,,,,,,,,,,,,,,15,,66,72
14940,note_on,,0,0,11,,,,,,,,,,,,,,,,15,,57,72
14940,note_on,,0,0,11,,,,,,,,,,,,,,,,15,,50,72
14999,note_on,,59,0,7,,,,,,,,,,,,,,,,10,,78,0
14999,note_on,,59,0,8,,,,,,,,,,,,,,,,11,,78,0
15000,note_on,,1,0,8,,,,,,,,,,,,,,,,11,,69,72
15000,note_on,,1,0,7,,,,,,,,,,,,,,,,10,,69,72
15059,note_on,,119,0,9,,,,,,,,,,,,,,,,12,,74,0
15059,note_on,,119,0,10,,,,,,,,,,,,,,,,13,,50,0
15059,note_on,,0,0,11,,,,,,,,,,,,,,,,15,,57,0
15059,note_on,,0,0,11,,,,,,,,,,,,,,,,15,,50,0
15059,note_on,,59,0,7,,,,,,,,,,,,,,,,10,,69,0
15059,note_on,,119,0,11,,,,,,,,,,,,,,,,15,,66,0
15059,note_on,,119,0,5,,,,,,,,,,,,,,,,2,,50,0
15059,note_on,,59,0,8,,,,,,,,,,,,,,,,11,,69,0
15059,note_on,,0,0,11,,,,,,,,,,,,,,,,15,,62,0
15060,note_on,,1,0,10,,,,,,,,,,,,,,,,13,,52,72
15060,note_on,,1,0,5,,,,,,,,,,,,,,,,2,,52,72
15060,note_on,,1,0,11,,,,,,,,,,,,,,,,15,,59,72
15060,note_on,,1,0,7,,,,,,,,,,,,,,,,10,,68,72
15060,note_on,,1,0,9,,,,,,,,,,,,,,,,12,,76,72
15060,note_on,,0,0,11,,,,,,,,,,,,,,,,15,,52,72
15060,note_on,,0,0,11,,,,,,,,,,,,,,,,15,,64,72
15060,note_on,,1,0,8,,,,,,,,,,,,,,,,11,,68,72
15060,note_on,,0,0,11,,,,,,,,,,,,,,,,15,,56,72
15119,note_on,,59,0,7,,,,,,,,,,,,,,,,10,,68,0
15119,note_on,,59,0,8,,,,,,,,,,,,,,,,11,,68,0
15120,note_on,,1,0,8,,,,,,,,,,,,,,,,11,,80,72
15120,note_on,,1,0,7,,,,,,,,,,,,,,,,10,,80,72
15179,note_on,,119,0,10,,,,,,,,,,,,,,,,13,,52,0
15179,note_on,,119,0,5,,,,,,,,,,,,,,,,2,,52,0
15179,note_on,,59,0,7,,,,,,,,,,,,,,,,10,,80,0
15179,note_on,,59,0,8,,,,,,,,,,,,,,,,11,,80,0
15179,note_on,,119,0,9,,,,,,,,,,,,,,,,12,,76,0
15179,note_on,,119,0,11,,,,,,,,,,,,,,,,15,,59,0
15179,note_on,,0,0,11,,,,,,,,,,,,,,,,15,,56,0
15179,note_on,,0,0,11,,,,,,,,,,,,,,,,15,,52,0
15179,note_on,,0,0,11,,,,,,,,,,,,,,,,15,,64,0
15180,note_on,,0,0,11,,,,,,,,,,,,,,,,15,,57,72
15180,note_on,,0,0,11,,,,,,,,,,,,,,,,15,,69,72
15180,note_on,,1,0,11,,,,,,,,,,,,,,,,15,,54,72
15180,note_on,,0,0,11,,,,,,,,,,,,,,,,15,,62,72
15180,note_on,,1,0,7,,,,,,,,,,,,,,,,10,,81,72
15180,note_on,,1,0,10,,,,,,,,,,,,,,,,13,,54,72
15180,note_on,,1,0,8,,,,,,,,,,,,,,,,11,,81,72
15180,note_on,,1,0,9,,,,,,,,,,,,,,,,12,,78,72
15180,note_on,,1,0,5,,,,,,,,,,,,,,,,2,,54,72
15239,note_on,,59,0,7,,,,,,,,,,,,,,,,10,,81,0
15239,note_on,,59,0,8,,,,,,,,,,,,,,,,11,,81,0
15240,note_on,,1,0,7,,,,,,,,,,,,,,,,10,,76,72
15240,note_on,,1,0,8,,,,,,,,,,,,,,,,11,,76,72
15299,note_on,,0,0,11,,,,,,,,,,,,,,,,15,,57,0
15299,note_on,,59,0,7,,,,,,,,,,,,,,,,10,,76,0
15299,note_on,,119,0,11,,,,,,,,,,,,,,,,15,,54,0
15299,note_on,,0,0,11,,,,,,,,,,,,,,,,15,,62,0
15299,note_on,,59,0,8,,,,,,,,,,,,,,,,11,,76,0
15299,note_on,,119,0,9,,,,,,,,,,,,,,,,12,,78,0
15299,note_on,,119,0,5,,,,,,,,,,,,,,,,2,,54,0
15299,note_on,,0,0,11,,,,,,,,,,,,,,,,15,,69,0
15299,note_on,,119,0,10,,,,,,,,,,,,,,,,13,,54,0
15300,note_on,,0,0,11,,,,,,,,,,,,,,,,15,,64,72
15300,note_on,,1,0,11,,,,,,,,,,,,,,,,15,,59,72
15300,note_on,,1,0,5,,,,,,,,,,,,,,,,2,,56,72
15300,note_on,,0,0,11,,,,,,,,,,,,,,,,15,,62,72
15300,note_on,,0,0,11,,,,,,,,,,,,,,,,15,,56,72
15300,note_on,,1,0,9,,,,,,,,,,,,,,,,12,,80,72
15300,note_on,,1,0,10,,,,,,,,,,,,,,,,13,,56,72
15300,note_on,,1,0,7,,,,,,,,,,,,,,,,10,,74,72
15300,note_on,,1,0,8,,,,,,,,,,,,,,,,11,,74,72
15359,note_on,,59,0,8,,,,,,,,,,,,,,,,11,,74,0
15359,note_on,,59,0,7,,,,,,,,,,,,,,,,10,,74,0
15360,note_on,,1,0,8,,,,,,,,,,,,,,,,11,,83,72
15360,note_on,,1,0,7,,,,,,,,,,,,,,,,10,,83,72
15419,note_on,,119,0,10,,,,,,,,,,,,,,,,13,,56,0
15419,note_on,,119,0,5,,,,,,,,,,,,,,,,2,,56,0
15419,note_on,,0,0,11,,,,,,,,,,,,,,,,15,,64,0
15419,note_on,,0,0,11,,,,,,,,,,,,,,,,15,,62,0
15419,note_on,,59,0,8,,,,,,,,,,,,,,,,11,,83,0
15419,note_on,,0,0,11,,,,,,,,,,,,,,,,15,,56,0
15419,note_on,,119,0,11,,,,,,,,,,,,,,,,15,,59,0
15419,note_on,,59,0,7,,,,,,,,,,,,,,,,10,,83,0
15419,note_on,,119,0,9,,,,,,,,,,,,,,,,12,,80,0
15420,note_on,,1,0,7,,,,,,,,,,,,,,,,10,,73,72
15420,note_on,,1,0,5,,,,,,,,,,,,,,,,2,,57,72
15420,note_on,,1,0,10,,,,,,,,,,,,,,,,13,,57,72
15420,note_on,,1,0,11,,,,,,,,,,,,,,,,15,,69,72
15420,note_on,,1,0,8,,,,,,,,,,,,,,,,11,,73,72
15420,note_on,,0,0,11,,,,,,,,,,,,,,,,15,,73,72
15420,note_on,,0,0,11,,,,,,,,,,,,,,,,15,,64,72
15420,note_on,,0,0,11,,,,,,,,,,,,,,,,15,,57,72
15420,note_on,,1,0,9,,,,,,,,,,,,,,,,12,,81,72
15479,note_on,,59,0,9,,,,,,,,,,,,,,,,12,,81,0
15479,note_on,,59,0,5,,,,,,,,,,,,,,,,2,,57,0
15479,note_on,,59,0,7,,,,,,,,,,,,,,,,10,,73,0
15479,note_on,,0,0,11,,,,,,,,,,,,,,,,15,,73,0
15479,note_on,,59,0,11,,,,,,,,,,,,,,,,15,,69,0
15479,note_on,,0,0,11,,,,,,,,,,,,,,,,15,,57,0
15479,note_on,,59,0,8,,,,,,,,,,,,,,,,11,,73,0
15479,note_on,,59,0,10,,,,,,,,,,,,,,,,13,,57,0
15479,note_on,,0,0,11,,,,,,,,,,,,,,,,15,,64,0
15480,note_on,,1,0,11,,,,,,,,,,,,,,,,15,,74,72
15480,note_on,,0,0,11,,,,,,,,,,,,,,,,15,,69,72
15480,note_on,,0,0,11,,,,,,,,,,,,,,,,15,,62,72
15480,note_on,,1,0,7,,,,,,,,,,,,,,,,10,,81,72
15480,note_on,,1,0,8,,,,,,,,,,,,,,,,11,,81,72
15480,note_on,,1,0,5,,,,,,,,,,,,,,,,2,,54,72
15480,note_on,,0,0,11,,,,,,,,,,,,,,,,15,,54,72
15480,note_on,,1,0,9,,,,,,,,,,,,,,,,12,,78,72
15480,note_on,,1,0,10,,,,,,,,,,,,,,,,13,,54,72
15539,note_on,,59,0,8,,,,,,,,,,,,,,,,11,,81,0
15539,note_on,,59,0,9,,,,,,,,,,,,,,,,12,,78,0
15539,note_on,,0,0,11,,,,,,,,,,,,,,,,15,,54,0
15539,note_on,,59,0,5,,,,,,,,,,,,,,,,2,,54,0
15539,note_on,,59,0,11,,,,,,,,,,,,,,,,15,,74,0
15539,note_on,,0,0,11,,,,,,,,,,,,,,,,15,,69,0
15539,note_on,,0,0,11,,,,,,,,,,,,,,,,15,,62,0
15539,note_on,,59,0,7,,,,,,,,,,,,,,,,10,,81,0
15539,note_on,,59,0,10,,,,,,,,,,,,,,,,13,,54,0
15540,note_on,,1,0,5,,,,,,,,,,,,,,,,2,,50,72
15540,note_on,,1,0,9,,,,,,,,,,,,,,,,12,,74,72
15540,note_on,,1,0,7,,,,,,,,,,,,,,,,10,,71,72
15540,note_on,,1,0,8,,,,,,,,,,,,,,,,11,,71,72
15540,note_on,,0,0,11,,,,,,,,,,,,,,,,15,,69,72
15540,note_on,,1,0,11,,,,,,,,,,,,,,,,15,,50,72
15540,note_on,,0,0,11,,,,,,,,,,,,,,,,15,,71,72
15540,note_on,,0,0,11,,,,,,,,,,,,,,,,15,,66,72
15540,note_on,,1,0,10,,,,,,,,,,,,,,,,13,,50,72
15599,note_on,,59,0,10,,,,,,,,,,,,,,,,13,,50,0
15599,note_on,,59,0,8,,,,,,,,,,,,,,,,11,,71,0
15599,note_on,,59,0,9,,,,,,,,,,,,,,,,12,,74,0
15599,note_on,,0,0,11,,,,,,,,,,,,,,,,15,,66,0
15599,note_on,,0,0,11,,,,,,,,,,,,,,,,15,,69,0
15599,note_on,,59,0,11,,,,,,,,,,,,,,,,15,,50,0
15599,note_on,,59,0,5,,,,,,,,,,,,,,,,2,,50,0
15599,note_on,,59,0,7,,,,,,,,,,,,,,,,10,,71,0
15600,note_on,,1,0,8,,,,,,,,,,,,,,,,11,,80,72
15600,note_on,,1,0,10,,,,,,,,,,,,,,,,13,,52,72
15600,note_on,,1,0,5,,,,,,,,,,,,,,,,2,,52,72
15600,note_on,,1,0,11,,,,,,,,,,,,,,,,15,,67,72
15600,note_on,,0,0,11,,,,,,,,,,,,,,,,15,,59,72
15600,note_on,,1,0,9,,,,,,,,,,,,,,,,12,,76,72
15600,note_on,,1,0,7,,,,,,,,,,,,,,,,10,,80,72
15600,note_on,,0,0,11,,,,,,,,,,,,,,,,15,,52,72
15659,note_on,,59,0,8,,,,,,,,,,,,,,,,11,,80,0
15659,note_on,,59,0,5,,,,,,,,,,,,,,,,2,,52,0
15659,note_on,,59,0,11,,,,,,,,,,,,,,,,15,,71,0
15659,note_on,,0,0,11,,,,,,,,,,,,,,,,15,,67,0
15659,note_on,,0,0,11,,,,,,,,,,,,,,,,15,,59,0
15659,note_on,,0,0,11,,,,,,,,,,,,,,,,15,,52,0
15659,note_on,,59,0,7,,,,,,,,,,,,,,,,10,,80,0
15659,note_on,,59,0,9,,,,,,,,,,,,,,,,12,,76,0
15659,note_on,,59,0,10,,,,,,,,,,,,,,,,13,,52,0
15660,note_on,,1,0,9,,,,,,,,,,,,,,,,12,,69,72
15660,note_on,,1,0,5,,,,,,,,,,,,,,,,2,,45,72
15660,note_on,,1,0,10,,,,,,,,,,,,,,,,13,,45,72
15660,note_on,,1,0,7,,,,,,,,,,,,,,,,10,,57,72
15660,note_on,,1,0,8,,,,,,,,,,,,,,,,11,,57,72
15660,note_on,,1,0,11,,,,,,,,,,,,,,,,15,,69,72
15660,note_on,,0,0,11,,,,,,,,,,,,,,,,15,,45,72
15660,note_on,,0,0,11,,,,,,,,,,,,,,,,15,,64,72
15660,note_on,,0,0,11,,,,,,,,,,,,,,,,15,,61,72
15779,note_on,,119,0,10,,,,,,,,,,,,,,,,13,,45,0
15779,note_on,,0,0,11,,,,,,,,,,,,,,,,15,,61,0
15779,note_on,,119,0,7,,,,,,,,,,,,,,,,10,,57,0
15779,note_on,,119,0,5,,,,,,,,,,,,,,,,2,,45,0
15779,note_on,,119,0,11,,,,,,,,,,,,,,,,15,,69,0
15779,note_on,,119,0,9,,,,,,,,,,,,,,,,12,,69,0
15779,note_on,,0,0,11,,,,,,,,,,,,,,,,15,,45,0
15779,note_on,,119,0,8,,,,,,,,,,,,,,,,11,,57,0
15779,note_on,,0,0,11,,,,,,,,,,,,,,,,15,,64,0
15840,note_on,,61,0,7,,,,,,,,,,,,,,,,10,,73,72
15840,note_on,,61,0,8,,,,,,,,,,,,,,,,11,,73,72
15899,note_on,,59,0,8,,,,,,,,,,,,,,,,11,,73,0
15899,note_on,,59,0,7,,,,,,,,,,,,,,,,10,,73,0
15900,note_on,,1,0,7,,,,,,,,,,,,,,,,10,,78,72
15900,note_on,,1,0,8,,,,,,,,,,,,,,,,11,,78,72
15959,note_on,,59,0,7,,,,,,,,,,,,,,,,10,,78,0
15959,note_on,,59,0,8,,,,,,,,,,,,,,,,11,,78,0
15960,note_on,,1,0,7,,,,,,,,,,,,,,,,10,,77,72
15960,note_on,,1,0,8,,,,,,,,,,,,,,,,11,,77,72
16019,note_on,,59,0,8,,,,,,,,,,,,,,,,11,,77,0
16019,note_on,,59,0,7,,,,,,,,,,,,,,,,10,,77,0
16020,note_on,,1,0,8,,,,,,,,,,,,,,,,11,,78,72
16020,note_on,,1,0,7,,,,,,,,,,,,,,,,10,,78,72
16079,note_on,,59,0,8,,,,,,,,,,,,,,,,11,,78,0
16079,note_on,,59,0,7,,,,,,,,,,,,,,,,10,,78,0
16080,note_on,,1,0,8,,,,,,,,,,,,,,,,11,,77,72
16080,note_on,,1,0,7,,,,,,,,,,,,,,,,10,,77,72
16139,note_on,,59,0,8,,,,,,,,,,,,,,,,11,,77,0
16139,note_on,,59,0,7,,,,,,,,,,,,,,,,10,,77,0
16140,note_on,,1,0,8,,,,,,,,,,,,,,,,11,,78,72
16140,note_on,,1,0,7,,,,,,,,,,,,,,,,10,,78,72
16199,note_on,,59,0,8,,,,,,,,,,,,,,,,11,,78,0
16199,note_on,,59,0,7,,,,,,,,,,,,,,,,10,,78,0
16200,note_on,,1,0,8,,,,,,,,,,,,,,,,11,,80,72
16200,note_on,,1,0,7,,,,,,,,,,,,,,,,10,,80,72
16259,note_on,,59,0,8,,,,,,,,,,,,,,,,11,,80,0
16259,note_on,,59,0,7,,,,,,,,,,,,,,,,10,,80,0
16260,note_on,,1,0,7,,,,,,,,,,,,,,,,10,,81,72
16260,note_on,,1,0,8,,,,,,,,,,,,,,,,11,,81,72
16319,note_on,,59,0,7,,,,,,,,,,,,,,,,10,,81,0
16319,note_on,,59,0,8,,,,,,,,,,,,,,,,11,,81,0
16320,note_on,,1381,0,6,,,,,,,,,,,,,,,,8,,49,70
16320,note_on,,1,0,7,,,,,,,,,,,,,,,,10,,61,48
16320,note_on,,541,0,10,,,,,,,,,,,,,,,,13,,49,48
16320,note_on,,541,0,11,,,,,,,,,,,,,,,,15,,49,48
16320,note_on,,0,0,11,,,,,,,,,,,,,,,,15,,61,48
16320,note_on,,1,0,8,,,,,,,,,,,,,,,,11,,61,48
16320,note_on,,541,0,9,,,,,,,,,,,,,,,,12,,73,48
16320,note_on,,541,0,5,,,,,,,,,,,,,,,,2,,49,48
16379,note_on,,0,0,11,,,,,,,,,,,,,,,,15,,61,0
16379,note_on,,59,0,11,,,,,,,,,,,,,,,,15,,49,0
16379,note_on,,59,0,10,,,,,,,,,,,,,,,,13,,49,0
16379,note_on,,59,0,7,,,,,,,,,,,,,,,,10,,61,0
16379,note_on,,59,0,5,,,,,,,,,,,,,,,,2,,49,0
16379,note_on,,59,0,6,,,,,,,,,,,,,,,,8,,49,0
16379,note_on,,59,0,8,,,,,,,,,,,,,,,,11,,61,0
16379,note_on,,59,0,9,,,,,,,,,,,,,,,,12,,73,0
16380,note_on,,1,0,7,,,,,,,,,,,,,,,,10,,66,48
16380,note_on,,1,0,11,,,,,,,,,,,,,,,,15,,54,60
16380,note_on,,1,0,6,,,,,,,,,,,,,,,,8,,54,72
16380,note_on,,1,0,8,,,,,,,,,,,,,,,,11,,66,48
16380,note_on,,1,0,10,,,,,,,,,,,,,,,,13,,54,48
16380,note_on,,1,0,9,,,,,,,,,,,,,,,,12,,78,48
16380,note_on,,1,0,5,,,,,,,,,,,,,,,,2,,54,48
16439,note_on,,59,0,7,,,,,,,,,,,,,,,,10,,66,0
16439,note_on,,59,0,11,,,,,,,,,,,,,,,,15,,54,0
16439,note_on,,59,0,6,,,,,,,,,,,,,,,,8,,54,0
16439,note_on,,59,0,8,,,,,,,,,,,,,,,,11,,66,0
16439,note_on,,59,0,5,,,,,,,,,,,,,,,,2,,54,0
16439,note_on,,59,0,9,,,,,,,,,,,,,,,,12,,78,0
16439,note_on,,59,0,10,,,,,,,,,,,,,,,,13,,54,0
16440,note_on,,1,0,10,,,,,,,,,,,,,,,,13,,53,48
16440,note_on,,1,0,5,,,,,,,,,,,,,,,,2,,53,48
16440,note_on,,1,0,9,,,,,,,,,,,,,,,,12,,77,48
16440,note_on,,1,0,8,,,,,,,,,,,,,,,,11,,65,48
16440,note_on,,1,0,7,,,,,,,,,,,,,,,,10,,65,48
16440,note_on,,1,0,6,,,,,,,,,,,,,,,,8,,53,75
16440,note_on,,1,0,11,,,,,,,,,,,,,,,,15,,53,60
16499,note_on,,59,0,6,,,,,,,,,,,,,,,,8,,53,0
16499,note_on,,59,0,9,,,,,,,,,,,,,,,,12,,77,0
16499,note_on,,59,0,11,,,,,,,,,,,,,,,,15,,53,0
16499,note_on,,59,0,5,,,,,,,,,,,,,,,,2,,53,0
16499,note_on,,59,0,7,,,,,,,,,,,,,,,,10,,65,0
16499,note_on,,59,0,10,,,,,,,,,,,,,,,,13,,53,0
16499,note_on,,59,0,8,,,,,,,,,,,,,,,,11,,65,0
16500,note_on,,1,0,10,,,,,,,,,,,,,,,,13,,54,48
16500,note_on,,1,0,8,,,,,,,,,,,,,,,,11,,66,48
16500,note_on,,1,0,11,,,,,,,,,,,,,,,,15,,54,60
16500,note_on,,1,0,6,,,,,,,,,,,,,,,,8,,54,73
16500,note_on,,1,0,5,,,,,,,,,,,,,,,,2,,54,48
16500,note_on,,1,0,7,,,,,,,,,,,,,,,,10,,66,48
16500,note_on,,1,0,9,,,,,,,,,,,,,,,,12,,78,48
16559,note_on,,59,0,9,,,,,,,,,,,,,,,,12,,78,0
16559,note_on,,59,0,11,,,,,,,,,,,,,,,,15,,54,0
16559,note_on,,59,0,6,,,,,,,,,,,,,,,,8,,54,0
16559,note_on,,59,0,10,,,,,,,,,,,,,,,,13,,54,0
16559,note_on,,59,0,7,,,,,,,,,,,,,,,,10,,66,0
16559,note_on,,59,0,5,,,,,,,,,,,,,,,,2,,54,0
16559,note_on,,59,0,8,,,,,,,,,,,,,,,,11,,66,0
16560,note_on,,1,0,11,,,,,,,,,,,,,,,,15,,53,60
16560,note_on,,1,0,10,,,,,,,,,,,,,,,,13,,53,48
16560,note_on,,1,0,9,,,,,,,,,,,,,,,,12,,77,48
16560,note_on,,1,0,8,,,,,,,,,,,,,,,,11,,65,48
16560,note_on,,1,0,5,,,,,,,,,,,,,,,,2,,53,48
16560,note_on,,1,0,6,,,,,,,,,,,,,,,,8,,53,75
16560,note_on,,1,0,7,,,,,,,,,,,,,,,,10,,65,48
16619,note_on,,59,0,8,,,,,,,,,,,,,,,,11,,65,0
16619,note_on,,59,0,6,,,,,,,,,,,,,,,,8,,53,0
16619,note_on,,59,0,5,,,,,,,,,,,,,,,,2,,53,0
16619,note_on,,59,0,10,,,,,,,,,,,,,,,,13,,53,0
16619,note_on,,59,0,9,,,,,,,,,,,,,,,,12,,77,0
16619,note_on,,59,0,7,,,,,,,,,,,,,,,,10,,65,0
16619,note_on,,59,0,11,,,,,,,,,,,,,,,,15,,53,0
16620,note_on,,1,0,7,,,,,,,,,,,,,,,,10,,66,48
16620,note_on,,0,0,11,,,,,,,,,,,,,,,,15,,54,48
16620,note_on,,1,0,8,,,,,,,,,,,,,,,,11,,66,48
16620,note_on,,1,0,9,,,,,,,,,,,,,,,,12,,66,48
16620,note_on,,1,0,5,,,,,,,,,,,,,,,,2,,54,48
16620,note_on,,1,0,10,,,,,,,,,,,,,,,,13,,54,48
16620,note_on,,1,0,6,,,,,,,,,,,,,,,,8,,54,75
16620,note_on,,1,0,11,,,,,,,,,,,,,,,,15,,66,48
16679,note_on,,59,0,10,,,,,,,,,,,,,,,,13,,54,0
16679,note_on,,0,0,11,,,,,,,,,,,,,,,,15,,54,0
16679,note_on,,59,0,11,,,,,,,,,,,,,,,,15,,66,0
16679,note_on,,59,0,5,,,,,,,,,,,,,,,,2,,54,0
16679,note_on,,59,0,7,,,,,,,,,,,,,,,,10,,66,0
16679,note_on,,59,0,9,,,,,,,,,,,,,,,,12,,66,0
16679,note_on,,59,0,8,,,,,,,,,,,,,,,,11,,66,0
16679,note_on,,59,0,6,,,,,,,,,,,,,,,,8,,54,0
16680,note_on,,1,0,9,,,,,,,,,,,,,,,,12,,68,48
16680,note_on,,1,0,8,,,,,,,,,,,,,,,,11,,68,48
16680,note_on,,1,0,10,,,,,,,,,,,,,,,,13,,56,48
16680,note_on,,1,0,5,,,,,,,,,,,,,,,,2,,56,48
16680,note_on,,1,0,6,,,,,,,,,,,,,,,,8,,56,73
16680,note_on,,1,0,7,,,,,,,,,,,,,,,,10,,68,48
16680,note_on,,0,0,11,,,,,,,,,,,,,,,,15,,56,48
16680,note_on,,1,0,11,,,,,,,,,,,,,,,,15,,68,48
16739,note_on,,59,0,6,,,,,,,,,,,,,,,,8,,56,0
16739,note_on,,0,0,11,,,,,,,,,,,,,,,,15,,56,0
16739,note_on,,59,0,11,,,,,,,,,,,,,,,,15,,68,0
16739,note_on,,59,0,8,,,,,,,,,,,,,,,,11,,68,0
16739,note_on,,59,0,7,,,,,,,,,,,,,,,,10,,68,0
16739,note_on,,59,0,9,,,,,,,,,,,,,,,,12,,68,0
16739,note_on,,59,0,5,,,,,,,,,,,,,,,,2,,56,0
16739,note_on,,59,0,10,,,,,,,,,,,,,,,,13,,56,0
16740,note_on,,1,0,10,,,,,,,,,,,,,,,,13,,57,48
16740,note_on,,1,0,8,,,,,,,,,,,,,,,,11,,69,48
16740,note_on,,1,0,9,,,,,,,,,,,,,,,,12,,69,48
16740,note_on,,1,0,5,,,,,,,,,,,,,,,,2,,57,48
16740,note_on,,1,0,7,,,,,,,,,,,,,,,,10,,69,48
16740,note_on,,0,0,11,,,,,,,,,,,,,,,,15,,69,48
16740,note_on,,1,0,11,,,,,,,,,,,,,,,,15,,57,48
16740,note_on,,1,0,6,,,,,,,,,,,,,,,,8,,57,68
16799,note_on,,59,0,7,,,,,,,,,,,,,,,,10,,69,0
16799,note_on,,59,0,10,,,,,,,,,,,,,,,,13,,57,0
16799,note_on,,59,0,5,,,,,,,,,,,,,,,,2,,57,0
16799,note_on,,59,0,11,,,,,,,,,,,,,,,,15,,57,0
16799,note_on,,59,0,6,,,,,,,,,,,,,,,,8,,57,0
16799,note_on,,59,0,8,,,,,,,,,,,,,,,,11,,69,0
16799,note_on,,0,0,11,,,,,,,,,,,,,,,,15,,69,0
16799,note_on,,59,0,9,,,,,,,,,,,,,,,,12,,69,0
16800,note_on,,1,0,7,,,,,,,,,,,,,,,,10,,65,48
16800,note_on,,1,0,6,,,,,,,,,,,,,,,,8,,53,72
16800,note_on,,1,0,9,,,,,,,,,,,,,,,,12,,65,48
16800,note_on,,1,0,8,,,,,,,,,,,,,,,,11,,65,48
16800,note_on,,1,0,5,,,,,,,,,,,,,,,,2,,53,48
16800,note_on,,0,0,11,,,,,,,,,,,,,,,,15,,65,48
16800,note_on,,1,0,10,,,,,,,,,,,,,,,,13,,53,48
16800,note_on,,1,0,11,,,,,,,,,,,,,,,,15,,53,48
16859,note_on,,59,0,11,,,,,,,,,,,,,,,,15,,53,0
16859,note_on,,59,0,5,,,,,,,,,,,,,,,,2,,53,0
16859,note_on,,59,0,8,,,,,,,,,,,,,,,,11,,65,0
16859,note_on,,59,0,10,,,,,,,,,,,,,,,,13,,53,0
16859,note_on,,59,0,9,,,,,,,,,,,,,,,,12,,65,0
16859,note_on,,59,0,7,,,,,,,,,,,,,,,,10,,65,0
16859,note_on,,0,0,11,,,,,,,,,,,,,,,,15,,65,0
16859,note_on,,59,0,6,,,,,,,,,,,,,,,,8,,53,0
16860,note_on,,1,0,8,,,,,,,,,,,,,,,,11,,66,48
16860,note_on,,0,0,11,,,,,,,,,,,,,,,,15,,54,48
16860,note_on,,1,0,9,,,,,,,,,,,,,,,,12,,66,48
16860,note_on,,1,0,11,,,,,,,,,,,,,,,,15,,66,48
16860,note_on,,1,0,6,,,,,,,,,,,,,,,,8,,54,74
16860,note_on,,1,0,7,,,,,,,,,,,,,,,,10,,66,48
16860,note_on,,1,0,10,,,,,,,,,,,,,,,,13,,54,48
16860,note_on,,1,0,5,,,,,,,,,,,,,,,,2,,54,48
16919,note_on,,59,0,7,,,,,,,,,,,,,,,,10,,66,0
16919,note_on,,59,0,9,,,,,,,,,,,,,,,,12,,66,0
16919,note_on,,59,0,10,,,,,,,,,,,,,,,,13,,54,0
16919,note_on,,59,0,11,,,,,,,,,,,,,,,,15,,66,0
16919,note_on,,0,0,11,,,,,,,,,,,,,,,,15,,54,0
16919,note_on,,59,0,8,,,,,,,,,,,,,,,,11,,66,0
16919,note_on,,59,0,6,,,,,,,,,,,,,,,,8,,54,0
16919,note_on,,59,0,5,,,,,,,,,,,,,,,,2,,54,0
16920,note_on,,1,0,7,,,,,,,,,,,,,,,,10,,62,48
16920,note_on,,1,0,5,,,,,,,,,,,,,,,,2,,50,48
16920,note_on,,1,0,8,,,,,,,,,,,,,,,,11,,62,48
16920,note_on,,1,0,10,,,,,,,,,,,,,,,,13,,50,48
16920,note_on,,1,0,11,,,,,,,,,,,,,,,,15,,50,48
16920,note_on,,1,0,6,,,,,,,,,,,,,,,,8,,50,70
16920,note_on,,0,0,11,,,,,,,,,,,,,,,,15,,62,48
16920,note_on,,1,0,9,,,,,,,,,,,,,,,,12,,62,48
16979,note_on,,59,0,6,,,,,,,,,,,,,,,,8,,50,0
16979,note_on,,59,0,8,,,,,,,,,,,,,,,,11,,62,0
16979,note_on,,59,0,7,,,,,,,,,,,,,,,,10,,62,0
16979,note_on,,59,0,9,,,,,,,,,,,,,,,,12,,62,0
16979,note_on,,59,0,11,,,,,,,,,,,,,,,,15,,50,0
16979,note_on,,59,0,5,,,,,,,,,,,,,,,,2,,50,0
16979,note_on,,0,0,11,,,,,,,,,,,,,,,,15,,62,0
16979,note_on,,59,0,10,,,,,,,,,,,,,,,,13,,50,0
16980,note_on,,1,0,11,,,,,,,,,,,,,,,,15,,61,48
16980,note_on,,0,0,11,,,,,,,,,,,,,,,,15,,49,48
16980,note_on,,1,0,10,,,,,,,,,,,,,,,,13,,49,48
16980,note_on,,1,0,9,,,,,,,,,,,,,,,,12,,61,48
16980,note_on,,1,0,5,,,,,,,,,,,,,,,,2,,49,48
16980,note_on,,1,0,8,,,,,,,,,,,,,,,,11,,61,48
16980,note_on,,1,0,6,,,,,,,,,,,,,,,,8,,49,73
16980,note_on,,1,0,7,,,,,,,,,,,,,,,,10,,61,48
17039,note_on,,59,0,8,,,,,,,,,,,,,,,,11,,61,0
17039,note_on,,59,0,7,,,,,,,,,,,,,,,,10,,61,0
17039,note_on,,59,0,10,,,,,,,,,,,,,,,,13,,49,0
17039,note_on,,59,0,9,,,,,,,,,,,,,,,,12,,61,0
17039,note_on,,59,0,5,,,,,,,,,,,,,,,,2,,49,0
17039,note_on,,59,0,6,,,,,,,,,,,,,,,,8,,49,0
17039,note_on,,0,0,11,,,,,,,,,,,,,,,,15,,49,0
17039,note_on,,59,0,11,,,,,,,,,,,,,,,,15,,61,0
17040,note_on,,1,0,8,,,,,,,,,,,,,,,,11,,60,48
17040,note_on,,1,0,7,,,,,,,,,,,,,,,,10,,60,48
17040,note_on,,1,0,6,,,,,,,,,,,,,,,,8,,48,72
17040,note_on,,1,0,10,,,,,,,,,,,,,,,,13,,48,48
17040,note_on,,1,0,9,,,,,,,,,,,,,,,,12,,60,48
17040,note_on,,1,0,5,,,,,,,,,,,,,,,,2,,48,48
17040,note_on,,1,0,11,,,,,,,,,,,,,,,,15,,60,48
17040,note_on,,0,0,11,,,,,,,,,,,,,,,,15,,48,48
17099,note_on,,59,0,11,,,,,,,,,,,,,,,,15,,60,0
17099,note_on,,0,0,11,,,,,,,,,,,,,,,,15,,48,0
17099,note_on,,59,0,9,,,,,,,,,,,,,,,,12,,60,0
17099,note_on,,59,0,5,,,,,,,,,,,,,,,,2,,48,0
17099,note_on,,59,0,6,,,,,,,,,,,,,,,,8,,48,0
17099,note_on,,59,0,7,,,,,,,,,,,,,,,,10,,60,0
17099,note_on,,59,0,10,,,,,,,,,,,,,,,,13,,48,0
17099,note_on,,59,0,8,,,,,,,,,,,,,,,,11,,60,0
17100,note_on,,1,0,6,,,,,,,,,,,,,,,,8,,49,71
17100,note_on,,1,0,7,,,,,,,,,,,,,,,,10,,61,48
17100,note_on,,1,0,9,,,,,,,,,,,,,,,,12,,61,48
17100,note_on,,1,0,10,,,,,,,,,,,,,,,,13,,49,48
17100,note_on,,1,0,11,,,,,,,,,,,,,,,,15,,61,48
17100,note_on,,0,0,11,,,,,,,,,,,,,,,,15,,49,48
17100,note_on,,1,0,5,,,,,,,,,,,,,,,,2,,49,48
17100,note_on,,1,0,8,,,,,,,,,,,,,,,,11,,61,48
17159,note_on,,59,0,7,,,,,,,,,,,,,,,,10,,61,0
17159,note_on,,59,0,9,,,,,,,,,,,,,,,,12,,61,0
17159,note_on,,59,0,6,,,,,,,,,,,,,,,,8,,49,0
17159,note_on,,59,0,10,,,,,,,,,,,,,,,,13,,49,0
17159,note_on,,59,0,11,,,,,,,,,,,,,,,,15,,61,0
17159,note_on,,0,0,11,,,,,,,,,,,,,,,,15,,49,0
17159,note_on,,59,0,5,,,,,,,,,,,,,,,,2,,49,0
17159,note_on,,59,0,8,,,,,,,,,,,,,,,,11,,61,0
17160,note_on,,1,0,5,,,,,,,,,,,,,,,,2,,46,48
17160,note_on,,1,0,6,,,,,,,,,,,,,,,,8,,46,68
17160,note_on,,1,0,10,,,,,,,,,,,,,,,,13,,46,48
17160,note_on,,1,0,9,,,,,,,,,,,,,,,,12,,58,48
17160,note_on,,1,0,8,,,,,,,,,,,,,,,,11,,58,48
17160,note_on,,0,0,11,,,,,,,,,,,,,,,,15,,58,48
17160,note_on,,1,0,11,,,,,,,,,,,,,,,,15,,46,48
17160,note_on,,1,0,7,,,,,,,,,,,,,,,,10,,58,48
17219,note_on,,59,0,5,,,,,,,,,,,,,,,,2,,46,0
17219,note_on,,59,0,8,,,,,,,,,,,,,,,,11,,58,0
17219,note_on,,0,0,11,,,,,,,,,,,,,,,,15,,58,0
17219,note_on,,59,0,11,,,,,,,,,,,,,,,,15,,46,0
17219,note_on,,59,0,7,,,,,,,,,,,,,,,,10,,58,0
17219,note_on,,59,0,10,,,,,,,,,,,,,,,,13,,46,0
17219,note_on,,59,0,6,,,,,,,,,,,,,,,,8,,46,0
17219,note_on,,59,0,9,,,,,,,,,,,,,,,,12,,58,0
17220,note_on,,1,0,10,,,,,,,,,,,,,,,,13,,47,48
17220,note_on,,1,0,6,,,,,,,,,,,,,,,,8,,47,72
17220,note_on,,1,0,9,,,,,,,,,,,,,,,,12,,59,48
17220,note_on,,0,0,11,,,,,,,,,,,,,,,,15,,59,48
17220,note_on,,1,0,7,,,,,,,,,,,,,,,,10,,59,48
17220,note_on,,1,0,5,,,,,,,,,,,,,,,,2,,47,48
17220,note_on,,1,0,8,,,,,,,,,,,,,,,,11,,59,48
17220,note_on,,1,0,11,,,,,,,,,,,,,,,,15,,47,48
17279,note_on,,59,0,7,,,,,,,,,,,,,,,,10,,59,0
17279,note_on,,59,0,6,,,,,,,,,,,,,,,,8,,47,0
17279,note_on,,59,0,10,,,,,,,,,,,,,,,,13,,47,0
17279,note_on,,59,0,5,,,,,,,,,,,,,,,,2,,47,0
17279,note_on,,0,0,11,,,,,,,,,,,,,,,,15,,59,0
17279,note_on,,59,0,8,,,,,,,,,,,,,,,,11,,59,0
17279,note_on,,59,0,9,,,,,,,,,,,,,,,,12,,59,0
17279,note_on,,59,0,11,,,,,,,,,,,,,,,,15,,47,0
17280,note_on,,1,0,9,,,,,,,,,,,,,,,,12,,56,48
17280,note_on,,0,0,11,,,,,,,,,,,,,,,,15,,56,48
17280,note_on,,1,0,11,,,,,,,,,,,,,,,,15,,44,48
17280,note_on,,1,0,8,,,,,,,,,,,,,,,,11,,56,48
17280,note_on,,1,0,6,,,,,,,,,,,,,,,,8,,44,72
17280,note_on,,1,0,7,,,,,,,,,,,,,,,,10,,56,48
17280,note_on,,1,0,10,,,,,,,,,,,,,,,,13,,44,48
17280,note_on,,1,0,5,,,,,,,,,,,,,,,,2,,44,48
17339,note_on,,59,0,6,,,,,,,,,,,,,,,,8,,44,0
17339,note_on,,59,0,7,,,,,,,,,,,,,,,,10,,56,0
17339,note_on,,59,0,10,,,,,,,,,,,,,,,,13,,44,0
17339,note_on,,59,0,5,,,,,,,,,,,,,,,,2,,44,0
17339,note_on,,59,0,9,,,,,,,,,,,,,,,,12,,56,0
17339,note_on,,0,0,11,,,,,,,,,,,,,,,,15,,56,0
17339,note_on,,59,0,8,,,,,,,,,,,,,,,,11,,56,0
17339,note_on,,59,0,11,,,,,,,,,,,,,,,,15,,44,0
17340,note_on,,1,0,8,,,,,,,,,,,,,,,,11,,57,48
17340,note_on,,1,0,7,,,,,,,,,,,,,,,,10,,57,48
17340,note_on,,1,0,6,,,,,,,,,,,,,,,,8,,45,71
17340,note_on,,1,0,9,,,,,,,,,,,,,,,,12,,57,48
17340,note_on,,0,0,11,,,,,,,,,,,,,,,,15,,45,48
17340,note_on,,1,0,11,,,,,,,,,,,,,,,,15,,57,48
17340,note_on,,1,0,5,,,,,,,,,,,,,,,,2,,45,48
17340,note_on,,1,0,10,,,,,,,,,,,,,,,,13,,45,48
17399,note_on,,59,0,6,,,,,,,,,,,,,,,,8,,45,0
17399,note_on,,59,0,7,,,,,,,,,,,,,,,,10,,57,0
17399,note_on,,59,0,10,,,,,,,,,,,,,,,,13,,45,0
17399,note_on,,59,0,8,,,,,,,,,,,,,,,,11,,57,0
17399,note_on,,59,0,11,,,,,,,,,,,,,,,,15,,57,0
17399,note_on,,0,0,11,,,,,,,,,,,,,,,,15,,45,0
17399,note_on,,59,0,9,,,,,,,,,,,,,,,,12,,57,0
17399,note_on,,59,0,5,,,,,,,,,,,,,,,,2,,45,0
17400,note_on,,1,0,5,,,,,,,,,,,,,,,,2,,50,48
17400,note_on,,1,0,6,,,,,,,,,,,,,,,,8,,50,75
17400,note_on,,1,0,11,,,,,,,,,,,,,,,,15,,62,48
17400,note_on,,0,0,11,,,,,,,,,,,,,,,,15,,50,48
17400,note_on,,1,0,8,,,,,,,,,,,,,,,,11,,62,48
17400,note_on,,1,0,7,,,,,,,,,,,,,,,,10,,62,48
17400,note_on,,1,0,10,,,,,,,,,,,,,,,,13,,50,48
17400,note_on,,1,0,9,,,,,,,,,,,,,,,,12,,62,48
17459,note_on,,59,0,7,,,,,,,,,,,,,,,,10,,62,0
17459,note_on,,59,0,8,,,,,,,,,,,,,,,,11,,62,0
17459,note_on,,59,0,5,,,,,,,,,,,,,,,,2,,50,0
17459,note_on,,59,0,9,,,,,,,,,,,,,,,,12,,62,0
17459,note_on,,0,0,11,,,,,,,,,,,,,,,,15,,50,0
17459,note_on,,59,0,6,,,,,,,,,,,,,,,,8,,50,0
17459,note_on,,59,0,11,,,,,,,,,,,,,,,,15,,62,0
17459,note_on,,59,0,10,,,,,,,,,,,,,,,,13,,50,0
17460,note_on,,1,0,11,,,,,,,,,,,,,,,,15,,49,48
17460,note_on,,0,0,11,,,,,,,,,,,,,,,,15,,61,48
17460,note_on,,1,0,7,,,,,,,,,,,,,,,,10,,61,48
17460,note_on,,1,0,5,,,,,,,,,,,,,,,,2,,49,48
17460,note_on,,1,0,8,,,,,,,,,,,,,,,,11,,61,48
17460,note_on,,1,0,6,,,,,,,,,,,,,,,,8,,49,70
17460,note_on,,1,0,9,,,,,,,,,,,,,,,,12,,61,48
17460,note_on,,1,0,10,,,,,,,,,,,,,,,,13,,49,48
17519,note_on,,59,0,5,,,,,,,,,,,,,,,,2,,49,0
17519,note_on,,59,0,7,,,,,,,,,,,,,,,,10,,61,0
17519,note_on,,59,0,8,,,,,,,,,,,,,,,,11,,61,0
17519,note_on,,59,0,6,,,,,,,,,,,,,,,,8,,49,0
17519,note_on,,59,0,10,,,,,,,,,,,,,,,,13,,49,0
17519,note_on,,0,0,11,,,,,,,,,,,,,,,,15,,61,0
17519,note_on,,59,0,9,,,,,,,,,,,,,,,,12,,61,0
17519,note_on,,59,0,11,,,,,,,,,,,,,,,,15,,49,0
17520,note_on,,1,0,7,,,,,,,,,,,,,,,,10,,66,48
17520,note_on,,1,0,9,,,,,,,,,,,,,,,,12,,66,48
17520,note_on,,1,0,8,,,,,,,,,,,,,,,,11,,66,48
17520,note_on,,1,0,6,,,,,,,,,,,,,,,,8,,54,70
17520,note_on,,0,0,11,,,,,,,,,,,,,,,,15,,54,48
17520,note_on,,1,0,10,,,,,,,,,,,,,,,,13,,54,48
17520,note_on,,1,0,11,,,,,,,,,,,,,,,,15,,66,48
17520,note_on,,1,0,5,,,,,,,,,,,,,,,,2,,54,48
17579,note_on,,59,0,9,,,,,,,,,,,,,,,,12,,66,0
17579,note_on,,0,0,11,,,,,,,,,,,,,,,,15,,54,0
17579,note_on,,59,0,11,,,,,,,,,,,,,,,,15,,66,0
17579,note_on,,59,0,10,,,,,,,,,,,,,,,,13,,54,0
17579,note_on,,59,0,8,,,,,,,,,,,,,,,,11,,66,0
17579,note_on,,59,0,6,,,,,,,,,,,,,,,,8,,54,0
17579,note_on,,59,0,5,,,,,,,,,,,,,,,,2,,54,0
17579,note_on,,59,0,7,,,,,,,,,,,,,,,,10,,66,0
17580,note_on,,1,0,5,,,,,,,,,,,,,,,,2,,53,48
17580,note_on,,0,0,11,,,,,,,,,,,,,,,,15,,65,48
17580,note_on,,1,0,7,,,,,,,,,,,,,,,,10,,65,48
17580,note_on,,1,0,9,,,,,,,,,,,,,,,,12,,65,48
17580,note_on,,1,0,10,,,,,,,,,,,,,,,,13,,53,48
17580,note_on,,1,0,6,,,,,,,,,,,,,,,,8,,53,73
17580,note_on,,1,0,8,,,,,,,,,,,,,,,,11,,65,48
17580,note_on,,1,0,11,,,,,,,,,,,,,,,,15,,53,48
17639,note_on,,59,0,5,,,,,,,,,,,,,,,,2,,53,0
17639,note_on,,59,0,7,,,,,,,,,,,,,,,,10,,65,0
17639,note_on,,59,0,10,,,,,,,,,,,,,,,,13,,53,0
17639,note_on,,59,0,6,,,,,,,,,,,,,,,,8,,53,0
17639,note_on,,59,0,8,,,,,,,,,,,,,,,,11,,65,0
17639,note_on,,59,0,11,,,,,,,,,,,,,,,,15,,53,0
17639,note_on,,0,0,11,,,,,,,,,,,,,,,,15,,65,0
17639,note_on,,59,0,9,,,,,,,,,,,,,,,,12,,65,0
17640,note_on,,0,0,11,,,,,,,,,,,,,,,,15,,71,48
17640,note_on,,1,0,5,,,,,,,,,,,,,,,,2,,59,48
17640,note_on,,1,0,8,,,,,,,,,,,,,,,,11,,71,48
17640,note_on,,1,0,7,,,,,,,,,,,,,,,,10,,71,48
17640,note_on,,1,0,9,,,,,,,,,,,,,,,,12,,71,48
17640,note_on,,1,0,11,,,,,,,,,,,,,,,,15,,59,48
17640,note_on,,1,0,6,,,,,,,,,,,,,,,,8,,59,71
17640,note_on,,1,0,10,,,,,,,,,,,,,,,,13,,59,48
17699,note_on,,59,0,5,,,,,,,,,,,,,,,,2,,59,0
17699,note_on,,59,0,9,,,,,,,,,,,,,,,,12,,71,0
17699,note_on,,59,0,11,,,,,,,,,,,,,,,,15,,59,0
17699,note_on,,59,0,6,,,,,,,,,,,,,,,,8,,59,0
17699,note_on,,0,0,11,,,,,,,,,,,,,,,,15,,71,0
17699,note_on,,59,0,8,,,,,,,,,,,,,,,,11,,71,0
17699,note_on,,59,0,10,,,,,,,,,,,,,,,,13,,59,0
17699,note_on,,59,0,7,,,,,,,,,,,,,,,,10,,71,0
17700,note_on,,1,0,8,,,,,,,,,,,,,,,,11,,69,48
17700,note_on,,1,0,7,,,,,,,,,,,,,,,,10,,69,48
17700,note_on,,1,0,11,,,,,,,,,,,,,,,,15,,69,48
17700,note_on,,1,0,9,,,,,,,,,,,,,,,,12,,69,48
17700,note_on,,1,0,6,,,,,,,,,,,,,,,,8,,57,70
17700,note_on,,1,0,5,,,,,,,,,,,,,,,,2,,57,48
17700,note_on,,1,0,10,,,,,,,,,,,,,,,,13,,57,48
17700,note_on,,0,0,11,,,,,,,,,,,,,,,,15,,57,48
17759,note_on,,59,0,11,,,,,,,,,,,,,,,,15,,69,0
17759,note_on,,59,0,9,,,,,,,,,,,,,,,,12,,69,0
17759,note_on,,59,0,8,,,,,,,,,,,,,,,,11,,69,0
17759,note_on,,0,0,11,,,,,,,,,,,,,,,,15,,57,0
17759,note_on,,59,0,7,,,,,,,,,,,,,,,,10,,69,0
17759,note_on,,59,0,5,,,,,,,,,,,,,,,,2,,57,0
17759,note_on,,59,0,10,,,,,,,,,,,,,,,,13,,57,0
17759,note_on,,59,0,6,,,,,,,,,,,,,,,,8,,57,0
17760,note_on,,1,0,7,,,,,,,,,,,,,,,,10,,74,48
17760,note_on,,1,0,11,,,,,,,,,,,,,,,,15,,74,48
17760,note_on,,0,0,11,,,,,,,,,,,,,,,,15,,62,48
17760,note_on,,1,0,9,,,,,,,,,,,,,,,,12,,74,48
17760,note_on,,1,0,10,,,,,,,,,,,,,,,,13,,62,48
17760,note_on,,1,0,8,,,,,,,,,,,,,,,,11,,74,48
17760,note_on,,1,0,5,,,,,,,,,,,,,,,,2,,62,48
17760,note_on,,1,0,6,,,,,,,,,,,,,,,,8,,62,72
17819,note_on,,59,0,10,,,,,,,,,,,,,,,,13,,62,0
17819,note_on,,59,0,11,,,,,,,,,,,,,,,,15,,74,0
17819,note_on,,59,0,8,,,,,,,,,,,,,,,,11,,74,0
17819,note_on,,59,0,7,,,,,,,,,,,,,,,,10,,74,0
17819,note_on,,59,0,5,,,,,,,,,,,,,,,,2,,62,0
17819,note_on,,59,0,6,,,,,,,,,,,,,,,,8,,62,0
17819,note_on,,59,0,9,,,,,,,,,,,,,,,,12,,74,0
17819,note_on,,0,0,11,,,,,,,,,,,,,,,,15,,62,0
17820,note_on,,1,0,8,,,,,,,,,,,,,,,,11,,73,48
17820,note_on,,0,0,11,,,,,,,,,,,,,,,,15,,61,48
17820,note_on,,1,0,6,,,,,,,,,,,,,,,,8,,61,75
17820,note_on,,1,0,11,,,,,,,,,,,,,,,,15,,73,48
17820,note_on,,1,0,9,,,,,,,,,,,,,,,,12,,73,48
17820,note_on,,1,0,5,,,,,,,,,,,,,,,,2,,61,48
17820,note_on,,1,0,7,,,,,,,,,,,,,,,,10,,73,48
17820,note_on,,1,0,10,,,,,,,,,,,,,,,,13,,61,48
17879,note_on,,59,0,6,,,,,,,,,,,,,,,,8,,61,0
17879,note_on,,59,0,9,,,,,,,,,,,,,,,,12,,73,0
17879,note_on,,59,0,5,,,,,,,,,,,,,,,,2,,61,0
17879,note_on,,0,0,11,,,,,,,,,,,,,,,,15,,61,0
17879,note_on,,59,0,11,,,,,,,,,,,,,,,,15,,73,0
17879,note_on,,59,0,7,,,,,,,,,,,,,,,,10,,73,0
17879,note_on,,59,0,8,,,,,,,,,,,,,,,,11,,73,0
17879,note_on,,59,0,10,,,,,,,,,,,,,,,,13,,61,0
17880,note_on,,1,0,7,,,,,,,,,,,,,,,,10,,65,48
17880,note_on,,1,0,5,,,,,,,,,,,,,,,,2,,53,48
17880,note_on,,1,0,6,,,,,,,,,,,,,,,,8,,53,75
17880,note_on,,1,0,8,,,,,,,,,,,,,,,,11,,65,48
17880,note_on,,1,0,10,,,,,,,,,,,,,,,,13,,53,48
17880,note_on,,0,0,11,,,,,,,,,,,,,,,,15,,65,48
17880,note_on,,1,0,9,,,,,,,,,,,,,,,,12,,65,48
17880,note_on,,1,0,11,,,,,,,,,,,,,,,,15,,53,48
17939,note_on,,59,0,8,,,,,,,,,,,,,,,,11,,65,0
17939,note_on,,59,0,7,,,,,,,,,,,,,,,,10,,65,0
17939,note_on,,59,0,10,,,,,,,,,,,,,,,,13,,53,0
17939,note_on,,59,0,9,,,,,,,,,,,,,,,,12,,65,0
17939,note_on,,59,0,5,,,,,,,,,,,,,,,,2,,53,0
17939,note_on,,0,0,11,,,,,,,,,,,,,,,,15,,65,0
17939,note_on,,59,0,11,,,,,,,,,,,,,,,,15,,53,0
17939,note_on,,59,0,6,,,,,,,,,,,,,,,,8,,53,0
17940,note_on,,1,0,6,,,,,,,,,,,,,,,,8,,54,69
17940,note_on,,1,0,5,,,,,,,,,,,,,,,,2,,54,48
17940,note_on,,0,0,11,,,,,,,,,,,,,,,,15,,66,48
17940,note_on,,1,0,7,,,,,,,,,,,,,,,,10,,66,48
17940,note_on,,1,0,11,,,,,,,,,,,,,,,,15,,54,48
17940,note_on,,1,0,9,,,,,,,,,,,,,,,,12,,66,48
17940,note_on,,1,0,10,,,,,,,,,,,,,,,,13,,54,48
17940,note_on,,1,0,8,,,,,,,,,,,,,,,,11,,66,48
17999,note_on,,59,0,9,,,,,,,,,,,,,,,,12,,66,0
17999,note_on,,59,0,10,,,,,,,,,,,,,,,,13,,54,0
17999,note_on,,59,0,8,,,,,,,,,,,,,,,,11,,66,0
17999,note_on,,59,0,7,,,,,,,,,,,,,,,,10,,66,0
17999,note_on,,59,0,6,,,,,,,,,,,,,,,,8,,54,0
17999,note_on,,59,0,5,,,,,,,,,,,,,,,,2,,54,0
17999,note_on,,59,0,11,,,,,,,,,,,,,,,,15,,54,0
17999,note_on,,0,0,11,,,,,,,,,,,,,,,,15,,66,0
18000,note_on,,1,0,5,,,,,,,,,,,,,,,,2,,50,48
18000,note_on,,1,0,6,,,,,,,,,,,,,,,,8,,50,70
18000,note_on,,1,0,10,,,,,,,,,,,,,,,,13,,50,48
18000,note_on,,1,0,8,,,,,,,,,,,,,,,,11,,62,48
18000,note_on,,1,0,9,,,,,,,,,,,,,,,,12,,62,48
18000,note_on,,1,0,7,,,,,,,,,,,,,,,,10,,62,48
18000,note_on,,0,0,11,,,,,,,,,,,,,,,,15,,62,48
18000,note_on,,1,0,11,,,,,,,,,,,,,,,,15,,50,48
18059,note_on,,59,0,8,,,,,,,,,,,,,,,,11,,62,0
18059,note_on,,59,0,11,,,,,,,,,,,,,,,,15,,50,0
18059,note_on,,59,0,9,,,,,,,,,,,,,,,,12,,62,0
18059,note_on,,59,0,6,,,,,,,,,,,,,,,,8,,50,0
18059,note_on,,59,0,5,,,,,,,,,,,,,,,,2,,50,0
18059,note_on,,0,0,11,,,,,,,,,,,,,,,,15,,62,0
18059,note_on,,59,0,7,,,,,,,,,,,,,,,,10,,62,0
18059,note_on,,59,0,10,,,,,,,,,,,,,,,,13,,50,0
18060,note_on,,1,0,11,,,,,,,,,,,,,,,,15,,49,60
18060,note_on,,1,0,5,,,,,,,,,,,,,,,,2,,49,48
18060,note_on,,1,0,10,,,,,,,,,,,,,,,,13,,49,48
18060,note_on,,1,0,9,,,,,,,,,,,,,,,,12,,61,48
18060,note_on,,1,0,6,,,,,,,,,,,,,,,,8,,49,70
18060,note_on,,0,0,11,,,,,,,,,,,,,,,,15,,61,48
18060,note_on,,1,0,8,,,,,,,,,,,,,,,,11,,61,48
18060,note_on,,1,0,7,,,,,,,,,,,,,,,,10,,61,48
18119,note_on,,59,0,7,,,,,,,,,,,,,,,,10,,61,0
18119,note_on,,59,0,9,,,,,,,,,,,,,,,,12,,61,0
18119,note_on,,59,0,8,,,,,,,,,,,,,,,,11,,61,0
18120,note_on,,1,0,7,,,,,,,,,,,,,,,,10,,66,48
18120,note_on,,1,0,9,,,,,,,,,,,,,,,,12,,66,48
18120,note_on,,1,0,8,,,,,,,,,,,,,,,,11,,66,48
18179,note_on,,59,0,9,,,,,,,,,,,,,,,,12,,66,0
18179,note_on,,59,0,8,,,,,,,,,,,,,,,,11,,66,0
18179,note_on,,59,0,7,,,,,,,,,,,,,,,,10,,66,0
18180,note_on,,1,0,8,,,,,,,,,,,,,,,,11,,65,48
18180,note_on,,1,0,7,,,,,,,,,,,,,,,,10,,65,48
18180,note_on,,1,0,9,,,,,,,,,,,,,,,,12,,65,48
18239,note_on,,59,0,8,,,,,,,,,,,,,,,,11,,65,0
18239,note_on,,59,0,9,,,,,,,,,,,,,,,,12,,65,0
18239,note_on,,59,0,7,,,,,,,,,,,,,,,,10,,65,0
18240,note_on,,1,0,7,,,,,,,,,,,,,,,,10,,71,48
18240,note_on,,1,0,8,,,,,,,,,,,,,,,,11,,71,48
18240,note_on,,1,0,9,,,,,,,,,,,,,,,,12,,71,48
18299,note_on,,59,0,9,,,,,,,,,,,,,,,,12,,71,0
18299,note_on,,239,0,11,,,,,,,,,,,,,,,,15,,61,0
18299,note_on,,59,0,7,,,,,,,,,,,,,,,,10,,71,0
18299,note_on,,59,0,8,,,,,,,,,,,,,,,,11,,71,0
18300,note_on,,1,0,9,,,,,,,,,,,,,,,,12,,69,48
18300,note_on,,1,0,7,,,,,,,,,,,,,,,,10,,69,48
18300,note_on,,1,0,8,,,,,,,,,,,,,,,,11,,69,48
18359,note_on,,59,0,7,,,,,,,,,,,,,,,,10,,69,0
18359,note_on,,59,0,8,,,,,,,,,,,,,,,,11,,69,0
18359,note_on,,59,0,9,,,,,,,,,,,,,,,,12,,69,0
18360,note_on,,1,0,7,,,,,,,,,,,,,,,,10,,74,48
18360,note_on,,1,0,9,,,,,,,,,,,,,,,,12,,74,48
18360,note_on,,1,0,8,,,,,,,,,,,,,,,,11,,74,48
18419,note_on,,59,0,7,,,,,,,,,,,,,,,,10,,74,0
18419,note_on,,59,0,8,,,,,,,,,,,,,,,,11,,74,0
18419,note_on,,59,0,9,,,,,,,,,,,,,,,,12,,74,0
18420,note_on,,1,0,9,,,,,,,,,,,,,,,,12,,73,48
18420,note_on,,1,0,7,,,,,,,,,,,,,,,,10,,73,48
18420,note_on,,1,0,8,,,,,,,,,,,,,,,,11,,73,48
18479,note_on,,59,0,9,,,,,,,,,,,,,,,,12,,73,0
18479,note_on,,59,0,7,,,,,,,,,,,,,,,,10,,73,0
18479,note_on,,59,0,8,,,,,,,,,,,,,,,,11,,73,0
18480,note_on,,1,0,9,,,,,,,,,,,,,,,,12,,66,48
18480,note_on,,1,0,8,,,,,,,,,,,,,,,,11,,78,48
18480,note_on,,1,0,7,,,,,,,,,,,,,,,,10,,78,48
18539,note_on,,59,0,9,,,,,,,,,,,,,,,,12,,66,0
18539,note_on,,59,0,7,,,,,,,,,,,,,,,,10,,78,0
18539,note_on,,59,0,8,,,,,,,,,,,,,,,,11,,78,0
18540,note_on,,1,0,7,,,,,,,,,,,,,,,,10,,77,48
18540,note_on,,1,0,9,,,,,,,,,,,,,,,,12,,65,48
18540,note_on,,1,0,8,,,,,,,,,,,,,,,,11,,77,48
18599,note_on,,59,0,9,,,,,,,,,,,,,,,,12,,65,0
18599,note_on,,59,0,7,,,,,,,,,,,,,,,,10,,77,0
18599,note_on,,59,0,8,,,,,,,,,,,,,,,,11,,77,0
18600,note_on,,1,0,8,,,,,,,,,,,,,,,,11,,81,48
18600,note_on,,1,0,9,,,,,,,,,,,,,,,,12,,69,48
18600,note_on,,1,0,7,,,,,,,,,,,,,,,,10,,81,48
18659,note_on,,59,0,8,,,,,,,,,,,,,,,,11,,81,0
18659,note_on,,59,0,9,,,,,,,,,,,,,,,,12,,69,0
18659,note_on,,59,0,7,,,,,,,,,,,,,,,,10,,81,0
18660,note_on,,1,0,9,,,,,,,,,,,,,,,,12,,68,48
18660,note_on,,1,0,8,,,,,,,,,,,,,,,,11,,80,48
18660,note_on,,1,0,7,,,,,,,,,,,,,,,,10,,80,48
18719,note_on,,59,0,7,,,,,,,,,,,,,,,,10,,80,0
18719,note_on,,59,0,9,,,,,,,,,,,,,,,,12,,68,0
18719,note_on,,59,0,8,,,,,,,,,,,,,,,,11,,80,0
18720,note_on,,1,0,7,,,,,,,,,,,,,,,,10,,71,48
18720,note_on,,1,0,9,,,,,,,,,,,,,,,,12,,71,48
18720,note_on,,1,0,8,,,,,,,,,,,,,,,,11,,71,48
18779,note_on,,59,0,9,,,,,,,,,,,,,,,,12,,71,0
18779,note_on,,59,0,8,,,,,,,,,,,,,,,,11,,71,0
18779,note_on,,719,0,6,,,,,,,,,,,,,,,,8,,49,0
18779,note_on,,59,0,7,,,,,,,,,,,,,,,,10,,71,0
18780,note_on,,1,0,9,,,,,,,,,,,,,,,,12,,69,48
18780,note_on,,1,0,8,,,,,,,,,,,,,,,,11,,69,48
18780,note_on,,1,0,7,,,,,,,,,,,,,,,,10,,69,48
18839,note_on,,59,0,8,,,,,,,,,,,,,,,,11,,69,0
18839,note_on,,59,0,9,,,,,,,,,,,,,,,,12,,69,0
18839,note_on,,59,0,7,,,,,,,,,,,,,,,,10,,69,0
18840,note_on,,1,0,7,,,,,,,,,,,,,,,,10,,65,48
18840,note_on,,1,0,9,,,,,,,,,,,,,,,,12,,65,48
18840,note_on,,1,0,8,,,,,,,,,,,,,,,,11,,65,48
18899,note_on,,59,0,8,,,,,,,,,,,,,,,,11,,65,0
18899,note_on,,59,0,9,,,,,,,,,,,,,,,,12,,65,0
18899,note_on,,59,0,7,,,,,,,,,,,,,,,,10,,65,0
18900,note_on,,1,0,8,,,,,,,,,,,,,,,,11,,66,48
18900,note_on,,1,0,9,,,,,,,,,,,,,,,,12,,66,48
18900,note_on,,1,0,7,,,,,,,,,,,,,,,,10,,66,48
18959,note_on,,59,0,8,,,,,,,,,,,,,,,,11,,66,0
18959,note_on,,59,0,9,,,,,,,,,,,,,,,,12,,66,0
18959,note_on,,59,0,7,,,,,,,,,,,,,,,,10,,66,0
18960,note_on,,1,0,8,,,,,,,,,,,,,,,,11,,62,48
18960,note_on,,1,0,9,,,,,,,,,,,,,,,,12,,62,48
18960,note_on,,1,0,7,,,,,,,,,,,,,,,,10,,62,48
19019,note_on,,59,0,9,,,,,,,,,,,,,,,,12,,62,0
19019,note_on,,59,0,7,,,,,,,,,,,,,,,,10,,62,0
19019,note_on,,59,0,8,,,,,,,,,,,,,,,,11,,62,0
19020,note_on,,1,0,8,,,,,,,,,,,,,,,,11,,61,48
19020,note_on,,1,0,9,,,,,,,,,,,,,,,,12,,61,48
19020,note_on,,1,0,7,,,,,,,,,,,,,,,,10,,61,48
19139,note_on,,119,0,7,,,,,,,,,,,,,,,,10,,61,0
19139,note_on,,119,0,8,,,,,,,,,,,,,,,,11,,61,0
19139,note_on,,840,0,11,,,,,,,,,,,,,,,,15,,49,0
19139,note_on,,119,0,9,,,,,,,,,,,,,,,,12,,61,0
19139,note_on,,1079,0,5,,,,,,,,,,,,,,,,2,,49,0
19139,note_on,,1079,0,10,,,,,,,,,,,,,,,,13,,49,0
19200,note_on,,421,0,6,,,,,,,,,,,,,,,,8,,49,74
19200,note_on,,61,0,9,,,,,,,,,,,,,,,,12,,61,48
19200,note_on,,0,0,11,,,,,,,,,,,,,,,,15,,61,48
19200,note_on,,61,0,5,,,,,,,,,,,,,,,,2,,49,48
19200,note_on,,61,0,10,,,,,,,,,,,,,,,,13,,49,48
19200,note_on,,61,0,8,,,,,,,,,,,,,,,,11,,61,48
19200,note_on,,61,0,7,,,,,,,,,,,,,,,,10,,61,48
19200,note_on,,61,0,11,,,,,,,,,,,,,,,,15,,49,60
19259,note_on,,59,0,11,,,,,,,,,,,,,,,,15,,49,0
19259,note_on,,0,0,11,,,,,,,,,,,,,,,,15,,61,0
19259,note_on,,59,0,5,,,,,,,,,,,,,,,,2,,49,0
19259,note_on,,59,0,10,,,,,,,,,,,,,,,,13,,49,0
19259,note_on,,59,0,8,,,,,,,,,,,,,,,,11,,61,0
19259,note_on,,59,0,9,,,,,,,,,,,,,,,,12,,61,0
19259,note_on,,59,0,6,,,,,,,,,,,,,,,,8,,49,0
19259,note_on,,59,0,7,,,,,,,,,,,,,,,,10,,61,0
19260,note_on,,1,0,8,,,,,,,,,,,,,,,,11,,62,48
19260,note_on,,1,0,6,,,,,,,,,,,,,,,,8,,50,68
19260,note_on,,1,0,7,,,,,,,,,,,,,,,,10,,62,48
19260,note_on,,1,0,10,,,,,,,,,,,,,,,,13,,50,48
19260,note_on,,1,0,5,,,,,,,,,,,,,,,,2,,50,48
19260,note_on,,0,0,11,,,,,,,,,,,,,,,,15,,62,48
19260,note_on,,1,0,9,,,,,,,,,,,,,,,,12,,62,48
19260,note_on,,1,0,11,,,,,,,,,,,,,,,,15,,50,48
19319,note_on,,59,0,5,,,,,,,,,,,,,,,,2,,50,0
19319,note_on,,0,0,11,,,,,,,,,,,,,,,,15,,62,0
19319,note_on,,59,0,6,,,,,,,,,,,,,,,,8,,50,0
19319,note_on,,59,0,11,,,,,,,,,,,,,,,,15,,50,0
19319,note_on,,59,0,9,,,,,,,,,,,,,,,,12,,62,0
19319,note_on,,59,0,8,,,,,,,,,,,,,,,,11,,62,0
19319,note_on,,59,0,10,,,,,,,,,,,,,,,,13,,50,0
19319,note_on,,59,0,7,,,,,,,,,,,,,,,,10,,62,0
19320,note_on,,1,0,10,,,,,,,,,,,,,,,,13,,46,48
19320,note_on,,1,0,9,,,,,,,,,,,,,,,,12,,58,48
19320,note_on,,1,0,5,,,,,,,,,,,,,,,,2,,46,48
19320,note_on,,0,0,11,,,,,,,,,,,,,,,,15,,46,48
19320,note_on,,1,0,6,,,,,,,,,,,,,,,,8,,46,75
19320,note_on,,1,0,11,,,,,,,,,,,,,,,,15,,58,48
19320,note_on,,1,0,8,,,,,,,,,,,,,,,,11,,58,48
19320,note_on,,1,0,7,,,,,,,,,,,,,,,,10,,58,48
19379,note_on,,59,0,9,,,,,,,,,,,,,,,,12,,58,0
19379,note_on,,59,0,6,,,,,,,,,,,,,,,,8,,46,0
19379,note_on,,0,0,11,,,,,,,,,,,,,,,,15,,46,0
19379,note_on,,59,0,11,,,,,,,,,,,,,,,,15,,58,0
19379,note_on,,59,0,10,,,,,,,,,,,,,,,,13,,46,0
19379,note_on,,59,0,8,,,,,,,,,,,,,,,,11,,58,0
19379,note_on,,59,0,5,,,,,,,,,,,,,,,,2,,46,0
19379,note_on,,59,0,7,,,,,,,,,,,,,,,,10,,58,0
19380,note_on,,1,0,5,,,,,,,,,,,,,,,,2,,47,48
19380,note_on,,1,0,10,,,,,,,,,,,,,,,,13,,47,48
19380,note_on,,1,0,7,,,,,,,,,,,,,,,,10,,59,48
19380,note_on,,1,0,6,,,,,,,,,,,,,,,,8,,47,69
19380,note_on,,1,0,8,,,,,,,,,,,,,,,,11,,59,48
19380,note_on,,0,0,11,,,,,,,,,,,,,,,,15,,47,48
19380,note_on,,1,0,11,,,,,,,,,,,,,,,,15,,59,48
19380,note_on,,1,0,9,,,,,,,,,,,,,,,,12,,59,48
19439,note_on,,59,0,8,,,,,,,,,,,,,,,,11,,59,0
19439,note_on,,59,0,10,,,,,,,,,,,,,,,,13,,47,0
19439,note_on,,59,0,7,,,,,,,,,,,,,,,,10,,59,0
19439,note_on,,59,0,5,,,,,,,,,,,,,,,,2,,47,0
19439,note_on,,59,0,6,,,,,,,,,,,,,,,,8,,47,0
19439,note_on,,59,0,9,,,,,,,,,,,,,,,,12,,59,0
19439,note_on,,0,0,11,,,,,,,,,,,,,,,,15,,47,0
19439,note_on,,59,0,11,,,,,,,,,,,,,,,,15,,59,0
19440,note_on,,1,0,10,,,,,,,,,,,,,,,,13,,51,48
19440,note_on,,0,0,11,,,,,,,,,,,,,,,,15,,51,48
19440,note_on,,1,0,5,,,,,,,,,,,,,,,,2,,51,48
19440,note_on,,1,0,9,,,,,,,,,,,,,,,,12,,63,48
19440,note_on,,1,0,11,,,,,,,,,,,,,,,,15,,63,48
19440,note_on,,1,0,8,,,,,,,,,,,,,,,,11,,63,48
19440,note_on,,1,0,7,,,,,,,,,,,,,,,,10,,63,48
19440,note_on,,1,0,6,,,,,,,,,,,,,,,,8,,51,75
19499,note_on,,59,0,7,,,,,,,,,,,,,,,,10,,63,0
19499,note_on,,59,0,10,,,,,,,,,,,,,,,,13,,51,0
19499,note_on,,59,0,5,,,,,,,,,,,,,,,,2,,51,0
19499,note_on,,59,0,9,,,,,,,,,,,,,,,,12,,63,0
19499,note_on,,59,0,8,,,,,,,,,,,,,,,,11,,63,0
19499,note_on,,59,0,6,,,,,,,,,,,,,,,,8,,51,0
19499,note_on,,59,0,11,,,,,,,,,,,,,,,,15,,63,0
19499,note_on,,0,0,11,,,,,,,,,,,,,,,,15,,51,0
19500,note_on,,0,0,11,,,,,,,,,,,,,,,,15,,64,48
19500,note_on,,1,0,5,,,,,,,,,,,,,,,,2,,52,48
19500,note_on,,1,0,9,,,,,,,,,,,,,,,,12,,64,48
19500,note_on,,1,0,6,,,,,,,,,,,,,,,,8,,52,72
19500,note_on,,1,0,8,,,,,,,,,,,,,,,,11,,64,48
19500,note_on,,1,0,11,,,,,,,,,,,,,,,,15,,52,48
19500,note_on,,1,0,10,,,,,,,,,,,,,,,,13,,52,48
19500,note_on,,1,0,7,,,,,,,,,,,,,,,,10,,64,48
19559,note_on,,59,0,5,,,,,,,,,,,,,,,,2,,52,0
19559,note_on,,59,0,8,,,,,,,,,,,,,,,,11,,64,0
19559,note_on,,59,0,11,,,,,,,,,,,,,,,,15,,52,0
19559,note_on,,0,0,11,,,,,,,,,,,,,,,,15,,64,0
19559,note_on,,59,0,7,,,,,,,,,,,,,,,,10,,64,0
19559,note_on,,59,0,9,,,,,,,,,,,,,,,,12,,64,0
19559,note_on,,59,0,10,,,,,,,,,,,,,,,,13,,52,0
19559,note_on,,59,0,6,,,,,,,,,,,,,,,,8,,52,0
19560,note_on,,1,0,7,,,,,,,,,,,,,,,,10,,60,48
19560,note_on,,1,0,5,,,,,,,,,,,,,,,,2,,48,48
19560,note_on,,0,0,11,,,,,,,,,,,,,,,,15,,60,48
19560,note_on,,1,0,11,,,,,,,,,,,,,,,,15,,48,48
19560,note_on,,1,0,9,,,,,,,,,,,,,,,,12,,60,48
19560,note_on,,1,0,10,,,,,,,,,,,,,,,,13,,48,48
19560,note_on,,1,0,8,,,,,,,,,,,,,,,,11,,60,48
19560,note_on,,1,0,6,,,,,,,,,,,,,,,,8,,48,69
19619,note_on,,59,0,5,,,,,,,,,,,,,,,,2,,48,0
19619,note_on,,59,0,7,,,,,,,,,,,,,,,,10,,60,0
19619,note_on,,59,0,9,,,,,,,,,,,,,,,,12,,60,0
19619,note_on,,59,0,8,,,,,,,,,,,,,,,,11,,60,0
19619,note_on,,59,0,10,,,,,,,,,,,,,,,,13,,48,0
19619,note_on,,59,0,11,,,,,,,,,,,,,,,,15,,48,0
19619,note_on,,0,0,11,,,,,,,,,,,,,,,,15,,60,0
19619,note_on,,59,0,6,,,,,,,,,,,,,,,,8,,48,0
19620,note_on,,1,0,6,,,,,,,,,,,,,,,,8,,49,75
19620,note_on,,1,0,8,,,,,,,,,,,,,,,,11,,61,48
19620,note_on,,1,0,5,,,,,,,,,,,,,,,,2,,49,48
19620,note_on,,1,0,11,,,,,,,,,,,,,,,,15,,49,48
19620,note_on,,0,0,11,,,,,,,,,,,,,,,,15,,61,48
19620,note_on,,1,0,7,,,,,,,,,,,,,,,,10,,61,48
19620,note_on,,1,0,10,,,,,,,,,,,,,,,,13,,49,48
19620,note_on,,1,0,9,,,,,,,,,,,,,,,,12,,61,48
19679,note_on,,59,0,7,,,,,,,,,,,,,,,,10,,61,0
19679,note_on,,59,0,10,,,,,,,,,,,,,,,,13,,49,0
19679,note_on,,59,0,8,,,,,,,,,,,,,,,,11,,61,0
19679,note_on,,59,0,11,,,,,,,,,,,,,,,,15,,49,0
19679,note_on,,59,0,6,,,,,,,,,,,,,,,,8,,49,0
19679,note_on,,59,0,5,,,,,,,,,,,,,,,,2,,49,0
19679,note_on,,59,0,9,,,,,,,,,,,,,,,,12,,61,0
19679,note_on,,0,0,11,,,,,,,,,,,,,,,,15,,61,0
19680,note_on,,1,0,7,,,,,,,,,,,,,,,,10,,65,48
19680,note_on,,1,0,11,,,,,,,,,,,,,,,,15,,53,48
19680,note_on,,1,0,8,,,,,,,,,,,,,,,,11,,65,48
19680,note_on,,1,0,6,,,,,,,,,,,,,,,,8,,53,71
19680,note_on,,1,0,9,,,,,,,,,,,,,,,,12,,65,48
19680,note_on,,0,0,11,,,,,,,,,,,,,,,,15,,65,48
19680,note_on,,1,0,10,,,,,,,,,,,,,,,,13,,53,48
19680,note_on,,1,0,5,,,,,,,,,,,,,,,,2,,53,48
19739,note_on,,59,0,7,,,,,,,,,,,,,,,,10,,65,0
19739,note_on,,59,0,11,,,,,,,,,,,,,,,,15,,53,0
19739,note_on,,59,0,5,,,,,,,,,,,,,,,,2,,53,0
19739,note_on,,59,0,8,,,,,,,,,,,,,,,,11,,65,0
19739,note_on,,59,0,6,,,,,,,,,,,,,,,,8,,53,0
19739,note_on,,0,0,11,,,,,,,,,,,,,,,,15,,65,0
19739,note_on,,59,0,9,,,,,,,,,,,,,,,,12,,65,0
19739,note_on,,59,0,10,,,,,,,,,,,,,,,,13,,53,0
19740,note_on,,1,0,5,,,,,,,,,,,,,,,,2,,54,48
19740,note_on,,1,0,11,,,,,,,,,,,,,,,,15,,66,48
19740,note_on,,0,0,11,,,,,,,,,,,,,,,,15,,54,48
19740,note_on,,1,0,9,,,,,,,,,,,,,,,,12,,66,48
19740,note_on,,1,0,8,,,,,,,,,,,,,,,,11,,66,48
19740,note_on,,1,0,10,,,,,,,,,,,,,,,,13,,54,48
19740,note_on,,1,0,6,,,,,,,,,,,,,,,,8,,54,74
19740,note_on,,1,0,7,,,,,,,,,,,,,,,,10,,66,48
19799,note_on,,59,0,10,,,,,,,,,,,,,,,,13,,54,0
19799,note_on,,59,0,5,,,,,,,,,,,,,,,,2,,54,0
19799,note_on,,59,0,6,,,,,,,,,,,,,,,,8,,54,0
19799,note_on,,59,0,8,,,,,,,,,,,,,,,,11,,66,0
19799,note_on,,59,0,7,,,,,,,,,,,,,,,,10,,66,0
19799,note_on,,59,0,11,,,,,,,,,,,,,,,,15,,66,0
19799,note_on,,0,0,11,,,,,,,,,,,,,,,,15,,54,0
19799,note_on,,59,0,9,,,,,,,,,,,,,,,,12,,66,0
19800,note_on,,1,0,8,,,,,,,,,,,,,,,,11,,61,48
19800,note_on,,1,0,7,,,,,,,,,,,,,,,,10,,61,48
19800,note_on,,1,0,5,,,,,,,,,,,,,,,,2,,49,48
19800,note_on,,0,0,11,,,,,,,,,,,,,,,,15,,49,48
19800,note_on,,1,0,6,,,,,,,,,,,,,,,,8,,49,68
19800,note_on,,1,0,10,,,,,,,,,,,,,,,,13,,49,48
19800,note_on,,1,0,11,,,,,,,,,,,,,,,,15,,61,48
19800,note_on,,1,0,9,,,,,,,,,,,,,,,,12,,61,48
19859,note_on,,59,0,10,,,,,,,,,,,,,,,,13,,49,0
19859,note_on,,59,0,8,,,,,,,,,,,,,,,,11,,61,0
19859,note_on,,59,0,5,,,,,,,,,,,,,,,,2,,49,0
19859,note_on,,59,0,9,,,,,,,,,,,,,,,,12,,61,0
19859,note_on,,59,0,7,,,,,,,,,,,,,,,,10,,61,0
19859,note_on,,59,0,6,,,,,,,,,,,,,,,,8,,49,0
19859,note_on,,59,0,11,,,,,,,,,,,,,,,,15,,61,0
19859,note_on,,0,0,11,,,,,,,,,,,,,,,,15,,49,0
19860,note_on,,1,0,5,,,,,,,,,,,,,,,,2,,47,48
19860,note_on,,0,0,11,,,,,,,,,,,,,,,,15,,59,48
19860,note_on,,1,0,11,,,,,,,,,,,,,,,,15,,47,48
19860,note_on,,1,0,6,,,,,,,,,,,,,,,,8,,47,71
19860,note_on,,1,0,7,,,,,,,,,,,,,,,,10,,59,48
19860,note_on,,1,0,9,,,,,,,,,,,,,,,,12,,59,48
19860,note_on,,1,0,8,,,,,,,,,,,,,,,,11,,59,48
19860,note_on,,1,0,10,,,,,,,,,,,,,,,,13,,47,48
19919,note_on,,59,0,10,,,,,,,,,,,,,,,,13,,47,0
19919,note_on,,59,0,8,,,,,,,,,,,,,,,,11,,59,0
19919,note_on,,59,0,6,,,,,,,,,,,,,,,,8,,47,0
19919,note_on,,59,0,5,,,,,,,,,,,,,,,,2,,47,0
19919,note_on,,59,0,11,,,,,,,,,,,,,,,,15,,47,0
19919,note_on,,59,0,7,,,,,,,,,,,,,,,,10,,59,0
19919,note_on,,59,0,9,,,,,,,,,,,,,,,,12,,59,0
19919,note_on,,0,0,11,,,,,,,,,,,,,,,,15,,59,0
19920,note_on,,1,0,6,,,,,,,,,,,,,,,,8,,56,73
19920,note_on,,1,0,10,,,,,,,,,,,,,,,,13,,56,48
19920,note_on,,1,0,11,,,,,,,,,,,,,,,,15,,56,48
19920,note_on,,0,0,11,,,,,,,,,,,,,,,,15,,68,48
19920,note_on,,1,0,7,,,,,,,,,,,,,,,,10,,68,48
19920,note_on,,1,0,8,,,,,,,,,,,,,,,,11,,68,48
19920,note_on,,1,0,9,,,,,,,,,,,,,,,,12,,68,48
19920,note_on,,1,0,5,,,,,,,,,,,,,,,,2,,56,48
19979,note_on,,59,0,7,,,,,,,,,,,,,,,,10,,68,0
19979,note_on,,59,0,10,,,,,,,,,,,,,,,,13,,56,0
19979,note_on,,59,0,9,,,,,,,,,,,,,,,,12,,68,0
19979,note_on,,59,0,8,,,,,,,,,,,,,,,,11,,68,0
19979,note_on,,59,0,5,,,,,,,,,,,,,,,,2,,56,0
19979,note_on,,59,0,11,,,,,,,,,,,,,,,,15,,56,0
19979,note_on,,0,0,11,,,,,,,,,,,,,,,,15,,68,0
19979,note_on,,59,0,6,,,,,,,,,,,,,,,,8,,56,0
19980,note_on,,1,0,8,,,,,,,,,,,,,,,,11,,69,48
19980,note_on,,1,0,9,,,,,,,,,,,,,,,,12,,69,48
19980,note_on,,1,0,5,,,,,,,,,,,,,,,,2,,57,48
19980,note_on,,1,0,10,,,,,,,,,,,,,,,,13,,57,48
19980,note_on,,1,0,11,,,,,,,,,,,,,,,,15,,69,48
19980,note_on,,1,0,7,,,,,,,,,,,,,,,,10,,69,48
19980,note_on,,0,0,11,,,,,,,,,,,,,,,,15,,57,48
19980,note_on,,1,0,6,,,,,,,,,,,,,,,,8,,57,70
20039,note_on,,59,0,5,,,,,,,,,,,,,,,,2,,57,0
20039,note_on,,59,0,10,,,,,,,,,,,,,,,,13,,57,0
20039,note_on,,59,0,7,,,,,,,,,,,,,,,,10,,69,0
20039,note_on,,59,0,6,,,,,,,,,,,,,,,,8,,57,0
20039,note_on,,59,0,11,,,,,,,,,,,,,,,,15,,69,0
20039,note_on,,0,0,11,,,,,,,,,,,,,,,,15,,57,0
20039,note_on,,59,0,9,,,,,,,,,,,,,,,,12,,69,0
20039,note_on,,59,0,8,,,,,,,,,,,,,,,,11,,69,0
20040,note_on,,1,0,6,,,,,,,,,,,,,,,,8,,53,73
20040,note_on,,1,0,11,,,,,,,,,,,,,,,,15,,53,48
20040,note_on,,0,0,11,,,,,,,,,,,,,,,,15,,65,48
20040,note_on,,1,0,8,,,,,,,,,,,,,,,,11,,65,48
20040,note_on,,1,0,5,,,,,,,,,,,,,,,,2,,53,48
20040,note_on,,1,0,10,,,,,,,,,,,,,,,,13,,53,48
20040,note_on,,1,0,9,,,,,,,,,,,,,,,,12,,65,48
20040,note_on,,1,0,7,,,,,,,,,,,,,,,,10,,65,48
20099,note_on,,59,0,7,,,,,,,,,,,,,,,,10,,65,0
20099,note_on,,59,0,6,,,,,,,,,,,,,,,,8,,53,0
20099,note_on,,59,0,10,,,,,,,,,,,,,,,,13,,53,0
20099,note_on,,59,0,9,,,,,,,,,,,,,,,,12,,65,0
20099,note_on,,59,0,11,,,,,,,,,,,,,,,,15,,53,0
20099,note_on,,59,0,5,,,,,,,,,,,,,,,,2,,53,0
20099,note_on,,59,0,8,,,,,,,,,,,,,,,,11,,65,0
20099,note_on,,0,0,11,,,,,,,,,,,,,,,,15,,65,0
20100,note_on,,1,0,7,,,,,,,,,,,,,,,,10,,66,48
20100,note_on,,0,0,11,,,,,,,,,,,,,,,,15,,66,48
20100,note_on,,1,0,10,,,,,,,,,,,,,,,,13,,54,48
20100,note_on,,1,0,5,,,,,,,,,,,,,,,,2,,54,48
20100,note_on,,1,0,11,,,,,,,,,,,,,,,,15,,54,48
20100,note_on,,1,0,6,,,,,,,,,,,,,,,,8,,54,69
20100,note_on,,1,0,8,,,,,,,,,,,,,,,,11,,66,48
20100,note_on,,1,0,9,,,,,,,,,,,,,,,,12,,66,48
20159,note_on,,59,0,8,,,,,,,,,,,,,,,,11,,66,0
20159,note_on,,59,0,5,,,,,,,,,,,,,,,,2,,54,0
20159,note_on,,59,0,7,,,,,,,,,,,,,,,,10,,66,0
20159,note_on,,59,0,10,,,,,,,,,,,,,,,,13,,54,0
20159,note_on,,59,0,9,,,,,,,,,,,,,,,,12,,66,0
20159,note_on,,59,0,6,,,,,,,,,,,,,,,,8,,54,0
20159,note_on,,59,0,11,,,,,,,,,,,,,,,,15,,54,0
20159,note_on,,0,0,11,,,,,,,,,,,,,,,,15,,66,0
20160,note_on,,1,0,7,,,,,,,,,,,,,,,,10,,70,48
20160,note_on,,1,0,6,,,,,,,,,,,,,,,,8,,58,69
20160,note_on,,0,0,11,,,,,,,,,,,,,,,,15,,58,48
20160,note_on,,1,0,11,,,,,,,,,,,,,,,,15,,70,48
20160,note_on,,1,0,9,,,,,,,,,,,,,,,,12,,70,48
20160,note_on,,1,0,5,,,,,,,,,,,,,,,,2,,58,48
20160,note_on,,1,0,8,,,,,,,,,,,,,,,,11,,70,48
20160,note_on,,1,0,10,,,,,,,,,,,,,,,,13,,58,48
20219,note_on,,59,0,9,,,,,,,,,,,,,,,,12,,70,0
20219,note_on,,59,0,11,,,,,,,,,,,,,,,,15,,70,0
20219,note_on,,0,0,11,,,,,,,,,,,,,,,,15,,58,0
20219,note_on,,59,0,6,,,,,,,,,,,,,,,,8,,58,0
20219,note_on,,59,0,7,,,,,,,,,,,,,,,,10,,70,0
20219,note_on,,59,0,5,,,,,,,,,,,,,,,,2,,58,0
20219,note_on,,59,0,10,,,,,,,,,,,,,,,,13,,58,0
20219,note_on,,59,0,8,,,,,,,,,,,,,,,,11,,70,0
20220,note_on,,0,0,11,,,,,,,,,,,,,,,,15,,59,48
20220,note_on,,1,0,9,,,,,,,,,,,,,,,,12,,71,48
20220,note_on,,1,0,11,,,,,,,,,,,,,,,,15,,71,48
20220,note_on,,1,0,8,,,,,,,,,,,,,,,,11,,71,48
20220,note_on,,1,0,5,,,,,,,,,,,,,,,,2,,59,48
20220,note_on,,1,0,10,,,,,,,,,,,,,,,,13,,59,48
20220,note_on,,1,0,6,,,,,,,,,,,,,,,,8,,59,71
20220,note_on,,1,0,7,,,,,,,,,,,,,,,,10,,71,48
20279,note_on,,59,0,7,,,,,,,,,,,,,,,,10,,71,0
20279,note_on,,59,0,8,,,,,,,,,,,,,,,,11,,71,0
20279,note_on,,59,0,5,,,,,,,,,,,,,,,,2,,59,0
20279,note_on,,59,0,10,,,,,,,,,,,,,,,,13,,59,0
20279,note_on,,59,0,9,,,,,,,,,,,,,,,,12,,71,0
20279,note_on,,59,0,11,,,,,,,,,,,,,,,,15,,71,0
20279,note_on,,0,0,11,,,,,,,,,,,,,,,,15,,59,0
20279,note_on,,59,0,6,,,,,,,,,,,,,,,,8,,59,0
20280,note_on,,1,0,8,,,,,,,,,,,,,,,,11,,66,48
20280,note_on,,1,0,9,,,,,,,,,,,,,,,,12,,66,48
20280,note_on,,1,0,6,,,,,,,,,,,,,,,,8,,54,69
20280,note_on,,1,0,10,,,,,,,,,,,,,,,,13,,54,48
20280,note_on,,0,0,11,,,,,,,,,,,,,,,,15,,54,48
20280,note_on,,1,0,7,,,,,,,,,,,,,,,,10,,66,48
20280,note_on,,1,0,11,,,,,,,,,,,,,,,,15,,66,48
20280,note_on,,1,0,5,,,,,,,,,,,,,,,,2,,54,48
20339,note_on,,59,0,8,,,,,,,,,,,,,,,,11,,66,0
20339,note_on,,59,0,11,,,,,,,,,,,,,,,,15,,66,0
20339,note_on,,0,0,11,,,,,,,,,,,,,,,,15,,54,0
20339,note_on,,59,0,7,,,,,,,,,,,,,,,,10,,66,0
20339,note_on,,59,0,10,,,,,,,,,,,,,,,,13,,54,0
20339,note_on,,59,0,9,,,,,,,,,,,,,,,,12,,66,0
20339,note_on,,59,0,6,,,,,,,,,,,,,,,,8,,54,0
20339,note_on,,59,0,5,,,,,,,,,,,,,,,,2,,54,0
20340,note_on,,1,0,10,,,,,,,,,,,,,,,,13,,52,48
20340,note_on,,1,0,9,,,,,,,,,,,,,,,,12,,64,48
20340,note_on,,1,0,8,,,,,,,,,,,,,,,,11,,64,48
20340,note_on,,1,0,11,,,,,,,,,,,,,,,,15,,64,48
20340,note_on,,1,0,6,,,,,,,,,,,,,,,,8,,52,75
20340,note_on,,1,0,5,,,,,,,,,,,,,,,,2,,52,48
20340,note_on,,0,0,11,,,,,,,,,,,,,,,,15,,52,48
20340,note_on,,1,0,7,,,,,,,,,,,,,,,,10,,64,48
20399,note_on,,59,0,11,,,,,,,,,,,,,,,,15,,64,0
20399,note_on,,0,0,11,,,,,,,,,,,,,,,,15,,52,0
20399,note_on,,59,0,5,,,,,,,,,,,,,,,,2,,52,0
20399,note_on,,59,0,6,,,,,,,,,,,,,,,,8,,52,0
20399,note_on,,59,0,8,,,,,,,,,,,,,,,,11,,64,0
20399,note_on,,59,0,7,,,,,,,,,,,,,,,,10,,64,0
20399,note_on,,59,0,9,,,,,,,,,,,,,,,,12,,64,0
20399,note_on,,59,0,10,,,,,,,,,,,,,,,,13,,52,0
20400,note_on,,1,0,8,,,,,,,,,,,,,,,,11,,73,48
20400,note_on,,0,0,11,,,,,,,,,,,,,,,,15,,73,48
20400,note_on,,1,0,9,,,,,,,,,,,,,,,,12,,73,48
20400,note_on,,1,0,7,,,,,,,,,,,,,,,,10,,73,48
20400,note_on,,1,0,11,,,,,,,,,,,,,,,,15,,61,48
20400,note_on,,1,0,6,,,,,,,,,,,,,,,,8,,61,75
20400,note_on,,1,0,10,,,,,,,,,,,,,,,,13,,61,48
20400,note_on,,1,0,5,,,,,,,,,,,,,,,,2,,61,48
20459,note_on,,59,0,8,,,,,,,,,,,,,,,,11,,73,0
20459,note_on,,59,0,9,,,,,,,,,,,,,,,,12,,73,0
20459,note_on,,59,0,7,,,,,,,,,,,,,,,,10,,73,0
20459,note_on,,59,0,11,,,,,,,,,,,,,,,,15,,61,0
20459,note_on,,0,0,11,,,,,,,,,,,,,,,,15,,73,0
20459,note_on,,59,0,5,,,,,,,,,,,,,,,,2,,61,0
20459,note_on,,59,0,10,,,,,,,,,,,,,,,,13,,61,0
20459,note_on,,59,0,6,,,,,,,,,,,,,,,,8,,61,0
20460,note_on,,1,0,7,,,,,,,,,,,,,,,,10,,74,48
20460,note_on,,1,0,6,,,,,,,,,,,,,,,,8,,62,74
20460,note_on,,1,0,8,,,,,,,,,,,,,,,,11,,74,48
20460,note_on,,1,0,5,,,,,,,,,,,,,,,,2,,62,48
20460,note_on,,1,0,10,,,,,,,,,,,,,,,,13,,62,48
20460,note_on,,1,0,11,,,,,,,,,,,,,,,,15,,74,48
20460,note_on,,1,0,9,,,,,,,,,,,,,,,,12,,74,48
20460,note_on,,0,0,11,,,,,,,,,,,,,,,,15,,62,48
20519,note_on,,59,0,11,,,,,,,,,,,,,,,,15,,74,0
20519,note_on,,59,0,9,,,,,,,,,,,,,,,,12,,74,0
20519,note_on,,59,0,8,,,,,,,,,,,,,,,,11,,74,0
20519,note_on,,59,0,10,,,,,,,,,,,,,,,,13,,62,0
20519,note_on,,59,0,7,,,,,,,,,,,,,,,,10,,74,0
20519,note_on,,59,0,6,,,,,,,,,,,,,,,,8,,62,0
20519,note_on,,0,0,11,,,,,,,,,,,,,,,,15,,62,0
20519,note_on,,59,0,5,,,,,,,,,,,,,,,,2,,62,0
20520,note_on,,1,0,5,,,,,,,,,,,,,,,,2,,58,48
20520,note_on,,1,0,10,,,,,,,,,,,,,,,,13,,58,48
20520,note_on,,1,0,7,,,,,,,,,,,,,,,,10,,70,48
20520,note_on,,1,0,11,,,,,,,,,,,,,,,,15,,70,48
20520,note_on,,0,0,11,,,,,,,,,,,,,,,,15,,58,48
20520,note_on,,1,0,8,,,,,,,,,,,,,,,,11,,70,48
20520,note_on,,1,0,9,,,,,,,,,,,,,,,,12,,70,48
20520,note_on,,1,0,6,,,,,,,,,,,,,,,,8,,58,69
20579,note_on,,59,0,11,,,,,,,,,,,,,,,,15,,70,0
20579,note_on,,0,0,11,,,,,,,,,,,,,,,,15,,58,0
20579,note_on,,59,0,5,,,,,,,,,,,,,,,,2,,58,0
20579,note_on,,59,0,9,,,,,,,,,,,,,,,,12,,70,0
20579,note_on,,59,0,10,,,,,,,,,,,,,,,,13,,58,0
20579,note_on,,59,0,7,,,,,,,,,,,,,,,,10,,70,0
20579,note_on,,59,0,6,,,,,,,,,,,,,,,,8,,58,0
20579,note_on,,59,0,8,,,,,,,,,,,,,,,,11,,70,0
20580,note_on,,1,0,5,,,,,,,,,,,,,,,,2,,59,48
20580,note_on,,1,0,10,,,,,,,,,,,,,,,,13,,59,48
20580,note_on,,1,0,9,,,,,,,,,,,,,,,,12,,71,48
20580,note_on,,1,0,7,,,,,,,,,,,,,,,,10,,71,48
20580,note_on,,1,0,8,,,,,,,,,,,,,,,,11,,71,48
20580,note_on,,1,0,11,,,,,,,,,,,,,,,,15,,71,48
20580,note_on,,0,0,11,,,,,,,,,,,,,,,,15,,59,48
20580,note_on,,1,0,6,,,,,,,,,,,,,,,,8,,59,72
20639,note_on,,0,0,11,,,,,,,,,,,,,,,,15,,59,0
20639,note_on,,59,0,11,,,,,,,,,,,,,,,,15,,71,0
20639,note_on,,59,0,6,,,,,,,,,,,,,,,,8,,59,0
20639,note_on,,59,0,5,,,,,,,,,,,,,,,,2,,59,0
20639,note_on,,59,0,9,,,,,,,,,,,,,,,,12,,71,0
20639,note_on,,59,0,8,,,,,,,,,,,,,,,,11,,71,0
20639,note_on,,59,0,10,,,,,,,,,,,,,,,,13,,59,0
20639,note_on,,59,0,7,,,,,,,,,,,,,,,,10,,71,0
20640,note_on,,1,0,9,,,,,,,,,,,,,,,,12,,62,48
20640,note_on,,0,0,11,,,,,,,,,,,,,,,,15,,50,48
20640,note_on,,1,0,11,,,,,,,,,,,,,,,,15,,62,48
20640,note_on,,1,0,5,,,,,,,,,,,,,,,,2,,50,48
20640,note_on,,1,0,7,,,,,,,,,,,,,,,,10,,62,48
20640,note_on,,1,0,10,,,,,,,,,,,,,,,,13,,50,48
20640,note_on,,1,0,6,,,,,,,,,,,,,,,,8,,50,75
20640,note_on,,1,0,8,,,,,,,,,,,,,,,,11,,62,48
20699,note_on,,59,0,7,,,,,,,,,,,,,,,,10,,62,0
20699,note_on,,59,0,8,,,,,,,,,,,,,,,,11,,62,0
20699,note_on,,59,0,6,,,,,,,,,,,,,,,,8,,50,0
20699,note_on,,59,0,5,,,,,,,,,,,,,,,,2,,50,0
20699,note_on,,59,0,9,,,,,,,,,,,,,,,,12,,62,0
20699,note_on,,59,0,10,,,,,,,,,,,,,,,,13,,50,0
20699,note_on,,0,0,11,,,,,,,,,,,,,,,,15,,50,0
20699,note_on,,59,0,11,,,,,,,,,,,,,,,,15,,62,0
20700,note_on,,1,0,7,,,,,,,,,,,,,,,,10,,55,48
20700,note_on,,1,0,10,,,,,,,,,,,,,,,,13,,43,48
20700,note_on,,1,0,9,,,,,,,,,,,,,,,,12,,55,48
20700,note_on,,1,0,11,,,,,,,,,,,,,,,,15,,55,48
20700,note_on,,0,0,11,,,,,,,,,,,,,,,,15,,43,48
20700,note_on,,1,0,5,,,,,,,,,,,,,,,,2,,43,48
20700,note_on,,1,0,8,,,,,,,,,,,,,,,,11,,55,48
20700,note_on,,1,0,6,,,,,,,,,,,,,,,,8,,55,71
20819,note_on,,119,0,6,,,,,,,,,,,,,,,,8,,55,0
20820,note_on,,120,0,11,,,,,,,,,,,,,,,,15,,52,48
20820,note_on,,0,0,11,,,,,,,,,,,,,,,,15,,59,48
20820,note_on,,0,0,11,,,,,,,,,,,,,,,,15,,64,48
20820,note_on,,1,0,6,,,,,,,,,,,,,,,,8,,55,74
20879,note_on,,179,0,8,,,,,,,,,,,,,,,,11,,55,0
20879,note_on,,179,0,7,,,,,,,,,,,,,,,,10,,55,0
20880,note_on,,1,0,8,,,,,,,,,,,,,,,,11,,67,48
20880,note_on,,1,0,7,,,,,,,,,,,,,,,,10,,67,48
20909,note_on,,89,0,6,,,,,,,,,,,,,,,,8,,55,0
20910,note_on,,1,0,6,,,,,,,,,,,,,,,,8,,54,68
20939,note_on,,0,0,11,,,,,,,,,,,,,,,,15,,52,0
20939,note_on,,0,0,11,,,,,,,,,,,,,,,,15,,64,0
20939,note_on,,0,0,11,,,,,,,,,,,,,,,,15,,59,0
20939,note_on,,29,0,6,,,,,,,,,,,,,,,,8,,54,0
20939,note_on,,239,0,9,,,,,,,,,,,,,,,,12,,55,0
20939,note_on,,59,0,8,,,,,,,,,,,,,,,,11,,67,0
20939,note_on,,59,0,7,,,,,,,,,,,,,,,,10,,67,0
20939,note_on,,239,0,5,,,,,,,,,,,,,,,,2,,43,0
20939,note_on,,239,0,10,,,,,,,,,,,,,,,,13,,43,0
20939,note_on,,0,0,11,,,,,,,,,,,,,,,,15,,43,0
20939,note_on,,119,0,11,,,,,,,,,,,,,,,,15,,55,0
20940,note_on,,1,0,5,,,,,,,,,,,,,,,,2,,42,48
20940,note_on,,1,0,9,,,,,,,,,,,,,,,,12,,54,48
20940,note_on,,1,0,10,,,,,,,,,,,,,,,,13,,42,48
20940,note_on,,1,0,7,,,,,,,,,,,,,,,,10,,66,48
20940,note_on,,1,0,8,,,,,,,,,,,,,,,,11,,66,48
20940,note_on,,0,0,11,,,,,,,,,,,,,,,,15,,49,48
20940,note_on,,0,0,11,,,,,,,,,,,,,,,,15,,61,48
20940,note_on,,0,0,11,,,,,,,,,,,,,,,,15,,42,48
20940,note_on,,1,0,6,,,,,,,,,,,,,,,,8,,54,70
20940,note_on,,0,0,11,,,,,,,,,,,,,,,,15,,66,48
20940,note_on,,1,0,11,,,,,,,,,,,,,,,,15,,58,48
20999,note_on,,59,0,8,,,,,,,,,,,,,,,,11,,66,0
20999,note_on,,59,0,7,,,,,,,,,,,,,,,,10,,66,0
21000,note_on,,1,0,8,,,,,,,,,,,,,,,,11,,71,48
21000,note_on,,1,0,7,,,,,,,,,,,,,,,,10,,71,48
21059,note_on,,59,0,8,,,,,,,,,,,,,,,,11,,71,0
21059,note_on,,59,0,7,,,,,,,,,,,,,,,,10,,71,0
21060,note_on,,1,0,8,,,,,,,,,,,,,,,,11,,70,48
21060,note_on,,1,0,7,,,,,,,,,,,,,,,,10,,70,48
21119,note_on,,59,0,7,,,,,,,,,,,,,,,,10,,70,0
21119,note_on,,59,0,8,,,,,,,,,,,,,,,,11,,70,0
21120,note_on,,1,0,7,,,,,,,,,,,,,,,,10,,76,48
21120,note_on,,1,0,8,,,,,,,,,,,,,,,,11,,76,48
21179,note_on,,0,0,11,,,,,,,,,,,,,,,,15,,66,0
21179,note_on,,0,0,11,,,,,,,,,,,,,,,,15,,61,0
21179,note_on,,0,0,11,,,,,,,,,,,,,,,,15,,49,0
21179,note_on,,239,0,11,,,,,,,,,,,,,,,,15,,58,0
21179,note_on,,59,0,8,,,,,,,,,,,,,,,,11,,76,0
21179,note_on,,59,0,7,,,,,,,,,,,,,,,,10,,76,0
21180,note_on,,1,0,8,,,,,,,,,,,,,,,,11,,74,48
21180,note_on,,1,0,7,,,,,,,,,,,,,,,,10,,74,48
21239,note_on,,59,0,7,,,,,,,,,,,,,,,,10,,74,0
21239,note_on,,59,0,8,,,,,,,,,,,,,,,,11,,74,0
21240,note_on,,1,0,8,,,,,,,,,,,,,,,,11,,79,48
21240,note_on,,1,0,7,,,,,,,,,,,,,,,,10,,79,48
21299,note_on,,59,0,8,,,,,,,,,,,,,,,,11,,79,0
21299,note_on,,59,0,7,,,,,,,,,,,,,,,,10,,79,0
21300,note_on,,1,0,8,,,,,,,,,,,,,,,,11,,78,48
21300,note_on,,1,0,7,,,,,,,,,,,,,,,,10,,78,48
21359,note_on,,59,0,8,,,,,,,,,,,,,,,,11,,78,0
21359,note_on,,59,0,7,,,,,,,,,,,,,,,,10,,78,0
21360,note_on,,1,0,7,,,,,,,,,,,,,,,,10,,77,48
21360,note_on,,1,0,8,,,,,,,,,,,,,,,,11,,77,48
21419,note_on,,59,0,8,,,,,,,,,,,,,,,,11,,77,0
21419,note_on,,59,0,7,,,,,,,,,,,,,,,,10,,77,0
21420,note_on,,1,0,8,,,,,,,,,,,,,,,,11,,78,48
21420,note_on,,1,0,7,,,,,,,,,,,,,,,,10,,78,48
21479,note_on,,59,0,8,,,,,,,,,,,,,,,,11,,78,0
21479,note_on,,59,0,7,,,,,,,,,,,,,,,,10,,78,0
21480,note_on,,1,0,8,,,,,,,,,,,,,,,,11,,75,48
21480,note_on,,1,0,7,,,,,,,,,,,,,,,,10,,75,48
21539,note_on,,59,0,7,,,,,,,,,,,,,,,,10,,75,0
21539,note_on,,59,0,8,,,,,,,,,,,,,,,,11,,75,0
21540,note_on,,1,0,8,,,,,,,,,,,,,,,,11,,76,48
21540,note_on,,1,0,7,,,,,,,,,,,,,,,,10,,76,48
21599,note_on,,59,0,7,,,,,,,,,,,,,,,,10,,76,0
21599,note_on,,59,0,8,,,,,,,,,,,,,,,,11,,76,0
21600,note_on,,1,0,7,,,,,,,,,,,,,,,,10,,70,48
21600,note_on,,1,0,8,,,,,,,,,,,,,,,,11,,70,48
21659,note_on,,59,0,7,,,,,,,,,,,,,,,,10,,70,0
21659,note_on,,719,0,6,,,,,,,,,,,,,,,,8,,54,0
21659,note_on,,59,0,8,,,,,,,,,,,,,,,,11,,70,0
21660,note_on,,1,0,7,,,,,,,,,,,,,,,,10,,71,48
21660,note_on,,1,0,8,,,,,,,,,,,,,,,,11,,71,48
21719,note_on,,59,0,7,,,,,,,,,,,,,,,,10,,71,0
21719,note_on,,59,0,8,,,,,,,,,,,,,,,,11,,71,0
21720,note_on,,1,0,8,,,,,,,,,,,,,,,,11,,74,48
21720,note_on,,1,0,7,,,,,,,,,,,,,,,,10,,74,48
21779,note_on,,59,0,8,,,,,,,,,,,,,,,,11,,74,0
21779,note_on,,59,0,7,,,,,,,,,,,,,,,,10,,74,0
21780,note_on,,1,0,7,,,,,,,,,,,,,,,,10,,73,48
21780,note_on,,1,0,8,,,,,,,,,,,,,,,,11,,73,48
21839,note_on,,59,0,7,,,,,,,,,,,,,,,,10,,73,0
21839,note_on,,59,0,8,,,,,,,,,,,,,,,,11,,73,0
21840,note_on,,1,0,8,,,,,,,,,,,,,,,,11,,65,48
21840,note_on,,1,0,7,,,,,,,,,,,,,,,,10,,65,48
21899,note_on,,59,0,8,,,,,,,,,,,,,,,,11,,65,0
21899,note_on,,59,0,7,,,,,,,,,,,,,,,,10,,65,0
21900,note_on,,1,0,8,,,,,,,,,,,,,,,,11,,66,48
21900,note_on,,1,0,7,,,,,,,,,,,,,,,,10,,66,48
21959,note_on,,780,0,11,,,,,,,,,,,,,,,,15,,42,0
21959,note_on,,1019,0,5,,,,,,,,,,,,,,,,2,,42,0
21959,note_on,,1019,0,10,,,,,,,,,,,,,,,,13,,42,0
21959,note_on,,1019,0,9,,,,,,,,,,,,,,,,12,,54,0
21960,note_on,,1,0,10,,,,,,,,,,,,,,,,13,,54,48
21960,note_on,,1,0,11,,,,,,,,,,,,,,,,15,,62,48
21960,note_on,,1,0,9,,,,,,,,,,,,,,,,12,,66,48
21960,note_on,,1,0,5,,,,,,,,,,,,,,,,2,,54,48
21960,note_on,,0,0,11,,,,,,,,,,,,,,,,15,,54,48
21960,note_on,,0,0,11,,,,,,,,,,,,,,,,15,,57,48
22019,note_on,,59,0,11,,,,,,,,,,,,,,,,15,,62,0
22019,note_on,,0,0,11,,,,,,,,,,,,,,,,15,,54,0
22019,note_on,,119,0,7,,,,,,,,,,,,,,,,10,,66,0
22019,note_on,,0,0,11,,,,,,,,,,,,,,,,15,,57,0
22019,note_on,,119,0,8,,,,,,,,,,,,,,,,11,,66,0
22019,note_on,,59,0,5,,,,,,,,,,,,,,,,2,,54,0
22019,note_on,,59,0,10,,,,,,,,,,,,,,,,13,,54,0
22019,note_on,,59,0,9,,,,,,,,,,,,,,,,12,,66,0
22020,note_on,,1,0,9,,,,,,,,,,,,,,,,12,,62,48
22020,note_on,,1,0,5,,,,,,,,,,,,,,,,2,,50,48
22020,note_on,,0,0,11,,,,,,,,,,,,,,,,15,,57,48
22020,note_on,,0,0,11,,,,,,,,,,,,,,,,15,,62,48
22020,note_on,,1,0,10,,,,,,,,,,,,,,,,13,,50,48
22020,note_on,,0,0,11,,,,,,,,,,,,,,,,15,,66,48
22020,note_on,,1,0,11,,,,,,,,,,,,,,,,15,,50,48
22079,note_on,,0,0,11,,,,,,,,,,,,,,,,15,,66,0
22079,note_on,,0,0,11,,,,,,,,,,,,,,,,15,,62,0
22079,note_on,,59,0,10,,,,,,,,,,,,,,,,13,,50,0
22079,note_on,,0,0,11,,,,,,,,,,,,,,,,15,,57,0
22079,note_on,,59,0,11,,,,,,,,,,,,,,,,15,,50,0
22079,note_on,,59,0,5,,,,,,,,,,,,,,,,2,,50,0
22079,note_on,,59,0,9,,,,,,,,,,,,,,,,12,,62,0
22080,note_on,,1,0,10,,,,,,,,,,,,,,,,13,,54,48
22080,note_on,,1,0,5,,,,,,,,,,,,,,,,2,,54,48
22080,note_on,,421,0,6,,,,,,,,,,,,,,,,8,,57,70
22080,note_on,,0,0,11,,,,,,,,,,,,,,,,15,,62,48
22080,note_on,,0,0,11,,,,,,,,,,,,,,,,15,,74,48
22080,note_on,,0,0,11,,,,,,,,,,,,,,,,15,,69,48
22080,note_on,,1,0,11,,,,,,,,,,,,,,,,15,,54,48
22080,note_on,,1,0,9,,,,,,,,,,,,,,,,12,,69,48
22080,note_on,,61,0,7,,,,,,,,,,,,,,,,10,,69,48
22080,note_on,,61,0,8,,,,,,,,,,,,,,,,11,,69,48
22139,note_on,,59,0,5,,,,,,,,,,,,,,,,2,,54,0
22139,note_on,,59,0,6,,,,,,,,,,,,,,,,8,,57,0
22139,note_on,,59,0,9,,,,,,,,,,,,,,,,12,,69,0
22139,note_on,,59,0,8,,,,,,,,,,,,,,,,11,,69,0
22139,note_on,,0,0,11,,,,,,,,,,,,,,,,15,,62,0
22139,note_on,,59,0,11,,,,,,,,,,,,,,,,15,,54,0
22139,note_on,,0,0,11,,,,,,,,,,,,,,,,15,,69,0
22139,note_on,,0,0,11,,,,,,,,,,,,,,,,15,,74,0
22139,note_on,,59,0,10,,,,,,,,,,,,,,,,13,,54,0
22139,note_on,,59,0,7,,,,,,,,,,,,,,,,10,,69,0
22140,note_on,,1,0,6,,,,,,,,,,,,,,,,8,,59,73
22140,note_on,,0,0,11,,,,,,,,,,,,,,,,15,,62,48
22140,note_on,,0,0,11,,,,,,,,,,,,,,,,15,,67,48
22140,note_on,,1,0,11,,,,,,,,,,,,,,,,15,,55,48
22140,note_on,,0,0,11,,,,,,,,,,,,,,,,15,,71,48
22140,note_on,,1,0,8,,,,,,,,,,,,,,,,11,,71,48
22140,note_on,,1,0,5,,,,,,,,,,,,,,,,2,,55,48
22140,note_on,,1,0,7,,,,,,,,,,,,,,,,10,,71,48
22140,note_on,,1,0,9,,,,,,,,,,,,,,,,12,,71,48
22140,note_on,,1,0,10,,,,,,,,,,,,,,,,13,,55,48
22199,note_on,,59,0,9,,,,,,,,,,,,,,,,12,,71,0
22199,note_on,,59,0,6,,,,,,,,,,,,,,,,8,,59,0
22199,note_on,,59,0,11,,,,,,,,,,,,,,,,15,,55,0
22199,note_on,,59,0,7,,,,,,,,,,,,,,,,10,,71,0
22199,note_on,,59,0,8,,,,,,,,,,,,,,,,11,,71,0
22199,note_on,,59,0,5,,,,,,,,,,,,,,,,2,,55,0
22199,note_on,,59,0,10,,,,,,,,,,,,,,,,13,,55,0
22200,note_on,,1,0,9,,,,,,,,,,,,,,,,12,,67,48
22200,note_on,,1,0,10,,,,,,,,,,,,,,,,13,,52,48
22200,note_on,,1,0,7,,,,,,,,,,,,,,,,10,,67,48
22200,note_on,,1,0,11,,,,,,,,,,,,,,,,15,,52,48
22200,note_on,,1,0,5,,,,,,,,,,,,,,,,2,,52,48
22200,note_on,,1,0,6,,,,,,,,,,,,,,,,8,,55,70
22200,note_on,,1,0,8,,,,,,,,,,,,,,,,11,,67,48
22259,note_on,,59,0,6,,,,,,,,,,,,,,,,8,,55,0
22259,note_on,,59,0,9,,,,,,,,,,,,,,,,12,,67,0
22259,note_on,,59,0,5,,,,,,,,,,,,,,,,2,,52,0
22259,note_on,,59,0,10,,,,,,,,,,,,,,,,13,,52,0
22259,note_on,,59,0,8,,,,,,,,,,,,,,,,11,,67,0
22259,note_on,,0,0,11,,,,,,,,,,,,,,,,15,,52,0
22259,note_on,,0,0,11,,,,,,,,,,,,,,,,15,,62,0
22259,note_on,,0,0,11,,,,,,,,,,,,,,,,15,,67,0
22259,note_on,,59,0,11,,,,,,,,,,,,,,,,15,,71,0
22259,note_on,,59,0,7,,,,,,,,,,,,,,,,10,,67,0
22260,note_on,,1,0,11,,,,,,,,,,,,,,,,15,,69,48
22260,note_on,,1,0,8,,,,,,,,,,,,,,,,11,,64,48
22260,note_on,,1,0,5,,,,,,,,,,,,,,,,2,,45,48
22260,note_on,,1,0,9,,,,,,,,,,,,,,,,12,,64,48
22260,note_on,,1,0,10,,,,,,,,,,,,,,,,13,,45,48
22260,note_on,,1,0,7,,,,,,,,,,,,,,,,10,,64,48
22260,note_on,,1,0,6,,,,,,,,,,,,,,,,8,,52,75
22260,note_on,,0,0,11,,,,,,,,,,,,,,,,15,,45,48
22260,note_on,,0,0,11,,,,,,,,,,,,,,,,15,,73,48
22260,note_on,,0,0,11,,,,,,,,,,,,,,,,15,,64,48
22319,note_on,,59,0,7,,,,,,,,,,,,,,,,10,,64,0
22319,note_on,,59,0,6,,,,,,,,,,,,,,,,8,,52,0
22319,note_on,,59,0,9,,,,,,,,,,,,,,,,12,,64,0
22319,note_on,,59,0,5,,,,,,,,,,,,,,,,2,,45,0
22319,note_on,,59,0,10,,,,,,,,,,,,,,,,13,,45,0
22319,note_on,,59,0,8,,,,,,,,,,,,,,,,11,,64,0
22319,note_on,,59,0,11,,,,,,,,,,,,,,,,15,,45,0
22320,note_on,,1,0,11,,,,,,,,,,,,,,,,15,,43,48
22320,note_on,,1,0,5,,,,,,,,,,,,,,,,2,,43,48
22320,note_on,,1,0,6,,,,,,,,,,,,,,,,8,,61,72
22320,note_on,,1,0,8,,,,,,,,,,,,,,,,11,,73,48
22320,note_on,,1,0,9,,,,,,,,,,,,,,,,12,,73,48
22320,note_on,,1,0,10,,,,,,,,,,,,,,,,13,,43,48
22320,note_on,,1,0,7,,,,,,,,,,,,,,,,10,,73,48
22379,note_on,,59,0,9,,,,,,,,,,,,,,,,12,,73,0
22379,note_on,,59,0,8,,,,,,,,,,,,,,,,11,,73,0
22379,note_on,,59,0,5,,,,,,,,,,,,,,,,2,,43,0
22379,note_on,,59,0,10,,,,,,,,,,,,,,,,13,,43,0
22379,note_on,,59,0,7,,,,,,,,,,,,,,,,10,,73,0
22379,note_on,,59,0,6,,,,,,,,,,,,,,,,8,,61,0
22379,note_on,,59,0,11,,,,,,,,,,,,,,,,15,,69,0
22379,note_on,,0,0,11,,,,,,,,,,,,,,,,15,,64,0
22379,note_on,,0,0,11,,,,,,,,,,,,,,,,15,,43,0
22379,note_on,,0,0,11,,,,,,,,,,,,,,,,15,,73,0
22380,note_on,,1,0,6,,,,,,,,,,,,,,,,8,,62,73
22380,note_on,,1,0,8,,,,,,,,,,,,,,,,11,,74,48
22380,note_on,,1,0,11,,,,,,,,,,,,,,,,15,,42,48
22380,note_on,,0,0,11,,,,,,,,,,,,,,,,15,,74,48
22380,note_on,,0,0,11,,,,,,,,,,,,,,,,15,,69,48
22380,note_on,,1,0,10,,,,,,,,,,,,,,,,13,,42,48
22380,note_on,,0,0,11,,,,,,,,,,,,,,,,15,,62,48
22380,note_on,,1,0,7,,,,,,,,,,,,,,,,10,,74,48
22380,note_on,,1,0,9,,,,,,,,,,,,,,,,12,,74,48
22380,note_on,,1,0,5,,,,,,,,,,,,,,,,2,,42,48
22439,note_on,,59,0,11,,,,,,,,,,,,,,,,15,,42,0
22439,note_on,,0,0,11,,,,,,,,,,,,,,,,15,,69,0
22439,note_on,,59,0,5,,,,,,,,,,,,,,,,2,,42,0
22439,note_on,,59,0,6,,,,,,,,,,,,,,,,8,,62,0
22439,note_on,,59,0,10,,,,,,,,,,,,,,,,13,,42,0
22440,note_on,,1,0,6,,,,,,,,,,,,,,,,8,,61,72
22440,note_on,,0,0,11,,,,,,,,,,,,,,,,15,,40,48
22440,note_on,,1,0,10,,,,,,,,,,,,,,,,13,,40,48
22440,note_on,,1,0,5,,,,,,,,,,,,,,,,2,,40,48
22440,note_on,,1,0,11,,,,,,,,,,,,,,,,15,,67,48
22469,note_on,,29,0,6,,,,,,,,,,,,,,,,8,,61,0
22470,note_on,,1,0,6,,,,,,,,,,,,,,,,8,,59,73
22499,note_on,,59,0,10,,,,,,,,,,,,,,,,13,,40,0
22499,note_on,,59,0,11,,,,,,,,,,,,,,,,15,,67,0
22499,note_on,,0,0,11,,,,,,,,,,,,,,,,15,,40,0
22499,note_on,,119,0,8,,,,,,,,,,,,,,,,11,,74,0
22499,note_on,,119,0,9,,,,,,,,,,,,,,,,12,,74,0
22499,note_on,,29,0,6,,,,,,,,,,,,,,,,8,,59,0
22499,note_on,,59,0,5,,,,,,,,,,,,,,,,2,,40,0
22499,note_on,,119,0,7,,,,,,,,,,,,,,,,10,,74,0
22500,note_on,,1,0,11,,,,,,,,,,,,,,,,15,,42,48
22500,note_on,,0,0,11,,,,,,,,,,,,,,,,15,,69,48
22500,note_on,,1,0,10,,,,,,,,,,,,,,,,13,,42,48
22500,note_on,,1,0,7,,,,,,,,,,,,,,,,10,,62,48
22500,note_on,,1,0,8,,,,,,,,,,,,,,,,11,,62,48
22500,note_on,,1,0,5,,,,,,,,,,,,,,,,2,,42,48
22500,note_on,,1,0,9,,,,,,,,,,,,,,,,12,,62,48
22500,note_on,,1,0,6,,,,,,,,,,,,,,,,8,,57,72
22559,note_on,,0,0,11,,,,,,,,,,,,,,,,15,,42,0
22559,note_on,,59,0,5,,,,,,,,,,,,,,,,2,,42,0
22559,note_on,,59,0,10,,,,,,,,,,,,,,,,13,,42,0
22559,note_on,,59,0,11,,,,,,,,,,,,,,,,15,,62,0
22559,note_on,,0,0,11,,,,,,,,,,,,,,,,15,,74,0
22559,note_on,,0,0,11,,,,,,,,,,,,,,,,15,,69,0
22559,note_on,,59,0,6,,,,,,,,,,,,,,,,8,,57,0
22560,note_on,,0,0,11,,,,,,,,,,,,,,,,15,,62,48
22560,note_on,,0,0,11,,,,,,,,,,,,,,,,15,,71,48
22560,note_on,,1,0,5,,,,,,,,,,,,,,,,2,,43,48
22560,note_on,,1,0,10,,,,,,,,,,,,,,,,13,,43,48
22560,note_on,,0,0,11,,,,,,,,,,,,,,,,15,,67,48
22560,note_on,,1,0,11,,,,,,,,,,,,,,,,15,,43,48
22560,note_on,,1,0,6,,,,,,,,,,,,,,,,8,,55,70
22619,note_on,,59,0,10,,,,,,,,,,,,,,,,13,,43,0
22619,note_on,,59,0,11,,,,,,,,,,,,,,,,15,,43,0
22619,note_on,,0,0,11,,,,,,,,,,,,,,,,15,,62,0
22619,note_on,,59,0,5,,,,,,,,,,,,,,,,2,,43,0
22619,note_on,,0,0,11,,,,,,,,,,,,,,,,15,,71,0
22619,note_on,,0,0,11,,,,,,,,,,,,,,,,15,,67,0
22619,note_on,,59,0,6,,,,,,,,,,,,,,,,8,,55,0
22620,note_on,,0,0,11,,,,,,,,,,,,,,,,15,,45,48
22620,note_on,,0,0,11,,,,,,,,,,,,,,,,15,,57,48
22620,note_on,,0,0,11,,,,,,,,,,,,,,,,15,,62,48
22620,note_on,,0,0,11,,,,,,,,,,,,,,,,15,,69,48
22620,note_on,,1,0,10,,,,,,,,,,,,,,,,13,,45,48
22620,note_on,,1,0,6,,,,,,,,,,,,,,,,8,,54,75
22620,note_on,,1,0,11,,,,,,,,,,,,,,,,15,,66,48
22620,note_on,,1,0,5,,,,,,,,,,,,,,,,2,,45,48
22679,note_on,,59,0,5,,,,,,,,,,,,,,,,2,,45,0
22679,note_on,,59,0,11,,,,,,,,,,,,,,,,15,,45,0
22679,note_on,,59,0,10,,,,,,,,,,,,,,,,13,,45,0
22680,note_on,,1,0,11,,,,,,,,,,,,,,,,15,,43,48
22680,note_on,,1,0,10,,,,,,,,,,,,,,,,13,,43,48
22680,note_on,,1,0,5,,,,,,,,,,,,,,,,2,,43,48
22739,note_on,,239,0,8,,,,,,,,,,,,,,,,11,,62,0
22739,note_on,,0,0,11,,,,,,,,,,,,,,,,15,,43,0
22739,note_on,,239,0,9,,,,,,,,,,,,,,,,12,,62,0
22739,note_on,,239,0,7,,,,,,,,,,,,,,,,10,,62,0
22739,note_on,,0,0,11,,,,,,,,,,,,,,,,15,,62,0
22739,note_on,,59,0,11,,,,,,,,,,,,,,,,15,,66,0
22739,note_on,,59,0,10,,,,,,,,,,,,,,,,13,,43,0
22739,note_on,,119,0,6,,,,,,,,,,,,,,,,8,,54,0
22739,note_on,,59,0,5,,,,,,,,,,,,,,,,2,,43,0
22740,note_on,,1,0,5,,,,,,,,,,,,,,,,2,,45,48
22740,note_on,,1,0,10,,,,,,,,,,,,,,,,13,,45,48
22740,note_on,,1,0,7,,,,,,,,,,,,,,,,10,,61,48
22740,note_on,,0,0,11,,,,,,,,,,,,,,,,15,,61,48
22740,note_on,,0,0,11,,,,,,,,,,,,,,,,15,,64,48
22740,note_on,,1,0,6,,,,,,,,,,,,,,,,8,,52,75
22740,note_on,,1,0,9,,,,,,,,,,,,,,,,12,,61,48
22740,note_on,,1,0,11,,,,,,,,,,,,,,,,15,,45,48
22740,note_on,,1,0,8,,,,,,,,,,,,,,,,11,,61,48
22754,note_on,,14,0,6,,,,,,,,,,,,,,,,8,,52,0
22755,note_on,,1,0,6,,,,,,,,,,,,,,,,8,,54,68
22769,note_on,,14,0,6,,,,,,,,,,,,,,,,8,,54,0
22770,note_on,,1,0,6,,,,,,,,,,,,,,,,8,,52,74
22784,note_on,,14,0,6,,,,,,,,,,,,,,,,8,,52,0
22785,note_on,,1,0,6,,,,,,,,,,,,,,,,8,,54,69
22799,note_on,,14,0,6,,,,,,,,,,,,,,,,8,,54,0
22800,note_on,,1,0,6,,,,,,,,,,,,,,,,8,,52,71
22814,note_on,,14,0,6,,,,,,,,,,,,,,,,8,,52,0
22815,note_on,,1,0,6,,,,,,,,,,,,,,,,8,,54,69
22829,note_on,,14,0,6,,,,,,,,,,,,,,,,8,,54,0
22830,note_on,,1,0,6,,,,,,,,,,,,,,,,8,,54,73
22859,note_on,,0,0,11,,,,,,,,,,,,,,,,15,,61,0
22859,note_on,,119,0,10,,,,,,,,,,,,,,,,13,,45,0
22859,note_on,,0,0,11,,,,,,,,,,,,,,,,15,,64,0
22859,note_on,,119,0,9,,,,,,,,,,,,,,,,12,,61,0
22859,note_on,,119,0,5,,,,,,,,,,,,,,,,2,,45,0
22859,note_on,,119,0,11,,,,,,,,,,,,,,,,15,,57,0
22859,note_on,,0,0,11,,,,,,,,,,,,,,,,15,,69,0
22859,note_on,,119,0,8,,,,,,,,,,,,,,,,11,,61,0
22859,note_on,,29,0,6,,,,,,,,,,,,,,,,8,,54,0
22859,note_on,,119,0,7,,,,,,,,,,,,,,,,10,,61,0
22859,note_on,,0,0,11,,,,,,,,,,,,,,,,15,,45,0
22860,note_on,,0,0,11,,,,,,,,,,,,,,,,15,,57,48
22860,note_on,,1,0,7,,,,,,,,,,,,,,,,10,,62,48
22860,note_on,,1,0,11,,,,,,,,,,,,,,,,15,,66,48
22860,note_on,,0,0,11,,,,,,,,,,,,,,,,15,,50,48
22860,note_on,,1,0,6,,,,,,,,,,,,,,,,8,,54,73
22860,note_on,,1,0,10,,,,,,,,,,,,,,,,13,,50,48
22860,note_on,,1,0,5,,,,,,,,,,,,,,,,2,,50,48
22860,note_on,,1,0,9,,,,,,,,,,,,,,,,12,,62,48
22860,note_on,,1,0,8,,,,,,,,,,,,,,,,11,,62,48
22860,note_on,,0,0,11,,,,,,,,,,,,,,,,15,,62,48
22979,note_on,,119,0,6,,,,,,,,,,,,,,,,8,,54,0
22979,note_on,,0,0,11,,,,,,,,,,,,,,,,15,,50,0
22979,note_on,,0,0,11,,,,,,,,,,,,,,,,15,,62,0
22979,note_on,,119,0,11,,,,,,,,,,,,,,,,15,,66,0
22979,note_on,,119,0,10,,,,,,,,,,,,,,,,13,,50,0
22979,note_on,,119,0,8,,,,,,,,,,,,,,,,11,,62,0
22979,note_on,,0,0,11,,,,,,,,,,,,,,,,15,,57,0
22979,note_on,,119,0,7,,,,,,,,,,,,,,,,10,,62,0
22979,note_on,,119,0,9,,,,,,,,,,,,,,,,12,,62,0
22979,note_on,,119,0,5,,,,,,,,,,,,,,,,2,,50,0
23040,note_on,,61,0,10,,,,,,,,,,,,,,,,13,,50,72
23040,note_on,,61,0,9,,,,,,,,,,,,,,,,12,,59,72
23040,note_on,,61,0,8,,,,,,,,,,,,,,,,11,,78,72
23040,note_on,,61,0,11,,,,,,,,,,,,,,,,15,,50,72
23040,note_on,,61,0,7,,,,,,,,,,,,,,,,10,,78,72
23040,note_on,,61,0,5,,,,,,,,,,,,,,,,2,,50,72
23040,note_on,,0,0,11,,,,,,,,,,,,,,,,15,,66,72
23040,note_on,,0,0,11,,,,,,,,,,,,,,,,15,,71,72
23040,note_on,,0,0,11,,,,,,,,,,,,,,,,15,,62,72
23099,note_on,,59,0,9,,,,,,,,,,,,,,,,12,,59,0
23099,note_on,,59,0,8,,,,,,,,,,,,,,,,11,,78,0
23099,note_on,,59,0,7,,,,,,,,,,,,,,,,10,,78,0
23099,note_on,,0,0,11,,,,,,,,,,,,,,,,15,,71,0
23099,note_on,,59,0,10,,,,,,,,,,,,,,,,13,,50,0
23099,note_on,,0,0,11,,,,,,,,,,,,,,,,15,,66,0
23099,note_on,,59,0,5,,,,,,,,,,,,,,,,2,,50,0
23099,note_on,,59,0,11,,,,,,,,,,,,,,,,15,,50,0
23099,note_on,,0,0,11,,,,,,,,,,,,,,,,15,,62,0
23100,note_on,,1,0,11,,,,,,,,,,,,,,,,15,,74,72
23100,note_on,,0,0,11,,,,,,,,,,,,,,,,15,,66,72
23100,note_on,,1,0,7,,,,,,,,,,,,,,,,10,,83,72
23100,note_on,,1,0,8,,,,,,,,,,,,,,,,11,,83,72
23100,note_on,,0,0,11,,,,,,,,,,,,,,,,15,,71,72
23100,note_on,,1,0,9,,,,,,,,,,,,,,,,12,,74,72
23100,note_on,,1,0,5,,,,,,,,,,,,,,,,2,,62,72
23100,note_on,,1,0,10,,,,,,,,,,,,,,,,13,,62,72
23100,note_on,,0,0,11,,,,,,,,,,,,,,,,15,,62,72
23159,note_on,,59,0,7,,,,,,,,,,,,,,,,10,,83,0
23159,note_on,,59,0,8,,,,,,,,,,,,,,,,11,,83,0
23160,note_on,,1,0,8,,,,,,,,,,,,,,,,11,,82,72
23160,note_on,,1,0,7,,,,,,,,,,,,,,,,10,,82,72
23219,note_on,,119,0,11,,,,,,,,,,,,,,,,15,,71,0
23219,note_on,,119,0,9,,,,,,,,,,,,,,,,12,,74,0
23219,note_on,,119,0,10,,,,,,,,,,,,,,,,13,,62,0
23219,note_on,,59,0,7,,,,,,,,,,,,,,,,10,,82,0
23219,note_on,,119,0,5,,,,,,,,,,,,,,,,2,,62,0
23219,note_on,,0,0,11,,,,,,,,,,,,,,,,15,,62,0
23219,note_on,,59,0,8,,,,,,,,,,,,,,,,11,,82,0
23219,note_on,,0,0,11,,,,,,,,,,,,,,,,15,,66,0
23220,note_on,,1,0,7,,,,,,,,,,,,,,,,10,,83,72
23220,note_on,,1,0,9,,,,,,,,,,,,,,,,12,,73,72
23220,note_on,,1,0,5,,,,,,,,,,,,,,,,2,,61,72
23220,note_on,,1,0,10,,,,,,,,,,,,,,,,13,,61,72
23220,note_on,,1,0,11,,,,,,,,,,,,,,,,15,,70,72
23220,note_on,,0,0,11,,,,,,,,,,,,,,,,15,,64,72
23220,note_on,,0,0,11,,,,,,,,,,,,,,,,15,,61,72
23220,note_on,,1,0,8,,,,,,,,,,,,,,,,11,,83,72
23279,note_on,,59,0,8,,,,,,,,,,,,,,,,11,,83,0
23279,note_on,,59,0,7,,,,,,,,,,,,,,,,10,,83,0
23280,note_on,,1,0,8,,,,,,,,,,,,,,,,11,,82,72
23280,note_on,,1,0,7,,,,,,,,,,,,,,,,10,,82,72
23339,note_on,,59,0,7,,,,,,,,,,,,,,,,10,,82,0
23339,note_on,,119,0,5,,,,,,,,,,,,,,,,2,,61,0
23339,note_on,,119,0,11,,,,,,,,,,,,,,,,15,,74,0
23339,note_on,,0,0,11,,,,,,,,,,,,,,,,15,,70,0
23339,note_on,,0,0,11,,,,,,,,,,,,,,,,15,,64,0
23339,note_on,,0,0,11,,,,,,,,,,,,,,,,15,,61,0
23339,note_on,,119,0,10,,,,,,,,,,,,,,,,13,,61,0
23339,note_on,,59,0,8,,,,,,,,,,,,,,,,11,,82,0
23339,note_on,,119,0,9,,,,,,,,,,,,,,,,12,,73,0
23340,note_on,,1,0,7,,,,,,,,,,,,,,,,10,,83,72
23340,note_on,,1,0,8,,,,,,,,,,,,,,,,11,,83,72
23340,note_on,,1,0,11,,,,,,,,,,,,,,,,15,,78,72
23340,note_on,,1,0,5,,,,,,,,,,,,,,,,2,,59,72
23340,note_on,,0,0,11,,,,,,,,,,,,,,,,15,,66,72
23340,note_on,,0,0,11,,,,,,,,,,,,,,,,15,,74,72
23340,note_on,,0,0,11,,,,,,,,,,,,,,,,15,,59,72
23340,note_on,,0,0,11,,,,,,,,,,,,,,,,15,,62,72
23340,note_on,,0,0,11,,,,,,,,,,,,,,,,15,,71,72
23340,note_on,,1,0,10,,,,,,,,,,,,,,,,13,,59,72
23340,note_on,,1,0,9,,,,,,,,,,,,,,,,12,,71,72
23399,note_on,,59,0,8,,,,,,,,,,,,,,,,11,,83,0
23399,note_on,,59,0,7,,,,,,,,,,,,,,,,10,,83,0
23400,note_on,,1,0,8,,,,,,,,,,,,,,,,11,,85,72
23400,note_on,,1,0,7,,,,,,,,,,,,,,,,10,,85,72
23459,note_on,,119,0,11,,,,,,,,,,,,,,,,15,,78,0
23459,note_on,,59,0,8,,,,,,,,,,,,,,,,11,,85,0
23459,note_on,,0,0,11,,,,,,,,,,,,,,,,15,,66,0
23459,note_on,,119,0,9,,,,,,,,,,,,,,,,12,,71,0
23459,note_on,,119,0,10,,,,,,,,,,,,,,,,13,,59,0
23459,note_on,,119,0,5,,,,,,,,,,,,,,,,2,,59,0
23459,note_on,,0,0,11,,,,,,,,,,,,,,,,15,,59,0
23459,note_on,,0,0,11,,,,,,,,,,,,,,,,15,,62,0
23459,note_on,,0,0,11,,,,,,,,,,,,,,,,15,,71,0
23459,note_on,,59,0,7,,,,,,,,,,,,,,,,10,,85,0
23459,note_on,,0,0,11,,,,,,,,,,,,,,,,15,,74,0
23460,note_on,,1,0,8,,,,,,,,,,,,,,,,11,,86,72
23460,note_on,,1,0,7,,,,,,,,,,,,,,,,10,,86,72
23519,note_on,,59,0,7,,,,,,,,,,,,,,,,10,,86,0
23519,note_on,,59,0,8,,,,,,,,,,,,,,,,11,,86,0
23520,note_on,,61,0,11,,,,,,,,,,,,,,,,15,,66,48
23520,note_on,,0,0,11,,,,,,,,,,,,,,,,15,,54,48
23520,note_on,,541,0,6,,,,,,,,,,,,,,,,8,,54,73
23520,note_on,,61,0,5,,,,,,,,,,,,,,,,2,,54,48
23520,note_on,,61,0,9,,,,,,,,,,,,,,,,12,,66,48
23520,note_on,,1,0,8,,,,,,,,,,,,,,,,11,,66,48
23520,note_on,,1,0,7,,,,,,,,,,,,,,,,10,,66,48
23520,note_on,,61,0,10,,,,,,,,,,,,,,,,13,,54,48
23579,note_on,,59,0,11,,,,,,,,,,,,,,,,15,,66,0
23579,note_on,,59,0,10,,,,,,,,,,,,,,,,13,,54,0
23579,note_on,,59,0,6,,,,,,,,,,,,,,,,8,,54,0
23579,note_on,,59,0,5,,,,,,,,,,,,,,,,2,,54,0
23579,note_on,,59,0,7,,,,,,,,,,,,,,,,10,,66,0
23579,note_on,,59,0,9,,,,,,,,,,,,,,,,12,,66,0
23579,note_on,,59,0,8,,,,,,,,,,,,,,,,11,,66,0
23579,note_on,,0,0,11,,,,,,,,,,,,,,,,15,,54,0
23580,note_on,,1,0,6,,,,,,,,,,,,,,,,8,,59,74
23580,note_on,,0,0,11,,,,,,,,,,,,,,,,15,,71,48
23580,note_on,,1,0,11,,,,,,,,,,,,,,,,15,,59,48
23580,note_on,,1,0,5,,,,,,,,,,,,,,,,2,,59,48
23580,note_on,,1,0,8,,,,,,,,,,,,,,,,11,,71,48
23580,note_on,,1,0,7,,,,,,,,,,,,,,,,10,,71,48
23580,note_on,,1,0,10,,,,,,,,,,,,,,,,13,,59,48
23580,note_on,,1,0,9,,,,,,,,,,,,,,,,12,,71,48
23639,note_on,,59,0,11,,,,,,,,,,,,,,,,15,,59,0
23639,note_on,,59,0,8,,,,,,,,,,,,,,,,11,,71,0
23639,note_on,,59,0,6,,,,,,,,,,,,,,,,8,,59,0
23639,note_on,,59,0,5,,,,,,,,,,,,,,,,2,,59,0
23639,note_on,,59,0,9,,,,,,,,,,,,,,,,12,,71,0
23639,note_on,,0,0,11,,,,,,,,,,,,,,,,15,,71,0
23639,note_on,,59,0,10,,,,,,,,,,,,,,,,13,,59,0
23639,note_on,,59,0,7,,,,,,,,,,,,,,,,10,,71,0
23640,note_on,,1,0,11,,,,,,,,,,,,,,,,15,,70,48
23640,note_on,,0,0,11,,,,,,,,,,,,,,,,15,,58,48
23640,note_on,,1,0,5,,,,,,,,,,,,,,,,2,,58,48
23640,note_on,,1,0,9,,,,,,,,,,,,,,,,12,,70,48
23640,note_on,,1,0,8,,,,,,,,,,,,,,,,11,,70,48
23640,note_on,,1,0,10,,,,,,,,,,,,,,,,13,,58,48
23640,note_on,,1,0,6,,,,,,,,,,,,,,,,8,,58,75
23640,note_on,,1,0,7,,,,,,,,,,,,,,,,10,,70,48
23699,note_on,,0,0,11,,,,,,,,,,,,,,,,15,,58,0
23699,note_on,,59,0,11,,,,,,,,,,,,,,,,15,,70,0
23699,note_on,,59,0,5,,,,,,,,,,,,,,,,2,,58,0
23699,note_on,,59,0,7,,,,,,,,,,,,,,,,10,,70,0
23699,note_on,,59,0,9,,,,,,,,,,,,,,,,12,,70,0
23699,note_on,,59,0,6,,,,,,,,,,,,,,,,8,,58,0
23699,note_on,,59,0,8,,,,,,,,,,,,,,,,11,,70,0
23699,note_on,,59,0,10,,,,,,,,,,,,,,,,13,,58,0
23700,note_on,,1,0,6,,,,,,,,,,,,,,,,8,,59,73
23700,note_on,,1,0,7,,,,,,,,,,,,,,,,10,,71,48
23700,note_on,,1,0,8,,,,,,,,,,,,,,,,11,,71,48
23700,note_on,,0,0,11,,,,,,,,,,,,,,,,15,,71,48
23700,note_on,,1,0,5,,,,,,,,,,,,,,,,2,,59,48
23700,note_on,,1,0,11,,,,,,,,,,,,,,,,15,,59,48
23700,note_on,,1,0,9,,,,,,,,,,,,,,,,12,,71,48
23700,note_on,,1,0,10,,,,,,,,,,,,,,,,13,,59,48
23759,note_on,,0,0,11,,,,,,,,,,,,,,,,15,,71,0
23759,note_on,,59,0,11,,,,,,,,,,,,,,,,15,,59,0
23759,note_on,,59,0,10,,,,,,,,,,,,,,,,13,,59,0
23759,note_on,,59,0,9,,,,,,,,,,,,,,,,12,,71,0
23759,note_on,,59,0,7,,,,,,,,,,,,,,,,10,,71,0
23759,note_on,,59,0,6,,,,,,,,,,,,,,,,8,,59,0
23759,note_on,,59,0,5,,,,,,,,,,,,,,,,2,,59,0
23759,note_on,,59,0,8,,,,,,,,,,,,,,,,11,,71,0
23760,note_on,,1,0,5,,,,,,,,,,,,,,,,2,,58,48
23760,note_on,,1,0,8,,,,,,,,,,,,,,,,11,,70,48
23760,note_on,,1,0,11,,,,,,,,,,,,,,,,15,,70,48
23760,note_on,,1,0,7,,,,,,,,,,,,,,,,10,,70,48
23760,note_on,,0,0,11,,,,,,,,,,,,,,,,15,,58,48
23760,note_on,,1,0,9,,,,,,,,,,,,,,,,12,,70,48
23760,note_on,,1,0,6,,,,,,,,,,,,,,,,8,,58,74
23760,note_on,,1,0,10,,,,,,,,,,,,,,,,13,,58,48
23819,note_on,,0,0,11,,,,,,,,,,,,,,,,15,,58,0
23819,note_on,,59,0,9,,,,,,,,,,,,,,,,12,,70,0
23819,note_on,,59,0,11,,,,,,,,,,,,,,,,15,,70,0
23819,note_on,,59,0,10,,,,,,,,,,,,,,,,13,,58,0
23819,note_on,,59,0,8,,,,,,,,,,,,,,,,11,,70,0
23819,note_on,,59,0,5,,,,,,,,,,,,,,,,2,,58,0
23819,note_on,,59,0,7,,,,,,,,,,,,,,,,10,,70,0
23819,note_on,,59,0,6,,,,,,,,,,,,,,,,8,,58,0
23820,note_on,,1,0,5,,,,,,,,,,,,,,,,2,,59,48
23820,note_on,,1,0,7,,,,,,,,,,,,,,,,10,,71,48
23820,note_on,,1,0,10,,,,,,,,,,,,,,,,13,,59,48
23820,note_on,,1,0,11,,,,,,,,,,,,,,,,15,,59,48
23820,note_on,,0,0,11,,,,,,,,,,,,,,,,15,,71,48
23820,note_on,,1,0,9,,,,,,,,,,,,,,,,12,,71,48
23820,note_on,,1,0,8,,,,,,,,,,,,,,,,11,,71,48
23820,note_on,,1,0,6,,,,,,,,,,,,,,,,8,,59,75
23879,note_on,,59,0,6,,,,,,,,,,,,,,,,8,,59,0
23879,note_on,,59,0,9,,,,,,,,,,,,,,,,12,,71,0
23879,note_on,,59,0,11,,,,,,,,,,,,,,,,15,,59,0
23879,note_on,,0,0,11,,,,,,,,,,,,,,,,15,,71,0
23879,note_on,,59,0,7,,,,,,,,,,,,,,,,10,,71,0
23879,note_on,,59,0,8,,,,,,,,,,,,,,,,11,,71,0
23879,note_on,,59,0,10,,,,,,,,,,,,,,,,13,,59,0
23879,note_on,,59,0,5,,,,,,,,,,,,,,,,2,,59,0
23880,note_on,,1,0,6,,,,,,,,,,,,,,,,8,,61,75
23880,note_on,,1,0,10,,,,,,,,,,,,,,,,13,,61,48
23880,note_on,,1,0,8,,,,,,,,,,,,,,,,11,,73,48
23880,note_on,,1,0,9,,,,,,,,,,,,,,,,12,,73,48
23880,note_on,,1,0,5,,,,,,,,,,,,,,,,2,,61,48
23880,note_on,,0,0,11,,,,,,,,,,,,,,,,15,,61,48
23880,note_on,,1,0,7,,,,,,,,,,,,,,,,10,,73,48
23880,note_on,,1,0,11,,,,,,,,,,,,,,,,15,,73,48
23939,note_on,,59,0,7,,,,,,,,,,,,,,,,10,,73,0
23939,note_on,,59,0,11,,,,,,,,,,,,,,,,15,,73,0
23939,note_on,,59,0,8,,,,,,,,,,,,,,,,11,,73,0
23939,note_on,,59,0,5,,,,,,,,,,,,,,,,2,,61,0
23939,note_on,,59,0,10,,,,,,,,,,,,,,,,13,,61,0
23939,note_on,,0,0,11,,,,,,,,,,,,,,,,15,,61,0
23939,note_on,,59,0,6,,,,,,,,,,,,,,,,8,,61,0
23939,note_on,,59,0,9,,,,,,,,,,,,,,,,12,,73,0
23940,note_on,,1,0,7,,,,,,,,,,,,,,,,10,,74,48
23940,note_on,,1,0,9,,,,,,,,,,,,,,,,12,,74,48
23940,note_on,,1,0,5,,,,,,,,,,,,,,,,2,,62,48
23940,note_on,,1,0,10,,,,,,,,,,,,,,,,13,,62,48
23940,note_on,,1,0,6,,,,,,,,,,,,,,,,8,,62,68
23940,note_on,,0,0,11,,,,,,,,,,,,,,,,15,,62,48
23940,note_on,,1,0,11,,,,,,,,,,,,,,,,15,,74,48
23940,note_on,,1,0,8,,,,,,,,,,,,,,,,11,,74,48
23999,note_on,,59,0,11,,,,,,,,,,,,,,,,15,,74,0
23999,note_on,,59,0,9,,,,,,,,,,,,,,,,12,,74,0
23999,note_on,,59,0,5,,,,,,,,,,,,,,,,2,,62,0
23999,note_on,,59,0,7,,,,,,,,,,,,,,,,10,,74,0
23999,note_on,,59,0,6,,,,,,,,,,,,,,,,8,,62,0
23999,note_on,,59,0,10,,,,,,,,,,,,,,,,13,,62,0
23999,note_on,,0,0,11,,,,,,,,,,,,,,,,15,,62,0
23999,note_on,,59,0,8,,,,,,,,,,,,,,,,11,,74,0
24000,note_on,,1,0,5,,,,,,,,,,,,,,,,2,,58,48
24000,note_on,,1,0,6,,,,,,,,,,,,,,,,8,,58,68
24000,note_on,,1,0,7,,,,,,,,,,,,,,,,10,,70,48
24000,note_on,,1,0,9,,,,,,,,,,,,,,,,12,,70,48
24000,note_on,,0,0,11,,,,,,,,,,,,,,,,15,,70,48
24000,note_on,,1,0,11,,,,,,,,,,,,,,,,15,,58,48
24000,note_on,,1,0,8,,,,,,,,,,,,,,,,11,,70,48
24000,note_on,,1,0,10,,,,,,,,,,,,,,,,13,,58,48
24059,note_on,,59,0,8,,,,,,,,,,,,,,,,11,,70,0
24059,note_on,,0,0,11,,,,,,,,,,,,,,,,15,,70,0
24059,note_on,,59,0,11,,,,,,,,,,,,,,,,15,,58,0
24059,note_on,,59,0,10,,,,,,,,,,,,,,,,13,,58,0
24059,note_on,,59,0,6,,,,,,,,,,,,,,,,8,,58,0
24059,note_on,,59,0,9,,,,,,,,,,,,,,,,12,,70,0
24059,note_on,,59,0,5,,,,,,,,,,,,,,,,2,,58,0
24059,note_on,,59,0,7,,,,,,,,,,,,,,,,10,,70,0
24060,note_on,,1,0,10,,,,,,,,,,,,,,,,13,,59,48
24060,note_on,,1,0,9,,,,,,,,,,,,,,,,12,,71,48
24060,note_on,,1,0,5,,,,,,,,,,,,,,,,2,,59,48
24060,note_on,,1,0,11,,,,,,,,,,,,,,,,15,,71,48
24060,note_on,,1,0,6,,,,,,,,,,,,,,,,8,,59,74
24060,note_on,,0,0,11,,,,,,,,,,,,,,,,15,,59,48
24060,note_on,,1,0,8,,,,,,,,,,,,,,,,11,,71,48
24060,note_on,,1,0,7,,,,,,,,,,,,,,,,10,,71,48
24119,note_on,,59,0,5,,,,,,,,,,,,,,,,2,,59,0
24119,note_on,,59,0,9,,,,,,,,,,,,,,,,12,,71,0
24119,note_on,,0,0,11,,,,,,,,,,,,,,,,15,,59,0
24119,note_on,,59,0,11,,,,,,,,,,,,,,,,15,,71,0
24119,note_on,,59,0,10,,,,,,,,,,,,,,,,13,,59,0
24119,note_on,,59,0,7,,,,,,,,,,,,,,,,10,,71,0
24119,note_on,,59,0,6,,,,,,,,,,,,,,,,8,,59,0
24119,note_on,,59,0,8,,,,,,,,,,,,,,,,11,,71,0
24120,note_on,,1,0,6,,,,,,,,,,,,,,,,8,,55,74
24120,note_on,,0,0,11,,,,,,,,,,,,,,,,15,,55,48
24120,note_on,,1,0,11,,,,,,,,,,,,,,,,15,,67,48
24120,note_on,,1,0,9,,,,,,,,,,,,,,,,12,,67,48
24120,note_on,,1,0,8,,,,,,,,,,,,,,,,11,,67,48
24120,note_on,,1,0,5,,,,,,,,,,,,,,,,2,,55,48
24120,note_on,,1,0,10,,,,,,,,,,,,,,,,13,,55,48
24120,note_on,,1,0,7,,,,,,,,,,,,,,,,10,,67,48
24179,note_on,,59,0,11,,,,,,,,,,,,,,,,15,,67,0
24179,note_on,,59,0,6,,,,,,,,,,,,,,,,8,,55,0
24179,note_on,,59,0,7,,,,,,,,,,,,,,,,10,,67,0
24179,note_on,,0,0,11,,,,,,,,,,,,,,,,15,,55,0
24179,note_on,,59,0,5,,,,,,,,,,,,,,,,2,,55,0
24179,note_on,,59,0,10,,,,,,,,,,,,,,,,13,,55,0
24179,note_on,,59,0,9,,,,,,,,,,,,,,,,12,,67,0
24179,note_on,,59,0,8,,,,,,,,,,,,,,,,11,,67,0
24180,note_on,,1,0,8,,,,,,,,,,,,,,,,11,,66,48
24180,note_on,,1,0,6,,,,,,,,,,,,,,,,8,,54,73
24180,note_on,,0,0,11,,,,,,,,,,,,,,,,15,,66,48
24180,note_on,,1,0,9,,,,,,,,,,,,,,,,12,,66,48
24180,note_on,,1,0,5,,,,,,,,,,,,,,,,2,,54,48
24180,note_on,,1,0,10,,,,,,,,,,,,,,,,13,,54,48
24180,note_on,,1,0,7,,,,,,,,,,,,,,,,10,,66,48
24180,note_on,,1,0,11,,,,,,,,,,,,,,,,15,,54,48
24239,note_on,,0,0,11,,,,,,,,,,,,,,,,15,,66,0
24239,note_on,,59,0,7,,,,,,,,,,,,,,,,10,,66,0
24239,note_on,,59,0,11,,,,,,,,,,,,,,,,15,,54,0
24239,note_on,,59,0,10,,,,,,,,,,,,,,,,13,,54,0
24239,note_on,,59,0,9,,,,,,,,,,,,,,,,12,,66,0
24239,note_on,,59,0,5,,,,,,,,,,,,,,,,2,,54,0
24239,note_on,,59,0,8,,,,,,,,,,,,,,,,11,,66,0
24239,note_on,,59,0,6,,,,,,,,,,,,,,,,8,,54,0
24240,note_on,,1,0,5,,,,,,,,,,,,,,,,2,,53,48
24240,note_on,,1,0,11,,,,,,,,,,,,,,,,15,,53,48
24240,note_on,,1,0,7,,,,,,,,,,,,,,,,10,,65,48
24240,note_on,,1,0,8,,,,,,,,,,,,,,,,11,,65,48
24240,note_on,,0,0,11,,,,,,,,,,,,,,,,15,,65,48
24240,note_on,,1,0,6,,,,,,,,,,,,,,,,8,,53,74
24240,note_on,,1,0,10,,,,,,,,,,,,,,,,13,,53,48
24240,note_on,,1,0,9,,,,,,,,,,,,,,,,12,,65,48
24299,note_on,,59,0,7,,,,,,,,,,,,,,,,10,,65,0
24299,note_on,,59,0,8,,,,,,,,,,,,,,,,11,,65,0
24299,note_on,,59,0,6,,,,,,,,,,,,,,,,8,,53,0
24299,note_on,,0,0,11,,,,,,,,,,,,,,,,15,,65,0
24299,note_on,,59,0,11,,,,,,,,,,,,,,,,15,,53,0
24299,note_on,,59,0,10,,,,,,,,,,,,,,,,13,,53,0
24299,note_on,,59,0,9,,,,,,,,,,,,,,,,12,,65,0
24299,note_on,,59,0,5,,,,,,,,,,,,,,,,2,,53,0
24300,note_on,,1,0,11,,,,,,,,,,,,,,,,15,,66,48
24300,note_on,,1,0,8,,,,,,,,,,,,,,,,11,,66,48
24300,note_on,,1,0,7,,,,,,,,,,,,,,,,10,,66,48
24300,note_on,,1,0,9,,,,,,,,,,,,,,,,12,,66,48
24300,note_on,,0,0,11,,,,,,,,,,,,,,,,15,,54,48
24300,note_on,,1,0,5,,,,,,,,,,,,,,,,2,,54,48
24300,note_on,,1,0,6,,,,,,,,,,,,,,,,8,,54,72
24300,note_on,,1,0,10,,,,,,,,,,,,,,,,13,,54,48
24359,note_on,,59,0,7,,,,,,,,,,,,,,,,10,,66,0
24359,note_on,,59,0,10,,,,,,,,,,,,,,,,13,,54,0
24359,note_on,,59,0,8,,,,,,,,,,,,,,,,11,,66,0
24359,note_on,,0,0,11,,,,,,,,,,,,,,,,15,,54,0
24359,note_on,,59,0,6,,,,,,,,,,,,,,,,8,,54,0
24359,note_on,,59,0,9,,,,,,,,,,,,,,,,12,,66,0
24359,note_on,,59,0,11,,,,,,,,,,,,,,,,15,,66,0
24359,note_on,,59,0,5,,,,,,,,,,,,,,,,2,,54,0
24360,note_on,,1,0,6,,,,,,,,,,,,,,,,8,,51,72
24360,note_on,,0,0,11,,,,,,,,,,,,,,,,15,,51,48
24360,note_on,,1,0,9,,,,,,,,,,,,,,,,12,,63,48
24360,note_on,,1,0,5,,,,,,,,,,,,,,,,2,,51,48
24360,note_on,,1,0,7,,,,,,,,,,,,,,,,10,,63,48
24360,note_on,,1,0,11,,,,,,,,,,,,,,,,15,,63,48
24360,note_on,,1,0,8,,,,,,,,,,,,,,,,11,,63,48
24360,note_on,,1,0,10,,,,,,,,,,,,,,,,13,,51,48
24419,note_on,,59,0,7,,,,,,,,,,,,,,,,10,,63,0
24419,note_on,,59,0,6,,,,,,,,,,,,,,,,8,,51,0
24419,note_on,,59,0,9,,,,,,,,,,,,,,,,12,,63,0
24419,note_on,,59,0,8,,,,,,,,,,,,,,,,11,,63,0
24419,note_on,,0,0,11,,,,,,,,,,,,,,,,15,,51,0
24419,note_on,,59,0,11,,,,,,,,,,,,,,,,15,,63,0
24419,note_on,,59,0,10,,,,,,,,,,,,,,,,13,,51,0
24419,note_on,,59,0,5,,,,,,,,,,,,,,,,2,,51,0
24420,note_on,,1,0,6,,,,,,,,,,,,,,,,8,,52,70
24420,note_on,,1,0,9,,,,,,,,,,,,,,,,12,,64,48
24420,note_on,,1,0,7,,,,,,,,,,,,,,,,10,,64,48
24420,note_on,,1,0,5,,,,,,,,,,,,,,,,2,,52,48
24420,note_on,,1,0,8,,,,,,,,,,,,,,,,11,,64,48
24420,note_on,,0,0,11,,,,,,,,,,,,,,,,15,,64,48
24420,note_on,,1,0,11,,,,,,,,,,,,,,,,15,,52,48
24420,note_on,,1,0,10,,,,,,,,,,,,,,,,13,,52,48
24479,note_on,,59,0,9,,,,,,,,,,,,,,,,12,,64,0
24479,note_on,,59,0,7,,,,,,,,,,,,,,,,10,,64,0
24479,note_on,,59,0,8,,,,,,,,,,,,,,,,11,,64,0
24479,note_on,,0,0,11,,,,,,,,,,,,,,,,15,,64,0
24479,note_on,,59,0,11,,,,,,,,,,,,,,,,15,,52,0
24479,note_on,,59,0,10,,,,,,,,,,,,,,,,13,,52,0
24479,note_on,,59,0,6,,,,,,,,,,,,,,,,8,,52,0
24479,note_on,,59,0,5,,,,,,,,,,,,,,,,2,,52,0
24480,note_on,,1,0,6,,,,,,,,,,,,,,,,8,,49,73
24480,note_on,,0,0,11,,,,,,,,,,,,,,,,15,,49,48
24480,note_on,,1,0,11,,,,,,,,,,,,,,,,15,,61,48
24480,note_on,,1,0,8,,,,,,,,,,,,,,,,11,,61,48
24480,note_on,,1,0,10,,,,,,,,,,,,,,,,13,,49,48
24480,note_on,,1,0,7,,,,,,,,,,,,,,,,10,,61,48
24480,note_on,,1,0,5,,,,,,,,,,,,,,,,2,,49,48
24480,note_on,,1,0,9,,,,,,,,,,,,,,,,12,,61,48
24539,note_on,,59,0,5,,,,,,,,,,,,,,,,2,,49,0
24539,note_on,,59,0,10,,,,,,,,,,,,,,,,13,,49,0
24539,note_on,,59,0,8,,,,,,,,,,,,,,,,11,,61,0
24539,note_on,,59,0,7,,,,,,,,,,,,,,,,10,,61,0
24539,note_on,,59,0,11,,,,,,,,,,,,,,,,15,,61,0
24539,note_on,,59,0,6,,,,,,,,,,,,,,,,8,,49,0
24539,note_on,,0,0,11,,,,,,,,,,,,,,,,15,,49,0
24539,note_on,,59,0,9,,,,,,,,,,,,,,,,12,,61,0
24540,note_on,,1,0,10,,,,,,,,,,,,,,,,13,,50,48
24540,note_on,,1,0,8,,,,,,,,,,,,,,,,11,,62,48
24540,note_on,,1,0,6,,,,,,,,,,,,,,,,8,,50,75
24540,note_on,,1,0,7,,,,,,,,,,,,,,,,10,,62,48
24540,note_on,,1,0,5,,,,,,,,,,,,,,,,2,,50,48
24540,note_on,,1,0,11,,,,,,,,,,,,,,,,15,,62,48
24540,note_on,,0,0,11,,,,,,,,,,,,,,,,15,,50,48
24540,note_on,,1,0,9,,,,,,,,,,,,,,,,12,,62,48
24599,note_on,,59,0,9,,,,,,,,,,,,,,,,12,,62,0
24599,note_on,,59,0,7,,,,,,,,,,,,,,,,10,,62,0
24599,note_on,,59,0,11,,,,,,,,,,,,,,,,15,,62,0
24599,note_on,,59,0,6,,,,,,,,,,,,,,,,8,,50,0
24599,note_on,,59,0,5,,,,,,,,,,,,,,,,2,,50,0
24599,note_on,,0,0,11,,,,,,,,,,,,,,,,15,,50,0
24599,note_on,,59,0,10,,,,,,,,,,,,,,,,13,,50,0
24599,note_on,,59,0,8,,,,,,,,,,,,,,,,11,,62,0
24600,note_on,,1,0,5,,,,,,,,,,,,,,,,2,,47,48
24600,note_on,,1,0,10,,,,,,,,,,,,,,,,13,,47,48
24600,note_on,,1,0,7,,,,,,,,,,,,,,,,10,,59,48
24600,note_on,,0,0,11,,,,,,,,,,,,,,,,15,,59,48
24600,note_on,,1,0,11,,,,,,,,,,,,,,,,15,,47,48
24600,note_on,,1,0,6,,,,,,,,,,,,,,,,8,,47,69
24600,note_on,,1,0,9,,,,,,,,,,,,,,,,12,,59,48
24600,note_on,,1,0,8,,,,,,,,,,,,,,,,11,,59,48
24659,note_on,,59,0,8,,,,,,,,,,,,,,,,11,,59,0
24659,note_on,,0,0,11,,,,,,,,,,,,,,,,15,,59,0
24659,note_on,,59,0,9,,,,,,,,,,,,,,,,12,,59,0
24659,note_on,,59,0,11,,,,,,,,,,,,,,,,15,,47,0
24659,note_on,,59,0,7,,,,,,,,,,,,,,,,10,,59,0
24659,note_on,,59,0,6,,,,,,,,,,,,,,,,8,,47,0
24659,note_on,,59,0,10,,,,,,,,,,,,,,,,13,,47,0
24659,note_on,,59,0,5,,,,,,,,,,,,,,,,2,,47,0
24660,note_on,,1,0,5,,,,,,,,,,,,,,,,2,,46,48
24660,note_on,,1,0,9,,,,,,,,,,,,,,,,12,,58,48
24660,note_on,,1,0,6,,,,,,,,,,,,,,,,8,,46,74
24660,note_on,,1,0,10,,,,,,,,,,,,,,,,13,,46,48
24660,note_on,,1,0,8,,,,,,,,,,,,,,,,11,,58,48
24660,note_on,,1,0,11,,,,,,,,,,,,,,,,15,,46,48
24660,note_on,,1,0,7,,,,,,,,,,,,,,,,10,,58,48
24660,note_on,,0,0,11,,,,,,,,,,,,,,,,15,,58,48
24719,note_on,,59,0,8,,,,,,,,,,,,,,,,11,,58,0
24719,note_on,,59,0,6,,,,,,,,,,,,,,,,8,,46,0
24719,note_on,,59,0,7,,,,,,,,,,,,,,,,10,,58,0
24719,note_on,,0,0,11,,,,,,,,,,,,,,,,15,,58,0
24719,note_on,,59,0,5,,,,,,,,,,,,,,,,2,,46,0
24719,note_on,,59,0,10,,,,,,,,,,,,,,,,13,,46,0
24719,note_on,,59,0,9,,,,,,,,,,,,,,,,12,,58,0
24719,note_on,,59,0,11,,,,,,,,,,,,,,,,15,,46,0
24720,note_on,,0,0,11,,,,,,,,,,,,,,,,15,,47,48
24720,note_on,,1,0,8,,,,,,,,,,,,,,,,11,,59,48
24720,note_on,,1,0,10,,,,,,,,,,,,,,,,13,,47,48
24720,note_on,,1,0,9,,,,,,,,,,,,,,,,12,,59,48
24720,note_on,,1,0,11,,,,,,,,,,,,,,,,15,,59,48
24720,note_on,,1,0,5,,,,,,,,,,,,,,,,2,,47,48
24720,note_on,,1,0,7,,,,,,,,,,,,,,,,10,,59,48
24720,note_on,,1,0,6,,,,,,,,,,,,,,,,8,,47,75
24779,note_on,,59,0,7,,,,,,,,,,,,,,,,10,,59,0
24779,note_on,,59,0,6,,,,,,,,,,,,,,,,8,,47,0
24779,note_on,,59,0,10,,,,,,,,,,,,,,,,13,,47,0
24779,note_on,,59,0,5,,,,,,,,,,,,,,,,2,,47,0
24779,note_on,,59,0,9,,,,,,,,,,,,,,,,12,,59,0
24779,note_on,,59,0,8,,,,,,,,,,,,,,,,11,,59,0
24779,note_on,,59,0,11,,,,,,,,,,,,,,,,15,,59,0
24779,note_on,,0,0,11,,,,,,,,,,,,,,,,15,,47,0
24780,note_on,,1,0,9,,,,,,,,,,,,,,,,12,,64,48
24780,note_on,,1,0,10,,,,,,,,,,,,,,,,13,,52,48
24780,note_on,,1,0,11,,,,,,,,,,,,,,,,15,,64,48
24780,note_on,,0,0,11,,,,,,,,,,,,,,,,15,,52,48
24780,note_on,,1,0,5,,,,,,,,,,,,,,,,2,,52,48
24780,note_on,,1,0,7,,,,,,,,,,,,,,,,10,,64,48
24780,note_on,,1,0,8,,,,,,,,,,,,,,,,11,,64,48
24780,note_on,,1,0,6,,,,,,,,,,,,,,,,8,,52,71
24839,note_on,,59,0,11,,,,,,,,,,,,,,,,15,,64,0
24839,note_on,,0,0,11,,,,,,,,,,,,,,,,15,,52,0
24839,note_on,,59,0,9,,,,,,,,,,,,,,,,12,,64,0
24839,note_on,,59,0,10,,,,,,,,,,,,,,,,13,,52,0
24839,note_on,,59,0,5,,,,,,,,,,,,,,,,2,,52,0
24839,note_on,,59,0,7,,,,,,,,,,,,,,,,10,,64,0
24839,note_on,,59,0,8,,,,,,,,,,,,,,,,11,,64,0
24839,note_on,,59,0,6,,,,,,,,,,,,,,,,8,,52,0
24840,note_on,,1,0,9,,,,,,,,,,,,,,,,12,,62,48
24840,note_on,,1,0,10,,,,,,,,,,,,,,,,13,,50,48
24840,note_on,,1,0,6,,,,,,,,,,,,,,,,8,,50,71
24840,note_on,,1,0,5,,,,,,,,,,,,,,,,2,,50,48
24840,note_on,,1,0,11,,,,,,,,,,,,,,,,15,,50,48
24840,note_on,,1,0,7,,,,,,,,,,,,,,,,10,,62,48
24840,note_on,,1,0,8,,,,,,,,,,,,,,,,11,,62,48
24840,note_on,,0,0,11,,,,,,,,,,,,,,,,15,,62,48
24899,note_on,,59,0,7,,,,,,,,,,,,,,,,10,,62,0
24899,note_on,,59,0,9,,,,,,,,,,,,,,,,12,,62,0
24899,note_on,,59,0,5,,,,,,,,,,,,,,,,2,,50,0
24899,note_on,,59,0,10,,,,,,,,,,,,,,,,13,,50,0
24899,note_on,,59,0,11,,,,,,,,,,,,,,,,15,,50,0
24899,note_on,,0,0,11,,,,,,,,,,,,,,,,15,,62,0
24899,note_on,,59,0,8,,,,,,,,,,,,,,,,11,,62,0
24899,note_on,,59,0,6,,,,,,,,,,,,,,,,8,,50,0
24900,note_on,,0,0,11,,,,,,,,,,,,,,,,15,,55,48
24900,note_on,,1,0,5,,,,,,,,,,,,,,,,2,,55,48
24900,note_on,,1,0,7,,,,,,,,,,,,,,,,10,,67,48
24900,note_on,,1,0,10,,,,,,,,,,,,,,,,13,,55,48
24900,note_on,,1,0,11,,,,,,,,,,,,,,,,15,,67,48
24900,note_on,,1,0,8,,,,,,,,,,,,,,,,11,,67,48
24900,note_on,,1,0,6,,,,,,,,,,,,,,,,8,,55,73
24900,note_on,,1,0,9,,,,,,,,,,,,,,,,12,,67,48
24959,note_on,,59,0,9,,,,,,,,,,,,,,,,12,,67,0
24959,note_on,,59,0,7,,,,,,,,,,,,,,,,10,,67,0
24959,note_on,,59,0,10,,,,,,,,,,,,,,,,13,,55,0
24959,note_on,,59,0,6,,,,,,,,,,,,,,,,8,,55,0
24959,note_on,,0,0,11,,,,,,,,,,,,,,,,15,,55,0
24959,note_on,,59,0,8,,,,,,,,,,,,,,,,11,,67,0
24959,note_on,,59,0,5,,,,,,,,,,,,,,,,2,,55,0
24959,note_on,,59,0,11,,,,,,,,,,,,,,,,15,,67,0
24960,note_on,,1,0,9,,,,,,,,,,,,,,,,12,,66,48
24960,note_on,,1,0,11,,,,,,,,,,,,,,,,15,,66,48
24960,note_on,,1,0,7,,,,,,,,,,,,,,,,10,,66,48
24960,note_on,,1,0,10,,,,,,,,,,,,,,,,13,,54,48
24960,note_on,,1,0,8,,,,,,,,,,,,,,,,11,,66,48
24960,note_on,,0,0,11,,,,,,,,,,,,,,,,15,,54,48
24960,note_on,,1,0,6,,,,,,,,,,,,,,,,8,,54,74
24960,note_on,,1,0,5,,,,,,,,,,,,,,,,2,,54,48
25019,note_on,,59,0,5,,,,,,,,,,,,,,,,2,,54,0
25019,note_on,,59,0,7,,,,,,,,,,,,,,,,10,,66,0
25019,note_on,,59,0,8,,,,,,,,,,,,,,,,11,,66,0
25019,note_on,,59,0,6,,,,,,,,,,,,,,,,8,,54,0
25019,note_on,,59,0,11,,,,,,,,,,,,,,,,15,,66,0
25019,note_on,,0,0,11,,,,,,,,,,,,,,,,15,,54,0
25019,note_on,,59,0,9,,,,,,,,,,,,,,,,12,,66,0
25019,note_on,,59,0,10,,,,,,,,,,,,,,,,13,,54,0
25020,note_on,,1,0,8,,,,,,,,,,,,,,,,11,,55,48
25020,note_on,,1,0,5,,,,,,,,,,,,,,,,2,,43,48
25020,note_on,,1,0,10,,,,,,,,,,,,,,,,13,,43,48
25020,note_on,,0,0,11,,,,,,,,,,,,,,,,15,,55,48
25020,note_on,,1,0,9,,,,,,,,,,,,,,,,12,,55,48
25020,note_on,,1,0,6,,,,,,,,,,,,,,,,8,,52,74
25020,note_on,,1,0,11,,,,,,,,,,,,,,,,15,,43,48
25020,note_on,,1,0,7,,,,,,,,,,,,,,,,10,,55,48
25139,note_on,,119,0,6,,,,,,,,,,,,,,,,8,,52,0
25139,note_on,,119,0,7,,,,,,,,,,,,,,,,10,,55,0
25139,note_on,,119,0,8,,,,,,,,,,,,,,,,11,,55,0
25140,note_on,,1,0,6,,,,,,,,,,,,,,,,8,,52,75
25140,note_on,,0,0,11,,,,,,,,,,,,,,,,15,,52,48
25140,note_on,,0,0,11,,,,,,,,,,,,,,,,15,,64,48
25140,note_on,,120,0,11,,,,,,,,,,,,,,,,15,,59,48
25200,note_on,,61,0,8,,,,,,,,,,,,,,,,11,,71,48
25200,note_on,,61,0,7,,,,,,,,,,,,,,,,10,,71,48
25229,note_on,,89,0,6,,,,,,,,,,,,,,,,8,,52,0
25230,note_on,,1,0,6,,,,,,,,,,,,,,,,8,,54,68
25259,note_on,,239,0,9,,,,,,,,,,,,,,,,12,,55,0
25259,note_on,,29,0,6,,,,,,,,,,,,,,,,8,,54,0
25259,note_on,,239,0,10,,,,,,,,,,,,,,,,13,,43,0
25259,note_on,,59,0,8,,,,,,,,,,,,,,,,11,,71,0
25259,note_on,,119,0,11,,,,,,,,,,,,,,,,15,,43,0
25259,note_on,,0,0,11,,,,,,,,,,,,,,,,15,,55,0
25259,note_on,,0,0,11,,,,,,,,,,,,,,,,15,,59,0
25259,note_on,,0,0,11,,,,,,,,,,,,,,,,15,,64,0
25259,note_on,,0,0,11,,,,,,,,,,,,,,,,15,,52,0
25259,note_on,,59,0,7,,,,,,,,,,,,,,,,10,,71,0
25259,note_on,,239,0,5,,,,,,,,,,,,,,,,2,,43,0
25260,note_on,,1,0,8,,,,,,,,,,,,,,,,11,,70,48
25260,note_on,,0,0,11,,,,,,,,,,,,,,,,15,,66,48
25260,note_on,,1,0,10,,,,,,,,,,,,,,,,13,,42,48
25260,note_on,,1,0,9,,,,,,,,,,,,,,,,12,,54,48
25260,note_on,,1,0,7,,,,,,,,,,,,,,,,10,,70,48
25260,note_on,,1,0,6,,,,,,,,,,,,,,,,8,,54,68
25260,note_on,,0,0,11,,,,,,,,,,,,,,,,15,,49,48
25260,note_on,,1,0,5,,,,,,,,,,,,,,,,2,,42,48
25260,note_on,,0,0,11,,,,,,,,,,,,,,,,15,,58,48
25260,note_on,,0,0,11,,,,,,,,,,,,,,,,15,,61,48
25260,note_on,,1,0,11,,,,,,,,,,,,,,,,15,,42,48
25319,note_on,,59,0,7,,,,,,,,,,,,,,,,10,,70,0
25319,note_on,,59,0,8,,,,,,,,,,,,,,,,11,,70,0
25320,note_on,,1,0,8,,,,,,,,,,,,,,,,11,,74,48
25320,note_on,,1,0,7,,,,,,,,,,,,,,,,10,,74,48
25379,note_on,,59,0,8,,,,,,,,,,,,,,,,11,,74,0
25379,note_on,,59,0,7,,,,,,,,,,,,,,,,10,,74,0
25380,note_on,,1,0,8,,,,,,,,,,,,,,,,11,,73,48
25380,note_on,,1,0,7,,,,,,,,,,,,,,,,10,,73,48
25439,note_on,,59,0,8,,,,,,,,,,,,,,,,11,,73,0
25439,note_on,,59,0,7,,,,,,,,,,,,,,,,10,,73,0
25440,note_on,,1,0,7,,,,,,,,,,,,,,,,10,,76,48
25440,note_on,,1,0,8,,,,,,,,,,,,,,,,11,,76,48
25499,note_on,,59,0,7,,,,,,,,,,,,,,,,10,,76,0
25499,note_on,,0,0,11,,,,,,,,,,,,,,,,15,,61,0
25499,note_on,,0,0,11,,,,,,,,,,,,,,,,15,,58,0
25499,note_on,,59,0,8,,,,,,,,,,,,,,,,11,,76,0
25499,note_on,,0,0,11,,,,,,,,,,,,,,,,15,,49,0
25499,note_on,,239,0,11,,,,,,,,,,,,,,,,15,,66,0
25499,note_on,,239,0,6,,,,,,,,,,,,,,,,8,,54,0
25500,note_on,,1,0,7,,,,,,,,,,,,,,,,10,,74,48
25500,note_on,,1,0,8,,,,,,,,,,,,,,,,11,,74,48
25559,note_on,,59,0,8,,,,,,,,,,,,,,,,11,,74,0
25559,note_on,,59,0,7,,,,,,,,,,,,,,,,10,,74,0
25560,note_on,,1,0,8,,,,,,,,,,,,,,,,11,,79,48
25560,note_on,,1,0,7,,,,,,,,,,,,,,,,10,,79,48
25619,note_on,,59,0,8,,,,,,,,,,,,,,,,11,,79,0
25619,note_on,,59,0,7,,,,,,,,,,,,,,,,10,,79,0
25620,note_on,,1,0,8,,,,,,,,,,,,,,,,11,,78,48
25620,note_on,,1,0,7,,,,,,,,,,,,,,,,10,,78,48
25679,note_on,,59,0,8,,,,,,,,,,,,,,,,11,,78,0
25679,note_on,,59,0,7,,,,,,,,,,,,,,,,10,,78,0
25680,note_on,,1,0,8,,,,,,,,,,,,,,,,11,,71,48
25680,note_on,,1,0,7,,,,,,,,,,,,,,,,10,,71,48
25739,note_on,,59,0,7,,,,,,,,,,,,,,,,10,,71,0
25739,note_on,,59,0,8,,,,,,,,,,,,,,,,11,,71,0
25740,note_on,,1,0,7,,,,,,,,,,,,,,,,10,,70,48
25740,note_on,,1,0,8,,,,,,,,,,,,,,,,11,,70,48
25859,note_on,,599,0,9,,,,,,,,,,,,,,,,12,,54,0
25859,note_on,,119,0,7,,,,,,,,,,,,,,,,10,,70,0
25859,note_on,,119,0,8,,,,,,,,,,,,,,,,11,,70,0
25859,note_on,,360,0,11,,,,,,,,,,,,,,,,15,,42,0
25859,note_on,,599,0,10,,,,,,,,,,,,,,,,13,,42,0
25859,note_on,,599,0,5,,,,,,,,,,,,,,,,2,,42,0
25920,note_on,,61,0,5,,,,,,,,,,,,,,,,2,,54,48
25920,note_on,,61,0,11,,,,,,,,,,,,,,,,15,,54,48
25920,note_on,,0,0,11,,,,,,,,,,,,,,,,15,,66,48
25920,note_on,,421,0,6,,,,,,,,,,,,,,,,8,,54,69
25920,note_on,,61,0,8,,,,,,,,,,,,,,,,11,,66,48
25920,note_on,,61,0,10,,,,,,,,,,,,,,,,13,,54,48
25920,note_on,,61,0,9,,,,,,,,,,,,,,,,12,,66,48
25920,note_on,,61,0,7,,,,,,,,,,,,,,,,10,,66,48
25979,note_on,,0,0,11,,,,,,,,,,,,,,,,15,,66,0
25979,note_on,,59,0,9,,,,,,,,,,,,,,,,12,,66,0
25979,note_on,,59,0,7,,,,,,,,,,,,,,,,10,,66,0
25979,note_on,,59,0,11,,,,,,,,,,,,,,,,15,,54,0
25979,note_on,,59,0,6,,,,,,,,,,,,,,,,8,,54,0
25979,note_on,,59,0,5,,,,,,,,,,,,,,,,2,,54,0
25979,note_on,,59,0,8,,,,,,,,,,,,,,,,11,,66,0
25979,note_on,,59,0,10,,,,,,,,,,,,,,,,13,,54,0
25980,note_on,,1,0,10,,,,,,,,,,,,,,,,13,,55,48
25980,note_on,,1,0,11,,,,,,,,,,,,,,,,15,,55,48
25980,note_on,,0,0,11,,,,,,,,,,,,,,,,15,,67,48
25980,note_on,,1,0,8,,,,,,,,,,,,,,,,11,,67,48
25980,note_on,,1,0,9,,,,,,,,,,,,,,,,12,,67,48
25980,note_on,,1,0,7,,,,,,,,,,,,,,,,10,,67,48
25980,note_on,,1,0,5,,,,,,,,,,,,,,,,2,,55,48
25980,note_on,,1,0,6,,,,,,,,,,,,,,,,8,,55,68
26039,note_on,,59,0,6,,,,,,,,,,,,,,,,8,,55,0
26039,note_on,,59,0,9,,,,,,,,,,,,,,,,12,,67,0
26039,note_on,,59,0,7,,,,,,,,,,,,,,,,10,,67,0
26039,note_on,,0,0,11,,,,,,,,,,,,,,,,15,,67,0
26039,note_on,,59,0,11,,,,,,,,,,,,,,,,15,,55,0
26039,note_on,,59,0,5,,,,,,,,,,,,,,,,2,,55,0
26039,note_on,,59,0,8,,,,,,,,,,,,,,,,11,,67,0
26039,note_on,,59,0,10,,,,,,,,,,,,,,,,13,,55,0
26040,note_on,,1,0,6,,,,,,,,,,,,,,,,8,,52,68
26040,note_on,,1,0,8,,,,,,,,,,,,,,,,11,,64,48
26040,note_on,,1,0,9,,,,,,,,,,,,,,,,12,,64,48
26040,note_on,,1,0,11,,,,,,,,,,,,,,,,15,,52,48
26040,note_on,,0,0,11,,,,,,,,,,,,,,,,15,,64,48
26040,note_on,,1,0,5,,,,,,,,,,,,,,,,2,,52,48
26040,note_on,,1,0,7,,,,,,,,,,,,,,,,10,,64,48
26040,note_on,,1,0,10,,,,,,,,,,,,,,,,13,,52,48
26099,note_on,,59,0,9,,,,,,,,,,,,,,,,12,,64,0
26099,note_on,,59,0,10,,,,,,,,,,,,,,,,13,,52,0
26099,note_on,,59,0,8,,,,,,,,,,,,,,,,11,,64,0
26099,note_on,,59,0,6,,,,,,,,,,,,,,,,8,,52,0
26099,note_on,,59,0,11,,,,,,,,,,,,,,,,15,,52,0
26099,note_on,,0,0,11,,,,,,,,,,,,,,,,15,,64,0
26099,note_on,,59,0,5,,,,,,,,,,,,,,,,2,,52,0
26099,note_on,,59,0,7,,,,,,,,,,,,,,,,10,,64,0
26100,note_on,,1,0,8,,,,,,,,,,,,,,,,11,,61,48
26100,note_on,,1,0,11,,,,,,,,,,,,,,,,15,,49,48
26100,note_on,,1,0,6,,,,,,,,,,,,,,,,8,,49,75
26100,note_on,,1,0,5,,,,,,,,,,,,,,,,2,,49,48
26100,note_on,,0,0,11,,,,,,,,,,,,,,,,15,,61,48
26100,note_on,,1,0,7,,,,,,,,,,,,,,,,10,,61,48
26100,note_on,,1,0,9,,,,,,,,,,,,,,,,12,,61,48
26100,note_on,,1,0,10,,,,,,,,,,,,,,,,13,,49,48
26159,note_on,,59,0,10,,,,,,,,,,,,,,,,13,,49,0
26159,note_on,,59,0,5,,,,,,,,,,,,,,,,2,,49,0
26159,note_on,,59,0,7,,,,,,,,,,,,,,,,10,,61,0
26159,note_on,,59,0,11,,,,,,,,,,,,,,,,15,,49,0
26159,note_on,,59,0,9,,,,,,,,,,,,,,,,12,,61,0
26159,note_on,,59,0,6,,,,,,,,,,,,,,,,8,,49,0
26159,note_on,,59,0,8,,,,,,,,,,,,,,,,11,,61,0
26159,note_on,,0,0,11,,,,,,,,,,,,,,,,15,,61,0
26160,note_on,,1,0,10,,,,,,,,,,,,,,,,13,,58,48
26160,note_on,,1,0,7,,,,,,,,,,,,,,,,10,,70,48
26160,note_on,,0,0,11,,,,,,,,,,,,,,,,15,,70,48
26160,note_on,,1,0,11,,,,,,,,,,,,,,,,15,,58,48
26160,note_on,,1,0,8,,,,,,,,,,,,,,,,11,,70,48
26160,note_on,,1,0,6,,,,,,,,,,,,,,,,8,,58,71
26160,note_on,,1,0,5,,,,,,,,,,,,,,,,2,,58,48
26160,note_on,,1,0,9,,,,,,,,,,,,,,,,12,,70,48
26219,note_on,,59,0,9,,,,,,,,,,,,,,,,12,,70,0
26219,note_on,,59,0,11,,,,,,,,,,,,,,,,15,,58,0
26219,note_on,,0,0,11,,,,,,,,,,,,,,,,15,,70,0
26219,note_on,,59,0,5,,,,,,,,,,,,,,,,2,,58,0
26219,note_on,,59,0,6,,,,,,,,,,,,,,,,8,,58,0
26219,note_on,,59,0,7,,,,,,,,,,,,,,,,10,,70,0
26219,note_on,,59,0,8,,,,,,,,,,,,,,,,11,,70,0
26219,note_on,,59,0,10,,,,,,,,,,,,,,,,13,,58,0
26220,note_on,,1,0,5,,,,,,,,,,,,,,,,2,,59,48
26220,note_on,,1,0,10,,,,,,,,,,,,,,,,13,,59,48
26220,note_on,,1,0,8,,,,,,,,,,,,,,,,11,,71,48
26220,note_on,,1,0,6,,,,,,,,,,,,,,,,8,,59,73
26220,note_on,,1,0,7,,,,,,,,,,,,,,,,10,,71,48
26220,note_on,,0,0,11,,,,,,,,,,,,,,,,15,,71,48
26220,note_on,,1,0,11,,,,,,,,,,,,,,,,15,,59,48
26220,note_on,,1,0,9,,,,,,,,,,,,,,,,12,,71,48
26399,note_on,,179,0,9,,,,,,,,,,,,,,,,12,,71,0
26399,note_on,,179,0,10,,,,,,,,,,,,,,,,13,,59,0
26399,note_on,,179,0,11,,,,,,,,,,,,,,,,15,,59,0
26399,note_on,,179,0,8,,,,,,,,,,,,,,,,11,,71,0
26399,note_on,,179,0,5,,,,,,,,,,,,,,,,2,,59,0
26399,note_on,,179,0,7,,,,,,,,,,,,,,,,10,,71,0
26399,note_on,,0,0,11,,,,,,,,,,,,,,,,15,,71,0
26399,note_on,,179,0,6,,,,,,,,,,,,,,,,8,,59,0
26400,note_on,,1,0,11,,,,,,,,,,,,,,,,15,,57,48
26400,note_on,,1,0,8,,,,,,,,,,,,,,,,11,,69,48
26400,note_on,,1,0,7,,,,,,,,,,,,,,,,10,,69,48
26400,note_on,,1,0,6,,,,,,,,,,,,,,,,8,,57,72
26400,note_on,,1,0,5,,,,,,,,,,,,,,,,2,,57,48
26400,note_on,,1,0,9,,,,,,,,,,,,,,,,12,,69,48
26400,note_on,,1,0,10,,,,,,,,,,,,,,,,13,,57,48
26400,note_on,,0,0,11,,,,,,,,,,,,,,,,15,,69,48
26459,note_on,,59,0,7,,,,,,,,,,,,,,,,10,,69,0
26459,note_on,,59,0,5,,,,,,,,,,,,,,,,2,,57,0
26459,note_on,,59,0,6,,,,,,,,,,,,,,,,8,,57,0
26459,note_on,,59,0,10,,,,,,,,,,,,,,,,13,,57,0
26459,note_on,,59,0,8,,,,,,,,,,,,,,,,11,,69,0
26459,note_on,,59,0,9,,,,,,,,,,,,,,,,12,,69,0
26459,note_on,,59,0,11,,,,,,,,,,,,,,,,15,,57,0
26459,note_on,,0,0,11,,,,,,,,,,,,,,,,15,,69,0
26460,note_on,,1,0,6,,,,,,,,,,,,,,,,8,,55,69
26460,note_on,,1,0,5,,,,,,,,,,,,,,,,2,,55,48
26460,note_on,,1,0,7,,,,,,,,,,,,,,,,10,,67,48
26460,note_on,,1,0,11,,,,,,,,,,,,,,,,15,,55,48
26460,note_on,,0,0,11,,,,,,,,,,,,,,,,15,,67,48
26460,note_on,,1,0,8,,,,,,,,,,,,,,,,11,,67,48
26460,note_on,,1,0,10,,,,,,,,,,,,,,,,13,,55,48
26460,note_on,,1,0,9,,,,,,,,,,,,,,,,12,,67,48
26519,note_on,,59,0,7,,,,,,,,,,,,,,,,10,,67,0
26519,note_on,,59,0,8,,,,,,,,,,,,,,,,11,,67,0
26519,note_on,,59,0,10,,,,,,,,,,,,,,,,13,,55,0
26519,note_on,,0,0,11,,,,,,,,,,,,,,,,15,,67,0
26519,note_on,,59,0,11,,,,,,,,,,,,,,,,15,,55,0
26519,note_on,,59,0,5,,,,,,,,,,,,,,,,2,,55,0
26519,note_on,,59,0,6,,,,,,,,,,,,,,,,8,,55,0
26519,note_on,,59,0,9,,,,,,,,,,,,,,,,12,,67,0
26520,note_on,,1,0,9,,,,,,,,,,,,,,,,12,,64,48
26520,note_on,,1,0,5,,,,,,,,,,,,,,,,2,,52,48
26520,note_on,,0,0,11,,,,,,,,,,,,,,,,15,,64,48
26520,note_on,,1,0,11,,,,,,,,,,,,,,,,15,,52,48
26520,note_on,,1,0,7,,,,,,,,,,,,,,,,10,,64,48
26520,note_on,,1,0,6,,,,,,,,,,,,,,,,8,,52,69
26520,note_on,,1,0,10,,,,,,,,,,,,,,,,13,,52,48
26520,note_on,,1,0,8,,,,,,,,,,,,,,,,11,,64,48
26579,note_on,,59,0,5,,,,,,,,,,,,,,,,2,,52,0
26579,note_on,,59,0,7,,,,,,,,,,,,,,,,10,,64,0
26579,note_on,,59,0,9,,,,,,,,,,,,,,,,12,,64,0
26579,note_on,,59,0,8,,,,,,,,,,,,,,,,11,,64,0
26579,note_on,,59,0,6,,,,,,,,,,,,,,,,8,,52,0
26579,note_on,,59,0,10,,,,,,,,,,,,,,,,13,,52,0
26579,note_on,,59,0,11,,,,,,,,,,,,,,,,15,,52,0
26579,note_on,,0,0,11,,,,,,,,,,,,,,,,15,,64,0
26580,note_on,,1,0,10,,,,,,,,,,,,,,,,13,,54,48
26580,note_on,,1,0,8,,,,,,,,,,,,,,,,11,,66,48
26580,note_on,,1,0,5,,,,,,,,,,,,,,,,2,,54,48
26580,note_on,,1,0,6,,,,,,,,,,,,,,,,8,,54,73
26580,note_on,,1,0,11,,,,,,,,,,,,,,,,15,,54,48
26580,note_on,,1,0,7,,,,,,,,,,,,,,,,10,,66,48
26580,note_on,,1,0,9,,,,,,,,,,,,,,,,12,,66,48
26580,note_on,,0,0,11,,,,,,,,,,,,,,,,15,,66,48
26639,note_on,,0,0,11,,,,,,,,,,,,,,,,15,,66,0
26639,note_on,,59,0,11,,,,,,,,,,,,,,,,15,,54,0
26639,note_on,,59,0,5,,,,,,,,,,,,,,,,2,,54,0
26639,note_on,,59,0,8,,,,,,,,,,,,,,,,11,,66,0
26639,note_on,,59,0,10,,,,,,,,,,,,,,,,13,,54,0
26639,note_on,,59,0,6,,,,,,,,,,,,,,,,8,,54,0
26639,note_on,,59,0,7,,,,,,,,,,,,,,,,10,,66,0
26639,note_on,,59,0,9,,,,,,,,,,,,,,,,12,,66,0
26640,note_on,,1,0,9,,,,,,,,,,,,,,,,12,,63,48
26640,note_on,,1,0,5,,,,,,,,,,,,,,,,2,,51,48
26640,note_on,,1,0,11,,,,,,,,,,,,,,,,15,,51,48
26640,note_on,,1,0,8,,,,,,,,,,,,,,,,11,,63,48
26640,note_on,,0,0,11,,,,,,,,,,,,,,,,15,,63,48
26640,note_on,,1,0,7,,,,,,,,,,,,,,,,10,,63,48
26640,note_on,,1,0,10,,,,,,,,,,,,,,,,13,,51,48
26640,note_on,,1,0,6,,,,,,,,,,,,,,,,8,,51,74
26699,note_on,,59,0,10,,,,,,,,,,,,,,,,13,,51,0
26699,note_on,,59,0,5,,,,,,,,,,,,,,,,2,,51,0
26699,note_on,,59,0,11,,,,,,,,,,,,,,,,15,,51,0
26699,note_on,,0,0,11,,,,,,,,,,,,,,,,15,,63,0
26699,note_on,,59,0,6,,,,,,,,,,,,,,,,8,,51,0
26699,note_on,,59,0,9,,,,,,,,,,,,,,,,12,,63,0
26699,note_on,,59,0,7,,,,,,,,,,,,,,,,10,,63,0
26699,note_on,,59,0,8,,,,,,,,,,,,,,,,11,,63,0
26700,note_on,,1,0,10,,,,,,,,,,,,,,,,13,,52,48
26700,note_on,,1,0,8,,,,,,,,,,,,,,,,11,,64,48
26700,note_on,,1,0,6,,,,,,,,,,,,,,,,8,,52,72
26700,note_on,,1,0,5,,,,,,,,,,,,,,,,2,,52,48
26700,note_on,,1,0,11,,,,,,,,,,,,,,,,15,,52,48
26700,note_on,,1,0,7,,,,,,,,,,,,,,,,10,,64,48
26700,note_on,,1,0,9,,,,,,,,,,,,,,,,12,,64,48
26700,note_on,,0,0,11,,,,,,,,,,,,,,,,15,,64,48
26759,note_on,,59,0,9,,,,,,,,,,,,,,,,12,,64,0
26759,note_on,,59,0,10,,,,,,,,,,,,,,,,13,,52,0
26759,note_on,,59,0,6,,,,,,,,,,,,,,,,8,,52,0
26759,note_on,,59,0,5,,,,,,,,,,,,,,,,2,,52,0
26759,note_on,,59,0,7,,,,,,,,,,,,,,,,10,,64,0
26759,note_on,,59,0,8,,,,,,,,,,,,,,,,11,,64,0
26759,note_on,,0,0,11,,,,,,,,,,,,,,,,15,,64,0
26759,note_on,,59,0,11,,,,,,,,,,,,,,,,15,,52,0
26760,note_on,,1,0,7,,,,,,,,,,,,,,,,10,,61,48
26760,note_on,,1,0,10,,,,,,,,,,,,,,,,13,,49,48
26760,note_on,,1,0,5,,,,,,,,,,,,,,,,2,,49,48
26760,note_on,,0,0,11,,,,,,,,,,,,,,,,15,,61,48
26760,note_on,,1,0,11,,,,,,,,,,,,,,,,15,,49,48
26760,note_on,,1,0,9,,,,,,,,,,,,,,,,12,,61,48
26760,note_on,,1,0,6,,,,,,,,,,,,,,,,8,,49,72
26760,note_on,,1,0,8,,,,,,,,,,,,,,,,11,,61,48
26819,note_on,,59,0,8,,,,,,,,,,,,,,,,11,,61,0
26819,note_on,,59,0,9,,,,,,,,,,,,,,,,12,,61,0
26819,note_on,,59,0,7,,,,,,,,,,,,,,,,10,,61,0
26819,note_on,,59,0,6,,,,,,,,,,,,,,,,8,,49,0
26819,note_on,,59,0,11,,,,,,,,,,,,,,,,15,,49,0
26819,note_on,,0,0,11,,,,,,,,,,,,,,,,15,,61,0
26819,note_on,,59,0,10,,,,,,,,,,,,,,,,13,,49,0
26819,note_on,,59,0,5,,,,,,,,,,,,,,,,2,,49,0
26820,note_on,,1,0,5,,,,,,,,,,,,,,,,2,,50,48
26820,note_on,,1,0,6,,,,,,,,,,,,,,,,8,,50,70
26820,note_on,,1,0,9,,,,,,,,,,,,,,,,12,,62,48
26820,note_on,,1,0,10,,,,,,,,,,,,,,,,13,,50,48
26820,note_on,,1,0,11,,,,,,,,,,,,,,,,15,,50,48
26820,note_on,,0,0,11,,,,,,,,,,,,,,,,15,,62,48
26820,note_on,,1,0,7,,,,,,,,,,,,,,,,10,,62,48
26820,note_on,,1,0,8,,,,,,,,,,,,,,,,11,,62,48
26879,note_on,,59,0,6,,,,,,,,,,,,,,,,8,,50,0
26879,note_on,,59,0,11,,,,,,,,,,,,,,,,15,,50,0
26879,note_on,,59,0,8,,,,,,,,,,,,,,,,11,,62,0
26879,note_on,,0,0,11,,,,,,,,,,,,,,,,15,,62,0
26879,note_on,,59,0,7,,,,,,,,,,,,,,,,10,,62,0
26879,note_on,,59,0,9,,,,,,,,,,,,,,,,12,,62,0
26879,note_on,,59,0,5,,,,,,,,,,,,,,,,2,,50,0
26879,note_on,,59,0,10,,,,,,,,,,,,,,,,13,,50,0
26880,note_on,,1,0,11,,,,,,,,,,,,,,,,15,,47,48
26880,note_on,,0,0,11,,,,,,,,,,,,,,,,15,,59,48
26880,note_on,,1,0,7,,,,,,,,,,,,,,,,10,,59,48
26880,note_on,,1,0,10,,,,,,,,,,,,,,,,13,,47,48
26880,note_on,,1,0,9,,,,,,,,,,,,,,,,12,,59,48
26880,note_on,,1,0,6,,,,,,,,,,,,,,,,8,,47,74
26880,note_on,,1,0,5,,,,,,,,,,,,,,,,2,,47,48
26880,note_on,,1,0,8,,,,,,,,,,,,,,,,11,,59,48
26939,note_on,,59,0,6,,,,,,,,,,,,,,,,8,,47,0
26939,note_on,,59,0,8,,,,,,,,,,,,,,,,11,,59,0
26939,note_on,,59,0,10,,,,,,,,,,,,,,,,13,,47,0
26939,note_on,,59,0,7,,,,,,,,,,,,,,,,10,,59,0
26939,note_on,,59,0,9,,,,,,,,,,,,,,,,12,,59,0
26939,note_on,,59,0,5,,,,,,,,,,,,,,,,2,,47,0
26939,note_on,,0,0,11,,,,,,,,,,,,,,,,15,,59,0
26939,note_on,,59,0,11,,,,,,,,,,,,,,,,15,,47,0
26940,note_on,,1,0,7,,,,,,,,,,,,,,,,10,,66,48
26940,note_on,,1,0,10,,,,,,,,,,,,,,,,13,,54,48
26940,note_on,,1,0,5,,,,,,,,,,,,,,,,2,,54,48
26940,note_on,,0,0,11,,,,,,,,,,,,,,,,15,,66,48
26940,note_on,,1,0,11,,,,,,,,,,,,,,,,15,,54,48
26940,note_on,,1,0,8,,,,,,,,,,,,,,,,11,,66,48
26940,note_on,,1,0,6,,,,,,,,,,,,,,,,8,,54,71
26940,note_on,,1,0,9,,,,,,,,,,,,,,,,12,,66,48
27059,note_on,,119,0,11,,,,,,,,,,,,,,,,15,,66,0
27060,note_on,,0,0,11,,,,,,,,,,,,,,,,15,,61,48
27060,note_on,,0,0,11,,,,,,,,,,,,,,,,15,,66,48
27060,note_on,,1,0,11,,,,,,,,,,,,,,,,15,,70,48
27179,note_on,,239,0,5,,,,,,,,,,,,,,,,2,,54,0
27179,note_on,,239,0,7,,,,,,,,,,,,,,,,10,,66,0
27179,note_on,,239,0,10,,,,,,,,,,,,,,,,13,,54,0
27179,note_on,,0,0,11,,,,,,,,,,,,,,,,15,,70,0
27179,note_on,,239,0,6,,,,,,,,,,,,,,,,8,,54,0
27179,note_on,,239,0,9,,,,,,,,,,,,,,,,12,,66,0
27179,note_on,,239,0,8,,,,,,,,,,,,,,,,11,,66,0
27179,note_on,,0,0,11,,,,,,,,,,,,,,,,15,,61,0
27179,note_on,,0,0,11,,,,,,,,,,,,,,,,15,,66,0
27179,note_on,,119,0,11,,,,,,,,,,,,,,,,15,,54,0
27180,note_on,,0,0,11,,,,,,,,,,,,,,,,15,,66,48
27180,note_on,,0,0,11,,,,,,,,,,,,,,,,15,,71,48
27180,note_on,,1,0,11,,,,,,,,,,,,,,,,15,,47,48
27180,note_on,,0,0,11,,,,,,,,,,,,,,,,15,,62,48
27180,note_on,,1,0,10,,,,,,,,,,,,,,,,13,,47,48
27180,note_on,,1,0,7,,,,,,,,,,,,,,,,10,,59,48
27180,note_on,,1,0,9,,,,,,,,,,,,,,,,12,,59,48
27180,note_on,,1,0,5,,,,,,,,,,,,,,,,2,,47,48
27180,note_on,,1,0,8,,,,,,,,,,,,,,,,11,,59,48
27180,note_on,,0,0,11,,,,,,,,,,,,,,,,15,,54,48
27180,note_on,,1,0,6,,,,,,,,,,,,,,,,8,,47,69
27299,note_on,,119,0,9,,,,,,,,,,,,,,,,12,,59,0
27299,note_on,,119,0,5,,,,,,,,,,,,,,,,2,,47,0
27299,note_on,,119,0,8,,,,,,,,,,,,,,,,11,,59,0
27299,note_on,,119,0,6,,,,,,,,,,,,,,,,8,,47,0
27299,note_on,,0,0,11,,,,,,,,,,,,,,,,15,,71,0
27299,note_on,,0,0,11,,,,,,,,,,,,,,,,15,,54,0
27299,note_on,,119,0,11,,,,,,,,,,,,,,,,15,,47,0
27299,note_on,,119,0,7,,,,,,,,,,,,,,,,10,,59,0
27299,note_on,,119,0,10,,,,,,,,,,,,,,,,13,,47,0
27299,note_on,,0,0,11,,,,,,,,,,,,,,,,15,,62,0
27299,note_on,,0,0,11,,,,,,,,,,,,,,,,15,,66,0
27360,note_on,,61,0,8,,,,,,,,,,,,,,,,11,,74,48
27360,note_on,,61,0,7,,,,,,,,,,,,,,,,10,,74,48
27360,note_on,,61,0,9,,,,,,,,,,,,,,,,12,,74,48
27360,note_on,,61,0,6,,,,,,,,,,,,,,,,8,,62,74
27360,note_on,,61,0,11,,,,,,,,,,,,,,,,15,,62,48
27360,note_on,,61,0,10,,,,,,,,,,,,,,,,13,,62,48
27360,note_on,,0,0,11,,,,,,,,,,,,,,,,15,,74,48
27360,note_on,,61,0,5,,,,,,,,,,,,,,,,2,,62,48
27419,note_on,,59,0,8,,,,,,,,,,,,,,,,11,,74,0
27419,note_on,,59,0,10,,,,,,,,,,,,,,,,13,,62,0
27419,note_on,,59,0,9,,,,,,,,,,,,,,,,12,,74,0
27419,note_on,,59,0,6,,,,,,,,,,,,,,,,8,,62,0
27419,note_on,,59,0,5,,,,,,,,,,,,,,,,2,,62,0
27419,note_on,,59,0,11,,,,,,,,,,,,,,,,15,,62,0
27419,note_on,,59,0,7,,,,,,,,,,,,,,,,10,,74,0
27419,note_on,,0,0,11,,,,,,,,,,,,,,,,15,,74,0
27420,note_on,,1,0,7,,,,,,,,,,,,,,,,10,,73,48
27420,note_on,,1,0,9,,,,,,,,,,,,,,,,12,,73,48
27420,note_on,,1,0,10,,,,,,,,,,,,,,,,13,,61,48
27420,note_on,,1,0,5,,,,,,,,,,,,,,,,2,,61,48
27420,note_on,,1,0,6,,,,,,,,,,,,,,,,8,,61,73
27420,note_on,,1,0,11,,,,,,,,,,,,,,,,15,,61,48
27420,note_on,,1,0,8,,,,,,,,,,,,,,,,11,,73,48
27420,note_on,,0,0,11,,,,,,,,,,,,,,,,15,,73,48
27479,note_on,,59,0,7,,,,,,,,,,,,,,,,10,,73,0
27479,note_on,,59,0,9,,,,,,,,,,,,,,,,12,,73,0
27479,note_on,,59,0,8,,,,,,,,,,,,,,,,11,,73,0
27479,note_on,,59,0,6,,,,,,,,,,,,,,,,8,,61,0
27479,note_on,,59,0,10,,,,,,,,,,,,,,,,13,,61,0
27479,note_on,,59,0,11,,,,,,,,,,,,,,,,15,,61,0
27479,note_on,,0,0,11,,,,,,,,,,,,,,,,15,,73,0
27479,note_on,,59,0,5,,,,,,,,,,,,,,,,2,,61,0
27480,note_on,,0,0,11,,,,,,,,,,,,,,,,15,,70,48
27480,note_on,,1,0,7,,,,,,,,,,,,,,,,10,,70,48
27480,note_on,,1,0,8,,,,,,,,,,,,,,,,11,,70,48
27480,note_on,,1,0,5,,,,,,,,,,,,,,,,2,,58,48
27480,note_on,,1,0,11,,,,,,,,,,,,,,,,15,,58,48
27480,note_on,,1,0,10,,,,,,,,,,,,,,,,13,,58,48
27480,note_on,,1,0,6,,,,,,,,,,,,,,,,8,,58,69
27480,note_on,,1,0,9,,,,,,,,,,,,,,,,12,,70,48
27539,note_on,,59,0,8,,,,,,,,,,,,,,,,11,,70,0
27539,note_on,,59,0,9,,,,,,,,,,,,,,,,12,,70,0
27539,note_on,,0,0,11,,,,,,,,,,,,,,,,15,,70,0
27539,note_on,,59,0,5,,,,,,,,,,,,,,,,2,,58,0
27539,note_on,,59,0,10,,,,,,,,,,,,,,,,13,,58,0
27539,note_on,,59,0,7,,,,,,,,,,,,,,,,10,,70,0
27539,note_on,,59,0,6,,,,,,,,,,,,,,,,8,,58,0
27539,note_on,,59,0,11,,,,,,,,,,,,,,,,15,,58,0
27540,note_on,,1,0,5,,,,,,,,,,,,,,,,2,,59,48
27540,note_on,,1,0,7,,,,,,,,,,,,,,,,10,,71,48
27540,note_on,,0,0,11,,,,,,,,,,,,,,,,15,,71,48
27540,note_on,,1,0,11,,,,,,,,,,,,,,,,15,,59,48
27540,note_on,,1,0,6,,,,,,,,,,,,,,,,8,,59,74
27540,note_on,,1,0,9,,,,,,,,,,,,,,,,12,,71,48
27540,note_on,,1,0,10,,,,,,,,,,,,,,,,13,,59,48
27540,note_on,,1,0,8,,,,,,,,,,,,,,,,11,,71,48
27599,note_on,,59,0,5,,,,,,,,,,,,,,,,2,,59,0
27599,note_on,,59,0,10,,,,,,,,,,,,,,,,13,,59,0
27599,note_on,,59,0,11,,,,,,,,,,,,,,,,15,,59,0
27599,note_on,,59,0,6,,,,,,,,,,,,,,,,8,,59,0
27599,note_on,,0,0,11,,,,,,,,,,,,,,,,15,,71,0
27599,note_on,,59,0,9,,,,,,,,,,,,,,,,12,,71,0
27599,note_on,,59,0,7,,,,,,,,,,,,,,,,10,,71,0
27599,note_on,,59,0,8,,,,,,,,,,,,,,,,11,,71,0
27600,note_on,,1,0,7,,,,,,,,,,,,,,,,10,,67,48
27600,note_on,,0,0,11,,,,,,,,,,,,,,,,15,,67,48
27600,note_on,,1,0,11,,,,,,,,,,,,,,,,15,,55,48
27600,note_on,,1,0,9,,,,,,,,,,,,,,,,12,,67,48
27600,note_on,,1,0,10,,,,,,,,,,,,,,,,13,,55,48
27600,note_on,,1,0,8,,,,,,,,,,,,,,,,11,,67,48
27600,note_on,,1,0,6,,,,,,,,,,,,,,,,8,,55,70
27600,note_on,,1,0,5,,,,,,,,,,,,,,,,2,,55,48
27659,note_on,,59,0,8,,,,,,,,,,,,,,,,11,,67,0
27659,note_on,,59,0,9,,,,,,,,,,,,,,,,12,,67,0
27659,note_on,,59,0,11,,,,,,,,,,,,,,,,15,,55,0
27659,note_on,,59,0,6,,,,,,,,,,,,,,,,8,,55,0
27659,note_on,,0,0,11,,,,,,,,,,,,,,,,15,,67,0
27659,note_on,,59,0,10,,,,,,,,,,,,,,,,13,,55,0
27659,note_on,,59,0,7,,,,,,,,,,,,,,,,10,,67,0
27659,note_on,,59,0,5,,,,,,,,,,,,,,,,2,,55,0
27660,note_on,,1,0,9,,,,,,,,,,,,,,,,12,,66,48
27660,note_on,,1,0,11,,,,,,,,,,,,,,,,15,,54,48
27660,note_on,,0,0,11,,,,,,,,,,,,,,,,15,,66,48
27660,note_on,,1,0,10,,,,,,,,,,,,,,,,13,,54,48
27660,note_on,,1,0,7,,,,,,,,,,,,,,,,10,,66,48
27660,note_on,,1,0,6,,,,,,,,,,,,,,,,8,,54,72
27660,note_on,,1,0,5,,,,,,,,,,,,,,,,2,,54,48
27660,note_on,,1,0,8,,,,,,,,,,,,,,,,11,,66,48
27719,note_on,,59,0,9,,,,,,,,,,,,,,,,12,,66,0
27719,note_on,,0,0,11,,,,,,,,,,,,,,,,15,,66,0
27719,note_on,,59,0,11,,,,,,,,,,,,,,,,15,,54,0
27719,note_on,,59,0,6,,,,,,,,,,,,,,,,8,,54,0
27719,note_on,,59,0,8,,,,,,,,,,,,,,,,11,,66,0
27719,note_on,,59,0,7,,,,,,,,,,,,,,,,10,,66,0
27719,note_on,,59,0,10,,,,,,,,,,,,,,,,13,,54,0
27719,note_on,,59,0,5,,,,,,,,,,,,,,,,2,,54,0
27720,note_on,,1,0,7,,,,,,,,,,,,,,,,10,,70,48
27720,note_on,,1,0,9,,,,,,,,,,,,,,,,12,,70,48
27720,note_on,,1,0,5,,,,,,,,,,,,,,,,2,,58,48
27720,note_on,,1,0,8,,,,,,,,,,,,,,,,11,,70,48
27720,note_on,,1,0,11,,,,,,,,,,,,,,,,15,,58,48
27720,note_on,,1,0,6,,,,,,,,,,,,,,,,8,,58,71
27720,note_on,,1,0,10,,,,,,,,,,,,,,,,13,,58,48
27720,note_on,,0,0,11,,,,,,,,,,,,,,,,15,,70,48
27779,note_on,,59,0,10,,,,,,,,,,,,,,,,13,,58,0
27779,note_on,,59,0,7,,,,,,,,,,,,,,,,10,,70,0
27779,note_on,,59,0,9,,,,,,,,,,,,,,,,12,,70,0
27779,note_on,,59,0,8,,,,,,,,,,,,,,,,11,,70,0
27779,note_on,,59,0,5,,,,,,,,,,,,,,,,2,,58,0
27779,note_on,,59,0,6,,,,,,,,,,,,,,,,8,,58,0
27779,note_on,,59,0,11,,,,,,,,,,,,,,,,15,,58,0
27779,note_on,,0,0,11,,,,,,,,,,,,,,,,15,,70,0
27780,note_on,,1,0,5,,,,,,,,,,,,,,,,2,,59,48
27780,note_on,,0,0,11,,,,,,,,,,,,,,,,15,,71,48
27780,note_on,,1,0,8,,,,,,,,,,,,,,,,11,,71,48
27780,note_on,,1,0,6,,,,,,,,,,,,,,,,8,,59,69
27780,note_on,,1,0,10,,,,,,,,,,,,,,,,13,,59,48
27780,note_on,,1,0,7,,,,,,,,,,,,,,,,10,,71,48
27780,note_on,,1,0,11,,,,,,,,,,,,,,,,15,,59,48
27780,note_on,,1,0,9,,,,,,,,,,,,,,,,12,,71,48
27839,note_on,,59,0,9,,,,,,,,,,,,,,,,12,,71,0
27839,note_on,,0,0,11,,,,,,,,,,,,,,,,15,,71,0
27839,note_on,,59,0,8,,,,,,,,,,,,,,,,11,,71,0
27839,note_on,,59,0,6,,,,,,,,,,,,,,,,8,,59,0
27839,note_on,,59,0,7,,,,,,,,,,,,,,,,10,,71,0
27839,note_on,,59,0,10,,,,,,,,,,,,,,,,13,,59,0
27839,note_on,,59,0,5,,,,,,,,,,,,,,,,2,,59,0
27839,note_on,,59,0,11,,,,,,,,,,,,,,,,15,,59,0
27840,note_on,,1,0,11,,,,,,,,,,,,,,,,15,,52,48
27840,note_on,,1,0,6,,,,,,,,,,,,,,,,8,,52,73
27840,note_on,,1,0,7,,,,,,,,,,,,,,,,10,,64,48
27840,note_on,,1,0,10,,,,,,,,,,,,,,,,13,,52,48
27840,note_on,,1,0,8,,,,,,,,,,,,,,,,11,,64,48
27840,note_on,,0,0,11,,,,,,,,,,,,,,,,15,,64,48
27840,note_on,,1,0,9,,,,,,,,,,,,,,,,12,,64,48
27840,note_on,,1,0,5,,,,,,,,,,,,,,,,2,,52,48
27899,note_on,,59,0,11,,,,,,,,,,,,,,,,15,,52,0
27899,note_on,,59,0,8,,,,,,,,,,,,,,,,11,,64,0
27899,note_on,,59,0,9,,,,,,,,,,,,,,,,12,,64,0
27899,note_on,,59,0,10,,,,,,,,,,,,,,,,13,,52,0
27899,note_on,,59,0,5,,,,,,,,,,,,,,,,2,,52,0
27899,note_on,,59,0,7,,,,,,,,,,,,,,,,10,,64,0
27899,note_on,,59,0,6,,,,,,,,,,,,,,,,8,,52,0
27899,note_on,,0,0,11,,,,,,,,,,,,,,,,15,,64,0
27900,note_on,,1,0,11,,,,,,,,,,,,,,,,15,,54,48
27900,note_on,,1,0,8,,,,,,,,,,,,,,,,11,,66,48
27900,note_on,,1,0,9,,,,,,,,,,,,,,,,12,,66,48
27900,note_on,,0,0,11,,,,,,,,,,,,,,,,15,,66,48
27900,note_on,,1,0,7,,,,,,,,,,,,,,,,10,,66,48
27900,note_on,,1,0,6,,,,,,,,,,,,,,,,8,,54,69
27900,note_on,,1,0,5,,,,,,,,,,,,,,,,2,,54,48
27900,note_on,,1,0,10,,,,,,,,,,,,,,,,13,,54,48
28019,note_on,,119,0,11,,,,,,,,,,,,,,,,15,,66,0
28020,note_on,,0,0,11,,,,,,,,,,,,,,,,15,,70,48
28020,note_on,,0,0,11,,,,,,,,,,,,,,,,15,,66,48
28020,note_on,,0,0,11,,,,,,,,,,,,,,,,15,,61,48
28020,note_on,,1,0,11,,,,,,,,,,,,,,,,15,,73,48
28139,note_on,,0,0,11,,,,,,,,,,,,,,,,15,,70,0
28139,note_on,,239,0,5,,,,,,,,,,,,,,,,2,,54,0
28139,note_on,,239,0,10,,,,,,,,,,,,,,,,13,,54,0
28139,note_on,,0,0,11,,,,,,,,,,,,,,,,15,,61,0
28139,note_on,,119,0,11,,,,,,,,,,,,,,,,15,,54,0
28139,note_on,,0,0,11,,,,,,,,,,,,,,,,15,,73,0
28139,note_on,,239,0,6,,,,,,,,,,,,,,,,8,,54,0
28139,note_on,,0,0,11,,,,,,,,,,,,,,,,15,,66,0
28139,note_on,,239,0,7,,,,,,,,,,,,,,,,10,,66,0
28139,note_on,,239,0,9,,,,,,,,,,,,,,,,12,,66,0
28139,note_on,,239,0,8,,,,,,,,,,,,,,,,11,,66,0
28140,note_on,,1,0,10,,,,,,,,,,,,,,,,13,,47,48
28140,note_on,,0,0,11,,,,,,,,,,,,,,,,15,,66,48
28140,note_on,,1,0,7,,,,,,,,,,,,,,,,10,,59,48
28140,note_on,,1,0,6,,,,,,,,,,,,,,,,8,,47,75
28140,note_on,,1,0,5,,,,,,,,,,,,,,,,2,,47,48
28140,note_on,,1,0,9,,,,,,,,,,,,,,,,12,,59,48
28140,note_on,,0,0,11,,,,,,,,,,,,,,,,15,,74,48
28140,note_on,,0,0,11,,,,,,,,,,,,,,,,15,,54,48
28140,note_on,,1,0,11,,,,,,,,,,,,,,,,15,,47,48
28140,note_on,,0,0,11,,,,,,,,,,,,,,,,15,,71,48
28140,note_on,,1,0,8,,,,,,,,,,,,,,,,11,,59,48
28199,note_on,,59,0,10,,,,,,,,,,,,,,,,13,,47,0
28199,note_on,,59,0,5,,,,,,,,,,,,,,,,2,,47,0
28199,note_on,,0,0,11,,,,,,,,,,,,,,,,15,,54,0
28199,note_on,,59,0,11,,,,,,,,,,,,,,,,15,,47,0
28199,note_on,,59,0,9,,,,,,,,,,,,,,,,12,,59,0
28200,note_on,,1,0,11,,,,,,,,,,,,,,,,15,,59,72
28200,note_on,,1,0,10,,,,,,,,,,,,,,,,13,,59,72
28200,note_on,,1,0,9,,,,,,,,,,,,,,,,12,,71,72
28200,note_on,,1,0,5,,,,,,,,,,,,,,,,2,,59,72
28259,note_on,,59,0,10,,,,,,,,,,,,,,,,13,,59,0
28259,note_on,,59,0,9,,,,,,,,,,,,,,,,12,,71,0
28259,note_on,,59,0,5,,,,,,,,,,,,,,,,2,,59,0
28259,note_on,,119,0,8,,,,,,,,,,,,,,,,11,,59,0
28259,note_on,,0,0,11,,,,,,,,,,,,,,,,15,,59,0
28259,end_of_track,,0,1,6,,,,,,,,,,,,,,,,,,,
28259,note_on,,0,0,11,,,,,,,,,,,,,,,,15,,66,0
28259,note_on,,0,0,11,,,,,,,,,,,,,,,,15,,71,0
28259,note_on,,59,0,11,,,,,,,,,,,,,,,,15,,74,0
28259,note_on,,119,0,6,,,,,,,,,,,,,,,,8,,47,0
28259,note_on,,119,0,7,,,,,,,,,,,,,,,,10,,59,0
28260,note_on,,1,0,9,,,,,,,,,,,,,,,,12,,66,72
28260,note_on,,1,0,10,,,,,,,,,,,,,,,,13,,54,72
28260,note_on,,1,0,5,,,,,,,,,,,,,,,,2,,54,72
28260,note_on,,1,0,11,,,,,,,,,,,,,,,,15,,54,72
28319,note_on,,59,0,11,,,,,,,,,,,,,,,,15,,54,0
28319,note_on,,59,0,10,,,,,,,,,,,,,,,,13,,54,0
28319,note_on,,59,0,5,,,,,,,,,,,,,,,,2,,54,0
28319,note_on,,59,0,9,,,,,,,,,,,,,,,,12,,66,0
28320,note_on,,1,0,11,,,,,,,,,,,,,,,,15,,50,72
28320,note_on,,1,0,10,,,,,,,,,,,,,,,,13,,50,72
28320,note_on,,0,0,11,,,,,,,,,,,,,,,,15,,66,72
28320,note_on,,0,0,11,,,,,,,,,,,,,,,,15,,71,72
28320,note_on,,1,0,5,,,,,,,,,,,,,,,,2,,50,72
28320,note_on,,1,0,9,,,,,,,,,,,,,,,,12,,62,72
28320,note_on,,61,0,7,,,,,,,,,,,,,,,,10,,78,72
28320,note_on,,61,0,8,,,,,,,,,,,,,,,,11,,78,72
28379,note_on,,0,0,11,,,,,,,,,,,,,,,,15,,71,0
28379,note_on,,59,0,11,,,,,,,,,,,,,,,,15,,50,0
28379,note_on,,0,0,11,,,,,,,,,,,,,,,,15,,66,0
28379,note_on,,59,0,7,,,,,,,,,,,,,,,,10,,78,0
28379,note_on,,59,0,10,,,,,,,,,,,,,,,,13,,50,0
28379,note_on,,59,0,9,,,,,,,,,,,,,,,,12,,62,0
28379,note_on,,59,0,5,,,,,,,,,,,,,,,,2,,50,0
28379,note_on,,59,0,8,,,,,,,,,,,,,,,,11,,78,0
28380,note_on,,1,0,10,,,,,,,,,,,,,,,,13,,47,72
28380,note_on,,0,0,11,,,,,,,,,,,,,,,,15,,66,72
28380,note_on,,0,0,11,,,,,,,,,,,,,,,,15,,71,72
28380,note_on,,0,0,11,,,,,,,,,,,,,,,,15,,74,72
28380,note_on,,0,0,11,,,,,,,,,,,,,,,,15,,78,72
28380,note_on,,1,0,11,,,,,,,,,,,,,,,,15,,47,72
28380,note_on,,1,0,7,,,,,,,,,,,,,,,,10,,83,72
28380,note_on,,1,0,9,,,,,,,,,,,,,,,,12,,59,72
28380,note_on,,1,0,5,,,,,,,,,,,,,,,,2,,47,72
28380,note_on,,1,0,8,,,,,,,,,,,,,,,,11,,83,72
28439,note_on,,59,0,8,,,,,,,,,,,,,,,,11,,83,0
28439,note_on,,59,0,7,,,,,,,,,,,,,,,,10,,83,0
28440,note_on,,1,0,8,,,,,,,,,,,,,,,,11,,82,72
28440,note_on,,1,0,7,,,,,,,,,,,,,,,,10,,82,72
28499,note_on,,0,0,11,,,,,,,,,,,,,,,,15,,66,0
28499,note_on,,0,0,11,,,,,,,,,,,,,,,,15,,71,0
28499,note_on,,0,0,11,,,,,,,,,,,,,,,,15,,74,0
28499,note_on,,0,0,11,,,,,,,,,,,,,,,,15,,78,0
28499,note_on,,119,0,11,,,,,,,,,,,,,,,,15,,47,0
28499,note_on,,119,0,5,,,,,,,,,,,,,,,,2,,47,0
28499,note_on,,59,0,8,,,,,,,,,,,,,,,,11,,82,0
28499,note_on,,119,0,9,,,,,,,,,,,,,,,,12,,59,0
28499,note_on,,119,0,10,,,,,,,,,,,,,,,,13,,47,0
28499,note_on,,59,0,7,,,,,,,,,,,,,,,,10,,82,0
28500,note_on,,1,0,8,,,,,,,,,,,,,,,,11,,83,72
28500,note_on,,1,0,7,,,,,,,,,,,,,,,,10,,83,72
28559,note_on,,59,0,7,,,,,,,,,,,,,,,,10,,83,0
28559,note_on,,59,0,8,,,,,,,,,,,,,,,,11,,83,0
28560,note_on,,61,0,11,,,,,,,,,,,,,,,,15,,61,72
28560,note_on,,0,0,11,,,,,,,,,,,,,,,,15,,76,72
28560,note_on,,0,0,11,,,,,,,,,,,,,,,,15,,73,72
28560,note_on,,0,0,11,,,,,,,,,,,,,,,,15,,70,72
28560,note_on,,1,0,7,,,,,,,,,,,,,,,,10,,82,72
28560,note_on,,61,0,10,,,,,,,,,,,,,,,,13,,61,72
28560,note_on,,1,0,8,,,,,,,,,,,,,,,,11,,82,72
28560,note_on,,61,0,9,,,,,,,,,,,,,,,,12,,73,72
28560,note_on,,61,0,5,,,,,,,,,,,,,,,,2,,61,72
28619,note_on,,59,0,9,,,,,,,,,,,,,,,,12,,73,0
28619,note_on,,59,0,5,,,,,,,,,,,,,,,,2,,61,0
28619,note_on,,59,0,8,,,,,,,,,,,,,,,,11,,82,0
28619,note_on,,0,0,11,,,,,,,,,,,,,,,,15,,76,0
28619,note_on,,59,0,11,,,,,,,,,,,,,,,,15,,61,0
28619,note_on,,0,0,11,,,,,,,,,,,,,,,,15,,70,0
28619,note_on,,59,0,7,,,,,,,,,,,,,,,,10,,82,0
28619,note_on,,59,0,10,,,,,,,,,,,,,,,,13,,61,0
28619,note_on,,0,0,11,,,,,,,,,,,,,,,,15,,73,0
28620,note_on,,1,0,11,,,,,,,,,,,,,,,,15,,62,72
28620,note_on,,1,0,10,,,,,,,,,,,,,,,,13,,62,72
28620,note_on,,0,0,11,,,,,,,,,,,,,,,,15,,74,72
28620,note_on,,0,0,11,,,,,,,,,,,,,,,,15,,71,72
28620,note_on,,0,0,11,,,,,,,,,,,,,,,,15,,66,72
28620,note_on,,1,0,8,,,,,,,,,,,,,,,,11,,83,72
28620,note_on,,1,0,7,,,,,,,,,,,,,,,,10,,83,72
28620,note_on,,1,0,9,,,,,,,,,,,,,,,,12,,74,72
28620,note_on,,1,0,5,,,,,,,,,,,,,,,,2,,62,72
28679,note_on,,0,0,11,,,,,,,,,,,,,,,,15,,74,0
28679,note_on,,0,0,11,,,,,,,,,,,,,,,,15,,66,0
28679,note_on,,59,0,9,,,,,,,,,,,,,,,,12,,74,0
28679,note_on,,59,0,10,,,,,,,,,,,,,,,,13,,62,0
28679,note_on,,0,0,11,,,,,,,,,,,,,,,,15,,71,0
28679,note_on,,59,0,11,,,,,,,,,,,,,,,,15,,62,0
28679,note_on,,59,0,7,,,,,,,,,,,,,,,,10,,83,0
28679,note_on,,59,0,5,,,,,,,,,,,,,,,,2,,62,0
28679,note_on,,59,0,8,,,,,,,,,,,,,,,,11,,83,0
28680,note_on,,1,0,9,,,,,,,,,,,,,,,,12,,70,72
28680,note_on,,1,0,7,,,,,,,,,,,,,,,,10,,85,72
28680,note_on,,1,0,5,,,,,,,,,,,,,,,,2,,58,72
28680,note_on,,0,0,11,,,,,,,,,,,,,,,,15,,64,72
28680,note_on,,0,0,11,,,,,,,,,,,,,,,,15,,66,72
28680,note_on,,0,0,11,,,,,,,,,,,,,,,,15,,73,72
28680,note_on,,1,0,11,,,,,,,,,,,,,,,,15,,58,72
28680,note_on,,1,0,10,,,,,,,,,,,,,,,,13,,58,72
28680,note_on,,1,0,8,,,,,,,,,,,,,,,,11,,85,72
28739,note_on,,0,0,11,,,,,,,,,,,,,,,,15,,73,0
28739,note_on,,0,0,11,,,,,,,,,,,,,,,,15,,66,0
28739,note_on,,0,0,11,,,,,,,,,,,,,,,,15,,64,0
28739,note_on,,59,0,11,,,,,,,,,,,,,,,,15,,58,0
28739,note_on,,59,0,9,,,,,,,,,,,,,,,,12,,70,0
28739,note_on,,59,0,7,,,,,,,,,,,,,,,,10,,85,0
28739,note_on,,59,0,10,,,,,,,,,,,,,,,,13,,58,0
28739,note_on,,59,0,8,,,,,,,,,,,,,,,,11,,85,0
28739,note_on,,59,0,5,,,,,,,,,,,,,,,,2,,58,0
28740,note_on,,0,0,11,,,,,,,,,,,,,,,,15,,62,72
28740,note_on,,0,0,11,,,,,,,,,,,,,,,,15,,66,72
28740,note_on,,0,0,11,,,,,,,,,,,,,,,,15,,71,72
28740,note_on,,1,0,11,,,,,,,,,,,,,,,,15,,59,72
28740,note_on,,1,0,8,,,,,,,,,,,,,,,,11,,86,72
28740,note_on,,1,0,7,,,,,,,,,,,,,,,,10,,86,72
28740,note_on,,1,0,5,,,,,,,,,,,,,,,,2,,59,72
28740,note_on,,1,0,10,,,,,,,,,,,,,,,,13,,59,72
28740,note_on,,1,0,9,,,,,,,,,,,,,,,,12,,71,72
28799,note_on,,59,0,5,,,,,,,,,,,,,,,,2,,59,0
28799,note_on,,59,0,10,,,,,,,,,,,,,,,,13,,59,0
28799,note_on,,59,0,9,,,,,,,,,,,,,,,,12,,71,0
28799,note_on,,59,0,8,,,,,,,,,,,,,,,,11,,86,0
28799,note_on,,0,0,11,,,,,,,,,,,,,,,,15,,71,0
28799,note_on,,0,0,11,,,,,,,,,,,,,,,,15,,66,0
28799,note_on,,0,0,11,,,,,,,,,,,,,,,,15,,62,0
28799,note_on,,59,0,11,,,,,,,,,,,,,,,,15,,59,0
28799,note_on,,59,0,7,,,,,,,,,,,,,,,,10,,86,0
28800,note_on,,0,0,11,,,,,,,,,,,,,,,,15,,70,72
28800,note_on,,1,0,11,,,,,,,,,,,,,,,,15,,54,72
28800,note_on,,1,0,7,,,,,,,,,,,,,,,,10,,82,72
28800,note_on,,1,0,5,,,,,,,,,,,,,,,,2,,54,72
28800,note_on,,0,0,11,,,,,,,,,,,,,,,,15,,61,72
28800,note_on,,0,0,11,,,,,,,,,,,,,,,,15,,66,72
28800,note_on,,1,0,9,,,,,,,,,,,,,,,,12,,66,72
28800,note_on,,1,0,10,,,,,,,,,,,,,,,,13,,54,72
28800,note_on,,1,0,8,,,,,,,,,,,,,,,,11,,82,72
28859,note_on,,59,0,10,,,,,,,,,,,,,,,,13,,54,0
28859,note_on,,0,0,11,,,,,,,,,,,,,,,,15,,70,0
28859,note_on,,0,0,11,,,,,,,,,,,,,,,,15,,66,0
28859,note_on,,0,0,11,,,,,,,,,,,,,,,,15,,61,0
28859,note_on,,59,0,11,,,,,,,,,,,,,,,,15,,54,0
28859,note_on,,59,0,7,,,,,,,,,,,,,,,,10,,82,0
28859,note_on,,59,0,5,,,,,,,,,,,,,,,,2,,54,0
28859,note_on,,59,0,8,,,,,,,,,,,,,,,,11,,82,0
28859,note_on,,59,0,9,,,,,,,,,,,,,,,,12,,66,0
28860,note_on,,1,0,5,,,,,,,,,,,,,,,,2,,47,72
28860,note_on,,0,0,11,,,,,,,,,,,,,,,,15,,62,72
28860,note_on,,1,0,8,,,,,,,,,,,,,,,,11,,83,72
28860,note_on,,1,0,10,,,,,,,,,,,,,,,,13,,47,72
28860,note_on,,1,0,9,,,,,,,,,,,,,,,,12,,59,72
28860,note_on,,1,0,7,,,,,,,,,,,,,,,,10,,83,72
28860,note_on,,0,0,11,,,,,,,,,,,,,,,,15,,66,72
28860,note_on,,0,0,11,,,,,,,,,,,,,,,,15,,71,72
28860,note_on,,1,0,11,,,,,,,,,,,,,,,,15,,47,72
28919,note_on,,59,0,8,,,,,,,,,,,,,,,,11,,83,0
28919,note_on,,59,0,7,,,,,,,,,,,,,,,,10,,83,0
28920,note_on,,1,0,8,,,,,,,,,,,,,,,,11,,79,72
28920,note_on,,1,0,7,,,,,,,,,,,,,,,,10,,79,72
28979,note_on,,59,0,7,,,,,,,,,,,,,,,,10,,79,0
28979,note_on,,119,0,11,,,,,,,,,,,,,,,,15,,62,0
28979,note_on,,59,0,8,,,,,,,,,,,,,,,,11,,79,0
28980,note_on,,1,0,8,,,,,,,,,,,,,,,,11,,78,72
28980,note_on,,1,0,11,,,,,,,,,,,,,,,,15,,61,72
28980,note_on,,1,0,7,,,,,,,,,,,,,,,,10,,78,72
29039,note_on,,179,0,5,,,,,,,,,,,,,,,,2,,47,0
29039,note_on,,59,0,8,,,,,,,,,,,,,,,,11,,78,0
29039,note_on,,179,0,9,,,,,,,,,,,,,,,,12,,59,0
29039,note_on,,59,0,11,,,,,,,,,,,,,,,,15,,47,0
29039,note_on,,179,0,10,,,,,,,,,,,,,,,,13,,47,0
29039,note_on,,59,0,7,,,,,,,,,,,,,,,,10,,78,0
29039,note_on,,0,0,11,,,,,,,,,,,,,,,,15,,61,0
29040,note_on,,1,0,11,,,,,,,,,,,,,,,,15,,49,72
29040,note_on,,1,0,5,,,,,,,,,,,,,,,,2,,49,72
29040,note_on,,1,0,8,,,,,,,,,,,,,,,,11,,77,72
29040,note_on,,1,0,10,,,,,,,,,,,,,,,,13,,49,72
29040,note_on,,1,0,7,,,,,,,,,,,,,,,,10,,77,72
29040,note_on,,1,0,9,,,,,,,,,,,,,,,,12,,61,72
29040,note_on,,0,0,11,,,,,,,,,,,,,,,,15,,59,72
29099,note_on,,0,0,11,,,,,,,,,,,,,,,,15,,59,0
29099,note_on,,0,0,11,,,,,,,,,,,,,,,,15,,49,0
29099,note_on,,59,0,10,,,,,,,,,,,,,,,,13,,49,0
29099,note_on,,59,0,8,,,,,,,,,,,,,,,,11,,77,0
29099,note_on,,0,0,11,,,,,,,,,,,,,,,,15,,66,0
29099,note_on,,59,0,9,,,,,,,,,,,,,,,,12,,61,0
29099,note_on,,59,0,11,,,,,,,,,,,,,,,,15,,71,0
29099,note_on,,59,0,7,,,,,,,,,,,,,,,,10,,77,0
29099,note_on,,59,0,5,,,,,,,,,,,,,,,,2,,49,0
29100,note_on,,1,0,11,,,,,,,,,,,,,,,,15,,46,72
29100,note_on,,1,0,10,,,,,,,,,,,,,,,,13,,46,72
29100,note_on,,0,0,11,,,,,,,,,,,,,,,,15,,61,72
29100,note_on,,0,0,11,,,,,,,,,,,,,,,,15,,66,72
29100,note_on,,1,0,9,,,,,,,,,,,,,,,,12,,58,72
29100,note_on,,0,0,11,,,,,,,,,,,,,,,,15,,54,72
29100,note_on,,1,0,5,,,,,,,,,,,,,,,,2,,46,72
29100,note_on,,1,0,7,,,,,,,,,,,,,,,,10,,78,72
29100,note_on,,1,0,8,,,,,,,,,,,,,,,,11,,78,72
29159,note_on,,59,0,7,,,,,,,,,,,,,,,,10,,78,0
29159,note_on,,59,0,8,,,,,,,,,,,,,,,,11,,78,0
29160,note_on,,1,0,8,,,,,,,,,,,,,,,,11,,75,72
29160,note_on,,1,0,7,,,,,,,,,,,,,,,,10,,75,72
29219,note_on,,59,0,7,,,,,,,,,,,,,,,,10,,75,0
29219,note_on,,59,0,8,,,,,,,,,,,,,,,,11,,75,0
29220,note_on,,1,0,8,,,,,,,,,,,,,,,,11,,76,72
29220,note_on,,1,0,7,,,,,,,,,,,,,,,,10,,76,72
29279,note_on,,179,0,5,,,,,,,,,,,,,,,,2,,46,0
29279,note_on,,0,0,11,,,,,,,,,,,,,,,,15,,54,0
29279,note_on,,0,0,11,,,,,,,,,,,,,,,,15,,61,0
29279,note_on,,179,0,10,,,,,,,,,,,,,,,,13,,46,0
29279,note_on,,0,0,11,,,,,,,,,,,,,,,,15,,66,0
29279,note_on,,179,0,9,,,,,,,,,,,,,,,,12,,58,0
29279,note_on,,179,0,11,,,,,,,,,,,,,,,,15,,46,0
29279,note_on,,59,0,7,,,,,,,,,,,,,,,,10,,76,0
29279,note_on,,59,0,8,,,,,,,,,,,,,,,,11,,76,0
29280,note_on,,1,0,5,,,,,,,,,,,,,,,,2,,54,72
29280,note_on,,1,0,10,,,,,,,,,,,,,,,,13,,54,72
29280,note_on,,1,0,9,,,,,,,,,,,,,,,,12,,66,72
29280,note_on,,0,0,11,,,,,,,,,,,,,,,,15,,61,72
29280,note_on,,0,0,11,,,,,,,,,,,,,,,,15,,66,72
29280,note_on,,0,0,11,,,,,,,,,,,,,,,,15,,70,72
29280,note_on,,1,0,8,,,,,,,,,,,,,,,,11,,73,72
29280,note_on,,1,0,7,,,,,,,,,,,,,,,,10,,73,72
29280,note_on,,1,0,11,,,,,,,,,,,,,,,,15,,54,72
29339,note_on,,59,0,7,,,,,,,,,,,,,,,,10,,73,0
29339,note_on,,59,0,11,,,,,,,,,,,,,,,,15,,54,0
29339,note_on,,59,0,9,,,,,,,,,,,,,,,,12,,66,0
29339,note_on,,59,0,5,,,,,,,,,,,,,,,,2,,54,0
29339,note_on,,59,0,10,,,,,,,,,,,,,,,,13,,54,0
29339,note_on,,59,0,8,,,,,,,,,,,,,,,,11,,73,0
29339,note_on,,0,0,11,,,,,,,,,,,,,,,,15,,70,0
29339,note_on,,0,0,11,,,,,,,,,,,,,,,,15,,66,0
29339,note_on,,0,0,11,,,,,,,,,,,,,,,,15,,61,0
29340,note_on,,0,0,11,,,,,,,,,,,,,,,,15,,71,72
29340,note_on,,1,0,11,,,,,,,,,,,,,,,,15,,59,72
29340,note_on,,1,0,8,,,,,,,,,,,,,,,,11,,74,72
29340,note_on,,1,0,7,,,,,,,,,,,,,,,,10,,74,72
29340,note_on,,0,0,11,,,,,,,,,,,,,,,,15,,66,72
29340,note_on,,0,0,11,,,,,,,,,,,,,,,,15,,62,72
29340,note_on,,1,0,10,,,,,,,,,,,,,,,,13,,59,72
29340,note_on,,1,0,5,,,,,,,,,,,,,,,,2,,59,72
29340,note_on,,1,0,9,,,,,,,,,,,,,,,,12,,71,72
29399,note_on,,0,0,11,,,,,,,,,,,,,,,,15,,62,0
29399,note_on,,0,0,11,,,,,,,,,,,,,,,,15,,66,0
29399,note_on,,0,0,11,,,,,,,,,,,,,,,,15,,71,0
29399,note_on,,59,0,11,,,,,,,,,,,,,,,,15,,59,0
29399,note_on,,59,0,5,,,,,,,,,,,,,,,,2,,59,0
29399,note_on,,59,0,8,,,,,,,,,,,,,,,,11,,74,0
29399,note_on,,59,0,7,,,,,,,,,,,,,,,,10,,74,0
29399,note_on,,59,0,10,,,,,,,,,,,,,,,,13,,59,0
29399,note_on,,59,0,9,,,,,,,,,,,,,,,,12,,71,0
29400,note_on,,0,0,11,,,,,,,,,,,,,,,,15,,70,72
29400,note_on,,1,0,8,,,,,,,,,,,,,,,,11,,70,72
29400,note_on,,0,0,11,,,,,,,,,,,,,,,,15,,73,72
29400,note_on,,1,0,10,,,,,,,,,,,,,,,,13,,54,72
29400,note_on,,1,0,9,,,,,,,,,,,,,,,,12,,66,72
29400,note_on,,1,0,11,,,,,,,,,,,,,,,,15,,54,72
29400,note_on,,0,0,11,,,,,,,,,,,,,,,,15,,66,72
29400,note_on,,1,0,7,,,,,,,,,,,,,,,,10,,70,72
29400,note_on,,1,0,5,,,,,,,,,,,,,,,,2,,54,72
29459,note_on,,59,0,10,,,,,,,,,,,,,,,,13,,54,0
29459,note_on,,59,0,7,,,,,,,,,,,,,,,,10,,70,0
29459,note_on,,0,0,11,,,,,,,,,,,,,,,,15,,66,0
29459,note_on,,0,0,11,,,,,,,,,,,,,,,,15,,70,0
29459,note_on,,0,0,11,,,,,,,,,,,,,,,,15,,73,0
29459,note_on,,59,0,8,,,,,,,,,,,,,,,,11,,70,0
29459,note_on,,59,0,9,,,,,,,,,,,,,,,,12,,66,0
29459,note_on,,59,0,11,,,,,,,,,,,,,,,,15,,54,0
29459,note_on,,59,0,5,,,,,,,,,,,,,,,,2,,54,0
29460,note_on,,1,0,11,,,,,,,,,,,,,,,,15,,55,72
29460,note_on,,1,0,10,,,,,,,,,,,,,,,,13,,55,72
29460,note_on,,1,0,7,,,,,,,,,,,,,,,,10,,71,72
29460,note_on,,0,0,11,,,,,,,,,,,,,,,,15,,71,72
29460,note_on,,1,0,9,,,,,,,,,,,,,,,,12,,67,72
29460,note_on,,1,0,5,,,,,,,,,,,,,,,,2,,55,72
29460,note_on,,1,0,8,,,,,,,,,,,,,,,,11,,71,72
29460,note_on,,0,0,11,,,,,,,,,,,,,,,,15,,62,72
29519,note_on,,59,0,10,,,,,,,,,,,,,,,,13,,55,0
29519,note_on,,59,0,5,,,,,,,,,,,,,,,,2,,55,0
29519,note_on,,59,0,8,,,,,,,,,,,,,,,,11,,71,0
29519,note_on,,0,0,11,,,,,,,,,,,,,,,,15,,62,0
29519,note_on,,0,0,11,,,,,,,,,,,,,,,,15,,71,0
29519,note_on,,59,0,11,,,,,,,,,,,,,,,,15,,55,0
29519,note_on,,59,0,9,,,,,,,,,,,,,,,,12,,67,0
29519,note_on,,59,0,7,,,,,,,,,,,,,,,,10,,71,0
29520,note_on,,1,0,5,,,,,,,,,,,,,,,,2,,52,72
29520,note_on,,1,0,7,,,,,,,,,,,,,,,,10,,67,72
29520,note_on,,1,0,9,,,,,,,,,,,,,,,,12,,64,72
29520,note_on,,0,0,11,,,,,,,,,,,,,,,,15,,67,72
29520,note_on,,1,0,10,,,,,,,,,,,,,,,,13,,52,72
29520,note_on,,1,0,8,,,,,,,,,,,,,,,,11,,67,72
29520,note_on,,0,0,11,,,,,,,,,,,,,,,,15,,71,72
29520,note_on,,0,0,11,,,,,,,,,,,,,,,,15,,76,72
29520,note_on,,1,0,11,,,,,,,,,,,,,,,,15,,52,72
29579,note_on,,59,0,7,,,,,,,,,,,,,,,,10,,67,0
29579,note_on,,0,0,11,,,,,,,,,,,,,,,,15,,76,0
29579,note_on,,59,0,11,,,,,,,,,,,,,,,,15,,52,0
29579,note_on,,59,0,10,,,,,,,,,,,,,,,,13,,52,0
29579,note_on,,59,0,8,,,,,,,,,,,,,,,,11,,67,0
29579,note_on,,0,0,11,,,,,,,,,,,,,,,,15,,67,0
29579,note_on,,59,0,5,,,,,,,,,,,,,,,,2,,52,0
29579,note_on,,59,0,9,,,,,,,,,,,,,,,,12,,64,0
29579,note_on,,0,0,11,,,,,,,,,,,,,,,,15,,71,0
29580,note_on,,0,0,11,,,,,,,,,,,,,,,,15,,70,72
29580,note_on,,1,0,5,,,,,,,,,,,,,,,,2,,54,72
29580,note_on,,0,0,11,,,,,,,,,,,,,,,,15,,61,72
29580,note_on,,0,0,11,,,,,,,,,,,,,,,,15,,66,72
29580,note_on,,1,0,7,,,,,,,,,,,,,,,,10,,66,72
29580,note_on,,0,0,11,,,,,,,,,,,,,,,,15,,73,72
29580,note_on,,1,0,10,,,,,,,,,,,,,,,,13,,54,72
29580,note_on,,1,0,9,,,,,,,,,,,,,,,,12,,66,72
29580,note_on,,1,0,8,,,,,,,,,,,,,,,,11,,66,72
29580,note_on,,1,0,11,,,,,,,,,,,,,,,,15,,54,72
29639,note_on,,59,0,5,,,,,,,,,,,,,,,,2,,54,0
29639,note_on,,59,0,8,,,,,,,,,,,,,,,,11,,66,0
29639,note_on,,59,0,11,,,,,,,,,,,,,,,,15,,54,0
29639,note_on,,59,0,9,,,,,,,,,,,,,,,,12,,66,0
29639,note_on,,59,0,7,,,,,,,,,,,,,,,,10,,66,0
29639,note_on,,59,0,10,,,,,,,,,,,,,,,,13,,54,0
29640,note_on,,1,0,5,,,,,,,,,,,,,,,,2,,52,72
29640,note_on,,1,0,9,,,,,,,,,,,,,,,,12,,64,72
29640,note_on,,1,0,8,,,,,,,,,,,,,,,,11,,70,72
29640,note_on,,1,0,10,,,,,,,,,,,,,,,,13,,52,72
29640,note_on,,1,0,7,,,,,,,,,,,,,,,,10,,70,72
29640,note_on,,1,0,11,,,,,,,,,,,,,,,,15,,52,72
29699,note_on,,59,0,8,,,,,,,,,,,,,,,,11,,70,0
29699,note_on,,59,0,10,,,,,,,,,,,,,,,,13,,52,0
29699,note_on,,0,0,11,,,,,,,,,,,,,,,,15,,52,0
29699,note_on,,0,0,11,,,,,,,,,,,,,,,,15,,61,0
29699,note_on,,59,0,9,,,,,,,,,,,,,,,,12,,64,0
29699,note_on,,59,0,5,,,,,,,,,,,,,,,,2,,52,0
29699,note_on,,59,0,11,,,,,,,,,,,,,,,,15,,73,0
29699,note_on,,0,0,11,,,,,,,,,,,,,,,,15,,70,0
29699,note_on,,0,0,11,,,,,,,,,,,,,,,,15,,66,0
29699,note_on,,59,0,7,,,,,,,,,,,,,,,,10,,70,0
29700,note_on,,1,0,5,,,,,,,,,,,,,,,,2,,50,72
29700,note_on,,1,0,7,,,,,,,,,,,,,,,,10,,71,72
29700,note_on,,1,0,11,,,,,,,,,,,,,,,,15,,50,72
29700,note_on,,0,0,11,,,,,,,,,,,,,,,,15,,74,72
29700,note_on,,0,0,11,,,,,,,,,,,,,,,,15,,71,72
29700,note_on,,0,0,11,,,,,,,,,,,,,,,,15,,66,72
29700,note_on,,1,0,8,,,,,,,,,,,,,,,,11,,71,72
29700,note_on,,1,0,10,,,,,,,,,,,,,,,,13,,50,72
29700,note_on,,1,0,9,,,,,,,,,,,,,,,,12,,62,72
29759,note_on,,59,0,11,,,,,,,,,,,,,,,,15,,50,0
29759,note_on,,0,0,11,,,,,,,,,,,,,,,,15,,71,0
29759,note_on,,59,0,10,,,,,,,,,,,,,,,,13,,50,0
29759,note_on,,0,0,11,,,,,,,,,,,,,,,,15,,74,0
29759,note_on,,59,0,5,,,,,,,,,,,,,,,,2,,50,0
29759,note_on,,59,0,7,,,,,,,,,,,,,,,,10,,71,0
29759,note_on,,59,0,8,,,,,,,,,,,,,,,,11,,71,0
29759,note_on,,0,0,11,,,,,,,,,,,,,,,,15,,66,0
29759,note_on,,59,0,9,,,,,,,,,,,,,,,,12,,62,0
29760,note_on,,1,0,5,,,,,,,,,,,,,,,,2,,52,72
29760,note_on,,1,0,7,,,,,,,,,,,,,,,,10,,64,72
29760,note_on,,1,0,11,,,,,,,,,,,,,,,,15,,52,72
29760,note_on,,1,0,10,,,,,,,,,,,,,,,,13,,52,72
29760,note_on,,1,0,8,,,,,,,,,,,,,,,,11,,64,72
29760,note_on,,0,0,11,,,,,,,,,,,,,,,,15,,71,72
29760,note_on,,0,0,11,,,,,,,,,,,,,,,,15,,73,72
29760,note_on,,0,0,11,,,,,,,,,,,,,,,,15,,67,72
29760,note_on,,1,0,9,,,,,,,,,,,,,,,,12,,64,72
29819,note_on,,59,0,7,,,,,,,,,,,,,,,,10,,64,0
29819,note_on,,59,0,8,,,,,,,,,,,,,,,,11,,64,0
29819,note_on,,59,0,5,,,,,,,,,,,,,,,,2,,52,0
29819,note_on,,59,0,10,,,,,,,,,,,,,,,,13,,52,0
29819,note_on,,0,0,11,,,,,,,,,,,,,,,,15,,67,0
29819,note_on,,59,0,9,,,,,,,,,,,,,,,,12,,64,0
29819,note_on,,59,0,11,,,,,,,,,,,,,,,,15,,52,0
29819,note_on,,0,0,11,,,,,,,,,,,,,,,,15,,73,0
29819,note_on,,0,0,11,,,,,,,,,,,,,,,,15,,71,0
29820,note_on,,1,0,9,,,,,,,,,,,,,,,,12,,66,72
29820,note_on,,1,0,10,,,,,,,,,,,,,,,,13,,54,72
29820,note_on,,1,0,8,,,,,,,,,,,,,,,,11,,62,72
29820,note_on,,1,0,7,,,,,,,,,,,,,,,,10,,62,72
29820,note_on,,0,0,11,,,,,,,,,,,,,,,,15,,66,72
29820,note_on,,0,0,11,,,,,,,,,,,,,,,,15,,71,72
29820,note_on,,1,0,5,,,,,,,,,,,,,,,,2,,54,72
29820,note_on,,1,0,11,,,,,,,,,,,,,,,,15,,54,72
29820,note_on,,0,0,11,,,,,,,,,,,,,,,,15,,62,72
29879,note_on,,59,0,8,,,,,,,,,,,,,,,,11,,62,0
29879,note_on,,59,0,7,,,,,,,,,,,,,,,,10,,62,0
29880,note_on,,1,0,8,,,,,,,,,,,,,,,,11,,71,72
29880,note_on,,1,0,7,,,,,,,,,,,,,,,,10,,71,72
29939,note_on,,0,0,11,,,,,,,,,,,,,,,,15,,71,0
29939,note_on,,0,0,11,,,,,,,,,,,,,,,,15,,62,0
29939,note_on,,0,0,11,,,,,,,,,,,,,,,,15,,66,0
29939,note_on,,59,0,8,,,,,,,,,,,,,,,,11,,71,0
29939,note_on,,119,0,11,,,,,,,,,,,,,,,,15,,54,0
29939,note_on,,119,0,5,,,,,,,,,,,,,,,,2,,54,0
29939,note_on,,59,0,7,,,,,,,,,,,,,,,,10,,71,0
29939,note_on,,119,0,9,,,,,,,,,,,,,,,,12,,66,0
29939,note_on,,119,0,10,,,,,,,,,,,,,,,,13,,54,0
29940,note_on,,1,0,7,,,,,,,,,,,,,,,,10,,61,72
29940,note_on,,1,0,9,,,,,,,,,,,,,,,,12,,54,72
29940,note_on,,0,0,11,,,,,,,,,,,,,,,,15,,61,72
29940,note_on,,0,0,11,,,,,,,,,,,,,,,,15,,66,72
29940,note_on,,0,0,11,,,,,,,,,,,,,,,,15,,70,72
29940,note_on,,1,0,11,,,,,,,,,,,,,,,,15,,42,72
29940,note_on,,1,0,5,,,,,,,,,,,,,,,,2,,42,72
29940,note_on,,1,0,8,,,,,,,,,,,,,,,,11,,61,72
29940,note_on,,1,0,10,,,,,,,,,,,,,,,,13,,42,72
29940,note_on,,0,0,11,,,,,,,,,,,,,,,,15,,54,72
29999,note_on,,59,0,7,,,,,,,,,,,,,,,,10,,61,0
29999,note_on,,59,0,8,,,,,,,,,,,,,,,,11,,61,0
30000,note_on,,1,0,7,,,,,,,,,,,,,,,,10,,70,72
30000,note_on,,1,0,8,,,,,,,,,,,,,,,,11,,70,72
30059,note_on,,119,0,11,,,,,,,,,,,,,,,,15,,42,0
30059,note_on,,119,0,10,,,,,,,,,,,,,,,,13,,42,0
30059,note_on,,59,0,7,,,,,,,,,,,,,,,,10,,70,0
30059,note_on,,0,0,11,,,,,,,,,,,,,,,,15,,61,0
30059,note_on,,0,0,11,,,,,,,,,,,,,,,,15,,54,0
30059,note_on,,119,0,5,,,,,,,,,,,,,,,,2,,42,0
30059,note_on,,59,0,8,,,,,,,,,,,,,,,,11,,70,0
30059,note_on,,0,0,11,,,,,,,,,,,,,,,,15,,66,0
30059,note_on,,0,0,11,,,,,,,,,,,,,,,,15,,70,0
30059,note_on,,119,0,9,,,,,,,,,,,,,,,,12,,54,0
30060,note_on,,0,0,11,,,,,,,,,,,,,,,,15,,54,72
30060,note_on,,0,0,11,,,,,,,,,,,,,,,,15,,62,72
30060,note_on,,0,0,11,,,,,,,,,,,,,,,,15,,66,72
30060,note_on,,1,0,10,,,,,,,,,,,,,,,,13,,47,72
30060,note_on,,1,0,9,,,,,,,,,,,,,,,,12,,59,72
30060,note_on,,1,0,5,,,,,,,,,,,,,,,,2,,47,72
30060,note_on,,0,0,11,,,,,,,,,,,,,,,,15,,71,72
30060,note_on,,1,0,11,,,,,,,,,,,,,,,,15,,47,72
30060,note_on,,1,0,7,,,,,,,,,,,,,,,,10,,59,72
30060,note_on,,1,0,8,,,,,,,,,,,,,,,,11,,59,72
30179,note_on,,119,0,11,,,,,,,,,,,,,,,,15,,47,0
30179,note_on,,0,0,11,,,,,,,,,,,,,,,,15,,71,0
30179,note_on,,0,0,11,,,,,,,,,,,,,,,,15,,66,0
30179,note_on,,0,0,11,,,,,,,,,,,,,,,,15,,62,0
30179,note_on,,119,0,10,,,,,,,,,,,,,,,,13,,47,0
30179,note_on,,119,0,7,,,,,,,,,,,,,,,,10,,59,0
30179,end_of_track,,0,1,7,,,,,,,,,,,,,,,,,,,
30179,end_of_track,,0,1,5,,,,,,,,,,,,,,,,,,,
30179,note_on,,119,0,5,,,,,,,,,,,,,,,,2,,47,0
30179,note_on,,119,0,8,,,,,,,,,,,,,,,,11,,59,0
30179,end_of_track,,0,1,8,,,,,,,,,,,,,,,,,,,
30179,note_on,,0,0,11,,,,,,,,,,,,,,,,15,,54,0
30179,note_on,,119,0,9,,,,,,,,,,,,,,,,12,,59,0
30179,end_of_track,,0,1,9,,,,,,,,,,,,,,,,,,,
30179,end_of_track,,0,1,10,,,,,,,,,,,,,,,,,,,
30179,end_of_track,,0,1,11,,,,,,,,,,,,,,,,,,,
30780,set_tempo,,30240,1,0,,,,,,,,,500000,,,,,,,,,,
30780,end_of_track,,0,1,0,,,,,,,,,,,,,,,,,,,
