tick,type,data,time,meta,track,frame_rate,hours,minutes,seconds,frames,sub_frames,port,key,tempo,numerator,denominator,clocks_per_click,notated_32nd_notes_per_beat,control,value,channel,program,note,velocity
0,sequencer_specific,"(0, 0, 91, 35, 1, 0, 5, 4, 35, 0)",0,1,0,,,,,,,,,,,,,,,,,,,
0,control_change,,0,0,6,,,,,,,,,,,,,,10,65,5,,,
0,control_change,,0,0,6,,,,,,,,,,,,,,11,127,5,,,
0,program_change,,0,0,6,,,,,,,,,,,,,,,,5,73,,
0,midi_port,,0,1,7,,,,,,,0,,,,,,,,,,,,
0,note_on,,0,0,10,,,,,,,,,,,,,,,,15,,62,64
0,note_on,,0,0,10,,,,,,,,,,,,,,,,15,,65,64
0,note_on,,0,0,10,,,,,,,,,,,,,,,,15,,70,64
0,note_on,,0,0,10,,,,,,,,,,,,,,,,15,,58,64
0,program_change,,0,0,10,,,,,,,,,,,,,,,,15,6,,
0,control_change,,0,0,10,,,,,,,,,,,,,,7,96,15,,,
0,control_change,,0,0,10,,,,,,,,,,,,,,11,127,15,,,
0,control_change,,0,0,10,,,,,,,,,,,,,,10,90,15,,,
0,midi_port,,0,1,10,,,,,,,0,,,,,,,,,,,,
0,track_name,,0,1,10,,,,,,,,,,,,,,,,,,,
0,note_on,,0,0,9,,,,,,,,,,,,,,,,13,,58,64
0,program_change,,0,0,9,,,,,,,,,,,,,,,,13,48,,
0,control_change,,0,0,9,,,,,,,,,,,,,,7,96,13,,,
0,control_change,,0,0,7,,,,,,,,,,,,,,10,48,10,,,
0,control_change,,0,0,7,,,,,,,,,,,,,,11,127,10,,,
0,control_change,,0,0,7,,,,,,,,,,,,,,7,96,10,,,
0,program_change,,0,0,7,,,,,,,,,,,,,,,,10,48,,
0,track_name,,0,1,8,,,,,,,,,,,,,,,,,,,
0,midi_port,,0,1,8,,,,,,,0,,,,,,,,,,,,
0,midi_port,,0,1,6,,,,,,,0,,,,,,,,,,,,
0,control_change,,0,0,8,,,,,,,,,,,,,,10,24,11,,,
0,control_change,,0,0,8,,,,,,,,,,,,,,7,96,11,,,
0,program_change,,0,0,8,,,,,,,,,,,,,,,,11,48,,
0,track_name,,0,1,9,,,,,,,,,,,,,,,,,,,
0,midi_port,,0,1,9,,,,,,,0,,,,,,,,,,,,
0,control_change,,0,0,9,,,,,,,,,,,,,,10,96,13,,,
0,control_change,,0,0,9,,,,,,,,,,,,,,11,127,13,,,
0,control_change,,0,0,8,,,,,,,,,,,,,,11,127,11,,,
0,track_name,,0,1,6,,,,,,,,,,,,,,,,,,,
0,track_name,,0,1,7,,,,,,,,,,,,,,,,,,,
0,midi_port,,0,1,2,,,,,,,0,,,,,,,,,,,,
0,end_of_track,,0,1,2,,,,,,,,,,,,,,,,,,,
0,track_name,,0,1,3,,,,,,,,,,,,,,,,,,,
0,midi_port,,0,1,3,,,,,,,0,,,,,,,,,,,,
0,end_of_track,,0,1,3,,,,,,,,,,,,,,,,,,,
0,end_of_track,,0,1,1,,,,,,,,,,,,,,,,,,,
0,midi_port,,0,1,1,,,,,,,0,,,,,,,,,,,,
0,track_name,,0,1,1,,,,,,,,,,,,,,,,,,,
0,midi_port,,0,1,4,,,,,,,0,,,,,,,,,,,,
0,end_of_track,,0,1,4,,,,,,,,,,,,,,,,,,,
0,track_name,,0,1,5,,,,,,,,,,,,,,,,,,,
0,midi_port,,0,1,5,,,,,,,0,,,,,,,,,,,,
0,time_signature,,0,1,0,,,,,,,,,,4,4,24,8,,,,,,
0,set_tempo,,0,1,0,,,,,,,,,500000,,,,,,,,,,
0,key_signature,,0,1,0,,,,,,,,Bb,,,,,,,,,,,
0,control_change,,0,0,5,,,,,,,,,,,,,,10,65,2,,,
0,control_change,,0,0,5,,,,,,,,,,,,,,11,127,2,,,
0,control_change,,0,0,5,,,,,,,,,,,,,,7,96,2,,,
0,midi_port,,0,1,0,,,,,,,0,,,,,,,,,,,,
0,smpte_offset,,0,1,0,25,32,0,3,0,0,,,,,,,,,,,,,
0,instrument_name,,0,1,0,,,,,,,,,,,,,,,,,,,
0,track_name,,0,1,0,,,,,,,,,,,,,,,,,,,
0,program_change,,0,0,5,,,,,,,,,,,,,,,,2,70,,
0,note_on,,0,0,5,,,,,,,,,,,,,,,,2,,58,64
0,track_name,,0,1,2,,,,,,,,,,,,,,,,,,,
119,note_on,,119,0,10,,,,,,,,,,,,,,,,15,,58,0
119,note_on,,119,0,5,,,,,,,,,,,,,,,,2,,58,0
119,note_on,,119,0,9,,,,,,,,,,,,,,,,13,,58,0
120,note_on,,1,0,9,,,,,,,,,,,,,,,,13,,53,64
120,note_on,,1,0,5,,,,,,,,,,,,,,,,2,,53,64
120,note_on,,1,0,10,,,,,,,,,,,,,,,,15,,53,64
180,note_on,,180,0,7,,,,,,,,,,,,,,,,10,,65,64
180,note_on,,180,0,8,,,,,,,,,,,,,,,,11,,65,64
239,note_on,,0,0,10,,,,,,,,,,,,,,,,15,,62,0
239,note_on,,59,0,7,,,,,,,,,,,,,,,,10,,65,0
239,note_on,,0,0,10,,,,,,,,,,,,,,,,15,,53,0
239,note_on,,0,0,10,,,,,,,,,,,,,,,,15,,65,0
239,note_on,,119,0,5,,,,,,,,,,,,,,,,2,,53,0
239,note_on,,59,0,8,,,,,,,,,,,,,,,,11,,65,0
239,note_on,,119,0,9,,,,,,,,,,,,,,,,13,,53,0
239,note_on,,119,0,10,,,,,,,,,,,,,,,,15,,70,0
240,note_on,,1,0,10,,,,,,,,,,,,,,,,15,,50,64
240,note_on,,0,0,10,,,,,,,,,,,,,,,,15,,65,64
240,note_on,,0,0,10,,,,,,,,,,,,,,,,15,,58,64
240,note_on,,1,0,8,,,,,,,,,,,,,,,,11,,70,64
240,note_on,,1,0,7,,,,,,,,,,,,,,,,10,,70,64
240,note_on,,1,0,5,,,,,,,,,,,,,,,,2,,50,64
240,note_on,,1,0,9,,,,,,,,,,,,,,,,13,,50,64
359,note_on,,119,0,7,,,,,,,,,,,,,,,,10,,70,0
359,note_on,,119,0,9,,,,,,,,,,,,,,,,13,,50,0
359,note_on,,119,0,10,,,,,,,,,,,,,,,,15,,50,0
359,note_on,,0,0,10,,,,,,,,,,,,,,,,15,,58,0
359,note_on,,119,0,8,,,,,,,,,,,,,,,,11,,70,0
359,note_on,,0,0,10,,,,,,,,,,,,,,,,15,,65,0
359,note_on,,119,0,5,,,,,,,,,,,,,,,,2,,50,0
360,note_on,,1,0,5,,,,,,,,,,,,,,,,2,,46,64
360,note_on,,0,0,10,,,,,,,,,,,,,,,,15,,65,64
360,note_on,,0,0,10,,,,,,,,,,,,,,,,15,,70,64
360,note_on,,1,0,10,,,,,,,,,,,,,,,,15,,46,64
360,note_on,,1,0,9,,,,,,,,,,,,,,,,13,,46,64
360,note_on,,0,0,10,,,,,,,,,,,,,,,,15,,62,64
420,note_on,,61,0,7,,,,,,,,,,,,,,,,10,,65,64
420,note_on,,61,0,8,,,,,,,,,,,,,,,,11,,65,64
479,note_on,,119,0,9,,,,,,,,,,,,,,,,13,,46,0
479,note_on,,0,0,10,,,,,,,,,,,,,,,,15,,70,0
479,note_on,,0,0,10,,,,,,,,,,,,,,,,15,,65,0
479,note_on,,0,0,10,,,,,,,,,,,,,,,,15,,62,0
479,note_on,,59,0,8,,,,,,,,,,,,,,,,11,,65,0
479,note_on,,119,0,10,,,,,,,,,,,,,,,,15,,46,0
479,note_on,,119,0,5,,,,,,,,,,,,,,,,2,,46,0
479,note_on,,59,0,7,,,,,,,,,,,,,,,,10,,65,0
480,note_on,,0,0,10,,,,,,,,,,,,,,,,15,,72,64
480,note_on,,1,0,5,,,,,,,,,,,,,,,,2,,45,64
480,note_on,,0,0,10,,,,,,,,,,,,,,,,15,,65,64
480,note_on,,1,0,9,,,,,,,,,,,,,,,,13,,45,64
480,note_on,,1,0,8,,,,,,,,,,,,,,,,11,,72,64
480,note_on,,0,0,10,,,,,,,,,,,,,,,,15,,60,64
480,note_on,,1,0,7,,,,,,,,,,,,,,,,10,,72,64
480,note_on,,1,0,10,,,,,,,,,,,,,,,,15,,45,64
599,note_on,,119,0,7,,,,,,,,,,,,,,,,10,,72,0
599,note_on,,0,0,10,,,,,,,,,,,,,,,,15,,60,0
599,note_on,,119,0,9,,,,,,,,,,,,,,,,13,,45,0
599,note_on,,119,0,10,,,,,,,,,,,,,,,,15,,45,0
599,note_on,,0,0,10,,,,,,,,,,,,,,,,15,,72,0
599,note_on,,0,0,10,,,,,,,,,,,,,,,,15,,65,0
599,note_on,,119,0,5,,,,,,,,,,,,,,,,2,,45,0
599,note_on,,119,0,8,,,,,,,,,,,,,,,,11,,72,0
600,note_on,,1,0,10,,,,,,,,,,,,,,,,15,,41,64
600,note_on,,0,0,10,,,,,,,,,,,,,,,,15,,69,64
600,note_on,,1,0,9,,,,,,,,,,,,,,,,13,,41,64
600,note_on,,1,0,5,,,,,,,,,,,,,,,,2,,41,64
600,note_on,,0,0,10,,,,,,,,,,,,,,,,15,,72,64
600,note_on,,0,0,10,,,,,,,,,,,,,,,,15,,77,64
660,note_on,,61,0,8,,,,,,,,,,,,,,,,11,,65,64
660,note_on,,61,0,7,,,,,,,,,,,,,,,,10,,65,64
719,note_on,,119,0,10,,,,,,,,,,,,,,,,15,,41,0
719,note_on,,0,0,10,,,,,,,,,,,,,,,,15,,77,0
719,note_on,,0,0,10,,,,,,,,,,,,,,,,15,,72,0
719,note_on,,0,0,10,,,,,,,,,,,,,,,,15,,69,0
719,note_on,,119,0,9,,,,,,,,,,,,,,,,13,,41,0
719,note_on,,59,0,8,,,,,,,,,,,,,,,,11,,65,0
719,note_on,,59,0,7,,,,,,,,,,,,,,,,10,,65,0
719,note_on,,119,0,5,,,,,,,,,,,,,,,,2,,41,0
720,note_on,,0,0,10,,,,,,,,,,,,,,,,15,,70,64
720,note_on,,1,0,8,,,,,,,,,,,,,,,,11,,74,64
720,note_on,,1,0,10,,,,,,,,,,,,,,,,15,,46,64
720,note_on,,1,0,9,,,,,,,,,,,,,,,,13,,46,64
720,note_on,,0,0,10,,,,,,,,,,,,,,,,15,,65,64
720,note_on,,0,0,10,,,,,,,,,,,,,,,,15,,74,64
720,note_on,,1,0,7,,,,,,,,,,,,,,,,10,,74,64
720,note_on,,1,0,5,,,,,,,,,,,,,,,,2,,46,64
779,note_on,,59,0,7,,,,,,,,,,,,,,,,10,,74,0
779,note_on,,59,0,8,,,,,,,,,,,,,,,,11,,74,0
780,note_on,,1,0,7,,,,,,,,,,,,,,,,10,,70,64
780,note_on,,1,0,8,,,,,,,,,,,,,,,,11,,70,64
809,note_on,,29,0,7,,,,,,,,,,,,,,,,10,,70,0
809,note_on,,29,0,8,,,,,,,,,,,,,,,,11,,70,0
810,note_on,,1,0,7,,,,,,,,,,,,,,,,10,,72,64
810,note_on,,1,0,8,,,,,,,,,,,,,,,,11,,72,64
839,note_on,,29,0,7,,,,,,,,,,,,,,,,10,,72,0
839,note_on,,29,0,8,,,,,,,,,,,,,,,,11,,72,0
839,note_on,,119,0,10,,,,,,,,,,,,,,,,15,,46,0
839,note_on,,0,0,10,,,,,,,,,,,,,,,,15,,74,0
839,note_on,,0,0,10,,,,,,,,,,,,,,,,15,,70,0
839,note_on,,0,0,10,,,,,,,,,,,,,,,,15,,65,0
839,note_on,,119,0,9,,,,,,,,,,,,,,,,13,,46,0
839,note_on,,119,0,5,,,,,,,,,,,,,,,,2,,46,0
840,note_on,,1,0,8,,,,,,,,,,,,,,,,11,,74,64
840,note_on,,1,0,9,,,,,,,,,,,,,,,,13,,55,64
840,note_on,,1,0,7,,,,,,,,,,,,,,,,10,,74,64
840,note_on,,1,0,5,,,,,,,,,,,,,,,,2,,55,64
840,note_on,,0,0,10,,,,,,,,,,,,,,,,15,,70,64
840,note_on,,0,0,10,,,,,,,,,,,,,,,,15,,67,64
840,note_on,,0,0,10,,,,,,,,,,,,,,,,15,,58,64
840,note_on,,1,0,10,,,,,,,,,,,,,,,,15,,55,64
899,note_on,,59,0,7,,,,,,,,,,,,,,,,10,,74,0
899,note_on,,59,0,8,,,,,,,,,,,,,,,,11,,74,0
900,note_on,,1,0,8,,,,,,,,,,,,,,,,11,,77,64
900,note_on,,1,0,7,,,,,,,,,,,,,,,,10,,77,64
929,note_on,,29,0,8,,,,,,,,,,,,,,,,11,,77,0
929,note_on,,29,0,7,,,,,,,,,,,,,,,,10,,77,0
930,note_on,,1,0,8,,,,,,,,,,,,,,,,11,,76,64
930,note_on,,1,0,7,,,,,,,,,,,,,,,,10,,76,64
959,note_on,,0,0,10,,,,,,,,,,,,,,,,15,,70,0
959,note_on,,0,0,10,,,,,,,,,,,,,,,,15,,67,0
959,note_on,,29,0,8,,,,,,,,,,,,,,,,11,,76,0
959,note_on,,119,0,9,,,,,,,,,,,,,,,,13,,55,0
959,note_on,,0,0,10,,,,,,,,,,,,,,,,15,,58,0
959,note_on,,119,0,5,,,,,,,,,,,,,,,,2,,55,0
959,note_on,,119,0,10,,,,,,,,,,,,,,,,15,,55,0
959,note_on,,29,0,7,,,,,,,,,,,,,,,,10,,76,0
960,note_on,,1,0,7,,,,,,,,,,,,,,,,10,,77,64
960,note_on,,1,0,9,,,,,,,,,,,,,,,,13,,53,64
960,note_on,,1,0,5,,,,,,,,,,,,,,,,2,,53,64
960,note_on,,1,0,8,,,,,,,,,,,,,,,,11,,77,64
960,note_on,,0,0,10,,,,,,,,,,,,,,,,15,,60,64
960,note_on,,0,0,10,,,,,,,,,,,,,,,,15,,69,64
960,note_on,,0,0,10,,,,,,,,,,,,,,,,15,,77,64
960,note_on,,1,0,10,,,,,,,,,,,,,,,,15,,53,64
1019,note_on,,59,0,7,,,,,,,,,,,,,,,,10,,77,0
1019,note_on,,59,0,8,,,,,,,,,,,,,,,,11,,77,0
1020,note_on,,1,0,7,,,,,,,,,,,,,,,,10,,65,64
1020,note_on,,1,0,8,,,,,,,,,,,,,,,,11,,65,64
1079,note_on,,59,0,7,,,,,,,,,,,,,,,,10,,65,0
1079,note_on,,0,0,10,,,,,,,,,,,,,,,,15,,60,0
1079,note_on,,0,0,10,,,,,,,,,,,,,,,,15,,69,0
1079,note_on,,0,0,10,,,,,,,,,,,,,,,,15,,77,0
1079,note_on,,119,0,10,,,,,,,,,,,,,,,,15,,53,0
1079,note_on,,59,0,8,,,,,,,,,,,,,,,,11,,65,0
1079,note_on,,119,0,5,,,,,,,,,,,,,,,,2,,53,0
1079,note_on,,119,0,9,,,,,,,,,,,,,,,,13,,53,0
1080,note_on,,1,0,9,,,,,,,,,,,,,,,,13,,63,64
1080,note_on,,1,0,5,,,,,,,,,,,,,,,,2,,63,64
1080,note_on,,1,0,10,,,,,,,,,,,,,,,,15,,63,64
1080,note_on,,0,0,10,,,,,,,,,,,,,,,,15,,72,64
1080,note_on,,0,0,10,,,,,,,,,,,,,,,,15,,69,64
1080,note_on,,0,0,10,,,,,,,,,,,,,,,,15,,65,64
1110,note_on,,31,0,7,,,,,,,,,,,,,,,,10,,65,64
1110,note_on,,31,0,8,,,,,,,,,,,,,,,,11,,65,64
1139,note_on,,29,0,7,,,,,,,,,,,,,,,,10,,65,0
1139,note_on,,29,0,8,,,,,,,,,,,,,,,,11,,65,0
1140,note_on,,1,0,8,,,,,,,,,,,,,,,,11,,69,64
1140,note_on,,1,0,7,,,,,,,,,,,,,,,,10,,69,64
1169,note_on,,29,0,7,,,,,,,,,,,,,,,,10,,69,0
1169,note_on,,29,0,8,,,,,,,,,,,,,,,,11,,69,0
1170,note_on,,1,0,7,,,,,,,,,,,,,,,,10,,72,64
1170,note_on,,1,0,8,,,,,,,,,,,,,,,,11,,72,64
1199,note_on,,119,0,5,,,,,,,,,,,,,,,,2,,63,0
1199,note_on,,0,0,10,,,,,,,,,,,,,,,,15,,72,0
1199,note_on,,119,0,10,,,,,,,,,,,,,,,,15,,63,0
1199,note_on,,0,0,10,,,,,,,,,,,,,,,,15,,65,0
1199,note_on,,119,0,9,,,,,,,,,,,,,,,,13,,63,0
1199,note_on,,0,0,10,,,,,,,,,,,,,,,,15,,69,0
1199,note_on,,29,0,8,,,,,,,,,,,,,,,,11,,72,0
1199,note_on,,29,0,7,,,,,,,,,,,,,,,,10,,72,0
1200,note_on,,1,0,8,,,,,,,,,,,,,,,,11,,77,64
1200,note_on,,1,0,10,,,,,,,,,,,,,,,,15,,62,64
1200,note_on,,0,0,10,,,,,,,,,,,,,,,,15,,74,64
1200,note_on,,0,0,10,,,,,,,,,,,,,,,,15,,70,64
1200,note_on,,0,0,10,,,,,,,,,,,,,,,,15,,65,64
1200,note_on,,1,0,7,,,,,,,,,,,,,,,,10,,77,64
1200,note_on,,1,0,9,,,,,,,,,,,,,,,,13,,62,64
1200,note_on,,1,0,5,,,,,,,,,,,,,,,,2,,62,64
1259,note_on,,59,0,7,,,,,,,,,,,,,,,,10,,77,0
1259,note_on,,59,0,8,,,,,,,,,,,,,,,,11,,77,0
1260,note_on,,1,0,7,,,,,,,,,,,,,,,,10,,70,64
1260,note_on,,1,0,8,,,,,,,,,,,,,,,,11,,70,64
1319,note_on,,59,0,8,,,,,,,,,,,,,,,,11,,70,0
1319,note_on,,119,0,5,,,,,,,,,,,,,,,,2,,62,0
1319,note_on,,119,0,10,,,,,,,,,,,,,,,,15,,62,0
1319,note_on,,0,0,10,,,,,,,,,,,,,,,,15,,74,0
1319,note_on,,0,0,10,,,,,,,,,,,,,,,,15,,65,0
1319,note_on,,119,0,9,,,,,,,,,,,,,,,,13,,62,0
1319,note_on,,0,0,10,,,,,,,,,,,,,,,,15,,70,0
1319,note_on,,59,0,7,,,,,,,,,,,,,,,,10,,70,0
1320,note_on,,1,0,9,,,,,,,,,,,,,,,,13,,57,64
1320,note_on,,1,0,10,,,,,,,,,,,,,,,,15,,65,64
1320,note_on,,0,0,10,,,,,,,,,,,,,,,,15,,57,64
1320,note_on,,1,0,8,,,,,,,,,,,,,,,,11,,75,64
1320,note_on,,0,0,10,,,,,,,,,,,,,,,,15,,72,64
1320,note_on,,0,0,10,,,,,,,,,,,,,,,,15,,60,64
1320,note_on,,1,0,5,,,,,,,,,,,,,,,,2,,57,64
1320,note_on,,1,0,7,,,,,,,,,,,,,,,,10,,75,64
1379,note_on,,59,0,8,,,,,,,,,,,,,,,,11,,75,0
1379,note_on,,59,0,7,,,,,,,,,,,,,,,,10,,75,0
1380,note_on,,1,0,8,,,,,,,,,,,,,,,,11,,74,64
1380,note_on,,1,0,7,,,,,,,,,,,,,,,,10,,74,64
1409,note_on,,29,0,7,,,,,,,,,,,,,,,,10,,74,0
1409,note_on,,29,0,8,,,,,,,,,,,,,,,,11,,74,0
1410,note_on,,1,0,8,,,,,,,,,,,,,,,,11,,72,64
1410,note_on,,1,0,7,,,,,,,,,,,,,,,,10,,72,64
1439,note_on,,0,0,10,,,,,,,,,,,,,,,,15,,57,0
1439,note_on,,29,0,7,,,,,,,,,,,,,,,,10,,72,0
1439,note_on,,29,0,8,,,,,,,,,,,,,,,,11,,72,0
1439,note_on,,0,0,10,,,,,,,,,,,,,,,,15,,60,0
1439,note_on,,119,0,9,,,,,,,,,,,,,,,,13,,57,0
1439,note_on,,119,0,5,,,,,,,,,,,,,,,,2,,57,0
1439,note_on,,119,0,10,,,,,,,,,,,,,,,,15,,65,0
1439,note_on,,0,0,10,,,,,,,,,,,,,,,,15,,72,0
1440,note_on,,1,0,10,,,,,,,,,,,,,,,,15,,58,64
1440,note_on,,0,0,10,,,,,,,,,,,,,,,,15,,70,64
1440,note_on,,1,0,9,,,,,,,,,,,,,,,,13,,58,64
1440,note_on,,1,0,8,,,,,,,,,,,,,,,,11,,74,64
1440,note_on,,0,0,10,,,,,,,,,,,,,,,,15,,65,64
1440,note_on,,1,0,7,,,,,,,,,,,,,,,,10,,74,64
1440,note_on,,1,0,5,,,,,,,,,,,,,,,,2,,58,64
1440,note_on,,0,0,10,,,,,,,,,,,,,,,,15,,62,64
1499,note_on,,59,0,7,,,,,,,,,,,,,,,,10,,74,0
1499,note_on,,59,0,8,,,,,,,,,,,,,,,,11,,74,0
1500,note_on,,1,0,8,,,,,,,,,,,,,,,,11,,72,64
1500,note_on,,1,0,7,,,,,,,,,,,,,,,,10,,72,64
1529,note_on,,29,0,8,,,,,,,,,,,,,,,,11,,72,0
1529,note_on,,29,0,7,,,,,,,,,,,,,,,,10,,72,0
1530,note_on,,1,0,7,,,,,,,,,,,,,,,,10,,70,64
1530,note_on,,1,0,8,,,,,,,,,,,,,,,,11,,70,64
1559,note_on,,119,0,10,,,,,,,,,,,,,,,,15,,58,0
1559,note_on,,119,0,9,,,,,,,,,,,,,,,,13,,58,0
1559,note_on,,29,0,7,,,,,,,,,,,,,,,,10,,70,0
1559,note_on,,119,0,5,,,,,,,,,,,,,,,,2,,58,0
1559,note_on,,29,0,8,,,,,,,,,,,,,,,,11,,70,0
1559,note_on,,0,0,10,,,,,,,,,,,,,,,,15,,70,0
1559,note_on,,0,0,10,,,,,,,,,,,,,,,,15,,65,0
1559,note_on,,0,0,10,,,,,,,,,,,,,,,,15,,62,0
1560,note_on,,1,0,7,,,,,,,,,,,,,,,,10,,72,64
1560,note_on,,1,0,8,,,,,,,,,,,,,,,,11,,72,64
1560,note_on,,1,0,10,,,,,,,,,,,,,,,,15,,53,64
1560,note_on,,0,0,10,,,,,,,,,,,,,,,,15,,69,64
1560,note_on,,0,0,10,,,,,,,,,,,,,,,,15,,65,64
1560,note_on,,1,0,9,,,,,,,,,,,,,,,,13,,53,64
1560,note_on,,1,0,5,,,,,,,,,,,,,,,,2,,53,64
1560,note_on,,0,0,10,,,,,,,,,,,,,,,,15,,60,64
1619,note_on,,59,0,7,,,,,,,,,,,,,,,,10,,72,0
1619,note_on,,59,0,8,,,,,,,,,,,,,,,,11,,72,0
1620,note_on,,1,0,7,,,,,,,,,,,,,,,,10,,70,64
1620,note_on,,1,0,8,,,,,,,,,,,,,,,,11,,70,64
1649,note_on,,29,0,7,,,,,,,,,,,,,,,,10,,70,0
1649,note_on,,29,0,8,,,,,,,,,,,,,,,,11,,70,0
1650,note_on,,1,0,7,,,,,,,,,,,,,,,,10,,69,64
1650,note_on,,1,0,8,,,,,,,,,,,,,,,,11,,69,64
1679,note_on,,29,0,8,,,,,,,,,,,,,,,,11,,69,0
1679,note_on,,29,0,7,,,,,,,,,,,,,,,,10,,69,0
1679,note_on,,119,0,10,,,,,,,,,,,,,,,,15,,69,0
1679,note_on,,0,0,10,,,,,,,,,,,,,,,,15,,60,0
1679,note_on,,0,0,10,,,,,,,,,,,,,,,,15,,65,0
1680,note_on,,1,0,8,,,,,,,,,,,,,,,,11,,70,64
1680,note_on,,1,0,7,,,,,,,,,,,,,,,,10,,70,64
1680,note_on,,0,0,10,,,,,,,,,,,,,,,,15,,58,64
1680,note_on,,0,0,10,,,,,,,,,,,,,,,,15,,62,64
1680,note_on,,1,0,10,,,,,,,,,,,,,,,,15,,67,64
1739,note_on,,59,0,8,,,,,,,,,,,,,,,,11,,70,0
1739,note_on,,59,0,7,,,,,,,,,,,,,,,,10,,70,0
1740,note_on,,1,0,7,,,,,,,,,,,,,,,,10,,67,64
1740,note_on,,1,0,8,,,,,,,,,,,,,,,,11,,67,64
1799,note_on,,0,0,10,,,,,,,,,,,,,,,,15,,62,0
1799,note_on,,239,0,5,,,,,,,,,,,,,,,,2,,53,0
1799,note_on,,239,0,9,,,,,,,,,,,,,,,,13,,53,0
1799,note_on,,59,0,8,,,,,,,,,,,,,,,,11,,67,0
1799,note_on,,59,0,7,,,,,,,,,,,,,,,,10,,67,0
1799,note_on,,0,0,10,,,,,,,,,,,,,,,,15,,58,0
1799,note_on,,119,0,10,,,,,,,,,,,,,,,,15,,53,0
1800,note_on,,1,0,8,,,,,,,,,,,,,,,,11,,72,64
1800,note_on,,1,0,10,,,,,,,,,,,,,,,,15,,51,64
1800,note_on,,1,0,9,,,,,,,,,,,,,,,,13,,51,64
1800,note_on,,1,0,5,,,,,,,,,,,,,,,,2,,51,64
1800,note_on,,1,0,7,,,,,,,,,,,,,,,,10,,72,64
1800,note_on,,0,0,10,,,,,,,,,,,,,,,,15,,55,64
1800,note_on,,0,0,10,,,,,,,,,,,,,,,,15,,60,64
1859,note_on,,59,0,7,,,,,,,,,,,,,,,,10,,72,0
1859,note_on,,59,0,8,,,,,,,,,,,,,,,,11,,72,0
1860,note_on,,1,0,7,,,,,,,,,,,,,,,,10,,70,64
1860,note_on,,1,0,8,,,,,,,,,,,,,,,,11,,70,64
1919,note_on,,59,0,7,,,,,,,,,,,,,,,,10,,70,0
1919,note_on,,59,0,8,,,,,,,,,,,,,,,,11,,70,0
1919,note_on,,119,0,10,,,,,,,,,,,,,,,,15,,67,0
1919,note_on,,0,0,10,,,,,,,,,,,,,,,,15,,55,0
1919,note_on,,0,0,10,,,,,,,,,,,,,,,,15,,60,0
1920,note_on,,1,0,8,,,,,,,,,,,,,,,,11,,69,64
1920,note_on,,1,0,7,,,,,,,,,,,,,,,,10,,69,64
1920,note_on,,0,0,10,,,,,,,,,,,,,,,,15,,60,64
1920,note_on,,0,0,10,,,,,,,,,,,,,,,,15,,57,64
1920,note_on,,1,0,10,,,,,,,,,,,,,,,,15,,65,64
1949,note_on,,29,0,8,,,,,,,,,,,,,,,,11,,69,0
1949,note_on,,29,0,7,,,,,,,,,,,,,,,,10,,69,0
1950,note_on,,1,0,7,,,,,,,,,,,,,,,,10,,67,64
1950,note_on,,1,0,8,,,,,,,,,,,,,,,,11,,67,64
1979,note_on,,29,0,8,,,,,,,,,,,,,,,,11,,67,0
1979,note_on,,29,0,7,,,,,,,,,,,,,,,,10,,67,0
1980,note_on,,1,0,8,,,,,,,,,,,,,,,,11,,65,64
1980,note_on,,1,0,7,,,,,,,,,,,,,,,,10,,65,64
2039,note_on,,239,0,5,,,,,,,,,,,,,,,,2,,51,0
2039,note_on,,119,0,10,,,,,,,,,,,,,,,,15,,51,0
2039,note_on,,239,0,9,,,,,,,,,,,,,,,,13,,51,0
2039,note_on,,59,0,8,,,,,,,,,,,,,,,,11,,65,0
2039,note_on,,0,0,10,,,,,,,,,,,,,,,,15,,65,0
2039,note_on,,0,0,10,,,,,,,,,,,,,,,,15,,60,0
2039,note_on,,0,0,10,,,,,,,,,,,,,,,,15,,57,0
2039,note_on,,59,0,7,,,,,,,,,,,,,,,,10,,65,0
2040,note_on,,1,0,5,,,,,,,,,,,,,,,,2,,50,64
2040,note_on,,1,0,10,,,,,,,,,,,,,,,,15,,50,64
2040,note_on,,1,0,9,,,,,,,,,,,,,,,,13,,50,64
2040,note_on,,0,0,10,,,,,,,,,,,,,,,,15,,70,64
2040,note_on,,0,0,10,,,,,,,,,,,,,,,,15,,58,64
2040,note_on,,0,0,10,,,,,,,,,,,,,,,,15,,65,64
2100,note_on,,61,0,8,,,,,,,,,,,,,,,,11,,82,64
2100,note_on,,61,0,7,,,,,,,,,,,,,,,,10,,82,64
2129,note_on,,89,0,5,,,,,,,,,,,,,,,,2,,50,0
2129,note_on,,89,0,10,,,,,,,,,,,,,,,,15,,50,0
2129,note_on,,89,0,9,,,,,,,,,,,,,,,,13,,50,0
2130,note_on,,1,0,5,,,,,,,,,,,,,,,,2,,46,64
2130,note_on,,1,0,9,,,,,,,,,,,,,,,,13,,46,64
2130,note_on,,1,0,10,,,,,,,,,,,,,,,,15,,46,64
2159,note_on,,29,0,9,,,,,,,,,,,,,,,,13,,46,0
2159,note_on,,29,0,10,,,,,,,,,,,,,,,,15,,70,0
2159,note_on,,0,0,10,,,,,,,,,,,,,,,,15,,65,0
2159,note_on,,0,0,10,,,,,,,,,,,,,,,,15,,58,0
2159,note_on,,59,0,7,,,,,,,,,,,,,,,,10,,82,0
2159,note_on,,59,0,8,,,,,,,,,,,,,,,,11,,82,0
2159,note_on,,29,0,5,,,,,,,,,,,,,,,,2,,46,0
2159,note_on,,0,0,10,,,,,,,,,,,,,,,,15,,46,0
2160,note_on,,1,0,5,,,,,,,,,,,,,,,,2,,53,64
2160,note_on,,1,0,7,,,,,,,,,,,,,,,,10,,81,64
2160,note_on,,1,0,9,,,,,,,,,,,,,,,,13,,53,64
2160,note_on,,1,0,8,,,,,,,,,,,,,,,,11,,81,64
2160,note_on,,1,0,10,,,,,,,,,,,,,,,,15,,53,64
2160,note_on,,0,0,10,,,,,,,,,,,,,,,,15,,65,64
2160,note_on,,0,0,10,,,,,,,,,,,,,,,,15,,57,64
2219,note_on,,59,0,7,,,,,,,,,,,,,,,,10,,81,0
2219,note_on,,59,0,8,,,,,,,,,,,,,,,,11,,81,0
2220,note_on,,1,0,8,,,,,,,,,,,,,,,,11,,74,64
2220,note_on,,1,0,7,,,,,,,,,,,,,,,,10,,74,64
2279,note_on,,119,0,5,,,,,,,,,,,,,,,,2,,53,0
2279,note_on,,59,0,8,,,,,,,,,,,,,,,,11,,74,0
2279,note_on,,59,0,7,,,,,,,,,,,,,,,,10,,74,0
2279,note_on,,119,0,9,,,,,,,,,,,,,,,,13,,53,0
2279,note_on,,0,0,10,,,,,,,,,,,,,,,,15,,57,0
2279,note_on,,0,0,10,,,,,,,,,,,,,,,,15,,65,0
2279,note_on,,119,0,10,,,,,,,,,,,,,,,,15,,53,0
2280,note_on,,1,0,8,,,,,,,,,,,,,,,,11,,72,64
2280,note_on,,0,0,10,,,,,,,,,,,,,,,,15,,57,64
2280,note_on,,1,0,7,,,,,,,,,,,,,,,,10,,72,64
2280,note_on,,1,0,5,,,,,,,,,,,,,,,,2,,51,64
2280,note_on,,0,0,10,,,,,,,,,,,,,,,,15,,60,64
2280,note_on,,1,0,10,,,,,,,,,,,,,,,,15,,51,64
2280,note_on,,0,0,10,,,,,,,,,,,,,,,,15,,67,64
2280,note_on,,1,0,9,,,,,,,,,,,,,,,,13,,51,64
2309,note_on,,29,0,8,,,,,,,,,,,,,,,,11,,72,0
2309,note_on,,29,0,7,,,,,,,,,,,,,,,,10,,72,0
2310,note_on,,1,0,8,,,,,,,,,,,,,,,,11,,75,64
2310,note_on,,1,0,7,,,,,,,,,,,,,,,,10,,75,64
2339,note_on,,29,0,8,,,,,,,,,,,,,,,,11,,75,0
2339,note_on,,29,0,7,,,,,,,,,,,,,,,,10,,75,0
2340,note_on,,1,0,8,,,,,,,,,,,,,,,,11,,74,64
2340,note_on,,1,0,7,,,,,,,,,,,,,,,,10,,74,64
2369,note_on,,29,0,8,,,,,,,,,,,,,,,,11,,74,0
2369,note_on,,29,0,7,,,,,,,,,,,,,,,,10,,74,0
2370,note_on,,1,0,8,,,,,,,,,,,,,,,,11,,72,64
2370,note_on,,1,0,7,,,,,,,,,,,,,,,,10,,72,64
2399,note_on,,0,0,10,,,,,,,,,,,,,,,,15,,67,0
2399,note_on,,29,0,8,,,,,,,,,,,,,,,,11,,72,0
2399,note_on,,119,0,9,,,,,,,,,,,,,,,,13,,51,0
2399,note_on,,119,0,5,,,,,,,,,,,,,,,,2,,51,0
2399,note_on,,29,0,7,,,,,,,,,,,,,,,,10,,72,0
2399,note_on,,0,0,10,,,,,,,,,,,,,,,,15,,57,0
2399,note_on,,0,0,10,,,,,,,,,,,,,,,,15,,60,0
2399,note_on,,119,0,10,,,,,,,,,,,,,,,,15,,51,0
2400,note_on,,1,0,7,,,,,,,,,,,,,,,,10,,77,64
2400,note_on,,1,0,5,,,,,,,,,,,,,,,,2,,50,64
2400,note_on,,0,0,10,,,,,,,,,,,,,,,,15,,70,64
2400,note_on,,0,0,10,,,,,,,,,,,,,,,,15,,65,64
2400,note_on,,0,0,10,,,,,,,,,,,,,,,,15,,53,64
2400,note_on,,0,0,10,,,,,,,,,,,,,,,,15,,62,64
2400,note_on,,1,0,9,,,,,,,,,,,,,,,,13,,50,64
2400,note_on,,1,0,8,,,,,,,,,,,,,,,,11,,77,64
2400,note_on,,1,0,10,,,,,,,,,,,,,,,,15,,50,64
2459,note_on,,59,0,8,,,,,,,,,,,,,,,,11,,77,0
2459,note_on,,59,0,7,,,,,,,,,,,,,,,,10,,77,0
2460,note_on,,1,0,7,,,,,,,,,,,,,,,,10,,70,64
2460,note_on,,1,0,8,,,,,,,,,,,,,,,,11,,70,64
2519,note_on,,59,0,8,,,,,,,,,,,,,,,,11,,70,0
2519,note_on,,59,0,7,,,,,,,,,,,,,,,,10,,70,0
2519,note_on,,0,0,10,,,,,,,,,,,,,,,,15,,70,0
2519,note_on,,119,0,10,,,,,,,,,,,,,,,,15,,50,0
2519,note_on,,119,0,9,,,,,,,,,,,,,,,,13,,50,0
2519,note_on,,119,0,5,,,,,,,,,,,,,,,,2,,50,0
2519,note_on,,0,0,10,,,,,,,,,,,,,,,,15,,53,0
2519,note_on,,0,0,10,,,,,,,,,,,,,,,,15,,65,0
2519,note_on,,0,0,10,,,,,,,,,,,,,,,,15,,62,0
2520,note_on,,0,0,10,,,,,,,,,,,,,,,,15,,48,64
2520,note_on,,1,0,5,,,,,,,,,,,,,,,,2,,48,64
2520,note_on,,0,0,10,,,,,,,,,,,,,,,,15,,63,64
2520,note_on,,0,0,10,,,,,,,,,,,,,,,,15,,72,64
2520,note_on,,1,0,10,,,,,,,,,,,,,,,,15,,69,64
2520,note_on,,0,0,10,,,,,,,,,,,,,,,,15,,51,64
2520,note_on,,1,0,9,,,,,,,,,,,,,,,,13,,48,64
2580,note_on,,61,0,8,,,,,,,,,,,,,,,,11,,69,64
2580,note_on,,61,0,7,,,,,,,,,,,,,,,,10,,69,64
2639,note_on,,59,0,8,,,,,,,,,,,,,,,,11,,69,0
2639,note_on,,119,0,9,,,,,,,,,,,,,,,,13,,48,0
2639,note_on,,59,0,7,,,,,,,,,,,,,,,,10,,69,0
2639,note_on,,119,0,10,,,,,,,,,,,,,,,,15,,69,0
2639,note_on,,0,0,10,,,,,,,,,,,,,,,,15,,48,0
2639,note_on,,0,0,10,,,,,,,,,,,,,,,,15,,51,0
2639,note_on,,0,0,10,,,,,,,,,,,,,,,,15,,72,0
2639,note_on,,0,0,10,,,,,,,,,,,,,,,,15,,63,0
2639,note_on,,119,0,5,,,,,,,,,,,,,,,,2,,48,0
2640,note_on,,1,0,9,,,,,,,,,,,,,,,,13,,50,64
2640,note_on,,1,0,10,,,,,,,,,,,,,,,,15,,50,64
2640,note_on,,1,0,8,,,,,,,,,,,,,,,,11,,70,64
2640,note_on,,0,0,10,,,,,,,,,,,,,,,,15,,65,64
2640,note_on,,0,0,10,,,,,,,,,,,,,,,,15,,58,64
2640,note_on,,1,0,5,,,,,,,,,,,,,,,,2,,50,64
2640,note_on,,1,0,7,,,,,,,,,,,,,,,,10,,70,64
2640,note_on,,0,0,10,,,,,,,,,,,,,,,,15,,62,64
2654,note_on,,14,0,8,,,,,,,,,,,,,,,,11,,70,0
2654,note_on,,14,0,7,,,,,,,,,,,,,,,,10,,70,0
2655,note_on,,1,0,8,,,,,,,,,,,,,,,,11,,72,64
2655,note_on,,1,0,7,,,,,,,,,,,,,,,,10,,72,64
2669,note_on,,14,0,8,,,,,,,,,,,,,,,,11,,72,0
2669,note_on,,14,0,7,,,,,,,,,,,,,,,,10,,72,0
2670,note_on,,1,0,8,,,,,,,,,,,,,,,,11,,70,64
2670,note_on,,1,0,7,,,,,,,,,,,,,,,,10,,70,64
2684,note_on,,14,0,8,,,,,,,,,,,,,,,,11,,70,0
2684,note_on,,14,0,7,,,,,,,,,,,,,,,,10,,70,0
2685,note_on,,1,0,8,,,,,,,,,,,,,,,,11,,72,64
2685,note_on,,1,0,7,,,,,,,,,,,,,,,,10,,72,64
2699,note_on,,14,0,7,,,,,,,,,,,,,,,,10,,72,0
2699,note_on,,14,0,8,,,,,,,,,,,,,,,,11,,72,0
2700,note_on,,1,0,8,,,,,,,,,,,,,,,,11,,69,64
2700,note_on,,1,0,7,,,,,,,,,,,,,,,,10,,69,64
2714,note_on,,14,0,8,,,,,,,,,,,,,,,,11,,69,0
2714,note_on,,14,0,7,,,,,,,,,,,,,,,,10,,69,0
2715,note_on,,1,0,7,,,,,,,,,,,,,,,,10,,70,64
2715,note_on,,1,0,8,,,,,,,,,,,,,,,,11,,70,64
2729,note_on,,14,0,8,,,,,,,,,,,,,,,,11,,70,0
2729,note_on,,89,0,9,,,,,,,,,,,,,,,,13,,50,0
2729,note_on,,14,0,7,,,,,,,,,,,,,,,,10,,70,0
2729,note_on,,89,0,5,,,,,,,,,,,,,,,,2,,50,0
2729,note_on,,89,0,10,,,,,,,,,,,,,,,,15,,50,0
2730,note_on,,1,0,8,,,,,,,,,,,,,,,,11,,69,64
2730,note_on,,1,0,9,,,,,,,,,,,,,,,,13,,51,64
2730,note_on,,1,0,7,,,,,,,,,,,,,,,,10,,69,64
2730,note_on,,1,0,10,,,,,,,,,,,,,,,,15,,51,64
2730,note_on,,1,0,5,,,,,,,,,,,,,,,,2,,51,64
2744,note_on,,14,0,8,,,,,,,,,,,,,,,,11,,69,0
2744,note_on,,14,0,7,,,,,,,,,,,,,,,,10,,69,0
2745,note_on,,1,0,7,,,,,,,,,,,,,,,,10,,67,64
2745,note_on,,1,0,8,,,,,,,,,,,,,,,,11,,67,64
2759,note_on,,0,0,10,,,,,,,,,,,,,,,,15,,51,0
2759,note_on,,14,0,7,,,,,,,,,,,,,,,,10,,67,0
2759,note_on,,29,0,10,,,,,,,,,,,,,,,,15,,65,0
2759,note_on,,0,0,10,,,,,,,,,,,,,,,,15,,62,0
2759,note_on,,14,0,8,,,,,,,,,,,,,,,,11,,67,0
2759,note_on,,29,0,9,,,,,,,,,,,,,,,,13,,51,0
2759,note_on,,0,0,10,,,,,,,,,,,,,,,,15,,58,0
2759,note_on,,29,0,5,,,,,,,,,,,,,,,,2,,51,0
2760,note_on,,1,0,10,,,,,,,,,,,,,,,,15,,53,64
2760,note_on,,0,0,10,,,,,,,,,,,,,,,,15,,69,64
2760,note_on,,0,0,10,,,,,,,,,,,,,,,,15,,60,64
2760,note_on,,0,0,10,,,,,,,,,,,,,,,,15,,57,64
2760,note_on,,1,0,7,,,,,,,,,,,,,,,,10,,65,64
2760,note_on,,1,0,8,,,,,,,,,,,,,,,,11,,65,64
2760,note_on,,1,0,9,,,,,,,,,,,,,,,,13,,53,64
2760,note_on,,1,0,5,,,,,,,,,,,,,,,,2,,53,64
2819,note_on,,59,0,8,,,,,,,,,,,,,,,,11,,65,0
2819,note_on,,59,0,7,,,,,,,,,,,,,,,,10,,65,0
2820,note_on,,1,0,7,,,,,,,,,,,,,,,,10,,63,64
2820,note_on,,1,0,8,,,,,,,,,,,,,,,,11,,63,64
2879,note_on,,119,0,5,,,,,,,,,,,,,,,,2,,53,0
2879,note_on,,59,0,7,,,,,,,,,,,,,,,,10,,63,0
2879,note_on,,59,0,8,,,,,,,,,,,,,,,,11,,63,0
2879,note_on,,119,0,10,,,,,,,,,,,,,,,,15,,53,0
2879,note_on,,0,0,10,,,,,,,,,,,,,,,,15,,69,0
2879,note_on,,0,0,10,,,,,,,,,,,,,,,,15,,60,0
2879,note_on,,0,0,10,,,,,,,,,,,,,,,,15,,57,0
2879,note_on,,119,0,9,,,,,,,,,,,,,,,,13,,53,0
2880,note_on,,0,0,10,,,,,,,,,,,,,,,,15,,62,64
2880,note_on,,1,0,10,,,,,,,,,,,,,,,,15,,46,64
2880,note_on,,0,0,10,,,,,,,,,,,,,,,,15,,70,64
2880,note_on,,0,0,10,,,,,,,,,,,,,,,,15,,53,64
2880,note_on,,1,0,5,,,,,,,,,,,,,,,,2,,46,64
2880,note_on,,1,0,9,,,,,,,,,,,,,,,,13,,46,64
2880,note_on,,1,0,7,,,,,,,,,,,,,,,,10,,62,64
2880,note_on,,1,0,8,,,,,,,,,,,,,,,,11,,62,64
2999,note_on,,119,0,7,,,,,,,,,,,,,,,,10,,62,0
2999,note_on,,0,0,10,,,,,,,,,,,,,,,,15,,53,0
2999,note_on,,119,0,10,,,,,,,,,,,,,,,,15,,46,0
2999,note_on,,119,0,8,,,,,,,,,,,,,,,,11,,62,0
2999,note_on,,119,0,9,,,,,,,,,,,,,,,,13,,46,0
2999,note_on,,119,0,5,,,,,,,,,,,,,,,,2,,46,0
3000,note_on,,1,0,9,,,,,,,,,,,,,,,,13,,55,48
3000,note_on,,0,0,10,,,,,,,,,,,,,,,,15,,58,48
3000,note_on,,1,0,10,,,,,,,,,,,,,,,,15,,55,48
3000,note_on,,1,0,5,,,,,,,,,,,,,,,,2,,55,48
3060,note_on,,61,0,7,,,,,,,,,,,,,,,,10,,82,48
3060,note_on,,61,0,8,,,,,,,,,,,,,,,,11,,82,48
3119,note_on,,119,0,5,,,,,,,,,,,,,,,,2,,55,0
3119,note_on,,59,0,8,,,,,,,,,,,,,,,,11,,82,0
3119,note_on,,59,0,7,,,,,,,,,,,,,,,,10,,82,0
3119,note_on,,119,0,10,,,,,,,,,,,,,,,,15,,70,0
3119,note_on,,0,0,10,,,,,,,,,,,,,,,,15,,62,0
3119,note_on,,0,0,10,,,,,,,,,,,,,,,,15,,55,0
3119,note_on,,0,0,10,,,,,,,,,,,,,,,,15,,58,0
3119,note_on,,119,0,9,,,,,,,,,,,,,,,,13,,55,0
3120,note_on,,1,0,5,,,,,,,,,,,,,,,,2,,53,48
3120,note_on,,1,0,10,,,,,,,,,,,,,,,,15,,53,48
3120,note_on,,1,0,9,,,,,,,,,,,,,,,,13,,53,48
3120,note_on,,0,0,10,,,,,,,,,,,,,,,,15,,60,48
3120,note_on,,1,0,8,,,,,,,,,,,,,,,,11,,82,48
3120,note_on,,0,0,10,,,,,,,,,,,,,,,,15,,65,48
3120,note_on,,1,0,7,,,,,,,,,,,,,,,,10,,82,48
3179,note_on,,59,0,8,,,,,,,,,,,,,,,,11,,82,0
3179,note_on,,59,0,7,,,,,,,,,,,,,,,,10,,82,0
3180,note_on,,1,0,8,,,,,,,,,,,,,,,,11,,81,48
3180,note_on,,1,0,7,,,,,,,,,,,,,,,,10,,81,48
3239,note_on,,0,0,10,,,,,,,,,,,,,,,,15,,65,0
3239,note_on,,119,0,9,,,,,,,,,,,,,,,,13,,53,0
3239,note_on,,119,0,5,,,,,,,,,,,,,,,,2,,53,0
3239,note_on,,59,0,8,,,,,,,,,,,,,,,,11,,81,0
3239,note_on,,0,0,10,,,,,,,,,,,,,,,,15,,60,0
3239,note_on,,119,0,10,,,,,,,,,,,,,,,,15,,53,0
3239,note_on,,59,0,7,,,,,,,,,,,,,,,,10,,81,0
3240,note_on,,0,0,10,,,,,,,,,,,,,,,,15,,72,48
3240,note_on,,0,0,10,,,,,,,,,,,,,,,,15,,65,48
3240,note_on,,1,0,8,,,,,,,,,,,,,,,,11,,81,48
3240,note_on,,1,0,10,,,,,,,,,,,,,,,,15,,51,48
3240,note_on,,1,0,7,,,,,,,,,,,,,,,,10,,81,48
3240,note_on,,0,0,10,,,,,,,,,,,,,,,,15,,57,48
3240,note_on,,1,0,9,,,,,,,,,,,,,,,,13,,51,48
3240,note_on,,1,0,5,,,,,,,,,,,,,,,,2,,51,48
3254,note_on,,14,0,8,,,,,,,,,,,,,,,,11,,81,0
3254,note_on,,14,0,7,,,,,,,,,,,,,,,,10,,81,0
3255,note_on,,1,0,8,,,,,,,,,,,,,,,,11,,82,48
3255,note_on,,1,0,7,,,,,,,,,,,,,,,,10,,82,48
3269,note_on,,14,0,8,,,,,,,,,,,,,,,,11,,82,0
3269,note_on,,14,0,7,,,,,,,,,,,,,,,,10,,82,0
3270,note_on,,1,0,7,,,,,,,,,,,,,,,,10,,79,48
3270,note_on,,1,0,8,,,,,,,,,,,,,,,,11,,79,48
3284,note_on,,14,0,8,,,,,,,,,,,,,,,,11,,79,0
3284,note_on,,14,0,7,,,,,,,,,,,,,,,,10,,79,0
3285,note_on,,1,0,7,,,,,,,,,,,,,,,,10,,81,48
3285,note_on,,1,0,8,,,,,,,,,,,,,,,,11,,81,48
3299,note_on,,14,0,7,,,,,,,,,,,,,,,,10,,81,0
3299,note_on,,14,0,8,,,,,,,,,,,,,,,,11,,81,0
3300,note_on,,1,0,7,,,,,,,,,,,,,,,,10,,79,48
3300,note_on,,1,0,8,,,,,,,,,,,,,,,,11,,79,48
3359,note_on,,119,0,5,,,,,,,,,,,,,,,,2,,51,0
3359,note_on,,59,0,8,,,,,,,,,,,,,,,,11,,79,0
3359,note_on,,119,0,10,,,,,,,,,,,,,,,,15,,51,0
3359,note_on,,0,0,10,,,,,,,,,,,,,,,,15,,72,0
3359,note_on,,59,0,7,,,,,,,,,,,,,,,,10,,79,0
3359,note_on,,0,0,10,,,,,,,,,,,,,,,,15,,57,0
3359,note_on,,0,0,10,,,,,,,,,,,,,,,,15,,65,0
3359,note_on,,119,0,9,,,,,,,,,,,,,,,,13,,51,0
3360,note_on,,0,0,10,,,,,,,,,,,,,,,,15,,58,48
3360,note_on,,1,0,7,,,,,,,,,,,,,,,,10,,79,48
3360,note_on,,0,0,10,,,,,,,,,,,,,,,,15,,70,48
3360,note_on,,0,0,10,,,,,,,,,,,,,,,,15,,74,48
3360,note_on,,1,0,10,,,,,,,,,,,,,,,,15,,50,48
3360,note_on,,1,0,5,,,,,,,,,,,,,,,,2,,50,48
3360,note_on,,1,0,9,,,,,,,,,,,,,,,,13,,50,48
3360,note_on,,1,0,8,,,,,,,,,,,,,,,,11,,79,48
3374,note_on,,14,0,8,,,,,,,,,,,,,,,,11,,79,0
3374,note_on,,14,0,7,,,,,,,,,,,,,,,,10,,79,0
3375,note_on,,1,0,7,,,,,,,,,,,,,,,,10,,81,48
3375,note_on,,1,0,8,,,,,,,,,,,,,,,,11,,81,48
3389,note_on,,14,0,7,,,,,,,,,,,,,,,,10,,81,0
3389,note_on,,14,0,8,,,,,,,,,,,,,,,,11,,81,0
3390,note_on,,1,0,8,,,,,,,,,,,,,,,,11,,77,48
3390,note_on,,1,0,7,,,,,,,,,,,,,,,,10,,77,48
3404,note_on,,14,0,8,,,,,,,,,,,,,,,,11,,77,0
3404,note_on,,14,0,7,,,,,,,,,,,,,,,,10,,77,0
3405,note_on,,1,0,8,,,,,,,,,,,,,,,,11,,79,48
3405,note_on,,1,0,7,,,,,,,,,,,,,,,,10,,79,48
3419,note_on,,14,0,8,,,,,,,,,,,,,,,,11,,79,0
3419,note_on,,14,0,7,,,,,,,,,,,,,,,,10,,79,0
3420,note_on,,1,0,8,,,,,,,,,,,,,,,,11,,77,48
3420,note_on,,1,0,7,,,,,,,,,,,,,,,,10,,77,48
3479,note_on,,59,0,8,,,,,,,,,,,,,,,,11,,77,0
3479,note_on,,59,0,7,,,,,,,,,,,,,,,,10,,77,0
3479,note_on,,119,0,9,,,,,,,,,,,,,,,,13,,50,0
3479,note_on,,119,0,5,,,,,,,,,,,,,,,,2,,50,0
3479,note_on,,0,0,10,,,,,,,,,,,,,,,,15,,74,0
3479,note_on,,0,0,10,,,,,,,,,,,,,,,,15,,58,0
3479,note_on,,119,0,10,,,,,,,,,,,,,,,,15,,50,0
3479,note_on,,0,0,10,,,,,,,,,,,,,,,,15,,70,0
3480,note_on,,1,0,10,,,,,,,,,,,,,,,,15,,48,48
3480,note_on,,0,0,10,,,,,,,,,,,,,,,,15,,69,48
3480,note_on,,0,0,10,,,,,,,,,,,,,,,,15,,63,48
3480,note_on,,0,0,10,,,,,,,,,,,,,,,,15,,60,48
3480,note_on,,1,0,5,,,,,,,,,,,,,,,,2,,48,48
3480,note_on,,1,0,7,,,,,,,,,,,,,,,,10,,77,48
3480,note_on,,1,0,9,,,,,,,,,,,,,,,,13,,48,48
3480,note_on,,1,0,8,,,,,,,,,,,,,,,,11,,77,48
3494,note_on,,14,0,8,,,,,,,,,,,,,,,,11,,77,0
3494,note_on,,14,0,7,,,,,,,,,,,,,,,,10,,77,0
3495,note_on,,1,0,8,,,,,,,,,,,,,,,,11,,79,48
3495,note_on,,1,0,7,,,,,,,,,,,,,,,,10,,79,48
3509,note_on,,14,0,7,,,,,,,,,,,,,,,,10,,79,0
3509,note_on,,14,0,8,,,,,,,,,,,,,,,,11,,79,0
3510,note_on,,1,0,7,,,,,,,,,,,,,,,,10,,75,48
3510,note_on,,1,0,8,,,,,,,,,,,,,,,,11,,75,48
3524,note_on,,14,0,7,,,,,,,,,,,,,,,,10,,75,0
3524,note_on,,14,0,8,,,,,,,,,,,,,,,,11,,75,0
3525,note_on,,1,0,8,,,,,,,,,,,,,,,,11,,77,48
3525,note_on,,1,0,7,,,,,,,,,,,,,,,,10,,77,48
3539,note_on,,14,0,7,,,,,,,,,,,,,,,,10,,77,0
3539,note_on,,14,0,8,,,,,,,,,,,,,,,,11,,77,0
3540,note_on,,1,0,7,,,,,,,,,,,,,,,,10,,75,48
3540,note_on,,1,0,8,,,,,,,,,,,,,,,,11,,75,48
3599,note_on,,119,0,5,,,,,,,,,,,,,,,,2,,48,0
3599,note_on,,0,0,10,,,,,,,,,,,,,,,,15,,60,0
3599,note_on,,59,0,8,,,,,,,,,,,,,,,,11,,75,0
3599,note_on,,119,0,9,,,,,,,,,,,,,,,,13,,48,0
3599,note_on,,119,0,10,,,,,,,,,,,,,,,,15,,48,0
3599,note_on,,0,0,10,,,,,,,,,,,,,,,,15,,69,0
3599,note_on,,59,0,7,,,,,,,,,,,,,,,,10,,75,0
3599,note_on,,0,0,10,,,,,,,,,,,,,,,,15,,63,0
3600,note_on,,1,0,7,,,,,,,,,,,,,,,,10,,74,72
3600,note_on,,1,0,5,,,,,,,,,,,,,,,,2,,50,72
3600,note_on,,0,0,10,,,,,,,,,,,,,,,,15,,65,72
3600,note_on,,1,0,8,,,,,,,,,,,,,,,,11,,74,72
3600,note_on,,1,0,9,,,,,,,,,,,,,,,,13,,50,72
3600,note_on,,1,0,10,,,,,,,,,,,,,,,,15,,50,72
3600,note_on,,0,0,10,,,,,,,,,,,,,,,,15,,53,72
3600,note_on,,0,0,10,,,,,,,,,,,,,,,,15,,70,72
3659,note_on,,59,0,8,,,,,,,,,,,,,,,,11,,74,0
3659,note_on,,59,0,7,,,,,,,,,,,,,,,,10,,74,0
3660,note_on,,1,0,7,,,,,,,,,,,,,,,,10,,72,72
3660,note_on,,1,0,8,,,,,,,,,,,,,,,,11,,72,72
3689,note_on,,89,0,9,,,,,,,,,,,,,,,,13,,50,0
3689,note_on,,0,0,10,,,,,,,,,,,,,,,,15,,70,0
3689,note_on,,0,0,10,,,,,,,,,,,,,,,,15,,65,0
3689,note_on,,29,0,8,,,,,,,,,,,,,,,,11,,72,0
3689,note_on,,89,0,10,,,,,,,,,,,,,,,,15,,50,0
3689,note_on,,89,0,5,,,,,,,,,,,,,,,,2,,50,0
3689,note_on,,29,0,7,,,,,,,,,,,,,,,,10,,72,0
3690,note_on,,1,0,5,,,,,,,,,,,,,,,,2,,51,72
3690,note_on,,0,0,10,,,,,,,,,,,,,,,,15,,67,72
3690,note_on,,0,0,10,,,,,,,,,,,,,,,,15,,72,72
3690,note_on,,1,0,10,,,,,,,,,,,,,,,,15,,51,72
3690,note_on,,1,0,7,,,,,,,,,,,,,,,,10,,70,72
3690,note_on,,1,0,9,,,,,,,,,,,,,,,,13,,51,72
3690,note_on,,1,0,8,,,,,,,,,,,,,,,,11,,70,72
3719,note_on,,0,0,10,,,,,,,,,,,,,,,,15,,72,0
3719,note_on,,29,0,7,,,,,,,,,,,,,,,,10,,70,0
3719,note_on,,29,0,8,,,,,,,,,,,,,,,,11,,70,0
3719,note_on,,0,0,10,,,,,,,,,,,,,,,,15,,67,0
3719,note_on,,0,0,10,,,,,,,,,,,,,,,,15,,51,0
3719,note_on,,29,0,9,,,,,,,,,,,,,,,,13,,51,0
3719,note_on,,29,0,5,,,,,,,,,,,,,,,,2,,51,0
3719,note_on,,29,0,10,,,,,,,,,,,,,,,,15,,53,0
3720,note_on,,1,0,10,,,,,,,,,,,,,,,,15,,53,72
3720,note_on,,0,0,10,,,,,,,,,,,,,,,,15,,69,72
3720,note_on,,1,0,8,,,,,,,,,,,,,,,,11,,65,72
3720,note_on,,0,0,10,,,,,,,,,,,,,,,,15,,65,72
3720,note_on,,1,0,9,,,,,,,,,,,,,,,,13,,53,72
3720,note_on,,1,0,5,,,,,,,,,,,,,,,,2,,53,72
3720,note_on,,1,0,7,,,,,,,,,,,,,,,,10,,65,72
3720,note_on,,0,0,10,,,,,,,,,,,,,,,,15,,60,72
3720,note_on,,0,0,10,,,,,,,,,,,,,,,,15,,53,72
3809,note_on,,89,0,7,,,,,,,,,,,,,,,,10,,65,0
3809,note_on,,89,0,10,,,,,,,,,,,,,,,,15,,53,0
3809,note_on,,89,0,8,,,,,,,,,,,,,,,,11,,65,0
3809,note_on,,89,0,5,,,,,,,,,,,,,,,,2,,53,0
3809,note_on,,89,0,9,,,,,,,,,,,,,,,,13,,53,0
3810,note_on,,1,0,10,,,,,,,,,,,,,,,,15,,41,72
3810,note_on,,1,0,7,,,,,,,,,,,,,,,,10,,69,72
3810,note_on,,1,0,9,,,,,,,,,,,,,,,,13,,41,72
3810,note_on,,1,0,8,,,,,,,,,,,,,,,,11,,69,72
3810,note_on,,1,0,5,,,,,,,,,,,,,,,,2,,41,72
3839,note_on,,0,0,10,,,,,,,,,,,,,,,,15,,69,0
3839,note_on,,0,0,10,,,,,,,,,,,,,,,,15,,41,0
3839,note_on,,29,0,10,,,,,,,,,,,,,,,,15,,53,0
3839,note_on,,29,0,5,,,,,,,,,,,,,,,,2,,41,0
3839,note_on,,0,0,10,,,,,,,,,,,,,,,,15,,60,0
3839,note_on,,0,0,10,,,,,,,,,,,,,,,,15,,65,0
3839,note_on,,29,0,7,,,,,,,,,,,,,,,,10,,69,0
3839,note_on,,29,0,8,,,,,,,,,,,,,,,,11,,69,0
3839,note_on,,29,0,9,,,,,,,,,,,,,,,,13,,41,0
3840,note_on,,1,0,8,,,,,,,,,,,,,,,,11,,70,72
3840,note_on,,1,0,5,,,,,,,,,,,,,,,,2,,46,72
3840,note_on,,0,0,10,,,,,,,,,,,,,,,,15,,62,72
3840,note_on,,1,0,10,,,,,,,,,,,,,,,,15,,46,72
3840,note_on,,0,0,10,,,,,,,,,,,,,,,,15,,70,72
3840,note_on,,0,0,10,,,,,,,,,,,,,,,,15,,53,72
3840,note_on,,1,0,7,,,,,,,,,,,,,,,,10,,70,72
3840,note_on,,0,0,10,,,,,,,,,,,,,,,,15,,65,72
3840,note_on,,1,0,9,,,,,,,,,,,,,,,,13,,46,72
3959,note_on,,0,0,10,,,,,,,,,,,,,,,,15,,65,0
3959,note_on,,119,0,10,,,,,,,,,,,,,,,,15,,46,0
3959,note_on,,0,0,10,,,,,,,,,,,,,,,,15,,62,0
3959,note_on,,0,0,10,,,,,,,,,,,,,,,,15,,70,0
3959,note_on,,0,0,10,,,,,,,,,,,,,,,,15,,53,0
3959,note_on,,119,0,8,,,,,,,,,,,,,,,,11,,70,0
3959,note_on,,119,0,7,,,,,,,,,,,,,,,,10,,70,0
3959,note_on,,119,0,9,,,,,,,,,,,,,,,,13,,46,0
3959,note_on,,119,0,5,,,,,,,,,,,,,,,,2,,46,0
4020,note_on,,0,0,6,,,,,,,,,,,,,,,,5,,65,72
4020,control_change,,4020,0,6,,,,,,,,,,,,,,7,96,5,,,
4079,note_on,,59,0,6,,,,,,,,,,,,,,,,5,,65,0
4080,note_on,,121,0,10,,,,,,,,,,,,,,,,15,,62,48
4080,note_on,,1,0,6,,,,,,,,,,,,,,,,5,,70,72
4080,note_on,,121,0,9,,,,,,,,,,,,,,,,13,,62,48
4080,note_on,,0,0,10,,,,,,,,,,,,,,,,15,,65,48
4080,note_on,,0,0,10,,,,,,,,,,,,,,,,15,,70,48
4140,note_on,,181,0,7,,,,,,,,,,,,,,,,10,,65,72
4140,note_on,,181,0,8,,,,,,,,,,,,,,,,11,,65,72
4199,note_on,,119,0,9,,,,,,,,,,,,,,,,13,,62,0
4199,note_on,,119,0,10,,,,,,,,,,,,,,,,15,,62,0
4199,note_on,,119,0,6,,,,,,,,,,,,,,,,5,,70,0
4199,note_on,,0,0,10,,,,,,,,,,,,,,,,15,,65,0
4199,note_on,,0,0,10,,,,,,,,,,,,,,,,15,,70,0
4199,note_on,,59,0,7,,,,,,,,,,,,,,,,10,,65,0
4199,note_on,,59,0,8,,,,,,,,,,,,,,,,11,,65,0
4200,note_on,,1,0,10,,,,,,,,,,,,,,,,15,,58,48
4200,note_on,,0,0,10,,,,,,,,,,,,,,,,15,,74,48
4200,note_on,,0,0,10,,,,,,,,,,,,,,,,15,,70,48
4200,note_on,,0,0,10,,,,,,,,,,,,,,,,15,,65,48
4200,note_on,,1,0,9,,,,,,,,,,,,,,,,13,,58,48
4200,note_on,,1,0,7,,,,,,,,,,,,,,,,10,,70,72
4200,note_on,,1,0,8,,,,,,,,,,,,,,,,11,,70,72
4260,note_on,,61,0,6,,,,,,,,,,,,,,,,5,,65,72
4319,note_on,,119,0,9,,,,,,,,,,,,,,,,13,,58,0
4319,note_on,,119,0,7,,,,,,,,,,,,,,,,10,,70,0
4319,note_on,,119,0,10,,,,,,,,,,,,,,,,15,,58,0
4319,note_on,,59,0,6,,,,,,,,,,,,,,,,5,,65,0
4319,note_on,,0,0,10,,,,,,,,,,,,,,,,15,,74,0
4319,note_on,,0,0,10,,,,,,,,,,,,,,,,15,,70,0
4319,note_on,,119,0,8,,,,,,,,,,,,,,,,11,,70,0
4319,note_on,,0,0,10,,,,,,,,,,,,,,,,15,,65,0
4320,note_on,,0,0,10,,,,,,,,,,,,,,,,15,,60,48
4320,note_on,,0,0,10,,,,,,,,,,,,,,,,15,,65,48
4320,note_on,,0,0,10,,,,,,,,,,,,,,,,15,,72,48
4320,note_on,,1,0,10,,,,,,,,,,,,,,,,15,,57,48
4320,note_on,,1,0,9,,,,,,,,,,,,,,,,13,,57,48
4320,note_on,,1,0,6,,,,,,,,,,,,,,,,5,,72,72
4380,note_on,,61,0,7,,,,,,,,,,,,,,,,10,,65,72
4380,note_on,,61,0,8,,,,,,,,,,,,,,,,11,,65,72
4439,note_on,,119,0,10,,,,,,,,,,,,,,,,15,,57,0
4439,note_on,,0,0,10,,,,,,,,,,,,,,,,15,,60,0
4439,note_on,,0,0,10,,,,,,,,,,,,,,,,15,,65,0
4439,note_on,,0,0,10,,,,,,,,,,,,,,,,15,,72,0
4439,note_on,,119,0,6,,,,,,,,,,,,,,,,5,,72,0
4439,note_on,,59,0,7,,,,,,,,,,,,,,,,10,,65,0
4439,note_on,,119,0,9,,,,,,,,,,,,,,,,13,,57,0
4439,note_on,,59,0,8,,,,,,,,,,,,,,,,11,,65,0
4440,note_on,,1,0,10,,,,,,,,,,,,,,,,15,,53,48
4440,note_on,,1,0,9,,,,,,,,,,,,,,,,13,,53,48
4440,note_on,,0,0,10,,,,,,,,,,,,,,,,15,,69,48
4440,note_on,,1,0,8,,,,,,,,,,,,,,,,11,,72,72
4440,note_on,,0,0,10,,,,,,,,,,,,,,,,15,,72,48
4440,note_on,,1,0,7,,,,,,,,,,,,,,,,10,,72,72
4440,note_on,,0,0,10,,,,,,,,,,,,,,,,15,,77,48
4500,note_on,,61,0,6,,,,,,,,,,,,,,,,5,,65,72
4559,note_on,,119,0,7,,,,,,,,,,,,,,,,10,,72,0
4559,note_on,,119,0,9,,,,,,,,,,,,,,,,13,,53,0
4559,note_on,,119,0,10,,,,,,,,,,,,,,,,15,,53,0
4559,note_on,,0,0,10,,,,,,,,,,,,,,,,15,,77,0
4559,note_on,,0,0,10,,,,,,,,,,,,,,,,15,,72,0
4559,note_on,,0,0,10,,,,,,,,,,,,,,,,15,,69,0
4559,note_on,,59,0,6,,,,,,,,,,,,,,,,5,,65,0
4559,note_on,,119,0,8,,,,,,,,,,,,,,,,11,,72,0
4560,note_on,,0,0,10,,,,,,,,,,,,,,,,15,,65,48
4560,note_on,,1,0,6,,,,,,,,,,,,,,,,5,,74,72
4560,note_on,,1,0,10,,,,,,,,,,,,,,,,15,,58,48
4560,note_on,,0,0,10,,,,,,,,,,,,,,,,15,,74,48
4560,note_on,,0,0,10,,,,,,,,,,,,,,,,15,,70,48
4560,note_on,,1,0,9,,,,,,,,,,,,,,,,13,,58,48
4619,note_on,,59,0,6,,,,,,,,,,,,,,,,5,,74,0
4620,note_on,,1,0,6,,,,,,,,,,,,,,,,5,,70,72
4649,note_on,,29,0,6,,,,,,,,,,,,,,,,5,,70,0
4650,note_on,,1,0,6,,,,,,,,,,,,,,,,5,,72,72
4679,note_on,,0,0,10,,,,,,,,,,,,,,,,15,,74,0
4679,note_on,,0,0,10,,,,,,,,,,,,,,,,15,,65,0
4679,note_on,,0,0,10,,,,,,,,,,,,,,,,15,,70,0
4679,note_on,,119,0,10,,,,,,,,,,,,,,,,15,,58,0
4679,note_on,,29,0,6,,,,,,,,,,,,,,,,5,,72,0
4679,note_on,,119,0,9,,,,,,,,,,,,,,,,13,,58,0
4680,note_on,,1,0,9,,,,,,,,,,,,,,,,13,,55,48
4680,note_on,,1,0,6,,,,,,,,,,,,,,,,5,,74,72
4680,note_on,,1,0,10,,,,,,,,,,,,,,,,15,,55,48
4680,note_on,,0,0,10,,,,,,,,,,,,,,,,15,,67,48
4680,note_on,,0,0,10,,,,,,,,,,,,,,,,15,,58,48
4680,note_on,,0,0,10,,,,,,,,,,,,,,,,15,,70,48
4739,note_on,,59,0,6,,,,,,,,,,,,,,,,5,,74,0
4740,note_on,,1,0,6,,,,,,,,,,,,,,,,5,,76,72
4799,note_on,,0,0,10,,,,,,,,,,,,,,,,15,,70,0
4799,note_on,,0,0,10,,,,,,,,,,,,,,,,15,,67,0
4799,note_on,,0,0,10,,,,,,,,,,,,,,,,15,,58,0
4799,note_on,,119,0,9,,,,,,,,,,,,,,,,13,,55,0
4799,note_on,,119,0,10,,,,,,,,,,,,,,,,15,,55,0
4799,note_on,,59,0,6,,,,,,,,,,,,,,,,5,,76,0
4800,note_on,,0,0,10,,,,,,,,,,,,,,,,15,,69,48
4800,note_on,,0,0,10,,,,,,,,,,,,,,,,15,,57,48
4800,note_on,,1,0,10,,,,,,,,,,,,,,,,15,,53,48
4800,note_on,,0,0,10,,,,,,,,,,,,,,,,15,,72,48
4800,note_on,,1,0,9,,,,,,,,,,,,,,,,13,,53,48
4800,note_on,,1,0,6,,,,,,,,,,,,,,,,5,,77,72
4919,note_on,,119,0,6,,,,,,,,,,,,,,,,5,,77,0
4919,note_on,,119,0,9,,,,,,,,,,,,,,,,13,,53,0
4919,note_on,,119,0,10,,,,,,,,,,,,,,,,15,,53,0
4919,note_on,,0,0,10,,,,,,,,,,,,,,,,15,,72,0
4919,note_on,,0,0,10,,,,,,,,,,,,,,,,15,,69,0
4919,note_on,,0,0,10,,,,,,,,,,,,,,,,15,,57,0
4920,note_on,,1,0,10,,,,,,,,,,,,,,,,15,,57,48
4920,note_on,,0,0,10,,,,,,,,,,,,,,,,15,,65,48
4920,note_on,,0,0,10,,,,,,,,,,,,,,,,15,,60,48
4920,note_on,,1,0,6,,,,,,,,,,,,,,,,5,,65,72
4920,note_on,,1,0,9,,,,,,,,,,,,,,,,13,,57,48
4920,note_on,,961,0,5,,,,,,,,,,,,,,,,2,,57,48
4950,note_on,,391,0,8,,,,,,,,,,,,,,,,11,,72,72
4950,note_on,,391,0,7,,,,,,,,,,,,,,,,10,,72,72
4979,note_on,,29,0,8,,,,,,,,,,,,,,,,11,,72,0
4979,note_on,,29,0,7,,,,,,,,,,,,,,,,10,,72,0
4980,note_on,,1,0,7,,,,,,,,,,,,,,,,10,,74,72
4980,note_on,,1,0,8,,,,,,,,,,,,,,,,11,,74,72
5009,note_on,,29,0,7,,,,,,,,,,,,,,,,10,,74,0
5009,note_on,,29,0,8,,,,,,,,,,,,,,,,11,,74,0
5010,note_on,,1,0,7,,,,,,,,,,,,,,,,10,,75,72
5010,note_on,,1,0,8,,,,,,,,,,,,,,,,11,,75,72
5039,note_on,,119,0,10,,,,,,,,,,,,,,,,15,,57,0
5039,note_on,,29,0,7,,,,,,,,,,,,,,,,10,,75,0
5039,note_on,,29,0,8,,,,,,,,,,,,,,,,11,,75,0
5039,note_on,,119,0,9,,,,,,,,,,,,,,,,13,,57,0
5039,note_on,,119,0,5,,,,,,,,,,,,,,,,2,,57,0
5039,note_on,,0,0,10,,,,,,,,,,,,,,,,15,,65,0
5039,note_on,,0,0,10,,,,,,,,,,,,,,,,15,,60,0
5039,note_on,,119,0,6,,,,,,,,,,,,,,,,5,,65,0
5040,note_on,,1,0,8,,,,,,,,,,,,,,,,11,,74,72
5040,note_on,,1,0,7,,,,,,,,,,,,,,,,10,,74,72
5040,note_on,,1,0,10,,,,,,,,,,,,,,,,15,,58,48
5040,note_on,,1,0,9,,,,,,,,,,,,,,,,13,,58,48
5040,note_on,,1,0,5,,,,,,,,,,,,,,,,2,,58,48
5040,note_on,,0,0,10,,,,,,,,,,,,,,,,15,,70,48
5040,note_on,,0,0,10,,,,,,,,,,,,,,,,15,,65,48
5040,note_on,,0,0,10,,,,,,,,,,,,,,,,15,,62,48
5069,note_on,,29,0,7,,,,,,,,,,,,,,,,10,,74,0
5069,note_on,,29,0,8,,,,,,,,,,,,,,,,11,,74,0
5070,note_on,,1,0,7,,,,,,,,,,,,,,,,10,,65,72
5070,note_on,,1,0,8,,,,,,,,,,,,,,,,11,,65,72
5099,note_on,,29,0,7,,,,,,,,,,,,,,,,10,,65,0
5099,note_on,,29,0,8,,,,,,,,,,,,,,,,11,,65,0
5100,note_on,,1,0,8,,,,,,,,,,,,,,,,11,,67,72
5100,note_on,,1,0,7,,,,,,,,,,,,,,,,10,,67,72
5129,note_on,,29,0,7,,,,,,,,,,,,,,,,10,,67,0
5129,note_on,,29,0,8,,,,,,,,,,,,,,,,11,,67,0
5130,note_on,,1,0,8,,,,,,,,,,,,,,,,11,,69,72
5130,note_on,,1,0,7,,,,,,,,,,,,,,,,10,,69,72
5159,note_on,,0,0,10,,,,,,,,,,,,,,,,15,,62,0
5159,note_on,,0,0,10,,,,,,,,,,,,,,,,15,,70,0
5159,note_on,,119,0,10,,,,,,,,,,,,,,,,15,,58,0
5159,note_on,,119,0,5,,,,,,,,,,,,,,,,2,,58,0
5159,note_on,,29,0,8,,,,,,,,,,,,,,,,11,,69,0
5159,note_on,,29,0,7,,,,,,,,,,,,,,,,10,,69,0
5159,note_on,,0,0,10,,,,,,,,,,,,,,,,15,,65,0
5159,note_on,,119,0,9,,,,,,,,,,,,,,,,13,,58,0
5160,note_on,,1,0,7,,,,,,,,,,,,,,,,10,,70,72
5160,note_on,,0,0,10,,,,,,,,,,,,,,,,15,,58,48
5160,note_on,,0,0,10,,,,,,,,,,,,,,,,15,,70,48
5160,note_on,,0,0,10,,,,,,,,,,,,,,,,15,,79,48
5160,note_on,,1,0,10,,,,,,,,,,,,,,,,15,,55,48
5160,note_on,,1,0,5,,,,,,,,,,,,,,,,2,,55,48
5160,note_on,,1,0,8,,,,,,,,,,,,,,,,11,,70,72
5160,note_on,,1,0,9,,,,,,,,,,,,,,,,13,,55,48
5189,note_on,,29,0,7,,,,,,,,,,,,,,,,10,,70,0
5189,note_on,,29,0,8,,,,,,,,,,,,,,,,11,,70,0
5190,note_on,,1,0,8,,,,,,,,,,,,,,,,11,,72,72
5190,note_on,,1,0,7,,,,,,,,,,,,,,,,10,,72,72
5219,note_on,,29,0,7,,,,,,,,,,,,,,,,10,,72,0
5219,note_on,,29,0,8,,,,,,,,,,,,,,,,11,,72,0
5220,note_on,,1,0,7,,,,,,,,,,,,,,,,10,,74,72
5220,note_on,,1,0,8,,,,,,,,,,,,,,,,11,,74,72
5249,note_on,,29,0,8,,,,,,,,,,,,,,,,11,,74,0
5249,note_on,,29,0,7,,,,,,,,,,,,,,,,10,,74,0
5250,note_on,,1,0,8,,,,,,,,,,,,,,,,11,,76,72
5250,note_on,,1,0,7,,,,,,,,,,,,,,,,10,,76,72
5279,note_on,,119,0,9,,,,,,,,,,,,,,,,13,,55,0
5279,note_on,,29,0,8,,,,,,,,,,,,,,,,11,,76,0
5279,note_on,,0,0,10,,,,,,,,,,,,,,,,15,,58,0
5279,note_on,,0,0,10,,,,,,,,,,,,,,,,15,,70,0
5279,note_on,,0,0,10,,,,,,,,,,,,,,,,15,,79,0
5279,note_on,,119,0,5,,,,,,,,,,,,,,,,2,,55,0
5279,note_on,,29,0,7,,,,,,,,,,,,,,,,10,,76,0
5279,note_on,,119,0,10,,,,,,,,,,,,,,,,15,,55,0
5280,note_on,,1,0,9,,,,,,,,,,,,,,,,13,,53,48
5280,note_on,,1,0,10,,,,,,,,,,,,,,,,15,,53,48
5280,note_on,,0,0,10,,,,,,,,,,,,,,,,15,,72,48
5280,note_on,,0,0,10,,,,,,,,,,,,,,,,15,,69,48
5280,note_on,,0,0,10,,,,,,,,,,,,,,,,15,,60,48
5280,note_on,,1,0,5,,,,,,,,,,,,,,,,2,,53,48
5280,note_on,,1,0,7,,,,,,,,,,,,,,,,10,,77,72
5280,note_on,,1,0,8,,,,,,,,,,,,,,,,11,,77,72
5309,note_on,,29,0,8,,,,,,,,,,,,,,,,11,,77,0
5309,note_on,,29,0,7,,,,,,,,,,,,,,,,10,,77,0
5310,note_on,,1,0,7,,,,,,,,,,,,,,,,10,,72,72
5310,note_on,,1,0,8,,,,,,,,,,,,,,,,11,,72,72
5339,note_on,,29,0,7,,,,,,,,,,,,,,,,10,,72,0
5339,note_on,,29,0,8,,,,,,,,,,,,,,,,11,,72,0
5340,note_on,,1,0,8,,,,,,,,,,,,,,,,11,,69,72
5340,note_on,,1,0,7,,,,,,,,,,,,,,,,10,,69,72
5369,note_on,,29,0,8,,,,,,,,,,,,,,,,11,,69,0
5369,note_on,,29,0,7,,,,,,,,,,,,,,,,10,,69,0
5370,note_on,,1,0,8,,,,,,,,,,,,,,,,11,,70,72
5370,note_on,,1,0,7,,,,,,,,,,,,,,,,10,,70,72
5399,note_on,,119,0,5,,,,,,,,,,,,,,,,2,,53,0
5399,note_on,,119,0,9,,,,,,,,,,,,,,,,13,,53,0
5399,note_on,,119,0,10,,,,,,,,,,,,,,,,15,,53,0
5399,note_on,,0,0,10,,,,,,,,,,,,,,,,15,,72,0
5399,note_on,,29,0,7,,,,,,,,,,,,,,,,10,,70,0
5399,note_on,,29,0,8,,,,,,,,,,,,,,,,11,,70,0
5399,note_on,,0,0,10,,,,,,,,,,,,,,,,15,,69,0
5399,note_on,,0,0,10,,,,,,,,,,,,,,,,15,,60,0
5400,note_on,,0,0,10,,,,,,,,,,,,,,,,15,,65,48
5400,note_on,,1,0,9,,,,,,,,,,,,,,,,13,,51,48
5400,note_on,,1,0,7,,,,,,,,,,,,,,,,10,,72,72
5400,note_on,,0,0,10,,,,,,,,,,,,,,,,15,,69,48
5400,note_on,,1,0,10,,,,,,,,,,,,,,,,15,,51,48
5400,note_on,,1,0,8,,,,,,,,,,,,,,,,11,,72,72
5400,note_on,,0,0,10,,,,,,,,,,,,,,,,15,,60,48
5400,note_on,,1,0,5,,,,,,,,,,,,,,,,2,,51,48
5429,note_on,,29,0,7,,,,,,,,,,,,,,,,10,,72,0
5429,note_on,,29,0,8,,,,,,,,,,,,,,,,11,,72,0
5430,note_on,,1,0,8,,,,,,,,,,,,,,,,11,,69,72
5430,note_on,,1,0,7,,,,,,,,,,,,,,,,10,,69,72
5459,note_on,,29,0,7,,,,,,,,,,,,,,,,10,,69,0
5459,note_on,,29,0,8,,,,,,,,,,,,,,,,11,,69,0
5460,note_on,,1,0,7,,,,,,,,,,,,,,,,10,,70,72
5460,note_on,,1,0,8,,,,,,,,,,,,,,,,11,,70,72
5460,note_on,,421,0,6,,,,,,,,,,,,,,,,5,,65,72
5489,note_on,,29,0,8,,,,,,,,,,,,,,,,11,,70,0
5489,note_on,,29,0,7,,,,,,,,,,,,,,,,10,,70,0
5490,note_on,,1,0,8,,,,,,,,,,,,,,,,11,,72,72
5490,note_on,,1,0,7,,,,,,,,,,,,,,,,10,,72,72
5519,note_on,,59,0,6,,,,,,,,,,,,,,,,5,,65,0
5519,note_on,,119,0,5,,,,,,,,,,,,,,,,2,,51,0
5519,note_on,,0,0,10,,,,,,,,,,,,,,,,15,,69,0
5519,note_on,,119,0,10,,,,,,,,,,,,,,,,15,,51,0
5519,note_on,,0,0,10,,,,,,,,,,,,,,,,15,,60,0
5519,note_on,,29,0,8,,,,,,,,,,,,,,,,11,,72,0
5519,note_on,,119,0,9,,,,,,,,,,,,,,,,13,,51,0
5519,note_on,,29,0,7,,,,,,,,,,,,,,,,10,,72,0
5519,note_on,,0,0,10,,,,,,,,,,,,,,,,15,,65,0
5520,note_on,,0,0,10,,,,,,,,,,,,,,,,15,,62,48
5520,note_on,,1,0,8,,,,,,,,,,,,,,,,11,,65,72
5520,note_on,,0,0,10,,,,,,,,,,,,,,,,15,,65,48
5520,note_on,,0,0,10,,,,,,,,,,,,,,,,15,,70,48
5520,note_on,,1,0,9,,,,,,,,,,,,,,,,13,,50,48
5520,note_on,,1,0,6,,,,,,,,,,,,,,,,5,,77,72
5520,note_on,,1,0,7,,,,,,,,,,,,,,,,10,,65,72
5520,note_on,,1,0,5,,,,,,,,,,,,,,,,2,,50,48
5520,note_on,,1,0,10,,,,,,,,,,,,,,,,15,,50,48
5549,note_on,,29,0,6,,,,,,,,,,,,,,,,5,,77,0
5550,note_on,,1,0,6,,,,,,,,,,,,,,,,5,,75,72
5579,note_on,,29,0,6,,,,,,,,,,,,,,,,5,,75,0
5580,note_on,,1,0,6,,,,,,,,,,,,,,,,5,,74,72
5609,note_on,,29,0,6,,,,,,,,,,,,,,,,5,,74,0
5610,note_on,,1,0,6,,,,,,,,,,,,,,,,5,,77,72
5639,note_on,,0,0,10,,,,,,,,,,,,,,,,15,,65,0
5639,note_on,,29,0,6,,,,,,,,,,,,,,,,5,,77,0
5639,note_on,,0,0,10,,,,,,,,,,,,,,,,15,,62,0
5639,note_on,,119,0,9,,,,,,,,,,,,,,,,13,,50,0
5639,note_on,,119,0,7,,,,,,,,,,,,,,,,10,,65,0
5639,note_on,,119,0,8,,,,,,,,,,,,,,,,11,,65,0
5639,note_on,,119,0,10,,,,,,,,,,,,,,,,15,,50,0
5639,note_on,,119,0,5,,,,,,,,,,,,,,,,2,,50,0
5639,note_on,,0,0,10,,,,,,,,,,,,,,,,15,,70,0
5640,note_on,,1,0,9,,,,,,,,,,,,,,,,13,,45,48
5640,note_on,,1,0,6,,,,,,,,,,,,,,,,5,,75,72
5640,note_on,,0,0,10,,,,,,,,,,,,,,,,15,,60,48
5640,note_on,,0,0,10,,,,,,,,,,,,,,,,15,,65,48
5640,note_on,,0,0,10,,,,,,,,,,,,,,,,15,,72,48
5640,note_on,,1,0,10,,,,,,,,,,,,,,,,15,,45,48
5669,note_on,,29,0,6,,,,,,,,,,,,,,,,5,,75,0
5670,note_on,,1,0,6,,,,,,,,,,,,,,,,5,,74,72
5699,note_on,,29,0,6,,,,,,,,,,,,,,,,5,,74,0
5700,note_on,,1,0,6,,,,,,,,,,,,,,,,5,,72,72
5729,note_on,,29,0,6,,,,,,,,,,,,,,,,5,,72,0
5730,note_on,,1,0,6,,,,,,,,,,,,,,,,5,,75,72
5759,note_on,,119,0,9,,,,,,,,,,,,,,,,13,,45,0
5759,note_on,,119,0,10,,,,,,,,,,,,,,,,15,,45,0
5759,note_on,,0,0,10,,,,,,,,,,,,,,,,15,,60,0
5759,note_on,,0,0,10,,,,,,,,,,,,,,,,15,,72,0
5759,note_on,,29,0,6,,,,,,,,,,,,,,,,5,,75,0
5759,note_on,,0,0,10,,,,,,,,,,,,,,,,15,,65,0
5760,note_on,,0,0,10,,,,,,,,,,,,,,,,15,,62,48
5760,note_on,,1,0,9,,,,,,,,,,,,,,,,13,,46,48
5760,note_on,,1,0,10,,,,,,,,,,,,,,,,15,,46,48
5760,note_on,,1,0,6,,,,,,,,,,,,,,,,5,,74,72
5760,note_on,,0,0,10,,,,,,,,,,,,,,,,15,,65,48
5760,note_on,,0,0,10,,,,,,,,,,,,,,,,15,,70,48
5789,note_on,,29,0,6,,,,,,,,,,,,,,,,5,,74,0
5790,note_on,,1,0,6,,,,,,,,,,,,,,,,5,,72,72
5819,note_on,,29,0,6,,,,,,,,,,,,,,,,5,,72,0
5820,note_on,,1,0,6,,,,,,,,,,,,,,,,5,,70,72
5849,note_on,,29,0,6,,,,,,,,,,,,,,,,5,,70,0
5850,note_on,,1,0,6,,,,,,,,,,,,,,,,5,,74,72
5879,note_on,,0,0,10,,,,,,,,,,,,,,,,15,,62,0
5879,note_on,,119,0,9,,,,,,,,,,,,,,,,13,,46,0
5879,note_on,,0,0,10,,,,,,,,,,,,,,,,15,,70,0
5879,note_on,,29,0,6,,,,,,,,,,,,,,,,5,,74,0
5879,note_on,,119,0,10,,,,,,,,,,,,,,,,15,,46,0
5879,note_on,,0,0,10,,,,,,,,,,,,,,,,15,,65,0
5880,note_on,,1,0,9,,,,,,,,,,,,,,,,13,,53,48
5880,note_on,,1,0,6,,,,,,,,,,,,,,,,5,,72,72
5880,note_on,,1,0,10,,,,,,,,,,,,,,,,15,,53,48
5880,note_on,,0,0,10,,,,,,,,,,,,,,,,15,,69,48
5880,note_on,,0,0,10,,,,,,,,,,,,,,,,15,,65,48
5880,note_on,,0,0,10,,,,,,,,,,,,,,,,15,,60,48
5939,note_on,,59,0,6,,,,,,,,,,,,,,,,5,,72,0
5940,note_on,,1,0,6,,,,,,,,,,,,,,,,5,,69,72
5999,note_on,,59,0,6,,,,,,,,,,,,,,,,5,,69,0
5999,note_on,,0,0,10,,,,,,,,,,,,,,,,15,,60,0
5999,note_on,,0,0,10,,,,,,,,,,,,,,,,15,,65,0
5999,note_on,,119,0,10,,,,,,,,,,,,,,,,15,,69,0
6000,note_on,,1,0,10,,,,,,,,,,,,,,,,15,,67,48
6000,note_on,,1,0,6,,,,,,,,,,,,,,,,5,,70,72
6000,note_on,,0,0,10,,,,,,,,,,,,,,,,15,,58,48
6000,note_on,,0,0,10,,,,,,,,,,,,,,,,15,,62,48
6059,note_on,,59,0,6,,,,,,,,,,,,,,,,5,,70,0
6060,note_on,,1,0,6,,,,,,,,,,,,,,,,5,,67,72
6119,note_on,,0,0,10,,,,,,,,,,,,,,,,15,,58,0
6119,note_on,,0,0,10,,,,,,,,,,,,,,,,15,,62,0
6119,note_on,,119,0,10,,,,,,,,,,,,,,,,15,,53,0
6119,note_on,,239,0,9,,,,,,,,,,,,,,,,13,,53,0
6119,note_on,,59,0,6,,,,,,,,,,,,,,,,5,,67,0
6120,note_on,,0,0,10,,,,,,,,,,,,,,,,15,,55,48
6120,note_on,,1,0,10,,,,,,,,,,,,,,,,15,,52,48
6120,note_on,,0,0,10,,,,,,,,,,,,,,,,15,,60,48
6120,note_on,,1,0,6,,,,,,,,,,,,,,,,5,,72,72
6120,note_on,,1,0,9,,,,,,,,,,,,,,,,13,,52,48
6179,note_on,,59,0,6,,,,,,,,,,,,,,,,5,,72,0
6180,note_on,,1,0,6,,,,,,,,,,,,,,,,5,,70,72
6239,note_on,,0,0,10,,,,,,,,,,,,,,,,15,,55,0
6239,note_on,,0,0,10,,,,,,,,,,,,,,,,15,,60,0
6239,note_on,,0,0,10,,,,,,,,,,,,,,,,15,,52,0
6239,note_on,,59,0,6,,,,,,,,,,,,,,,,5,,70,0
6239,note_on,,119,0,10,,,,,,,,,,,,,,,,15,,67,0
6239,note_on,,119,0,9,,,,,,,,,,,,,,,,13,,52,0
6240,note_on,,1,0,9,,,,,,,,,,,,,,,,13,,53,48
6240,note_on,,1,0,6,,,,,,,,,,,,,,,,5,,69,72
6240,note_on,,1,0,10,,,,,,,,,,,,,,,,15,,53,48
6240,note_on,,0,0,10,,,,,,,,,,,,,,,,15,,57,48
6240,note_on,,0,0,10,,,,,,,,,,,,,,,,15,,60,48
6240,note_on,,0,0,10,,,,,,,,,,,,,,,,15,,65,48
6329,note_on,,89,0,6,,,,,,,,,,,,,,,,5,,69,0
6330,note_on,,1,0,6,,,,,,,,,,,,,,,,5,,67,72
6359,note_on,,29,0,6,,,,,,,,,,,,,,,,5,,67,0
6359,note_on,,119,0,9,,,,,,,,,,,,,,,,13,,53,0
6359,note_on,,0,0,10,,,,,,,,,,,,,,,,15,,57,0
6359,note_on,,0,0,10,,,,,,,,,,,,,,,,15,,60,0
6359,note_on,,119,0,10,,,,,,,,,,,,,,,,15,,53,0
6360,note_on,,1,0,6,,,,,,,,,,,,,,,,5,,65,72
6360,note_on,,0,0,10,,,,,,,,,,,,,,,,15,,60,48
6360,note_on,,1,0,9,,,,,,,,,,,,,,,,13,,57,48
6360,note_on,,1,0,10,,,,,,,,,,,,,,,,15,,57,48
6390,note_on,,751,0,7,,,,,,,,,,,,,,,,10,,65,72
6390,note_on,,751,0,8,,,,,,,,,,,,,,,,11,,65,72
6419,note_on,,29,0,7,,,,,,,,,,,,,,,,10,,65,0
6419,note_on,,29,0,8,,,,,,,,,,,,,,,,11,,65,0
6420,note_on,,1,0,7,,,,,,,,,,,,,,,,10,,69,72
6420,note_on,,1,0,8,,,,,,,,,,,,,,,,11,,69,72
6449,note_on,,29,0,8,,,,,,,,,,,,,,,,11,,69,0
6449,note_on,,29,0,7,,,,,,,,,,,,,,,,10,,69,0
6450,note_on,,1,0,7,,,,,,,,,,,,,,,,10,,72,72
6450,note_on,,1,0,8,,,,,,,,,,,,,,,,11,,72,72
6479,note_on,,0,0,10,,,,,,,,,,,,,,,,15,,60,0
6479,note_on,,29,0,8,,,,,,,,,,,,,,,,11,,72,0
6479,note_on,,119,0,10,,,,,,,,,,,,,,,,15,,65,0
6479,note_on,,119,0,9,,,,,,,,,,,,,,,,13,,57,0
6479,note_on,,119,0,6,,,,,,,,,,,,,,,,5,,65,0
6479,note_on,,29,0,7,,,,,,,,,,,,,,,,10,,72,0
6479,note_on,,0,0,10,,,,,,,,,,,,,,,,15,,57,0
6480,note_on,,1,0,7,,,,,,,,,,,,,,,,10,,77,72
6480,note_on,,0,0,10,,,,,,,,,,,,,,,,15,,70,48
6480,note_on,,1,0,9,,,,,,,,,,,,,,,,13,,50,48
6480,note_on,,1,0,10,,,,,,,,,,,,,,,,15,,50,48
6480,note_on,,0,0,10,,,,,,,,,,,,,,,,15,,62,48
6480,note_on,,1,0,8,,,,,,,,,,,,,,,,11,,77,72
6480,note_on,,841,0,5,,,,,,,,,,,,,,,,2,,50,48
6480,note_on,,0,0,10,,,,,,,,,,,,,,,,15,,65,48
6509,note_on,,29,0,7,,,,,,,,,,,,,,,,10,,77,0
6509,note_on,,29,0,8,,,,,,,,,,,,,,,,11,,77,0
6510,note_on,,1,0,7,,,,,,,,,,,,,,,,10,,70,72
6510,note_on,,1,0,8,,,,,,,,,,,,,,,,11,,70,72
6539,note_on,,29,0,7,,,,,,,,,,,,,,,,10,,70,0
6539,note_on,,29,0,8,,,,,,,,,,,,,,,,11,,70,0
6540,note_on,,1,0,7,,,,,,,,,,,,,,,,10,,72,72
6540,note_on,,1,0,8,,,,,,,,,,,,,,,,11,,72,72
6569,note_on,,29,0,8,,,,,,,,,,,,,,,,11,,72,0
6569,note_on,,29,0,7,,,,,,,,,,,,,,,,10,,72,0
6570,note_on,,1,0,7,,,,,,,,,,,,,,,,10,,74,72
6570,note_on,,1,0,8,,,,,,,,,,,,,,,,11,,74,72
6599,note_on,,29,0,7,,,,,,,,,,,,,,,,10,,74,0
6599,note_on,,0,0,10,,,,,,,,,,,,,,,,15,,65,0
6599,note_on,,119,0,9,,,,,,,,,,,,,,,,13,,50,0
6599,note_on,,0,0,10,,,,,,,,,,,,,,,,15,,62,0
6599,note_on,,0,0,10,,,,,,,,,,,,,,,,15,,70,0
6599,note_on,,119,0,5,,,,,,,,,,,,,,,,2,,50,0
6599,note_on,,29,0,8,,,,,,,,,,,,,,,,11,,74,0
6599,note_on,,119,0,10,,,,,,,,,,,,,,,,15,,50,0
6600,note_on,,0,0,10,,,,,,,,,,,,,,,,15,,70,48
6600,note_on,,1,0,7,,,,,,,,,,,,,,,,10,,75,72
6600,note_on,,1,0,5,,,,,,,,,,,,,,,,2,,43,48
6600,note_on,,0,0,10,,,,,,,,,,,,,,,,15,,67,48
6600,note_on,,1,0,10,,,,,,,,,,,,,,,,15,,43,48
6600,note_on,,0,0,10,,,,,,,,,,,,,,,,15,,75,48
6600,note_on,,1,0,8,,,,,,,,,,,,,,,,11,,75,72
6600,note_on,,1,0,9,,,,,,,,,,,,,,,,13,,43,48
6629,note_on,,29,0,8,,,,,,,,,,,,,,,,11,,75,0
6629,note_on,,29,0,7,,,,,,,,,,,,,,,,10,,75,0
6630,note_on,,1,0,8,,,,,,,,,,,,,,,,11,,74,72
6630,note_on,,1,0,7,,,,,,,,,,,,,,,,10,,74,72
6659,note_on,,29,0,7,,,,,,,,,,,,,,,,10,,74,0
6659,note_on,,29,0,8,,,,,,,,,,,,,,,,11,,74,0
6660,note_on,,1,0,8,,,,,,,,,,,,,,,,11,,75,72
6660,note_on,,1,0,7,,,,,,,,,,,,,,,,10,,75,72
6689,note_on,,29,0,8,,,,,,,,,,,,,,,,11,,75,0
6689,note_on,,89,0,5,,,,,,,,,,,,,,,,2,,43,0
6689,note_on,,0,0,10,,,,,,,,,,,,,,,,15,,70,0
6689,note_on,,89,0,9,,,,,,,,,,,,,,,,13,,43,0
6689,note_on,,29,0,7,,,,,,,,,,,,,,,,10,,75,0
6689,note_on,,0,0,10,,,,,,,,,,,,,,,,15,,67,0
6689,note_on,,89,0,10,,,,,,,,,,,,,,,,15,,43,0
6690,note_on,,1,0,7,,,,,,,,,,,,,,,,10,,72,72
6690,note_on,,0,0,10,,,,,,,,,,,,,,,,15,,72,48
6690,note_on,,1,0,9,,,,,,,,,,,,,,,,13,,45,48
6690,note_on,,1,0,8,,,,,,,,,,,,,,,,11,,72,72
6690,note_on,,1,0,10,,,,,,,,,,,,,,,,15,,45,48
6690,note_on,,0,0,10,,,,,,,,,,,,,,,,15,,65,48
6690,note_on,,1,0,5,,,,,,,,,,,,,,,,2,,45,48
6719,note_on,,29,0,7,,,,,,,,,,,,,,,,10,,72,0
6719,note_on,,0,0,10,,,,,,,,,,,,,,,,15,,72,0
6719,note_on,,0,0,10,,,,,,,,,,,,,,,,15,,65,0
6719,note_on,,29,0,10,,,,,,,,,,,,,,,,15,,75,0
6719,note_on,,29,0,9,,,,,,,,,,,,,,,,13,,45,0
6719,note_on,,0,0,10,,,,,,,,,,,,,,,,15,,45,0
6719,note_on,,29,0,5,,,,,,,,,,,,,,,,2,,45,0
6719,note_on,,29,0,8,,,,,,,,,,,,,,,,11,,72,0
6720,note_on,,1,0,7,,,,,,,,,,,,,,,,10,,74,72
6720,note_on,,1,0,10,,,,,,,,,,,,,,,,15,,46,48
6720,note_on,,0,0,10,,,,,,,,,,,,,,,,15,,74,48
6720,note_on,,1,0,9,,,,,,,,,,,,,,,,13,,46,48
6720,note_on,,0,0,10,,,,,,,,,,,,,,,,15,,65,48
6720,note_on,,0,0,10,,,,,,,,,,,,,,,,15,,70,48
6720,note_on,,1,0,5,,,,,,,,,,,,,,,,2,,46,48
6720,note_on,,1,0,8,,,,,,,,,,,,,,,,11,,74,72
6749,note_on,,29,0,8,,,,,,,,,,,,,,,,11,,74,0
6749,note_on,,29,0,7,,,,,,,,,,,,,,,,10,,74,0
6750,note_on,,1,0,8,,,,,,,,,,,,,,,,11,,65,72
6750,note_on,,1,0,7,,,,,,,,,,,,,,,,10,,65,72
6779,note_on,,29,0,7,,,,,,,,,,,,,,,,10,,65,0
6779,note_on,,29,0,8,,,,,,,,,,,,,,,,11,,65,0
6780,note_on,,1,0,7,,,,,,,,,,,,,,,,10,,70,72
6780,note_on,,1,0,8,,,,,,,,,,,,,,,,11,,70,72
6809,note_on,,29,0,7,,,,,,,,,,,,,,,,10,,70,0
6809,note_on,,29,0,8,,,,,,,,,,,,,,,,11,,70,0
6810,note_on,,1,0,8,,,,,,,,,,,,,,,,11,,74,72
6810,note_on,,1,0,7,,,,,,,,,,,,,,,,10,,74,72
6839,note_on,,29,0,8,,,,,,,,,,,,,,,,11,,74,0
6839,note_on,,119,0,5,,,,,,,,,,,,,,,,2,,46,0
6839,note_on,,119,0,9,,,,,,,,,,,,,,,,13,,46,0
6839,note_on,,29,0,7,,,,,,,,,,,,,,,,10,,74,0
6839,note_on,,0,0,10,,,,,,,,,,,,,,,,15,,65,0
6839,note_on,,0,0,10,,,,,,,,,,,,,,,,15,,70,0
6839,note_on,,0,0,10,,,,,,,,,,,,,,,,15,,74,0
6839,note_on,,119,0,10,,,,,,,,,,,,,,,,15,,46,0
6840,note_on,,0,0,10,,,,,,,,,,,,,,,,15,,69,48
6840,note_on,,1,0,10,,,,,,,,,,,,,,,,15,,53,48
6840,note_on,,0,0,10,,,,,,,,,,,,,,,,15,,65,48
6840,note_on,,1,0,8,,,,,,,,,,,,,,,,11,,72,72
6840,note_on,,1,0,7,,,,,,,,,,,,,,,,10,,72,72
6840,note_on,,1,0,9,,,,,,,,,,,,,,,,13,,53,48
6840,note_on,,1,0,5,,,,,,,,,,,,,,,,2,,53,48
6840,note_on,,0,0,10,,,,,,,,,,,,,,,,15,,60,48
6869,note_on,,29,0,7,,,,,,,,,,,,,,,,10,,72,0
6869,note_on,,29,0,8,,,,,,,,,,,,,,,,11,,72,0
6870,note_on,,1,0,7,,,,,,,,,,,,,,,,10,,65,72
6870,note_on,,1,0,8,,,,,,,,,,,,,,,,11,,65,72
6899,note_on,,29,0,8,,,,,,,,,,,,,,,,11,,65,0
6899,note_on,,29,0,7,,,,,,,,,,,,,,,,10,,65,0
6900,note_on,,1,0,7,,,,,,,,,,,,,,,,10,,69,72
6900,note_on,,1,0,8,,,,,,,,,,,,,,,,11,,69,72
6929,note_on,,29,0,7,,,,,,,,,,,,,,,,10,,69,0
6929,note_on,,29,0,8,,,,,,,,,,,,,,,,11,,69,0
6930,note_on,,1,0,8,,,,,,,,,,,,,,,,11,,72,72
6930,note_on,,1,0,7,,,,,,,,,,,,,,,,10,,72,72
6959,note_on,,0,0,10,,,,,,,,,,,,,,,,15,,65,0
6959,note_on,,0,0,10,,,,,,,,,,,,,,,,15,,60,0
6959,note_on,,29,0,7,,,,,,,,,,,,,,,,10,,72,0
6959,note_on,,119,0,10,,,,,,,,,,,,,,,,15,,69,0
6959,note_on,,29,0,8,,,,,,,,,,,,,,,,11,,72,0
6960,note_on,,1,0,8,,,,,,,,,,,,,,,,11,,70,72
6960,note_on,,1,0,7,,,,,,,,,,,,,,,,10,,70,72
6960,note_on,,0,0,10,,,,,,,,,,,,,,,,15,,62,48
6960,note_on,,0,0,10,,,,,,,,,,,,,,,,15,,67,48
6960,note_on,,1,0,10,,,,,,,,,,,,,,,,15,,70,48
7019,note_on,,59,0,7,,,,,,,,,,,,,,,,10,,70,0
7019,note_on,,59,0,8,,,,,,,,,,,,,,,,11,,70,0
7020,note_on,,1,0,7,,,,,,,,,,,,,,,,10,,67,72
7020,note_on,,1,0,8,,,,,,,,,,,,,,,,11,,67,72
7079,note_on,,239,0,5,,,,,,,,,,,,,,,,2,,53,0
7079,note_on,,119,0,10,,,,,,,,,,,,,,,,15,,53,0
7079,note_on,,0,0,10,,,,,,,,,,,,,,,,15,,62,0
7079,note_on,,59,0,7,,,,,,,,,,,,,,,,10,,67,0
7079,note_on,,0,0,10,,,,,,,,,,,,,,,,15,,67,0
7079,note_on,,239,0,9,,,,,,,,,,,,,,,,13,,53,0
7079,note_on,,0,0,10,,,,,,,,,,,,,,,,15,,70,0
7079,note_on,,59,0,8,,,,,,,,,,,,,,,,11,,67,0
7080,note_on,,1,0,7,,,,,,,,,,,,,,,,10,,72,72
7080,note_on,,1,0,5,,,,,,,,,,,,,,,,2,,51,48
7080,note_on,,1,0,8,,,,,,,,,,,,,,,,11,,72,72
7080,note_on,,1,0,10,,,,,,,,,,,,,,,,15,,51,48
7080,note_on,,1,0,9,,,,,,,,,,,,,,,,13,,51,48
7080,note_on,,0,0,10,,,,,,,,,,,,,,,,15,,67,48
7080,note_on,,0,0,10,,,,,,,,,,,,,,,,15,,60,48
7080,note_on,,0,0,10,,,,,,,,,,,,,,,,15,,72,48
7139,note_on,,59,0,8,,,,,,,,,,,,,,,,11,,72,0
7139,note_on,,59,0,7,,,,,,,,,,,,,,,,10,,72,0
7140,note_on,,1,0,8,,,,,,,,,,,,,,,,11,,70,72
7140,note_on,,1,0,7,,,,,,,,,,,,,,,,10,,70,72
7199,note_on,,59,0,8,,,,,,,,,,,,,,,,11,,70,0
7199,note_on,,59,0,7,,,,,,,,,,,,,,,,10,,70,0
7199,note_on,,119,0,10,,,,,,,,,,,,,,,,15,,72,0
7199,note_on,,0,0,10,,,,,,,,,,,,,,,,15,,60,0
7199,note_on,,0,0,10,,,,,,,,,,,,,,,,15,,67,0
7200,note_on,,1,0,10,,,,,,,,,,,,,,,,15,,65,48
7200,note_on,,0,0,10,,,,,,,,,,,,,,,,15,,60,48
7200,note_on,,0,0,10,,,,,,,,,,,,,,,,15,,57,48
7200,note_on,,1,0,8,,,,,,,,,,,,,,,,11,,69,72
7200,note_on,,1,0,7,,,,,,,,,,,,,,,,10,,69,72
7229,note_on,,29,0,8,,,,,,,,,,,,,,,,11,,69,0
7229,note_on,,29,0,7,,,,,,,,,,,,,,,,10,,69,0
7230,note_on,,1,0,7,,,,,,,,,,,,,,,,10,,67,72
7230,note_on,,1,0,8,,,,,,,,,,,,,,,,11,,67,72
7259,note_on,,29,0,8,,,,,,,,,,,,,,,,11,,67,0
7259,note_on,,29,0,7,,,,,,,,,,,,,,,,10,,67,0
7260,note_on,,1,0,8,,,,,,,,,,,,,,,,11,,65,72
7260,note_on,,1,0,7,,,,,,,,,,,,,,,,10,,65,72
7319,note_on,,59,0,8,,,,,,,,,,,,,,,,11,,65,0
7319,note_on,,239,0,9,,,,,,,,,,,,,,,,13,,51,0
7319,note_on,,59,0,7,,,,,,,,,,,,,,,,10,,65,0
7319,note_on,,119,0,10,,,,,,,,,,,,,,,,15,,51,0
7319,note_on,,0,0,10,,,,,,,,,,,,,,,,15,,60,0
7319,note_on,,0,0,10,,,,,,,,,,,,,,,,15,,57,0
7319,note_on,,239,0,5,,,,,,,,,,,,,,,,2,,51,0
7320,note_on,,1,0,7,,,,,,,,,,,,,,,,10,,70,72
7320,note_on,,1,0,9,,,,,,,,,,,,,,,,13,,50,48
7320,note_on,,1,0,10,,,,,,,,,,,,,,,,15,,50,48
7320,note_on,,0,0,10,,,,,,,,,,,,,,,,15,,58,48
7320,note_on,,1,0,5,,,,,,,,,,,,,,,,2,,50,48
7320,note_on,,0,0,10,,,,,,,,,,,,,,,,15,,53,48
7320,note_on,,1,0,8,,,,,,,,,,,,,,,,11,,70,72
7380,note_on,,901,0,6,,,,,,,,,,,,,,,,5,,77,72
7439,note_on,,119,0,10,,,,,,,,,,,,,,,,15,,65,0
7439,note_on,,0,0,10,,,,,,,,,,,,,,,,15,,50,0
7439,note_on,,0,0,10,,,,,,,,,,,,,,,,15,,58,0
7439,note_on,,0,0,10,,,,,,,,,,,,,,,,15,,53,0
7439,note_on,,119,0,7,,,,,,,,,,,,,,,,10,,70,0
7439,note_on,,119,0,8,,,,,,,,,,,,,,,,11,,70,0
7439,note_on,,119,0,9,,,,,,,,,,,,,,,,13,,50,0
7439,note_on,,59,0,6,,,,,,,,,,,,,,,,5,,77,0
7439,note_on,,119,0,5,,,,,,,,,,,,,,,,2,,50,0
7440,note_on,,0,0,10,,,,,,,,,,,,,,,,15,,63,48
7440,note_on,,0,0,10,,,,,,,,,,,,,,,,15,,67,48
7440,note_on,,1,0,9,,,,,,,,,,,,,,,,13,,51,48
7440,note_on,,1,0,10,,,,,,,,,,,,,,,,15,,51,48
7440,note_on,,0,0,10,,,,,,,,,,,,,,,,15,,58,48
7440,note_on,,1,0,6,,,,,,,,,,,,,,,,5,,79,72
7499,note_on,,59,0,6,,,,,,,,,,,,,,,,5,,79,0
7500,note_on,,1,0,6,,,,,,,,,,,,,,,,5,,72,72
7559,note_on,,119,0,10,,,,,,,,,,,,,,,,15,,51,0
7559,note_on,,119,0,9,,,,,,,,,,,,,,,,13,,51,0
7559,note_on,,0,0,10,,,,,,,,,,,,,,,,15,,67,0
7559,note_on,,0,0,10,,,,,,,,,,,,,,,,15,,63,0
7559,note_on,,0,0,10,,,,,,,,,,,,,,,,15,,58,0
7560,note_on,,1,0,9,,,,,,,,,,,,,,,,13,,63,48
7560,note_on,,0,0,10,,,,,,,,,,,,,,,,15,,69,48
7560,note_on,,0,0,10,,,,,,,,,,,,,,,,15,,65,48
7560,note_on,,1,0,10,,,,,,,,,,,,,,,,15,,63,48
7560,note_on,,0,0,10,,,,,,,,,,,,,,,,15,,72,48
7619,note_on,,119,0,6,,,,,,,,,,,,,,,,5,,72,0
7620,note_on,,1,0,6,,,,,,,,,,,,,,,,5,,74,72
7649,note_on,,29,0,6,,,,,,,,,,,,,,,,5,,74,0
7650,note_on,,1,0,6,,,,,,,,,,,,,,,,5,,75,72
7679,note_on,,119,0,10,,,,,,,,,,,,,,,,15,,63,0
7679,note_on,,0,0,10,,,,,,,,,,,,,,,,15,,72,0
7679,note_on,,0,0,10,,,,,,,,,,,,,,,,15,,69,0
7679,note_on,,29,0,6,,,,,,,,,,,,,,,,5,,75,0
7679,note_on,,119,0,9,,,,,,,,,,,,,,,,13,,63,0
7679,note_on,,0,0,10,,,,,,,,,,,,,,,,15,,65,0
7680,note_on,,1,0,6,,,,,,,,,,,,,,,,5,,77,72
7680,note_on,,0,0,10,,,,,,,,,,,,,,,,15,,70,48
7680,note_on,,1,0,9,,,,,,,,,,,,,,,,13,,62,48
7680,note_on,,0,0,10,,,,,,,,,,,,,,,,15,,65,48
7680,note_on,,1,0,10,,,,,,,,,,,,,,,,15,,62,48
7739,note_on,,59,0,6,,,,,,,,,,,,,,,,5,,77,0
7740,note_on,,301,0,7,,,,,,,,,,,,,,,,10,,77,72
7740,note_on,,301,0,8,,,,,,,,,,,,,,,,11,,77,72
7740,note_on,,1,0,6,,,,,,,,,,,,,,,,5,,70,72
7799,note_on,,59,0,6,,,,,,,,,,,,,,,,5,,70,0
7799,note_on,,0,0,10,,,,,,,,,,,,,,,,15,,65,0
7799,note_on,,0,0,10,,,,,,,,,,,,,,,,15,,70,0
7799,note_on,,59,0,7,,,,,,,,,,,,,,,,10,,77,0
7799,note_on,,119,0,9,,,,,,,,,,,,,,,,13,,62,0
7799,note_on,,59,0,8,,,,,,,,,,,,,,,,11,,77,0
7799,note_on,,119,0,10,,,,,,,,,,,,,,,,15,,62,0
7800,note_on,,0,0,10,,,,,,,,,,,,,,,,15,,65,48
7800,note_on,,1,0,9,,,,,,,,,,,,,,,,13,,50,48
7800,note_on,,0,0,10,,,,,,,,,,,,,,,,15,,74,48
7800,note_on,,0,0,10,,,,,,,,,,,,,,,,15,,70,48
7800,note_on,,1,0,8,,,,,,,,,,,,,,,,11,,82,72
7800,note_on,,1,0,7,,,,,,,,,,,,,,,,10,,82,72
7800,note_on,,1,0,10,,,,,,,,,,,,,,,,15,,50,48
7860,note_on,,61,0,6,,,,,,,,,,,,,,,,5,,70,72
7919,note_on,,119,0,10,,,,,,,,,,,,,,,,15,,50,0
7919,note_on,,59,0,6,,,,,,,,,,,,,,,,5,,70,0
7919,note_on,,119,0,8,,,,,,,,,,,,,,,,11,,82,0
7919,note_on,,119,0,7,,,,,,,,,,,,,,,,10,,82,0
7919,note_on,,119,0,9,,,,,,,,,,,,,,,,13,,50,0
7919,note_on,,0,0,10,,,,,,,,,,,,,,,,15,,65,0
7919,note_on,,0,0,10,,,,,,,,,,,,,,,,15,,70,0
7919,note_on,,0,0,10,,,,,,,,,,,,,,,,15,,74,0
7920,note_on,,0,0,10,,,,,,,,,,,,,,,,15,,70,48
7920,note_on,,0,0,10,,,,,,,,,,,,,,,,15,,72,48
7920,note_on,,0,0,10,,,,,,,,,,,,,,,,15,,75,48
7920,note_on,,1,0,10,,,,,,,,,,,,,,,,15,,48,48
7920,note_on,,1,0,9,,,,,,,,,,,,,,,,13,,48,48
7920,note_on,,1,0,6,,,,,,,,,,,,,,,,5,,75,72
7949,note_on,,29,0,6,,,,,,,,,,,,,,,,5,,75,0
7950,note_on,,1,0,6,,,,,,,,,,,,,,,,5,,74,72
7979,note_on,,29,0,6,,,,,,,,,,,,,,,,5,,74,0
7980,note_on,,1,0,6,,,,,,,,,,,,,,,,5,,72,72
8009,note_on,,29,0,6,,,,,,,,,,,,,,,,5,,72,0
8010,note_on,,1,0,6,,,,,,,,,,,,,,,,5,,74,72
8039,note_on,,119,0,9,,,,,,,,,,,,,,,,13,,48,0
8039,note_on,,119,0,10,,,,,,,,,,,,,,,,15,,48,0
8039,note_on,,0,0,10,,,,,,,,,,,,,,,,15,,75,0
8039,note_on,,0,0,10,,,,,,,,,,,,,,,,15,,70,0
8039,note_on,,0,0,10,,,,,,,,,,,,,,,,15,,72,0
8039,note_on,,29,0,6,,,,,,,,,,,,,,,,5,,74,0
8040,note_on,,1,0,10,,,,,,,,,,,,,,,,15,,53,48
8040,note_on,,1,0,9,,,,,,,,,,,,,,,,13,,53,48
8040,note_on,,0,0,10,,,,,,,,,,,,,,,,15,,69,48
8040,note_on,,0,0,10,,,,,,,,,,,,,,,,15,,72,48
8040,note_on,,0,0,10,,,,,,,,,,,,,,,,15,,65,48
8040,note_on,,1,0,6,,,,,,,,,,,,,,,,5,,75,72
8069,note_on,,29,0,6,,,,,,,,,,,,,,,,5,,75,0
8070,note_on,,1,0,6,,,,,,,,,,,,,,,,5,,74,72
8099,note_on,,29,0,6,,,,,,,,,,,,,,,,5,,74,0
8100,note_on,,1,0,6,,,,,,,,,,,,,,,,5,,75,72
8129,note_on,,29,0,6,,,,,,,,,,,,,,,,5,,75,0
8130,note_on,,1,0,6,,,,,,,,,,,,,,,,5,,72,72
8159,note_on,,29,0,6,,,,,,,,,,,,,,,,5,,72,0
8159,note_on,,0,0,10,,,,,,,,,,,,,,,,15,,69,0
8159,note_on,,0,0,10,,,,,,,,,,,,,,,,15,,65,0
8159,note_on,,0,0,10,,,,,,,,,,,,,,,,15,,72,0
8159,note_on,,119,0,10,,,,,,,,,,,,,,,,15,,53,0
8159,note_on,,119,0,9,,,,,,,,,,,,,,,,13,,53,0
8160,note_on,,0,0,10,,,,,,,,,,,,,,,,15,,70,48
8160,note_on,,0,0,10,,,,,,,,,,,,,,,,15,,65,48
8160,note_on,,1,0,10,,,,,,,,,,,,,,,,15,,46,48
8160,note_on,,1,0,9,,,,,,,,,,,,,,,,13,,46,48
8160,note_on,,1,0,6,,,,,,,,,,,,,,,,5,,74,72
8160,note_on,,0,0,10,,,,,,,,,,,,,,,,15,,74,48
8220,note_on,,301,0,7,,,,,,,,,,,,,,,,10,,65,72
8220,note_on,,301,0,8,,,,,,,,,,,,,,,,11,,65,72
8279,note_on,,0,0,10,,,,,,,,,,,,,,,,15,,74,0
8279,note_on,,0,0,10,,,,,,,,,,,,,,,,15,,65,0
8279,note_on,,0,0,10,,,,,,,,,,,,,,,,15,,70,0
8279,note_on,,119,0,10,,,,,,,,,,,,,,,,15,,46,0
8279,note_on,,119,0,9,,,,,,,,,,,,,,,,13,,46,0
8279,note_on,,119,0,6,,,,,,,,,,,,,,,,5,,74,0
8279,note_on,,59,0,7,,,,,,,,,,,,,,,,10,,65,0
8279,note_on,,59,0,8,,,,,,,,,,,,,,,,11,,65,0
8280,note_on,,1,0,8,,,,,,,,,,,,,,,,11,,58,72
8280,note_on,,1,0,7,,,,,,,,,,,,,,,,10,,58,72
8280,note_on,,1,0,10,,,,,,,,,,,,,,,,15,,50,48
8280,note_on,,0,0,10,,,,,,,,,,,,,,,,15,,70,48
8280,note_on,,0,0,10,,,,,,,,,,,,,,,,15,,65,48
8280,note_on,,0,0,10,,,,,,,,,,,,,,,,15,,62,48
8280,note_on,,1,0,9,,,,,,,,,,,,,,,,13,,50,48
8340,note_on,,61,0,6,,,,,,,,,,,,,,,,5,,77,72
8399,note_on,,119,0,9,,,,,,,,,,,,,,,,13,,50,0
8399,note_on,,59,0,6,,,,,,,,,,,,,,,,5,,77,0
8399,note_on,,0,0,10,,,,,,,,,,,,,,,,15,,62,0
8399,note_on,,119,0,7,,,,,,,,,,,,,,,,10,,58,0
8399,note_on,,119,0,8,,,,,,,,,,,,,,,,11,,58,0
8399,note_on,,119,0,10,,,,,,,,,,,,,,,,15,,50,0
8399,note_on,,0,0,10,,,,,,,,,,,,,,,,15,,65,0
8399,note_on,,0,0,10,,,,,,,,,,,,,,,,15,,70,0
8400,note_on,,1,0,10,,,,,,,,,,,,,,,,15,,51,48
8400,note_on,,0,0,10,,,,,,,,,,,,,,,,15,,67,48
8400,note_on,,0,0,10,,,,,,,,,,,,,,,,15,,63,48
8400,note_on,,0,0,10,,,,,,,,,,,,,,,,15,,58,48
8400,note_on,,1,0,6,,,,,,,,,,,,,,,,5,,79,72
8400,note_on,,1,0,9,,,,,,,,,,,,,,,,13,,51,48
8429,note_on,,29,0,6,,,,,,,,,,,,,,,,5,,79,0
8430,note_on,,1,0,6,,,,,,,,,,,,,,,,5,,75,72
8459,note_on,,29,0,6,,,,,,,,,,,,,,,,5,,75,0
8460,note_on,,1,0,6,,,,,,,,,,,,,,,,5,,77,72
8489,note_on,,29,0,6,,,,,,,,,,,,,,,,5,,77,0
8490,note_on,,1,0,6,,,,,,,,,,,,,,,,5,,79,72
8519,note_on,,29,0,6,,,,,,,,,,,,,,,,5,,79,0
8519,note_on,,119,0,9,,,,,,,,,,,,,,,,13,,51,0
8519,note_on,,0,0,10,,,,,,,,,,,,,,,,15,,63,0
8519,note_on,,0,0,10,,,,,,,,,,,,,,,,15,,58,0
8519,note_on,,0,0,10,,,,,,,,,,,,,,,,15,,67,0
8519,note_on,,119,0,10,,,,,,,,,,,,,,,,15,,51,0
8520,note_on,,0,0,10,,,,,,,,,,,,,,,,15,,69,48
8520,note_on,,0,0,10,,,,,,,,,,,,,,,,15,,72,48
8520,note_on,,1,0,9,,,,,,,,,,,,,,,,13,,63,48
8520,note_on,,1,0,10,,,,,,,,,,,,,,,,15,,63,48
8520,note_on,,1,0,6,,,,,,,,,,,,,,,,5,,72,72
8520,note_on,,0,0,10,,,,,,,,,,,,,,,,15,,65,48
8549,note_on,,29,0,6,,,,,,,,,,,,,,,,5,,72,0
8550,note_on,,1,0,6,,,,,,,,,,,,,,,,5,,75,72
8579,note_on,,29,0,6,,,,,,,,,,,,,,,,5,,75,0
8580,note_on,,1,0,6,,,,,,,,,,,,,,,,5,,74,72
8609,note_on,,29,0,6,,,,,,,,,,,,,,,,5,,74,0
8610,note_on,,1,0,6,,,,,,,,,,,,,,,,5,,72,72
8639,note_on,,0,0,10,,,,,,,,,,,,,,,,15,,65,0
8639,note_on,,29,0,6,,,,,,,,,,,,,,,,5,,72,0
8639,note_on,,119,0,9,,,,,,,,,,,,,,,,13,,63,0
8639,note_on,,0,0,10,,,,,,,,,,,,,,,,15,,72,0
8639,note_on,,0,0,10,,,,,,,,,,,,,,,,15,,69,0
8639,note_on,,119,0,10,,,,,,,,,,,,,,,,15,,63,0
8640,note_on,,1,0,10,,,,,,,,,,,,,,,,15,,62,48
8640,note_on,,1,0,6,,,,,,,,,,,,,,,,5,,77,72
8640,note_on,,1,0,9,,,,,,,,,,,,,,,,13,,62,48
8640,note_on,,0,0,10,,,,,,,,,,,,,,,,15,,65,48
8640,note_on,,0,0,10,,,,,,,,,,,,,,,,15,,70,48
8640,note_on,,0,0,10,,,,,,,,,,,,,,,,15,,74,48
8669,note_on,,29,0,6,,,,,,,,,,,,,,,,5,,77,0
8670,note_on,,1,0,6,,,,,,,,,,,,,,,,5,,74,72
8699,note_on,,29,0,6,,,,,,,,,,,,,,,,5,,74,0
8700,note_on,,1,0,6,,,,,,,,,,,,,,,,5,,75,72
8729,note_on,,29,0,6,,,,,,,,,,,,,,,,5,,75,0
8730,note_on,,1,0,6,,,,,,,,,,,,,,,,5,,77,72
8759,note_on,,29,0,6,,,,,,,,,,,,,,,,5,,77,0
8759,note_on,,0,0,10,,,,,,,,,,,,,,,,15,,65,0
8759,note_on,,119,0,10,,,,,,,,,,,,,,,,15,,62,0
8759,note_on,,0,0,10,,,,,,,,,,,,,,,,15,,74,0
8759,note_on,,0,0,10,,,,,,,,,,,,,,,,15,,70,0
8759,note_on,,119,0,9,,,,,,,,,,,,,,,,13,,62,0
8760,note_on,,1,0,10,,,,,,,,,,,,,,,,15,,55,48
8760,note_on,,1,0,6,,,,,,,,,,,,,,,,5,,70,72
8760,note_on,,0,0,10,,,,,,,,,,,,,,,,15,,70,48
8760,note_on,,0,0,10,,,,,,,,,,,,,,,,15,,74,48
8760,note_on,,1,0,9,,,,,,,,,,,,,,,,13,,55,48
8760,note_on,,0,0,10,,,,,,,,,,,,,,,,15,,79,48
8789,note_on,,29,0,6,,,,,,,,,,,,,,,,5,,70,0
8790,note_on,,1,0,6,,,,,,,,,,,,,,,,5,,74,72
8819,note_on,,29,0,6,,,,,,,,,,,,,,,,5,,74,0
8820,note_on,,1,0,6,,,,,,,,,,,,,,,,5,,72,72
8849,note_on,,29,0,6,,,,,,,,,,,,,,,,5,,72,0
8850,note_on,,1,0,6,,,,,,,,,,,,,,,,5,,70,72
8879,note_on,,0,0,10,,,,,,,,,,,,,,,,15,,74,0
8879,note_on,,29,0,6,,,,,,,,,,,,,,,,5,,70,0
8879,note_on,,119,0,9,,,,,,,,,,,,,,,,13,,55,0
8879,note_on,,0,0,10,,,,,,,,,,,,,,,,15,,79,0
8879,note_on,,0,0,10,,,,,,,,,,,,,,,,15,,70,0
8879,note_on,,119,0,10,,,,,,,,,,,,,,,,15,,55,0
8880,note_on,,1,0,6,,,,,,,,,,,,,,,,5,,75,72
8880,note_on,,1,0,9,,,,,,,,,,,,,,,,13,,60,48
8880,note_on,,0,0,10,,,,,,,,,,,,,,,,15,,70,48
8880,note_on,,0,0,10,,,,,,,,,,,,,,,,15,,75,48
8880,note_on,,1,0,10,,,,,,,,,,,,,,,,15,,60,48
8880,note_on,,0,0,10,,,,,,,,,,,,,,,,15,,72,48
8909,note_on,,29,0,6,,,,,,,,,,,,,,,,5,,75,0
8910,note_on,,1,0,6,,,,,,,,,,,,,,,,5,,72,72
8939,note_on,,29,0,6,,,,,,,,,,,,,,,,5,,72,0
8940,note_on,,1,0,6,,,,,,,,,,,,,,,,5,,74,72
8969,note_on,,29,0,6,,,,,,,,,,,,,,,,5,,74,0
8970,note_on,,1,0,6,,,,,,,,,,,,,,,,5,,75,72
8999,note_on,,0,0,10,,,,,,,,,,,,,,,,15,,75,0
8999,note_on,,29,0,6,,,,,,,,,,,,,,,,5,,75,0
8999,note_on,,119,0,10,,,,,,,,,,,,,,,,15,,60,0
8999,note_on,,119,0,9,,,,,,,,,,,,,,,,13,,60,0
8999,note_on,,0,0,10,,,,,,,,,,,,,,,,15,,72,0
8999,note_on,,0,0,10,,,,,,,,,,,,,,,,15,,70,0
9000,note_on,,1,0,6,,,,,,,,,,,,,,,,5,,69,72
9000,note_on,,1,0,9,,,,,,,,,,,,,,,,13,,53,48
9000,note_on,,1,0,10,,,,,,,,,,,,,,,,15,,53,48
9000,note_on,,0,0,10,,,,,,,,,,,,,,,,15,,72,48
9000,note_on,,0,0,10,,,,,,,,,,,,,,,,15,,77,48
9000,note_on,,0,0,10,,,,,,,,,,,,,,,,15,,69,48
9029,note_on,,29,0,6,,,,,,,,,,,,,,,,5,,69,0
9030,note_on,,1,0,6,,,,,,,,,,,,,,,,5,,72,72
9059,note_on,,29,0,6,,,,,,,,,,,,,,,,5,,72,0
9060,note_on,,1,0,6,,,,,,,,,,,,,,,,5,,70,72
9089,note_on,,29,0,6,,,,,,,,,,,,,,,,5,,70,0
9090,note_on,,1,0,6,,,,,,,,,,,,,,,,5,,69,72
9119,note_on,,119,0,10,,,,,,,,,,,,,,,,15,,53,0
9119,note_on,,0,0,10,,,,,,,,,,,,,,,,15,,77,0
9119,note_on,,119,0,9,,,,,,,,,,,,,,,,13,,53,0
9119,note_on,,0,0,10,,,,,,,,,,,,,,,,15,,69,0
9119,note_on,,0,0,10,,,,,,,,,,,,,,,,15,,72,0
9119,note_on,,29,0,6,,,,,,,,,,,,,,,,5,,69,0
9120,note_on,,0,0,10,,,,,,,,,,,,,,,,15,,70,48
9120,note_on,,1,0,9,,,,,,,,,,,,,,,,13,,46,48
9120,note_on,,1,0,10,,,,,,,,,,,,,,,,15,,46,48
9120,note_on,,0,0,10,,,,,,,,,,,,,,,,15,,74,48
9120,note_on,,0,0,10,,,,,,,,,,,,,,,,15,,65,48
9120,note_on,,1,0,6,,,,,,,,,,,,,,,,5,,74,72
9149,note_on,,29,0,6,,,,,,,,,,,,,,,,5,,74,0
9150,note_on,,1,0,6,,,,,,,,,,,,,,,,5,,72,72
9179,note_on,,29,0,6,,,,,,,,,,,,,,,,5,,72,0
9180,note_on,,1,0,6,,,,,,,,,,,,,,,,5,,70,72
9239,note_on,,0,0,10,,,,,,,,,,,,,,,,15,,70,0
9239,note_on,,119,0,9,,,,,,,,,,,,,,,,13,,46,0
9239,note_on,,59,0,6,,,,,,,,,,,,,,,,5,,70,0
9239,note_on,,119,0,10,,,,,,,,,,,,,,,,15,,46,0
9239,note_on,,0,0,10,,,,,,,,,,,,,,,,15,,74,0
9239,note_on,,0,0,10,,,,,,,,,,,,,,,,15,,65,0
9240,note_on,,0,0,10,,,,,,,,,,,,,,,,15,,62,48
9240,note_on,,1,0,10,,,,,,,,,,,,,,,,15,,58,48
9240,note_on,,0,0,10,,,,,,,,,,,,,,,,15,,70,48
9240,note_on,,1,0,9,,,,,,,,,,,,,,,,13,,58,48
9300,note_on,,61,0,6,,,,,,,,,,,,,,,,5,,77,72
9359,note_on,,59,0,6,,,,,,,,,,,,,,,,5,,77,0
9359,note_on,,119,0,10,,,,,,,,,,,,,,,,15,,70,0
9359,note_on,,0,0,10,,,,,,,,,,,,,,,,15,,62,0
9360,note_on,,1,0,10,,,,,,,,,,,,,,,,15,,67,48
9360,note_on,,0,0,10,,,,,,,,,,,,,,,,15,,64,48
9360,note_on,,0,0,10,,,,,,,,,,,,,,,,15,,60,48
9360,note_on,,1,0,6,,,,,,,,,,,,,,,,5,,72,72
9389,note_on,,29,0,6,,,,,,,,,,,,,,,,5,,72,0
9390,note_on,,1,0,6,,,,,,,,,,,,,,,,5,,76,72
9419,note_on,,29,0,6,,,,,,,,,,,,,,,,5,,76,0
9420,note_on,,1,0,6,,,,,,,,,,,,,,,,5,,74,72
9449,note_on,,29,0,6,,,,,,,,,,,,,,,,5,,74,0
9450,note_on,,1,0,6,,,,,,,,,,,,,,,,5,,72,72
9479,note_on,,29,0,6,,,,,,,,,,,,,,,,5,,72,0
9479,note_on,,119,0,10,,,,,,,,,,,,,,,,15,,58,0
9479,note_on,,0,0,10,,,,,,,,,,,,,,,,15,,67,0
9479,note_on,,0,0,10,,,,,,,,,,,,,,,,15,,64,0
9479,note_on,,239,0,9,,,,,,,,,,,,,,,,13,,58,0
9479,note_on,,0,0,10,,,,,,,,,,,,,,,,15,,60,0
9480,note_on,,0,0,10,,,,,,,,,,,,,,,,15,,69,48
9480,note_on,,0,0,10,,,,,,,,,,,,,,,,15,,65,48
9480,note_on,,1,0,10,,,,,,,,,,,,,,,,15,,57,48
9480,note_on,,0,0,10,,,,,,,,,,,,,,,,15,,60,48
9480,note_on,,1,0,9,,,,,,,,,,,,,,,,13,,57,48
9480,note_on,,1,0,6,,,,,,,,,,,,,,,,5,,77,72
9509,note_on,,29,0,6,,,,,,,,,,,,,,,,5,,77,0
9510,note_on,,1,0,6,,,,,,,,,,,,,,,,5,,76,72
9539,note_on,,29,0,6,,,,,,,,,,,,,,,,5,,76,0
9540,note_on,,1,0,6,,,,,,,,,,,,,,,,5,,77,72
9569,note_on,,29,0,6,,,,,,,,,,,,,,,,5,,77,0
9570,note_on,,1,0,6,,,,,,,,,,,,,,,,5,,69,72
9599,note_on,,0,0,10,,,,,,,,,,,,,,,,15,,65,0
9599,note_on,,0,0,10,,,,,,,,,,,,,,,,15,,60,0
9599,note_on,,29,0,6,,,,,,,,,,,,,,,,5,,69,0
9599,note_on,,119,0,10,,,,,,,,,,,,,,,,15,,69,0
9600,note_on,,0,0,10,,,,,,,,,,,,,,,,15,,65,48
9600,note_on,,1,0,6,,,,,,,,,,,,,,,,5,,70,72
9600,note_on,,0,0,10,,,,,,,,,,,,,,,,15,,62,48
9600,note_on,,1,0,10,,,,,,,,,,,,,,,,15,,70,48
9629,note_on,,29,0,6,,,,,,,,,,,,,,,,5,,70,0
9630,note_on,,1,0,6,,,,,,,,,,,,,,,,5,,74,72
9659,note_on,,29,0,6,,,,,,,,,,,,,,,,5,,74,0
9660,note_on,,1,0,6,,,,,,,,,,,,,,,,5,,72,72
9689,note_on,,29,0,6,,,,,,,,,,,,,,,,5,,72,0
9690,note_on,,1,0,6,,,,,,,,,,,,,,,,5,,70,72
9719,note_on,,119,0,10,,,,,,,,,,,,,,,,15,,57,0
9719,note_on,,29,0,6,,,,,,,,,,,,,,,,5,,70,0
9719,note_on,,0,0,10,,,,,,,,,,,,,,,,15,,62,0
9719,note_on,,0,0,10,,,,,,,,,,,,,,,,15,,65,0
9719,note_on,,0,0,10,,,,,,,,,,,,,,,,15,,70,0
9719,note_on,,239,0,9,,,,,,,,,,,,,,,,13,,57,0
9720,note_on,,1,0,10,,,,,,,,,,,,,,,,15,,55,48
9720,note_on,,0,0,10,,,,,,,,,,,,,,,,15,,67,48
9720,note_on,,0,0,10,,,,,,,,,,,,,,,,15,,63,48
9720,note_on,,0,0,10,,,,,,,,,,,,,,,,15,,58,48
9720,note_on,,1,0,9,,,,,,,,,,,,,,,,13,,55,48
9720,note_on,,1,0,6,,,,,,,,,,,,,,,,5,,75,72
9749,note_on,,29,0,6,,,,,,,,,,,,,,,,5,,75,0
9750,note_on,,1,0,6,,,,,,,,,,,,,,,,5,,74,72
9779,note_on,,29,0,6,,,,,,,,,,,,,,,,5,,74,0
9780,note_on,,1,0,6,,,,,,,,,,,,,,,,5,,75,72
9809,note_on,,29,0,6,,,,,,,,,,,,,,,,5,,75,0
9810,note_on,,1,0,6,,,,,,,,,,,,,,,,5,,67,72
9839,note_on,,0,0,10,,,,,,,,,,,,,,,,15,,58,0
9839,note_on,,119,0,10,,,,,,,,,,,,,,,,15,,67,0
9839,note_on,,29,0,6,,,,,,,,,,,,,,,,5,,67,0
9839,note_on,,0,0,10,,,,,,,,,,,,,,,,15,,63,0
9840,note_on,,1,0,6,,,,,,,,,,,,,,,,5,,69,72
9840,note_on,,0,0,10,,,,,,,,,,,,,,,,15,,60,48
9840,note_on,,0,0,10,,,,,,,,,,,,,,,,15,,63,48
9840,note_on,,1,0,10,,,,,,,,,,,,,,,,15,,69,48
9869,note_on,,29,0,6,,,,,,,,,,,,,,,,5,,69,0
9870,note_on,,1,0,6,,,,,,,,,,,,,,,,5,,72,72
9899,note_on,,29,0,6,,,,,,,,,,,,,,,,5,,72,0
9900,note_on,,1,0,6,,,,,,,,,,,,,,,,5,,70,72
9929,note_on,,29,0,6,,,,,,,,,,,,,,,,5,,70,0
9930,note_on,,1,0,6,,,,,,,,,,,,,,,,5,,69,72
9959,note_on,,0,0,10,,,,,,,,,,,,,,,,15,,60,0
9959,note_on,,0,0,10,,,,,,,,,,,,,,,,15,,63,0
9959,note_on,,0,0,10,,,,,,,,,,,,,,,,15,,69,0
9959,note_on,,119,0,10,,,,,,,,,,,,,,,,15,,55,0
9959,note_on,,239,0,9,,,,,,,,,,,,,,,,13,,55,0
9959,note_on,,29,0,6,,,,,,,,,,,,,,,,5,,69,0
9960,note_on,,1,0,6,,,,,,,,,,,,,,,,5,,74,72
9960,note_on,,0,0,10,,,,,,,,,,,,,,,,15,,57,48
9960,note_on,,0,0,10,,,,,,,,,,,,,,,,15,,62,48
9960,note_on,,0,0,10,,,,,,,,,,,,,,,,15,,65,48
9960,note_on,,1,0,10,,,,,,,,,,,,,,,,15,,53,48
9960,note_on,,1,0,9,,,,,,,,,,,,,,,,13,,53,48
9989,note_on,,29,0,6,,,,,,,,,,,,,,,,5,,74,0
9990,note_on,,1,0,6,,,,,,,,,,,,,,,,5,,72,72
10019,note_on,,29,0,6,,,,,,,,,,,,,,,,5,,72,0
10020,note_on,,1,0,6,,,,,,,,,,,,,,,,5,,74,72
10049,note_on,,29,0,6,,,,,,,,,,,,,,,,5,,74,0
10050,note_on,,1,0,6,,,,,,,,,,,,,,,,5,,65,72
10079,note_on,,119,0,10,,,,,,,,,,,,,,,,15,,65,0
10079,note_on,,29,0,6,,,,,,,,,,,,,,,,5,,65,0
10079,note_on,,0,0,10,,,,,,,,,,,,,,,,15,,57,0
10079,note_on,,0,0,10,,,,,,,,,,,,,,,,15,,62,0
10080,note_on,,1,0,6,,,,,,,,,,,,,,,,5,,67,72
10080,note_on,,1,0,10,,,,,,,,,,,,,,,,15,,67,48
10080,note_on,,0,0,10,,,,,,,,,,,,,,,,15,,62,48
10080,note_on,,0,0,10,,,,,,,,,,,,,,,,15,,58,48
10109,note_on,,29,0,6,,,,,,,,,,,,,,,,5,,67,0
10110,note_on,,1,0,6,,,,,,,,,,,,,,,,5,,70,72
10139,note_on,,29,0,6,,,,,,,,,,,,,,,,5,,70,0
10140,note_on,,1,0,6,,,,,,,,,,,,,,,,5,,69,72
10169,note_on,,29,0,6,,,,,,,,,,,,,,,,5,,69,0
10170,note_on,,1,0,6,,,,,,,,,,,,,,,,5,,67,72
10199,note_on,,0,0,10,,,,,,,,,,,,,,,,15,,67,0
10199,note_on,,119,0,10,,,,,,,,,,,,,,,,15,,53,0
10199,note_on,,29,0,6,,,,,,,,,,,,,,,,5,,67,0
10199,note_on,,239,0,9,,,,,,,,,,,,,,,,13,,53,0
10199,note_on,,0,0,10,,,,,,,,,,,,,,,,15,,62,0
10199,note_on,,0,0,10,,,,,,,,,,,,,,,,15,,58,0
10200,note_on,,1,0,9,,,,,,,,,,,,,,,,13,,51,48
10200,note_on,,1,0,10,,,,,,,,,,,,,,,,15,,51,48
10200,note_on,,1,0,6,,,,,,,,,,,,,,,,5,,72,72
10200,note_on,,0,0,10,,,,,,,,,,,,,,,,15,,67,48
10200,note_on,,0,0,10,,,,,,,,,,,,,,,,15,,60,48
10200,note_on,,0,0,10,,,,,,,,,,,,,,,,15,,72,48
10229,note_on,,29,0,6,,,,,,,,,,,,,,,,5,,72,0
10230,note_on,,1,0,6,,,,,,,,,,,,,,,,5,,70,72
10259,note_on,,29,0,6,,,,,,,,,,,,,,,,5,,70,0
10260,note_on,,1,0,6,,,,,,,,,,,,,,,,5,,72,72
10289,note_on,,29,0,6,,,,,,,,,,,,,,,,5,,72,0
10290,note_on,,1,0,6,,,,,,,,,,,,,,,,5,,63,72
10319,note_on,,0,0,10,,,,,,,,,,,,,,,,15,,60,0
10319,note_on,,0,0,10,,,,,,,,,,,,,,,,15,,67,0
10319,note_on,,119,0,10,,,,,,,,,,,,,,,,15,,72,0
10319,note_on,,29,0,6,,,,,,,,,,,,,,,,5,,63,0
10320,note_on,,1,0,10,,,,,,,,,,,,,,,,15,,65,48
10320,note_on,,1,0,6,,,,,,,,,,,,,,,,5,,65,72
10320,note_on,,0,0,10,,,,,,,,,,,,,,,,15,,60,48
10320,note_on,,0,0,10,,,,,,,,,,,,,,,,15,,57,48
10349,note_on,,29,0,6,,,,,,,,,,,,,,,,5,,65,0
10350,note_on,,1,0,6,,,,,,,,,,,,,,,,5,,69,72
10379,note_on,,29,0,6,,,,,,,,,,,,,,,,5,,69,0
10380,note_on,,1,0,6,,,,,,,,,,,,,,,,5,,67,72
10409,note_on,,29,0,6,,,,,,,,,,,,,,,,5,,67,0
10410,note_on,,1,0,6,,,,,,,,,,,,,,,,5,,65,72
10439,note_on,,239,0,9,,,,,,,,,,,,,,,,13,,51,0
10439,note_on,,29,0,6,,,,,,,,,,,,,,,,5,,65,0
10439,note_on,,0,0,10,,,,,,,,,,,,,,,,15,,57,0
10439,note_on,,0,0,10,,,,,,,,,,,,,,,,15,,60,0
10439,note_on,,119,0,10,,,,,,,,,,,,,,,,15,,51,0
10440,note_on,,0,0,10,,,,,,,,,,,,,,,,15,,58,48
10440,note_on,,0,0,10,,,,,,,,,,,,,,,,15,,62,48
10440,note_on,,1,0,6,,,,,,,,,,,,,,,,5,,70,72
10440,note_on,,1,0,10,,,,,,,,,,,,,,,,15,,50,48
10440,note_on,,1,0,9,,,,,,,,,,,,,,,,13,,50,48
10469,note_on,,29,0,6,,,,,,,,,,,,,,,,5,,70,0
10470,note_on,,1,0,6,,,,,,,,,,,,,,,,5,,74,72
10499,note_on,,29,0,6,,,,,,,,,,,,,,,,5,,74,0
10500,note_on,,1,0,6,,,,,,,,,,,,,,,,5,,72,72
10529,note_on,,29,0,6,,,,,,,,,,,,,,,,5,,72,0
10530,note_on,,1,0,6,,,,,,,,,,,,,,,,5,,70,72
10559,note_on,,0,0,10,,,,,,,,,,,,,,,,15,,58,0
10559,note_on,,0,0,10,,,,,,,,,,,,,,,,15,,62,0
10559,note_on,,0,0,10,,,,,,,,,,,,,,,,15,,50,0
10559,note_on,,119,0,10,,,,,,,,,,,,,,,,15,,65,0
10559,note_on,,29,0,6,,,,,,,,,,,,,,,,5,,70,0
10559,note_on,,119,0,9,,,,,,,,,,,,,,,,13,,50,0
10560,note_on,,1,0,10,,,,,,,,,,,,,,,,15,,48,48
10560,note_on,,0,0,10,,,,,,,,,,,,,,,,15,,69,48
10560,note_on,,0,0,10,,,,,,,,,,,,,,,,15,,60,48
10560,note_on,,1,0,9,,,,,,,,,,,,,,,,13,,48,48
10560,note_on,,0,0,10,,,,,,,,,,,,,,,,15,,63,48
10560,note_on,,1,0,6,,,,,,,,,,,,,,,,5,,75,72
10589,note_on,,29,0,6,,,,,,,,,,,,,,,,5,,75,0
10590,note_on,,1,0,6,,,,,,,,,,,,,,,,5,,74,72
10619,note_on,,29,0,6,,,,,,,,,,,,,,,,5,,74,0
10620,note_on,,1,0,6,,,,,,,,,,,,,,,,5,,75,72
10649,note_on,,29,0,6,,,,,,,,,,,,,,,,5,,75,0
10650,note_on,,1,0,6,,,,,,,,,,,,,,,,5,,72,72
10679,note_on,,29,0,6,,,,,,,,,,,,,,,,5,,72,0
10679,note_on,,0,0,10,,,,,,,,,,,,,,,,15,,60,0
10679,note_on,,0,0,10,,,,,,,,,,,,,,,,15,,63,0
10679,note_on,,0,0,10,,,,,,,,,,,,,,,,15,,69,0
10679,note_on,,119,0,10,,,,,,,,,,,,,,,,15,,48,0
10679,note_on,,119,0,9,,,,,,,,,,,,,,,,13,,48,0
10680,note_on,,1,0,6,,,,,,,,,,,,,,,,5,,74,72
10680,note_on,,1,0,9,,,,,,,,,,,,,,,,13,,46,48
10680,note_on,,1,0,10,,,,,,,,,,,,,,,,15,,46,48
10680,note_on,,0,0,10,,,,,,,,,,,,,,,,15,,70,48
10680,note_on,,0,0,10,,,,,,,,,,,,,,,,15,,65,48
10680,note_on,,0,0,10,,,,,,,,,,,,,,,,15,,62,48
10709,note_on,,29,0,6,,,,,,,,,,,,,,,,5,,74,0
10710,note_on,,1,0,6,,,,,,,,,,,,,,,,5,,72,72
10739,note_on,,29,0,6,,,,,,,,,,,,,,,,5,,72,0
10740,note_on,,1,0,6,,,,,,,,,,,,,,,,5,,74,72
10769,note_on,,29,0,6,,,,,,,,,,,,,,,,5,,74,0
10770,note_on,,1,0,6,,,,,,,,,,,,,,,,5,,70,72
10799,note_on,,0,0,10,,,,,,,,,,,,,,,,15,,65,0
10799,note_on,,119,0,9,,,,,,,,,,,,,,,,13,,46,0
10799,note_on,,119,0,10,,,,,,,,,,,,,,,,15,,46,0
10799,note_on,,0,0,10,,,,,,,,,,,,,,,,15,,62,0
10799,note_on,,0,0,10,,,,,,,,,,,,,,,,15,,70,0
10799,note_on,,29,0,6,,,,,,,,,,,,,,,,5,,70,0
10800,note_on,,0,0,10,,,,,,,,,,,,,,,,15,,65,48
10800,note_on,,1,0,6,,,,,,,,,,,,,,,,5,,72,72
10800,note_on,,0,0,10,,,,,,,,,,,,,,,,15,,72,48
10800,note_on,,0,0,10,,,,,,,,,,,,,,,,15,,69,48
10800,note_on,,1,0,10,,,,,,,,,,,,,,,,15,,53,48
10800,note_on,,1,0,9,,,,,,,,,,,,,,,,13,,53,48
10830,note_on,,2431,0,8,,,,,,,,,,,,,,,,11,,69,72
10830,note_on,,2431,0,7,,,,,,,,,,,,,,,,10,,69,72
10859,note_on,,29,0,8,,,,,,,,,,,,,,,,11,,69,0
10859,note_on,,29,0,7,,,,,,,,,,,,,,,,10,,69,0
10860,note_on,,1,0,7,,,,,,,,,,,,,,,,10,,70,72
10860,note_on,,1,0,8,,,,,,,,,,,,,,,,11,,70,72
10889,note_on,,29,0,7,,,,,,,,,,,,,,,,10,,70,0
10889,note_on,,29,0,8,,,,,,,,,,,,,,,,11,,70,0
10890,note_on,,1,0,8,,,,,,,,,,,,,,,,11,,72,72
10890,note_on,,1,0,7,,,,,,,,,,,,,,,,10,,72,72
10919,note_on,,0,0,10,,,,,,,,,,,,,,,,15,,69,0
10919,note_on,,119,0,10,,,,,,,,,,,,,,,,15,,53,0
10919,note_on,,0,0,10,,,,,,,,,,,,,,,,15,,72,0
10919,note_on,,29,0,8,,,,,,,,,,,,,,,,11,,72,0
10919,note_on,,0,0,10,,,,,,,,,,,,,,,,15,,65,0
10919,note_on,,29,0,7,,,,,,,,,,,,,,,,10,,72,0
10919,note_on,,119,0,6,,,,,,,,,,,,,,,,5,,72,0
10919,note_on,,119,0,9,,,,,,,,,,,,,,,,13,,53,0
10920,note_on,,1,0,7,,,,,,,,,,,,,,,,10,,65,72
10920,note_on,,0,0,10,,,,,,,,,,,,,,,,15,,70,48
10920,note_on,,3481,0,5,,,,,,,,,,,,,,,,2,,50,48
10920,note_on,,1,0,8,,,,,,,,,,,,,,,,11,,65,72
10920,note_on,,1,0,9,,,,,,,,,,,,,,,,13,,50,48
10920,note_on,,0,0,10,,,,,,,,,,,,,,,,15,,77,48
10920,note_on,,0,0,10,,,,,,,,,,,,,,,,15,,65,48
10920,note_on,,1,0,10,,,,,,,,,,,,,,,,15,,50,48
10949,note_on,,29,0,8,,,,,,,,,,,,,,,,11,,65,0
10949,note_on,,29,0,7,,,,,,,,,,,,,,,,10,,65,0
10950,note_on,,1,0,8,,,,,,,,,,,,,,,,11,,77,72
10950,note_on,,1,0,7,,,,,,,,,,,,,,,,10,,77,72
10979,note_on,,29,0,8,,,,,,,,,,,,,,,,11,,77,0
10979,note_on,,29,0,7,,,,,,,,,,,,,,,,10,,77,0
10980,note_on,,1,0,7,,,,,,,,,,,,,,,,10,,70,72
10980,note_on,,1,0,8,,,,,,,,,,,,,,,,11,,70,72
11009,note_on,,29,0,7,,,,,,,,,,,,,,,,10,,70,0
11009,note_on,,29,0,8,,,,,,,,,,,,,,,,11,,70,0
11010,note_on,,1,0,7,,,,,,,,,,,,,,,,10,,77,72
11010,note_on,,1,0,8,,,,,,,,,,,,,,,,11,,77,72
11039,note_on,,0,0,10,,,,,,,,,,,,,,,,15,,65,0
11039,note_on,,0,0,10,,,,,,,,,,,,,,,,15,,70,0
11039,note_on,,29,0,8,,,,,,,,,,,,,,,,11,,77,0
11039,note_on,,119,0,10,,,,,,,,,,,,,,,,15,,50,0
11039,note_on,,119,0,5,,,,,,,,,,,,,,,,2,,50,0
11039,note_on,,119,0,9,,,,,,,,,,,,,,,,13,,50,0
11039,note_on,,29,0,7,,,,,,,,,,,,,,,,10,,77,0
11039,note_on,,0,0,10,,,,,,,,,,,,,,,,15,,77,0
11040,note_on,,1,0,7,,,,,,,,,,,,,,,,10,,79,72
11040,note_on,,1,0,5,,,,,,,,,,,,,,,,2,,51,48
11040,note_on,,0,0,10,,,,,,,,,,,,,,,,15,,67,48
11040,note_on,,0,0,10,,,,,,,,,,,,,,,,15,,70,48
11040,note_on,,1,0,10,,,,,,,,,,,,,,,,15,,51,48
11040,note_on,,1,0,8,,,,,,,,,,,,,,,,11,,79,72
11040,note_on,,0,0,10,,,,,,,,,,,,,,,,15,,63,48
11040,note_on,,1,0,9,,,,,,,,,,,,,,,,13,,51,48
11069,note_on,,29,0,7,,,,,,,,,,,,,,,,10,,79,0
11069,note_on,,29,0,8,,,,,,,,,,,,,,,,11,,79,0
11070,note_on,,1,0,8,,,,,,,,,,,,,,,,11,,75,72
11070,note_on,,1,0,7,,,,,,,,,,,,,,,,10,,75,72
11099,note_on,,29,0,7,,,,,,,,,,,,,,,,10,,75,0
11099,note_on,,29,0,8,,,,,,,,,,,,,,,,11,,75,0
11100,note_on,,1,0,7,,,,,,,,,,,,,,,,10,,77,72
11100,note_on,,1,0,8,,,,,,,,,,,,,,,,11,,77,72
11129,note_on,,29,0,7,,,,,,,,,,,,,,,,10,,77,0
11129,note_on,,29,0,8,,,,,,,,,,,,,,,,11,,77,0
11130,note_on,,1,0,8,,,,,,,,,,,,,,,,11,,79,72
11130,note_on,,1,0,7,,,,,,,,,,,,,,,,10,,79,72
11159,note_on,,29,0,8,,,,,,,,,,,,,,,,11,,79,0
11159,note_on,,29,0,7,,,,,,,,,,,,,,,,10,,79,0
11159,note_on,,119,0,5,,,,,,,,,,,,,,,,2,,51,0
11159,note_on,,0,0,10,,,,,,,,,,,,,,,,15,,70,0
11159,note_on,,0,0,10,,,,,,,,,,,,,,,,15,,67,0
11159,note_on,,119,0,9,,,,,,,,,,,,,,,,13,,51,0
11159,note_on,,0,0,10,,,,,,,,,,,,,,,,15,,63,0
11159,note_on,,119,0,10,,,,,,,,,,,,,,,,15,,51,0
11160,note_on,,1,0,5,,,,,,,,,,,,,,,,2,,60,48
11160,note_on,,0,0,10,,,,,,,,,,,,,,,,15,,72,48
11160,note_on,,1,0,7,,,,,,,,,,,,,,,,10,,72,72
11160,note_on,,1,0,8,,,,,,,,,,,,,,,,11,,72,72
11160,note_on,,1,0,9,,,,,,,,,,,,,,,,13,,60,48
11160,note_on,,0,0,10,,,,,,,,,,,,,,,,15,,63,48
11160,note_on,,0,0,10,,,,,,,,,,,,,,,,15,,69,48
11160,note_on,,1,0,10,,,,,,,,,,,,,,,,15,,60,48
11189,note_on,,29,0,7,,,,,,,,,,,,,,,,10,,72,0
11189,note_on,,29,0,8,,,,,,,,,,,,,,,,11,,72,0
11190,note_on,,1,0,7,,,,,,,,,,,,,,,,10,,75,72
11190,note_on,,1,0,8,,,,,,,,,,,,,,,,11,,75,72
11219,note_on,,29,0,8,,,,,,,,,,,,,,,,11,,75,0
11219,note_on,,29,0,7,,,,,,,,,,,,,,,,10,,75,0
11220,note_on,,1,0,8,,,,,,,,,,,,,,,,11,,74,72
11220,note_on,,1,0,7,,,,,,,,,,,,,,,,10,,74,72
11249,note_on,,29,0,8,,,,,,,,,,,,,,,,11,,74,0
11249,note_on,,29,0,7,,,,,,,,,,,,,,,,10,,74,0
11250,note_on,,1,0,7,,,,,,,,,,,,,,,,10,,72,72
11250,note_on,,1,0,8,,,,,,,,,,,,,,,,11,,72,72
11279,note_on,,119,0,10,,,,,,,,,,,,,,,,15,,60,0
11279,note_on,,119,0,5,,,,,,,,,,,,,,,,2,,60,0
11279,note_on,,29,0,8,,,,,,,,,,,,,,,,11,,72,0
11279,note_on,,0,0,10,,,,,,,,,,,,,,,,15,,63,0
11279,note_on,,119,0,9,,,,,,,,,,,,,,,,13,,60,0
11279,note_on,,0,0,10,,,,,,,,,,,,,,,,15,,69,0
11279,note_on,,0,0,10,,,,,,,,,,,,,,,,15,,72,0
11279,note_on,,29,0,7,,,,,,,,,,,,,,,,10,,72,0
11280,note_on,,1,0,7,,,,,,,,,,,,,,,,10,,77,72
11280,note_on,,0,0,10,,,,,,,,,,,,,,,,15,,65,48
11280,note_on,,1,0,9,,,,,,,,,,,,,,,,13,,50,48
11280,note_on,,1,0,8,,,,,,,,,,,,,,,,11,,77,72
11280,note_on,,0,0,10,,,,,,,,,,,,,,,,15,,74,48
11280,note_on,,1,0,5,,,,,,,,,,,,,,,,2,,50,48
11280,note_on,,0,0,10,,,,,,,,,,,,,,,,15,,70,48
11280,note_on,,1,0,10,,,,,,,,,,,,,,,,15,,50,48
11309,note_on,,29,0,8,,,,,,,,,,,,,,,,11,,77,0
11309,note_on,,29,0,7,,,,,,,,,,,,,,,,10,,77,0
11310,note_on,,1,0,8,,,,,,,,,,,,,,,,11,,74,72
11310,note_on,,1,0,7,,,,,,,,,,,,,,,,10,,74,72
11339,note_on,,29,0,7,,,,,,,,,,,,,,,,10,,74,0
11339,note_on,,29,0,8,,,,,,,,,,,,,,,,11,,74,0
11340,note_on,,1,0,8,,,,,,,,,,,,,,,,11,,75,72
11340,note_on,,1,0,7,,,,,,,,,,,,,,,,10,,75,72
11369,note_on,,29,0,8,,,,,,,,,,,,,,,,11,,75,0
11369,note_on,,29,0,7,,,,,,,,,,,,,,,,10,,75,0
11370,note_on,,1,0,8,,,,,,,,,,,,,,,,11,,77,72
11370,note_on,,1,0,7,,,,,,,,,,,,,,,,10,,77,72
11399,note_on,,119,0,5,,,,,,,,,,,,,,,,2,,50,0
11399,note_on,,0,0,10,,,,,,,,,,,,,,,,15,,74,0
11399,note_on,,29,0,7,,,,,,,,,,,,,,,,10,,77,0
11399,note_on,,0,0,10,,,,,,,,,,,,,,,,15,,70,0
11399,note_on,,119,0,9,,,,,,,,,,,,,,,,13,,50,0
11399,note_on,,119,0,10,,,,,,,,,,,,,,,,15,,50,0
11399,note_on,,29,0,8,,,,,,,,,,,,,,,,11,,77,0
11399,note_on,,0,0,10,,,,,,,,,,,,,,,,15,,65,0
11400,note_on,,1,0,7,,,,,,,,,,,,,,,,10,,70,72
11400,note_on,,1,0,9,,,,,,,,,,,,,,,,13,,58,48
11400,note_on,,0,0,10,,,,,,,,,,,,,,,,15,,70,48
11400,note_on,,0,0,10,,,,,,,,,,,,,,,,15,,67,48
11400,note_on,,0,0,10,,,,,,,,,,,,,,,,15,,62,48
11400,note_on,,1,0,10,,,,,,,,,,,,,,,,15,,58,48
11400,note_on,,1,0,8,,,,,,,,,,,,,,,,11,,70,72
11400,note_on,,1,0,5,,,,,,,,,,,,,,,,2,,58,48
11429,note_on,,29,0,7,,,,,,,,,,,,,,,,10,,70,0
11429,note_on,,29,0,8,,,,,,,,,,,,,,,,11,,70,0
11430,note_on,,1,0,8,,,,,,,,,,,,,,,,11,,74,72
11430,note_on,,1,0,7,,,,,,,,,,,,,,,,10,,74,72
11459,note_on,,29,0,7,,,,,,,,,,,,,,,,10,,74,0
11459,note_on,,29,0,8,,,,,,,,,,,,,,,,11,,74,0
11460,note_on,,1,0,8,,,,,,,,,,,,,,,,11,,72,72
11460,note_on,,1,0,7,,,,,,,,,,,,,,,,10,,72,72
11489,note_on,,29,0,7,,,,,,,,,,,,,,,,10,,72,0
11489,note_on,,29,0,8,,,,,,,,,,,,,,,,11,,72,0
11490,note_on,,1,0,8,,,,,,,,,,,,,,,,11,,70,72
11490,note_on,,1,0,7,,,,,,,,,,,,,,,,10,,70,72
11519,note_on,,29,0,7,,,,,,,,,,,,,,,,10,,70,0
11519,note_on,,119,0,5,,,,,,,,,,,,,,,,2,,58,0
11519,note_on,,0,0,10,,,,,,,,,,,,,,,,15,,67,0
11519,note_on,,0,0,10,,,,,,,,,,,,,,,,15,,70,0
11519,note_on,,119,0,10,,,,,,,,,,,,,,,,15,,58,0
11519,note_on,,119,0,9,,,,,,,,,,,,,,,,13,,58,0
11519,note_on,,29,0,8,,,,,,,,,,,,,,,,11,,70,0
11519,note_on,,0,0,10,,,,,,,,,,,,,,,,15,,62,0
11520,note_on,,1,0,5,,,,,,,,,,,,,,,,2,,48,48
11520,note_on,,0,0,10,,,,,,,,,,,,,,,,15,,63,48
11520,note_on,,0,0,10,,,,,,,,,,,,,,,,15,,69,48
11520,note_on,,0,0,10,,,,,,,,,,,,,,,,15,,72,48
11520,note_on,,1,0,10,,,,,,,,,,,,,,,,15,,48,48
11520,note_on,,1,0,8,,,,,,,,,,,,,,,,11,,75,72
11520,note_on,,1,0,7,,,,,,,,,,,,,,,,10,,75,72
11520,note_on,,1,0,9,,,,,,,,,,,,,,,,13,,48,48
11549,note_on,,29,0,8,,,,,,,,,,,,,,,,11,,75,0
11549,note_on,,29,0,7,,,,,,,,,,,,,,,,10,,75,0
11550,note_on,,1,0,8,,,,,,,,,,,,,,,,11,,74,72
11550,note_on,,1,0,7,,,,,,,,,,,,,,,,10,,74,72
11579,note_on,,29,0,8,,,,,,,,,,,,,,,,11,,74,0
11579,note_on,,29,0,7,,,,,,,,,,,,,,,,10,,74,0
11580,note_on,,1,0,8,,,,,,,,,,,,,,,,11,,75,72
11580,note_on,,1,0,7,,,,,,,,,,,,,,,,10,,75,72
11609,note_on,,29,0,8,,,,,,,,,,,,,,,,11,,75,0
11609,note_on,,29,0,7,,,,,,,,,,,,,,,,10,,75,0
11610,note_on,,1,0,8,,,,,,,,,,,,,,,,11,,72,72
11610,note_on,,1,0,7,,,,,,,,,,,,,,,,10,,72,72
11639,note_on,,119,0,5,,,,,,,,,,,,,,,,2,,48,0
11639,note_on,,119,0,9,,,,,,,,,,,,,,,,13,,48,0
11639,note_on,,29,0,8,,,,,,,,,,,,,,,,11,,72,0
11639,note_on,,0,0,10,,,,,,,,,,,,,,,,15,,63,0
11639,note_on,,0,0,10,,,,,,,,,,,,,,,,15,,69,0
11639,note_on,,0,0,10,,,,,,,,,,,,,,,,15,,72,0
11639,note_on,,29,0,7,,,,,,,,,,,,,,,,10,,72,0
11639,note_on,,119,0,10,,,,,,,,,,,,,,,,15,,48,0
11640,note_on,,1,0,7,,,,,,,,,,,,,,,,10,,74,72
11640,note_on,,1,0,5,,,,,,,,,,,,,,,,2,,46,48
11640,note_on,,1,0,10,,,,,,,,,,,,,,,,15,,46,48
11640,note_on,,0,0,10,,,,,,,,,,,,,,,,15,,74,48
11640,note_on,,0,0,10,,,,,,,,,,,,,,,,15,,70,48
11640,note_on,,0,0,10,,,,,,,,,,,,,,,,15,,65,48
11640,note_on,,1,0,9,,,,,,,,,,,,,,,,13,,46,48
11640,note_on,,1,0,8,,,,,,,,,,,,,,,,11,,74,72
11669,note_on,,29,0,8,,,,,,,,,,,,,,,,11,,74,0
11669,note_on,,29,0,7,,,,,,,,,,,,,,,,10,,74,0
11670,note_on,,1,0,8,,,,,,,,,,,,,,,,11,,72,72
11670,note_on,,1,0,7,,,,,,,,,,,,,,,,10,,72,72
11699,note_on,,29,0,8,,,,,,,,,,,,,,,,11,,72,0
11699,note_on,,29,0,7,,,,,,,,,,,,,,,,10,,72,0
11700,note_on,,1,0,8,,,,,,,,,,,,,,,,11,,74,72
11700,note_on,,1,0,7,,,,,,,,,,,,,,,,10,,74,72
11729,note_on,,29,0,7,,,,,,,,,,,,,,,,10,,74,0
11729,note_on,,29,0,8,,,,,,,,,,,,,,,,11,,74,0
11730,note_on,,1,0,7,,,,,,,,,,,,,,,,10,,70,72
11730,note_on,,1,0,8,,,,,,,,,,,,,,,,11,,70,72
11759,note_on,,119,0,9,,,,,,,,,,,,,,,,13,,46,0
11759,note_on,,119,0,5,,,,,,,,,,,,,,,,2,,46,0
11759,note_on,,29,0,7,,,,,,,,,,,,,,,,10,,70,0
11759,note_on,,0,0,10,,,,,,,,,,,,,,,,15,,65,0
11759,note_on,,29,0,8,,,,,,,,,,,,,,,,11,,70,0
11759,note_on,,119,0,10,,,,,,,,,,,,,,,,15,,46,0
11759,note_on,,0,0,10,,,,,,,,,,,,,,,,15,,74,0
11759,note_on,,0,0,10,,,,,,,,,,,,,,,,15,,70,0
11760,note_on,,1,0,9,,,,,,,,,,,,,,,,13,,53,48
11760,note_on,,1,0,5,,,,,,,,,,,,,,,,2,,53,48
11760,note_on,,0,0,10,,,,,,,,,,,,,,,,15,,60,48
11760,note_on,,1,0,10,,,,,,,,,,,,,,,,15,,69,48
11760,note_on,,0,0,10,,,,,,,,,,,,,,,,15,,53,48
11760,note_on,,0,0,10,,,,,,,,,,,,,,,,15,,72,48
11760,note_on,,0,0,10,,,,,,,,,,,,,,,,15,,65,48
11760,note_on,,1,0,7,,,,,,,,,,,,,,,,10,,72,72
11760,note_on,,1,0,8,,,,,,,,,,,,,,,,11,,72,72
11789,note_on,,29,0,7,,,,,,,,,,,,,,,,10,,72,0
11789,note_on,,29,0,8,,,,,,,,,,,,,,,,11,,72,0
11790,note_on,,1,0,8,,,,,,,,,,,,,,,,11,,69,72
11790,note_on,,1,0,7,,,,,,,,,,,,,,,,10,,69,72
11819,note_on,,29,0,8,,,,,,,,,,,,,,,,11,,69,0
11819,note_on,,29,0,7,,,,,,,,,,,,,,,,10,,69,0
11820,note_on,,1,0,8,,,,,,,,,,,,,,,,11,,70,72
11820,note_on,,1,0,7,,,,,,,,,,,,,,,,10,,70,72
11849,note_on,,29,0,8,,,,,,,,,,,,,,,,11,,70,0
11849,note_on,,29,0,7,,,,,,,,,,,,,,,,10,,70,0
11850,note_on,,1,0,8,,,,,,,,,,,,,,,,11,,72,72
11850,note_on,,1,0,7,,,,,,,,,,,,,,,,10,,72,72
11879,note_on,,29,0,8,,,,,,,,,,,,,,,,11,,72,0
11879,note_on,,0,0,10,,,,,,,,,,,,,,,,15,,60,0
11879,note_on,,0,0,10,,,,,,,,,,,,,,,,15,,65,0
11879,note_on,,0,0,10,,,,,,,,,,,,,,,,15,,72,0
11879,note_on,,0,0,10,,,,,,,,,,,,,,,,15,,53,0
11879,note_on,,119,0,5,,,,,,,,,,,,,,,,2,,53,0
11879,note_on,,119,0,10,,,,,,,,,,,,,,,,15,,69,0
11879,note_on,,119,0,9,,,,,,,,,,,,,,,,13,,53,0
11879,note_on,,29,0,7,,,,,,,,,,,,,,,,10,,72,0
11880,note_on,,1,0,8,,,,,,,,,,,,,,,,11,,65,72
11880,note_on,,1,0,7,,,,,,,,,,,,,,,,10,,65,72
11940,note_on,,1021,0,6,,,,,,,,,,,,,,,,5,,72,72
11940,note_on,,61,0,9,,,,,,,,,,,,,,,,13,,52,48
11940,note_on,,61,0,5,,,,,,,,,,,,,,,,2,,52,48
11940,note_on,,61,0,10,,,,,,,,,,,,,,,,15,,52,48
11940,note_on,,0,0,10,,,,,,,,,,,,,,,,15,,67,48
11940,note_on,,0,0,10,,,,,,,,,,,,,,,,15,,60,48
11999,note_on,,0,0,10,,,,,,,,,,,,,,,,15,,60,0
11999,note_on,,0,0,10,,,,,,,,,,,,,,,,15,,67,0
11999,note_on,,59,0,10,,,,,,,,,,,,,,,,15,,52,0
11999,note_on,,119,0,8,,,,,,,,,,,,,,,,11,,65,0
11999,note_on,,59,0,9,,,,,,,,,,,,,,,,13,,52,0
11999,note_on,,59,0,5,,,,,,,,,,,,,,,,2,,52,0
11999,note_on,,59,0,6,,,,,,,,,,,,,,,,5,,72,0
11999,note_on,,119,0,7,,,,,,,,,,,,,,,,10,,65,0
12000,note_on,,1,0,5,,,,,,,,,,,,,,,,2,,53,48
12000,note_on,,1,0,9,,,,,,,,,,,,,,,,13,,53,48
12000,note_on,,1,0,6,,,,,,,,,,,,,,,,5,,69,72
12000,note_on,,0,0,10,,,,,,,,,,,,,,,,15,,57,48
12000,note_on,,1,0,10,,,,,,,,,,,,,,,,15,,53,48
12000,note_on,,0,0,10,,,,,,,,,,,,,,,,15,,60,48
12089,note_on,,89,0,6,,,,,,,,,,,,,,,,5,,69,0
12090,note_on,,1,0,6,,,,,,,,,,,,,,,,5,,67,72
12119,note_on,,0,0,10,,,,,,,,,,,,,,,,15,,57,0
12119,note_on,,119,0,10,,,,,,,,,,,,,,,,15,,53,0
12119,note_on,,119,0,9,,,,,,,,,,,,,,,,13,,53,0
12119,note_on,,119,0,5,,,,,,,,,,,,,,,,2,,53,0
12119,note_on,,29,0,6,,,,,,,,,,,,,,,,5,,67,0
12119,note_on,,0,0,10,,,,,,,,,,,,,,,,15,,60,0
12120,note_on,,1,0,6,,,,,,,,,,,,,,,,5,,69,72
12179,note_on,,59,0,6,,,,,,,,,,,,,,,,5,,69,0
12180,note_on,,61,0,9,,,,,,,,,,,,,,,,13,,55,48
12180,note_on,,0,0,10,,,,,,,,,,,,,,,,15,,64,48
12180,note_on,,0,0,10,,,,,,,,,,,,,,,,15,,58,48
12180,note_on,,61,0,10,,,,,,,,,,,,,,,,15,,55,48
12180,note_on,,1,0,6,,,,,,,,,,,,,,,,5,,70,72
12180,note_on,,61,0,5,,,,,,,,,,,,,,,,2,,55,48
12239,note_on,,0,0,10,,,,,,,,,,,,,,,,15,,58,0
12239,note_on,,0,0,10,,,,,,,,,,,,,,,,15,,64,0
12239,note_on,,59,0,10,,,,,,,,,,,,,,,,15,,55,0
12239,note_on,,59,0,9,,,,,,,,,,,,,,,,13,,55,0
12239,note_on,,59,0,6,,,,,,,,,,,,,,,,5,,70,0
12239,note_on,,59,0,5,,,,,,,,,,,,,,,,2,,55,0
12240,note_on,,1,0,9,,,,,,,,,,,,,,,,13,,57,48
12240,note_on,,1,0,5,,,,,,,,,,,,,,,,2,,57,48
12240,note_on,,0,0,10,,,,,,,,,,,,,,,,15,,65,48
12240,note_on,,0,0,10,,,,,,,,,,,,,,,,15,,60,48
12240,note_on,,1,0,6,,,,,,,,,,,,,,,,5,,72,72
12240,note_on,,1,0,10,,,,,,,,,,,,,,,,15,,57,48
12299,note_on,,59,0,6,,,,,,,,,,,,,,,,5,,72,0
12300,note_on,,1,0,6,,,,,,,,,,,,,,,,5,,65,72
12300,note_on,,301,0,8,,,,,,,,,,,,,,,,11,,72,72
12300,note_on,,301,0,7,,,,,,,,,,,,,,,,10,,72,72
12359,note_on,,59,0,7,,,,,,,,,,,,,,,,10,,72,0
12359,note_on,,0,0,10,,,,,,,,,,,,,,,,15,,60,0
12359,note_on,,59,0,8,,,,,,,,,,,,,,,,11,,72,0
12359,note_on,,119,0,10,,,,,,,,,,,,,,,,15,,57,0
12359,note_on,,119,0,9,,,,,,,,,,,,,,,,13,,57,0
12359,note_on,,119,0,5,,,,,,,,,,,,,,,,2,,57,0
12359,note_on,,59,0,6,,,,,,,,,,,,,,,,5,,65,0
12359,note_on,,0,0,10,,,,,,,,,,,,,,,,15,,65,0
12360,note_on,,1,0,8,,,,,,,,,,,,,,,,11,,77,72
12360,note_on,,1,0,7,,,,,,,,,,,,,,,,10,,77,72
12420,note_on,,61,0,9,,,,,,,,,,,,,,,,13,,52,48
12420,note_on,,61,0,6,,,,,,,,,,,,,,,,5,,67,72
12420,note_on,,0,0,10,,,,,,,,,,,,,,,,15,,67,48
12420,note_on,,61,0,10,,,,,,,,,,,,,,,,15,,52,48
12420,note_on,,0,0,10,,,,,,,,,,,,,,,,15,,60,48
12479,note_on,,119,0,8,,,,,,,,,,,,,,,,11,,77,0
12479,note_on,,0,0,10,,,,,,,,,,,,,,,,15,,60,0
12479,note_on,,59,0,10,,,,,,,,,,,,,,,,15,,52,0
12479,note_on,,0,0,10,,,,,,,,,,,,,,,,15,,67,0
12479,note_on,,59,0,9,,,,,,,,,,,,,,,,13,,52,0
12479,note_on,,119,0,7,,,,,,,,,,,,,,,,10,,77,0
12479,note_on,,59,0,6,,,,,,,,,,,,,,,,5,,67,0
12480,note_on,,1,0,9,,,,,,,,,,,,,,,,13,,53,48
12480,note_on,,1,0,10,,,,,,,,,,,,,,,,15,,53,48
12480,note_on,,0,0,10,,,,,,,,,,,,,,,,15,,69,48
12480,note_on,,0,0,10,,,,,,,,,,,,,,,,15,,65,48
12480,note_on,,0,0,10,,,,,,,,,,,,,,,,15,,60,48
12480,note_on,,1,0,6,,,,,,,,,,,,,,,,5,,69,72
12494,note_on,,14,0,6,,,,,,,,,,,,,,,,5,,69,0
12495,note_on,,1,0,6,,,,,,,,,,,,,,,,5,,70,72
12509,note_on,,14,0,6,,,,,,,,,,,,,,,,5,,70,0
12510,note_on,,1,0,6,,,,,,,,,,,,,,,,5,,69,72
12524,note_on,,14,0,6,,,,,,,,,,,,,,,,5,,69,0
12525,note_on,,1,0,6,,,,,,,,,,,,,,,,5,,70,72
12539,note_on,,14,0,6,,,,,,,,,,,,,,,,5,,70,0
12540,note_on,,1,0,6,,,,,,,,,,,,,,,,5,,69,72
12554,note_on,,14,0,6,,,,,,,,,,,,,,,,5,,69,0
12555,note_on,,1,0,6,,,,,,,,,,,,,,,,5,,70,72
12569,note_on,,14,0,6,,,,,,,,,,,,,,,,5,,70,0
12570,note_on,,1,0,6,,,,,,,,,,,,,,,,5,,67,72
12599,note_on,,119,0,10,,,,,,,,,,,,,,,,15,,53,0
12599,note_on,,29,0,6,,,,,,,,,,,,,,,,5,,67,0
12599,note_on,,119,0,9,,,,,,,,,,,,,,,,13,,53,0
12599,note_on,,0,0,10,,,,,,,,,,,,,,,,15,,69,0
12599,note_on,,0,0,10,,,,,,,,,,,,,,,,15,,65,0
12599,note_on,,0,0,10,,,,,,,,,,,,,,,,15,,60,0
12600,note_on,,1,0,6,,,,,,,,,,,,,,,,5,,69,72
12629,note_on,,29,0,6,,,,,,,,,,,,,,,,5,,69,0
12630,note_on,,1,0,6,,,,,,,,,,,,,,,,5,,72,72
12659,note_on,,29,0,6,,,,,,,,,,,,,,,,5,,72,0
12660,note_on,,61,0,10,,,,,,,,,,,,,,,,15,,55,48
12660,note_on,,0,0,10,,,,,,,,,,,,,,,,15,,76,48
12660,note_on,,1,0,6,,,,,,,,,,,,,,,,5,,70,72
12660,note_on,,0,0,10,,,,,,,,,,,,,,,,15,,70,48
12660,note_on,,0,0,10,,,,,,,,,,,,,,,,15,,67,48
12660,note_on,,61,0,9,,,,,,,,,,,,,,,,13,,55,48
12719,note_on,,0,0,10,,,,,,,,,,,,,,,,15,,76,0
12719,note_on,,59,0,9,,,,,,,,,,,,,,,,13,,55,0
12719,note_on,,59,0,10,,,,,,,,,,,,,,,,15,,55,0
12719,note_on,,0,0,10,,,,,,,,,,,,,,,,15,,67,0
12719,note_on,,0,0,10,,,,,,,,,,,,,,,,15,,70,0
12719,note_on,,59,0,6,,,,,,,,,,,,,,,,5,,70,0
12720,note_on,,0,0,10,,,,,,,,,,,,,,,,15,,65,48
12720,note_on,,0,0,10,,,,,,,,,,,,,,,,15,,72,48
12720,note_on,,1,0,9,,,,,,,,,,,,,,,,13,,57,48
12720,note_on,,1,0,10,,,,,,,,,,,,,,,,15,,57,48
12720,note_on,,0,0,10,,,,,,,,,,,,,,,,15,,77,48
12720,note_on,,1,0,6,,,,,,,,,,,,,,,,5,,72,72
12839,note_on,,119,0,9,,,,,,,,,,,,,,,,13,,57,0
12839,note_on,,119,0,6,,,,,,,,,,,,,,,,5,,72,0
12839,note_on,,119,0,10,,,,,,,,,,,,,,,,15,,57,0
12839,note_on,,0,0,10,,,,,,,,,,,,,,,,15,,77,0
12839,note_on,,0,0,10,,,,,,,,,,,,,,,,15,,72,0
12839,note_on,,0,0,10,,,,,,,,,,,,,,,,15,,65,0
12840,note_on,,1,0,6,,,,,,,,,,,,,,,,5,,65,72
12900,note_on,,421,0,8,,,,,,,,,,,,,,,,11,,79,48
12900,note_on,,421,0,7,,,,,,,,,,,,,,,,10,,79,48
12900,note_on,,61,0,9,,,,,,,,,,,,,,,,13,,52,48
12900,note_on,,61,0,10,,,,,,,,,,,,,,,,15,,52,48
12900,note_on,,0,0,10,,,,,,,,,,,,,,,,15,,72,48
12900,note_on,,0,0,10,,,,,,,,,,,,,,,,15,,67,48
12959,note_on,,119,0,6,,,,,,,,,,,,,,,,5,,65,0
12959,note_on,,59,0,8,,,,,,,,,,,,,,,,11,,79,0
12959,note_on,,59,0,9,,,,,,,,,,,,,,,,13,,52,0
12959,note_on,,59,0,10,,,,,,,,,,,,,,,,15,,52,0
12959,note_on,,59,0,7,,,,,,,,,,,,,,,,10,,79,0
12959,note_on,,0,0,10,,,,,,,,,,,,,,,,15,,67,0
12960,note_on,,1,0,8,,,,,,,,,,,,,,,,11,,81,48
12960,note_on,,1,0,10,,,,,,,,,,,,,,,,15,,53,48
12960,note_on,,0,0,10,,,,,,,,,,,,,,,,15,,69,48
12960,note_on,,0,0,10,,,,,,,,,,,,,,,,15,,65,48
12960,note_on,,1,0,7,,,,,,,,,,,,,,,,10,,81,48
12960,note_on,,1,0,9,,,,,,,,,,,,,,,,13,,53,48
12960,note_on,,1,0,6,,,,,,,,,,,,,,,,5,,77,72
12989,note_on,,29,0,7,,,,,,,,,,,,,,,,10,,81,0
12989,note_on,,29,0,8,,,,,,,,,,,,,,,,11,,81,0
12990,note_on,,1,0,7,,,,,,,,,,,,,,,,10,,65,48
12990,note_on,,1,0,8,,,,,,,,,,,,,,,,11,,65,48
13019,note_on,,29,0,7,,,,,,,,,,,,,,,,10,,65,0
13019,note_on,,29,0,8,,,,,,,,,,,,,,,,11,,65,0
13020,note_on,,1,0,7,,,,,,,,,,,,,,,,10,,69,48
13020,note_on,,1,0,8,,,,,,,,,,,,,,,,11,,69,48
13049,note_on,,29,0,8,,,,,,,,,,,,,,,,11,,69,0
13049,note_on,,29,0,7,,,,,,,,,,,,,,,,10,,69,0
13050,note_on,,1,0,8,,,,,,,,,,,,,,,,11,,72,48
13050,note_on,,1,0,7,,,,,,,,,,,,,,,,10,,72,48
13079,note_on,,119,0,9,,,,,,,,,,,,,,,,13,,53,0
13079,note_on,,29,0,7,,,,,,,,,,,,,,,,10,,72,0
13079,note_on,,119,0,10,,,,,,,,,,,,,,,,15,,72,0
13079,note_on,,0,0,10,,,,,,,,,,,,,,,,15,,53,0
13079,note_on,,0,0,10,,,,,,,,,,,,,,,,15,,69,0
13079,note_on,,0,0,10,,,,,,,,,,,,,,,,15,,65,0
13079,note_on,,29,0,8,,,,,,,,,,,,,,,,11,,72,0
13080,note_on,,1,0,8,,,,,,,,,,,,,,,,11,,77,48
13080,note_on,,1,0,7,,,,,,,,,,,,,,,,10,,77,48
13109,note_on,,29,0,8,,,,,,,,,,,,,,,,11,,77,0
13109,note_on,,29,0,7,,,,,,,,,,,,,,,,10,,77,0
13110,note_on,,1,0,8,,,,,,,,,,,,,,,,11,,69,48
13110,note_on,,1,0,7,,,,,,,,,,,,,,,,10,,69,48
13139,note_on,,29,0,8,,,,,,,,,,,,,,,,11,,69,0
13139,note_on,,29,0,7,,,,,,,,,,,,,,,,10,,69,0
13140,note_on,,1,0,7,,,,,,,,,,,,,,,,10,,72,48
13140,note_on,,1,0,8,,,,,,,,,,,,,,,,11,,72,48
13169,note_on,,29,0,7,,,,,,,,,,,,,,,,10,,72,0
13169,note_on,,29,0,8,,,,,,,,,,,,,,,,11,,72,0
13170,note_on,,1,0,8,,,,,,,,,,,,,,,,11,,77,48
13170,note_on,,1,0,7,,,,,,,,,,,,,,,,10,,77,48
13199,note_on,,29,0,7,,,,,,,,,,,,,,,,10,,77,0
13199,note_on,,29,0,8,,,,,,,,,,,,,,,,11,,77,0
13200,note_on,,1,0,7,,,,,,,,,,,,,,,,10,,81,48
13200,note_on,,0,0,10,,,,,,,,,,,,,,,,15,,65,48
13200,note_on,,0,0,10,,,,,,,,,,,,,,,,15,,69,48
13200,note_on,,0,0,10,,,,,,,,,,,,,,,,15,,74,48
13200,note_on,,0,0,10,,,,,,,,,,,,,,,,15,,77,48
13200,note_on,,121,0,9,,,,,,,,,,,,,,,,13,,62,48
13200,note_on,,1,0,8,,,,,,,,,,,,,,,,11,,81,48
13200,note_on,,121,0,10,,,,,,,,,,,,,,,,15,,62,48
13229,note_on,,29,0,7,,,,,,,,,,,,,,,,10,,81,0
13229,note_on,,29,0,8,,,,,,,,,,,,,,,,11,,81,0
13230,note_on,,1,0,7,,,,,,,,,,,,,,,,10,,69,48
13230,note_on,,1,0,8,,,,,,,,,,,,,,,,11,,69,48
13259,note_on,,29,0,7,,,,,,,,,,,,,,,,10,,69,0
13259,note_on,,29,0,8,,,,,,,,,,,,,,,,11,,69,0
13260,note_on,,1,0,7,,,,,,,,,,,,,,,,10,,81,48
13260,note_on,,1,0,8,,,,,,,,,,,,,,,,11,,81,48
13289,note_on,,29,0,8,,,,,,,,,,,,,,,,11,,81,0
13289,note_on,,29,0,7,,,,,,,,,,,,,,,,10,,81,0
13290,note_on,,1,0,8,,,,,,,,,,,,,,,,11,,69,48
13290,note_on,,1,0,7,,,,,,,,,,,,,,,,10,,69,48
13319,note_on,,0,0,10,,,,,,,,,,,,,,,,15,,65,0
13319,note_on,,119,0,9,,,,,,,,,,,,,,,,13,,62,0
13319,note_on,,29,0,8,,,,,,,,,,,,,,,,11,,69,0
13319,note_on,,29,0,7,,,,,,,,,,,,,,,,10,,69,0
13319,note_on,,119,0,10,,,,,,,,,,,,,,,,15,,62,0
13319,note_on,,0,0,10,,,,,,,,,,,,,,,,15,,77,0
13319,note_on,,0,0,10,,,,,,,,,,,,,,,,15,,74,0
13319,note_on,,0,0,10,,,,,,,,,,,,,,,,15,,69,0
13319,note_on,,359,0,6,,,,,,,,,,,,,,,,5,,77,0
13320,note_on,,1,0,8,,,,,,,,,,,,,,,,11,,81,48
13320,note_on,,1,0,7,,,,,,,,,,,,,,,,10,,81,48
13349,note_on,,29,0,7,,,,,,,,,,,,,,,,10,,81,0
13349,note_on,,29,0,8,,,,,,,,,,,,,,,,11,,81,0
13350,note_on,,1,0,7,,,,,,,,,,,,,,,,10,,69,48
13350,note_on,,1,0,8,,,,,,,,,,,,,,,,11,,69,48
13379,note_on,,29,0,7,,,,,,,,,,,,,,,,10,,69,0
13379,note_on,,29,0,8,,,,,,,,,,,,,,,,11,,69,0
13380,note_on,,1,0,7,,,,,,,,,,,,,,,,10,,79,48
13380,note_on,,61,0,6,,,,,,,,,,,,,,,,5,,76,72
13380,note_on,,1,0,8,,,,,,,,,,,,,,,,11,,79,48
13409,note_on,,29,0,7,,,,,,,,,,,,,,,,10,,79,0
13409,note_on,,29,0,8,,,,,,,,,,,,,,,,11,,79,0
13410,note_on,,1,0,8,,,,,,,,,,,,,,,,11,,72,48
13410,note_on,,1,0,7,,,,,,,,,,,,,,,,10,,72,48
13439,note_on,,29,0,8,,,,,,,,,,,,,,,,11,,72,0
13439,note_on,,29,0,7,,,,,,,,,,,,,,,,10,,72,0
13439,note_on,,59,0,6,,,,,,,,,,,,,,,,5,,76,0
13440,note_on,,1,0,6,,,,,,,,,,,,,,,,5,,77,72
13440,note_on,,1,0,7,,,,,,,,,,,,,,,,10,,81,48
13440,note_on,,0,0,10,,,,,,,,,,,,,,,,15,,65,48
13440,note_on,,0,0,10,,,,,,,,,,,,,,,,15,,69,48
13440,note_on,,0,0,10,,,,,,,,,,,,,,,,15,,74,48
13440,note_on,,121,0,10,,,,,,,,,,,,,,,,15,,58,48
13440,note_on,,121,0,9,,,,,,,,,,,,,,,,13,,58,48
13440,note_on,,1,0,8,,,,,,,,,,,,,,,,11,,81,48
13454,note_on,,14,0,7,,,,,,,,,,,,,,,,10,,81,0
13454,note_on,,14,0,8,,,,,,,,,,,,,,,,11,,81,0
13455,note_on,,1,0,7,,,,,,,,,,,,,,,,10,,82,48
13455,note_on,,1,0,8,,,,,,,,,,,,,,,,11,,82,48
13469,note_on,,14,0,7,,,,,,,,,,,,,,,,10,,82,0
13469,note_on,,14,0,8,,,,,,,,,,,,,,,,11,,82,0
13470,note_on,,1,0,8,,,,,,,,,,,,,,,,11,,81,48
13470,note_on,,1,0,7,,,,,,,,,,,,,,,,10,,81,48
13484,note_on,,14,0,8,,,,,,,,,,,,,,,,11,,81,0
13484,note_on,,14,0,7,,,,,,,,,,,,,,,,10,,81,0
13485,note_on,,1,0,7,,,,,,,,,,,,,,,,10,,82,48
13485,note_on,,1,0,8,,,,,,,,,,,,,,,,11,,82,48
13499,note_on,,14,0,8,,,,,,,,,,,,,,,,11,,82,0
13499,note_on,,14,0,7,,,,,,,,,,,,,,,,10,,82,0
13500,note_on,,1,0,7,,,,,,,,,,,,,,,,10,,79,48
13500,note_on,,1,0,8,,,,,,,,,,,,,,,,11,,79,48
13514,note_on,,14,0,7,,,,,,,,,,,,,,,,10,,79,0
13514,note_on,,14,0,8,,,,,,,,,,,,,,,,11,,79,0
13515,note_on,,1,0,7,,,,,,,,,,,,,,,,10,,81,48
13515,note_on,,1,0,8,,,,,,,,,,,,,,,,11,,81,48
13529,note_on,,14,0,7,,,,,,,,,,,,,,,,10,,81,0
13529,note_on,,14,0,8,,,,,,,,,,,,,,,,11,,81,0
13529,note_on,,89,0,6,,,,,,,,,,,,,,,,5,,77,0
13530,note_on,,1,0,7,,,,,,,,,,,,,,,,10,,79,48
13530,note_on,,1,0,6,,,,,,,,,,,,,,,,5,,76,72
13530,note_on,,1,0,8,,,,,,,,,,,,,,,,11,,79,48
13559,note_on,,29,0,7,,,,,,,,,,,,,,,,10,,79,0
13559,note_on,,29,0,6,,,,,,,,,,,,,,,,5,,76,0
13559,note_on,,0,0,10,,,,,,,,,,,,,,,,15,,65,0
13559,note_on,,119,0,9,,,,,,,,,,,,,,,,13,,58,0
13559,note_on,,29,0,8,,,,,,,,,,,,,,,,11,,79,0
13559,note_on,,119,0,10,,,,,,,,,,,,,,,,15,,58,0
13559,note_on,,0,0,10,,,,,,,,,,,,,,,,15,,74,0
13559,note_on,,0,0,10,,,,,,,,,,,,,,,,15,,69,0
13560,note_on,,1,0,6,,,,,,,,,,,,,,,,5,,77,72
13560,note_on,,1,0,8,,,,,,,,,,,,,,,,11,,81,48
13560,note_on,,1,0,7,,,,,,,,,,,,,,,,10,,81,48
13619,note_on,,59,0,7,,,,,,,,,,,,,,,,10,,81,0
13619,note_on,,59,0,8,,,,,,,,,,,,,,,,11,,81,0
13619,note_on,,59,0,6,,,,,,,,,,,,,,,,5,,77,0
13620,note_on,,1,0,7,,,,,,,,,,,,,,,,10,,82,48
13620,note_on,,1,0,8,,,,,,,,,,,,,,,,11,,82,48
13620,note_on,,1,0,6,,,,,,,,,,,,,,,,5,,79,72
13679,note_on,,59,0,6,,,,,,,,,,,,,,,,5,,79,0
13679,note_on,,59,0,7,,,,,,,,,,,,,,,,10,,82,0
13679,note_on,,59,0,8,,,,,,,,,,,,,,,,11,,82,0
13680,note_on,,1,0,6,,,,,,,,,,,,,,,,5,,75,72
13680,note_on,,0,0,10,,,,,,,,,,,,,,,,15,,67,48
13680,note_on,,0,0,10,,,,,,,,,,,,,,,,15,,64,48
13680,note_on,,1,0,8,,,,,,,,,,,,,,,,11,,79,48
13680,note_on,,0,0,10,,,,,,,,,,,,,,,,15,,72,48
13680,note_on,,1,0,7,,,,,,,,,,,,,,,,10,,79,48
13680,note_on,,121,0,10,,,,,,,,,,,,,,,,15,,60,48
13680,note_on,,121,0,9,,,,,,,,,,,,,,,,13,,60,48
13694,note_on,,14,0,6,,,,,,,,,,,,,,,,5,,75,0
13695,note_on,,1,0,6,,,,,,,,,,,,,,,,5,,77,72
13709,note_on,,14,0,6,,,,,,,,,,,,,,,,5,,77,0
13710,note_on,,1,0,6,,,,,,,,,,,,,,,,5,,75,72
13724,note_on,,14,0,6,,,,,,,,,,,,,,,,5,,75,0
13725,note_on,,1,0,6,,,,,,,,,,,,,,,,5,,77,72
13739,note_on,,14,0,6,,,,,,,,,,,,,,,,5,,77,0
13740,note_on,,1,0,6,,,,,,,,,,,,,,,,5,,75,72
13754,note_on,,14,0,6,,,,,,,,,,,,,,,,5,,75,0
13755,note_on,,1,0,6,,,,,,,,,,,,,,,,5,,77,72
13769,note_on,,14,0,6,,,,,,,,,,,,,,,,5,,77,0
13770,note_on,,1,0,6,,,,,,,,,,,,,,,,5,,74,72
13799,note_on,,0,0,10,,,,,,,,,,,,,,,,15,,64,0
13799,note_on,,119,0,8,,,,,,,,,,,,,,,,11,,79,0
13799,note_on,,0,0,10,,,,,,,,,,,,,,,,15,,72,0
13799,note_on,,119,0,10,,,,,,,,,,,,,,,,15,,60,0
13799,note_on,,119,0,9,,,,,,,,,,,,,,,,13,,60,0
13799,note_on,,29,0,6,,,,,,,,,,,,,,,,5,,74,0
13799,note_on,,0,0,10,,,,,,,,,,,,,,,,15,,67,0
13799,note_on,,119,0,7,,,,,,,,,,,,,,,,10,,79,0
13800,note_on,,1,0,6,,,,,,,,,,,,,,,,5,,72,72
13859,note_on,,59,0,6,,,,,,,,,,,,,,,,5,,72,0
13860,note_on,,0,0,10,,,,,,,,,,,,,,,,15,,72,48
13860,note_on,,61,0,10,,,,,,,,,,,,,,,,15,,57,48
13860,note_on,,0,0,10,,,,,,,,,,,,,,,,15,,77,48
13860,note_on,,61,0,7,,,,,,,,,,,,,,,,10,,84,72
13860,note_on,,61,0,9,,,,,,,,,,,,,,,,13,,57,48
13860,note_on,,61,0,8,,,,,,,,,,,,,,,,11,,84,72
13860,note_on,,1501,0,5,,,,,,,,,,,,,,,,2,,57,48
13860,note_on,,0,0,10,,,,,,,,,,,,,,,,15,,65,48
13919,note_on,,59,0,5,,,,,,,,,,,,,,,,2,,57,0
13919,note_on,,59,0,7,,,,,,,,,,,,,,,,10,,84,0
13919,note_on,,59,0,8,,,,,,,,,,,,,,,,11,,84,0
13919,note_on,,59,0,10,,,,,,,,,,,,,,,,15,,57,0
13919,note_on,,0,0,10,,,,,,,,,,,,,,,,15,,77,0
13919,note_on,,0,0,10,,,,,,,,,,,,,,,,15,,72,0
13919,note_on,,0,0,10,,,,,,,,,,,,,,,,15,,65,0
13919,note_on,,59,0,9,,,,,,,,,,,,,,,,13,,57,0
13920,note_on,,1,0,7,,,,,,,,,,,,,,,,10,,86,72
13920,note_on,,0,0,10,,,,,,,,,,,,,,,,15,,70,48
13920,note_on,,1,0,5,,,,,,,,,,,,,,,,2,,46,48
13920,note_on,,1,0,9,,,,,,,,,,,,,,,,13,,46,48
13920,note_on,,1,0,8,,,,,,,,,,,,,,,,11,,86,72
13920,note_on,,1,0,10,,,,,,,,,,,,,,,,15,,46,48
13920,note_on,,0,0,10,,,,,,,,,,,,,,,,15,,74,48
13920,note_on,,0,0,10,,,,,,,,,,,,,,,,15,,65,48
13949,note_on,,29,0,8,,,,,,,,,,,,,,,,11,,86,0
13949,note_on,,29,0,7,,,,,,,,,,,,,,,,10,,86,0
13950,note_on,,1,0,7,,,,,,,,,,,,,,,,10,,74,72
13950,note_on,,1,0,8,,,,,,,,,,,,,,,,11,,74,72
13979,note_on,,29,0,7,,,,,,,,,,,,,,,,10,,74,0
13979,note_on,,29,0,8,,,,,,,,,,,,,,,,11,,74,0
13980,note_on,,1,0,7,,,,,,,,,,,,,,,,10,,76,72
13980,note_on,,1,0,8,,,,,,,,,,,,,,,,11,,76,72
14009,note_on,,29,0,7,,,,,,,,,,,,,,,,10,,76,0
14009,note_on,,29,0,8,,,,,,,,,,,,,,,,11,,76,0
14010,note_on,,1,0,8,,,,,,,,,,,,,,,,11,,77,72
14010,note_on,,1,0,7,,,,,,,,,,,,,,,,10,,77,72
14039,note_on,,29,0,8,,,,,,,,,,,,,,,,11,,77,0
14039,note_on,,119,0,9,,,,,,,,,,,,,,,,13,,46,0
14039,note_on,,119,0,5,,,,,,,,,,,,,,,,2,,46,0
14039,note_on,,0,0,10,,,,,,,,,,,,,,,,15,,70,0
14039,note_on,,0,0,10,,,,,,,,,,,,,,,,15,,74,0
14039,note_on,,119,0,10,,,,,,,,,,,,,,,,15,,46,0
14039,note_on,,0,0,10,,,,,,,,,,,,,,,,15,,65,0
14039,note_on,,29,0,7,,,,,,,,,,,,,,,,10,,77,0
14040,note_on,,1,0,10,,,,,,,,,,,,,,,,15,,58,48
14040,note_on,,1,0,8,,,,,,,,,,,,,,,,11,,79,72
14040,note_on,,0,0,10,,,,,,,,,,,,,,,,15,,67,48
14040,note_on,,0,0,10,,,,,,,,,,,,,,,,15,,70,48
14040,note_on,,1,0,7,,,,,,,,,,,,,,,,10,,79,72
14040,note_on,,1,0,9,,,,,,,,,,,,,,,,13,,58,48
14040,note_on,,0,0,10,,,,,,,,,,,,,,,,15,,62,48
14040,note_on,,1,0,5,,,,,,,,,,,,,,,,2,,58,48
14069,note_on,,29,0,8,,,,,,,,,,,,,,,,11,,79,0
14069,note_on,,29,0,7,,,,,,,,,,,,,,,,10,,79,0
14070,note_on,,1,0,7,,,,,,,,,,,,,,,,10,,82,72
14070,note_on,,1,0,8,,,,,,,,,,,,,,,,11,,82,72
14099,note_on,,29,0,7,,,,,,,,,,,,,,,,10,,82,0
14099,note_on,,29,0,8,,,,,,,,,,,,,,,,11,,82,0
14100,note_on,,1,0,8,,,,,,,,,,,,,,,,11,,81,72
14100,note_on,,1,0,7,,,,,,,,,,,,,,,,10,,81,72
14129,note_on,,29,0,8,,,,,,,,,,,,,,,,11,,81,0
14129,note_on,,29,0,7,,,,,,,,,,,,,,,,10,,81,0
14130,note_on,,1,0,8,,,,,,,,,,,,,,,,11,,79,72
14130,note_on,,1,0,7,,,,,,,,,,,,,,,,10,,79,72
14159,note_on,,29,0,8,,,,,,,,,,,,,,,,11,,79,0
14159,note_on,,119,0,9,,,,,,,,,,,,,,,,13,,58,0
14159,note_on,,0,0,10,,,,,,,,,,,,,,,,15,,67,0
14159,note_on,,0,0,10,,,,,,,,,,,,,,,,15,,70,0
14159,note_on,,119,0,5,,,,,,,,,,,,,,,,2,,58,0
14159,note_on,,0,0,10,,,,,,,,,,,,,,,,15,,62,0
14159,note_on,,119,0,10,,,,,,,,,,,,,,,,15,,58,0
14159,note_on,,29,0,7,,,,,,,,,,,,,,,,10,,79,0
14160,note_on,,0,0,10,,,,,,,,,,,,,,,,15,,69,48
14160,note_on,,0,0,10,,,,,,,,,,,,,,,,15,,67,48
14160,note_on,,0,0,10,,,,,,,,,,,,,,,,15,,72,48
14160,note_on,,1,0,10,,,,,,,,,,,,,,,,15,,57,48
14160,note_on,,1,0,9,,,,,,,,,,,,,,,,13,,57,48
14160,note_on,,1,0,8,,,,,,,,,,,,,,,,11,,84,72
14160,note_on,,1,0,5,,,,,,,,,,,,,,,,2,,57,48
14160,note_on,,1,0,7,,,,,,,,,,,,,,,,10,,84,72
14189,note_on,,29,0,8,,,,,,,,,,,,,,,,11,,84,0
14189,note_on,,29,0,7,,,,,,,,,,,,,,,,10,,84,0
14190,note_on,,1,0,8,,,,,,,,,,,,,,,,11,,72,72
14190,note_on,,1,0,7,,,,,,,,,,,,,,,,10,,72,72
14219,note_on,,29,0,7,,,,,,,,,,,,,,,,10,,72,0
14219,note_on,,29,0,8,,,,,,,,,,,,,,,,11,,72,0
14220,note_on,,1,0,8,,,,,,,,,,,,,,,,11,,74,72
14220,note_on,,1,0,7,,,,,,,,,,,,,,,,10,,74,72
14249,note_on,,29,0,7,,,,,,,,,,,,,,,,10,,74,0
14249,note_on,,29,0,8,,,,,,,,,,,,,,,,11,,74,0
14250,note_on,,1,0,8,,,,,,,,,,,,,,,,11,,75,72
14250,note_on,,1,0,7,,,,,,,,,,,,,,,,10,,75,72
14279,note_on,,119,0,10,,,,,,,,,,,,,,,,15,,57,0
14279,note_on,,119,0,5,,,,,,,,,,,,,,,,2,,57,0
14279,note_on,,0,0,10,,,,,,,,,,,,,,,,15,,67,0
14279,note_on,,29,0,7,,,,,,,,,,,,,,,,10,,75,0
14279,note_on,,119,0,9,,,,,,,,,,,,,,,,13,,57,0
14279,note_on,,29,0,8,,,,,,,,,,,,,,,,11,,75,0
14280,note_on,,1,0,9,,,,,,,,,,,,,,,,13,,45,48
14280,note_on,,1,0,5,,,,,,,,,,,,,,,,2,,45,48
14280,note_on,,1,0,7,,,,,,,,,,,,,,,,10,,77,72
14280,note_on,,1,0,10,,,,,,,,,,,,,,,,15,,45,48
14280,note_on,,0,0,10,,,,,,,,,,,,,,,,15,,65,48
14280,note_on,,1,0,8,,,,,,,,,,,,,,,,11,,77,72
14340,note_on,,481,0,6,,,,,,,,,,,,,,,,5,,72,72
14399,note_on,,119,0,7,,,,,,,,,,,,,,,,10,,77,0
14399,note_on,,0,0,10,,,,,,,,,,,,,,,,15,,69,0
14399,note_on,,0,0,10,,,,,,,,,,,,,,,,15,,45,0
14399,note_on,,119,0,10,,,,,,,,,,,,,,,,15,,72,0
14399,note_on,,59,0,6,,,,,,,,,,,,,,,,5,,72,0
14399,note_on,,119,0,5,,,,,,,,,,,,,,,,2,,45,0
14399,note_on,,119,0,9,,,,,,,,,,,,,,,,13,,45,0
14399,note_on,,0,0,10,,,,,,,,,,,,,,,,15,,65,0
14399,note_on,,119,0,8,,,,,,,,,,,,,,,,11,,77,0
14400,note_on,,1,0,9,,,,,,,,,,,,,,,,13,,46,48
14400,note_on,,1,0,10,,,,,,,,,,,,,,,,15,,46,48
14400,note_on,,0,0,10,,,,,,,,,,,,,,,,15,,65,48
14400,note_on,,0,0,10,,,,,,,,,,,,,,,,15,,62,48
14400,note_on,,1,0,6,,,,,,,,,,,,,,,,5,,74,72
14519,note_on,,0,0,10,,,,,,,,,,,,,,,,15,,62,0
14519,note_on,,119,0,9,,,,,,,,,,,,,,,,13,,46,0
14519,note_on,,119,0,10,,,,,,,,,,,,,,,,15,,46,0
14519,note_on,,0,0,10,,,,,,,,,,,,,,,,15,,65,0
14520,note_on,,1,0,9,,,,,,,,,,,,,,,,13,,58,48
14520,note_on,,1,0,10,,,,,,,,,,,,,,,,15,,58,48
14520,note_on,,0,0,10,,,,,,,,,,,,,,,,15,,62,48
14520,note_on,,0,0,10,,,,,,,,,,,,,,,,15,,67,48
14579,note_on,,179,0,6,,,,,,,,,,,,,,,,5,,74,0
14580,note_on,,1,0,6,,,,,,,,,,,,,,,,5,,79,72
14639,note_on,,59,0,6,,,,,,,,,,,,,,,,5,,79,0
14639,note_on,,119,0,10,,,,,,,,,,,,,,,,15,,62,0
14640,note_on,,1,0,10,,,,,,,,,,,,,,,,15,,64,48
14640,note_on,,0,0,10,,,,,,,,,,,,,,,,15,,60,48
14640,note_on,,1,0,6,,,,,,,,,,,,,,,,5,,72,72
14759,note_on,,119,0,6,,,,,,,,,,,,,,,,5,,72,0
14759,note_on,,119,0,10,,,,,,,,,,,,,,,,15,,58,0
14759,note_on,,0,0,10,,,,,,,,,,,,,,,,15,,67,0
14759,note_on,,0,0,10,,,,,,,,,,,,,,,,15,,64,0
14759,note_on,,0,0,10,,,,,,,,,,,,,,,,15,,60,0
14759,note_on,,239,0,9,,,,,,,,,,,,,,,,13,,58,0
14760,note_on,,1,0,9,,,,,,,,,,,,,,,,13,,57,48
14760,note_on,,0,0,10,,,,,,,,,,,,,,,,15,,60,48
14760,note_on,,0,0,10,,,,,,,,,,,,,,,,15,,65,48
14760,note_on,,0,0,10,,,,,,,,,,,,,,,,15,,69,48
14760,note_on,,1,0,6,,,,,,,,,,,,,,,,5,,79,72
14760,note_on,,1,0,10,,,,,,,,,,,,,,,,15,,57,48
14774,note_on,,14,0,6,,,,,,,,,,,,,,,,5,,79,0
14775,note_on,,1,0,6,,,,,,,,,,,,,,,,5,,77,72
14819,note_on,,44,0,6,,,,,,,,,,,,,,,,5,,77,0
14820,note_on,,1,0,6,,,,,,,,,,,,,,,,5,,75,72
14834,note_on,,14,0,6,,,,,,,,,,,,,,,,5,,75,0
14835,note_on,,1,0,6,,,,,,,,,,,,,,,,5,,74,72
14879,note_on,,119,0,10,,,,,,,,,,,,,,,,15,,57,0
14879,note_on,,119,0,9,,,,,,,,,,,,,,,,13,,57,0
14879,note_on,,44,0,6,,,,,,,,,,,,,,,,5,,74,0
14879,note_on,,0,0,10,,,,,,,,,,,,,,,,15,,69,0
14879,note_on,,0,0,10,,,,,,,,,,,,,,,,15,,65,0
14879,note_on,,0,0,10,,,,,,,,,,,,,,,,15,,60,0
14880,note_on,,1,0,10,,,,,,,,,,,,,,,,15,,55,48
14880,note_on,,0,0,10,,,,,,,,,,,,,,,,15,,70,48
14880,note_on,,0,0,10,,,,,,,,,,,,,,,,15,,65,48
14880,note_on,,0,0,10,,,,,,,,,,,,,,,,15,,62,48
14880,note_on,,0,0,10,,,,,,,,,,,,,,,,15,,67,48
14880,note_on,,1,0,9,,,,,,,,,,,,,,,,13,,55,48
14880,note_on,,1,0,6,,,,,,,,,,,,,,,,5,,72,72
14939,note_on,,59,0,6,,,,,,,,,,,,,,,,5,,72,0
14940,note_on,,1,0,6,,,,,,,,,,,,,,,,5,,70,72
14954,note_on,,14,0,6,,,,,,,,,,,,,,,,5,,70,0
14955,note_on,,1,0,6,,,,,,,,,,,,,,,,5,,72,72
14969,note_on,,14,0,6,,,,,,,,,,,,,,,,5,,72,0
14970,note_on,,1,0,6,,,,,,,,,,,,,,,,5,,70,72
14984,note_on,,14,0,6,,,,,,,,,,,,,,,,5,,70,0
14985,note_on,,1,0,6,,,,,,,,,,,,,,,,5,,72,72
14999,note_on,,14,0,6,,,,,,,,,,,,,,,,5,,72,0
14999,note_on,,119,0,9,,,,,,,,,,,,,,,,13,,55,0
14999,note_on,,119,0,10,,,,,,,,,,,,,,,,15,,55,0
14999,note_on,,0,0,10,,,,,,,,,,,,,,,,15,,65,0
14999,note_on,,0,0,10,,,,,,,,,,,,,,,,15,,62,0
15000,note_on,,1,0,10,,,,,,,,,,,,,,,,15,,48,48
15000,note_on,,0,0,10,,,,,,,,,,,,,,,,15,,64,48
15000,note_on,,0,0,10,,,,,,,,,,,,,,,,15,,60,48
15000,note_on,,1,0,6,,,,,,,,,,,,,,,,5,,70,72
15000,note_on,,1,0,9,,,,,,,,,,,,,,,,13,,48,48
15014,note_on,,14,0,6,,,,,,,,,,,,,,,,5,,70,0
15015,note_on,,1,0,6,,,,,,,,,,,,,,,,5,,72,72
15029,note_on,,14,0,6,,,,,,,,,,,,,,,,5,,72,0
15030,note_on,,1,0,6,,,,,,,,,,,,,,,,5,,70,72
15044,note_on,,14,0,6,,,,,,,,,,,,,,,,5,,70,0
15045,note_on,,1,0,6,,,,,,,,,,,,,,,,5,,72,72
15059,note_on,,14,0,6,,,,,,,,,,,,,,,,5,,72,0
15060,note_on,,1,0,6,,,,,,,,,,,,,,,,5,,69,72
15119,note_on,,119,0,9,,,,,,,,,,,,,,,,13,,48,0
15119,note_on,,0,0,10,,,,,,,,,,,,,,,,15,,48,0
15119,note_on,,119,0,10,,,,,,,,,,,,,,,,15,,70,0
15119,note_on,,0,0,10,,,,,,,,,,,,,,,,15,,67,0
15119,note_on,,0,0,10,,,,,,,,,,,,,,,,15,,64,0
15119,note_on,,0,0,10,,,,,,,,,,,,,,,,15,,60,0
15119,note_on,,59,0,6,,,,,,,,,,,,,,,,5,,69,0
15120,note_on,,1,0,6,,,,,,,,,,,,,,,,5,,69,72
15120,note_on,,1,0,10,,,,,,,,,,,,,,,,15,,53,48
15120,note_on,,0,0,10,,,,,,,,,,,,,,,,15,,69,48
15120,note_on,,0,0,10,,,,,,,,,,,,,,,,15,,65,48
15120,note_on,,0,0,10,,,,,,,,,,,,,,,,15,,60,48
15120,note_on,,1,0,9,,,,,,,,,,,,,,,,13,,53,48
15239,note_on,,119,0,6,,,,,,,,,,,,,,,,5,,69,0
15239,note_on,,119,0,9,,,,,,,,,,,,,,,,13,,53,0
15239,note_on,,0,0,10,,,,,,,,,,,,,,,,15,,65,0
15239,note_on,,0,0,10,,,,,,,,,,,,,,,,15,,60,0
15239,note_on,,0,0,10,,,,,,,,,,,,,,,,15,,69,0
15239,note_on,,119,0,10,,,,,,,,,,,,,,,,15,,53,0
15240,note_on,,0,0,10,,,,,,,,,,,,,,,,15,,77,48
15240,note_on,,0,0,10,,,,,,,,,,,,,,,,15,,72,48
15240,note_on,,0,0,10,,,,,,,,,,,,,,,,15,,69,48
15240,note_on,,1,0,9,,,,,,,,,,,,,,,,13,,41,48
15240,note_on,,1,0,10,,,,,,,,,,,,,,,,15,,41,48
15240,note_on,,841,0,5,,,,,,,,,,,,,,,,2,,41,48
15300,note_on,,901,0,7,,,,,,,,,,,,,,,,10,,81,72
15300,note_on,,901,0,8,,,,,,,,,,,,,,,,11,,81,72
15359,note_on,,0,0,10,,,,,,,,,,,,,,,,15,,69,0
15359,note_on,,0,0,10,,,,,,,,,,,,,,,,15,,72,0
15359,note_on,,0,0,10,,,,,,,,,,,,,,,,15,,77,0
15359,note_on,,119,0,10,,,,,,,,,,,,,,,,15,,41,0
15359,note_on,,59,0,7,,,,,,,,,,,,,,,,10,,81,0
15359,note_on,,119,0,5,,,,,,,,,,,,,,,,2,,41,0
15359,note_on,,119,0,9,,,,,,,,,,,,,,,,13,,41,0
15359,note_on,,59,0,8,,,,,,,,,,,,,,,,11,,81,0
15360,note_on,,1,0,8,,,,,,,,,,,,,,,,11,,82,72
15360,note_on,,1,0,9,,,,,,,,,,,,,,,,13,,43,48
15360,note_on,,1,0,10,,,,,,,,,,,,,,,,15,,43,48
15360,note_on,,1,0,7,,,,,,,,,,,,,,,,10,,82,72
15360,note_on,,0,0,10,,,,,,,,,,,,,,,,15,,70,48
15360,note_on,,0,0,10,,,,,,,,,,,,,,,,15,,65,48
15360,note_on,,0,0,10,,,,,,,,,,,,,,,,15,,69,48
15360,note_on,,1,0,5,,,,,,,,,,,,,,,,2,,43,48
15389,note_on,,29,0,7,,,,,,,,,,,,,,,,10,,82,0
15389,note_on,,29,0,8,,,,,,,,,,,,,,,,11,,82,0
15390,note_on,,1,0,8,,,,,,,,,,,,,,,,11,,74,72
15390,note_on,,1,0,7,,,,,,,,,,,,,,,,10,,74,72
15419,note_on,,29,0,7,,,,,,,,,,,,,,,,10,,74,0
15419,note_on,,29,0,8,,,,,,,,,,,,,,,,11,,74,0
15420,note_on,,1,0,7,,,,,,,,,,,,,,,,10,,76,72
15420,note_on,,1,0,8,,,,,,,,,,,,,,,,11,,76,72
15449,note_on,,29,0,7,,,,,,,,,,,,,,,,10,,76,0
15449,note_on,,29,0,8,,,,,,,,,,,,,,,,11,,76,0
15450,note_on,,1,0,8,,,,,,,,,,,,,,,,11,,77,72
15450,note_on,,1,0,7,,,,,,,,,,,,,,,,10,,77,72
15479,note_on,,0,0,10,,,,,,,,,,,,,,,,15,,65,0
15479,note_on,,119,0,5,,,,,,,,,,,,,,,,2,,43,0
15479,note_on,,29,0,7,,,,,,,,,,,,,,,,10,,77,0
15479,note_on,,119,0,10,,,,,,,,,,,,,,,,15,,43,0
15479,note_on,,0,0,10,,,,,,,,,,,,,,,,15,,70,0
15479,note_on,,0,0,10,,,,,,,,,,,,,,,,15,,69,0
15479,note_on,,29,0,8,,,,,,,,,,,,,,,,11,,77,0
15479,note_on,,119,0,9,,,,,,,,,,,,,,,,13,,43,0
15480,note_on,,1,0,8,,,,,,,,,,,,,,,,11,,76,72
15480,note_on,,1,0,10,,,,,,,,,,,,,,,,15,,48,48
15480,note_on,,0,0,10,,,,,,,,,,,,,,,,15,,76,48
15480,note_on,,0,0,10,,,,,,,,,,,,,,,,15,,70,48
15480,note_on,,0,0,10,,,,,,,,,,,,,,,,15,,67,48
15480,note_on,,1,0,7,,,,,,,,,,,,,,,,10,,76,72
15480,note_on,,0,0,10,,,,,,,,,,,,,,,,15,,55,48
15480,note_on,,1,0,9,,,,,,,,,,,,,,,,13,,48,48
15480,note_on,,1,0,5,,,,,,,,,,,,,,,,2,,48,48
15509,note_on,,29,0,8,,,,,,,,,,,,,,,,11,,76,0
15509,note_on,,29,0,7,,,,,,,,,,,,,,,,10,,76,0
15510,note_on,,1,0,7,,,,,,,,,,,,,,,,10,,79,72
15510,note_on,,1,0,8,,,,,,,,,,,,,,,,11,,79,72
15539,note_on,,29,0,7,,,,,,,,,,,,,,,,10,,79,0
15539,note_on,,29,0,8,,,,,,,,,,,,,,,,11,,79,0
15540,note_on,,1,0,7,,,,,,,,,,,,,,,,10,,77,72
15540,note_on,,1,0,8,,,,,,,,,,,,,,,,11,,77,72
15569,note_on,,29,0,7,,,,,,,,,,,,,,,,10,,77,0
15569,note_on,,29,0,8,,,,,,,,,,,,,,,,11,,77,0
15570,note_on,,1,0,7,,,,,,,,,,,,,,,,10,,76,72
15570,note_on,,1,0,8,,,,,,,,,,,,,,,,11,,76,72
15599,note_on,,119,0,10,,,,,,,,,,,,,,,,15,,48,0
15599,note_on,,29,0,7,,,,,,,,,,,,,,,,10,,76,0
15599,note_on,,29,0,8,,,,,,,,,,,,,,,,11,,76,0
15599,note_on,,119,0,9,,,,,,,,,,,,,,,,13,,48,0
15599,note_on,,0,0,10,,,,,,,,,,,,,,,,15,,76,0
15599,note_on,,0,0,10,,,,,,,,,,,,,,,,15,,70,0
15599,note_on,,0,0,10,,,,,,,,,,,,,,,,15,,67,0
15599,note_on,,0,0,10,,,,,,,,,,,,,,,,15,,55,0
15599,note_on,,119,0,5,,,,,,,,,,,,,,,,2,,48,0
15600,note_on,,1,0,10,,,,,,,,,,,,,,,,15,,53,48
15600,note_on,,0,0,10,,,,,,,,,,,,,,,,15,,77,48
15600,note_on,,1,0,5,,,,,,,,,,,,,,,,2,,53,48
15600,note_on,,0,0,10,,,,,,,,,,,,,,,,15,,69,48
15600,note_on,,0,0,10,,,,,,,,,,,,,,,,15,,65,48
15600,note_on,,0,0,10,,,,,,,,,,,,,,,,15,,57,48
15600,note_on,,1,0,7,,,,,,,,,,,,,,,,10,,81,72
15600,note_on,,1,0,9,,,,,,,,,,,,,,,,13,,53,48
15600,note_on,,1,0,8,,,,,,,,,,,,,,,,11,,81,72
15629,note_on,,29,0,8,,,,,,,,,,,,,,,,11,,81,0
15629,note_on,,29,0,7,,,,,,,,,,,,,,,,10,,81,0
15630,note_on,,1,0,7,,,,,,,,,,,,,,,,10,,72,72
15630,note_on,,1,0,8,,,,,,,,,,,,,,,,11,,72,72
15659,note_on,,29,0,8,,,,,,,,,,,,,,,,11,,72,0
15659,note_on,,29,0,7,,,,,,,,,,,,,,,,10,,72,0
15660,note_on,,1,0,8,,,,,,,,,,,,,,,,11,,74,72
15660,note_on,,1,0,7,,,,,,,,,,,,,,,,10,,74,72
15689,note_on,,29,0,8,,,,,,,,,,,,,,,,11,,74,0
15689,note_on,,29,0,7,,,,,,,,,,,,,,,,10,,74,0
15690,note_on,,1,0,7,,,,,,,,,,,,,,,,10,,76,72
15690,note_on,,1,0,8,,,,,,,,,,,,,,,,11,,76,72
15719,note_on,,0,0,10,,,,,,,,,,,,,,,,15,,57,0
15719,note_on,,0,0,10,,,,,,,,,,,,,,,,15,,65,0
15719,note_on,,0,0,10,,,,,,,,,,,,,,,,15,,69,0
15719,note_on,,0,0,10,,,,,,,,,,,,,,,,15,,77,0
15719,note_on,,119,0,10,,,,,,,,,,,,,,,,15,,53,0
15719,note_on,,29,0,7,,,,,,,,,,,,,,,,10,,76,0
15719,note_on,,119,0,5,,,,,,,,,,,,,,,,2,,53,0
15719,note_on,,119,0,9,,,,,,,,,,,,,,,,13,,53,0
15719,note_on,,29,0,8,,,,,,,,,,,,,,,,11,,76,0
15720,note_on,,1,0,7,,,,,,,,,,,,,,,,10,,77,72
15720,note_on,,1,0,9,,,,,,,,,,,,,,,,13,,57,48
15720,note_on,,1,0,10,,,,,,,,,,,,,,,,15,,57,48
15720,note_on,,0,0,10,,,,,,,,,,,,,,,,15,,65,48
15720,note_on,,0,0,10,,,,,,,,,,,,,,,,15,,72,48
15720,note_on,,1,0,8,,,,,,,,,,,,,,,,11,,77,72
15720,note_on,,0,0,10,,,,,,,,,,,,,,,,15,,60,48
15780,note_on,,541,0,6,,,,,,,,,,,,,,,,5,,77,72
15809,note_on,,0,0,10,,,,,,,,,,,,,,,,15,,72,0
15809,note_on,,89,0,10,,,,,,,,,,,,,,,,15,,57,0
15809,note_on,,89,0,9,,,,,,,,,,,,,,,,13,,57,0
15810,note_on,,0,0,10,,,,,,,,,,,,,,,,15,,69,48
15810,note_on,,1,0,10,,,,,,,,,,,,,,,,15,,53,48
15810,note_on,,1,0,9,,,,,,,,,,,,,,,,13,,53,48
15839,note_on,,0,0,10,,,,,,,,,,,,,,,,15,,53,0
15839,note_on,,0,0,10,,,,,,,,,,,,,,,,15,,60,0
15839,note_on,,29,0,10,,,,,,,,,,,,,,,,15,,65,0
15839,note_on,,59,0,6,,,,,,,,,,,,,,,,5,,77,0
15839,note_on,,119,0,7,,,,,,,,,,,,,,,,10,,77,0
15839,note_on,,119,0,8,,,,,,,,,,,,,,,,11,,77,0
15839,note_on,,29,0,9,,,,,,,,,,,,,,,,13,,53,0
15839,note_on,,0,0,10,,,,,,,,,,,,,,,,15,,69,0
15840,note_on,,1,0,6,,,,,,,,,,,,,,,,5,,77,72
15840,note_on,,0,0,10,,,,,,,,,,,,,,,,15,,67,48
15840,note_on,,0,0,10,,,,,,,,,,,,,,,,15,,72,48
15840,note_on,,1,0,10,,,,,,,,,,,,,,,,15,,60,48
15840,note_on,,1,0,9,,,,,,,,,,,,,,,,13,,60,48
15869,note_on,,29,0,6,,,,,,,,,,,,,,,,5,,77,0
15870,note_on,,1,0,6,,,,,,,,,,,,,,,,5,,76,72
15884,note_on,,14,0,6,,,,,,,,,,,,,,,,5,,76,0
15885,note_on,,1,0,6,,,,,,,,,,,,,,,,5,,77,72
15899,note_on,,14,0,6,,,,,,,,,,,,,,,,5,,77,0
15900,note_on,,1,0,6,,,,,,,,,,,,,,,,5,,76,72
15914,note_on,,14,0,6,,,,,,,,,,,,,,,,5,,76,0
15915,note_on,,1,0,6,,,,,,,,,,,,,,,,5,,77,72
15929,note_on,,14,0,6,,,,,,,,,,,,,,,,5,,77,0
15930,note_on,,1,0,6,,,,,,,,,,,,,,,,5,,74,72
15959,note_on,,0,0,10,,,,,,,,,,,,,,,,15,,67,0
15959,note_on,,0,0,10,,,,,,,,,,,,,,,,15,,72,0
15959,note_on,,119,0,9,,,,,,,,,,,,,,,,13,,60,0
15959,note_on,,29,0,6,,,,,,,,,,,,,,,,5,,74,0
15959,note_on,,119,0,10,,,,,,,,,,,,,,,,15,,60,0
15960,note_on,,1,0,10,,,,,,,,,,,,,,,,15,,53,48
15960,note_on,,0,0,10,,,,,,,,,,,,,,,,15,,69,48
15960,note_on,,0,0,10,,,,,,,,,,,,,,,,15,,65,48
15960,note_on,,1,0,9,,,,,,,,,,,,,,,,13,,53,48
15960,note_on,,1,0,6,,,,,,,,,,,,,,,,5,,76,72
15989,note_on,,29,0,6,,,,,,,,,,,,,,,,5,,76,0
15990,note_on,,1,0,6,,,,,,,,,,,,,,,,5,,74,72
16004,note_on,,14,0,6,,,,,,,,,,,,,,,,5,,74,0
16005,note_on,,1,0,6,,,,,,,,,,,,,,,,5,,76,72
16019,note_on,,14,0,6,,,,,,,,,,,,,,,,5,,76,0
16020,note_on,,1,0,6,,,,,,,,,,,,,,,,5,,74,72
16034,note_on,,14,0,6,,,,,,,,,,,,,,,,5,,74,0
16035,note_on,,1,0,6,,,,,,,,,,,,,,,,5,,76,72
16049,note_on,,14,0,6,,,,,,,,,,,,,,,,5,,76,0
16050,note_on,,1,0,6,,,,,,,,,,,,,,,,5,,72,72
16079,note_on,,29,0,6,,,,,,,,,,,,,,,,5,,72,0
16079,note_on,,0,0,10,,,,,,,,,,,,,,,,15,,65,0
16079,note_on,,0,0,10,,,,,,,,,,,,,,,,15,,69,0
16079,note_on,,119,0,9,,,,,,,,,,,,,,,,13,,53,0
16079,note_on,,119,0,10,,,,,,,,,,,,,,,,15,,53,0
16080,note_on,,1,0,9,,,,,,,,,,,,,,,,13,,52,48
16080,note_on,,0,0,10,,,,,,,,,,,,,,,,15,,55,48
16080,note_on,,0,0,10,,,,,,,,,,,,,,,,15,,67,48
16080,note_on,,1,0,10,,,,,,,,,,,,,,,,15,,52,48
16080,note_on,,1,0,6,,,,,,,,,,,,,,,,5,,74,72
16109,note_on,,29,0,6,,,,,,,,,,,,,,,,5,,74,0
16110,note_on,,1,0,6,,,,,,,,,,,,,,,,5,,72,72
16124,note_on,,14,0,6,,,,,,,,,,,,,,,,5,,72,0
16125,note_on,,1,0,6,,,,,,,,,,,,,,,,5,,74,72
16139,note_on,,14,0,6,,,,,,,,,,,,,,,,5,,74,0
16140,note_on,,1,0,6,,,,,,,,,,,,,,,,5,,72,72
16154,note_on,,14,0,6,,,,,,,,,,,,,,,,5,,72,0
16155,note_on,,1,0,6,,,,,,,,,,,,,,,,5,,74,72
16169,note_on,,14,0,6,,,,,,,,,,,,,,,,5,,74,0
16170,note_on,,1,0,6,,,,,,,,,,,,,,,,5,,70,72
16199,note_on,,0,0,10,,,,,,,,,,,,,,,,15,,55,0
16199,note_on,,0,0,10,,,,,,,,,,,,,,,,15,,67,0
16199,note_on,,119,0,9,,,,,,,,,,,,,,,,13,,52,0
16199,note_on,,29,0,6,,,,,,,,,,,,,,,,5,,70,0
16199,note_on,,119,0,10,,,,,,,,,,,,,,,,15,,52,0
16200,note_on,,1,0,9,,,,,,,,,,,,,,,,13,,48,48
16200,note_on,,1,0,10,,,,,,,,,,,,,,,,15,,48,48
16200,note_on,,0,0,10,,,,,,,,,,,,,,,,15,,76,48
16200,note_on,,0,0,10,,,,,,,,,,,,,,,,15,,72,48
16200,note_on,,0,0,10,,,,,,,,,,,,,,,,15,,67,48
16200,note_on,,1,0,6,,,,,,,,,,,,,,,,5,,72,72
16229,note_on,,29,0,6,,,,,,,,,,,,,,,,5,,72,0
16230,note_on,,1,0,6,,,,,,,,,,,,,,,,5,,70,72
16244,note_on,,14,0,6,,,,,,,,,,,,,,,,5,,70,0
16245,note_on,,1,0,6,,,,,,,,,,,,,,,,5,,72,72
16259,note_on,,14,0,6,,,,,,,,,,,,,,,,5,,72,0
16260,note_on,,1,0,6,,,,,,,,,,,,,,,,5,,70,72
16274,note_on,,14,0,6,,,,,,,,,,,,,,,,5,,70,0
16275,note_on,,1,0,6,,,,,,,,,,,,,,,,5,,72,72
16289,note_on,,14,0,6,,,,,,,,,,,,,,,,5,,72,0
16290,note_on,,1,0,6,,,,,,,,,,,,,,,,5,,69,72
16319,note_on,,119,0,9,,,,,,,,,,,,,,,,13,,48,0
16319,note_on,,29,0,6,,,,,,,,,,,,,,,,5,,69,0
16319,note_on,,0,0,10,,,,,,,,,,,,,,,,15,,76,0
16319,note_on,,0,0,10,,,,,,,,,,,,,,,,15,,72,0
16319,note_on,,0,0,10,,,,,,,,,,,,,,,,15,,67,0
16319,note_on,,119,0,10,,,,,,,,,,,,,,,,15,,48,0
16320,note_on,,0,0,10,,,,,,,,,,,,,,,,15,,77,48
16320,note_on,,0,0,10,,,,,,,,,,,,,,,,15,,72,48
16320,note_on,,1,0,6,,,,,,,,,,,,,,,,5,,70,72
16320,note_on,,0,0,10,,,,,,,,,,,,,,,,15,,65,48
16320,note_on,,1,0,9,,,,,,,,,,,,,,,,13,,53,48
16320,note_on,,1,0,10,,,,,,,,,,,,,,,,15,,53,48
16349,note_on,,29,0,6,,,,,,,,,,,,,,,,5,,70,0
16350,note_on,,1,0,6,,,,,,,,,,,,,,,,5,,69,72
16364,note_on,,14,0,6,,,,,,,,,,,,,,,,5,,69,0
16365,note_on,,1,0,6,,,,,,,,,,,,,,,,5,,70,72
16379,note_on,,14,0,6,,,,,,,,,,,,,,,,5,,70,0
16380,note_on,,1,0,6,,,,,,,,,,,,,,,,5,,69,72
16394,note_on,,14,0,6,,,,,,,,,,,,,,,,5,,69,0
16395,note_on,,1,0,6,,,,,,,,,,,,,,,,5,,70,72
16409,note_on,,14,0,6,,,,,,,,,,,,,,,,5,,70,0
16410,note_on,,1,0,6,,,,,,,,,,,,,,,,5,,67,72
16439,note_on,,29,0,6,,,,,,,,,,,,,,,,5,,67,0
16439,note_on,,119,0,10,,,,,,,,,,,,,,,,15,,53,0
16439,note_on,,119,0,9,,,,,,,,,,,,,,,,13,,53,0
16439,note_on,,0,0,10,,,,,,,,,,,,,,,,15,,72,0
16439,note_on,,0,0,10,,,,,,,,,,,,,,,,15,,77,0
16439,note_on,,0,0,10,,,,,,,,,,,,,,,,15,,65,0
16440,note_on,,0,0,10,,,,,,,,,,,,,,,,15,,64,48
16440,note_on,,0,0,10,,,,,,,,,,,,,,,,15,,72,48
16440,note_on,,1,0,10,,,,,,,,,,,,,,,,15,,60,48
16440,note_on,,1,0,6,,,,,,,,,,,,,,,,5,,69,72
16440,note_on,,1,0,9,,,,,,,,,,,,,,,,13,,60,48
16469,note_on,,29,0,6,,,,,,,,,,,,,,,,5,,69,0
16470,note_on,,1,0,6,,,,,,,,,,,,,,,,5,,67,72
16484,note_on,,14,0,6,,,,,,,,,,,,,,,,5,,67,0
16485,note_on,,1,0,6,,,,,,,,,,,,,,,,5,,69,72
16499,note_on,,14,0,6,,,,,,,,,,,,,,,,5,,69,0
16500,note_on,,1,0,6,,,,,,,,,,,,,,,,5,,67,72
16514,note_on,,14,0,6,,,,,,,,,,,,,,,,5,,67,0
16515,note_on,,1,0,6,,,,,,,,,,,,,,,,5,,69,72
16529,note_on,,14,0,6,,,,,,,,,,,,,,,,5,,69,0
16530,note_on,,1,0,6,,,,,,,,,,,,,,,,5,,65,72
16559,note_on,,119,0,9,,,,,,,,,,,,,,,,13,,60,0
16559,note_on,,119,0,10,,,,,,,,,,,,,,,,15,,60,0
16559,note_on,,0,0,10,,,,,,,,,,,,,,,,15,,72,0
16559,note_on,,0,0,10,,,,,,,,,,,,,,,,15,,64,0
16559,note_on,,29,0,6,,,,,,,,,,,,,,,,5,,65,0
16560,note_on,,1,0,10,,,,,,,,,,,,,,,,15,,62,48
16560,note_on,,0,0,10,,,,,,,,,,,,,,,,15,,65,48
16560,note_on,,1,0,6,,,,,,,,,,,,,,,,5,,65,72
16560,note_on,,0,0,10,,,,,,,,,,,,,,,,15,,69,48
16560,note_on,,1,0,9,,,,,,,,,,,,,,,,13,,62,48
16619,note_on,,59,0,6,,,,,,,,,,,,,,,,5,,65,0
16620,note_on,,1,0,6,,,,,,,,,,,,,,,,5,,67,72
16649,note_on,,29,0,6,,,,,,,,,,,,,,,,5,,67,0
16650,note_on,,1,0,6,,,,,,,,,,,,,,,,5,,69,72
16679,note_on,,119,0,9,,,,,,,,,,,,,,,,13,,62,0
16679,note_on,,29,0,6,,,,,,,,,,,,,,,,5,,69,0
16679,note_on,,119,0,10,,,,,,,,,,,,,,,,15,,62,0
16679,note_on,,0,0,10,,,,,,,,,,,,,,,,15,,69,0
16679,note_on,,0,0,10,,,,,,,,,,,,,,,,15,,65,0
16680,note_on,,1,0,6,,,,,,,,,,,,,,,,5,,72,72
16680,note_on,,0,0,10,,,,,,,,,,,,,,,,15,,70,48
16680,note_on,,0,0,10,,,,,,,,,,,,,,,,15,,74,48
16680,note_on,,1,0,10,,,,,,,,,,,,,,,,15,,58,48
16680,note_on,,1,0,9,,,,,,,,,,,,,,,,13,,58,48
16680,note_on,,0,0,10,,,,,,,,,,,,,,,,15,,65,48
16694,note_on,,14,0,6,,,,,,,,,,,,,,,,5,,72,0
16695,note_on,,1,0,6,,,,,,,,,,,,,,,,5,,70,72
16739,note_on,,44,0,6,,,,,,,,,,,,,,,,5,,70,0
16740,note_on,,1,0,6,,,,,,,,,,,,,,,,5,,69,72
16754,note_on,,14,0,6,,,,,,,,,,,,,,,,5,,69,0
16755,note_on,,1,0,6,,,,,,,,,,,,,,,,5,,67,72
16799,note_on,,0,0,10,,,,,,,,,,,,,,,,15,,65,0
16799,note_on,,0,0,10,,,,,,,,,,,,,,,,15,,70,0
16799,note_on,,0,0,10,,,,,,,,,,,,,,,,15,,74,0
16799,note_on,,44,0,6,,,,,,,,,,,,,,,,5,,67,0
16799,note_on,,119,0,10,,,,,,,,,,,,,,,,15,,58,0
16799,note_on,,119,0,9,,,,,,,,,,,,,,,,13,,58,0
16800,note_on,,0,0,10,,,,,,,,,,,,,,,,15,,64,48
16800,note_on,,1,0,6,,,,,,,,,,,,,,,,5,,65,72
16800,note_on,,0,0,10,,,,,,,,,,,,,,,,15,,67,48
16800,note_on,,1,0,9,,,,,,,,,,,,,,,,13,,60,48
16800,note_on,,0,0,10,,,,,,,,,,,,,,,,15,,72,48
16800,note_on,,1,0,10,,,,,,,,,,,,,,,,15,,60,48
16829,note_on,,29,0,6,,,,,,,,,,,,,,,,5,,65,0
16830,note_on,,1,0,6,,,,,,,,,,,,,,,,5,,64,72
16844,note_on,,14,0,6,,,,,,,,,,,,,,,,5,,64,0
16845,note_on,,1,0,6,,,,,,,,,,,,,,,,5,,65,72
16859,note_on,,14,0,6,,,,,,,,,,,,,,,,5,,65,0
16860,note_on,,1,0,6,,,,,,,,,,,,,,,,5,,64,72
16874,note_on,,14,0,6,,,,,,,,,,,,,,,,5,,64,0
16875,note_on,,1,0,6,,,,,,,,,,,,,,,,5,,65,72
16889,note_on,,14,0,6,,,,,,,,,,,,,,,,5,,65,0
16890,note_on,,1,0,6,,,,,,,,,,,,,,,,5,,64,72
16904,note_on,,14,0,6,,,,,,,,,,,,,,,,5,,64,0
16905,note_on,,1,0,6,,,,,,,,,,,,,,,,5,,65,72
16919,note_on,,119,0,9,,,,,,,,,,,,,,,,13,,60,0
16919,note_on,,119,0,10,,,,,,,,,,,,,,,,15,,60,0
16919,note_on,,0,0,10,,,,,,,,,,,,,,,,15,,72,0
16919,note_on,,14,0,6,,,,,,,,,,,,,,,,5,,65,0
16919,note_on,,0,0,10,,,,,,,,,,,,,,,,15,,67,0
16919,note_on,,0,0,10,,,,,,,,,,,,,,,,15,,64,0
16920,note_on,,0,0,10,,,,,,,,,,,,,,,,15,,64,48
16920,note_on,,0,0,10,,,,,,,,,,,,,,,,15,,60,48
16920,note_on,,1,0,9,,,,,,,,,,,,,,,,13,,48,48
16920,note_on,,0,0,10,,,,,,,,,,,,,,,,15,,70,48
16920,note_on,,1,0,10,,,,,,,,,,,,,,,,15,,48,48
16920,note_on,,1,0,6,,,,,,,,,,,,,,,,5,,64,72
16934,note_on,,14,0,6,,,,,,,,,,,,,,,,5,,64,0
16935,note_on,,1,0,6,,,,,,,,,,,,,,,,5,,65,72
16949,note_on,,14,0,6,,,,,,,,,,,,,,,,5,,65,0
16950,note_on,,1,0,6,,,,,,,,,,,,,,,,5,,64,72
16964,note_on,,14,0,6,,,,,,,,,,,,,,,,5,,64,0
16965,note_on,,1,0,6,,,,,,,,,,,,,,,,5,,65,72
16979,note_on,,14,0,6,,,,,,,,,,,,,,,,5,,65,0
16980,note_on,,1,0,6,,,,,,,,,,,,,,,,5,,65,72
17039,note_on,,59,0,6,,,,,,,,,,,,,,,,5,,65,0
17039,note_on,,119,0,9,,,,,,,,,,,,,,,,13,,48,0
17039,note_on,,0,0,10,,,,,,,,,,,,,,,,15,,64,0
17039,note_on,,0,0,10,,,,,,,,,,,,,,,,15,,70,0
17039,note_on,,119,0,10,,,,,,,,,,,,,,,,15,,48,0
17039,note_on,,0,0,10,,,,,,,,,,,,,,,,15,,60,0
17040,note_on,,1,0,6,,,,,,,,,,,,,,,,5,,65,72
17040,note_on,,0,0,10,,,,,,,,,,,,,,,,15,,65,48
17040,note_on,,1,0,10,,,,,,,,,,,,,,,,15,,41,48
17040,note_on,,1,0,9,,,,,,,,,,,,,,,,13,,41,48
17040,note_on,,0,0,10,,,,,,,,,,,,,,,,15,,69,48
17040,note_on,,0,0,10,,,,,,,,,,,,,,,,15,,60,48
17100,note_on,,1261,0,8,,,,,,,,,,,,,,,,11,,72,72
17100,note_on,,1261,0,7,,,,,,,,,,,,,,,,10,,72,72
17159,note_on,,119,0,9,,,,,,,,,,,,,,,,13,,41,0
17159,note_on,,59,0,8,,,,,,,,,,,,,,,,11,,72,0
17159,note_on,,59,0,7,,,,,,,,,,,,,,,,10,,72,0
17159,note_on,,119,0,10,,,,,,,,,,,,,,,,15,,41,0
17160,note_on,,1,0,8,,,,,,,,,,,,,,,,11,,77,72
17160,note_on,,1,0,9,,,,,,,,,,,,,,,,13,,53,72
17160,note_on,,1441,0,5,,,,,,,,,,,,,,,,2,,53,72
17160,note_on,,1,0,10,,,,,,,,,,,,,,,,15,,53,72
17160,note_on,,1,0,7,,,,,,,,,,,,,,,,10,,77,72
17219,note_on,,59,0,8,,,,,,,,,,,,,,,,11,,77,0
17219,note_on,,59,0,7,,,,,,,,,,,,,,,,10,,77,0
17220,note_on,,1,0,7,,,,,,,,,,,,,,,,10,,72,72
17220,note_on,,1,0,8,,,,,,,,,,,,,,,,11,,72,72
17279,note_on,,59,0,8,,,,,,,,,,,,,,,,11,,72,0
17279,note_on,,59,0,7,,,,,,,,,,,,,,,,10,,72,0
17279,note_on,,0,0,10,,,,,,,,,,,,,,,,15,,60,0
17279,note_on,,239,0,6,,,,,,,,,,,,,,,,5,,65,0
17279,note_on,,119,0,10,,,,,,,,,,,,,,,,15,,69,0
17279,note_on,,0,0,10,,,,,,,,,,,,,,,,15,,65,0
17280,note_on,,0,0,10,,,,,,,,,,,,,,,,15,,60,72
17280,note_on,,1,0,8,,,,,,,,,,,,,,,,11,,79,72
17280,note_on,,1,0,7,,,,,,,,,,,,,,,,10,,79,72
17280,note_on,,1,0,10,,,,,,,,,,,,,,,,15,,55,72
17280,note_on,,0,0,10,,,,,,,,,,,,,,,,15,,67,72
17399,note_on,,239,0,9,,,,,,,,,,,,,,,,13,,53,0
17399,note_on,,239,0,5,,,,,,,,,,,,,,,,2,,53,0
17399,note_on,,119,0,8,,,,,,,,,,,,,,,,11,,79,0
17399,note_on,,119,0,10,,,,,,,,,,,,,,,,15,,53,0
17399,note_on,,0,0,10,,,,,,,,,,,,,,,,15,,67,0
17399,note_on,,0,0,10,,,,,,,,,,,,,,,,15,,60,0
17399,note_on,,119,0,7,,,,,,,,,,,,,,,,10,,79,0
17400,note_on,,0,0,10,,,,,,,,,,,,,,,,15,,67,72
17400,note_on,,1,0,10,,,,,,,,,,,,,,,,15,,52,72
17400,note_on,,0,0,10,,,,,,,,,,,,,,,,15,,72,72
17400,note_on,,1,0,5,,,,,,,,,,,,,,,,2,,52,72
17400,note_on,,1,0,9,,,,,,,,,,,,,,,,13,,52,72
17400,note_on,,0,0,10,,,,,,,,,,,,,,,,15,,64,72
17460,note_on,,61,0,7,,,,,,,,,,,,,,,,10,,72,72
17460,note_on,,61,0,8,,,,,,,,,,,,,,,,11,,72,72
17519,note_on,,0,0,10,,,,,,,,,,,,,,,,15,,52,0
17519,note_on,,119,0,9,,,,,,,,,,,,,,,,13,,52,0
17519,note_on,,59,0,8,,,,,,,,,,,,,,,,11,,72,0
17519,note_on,,0,0,10,,,,,,,,,,,,,,,,15,,72,0
17519,note_on,,0,0,10,,,,,,,,,,,,,,,,15,,67,0
17519,note_on,,0,0,10,,,,,,,,,,,,,,,,15,,64,0
17519,note_on,,119,0,10,,,,,,,,,,,,,,,,15,,55,0
17519,note_on,,59,0,7,,,,,,,,,,,,,,,,10,,72,0
17519,note_on,,119,0,5,,,,,,,,,,,,,,,,2,,52,0
17520,note_on,,1,0,5,,,,,,,,,,,,,,,,2,,53,72
17520,note_on,,1,0,7,,,,,,,,,,,,,,,,10,,81,72
17520,note_on,,1,0,9,,,,,,,,,,,,,,,,13,,53,72
17520,note_on,,1,0,8,,,,,,,,,,,,,,,,11,,81,72
17520,note_on,,1,0,10,,,,,,,,,,,,,,,,15,,53,72
17520,note_on,,0,0,10,,,,,,,,,,,,,,,,15,,69,72
17520,note_on,,0,0,10,,,,,,,,,,,,,,,,15,,65,72
17520,note_on,,0,0,10,,,,,,,,,,,,,,,,15,,60,72
17520,note_on,,0,0,10,,,,,,,,,,,,,,,,15,,57,72
17579,note_on,,59,0,8,,,,,,,,,,,,,,,,11,,81,0
17579,note_on,,59,0,7,,,,,,,,,,,,,,,,10,,81,0
17580,note_on,,1,0,8,,,,,,,,,,,,,,,,11,,77,72
17580,note_on,,1,0,7,,,,,,,,,,,,,,,,10,,77,72
17609,note_on,,29,0,7,,,,,,,,,,,,,,,,10,,77,0
17609,note_on,,29,0,8,,,,,,,,,,,,,,,,11,,77,0
17610,note_on,,1,0,8,,,,,,,,,,,,,,,,11,,79,72
17610,note_on,,1,0,7,,,,,,,,,,,,,,,,10,,79,72
17639,note_on,,119,0,5,,,,,,,,,,,,,,,,2,,53,0
17639,note_on,,29,0,8,,,,,,,,,,,,,,,,11,,79,0
17639,note_on,,119,0,10,,,,,,,,,,,,,,,,15,,53,0
17639,note_on,,119,0,9,,,,,,,,,,,,,,,,13,,53,0
17639,note_on,,0,0,10,,,,,,,,,,,,,,,,15,,60,0
17639,note_on,,0,0,10,,,,,,,,,,,,,,,,15,,65,0
17639,note_on,,0,0,10,,,,,,,,,,,,,,,,15,,69,0
17639,note_on,,0,0,10,,,,,,,,,,,,,,,,15,,57,0
17639,note_on,,29,0,7,,,,,,,,,,,,,,,,10,,79,0
17640,note_on,,1,0,7,,,,,,,,,,,,,,,,10,,81,72
17640,note_on,,1,0,5,,,,,,,,,,,,,,,,2,,50,72
17640,note_on,,1,0,9,,,,,,,,,,,,,,,,13,,50,72
17640,note_on,,0,0,10,,,,,,,,,,,,,,,,15,,53,72
17640,note_on,,0,0,10,,,,,,,,,,,,,,,,15,,65,72
17640,note_on,,1,0,8,,,,,,,,,,,,,,,,11,,81,72
17640,note_on,,0,0,10,,,,,,,,,,,,,,,,15,,74,72
17640,note_on,,1,0,10,,,,,,,,,,,,,,,,15,,50,72
17699,note_on,,59,0,7,,,,,,,,,,,,,,,,10,,81,0
17699,note_on,,59,0,8,,,,,,,,,,,,,,,,11,,81,0
17700,note_on,,1,0,7,,,,,,,,,,,,,,,,10,,84,72
17700,note_on,,1,0,8,,,,,,,,,,,,,,,,11,,84,72
17729,note_on,,29,0,8,,,,,,,,,,,,,,,,11,,84,0
17729,note_on,,29,0,7,,,,,,,,,,,,,,,,10,,84,0
17730,note_on,,1,0,8,,,,,,,,,,,,,,,,11,,83,72
17730,note_on,,1,0,7,,,,,,,,,,,,,,,,10,,83,72
17759,note_on,,0,0,10,,,,,,,,,,,,,,,,15,,65,0
17759,note_on,,0,0,10,,,,,,,,,,,,,,,,15,,53,0
17759,note_on,,29,0,8,,,,,,,,,,,,,,,,11,,83,0
17759,note_on,,119,0,9,,,,,,,,,,,,,,,,13,,50,0
17759,note_on,,119,0,10,,,,,,,,,,,,,,,,15,,50,0
17759,note_on,,0,0,10,,,,,,,,,,,,,,,,15,,74,0
17759,note_on,,119,0,5,,,,,,,,,,,,,,,,2,,50,0
17759,note_on,,29,0,7,,,,,,,,,,,,,,,,10,,83,0
17760,note_on,,0,0,10,,,,,,,,,,,,,,,,15,,55,72
17760,note_on,,0,0,10,,,,,,,,,,,,,,,,15,,64,72
17760,note_on,,1,0,10,,,,,,,,,,,,,,,,15,,48,72
17760,note_on,,1,0,9,,,,,,,,,,,,,,,,13,,48,72
17760,note_on,,0,0,10,,,,,,,,,,,,,,,,15,,60,72
17760,note_on,,1,0,8,,,,,,,,,,,,,,,,11,,84,72
17760,note_on,,1,0,7,,,,,,,,,,,,,,,,10,,84,72
17760,note_on,,1,0,5,,,,,,,,,,,,,,,,2,,48,72
17760,note_on,,0,0,10,,,,,,,,,,,,,,,,15,,67,72
17819,note_on,,59,0,8,,,,,,,,,,,,,,,,11,,84,0
17819,note_on,,59,0,7,,,,,,,,,,,,,,,,10,,84,0
17820,note_on,,1,0,8,,,,,,,,,,,,,,,,11,,72,72
17820,note_on,,1,0,7,,,,,,,,,,,,,,,,10,,72,72
17879,note_on,,119,0,9,,,,,,,,,,,,,,,,13,,48,0
17879,note_on,,119,0,5,,,,,,,,,,,,,,,,2,,48,0
17879,note_on,,119,0,10,,,,,,,,,,,,,,,,15,,48,0
17879,note_on,,59,0,8,,,,,,,,,,,,,,,,11,,72,0
17879,note_on,,59,0,7,,,,,,,,,,,,,,,,10,,72,0
17880,note_on,,1,0,9,,,,,,,,,,,,,,,,13,,46,72
17880,note_on,,1,0,5,,,,,,,,,,,,,,,,2,,46,72
17880,note_on,,1,0,10,,,,,,,,,,,,,,,,15,,46,72
17940,note_on,,61,0,7,,,,,,,,,,,,,,,,10,,60,72
17940,note_on,,61,0,8,,,,,,,,,,,,,,,,11,,60,72
17999,note_on,,119,0,5,,,,,,,,,,,,,,,,2,,46,0
17999,note_on,,0,0,10,,,,,,,,,,,,,,,,15,,64,0
17999,note_on,,0,0,10,,,,,,,,,,,,,,,,15,,60,0
17999,note_on,,0,0,10,,,,,,,,,,,,,,,,15,,55,0
17999,note_on,,59,0,7,,,,,,,,,,,,,,,,10,,60,0
17999,note_on,,119,0,9,,,,,,,,,,,,,,,,13,,46,0
17999,note_on,,59,0,8,,,,,,,,,,,,,,,,11,,60,0
17999,note_on,,119,0,10,,,,,,,,,,,,,,,,15,,67,0
17999,note_on,,0,0,10,,,,,,,,,,,,,,,,15,,46,0
18000,note_on,,1,0,10,,,,,,,,,,,,,,,,15,,45,72
18000,note_on,,0,0,10,,,,,,,,,,,,,,,,15,,65,72
18000,note_on,,0,0,10,,,,,,,,,,,,,,,,15,,60,72
18000,note_on,,0,0,10,,,,,,,,,,,,,,,,15,,57,72
18000,note_on,,1,0,9,,,,,,,,,,,,,,,,13,,45,72
18000,note_on,,1,0,5,,,,,,,,,,,,,,,,2,,45,72
18000,note_on,,1,0,8,,,,,,,,,,,,,,,,11,,72,72
18000,note_on,,1,0,7,,,,,,,,,,,,,,,,10,,72,72
18029,note_on,,29,0,7,,,,,,,,,,,,,,,,10,,72,0
18029,note_on,,29,0,8,,,,,,,,,,,,,,,,11,,72,0
18030,note_on,,1,0,7,,,,,,,,,,,,,,,,10,,70,72
18030,note_on,,1,0,8,,,,,,,,,,,,,,,,11,,70,72
18059,note_on,,29,0,8,,,,,,,,,,,,,,,,11,,70,0
18059,note_on,,29,0,7,,,,,,,,,,,,,,,,10,,70,0
18060,note_on,,1,0,8,,,,,,,,,,,,,,,,11,,72,72
18060,note_on,,1,0,7,,,,,,,,,,,,,,,,10,,72,72
18089,note_on,,29,0,8,,,,,,,,,,,,,,,,11,,72,0
18089,note_on,,29,0,7,,,,,,,,,,,,,,,,10,,72,0
18090,note_on,,1,0,8,,,,,,,,,,,,,,,,11,,69,72
18090,note_on,,1,0,7,,,,,,,,,,,,,,,,10,,69,72
18119,note_on,,0,0,10,,,,,,,,,,,,,,,,15,,57,0
18119,note_on,,29,0,7,,,,,,,,,,,,,,,,10,,69,0
18119,note_on,,119,0,9,,,,,,,,,,,,,,,,13,,45,0
18119,note_on,,0,0,10,,,,,,,,,,,,,,,,15,,60,0
18119,note_on,,0,0,10,,,,,,,,,,,,,,,,15,,65,0
18119,note_on,,119,0,10,,,,,,,,,,,,,,,,15,,45,0
18119,note_on,,119,0,5,,,,,,,,,,,,,,,,2,,45,0
18119,note_on,,29,0,8,,,,,,,,,,,,,,,,11,,69,0
18120,note_on,,1,0,9,,,,,,,,,,,,,,,,13,,40,72
18120,note_on,,1,0,7,,,,,,,,,,,,,,,,10,,70,72
18120,note_on,,1,0,5,,,,,,,,,,,,,,,,2,,40,72
18120,note_on,,1,0,8,,,,,,,,,,,,,,,,11,,70,72
18120,note_on,,0,0,10,,,,,,,,,,,,,,,,15,,55,72
18120,note_on,,0,0,10,,,,,,,,,,,,,,,,15,,60,72
18120,note_on,,0,0,10,,,,,,,,,,,,,,,,15,,67,72
18120,note_on,,1,0,10,,,,,,,,,,,,,,,,15,,40,72
18149,note_on,,29,0,8,,,,,,,,,,,,,,,,11,,70,0
18149,note_on,,29,0,7,,,,,,,,,,,,,,,,10,,70,0
18150,note_on,,1,0,7,,,,,,,,,,,,,,,,10,,69,72
18150,note_on,,1,0,8,,,,,,,,,,,,,,,,11,,69,72
18179,note_on,,29,0,8,,,,,,,,,,,,,,,,11,,69,0
18179,note_on,,29,0,7,,,,,,,,,,,,,,,,10,,69,0
18180,note_on,,1,0,8,,,,,,,,,,,,,,,,11,,70,72
18180,note_on,,1,0,7,,,,,,,,,,,,,,,,10,,70,72
18209,note_on,,29,0,8,,,,,,,,,,,,,,,,11,,70,0
18209,note_on,,29,0,7,,,,,,,,,,,,,,,,10,,70,0
18210,note_on,,1,0,8,,,,,,,,,,,,,,,,11,,67,72
18210,note_on,,1,0,7,,,,,,,,,,,,,,,,10,,67,72
18239,note_on,,29,0,7,,,,,,,,,,,,,,,,10,,67,0
18239,note_on,,29,0,8,,,,,,,,,,,,,,,,11,,67,0
18239,note_on,,119,0,9,,,,,,,,,,,,,,,,13,,40,0
18239,note_on,,0,0,10,,,,,,,,,,,,,,,,15,,67,0
18239,note_on,,0,0,10,,,,,,,,,,,,,,,,15,,60,0
18239,note_on,,0,0,10,,,,,,,,,,,,,,,,15,,55,0
18239,note_on,,119,0,5,,,,,,,,,,,,,,,,2,,40,0
18239,note_on,,119,0,10,,,,,,,,,,,,,,,,15,,40,0
18240,note_on,,1,0,10,,,,,,,,,,,,,,,,15,,41,72
18240,note_on,,0,0,10,,,,,,,,,,,,,,,,15,,69,72
18240,note_on,,0,0,10,,,,,,,,,,,,,,,,15,,60,72
18240,note_on,,0,0,10,,,,,,,,,,,,,,,,15,,65,72
18240,note_on,,1,0,5,,,,,,,,,,,,,,,,2,,41,72
18240,note_on,,1,0,9,,,,,,,,,,,,,,,,13,,41,72
18240,note_on,,1,0,8,,,,,,,,,,,,,,,,11,,69,72
18240,note_on,,1,0,7,,,,,,,,,,,,,,,,10,,69,72
18269,note_on,,29,0,7,,,,,,,,,,,,,,,,10,,69,0
18269,note_on,,29,0,8,,,,,,,,,,,,,,,,11,,69,0
18270,note_on,,1,0,8,,,,,,,,,,,,,,,,11,,67,72
18270,note_on,,1,0,7,,,,,,,,,,,,,,,,10,,67,72
18299,note_on,,29,0,7,,,,,,,,,,,,,,,,10,,67,0
18299,note_on,,29,0,8,,,,,,,,,,,,,,,,11,,67,0
18300,note_on,,1,0,7,,,,,,,,,,,,,,,,10,,69,72
18300,note_on,,1,0,8,,,,,,,,,,,,,,,,11,,69,72
18329,note_on,,29,0,8,,,,,,,,,,,,,,,,11,,69,0
18329,note_on,,29,0,7,,,,,,,,,,,,,,,,10,,69,0
18330,note_on,,1,0,7,,,,,,,,,,,,,,,,10,,65,72
18330,note_on,,1,0,8,,,,,,,,,,,,,,,,11,,65,72
18359,note_on,,0,0,10,,,,,,,,,,,,,,,,15,,60,0
18359,note_on,,0,0,10,,,,,,,,,,,,,,,,15,,65,0
18359,note_on,,0,0,10,,,,,,,,,,,,,,,,15,,69,0
18359,note_on,,119,0,9,,,,,,,,,,,,,,,,13,,41,0
18359,note_on,,119,0,5,,,,,,,,,,,,,,,,2,,41,0
18359,note_on,,29,0,7,,,,,,,,,,,,,,,,10,,65,0
18359,note_on,,119,0,10,,,,,,,,,,,,,,,,15,,41,0
18359,note_on,,29,0,8,,,,,,,,,,,,,,,,11,,65,0
18360,note_on,,1,0,5,,,,,,,,,,,,,,,,2,,48,72
18360,note_on,,0,0,10,,,,,,,,,,,,,,,,15,,55,72
18360,note_on,,1,0,8,,,,,,,,,,,,,,,,11,,67,72
18360,note_on,,1,0,9,,,,,,,,,,,,,,,,13,,48,72
18360,note_on,,1,0,10,,,,,,,,,,,,,,,,15,,48,72
18360,note_on,,1,0,7,,,,,,,,,,,,,,,,10,,67,72
18360,note_on,,0,0,10,,,,,,,,,,,,,,,,15,,64,72
18360,note_on,,0,0,10,,,,,,,,,,,,,,,,15,,60,72
18389,note_on,,29,0,7,,,,,,,,,,,,,,,,10,,67,0
18389,note_on,,29,0,8,,,,,,,,,,,,,,,,11,,67,0
18390,note_on,,1,0,8,,,,,,,,,,,,,,,,11,,65,72
18390,note_on,,1,0,7,,,,,,,,,,,,,,,,10,,65,72
18419,note_on,,29,0,7,,,,,,,,,,,,,,,,10,,65,0
18419,note_on,,29,0,8,,,,,,,,,,,,,,,,11,,65,0
18420,note_on,,1,0,7,,,,,,,,,,,,,,,,10,,67,72
18420,note_on,,1,0,8,,,,,,,,,,,,,,,,11,,67,72
18449,note_on,,29,0,8,,,,,,,,,,,,,,,,11,,67,0
18449,note_on,,29,0,7,,,,,,,,,,,,,,,,10,,67,0
18450,note_on,,1,0,7,,,,,,,,,,,,,,,,10,,64,72
18450,note_on,,1,0,8,,,,,,,,,,,,,,,,11,,64,72
18479,note_on,,0,0,10,,,,,,,,,,,,,,,,15,,55,0
18479,note_on,,0,0,10,,,,,,,,,,,,,,,,15,,60,0
18479,note_on,,119,0,10,,,,,,,,,,,,,,,,15,,64,0
18479,note_on,,29,0,7,,,,,,,,,,,,,,,,10,,64,0
18479,note_on,,29,0,8,,,,,,,,,,,,,,,,11,,64,0
18480,note_on,,1,0,8,,,,,,,,,,,,,,,,11,,65,72
18480,note_on,,0,0,10,,,,,,,,,,,,,,,,15,,62,72
18480,note_on,,1,0,10,,,,,,,,,,,,,,,,15,,65,72
18480,note_on,,1,0,7,,,,,,,,,,,,,,,,10,,65,72
18480,note_on,,0,0,10,,,,,,,,,,,,,,,,15,,57,72
18539,note_on,,59,0,8,,,,,,,,,,,,,,,,11,,65,0
18539,note_on,,59,0,7,,,,,,,,,,,,,,,,10,,65,0
18540,note_on,,1,0,8,,,,,,,,,,,,,,,,11,,62,72
18540,note_on,,1,0,7,,,,,,,,,,,,,,,,10,,62,72
18599,note_on,,59,0,8,,,,,,,,,,,,,,,,11,,62,0
18599,note_on,,119,0,10,,,,,,,,,,,,,,,,15,,48,0
18599,note_on,,239,0,9,,,,,,,,,,,,,,,,13,,48,0
18599,note_on,,0,0,10,,,,,,,,,,,,,,,,15,,62,0
18599,note_on,,59,0,7,,,,,,,,,,,,,,,,10,,62,0
18599,note_on,,239,0,5,,,,,,,,,,,,,,,,2,,48,0
18599,note_on,,0,0,10,,,,,,,,,,,,,,,,15,,57,0
18600,note_on,,1,0,10,,,,,,,,,,,,,,,,15,,46,72
18600,note_on,,0,0,10,,,,,,,,,,,,,,,,15,,58,72
18600,note_on,,0,0,10,,,,,,,,,,,,,,,,15,,55,72
18600,note_on,,1,0,9,,,,,,,,,,,,,,,,13,,46,72
18600,note_on,,1,0,7,,,,,,,,,,,,,,,,10,,67,72
18600,note_on,,1,0,8,,,,,,,,,,,,,,,,11,,67,72
18600,note_on,,1,0,5,,,,,,,,,,,,,,,,2,,46,72
18659,note_on,,59,0,7,,,,,,,,,,,,,,,,10,,67,0
18659,note_on,,59,0,8,,,,,,,,,,,,,,,,11,,67,0
18660,note_on,,1,0,7,,,,,,,,,,,,,,,,10,,65,72
18660,note_on,,1,0,8,,,,,,,,,,,,,,,,11,,65,72
18719,note_on,,119,0,10,,,,,,,,,,,,,,,,15,,65,0
18719,note_on,,59,0,7,,,,,,,,,,,,,,,,10,,65,0
18719,note_on,,0,0,10,,,,,,,,,,,,,,,,15,,55,0
18719,note_on,,0,0,10,,,,,,,,,,,,,,,,15,,58,0
18719,note_on,,59,0,8,,,,,,,,,,,,,,,,11,,65,0
18720,note_on,,1,0,7,,,,,,,,,,,,,,,,10,,64,72
18720,note_on,,1,0,10,,,,,,,,,,,,,,,,15,,67,72
18720,note_on,,1,0,8,,,,,,,,,,,,,,,,11,,64,72
18720,note_on,,0,0,10,,,,,,,,,,,,,,,,15,,60,72
18720,note_on,,0,0,10,,,,,,,,,,,,,,,,15,,64,72
18749,note_on,,29,0,7,,,,,,,,,,,,,,,,10,,64,0
18749,note_on,,29,0,8,,,,,,,,,,,,,,,,11,,64,0
18750,note_on,,1,0,7,,,,,,,,,,,,,,,,10,,62,72
18750,note_on,,1,0,8,,,,,,,,,,,,,,,,11,,62,72
18779,note_on,,29,0,7,,,,,,,,,,,,,,,,10,,62,0
18779,note_on,,29,0,8,,,,,,,,,,,,,,,,11,,62,0
18780,note_on,,1,0,7,,,,,,,,,,,,,,,,10,,60,72
18780,note_on,,1,0,8,,,,,,,,,,,,,,,,11,,60,72
18839,note_on,,239,0,9,,,,,,,,,,,,,,,,13,,46,0
18839,note_on,,0,0,10,,,,,,,,,,,,,,,,15,,60,0
18839,note_on,,59,0,7,,,,,,,,,,,,,,,,10,,60,0
18839,note_on,,59,0,8,,,,,,,,,,,,,,,,11,,60,0
18839,note_on,,0,0,10,,,,,,,,,,,,,,,,15,,67,0
18839,note_on,,0,0,10,,,,,,,,,,,,,,,,15,,64,0
18839,note_on,,119,0,10,,,,,,,,,,,,,,,,15,,46,0
18839,note_on,,239,0,5,,,,,,,,,,,,,,,,2,,46,0
18840,note_on,,0,0,10,,,,,,,,,,,,,,,,15,,60,72
18840,note_on,,1,0,10,,,,,,,,,,,,,,,,15,,45,72
18840,note_on,,0,0,10,,,,,,,,,,,,,,,,15,,69,72
18840,note_on,,0,0,10,,,,,,,,,,,,,,,,15,,65,72
18840,note_on,,1,0,9,,,,,,,,,,,,,,,,13,,45,72
18840,note_on,,1,0,5,,,,,,,,,,,,,,,,2,,45,72
18900,note_on,,61,0,8,,,,,,,,,,,,,,,,11,,77,72
18900,note_on,,61,0,7,,,,,,,,,,,,,,,,10,,77,72
18929,note_on,,89,0,5,,,,,,,,,,,,,,,,2,,45,0
18929,note_on,,89,0,9,,,,,,,,,,,,,,,,13,,45,0
18929,note_on,,89,0,10,,,,,,,,,,,,,,,,15,,45,0
18930,note_on,,1,0,9,,,,,,,,,,,,,,,,13,,41,72
18930,note_on,,1,0,5,,,,,,,,,,,,,,,,2,,41,72
18930,note_on,,1,0,10,,,,,,,,,,,,,,,,15,,41,72
18959,note_on,,0,0,10,,,,,,,,,,,,,,,,15,,60,0
18959,note_on,,59,0,7,,,,,,,,,,,,,,,,10,,77,0
18959,note_on,,29,0,9,,,,,,,,,,,,,,,,13,,41,0
18959,note_on,,0,0,10,,,,,,,,,,,,,,,,15,,41,0
18959,note_on,,29,0,5,,,,,,,,,,,,,,,,2,,41,0
18959,note_on,,59,0,8,,,,,,,,,,,,,,,,11,,77,0
18959,note_on,,29,0,10,,,,,,,,,,,,,,,,15,,65,0
18960,note_on,,1,0,8,,,,,,,,,,,,,,,,11,,76,72
18960,note_on,,1,0,7,,,,,,,,,,,,,,,,10,,76,72
18960,note_on,,1,0,5,,,,,,,,,,,,,,,,2,,48,72
18960,note_on,,0,0,10,,,,,,,,,,,,,,,,15,,60,72
18960,note_on,,0,0,10,,,,,,,,,,,,,,,,15,,64,72
18960,note_on,,1,0,9,,,,,,,,,,,,,,,,13,,48,72
18960,note_on,,1,0,10,,,,,,,,,,,,,,,,15,,48,72
19019,note_on,,59,0,7,,,,,,,,,,,,,,,,10,,76,0
19019,note_on,,59,0,8,,,,,,,,,,,,,,,,11,,76,0
19020,note_on,,1,0,7,,,,,,,,,,,,,,,,10,,69,72
19020,note_on,,1,0,8,,,,,,,,,,,,,,,,11,,69,72
19079,note_on,,0,0,10,,,,,,,,,,,,,,,,15,,60,0
19079,note_on,,119,0,10,,,,,,,,,,,,,,,,15,,69,0
19079,note_on,,119,0,5,,,,,,,,,,,,,,,,2,,48,0
19079,note_on,,0,0,10,,,,,,,,,,,,,,,,15,,48,0
19079,note_on,,0,0,10,,,,,,,,,,,,,,,,15,,64,0
19079,note_on,,59,0,8,,,,,,,,,,,,,,,,11,,69,0
19079,note_on,,59,0,7,,,,,,,,,,,,,,,,10,,69,0
19079,note_on,,119,0,9,,,,,,,,,,,,,,,,13,,48,0
19080,note_on,,1,0,8,,,,,,,,,,,,,,,,11,,67,72
19080,note_on,,1,0,7,,,,,,,,,,,,,,,,10,,67,72
19080,note_on,,1,0,5,,,,,,,,,,,,,,,,2,,46,72
19080,note_on,,1,0,10,,,,,,,,,,,,,,,,15,,46,72
19080,note_on,,0,0,10,,,,,,,,,,,,,,,,15,,67,72
19080,note_on,,0,0,10,,,,,,,,,,,,,,,,15,,62,72
19080,note_on,,1,0,9,,,,,,,,,,,,,,,,13,,46,72
19109,note_on,,29,0,7,,,,,,,,,,,,,,,,10,,67,0
19109,note_on,,29,0,8,,,,,,,,,,,,,,,,11,,67,0
19110,note_on,,1,0,8,,,,,,,,,,,,,,,,11,,70,72
19110,note_on,,1,0,7,,,,,,,,,,,,,,,,10,,70,72
19139,note_on,,29,0,7,,,,,,,,,,,,,,,,10,,70,0
19139,note_on,,29,0,8,,,,,,,,,,,,,,,,11,,70,0
19140,note_on,,1,0,8,,,,,,,,,,,,,,,,11,,69,72
19140,note_on,,1,0,7,,,,,,,,,,,,,,,,10,,69,72
19169,note_on,,29,0,8,,,,,,,,,,,,,,,,11,,69,0
19169,note_on,,29,0,7,,,,,,,,,,,,,,,,10,,69,0
19170,note_on,,1,0,8,,,,,,,,,,,,,,,,11,,67,72
19170,note_on,,1,0,7,,,,,,,,,,,,,,,,10,,67,72
19199,note_on,,0,0,10,,,,,,,,,,,,,,,,15,,67,0
19199,note_on,,0,0,10,,,,,,,,,,,,,,,,15,,62,0
19199,note_on,,119,0,10,,,,,,,,,,,,,,,,15,,46,0
19199,note_on,,29,0,8,,,,,,,,,,,,,,,,11,,67,0
19199,note_on,,29,0,7,,,,,,,,,,,,,,,,10,,67,0
19199,note_on,,119,0,9,,,,,,,,,,,,,,,,13,,46,0
19199,note_on,,119,0,5,,,,,,,,,,,,,,,,2,,46,0
19200,note_on,,1,0,9,,,,,,,,,,,,,,,,13,,45,72
19200,note_on,,1,0,8,,,,,,,,,,,,,,,,11,,72,72
19200,note_on,,0,0,10,,,,,,,,,,,,,,,,15,,60,72
19200,note_on,,0,0,10,,,,,,,,,,,,,,,,15,,69,72
19200,note_on,,0,0,10,,,,,,,,,,,,,,,,15,,72,72
19200,note_on,,1,0,10,,,,,,,,,,,,,,,,15,,45,72
19200,note_on,,1,0,5,,,,,,,,,,,,,,,,2,,45,72
19200,note_on,,1,0,7,,,,,,,,,,,,,,,,10,,72,72
19259,note_on,,59,0,7,,,,,,,,,,,,,,,,10,,72,0
19259,note_on,,59,0,8,,,,,,,,,,,,,,,,11,,72,0
19260,note_on,,1,0,7,,,,,,,,,,,,,,,,10,,65,72
19260,note_on,,1,0,8,,,,,,,,,,,,,,,,11,,65,72
19319,note_on,,59,0,8,,,,,,,,,,,,,,,,11,,65,0
19319,note_on,,0,0,10,,,,,,,,,,,,,,,,15,,69,0
19319,note_on,,119,0,10,,,,,,,,,,,,,,,,15,,45,0
19319,note_on,,0,0,10,,,,,,,,,,,,,,,,15,,60,0
19319,note_on,,0,0,10,,,,,,,,,,,,,,,,15,,72,0
19319,note_on,,119,0,5,,,,,,,,,,,,,,,,2,,45,0
19319,note_on,,119,0,9,,,,,,,,,,,,,,,,13,,45,0
19319,note_on,,59,0,7,,,,,,,,,,,,,,,,10,,65,0
19320,note_on,,0,0,10,,,,,,,,,,,,,,,,15,,58,72
19320,note_on,,1,0,9,,,,,,,,,,,,,,,,13,,43,72
19320,note_on,,1,0,7,,,,,,,,,,,,,,,,10,,64,72
19320,note_on,,1,0,8,,,,,,,,,,,,,,,,11,,64,72
19320,note_on,,1,0,5,,,,,,,,,,,,,,,,2,,43,72
19320,note_on,,0,0,10,,,,,,,,,,,,,,,,15,,64,72
19320,note_on,,1,0,10,,,,,,,,,,,,,,,,15,,43,72
19409,note_on,,89,0,8,,,,,,,,,,,,,,,,11,,64,0
19409,note_on,,89,0,7,,,,,,,,,,,,,,,,10,,64,0
19410,note_on,,1,0,8,,,,,,,,,,,,,,,,11,,65,72
19410,note_on,,1,0,7,,,,,,,,,,,,,,,,10,,65,72
19424,note_on,,14,0,7,,,,,,,,,,,,,,,,10,,65,0
19424,note_on,,14,0,8,,,,,,,,,,,,,,,,11,,65,0
19425,note_on,,1,0,8,,,,,,,,,,,,,,,,11,,67,72
19425,note_on,,1,0,7,,,,,,,,,,,,,,,,10,,67,72
19439,note_on,,0,0,10,,,,,,,,,,,,,,,,15,,64,0
19439,note_on,,119,0,9,,,,,,,,,,,,,,,,13,,43,0
19439,note_on,,119,0,10,,,,,,,,,,,,,,,,15,,43,0
19439,note_on,,14,0,8,,,,,,,,,,,,,,,,11,,67,0
19439,note_on,,0,0,10,,,,,,,,,,,,,,,,15,,58,0
19439,note_on,,119,0,5,,,,,,,,,,,,,,,,2,,43,0
19439,note_on,,14,0,7,,,,,,,,,,,,,,,,10,,67,0
19440,note_on,,0,0,10,,,,,,,,,,,,,,,,15,,65,72
19440,note_on,,1,0,10,,,,,,,,,,,,,,,,15,,45,72
19440,note_on,,1,0,5,,,,,,,,,,,,,,,,2,,45,72
19440,note_on,,1,0,8,,,,,,,,,,,,,,,,11,,60,72
19440,note_on,,1,0,9,,,,,,,,,,,,,,,,13,,45,72
19440,note_on,,1,0,7,,,,,,,,,,,,,,,,10,,60,72
19440,note_on,,0,0,10,,,,,,,,,,,,,,,,15,,57,72
19499,note_on,,59,0,7,,,,,,,,,,,,,,,,10,,60,0
19499,note_on,,59,0,8,,,,,,,,,,,,,,,,11,,60,0
19500,note_on,,1,0,7,,,,,,,,,,,,,,,,10,,65,72
19500,note_on,,1,0,8,,,,,,,,,,,,,,,,11,,65,72
19529,note_on,,89,0,10,,,,,,,,,,,,,,,,15,,45,0
19529,note_on,,89,0,9,,,,,,,,,,,,,,,,13,,45,0
19529,note_on,,89,0,5,,,,,,,,,,,,,,,,2,,45,0
19530,note_on,,1,0,5,,,,,,,,,,,,,,,,2,,46,72
19530,note_on,,1,0,10,,,,,,,,,,,,,,,,15,,46,72
19530,note_on,,1,0,9,,,,,,,,,,,,,,,,13,,46,72
19559,note_on,,59,0,7,,,,,,,,,,,,,,,,10,,65,0
19559,note_on,,59,0,8,,,,,,,,,,,,,,,,11,,65,0
19559,note_on,,0,0,10,,,,,,,,,,,,,,,,15,,65,0
19559,note_on,,29,0,10,,,,,,,,,,,,,,,,15,,57,0
19559,note_on,,29,0,5,,,,,,,,,,,,,,,,2,,46,0
19559,note_on,,0,0,10,,,,,,,,,,,,,,,,15,,46,0
19559,note_on,,29,0,9,,,,,,,,,,,,,,,,13,,46,0
19560,note_on,,1,0,10,,,,,,,,,,,,,,,,15,,48,72
19560,note_on,,1,0,5,,,,,,,,,,,,,,,,2,,48,72
19560,note_on,,0,0,10,,,,,,,,,,,,,,,,15,,70,72
19560,note_on,,0,0,10,,,,,,,,,,,,,,,,15,,76,72
19560,note_on,,0,0,10,,,,,,,,,,,,,,,,15,,55,72
19560,note_on,,1,0,7,,,,,,,,,,,,,,,,10,,60,72
19560,note_on,,1,0,8,,,,,,,,,,,,,,,,11,,60,72
19560,note_on,,1,0,9,,,,,,,,,,,,,,,,13,,48,72
19619,note_on,,59,0,7,,,,,,,,,,,,,,,,10,,60,0
19619,note_on,,59,0,8,,,,,,,,,,,,,,,,11,,60,0
19620,note_on,,1,0,7,,,,,,,,,,,,,,,,10,,58,72
19620,note_on,,1,0,8,,,,,,,,,,,,,,,,11,,58,72
19679,note_on,,119,0,5,,,,,,,,,,,,,,,,2,,48,0
19679,note_on,,0,0,10,,,,,,,,,,,,,,,,15,,76,0
19679,note_on,,59,0,7,,,,,,,,,,,,,,,,10,,58,0
19679,note_on,,0,0,10,,,,,,,,,,,,,,,,15,,70,0
19679,note_on,,0,0,10,,,,,,,,,,,,,,,,15,,55,0
19679,note_on,,119,0,10,,,,,,,,,,,,,,,,15,,48,0
19679,note_on,,119,0,9,,,,,,,,,,,,,,,,13,,48,0
19679,note_on,,59,0,8,,,,,,,,,,,,,,,,11,,58,0
19680,note_on,,1,0,8,,,,,,,,,,,,,,,,11,,57,72
19680,note_on,,1,0,10,,,,,,,,,,,,,,,,15,,53,72
19680,note_on,,0,0,10,,,,,,,,,,,,,,,,15,,77,72
19680,note_on,,0,0,10,,,,,,,,,,,,,,,,15,,69,72
19680,note_on,,0,0,10,,,,,,,,,,,,,,,,15,,57,72
19680,note_on,,1,0,9,,,,,,,,,,,,,,,,13,,53,72
19680,note_on,,1,0,7,,,,,,,,,,,,,,,,10,,57,72
19680,note_on,,1,0,5,,,,,,,,,,,,,,,,2,,53,72
19769,note_on,,89,0,5,,,,,,,,,,,,,,,,2,,53,0
19769,note_on,,89,0,9,,,,,,,,,,,,,,,,13,,53,0
19769,note_on,,0,0,10,,,,,,,,,,,,,,,,15,,57,0
19769,note_on,,89,0,10,,,,,,,,,,,,,,,,15,,53,0
19770,note_on,,0,0,10,,,,,,,,,,,,,,,,15,,58,72
19770,note_on,,1,0,10,,,,,,,,,,,,,,,,15,,55,72
19770,note_on,,1,0,9,,,,,,,,,,,,,,,,13,,55,72
19770,note_on,,1,0,5,,,,,,,,,,,,,,,,2,,55,72
19799,note_on,,29,0,5,,,,,,,,,,,,,,,,2,,55,0
19799,note_on,,0,0,10,,,,,,,,,,,,,,,,15,,58,0
19799,note_on,,29,0,10,,,,,,,,,,,,,,,,15,,55,0
19799,note_on,,119,0,7,,,,,,,,,,,,,,,,10,,57,0
19799,note_on,,119,0,8,,,,,,,,,,,,,,,,11,,57,0
19799,note_on,,29,0,9,,,,,,,,,,,,,,,,13,,55,0
19800,note_on,,0,0,10,,,,,,,,,,,,,,,,15,,60,72
19800,note_on,,1,0,9,,,,,,,,,,,,,,,,13,,57,72
19800,note_on,,1,0,10,,,,,,,,,,,,,,,,15,,57,72
19800,note_on,,1,0,5,,,,,,,,,,,,,,,,2,,57,72
19860,note_on,,61,0,7,,,,,,,,,,,,,,,,10,,77,48
19860,note_on,,61,0,8,,,,,,,,,,,,,,,,11,,77,48
19889,note_on,,89,0,10,,,,,,,,,,,,,,,,15,,57,0
19889,note_on,,89,0,9,,,,,,,,,,,,,,,,13,,57,0
19889,note_on,,89,0,5,,,,,,,,,,,,,,,,2,,57,0
19890,note_on,,1,0,10,,,,,,,,,,,,,,,,15,,58,48
19890,note_on,,1,0,9,,,,,,,,,,,,,,,,13,,58,48
19890,note_on,,1,0,5,,,,,,,,,,,,,,,,2,,58,48
19904,note_on,,44,0,7,,,,,,,,,,,,,,,,10,,77,0
19904,note_on,,44,0,8,,,,,,,,,,,,,,,,11,,77,0
19905,note_on,,1,0,8,,,,,,,,,,,,,,,,11,,79,48
19905,note_on,,1,0,7,,,,,,,,,,,,,,,,10,,79,48
19919,note_on,,29,0,5,,,,,,,,,,,,,,,,2,,58,0
19919,note_on,,14,0,8,,,,,,,,,,,,,,,,11,,79,0
19919,note_on,,0,0,10,,,,,,,,,,,,,,,,15,,58,0
19919,note_on,,29,0,10,,,,,,,,,,,,,,,,15,,77,0
19919,note_on,,0,0,10,,,,,,,,,,,,,,,,15,,69,0
19919,note_on,,14,0,7,,,,,,,,,,,,,,,,10,,79,0
19919,note_on,,29,0,9,,,,,,,,,,,,,,,,13,,58,0
19919,note_on,,0,0,10,,,,,,,,,,,,,,,,15,,60,0
19920,note_on,,0,0,10,,,,,,,,,,,,,,,,15,,72,48
19920,note_on,,0,0,10,,,,,,,,,,,,,,,,15,,67,48
19920,note_on,,1,0,5,,,,,,,,,,,,,,,,2,,60,48
19920,note_on,,1,0,7,,,,,,,,,,,,,,,,10,,77,48
19920,note_on,,1,0,8,,,,,,,,,,,,,,,,11,,77,48
19920,note_on,,1,0,9,,,,,,,,,,,,,,,,13,,60,48
19920,note_on,,1,0,10,,,,,,,,,,,,,,,,15,,60,48
19979,note_on,,59,0,8,,,,,,,,,,,,,,,,11,,77,0
19979,note_on,,59,0,7,,,,,,,,,,,,,,,,10,,77,0
19980,note_on,,1,0,7,,,,,,,,,,,,,,,,10,,76,48
19980,note_on,,1,0,8,,,,,,,,,,,,,,,,11,,76,48
20024,note_on,,44,0,8,,,,,,,,,,,,,,,,11,,76,0
20024,note_on,,44,0,7,,,,,,,,,,,,,,,,10,,76,0
20025,note_on,,1,0,7,,,,,,,,,,,,,,,,10,,77,48
20025,note_on,,1,0,8,,,,,,,,,,,,,,,,11,,77,48
20039,note_on,,14,0,7,,,,,,,,,,,,,,,,10,,77,0
20039,note_on,,119,0,10,,,,,,,,,,,,,,,,15,,60,0
20039,note_on,,119,0,5,,,,,,,,,,,,,,,,2,,60,0
20039,note_on,,14,0,8,,,,,,,,,,,,,,,,11,,77,0
20039,note_on,,119,0,9,,,,,,,,,,,,,,,,13,,60,0
20039,note_on,,0,0,10,,,,,,,,,,,,,,,,15,,72,0
20039,note_on,,0,0,10,,,,,,,,,,,,,,,,15,,67,0
20040,note_on,,1,0,8,,,,,,,,,,,,,,,,11,,76,48
20040,note_on,,1,0,9,,,,,,,,,,,,,,,,13,,58,48
20040,note_on,,0,0,10,,,,,,,,,,,,,,,,15,,60,48
20040,note_on,,0,0,10,,,,,,,,,,,,,,,,15,,76,48
20040,note_on,,1,0,5,,,,,,,,,,,,,,,,2,,58,48
20040,note_on,,1,0,7,,,,,,,,,,,,,,,,10,,76,48
20040,note_on,,1,0,10,,,,,,,,,,,,,,,,15,,58,48
20040,note_on,,0,0,10,,,,,,,,,,,,,,,,15,,67,48
20099,note_on,,59,0,8,,,,,,,,,,,,,,,,11,,76,0
20099,note_on,,59,0,7,,,,,,,,,,,,,,,,10,,76,0
20100,note_on,,1,0,7,,,,,,,,,,,,,,,,10,,74,48
20100,note_on,,1,0,8,,,,,,,,,,,,,,,,11,,74,48
20159,note_on,,59,0,8,,,,,,,,,,,,,,,,11,,74,0
20159,note_on,,0,0,10,,,,,,,,,,,,,,,,15,,67,0
20159,note_on,,0,0,10,,,,,,,,,,,,,,,,15,,76,0
20159,note_on,,0,0,10,,,,,,,,,,,,,,,,15,,60,0
20159,note_on,,119,0,10,,,,,,,,,,,,,,,,15,,58,0
20159,note_on,,59,0,7,,,,,,,,,,,,,,,,10,,74,0
20159,note_on,,119,0,5,,,,,,,,,,,,,,,,2,,58,0
20159,note_on,,119,0,9,,,,,,,,,,,,,,,,13,,58,0
20160,note_on,,1,0,8,,,,,,,,,,,,,,,,11,,74,48
20160,note_on,,0,0,10,,,,,,,,,,,,,,,,15,,77,48
20160,note_on,,1,0,5,,,,,,,,,,,,,,,,2,,57,48
20160,note_on,,0,0,10,,,,,,,,,,,,,,,,15,,65,48
20160,note_on,,1,0,9,,,,,,,,,,,,,,,,13,,57,48
20160,note_on,,0,0,10,,,,,,,,,,,,,,,,15,,60,48
20160,note_on,,1,0,7,,,,,,,,,,,,,,,,10,,74,48
20160,note_on,,1,0,10,,,,,,,,,,,,,,,,15,,57,48
20219,note_on,,59,0,8,,,,,,,,,,,,,,,,11,,74,0
20219,note_on,,59,0,7,,,,,,,,,,,,,,,,10,,74,0
20220,note_on,,1,0,8,,,,,,,,,,,,,,,,11,,72,48
20220,note_on,,1,0,7,,,,,,,,,,,,,,,,10,,72,48
20279,note_on,,119,0,9,,,,,,,,,,,,,,,,13,,57,0
20279,note_on,,119,0,5,,,,,,,,,,,,,,,,2,,57,0
20279,note_on,,0,0,10,,,,,,,,,,,,,,,,15,,65,0
20279,note_on,,0,0,10,,,,,,,,,,,,,,,,15,,77,0
20279,note_on,,119,0,10,,,,,,,,,,,,,,,,15,,57,0
20280,note_on,,1,0,10,,,,,,,,,,,,,,,,15,,55,48
20280,note_on,,0,0,10,,,,,,,,,,,,,,,,15,,64,48
20280,note_on,,0,0,10,,,,,,,,,,,,,,,,15,,79,48
20280,note_on,,1,0,9,,,,,,,,,,,,,,,,13,,55,48
20280,note_on,,1,0,5,,,,,,,,,,,,,,,,2,,55,48
20339,note_on,,119,0,8,,,,,,,,,,,,,,,,11,,72,0
20339,note_on,,119,0,7,,,,,,,,,,,,,,,,10,,72,0
20340,note_on,,1,0,8,,,,,,,,,,,,,,,,11,,70,72
20340,note_on,,1,0,7,,,,,,,,,,,,,,,,10,,70,72
20399,note_on,,119,0,10,,,,,,,,,,,,,,,,15,,60,0
20399,note_on,,0,0,10,,,,,,,,,,,,,,,,15,,55,0
20399,note_on,,119,0,5,,,,,,,,,,,,,,,,2,,55,0
20399,note_on,,119,0,9,,,,,,,,,,,,,,,,13,,55,0
20399,note_on,,0,0,10,,,,,,,,,,,,,,,,15,,64,0
20399,note_on,,0,0,10,,,,,,,,,,,,,,,,15,,79,0
20399,note_on,,59,0,7,,,,,,,,,,,,,,,,10,,70,0
20399,note_on,,59,0,8,,,,,,,,,,,,,,,,11,,70,0
20400,note_on,,1,0,10,,,,,,,,,,,,,,,,15,,53,72
20400,note_on,,0,0,10,,,,,,,,,,,,,,,,15,,72,72
20400,note_on,,1,0,7,,,,,,,,,,,,,,,,10,,69,72
20400,note_on,,1,0,9,,,,,,,,,,,,,,,,13,,53,72
20400,note_on,,0,0,10,,,,,,,,,,,,,,,,15,,69,72
20400,note_on,,1,0,8,,,,,,,,,,,,,,,,11,,69,72
20400,note_on,,0,0,10,,,,,,,,,,,,,,,,15,,65,72
20400,note_on,,0,0,10,,,,,,,,,,,,,,,,15,,60,72
20400,note_on,,1,0,5,,,,,,,,,,,,,,,,2,,53,72
20459,note_on,,59,0,7,,,,,,,,,,,,,,,,10,,69,0
20459,note_on,,59,0,8,,,,,,,,,,,,,,,,11,,69,0
20460,note_on,,1,0,7,,,,,,,,,,,,,,,,10,,67,72
20460,note_on,,1,0,8,,,,,,,,,,,,,,,,11,,67,72
20489,note_on,,29,0,8,,,,,,,,,,,,,,,,11,,67,0
20489,note_on,,29,0,7,,,,,,,,,,,,,,,,10,,67,0
20489,note_on,,89,0,9,,,,,,,,,,,,,,,,13,,53,0
20489,note_on,,0,0,10,,,,,,,,,,,,,,,,15,,60,0
20489,note_on,,89,0,10,,,,,,,,,,,,,,,,15,,53,0
20489,note_on,,89,0,5,,,,,,,,,,,,,,,,2,,53,0
20490,note_on,,1,0,10,,,,,,,,,,,,,,,,15,,46,72
20490,note_on,,1,0,9,,,,,,,,,,,,,,,,13,,46,72
20490,note_on,,1,0,5,,,,,,,,,,,,,,,,2,,46,72
20490,note_on,,1,0,7,,,,,,,,,,,,,,,,10,,65,72
20490,note_on,,0,0,10,,,,,,,,,,,,,,,,15,,62,72
20490,note_on,,1,0,8,,,,,,,,,,,,,,,,11,,65,72
20519,note_on,,29,0,10,,,,,,,,,,,,,,,,15,,72,0
20519,note_on,,0,0,10,,,,,,,,,,,,,,,,15,,46,0
20519,note_on,,0,0,10,,,,,,,,,,,,,,,,15,,69,0
20519,note_on,,29,0,9,,,,,,,,,,,,,,,,13,,46,0
20519,note_on,,0,0,10,,,,,,,,,,,,,,,,15,,62,0
20519,note_on,,0,0,10,,,,,,,,,,,,,,,,15,,65,0
20519,note_on,,29,0,7,,,,,,,,,,,,,,,,10,,65,0
20519,note_on,,29,0,8,,,,,,,,,,,,,,,,11,,65,0
20519,note_on,,29,0,5,,,,,,,,,,,,,,,,2,,46,0
20520,note_on,,1,0,7,,,,,,,,,,,,,,,,10,,64,72
20520,note_on,,1,0,8,,,,,,,,,,,,,,,,11,,64,72
20520,note_on,,1,0,5,,,,,,,,,,,,,,,,2,,48,72
20520,note_on,,1,0,9,,,,,,,,,,,,,,,,13,,48,72
20520,note_on,,0,0,10,,,,,,,,,,,,,,,,15,,60,72
20520,note_on,,0,0,10,,,,,,,,,,,,,,,,15,,64,72
20520,note_on,,0,0,10,,,,,,,,,,,,,,,,15,,67,72
20520,note_on,,1,0,10,,,,,,,,,,,,,,,,15,,48,72
20579,note_on,,59,0,8,,,,,,,,,,,,,,,,11,,64,0
20579,note_on,,59,0,7,,,,,,,,,,,,,,,,10,,64,0
20580,note_on,,1,0,7,,,,,,,,,,,,,,,,10,,65,72
20580,note_on,,1,0,8,,,,,,,,,,,,,,,,11,,65,72
20609,note_on,,89,0,5,,,,,,,,,,,,,,,,2,,48,0
20609,note_on,,89,0,9,,,,,,,,,,,,,,,,13,,48,0
20609,note_on,,89,0,10,,,,,,,,,,,,,,,,15,,48,0
20610,note_on,,1,0,9,,,,,,,,,,,,,,,,13,,36,72
20610,note_on,,1,0,10,,,,,,,,,,,,,,,,15,,36,72
20610,note_on,,1,0,5,,,,,,,,,,,,,,,,2,,36,72
20639,note_on,,0,0,10,,,,,,,,,,,,,,,,15,,64,0
20639,note_on,,0,0,10,,,,,,,,,,,,,,,,15,,60,0
20639,note_on,,0,0,10,,,,,,,,,,,,,,,,15,,36,0
20639,note_on,,29,0,5,,,,,,,,,,,,,,,,2,,36,0
20639,note_on,,59,0,7,,,,,,,,,,,,,,,,10,,65,0
20639,note_on,,29,0,10,,,,,,,,,,,,,,,,15,,67,0
20639,note_on,,59,0,8,,,,,,,,,,,,,,,,11,,65,0
20639,note_on,,29,0,9,,,,,,,,,,,,,,,,13,,36,0
20640,note_on,,0,0,10,,,,,,,,,,,,,,,,15,,60,72
20640,note_on,,0,0,10,,,,,,,,,,,,,,,,15,,69,72
20640,note_on,,0,0,10,,,,,,,,,,,,,,,,15,,41,72
20640,note_on,,1,0,8,,,,,,,,,,,,,,,,11,,65,72
20640,note_on,,1,0,7,,,,,,,,,,,,,,,,10,,65,72
20640,note_on,,1,0,5,,,,,,,,,,,,,,,,2,,41,72
20640,note_on,,1,0,9,,,,,,,,,,,,,,,,13,,41,72
20640,note_on,,1,0,10,,,,,,,,,,,,,,,,15,,65,72
20759,note_on,,119,0,8,,,,,,,,,,,,,,,,11,,65,0
20759,note_on,,0,0,10,,,,,,,,,,,,,,,,15,,69,0
20759,note_on,,119,0,10,,,,,,,,,,,,,,,,15,,65,0
20759,note_on,,119,0,7,,,,,,,,,,,,,,,,10,,65,0
20759,note_on,,0,0,10,,,,,,,,,,,,,,,,15,,60,0
20759,note_on,,0,0,10,,,,,,,,,,,,,,,,15,,41,0
20759,note_on,,119,0,5,,,,,,,,,,,,,,,,2,,41,0
20759,note_on,,119,0,9,,,,,,,,,,,,,,,,13,,41,0
20820,note_on,,61,0,10,,,,,,,,,,,,,,,,15,,42,48
20820,note_on,,61,0,9,,,,,,,,,,,,,,,,13,,42,48
20820,note_on,,61,0,8,,,,,,,,,,,,,,,,11,,69,48
20820,note_on,,0,0,10,,,,,,,,,,,,,,,,15,,69,48
20820,note_on,,3541,0,6,,,,,,,,,,,,,,,,5,,74,72
20820,note_on,,61,0,7,,,,,,,,,,,,,,,,10,,69,48
20820,note_on,,0,0,10,,,,,,,,,,,,,,,,15,,62,48
20879,note_on,,59,0,6,,,,,,,,,,,,,,,,5,,74,0
20879,note_on,,0,0,10,,,,,,,,,,,,,,,,15,,62,0
20879,note_on,,59,0,8,,,,,,,,,,,,,,,,11,,69,0
20879,note_on,,0,0,10,,,,,,,,,,,,,,,,15,,69,0
20879,note_on,,59,0,9,,,,,,,,,,,,,,,,13,,42,0
20879,note_on,,59,0,7,,,,,,,,,,,,,,,,10,,69,0
20879,note_on,,59,0,10,,,,,,,,,,,,,,,,15,,42,0
20880,note_on,,0,0,10,,,,,,,,,,,,,,,,15,,70,48
20880,note_on,,1,0,8,,,,,,,,,,,,,,,,11,,70,48
20880,note_on,,1,0,9,,,,,,,,,,,,,,,,13,,43,48
20880,note_on,,1,0,10,,,,,,,,,,,,,,,,15,,43,48
20880,note_on,,1,0,6,,,,,,,,,,,,,,,,5,,74,72
20880,note_on,,0,0,10,,,,,,,,,,,,,,,,15,,67,48
20880,note_on,,0,0,10,,,,,,,,,,,,,,,,15,,62,48
20880,note_on,,1,0,7,,,,,,,,,,,,,,,,10,,70,48
20939,note_on,,59,0,6,,,,,,,,,,,,,,,,5,,74,0
20939,note_on,,59,0,7,,,,,,,,,,,,,,,,10,,70,0
20939,note_on,,59,0,8,,,,,,,,,,,,,,,,11,,70,0
20940,note_on,,1,0,7,,,,,,,,,,,,,,,,10,,69,48
20940,note_on,,1,0,6,,,,,,,,,,,,,,,,5,,72,72
20940,note_on,,1,0,8,,,,,,,,,,,,,,,,11,,69,48
20999,note_on,,59,0,7,,,,,,,,,,,,,,,,10,,69,0
20999,note_on,,59,0,6,,,,,,,,,,,,,,,,5,,72,0
20999,note_on,,59,0,8,,,,,,,,,,,,,,,,11,,69,0
21000,note_on,,1,0,8,,,,,,,,,,,,,,,,11,,67,48
21000,note_on,,1,0,6,,,,,,,,,,,,,,,,5,,70,72
21000,note_on,,1,0,7,,,,,,,,,,,,,,,,10,,67,48
21059,note_on,,59,0,6,,,,,,,,,,,,,,,,5,,70,0
21059,note_on,,59,0,7,,,,,,,,,,,,,,,,10,,67,0
21059,note_on,,59,0,8,,,,,,,,,,,,,,,,11,,67,0
21060,note_on,,1,0,6,,,,,,,,,,,,,,,,5,,72,72
21060,note_on,,1,0,8,,,,,,,,,,,,,,,,11,,69,48
21060,note_on,,1,0,7,,,,,,,,,,,,,,,,10,,69,48
21119,note_on,,0,0,10,,,,,,,,,,,,,,,,15,,67,0
21119,note_on,,59,0,8,,,,,,,,,,,,,,,,11,,69,0
21119,note_on,,59,0,6,,,,,,,,,,,,,,,,5,,72,0
21119,note_on,,239,0,10,,,,,,,,,,,,,,,,15,,70,0
21119,note_on,,0,0,10,,,,,,,,,,,,,,,,15,,62,0
21119,note_on,,59,0,7,,,,,,,,,,,,,,,,10,,69,0
21120,note_on,,1,0,8,,,,,,,,,,,,,,,,11,,70,48
21120,note_on,,1,0,10,,,,,,,,,,,,,,,,15,,67,48
21120,note_on,,0,0,10,,,,,,,,,,,,,,,,15,,58,48
21120,note_on,,0,0,10,,,,,,,,,,,,,,,,15,,62,48
21120,note_on,,1,0,6,,,,,,,,,,,,,,,,5,,74,72
21120,note_on,,1,0,7,,,,,,,,,,,,,,,,10,,70,48
21179,note_on,,59,0,6,,,,,,,,,,,,,,,,5,,74,0
21179,note_on,,59,0,8,,,,,,,,,,,,,,,,11,,70,0
21179,note_on,,59,0,7,,,,,,,,,,,,,,,,10,,70,0
21180,note_on,,1,0,7,,,,,,,,,,,,,,,,10,,69,48
21180,note_on,,1,0,8,,,,,,,,,,,,,,,,11,,69,48
21180,note_on,,1,0,6,,,,,,,,,,,,,,,,5,,72,72
21239,note_on,,59,0,7,,,,,,,,,,,,,,,,10,,69,0
21239,note_on,,59,0,6,,,,,,,,,,,,,,,,5,,72,0
21239,note_on,,59,0,8,,,,,,,,,,,,,,,,11,,69,0
21240,note_on,,1,0,6,,,,,,,,,,,,,,,,5,,75,72
21240,note_on,,1,0,8,,,,,,,,,,,,,,,,11,,72,48
21240,note_on,,1,0,7,,,,,,,,,,,,,,,,10,,72,48
21299,note_on,,59,0,8,,,,,,,,,,,,,,,,11,,72,0
21299,note_on,,59,0,7,,,,,,,,,,,,,,,,10,,72,0
21299,note_on,,59,0,6,,,,,,,,,,,,,,,,5,,75,0
21300,note_on,,1,0,7,,,,,,,,,,,,,,,,10,,70,48
21300,note_on,,1,0,6,,,,,,,,,,,,,,,,5,,74,72
21300,note_on,,1,0,8,,,,,,,,,,,,,,,,11,,70,48
21359,note_on,,239,0,10,,,,,,,,,,,,,,,,15,,67,0
21359,note_on,,0,0,10,,,,,,,,,,,,,,,,15,,62,0
21359,note_on,,0,0,10,,,,,,,,,,,,,,,,15,,58,0
21359,note_on,,59,0,7,,,,,,,,,,,,,,,,10,,70,0
21359,note_on,,59,0,6,,,,,,,,,,,,,,,,5,,74,0
21359,note_on,,59,0,8,,,,,,,,,,,,,,,,11,,70,0
21360,note_on,,1,0,8,,,,,,,,,,,,,,,,11,,69,48
21360,note_on,,1,0,7,,,,,,,,,,,,,,,,10,,69,48
21360,note_on,,0,0,10,,,,,,,,,,,,,,,,15,,60,48
21360,note_on,,0,0,10,,,,,,,,,,,,,,,,15,,63,48
21360,note_on,,1,0,10,,,,,,,,,,,,,,,,15,,69,48
21360,note_on,,1,0,6,,,,,,,,,,,,,,,,5,,72,72
21419,note_on,,59,0,8,,,,,,,,,,,,,,,,11,,69,0
21419,note_on,,59,0,7,,,,,,,,,,,,,,,,10,,69,0
21419,note_on,,59,0,6,,,,,,,,,,,,,,,,5,,72,0
21420,note_on,,1,0,8,,,,,,,,,,,,,,,,11,,67,48
21420,note_on,,1,0,6,,,,,,,,,,,,,,,,5,,70,72
21420,note_on,,1,0,7,,,,,,,,,,,,,,,,10,,67,48
21479,note_on,,59,0,8,,,,,,,,,,,,,,,,11,,67,0
21479,note_on,,599,0,9,,,,,,,,,,,,,,,,13,,43,0
21479,note_on,,59,0,7,,,,,,,,,,,,,,,,10,,67,0
21479,note_on,,59,0,6,,,,,,,,,,,,,,,,5,,70,0
21479,note_on,,119,0,10,,,,,,,,,,,,,,,,15,,43,0
21479,note_on,,0,0,10,,,,,,,,,,,,,,,,15,,63,0
21479,note_on,,0,0,10,,,,,,,,,,,,,,,,15,,60,0
21480,note_on,,1,0,7,,,,,,,,,,,,,,,,10,,69,48
21480,note_on,,1,0,6,,,,,,,,,,,,,,,,5,,72,72
21480,note_on,,1,0,9,,,,,,,,,,,,,,,,13,,42,48
21480,note_on,,1,0,8,,,,,,,,,,,,,,,,11,,69,48
21480,note_on,,1,0,10,,,,,,,,,,,,,,,,15,,42,48
21480,note_on,,0,0,10,,,,,,,,,,,,,,,,15,,57,48
21480,note_on,,0,0,10,,,,,,,,,,,,,,,,15,,62,48
21539,note_on,,59,0,6,,,,,,,,,,,,,,,,5,,72,0
21539,note_on,,59,0,8,,,,,,,,,,,,,,,,11,,69,0
21539,note_on,,59,0,7,,,,,,,,,,,,,,,,10,,69,0
21540,note_on,,1,0,6,,,,,,,,,,,,,,,,5,,74,72
21540,note_on,,1,0,8,,,,,,,,,,,,,,,,11,,70,48
21540,note_on,,1,0,7,,,,,,,,,,,,,,,,10,,70,48
21599,note_on,,119,0,10,,,,,,,,,,,,,,,,15,,69,0
21599,note_on,,59,0,7,,,,,,,,,,,,,,,,10,,70,0
21599,note_on,,59,0,6,,,,,,,,,,,,,,,,5,,74,0
21599,note_on,,119,0,9,,,,,,,,,,,,,,,,13,,42,0
21599,note_on,,59,0,8,,,,,,,,,,,,,,,,11,,70,0
21599,note_on,,0,0,10,,,,,,,,,,,,,,,,15,,57,0
21599,note_on,,0,0,10,,,,,,,,,,,,,,,,15,,42,0
21599,note_on,,0,0,10,,,,,,,,,,,,,,,,15,,62,0
21600,note_on,,1,0,7,,,,,,,,,,,,,,,,10,,67,48
21600,note_on,,1,0,10,,,,,,,,,,,,,,,,15,,43,48
21600,note_on,,1,0,9,,,,,,,,,,,,,,,,13,,43,48
21600,note_on,,1,0,6,,,,,,,,,,,,,,,,5,,70,72
21600,note_on,,1,0,8,,,,,,,,,,,,,,,,11,,67,48
21600,note_on,,0,0,10,,,,,,,,,,,,,,,,15,,62,48
21600,note_on,,0,0,10,,,,,,,,,,,,,,,,15,,55,48
21600,note_on,,0,0,10,,,,,,,,,,,,,,,,15,,58,48
21614,note_on,,14,0,6,,,,,,,,,,,,,,,,5,,70,0
21615,note_on,,1,0,6,,,,,,,,,,,,,,,,5,,72,72
21629,note_on,,14,0,6,,,,,,,,,,,,,,,,5,,72,0
21630,note_on,,1,0,6,,,,,,,,,,,,,,,,5,,70,72
21644,note_on,,14,0,6,,,,,,,,,,,,,,,,5,,70,0
21645,note_on,,1,0,6,,,,,,,,,,,,,,,,5,,72,72
21659,note_on,,14,0,6,,,,,,,,,,,,,,,,5,,72,0
21660,note_on,,1,0,6,,,,,,,,,,,,,,,,5,,70,72
21674,note_on,,14,0,6,,,,,,,,,,,,,,,,5,,70,0
21675,note_on,,1,0,6,,,,,,,,,,,,,,,,5,,72,72
21689,note_on,,14,0,6,,,,,,,,,,,,,,,,5,,72,0
21690,note_on,,1,0,6,,,,,,,,,,,,,,,,5,,69,72
21719,note_on,,119,0,8,,,,,,,,,,,,,,,,11,,67,0
21719,note_on,,119,0,7,,,,,,,,,,,,,,,,10,,67,0
21719,note_on,,29,0,6,,,,,,,,,,,,,,,,5,,69,0
21720,note_on,,1,0,6,,,,,,,,,,,,,,,,5,,67,72
21780,note_on,,61,0,7,,,,,,,,,,,,,,,,10,,79,48
21780,note_on,,61,0,8,,,,,,,,,,,,,,,,11,,79,48
21839,note_on,,59,0,8,,,,,,,,,,,,,,,,11,,79,0
21839,note_on,,119,0,6,,,,,,,,,,,,,,,,5,,67,0
21839,note_on,,59,0,7,,,,,,,,,,,,,,,,10,,79,0
21840,note_on,,1,0,7,,,,,,,,,,,,,,,,10,,79,48
21840,note_on,,1,0,8,,,,,,,,,,,,,,,,11,,79,48
21929,note_on,,89,0,7,,,,,,,,,,,,,,,,10,,79,0
21929,note_on,,89,0,8,,,,,,,,,,,,,,,,11,,79,0
21930,note_on,,1,0,8,,,,,,,,,,,,,,,,11,,78,48
21930,note_on,,1,0,7,,,,,,,,,,,,,,,,10,,78,48
21959,note_on,,359,0,10,,,,,,,,,,,,,,,,15,,43,0
21959,note_on,,359,0,9,,,,,,,,,,,,,,,,13,,43,0
21959,note_on,,0,0,10,,,,,,,,,,,,,,,,15,,62,0
21959,note_on,,0,0,10,,,,,,,,,,,,,,,,15,,58,0
21959,note_on,,0,0,10,,,,,,,,,,,,,,,,15,,55,0
21959,note_on,,29,0,8,,,,,,,,,,,,,,,,11,,78,0
21959,note_on,,29,0,7,,,,,,,,,,,,,,,,10,,78,0
21960,note_on,,1,0,8,,,,,,,,,,,,,,,,11,,79,48
21960,note_on,,0,0,10,,,,,,,,,,,,,,,,15,,67,48
21960,note_on,,1,0,7,,,,,,,,,,,,,,,,10,,79,48
21960,note_on,,1,0,10,,,,,,,,,,,,,,,,15,,58,48
21960,note_on,,1201,0,5,,,,,,,,,,,,,,,,2,,58,48
21960,note_on,,1,0,9,,,,,,,,,,,,,,,,13,,58,48
21960,note_on,,0,0,10,,,,,,,,,,,,,,,,15,,62,48
22019,note_on,,59,0,8,,,,,,,,,,,,,,,,11,,79,0
22019,note_on,,59,0,7,,,,,,,,,,,,,,,,10,,79,0
22020,note_on,,1,0,7,,,,,,,,,,,,,,,,10,,81,48
22020,note_on,,1,0,8,,,,,,,,,,,,,,,,11,,81,48
22079,note_on,,119,0,10,,,,,,,,,,,,,,,,15,,58,0
22079,note_on,,0,0,10,,,,,,,,,,,,,,,,15,,67,0
22079,note_on,,0,0,10,,,,,,,,,,,,,,,,15,,62,0
22079,note_on,,119,0,5,,,,,,,,,,,,,,,,2,,58,0
22079,note_on,,59,0,7,,,,,,,,,,,,,,,,10,,81,0
22079,note_on,,59,0,8,,,,,,,,,,,,,,,,11,,81,0
22079,note_on,,119,0,9,,,,,,,,,,,,,,,,13,,58,0
22080,note_on,,1,0,10,,,,,,,,,,,,,,,,15,,57,48
22080,note_on,,0,0,10,,,,,,,,,,,,,,,,15,,69,48
22080,note_on,,0,0,10,,,,,,,,,,,,,,,,15,,66,48
22080,note_on,,0,0,10,,,,,,,,,,,,,,,,15,,60,48
22080,note_on,,1,0,9,,,,,,,,,,,,,,,,13,,57,48
22080,note_on,,1,0,5,,,,,,,,,,,,,,,,2,,57,48
22080,note_on,,1,0,8,,,,,,,,,,,,,,,,11,,78,48
22080,note_on,,1,0,7,,,,,,,,,,,,,,,,10,,78,48
22139,note_on,,59,0,8,,,,,,,,,,,,,,,,11,,78,0
22139,note_on,,59,0,7,,,,,,,,,,,,,,,,10,,78,0
22140,note_on,,1,0,7,,,,,,,,,,,,,,,,10,,81,48
22140,note_on,,1,0,8,,,,,,,,,,,,,,,,11,,81,48
22199,note_on,,0,0,10,,,,,,,,,,,,,,,,15,,60,0
22199,note_on,,0,0,10,,,,,,,,,,,,,,,,15,,66,0
22199,note_on,,59,0,7,,,,,,,,,,,,,,,,10,,81,0
22199,note_on,,119,0,10,,,,,,,,,,,,,,,,15,,57,0
22199,note_on,,119,0,5,,,,,,,,,,,,,,,,2,,57,0
22199,note_on,,59,0,8,,,,,,,,,,,,,,,,11,,81,0
22199,note_on,,119,0,9,,,,,,,,,,,,,,,,13,,57,0
22200,note_on,,1,0,7,,,,,,,,,,,,,,,,10,,72,48
22200,note_on,,1,0,8,,,,,,,,,,,,,,,,11,,72,48
22260,note_on,,61,0,5,,,,,,,,,,,,,,,,2,,55,48
22260,note_on,,61,0,9,,,,,,,,,,,,,,,,13,,55,48
22260,note_on,,61,0,10,,,,,,,,,,,,,,,,15,,55,48
22260,note_on,,0,0,10,,,,,,,,,,,,,,,,15,,63,48
22319,note_on,,59,0,5,,,,,,,,,,,,,,,,2,,55,0
22319,note_on,,59,0,9,,,,,,,,,,,,,,,,13,,55,0
22319,note_on,,59,0,10,,,,,,,,,,,,,,,,15,,55,0
22319,note_on,,0,0,10,,,,,,,,,,,,,,,,15,,63,0
22320,note_on,,1,0,10,,,,,,,,,,,,,,,,15,,54,48
22320,note_on,,1,0,5,,,,,,,,,,,,,,,,2,,54,48
22320,note_on,,0,0,10,,,,,,,,,,,,,,,,15,,62,48
22320,note_on,,1,0,9,,,,,,,,,,,,,,,,13,,54,48
22379,note_on,,179,0,8,,,,,,,,,,,,,,,,11,,72,0
22379,note_on,,179,0,7,,,,,,,,,,,,,,,,10,,72,0
22380,note_on,,1,0,8,,,,,,,,,,,,,,,,11,,75,48
22380,note_on,,1,0,7,,,,,,,,,,,,,,,,10,,75,48
22439,note_on,,59,0,7,,,,,,,,,,,,,,,,10,,75,0
22439,note_on,,59,0,8,,,,,,,,,,,,,,,,11,,75,0
22439,note_on,,119,0,9,,,,,,,,,,,,,,,,13,,54,0
22439,note_on,,0,0,10,,,,,,,,,,,,,,,,15,,62,0
22439,note_on,,119,0,10,,,,,,,,,,,,,,,,15,,69,0
22439,note_on,,0,0,10,,,,,,,,,,,,,,,,15,,54,0
22439,note_on,,119,0,5,,,,,,,,,,,,,,,,2,,54,0
22440,note_on,,0,0,10,,,,,,,,,,,,,,,,15,,62,48
22440,note_on,,0,0,10,,,,,,,,,,,,,,,,15,,69,48
22440,note_on,,0,0,10,,,,,,,,,,,,,,,,15,,74,48
22440,note_on,,0,0,10,,,,,,,,,,,,,,,,15,,53,48
22440,note_on,,1,0,5,,,,,,,,,,,,,,,,2,,42,48
22440,note_on,,1,0,10,,,,,,,,,,,,,,,,15,,42,48
22440,note_on,,1,0,7,,,,,,,,,,,,,,,,10,,74,48
22440,note_on,,1,0,8,,,,,,,,,,,,,,,,11,,74,48
22440,note_on,,1,0,9,,,,,,,,,,,,,,,,13,,42,48
22499,note_on,,59,0,7,,,,,,,,,,,,,,,,10,,74,0
22499,note_on,,59,0,8,,,,,,,,,,,,,,,,11,,74,0
22500,note_on,,1,0,7,,,,,,,,,,,,,,,,10,,72,48
22500,note_on,,1,0,8,,,,,,,,,,,,,,,,11,,72,48
22559,note_on,,119,0,5,,,,,,,,,,,,,,,,2,,42,0
22559,note_on,,59,0,7,,,,,,,,,,,,,,,,10,,72,0
22559,note_on,,0,0,10,,,,,,,,,,,,,,,,15,,62,0
22559,note_on,,0,0,10,,,,,,,,,,,,,,,,15,,69,0
22559,note_on,,0,0,10,,,,,,,,,,,,,,,,15,,53,0
22559,note_on,,119,0,10,,,,,,,,,,,,,,,,15,,42,0
22559,note_on,,119,0,9,,,,,,,,,,,,,,,,13,,42,0
22559,note_on,,59,0,8,,,,,,,,,,,,,,,,11,,72,0
22560,note_on,,1,0,7,,,,,,,,,,,,,,,,10,,70,48
22560,note_on,,1,0,9,,,,,,,,,,,,,,,,13,,43,48
22560,note_on,,1,0,8,,,,,,,,,,,,,,,,11,,70,48
22560,note_on,,1,0,5,,,,,,,,,,,,,,,,2,,43,48
22560,note_on,,1,0,10,,,,,,,,,,,,,,,,15,,43,48
22560,note_on,,0,0,10,,,,,,,,,,,,,,,,15,,70,48
22560,note_on,,0,0,10,,,,,,,,,,,,,,,,15,,67,48
22560,note_on,,0,0,10,,,,,,,,,,,,,,,,15,,62,48
22560,note_on,,0,0,10,,,,,,,,,,,,,,,,15,,50,48
22649,note_on,,89,0,8,,,,,,,,,,,,,,,,11,,70,0
22649,note_on,,89,0,7,,,,,,,,,,,,,,,,10,,70,0
22650,note_on,,1,0,8,,,,,,,,,,,,,,,,11,,69,48
22650,note_on,,1,0,7,,,,,,,,,,,,,,,,10,,69,48
22679,note_on,,29,0,8,,,,,,,,,,,,,,,,11,,69,0
22679,note_on,,0,0,10,,,,,,,,,,,,,,,,15,,50,0
22679,note_on,,119,0,9,,,,,,,,,,,,,,,,13,,43,0
22679,note_on,,29,0,7,,,,,,,,,,,,,,,,10,,69,0
22679,note_on,,0,0,10,,,,,,,,,,,,,,,,15,,62,0
22679,note_on,,0,0,10,,,,,,,,,,,,,,,,15,,67,0
22679,note_on,,0,0,10,,,,,,,,,,,,,,,,15,,70,0
22679,note_on,,0,0,10,,,,,,,,,,,,,,,,15,,43,0
22679,note_on,,119,0,10,,,,,,,,,,,,,,,,15,,74,0
22679,note_on,,119,0,5,,,,,,,,,,,,,,,,2,,43,0
22680,note_on,,1,0,7,,,,,,,,,,,,,,,,10,,67,48
22680,note_on,,1,0,8,,,,,,,,,,,,,,,,11,,67,48
22740,note_on,,901,0,6,,,,,,,,,,,,,,,,5,,74,72
22799,note_on,,59,0,6,,,,,,,,,,,,,,,,5,,74,0
22800,note_on,,121,0,10,,,,,,,,,,,,,,,,15,,53,48
22800,note_on,,0,0,10,,,,,,,,,,,,,,,,15,,74,48
22800,note_on,,0,0,10,,,,,,,,,,,,,,,,15,,71,48
22800,note_on,,0,0,10,,,,,,,,,,,,,,,,15,,55,48
22800,note_on,,121,0,9,,,,,,,,,,,,,,,,13,,53,48
22800,note_on,,0,0,10,,,,,,,,,,,,,,,,15,,62,48
22800,note_on,,1,0,6,,,,,,,,,,,,,,,,5,,71,72
22800,note_on,,0,0,10,,,,,,,,,,,,,,,,15,,67,48
22919,note_on,,119,0,10,,,,,,,,,,,,,,,,15,,53,0
22919,note_on,,119,0,9,,,,,,,,,,,,,,,,13,,53,0
22919,note_on,,119,0,6,,,,,,,,,,,,,,,,5,,71,0
22919,note_on,,0,0,10,,,,,,,,,,,,,,,,15,,74,0
22919,note_on,,0,0,10,,,,,,,,,,,,,,,,15,,71,0
22919,note_on,,0,0,10,,,,,,,,,,,,,,,,15,,67,0
22919,note_on,,0,0,10,,,,,,,,,,,,,,,,15,,62,0
22919,note_on,,0,0,10,,,,,,,,,,,,,,,,15,,55,0
22920,note_on,,1,0,6,,,,,,,,,,,,,,,,5,,69,72
22979,note_on,,59,0,6,,,,,,,,,,,,,,,,5,,69,0
22980,note_on,,1,0,6,,,,,,,,,,,,,,,,5,,67,72
23039,note_on,,359,0,8,,,,,,,,,,,,,,,,11,,67,0
23039,note_on,,359,0,7,,,,,,,,,,,,,,,,10,,67,0
23039,note_on,,59,0,6,,,,,,,,,,,,,,,,5,,67,0
23040,note_on,,1,0,7,,,,,,,,,,,,,,,,10,,67,48
23040,note_on,,1,0,6,,,,,,,,,,,,,,,,5,,72,72
23040,note_on,,121,0,10,,,,,,,,,,,,,,,,15,,51,48
23040,note_on,,0,0,10,,,,,,,,,,,,,,,,15,,75,48
23040,note_on,,0,0,10,,,,,,,,,,,,,,,,15,,67,48
23040,note_on,,121,0,9,,,,,,,,,,,,,,,,13,,51,48
23040,note_on,,0,0,10,,,,,,,,,,,,,,,,15,,72,48
23099,note_on,,59,0,6,,,,,,,,,,,,,,,,5,,72,0
23099,note_on,,59,0,7,,,,,,,,,,,,,,,,10,,67,0
23100,note_on,,1,0,6,,,,,,,,,,,,,,,,5,,74,72
23100,note_on,,1,0,7,,,,,,,,,,,,,,,,10,,71,48
23159,note_on,,59,0,7,,,,,,,,,,,,,,,,10,,71,0
23159,note_on,,119,0,10,,,,,,,,,,,,,,,,15,,51,0
23159,note_on,,59,0,6,,,,,,,,,,,,,,,,5,,74,0
23159,note_on,,119,0,9,,,,,,,,,,,,,,,,13,,51,0
23159,note_on,,0,0,10,,,,,,,,,,,,,,,,15,,67,0
23160,note_on,,1,0,9,,,,,,,,,,,,,,,,13,,48,48
23160,note_on,,1,0,7,,,,,,,,,,,,,,,,10,,72,48
23160,note_on,,1,0,10,,,,,,,,,,,,,,,,15,,48,48
23160,note_on,,0,0,10,,,,,,,,,,,,,,,,15,,63,48
23160,note_on,,1,0,6,,,,,,,,,,,,,,,,5,,75,72
23219,note_on,,59,0,6,,,,,,,,,,,,,,,,5,,75,0
23220,note_on,,1,0,6,,,,,,,,,,,,,,,,5,,77,72
23279,note_on,,59,0,6,,,,,,,,,,,,,,,,5,,77,0
23279,note_on,,119,0,9,,,,,,,,,,,,,,,,13,,48,0
23279,note_on,,0,0,10,,,,,,,,,,,,,,,,15,,63,0
23279,note_on,,0,0,10,,,,,,,,,,,,,,,,15,,48,0
23279,note_on,,0,0,10,,,,,,,,,,,,,,,,15,,72,0
23279,note_on,,119,0,10,,,,,,,,,,,,,,,,15,,75,0
23280,note_on,,0,0,10,,,,,,,,,,,,,,,,15,,67,48
23280,note_on,,1,0,10,,,,,,,,,,,,,,,,15,,55,48
23280,note_on,,1,0,9,,,,,,,,,,,,,,,,13,,55,48
23280,note_on,,0,0,10,,,,,,,,,,,,,,,,15,,63,48
23280,note_on,,0,0,10,,,,,,,,,,,,,,,,15,,72,48
23280,note_on,,1,0,6,,,,,,,,,,,,,,,,5,,75,72
23399,note_on,,239,0,7,,,,,,,,,,,,,,,,10,,72,0
23399,note_on,,0,0,10,,,,,,,,,,,,,,,,15,,72,0
23399,note_on,,0,0,10,,,,,,,,,,,,,,,,15,,67,0
23399,note_on,,0,0,10,,,,,,,,,,,,,,,,15,,63,0
23399,note_on,,119,0,9,,,,,,,,,,,,,,,,13,,55,0
23399,note_on,,119,0,10,,,,,,,,,,,,,,,,15,,55,0
23399,note_on,,119,0,6,,,,,,,,,,,,,,,,5,,75,0
23400,note_on,,0,0,10,,,,,,,,,,,,,,,,15,,71,48
23400,note_on,,1,0,9,,,,,,,,,,,,,,,,13,,43,48
23400,note_on,,1,0,7,,,,,,,,,,,,,,,,10,,71,48
23400,note_on,,361,0,8,,,,,,,,,,,,,,,,11,,71,48
23400,note_on,,0,0,10,,,,,,,,,,,,,,,,15,,62,48
23400,note_on,,0,0,10,,,,,,,,,,,,,,,,15,,67,48
23400,note_on,,1,0,10,,,,,,,,,,,,,,,,15,,43,48
23400,note_on,,1,0,6,,,,,,,,,,,,,,,,5,,74,72
23414,note_on,,14,0,6,,,,,,,,,,,,,,,,5,,74,0
23415,note_on,,1,0,6,,,,,,,,,,,,,,,,5,,75,72
23429,note_on,,14,0,6,,,,,,,,,,,,,,,,5,,75,0
23430,note_on,,1,0,6,,,,,,,,,,,,,,,,5,,74,72
23444,note_on,,14,0,6,,,,,,,,,,,,,,,,5,,74,0
23445,note_on,,1,0,6,,,,,,,,,,,,,,,,5,,75,72
23459,note_on,,14,0,6,,,,,,,,,,,,,,,,5,,75,0
23460,note_on,,1,0,6,,,,,,,,,,,,,,,,5,,74,72
23474,note_on,,14,0,6,,,,,,,,,,,,,,,,5,,74,0
23475,note_on,,1,0,6,,,,,,,,,,,,,,,,5,,75,72
23489,note_on,,14,0,6,,,,,,,,,,,,,,,,5,,75,0
23490,note_on,,1,0,6,,,,,,,,,,,,,,,,5,,72,72
23519,note_on,,119,0,7,,,,,,,,,,,,,,,,10,,71,0
23519,note_on,,119,0,9,,,,,,,,,,,,,,,,13,,43,0
23519,note_on,,0,0,10,,,,,,,,,,,,,,,,15,,62,0
23519,note_on,,0,0,10,,,,,,,,,,,,,,,,15,,67,0
23519,note_on,,0,0,10,,,,,,,,,,,,,,,,15,,71,0
23519,note_on,,119,0,8,,,,,,,,,,,,,,,,11,,71,0
23519,note_on,,119,0,10,,,,,,,,,,,,,,,,15,,43,0
23519,note_on,,29,0,6,,,,,,,,,,,,,,,,5,,72,0
23520,note_on,,1,0,6,,,,,,,,,,,,,,,,5,,72,72
23520,note_on,,1,0,7,,,,,,,,,,,,,,,,10,,72,48
23520,note_on,,1,0,9,,,,,,,,,,,,,,,,13,,48,48
23520,note_on,,1,0,8,,,,,,,,,,,,,,,,11,,72,48
23520,note_on,,1,0,10,,,,,,,,,,,,,,,,15,,48,48
23520,note_on,,0,0,10,,,,,,,,,,,,,,,,15,,72,48
23520,note_on,,0,0,10,,,,,,,,,,,,,,,,15,,55,48
23520,note_on,,0,0,10,,,,,,,,,,,,,,,,15,,63,48
23520,note_on,,0,0,10,,,,,,,,,,,,,,,,15,,67,48
23609,note_on,,89,0,8,,,,,,,,,,,,,,,,11,,72,0
23610,note_on,,1,0,8,,,,,,,,,,,,,,,,11,,70,48
23639,note_on,,119,0,6,,,,,,,,,,,,,,,,5,,72,0
23639,note_on,,29,0,8,,,,,,,,,,,,,,,,11,,70,0
23640,note_on,,1,0,8,,,,,,,,,,,,,,,,11,,70,48
23699,note_on,,0,0,10,,,,,,,,,,,,,,,,15,,63,0
23699,note_on,,0,0,10,,,,,,,,,,,,,,,,15,,55,0
23699,note_on,,179,0,7,,,,,,,,,,,,,,,,10,,72,0
23699,note_on,,0,0,10,,,,,,,,,,,,,,,,15,,67,0
23699,note_on,,179,0,10,,,,,,,,,,,,,,,,15,,72,0
23700,note_on,,1,0,7,,,,,,,,,,,,,,,,10,,72,48
23700,note_on,,61,0,6,,,,,,,,,,,,,,,,5,,72,72
23729,note_on,,89,0,8,,,,,,,,,,,,,,,,11,,70,0
23730,note_on,,1,0,8,,,,,,,,,,,,,,,,11,,69,48
23759,note_on,,59,0,7,,,,,,,,,,,,,,,,10,,72,0
23759,note_on,,29,0,8,,,,,,,,,,,,,,,,11,,69,0
23759,note_on,,59,0,6,,,,,,,,,,,,,,,,5,,72,0
23760,note_on,,1,0,7,,,,,,,,,,,,,,,,10,,72,48
23760,note_on,,1,0,6,,,,,,,,,,,,,,,,5,,72,72
23760,note_on,,1,0,8,,,,,,,,,,,,,,,,11,,69,48
23849,note_on,,89,0,7,,,,,,,,,,,,,,,,10,,72,0
23849,note_on,,89,0,6,,,,,,,,,,,,,,,,5,,72,0
23849,note_on,,89,0,8,,,,,,,,,,,,,,,,11,,69,0
23850,note_on,,1,0,6,,,,,,,,,,,,,,,,5,,70,72
23850,note_on,,1,0,7,,,,,,,,,,,,,,,,10,,70,48
23850,note_on,,1,0,8,,,,,,,,,,,,,,,,11,,67,48
23879,note_on,,29,0,8,,,,,,,,,,,,,,,,11,,67,0
23879,note_on,,29,0,6,,,,,,,,,,,,,,,,5,,70,0
23879,note_on,,29,0,7,,,,,,,,,,,,,,,,10,,70,0
23880,note_on,,1,0,8,,,,,,,,,,,,,,,,11,,67,48
23880,note_on,,1,0,6,,,,,,,,,,,,,,,,5,,70,72
23880,note_on,,1,0,7,,,,,,,,,,,,,,,,10,,70,48
23969,note_on,,89,0,6,,,,,,,,,,,,,,,,5,,70,0
23969,note_on,,89,0,7,,,,,,,,,,,,,,,,10,,70,0
23969,note_on,,89,0,8,,,,,,,,,,,,,,,,11,,67,0
23970,note_on,,1,0,8,,,,,,,,,,,,,,,,11,,65,48
23970,note_on,,1,0,6,,,,,,,,,,,,,,,,5,,69,72
23970,note_on,,1,0,7,,,,,,,,,,,,,,,,10,,69,48
23999,note_on,,479,0,9,,,,,,,,,,,,,,,,13,,48,0
23999,note_on,,29,0,6,,,,,,,,,,,,,,,,5,,69,0
23999,note_on,,29,0,7,,,,,,,,,,,,,,,,10,,69,0
23999,note_on,,300,0,10,,,,,,,,,,,,,,,,15,,48,0
23999,note_on,,29,0,8,,,,,,,,,,,,,,,,11,,65,0
24000,note_on,,0,0,10,,,,,,,,,,,,,,,,15,,55,48
24000,note_on,,0,0,10,,,,,,,,,,,,,,,,15,,64,48
24000,note_on,,0,0,10,,,,,,,,,,,,,,,,15,,58,48
24000,note_on,,0,0,10,,,,,,,,,,,,,,,,15,,67,48
24000,note_on,,1,0,10,,,,,,,,,,,,,,,,15,,48,48
24000,note_on,,1,0,8,,,,,,,,,,,,,,,,11,,67,48
24000,note_on,,1,0,9,,,,,,,,,,,,,,,,13,,48,48
24000,note_on,,1,0,7,,,,,,,,,,,,,,,,10,,70,48
24000,note_on,,1,0,6,,,,,,,,,,,,,,,,5,,70,72
24089,note_on,,89,0,7,,,,,,,,,,,,,,,,10,,70,0
24090,note_on,,1,0,7,,,,,,,,,,,,,,,,10,,76,48
24119,note_on,,29,0,7,,,,,,,,,,,,,,,,10,,76,0
24120,note_on,,1,0,7,,,,,,,,,,,,,,,,10,,76,48
24209,note_on,,89,0,7,,,,,,,,,,,,,,,,10,,76,0
24210,note_on,,1,0,7,,,,,,,,,,,,,,,,10,,79,48
24239,note_on,,0,0,10,,,,,,,,,,,,,,,,15,,55,0
24239,note_on,,0,0,10,,,,,,,,,,,,,,,,15,,58,0
24239,note_on,,239,0,6,,,,,,,,,,,,,,,,5,,70,0
24239,note_on,,29,0,7,,,,,,,,,,,,,,,,10,,79,0
24239,note_on,,239,0,10,,,,,,,,,,,,,,,,15,,67,0
24239,note_on,,0,0,10,,,,,,,,,,,,,,,,15,,64,0
24240,note_on,,1,0,7,,,,,,,,,,,,,,,,10,,79,48
24299,note_on,,299,0,8,,,,,,,,,,,,,,,,11,,67,0
24300,note_on,,1,0,8,,,,,,,,,,,,,,,,11,,67,48
24300,note_on,,61,0,6,,,,,,,,,,,,,,,,5,,70,72
24329,note_on,,89,0,7,,,,,,,,,,,,,,,,10,,79,0
24330,note_on,,1,0,7,,,,,,,,,,,,,,,,10,,70,48
24359,note_on,,59,0,6,,,,,,,,,,,,,,,,5,,70,0
24359,note_on,,59,0,8,,,,,,,,,,,,,,,,11,,67,0
24359,note_on,,29,0,7,,,,,,,,,,,,,,,,10,,70,0
24360,note_on,,1,0,8,,,,,,,,,,,,,,,,11,,65,48
24360,note_on,,1,0,7,,,,,,,,,,,,,,,,10,,69,48
24360,note_on,,1,0,6,,,,,,,,,,,,,,,,5,,69,72
24419,note_on,,59,0,8,,,,,,,,,,,,,,,,11,,65,0
24419,note_on,,59,0,7,,,,,,,,,,,,,,,,10,,69,0
24419,note_on,,59,0,6,,,,,,,,,,,,,,,,5,,69,0
24420,note_on,,1,0,6,,,,,,,,,,,,,,,,5,,67,72
24420,note_on,,1,0,8,,,,,,,,,,,,,,,,11,,64,48
24420,note_on,,1,0,7,,,,,,,,,,,,,,,,10,,67,48
24479,note_on,,59,0,7,,,,,,,,,,,,,,,,10,,67,0
24479,note_on,,240,0,10,,,,,,,,,,,,,,,,15,,48,0
24479,note_on,,479,0,9,,,,,,,,,,,,,,,,13,,48,0
24479,note_on,,59,0,8,,,,,,,,,,,,,,,,11,,64,0
24479,note_on,,59,0,6,,,,,,,,,,,,,,,,5,,67,0
24480,note_on,,1,0,6,,,,,,,,,,,,,,,,5,,69,72
24480,note_on,,0,0,10,,,,,,,,,,,,,,,,15,,53,48
24480,note_on,,0,0,10,,,,,,,,,,,,,,,,15,,57,48
24480,note_on,,0,0,10,,,,,,,,,,,,,,,,15,,60,48
24480,note_on,,0,0,10,,,,,,,,,,,,,,,,15,,65,48
24480,note_on,,0,0,10,,,,,,,,,,,,,,,,15,,69,48
24480,note_on,,1,0,10,,,,,,,,,,,,,,,,15,,48,48
24480,note_on,,1,0,7,,,,,,,,,,,,,,,,10,,69,48
24480,note_on,,1,0,8,,,,,,,,,,,,,,,,11,,65,48
24480,note_on,,1,0,9,,,,,,,,,,,,,,,,13,,48,48
24539,note_on,,59,0,7,,,,,,,,,,,,,,,,10,,69,0
24540,note_on,,1,0,7,,,,,,,,,,,,,,,,10,,72,48
24599,note_on,,59,0,7,,,,,,,,,,,,,,,,10,,72,0
24600,note_on,,1,0,7,,,,,,,,,,,,,,,,10,,72,48
24659,note_on,,59,0,7,,,,,,,,,,,,,,,,10,,72,0
24660,note_on,,1,0,7,,,,,,,,,,,,,,,,10,,77,48
24719,note_on,,239,0,10,,,,,,,,,,,,,,,,15,,69,0
24719,note_on,,59,0,7,,,,,,,,,,,,,,,,10,,77,0
24719,note_on,,239,0,6,,,,,,,,,,,,,,,,5,,69,0
24719,note_on,,0,0,10,,,,,,,,,,,,,,,,15,,53,0
24719,note_on,,0,0,10,,,,,,,,,,,,,,,,15,,57,0
24719,note_on,,0,0,10,,,,,,,,,,,,,,,,15,,65,0
24719,note_on,,0,0,10,,,,,,,,,,,,,,,,15,,60,0
24720,note_on,,1,0,7,,,,,,,,,,,,,,,,10,,77,48
24779,note_on,,59,0,7,,,,,,,,,,,,,,,,10,,77,0
24779,note_on,,299,0,8,,,,,,,,,,,,,,,,11,,65,0
24780,note_on,,1,0,7,,,,,,,,,,,,,,,,10,,69,48
24780,note_on,,1,0,8,,,,,,,,,,,,,,,,11,,65,48
24839,note_on,,59,0,7,,,,,,,,,,,,,,,,10,,69,0
24839,note_on,,59,0,8,,,,,,,,,,,,,,,,11,,65,0
24840,note_on,,1,0,7,,,,,,,,,,,,,,,,10,,67,48
24840,note_on,,1,0,8,,,,,,,,,,,,,,,,11,,64,48
24899,note_on,,59,0,8,,,,,,,,,,,,,,,,11,,64,0
24899,note_on,,59,0,7,,,,,,,,,,,,,,,,10,,67,0
24900,note_on,,1,0,7,,,,,,,,,,,,,,,,10,,65,48
24900,note_on,,1,0,8,,,,,,,,,,,,,,,,11,,62,48
24959,note_on,,479,0,9,,,,,,,,,,,,,,,,13,,48,0
24959,note_on,,59,0,7,,,,,,,,,,,,,,,,10,,65,0
24959,note_on,,240,0,10,,,,,,,,,,,,,,,,15,,48,0
24959,note_on,,59,0,8,,,,,,,,,,,,,,,,11,,62,0
24960,note_on,,0,0,10,,,,,,,,,,,,,,,,15,,67,48
24960,note_on,,1,0,10,,,,,,,,,,,,,,,,15,,49,48
24960,note_on,,241,0,6,,,,,,,,,,,,,,,,5,,67,72
24960,note_on,,1,0,9,,,,,,,,,,,,,,,,13,,49,48
24960,note_on,,0,0,10,,,,,,,,,,,,,,,,15,,55,48
24960,note_on,,1,0,8,,,,,,,,,,,,,,,,11,,64,48
24960,note_on,,0,0,10,,,,,,,,,,,,,,,,15,,64,48
24960,note_on,,1,0,7,,,,,,,,,,,,,,,,10,,67,48
24960,note_on,,0,0,10,,,,,,,,,,,,,,,,15,,58,48
25019,note_on,,59,0,7,,,,,,,,,,,,,,,,10,,67,0
25020,note_on,,1,0,7,,,,,,,,,,,,,,,,10,,73,48
25079,note_on,,59,0,7,,,,,,,,,,,,,,,,10,,73,0
25080,note_on,,1,0,7,,,,,,,,,,,,,,,,10,,73,48
25139,note_on,,59,0,7,,,,,,,,,,,,,,,,10,,73,0
25140,note_on,,1,0,7,,,,,,,,,,,,,,,,10,,76,48
25199,note_on,,239,0,10,,,,,,,,,,,,,,,,15,,67,0
25199,note_on,,0,0,10,,,,,,,,,,,,,,,,15,,64,0
25199,note_on,,0,0,10,,,,,,,,,,,,,,,,15,,58,0
25199,note_on,,0,0,10,,,,,,,,,,,,,,,,15,,55,0
25199,note_on,,59,0,7,,,,,,,,,,,,,,,,10,,76,0
25199,note_on,,239,0,6,,,,,,,,,,,,,,,,5,,67,0
25200,note_on,,1,0,7,,,,,,,,,,,,,,,,10,,69,48
25260,note_on,,61,0,6,,,,,,,,,,,,,,,,5,,67,72
25319,note_on,,59,0,6,,,,,,,,,,,,,,,,5,,67,0
25320,note_on,,1,0,6,,,,,,,,,,,,,,,,5,,65,72
25379,note_on,,59,0,6,,,,,,,,,,,,,,,,5,,65,0
25380,note_on,,1,0,6,,,,,,,,,,,,,,,,5,,64,72
25439,note_on,,59,0,6,,,,,,,,,,,,,,,,5,,64,0
25439,note_on,,239,0,7,,,,,,,,,,,,,,,,10,,69,0
25439,note_on,,479,0,9,,,,,,,,,,,,,,,,13,,49,0
25439,note_on,,479,0,8,,,,,,,,,,,,,,,,11,,64,0
25439,note_on,,240,0,10,,,,,,,,,,,,,,,,15,,49,0
25440,note_on,,1,0,7,,,,,,,,,,,,,,,,10,,69,48
25440,note_on,,1,0,9,,,,,,,,,,,,,,,,13,,50,48
25440,note_on,,0,0,10,,,,,,,,,,,,,,,,15,,62,48
25440,note_on,,0,0,10,,,,,,,,,,,,,,,,15,,57,48
25440,note_on,,1,0,8,,,,,,,,,,,,,,,,11,,65,48
25440,note_on,,1,0,10,,,,,,,,,,,,,,,,15,,50,48
25440,note_on,,0,0,10,,,,,,,,,,,,,,,,15,,65,48
25440,note_on,,1,0,6,,,,,,,,,,,,,,,,5,,65,72
25499,note_on,,59,0,6,,,,,,,,,,,,,,,,5,,65,0
25500,note_on,,1,0,6,,,,,,,,,,,,,,,,5,,69,72
25559,note_on,,119,0,9,,,,,,,,,,,,,,,,13,,50,0
25559,note_on,,119,0,7,,,,,,,,,,,,,,,,10,,69,0
25559,note_on,,0,0,10,,,,,,,,,,,,,,,,15,,57,0
25559,note_on,,119,0,10,,,,,,,,,,,,,,,,15,,50,0
25559,note_on,,0,0,10,,,,,,,,,,,,,,,,15,,62,0
25559,note_on,,0,0,10,,,,,,,,,,,,,,,,15,,65,0
25559,note_on,,119,0,8,,,,,,,,,,,,,,,,11,,65,0
25559,note_on,,59,0,6,,,,,,,,,,,,,,,,5,,69,0
25560,note_on,,0,0,10,,,,,,,,,,,,,,,,15,,73,48
25560,note_on,,1,0,10,,,,,,,,,,,,,,,,15,,52,48
25560,note_on,,0,0,10,,,,,,,,,,,,,,,,15,,55,48
25560,note_on,,1,0,9,,,,,,,,,,,,,,,,13,,52,48
25560,note_on,,0,0,10,,,,,,,,,,,,,,,,15,,67,48
25560,note_on,,1,0,6,,,,,,,,,,,,,,,,5,,67,72
25619,note_on,,59,0,6,,,,,,,,,,,,,,,,5,,67,0
25620,note_on,,1,0,6,,,,,,,,,,,,,,,,5,,70,72
25679,note_on,,119,0,10,,,,,,,,,,,,,,,,15,,52,0
25679,note_on,,0,0,10,,,,,,,,,,,,,,,,15,,73,0
25679,note_on,,0,0,10,,,,,,,,,,,,,,,,15,,67,0
25679,note_on,,0,0,10,,,,,,,,,,,,,,,,15,,55,0
25679,note_on,,119,0,9,,,,,,,,,,,,,,,,13,,52,0
25679,note_on,,59,0,6,,,,,,,,,,,,,,,,5,,70,0
25680,note_on,,0,0,10,,,,,,,,,,,,,,,,15,,62,48
25680,note_on,,0,0,10,,,,,,,,,,,,,,,,15,,74,48
25680,note_on,,1,0,10,,,,,,,,,,,,,,,,15,,53,48
25680,note_on,,1,0,6,,,,,,,,,,,,,,,,5,,69,72
25680,note_on,,1,0,9,,,,,,,,,,,,,,,,13,,53,48
25680,note_on,,0,0,10,,,,,,,,,,,,,,,,15,,57,48
25739,note_on,,59,0,6,,,,,,,,,,,,,,,,5,,69,0
25740,note_on,,1,0,6,,,,,,,,,,,,,,,,5,,77,72
25799,note_on,,119,0,9,,,,,,,,,,,,,,,,13,,53,0
25799,note_on,,59,0,6,,,,,,,,,,,,,,,,5,,77,0
25799,note_on,,119,0,10,,,,,,,,,,,,,,,,15,,53,0
25799,note_on,,0,0,10,,,,,,,,,,,,,,,,15,,74,0
25799,note_on,,0,0,10,,,,,,,,,,,,,,,,15,,62,0
25799,note_on,,0,0,10,,,,,,,,,,,,,,,,15,,57,0
25800,note_on,,1,0,10,,,,,,,,,,,,,,,,15,,55,48
25800,note_on,,0,0,10,,,,,,,,,,,,,,,,15,,70,48
25800,note_on,,0,0,10,,,,,,,,,,,,,,,,15,,67,48
25800,note_on,,1,0,6,,,,,,,,,,,,,,,,5,,76,72
25800,note_on,,1,0,9,,,,,,,,,,,,,,,,13,,55,48
25800,note_on,,0,0,10,,,,,,,,,,,,,,,,15,,58,48
25859,note_on,,59,0,6,,,,,,,,,,,,,,,,5,,76,0
25860,note_on,,1,0,6,,,,,,,,,,,,,,,,5,,74,72
25919,note_on,,0,0,10,,,,,,,,,,,,,,,,15,,67,0
25919,note_on,,119,0,9,,,,,,,,,,,,,,,,13,,55,0
25919,note_on,,0,0,10,,,,,,,,,,,,,,,,15,,58,0
25919,note_on,,0,0,10,,,,,,,,,,,,,,,,15,,70,0
25919,note_on,,119,0,10,,,,,,,,,,,,,,,,15,,55,0
25919,note_on,,59,0,6,,,,,,,,,,,,,,,,5,,74,0
25920,note_on,,0,0,10,,,,,,,,,,,,,,,,15,,61,48
25920,note_on,,0,0,10,,,,,,,,,,,,,,,,15,,64,48
25920,note_on,,0,0,10,,,,,,,,,,,,,,,,15,,69,48
25920,note_on,,1,0,10,,,,,,,,,,,,,,,,15,,57,48
25920,note_on,,1,0,6,,,,,,,,,,,,,,,,5,,74,72
25920,note_on,,1,0,9,,,,,,,,,,,,,,,,13,,57,48
25934,note_on,,14,0,6,,,,,,,,,,,,,,,,5,,74,0
25935,note_on,,1,0,6,,,,,,,,,,,,,,,,5,,74,72
25949,note_on,,14,0,6,,,,,,,,,,,,,,,,5,,74,0
25950,note_on,,1,0,6,,,,,,,,,,,,,,,,5,,73,72
25964,note_on,,14,0,6,,,,,,,,,,,,,,,,5,,73,0
25965,note_on,,1,0,6,,,,,,,,,,,,,,,,5,,74,72
25979,note_on,,14,0,6,,,,,,,,,,,,,,,,5,,74,0
25980,note_on,,1,0,6,,,,,,,,,,,,,,,,5,,70,72
26039,note_on,,59,0,6,,,,,,,,,,,,,,,,5,,70,0
26040,note_on,,1,0,6,,,,,,,,,,,,,,,,5,,69,72
26099,note_on,,179,0,10,,,,,,,,,,,,,,,,15,,69,0
26099,note_on,,0,0,10,,,,,,,,,,,,,,,,15,,64,0
26099,note_on,,0,0,10,,,,,,,,,,,,,,,,15,,61,0
26100,note_on,,541,0,8,,,,,,,,,,,,,,,,11,,65,48
26100,note_on,,541,0,7,,,,,,,,,,,,,,,,10,,74,48
26159,note_on,,59,0,7,,,,,,,,,,,,,,,,10,,74,0
26159,note_on,,119,0,6,,,,,,,,,,,,,,,,5,,69,0
26159,note_on,,59,0,8,,,,,,,,,,,,,,,,11,,65,0
26160,note_on,,1,0,7,,,,,,,,,,,,,,,,10,,73,48
26160,note_on,,1,0,8,,,,,,,,,,,,,,,,11,,64,48
26160,note_on,,0,0,10,,,,,,,,,,,,,,,,15,,67,48
26160,note_on,,0,0,10,,,,,,,,,,,,,,,,15,,64,48
26160,note_on,,61,0,10,,,,,,,,,,,,,,,,15,,73,48
26219,note_on,,59,0,8,,,,,,,,,,,,,,,,11,,64,0
26219,note_on,,59,0,7,,,,,,,,,,,,,,,,10,,73,0
26220,note_on,,1,0,8,,,,,,,,,,,,,,,,11,,65,48
26220,note_on,,1,0,7,,,,,,,,,,,,,,,,10,,74,48
26279,note_on,,59,0,8,,,,,,,,,,,,,,,,11,,65,0
26279,note_on,,59,0,7,,,,,,,,,,,,,,,,10,,74,0
26280,note_on,,1,0,8,,,,,,,,,,,,,,,,11,,67,48
26280,note_on,,1,0,7,,,,,,,,,,,,,,,,10,,76,48
26339,note_on,,0,0,10,,,,,,,,,,,,,,,,15,,64,0
26339,note_on,,59,0,7,,,,,,,,,,,,,,,,10,,76,0
26339,note_on,,59,0,8,,,,,,,,,,,,,,,,11,,67,0
26339,note_on,,0,0,10,,,,,,,,,,,,,,,,15,,67,0
26339,note_on,,179,0,10,,,,,,,,,,,,,,,,15,,73,0
26340,note_on,,1,0,7,,,,,,,,,,,,,,,,10,,74,48
26340,note_on,,1,0,8,,,,,,,,,,,,,,,,11,,65,48
26399,note_on,,479,0,9,,,,,,,,,,,,,,,,13,,57,0
26399,note_on,,59,0,8,,,,,,,,,,,,,,,,11,,65,0
26399,note_on,,60,0,10,,,,,,,,,,,,,,,,15,,57,0
26399,note_on,,59,0,7,,,,,,,,,,,,,,,,10,,74,0
26400,note_on,,1,0,8,,,,,,,,,,,,,,,,11,,64,48
26400,note_on,,1,0,10,,,,,,,,,,,,,,,,15,,57,48
26400,note_on,,0,0,10,,,,,,,,,,,,,,,,15,,76,48
26400,note_on,,0,0,10,,,,,,,,,,,,,,,,15,,73,48
26400,note_on,,0,0,10,,,,,,,,,,,,,,,,15,,67,48
26400,note_on,,1,0,7,,,,,,,,,,,,,,,,10,,73,48
26400,note_on,,1,0,9,,,,,,,,,,,,,,,,13,,57,48
26459,note_on,,59,0,8,,,,,,,,,,,,,,,,11,,64,0
26459,note_on,,59,0,7,,,,,,,,,,,,,,,,10,,73,0
26460,note_on,,1,0,7,,,,,,,,,,,,,,,,10,,74,48
26460,note_on,,1,0,8,,,,,,,,,,,,,,,,11,,62,48
26519,note_on,,59,0,7,,,,,,,,,,,,,,,,10,,74,0
26519,note_on,,59,0,8,,,,,,,,,,,,,,,,11,,62,0
26520,note_on,,1,0,7,,,,,,,,,,,,,,,,10,,76,48
26520,note_on,,1,0,8,,,,,,,,,,,,,,,,11,,61,48
26579,note_on,,59,0,7,,,,,,,,,,,,,,,,10,,76,0
26579,note_on,,179,0,10,,,,,,,,,,,,,,,,15,,76,0
26579,note_on,,0,0,10,,,,,,,,,,,,,,,,15,,67,0
26579,note_on,,0,0,10,,,,,,,,,,,,,,,,15,,73,0
26579,note_on,,59,0,8,,,,,,,,,,,,,,,,11,,61,0
26580,note_on,,1,0,7,,,,,,,,,,,,,,,,10,,77,48
26580,note_on,,1,0,8,,,,,,,,,,,,,,,,11,,69,48
26580,note_on,,421,0,6,,,,,,,,,,,,,,,,5,,74,72
26639,note_on,,59,0,6,,,,,,,,,,,,,,,,5,,74,0
26639,note_on,,59,0,7,,,,,,,,,,,,,,,,10,,77,0
26639,note_on,,59,0,8,,,,,,,,,,,,,,,,11,,69,0
26640,note_on,,1,0,7,,,,,,,,,,,,,,,,10,,76,48
26640,note_on,,0,0,10,,,,,,,,,,,,,,,,15,,67,48
26640,note_on,,1,0,6,,,,,,,,,,,,,,,,5,,73,72
26640,note_on,,1,0,8,,,,,,,,,,,,,,,,11,,69,48
26640,note_on,,0,0,10,,,,,,,,,,,,,,,,15,,64,48
26640,note_on,,61,0,10,,,,,,,,,,,,,,,,15,,69,48
26699,note_on,,59,0,6,,,,,,,,,,,,,,,,5,,73,0
26699,note_on,,59,0,7,,,,,,,,,,,,,,,,10,,76,0
26700,note_on,,1,0,6,,,,,,,,,,,,,,,,5,,74,72
26700,note_on,,1,0,7,,,,,,,,,,,,,,,,10,,77,48
26759,note_on,,59,0,7,,,,,,,,,,,,,,,,10,,77,0
26759,note_on,,59,0,6,,,,,,,,,,,,,,,,5,,74,0
26760,note_on,,1,0,7,,,,,,,,,,,,,,,,10,,79,48
26760,note_on,,1,0,6,,,,,,,,,,,,,,,,5,,76,72
26819,note_on,,179,0,10,,,,,,,,,,,,,,,,15,,69,0
26819,note_on,,59,0,7,,,,,,,,,,,,,,,,10,,79,0
26819,note_on,,0,0,10,,,,,,,,,,,,,,,,15,,64,0
26819,note_on,,0,0,10,,,,,,,,,,,,,,,,15,,67,0
26819,note_on,,59,0,6,,,,,,,,,,,,,,,,5,,76,0
26820,note_on,,1,0,7,,,,,,,,,,,,,,,,10,,77,48
26820,note_on,,1,0,6,,,,,,,,,,,,,,,,5,,74,72
26879,note_on,,479,0,9,,,,,,,,,,,,,,,,13,,57,0
26879,note_on,,60,0,10,,,,,,,,,,,,,,,,15,,57,0
26879,note_on,,59,0,6,,,,,,,,,,,,,,,,5,,74,0
26879,note_on,,59,0,7,,,,,,,,,,,,,,,,10,,77,0
26880,note_on,,0,0,10,,,,,,,,,,,,,,,,15,,64,48
26880,note_on,,1,0,9,,,,,,,,,,,,,,,,13,,57,48
26880,note_on,,0,0,10,,,,,,,,,,,,,,,,15,,67,48
26880,note_on,,0,0,10,,,,,,,,,,,,,,,,15,,73,48
26880,note_on,,1,0,7,,,,,,,,,,,,,,,,10,,76,48
26880,note_on,,1,0,10,,,,,,,,,,,,,,,,15,,57,48
26880,note_on,,1,0,6,,,,,,,,,,,,,,,,5,,73,72
26939,note_on,,59,0,7,,,,,,,,,,,,,,,,10,,76,0
26939,note_on,,59,0,6,,,,,,,,,,,,,,,,5,,73,0
26940,note_on,,1,0,7,,,,,,,,,,,,,,,,10,,77,48
26940,note_on,,1,0,6,,,,,,,,,,,,,,,,5,,74,72
26999,note_on,,59,0,7,,,,,,,,,,,,,,,,10,,77,0
26999,note_on,,59,0,6,,,,,,,,,,,,,,,,5,,74,0
27000,note_on,,1,0,7,,,,,,,,,,,,,,,,10,,79,48
27000,note_on,,1,0,6,,,,,,,,,,,,,,,,5,,76,72
27059,note_on,,179,0,10,,,,,,,,,,,,,,,,15,,73,0
27059,note_on,,0,0,10,,,,,,,,,,,,,,,,15,,67,0
27059,note_on,,0,0,10,,,,,,,,,,,,,,,,15,,64,0
27059,note_on,,59,0,7,,,,,,,,,,,,,,,,10,,79,0
27059,note_on,,59,0,6,,,,,,,,,,,,,,,,5,,76,0
27060,note_on,,1,0,7,,,,,,,,,,,,,,,,10,,77,48
27060,note_on,,1,0,6,,,,,,,,,,,,,,,,5,,74,72
27119,note_on,,59,0,6,,,,,,,,,,,,,,,,5,,74,0
27119,note_on,,59,0,7,,,,,,,,,,,,,,,,10,,77,0
27120,note_on,,1,0,6,,,,,,,,,,,,,,,,5,,73,72
27120,note_on,,0,0,10,,,,,,,,,,,,,,,,15,,73,48
27120,note_on,,61,0,10,,,,,,,,,,,,,,,,15,,76,48
27120,note_on,,0,0,10,,,,,,,,,,,,,,,,15,,67,48
27120,note_on,,1,0,7,,,,,,,,,,,,,,,,10,,76,48
27179,note_on,,59,0,7,,,,,,,,,,,,,,,,10,,76,0
27179,note_on,,59,0,6,,,,,,,,,,,,,,,,5,,73,0
27180,note_on,,1,0,6,,,,,,,,,,,,,,,,5,,74,72
27180,note_on,,1,0,7,,,,,,,,,,,,,,,,10,,77,48
27239,note_on,,59,0,6,,,,,,,,,,,,,,,,5,,74,0
27239,note_on,,59,0,7,,,,,,,,,,,,,,,,10,,77,0
27240,note_on,,1,0,6,,,,,,,,,,,,,,,,5,,76,72
27240,note_on,,1,0,7,,,,,,,,,,,,,,,,10,,79,48
27299,note_on,,59,0,6,,,,,,,,,,,,,,,,5,,76,0
27299,note_on,,0,0,10,,,,,,,,,,,,,,,,15,,67,0
27299,note_on,,59,0,7,,,,,,,,,,,,,,,,10,,79,0
27299,note_on,,0,0,10,,,,,,,,,,,,,,,,15,,73,0
27299,note_on,,179,0,10,,,,,,,,,,,,,,,,15,,76,0
27300,note_on,,1,0,6,,,,,,,,,,,,,,,,5,,74,72
27300,note_on,,1,0,7,,,,,,,,,,,,,,,,10,,77,48
27359,note_on,,59,0,7,,,,,,,,,,,,,,,,10,,77,0
27359,note_on,,60,0,10,,,,,,,,,,,,,,,,15,,57,0
27359,note_on,,59,0,6,,,,,,,,,,,,,,,,5,,74,0
27359,note_on,,479,0,9,,,,,,,,,,,,,,,,13,,57,0
27360,note_on,,1,0,10,,,,,,,,,,,,,,,,15,,57,48
27360,note_on,,0,0,10,,,,,,,,,,,,,,,,15,,81,48
27360,note_on,,1,0,9,,,,,,,,,,,,,,,,13,,57,48
27360,note_on,,1,0,6,,,,,,,,,,,,,,,,5,,73,72
27360,note_on,,0,0,10,,,,,,,,,,,,,,,,15,,73,48
27360,note_on,,0,0,10,,,,,,,,,,,,,,,,15,,76,48
27360,note_on,,1,0,7,,,,,,,,,,,,,,,,10,,76,48
27374,note_on,,14,0,6,,,,,,,,,,,,,,,,5,,73,0
27375,note_on,,1,0,6,,,,,,,,,,,,,,,,5,,74,72
27389,note_on,,14,0,6,,,,,,,,,,,,,,,,5,,74,0
27390,note_on,,1,0,6,,,,,,,,,,,,,,,,5,,73,72
27404,note_on,,14,0,6,,,,,,,,,,,,,,,,5,,73,0
27405,note_on,,1,0,6,,,,,,,,,,,,,,,,5,,74,72
27419,note_on,,779,0,8,,,,,,,,,,,,,,,,11,,69,0
27419,note_on,,59,0,7,,,,,,,,,,,,,,,,10,,76,0
27419,note_on,,14,0,6,,,,,,,,,,,,,,,,5,,74,0
27420,note_on,,1,0,8,,,,,,,,,,,,,,,,11,,69,40
27420,note_on,,1,0,7,,,,,,,,,,,,,,,,10,,69,40
27420,note_on,,1,0,6,,,,,,,,,,,,,,,,5,,71,72
27479,note_on,,59,0,7,,,,,,,,,,,,,,,,10,,69,0
27479,note_on,,59,0,6,,,,,,,,,,,,,,,,5,,71,0
27479,note_on,,59,0,8,,,,,,,,,,,,,,,,11,,69,0
27480,note_on,,1,0,8,,,,,,,,,,,,,,,,11,,73,40
27480,note_on,,1,0,7,,,,,,,,,,,,,,,,10,,73,40
27480,note_on,,1,0,6,,,,,,,,,,,,,,,,5,,69,72
27539,note_on,,0,0,10,,,,,,,,,,,,,,,,15,,81,0
27539,note_on,,59,0,8,,,,,,,,,,,,,,,,11,,73,0
27539,note_on,,179,0,10,,,,,,,,,,,,,,,,15,,57,0
27539,note_on,,179,0,9,,,,,,,,,,,,,,,,13,,57,0
27539,note_on,,59,0,7,,,,,,,,,,,,,,,,10,,73,0
27539,note_on,,0,0,10,,,,,,,,,,,,,,,,15,,73,0
27539,note_on,,0,0,10,,,,,,,,,,,,,,,,15,,76,0
27540,note_on,,1,0,10,,,,,,,,,,,,,,,,15,,55,48
27540,note_on,,1,0,8,,,,,,,,,,,,,,,,11,,76,40
27540,note_on,,1,0,9,,,,,,,,,,,,,,,,13,,55,48
27540,note_on,,1,0,7,,,,,,,,,,,,,,,,10,,76,40
27599,note_on,,59,0,7,,,,,,,,,,,,,,,,10,,76,0
27599,note_on,,59,0,8,,,,,,,,,,,,,,,,11,,76,0
27599,note_on,,59,0,9,,,,,,,,,,,,,,,,13,,55,0
27599,note_on,,119,0,6,,,,,,,,,,,,,,,,5,,69,0
27599,note_on,,59,0,10,,,,,,,,,,,,,,,,15,,55,0
27600,note_on,,1,0,7,,,,,,,,,,,,,,,,10,,81,40
27600,note_on,,1,0,9,,,,,,,,,,,,,,,,13,,54,48
27600,note_on,,0,0,10,,,,,,,,,,,,,,,,15,,69,48
27600,note_on,,1,0,8,,,,,,,,,,,,,,,,11,,81,40
27600,note_on,,1,0,10,,,,,,,,,,,,,,,,15,,54,48
27600,note_on,,0,0,10,,,,,,,,,,,,,,,,15,,74,48
27600,note_on,,0,0,10,,,,,,,,,,,,,,,,15,,62,48
27660,note_on,,61,0,6,,,,,,,,,,,,,,,,5,,69,72
27719,note_on,,59,0,6,,,,,,,,,,,,,,,,5,,69,0
27720,note_on,,1,0,6,,,,,,,,,,,,,,,,5,,74,72
27779,note_on,,59,0,6,,,,,,,,,,,,,,,,5,,74,0
27780,note_on,,1,0,6,,,,,,,,,,,,,,,,5,,72,72
27839,note_on,,59,0,6,,,,,,,,,,,,,,,,5,,72,0
27839,note_on,,0,0,10,,,,,,,,,,,,,,,,15,,62,0
27839,note_on,,0,0,10,,,,,,,,,,,,,,,,15,,69,0
27839,note_on,,0,0,10,,,,,,,,,,,,,,,,15,,74,0
27839,note_on,,239,0,10,,,,,,,,,,,,,,,,15,,54,0
27839,note_on,,239,0,9,,,,,,,,,,,,,,,,13,,54,0
27840,note_on,,1,0,10,,,,,,,,,,,,,,,,15,,55,48
27840,note_on,,0,0,10,,,,,,,,,,,,,,,,15,,74,48
27840,note_on,,0,0,10,,,,,,,,,,,,,,,,15,,70,48
27840,note_on,,0,0,10,,,,,,,,,,,,,,,,15,,62,48
27840,note_on,,1,0,9,,,,,,,,,,,,,,,,13,,55,48
27840,note_on,,1,0,6,,,,,,,,,,,,,,,,5,,70,72
27959,note_on,,119,0,6,,,,,,,,,,,,,,,,5,,70,0
27959,note_on,,359,0,8,,,,,,,,,,,,,,,,11,,81,0
27959,note_on,,359,0,7,,,,,,,,,,,,,,,,10,,81,0
27960,note_on,,1,0,7,,,,,,,,,,,,,,,,10,,74,40
27960,note_on,,1,0,8,,,,,,,,,,,,,,,,11,,74,40
28079,note_on,,0,0,10,,,,,,,,,,,,,,,,15,,62,0
28079,note_on,,119,0,7,,,,,,,,,,,,,,,,10,,74,0
28079,note_on,,0,0,10,,,,,,,,,,,,,,,,15,,70,0
28079,note_on,,239,0,10,,,,,,,,,,,,,,,,15,,55,0
28079,note_on,,239,0,9,,,,,,,,,,,,,,,,13,,55,0
28079,note_on,,119,0,8,,,,,,,,,,,,,,,,11,,74,0
28079,note_on,,0,0,10,,,,,,,,,,,,,,,,15,,74,0
28080,note_on,,1,0,10,,,,,,,,,,,,,,,,15,,52,48
28080,note_on,,1,0,7,,,,,,,,,,,,,,,,10,,79,40
28080,note_on,,0,0,10,,,,,,,,,,,,,,,,15,,70,48
28080,note_on,,0,0,10,,,,,,,,,,,,,,,,15,,72,48
28080,note_on,,0,0,10,,,,,,,,,,,,,,,,15,,67,48
28080,note_on,,1,0,9,,,,,,,,,,,,,,,,13,,52,48
28080,note_on,,1,0,8,,,,,,,,,,,,,,,,11,,79,40
28140,note_on,,181,0,6,,,,,,,,,,,,,,,,5,,70,72
28199,note_on,,59,0,6,,,,,,,,,,,,,,,,5,,70,0
28200,note_on,,1,0,6,,,,,,,,,,,,,,,,5,,72,72
28259,note_on,,59,0,6,,,,,,,,,,,,,,,,5,,72,0
28260,note_on,,1,0,6,,,,,,,,,,,,,,,,5,,70,72
28319,note_on,,239,0,10,,,,,,,,,,,,,,,,15,,52,0
28319,note_on,,59,0,6,,,,,,,,,,,,,,,,5,,70,0
28319,note_on,,239,0,9,,,,,,,,,,,,,,,,13,,52,0
28319,note_on,,0,0,10,,,,,,,,,,,,,,,,15,,67,0
28319,note_on,,0,0,10,,,,,,,,,,,,,,,,15,,70,0
28319,note_on,,0,0,10,,,,,,,,,,,,,,,,15,,72,0
28320,note_on,,1,0,9,,,,,,,,,,,,,,,,13,,49,48
28320,note_on,,0,0,10,,,,,,,,,,,,,,,,15,,76,48
28320,note_on,,0,0,10,,,,,,,,,,,,,,,,15,,69,48
28320,note_on,,0,0,10,,,,,,,,,,,,,,,,15,,67,48
28320,note_on,,1,0,6,,,,,,,,,,,,,,,,5,,69,72
28320,note_on,,1,0,10,,,,,,,,,,,,,,,,15,,49,48
28379,note_on,,299,0,7,,,,,,,,,,,,,,,,10,,79,0
28379,note_on,,299,0,8,,,,,,,,,,,,,,,,11,,79,0
28380,note_on,,1,0,7,,,,,,,,,,,,,,,,10,,79,40
28380,note_on,,1,0,8,,,,,,,,,,,,,,,,11,,79,40
28439,note_on,,59,0,7,,,,,,,,,,,,,,,,10,,79,0
28439,note_on,,59,0,8,,,,,,,,,,,,,,,,11,,79,0
28440,note_on,,1,0,8,,,,,,,,,,,,,,,,11,,77,40
28440,note_on,,1,0,7,,,,,,,,,,,,,,,,10,,77,40
28499,note_on,,59,0,7,,,,,,,,,,,,,,,,10,,77,0
28499,note_on,,59,0,8,,,,,,,,,,,,,,,,11,,77,0
28500,note_on,,1,0,7,,,,,,,,,,,,,,,,10,,76,40
28500,note_on,,1,0,8,,,,,,,,,,,,,,,,11,,76,40
28559,note_on,,59,0,7,,,,,,,,,,,,,,,,10,,76,0
28559,note_on,,59,0,8,,,,,,,,,,,,,,,,11,,76,0
28559,note_on,,239,0,9,,,,,,,,,,,,,,,,13,,49,0
28559,note_on,,0,0,10,,,,,,,,,,,,,,,,15,,69,0
28559,note_on,,0,0,10,,,,,,,,,,,,,,,,15,,76,0
28559,note_on,,239,0,10,,,,,,,,,,,,,,,,15,,49,0
28559,note_on,,239,0,6,,,,,,,,,,,,,,,,5,,69,0
28559,note_on,,0,0,10,,,,,,,,,,,,,,,,15,,67,0
28560,note_on,,1,0,8,,,,,,,,,,,,,,,,11,,77,40
28560,note_on,,1,0,10,,,,,,,,,,,,,,,,15,,50,48
28560,note_on,,1,0,9,,,,,,,,,,,,,,,,13,,50,48
28560,note_on,,1,0,7,,,,,,,,,,,,,,,,10,,77,40
28560,note_on,,0,0,10,,,,,,,,,,,,,,,,15,,69,48
28560,note_on,,0,0,10,,,,,,,,,,,,,,,,15,,65,48
28560,note_on,,0,0,10,,,,,,,,,,,,,,,,15,,62,48
28799,note_on,,239,0,10,,,,,,,,,,,,,,,,15,,50,0
28799,note_on,,0,0,10,,,,,,,,,,,,,,,,15,,65,0
28799,note_on,,0,0,10,,,,,,,,,,,,,,,,15,,62,0
28799,note_on,,0,0,10,,,,,,,,,,,,,,,,15,,69,0
28799,note_on,,239,0,9,,,,,,,,,,,,,,,,13,,50,0
28800,note_on,,241,0,6,,,,,,,,,,,,,,,,5,,67,72
28800,note_on,,0,0,10,,,,,,,,,,,,,,,,15,,67,48
28800,note_on,,0,0,10,,,,,,,,,,,,,,,,15,,70,48
28800,note_on,,0,0,10,,,,,,,,,,,,,,,,15,,55,48
28800,note_on,,1,0,10,,,,,,,,,,,,,,,,15,,46,48
28800,note_on,,1,0,9,,,,,,,,,,,,,,,,13,,46,48
28859,note_on,,299,0,7,,,,,,,,,,,,,,,,10,,77,0
28859,note_on,,299,0,8,,,,,,,,,,,,,,,,11,,77,0
28860,note_on,,1,0,8,,,,,,,,,,,,,,,,11,,77,40
28860,note_on,,1,0,7,,,,,,,,,,,,,,,,10,,77,40
28919,note_on,,59,0,7,,,,,,,,,,,,,,,,10,,77,0
28919,note_on,,59,0,8,,,,,,,,,,,,,,,,11,,77,0
28920,note_on,,1,0,7,,,,,,,,,,,,,,,,10,,75,40
28920,note_on,,1,0,8,,,,,,,,,,,,,,,,11,,75,40
28979,note_on,,59,0,7,,,,,,,,,,,,,,,,10,,75,0
28979,note_on,,59,0,8,,,,,,,,,,,,,,,,11,,75,0
28980,note_on,,1,0,7,,,,,,,,,,,,,,,,10,,74,40
28980,note_on,,1,0,8,,,,,,,,,,,,,,,,11,,74,40
29039,note_on,,59,0,7,,,,,,,,,,,,,,,,10,,74,0
29039,note_on,,59,0,8,,,,,,,,,,,,,,,,11,,74,0
29040,note_on,,1,0,7,,,,,,,,,,,,,,,,10,,75,40
29040,note_on,,1,0,8,,,,,,,,,,,,,,,,11,,75,40
29099,note_on,,59,0,7,,,,,,,,,,,,,,,,10,,75,0
29099,note_on,,59,0,8,,,,,,,,,,,,,,,,11,,75,0
29100,note_on,,1,0,8,,,,,,,,,,,,,,,,11,,79,40
29100,note_on,,1,0,7,,,,,,,,,,,,,,,,10,,79,40
29159,note_on,,59,0,7,,,,,,,,,,,,,,,,10,,79,0
29159,note_on,,59,0,8,,,,,,,,,,,,,,,,11,,79,0
29160,note_on,,1,0,7,,,,,,,,,,,,,,,,10,,75,40
29160,note_on,,1,0,8,,,,,,,,,,,,,,,,11,,75,40
29219,note_on,,59,0,8,,,,,,,,,,,,,,,,11,,75,0
29219,note_on,,59,0,7,,,,,,,,,,,,,,,,10,,75,0
29220,note_on,,1,0,7,,,,,,,,,,,,,,,,10,,74,40
29220,note_on,,1,0,8,,,,,,,,,,,,,,,,11,,74,40
29279,note_on,,479,0,10,,,,,,,,,,,,,,,,15,,46,0
29279,note_on,,0,0,10,,,,,,,,,,,,,,,,15,,55,0
29279,note_on,,0,0,10,,,,,,,,,,,,,,,,15,,70,0
29279,note_on,,0,0,10,,,,,,,,,,,,,,,,15,,67,0
29279,note_on,,479,0,9,,,,,,,,,,,,,,,,13,,46,0
29279,note_on,,59,0,7,,,,,,,,,,,,,,,,10,,74,0
29279,note_on,,59,0,8,,,,,,,,,,,,,,,,11,,74,0
29280,note_on,,1,0,7,,,,,,,,,,,,,,,,10,,73,40
29280,set_tempo,,29280,1,0,,,,,,,,,1000000,,,,,,,,,,
29280,note_on,,1,0,10,,,,,,,,,,,,,,,,15,,45,48
29280,note_on,,0,0,10,,,,,,,,,,,,,,,,15,,69,48
29280,note_on,,0,0,10,,,,,,,,,,,,,,,,15,,64,48
29280,note_on,,0,0,10,,,,,,,,,,,,,,,,15,,61,48
29280,note_on,,0,0,10,,,,,,,,,,,,,,,,15,,55,48
29280,note_on,,1,0,9,,,,,,,,,,,,,,,,13,,45,48
29280,note_on,,1,0,8,,,,,,,,,,,,,,,,11,,73,40
29519,note_on,,719,0,6,,,,,,,,,,,,,,,,5,,67,0
29519,note_on,,239,0,8,,,,,,,,,,,,,,,,11,,73,0
29519,note_on,,239,0,7,,,,,,,,,,,,,,,,10,,73,0
29580,note_on,,61,0,6,,,,,,,,,,,,,,,,5,,76,72
29639,note_on,,59,0,6,,,,,,,,,,,,,,,,5,,76,0
29639,note_on,,0,0,10,,,,,,,,,,,,,,,,15,,55,0
29639,note_on,,0,0,10,,,,,,,,,,,,,,,,15,,61,0
29639,note_on,,0,0,10,,,,,,,,,,,,,,,,15,,64,0
29639,note_on,,0,0,10,,,,,,,,,,,,,,,,15,,69,0
29639,note_on,,359,0,10,,,,,,,,,,,,,,,,15,,45,0
29639,note_on,,359,0,9,,,,,,,,,,,,,,,,13,,45,0
29640,note_on,,0,0,10,,,,,,,,,,,,,,,,15,,69,48
29640,note_on,,1,0,6,,,,,,,,,,,,,,,,5,,73,72
29640,note_on,,1,0,9,,,,,,,,,,,,,,,,13,,55,48
29640,note_on,,0,0,10,,,,,,,,,,,,,,,,15,,57,48
29640,note_on,,1,0,10,,,,,,,,,,,,,,,,15,,55,48
29640,note_on,,0,0,10,,,,,,,,,,,,,,,,15,,76,48
29640,note_on,,0,0,10,,,,,,,,,,,,,,,,15,,73,48
29640,note_on,,0,0,10,,,,,,,,,,,,,,,,15,,64,48
29699,note_on,,59,0,6,,,,,,,,,,,,,,,,5,,73,0
29700,note_on,,1,0,6,,,,,,,,,,,,,,,,5,,69,72
29759,note_on,,59,0,6,,,,,,,,,,,,,,,,5,,69,0
29759,note_on,,119,0,10,,,,,,,,,,,,,,,,15,,55,0
29759,note_on,,0,0,10,,,,,,,,,,,,,,,,15,,69,0
29759,note_on,,119,0,9,,,,,,,,,,,,,,,,13,,55,0
29759,note_on,,0,0,10,,,,,,,,,,,,,,,,15,,73,0
29759,note_on,,0,0,10,,,,,,,,,,,,,,,,15,,76,0
29759,note_on,,0,0,10,,,,,,,,,,,,,,,,15,,64,0
29759,note_on,,0,0,10,,,,,,,,,,,,,,,,15,,57,0
29760,note_on,,1,0,10,,,,,,,,,,,,,,,,15,,53,48
29760,note_on,,0,0,10,,,,,,,,,,,,,,,,15,,77,48
29760,note_on,,0,0,10,,,,,,,,,,,,,,,,15,,74,48
29760,note_on,,0,0,10,,,,,,,,,,,,,,,,15,,69,48
29760,note_on,,0,0,10,,,,,,,,,,,,,,,,15,,57,48
29760,note_on,,1,0,6,,,,,,,,,,,,,,,,5,,74,72
29760,note_on,,1,0,9,,,,,,,,,,,,,,,,13,,53,48
30059,note_on,,299,0,6,,,,,,,,,,,,,,,,5,,74,0
30060,note_on,,1,0,6,,,,,,,,,,,,,,,,5,,70,72
30119,note_on,,0,0,10,,,,,,,,,,,,,,,,15,,57,0
30119,note_on,,359,0,9,,,,,,,,,,,,,,,,13,,53,0
30119,note_on,,0,0,10,,,,,,,,,,,,,,,,15,,69,0
30119,note_on,,0,0,10,,,,,,,,,,,,,,,,15,,74,0
30119,note_on,,0,0,10,,,,,,,,,,,,,,,,15,,77,0
30119,note_on,,359,0,10,,,,,,,,,,,,,,,,15,,53,0
30119,note_on,,59,0,6,,,,,,,,,,,,,,,,5,,70,0
30120,note_on,,1,0,9,,,,,,,,,,,,,,,,13,,55,48
30120,note_on,,1,0,10,,,,,,,,,,,,,,,,15,,55,48
30120,note_on,,0,0,10,,,,,,,,,,,,,,,,15,,76,48
30120,note_on,,0,0,10,,,,,,,,,,,,,,,,15,,58,48
30120,note_on,,0,0,10,,,,,,,,,,,,,,,,15,,67,48
30120,note_on,,0,0,10,,,,,,,,,,,,,,,,15,,70,48
30120,note_on,,1,0,6,,,,,,,,,,,,,,,,5,,69,72
30179,note_on,,59,0,6,,,,,,,,,,,,,,,,5,,69,0
30180,note_on,,1,0,6,,,,,,,,,,,,,,,,5,,79,72
30239,note_on,,59,0,6,,,,,,,,,,,,,,,,5,,79,0
30239,note_on,,119,0,10,,,,,,,,,,,,,,,,15,,55,0
30239,note_on,,0,0,10,,,,,,,,,,,,,,,,15,,76,0
30239,note_on,,0,0,10,,,,,,,,,,,,,,,,15,,70,0
30239,note_on,,0,0,10,,,,,,,,,,,,,,,,15,,67,0
30239,note_on,,0,0,10,,,,,,,,,,,,,,,,15,,58,0
30239,note_on,,119,0,9,,,,,,,,,,,,,,,,13,,55,0
30240,note_on,,0,0,10,,,,,,,,,,,,,,,,15,,69,48
30240,note_on,,0,0,10,,,,,,,,,,,,,,,,15,,62,48
30240,note_on,,0,0,10,,,,,,,,,,,,,,,,15,,74,48
30240,note_on,,1,0,9,,,,,,,,,,,,,,,,13,,57,48
30240,note_on,,0,0,10,,,,,,,,,,,,,,,,15,,65,48
30240,note_on,,1,0,10,,,,,,,,,,,,,,,,15,,57,48
30240,note_on,,1,0,6,,,,,,,,,,,,,,,,5,,77,72
30479,note_on,,239,0,10,,,,,,,,,,,,,,,,15,,57,0
30479,note_on,,0,0,10,,,,,,,,,,,,,,,,15,,74,0
30479,note_on,,0,0,10,,,,,,,,,,,,,,,,15,,69,0
30479,note_on,,0,0,10,,,,,,,,,,,,,,,,15,,65,0
30479,note_on,,0,0,10,,,,,,,,,,,,,,,,15,,62,0
30479,note_on,,239,0,9,,,,,,,,,,,,,,,,13,,57,0
30479,note_on,,239,0,6,,,,,,,,,,,,,,,,5,,77,0
30480,set_tempo,,1200,1,0,,,,,,,,,750000,,,,,,,,,,
30480,note_on,,0,0,10,,,,,,,,,,,,,,,,15,,69,48
30480,note_on,,0,0,10,,,,,,,,,,,,,,,,15,,57,48
30480,note_on,,1,0,9,,,,,,,,,,,,,,,,13,,45,48
30480,note_on,,1,0,6,,,,,,,,,,,,,,,,5,,76,72
30480,note_on,,0,0,10,,,,,,,,,,,,,,,,15,,64,48
30480,note_on,,0,0,10,,,,,,,,,,,,,,,,15,,73,48
30480,note_on,,1,0,10,,,,,,,,,,,,,,,,15,,45,48
30494,note_on,,14,0,6,,,,,,,,,,,,,,,,5,,76,0
30495,note_on,,1,0,6,,,,,,,,,,,,,,,,5,,77,72
30509,note_on,,14,0,6,,,,,,,,,,,,,,,,5,,77,0
30510,note_on,,1,0,6,,,,,,,,,,,,,,,,5,,76,72
30524,note_on,,14,0,6,,,,,,,,,,,,,,,,5,,76,0
30525,note_on,,1,0,6,,,,,,,,,,,,,,,,5,,77,72
30539,note_on,,14,0,6,,,,,,,,,,,,,,,,5,,77,0
30540,note_on,,1,0,6,,,,,,,,,,,,,,,,5,,76,72
30554,note_on,,14,0,6,,,,,,,,,,,,,,,,5,,76,0
30555,note_on,,1,0,6,,,,,,,,,,,,,,,,5,,77,72
30569,note_on,,14,0,6,,,,,,,,,,,,,,,,5,,77,0
30570,note_on,,1,0,6,,,,,,,,,,,,,,,,5,,76,72
30584,note_on,,14,0,6,,,,,,,,,,,,,,,,5,,76,0
30585,note_on,,1,0,6,,,,,,,,,,,,,,,,5,,77,72
30599,note_on,,14,0,6,,,,,,,,,,,,,,,,5,,77,0
30600,note_on,,1,0,6,,,,,,,,,,,,,,,,5,,76,72
30614,note_on,,14,0,6,,,,,,,,,,,,,,,,5,,76,0
30615,note_on,,1,0,6,,,,,,,,,,,,,,,,5,,77,72
30629,note_on,,14,0,6,,,,,,,,,,,,,,,,5,,77,0
30630,note_on,,1,0,6,,,,,,,,,,,,,,,,5,,76,72
30644,note_on,,14,0,6,,,,,,,,,,,,,,,,5,,76,0
30645,note_on,,1,0,6,,,,,,,,,,,,,,,,5,,77,72
30659,note_on,,14,0,6,,,,,,,,,,,,,,,,5,,77,0
30660,note_on,,1,0,6,,,,,,,,,,,,,,,,5,,74,72
30719,note_on,,239,0,9,,,,,,,,,,,,,,,,13,,45,0
30719,note_on,,59,0,6,,,,,,,,,,,,,,,,5,,74,0
30719,note_on,,239,0,10,,,,,,,,,,,,,,,,15,,45,0
30719,note_on,,0,0,10,,,,,,,,,,,,,,,,15,,73,0
30719,note_on,,0,0,10,,,,,,,,,,,,,,,,15,,69,0
30719,note_on,,0,0,10,,,,,,,,,,,,,,,,15,,64,0
30719,note_on,,0,0,10,,,,,,,,,,,,,,,,15,,57,0
30720,note_on,,0,0,10,,,,,,,,,,,,,,,,15,,57,48
30720,note_on,,1,0,6,,,,,,,,,,,,,,,,5,,74,72
30720,note_on,,1,0,9,,,,,,,,,,,,,,,,13,,50,48
30720,note_on,,0,0,10,,,,,,,,,,,,,,,,15,,69,48
30720,note_on,,0,0,10,,,,,,,,,,,,,,,,15,,74,48
30720,note_on,,1,0,10,,,,,,,,,,,,,,,,15,,50,48
30720,note_on,,0,0,10,,,,,,,,,,,,,,,,15,,65,48
30900,note_on,,1381,0,8,,,,,,,,,,,,,,,,11,,65,72
30900,note_on,,1381,0,7,,,,,,,,,,,,,,,,10,,65,72
30959,note_on,,239,0,6,,,,,,,,,,,,,,,,5,,74,0
30959,note_on,,59,0,8,,,,,,,,,,,,,,,,11,,65,0
30959,note_on,,59,0,7,,,,,,,,,,,,,,,,10,,65,0
30959,note_on,,239,0,9,,,,,,,,,,,,,,,,13,,50,0
30959,note_on,,0,0,10,,,,,,,,,,,,,,,,15,,57,0
30959,note_on,,0,0,10,,,,,,,,,,,,,,,,15,,65,0
30959,note_on,,0,0,10,,,,,,,,,,,,,,,,15,,69,0
30959,note_on,,0,0,10,,,,,,,,,,,,,,,,15,,74,0
30959,note_on,,239,0,10,,,,,,,,,,,,,,,,15,,50,0
30960,note_on,,1,0,10,,,,,,,,,,,,,,,,15,,46,72
30960,note_on,,8281,0,5,,,,,,,,,,,,,,,,2,,46,72
30960,set_tempo,,480,1,0,,,,,,,,,500000,,,,,,,,,,
30960,note_on,,1,0,7,,,,,,,,,,,,,,,,10,,70,72
30960,note_on,,0,0,10,,,,,,,,,,,,,,,,15,,58,72
30960,note_on,,1,0,8,,,,,,,,,,,,,,,,11,,70,72
30960,note_on,,0,0,10,,,,,,,,,,,,,,,,15,,77,72
30960,note_on,,0,0,10,,,,,,,,,,,,,,,,15,,74,72
30960,note_on,,0,0,10,,,,,,,,,,,,,,,,15,,70,72
30960,note_on,,1,0,9,,,,,,,,,,,,,,,,13,,46,72
31079,note_on,,119,0,10,,,,,,,,,,,,,,,,15,,46,0
31079,note_on,,0,0,10,,,,,,,,,,,,,,,,15,,58,0
31079,note_on,,119,0,8,,,,,,,,,,,,,,,,11,,70,0
31079,note_on,,119,0,5,,,,,,,,,,,,,,,,2,,46,0
31079,note_on,,119,0,7,,,,,,,,,,,,,,,,10,,70,0
31079,note_on,,119,0,9,,,,,,,,,,,,,,,,13,,46,0
31080,note_on,,1,0,10,,,,,,,,,,,,,,,,15,,58,72
31080,note_on,,1,0,5,,,,,,,,,,,,,,,,2,,58,72
31080,note_on,,1,0,9,,,,,,,,,,,,,,,,13,,58,72
31140,note_on,,61,0,7,,,,,,,,,,,,,,,,10,,65,72
31140,note_on,,61,0,8,,,,,,,,,,,,,,,,11,,65,72
31199,note_on,,119,0,10,,,,,,,,,,,,,,,,15,,77,0
31199,note_on,,0,0,10,,,,,,,,,,,,,,,,15,,74,0
31199,note_on,,59,0,7,,,,,,,,,,,,,,,,10,,65,0
31199,note_on,,0,0,10,,,,,,,,,,,,,,,,15,,70,0
31199,note_on,,119,0,9,,,,,,,,,,,,,,,,13,,58,0
31199,note_on,,0,0,10,,,,,,,,,,,,,,,,15,,58,0
31199,note_on,,119,0,5,,,,,,,,,,,,,,,,2,,58,0
31199,note_on,,59,0,8,,,,,,,,,,,,,,,,11,,65,0
31200,note_on,,0,0,10,,,,,,,,,,,,,,,,15,,72,72
31200,note_on,,1,0,8,,,,,,,,,,,,,,,,11,,72,72
31200,note_on,,0,0,10,,,,,,,,,,,,,,,,15,,65,72
31200,note_on,,1,0,5,,,,,,,,,,,,,,,,2,,57,72
31200,note_on,,1,0,7,,,,,,,,,,,,,,,,10,,72,72
31200,note_on,,1,0,10,,,,,,,,,,,,,,,,15,,57,72
31200,note_on,,1,0,9,,,,,,,,,,,,,,,,13,,57,72
31319,note_on,,0,0,10,,,,,,,,,,,,,,,,15,,72,0
31319,note_on,,119,0,8,,,,,,,,,,,,,,,,11,,72,0
31319,note_on,,119,0,7,,,,,,,,,,,,,,,,10,,72,0
31319,note_on,,119,0,10,,,,,,,,,,,,,,,,15,,57,0
31319,note_on,,119,0,5,,,,,,,,,,,,,,,,2,,57,0
31319,note_on,,0,0,10,,,,,,,,,,,,,,,,15,,65,0
31319,note_on,,119,0,9,,,,,,,,,,,,,,,,13,,57,0
31320,note_on,,1,0,5,,,,,,,,,,,,,,,,2,,53,72
31320,note_on,,1,0,10,,,,,,,,,,,,,,,,15,,53,72
31320,note_on,,0,0,10,,,,,,,,,,,,,,,,15,,69,72
31320,note_on,,1,0,9,,,,,,,,,,,,,,,,13,,53,72
31320,note_on,,0,0,10,,,,,,,,,,,,,,,,15,,60,72
31320,note_on,,0,0,10,,,,,,,,,,,,,,,,15,,65,72
31380,note_on,,61,0,8,,,,,,,,,,,,,,,,11,,65,72
31380,note_on,,61,0,7,,,,,,,,,,,,,,,,10,,65,72
31439,note_on,,119,0,10,,,,,,,,,,,,,,,,15,,53,0
31439,note_on,,0,0,10,,,,,,,,,,,,,,,,15,,69,0
31439,note_on,,0,0,10,,,,,,,,,,,,,,,,15,,65,0
31439,note_on,,119,0,5,,,,,,,,,,,,,,,,2,,53,0
31439,note_on,,0,0,10,,,,,,,,,,,,,,,,15,,60,0
31439,note_on,,59,0,8,,,,,,,,,,,,,,,,11,,65,0
31439,note_on,,119,0,9,,,,,,,,,,,,,,,,13,,53,0
31439,note_on,,59,0,7,,,,,,,,,,,,,,,,10,,65,0
31440,note_on,,1,0,7,,,,,,,,,,,,,,,,10,,74,72
31440,note_on,,1,0,5,,,,,,,,,,,,,,,,2,,58,72
31440,note_on,,0,0,10,,,,,,,,,,,,,,,,15,,62,72
31440,note_on,,0,0,10,,,,,,,,,,,,,,,,15,,65,72
31440,note_on,,0,0,10,,,,,,,,,,,,,,,,15,,70,72
31440,note_on,,1,0,10,,,,,,,,,,,,,,,,15,,58,72
31440,note_on,,1,0,8,,,,,,,,,,,,,,,,11,,74,72
31440,note_on,,1,0,9,,,,,,,,,,,,,,,,13,,58,72
31499,note_on,,59,0,7,,,,,,,,,,,,,,,,10,,74,0
31499,note_on,,59,0,8,,,,,,,,,,,,,,,,11,,74,0
31500,note_on,,1,0,7,,,,,,,,,,,,,,,,10,,70,72
31500,note_on,,1,0,8,,,,,,,,,,,,,,,,11,,70,72
31529,note_on,,29,0,7,,,,,,,,,,,,,,,,10,,70,0
31529,note_on,,29,0,8,,,,,,,,,,,,,,,,11,,70,0
31530,note_on,,1,0,7,,,,,,,,,,,,,,,,10,,72,72
31530,note_on,,1,0,8,,,,,,,,,,,,,,,,11,,72,72
31559,note_on,,0,0,10,,,,,,,,,,,,,,,,15,,70,0
31559,note_on,,29,0,7,,,,,,,,,,,,,,,,10,,72,0
31559,note_on,,119,0,10,,,,,,,,,,,,,,,,15,,58,0
31559,note_on,,119,0,9,,,,,,,,,,,,,,,,13,,58,0
31559,note_on,,0,0,10,,,,,,,,,,,,,,,,15,,62,0
31559,note_on,,0,0,10,,,,,,,,,,,,,,,,15,,65,0
31559,note_on,,29,0,8,,,,,,,,,,,,,,,,11,,72,0
31559,note_on,,119,0,5,,,,,,,,,,,,,,,,2,,58,0
31560,note_on,,1,0,7,,,,,,,,,,,,,,,,10,,74,72
31560,note_on,,0,0,10,,,,,,,,,,,,,,,,15,,70,72
31560,note_on,,0,0,10,,,,,,,,,,,,,,,,15,,67,72
31560,note_on,,1,0,9,,,,,,,,,,,,,,,,13,,55,72
31560,note_on,,0,0,10,,,,,,,,,,,,,,,,15,,74,72
31560,note_on,,1,0,10,,,,,,,,,,,,,,,,15,,55,72
31560,note_on,,1,0,8,,,,,,,,,,,,,,,,11,,74,72
31560,note_on,,1,0,5,,,,,,,,,,,,,,,,2,,55,72
31619,note_on,,59,0,7,,,,,,,,,,,,,,,,10,,74,0
31619,note_on,,59,0,8,,,,,,,,,,,,,,,,11,,74,0
31620,note_on,,1,0,7,,,,,,,,,,,,,,,,10,,77,72
31620,note_on,,1,0,8,,,,,,,,,,,,,,,,11,,77,72
31649,note_on,,29,0,8,,,,,,,,,,,,,,,,11,,77,0
31649,note_on,,29,0,7,,,,,,,,,,,,,,,,10,,77,0
31650,note_on,,1,0,7,,,,,,,,,,,,,,,,10,,76,72
31650,note_on,,1,0,8,,,,,,,,,,,,,,,,11,,76,72
31679,note_on,,119,0,9,,,,,,,,,,,,,,,,13,,55,0
31679,note_on,,0,0,10,,,,,,,,,,,,,,,,15,,74,0
31679,note_on,,0,0,10,,,,,,,,,,,,,,,,15,,70,0
31679,note_on,,0,0,10,,,,,,,,,,,,,,,,15,,67,0
31679,note_on,,29,0,7,,,,,,,,,,,,,,,,10,,76,0
31679,note_on,,29,0,8,,,,,,,,,,,,,,,,11,,76,0
31679,note_on,,119,0,10,,,,,,,,,,,,,,,,15,,55,0
31679,note_on,,119,0,5,,,,,,,,,,,,,,,,2,,55,0
31680,note_on,,1,0,8,,,,,,,,,,,,,,,,11,,77,72
31680,note_on,,1,0,7,,,,,,,,,,,,,,,,10,,77,72
31680,note_on,,1,0,9,,,,,,,,,,,,,,,,13,,53,72
31680,note_on,,0,0,10,,,,,,,,,,,,,,,,15,,72,72
31680,note_on,,0,0,10,,,,,,,,,,,,,,,,15,,69,72
31680,note_on,,1,0,5,,,,,,,,,,,,,,,,2,,53,72
31680,note_on,,1,0,10,,,,,,,,,,,,,,,,15,,53,72
31680,note_on,,0,0,10,,,,,,,,,,,,,,,,15,,77,72
31739,note_on,,59,0,8,,,,,,,,,,,,,,,,11,,77,0
31739,note_on,,59,0,7,,,,,,,,,,,,,,,,10,,77,0
31740,note_on,,1,0,8,,,,,,,,,,,,,,,,11,,65,72
31740,note_on,,1,0,7,,,,,,,,,,,,,,,,10,,65,72
31799,note_on,,0,0,10,,,,,,,,,,,,,,,,15,,69,0
31799,note_on,,59,0,8,,,,,,,,,,,,,,,,11,,65,0
31799,note_on,,59,0,7,,,,,,,,,,,,,,,,10,,65,0
31799,note_on,,119,0,9,,,,,,,,,,,,,,,,13,,53,0
31799,note_on,,119,0,10,,,,,,,,,,,,,,,,15,,53,0
31799,note_on,,0,0,10,,,,,,,,,,,,,,,,15,,77,0
31799,note_on,,119,0,5,,,,,,,,,,,,,,,,2,,53,0
31799,note_on,,0,0,10,,,,,,,,,,,,,,,,15,,72,0
31860,note_on,,901,0,6,,,,,,,,,,,,,,,,5,,65,72
31919,note_on,,59,0,6,,,,,,,,,,,,,,,,5,,65,0
31920,note_on,,121,0,9,,,,,,,,,,,,,,,,13,,50,48
31920,note_on,,0,0,10,,,,,,,,,,,,,,,,15,,58,48
31920,note_on,,0,0,10,,,,,,,,,,,,,,,,15,,65,48
31920,note_on,,121,0,10,,,,,,,,,,,,,,,,15,,50,48
31920,note_on,,1,0,6,,,,,,,,,,,,,,,,5,,70,72
32039,note_on,,119,0,6,,,,,,,,,,,,,,,,5,,70,0
32039,note_on,,0,0,10,,,,,,,,,,,,,,,,15,,58,0
32039,note_on,,0,0,10,,,,,,,,,,,,,,,,15,,65,0
32039,note_on,,119,0,9,,,,,,,,,,,,,,,,13,,50,0
32039,note_on,,119,0,10,,,,,,,,,,,,,,,,15,,50,0
32040,note_on,,0,0,10,,,,,,,,,,,,,,,,15,,65,48
32040,note_on,,0,0,10,,,,,,,,,,,,,,,,15,,74,48
32040,note_on,,1,0,9,,,,,,,,,,,,,,,,13,,58,48
32040,note_on,,1,0,10,,,,,,,,,,,,,,,,15,,58,48
32040,note_on,,0,0,10,,,,,,,,,,,,,,,,15,,70,48
32100,note_on,,61,0,6,,,,,,,,,,,,,,,,5,,65,72
32159,note_on,,0,0,10,,,,,,,,,,,,,,,,15,,74,0
32159,note_on,,119,0,9,,,,,,,,,,,,,,,,13,,58,0
32159,note_on,,0,0,10,,,,,,,,,,,,,,,,15,,65,0
32159,note_on,,59,0,6,,,,,,,,,,,,,,,,5,,65,0
32159,note_on,,119,0,10,,,,,,,,,,,,,,,,15,,58,0
32159,note_on,,0,0,10,,,,,,,,,,,,,,,,15,,70,0
32160,note_on,,1,0,9,,,,,,,,,,,,,,,,13,,57,48
32160,note_on,,0,0,10,,,,,,,,,,,,,,,,15,,65,48
32160,note_on,,1,0,6,,,,,,,,,,,,,,,,5,,72,72
32160,note_on,,0,0,10,,,,,,,,,,,,,,,,15,,72,48
32160,note_on,,1,0,10,,,,,,,,,,,,,,,,15,,57,48
32279,note_on,,0,0,10,,,,,,,,,,,,,,,,15,,65,0
32279,note_on,,0,0,10,,,,,,,,,,,,,,,,15,,72,0
32279,note_on,,119,0,10,,,,,,,,,,,,,,,,15,,57,0
32279,note_on,,119,0,9,,,,,,,,,,,,,,,,13,,57,0
32279,note_on,,119,0,6,,,,,,,,,,,,,,,,5,,72,0
32280,note_on,,1,0,9,,,,,,,,,,,,,,,,13,,53,48
32280,note_on,,0,0,10,,,,,,,,,,,,,,,,15,,69,48
32280,note_on,,0,0,10,,,,,,,,,,,,,,,,15,,72,48
32280,note_on,,0,0,10,,,,,,,,,,,,,,,,15,,77,48
32280,note_on,,1,0,10,,,,,,,,,,,,,,,,15,,53,48
32340,note_on,,61,0,6,,,,,,,,,,,,,,,,5,,65,72
32399,note_on,,0,0,10,,,,,,,,,,,,,,,,15,,69,0
32399,note_on,,119,0,9,,,,,,,,,,,,,,,,13,,53,0
32399,note_on,,119,0,10,,,,,,,,,,,,,,,,15,,53,0
32399,note_on,,59,0,6,,,,,,,,,,,,,,,,5,,65,0
32399,note_on,,0,0,10,,,,,,,,,,,,,,,,15,,77,0
32399,note_on,,0,0,10,,,,,,,,,,,,,,,,15,,72,0
32400,note_on,,1,0,9,,,,,,,,,,,,,,,,13,,58,48
32400,note_on,,1,0,6,,,,,,,,,,,,,,,,5,,74,72
32400,note_on,,0,0,10,,,,,,,,,,,,,,,,15,,65,48
32400,note_on,,0,0,10,,,,,,,,,,,,,,,,15,,70,48
32400,note_on,,0,0,10,,,,,,,,,,,,,,,,15,,74,48
32400,note_on,,1,0,10,,,,,,,,,,,,,,,,15,,58,48
32459,note_on,,59,0,6,,,,,,,,,,,,,,,,5,,74,0
32460,note_on,,1,0,6,,,,,,,,,,,,,,,,5,,72,72
32489,note_on,,29,0,6,,,,,,,,,,,,,,,,5,,72,0
32490,note_on,,1,0,6,,,,,,,,,,,,,,,,5,,70,72
32519,note_on,,0,0,10,,,,,,,,,,,,,,,,15,,65,0
32519,note_on,,119,0,10,,,,,,,,,,,,,,,,15,,58,0
32519,note_on,,0,0,10,,,,,,,,,,,,,,,,15,,74,0
32519,note_on,,119,0,9,,,,,,,,,,,,,,,,13,,58,0
32519,note_on,,29,0,6,,,,,,,,,,,,,,,,5,,70,0
32519,note_on,,0,0,10,,,,,,,,,,,,,,,,15,,70,0
32520,note_on,,1,0,10,,,,,,,,,,,,,,,,15,,55,48
32520,note_on,,1,0,6,,,,,,,,,,,,,,,,5,,74,72
32520,note_on,,1,0,9,,,,,,,,,,,,,,,,13,,55,48
32520,note_on,,0,0,10,,,,,,,,,,,,,,,,15,,70,48
32520,note_on,,0,0,10,,,,,,,,,,,,,,,,15,,58,48
32520,note_on,,0,0,10,,,,,,,,,,,,,,,,15,,67,48
32549,note_on,,29,0,6,,,,,,,,,,,,,,,,5,,74,0
32550,note_on,,1,0,6,,,,,,,,,,,,,,,,5,,77,72
32579,note_on,,29,0,6,,,,,,,,,,,,,,,,5,,77,0
32580,note_on,,1,0,6,,,,,,,,,,,,,,,,5,,76,72
32639,note_on,,119,0,10,,,,,,,,,,,,,,,,15,,55,0
32639,note_on,,0,0,10,,,,,,,,,,,,,,,,15,,67,0
32639,note_on,,0,0,10,,,,,,,,,,,,,,,,15,,70,0
32639,note_on,,59,0,6,,,,,,,,,,,,,,,,5,,76,0
32639,note_on,,119,0,9,,,,,,,,,,,,,,,,13,,55,0
32639,note_on,,0,0,10,,,,,,,,,,,,,,,,15,,58,0
32640,note_on,,1,0,6,,,,,,,,,,,,,,,,5,,77,72
32640,note_on,,1,0,10,,,,,,,,,,,,,,,,15,,53,48
32640,note_on,,0,0,10,,,,,,,,,,,,,,,,15,,72,48
32640,note_on,,0,0,10,,,,,,,,,,,,,,,,15,,69,48
32640,note_on,,0,0,10,,,,,,,,,,,,,,,,15,,57,48
32640,note_on,,1,0,9,,,,,,,,,,,,,,,,13,,53,48
32699,note_on,,59,0,6,,,,,,,,,,,,,,,,5,,77,0
32700,note_on,,1,0,6,,,,,,,,,,,,,,,,5,,65,72
32759,note_on,,119,0,10,,,,,,,,,,,,,,,,15,,53,0
32759,note_on,,0,0,10,,,,,,,,,,,,,,,,15,,72,0
32759,note_on,,0,0,10,,,,,,,,,,,,,,,,15,,69,0
32759,note_on,,0,0,10,,,,,,,,,,,,,,,,15,,57,0
32759,note_on,,59,0,6,,,,,,,,,,,,,,,,5,,65,0
32759,note_on,,119,0,9,,,,,,,,,,,,,,,,13,,53,0
32760,note_on,,961,0,5,,,,,,,,,,,,,,,,2,,51,48
32760,note_on,,1,0,9,,,,,,,,,,,,,,,,13,,51,48
32760,note_on,,0,0,10,,,,,,,,,,,,,,,,15,,60,48
32760,note_on,,0,0,10,,,,,,,,,,,,,,,,15,,65,48
32760,note_on,,0,0,10,,,,,,,,,,,,,,,,15,,69,48
32760,note_on,,1,0,10,,,,,,,,,,,,,,,,15,,51,48
32790,note_on,,991,0,8,,,,,,,,,,,,,,,,11,,65,72
32790,note_on,,991,0,7,,,,,,,,,,,,,,,,10,,65,72
32819,note_on,,29,0,8,,,,,,,,,,,,,,,,11,,65,0
32819,note_on,,29,0,7,,,,,,,,,,,,,,,,10,,65,0
32820,note_on,,1,0,8,,,,,,,,,,,,,,,,11,,69,72
32820,note_on,,1,0,7,,,,,,,,,,,,,,,,10,,69,72
32849,note_on,,29,0,8,,,,,,,,,,,,,,,,11,,69,0
32849,note_on,,29,0,7,,,,,,,,,,,,,,,,10,,69,0
32850,note_on,,1,0,8,,,,,,,,,,,,,,,,11,,72,72
32850,note_on,,1,0,7,,,,,,,,,,,,,,,,10,,72,72
32879,note_on,,119,0,9,,,,,,,,,,,,,,,,13,,51,0
32879,note_on,,0,0,10,,,,,,,,,,,,,,,,15,,65,0
32879,note_on,,0,0,10,,,,,,,,,,,,,,,,15,,69,0
32879,note_on,,0,0,10,,,,,,,,,,,,,,,,15,,60,0
32879,note_on,,119,0,5,,,,,,,,,,,,,,,,2,,51,0
32879,note_on,,119,0,10,,,,,,,,,,,,,,,,15,,51,0
32879,note_on,,29,0,8,,,,,,,,,,,,,,,,11,,72,0
32879,note_on,,29,0,7,,,,,,,,,,,,,,,,10,,72,0
32880,note_on,,1,0,7,,,,,,,,,,,,,,,,10,,77,72
32880,note_on,,1,0,5,,,,,,,,,,,,,,,,2,,50,48
32880,note_on,,0,0,10,,,,,,,,,,,,,,,,15,,62,48
32880,note_on,,0,0,10,,,,,,,,,,,,,,,,15,,65,48
32880,note_on,,1,0,8,,,,,,,,,,,,,,,,11,,77,72
32880,note_on,,1,0,10,,,,,,,,,,,,,,,,15,,50,48
32880,note_on,,0,0,10,,,,,,,,,,,,,,,,15,,70,48
32880,note_on,,1,0,9,,,,,,,,,,,,,,,,13,,50,48
32909,note_on,,29,0,8,,,,,,,,,,,,,,,,11,,77,0
32909,note_on,,29,0,7,,,,,,,,,,,,,,,,10,,77,0
32910,note_on,,1,0,7,,,,,,,,,,,,,,,,10,,75,72
32910,note_on,,1,0,8,,,,,,,,,,,,,,,,11,,75,72
32939,note_on,,29,0,8,,,,,,,,,,,,,,,,11,,75,0
32939,note_on,,29,0,7,,,,,,,,,,,,,,,,10,,75,0
32940,note_on,,1,0,8,,,,,,,,,,,,,,,,11,,77,72
32940,note_on,,1,0,7,,,,,,,,,,,,,,,,10,,77,72
32969,note_on,,29,0,8,,,,,,,,,,,,,,,,11,,77,0
32969,note_on,,29,0,7,,,,,,,,,,,,,,,,10,,77,0
32970,note_on,,1,0,8,,,,,,,,,,,,,,,,11,,74,72
32970,note_on,,1,0,7,,,,,,,,,,,,,,,,10,,74,72
32999,note_on,,119,0,10,,,,,,,,,,,,,,,,15,,50,0
32999,note_on,,0,0,10,,,,,,,,,,,,,,,,15,,70,0
32999,note_on,,119,0,9,,,,,,,,,,,,,,,,13,,50,0
32999,note_on,,0,0,10,,,,,,,,,,,,,,,,15,,65,0
32999,note_on,,119,0,5,,,,,,,,,,,,,,,,2,,50,0
32999,note_on,,29,0,8,,,,,,,,,,,,,,,,11,,74,0
32999,note_on,,29,0,7,,,,,,,,,,,,,,,,10,,74,0
32999,note_on,,0,0,10,,,,,,,,,,,,,,,,15,,62,0
33000,note_on,,1,0,9,,,,,,,,,,,,,,,,13,,45,48
33000,note_on,,1,0,5,,,,,,,,,,,,,,,,2,,45,48
33000,note_on,,1,0,7,,,,,,,,,,,,,,,,10,,75,72
33000,note_on,,1,0,8,,,,,,,,,,,,,,,,11,,75,72
33000,note_on,,0,0,10,,,,,,,,,,,,,,,,15,,60,48
33000,note_on,,0,0,10,,,,,,,,,,,,,,,,15,,72,48
33000,note_on,,0,0,10,,,,,,,,,,,,,,,,15,,65,48
33000,note_on,,1,0,10,,,,,,,,,,,,,,,,15,,45,48
33029,note_on,,29,0,7,,,,,,,,,,,,,,,,10,,75,0
33029,note_on,,29,0,8,,,,,,,,,,,,,,,,11,,75,0
33030,note_on,,1,0,7,,,,,,,,,,,,,,,,10,,74,72
33030,note_on,,1,0,8,,,,,,,,,,,,,,,,11,,74,72
33059,note_on,,29,0,7,,,,,,,,,,,,,,,,10,,74,0
33059,note_on,,29,0,8,,,,,,,,,,,,,,,,11,,74,0
33060,note_on,,1,0,7,,,,,,,,,,,,,,,,10,,75,72
33060,note_on,,1,0,8,,,,,,,,,,,,,,,,11,,75,72
33089,note_on,,29,0,8,,,,,,,,,,,,,,,,11,,75,0
33089,note_on,,29,0,7,,,,,,,,,,,,,,,,10,,75,0
33090,note_on,,1,0,7,,,,,,,,,,,,,,,,10,,72,72
33090,note_on,,1,0,8,,,,,,,,,,,,,,,,11,,72,72
33119,note_on,,29,0,7,,,,,,,,,,,,,,,,10,,72,0
33119,note_on,,119,0,9,,,,,,,,,,,,,,,,13,,45,0
33119,note_on,,29,0,8,,,,,,,,,,,,,,,,11,,72,0
33119,note_on,,119,0,5,,,,,,,,,,,,,,,,2,,45,0
33119,note_on,,0,0,10,,,,,,,,,,,,,,,,15,,60,0
33119,note_on,,119,0,10,,,,,,,,,,,,,,,,15,,45,0
33119,note_on,,0,0,10,,,,,,,,,,,,,,,,15,,72,0
33119,note_on,,0,0,10,,,,,,,,,,,,,,,,15,,65,0
33120,note_on,,1,0,8,,,,,,,,,,,,,,,,11,,74,72
33120,note_on,,1,0,5,,,,,,,,,,,,,,,,2,,46,48
33120,note_on,,0,0,10,,,,,,,,,,,,,,,,15,,65,48
33120,note_on,,0,0,10,,,,,,,,,,,,,,,,15,,62,48
33120,note_on,,1,0,9,,,,,,,,,,,,,,,,13,,46,48
33120,note_on,,0,0,10,,,,,,,,,,,,,,,,15,,70,48
33120,note_on,,1,0,7,,,,,,,,,,,,,,,,10,,74,72
33120,note_on,,1,0,10,,,,,,,,,,,,,,,,15,,46,48
33149,note_on,,29,0,8,,,,,,,,,,,,,,,,11,,74,0
33149,note_on,,29,0,7,,,,,,,,,,,,,,,,10,,74,0
33150,note_on,,1,0,8,,,,,,,,,,,,,,,,11,,72,72
33150,note_on,,1,0,7,,,,,,,,,,,,,,,,10,,72,72
33179,note_on,,29,0,8,,,,,,,,,,,,,,,,11,,72,0
33179,note_on,,29,0,7,,,,,,,,,,,,,,,,10,,72,0
33180,note_on,,1,0,8,,,,,,,,,,,,,,,,11,,74,72
33180,note_on,,1,0,7,,,,,,,,,,,,,,,,10,,74,72
33209,note_on,,29,0,8,,,,,,,,,,,,,,,,11,,74,0
33209,note_on,,29,0,7,,,,,,,,,,,,,,,,10,,74,0
33210,note_on,,1,0,8,,,,,,,,,,,,,,,,11,,70,72
33210,note_on,,1,0,7,,,,,,,,,,,,,,,,10,,70,72
33239,note_on,,119,0,10,,,,,,,,,,,,,,,,15,,46,0
33239,note_on,,119,0,9,,,,,,,,,,,,,,,,13,,46,0
33239,note_on,,119,0,5,,,,,,,,,,,,,,,,2,,46,0
33239,note_on,,29,0,7,,,,,,,,,,,,,,,,10,,70,0
33239,note_on,,29,0,8,,,,,,,,,,,,,,,,11,,70,0
33239,note_on,,0,0,10,,,,,,,,,,,,,,,,15,,62,0
33239,note_on,,0,0,10,,,,,,,,,,,,,,,,15,,65,0
33239,note_on,,0,0,10,,,,,,,,,,,,,,,,15,,70,0
33240,note_on,,1,0,10,,,,,,,,,,,,,,,,15,,53,48
33240,note_on,,1,0,5,,,,,,,,,,,,,,,,2,,53,48
33240,note_on,,0,0,10,,,,,,,,,,,,,,,,15,,69,48
33240,note_on,,0,0,10,,,,,,,,,,,,,,,,15,,65,48
33240,note_on,,1,0,9,,,,,,,,,,,,,,,,13,,53,48
33240,note_on,,1,0,8,,,,,,,,,,,,,,,,11,,72,72
33240,note_on,,1,0,7,,,,,,,,,,,,,,,,10,,72,72
33240,note_on,,0,0,10,,,,,,,,,,,,,,,,15,,60,48
33269,note_on,,29,0,7,,,,,,,,,,,,,,,,10,,72,0
33269,note_on,,29,0,8,,,,,,,,,,,,,,,,11,,72,0
33270,note_on,,1,0,7,,,,,,,,,,,,,,,,10,,70,72
33270,note_on,,1,0,8,,,,,,,,,,,,,,,,11,,70,72
33299,note_on,,29,0,7,,,,,,,,,,,,,,,,10,,70,0
33299,note_on,,29,0,8,,,,,,,,,,,,,,,,11,,70,0
33300,note_on,,1,0,7,,,,,,,,,,,,,,,,10,,72,72
33300,note_on,,1,0,8,,,,,,,,,,,,,,,,11,,72,72
33329,note_on,,29,0,8,,,,,,,,,,,,,,,,11,,72,0
33329,note_on,,29,0,7,,,,,,,,,,,,,,,,10,,72,0
33330,note_on,,1,0,8,,,,,,,,,,,,,,,,11,,69,72
33330,note_on,,1,0,7,,,,,,,,,,,,,,,,10,,69,72
33359,note_on,,29,0,7,,,,,,,,,,,,,,,,10,,69,0
33359,note_on,,119,0,10,,,,,,,,,,,,,,,,15,,69,0
33359,note_on,,0,0,10,,,,,,,,,,,,,,,,15,,65,0
33359,note_on,,0,0,10,,,,,,,,,,,,,,,,15,,60,0
33359,note_on,,29,0,8,,,,,,,,,,,,,,,,11,,69,0
33360,note_on,,1,0,10,,,,,,,,,,,,,,,,15,,67,48
33360,note_on,,1,0,7,,,,,,,,,,,,,,,,10,,70,72
33360,note_on,,0,0,10,,,,,,,,,,,,,,,,15,,62,48
33360,note_on,,1,0,8,,,,,,,,,,,,,,,,11,,70,72
33360,note_on,,0,0,10,,,,,,,,,,,,,,,,15,,58,48
33419,note_on,,59,0,7,,,,,,,,,,,,,,,,10,,70,0
33419,note_on,,59,0,8,,,,,,,,,,,,,,,,11,,70,0
33420,note_on,,1,0,7,,,,,,,,,,,,,,,,10,,67,72
33420,note_on,,1,0,8,,,,,,,,,,,,,,,,11,,67,72
33479,note_on,,59,0,8,,,,,,,,,,,,,,,,11,,67,0
33479,note_on,,239,0,9,,,,,,,,,,,,,,,,13,,53,0
33479,note_on,,59,0,7,,,,,,,,,,,,,,,,10,,67,0
33479,note_on,,239,0,5,,,,,,,,,,,,,,,,2,,53,0
33479,note_on,,0,0,10,,,,,,,,,,,,,,,,15,,58,0
33479,note_on,,0,0,10,,,,,,,,,,,,,,,,15,,62,0
33479,note_on,,119,0,10,,,,,,,,,,,,,,,,15,,53,0
33480,note_on,,1,0,9,,,,,,,,,,,,,,,,13,,52,48
33480,note_on,,0,0,10,,,,,,,,,,,,,,,,15,,60,48
33480,note_on,,0,0,10,,,,,,,,,,,,,,,,15,,55,48
33480,note_on,,1,0,5,,,,,,,,,,,,,,,,2,,52,48
33480,note_on,,1,0,8,,,,,,,,,,,,,,,,11,,72,72
33480,note_on,,1,0,10,,,,,,,,,,,,,,,,15,,52,48
33480,note_on,,1,0,7,,,,,,,,,,,,,,,,10,,72,72
33539,note_on,,59,0,8,,,,,,,,,,,,,,,,11,,72,0
33539,note_on,,59,0,7,,,,,,,,,,,,,,,,10,,72,0
33540,note_on,,1,0,8,,,,,,,,,,,,,,,,11,,70,72
33540,note_on,,1,0,7,,,,,,,,,,,,,,,,10,,70,72
33599,note_on,,0,0,10,,,,,,,,,,,,,,,,15,,55,0
33599,note_on,,119,0,5,,,,,,,,,,,,,,,,2,,52,0
33599,note_on,,119,0,10,,,,,,,,,,,,,,,,15,,67,0
33599,note_on,,0,0,10,,,,,,,,,,,,,,,,15,,52,0
33599,note_on,,0,0,10,,,,,,,,,,,,,,,,15,,60,0
33599,note_on,,59,0,8,,,,,,,,,,,,,,,,11,,70,0
33599,note_on,,119,0,9,,,,,,,,,,,,,,,,13,,52,0
33599,note_on,,59,0,7,,,,,,,,,,,,,,,,10,,70,0
33600,note_on,,0,0,10,,,,,,,,,,,,,,,,15,,60,48
33600,note_on,,1,0,9,,,,,,,,,,,,,,,,13,,53,48
33600,note_on,,1,0,8,,,,,,,,,,,,,,,,11,,69,72
33600,note_on,,0,0,10,,,,,,,,,,,,,,,,15,,65,48
33600,note_on,,1,0,5,,,,,,,,,,,,,,,,2,,53,48
33600,note_on,,0,0,10,,,,,,,,,,,,,,,,15,,57,48
33600,note_on,,1,0,7,,,,,,,,,,,,,,,,10,,69,72
33600,note_on,,1,0,10,,,,,,,,,,,,,,,,15,,53,48
33629,note_on,,29,0,8,,,,,,,,,,,,,,,,11,,69,0
33629,note_on,,29,0,7,,,,,,,,,,,,,,,,10,,69,0
33630,note_on,,1,0,7,,,,,,,,,,,,,,,,10,,67,72
33630,note_on,,1,0,8,,,,,,,,,,,,,,,,11,,67,72
33659,note_on,,29,0,7,,,,,,,,,,,,,,,,10,,67,0
33659,note_on,,29,0,8,,,,,,,,,,,,,,,,11,,67,0
33660,note_on,,1,0,7,,,,,,,,,,,,,,,,10,,65,72
33660,note_on,,1,0,8,,,,,,,,,,,,,,,,11,,65,72
33719,note_on,,119,0,5,,,,,,,,,,,,,,,,2,,53,0
33719,note_on,,119,0,10,,,,,,,,,,,,,,,,15,,53,0
33719,note_on,,0,0,10,,,,,,,,,,,,,,,,15,,65,0
33719,note_on,,59,0,8,,,,,,,,,,,,,,,,11,,65,0
33719,note_on,,0,0,10,,,,,,,,,,,,,,,,15,,60,0
33719,note_on,,59,0,7,,,,,,,,,,,,,,,,10,,65,0
33719,note_on,,119,0,9,,,,,,,,,,,,,,,,13,,53,0
33719,note_on,,0,0,10,,,,,,,,,,,,,,,,15,,57,0
33720,note_on,,1,0,9,,,,,,,,,,,,,,,,13,,51,48
33720,note_on,,0,0,10,,,,,,,,,,,,,,,,15,,65,48
33720,note_on,,0,0,10,,,,,,,,,,,,,,,,15,,69,48
33720,note_on,,1,0,10,,,,,,,,,,,,,,,,15,,51,48
33720,note_on,,0,0,10,,,,,,,,,,,,,,,,15,,72,48
33780,note_on,,1021,0,6,,,,,,,,,,,,,,,,5,,65,72
33839,note_on,,119,0,10,,,,,,,,,,,,,,,,15,,51,0
33839,note_on,,0,0,10,,,,,,,,,,,,,,,,15,,72,0
33839,note_on,,0,0,10,,,,,,,,,,,,,,,,15,,69,0
33839,note_on,,0,0,10,,,,,,,,,,,,,,,,15,,65,0
33839,note_on,,119,0,9,,,,,,,,,,,,,,,,13,,51,0
33839,note_on,,59,0,6,,,,,,,,,,,,,,,,5,,65,0
33840,note_on,,1,0,6,,,,,,,,,,,,,,,,5,,70,72
33840,note_on,,0,0,10,,,,,,,,,,,,,,,,15,,70,48
33840,note_on,,1,0,10,,,,,,,,,,,,,,,,15,,50,48
33840,note_on,,0,0,10,,,,,,,,,,,,,,,,15,,74,48
33840,note_on,,0,0,10,,,,,,,,,,,,,,,,15,,65,48
33840,note_on,,1,0,9,,,,,,,,,,,,,,,,13,,50,48
33899,note_on,,59,0,6,,,,,,,,,,,,,,,,5,,70,0
33900,note_on,,1,0,6,,,,,,,,,,,,,,,,5,,74,72
33929,note_on,,29,0,6,,,,,,,,,,,,,,,,5,,74,0
33930,note_on,,1,0,6,,,,,,,,,,,,,,,,5,,72,72
33959,note_on,,119,0,9,,,,,,,,,,,,,,,,13,,50,0
33959,note_on,,29,0,6,,,,,,,,,,,,,,,,5,,72,0
33959,note_on,,119,0,10,,,,,,,,,,,,,,,,15,,50,0
33959,note_on,,0,0,10,,,,,,,,,,,,,,,,15,,70,0
33959,note_on,,0,0,10,,,,,,,,,,,,,,,,15,,65,0
33959,note_on,,0,0,10,,,,,,,,,,,,,,,,15,,74,0
33960,note_on,,1,0,6,,,,,,,,,,,,,,,,5,,74,72
33989,note_on,,29,0,6,,,,,,,,,,,,,,,,5,,74,0
33990,note_on,,1,0,6,,,,,,,,,,,,,,,,5,,70,72
34019,note_on,,29,0,6,,,,,,,,,,,,,,,,5,,70,0
34020,note_on,,1,0,6,,,,,,,,,,,,,,,,5,,72,72
34049,note_on,,29,0,6,,,,,,,,,,,,,,,,5,,72,0
34050,note_on,,1,0,6,,,,,,,,,,,,,,,,5,,74,72
34079,note_on,,29,0,6,,,,,,,,,,,,,,,,5,,74,0
34080,note_on,,121,0,10,,,,,,,,,,,,,,,,15,,51,48
34080,note_on,,0,0,10,,,,,,,,,,,,,,,,15,,63,48
34080,note_on,,0,0,10,,,,,,,,,,,,,,,,15,,67,48
34080,note_on,,0,0,10,,,,,,,,,,,,,,,,15,,70,48
34080,note_on,,121,0,9,,,,,,,,,,,,,,,,13,,51,48
34080,note_on,,1,0,6,,,,,,,,,,,,,,,,5,,67,72
34139,note_on,,59,0,6,,,,,,,,,,,,,,,,5,,67,0
34140,note_on,,1,0,6,,,,,,,,,,,,,,,,5,,70,72
34169,note_on,,29,0,6,,,,,,,,,,,,,,,,5,,70,0
34170,note_on,,1,0,6,,,,,,,,,,,,,,,,5,,69,72
34199,note_on,,29,0,6,,,,,,,,,,,,,,,,5,,69,0
34199,note_on,,0,0,10,,,,,,,,,,,,,,,,15,,63,0
34199,note_on,,119,0,9,,,,,,,,,,,,,,,,13,,51,0
34199,note_on,,0,0,10,,,,,,,,,,,,,,,,15,,67,0
34199,note_on,,0,0,10,,,,,,,,,,,,,,,,15,,70,0
34199,note_on,,119,0,10,,,,,,,,,,,,,,,,15,,51,0
34200,note_on,,1,0,6,,,,,,,,,,,,,,,,5,,70,72
34229,note_on,,29,0,6,,,,,,,,,,,,,,,,5,,70,0
34230,note_on,,1,0,6,,,,,,,,,,,,,,,,5,,67,72
34259,note_on,,29,0,6,,,,,,,,,,,,,,,,5,,67,0
34260,note_on,,1,0,6,,,,,,,,,,,,,,,,5,,69,72
34289,note_on,,29,0,6,,,,,,,,,,,,,,,,5,,69,0
34290,note_on,,1,0,6,,,,,,,,,,,,,,,,5,,70,72
34319,note_on,,29,0,6,,,,,,,,,,,,,,,,5,,70,0
34320,note_on,,1,0,6,,,,,,,,,,,,,,,,5,,72,72
34320,note_on,,121,0,10,,,,,,,,,,,,,,,,15,,48,48
34320,note_on,,121,0,9,,,,,,,,,,,,,,,,13,,48,48
34320,note_on,,0,0,10,,,,,,,,,,,,,,,,15,,75,48
34320,note_on,,0,0,10,,,,,,,,,,,,,,,,15,,72,48
34320,note_on,,0,0,10,,,,,,,,,,,,,,,,15,,67,48
34379,note_on,,59,0,6,,,,,,,,,,,,,,,,5,,72,0
34380,note_on,,1,0,6,,,,,,,,,,,,,,,,5,,75,72
34409,note_on,,29,0,6,,,,,,,,,,,,,,,,5,,75,0
34410,note_on,,1,0,6,,,,,,,,,,,,,,,,5,,74,72
34439,note_on,,0,0,10,,,,,,,,,,,,,,,,15,,75,0
34439,note_on,,0,0,10,,,,,,,,,,,,,,,,15,,72,0
34439,note_on,,0,0,10,,,,,,,,,,,,,,,,15,,67,0
34439,note_on,,119,0,9,,,,,,,,,,,,,,,,13,,48,0
34439,note_on,,29,0,6,,,,,,,,,,,,,,,,5,,74,0
34439,note_on,,119,0,10,,,,,,,,,,,,,,,,15,,48,0
34440,note_on,,1,0,6,,,,,,,,,,,,,,,,5,,75,72
34469,note_on,,29,0,6,,,,,,,,,,,,,,,,5,,75,0
34470,note_on,,1,0,6,,,,,,,,,,,,,,,,5,,72,72
34499,note_on,,29,0,6,,,,,,,,,,,,,,,,5,,72,0
34500,note_on,,1,0,6,,,,,,,,,,,,,,,,5,,74,72
34529,note_on,,29,0,6,,,,,,,,,,,,,,,,5,,74,0
34530,note_on,,1,0,6,,,,,,,,,,,,,,,,5,,75,72
34559,note_on,,29,0,6,,,,,,,,,,,,,,,,5,,75,0
34560,note_on,,0,0,10,,,,,,,,,,,,,,,,15,,69,48
34560,note_on,,0,0,10,,,,,,,,,,,,,,,,15,,65,48
34560,note_on,,1,0,6,,,,,,,,,,,,,,,,5,,69,72
34560,note_on,,0,0,10,,,,,,,,,,,,,,,,15,,72,48
34560,note_on,,121,0,10,,,,,,,,,,,,,,,,15,,53,48
34560,note_on,,121,0,9,,,,,,,,,,,,,,,,13,,53,48
34619,note_on,,59,0,6,,,,,,,,,,,,,,,,5,,69,0
34620,note_on,,1,0,6,,,,,,,,,,,,,,,,5,,72,72
34649,note_on,,29,0,6,,,,,,,,,,,,,,,,5,,72,0
34650,note_on,,1,0,6,,,,,,,,,,,,,,,,5,,70,72
34679,note_on,,29,0,6,,,,,,,,,,,,,,,,5,,70,0
34679,note_on,,0,0,10,,,,,,,,,,,,,,,,15,,65,0
34679,note_on,,0,0,10,,,,,,,,,,,,,,,,15,,69,0
34679,note_on,,0,0,10,,,,,,,,,,,,,,,,15,,72,0
34679,note_on,,119,0,10,,,,,,,,,,,,,,,,15,,53,0
34679,note_on,,119,0,9,,,,,,,,,,,,,,,,13,,53,0
34680,note_on,,1,0,6,,,,,,,,,,,,,,,,5,,72,72
34709,note_on,,29,0,6,,,,,,,,,,,,,,,,5,,72,0
34710,note_on,,1,0,6,,,,,,,,,,,,,,,,5,,69,72
34739,note_on,,29,0,6,,,,,,,,,,,,,,,,5,,69,0
34740,note_on,,1,0,6,,,,,,,,,,,,,,,,5,,70,72
34769,note_on,,29,0,6,,,,,,,,,,,,,,,,5,,70,0
34770,note_on,,1,0,6,,,,,,,,,,,,,,,,5,,72,72
34799,note_on,,29,0,6,,,,,,,,,,,,,,,,5,,72,0
34800,note_on,,121,0,10,,,,,,,,,,,,,,,,15,,50,48
34800,note_on,,0,0,10,,,,,,,,,,,,,,,,15,,77,48
34800,note_on,,0,0,10,,,,,,,,,,,,,,,,15,,69,48
34800,note_on,,0,0,10,,,,,,,,,,,,,,,,15,,74,48
34800,note_on,,121,0,9,,,,,,,,,,,,,,,,13,,50,48
34800,note_on,,1,0,6,,,,,,,,,,,,,,,,5,,74,72
34859,note_on,,59,0,6,,,,,,,,,,,,,,,,5,,74,0
34860,note_on,,1,0,6,,,,,,,,,,,,,,,,5,,77,72
34889,note_on,,29,0,6,,,,,,,,,,,,,,,,5,,77,0
34890,note_on,,1,0,6,,,,,,,,,,,,,,,,5,,75,72
34919,note_on,,0,0,10,,,,,,,,,,,,,,,,15,,77,0
34919,note_on,,29,0,6,,,,,,,,,,,,,,,,5,,75,0
34919,note_on,,0,0,10,,,,,,,,,,,,,,,,15,,69,0
34919,note_on,,119,0,10,,,,,,,,,,,,,,,,15,,50,0
34919,note_on,,0,0,10,,,,,,,,,,,,,,,,15,,74,0
34919,note_on,,119,0,9,,,,,,,,,,,,,,,,13,,50,0
34920,note_on,,1,0,6,,,,,,,,,,,,,,,,5,,77,72
34949,note_on,,29,0,6,,,,,,,,,,,,,,,,5,,77,0
34950,note_on,,1,0,6,,,,,,,,,,,,,,,,5,,74,72
34979,note_on,,29,0,6,,,,,,,,,,,,,,,,5,,74,0
34980,note_on,,1,0,6,,,,,,,,,,,,,,,,5,,75,72
35009,note_on,,29,0,6,,,,,,,,,,,,,,,,5,,75,0
35010,note_on,,1,0,6,,,,,,,,,,,,,,,,5,,77,72
35039,note_on,,29,0,6,,,,,,,,,,,,,,,,5,,77,0
35040,note_on,,121,0,9,,,,,,,,,,,,,,,,13,,55,48
35040,note_on,,1,0,6,,,,,,,,,,,,,,,,5,,70,72
35040,note_on,,0,0,10,,,,,,,,,,,,,,,,15,,70,48
35040,note_on,,0,0,10,,,,,,,,,,,,,,,,15,,74,48
35040,note_on,,121,0,10,,,,,,,,,,,,,,,,15,,55,48
35040,note_on,,0,0,10,,,,,,,,,,,,,,,,15,,67,48
35099,note_on,,59,0,6,,,,,,,,,,,,,,,,5,,70,0
35100,note_on,,1,0,6,,,,,,,,,,,,,,,,5,,74,72
35129,note_on,,29,0,6,,,,,,,,,,,,,,,,5,,74,0
35130,note_on,,1,0,6,,,,,,,,,,,,,,,,5,,72,72
35159,note_on,,0,0,10,,,,,,,,,,,,,,,,15,,67,0
35159,note_on,,0,0,10,,,,,,,,,,,,,,,,15,,74,0
35159,note_on,,119,0,10,,,,,,,,,,,,,,,,15,,55,0
35159,note_on,,29,0,6,,,,,,,,,,,,,,,,5,,72,0
35159,note_on,,119,0,9,,,,,,,,,,,,,,,,13,,55,0
35159,note_on,,0,0,10,,,,,,,,,,,,,,,,15,,70,0
35160,note_on,,1,0,6,,,,,,,,,,,,,,,,5,,74,72
35189,note_on,,29,0,6,,,,,,,,,,,,,,,,5,,74,0
35190,note_on,,1,0,6,,,,,,,,,,,,,,,,5,,70,72
35219,note_on,,29,0,6,,,,,,,,,,,,,,,,5,,70,0
35220,note_on,,1,0,6,,,,,,,,,,,,,,,,5,,72,72
35249,note_on,,29,0,6,,,,,,,,,,,,,,,,5,,72,0
35250,note_on,,1,0,6,,,,,,,,,,,,,,,,5,,74,72
35279,note_on,,29,0,6,,,,,,,,,,,,,,,,5,,74,0
35280,note_on,,121,0,9,,,,,,,,,,,,,,,,13,,48,48
35280,note_on,,0,0,10,,,,,,,,,,,,,,,,15,,70,48
35280,note_on,,0,0,10,,,,,,,,,,,,,,,,15,,75,48
35280,note_on,,121,0,10,,,,,,,,,,,,,,,,15,,48,48
35280,note_on,,0,0,10,,,,,,,,,,,,,,,,15,,67,48
35280,note_on,,1,0,6,,,,,,,,,,,,,,,,5,,75,72
35309,note_on,,29,0,6,,,,,,,,,,,,,,,,5,,75,0
35310,note_on,,1,0,6,,,,,,,,,,,,,,,,5,,74,72
35339,note_on,,29,0,6,,,,,,,,,,,,,,,,5,,74,0
35340,note_on,,1,0,6,,,,,,,,,,,,,,,,5,,72,72
35369,note_on,,29,0,6,,,,,,,,,,,,,,,,5,,72,0
35370,note_on,,1,0,6,,,,,,,,,,,,,,,,5,,74,72
35399,note_on,,29,0,6,,,,,,,,,,,,,,,,5,,74,0
35399,note_on,,119,0,10,,,,,,,,,,,,,,,,15,,48,0
35399,note_on,,0,0,10,,,,,,,,,,,,,,,,15,,70,0
35399,note_on,,0,0,10,,,,,,,,,,,,,,,,15,,67,0
35399,note_on,,119,0,9,,,,,,,,,,,,,,,,13,,48,0
35400,note_on,,1,0,9,,,,,,,,,,,,,,,,13,,60,48
35400,note_on,,1,0,10,,,,,,,,,,,,,,,,15,,60,48
35400,note_on,,0,0,10,,,,,,,,,,,,,,,,15,,69,48
35400,note_on,,0,0,10,,,,,,,,,,,,,,,,15,,63,48
35400,note_on,,1,0,6,,,,,,,,,,,,,,,,5,,75,72
35429,note_on,,29,0,6,,,,,,,,,,,,,,,,5,,75,0
35430,note_on,,1,0,6,,,,,,,,,,,,,,,,5,,74,72
35459,note_on,,29,0,6,,,,,,,,,,,,,,,,5,,74,0
35460,note_on,,1,0,6,,,,,,,,,,,,,,,,5,,75,72
35489,note_on,,29,0,6,,,,,,,,,,,,,,,,5,,75,0
35490,note_on,,1,0,6,,,,,,,,,,,,,,,,5,,72,72
35519,note_on,,29,0,6,,,,,,,,,,,,,,,,5,,72,0
35519,note_on,,119,0,9,,,,,,,,,,,,,,,,13,,60,0
35519,note_on,,119,0,10,,,,,,,,,,,,,,,,15,,75,0
35519,note_on,,0,0,10,,,,,,,,,,,,,,,,15,,60,0
35519,note_on,,0,0,10,,,,,,,,,,,,,,,,15,,69,0
35519,note_on,,0,0,10,,,,,,,,,,,,,,,,15,,63,0
35520,note_on,,1,0,9,,,,,,,,,,,,,,,,13,,62,48
35520,note_on,,0,0,10,,,,,,,,,,,,,,,,15,,70,48
35520,note_on,,0,0,10,,,,,,,,,,,,,,,,15,,65,48
35520,note_on,,1,0,6,,,,,,,,,,,,,,,,5,,77,72
35520,note_on,,0,0,10,,,,,,,,,,,,,,,,15,,74,48
35520,note_on,,1,0,10,,,,,,,,,,,,,,,,15,,62,48
35639,note_on,,119,0,6,,,,,,,,,,,,,,,,5,,77,0
35639,note_on,,0,0,10,,,,,,,,,,,,,,,,15,,65,0
35639,note_on,,0,0,10,,,,,,,,,,,,,,,,15,,70,0
35639,note_on,,0,0,10,,,,,,,,,,,,,,,,15,,74,0
35639,note_on,,119,0,10,,,,,,,,,,,,,,,,15,,62,0
35639,note_on,,119,0,9,,,,,,,,,,,,,,,,13,,62,0
35640,note_on,,0,0,10,,,,,,,,,,,,,,,,15,,50,48
35640,note_on,,1921,0,5,,,,,,,,,,,,,,,,2,,50,48
35640,note_on,,1,0,6,,,,,,,,,,,,,,,,5,,70,72
35640,note_on,,1,0,9,,,,,,,,,,,,,,,,13,,50,48
35640,note_on,,0,0,10,,,,,,,,,,,,,,,,15,,70,48
35640,note_on,,1,0,10,,,,,,,,,,,,,,,,15,,65,48
35700,note_on,,1981,0,7,,,,,,,,,,,,,,,,10,,82,72
35700,note_on,,1981,0,8,,,,,,,,,,,,,,,,11,,82,72
35729,note_on,,89,0,5,,,,,,,,,,,,,,,,2,,50,0
35729,note_on,,89,0,9,,,,,,,,,,,,,,,,13,,50,0
35729,note_on,,89,0,10,,,,,,,,,,,,,,,,15,,50,0
35730,note_on,,1,0,10,,,,,,,,,,,,,,,,15,,46,48
35730,note_on,,1,0,5,,,,,,,,,,,,,,,,2,,46,48
35730,note_on,,1,0,9,,,,,,,,,,,,,,,,13,,46,48
35759,note_on,,59,0,8,,,,,,,,,,,,,,,,11,,82,0
35759,note_on,,119,0,6,,,,,,,,,,,,,,,,5,,70,0
35759,note_on,,29,0,5,,,,,,,,,,,,,,,,2,,46,0
35759,note_on,,59,0,7,,,,,,,,,,,,,,,,10,,82,0
35759,note_on,,29,0,10,,,,,,,,,,,,,,,,15,,65,0
35759,note_on,,29,0,9,,,,,,,,,,,,,,,,13,,46,0
35759,note_on,,0,0,10,,,,,,,,,,,,,,,,15,,46,0
35759,note_on,,0,0,10,,,,,,,,,,,,,,,,15,,70,0
35760,note_on,,0,0,10,,,,,,,,,,,,,,,,15,,69,48
35760,note_on,,0,0,10,,,,,,,,,,,,,,,,15,,65,48
35760,note_on,,1,0,8,,,,,,,,,,,,,,,,11,,81,72
35760,note_on,,1,0,7,,,,,,,,,,,,,,,,10,,81,72
35760,note_on,,1,0,5,,,,,,,,,,,,,,,,2,,53,48
35760,note_on,,0,0,10,,,,,,,,,,,,,,,,15,,72,48
35760,note_on,,1,0,10,,,,,,,,,,,,,,,,15,,53,48
35760,note_on,,1,0,9,,,,,,,,,,,,,,,,13,,53,48
35789,note_on,,29,0,7,,,,,,,,,,,,,,,,10,,81,0
35789,note_on,,29,0,8,,,,,,,,,,,,,,,,11,,81,0
35790,note_on,,1,0,7,,,,,,,,,,,,,,,,10,,77,72
35790,note_on,,1,0,8,,,,,,,,,,,,,,,,11,,77,72
35819,note_on,,29,0,7,,,,,,,,,,,,,,,,10,,77,0
35819,note_on,,29,0,8,,,,,,,,,,,,,,,,11,,77,0
35820,note_on,,1,0,7,,,,,,,,,,,,,,,,10,,75,72
35820,note_on,,1,0,8,,,,,,,,,,,,,,,,11,,75,72
35849,note_on,,29,0,8,,,,,,,,,,,,,,,,11,,75,0
35849,note_on,,29,0,7,,,,,,,,,,,,,,,,10,,75,0
35850,note_on,,1,0,7,,,,,,,,,,,,,,,,10,,74,72
35850,note_on,,1,0,8,,,,,,,,,,,,,,,,11,,74,72
35879,note_on,,119,0,10,,,,,,,,,,,,,,,,15,,53,0
35879,note_on,,119,0,5,,,,,,,,,,,,,,,,2,,53,0
35879,note_on,,0,0,10,,,,,,,,,,,,,,,,15,,69,0
35879,note_on,,29,0,7,,,,,,,,,,,,,,,,10,,74,0
35879,note_on,,119,0,9,,,,,,,,,,,,,,,,13,,53,0
35879,note_on,,0,0,10,,,,,,,,,,,,,,,,15,,72,0
35879,note_on,,0,0,10,,,,,,,,,,,,,,,,15,,65,0
35879,note_on,,29,0,8,,,,,,,,,,,,,,,,11,,74,0
35880,note_on,,1,0,5,,,,,,,,,,,,,,,,2,,51,48
35880,note_on,,1,0,9,,,,,,,,,,,,,,,,13,,51,48
35880,note_on,,1,0,7,,,,,,,,,,,,,,,,10,,79,72
35880,note_on,,1,0,8,,,,,,,,,,,,,,,,11,,79,72
35880,note_on,,0,0,10,,,,,,,,,,,,,,,,15,,67,48
35880,note_on,,1,0,10,,,,,,,,,,,,,,,,15,,51,48
35880,note_on,,0,0,10,,,,,,,,,,,,,,,,15,,75,48
35880,note_on,,0,0,10,,,,,,,,,,,,,,,,15,,72,48
35909,note_on,,29,0,8,,,,,,,,,,,,,,,,11,,79,0
35909,note_on,,29,0,7,,,,,,,,,,,,,,,,10,,79,0
35910,note_on,,1,0,8,,,,,,,,,,,,,,,,11,,75,72
35910,note_on,,1,0,7,,,,,,,,,,,,,,,,10,,75,72
35939,note_on,,29,0,8,,,,,,,,,,,,,,,,11,,75,0
35939,note_on,,29,0,7,,,,,,,,,,,,,,,,10,,75,0
35940,note_on,,1,0,8,,,,,,,,,,,,,,,,11,,74,72
35940,note_on,,1,0,7,,,,,,,,,,,,,,,,10,,74,72
35969,note_on,,29,0,7,,,,,,,,,,,,,,,,10,,74,0
35969,note_on,,29,0,8,,,,,,,,,,,,,,,,11,,74,0
35970,note_on,,1,0,7,,,,,,,,,,,,,,,,10,,72,72
35970,note_on,,1,0,8,,,,,,,,,,,,,,,,11,,72,72
35999,note_on,,0,0,10,,,,,,,,,,,,,,,,15,,75,0
35999,note_on,,119,0,9,,,,,,,,,,,,,,,,13,,51,0
35999,note_on,,119,0,5,,,,,,,,,,,,,,,,2,,51,0
35999,note_on,,0,0,10,,,,,,,,,,,,,,,,15,,72,0
35999,note_on,,29,0,8,,,,,,,,,,,,,,,,11,,72,0
35999,note_on,,119,0,10,,,,,,,,,,,,,,,,15,,51,0
35999,note_on,,0,0,10,,,,,,,,,,,,,,,,15,,67,0
35999,note_on,,29,0,7,,,,,,,,,,,,,,,,10,,72,0
36000,note_on,,1,0,9,,,,,,,,,,,,,,,,13,,50,48
36000,note_on,,1,0,8,,,,,,,,,,,,,,,,11,,77,72
36000,note_on,,1,0,10,,,,,,,,,,,,,,,,15,,50,48
36000,note_on,,0,0,10,,,,,,,,,,,,,,,,15,,77,48
36000,note_on,,1,0,7,,,,,,,,,,,,,,,,10,,77,72
36000,note_on,,1,0,5,,,,,,,,,,,,,,,,2,,50,48
36000,note_on,,0,0,10,,,,,,,,,,,,,,,,15,,70,48
36000,note_on,,0,0,10,,,,,,,,,,,,,,,,15,,65,48
36059,note_on,,59,0,7,,,,,,,,,,,,,,,,10,,77,0
36059,note_on,,59,0,8,,,,,,,,,,,,,,,,11,,77,0
36060,note_on,,1,0,8,,,,,,,,,,,,,,,,11,,70,72
36060,note_on,,1,0,7,,,,,,,,,,,,,,,,10,,70,72
36119,note_on,,59,0,8,,,,,,,,,,,,,,,,11,,70,0
36119,note_on,,59,0,7,,,,,,,,,,,,,,,,10,,70,0
36119,note_on,,0,0,10,,,,,,,,,,,,,,,,15,,77,0
36119,note_on,,119,0,5,,,,,,,,,,,,,,,,2,,50,0
36119,note_on,,0,0,10,,,,,,,,,,,,,,,,15,,65,0
36119,note_on,,0,0,10,,,,,,,,,,,,,,,,15,,70,0
36119,note_on,,119,0,9,,,,,,,,,,,,,,,,13,,50,0
36119,note_on,,119,0,10,,,,,,,,,,,,,,,,15,,50,0
36120,note_on,,0,0,10,,,,,,,,,,,,,,,,15,,63,48
36120,note_on,,1,0,9,,,,,,,,,,,,,,,,13,,48,48
36120,note_on,,1,0,10,,,,,,,,,,,,,,,,15,,48,48
36120,note_on,,0,0,10,,,,,,,,,,,,,,,,15,,69,48
36120,note_on,,0,0,10,,,,,,,,,,,,,,,,15,,60,48
36120,note_on,,1,0,5,,,,,,,,,,,,,,,,2,,48,48
36180,note_on,,421,0,6,,,,,,,,,,,,,,,,5,,79,72
36239,note_on,,59,0,6,,,,,,,,,,,,,,,,5,,79,0
36239,note_on,,119,0,9,,,,,,,,,,,,,,,,13,,48,0
36239,note_on,,119,0,10,,,,,,,,,,,,,,,,15,,48,0
36239,note_on,,0,0,10,,,,,,,,,,,,,,,,15,,69,0
36239,note_on,,0,0,10,,,,,,,,,,,,,,,,15,,63,0
36239,note_on,,0,0,10,,,,,,,,,,,,,,,,15,,60,0
36239,note_on,,119,0,5,,,,,,,,,,,,,,,,2,,48,0
36240,note_on,,1,0,5,,,,,,,,,,,,,,,,2,,50,48
36240,note_on,,1,0,6,,,,,,,,,,,,,,,,5,,77,72
36240,note_on,,1,0,9,,,,,,,,,,,,,,,,13,,50,48
36240,note_on,,0,0,10,,,,,,,,,,,,,,,,15,,65,48
36240,note_on,,0,0,10,,,,,,,,,,,,,,,,15,,70,48
36240,note_on,,1,0,10,,,,,,,,,,,,,,,,15,,50,48
36269,note_on,,29,0,6,,,,,,,,,,,,,,,,5,,77,0
36270,note_on,,1,0,6,,,,,,,,,,,,,,,,5,,74,72
36299,note_on,,29,0,6,,,,,,,,,,,,,,,,5,,74,0
36300,note_on,,1,0,6,,,,,,,,,,,,,,,,5,,72,72
36329,note_on,,29,0,6,,,,,,,,,,,,,,,,5,,72,0
36330,note_on,,1,0,6,,,,,,,,,,,,,,,,5,,70,72
36359,note_on,,119,0,10,,,,,,,,,,,,,,,,15,,50,0
36359,note_on,,29,0,6,,,,,,,,,,,,,,,,5,,70,0
36359,note_on,,119,0,5,,,,,,,,,,,,,,,,2,,50,0
36359,note_on,,0,0,10,,,,,,,,,,,,,,,,15,,65,0
36359,note_on,,119,0,9,,,,,,,,,,,,,,,,13,,50,0
36359,note_on,,0,0,10,,,,,,,,,,,,,,,,15,,70,0
36360,note_on,,0,0,10,,,,,,,,,,,,,,,,15,,65,48
36360,note_on,,1,0,6,,,,,,,,,,,,,,,,5,,75,72
36360,note_on,,0,0,10,,,,,,,,,,,,,,,,15,,72,48
36360,note_on,,0,0,10,,,,,,,,,,,,,,,,15,,60,48
36360,note_on,,1,0,10,,,,,,,,,,,,,,,,15,,45,48
36360,note_on,,1,0,9,,,,,,,,,,,,,,,,13,,45,48
36419,note_on,,59,0,6,,,,,,,,,,,,,,,,5,,75,0
36420,note_on,,1,0,6,,,,,,,,,,,,,,,,5,,74,72
36449,note_on,,29,0,6,,,,,,,,,,,,,,,,5,,74,0
36450,note_on,,1,0,6,,,,,,,,,,,,,,,,5,,72,72
36479,note_on,,29,0,6,,,,,,,,,,,,,,,,5,,72,0
36479,note_on,,119,0,9,,,,,,,,,,,,,,,,13,,45,0
36479,note_on,,119,0,10,,,,,,,,,,,,,,,,15,,45,0
36479,note_on,,0,0,10,,,,,,,,,,,,,,,,15,,72,0
36479,note_on,,0,0,10,,,,,,,,,,,,,,,,15,,65,0
36479,note_on,,0,0,10,,,,,,,,,,,,,,,,15,,60,0
36480,note_on,,1,0,10,,,,,,,,,,,,,,,,15,,46,48
36480,note_on,,0,0,10,,,,,,,,,,,,,,,,15,,70,48
36480,note_on,,0,0,10,,,,,,,,,,,,,,,,15,,65,48
36480,note_on,,0,0,10,,,,,,,,,,,,,,,,15,,62,48
36480,note_on,,1,0,6,,,,,,,,,,,,,,,,5,,74,72
36480,note_on,,1,0,9,,,,,,,,,,,,,,,,13,,46,48
36509,note_on,,29,0,6,,,,,,,,,,,,,,,,5,,74,0
36510,note_on,,391,0,8,,,,,,,,,,,,,,,,11,,65,72
36510,note_on,,391,0,7,,,,,,,,,,,,,,,,10,,65,72
36510,note_on,,1,0,6,,,,,,,,,,,,,,,,5,,72,72
36539,note_on,,29,0,8,,,,,,,,,,,,,,,,11,,65,0
36539,note_on,,29,0,7,,,,,,,,,,,,,,,,10,,65,0
36539,note_on,,29,0,6,,,,,,,,,,,,,,,,5,,72,0
36540,note_on,,1,0,8,,,,,,,,,,,,,,,,11,,67,72
36540,note_on,,1,0,7,,,,,,,,,,,,,,,,10,,67,72
36540,note_on,,1,0,6,,,,,,,,,,,,,,,,5,,70,72
36569,note_on,,29,0,8,,,,,,,,,,,,,,,,11,,67,0
36569,note_on,,29,0,7,,,,,,,,,,,,,,,,10,,67,0
36570,note_on,,1,0,7,,,,,,,,,,,,,,,,10,,69,72
36570,note_on,,1,0,8,,,,,,,,,,,,,,,,11,,69,72
36599,note_on,,119,0,9,,,,,,,,,,,,,,,,13,,46,0
36599,note_on,,59,0,6,,,,,,,,,,,,,,,,5,,70,0
36599,note_on,,119,0,10,,,,,,,,,,,,,,,,15,,46,0
36599,note_on,,0,0,10,,,,,,,,,,,,,,,,15,,62,0
36599,note_on,,0,0,10,,,,,,,,,,,,,,,,15,,65,0
36599,note_on,,0,0,10,,,,,,,,,,,,,,,,15,,70,0
36599,note_on,,29,0,7,,,,,,,,,,,,,,,,10,,69,0
36599,note_on,,29,0,8,,,,,,,,,,,,,,,,11,,69,0
36600,note_on,,1,0,7,,,,,,,,,,,,,,,,10,,70,72
36600,note_on,,1,0,8,,,,,,,,,,,,,,,,11,,70,72
36629,note_on,,29,0,8,,,,,,,,,,,,,,,,11,,70,0
36629,note_on,,29,0,7,,,,,,,,,,,,,,,,10,,70,0
36630,note_on,,1,0,7,,,,,,,,,,,,,,,,10,,74,72
36630,note_on,,1,0,8,,,,,,,,,,,,,,,,11,,74,72
36659,note_on,,29,0,8,,,,,,,,,,,,,,,,11,,74,0
36659,note_on,,29,0,7,,,,,,,,,,,,,,,,10,,74,0
36660,note_on,,61,0,10,,,,,,,,,,,,,,,,15,,55,48
36660,note_on,,1,0,7,,,,,,,,,,,,,,,,10,,82,72
36660,note_on,,1,0,8,,,,,,,,,,,,,,,,11,,82,72
36660,note_on,,0,0,10,,,,,,,,,,,,,,,,15,,70,48
36660,note_on,,61,0,9,,,,,,,,,,,,,,,,13,,55,48
36660,note_on,,0,0,10,,,,,,,,,,,,,,,,15,,67,48
36660,note_on,,301,0,5,,,,,,,,,,,,,,,,2,,55,48
36660,note_on,,0,0,10,,,,,,,,,,,,,,,,15,,74,48
36689,note_on,,29,0,7,,,,,,,,,,,,,,,,10,,82,0
36689,note_on,,29,0,8,,,,,,,,,,,,,,,,11,,82,0
36690,note_on,,1,0,8,,,,,,,,,,,,,,,,11,,74,72
36690,note_on,,1,0,7,,,,,,,,,,,,,,,,10,,74,72
36719,note_on,,29,0,8,,,,,,,,,,,,,,,,11,,74,0
36719,note_on,,0,0,10,,,,,,,,,,,,,,,,15,,74,0
36719,note_on,,59,0,5,,,,,,,,,,,,,,,,2,,55,0
36719,note_on,,0,0,10,,,,,,,,,,,,,,,,15,,70,0
36719,note_on,,0,0,10,,,,,,,,,,,,,,,,15,,67,0
36719,note_on,,59,0,9,,,,,,,,,,,,,,,,13,,55,0
36719,note_on,,29,0,7,,,,,,,,,,,,,,,,10,,74,0
36719,note_on,,59,0,10,,,,,,,,,,,,,,,,15,,55,0
36720,note_on,,1,0,5,,,,,,,,,,,,,,,,2,,53,48
36720,note_on,,1,0,8,,,,,,,,,,,,,,,,11,,81,72
36720,note_on,,0,0,10,,,,,,,,,,,,,,,,15,,69,48
36720,note_on,,0,0,10,,,,,,,,,,,,,,,,15,,74,48
36720,note_on,,0,0,10,,,,,,,,,,,,,,,,15,,77,48
36720,note_on,,1,0,10,,,,,,,,,,,,,,,,15,,53,48
36720,note_on,,1,0,7,,,,,,,,,,,,,,,,10,,81,72
36720,note_on,,1,0,9,,,,,,,,,,,,,,,,13,,53,48
36749,note_on,,29,0,7,,,,,,,,,,,,,,,,10,,81,0
36749,note_on,,29,0,8,,,,,,,,,,,,,,,,11,,81,0
36750,note_on,,1,0,7,,,,,,,,,,,,,,,,10,,74,72
36750,note_on,,1,0,8,,,,,,,,,,,,,,,,11,,74,72
36779,note_on,,29,0,8,,,,,,,,,,,,,,,,11,,74,0
36779,note_on,,29,0,7,,,,,,,,,,,,,,,,10,,74,0
36780,note_on,,1,0,8,,,,,,,,,,,,,,,,11,,75,72
36780,note_on,,1,0,7,,,,,,,,,,,,,,,,10,,75,72
36809,note_on,,29,0,8,,,,,,,,,,,,,,,,11,,75,0
36809,note_on,,29,0,7,,,,,,,,,,,,,,,,10,,75,0
36810,note_on,,1,0,8,,,,,,,,,,,,,,,,11,,74,72
36810,note_on,,1,0,7,,,,,,,,,,,,,,,,10,,74,72
36839,note_on,,119,0,5,,,,,,,,,,,,,,,,2,,53,0
36839,note_on,,119,0,9,,,,,,,,,,,,,,,,13,,53,0
36839,note_on,,0,0,10,,,,,,,,,,,,,,,,15,,77,0
36839,note_on,,0,0,10,,,,,,,,,,,,,,,,15,,74,0
36839,note_on,,119,0,10,,,,,,,,,,,,,,,,15,,53,0
36839,note_on,,29,0,7,,,,,,,,,,,,,,,,10,,74,0
36839,note_on,,29,0,8,,,,,,,,,,,,,,,,11,,74,0
36839,note_on,,0,0,10,,,,,,,,,,,,,,,,15,,69,0
36840,note_on,,1,0,8,,,,,,,,,,,,,,,,11,,79,72
36840,note_on,,1,0,7,,,,,,,,,,,,,,,,10,,79,72
36840,note_on,,0,0,10,,,,,,,,,,,,,,,,15,,60,48
36840,note_on,,1,0,10,,,,,,,,,,,,,,,,15,,51,48
36840,note_on,,1,0,9,,,,,,,,,,,,,,,,13,,51,48
36840,note_on,,0,0,10,,,,,,,,,,,,,,,,15,,67,48
36840,note_on,,0,0,10,,,,,,,,,,,,,,,,15,,72,48
36840,note_on,,1,0,5,,,,,,,,,,,,,,,,2,,51,48
36869,note_on,,29,0,7,,,,,,,,,,,,,,,,10,,79,0
36869,note_on,,29,0,8,,,,,,,,,,,,,,,,11,,79,0
36870,note_on,,1,0,8,,,,,,,,,,,,,,,,11,,72,72
36870,note_on,,1,0,7,,,,,,,,,,,,,,,,10,,72,72
36899,note_on,,29,0,7,,,,,,,,,,,,,,,,10,,72,0
36899,note_on,,29,0,8,,,,,,,,,,,,,,,,11,,72,0
36900,note_on,,1,0,7,,,,,,,,,,,,,,,,10,,74,72
36900,note_on,,1,0,8,,,,,,,,,,,,,,,,11,,74,72
36929,note_on,,29,0,8,,,,,,,,,,,,,,,,11,,74,0
36929,note_on,,29,0,7,,,,,,,,,,,,,,,,10,,74,0
36930,note_on,,1,0,8,,,,,,,,,,,,,,,,11,,72,72
36930,note_on,,1,0,7,,,,,,,,,,,,,,,,10,,72,72
36959,note_on,,119,0,10,,,,,,,,,,,,,,,,15,,51,0
36959,note_on,,29,0,7,,,,,,,,,,,,,,,,10,,72,0
36959,note_on,,29,0,8,,,,,,,,,,,,,,,,11,,72,0
36959,note_on,,119,0,9,,,,,,,,,,,,,,,,13,,51,0
36959,note_on,,119,0,5,,,,,,,,,,,,,,,,2,,51,0
36959,note_on,,0,0,10,,,,,,,,,,,,,,,,15,,72,0
36959,note_on,,0,0,10,,,,,,,,,,,,,,,,15,,67,0
36959,note_on,,0,0,10,,,,,,,,,,,,,,,,15,,60,0
36960,note_on,,1,0,10,,,,,,,,,,,,,,,,15,,50,48
36960,note_on,,1,0,8,,,,,,,,,,,,,,,,11,,77,48
36960,note_on,,0,0,10,,,,,,,,,,,,,,,,15,,70,48
36960,note_on,,1,0,9,,,,,,,,,,,,,,,,13,,50,48
36960,note_on,,0,0,10,,,,,,,,,,,,,,,,15,,65,48
36960,note_on,,0,0,10,,,,,,,,,,,,,,,,15,,62,48
36960,note_on,,361,0,6,,,,,,,,,,,,,,,,5,,77,72
36960,note_on,,1,0,5,,,,,,,,,,,,,,,,2,,50,48
36960,note_on,,1,0,7,,,,,,,,,,,,,,,,10,,77,48
36989,note_on,,29,0,8,,,,,,,,,,,,,,,,11,,77,0
36989,note_on,,29,0,7,,,,,,,,,,,,,,,,10,,77,0
36990,note_on,,1,0,7,,,,,,,,,,,,,,,,10,,70,48
36990,note_on,,1,0,8,,,,,,,,,,,,,,,,11,,70,48
37019,note_on,,29,0,7,,,,,,,,,,,,,,,,10,,70,0
37019,note_on,,29,0,8,,,,,,,,,,,,,,,,11,,70,0
37020,note_on,,1,0,8,,,,,,,,,,,,,,,,11,,72,48
37020,note_on,,1,0,7,,,,,,,,,,,,,,,,10,,72,48
37049,note_on,,29,0,7,,,,,,,,,,,,,,,,10,,72,0
37049,note_on,,29,0,8,,,,,,,,,,,,,,,,11,,72,0
37050,note_on,,1,0,8,,,,,,,,,,,,,,,,11,,70,48
37050,note_on,,1,0,7,,,,,,,,,,,,,,,,10,,70,48
37079,note_on,,0,0,10,,,,,,,,,,,,,,,,15,,70,0
37079,note_on,,119,0,5,,,,,,,,,,,,,,,,2,,50,0
37079,note_on,,0,0,10,,,,,,,,,,,,,,,,15,,62,0
37079,note_on,,0,0,10,,,,,,,,,,,,,,,,15,,65,0
37079,note_on,,119,0,10,,,,,,,,,,,,,,,,15,,50,0
37079,note_on,,119,0,6,,,,,,,,,,,,,,,,5,,77,0
37079,note_on,,29,0,8,,,,,,,,,,,,,,,,11,,70,0
37079,note_on,,119,0,9,,,,,,,,,,,,,,,,13,,50,0
37079,note_on,,29,0,7,,,,,,,,,,,,,,,,10,,70,0
37080,note_on,,1,0,9,,,,,,,,,,,,,,,,13,,48,48
37080,note_on,,0,0,10,,,,,,,,,,,,,,,,15,,72,48
37080,note_on,,1,0,10,,,,,,,,,,,,,,,,15,,48,48
37080,note_on,,1,0,8,,,,,,,,,,,,,,,,11,,69,48
37080,note_on,,1,0,5,,,,,,,,,,,,,,,,2,,48,48
37080,note_on,,0,0,10,,,,,,,,,,,,,,,,15,,63,48
37080,note_on,,1,0,7,,,,,,,,,,,,,,,,10,,69,48
37080,note_on,,0,0,10,,,,,,,,,,,,,,,,15,,69,48
37109,note_on,,29,0,7,,,,,,,,,,,,,,,,10,,69,0
37109,note_on,,29,0,8,,,,,,,,,,,,,,,,11,,69,0
37110,note_on,,1,0,8,,,,,,,,,,,,,,,,11,,70,48
37110,note_on,,1,0,7,,,,,,,,,,,,,,,,10,,70,48
37139,note_on,,29,0,8,,,,,,,,,,,,,,,,11,,70,0
37139,note_on,,29,0,7,,,,,,,,,,,,,,,,10,,70,0
37140,note_on,,61,0,6,,,,,,,,,,,,,,,,5,,79,72
37140,note_on,,1,0,7,,,,,,,,,,,,,,,,10,,69,48
37140,note_on,,1,0,8,,,,,,,,,,,,,,,,11,,69,48
37169,note_on,,29,0,7,,,,,,,,,,,,,,,,10,,69,0
37169,note_on,,29,0,8,,,,,,,,,,,,,,,,11,,69,0
37170,note_on,,1,0,8,,,,,,,,,,,,,,,,11,,72,48
37170,note_on,,1,0,7,,,,,,,,,,,,,,,,10,,72,48
37199,note_on,,119,0,5,,,,,,,,,,,,,,,,2,,48,0
37199,note_on,,29,0,7,,,,,,,,,,,,,,,,10,,72,0
37199,note_on,,59,0,6,,,,,,,,,,,,,,,,5,,79,0
37199,note_on,,119,0,10,,,,,,,,,,,,,,,,15,,48,0
37199,note_on,,0,0,10,,,,,,,,,,,,,,,,15,,72,0
37199,note_on,,0,0,10,,,,,,,,,,,,,,,,15,,69,0
37199,note_on,,0,0,10,,,,,,,,,,,,,,,,15,,63,0
37199,note_on,,119,0,9,,,,,,,,,,,,,,,,13,,48,0
37199,note_on,,29,0,8,,,,,,,,,,,,,,,,11,,72,0
37200,note_on,,1,0,8,,,,,,,,,,,,,,,,11,,65,48
37200,note_on,,1,0,6,,,,,,,,,,,,,,,,5,,77,72
37200,note_on,,0,0,10,,,,,,,,,,,,,,,,15,,65,48
37200,note_on,,0,0,10,,,,,,,,,,,,,,,,15,,70,48
37200,note_on,,1,0,10,,,,,,,,,,,,,,,,15,,50,48
37200,note_on,,1,0,7,,,,,,,,,,,,,,,,10,,65,48
37200,note_on,,1,0,9,,,,,,,,,,,,,,,,13,,50,48
37200,note_on,,1,0,5,,,,,,,,,,,,,,,,2,,50,48
37289,note_on,,89,0,6,,,,,,,,,,,,,,,,5,,77,0
37290,note_on,,1,0,6,,,,,,,,,,,,,,,,5,,75,72
37319,note_on,,119,0,7,,,,,,,,,,,,,,,,10,,65,0
37319,note_on,,29,0,6,,,,,,,,,,,,,,,,5,,75,0
37319,note_on,,119,0,9,,,,,,,,,,,,,,,,13,,50,0
37319,note_on,,119,0,10,,,,,,,,,,,,,,,,15,,50,0
37319,note_on,,0,0,10,,,,,,,,,,,,,,,,15,,70,0
37319,note_on,,119,0,8,,,,,,,,,,,,,,,,11,,65,0
37319,note_on,,119,0,5,,,,,,,,,,,,,,,,2,,50,0
37320,note_on,,1,0,9,,,,,,,,,,,,,,,,13,,53,48
37320,note_on,,1,0,6,,,,,,,,,,,,,,,,5,,74,72
37320,note_on,,1,0,10,,,,,,,,,,,,,,,,15,,53,48
37320,note_on,,0,0,10,,,,,,,,,,,,,,,,15,,69,48
37379,note_on,,59,0,6,,,,,,,,,,,,,,,,5,,74,0
37380,note_on,,1,0,6,,,,,,,,,,,,,,,,5,,72,72
37439,note_on,,119,0,9,,,,,,,,,,,,,,,,13,,53,0
37439,note_on,,119,0,10,,,,,,,,,,,,,,,,15,,65,0
37439,note_on,,0,0,10,,,,,,,,,,,,,,,,15,,53,0
37439,note_on,,59,0,6,,,,,,,,,,,,,,,,5,,72,0
37439,note_on,,0,0,10,,,,,,,,,,,,,,,,15,,69,0
37440,note_on,,0,0,10,,,,,,,,,,,,,,,,15,,70,48
37440,note_on,,1,0,9,,,,,,,,,,,,,,,,13,,58,48
37440,note_on,,0,0,10,,,,,,,,,,,,,,,,15,,74,48
37440,note_on,,1,0,10,,,,,,,,,,,,,,,,15,,58,48
37440,note_on,,0,0,10,,,,,,,,,,,,,,,,15,,65,48
37440,note_on,,1,0,6,,,,,,,,,,,,,,,,5,,74,72
37529,note_on,,89,0,6,,,,,,,,,,,,,,,,5,,74,0
37530,note_on,,1,0,6,,,,,,,,,,,,,,,,5,,72,72
37559,note_on,,29,0,6,,,,,,,,,,,,,,,,5,,72,0
37559,note_on,,119,0,9,,,,,,,,,,,,,,,,13,,58,0
37559,note_on,,0,0,10,,,,,,,,,,,,,,,,15,,65,0
37559,note_on,,0,0,10,,,,,,,,,,,,,,,,15,,70,0
37559,note_on,,0,0,10,,,,,,,,,,,,,,,,15,,74,0
37559,note_on,,119,0,10,,,,,,,,,,,,,,,,15,,58,0
37560,note_on,,241,0,5,,,,,,,,,,,,,,,,2,,62,48
37560,note_on,,1,0,6,,,,,,,,,,,,,,,,5,,70,72
37560,note_on,,0,0,10,,,,,,,,,,,,,,,,15,,70,48
37560,note_on,,0,0,10,,,,,,,,,,,,,,,,15,,65,48
37560,note_on,,1,0,10,,,,,,,,,,,,,,,,15,,62,48
37560,note_on,,1,0,9,,,,,,,,,,,,,,,,13,,62,48
37620,note_on,,301,0,8,,,,,,,,,,,,,,,,11,,82,72
37620,note_on,,301,0,7,,,,,,,,,,,,,,,,10,,82,72
37649,note_on,,89,0,9,,,,,,,,,,,,,,,,13,,62,0
37649,note_on,,89,0,10,,,,,,,,,,,,,,,,15,,62,0
37649,note_on,,89,0,5,,,,,,,,,,,,,,,,2,,62,0
37650,note_on,,1,0,10,,,,,,,,,,,,,,,,15,,58,48
37650,note_on,,1,0,5,,,,,,,,,,,,,,,,2,,58,48
37650,note_on,,1,0,9,,,,,,,,,,,,,,,,13,,58,48
37679,note_on,,0,0,10,,,,,,,,,,,,,,,,15,,65,0
37679,note_on,,29,0,9,,,,,,,,,,,,,,,,13,,58,0
37679,note_on,,59,0,7,,,,,,,,,,,,,,,,10,,82,0
37679,note_on,,29,0,5,,,,,,,,,,,,,,,,2,,58,0
37679,note_on,,59,0,8,,,,,,,,,,,,,,,,11,,82,0
37679,note_on,,119,0,6,,,,,,,,,,,,,,,,5,,70,0
37679,note_on,,0,0,10,,,,,,,,,,,,,,,,15,,58,0
37679,note_on,,29,0,10,,,,,,,,,,,,,,,,15,,70,0
37680,note_on,,1,0,7,,,,,,,,,,,,,,,,10,,81,72
37680,note_on,,1,0,9,,,,,,,,,,,,,,,,13,,53,48
37680,note_on,,1,0,5,,,,,,,,,,,,,,,,2,,53,48
37680,note_on,,0,0,10,,,,,,,,,,,,,,,,15,,53,48
37680,note_on,,0,0,10,,,,,,,,,,,,,,,,15,,77,48
37680,note_on,,0,0,10,,,,,,,,,,,,,,,,15,,69,48
37680,note_on,,1,0,8,,,,,,,,,,,,,,,,11,,81,72
37680,note_on,,1,0,10,,,,,,,,,,,,,,,,15,,74,48
37709,note_on,,29,0,8,,,,,,,,,,,,,,,,11,,81,0
37709,note_on,,29,0,7,,,,,,,,,,,,,,,,10,,81,0
37710,note_on,,1,0,7,,,,,,,,,,,,,,,,10,,74,72
37710,note_on,,1,0,8,,,,,,,,,,,,,,,,11,,74,72
37739,note_on,,29,0,7,,,,,,,,,,,,,,,,10,,74,0
37739,note_on,,29,0,8,,,,,,,,,,,,,,,,11,,74,0
37740,note_on,,1,0,7,,,,,,,,,,,,,,,,10,,75,72
37740,note_on,,1,0,8,,,,,,,,,,,,,,,,11,,75,72
37769,note_on,,29,0,8,,,,,,,,,,,,,,,,11,,75,0
37769,note_on,,29,0,7,,,,,,,,,,,,,,,,10,,75,0
37770,note_on,,1,0,7,,,,,,,,,,,,,,,,10,,74,72
37770,note_on,,1,0,8,,,,,,,,,,,,,,,,11,,74,72
37799,note_on,,119,0,9,,,,,,,,,,,,,,,,13,,53,0
37799,note_on,,119,0,10,,,,,,,,,,,,,,,,15,,74,0
37799,note_on,,0,0,10,,,,,,,,,,,,,,,,15,,53,0
37799,note_on,,0,0,10,,,,,,,,,,,,,,,,15,,77,0
37799,note_on,,119,0,5,,,,,,,,,,,,,,,,2,,53,0
37799,note_on,,29,0,7,,,,,,,,,,,,,,,,10,,74,0
37799,note_on,,29,0,8,,,,,,,,,,,,,,,,11,,74,0
37799,note_on,,0,0,10,,,,,,,,,,,,,,,,15,,69,0
37800,note_on,,1,0,7,,,,,,,,,,,,,,,,10,,79,72
37800,note_on,,1,0,5,,,,,,,,,,,,,,,,2,,51,48
37800,note_on,,1,0,10,,,,,,,,,,,,,,,,15,,51,48
37800,note_on,,0,0,10,,,,,,,,,,,,,,,,15,,72,48
37800,note_on,,0,0,10,,,,,,,,,,,,,,,,15,,67,48
37800,note_on,,0,0,10,,,,,,,,,,,,,,,,15,,60,48
37800,note_on,,1,0,8,,,,,,,,,,,,,,,,11,,79,72
37800,note_on,,1,0,9,,,,,,,,,,,,,,,,13,,51,48
37829,note_on,,29,0,8,,,,,,,,,,,,,,,,11,,79,0
37829,note_on,,29,0,7,,,,,,,,,,,,,,,,10,,79,0
37830,note_on,,1,0,7,,,,,,,,,,,,,,,,10,,72,72
37830,note_on,,1,0,8,,,,,,,,,,,,,,,,11,,72,72
37859,note_on,,29,0,8,,,,,,,,,,,,,,,,11,,72,0
37859,note_on,,29,0,7,,,,,,,,,,,,,,,,10,,72,0
37860,note_on,,1,0,8,,,,,,,,,,,,,,,,11,,74,72
37860,note_on,,1,0,7,,,,,,,,,,,,,,,,10,,74,72
37889,note_on,,29,0,8,,,,,,,,,,,,,,,,11,,74,0
37889,note_on,,29,0,7,,,,,,,,,,,,,,,,10,,74,0
37890,note_on,,1,0,7,,,,,,,,,,,,,,,,10,,72,72
37890,note_on,,1,0,8,,,,,,,,,,,,,,,,11,,72,72
37919,note_on,,29,0,8,,,,,,,,,,,,,,,,11,,72,0
37919,note_on,,119,0,5,,,,,,,,,,,,,,,,2,,51,0
37919,note_on,,119,0,10,,,,,,,,,,,,,,,,15,,51,0
37919,note_on,,0,0,10,,,,,,,,,,,,,,,,15,,72,0
37919,note_on,,0,0,10,,,,,,,,,,,,,,,,15,,67,0
37919,note_on,,0,0,10,,,,,,,,,,,,,,,,15,,60,0
37919,note_on,,119,0,9,,,,,,,,,,,,,,,,13,,51,0
37919,note_on,,29,0,7,,,,,,,,,,,,,,,,10,,72,0
37920,note_on,,1,0,10,,,,,,,,,,,,,,,,15,,50,48
37920,note_on,,0,0,10,,,,,,,,,,,,,,,,15,,70,48
37920,note_on,,1,0,9,,,,,,,,,,,,,,,,13,,50,48
37920,note_on,,1,0,8,,,,,,,,,,,,,,,,11,,77,72
37920,note_on,,1,0,7,,,,,,,,,,,,,,,,10,,77,72
37920,note_on,,1,0,5,,,,,,,,,,,,,,,,2,,50,48
37920,note_on,,0,0,10,,,,,,,,,,,,,,,,15,,65,48
37920,note_on,,0,0,10,,,,,,,,,,,,,,,,15,,62,48
37949,note_on,,29,0,7,,,,,,,,,,,,,,,,10,,77,0
37949,note_on,,29,0,8,,,,,,,,,,,,,,,,11,,77,0
37950,note_on,,1,0,7,,,,,,,,,,,,,,,,10,,70,72
37950,note_on,,1,0,8,,,,,,,,,,,,,,,,11,,70,72
37979,note_on,,29,0,7,,,,,,,,,,,,,,,,10,,70,0
37979,note_on,,29,0,8,,,,,,,,,,,,,,,,11,,70,0
37980,note_on,,1,0,7,,,,,,,,,,,,,,,,10,,72,72
37980,note_on,,1,0,8,,,,,,,,,,,,,,,,11,,72,72
38009,note_on,,29,0,7,,,,,,,,,,,,,,,,10,,72,0
38009,note_on,,29,0,8,,,,,,,,,,,,,,,,11,,72,0
38010,note_on,,1,0,8,,,,,,,,,,,,,,,,11,,70,72
38010,note_on,,1,0,7,,,,,,,,,,,,,,,,10,,70,72
38039,note_on,,0,0,10,,,,,,,,,,,,,,,,15,,70,0
38039,note_on,,119,0,9,,,,,,,,,,,,,,,,13,,50,0
38039,note_on,,29,0,7,,,,,,,,,,,,,,,,10,,70,0
38039,note_on,,29,0,8,,,,,,,,,,,,,,,,11,,70,0
38039,note_on,,119,0,10,,,,,,,,,,,,,,,,15,,50,0
38039,note_on,,119,0,5,,,,,,,,,,,,,,,,2,,50,0
38039,note_on,,0,0,10,,,,,,,,,,,,,,,,15,,62,0
38039,note_on,,0,0,10,,,,,,,,,,,,,,,,15,,65,0
38040,note_on,,1,0,8,,,,,,,,,,,,,,,,11,,75,72
38040,note_on,,1,0,5,,,,,,,,,,,,,,,,2,,48,48
38040,note_on,,1,0,9,,,,,,,,,,,,,,,,13,,48,48
38040,note_on,,1,0,10,,,,,,,,,,,,,,,,15,,48,48
38040,note_on,,0,0,10,,,,,,,,,,,,,,,,15,,72,48
38040,note_on,,0,0,10,,,,,,,,,,,,,,,,15,,69,48
38040,note_on,,0,0,10,,,,,,,,,,,,,,,,15,,63,48
38040,note_on,,1,0,7,,,,,,,,,,,,,,,,10,,75,72
38069,note_on,,29,0,7,,,,,,,,,,,,,,,,10,,75,0
38069,note_on,,29,0,8,,,,,,,,,,,,,,,,11,,75,0
38070,note_on,,1,0,7,,,,,,,,,,,,,,,,10,,69,72
38070,note_on,,1,0,8,,,,,,,,,,,,,,,,11,,69,72
38099,note_on,,29,0,7,,,,,,,,,,,,,,,,10,,69,0
38099,note_on,,29,0,8,,,,,,,,,,,,,,,,11,,69,0
38100,note_on,,1,0,7,,,,,,,,,,,,,,,,10,,70,72
38100,note_on,,421,0,6,,,,,,,,,,,,,,,,5,,72,72
38100,note_on,,1,0,8,,,,,,,,,,,,,,,,11,,70,72
38129,note_on,,29,0,8,,,,,,,,,,,,,,,,11,,70,0
38129,note_on,,29,0,7,,,,,,,,,,,,,,,,10,,70,0
38130,note_on,,1,0,7,,,,,,,,,,,,,,,,10,,69,72
38130,note_on,,1,0,8,,,,,,,,,,,,,,,,11,,69,72
38159,note_on,,29,0,8,,,,,,,,,,,,,,,,11,,69,0
38159,note_on,,119,0,10,,,,,,,,,,,,,,,,15,,48,0
38159,note_on,,119,0,5,,,,,,,,,,,,,,,,2,,48,0
38159,note_on,,59,0,6,,,,,,,,,,,,,,,,5,,72,0
38159,note_on,,29,0,7,,,,,,,,,,,,,,,,10,,69,0
38159,note_on,,119,0,9,,,,,,,,,,,,,,,,13,,48,0
38159,note_on,,0,0,10,,,,,,,,,,,,,,,,15,,72,0
38159,note_on,,0,0,10,,,,,,,,,,,,,,,,15,,69,0
38159,note_on,,0,0,10,,,,,,,,,,,,,,,,15,,63,0
38160,note_on,,1,0,6,,,,,,,,,,,,,,,,5,,77,72
38160,note_on,,1,0,5,,,,,,,,,,,,,,,,2,,46,48
38160,note_on,,0,0,10,,,,,,,,,,,,,,,,15,,70,48
38160,note_on,,0,0,10,,,,,,,,,,,,,,,,15,,46,48
38160,note_on,,0,0,10,,,,,,,,,,,,,,,,15,,74,48
38160,note_on,,1,0,10,,,,,,,,,,,,,,,,15,,65,48
38160,note_on,,1,0,7,,,,,,,,,,,,,,,,10,,74,72
38160,note_on,,1,0,9,,,,,,,,,,,,,,,,13,,46,48
38160,note_on,,1,0,8,,,,,,,,,,,,,,,,11,,74,72
38279,note_on,,0,0,10,,,,,,,,,,,,,,,,15,,46,0
38279,note_on,,119,0,6,,,,,,,,,,,,,,,,5,,77,0
38279,note_on,,119,0,5,,,,,,,,,,,,,,,,2,,46,0
38279,note_on,,119,0,8,,,,,,,,,,,,,,,,11,,74,0
38279,note_on,,119,0,7,,,,,,,,,,,,,,,,10,,74,0
38279,note_on,,0,0,10,,,,,,,,,,,,,,,,15,,74,0
38279,note_on,,119,0,10,,,,,,,,,,,,,,,,15,,65,0
38279,note_on,,119,0,9,,,,,,,,,,,,,,,,13,,46,0
38279,note_on,,0,0,10,,,,,,,,,,,,,,,,15,,70,0
38280,note_on,,1,0,10,,,,,,,,,,,,,,,,15,,51,48
38280,note_on,,0,0,10,,,,,,,,,,,,,,,,15,,72,48
38280,note_on,,0,0,10,,,,,,,,,,,,,,,,15,,67,48
38280,note_on,,1,0,9,,,,,,,,,,,,,,,,13,,51,48
38280,note_on,,1,0,6,,,,,,,,,,,,,,,,5,,75,72
38280,note_on,,0,0,10,,,,,,,,,,,,,,,,15,,63,48
38294,note_on,,14,0,6,,,,,,,,,,,,,,,,5,,75,0
38295,note_on,,1,0,6,,,,,,,,,,,,,,,,5,,77,72
38309,note_on,,14,0,6,,,,,,,,,,,,,,,,5,,77,0
38310,note_on,,1,0,6,,,,,,,,,,,,,,,,5,,75,72
38324,note_on,,14,0,6,,,,,,,,,,,,,,,,5,,75,0
38325,note_on,,1,0,6,,,,,,,,,,,,,,,,5,,77,72
38339,note_on,,14,0,6,,,,,,,,,,,,,,,,5,,77,0
38340,note_on,,1,0,6,,,,,,,,,,,,,,,,5,,75,72
38354,note_on,,14,0,6,,,,,,,,,,,,,,,,5,,75,0
38355,note_on,,1,0,6,,,,,,,,,,,,,,,,5,,77,72
38369,note_on,,14,0,6,,,,,,,,,,,,,,,,5,,77,0
38370,note_on,,1,0,6,,,,,,,,,,,,,,,,5,,74,72
38399,note_on,,119,0,9,,,,,,,,,,,,,,,,13,,51,0
38399,note_on,,119,0,10,,,,,,,,,,,,,,,,15,,51,0
38399,note_on,,29,0,6,,,,,,,,,,,,,,,,5,,74,0
38399,note_on,,0,0,10,,,,,,,,,,,,,,,,15,,72,0
38399,note_on,,0,0,10,,,,,,,,,,,,,,,,15,,67,0
38399,note_on,,0,0,10,,,,,,,,,,,,,,,,15,,63,0
38400,note_on,,1,0,10,,,,,,,,,,,,,,,,15,,53,48
38400,note_on,,0,0,10,,,,,,,,,,,,,,,,15,,69,48
38400,note_on,,0,0,10,,,,,,,,,,,,,,,,15,,60,48
38400,note_on,,1,0,9,,,,,,,,,,,,,,,,13,,53,48
38400,note_on,,1,0,6,,,,,,,,,,,,,,,,5,,72,72
38400,note_on,,0,0,10,,,,,,,,,,,,,,,,15,,65,48
38519,note_on,,119,0,10,,,,,,,,,,,,,,,,15,,53,0
38519,note_on,,0,0,10,,,,,,,,,,,,,,,,15,,69,0
38519,note_on,,0,0,10,,,,,,,,,,,,,,,,15,,65,0
38519,note_on,,119,0,9,,,,,,,,,,,,,,,,13,,53,0
38519,note_on,,0,0,10,,,,,,,,,,,,,,,,15,,60,0
38519,note_on,,119,0,6,,,,,,,,,,,,,,,,5,,72,0
38520,note_on,,0,0,10,,,,,,,,,,,,,,,,15,,74,48
38520,note_on,,1,0,6,,,,,,,,,,,,,,,,5,,77,72
38520,note_on,,1,0,10,,,,,,,,,,,,,,,,15,,50,48
38520,note_on,,1,0,9,,,,,,,,,,,,,,,,13,,50,48
38520,note_on,,0,0,10,,,,,,,,,,,,,,,,15,,70,48
38520,note_on,,0,0,10,,,,,,,,,,,,,,,,15,,65,48
38520,note_on,,0,0,10,,,,,,,,,,,,,,,,15,,53,48
38609,note_on,,89,0,6,,,,,,,,,,,,,,,,5,,77,0
38610,note_on,,1,0,6,,,,,,,,,,,,,,,,5,,75,72
38624,note_on,,14,0,6,,,,,,,,,,,,,,,,5,,75,0
38625,note_on,,1,0,6,,,,,,,,,,,,,,,,5,,74,72
38639,note_on,,0,0,10,,,,,,,,,,,,,,,,15,,74,0
38639,note_on,,119,0,9,,,,,,,,,,,,,,,,13,,50,0
38639,note_on,,0,0,10,,,,,,,,,,,,,,,,15,,70,0
38639,note_on,,14,0,6,,,,,,,,,,,,,,,,5,,74,0
38639,note_on,,0,0,10,,,,,,,,,,,,,,,,15,,65,0
38639,note_on,,0,0,10,,,,,,,,,,,,,,,,15,,53,0
38639,note_on,,119,0,10,,,,,,,,,,,,,,,,15,,50,0
38640,note_on,,1,0,9,,,,,,,,,,,,,,,,13,,55,48
38640,note_on,,1,0,6,,,,,,,,,,,,,,,,5,,70,72
38640,note_on,,1,0,10,,,,,,,,,,,,,,,,15,,55,48
38640,note_on,,0,0,10,,,,,,,,,,,,,,,,15,,67,48
38640,note_on,,0,0,10,,,,,,,,,,,,,,,,15,,65,48
38654,note_on,,14,0,6,,,,,,,,,,,,,,,,5,,70,0
38655,note_on,,1,0,6,,,,,,,,,,,,,,,,5,,72,72
38669,note_on,,14,0,6,,,,,,,,,,,,,,,,5,,72,0
38670,note_on,,1,0,6,,,,,,,,,,,,,,,,5,,70,72
38684,note_on,,14,0,6,,,,,,,,,,,,,,,,5,,70,0
38685,note_on,,1,0,6,,,,,,,,,,,,,,,,5,,72,72
38699,note_on,,14,0,6,,,,,,,,,,,,,,,,5,,72,0
38700,note_on,,1,0,6,,,,,,,,,,,,,,,,5,,70,72
38714,note_on,,14,0,6,,,,,,,,,,,,,,,,5,,70,0
38715,note_on,,1,0,6,,,,,,,,,,,,,,,,5,,72,72
38729,note_on,,14,0,6,,,,,,,,,,,,,,,,5,,72,0
38730,note_on,,1,0,6,,,,,,,,,,,,,,,,5,,70,72
38744,note_on,,14,0,6,,,,,,,,,,,,,,,,5,,70,0
38745,note_on,,1,0,6,,,,,,,,,,,,,,,,5,,72,72
38759,note_on,,14,0,6,,,,,,,,,,,,,,,,5,,72,0
38759,note_on,,0,0,10,,,,,,,,,,,,,,,,15,,65,0
38759,note_on,,119,0,10,,,,,,,,,,,,,,,,15,,55,0
38759,note_on,,119,0,9,,,,,,,,,,,,,,,,13,,55,0
38760,note_on,,1,0,6,,,,,,,,,,,,,,,,5,,70,72
38760,note_on,,0,0,10,,,,,,,,,,,,,,,,15,,60,48
38760,note_on,,1,0,9,,,,,,,,,,,,,,,,13,,48,48
38760,note_on,,1,0,10,,,,,,,,,,,,,,,,15,,48,48
38760,note_on,,0,0,10,,,,,,,,,,,,,,,,15,,64,48
38760,note_on,,0,0,10,,,,,,,,,,,,,,,,15,,55,48
38774,note_on,,14,0,6,,,,,,,,,,,,,,,,5,,70,0
38775,note_on,,1,0,6,,,,,,,,,,,,,,,,5,,72,72
38789,note_on,,14,0,6,,,,,,,,,,,,,,,,5,,72,0
38790,note_on,,1,0,6,,,,,,,,,,,,,,,,5,,70,72
38804,note_on,,14,0,6,,,,,,,,,,,,,,,,5,,70,0
38805,note_on,,1,0,6,,,,,,,,,,,,,,,,5,,72,72
38819,note_on,,14,0,6,,,,,,,,,,,,,,,,5,,72,0
38820,note_on,,1,0,6,,,,,,,,,,,,,,,,5,,69,72
38879,note_on,,119,0,9,,,,,,,,,,,,,,,,13,,48,0
38879,note_on,,119,0,10,,,,,,,,,,,,,,,,15,,67,0
38879,note_on,,0,0,10,,,,,,,,,,,,,,,,15,,48,0
38879,note_on,,0,0,10,,,,,,,,,,,,,,,,15,,55,0
38879,note_on,,59,0,6,,,,,,,,,,,,,,,,5,,69,0
38879,note_on,,0,0,10,,,,,,,,,,,,,,,,15,,64,0
38879,note_on,,0,0,10,,,,,,,,,,,,,,,,15,,60,0
38880,note_on,,1,0,10,,,,,,,,,,,,,,,,15,,53,48
38880,note_on,,0,0,10,,,,,,,,,,,,,,,,15,,65,48
38880,note_on,,0,0,10,,,,,,,,,,,,,,,,15,,60,48
38880,note_on,,0,0,10,,,,,,,,,,,,,,,,15,,57,48
38880,note_on,,1,0,9,,,,,,,,,,,,,,,,13,,53,48
38880,note_on,,1,0,6,,,,,,,,,,,,,,,,5,,69,72
38999,note_on,,119,0,10,,,,,,,,,,,,,,,,15,,53,0
38999,note_on,,0,0,10,,,,,,,,,,,,,,,,15,,65,0
38999,note_on,,0,0,10,,,,,,,,,,,,,,,,15,,60,0
38999,note_on,,119,0,9,,,,,,,,,,,,,,,,13,,53,0
38999,note_on,,119,0,6,,,,,,,,,,,,,,,,5,,69,0
39000,note_on,,1,0,10,,,,,,,,,,,,,,,,15,,51,48
39000,note_on,,0,0,10,,,,,,,,,,,,,,,,15,,69,48
39000,note_on,,0,0,10,,,,,,,,,,,,,,,,15,,72,48
39000,note_on,,0,0,10,,,,,,,,,,,,,,,,15,,65,48
39000,note_on,,1,0,9,,,,,,,,,,,,,,,,13,,51,48
39060,note_on,,61,0,6,,,,,,,,,,,,,,,,5,,65,72
39119,note_on,,59,0,6,,,,,,,,,,,,,,,,5,,65,0
39119,note_on,,119,0,9,,,,,,,,,,,,,,,,13,,51,0
39119,note_on,,0,0,10,,,,,,,,,,,,,,,,15,,69,0
39119,note_on,,0,0,10,,,,,,,,,,,,,,,,15,,72,0
39119,note_on,,0,0,10,,,,,,,,,,,,,,,,15,,51,0
39119,note_on,,0,0,10,,,,,,,,,,,,,,,,15,,65,0
39119,note_on,,119,0,10,,,,,,,,,,,,,,,,15,,57,0
39120,note_on,,0,0,10,,,,,,,,,,,,,,,,15,,50,48
39120,note_on,,0,0,10,,,,,,,,,,,,,,,,15,,53,48
39120,note_on,,0,0,10,,,,,,,,,,,,,,,,15,,70,48
39120,note_on,,0,0,10,,,,,,,,,,,,,,,,15,,74,48
39120,note_on,,1,0,10,,,,,,,,,,,,,,,,15,,65,48
39120,note_on,,1,0,6,,,,,,,,,,,,,,,,5,,70,72
39120,note_on,,1,0,9,,,,,,,,,,,,,,,,13,,50,48
39149,note_on,,29,0,6,,,,,,,,,,,,,,,,5,,70,0
39150,note_on,,1,0,6,,,,,,,,,,,,,,,,5,,74,72
39179,note_on,,29,0,6,,,,,,,,,,,,,,,,5,,74,0
39180,note_on,,1,0,6,,,,,,,,,,,,,,,,5,,72,72
39209,note_on,,29,0,6,,,,,,,,,,,,,,,,5,,72,0
39210,note_on,,1,0,6,,,,,,,,,,,,,,,,5,,70,72
39239,note_on,,0,0,10,,,,,,,,,,,,,,,,15,,53,0
39239,note_on,,29,0,6,,,,,,,,,,,,,,,,5,,70,0
39239,note_on,,0,0,10,,,,,,,,,,,,,,,,15,,70,0
39239,note_on,,0,0,10,,,,,,,,,,,,,,,,15,,50,0
39239,note_on,,119,0,10,,,,,,,,,,,,,,,,15,,65,0
39239,note_on,,119,0,9,,,,,,,,,,,,,,,,13,,50,0
39239,note_on,,0,0,10,,,,,,,,,,,,,,,,15,,74,0
39240,note_on,,1,0,9,,,,,,,,,,,,,,,,13,,45,48
39240,note_on,,1,0,6,,,,,,,,,,,,,,,,5,,72,72
39240,note_on,,1,0,10,,,,,,,,,,,,,,,,15,,45,48
39240,note_on,,0,0,10,,,,,,,,,,,,,,,,15,,72,48
39240,note_on,,0,0,10,,,,,,,,,,,,,,,,15,,65,48
39240,note_on,,0,0,10,,,,,,,,,,,,,,,,15,,60,48
39240,note_on,,0,0,10,,,,,,,,,,,,,,,,15,,53,48
39269,note_on,,29,0,6,,,,,,,,,,,,,,,,5,,72,0
39270,note_on,,1,0,6,,,,,,,,,,,,,,,,5,,75,72
39299,note_on,,29,0,6,,,,,,,,,,,,,,,,5,,75,0
39300,note_on,,1,0,6,,,,,,,,,,,,,,,,5,,74,72
39329,note_on,,29,0,6,,,,,,,,,,,,,,,,5,,74,0
39330,note_on,,1,0,6,,,,,,,,,,,,,,,,5,,72,72
39359,note_on,,0,0,10,,,,,,,,,,,,,,,,15,,72,0
39359,note_on,,0,0,10,,,,,,,,,,,,,,,,15,,60,0
39359,note_on,,0,0,10,,,,,,,,,,,,,,,,15,,53,0
39359,note_on,,29,0,6,,,,,,,,,,,,,,,,5,,72,0
39359,note_on,,0,0,10,,,,,,,,,,,,,,,,15,,65,0
39359,note_on,,119,0,9,,,,,,,,,,,,,,,,13,,45,0
39359,note_on,,119,0,10,,,,,,,,,,,,,,,,15,,45,0
39360,note_on,,1,0,6,,,,,,,,,,,,,,,,5,,74,72
39360,note_on,,1,0,9,,,,,,,,,,,,,,,,13,,46,48
39360,note_on,,0,0,10,,,,,,,,,,,,,,,,15,,53,48
39360,note_on,,0,0,10,,,,,,,,,,,,,,,,15,,62,48
39360,note_on,,0,0,10,,,,,,,,,,,,,,,,15,,65,48
39360,note_on,,0,0,10,,,,,,,,,,,,,,,,15,,70,48
39360,note_on,,1,0,10,,,,,,,,,,,,,,,,15,,46,48
39389,note_on,,29,0,6,,,,,,,,,,,,,,,,5,,74,0
39390,note_on,,1,0,6,,,,,,,,,,,,,,,,5,,72,72
39419,note_on,,29,0,6,,,,,,,,,,,,,,,,5,,72,0
39420,note_on,,1,0,6,,,,,,,,,,,,,,,,5,,70,72
39479,note_on,,0,0,10,,,,,,,,,,,,,,,,15,,62,0
39479,note_on,,0,0,10,,,,,,,,,,,,,,,,15,,65,0
39479,note_on,,59,0,6,,,,,,,,,,,,,,,,5,,70,0
39479,note_on,,119,0,10,,,,,,,,,,,,,,,,15,,46,0
39479,note_on,,119,0,9,,,,,,,,,,,,,,,,13,,46,0
39479,note_on,,0,0,10,,,,,,,,,,,,,,,,15,,70,0
39480,note_on,,1,0,10,,,,,,,,,,,,,,,,15,,50,48
39480,note_on,,0,0,10,,,,,,,,,,,,,,,,15,,65,48
39480,note_on,,0,0,10,,,,,,,,,,,,,,,,15,,58,48
39480,note_on,,1201,0,5,,,,,,,,,,,,,,,,2,,50,48
39480,note_on,,1,0,9,,,,,,,,,,,,,,,,13,,50,48
39510,note_on,,1231,0,8,,,,,,,,,,,,,,,,11,,65,72
39510,note_on,,1231,0,7,,,,,,,,,,,,,,,,10,,65,72
39539,note_on,,29,0,8,,,,,,,,,,,,,,,,11,,65,0
39539,note_on,,29,0,7,,,,,,,,,,,,,,,,10,,65,0
39540,note_on,,1,0,7,,,,,,,,,,,,,,,,10,,67,72
39540,note_on,,1,0,8,,,,,,,,,,,,,,,,11,,67,72
39569,note_on,,29,0,8,,,,,,,,,,,,,,,,11,,67,0
39569,note_on,,29,0,7,,,,,,,,,,,,,,,,10,,67,0
39570,note_on,,1,0,7,,,,,,,,,,,,,,,,10,,69,72
39570,note_on,,1,0,8,,,,,,,,,,,,,,,,11,,69,72
39599,note_on,,119,0,9,,,,,,,,,,,,,,,,13,,50,0
39599,note_on,,119,0,5,,,,,,,,,,,,,,,,2,,50,0
39599,note_on,,29,0,8,,,,,,,,,,,,,,,,11,,69,0
39599,note_on,,29,0,7,,,,,,,,,,,,,,,,10,,69,0
39599,note_on,,119,0,10,,,,,,,,,,,,,,,,15,,53,0
39599,note_on,,0,0,10,,,,,,,,,,,,,,,,15,,50,0
39599,note_on,,0,0,10,,,,,,,,,,,,,,,,15,,58,0
39599,note_on,,0,0,10,,,,,,,,,,,,,,,,15,,65,0
39600,note_on,,1,0,8,,,,,,,,,,,,,,,,11,,70,72
39600,note_on,,1,0,9,,,,,,,,,,,,,,,,13,,43,48
39600,note_on,,0,0,10,,,,,,,,,,,,,,,,15,,67,48
39600,note_on,,1,0,7,,,,,,,,,,,,,,,,10,,70,72
39600,note_on,,0,0,10,,,,,,,,,,,,,,,,15,,58,48
39600,note_on,,1,0,5,,,,,,,,,,,,,,,,2,,43,48
39600,note_on,,0,0,10,,,,,,,,,,,,,,,,15,,50,48
39600,note_on,,1,0,10,,,,,,,,,,,,,,,,15,,43,48
39629,note_on,,29,0,8,,,,,,,,,,,,,,,,11,,70,0
39629,note_on,,29,0,7,,,,,,,,,,,,,,,,10,,70,0
39630,note_on,,1,0,8,,,,,,,,,,,,,,,,11,,74,72
39630,note_on,,1,0,7,,,,,,,,,,,,,,,,10,,74,72
39659,note_on,,29,0,8,,,,,,,,,,,,,,,,11,,74,0
39659,note_on,,29,0,7,,,,,,,,,,,,,,,,10,,74,0
39660,note_on,,1,0,8,,,,,,,,,,,,,,,,11,,72,72
39660,note_on,,1,0,7,,,,,,,,,,,,,,,,10,,72,72
39689,note_on,,29,0,8,,,,,,,,,,,,,,,,11,,72,0
39689,note_on,,29,0,7,,,,,,,,,,,,,,,,10,,72,0
39690,note_on,,1,0,7,,,,,,,,,,,,,,,,10,,70,72
39690,note_on,,1,0,8,,,,,,,,,,,,,,,,11,,70,72
39719,note_on,,119,0,10,,,,,,,,,,,,,,,,15,,43,0
39719,note_on,,0,0,10,,,,,,,,,,,,,,,,15,,67,0
39719,note_on,,0,0,10,,,,,,,,,,,,,,,,15,,50,0
39719,note_on,,29,0,8,,,,,,,,,,,,,,,,11,,70,0
39719,note_on,,119,0,5,,,,,,,,,,,,,,,,2,,43,0
39719,note_on,,0,0,10,,,,,,,,,,,,,,,,15,,58,0
39719,note_on,,119,0,9,,,,,,,,,,,,,,,,13,,43,0
39719,note_on,,29,0,7,,,,,,,,,,,,,,,,10,,70,0
39720,note_on,,1,0,7,,,,,,,,,,,,,,,,10,,72,72
39720,note_on,,1,0,10,,,,,,,,,,,,,,,,15,,45,48
39720,note_on,,0,0,10,,,,,,,,,,,,,,,,15,,65,48
39720,note_on,,0,0,10,,,,,,,,,,,,,,,,15,,60,48
39720,note_on,,1,0,8,,,,,,,,,,,,,,,,11,,72,72
39720,note_on,,1,0,5,,,,,,,,,,,,,,,,2,,45,48
39720,note_on,,0,0,10,,,,,,,,,,,,,,,,15,,53,48
39720,note_on,,1,0,9,,,,,,,,,,,,,,,,13,,45,48
39749,note_on,,29,0,7,,,,,,,,,,,,,,,,10,,72,0
39749,note_on,,29,0,8,,,,,,,,,,,,,,,,11,,72,0
39750,note_on,,1,0,7,,,,,,,,,,,,,,,,10,,75,72
39750,note_on,,1,0,8,,,,,,,,,,,,,,,,11,,75,72
39779,note_on,,29,0,7,,,,,,,,,,,,,,,,10,,75,0
39779,note_on,,29,0,8,,,,,,,,,,,,,,,,11,,75,0
39780,note_on,,1,0,7,,,,,,,,,,,,,,,,10,,74,72
39780,note_on,,1,0,8,,,,,,,,,,,,,,,,11,,74,72
39809,note_on,,29,0,8,,,,,,,,,,,,,,,,11,,74,0
39809,note_on,,29,0,7,,,,,,,,,,,,,,,,10,,74,0
39810,note_on,,1,0,7,,,,,,,,,,,,,,,,10,,72,72
39810,note_on,,1,0,8,,,,,,,,,,,,,,,,11,,72,72
39839,note_on,,119,0,10,,,,,,,,,,,,,,,,15,,45,0
39839,note_on,,0,0,10,,,,,,,,,,,,,,,,15,,65,0
39839,note_on,,0,0,10,,,,,,,,,,,,,,,,15,,60,0
39839,note_on,,0,0,10,,,,,,,,,,,,,,,,15,,53,0
39839,note_on,,119,0,9,,,,,,,,,,,,,,,,13,,45,0
39839,note_on,,29,0,8,,,,,,,,,,,,,,,,11,,72,0
39839,note_on,,119,0,5,,,,,,,,,,,,,,,,2,,45,0
39839,note_on,,29,0,7,,,,,,,,,,,,,,,,10,,72,0
39840,note_on,,0,0,10,,,,,,,,,,,,,,,,15,,62,48
39840,note_on,,1,0,10,,,,,,,,,,,,,,,,15,,46,48
39840,note_on,,0,0,10,,,,,,,,,,,,,,,,15,,58,48
39840,note_on,,1,0,8,,,,,,,,,,,,,,,,11,,74,72
39840,note_on,,1,0,9,,,,,,,,,,,,,,,,13,,46,48
39840,note_on,,1,0,5,,,,,,,,,,,,,,,,2,,46,48
39840,note_on,,0,0,10,,,,,,,,,,,,,,,,15,,53,48
39840,note_on,,0,0,10,,,,,,,,,,,,,,,,15,,65,48
39840,note_on,,1,0,7,,,,,,,,,,,,,,,,10,,74,72
39869,note_on,,29,0,8,,,,,,,,,,,,,,,,11,,74,0
39869,note_on,,29,0,7,,,,,,,,,,,,,,,,10,,74,0
39870,note_on,,1,0,8,,,,,,,,,,,,,,,,11,,72,72
39870,note_on,,1,0,7,,,,,,,,,,,,,,,,10,,72,72
39899,note_on,,29,0,8,,,,,,,,,,,,,,,,11,,72,0
39899,note_on,,29,0,7,,,,,,,,,,,,,,,,10,,72,0
39900,note_on,,1,0,8,,,,,,,,,,,,,,,,11,,70,72
39900,note_on,,1,0,7,,,,,,,,,,,,,,,,10,,70,72
39959,note_on,,119,0,10,,,,,,,,,,,,,,,,15,,46,0
39959,note_on,,0,0,10,,,,,,,,,,,,,,,,15,,65,0
39959,note_on,,0,0,10,,,,,,,,,,,,,,,,15,,62,0
39959,note_on,,0,0,10,,,,,,,,,,,,,,,,15,,58,0
39959,note_on,,0,0,10,,,,,,,,,,,,,,,,15,,53,0
39959,note_on,,119,0,5,,,,,,,,,,,,,,,,2,,46,0
39959,note_on,,59,0,7,,,,,,,,,,,,,,,,10,,70,0
39959,note_on,,119,0,9,,,,,,,,,,,,,,,,13,,46,0
39959,note_on,,59,0,8,,,,,,,,,,,,,,,,11,,70,0
39960,note_on,,1,0,10,,,,,,,,,,,,,,,,15,,56,48
39960,note_on,,1,0,9,,,,,,,,,,,,,,,,13,,56,48
39960,note_on,,0,0,10,,,,,,,,,,,,,,,,15,,62,48
39960,note_on,,0,0,10,,,,,,,,,,,,,,,,15,,65,48
39960,note_on,,0,0,10,,,,,,,,,,,,,,,,15,,70,48
40020,note_on,,541,0,6,,,,,,,,,,,,,,,,5,,70,72
40079,note_on,,0,0,10,,,,,,,,,,,,,,,,15,,65,0
40079,note_on,,119,0,10,,,,,,,,,,,,,,,,15,,56,0
40079,note_on,,0,0,10,,,,,,,,,,,,,,,,15,,70,0
40079,note_on,,59,0,6,,,,,,,,,,,,,,,,5,,70,0
40079,note_on,,0,0,10,,,,,,,,,,,,,,,,15,,62,0
40079,note_on,,119,0,9,,,,,,,,,,,,,,,,13,,56,0
40080,note_on,,0,0,10,,,,,,,,,,,,,,,,15,,75,48
40080,note_on,,1,0,6,,,,,,,,,,,,,,,,5,,75,72
40080,note_on,,1,0,9,,,,,,,,,,,,,,,,13,,55,48
40080,note_on,,1,0,10,,,,,,,,,,,,,,,,15,,55,48
40080,note_on,,0,0,10,,,,,,,,,,,,,,,,15,,70,48
40080,note_on,,0,0,10,,,,,,,,,,,,,,,,15,,67,48
40109,note_on,,29,0,6,,,,,,,,,,,,,,,,5,,75,0
40110,note_on,,1,0,6,,,,,,,,,,,,,,,,5,,79,72
40139,note_on,,29,0,6,,,,,,,,,,,,,,,,5,,79,0
40140,note_on,,1,0,6,,,,,,,,,,,,,,,,5,,77,72
40169,note_on,,29,0,6,,,,,,,,,,,,,,,,5,,77,0
40170,note_on,,1,0,6,,,,,,,,,,,,,,,,5,,75,72
40199,note_on,,29,0,6,,,,,,,,,,,,,,,,5,,75,0
40199,note_on,,119,0,9,,,,,,,,,,,,,,,,13,,55,0
40199,note_on,,0,0,10,,,,,,,,,,,,,,,,15,,75,0
40199,note_on,,0,0,10,,,,,,,,,,,,,,,,15,,67,0
40199,note_on,,0,0,10,,,,,,,,,,,,,,,,15,,70,0
40199,note_on,,119,0,10,,,,,,,,,,,,,,,,15,,55,0
40200,note_on,,0,0,10,,,,,,,,,,,,,,,,15,,65,48
40200,note_on,,1,0,9,,,,,,,,,,,,,,,,13,,50,48
40200,note_on,,0,0,10,,,,,,,,,,,,,,,,15,,70,48
40200,note_on,,1,0,10,,,,,,,,,,,,,,,,15,,50,48
40200,note_on,,1,0,6,,,,,,,,,,,,,,,,5,,77,72
40229,note_on,,29,0,6,,,,,,,,,,,,,,,,5,,77,0
40230,note_on,,1,0,6,,,,,,,,,,,,,,,,5,,80,72
40259,note_on,,29,0,6,,,,,,,,,,,,,,,,5,,80,0
40260,note_on,,1,0,6,,,,,,,,,,,,,,,,5,,79,72
40289,note_on,,29,0,6,,,,,,,,,,,,,,,,5,,79,0
40290,note_on,,1,0,6,,,,,,,,,,,,,,,,5,,77,72
40319,note_on,,119,0,10,,,,,,,,,,,,,,,,15,,50,0
40319,note_on,,0,0,10,,,,,,,,,,,,,,,,15,,70,0
40319,note_on,,0,0,10,,,,,,,,,,,,,,,,15,,65,0
40319,note_on,,119,0,9,,,,,,,,,,,,,,,,13,,50,0
40319,note_on,,29,0,6,,,,,,,,,,,,,,,,5,,77,0
40320,note_on,,1,0,6,,,,,,,,,,,,,,,,5,,79,72
40320,note_on,,0,0,10,,,,,,,,,,,,,,,,15,,67,48
40320,note_on,,1,0,9,,,,,,,,,,,,,,,,13,,51,48
40320,note_on,,0,0,10,,,,,,,,,,,,,,,,15,,58,48
40320,note_on,,1,0,10,,,,,,,,,,,,,,,,15,,51,48
40320,note_on,,0,0,10,,,,,,,,,,,,,,,,15,,63,48
40349,note_on,,29,0,6,,,,,,,,,,,,,,,,5,,79,0
40350,note_on,,1,0,6,,,,,,,,,,,,,,,,5,,77,72
40379,note_on,,29,0,6,,,,,,,,,,,,,,,,5,,77,0
40380,note_on,,1,0,6,,,,,,,,,,,,,,,,5,,75,72
40439,note_on,,119,0,10,,,,,,,,,,,,,,,,15,,51,0
40439,note_on,,59,0,6,,,,,,,,,,,,,,,,5,,75,0
40439,note_on,,119,0,9,,,,,,,,,,,,,,,,13,,51,0
40439,note_on,,0,0,10,,,,,,,,,,,,,,,,15,,63,0
40439,note_on,,0,0,10,,,,,,,,,,,,,,,,15,,67,0
40440,note_on,,0,0,10,,,,,,,,,,,,,,,,15,,70,48
40440,note_on,,0,0,10,,,,,,,,,,,,,,,,15,,63,48
40440,note_on,,1,0,9,,,,,,,,,,,,,,,,13,,55,48
40440,note_on,,1,0,10,,,,,,,,,,,,,,,,15,,55,48
40440,note_on,,481,0,5,,,,,,,,,,,,,,,,2,,55,48
40470,note_on,,511,0,8,,,,,,,,,,,,,,,,11,,70,72
40470,note_on,,511,0,7,,,,,,,,,,,,,,,,10,,70,72
40499,note_on,,29,0,7,,,,,,,,,,,,,,,,10,,70,0
40499,note_on,,29,0,8,,,,,,,,,,,,,,,,11,,70,0
40500,note_on,,1,0,7,,,,,,,,,,,,,,,,10,,72,72
40500,note_on,,1,0,8,,,,,,,,,,,,,,,,11,,72,72
40529,note_on,,29,0,7,,,,,,,,,,,,,,,,10,,72,0
40529,note_on,,29,0,8,,,,,,,,,,,,,,,,11,,72,0
40530,note_on,,1,0,7,,,,,,,,,,,,,,,,10,,74,72
40530,note_on,,1,0,8,,,,,,,,,,,,,,,,11,,74,72
40559,note_on,,29,0,8,,,,,,,,,,,,,,,,11,,74,0
40559,note_on,,29,0,7,,,,,,,,,,,,,,,,10,,74,0
40559,note_on,,0,0,10,,,,,,,,,,,,,,,,15,,63,0
40559,note_on,,119,0,5,,,,,,,,,,,,,,,,2,,55,0
40559,note_on,,0,0,10,,,,,,,,,,,,,,,,15,,70,0
40559,note_on,,0,0,10,,,,,,,,,,,,,,,,15,,55,0
40559,note_on,,119,0,10,,,,,,,,,,,,,,,,15,,58,0
40559,note_on,,119,0,9,,,,,,,,,,,,,,,,13,,55,0
40560,note_on,,1,0,9,,,,,,,,,,,,,,,,13,,48,48
40560,note_on,,1,0,8,,,,,,,,,,,,,,,,11,,75,72
40560,note_on,,1,0,10,,,,,,,,,,,,,,,,15,,48,48
40560,note_on,,0,0,10,,,,,,,,,,,,,,,,15,,72,48
40560,note_on,,0,0,10,,,,,,,,,,,,,,,,15,,67,48
40560,note_on,,0,0,10,,,,,,,,,,,,,,,,15,,63,48
40560,note_on,,1,0,5,,,,,,,,,,,,,,,,2,,48,48
40560,note_on,,1,0,7,,,,,,,,,,,,,,,,10,,75,72
40589,note_on,,29,0,8,,,,,,,,,,,,,,,,11,,75,0
40589,note_on,,29,0,7,,,,,,,,,,,,,,,,10,,75,0
40590,note_on,,1,0,7,,,,,,,,,,,,,,,,10,,79,72
40590,note_on,,1,0,8,,,,,,,,,,,,,,,,11,,79,72
40619,note_on,,29,0,7,,,,,,,,,,,,,,,,10,,79,0
40619,note_on,,29,0,8,,,,,,,,,,,,,,,,11,,79,0
40620,note_on,,1,0,8,,,,,,,,,,,,,,,,11,,77,72
40620,note_on,,1,0,7,,,,,,,,,,,,,,,,10,,77,72
40649,note_on,,29,0,7,,,,,,,,,,,,,,,,10,,77,0
40649,note_on,,29,0,8,,,,,,,,,,,,,,,,11,,77,0
40650,note_on,,1,0,8,,,,,,,,,,,,,,,,11,,75,72
40650,note_on,,1,0,7,,,,,,,,,,,,,,,,10,,75,72
40679,note_on,,29,0,8,,,,,,,,,,,,,,,,11,,75,0
40679,note_on,,119,0,10,,,,,,,,,,,,,,,,15,,48,0
40679,note_on,,0,0,10,,,,,,,,,,,,,,,,15,,72,0
40679,note_on,,29,0,7,,,,,,,,,,,,,,,,10,,75,0
40679,note_on,,119,0,9,,,,,,,,,,,,,,,,13,,48,0
40679,note_on,,0,0,10,,,,,,,,,,,,,,,,15,,67,0
40679,note_on,,0,0,10,,,,,,,,,,,,,,,,15,,63,0
40679,note_on,,119,0,5,,,,,,,,,,,,,,,,2,,48,0
40680,note_on,,1,0,7,,,,,,,,,,,,,,,,10,,77,72
40680,note_on,,1,0,8,,,,,,,,,,,,,,,,11,,77,72
40680,note_on,,1,0,5,,,,,,,,,,,,,,,,2,,50,48
40680,note_on,,1,0,9,,,,,,,,,,,,,,,,13,,50,48
40680,note_on,,0,0,10,,,,,,,,,,,,,,,,15,,65,48
40680,note_on,,1,0,10,,,,,,,,,,,,,,,,15,,50,48
40680,note_on,,0,0,10,,,,,,,,,,,,,,,,15,,70,48
40709,note_on,,29,0,8,,,,,,,,,,,,,,,,11,,77,0
40709,note_on,,29,0,7,,,,,,,,,,,,,,,,10,,77,0
40710,note_on,,1,0,8,,,,,,,,,,,,,,,,11,,80,72
40710,note_on,,1,0,7,,,,,,,,,,,,,,,,10,,80,72
40739,note_on,,29,0,8,,,,,,,,,,,,,,,,11,,80,0
40739,note_on,,29,0,7,,,,,,,,,,,,,,,,10,,80,0
40740,note_on,,1,0,8,,,,,,,,,,,,,,,,11,,79,72
40740,note_on,,1,0,7,,,,,,,,,,,,,,,,10,,79,72
40769,note_on,,29,0,7,,,,,,,,,,,,,,,,10,,79,0
40769,note_on,,29,0,8,,,,,,,,,,,,,,,,11,,79,0
40770,note_on,,1,0,7,,,,,,,,,,,,,,,,10,,77,72
40770,note_on,,1,0,8,,,,,,,,,,,,,,,,11,,77,72
40799,note_on,,29,0,7,,,,,,,,,,,,,,,,10,,77,0
40799,note_on,,119,0,5,,,,,,,,,,,,,,,,2,,50,0
40799,note_on,,119,0,10,,,,,,,,,,,,,,,,15,,50,0
40799,note_on,,29,0,8,,,,,,,,,,,,,,,,11,,77,0
40799,note_on,,119,0,9,,,,,,,,,,,,,,,,13,,50,0
40799,note_on,,0,0,10,,,,,,,,,,,,,,,,15,,65,0
40799,note_on,,0,0,10,,,,,,,,,,,,,,,,15,,70,0
40800,note_on,,0,0,10,,,,,,,,,,,,,,,,15,,58,48
40800,note_on,,1,0,10,,,,,,,,,,,,,,,,15,,51,48
40800,note_on,,0,0,10,,,,,,,,,,,,,,,,15,,70,48
40800,note_on,,0,0,10,,,,,,,,,,,,,,,,15,,67,48
40800,note_on,,0,0,10,,,,,,,,,,,,,,,,15,,63,48
40800,note_on,,1,0,7,,,,,,,,,,,,,,,,10,,79,72
40800,note_on,,1,0,5,,,,,,,,,,,,,,,,2,,51,48
40800,note_on,,1,0,9,,,,,,,,,,,,,,,,13,,51,48
40800,note_on,,1,0,8,,,,,,,,,,,,,,,,11,,79,72
40829,note_on,,29,0,7,,,,,,,,,,,,,,,,10,,79,0
40829,note_on,,29,0,8,,,,,,,,,,,,,,,,11,,79,0
40830,note_on,,1,0,7,,,,,,,,,,,,,,,,10,,77,72
40830,note_on,,1,0,8,,,,,,,,,,,,,,,,11,,77,72
40859,note_on,,29,0,8,,,,,,,,,,,,,,,,11,,77,0
40859,note_on,,29,0,7,,,,,,,,,,,,,,,,10,,77,0
40860,note_on,,1,0,8,,,,,,,,,,,,,,,,11,,75,72
40860,note_on,,1,0,7,,,,,,,,,,,,,,,,10,,75,72
40919,note_on,,0,0,10,,,,,,,,,,,,,,,,15,,67,0
40919,note_on,,0,0,10,,,,,,,,,,,,,,,,15,,58,0
40919,note_on,,0,0,10,,,,,,,,,,,,,,,,15,,63,0
40919,note_on,,0,0,10,,,,,,,,,,,,,,,,15,,70,0
40919,note_on,,119,0,10,,,,,,,,,,,,,,,,15,,51,0
40919,note_on,,119,0,5,,,,,,,,,,,,,,,,2,,51,0
40919,note_on,,59,0,7,,,,,,,,,,,,,,,,10,,75,0
40919,note_on,,59,0,8,,,,,,,,,,,,,,,,11,,75,0
40919,note_on,,119,0,9,,,,,,,,,,,,,,,,13,,51,0
40920,note_on,,1,0,9,,,,,,,,,,,,,,,,13,,63,48
40920,note_on,,0,0,10,,,,,,,,,,,,,,,,15,,67,48
40920,note_on,,0,0,10,,,,,,,,,,,,,,,,15,,72,48
40920,note_on,,1,0,10,,,,,,,,,,,,,,,,15,,63,48
40980,note_on,,541,0,6,,,,,,,,,,,,,,,,5,,79,72
41039,note_on,,119,0,10,,,,,,,,,,,,,,,,15,,63,0
41039,note_on,,59,0,6,,,,,,,,,,,,,,,,5,,79,0
41039,note_on,,0,0,10,,,,,,,,,,,,,,,,15,,67,0
41039,note_on,,0,0,10,,,,,,,,,,,,,,,,15,,72,0
41039,note_on,,119,0,9,,,,,,,,,,,,,,,,13,,63,0
41040,note_on,,0,0,10,,,,,,,,,,,,,,,,15,,65,48
41040,note_on,,0,0,10,,,,,,,,,,,,,,,,15,,70,48
41040,note_on,,0,0,10,,,,,,,,,,,,,,,,15,,74,48
41040,note_on,,1,0,10,,,,,,,,,,,,,,,,15,,62,48
41040,note_on,,1,0,9,,,,,,,,,,,,,,,,13,,62,48
41040,note_on,,1,0,6,,,,,,,,,,,,,,,,5,,77,72
41069,note_on,,29,0,6,,,,,,,,,,,,,,,,5,,77,0
41070,note_on,,1,0,6,,,,,,,,,,,,,,,,5,,75,72
41099,note_on,,29,0,6,,,,,,,,,,,,,,,,5,,75,0
41100,note_on,,1,0,6,,,,,,,,,,,,,,,,5,,74,72
41159,note_on,,119,0,9,,,,,,,,,,,,,,,,13,,62,0
41159,note_on,,119,0,10,,,,,,,,,,,,,,,,15,,62,0
41159,note_on,,59,0,6,,,,,,,,,,,,,,,,5,,74,0
41159,note_on,,0,0,10,,,,,,,,,,,,,,,,15,,70,0
41159,note_on,,0,0,10,,,,,,,,,,,,,,,,15,,65,0
41159,note_on,,0,0,10,,,,,,,,,,,,,,,,15,,74,0
41160,note_on,,241,0,8,,,,,,,,,,,,,,,,11,,77,72
41160,note_on,,1,0,9,,,,,,,,,,,,,,,,13,,58,48
41160,note_on,,1,0,10,,,,,,,,,,,,,,,,15,,58,48
41160,note_on,,0,0,10,,,,,,,,,,,,,,,,15,,82,48
41160,note_on,,0,0,10,,,,,,,,,,,,,,,,15,,77,48
41160,note_on,,0,0,10,,,,,,,,,,,,,,,,15,,70,48
41160,note_on,,0,0,10,,,,,,,,,,,,,,,,15,,62,48
41160,note_on,,241,0,7,,,,,,,,,,,,,,,,10,,77,72
41189,note_on,,29,0,8,,,,,,,,,,,,,,,,11,,77,0
41189,note_on,,29,0,7,,,,,,,,,,,,,,,,10,,77,0
41190,note_on,,1,0,7,,,,,,,,,,,,,,,,10,,75,72
41190,note_on,,1,0,8,,,,,,,,,,,,,,,,11,,75,72
41219,note_on,,29,0,7,,,,,,,,,,,,,,,,10,,75,0
41219,note_on,,29,0,8,,,,,,,,,,,,,,,,11,,75,0
41220,note_on,,1,0,7,,,,,,,,,,,,,,,,10,,74,72
41220,note_on,,1,0,8,,,,,,,,,,,,,,,,11,,74,72
41279,note_on,,0,0,10,,,,,,,,,,,,,,,,15,,62,0
41279,note_on,,59,0,7,,,,,,,,,,,,,,,,10,,74,0
41279,note_on,,119,0,10,,,,,,,,,,,,,,,,15,,58,0
41279,note_on,,0,0,10,,,,,,,,,,,,,,,,15,,82,0
41279,note_on,,119,0,9,,,,,,,,,,,,,,,,13,,58,0
41279,note_on,,0,0,10,,,,,,,,,,,,,,,,15,,70,0
41279,note_on,,59,0,8,,,,,,,,,,,,,,,,11,,74,0
41279,note_on,,0,0,10,,,,,,,,,,,,,,,,15,,77,0
41280,note_on,,1,0,10,,,,,,,,,,,,,,,,15,,60,48
41280,note_on,,0,0,10,,,,,,,,,,,,,,,,15,,75,48
41280,note_on,,0,0,10,,,,,,,,,,,,,,,,15,,72,48
41280,note_on,,0,0,10,,,,,,,,,,,,,,,,15,,67,48
41280,note_on,,121,0,6,,,,,,,,,,,,,,,,5,,75,72
41280,note_on,,0,0,10,,,,,,,,,,,,,,,,15,,63,48
41280,note_on,,1,0,9,,,,,,,,,,,,,,,,13,,60,48
41309,note_on,,29,0,6,,,,,,,,,,,,,,,,5,,75,0
41310,note_on,,1,0,6,,,,,,,,,,,,,,,,5,,74,72
41339,note_on,,29,0,6,,,,,,,,,,,,,,,,5,,74,0
41340,note_on,,1,0,6,,,,,,,,,,,,,,,,5,,72,72
41399,note_on,,0,0,10,,,,,,,,,,,,,,,,15,,75,0
41399,note_on,,0,0,10,,,,,,,,,,,,,,,,15,,72,0
41399,note_on,,0,0,10,,,,,,,,,,,,,,,,15,,67,0
41399,note_on,,0,0,10,,,,,,,,,,,,,,,,15,,63,0
41399,note_on,,119,0,9,,,,,,,,,,,,,,,,13,,60,0
41399,note_on,,119,0,10,,,,,,,,,,,,,,,,15,,60,0
41399,note_on,,59,0,6,,,,,,,,,,,,,,,,5,,72,0
41400,note_on,,0,0,10,,,,,,,,,,,,,,,,15,,60,48
41400,note_on,,1,0,10,,,,,,,,,,,,,,,,15,,53,48
41400,note_on,,0,0,10,,,,,,,,,,,,,,,,15,,77,48
41400,note_on,,0,0,10,,,,,,,,,,,,,,,,15,,72,48
41400,note_on,,121,0,8,,,,,,,,,,,,,,,,11,,75,72
41400,note_on,,1,0,9,,,,,,,,,,,,,,,,13,,53,48
41400,note_on,,121,0,7,,,,,,,,,,,,,,,,10,,75,72
41400,note_on,,0,0,10,,,,,,,,,,,,,,,,15,,69,48
41429,note_on,,29,0,8,,,,,,,,,,,,,,,,11,,75,0
41429,note_on,,29,0,7,,,,,,,,,,,,,,,,10,,75,0
41430,note_on,,1,0,7,,,,,,,,,,,,,,,,10,,74,72
41430,note_on,,1,0,8,,,,,,,,,,,,,,,,11,,74,72
41459,note_on,,29,0,7,,,,,,,,,,,,,,,,10,,74,0
41459,note_on,,29,0,8,,,,,,,,,,,,,,,,11,,74,0
41460,note_on,,1,0,7,,,,,,,,,,,,,,,,10,,72,72
41460,note_on,,1,0,8,,,,,,,,,,,,,,,,11,,72,72
41519,note_on,,0,0,10,,,,,,,,,,,,,,,,15,,77,0
41519,note_on,,59,0,7,,,,,,,,,,,,,,,,10,,72,0
41519,note_on,,119,0,10,,,,,,,,,,,,,,,,15,,53,0
41519,note_on,,59,0,8,,,,,,,,,,,,,,,,11,,72,0
41519,note_on,,119,0,9,,,,,,,,,,,,,,,,13,,53,0
41519,note_on,,0,0,10,,,,,,,,,,,,,,,,15,,60,0
41519,note_on,,0,0,10,,,,,,,,,,,,,,,,15,,69,0
41519,note_on,,0,0,10,,,,,,,,,,,,,,,,15,,72,0
41520,note_on,,0,0,10,,,,,,,,,,,,,,,,15,,65,48
41520,note_on,,121,0,6,,,,,,,,,,,,,,,,5,,74,72
41520,note_on,,1,0,9,,,,,,,,,,,,,,,,13,,58,48
41520,note_on,,0,0,10,,,,,,,,,,,,,,,,15,,70,48
41520,note_on,,1,0,10,,,,,,,,,,,,,,,,15,,58,48
41520,note_on,,0,0,10,,,,,,,,,,,,,,,,15,,74,48
41520,note_on,,0,0,10,,,,,,,,,,,,,,,,15,,62,48
41549,note_on,,29,0,6,,,,,,,,,,,,,,,,5,,74,0
41550,note_on,,1,0,6,,,,,,,,,,,,,,,,5,,72,72
41579,note_on,,29,0,6,,,,,,,,,,,,,,,,5,,72,0
41580,note_on,,1,0,6,,,,,,,,,,,,,,,,5,,70,72
41639,note_on,,119,0,9,,,,,,,,,,,,,,,,13,,58,0
41639,note_on,,0,0,10,,,,,,,,,,,,,,,,15,,62,0
41639,note_on,,0,0,10,,,,,,,,,,,,,,,,15,,65,0
41639,note_on,,0,0,10,,,,,,,,,,,,,,,,15,,74,0
41639,note_on,,119,0,10,,,,,,,,,,,,,,,,15,,58,0
41639,note_on,,59,0,6,,,,,,,,,,,,,,,,5,,70,0
41639,note_on,,0,0,10,,,,,,,,,,,,,,,,15,,70,0
41640,note_on,,121,0,8,,,,,,,,,,,,,,,,11,,74,72
41640,note_on,,121,0,7,,,,,,,,,,,,,,,,10,,74,72
41640,note_on,,1,0,9,,,,,,,,,,,,,,,,13,,55,48
41640,note_on,,1,0,10,,,,,,,,,,,,,,,,15,,55,48
41640,note_on,,0,0,10,,,,,,,,,,,,,,,,15,,58,48
41640,note_on,,0,0,10,,,,,,,,,,,,,,,,15,,70,48
41640,note_on,,0,0,10,,,,,,,,,,,,,,,,15,,74,48
41640,note_on,,0,0,10,,,,,,,,,,,,,,,,15,,79,48
41669,note_on,,29,0,8,,,,,,,,,,,,,,,,11,,74,0
41669,note_on,,29,0,7,,,,,,,,,,,,,,,,10,,74,0
41670,note_on,,1,0,8,,,,,,,,,,,,,,,,11,,72,72
41670,note_on,,1,0,7,,,,,,,,,,,,,,,,10,,72,72
41699,note_on,,29,0,7,,,,,,,,,,,,,,,,10,,72,0
41699,note_on,,29,0,8,,,,,,,,,,,,,,,,11,,72,0
41700,note_on,,1,0,7,,,,,,,,,,,,,,,,10,,70,72
41700,note_on,,1,0,8,,,,,,,,,,,,,,,,11,,70,72
41759,note_on,,59,0,8,,,,,,,,,,,,,,,,11,,70,0
41759,note_on,,119,0,9,,,,,,,,,,,,,,,,13,,55,0
41759,note_on,,0,0,10,,,,,,,,,,,,,,,,15,,58,0
41759,note_on,,59,0,7,,,,,,,,,,,,,,,,10,,70,0
41759,note_on,,0,0,10,,,,,,,,,,,,,,,,15,,70,0
41759,note_on,,0,0,10,,,,,,,,,,,,,,,,15,,74,0
41759,note_on,,0,0,10,,,,,,,,,,,,,,,,15,,79,0
41759,note_on,,119,0,10,,,,,,,,,,,,,,,,15,,55,0
41760,note_on,,0,0,10,,,,,,,,,,,,,,,,15,,72,48
41760,note_on,,1,0,10,,,,,,,,,,,,,,,,15,,53,48
41760,note_on,,1,0,9,,,,,,,,,,,,,,,,13,,53,48
41760,note_on,,0,0,10,,,,,,,,,,,,,,,,15,,60,48
41760,note_on,,0,0,10,,,,,,,,,,,,,,,,15,,65,48
41760,note_on,,121,0,6,,,,,,,,,,,,,,,,5,,72,72
41760,note_on,,0,0,10,,,,,,,,,,,,,,,,15,,69,48
41789,note_on,,29,0,6,,,,,,,,,,,,,,,,5,,72,0
41790,note_on,,1,0,6,,,,,,,,,,,,,,,,5,,70,72
41819,note_on,,29,0,6,,,,,,,,,,,,,,,,5,,70,0
41820,note_on,,1,0,6,,,,,,,,,,,,,,,,5,,69,72
41879,note_on,,59,0,6,,,,,,,,,,,,,,,,5,,69,0
41879,note_on,,119,0,9,,,,,,,,,,,,,,,,13,,53,0
41879,note_on,,119,0,10,,,,,,,,,,,,,,,,15,,53,0
41879,note_on,,0,0,10,,,,,,,,,,,,,,,,15,,72,0
41879,note_on,,0,0,10,,,,,,,,,,,,,,,,15,,69,0
41879,note_on,,0,0,10,,,,,,,,,,,,,,,,15,,65,0
41880,note_on,,121,0,8,,,,,,,,,,,,,,,,11,,72,72
41880,note_on,,1,0,9,,,,,,,,,,,,,,,,13,,51,48
41880,note_on,,0,0,10,,,,,,,,,,,,,,,,15,,77,48
41880,note_on,,1,0,10,,,,,,,,,,,,,,,,15,,51,48
41880,note_on,,121,0,7,,,,,,,,,,,,,,,,10,,72,72
41880,note_on,,0,0,10,,,,,,,,,,,,,,,,15,,69,48
41880,note_on,,0,0,10,,,,,,,,,,,,,,,,15,,72,48
41909,note_on,,29,0,8,,,,,,,,,,,,,,,,11,,72,0
41909,note_on,,29,0,7,,,,,,,,,,,,,,,,10,,72,0
41910,note_on,,1,0,8,,,,,,,,,,,,,,,,11,,70,72
41910,note_on,,1,0,7,,,,,,,,,,,,,,,,10,,70,72
41939,note_on,,29,0,8,,,,,,,,,,,,,,,,11,,70,0
41939,note_on,,29,0,7,,,,,,,,,,,,,,,,10,,70,0
41940,note_on,,1,0,8,,,,,,,,,,,,,,,,11,,69,72
41940,note_on,,61,0,6,,,,,,,,,,,,,,,,5,,77,72
41940,note_on,,1,0,7,,,,,,,,,,,,,,,,10,,69,72
41999,note_on,,59,0,8,,,,,,,,,,,,,,,,11,,69,0
41999,note_on,,59,0,7,,,,,,,,,,,,,,,,10,,69,0
41999,note_on,,119,0,10,,,,,,,,,,,,,,,,15,,60,0
41999,note_on,,0,0,10,,,,,,,,,,,,,,,,15,,51,0
41999,note_on,,119,0,9,,,,,,,,,,,,,,,,13,,51,0
41999,note_on,,0,0,10,,,,,,,,,,,,,,,,15,,77,0
41999,note_on,,0,0,10,,,,,,,,,,,,,,,,15,,72,0
41999,note_on,,0,0,10,,,,,,,,,,,,,,,,15,,69,0
41999,note_on,,59,0,6,,,,,,,,,,,,,,,,5,,77,0
42000,note_on,,1,0,7,,,,,,,,,,,,,,,,10,,70,72
42000,note_on,,1,0,8,,,,,,,,,,,,,,,,11,,70,72
42000,note_on,,1,0,10,,,,,,,,,,,,,,,,15,,50,48
42000,note_on,,0,0,10,,,,,,,,,,,,,,,,15,,70,48
42000,note_on,,0,0,10,,,,,,,,,,,,,,,,15,,65,48
42000,note_on,,0,0,10,,,,,,,,,,,,,,,,15,,62,48
42000,note_on,,1,0,6,,,,,,,,,,,,,,,,5,,65,72
42000,note_on,,1,0,9,,,,,,,,,,,,,,,,13,,50,48
42059,note_on,,59,0,6,,,,,,,,,,,,,,,,5,,65,0
42060,note_on,,1,0,6,,,,,,,,,,,,,,,,5,,67,72
42089,note_on,,29,0,6,,,,,,,,,,,,,,,,5,,67,0
42090,note_on,,1,0,6,,,,,,,,,,,,,,,,5,,69,72
42119,note_on,,0,0,10,,,,,,,,,,,,,,,,15,,62,0
42119,note_on,,0,0,10,,,,,,,,,,,,,,,,15,,65,0
42119,note_on,,119,0,9,,,,,,,,,,,,,,,,13,,50,0
42119,note_on,,0,0,10,,,,,,,,,,,,,,,,15,,70,0
42119,note_on,,119,0,7,,,,,,,,,,,,,,,,10,,70,0
42119,note_on,,119,0,8,,,,,,,,,,,,,,,,11,,70,0
42119,note_on,,29,0,6,,,,,,,,,,,,,,,,5,,69,0
42119,note_on,,119,0,10,,,,,,,,,,,,,,,,15,,50,0
42120,note_on,,1,0,6,,,,,,,,,,,,,,,,5,,70,72
42120,note_on,,1,0,9,,,,,,,,,,,,,,,,13,,46,48
42120,note_on,,0,0,10,,,,,,,,,,,,,,,,15,,53,48
42120,note_on,,1,0,10,,,,,,,,,,,,,,,,15,,46,48
42120,note_on,,0,0,10,,,,,,,,,,,,,,,,15,,70,48
42120,note_on,,0,0,10,,,,,,,,,,,,,,,,15,,65,48
42120,note_on,,0,0,10,,,,,,,,,,,,,,,,15,,74,48
42149,note_on,,29,0,6,,,,,,,,,,,,,,,,5,,70,0
42150,note_on,,1,0,6,,,,,,,,,,,,,,,,5,,72,72
42179,note_on,,29,0,6,,,,,,,,,,,,,,,,5,,72,0
42180,note_on,,1,0,6,,,,,,,,,,,,,,,,5,,74,72
42209,note_on,,29,0,6,,,,,,,,,,,,,,,,5,,74,0
42210,note_on,,1,0,6,,,,,,,,,,,,,,,,5,,70,72
42239,note_on,,119,0,9,,,,,,,,,,,,,,,,13,,46,0
42239,note_on,,29,0,6,,,,,,,,,,,,,,,,5,,70,0
42239,note_on,,0,0,10,,,,,,,,,,,,,,,,15,,70,0
42239,note_on,,0,0,10,,,,,,,,,,,,,,,,15,,65,0
42239,note_on,,0,0,10,,,,,,,,,,,,,,,,15,,74,0
42239,note_on,,0,0,10,,,,,,,,,,,,,,,,15,,53,0
42239,note_on,,119,0,10,,,,,,,,,,,,,,,,15,,46,0
42240,note_on,,0,0,10,,,,,,,,,,,,,,,,15,,55,48
42240,note_on,,0,0,10,,,,,,,,,,,,,,,,15,,67,48
42240,note_on,,0,0,10,,,,,,,,,,,,,,,,15,,70,48
42240,note_on,,1,0,10,,,,,,,,,,,,,,,,15,,51,48
42240,note_on,,1,0,6,,,,,,,,,,,,,,,,5,,67,72
42240,note_on,,1,0,9,,,,,,,,,,,,,,,,13,,51,48
42240,note_on,,0,0,10,,,,,,,,,,,,,,,,15,,63,48
42299,note_on,,59,0,6,,,,,,,,,,,,,,,,5,,67,0
42300,note_on,,1,0,6,,,,,,,,,,,,,,,,5,,69,72
42329,note_on,,29,0,6,,,,,,,,,,,,,,,,5,,69,0
42330,note_on,,1,0,6,,,,,,,,,,,,,,,,5,,70,72
42359,note_on,,119,0,10,,,,,,,,,,,,,,,,15,,51,0
42359,note_on,,29,0,6,,,,,,,,,,,,,,,,5,,70,0
42359,note_on,,0,0,10,,,,,,,,,,,,,,,,15,,67,0
42359,note_on,,0,0,10,,,,,,,,,,,,,,,,15,,63,0
42359,note_on,,0,0,10,,,,,,,,,,,,,,,,15,,55,0
42359,note_on,,0,0,10,,,,,,,,,,,,,,,,15,,70,0
42359,note_on,,119,0,9,,,,,,,,,,,,,,,,13,,51,0
42360,note_on,,1,0,10,,,,,,,,,,,,,,,,15,,48,48
42360,note_on,,1,0,9,,,,,,,,,,,,,,,,13,,48,48
42360,note_on,,0,0,10,,,,,,,,,,,,,,,,15,,51,48
42360,note_on,,1,0,6,,,,,,,,,,,,,,,,5,,72,72
42360,note_on,,0,0,10,,,,,,,,,,,,,,,,15,,75,48
42360,note_on,,0,0,10,,,,,,,,,,,,,,,,15,,72,48
42360,note_on,,0,0,10,,,,,,,,,,,,,,,,15,,67,48
42389,note_on,,29,0,6,,,,,,,,,,,,,,,,5,,72,0
42390,note_on,,1,0,6,,,,,,,,,,,,,,,,5,,74,72
42419,note_on,,29,0,6,,,,,,,,,,,,,,,,5,,74,0
42420,note_on,,1,0,6,,,,,,,,,,,,,,,,5,,75,72
42449,note_on,,29,0,6,,,,,,,,,,,,,,,,5,,75,0
42450,note_on,,1,0,6,,,,,,,,,,,,,,,,5,,72,72
42479,note_on,,0,0,10,,,,,,,,,,,,,,,,15,,67,0
42479,note_on,,119,0,10,,,,,,,,,,,,,,,,15,,48,0
42479,note_on,,119,0,9,,,,,,,,,,,,,,,,13,,48,0
42479,note_on,,0,0,10,,,,,,,,,,,,,,,,15,,72,0
42479,note_on,,0,0,10,,,,,,,,,,,,,,,,15,,75,0
42479,note_on,,0,0,10,,,,,,,,,,,,,,,,15,,51,0
42479,note_on,,29,0,6,,,,,,,,,,,,,,,,5,,72,0
42480,note_on,,0,0,10,,,,,,,,,,,,,,,,15,,72,48
42480,note_on,,0,0,10,,,,,,,,,,,,,,,,15,,57,48
42480,note_on,,1,0,9,,,,,,,,,,,,,,,,13,,53,48
42480,note_on,,0,0,10,,,,,,,,,,,,,,,,15,,69,48
42480,note_on,,1,0,6,,,,,,,,,,,,,,,,5,,69,72
42480,note_on,,1,0,10,,,,,,,,,,,,,,,,15,,53,48
42480,note_on,,0,0,10,,,,,,,,,,,,,,,,15,,65,48
42539,note_on,,59,0,6,,,,,,,,,,,,,,,,5,,69,0
42540,note_on,,1,0,6,,,,,,,,,,,,,,,,5,,70,72
42569,note_on,,29,0,6,,,,,,,,,,,,,,,,5,,70,0
42570,note_on,,1,0,6,,,,,,,,,,,,,,,,5,,72,72
42599,note_on,,29,0,6,,,,,,,,,,,,,,,,5,,72,0
42599,note_on,,0,0,10,,,,,,,,,,,,,,,,15,,65,0
42599,note_on,,0,0,10,,,,,,,,,,,,,,,,15,,69,0
42599,note_on,,119,0,10,,,,,,,,,,,,,,,,15,,53,0
42599,note_on,,0,0,10,,,,,,,,,,,,,,,,15,,72,0
42599,note_on,,0,0,10,,,,,,,,,,,,,,,,15,,57,0
42599,note_on,,119,0,9,,,,,,,,,,,,,,,,13,,53,0
42600,note_on,,1,0,10,,,,,,,,,,,,,,,,15,,50,48
42600,note_on,,1,0,6,,,,,,,,,,,,,,,,5,,74,72
42600,note_on,,0,0,10,,,,,,,,,,,,,,,,15,,77,48
42600,note_on,,0,0,10,,,,,,,,,,,,,,,,15,,74,48
42600,note_on,,0,0,10,,,,,,,,,,,,,,,,15,,69,48
42600,note_on,,1,0,9,,,,,,,,,,,,,,,,13,,50,48
42600,note_on,,0,0,10,,,,,,,,,,,,,,,,15,,53,48
42629,note_on,,29,0,6,,,,,,,,,,,,,,,,5,,74,0
42630,note_on,,1,0,6,,,,,,,,,,,,,,,,5,,75,72
42659,note_on,,29,0,6,,,,,,,,,,,,,,,,5,,75,0
42660,note_on,,1,0,6,,,,,,,,,,,,,,,,5,,77,72
42689,note_on,,29,0,6,,,,,,,,,,,,,,,,5,,77,0
42690,note_on,,1,0,6,,,,,,,,,,,,,,,,5,,74,72
42719,note_on,,0,0,10,,,,,,,,,,,,,,,,15,,77,0
42719,note_on,,119,0,9,,,,,,,,,,,,,,,,13,,50,0
42719,note_on,,119,0,10,,,,,,,,,,,,,,,,15,,50,0
42719,note_on,,0,0,10,,,,,,,,,,,,,,,,15,,53,0
42719,note_on,,0,0,10,,,,,,,,,,,,,,,,15,,69,0
42719,note_on,,0,0,10,,,,,,,,,,,,,,,,15,,74,0
42719,note_on,,29,0,6,,,,,,,,,,,,,,,,5,,74,0
42720,note_on,,0,0,10,,,,,,,,,,,,,,,,15,,74,48
42720,note_on,,1,0,10,,,,,,,,,,,,,,,,15,,55,48
42720,note_on,,0,0,10,,,,,,,,,,,,,,,,15,,58,48
42720,note_on,,0,0,10,,,,,,,,,,,,,,,,15,,67,48
42720,note_on,,0,0,10,,,,,,,,,,,,,,,,15,,70,48
42720,note_on,,1,0,6,,,,,,,,,,,,,,,,5,,70,72
42720,note_on,,1,0,9,,,,,,,,,,,,,,,,13,,55,48
42749,note_on,,29,0,6,,,,,,,,,,,,,,,,5,,70,0
42750,note_on,,1,0,6,,,,,,,,,,,,,,,,5,,69,72
42779,note_on,,29,0,6,,,,,,,,,,,,,,,,5,,69,0
42780,note_on,,1,0,6,,,,,,,,,,,,,,,,5,,70,72
42839,note_on,,119,0,10,,,,,,,,,,,,,,,,15,,55,0
42839,note_on,,119,0,9,,,,,,,,,,,,,,,,13,,55,0
42839,note_on,,59,0,6,,,,,,,,,,,,,,,,5,,70,0
42839,note_on,,0,0,10,,,,,,,,,,,,,,,,15,,58,0
42840,note_on,,1,0,9,,,,,,,,,,,,,,,,13,,53,48
42840,note_on,,1,0,10,,,,,,,,,,,,,,,,15,,53,48
42840,note_on,,1921,0,5,,,,,,,,,,,,,,,,2,,53,48
42840,note_on,,0,0,10,,,,,,,,,,,,,,,,15,,57,48
42899,note_on,,59,0,10,,,,,,,,,,,,,,,,15,,74,0
42899,note_on,,0,0,10,,,,,,,,,,,,,,,,15,,70,0
42899,note_on,,0,0,10,,,,,,,,,,,,,,,,15,,57,0
42899,note_on,,0,0,10,,,,,,,,,,,,,,,,15,,53,0
42899,note_on,,0,0,10,,,,,,,,,,,,,,,,15,,67,0
42899,note_on,,59,0,5,,,,,,,,,,,,,,,,2,,53,0
42899,note_on,,59,0,9,,,,,,,,,,,,,,,,13,,53,0
42900,note_on,,781,0,8,,,,,,,,,,,,,,,,11,,77,72
42900,note_on,,1,0,10,,,,,,,,,,,,,,,,15,,51,48
42900,note_on,,1,0,9,,,,,,,,,,,,,,,,13,,51,48
42900,note_on,,781,0,7,,,,,,,,,,,,,,,,10,,77,72
42900,note_on,,1,0,5,,,,,,,,,,,,,,,,2,,51,48
42900,note_on,,0,0,10,,,,,,,,,,,,,,,,15,,55,48
42959,note_on,,0,0,10,,,,,,,,,,,,,,,,15,,55,0
42959,note_on,,59,0,7,,,,,,,,,,,,,,,,10,,77,0
42959,note_on,,59,0,10,,,,,,,,,,,,,,,,15,,51,0
42959,note_on,,59,0,9,,,,,,,,,,,,,,,,13,,51,0
42959,note_on,,59,0,8,,,,,,,,,,,,,,,,11,,77,0
42959,note_on,,59,0,5,,,,,,,,,,,,,,,,2,,51,0
42960,note_on,,1,0,5,,,,,,,,,,,,,,,,2,,50,48
42960,note_on,,1,0,7,,,,,,,,,,,,,,,,10,,65,72
42960,note_on,,1,0,10,,,,,,,,,,,,,,,,15,,50,48
42960,note_on,,0,0,10,,,,,,,,,,,,,,,,15,,77,48
42960,note_on,,0,0,10,,,,,,,,,,,,,,,,15,,65,48
42960,note_on,,0,0,10,,,,,,,,,,,,,,,,15,,53,48
42960,note_on,,1,0,8,,,,,,,,,,,,,,,,11,,65,72
42960,note_on,,0,0,10,,,,,,,,,,,,,,,,15,,70,48
42960,note_on,,1,0,9,,,,,,,,,,,,,,,,13,,50,48
43019,note_on,,59,0,8,,,,,,,,,,,,,,,,11,,65,0
43019,note_on,,59,0,7,,,,,,,,,,,,,,,,10,,65,0
43020,note_on,,1,0,8,,,,,,,,,,,,,,,,11,,67,72
43020,note_on,,1,0,7,,,,,,,,,,,,,,,,10,,67,72
43049,note_on,,29,0,8,,,,,,,,,,,,,,,,11,,67,0
43049,note_on,,29,0,7,,,,,,,,,,,,,,,,10,,67,0
43050,note_on,,1,0,7,,,,,,,,,,,,,,,,10,,69,72
43050,note_on,,1,0,8,,,,,,,,,,,,,,,,11,,69,72
43079,note_on,,29,0,8,,,,,,,,,,,,,,,,11,,69,0
43079,note_on,,29,0,7,,,,,,,,,,,,,,,,10,,69,0
43079,note_on,,119,0,10,,,,,,,,,,,,,,,,15,,50,0
43079,note_on,,119,0,5,,,,,,,,,,,,,,,,2,,50,0
43079,note_on,,0,0,10,,,,,,,,,,,,,,,,15,,77,0
43079,note_on,,0,0,10,,,,,,,,,,,,,,,,15,,70,0
43079,note_on,,0,0,10,,,,,,,,,,,,,,,,15,,65,0
43079,note_on,,0,0,10,,,,,,,,,,,,,,,,15,,53,0
43079,note_on,,119,0,9,,,,,,,,,,,,,,,,13,,50,0
43080,note_on,,1,0,7,,,,,,,,,,,,,,,,10,,70,72
43080,note_on,,1,0,10,,,,,,,,,,,,,,,,15,,46,48
43080,note_on,,0,0,10,,,,,,,,,,,,,,,,15,,74,48
43080,note_on,,0,0,10,,,,,,,,,,,,,,,,15,,65,48
43080,note_on,,0,0,10,,,,,,,,,,,,,,,,15,,58,48
43080,note_on,,1,0,8,,,,,,,,,,,,,,,,11,,70,72
43080,note_on,,1,0,5,,,,,,,,,,,,,,,,2,,46,48
43080,note_on,,0,0,10,,,,,,,,,,,,,,,,15,,70,48
43080,note_on,,1,0,9,,,,,,,,,,,,,,,,13,,46,48
43109,note_on,,29,0,8,,,,,,,,,,,,,,,,11,,70,0
43109,note_on,,29,0,7,,,,,,,,,,,,,,,,10,,70,0
43110,note_on,,1,0,8,,,,,,,,,,,,,,,,11,,72,72
43110,note_on,,1,0,7,,,,,,,,,,,,,,,,10,,72,72
43139,note_on,,29,0,8,,,,,,,,,,,,,,,,11,,72,0
43139,note_on,,29,0,7,,,,,,,,,,,,,,,,10,,72,0
43140,note_on,,1,0,8,,,,,,,,,,,,,,,,11,,74,72
43140,note_on,,1,0,7,,,,,,,,,,,,,,,,10,,74,72
43169,note_on,,29,0,8,,,,,,,,,,,,,,,,11,,74,0
43169,note_on,,29,0,7,,,,,,,,,,,,,,,,10,,74,0
43170,note_on,,1,0,8,,,,,,,,,,,,,,,,11,,70,72
43170,note_on,,1,0,7,,,,,,,,,,,,,,,,10,,70,72
43199,note_on,,29,0,7,,,,,,,,,,,,,,,,10,,70,0
43199,note_on,,29,0,8,,,,,,,,,,,,,,,,11,,70,0
43199,note_on,,0,0,10,,,,,,,,,,,,,,,,15,,58,0
43199,note_on,,0,0,10,,,,,,,,,,,,,,,,15,,65,0
43199,note_on,,119,0,5,,,,,,,,,,,,,,,,2,,46,0
43199,note_on,,0,0,10,,,,,,,,,,,,,,,,15,,74,0
43199,note_on,,119,0,10,,,,,,,,,,,,,,,,15,,46,0
43199,note_on,,119,0,9,,,,,,,,,,,,,,,,13,,46,0
43199,note_on,,0,0,10,,,,,,,,,,,,,,,,15,,70,0
43200,note_on,,1,0,5,,,,,,,,,,,,,,,,2,,51,48
43200,note_on,,0,0,10,,,,,,,,,,,,,,,,15,,58,48
43200,note_on,,1,0,10,,,,,,,,,,,,,,,,15,,51,48
43200,note_on,,0,0,10,,,,,,,,,,,,,,,,15,,70,48
43200,note_on,,0,0,10,,,,,,,,,,,,,,,,15,,67,48
43200,note_on,,1,0,9,,,,,,,,,,,,,,,,13,,51,48
43200,note_on,,1,0,7,,,,,,,,,,,,,,,,10,,67,72
43200,note_on,,1,0,8,,,,,,,,,,,,,,,,11,,67,72
43200,note_on,,0,0,10,,,,,,,,,,,,,,,,15,,63,48
43259,note_on,,59,0,7,,,,,,,,,,,,,,,,10,,67,0
43259,note_on,,59,0,8,,,,,,,,,,,,,,,,11,,67,0
43260,note_on,,1,0,7,,,,,,,,,,,,,,,,10,,69,72
43260,note_on,,1,0,8,,,,,,,,,,,,,,,,11,,69,72
43289,note_on,,29,0,7,,,,,,,,,,,,,,,,10,,69,0
43289,note_on,,29,0,8,,,,,,,,,,,,,,,,11,,69,0
43290,note_on,,1,0,7,,,,,,,,,,,,,,,,10,,70,72
43290,note_on,,1,0,8,,,,,,,,,,,,,,,,11,,70,72
43319,note_on,,119,0,5,,,,,,,,,,,,,,,,2,,51,0
43319,note_on,,0,0,10,,,,,,,,,,,,,,,,15,,58,0
43319,note_on,,0,0,10,,,,,,,,,,,,,,,,15,,63,0
43319,note_on,,0,0,10,,,,,,,,,,,,,,,,15,,67,0
43319,note_on,,0,0,10,,,,,,,,,,,,,,,,15,,70,0
43319,note_on,,119,0,10,,,,,,,,,,,,,,,,15,,51,0
43319,note_on,,29,0,8,,,,,,,,,,,,,,,,11,,70,0
43319,note_on,,119,0,9,,,,,,,,,,,,,,,,13,,51,0
43319,note_on,,29,0,7,,,,,,,,,,,,,,,,10,,70,0
43320,note_on,,1,0,5,,,,,,,,,,,,,,,,2,,48,48
43320,note_on,,1,0,7,,,,,,,,,,,,,,,,10,,72,72
43320,note_on,,1,0,10,,,,,,,,,,,,,,,,15,,48,48
43320,note_on,,0,0,10,,,,,,,,,,,,,,,,15,,75,48
43320,note_on,,0,0,10,,,,,,,,,,,,,,,,15,,72,48
43320,note_on,,1,0,9,,,,,,,,,,,,,,,,13,,48,48
43320,note_on,,1,0,8,,,,,,,,,,,,,,,,11,,72,72
43320,note_on,,0,0,10,,,,,,,,,,,,,,,,15,,67,48
43320,note_on,,0,0,10,,,,,,,,,,,,,,,,15,,60,48
43349,note_on,,29,0,7,,,,,,,,,,,,,,,,10,,72,0
43349,note_on,,29,0,8,,,,,,,,,,,,,,,,11,,72,0
43350,note_on,,1,0,7,,,,,,,,,,,,,,,,10,,74,72
43350,note_on,,1,0,8,,,,,,,,,,,,,,,,11,,74,72
43379,note_on,,29,0,7,,,,,,,,,,,,,,,,10,,74,0
43379,note_on,,29,0,8,,,,,,,,,,,,,,,,11,,74,0
43380,note_on,,1,0,7,,,,,,,,,,,,,,,,10,,75,72
43380,note_on,,1,0,8,,,,,,,,,,,,,,,,11,,75,72
43409,note_on,,29,0,7,,,,,,,,,,,,,,,,10,,75,0
43409,note_on,,29,0,8,,,,,,,,,,,,,,,,11,,75,0
43410,note_on,,1,0,7,,,,,,,,,,,,,,,,10,,72,72
43410,note_on,,1,0,8,,,,,,,,,,,,,,,,11,,72,72
43439,note_on,,119,0,10,,,,,,,,,,,,,,,,15,,48,0
43439,note_on,,119,0,9,,,,,,,,,,,,,,,,13,,48,0
43439,note_on,,119,0,5,,,,,,,,,,,,,,,,2,,48,0
43439,note_on,,0,0,10,,,,,,,,,,,,,,,,15,,75,0
43439,note_on,,29,0,8,,,,,,,,,,,,,,,,11,,72,0
43439,note_on,,0,0,10,,,,,,,,,,,,,,,,15,,60,0
43439,note_on,,0,0,10,,,,,,,,,,,,,,,,15,,72,0
43439,note_on,,0,0,10,,,,,,,,,,,,,,,,15,,67,0
43439,note_on,,29,0,7,,,,,,,,,,,,,,,,10,,72,0
43440,note_on,,0,0,10,,,,,,,,,,,,,,,,15,,72,48
43440,note_on,,0,0,10,,,,,,,,,,,,,,,,15,,69,48
43440,note_on,,0,0,10,,,,,,,,,,,,,,,,15,,65,48
43440,note_on,,0,0,10,,,,,,,,,,,,,,,,15,,60,48
43440,note_on,,1,0,10,,,,,,,,,,,,,,,,15,,53,48
43440,note_on,,1,0,7,,,,,,,,,,,,,,,,10,,69,72
43440,note_on,,1,0,9,,,,,,,,,,,,,,,,13,,53,48
43440,note_on,,1,0,8,,,,,,,,,,,,,,,,11,,69,72
43440,note_on,,1,0,5,,,,,,,,,,,,,,,,2,,53,48
43499,note_on,,59,0,7,,,,,,,,,,,,,,,,10,,69,0
43499,note_on,,59,0,8,,,,,,,,,,,,,,,,11,,69,0
43500,note_on,,1,0,7,,,,,,,,,,,,,,,,10,,70,72
43500,note_on,,1,0,8,,,,,,,,,,,,,,,,11,,70,72
43529,note_on,,29,0,7,,,,,,,,,,,,,,,,10,,70,0
43529,note_on,,29,0,8,,,,,,,,,,,,,,,,11,,70,0
43530,note_on,,1,0,7,,,,,,,,,,,,,,,,10,,72,72
43530,note_on,,1,0,8,,,,,,,,,,,,,,,,11,,72,72
43559,note_on,,119,0,9,,,,,,,,,,,,,,,,13,,53,0
43559,note_on,,0,0,10,,,,,,,,,,,,,,,,15,,72,0
43559,note_on,,29,0,7,,,,,,,,,,,,,,,,10,,72,0
43559,note_on,,119,0,5,,,,,,,,,,,,,,,,2,,53,0
43559,note_on,,29,0,8,,,,,,,,,,,,,,,,11,,72,0
43559,note_on,,0,0,10,,,,,,,,,,,,,,,,15,,69,0
43559,note_on,,119,0,10,,,,,,,,,,,,,,,,15,,53,0
43559,note_on,,0,0,10,,,,,,,,,,,,,,,,15,,60,0
43559,note_on,,0,0,10,,,,,,,,,,,,,,,,15,,65,0
43560,note_on,,1,0,8,,,,,,,,,,,,,,,,11,,74,72
43560,note_on,,1,0,10,,,,,,,,,,,,,,,,15,,50,48
43560,note_on,,0,0,10,,,,,,,,,,,,,,,,15,,74,48
43560,note_on,,0,0,10,,,,,,,,,,,,,,,,15,,69,48
43560,note_on,,1,0,9,,,,,,,,,,,,,,,,13,,50,48
43560,note_on,,0,0,10,,,,,,,,,,,,,,,,15,,62,48
43560,note_on,,1,0,5,,,,,,,,,,,,,,,,2,,50,48
43560,note_on,,0,0,10,,,,,,,,,,,,,,,,15,,77,48
43560,note_on,,1,0,7,,,,,,,,,,,,,,,,10,,74,72
43589,note_on,,29,0,7,,,,,,,,,,,,,,,,10,,74,0
43589,note_on,,29,0,8,,,,,,,,,,,,,,,,11,,74,0
43590,note_on,,1,0,7,,,,,,,,,,,,,,,,10,,75,72
43590,note_on,,1,0,8,,,,,,,,,,,,,,,,11,,75,72
43619,note_on,,29,0,7,,,,,,,,,,,,,,,,10,,75,0
43619,note_on,,29,0,8,,,,,,,,,,,,,,,,11,,75,0
43620,note_on,,1,0,7,,,,,,,,,,,,,,,,10,,77,72
43620,note_on,,1,0,8,,,,,,,,,,,,,,,,11,,77,72
43649,note_on,,29,0,7,,,,,,,,,,,,,,,,10,,77,0
43649,note_on,,29,0,8,,,,,,,,,,,,,,,,11,,77,0
43650,note_on,,1,0,8,,,,,,,,,,,,,,,,11,,74,72
43650,note_on,,1,0,7,,,,,,,,,,,,,,,,10,,74,72
43679,note_on,,0,0,10,,,,,,,,,,,,,,,,15,,74,0
43679,note_on,,0,0,10,,,,,,,,,,,,,,,,15,,62,0
43679,note_on,,0,0,10,,,,,,,,,,,,,,,,15,,77,0
43679,note_on,,29,0,8,,,,,,,,,,,,,,,,11,,74,0
43679,note_on,,119,0,5,,,,,,,,,,,,,,,,2,,50,0
43679,note_on,,0,0,10,,,,,,,,,,,,,,,,15,,69,0
43679,note_on,,119,0,10,,,,,,,,,,,,,,,,15,,50,0
43679,note_on,,29,0,7,,,,,,,,,,,,,,,,10,,74,0
43679,note_on,,119,0,9,,,,,,,,,,,,,,,,13,,50,0
43680,note_on,,1,0,9,,,,,,,,,,,,,,,,13,,55,48
43680,note_on,,1,0,10,,,,,,,,,,,,,,,,15,,55,48
43680,note_on,,0,0,10,,,,,,,,,,,,,,,,15,,74,48
43680,note_on,,0,0,10,,,,,,,,,,,,,,,,15,,70,48
43680,note_on,,0,0,10,,,,,,,,,,,,,,,,15,,67,48
43680,note_on,,0,0,10,,,,,,,,,,,,,,,,15,,62,48
43680,note_on,,1,0,8,,,,,,,,,,,,,,,,11,,70,72
43680,note_on,,1,0,5,,,,,,,,,,,,,,,,2,,55,48
43680,note_on,,1,0,7,,,,,,,,,,,,,,,,10,,70,72
43769,note_on,,89,0,7,,,,,,,,,,,,,,,,10,,70,0
43769,note_on,,89,0,8,,,,,,,,,,,,,,,,11,,70,0
43770,note_on,,1,0,7,,,,,,,,,,,,,,,,10,,69,72
43770,note_on,,1,0,8,,,,,,,,,,,,,,,,11,,69,72
43799,note_on,,0,0,10,,,,,,,,,,,,,,,,15,,70,0
43799,note_on,,0,0,10,,,,,,,,,,,,,,,,15,,74,0
43799,note_on,,119,0,9,,,,,,,,,,,,,,,,13,,55,0
43799,note_on,,119,0,10,,,,,,,,,,,,,,,,15,,55,0
43799,note_on,,0,0,10,,,,,,,,,,,,,,,,15,,62,0
43799,note_on,,29,0,8,,,,,,,,,,,,,,,,11,,69,0
43799,note_on,,29,0,7,,,,,,,,,,,,,,,,10,,69,0
43799,note_on,,119,0,5,,,,,,,,,,,,,,,,2,,55,0
43799,note_on,,0,0,10,,,,,,,,,,,,,,,,15,,67,0
43800,note_on,,1,0,8,,,,,,,,,,,,,,,,11,,70,72
43800,note_on,,1,0,7,,,,,,,,,,,,,,,,10,,70,72
43859,note_on,,59,0,7,,,,,,,,,,,,,,,,10,,70,0
43859,note_on,,59,0,8,,,,,,,,,,,,,,,,11,,70,0
43860,note_on,,1,0,7,,,,,,,,,,,,,,,,10,,69,72
43860,note_on,,1,0,8,,,,,,,,,,,,,,,,11,,69,72
43860,note_on,,61,0,9,,,,,,,,,,,,,,,,13,,53,48
43860,note_on,,61,0,10,,,,,,,,,,,,,,,,15,,53,48
43860,note_on,,0,0,10,,,,,,,,,,,,,,,,15,,77,48
43860,note_on,,0,0,10,,,,,,,,,,,,,,,,15,,72,48
43860,note_on,,0,0,10,,,,,,,,,,,,,,,,15,,69,48
43860,note_on,,0,0,10,,,,,,,,,,,,,,,,15,,57,48
43890,note_on,,1051,0,6,,,,,,,,,,,,,,,,5,,72,72
43919,note_on,,0,0,10,,,,,,,,,,,,,,,,15,,57,0
43919,note_on,,0,0,10,,,,,,,,,,,,,,,,15,,72,0
43919,note_on,,0,0,10,,,,,,,,,,,,,,,,15,,77,0
43919,note_on,,59,0,10,,,,,,,,,,,,,,,,15,,53,0
43919,note_on,,59,0,8,,,,,,,,,,,,,,,,11,,69,0
43919,note_on,,59,0,7,,,,,,,,,,,,,,,,10,,69,0
43919,note_on,,29,0,6,,,,,,,,,,,,,,,,5,,72,0
43919,note_on,,59,0,9,,,,,,,,,,,,,,,,13,,53,0
43919,note_on,,0,0,10,,,,,,,,,,,,,,,,15,,69,0
43920,note_on,,0,0,10,,,,,,,,,,,,,,,,15,,74,48
43920,note_on,,1,0,6,,,,,,,,,,,,,,,,5,,74,72
43920,note_on,,1,0,9,,,,,,,,,,,,,,,,13,,58,48
43920,note_on,,1,0,10,,,,,,,,,,,,,,,,15,,58,48
43920,note_on,,1,0,8,,,,,,,,,,,,,,,,11,,70,72
43920,note_on,,0,0,10,,,,,,,,,,,,,,,,15,,65,48
43920,note_on,,0,0,10,,,,,,,,,,,,,,,,15,,62,48
43920,note_on,,1,0,7,,,,,,,,,,,,,,,,10,,70,72
43920,note_on,,0,0,10,,,,,,,,,,,,,,,,15,,70,48
43934,note_on,,14,0,6,,,,,,,,,,,,,,,,5,,74,0
43935,note_on,,1,0,6,,,,,,,,,,,,,,,,5,,75,72
43949,note_on,,14,0,6,,,,,,,,,,,,,,,,5,,75,0
43950,note_on,,1,0,6,,,,,,,,,,,,,,,,5,,74,72
43964,note_on,,14,0,6,,,,,,,,,,,,,,,,5,,74,0
43965,note_on,,1,0,6,,,,,,,,,,,,,,,,5,,75,72
43979,note_on,,14,0,6,,,,,,,,,,,,,,,,5,,75,0
43980,note_on,,1,0,6,,,,,,,,,,,,,,,,5,,74,72
43994,note_on,,14,0,6,,,,,,,,,,,,,,,,5,,74,0
43995,note_on,,1,0,6,,,,,,,,,,,,,,,,5,,75,72
44009,note_on,,89,0,8,,,,,,,,,,,,,,,,11,,70,0
44009,note_on,,89,0,10,,,,,,,,,,,,,,,,15,,58,0
44009,note_on,,0,0,10,,,,,,,,,,,,,,,,15,,65,0
44009,note_on,,0,0,10,,,,,,,,,,,,,,,,15,,62,0
44009,note_on,,14,0,6,,,,,,,,,,,,,,,,5,,75,0
44009,note_on,,89,0,9,,,,,,,,,,,,,,,,13,,58,0
44009,note_on,,89,0,7,,,,,,,,,,,,,,,,10,,70,0
44009,note_on,,0,0,10,,,,,,,,,,,,,,,,15,,74,0
44009,note_on,,0,0,10,,,,,,,,,,,,,,,,15,,70,0
44010,note_on,,1,0,7,,,,,,,,,,,,,,,,10,,69,72
44010,note_on,,1,0,6,,,,,,,,,,,,,,,,5,,72,72
44010,note_on,,1,0,10,,,,,,,,,,,,,,,,15,,53,48
44010,note_on,,0,0,10,,,,,,,,,,,,,,,,15,,69,48
44010,note_on,,0,0,10,,,,,,,,,,,,,,,,15,,65,48
44010,note_on,,0,0,10,,,,,,,,,,,,,,,,15,,60,48
44010,note_on,,1,0,9,,,,,,,,,,,,,,,,13,,53,48
44010,note_on,,1,0,8,,,,,,,,,,,,,,,,11,,69,72
44039,note_on,,29,0,10,,,,,,,,,,,,,,,,15,,53,0
44039,note_on,,0,0,10,,,,,,,,,,,,,,,,15,,69,0
44039,note_on,,0,0,10,,,,,,,,,,,,,,,,15,,65,0
44039,note_on,,0,0,10,,,,,,,,,,,,,,,,15,,60,0
44039,note_on,,29,0,8,,,,,,,,,,,,,,,,11,,69,0
44039,note_on,,29,0,9,,,,,,,,,,,,,,,,13,,53,0
44039,note_on,,29,0,7,,,,,,,,,,,,,,,,10,,69,0
44039,note_on,,29,0,6,,,,,,,,,,,,,,,,5,,72,0
44040,note_on,,0,0,10,,,,,,,,,,,,,,,,15,,65,48
44040,note_on,,0,0,10,,,,,,,,,,,,,,,,15,,70,48
44040,note_on,,1,0,10,,,,,,,,,,,,,,,,15,,58,48
44040,note_on,,1,0,9,,,,,,,,,,,,,,,,13,,58,48
44040,note_on,,1,0,8,,,,,,,,,,,,,,,,11,,70,72
44040,note_on,,1,0,6,,,,,,,,,,,,,,,,5,,74,72
44040,note_on,,0,0,10,,,,,,,,,,,,,,,,15,,62,48
44040,note_on,,1,0,7,,,,,,,,,,,,,,,,10,,70,72
44054,note_on,,14,0,6,,,,,,,,,,,,,,,,5,,74,0
44055,note_on,,1,0,6,,,,,,,,,,,,,,,,5,,75,72
44069,note_on,,14,0,6,,,,,,,,,,,,,,,,5,,75,0
44070,note_on,,1,0,6,,,,,,,,,,,,,,,,5,,74,72
44084,note_on,,14,0,6,,,,,,,,,,,,,,,,5,,74,0
44085,note_on,,1,0,6,,,,,,,,,,,,,,,,5,,75,72
44099,note_on,,14,0,6,,,,,,,,,,,,,,,,5,,75,0
44100,note_on,,1,0,6,,,,,,,,,,,,,,,,5,,74,72
44114,note_on,,14,0,6,,,,,,,,,,,,,,,,5,,74,0
44115,note_on,,1,0,6,,,,,,,,,,,,,,,,5,,75,72
44129,note_on,,89,0,10,,,,,,,,,,,,,,,,15,,58,0
44129,note_on,,89,0,8,,,,,,,,,,,,,,,,11,,70,0
44129,note_on,,0,0,10,,,,,,,,,,,,,,,,15,,70,0
44129,note_on,,89,0,7,,,,,,,,,,,,,,,,10,,70,0
44129,note_on,,14,0,6,,,,,,,,,,,,,,,,5,,75,0
44129,note_on,,0,0,10,,,,,,,,,,,,,,,,15,,65,0
44129,note_on,,89,0,9,,,,,,,,,,,,,,,,13,,58,0
44129,note_on,,0,0,10,,,,,,,,,,,,,,,,15,,62,0
44130,note_on,,1,0,10,,,,,,,,,,,,,,,,15,,53,48
44130,note_on,,0,0,10,,,,,,,,,,,,,,,,15,,65,48
44130,note_on,,0,0,10,,,,,,,,,,,,,,,,15,,60,48
44130,note_on,,1,0,8,,,,,,,,,,,,,,,,11,,69,72
44130,note_on,,1,0,6,,,,,,,,,,,,,,,,5,,72,72
44130,note_on,,1,0,7,,,,,,,,,,,,,,,,10,,69,72
44130,note_on,,0,0,10,,,,,,,,,,,,,,,,15,,69,48
44130,note_on,,1,0,9,,,,,,,,,,,,,,,,13,,53,48
44159,note_on,,29,0,7,,,,,,,,,,,,,,,,10,,69,0
44159,note_on,,29,0,8,,,,,,,,,,,,,,,,11,,69,0
44159,note_on,,29,0,6,,,,,,,,,,,,,,,,5,,72,0
44159,note_on,,0,0,10,,,,,,,,,,,,,,,,15,,65,0
44159,note_on,,29,0,9,,,,,,,,,,,,,,,,13,,53,0
44159,note_on,,0,0,10,,,,,,,,,,,,,,,,15,,60,0
44159,note_on,,0,0,10,,,,,,,,,,,,,,,,15,,69,0
44159,note_on,,29,0,10,,,,,,,,,,,,,,,,15,,53,0
44160,note_on,,1,0,10,,,,,,,,,,,,,,,,15,,58,48
44160,note_on,,0,0,10,,,,,,,,,,,,,,,,15,,65,48
44160,note_on,,0,0,10,,,,,,,,,,,,,,,,15,,70,48
44160,note_on,,1,0,6,,,,,,,,,,,,,,,,5,,74,72
44160,note_on,,1,0,7,,,,,,,,,,,,,,,,10,,70,72
44160,note_on,,1,0,8,,,,,,,,,,,,,,,,11,,70,72
44160,note_on,,1,0,9,,,,,,,,,,,,,,,,13,,58,48
44160,note_on,,0,0,10,,,,,,,,,,,,,,,,15,,62,48
44174,note_on,,14,0,6,,,,,,,,,,,,,,,,5,,74,0
44175,note_on,,1,0,6,,,,,,,,,,,,,,,,5,,75,72
44189,note_on,,14,0,6,,,,,,,,,,,,,,,,5,,75,0
44190,note_on,,1,0,6,,,,,,,,,,,,,,,,5,,74,72
44204,note_on,,14,0,6,,,,,,,,,,,,,,,,5,,74,0
44205,note_on,,1,0,6,,,,,,,,,,,,,,,,5,,75,72
44219,note_on,,14,0,6,,,,,,,,,,,,,,,,5,,75,0
44220,note_on,,1,0,6,,,,,,,,,,,,,,,,5,,74,72
44234,note_on,,14,0,6,,,,,,,,,,,,,,,,5,,74,0
44235,note_on,,1,0,6,,,,,,,,,,,,,,,,5,,75,72
44249,note_on,,89,0,10,,,,,,,,,,,,,,,,15,,58,0
44249,note_on,,0,0,10,,,,,,,,,,,,,,,,15,,70,0
44249,note_on,,0,0,10,,,,,,,,,,,,,,,,15,,65,0
44249,note_on,,0,0,10,,,,,,,,,,,,,,,,15,,62,0
44249,note_on,,89,0,8,,,,,,,,,,,,,,,,11,,70,0
44249,note_on,,89,0,7,,,,,,,,,,,,,,,,10,,70,0
44249,note_on,,89,0,9,,,,,,,,,,,,,,,,13,,58,0
44249,note_on,,14,0,6,,,,,,,,,,,,,,,,5,,75,0
44250,note_on,,1,0,9,,,,,,,,,,,,,,,,13,,53,48
44250,note_on,,1,0,6,,,,,,,,,,,,,,,,5,,72,72
44250,note_on,,1,0,7,,,,,,,,,,,,,,,,10,,69,72
44250,note_on,,1,0,8,,,,,,,,,,,,,,,,11,,69,72
44250,note_on,,1,0,10,,,,,,,,,,,,,,,,15,,53,48
44250,note_on,,0,0,10,,,,,,,,,,,,,,,,15,,69,48
44250,note_on,,0,0,10,,,,,,,,,,,,,,,,15,,65,48
44250,note_on,,0,0,10,,,,,,,,,,,,,,,,15,,60,48
44279,note_on,,29,0,8,,,,,,,,,,,,,,,,11,,69,0
44279,note_on,,29,0,7,,,,,,,,,,,,,,,,10,,69,0
44279,note_on,,0,0,10,,,,,,,,,,,,,,,,15,,60,0
44279,note_on,,29,0,9,,,,,,,,,,,,,,,,13,,53,0
44279,note_on,,0,0,10,,,,,,,,,,,,,,,,15,,69,0
44279,note_on,,0,0,10,,,,,,,,,,,,,,,,15,,65,0
44279,note_on,,29,0,6,,,,,,,,,,,,,,,,5,,72,0
44279,note_on,,29,0,10,,,,,,,,,,,,,,,,15,,53,0
44280,note_on,,0,0,10,,,,,,,,,,,,,,,,15,,62,48
44280,note_on,,0,0,10,,,,,,,,,,,,,,,,15,,70,48
44280,note_on,,0,0,10,,,,,,,,,,,,,,,,15,,58,48
44280,note_on,,1,0,10,,,,,,,,,,,,,,,,15,,65,48
44280,note_on,,1,0,6,,,,,,,,,,,,,,,,5,,74,72
44280,note_on,,1,0,8,,,,,,,,,,,,,,,,11,,70,72
44280,note_on,,1,0,7,,,,,,,,,,,,,,,,10,,70,72
44280,note_on,,1,0,9,,,,,,,,,,,,,,,,13,,58,48
44369,note_on,,89,0,9,,,,,,,,,,,,,,,,13,,58,0
44369,note_on,,89,0,8,,,,,,,,,,,,,,,,11,,70,0
44369,note_on,,0,0,10,,,,,,,,,,,,,,,,15,,62,0
44369,note_on,,89,0,6,,,,,,,,,,,,,,,,5,,74,0
44369,note_on,,89,0,7,,,,,,,,,,,,,,,,10,,70,0
44369,note_on,,89,0,10,,,,,,,,,,,,,,,,15,,65,0
44369,note_on,,0,0,10,,,,,,,,,,,,,,,,15,,58,0
44369,note_on,,0,0,10,,,,,,,,,,,,,,,,15,,70,0
44370,note_on,,0,0,10,,,,,,,,,,,,,,,,15,,60,48
44370,note_on,,0,0,10,,,,,,,,,,,,,,,,15,,65,48
44370,note_on,,0,0,10,,,,,,,,,,,,,,,,15,,69,48
44370,note_on,,1,0,10,,,,,,,,,,,,,,,,15,,53,48
44370,note_on,,1,0,7,,,,,,,,,,,,,,,,10,,69,72
44370,note_on,,1,0,6,,,,,,,,,,,,,,,,5,,72,72
44370,note_on,,1,0,8,,,,,,,,,,,,,,,,11,,69,72
44370,note_on,,1,0,9,,,,,,,,,,,,,,,,13,,53,48
44399,note_on,,29,0,10,,,,,,,,,,,,,,,,15,,53,0
44399,note_on,,29,0,6,,,,,,,,,,,,,,,,5,,72,0
44399,note_on,,29,0,8,,,,,,,,,,,,,,,,11,,69,0
44399,note_on,,29,0,7,,,,,,,,,,,,,,,,10,,69,0
44399,note_on,,0,0,10,,,,,,,,,,,,,,,,15,,69,0
44399,note_on,,0,0,10,,,,,,,,,,,,,,,,15,,65,0
44399,note_on,,0,0,10,,,,,,,,,,,,,,,,15,,60,0
44399,note_on,,29,0,9,,,,,,,,,,,,,,,,13,,53,0
44400,note_on,,0,0,10,,,,,,,,,,,,,,,,15,,70,48
44400,note_on,,1,0,10,,,,,,,,,,,,,,,,15,,58,48
44400,note_on,,0,0,10,,,,,,,,,,,,,,,,15,,65,48
44400,note_on,,1,0,9,,,,,,,,,,,,,,,,13,,58,48
44400,note_on,,1,0,6,,,,,,,,,,,,,,,,5,,74,72
44400,note_on,,0,0,10,,,,,,,,,,,,,,,,15,,62,48
44400,note_on,,1,0,8,,,,,,,,,,,,,,,,11,,70,72
44400,note_on,,1,0,7,,,,,,,,,,,,,,,,10,,70,72
44414,note_on,,14,0,6,,,,,,,,,,,,,,,,5,,74,0
44415,note_on,,1,0,6,,,,,,,,,,,,,,,,5,,75,72
44429,note_on,,14,0,6,,,,,,,,,,,,,,,,5,,75,0
44430,note_on,,1,0,6,,,,,,,,,,,,,,,,5,,74,72
44444,note_on,,14,0,6,,,,,,,,,,,,,,,,5,,74,0
44445,note_on,,1,0,6,,,,,,,,,,,,,,,,5,,75,72
44459,note_on,,14,0,6,,,,,,,,,,,,,,,,5,,75,0
44460,note_on,,1,0,6,,,,,,,,,,,,,,,,5,,74,72
44474,note_on,,14,0,6,,,,,,,,,,,,,,,,5,,74,0
44475,note_on,,1,0,6,,,,,,,,,,,,,,,,5,,75,72
44489,note_on,,89,0,9,,,,,,,,,,,,,,,,13,,58,0
44489,note_on,,14,0,6,,,,,,,,,,,,,,,,5,,75,0
44489,note_on,,89,0,10,,,,,,,,,,,,,,,,15,,58,0
44489,note_on,,0,0,10,,,,,,,,,,,,,,,,15,,70,0
44489,note_on,,0,0,10,,,,,,,,,,,,,,,,15,,65,0
44489,note_on,,0,0,10,,,,,,,,,,,,,,,,15,,62,0
44489,note_on,,89,0,8,,,,,,,,,,,,,,,,11,,70,0
44489,note_on,,89,0,7,,,,,,,,,,,,,,,,10,,70,0
44490,note_on,,0,0,10,,,,,,,,,,,,,,,,15,,65,48
44490,note_on,,1,0,7,,,,,,,,,,,,,,,,10,,69,72
44490,note_on,,1,0,6,,,,,,,,,,,,,,,,5,,72,72
44490,note_on,,1,0,9,,,,,,,,,,,,,,,,13,,53,48
44490,note_on,,0,0,10,,,,,,,,,,,,,,,,15,,69,48
44490,note_on,,1,0,10,,,,,,,,,,,,,,,,15,,53,48
44490,note_on,,0,0,10,,,,,,,,,,,,,,,,15,,60,48
44490,note_on,,1,0,8,,,,,,,,,,,,,,,,11,,69,72
44519,note_on,,29,0,10,,,,,,,,,,,,,,,,15,,53,0
44519,note_on,,0,0,10,,,,,,,,,,,,,,,,15,,65,0
44519,note_on,,0,0,10,,,,,,,,,,,,,,,,15,,69,0
44519,note_on,,0,0,10,,,,,,,,,,,,,,,,15,,60,0
44519,note_on,,29,0,7,,,,,,,,,,,,,,,,10,,69,0
44519,note_on,,29,0,8,,,,,,,,,,,,,,,,11,,69,0
44519,note_on,,29,0,9,,,,,,,,,,,,,,,,13,,53,0
44519,note_on,,29,0,6,,,,,,,,,,,,,,,,5,,72,0
44520,note_on,,1,0,8,,,,,,,,,,,,,,,,11,,70,72
44520,note_on,,1,0,7,,,,,,,,,,,,,,,,10,,70,72
44520,note_on,,1,0,6,,,,,,,,,,,,,,,,5,,74,72
44520,note_on,,0,0,10,,,,,,,,,,,,,,,,15,,62,48
44520,note_on,,0,0,10,,,,,,,,,,,,,,,,15,,65,48
44520,note_on,,0,0,10,,,,,,,,,,,,,,,,15,,70,48
44520,note_on,,1,0,10,,,,,,,,,,,,,,,,15,,58,48
44520,note_on,,1,0,9,,,,,,,,,,,,,,,,13,,58,48
44609,note_on,,89,0,10,,,,,,,,,,,,,,,,15,,58,0
44609,note_on,,89,0,6,,,,,,,,,,,,,,,,5,,74,0
44609,note_on,,89,0,7,,,,,,,,,,,,,,,,10,,70,0
44609,note_on,,0,0,10,,,,,,,,,,,,,,,,15,,65,0
44609,note_on,,0,0,10,,,,,,,,,,,,,,,,15,,62,0
44609,note_on,,89,0,8,,,,,,,,,,,,,,,,11,,70,0
44609,note_on,,89,0,9,,,,,,,,,,,,,,,,13,,58,0
44609,note_on,,0,0,10,,,,,,,,,,,,,,,,15,,70,0
44610,note_on,,1,0,7,,,,,,,,,,,,,,,,10,,72,72
44610,note_on,,1,0,9,,,,,,,,,,,,,,,,13,,51,48
44610,note_on,,0,0,10,,,,,,,,,,,,,,,,15,,72,48
44610,note_on,,0,0,10,,,,,,,,,,,,,,,,15,,63,48
44610,note_on,,0,0,10,,,,,,,,,,,,,,,,15,,67,48
44610,note_on,,1,0,10,,,,,,,,,,,,,,,,15,,51,48
44610,note_on,,1,0,6,,,,,,,,,,,,,,,,5,,75,72
44610,note_on,,1,0,8,,,,,,,,,,,,,,,,11,,72,72
44639,note_on,,29,0,9,,,,,,,,,,,,,,,,13,,51,0
44639,note_on,,0,0,10,,,,,,,,,,,,,,,,15,,72,0
44639,note_on,,0,0,10,,,,,,,,,,,,,,,,15,,67,0
44639,note_on,,0,0,10,,,,,,,,,,,,,,,,15,,63,0
44639,note_on,,29,0,6,,,,,,,,,,,,,,,,5,,75,0
44639,note_on,,29,0,7,,,,,,,,,,,,,,,,10,,72,0
44639,note_on,,29,0,8,,,,,,,,,,,,,,,,11,,72,0
44639,note_on,,29,0,10,,,,,,,,,,,,,,,,15,,51,0
44640,note_on,,1,0,8,,,,,,,,,,,,,,,,11,,74,72
44640,note_on,,0,0,10,,,,,,,,,,,,,,,,15,,65,48
44640,note_on,,1,0,9,,,,,,,,,,,,,,,,13,,46,48
44640,note_on,,0,0,10,,,,,,,,,,,,,,,,15,,70,48
44640,note_on,,0,0,10,,,,,,,,,,,,,,,,15,,74,48
44640,note_on,,1,0,10,,,,,,,,,,,,,,,,15,,46,48
44640,note_on,,1,0,7,,,,,,,,,,,,,,,,10,,74,72
44640,note_on,,1,0,6,,,,,,,,,,,,,,,,5,,77,72
44729,note_on,,89,0,7,,,,,,,,,,,,,,,,10,,74,0
44729,note_on,,89,0,8,,,,,,,,,,,,,,,,11,,74,0
44730,note_on,,1,0,8,,,,,,,,,,,,,,,,11,,72,72
44730,note_on,,1,0,7,,,,,,,,,,,,,,,,10,,72,72
44759,note_on,,0,0,10,,,,,,,,,,,,,,,,15,,74,0
44759,note_on,,0,0,10,,,,,,,,,,,,,,,,15,,70,0
44759,note_on,,0,0,10,,,,,,,,,,,,,,,,15,,65,0
44759,note_on,,119,0,9,,,,,,,,,,,,,,,,13,,46,0
44759,note_on,,29,0,7,,,,,,,,,,,,,,,,10,,72,0
44759,note_on,,119,0,6,,,,,,,,,,,,,,,,5,,77,0
44759,note_on,,119,0,10,,,,,,,,,,,,,,,,15,,46,0
44759,note_on,,29,0,8,,,,,,,,,,,,,,,,11,,72,0
44760,note_on,,1,0,8,,,,,,,,,,,,,,,,11,,74,72
44760,note_on,,1,0,7,,,,,,,,,,,,,,,,10,,74,72
44760,note_on,,1,0,6,,,,,,,,,,,,,,,,5,,70,72
44820,note_on,,0,0,10,,,,,,,,,,,,,,,,15,,72,48
44820,note_on,,61,0,9,,,,,,,,,,,,,,,,13,,53,48
44820,note_on,,61,0,10,,,,,,,,,,,,,,,,15,,53,48
44820,note_on,,0,0,10,,,,,,,,,,,,,,,,15,,69,48
44820,note_on,,0,0,10,,,,,,,,,,,,,,,,15,,65,48
44849,note_on,,89,0,8,,,,,,,,,,,,,,,,11,,74,0
44849,note_on,,89,0,7,,,,,,,,,,,,,,,,10,,74,0
44850,note_on,,1,0,8,,,,,,,,,,,,,,,,11,,72,72
44850,note_on,,1,0,7,,,,,,,,,,,,,,,,10,,72,72
44879,note_on,,119,0,6,,,,,,,,,,,,,,,,5,,70,0
44879,note_on,,59,0,9,,,,,,,,,,,,,,,,13,,53,0
44879,note_on,,0,0,10,,,,,,,,,,,,,,,,15,,65,0
44879,note_on,,0,0,10,,,,,,,,,,,,,,,,15,,69,0
44879,note_on,,0,0,10,,,,,,,,,,,,,,,,15,,72,0
44879,note_on,,59,0,10,,,,,,,,,,,,,,,,15,,53,0
44879,note_on,,29,0,7,,,,,,,,,,,,,,,,10,,72,0
44879,note_on,,29,0,8,,,,,,,,,,,,,,,,11,,72,0
44880,note_on,,0,0,10,,,,,,,,,,,,,,,,15,,65,48
44880,note_on,,0,0,10,,,,,,,,,,,,,,,,15,,74,48
44880,note_on,,1,0,7,,,,,,,,,,,,,,,,10,,74,72
44880,note_on,,1,0,6,,,,,,,,,,,,,,,,5,,77,72
44880,note_on,,1,0,9,,,,,,,,,,,,,,,,13,,58,48
44880,note_on,,1,0,10,,,,,,,,,,,,,,,,15,,58,48
44880,note_on,,1,0,8,,,,,,,,,,,,,,,,11,,74,72
44969,note_on,,89,0,9,,,,,,,,,,,,,,,,13,,58,0
44969,note_on,,89,0,7,,,,,,,,,,,,,,,,10,,74,0
44969,note_on,,89,0,8,,,,,,,,,,,,,,,,11,,74,0
44969,note_on,,0,0,10,,,,,,,,,,,,,,,,15,,65,0
44969,note_on,,0,0,10,,,,,,,,,,,,,,,,15,,74,0
44969,note_on,,89,0,10,,,,,,,,,,,,,,,,15,,58,0
44970,note_on,,1,0,7,,,,,,,,,,,,,,,,10,,72,72
44970,note_on,,1,0,9,,,,,,,,,,,,,,,,13,,57,48
44970,note_on,,1,0,8,,,,,,,,,,,,,,,,11,,72,72
44970,note_on,,0,0,10,,,,,,,,,,,,,,,,15,,65,48
44970,note_on,,0,0,10,,,,,,,,,,,,,,,,15,,72,48
44970,note_on,,1,0,10,,,,,,,,,,,,,,,,15,,57,48
44999,note_on,,29,0,7,,,,,,,,,,,,,,,,10,,72,0
44999,note_on,,0,0,10,,,,,,,,,,,,,,,,15,,65,0
44999,note_on,,0,0,10,,,,,,,,,,,,,,,,15,,72,0
44999,note_on,,29,0,9,,,,,,,,,,,,,,,,13,,57,0
44999,note_on,,29,0,10,,,,,,,,,,,,,,,,15,,57,0
44999,note_on,,29,0,8,,,,,,,,,,,,,,,,11,,72,0
45000,note_on,,1,0,9,,,,,,,,,,,,,,,,13,,58,48
45000,note_on,,0,0,10,,,,,,,,,,,,,,,,15,,74,48
45000,note_on,,1,0,10,,,,,,,,,,,,,,,,15,,58,48
45000,note_on,,0,0,10,,,,,,,,,,,,,,,,15,,65,48
45000,note_on,,1,0,7,,,,,,,,,,,,,,,,10,,74,72
45000,note_on,,1,0,8,,,,,,,,,,,,,,,,11,,74,72
45089,note_on,,89,0,8,,,,,,,,,,,,,,,,11,,74,0
45089,note_on,,89,0,7,,,,,,,,,,,,,,,,10,,74,0
45089,note_on,,89,0,9,,,,,,,,,,,,,,,,13,,58,0
45089,note_on,,89,0,10,,,,,,,,,,,,,,,,15,,58,0
45089,note_on,,0,0,10,,,,,,,,,,,,,,,,15,,74,0
45089,note_on,,0,0,10,,,,,,,,,,,,,,,,15,,65,0
45090,note_on,,0,0,10,,,,,,,,,,,,,,,,15,,65,48
45090,note_on,,1,0,8,,,,,,,,,,,,,,,,11,,72,72
45090,note_on,,1,0,7,,,,,,,,,,,,,,,,10,,72,72
45090,note_on,,0,0,10,,,,,,,,,,,,,,,,15,,72,48
45090,note_on,,1,0,10,,,,,,,,,,,,,,,,15,,57,48
45090,note_on,,1,0,9,,,,,,,,,,,,,,,,13,,57,48
45119,note_on,,29,0,10,,,,,,,,,,,,,,,,15,,57,0
45119,note_on,,29,0,7,,,,,,,,,,,,,,,,10,,72,0
45119,note_on,,0,0,10,,,,,,,,,,,,,,,,15,,65,0
45119,note_on,,0,0,10,,,,,,,,,,,,,,,,15,,72,0
45119,note_on,,29,0,9,,,,,,,,,,,,,,,,13,,57,0
45119,note_on,,29,0,8,,,,,,,,,,,,,,,,11,,72,0
45120,note_on,,1,0,8,,,,,,,,,,,,,,,,11,,74,72
45120,note_on,,1,0,7,,,,,,,,,,,,,,,,10,,74,72
45120,note_on,,1,0,9,,,,,,,,,,,,,,,,13,,58,48
45120,note_on,,1,0,10,,,,,,,,,,,,,,,,15,,58,48
45120,note_on,,0,0,10,,,,,,,,,,,,,,,,15,,74,48
45120,note_on,,0,0,10,,,,,,,,,,,,,,,,15,,65,48
45209,note_on,,89,0,10,,,,,,,,,,,,,,,,15,,58,0
45209,note_on,,89,0,7,,,,,,,,,,,,,,,,10,,74,0
45209,note_on,,89,0,8,,,,,,,,,,,,,,,,11,,74,0
45209,note_on,,89,0,9,,,,,,,,,,,,,,,,13,,58,0
45209,note_on,,0,0,10,,,,,,,,,,,,,,,,15,,74,0
45209,note_on,,0,0,10,,,,,,,,,,,,,,,,15,,65,0
45210,note_on,,1,0,8,,,,,,,,,,,,,,,,11,,72,72
45210,note_on,,1,0,9,,,,,,,,,,,,,,,,13,,57,48
45210,note_on,,1,0,10,,,,,,,,,,,,,,,,15,,57,48
45210,note_on,,0,0,10,,,,,,,,,,,,,,,,15,,72,48
45210,note_on,,0,0,10,,,,,,,,,,,,,,,,15,,65,48
45210,note_on,,1,0,7,,,,,,,,,,,,,,,,10,,72,72
45239,note_on,,29,0,7,,,,,,,,,,,,,,,,10,,72,0
45239,note_on,,0,0,10,,,,,,,,,,,,,,,,15,,65,0
45239,note_on,,0,0,10,,,,,,,,,,,,,,,,15,,72,0
45239,note_on,,29,0,10,,,,,,,,,,,,,,,,15,,57,0
45239,note_on,,29,0,9,,,,,,,,,,,,,,,,13,,57,0
45239,note_on,,29,0,8,,,,,,,,,,,,,,,,11,,72,0
45240,note_on,,0,0,10,,,,,,,,,,,,,,,,15,,58,48
45240,note_on,,1,0,9,,,,,,,,,,,,,,,,13,,58,48
45240,note_on,,0,0,10,,,,,,,,,,,,,,,,15,,74,48
45240,note_on,,1,0,8,,,,,,,,,,,,,,,,11,,74,72
45240,note_on,,1,0,10,,,,,,,,,,,,,,,,15,,65,48
45240,note_on,,1,0,7,,,,,,,,,,,,,,,,10,,74,72
45329,note_on,,449,0,6,,,,,,,,,,,,,,,,5,,77,0
45329,note_on,,0,0,10,,,,,,,,,,,,,,,,15,,74,0
45329,note_on,,0,0,10,,,,,,,,,,,,,,,,15,,58,0
45329,note_on,,89,0,9,,,,,,,,,,,,,,,,13,,58,0
45329,note_on,,89,0,10,,,,,,,,,,,,,,,,15,,65,0
45329,note_on,,89,0,8,,,,,,,,,,,,,,,,11,,74,0
45329,note_on,,89,0,7,,,,,,,,,,,,,,,,10,,74,0
45330,note_on,,1,0,6,,,,,,,,,,,,,,,,5,,79,72
45330,note_on,,1,0,9,,,,,,,,,,,,,,,,13,,57,48
45330,note_on,,0,0,10,,,,,,,,,,,,,,,,15,,65,48
45330,note_on,,0,0,10,,,,,,,,,,,,,,,,15,,72,48
45330,note_on,,1,0,7,,,,,,,,,,,,,,,,10,,72,72
45330,note_on,,1,0,8,,,,,,,,,,,,,,,,11,,72,72
45330,note_on,,1,0,10,,,,,,,,,,,,,,,,15,,57,48
45359,note_on,,29,0,10,,,,,,,,,,,,,,,,15,,57,0
45359,note_on,,29,0,8,,,,,,,,,,,,,,,,11,,72,0
45359,note_on,,29,0,7,,,,,,,,,,,,,,,,10,,72,0
45359,note_on,,29,0,6,,,,,,,,,,,,,,,,5,,79,0
45359,note_on,,0,0,10,,,,,,,,,,,,,,,,15,,65,0
45359,note_on,,0,0,10,,,,,,,,,,,,,,,,15,,72,0
45359,note_on,,29,0,9,,,,,,,,,,,,,,,,13,,57,0
45360,note_on,,0,0,10,,,,,,,,,,,,,,,,15,,65,48
45360,note_on,,1,0,7,,,,,,,,,,,,,,,,10,,74,72
45360,note_on,,1,0,6,,,,,,,,,,,,,,,,5,,77,72
45360,note_on,,0,0,10,,,,,,,,,,,,,,,,15,,74,48
45360,note_on,,1,0,10,,,,,,,,,,,,,,,,15,,58,48
45360,note_on,,1,0,9,,,,,,,,,,,,,,,,13,,58,48
45360,note_on,,1,0,8,,,,,,,,,,,,,,,,11,,74,72
45389,note_on,,29,0,6,,,,,,,,,,,,,,,,5,,77,0
45389,note_on,,29,0,8,,,,,,,,,,,,,,,,11,,74,0
45389,note_on,,29,0,7,,,,,,,,,,,,,,,,10,,74,0
45390,note_on,,1,0,6,,,,,,,,,,,,,,,,5,,75,72
45390,note_on,,1,0,8,,,,,,,,,,,,,,,,11,,75,72
45390,note_on,,1,0,7,,,,,,,,,,,,,,,,10,,75,72
45419,note_on,,29,0,7,,,,,,,,,,,,,,,,10,,75,0
45419,note_on,,29,0,6,,,,,,,,,,,,,,,,5,,75,0
45419,note_on,,29,0,8,,,,,,,,,,,,,,,,11,,75,0
45420,note_on,,1,0,7,,,,,,,,,,,,,,,,10,,77,72
45420,note_on,,1,0,6,,,,,,,,,,,,,,,,5,,74,72
45420,note_on,,1,0,8,,,,,,,,,,,,,,,,11,,77,72
45479,note_on,,59,0,7,,,,,,,,,,,,,,,,10,,77,0
45479,note_on,,119,0,9,,,,,,,,,,,,,,,,13,,58,0
45479,note_on,,59,0,8,,,,,,,,,,,,,,,,11,,77,0
45479,note_on,,119,0,10,,,,,,,,,,,,,,,,15,,58,0
45479,note_on,,0,0,10,,,,,,,,,,,,,,,,15,,74,0
45479,note_on,,59,0,6,,,,,,,,,,,,,,,,5,,74,0
45479,note_on,,0,0,10,,,,,,,,,,,,,,,,15,,65,0
45480,note_on,,1,0,8,,,,,,,,,,,,,,,,11,,75,72
45480,note_on,,0,0,10,,,,,,,,,,,,,,,,15,,63,48
45480,note_on,,0,0,10,,,,,,,,,,,,,,,,15,,67,48
45480,note_on,,0,0,10,,,,,,,,,,,,,,,,15,,72,48
45480,note_on,,1,0,6,,,,,,,,,,,,,,,,5,,72,72
45480,note_on,,1,0,7,,,,,,,,,,,,,,,,10,,75,72
45480,note_on,,1,0,10,,,,,,,,,,,,,,,,15,,51,48
45480,note_on,,1,0,9,,,,,,,,,,,,,,,,13,,51,48
45539,note_on,,59,0,6,,,,,,,,,,,,,,,,5,,72,0
45539,note_on,,59,0,8,,,,,,,,,,,,,,,,11,,75,0
45539,note_on,,59,0,7,,,,,,,,,,,,,,,,10,,75,0
45540,note_on,,1,0,8,,,,,,,,,,,,,,,,11,,74,72
45540,note_on,,1,0,6,,,,,,,,,,,,,,,,5,,70,72
45540,note_on,,1,0,7,,,,,,,,,,,,,,,,10,,74,72
45599,note_on,,0,0,10,,,,,,,,,,,,,,,,15,,72,0
45599,note_on,,59,0,6,,,,,,,,,,,,,,,,5,,70,0
45599,note_on,,0,0,10,,,,,,,,,,,,,,,,15,,63,0
45599,note_on,,0,0,10,,,,,,,,,,,,,,,,15,,67,0
45599,note_on,,59,0,7,,,,,,,,,,,,,,,,10,,74,0
45599,note_on,,119,0,10,,,,,,,,,,,,,,,,15,,51,0
45599,note_on,,119,0,9,,,,,,,,,,,,,,,,13,,51,0
45599,note_on,,59,0,8,,,,,,,,,,,,,,,,11,,74,0
45600,note_on,,0,0,10,,,,,,,,,,,,,,,,15,,65,48
45600,note_on,,0,0,10,,,,,,,,,,,,,,,,15,,69,48
45600,note_on,,1,0,10,,,,,,,,,,,,,,,,15,,53,48
45600,note_on,,1,0,8,,,,,,,,,,,,,,,,11,,72,72
45600,note_on,,0,0,10,,,,,,,,,,,,,,,,15,,60,48
45600,note_on,,1,0,9,,,,,,,,,,,,,,,,13,,53,48
45600,note_on,,1,0,6,,,,,,,,,,,,,,,,5,,69,72
45600,note_on,,1,0,7,,,,,,,,,,,,,,,,10,,72,72
45614,note_on,,14,0,6,,,,,,,,,,,,,,,,5,,69,0
45615,note_on,,1,0,6,,,,,,,,,,,,,,,,5,,70,72
45629,note_on,,14,0,6,,,,,,,,,,,,,,,,5,,70,0
45630,note_on,,1,0,6,,,,,,,,,,,,,,,,5,,69,72
45644,note_on,,14,0,6,,,,,,,,,,,,,,,,5,,69,0
45645,note_on,,1,0,6,,,,,,,,,,,,,,,,5,,70,72
45659,note_on,,14,0,6,,,,,,,,,,,,,,,,5,,70,0
45660,note_on,,1,0,6,,,,,,,,,,,,,,,,5,,69,72
45674,note_on,,14,0,6,,,,,,,,,,,,,,,,5,,69,0
45675,note_on,,1,0,6,,,,,,,,,,,,,,,,5,,70,72
45689,note_on,,14,0,6,,,,,,,,,,,,,,,,5,,70,0
45690,note_on,,1,0,6,,,,,,,,,,,,,,,,5,,67,72
45719,note_on,,29,0,6,,,,,,,,,,,,,,,,5,,67,0
45719,note_on,,119,0,9,,,,,,,,,,,,,,,,13,,53,0
45719,note_on,,119,0,8,,,,,,,,,,,,,,,,11,,72,0
45719,note_on,,119,0,10,,,,,,,,,,,,,,,,15,,53,0
45719,note_on,,119,0,7,,,,,,,,,,,,,,,,10,,72,0
45719,note_on,,0,0,10,,,,,,,,,,,,,,,,15,,60,0
45719,note_on,,0,0,10,,,,,,,,,,,,,,,,15,,65,0
45719,note_on,,0,0,10,,,,,,,,,,,,,,,,15,,69,0
45720,note_on,,1,0,6,,,,,,,,,,,,,,,,5,,65,72
45720,note_on,,1,0,9,,,,,,,,,,,,,,,,13,,50,48
45720,note_on,,0,0,10,,,,,,,,,,,,,,,,15,,65,48
45720,note_on,,0,0,10,,,,,,,,,,,,,,,,15,,77,48
45720,note_on,,1,0,10,,,,,,,,,,,,,,,,15,,50,48
45720,note_on,,0,0,10,,,,,,,,,,,,,,,,15,,70,48
45809,note_on,,89,0,6,,,,,,,,,,,,,,,,5,,65,0
45809,note_on,,89,0,9,,,,,,,,,,,,,,,,13,,50,0
45809,note_on,,89,0,10,,,,,,,,,,,,,,,,15,,50,0
45810,note_on,,1,0,6,,,,,,,,,,,,,,,,5,,74,72
45810,note_on,,1,0,10,,,,,,,,,,,,,,,,15,,58,48
45810,note_on,,1,0,9,,,,,,,,,,,,,,,,13,,58,48
45839,note_on,,29,0,9,,,,,,,,,,,,,,,,13,,58,0
45839,note_on,,0,0,10,,,,,,,,,,,,,,,,15,,70,0
45839,note_on,,29,0,10,,,,,,,,,,,,,,,,15,,77,0
45839,note_on,,0,0,10,,,,,,,,,,,,,,,,15,,65,0
45839,note_on,,29,0,6,,,,,,,,,,,,,,,,5,,74,0
45839,note_on,,0,0,10,,,,,,,,,,,,,,,,15,,58,0
45840,note_on,,0,0,10,,,,,,,,,,,,,,,,15,,70,48
45840,note_on,,0,0,10,,,,,,,,,,,,,,,,15,,67,48
45840,note_on,,1,0,10,,,,,,,,,,,,,,,,15,,63,48
45840,note_on,,1,0,9,,,,,,,,,,,,,,,,13,,63,48
45840,note_on,,1,0,6,,,,,,,,,,,,,,,,5,,79,72
45900,note_on,,181,0,7,,,,,,,,,,,,,,,,10,,72,72
45900,note_on,,181,0,8,,,,,,,,,,,,,,,,11,,72,72
45929,note_on,,29,0,7,,,,,,,,,,,,,,,,10,,72,0
45929,note_on,,29,0,8,,,,,,,,,,,,,,,,11,,72,0
45930,note_on,,1,0,7,,,,,,,,,,,,,,,,10,,74,72
45930,note_on,,1,0,8,,,,,,,,,,,,,,,,11,,74,72
45959,note_on,,119,0,6,,,,,,,,,,,,,,,,5,,79,0
45959,note_on,,29,0,7,,,,,,,,,,,,,,,,10,,74,0
45959,note_on,,29,0,8,,,,,,,,,,,,,,,,11,,74,0
45959,note_on,,119,0,9,,,,,,,,,,,,,,,,13,,63,0
45959,note_on,,119,0,10,,,,,,,,,,,,,,,,15,,63,0
45959,note_on,,0,0,10,,,,,,,,,,,,,,,,15,,70,0
45959,note_on,,0,0,10,,,,,,,,,,,,,,,,15,,67,0
45960,note_on,,1,0,7,,,,,,,,,,,,,,,,10,,75,72
45960,note_on,,1,0,8,,,,,,,,,,,,,,,,11,,75,72
45989,note_on,,29,0,7,,,,,,,,,,,,,,,,10,,75,0
45989,note_on,,29,0,8,,,,,,,,,,,,,,,,11,,75,0
45990,note_on,,1,0,8,,,,,,,,,,,,,,,,11,,74,72
45990,note_on,,1,0,7,,,,,,,,,,,,,,,,10,,74,72
46019,note_on,,29,0,7,,,,,,,,,,,,,,,,10,,74,0
46019,note_on,,29,0,8,,,,,,,,,,,,,,,,11,,74,0
46020,note_on,,61,0,6,,,,,,,,,,,,,,,,5,,67,72
46020,note_on,,0,0,10,,,,,,,,,,,,,,,,15,,67,48
46020,note_on,,0,0,10,,,,,,,,,,,,,,,,15,,72,48
46020,note_on,,61,0,10,,,,,,,,,,,,,,,,15,,51,48
46020,note_on,,1,0,7,,,,,,,,,,,,,,,,10,,72,72
46020,note_on,,1,0,8,,,,,,,,,,,,,,,,11,,72,72
46020,note_on,,61,0,9,,,,,,,,,,,,,,,,13,,51,48
46079,note_on,,59,0,10,,,,,,,,,,,,,,,,15,,51,0
46079,note_on,,0,0,10,,,,,,,,,,,,,,,,15,,67,0
46079,note_on,,59,0,7,,,,,,,,,,,,,,,,10,,72,0
46079,note_on,,0,0,10,,,,,,,,,,,,,,,,15,,72,0
46079,note_on,,59,0,6,,,,,,,,,,,,,,,,5,,67,0
46079,note_on,,59,0,9,,,,,,,,,,,,,,,,13,,51,0
46079,note_on,,59,0,8,,,,,,,,,,,,,,,,11,,72,0
46080,note_on,,0,0,10,,,,,,,,,,,,,,,,15,,65,48
46080,note_on,,0,0,10,,,,,,,,,,,,,,,,15,,70,48
46080,note_on,,1,0,6,,,,,,,,,,,,,,,,5,,65,72
46080,note_on,,1,0,9,,,,,,,,,,,,,,,,13,,50,48
46080,note_on,,0,0,10,,,,,,,,,,,,,,,,15,,74,48
46080,note_on,,1,0,10,,,,,,,,,,,,,,,,15,,50,48
46140,note_on,,61,0,8,,,,,,,,,,,,,,,,11,,70,72
46140,note_on,,61,0,7,,,,,,,,,,,,,,,,10,,70,72
46169,note_on,,29,0,7,,,,,,,,,,,,,,,,10,,70,0
46169,note_on,,29,0,8,,,,,,,,,,,,,,,,11,,70,0
46170,note_on,,1,0,8,,,,,,,,,,,,,,,,11,,72,72
46170,note_on,,1,0,7,,,,,,,,,,,,,,,,10,,72,72
46199,note_on,,119,0,10,,,,,,,,,,,,,,,,15,,50,0
46199,note_on,,119,0,6,,,,,,,,,,,,,,,,5,,65,0
46199,note_on,,0,0,10,,,,,,,,,,,,,,,,15,,70,0
46199,note_on,,0,0,10,,,,,,,,,,,,,,,,15,,65,0
46199,note_on,,119,0,9,,,,,,,,,,,,,,,,13,,50,0
46199,note_on,,29,0,8,,,,,,,,,,,,,,,,11,,72,0
46199,note_on,,29,0,7,,,,,,,,,,,,,,,,10,,72,0
46199,note_on,,0,0,10,,,,,,,,,,,,,,,,15,,74,0
46200,note_on,,1,0,7,,,,,,,,,,,,,,,,10,,74,72
46200,note_on,,1,0,8,,,,,,,,,,,,,,,,11,,74,72
46229,note_on,,29,0,7,,,,,,,,,,,,,,,,10,,74,0
46229,note_on,,29,0,8,,,,,,,,,,,,,,,,11,,74,0
46230,note_on,,1,0,8,,,,,,,,,,,,,,,,11,,72,72
46230,note_on,,1,0,7,,,,,,,,,,,,,,,,10,,72,72
46259,note_on,,29,0,8,,,,,,,,,,,,,,,,11,,72,0
46259,note_on,,29,0,7,,,,,,,,,,,,,,,,10,,72,0
46260,note_on,,61,0,6,,,,,,,,,,,,,,,,5,,77,72
46260,note_on,,1,0,8,,,,,,,,,,,,,,,,11,,70,72
46260,note_on,,0,0,10,,,,,,,,,,,,,,,,15,,65,48
46260,note_on,,61,0,10,,,,,,,,,,,,,,,,15,,62,48
46260,note_on,,61,0,9,,,,,,,,,,,,,,,,13,,62,48
46260,note_on,,0,0,10,,,,,,,,,,,,,,,,15,,70,48
46260,note_on,,1,0,7,,,,,,,,,,,,,,,,10,,70,72
46289,note_on,,29,0,6,,,,,,,,,,,,,,,,5,,77,0
46290,note_on,,1,0,6,,,,,,,,,,,,,,,,5,,79,72
46319,note_on,,59,0,8,,,,,,,,,,,,,,,,11,,70,0
46319,note_on,,59,0,7,,,,,,,,,,,,,,,,10,,70,0
46319,note_on,,59,0,9,,,,,,,,,,,,,,,,13,,62,0
46319,note_on,,0,0,10,,,,,,,,,,,,,,,,15,,70,0
46319,note_on,,0,0,10,,,,,,,,,,,,,,,,15,,65,0
46319,note_on,,29,0,6,,,,,,,,,,,,,,,,5,,79,0
46319,note_on,,59,0,10,,,,,,,,,,,,,,,,15,,62,0
46320,note_on,,0,0,10,,,,,,,,,,,,,,,,15,,63,48
46320,note_on,,1,0,6,,,,,,,,,,,,,,,,5,,77,72
46320,note_on,,1,0,10,,,,,,,,,,,,,,,,15,,60,48
46320,note_on,,0,0,10,,,,,,,,,,,,,,,,15,,72,48
46320,note_on,,1,0,9,,,,,,,,,,,,,,,,13,,60,48
46320,note_on,,0,0,10,,,,,,,,,,,,,,,,15,,70,48
46349,note_on,,29,0,6,,,,,,,,,,,,,,,,5,,77,0
46350,note_on,,1,0,6,,,,,,,,,,,,,,,,5,,75,72
46364,note_on,,14,0,6,,,,,,,,,,,,,,,,5,,75,0
46365,note_on,,1,0,6,,,,,,,,,,,,,,,,5,,77,72
46379,note_on,,14,0,6,,,,,,,,,,,,,,,,5,,77,0
46380,note_on,,1,0,6,,,,,,,,,,,,,,,,5,,75,72
46380,note_on,,61,0,8,,,,,,,,,,,,,,,,11,,69,72
46380,note_on,,61,0,7,,,,,,,,,,,,,,,,10,,69,72
46394,note_on,,14,0,6,,,,,,,,,,,,,,,,5,,75,0
46395,note_on,,1,0,6,,,,,,,,,,,,,,,,5,,77,72
46409,note_on,,29,0,7,,,,,,,,,,,,,,,,10,,69,0
46409,note_on,,14,0,6,,,,,,,,,,,,,,,,5,,77,0
46409,note_on,,29,0,8,,,,,,,,,,,,,,,,11,,69,0
46410,note_on,,1,0,7,,,,,,,,,,,,,,,,10,,70,72
46410,note_on,,1,0,8,,,,,,,,,,,,,,,,11,,70,72
46410,note_on,,1,0,6,,,,,,,,,,,,,,,,5,,75,72
46424,note_on,,14,0,6,,,,,,,,,,,,,,,,5,,75,0
46425,note_on,,1,0,6,,,,,,,,,,,,,,,,5,,77,72
46439,note_on,,0,0,10,,,,,,,,,,,,,,,,15,,63,0
46439,note_on,,29,0,8,,,,,,,,,,,,,,,,11,,70,0
46439,note_on,,29,0,7,,,,,,,,,,,,,,,,10,,70,0
46439,note_on,,0,0,10,,,,,,,,,,,,,,,,15,,70,0
46439,note_on,,0,0,10,,,,,,,,,,,,,,,,15,,72,0
46439,note_on,,119,0,10,,,,,,,,,,,,,,,,15,,60,0
46439,note_on,,14,0,6,,,,,,,,,,,,,,,,5,,77,0
46439,note_on,,119,0,9,,,,,,,,,,,,,,,,13,,60,0
46440,note_on,,1,0,6,,,,,,,,,,,,,,,,5,,75,72
46440,note_on,,1,0,7,,,,,,,,,,,,,,,,10,,72,72
46440,note_on,,0,0,10,,,,,,,,,,,,,,,,15,,65,48
46440,note_on,,0,0,10,,,,,,,,,,,,,,,,15,,69,48
46440,note_on,,0,0,10,,,,,,,,,,,,,,,,15,,77,48
46440,note_on,,1,0,8,,,,,,,,,,,,,,,,11,,72,72
46440,note_on,,1,0,10,,,,,,,,,,,,,,,,15,,53,48
46440,note_on,,1,0,9,,,,,,,,,,,,,,,,13,,53,48
46454,note_on,,14,0,6,,,,,,,,,,,,,,,,5,,75,0
46455,note_on,,1,0,6,,,,,,,,,,,,,,,,5,,77,72
46469,note_on,,29,0,7,,,,,,,,,,,,,,,,10,,72,0
46469,note_on,,14,0,6,,,,,,,,,,,,,,,,5,,77,0
46469,note_on,,29,0,8,,,,,,,,,,,,,,,,11,,72,0
46470,note_on,,1,0,8,,,,,,,,,,,,,,,,11,,70,72
46470,note_on,,1,0,6,,,,,,,,,,,,,,,,5,,75,72
46470,note_on,,1,0,7,,,,,,,,,,,,,,,,10,,70,72
46484,note_on,,14,0,6,,,,,,,,,,,,,,,,5,,75,0
46485,note_on,,1,0,6,,,,,,,,,,,,,,,,5,,77,72
46499,note_on,,14,0,6,,,,,,,,,,,,,,,,5,,77,0
46499,note_on,,29,0,8,,,,,,,,,,,,,,,,11,,70,0
46499,note_on,,29,0,7,,,,,,,,,,,,,,,,10,,70,0
46500,note_on,,1,0,6,,,,,,,,,,,,,,,,5,,74,72
46500,note_on,,1,0,8,,,,,,,,,,,,,,,,11,,69,72
46500,note_on,,1,0,7,,,,,,,,,,,,,,,,10,,69,72
46559,note_on,,0,0,10,,,,,,,,,,,,,,,,15,,65,0
46559,note_on,,0,0,10,,,,,,,,,,,,,,,,15,,69,0
46559,note_on,,0,0,10,,,,,,,,,,,,,,,,15,,77,0
46559,note_on,,119,0,10,,,,,,,,,,,,,,,,15,,53,0
46559,note_on,,59,0,8,,,,,,,,,,,,,,,,11,,69,0
46559,note_on,,59,0,7,,,,,,,,,,,,,,,,10,,69,0
46559,note_on,,59,0,6,,,,,,,,,,,,,,,,5,,74,0
46559,note_on,,119,0,9,,,,,,,,,,,,,,,,13,,53,0
46560,note_on,,1,0,6,,,,,,,,,,,,,,,,5,,74,72
46560,note_on,,1,0,10,,,,,,,,,,,,,,,,15,,74,48
46560,note_on,,1,0,9,,,,,,,,,,,,,,,,13,,58,48
46560,note_on,,0,0,10,,,,,,,,,,,,,,,,15,,70,48
46560,note_on,,0,0,10,,,,,,,,,,,,,,,,15,,65,48
46560,note_on,,0,0,10,,,,,,,,,,,,,,,,15,,58,48
46620,note_on,,61,0,7,,,,,,,,,,,,,,,,10,,70,72
46620,note_on,,61,0,8,,,,,,,,,,,,,,,,11,,70,72
46649,note_on,,29,0,8,,,,,,,,,,,,,,,,11,,70,0
46649,note_on,,29,0,7,,,,,,,,,,,,,,,,10,,70,0
46650,note_on,,1,0,7,,,,,,,,,,,,,,,,10,,72,72
46650,note_on,,1,0,8,,,,,,,,,,,,,,,,11,,72,72
46679,note_on,,119,0,6,,,,,,,,,,,,,,,,5,,74,0
46679,note_on,,119,0,9,,,,,,,,,,,,,,,,13,,58,0
46679,note_on,,0,0,10,,,,,,,,,,,,,,,,15,,65,0
46679,note_on,,29,0,8,,,,,,,,,,,,,,,,11,,72,0
46679,note_on,,0,0,10,,,,,,,,,,,,,,,,15,,58,0
46679,note_on,,0,0,10,,,,,,,,,,,,,,,,15,,70,0
46679,note_on,,29,0,7,,,,,,,,,,,,,,,,10,,72,0
46679,note_on,,119,0,10,,,,,,,,,,,,,,,,15,,74,0
46680,note_on,,1,0,7,,,,,,,,,,,,,,,,10,,74,72
46680,note_on,,1,0,8,,,,,,,,,,,,,,,,11,,74,72
46709,note_on,,29,0,8,,,,,,,,,,,,,,,,11,,74,0
46709,note_on,,29,0,7,,,,,,,,,,,,,,,,10,,74,0
46710,note_on,,1,0,8,,,,,,,,,,,,,,,,11,,72,72
46710,note_on,,1,0,7,,,,,,,,,,,,,,,,10,,72,72
46739,note_on,,29,0,7,,,,,,,,,,,,,,,,10,,72,0
46739,note_on,,29,0,8,,,,,,,,,,,,,,,,11,,72,0
46740,note_on,,1,0,7,,,,,,,,,,,,,,,,10,,70,72
46740,set_tempo,,15780,1,0,,,,,,,,,600000,,,,,,,,,,
46740,note_on,,0,0,10,,,,,,,,,,,,,,,,15,,53,48
46740,note_on,,61,0,9,,,,,,,,,,,,,,,,13,,50,48
46740,note_on,,0,0,10,,,,,,,,,,,,,,,,15,,70,48
46740,note_on,,0,0,10,,,,,,,,,,,,,,,,15,,77,48
46740,note_on,,61,0,10,,,,,,,,,,,,,,,,15,,50,48
46740,note_on,,1,0,8,,,,,,,,,,,,,,,,11,,70,72
46740,note_on,,61,0,6,,,,,,,,,,,,,,,,5,,77,72
46740,note_on,,0,0,10,,,,,,,,,,,,,,,,15,,65,48
46799,note_on,,59,0,7,,,,,,,,,,,,,,,,10,,70,0
46799,note_on,,0,0,10,,,,,,,,,,,,,,,,15,,70,0
46799,note_on,,0,0,10,,,,,,,,,,,,,,,,15,,53,0
46799,note_on,,0,0,10,,,,,,,,,,,,,,,,15,,65,0
46799,note_on,,0,0,10,,,,,,,,,,,,,,,,15,,77,0
46799,note_on,,59,0,10,,,,,,,,,,,,,,,,15,,50,0
46799,note_on,,59,0,8,,,,,,,,,,,,,,,,11,,70,0
46799,note_on,,59,0,9,,,,,,,,,,,,,,,,13,,50,0
46799,note_on,,59,0,6,,,,,,,,,,,,,,,,5,,77,0
46800,note_on,,0,0,10,,,,,,,,,,,,,,,,15,,63,48
46800,note_on,,0,0,10,,,,,,,,,,,,,,,,15,,55,48
46800,note_on,,0,0,10,,,,,,,,,,,,,,,,15,,70,48
46800,note_on,,1,0,10,,,,,,,,,,,,,,,,15,,51,48
46800,note_on,,1,0,6,,,,,,,,,,,,,,,,5,,67,72
46800,note_on,,1,0,9,,,,,,,,,,,,,,,,13,,51,48
46800,note_on,,0,0,10,,,,,,,,,,,,,,,,15,,67,48
46919,note_on,,119,0,10,,,,,,,,,,,,,,,,15,,51,0
46919,note_on,,0,0,10,,,,,,,,,,,,,,,,15,,55,0
46919,note_on,,0,0,10,,,,,,,,,,,,,,,,15,,63,0
46919,note_on,,0,0,10,,,,,,,,,,,,,,,,15,,67,0
46919,note_on,,0,0,10,,,,,,,,,,,,,,,,15,,70,0
46919,note_on,,119,0,6,,,,,,,,,,,,,,,,5,,67,0
46919,note_on,,119,0,9,,,,,,,,,,,,,,,,13,,51,0
46920,note_on,,0,0,10,,,,,,,,,,,,,,,,15,,63,48
46920,note_on,,0,0,10,,,,,,,,,,,,,,,,15,,67,48
46920,note_on,,0,0,10,,,,,,,,,,,,,,,,15,,72,48
46920,note_on,,1,0,10,,,,,,,,,,,,,,,,15,,48,48
46920,note_on,,1,0,6,,,,,,,,,,,,,,,,5,,75,72
46920,note_on,,1,0,9,,,,,,,,,,,,,,,,13,,48,48
46920,note_on,,0,0,10,,,,,,,,,,,,,,,,15,,55,48
47009,note_on,,89,0,6,,,,,,,,,,,,,,,,5,,75,0
47010,note_on,,1,0,6,,,,,,,,,,,,,,,,5,,75,72
47039,note_on,,119,0,9,,,,,,,,,,,,,,,,13,,48,0
47039,note_on,,29,0,6,,,,,,,,,,,,,,,,5,,75,0
47039,note_on,,119,0,10,,,,,,,,,,,,,,,,15,,48,0
47039,note_on,,0,0,10,,,,,,,,,,,,,,,,15,,72,0
47039,note_on,,0,0,10,,,,,,,,,,,,,,,,15,,67,0
47039,note_on,,0,0,10,,,,,,,,,,,,,,,,15,,63,0
47039,note_on,,0,0,10,,,,,,,,,,,,,,,,15,,55,0
47040,note_on,,0,0,10,,,,,,,,,,,,,,,,15,,75,48
47040,note_on,,1,0,9,,,,,,,,,,,,,,,,13,,45,48
47040,note_on,,1,0,10,,,,,,,,,,,,,,,,15,,45,48
47040,note_on,,0,0,10,,,,,,,,,,,,,,,,15,,72,48
47040,note_on,,1,0,6,,,,,,,,,,,,,,,,5,,65,72
47040,note_on,,0,0,10,,,,,,,,,,,,,,,,15,,53,48
47040,note_on,,0,0,10,,,,,,,,,,,,,,,,15,,65,48
47159,note_on,,119,0,6,,,,,,,,,,,,,,,,5,,65,0
47159,note_on,,119,0,10,,,,,,,,,,,,,,,,15,,45,0
47159,note_on,,0,0,10,,,,,,,,,,,,,,,,15,,75,0
47159,note_on,,0,0,10,,,,,,,,,,,,,,,,15,,72,0
47159,note_on,,0,0,10,,,,,,,,,,,,,,,,15,,65,0
47159,note_on,,0,0,10,,,,,,,,,,,,,,,,15,,53,0
47159,note_on,,119,0,9,,,,,,,,,,,,,,,,13,,45,0
47160,note_on,,1,0,6,,,,,,,,,,,,,,,,5,,75,72
47189,note_on,,29,0,6,,,,,,,,,,,,,,,,5,,75,0
47190,note_on,,1,0,6,,,,,,,,,,,,,,,,5,,74,72
47219,note_on,,29,0,6,,,,,,,,,,,,,,,,5,,74,0
47220,note_on,,61,0,9,,,,,,,,,,,,,,,,13,,46,48
47220,note_on,,0,0,10,,,,,,,,,,,,,,,,15,,65,48
47220,note_on,,0,0,10,,,,,,,,,,,,,,,,15,,74,48
47220,note_on,,61,0,10,,,,,,,,,,,,,,,,15,,46,48
47220,note_on,,0,0,10,,,,,,,,,,,,,,,,15,,53,48
47220,note_on,,1,0,6,,,,,,,,,,,,,,,,5,,72,72
47249,note_on,,29,0,6,,,,,,,,,,,,,,,,5,,72,0
47250,note_on,,1,0,6,,,,,,,,,,,,,,,,5,,70,72
47264,note_on,,14,0,6,,,,,,,,,,,,,,,,5,,70,0
47265,note_on,,1,0,6,,,,,,,,,,,,,,,,5,,70,72
47279,note_on,,0,0,10,,,,,,,,,,,,,,,,15,,65,0
47279,note_on,,0,0,10,,,,,,,,,,,,,,,,15,,74,0
47279,note_on,,59,0,10,,,,,,,,,,,,,,,,15,,46,0
47279,note_on,,59,0,9,,,,,,,,,,,,,,,,13,,46,0
47279,note_on,,14,0,6,,,,,,,,,,,,,,,,5,,70,0
47279,note_on,,0,0,10,,,,,,,,,,,,,,,,15,,53,0
47280,note_on,,1,0,6,,,,,,,,,,,,,,,,5,,69,72
47280,note_on,,1,0,9,,,,,,,,,,,,,,,,13,,53,48
47280,note_on,,0,0,10,,,,,,,,,,,,,,,,15,,72,48
47280,note_on,,0,0,10,,,,,,,,,,,,,,,,15,,65,48
47280,note_on,,0,0,10,,,,,,,,,,,,,,,,15,,57,48
47280,note_on,,1,0,10,,,,,,,,,,,,,,,,15,,53,48
47294,note_on,,14,0,6,,,,,,,,,,,,,,,,5,,69,0
47295,note_on,,1,0,6,,,,,,,,,,,,,,,,5,,70,72
47309,note_on,,14,0,6,,,,,,,,,,,,,,,,5,,70,0
47310,note_on,,1,0,6,,,,,,,,,,,,,,,,5,,69,72
47324,note_on,,14,0,6,,,,,,,,,,,,,,,,5,,69,0
47325,note_on,,1,0,6,,,,,,,,,,,,,,,,5,,70,72
47339,note_on,,14,0,6,,,,,,,,,,,,,,,,5,,70,0
47340,note_on,,1,0,6,,,,,,,,,,,,,,,,5,,69,72
47354,note_on,,14,0,6,,,,,,,,,,,,,,,,5,,69,0
47355,note_on,,1,0,6,,,,,,,,,,,,,,,,5,,70,72
47369,note_on,,14,0,6,,,,,,,,,,,,,,,,5,,70,0
47370,note_on,,1,0,6,,,,,,,,,,,,,,,,5,,69,72
47384,note_on,,14,0,6,,,,,,,,,,,,,,,,5,,69,0
47385,note_on,,1,0,6,,,,,,,,,,,,,,,,5,,70,72
47399,note_on,,14,0,6,,,,,,,,,,,,,,,,5,,70,0
47399,note_on,,0,0,10,,,,,,,,,,,,,,,,15,,57,0
47399,note_on,,119,0,10,,,,,,,,,,,,,,,,15,,53,0
47399,note_on,,0,0,10,,,,,,,,,,,,,,,,15,,65,0
47399,note_on,,119,0,9,,,,,,,,,,,,,,,,13,,53,0
47400,note_on,,1,0,9,,,,,,,,,,,,,,,,13,,41,48
47400,note_on,,0,0,10,,,,,,,,,,,,,,,,15,,53,48
47400,note_on,,0,0,10,,,,,,,,,,,,,,,,15,,60,48
47400,note_on,,0,0,10,,,,,,,,,,,,,,,,15,,69,48
47400,note_on,,1,0,10,,,,,,,,,,,,,,,,15,,41,48
47400,note_on,,1,0,6,,,,,,,,,,,,,,,,5,,69,72
47414,note_on,,14,0,6,,,,,,,,,,,,,,,,5,,69,0
47415,note_on,,1,0,6,,,,,,,,,,,,,,,,5,,70,72
47429,note_on,,14,0,6,,,,,,,,,,,,,,,,5,,70,0
47430,note_on,,1,0,6,,,,,,,,,,,,,,,,5,,69,72
47444,note_on,,14,0,6,,,,,,,,,,,,,,,,5,,69,0
47445,note_on,,1,0,6,,,,,,,,,,,,,,,,5,,70,72
47459,note_on,,14,0,6,,,,,,,,,,,,,,,,5,,70,0
47460,note_on,,1,0,6,,,,,,,,,,,,,,,,5,,70,72
47519,note_on,,119,0,9,,,,,,,,,,,,,,,,13,,41,0
47519,note_on,,59,0,6,,,,,,,,,,,,,,,,5,,70,0
47519,note_on,,0,0,10,,,,,,,,,,,,,,,,15,,53,0
47519,note_on,,0,0,10,,,,,,,,,,,,,,,,15,,60,0
47519,note_on,,0,0,10,,,,,,,,,,,,,,,,15,,69,0
47519,note_on,,0,0,10,,,,,,,,,,,,,,,,15,,41,0
47519,note_on,,119,0,10,,,,,,,,,,,,,,,,15,,72,0
47520,note_on,,0,0,10,,,,,,,,,,,,,,,,15,,70,48
47520,note_on,,1,0,10,,,,,,,,,,,,,,,,15,,46,48
47520,note_on,,1,0,6,,,,,,,,,,,,,,,,5,,70,72
47520,note_on,,1,0,9,,,,,,,,,,,,,,,,13,,46,48
47520,note_on,,0,0,10,,,,,,,,,,,,,,,,15,,53,48
47520,note_on,,0,0,10,,,,,,,,,,,,,,,,15,,65,48
47520,note_on,,0,0,10,,,,,,,,,,,,,,,,15,,62,48
47639,note_on,,119,0,9,,,,,,,,,,,,,,,,13,,46,0
47639,end_of_track,,0,1,6,,,,,,,,,,,,,,,,,,,
47639,note_on,,0,0,10,,,,,,,,,,,,,,,,15,,53,0
47639,note_on,,119,0,10,,,,,,,,,,,,,,,,15,,46,0
47639,note_on,,119,0,6,,,,,,,,,,,,,,,,5,,70,0
47640,note_on,,3841,0,5,,,,,,,,,,,,,,,,2,,58,72
47640,set_tempo,,900,1,0,,,,,,,,,500000,,,,,,,,,,
47640,note_on,,1,0,10,,,,,,,,,,,,,,,,15,,58,72
47640,note_on,,1,0,9,,,,,,,,,,,,,,,,13,,58,72
47700,note_on,,901,0,7,,,,,,,,,,,,,,,,10,,65,72
47700,note_on,,901,0,8,,,,,,,,,,,,,,,,11,,65,72
47759,note_on,,59,0,7,,,,,,,,,,,,,,,,10,,65,0
47759,note_on,,119,0,5,,,,,,,,,,,,,,,,2,,58,0
47759,note_on,,119,0,9,,,,,,,,,,,,,,,,13,,58,0
47759,note_on,,59,0,8,,,,,,,,,,,,,,,,11,,65,0
47759,note_on,,0,0,10,,,,,,,,,,,,,,,,15,,65,0
47759,note_on,,0,0,10,,,,,,,,,,,,,,,,15,,58,0
47759,note_on,,0,0,10,,,,,,,,,,,,,,,,15,,62,0
47759,note_on,,119,0,10,,,,,,,,,,,,,,,,15,,70,0
47760,note_on,,1,0,5,,,,,,,,,,,,,,,,2,,62,72
47760,note_on,,1,0,10,,,,,,,,,,,,,,,,15,,62,72
47760,note_on,,0,0,10,,,,,,,,,,,,,,,,15,,77,72
47760,note_on,,0,0,10,,,,,,,,,,,,,,,,15,,65,72
47760,note_on,,1,0,9,,,,,,,,,,,,,,,,13,,62,72
47760,note_on,,0,0,10,,,,,,,,,,,,,,,,15,,70,72
47760,note_on,,1,0,8,,,,,,,,,,,,,,,,11,,70,72
47760,note_on,,1,0,7,,,,,,,,,,,,,,,,10,,70,72
47819,note_on,,59,0,7,,,,,,,,,,,,,,,,10,,70,0
47819,note_on,,59,0,8,,,,,,,,,,,,,,,,11,,70,0
47820,note_on,,1,0,7,,,,,,,,,,,,,,,,10,,65,72
47820,note_on,,1,0,8,,,,,,,,,,,,,,,,11,,65,72
47879,note_on,,119,0,9,,,,,,,,,,,,,,,,13,,62,0
47879,note_on,,0,0,10,,,,,,,,,,,,,,,,15,,65,0
47879,note_on,,0,0,10,,,,,,,,,,,,,,,,15,,70,0
47879,note_on,,0,0,10,,,,,,,,,,,,,,,,15,,77,0
47879,note_on,,119,0,10,,,,,,,,,,,,,,,,15,,62,0
47879,note_on,,59,0,7,,,,,,,,,,,,,,,,10,,65,0
47879,note_on,,59,0,8,,,,,,,,,,,,,,,,11,,65,0
47879,note_on,,119,0,5,,,,,,,,,,,,,,,,2,,62,0
47880,note_on,,1,0,5,,,,,,,,,,,,,,,,2,,58,72
47880,note_on,,0,0,10,,,,,,,,,,,,,,,,15,,70,72
47880,note_on,,0,0,10,,,,,,,,,,,,,,,,15,,65,72
47880,note_on,,1,0,9,,,,,,,,,,,,,,,,13,,58,72
47880,note_on,,1,0,10,,,,,,,,,,,,,,,,15,,58,72
47880,note_on,,0,0,10,,,,,,,,,,,,,,,,15,,74,72
47910,note_on,,31,0,7,,,,,,,,,,,,,,,,10,,65,72
47910,note_on,,31,0,8,,,,,,,,,,,,,,,,11,,65,72
47939,note_on,,29,0,7,,,,,,,,,,,,,,,,10,,65,0
47939,note_on,,29,0,8,,,,,,,,,,,,,,,,11,,65,0
47940,note_on,,1,0,8,,,,,,,,,,,,,,,,11,,67,72
47940,note_on,,1,0,7,,,,,,,,,,,,,,,,10,,67,72
47969,note_on,,29,0,8,,,,,,,,,,,,,,,,11,,67,0
47969,note_on,,29,0,7,,,,,,,,,,,,,,,,10,,67,0
47970,note_on,,1,0,8,,,,,,,,,,,,,,,,11,,65,72
47970,note_on,,1,0,7,,,,,,,,,,,,,,,,10,,65,72
47999,note_on,,0,0,10,,,,,,,,,,,,,,,,15,,65,0
47999,note_on,,0,0,10,,,,,,,,,,,,,,,,15,,70,0
47999,note_on,,29,0,7,,,,,,,,,,,,,,,,10,,65,0
47999,note_on,,0,0,10,,,,,,,,,,,,,,,,15,,74,0
47999,note_on,,119,0,10,,,,,,,,,,,,,,,,15,,58,0
47999,note_on,,119,0,5,,,,,,,,,,,,,,,,2,,58,0
47999,note_on,,119,0,9,,,,,,,,,,,,,,,,13,,58,0
47999,note_on,,29,0,8,,,,,,,,,,,,,,,,11,,65,0
48000,note_on,,1,0,10,,,,,,,,,,,,,,,,15,,57,72
48000,note_on,,1,0,7,,,,,,,,,,,,,,,,10,,72,72
48000,note_on,,0,0,10,,,,,,,,,,,,,,,,15,,72,72
48000,note_on,,0,0,10,,,,,,,,,,,,,,,,15,,65,72
48000,note_on,,1,0,9,,,,,,,,,,,,,,,,13,,57,72
48000,note_on,,1,0,8,,,,,,,,,,,,,,,,11,,72,72
48000,note_on,,1,0,5,,,,,,,,,,,,,,,,2,,57,72
48059,note_on,,59,0,7,,,,,,,,,,,,,,,,10,,72,0
48059,note_on,,59,0,8,,,,,,,,,,,,,,,,11,,72,0
48060,note_on,,1,0,7,,,,,,,,,,,,,,,,10,,65,72
48060,note_on,,1,0,8,,,,,,,,,,,,,,,,11,,65,72
48119,note_on,,59,0,8,,,,,,,,,,,,,,,,11,,65,0
48119,note_on,,119,0,9,,,,,,,,,,,,,,,,13,,57,0
48119,note_on,,0,0,10,,,,,,,,,,,,,,,,15,,72,0
48119,note_on,,0,0,10,,,,,,,,,,,,,,,,15,,65,0
48119,note_on,,119,0,10,,,,,,,,,,,,,,,,15,,57,0
48119,note_on,,59,0,7,,,,,,,,,,,,,,,,10,,65,0
48119,note_on,,119,0,5,,,,,,,,,,,,,,,,2,,57,0
48120,note_on,,0,0,10,,,,,,,,,,,,,,,,15,,65,72
48120,note_on,,1,0,10,,,,,,,,,,,,,,,,15,,53,72
48120,note_on,,0,0,10,,,,,,,,,,,,,,,,15,,60,72
48120,note_on,,1,0,9,,,,,,,,,,,,,,,,13,,53,72
48120,note_on,,1,0,5,,,,,,,,,,,,,,,,2,,53,72
48120,note_on,,0,0,10,,,,,,,,,,,,,,,,15,,69,72
48150,note_on,,31,0,7,,,,,,,,,,,,,,,,10,,72,72
48150,note_on,,31,0,8,,,,,,,,,,,,,,,,11,,72,72
48179,note_on,,29,0,7,,,,,,,,,,,,,,,,10,,72,0
48179,note_on,,29,0,8,,,,,,,,,,,,,,,,11,,72,0
48180,note_on,,1,0,8,,,,,,,,,,,,,,,,11,,74,72
48180,note_on,,1,0,7,,,,,,,,,,,,,,,,10,,74,72
48209,note_on,,29,0,8,,,,,,,,,,,,,,,,11,,74,0
48209,note_on,,29,0,7,,,,,,,,,,,,,,,,10,,74,0
48210,note_on,,1,0,8,,,,,,,,,,,,,,,,11,,72,72
48210,note_on,,1,0,7,,,,,,,,,,,,,,,,10,,72,72
48239,note_on,,0,0,10,,,,,,,,,,,,,,,,15,,69,0
48239,note_on,,29,0,7,,,,,,,,,,,,,,,,10,,72,0
48239,note_on,,119,0,9,,,,,,,,,,,,,,,,13,,53,0
48239,note_on,,0,0,10,,,,,,,,,,,,,,,,15,,65,0
48239,note_on,,0,0,10,,,,,,,,,,,,,,,,15,,60,0
48239,note_on,,119,0,10,,,,,,,,,,,,,,,,15,,53,0
48239,note_on,,119,0,5,,,,,,,,,,,,,,,,2,,53,0
48239,note_on,,29,0,8,,,,,,,,,,,,,,,,11,,72,0
48240,note_on,,0,0,10,,,,,,,,,,,,,,,,15,,70,72
48240,note_on,,1,0,5,,,,,,,,,,,,,,,,2,,58,72
48240,note_on,,1,0,7,,,,,,,,,,,,,,,,10,,74,72
48240,note_on,,1,0,9,,,,,,,,,,,,,,,,13,,58,72
48240,note_on,,1,0,8,,,,,,,,,,,,,,,,11,,74,72
48240,note_on,,1,0,10,,,,,,,,,,,,,,,,15,,58,72
48240,note_on,,0,0,10,,,,,,,,,,,,,,,,15,,62,72
48240,note_on,,0,0,10,,,,,,,,,,,,,,,,15,,65,72
48269,note_on,,29,0,8,,,,,,,,,,,,,,,,11,,74,0
48269,note_on,,29,0,7,,,,,,,,,,,,,,,,10,,74,0
48270,note_on,,1,0,8,,,,,,,,,,,,,,,,11,,65,72
48270,note_on,,1,0,7,,,,,,,,,,,,,,,,10,,65,72
48299,note_on,,29,0,7,,,,,,,,,,,,,,,,10,,65,0
48299,note_on,,29,0,8,,,,,,,,,,,,,,,,11,,65,0
48300,note_on,,1,0,7,,,,,,,,,,,,,,,,10,,67,72
48300,note_on,,1,0,8,,,,,,,,,,,,,,,,11,,67,72
48329,note_on,,29,0,8,,,,,,,,,,,,,,,,11,,67,0
48329,note_on,,29,0,7,,,,,,,,,,,,,,,,10,,67,0
48330,note_on,,1,0,7,,,,,,,,,,,,,,,,10,,69,72
48330,note_on,,1,0,8,,,,,,,,,,,,,,,,11,,69,72
48359,note_on,,119,0,5,,,,,,,,,,,,,,,,2,,58,0
48359,note_on,,29,0,7,,,,,,,,,,,,,,,,10,,69,0
48359,note_on,,119,0,9,,,,,,,,,,,,,,,,13,,58,0
48359,note_on,,0,0,10,,,,,,,,,,,,,,,,15,,62,0
48359,note_on,,0,0,10,,,,,,,,,,,,,,,,15,,65,0
48359,note_on,,29,0,8,,,,,,,,,,,,,,,,11,,69,0
48359,note_on,,0,0,10,,,,,,,,,,,,,,,,15,,70,0
48359,note_on,,119,0,10,,,,,,,,,,,,,,,,15,,58,0
48360,note_on,,1,0,7,,,,,,,,,,,,,,,,10,,70,72
48360,note_on,,0,0,10,,,,,,,,,,,,,,,,15,,58,72
48360,note_on,,0,0,10,,,,,,,,,,,,,,,,15,,70,72
48360,note_on,,0,0,10,,,,,,,,,,,,,,,,15,,79,72
48360,note_on,,1,0,10,,,,,,,,,,,,,,,,15,,55,72
48360,note_on,,1,0,9,,,,,,,,,,,,,,,,13,,55,72
48360,note_on,,1,0,8,,,,,,,,,,,,,,,,11,,70,72
48360,note_on,,1,0,5,,,,,,,,,,,,,,,,2,,55,72
48389,note_on,,29,0,7,,,,,,,,,,,,,,,,10,,70,0
48389,note_on,,29,0,8,,,,,,,,,,,,,,,,11,,70,0
48390,note_on,,1,0,8,,,,,,,,,,,,,,,,11,,72,72
48390,note_on,,1,0,7,,,,,,,,,,,,,,,,10,,72,72
48419,note_on,,29,0,8,,,,,,,,,,,,,,,,11,,72,0
48419,note_on,,29,0,7,,,,,,,,,,,,,,,,10,,72,0
48420,note_on,,1,0,8,,,,,,,,,,,,,,,,11,,74,72
48420,note_on,,1,0,7,,,,,,,,,,,,,,,,10,,74,72
48449,note_on,,29,0,8,,,,,,,,,,,,,,,,11,,74,0
48449,note_on,,29,0,7,,,,,,,,,,,,,,,,10,,74,0
48450,note_on,,1,0,7,,,,,,,,,,,,,,,,10,,76,72
48450,note_on,,1,0,8,,,,,,,,,,,,,,,,11,,76,72
48479,note_on,,119,0,5,,,,,,,,,,,,,,,,2,,55,0
48479,note_on,,119,0,9,,,,,,,,,,,,,,,,13,,55,0
48479,note_on,,29,0,7,,,,,,,,,,,,,,,,10,,76,0
48479,note_on,,0,0,10,,,,,,,,,,,,,,,,15,,70,0
48479,note_on,,29,0,8,,,,,,,,,,,,,,,,11,,76,0
48479,note_on,,0,0,10,,,,,,,,,,,,,,,,15,,58,0
48479,note_on,,0,0,10,,,,,,,,,,,,,,,,15,,79,0
48479,note_on,,119,0,10,,,,,,,,,,,,,,,,15,,55,0
48480,note_on,,0,0,10,,,,,,,,,,,,,,,,15,,60,72
48480,note_on,,1,0,7,,,,,,,,,,,,,,,,10,,77,72
48480,note_on,,1,0,8,,,,,,,,,,,,,,,,11,,77,72
48480,note_on,,1,0,9,,,,,,,,,,,,,,,,13,,53,72
48480,note_on,,0,0,10,,,,,,,,,,,,,,,,15,,72,72
48480,note_on,,1,0,10,,,,,,,,,,,,,,,,15,,53,72
48480,note_on,,1,0,5,,,,,,,,,,,,,,,,2,,53,72
48480,note_on,,0,0,10,,,,,,,,,,,,,,,,15,,65,72
48480,note_on,,0,0,10,,,,,,,,,,,,,,,,15,,69,72
48539,note_on,,59,0,7,,,,,,,,,,,,,,,,10,,77,0
48539,note_on,,59,0,8,,,,,,,,,,,,,,,,11,,77,0
48540,note_on,,1,0,8,,,,,,,,,,,,,,,,11,,65,72
48540,note_on,,1,0,7,,,,,,,,,,,,,,,,10,,65,72
48599,note_on,,119,0,9,,,,,,,,,,,,,,,,13,,53,0
48599,note_on,,119,0,5,,,,,,,,,,,,,,,,2,,53,0
48599,note_on,,59,0,7,,,,,,,,,,,,,,,,10,,65,0
48599,note_on,,119,0,10,,,,,,,,,,,,,,,,15,,53,0
48599,note_on,,0,0,10,,,,,,,,,,,,,,,,15,,72,0
48599,note_on,,0,0,10,,,,,,,,,,,,,,,,15,,69,0
48599,note_on,,0,0,10,,,,,,,,,,,,,,,,15,,65,0
48599,note_on,,0,0,10,,,,,,,,,,,,,,,,15,,60,0
48599,note_on,,59,0,8,,,,,,,,,,,,,,,,11,,65,0
48600,note_on,,1,0,10,,,,,,,,,,,,,,,,15,,51,72
48600,note_on,,0,0,10,,,,,,,,,,,,,,,,15,,69,72
48600,note_on,,1,0,9,,,,,,,,,,,,,,,,13,,51,72
48600,note_on,,0,0,10,,,,,,,,,,,,,,,,15,,60,72
48600,note_on,,0,0,10,,,,,,,,,,,,,,,,15,,53,72
48600,note_on,,1,0,5,,,,,,,,,,,,,,,,2,,51,72
48600,note_on,,0,0,10,,,,,,,,,,,,,,,,15,,65,72
48630,note_on,,31,0,8,,,,,,,,,,,,,,,,11,,65,72
48630,note_on,,31,0,7,,,,,,,,,,,,,,,,10,,65,72
48659,note_on,,29,0,8,,,,,,,,,,,,,,,,11,,65,0
48659,note_on,,29,0,7,,,,,,,,,,,,,,,,10,,65,0
48660,note_on,,1,0,8,,,,,,,,,,,,,,,,11,,69,72
48660,note_on,,1,0,7,,,,,,,,,,,,,,,,10,,69,72
48689,note_on,,29,0,8,,,,,,,,,,,,,,,,11,,69,0
48689,note_on,,29,0,7,,,,,,,,,,,,,,,,10,,69,0
48690,note_on,,1,0,8,,,,,,,,,,,,,,,,11,,72,72
48690,note_on,,1,0,7,,,,,,,,,,,,,,,,10,,72,72
48719,note_on,,119,0,9,,,,,,,,,,,,,,,,13,,51,0
48719,note_on,,119,0,5,,,,,,,,,,,,,,,,2,,51,0
48719,note_on,,29,0,7,,,,,,,,,,,,,,,,10,,72,0
48719,note_on,,119,0,10,,,,,,,,,,,,,,,,15,,51,0
48719,note_on,,0,0,10,,,,,,,,,,,,,,,,15,,69,0
48719,note_on,,0,0,10,,,,,,,,,,,,,,,,15,,65,0
48719,note_on,,29,0,8,,,,,,,,,,,,,,,,11,,72,0
48719,note_on,,0,0,10,,,,,,,,,,,,,,,,15,,60,0
48720,note_on,,0,0,10,,,,,,,,,,,,,,,,15,,65,72
48720,note_on,,1,0,9,,,,,,,,,,,,,,,,13,,50,72
48720,note_on,,0,0,10,,,,,,,,,,,,,,,,15,,70,72
48720,note_on,,1,0,8,,,,,,,,,,,,,,,,11,,77,72
48720,note_on,,1,0,7,,,,,,,,,,,,,,,,10,,77,72
48720,note_on,,1,0,10,,,,,,,,,,,,,,,,15,,50,72
48720,note_on,,0,0,10,,,,,,,,,,,,,,,,15,,62,72
48720,note_on,,1,0,5,,,,,,,,,,,,,,,,2,,50,72
48779,note_on,,59,0,8,,,,,,,,,,,,,,,,11,,77,0
48779,note_on,,59,0,7,,,,,,,,,,,,,,,,10,,77,0
48780,note_on,,1,0,8,,,,,,,,,,,,,,,,11,,70,72
48780,note_on,,1,0,7,,,,,,,,,,,,,,,,10,,70,72
48839,note_on,,0,0,10,,,,,,,,,,,,,,,,15,,62,0
48839,note_on,,119,0,9,,,,,,,,,,,,,,,,13,,50,0
48839,note_on,,119,0,10,,,,,,,,,,,,,,,,15,,53,0
48839,note_on,,119,0,5,,,,,,,,,,,,,,,,2,,50,0
48839,note_on,,0,0,10,,,,,,,,,,,,,,,,15,,50,0
48839,note_on,,0,0,10,,,,,,,,,,,,,,,,15,,70,0
48839,note_on,,0,0,10,,,,,,,,,,,,,,,,15,,65,0
48839,note_on,,59,0,8,,,,,,,,,,,,,,,,11,,70,0
48839,note_on,,59,0,7,,,,,,,,,,,,,,,,10,,70,0
48840,note_on,,0,0,10,,,,,,,,,,,,,,,,15,,72,72
48840,note_on,,0,0,10,,,,,,,,,,,,,,,,15,,65,72
48840,note_on,,0,0,10,,,,,,,,,,,,,,,,15,,60,72
48840,note_on,,0,0,10,,,,,,,,,,,,,,,,15,,53,72
48840,note_on,,1,0,9,,,,,,,,,,,,,,,,13,,45,72
48840,note_on,,1,0,7,,,,,,,,,,,,,,,,10,,75,72
48840,note_on,,1,0,10,,,,,,,,,,,,,,,,15,,45,72
48840,note_on,,1,0,5,,,,,,,,,,,,,,,,2,,45,72
48840,note_on,,1,0,8,,,,,,,,,,,,,,,,11,,75,72
48899,note_on,,59,0,7,,,,,,,,,,,,,,,,10,,75,0
48899,note_on,,59,0,8,,,,,,,,,,,,,,,,11,,75,0
48900,note_on,,1,0,7,,,,,,,,,,,,,,,,10,,74,72
48900,note_on,,1,0,8,,,,,,,,,,,,,,,,11,,74,72
48929,note_on,,29,0,7,,,,,,,,,,,,,,,,10,,74,0
48929,note_on,,29,0,8,,,,,,,,,,,,,,,,11,,74,0
48930,note_on,,1,0,7,,,,,,,,,,,,,,,,10,,72,72
48930,note_on,,1,0,8,,,,,,,,,,,,,,,,11,,72,72
48959,note_on,,0,0,10,,,,,,,,,,,,,,,,15,,60,0
48959,note_on,,119,0,10,,,,,,,,,,,,,,,,15,,45,0
48959,note_on,,0,0,10,,,,,,,,,,,,,,,,15,,72,0
48959,note_on,,0,0,10,,,,,,,,,,,,,,,,15,,65,0
48959,note_on,,0,0,10,,,,,,,,,,,,,,,,15,,53,0
48959,note_on,,29,0,8,,,,,,,,,,,,,,,,11,,72,0
48959,note_on,,29,0,7,,,,,,,,,,,,,,,,10,,72,0
48959,note_on,,119,0,5,,,,,,,,,,,,,,,,2,,45,0
48959,note_on,,119,0,9,,,,,,,,,,,,,,,,13,,45,0
48960,note_on,,1,0,10,,,,,,,,,,,,,,,,15,,46,72
48960,note_on,,0,0,10,,,,,,,,,,,,,,,,15,,62,72
48960,note_on,,1,0,7,,,,,,,,,,,,,,,,10,,74,72
48960,note_on,,1,0,9,,,,,,,,,,,,,,,,13,,46,72
48960,note_on,,0,0,10,,,,,,,,,,,,,,,,15,,53,72
48960,note_on,,0,0,10,,,,,,,,,,,,,,,,15,,65,72
48960,note_on,,0,0,10,,,,,,,,,,,,,,,,15,,70,72
48960,note_on,,1,0,8,,,,,,,,,,,,,,,,11,,74,72
48960,note_on,,1,0,5,,,,,,,,,,,,,,,,2,,46,72
49019,note_on,,59,0,7,,,,,,,,,,,,,,,,10,,74,0
49019,note_on,,59,0,8,,,,,,,,,,,,,,,,11,,74,0
49020,note_on,,1,0,7,,,,,,,,,,,,,,,,10,,72,72
49020,note_on,,1,0,8,,,,,,,,,,,,,,,,11,,72,72
49049,note_on,,29,0,7,,,,,,,,,,,,,,,,10,,72,0
49049,note_on,,29,0,8,,,,,,,,,,,,,,,,11,,72,0
49050,note_on,,1,0,8,,,,,,,,,,,,,,,,11,,70,72
49050,note_on,,1,0,7,,,,,,,,,,,,,,,,10,,70,72
49079,note_on,,119,0,5,,,,,,,,,,,,,,,,2,,46,0
49079,note_on,,29,0,7,,,,,,,,,,,,,,,,10,,70,0
49079,note_on,,119,0,10,,,,,,,,,,,,,,,,15,,46,0
49079,note_on,,0,0,10,,,,,,,,,,,,,,,,15,,65,0
49079,note_on,,0,0,10,,,,,,,,,,,,,,,,15,,62,0
49079,note_on,,0,0,10,,,,,,,,,,,,,,,,15,,53,0
49079,note_on,,29,0,8,,,,,,,,,,,,,,,,11,,70,0
49079,note_on,,119,0,9,,,,,,,,,,,,,,,,13,,46,0
49079,note_on,,0,0,10,,,,,,,,,,,,,,,,15,,70,0
49080,note_on,,1,0,10,,,,,,,,,,,,,,,,15,,53,72
49080,note_on,,0,0,10,,,,,,,,,,,,,,,,15,,69,72
49080,note_on,,0,0,10,,,,,,,,,,,,,,,,15,,65,72
49080,note_on,,1,0,7,,,,,,,,,,,,,,,,10,,72,72
49080,note_on,,0,0,10,,,,,,,,,,,,,,,,15,,60,72
49080,note_on,,1,0,9,,,,,,,,,,,,,,,,13,,53,72
49080,note_on,,1,0,8,,,,,,,,,,,,,,,,11,,72,72
49080,note_on,,1,0,5,,,,,,,,,,,,,,,,2,,53,72
49139,note_on,,59,0,7,,,,,,,,,,,,,,,,10,,72,0
49139,note_on,,59,0,8,,,,,,,,,,,,,,,,11,,72,0
49140,note_on,,1,0,7,,,,,,,,,,,,,,,,10,,70,72
49140,note_on,,1,0,8,,,,,,,,,,,,,,,,11,,70,72
49169,note_on,,29,0,7,,,,,,,,,,,,,,,,10,,70,0
49169,note_on,,29,0,8,,,,,,,,,,,,,,,,11,,70,0
49170,note_on,,1,0,8,,,,,,,,,,,,,,,,11,,69,72
49170,note_on,,1,0,7,,,,,,,,,,,,,,,,10,,69,72
49199,note_on,,0,0,10,,,,,,,,,,,,,,,,15,,65,0
49199,note_on,,29,0,7,,,,,,,,,,,,,,,,10,,69,0
49199,note_on,,119,0,10,,,,,,,,,,,,,,,,15,,69,0
49199,note_on,,0,0,10,,,,,,,,,,,,,,,,15,,60,0
49199,note_on,,29,0,8,,,,,,,,,,,,,,,,11,,69,0
49200,note_on,,1,0,8,,,,,,,,,,,,,,,,11,,70,72
49200,note_on,,0,0,10,,,,,,,,,,,,,,,,15,,62,72
49200,note_on,,0,0,10,,,,,,,,,,,,,,,,15,,58,72
49200,note_on,,1,0,7,,,,,,,,,,,,,,,,10,,70,72
49200,note_on,,1,0,10,,,,,,,,,,,,,,,,15,,67,72
49259,note_on,,59,0,8,,,,,,,,,,,,,,,,11,,70,0
49259,note_on,,59,0,7,,,,,,,,,,,,,,,,10,,70,0
49260,note_on,,1,0,7,,,,,,,,,,,,,,,,10,,67,72
49260,note_on,,1,0,8,,,,,,,,,,,,,,,,11,,67,72
49319,note_on,,119,0,10,,,,,,,,,,,,,,,,15,,53,0
49319,note_on,,0,0,10,,,,,,,,,,,,,,,,15,,62,0
49319,note_on,,239,0,9,,,,,,,,,,,,,,,,13,,53,0
49319,note_on,,239,0,5,,,,,,,,,,,,,,,,2,,53,0
49319,note_on,,59,0,8,,,,,,,,,,,,,,,,11,,67,0
49319,note_on,,59,0,7,,,,,,,,,,,,,,,,10,,67,0
49319,note_on,,0,0,10,,,,,,,,,,,,,,,,15,,58,0
49320,note_on,,1,0,10,,,,,,,,,,,,,,,,15,,51,72
49320,note_on,,0,0,10,,,,,,,,,,,,,,,,15,,60,72
49320,note_on,,0,0,10,,,,,,,,,,,,,,,,15,,55,72
49320,note_on,,1,0,5,,,,,,,,,,,,,,,,2,,51,72
49320,note_on,,1,0,9,,,,,,,,,,,,,,,,13,,51,72
49320,note_on,,1,0,8,,,,,,,,,,,,,,,,11,,72,72
49320,note_on,,1,0,7,,,,,,,,,,,,,,,,10,,72,72
49379,note_on,,59,0,8,,,,,,,,,,,,,,,,11,,72,0
49379,note_on,,59,0,7,,,,,,,,,,,,,,,,10,,72,0
49380,note_on,,1,0,7,,,,,,,,,,,,,,,,10,,70,72
49380,note_on,,1,0,8,,,,,,,,,,,,,,,,11,,70,72
49439,note_on,,119,0,10,,,,,,,,,,,,,,,,15,,67,0
49439,note_on,,0,0,10,,,,,,,,,,,,,,,,15,,60,0
49439,note_on,,59,0,7,,,,,,,,,,,,,,,,10,,70,0
49439,note_on,,0,0,10,,,,,,,,,,,,,,,,15,,55,0
49439,note_on,,59,0,8,,,,,,,,,,,,,,,,11,,70,0
49440,note_on,,0,0,10,,,,,,,,,,,,,,,,15,,57,72
49440,note_on,,1,0,8,,,,,,,,,,,,,,,,11,,69,72
49440,note_on,,1,0,10,,,,,,,,,,,,,,,,15,,65,72
49440,note_on,,0,0,10,,,,,,,,,,,,,,,,15,,60,72
49440,note_on,,1,0,7,,,,,,,,,,,,,,,,10,,69,72
49469,note_on,,29,0,7,,,,,,,,,,,,,,,,10,,69,0
49469,note_on,,29,0,8,,,,,,,,,,,,,,,,11,,69,0
49470,note_on,,1,0,8,,,,,,,,,,,,,,,,11,,67,72
49470,note_on,,1,0,7,,,,,,,,,,,,,,,,10,,67,72
49499,note_on,,29,0,8,,,,,,,,,,,,,,,,11,,67,0
49499,note_on,,29,0,7,,,,,,,,,,,,,,,,10,,67,0
49500,note_on,,1,0,8,,,,,,,,,,,,,,,,11,,65,72
49500,note_on,,1,0,7,,,,,,,,,,,,,,,,10,,65,72
49559,note_on,,0,0,10,,,,,,,,,,,,,,,,15,,60,0
49559,note_on,,0,0,10,,,,,,,,,,,,,,,,15,,57,0
49559,note_on,,239,0,5,,,,,,,,,,,,,,,,2,,51,0
49559,note_on,,59,0,8,,,,,,,,,,,,,,,,11,,65,0
49559,note_on,,239,0,9,,,,,,,,,,,,,,,,13,,51,0
49559,note_on,,119,0,10,,,,,,,,,,,,,,,,15,,51,0
49559,note_on,,59,0,7,,,,,,,,,,,,,,,,10,,65,0
49560,note_on,,1,0,10,,,,,,,,,,,,,,,,15,,50,72
49560,note_on,,1,0,9,,,,,,,,,,,,,,,,13,,50,72
49560,note_on,,0,0,10,,,,,,,,,,,,,,,,15,,62,72
49560,note_on,,0,0,10,,,,,,,,,,,,,,,,15,,58,72
49560,note_on,,1,0,5,,,,,,,,,,,,,,,,2,,50,72
49620,note_on,,61,0,7,,,,,,,,,,,,,,,,10,,82,72
49620,note_on,,61,0,8,,,,,,,,,,,,,,,,11,,82,72
49649,note_on,,89,0,5,,,,,,,,,,,,,,,,2,,50,0
49649,note_on,,89,0,9,,,,,,,,,,,,,,,,13,,50,0
49649,note_on,,89,0,10,,,,,,,,,,,,,,,,15,,50,0
49650,note_on,,1,0,10,,,,,,,,,,,,,,,,15,,46,72
49650,note_on,,1,0,5,,,,,,,,,,,,,,,,2,,46,72
49650,note_on,,1,0,9,,,,,,,,,,,,,,,,13,,46,72
49679,note_on,,29,0,5,,,,,,,,,,,,,,,,2,,46,0
49679,note_on,,59,0,8,,,,,,,,,,,,,,,,11,,82,0
49679,note_on,,0,0,10,,,,,,,,,,,,,,,,15,,62,0
49679,note_on,,29,0,10,,,,,,,,,,,,,,,,15,,65,0
49679,note_on,,59,0,7,,,,,,,,,,,,,,,,10,,82,0
49679,note_on,,29,0,9,,,,,,,,,,,,,,,,13,,46,0
49679,note_on,,0,0,10,,,,,,,,,,,,,,,,15,,46,0
49679,note_on,,0,0,10,,,,,,,,,,,,,,,,15,,58,0
49680,note_on,,1,0,7,,,,,,,,,,,,,,,,10,,81,72
49680,note_on,,1,0,8,,,,,,,,,,,,,,,,11,,81,72
49680,note_on,,1,0,9,,,,,,,,,,,,,,,,13,,53,72
49680,note_on,,1,0,5,,,,,,,,,,,,,,,,2,,53,72
49680,note_on,,1,0,10,,,,,,,,,,,,,,,,15,,53,72
49680,note_on,,0,0,10,,,,,,,,,,,,,,,,15,,69,72
49680,note_on,,0,0,10,,,,,,,,,,,,,,,,15,,65,72
49680,note_on,,0,0,10,,,,,,,,,,,,,,,,15,,60,72
49739,note_on,,59,0,7,,,,,,,,,,,,,,,,10,,81,0
49739,note_on,,59,0,8,,,,,,,,,,,,,,,,11,,81,0
49740,note_on,,1,0,8,,,,,,,,,,,,,,,,11,,74,72
49740,note_on,,1,0,7,,,,,,,,,,,,,,,,10,,74,72
49799,note_on,,0,0,10,,,,,,,,,,,,,,,,15,,65,0
49799,note_on,,59,0,7,,,,,,,,,,,,,,,,10,,74,0
49799,note_on,,119,0,5,,,,,,,,,,,,,,,,2,,53,0
49799,note_on,,59,0,8,,,,,,,,,,,,,,,,11,,74,0
49799,note_on,,119,0,10,,,,,,,,,,,,,,,,15,,53,0
49799,note_on,,0,0,10,,,,,,,,,,,,,,,,15,,69,0
49799,note_on,,119,0,9,,,,,,,,,,,,,,,,13,,53,0
49799,note_on,,0,0,10,,,,,,,,,,,,,,,,15,,60,0
49800,note_on,,1,0,5,,,,,,,,,,,,,,,,2,,63,72
49800,note_on,,0,0,10,,,,,,,,,,,,,,,,15,,67,72
49800,note_on,,1,0,7,,,,,,,,,,,,,,,,10,,72,72
49800,note_on,,1,0,9,,,,,,,,,,,,,,,,13,,63,72
49800,note_on,,1,0,10,,,,,,,,,,,,,,,,15,,63,72
49800,note_on,,1,0,8,,,,,,,,,,,,,,,,11,,72,72
49800,note_on,,0,0,10,,,,,,,,,,,,,,,,15,,72,72
49829,note_on,,29,0,8,,,,,,,,,,,,,,,,11,,72,0
49829,note_on,,29,0,7,,,,,,,,,,,,,,,,10,,72,0
49830,note_on,,1,0,7,,,,,,,,,,,,,,,,10,,75,72
49830,note_on,,1,0,8,,,,,,,,,,,,,,,,11,,75,72
49859,note_on,,29,0,7,,,,,,,,,,,,,,,,10,,75,0
49859,note_on,,29,0,8,,,,,,,,,,,,,,,,11,,75,0
49860,note_on,,1,0,7,,,,,,,,,,,,,,,,10,,74,72
49860,note_on,,1,0,8,,,,,,,,,,,,,,,,11,,74,72
49889,note_on,,29,0,8,,,,,,,,,,,,,,,,11,,74,0
49889,note_on,,29,0,7,,,,,,,,,,,,,,,,10,,74,0
49890,note_on,,1,0,8,,,,,,,,,,,,,,,,11,,72,72
49890,note_on,,1,0,7,,,,,,,,,,,,,,,,10,,72,72
49919,note_on,,0,0,10,,,,,,,,,,,,,,,,15,,67,0
49919,note_on,,0,0,10,,,,,,,,,,,,,,,,15,,72,0
49919,note_on,,119,0,10,,,,,,,,,,,,,,,,15,,63,0
49919,note_on,,29,0,7,,,,,,,,,,,,,,,,10,,72,0
49919,note_on,,29,0,8,,,,,,,,,,,,,,,,11,,72,0
49919,note_on,,119,0,5,,,,,,,,,,,,,,,,2,,63,0
49919,note_on,,119,0,9,,,,,,,,,,,,,,,,13,,63,0
49920,note_on,,1,0,7,,,,,,,,,,,,,,,,10,,77,72
49920,note_on,,1,0,10,,,,,,,,,,,,,,,,15,,62,72
49920,note_on,,1,0,5,,,,,,,,,,,,,,,,2,,62,72
49920,note_on,,0,0,10,,,,,,,,,,,,,,,,15,,74,72
49920,note_on,,1,0,8,,,,,,,,,,,,,,,,11,,77,72
49920,note_on,,1,0,9,,,,,,,,,,,,,,,,13,,62,72
49920,note_on,,0,0,10,,,,,,,,,,,,,,,,15,,70,72
49920,note_on,,0,0,10,,,,,,,,,,,,,,,,15,,65,72
49979,note_on,,59,0,8,,,,,,,,,,,,,,,,11,,77,0
49979,note_on,,59,0,7,,,,,,,,,,,,,,,,10,,77,0
49980,note_on,,1,0,7,,,,,,,,,,,,,,,,10,,70,72
49980,note_on,,1,0,8,,,,,,,,,,,,,,,,11,,70,72
50039,note_on,,59,0,8,,,,,,,,,,,,,,,,11,,70,0
50039,note_on,,119,0,5,,,,,,,,,,,,,,,,2,,62,0
50039,note_on,,59,0,7,,,,,,,,,,,,,,,,10,,70,0
50039,note_on,,0,0,10,,,,,,,,,,,,,,,,15,,65,0
50039,note_on,,0,0,10,,,,,,,,,,,,,,,,15,,70,0
50039,note_on,,0,0,10,,,,,,,,,,,,,,,,15,,74,0
50039,note_on,,119,0,10,,,,,,,,,,,,,,,,15,,62,0
50039,note_on,,119,0,9,,,,,,,,,,,,,,,,13,,62,0
50040,note_on,,1,0,5,,,,,,,,,,,,,,,,2,,60,72
50040,note_on,,1,0,9,,,,,,,,,,,,,,,,13,,60,72
50040,note_on,,1,0,10,,,,,,,,,,,,,,,,15,,60,72
50040,note_on,,0,0,10,,,,,,,,,,,,,,,,15,,75,72
50040,note_on,,0,0,10,,,,,,,,,,,,,,,,15,,72,72
50040,note_on,,0,0,10,,,,,,,,,,,,,,,,15,,69,72
50040,note_on,,0,0,10,,,,,,,,,,,,,,,,15,,63,72
50100,note_on,,61,0,7,,,,,,,,,,,,,,,,10,,69,72
50100,note_on,,61,0,8,,,,,,,,,,,,,,,,11,,69,72
50159,note_on,,0,0,10,,,,,,,,,,,,,,,,15,,72,0
50159,note_on,,0,0,10,,,,,,,,,,,,,,,,15,,75,0
50159,note_on,,119,0,5,,,,,,,,,,,,,,,,2,,60,0
50159,note_on,,0,0,10,,,,,,,,,,,,,,,,15,,63,0
50159,note_on,,119,0,10,,,,,,,,,,,,,,,,15,,60,0
50159,note_on,,0,0,10,,,,,,,,,,,,,,,,15,,69,0
50159,note_on,,59,0,7,,,,,,,,,,,,,,,,10,,69,0
50159,note_on,,119,0,9,,,,,,,,,,,,,,,,13,,60,0
50159,note_on,,59,0,8,,,,,,,,,,,,,,,,11,,69,0
50160,note_on,,0,0,10,,,,,,,,,,,,,,,,15,,62,72
50160,note_on,,0,0,10,,,,,,,,,,,,,,,,15,,65,72
50160,note_on,,1,0,9,,,,,,,,,,,,,,,,13,,62,72
50160,note_on,,0,0,10,,,,,,,,,,,,,,,,15,,70,72
50160,note_on,,0,0,10,,,,,,,,,,,,,,,,15,,77,72
50160,note_on,,1,0,10,,,,,,,,,,,,,,,,15,,62,72
50160,note_on,,1,0,8,,,,,,,,,,,,,,,,11,,70,72
50160,note_on,,1,0,5,,,,,,,,,,,,,,,,2,,62,72
50160,note_on,,1,0,7,,,,,,,,,,,,,,,,10,,70,72
50174,note_on,,14,0,7,,,,,,,,,,,,,,,,10,,70,0
50174,note_on,,14,0,8,,,,,,,,,,,,,,,,11,,70,0
50175,note_on,,1,0,7,,,,,,,,,,,,,,,,10,,72,72
50175,note_on,,1,0,8,,,,,,,,,,,,,,,,11,,72,72
50189,note_on,,14,0,8,,,,,,,,,,,,,,,,11,,72,0
50189,note_on,,14,0,7,,,,,,,,,,,,,,,,10,,72,0
50190,note_on,,1,0,8,,,,,,,,,,,,,,,,11,,70,72
50190,note_on,,1,0,7,,,,,,,,,,,,,,,,10,,70,72
50204,note_on,,14,0,8,,,,,,,,,,,,,,,,11,,70,0
50204,note_on,,14,0,7,,,,,,,,,,,,,,,,10,,70,0
50205,note_on,,1,0,7,,,,,,,,,,,,,,,,10,,72,72
50205,note_on,,1,0,8,,,,,,,,,,,,,,,,11,,72,72
50219,note_on,,14,0,7,,,,,,,,,,,,,,,,10,,72,0
50219,note_on,,14,0,8,,,,,,,,,,,,,,,,11,,72,0
50220,note_on,,1,0,7,,,,,,,,,,,,,,,,10,,69,72
50220,note_on,,1,0,8,,,,,,,,,,,,,,,,11,,69,72
50234,note_on,,14,0,7,,,,,,,,,,,,,,,,10,,69,0
50234,note_on,,14,0,8,,,,,,,,,,,,,,,,11,,69,0
50235,note_on,,1,0,7,,,,,,,,,,,,,,,,10,,70,72
50235,note_on,,1,0,8,,,,,,,,,,,,,,,,11,,70,72
50249,note_on,,14,0,7,,,,,,,,,,,,,,,,10,,70,0
50249,note_on,,89,0,9,,,,,,,,,,,,,,,,13,,62,0
50249,note_on,,89,0,10,,,,,,,,,,,,,,,,15,,62,0
50249,note_on,,89,0,5,,,,,,,,,,,,,,,,2,,62,0
50249,note_on,,14,0,8,,,,,,,,,,,,,,,,11,,70,0
50250,note_on,,1,0,7,,,,,,,,,,,,,,,,10,,69,72
50250,note_on,,1,0,9,,,,,,,,,,,,,,,,13,,51,72
50250,note_on,,1,0,10,,,,,,,,,,,,,,,,15,,51,72
50250,note_on,,1,0,8,,,,,,,,,,,,,,,,11,,69,72
50250,note_on,,1,0,5,,,,,,,,,,,,,,,,2,,51,72
50264,note_on,,14,0,8,,,,,,,,,,,,,,,,11,,69,0
50264,note_on,,14,0,7,,,,,,,,,,,,,,,,10,,69,0
50265,note_on,,1,0,7,,,,,,,,,,,,,,,,10,,67,72
50265,note_on,,1,0,8,,,,,,,,,,,,,,,,11,,67,72
50279,note_on,,29,0,9,,,,,,,,,,,,,,,,13,,51,0
50279,note_on,,29,0,5,,,,,,,,,,,,,,,,2,,51,0
50279,note_on,,14,0,8,,,,,,,,,,,,,,,,11,,67,0
50279,note_on,,29,0,10,,,,,,,,,,,,,,,,15,,77,0
50279,note_on,,0,0,10,,,,,,,,,,,,,,,,15,,51,0
50279,note_on,,14,0,7,,,,,,,,,,,,,,,,10,,67,0
50279,note_on,,0,0,10,,,,,,,,,,,,,,,,15,,70,0
50279,note_on,,0,0,10,,,,,,,,,,,,,,,,15,,65,0
50279,note_on,,0,0,10,,,,,,,,,,,,,,,,15,,62,0
50280,note_on,,1,0,7,,,,,,,,,,,,,,,,10,,65,72
50280,note_on,,1,0,9,,,,,,,,,,,,,,,,13,,53,72
50280,note_on,,1,0,8,,,,,,,,,,,,,,,,11,,65,72
50280,note_on,,1,0,5,,,,,,,,,,,,,,,,2,,53,72
50280,note_on,,0,0,10,,,,,,,,,,,,,,,,15,,57,72
50280,note_on,,0,0,10,,,,,,,,,,,,,,,,15,,65,72
50280,note_on,,1,0,10,,,,,,,,,,,,,,,,15,,53,72
50280,note_on,,0,0,10,,,,,,,,,,,,,,,,15,,72,72
50339,note_on,,59,0,7,,,,,,,,,,,,,,,,10,,65,0
50339,note_on,,59,0,8,,,,,,,,,,,,,,,,11,,65,0
50340,note_on,,1,0,8,,,,,,,,,,,,,,,,11,,63,72
50340,note_on,,1,0,7,,,,,,,,,,,,,,,,10,,63,72
50399,note_on,,59,0,8,,,,,,,,,,,,,,,,11,,63,0
50399,note_on,,0,0,10,,,,,,,,,,,,,,,,15,,57,0
50399,note_on,,119,0,5,,,,,,,,,,,,,,,,2,,53,0
50399,note_on,,0,0,10,,,,,,,,,,,,,,,,15,,65,0
50399,note_on,,0,0,10,,,,,,,,,,,,,,,,15,,72,0
50399,note_on,,119,0,9,,,,,,,,,,,,,,,,13,,53,0
50399,note_on,,119,0,10,,,,,,,,,,,,,,,,15,,53,0
50399,note_on,,59,0,7,,,,,,,,,,,,,,,,10,,63,0
50400,note_on,,1,0,5,,,,,,,,,,,,,,,,2,,46,72
50400,note_on,,1,0,8,,,,,,,,,,,,,,,,11,,62,72
50400,note_on,,1,0,10,,,,,,,,,,,,,,,,15,,62,72
50400,note_on,,0,0,10,,,,,,,,,,,,,,,,15,,46,72
50400,note_on,,0,0,10,,,,,,,,,,,,,,,,15,,74,72
50400,note_on,,0,0,10,,,,,,,,,,,,,,,,15,,70,72
50400,note_on,,0,0,10,,,,,,,,,,,,,,,,15,,53,72
50400,note_on,,1,0,7,,,,,,,,,,,,,,,,10,,62,72
50400,note_on,,1,0,9,,,,,,,,,,,,,,,,13,,46,72
50459,note_on,,59,0,7,,,,,,,,,,,,,,,,10,,62,0
50459,note_on,,59,0,8,,,,,,,,,,,,,,,,11,,62,0
50460,note_on,,1,0,8,,,,,,,,,,,,,,,,11,,65,72
50460,note_on,,1,0,7,,,,,,,,,,,,,,,,10,,65,72
50489,note_on,,89,0,10,,,,,,,,,,,,,,,,15,,62,0
50489,note_on,,0,0,10,,,,,,,,,,,,,,,,15,,46,0
50489,note_on,,89,0,9,,,,,,,,,,,,,,,,13,,46,0
50489,note_on,,89,0,5,,,,,,,,,,,,,,,,2,,46,0
50490,note_on,,1,0,10,,,,,,,,,,,,,,,,15,,48,72
50490,note_on,,0,0,10,,,,,,,,,,,,,,,,15,,63,72
50490,note_on,,1,0,9,,,,,,,,,,,,,,,,13,,48,72
50490,note_on,,1,0,5,,,,,,,,,,,,,,,,2,,48,72
50519,note_on,,0,0,10,,,,,,,,,,,,,,,,15,,63,0
50519,note_on,,29,0,10,,,,,,,,,,,,,,,,15,,48,0
50519,note_on,,29,0,5,,,,,,,,,,,,,,,,2,,48,0
50519,note_on,,29,0,9,,,,,,,,,,,,,,,,13,,48,0
50519,note_on,,59,0,7,,,,,,,,,,,,,,,,10,,65,0
50519,note_on,,59,0,8,,,,,,,,,,,,,,,,11,,65,0
50520,note_on,,1,0,9,,,,,,,,,,,,,,,,13,,50,72
50520,note_on,,0,0,10,,,,,,,,,,,,,,,,15,,65,72
50520,note_on,,1,0,10,,,,,,,,,,,,,,,,15,,50,72
50520,note_on,,1,0,7,,,,,,,,,,,,,,,,10,,70,72
50520,note_on,,1,0,8,,,,,,,,,,,,,,,,11,,70,72
50520,note_on,,1,0,5,,,,,,,,,,,,,,,,2,,50,72
50579,note_on,,59,0,7,,,,,,,,,,,,,,,,10,,70,0
50579,note_on,,59,0,8,,,,,,,,,,,,,,,,11,,70,0
50580,note_on,,1,0,8,,,,,,,,,,,,,,,,11,,82,48
50580,note_on,,1,0,7,,,,,,,,,,,,,,,,10,,82,48
50609,note_on,,89,0,5,,,,,,,,,,,,,,,,2,,50,0
50609,note_on,,89,0,10,,,,,,,,,,,,,,,,15,,50,0
50609,note_on,,0,0,10,,,,,,,,,,,,,,,,15,,65,0
50609,note_on,,89,0,9,,,,,,,,,,,,,,,,13,,50,0
50610,note_on,,1,0,5,,,,,,,,,,,,,,,,2,,51,48
50610,note_on,,0,0,10,,,,,,,,,,,,,,,,15,,67,48
50610,note_on,,1,0,10,,,,,,,,,,,,,,,,15,,51,48
50610,note_on,,1,0,9,,,,,,,,,,,,,,,,13,,51,48
50639,note_on,,0,0,10,,,,,,,,,,,,,,,,15,,67,0
50639,note_on,,59,0,7,,,,,,,,,,,,,,,,10,,82,0
50639,note_on,,0,0,10,,,,,,,,,,,,,,,,15,,51,0
50639,note_on,,59,0,8,,,,,,,,,,,,,,,,11,,82,0
50639,note_on,,0,0,10,,,,,,,,,,,,,,,,15,,70,0
50639,note_on,,29,0,10,,,,,,,,,,,,,,,,15,,74,0
50639,note_on,,29,0,5,,,,,,,,,,,,,,,,2,,51,0
50639,note_on,,29,0,9,,,,,,,,,,,,,,,,13,,51,0
50639,note_on,,0,0,10,,,,,,,,,,,,,,,,15,,53,0
50640,note_on,,1,0,10,,,,,,,,,,,,,,,,15,,53,48
50640,note_on,,1,0,7,,,,,,,,,,,,,,,,10,,82,48
50640,note_on,,1,0,8,,,,,,,,,,,,,,,,11,,82,48
50640,note_on,,1,0,5,,,,,,,,,,,,,,,,2,,53,48
50640,note_on,,1,0,9,,,,,,,,,,,,,,,,13,,53,48
50640,note_on,,0,0,10,,,,,,,,,,,,,,,,15,,60,48
50640,note_on,,0,0,10,,,,,,,,,,,,,,,,15,,65,48
50699,note_on,,59,0,8,,,,,,,,,,,,,,,,11,,82,0
50699,note_on,,59,0,7,,,,,,,,,,,,,,,,10,,82,0
50700,note_on,,1,0,7,,,,,,,,,,,,,,,,10,,81,48
50700,note_on,,1,0,8,,,,,,,,,,,,,,,,11,,81,48
50759,note_on,,59,0,7,,,,,,,,,,,,,,,,10,,81,0
50759,note_on,,119,0,10,,,,,,,,,,,,,,,,15,,53,0
50759,note_on,,0,0,10,,,,,,,,,,,,,,,,15,,65,0
50759,note_on,,0,0,10,,,,,,,,,,,,,,,,15,,60,0
50759,note_on,,119,0,5,,,,,,,,,,,,,,,,2,,53,0
50759,note_on,,59,0,8,,,,,,,,,,,,,,,,11,,81,0
50759,note_on,,119,0,9,,,,,,,,,,,,,,,,13,,53,0
50760,note_on,,1,0,7,,,,,,,,,,,,,,,,10,,81,48
50760,note_on,,1,0,10,,,,,,,,,,,,,,,,15,,51,48
50760,note_on,,0,0,10,,,,,,,,,,,,,,,,15,,72,48
50760,note_on,,0,0,10,,,,,,,,,,,,,,,,15,,65,48
50760,note_on,,0,0,10,,,,,,,,,,,,,,,,15,,57,48
50760,note_on,,1,0,8,,,,,,,,,,,,,,,,11,,81,48
50760,note_on,,1,0,5,,,,,,,,,,,,,,,,2,,51,48
50760,note_on,,1,0,9,,,,,,,,,,,,,,,,13,,51,48
50774,note_on,,14,0,7,,,,,,,,,,,,,,,,10,,81,0
50774,note_on,,14,0,8,,,,,,,,,,,,,,,,11,,81,0
50775,note_on,,1,0,7,,,,,,,,,,,,,,,,10,,82,48
50775,note_on,,1,0,8,,,,,,,,,,,,,,,,11,,82,48
50789,note_on,,14,0,7,,,,,,,,,,,,,,,,10,,82,0
50789,note_on,,14,0,8,,,,,,,,,,,,,,,,11,,82,0
50790,note_on,,1,0,7,,,,,,,,,,,,,,,,10,,79,48
50790,note_on,,1,0,8,,,,,,,,,,,,,,,,11,,79,48
50804,note_on,,14,0,7,,,,,,,,,,,,,,,,10,,79,0
50804,note_on,,14,0,8,,,,,,,,,,,,,,,,11,,79,0
50805,note_on,,1,0,8,,,,,,,,,,,,,,,,11,,81,48
50805,note_on,,1,0,7,,,,,,,,,,,,,,,,10,,81,48
50819,note_on,,14,0,8,,,,,,,,,,,,,,,,11,,81,0
50819,note_on,,14,0,7,,,,,,,,,,,,,,,,10,,81,0
50820,note_on,,1,0,7,,,,,,,,,,,,,,,,10,,79,48
50820,note_on,,1,0,8,,,,,,,,,,,,,,,,11,,79,48
50879,note_on,,119,0,9,,,,,,,,,,,,,,,,13,,51,0
50879,note_on,,119,0,5,,,,,,,,,,,,,,,,2,,51,0
50879,note_on,,59,0,8,,,,,,,,,,,,,,,,11,,79,0
50879,note_on,,59,0,7,,,,,,,,,,,,,,,,10,,79,0
50879,note_on,,119,0,10,,,,,,,,,,,,,,,,15,,51,0
50879,note_on,,0,0,10,,,,,,,,,,,,,,,,15,,72,0
50879,note_on,,0,0,10,,,,,,,,,,,,,,,,15,,65,0
50879,note_on,,0,0,10,,,,,,,,,,,,,,,,15,,57,0
50880,note_on,,1,0,5,,,,,,,,,,,,,,,,2,,50,48
50880,note_on,,1,0,9,,,,,,,,,,,,,,,,13,,50,48
50880,note_on,,0,0,10,,,,,,,,,,,,,,,,15,,58,48
50880,note_on,,0,0,10,,,,,,,,,,,,,,,,15,,74,48
50880,note_on,,1,0,10,,,,,,,,,,,,,,,,15,,50,48
50880,note_on,,0,0,10,,,,,,,,,,,,,,,,15,,70,48
50880,note_on,,1,0,7,,,,,,,,,,,,,,,,10,,79,48
50880,note_on,,1,0,8,,,,,,,,,,,,,,,,11,,79,48
50894,note_on,,14,0,8,,,,,,,,,,,,,,,,11,,79,0
50894,note_on,,14,0,7,,,,,,,,,,,,,,,,10,,79,0
50895,note_on,,1,0,8,,,,,,,,,,,,,,,,11,,81,48
50895,note_on,,1,0,7,,,,,,,,,,,,,,,,10,,81,48
50909,note_on,,14,0,8,,,,,,,,,,,,,,,,11,,81,0
50909,note_on,,14,0,7,,,,,,,,,,,,,,,,10,,81,0
50910,note_on,,1,0,8,,,,,,,,,,,,,,,,11,,77,48
50910,note_on,,1,0,7,,,,,,,,,,,,,,,,10,,77,48
50924,note_on,,14,0,8,,,,,,,,,,,,,,,,11,,77,0
50924,note_on,,14,0,7,,,,,,,,,,,,,,,,10,,77,0
50925,note_on,,1,0,7,,,,,,,,,,,,,,,,10,,79,48
50925,note_on,,1,0,8,,,,,,,,,,,,,,,,11,,79,48
50939,note_on,,14,0,8,,,,,,,,,,,,,,,,11,,79,0
50939,note_on,,14,0,7,,,,,,,,,,,,,,,,10,,79,0
50940,note_on,,1,0,7,,,,,,,,,,,,,,,,10,,77,48
50940,note_on,,1,0,8,,,,,,,,,,,,,,,,11,,77,48
50999,note_on,,119,0,10,,,,,,,,,,,,,,,,15,,50,0
50999,note_on,,59,0,7,,,,,,,,,,,,,,,,10,,77,0
50999,note_on,,0,0,10,,,,,,,,,,,,,,,,15,,74,0
50999,note_on,,119,0,5,,,,,,,,,,,,,,,,2,,50,0
50999,note_on,,119,0,9,,,,,,,,,,,,,,,,13,,50,0
50999,note_on,,0,0,10,,,,,,,,,,,,,,,,15,,70,0
50999,note_on,,0,0,10,,,,,,,,,,,,,,,,15,,58,0
50999,note_on,,59,0,8,,,,,,,,,,,,,,,,11,,77,0
51000,note_on,,1,0,7,,,,,,,,,,,,,,,,10,,77,48
51000,note_on,,1,0,8,,,,,,,,,,,,,,,,11,,77,48
51000,note_on,,0,0,10,,,,,,,,,,,,,,,,15,,60,48
51000,note_on,,0,0,10,,,,,,,,,,,,,,,,15,,63,48
51000,note_on,,0,0,10,,,,,,,,,,,,,,,,15,,69,48
51000,note_on,,1,0,10,,,,,,,,,,,,,,,,15,,48,48
51000,note_on,,1,0,9,,,,,,,,,,,,,,,,13,,48,48
51000,note_on,,1,0,5,,,,,,,,,,,,,,,,2,,48,48
51014,note_on,,14,0,8,,,,,,,,,,,,,,,,11,,77,0
51014,note_on,,14,0,7,,,,,,,,,,,,,,,,10,,77,0
51015,note_on,,1,0,7,,,,,,,,,,,,,,,,10,,79,48
51015,note_on,,1,0,8,,,,,,,,,,,,,,,,11,,79,48
51029,note_on,,14,0,8,,,,,,,,,,,,,,,,11,,79,0
51029,note_on,,14,0,7,,,,,,,,,,,,,,,,10,,79,0
51030,note_on,,1,0,7,,,,,,,,,,,,,,,,10,,75,48
51030,note_on,,1,0,8,,,,,,,,,,,,,,,,11,,75,48
51044,note_on,,14,0,7,,,,,,,,,,,,,,,,10,,75,0
51044,note_on,,14,0,8,,,,,,,,,,,,,,,,11,,75,0
51045,note_on,,1,0,7,,,,,,,,,,,,,,,,10,,77,48
51045,note_on,,1,0,8,,,,,,,,,,,,,,,,11,,77,48
51059,note_on,,14,0,7,,,,,,,,,,,,,,,,10,,77,0
51059,note_on,,14,0,8,,,,,,,,,,,,,,,,11,,77,0
51060,note_on,,1,0,7,,,,,,,,,,,,,,,,10,,75,48
51060,note_on,,1,0,8,,,,,,,,,,,,,,,,11,,75,48
51119,note_on,,0,0,10,,,,,,,,,,,,,,,,15,,63,0
51119,note_on,,0,0,10,,,,,,,,,,,,,,,,15,,69,0
51119,note_on,,119,0,10,,,,,,,,,,,,,,,,15,,48,0
51119,note_on,,59,0,8,,,,,,,,,,,,,,,,11,,75,0
51119,note_on,,119,0,9,,,,,,,,,,,,,,,,13,,48,0
51119,note_on,,0,0,10,,,,,,,,,,,,,,,,15,,60,0
51119,note_on,,59,0,7,,,,,,,,,,,,,,,,10,,75,0
51119,note_on,,119,0,5,,,,,,,,,,,,,,,,2,,48,0
51120,note_on,,1,0,7,,,,,,,,,,,,,,,,10,,74,72
51120,note_on,,1,0,8,,,,,,,,,,,,,,,,11,,74,72
51120,note_on,,0,0,10,,,,,,,,,,,,,,,,15,,53,72
51120,note_on,,0,0,10,,,,,,,,,,,,,,,,15,,65,72
51120,note_on,,0,0,10,,,,,,,,,,,,,,,,15,,70,72
51120,note_on,,1,0,9,,,,,,,,,,,,,,,,13,,50,72
51120,note_on,,1,0,10,,,,,,,,,,,,,,,,15,,50,72
51120,note_on,,1,0,5,,,,,,,,,,,,,,,,2,,50,72
51179,note_on,,59,0,8,,,,,,,,,,,,,,,,11,,74,0
51179,note_on,,59,0,7,,,,,,,,,,,,,,,,10,,74,0
51180,note_on,,1,0,8,,,,,,,,,,,,,,,,11,,72,72
51180,note_on,,1,0,7,,,,,,,,,,,,,,,,10,,72,72
51209,note_on,,89,0,9,,,,,,,,,,,,,,,,13,,50,0
51209,note_on,,29,0,7,,,,,,,,,,,,,,,,10,,72,0
51209,note_on,,29,0,8,,,,,,,,,,,,,,,,11,,72,0
51209,note_on,,89,0,10,,,,,,,,,,,,,,,,15,,50,0
51209,note_on,,0,0,10,,,,,,,,,,,,,,,,15,,70,0
51209,note_on,,0,0,10,,,,,,,,,,,,,,,,15,,65,0
51209,note_on,,89,0,5,,,,,,,,,,,,,,,,2,,50,0
51210,note_on,,0,0,10,,,,,,,,,,,,,,,,15,,72,72
51210,note_on,,0,0,10,,,,,,,,,,,,,,,,15,,67,72
51210,note_on,,1,0,10,,,,,,,,,,,,,,,,15,,51,72
51210,note_on,,1,0,7,,,,,,,,,,,,,,,,10,,70,72
51210,note_on,,1,0,9,,,,,,,,,,,,,,,,13,,51,72
51210,note_on,,1,0,8,,,,,,,,,,,,,,,,11,,70,72
51210,note_on,,1,0,5,,,,,,,,,,,,,,,,2,,51,72
51239,note_on,,29,0,9,,,,,,,,,,,,,,,,13,,51,0
51239,note_on,,0,0,10,,,,,,,,,,,,,,,,15,,51,0
51239,note_on,,0,0,10,,,,,,,,,,,,,,,,15,,72,0
51239,note_on,,0,0,10,,,,,,,,,,,,,,,,15,,67,0
51239,note_on,,29,0,8,,,,,,,,,,,,,,,,11,,70,0
51239,note_on,,29,0,10,,,,,,,,,,,,,,,,15,,53,0
51239,note_on,,29,0,5,,,,,,,,,,,,,,,,2,,51,0
51239,note_on,,29,0,7,,,,,,,,,,,,,,,,10,,70,0
51240,note_on,,1,0,7,,,,,,,,,,,,,,,,10,,65,72
51240,note_on,,1,0,5,,,,,,,,,,,,,,,,2,,53,72
51240,note_on,,1,0,10,,,,,,,,,,,,,,,,15,,53,72
51240,note_on,,1,0,9,,,,,,,,,,,,,,,,13,,53,72
51240,note_on,,0,0,10,,,,,,,,,,,,,,,,15,,60,72
51240,note_on,,0,0,10,,,,,,,,,,,,,,,,15,,65,72
51240,note_on,,0,0,10,,,,,,,,,,,,,,,,15,,69,72
51240,note_on,,0,0,10,,,,,,,,,,,,,,,,15,,53,72
51240,note_on,,1,0,8,,,,,,,,,,,,,,,,11,,65,72
51299,note_on,,59,0,7,,,,,,,,,,,,,,,,10,,65,0
51299,note_on,,59,0,8,,,,,,,,,,,,,,,,11,,65,0
51300,note_on,,1,0,8,,,,,,,,,,,,,,,,11,,69,72
51300,note_on,,1,0,7,,,,,,,,,,,,,,,,10,,69,72
51329,note_on,,89,0,5,,,,,,,,,,,,,,,,2,,53,0
51329,note_on,,89,0,10,,,,,,,,,,,,,,,,15,,53,0
51329,note_on,,89,0,9,,,,,,,,,,,,,,,,13,,53,0
51330,note_on,,1,0,5,,,,,,,,,,,,,,,,2,,41,72
51330,note_on,,1,0,9,,,,,,,,,,,,,,,,13,,41,72
51330,note_on,,1,0,10,,,,,,,,,,,,,,,,15,,41,72
51359,note_on,,0,0,10,,,,,,,,,,,,,,,,15,,69,0
51359,note_on,,0,0,10,,,,,,,,,,,,,,,,15,,65,0
51359,note_on,,0,0,10,,,,,,,,,,,,,,,,15,,60,0
51359,note_on,,0,0,10,,,,,,,,,,,,,,,,15,,41,0
51359,note_on,,29,0,10,,,,,,,,,,,,,,,,15,,53,0
51359,note_on,,29,0,9,,,,,,,,,,,,,,,,13,,41,0
51359,note_on,,59,0,7,,,,,,,,,,,,,,,,10,,69,0
51359,note_on,,59,0,8,,,,,,,,,,,,,,,,11,,69,0
51359,note_on,,29,0,5,,,,,,,,,,,,,,,,2,,41,0
51360,note_on,,1,0,5,,,,,,,,,,,,,,,,2,,46,72
51360,note_on,,1,0,10,,,,,,,,,,,,,,,,15,,46,72
51360,note_on,,1,0,8,,,,,,,,,,,,,,,,11,,70,72
51360,note_on,,0,0,10,,,,,,,,,,,,,,,,15,,62,72
51360,note_on,,0,0,10,,,,,,,,,,,,,,,,15,,53,72
51360,note_on,,0,0,10,,,,,,,,,,,,,,,,15,,70,72
51360,note_on,,0,0,10,,,,,,,,,,,,,,,,15,,65,72
51360,note_on,,1,0,7,,,,,,,,,,,,,,,,10,,70,72
51360,note_on,,1,0,9,,,,,,,,,,,,,,,,13,,46,72
51479,end_of_track,,0,1,7,,,,,,,,,,,,,,,,,,,
51479,note_on,,119,0,7,,,,,,,,,,,,,,,,10,,70,0
51479,note_on,,119,0,8,,,,,,,,,,,,,,,,11,,70,0
51479,end_of_track,,0,1,8,,,,,,,,,,,,,,,,,,,
51839,note_on,,0,0,10,,,,,,,,,,,,,,,,15,,70,0
51839,note_on,,0,0,10,,,,,,,,,,,,,,,,15,,62,0
51839,note_on,,479,0,10,,,,,,,,,,,,,,,,15,,46,0
51839,note_on,,0,0,10,,,,,,,,,,,,,,,,15,,65,0
51839,note_on,,479,0,9,,,,,,,,,,,,,,,,13,,46,0
51839,note_on,,479,0,5,,,,,,,,,,,,,,,,2,,46,0
51839,end_of_track,,0,1,5,,,,,,,,,,,,,,,,,,,
51839,end_of_track,,0,1,9,,,,,,,,,,,,,,,,,,,
51839,note_on,,0,0,10,,,,,,,,,,,,,,,,15,,53,0
51839,end_of_track,,0,1,10,,,,,,,,,,,,,,,,,,,
52320,end_of_track,,0,1,0,,,,,,,,,,,,,,,,,,,
52320,set_tempo,,4680,1,0,,,,,,,,,500000,,,,,,,,,,
