tick,type,data,time,meta,track,frame_rate,hours,minutes,seconds,frames,sub_frames,port,key,tempo,numerator,denominator,clocks_per_click,notated_32nd_notes_per_beat,control,value,channel,program,note,velocity
0,sequencer_specific,"(0, 0, 91, 35, 1, 0, 5, 4, 35, 0)",0,1,0,,,,,,,,,,,,,,,,,,,
0,control_change,,0,0,7,,,,,,,,,,,,,,11,127,10,,,
0,midi_port,,0,1,7,,,,,,,0,,,,,,,,,,,,
0,track_name,,0,1,7,,,,,,,,,,,,,,,,,,,
0,track_name,,0,1,11,,,,,,,,,,,,,,,,,,,
0,midi_port,,0,1,11,,,,,,,0,,,,,,,,,,,,
0,control_change,,0,0,11,,,,,,,,,,,,,,11,127,15,,,
0,control_change,,0,0,11,,,,,,,,,,,,,,7,96,15,,,
0,control_change,,0,0,11,,,,,,,,,,,,,,10,90,15,,,
0,program_change,,0,0,11,,,,,,,,,,,,,,,,15,6,,
0,midi_port,,0,1,8,,,,,,,0,,,,,,,,,,,,
0,note_on,,0,0,6,,,,,,,,,,,,,,,,7,,52,56
0,program_change,,0,0,6,,,,,,,,,,,,,,,,7,70,,
0,control_change,,0,0,6,,,,,,,,,,,,,,7,96,7,,,
0,control_change,,0,0,6,,,,,,,,,,,,,,10,80,7,,,
0,control_change,,0,0,6,,,,,,,,,,,,,,11,127,7,,,
0,control_change,,0,0,7,,,,,,,,,,,,,,7,96,10,,,
0,midi_port,,0,1,6,,,,,,,0,,,,,,,,,,,,
0,control_change,,0,0,7,,,,,,,,,,,,,,10,48,10,,,
0,program_change,,0,0,10,,,,,,,,,,,,,,,,13,48,,
0,control_change,,0,0,8,,,,,,,,,,,,,,11,127,11,,,
0,control_change,,0,0,8,,,,,,,,,,,,,,7,96,11,,,
0,control_change,,0,0,8,,,,,,,,,,,,,,10,24,11,,,
0,program_change,,0,0,8,,,,,,,,,,,,,,,,11,48,,
0,track_name,,0,1,9,,,,,,,,,,,,,,,,,,,
0,midi_port,,0,1,9,,,,,,,0,,,,,,,,,,,,
0,control_change,,0,0,9,,,,,,,,,,,,,,11,127,12,,,
0,control_change,,0,0,9,,,,,,,,,,,,,,7,96,12,,,
0,control_change,,0,0,9,,,,,,,,,,,,,,10,80,12,,,
0,program_change,,0,0,9,,,,,,,,,,,,,,,,12,48,,
0,track_name,,0,1,10,,,,,,,,,,,,,,,,,,,
0,midi_port,,0,1,10,,,,,,,0,,,,,,,,,,,,
0,control_change,,0,0,10,,,,,,,,,,,,,,11,127,13,,,
0,control_change,,0,0,10,,,,,,,,,,,,,,7,96,13,,,
0,control_change,,0,0,10,,,,,,,,,,,,,,10,96,13,,,
0,program_change,,0,0,7,,,,,,,,,,,,,,,,10,48,,
0,track_name,,0,1,6,,,,,,,,,,,,,,,,,,,
0,track_name,,0,1,8,,,,,,,,,,,,,,,,,,,
0,set_tempo,,0,1,0,,,,,,,,,1333333,,,,,,,,,,
0,key_signature,,0,1,0,,,,,,,,G,,,,,,,,,,,
0,midi_port,,0,1,5,,,,,,,0,,,,,,,,,,,,
0,midi_port,,0,1,3,,,,,,,0,,,,,,,,,,,,
0,end_of_track,,0,1,3,,,,,,,,,,,,,,,,,,,
0,midi_port,,0,1,4,,,,,,,0,,,,,,,,,,,,
0,end_of_track,,0,1,4,,,,,,,,,,,,,,,,,,,
0,track_name,,0,1,5,,,,,,,,,,,,,,,,,,,
0,track_name,,0,1,1,,,,,,,,,,,,,,,,,,,
0,midi_port,,0,1,1,,,,,,,0,,,,,,,,,,,,
0,time_signature,,0,1,0,,,,,,,,,,9,8,12,8,,,,,,
0,track_name,,0,1,2,,,,,,,,,,,,,,,,,,,
0,end_of_track,,0,1,1,,,,,,,,,,,,,,,,,,,
0,midi_port,,0,1,0,,,,,,,0,,,,,,,,,,,,
0,smpte_offset,,0,1,0,25,32,0,3,0,0,,,,,,,,,,,,,
0,instrument_name,,0,1,0,,,,,,,,,,,,,,,,,,,
0,track_name,,0,1,0,,,,,,,,,,,,,,,,,,,
0,end_of_track,,0,1,2,,,,,,,,,,,,,,,,,,,
0,program_change,,0,0,5,,,,,,,,,,,,,,,,2,70,,
0,control_change,,0,0,5,,,,,,,,,,,,,,10,65,2,,,
0,control_change,,0,0,5,,,,,,,,,,,,,,7,96,2,,,
0,control_change,,0,0,5,,,,,,,,,,,,,,11,127,2,,,
0,midi_port,,0,1,2,,,,,,,0,,,,,,,,,,,,
0,track_name,,0,1,3,,,,,,,,,,,,,,,,,,,
59,note_on,,59,0,6,,,,,,,,,,,,,,,,7,,52,0
60,note_on,,1,0,6,,,,,,,,,,,,,,,,7,,59,56
120,note_on,,120,0,10,,,,,,,,,,,,,,,,13,,52,48
120,note_on,,120,0,7,,,,,,,,,,,,,,,,10,,71,48
120,note_on,,120,0,11,,,,,,,,,,,,,,,,15,,52,48
120,note_on,,0,0,11,,,,,,,,,,,,,,,,15,,55,48
120,note_on,,120,0,5,,,,,,,,,,,,,,,,2,,52,48
120,note_on,,120,0,8,,,,,,,,,,,,,,,,11,,67,48
120,note_on,,0,0,11,,,,,,,,,,,,,,,,15,,59,48
120,note_on,,120,0,9,,,,,,,,,,,,,,,,12,,59,48
179,note_on,,59,0,10,,,,,,,,,,,,,,,,13,,52,0
179,note_on,,59,0,5,,,,,,,,,,,,,,,,2,,52,0
179,note_on,,59,0,8,,,,,,,,,,,,,,,,11,,67,0
179,note_on,,119,0,6,,,,,,,,,,,,,,,,7,,59,0
179,note_on,,59,0,9,,,,,,,,,,,,,,,,12,,59,0
179,note_on,,0,0,11,,,,,,,,,,,,,,,,15,,59,0
179,note_on,,59,0,11,,,,,,,,,,,,,,,,15,,52,0
179,note_on,,59,0,7,,,,,,,,,,,,,,,,10,,71,0
179,note_on,,0,0,11,,,,,,,,,,,,,,,,15,,55,0
180,note_on,,1,0,8,,,,,,,,,,,,,,,,11,,71,48
180,note_on,,1,0,7,,,,,,,,,,,,,,,,10,,76,48
180,note_on,,0,0,11,,,,,,,,,,,,,,,,15,,59,48
180,note_on,,1,0,5,,,,,,,,,,,,,,,,2,,55,48
180,note_on,,1,0,9,,,,,,,,,,,,,,,,12,,67,48
180,note_on,,1,0,10,,,,,,,,,,,,,,,,13,,55,48
180,note_on,,1,0,11,,,,,,,,,,,,,,,,15,,55,48
180,note_on,,0,0,11,,,,,,,,,,,,,,,,15,,64,48
239,note_on,,59,0,11,,,,,,,,,,,,,,,,15,,55,0
239,note_on,,59,0,5,,,,,,,,,,,,,,,,2,,55,0
239,note_on,,0,0,11,,,,,,,,,,,,,,,,15,,64,0
239,note_on,,0,0,11,,,,,,,,,,,,,,,,15,,59,0
239,note_on,,59,0,10,,,,,,,,,,,,,,,,13,,55,0
240,note_on,,0,0,11,,,,,,,,,,,,,,,,15,,59,48
240,note_on,,1,0,5,,,,,,,,,,,,,,,,2,,52,48
240,note_on,,1,0,11,,,,,,,,,,,,,,,,15,,52,48
240,note_on,,61,0,6,,,,,,,,,,,,,,,,7,,64,56
240,note_on,,0,0,11,,,,,,,,,,,,,,,,15,,67,48
240,note_on,,0,0,11,,,,,,,,,,,,,,,,15,,64,48
240,note_on,,1,0,10,,,,,,,,,,,,,,,,13,,52,48
269,note_on,,29,0,6,,,,,,,,,,,,,,,,7,,64,0
270,note_on,,1,0,6,,,,,,,,,,,,,,,,7,,60,56
299,note_on,,0,0,11,,,,,,,,,,,,,,,,15,,64,0
299,note_on,,29,0,6,,,,,,,,,,,,,,,,7,,60,0
299,note_on,,119,0,8,,,,,,,,,,,,,,,,11,,71,0
299,note_on,,0,0,11,,,,,,,,,,,,,,,,15,,59,0
299,note_on,,59,0,10,,,,,,,,,,,,,,,,13,,52,0
299,note_on,,59,0,11,,,,,,,,,,,,,,,,15,,52,0
299,note_on,,119,0,9,,,,,,,,,,,,,,,,12,,67,0
299,note_on,,119,0,7,,,,,,,,,,,,,,,,10,,76,0
299,note_on,,59,0,5,,,,,,,,,,,,,,,,2,,52,0
299,note_on,,0,0,11,,,,,,,,,,,,,,,,15,,67,0
300,note_on,,1,0,6,,,,,,,,,,,,,,,,7,,57,56
360,note_on,,0,0,11,,,,,,,,,,,,,,,,15,,60,48
360,note_on,,0,0,11,,,,,,,,,,,,,,,,15,,57,48
360,note_on,,61,0,11,,,,,,,,,,,,,,,,15,,54,48
360,note_on,,61,0,10,,,,,,,,,,,,,,,,13,,54,48
360,note_on,,61,0,8,,,,,,,,,,,,,,,,11,,66,48
360,note_on,,61,0,9,,,,,,,,,,,,,,,,12,,69,48
360,note_on,,61,0,5,,,,,,,,,,,,,,,,2,,54,48
360,note_on,,61,0,7,,,,,,,,,,,,,,,,10,,69,48
404,note_on,,44,0,8,,,,,,,,,,,,,,,,11,,66,0
405,note_on,,1,0,8,,,,,,,,,,,,,,,,11,,64,48
419,note_on,,59,0,5,,,,,,,,,,,,,,,,2,,54,0
419,note_on,,59,0,11,,,,,,,,,,,,,,,,15,,54,0
419,note_on,,59,0,7,,,,,,,,,,,,,,,,10,,69,0
419,note_on,,0,0,11,,,,,,,,,,,,,,,,15,,60,0
419,note_on,,14,0,8,,,,,,,,,,,,,,,,11,,64,0
419,note_on,,119,0,6,,,,,,,,,,,,,,,,7,,57,0
419,note_on,,0,0,11,,,,,,,,,,,,,,,,15,,57,0
419,note_on,,59,0,10,,,,,,,,,,,,,,,,13,,54,0
419,note_on,,59,0,9,,,,,,,,,,,,,,,,12,,69,0
420,note_on,,1,0,8,,,,,,,,,,,,,,,,11,,66,48
420,note_on,,1,0,5,,,,,,,,,,,,,,,,2,,57,48
420,note_on,,1,0,7,,,,,,,,,,,,,,,,10,,78,48
420,note_on,,1,0,10,,,,,,,,,,,,,,,,13,,57,48
420,note_on,,0,0,11,,,,,,,,,,,,,,,,15,,60,48
420,note_on,,0,0,11,,,,,,,,,,,,,,,,15,,66,48
420,note_on,,1,0,11,,,,,,,,,,,,,,,,15,,57,48
420,note_on,,1,0,9,,,,,,,,,,,,,,,,12,,60,48
479,note_on,,0,0,11,,,,,,,,,,,,,,,,15,,60,0
479,note_on,,59,0,11,,,,,,,,,,,,,,,,15,,57,0
479,note_on,,0,0,11,,,,,,,,,,,,,,,,15,,66,0
479,note_on,,59,0,5,,,,,,,,,,,,,,,,2,,57,0
479,note_on,,59,0,10,,,,,,,,,,,,,,,,13,,57,0
480,note_on,,1,0,5,,,,,,,,,,,,,,,,2,,54,48
480,note_on,,0,0,11,,,,,,,,,,,,,,,,15,,60,48
480,note_on,,0,0,11,,,,,,,,,,,,,,,,15,,66,48
480,note_on,,0,0,11,,,,,,,,,,,,,,,,15,,69,48
480,note_on,,1,0,10,,,,,,,,,,,,,,,,13,,54,48
480,note_on,,1,0,11,,,,,,,,,,,,,,,,15,,54,48
480,note_on,,61,0,6,,,,,,,,,,,,,,,,7,,57,56
539,note_on,,0,0,11,,,,,,,,,,,,,,,,15,,69,0
539,note_on,,59,0,11,,,,,,,,,,,,,,,,15,,54,0
539,note_on,,59,0,5,,,,,,,,,,,,,,,,2,,54,0
539,note_on,,59,0,6,,,,,,,,,,,,,,,,7,,57,0
539,note_on,,119,0,8,,,,,,,,,,,,,,,,11,,66,0
539,note_on,,119,0,9,,,,,,,,,,,,,,,,12,,60,0
539,note_on,,0,0,11,,,,,,,,,,,,,,,,15,,66,0
539,note_on,,0,0,11,,,,,,,,,,,,,,,,15,,60,0
539,note_on,,119,0,7,,,,,,,,,,,,,,,,10,,78,0
539,note_on,,59,0,10,,,,,,,,,,,,,,,,13,,54,0
540,note_on,,1,0,6,,,,,,,,,,,,,,,,7,,66,56
540,time_signature,,540,1,0,,,,,,,,,,4,4,24,8,,,,,,
600,note_on,,61,0,7,,,,,,,,,,,,,,,,10,,69,48
600,note_on,,61,0,8,,,,,,,,,,,,,,,,11,,66,48
600,note_on,,61,0,10,,,,,,,,,,,,,,,,13,,51,48
600,note_on,,61,0,9,,,,,,,,,,,,,,,,12,,59,48
600,note_on,,0,0,11,,,,,,,,,,,,,,,,15,,59,48
600,note_on,,0,0,11,,,,,,,,,,,,,,,,15,,66,48
600,note_on,,0,0,11,,,,,,,,,,,,,,,,15,,71,48
600,note_on,,61,0,11,,,,,,,,,,,,,,,,15,,51,48
600,note_on,,61,0,5,,,,,,,,,,,,,,,,2,,51,48
659,note_on,,59,0,5,,,,,,,,,,,,,,,,2,,51,0
659,note_on,,59,0,8,,,,,,,,,,,,,,,,11,,66,0
659,note_on,,59,0,9,,,,,,,,,,,,,,,,12,,59,0
659,note_on,,59,0,7,,,,,,,,,,,,,,,,10,,69,0
659,note_on,,59,0,11,,,,,,,,,,,,,,,,15,,51,0
659,note_on,,0,0,11,,,,,,,,,,,,,,,,15,,71,0
659,note_on,,0,0,11,,,,,,,,,,,,,,,,15,,66,0
659,note_on,,0,0,11,,,,,,,,,,,,,,,,15,,59,0
659,note_on,,59,0,10,,,,,,,,,,,,,,,,13,,51,0
660,note_on,,1,0,7,,,,,,,,,,,,,,,,10,,78,48
660,note_on,,1,0,9,,,,,,,,,,,,,,,,12,,69,48
660,note_on,,1,0,11,,,,,,,,,,,,,,,,15,,47,48
660,note_on,,0,0,11,,,,,,,,,,,,,,,,15,,75,48
660,note_on,,0,0,11,,,,,,,,,,,,,,,,15,,71,48
660,note_on,,0,0,11,,,,,,,,,,,,,,,,15,,66,48
660,note_on,,1,0,10,,,,,,,,,,,,,,,,13,,47,48
660,note_on,,1,0,5,,,,,,,,,,,,,,,,2,,47,48
660,note_on,,1,0,8,,,,,,,,,,,,,,,,11,,75,48
719,note_on,,179,0,6,,,,,,,,,,,,,,,,7,,66,0
719,note_on,,59,0,10,,,,,,,,,,,,,,,,13,,47,0
719,note_on,,0,0,11,,,,,,,,,,,,,,,,15,,71,0
719,note_on,,59,0,5,,,,,,,,,,,,,,,,2,,47,0
719,note_on,,0,0,11,,,,,,,,,,,,,,,,15,,66,0
719,note_on,,59,0,11,,,,,,,,,,,,,,,,15,,47,0
719,note_on,,0,0,11,,,,,,,,,,,,,,,,15,,75,0
720,note_on,,1,0,5,,,,,,,,,,,,,,,,2,,51,48
720,note_on,,1,0,6,,,,,,,,,,,,,,,,7,,63,56
720,note_on,,0,0,11,,,,,,,,,,,,,,,,15,,66,48
720,note_on,,0,0,11,,,,,,,,,,,,,,,,15,,71,48
720,note_on,,1,0,11,,,,,,,,,,,,,,,,15,,51,48
720,note_on,,0,0,11,,,,,,,,,,,,,,,,15,,59,48
720,note_on,,1,0,10,,,,,,,,,,,,,,,,13,,51,48
749,note_on,,29,0,6,,,,,,,,,,,,,,,,7,,63,0
750,note_on,,1,0,6,,,,,,,,,,,,,,,,7,,60,56
764,note_on,,14,0,6,,,,,,,,,,,,,,,,7,,60,0
765,note_on,,1,0,6,,,,,,,,,,,,,,,,7,,57,56
779,note_on,,119,0,7,,,,,,,,,,,,,,,,10,,78,0
779,note_on,,14,0,6,,,,,,,,,,,,,,,,7,,57,0
779,note_on,,59,0,11,,,,,,,,,,,,,,,,15,,51,0
779,note_on,,0,0,11,,,,,,,,,,,,,,,,15,,71,0
779,note_on,,119,0,9,,,,,,,,,,,,,,,,12,,69,0
779,note_on,,59,0,10,,,,,,,,,,,,,,,,13,,51,0
779,note_on,,0,0,11,,,,,,,,,,,,,,,,15,,66,0
779,note_on,,119,0,8,,,,,,,,,,,,,,,,11,,75,0
779,note_on,,0,0,11,,,,,,,,,,,,,,,,15,,59,0
779,note_on,,59,0,5,,,,,,,,,,,,,,,,2,,51,0
780,note_on,,1,0,6,,,,,,,,,,,,,,,,7,,55,56
840,note_on,,61,0,7,,,,,,,,,,,,,,,,10,,71,48
840,note_on,,61,0,5,,,,,,,,,,,,,,,,2,,52,48
840,note_on,,61,0,10,,,,,,,,,,,,,,,,13,,52,48
840,note_on,,61,0,8,,,,,,,,,,,,,,,,11,,59,48
840,note_on,,61,0,9,,,,,,,,,,,,,,,,12,,67,48
840,note_on,,0,0,11,,,,,,,,,,,,,,,,15,,67,48
840,note_on,,0,0,11,,,,,,,,,,,,,,,,15,,64,48
840,note_on,,0,0,11,,,,,,,,,,,,,,,,15,,59,48
840,note_on,,61,0,11,,,,,,,,,,,,,,,,15,,52,48
884,note_on,,44,0,9,,,,,,,,,,,,,,,,12,,67,0
885,note_on,,1,0,9,,,,,,,,,,,,,,,,12,,66,48
899,note_on,,0,0,11,,,,,,,,,,,,,,,,15,,59,0
899,note_on,,14,0,9,,,,,,,,,,,,,,,,12,,66,0
899,note_on,,59,0,10,,,,,,,,,,,,,,,,13,,52,0
899,note_on,,59,0,5,,,,,,,,,,,,,,,,2,,52,0
899,note_on,,59,0,8,,,,,,,,,,,,,,,,11,,59,0
899,note_on,,59,0,7,,,,,,,,,,,,,,,,10,,71,0
899,note_on,,59,0,11,,,,,,,,,,,,,,,,15,,52,0
899,note_on,,0,0,11,,,,,,,,,,,,,,,,15,,67,0
899,note_on,,0,0,11,,,,,,,,,,,,,,,,15,,64,0
899,note_on,,119,0,6,,,,,,,,,,,,,,,,7,,55,0
900,note_on,,0,0,11,,,,,,,,,,,,,,,,15,,64,48
900,note_on,,1,0,10,,,,,,,,,,,,,,,,13,,55,48
900,note_on,,1,0,8,,,,,,,,,,,,,,,,11,,71,48
900,note_on,,0,0,11,,,,,,,,,,,,,,,,15,,71,48
900,note_on,,1,0,11,,,,,,,,,,,,,,,,15,,55,48
900,note_on,,1,0,9,,,,,,,,,,,,,,,,12,,64,48
900,note_on,,1,0,5,,,,,,,,,,,,,,,,2,,55,48
900,note_on,,1,0,7,,,,,,,,,,,,,,,,10,,76,48
959,note_on,,59,0,5,,,,,,,,,,,,,,,,2,,55,0
959,note_on,,59,0,11,,,,,,,,,,,,,,,,15,,55,0
959,note_on,,0,0,11,,,,,,,,,,,,,,,,15,,71,0
959,note_on,,0,0,11,,,,,,,,,,,,,,,,15,,64,0
959,note_on,,59,0,10,,,,,,,,,,,,,,,,13,,55,0
960,note_on,,1,0,5,,,,,,,,,,,,,,,,2,,52,48
960,note_on,,1,0,10,,,,,,,,,,,,,,,,13,,52,48
960,note_on,,61,0,6,,,,,,,,,,,,,,,,7,,59,56
960,note_on,,0,0,11,,,,,,,,,,,,,,,,15,,67,48
960,note_on,,0,0,11,,,,,,,,,,,,,,,,15,,71,48
960,note_on,,0,0,11,,,,,,,,,,,,,,,,15,,76,48
960,note_on,,1,0,11,,,,,,,,,,,,,,,,15,,52,48
1019,note_on,,0,0,11,,,,,,,,,,,,,,,,15,,67,0
1019,note_on,,0,0,11,,,,,,,,,,,,,,,,15,,76,0
1019,note_on,,59,0,11,,,,,,,,,,,,,,,,15,,52,0
1019,note_on,,119,0,7,,,,,,,,,,,,,,,,10,,76,0
1019,note_on,,119,0,9,,,,,,,,,,,,,,,,12,,64,0
1019,note_on,,59,0,6,,,,,,,,,,,,,,,,7,,59,0
1019,note_on,,59,0,10,,,,,,,,,,,,,,,,13,,52,0
1019,note_on,,59,0,5,,,,,,,,,,,,,,,,2,,52,0
1019,note_on,,0,0,11,,,,,,,,,,,,,,,,15,,71,0
1019,note_on,,119,0,8,,,,,,,,,,,,,,,,11,,71,0
1020,note_on,,1,0,6,,,,,,,,,,,,,,,,7,,55,56
1079,note_on,,59,0,6,,,,,,,,,,,,,,,,7,,55,0
1080,note_on,,61,0,5,,,,,,,,,,,,,,,,2,,52,48
1080,note_on,,1,0,6,,,,,,,,,,,,,,,,7,,52,56
1080,note_on,,61,0,10,,,,,,,,,,,,,,,,13,,52,48
1080,note_on,,0,0,11,,,,,,,,,,,,,,,,15,,59,48
1080,note_on,,0,0,11,,,,,,,,,,,,,,,,15,,64,48
1080,note_on,,0,0,11,,,,,,,,,,,,,,,,15,,67,48
1080,note_on,,61,0,11,,,,,,,,,,,,,,,,15,,52,48
1139,note_on,,59,0,10,,,,,,,,,,,,,,,,13,,52,0
1139,note_on,,59,0,6,,,,,,,,,,,,,,,,7,,52,0
1139,note_on,,59,0,11,,,,,,,,,,,,,,,,15,,52,0
1139,note_on,,59,0,5,,,,,,,,,,,,,,,,2,,52,0
1139,note_on,,0,0,11,,,,,,,,,,,,,,,,15,,67,0
1139,note_on,,0,0,11,,,,,,,,,,,,,,,,15,,64,0
1139,note_on,,0,0,11,,,,,,,,,,,,,,,,15,,59,0
1140,note_on,,1,0,6,,,,,,,,,,,,,,,,7,,64,56
1140,note_on,,1,0,5,,,,,,,,,,,,,,,,2,,55,48
1140,note_on,,1,0,11,,,,,,,,,,,,,,,,15,,55,48
1140,note_on,,0,0,11,,,,,,,,,,,,,,,,15,,71,48
1140,note_on,,1,0,10,,,,,,,,,,,,,,,,13,,55,48
1140,note_on,,0,0,11,,,,,,,,,,,,,,,,15,,59,48
1140,note_on,,0,0,11,,,,,,,,,,,,,,,,15,,64,48
1199,note_on,,59,0,6,,,,,,,,,,,,,,,,7,,64,0
1199,note_on,,59,0,5,,,,,,,,,,,,,,,,2,,55,0
1199,note_on,,59,0,11,,,,,,,,,,,,,,,,15,,55,0
1199,note_on,,59,0,10,,,,,,,,,,,,,,,,13,,55,0
1199,note_on,,0,0,11,,,,,,,,,,,,,,,,15,,71,0
1199,note_on,,0,0,11,,,,,,,,,,,,,,,,15,,59,0
1199,note_on,,0,0,11,,,,,,,,,,,,,,,,15,,64,0
1200,note_on,,1,0,10,,,,,,,,,,,,,,,,13,,54,48
1200,note_on,,1,0,6,,,,,,,,,,,,,,,,7,,62,56
1200,note_on,,0,0,11,,,,,,,,,,,,,,,,15,,66,48
1200,note_on,,1,0,5,,,,,,,,,,,,,,,,2,,54,48
1200,note_on,,0,0,11,,,,,,,,,,,,,,,,15,,62,48
1200,note_on,,0,0,11,,,,,,,,,,,,,,,,15,,69,48
1200,note_on,,1,0,11,,,,,,,,,,,,,,,,15,,54,48
1259,note_on,,59,0,5,,,,,,,,,,,,,,,,2,,54,0
1259,note_on,,59,0,10,,,,,,,,,,,,,,,,13,,54,0
1259,note_on,,59,0,6,,,,,,,,,,,,,,,,7,,62,0
1259,note_on,,0,0,11,,,,,,,,,,,,,,,,15,,62,0
1259,note_on,,0,0,11,,,,,,,,,,,,,,,,15,,66,0
1259,note_on,,0,0,11,,,,,,,,,,,,,,,,15,,69,0
1259,note_on,,59,0,11,,,,,,,,,,,,,,,,15,,54,0
1260,note_on,,1,0,5,,,,,,,,,,,,,,,,2,,52,48
1260,note_on,,0,0,11,,,,,,,,,,,,,,,,15,,67,48
1260,note_on,,1,0,10,,,,,,,,,,,,,,,,13,,52,48
1260,note_on,,1,0,11,,,,,,,,,,,,,,,,15,,52,48
1260,note_on,,0,0,11,,,,,,,,,,,,,,,,15,,72,48
1260,note_on,,1,0,6,,,,,,,,,,,,,,,,7,,60,56
1260,note_on,,0,0,11,,,,,,,,,,,,,,,,15,,60,48
1319,note_on,,59,0,10,,,,,,,,,,,,,,,,13,,52,0
1319,note_on,,0,0,11,,,,,,,,,,,,,,,,15,,60,0
1319,note_on,,0,0,11,,,,,,,,,,,,,,,,15,,67,0
1319,note_on,,0,0,11,,,,,,,,,,,,,,,,15,,72,0
1319,note_on,,59,0,6,,,,,,,,,,,,,,,,7,,60,0
1319,note_on,,59,0,5,,,,,,,,,,,,,,,,2,,52,0
1319,note_on,,59,0,11,,,,,,,,,,,,,,,,15,,52,0
1320,note_on,,1,0,6,,,,,,,,,,,,,,,,7,,59,56
1320,note_on,,1,0,10,,,,,,,,,,,,,,,,13,,50,48
1320,note_on,,0,0,11,,,,,,,,,,,,,,,,15,,71,48
1320,note_on,,0,0,11,,,,,,,,,,,,,,,,15,,66,48
1320,note_on,,0,0,11,,,,,,,,,,,,,,,,15,,62,48
1320,note_on,,1,0,5,,,,,,,,,,,,,,,,2,,50,48
1320,note_on,,1,0,11,,,,,,,,,,,,,,,,15,,50,48
1320,note_on,,301,0,7,,,,,,,,,,,,,,,,10,,66,48
1379,note_on,,59,0,5,,,,,,,,,,,,,,,,2,,50,0
1379,note_on,,0,0,11,,,,,,,,,,,,,,,,15,,71,0
1379,note_on,,0,0,11,,,,,,,,,,,,,,,,15,,66,0
1379,note_on,,0,0,11,,,,,,,,,,,,,,,,15,,62,0
1379,note_on,,59,0,11,,,,,,,,,,,,,,,,15,,50,0
1379,note_on,,59,0,7,,,,,,,,,,,,,,,,10,,66,0
1379,note_on,,59,0,10,,,,,,,,,,,,,,,,13,,50,0
1379,note_on,,59,0,6,,,,,,,,,,,,,,,,7,,59,0
1380,note_on,,1,0,7,,,,,,,,,,,,,,,,10,,71,48
1440,note_on,,61,0,5,,,,,,,,,,,,,,,,2,,50,48
1440,note_on,,61,0,10,,,,,,,,,,,,,,,,13,,50,48
1440,note_on,,421,0,8,,,,,,,,,,,,,,,,11,,66,48
1440,note_on,,61,0,11,,,,,,,,,,,,,,,,15,,50,48
1440,note_on,,0,0,11,,,,,,,,,,,,,,,,15,,78,48
1440,note_on,,0,0,11,,,,,,,,,,,,,,,,15,,71,48
1440,note_on,,421,0,9,,,,,,,,,,,,,,,,12,,59,48
1440,note_on,,0,0,11,,,,,,,,,,,,,,,,15,,66,48
1499,note_on,,0,0,11,,,,,,,,,,,,,,,,15,,66,0
1499,note_on,,59,0,11,,,,,,,,,,,,,,,,15,,50,0
1499,note_on,,0,0,11,,,,,,,,,,,,,,,,15,,78,0
1499,note_on,,59,0,10,,,,,,,,,,,,,,,,13,,50,0
1499,note_on,,0,0,11,,,,,,,,,,,,,,,,15,,71,0
1499,note_on,,59,0,5,,,,,,,,,,,,,,,,2,,50,0
1499,note_on,,59,0,8,,,,,,,,,,,,,,,,11,,66,0
1499,note_on,,59,0,9,,,,,,,,,,,,,,,,12,,59,0
1500,note_on,,1,0,8,,,,,,,,,,,,,,,,11,,64,48
1500,note_on,,0,0,11,,,,,,,,,,,,,,,,15,,67,48
1500,note_on,,1,0,10,,,,,,,,,,,,,,,,13,,48,48
1500,note_on,,0,0,11,,,,,,,,,,,,,,,,15,,71,48
1500,note_on,,0,0,11,,,,,,,,,,,,,,,,15,,76,48
1500,note_on,,1,0,11,,,,,,,,,,,,,,,,15,,48,48
1500,note_on,,121,0,6,,,,,,,,,,,,,,,,7,,64,56
1500,note_on,,1,0,9,,,,,,,,,,,,,,,,12,,60,48
1500,note_on,,1,0,5,,,,,,,,,,,,,,,,2,,48,48
1559,note_on,,59,0,6,,,,,,,,,,,,,,,,7,,64,0
1560,note_on,,1,0,6,,,,,,,,,,,,,,,,7,,55,56
1619,note_on,,239,0,7,,,,,,,,,,,,,,,,10,,71,0
1619,note_on,,59,0,6,,,,,,,,,,,,,,,,7,,55,0
1619,note_on,,119,0,11,,,,,,,,,,,,,,,,15,,71,0
1619,note_on,,0,0,11,,,,,,,,,,,,,,,,15,,67,0
1620,note_on,,0,0,11,,,,,,,,,,,,,,,,15,,66,48
1620,note_on,,1,0,6,,,,,,,,,,,,,,,,7,,57,56
1620,note_on,,1,0,11,,,,,,,,,,,,,,,,15,,69,48
1620,note_on,,1,0,7,,,,,,,,,,,,,,,,10,,69,48
1679,note_on,,59,0,7,,,,,,,,,,,,,,,,10,,69,0
1679,note_on,,59,0,11,,,,,,,,,,,,,,,,15,,66,0
1680,note_on,,1,0,11,,,,,,,,,,,,,,,,15,,64,48
1680,note_on,,1,0,7,,,,,,,,,,,,,,,,10,,76,48
1709,note_on,,89,0,6,,,,,,,,,,,,,,,,7,,57,0
1710,note_on,,1,0,6,,,,,,,,,,,,,,,,7,,57,56
1739,note_on,,239,0,8,,,,,,,,,,,,,,,,11,,64,0
1739,note_on,,29,0,6,,,,,,,,,,,,,,,,7,,57,0
1739,note_on,,0,0,11,,,,,,,,,,,,,,,,15,,76,0
1739,note_on,,0,0,11,,,,,,,,,,,,,,,,15,,69,0
1739,note_on,,239,0,5,,,,,,,,,,,,,,,,2,,48,0
1739,note_on,,239,0,9,,,,,,,,,,,,,,,,12,,60,0
1739,note_on,,0,0,11,,,,,,,,,,,,,,,,15,,64,0
1739,note_on,,59,0,11,,,,,,,,,,,,,,,,15,,48,0
1739,note_on,,239,0,10,,,,,,,,,,,,,,,,13,,48,0
1739,note_on,,59,0,7,,,,,,,,,,,,,,,,10,,76,0
1740,note_on,,0,0,11,,,,,,,,,,,,,,,,15,,66,48
1740,note_on,,0,0,11,,,,,,,,,,,,,,,,15,,75,48
1740,note_on,,1,0,8,,,,,,,,,,,,,,,,11,,66,48
1740,note_on,,0,0,11,,,,,,,,,,,,,,,,15,,71,48
1740,note_on,,1,0,11,,,,,,,,,,,,,,,,15,,47,48
1740,note_on,,1,0,9,,,,,,,,,,,,,,,,12,,54,48
1740,note_on,,1,0,10,,,,,,,,,,,,,,,,13,,47,48
1740,note_on,,1,0,5,,,,,,,,,,,,,,,,2,,47,48
1740,note_on,,1,0,7,,,,,,,,,,,,,,,,10,,75,48
1740,note_on,,1,0,6,,,,,,,,,,,,,,,,7,,59,56
1799,note_on,,59,0,6,,,,,,,,,,,,,,,,7,,59,0
1800,note_on,,1,0,6,,,,,,,,,,,,,,,,7,,59,56
1859,note_on,,0,0,11,,,,,,,,,,,,,,,,15,,75,0
1859,note_on,,119,0,9,,,,,,,,,,,,,,,,12,,54,0
1859,note_on,,119,0,7,,,,,,,,,,,,,,,,10,,75,0
1859,note_on,,119,0,10,,,,,,,,,,,,,,,,13,,47,0
1859,note_on,,119,0,11,,,,,,,,,,,,,,,,15,,47,0
1859,note_on,,59,0,6,,,,,,,,,,,,,,,,7,,59,0
1859,note_on,,119,0,8,,,,,,,,,,,,,,,,11,,66,0
1859,note_on,,0,0,11,,,,,,,,,,,,,,,,15,,66,0
1859,note_on,,119,0,5,,,,,,,,,,,,,,,,2,,47,0
1859,note_on,,0,0,11,,,,,,,,,,,,,,,,15,,71,0
1920,note_on,,61,0,7,,,,,,,,,,,,,,,,10,,75,48
1979,note_on,,59,0,7,,,,,,,,,,,,,,,,10,,75,0
1980,note_on,,1,0,7,,,,,,,,,,,,,,,,10,,79,48
2039,note_on,,59,0,7,,,,,,,,,,,,,,,,10,,79,0
2040,note_on,,0,0,11,,,,,,,,,,,,,,,,15,,71,48
2040,note_on,,181,0,8,,,,,,,,,,,,,,,,11,,63,48
2040,note_on,,181,0,11,,,,,,,,,,,,,,,,15,,47,48
2040,note_on,,1,0,7,,,,,,,,,,,,,,,,10,,78,48
2040,note_on,,181,0,10,,,,,,,,,,,,,,,,13,,47,48
2040,note_on,,181,0,5,,,,,,,,,,,,,,,,2,,47,48
2040,note_on,,0,0,11,,,,,,,,,,,,,,,,15,,63,48
2040,note_on,,0,0,11,,,,,,,,,,,,,,,,15,,66,48
2099,note_on,,59,0,10,,,,,,,,,,,,,,,,13,,47,0
2099,note_on,,59,0,5,,,,,,,,,,,,,,,,2,,47,0
2099,note_on,,59,0,7,,,,,,,,,,,,,,,,10,,78,0
2099,note_on,,0,0,11,,,,,,,,,,,,,,,,15,,66,0
2099,note_on,,59,0,8,,,,,,,,,,,,,,,,11,,63,0
2099,note_on,,59,0,11,,,,,,,,,,,,,,,,15,,47,0
2099,note_on,,0,0,11,,,,,,,,,,,,,,,,15,,63,0
2100,note_on,,1,0,11,,,,,,,,,,,,,,,,15,,55,48
2100,note_on,,0,0,11,,,,,,,,,,,,,,,,15,,64,48
2100,note_on,,0,0,11,,,,,,,,,,,,,,,,15,,59,48
2100,note_on,,1,0,5,,,,,,,,,,,,,,,,2,,55,48
2100,note_on,,1,0,10,,,,,,,,,,,,,,,,13,,55,48
2100,note_on,,1,0,7,,,,,,,,,,,,,,,,10,,76,48
2100,note_on,,1,0,8,,,,,,,,,,,,,,,,11,,71,48
2159,note_on,,59,0,5,,,,,,,,,,,,,,,,2,,55,0
2159,note_on,,59,0,8,,,,,,,,,,,,,,,,11,,71,0
2159,note_on,,0,0,11,,,,,,,,,,,,,,,,15,,55,0
2159,note_on,,59,0,11,,,,,,,,,,,,,,,,15,,71,0
2159,note_on,,59,0,7,,,,,,,,,,,,,,,,10,,76,0
2159,note_on,,0,0,11,,,,,,,,,,,,,,,,15,,59,0
2159,note_on,,0,0,11,,,,,,,,,,,,,,,,15,,64,0
2159,note_on,,59,0,10,,,,,,,,,,,,,,,,13,,55,0
2160,note_on,,1,0,8,,,,,,,,,,,,,,,,11,,69,48
2160,note_on,,301,0,9,,,,,,,,,,,,,,,,12,,57,48
2160,note_on,,1,0,7,,,,,,,,,,,,,,,,10,,74,48
2160,note_on,,1,0,10,,,,,,,,,,,,,,,,13,,54,48
2160,note_on,,0,0,11,,,,,,,,,,,,,,,,15,,66,48
2160,note_on,,0,0,11,,,,,,,,,,,,,,,,15,,69,48
2160,note_on,,1,0,5,,,,,,,,,,,,,,,,2,,54,48
2160,note_on,,1,0,11,,,,,,,,,,,,,,,,15,,54,48
2160,note_on,,0,0,11,,,,,,,,,,,,,,,,15,,62,48
2219,note_on,,0,0,11,,,,,,,,,,,,,,,,15,,66,0
2219,note_on,,59,0,9,,,,,,,,,,,,,,,,12,,57,0
2219,note_on,,0,0,11,,,,,,,,,,,,,,,,15,,69,0
2219,note_on,,59,0,11,,,,,,,,,,,,,,,,15,,54,0
2219,note_on,,59,0,7,,,,,,,,,,,,,,,,10,,74,0
2219,note_on,,59,0,8,,,,,,,,,,,,,,,,11,,69,0
2219,note_on,,59,0,5,,,,,,,,,,,,,,,,2,,54,0
2219,note_on,,0,0,11,,,,,,,,,,,,,,,,15,,62,0
2219,note_on,,59,0,10,,,,,,,,,,,,,,,,13,,54,0
2220,note_on,,1,0,7,,,,,,,,,,,,,,,,10,,72,48
2220,note_on,,0,0,11,,,,,,,,,,,,,,,,15,,52,48
2220,note_on,,0,0,11,,,,,,,,,,,,,,,,15,,72,48
2220,note_on,,0,0,11,,,,,,,,,,,,,,,,15,,60,48
2220,note_on,,1,0,9,,,,,,,,,,,,,,,,12,,64,48
2220,note_on,,1,0,8,,,,,,,,,,,,,,,,11,,67,48
2220,note_on,,1,0,10,,,,,,,,,,,,,,,,13,,52,48
2220,note_on,,1,0,11,,,,,,,,,,,,,,,,15,,67,48
2220,note_on,,1,0,5,,,,,,,,,,,,,,,,2,,52,48
2279,note_on,,0,0,11,,,,,,,,,,,,,,,,15,,60,0
2279,note_on,,59,0,9,,,,,,,,,,,,,,,,12,,64,0
2279,note_on,,59,0,10,,,,,,,,,,,,,,,,13,,52,0
2279,note_on,,59,0,7,,,,,,,,,,,,,,,,10,,72,0
2279,note_on,,59,0,8,,,,,,,,,,,,,,,,11,,67,0
2279,note_on,,0,0,11,,,,,,,,,,,,,,,,15,,72,0
2279,note_on,,0,0,11,,,,,,,,,,,,,,,,15,,52,0
2279,note_on,,59,0,11,,,,,,,,,,,,,,,,15,,67,0
2279,note_on,,59,0,5,,,,,,,,,,,,,,,,2,,52,0
2280,note_on,,1,0,9,,,,,,,,,,,,,,,,12,,59,48
2280,note_on,,1,0,10,,,,,,,,,,,,,,,,13,,50,48
2280,note_on,,1,0,7,,,,,,,,,,,,,,,,10,,71,48
2280,note_on,,0,0,11,,,,,,,,,,,,,,,,15,,66,48
2280,note_on,,1,0,5,,,,,,,,,,,,,,,,2,,50,48
2280,note_on,,0,0,11,,,,,,,,,,,,,,,,15,,62,48
2280,note_on,,1,0,11,,,,,,,,,,,,,,,,15,,50,48
2280,note_on,,1,0,8,,,,,,,,,,,,,,,,11,,66,48
2280,note_on,,0,0,11,,,,,,,,,,,,,,,,15,,71,48
2339,note_on,,59,0,9,,,,,,,,,,,,,,,,12,,59,0
2339,note_on,,59,0,8,,,,,,,,,,,,,,,,11,,66,0
2339,note_on,,59,0,7,,,,,,,,,,,,,,,,10,,71,0
2339,note_on,,59,0,10,,,,,,,,,,,,,,,,13,,50,0
2339,note_on,,59,0,5,,,,,,,,,,,,,,,,2,,50,0
2339,note_on,,0,0,11,,,,,,,,,,,,,,,,15,,71,0
2339,note_on,,59,0,11,,,,,,,,,,,,,,,,15,,50,0
2339,note_on,,0,0,11,,,,,,,,,,,,,,,,15,,62,0
2339,note_on,,0,0,11,,,,,,,,,,,,,,,,15,,66,0
2400,note_on,,61,0,10,,,,,,,,,,,,,,,,13,,52,48
2400,note_on,,0,0,11,,,,,,,,,,,,,,,,15,,67,48
2400,note_on,,61,0,8,,,,,,,,,,,,,,,,11,,67,48
2400,note_on,,61,0,5,,,,,,,,,,,,,,,,2,,52,48
2400,note_on,,0,0,11,,,,,,,,,,,,,,,,15,,55,48
2400,note_on,,61,0,7,,,,,,,,,,,,,,,,10,,71,48
2400,note_on,,0,0,11,,,,,,,,,,,,,,,,15,,59,48
2400,note_on,,61,0,11,,,,,,,,,,,,,,,,15,,52,48
2400,note_on,,0,0,11,,,,,,,,,,,,,,,,15,,71,48
2400,note_on,,61,0,9,,,,,,,,,,,,,,,,12,,59,48
2459,note_on,,59,0,11,,,,,,,,,,,,,,,,15,,52,0
2459,note_on,,0,0,11,,,,,,,,,,,,,,,,15,,59,0
2459,note_on,,59,0,9,,,,,,,,,,,,,,,,12,,59,0
2459,note_on,,59,0,5,,,,,,,,,,,,,,,,2,,52,0
2459,note_on,,59,0,10,,,,,,,,,,,,,,,,13,,52,0
2459,note_on,,0,0,11,,,,,,,,,,,,,,,,15,,55,0
2459,note_on,,0,0,11,,,,,,,,,,,,,,,,15,,67,0
2459,note_on,,59,0,8,,,,,,,,,,,,,,,,11,,67,0
2460,note_on,,1,0,8,,,,,,,,,,,,,,,,11,,64,48
2460,note_on,,1,0,9,,,,,,,,,,,,,,,,12,,60,48
2460,note_on,,1,0,11,,,,,,,,,,,,,,,,15,,48,48
2460,note_on,,1,0,10,,,,,,,,,,,,,,,,13,,48,48
2460,note_on,,1,0,5,,,,,,,,,,,,,,,,2,,48,48
2460,note_on,,0,0,11,,,,,,,,,,,,,,,,15,,55,48
2460,note_on,,0,0,11,,,,,,,,,,,,,,,,15,,64,48
2519,note_on,,119,0,7,,,,,,,,,,,,,,,,10,,71,0
2520,note_on,,1,0,7,,,,,,,,,,,,,,,,10,,76,48
2579,note_on,,59,0,7,,,,,,,,,,,,,,,,10,,76,0
2579,note_on,,119,0,11,,,,,,,,,,,,,,,,15,,71,0
2579,note_on,,0,0,11,,,,,,,,,,,,,,,,15,,55,0
2580,note_on,,1,0,11,,,,,,,,,,,,,,,,15,,54,48
2580,note_on,,1,0,7,,,,,,,,,,,,,,,,10,,69,48
2639,note_on,,59,0,11,,,,,,,,,,,,,,,,15,,54,0
2640,note_on,,1,0,11,,,,,,,,,,,,,,,,15,,52,48
2669,note_on,,89,0,7,,,,,,,,,,,,,,,,10,,69,0
2670,note_on,,1,0,7,,,,,,,,,,,,,,,,10,,71,48
2699,note_on,,59,0,11,,,,,,,,,,,,,,,,15,,48,0
2699,note_on,,0,0,11,,,,,,,,,,,,,,,,15,,64,0
2699,note_on,,0,0,11,,,,,,,,,,,,,,,,15,,52,0
2699,note_on,,239,0,5,,,,,,,,,,,,,,,,2,,48,0
2699,note_on,,239,0,8,,,,,,,,,,,,,,,,11,,64,0
2699,note_on,,239,0,10,,,,,,,,,,,,,,,,13,,48,0
2699,note_on,,29,0,7,,,,,,,,,,,,,,,,10,,71,0
2699,note_on,,239,0,9,,,,,,,,,,,,,,,,12,,60,0
2700,note_on,,1,0,7,,,,,,,,,,,,,,,,10,,71,48
2700,note_on,,1,0,8,,,,,,,,,,,,,,,,11,,63,48
2700,note_on,,1,0,9,,,,,,,,,,,,,,,,12,,54,48
2700,note_on,,0,0,11,,,,,,,,,,,,,,,,15,,51,48
2700,note_on,,0,0,11,,,,,,,,,,,,,,,,15,,59,48
2700,note_on,,0,0,11,,,,,,,,,,,,,,,,15,,66,48
2700,note_on,,1,0,11,,,,,,,,,,,,,,,,15,,47,48
2700,note_on,,1,0,10,,,,,,,,,,,,,,,,13,,47,48
2700,note_on,,1,0,5,,,,,,,,,,,,,,,,2,,47,48
2819,note_on,,119,0,7,,,,,,,,,,,,,,,,10,,71,0
2819,note_on,,119,0,9,,,,,,,,,,,,,,,,12,,54,0
2819,note_on,,0,0,11,,,,,,,,,,,,,,,,15,,51,0
2819,note_on,,119,0,8,,,,,,,,,,,,,,,,11,,63,0
2819,note_on,,0,0,11,,,,,,,,,,,,,,,,15,,59,0
2819,note_on,,0,0,11,,,,,,,,,,,,,,,,15,,66,0
2819,note_on,,119,0,11,,,,,,,,,,,,,,,,15,,47,0
2819,note_on,,119,0,5,,,,,,,,,,,,,,,,2,,47,0
2819,note_on,,119,0,10,,,,,,,,,,,,,,,,13,,47,0
2880,note_on,,1021,0,6,,,,,,,,,,,,,,,,7,,55,56
2939,note_on,,59,0,6,,,,,,,,,,,,,,,,7,,55,0
2940,note_on,,1,0,6,,,,,,,,,,,,,,,,7,,59,56
3000,note_on,,181,0,5,,,,,,,,,,,,,,,,2,,55,48
3000,note_on,,0,0,11,,,,,,,,,,,,,,,,15,,59,48
3000,note_on,,181,0,8,,,,,,,,,,,,,,,,11,,74,48
3000,note_on,,181,0,11,,,,,,,,,,,,,,,,15,,55,48
3000,note_on,,0,0,11,,,,,,,,,,,,,,,,15,,67,48
3000,note_on,,0,0,11,,,,,,,,,,,,,,,,15,,62,48
3000,note_on,,181,0,10,,,,,,,,,,,,,,,,13,,55,48
3000,note_on,,181,0,7,,,,,,,,,,,,,,,,10,,74,48
3059,note_on,,59,0,10,,,,,,,,,,,,,,,,13,,55,0
3059,note_on,,59,0,5,,,,,,,,,,,,,,,,2,,55,0
3059,note_on,,0,0,11,,,,,,,,,,,,,,,,15,,67,0
3059,note_on,,119,0,6,,,,,,,,,,,,,,,,7,,59,0
3059,note_on,,59,0,8,,,,,,,,,,,,,,,,11,,74,0
3059,note_on,,59,0,11,,,,,,,,,,,,,,,,15,,55,0
3059,note_on,,0,0,11,,,,,,,,,,,,,,,,15,,62,0
3059,note_on,,59,0,7,,,,,,,,,,,,,,,,10,,74,0
3059,note_on,,0,0,11,,,,,,,,,,,,,,,,15,,59,0
3060,note_on,,1,0,11,,,,,,,,,,,,,,,,15,,59,48
3060,note_on,,0,0,11,,,,,,,,,,,,,,,,15,,74,48
3060,note_on,,0,0,11,,,,,,,,,,,,,,,,15,,62,48
3060,note_on,,1,0,8,,,,,,,,,,,,,,,,11,,79,48
3060,note_on,,1,0,10,,,,,,,,,,,,,,,,13,,59,48
3060,note_on,,1,0,5,,,,,,,,,,,,,,,,2,,59,48
3060,note_on,,0,0,11,,,,,,,,,,,,,,,,15,,67,48
3060,note_on,,1,0,7,,,,,,,,,,,,,,,,10,,79,48
3119,note_on,,59,0,10,,,,,,,,,,,,,,,,13,,59,0
3119,note_on,,0,0,11,,,,,,,,,,,,,,,,15,,62,0
3119,note_on,,0,0,11,,,,,,,,,,,,,,,,15,,67,0
3119,note_on,,59,0,11,,,,,,,,,,,,,,,,15,,59,0
3119,note_on,,59,0,5,,,,,,,,,,,,,,,,2,,59,0
3120,note_on,,61,0,6,,,,,,,,,,,,,,,,7,,60,56
3120,note_on,,0,0,11,,,,,,,,,,,,,,,,15,,71,48
3120,note_on,,0,0,11,,,,,,,,,,,,,,,,15,,67,48
3120,note_on,,1,0,11,,,,,,,,,,,,,,,,15,,55,48
3120,note_on,,1,0,10,,,,,,,,,,,,,,,,13,,55,48
3120,note_on,,0,0,11,,,,,,,,,,,,,,,,15,,62,48
3120,note_on,,1,0,5,,,,,,,,,,,,,,,,2,,55,48
3179,note_on,,59,0,5,,,,,,,,,,,,,,,,2,,55,0
3179,note_on,,59,0,10,,,,,,,,,,,,,,,,13,,55,0
3179,note_on,,59,0,6,,,,,,,,,,,,,,,,7,,60,0
3179,note_on,,0,0,11,,,,,,,,,,,,,,,,15,,62,0
3179,note_on,,0,0,11,,,,,,,,,,,,,,,,15,,67,0
3179,note_on,,0,0,11,,,,,,,,,,,,,,,,15,,71,0
3179,note_on,,119,0,7,,,,,,,,,,,,,,,,10,,79,0
3179,note_on,,59,0,11,,,,,,,,,,,,,,,,15,,74,0
3179,note_on,,0,0,11,,,,,,,,,,,,,,,,15,,55,0
3179,note_on,,119,0,8,,,,,,,,,,,,,,,,11,,79,0
3180,note_on,,1,0,6,,,,,,,,,,,,,,,,7,,57,56
3240,note_on,,61,0,8,,,,,,,,,,,,,,,,11,,78,48
3240,note_on,,0,0,11,,,,,,,,,,,,,,,,15,,62,48
3240,note_on,,61,0,11,,,,,,,,,,,,,,,,15,,50,48
3240,note_on,,61,0,7,,,,,,,,,,,,,,,,10,,78,48
3240,note_on,,0,0,11,,,,,,,,,,,,,,,,15,,66,48
3240,note_on,,0,0,11,,,,,,,,,,,,,,,,15,,69,48
3240,note_on,,61,0,10,,,,,,,,,,,,,,,,13,,50,48
3240,note_on,,61,0,5,,,,,,,,,,,,,,,,2,,50,48
3299,note_on,,59,0,11,,,,,,,,,,,,,,,,15,,50,0
3299,note_on,,59,0,7,,,,,,,,,,,,,,,,10,,78,0
3299,note_on,,59,0,5,,,,,,,,,,,,,,,,2,,50,0
3299,note_on,,0,0,11,,,,,,,,,,,,,,,,15,,69,0
3299,note_on,,59,0,8,,,,,,,,,,,,,,,,11,,78,0
3299,note_on,,119,0,6,,,,,,,,,,,,,,,,7,,57,0
3299,note_on,,0,0,11,,,,,,,,,,,,,,,,15,,62,0
3299,note_on,,0,0,11,,,,,,,,,,,,,,,,15,,66,0
3299,note_on,,59,0,10,,,,,,,,,,,,,,,,13,,50,0
3300,note_on,,1,0,5,,,,,,,,,,,,,,,,2,,54,48
3300,note_on,,1,0,10,,,,,,,,,,,,,,,,13,,54,48
3300,note_on,,1,0,7,,,,,,,,,,,,,,,,10,,81,48
3300,note_on,,1,0,8,,,,,,,,,,,,,,,,11,,81,48
3300,note_on,,0,0,11,,,,,,,,,,,,,,,,15,,62,48
3300,note_on,,0,0,11,,,,,,,,,,,,,,,,15,,69,48
3300,note_on,,0,0,11,,,,,,,,,,,,,,,,15,,74,48
3300,note_on,,1,0,11,,,,,,,,,,,,,,,,15,,54,48
3359,note_on,,59,0,5,,,,,,,,,,,,,,,,2,,54,0
3359,note_on,,59,0,11,,,,,,,,,,,,,,,,15,,54,0
3359,note_on,,0,0,11,,,,,,,,,,,,,,,,15,,74,0
3359,note_on,,0,0,11,,,,,,,,,,,,,,,,15,,69,0
3359,note_on,,0,0,11,,,,,,,,,,,,,,,,15,,62,0
3359,note_on,,59,0,10,,,,,,,,,,,,,,,,13,,54,0
3360,note_on,,1,0,10,,,,,,,,,,,,,,,,13,,50,48
3360,note_on,,0,0,11,,,,,,,,,,,,,,,,15,,78,48
3360,note_on,,0,0,11,,,,,,,,,,,,,,,,15,,69,48
3360,note_on,,1,0,11,,,,,,,,,,,,,,,,15,,50,48
3360,note_on,,1,0,5,,,,,,,,,,,,,,,,2,,50,48
3360,note_on,,61,0,6,,,,,,,,,,,,,,,,7,,62,56
3360,note_on,,0,0,11,,,,,,,,,,,,,,,,15,,74,48
3419,note_on,,119,0,8,,,,,,,,,,,,,,,,11,,81,0
3419,note_on,,0,0,11,,,,,,,,,,,,,,,,15,,69,0
3419,note_on,,0,0,11,,,,,,,,,,,,,,,,15,,74,0
3419,note_on,,59,0,6,,,,,,,,,,,,,,,,7,,62,0
3419,note_on,,59,0,10,,,,,,,,,,,,,,,,13,,50,0
3419,note_on,,59,0,5,,,,,,,,,,,,,,,,2,,50,0
3419,note_on,,59,0,11,,,,,,,,,,,,,,,,15,,50,0
3419,note_on,,119,0,7,,,,,,,,,,,,,,,,10,,81,0
3419,note_on,,0,0,11,,,,,,,,,,,,,,,,15,,78,0
3420,note_on,,1,0,6,,,,,,,,,,,,,,,,7,,62,56
3479,note_on,,59,0,6,,,,,,,,,,,,,,,,7,,62,0
3480,note_on,,0,0,11,,,,,,,,,,,,,,,,15,,74,48
3480,note_on,,61,0,5,,,,,,,,,,,,,,,,2,,59,48
3480,note_on,,61,0,8,,,,,,,,,,,,,,,,11,,80,48
3480,note_on,,61,0,7,,,,,,,,,,,,,,,,10,,80,48
3480,note_on,,61,0,11,,,,,,,,,,,,,,,,15,,59,48
3480,note_on,,61,0,10,,,,,,,,,,,,,,,,13,,59,48
3480,note_on,,0,0,11,,,,,,,,,,,,,,,,15,,62,48
3480,note_on,,1,0,6,,,,,,,,,,,,,,,,7,,62,56
3539,note_on,,59,0,10,,,,,,,,,,,,,,,,13,,59,0
3539,note_on,,59,0,6,,,,,,,,,,,,,,,,7,,62,0
3539,note_on,,59,0,11,,,,,,,,,,,,,,,,15,,74,0
3539,note_on,,59,0,8,,,,,,,,,,,,,,,,11,,80,0
3539,note_on,,59,0,7,,,,,,,,,,,,,,,,10,,80,0
3539,note_on,,59,0,5,,,,,,,,,,,,,,,,2,,59,0
3540,note_on,,1,0,6,,,,,,,,,,,,,,,,7,,64,56
3540,note_on,,1,0,11,,,,,,,,,,,,,,,,15,,56,48
3540,note_on,,0,0,11,,,,,,,,,,,,,,,,15,,71,48
3540,note_on,,1,0,10,,,,,,,,,,,,,,,,13,,56,48
3540,note_on,,1,0,7,,,,,,,,,,,,,,,,10,,83,48
3540,note_on,,1,0,5,,,,,,,,,,,,,,,,2,,56,48
3540,note_on,,1,0,8,,,,,,,,,,,,,,,,11,,83,48
3599,note_on,,59,0,6,,,,,,,,,,,,,,,,7,,64,0
3599,note_on,,0,0,11,,,,,,,,,,,,,,,,15,,56,0
3599,note_on,,0,0,11,,,,,,,,,,,,,,,,15,,71,0
3599,note_on,,59,0,11,,,,,,,,,,,,,,,,15,,59,0
3599,note_on,,59,0,5,,,,,,,,,,,,,,,,2,,56,0
3599,note_on,,0,0,11,,,,,,,,,,,,,,,,15,,62,0
3599,note_on,,59,0,10,,,,,,,,,,,,,,,,13,,56,0
3600,note_on,,1,0,11,,,,,,,,,,,,,,,,15,,52,48
3600,note_on,,0,0,11,,,,,,,,,,,,,,,,15,,64,48
3600,note_on,,1,0,6,,,,,,,,,,,,,,,,7,,59,56
3600,note_on,,0,0,11,,,,,,,,,,,,,,,,15,,59,48
3600,note_on,,1,0,10,,,,,,,,,,,,,,,,13,,52,48
3600,note_on,,1,0,5,,,,,,,,,,,,,,,,2,,52,48
3600,note_on,,0,0,11,,,,,,,,,,,,,,,,15,,68,48
3659,note_on,,59,0,10,,,,,,,,,,,,,,,,13,,52,0
3659,note_on,,59,0,6,,,,,,,,,,,,,,,,7,,59,0
3659,note_on,,59,0,5,,,,,,,,,,,,,,,,2,,52,0
3659,note_on,,59,0,11,,,,,,,,,,,,,,,,15,,52,0
3659,note_on,,119,0,8,,,,,,,,,,,,,,,,11,,83,0
3659,note_on,,0,0,11,,,,,,,,,,,,,,,,15,,59,0
3659,note_on,,0,0,11,,,,,,,,,,,,,,,,15,,68,0
3659,note_on,,0,0,11,,,,,,,,,,,,,,,,15,,64,0
3659,note_on,,119,0,7,,,,,,,,,,,,,,,,10,,83,0
3660,note_on,,1,0,6,,,,,,,,,,,,,,,,7,,60,56
3719,note_on,,59,0,6,,,,,,,,,,,,,,,,7,,60,0
3720,note_on,,0,0,11,,,,,,,,,,,,,,,,15,,64,48
3720,note_on,,61,0,5,,,,,,,,,,,,,,,,2,,57,48
3720,note_on,,61,0,7,,,,,,,,,,,,,,,,10,,69,48
3720,note_on,,0,0,11,,,,,,,,,,,,,,,,15,,60,48
3720,note_on,,61,0,10,,,,,,,,,,,,,,,,13,,57,48
3720,note_on,,1,0,6,,,,,,,,,,,,,,,,7,,60,56
3720,note_on,,61,0,8,,,,,,,,,,,,,,,,11,,69,48
3720,note_on,,61,0,11,,,,,,,,,,,,,,,,15,,57,48
3779,note_on,,59,0,5,,,,,,,,,,,,,,,,2,,57,0
3779,note_on,,59,0,8,,,,,,,,,,,,,,,,11,,69,0
3779,note_on,,59,0,11,,,,,,,,,,,,,,,,15,,57,0
3779,note_on,,0,0,11,,,,,,,,,,,,,,,,15,,60,0
3779,note_on,,0,0,11,,,,,,,,,,,,,,,,15,,64,0
3779,note_on,,59,0,7,,,,,,,,,,,,,,,,10,,69,0
3779,note_on,,59,0,10,,,,,,,,,,,,,,,,13,,57,0
3779,note_on,,59,0,6,,,,,,,,,,,,,,,,7,,60,0
3780,note_on,,0,0,11,,,,,,,,,,,,,,,,15,,69,48
3780,note_on,,0,0,11,,,,,,,,,,,,,,,,15,,64,48
3780,note_on,,1,0,11,,,,,,,,,,,,,,,,15,,60,48
3780,note_on,,1,0,5,,,,,,,,,,,,,,,,2,,60,48
3780,note_on,,1,0,7,,,,,,,,,,,,,,,,10,,81,48
3780,note_on,,1,0,8,,,,,,,,,,,,,,,,11,,81,48
3780,note_on,,1,0,10,,,,,,,,,,,,,,,,13,,60,48
3839,note_on,,59,0,5,,,,,,,,,,,,,,,,2,,60,0
3839,note_on,,59,0,11,,,,,,,,,,,,,,,,15,,60,0
3839,note_on,,0,0,11,,,,,,,,,,,,,,,,15,,69,0
3839,note_on,,0,0,11,,,,,,,,,,,,,,,,15,,64,0
3839,note_on,,59,0,10,,,,,,,,,,,,,,,,13,,60,0
3840,note_on,,1,0,5,,,,,,,,,,,,,,,,2,,57,48
3840,note_on,,1,0,10,,,,,,,,,,,,,,,,13,,57,48
3840,note_on,,0,0,11,,,,,,,,,,,,,,,,15,,69,48
3840,note_on,,0,0,11,,,,,,,,,,,,,,,,15,,72,48
3840,note_on,,1,0,11,,,,,,,,,,,,,,,,15,,57,48
3840,note_on,,0,0,11,,,,,,,,,,,,,,,,15,,64,48
3899,note_on,,59,0,11,,,,,,,,,,,,,,,,15,,57,0
3899,note_on,,119,0,8,,,,,,,,,,,,,,,,11,,81,0
3899,note_on,,0,0,11,,,,,,,,,,,,,,,,15,,69,0
3899,note_on,,0,0,11,,,,,,,,,,,,,,,,15,,64,0
3899,note_on,,59,0,5,,,,,,,,,,,,,,,,2,,57,0
3899,note_on,,59,0,10,,,,,,,,,,,,,,,,13,,57,0
3899,note_on,,119,0,7,,,,,,,,,,,,,,,,10,,81,0
3899,note_on,,0,0,11,,,,,,,,,,,,,,,,15,,72,0
3900,note_on,,121,0,6,,,,,,,,,,,,,,,,7,,60,56
3960,note_on,,61,0,10,,,,,,,,,,,,,,,,13,,57,48
3960,note_on,,61,0,5,,,,,,,,,,,,,,,,2,,57,48
3960,note_on,,0,0,11,,,,,,,,,,,,,,,,15,,69,48
3960,note_on,,61,0,11,,,,,,,,,,,,,,,,15,,57,48
3960,note_on,,61,0,7,,,,,,,,,,,,,,,,10,,72,48
3960,note_on,,0,0,11,,,,,,,,,,,,,,,,15,,60,48
3960,note_on,,0,0,11,,,,,,,,,,,,,,,,15,,66,48
3960,note_on,,61,0,8,,,,,,,,,,,,,,,,11,,72,48
3989,note_on,,89,0,6,,,,,,,,,,,,,,,,7,,60,0
3990,note_on,,1,0,6,,,,,,,,,,,,,,,,7,,60,56
4019,note_on,,59,0,7,,,,,,,,,,,,,,,,10,,72,0
4019,note_on,,59,0,5,,,,,,,,,,,,,,,,2,,57,0
4019,note_on,,29,0,6,,,,,,,,,,,,,,,,7,,60,0
4019,note_on,,59,0,8,,,,,,,,,,,,,,,,11,,72,0
4019,note_on,,59,0,10,,,,,,,,,,,,,,,,13,,57,0
4019,note_on,,0,0,11,,,,,,,,,,,,,,,,15,,60,0
4019,note_on,,0,0,11,,,,,,,,,,,,,,,,15,,66,0
4019,note_on,,59,0,11,,,,,,,,,,,,,,,,15,,57,0
4019,note_on,,0,0,11,,,,,,,,,,,,,,,,15,,69,0
4020,note_on,,1,0,11,,,,,,,,,,,,,,,,15,,54,48
4020,note_on,,1,0,6,,,,,,,,,,,,,,,,7,,62,56
4020,note_on,,0,0,11,,,,,,,,,,,,,,,,15,,62,48
4020,note_on,,1,0,7,,,,,,,,,,,,,,,,10,,81,48
4020,note_on,,1,0,10,,,,,,,,,,,,,,,,13,,54,48
4020,note_on,,1,0,5,,,,,,,,,,,,,,,,2,,54,48
4020,note_on,,1,0,8,,,,,,,,,,,,,,,,11,,81,48
4020,note_on,,0,0,11,,,,,,,,,,,,,,,,15,,69,48
4020,note_on,,0,0,11,,,,,,,,,,,,,,,,15,,72,48
4079,note_on,,59,0,11,,,,,,,,,,,,,,,,15,,54,0
4079,note_on,,0,0,11,,,,,,,,,,,,,,,,15,,72,0
4079,note_on,,0,0,11,,,,,,,,,,,,,,,,15,,62,0
4079,note_on,,59,0,10,,,,,,,,,,,,,,,,13,,54,0
4079,note_on,,0,0,11,,,,,,,,,,,,,,,,15,,69,0
4079,note_on,,59,0,6,,,,,,,,,,,,,,,,7,,62,0
4079,note_on,,59,0,5,,,,,,,,,,,,,,,,2,,54,0
4080,note_on,,1,0,6,,,,,,,,,,,,,,,,7,,57,56
4080,note_on,,0,0,11,,,,,,,,,,,,,,,,15,,72,48
4080,note_on,,0,0,11,,,,,,,,,,,,,,,,15,,69,48
4080,note_on,,1,0,10,,,,,,,,,,,,,,,,13,,50,48
4080,note_on,,0,0,11,,,,,,,,,,,,,,,,15,,78,48
4080,note_on,,1,0,5,,,,,,,,,,,,,,,,2,,50,48
4080,note_on,,1,0,11,,,,,,,,,,,,,,,,15,,50,48
4139,note_on,,0,0,11,,,,,,,,,,,,,,,,15,,69,0
4139,note_on,,0,0,11,,,,,,,,,,,,,,,,15,,72,0
4139,note_on,,0,0,11,,,,,,,,,,,,,,,,15,,78,0
4139,note_on,,59,0,11,,,,,,,,,,,,,,,,15,,50,0
4139,note_on,,59,0,5,,,,,,,,,,,,,,,,2,,50,0
4139,note_on,,59,0,10,,,,,,,,,,,,,,,,13,,50,0
4139,note_on,,119,0,7,,,,,,,,,,,,,,,,10,,81,0
4139,note_on,,59,0,6,,,,,,,,,,,,,,,,7,,57,0
4139,note_on,,119,0,8,,,,,,,,,,,,,,,,11,,81,0
4140,note_on,,1,0,6,,,,,,,,,,,,,,,,7,,59,56
4199,note_on,,59,0,6,,,,,,,,,,,,,,,,7,,59,0
4200,note_on,,0,0,11,,,,,,,,,,,,,,,,15,,67,48
4200,note_on,,0,0,11,,,,,,,,,,,,,,,,15,,71,48
4200,note_on,,0,0,11,,,,,,,,,,,,,,,,15,,74,48
4200,note_on,,61,0,11,,,,,,,,,,,,,,,,15,,55,48
4200,note_on,,61,0,10,,,,,,,,,,,,,,,,13,,55,48
4200,note_on,,1,0,6,,,,,,,,,,,,,,,,7,,59,56
4200,note_on,,61,0,8,,,,,,,,,,,,,,,,11,,67,48
4200,note_on,,61,0,7,,,,,,,,,,,,,,,,10,,67,48
4200,note_on,,61,0,5,,,,,,,,,,,,,,,,2,,55,48
4259,note_on,,59,0,6,,,,,,,,,,,,,,,,7,,59,0
4259,note_on,,59,0,5,,,,,,,,,,,,,,,,2,,55,0
4259,note_on,,0,0,11,,,,,,,,,,,,,,,,15,,67,0
4259,note_on,,59,0,10,,,,,,,,,,,,,,,,13,,55,0
4259,note_on,,0,0,11,,,,,,,,,,,,,,,,15,,71,0
4259,note_on,,59,0,11,,,,,,,,,,,,,,,,15,,55,0
4259,note_on,,0,0,11,,,,,,,,,,,,,,,,15,,74,0
4259,note_on,,59,0,8,,,,,,,,,,,,,,,,11,,67,0
4259,note_on,,59,0,7,,,,,,,,,,,,,,,,10,,67,0
4260,note_on,,0,0,11,,,,,,,,,,,,,,,,15,,74,48
4260,note_on,,0,0,11,,,,,,,,,,,,,,,,15,,79,48
4260,note_on,,1,0,8,,,,,,,,,,,,,,,,11,,79,48
4260,note_on,,1,0,11,,,,,,,,,,,,,,,,15,,59,48
4260,note_on,,1,0,10,,,,,,,,,,,,,,,,13,,59,48
4260,note_on,,1,0,5,,,,,,,,,,,,,,,,2,,59,48
4260,note_on,,0,0,11,,,,,,,,,,,,,,,,15,,67,48
4260,note_on,,1,0,7,,,,,,,,,,,,,,,,10,,79,48
4319,note_on,,59,0,11,,,,,,,,,,,,,,,,15,,59,0
4319,note_on,,0,0,11,,,,,,,,,,,,,,,,15,,79,0
4319,note_on,,0,0,11,,,,,,,,,,,,,,,,15,,74,0
4319,note_on,,0,0,11,,,,,,,,,,,,,,,,15,,67,0
4319,note_on,,59,0,10,,,,,,,,,,,,,,,,13,,59,0
4319,note_on,,59,0,5,,,,,,,,,,,,,,,,2,,59,0
4320,note_on,,1,0,5,,,,,,,,,,,,,,,,2,,55,48
4320,note_on,,1,0,11,,,,,,,,,,,,,,,,15,,55,48
4320,note_on,,61,0,6,,,,,,,,,,,,,,,,7,,59,56
4320,note_on,,1,0,10,,,,,,,,,,,,,,,,13,,55,48
4320,note_on,,0,0,11,,,,,,,,,,,,,,,,15,,74,48
4320,note_on,,0,0,11,,,,,,,,,,,,,,,,15,,71,48
4320,note_on,,0,0,11,,,,,,,,,,,,,,,,15,,67,48
4379,note_on,,0,0,11,,,,,,,,,,,,,,,,15,,67,0
4379,note_on,,59,0,6,,,,,,,,,,,,,,,,7,,59,0
4379,note_on,,119,0,8,,,,,,,,,,,,,,,,11,,79,0
4379,note_on,,59,0,11,,,,,,,,,,,,,,,,15,,55,0
4379,note_on,,0,0,11,,,,,,,,,,,,,,,,15,,74,0
4379,note_on,,0,0,11,,,,,,,,,,,,,,,,15,,71,0
4379,note_on,,59,0,5,,,,,,,,,,,,,,,,2,,55,0
4379,note_on,,119,0,7,,,,,,,,,,,,,,,,10,,79,0
4379,note_on,,59,0,10,,,,,,,,,,,,,,,,13,,55,0
4380,note_on,,1,0,6,,,,,,,,,,,,,,,,7,,67,56
4440,note_on,,61,0,7,,,,,,,,,,,,,,,,10,,71,48
4440,note_on,,61,0,8,,,,,,,,,,,,,,,,11,,71,48
4440,note_on,,0,0,11,,,,,,,,,,,,,,,,15,,71,48
4440,note_on,,0,0,11,,,,,,,,,,,,,,,,15,,67,48
4440,note_on,,61,0,10,,,,,,,,,,,,,,,,13,,52,48
4440,note_on,,0,0,11,,,,,,,,,,,,,,,,15,,76,48
4440,note_on,,61,0,5,,,,,,,,,,,,,,,,2,,52,48
4440,note_on,,61,0,11,,,,,,,,,,,,,,,,15,,52,48
4499,note_on,,59,0,8,,,,,,,,,,,,,,,,11,,71,0
4499,note_on,,59,0,7,,,,,,,,,,,,,,,,10,,71,0
4499,note_on,,59,0,10,,,,,,,,,,,,,,,,13,,52,0
4499,note_on,,59,0,11,,,,,,,,,,,,,,,,15,,52,0
4499,note_on,,0,0,11,,,,,,,,,,,,,,,,15,,76,0
4499,note_on,,0,0,11,,,,,,,,,,,,,,,,15,,71,0
4499,note_on,,0,0,11,,,,,,,,,,,,,,,,15,,67,0
4499,note_on,,59,0,5,,,,,,,,,,,,,,,,2,,52,0
4499,note_on,,119,0,6,,,,,,,,,,,,,,,,7,,67,0
4500,note_on,,1,0,11,,,,,,,,,,,,,,,,15,,55,48
4500,note_on,,1,0,8,,,,,,,,,,,,,,,,11,,76,48
4500,note_on,,1,0,5,,,,,,,,,,,,,,,,2,,55,48
4500,note_on,,1,0,10,,,,,,,,,,,,,,,,13,,55,48
4500,note_on,,0,0,11,,,,,,,,,,,,,,,,15,,71,48
4500,note_on,,0,0,11,,,,,,,,,,,,,,,,15,,64,48
4500,note_on,,0,0,11,,,,,,,,,,,,,,,,15,,59,48
4500,note_on,,1,0,7,,,,,,,,,,,,,,,,10,,76,48
4559,note_on,,59,0,5,,,,,,,,,,,,,,,,2,,55,0
4559,note_on,,59,0,10,,,,,,,,,,,,,,,,13,,55,0
4559,note_on,,59,0,11,,,,,,,,,,,,,,,,15,,55,0
4559,note_on,,0,0,11,,,,,,,,,,,,,,,,15,,71,0
4560,note_on,,0,0,11,,,,,,,,,,,,,,,,15,,67,48
4560,note_on,,61,0,6,,,,,,,,,,,,,,,,7,,59,56
4560,note_on,,1,0,5,,,,,,,,,,,,,,,,2,,52,48
4560,note_on,,1,0,11,,,,,,,,,,,,,,,,15,,52,48
4560,note_on,,1,0,10,,,,,,,,,,,,,,,,13,,52,48
4589,note_on,,29,0,6,,,,,,,,,,,,,,,,7,,59,0
4590,note_on,,1,0,6,,,,,,,,,,,,,,,,7,,57,56
4619,note_on,,59,0,10,,,,,,,,,,,,,,,,13,,52,0
4619,note_on,,119,0,8,,,,,,,,,,,,,,,,11,,76,0
4619,note_on,,0,0,11,,,,,,,,,,,,,,,,15,,52,0
4619,note_on,,29,0,6,,,,,,,,,,,,,,,,7,,57,0
4619,note_on,,119,0,7,,,,,,,,,,,,,,,,10,,76,0
4619,note_on,,59,0,5,,,,,,,,,,,,,,,,2,,52,0
4619,note_on,,59,0,11,,,,,,,,,,,,,,,,15,,64,0
4619,note_on,,0,0,11,,,,,,,,,,,,,,,,15,,59,0
4619,note_on,,0,0,11,,,,,,,,,,,,,,,,15,,67,0
4620,note_on,,1,0,6,,,,,,,,,,,,,,,,7,,57,56
4680,note_on,,61,0,10,,,,,,,,,,,,,,,,13,,49,48
4680,note_on,,61,0,7,,,,,,,,,,,,,,,,10,,69,48
4680,note_on,,61,0,5,,,,,,,,,,,,,,,,2,,49,48
4680,note_on,,0,0,11,,,,,,,,,,,,,,,,15,,64,48
4680,note_on,,0,0,11,,,,,,,,,,,,,,,,15,,57,48
4680,note_on,,0,0,11,,,,,,,,,,,,,,,,15,,67,48
4680,note_on,,61,0,8,,,,,,,,,,,,,,,,11,,69,48
4680,note_on,,61,0,11,,,,,,,,,,,,,,,,15,,49,48
4739,note_on,,59,0,8,,,,,,,,,,,,,,,,11,,69,0
4739,note_on,,59,0,10,,,,,,,,,,,,,,,,13,,49,0
4739,note_on,,59,0,11,,,,,,,,,,,,,,,,15,,49,0
4739,note_on,,119,0,6,,,,,,,,,,,,,,,,7,,57,0
4739,note_on,,0,0,11,,,,,,,,,,,,,,,,15,,57,0
4739,note_on,,59,0,7,,,,,,,,,,,,,,,,10,,69,0
4739,note_on,,59,0,5,,,,,,,,,,,,,,,,2,,49,0
4740,note_on,,1,0,11,,,,,,,,,,,,,,,,15,,52,48
4740,note_on,,1,0,5,,,,,,,,,,,,,,,,2,,52,48
4740,note_on,,1,0,10,,,,,,,,,,,,,,,,13,,52,48
4740,note_on,,1,0,7,,,,,,,,,,,,,,,,10,,79,48
4740,note_on,,1,0,8,,,,,,,,,,,,,,,,11,,79,48
4740,note_on,,0,0,11,,,,,,,,,,,,,,,,15,,61,48
4799,note_on,,59,0,5,,,,,,,,,,,,,,,,2,,52,0
4799,note_on,,59,0,10,,,,,,,,,,,,,,,,13,,52,0
4799,note_on,,0,0,11,,,,,,,,,,,,,,,,15,,61,0
4799,note_on,,59,0,11,,,,,,,,,,,,,,,,15,,52,0
4800,note_on,,1,0,5,,,,,,,,,,,,,,,,2,,49,48
4800,note_on,,1,0,11,,,,,,,,,,,,,,,,15,,49,48
4800,note_on,,61,0,6,,,,,,,,,,,,,,,,7,,57,56
4800,note_on,,1,0,10,,,,,,,,,,,,,,,,13,,49,48
4800,note_on,,0,0,11,,,,,,,,,,,,,,,,15,,57,48
4829,note_on,,29,0,6,,,,,,,,,,,,,,,,7,,57,0
4830,note_on,,1,0,6,,,,,,,,,,,,,,,,7,,57,56
4859,note_on,,29,0,6,,,,,,,,,,,,,,,,7,,57,0
4859,note_on,,59,0,10,,,,,,,,,,,,,,,,13,,49,0
4859,note_on,,59,0,11,,,,,,,,,,,,,,,,15,,67,0
4859,note_on,,0,0,11,,,,,,,,,,,,,,,,15,,64,0
4859,note_on,,0,0,11,,,,,,,,,,,,,,,,15,,49,0
4859,note_on,,0,0,11,,,,,,,,,,,,,,,,15,,57,0
4859,note_on,,119,0,8,,,,,,,,,,,,,,,,11,,79,0
4859,note_on,,59,0,5,,,,,,,,,,,,,,,,2,,49,0
4859,note_on,,119,0,7,,,,,,,,,,,,,,,,10,,79,0
4860,note_on,,1,0,6,,,,,,,,,,,,,,,,7,,66,56
4920,note_on,,61,0,8,,,,,,,,,,,,,,,,11,,69,48
4920,note_on,,61,0,5,,,,,,,,,,,,,,,,2,,51,48
4920,note_on,,61,0,10,,,,,,,,,,,,,,,,13,,51,48
4920,note_on,,61,0,11,,,,,,,,,,,,,,,,15,,51,48
4920,note_on,,0,0,11,,,,,,,,,,,,,,,,15,,59,48
4920,note_on,,0,0,11,,,,,,,,,,,,,,,,15,,54,48
4920,note_on,,61,0,7,,,,,,,,,,,,,,,,10,,69,48
4979,note_on,,59,0,11,,,,,,,,,,,,,,,,15,,51,0
4979,note_on,,59,0,7,,,,,,,,,,,,,,,,10,,69,0
4979,note_on,,119,0,6,,,,,,,,,,,,,,,,7,,66,0
4979,note_on,,59,0,8,,,,,,,,,,,,,,,,11,,69,0
4979,note_on,,0,0,11,,,,,,,,,,,,,,,,15,,59,0
4979,note_on,,59,0,10,,,,,,,,,,,,,,,,13,,51,0
4979,note_on,,0,0,11,,,,,,,,,,,,,,,,15,,54,0
4979,note_on,,59,0,5,,,,,,,,,,,,,,,,2,,51,0
4980,note_on,,1,0,6,,,,,,,,,,,,,,,,7,,63,56
4980,note_on,,1,0,8,,,,,,,,,,,,,,,,11,,78,48
4980,note_on,,1,0,10,,,,,,,,,,,,,,,,13,,54,48
4980,note_on,,0,0,11,,,,,,,,,,,,,,,,15,,57,48
4980,note_on,,0,0,11,,,,,,,,,,,,,,,,15,,63,48
4980,note_on,,1,0,11,,,,,,,,,,,,,,,,15,,54,48
4980,note_on,,1,0,7,,,,,,,,,,,,,,,,10,,78,48
4980,note_on,,1,0,5,,,,,,,,,,,,,,,,2,,54,48
5039,note_on,,0,0,11,,,,,,,,,,,,,,,,15,,63,0
5039,note_on,,59,0,11,,,,,,,,,,,,,,,,15,,54,0
5039,note_on,,59,0,10,,,,,,,,,,,,,,,,13,,54,0
5039,note_on,,59,0,5,,,,,,,,,,,,,,,,2,,54,0
5039,note_on,,59,0,6,,,,,,,,,,,,,,,,7,,63,0
5040,note_on,,1,0,11,,,,,,,,,,,,,,,,15,,51,48
5040,note_on,,0,0,11,,,,,,,,,,,,,,,,15,,66,48
5040,note_on,,1,0,6,,,,,,,,,,,,,,,,7,,59,56
5040,note_on,,1,0,10,,,,,,,,,,,,,,,,13,,51,48
5040,note_on,,1,0,5,,,,,,,,,,,,,,,,2,,51,48
5099,note_on,,59,0,5,,,,,,,,,,,,,,,,2,,51,0
5099,note_on,,59,0,6,,,,,,,,,,,,,,,,7,,59,0
5099,note_on,,119,0,7,,,,,,,,,,,,,,,,10,,78,0
5099,note_on,,59,0,11,,,,,,,,,,,,,,,,15,,57,0
5099,note_on,,59,0,10,,,,,,,,,,,,,,,,13,,51,0
5099,note_on,,0,0,11,,,,,,,,,,,,,,,,15,,51,0
5099,note_on,,0,0,11,,,,,,,,,,,,,,,,15,,66,0
5099,note_on,,119,0,8,,,,,,,,,,,,,,,,11,,78,0
5100,note_on,,1,0,6,,,,,,,,,,,,,,,,7,,55,56
5129,note_on,,29,0,6,,,,,,,,,,,,,,,,7,,55,0
5130,note_on,,1,0,6,,,,,,,,,,,,,,,,7,,54,56
5159,note_on,,29,0,6,,,,,,,,,,,,,,,,7,,54,0
5160,note_on,,61,0,10,,,,,,,,,,,,,,,,13,,52,48
5160,note_on,,1,0,6,,,,,,,,,,,,,,,,7,,52,56
5160,note_on,,61,0,11,,,,,,,,,,,,,,,,15,,52,48
5160,note_on,,0,0,11,,,,,,,,,,,,,,,,15,,67,48
5160,note_on,,0,0,11,,,,,,,,,,,,,,,,15,,55,48
5160,note_on,,61,0,7,,,,,,,,,,,,,,,,10,,67,48
5160,note_on,,61,0,8,,,,,,,,,,,,,,,,11,,67,48
5160,note_on,,61,0,5,,,,,,,,,,,,,,,,2,,52,48
5219,note_on,,59,0,11,,,,,,,,,,,,,,,,15,,52,0
5219,note_on,,0,0,11,,,,,,,,,,,,,,,,15,,67,0
5219,note_on,,0,0,11,,,,,,,,,,,,,,,,15,,55,0
5219,note_on,,59,0,5,,,,,,,,,,,,,,,,2,,52,0
5219,note_on,,59,0,10,,,,,,,,,,,,,,,,13,,52,0
5219,note_on,,59,0,7,,,,,,,,,,,,,,,,10,,67,0
5219,note_on,,59,0,8,,,,,,,,,,,,,,,,11,,67,0
5219,note_on,,59,0,6,,,,,,,,,,,,,,,,7,,52,0
5220,note_on,,1,0,7,,,,,,,,,,,,,,,,10,,76,48
5220,note_on,,1,0,8,,,,,,,,,,,,,,,,11,,76,48
5220,note_on,,1,0,10,,,,,,,,,,,,,,,,13,,55,48
5220,note_on,,1,0,11,,,,,,,,,,,,,,,,15,,55,48
5220,note_on,,0,0,11,,,,,,,,,,,,,,,,15,,71,48
5220,note_on,,0,0,11,,,,,,,,,,,,,,,,15,,64,48
5220,note_on,,1,0,5,,,,,,,,,,,,,,,,2,,55,48
5279,note_on,,59,0,5,,,,,,,,,,,,,,,,2,,55,0
5279,note_on,,0,0,11,,,,,,,,,,,,,,,,15,,64,0
5279,note_on,,0,0,11,,,,,,,,,,,,,,,,15,,71,0
5279,note_on,,59,0,10,,,,,,,,,,,,,,,,13,,55,0
5279,note_on,,59,0,11,,,,,,,,,,,,,,,,15,,55,0
5280,note_on,,1,0,5,,,,,,,,,,,,,,,,2,,52,48
5280,note_on,,0,0,11,,,,,,,,,,,,,,,,15,,76,48
5280,note_on,,1,0,11,,,,,,,,,,,,,,,,15,,52,48
5280,note_on,,1,0,10,,,,,,,,,,,,,,,,13,,52,48
5280,note_on,,0,0,11,,,,,,,,,,,,,,,,15,,67,48
5280,note_on,,0,0,11,,,,,,,,,,,,,,,,15,,71,48
5339,note_on,,59,0,10,,,,,,,,,,,,,,,,13,,52,0
5339,note_on,,119,0,8,,,,,,,,,,,,,,,,11,,76,0
5339,note_on,,119,0,7,,,,,,,,,,,,,,,,10,,76,0
5339,note_on,,0,0,11,,,,,,,,,,,,,,,,15,,76,0
5339,note_on,,59,0,11,,,,,,,,,,,,,,,,15,,52,0
5339,note_on,,59,0,5,,,,,,,,,,,,,,,,2,,52,0
5339,note_on,,0,0,11,,,,,,,,,,,,,,,,15,,71,0
5339,note_on,,0,0,11,,,,,,,,,,,,,,,,15,,67,0
5340,note_on,,121,0,6,,,,,,,,,,,,,,,,7,,55,56
5400,note_on,,61,0,11,,,,,,,,,,,,,,,,15,,48,48
5400,note_on,,0,0,11,,,,,,,,,,,,,,,,15,,76,48
5400,note_on,,0,0,11,,,,,,,,,,,,,,,,15,,72,48
5400,note_on,,0,0,11,,,,,,,,,,,,,,,,15,,67,48
5400,note_on,,61,0,7,,,,,,,,,,,,,,,,10,,64,48
5400,note_on,,61,0,5,,,,,,,,,,,,,,,,2,,48,48
5400,note_on,,61,0,8,,,,,,,,,,,,,,,,11,,64,48
5400,note_on,,61,0,10,,,,,,,,,,,,,,,,13,,48,48
5459,note_on,,59,0,5,,,,,,,,,,,,,,,,2,,48,0
5459,note_on,,59,0,8,,,,,,,,,,,,,,,,11,,64,0
5459,note_on,,59,0,10,,,,,,,,,,,,,,,,13,,48,0
5459,note_on,,59,0,11,,,,,,,,,,,,,,,,15,,48,0
5459,note_on,,59,0,7,,,,,,,,,,,,,,,,10,,64,0
5460,note_on,,1,0,5,,,,,,,,,,,,,,,,2,,47,48
5460,note_on,,1,0,10,,,,,,,,,,,,,,,,13,,47,48
5460,note_on,,1,0,7,,,,,,,,,,,,,,,,10,,62,48
5460,note_on,,1,0,11,,,,,,,,,,,,,,,,15,,47,48
5460,note_on,,1,0,8,,,,,,,,,,,,,,,,11,,62,48
5519,note_on,,59,0,11,,,,,,,,,,,,,,,,15,,47,0
5519,note_on,,59,0,7,,,,,,,,,,,,,,,,10,,62,0
5519,note_on,,59,0,5,,,,,,,,,,,,,,,,2,,47,0
5519,note_on,,59,0,8,,,,,,,,,,,,,,,,11,,62,0
5519,note_on,,59,0,10,,,,,,,,,,,,,,,,13,,47,0
5520,note_on,,1,0,8,,,,,,,,,,,,,,,,11,,64,48
5520,note_on,,1,0,5,,,,,,,,,,,,,,,,2,,48,48
5520,note_on,,1,0,7,,,,,,,,,,,,,,,,10,,64,48
5520,note_on,,1,0,10,,,,,,,,,,,,,,,,13,,48,48
5520,note_on,,1,0,11,,,,,,,,,,,,,,,,15,,48,48
5579,note_on,,59,0,11,,,,,,,,,,,,,,,,15,,76,0
5579,note_on,,0,0,11,,,,,,,,,,,,,,,,15,,67,0
5579,note_on,,0,0,11,,,,,,,,,,,,,,,,15,,72,0
5579,note_on,,59,0,8,,,,,,,,,,,,,,,,11,,64,0
5579,note_on,,59,0,7,,,,,,,,,,,,,,,,10,,64,0
5579,note_on,,59,0,10,,,,,,,,,,,,,,,,13,,48,0
5579,note_on,,59,0,5,,,,,,,,,,,,,,,,2,,48,0
5579,note_on,,0,0,11,,,,,,,,,,,,,,,,15,,48,0
5580,note_on,,1,0,8,,,,,,,,,,,,,,,,11,,59,48
5580,note_on,,0,0,11,,,,,,,,,,,,,,,,15,,76,48
5580,note_on,,0,0,11,,,,,,,,,,,,,,,,15,,71,48
5580,note_on,,0,0,11,,,,,,,,,,,,,,,,15,,64,48
5580,note_on,,1,0,11,,,,,,,,,,,,,,,,15,,43,48
5580,note_on,,1,0,10,,,,,,,,,,,,,,,,13,,43,48
5580,note_on,,1,0,5,,,,,,,,,,,,,,,,2,,43,48
5580,note_on,,1,0,7,,,,,,,,,,,,,,,,10,,59,48
5639,note_on,,299,0,6,,,,,,,,,,,,,,,,7,,55,0
5640,note_on,,1,0,6,,,,,,,,,,,,,,,,7,,52,56
5699,note_on,,0,0,11,,,,,,,,,,,,,,,,15,,71,0
5699,note_on,,119,0,8,,,,,,,,,,,,,,,,11,,59,0
5699,note_on,,119,0,7,,,,,,,,,,,,,,,,10,,59,0
5699,note_on,,119,0,10,,,,,,,,,,,,,,,,13,,43,0
5699,note_on,,119,0,11,,,,,,,,,,,,,,,,15,,43,0
5699,note_on,,0,0,11,,,,,,,,,,,,,,,,15,,76,0
5699,note_on,,119,0,5,,,,,,,,,,,,,,,,2,,43,0
5699,note_on,,59,0,6,,,,,,,,,,,,,,,,7,,52,0
5699,note_on,,0,0,11,,,,,,,,,,,,,,,,15,,64,0
5700,note_on,,1,0,6,,,,,,,,,,,,,,,,7,,52,56
5759,note_on,,59,0,6,,,,,,,,,,,,,,,,7,,52,0
5760,note_on,,1,0,6,,,,,,,,,,,,,,,,7,,52,56
5819,note_on,,59,0,6,,,,,,,,,,,,,,,,7,,52,0
5820,note_on,,1,0,6,,,,,,,,,,,,,,,,7,,52,56
5849,note_on,,29,0,6,,,,,,,,,,,,,,,,7,,52,0
5850,note_on,,1,0,6,,,,,,,,,,,,,,,,7,,51,56
5879,note_on,,29,0,6,,,,,,,,,,,,,,,,7,,51,0
5880,note_on,,181,0,10,,,,,,,,,,,,,,,,13,,45,48
5880,note_on,,181,0,5,,,,,,,,,,,,,,,,2,,45,48
5880,note_on,,1,0,6,,,,,,,,,,,,,,,,7,,52,56
5880,note_on,,0,0,11,,,,,,,,,,,,,,,,15,,57,48
5880,note_on,,181,0,8,,,,,,,,,,,,,,,,11,,60,48
5880,note_on,,181,0,7,,,,,,,,,,,,,,,,10,,60,48
5880,note_on,,181,0,11,,,,,,,,,,,,,,,,15,,45,48
5880,note_on,,0,0,11,,,,,,,,,,,,,,,,15,,64,48
5880,note_on,,0,0,11,,,,,,,,,,,,,,,,15,,60,48
5939,note_on,,59,0,5,,,,,,,,,,,,,,,,2,,45,0
5939,note_on,,59,0,11,,,,,,,,,,,,,,,,15,,45,0
5939,note_on,,59,0,8,,,,,,,,,,,,,,,,11,,60,0
5939,note_on,,59,0,7,,,,,,,,,,,,,,,,10,,60,0
5939,note_on,,59,0,10,,,,,,,,,,,,,,,,13,,45,0
5940,note_on,,1,0,11,,,,,,,,,,,,,,,,15,,43,48
5940,note_on,,1,0,10,,,,,,,,,,,,,,,,13,,43,48
5940,note_on,,1,0,5,,,,,,,,,,,,,,,,2,,43,48
5940,note_on,,1,0,7,,,,,,,,,,,,,,,,10,,59,48
5940,note_on,,1,0,8,,,,,,,,,,,,,,,,11,,59,48
5999,note_on,,59,0,11,,,,,,,,,,,,,,,,15,,43,0
5999,note_on,,59,0,7,,,,,,,,,,,,,,,,10,,59,0
5999,note_on,,59,0,8,,,,,,,,,,,,,,,,11,,59,0
5999,note_on,,59,0,10,,,,,,,,,,,,,,,,13,,43,0
5999,note_on,,59,0,5,,,,,,,,,,,,,,,,2,,43,0
6000,note_on,,1,0,10,,,,,,,,,,,,,,,,13,,45,48
6000,note_on,,1,0,8,,,,,,,,,,,,,,,,11,,60,48
6000,note_on,,1,0,11,,,,,,,,,,,,,,,,15,,45,48
6000,note_on,,1,0,5,,,,,,,,,,,,,,,,2,,45,48
6000,note_on,,1,0,7,,,,,,,,,,,,,,,,10,,60,48
6059,note_on,,59,0,8,,,,,,,,,,,,,,,,11,,60,0
6059,note_on,,0,0,11,,,,,,,,,,,,,,,,15,,57,0
6059,note_on,,0,0,11,,,,,,,,,,,,,,,,15,,45,0
6059,note_on,,0,0,11,,,,,,,,,,,,,,,,15,,60,0
6059,note_on,,59,0,7,,,,,,,,,,,,,,,,10,,60,0
6059,note_on,,59,0,11,,,,,,,,,,,,,,,,15,,64,0
6059,note_on,,59,0,5,,,,,,,,,,,,,,,,2,,45,0
6059,note_on,,59,0,10,,,,,,,,,,,,,,,,13,,45,0
6059,end_of_track,,0,1,6,,,,,,,,,,,,,,,,,,,
6059,note_on,,179,0,6,,,,,,,,,,,,,,,,7,,52,0
6060,note_on,,0,0,11,,,,,,,,,,,,,,,,15,,64,48
6060,note_on,,0,0,11,,,,,,,,,,,,,,,,15,,55,48
6060,note_on,,1,0,11,,,,,,,,,,,,,,,,15,,40,48
6060,note_on,,1,0,7,,,,,,,,,,,,,,,,10,,55,48
6060,note_on,,0,0,11,,,,,,,,,,,,,,,,15,,59,48
6060,note_on,,1,0,8,,,,,,,,,,,,,,,,11,,55,48
6060,note_on,,1,0,10,,,,,,,,,,,,,,,,13,,40,48
6060,note_on,,1,0,5,,,,,,,,,,,,,,,,2,,40,48
6179,note_on,,119,0,8,,,,,,,,,,,,,,,,11,,55,0
6179,note_on,,0,0,11,,,,,,,,,,,,,,,,15,,55,0
6179,note_on,,0,0,11,,,,,,,,,,,,,,,,15,,59,0
6179,note_on,,0,0,11,,,,,,,,,,,,,,,,15,,64,0
6179,note_on,,119,0,11,,,,,,,,,,,,,,,,15,,40,0
6179,note_on,,119,0,5,,,,,,,,,,,,,,,,2,,40,0
6179,note_on,,119,0,10,,,,,,,,,,,,,,,,13,,40,0
6179,note_on,,119,0,7,,,,,,,,,,,,,,,,10,,55,0
6240,note_on,,61,0,7,,,,,,,,,,,,,,,,10,,71,48
6299,note_on,,59,0,7,,,,,,,,,,,,,,,,10,,71,0
6300,note_on,,1,0,7,,,,,,,,,,,,,,,,10,,79,48
6359,note_on,,59,0,7,,,,,,,,,,,,,,,,10,,79,0
6360,note_on,,1,0,7,,,,,,,,,,,,,,,,10,,78,48
6360,note_on,,181,0,11,,,,,,,,,,,,,,,,15,,47,48
6360,note_on,,181,0,8,,,,,,,,,,,,,,,,11,,63,48
6360,note_on,,0,0,11,,,,,,,,,,,,,,,,15,,66,48
6360,note_on,,0,0,11,,,,,,,,,,,,,,,,15,,63,48
6360,note_on,,0,0,11,,,,,,,,,,,,,,,,15,,59,48
6360,note_on,,181,0,10,,,,,,,,,,,,,,,,13,,47,48
6360,note_on,,181,0,5,,,,,,,,,,,,,,,,2,,47,48
6419,note_on,,59,0,7,,,,,,,,,,,,,,,,10,,78,0
6419,note_on,,59,0,5,,,,,,,,,,,,,,,,2,,47,0
6419,note_on,,59,0,11,,,,,,,,,,,,,,,,15,,47,0
6419,note_on,,59,0,10,,,,,,,,,,,,,,,,13,,47,0
6419,note_on,,0,0,11,,,,,,,,,,,,,,,,15,,59,0
6419,note_on,,0,0,11,,,,,,,,,,,,,,,,15,,63,0
6419,note_on,,59,0,8,,,,,,,,,,,,,,,,11,,63,0
6419,note_on,,0,0,11,,,,,,,,,,,,,,,,15,,66,0
6420,note_on,,0,0,11,,,,,,,,,,,,,,,,15,,59,48
6420,note_on,,1,0,10,,,,,,,,,,,,,,,,13,,55,48
6420,note_on,,0,0,11,,,,,,,,,,,,,,,,15,,71,48
6420,note_on,,1,0,11,,,,,,,,,,,,,,,,15,,55,48
6420,note_on,,1,0,5,,,,,,,,,,,,,,,,2,,55,48
6420,note_on,,1,0,7,,,,,,,,,,,,,,,,10,,76,48
6420,note_on,,1,0,8,,,,,,,,,,,,,,,,11,,71,48
6420,note_on,,0,0,11,,,,,,,,,,,,,,,,15,,64,48
6479,note_on,,59,0,11,,,,,,,,,,,,,,,,15,,55,0
6479,note_on,,59,0,8,,,,,,,,,,,,,,,,11,,71,0
6479,note_on,,59,0,7,,,,,,,,,,,,,,,,10,,76,0
6479,note_on,,0,0,11,,,,,,,,,,,,,,,,15,,59,0
6479,note_on,,59,0,5,,,,,,,,,,,,,,,,2,,55,0
6479,note_on,,59,0,10,,,,,,,,,,,,,,,,13,,55,0
6479,note_on,,0,0,11,,,,,,,,,,,,,,,,15,,71,0
6479,note_on,,0,0,11,,,,,,,,,,,,,,,,15,,64,0
6480,note_on,,1,0,11,,,,,,,,,,,,,,,,15,,54,48
6480,note_on,,0,0,11,,,,,,,,,,,,,,,,15,,69,48
6480,note_on,,3661,0,9,,,,,,,,,,,,,,,,12,,62,48
6480,note_on,,1,0,7,,,,,,,,,,,,,,,,10,,74,48
6480,note_on,,0,0,11,,,,,,,,,,,,,,,,15,,62,48
6480,note_on,,1,0,5,,,,,,,,,,,,,,,,2,,54,48
6480,note_on,,1,0,8,,,,,,,,,,,,,,,,11,,69,48
6480,note_on,,0,0,11,,,,,,,,,,,,,,,,15,,66,48
6480,note_on,,1,0,10,,,,,,,,,,,,,,,,13,,54,48
6539,note_on,,59,0,10,,,,,,,,,,,,,,,,13,,54,0
6539,note_on,,59,0,5,,,,,,,,,,,,,,,,2,,54,0
6539,note_on,,0,0,11,,,,,,,,,,,,,,,,15,,69,0
6539,note_on,,59,0,11,,,,,,,,,,,,,,,,15,,54,0
6539,note_on,,0,0,11,,,,,,,,,,,,,,,,15,,66,0
6539,note_on,,0,0,11,,,,,,,,,,,,,,,,15,,62,0
6539,note_on,,59,0,7,,,,,,,,,,,,,,,,10,,74,0
6539,note_on,,59,0,8,,,,,,,,,,,,,,,,11,,69,0
6539,note_on,,59,0,9,,,,,,,,,,,,,,,,12,,62,0
6540,note_on,,1,0,10,,,,,,,,,,,,,,,,13,,52,48
6540,note_on,,1,0,9,,,,,,,,,,,,,,,,12,,64,48
6540,note_on,,0,0,11,,,,,,,,,,,,,,,,15,,60,48
6540,note_on,,0,0,11,,,,,,,,,,,,,,,,15,,67,48
6540,note_on,,0,0,11,,,,,,,,,,,,,,,,15,,72,48
6540,note_on,,1,0,11,,,,,,,,,,,,,,,,15,,52,48
6540,note_on,,1,0,8,,,,,,,,,,,,,,,,11,,67,48
6540,note_on,,1,0,5,,,,,,,,,,,,,,,,2,,52,48
6540,note_on,,1,0,7,,,,,,,,,,,,,,,,10,,72,48
6599,note_on,,0,0,11,,,,,,,,,,,,,,,,15,,67,0
6599,note_on,,59,0,11,,,,,,,,,,,,,,,,15,,52,0
6599,note_on,,0,0,11,,,,,,,,,,,,,,,,15,,72,0
6599,note_on,,59,0,7,,,,,,,,,,,,,,,,10,,72,0
6599,note_on,,59,0,5,,,,,,,,,,,,,,,,2,,52,0
6599,note_on,,59,0,10,,,,,,,,,,,,,,,,13,,52,0
6599,note_on,,59,0,9,,,,,,,,,,,,,,,,12,,64,0
6599,note_on,,59,0,8,,,,,,,,,,,,,,,,11,,67,0
6599,note_on,,0,0,11,,,,,,,,,,,,,,,,15,,60,0
6600,note_on,,1,0,7,,,,,,,,,,,,,,,,10,,71,48
6600,note_on,,1,0,5,,,,,,,,,,,,,,,,2,,50,48
6600,note_on,,1,0,10,,,,,,,,,,,,,,,,13,,50,48
6600,note_on,,0,0,11,,,,,,,,,,,,,,,,15,,71,48
6600,note_on,,1,0,9,,,,,,,,,,,,,,,,12,,59,48
6600,note_on,,1,0,8,,,,,,,,,,,,,,,,11,,66,48
6600,note_on,,1,0,11,,,,,,,,,,,,,,,,15,,50,48
6600,note_on,,0,0,11,,,,,,,,,,,,,,,,15,,62,48
6600,note_on,,0,0,11,,,,,,,,,,,,,,,,15,,66,48
6659,note_on,,0,0,11,,,,,,,,,,,,,,,,15,,62,0
6659,note_on,,0,0,11,,,,,,,,,,,,,,,,15,,66,0
6659,note_on,,0,0,11,,,,,,,,,,,,,,,,15,,71,0
6659,note_on,,59,0,11,,,,,,,,,,,,,,,,15,,50,0
6659,note_on,,59,0,8,,,,,,,,,,,,,,,,11,,66,0
6659,note_on,,59,0,7,,,,,,,,,,,,,,,,10,,71,0
6659,note_on,,59,0,9,,,,,,,,,,,,,,,,12,,59,0
6659,note_on,,59,0,10,,,,,,,,,,,,,,,,13,,50,0
6659,note_on,,59,0,5,,,,,,,,,,,,,,,,2,,50,0
6720,note_on,,61,0,10,,,,,,,,,,,,,,,,13,,52,48
6720,note_on,,61,0,5,,,,,,,,,,,,,,,,2,,52,48
6720,note_on,,61,0,9,,,,,,,,,,,,,,,,12,,59,48
6720,note_on,,61,0,11,,,,,,,,,,,,,,,,15,,52,48
6720,note_on,,0,0,11,,,,,,,,,,,,,,,,15,,67,48
6720,note_on,,61,0,7,,,,,,,,,,,,,,,,10,,71,48
6720,note_on,,61,0,8,,,,,,,,,,,,,,,,11,,67,48
6720,note_on,,0,0,11,,,,,,,,,,,,,,,,15,,59,48
6720,note_on,,0,0,11,,,,,,,,,,,,,,,,15,,55,48
6779,note_on,,59,0,5,,,,,,,,,,,,,,,,2,,52,0
6779,note_on,,59,0,10,,,,,,,,,,,,,,,,13,,52,0
6779,note_on,,59,0,9,,,,,,,,,,,,,,,,12,,59,0
6779,note_on,,0,0,11,,,,,,,,,,,,,,,,15,,55,0
6779,note_on,,0,0,11,,,,,,,,,,,,,,,,15,,59,0
6779,note_on,,59,0,8,,,,,,,,,,,,,,,,11,,67,0
6779,note_on,,59,0,11,,,,,,,,,,,,,,,,15,,52,0
6780,note_on,,0,0,11,,,,,,,,,,,,,,,,15,,59,48
6780,note_on,,1,0,11,,,,,,,,,,,,,,,,15,,48,48
6780,note_on,,1,0,10,,,,,,,,,,,,,,,,13,,48,48
6780,note_on,,0,0,11,,,,,,,,,,,,,,,,15,,52,48
6780,note_on,,1,0,8,,,,,,,,,,,,,,,,11,,64,48
6780,note_on,,0,0,11,,,,,,,,,,,,,,,,15,,64,48
6780,note_on,,1,0,9,,,,,,,,,,,,,,,,12,,60,48
6780,note_on,,1,0,5,,,,,,,,,,,,,,,,2,,48,48
6839,note_on,,119,0,7,,,,,,,,,,,,,,,,10,,71,0
6840,note_on,,1,0,7,,,,,,,,,,,,,,,,10,,76,48
6899,note_on,,59,0,7,,,,,,,,,,,,,,,,10,,76,0
6899,note_on,,0,0,11,,,,,,,,,,,,,,,,15,,59,0
6899,note_on,,0,0,11,,,,,,,,,,,,,,,,15,,64,0
6899,note_on,,119,0,11,,,,,,,,,,,,,,,,15,,67,0
6899,note_on,,0,0,11,,,,,,,,,,,,,,,,15,,52,0
6900,note_on,,0,0,11,,,,,,,,,,,,,,,,15,,69,48
6900,note_on,,1,0,11,,,,,,,,,,,,,,,,15,,72,48
6900,note_on,,0,0,11,,,,,,,,,,,,,,,,15,,64,48
6900,note_on,,1,0,7,,,,,,,,,,,,,,,,10,,69,48
6959,note_on,,0,0,11,,,,,,,,,,,,,,,,15,,64,0
6959,note_on,,0,0,11,,,,,,,,,,,,,,,,15,,69,0
6959,note_on,,59,0,11,,,,,,,,,,,,,,,,15,,72,0
6960,note_on,,1,0,11,,,,,,,,,,,,,,,,15,,69,48
6960,note_on,,0,0,11,,,,,,,,,,,,,,,,15,,60,48
6960,note_on,,0,0,11,,,,,,,,,,,,,,,,15,,66,48
6989,note_on,,89,0,7,,,,,,,,,,,,,,,,10,,69,0
6990,note_on,,1,0,7,,,,,,,,,,,,,,,,10,,71,48
7019,note_on,,0,0,11,,,,,,,,,,,,,,,,15,,69,0
7019,note_on,,239,0,8,,,,,,,,,,,,,,,,11,,64,0
7019,note_on,,0,0,11,,,,,,,,,,,,,,,,15,,66,0
7019,note_on,,0,0,11,,,,,,,,,,,,,,,,15,,60,0
7019,note_on,,239,0,9,,,,,,,,,,,,,,,,12,,60,0
7019,note_on,,29,0,7,,,,,,,,,,,,,,,,10,,71,0
7019,note_on,,239,0,5,,,,,,,,,,,,,,,,2,,48,0
7019,note_on,,239,0,10,,,,,,,,,,,,,,,,13,,48,0
7019,note_on,,59,0,11,,,,,,,,,,,,,,,,15,,48,0
7020,note_on,,1,0,5,,,,,,,,,,,,,,,,2,,47,48
7020,note_on,,1,0,10,,,,,,,,,,,,,,,,13,,47,48
7020,note_on,,0,0,11,,,,,,,,,,,,,,,,15,,63,48
7020,note_on,,1,0,7,,,,,,,,,,,,,,,,10,,71,48
7020,note_on,,1,0,11,,,,,,,,,,,,,,,,15,,47,48
7020,note_on,,1,0,9,,,,,,,,,,,,,,,,12,,54,48
7020,note_on,,1,0,8,,,,,,,,,,,,,,,,11,,63,48
7020,note_on,,0,0,11,,,,,,,,,,,,,,,,15,,54,48
7020,note_on,,0,0,11,,,,,,,,,,,,,,,,15,,66,48
7139,note_on,,119,0,11,,,,,,,,,,,,,,,,15,,47,0
7139,note_on,,0,0,11,,,,,,,,,,,,,,,,15,,66,0
7139,note_on,,0,0,11,,,,,,,,,,,,,,,,15,,63,0
7139,end_of_track,,0,1,11,,,,,,,,,,,,,,,,,,,
7139,note_on,,119,0,7,,,,,,,,,,,,,,,,10,,71,0
7139,end_of_track,,0,1,7,,,,,,,,,,,,,,,,,,,
7139,note_on,,119,0,8,,,,,,,,,,,,,,,,11,,63,0
7139,end_of_track,,0,1,8,,,,,,,,,,,,,,,,,,,
7139,note_on,,119,0,9,,,,,,,,,,,,,,,,12,,54,0
7139,end_of_track,,0,1,9,,,,,,,,,,,,,,,,,,,
7139,note_on,,0,0,11,,,,,,,,,,,,,,,,15,,54,0
7139,note_on,,119,0,10,,,,,,,,,,,,,,,,13,,47,0
7139,end_of_track,,0,1,10,,,,,,,,,,,,,,,,,,,
7139,end_of_track,,0,1,5,,,,,,,,,,,,,,,,,,,
7139,note_on,,119,0,5,,,,,,,,,,,,,,,,2,,47,0
7260,set_tempo,,6720,1,0,,,,,,,,,1333333,,,,,,,,,,
7260,end_of_track,,0,1,0,,,,,,,,,,,,,,,,,,,
