tick,type,data,time,meta,track,frame_rate,hours,minutes,seconds,frames,sub_frames,port,key,tempo,numerator,denominator,clocks_per_click,notated_32nd_notes_per_beat,control,value,channel,program,note,velocity
0,sequencer_specific,"(0, 0, 91, 35, 1, 0, 5, 4, 35, 0)",0,1,0,,,,,,,,,,,,,,,,,,,
0,track_name,,0,1,7,,,,,,,,,,,,,,,,,,,
0,track_name,,0,1,13,,,,,,,,,,,,,,,,,,,
0,midi_port,,0,1,13,,,,,,,0,,,,,,,,,,,,
0,control_change,,0,0,13,,,,,,,,,,,,,,11,127,12,,,
0,control_change,,0,0,13,,,,,,,,,,,,,,7,96,12,,,
0,control_change,,0,0,13,,,,,,,,,,,,,,10,80,12,,,
0,program_change,,0,0,13,,,,,,,,,,,,,,,,12,48,,
0,midi_port,,0,1,9,,,,,,,0,,,,,,,,,,,,
0,track_name,,0,1,14,,,,,,,,,,,,,,,,,,,
0,midi_port,,0,1,14,,,,,,,0,,,,,,,,,,,,
0,control_change,,0,0,14,,,,,,,,,,,,,,11,127,13,,,
0,control_change,,0,0,14,,,,,,,,,,,,,,7,96,13,,,
0,control_change,,0,0,14,,,,,,,,,,,,,,10,96,13,,,
0,program_change,,0,0,14,,,,,,,,,,,,,,,,13,48,,
0,midi_port,,0,1,7,,,,,,,0,,,,,,,,,,,,
0,note_on,,0,0,14,,,,,,,,,,,,,,,,13,,55,64
0,midi_port,,0,1,15,,,,,,,0,,,,,,,,,,,,
0,control_change,,0,0,15,,,,,,,,,,,,,,11,127,15,,,
0,control_change,,0,0,15,,,,,,,,,,,,,,7,96,15,,,
0,control_change,,0,0,15,,,,,,,,,,,,,,10,90,15,,,
0,program_change,,0,0,15,,,,,,,,,,,,,,,,15,6,,
0,note_on,,0,0,15,,,,,,,,,,,,,,,,15,,55,64
0,note_on,,0,0,15,,,,,,,,,,,,,,,,15,,67,64
0,note_on,,0,0,15,,,,,,,,,,,,,,,,15,,62,64
0,note_on,,0,0,15,,,,,,,,,,,,,,,,15,,58,64
0,note_on,,0,0,6,,,,,,,,,,,,,,,,2,,55,64
0,program_change,,0,0,6,,,,,,,,,,,,,,,,2,70,,
0,control_change,,0,0,6,,,,,,,,,,,,,,10,65,2,,,
0,control_change,,0,0,6,,,,,,,,,,,,,,7,96,2,,,
0,control_change,,0,0,6,,,,,,,,,,,,,,11,127,2,,,
0,track_name,,0,1,15,,,,,,,,,,,,,,,,,,,
0,midi_port,,0,1,6,,,,,,,0,,,,,,,,,,,,
0,control_change,,0,0,7,,,,,,,,,,,,,,11,127,5,,,
0,control_change,,0,0,7,,,,,,,,,,,,,,10,32,5,,,
0,control_change,,0,0,9,,,,,,,,,,,,,,11,127,7,,,
0,control_change,,0,0,9,,,,,,,,,,,,,,7,96,7,,,
0,control_change,,0,0,9,,,,,,,,,,,,,,10,48,7,,,
0,program_change,,0,0,9,,,,,,,,,,,,,,,,7,70,,
0,track_name,,0,1,10,,,,,,,,,,,,,,,,,,,
0,midi_port,,0,1,10,,,,,,,0,,,,,,,,,,,,
0,control_change,,0,0,10,,,,,,,,,,,,,,11,127,8,,,
0,control_change,,0,0,10,,,,,,,,,,,,,,7,96,8,,,
0,control_change,,0,0,10,,,,,,,,,,,,,,10,80,8,,,
0,program_change,,0,0,10,,,,,,,,,,,,,,,,8,60,,
0,track_name,,0,1,11,,,,,,,,,,,,,,,,,,,
0,midi_port,,0,1,11,,,,,,,0,,,,,,,,,,,,
0,control_change,,0,0,11,,,,,,,,,,,,,,11,127,10,,,
0,control_change,,0,0,11,,,,,,,,,,,,,,7,96,10,,,
0,control_change,,0,0,7,,,,,,,,,,,,,,7,96,5,,,
0,control_change,,0,0,11,,,,,,,,,,,,,,10,48,10,,,
0,program_change,,0,0,8,,,,,,,,,,,,,,,,6,73,,
0,control_change,,0,0,8,,,,,,,,,,,,,,10,104,6,,,
0,control_change,,0,0,8,,,,,,,,,,,,,,7,96,6,,,
0,control_change,,0,0,8,,,,,,,,,,,,,,11,127,6,,,
0,midi_port,,0,1,8,,,,,,,0,,,,,,,,,,,,
0,track_name,,0,1,8,,,,,,,,,,,,,,,,,,,
0,track_name,,0,1,12,,,,,,,,,,,,,,,,,,,
0,midi_port,,0,1,12,,,,,,,0,,,,,,,,,,,,
0,control_change,,0,0,12,,,,,,,,,,,,,,11,127,11,,,
0,control_change,,0,0,12,,,,,,,,,,,,,,7,96,11,,,
0,control_change,,0,0,12,,,,,,,,,,,,,,10,24,11,,,
0,program_change,,0,0,12,,,,,,,,,,,,,,,,11,48,,
0,note_on,,0,0,12,,,,,,,,,,,,,,,,11,,70,64
0,program_change,,0,0,7,,,,,,,,,,,,,,,,5,73,,
0,program_change,,0,0,11,,,,,,,,,,,,,,,,10,48,,
0,track_name,,0,1,6,,,,,,,,,,,,,,,,,,,
0,track_name,,0,1,9,,,,,,,,,,,,,,,,,,,
0,program_change,,0,0,5,,,,,,,,,,,,,,,,0,68,,
0,midi_port,,0,1,4,,,,,,,0,,,,,,,,,,,,
0,end_of_track,,0,1,4,,,,,,,,,,,,,,,,,,,
0,track_name,,0,1,5,,,,,,,,,,,,,,,,,,,
0,midi_port,,0,1,5,,,,,,,0,,,,,,,,,,,,
0,control_change,,0,0,5,,,,,,,,,,,,,,11,127,0,,,
0,control_change,,0,0,5,,,,,,,,,,,,,,7,72,0,,,
0,control_change,,0,0,5,,,,,,,,,,,,,,10,70,0,,,
0,end_of_track,,0,1,3,,,,,,,,,,,,,,,,,,,
0,track_name,,0,1,3,,,,,,,,,,,,,,,,,,,
0,end_of_track,,0,1,2,,,,,,,,,,,,,,,,,,,
0,midi_port,,0,1,2,,,,,,,0,,,,,,,,,,,,
0,midi_port,,0,1,3,,,,,,,0,,,,,,,,,,,,
0,end_of_track,,0,1,1,,,,,,,,,,,,,,,,,,,
0,midi_port,,0,1,1,,,,,,,0,,,,,,,,,,,,
0,track_name,,0,1,0,,,,,,,,,,,,,,,,,,,
0,instrument_name,,0,1,0,,,,,,,,,,,,,,,,,,,
0,smpte_offset,,0,1,0,25,32,0,3,0,0,,,,,,,,,,,,,
0,midi_port,,0,1,0,,,,,,,0,,,,,,,,,,,,
0,key_signature,,0,1,0,,,,,,,,Bb,,,,,,,,,,,
0,set_tempo,,0,1,0,,,,,,,,,1000000,,,,,,,,,,
0,time_signature,,0,1,0,,,,,,,,,,4,4,24,8,,,,,,
0,track_name,,0,1,1,,,,,,,,,,,,,,,,,,,
0,track_name,,0,1,2,,,,,,,,,,,,,,,,,,,
89,note_on,,89,0,15,,,,,,,,,,,,,,,,15,,55,0
90,note_on,,1,0,15,,,,,,,,,,,,,,,,15,,55,64
119,note_on,,0,0,15,,,,,,,,,,,,,,,,15,,62,0
119,note_on,,119,0,6,,,,,,,,,,,,,,,,2,,55,0
119,note_on,,119,0,12,,,,,,,,,,,,,,,,11,,70,0
119,note_on,,0,0,15,,,,,,,,,,,,,,,,15,,58,0
119,note_on,,119,0,14,,,,,,,,,,,,,,,,13,,55,0
119,note_on,,0,0,15,,,,,,,,,,,,,,,,15,,55,0
119,note_on,,29,0,15,,,,,,,,,,,,,,,,15,,67,0
120,note_on,,0,0,15,,,,,,,,,,,,,,,,15,,58,64
120,note_on,,1,0,14,,,,,,,,,,,,,,,,13,,43,64
120,note_on,,1,0,15,,,,,,,,,,,,,,,,15,,43,64
120,note_on,,1,0,6,,,,,,,,,,,,,,,,2,,43,64
120,note_on,,0,0,15,,,,,,,,,,,,,,,,15,,62,64
120,note_on,,0,0,15,,,,,,,,,,,,,,,,15,,55,64
180,note_on,,180,0,11,,,,,,,,,,,,,,,,10,,67,64
239,note_on,,119,0,15,,,,,,,,,,,,,,,,15,,43,0
239,note_on,,119,0,14,,,,,,,,,,,,,,,,13,,43,0
239,note_on,,0,0,15,,,,,,,,,,,,,,,,15,,55,0
239,note_on,,0,0,15,,,,,,,,,,,,,,,,15,,62,0
239,note_on,,0,0,15,,,,,,,,,,,,,,,,15,,58,0
239,note_on,,119,0,6,,,,,,,,,,,,,,,,2,,43,0
239,note_on,,59,0,11,,,,,,,,,,,,,,,,10,,67,0
240,note_on,,1,0,11,,,,,,,,,,,,,,,,10,,79,64
329,note_on,,89,0,11,,,,,,,,,,,,,,,,10,,79,0
330,note_on,,1,0,11,,,,,,,,,,,,,,,,10,,77,64
359,note_on,,29,0,11,,,,,,,,,,,,,,,,10,,77,0
360,note_on,,1,0,11,,,,,,,,,,,,,,,,10,,75,64
374,note_on,,14,0,11,,,,,,,,,,,,,,,,10,,75,0
375,note_on,,1,0,11,,,,,,,,,,,,,,,,10,,77,64
389,note_on,,14,0,11,,,,,,,,,,,,,,,,10,,77,0
390,note_on,,1,0,11,,,,,,,,,,,,,,,,10,,75,64
404,note_on,,14,0,11,,,,,,,,,,,,,,,,10,,75,0
405,note_on,,1,0,11,,,,,,,,,,,,,,,,10,,77,64
419,note_on,,14,0,11,,,,,,,,,,,,,,,,10,,77,0
420,note_on,,1,0,11,,,,,,,,,,,,,,,,10,,74,64
420,note_on,,301,0,12,,,,,,,,,,,,,,,,11,,55,64
434,note_on,,14,0,11,,,,,,,,,,,,,,,,10,,74,0
435,note_on,,1,0,11,,,,,,,,,,,,,,,,10,,75,64
449,note_on,,14,0,11,,,,,,,,,,,,,,,,10,,75,0
450,note_on,,1,0,11,,,,,,,,,,,,,,,,10,,74,64
479,note_on,,29,0,11,,,,,,,,,,,,,,,,10,,74,0
479,note_on,,59,0,12,,,,,,,,,,,,,,,,11,,55,0
480,note_on,,1,0,12,,,,,,,,,,,,,,,,11,,67,64
480,note_on,,1,0,11,,,,,,,,,,,,,,,,10,,74,64
569,note_on,,89,0,12,,,,,,,,,,,,,,,,11,,67,0
570,note_on,,1,0,12,,,,,,,,,,,,,,,,11,,65,64
599,note_on,,29,0,12,,,,,,,,,,,,,,,,11,,65,0
599,note_on,,119,0,11,,,,,,,,,,,,,,,,10,,74,0
600,note_on,,1,0,11,,,,,,,,,,,,,,,,10,,72,64
600,note_on,,1,0,12,,,,,,,,,,,,,,,,11,,63,64
614,note_on,,14,0,11,,,,,,,,,,,,,,,,10,,72,0
614,note_on,,14,0,12,,,,,,,,,,,,,,,,11,,63,0
615,note_on,,1,0,11,,,,,,,,,,,,,,,,10,,74,64
615,note_on,,1,0,12,,,,,,,,,,,,,,,,11,,65,64
629,note_on,,14,0,12,,,,,,,,,,,,,,,,11,,65,0
629,note_on,,14,0,11,,,,,,,,,,,,,,,,10,,74,0
630,note_on,,1,0,12,,,,,,,,,,,,,,,,11,,63,64
630,note_on,,1,0,11,,,,,,,,,,,,,,,,10,,72,64
644,note_on,,14,0,12,,,,,,,,,,,,,,,,11,,63,0
644,note_on,,14,0,11,,,,,,,,,,,,,,,,10,,72,0
645,note_on,,1,0,11,,,,,,,,,,,,,,,,10,,74,64
645,note_on,,1,0,12,,,,,,,,,,,,,,,,11,,65,64
659,note_on,,14,0,11,,,,,,,,,,,,,,,,10,,74,0
659,note_on,,14,0,12,,,,,,,,,,,,,,,,11,,65,0
660,note_on,,421,0,6,,,,,,,,,,,,,,,,2,,43,64
660,note_on,,421,0,15,,,,,,,,,,,,,,,,15,,43,64
660,note_on,,1,0,11,,,,,,,,,,,,,,,,10,,70,64
660,note_on,,1,0,12,,,,,,,,,,,,,,,,11,,62,64
660,note_on,,421,0,14,,,,,,,,,,,,,,,,13,,43,64
674,note_on,,14,0,12,,,,,,,,,,,,,,,,11,,62,0
674,note_on,,14,0,11,,,,,,,,,,,,,,,,10,,70,0
675,note_on,,1,0,11,,,,,,,,,,,,,,,,10,,72,64
675,note_on,,1,0,12,,,,,,,,,,,,,,,,11,,63,64
689,note_on,,14,0,12,,,,,,,,,,,,,,,,11,,63,0
689,note_on,,14,0,11,,,,,,,,,,,,,,,,10,,72,0
690,note_on,,1,0,12,,,,,,,,,,,,,,,,11,,62,64
690,note_on,,1,0,11,,,,,,,,,,,,,,,,10,,70,64
719,note_on,,59,0,6,,,,,,,,,,,,,,,,2,,43,0
719,note_on,,59,0,14,,,,,,,,,,,,,,,,13,,43,0
719,note_on,,29,0,11,,,,,,,,,,,,,,,,10,,70,0
719,note_on,,29,0,12,,,,,,,,,,,,,,,,11,,62,0
719,note_on,,59,0,15,,,,,,,,,,,,,,,,15,,43,0
720,note_on,,1,0,15,,,,,,,,,,,,,,,,15,,55,64
720,note_on,,1,0,14,,,,,,,,,,,,,,,,13,,55,64
720,note_on,,0,0,15,,,,,,,,,,,,,,,,15,,67,64
720,note_on,,1,0,6,,,,,,,,,,,,,,,,2,,55,64
720,note_on,,1,0,12,,,,,,,,,,,,,,,,11,,62,64
720,note_on,,0,0,15,,,,,,,,,,,,,,,,15,,62,64
720,note_on,,1,0,11,,,,,,,,,,,,,,,,10,,70,64
720,note_on,,0,0,15,,,,,,,,,,,,,,,,15,,70,64
809,note_on,,89,0,11,,,,,,,,,,,,,,,,10,,70,0
809,note_on,,89,0,15,,,,,,,,,,,,,,,,15,,55,0
809,note_on,,89,0,14,,,,,,,,,,,,,,,,13,,55,0
809,note_on,,89,0,6,,,,,,,,,,,,,,,,2,,55,0
810,note_on,,1,0,11,,,,,,,,,,,,,,,,10,,69,64
810,note_on,,1,0,14,,,,,,,,,,,,,,,,13,,53,64
810,note_on,,1,0,6,,,,,,,,,,,,,,,,2,,53,64
810,note_on,,1,0,15,,,,,,,,,,,,,,,,15,,53,64
839,note_on,,29,0,15,,,,,,,,,,,,,,,,15,,70,0
839,note_on,,0,0,15,,,,,,,,,,,,,,,,15,,67,0
839,note_on,,0,0,15,,,,,,,,,,,,,,,,15,,62,0
839,note_on,,29,0,11,,,,,,,,,,,,,,,,10,,69,0
839,note_on,,0,0,15,,,,,,,,,,,,,,,,15,,53,0
839,note_on,,29,0,14,,,,,,,,,,,,,,,,13,,53,0
839,note_on,,29,0,6,,,,,,,,,,,,,,,,2,,53,0
839,note_on,,119,0,12,,,,,,,,,,,,,,,,11,,62,0
840,note_on,,0,0,15,,,,,,,,,,,,,,,,15,,67,64
840,note_on,,0,0,15,,,,,,,,,,,,,,,,15,,60,64
840,note_on,,0,0,15,,,,,,,,,,,,,,,,15,,72,64
840,note_on,,1,0,6,,,,,,,,,,,,,,,,2,,51,64
840,note_on,,1,0,15,,,,,,,,,,,,,,,,15,,51,64
840,note_on,,0,0,15,,,,,,,,,,,,,,,,15,,55,64
840,note_on,,1,0,11,,,,,,,,,,,,,,,,10,,67,64
840,note_on,,1,0,14,,,,,,,,,,,,,,,,13,,51,64
840,note_on,,1,0,12,,,,,,,,,,,,,,,,11,,72,64
854,note_on,,14,0,11,,,,,,,,,,,,,,,,10,,67,0
855,note_on,,1,0,11,,,,,,,,,,,,,,,,10,,69,64
869,note_on,,14,0,11,,,,,,,,,,,,,,,,10,,69,0
870,note_on,,1,0,11,,,,,,,,,,,,,,,,10,,67,64
884,note_on,,14,0,11,,,,,,,,,,,,,,,,10,,67,0
885,note_on,,1,0,11,,,,,,,,,,,,,,,,10,,69,64
899,note_on,,14,0,11,,,,,,,,,,,,,,,,10,,69,0
900,note_on,,1,0,11,,,,,,,,,,,,,,,,10,,66,64
900,note_on,,900,0,13,,,,,,,,,,,,,,,,12,,55,64
914,note_on,,14,0,11,,,,,,,,,,,,,,,,10,,66,0
915,note_on,,1,0,11,,,,,,,,,,,,,,,,10,,67,64
929,note_on,,14,0,11,,,,,,,,,,,,,,,,10,,67,0
929,note_on,,89,0,14,,,,,,,,,,,,,,,,13,,51,0
929,note_on,,89,0,6,,,,,,,,,,,,,,,,2,,51,0
929,note_on,,89,0,15,,,,,,,,,,,,,,,,15,,51,0
930,note_on,,1,0,11,,,,,,,,,,,,,,,,10,,66,64
930,note_on,,1,0,14,,,,,,,,,,,,,,,,13,,50,64
930,note_on,,1,0,6,,,,,,,,,,,,,,,,2,,50,64
930,note_on,,1,0,15,,,,,,,,,,,,,,,,15,,50,64
959,note_on,,29,0,14,,,,,,,,,,,,,,,,13,,50,0
959,note_on,,29,0,6,,,,,,,,,,,,,,,,2,,50,0
959,note_on,,0,0,15,,,,,,,,,,,,,,,,15,,50,0
959,note_on,,0,0,15,,,,,,,,,,,,,,,,15,,67,0
959,note_on,,0,0,15,,,,,,,,,,,,,,,,15,,60,0
959,note_on,,29,0,11,,,,,,,,,,,,,,,,10,,66,0
959,note_on,,59,0,13,,,,,,,,,,,,,,,,12,,55,0
959,note_on,,29,0,15,,,,,,,,,,,,,,,,15,,55,0
960,note_on,,1,0,6,,,,,,,,,,,,,,,,2,,50,64
960,note_on,,1,0,14,,,,,,,,,,,,,,,,13,,50,64
960,note_on,,1,0,13,,,,,,,,,,,,,,,,12,,62,64
960,note_on,,0,0,15,,,,,,,,,,,,,,,,15,,66,64
960,note_on,,0,0,15,,,,,,,,,,,,,,,,15,,62,64
960,note_on,,0,0,15,,,,,,,,,,,,,,,,15,,57,64
960,note_on,,1,0,15,,,,,,,,,,,,,,,,15,,50,64
960,note_on,,1,0,11,,,,,,,,,,,,,,,,10,,66,64
1019,note_on,,179,0,12,,,,,,,,,,,,,,,,11,,72,0
1020,note_on,,1,0,12,,,,,,,,,,,,,,,,11,,74,64
1079,note_on,,119,0,11,,,,,,,,,,,,,,,,10,,66,0
1079,note_on,,119,0,13,,,,,,,,,,,,,,,,12,,62,0
1079,note_on,,119,0,6,,,,,,,,,,,,,,,,2,,50,0
1079,note_on,,119,0,14,,,,,,,,,,,,,,,,13,,50,0
1079,note_on,,0,0,15,,,,,,,,,,,,,,,,15,,57,0
1079,note_on,,0,0,15,,,,,,,,,,,,,,,,15,,62,0
1079,note_on,,0,0,15,,,,,,,,,,,,,,,,15,,66,0
1079,note_on,,0,0,15,,,,,,,,,,,,,,,,15,,50,0
1079,note_on,,119,0,15,,,,,,,,,,,,,,,,15,,72,0
1079,note_on,,59,0,12,,,,,,,,,,,,,,,,11,,74,0
1080,note_on,,1,0,6,,,,,,,,,,,,,,,,2,,55,64
1080,note_on,,1,0,12,,,,,,,,,,,,,,,,11,,70,64
1080,note_on,,1,0,13,,,,,,,,,,,,,,,,12,,62,64
1080,note_on,,1,0,14,,,,,,,,,,,,,,,,13,,55,64
1080,note_on,,1,0,11,,,,,,,,,,,,,,,,10,,67,64
1080,note_on,,0,0,15,,,,,,,,,,,,,,,,15,,62,64
1080,note_on,,0,0,15,,,,,,,,,,,,,,,,15,,67,64
1080,note_on,,0,0,15,,,,,,,,,,,,,,,,15,,70,64
1080,note_on,,0,0,15,,,,,,,,,,,,,,,,15,,55,64
1080,note_on,,1,0,15,,,,,,,,,,,,,,,,15,,55,64
1094,note_on,,14,0,12,,,,,,,,,,,,,,,,11,,70,0
1095,note_on,,1,0,12,,,,,,,,,,,,,,,,11,,72,64
1109,note_on,,14,0,12,,,,,,,,,,,,,,,,11,,72,0
1110,note_on,,1,0,12,,,,,,,,,,,,,,,,11,,70,64
1124,note_on,,14,0,12,,,,,,,,,,,,,,,,11,,70,0
1125,note_on,,1,0,12,,,,,,,,,,,,,,,,11,,72,64
1139,note_on,,14,0,12,,,,,,,,,,,,,,,,11,,72,0
1140,note_on,,1,0,12,,,,,,,,,,,,,,,,11,,69,64
1154,note_on,,14,0,12,,,,,,,,,,,,,,,,11,,69,0
1155,note_on,,1,0,12,,,,,,,,,,,,,,,,11,,70,64
1169,note_on,,89,0,13,,,,,,,,,,,,,,,,12,,62,0
1169,note_on,,89,0,14,,,,,,,,,,,,,,,,13,,55,0
1169,note_on,,89,0,15,,,,,,,,,,,,,,,,15,,55,0
1169,note_on,,0,0,15,,,,,,,,,,,,,,,,15,,70,0
1169,note_on,,89,0,6,,,,,,,,,,,,,,,,2,,55,0
1169,note_on,,0,0,15,,,,,,,,,,,,,,,,15,,67,0
1169,note_on,,0,0,15,,,,,,,,,,,,,,,,15,,62,0
1169,note_on,,14,0,12,,,,,,,,,,,,,,,,11,,70,0
1170,note_on,,1,0,12,,,,,,,,,,,,,,,,11,,69,64
1170,note_on,,1,0,13,,,,,,,,,,,,,,,,12,,63,64
1170,note_on,,1,0,6,,,,,,,,,,,,,,,,2,,48,64
1170,note_on,,0,0,15,,,,,,,,,,,,,,,,15,,67,64
1170,note_on,,0,0,15,,,,,,,,,,,,,,,,15,,63,64
1170,note_on,,1,0,14,,,,,,,,,,,,,,,,13,,48,64
1170,note_on,,0,0,15,,,,,,,,,,,,,,,,15,,69,64
1170,note_on,,1,0,15,,,,,,,,,,,,,,,,15,,48,64
1199,note_on,,29,0,13,,,,,,,,,,,,,,,,12,,63,0
1199,note_on,,29,0,14,,,,,,,,,,,,,,,,13,,48,0
1199,note_on,,29,0,12,,,,,,,,,,,,,,,,11,,69,0
1199,note_on,,0,0,15,,,,,,,,,,,,,,,,15,,67,0
1199,note_on,,0,0,15,,,,,,,,,,,,,,,,15,,69,0
1199,note_on,,29,0,15,,,,,,,,,,,,,,,,15,,48,0
1199,note_on,,29,0,6,,,,,,,,,,,,,,,,2,,48,0
1199,note_on,,0,0,15,,,,,,,,,,,,,,,,15,,63,0
1200,note_on,,0,0,15,,,,,,,,,,,,,,,,15,,70,64
1200,note_on,,0,0,15,,,,,,,,,,,,,,,,15,,50,64
1200,note_on,,0,0,15,,,,,,,,,,,,,,,,15,,62,64
1200,note_on,,1,0,12,,,,,,,,,,,,,,,,11,,70,64
1200,note_on,,1,0,6,,,,,,,,,,,,,,,,2,,50,64
1200,note_on,,1,0,14,,,,,,,,,,,,,,,,13,,50,64
1200,note_on,,1,0,13,,,,,,,,,,,,,,,,12,,62,64
1200,note_on,,1,0,15,,,,,,,,,,,,,,,,15,,67,64
1319,note_on,,119,0,14,,,,,,,,,,,,,,,,13,,50,0
1319,note_on,,119,0,13,,,,,,,,,,,,,,,,12,,62,0
1319,note_on,,239,0,11,,,,,,,,,,,,,,,,10,,67,0
1319,note_on,,0,0,15,,,,,,,,,,,,,,,,15,,50,0
1319,note_on,,0,0,15,,,,,,,,,,,,,,,,15,,62,0
1319,note_on,,119,0,15,,,,,,,,,,,,,,,,15,,55,0
1319,note_on,,0,0,15,,,,,,,,,,,,,,,,15,,67,0
1319,note_on,,0,0,15,,,,,,,,,,,,,,,,15,,70,0
1319,note_on,,119,0,12,,,,,,,,,,,,,,,,11,,70,0
1319,note_on,,119,0,6,,,,,,,,,,,,,,,,2,,50,0
1320,note_on,,1,0,11,,,,,,,,,,,,,,,,10,,66,64
1320,note_on,,1,0,6,,,,,,,,,,,,,,,,2,,38,64
1320,note_on,,1,0,12,,,,,,,,,,,,,,,,11,,69,64
1320,note_on,,1,0,15,,,,,,,,,,,,,,,,15,,38,64
1320,note_on,,0,0,15,,,,,,,,,,,,,,,,15,,50,64
1320,note_on,,0,0,15,,,,,,,,,,,,,,,,15,,69,64
1320,note_on,,0,0,15,,,,,,,,,,,,,,,,15,,66,64
1320,note_on,,0,0,15,,,,,,,,,,,,,,,,15,,60,64
1320,note_on,,1,0,13,,,,,,,,,,,,,,,,12,,60,64
1320,note_on,,1,0,14,,,,,,,,,,,,,,,,13,,38,64
1334,note_on,,14,0,11,,,,,,,,,,,,,,,,10,,66,0
1334,note_on,,14,0,12,,,,,,,,,,,,,,,,11,,69,0
1335,note_on,,1,0,11,,,,,,,,,,,,,,,,10,,67,64
1335,note_on,,1,0,12,,,,,,,,,,,,,,,,11,,70,64
1349,note_on,,14,0,12,,,,,,,,,,,,,,,,11,,70,0
1349,note_on,,14,0,11,,,,,,,,,,,,,,,,10,,67,0
1350,note_on,,1,0,12,,,,,,,,,,,,,,,,11,,69,64
1350,note_on,,1,0,11,,,,,,,,,,,,,,,,10,,66,64
1364,note_on,,14,0,12,,,,,,,,,,,,,,,,11,,69,0
1364,note_on,,14,0,11,,,,,,,,,,,,,,,,10,,66,0
1365,note_on,,1,0,12,,,,,,,,,,,,,,,,11,,70,64
1365,note_on,,1,0,11,,,,,,,,,,,,,,,,10,,67,64
1379,note_on,,14,0,11,,,,,,,,,,,,,,,,10,,67,0
1379,note_on,,14,0,12,,,,,,,,,,,,,,,,11,,70,0
1380,note_on,,1,0,12,,,,,,,,,,,,,,,,11,,67,64
1380,note_on,,1,0,11,,,,,,,,,,,,,,,,10,,63,64
1394,note_on,,14,0,12,,,,,,,,,,,,,,,,11,,67,0
1394,note_on,,14,0,11,,,,,,,,,,,,,,,,10,,63,0
1395,note_on,,1,0,11,,,,,,,,,,,,,,,,10,,66,64
1395,note_on,,1,0,12,,,,,,,,,,,,,,,,11,,69,64
1409,note_on,,89,0,13,,,,,,,,,,,,,,,,12,,60,0
1409,note_on,,14,0,12,,,,,,,,,,,,,,,,11,,69,0
1409,note_on,,14,0,11,,,,,,,,,,,,,,,,10,,66,0
1410,note_on,,1,0,13,,,,,,,,,,,,,,,,12,,58,64
1410,note_on,,1,0,12,,,,,,,,,,,,,,,,11,,67,64
1410,note_on,,1,0,11,,,,,,,,,,,,,,,,10,,67,64
1439,note_on,,119,0,14,,,,,,,,,,,,,,,,13,,38,0
1439,note_on,,119,0,6,,,,,,,,,,,,,,,,2,,38,0
1439,note_on,,0,0,15,,,,,,,,,,,,,,,,15,,60,0
1439,note_on,,29,0,13,,,,,,,,,,,,,,,,12,,58,0
1439,note_on,,0,0,15,,,,,,,,,,,,,,,,15,,66,0
1439,note_on,,29,0,12,,,,,,,,,,,,,,,,11,,67,0
1439,note_on,,119,0,15,,,,,,,,,,,,,,,,15,,38,0
1439,note_on,,0,0,15,,,,,,,,,,,,,,,,15,,50,0
1439,note_on,,0,0,15,,,,,,,,,,,,,,,,15,,69,0
1439,note_on,,29,0,11,,,,,,,,,,,,,,,,10,,67,0
1440,note_on,,1,0,12,,,,,,,,,,,,,,,,11,,67,64
1440,note_on,,0,0,15,,,,,,,,,,,,,,,,15,,58,64
1440,note_on,,0,0,15,,,,,,,,,,,,,,,,15,,67,64
1440,note_on,,1,0,13,,,,,,,,,,,,,,,,12,,58,64
1440,note_on,,1,0,6,,,,,,,,,,,,,,,,2,,43,64
1440,note_on,,1,0,11,,,,,,,,,,,,,,,,10,,67,64
1440,note_on,,1,0,15,,,,,,,,,,,,,,,,15,,43,64
1440,note_on,,1,0,14,,,,,,,,,,,,,,,,13,,43,64
1440,note_on,,0,0,15,,,,,,,,,,,,,,,,15,,62,64
1440,note_on,,0,0,15,,,,,,,,,,,,,,,,15,,50,64
1559,note_on,,119,0,13,,,,,,,,,,,,,,,,12,,58,0
1559,note_on,,119,0,15,,,,,,,,,,,,,,,,15,,67,0
1559,note_on,,0,0,15,,,,,,,,,,,,,,,,15,,62,0
1559,note_on,,0,0,15,,,,,,,,,,,,,,,,15,,58,0
1559,note_on,,0,0,15,,,,,,,,,,,,,,,,15,,50,0
1559,note_on,,119,0,12,,,,,,,,,,,,,,,,11,,67,0
1559,note_on,,119,0,11,,,,,,,,,,,,,,,,10,,67,0
1560,note_on,,1,0,15,,,,,,,,,,,,,,,,15,,55,64
1560,note_on,,0,0,15,,,,,,,,,,,,,,,,15,,62,64
1560,note_on,,0,0,15,,,,,,,,,,,,,,,,15,,58,64
1560,note_on,,1,0,12,,,,,,,,,,,,,,,,11,,74,64
1560,note_on,,1,0,11,,,,,,,,,,,,,,,,10,,70,64
1620,note_on,,61,0,13,,,,,,,,,,,,,,,,12,,55,64
1650,note_on,,1650,0,8,,,,,,,,,,,,,,,,6,,55,64
1679,note_on,,59,0,13,,,,,,,,,,,,,,,,12,,55,0
1679,note_on,,29,0,8,,,,,,,,,,,,,,,,6,,55,0
1680,note_on,,1,0,13,,,,,,,,,,,,,,,,12,,67,64
1680,note_on,,1,0,8,,,,,,,,,,,,,,,,6,,67,64
1769,note_on,,89,0,13,,,,,,,,,,,,,,,,12,,67,0
1769,note_on,,89,0,8,,,,,,,,,,,,,,,,6,,67,0
1770,note_on,,1,0,13,,,,,,,,,,,,,,,,12,,65,64
1770,note_on,,1,0,8,,,,,,,,,,,,,,,,6,,65,64
1799,note_on,,239,0,15,,,,,,,,,,,,,,,,15,,55,0
1799,note_on,,239,0,11,,,,,,,,,,,,,,,,10,,70,0
1799,note_on,,0,0,15,,,,,,,,,,,,,,,,15,,58,0
1799,note_on,,239,0,12,,,,,,,,,,,,,,,,11,,74,0
1799,note_on,,0,0,15,,,,,,,,,,,,,,,,15,,62,0
1799,note_on,,29,0,13,,,,,,,,,,,,,,,,12,,65,0
1799,note_on,,29,0,8,,,,,,,,,,,,,,,,6,,65,0
1800,note_on,,1,0,8,,,,,,,,,,,,,,,,6,,63,64
1800,note_on,,1,0,12,,,,,,,,,,,,,,,,11,,72,64
1800,note_on,,0,0,15,,,,,,,,,,,,,,,,15,,60,64
1800,note_on,,1,0,13,,,,,,,,,,,,,,,,12,,63,64
1800,note_on,,1,0,15,,,,,,,,,,,,,,,,15,,55,64
1800,note_on,,0,0,15,,,,,,,,,,,,,,,,15,,48,64
1800,note_on,,0,0,15,,,,,,,,,,,,,,,,15,,67,64
1800,note_on,,0,0,15,,,,,,,,,,,,,,,,15,,63,64
1814,note_on,,14,0,13,,,,,,,,,,,,,,,,12,,63,0
1815,note_on,,1,0,13,,,,,,,,,,,,,,,,12,,65,64
1829,note_on,,14,0,13,,,,,,,,,,,,,,,,12,,65,0
1830,note_on,,1,0,13,,,,,,,,,,,,,,,,12,,63,64
1844,note_on,,14,0,13,,,,,,,,,,,,,,,,12,,63,0
1845,note_on,,1,0,13,,,,,,,,,,,,,,,,12,,65,64
1859,note_on,,14,0,13,,,,,,,,,,,,,,,,12,,65,0
1860,note_on,,1,0,13,,,,,,,,,,,,,,,,12,,62,64
1860,note_on,,61,0,11,,,,,,,,,,,,,,,,10,,67,64
1874,note_on,,14,0,13,,,,,,,,,,,,,,,,12,,62,0
1875,note_on,,1,0,13,,,,,,,,,,,,,,,,12,,63,64
1889,note_on,,89,0,8,,,,,,,,,,,,,,,,6,,63,0
1889,note_on,,14,0,13,,,,,,,,,,,,,,,,12,,63,0
1890,note_on,,1,0,13,,,,,,,,,,,,,,,,12,,62,64
1890,note_on,,1890,0,5,,,,,,,,,,,,,,,,0,,67,64
1890,note_on,,1,0,8,,,,,,,,,,,,,,,,6,,62,64
1890,note_on,,1890,0,7,,,,,,,,,,,,,,,,5,,67,64
1919,note_on,,0,0,15,,,,,,,,,,,,,,,,15,,63,0
1919,note_on,,119,0,12,,,,,,,,,,,,,,,,11,,72,0
1919,note_on,,29,0,7,,,,,,,,,,,,,,,,5,,67,0
1919,note_on,,0,0,15,,,,,,,,,,,,,,,,15,,60,0
1919,note_on,,59,0,11,,,,,,,,,,,,,,,,10,,67,0
1919,note_on,,29,0,8,,,,,,,,,,,,,,,,6,,62,0
1919,note_on,,119,0,15,,,,,,,,,,,,,,,,15,,55,0
1919,note_on,,29,0,5,,,,,,,,,,,,,,,,0,,67,0
1919,note_on,,29,0,13,,,,,,,,,,,,,,,,12,,62,0
1919,note_on,,0,0,15,,,,,,,,,,,,,,,,15,,48,0
1920,note_on,,1,0,8,,,,,,,,,,,,,,,,6,,62,64
1920,note_on,,1,0,5,,,,,,,,,,,,,,,,0,,79,64
1920,note_on,,1,0,7,,,,,,,,,,,,,,,,5,,79,64
1920,note_on,,1,0,12,,,,,,,,,,,,,,,,11,,70,64
1920,note_on,,1,0,11,,,,,,,,,,,,,,,,10,,79,64
1920,note_on,,1,0,13,,,,,,,,,,,,,,,,12,,62,64
1920,note_on,,0,0,15,,,,,,,,,,,,,,,,15,,50,64
1920,note_on,,0,0,15,,,,,,,,,,,,,,,,15,,55,64
1920,note_on,,0,0,15,,,,,,,,,,,,,,,,15,,58,64
1920,note_on,,1,0,15,,,,,,,,,,,,,,,,15,,62,64
2009,note_on,,89,0,11,,,,,,,,,,,,,,,,10,,79,0
2009,note_on,,89,0,5,,,,,,,,,,,,,,,,0,,79,0
2009,note_on,,89,0,7,,,,,,,,,,,,,,,,5,,79,0
2010,note_on,,1,0,7,,,,,,,,,,,,,,,,5,,77,64
2010,note_on,,1,0,5,,,,,,,,,,,,,,,,0,,77,64
2010,note_on,,1,0,11,,,,,,,,,,,,,,,,10,,77,64
2039,note_on,,29,0,7,,,,,,,,,,,,,,,,5,,77,0
2039,note_on,,119,0,12,,,,,,,,,,,,,,,,11,,70,0
2039,note_on,,119,0,13,,,,,,,,,,,,,,,,12,,62,0
2039,note_on,,29,0,11,,,,,,,,,,,,,,,,10,,77,0
2039,note_on,,119,0,8,,,,,,,,,,,,,,,,6,,62,0
2039,note_on,,0,0,15,,,,,,,,,,,,,,,,15,,50,0
2039,note_on,,0,0,15,,,,,,,,,,,,,,,,15,,55,0
2039,note_on,,0,0,15,,,,,,,,,,,,,,,,15,,58,0
2039,note_on,,119,0,15,,,,,,,,,,,,,,,,15,,67,0
2039,note_on,,29,0,5,,,,,,,,,,,,,,,,0,,77,0
2039,note_on,,0,0,15,,,,,,,,,,,,,,,,15,,62,0
2040,note_on,,0,0,15,,,,,,,,,,,,,,,,15,,55,64
2040,note_on,,1,0,13,,,,,,,,,,,,,,,,12,,60,64
2040,note_on,,1,0,5,,,,,,,,,,,,,,,,0,,75,64
2040,note_on,,1,0,15,,,,,,,,,,,,,,,,15,,51,64
2040,note_on,,1,0,8,,,,,,,,,,,,,,,,6,,60,64
2040,note_on,,1,0,7,,,,,,,,,,,,,,,,5,,75,64
2040,note_on,,0,0,15,,,,,,,,,,,,,,,,15,,67,64
2040,note_on,,0,0,15,,,,,,,,,,,,,,,,15,,60,64
2040,note_on,,1,0,11,,,,,,,,,,,,,,,,10,,75,64
2054,note_on,,14,0,13,,,,,,,,,,,,,,,,12,,60,0
2054,note_on,,14,0,11,,,,,,,,,,,,,,,,10,,75,0
2055,note_on,,1,0,13,,,,,,,,,,,,,,,,12,,62,64
2055,note_on,,1,0,11,,,,,,,,,,,,,,,,10,,77,64
2069,note_on,,14,0,13,,,,,,,,,,,,,,,,12,,62,0
2069,note_on,,14,0,11,,,,,,,,,,,,,,,,10,,77,0
2070,note_on,,1,0,11,,,,,,,,,,,,,,,,10,,75,64
2070,note_on,,1,0,13,,,,,,,,,,,,,,,,12,,60,64
2084,note_on,,14,0,11,,,,,,,,,,,,,,,,10,,75,0
2084,note_on,,14,0,13,,,,,,,,,,,,,,,,12,,60,0
2085,note_on,,1,0,11,,,,,,,,,,,,,,,,10,,77,64
2085,note_on,,1,0,13,,,,,,,,,,,,,,,,12,,62,64
2099,note_on,,59,0,15,,,,,,,,,,,,,,,,15,,43,0
2099,note_on,,659,0,6,,,,,,,,,,,,,,,,2,,43,0
2099,note_on,,14,0,13,,,,,,,,,,,,,,,,12,,62,0
2099,note_on,,659,0,14,,,,,,,,,,,,,,,,13,,43,0
2099,note_on,,14,0,11,,,,,,,,,,,,,,,,10,,77,0
2100,note_on,,1,0,13,,,,,,,,,,,,,,,,12,,58,64
2100,note_on,,1,0,14,,,,,,,,,,,,,,,,13,,43,64
2100,note_on,,1,0,6,,,,,,,,,,,,,,,,2,,43,64
2100,note_on,,1,0,11,,,,,,,,,,,,,,,,10,,74,64
2100,note_on,,1,0,15,,,,,,,,,,,,,,,,15,,43,64
2114,note_on,,14,0,11,,,,,,,,,,,,,,,,10,,74,0
2114,note_on,,14,0,13,,,,,,,,,,,,,,,,12,,58,0
2115,note_on,,1,0,13,,,,,,,,,,,,,,,,12,,60,64
2115,note_on,,1,0,11,,,,,,,,,,,,,,,,10,,75,64
2129,note_on,,14,0,11,,,,,,,,,,,,,,,,10,,75,0
2129,note_on,,89,0,7,,,,,,,,,,,,,,,,5,,75,0
2129,note_on,,89,0,8,,,,,,,,,,,,,,,,6,,60,0
2129,note_on,,89,0,5,,,,,,,,,,,,,,,,0,,75,0
2129,note_on,,14,0,13,,,,,,,,,,,,,,,,12,,60,0
2130,note_on,,1,0,11,,,,,,,,,,,,,,,,10,,74,64
2130,note_on,,1,0,13,,,,,,,,,,,,,,,,12,,58,64
2130,note_on,,2130,0,10,,,,,,,,,,,,,,,,8,,43,64
2130,note_on,,1,0,7,,,,,,,,,,,,,,,,5,,74,64
2130,note_on,,1,0,8,,,,,,,,,,,,,,,,6,,58,64
2130,note_on,,1,0,5,,,,,,,,,,,,,,,,0,,74,64
2159,note_on,,29,0,5,,,,,,,,,,,,,,,,0,,74,0
2159,note_on,,29,0,10,,,,,,,,,,,,,,,,8,,43,0
2159,note_on,,59,0,15,,,,,,,,,,,,,,,,15,,51,0
2159,note_on,,29,0,7,,,,,,,,,,,,,,,,5,,74,0
2159,note_on,,29,0,8,,,,,,,,,,,,,,,,6,,58,0
2159,note_on,,0,0,15,,,,,,,,,,,,,,,,15,,43,0
2159,note_on,,29,0,11,,,,,,,,,,,,,,,,10,,74,0
2159,note_on,,59,0,14,,,,,,,,,,,,,,,,13,,43,0
2159,note_on,,29,0,13,,,,,,,,,,,,,,,,12,,58,0
2159,note_on,,59,0,6,,,,,,,,,,,,,,,,2,,43,0
2159,note_on,,0,0,15,,,,,,,,,,,,,,,,15,,60,0
2160,note_on,,1,0,5,,,,,,,,,,,,,,,,0,,74,64
2160,note_on,,1,0,6,,,,,,,,,,,,,,,,2,,55,64
2160,note_on,,1,0,11,,,,,,,,,,,,,,,,10,,74,64
2160,note_on,,1,0,7,,,,,,,,,,,,,,,,5,,74,64
2160,note_on,,0,0,15,,,,,,,,,,,,,,,,15,,62,64
2160,note_on,,1,0,10,,,,,,,,,,,,,,,,8,,55,64
2160,note_on,,0,0,15,,,,,,,,,,,,,,,,15,,55,64
2160,note_on,,1,0,14,,,,,,,,,,,,,,,,13,,55,64
2160,note_on,,1,0,8,,,,,,,,,,,,,,,,6,,58,64
2160,note_on,,1,0,13,,,,,,,,,,,,,,,,12,,58,64
2160,note_on,,1,0,15,,,,,,,,,,,,,,,,15,,58,64
2249,note_on,,89,0,15,,,,,,,,,,,,,,,,15,,55,0
2249,note_on,,89,0,14,,,,,,,,,,,,,,,,13,,55,0
2249,note_on,,89,0,8,,,,,,,,,,,,,,,,6,,58,0
2249,note_on,,89,0,6,,,,,,,,,,,,,,,,2,,55,0
2249,note_on,,89,0,13,,,,,,,,,,,,,,,,12,,58,0
2249,note_on,,89,0,10,,,,,,,,,,,,,,,,8,,55,0
2250,note_on,,1,0,8,,,,,,,,,,,,,,,,6,,62,64
2250,note_on,,1,0,13,,,,,,,,,,,,,,,,12,,62,64
2250,note_on,,1,0,6,,,,,,,,,,,,,,,,2,,53,64
2250,note_on,,1,0,14,,,,,,,,,,,,,,,,13,,53,64
2250,note_on,,1,0,10,,,,,,,,,,,,,,,,8,,53,64
2250,note_on,,1,0,15,,,,,,,,,,,,,,,,15,,53,64
2279,note_on,,119,0,7,,,,,,,,,,,,,,,,5,,74,0
2279,note_on,,29,0,13,,,,,,,,,,,,,,,,12,,62,0
2279,note_on,,29,0,14,,,,,,,,,,,,,,,,13,,53,0
2279,note_on,,119,0,5,,,,,,,,,,,,,,,,0,,74,0
2279,note_on,,0,0,15,,,,,,,,,,,,,,,,15,,53,0
2279,note_on,,0,0,15,,,,,,,,,,,,,,,,15,,58,0
2279,note_on,,0,0,15,,,,,,,,,,,,,,,,15,,67,0
2279,note_on,,29,0,15,,,,,,,,,,,,,,,,15,,55,0
2279,note_on,,0,0,15,,,,,,,,,,,,,,,,15,,62,0
2279,note_on,,29,0,8,,,,,,,,,,,,,,,,6,,62,0
2279,note_on,,29,0,10,,,,,,,,,,,,,,,,8,,53,0
2279,note_on,,119,0,11,,,,,,,,,,,,,,,,10,,74,0
2279,note_on,,29,0,6,,,,,,,,,,,,,,,,2,,53,0
2280,note_on,,0,0,15,,,,,,,,,,,,,,,,15,,60,64
2280,note_on,,1,0,8,,,,,,,,,,,,,,,,6,,67,64
2280,note_on,,1,0,13,,,,,,,,,,,,,,,,12,,67,64
2280,note_on,,0,0,15,,,,,,,,,,,,,,,,15,,67,64
2280,note_on,,0,0,15,,,,,,,,,,,,,,,,15,,72,64
2280,note_on,,1,0,14,,,,,,,,,,,,,,,,13,,51,64
2280,note_on,,1,0,15,,,,,,,,,,,,,,,,15,,51,64
2280,note_on,,1,0,6,,,,,,,,,,,,,,,,2,,51,64
2280,note_on,,1,0,11,,,,,,,,,,,,,,,,10,,74,64
2280,note_on,,1,0,10,,,,,,,,,,,,,,,,8,,51,64
2280,note_on,,0,0,15,,,,,,,,,,,,,,,,15,,55,64
2340,note_on,,301,0,12,,,,,,,,,,,,,,,,11,,67,64
2369,note_on,,89,0,15,,,,,,,,,,,,,,,,15,,51,0
2369,note_on,,89,0,14,,,,,,,,,,,,,,,,13,,51,0
2369,note_on,,89,0,13,,,,,,,,,,,,,,,,12,,67,0
2369,note_on,,89,0,10,,,,,,,,,,,,,,,,8,,51,0
2369,note_on,,89,0,8,,,,,,,,,,,,,,,,6,,67,0
2369,note_on,,89,0,6,,,,,,,,,,,,,,,,2,,51,0
2370,note_on,,1,0,15,,,,,,,,,,,,,,,,15,,50,64
2370,note_on,,1,0,14,,,,,,,,,,,,,,,,13,,50,64
2370,note_on,,1,0,8,,,,,,,,,,,,,,,,6,,66,64
2370,note_on,,1,0,6,,,,,,,,,,,,,,,,2,,50,64
2370,note_on,,1,0,13,,,,,,,,,,,,,,,,12,,66,64
2370,note_on,,1,0,10,,,,,,,,,,,,,,,,8,,50,64
2370,note_on,,2370,0,9,,,,,,,,,,,,,,,,7,,55,64
2399,note_on,,0,0,15,,,,,,,,,,,,,,,,15,,50,0
2399,note_on,,29,0,10,,,,,,,,,,,,,,,,8,,50,0
2399,note_on,,0,0,15,,,,,,,,,,,,,,,,15,,60,0
2399,note_on,,29,0,14,,,,,,,,,,,,,,,,13,,50,0
2399,note_on,,29,0,6,,,,,,,,,,,,,,,,2,,50,0
2399,note_on,,59,0,12,,,,,,,,,,,,,,,,11,,67,0
2399,note_on,,119,0,11,,,,,,,,,,,,,,,,10,,74,0
2399,note_on,,29,0,15,,,,,,,,,,,,,,,,15,,55,0
2399,note_on,,0,0,15,,,,,,,,,,,,,,,,15,,72,0
2399,note_on,,29,0,8,,,,,,,,,,,,,,,,6,,66,0
2399,note_on,,0,0,15,,,,,,,,,,,,,,,,15,,67,0
2399,note_on,,29,0,13,,,,,,,,,,,,,,,,12,,66,0
2399,note_on,,29,0,9,,,,,,,,,,,,,,,,7,,55,0
2400,note_on,,0,0,15,,,,,,,,,,,,,,,,15,,57,64
2400,note_on,,0,0,15,,,,,,,,,,,,,,,,15,,62,64
2400,note_on,,0,0,15,,,,,,,,,,,,,,,,15,,66,64
2400,note_on,,0,0,15,,,,,,,,,,,,,,,,15,,69,64
2400,note_on,,1,0,11,,,,,,,,,,,,,,,,10,,81,64
2400,note_on,,1,0,15,,,,,,,,,,,,,,,,15,,50,64
2400,note_on,,1,0,10,,,,,,,,,,,,,,,,8,,50,64
2400,note_on,,1,0,12,,,,,,,,,,,,,,,,11,,74,64
2400,note_on,,1,0,13,,,,,,,,,,,,,,,,12,,66,64
2400,note_on,,1,0,6,,,,,,,,,,,,,,,,2,,50,64
2400,note_on,,1,0,8,,,,,,,,,,,,,,,,6,,66,64
2400,note_on,,1,0,9,,,,,,,,,,,,,,,,7,,62,64
2400,note_on,,1,0,14,,,,,,,,,,,,,,,,13,,50,64
2489,note_on,,89,0,9,,,,,,,,,,,,,,,,7,,62,0
2489,note_on,,89,0,12,,,,,,,,,,,,,,,,11,,74,0
2489,note_on,,89,0,13,,,,,,,,,,,,,,,,12,,66,0
2489,note_on,,89,0,8,,,,,,,,,,,,,,,,6,,66,0
2490,note_on,,1,0,9,,,,,,,,,,,,,,,,7,,60,64
2490,note_on,,1,0,12,,,,,,,,,,,,,,,,11,,72,64
2490,note_on,,1,0,8,,,,,,,,,,,,,,,,6,,69,64
2490,note_on,,1,0,13,,,,,,,,,,,,,,,,12,,69,64
2519,note_on,,119,0,15,,,,,,,,,,,,,,,,15,,69,0
2519,note_on,,29,0,8,,,,,,,,,,,,,,,,6,,69,0
2519,note_on,,29,0,13,,,,,,,,,,,,,,,,12,,69,0
2519,note_on,,29,0,9,,,,,,,,,,,,,,,,7,,60,0
2519,note_on,,119,0,11,,,,,,,,,,,,,,,,10,,81,0
2519,note_on,,29,0,12,,,,,,,,,,,,,,,,11,,72,0
2519,note_on,,0,0,15,,,,,,,,,,,,,,,,15,,66,0
2519,note_on,,0,0,15,,,,,,,,,,,,,,,,15,,62,0
2519,note_on,,0,0,15,,,,,,,,,,,,,,,,15,,57,0
2520,note_on,,0,0,15,,,,,,,,,,,,,,,,15,,62,64
2520,note_on,,0,0,15,,,,,,,,,,,,,,,,15,,67,64
2520,note_on,,1,0,12,,,,,,,,,,,,,,,,11,,70,64
2520,note_on,,1,0,8,,,,,,,,,,,,,,,,6,,67,64
2520,note_on,,1,0,9,,,,,,,,,,,,,,,,7,,58,64
2520,note_on,,1,0,15,,,,,,,,,,,,,,,,15,,58,64
2520,note_on,,1,0,13,,,,,,,,,,,,,,,,12,,67,64
2534,note_on,,14,0,13,,,,,,,,,,,,,,,,12,,67,0
2534,note_on,,14,0,12,,,,,,,,,,,,,,,,11,,70,0
2535,note_on,,1,0,12,,,,,,,,,,,,,,,,11,,72,64
2535,note_on,,1,0,13,,,,,,,,,,,,,,,,12,,69,64
2549,note_on,,14,0,13,,,,,,,,,,,,,,,,12,,69,0
2549,note_on,,14,0,12,,,,,,,,,,,,,,,,11,,72,0
2550,note_on,,1,0,12,,,,,,,,,,,,,,,,11,,70,64
2550,note_on,,1,0,13,,,,,,,,,,,,,,,,12,,67,64
2564,note_on,,14,0,12,,,,,,,,,,,,,,,,11,,70,0
2564,note_on,,14,0,13,,,,,,,,,,,,,,,,12,,67,0
2565,note_on,,1,0,12,,,,,,,,,,,,,,,,11,,72,64
2565,note_on,,1,0,13,,,,,,,,,,,,,,,,12,,69,64
2579,note_on,,14,0,13,,,,,,,,,,,,,,,,12,,69,0
2579,note_on,,14,0,12,,,,,,,,,,,,,,,,11,,72,0
2580,note_on,,1,0,12,,,,,,,,,,,,,,,,11,,69,64
2580,note_on,,61,0,11,,,,,,,,,,,,,,,,10,,74,64
2580,note_on,,1,0,13,,,,,,,,,,,,,,,,12,,66,64
2594,note_on,,14,0,12,,,,,,,,,,,,,,,,11,,69,0
2594,note_on,,14,0,13,,,,,,,,,,,,,,,,12,,66,0
2595,note_on,,1,0,12,,,,,,,,,,,,,,,,11,,70,64
2595,note_on,,1,0,13,,,,,,,,,,,,,,,,12,,67,64
2609,note_on,,14,0,13,,,,,,,,,,,,,,,,12,,67,0
2609,note_on,,89,0,8,,,,,,,,,,,,,,,,6,,67,0
2609,note_on,,14,0,12,,,,,,,,,,,,,,,,11,,70,0
2609,note_on,,89,0,9,,,,,,,,,,,,,,,,7,,58,0
2610,note_on,,331,0,7,,,,,,,,,,,,,,,,5,,62,64
2610,note_on,,1,0,9,,,,,,,,,,,,,,,,7,,57,64
2610,note_on,,1,0,13,,,,,,,,,,,,,,,,12,,66,64
2610,note_on,,331,0,5,,,,,,,,,,,,,,,,0,,62,64
2610,note_on,,1,0,8,,,,,,,,,,,,,,,,6,,66,64
2610,note_on,,1,0,12,,,,,,,,,,,,,,,,11,,69,64
2639,note_on,,29,0,5,,,,,,,,,,,,,,,,0,,62,0
2639,note_on,,29,0,7,,,,,,,,,,,,,,,,5,,62,0
2639,note_on,,29,0,12,,,,,,,,,,,,,,,,11,,69,0
2639,note_on,,0,0,15,,,,,,,,,,,,,,,,15,,62,0
2639,note_on,,0,0,15,,,,,,,,,,,,,,,,15,,67,0
2639,note_on,,119,0,15,,,,,,,,,,,,,,,,15,,58,0
2639,note_on,,29,0,13,,,,,,,,,,,,,,,,12,,66,0
2639,note_on,,29,0,9,,,,,,,,,,,,,,,,7,,57,0
2639,note_on,,59,0,11,,,,,,,,,,,,,,,,10,,74,0
2639,note_on,,29,0,8,,,,,,,,,,,,,,,,6,,66,0
2640,note_on,,1,0,12,,,,,,,,,,,,,,,,11,,69,64
2640,note_on,,0,0,15,,,,,,,,,,,,,,,,15,,62,64
2640,note_on,,1,0,13,,,,,,,,,,,,,,,,12,,66,64
2640,note_on,,1,0,11,,,,,,,,,,,,,,,,10,,86,64
2640,note_on,,1,0,8,,,,,,,,,,,,,,,,6,,66,64
2640,note_on,,1,0,15,,,,,,,,,,,,,,,,15,,57,64
2640,note_on,,1,0,5,,,,,,,,,,,,,,,,0,,74,64
2640,note_on,,1,0,7,,,,,,,,,,,,,,,,5,,74,64
2640,note_on,,0,0,15,,,,,,,,,,,,,,,,15,,66,64
2640,note_on,,1,0,9,,,,,,,,,,,,,,,,7,,57,64
2729,note_on,,89,0,7,,,,,,,,,,,,,,,,5,,74,0
2729,note_on,,89,0,9,,,,,,,,,,,,,,,,7,,57,0
2729,note_on,,89,0,5,,,,,,,,,,,,,,,,0,,74,0
2729,note_on,,89,0,11,,,,,,,,,,,,,,,,10,,86,0
2729,note_on,,89,0,12,,,,,,,,,,,,,,,,11,,69,0
2729,note_on,,89,0,13,,,,,,,,,,,,,,,,12,,66,0
2730,note_on,,1,0,12,,,,,,,,,,,,,,,,11,,81,64
2730,note_on,,1,0,7,,,,,,,,,,,,,,,,5,,72,64
2730,note_on,,1,0,13,,,,,,,,,,,,,,,,12,,66,64
2730,note_on,,1,0,11,,,,,,,,,,,,,,,,10,,84,64
2730,note_on,,1,0,5,,,,,,,,,,,,,,,,0,,72,64
2730,note_on,,1,0,9,,,,,,,,,,,,,,,,7,,57,64
2759,note_on,,0,0,15,,,,,,,,,,,,,,,,15,,66,0
2759,note_on,,29,0,5,,,,,,,,,,,,,,,,0,,72,0
2759,note_on,,29,0,9,,,,,,,,,,,,,,,,7,,57,0
2759,note_on,,119,0,15,,,,,,,,,,,,,,,,15,,57,0
2759,note_on,,359,0,10,,,,,,,,,,,,,,,,8,,50,0
2759,note_on,,0,0,15,,,,,,,,,,,,,,,,15,,62,0
2759,note_on,,29,0,11,,,,,,,,,,,,,,,,10,,84,0
2759,note_on,,29,0,12,,,,,,,,,,,,,,,,11,,81,0
2759,note_on,,29,0,7,,,,,,,,,,,,,,,,5,,72,0
2759,note_on,,119,0,8,,,,,,,,,,,,,,,,6,,66,0
2759,note_on,,29,0,13,,,,,,,,,,,,,,,,12,,66,0
2760,note_on,,1,0,15,,,,,,,,,,,,,,,,15,,55,64
2760,note_on,,0,0,15,,,,,,,,,,,,,,,,15,,74,64
2760,note_on,,0,0,15,,,,,,,,,,,,,,,,15,,70,64
2760,note_on,,0,0,15,,,,,,,,,,,,,,,,15,,67,64
2760,note_on,,0,0,15,,,,,,,,,,,,,,,,15,,62,64
2760,note_on,,1,0,7,,,,,,,,,,,,,,,,5,,70,64
2760,note_on,,1,0,12,,,,,,,,,,,,,,,,11,,79,64
2760,note_on,,1,0,11,,,,,,,,,,,,,,,,10,,82,64
2760,note_on,,1,0,9,,,,,,,,,,,,,,,,7,,55,64
2760,note_on,,1,0,13,,,,,,,,,,,,,,,,12,,62,64
2760,note_on,,1,0,5,,,,,,,,,,,,,,,,0,,70,64
2774,note_on,,14,0,11,,,,,,,,,,,,,,,,10,,82,0
2774,note_on,,14,0,12,,,,,,,,,,,,,,,,11,,79,0
2775,note_on,,1,0,11,,,,,,,,,,,,,,,,10,,84,64
2775,note_on,,1,0,12,,,,,,,,,,,,,,,,11,,81,64
2789,note_on,,14,0,11,,,,,,,,,,,,,,,,10,,84,0
2789,note_on,,14,0,12,,,,,,,,,,,,,,,,11,,81,0
2790,note_on,,1,0,12,,,,,,,,,,,,,,,,11,,79,64
2790,note_on,,1,0,11,,,,,,,,,,,,,,,,10,,82,64
2804,note_on,,14,0,12,,,,,,,,,,,,,,,,11,,79,0
2804,note_on,,14,0,11,,,,,,,,,,,,,,,,10,,82,0
2805,note_on,,1,0,12,,,,,,,,,,,,,,,,11,,81,64
2805,note_on,,1,0,11,,,,,,,,,,,,,,,,10,,84,64
2819,note_on,,419,0,14,,,,,,,,,,,,,,,,13,,50,0
2819,note_on,,14,0,11,,,,,,,,,,,,,,,,10,,84,0
2819,note_on,,419,0,6,,,,,,,,,,,,,,,,2,,50,0
2819,note_on,,59,0,15,,,,,,,,,,,,,,,,15,,50,0
2819,note_on,,14,0,12,,,,,,,,,,,,,,,,11,,81,0
2819,note_on,,59,0,9,,,,,,,,,,,,,,,,7,,55,0
2820,note_on,,1,0,6,,,,,,,,,,,,,,,,2,,50,64
2820,note_on,,1,0,14,,,,,,,,,,,,,,,,13,,50,64
2820,note_on,,1,0,11,,,,,,,,,,,,,,,,10,,81,64
2820,note_on,,1,0,15,,,,,,,,,,,,,,,,15,,50,64
2820,note_on,,1,0,9,,,,,,,,,,,,,,,,7,,67,64
2820,note_on,,1,0,12,,,,,,,,,,,,,,,,11,,78,64
2834,note_on,,14,0,11,,,,,,,,,,,,,,,,10,,81,0
2834,note_on,,14,0,12,,,,,,,,,,,,,,,,11,,78,0
2835,note_on,,1,0,11,,,,,,,,,,,,,,,,10,,82,64
2835,note_on,,1,0,12,,,,,,,,,,,,,,,,11,,79,64
2849,note_on,,14,0,12,,,,,,,,,,,,,,,,11,,79,0
2849,note_on,,89,0,7,,,,,,,,,,,,,,,,5,,70,0
2849,note_on,,89,0,5,,,,,,,,,,,,,,,,0,,70,0
2849,note_on,,89,0,13,,,,,,,,,,,,,,,,12,,62,0
2849,note_on,,14,0,11,,,,,,,,,,,,,,,,10,,82,0
2850,note_on,,91,0,10,,,,,,,,,,,,,,,,8,,50,64
2850,note_on,,1,0,12,,,,,,,,,,,,,,,,11,,78,64
2850,note_on,,1,0,13,,,,,,,,,,,,,,,,12,,62,64
2850,note_on,,1,0,11,,,,,,,,,,,,,,,,10,,81,64
2850,note_on,,1,0,7,,,,,,,,,,,,,,,,5,,69,64
2850,note_on,,1,0,5,,,,,,,,,,,,,,,,0,,69,64
2879,note_on,,29,0,5,,,,,,,,,,,,,,,,0,,69,0
2879,note_on,,59,0,14,,,,,,,,,,,,,,,,13,,50,0
2879,note_on,,29,0,13,,,,,,,,,,,,,,,,12,,62,0
2879,note_on,,59,0,15,,,,,,,,,,,,,,,,15,,55,0
2879,note_on,,0,0,15,,,,,,,,,,,,,,,,15,,70,0
2879,note_on,,0,0,15,,,,,,,,,,,,,,,,15,,67,0
2879,note_on,,29,0,10,,,,,,,,,,,,,,,,8,,50,0
2879,note_on,,0,0,15,,,,,,,,,,,,,,,,15,,62,0
2879,note_on,,0,0,15,,,,,,,,,,,,,,,,15,,50,0
2879,note_on,,59,0,9,,,,,,,,,,,,,,,,7,,67,0
2879,note_on,,29,0,12,,,,,,,,,,,,,,,,11,,78,0
2879,note_on,,59,0,6,,,,,,,,,,,,,,,,2,,50,0
2879,note_on,,29,0,7,,,,,,,,,,,,,,,,5,,69,0
2879,note_on,,29,0,11,,,,,,,,,,,,,,,,10,,81,0
2880,note_on,,1,0,7,,,,,,,,,,,,,,,,5,,69,64
2880,note_on,,1,0,11,,,,,,,,,,,,,,,,10,,81,64
2880,note_on,,1,0,15,,,,,,,,,,,,,,,,15,,62,64
2880,note_on,,1,0,12,,,,,,,,,,,,,,,,11,,78,64
2880,note_on,,0,0,15,,,,,,,,,,,,,,,,15,,66,64
2880,note_on,,1,0,14,,,,,,,,,,,,,,,,13,,62,64
2880,note_on,,1,0,9,,,,,,,,,,,,,,,,7,,66,64
2880,note_on,,1,0,6,,,,,,,,,,,,,,,,2,,62,64
2880,note_on,,1,0,10,,,,,,,,,,,,,,,,8,,62,64
2880,note_on,,1,0,5,,,,,,,,,,,,,,,,0,,69,64
2880,note_on,,0,0,15,,,,,,,,,,,,,,,,15,,69,64
2880,note_on,,1,0,13,,,,,,,,,,,,,,,,12,,62,64
2969,note_on,,89,0,10,,,,,,,,,,,,,,,,8,,62,0
2969,note_on,,89,0,15,,,,,,,,,,,,,,,,15,,62,0
2969,note_on,,89,0,14,,,,,,,,,,,,,,,,13,,62,0
2969,note_on,,89,0,6,,,,,,,,,,,,,,,,2,,62,0
2970,note_on,,1,0,14,,,,,,,,,,,,,,,,13,,60,64
2970,note_on,,1,0,6,,,,,,,,,,,,,,,,2,,60,64
2970,note_on,,1,0,15,,,,,,,,,,,,,,,,15,,60,64
2970,note_on,,1,0,10,,,,,,,,,,,,,,,,8,,60,64
2999,note_on,,119,0,12,,,,,,,,,,,,,,,,11,,78,0
2999,note_on,,29,0,10,,,,,,,,,,,,,,,,8,,60,0
2999,note_on,,119,0,5,,,,,,,,,,,,,,,,0,,69,0
2999,note_on,,119,0,11,,,,,,,,,,,,,,,,10,,81,0
2999,note_on,,119,0,7,,,,,,,,,,,,,,,,5,,69,0
2999,note_on,,119,0,9,,,,,,,,,,,,,,,,7,,66,0
2999,note_on,,0,0,15,,,,,,,,,,,,,,,,15,,66,0
2999,note_on,,0,0,15,,,,,,,,,,,,,,,,15,,60,0
2999,note_on,,29,0,15,,,,,,,,,,,,,,,,15,,74,0
2999,note_on,,0,0,15,,,,,,,,,,,,,,,,15,,69,0
2999,note_on,,29,0,6,,,,,,,,,,,,,,,,2,,60,0
2999,note_on,,29,0,14,,,,,,,,,,,,,,,,13,,60,0
2999,note_on,,119,0,13,,,,,,,,,,,,,,,,12,,62,0
3000,note_on,,0,0,15,,,,,,,,,,,,,,,,15,,62,64
3000,note_on,,1,0,6,,,,,,,,,,,,,,,,2,,58,64
3000,note_on,,1,0,12,,,,,,,,,,,,,,,,11,,67,64
3000,note_on,,1,0,14,,,,,,,,,,,,,,,,13,,58,64
3000,note_on,,241,0,8,,,,,,,,,,,,,,,,6,,67,64
3000,note_on,,0,0,15,,,,,,,,,,,,,,,,15,,67,64
3000,note_on,,1,0,15,,,,,,,,,,,,,,,,15,,58,64
3000,note_on,,1,0,10,,,,,,,,,,,,,,,,8,,58,64
3060,note_on,,61,0,11,,,,,,,,,,,,,,,,10,,74,64
3089,note_on,,89,0,10,,,,,,,,,,,,,,,,8,,58,0
3089,note_on,,89,0,15,,,,,,,,,,,,,,,,15,,58,0
3089,note_on,,89,0,6,,,,,,,,,,,,,,,,2,,58,0
3089,note_on,,89,0,14,,,,,,,,,,,,,,,,13,,58,0
3090,note_on,,91,0,7,,,,,,,,,,,,,,,,5,,74,64
3090,note_on,,91,0,5,,,,,,,,,,,,,,,,0,,74,64
3090,note_on,,1,0,6,,,,,,,,,,,,,,,,2,,57,64
3090,note_on,,1,0,15,,,,,,,,,,,,,,,,15,,57,64
3090,note_on,,1,0,14,,,,,,,,,,,,,,,,13,,57,64
3090,note_on,,1,0,10,,,,,,,,,,,,,,,,8,,57,64
3119,note_on,,29,0,7,,,,,,,,,,,,,,,,5,,74,0
3119,note_on,,0,0,15,,,,,,,,,,,,,,,,15,,57,0
3119,note_on,,29,0,15,,,,,,,,,,,,,,,,15,,67,0
3119,note_on,,0,0,15,,,,,,,,,,,,,,,,15,,62,0
3119,note_on,,59,0,11,,,,,,,,,,,,,,,,10,,74,0
3119,note_on,,29,0,14,,,,,,,,,,,,,,,,13,,57,0
3119,note_on,,119,0,8,,,,,,,,,,,,,,,,6,,67,0
3119,note_on,,29,0,5,,,,,,,,,,,,,,,,0,,74,0
3119,note_on,,29,0,10,,,,,,,,,,,,,,,,8,,57,0
3119,note_on,,29,0,6,,,,,,,,,,,,,,,,2,,57,0
3120,note_on,,1,0,10,,,,,,,,,,,,,,,,8,,57,64
3120,note_on,,0,0,15,,,,,,,,,,,,,,,,15,,72,64
3120,note_on,,0,0,15,,,,,,,,,,,,,,,,15,,67,64
3120,note_on,,1,0,11,,,,,,,,,,,,,,,,10,,72,64
3120,note_on,,1,0,8,,,,,,,,,,,,,,,,6,,67,64
3120,note_on,,1,0,6,,,,,,,,,,,,,,,,2,,57,64
3120,note_on,,1,0,7,,,,,,,,,,,,,,,,5,,72,64
3120,note_on,,0,0,15,,,,,,,,,,,,,,,,15,,60,64
3120,note_on,,1,0,5,,,,,,,,,,,,,,,,0,,72,64
3120,note_on,,1,0,14,,,,,,,,,,,,,,,,13,,57,64
3120,note_on,,1,0,15,,,,,,,,,,,,,,,,15,,57,64
3239,note_on,,119,0,11,,,,,,,,,,,,,,,,10,,72,0
3239,note_on,,119,0,7,,,,,,,,,,,,,,,,5,,72,0
3239,note_on,,119,0,10,,,,,,,,,,,,,,,,8,,57,0
3239,note_on,,119,0,15,,,,,,,,,,,,,,,,15,,72,0
3239,note_on,,0,0,15,,,,,,,,,,,,,,,,15,,67,0
3239,note_on,,119,0,8,,,,,,,,,,,,,,,,6,,67,0
3239,note_on,,119,0,5,,,,,,,,,,,,,,,,0,,72,0
3239,note_on,,239,0,12,,,,,,,,,,,,,,,,11,,67,0
3240,note_on,,1,0,8,,,,,,,,,,,,,,,,6,,66,64
3240,note_on,,1,0,12,,,,,,,,,,,,,,,,11,,66,64
3240,note_on,,1,0,15,,,,,,,,,,,,,,,,15,,70,64
3240,note_on,,1,0,5,,,,,,,,,,,,,,,,0,,70,64
3240,note_on,,1,0,7,,,,,,,,,,,,,,,,5,,70,64
3240,note_on,,0,0,15,,,,,,,,,,,,,,,,15,,66,64
3240,note_on,,1,0,11,,,,,,,,,,,,,,,,10,,70,64
3254,note_on,,14,0,11,,,,,,,,,,,,,,,,10,,70,0
3255,note_on,,1,0,11,,,,,,,,,,,,,,,,10,,72,64
3269,note_on,,14,0,11,,,,,,,,,,,,,,,,10,,72,0
3270,note_on,,1,0,11,,,,,,,,,,,,,,,,10,,70,64
3284,note_on,,14,0,11,,,,,,,,,,,,,,,,10,,70,0
3285,note_on,,1,0,11,,,,,,,,,,,,,,,,10,,72,64
3299,note_on,,179,0,14,,,,,,,,,,,,,,,,13,,57,0
3299,note_on,,59,0,15,,,,,,,,,,,,,,,,15,,57,0
3299,note_on,,0,0,15,,,,,,,,,,,,,,,,15,,60,0
3299,note_on,,14,0,11,,,,,,,,,,,,,,,,10,,72,0
3299,note_on,,179,0,6,,,,,,,,,,,,,,,,2,,57,0
3300,note_on,,1,0,11,,,,,,,,,,,,,,,,10,,69,64
3300,note_on,,1,0,6,,,,,,,,,,,,,,,,2,,50,64
3300,note_on,,301,0,13,,,,,,,,,,,,,,,,12,,62,64
3300,note_on,,1,0,15,,,,,,,,,,,,,,,,15,,50,64
3300,note_on,,1,0,14,,,,,,,,,,,,,,,,13,,50,64
3314,note_on,,14,0,11,,,,,,,,,,,,,,,,10,,69,0
3315,note_on,,1,0,11,,,,,,,,,,,,,,,,10,,70,64
3329,note_on,,14,0,11,,,,,,,,,,,,,,,,10,,70,0
3329,note_on,,0,0,15,,,,,,,,,,,,,,,,15,,66,0
3329,note_on,,29,0,15,,,,,,,,,,,,,,,,15,,70,0
3329,note_on,,89,0,12,,,,,,,,,,,,,,,,11,,66,0
3329,note_on,,89,0,8,,,,,,,,,,,,,,,,6,,66,0
3329,note_on,,89,0,7,,,,,,,,,,,,,,,,5,,70,0
3329,note_on,,89,0,5,,,,,,,,,,,,,,,,0,,70,0
3330,note_on,,1,0,8,,,,,,,,,,,,,,,,6,,66,64
3330,note_on,,0,0,15,,,,,,,,,,,,,,,,15,,66,64
3330,note_on,,1,0,7,,,,,,,,,,,,,,,,5,,69,64
3330,note_on,,1,0,15,,,,,,,,,,,,,,,,15,,69,64
3330,note_on,,1,0,12,,,,,,,,,,,,,,,,11,,66,64
3330,note_on,,91,0,10,,,,,,,,,,,,,,,,8,,50,64
3330,note_on,,331,0,9,,,,,,,,,,,,,,,,7,,62,64
3330,note_on,,1,0,5,,,,,,,,,,,,,,,,0,,69,64
3330,note_on,,1,0,11,,,,,,,,,,,,,,,,10,,69,64
3359,note_on,,29,0,11,,,,,,,,,,,,,,,,10,,69,0
3359,note_on,,29,0,9,,,,,,,,,,,,,,,,7,,62,0
3359,note_on,,29,0,15,,,,,,,,,,,,,,,,15,,50,0
3359,note_on,,0,0,15,,,,,,,,,,,,,,,,15,,69,0
3359,note_on,,0,0,15,,,,,,,,,,,,,,,,15,,66,0
3359,note_on,,29,0,5,,,,,,,,,,,,,,,,0,,69,0
3359,note_on,,59,0,14,,,,,,,,,,,,,,,,13,,50,0
3359,note_on,,29,0,8,,,,,,,,,,,,,,,,6,,66,0
3359,note_on,,29,0,7,,,,,,,,,,,,,,,,5,,69,0
3359,note_on,,29,0,10,,,,,,,,,,,,,,,,8,,50,0
3359,note_on,,29,0,12,,,,,,,,,,,,,,,,11,,66,0
3359,note_on,,59,0,13,,,,,,,,,,,,,,,,12,,62,0
3359,note_on,,59,0,6,,,,,,,,,,,,,,,,2,,50,0
3360,note_on,,1,0,8,,,,,,,,,,,,,,,,6,,67,64
3360,note_on,,1,0,15,,,,,,,,,,,,,,,,15,,55,64
3360,note_on,,0,0,15,,,,,,,,,,,,,,,,15,,67,64
3360,note_on,,0,0,15,,,,,,,,,,,,,,,,15,,70,64
3360,note_on,,0,0,15,,,,,,,,,,,,,,,,15,,62,64
3360,note_on,,1,0,5,,,,,,,,,,,,,,,,0,,70,64
3360,note_on,,1,0,6,,,,,,,,,,,,,,,,2,,55,64
3360,note_on,,1,0,13,,,,,,,,,,,,,,,,12,,62,64
3360,note_on,,1,0,14,,,,,,,,,,,,,,,,13,,55,64
3360,note_on,,1,0,11,,,,,,,,,,,,,,,,10,,70,64
3360,note_on,,1,0,12,,,,,,,,,,,,,,,,11,,67,64
3360,note_on,,1,0,10,,,,,,,,,,,,,,,,8,,55,64
3360,note_on,,1,0,9,,,,,,,,,,,,,,,,7,,62,64
3360,note_on,,1,0,7,,,,,,,,,,,,,,,,5,,70,64
3449,note_on,,89,0,13,,,,,,,,,,,,,,,,12,,62,0
3449,note_on,,89,0,5,,,,,,,,,,,,,,,,0,,70,0
3449,note_on,,89,0,9,,,,,,,,,,,,,,,,7,,62,0
3449,note_on,,89,0,7,,,,,,,,,,,,,,,,5,,70,0
3449,note_on,,89,0,11,,,,,,,,,,,,,,,,10,,70,0
3450,note_on,,1,0,13,,,,,,,,,,,,,,,,12,,60,64
3450,note_on,,1,0,7,,,,,,,,,,,,,,,,5,,69,64
3450,note_on,,1,0,5,,,,,,,,,,,,,,,,0,,69,64
3450,note_on,,1,0,11,,,,,,,,,,,,,,,,10,,69,64
3450,note_on,,1,0,9,,,,,,,,,,,,,,,,7,,60,64
3479,note_on,,0,0,15,,,,,,,,,,,,,,,,15,,67,0
3479,note_on,,119,0,12,,,,,,,,,,,,,,,,11,,67,0
3479,note_on,,119,0,6,,,,,,,,,,,,,,,,2,,55,0
3479,note_on,,29,0,13,,,,,,,,,,,,,,,,12,,60,0
3479,note_on,,119,0,14,,,,,,,,,,,,,,,,13,,55,0
3479,note_on,,29,0,11,,,,,,,,,,,,,,,,10,,69,0
3479,note_on,,0,0,15,,,,,,,,,,,,,,,,15,,70,0
3479,note_on,,119,0,10,,,,,,,,,,,,,,,,8,,55,0
3479,note_on,,29,0,9,,,,,,,,,,,,,,,,7,,60,0
3479,note_on,,29,0,7,,,,,,,,,,,,,,,,5,,69,0
3479,note_on,,29,0,5,,,,,,,,,,,,,,,,0,,69,0
3479,note_on,,0,0,15,,,,,,,,,,,,,,,,15,,62,0
3479,note_on,,119,0,15,,,,,,,,,,,,,,,,15,,55,0
3479,note_on,,119,0,8,,,,,,,,,,,,,,,,6,,67,0
3480,note_on,,1,0,9,,,,,,,,,,,,,,,,7,,58,64
3480,note_on,,1,0,14,,,,,,,,,,,,,,,,13,,55,64
3480,note_on,,1,0,7,,,,,,,,,,,,,,,,5,,67,64
3480,note_on,,1,0,11,,,,,,,,,,,,,,,,10,,67,64
3480,note_on,,1,0,5,,,,,,,,,,,,,,,,0,,67,64
3480,note_on,,1,0,6,,,,,,,,,,,,,,,,2,,55,64
3480,note_on,,1,0,15,,,,,,,,,,,,,,,,15,,55,64
3480,note_on,,0,0,15,,,,,,,,,,,,,,,,15,,67,64
3480,note_on,,1,0,13,,,,,,,,,,,,,,,,12,,58,64
3480,note_on,,1,0,10,,,,,,,,,,,,,,,,8,,55,64
3480,note_on,,0,0,15,,,,,,,,,,,,,,,,15,,74,64
3569,note_on,,89,0,7,,,,,,,,,,,,,,,,5,,67,0
3569,note_on,,89,0,15,,,,,,,,,,,,,,,,15,,55,0
3569,note_on,,0,0,15,,,,,,,,,,,,,,,,15,,67,0
3569,note_on,,89,0,10,,,,,,,,,,,,,,,,8,,55,0
3569,note_on,,89,0,9,,,,,,,,,,,,,,,,7,,58,0
3569,note_on,,89,0,13,,,,,,,,,,,,,,,,12,,58,0
3569,note_on,,89,0,5,,,,,,,,,,,,,,,,0,,67,0
3569,note_on,,89,0,11,,,,,,,,,,,,,,,,10,,67,0
3569,note_on,,89,0,14,,,,,,,,,,,,,,,,13,,55,0
3569,note_on,,89,0,6,,,,,,,,,,,,,,,,2,,55,0
3570,note_on,,1,0,9,,,,,,,,,,,,,,,,7,,60,64
3570,note_on,,1,0,15,,,,,,,,,,,,,,,,15,,57,64
3570,note_on,,1,0,5,,,,,,,,,,,,,,,,0,,66,64
3570,note_on,,1,0,11,,,,,,,,,,,,,,,,10,,66,64
3570,note_on,,1,0,6,,,,,,,,,,,,,,,,2,,57,64
3570,note_on,,0,0,15,,,,,,,,,,,,,,,,15,,66,64
3570,note_on,,1,0,13,,,,,,,,,,,,,,,,12,,60,64
3570,note_on,,1,0,7,,,,,,,,,,,,,,,,5,,66,64
3570,note_on,,1,0,10,,,,,,,,,,,,,,,,8,,57,64
3570,note_on,,1,0,14,,,,,,,,,,,,,,,,13,,57,64
3599,note_on,,29,0,5,,,,,,,,,,,,,,,,0,,66,0
3599,note_on,,29,0,11,,,,,,,,,,,,,,,,10,,66,0
3599,note_on,,0,0,15,,,,,,,,,,,,,,,,15,,66,0
3599,note_on,,29,0,6,,,,,,,,,,,,,,,,2,,57,0
3599,note_on,,29,0,13,,,,,,,,,,,,,,,,12,,60,0
3599,note_on,,29,0,7,,,,,,,,,,,,,,,,5,,66,0
3599,note_on,,29,0,14,,,,,,,,,,,,,,,,13,,57,0
3599,note_on,,29,0,15,,,,,,,,,,,,,,,,15,,57,0
3599,note_on,,29,0,10,,,,,,,,,,,,,,,,8,,57,0
3599,note_on,,29,0,9,,,,,,,,,,,,,,,,7,,60,0
3600,note_on,,1,0,5,,,,,,,,,,,,,,,,0,,67,64
3600,note_on,,1,0,10,,,,,,,,,,,,,,,,8,,58,64
3600,note_on,,1,0,14,,,,,,,,,,,,,,,,13,,58,64
3600,note_on,,0,0,15,,,,,,,,,,,,,,,,15,,62,64
3600,note_on,,1,0,13,,,,,,,,,,,,,,,,12,,62,64
3600,note_on,,1,0,7,,,,,,,,,,,,,,,,5,,67,64
3600,note_on,,1,0,11,,,,,,,,,,,,,,,,10,,67,64
3600,note_on,,1,0,6,,,,,,,,,,,,,,,,2,,58,64
3600,note_on,,1,0,9,,,,,,,,,,,,,,,,7,,62,64
3600,note_on,,1,0,15,,,,,,,,,,,,,,,,15,,58,64
3600,note_on,,0,0,15,,,,,,,,,,,,,,,,15,,67,64
3660,note_on,,181,0,12,,,,,,,,,,,,,,,,11,,62,64
3690,note_on,,211,0,8,,,,,,,,,,,,,,,,6,,62,64
3719,note_on,,29,0,8,,,,,,,,,,,,,,,,6,,62,0
3719,note_on,,59,0,12,,,,,,,,,,,,,,,,11,,62,0
3720,note_on,,1,0,8,,,,,,,,,,,,,,,,6,,67,64
3720,note_on,,1,0,12,,,,,,,,,,,,,,,,11,,67,64
3779,note_on,,0,0,15,,,,,,,,,,,,,,,,15,,62,0
3779,note_on,,0,0,15,,,,,,,,,,,,,,,,15,,67,0
3779,note_on,,179,0,11,,,,,,,,,,,,,,,,10,,67,0
3779,note_on,,59,0,12,,,,,,,,,,,,,,,,11,,67,0
3779,note_on,,179,0,6,,,,,,,,,,,,,,,,2,,58,0
3779,note_on,,179,0,14,,,,,,,,,,,,,,,,13,,58,0
3779,note_on,,179,0,15,,,,,,,,,,,,,,,,15,,74,0
3779,note_on,,179,0,13,,,,,,,,,,,,,,,,12,,62,0
3779,note_on,,0,0,15,,,,,,,,,,,,,,,,15,,58,0
3780,note_on,,1,0,15,,,,,,,,,,,,,,,,15,,57,64
3780,note_on,,1,0,6,,,,,,,,,,,,,,,,2,,57,64
3780,note_on,,0,0,15,,,,,,,,,,,,,,,,15,,60,64
3780,note_on,,0,0,15,,,,,,,,,,,,,,,,15,,69,64
3780,note_on,,0,0,15,,,,,,,,,,,,,,,,15,,72,64
3780,note_on,,0,0,15,,,,,,,,,,,,,,,,15,,78,64
3780,note_on,,1,0,12,,,,,,,,,,,,,,,,11,,66,64
3780,note_on,,1,0,14,,,,,,,,,,,,,,,,13,,57,64
3780,note_on,,1,0,13,,,,,,,,,,,,,,,,12,,60,64
3780,note_on,,1,0,11,,,,,,,,,,,,,,,,10,,69,64
3809,note_on,,209,0,10,,,,,,,,,,,,,,,,8,,58,0
3809,note_on,,209,0,7,,,,,,,,,,,,,,,,5,,67,0
3809,note_on,,209,0,9,,,,,,,,,,,,,,,,7,,62,0
3809,note_on,,209,0,5,,,,,,,,,,,,,,,,0,,67,0
3810,note_on,,1,0,9,,,,,,,,,,,,,,,,7,,60,64
3810,note_on,,1,0,7,,,,,,,,,,,,,,,,5,,69,64
3810,note_on,,1,0,5,,,,,,,,,,,,,,,,0,,69,64
3810,note_on,,1,0,10,,,,,,,,,,,,,,,,8,,57,64
3839,note_on,,0,0,15,,,,,,,,,,,,,,,,15,,69,0
3839,note_on,,0,0,15,,,,,,,,,,,,,,,,15,,72,0
3839,note_on,,59,0,15,,,,,,,,,,,,,,,,15,,57,0
3839,note_on,,29,0,7,,,,,,,,,,,,,,,,5,,69,0
3839,note_on,,0,0,15,,,,,,,,,,,,,,,,15,,78,0
3839,note_on,,29,0,10,,,,,,,,,,,,,,,,8,,57,0
3839,note_on,,0,0,15,,,,,,,,,,,,,,,,15,,60,0
3839,note_on,,29,0,5,,,,,,,,,,,,,,,,0,,69,0
3839,note_on,,59,0,13,,,,,,,,,,,,,,,,12,,60,0
3839,note_on,,59,0,6,,,,,,,,,,,,,,,,2,,57,0
3839,note_on,,59,0,12,,,,,,,,,,,,,,,,11,,66,0
3839,note_on,,59,0,14,,,,,,,,,,,,,,,,13,,57,0
3839,note_on,,59,0,11,,,,,,,,,,,,,,,,10,,69,0
3839,note_on,,29,0,9,,,,,,,,,,,,,,,,7,,60,0
3840,note_on,,1,0,12,,,,,,,,,,,,,,,,11,,67,64
3840,note_on,,1,0,13,,,,,,,,,,,,,,,,12,,62,64
3840,note_on,,1,0,7,,,,,,,,,,,,,,,,5,,70,64
3840,note_on,,0,0,15,,,,,,,,,,,,,,,,15,,58,64
3840,note_on,,0,0,15,,,,,,,,,,,,,,,,15,,70,64
3840,note_on,,1,0,14,,,,,,,,,,,,,,,,13,,55,64
3840,note_on,,0,0,15,,,,,,,,,,,,,,,,15,,74,64
3840,note_on,,1,0,10,,,,,,,,,,,,,,,,8,,55,64
3840,note_on,,1,0,15,,,,,,,,,,,,,,,,15,,55,64
3840,note_on,,1,0,11,,,,,,,,,,,,,,,,10,,70,64
3840,note_on,,1,0,5,,,,,,,,,,,,,,,,0,,70,64
3840,note_on,,1,0,6,,,,,,,,,,,,,,,,2,,55,64
3840,note_on,,1,0,9,,,,,,,,,,,,,,,,7,,62,64
3840,note_on,,0,0,15,,,,,,,,,,,,,,,,15,,79,64
3929,note_on,,209,0,8,,,,,,,,,,,,,,,,6,,67,0
3929,note_on,,89,0,12,,,,,,,,,,,,,,,,11,,67,0
3929,note_on,,89,0,11,,,,,,,,,,,,,,,,10,,70,0
3929,note_on,,89,0,5,,,,,,,,,,,,,,,,0,,70,0
3929,note_on,,89,0,13,,,,,,,,,,,,,,,,12,,62,0
3929,note_on,,89,0,9,,,,,,,,,,,,,,,,7,,62,0
3929,note_on,,89,0,7,,,,,,,,,,,,,,,,5,,70,0
3930,note_on,,1,0,5,,,,,,,,,,,,,,,,0,,72,64
3930,note_on,,1,0,7,,,,,,,,,,,,,,,,5,,72,64
3930,note_on,,1,0,12,,,,,,,,,,,,,,,,11,,69,64
3930,note_on,,1,0,13,,,,,,,,,,,,,,,,12,,60,64
3930,note_on,,1,0,8,,,,,,,,,,,,,,,,6,,69,64
3930,note_on,,1,0,9,,,,,,,,,,,,,,,,7,,60,64
3930,note_on,,1,0,11,,,,,,,,,,,,,,,,10,,72,64
3959,note_on,,119,0,10,,,,,,,,,,,,,,,,8,,55,0
3959,note_on,,29,0,12,,,,,,,,,,,,,,,,11,,69,0
3959,note_on,,29,0,11,,,,,,,,,,,,,,,,10,,72,0
3959,note_on,,29,0,5,,,,,,,,,,,,,,,,0,,72,0
3959,note_on,,29,0,8,,,,,,,,,,,,,,,,6,,69,0
3959,note_on,,29,0,9,,,,,,,,,,,,,,,,7,,60,0
3959,note_on,,29,0,7,,,,,,,,,,,,,,,,5,,72,0
3959,note_on,,0,0,15,,,,,,,,,,,,,,,,15,,74,0
3959,note_on,,0,0,15,,,,,,,,,,,,,,,,15,,70,0
3959,note_on,,29,0,13,,,,,,,,,,,,,,,,12,,60,0
3959,note_on,,119,0,15,,,,,,,,,,,,,,,,15,,79,0
3960,note_on,,1,0,13,,,,,,,,,,,,,,,,12,,58,64
3960,note_on,,1,0,10,,,,,,,,,,,,,,,,8,,55,64
3960,note_on,,0,0,15,,,,,,,,,,,,,,,,15,,62,64
3960,note_on,,0,0,15,,,,,,,,,,,,,,,,15,,67,64
3960,note_on,,1,0,7,,,,,,,,,,,,,,,,5,,74,64
3960,note_on,,1,0,15,,,,,,,,,,,,,,,,15,,70,64
3960,note_on,,1,0,8,,,,,,,,,,,,,,,,6,,70,64
3960,note_on,,1,0,11,,,,,,,,,,,,,,,,10,,74,64
3960,note_on,,1,0,5,,,,,,,,,,,,,,,,0,,74,64
3960,note_on,,1,0,9,,,,,,,,,,,,,,,,7,,58,64
3960,note_on,,1,0,12,,,,,,,,,,,,,,,,11,,70,64
4019,note_on,,59,0,10,,,,,,,,,,,,,,,,8,,55,0
4019,note_on,,0,0,15,,,,,,,,,,,,,,,,15,,58,0
4019,note_on,,179,0,14,,,,,,,,,,,,,,,,13,,55,0
4019,note_on,,59,0,9,,,,,,,,,,,,,,,,7,,58,0
4019,note_on,,179,0,6,,,,,,,,,,,,,,,,2,,55,0
4019,note_on,,59,0,13,,,,,,,,,,,,,,,,12,,58,0
4019,note_on,,59,0,15,,,,,,,,,,,,,,,,15,,55,0
4020,note_on,,1,0,10,,,,,,,,,,,,,,,,8,,55,64
4020,note_on,,1,0,9,,,,,,,,,,,,,,,,7,,58,64
4020,note_on,,0,0,15,,,,,,,,,,,,,,,,15,,58,64
4020,note_on,,1,0,15,,,,,,,,,,,,,,,,15,,55,64
4020,note_on,,1,0,6,,,,,,,,,,,,,,,,2,,55,64
4020,note_on,,1,0,14,,,,,,,,,,,,,,,,13,,55,64
4020,note_on,,1,0,13,,,,,,,,,,,,,,,,12,,58,64
4049,note_on,,0,0,15,,,,,,,,,,,,,,,,15,,67,0
4049,note_on,,29,0,15,,,,,,,,,,,,,,,,15,,70,0
4049,note_on,,89,0,8,,,,,,,,,,,,,,,,6,,70,0
4049,note_on,,89,0,7,,,,,,,,,,,,,,,,5,,74,0
4049,note_on,,0,0,15,,,,,,,,,,,,,,,,15,,62,0
4049,note_on,,89,0,12,,,,,,,,,,,,,,,,11,,70,0
4049,note_on,,89,0,11,,,,,,,,,,,,,,,,10,,74,0
4049,note_on,,89,0,5,,,,,,,,,,,,,,,,0,,74,0
4050,note_on,,1,0,7,,,,,,,,,,,,,,,,5,,76,64
4050,note_on,,1,0,5,,,,,,,,,,,,,,,,0,,76,64
4050,note_on,,0,0,15,,,,,,,,,,,,,,,,15,,64,64
4050,note_on,,0,0,15,,,,,,,,,,,,,,,,15,,67,64
4050,note_on,,1,0,12,,,,,,,,,,,,,,,,11,,70,64
4050,note_on,,1,0,11,,,,,,,,,,,,,,,,10,,76,64
4050,note_on,,1,0,8,,,,,,,,,,,,,,,,6,,70,64
4050,note_on,,1,0,15,,,,,,,,,,,,,,,,15,,70,64
4079,note_on,,0,0,15,,,,,,,,,,,,,,,,15,,70,0
4079,note_on,,0,0,15,,,,,,,,,,,,,,,,15,,58,0
4079,note_on,,29,0,15,,,,,,,,,,,,,,,,15,,55,0
4079,note_on,,59,0,10,,,,,,,,,,,,,,,,8,,55,0
4079,note_on,,29,0,12,,,,,,,,,,,,,,,,11,,70,0
4079,note_on,,0,0,15,,,,,,,,,,,,,,,,15,,64,0
4079,note_on,,29,0,5,,,,,,,,,,,,,,,,0,,76,0
4079,note_on,,59,0,9,,,,,,,,,,,,,,,,7,,58,0
4079,note_on,,29,0,11,,,,,,,,,,,,,,,,10,,76,0
4079,note_on,,59,0,13,,,,,,,,,,,,,,,,12,,58,0
4079,note_on,,29,0,7,,,,,,,,,,,,,,,,5,,76,0
4079,note_on,,29,0,8,,,,,,,,,,,,,,,,6,,70,0
4079,note_on,,59,0,6,,,,,,,,,,,,,,,,2,,55,0
4079,note_on,,0,0,15,,,,,,,,,,,,,,,,15,,67,0
4079,note_on,,59,0,14,,,,,,,,,,,,,,,,13,,55,0
4080,note_on,,1,0,5,,,,,,,,,,,,,,,,0,,77,64
4080,note_on,,1,0,13,,,,,,,,,,,,,,,,12,,60,64
4080,note_on,,1,0,7,,,,,,,,,,,,,,,,5,,77,64
4080,note_on,,1,0,15,,,,,,,,,,,,,,,,15,,53,64
4080,note_on,,0,0,15,,,,,,,,,,,,,,,,15,,60,64
4080,note_on,,0,0,15,,,,,,,,,,,,,,,,15,,69,64
4080,note_on,,1,0,10,,,,,,,,,,,,,,,,8,,53,64
4080,note_on,,1,0,14,,,,,,,,,,,,,,,,13,,53,64
4080,note_on,,1,0,12,,,,,,,,,,,,,,,,11,,69,64
4080,note_on,,1,0,11,,,,,,,,,,,,,,,,10,,77,64
4080,note_on,,1,0,6,,,,,,,,,,,,,,,,2,,53,64
4080,note_on,,1,0,9,,,,,,,,,,,,,,,,7,,60,64
4080,note_on,,0,0,15,,,,,,,,,,,,,,,,15,,69,64
4080,note_on,,0,0,15,,,,,,,,,,,,,,,,15,,65,64
4080,note_on,,1,0,8,,,,,,,,,,,,,,,,6,,69,64
4199,note_on,,119,0,13,,,,,,,,,,,,,,,,12,,60,0
4199,note_on,,119,0,8,,,,,,,,,,,,,,,,6,,69,0
4199,note_on,,0,0,15,,,,,,,,,,,,,,,,15,,69,0
4199,note_on,,119,0,15,,,,,,,,,,,,,,,,15,,60,0
4199,note_on,,119,0,9,,,,,,,,,,,,,,,,7,,60,0
4199,note_on,,119,0,12,,,,,,,,,,,,,,,,11,,69,0
4200,note_on,,0,0,15,,,,,,,,,,,,,,,,15,,65,64
4200,note_on,,1,0,15,,,,,,,,,,,,,,,,15,,57,64
4260,note_on,,61,0,13,,,,,,,,,,,,,,,,12,,74,64
4260,note_on,,61,0,12,,,,,,,,,,,,,,,,11,,77,64
4290,note_on,,91,0,9,,,,,,,,,,,,,,,,7,,62,64
4290,note_on,,91,0,8,,,,,,,,,,,,,,,,6,,65,64
4319,note_on,,0,0,15,,,,,,,,,,,,,,,,15,,65,0
4319,note_on,,29,0,9,,,,,,,,,,,,,,,,7,,62,0
4319,note_on,,29,0,8,,,,,,,,,,,,,,,,6,,65,0
4319,note_on,,59,0,13,,,,,,,,,,,,,,,,12,,74,0
4319,note_on,,119,0,15,,,,,,,,,,,,,,,,15,,69,0
4319,note_on,,0,0,15,,,,,,,,,,,,,,,,15,,65,0
4319,note_on,,59,0,12,,,,,,,,,,,,,,,,11,,77,0
4319,note_on,,0,0,15,,,,,,,,,,,,,,,,15,,57,0
4320,note_on,,1,0,12,,,,,,,,,,,,,,,,11,,77,64
4320,note_on,,0,0,15,,,,,,,,,,,,,,,,15,,62,64
4320,note_on,,1,0,13,,,,,,,,,,,,,,,,12,,74,64
4320,note_on,,0,0,15,,,,,,,,,,,,,,,,15,,65,64
4320,note_on,,0,0,15,,,,,,,,,,,,,,,,15,,70,64
4320,note_on,,1,0,8,,,,,,,,,,,,,,,,6,,65,64
4320,note_on,,1,0,15,,,,,,,,,,,,,,,,15,,77,64
4320,note_on,,1,0,9,,,,,,,,,,,,,,,,7,,62,64
4409,note_on,,89,0,9,,,,,,,,,,,,,,,,7,,62,0
4409,note_on,,89,0,12,,,,,,,,,,,,,,,,11,,77,0
4409,note_on,,89,0,13,,,,,,,,,,,,,,,,12,,74,0
4409,note_on,,89,0,8,,,,,,,,,,,,,,,,6,,65,0
4410,note_on,,1,0,13,,,,,,,,,,,,,,,,12,,72,64
4410,note_on,,1,0,12,,,,,,,,,,,,,,,,11,,75,64
4410,note_on,,1,0,8,,,,,,,,,,,,,,,,6,,63,64
4410,note_on,,1,0,9,,,,,,,,,,,,,,,,7,,60,64
4439,note_on,,359,0,7,,,,,,,,,,,,,,,,5,,77,0
4439,note_on,,29,0,8,,,,,,,,,,,,,,,,6,,63,0
4439,note_on,,29,0,12,,,,,,,,,,,,,,,,11,,75,0
4439,note_on,,359,0,5,,,,,,,,,,,,,,,,0,,77,0
4439,note_on,,29,0,9,,,,,,,,,,,,,,,,7,,60,0
4439,note_on,,29,0,13,,,,,,,,,,,,,,,,12,,72,0
4440,note_on,,1,0,8,,,,,,,,,,,,,,,,6,,62,64
4440,note_on,,1,0,13,,,,,,,,,,,,,,,,12,,70,64
4440,note_on,,1,0,9,,,,,,,,,,,,,,,,7,,58,64
4440,note_on,,1,0,12,,,,,,,,,,,,,,,,11,,74,64
4454,note_on,,14,0,13,,,,,,,,,,,,,,,,12,,70,0
4454,note_on,,14,0,12,,,,,,,,,,,,,,,,11,,74,0
4455,note_on,,1,0,13,,,,,,,,,,,,,,,,12,,72,64
4455,note_on,,1,0,12,,,,,,,,,,,,,,,,11,,75,64
4469,note_on,,14,0,12,,,,,,,,,,,,,,,,11,,75,0
4469,note_on,,14,0,13,,,,,,,,,,,,,,,,12,,72,0
4470,note_on,,1,0,12,,,,,,,,,,,,,,,,11,,74,64
4470,note_on,,1,0,13,,,,,,,,,,,,,,,,12,,70,64
4484,note_on,,14,0,13,,,,,,,,,,,,,,,,12,,70,0
4484,note_on,,14,0,12,,,,,,,,,,,,,,,,11,,74,0
4485,note_on,,1,0,12,,,,,,,,,,,,,,,,11,,75,64
4485,note_on,,1,0,13,,,,,,,,,,,,,,,,12,,72,64
4499,note_on,,14,0,12,,,,,,,,,,,,,,,,11,,75,0
4499,note_on,,14,0,13,,,,,,,,,,,,,,,,12,,72,0
4499,note_on,,419,0,11,,,,,,,,,,,,,,,,10,,77,0
4500,note_on,,1,0,12,,,,,,,,,,,,,,,,11,,72,64
4500,note_on,,1,0,11,,,,,,,,,,,,,,,,10,,77,64
4500,note_on,,1,0,13,,,,,,,,,,,,,,,,12,,69,64
4514,note_on,,14,0,13,,,,,,,,,,,,,,,,12,,69,0
4514,note_on,,14,0,12,,,,,,,,,,,,,,,,11,,72,0
4515,note_on,,1,0,13,,,,,,,,,,,,,,,,12,,70,64
4515,note_on,,1,0,12,,,,,,,,,,,,,,,,11,,74,64
4529,note_on,,14,0,13,,,,,,,,,,,,,,,,12,,70,0
4529,note_on,,14,0,12,,,,,,,,,,,,,,,,11,,74,0
4529,note_on,,89,0,9,,,,,,,,,,,,,,,,7,,58,0
4529,note_on,,89,0,8,,,,,,,,,,,,,,,,6,,62,0
4530,note_on,,1,0,8,,,,,,,,,,,,,,,,6,,60,64
4530,note_on,,1,0,12,,,,,,,,,,,,,,,,11,,72,64
4530,note_on,,1,0,13,,,,,,,,,,,,,,,,12,,69,64
4530,note_on,,91,0,5,,,,,,,,,,,,,,,,0,,77,64
4530,note_on,,91,0,7,,,,,,,,,,,,,,,,5,,77,64
4530,note_on,,1,0,9,,,,,,,,,,,,,,,,7,,57,64
4559,note_on,,29,0,5,,,,,,,,,,,,,,,,0,,77,0
4559,note_on,,239,0,15,,,,,,,,,,,,,,,,15,,77,0
4559,note_on,,0,0,15,,,,,,,,,,,,,,,,15,,70,0
4559,note_on,,0,0,15,,,,,,,,,,,,,,,,15,,65,0
4559,note_on,,29,0,13,,,,,,,,,,,,,,,,12,,69,0
4559,note_on,,29,0,8,,,,,,,,,,,,,,,,6,,60,0
4559,note_on,,29,0,9,,,,,,,,,,,,,,,,7,,57,0
4559,note_on,,29,0,7,,,,,,,,,,,,,,,,5,,77,0
4559,note_on,,59,0,11,,,,,,,,,,,,,,,,10,,77,0
4559,note_on,,29,0,12,,,,,,,,,,,,,,,,11,,72,0
4559,note_on,,0,0,15,,,,,,,,,,,,,,,,15,,62,0
4560,note_on,,1,0,15,,,,,,,,,,,,,,,,15,,72,64
4560,note_on,,1,0,8,,,,,,,,,,,,,,,,6,,60,64
4560,note_on,,0,0,15,,,,,,,,,,,,,,,,15,,60,64
4560,note_on,,0,0,15,,,,,,,,,,,,,,,,15,,69,64
4560,note_on,,0,0,15,,,,,,,,,,,,,,,,15,,65,64
4560,note_on,,1,0,11,,,,,,,,,,,,,,,,10,,77,64
4560,note_on,,1,0,5,,,,,,,,,,,,,,,,0,,77,64
4560,note_on,,1,0,13,,,,,,,,,,,,,,,,12,,69,64
4560,note_on,,1,0,7,,,,,,,,,,,,,,,,5,,77,64
4560,note_on,,1,0,9,,,,,,,,,,,,,,,,7,,57,64
4560,note_on,,1,0,12,,,,,,,,,,,,,,,,11,,72,64
4649,note_on,,89,0,5,,,,,,,,,,,,,,,,0,,77,0
4649,note_on,,89,0,8,,,,,,,,,,,,,,,,6,,60,0
4649,note_on,,89,0,11,,,,,,,,,,,,,,,,10,,77,0
4649,note_on,,89,0,13,,,,,,,,,,,,,,,,12,,69,0
4649,note_on,,89,0,7,,,,,,,,,,,,,,,,5,,77,0
4650,note_on,,1,0,5,,,,,,,,,,,,,,,,0,,75,64
4650,note_on,,1,0,11,,,,,,,,,,,,,,,,10,,75,64
4650,note_on,,1,0,7,,,,,,,,,,,,,,,,5,,75,64
4650,note_on,,1,0,8,,,,,,,,,,,,,,,,6,,65,64
4650,note_on,,1,0,13,,,,,,,,,,,,,,,,12,,65,64
4679,note_on,,29,0,8,,,,,,,,,,,,,,,,6,,65,0
4679,note_on,,119,0,12,,,,,,,,,,,,,,,,11,,72,0
4679,note_on,,119,0,15,,,,,,,,,,,,,,,,15,,72,0
4679,note_on,,29,0,11,,,,,,,,,,,,,,,,10,,75,0
4679,note_on,,0,0,15,,,,,,,,,,,,,,,,15,,60,0
4679,note_on,,29,0,13,,,,,,,,,,,,,,,,12,,65,0
4679,note_on,,29,0,7,,,,,,,,,,,,,,,,5,,75,0
4679,note_on,,29,0,5,,,,,,,,,,,,,,,,0,,75,0
4679,note_on,,119,0,9,,,,,,,,,,,,,,,,7,,57,0
4679,note_on,,0,0,15,,,,,,,,,,,,,,,,15,,65,0
4679,note_on,,0,0,15,,,,,,,,,,,,,,,,15,,69,0
4680,note_on,,0,0,15,,,,,,,,,,,,,,,,15,,58,64
4680,note_on,,1,0,5,,,,,,,,,,,,,,,,0,,74,64
4680,note_on,,1,0,13,,,,,,,,,,,,,,,,12,,70,64
4680,note_on,,1,0,7,,,,,,,,,,,,,,,,5,,74,64
4680,note_on,,0,0,15,,,,,,,,,,,,,,,,15,,65,64
4680,note_on,,1,0,11,,,,,,,,,,,,,,,,10,,74,64
4680,note_on,,1,0,8,,,,,,,,,,,,,,,,6,,70,64
4680,note_on,,1,0,15,,,,,,,,,,,,,,,,15,,74,64
4680,note_on,,0,0,15,,,,,,,,,,,,,,,,15,,70,64
4694,note_on,,14,0,11,,,,,,,,,,,,,,,,10,,74,0
4694,note_on,,14,0,13,,,,,,,,,,,,,,,,12,,70,0
4695,note_on,,1,0,11,,,,,,,,,,,,,,,,10,,75,64
4695,note_on,,1,0,13,,,,,,,,,,,,,,,,12,,72,64
4709,note_on,,14,0,13,,,,,,,,,,,,,,,,12,,72,0
4709,note_on,,14,0,11,,,,,,,,,,,,,,,,10,,75,0
4710,note_on,,1,0,13,,,,,,,,,,,,,,,,12,,70,64
4710,note_on,,1,0,11,,,,,,,,,,,,,,,,10,,74,64
4724,note_on,,14,0,13,,,,,,,,,,,,,,,,12,,70,0
4724,note_on,,14,0,11,,,,,,,,,,,,,,,,10,,74,0
4725,note_on,,1,0,11,,,,,,,,,,,,,,,,10,,75,64
4725,note_on,,1,0,13,,,,,,,,,,,,,,,,12,,72,64
4739,note_on,,14,0,13,,,,,,,,,,,,,,,,12,,72,0
4739,note_on,,14,0,11,,,,,,,,,,,,,,,,10,,75,0
4740,note_on,,1,0,13,,,,,,,,,,,,,,,,12,,69,64
4740,note_on,,61,0,12,,,,,,,,,,,,,,,,11,,65,64
4740,note_on,,1,0,11,,,,,,,,,,,,,,,,10,,72,64
4754,note_on,,14,0,13,,,,,,,,,,,,,,,,12,,69,0
4754,note_on,,14,0,11,,,,,,,,,,,,,,,,10,,72,0
4755,note_on,,1,0,13,,,,,,,,,,,,,,,,12,,70,64
4755,note_on,,1,0,11,,,,,,,,,,,,,,,,10,,74,64
4769,note_on,,14,0,13,,,,,,,,,,,,,,,,12,,70,0
4769,note_on,,89,0,5,,,,,,,,,,,,,,,,0,,74,0
4769,note_on,,14,0,11,,,,,,,,,,,,,,,,10,,74,0
4769,note_on,,89,0,8,,,,,,,,,,,,,,,,6,,70,0
4769,note_on,,89,0,7,,,,,,,,,,,,,,,,5,,74,0
4770,note_on,,1,0,5,,,,,,,,,,,,,,,,0,,72,64
4770,note_on,,1,0,7,,,,,,,,,,,,,,,,5,,72,64
4770,note_on,,91,0,9,,,,,,,,,,,,,,,,7,,65,64
4770,note_on,,1,0,11,,,,,,,,,,,,,,,,10,,72,64
4770,note_on,,1,0,8,,,,,,,,,,,,,,,,6,,69,64
4770,note_on,,1,0,13,,,,,,,,,,,,,,,,12,,69,64
4799,note_on,,29,0,9,,,,,,,,,,,,,,,,7,,65,0
4799,note_on,,29,0,7,,,,,,,,,,,,,,,,5,,72,0
4799,note_on,,0,0,15,,,,,,,,,,,,,,,,15,,70,0
4799,note_on,,29,0,8,,,,,,,,,,,,,,,,6,,69,0
4799,note_on,,29,0,5,,,,,,,,,,,,,,,,0,,72,0
4799,note_on,,0,0,15,,,,,,,,,,,,,,,,15,,65,0
4799,note_on,,59,0,12,,,,,,,,,,,,,,,,11,,65,0
4799,note_on,,29,0,11,,,,,,,,,,,,,,,,10,,72,0
4799,note_on,,119,0,15,,,,,,,,,,,,,,,,15,,74,0
4799,note_on,,29,0,13,,,,,,,,,,,,,,,,12,,69,0
4799,note_on,,0,0,15,,,,,,,,,,,,,,,,15,,58,0
4800,note_on,,1,0,11,,,,,,,,,,,,,,,,10,,72,64
4800,note_on,,1,0,8,,,,,,,,,,,,,,,,6,,69,64
4800,note_on,,1,0,12,,,,,,,,,,,,,,,,11,,65,64
4800,note_on,,1,0,13,,,,,,,,,,,,,,,,12,,69,64
4800,note_on,,1,0,5,,,,,,,,,,,,,,,,0,,72,64
4800,note_on,,1,0,15,,,,,,,,,,,,,,,,15,,57,64
4800,note_on,,0,0,15,,,,,,,,,,,,,,,,15,,72,64
4800,note_on,,0,0,15,,,,,,,,,,,,,,,,15,,65,64
4800,note_on,,1,0,9,,,,,,,,,,,,,,,,7,,65,64
4800,note_on,,1,0,7,,,,,,,,,,,,,,,,5,,72,64
4889,note_on,,89,0,9,,,,,,,,,,,,,,,,7,,65,0
4889,note_on,,89,0,7,,,,,,,,,,,,,,,,5,,72,0
4889,note_on,,89,0,12,,,,,,,,,,,,,,,,11,,65,0
4889,note_on,,89,0,5,,,,,,,,,,,,,,,,0,,72,0
4890,note_on,,1,0,7,,,,,,,,,,,,,,,,5,,72,64
4890,note_on,,1,0,12,,,,,,,,,,,,,,,,11,,63,64
4890,note_on,,1,0,5,,,,,,,,,,,,,,,,0,,72,64
4890,note_on,,1,0,9,,,,,,,,,,,,,,,,7,,63,64
4919,note_on,,29,0,5,,,,,,,,,,,,,,,,0,,72,0
4919,note_on,,839,0,10,,,,,,,,,,,,,,,,8,,53,0
4919,note_on,,29,0,9,,,,,,,,,,,,,,,,7,,63,0
4919,note_on,,119,0,13,,,,,,,,,,,,,,,,12,,69,0
4919,note_on,,119,0,15,,,,,,,,,,,,,,,,15,,57,0
4919,note_on,,29,0,7,,,,,,,,,,,,,,,,5,,72,0
4919,note_on,,0,0,15,,,,,,,,,,,,,,,,15,,72,0
4919,note_on,,119,0,11,,,,,,,,,,,,,,,,10,,72,0
4919,note_on,,0,0,15,,,,,,,,,,,,,,,,15,,65,0
4919,note_on,,29,0,12,,,,,,,,,,,,,,,,11,,63,0
4919,note_on,,119,0,8,,,,,,,,,,,,,,,,6,,69,0
4920,note_on,,1,0,7,,,,,,,,,,,,,,,,5,,70,64
4920,note_on,,1,0,15,,,,,,,,,,,,,,,,15,,77,64
4920,note_on,,1,0,9,,,,,,,,,,,,,,,,7,,62,64
4920,note_on,,1,0,11,,,,,,,,,,,,,,,,10,,70,64
4920,note_on,,0,0,15,,,,,,,,,,,,,,,,15,,62,64
4920,note_on,,0,0,15,,,,,,,,,,,,,,,,15,,65,64
4920,note_on,,1,0,5,,,,,,,,,,,,,,,,0,,70,64
4920,note_on,,1,0,12,,,,,,,,,,,,,,,,11,,62,64
4920,note_on,,0,0,15,,,,,,,,,,,,,,,,15,,70,64
4934,note_on,,14,0,11,,,,,,,,,,,,,,,,10,,70,0
4934,note_on,,14,0,12,,,,,,,,,,,,,,,,11,,62,0
4935,note_on,,1,0,11,,,,,,,,,,,,,,,,10,,72,64
4935,note_on,,1,0,12,,,,,,,,,,,,,,,,11,,63,64
4949,note_on,,14,0,12,,,,,,,,,,,,,,,,11,,63,0
4949,note_on,,14,0,11,,,,,,,,,,,,,,,,10,,72,0
4950,note_on,,1,0,12,,,,,,,,,,,,,,,,11,,62,64
4950,note_on,,1,0,11,,,,,,,,,,,,,,,,10,,70,64
4964,note_on,,14,0,12,,,,,,,,,,,,,,,,11,,62,0
4964,note_on,,14,0,11,,,,,,,,,,,,,,,,10,,70,0
4965,note_on,,1,0,12,,,,,,,,,,,,,,,,11,,63,64
4965,note_on,,1,0,11,,,,,,,,,,,,,,,,10,,72,64
4979,note_on,,899,0,14,,,,,,,,,,,,,,,,13,,53,0
4979,note_on,,59,0,15,,,,,,,,,,,,,,,,15,,53,0
4979,note_on,,14,0,12,,,,,,,,,,,,,,,,11,,63,0
4979,note_on,,899,0,6,,,,,,,,,,,,,,,,2,,53,0
4979,note_on,,14,0,11,,,,,,,,,,,,,,,,10,,72,0
4980,note_on,,61,0,13,,,,,,,,,,,,,,,,12,,65,64
4980,note_on,,1,0,12,,,,,,,,,,,,,,,,11,,60,64
4980,note_on,,1,0,15,,,,,,,,,,,,,,,,15,,53,64
4980,note_on,,1,0,6,,,,,,,,,,,,,,,,2,,53,64
4980,note_on,,1,0,14,,,,,,,,,,,,,,,,13,,53,64
4980,note_on,,1,0,11,,,,,,,,,,,,,,,,10,,69,64
4994,note_on,,14,0,11,,,,,,,,,,,,,,,,10,,69,0
4994,note_on,,14,0,12,,,,,,,,,,,,,,,,11,,60,0
4995,note_on,,1,0,12,,,,,,,,,,,,,,,,11,,62,64
4995,note_on,,1,0,11,,,,,,,,,,,,,,,,10,,70,64
5009,note_on,,89,0,5,,,,,,,,,,,,,,,,0,,70,0
5009,note_on,,89,0,7,,,,,,,,,,,,,,,,5,,70,0
5009,note_on,,89,0,9,,,,,,,,,,,,,,,,7,,62,0
5009,note_on,,14,0,12,,,,,,,,,,,,,,,,11,,62,0
5009,note_on,,14,0,11,,,,,,,,,,,,,,,,10,,70,0
5010,note_on,,1,0,7,,,,,,,,,,,,,,,,5,,69,64
5010,note_on,,1,0,9,,,,,,,,,,,,,,,,7,,60,64
5010,note_on,,91,0,8,,,,,,,,,,,,,,,,6,,65,64
5010,note_on,,1,0,11,,,,,,,,,,,,,,,,10,,69,64
5010,note_on,,91,0,10,,,,,,,,,,,,,,,,8,,53,64
5010,note_on,,1,0,5,,,,,,,,,,,,,,,,0,,69,64
5010,note_on,,1,0,12,,,,,,,,,,,,,,,,11,,60,64
5039,note_on,,29,0,10,,,,,,,,,,,,,,,,8,,53,0
5039,note_on,,59,0,15,,,,,,,,,,,,,,,,15,,77,0
5039,note_on,,0,0,15,,,,,,,,,,,,,,,,15,,70,0
5039,note_on,,29,0,11,,,,,,,,,,,,,,,,10,,69,0
5039,note_on,,0,0,15,,,,,,,,,,,,,,,,15,,53,0
5039,note_on,,29,0,9,,,,,,,,,,,,,,,,7,,60,0
5039,note_on,,59,0,14,,,,,,,,,,,,,,,,13,,53,0
5039,note_on,,0,0,15,,,,,,,,,,,,,,,,15,,62,0
5039,note_on,,29,0,8,,,,,,,,,,,,,,,,6,,65,0
5039,note_on,,29,0,12,,,,,,,,,,,,,,,,11,,60,0
5039,note_on,,59,0,13,,,,,,,,,,,,,,,,12,,65,0
5039,note_on,,29,0,5,,,,,,,,,,,,,,,,0,,69,0
5039,note_on,,59,0,6,,,,,,,,,,,,,,,,2,,53,0
5039,note_on,,29,0,7,,,,,,,,,,,,,,,,5,,69,0
5039,note_on,,0,0,15,,,,,,,,,,,,,,,,15,,65,0
5040,note_on,,1,0,7,,,,,,,,,,,,,,,,5,,69,64
5040,note_on,,1,0,10,,,,,,,,,,,,,,,,8,,53,64
5040,note_on,,1,0,5,,,,,,,,,,,,,,,,0,,69,64
5040,note_on,,1,0,9,,,,,,,,,,,,,,,,7,,60,64
5040,note_on,,1,0,14,,,,,,,,,,,,,,,,13,,53,64
5040,note_on,,1,0,6,,,,,,,,,,,,,,,,2,,53,64
5040,note_on,,0,0,15,,,,,,,,,,,,,,,,15,,72,64
5040,note_on,,1,0,12,,,,,,,,,,,,,,,,11,,60,64
5040,note_on,,1,0,8,,,,,,,,,,,,,,,,6,,69,64
5040,note_on,,1,0,13,,,,,,,,,,,,,,,,12,,69,64
5040,note_on,,1,0,15,,,,,,,,,,,,,,,,15,,53,64
5040,note_on,,1,0,11,,,,,,,,,,,,,,,,10,,69,64
5040,note_on,,0,0,15,,,,,,,,,,,,,,,,15,,60,64
5040,note_on,,0,0,15,,,,,,,,,,,,,,,,15,,65,64
5040,note_on,,0,0,15,,,,,,,,,,,,,,,,15,,69,64
5129,note_on,,89,0,6,,,,,,,,,,,,,,,,2,,53,0
5129,note_on,,89,0,10,,,,,,,,,,,,,,,,8,,53,0
5129,note_on,,89,0,13,,,,,,,,,,,,,,,,12,,69,0
5129,note_on,,89,0,14,,,,,,,,,,,,,,,,13,,53,0
5129,note_on,,89,0,15,,,,,,,,,,,,,,,,15,,53,0
5129,note_on,,89,0,8,,,,,,,,,,,,,,,,6,,69,0
5130,note_on,,1,0,8,,,,,,,,,,,,,,,,6,,67,64
5130,note_on,,1,0,14,,,,,,,,,,,,,,,,13,,52,64
5130,note_on,,1,0,6,,,,,,,,,,,,,,,,2,,52,64
5130,note_on,,1,0,13,,,,,,,,,,,,,,,,12,,67,64
5130,note_on,,1,0,10,,,,,,,,,,,,,,,,8,,52,64
5130,note_on,,1,0,15,,,,,,,,,,,,,,,,15,,52,64
5159,note_on,,29,0,15,,,,,,,,,,,,,,,,15,,72,0
5159,note_on,,119,0,11,,,,,,,,,,,,,,,,10,,69,0
5159,note_on,,119,0,5,,,,,,,,,,,,,,,,0,,69,0
5159,note_on,,29,0,10,,,,,,,,,,,,,,,,8,,52,0
5159,note_on,,29,0,6,,,,,,,,,,,,,,,,2,,52,0
5159,note_on,,119,0,7,,,,,,,,,,,,,,,,5,,69,0
5159,note_on,,119,0,12,,,,,,,,,,,,,,,,11,,60,0
5159,note_on,,29,0,13,,,,,,,,,,,,,,,,12,,67,0
5159,note_on,,29,0,8,,,,,,,,,,,,,,,,6,,67,0
5159,note_on,,119,0,9,,,,,,,,,,,,,,,,7,,60,0
5159,note_on,,29,0,14,,,,,,,,,,,,,,,,13,,52,0
5159,note_on,,0,0,15,,,,,,,,,,,,,,,,15,,69,0
5159,note_on,,0,0,15,,,,,,,,,,,,,,,,15,,65,0
5159,note_on,,0,0,15,,,,,,,,,,,,,,,,15,,60,0
5159,note_on,,0,0,15,,,,,,,,,,,,,,,,15,,52,0
5160,note_on,,1,0,9,,,,,,,,,,,,,,,,7,,62,64
5160,note_on,,1,0,14,,,,,,,,,,,,,,,,13,,50,64
5160,note_on,,1,0,12,,,,,,,,,,,,,,,,11,,65,64
5160,note_on,,0,0,15,,,,,,,,,,,,,,,,15,,74,64
5160,note_on,,1,0,7,,,,,,,,,,,,,,,,5,,71,64
5160,note_on,,1,0,15,,,,,,,,,,,,,,,,15,,50,64
5160,note_on,,0,0,15,,,,,,,,,,,,,,,,15,,53,64
5160,note_on,,0,0,15,,,,,,,,,,,,,,,,15,,65,64
5160,note_on,,0,0,15,,,,,,,,,,,,,,,,15,,71,64
5160,note_on,,1,0,6,,,,,,,,,,,,,,,,2,,50,64
5160,note_on,,1,0,8,,,,,,,,,,,,,,,,6,,65,64
5160,note_on,,1,0,13,,,,,,,,,,,,,,,,12,,65,64
5160,note_on,,1,0,5,,,,,,,,,,,,,,,,0,,71,64
5160,note_on,,1,0,11,,,,,,,,,,,,,,,,10,,71,64
5160,note_on,,1,0,10,,,,,,,,,,,,,,,,8,,50,64
5249,note_on,,89,0,8,,,,,,,,,,,,,,,,6,,65,0
5249,note_on,,89,0,12,,,,,,,,,,,,,,,,11,,65,0
5249,note_on,,89,0,15,,,,,,,,,,,,,,,,15,,50,0
5249,note_on,,89,0,13,,,,,,,,,,,,,,,,12,,65,0
5249,note_on,,89,0,6,,,,,,,,,,,,,,,,2,,50,0
5249,note_on,,89,0,10,,,,,,,,,,,,,,,,8,,50,0
5249,note_on,,89,0,14,,,,,,,,,,,,,,,,13,,50,0
5250,note_on,,1,0,6,,,,,,,,,,,,,,,,2,,48,64
5250,note_on,,1,0,13,,,,,,,,,,,,,,,,12,,67,64
5250,note_on,,1,0,15,,,,,,,,,,,,,,,,15,,48,64
5250,note_on,,1,0,8,,,,,,,,,,,,,,,,6,,64,64
5250,note_on,,1,0,10,,,,,,,,,,,,,,,,8,,48,64
5250,note_on,,1,0,14,,,,,,,,,,,,,,,,13,,48,64
5250,note_on,,1,0,12,,,,,,,,,,,,,,,,11,,64,64
5279,note_on,,29,0,13,,,,,,,,,,,,,,,,12,,67,0
5279,note_on,,119,0,9,,,,,,,,,,,,,,,,7,,62,0
5279,note_on,,29,0,10,,,,,,,,,,,,,,,,8,,48,0
5279,note_on,,29,0,14,,,,,,,,,,,,,,,,13,,48,0
5279,note_on,,119,0,5,,,,,,,,,,,,,,,,0,,71,0
5279,note_on,,29,0,6,,,,,,,,,,,,,,,,2,,48,0
5279,note_on,,119,0,11,,,,,,,,,,,,,,,,10,,71,0
5279,note_on,,119,0,7,,,,,,,,,,,,,,,,5,,71,0
5279,note_on,,29,0,12,,,,,,,,,,,,,,,,11,,64,0
5279,note_on,,0,0,15,,,,,,,,,,,,,,,,15,,53,0
5279,note_on,,0,0,15,,,,,,,,,,,,,,,,15,,71,0
5279,note_on,,29,0,8,,,,,,,,,,,,,,,,6,,64,0
5279,note_on,,29,0,15,,,,,,,,,,,,,,,,15,,74,0
5279,note_on,,0,0,15,,,,,,,,,,,,,,,,15,,65,0
5279,note_on,,0,0,15,,,,,,,,,,,,,,,,15,,48,0
5280,note_on,,1,0,10,,,,,,,,,,,,,,,,8,,48,64
5280,note_on,,1,0,9,,,,,,,,,,,,,,,,7,,55,64
5280,note_on,,0,0,15,,,,,,,,,,,,,,,,15,,60,64
5280,note_on,,0,0,15,,,,,,,,,,,,,,,,15,,67,64
5280,note_on,,0,0,15,,,,,,,,,,,,,,,,15,,72,64
5280,note_on,,1,0,13,,,,,,,,,,,,,,,,12,,67,64
5280,note_on,,0,0,15,,,,,,,,,,,,,,,,15,,76,64
5280,note_on,,1,0,15,,,,,,,,,,,,,,,,15,,48,64
5280,note_on,,1,0,6,,,,,,,,,,,,,,,,2,,48,64
5280,note_on,,1,0,12,,,,,,,,,,,,,,,,11,,64,64
5280,note_on,,1,0,8,,,,,,,,,,,,,,,,6,,64,64
5280,note_on,,1,0,11,,,,,,,,,,,,,,,,10,,72,64
5280,note_on,,1,0,7,,,,,,,,,,,,,,,,5,,72,64
5280,note_on,,1,0,5,,,,,,,,,,,,,,,,0,,72,64
5280,note_on,,1,0,14,,,,,,,,,,,,,,,,13,,48,64
5369,note_on,,89,0,7,,,,,,,,,,,,,,,,5,,72,0
5369,note_on,,89,0,11,,,,,,,,,,,,,,,,10,,72,0
5369,note_on,,89,0,8,,,,,,,,,,,,,,,,6,,64,0
5369,note_on,,89,0,13,,,,,,,,,,,,,,,,12,,67,0
5369,note_on,,89,0,5,,,,,,,,,,,,,,,,0,,72,0
5369,note_on,,89,0,9,,,,,,,,,,,,,,,,7,,55,0
5370,note_on,,1,0,13,,,,,,,,,,,,,,,,12,,67,64
5370,note_on,,1,0,8,,,,,,,,,,,,,,,,6,,67,64
5370,note_on,,1,0,5,,,,,,,,,,,,,,,,0,,70,64
5370,note_on,,1,0,7,,,,,,,,,,,,,,,,5,,70,64
5370,note_on,,1,0,9,,,,,,,,,,,,,,,,7,,52,64
5370,note_on,,1,0,11,,,,,,,,,,,,,,,,10,,70,64
5399,note_on,,29,0,9,,,,,,,,,,,,,,,,7,,52,0
5399,note_on,,29,0,11,,,,,,,,,,,,,,,,10,,70,0
5399,note_on,,29,0,13,,,,,,,,,,,,,,,,12,,67,0
5399,note_on,,119,0,15,,,,,,,,,,,,,,,,15,,76,0
5399,note_on,,0,0,15,,,,,,,,,,,,,,,,15,,72,0
5399,note_on,,0,0,15,,,,,,,,,,,,,,,,15,,67,0
5399,note_on,,29,0,8,,,,,,,,,,,,,,,,6,,67,0
5399,note_on,,29,0,5,,,,,,,,,,,,,,,,0,,70,0
5399,note_on,,29,0,7,,,,,,,,,,,,,,,,5,,70,0
5399,note_on,,119,0,12,,,,,,,,,,,,,,,,11,,64,0
5400,note_on,,1,0,7,,,,,,,,,,,,,,,,5,,69,64
5400,note_on,,1,0,9,,,,,,,,,,,,,,,,7,,60,64
5400,note_on,,0,0,15,,,,,,,,,,,,,,,,15,,69,64
5400,note_on,,1,0,12,,,,,,,,,,,,,,,,11,,60,64
5400,note_on,,0,0,15,,,,,,,,,,,,,,,,15,,65,64
5400,note_on,,1,0,8,,,,,,,,,,,,,,,,6,,65,64
5400,note_on,,1,0,13,,,,,,,,,,,,,,,,12,,65,64
5400,note_on,,1,0,11,,,,,,,,,,,,,,,,10,,69,64
5400,note_on,,1,0,5,,,,,,,,,,,,,,,,0,,69,64
5400,note_on,,1,0,15,,,,,,,,,,,,,,,,15,,72,64
5414,note_on,,14,0,13,,,,,,,,,,,,,,,,12,,65,0
5415,note_on,,1,0,13,,,,,,,,,,,,,,,,12,,67,64
5429,note_on,,14,0,13,,,,,,,,,,,,,,,,12,,67,0
5430,note_on,,1,0,13,,,,,,,,,,,,,,,,12,,65,64
5444,note_on,,14,0,13,,,,,,,,,,,,,,,,12,,65,0
5445,note_on,,1,0,13,,,,,,,,,,,,,,,,12,,67,64
5459,note_on,,14,0,13,,,,,,,,,,,,,,,,12,,67,0
5460,note_on,,1,0,13,,,,,,,,,,,,,,,,12,,64,64
5474,note_on,,14,0,13,,,,,,,,,,,,,,,,12,,64,0
5475,note_on,,1,0,13,,,,,,,,,,,,,,,,12,,65,64
5489,note_on,,89,0,5,,,,,,,,,,,,,,,,0,,69,0
5489,note_on,,89,0,8,,,,,,,,,,,,,,,,6,,65,0
5489,note_on,,14,0,13,,,,,,,,,,,,,,,,12,,65,0
5489,note_on,,89,0,9,,,,,,,,,,,,,,,,7,,60,0
5489,note_on,,89,0,7,,,,,,,,,,,,,,,,5,,69,0
5490,note_on,,1,0,8,,,,,,,,,,,,,,,,6,,64,64
5490,note_on,,1,0,5,,,,,,,,,,,,,,,,0,,67,64
5490,note_on,,1,0,9,,,,,,,,,,,,,,,,7,,60,64
5490,note_on,,1,0,7,,,,,,,,,,,,,,,,5,,67,64
5490,note_on,,1,0,13,,,,,,,,,,,,,,,,12,,64,64
5519,note_on,,29,0,8,,,,,,,,,,,,,,,,6,,64,0
5519,note_on,,29,0,5,,,,,,,,,,,,,,,,0,,67,0
5519,note_on,,119,0,11,,,,,,,,,,,,,,,,10,,69,0
5519,note_on,,29,0,9,,,,,,,,,,,,,,,,7,,60,0
5519,note_on,,29,0,7,,,,,,,,,,,,,,,,5,,67,0
5519,note_on,,0,0,15,,,,,,,,,,,,,,,,15,,65,0
5519,note_on,,0,0,15,,,,,,,,,,,,,,,,15,,69,0
5519,note_on,,29,0,13,,,,,,,,,,,,,,,,12,,64,0
5519,note_on,,119,0,15,,,,,,,,,,,,,,,,15,,60,0
5520,note_on,,1,0,9,,,,,,,,,,,,,,,,7,,60,64
5520,note_on,,1,0,15,,,,,,,,,,,,,,,,15,,64,64
5520,note_on,,1,0,11,,,,,,,,,,,,,,,,10,,67,64
5520,note_on,,1,0,7,,,,,,,,,,,,,,,,5,,67,64
5520,note_on,,0,0,15,,,,,,,,,,,,,,,,15,,67,64
5520,note_on,,0,0,15,,,,,,,,,,,,,,,,15,,60,64
5520,note_on,,1,0,8,,,,,,,,,,,,,,,,6,,64,64
5520,note_on,,1,0,5,,,,,,,,,,,,,,,,0,,67,64
5520,note_on,,1,0,13,,,,,,,,,,,,,,,,12,,64,64
5609,note_on,,209,0,12,,,,,,,,,,,,,,,,11,,60,0
5610,note_on,,1,0,12,,,,,,,,,,,,,,,,11,,58,64
5639,note_on,,359,0,10,,,,,,,,,,,,,,,,8,,48,0
5639,note_on,,119,0,5,,,,,,,,,,,,,,,,0,,67,0
5639,note_on,,119,0,15,,,,,,,,,,,,,,,,15,,64,0
5639,note_on,,119,0,8,,,,,,,,,,,,,,,,6,,64,0
5639,note_on,,0,0,15,,,,,,,,,,,,,,,,15,,60,0
5639,note_on,,119,0,13,,,,,,,,,,,,,,,,12,,64,0
5639,note_on,,0,0,15,,,,,,,,,,,,,,,,15,,67,0
5639,note_on,,119,0,7,,,,,,,,,,,,,,,,5,,67,0
5639,note_on,,29,0,12,,,,,,,,,,,,,,,,11,,58,0
5639,note_on,,119,0,11,,,,,,,,,,,,,,,,10,,67,0
5639,note_on,,119,0,9,,,,,,,,,,,,,,,,7,,60,0
5640,note_on,,1,0,12,,,,,,,,,,,,,,,,11,,57,64
5640,note_on,,1,0,15,,,,,,,,,,,,,,,,15,,65,64
5699,note_on,,419,0,6,,,,,,,,,,,,,,,,2,,48,0
5699,note_on,,0,0,15,,,,,,,,,,,,,,,,15,,72,0
5699,note_on,,0,0,15,,,,,,,,,,,,,,,,15,,65,0
5699,note_on,,59,0,15,,,,,,,,,,,,,,,,15,,48,0
5699,note_on,,419,0,14,,,,,,,,,,,,,,,,13,,48,0
5700,note_on,,61,0,11,,,,,,,,,,,,,,,,10,,72,64
5700,note_on,,1,0,15,,,,,,,,,,,,,,,,15,,48,64
5700,note_on,,0,0,15,,,,,,,,,,,,,,,,15,,64,64
5700,note_on,,0,0,15,,,,,,,,,,,,,,,,15,,60,64
5700,note_on,,61,0,13,,,,,,,,,,,,,,,,12,,64,64
5700,note_on,,1,0,6,,,,,,,,,,,,,,,,2,,48,64
5700,note_on,,0,0,15,,,,,,,,,,,,,,,,15,,67,64
5700,note_on,,1,0,14,,,,,,,,,,,,,,,,13,,48,64
5729,note_on,,89,0,12,,,,,,,,,,,,,,,,11,,57,0
5730,note_on,,1,0,12,,,,,,,,,,,,,,,,11,,55,64
5730,note_on,,91,0,9,,,,,,,,,,,,,,,,7,,60,64
5730,note_on,,91,0,8,,,,,,,,,,,,,,,,6,,64,64
5730,note_on,,91,0,10,,,,,,,,,,,,,,,,8,,48,64
5730,note_on,,91,0,7,,,,,,,,,,,,,,,,5,,72,64
5730,note_on,,91,0,5,,,,,,,,,,,,,,,,0,,72,64
5759,note_on,,59,0,14,,,,,,,,,,,,,,,,13,,48,0
5759,note_on,,59,0,11,,,,,,,,,,,,,,,,10,,72,0
5759,note_on,,29,0,8,,,,,,,,,,,,,,,,6,,64,0
5759,note_on,,29,0,5,,,,,,,,,,,,,,,,0,,72,0
5759,note_on,,29,0,9,,,,,,,,,,,,,,,,7,,60,0
5759,note_on,,29,0,12,,,,,,,,,,,,,,,,11,,55,0
5759,note_on,,29,0,10,,,,,,,,,,,,,,,,8,,48,0
5759,note_on,,0,0,15,,,,,,,,,,,,,,,,15,,60,0
5759,note_on,,0,0,15,,,,,,,,,,,,,,,,15,,64,0
5759,note_on,,0,0,15,,,,,,,,,,,,,,,,15,,67,0
5759,note_on,,59,0,15,,,,,,,,,,,,,,,,15,,48,0
5759,note_on,,59,0,6,,,,,,,,,,,,,,,,2,,48,0
5759,note_on,,59,0,13,,,,,,,,,,,,,,,,12,,64,0
5759,note_on,,29,0,7,,,,,,,,,,,,,,,,5,,72,0
5760,note_on,,1,0,15,,,,,,,,,,,,,,,,15,,50,64
5760,note_on,,1,0,7,,,,,,,,,,,,,,,,5,,65,64
5760,note_on,,1,0,13,,,,,,,,,,,,,,,,12,,57,64
5760,note_on,,1,0,10,,,,,,,,,,,,,,,,8,,50,64
5760,note_on,,1,0,9,,,,,,,,,,,,,,,,7,,57,64
5760,note_on,,1,0,11,,,,,,,,,,,,,,,,10,,65,64
5760,note_on,,1,0,8,,,,,,,,,,,,,,,,6,,62,64
5760,note_on,,1,0,14,,,,,,,,,,,,,,,,13,,50,64
5760,note_on,,1,0,5,,,,,,,,,,,,,,,,0,,65,64
5760,note_on,,1,0,12,,,,,,,,,,,,,,,,11,,65,64
5760,note_on,,1,0,6,,,,,,,,,,,,,,,,2,,50,64
5760,note_on,,0,0,15,,,,,,,,,,,,,,,,15,,57,64
5760,note_on,,0,0,15,,,,,,,,,,,,,,,,15,,62,64
5760,note_on,,0,0,15,,,,,,,,,,,,,,,,15,,65,64
5849,note_on,,89,0,8,,,,,,,,,,,,,,,,6,,62,0
5849,note_on,,89,0,7,,,,,,,,,,,,,,,,5,,65,0
5849,note_on,,89,0,5,,,,,,,,,,,,,,,,0,,65,0
5849,note_on,,89,0,11,,,,,,,,,,,,,,,,10,,65,0
5850,note_on,,1,0,11,,,,,,,,,,,,,,,,10,,67,64
5850,note_on,,1,0,8,,,,,,,,,,,,,,,,6,,64,64
5850,note_on,,1,0,5,,,,,,,,,,,,,,,,0,,67,64
5850,note_on,,1,0,7,,,,,,,,,,,,,,,,5,,67,64
5879,note_on,,29,0,11,,,,,,,,,,,,,,,,10,,67,0
5879,note_on,,119,0,9,,,,,,,,,,,,,,,,7,,57,0
5879,note_on,,119,0,13,,,,,,,,,,,,,,,,12,,57,0
5879,note_on,,29,0,5,,,,,,,,,,,,,,,,0,,67,0
5879,note_on,,0,0,15,,,,,,,,,,,,,,,,15,,62,0
5879,note_on,,0,0,15,,,,,,,,,,,,,,,,15,,65,0
5879,note_on,,119,0,6,,,,,,,,,,,,,,,,2,,50,0
5879,note_on,,29,0,8,,,,,,,,,,,,,,,,6,,64,0
5879,note_on,,119,0,10,,,,,,,,,,,,,,,,8,,50,0
5879,note_on,,119,0,15,,,,,,,,,,,,,,,,15,,50,0
5879,note_on,,119,0,14,,,,,,,,,,,,,,,,13,,50,0
5879,note_on,,0,0,15,,,,,,,,,,,,,,,,15,,57,0
5879,note_on,,29,0,7,,,,,,,,,,,,,,,,5,,67,0
5880,note_on,,1,0,6,,,,,,,,,,,,,,,,2,,48,64
5880,note_on,,1,0,5,,,,,,,,,,,,,,,,0,,69,64
5880,note_on,,1,0,14,,,,,,,,,,,,,,,,13,,48,64
5880,note_on,,1,0,7,,,,,,,,,,,,,,,,5,,69,64
5880,note_on,,1,0,9,,,,,,,,,,,,,,,,7,,57,64
5880,note_on,,1,0,15,,,,,,,,,,,,,,,,15,,48,64
5880,note_on,,0,0,15,,,,,,,,,,,,,,,,15,,62,64
5880,note_on,,0,0,15,,,,,,,,,,,,,,,,15,,69,64
5880,note_on,,0,0,15,,,,,,,,,,,,,,,,15,,65,64
5880,note_on,,1,0,8,,,,,,,,,,,,,,,,6,,65,64
5880,note_on,,1,0,13,,,,,,,,,,,,,,,,12,,65,64
5880,note_on,,1,0,11,,,,,,,,,,,,,,,,10,,69,64
5880,note_on,,1,0,10,,,,,,,,,,,,,,,,8,,48,64
5969,note_on,,89,0,9,,,,,,,,,,,,,,,,7,,57,0
5969,note_on,,89,0,10,,,,,,,,,,,,,,,,8,,48,0
5969,note_on,,89,0,5,,,,,,,,,,,,,,,,0,,69,0
5969,note_on,,89,0,11,,,,,,,,,,,,,,,,10,,69,0
5969,note_on,,89,0,7,,,,,,,,,,,,,,,,5,,69,0
5969,note_on,,0,0,15,,,,,,,,,,,,,,,,15,,69,0
5969,note_on,,209,0,12,,,,,,,,,,,,,,,,11,,65,0
5969,note_on,,89,0,15,,,,,,,,,,,,,,,,15,,48,0
5969,note_on,,89,0,8,,,,,,,,,,,,,,,,6,,65,0
5969,note_on,,89,0,14,,,,,,,,,,,,,,,,13,,48,0
5969,note_on,,0,0,15,,,,,,,,,,,,,,,,15,,65,0
5969,note_on,,89,0,6,,,,,,,,,,,,,,,,2,,48,0
5970,note_on,,1,0,15,,,,,,,,,,,,,,,,15,,46,64
5970,note_on,,1,0,11,,,,,,,,,,,,,,,,10,,70,64
5970,note_on,,1,0,6,,,,,,,,,,,,,,,,2,,46,64
5970,note_on,,0,0,15,,,,,,,,,,,,,,,,15,,67,64
5970,note_on,,1,0,14,,,,,,,,,,,,,,,,13,,46,64
5970,note_on,,1,0,5,,,,,,,,,,,,,,,,0,,70,64
5970,note_on,,1,0,10,,,,,,,,,,,,,,,,8,,46,64
5970,note_on,,0,0,15,,,,,,,,,,,,,,,,15,,70,64
5970,note_on,,1,0,9,,,,,,,,,,,,,,,,7,,55,64
5970,note_on,,1,0,8,,,,,,,,,,,,,,,,6,,67,64
5970,note_on,,1,0,12,,,,,,,,,,,,,,,,11,,67,64
5970,note_on,,1,0,7,,,,,,,,,,,,,,,,5,,70,64
5999,note_on,,29,0,11,,,,,,,,,,,,,,,,10,,70,0
5999,note_on,,29,0,15,,,,,,,,,,,,,,,,15,,62,0
5999,note_on,,0,0,15,,,,,,,,,,,,,,,,15,,46,0
5999,note_on,,29,0,14,,,,,,,,,,,,,,,,13,,46,0
5999,note_on,,29,0,9,,,,,,,,,,,,,,,,7,,55,0
5999,note_on,,0,0,15,,,,,,,,,,,,,,,,15,,70,0
5999,note_on,,29,0,8,,,,,,,,,,,,,,,,6,,67,0
5999,note_on,,29,0,10,,,,,,,,,,,,,,,,8,,46,0
5999,note_on,,29,0,12,,,,,,,,,,,,,,,,11,,67,0
5999,note_on,,29,0,6,,,,,,,,,,,,,,,,2,,46,0
5999,note_on,,0,0,15,,,,,,,,,,,,,,,,15,,67,0
5999,note_on,,29,0,7,,,,,,,,,,,,,,,,5,,70,0
5999,note_on,,29,0,5,,,,,,,,,,,,,,,,0,,70,0
6000,note_on,,1,0,5,,,,,,,,,,,,,,,,0,,72,64
6000,note_on,,1,0,7,,,,,,,,,,,,,,,,5,,72,64
6000,note_on,,1,0,10,,,,,,,,,,,,,,,,8,,45,64
6000,note_on,,1,0,12,,,,,,,,,,,,,,,,11,,69,64
6000,note_on,,1,0,8,,,,,,,,,,,,,,,,6,,69,64
6000,note_on,,1,0,9,,,,,,,,,,,,,,,,7,,53,64
6000,note_on,,1,0,15,,,,,,,,,,,,,,,,15,,45,64
6000,note_on,,0,0,15,,,,,,,,,,,,,,,,15,,72,64
6000,note_on,,0,0,15,,,,,,,,,,,,,,,,15,,65,64
6000,note_on,,0,0,15,,,,,,,,,,,,,,,,15,,60,64
6000,note_on,,1,0,11,,,,,,,,,,,,,,,,10,,72,64
6000,note_on,,1,0,6,,,,,,,,,,,,,,,,2,,45,64
6000,note_on,,1,0,14,,,,,,,,,,,,,,,,13,,45,64
6089,note_on,,89,0,12,,,,,,,,,,,,,,,,11,,69,0
6089,note_on,,209,0,13,,,,,,,,,,,,,,,,12,,65,0
6090,note_on,,1,0,12,,,,,,,,,,,,,,,,11,,67,64
6090,note_on,,1,0,13,,,,,,,,,,,,,,,,12,,64,64
6119,note_on,,119,0,7,,,,,,,,,,,,,,,,5,,72,0
6119,note_on,,29,0,13,,,,,,,,,,,,,,,,12,,64,0
6119,note_on,,119,0,10,,,,,,,,,,,,,,,,8,,45,0
6119,note_on,,29,0,12,,,,,,,,,,,,,,,,11,,67,0
6119,note_on,,119,0,5,,,,,,,,,,,,,,,,0,,72,0
6119,note_on,,0,0,15,,,,,,,,,,,,,,,,15,,65,0
6119,note_on,,0,0,15,,,,,,,,,,,,,,,,15,,72,0
6119,note_on,,119,0,15,,,,,,,,,,,,,,,,15,,45,0
6119,note_on,,119,0,6,,,,,,,,,,,,,,,,2,,45,0
6119,note_on,,119,0,14,,,,,,,,,,,,,,,,13,,45,0
6119,note_on,,0,0,15,,,,,,,,,,,,,,,,15,,60,0
6119,note_on,,119,0,11,,,,,,,,,,,,,,,,10,,72,0
6119,note_on,,119,0,8,,,,,,,,,,,,,,,,6,,69,0
6119,note_on,,119,0,9,,,,,,,,,,,,,,,,7,,53,0
6120,note_on,,1,0,12,,,,,,,,,,,,,,,,11,,65,64
6120,note_on,,1,0,13,,,,,,,,,,,,,,,,12,,62,64
6180,note_on,,61,0,15,,,,,,,,,,,,,,,,15,,57,64
6180,note_on,,61,0,11,,,,,,,,,,,,,,,,10,,72,64
6180,note_on,,61,0,6,,,,,,,,,,,,,,,,2,,57,64
6180,note_on,,61,0,14,,,,,,,,,,,,,,,,13,,57,64
6180,note_on,,0,0,15,,,,,,,,,,,,,,,,15,,72,64
6180,note_on,,0,0,15,,,,,,,,,,,,,,,,15,,65,64
6180,note_on,,0,0,15,,,,,,,,,,,,,,,,15,,60,64
6209,note_on,,89,0,12,,,,,,,,,,,,,,,,11,,65,0
6209,note_on,,89,0,13,,,,,,,,,,,,,,,,12,,62,0
6210,note_on,,91,0,9,,,,,,,,,,,,,,,,7,,60,64
6210,note_on,,1,0,12,,,,,,,,,,,,,,,,11,,64,64
6210,note_on,,91,0,10,,,,,,,,,,,,,,,,8,,57,64
6210,note_on,,91,0,8,,,,,,,,,,,,,,,,6,,65,64
6210,note_on,,1,0,13,,,,,,,,,,,,,,,,12,,60,64
6210,note_on,,91,0,7,,,,,,,,,,,,,,,,5,,72,64
6210,note_on,,91,0,5,,,,,,,,,,,,,,,,0,,72,64
6239,note_on,,29,0,9,,,,,,,,,,,,,,,,7,,60,0
6239,note_on,,29,0,13,,,,,,,,,,,,,,,,12,,60,0
6239,note_on,,59,0,11,,,,,,,,,,,,,,,,10,,72,0
6239,note_on,,29,0,8,,,,,,,,,,,,,,,,6,,65,0
6239,note_on,,29,0,5,,,,,,,,,,,,,,,,0,,72,0
6239,note_on,,0,0,15,,,,,,,,,,,,,,,,15,,60,0
6239,note_on,,0,0,15,,,,,,,,,,,,,,,,15,,65,0
6239,note_on,,0,0,15,,,,,,,,,,,,,,,,15,,72,0
6239,note_on,,59,0,15,,,,,,,,,,,,,,,,15,,57,0
6239,note_on,,29,0,7,,,,,,,,,,,,,,,,5,,72,0
6239,note_on,,29,0,12,,,,,,,,,,,,,,,,11,,64,0
6239,note_on,,59,0,6,,,,,,,,,,,,,,,,2,,57,0
6239,note_on,,29,0,10,,,,,,,,,,,,,,,,8,,57,0
6239,note_on,,59,0,14,,,,,,,,,,,,,,,,13,,57,0
6240,note_on,,1,0,5,,,,,,,,,,,,,,,,0,,70,64
6240,note_on,,1,0,14,,,,,,,,,,,,,,,,13,,58,64
6240,note_on,,1,0,8,,,,,,,,,,,,,,,,6,,65,64
6240,note_on,,1,0,12,,,,,,,,,,,,,,,,11,,62,64
6240,note_on,,0,0,15,,,,,,,,,,,,,,,,15,,65,64
6240,note_on,,1,0,9,,,,,,,,,,,,,,,,7,,62,64
6240,note_on,,1,0,7,,,,,,,,,,,,,,,,5,,70,64
6240,note_on,,1,0,13,,,,,,,,,,,,,,,,12,,65,64
6240,note_on,,1,0,10,,,,,,,,,,,,,,,,8,,58,64
6240,note_on,,0,0,15,,,,,,,,,,,,,,,,15,,70,64
6240,note_on,,0,0,15,,,,,,,,,,,,,,,,15,,74,64
6240,note_on,,1,0,15,,,,,,,,,,,,,,,,15,,58,64
6240,note_on,,1,0,6,,,,,,,,,,,,,,,,2,,58,64
6240,note_on,,1,0,11,,,,,,,,,,,,,,,,10,,70,64
6329,note_on,,89,0,7,,,,,,,,,,,,,,,,5,,70,0
6329,note_on,,89,0,11,,,,,,,,,,,,,,,,10,,70,0
6329,note_on,,89,0,5,,,,,,,,,,,,,,,,0,,70,0
6330,note_on,,1,0,7,,,,,,,,,,,,,,,,5,,72,64
6330,note_on,,1,0,11,,,,,,,,,,,,,,,,10,,72,64
6330,note_on,,1,0,5,,,,,,,,,,,,,,,,0,,72,64
6359,note_on,,119,0,9,,,,,,,,,,,,,,,,7,,62,0
6359,note_on,,29,0,11,,,,,,,,,,,,,,,,10,,72,0
6359,note_on,,119,0,8,,,,,,,,,,,,,,,,6,,65,0
6359,note_on,,119,0,10,,,,,,,,,,,,,,,,8,,58,0
6359,note_on,,29,0,7,,,,,,,,,,,,,,,,5,,72,0
6359,note_on,,29,0,5,,,,,,,,,,,,,,,,0,,72,0
6359,note_on,,119,0,6,,,,,,,,,,,,,,,,2,,58,0
6359,note_on,,119,0,14,,,,,,,,,,,,,,,,13,,58,0
6359,note_on,,119,0,15,,,,,,,,,,,,,,,,15,,58,0
6360,note_on,,1,0,8,,,,,,,,,,,,,,,,6,,65,64
6360,note_on,,1,0,15,,,,,,,,,,,,,,,,15,,57,64
6360,note_on,,1,0,11,,,,,,,,,,,,,,,,10,,74,64
6360,note_on,,1,0,7,,,,,,,,,,,,,,,,5,,74,64
6360,note_on,,1,0,9,,,,,,,,,,,,,,,,7,,60,64
6360,note_on,,1,0,5,,,,,,,,,,,,,,,,0,,74,64
6360,note_on,,1,0,6,,,,,,,,,,,,,,,,2,,57,64
6360,note_on,,1,0,14,,,,,,,,,,,,,,,,13,,57,64
6360,note_on,,1,0,10,,,,,,,,,,,,,,,,8,,57,64
6419,note_on,,179,0,13,,,,,,,,,,,,,,,,12,,65,0
6419,note_on,,179,0,12,,,,,,,,,,,,,,,,11,,62,0
6420,note_on,,1,0,12,,,,,,,,,,,,,,,,11,,70,64
6420,note_on,,1,0,13,,,,,,,,,,,,,,,,12,,70,64
6449,note_on,,89,0,6,,,,,,,,,,,,,,,,2,,57,0
6449,note_on,,89,0,15,,,,,,,,,,,,,,,,15,,74,0
6449,note_on,,0,0,15,,,,,,,,,,,,,,,,15,,65,0
6449,note_on,,0,0,15,,,,,,,,,,,,,,,,15,,57,0
6449,note_on,,0,0,15,,,,,,,,,,,,,,,,15,,70,0
6449,note_on,,89,0,7,,,,,,,,,,,,,,,,5,,74,0
6449,note_on,,89,0,11,,,,,,,,,,,,,,,,10,,74,0
6449,note_on,,89,0,9,,,,,,,,,,,,,,,,7,,60,0
6449,note_on,,89,0,5,,,,,,,,,,,,,,,,0,,74,0
6449,note_on,,89,0,8,,,,,,,,,,,,,,,,6,,65,0
6449,note_on,,89,0,14,,,,,,,,,,,,,,,,13,,57,0
6449,note_on,,89,0,10,,,,,,,,,,,,,,,,8,,57,0
6450,note_on,,1,0,6,,,,,,,,,,,,,,,,2,,55,64
6450,note_on,,0,0,15,,,,,,,,,,,,,,,,15,,67,64
6450,note_on,,1,0,5,,,,,,,,,,,,,,,,0,,76,64
6450,note_on,,1,0,8,,,,,,,,,,,,,,,,6,,67,64
6450,note_on,,0,0,15,,,,,,,,,,,,,,,,15,,70,64
6450,note_on,,1,0,15,,,,,,,,,,,,,,,,15,,55,64
6450,note_on,,0,0,15,,,,,,,,,,,,,,,,15,,76,64
6450,note_on,,1,0,14,,,,,,,,,,,,,,,,13,,55,64
6450,note_on,,1,0,11,,,,,,,,,,,,,,,,10,,76,64
6450,note_on,,1,0,10,,,,,,,,,,,,,,,,8,,55,64
6450,note_on,,1,0,9,,,,,,,,,,,,,,,,7,,58,64
6450,note_on,,1,0,7,,,,,,,,,,,,,,,,5,,76,64
6479,note_on,,29,0,11,,,,,,,,,,,,,,,,10,,76,0
6479,note_on,,0,0,15,,,,,,,,,,,,,,,,15,,70,0
6479,note_on,,29,0,8,,,,,,,,,,,,,,,,6,,67,0
6479,note_on,,29,0,14,,,,,,,,,,,,,,,,13,,55,0
6479,note_on,,29,0,5,,,,,,,,,,,,,,,,0,,76,0
6479,note_on,,59,0,12,,,,,,,,,,,,,,,,11,,70,0
6479,note_on,,29,0,9,,,,,,,,,,,,,,,,7,,58,0
6479,note_on,,59,0,13,,,,,,,,,,,,,,,,12,,70,0
6479,note_on,,29,0,7,,,,,,,,,,,,,,,,5,,76,0
6479,note_on,,29,0,10,,,,,,,,,,,,,,,,8,,55,0
6479,note_on,,0,0,15,,,,,,,,,,,,,,,,15,,67,0
6479,note_on,,0,0,15,,,,,,,,,,,,,,,,15,,76,0
6479,note_on,,29,0,15,,,,,,,,,,,,,,,,15,,55,0
6479,note_on,,29,0,6,,,,,,,,,,,,,,,,2,,55,0
6480,note_on,,0,0,15,,,,,,,,,,,,,,,,15,,65,64
6480,note_on,,1,0,7,,,,,,,,,,,,,,,,5,,77,64
6480,note_on,,1,0,12,,,,,,,,,,,,,,,,11,,72,64
6480,note_on,,0,0,15,,,,,,,,,,,,,,,,15,,72,64
6480,note_on,,1,0,8,,,,,,,,,,,,,,,,6,,65,64
6480,note_on,,1,0,6,,,,,,,,,,,,,,,,2,,57,64
6480,note_on,,1,0,13,,,,,,,,,,,,,,,,12,,69,64
6480,note_on,,1,0,15,,,,,,,,,,,,,,,,15,,57,64
6480,note_on,,1,0,14,,,,,,,,,,,,,,,,13,,57,64
6480,note_on,,1,0,9,,,,,,,,,,,,,,,,7,,60,64
6480,note_on,,1,0,10,,,,,,,,,,,,,,,,8,,57,64
6480,note_on,,0,0,15,,,,,,,,,,,,,,,,15,,77,64
6480,note_on,,1,0,5,,,,,,,,,,,,,,,,0,,77,64
6480,note_on,,1,0,11,,,,,,,,,,,,,,,,10,,77,64
6569,note_on,,89,0,12,,,,,,,,,,,,,,,,11,,72,0
6569,note_on,,89,0,13,,,,,,,,,,,,,,,,12,,69,0
6570,note_on,,1,0,13,,,,,,,,,,,,,,,,12,,67,64
6570,note_on,,1,0,12,,,,,,,,,,,,,,,,11,,70,64
6599,note_on,,29,0,12,,,,,,,,,,,,,,,,11,,70,0
6599,note_on,,119,0,8,,,,,,,,,,,,,,,,6,,65,0
6599,note_on,,119,0,14,,,,,,,,,,,,,,,,13,,57,0
6599,note_on,,119,0,9,,,,,,,,,,,,,,,,7,,60,0
6599,note_on,,0,0,15,,,,,,,,,,,,,,,,15,,65,0
6599,note_on,,0,0,15,,,,,,,,,,,,,,,,15,,72,0
6599,note_on,,29,0,13,,,,,,,,,,,,,,,,12,,67,0
6599,note_on,,119,0,5,,,,,,,,,,,,,,,,0,,77,0
6599,note_on,,119,0,10,,,,,,,,,,,,,,,,8,,57,0
6599,note_on,,119,0,11,,,,,,,,,,,,,,,,10,,77,0
6599,note_on,,119,0,6,,,,,,,,,,,,,,,,2,,57,0
6599,note_on,,119,0,15,,,,,,,,,,,,,,,,15,,57,0
6599,note_on,,0,0,15,,,,,,,,,,,,,,,,15,,77,0
6599,note_on,,119,0,7,,,,,,,,,,,,,,,,5,,77,0
6600,note_on,,1,0,11,,,,,,,,,,,,,,,,10,,77,64
6600,note_on,,1,0,13,,,,,,,,,,,,,,,,12,,65,64
6600,note_on,,1,0,7,,,,,,,,,,,,,,,,5,,77,64
6600,note_on,,1,0,5,,,,,,,,,,,,,,,,0,,77,64
6600,note_on,,1,0,12,,,,,,,,,,,,,,,,11,,69,64
6659,note_on,,59,0,13,,,,,,,,,,,,,,,,12,,65,0
6660,note_on,,61,0,6,,,,,,,,,,,,,,,,2,,58,64
6660,note_on,,0,0,15,,,,,,,,,,,,,,,,15,,65,64
6660,note_on,,0,0,15,,,,,,,,,,,,,,,,15,,70,64
6660,note_on,,0,0,15,,,,,,,,,,,,,,,,15,,74,64
6660,note_on,,61,0,15,,,,,,,,,,,,,,,,15,,58,64
6660,note_on,,61,0,14,,,,,,,,,,,,,,,,13,,58,64
6660,note_on,,1,0,13,,,,,,,,,,,,,,,,12,,62,64
6689,note_on,,89,0,12,,,,,,,,,,,,,,,,11,,69,0
6690,note_on,,91,0,8,,,,,,,,,,,,,,,,6,,67,64
6690,note_on,,1,0,12,,,,,,,,,,,,,,,,11,,67,64
6690,note_on,,91,0,10,,,,,,,,,,,,,,,,8,,58,64
6690,note_on,,91,0,9,,,,,,,,,,,,,,,,7,,62,64
6719,note_on,,0,0,15,,,,,,,,,,,,,,,,15,,65,0
6719,note_on,,0,0,15,,,,,,,,,,,,,,,,15,,70,0
6719,note_on,,0,0,15,,,,,,,,,,,,,,,,15,,74,0
6719,note_on,,59,0,13,,,,,,,,,,,,,,,,12,,62,0
6719,note_on,,29,0,9,,,,,,,,,,,,,,,,7,,62,0
6719,note_on,,29,0,12,,,,,,,,,,,,,,,,11,,67,0
6719,note_on,,59,0,15,,,,,,,,,,,,,,,,15,,58,0
6719,note_on,,29,0,10,,,,,,,,,,,,,,,,8,,58,0
6719,note_on,,59,0,14,,,,,,,,,,,,,,,,13,,58,0
6719,note_on,,59,0,6,,,,,,,,,,,,,,,,2,,58,0
6719,note_on,,29,0,8,,,,,,,,,,,,,,,,6,,67,0
6720,note_on,,0,0,15,,,,,,,,,,,,,,,,15,,72,64
6720,note_on,,1,0,6,,,,,,,,,,,,,,,,2,,60,64
6720,note_on,,1,0,10,,,,,,,,,,,,,,,,8,,60,64
6720,note_on,,1,0,9,,,,,,,,,,,,,,,,7,,60,64
6720,note_on,,0,0,15,,,,,,,,,,,,,,,,15,,65,64
6720,note_on,,1,0,15,,,,,,,,,,,,,,,,15,,60,64
6720,note_on,,1,0,14,,,,,,,,,,,,,,,,13,,60,64
6720,note_on,,1,0,8,,,,,,,,,,,,,,,,6,,69,64
6720,note_on,,1,0,12,,,,,,,,,,,,,,,,11,,69,64
6720,note_on,,0,0,15,,,,,,,,,,,,,,,,15,,69,64
6720,note_on,,1,0,13,,,,,,,,,,,,,,,,12,,60,64
6839,note_on,,119,0,15,,,,,,,,,,,,,,,,15,,60,0
6839,note_on,,0,0,15,,,,,,,,,,,,,,,,15,,72,0
6839,note_on,,0,0,15,,,,,,,,,,,,,,,,15,,69,0
6839,note_on,,0,0,15,,,,,,,,,,,,,,,,15,,65,0
6839,note_on,,119,0,8,,,,,,,,,,,,,,,,6,,69,0
6839,note_on,,239,0,5,,,,,,,,,,,,,,,,0,,77,0
6839,note_on,,119,0,6,,,,,,,,,,,,,,,,2,,60,0
6839,note_on,,239,0,11,,,,,,,,,,,,,,,,10,,77,0
6839,note_on,,119,0,10,,,,,,,,,,,,,,,,8,,60,0
6839,note_on,,119,0,9,,,,,,,,,,,,,,,,7,,60,0
6839,note_on,,239,0,7,,,,,,,,,,,,,,,,5,,77,0
6839,note_on,,119,0,14,,,,,,,,,,,,,,,,13,,60,0
6839,note_on,,119,0,12,,,,,,,,,,,,,,,,11,,69,0
6839,note_on,,119,0,13,,,,,,,,,,,,,,,,12,,60,0
6840,note_on,,1,0,6,,,,,,,,,,,,,,,,2,,48,64
6840,note_on,,1,0,8,,,,,,,,,,,,,,,,6,,67,64
6840,note_on,,1,0,9,,,,,,,,,,,,,,,,7,,60,64
6840,note_on,,1,0,14,,,,,,,,,,,,,,,,13,,48,64
6840,note_on,,0,0,15,,,,,,,,,,,,,,,,15,,60,64
6840,note_on,,0,0,15,,,,,,,,,,,,,,,,15,,67,64
6840,note_on,,1,0,10,,,,,,,,,,,,,,,,8,,48,64
6840,note_on,,0,0,15,,,,,,,,,,,,,,,,15,,72,64
6840,note_on,,1,0,13,,,,,,,,,,,,,,,,12,,60,64
6840,note_on,,1,0,12,,,,,,,,,,,,,,,,11,,67,64
6840,note_on,,1,0,15,,,,,,,,,,,,,,,,15,,48,64
6840,note_on,,1,0,11,,,,,,,,,,,,,,,,10,,76,64
6840,note_on,,1,0,5,,,,,,,,,,,,,,,,0,,76,64
6840,note_on,,0,0,15,,,,,,,,,,,,,,,,15,,76,64
6840,note_on,,1,0,7,,,,,,,,,,,,,,,,5,,76,64
6899,note_on,,59,0,8,,,,,,,,,,,,,,,,6,,67,0
6899,note_on,,59,0,9,,,,,,,,,,,,,,,,7,,60,0
6899,note_on,,59,0,10,,,,,,,,,,,,,,,,8,,48,0
6900,note_on,,1,0,10,,,,,,,,,,,,,,,,8,,48,64
6900,note_on,,1,0,9,,,,,,,,,,,,,,,,7,,60,64
6900,note_on,,1,0,8,,,,,,,,,,,,,,,,6,,67,64
6959,note_on,,119,0,7,,,,,,,,,,,,,,,,5,,76,0
6959,note_on,,119,0,12,,,,,,,,,,,,,,,,11,,67,0
6959,note_on,,0,0,15,,,,,,,,,,,,,,,,15,,60,0
6959,note_on,,0,0,15,,,,,,,,,,,,,,,,15,,67,0
6959,note_on,,0,0,15,,,,,,,,,,,,,,,,15,,72,0
6959,note_on,,0,0,15,,,,,,,,,,,,,,,,15,,76,0
6959,note_on,,59,0,10,,,,,,,,,,,,,,,,8,,48,0
6959,note_on,,119,0,15,,,,,,,,,,,,,,,,15,,48,0
6959,note_on,,119,0,14,,,,,,,,,,,,,,,,13,,48,0
6959,note_on,,119,0,5,,,,,,,,,,,,,,,,0,,76,0
6959,note_on,,59,0,9,,,,,,,,,,,,,,,,7,,60,0
6959,note_on,,59,0,8,,,,,,,,,,,,,,,,6,,67,0
6959,note_on,,119,0,11,,,,,,,,,,,,,,,,10,,76,0
6959,note_on,,119,0,13,,,,,,,,,,,,,,,,12,,60,0
6959,note_on,,119,0,6,,,,,,,,,,,,,,,,2,,48,0
6960,note_on,,1,0,5,,,,,,,,,,,,,,,,0,,77,64
6960,note_on,,1,0,8,,,,,,,,,,,,,,,,6,,69,64
6960,note_on,,1,0,13,,,,,,,,,,,,,,,,12,,60,64
6960,note_on,,1,0,11,,,,,,,,,,,,,,,,10,,77,64
6960,note_on,,1,0,15,,,,,,,,,,,,,,,,15,,53,64
6960,note_on,,0,0,15,,,,,,,,,,,,,,,,15,,77,64
6960,note_on,,0,0,15,,,,,,,,,,,,,,,,15,,72,64
6960,note_on,,0,0,15,,,,,,,,,,,,,,,,15,,69,64
6960,note_on,,1,0,7,,,,,,,,,,,,,,,,5,,77,64
6960,note_on,,1,0,14,,,,,,,,,,,,,,,,13,,53,64
6960,note_on,,1,0,10,,,,,,,,,,,,,,,,8,,53,64
6960,note_on,,0,0,15,,,,,,,,,,,,,,,,15,,60,64
6960,note_on,,1,0,12,,,,,,,,,,,,,,,,11,,69,64
6960,note_on,,1,0,9,,,,,,,,,,,,,,,,7,,60,64
6960,note_on,,1,0,6,,,,,,,,,,,,,,,,2,,53,64
7079,note_on,,0,0,15,,,,,,,,,,,,,,,,15,,77,0
7079,note_on,,0,0,15,,,,,,,,,,,,,,,,15,,72,0
7079,note_on,,119,0,11,,,,,,,,,,,,,,,,10,,77,0
7079,note_on,,119,0,5,,,,,,,,,,,,,,,,0,,77,0
7079,note_on,,119,0,8,,,,,,,,,,,,,,,,6,,69,0
7079,note_on,,119,0,7,,,,,,,,,,,,,,,,5,,77,0
7079,note_on,,119,0,13,,,,,,,,,,,,,,,,12,,60,0
7079,note_on,,119,0,9,,,,,,,,,,,,,,,,7,,60,0
7079,note_on,,0,0,15,,,,,,,,,,,,,,,,15,,60,0
7079,note_on,,119,0,6,,,,,,,,,,,,,,,,2,,53,0
7079,note_on,,119,0,12,,,,,,,,,,,,,,,,11,,69,0
7079,note_on,,119,0,14,,,,,,,,,,,,,,,,13,,53,0
7079,note_on,,119,0,15,,,,,,,,,,,,,,,,15,,53,0
7079,note_on,,119,0,10,,,,,,,,,,,,,,,,8,,53,0
7079,note_on,,0,0,15,,,,,,,,,,,,,,,,15,,69,0
7140,note_on,,61,0,12,,,,,,,,,,,,,,,,11,,69,64
7140,note_on,,61,0,13,,,,,,,,,,,,,,,,12,,62,64
7140,note_on,,61,0,6,,,,,,,,,,,,,,,,2,,54,64
7140,note_on,,0,0,15,,,,,,,,,,,,,,,,15,,69,64
7140,note_on,,0,0,15,,,,,,,,,,,,,,,,15,,74,64
7140,note_on,,61,0,14,,,,,,,,,,,,,,,,13,,54,64
7140,note_on,,61,0,15,,,,,,,,,,,,,,,,15,,54,64
7140,note_on,,0,0,15,,,,,,,,,,,,,,,,15,,62,64
7140,note_on,,61,0,11,,,,,,,,,,,,,,,,10,,74,64
7170,note_on,,91,0,5,,,,,,,,,,,,,,,,0,,74,64
7170,note_on,,91,0,10,,,,,,,,,,,,,,,,8,,54,64
7170,note_on,,91,0,8,,,,,,,,,,,,,,,,6,,69,64
7170,note_on,,91,0,9,,,,,,,,,,,,,,,,7,,62,64
7170,note_on,,91,0,7,,,,,,,,,,,,,,,,5,,74,64
7199,note_on,,29,0,8,,,,,,,,,,,,,,,,6,,69,0
7199,note_on,,0,0,15,,,,,,,,,,,,,,,,15,,69,0
7199,note_on,,0,0,15,,,,,,,,,,,,,,,,15,,74,0
7199,note_on,,0,0,15,,,,,,,,,,,,,,,,15,,62,0
7199,note_on,,29,0,5,,,,,,,,,,,,,,,,0,,74,0
7199,note_on,,59,0,6,,,,,,,,,,,,,,,,2,,54,0
7199,note_on,,59,0,15,,,,,,,,,,,,,,,,15,,54,0
7199,note_on,,59,0,11,,,,,,,,,,,,,,,,10,,74,0
7199,note_on,,29,0,10,,,,,,,,,,,,,,,,8,,54,0
7199,note_on,,59,0,13,,,,,,,,,,,,,,,,12,,62,0
7199,note_on,,29,0,7,,,,,,,,,,,,,,,,5,,74,0
7199,note_on,,59,0,14,,,,,,,,,,,,,,,,13,,54,0
7199,note_on,,59,0,12,,,,,,,,,,,,,,,,11,,69,0
7199,note_on,,29,0,9,,,,,,,,,,,,,,,,7,,62,0
7200,note_on,,1,0,14,,,,,,,,,,,,,,,,13,,55,64
7200,note_on,,0,0,15,,,,,,,,,,,,,,,,15,,62,64
7200,note_on,,0,0,15,,,,,,,,,,,,,,,,15,,67,64
7200,note_on,,1,0,15,,,,,,,,,,,,,,,,15,,55,64
7200,note_on,,0,0,15,,,,,,,,,,,,,,,,15,,70,64
7200,note_on,,1,0,7,,,,,,,,,,,,,,,,5,,70,64
7200,note_on,,1,0,6,,,,,,,,,,,,,,,,2,,55,64
7200,note_on,,1,0,10,,,,,,,,,,,,,,,,8,,55,64
7200,note_on,,1,0,5,,,,,,,,,,,,,,,,0,,70,64
7200,note_on,,1,0,8,,,,,,,,,,,,,,,,6,,67,64
7200,note_on,,1,0,9,,,,,,,,,,,,,,,,7,,62,64
7200,note_on,,1,0,11,,,,,,,,,,,,,,,,10,,70,64
7200,note_on,,1,0,13,,,,,,,,,,,,,,,,12,,62,64
7200,note_on,,1,0,12,,,,,,,,,,,,,,,,11,,67,64
7289,note_on,,89,0,5,,,,,,,,,,,,,,,,0,,70,0
7289,note_on,,89,0,15,,,,,,,,,,,,,,,,15,,55,0
7289,note_on,,89,0,13,,,,,,,,,,,,,,,,12,,62,0
7289,note_on,,89,0,12,,,,,,,,,,,,,,,,11,,67,0
7289,note_on,,89,0,7,,,,,,,,,,,,,,,,5,,70,0
7289,note_on,,89,0,14,,,,,,,,,,,,,,,,13,,55,0
7289,note_on,,89,0,9,,,,,,,,,,,,,,,,7,,62,0
7289,note_on,,89,0,6,,,,,,,,,,,,,,,,2,,55,0
7289,note_on,,89,0,8,,,,,,,,,,,,,,,,6,,67,0
7289,note_on,,89,0,10,,,,,,,,,,,,,,,,8,,55,0
7289,note_on,,89,0,11,,,,,,,,,,,,,,,,10,,70,0
7290,note_on,,1,0,10,,,,,,,,,,,,,,,,8,,53,64
7290,note_on,,1,0,15,,,,,,,,,,,,,,,,15,,53,64
7290,note_on,,1,0,14,,,,,,,,,,,,,,,,13,,53,64
7290,note_on,,1,0,7,,,,,,,,,,,,,,,,5,,74,64
7290,note_on,,1,0,9,,,,,,,,,,,,,,,,7,,62,64
7290,note_on,,1,0,13,,,,,,,,,,,,,,,,12,,62,64
7290,note_on,,1,0,11,,,,,,,,,,,,,,,,10,,74,64
7290,note_on,,1,0,12,,,,,,,,,,,,,,,,11,,69,64
7290,note_on,,1,0,5,,,,,,,,,,,,,,,,0,,74,64
7290,note_on,,1,0,6,,,,,,,,,,,,,,,,2,,53,64
7290,note_on,,1,0,8,,,,,,,,,,,,,,,,6,,69,64
7319,note_on,,29,0,5,,,,,,,,,,,,,,,,0,,74,0
7319,note_on,,29,0,7,,,,,,,,,,,,,,,,5,,74,0
7319,note_on,,29,0,10,,,,,,,,,,,,,,,,8,,53,0
7319,note_on,,29,0,15,,,,,,,,,,,,,,,,15,,70,0
7319,note_on,,0,0,15,,,,,,,,,,,,,,,,15,,67,0
7319,note_on,,29,0,6,,,,,,,,,,,,,,,,2,,53,0
7319,note_on,,29,0,9,,,,,,,,,,,,,,,,7,,62,0
7319,note_on,,0,0,15,,,,,,,,,,,,,,,,15,,62,0
7319,note_on,,0,0,15,,,,,,,,,,,,,,,,15,,53,0
7319,note_on,,29,0,12,,,,,,,,,,,,,,,,11,,69,0
7319,note_on,,29,0,13,,,,,,,,,,,,,,,,12,,62,0
7319,note_on,,29,0,8,,,,,,,,,,,,,,,,6,,69,0
7319,note_on,,29,0,11,,,,,,,,,,,,,,,,10,,74,0
7319,note_on,,29,0,14,,,,,,,,,,,,,,,,13,,53,0
7320,note_on,,1,0,15,,,,,,,,,,,,,,,,15,,51,64
7320,note_on,,0,0,15,,,,,,,,,,,,,,,,15,,67,64
7320,note_on,,1,0,10,,,,,,,,,,,,,,,,8,,51,64
7320,note_on,,0,0,15,,,,,,,,,,,,,,,,15,,72,64
7320,note_on,,1,0,14,,,,,,,,,,,,,,,,13,,51,64
7320,note_on,,1,0,6,,,,,,,,,,,,,,,,2,,51,64
7320,note_on,,1,0,8,,,,,,,,,,,,,,,,6,,67,64
7320,note_on,,1,0,11,,,,,,,,,,,,,,,,10,,72,64
7320,note_on,,1,0,9,,,,,,,,,,,,,,,,7,,63,64
7320,note_on,,1,0,5,,,,,,,,,,,,,,,,0,,72,64
7320,note_on,,1,0,12,,,,,,,,,,,,,,,,11,,67,64
7320,note_on,,1,0,13,,,,,,,,,,,,,,,,12,,63,64
7320,note_on,,1,0,7,,,,,,,,,,,,,,,,5,,72,64
7320,note_on,,0,0,15,,,,,,,,,,,,,,,,15,,55,64
7334,note_on,,14,0,11,,,,,,,,,,,,,,,,10,,72,0
7335,note_on,,1,0,11,,,,,,,,,,,,,,,,10,,74,64
7349,note_on,,14,0,11,,,,,,,,,,,,,,,,10,,74,0
7350,note_on,,1,0,11,,,,,,,,,,,,,,,,10,,72,64
7364,note_on,,14,0,11,,,,,,,,,,,,,,,,10,,72,0
7365,note_on,,1,0,11,,,,,,,,,,,,,,,,10,,74,64
7379,note_on,,14,0,11,,,,,,,,,,,,,,,,10,,74,0
7380,note_on,,1,0,11,,,,,,,,,,,,,,,,10,,70,64
7394,note_on,,14,0,11,,,,,,,,,,,,,,,,10,,70,0
7395,note_on,,1,0,11,,,,,,,,,,,,,,,,10,,72,64
7409,note_on,,89,0,14,,,,,,,,,,,,,,,,13,,51,0
7409,note_on,,89,0,8,,,,,,,,,,,,,,,,6,,67,0
7409,note_on,,14,0,11,,,,,,,,,,,,,,,,10,,72,0
7409,note_on,,89,0,15,,,,,,,,,,,,,,,,15,,51,0
7409,note_on,,89,0,10,,,,,,,,,,,,,,,,8,,51,0
7409,note_on,,89,0,9,,,,,,,,,,,,,,,,7,,63,0
7409,note_on,,89,0,6,,,,,,,,,,,,,,,,2,,51,0
7409,note_on,,89,0,13,,,,,,,,,,,,,,,,12,,63,0
7409,note_on,,89,0,12,,,,,,,,,,,,,,,,11,,67,0
7409,note_on,,89,0,5,,,,,,,,,,,,,,,,0,,72,0
7409,note_on,,89,0,7,,,,,,,,,,,,,,,,5,,72,0
7410,note_on,,1,0,12,,,,,,,,,,,,,,,,11,,66,64
7410,note_on,,1,0,14,,,,,,,,,,,,,,,,13,,50,64
7410,note_on,,1,0,8,,,,,,,,,,,,,,,,6,,66,64
7410,note_on,,1,0,11,,,,,,,,,,,,,,,,10,,74,64
7410,note_on,,1,0,7,,,,,,,,,,,,,,,,5,,74,64
7410,note_on,,1,0,6,,,,,,,,,,,,,,,,2,,50,64
7410,note_on,,1,0,15,,,,,,,,,,,,,,,,15,,50,64
7410,note_on,,1,0,5,,,,,,,,,,,,,,,,0,,74,64
7410,note_on,,1,0,10,,,,,,,,,,,,,,,,8,,50,64
7410,note_on,,1,0,9,,,,,,,,,,,,,,,,7,,57,64
7410,note_on,,1,0,13,,,,,,,,,,,,,,,,12,,57,64
7439,note_on,,29,0,8,,,,,,,,,,,,,,,,6,,66,0
7439,note_on,,29,0,9,,,,,,,,,,,,,,,,7,,57,0
7439,note_on,,0,0,15,,,,,,,,,,,,,,,,15,,67,0
7439,note_on,,29,0,5,,,,,,,,,,,,,,,,0,,74,0
7439,note_on,,29,0,7,,,,,,,,,,,,,,,,5,,74,0
7439,note_on,,0,0,15,,,,,,,,,,,,,,,,15,,50,0
7439,note_on,,29,0,11,,,,,,,,,,,,,,,,10,,74,0
7439,note_on,,29,0,14,,,,,,,,,,,,,,,,13,,50,0
7439,note_on,,29,0,12,,,,,,,,,,,,,,,,11,,66,0
7439,note_on,,29,0,15,,,,,,,,,,,,,,,,15,,55,0
7439,note_on,,29,0,10,,,,,,,,,,,,,,,,8,,50,0
7439,note_on,,29,0,13,,,,,,,,,,,,,,,,12,,57,0
7439,note_on,,29,0,6,,,,,,,,,,,,,,,,2,,50,0
7439,note_on,,0,0,15,,,,,,,,,,,,,,,,15,,72,0
7440,note_on,,1,0,14,,,,,,,,,,,,,,,,13,,50,64
7440,note_on,,1,0,5,,,,,,,,,,,,,,,,0,,74,64
7440,note_on,,1,0,15,,,,,,,,,,,,,,,,15,,50,64
7440,note_on,,0,0,15,,,,,,,,,,,,,,,,15,,74,64
7440,note_on,,0,0,15,,,,,,,,,,,,,,,,15,,66,64
7440,note_on,,0,0,15,,,,,,,,,,,,,,,,15,,62,64
7440,note_on,,1,0,11,,,,,,,,,,,,,,,,10,,74,64
7440,note_on,,0,0,15,,,,,,,,,,,,,,,,15,,69,64
7440,note_on,,1,0,9,,,,,,,,,,,,,,,,7,,57,64
7440,note_on,,1,0,6,,,,,,,,,,,,,,,,2,,50,64
7440,note_on,,1,0,10,,,,,,,,,,,,,,,,8,,50,64
7440,note_on,,1,0,8,,,,,,,,,,,,,,,,6,,66,64
7440,note_on,,1,0,13,,,,,,,,,,,,,,,,12,,57,64
7440,note_on,,1,0,12,,,,,,,,,,,,,,,,11,,66,64
7440,note_on,,1,0,7,,,,,,,,,,,,,,,,5,,74,64
7559,note_on,,119,0,11,,,,,,,,,,,,,,,,10,,74,0
7559,note_on,,119,0,8,,,,,,,,,,,,,,,,6,,66,0
7559,note_on,,119,0,15,,,,,,,,,,,,,,,,15,,50,0
7559,note_on,,119,0,10,,,,,,,,,,,,,,,,8,,50,0
7559,note_on,,119,0,12,,,,,,,,,,,,,,,,11,,66,0
7559,note_on,,0,0,15,,,,,,,,,,,,,,,,15,,69,0
7559,note_on,,119,0,14,,,,,,,,,,,,,,,,13,,50,0
7559,note_on,,0,0,15,,,,,,,,,,,,,,,,15,,66,0
7559,note_on,,119,0,7,,,,,,,,,,,,,,,,5,,74,0
7559,note_on,,0,0,15,,,,,,,,,,,,,,,,15,,74,0
7559,note_on,,119,0,5,,,,,,,,,,,,,,,,0,,74,0
7559,note_on,,119,0,13,,,,,,,,,,,,,,,,12,,57,0
7559,note_on,,119,0,9,,,,,,,,,,,,,,,,7,,57,0
7559,note_on,,119,0,6,,,,,,,,,,,,,,,,2,,50,0
7559,note_on,,0,0,15,,,,,,,,,,,,,,,,15,,62,0
7620,note_on,,61,0,13,,,,,,,,,,,,,,,,12,,58,64
7620,note_on,,61,0,14,,,,,,,,,,,,,,,,13,,55,64
7620,note_on,,0,0,15,,,,,,,,,,,,,,,,15,,67,64
7620,note_on,,0,0,15,,,,,,,,,,,,,,,,15,,74,64
7620,note_on,,61,0,15,,,,,,,,,,,,,,,,15,,55,64
7620,note_on,,61,0,12,,,,,,,,,,,,,,,,11,,67,64
7620,note_on,,61,0,6,,,,,,,,,,,,,,,,2,,55,64
7620,note_on,,0,0,15,,,,,,,,,,,,,,,,15,,58,64
7620,note_on,,61,0,11,,,,,,,,,,,,,,,,10,,74,64
7650,note_on,,91,0,8,,,,,,,,,,,,,,,,6,,67,64
7650,note_on,,91,0,10,,,,,,,,,,,,,,,,8,,55,64
7650,note_on,,91,0,9,,,,,,,,,,,,,,,,7,,58,64
7650,note_on,,91,0,7,,,,,,,,,,,,,,,,5,,74,64
7650,note_on,,91,0,5,,,,,,,,,,,,,,,,0,,74,64
7679,note_on,,59,0,11,,,,,,,,,,,,,,,,10,,74,0
7679,note_on,,59,0,6,,,,,,,,,,,,,,,,2,,55,0
7679,note_on,,29,0,9,,,,,,,,,,,,,,,,7,,58,0
7679,note_on,,59,0,14,,,,,,,,,,,,,,,,13,,55,0
7679,note_on,,29,0,10,,,,,,,,,,,,,,,,8,,55,0
7679,note_on,,0,0,15,,,,,,,,,,,,,,,,15,,58,0
7679,note_on,,0,0,15,,,,,,,,,,,,,,,,15,,74,0
7679,note_on,,0,0,15,,,,,,,,,,,,,,,,15,,67,0
7679,note_on,,29,0,5,,,,,,,,,,,,,,,,0,,74,0
7679,note_on,,59,0,15,,,,,,,,,,,,,,,,15,,55,0
7679,note_on,,29,0,7,,,,,,,,,,,,,,,,5,,74,0
7679,note_on,,59,0,12,,,,,,,,,,,,,,,,11,,67,0
7679,note_on,,29,0,8,,,,,,,,,,,,,,,,6,,67,0
7679,note_on,,59,0,13,,,,,,,,,,,,,,,,12,,58,0
7680,note_on,,1,0,10,,,,,,,,,,,,,,,,8,,51,64
7680,note_on,,1,0,14,,,,,,,,,,,,,,,,13,,51,64
7680,note_on,,1,0,9,,,,,,,,,,,,,,,,7,,60,64
7680,note_on,,1,0,7,,,,,,,,,,,,,,,,5,,79,64
7680,note_on,,1,0,13,,,,,,,,,,,,,,,,12,,60,64
7680,note_on,,1,0,6,,,,,,,,,,,,,,,,2,,51,64
7680,note_on,,1,0,11,,,,,,,,,,,,,,,,10,,79,64
7680,note_on,,1,0,5,,,,,,,,,,,,,,,,0,,79,64
7680,note_on,,1,0,12,,,,,,,,,,,,,,,,11,,67,64
7680,note_on,,1,0,15,,,,,,,,,,,,,,,,15,,51,64
7680,note_on,,0,0,15,,,,,,,,,,,,,,,,15,,72,64
7680,note_on,,0,0,15,,,,,,,,,,,,,,,,15,,67,64
7680,note_on,,0,0,15,,,,,,,,,,,,,,,,15,,60,64
7680,note_on,,1,0,8,,,,,,,,,,,,,,,,6,,67,64
7769,note_on,,89,0,7,,,,,,,,,,,,,,,,5,,79,0
7769,note_on,,89,0,5,,,,,,,,,,,,,,,,0,,79,0
7769,note_on,,89,0,11,,,,,,,,,,,,,,,,10,,79,0
7770,note_on,,1,0,11,,,,,,,,,,,,,,,,10,,77,64
7770,note_on,,1,0,5,,,,,,,,,,,,,,,,0,,77,64
7770,note_on,,1,0,7,,,,,,,,,,,,,,,,5,,77,64
7799,note_on,,119,0,15,,,,,,,,,,,,,,,,15,,51,0
7799,note_on,,119,0,12,,,,,,,,,,,,,,,,11,,67,0
7799,note_on,,29,0,5,,,,,,,,,,,,,,,,0,,77,0
7799,note_on,,119,0,6,,,,,,,,,,,,,,,,2,,51,0
7799,note_on,,119,0,8,,,,,,,,,,,,,,,,6,,67,0
7799,note_on,,0,0,15,,,,,,,,,,,,,,,,15,,67,0
7799,note_on,,0,0,15,,,,,,,,,,,,,,,,15,,72,0
7799,note_on,,0,0,15,,,,,,,,,,,,,,,,15,,60,0
7799,note_on,,119,0,13,,,,,,,,,,,,,,,,12,,60,0
7799,note_on,,29,0,7,,,,,,,,,,,,,,,,5,,77,0
7799,note_on,,119,0,9,,,,,,,,,,,,,,,,7,,60,0
7799,note_on,,119,0,10,,,,,,,,,,,,,,,,8,,51,0
7799,note_on,,119,0,14,,,,,,,,,,,,,,,,13,,51,0
7799,note_on,,29,0,11,,,,,,,,,,,,,,,,10,,77,0
7800,note_on,,1,0,15,,,,,,,,,,,,,,,,15,,48,64
7800,note_on,,0,0,15,,,,,,,,,,,,,,,,15,,75,64
7800,note_on,,0,0,15,,,,,,,,,,,,,,,,15,,72,64
7800,note_on,,0,0,15,,,,,,,,,,,,,,,,15,,67,64
7800,note_on,,0,0,15,,,,,,,,,,,,,,,,15,,60,64
7800,note_on,,1,0,6,,,,,,,,,,,,,,,,2,,48,64
7800,note_on,,1,0,10,,,,,,,,,,,,,,,,8,,48,64
7800,note_on,,1,0,13,,,,,,,,,,,,,,,,12,,67,64
7800,note_on,,1,0,11,,,,,,,,,,,,,,,,10,,75,64
7800,note_on,,1,0,9,,,,,,,,,,,,,,,,7,,60,64
7800,note_on,,1,0,12,,,,,,,,,,,,,,,,11,,72,64
7800,note_on,,1,0,5,,,,,,,,,,,,,,,,0,,75,64
7800,note_on,,1,0,8,,,,,,,,,,,,,,,,6,,67,64
7800,note_on,,1,0,14,,,,,,,,,,,,,,,,13,,48,64
7800,note_on,,1,0,7,,,,,,,,,,,,,,,,5,,75,64
7814,note_on,,14,0,12,,,,,,,,,,,,,,,,11,,72,0
7814,note_on,,14,0,11,,,,,,,,,,,,,,,,10,,75,0
7815,note_on,,1,0,12,,,,,,,,,,,,,,,,11,,74,64
7815,note_on,,1,0,11,,,,,,,,,,,,,,,,10,,77,64
7829,note_on,,14,0,12,,,,,,,,,,,,,,,,11,,74,0
7829,note_on,,14,0,11,,,,,,,,,,,,,,,,10,,77,0
7830,note_on,,1,0,12,,,,,,,,,,,,,,,,11,,72,64
7830,note_on,,1,0,11,,,,,,,,,,,,,,,,10,,75,64
7844,note_on,,14,0,11,,,,,,,,,,,,,,,,10,,75,0
7844,note_on,,14,0,12,,,,,,,,,,,,,,,,11,,72,0
7845,note_on,,1,0,11,,,,,,,,,,,,,,,,10,,77,64
7845,note_on,,1,0,12,,,,,,,,,,,,,,,,11,,74,64
7859,note_on,,14,0,11,,,,,,,,,,,,,,,,10,,77,0
7859,note_on,,14,0,12,,,,,,,,,,,,,,,,11,,74,0
7860,note_on,,1,0,12,,,,,,,,,,,,,,,,11,,70,64
7860,note_on,,1,0,11,,,,,,,,,,,,,,,,10,,74,64
7874,note_on,,14,0,11,,,,,,,,,,,,,,,,10,,74,0
7874,note_on,,14,0,12,,,,,,,,,,,,,,,,11,,70,0
7875,note_on,,1,0,12,,,,,,,,,,,,,,,,11,,72,64
7875,note_on,,1,0,11,,,,,,,,,,,,,,,,10,,75,64
7889,note_on,,14,0,11,,,,,,,,,,,,,,,,10,,75,0
7889,note_on,,14,0,12,,,,,,,,,,,,,,,,11,,72,0
7889,note_on,,89,0,7,,,,,,,,,,,,,,,,5,,75,0
7889,note_on,,89,0,5,,,,,,,,,,,,,,,,0,,75,0
7890,note_on,,1,0,11,,,,,,,,,,,,,,,,10,,74,64
7890,note_on,,1,0,5,,,,,,,,,,,,,,,,0,,74,64
7890,note_on,,1,0,7,,,,,,,,,,,,,,,,5,,74,64
7890,note_on,,1,0,12,,,,,,,,,,,,,,,,11,,70,64
7919,note_on,,29,0,7,,,,,,,,,,,,,,,,5,,74,0
7919,note_on,,29,0,11,,,,,,,,,,,,,,,,10,,74,0
7919,note_on,,119,0,13,,,,,,,,,,,,,,,,12,,67,0
7919,note_on,,29,0,5,,,,,,,,,,,,,,,,0,,74,0
7919,note_on,,29,0,12,,,,,,,,,,,,,,,,11,,70,0
7919,note_on,,119,0,15,,,,,,,,,,,,,,,,15,,48,0
7919,note_on,,0,0,15,,,,,,,,,,,,,,,,15,,75,0
7919,note_on,,0,0,15,,,,,,,,,,,,,,,,15,,72,0
7919,note_on,,0,0,15,,,,,,,,,,,,,,,,15,,60,0
7919,note_on,,119,0,9,,,,,,,,,,,,,,,,7,,60,0
7919,note_on,,119,0,14,,,,,,,,,,,,,,,,13,,48,0
7919,note_on,,119,0,8,,,,,,,,,,,,,,,,6,,67,0
7919,note_on,,119,0,6,,,,,,,,,,,,,,,,2,,48,0
7919,note_on,,0,0,15,,,,,,,,,,,,,,,,15,,67,0
7919,note_on,,119,0,10,,,,,,,,,,,,,,,,8,,48,0
7920,note_on,,1,0,8,,,,,,,,,,,,,,,,6,,67,64
7920,note_on,,1,0,13,,,,,,,,,,,,,,,,12,,67,64
7920,note_on,,1,0,10,,,,,,,,,,,,,,,,8,,55,64
7920,note_on,,1,0,11,,,,,,,,,,,,,,,,10,,74,64
7920,note_on,,0,0,15,,,,,,,,,,,,,,,,15,,55,64
7920,note_on,,0,0,15,,,,,,,,,,,,,,,,15,,74,64
7920,note_on,,0,0,15,,,,,,,,,,,,,,,,15,,70,64
7920,note_on,,0,0,15,,,,,,,,,,,,,,,,15,,62,64
7920,note_on,,1,0,12,,,,,,,,,,,,,,,,11,,70,64
7920,note_on,,1,0,6,,,,,,,,,,,,,,,,2,,55,64
7920,note_on,,1,0,7,,,,,,,,,,,,,,,,5,,74,64
7920,note_on,,1,0,14,,,,,,,,,,,,,,,,13,,55,64
7920,note_on,,1,0,9,,,,,,,,,,,,,,,,7,,58,64
7920,note_on,,1,0,5,,,,,,,,,,,,,,,,0,,74,64
7920,note_on,,1,0,15,,,,,,,,,,,,,,,,15,,67,64
8039,note_on,,119,0,6,,,,,,,,,,,,,,,,2,,55,0
8039,note_on,,119,0,7,,,,,,,,,,,,,,,,5,,74,0
8039,note_on,,119,0,9,,,,,,,,,,,,,,,,7,,58,0
8039,note_on,,119,0,11,,,,,,,,,,,,,,,,10,,74,0
8039,note_on,,119,0,12,,,,,,,,,,,,,,,,11,,70,0
8039,note_on,,119,0,10,,,,,,,,,,,,,,,,8,,55,0
8039,note_on,,119,0,13,,,,,,,,,,,,,,,,12,,67,0
8039,note_on,,119,0,14,,,,,,,,,,,,,,,,13,,55,0
8039,note_on,,0,0,15,,,,,,,,,,,,,,,,15,,62,0
8039,note_on,,119,0,8,,,,,,,,,,,,,,,,6,,67,0
8039,note_on,,119,0,5,,,,,,,,,,,,,,,,0,,74,0
8039,note_on,,0,0,15,,,,,,,,,,,,,,,,15,,70,0
8039,note_on,,0,0,15,,,,,,,,,,,,,,,,15,,74,0
8039,note_on,,0,0,15,,,,,,,,,,,,,,,,15,,55,0
8039,note_on,,119,0,15,,,,,,,,,,,,,,,,15,,67,0
8040,note_on,,1,0,11,,,,,,,,,,,,,,,,10,,70,64
8040,note_on,,1,0,14,,,,,,,,,,,,,,,,13,,70,64
8040,note_on,,1,0,15,,,,,,,,,,,,,,,,15,,70,64
8040,note_on,,1,0,7,,,,,,,,,,,,,,,,5,,70,64
8040,note_on,,1,0,6,,,,,,,,,,,,,,,,2,,70,64
8040,note_on,,1,0,5,,,,,,,,,,,,,,,,0,,70,64
8159,note_on,,119,0,15,,,,,,,,,,,,,,,,15,,70,0
8159,note_on,,119,0,11,,,,,,,,,,,,,,,,10,,70,0
8159,note_on,,119,0,5,,,,,,,,,,,,,,,,0,,70,0
8159,note_on,,119,0,6,,,,,,,,,,,,,,,,2,,70,0
8159,note_on,,119,0,7,,,,,,,,,,,,,,,,5,,70,0
8159,note_on,,119,0,14,,,,,,,,,,,,,,,,13,,70,0
8160,note_on,,1,0,11,,,,,,,,,,,,,,,,10,,70,64
8160,note_on,,1,0,5,,,,,,,,,,,,,,,,0,,70,64
8160,note_on,,1,0,15,,,,,,,,,,,,,,,,15,,70,64
8160,note_on,,1,0,6,,,,,,,,,,,,,,,,2,,70,64
8160,note_on,,1,0,7,,,,,,,,,,,,,,,,5,,70,64
8160,note_on,,1,0,14,,,,,,,,,,,,,,,,13,,70,64
8279,note_on,,119,0,11,,,,,,,,,,,,,,,,10,,70,0
8279,note_on,,119,0,7,,,,,,,,,,,,,,,,5,,70,0
8279,note_on,,119,0,5,,,,,,,,,,,,,,,,0,,70,0
8280,note_on,,1,0,11,,,,,,,,,,,,,,,,10,,70,64
8280,note_on,,1,0,7,,,,,,,,,,,,,,,,5,,70,64
8280,note_on,,1,0,5,,,,,,,,,,,,,,,,0,,70,64
8339,note_on,,59,0,7,,,,,,,,,,,,,,,,5,,70,0
8339,note_on,,59,0,5,,,,,,,,,,,,,,,,0,,70,0
8340,note_on,,1,0,7,,,,,,,,,,,,,,,,5,,70,64
8340,note_on,,301,0,12,,,,,,,,,,,,,,,,11,,58,64
8340,note_on,,180,0,15,,,,,,,,,,,,,,,,15,,58,64
8340,note_on,,1,0,5,,,,,,,,,,,,,,,,0,,70,64
8370,note_on,,331,0,8,,,,,,,,,,,,,,,,6,,58,64
8399,note_on,,59,0,7,,,,,,,,,,,,,,,,5,,70,0
8399,note_on,,29,0,8,,,,,,,,,,,,,,,,6,,58,0
8399,note_on,,59,0,15,,,,,,,,,,,,,,,,15,,58,0
8399,note_on,,59,0,5,,,,,,,,,,,,,,,,0,,70,0
8399,note_on,,119,0,11,,,,,,,,,,,,,,,,10,,70,0
8399,note_on,,59,0,12,,,,,,,,,,,,,,,,11,,58,0
8400,note_on,,1,0,7,,,,,,,,,,,,,,,,5,,70,64
8400,note_on,,1,0,12,,,,,,,,,,,,,,,,11,,63,64
8400,note_on,,1,0,8,,,,,,,,,,,,,,,,6,,63,64
8400,note_on,,1,0,11,,,,,,,,,,,,,,,,10,,70,64
8400,note_on,,1,0,5,,,,,,,,,,,,,,,,0,,70,64
8400,note_on,,1,0,15,,,,,,,,,,,,,,,,15,,63,64
8489,note_on,,89,0,8,,,,,,,,,,,,,,,,6,,63,0
8489,note_on,,89,0,15,,,,,,,,,,,,,,,,15,,63,0
8489,note_on,,89,0,12,,,,,,,,,,,,,,,,11,,63,0
8490,note_on,,1,0,15,,,,,,,,,,,,,,,,15,,67,64
8490,note_on,,1,0,8,,,,,,,,,,,,,,,,6,,67,64
8490,note_on,,1,0,12,,,,,,,,,,,,,,,,11,,67,64
8519,note_on,,359,0,6,,,,,,,,,,,,,,,,2,,70,0
8519,note_on,,359,0,14,,,,,,,,,,,,,,,,13,,70,0
8519,note_on,,29,0,8,,,,,,,,,,,,,,,,6,,67,0
8519,note_on,,29,0,12,,,,,,,,,,,,,,,,11,,67,0
8519,note_on,,29,0,15,,,,,,,,,,,,,,,,15,,70,0
8519,note_on,,0,0,15,,,,,,,,,,,,,,,,15,,67,0
8520,note_on,,1,0,8,,,,,,,,,,,,,,,,6,,65,64
8520,note_on,,1,0,12,,,,,,,,,,,,,,,,11,,65,64
8520,note_on,,1,0,15,,,,,,,,,,,,,,,,15,,65,64
8579,note_on,,59,0,15,,,,,,,,,,,,,,,,15,,65,0
8580,note_on,,0,0,15,,,,,,,,,,,,,,,,15,,65,64
8580,note_on,,0,0,15,,,,,,,,,,,,,,,,15,,62,64
8580,note_on,,61,0,14,,,,,,,,,,,,,,,,13,,46,64
8580,note_on,,1,0,15,,,,,,,,,,,,,,,,15,,46,64
8580,note_on,,61,0,6,,,,,,,,,,,,,,,,2,,46,64
8580,note_on,,541,0,13,,,,,,,,,,,,,,,,12,,62,64
8580,note_on,,0,0,15,,,,,,,,,,,,,,,,15,,70,64
8609,note_on,,209,0,5,,,,,,,,,,,,,,,,0,,70,0
8609,note_on,,89,0,8,,,,,,,,,,,,,,,,6,,65,0
8609,note_on,,89,0,12,,,,,,,,,,,,,,,,11,,65,0
8609,note_on,,209,0,7,,,,,,,,,,,,,,,,5,,70,0
8610,note_on,,1,0,5,,,,,,,,,,,,,,,,0,,70,64
8610,note_on,,1,0,7,,,,,,,,,,,,,,,,5,,70,64
8610,note_on,,1,0,8,,,,,,,,,,,,,,,,6,,68,64
8610,note_on,,571,0,10,,,,,,,,,,,,,,,,8,,46,64
8610,note_on,,571,0,9,,,,,,,,,,,,,,,,7,,53,64
8610,note_on,,1,0,12,,,,,,,,,,,,,,,,11,,68,64
8639,note_on,,29,0,7,,,,,,,,,,,,,,,,5,,70,0
8639,note_on,,59,0,13,,,,,,,,,,,,,,,,12,,62,0
8639,note_on,,59,0,6,,,,,,,,,,,,,,,,2,,46,0
8639,note_on,,29,0,12,,,,,,,,,,,,,,,,11,,68,0
8639,note_on,,59,0,14,,,,,,,,,,,,,,,,13,,46,0
8639,note_on,,29,0,10,,,,,,,,,,,,,,,,8,,46,0
8639,note_on,,29,0,8,,,,,,,,,,,,,,,,6,,68,0
8639,note_on,,0,0,15,,,,,,,,,,,,,,,,15,,62,0
8639,note_on,,29,0,5,,,,,,,,,,,,,,,,0,,70,0
8639,note_on,,0,0,15,,,,,,,,,,,,,,,,15,,65,0
8639,note_on,,29,0,9,,,,,,,,,,,,,,,,7,,53,0
8639,note_on,,0,0,15,,,,,,,,,,,,,,,,15,,70,0
8639,note_on,,59,0,15,,,,,,,,,,,,,,,,15,,46,0
8640,note_on,,1,0,12,,,,,,,,,,,,,,,,11,,67,64
8640,note_on,,1,0,13,,,,,,,,,,,,,,,,12,,58,64
8640,note_on,,1,0,5,,,,,,,,,,,,,,,,0,,70,64
8640,note_on,,1,0,14,,,,,,,,,,,,,,,,13,,51,64
8640,note_on,,1,0,7,,,,,,,,,,,,,,,,5,,70,64
8640,note_on,,1,0,6,,,,,,,,,,,,,,,,2,,51,64
8640,note_on,,1,0,9,,,,,,,,,,,,,,,,7,,55,64
8640,note_on,,1,0,15,,,,,,,,,,,,,,,,15,,51,64
8640,note_on,,0,0,15,,,,,,,,,,,,,,,,15,,70,64
8640,note_on,,0,0,15,,,,,,,,,,,,,,,,15,,67,64
8640,note_on,,0,0,15,,,,,,,,,,,,,,,,15,,63,64
8640,note_on,,1,0,8,,,,,,,,,,,,,,,,6,,67,64
8640,note_on,,1,0,10,,,,,,,,,,,,,,,,8,,51,64
8729,note_on,,89,0,14,,,,,,,,,,,,,,,,13,,51,0
8729,note_on,,89,0,13,,,,,,,,,,,,,,,,12,,58,0
8729,note_on,,89,0,10,,,,,,,,,,,,,,,,8,,51,0
8729,note_on,,89,0,15,,,,,,,,,,,,,,,,15,,51,0
8729,note_on,,89,0,9,,,,,,,,,,,,,,,,7,,55,0
8729,note_on,,89,0,12,,,,,,,,,,,,,,,,11,,67,0
8729,note_on,,89,0,6,,,,,,,,,,,,,,,,2,,51,0
8729,note_on,,89,0,8,,,,,,,,,,,,,,,,6,,67,0
8730,note_on,,1,0,15,,,,,,,,,,,,,,,,15,,55,64
8730,note_on,,1,0,13,,,,,,,,,,,,,,,,12,,58,64
8730,note_on,,1,0,9,,,,,,,,,,,,,,,,7,,58,64
8730,note_on,,1,0,12,,,,,,,,,,,,,,,,11,,63,64
8730,note_on,,1,0,6,,,,,,,,,,,,,,,,2,,55,64
8730,note_on,,1,0,14,,,,,,,,,,,,,,,,13,,55,64
8730,note_on,,1,0,8,,,,,,,,,,,,,,,,6,,63,64
8730,note_on,,1,0,10,,,,,,,,,,,,,,,,8,,55,64
8759,note_on,,29,0,6,,,,,,,,,,,,,,,,2,,55,0
8759,note_on,,29,0,13,,,,,,,,,,,,,,,,12,,58,0
8759,note_on,,29,0,15,,,,,,,,,,,,,,,,15,,67,0
8759,note_on,,0,0,15,,,,,,,,,,,,,,,,15,,63,0
8759,note_on,,29,0,9,,,,,,,,,,,,,,,,7,,58,0
8759,note_on,,0,0,15,,,,,,,,,,,,,,,,15,,55,0
8759,note_on,,119,0,7,,,,,,,,,,,,,,,,5,,70,0
8759,note_on,,29,0,14,,,,,,,,,,,,,,,,13,,55,0
8759,note_on,,29,0,12,,,,,,,,,,,,,,,,11,,63,0
8759,note_on,,29,0,10,,,,,,,,,,,,,,,,8,,55,0
8759,note_on,,119,0,5,,,,,,,,,,,,,,,,0,,70,0
8759,note_on,,29,0,8,,,,,,,,,,,,,,,,6,,63,0
8760,note_on,,1,0,6,,,,,,,,,,,,,,,,2,,53,64
8760,note_on,,0,0,15,,,,,,,,,,,,,,,,15,,68,64
8760,note_on,,1,0,10,,,,,,,,,,,,,,,,8,,53,64
8760,note_on,,1,0,5,,,,,,,,,,,,,,,,0,,70,64
8760,note_on,,1,0,7,,,,,,,,,,,,,,,,5,,70,64
8760,note_on,,1,0,8,,,,,,,,,,,,,,,,6,,62,64
8760,note_on,,0,0,15,,,,,,,,,,,,,,,,15,,62,64
8760,note_on,,1,0,9,,,,,,,,,,,,,,,,7,,56,64
8760,note_on,,1,0,14,,,,,,,,,,,,,,,,13,,53,64
8760,note_on,,1,0,12,,,,,,,,,,,,,,,,11,,62,64
8760,note_on,,1,0,13,,,,,,,,,,,,,,,,12,,56,64
8760,note_on,,1,0,15,,,,,,,,,,,,,,,,15,,53,64
8849,note_on,,89,0,10,,,,,,,,,,,,,,,,8,,53,0
8849,note_on,,89,0,9,,,,,,,,,,,,,,,,7,,56,0
8849,note_on,,89,0,13,,,,,,,,,,,,,,,,12,,56,0
8849,note_on,,89,0,12,,,,,,,,,,,,,,,,11,,62,0
8849,note_on,,89,0,6,,,,,,,,,,,,,,,,2,,53,0
8849,note_on,,89,0,8,,,,,,,,,,,,,,,,6,,62,0
8849,note_on,,89,0,7,,,,,,,,,,,,,,,,5,,70,0
8849,note_on,,89,0,14,,,,,,,,,,,,,,,,13,,53,0
8849,note_on,,89,0,15,,,,,,,,,,,,,,,,15,,53,0
8849,note_on,,89,0,5,,,,,,,,,,,,,,,,0,,70,0
8850,note_on,,1,0,6,,,,,,,,,,,,,,,,2,,56,64
8850,note_on,,1,0,15,,,,,,,,,,,,,,,,15,,56,64
8850,note_on,,1,0,13,,,,,,,,,,,,,,,,12,,62,64
8850,note_on,,1,0,14,,,,,,,,,,,,,,,,13,,56,64
8850,note_on,,1,0,9,,,,,,,,,,,,,,,,7,,62,64
8850,note_on,,1,0,7,,,,,,,,,,,,,,,,5,,70,64
8850,note_on,,1,0,10,,,,,,,,,,,,,,,,8,,56,64
8850,note_on,,1,0,5,,,,,,,,,,,,,,,,0,,70,64
8850,note_on,,1,0,12,,,,,,,,,,,,,,,,11,,65,64
8850,note_on,,1,0,8,,,,,,,,,,,,,,,,6,,63,64
8879,note_on,,29,0,15,,,,,,,,,,,,,,,,15,,68,0
8879,note_on,,0,0,15,,,,,,,,,,,,,,,,15,,62,0
8879,note_on,,0,0,15,,,,,,,,,,,,,,,,15,,56,0
8879,note_on,,29,0,12,,,,,,,,,,,,,,,,11,,65,0
8879,note_on,,29,0,9,,,,,,,,,,,,,,,,7,,62,0
8879,note_on,,29,0,10,,,,,,,,,,,,,,,,8,,56,0
8879,note_on,,29,0,7,,,,,,,,,,,,,,,,5,,70,0
8879,note_on,,29,0,8,,,,,,,,,,,,,,,,6,,63,0
8879,note_on,,29,0,14,,,,,,,,,,,,,,,,13,,56,0
8879,note_on,,29,0,5,,,,,,,,,,,,,,,,0,,70,0
8879,note_on,,29,0,13,,,,,,,,,,,,,,,,12,,62,0
8879,note_on,,29,0,6,,,,,,,,,,,,,,,,2,,56,0
8880,note_on,,1,0,13,,,,,,,,,,,,,,,,12,,63,64
8880,note_on,,1,0,6,,,,,,,,,,,,,,,,2,,55,64
8880,note_on,,1,0,14,,,,,,,,,,,,,,,,13,,55,64
8880,note_on,,1,0,5,,,,,,,,,,,,,,,,0,,70,64
8880,note_on,,1,0,15,,,,,,,,,,,,,,,,15,,55,64
8880,note_on,,0,0,15,,,,,,,,,,,,,,,,15,,63,64
8880,note_on,,0,0,15,,,,,,,,,,,,,,,,15,,58,64
8880,note_on,,1,0,8,,,,,,,,,,,,,,,,6,,63,64
8880,note_on,,1,0,9,,,,,,,,,,,,,,,,7,,63,64
8880,note_on,,1,0,12,,,,,,,,,,,,,,,,11,,63,64
8880,note_on,,1,0,7,,,,,,,,,,,,,,,,5,,70,64
8880,note_on,,1,0,10,,,,,,,,,,,,,,,,8,,55,64
8939,note_on,,59,0,14,,,,,,,,,,,,,,,,13,,55,0
8939,note_on,,59,0,10,,,,,,,,,,,,,,,,8,,55,0
8939,note_on,,59,0,15,,,,,,,,,,,,,,,,15,,55,0
8939,note_on,,0,0,15,,,,,,,,,,,,,,,,15,,63,0
8939,note_on,,0,0,15,,,,,,,,,,,,,,,,15,,58,0
8939,note_on,,59,0,6,,,,,,,,,,,,,,,,2,,55,0
8940,note_on,,1,0,15,,,,,,,,,,,,,,,,15,,58,64
8940,note_on,,0,0,15,,,,,,,,,,,,,,,,15,,67,64
8940,note_on,,0,0,15,,,,,,,,,,,,,,,,15,,63,64
8940,note_on,,1,0,6,,,,,,,,,,,,,,,,2,,58,64
8940,note_on,,1,0,10,,,,,,,,,,,,,,,,8,,58,64
8940,note_on,,1,0,14,,,,,,,,,,,,,,,,13,,58,64
8969,note_on,,89,0,12,,,,,,,,,,,,,,,,11,,63,0
8969,note_on,,89,0,8,,,,,,,,,,,,,,,,6,,63,0
8970,note_on,,1,0,12,,,,,,,,,,,,,,,,11,,67,64
8970,note_on,,1,0,8,,,,,,,,,,,,,,,,6,,67,64
8999,note_on,,0,0,15,,,,,,,,,,,,,,,,15,,67,0
8999,note_on,,59,0,15,,,,,,,,,,,,,,,,15,,70,0
8999,note_on,,29,0,12,,,,,,,,,,,,,,,,11,,67,0
8999,note_on,,29,0,8,,,,,,,,,,,,,,,,6,,67,0
9000,note_on,,1,0,12,,,,,,,,,,,,,,,,11,,65,64
9000,note_on,,1,0,8,,,,,,,,,,,,,,,,6,,65,64
9000,note_on,,0,0,15,,,,,,,,,,,,,,,,15,,65,64
9000,note_on,,1,0,15,,,,,,,,,,,,,,,,15,,70,64
9059,note_on,,119,0,10,,,,,,,,,,,,,,,,8,,58,0
9059,note_on,,119,0,14,,,,,,,,,,,,,,,,13,,58,0
9059,note_on,,179,0,13,,,,,,,,,,,,,,,,12,,63,0
9059,note_on,,119,0,6,,,,,,,,,,,,,,,,2,,58,0
9059,note_on,,59,0,15,,,,,,,,,,,,,,,,15,,58,0
9059,note_on,,0,0,15,,,,,,,,,,,,,,,,15,,63,0
9060,note_on,,1,0,6,,,,,,,,,,,,,,,,2,,46,64
9060,note_on,,1,0,13,,,,,,,,,,,,,,,,12,,62,64
9060,note_on,,1,0,10,,,,,,,,,,,,,,,,8,,46,64
9060,note_on,,1,0,14,,,,,,,,,,,,,,,,13,,46,64
9060,note_on,,1,0,15,,,,,,,,,,,,,,,,15,,46,64
9060,note_on,,0,0,15,,,,,,,,,,,,,,,,15,,62,64
9060,note_on,,0,0,15,,,,,,,,,,,,,,,,15,,65,64
9089,note_on,,209,0,9,,,,,,,,,,,,,,,,7,,63,0
9089,note_on,,89,0,8,,,,,,,,,,,,,,,,6,,65,0
9089,note_on,,89,0,12,,,,,,,,,,,,,,,,11,,65,0
9090,note_on,,1,0,12,,,,,,,,,,,,,,,,11,,68,64
9090,note_on,,1,0,8,,,,,,,,,,,,,,,,6,,68,64
9090,note_on,,1,0,9,,,,,,,,,,,,,,,,7,,62,64
9119,note_on,,0,0,15,,,,,,,,,,,,,,,,15,,46,0
9119,note_on,,0,0,15,,,,,,,,,,,,,,,,15,,65,0
9119,note_on,,29,0,8,,,,,,,,,,,,,,,,6,,68,0
9119,note_on,,59,0,14,,,,,,,,,,,,,,,,13,,46,0
9119,note_on,,59,0,10,,,,,,,,,,,,,,,,8,,46,0
9119,note_on,,0,0,15,,,,,,,,,,,,,,,,15,,62,0
9119,note_on,,29,0,9,,,,,,,,,,,,,,,,7,,62,0
9119,note_on,,59,0,13,,,,,,,,,,,,,,,,12,,62,0
9119,note_on,,0,0,15,,,,,,,,,,,,,,,,15,,65,0
9119,note_on,,59,0,15,,,,,,,,,,,,,,,,15,,70,0
9119,note_on,,29,0,12,,,,,,,,,,,,,,,,11,,68,0
9119,note_on,,59,0,6,,,,,,,,,,,,,,,,2,,46,0
9120,note_on,,0,0,15,,,,,,,,,,,,,,,,15,,63,64
9120,note_on,,1,0,13,,,,,,,,,,,,,,,,12,,63,64
9120,note_on,,1,0,14,,,,,,,,,,,,,,,,13,,51,64
9120,note_on,,1,0,8,,,,,,,,,,,,,,,,6,,67,64
9120,note_on,,0,0,15,,,,,,,,,,,,,,,,15,,67,64
9120,note_on,,1,0,12,,,,,,,,,,,,,,,,11,,67,64
9120,note_on,,1,0,9,,,,,,,,,,,,,,,,7,,63,64
9120,note_on,,1,0,10,,,,,,,,,,,,,,,,8,,51,64
9120,note_on,,0,0,15,,,,,,,,,,,,,,,,15,,70,64
9120,note_on,,1,0,15,,,,,,,,,,,,,,,,15,,51,64
9120,note_on,,1,0,6,,,,,,,,,,,,,,,,2,,51,64
9209,note_on,,89,0,9,,,,,,,,,,,,,,,,7,,63,0
9209,note_on,,89,0,13,,,,,,,,,,,,,,,,12,,63,0
9209,note_on,,89,0,14,,,,,,,,,,,,,,,,13,,51,0
9209,note_on,,89,0,8,,,,,,,,,,,,,,,,6,,67,0
9209,note_on,,89,0,6,,,,,,,,,,,,,,,,2,,51,0
9209,note_on,,89,0,10,,,,,,,,,,,,,,,,8,,51,0
9209,note_on,,89,0,15,,,,,,,,,,,,,,,,15,,51,0
9209,note_on,,89,0,12,,,,,,,,,,,,,,,,11,,67,0
9210,note_on,,1,0,6,,,,,,,,,,,,,,,,2,,55,64
9210,note_on,,1,0,13,,,,,,,,,,,,,,,,12,,58,64
9210,note_on,,1,0,12,,,,,,,,,,,,,,,,11,,63,64
9210,note_on,,1,0,9,,,,,,,,,,,,,,,,7,,58,64
9210,note_on,,1,0,10,,,,,,,,,,,,,,,,8,,55,64
9210,note_on,,1,0,8,,,,,,,,,,,,,,,,6,,63,64
9210,note_on,,1,0,15,,,,,,,,,,,,,,,,15,,55,64
9210,note_on,,1,0,14,,,,,,,,,,,,,,,,13,,55,64
9239,note_on,,29,0,10,,,,,,,,,,,,,,,,8,,55,0
9239,note_on,,29,0,15,,,,,,,,,,,,,,,,15,,67,0
9239,note_on,,0,0,15,,,,,,,,,,,,,,,,15,,63,0
9239,note_on,,0,0,15,,,,,,,,,,,,,,,,15,,55,0
9239,note_on,,29,0,9,,,,,,,,,,,,,,,,7,,58,0
9239,note_on,,29,0,14,,,,,,,,,,,,,,,,13,,55,0
9239,note_on,,29,0,8,,,,,,,,,,,,,,,,6,,63,0
9239,note_on,,29,0,13,,,,,,,,,,,,,,,,12,,58,0
9239,note_on,,29,0,12,,,,,,,,,,,,,,,,11,,63,0
9239,note_on,,29,0,6,,,,,,,,,,,,,,,,2,,55,0
9240,note_on,,0,0,15,,,,,,,,,,,,,,,,15,,62,64
9240,note_on,,1,0,12,,,,,,,,,,,,,,,,11,,62,64
9240,note_on,,1,0,10,,,,,,,,,,,,,,,,8,,53,64
9240,note_on,,1,0,8,,,,,,,,,,,,,,,,6,,62,64
9240,note_on,,1,0,13,,,,,,,,,,,,,,,,12,,56,64
9240,note_on,,1,0,15,,,,,,,,,,,,,,,,15,,53,64
9240,note_on,,0,0,15,,,,,,,,,,,,,,,,15,,68,64
9240,note_on,,1,0,14,,,,,,,,,,,,,,,,13,,53,64
9240,note_on,,1,0,6,,,,,,,,,,,,,,,,2,,53,64
9240,note_on,,1,0,9,,,,,,,,,,,,,,,,7,,56,64
9329,note_on,,89,0,13,,,,,,,,,,,,,,,,12,,56,0
9329,note_on,,89,0,10,,,,,,,,,,,,,,,,8,,53,0
9329,note_on,,89,0,12,,,,,,,,,,,,,,,,11,,62,0
9329,note_on,,89,0,15,,,,,,,,,,,,,,,,15,,53,0
9329,note_on,,89,0,14,,,,,,,,,,,,,,,,13,,53,0
9329,note_on,,89,0,8,,,,,,,,,,,,,,,,6,,62,0
9329,note_on,,89,0,9,,,,,,,,,,,,,,,,7,,56,0
9329,note_on,,89,0,6,,,,,,,,,,,,,,,,2,,53,0
9330,note_on,,1,0,9,,,,,,,,,,,,,,,,7,,62,64
9330,note_on,,1,0,8,,,,,,,,,,,,,,,,6,,65,64
9330,note_on,,1,0,12,,,,,,,,,,,,,,,,11,,65,64
9330,note_on,,1,0,15,,,,,,,,,,,,,,,,15,,56,64
9330,note_on,,1,0,6,,,,,,,,,,,,,,,,2,,56,64
9330,note_on,,1,0,14,,,,,,,,,,,,,,,,13,,56,64
9330,note_on,,1,0,10,,,,,,,,,,,,,,,,8,,56,64
9330,note_on,,1,0,13,,,,,,,,,,,,,,,,12,,62,64
9359,note_on,,29,0,15,,,,,,,,,,,,,,,,15,,68,0
9359,note_on,,0,0,15,,,,,,,,,,,,,,,,15,,62,0
9359,note_on,,29,0,12,,,,,,,,,,,,,,,,11,,65,0
9359,note_on,,0,0,15,,,,,,,,,,,,,,,,15,,56,0
9359,note_on,,29,0,13,,,,,,,,,,,,,,,,12,,62,0
9359,note_on,,29,0,8,,,,,,,,,,,,,,,,6,,65,0
9359,note_on,,29,0,6,,,,,,,,,,,,,,,,2,,56,0
9359,note_on,,29,0,10,,,,,,,,,,,,,,,,8,,56,0
9359,note_on,,29,0,14,,,,,,,,,,,,,,,,13,,56,0
9359,note_on,,29,0,9,,,,,,,,,,,,,,,,7,,62,0
9360,note_on,,0,0,15,,,,,,,,,,,,,,,,15,,63,64
9360,note_on,,0,0,15,,,,,,,,,,,,,,,,15,,58,64
9360,note_on,,1,0,6,,,,,,,,,,,,,,,,2,,55,64
9360,note_on,,1,0,9,,,,,,,,,,,,,,,,7,,63,64
9360,note_on,,1,0,10,,,,,,,,,,,,,,,,8,,55,64
9360,note_on,,1,0,8,,,,,,,,,,,,,,,,6,,63,64
9360,note_on,,1,0,15,,,,,,,,,,,,,,,,15,,55,64
9360,note_on,,1,0,13,,,,,,,,,,,,,,,,12,,63,64
9360,note_on,,1,0,12,,,,,,,,,,,,,,,,11,,63,64
9360,note_on,,1,0,14,,,,,,,,,,,,,,,,13,,55,64
9419,note_on,,59,0,15,,,,,,,,,,,,,,,,15,,55,0
9419,note_on,,59,0,10,,,,,,,,,,,,,,,,8,,55,0
9419,note_on,,0,0,15,,,,,,,,,,,,,,,,15,,58,0
9419,note_on,,0,0,15,,,,,,,,,,,,,,,,15,,63,0
9419,note_on,,59,0,14,,,,,,,,,,,,,,,,13,,55,0
9419,note_on,,59,0,6,,,,,,,,,,,,,,,,2,,55,0
9420,note_on,,0,0,15,,,,,,,,,,,,,,,,15,,63,64
9420,note_on,,0,0,15,,,,,,,,,,,,,,,,15,,67,64
9420,note_on,,1,0,15,,,,,,,,,,,,,,,,15,,58,64
9420,note_on,,1,0,6,,,,,,,,,,,,,,,,2,,58,64
9420,note_on,,1,0,14,,,,,,,,,,,,,,,,13,,58,64
9420,note_on,,1,0,10,,,,,,,,,,,,,,,,8,,58,64
9449,note_on,,89,0,8,,,,,,,,,,,,,,,,6,,63,0
9449,note_on,,89,0,12,,,,,,,,,,,,,,,,11,,63,0
9450,note_on,,1,0,8,,,,,,,,,,,,,,,,6,,67,64
9450,note_on,,1,0,12,,,,,,,,,,,,,,,,11,,67,64
9479,note_on,,29,0,12,,,,,,,,,,,,,,,,11,,67,0
9479,note_on,,59,0,15,,,,,,,,,,,,,,,,15,,70,0
9479,note_on,,0,0,15,,,,,,,,,,,,,,,,15,,67,0
9479,note_on,,29,0,8,,,,,,,,,,,,,,,,6,,67,0
9479,note_on,,119,0,13,,,,,,,,,,,,,,,,12,,63,0
9479,note_on,,119,0,9,,,,,,,,,,,,,,,,7,,63,0
9480,note_on,,1,0,9,,,,,,,,,,,,,,,,7,,62,64
9480,note_on,,1,0,15,,,,,,,,,,,,,,,,15,,70,64
9480,note_on,,1,0,13,,,,,,,,,,,,,,,,12,,62,64
9480,note_on,,0,0,15,,,,,,,,,,,,,,,,15,,65,64
9480,note_on,,1,0,12,,,,,,,,,,,,,,,,11,,65,64
9480,note_on,,1,0,8,,,,,,,,,,,,,,,,6,,65,64
9539,note_on,,119,0,10,,,,,,,,,,,,,,,,8,,58,0
9539,note_on,,59,0,13,,,,,,,,,,,,,,,,12,,62,0
9539,note_on,,119,0,6,,,,,,,,,,,,,,,,2,,58,0
9539,note_on,,59,0,15,,,,,,,,,,,,,,,,15,,58,0
9539,note_on,,0,0,15,,,,,,,,,,,,,,,,15,,63,0
9539,note_on,,59,0,12,,,,,,,,,,,,,,,,11,,65,0
9539,note_on,,59,0,8,,,,,,,,,,,,,,,,6,,65,0
9539,note_on,,59,0,9,,,,,,,,,,,,,,,,7,,62,0
9539,note_on,,119,0,14,,,,,,,,,,,,,,,,13,,58,0
9540,note_on,,1,0,13,,,,,,,,,,,,,,,,12,,62,64
9540,note_on,,1,0,12,,,,,,,,,,,,,,,,11,,65,64
9540,note_on,,1,0,14,,,,,,,,,,,,,,,,13,,56,64
9540,note_on,,1,0,9,,,,,,,,,,,,,,,,7,,62,64
9540,note_on,,1,0,6,,,,,,,,,,,,,,,,2,,56,64
9540,note_on,,1,0,8,,,,,,,,,,,,,,,,6,,65,64
9540,note_on,,0,0,15,,,,,,,,,,,,,,,,15,,62,64
9540,note_on,,0,0,15,,,,,,,,,,,,,,,,15,,65,64
9540,note_on,,1,0,15,,,,,,,,,,,,,,,,15,,56,64
9540,note_on,,1,0,10,,,,,,,,,,,,,,,,8,,56,64
9599,note_on,,0,0,15,,,,,,,,,,,,,,,,15,,62,0
9599,note_on,,0,0,15,,,,,,,,,,,,,,,,15,,65,0
9599,note_on,,59,0,14,,,,,,,,,,,,,,,,13,,56,0
9599,note_on,,59,0,12,,,,,,,,,,,,,,,,11,,65,0
9599,note_on,,59,0,10,,,,,,,,,,,,,,,,8,,56,0
9599,note_on,,0,0,15,,,,,,,,,,,,,,,,15,,56,0
9599,note_on,,0,0,15,,,,,,,,,,,,,,,,15,,65,0
9599,note_on,,59,0,15,,,,,,,,,,,,,,,,15,,70,0
9599,note_on,,59,0,9,,,,,,,,,,,,,,,,7,,62,0
9599,note_on,,59,0,8,,,,,,,,,,,,,,,,6,,65,0
9599,note_on,,59,0,13,,,,,,,,,,,,,,,,12,,62,0
9599,note_on,,59,0,6,,,,,,,,,,,,,,,,2,,56,0
9600,note_on,,1,0,9,,,,,,,,,,,,,,,,7,,63,64
9600,note_on,,1,0,6,,,,,,,,,,,,,,,,2,,55,64
9600,note_on,,1,0,10,,,,,,,,,,,,,,,,8,,55,64
9600,note_on,,0,0,15,,,,,,,,,,,,,,,,15,,58,64
9600,note_on,,0,0,15,,,,,,,,,,,,,,,,15,,63,64
9600,note_on,,1,0,13,,,,,,,,,,,,,,,,12,,63,64
9600,note_on,,1,0,15,,,,,,,,,,,,,,,,15,,55,64
9600,note_on,,1,0,8,,,,,,,,,,,,,,,,6,,67,64
9600,note_on,,1,0,12,,,,,,,,,,,,,,,,11,,67,64
9600,note_on,,0,0,15,,,,,,,,,,,,,,,,15,,70,64
9600,note_on,,1,0,14,,,,,,,,,,,,,,,,13,,55,64
9719,note_on,,119,0,8,,,,,,,,,,,,,,,,6,,67,0
9719,note_on,,119,0,15,,,,,,,,,,,,,,,,15,,55,0
9719,note_on,,0,0,15,,,,,,,,,,,,,,,,15,,70,0
9719,note_on,,0,0,15,,,,,,,,,,,,,,,,15,,63,0
9719,note_on,,0,0,15,,,,,,,,,,,,,,,,15,,58,0
9719,note_on,,119,0,13,,,,,,,,,,,,,,,,12,,63,0
9719,note_on,,119,0,6,,,,,,,,,,,,,,,,2,,55,0
9719,note_on,,119,0,12,,,,,,,,,,,,,,,,11,,67,0
9719,note_on,,119,0,10,,,,,,,,,,,,,,,,8,,55,0
9719,note_on,,119,0,9,,,,,,,,,,,,,,,,7,,63,0
9719,note_on,,119,0,14,,,,,,,,,,,,,,,,13,,55,0
9720,note_on,,1,0,14,,,,,,,,,,,,,,,,13,,50,64
9720,note_on,,1,0,12,,,,,,,,,,,,,,,,11,,65,64
9720,note_on,,1,0,9,,,,,,,,,,,,,,,,7,,58,64
9720,note_on,,1,0,13,,,,,,,,,,,,,,,,12,,58,64
9720,note_on,,1,0,8,,,,,,,,,,,,,,,,6,,65,64
9720,note_on,,1,0,15,,,,,,,,,,,,,,,,15,,50,64
9720,note_on,,0,0,15,,,,,,,,,,,,,,,,15,,65,64
9720,note_on,,1,0,10,,,,,,,,,,,,,,,,8,,50,64
9720,note_on,,1,0,6,,,,,,,,,,,,,,,,2,,50,64
9720,note_on,,0,0,15,,,,,,,,,,,,,,,,15,,58,64
9809,note_on,,89,0,6,,,,,,,,,,,,,,,,2,,50,0
9809,note_on,,89,0,14,,,,,,,,,,,,,,,,13,,50,0
9809,note_on,,89,0,15,,,,,,,,,,,,,,,,15,,50,0
9809,note_on,,0,0,15,,,,,,,,,,,,,,,,15,,65,0
9809,note_on,,0,0,15,,,,,,,,,,,,,,,,15,,58,0
9809,note_on,,89,0,13,,,,,,,,,,,,,,,,12,,58,0
9809,note_on,,89,0,10,,,,,,,,,,,,,,,,8,,50,0
9809,note_on,,89,0,9,,,,,,,,,,,,,,,,7,,58,0
9809,note_on,,89,0,12,,,,,,,,,,,,,,,,11,,65,0
9809,note_on,,89,0,8,,,,,,,,,,,,,,,,6,,65,0
9810,note_on,,1,0,9,,,,,,,,,,,,,,,,7,,60,64
9810,note_on,,1,0,13,,,,,,,,,,,,,,,,12,,60,64
9810,note_on,,1,0,6,,,,,,,,,,,,,,,,2,,51,64
9810,note_on,,0,0,15,,,,,,,,,,,,,,,,15,,60,64
9810,note_on,,1,0,12,,,,,,,,,,,,,,,,11,,63,64
9810,note_on,,1,0,8,,,,,,,,,,,,,,,,6,,63,64
9810,note_on,,1,0,14,,,,,,,,,,,,,,,,13,,51,64
9810,note_on,,1,0,10,,,,,,,,,,,,,,,,8,,51,64
9810,note_on,,1,0,15,,,,,,,,,,,,,,,,15,,51,64
9810,note_on,,0,0,15,,,,,,,,,,,,,,,,15,,63,64
9839,note_on,,29,0,12,,,,,,,,,,,,,,,,11,,63,0
9839,note_on,,959,0,5,,,,,,,,,,,,,,,,0,,70,0
9839,note_on,,29,0,6,,,,,,,,,,,,,,,,2,,51,0
9839,note_on,,29,0,13,,,,,,,,,,,,,,,,12,,60,0
9839,note_on,,29,0,10,,,,,,,,,,,,,,,,8,,51,0
9839,note_on,,29,0,9,,,,,,,,,,,,,,,,7,,60,0
9839,note_on,,959,0,7,,,,,,,,,,,,,,,,5,,70,0
9839,note_on,,29,0,14,,,,,,,,,,,,,,,,13,,51,0
9839,note_on,,29,0,15,,,,,,,,,,,,,,,,15,,51,0
9839,note_on,,0,0,15,,,,,,,,,,,,,,,,15,,63,0
9839,note_on,,0,0,15,,,,,,,,,,,,,,,,15,,60,0
9839,note_on,,29,0,8,,,,,,,,,,,,,,,,6,,63,0
9839,note_on,,1439,0,11,,,,,,,,,,,,,,,,10,,70,0
9840,note_on,,1,0,9,,,,,,,,,,,,,,,,7,,62,64
9840,note_on,,1,0,10,,,,,,,,,,,,,,,,8,,46,64
9840,note_on,,1,0,15,,,,,,,,,,,,,,,,15,,46,64
9840,note_on,,0,0,15,,,,,,,,,,,,,,,,15,,65,64
9840,note_on,,0,0,15,,,,,,,,,,,,,,,,15,,62,64
9840,note_on,,0,0,15,,,,,,,,,,,,,,,,15,,58,64
9840,note_on,,1,0,14,,,,,,,,,,,,,,,,13,,46,64
9840,note_on,,1,0,13,,,,,,,,,,,,,,,,12,,53,64
9840,note_on,,1,0,6,,,,,,,,,,,,,,,,2,,46,64
9840,note_on,,1,0,12,,,,,,,,,,,,,,,,11,,62,64
9840,note_on,,1,0,8,,,,,,,,,,,,,,,,6,,65,64
9959,note_on,,119,0,12,,,,,,,,,,,,,,,,11,,62,0
9959,note_on,,0,0,15,,,,,,,,,,,,,,,,15,,62,0
9959,note_on,,119,0,9,,,,,,,,,,,,,,,,7,,62,0
9959,note_on,,119,0,13,,,,,,,,,,,,,,,,12,,53,0
9959,note_on,,119,0,14,,,,,,,,,,,,,,,,13,,46,0
9959,note_on,,119,0,10,,,,,,,,,,,,,,,,8,,46,0
9959,note_on,,119,0,8,,,,,,,,,,,,,,,,6,,65,0
9959,note_on,,119,0,15,,,,,,,,,,,,,,,,15,,46,0
9959,note_on,,0,0,15,,,,,,,,,,,,,,,,15,,65,0
9959,note_on,,0,0,15,,,,,,,,,,,,,,,,15,,58,0
9959,note_on,,119,0,6,,,,,,,,,,,,,,,,2,,46,0
9960,note_on,,1,0,15,,,,,,,,,,,,,,,,15,,74,64
9960,note_on,,121,0,5,,,,,,,,,,,,,,,,0,,74,64
9960,note_on,,121,0,7,,,,,,,,,,,,,,,,5,,74,64
9960,note_on,,121,0,11,,,,,,,,,,,,,,,,10,,74,64
10079,note_on,,119,0,15,,,,,,,,,,,,,,,,15,,74,0
10079,note_on,,119,0,7,,,,,,,,,,,,,,,,5,,74,0
10079,note_on,,119,0,5,,,,,,,,,,,,,,,,0,,74,0
10079,note_on,,119,0,11,,,,,,,,,,,,,,,,10,,74,0
10080,note_on,,1,0,5,,,,,,,,,,,,,,,,0,,70,64
10080,note_on,,1,0,11,,,,,,,,,,,,,,,,10,,70,64
10080,note_on,,1,0,15,,,,,,,,,,,,,,,,15,,70,64
10080,note_on,,1,0,7,,,,,,,,,,,,,,,,5,,70,64
10199,note_on,,119,0,11,,,,,,,,,,,,,,,,10,,70,0
10199,note_on,,119,0,7,,,,,,,,,,,,,,,,5,,70,0
10199,note_on,,119,0,15,,,,,,,,,,,,,,,,15,,70,0
10199,note_on,,119,0,5,,,,,,,,,,,,,,,,0,,70,0
10200,note_on,,1,0,15,,,,,,,,,,,,,,,,15,,69,64
10200,note_on,,1,0,11,,,,,,,,,,,,,,,,10,,69,64
10200,note_on,,1,0,7,,,,,,,,,,,,,,,,5,,69,64
10200,note_on,,1,0,5,,,,,,,,,,,,,,,,0,,69,64
10289,note_on,,89,0,7,,,,,,,,,,,,,,,,5,,69,0
10289,note_on,,89,0,5,,,,,,,,,,,,,,,,0,,69,0
10289,note_on,,89,0,15,,,,,,,,,,,,,,,,15,,69,0
10289,note_on,,89,0,11,,,,,,,,,,,,,,,,10,,69,0
10290,note_on,,1,0,7,,,,,,,,,,,,,,,,5,,67,64
10290,note_on,,1,0,5,,,,,,,,,,,,,,,,0,,67,64
10290,note_on,,1,0,11,,,,,,,,,,,,,,,,10,,67,64
10290,note_on,,1,0,15,,,,,,,,,,,,,,,,15,,67,64
10319,note_on,,29,0,5,,,,,,,,,,,,,,,,0,,67,0
10319,note_on,,29,0,15,,,,,,,,,,,,,,,,15,,67,0
10319,note_on,,29,0,11,,,,,,,,,,,,,,,,10,,67,0
10319,note_on,,29,0,7,,,,,,,,,,,,,,,,5,,67,0
10320,note_on,,1,0,5,,,,,,,,,,,,,,,,0,,74,64
10320,note_on,,1,0,7,,,,,,,,,,,,,,,,5,,74,64
10320,note_on,,1,0,15,,,,,,,,,,,,,,,,15,,74,64
10320,note_on,,1,0,11,,,,,,,,,,,,,,,,10,,74,64
10500,note_on,,541,0,12,,,,,,,,,,,,,,,,11,,62,64
10500,note_on,,180,0,15,,,,,,,,,,,,,,,,15,,62,64
10530,note_on,,571,0,8,,,,,,,,,,,,,,,,6,,62,64
10559,note_on,,0,0,15,,,,,,,,,,,,,,,,15,,62,0
10559,note_on,,59,0,15,,,,,,,,,,,,,,,,15,,74,0
10559,note_on,,29,0,8,,,,,,,,,,,,,,,,6,,62,0
10559,note_on,,59,0,12,,,,,,,,,,,,,,,,11,,62,0
10560,note_on,,1,0,8,,,,,,,,,,,,,,,,6,,67,64
10560,note_on,,1,0,12,,,,,,,,,,,,,,,,11,,67,64
10560,note_on,,1,0,15,,,,,,,,,,,,,,,,15,,67,64
10649,note_on,,89,0,12,,,,,,,,,,,,,,,,11,,67,0
10649,note_on,,89,0,15,,,,,,,,,,,,,,,,15,,67,0
10649,note_on,,89,0,8,,,,,,,,,,,,,,,,6,,67,0
10650,note_on,,1,0,15,,,,,,,,,,,,,,,,15,,70,64
10650,note_on,,1,0,12,,,,,,,,,,,,,,,,11,,70,64
10650,note_on,,1,0,8,,,,,,,,,,,,,,,,6,,70,64
10679,note_on,,29,0,8,,,,,,,,,,,,,,,,6,,70,0
10679,note_on,,29,0,12,,,,,,,,,,,,,,,,11,,70,0
10679,note_on,,29,0,15,,,,,,,,,,,,,,,,15,,70,0
10680,note_on,,1,0,8,,,,,,,,,,,,,,,,6,,69,64
10680,note_on,,1,0,12,,,,,,,,,,,,,,,,11,,69,64
10680,note_on,,1,0,15,,,,,,,,,,,,,,,,15,,69,64
10739,note_on,,59,0,15,,,,,,,,,,,,,,,,15,,69,0
10740,note_on,,781,0,14,,,,,,,,,,,,,,,,13,,50,64
10740,note_on,,0,0,15,,,,,,,,,,,,,,,,15,,66,64
10740,note_on,,0,0,15,,,,,,,,,,,,,,,,15,,69,64
10740,note_on,,781,0,13,,,,,,,,,,,,,,,,12,,66,64
10740,note_on,,1,0,15,,,,,,,,,,,,,,,,15,,50,64
10740,note_on,,0,0,15,,,,,,,,,,,,,,,,15,,74,64
10740,note_on,,781,0,6,,,,,,,,,,,,,,,,2,,50,64
10769,note_on,,89,0,12,,,,,,,,,,,,,,,,11,,69,0
10769,note_on,,89,0,8,,,,,,,,,,,,,,,,6,,69,0
10769,note_on,,449,0,7,,,,,,,,,,,,,,,,5,,74,0
10769,note_on,,449,0,5,,,,,,,,,,,,,,,,0,,74,0
10770,note_on,,1,0,8,,,,,,,,,,,,,,,,6,,72,64
10770,note_on,,811,0,9,,,,,,,,,,,,,,,,7,,54,64
10770,note_on,,1,0,5,,,,,,,,,,,,,,,,0,,74,64
10770,note_on,,1,0,7,,,,,,,,,,,,,,,,5,,74,64
10770,note_on,,1,0,12,,,,,,,,,,,,,,,,11,,72,64
10770,note_on,,811,0,10,,,,,,,,,,,,,,,,8,,50,64
10799,note_on,,29,0,9,,,,,,,,,,,,,,,,7,,54,0
10799,note_on,,29,0,5,,,,,,,,,,,,,,,,0,,74,0
10799,note_on,,29,0,7,,,,,,,,,,,,,,,,5,,74,0
10799,note_on,,59,0,15,,,,,,,,,,,,,,,,15,,50,0
10799,note_on,,0,0,15,,,,,,,,,,,,,,,,15,,74,0
10799,note_on,,29,0,12,,,,,,,,,,,,,,,,11,,72,0
10799,note_on,,0,0,15,,,,,,,,,,,,,,,,15,,66,0
10799,note_on,,59,0,14,,,,,,,,,,,,,,,,13,,50,0
10799,note_on,,29,0,10,,,,,,,,,,,,,,,,8,,50,0
10799,note_on,,59,0,6,,,,,,,,,,,,,,,,2,,50,0
10799,note_on,,0,0,15,,,,,,,,,,,,,,,,15,,69,0
10799,note_on,,29,0,8,,,,,,,,,,,,,,,,6,,72,0
10799,note_on,,59,0,13,,,,,,,,,,,,,,,,12,,66,0
10800,note_on,,1,0,13,,,,,,,,,,,,,,,,12,,62,64
10800,note_on,,0,0,15,,,,,,,,,,,,,,,,15,,70,64
10800,note_on,,0,0,15,,,,,,,,,,,,,,,,15,,74,64
10800,note_on,,1,0,9,,,,,,,,,,,,,,,,7,,62,64
10800,note_on,,1,0,12,,,,,,,,,,,,,,,,11,,70,64
10800,note_on,,1,0,10,,,,,,,,,,,,,,,,8,,55,64
10800,note_on,,1,0,8,,,,,,,,,,,,,,,,6,,70,64
10800,note_on,,1,0,15,,,,,,,,,,,,,,,,15,,55,64
10800,note_on,,1,0,7,,,,,,,,,,,,,,,,5,,74,64
10800,note_on,,0,0,15,,,,,,,,,,,,,,,,15,,67,64
10800,note_on,,1,0,14,,,,,,,,,,,,,,,,13,,55,64
10800,note_on,,1,0,6,,,,,,,,,,,,,,,,2,,55,64
10800,note_on,,1,0,5,,,,,,,,,,,,,,,,0,,74,64
10889,note_on,,89,0,6,,,,,,,,,,,,,,,,2,,55,0
10889,note_on,,89,0,15,,,,,,,,,,,,,,,,15,,55,0
10889,note_on,,89,0,10,,,,,,,,,,,,,,,,8,,55,0
10889,note_on,,89,0,12,,,,,,,,,,,,,,,,11,,70,0
10889,note_on,,89,0,14,,,,,,,,,,,,,,,,13,,55,0
10889,note_on,,89,0,8,,,,,,,,,,,,,,,,6,,70,0
10890,note_on,,1,0,15,,,,,,,,,,,,,,,,15,,58,64
10890,note_on,,1,0,8,,,,,,,,,,,,,,,,6,,67,64
10890,note_on,,1,0,6,,,,,,,,,,,,,,,,2,,58,64
10890,note_on,,1,0,12,,,,,,,,,,,,,,,,11,,67,64
10890,note_on,,1,0,10,,,,,,,,,,,,,,,,8,,58,64
10890,note_on,,1,0,14,,,,,,,,,,,,,,,,13,,58,64
10919,note_on,,29,0,12,,,,,,,,,,,,,,,,11,,67,0
10919,note_on,,29,0,14,,,,,,,,,,,,,,,,13,,58,0
10919,note_on,,29,0,15,,,,,,,,,,,,,,,,15,,70,0
10919,note_on,,29,0,8,,,,,,,,,,,,,,,,6,,67,0
10919,note_on,,0,0,15,,,,,,,,,,,,,,,,15,,58,0
10919,note_on,,0,0,15,,,,,,,,,,,,,,,,15,,67,0
10919,note_on,,29,0,10,,,,,,,,,,,,,,,,8,,58,0
10919,note_on,,119,0,9,,,,,,,,,,,,,,,,7,,62,0
10919,note_on,,119,0,13,,,,,,,,,,,,,,,,12,,62,0
10919,note_on,,29,0,6,,,,,,,,,,,,,,,,2,,58,0
10920,note_on,,1,0,15,,,,,,,,,,,,,,,,15,,57,64
10920,note_on,,0,0,15,,,,,,,,,,,,,,,,15,,66,64
10920,note_on,,1,0,13,,,,,,,,,,,,,,,,12,,60,64
10920,note_on,,0,0,15,,,,,,,,,,,,,,,,15,,72,64
10920,note_on,,1,0,10,,,,,,,,,,,,,,,,8,,57,64
10920,note_on,,1,0,14,,,,,,,,,,,,,,,,13,,57,64
10920,note_on,,1,0,6,,,,,,,,,,,,,,,,2,,57,64
10920,note_on,,1,0,8,,,,,,,,,,,,,,,,6,,66,64
10920,note_on,,1,0,9,,,,,,,,,,,,,,,,7,,60,64
10920,note_on,,1,0,12,,,,,,,,,,,,,,,,11,,66,64
11009,note_on,,89,0,10,,,,,,,,,,,,,,,,8,,57,0
11009,note_on,,89,0,12,,,,,,,,,,,,,,,,11,,66,0
11009,note_on,,89,0,9,,,,,,,,,,,,,,,,7,,60,0
11009,note_on,,89,0,8,,,,,,,,,,,,,,,,6,,66,0
11009,note_on,,89,0,14,,,,,,,,,,,,,,,,13,,57,0
11009,note_on,,89,0,15,,,,,,,,,,,,,,,,15,,57,0
11009,note_on,,89,0,13,,,,,,,,,,,,,,,,12,,60,0
11009,note_on,,89,0,6,,,,,,,,,,,,,,,,2,,57,0
11010,note_on,,1,0,15,,,,,,,,,,,,,,,,15,,60,64
11010,note_on,,1,0,13,,,,,,,,,,,,,,,,12,,63,64
11010,note_on,,1,0,12,,,,,,,,,,,,,,,,11,,69,64
11010,note_on,,1,0,6,,,,,,,,,,,,,,,,2,,60,64
11010,note_on,,1,0,9,,,,,,,,,,,,,,,,7,,63,64
11010,note_on,,1,0,10,,,,,,,,,,,,,,,,8,,60,64
11010,note_on,,1,0,8,,,,,,,,,,,,,,,,6,,69,64
11010,note_on,,1,0,14,,,,,,,,,,,,,,,,13,,60,64
11039,note_on,,0,0,15,,,,,,,,,,,,,,,,15,,66,0
11039,note_on,,239,0,7,,,,,,,,,,,,,,,,5,,74,0
11039,note_on,,29,0,13,,,,,,,,,,,,,,,,12,,63,0
11039,note_on,,29,0,10,,,,,,,,,,,,,,,,8,,60,0
11039,note_on,,29,0,14,,,,,,,,,,,,,,,,13,,60,0
11039,note_on,,29,0,8,,,,,,,,,,,,,,,,6,,69,0
11039,note_on,,0,0,15,,,,,,,,,,,,,,,,15,,60,0
11039,note_on,,29,0,6,,,,,,,,,,,,,,,,2,,60,0
11039,note_on,,29,0,12,,,,,,,,,,,,,,,,11,,69,0
11039,note_on,,239,0,5,,,,,,,,,,,,,,,,0,,74,0
11039,note_on,,0,0,15,,,,,,,,,,,,,,,,15,,72,0
11039,note_on,,29,0,9,,,,,,,,,,,,,,,,7,,63,0
11039,note_on,,29,0,15,,,,,,,,,,,,,,,,15,,74,0
11040,note_on,,1,0,13,,,,,,,,,,,,,,,,12,,62,64
11040,note_on,,1,0,7,,,,,,,,,,,,,,,,5,,74,64
11040,note_on,,1,0,6,,,,,,,,,,,,,,,,2,,58,64
11040,note_on,,1,0,10,,,,,,,,,,,,,,,,8,,58,64
11040,note_on,,1,0,12,,,,,,,,,,,,,,,,11,,67,64
11040,note_on,,1,0,9,,,,,,,,,,,,,,,,7,,62,64
11040,note_on,,1,0,5,,,,,,,,,,,,,,,,0,,74,64
11040,note_on,,0,0,15,,,,,,,,,,,,,,,,15,,62,64
11040,note_on,,0,0,15,,,,,,,,,,,,,,,,15,,67,64
11040,note_on,,0,0,15,,,,,,,,,,,,,,,,15,,74,64
11040,note_on,,1,0,15,,,,,,,,,,,,,,,,15,,58,64
11040,note_on,,1,0,14,,,,,,,,,,,,,,,,13,,58,64
11040,note_on,,1,0,8,,,,,,,,,,,,,,,,6,,67,64
11099,note_on,,59,0,14,,,,,,,,,,,,,,,,13,,58,0
11099,note_on,,59,0,6,,,,,,,,,,,,,,,,2,,58,0
11099,note_on,,0,0,15,,,,,,,,,,,,,,,,15,,62,0
11099,note_on,,0,0,15,,,,,,,,,,,,,,,,15,,67,0
11099,note_on,,59,0,15,,,,,,,,,,,,,,,,15,,58,0
11099,note_on,,59,0,10,,,,,,,,,,,,,,,,8,,58,0
11100,note_on,,1,0,10,,,,,,,,,,,,,,,,8,,62,64
11100,note_on,,1,0,14,,,,,,,,,,,,,,,,13,,62,64
11100,note_on,,0,0,15,,,,,,,,,,,,,,,,15,,70,64
11100,note_on,,0,0,15,,,,,,,,,,,,,,,,15,,67,64
11100,note_on,,1,0,15,,,,,,,,,,,,,,,,15,,62,64
11100,note_on,,1,0,6,,,,,,,,,,,,,,,,2,,62,64
11129,note_on,,89,0,8,,,,,,,,,,,,,,,,6,,67,0
11129,note_on,,89,0,13,,,,,,,,,,,,,,,,12,,62,0
11129,note_on,,89,0,9,,,,,,,,,,,,,,,,7,,62,0
11129,note_on,,89,0,12,,,,,,,,,,,,,,,,11,,67,0
11130,note_on,,1,0,8,,,,,,,,,,,,,,,,6,,70,64
11130,note_on,,1,0,9,,,,,,,,,,,,,,,,7,,67,64
11130,note_on,,1,0,12,,,,,,,,,,,,,,,,11,,70,64
11130,note_on,,1,0,13,,,,,,,,,,,,,,,,12,,67,64
11159,note_on,,29,0,8,,,,,,,,,,,,,,,,6,,70,0
11159,note_on,,29,0,9,,,,,,,,,,,,,,,,7,,67,0
11159,note_on,,29,0,13,,,,,,,,,,,,,,,,12,,67,0
11159,note_on,,59,0,15,,,,,,,,,,,,,,,,15,,67,0
11159,note_on,,0,0,15,,,,,,,,,,,,,,,,15,,70,0
11159,note_on,,29,0,12,,,,,,,,,,,,,,,,11,,70,0
11159,note_on,,119,0,7,,,,,,,,,,,,,,,,5,,74,0
11159,note_on,,119,0,5,,,,,,,,,,,,,,,,0,,74,0
11160,note_on,,1,0,8,,,,,,,,,,,,,,,,6,,69,64
11160,note_on,,1,0,15,,,,,,,,,,,,,,,,15,,69,64
11160,note_on,,0,0,15,,,,,,,,,,,,,,,,15,,66,64
11160,note_on,,1,0,12,,,,,,,,,,,,,,,,11,,69,64
11160,note_on,,1,0,9,,,,,,,,,,,,,,,,7,,66,64
11160,note_on,,1,0,7,,,,,,,,,,,,,,,,5,,74,64
11160,note_on,,1,0,5,,,,,,,,,,,,,,,,0,,74,64
11160,note_on,,1,0,13,,,,,,,,,,,,,,,,12,,66,64
11219,note_on,,119,0,14,,,,,,,,,,,,,,,,13,,62,0
11219,note_on,,119,0,6,,,,,,,,,,,,,,,,2,,62,0
11219,note_on,,59,0,9,,,,,,,,,,,,,,,,7,,66,0
11219,note_on,,119,0,10,,,,,,,,,,,,,,,,8,,62,0
11219,note_on,,59,0,15,,,,,,,,,,,,,,,,15,,74,0
11219,note_on,,0,0,15,,,,,,,,,,,,,,,,15,,66,0
11219,note_on,,0,0,15,,,,,,,,,,,,,,,,15,,69,0
11219,note_on,,0,0,15,,,,,,,,,,,,,,,,15,,62,0
11220,note_on,,1,0,9,,,,,,,,,,,,,,,,7,,66,64
11220,note_on,,1,0,10,,,,,,,,,,,,,,,,8,,50,64
11220,note_on,,0,0,15,,,,,,,,,,,,,,,,15,,74,64
11220,note_on,,0,0,15,,,,,,,,,,,,,,,,15,,69,64
11220,note_on,,1,0,15,,,,,,,,,,,,,,,,15,,50,64
11220,note_on,,1,0,6,,,,,,,,,,,,,,,,2,,50,64
11220,note_on,,0,0,15,,,,,,,,,,,,,,,,15,,66,64
11220,note_on,,1,0,14,,,,,,,,,,,,,,,,13,,50,64
11249,note_on,,89,0,8,,,,,,,,,,,,,,,,6,,69,0
11249,note_on,,89,0,13,,,,,,,,,,,,,,,,12,,66,0
11249,note_on,,89,0,12,,,,,,,,,,,,,,,,11,,69,0
11250,note_on,,1,0,8,,,,,,,,,,,,,,,,6,,72,64
11250,note_on,,1,0,13,,,,,,,,,,,,,,,,12,,69,64
11250,note_on,,1,0,12,,,,,,,,,,,,,,,,11,,72,64
11279,note_on,,0,0,15,,,,,,,,,,,,,,,,15,,74,0
11279,note_on,,59,0,15,,,,,,,,,,,,,,,,15,,50,0
11279,note_on,,29,0,8,,,,,,,,,,,,,,,,6,,72,0
11279,note_on,,59,0,14,,,,,,,,,,,,,,,,13,,50,0
11279,note_on,,0,0,15,,,,,,,,,,,,,,,,15,,66,0
11279,note_on,,29,0,12,,,,,,,,,,,,,,,,11,,72,0
11279,note_on,,59,0,9,,,,,,,,,,,,,,,,7,,66,0
11279,note_on,,119,0,7,,,,,,,,,,,,,,,,5,,74,0
11279,note_on,,0,0,15,,,,,,,,,,,,,,,,15,,69,0
11279,note_on,,59,0,6,,,,,,,,,,,,,,,,2,,50,0
11279,note_on,,59,0,10,,,,,,,,,,,,,,,,8,,50,0
11279,note_on,,119,0,5,,,,,,,,,,,,,,,,0,,74,0
11279,note_on,,29,0,13,,,,,,,,,,,,,,,,12,,69,0
11280,note_on,,1,0,15,,,,,,,,,,,,,,,,15,,55,64
11280,note_on,,0,0,15,,,,,,,,,,,,,,,,15,,70,64
11280,note_on,,0,0,15,,,,,,,,,,,,,,,,15,,67,64
11280,note_on,,0,0,15,,,,,,,,,,,,,,,,15,,62,64
11280,note_on,,1,0,5,,,,,,,,,,,,,,,,0,,74,64
11280,note_on,,1,0,8,,,,,,,,,,,,,,,,6,,70,64
11280,note_on,,1,0,7,,,,,,,,,,,,,,,,5,,74,64
11280,note_on,,1,0,14,,,,,,,,,,,,,,,,13,,55,64
11280,note_on,,1,0,6,,,,,,,,,,,,,,,,2,,55,64
11280,note_on,,1,0,10,,,,,,,,,,,,,,,,8,,55,64
11280,note_on,,1,0,9,,,,,,,,,,,,,,,,7,,67,64
11280,note_on,,1,0,12,,,,,,,,,,,,,,,,11,,70,64
11280,note_on,,1,0,13,,,,,,,,,,,,,,,,12,,67,64
11369,note_on,,89,0,9,,,,,,,,,,,,,,,,7,,67,0
11369,note_on,,89,0,12,,,,,,,,,,,,,,,,11,,70,0
11369,note_on,,89,0,15,,,,,,,,,,,,,,,,15,,55,0
11369,note_on,,89,0,10,,,,,,,,,,,,,,,,8,,55,0
11369,note_on,,89,0,8,,,,,,,,,,,,,,,,6,,70,0
11369,note_on,,89,0,14,,,,,,,,,,,,,,,,13,,55,0
11369,note_on,,89,0,13,,,,,,,,,,,,,,,,12,,67,0
11369,note_on,,89,0,6,,,,,,,,,,,,,,,,2,,55,0
11370,note_on,,1,0,13,,,,,,,,,,,,,,,,12,,62,64
11370,note_on,,1,0,10,,,,,,,,,,,,,,,,8,,58,64
11370,note_on,,1,0,15,,,,,,,,,,,,,,,,15,,58,64
11370,note_on,,1,0,12,,,,,,,,,,,,,,,,11,,67,64
11370,note_on,,1,0,6,,,,,,,,,,,,,,,,2,,58,64
11370,note_on,,1,0,14,,,,,,,,,,,,,,,,13,,58,64
11370,note_on,,1,0,8,,,,,,,,,,,,,,,,6,,67,64
11370,note_on,,1,0,9,,,,,,,,,,,,,,,,7,,62,64
11399,note_on,,29,0,8,,,,,,,,,,,,,,,,6,,67,0
11399,note_on,,29,0,14,,,,,,,,,,,,,,,,13,,58,0
11399,note_on,,29,0,9,,,,,,,,,,,,,,,,7,,62,0
11399,note_on,,29,0,12,,,,,,,,,,,,,,,,11,,67,0
11399,note_on,,29,0,10,,,,,,,,,,,,,,,,8,,58,0
11399,note_on,,29,0,15,,,,,,,,,,,,,,,,15,,70,0
11399,note_on,,29,0,6,,,,,,,,,,,,,,,,2,,58,0
11399,note_on,,0,0,15,,,,,,,,,,,,,,,,15,,67,0
11399,note_on,,29,0,13,,,,,,,,,,,,,,,,12,,62,0
11399,note_on,,0,0,15,,,,,,,,,,,,,,,,15,,58,0
11400,note_on,,1,0,10,,,,,,,,,,,,,,,,8,,57,64
11400,note_on,,0,0,15,,,,,,,,,,,,,,,,15,,65,64
11400,note_on,,1,0,13,,,,,,,,,,,,,,,,12,,60,64
11400,note_on,,1,0,15,,,,,,,,,,,,,,,,15,,57,64
11400,note_on,,1,0,12,,,,,,,,,,,,,,,,11,,66,64
11400,note_on,,1,0,9,,,,,,,,,,,,,,,,7,,60,64
11400,note_on,,1,0,14,,,,,,,,,,,,,,,,13,,57,64
11400,note_on,,1,0,8,,,,,,,,,,,,,,,,6,,66,64
11400,note_on,,1,0,6,,,,,,,,,,,,,,,,2,,57,64
11400,note_on,,0,0,15,,,,,,,,,,,,,,,,15,,72,64
11489,note_on,,89,0,15,,,,,,,,,,,,,,,,15,,57,0
11489,note_on,,89,0,14,,,,,,,,,,,,,,,,13,,57,0
11489,note_on,,89,0,6,,,,,,,,,,,,,,,,2,,57,0
11489,note_on,,89,0,12,,,,,,,,,,,,,,,,11,,66,0
11489,note_on,,89,0,8,,,,,,,,,,,,,,,,6,,66,0
11489,note_on,,89,0,9,,,,,,,,,,,,,,,,7,,60,0
11489,note_on,,89,0,10,,,,,,,,,,,,,,,,8,,57,0
11489,note_on,,89,0,13,,,,,,,,,,,,,,,,12,,60,0
11490,note_on,,1,0,15,,,,,,,,,,,,,,,,15,,60,64
11490,note_on,,1,0,8,,,,,,,,,,,,,,,,6,,69,64
11490,note_on,,1,0,10,,,,,,,,,,,,,,,,8,,60,64
11490,note_on,,1,0,6,,,,,,,,,,,,,,,,2,,60,64
11490,note_on,,1,0,9,,,,,,,,,,,,,,,,7,,63,64
11490,note_on,,1,0,13,,,,,,,,,,,,,,,,12,,63,64
11490,note_on,,1,0,14,,,,,,,,,,,,,,,,13,,60,64
11490,note_on,,1,0,12,,,,,,,,,,,,,,,,11,,69,64
11519,note_on,,29,0,15,,,,,,,,,,,,,,,,15,,62,0
11519,note_on,,29,0,10,,,,,,,,,,,,,,,,8,,60,0
11519,note_on,,29,0,9,,,,,,,,,,,,,,,,7,,63,0
11519,note_on,,29,0,14,,,,,,,,,,,,,,,,13,,60,0
11519,note_on,,29,0,12,,,,,,,,,,,,,,,,11,,69,0
11519,note_on,,29,0,13,,,,,,,,,,,,,,,,12,,63,0
11519,note_on,,29,0,6,,,,,,,,,,,,,,,,2,,60,0
11519,note_on,,0,0,15,,,,,,,,,,,,,,,,15,,60,0
11519,note_on,,0,0,15,,,,,,,,,,,,,,,,15,,65,0
11519,note_on,,0,0,15,,,,,,,,,,,,,,,,15,,72,0
11519,note_on,,29,0,8,,,,,,,,,,,,,,,,6,,69,0
11520,note_on,,1,0,14,,,,,,,,,,,,,,,,13,,58,64
11520,note_on,,1,0,13,,,,,,,,,,,,,,,,12,,62,64
11520,note_on,,1,0,15,,,,,,,,,,,,,,,,15,,58,64
11520,note_on,,1,0,9,,,,,,,,,,,,,,,,7,,62,64
11520,note_on,,1,0,6,,,,,,,,,,,,,,,,2,,58,64
11520,note_on,,1,0,10,,,,,,,,,,,,,,,,8,,58,64
11520,note_on,,1,0,12,,,,,,,,,,,,,,,,11,,67,64
11520,note_on,,0,0,15,,,,,,,,,,,,,,,,15,,74,64
11520,note_on,,1,0,8,,,,,,,,,,,,,,,,6,,67,64
11520,note_on,,0,0,15,,,,,,,,,,,,,,,,15,,67,64
11520,note_on,,0,0,15,,,,,,,,,,,,,,,,15,,62,64
11579,note_on,,0,0,15,,,,,,,,,,,,,,,,15,,62,0
11579,note_on,,59,0,9,,,,,,,,,,,,,,,,7,,62,0
11579,note_on,,59,0,14,,,,,,,,,,,,,,,,13,,58,0
11579,note_on,,59,0,6,,,,,,,,,,,,,,,,2,,58,0
11579,note_on,,59,0,15,,,,,,,,,,,,,,,,15,,58,0
11579,note_on,,59,0,10,,,,,,,,,,,,,,,,8,,58,0
11579,note_on,,0,0,15,,,,,,,,,,,,,,,,15,,67,0
11580,note_on,,1,0,14,,,,,,,,,,,,,,,,13,,62,64
11580,note_on,,1,0,15,,,,,,,,,,,,,,,,15,,62,64
11580,note_on,,1,0,9,,,,,,,,,,,,,,,,7,,67,64
11580,note_on,,0,0,15,,,,,,,,,,,,,,,,15,,70,64
11580,note_on,,0,0,15,,,,,,,,,,,,,,,,15,,67,64
11580,note_on,,1,0,10,,,,,,,,,,,,,,,,8,,62,64
11580,note_on,,1,0,6,,,,,,,,,,,,,,,,2,,62,64
11609,note_on,,89,0,12,,,,,,,,,,,,,,,,11,,67,0
11609,note_on,,89,0,13,,,,,,,,,,,,,,,,12,,62,0
11609,note_on,,89,0,8,,,,,,,,,,,,,,,,6,,67,0
11610,note_on,,1,0,12,,,,,,,,,,,,,,,,11,,70,64
11610,note_on,,1,0,8,,,,,,,,,,,,,,,,6,,70,64
11610,note_on,,1,0,13,,,,,,,,,,,,,,,,12,,67,64
11639,note_on,,29,0,13,,,,,,,,,,,,,,,,12,,67,0
11639,note_on,,29,0,8,,,,,,,,,,,,,,,,6,,70,0
11639,note_on,,59,0,9,,,,,,,,,,,,,,,,7,,67,0
11639,note_on,,59,0,15,,,,,,,,,,,,,,,,15,,70,0
11639,note_on,,0,0,15,,,,,,,,,,,,,,,,15,,67,0
11639,note_on,,29,0,12,,,,,,,,,,,,,,,,11,,70,0
11640,note_on,,1,0,8,,,,,,,,,,,,,,,,6,,69,64
11640,note_on,,1,0,15,,,,,,,,,,,,,,,,15,,66,64
11640,note_on,,0,0,15,,,,,,,,,,,,,,,,15,,69,64
11640,note_on,,1,0,9,,,,,,,,,,,,,,,,7,,66,64
11640,note_on,,1,0,13,,,,,,,,,,,,,,,,12,,66,64
11640,note_on,,1,0,12,,,,,,,,,,,,,,,,11,,69,64
11699,note_on,,59,0,15,,,,,,,,,,,,,,,,15,,74,0
11699,note_on,,0,0,15,,,,,,,,,,,,,,,,15,,62,0
11699,note_on,,0,0,15,,,,,,,,,,,,,,,,15,,66,0
11699,note_on,,119,0,10,,,,,,,,,,,,,,,,8,,62,0
11699,note_on,,119,0,14,,,,,,,,,,,,,,,,13,,62,0
11699,note_on,,59,0,9,,,,,,,,,,,,,,,,7,,66,0
11699,note_on,,59,0,8,,,,,,,,,,,,,,,,6,,69,0
11699,note_on,,59,0,13,,,,,,,,,,,,,,,,12,,66,0
11699,note_on,,0,0,15,,,,,,,,,,,,,,,,15,,69,0
11699,note_on,,119,0,6,,,,,,,,,,,,,,,,2,,62,0
11699,note_on,,59,0,12,,,,,,,,,,,,,,,,11,,69,0
11700,note_on,,1,0,9,,,,,,,,,,,,,,,,7,,66,64
11700,note_on,,1,0,14,,,,,,,,,,,,,,,,13,,60,64
11700,note_on,,1,0,13,,,,,,,,,,,,,,,,12,,69,64
11700,note_on,,0,0,15,,,,,,,,,,,,,,,,15,,69,64
11700,note_on,,0,0,15,,,,,,,,,,,,,,,,15,,62,64
11700,note_on,,0,0,15,,,,,,,,,,,,,,,,15,,66,64
11700,note_on,,1,0,12,,,,,,,,,,,,,,,,11,,66,64
11700,note_on,,1,0,8,,,,,,,,,,,,,,,,6,,69,64
11700,note_on,,1,0,15,,,,,,,,,,,,,,,,15,,60,64
11700,note_on,,1,0,6,,,,,,,,,,,,,,,,2,,60,64
11700,note_on,,1,0,10,,,,,,,,,,,,,,,,8,,60,64
11759,note_on,,59,0,8,,,,,,,,,,,,,,,,6,,69,0
11759,note_on,,59,0,14,,,,,,,,,,,,,,,,13,,60,0
11759,note_on,,59,0,15,,,,,,,,,,,,,,,,15,,60,0
11759,note_on,,0,0,15,,,,,,,,,,,,,,,,15,,66,0
11759,note_on,,59,0,12,,,,,,,,,,,,,,,,11,,66,0
11759,note_on,,59,0,9,,,,,,,,,,,,,,,,7,,66,0
11759,note_on,,59,0,13,,,,,,,,,,,,,,,,12,,69,0
11759,note_on,,59,0,6,,,,,,,,,,,,,,,,2,,60,0
11759,note_on,,0,0,15,,,,,,,,,,,,,,,,15,,62,0
11759,note_on,,0,0,15,,,,,,,,,,,,,,,,15,,69,0
11759,note_on,,59,0,10,,,,,,,,,,,,,,,,8,,60,0
11760,note_on,,1,0,6,,,,,,,,,,,,,,,,2,,58,64
11760,note_on,,1,0,10,,,,,,,,,,,,,,,,8,,58,64
11760,note_on,,1,0,14,,,,,,,,,,,,,,,,13,,58,64
11760,note_on,,1,0,15,,,,,,,,,,,,,,,,15,,58,64
11760,note_on,,1,0,8,,,,,,,,,,,,,,,,6,,67,64
11760,note_on,,0,0,15,,,,,,,,,,,,,,,,15,,67,64
11760,note_on,,0,0,15,,,,,,,,,,,,,,,,15,,62,64
11760,note_on,,1,0,9,,,,,,,,,,,,,,,,7,,62,64
11760,note_on,,1,0,13,,,,,,,,,,,,,,,,12,,62,64
11760,note_on,,1,0,12,,,,,,,,,,,,,,,,11,,67,64
11760,note_on,,0,0,15,,,,,,,,,,,,,,,,15,,70,64
11879,note_on,,119,0,10,,,,,,,,,,,,,,,,8,,58,0
11879,note_on,,119,0,15,,,,,,,,,,,,,,,,15,,58,0
11879,note_on,,119,0,8,,,,,,,,,,,,,,,,6,,67,0
11879,note_on,,119,0,9,,,,,,,,,,,,,,,,7,,62,0
11879,note_on,,119,0,14,,,,,,,,,,,,,,,,13,,58,0
11879,note_on,,0,0,15,,,,,,,,,,,,,,,,15,,70,0
11879,note_on,,0,0,15,,,,,,,,,,,,,,,,15,,67,0
11879,note_on,,0,0,15,,,,,,,,,,,,,,,,15,,62,0
11879,note_on,,119,0,12,,,,,,,,,,,,,,,,11,,67,0
11879,note_on,,119,0,13,,,,,,,,,,,,,,,,12,,62,0
11879,note_on,,119,0,6,,,,,,,,,,,,,,,,2,,58,0
11880,note_on,,1,0,8,,,,,,,,,,,,,,,,6,,69,64
11880,note_on,,1,0,13,,,,,,,,,,,,,,,,12,,62,64
11880,note_on,,0,0,15,,,,,,,,,,,,,,,,15,,62,64
11880,note_on,,1,0,10,,,,,,,,,,,,,,,,8,,54,64
11880,note_on,,0,0,15,,,,,,,,,,,,,,,,15,,69,64
11880,note_on,,0,0,15,,,,,,,,,,,,,,,,15,,74,64
11880,note_on,,1,0,15,,,,,,,,,,,,,,,,15,,54,64
11880,note_on,,1,0,9,,,,,,,,,,,,,,,,7,,62,64
11880,note_on,,1,0,6,,,,,,,,,,,,,,,,2,,54,64
11880,note_on,,1,0,14,,,,,,,,,,,,,,,,13,,54,64
11880,note_on,,1,0,12,,,,,,,,,,,,,,,,11,,69,64
11939,note_on,,0,0,15,,,,,,,,,,,,,,,,15,,74,0
11939,note_on,,59,0,14,,,,,,,,,,,,,,,,13,,54,0
11939,note_on,,59,0,13,,,,,,,,,,,,,,,,12,,62,0
11939,note_on,,59,0,8,,,,,,,,,,,,,,,,6,,69,0
11939,note_on,,0,0,15,,,,,,,,,,,,,,,,15,,69,0
11939,note_on,,59,0,9,,,,,,,,,,,,,,,,7,,62,0
11939,note_on,,59,0,12,,,,,,,,,,,,,,,,11,,69,0
11939,note_on,,59,0,15,,,,,,,,,,,,,,,,15,,54,0
11939,note_on,,59,0,10,,,,,,,,,,,,,,,,8,,54,0
11939,note_on,,0,0,15,,,,,,,,,,,,,,,,15,,62,0
11939,note_on,,59,0,6,,,,,,,,,,,,,,,,2,,54,0
11940,note_on,,0,0,15,,,,,,,,,,,,,,,,15,,70,64
11940,note_on,,1,0,8,,,,,,,,,,,,,,,,6,,70,64
11940,note_on,,1,0,15,,,,,,,,,,,,,,,,15,,55,64
11940,note_on,,1,0,14,,,,,,,,,,,,,,,,13,,55,64
11940,note_on,,0,0,15,,,,,,,,,,,,,,,,15,,62,64
11940,note_on,,1,0,9,,,,,,,,,,,,,,,,7,,67,64
11940,note_on,,0,0,15,,,,,,,,,,,,,,,,15,,67,64
11940,note_on,,1,0,12,,,,,,,,,,,,,,,,11,,70,64
11940,note_on,,1,0,6,,,,,,,,,,,,,,,,2,,55,64
11940,note_on,,1,0,10,,,,,,,,,,,,,,,,8,,55,64
11940,note_on,,1,0,13,,,,,,,,,,,,,,,,12,,67,64
11999,note_on,,59,0,6,,,,,,,,,,,,,,,,2,,55,0
11999,note_on,,59,0,10,,,,,,,,,,,,,,,,8,,55,0
11999,note_on,,0,0,15,,,,,,,,,,,,,,,,15,,62,0
11999,note_on,,0,0,15,,,,,,,,,,,,,,,,15,,67,0
11999,note_on,,59,0,8,,,,,,,,,,,,,,,,6,,70,0
11999,note_on,,59,0,9,,,,,,,,,,,,,,,,7,,67,0
11999,note_on,,59,0,12,,,,,,,,,,,,,,,,11,,70,0
11999,note_on,,0,0,15,,,,,,,,,,,,,,,,15,,70,0
11999,note_on,,59,0,13,,,,,,,,,,,,,,,,12,,67,0
11999,note_on,,59,0,14,,,,,,,,,,,,,,,,13,,55,0
11999,note_on,,59,0,15,,,,,,,,,,,,,,,,15,,55,0
12000,note_on,,1,0,9,,,,,,,,,,,,,,,,7,,66,64
12000,note_on,,0,0,15,,,,,,,,,,,,,,,,15,,66,64
12000,note_on,,1,0,10,,,,,,,,,,,,,,,,8,,50,64
12000,note_on,,1,0,15,,,,,,,,,,,,,,,,15,,50,64
12000,note_on,,1,0,12,,,,,,,,,,,,,,,,11,,69,64
12000,note_on,,0,0,15,,,,,,,,,,,,,,,,15,,62,64
12000,note_on,,0,0,15,,,,,,,,,,,,,,,,15,,69,64
12000,note_on,,1,0,6,,,,,,,,,,,,,,,,2,,50,64
12000,note_on,,1,0,8,,,,,,,,,,,,,,,,6,,69,64
12000,note_on,,1,0,14,,,,,,,,,,,,,,,,13,,50,64
12000,note_on,,1,0,13,,,,,,,,,,,,,,,,12,,66,64
12179,note_on,,179,0,13,,,,,,,,,,,,,,,,12,,66,0
12179,note_on,,1859,0,11,,,,,,,,,,,,,,,,10,,74,0
12179,note_on,,899,0,5,,,,,,,,,,,,,,,,0,,74,0
12179,note_on,,899,0,7,,,,,,,,,,,,,,,,5,,74,0
12179,note_on,,179,0,8,,,,,,,,,,,,,,,,6,,69,0
12179,note_on,,179,0,9,,,,,,,,,,,,,,,,7,,66,0
12179,note_on,,179,0,12,,,,,,,,,,,,,,,,11,,69,0
12180,note_on,,1,0,5,,,,,,,,,,,,,,,,0,,72,64
12180,note_on,,1,0,7,,,,,,,,,,,,,,,,5,,72,64
12180,note_on,,1,0,12,,,,,,,,,,,,,,,,11,,69,64
12180,note_on,,1,0,13,,,,,,,,,,,,,,,,12,,66,64
12180,note_on,,1,0,8,,,,,,,,,,,,,,,,6,,69,64
12180,note_on,,1,0,11,,,,,,,,,,,,,,,,10,,72,64
12180,note_on,,1,0,9,,,,,,,,,,,,,,,,7,,66,64
12239,note_on,,59,0,12,,,,,,,,,,,,,,,,11,,69,0
12239,note_on,,59,0,7,,,,,,,,,,,,,,,,5,,72,0
12239,note_on,,59,0,13,,,,,,,,,,,,,,,,12,,66,0
12239,note_on,,0,0,15,,,,,,,,,,,,,,,,15,,62,0
12239,note_on,,0,0,15,,,,,,,,,,,,,,,,15,,66,0
12239,note_on,,239,0,15,,,,,,,,,,,,,,,,15,,69,0
12239,note_on,,59,0,8,,,,,,,,,,,,,,,,6,,69,0
12239,note_on,,59,0,5,,,,,,,,,,,,,,,,0,,72,0
12239,note_on,,59,0,11,,,,,,,,,,,,,,,,10,,72,0
12239,note_on,,59,0,9,,,,,,,,,,,,,,,,7,,66,0
12240,note_on,,1,0,11,,,,,,,,,,,,,,,,10,,70,64
12240,note_on,,1,0,12,,,,,,,,,,,,,,,,11,,67,64
12240,note_on,,1,0,5,,,,,,,,,,,,,,,,0,,70,64
12240,note_on,,1,0,7,,,,,,,,,,,,,,,,5,,70,64
12240,note_on,,1,0,13,,,,,,,,,,,,,,,,12,,62,64
12240,note_on,,1,0,15,,,,,,,,,,,,,,,,15,,67,64
12240,note_on,,0,0,15,,,,,,,,,,,,,,,,15,,62,64
12240,note_on,,0,0,15,,,,,,,,,,,,,,,,15,,58,64
12240,note_on,,1,0,9,,,,,,,,,,,,,,,,7,,62,64
12240,note_on,,1,0,8,,,,,,,,,,,,,,,,6,,67,64
12254,note_on,,14,0,11,,,,,,,,,,,,,,,,10,,70,0
12254,note_on,,14,0,12,,,,,,,,,,,,,,,,11,,67,0
12255,note_on,,1,0,12,,,,,,,,,,,,,,,,11,,69,64
12255,note_on,,1,0,11,,,,,,,,,,,,,,,,10,,72,64
12269,note_on,,14,0,11,,,,,,,,,,,,,,,,10,,72,0
12269,note_on,,14,0,12,,,,,,,,,,,,,,,,11,,69,0
12270,note_on,,1,0,11,,,,,,,,,,,,,,,,10,,70,64
12270,note_on,,1,0,12,,,,,,,,,,,,,,,,11,,67,64
12284,note_on,,14,0,12,,,,,,,,,,,,,,,,11,,67,0
12284,note_on,,14,0,11,,,,,,,,,,,,,,,,10,,70,0
12285,note_on,,1,0,11,,,,,,,,,,,,,,,,10,,72,64
12285,note_on,,1,0,12,,,,,,,,,,,,,,,,11,,69,64
12299,note_on,,14,0,12,,,,,,,,,,,,,,,,11,,69,0
12299,note_on,,14,0,11,,,,,,,,,,,,,,,,10,,72,0
12300,note_on,,1,0,11,,,,,,,,,,,,,,,,10,,70,64
12300,note_on,,1,0,12,,,,,,,,,,,,,,,,11,,67,64
12314,note_on,,14,0,11,,,,,,,,,,,,,,,,10,,70,0
12314,note_on,,14,0,12,,,,,,,,,,,,,,,,11,,67,0
12315,note_on,,1,0,12,,,,,,,,,,,,,,,,11,,69,64
12315,note_on,,1,0,11,,,,,,,,,,,,,,,,10,,72,64
12329,note_on,,14,0,11,,,,,,,,,,,,,,,,10,,72,0
12329,note_on,,14,0,12,,,,,,,,,,,,,,,,11,,69,0
12330,note_on,,1,0,12,,,,,,,,,,,,,,,,11,,66,64
12330,note_on,,1,0,11,,,,,,,,,,,,,,,,10,,69,64
12344,note_on,,14,0,12,,,,,,,,,,,,,,,,11,,66,0
12344,note_on,,14,0,11,,,,,,,,,,,,,,,,10,,69,0
12345,note_on,,1,0,12,,,,,,,,,,,,,,,,11,,67,64
12345,note_on,,1,0,11,,,,,,,,,,,,,,,,10,,70,64
12359,note_on,,119,0,5,,,,,,,,,,,,,,,,0,,70,0
12359,note_on,,119,0,8,,,,,,,,,,,,,,,,6,,67,0
12359,note_on,,119,0,9,,,,,,,,,,,,,,,,7,,62,0
12359,note_on,,119,0,7,,,,,,,,,,,,,,,,5,,70,0
12359,note_on,,119,0,13,,,,,,,,,,,,,,,,12,,62,0
12359,note_on,,0,0,15,,,,,,,,,,,,,,,,15,,62,0
12359,note_on,,119,0,15,,,,,,,,,,,,,,,,15,,67,0
12359,note_on,,14,0,11,,,,,,,,,,,,,,,,10,,70,0
12359,note_on,,14,0,12,,,,,,,,,,,,,,,,11,,67,0
12359,note_on,,0,0,15,,,,,,,,,,,,,,,,15,,58,0
12360,note_on,,1,0,13,,,,,,,,,,,,,,,,12,,62,64
12360,note_on,,1,0,5,,,,,,,,,,,,,,,,0,,69,64
12360,note_on,,1,0,9,,,,,,,,,,,,,,,,7,,62,64
12360,note_on,,1,0,11,,,,,,,,,,,,,,,,10,,69,64
12360,note_on,,1,0,8,,,,,,,,,,,,,,,,6,,66,64
12360,note_on,,1,0,7,,,,,,,,,,,,,,,,5,,69,64
12360,note_on,,1,0,12,,,,,,,,,,,,,,,,11,,66,64
12360,note_on,,1,0,15,,,,,,,,,,,,,,,,15,,66,64
12360,note_on,,0,0,15,,,,,,,,,,,,,,,,15,,62,64
12360,note_on,,0,0,15,,,,,,,,,,,,,,,,15,,57,64
12419,note_on,,59,0,5,,,,,,,,,,,,,,,,0,,69,0
12419,note_on,,59,0,7,,,,,,,,,,,,,,,,5,,69,0
12419,note_on,,59,0,13,,,,,,,,,,,,,,,,12,,62,0
12419,note_on,,59,0,8,,,,,,,,,,,,,,,,6,,66,0
12419,note_on,,59,0,11,,,,,,,,,,,,,,,,10,,69,0
12419,note_on,,59,0,12,,,,,,,,,,,,,,,,11,,66,0
12419,note_on,,59,0,9,,,,,,,,,,,,,,,,7,,62,0
12419,note_on,,59,0,15,,,,,,,,,,,,,,,,15,,66,0
12419,note_on,,0,0,15,,,,,,,,,,,,,,,,15,,62,0
12419,note_on,,0,0,15,,,,,,,,,,,,,,,,15,,57,0
12420,note_on,,1,0,13,,,,,,,,,,,,,,,,12,,62,64
12420,note_on,,1,0,9,,,,,,,,,,,,,,,,7,,62,64
12420,note_on,,1,0,8,,,,,,,,,,,,,,,,6,,67,64
12420,note_on,,1,0,7,,,,,,,,,,,,,,,,5,,70,64
12420,note_on,,1,0,11,,,,,,,,,,,,,,,,10,,70,64
12420,note_on,,0,0,15,,,,,,,,,,,,,,,,15,,58,64
12420,note_on,,0,0,15,,,,,,,,,,,,,,,,15,,62,64
12420,note_on,,1,0,12,,,,,,,,,,,,,,,,11,,67,64
12420,note_on,,1,0,5,,,,,,,,,,,,,,,,0,,70,64
12420,note_on,,0,0,15,,,,,,,,,,,,,,,,15,,55,64
12420,note_on,,1,0,15,,,,,,,,,,,,,,,,15,,67,64
12479,note_on,,59,0,7,,,,,,,,,,,,,,,,5,,70,0
12479,note_on,,59,0,5,,,,,,,,,,,,,,,,0,,70,0
12479,note_on,,59,0,13,,,,,,,,,,,,,,,,12,,62,0
12479,note_on,,59,0,8,,,,,,,,,,,,,,,,6,,67,0
12479,note_on,,59,0,15,,,,,,,,,,,,,,,,15,,67,0
12479,note_on,,59,0,9,,,,,,,,,,,,,,,,7,,62,0
12479,note_on,,0,0,15,,,,,,,,,,,,,,,,15,,62,0
12479,note_on,,0,0,15,,,,,,,,,,,,,,,,15,,58,0
12479,note_on,,0,0,15,,,,,,,,,,,,,,,,15,,55,0
12479,note_on,,59,0,12,,,,,,,,,,,,,,,,11,,67,0
12479,note_on,,59,0,11,,,,,,,,,,,,,,,,10,,70,0
12480,note_on,,1,0,12,,,,,,,,,,,,,,,,11,,66,64
12480,note_on,,1,0,11,,,,,,,,,,,,,,,,10,,69,64
12480,note_on,,1,0,5,,,,,,,,,,,,,,,,0,,69,64
12480,note_on,,1,0,7,,,,,,,,,,,,,,,,5,,69,64
12480,note_on,,1,0,15,,,,,,,,,,,,,,,,15,,69,64
12480,note_on,,1,0,8,,,,,,,,,,,,,,,,6,,66,64
12480,note_on,,0,0,15,,,,,,,,,,,,,,,,15,,54,64
12480,note_on,,1,0,9,,,,,,,,,,,,,,,,7,,57,64
12480,note_on,,1,0,13,,,,,,,,,,,,,,,,12,,62,64
12480,note_on,,0,0,15,,,,,,,,,,,,,,,,15,,62,64
12539,note_on,,59,0,11,,,,,,,,,,,,,,,,10,,69,0
12539,note_on,,59,0,7,,,,,,,,,,,,,,,,5,,69,0
12539,note_on,,59,0,5,,,,,,,,,,,,,,,,0,,69,0
12540,note_on,,1,0,5,,,,,,,,,,,,,,,,0,,62,64
12540,note_on,,1,0,11,,,,,,,,,,,,,,,,10,,62,64
12540,note_on,,1,0,7,,,,,,,,,,,,,,,,5,,62,64
12599,note_on,,59,0,5,,,,,,,,,,,,,,,,0,,62,0
12599,note_on,,59,0,7,,,,,,,,,,,,,,,,5,,62,0
12599,note_on,,599,0,14,,,,,,,,,,,,,,,,13,,50,0
12599,note_on,,119,0,13,,,,,,,,,,,,,,,,12,,62,0
12599,note_on,,599,0,6,,,,,,,,,,,,,,,,2,,50,0
12599,note_on,,119,0,8,,,,,,,,,,,,,,,,6,,66,0
12599,note_on,,59,0,11,,,,,,,,,,,,,,,,10,,62,0
12599,note_on,,599,0,10,,,,,,,,,,,,,,,,8,,50,0
12599,note_on,,119,0,12,,,,,,,,,,,,,,,,11,,66,0
12599,note_on,,119,0,15,,,,,,,,,,,,,,,,15,,50,0
12599,note_on,,0,0,15,,,,,,,,,,,,,,,,15,,69,0
12599,note_on,,0,0,15,,,,,,,,,,,,,,,,15,,62,0
12599,note_on,,0,0,15,,,,,,,,,,,,,,,,15,,54,0
12599,note_on,,119,0,9,,,,,,,,,,,,,,,,7,,57,0
12600,note_on,,1,0,11,,,,,,,,,,,,,,,,10,,74,64
12600,note_on,,1,0,5,,,,,,,,,,,,,,,,0,,74,64
12600,note_on,,1,0,7,,,,,,,,,,,,,,,,5,,74,64
12660,note_on,,61,0,6,,,,,,,,,,,,,,,,2,,46,64
12660,note_on,,0,0,15,,,,,,,,,,,,,,,,15,,55,64
12660,note_on,,0,0,15,,,,,,,,,,,,,,,,15,,62,64
12660,note_on,,0,0,15,,,,,,,,,,,,,,,,15,,67,64
12660,note_on,,61,0,13,,,,,,,,,,,,,,,,12,,55,64
12660,note_on,,61,0,8,,,,,,,,,,,,,,,,6,,62,64
12660,note_on,,61,0,14,,,,,,,,,,,,,,,,13,,46,64
12660,note_on,,61,0,9,,,,,,,,,,,,,,,,7,,58,64
12660,note_on,,61,0,10,,,,,,,,,,,,,,,,8,,46,64
12660,note_on,,61,0,12,,,,,,,,,,,,,,,,11,,62,64
12660,note_on,,61,0,15,,,,,,,,,,,,,,,,15,,46,64
12719,note_on,,59,0,15,,,,,,,,,,,,,,,,15,,46,0
12719,note_on,,59,0,9,,,,,,,,,,,,,,,,7,,58,0
12719,note_on,,0,0,15,,,,,,,,,,,,,,,,15,,62,0
12719,note_on,,59,0,6,,,,,,,,,,,,,,,,2,,46,0
12719,note_on,,0,0,15,,,,,,,,,,,,,,,,15,,55,0
12719,note_on,,0,0,15,,,,,,,,,,,,,,,,15,,67,0
12719,note_on,,59,0,8,,,,,,,,,,,,,,,,6,,62,0
12719,note_on,,59,0,14,,,,,,,,,,,,,,,,13,,46,0
12719,note_on,,59,0,10,,,,,,,,,,,,,,,,8,,46,0
12719,note_on,,59,0,13,,,,,,,,,,,,,,,,12,,55,0
12719,note_on,,59,0,12,,,,,,,,,,,,,,,,11,,62,0
12720,note_on,,0,0,15,,,,,,,,,,,,,,,,15,,64,64
12720,note_on,,0,0,15,,,,,,,,,,,,,,,,15,,60,64
12720,note_on,,0,0,15,,,,,,,,,,,,,,,,15,,55,64
12720,note_on,,1,0,14,,,,,,,,,,,,,,,,13,,48,64
12720,note_on,,1,0,13,,,,,,,,,,,,,,,,12,,55,64
12720,note_on,,1,0,8,,,,,,,,,,,,,,,,6,,64,64
12720,note_on,,1,0,12,,,,,,,,,,,,,,,,11,,64,64
12720,note_on,,1,0,15,,,,,,,,,,,,,,,,15,,48,64
12720,note_on,,1,0,6,,,,,,,,,,,,,,,,2,,48,64
12720,note_on,,1,0,10,,,,,,,,,,,,,,,,8,,48,64
12720,note_on,,0,0,15,,,,,,,,,,,,,,,,15,,67,64
12720,note_on,,1,0,9,,,,,,,,,,,,,,,,7,,55,64
12839,note_on,,119,0,9,,,,,,,,,,,,,,,,7,,55,0
12839,note_on,,119,0,8,,,,,,,,,,,,,,,,6,,64,0
12839,note_on,,119,0,15,,,,,,,,,,,,,,,,15,,48,0
12839,note_on,,239,0,11,,,,,,,,,,,,,,,,10,,74,0
12839,note_on,,0,0,15,,,,,,,,,,,,,,,,15,,67,0
12839,note_on,,0,0,15,,,,,,,,,,,,,,,,15,,64,0
12839,note_on,,0,0,15,,,,,,,,,,,,,,,,15,,60,0
12839,note_on,,0,0,15,,,,,,,,,,,,,,,,15,,55,0
12839,note_on,,119,0,6,,,,,,,,,,,,,,,,2,,48,0
12839,note_on,,239,0,7,,,,,,,,,,,,,,,,5,,74,0
12839,note_on,,119,0,10,,,,,,,,,,,,,,,,8,,48,0
12839,note_on,,239,0,5,,,,,,,,,,,,,,,,0,,74,0
12839,note_on,,119,0,14,,,,,,,,,,,,,,,,13,,48,0
12840,note_on,,1,0,8,,,,,,,,,,,,,,,,6,,64,64
12840,note_on,,1,0,7,,,,,,,,,,,,,,,,5,,72,64
12840,note_on,,1,0,11,,,,,,,,,,,,,,,,10,,72,64
12840,note_on,,0,0,15,,,,,,,,,,,,,,,,15,,64,64
12840,note_on,,1,0,9,,,,,,,,,,,,,,,,7,,55,64
12840,note_on,,0,0,15,,,,,,,,,,,,,,,,15,,67,64
12840,note_on,,1,0,5,,,,,,,,,,,,,,,,0,,72,64
12840,note_on,,1,0,6,,,,,,,,,,,,,,,,2,,48,64
12840,note_on,,1,0,15,,,,,,,,,,,,,,,,15,,48,64
12840,note_on,,1,0,10,,,,,,,,,,,,,,,,8,,48,64
12840,note_on,,0,0,15,,,,,,,,,,,,,,,,15,,72,64
12840,note_on,,0,0,15,,,,,,,,,,,,,,,,15,,52,64
12840,note_on,,1,0,14,,,,,,,,,,,,,,,,13,,48,64
12899,note_on,,59,0,14,,,,,,,,,,,,,,,,13,,48,0
12899,note_on,,179,0,13,,,,,,,,,,,,,,,,12,,55,0
12899,note_on,,59,0,5,,,,,,,,,,,,,,,,0,,72,0
12899,note_on,,59,0,10,,,,,,,,,,,,,,,,8,,48,0
12899,note_on,,59,0,6,,,,,,,,,,,,,,,,2,,48,0
12899,note_on,,59,0,9,,,,,,,,,,,,,,,,7,,55,0
12899,note_on,,59,0,7,,,,,,,,,,,,,,,,5,,72,0
12899,note_on,,0,0,15,,,,,,,,,,,,,,,,15,,52,0
12899,note_on,,179,0,12,,,,,,,,,,,,,,,,11,,64,0
12899,note_on,,0,0,15,,,,,,,,,,,,,,,,15,,64,0
12899,note_on,,59,0,15,,,,,,,,,,,,,,,,15,,48,0
12899,note_on,,0,0,15,,,,,,,,,,,,,,,,15,,72,0
12899,note_on,,0,0,15,,,,,,,,,,,,,,,,15,,67,0
12899,note_on,,59,0,8,,,,,,,,,,,,,,,,6,,64,0
12900,note_on,,0,0,15,,,,,,,,,,,,,,,,15,,67,64
12900,note_on,,1,0,10,,,,,,,,,,,,,,,,8,,48,64
12900,note_on,,1,0,15,,,,,,,,,,,,,,,,15,,48,64
12900,note_on,,1,0,13,,,,,,,,,,,,,,,,12,,60,64
12900,note_on,,1,0,5,,,,,,,,,,,,,,,,0,,72,64
12900,note_on,,1,0,14,,,,,,,,,,,,,,,,13,,48,64
12900,note_on,,1,0,9,,,,,,,,,,,,,,,,7,,60,64
12900,note_on,,1,0,8,,,,,,,,,,,,,,,,6,,64,64
12900,note_on,,0,0,15,,,,,,,,,,,,,,,,15,,72,64
12900,note_on,,1,0,12,,,,,,,,,,,,,,,,11,,64,64
12900,note_on,,0,0,15,,,,,,,,,,,,,,,,15,,52,64
12900,note_on,,0,0,15,,,,,,,,,,,,,,,,15,,64,64
12900,note_on,,1,0,7,,,,,,,,,,,,,,,,5,,72,64
12900,note_on,,1,0,6,,,,,,,,,,,,,,,,2,,48,64
12959,note_on,,59,0,5,,,,,,,,,,,,,,,,0,,72,0
12959,note_on,,59,0,15,,,,,,,,,,,,,,,,15,,48,0
12959,note_on,,59,0,7,,,,,,,,,,,,,,,,5,,72,0
12959,note_on,,59,0,13,,,,,,,,,,,,,,,,12,,60,0
12959,note_on,,59,0,6,,,,,,,,,,,,,,,,2,,48,0
12959,note_on,,0,0,15,,,,,,,,,,,,,,,,15,,52,0
12959,note_on,,59,0,12,,,,,,,,,,,,,,,,11,,64,0
12959,note_on,,0,0,15,,,,,,,,,,,,,,,,15,,72,0
12959,note_on,,59,0,9,,,,,,,,,,,,,,,,7,,60,0
12959,note_on,,59,0,8,,,,,,,,,,,,,,,,6,,64,0
12959,note_on,,0,0,15,,,,,,,,,,,,,,,,15,,67,0
12959,note_on,,0,0,15,,,,,,,,,,,,,,,,15,,64,0
12959,note_on,,59,0,10,,,,,,,,,,,,,,,,8,,48,0
12959,note_on,,59,0,14,,,,,,,,,,,,,,,,13,,48,0
12960,note_on,,1,0,14,,,,,,,,,,,,,,,,13,,50,64
12960,note_on,,0,0,15,,,,,,,,,,,,,,,,15,,57,64
12960,note_on,,0,0,15,,,,,,,,,,,,,,,,15,,62,64
12960,note_on,,1,0,5,,,,,,,,,,,,,,,,0,,72,64
12960,note_on,,1,0,9,,,,,,,,,,,,,,,,7,,57,64
12960,note_on,,0,0,15,,,,,,,,,,,,,,,,15,,66,64
12960,note_on,,1,0,13,,,,,,,,,,,,,,,,12,,57,64
12960,note_on,,0,0,15,,,,,,,,,,,,,,,,15,,72,64
12960,note_on,,1,0,15,,,,,,,,,,,,,,,,15,,50,64
12960,note_on,,1,0,6,,,,,,,,,,,,,,,,2,,50,64
12960,note_on,,1,0,8,,,,,,,,,,,,,,,,6,,66,64
12960,note_on,,1,0,10,,,,,,,,,,,,,,,,8,,50,64
12960,note_on,,1,0,12,,,,,,,,,,,,,,,,11,,66,64
12960,note_on,,1,0,7,,,,,,,,,,,,,,,,5,,72,64
13079,note_on,,119,0,7,,,,,,,,,,,,,,,,5,,72,0
13079,note_on,,119,0,5,,,,,,,,,,,,,,,,0,,72,0
13079,note_on,,0,0,15,,,,,,,,,,,,,,,,15,,62,0
13079,note_on,,119,0,10,,,,,,,,,,,,,,,,8,,50,0
13079,note_on,,0,0,15,,,,,,,,,,,,,,,,15,,66,0
13079,note_on,,119,0,12,,,,,,,,,,,,,,,,11,,66,0
13079,note_on,,239,0,11,,,,,,,,,,,,,,,,10,,72,0
13079,note_on,,119,0,6,,,,,,,,,,,,,,,,2,,50,0
13079,note_on,,0,0,15,,,,,,,,,,,,,,,,15,,72,0
13079,note_on,,119,0,9,,,,,,,,,,,,,,,,7,,57,0
13079,note_on,,119,0,8,,,,,,,,,,,,,,,,6,,66,0
13079,note_on,,119,0,15,,,,,,,,,,,,,,,,15,,50,0
13079,note_on,,119,0,13,,,,,,,,,,,,,,,,12,,57,0
13079,note_on,,119,0,14,,,,,,,,,,,,,,,,13,,50,0
13079,note_on,,0,0,15,,,,,,,,,,,,,,,,15,,57,0
13080,note_on,,0,0,15,,,,,,,,,,,,,,,,15,,62,64
13080,note_on,,1,0,14,,,,,,,,,,,,,,,,13,,43,64
13080,note_on,,1,0,7,,,,,,,,,,,,,,,,5,,70,64
13080,note_on,,1,0,10,,,,,,,,,,,,,,,,8,,55,64
13080,note_on,,1,0,11,,,,,,,,,,,,,,,,10,,70,64
13080,note_on,,1,0,12,,,,,,,,,,,,,,,,11,,62,64
13080,note_on,,1,0,13,,,,,,,,,,,,,,,,12,,58,64
13080,note_on,,1,0,5,,,,,,,,,,,,,,,,0,,70,64
13080,note_on,,1,0,8,,,,,,,,,,,,,,,,6,,62,64
13080,note_on,,0,0,15,,,,,,,,,,,,,,,,15,,55,64
13080,note_on,,0,0,15,,,,,,,,,,,,,,,,15,,67,64
13080,note_on,,0,0,15,,,,,,,,,,,,,,,,15,,70,64
13080,note_on,,1,0,15,,,,,,,,,,,,,,,,15,,43,64
13080,note_on,,1,0,9,,,,,,,,,,,,,,,,7,,58,64
13080,note_on,,1,0,6,,,,,,,,,,,,,,,,2,,43,64
13139,note_on,,59,0,12,,,,,,,,,,,,,,,,11,,62,0
13139,note_on,,59,0,9,,,,,,,,,,,,,,,,7,,58,0
13139,note_on,,59,0,8,,,,,,,,,,,,,,,,6,,62,0
13140,note_on,,1,0,9,,,,,,,,,,,,,,,,7,,60,64
13140,note_on,,1,0,12,,,,,,,,,,,,,,,,11,,67,64
13140,note_on,,1,0,8,,,,,,,,,,,,,,,,6,,67,64
13169,note_on,,89,0,13,,,,,,,,,,,,,,,,12,,58,0
13170,note_on,,1,0,13,,,,,,,,,,,,,,,,12,,60,64
13199,note_on,,119,0,14,,,,,,,,,,,,,,,,13,,43,0
13199,note_on,,59,0,12,,,,,,,,,,,,,,,,11,,67,0
13199,note_on,,119,0,11,,,,,,,,,,,,,,,,10,,70,0
13199,note_on,,59,0,8,,,,,,,,,,,,,,,,6,,67,0
13199,note_on,,29,0,13,,,,,,,,,,,,,,,,12,,60,0
13199,note_on,,119,0,10,,,,,,,,,,,,,,,,8,,55,0
13199,note_on,,0,0,15,,,,,,,,,,,,,,,,15,,55,0
13199,note_on,,119,0,7,,,,,,,,,,,,,,,,5,,70,0
13199,note_on,,59,0,9,,,,,,,,,,,,,,,,7,,60,0
13199,note_on,,119,0,15,,,,,,,,,,,,,,,,15,,43,0
13199,note_on,,0,0,15,,,,,,,,,,,,,,,,15,,70,0
13199,note_on,,0,0,15,,,,,,,,,,,,,,,,15,,67,0
13199,note_on,,0,0,15,,,,,,,,,,,,,,,,15,,62,0
13199,note_on,,119,0,6,,,,,,,,,,,,,,,,2,,43,0
13199,note_on,,119,0,5,,,,,,,,,,,,,,,,0,,70,0
13200,note_on,,0,0,15,,,,,,,,,,,,,,,,15,,62,64
13200,note_on,,0,0,15,,,,,,,,,,,,,,,,15,,67,64
13200,note_on,,0,0,15,,,,,,,,,,,,,,,,15,,69,64
13200,note_on,,1,0,15,,,,,,,,,,,,,,,,15,,50,64
13200,note_on,,1,0,7,,,,,,,,,,,,,,,,5,,69,64
13200,note_on,,1,0,12,,,,,,,,,,,,,,,,11,,67,64
13200,note_on,,1,0,13,,,,,,,,,,,,,,,,12,,62,64
13200,note_on,,1,0,6,,,,,,,,,,,,,,,,2,,50,64
13200,note_on,,1,0,8,,,,,,,,,,,,,,,,6,,67,64
13200,note_on,,1,0,9,,,,,,,,,,,,,,,,7,,62,64
13200,note_on,,1,0,14,,,,,,,,,,,,,,,,13,,50,64
13200,note_on,,1,0,10,,,,,,,,,,,,,,,,8,,50,64
13200,note_on,,1,0,5,,,,,,,,,,,,,,,,0,,69,64
13200,note_on,,1,0,11,,,,,,,,,,,,,,,,10,,69,64
13214,note_on,,14,0,11,,,,,,,,,,,,,,,,10,,69,0
13215,note_on,,1,0,11,,,,,,,,,,,,,,,,10,,70,64
13229,note_on,,14,0,11,,,,,,,,,,,,,,,,10,,70,0
13230,note_on,,1,0,11,,,,,,,,,,,,,,,,10,,69,64
13244,note_on,,14,0,11,,,,,,,,,,,,,,,,10,,69,0
13245,note_on,,1,0,11,,,,,,,,,,,,,,,,10,,70,64
13259,note_on,,14,0,11,,,,,,,,,,,,,,,,10,,70,0
13260,note_on,,1,0,11,,,,,,,,,,,,,,,,10,,69,64
13274,note_on,,14,0,11,,,,,,,,,,,,,,,,10,,69,0
13275,note_on,,1,0,11,,,,,,,,,,,,,,,,10,,70,64
13289,note_on,,14,0,11,,,,,,,,,,,,,,,,10,,70,0
13290,note_on,,1,0,11,,,,,,,,,,,,,,,,10,,69,64
13304,note_on,,14,0,11,,,,,,,,,,,,,,,,10,,69,0
13305,note_on,,1,0,11,,,,,,,,,,,,,,,,10,,70,64
13319,note_on,,119,0,8,,,,,,,,,,,,,,,,6,,67,0
13319,note_on,,119,0,12,,,,,,,,,,,,,,,,11,,67,0
13319,note_on,,119,0,14,,,,,,,,,,,,,,,,13,,50,0
13319,note_on,,0,0,15,,,,,,,,,,,,,,,,15,,62,0
13319,note_on,,119,0,15,,,,,,,,,,,,,,,,15,,67,0
13319,note_on,,119,0,6,,,,,,,,,,,,,,,,2,,50,0
13319,note_on,,119,0,13,,,,,,,,,,,,,,,,12,,62,0
13319,note_on,,14,0,11,,,,,,,,,,,,,,,,10,,70,0
13319,note_on,,119,0,7,,,,,,,,,,,,,,,,5,,69,0
13319,note_on,,119,0,5,,,,,,,,,,,,,,,,0,,69,0
13319,note_on,,119,0,10,,,,,,,,,,,,,,,,8,,50,0
13319,note_on,,119,0,9,,,,,,,,,,,,,,,,7,,62,0
13320,note_on,,1,0,9,,,,,,,,,,,,,,,,7,,62,64
13320,note_on,,1,0,11,,,,,,,,,,,,,,,,10,,69,64
13320,note_on,,1,0,12,,,,,,,,,,,,,,,,11,,66,64
13320,note_on,,1,0,10,,,,,,,,,,,,,,,,8,,50,64
13320,note_on,,1,0,14,,,,,,,,,,,,,,,,13,,38,64
13320,note_on,,0,0,15,,,,,,,,,,,,,,,,15,,62,64
13320,note_on,,0,0,15,,,,,,,,,,,,,,,,15,,66,64
13320,note_on,,1,0,7,,,,,,,,,,,,,,,,5,,69,64
13320,note_on,,1,0,15,,,,,,,,,,,,,,,,15,,57,64
13320,note_on,,1,0,6,,,,,,,,,,,,,,,,2,,38,64
13320,note_on,,1,0,5,,,,,,,,,,,,,,,,0,,69,64
13320,note_on,,1,0,8,,,,,,,,,,,,,,,,6,,66,64
13320,note_on,,0,0,15,,,,,,,,,,,,,,,,15,,38,64
13320,note_on,,1,0,13,,,,,,,,,,,,,,,,12,,62,64
13334,note_on,,14,0,11,,,,,,,,,,,,,,,,10,,69,0
13335,note_on,,1,0,11,,,,,,,,,,,,,,,,10,,70,64
13349,note_on,,14,0,11,,,,,,,,,,,,,,,,10,,70,0
13350,note_on,,1,0,11,,,,,,,,,,,,,,,,10,,67,64
13364,note_on,,14,0,11,,,,,,,,,,,,,,,,10,,67,0
13365,note_on,,1,0,11,,,,,,,,,,,,,,,,10,,69,64
13379,note_on,,14,0,11,,,,,,,,,,,,,,,,10,,69,0
13380,note_on,,1,0,11,,,,,,,,,,,,,,,,10,,67,64
13409,note_on,,89,0,8,,,,,,,,,,,,,,,,6,,66,0
13409,note_on,,89,0,5,,,,,,,,,,,,,,,,0,,69,0
13409,note_on,,89,0,9,,,,,,,,,,,,,,,,7,,62,0
13409,note_on,,89,0,12,,,,,,,,,,,,,,,,11,,66,0
13409,note_on,,89,0,7,,,,,,,,,,,,,,,,5,,69,0
13409,note_on,,89,0,10,,,,,,,,,,,,,,,,8,,50,0
13410,note_on,,1,0,7,,,,,,,,,,,,,,,,5,,67,64
13410,note_on,,1,0,10,,,,,,,,,,,,,,,,8,,50,64
13410,note_on,,1,0,9,,,,,,,,,,,,,,,,7,,62,64
13410,note_on,,1,0,8,,,,,,,,,,,,,,,,6,,67,64
13410,note_on,,1,0,5,,,,,,,,,,,,,,,,0,,67,64
13410,note_on,,1,0,12,,,,,,,,,,,,,,,,11,,60,64
13439,note_on,,29,0,5,,,,,,,,,,,,,,,,0,,67,0
13439,note_on,,29,0,10,,,,,,,,,,,,,,,,8,,50,0
13439,note_on,,59,0,11,,,,,,,,,,,,,,,,10,,67,0
13439,note_on,,29,0,12,,,,,,,,,,,,,,,,11,,60,0
13439,note_on,,0,0,15,,,,,,,,,,,,,,,,15,,62,0
13439,note_on,,119,0,14,,,,,,,,,,,,,,,,13,,38,0
13439,note_on,,0,0,15,,,,,,,,,,,,,,,,15,,38,0
13439,note_on,,0,0,15,,,,,,,,,,,,,,,,15,,66,0
13439,note_on,,29,0,9,,,,,,,,,,,,,,,,7,,62,0
13439,note_on,,0,0,15,,,,,,,,,,,,,,,,15,,69,0
13439,note_on,,119,0,15,,,,,,,,,,,,,,,,15,,50,0
13439,note_on,,119,0,13,,,,,,,,,,,,,,,,12,,62,0
13439,note_on,,29,0,7,,,,,,,,,,,,,,,,5,,67,0
13439,note_on,,119,0,6,,,,,,,,,,,,,,,,2,,38,0
13439,note_on,,0,0,15,,,,,,,,,,,,,,,,15,,57,0
13439,note_on,,29,0,8,,,,,,,,,,,,,,,,6,,67,0
13440,note_on,,1,0,7,,,,,,,,,,,,,,,,5,,67,64
13440,note_on,,1,0,5,,,,,,,,,,,,,,,,0,,67,64
13440,note_on,,1,0,6,,,,,,,,,,,,,,,,2,,43,64
13440,note_on,,1,0,8,,,,,,,,,,,,,,,,6,,67,64
13440,note_on,,0,0,15,,,,,,,,,,,,,,,,15,,50,64
13440,note_on,,0,0,15,,,,,,,,,,,,,,,,15,,58,64
13440,note_on,,0,0,15,,,,,,,,,,,,,,,,15,,62,64
13440,note_on,,0,0,15,,,,,,,,,,,,,,,,15,,67,64
13440,note_on,,1,0,15,,,,,,,,,,,,,,,,15,,43,64
13440,note_on,,1,0,10,,,,,,,,,,,,,,,,8,,43,64
13440,note_on,,1,0,13,,,,,,,,,,,,,,,,12,,62,64
13440,note_on,,1,0,11,,,,,,,,,,,,,,,,10,,67,64
13440,note_on,,1,0,9,,,,,,,,,,,,,,,,7,,62,64
13440,note_on,,1,0,12,,,,,,,,,,,,,,,,11,,58,64
13440,note_on,,1,0,14,,,,,,,,,,,,,,,,13,,43,64
13559,note_on,,119,0,11,,,,,,,,,,,,,,,,10,,67,0
13620,note_on,,61,0,11,,,,,,,,,,,,,,,,10,,67,64
13679,end_of_track,,0,1,8,,,,,,,,,,,,,,,,,,,
13679,note_on,,239,0,10,,,,,,,,,,,,,,,,8,,43,0
13679,note_on,,59,0,11,,,,,,,,,,,,,,,,10,,67,0
13679,end_of_track,,0,1,10,,,,,,,,,,,,,,,,,,,
13679,note_on,,239,0,7,,,,,,,,,,,,,,,,5,,67,0
13679,end_of_track,,0,1,9,,,,,,,,,,,,,,,,,,,
13679,note_on,,239,0,5,,,,,,,,,,,,,,,,0,,67,0
13679,end_of_track,,0,1,5,,,,,,,,,,,,,,,,,,,
13679,end_of_track,,0,1,7,,,,,,,,,,,,,,,,,,,
13679,note_on,,239,0,8,,,,,,,,,,,,,,,,6,,67,0
13679,note_on,,239,0,9,,,,,,,,,,,,,,,,7,,62,0
13680,note_on,,1,0,11,,,,,,,,,,,,,,,,10,,79,64
13769,note_on,,89,0,11,,,,,,,,,,,,,,,,10,,79,0
13770,note_on,,1,0,11,,,,,,,,,,,,,,,,10,,77,64
13799,note_on,,359,0,15,,,,,,,,,,,,,,,,15,,67,0
13799,note_on,,29,0,11,,,,,,,,,,,,,,,,10,,77,0
13799,note_on,,0,0,15,,,,,,,,,,,,,,,,15,,62,0
13799,note_on,,0,0,15,,,,,,,,,,,,,,,,15,,50,0
13799,note_on,,359,0,13,,,,,,,,,,,,,,,,12,,62,0
13799,note_on,,359,0,12,,,,,,,,,,,,,,,,11,,58,0
13799,note_on,,0,0,15,,,,,,,,,,,,,,,,15,,58,0
13800,note_on,,1,0,15,,,,,,,,,,,,,,,,15,,67,64
13800,note_on,,0,0,15,,,,,,,,,,,,,,,,15,,63,64
13800,note_on,,0,0,15,,,,,,,,,,,,,,,,15,,60,64
13800,note_on,,0,0,15,,,,,,,,,,,,,,,,15,,55,64
13800,note_on,,1,0,11,,,,,,,,,,,,,,,,10,,75,64
13800,note_on,,1,0,13,,,,,,,,,,,,,,,,12,,60,64
13800,note_on,,0,0,15,,,,,,,,,,,,,,,,15,,48,64
13814,note_on,,14,0,11,,,,,,,,,,,,,,,,10,,75,0
13815,note_on,,1,0,11,,,,,,,,,,,,,,,,10,,77,64
13829,note_on,,14,0,11,,,,,,,,,,,,,,,,10,,77,0
13830,note_on,,1,0,11,,,,,,,,,,,,,,,,10,,75,64
13844,note_on,,14,0,11,,,,,,,,,,,,,,,,10,,75,0
13845,note_on,,1,0,11,,,,,,,,,,,,,,,,10,,77,64
13859,note_on,,14,0,11,,,,,,,,,,,,,,,,10,,77,0
13860,note_on,,1,0,11,,,,,,,,,,,,,,,,10,,74,64
13860,note_on,,61,0,12,,,,,,,,,,,,,,,,11,,55,64
13874,note_on,,14,0,11,,,,,,,,,,,,,,,,10,,74,0
13875,note_on,,1,0,11,,,,,,,,,,,,,,,,10,,75,64
13889,note_on,,14,0,11,,,,,,,,,,,,,,,,10,,75,0
13890,note_on,,1,0,11,,,,,,,,,,,,,,,,10,,74,64
13919,note_on,,119,0,15,,,,,,,,,,,,,,,,15,,63,0
13919,note_on,,0,0,15,,,,,,,,,,,,,,,,15,,60,0
13919,note_on,,0,0,15,,,,,,,,,,,,,,,,15,,55,0
13919,note_on,,0,0,15,,,,,,,,,,,,,,,,15,,48,0
13919,note_on,,119,0,13,,,,,,,,,,,,,,,,12,,60,0
13919,note_on,,29,0,11,,,,,,,,,,,,,,,,10,,74,0
13919,note_on,,59,0,12,,,,,,,,,,,,,,,,11,,55,0
13920,note_on,,1,0,13,,,,,,,,,,,,,,,,12,,58,64
13920,note_on,,1,0,12,,,,,,,,,,,,,,,,11,,67,64
13920,note_on,,1,0,15,,,,,,,,,,,,,,,,15,,62,64
13920,note_on,,0,0,15,,,,,,,,,,,,,,,,15,,58,64
13920,note_on,,0,0,15,,,,,,,,,,,,,,,,15,,55,64
13920,note_on,,0,0,15,,,,,,,,,,,,,,,,15,,50,64
13920,note_on,,1,0,11,,,,,,,,,,,,,,,,10,,74,64
14009,note_on,,89,0,12,,,,,,,,,,,,,,,,11,,67,0
14010,note_on,,1,0,12,,,,,,,,,,,,,,,,11,,65,64
14039,note_on,,119,0,13,,,,,,,,,,,,,,,,12,,58,0
14039,note_on,,119,0,15,,,,,,,,,,,,,,,,15,,67,0
14039,note_on,,0,0,15,,,,,,,,,,,,,,,,15,,62,0
14039,note_on,,0,0,15,,,,,,,,,,,,,,,,15,,58,0
14039,note_on,,0,0,15,,,,,,,,,,,,,,,,15,,55,0
14039,note_on,,0,0,15,,,,,,,,,,,,,,,,15,,50,0
14039,note_on,,29,0,12,,,,,,,,,,,,,,,,11,,65,0
14039,note_on,,119,0,11,,,,,,,,,,,,,,,,10,,74,0
14040,note_on,,0,0,15,,,,,,,,,,,,,,,,15,,60,64
14040,note_on,,0,0,15,,,,,,,,,,,,,,,,15,,51,64
14040,note_on,,0,0,15,,,,,,,,,,,,,,,,15,,67,64
14040,note_on,,1,0,13,,,,,,,,,,,,,,,,12,,67,64
14040,note_on,,1,0,15,,,,,,,,,,,,,,,,15,,55,64
14040,note_on,,1,0,11,,,,,,,,,,,,,,,,10,,72,64
14040,note_on,,1,0,12,,,,,,,,,,,,,,,,11,,63,64
14054,note_on,,14,0,11,,,,,,,,,,,,,,,,10,,72,0
14054,note_on,,14,0,12,,,,,,,,,,,,,,,,11,,63,0
14055,note_on,,1,0,12,,,,,,,,,,,,,,,,11,,65,64
14055,note_on,,1,0,11,,,,,,,,,,,,,,,,10,,74,64
14069,note_on,,14,0,12,,,,,,,,,,,,,,,,11,,65,0
14069,note_on,,14,0,11,,,,,,,,,,,,,,,,10,,74,0
14070,note_on,,1,0,11,,,,,,,,,,,,,,,,10,,72,64
14070,note_on,,1,0,12,,,,,,,,,,,,,,,,11,,63,64
14084,note_on,,14,0,11,,,,,,,,,,,,,,,,10,,72,0
14084,note_on,,14,0,12,,,,,,,,,,,,,,,,11,,63,0
14085,note_on,,1,0,11,,,,,,,,,,,,,,,,10,,74,64
14085,note_on,,1,0,12,,,,,,,,,,,,,,,,11,,65,64
14099,note_on,,14,0,11,,,,,,,,,,,,,,,,10,,74,0
14099,note_on,,659,0,14,,,,,,,,,,,,,,,,13,,43,0
14099,note_on,,14,0,12,,,,,,,,,,,,,,,,11,,65,0
14099,note_on,,59,0,15,,,,,,,,,,,,,,,,15,,43,0
14099,note_on,,659,0,6,,,,,,,,,,,,,,,,2,,43,0
14100,note_on,,1,0,11,,,,,,,,,,,,,,,,10,,70,64
14100,note_on,,1,0,6,,,,,,,,,,,,,,,,2,,43,64
14100,note_on,,1,0,14,,,,,,,,,,,,,,,,13,,43,64
14100,note_on,,1,0,12,,,,,,,,,,,,,,,,11,,62,64
14100,note_on,,1,0,15,,,,,,,,,,,,,,,,15,,43,64
14114,note_on,,14,0,12,,,,,,,,,,,,,,,,11,,62,0
14114,note_on,,14,0,11,,,,,,,,,,,,,,,,10,,70,0
14115,note_on,,1,0,12,,,,,,,,,,,,,,,,11,,63,64
14115,note_on,,1,0,11,,,,,,,,,,,,,,,,10,,72,64
14129,note_on,,14,0,12,,,,,,,,,,,,,,,,11,,63,0
14129,note_on,,14,0,11,,,,,,,,,,,,,,,,10,,72,0
14130,note_on,,1,0,12,,,,,,,,,,,,,,,,11,,62,64
14130,note_on,,1,0,11,,,,,,,,,,,,,,,,10,,70,64
14159,note_on,,29,0,12,,,,,,,,,,,,,,,,11,,62,0
14159,note_on,,0,0,15,,,,,,,,,,,,,,,,15,,43,0
14159,note_on,,0,0,15,,,,,,,,,,,,,,,,15,,60,0
14159,note_on,,59,0,15,,,,,,,,,,,,,,,,15,,51,0
14159,note_on,,29,0,11,,,,,,,,,,,,,,,,10,,70,0
14159,note_on,,59,0,14,,,,,,,,,,,,,,,,13,,43,0
14159,note_on,,59,0,6,,,,,,,,,,,,,,,,2,,43,0
14160,note_on,,1,0,11,,,,,,,,,,,,,,,,10,,70,64
14160,note_on,,1,0,6,,,,,,,,,,,,,,,,2,,55,64
14160,note_on,,1,0,15,,,,,,,,,,,,,,,,15,,55,64
14160,note_on,,0,0,15,,,,,,,,,,,,,,,,15,,62,64
14160,note_on,,0,0,15,,,,,,,,,,,,,,,,15,,58,64
14160,note_on,,1,0,14,,,,,,,,,,,,,,,,13,,55,64
14160,note_on,,1,0,12,,,,,,,,,,,,,,,,11,,62,64
14249,note_on,,89,0,11,,,,,,,,,,,,,,,,10,,70,0
14249,note_on,,89,0,14,,,,,,,,,,,,,,,,13,,55,0
14249,note_on,,89,0,6,,,,,,,,,,,,,,,,2,,55,0
14249,note_on,,89,0,15,,,,,,,,,,,,,,,,15,,55,0
14250,note_on,,1,0,14,,,,,,,,,,,,,,,,13,,53,64
14250,note_on,,1,0,11,,,,,,,,,,,,,,,,10,,69,64
14250,note_on,,1,0,6,,,,,,,,,,,,,,,,2,,53,64
14250,note_on,,1,0,15,,,,,,,,,,,,,,,,15,,53,64
14279,note_on,,119,0,12,,,,,,,,,,,,,,,,11,,62,0
14279,note_on,,29,0,15,,,,,,,,,,,,,,,,15,,55,0
14279,note_on,,29,0,11,,,,,,,,,,,,,,,,10,,69,0
14279,note_on,,0,0,15,,,,,,,,,,,,,,,,15,,67,0
14279,note_on,,29,0,6,,,,,,,,,,,,,,,,2,,53,0
14279,note_on,,0,0,15,,,,,,,,,,,,,,,,15,,62,0
14279,note_on,,0,0,15,,,,,,,,,,,,,,,,15,,58,0
14279,note_on,,0,0,15,,,,,,,,,,,,,,,,15,,53,0
14279,note_on,,29,0,14,,,,,,,,,,,,,,,,13,,53,0
14279,note_on,,239,0,13,,,,,,,,,,,,,,,,12,,67,0
14280,note_on,,0,0,15,,,,,,,,,,,,,,,,15,,72,64
14280,note_on,,1,0,11,,,,,,,,,,,,,,,,10,,67,64
14280,note_on,,1,0,15,,,,,,,,,,,,,,,,15,,51,64
14280,note_on,,1,0,13,,,,,,,,,,,,,,,,12,,55,64
14280,note_on,,0,0,15,,,,,,,,,,,,,,,,15,,55,64
14280,note_on,,0,0,15,,,,,,,,,,,,,,,,15,,60,64
14280,note_on,,0,0,15,,,,,,,,,,,,,,,,15,,67,64
14280,note_on,,1,0,12,,,,,,,,,,,,,,,,11,,72,64
14280,note_on,,1,0,14,,,,,,,,,,,,,,,,13,,51,64
14280,note_on,,1,0,6,,,,,,,,,,,,,,,,2,,51,64
14294,note_on,,14,0,11,,,,,,,,,,,,,,,,10,,67,0
14295,note_on,,1,0,11,,,,,,,,,,,,,,,,10,,69,64
14309,note_on,,14,0,11,,,,,,,,,,,,,,,,10,,69,0
14310,note_on,,1,0,11,,,,,,,,,,,,,,,,10,,67,64
14324,note_on,,14,0,11,,,,,,,,,,,,,,,,10,,67,0
14325,note_on,,1,0,11,,,,,,,,,,,,,,,,10,,69,64
14339,note_on,,14,0,11,,,,,,,,,,,,,,,,10,,69,0
14340,note_on,,1,0,11,,,,,,,,,,,,,,,,10,,66,64
14354,note_on,,14,0,11,,,,,,,,,,,,,,,,10,,66,0
14355,note_on,,1,0,11,,,,,,,,,,,,,,,,10,,67,64
14369,note_on,,14,0,11,,,,,,,,,,,,,,,,10,,67,0
14369,note_on,,89,0,15,,,,,,,,,,,,,,,,15,,51,0
14369,note_on,,89,0,6,,,,,,,,,,,,,,,,2,,51,0
14369,note_on,,89,0,14,,,,,,,,,,,,,,,,13,,51,0
14370,note_on,,1,0,15,,,,,,,,,,,,,,,,15,,50,64
14370,note_on,,1,0,14,,,,,,,,,,,,,,,,13,,50,64
14370,note_on,,1,0,6,,,,,,,,,,,,,,,,2,,50,64
14370,note_on,,1,0,11,,,,,,,,,,,,,,,,10,,66,64
14399,note_on,,0,0,15,,,,,,,,,,,,,,,,15,,50,0
14399,note_on,,0,0,15,,,,,,,,,,,,,,,,15,,55,0
14399,note_on,,29,0,15,,,,,,,,,,,,,,,,15,,72,0
14399,note_on,,0,0,15,,,,,,,,,,,,,,,,15,,60,0
14399,note_on,,29,0,11,,,,,,,,,,,,,,,,10,,66,0
14399,note_on,,119,0,13,,,,,,,,,,,,,,,,12,,55,0
14399,note_on,,0,0,15,,,,,,,,,,,,,,,,15,,67,0
14399,note_on,,29,0,14,,,,,,,,,,,,,,,,13,,50,0
14399,note_on,,29,0,6,,,,,,,,,,,,,,,,2,,50,0
14400,note_on,,1,0,6,,,,,,,,,,,,,,,,2,,50,64
14400,note_on,,1,0,13,,,,,,,,,,,,,,,,12,,57,64
14400,note_on,,1,0,11,,,,,,,,,,,,,,,,10,,66,64
14400,note_on,,1,0,14,,,,,,,,,,,,,,,,13,,50,64
14400,note_on,,1,0,15,,,,,,,,,,,,,,,,15,,50,64
14400,note_on,,0,0,15,,,,,,,,,,,,,,,,15,,69,64
14400,note_on,,0,0,15,,,,,,,,,,,,,,,,15,,66,64
14400,note_on,,0,0,15,,,,,,,,,,,,,,,,15,,62,64
14400,note_on,,0,0,15,,,,,,,,,,,,,,,,15,,57,64
14459,note_on,,59,0,13,,,,,,,,,,,,,,,,12,,57,0
14460,note_on,,1,0,13,,,,,,,,,,,,,,,,12,,62,64
14489,note_on,,209,0,12,,,,,,,,,,,,,,,,11,,72,0
14490,note_on,,1,0,12,,,,,,,,,,,,,,,,11,,74,64
14519,note_on,,29,0,12,,,,,,,,,,,,,,,,11,,74,0
14519,note_on,,59,0,13,,,,,,,,,,,,,,,,12,,62,0
14519,note_on,,119,0,11,,,,,,,,,,,,,,,,10,,66,0
14519,note_on,,119,0,6,,,,,,,,,,,,,,,,2,,50,0
14519,note_on,,119,0,14,,,,,,,,,,,,,,,,13,,50,0
14519,note_on,,119,0,15,,,,,,,,,,,,,,,,15,,50,0
14519,note_on,,0,0,15,,,,,,,,,,,,,,,,15,,69,0
14519,note_on,,0,0,15,,,,,,,,,,,,,,,,15,,57,0
14519,note_on,,0,0,15,,,,,,,,,,,,,,,,15,,62,0
14519,note_on,,0,0,15,,,,,,,,,,,,,,,,15,,66,0
14520,note_on,,1,0,13,,,,,,,,,,,,,,,,12,,62,64
14520,note_on,,1,0,11,,,,,,,,,,,,,,,,10,,67,64
14520,note_on,,1,0,14,,,,,,,,,,,,,,,,13,,43,64
14520,note_on,,0,0,15,,,,,,,,,,,,,,,,15,,62,64
14520,note_on,,0,0,15,,,,,,,,,,,,,,,,15,,67,64
14520,note_on,,1,0,6,,,,,,,,,,,,,,,,2,,43,64
14520,note_on,,1,0,12,,,,,,,,,,,,,,,,11,,70,64
14520,note_on,,1,0,15,,,,,,,,,,,,,,,,15,,43,64
14520,note_on,,0,0,15,,,,,,,,,,,,,,,,15,,55,64
14520,note_on,,0,0,15,,,,,,,,,,,,,,,,15,,70,64
14534,note_on,,14,0,12,,,,,,,,,,,,,,,,11,,70,0
14535,note_on,,1,0,12,,,,,,,,,,,,,,,,11,,72,64
14549,note_on,,14,0,12,,,,,,,,,,,,,,,,11,,72,0
14550,note_on,,1,0,12,,,,,,,,,,,,,,,,11,,70,64
14564,note_on,,14,0,12,,,,,,,,,,,,,,,,11,,70,0
14565,note_on,,1,0,12,,,,,,,,,,,,,,,,11,,72,64
14579,note_on,,14,0,12,,,,,,,,,,,,,,,,11,,72,0
14580,note_on,,1,0,12,,,,,,,,,,,,,,,,11,,69,64
14594,note_on,,14,0,12,,,,,,,,,,,,,,,,11,,69,0
14595,note_on,,1,0,12,,,,,,,,,,,,,,,,11,,70,64
14609,note_on,,0,0,15,,,,,,,,,,,,,,,,15,,62,0
14609,note_on,,14,0,12,,,,,,,,,,,,,,,,11,,70,0
14609,note_on,,89,0,15,,,,,,,,,,,,,,,,15,,70,0
14610,note_on,,1,0,12,,,,,,,,,,,,,,,,11,,69,64
14610,note_on,,0,0,15,,,,,,,,,,,,,,,,15,,60,64
14610,note_on,,1,0,15,,,,,,,,,,,,,,,,15,,69,64
14639,note_on,,0,0,15,,,,,,,,,,,,,,,,15,,60,0
14639,note_on,,119,0,13,,,,,,,,,,,,,,,,12,,62,0
14639,note_on,,119,0,14,,,,,,,,,,,,,,,,13,,43,0
14639,note_on,,119,0,6,,,,,,,,,,,,,,,,2,,43,0
14639,note_on,,29,0,15,,,,,,,,,,,,,,,,15,,43,0
14639,note_on,,0,0,15,,,,,,,,,,,,,,,,15,,67,0
14639,note_on,,0,0,15,,,,,,,,,,,,,,,,15,,55,0
14639,note_on,,29,0,12,,,,,,,,,,,,,,,,11,,69,0
14639,note_on,,0,0,15,,,,,,,,,,,,,,,,15,,69,0
14640,note_on,,1,0,12,,,,,,,,,,,,,,,,11,,70,64
14640,note_on,,1,0,15,,,,,,,,,,,,,,,,15,,50,64
14640,note_on,,1,0,13,,,,,,,,,,,,,,,,12,,62,64
14640,note_on,,1,0,14,,,,,,,,,,,,,,,,13,,50,64
14640,note_on,,0,0,15,,,,,,,,,,,,,,,,15,,67,64
14640,note_on,,1,0,6,,,,,,,,,,,,,,,,2,,50,64
14640,note_on,,0,0,15,,,,,,,,,,,,,,,,15,,58,64
14640,note_on,,0,0,15,,,,,,,,,,,,,,,,15,,62,64
14759,note_on,,0,0,15,,,,,,,,,,,,,,,,15,,58,0
14759,note_on,,239,0,11,,,,,,,,,,,,,,,,10,,67,0
14759,note_on,,0,0,15,,,,,,,,,,,,,,,,15,,62,0
14759,note_on,,119,0,15,,,,,,,,,,,,,,,,15,,67,0
14759,note_on,,119,0,12,,,,,,,,,,,,,,,,11,,70,0
14759,note_on,,119,0,14,,,,,,,,,,,,,,,,13,,50,0
14759,note_on,,119,0,13,,,,,,,,,,,,,,,,12,,62,0
14759,note_on,,119,0,6,,,,,,,,,,,,,,,,2,,50,0
14760,note_on,,1,0,14,,,,,,,,,,,,,,,,13,,38,64
14760,note_on,,1,0,13,,,,,,,,,,,,,,,,12,,62,64
14760,note_on,,0,0,15,,,,,,,,,,,,,,,,15,,62,64
14760,note_on,,0,0,15,,,,,,,,,,,,,,,,15,,65,64
14760,note_on,,1,0,11,,,,,,,,,,,,,,,,10,,66,64
14760,note_on,,1,0,15,,,,,,,,,,,,,,,,15,,38,64
14760,note_on,,1,0,12,,,,,,,,,,,,,,,,11,,69,64
14760,note_on,,0,0,15,,,,,,,,,,,,,,,,15,,57,64
14760,note_on,,1,0,6,,,,,,,,,,,,,,,,2,,38,64
14774,note_on,,14,0,12,,,,,,,,,,,,,,,,11,,69,0
14774,note_on,,14,0,11,,,,,,,,,,,,,,,,10,,66,0
14775,note_on,,1,0,11,,,,,,,,,,,,,,,,10,,67,64
14775,note_on,,1,0,12,,,,,,,,,,,,,,,,11,,70,64
14789,note_on,,14,0,11,,,,,,,,,,,,,,,,10,,67,0
14789,note_on,,14,0,12,,,,,,,,,,,,,,,,11,,70,0
14790,note_on,,1,0,11,,,,,,,,,,,,,,,,10,,66,64
14790,note_on,,1,0,12,,,,,,,,,,,,,,,,11,,69,64
14804,note_on,,14,0,11,,,,,,,,,,,,,,,,10,,66,0
14804,note_on,,14,0,12,,,,,,,,,,,,,,,,11,,69,0
14805,note_on,,1,0,11,,,,,,,,,,,,,,,,10,,67,64
14805,note_on,,1,0,12,,,,,,,,,,,,,,,,11,,70,64
14819,note_on,,14,0,12,,,,,,,,,,,,,,,,11,,70,0
14819,note_on,,14,0,11,,,,,,,,,,,,,,,,10,,67,0
14820,note_on,,1,0,11,,,,,,,,,,,,,,,,10,,63,64
14820,note_on,,1,0,12,,,,,,,,,,,,,,,,11,,67,64
14834,note_on,,14,0,11,,,,,,,,,,,,,,,,10,,63,0
14834,note_on,,14,0,12,,,,,,,,,,,,,,,,11,,67,0
14835,note_on,,1,0,11,,,,,,,,,,,,,,,,10,,66,64
14835,note_on,,1,0,12,,,,,,,,,,,,,,,,11,,69,64
14849,note_on,,14,0,11,,,,,,,,,,,,,,,,10,,66,0
14849,note_on,,14,0,12,,,,,,,,,,,,,,,,11,,69,0
14850,note_on,,1,0,12,,,,,,,,,,,,,,,,11,,67,64
14850,note_on,,1,0,11,,,,,,,,,,,,,,,,10,,67,64
14879,note_on,,29,0,12,,,,,,,,,,,,,,,,11,,67,0
14879,note_on,,0,0,15,,,,,,,,,,,,,,,,15,,38,0
14879,note_on,,119,0,14,,,,,,,,,,,,,,,,13,,38,0
14879,note_on,,119,0,13,,,,,,,,,,,,,,,,12,,62,0
14879,note_on,,0,0,15,,,,,,,,,,,,,,,,15,,65,0
14879,note_on,,0,0,15,,,,,,,,,,,,,,,,15,,62,0
14879,note_on,,119,0,15,,,,,,,,,,,,,,,,15,,50,0
14879,note_on,,29,0,11,,,,,,,,,,,,,,,,10,,67,0
14879,note_on,,119,0,6,,,,,,,,,,,,,,,,2,,38,0
14879,note_on,,0,0,15,,,,,,,,,,,,,,,,15,,57,0
14880,note_on,,1,0,12,,,,,,,,,,,,,,,,11,,67,64
14880,note_on,,1,0,14,,,,,,,,,,,,,,,,13,,43,64
14880,note_on,,0,0,15,,,,,,,,,,,,,,,,15,,43,64
14880,note_on,,1,0,13,,,,,,,,,,,,,,,,12,,62,64
14880,note_on,,0,0,15,,,,,,,,,,,,,,,,15,,67,64
14880,note_on,,0,0,15,,,,,,,,,,,,,,,,15,,55,64
14880,note_on,,0,0,15,,,,,,,,,,,,,,,,15,,62,64
14880,note_on,,1,0,6,,,,,,,,,,,,,,,,2,,43,64
14880,note_on,,1,0,11,,,,,,,,,,,,,,,,10,,67,64
14880,note_on,,1,0,15,,,,,,,,,,,,,,,,15,,50,64
15359,note_on,,479,0,15,,,,,,,,,,,,,,,,15,,50,0
15359,note_on,,0,0,15,,,,,,,,,,,,,,,,15,,43,0
15359,note_on,,0,0,15,,,,,,,,,,,,,,,,15,,67,0
15359,note_on,,0,0,15,,,,,,,,,,,,,,,,15,,55,0
15359,note_on,,479,0,12,,,,,,,,,,,,,,,,11,,67,0
15359,end_of_track,,0,1,15,,,,,,,,,,,,,,,,,,,
15359,end_of_track,,0,1,12,,,,,,,,,,,,,,,,,,,
15359,end_of_track,,0,1,13,,,,,,,,,,,,,,,,,,,
15359,note_on,,479,0,13,,,,,,,,,,,,,,,,12,,62,0
15359,note_on,,479,0,14,,,,,,,,,,,,,,,,13,,43,0
15359,end_of_track,,0,1,14,,,,,,,,,,,,,,,,,,,
15359,note_on,,0,0,15,,,,,,,,,,,,,,,,15,,62,0
15359,note_on,,479,0,6,,,,,,,,,,,,,,,,2,,43,0
15359,end_of_track,,0,1,6,,,,,,,,,,,,,,,,,,,
15359,end_of_track,,0,1,11,,,,,,,,,,,,,,,,,,,
15359,note_on,,479,0,11,,,,,,,,,,,,,,,,10,,67,0
16320,set_tempo,,16320,1,0,,,,,,,,,500000,,,,,,,,,,
16320,end_of_track,,0,1,0,,,,,,,,,,,,,,,,,,,
