tick,type,data,time,meta,track,frame_rate,hours,minutes,seconds,frames,sub_frames,port,key,tempo,numerator,denominator,clocks_per_click,notated_32nd_notes_per_beat,control,value,channel,program,note,velocity
0,sequencer_specific,"(0, 0, 91, 35, 1, 0, 5, 4, 35, 0)",0,1,0,,,,,,,,,,,,,,,,,,,
0,control_change,,0,0,6,,,,,,,,,,,,,,11,127,10,,,
0,control_change,,0,0,6,,,,,,,,,,,,,,10,48,10,,,
0,control_change,,0,0,6,,,,,,,,,,,,,,7,96,10,,,
0,program_change,,0,0,6,,,,,,,,,,,,,,,,10,48,,
0,track_name,,0,1,7,,,,,,,,,,,,,,,,,,,
0,midi_port,,0,1,7,,,,,,,0,,,,,,,,,,,,
0,control_change,,0,0,7,,,,,,,,,,,,,,11,127,11,,,
0,control_change,,0,0,7,,,,,,,,,,,,,,10,24,11,,,
0,control_change,,0,0,7,,,,,,,,,,,,,,7,96,11,,,
0,program_change,,0,0,7,,,,,,,,,,,,,,,,11,48,,
0,midi_port,,0,1,10,,,,,,,0,,,,,,,,,,,,
0,track_name,,0,1,8,,,,,,,,,,,,,,,,,,,
0,midi_port,,0,1,8,,,,,,,0,,,,,,,,,,,,
0,control_change,,0,0,8,,,,,,,,,,,,,,11,127,12,,,
0,control_change,,0,0,8,,,,,,,,,,,,,,10,80,12,,,
0,control_change,,0,0,8,,,,,,,,,,,,,,7,96,12,,,
0,program_change,,0,0,8,,,,,,,,,,,,,,,,12,48,,
0,control_change,,0,0,10,,,,,,,,,,,,,,11,127,15,,,
0,control_change,,0,0,10,,,,,,,,,,,,,,10,90,15,,,
0,control_change,,0,0,10,,,,,,,,,,,,,,7,96,15,,,
0,program_change,,0,0,10,,,,,,,,,,,,,,,,15,6,,
0,note_on,,0,0,10,,,,,,,,,,,,,,,,15,,67,48
0,note_on,,0,0,10,,,,,,,,,,,,,,,,15,,64,48
0,midi_port,,0,1,6,,,,,,,0,,,,,,,,,,,,
0,note_on,,0,0,10,,,,,,,,,,,,,,,,15,,60,48
0,program_change,,0,0,9,,,,,,,,,,,,,,,,13,48,,
0,control_change,,0,0,9,,,,,,,,,,,,,,7,96,13,,,
0,control_change,,0,0,9,,,,,,,,,,,,,,10,96,13,,,
0,control_change,,0,0,9,,,,,,,,,,,,,,11,127,13,,,
0,midi_port,,0,1,9,,,,,,,0,,,,,,,,,,,,
0,track_name,,0,1,9,,,,,,,,,,,,,,,,,,,
0,note_on,,0,0,10,,,,,,,,,,,,,,,,15,,48,48
0,track_name,,0,1,6,,,,,,,,,,,,,,,,,,,
0,track_name,,0,1,10,,,,,,,,,,,,,,,,,,,
0,program_change,,0,0,5,,,,,,,,,,,,,,,,5,73,,
0,smpte_offset,,0,1,0,25,32,0,3,0,0,,,,,,,,,,,,,
0,midi_port,,0,1,0,,,,,,,0,,,,,,,,,,,,
0,key_signature,,0,1,0,,,,,,,,C,,,,,,,,,,,
0,set_tempo,,0,1,0,,,,,,,,,857142,,,,,,,,,,
0,time_signature,,0,1,0,,,,,,,,,,4,4,24,8,,,,,,
0,track_name,,0,1,1,,,,,,,,,,,,,,,,,,,
0,midi_port,,0,1,1,,,,,,,0,,,,,,,,,,,,
0,instrument_name,,0,1,0,,,,,,,,,,,,,,,,,,,
0,control_change,,0,0,5,,,,,,,,,,,,,,11,127,5,,,
0,end_of_track,,0,1,1,,,,,,,,,,,,,,,,,,,
0,track_name,,0,1,0,,,,,,,,,,,,,,,,,,,
0,midi_port,,0,1,2,,,,,,,0,,,,,,,,,,,,
0,midi_port,,0,1,5,,,,,,,0,,,,,,,,,,,,
0,track_name,,0,1,5,,,,,,,,,,,,,,,,,,,
0,end_of_track,,0,1,4,,,,,,,,,,,,,,,,,,,
0,midi_port,,0,1,4,,,,,,,0,,,,,,,,,,,,
0,end_of_track,,0,1,3,,,,,,,,,,,,,,,,,,,
0,track_name,,0,1,2,,,,,,,,,,,,,,,,,,,
0,midi_port,,0,1,3,,,,,,,0,,,,,,,,,,,,
0,track_name,,0,1,3,,,,,,,,,,,,,,,,,,,
0,end_of_track,,0,1,2,,,,,,,,,,,,,,,,,,,
120,note_on,,0,0,5,,,,,,,,,,,,,,,,5,,67,64
120,control_change,,0,0,5,,,,,,,,,,,,,,7,96,5,,,
120,control_change,,120,0,5,,,,,,,,,,,,,,10,65,5,,,
179,note_on,,59,0,5,,,,,,,,,,,,,,,,5,,67,0
180,note_on,,1,0,5,,,,,,,,,,,,,,,,5,,67,64
239,note_on,,59,0,5,,,,,,,,,,,,,,,,5,,67,0
240,note_on,,1,0,5,,,,,,,,,,,,,,,,5,,72,64
299,note_on,,59,0,5,,,,,,,,,,,,,,,,5,,72,0
300,note_on,,1,0,5,,,,,,,,,,,,,,,,5,,72,64
359,note_on,,59,0,5,,,,,,,,,,,,,,,,5,,72,0
420,note_on,,61,0,5,,,,,,,,,,,,,,,,5,,72,64
479,note_on,,479,0,10,,,,,,,,,,,,,,,,15,,48,0
479,note_on,,59,0,5,,,,,,,,,,,,,,,,5,,72,0
480,note_on,,1,0,10,,,,,,,,,,,,,,,,15,,48,48
480,note_on,,1,0,5,,,,,,,,,,,,,,,,5,,72,64
539,note_on,,59,0,5,,,,,,,,,,,,,,,,5,,72,0
540,note_on,,1,0,5,,,,,,,,,,,,,,,,5,,72,64
599,note_on,,59,0,5,,,,,,,,,,,,,,,,5,,72,0
600,note_on,,1,0,5,,,,,,,,,,,,,,,,5,,72,64
659,note_on,,59,0,5,,,,,,,,,,,,,,,,5,,72,0
660,note_on,,1,0,5,,,,,,,,,,,,,,,,5,,74,64
719,note_on,,59,0,5,,,,,,,,,,,,,,,,5,,74,0
719,note_on,,239,0,10,,,,,,,,,,,,,,,,15,,67,0
719,note_on,,0,0,10,,,,,,,,,,,,,,,,15,,64,0
719,note_on,,0,0,10,,,,,,,,,,,,,,,,15,,60,0
720,note_on,,0,0,10,,,,,,,,,,,,,,,,15,,53,48
720,note_on,,0,0,10,,,,,,,,,,,,,,,,15,,62,48
720,note_on,,1,0,5,,,,,,,,,,,,,,,,5,,71,64
720,note_on,,1,0,10,,,,,,,,,,,,,,,,15,,71,48
839,note_on,,119,0,5,,,,,,,,,,,,,,,,5,,71,0
900,note_on,,61,0,5,,,,,,,,,,,,,,,,5,,71,64
929,note_on,,29,0,5,,,,,,,,,,,,,,,,5,,71,0
930,note_on,,1,0,5,,,,,,,,,,,,,,,,5,,71,64
959,note_on,,29,0,5,,,,,,,,,,,,,,,,5,,71,0
959,note_on,,0,0,10,,,,,,,,,,,,,,,,15,,53,0
959,note_on,,0,0,10,,,,,,,,,,,,,,,,15,,62,0
959,note_on,,0,0,10,,,,,,,,,,,,,,,,15,,71,0
959,note_on,,239,0,10,,,,,,,,,,,,,,,,15,,48,0
960,note_on,,1,0,10,,,,,,,,,,,,,,,,15,,59,48
960,note_on,,0,0,10,,,,,,,,,,,,,,,,15,,48,48
960,note_on,,1,0,5,,,,,,,,,,,,,,,,5,,74,64
960,note_on,,0,0,10,,,,,,,,,,,,,,,,15,,65,48
960,note_on,,0,0,10,,,,,,,,,,,,,,,,15,,74,48
1079,note_on,,119,0,5,,,,,,,,,,,,,,,,5,,74,0
1200,note_on,,121,0,5,,,,,,,,,,,,,,,,5,,74,64
1259,note_on,,59,0,5,,,,,,,,,,,,,,,,5,,74,0
1260,note_on,,1,0,5,,,,,,,,,,,,,,,,5,,74,64
1289,note_on,,29,0,5,,,,,,,,,,,,,,,,5,,74,0
1290,note_on,,1,0,5,,,,,,,,,,,,,,,,5,,76,64
1319,note_on,,29,0,5,,,,,,,,,,,,,,,,5,,76,0
1320,note_on,,1,0,5,,,,,,,,,,,,,,,,5,,77,64
1379,note_on,,59,0,5,,,,,,,,,,,,,,,,5,,77,0
1380,note_on,,1,0,5,,,,,,,,,,,,,,,,5,,76,64
1439,note_on,,479,0,10,,,,,,,,,,,,,,,,15,,59,0
1439,note_on,,0,0,10,,,,,,,,,,,,,,,,15,,48,0
1439,note_on,,0,0,10,,,,,,,,,,,,,,,,15,,74,0
1439,note_on,,59,0,5,,,,,,,,,,,,,,,,5,,76,0
1439,note_on,,0,0,10,,,,,,,,,,,,,,,,15,,65,0
1440,note_on,,1,0,5,,,,,,,,,,,,,,,,5,,72,64
1440,note_on,,1,0,10,,,,,,,,,,,,,,,,15,,67,48
1440,note_on,,0,0,10,,,,,,,,,,,,,,,,15,,64,48
1440,note_on,,0,0,10,,,,,,,,,,,,,,,,15,,60,48
1440,note_on,,0,0,10,,,,,,,,,,,,,,,,15,,48,48
1559,note_on,,119,0,5,,,,,,,,,,,,,,,,5,,72,0
1919,note_on,,479,0,10,,,,,,,,,,,,,,,,15,,67,0
1919,note_on,,0,0,10,,,,,,,,,,,,,,,,15,,64,0
1919,note_on,,0,0,10,,,,,,,,,,,,,,,,15,,60,0
1919,note_on,,0,0,10,,,,,,,,,,,,,,,,15,,48,0
1920,note_on,,1920,0,6,,,,,,,,,,,,,,,,10,,69,48
1920,note_on,,1920,0,7,,,,,,,,,,,,,,,,11,,65,48
1920,note_on,,1920,0,9,,,,,,,,,,,,,,,,13,,65,48
1920,set_tempo,,0,1,0,,,,,,,,,705882,,,,,,,,,,
1920,note_on,,0,0,10,,,,,,,,,,,,,,,,15,,72,48
1920,note_on,,1920,0,8,,,,,,,,,,,,,,,,12,,65,48
1920,note_on,,0,0,10,,,,,,,,,,,,,,,,15,,69,48
1920,note_on,,0,0,10,,,,,,,,,,,,,,,,15,,77,48
1920,note_on,,1,0,10,,,,,,,,,,,,,,,,15,,65,48
1920,key_signature,,1920,1,0,,,,,,,,F,,,,,,,,,,,
1949,note_on,,29,0,7,,,,,,,,,,,,,,,,11,,65,0
1949,note_on,,29,0,6,,,,,,,,,,,,,,,,10,,69,0
1950,note_on,,1,0,7,,,,,,,,,,,,,,,,11,,69,48
1950,note_on,,1,0,6,,,,,,,,,,,,,,,,10,,72,48
1979,note_on,,29,0,6,,,,,,,,,,,,,,,,10,,72,0
1979,note_on,,59,0,8,,,,,,,,,,,,,,,,12,,65,0
1979,note_on,,59,0,10,,,,,,,,,,,,,,,,15,,65,0
1979,note_on,,59,0,9,,,,,,,,,,,,,,,,13,,65,0
1979,note_on,,29,0,7,,,,,,,,,,,,,,,,11,,69,0
1980,note_on,,1,0,6,,,,,,,,,,,,,,,,10,,77,48
1980,note_on,,1,0,8,,,,,,,,,,,,,,,,12,,65,48
1980,note_on,,1,0,9,,,,,,,,,,,,,,,,13,,65,48
1980,note_on,,1,0,7,,,,,,,,,,,,,,,,11,,72,48
1980,note_on,,1,0,10,,,,,,,,,,,,,,,,15,,65,48
2009,note_on,,29,0,6,,,,,,,,,,,,,,,,10,,77,0
2009,note_on,,29,0,7,,,,,,,,,,,,,,,,11,,72,0
2010,note_on,,1,0,6,,,,,,,,,,,,,,,,10,,81,48
2010,note_on,,1,0,7,,,,,,,,,,,,,,,,11,,77,48
2039,note_on,,59,0,8,,,,,,,,,,,,,,,,12,,65,0
2039,note_on,,59,0,10,,,,,,,,,,,,,,,,15,,65,0
2039,note_on,,29,0,7,,,,,,,,,,,,,,,,11,,77,0
2039,note_on,,29,0,6,,,,,,,,,,,,,,,,10,,81,0
2039,note_on,,59,0,9,,,,,,,,,,,,,,,,13,,65,0
2040,note_on,,1,0,7,,,,,,,,,,,,,,,,11,,65,48
2040,note_on,,1,0,8,,,,,,,,,,,,,,,,12,,65,48
2040,note_on,,1,0,6,,,,,,,,,,,,,,,,10,,69,48
2040,note_on,,1,0,10,,,,,,,,,,,,,,,,15,,65,48
2040,note_on,,1,0,9,,,,,,,,,,,,,,,,13,,65,48
2069,note_on,,29,0,6,,,,,,,,,,,,,,,,10,,69,0
2069,note_on,,29,0,7,,,,,,,,,,,,,,,,11,,65,0
2070,note_on,,1,0,7,,,,,,,,,,,,,,,,11,,69,48
2070,note_on,,1,0,6,,,,,,,,,,,,,,,,10,,72,48
2099,note_on,,59,0,9,,,,,,,,,,,,,,,,13,,65,0
2099,note_on,,29,0,6,,,,,,,,,,,,,,,,10,,72,0
2099,note_on,,59,0,10,,,,,,,,,,,,,,,,15,,65,0
2099,note_on,,29,0,7,,,,,,,,,,,,,,,,11,,69,0
2099,note_on,,59,0,8,,,,,,,,,,,,,,,,12,,65,0
2100,note_on,,1,0,8,,,,,,,,,,,,,,,,12,,65,48
2100,note_on,,1,0,9,,,,,,,,,,,,,,,,13,,65,48
2100,note_on,,1,0,7,,,,,,,,,,,,,,,,11,,72,48
2100,note_on,,1,0,6,,,,,,,,,,,,,,,,10,,77,48
2100,note_on,,1,0,10,,,,,,,,,,,,,,,,15,,65,48
2129,note_on,,29,0,7,,,,,,,,,,,,,,,,11,,72,0
2129,note_on,,29,0,6,,,,,,,,,,,,,,,,10,,77,0
2130,note_on,,1,0,6,,,,,,,,,,,,,,,,10,,81,48
2130,note_on,,1,0,7,,,,,,,,,,,,,,,,11,,77,48
2159,note_on,,0,0,10,,,,,,,,,,,,,,,,15,,72,0
2159,note_on,,0,0,10,,,,,,,,,,,,,,,,15,,69,0
2159,note_on,,0,0,10,,,,,,,,,,,,,,,,15,,65,0
2159,note_on,,59,0,9,,,,,,,,,,,,,,,,13,,65,0
2159,note_on,,29,0,7,,,,,,,,,,,,,,,,11,,77,0
2159,note_on,,59,0,10,,,,,,,,,,,,,,,,15,,77,0
2159,note_on,,29,0,6,,,,,,,,,,,,,,,,10,,81,0
2159,note_on,,59,0,8,,,,,,,,,,,,,,,,12,,65,0
2160,note_on,,1,0,8,,,,,,,,,,,,,,,,12,,65,48
2160,note_on,,1,0,6,,,,,,,,,,,,,,,,10,,69,48
2160,note_on,,1,0,7,,,,,,,,,,,,,,,,11,,65,48
2160,note_on,,1,0,10,,,,,,,,,,,,,,,,15,,65,48
2160,note_on,,0,0,10,,,,,,,,,,,,,,,,15,,81,48
2160,note_on,,0,0,10,,,,,,,,,,,,,,,,15,,77,48
2160,note_on,,0,0,10,,,,,,,,,,,,,,,,15,,72,48
2160,note_on,,1,0,9,,,,,,,,,,,,,,,,13,,65,48
2189,note_on,,29,0,7,,,,,,,,,,,,,,,,11,,65,0
2189,note_on,,29,0,6,,,,,,,,,,,,,,,,10,,69,0
2190,note_on,,1,0,7,,,,,,,,,,,,,,,,11,,69,48
2190,note_on,,1,0,6,,,,,,,,,,,,,,,,10,,72,48
2219,note_on,,29,0,6,,,,,,,,,,,,,,,,10,,72,0
2219,note_on,,29,0,7,,,,,,,,,,,,,,,,11,,69,0
2219,note_on,,59,0,9,,,,,,,,,,,,,,,,13,,65,0
2219,note_on,,59,0,8,,,,,,,,,,,,,,,,12,,65,0
2219,note_on,,59,0,10,,,,,,,,,,,,,,,,15,,65,0
2220,note_on,,1,0,6,,,,,,,,,,,,,,,,10,,77,48
2220,note_on,,1,0,7,,,,,,,,,,,,,,,,11,,72,48
2220,note_on,,1,0,9,,,,,,,,,,,,,,,,13,,65,48
2220,note_on,,1,0,8,,,,,,,,,,,,,,,,12,,65,48
2220,note_on,,1,0,10,,,,,,,,,,,,,,,,15,,65,48
2249,note_on,,29,0,6,,,,,,,,,,,,,,,,10,,77,0
2249,note_on,,29,0,7,,,,,,,,,,,,,,,,11,,72,0
2250,note_on,,1,0,6,,,,,,,,,,,,,,,,10,,81,48
2250,note_on,,1,0,7,,,,,,,,,,,,,,,,11,,77,48
2279,note_on,,29,0,6,,,,,,,,,,,,,,,,10,,81,0
2279,note_on,,59,0,9,,,,,,,,,,,,,,,,13,,65,0
2279,note_on,,59,0,10,,,,,,,,,,,,,,,,15,,65,0
2279,note_on,,29,0,7,,,,,,,,,,,,,,,,11,,77,0
2279,note_on,,59,0,8,,,,,,,,,,,,,,,,12,,65,0
2280,note_on,,1,0,8,,,,,,,,,,,,,,,,12,,65,48
2280,note_on,,1,0,6,,,,,,,,,,,,,,,,10,,69,48
2280,note_on,,1,0,7,,,,,,,,,,,,,,,,11,,65,48
2280,note_on,,1,0,9,,,,,,,,,,,,,,,,13,,65,48
2280,note_on,,1,0,10,,,,,,,,,,,,,,,,15,,65,48
2309,note_on,,29,0,6,,,,,,,,,,,,,,,,10,,69,0
2309,note_on,,29,0,7,,,,,,,,,,,,,,,,11,,65,0
2310,note_on,,1,0,6,,,,,,,,,,,,,,,,10,,72,48
2310,note_on,,1,0,7,,,,,,,,,,,,,,,,11,,69,48
2339,note_on,,29,0,7,,,,,,,,,,,,,,,,11,,69,0
2339,note_on,,59,0,9,,,,,,,,,,,,,,,,13,,65,0
2339,note_on,,59,0,10,,,,,,,,,,,,,,,,15,,65,0
2339,note_on,,29,0,6,,,,,,,,,,,,,,,,10,,72,0
2339,note_on,,59,0,8,,,,,,,,,,,,,,,,12,,65,0
2340,note_on,,1,0,8,,,,,,,,,,,,,,,,12,,65,48
2340,note_on,,1,0,7,,,,,,,,,,,,,,,,11,,72,48
2340,note_on,,1,0,9,,,,,,,,,,,,,,,,13,,65,48
2340,note_on,,781,0,5,,,,,,,,,,,,,,,,5,,65,64
2340,note_on,,1,0,10,,,,,,,,,,,,,,,,15,,65,48
2340,note_on,,1,0,6,,,,,,,,,,,,,,,,10,,77,48
2369,note_on,,29,0,7,,,,,,,,,,,,,,,,11,,72,0
2369,note_on,,29,0,6,,,,,,,,,,,,,,,,10,,77,0
2370,note_on,,1,0,7,,,,,,,,,,,,,,,,11,,77,48
2370,note_on,,1,0,6,,,,,,,,,,,,,,,,10,,81,48
2399,note_on,,59,0,8,,,,,,,,,,,,,,,,12,,65,0
2399,note_on,,29,0,6,,,,,,,,,,,,,,,,10,,81,0
2399,note_on,,59,0,9,,,,,,,,,,,,,,,,13,,65,0
2399,note_on,,29,0,7,,,,,,,,,,,,,,,,11,,77,0
2399,note_on,,59,0,10,,,,,,,,,,,,,,,,15,,81,0
2399,note_on,,0,0,10,,,,,,,,,,,,,,,,15,,77,0
2399,note_on,,0,0,10,,,,,,,,,,,,,,,,15,,72,0
2399,note_on,,0,0,10,,,,,,,,,,,,,,,,15,,65,0
2399,note_on,,59,0,5,,,,,,,,,,,,,,,,5,,65,0
2400,note_on,,0,0,10,,,,,,,,,,,,,,,,15,,65,48
2400,note_on,,1,0,6,,,,,,,,,,,,,,,,10,,69,48
2400,note_on,,1,0,8,,,,,,,,,,,,,,,,12,,63,48
2400,note_on,,1,0,10,,,,,,,,,,,,,,,,15,,63,48
2400,note_on,,0,0,10,,,,,,,,,,,,,,,,15,,69,48
2400,note_on,,1,0,9,,,,,,,,,,,,,,,,13,,63,48
2400,note_on,,0,0,10,,,,,,,,,,,,,,,,15,,72,48
2400,note_on,,1,0,5,,,,,,,,,,,,,,,,5,,72,64
2400,note_on,,1,0,7,,,,,,,,,,,,,,,,11,,65,48
2429,note_on,,29,0,7,,,,,,,,,,,,,,,,11,,65,0
2429,note_on,,29,0,6,,,,,,,,,,,,,,,,10,,69,0
2430,note_on,,1,0,7,,,,,,,,,,,,,,,,11,,69,48
2430,note_on,,1,0,6,,,,,,,,,,,,,,,,10,,72,48
2459,note_on,,29,0,6,,,,,,,,,,,,,,,,10,,72,0
2459,note_on,,59,0,9,,,,,,,,,,,,,,,,13,,63,0
2459,note_on,,59,0,10,,,,,,,,,,,,,,,,15,,63,0
2459,note_on,,29,0,7,,,,,,,,,,,,,,,,11,,69,0
2459,note_on,,59,0,8,,,,,,,,,,,,,,,,12,,63,0
2460,note_on,,1,0,10,,,,,,,,,,,,,,,,15,,63,48
2460,note_on,,1,0,6,,,,,,,,,,,,,,,,10,,77,48
2460,note_on,,1,0,7,,,,,,,,,,,,,,,,11,,72,48
2460,note_on,,1,0,8,,,,,,,,,,,,,,,,12,,63,48
2460,note_on,,1,0,9,,,,,,,,,,,,,,,,13,,63,48
2489,note_on,,29,0,7,,,,,,,,,,,,,,,,11,,72,0
2489,note_on,,29,0,6,,,,,,,,,,,,,,,,10,,77,0
2490,note_on,,1,0,7,,,,,,,,,,,,,,,,11,,77,48
2490,note_on,,1,0,6,,,,,,,,,,,,,,,,10,,81,48
2519,note_on,,59,0,8,,,,,,,,,,,,,,,,12,,63,0
2519,note_on,,59,0,9,,,,,,,,,,,,,,,,13,,63,0
2519,note_on,,119,0,5,,,,,,,,,,,,,,,,5,,72,0
2519,note_on,,29,0,7,,,,,,,,,,,,,,,,11,,77,0
2519,note_on,,59,0,10,,,,,,,,,,,,,,,,15,,63,0
2519,note_on,,29,0,6,,,,,,,,,,,,,,,,10,,81,0
2520,note_on,,1,0,8,,,,,,,,,,,,,,,,12,,63,48
2520,note_on,,1,0,10,,,,,,,,,,,,,,,,15,,63,48
2520,note_on,,1,0,6,,,,,,,,,,,,,,,,10,,69,48
2520,note_on,,1,0,9,,,,,,,,,,,,,,,,13,,63,48
2520,note_on,,1,0,7,,,,,,,,,,,,,,,,11,,65,48
2549,note_on,,29,0,7,,,,,,,,,,,,,,,,11,,65,0
2549,note_on,,29,0,6,,,,,,,,,,,,,,,,10,,69,0
2550,note_on,,1,0,6,,,,,,,,,,,,,,,,10,,72,48
2550,note_on,,1,0,7,,,,,,,,,,,,,,,,11,,69,48
2579,note_on,,59,0,9,,,,,,,,,,,,,,,,13,,63,0
2579,note_on,,29,0,7,,,,,,,,,,,,,,,,11,,69,0
2579,note_on,,59,0,10,,,,,,,,,,,,,,,,15,,63,0
2579,note_on,,59,0,8,,,,,,,,,,,,,,,,12,,63,0
2579,note_on,,29,0,6,,,,,,,,,,,,,,,,10,,72,0
2580,note_on,,1,0,10,,,,,,,,,,,,,,,,15,,63,48
2580,note_on,,1,0,7,,,,,,,,,,,,,,,,11,,72,48
2580,note_on,,1,0,6,,,,,,,,,,,,,,,,10,,77,48
2580,note_on,,1,0,9,,,,,,,,,,,,,,,,13,,63,48
2580,note_on,,61,0,5,,,,,,,,,,,,,,,,5,,72,64
2580,note_on,,1,0,8,,,,,,,,,,,,,,,,12,,63,48
2609,note_on,,29,0,7,,,,,,,,,,,,,,,,11,,72,0
2609,note_on,,29,0,6,,,,,,,,,,,,,,,,10,,77,0
2610,note_on,,1,0,7,,,,,,,,,,,,,,,,11,,77,48
2610,note_on,,1,0,6,,,,,,,,,,,,,,,,10,,81,48
2639,note_on,,59,0,10,,,,,,,,,,,,,,,,15,,72,0
2639,note_on,,0,0,10,,,,,,,,,,,,,,,,15,,65,0
2639,note_on,,0,0,10,,,,,,,,,,,,,,,,15,,69,0
2639,note_on,,0,0,10,,,,,,,,,,,,,,,,15,,63,0
2639,note_on,,29,0,7,,,,,,,,,,,,,,,,11,,77,0
2639,note_on,,59,0,9,,,,,,,,,,,,,,,,13,,63,0
2639,note_on,,59,0,5,,,,,,,,,,,,,,,,5,,72,0
2639,note_on,,29,0,6,,,,,,,,,,,,,,,,10,,81,0
2639,note_on,,59,0,8,,,,,,,,,,,,,,,,12,,63,0
2640,note_on,,1,0,7,,,,,,,,,,,,,,,,11,,65,48
2640,note_on,,1,0,9,,,,,,,,,,,,,,,,13,,63,48
2640,note_on,,0,0,10,,,,,,,,,,,,,,,,15,,72,48
2640,note_on,,0,0,10,,,,,,,,,,,,,,,,15,,77,48
2640,note_on,,1,0,10,,,,,,,,,,,,,,,,15,,63,48
2640,note_on,,1,0,6,,,,,,,,,,,,,,,,10,,69,48
2640,note_on,,0,0,10,,,,,,,,,,,,,,,,15,,69,48
2640,note_on,,1,0,5,,,,,,,,,,,,,,,,5,,72,64
2640,note_on,,1,0,8,,,,,,,,,,,,,,,,12,,63,48
2669,note_on,,29,0,6,,,,,,,,,,,,,,,,10,,69,0
2669,note_on,,29,0,7,,,,,,,,,,,,,,,,11,,65,0
2670,note_on,,1,0,6,,,,,,,,,,,,,,,,10,,72,48
2670,note_on,,1,0,7,,,,,,,,,,,,,,,,11,,69,48
2699,note_on,,29,0,7,,,,,,,,,,,,,,,,11,,69,0
2699,note_on,,59,0,9,,,,,,,,,,,,,,,,13,,63,0
2699,note_on,,59,0,8,,,,,,,,,,,,,,,,12,,63,0
2699,note_on,,59,0,5,,,,,,,,,,,,,,,,5,,72,0
2699,note_on,,59,0,10,,,,,,,,,,,,,,,,15,,63,0
2699,note_on,,29,0,6,,,,,,,,,,,,,,,,10,,72,0
2700,note_on,,1,0,6,,,,,,,,,,,,,,,,10,,77,48
2700,note_on,,1,0,7,,,,,,,,,,,,,,,,11,,72,48
2700,note_on,,1,0,10,,,,,,,,,,,,,,,,15,,63,48
2700,note_on,,1,0,8,,,,,,,,,,,,,,,,12,,63,48
2700,note_on,,1,0,5,,,,,,,,,,,,,,,,5,,72,64
2700,note_on,,1,0,9,,,,,,,,,,,,,,,,13,,63,48
2729,note_on,,29,0,7,,,,,,,,,,,,,,,,11,,72,0
2729,note_on,,29,0,6,,,,,,,,,,,,,,,,10,,77,0
2730,note_on,,1,0,7,,,,,,,,,,,,,,,,11,,77,48
2730,note_on,,1,0,6,,,,,,,,,,,,,,,,10,,81,48
2759,note_on,,59,0,8,,,,,,,,,,,,,,,,12,,63,0
2759,note_on,,29,0,7,,,,,,,,,,,,,,,,11,,77,0
2759,note_on,,59,0,9,,,,,,,,,,,,,,,,13,,63,0
2759,note_on,,59,0,5,,,,,,,,,,,,,,,,5,,72,0
2759,note_on,,59,0,10,,,,,,,,,,,,,,,,15,,63,0
2759,note_on,,29,0,6,,,,,,,,,,,,,,,,10,,81,0
2760,note_on,,1,0,6,,,,,,,,,,,,,,,,10,,69,48
2760,note_on,,1,0,9,,,,,,,,,,,,,,,,13,,63,48
2760,note_on,,1,0,5,,,,,,,,,,,,,,,,5,,72,64
2760,note_on,,1,0,7,,,,,,,,,,,,,,,,11,,65,48
2760,note_on,,1,0,8,,,,,,,,,,,,,,,,12,,63,48
2760,note_on,,1,0,10,,,,,,,,,,,,,,,,15,,63,48
2789,note_on,,29,0,7,,,,,,,,,,,,,,,,11,,65,0
2789,note_on,,29,0,6,,,,,,,,,,,,,,,,10,,69,0
2790,note_on,,1,0,7,,,,,,,,,,,,,,,,11,,69,48
2790,note_on,,1,0,6,,,,,,,,,,,,,,,,10,,72,48
2819,note_on,,59,0,9,,,,,,,,,,,,,,,,13,,63,0
2819,note_on,,29,0,7,,,,,,,,,,,,,,,,11,,69,0
2819,note_on,,59,0,10,,,,,,,,,,,,,,,,15,,63,0
2819,note_on,,29,0,6,,,,,,,,,,,,,,,,10,,72,0
2819,note_on,,59,0,8,,,,,,,,,,,,,,,,12,,63,0
2819,note_on,,59,0,5,,,,,,,,,,,,,,,,5,,72,0
2820,note_on,,1,0,8,,,,,,,,,,,,,,,,12,,63,48
2820,note_on,,1,0,9,,,,,,,,,,,,,,,,13,,63,48
2820,note_on,,1,0,6,,,,,,,,,,,,,,,,10,,77,48
2820,note_on,,1,0,7,,,,,,,,,,,,,,,,11,,72,48
2820,note_on,,1,0,5,,,,,,,,,,,,,,,,5,,72,64
2820,note_on,,1,0,10,,,,,,,,,,,,,,,,15,,63,48
2849,note_on,,29,0,7,,,,,,,,,,,,,,,,11,,72,0
2849,note_on,,29,0,6,,,,,,,,,,,,,,,,10,,77,0
2850,note_on,,1,0,7,,,,,,,,,,,,,,,,11,,77,48
2850,note_on,,1,0,6,,,,,,,,,,,,,,,,10,,81,48
2879,note_on,,59,0,10,,,,,,,,,,,,,,,,15,,77,0
2879,note_on,,59,0,5,,,,,,,,,,,,,,,,5,,72,0
2879,note_on,,29,0,7,,,,,,,,,,,,,,,,11,,77,0
2879,note_on,,0,0,10,,,,,,,,,,,,,,,,15,,72,0
2879,note_on,,59,0,9,,,,,,,,,,,,,,,,13,,63,0
2879,note_on,,0,0,10,,,,,,,,,,,,,,,,15,,69,0
2879,note_on,,29,0,6,,,,,,,,,,,,,,,,10,,81,0
2879,note_on,,59,0,8,,,,,,,,,,,,,,,,12,,63,0
2879,note_on,,0,0,10,,,,,,,,,,,,,,,,15,,63,0
2880,note_on,,1,0,7,,,,,,,,,,,,,,,,11,,65,48
2880,note_on,,1,0,8,,,,,,,,,,,,,,,,12,,63,48
2880,note_on,,1,0,6,,,,,,,,,,,,,,,,10,,69,48
2880,note_on,,1,0,10,,,,,,,,,,,,,,,,15,,63,48
2880,note_on,,0,0,10,,,,,,,,,,,,,,,,15,,65,48
2880,note_on,,0,0,10,,,,,,,,,,,,,,,,15,,69,48
2880,note_on,,1,0,9,,,,,,,,,,,,,,,,13,,63,48
2880,note_on,,1,0,5,,,,,,,,,,,,,,,,5,,77,64
2909,note_on,,29,0,7,,,,,,,,,,,,,,,,11,,65,0
2909,note_on,,29,0,6,,,,,,,,,,,,,,,,10,,69,0
2910,note_on,,1,0,7,,,,,,,,,,,,,,,,11,,69,48
2910,note_on,,1,0,6,,,,,,,,,,,,,,,,10,,72,48
2939,note_on,,59,0,8,,,,,,,,,,,,,,,,12,,63,0
2939,note_on,,59,0,9,,,,,,,,,,,,,,,,13,,63,0
2939,note_on,,29,0,7,,,,,,,,,,,,,,,,11,,69,0
2939,note_on,,29,0,6,,,,,,,,,,,,,,,,10,,72,0
2939,note_on,,59,0,10,,,,,,,,,,,,,,,,15,,63,0
2940,note_on,,1,0,10,,,,,,,,,,,,,,,,15,,63,48
2940,note_on,,1,0,7,,,,,,,,,,,,,,,,11,,72,48
2940,note_on,,1,0,6,,,,,,,,,,,,,,,,10,,77,48
2940,note_on,,1,0,8,,,,,,,,,,,,,,,,12,,63,48
2940,note_on,,1,0,9,,,,,,,,,,,,,,,,13,,63,48
2969,note_on,,29,0,6,,,,,,,,,,,,,,,,10,,77,0
2969,note_on,,29,0,7,,,,,,,,,,,,,,,,11,,72,0
2970,note_on,,1,0,7,,,,,,,,,,,,,,,,11,,77,48
2970,note_on,,1,0,6,,,,,,,,,,,,,,,,10,,81,48
2999,note_on,,119,0,5,,,,,,,,,,,,,,,,5,,77,0
2999,note_on,,59,0,10,,,,,,,,,,,,,,,,15,,63,0
2999,note_on,,59,0,9,,,,,,,,,,,,,,,,13,,63,0
2999,note_on,,59,0,8,,,,,,,,,,,,,,,,12,,63,0
2999,note_on,,29,0,7,,,,,,,,,,,,,,,,11,,77,0
2999,note_on,,29,0,6,,,,,,,,,,,,,,,,10,,81,0
3000,note_on,,1,0,10,,,,,,,,,,,,,,,,15,,63,48
3000,note_on,,1,0,5,,,,,,,,,,,,,,,,5,,69,64
3000,note_on,,1,0,9,,,,,,,,,,,,,,,,13,,63,48
3000,note_on,,1,0,8,,,,,,,,,,,,,,,,12,,63,48
3000,note_on,,1,0,6,,,,,,,,,,,,,,,,10,,69,48
3000,note_on,,1,0,7,,,,,,,,,,,,,,,,11,,65,48
3029,note_on,,29,0,7,,,,,,,,,,,,,,,,11,,65,0
3029,note_on,,29,0,6,,,,,,,,,,,,,,,,10,,69,0
3030,note_on,,1,0,6,,,,,,,,,,,,,,,,10,,72,48
3030,note_on,,1,0,7,,,,,,,,,,,,,,,,11,,69,48
3059,note_on,,29,0,6,,,,,,,,,,,,,,,,10,,72,0
3059,note_on,,59,0,5,,,,,,,,,,,,,,,,5,,69,0
3059,note_on,,29,0,7,,,,,,,,,,,,,,,,11,,69,0
3059,note_on,,59,0,8,,,,,,,,,,,,,,,,12,,63,0
3059,note_on,,59,0,10,,,,,,,,,,,,,,,,15,,63,0
3059,note_on,,59,0,9,,,,,,,,,,,,,,,,13,,63,0
3060,note_on,,1,0,9,,,,,,,,,,,,,,,,13,,63,48
3060,note_on,,1,0,7,,,,,,,,,,,,,,,,11,,72,48
3060,note_on,,1,0,5,,,,,,,,,,,,,,,,5,,72,64
3060,note_on,,1,0,10,,,,,,,,,,,,,,,,15,,63,48
3060,note_on,,1,0,8,,,,,,,,,,,,,,,,12,,63,48
3060,note_on,,1,0,6,,,,,,,,,,,,,,,,10,,77,48
3089,note_on,,29,0,7,,,,,,,,,,,,,,,,11,,72,0
3089,note_on,,29,0,6,,,,,,,,,,,,,,,,10,,77,0
3090,note_on,,1,0,6,,,,,,,,,,,,,,,,10,,81,48
3090,note_on,,1,0,7,,,,,,,,,,,,,,,,11,,77,48
3119,note_on,,29,0,7,,,,,,,,,,,,,,,,11,,77,0
3119,note_on,,59,0,10,,,,,,,,,,,,,,,,15,,65,0
3119,note_on,,0,0,10,,,,,,,,,,,,,,,,15,,69,0
3119,note_on,,29,0,6,,,,,,,,,,,,,,,,10,,81,0
3119,note_on,,59,0,8,,,,,,,,,,,,,,,,12,,63,0
3119,note_on,,0,0,10,,,,,,,,,,,,,,,,15,,63,0
3119,note_on,,59,0,5,,,,,,,,,,,,,,,,5,,72,0
3119,note_on,,59,0,9,,,,,,,,,,,,,,,,13,,63,0
3120,note_on,,1,0,5,,,,,,,,,,,,,,,,5,,65,64
3120,note_on,,1,0,10,,,,,,,,,,,,,,,,15,,62,48
3120,note_on,,0,0,10,,,,,,,,,,,,,,,,15,,70,48
3120,note_on,,1,0,7,,,,,,,,,,,,,,,,11,,65,48
3120,note_on,,1,0,9,,,,,,,,,,,,,,,,13,,62,48
3120,note_on,,1,0,8,,,,,,,,,,,,,,,,12,,62,48
3120,note_on,,1,0,6,,,,,,,,,,,,,,,,10,,70,48
3120,note_on,,0,0,10,,,,,,,,,,,,,,,,15,,65,48
3149,note_on,,29,0,7,,,,,,,,,,,,,,,,11,,65,0
3149,note_on,,29,0,6,,,,,,,,,,,,,,,,10,,70,0
3150,note_on,,1,0,7,,,,,,,,,,,,,,,,11,,70,48
3150,note_on,,1,0,6,,,,,,,,,,,,,,,,10,,74,48
3179,note_on,,59,0,9,,,,,,,,,,,,,,,,13,,62,0
3179,note_on,,59,0,8,,,,,,,,,,,,,,,,12,,62,0
3179,note_on,,59,0,10,,,,,,,,,,,,,,,,15,,62,0
3179,note_on,,29,0,7,,,,,,,,,,,,,,,,11,,70,0
3179,note_on,,29,0,6,,,,,,,,,,,,,,,,10,,74,0
3179,note_on,,59,0,5,,,,,,,,,,,,,,,,5,,65,0
3180,note_on,,1,0,8,,,,,,,,,,,,,,,,12,,62,48
3180,note_on,,1,0,10,,,,,,,,,,,,,,,,15,,62,48
3180,note_on,,1,0,6,,,,,,,,,,,,,,,,10,,77,48
3180,note_on,,1,0,9,,,,,,,,,,,,,,,,13,,62,48
3180,note_on,,1,0,5,,,,,,,,,,,,,,,,5,,65,64
3180,note_on,,1,0,7,,,,,,,,,,,,,,,,11,,74,48
3209,note_on,,29,0,7,,,,,,,,,,,,,,,,11,,74,0
3209,note_on,,29,0,6,,,,,,,,,,,,,,,,10,,77,0
3210,note_on,,1,0,7,,,,,,,,,,,,,,,,11,,77,48
3210,note_on,,1,0,6,,,,,,,,,,,,,,,,10,,82,48
3239,note_on,,59,0,5,,,,,,,,,,,,,,,,5,,65,0
3239,note_on,,59,0,9,,,,,,,,,,,,,,,,13,,62,0
3239,note_on,,59,0,10,,,,,,,,,,,,,,,,15,,62,0
3239,note_on,,29,0,7,,,,,,,,,,,,,,,,11,,77,0
3239,note_on,,29,0,6,,,,,,,,,,,,,,,,10,,82,0
3239,note_on,,59,0,8,,,,,,,,,,,,,,,,12,,62,0
3240,note_on,,1,0,6,,,,,,,,,,,,,,,,10,,70,48
3240,note_on,,1,0,8,,,,,,,,,,,,,,,,12,,62,48
3240,note_on,,1,0,7,,,,,,,,,,,,,,,,11,,65,48
3240,note_on,,1,0,9,,,,,,,,,,,,,,,,13,,62,48
3240,note_on,,1,0,10,,,,,,,,,,,,,,,,15,,62,48
3269,note_on,,29,0,7,,,,,,,,,,,,,,,,11,,65,0
3269,note_on,,29,0,6,,,,,,,,,,,,,,,,10,,70,0
3270,note_on,,1,0,6,,,,,,,,,,,,,,,,10,,74,48
3270,note_on,,1,0,7,,,,,,,,,,,,,,,,11,,70,48
3299,note_on,,29,0,7,,,,,,,,,,,,,,,,11,,70,0
3299,note_on,,59,0,9,,,,,,,,,,,,,,,,13,,62,0
3299,note_on,,29,0,6,,,,,,,,,,,,,,,,10,,74,0
3299,note_on,,59,0,8,,,,,,,,,,,,,,,,12,,62,0
3299,note_on,,59,0,10,,,,,,,,,,,,,,,,15,,62,0
3300,note_on,,1,0,10,,,,,,,,,,,,,,,,15,,62,48
3300,note_on,,1,0,8,,,,,,,,,,,,,,,,12,,62,48
3300,note_on,,1,0,7,,,,,,,,,,,,,,,,11,,74,48
3300,note_on,,1,0,6,,,,,,,,,,,,,,,,10,,77,48
3300,note_on,,1,0,9,,,,,,,,,,,,,,,,13,,62,48
3329,note_on,,29,0,7,,,,,,,,,,,,,,,,11,,74,0
3329,note_on,,29,0,6,,,,,,,,,,,,,,,,10,,77,0
3330,note_on,,1,0,7,,,,,,,,,,,,,,,,11,,77,48
3330,note_on,,1,0,6,,,,,,,,,,,,,,,,10,,82,48
3359,note_on,,29,0,7,,,,,,,,,,,,,,,,11,,77,0
3359,note_on,,59,0,8,,,,,,,,,,,,,,,,12,,62,0
3359,note_on,,0,0,10,,,,,,,,,,,,,,,,15,,65,0
3359,note_on,,59,0,9,,,,,,,,,,,,,,,,13,,62,0
3359,note_on,,59,0,10,,,,,,,,,,,,,,,,15,,70,0
3359,note_on,,29,0,6,,,,,,,,,,,,,,,,10,,82,0
3359,note_on,,0,0,10,,,,,,,,,,,,,,,,15,,62,0
3360,note_on,,1,0,7,,,,,,,,,,,,,,,,11,,65,48
3360,note_on,,1,0,8,,,,,,,,,,,,,,,,12,,62,48
3360,note_on,,0,0,10,,,,,,,,,,,,,,,,15,,65,48
3360,note_on,,0,0,10,,,,,,,,,,,,,,,,15,,70,48
3360,note_on,,0,0,10,,,,,,,,,,,,,,,,15,,74,48
3360,note_on,,1,0,10,,,,,,,,,,,,,,,,15,,62,48
3360,note_on,,1,0,6,,,,,,,,,,,,,,,,10,,70,48
3360,note_on,,1,0,9,,,,,,,,,,,,,,,,13,,62,48
3389,note_on,,29,0,7,,,,,,,,,,,,,,,,11,,65,0
3389,note_on,,29,0,6,,,,,,,,,,,,,,,,10,,70,0
3390,note_on,,1,0,7,,,,,,,,,,,,,,,,11,,70,48
3390,note_on,,1,0,6,,,,,,,,,,,,,,,,10,,74,48
3419,note_on,,29,0,7,,,,,,,,,,,,,,,,11,,70,0
3419,note_on,,29,0,6,,,,,,,,,,,,,,,,10,,74,0
3419,note_on,,59,0,9,,,,,,,,,,,,,,,,13,,62,0
3419,note_on,,59,0,10,,,,,,,,,,,,,,,,15,,62,0
3419,note_on,,59,0,8,,,,,,,,,,,,,,,,12,,62,0
3420,note_on,,1,0,10,,,,,,,,,,,,,,,,15,,62,48
3420,note_on,,1,0,7,,,,,,,,,,,,,,,,11,,74,48
3420,note_on,,1,0,8,,,,,,,,,,,,,,,,12,,62,48
3420,note_on,,1,0,6,,,,,,,,,,,,,,,,10,,77,48
3420,note_on,,1,0,9,,,,,,,,,,,,,,,,13,,62,48
3449,note_on,,29,0,7,,,,,,,,,,,,,,,,11,,74,0
3449,note_on,,29,0,6,,,,,,,,,,,,,,,,10,,77,0
3450,note_on,,1,0,7,,,,,,,,,,,,,,,,11,,77,48
3450,note_on,,1,0,6,,,,,,,,,,,,,,,,10,,82,48
3479,note_on,,29,0,6,,,,,,,,,,,,,,,,10,,82,0
3479,note_on,,59,0,9,,,,,,,,,,,,,,,,13,,62,0
3479,note_on,,59,0,10,,,,,,,,,,,,,,,,15,,62,0
3479,note_on,,59,0,8,,,,,,,,,,,,,,,,12,,62,0
3479,note_on,,29,0,7,,,,,,,,,,,,,,,,11,,77,0
3480,note_on,,1,0,7,,,,,,,,,,,,,,,,11,,65,48
3480,note_on,,1,0,9,,,,,,,,,,,,,,,,13,,62,48
3480,note_on,,1,0,8,,,,,,,,,,,,,,,,12,,62,48
3480,note_on,,1,0,10,,,,,,,,,,,,,,,,15,,62,48
3480,note_on,,1,0,6,,,,,,,,,,,,,,,,10,,70,48
3480,note_on,,241,0,5,,,,,,,,,,,,,,,,5,,70,64
3509,note_on,,29,0,7,,,,,,,,,,,,,,,,11,,65,0
3509,note_on,,29,0,6,,,,,,,,,,,,,,,,10,,70,0
3510,note_on,,1,0,6,,,,,,,,,,,,,,,,10,,74,48
3510,note_on,,1,0,7,,,,,,,,,,,,,,,,11,,70,48
3539,note_on,,29,0,6,,,,,,,,,,,,,,,,10,,74,0
3539,note_on,,59,0,10,,,,,,,,,,,,,,,,15,,62,0
3539,note_on,,59,0,8,,,,,,,,,,,,,,,,12,,62,0
3539,note_on,,59,0,5,,,,,,,,,,,,,,,,5,,70,0
3539,note_on,,59,0,9,,,,,,,,,,,,,,,,13,,62,0
3539,note_on,,29,0,7,,,,,,,,,,,,,,,,11,,70,0
3540,note_on,,1,0,10,,,,,,,,,,,,,,,,15,,62,48
3540,note_on,,1,0,8,,,,,,,,,,,,,,,,12,,62,48
3540,note_on,,1,0,9,,,,,,,,,,,,,,,,13,,62,48
3540,note_on,,1,0,7,,,,,,,,,,,,,,,,11,,74,48
3540,note_on,,1,0,5,,,,,,,,,,,,,,,,5,,70,64
3540,note_on,,1,0,6,,,,,,,,,,,,,,,,10,,77,48
3569,note_on,,29,0,7,,,,,,,,,,,,,,,,11,,74,0
3569,note_on,,29,0,6,,,,,,,,,,,,,,,,10,,77,0
3570,note_on,,1,0,7,,,,,,,,,,,,,,,,11,,77,48
3570,note_on,,1,0,6,,,,,,,,,,,,,,,,10,,82,48
3599,note_on,,29,0,7,,,,,,,,,,,,,,,,11,,77,0
3599,note_on,,59,0,8,,,,,,,,,,,,,,,,12,,62,0
3599,note_on,,59,0,5,,,,,,,,,,,,,,,,5,,70,0
3599,note_on,,59,0,10,,,,,,,,,,,,,,,,15,,74,0
3599,note_on,,0,0,10,,,,,,,,,,,,,,,,15,,70,0
3599,note_on,,0,0,10,,,,,,,,,,,,,,,,15,,62,0
3599,note_on,,59,0,9,,,,,,,,,,,,,,,,13,,62,0
3599,note_on,,29,0,6,,,,,,,,,,,,,,,,10,,82,0
3599,note_on,,0,0,10,,,,,,,,,,,,,,,,15,,65,0
3600,note_on,,1,0,5,,,,,,,,,,,,,,,,5,,79,64
3600,note_on,,1,0,10,,,,,,,,,,,,,,,,15,,64,48
3600,note_on,,0,0,10,,,,,,,,,,,,,,,,15,,72,48
3600,note_on,,0,0,10,,,,,,,,,,,,,,,,15,,70,48
3600,note_on,,0,0,10,,,,,,,,,,,,,,,,15,,67,48
3600,note_on,,1,0,9,,,,,,,,,,,,,,,,13,,64,48
3600,note_on,,1,0,8,,,,,,,,,,,,,,,,12,,64,48
3600,note_on,,1,0,7,,,,,,,,,,,,,,,,11,,67,48
3600,note_on,,1,0,6,,,,,,,,,,,,,,,,10,,72,48
3629,note_on,,29,0,6,,,,,,,,,,,,,,,,10,,72,0
3629,note_on,,29,0,7,,,,,,,,,,,,,,,,11,,67,0
3630,note_on,,1,0,6,,,,,,,,,,,,,,,,10,,76,48
3630,note_on,,1,0,7,,,,,,,,,,,,,,,,11,,72,48
3659,note_on,,29,0,6,,,,,,,,,,,,,,,,10,,76,0
3659,note_on,,59,0,9,,,,,,,,,,,,,,,,13,,64,0
3659,note_on,,29,0,7,,,,,,,,,,,,,,,,11,,72,0
3659,note_on,,59,0,5,,,,,,,,,,,,,,,,5,,79,0
3659,note_on,,59,0,10,,,,,,,,,,,,,,,,15,,64,0
3659,note_on,,59,0,8,,,,,,,,,,,,,,,,12,,64,0
3660,note_on,,1,0,8,,,,,,,,,,,,,,,,12,,64,48
3660,note_on,,1,0,9,,,,,,,,,,,,,,,,13,,64,48
3660,note_on,,1,0,7,,,,,,,,,,,,,,,,11,,76,48
3660,note_on,,1,0,10,,,,,,,,,,,,,,,,15,,64,48
3660,note_on,,1,0,6,,,,,,,,,,,,,,,,10,,79,48
3660,note_on,,1,0,5,,,,,,,,,,,,,,,,5,,79,64
3689,note_on,,29,0,6,,,,,,,,,,,,,,,,10,,79,0
3689,note_on,,29,0,7,,,,,,,,,,,,,,,,11,,76,0
3690,note_on,,1,0,6,,,,,,,,,,,,,,,,10,,82,48
3690,note_on,,1,0,7,,,,,,,,,,,,,,,,11,,79,48
3719,note_on,,59,0,5,,,,,,,,,,,,,,,,5,,79,0
3719,note_on,,59,0,10,,,,,,,,,,,,,,,,15,,64,0
3719,note_on,,59,0,8,,,,,,,,,,,,,,,,12,,64,0
3719,note_on,,29,0,7,,,,,,,,,,,,,,,,11,,79,0
3719,note_on,,29,0,6,,,,,,,,,,,,,,,,10,,82,0
3719,note_on,,59,0,9,,,,,,,,,,,,,,,,13,,64,0
3720,note_on,,1,0,8,,,,,,,,,,,,,,,,12,,64,48
3720,note_on,,1,0,10,,,,,,,,,,,,,,,,15,,64,48
3720,note_on,,1,0,7,,,,,,,,,,,,,,,,11,,67,48
3720,note_on,,1,0,5,,,,,,,,,,,,,,,,5,,76,64
3720,note_on,,1,0,9,,,,,,,,,,,,,,,,13,,64,48
3720,note_on,,1,0,6,,,,,,,,,,,,,,,,10,,72,48
3749,note_on,,29,0,7,,,,,,,,,,,,,,,,11,,67,0
3749,note_on,,29,0,6,,,,,,,,,,,,,,,,10,,72,0
3750,note_on,,1,0,7,,,,,,,,,,,,,,,,11,,72,48
3750,note_on,,1,0,6,,,,,,,,,,,,,,,,10,,76,48
3779,note_on,,29,0,6,,,,,,,,,,,,,,,,10,,76,0
3779,note_on,,59,0,5,,,,,,,,,,,,,,,,5,,76,0
3779,note_on,,59,0,9,,,,,,,,,,,,,,,,13,,64,0
3779,note_on,,59,0,10,,,,,,,,,,,,,,,,15,,64,0
3779,note_on,,59,0,8,,,,,,,,,,,,,,,,12,,64,0
3779,note_on,,29,0,7,,,,,,,,,,,,,,,,11,,72,0
3780,note_on,,1,0,7,,,,,,,,,,,,,,,,11,,76,48
3780,note_on,,1,0,6,,,,,,,,,,,,,,,,10,,79,48
3780,note_on,,1,0,8,,,,,,,,,,,,,,,,12,,64,48
3780,note_on,,1,0,9,,,,,,,,,,,,,,,,13,,64,48
3780,note_on,,1,0,10,,,,,,,,,,,,,,,,15,,64,48
3780,note_on,,1,0,5,,,,,,,,,,,,,,,,5,,79,64
3809,note_on,,29,0,6,,,,,,,,,,,,,,,,10,,79,0
3809,note_on,,29,0,7,,,,,,,,,,,,,,,,11,,76,0
3810,note_on,,1,0,7,,,,,,,,,,,,,,,,11,,79,48
3810,note_on,,1,0,6,,,,,,,,,,,,,,,,10,,82,48
3839,note_on,,59,0,9,,,,,,,,,,,,,,,,13,,64,0
3839,note_on,,29,0,7,,,,,,,,,,,,,,,,11,,79,0
3839,note_on,,0,0,10,,,,,,,,,,,,,,,,15,,70,0
3839,note_on,,59,0,5,,,,,,,,,,,,,,,,5,,79,0
3839,note_on,,29,0,6,,,,,,,,,,,,,,,,10,,82,0
3839,note_on,,0,0,10,,,,,,,,,,,,,,,,15,,67,0
3839,note_on,,0,0,10,,,,,,,,,,,,,,,,15,,64,0
3839,note_on,,59,0,8,,,,,,,,,,,,,,,,12,,64,0
3839,note_on,,59,0,10,,,,,,,,,,,,,,,,15,,72,0
3840,note_on,,1,0,7,,,,,,,,,,,,,,,,11,,67,48
3840,note_on,,1,0,10,,,,,,,,,,,,,,,,15,,64,48
3840,note_on,,1,0,9,,,,,,,,,,,,,,,,13,,64,48
3840,note_on,,1,0,5,,,,,,,,,,,,,,,,5,,70,64
3840,note_on,,0,0,10,,,,,,,,,,,,,,,,15,,70,48
3840,note_on,,0,0,10,,,,,,,,,,,,,,,,15,,72,48
3840,note_on,,1,0,6,,,,,,,,,,,,,,,,10,,72,48
3840,note_on,,0,0,10,,,,,,,,,,,,,,,,15,,79,48
3840,note_on,,1,0,8,,,,,,,,,,,,,,,,12,,64,48
3869,note_on,,29,0,6,,,,,,,,,,,,,,,,10,,72,0
3869,note_on,,29,0,7,,,,,,,,,,,,,,,,11,,67,0
3870,note_on,,1,0,7,,,,,,,,,,,,,,,,11,,72,48
3870,note_on,,1,0,6,,,,,,,,,,,,,,,,10,,76,48
3899,note_on,,59,0,10,,,,,,,,,,,,,,,,15,,64,0
3899,note_on,,59,0,8,,,,,,,,,,,,,,,,12,,64,0
3899,note_on,,29,0,7,,,,,,,,,,,,,,,,11,,72,0
3899,note_on,,59,0,9,,,,,,,,,,,,,,,,13,,64,0
3899,note_on,,29,0,6,,,,,,,,,,,,,,,,10,,76,0
3899,note_on,,59,0,5,,,,,,,,,,,,,,,,5,,70,0
3900,note_on,,1,0,9,,,,,,,,,,,,,,,,13,,64,48
3900,note_on,,1,0,8,,,,,,,,,,,,,,,,12,,64,48
3900,note_on,,1,0,6,,,,,,,,,,,,,,,,10,,79,48
3900,note_on,,1,0,7,,,,,,,,,,,,,,,,11,,76,48
3900,note_on,,1,0,10,,,,,,,,,,,,,,,,15,,64,48
3929,note_on,,29,0,7,,,,,,,,,,,,,,,,11,,76,0
3929,note_on,,29,0,6,,,,,,,,,,,,,,,,10,,79,0
3930,note_on,,1,0,6,,,,,,,,,,,,,,,,10,,82,48
3930,note_on,,1,0,7,,,,,,,,,,,,,,,,11,,79,48
3930,note_on,,31,0,5,,,,,,,,,,,,,,,,5,,70,64
3959,note_on,,29,0,7,,,,,,,,,,,,,,,,11,,79,0
3959,note_on,,29,0,5,,,,,,,,,,,,,,,,5,,70,0
3959,note_on,,59,0,10,,,,,,,,,,,,,,,,15,,64,0
3959,note_on,,59,0,9,,,,,,,,,,,,,,,,13,,64,0
3959,note_on,,59,0,8,,,,,,,,,,,,,,,,12,,64,0
3959,note_on,,29,0,6,,,,,,,,,,,,,,,,10,,82,0
3960,note_on,,1,0,5,,,,,,,,,,,,,,,,5,,74,64
3960,note_on,,1,0,10,,,,,,,,,,,,,,,,15,,64,48
3960,note_on,,1,0,8,,,,,,,,,,,,,,,,12,,64,48
3960,note_on,,1,0,9,,,,,,,,,,,,,,,,13,,64,48
3960,note_on,,1,0,6,,,,,,,,,,,,,,,,10,,72,48
3960,note_on,,1,0,7,,,,,,,,,,,,,,,,11,,67,48
3989,note_on,,29,0,6,,,,,,,,,,,,,,,,10,,72,0
3989,note_on,,29,0,7,,,,,,,,,,,,,,,,11,,67,0
3990,note_on,,1,0,7,,,,,,,,,,,,,,,,11,,72,48
3990,note_on,,1,0,6,,,,,,,,,,,,,,,,10,,76,48
4019,note_on,,29,0,7,,,,,,,,,,,,,,,,11,,72,0
4019,note_on,,59,0,5,,,,,,,,,,,,,,,,5,,74,0
4019,note_on,,59,0,10,,,,,,,,,,,,,,,,15,,64,0
4019,note_on,,59,0,8,,,,,,,,,,,,,,,,12,,64,0
4019,note_on,,59,0,9,,,,,,,,,,,,,,,,13,,64,0
4019,note_on,,29,0,6,,,,,,,,,,,,,,,,10,,76,0
4020,note_on,,1,0,6,,,,,,,,,,,,,,,,10,,79,48
4020,note_on,,1,0,10,,,,,,,,,,,,,,,,15,,64,48
4020,note_on,,1,0,9,,,,,,,,,,,,,,,,13,,64,48
4020,note_on,,1,0,8,,,,,,,,,,,,,,,,12,,64,48
4020,note_on,,1,0,7,,,,,,,,,,,,,,,,11,,76,48
4020,note_on,,1,0,5,,,,,,,,,,,,,,,,5,,72,64
4049,note_on,,29,0,6,,,,,,,,,,,,,,,,10,,79,0
4049,note_on,,29,0,7,,,,,,,,,,,,,,,,11,,76,0
4050,note_on,,1,0,7,,,,,,,,,,,,,,,,11,,79,48
4050,note_on,,1,0,6,,,,,,,,,,,,,,,,10,,82,48
4079,note_on,,59,0,8,,,,,,,,,,,,,,,,12,,64,0
4079,note_on,,29,0,7,,,,,,,,,,,,,,,,11,,79,0
4079,note_on,,0,0,10,,,,,,,,,,,,,,,,15,,70,0
4079,note_on,,29,0,6,,,,,,,,,,,,,,,,10,,82,0
4079,note_on,,59,0,5,,,,,,,,,,,,,,,,5,,72,0
4079,note_on,,59,0,10,,,,,,,,,,,,,,,,15,,79,0
4079,note_on,,59,0,9,,,,,,,,,,,,,,,,13,,64,0
4079,note_on,,0,0,10,,,,,,,,,,,,,,,,15,,72,0
4079,note_on,,0,0,10,,,,,,,,,,,,,,,,15,,64,0
4080,note_on,,0,0,10,,,,,,,,,,,,,,,,15,,72,48
4080,note_on,,0,0,10,,,,,,,,,,,,,,,,15,,69,48
4080,note_on,,1,0,10,,,,,,,,,,,,,,,,15,,65,48
4080,note_on,,1,0,7,,,,,,,,,,,,,,,,11,,69,48
4080,note_on,,1,0,5,,,,,,,,,,,,,,,,5,,69,64
4080,note_on,,1,0,9,,,,,,,,,,,,,,,,13,,65,48
4080,note_on,,1,0,8,,,,,,,,,,,,,,,,12,,65,48
4080,note_on,,1,0,6,,,,,,,,,,,,,,,,10,,65,48
4109,note_on,,29,0,6,,,,,,,,,,,,,,,,10,,65,0
4109,note_on,,29,0,7,,,,,,,,,,,,,,,,11,,69,0
4110,note_on,,1,0,6,,,,,,,,,,,,,,,,10,,69,48
4110,note_on,,1,0,7,,,,,,,,,,,,,,,,11,,72,48
4139,note_on,,29,0,6,,,,,,,,,,,,,,,,10,,69,0
4139,note_on,,29,0,7,,,,,,,,,,,,,,,,11,,72,0
4139,note_on,,59,0,5,,,,,,,,,,,,,,,,5,,69,0
4139,note_on,,59,0,9,,,,,,,,,,,,,,,,13,,65,0
4139,note_on,,59,0,10,,,,,,,,,,,,,,,,15,,65,0
4139,note_on,,59,0,8,,,,,,,,,,,,,,,,12,,65,0
4140,note_on,,1,0,6,,,,,,,,,,,,,,,,10,,72,48
4140,note_on,,1,0,7,,,,,,,,,,,,,,,,11,,77,48
4140,note_on,,1,0,9,,,,,,,,,,,,,,,,13,,65,48
4140,note_on,,1,0,5,,,,,,,,,,,,,,,,5,,69,64
4140,note_on,,1,0,8,,,,,,,,,,,,,,,,12,,65,48
4140,note_on,,1,0,10,,,,,,,,,,,,,,,,15,,65,48
4169,note_on,,29,0,6,,,,,,,,,,,,,,,,10,,72,0
4169,note_on,,29,0,7,,,,,,,,,,,,,,,,11,,77,0
4170,note_on,,1,0,7,,,,,,,,,,,,,,,,11,,81,48
4170,note_on,,1,0,6,,,,,,,,,,,,,,,,10,,77,48
4199,note_on,,29,0,7,,,,,,,,,,,,,,,,11,,81,0
4199,note_on,,29,0,6,,,,,,,,,,,,,,,,10,,77,0
4199,note_on,,59,0,10,,,,,,,,,,,,,,,,15,,65,0
4199,note_on,,59,0,5,,,,,,,,,,,,,,,,5,,69,0
4199,note_on,,59,0,8,,,,,,,,,,,,,,,,12,,65,0
4199,note_on,,59,0,9,,,,,,,,,,,,,,,,13,,65,0
4200,note_on,,1,0,9,,,,,,,,,,,,,,,,13,,65,48
4200,note_on,,1,0,8,,,,,,,,,,,,,,,,12,,65,48
4200,note_on,,1,0,7,,,,,,,,,,,,,,,,11,,69,48
4200,note_on,,1,0,10,,,,,,,,,,,,,,,,15,,65,48
4200,note_on,,1,0,6,,,,,,,,,,,,,,,,10,,65,48
4229,note_on,,29,0,7,,,,,,,,,,,,,,,,11,,69,0
4229,note_on,,29,0,6,,,,,,,,,,,,,,,,10,,65,0
4230,note_on,,1,0,7,,,,,,,,,,,,,,,,11,,72,48
4230,note_on,,1,0,6,,,,,,,,,,,,,,,,10,,69,48
4259,note_on,,59,0,10,,,,,,,,,,,,,,,,15,,65,0
4259,note_on,,59,0,8,,,,,,,,,,,,,,,,12,,65,0
4259,note_on,,29,0,6,,,,,,,,,,,,,,,,10,,69,0
4259,note_on,,29,0,7,,,,,,,,,,,,,,,,11,,72,0
4259,note_on,,59,0,9,,,,,,,,,,,,,,,,13,,65,0
4260,note_on,,1,0,10,,,,,,,,,,,,,,,,15,,65,48
4260,note_on,,1,0,7,,,,,,,,,,,,,,,,11,,77,48
4260,note_on,,1,0,8,,,,,,,,,,,,,,,,12,,65,48
4260,note_on,,1,0,9,,,,,,,,,,,,,,,,13,,65,48
4260,note_on,,1,0,6,,,,,,,,,,,,,,,,10,,72,48
4289,note_on,,29,0,7,,,,,,,,,,,,,,,,11,,77,0
4289,note_on,,29,0,6,,,,,,,,,,,,,,,,10,,72,0
4290,note_on,,1,0,6,,,,,,,,,,,,,,,,10,,77,48
4290,note_on,,1,0,7,,,,,,,,,,,,,,,,11,,81,48
4319,note_on,,59,0,10,,,,,,,,,,,,,,,,15,,72,0
4319,note_on,,0,0,10,,,,,,,,,,,,,,,,15,,69,0
4319,note_on,,0,0,10,,,,,,,,,,,,,,,,15,,65,0
4319,note_on,,29,0,7,,,,,,,,,,,,,,,,11,,81,0
4319,note_on,,59,0,9,,,,,,,,,,,,,,,,13,,65,0
4319,note_on,,59,0,8,,,,,,,,,,,,,,,,12,,65,0
4319,note_on,,29,0,6,,,,,,,,,,,,,,,,10,,77,0
4320,note_on,,0,0,10,,,,,,,,,,,,,,,,15,,65,48
4320,note_on,,0,0,10,,,,,,,,,,,,,,,,15,,72,48
4320,note_on,,0,0,10,,,,,,,,,,,,,,,,15,,77,48
4320,note_on,,1,0,10,,,,,,,,,,,,,,,,15,,57,48
4320,note_on,,1,0,8,,,,,,,,,,,,,,,,12,,57,48
4320,note_on,,1,0,7,,,,,,,,,,,,,,,,11,,69,48
4320,note_on,,1,0,6,,,,,,,,,,,,,,,,10,,65,48
4320,note_on,,1,0,9,,,,,,,,,,,,,,,,13,,57,48
4349,note_on,,29,0,7,,,,,,,,,,,,,,,,11,,69,0
4349,note_on,,29,0,6,,,,,,,,,,,,,,,,10,,65,0
4350,note_on,,1,0,6,,,,,,,,,,,,,,,,10,,69,48
4350,note_on,,1,0,7,,,,,,,,,,,,,,,,11,,72,48
4379,note_on,,59,0,8,,,,,,,,,,,,,,,,12,,57,0
4379,note_on,,29,0,6,,,,,,,,,,,,,,,,10,,69,0
4379,note_on,,59,0,10,,,,,,,,,,,,,,,,15,,57,0
4379,note_on,,29,0,7,,,,,,,,,,,,,,,,11,,72,0
4379,note_on,,59,0,9,,,,,,,,,,,,,,,,13,,57,0
4380,note_on,,1,0,9,,,,,,,,,,,,,,,,13,,57,48
4380,note_on,,1,0,8,,,,,,,,,,,,,,,,12,,57,48
4380,note_on,,1,0,7,,,,,,,,,,,,,,,,11,,77,48
4380,note_on,,1,0,6,,,,,,,,,,,,,,,,10,,72,48
4380,note_on,,1,0,10,,,,,,,,,,,,,,,,15,,57,48
4409,note_on,,29,0,7,,,,,,,,,,,,,,,,11,,77,0
4409,note_on,,29,0,6,,,,,,,,,,,,,,,,10,,72,0
4410,note_on,,1,0,7,,,,,,,,,,,,,,,,11,,81,48
4410,note_on,,1,0,6,,,,,,,,,,,,,,,,10,,77,48
4439,note_on,,29,0,7,,,,,,,,,,,,,,,,11,,81,0
4439,note_on,,59,0,10,,,,,,,,,,,,,,,,15,,57,0
4439,note_on,,59,0,8,,,,,,,,,,,,,,,,12,,57,0
4439,note_on,,59,0,9,,,,,,,,,,,,,,,,13,,57,0
4439,note_on,,29,0,6,,,,,,,,,,,,,,,,10,,77,0
4440,note_on,,241,0,5,,,,,,,,,,,,,,,,5,,77,64
4440,note_on,,1,0,10,,,,,,,,,,,,,,,,15,,57,48
4440,note_on,,1,0,9,,,,,,,,,,,,,,,,13,,57,48
4440,note_on,,1,0,8,,,,,,,,,,,,,,,,12,,57,48
4440,note_on,,1,0,6,,,,,,,,,,,,,,,,10,,65,48
4440,note_on,,1,0,7,,,,,,,,,,,,,,,,11,,69,48
4469,note_on,,29,0,6,,,,,,,,,,,,,,,,10,,65,0
4469,note_on,,29,0,7,,,,,,,,,,,,,,,,11,,69,0
4470,note_on,,1,0,6,,,,,,,,,,,,,,,,10,,69,48
4470,note_on,,1,0,7,,,,,,,,,,,,,,,,11,,72,48
4499,note_on,,29,0,6,,,,,,,,,,,,,,,,10,,69,0
4499,note_on,,59,0,9,,,,,,,,,,,,,,,,13,,57,0
4499,note_on,,59,0,10,,,,,,,,,,,,,,,,15,,57,0
4499,note_on,,29,0,7,,,,,,,,,,,,,,,,11,,72,0
4499,note_on,,59,0,8,,,,,,,,,,,,,,,,12,,57,0
4500,note_on,,1,0,7,,,,,,,,,,,,,,,,11,,77,48
4500,note_on,,1,0,8,,,,,,,,,,,,,,,,12,,57,48
4500,note_on,,1,0,10,,,,,,,,,,,,,,,,15,,57,48
4500,note_on,,1,0,9,,,,,,,,,,,,,,,,13,,57,48
4500,note_on,,1,0,6,,,,,,,,,,,,,,,,10,,72,48
4529,note_on,,29,0,7,,,,,,,,,,,,,,,,11,,77,0
4529,note_on,,29,0,6,,,,,,,,,,,,,,,,10,,72,0
4530,note_on,,1,0,6,,,,,,,,,,,,,,,,10,,77,48
4530,note_on,,1,0,7,,,,,,,,,,,,,,,,11,,81,48
4559,note_on,,59,0,8,,,,,,,,,,,,,,,,12,,57,0
4559,note_on,,29,0,6,,,,,,,,,,,,,,,,10,,77,0
4559,note_on,,0,0,10,,,,,,,,,,,,,,,,15,,65,0
4559,note_on,,119,0,5,,,,,,,,,,,,,,,,5,,77,0
4559,note_on,,0,0,10,,,,,,,,,,,,,,,,15,,57,0
4559,note_on,,59,0,9,,,,,,,,,,,,,,,,13,,57,0
4559,note_on,,59,0,10,,,,,,,,,,,,,,,,15,,77,0
4559,note_on,,0,0,10,,,,,,,,,,,,,,,,15,,72,0
4559,note_on,,29,0,7,,,,,,,,,,,,,,,,11,,81,0
4560,note_on,,0,0,10,,,,,,,,,,,,,,,,15,,65,48
4560,note_on,,0,0,10,,,,,,,,,,,,,,,,15,,70,48
4560,note_on,,1,0,9,,,,,,,,,,,,,,,,13,,58,48
4560,note_on,,1,0,6,,,,,,,,,,,,,,,,10,,65,48
4560,note_on,,0,0,10,,,,,,,,,,,,,,,,15,,74,48
4560,note_on,,1,0,10,,,,,,,,,,,,,,,,15,,58,48
4560,note_on,,1,0,7,,,,,,,,,,,,,,,,11,,62,48
4560,note_on,,1,0,8,,,,,,,,,,,,,,,,12,,58,48
4560,note_on,,1,0,5,,,,,,,,,,,,,,,,5,,74,64
4589,note_on,,29,0,7,,,,,,,,,,,,,,,,11,,62,0
4589,note_on,,29,0,6,,,,,,,,,,,,,,,,10,,65,0
4590,note_on,,1,0,7,,,,,,,,,,,,,,,,11,,65,48
4590,note_on,,1,0,6,,,,,,,,,,,,,,,,10,,70,48
4619,note_on,,59,0,5,,,,,,,,,,,,,,,,5,,74,0
4619,note_on,,59,0,9,,,,,,,,,,,,,,,,13,,58,0
4619,note_on,,59,0,8,,,,,,,,,,,,,,,,12,,58,0
4619,note_on,,59,0,10,,,,,,,,,,,,,,,,15,,58,0
4619,note_on,,29,0,7,,,,,,,,,,,,,,,,11,,65,0
4619,note_on,,29,0,6,,,,,,,,,,,,,,,,10,,70,0
4620,note_on,,1,0,5,,,,,,,,,,,,,,,,5,,74,64
4620,note_on,,1,0,9,,,,,,,,,,,,,,,,13,,58,48
4620,note_on,,1,0,10,,,,,,,,,,,,,,,,15,,58,48
4620,note_on,,1,0,8,,,,,,,,,,,,,,,,12,,58,48
4620,note_on,,1,0,6,,,,,,,,,,,,,,,,10,,74,48
4620,note_on,,1,0,7,,,,,,,,,,,,,,,,11,,70,48
4649,note_on,,29,0,7,,,,,,,,,,,,,,,,11,,70,0
4649,note_on,,29,0,6,,,,,,,,,,,,,,,,10,,74,0
4650,note_on,,1,0,6,,,,,,,,,,,,,,,,10,,77,48
4650,note_on,,1,0,7,,,,,,,,,,,,,,,,11,,74,48
4679,note_on,,29,0,7,,,,,,,,,,,,,,,,11,,74,0
4679,note_on,,59,0,8,,,,,,,,,,,,,,,,12,,58,0
4679,note_on,,59,0,5,,,,,,,,,,,,,,,,5,,74,0
4679,note_on,,29,0,6,,,,,,,,,,,,,,,,10,,77,0
4679,note_on,,59,0,10,,,,,,,,,,,,,,,,15,,58,0
4679,note_on,,59,0,9,,,,,,,,,,,,,,,,13,,58,0
4680,note_on,,1,0,10,,,,,,,,,,,,,,,,15,,58,48
4680,note_on,,1,0,5,,,,,,,,,,,,,,,,5,,76,64
4680,note_on,,1,0,6,,,,,,,,,,,,,,,,10,,67,48
4680,note_on,,1,0,9,,,,,,,,,,,,,,,,13,,58,48
4680,note_on,,1,0,8,,,,,,,,,,,,,,,,12,,58,48
4680,note_on,,1,0,7,,,,,,,,,,,,,,,,11,,67,48
4739,note_on,,59,0,8,,,,,,,,,,,,,,,,12,,58,0
4739,note_on,,59,0,10,,,,,,,,,,,,,,,,15,,58,0
4739,note_on,,59,0,9,,,,,,,,,,,,,,,,13,,58,0
4739,note_on,,59,0,6,,,,,,,,,,,,,,,,10,,67,0
4739,note_on,,59,0,5,,,,,,,,,,,,,,,,5,,76,0
4739,note_on,,59,0,7,,,,,,,,,,,,,,,,11,,67,0
4740,note_on,,1,0,10,,,,,,,,,,,,,,,,15,,58,48
4740,note_on,,1,0,9,,,,,,,,,,,,,,,,13,,58,48
4740,note_on,,1,0,8,,,,,,,,,,,,,,,,12,,58,48
4740,note_on,,1,0,7,,,,,,,,,,,,,,,,11,,69,48
4740,note_on,,1,0,5,,,,,,,,,,,,,,,,5,,77,64
4740,note_on,,1,0,6,,,,,,,,,,,,,,,,10,,77,48
4799,note_on,,59,0,5,,,,,,,,,,,,,,,,5,,77,0
4799,note_on,,59,0,8,,,,,,,,,,,,,,,,12,,58,0
4799,note_on,,59,0,6,,,,,,,,,,,,,,,,10,,77,0
4799,note_on,,59,0,10,,,,,,,,,,,,,,,,15,,74,0
4799,note_on,,0,0,10,,,,,,,,,,,,,,,,15,,70,0
4799,note_on,,59,0,9,,,,,,,,,,,,,,,,13,,58,0
4799,note_on,,0,0,10,,,,,,,,,,,,,,,,15,,65,0
4799,note_on,,0,0,10,,,,,,,,,,,,,,,,15,,58,0
4799,note_on,,59,0,7,,,,,,,,,,,,,,,,11,,69,0
4800,note_on,,1,0,5,,,,,,,,,,,,,,,,5,,72,64
4919,note_on,,119,0,5,,,,,,,,,,,,,,,,5,,72,0
4919,end_of_track,,0,1,5,,,,,,,,,,,,,,,,,,,
4920,note_on,,121,0,7,,,,,,,,,,,,,,,,11,,67,48
4920,note_on,,121,0,10,,,,,,,,,,,,,,,,15,,60,48
4920,note_on,,121,0,9,,,,,,,,,,,,,,,,13,,60,48
4920,note_on,,0,0,10,,,,,,,,,,,,,,,,15,,64,48
4920,note_on,,121,0,6,,,,,,,,,,,,,,,,10,,76,48
4920,note_on,,0,0,10,,,,,,,,,,,,,,,,15,,72,48
4920,note_on,,121,0,8,,,,,,,,,,,,,,,,12,,60,48
4920,note_on,,0,0,10,,,,,,,,,,,,,,,,15,,67,48
5039,note_on,,0,0,10,,,,,,,,,,,,,,,,15,,64,0
5039,note_on,,119,0,9,,,,,,,,,,,,,,,,13,,60,0
5039,note_on,,119,0,10,,,,,,,,,,,,,,,,15,,60,0
5039,note_on,,0,0,10,,,,,,,,,,,,,,,,15,,72,0
5039,note_on,,0,0,10,,,,,,,,,,,,,,,,15,,67,0
5039,note_on,,119,0,8,,,,,,,,,,,,,,,,12,,60,0
5039,note_on,,119,0,6,,,,,,,,,,,,,,,,10,,76,0
5039,note_on,,119,0,7,,,,,,,,,,,,,,,,11,,67,0
5040,note_on,,0,0,10,,,,,,,,,,,,,,,,15,,65,48
5040,note_on,,0,0,10,,,,,,,,,,,,,,,,15,,69,48
5040,set_tempo,,3120,1,0,,,,,,,,,705882,,,,,,,,,,
5040,note_on,,1,0,7,,,,,,,,,,,,,,,,11,,69,48
5040,note_on,,0,0,10,,,,,,,,,,,,,,,,15,,72,48
5040,note_on,,1,0,10,,,,,,,,,,,,,,,,15,,53,48
5040,note_on,,1,0,8,,,,,,,,,,,,,,,,12,,53,48
5040,note_on,,1,0,6,,,,,,,,,,,,,,,,10,,77,48
5040,note_on,,1,0,9,,,,,,,,,,,,,,,,13,,53,48
5159,note_on,,0,0,10,,,,,,,,,,,,,,,,15,,69,0
5159,note_on,,0,0,10,,,,,,,,,,,,,,,,15,,72,0
5159,note_on,,119,0,10,,,,,,,,,,,,,,,,15,,53,0
5159,note_on,,119,0,8,,,,,,,,,,,,,,,,12,,53,0
5159,end_of_track,,0,1,9,,,,,,,,,,,,,,,,,,,
5159,end_of_track,,0,1,8,,,,,,,,,,,,,,,,,,,
5159,end_of_track,,0,1,7,,,,,,,,,,,,,,,,,,,
5159,note_on,,119,0,7,,,,,,,,,,,,,,,,11,,69,0
5159,note_on,,0,0,10,,,,,,,,,,,,,,,,15,,65,0
5159,end_of_track,,0,1,6,,,,,,,,,,,,,,,,,,,
5159,note_on,,119,0,6,,,,,,,,,,,,,,,,10,,77,0
5159,note_on,,119,0,9,,,,,,,,,,,,,,,,13,,53,0
5159,end_of_track,,0,1,10,,,,,,,,,,,,,,,,,,,
5160,set_tempo,,120,1,0,,,,,,,,,1090909,,,,,,,,,,
5160,end_of_track,,0,1,0,,,,,,,,,,,,,,,,,,,
