tick,type,data,time,meta,track,frame_rate,hours,minutes,seconds,frames,sub_frames,port,key,tempo,numerator,denominator,clocks_per_click,notated_32nd_notes_per_beat,program,channel,control,value,note,velocity
0,sequencer_specific,"(0, 0, 91, 35, 1, 0, 5, 4, 35, 0)",0,1,0,,,,,,,,,,,,,,,,,,,
0,control_change,,0,0,15,,,,,,,,,,,,,,,14,10,90,,
0,control_change,,0,0,15,,,,,,,,,,,,,,,14,7,96,,
0,control_change,,0,0,15,,,,,,,,,,,,,,,14,11,127,,
0,program_change,,0,0,15,,,,,,,,,,,,,,6,14,,,,
0,note_on,,0,0,15,,,,,,,,,,,,,,,14,,,43,64
0,note_on,,0,0,15,,,,,,,,,,,,,,,14,,,62,64
0,note_on,,0,0,15,,,,,,,,,,,,,,,14,,,67,64
0,note_on,,0,0,15,,,,,,,,,,,,,,,14,,,70,64
0,control_change,,0,0,11,,,,,,,,,,,,,,,10,10,48,,
0,control_change,,0,0,11,,,,,,,,,,,,,,,10,7,96,,
0,control_change,,0,0,11,,,,,,,,,,,,,,,10,11,127,,
0,midi_port,,0,1,15,,,,,,,0,,,,,,,,,,,,
0,program_change,,0,0,11,,,,,,,,,,,,,,48,10,,,,
0,track_name,,0,1,11,,,,,,,,,,,,,,,,,,,
0,track_name,,0,1,10,,,,,,,,,,,,,,,,,,,
0,midi_port,,0,1,10,,,,,,,0,,,,,,,,,,,,
0,control_change,,0,0,10,,,,,,,,,,,,,,,8,11,127,,
0,control_change,,0,0,10,,,,,,,,,,,,,,,8,10,80,,
0,program_change,,0,0,10,,,,,,,,,,,,,,60,8,,,,
0,midi_port,,0,1,13,,,,,,,0,,,,,,,,,,,,
0,program_change,,0,0,7,,,,,,,,,,,,,,73,5,,,,
0,control_change,,0,0,7,,,,,,,,,,,,,,,5,7,96,,
0,control_change,,0,0,7,,,,,,,,,,,,,,,5,11,127,,
0,control_change,,0,0,7,,,,,,,,,,,,,,,5,10,32,,
0,midi_port,,0,1,11,,,,,,,0,,,,,,,,,,,,
0,track_name,,0,1,15,,,,,,,,,,,,,,,,,,,
0,note_on,,0,0,14,,,,,,,,,,,,,,,13,,,43,64
0,control_change,,0,0,14,,,,,,,,,,,,,,,13,11,127,,
0,program_change,,0,0,13,,,,,,,,,,,,,,48,12,,,,
0,control_change,,0,0,13,,,,,,,,,,,,,,,12,10,80,,
0,control_change,,0,0,13,,,,,,,,,,,,,,,12,7,96,,
0,control_change,,0,0,13,,,,,,,,,,,,,,,12,11,127,,
0,program_change,,0,0,8,,,,,,,,,,,,,,73,6,,,,
0,control_change,,0,0,8,,,,,,,,,,,,,,,6,10,96,,
0,control_change,,0,0,8,,,,,,,,,,,,,,,6,11,127,,
0,midi_port,,0,1,8,,,,,,,0,,,,,,,,,,,,
0,track_name,,0,1,8,,,,,,,,,,,,,,,,,,,
0,track_name,,0,1,14,,,,,,,,,,,,,,,,,,,
0,midi_port,,0,1,14,,,,,,,0,,,,,,,,,,,,
0,program_change,,0,0,14,,,,,,,,,,,,,,48,13,,,,
0,control_change,,0,0,12,,,,,,,,,,,,,,,11,11,127,,
0,control_change,,0,0,12,,,,,,,,,,,,,,,11,7,96,,
0,control_change,,0,0,12,,,,,,,,,,,,,,,11,10,24,,
0,program_change,,0,0,12,,,,,,,,,,,,,,48,11,,,,
0,midi_port,,0,1,12,,,,,,,0,,,,,,,,,,,,
0,track_name,,0,1,9,,,,,,,,,,,,,,,,,,,
0,midi_port,,0,1,9,,,,,,,0,,,,,,,,,,,,
0,control_change,,0,0,9,,,,,,,,,,,,,,,7,11,127,,
0,control_change,,0,0,9,,,,,,,,,,,,,,,7,10,48,,
0,program_change,,0,0,9,,,,,,,,,,,,,,70,7,,,,
0,track_name,,0,1,12,,,,,,,,,,,,,,,,,,,
0,control_change,,0,0,14,,,,,,,,,,,,,,,13,10,96,,
0,control_change,,0,0,14,,,,,,,,,,,,,,,13,7,96,,
0,midi_port,,0,1,7,,,,,,,0,,,,,,,,,,,,
0,track_name,,0,1,7,,,,,,,,,,,,,,,,,,,
0,track_name,,0,1,13,,,,,,,,,,,,,,,,,,,
0,control_change,,0,0,6,,,,,,,,,,,,,,,1,7,64,,
0,end_of_track,,0,1,2,,,,,,,,,,,,,,,,,,,
0,track_name,,0,1,3,,,,,,,,,,,,,,,,,,,
0,midi_port,,0,1,3,,,,,,,0,,,,,,,,,,,,
0,end_of_track,,0,1,3,,,,,,,,,,,,,,,,,,,
0,midi_port,,0,1,4,,,,,,,0,,,,,,,,,,,,
0,end_of_track,,0,1,4,,,,,,,,,,,,,,,,,,,
0,track_name,,0,1,2,,,,,,,,,,,,,,,,,,,
0,track_name,,0,1,5,,,,,,,,,,,,,,,,,,,
0,program_change,,0,0,5,,,,,,,,,,,,,,68,0,,,,
0,control_change,,0,0,5,,,,,,,,,,,,,,,0,10,70,,
0,control_change,,0,0,5,,,,,,,,,,,,,,,0,7,64,,
0,control_change,,0,0,5,,,,,,,,,,,,,,,0,11,127,,
0,note_on,,0,0,6,,,,,,,,,,,,,,,1,,,43,64
0,control_change,,0,0,6,,,,,,,,,,,,,,,1,11,127,,
0,midi_port,,0,1,5,,,,,,,0,,,,,,,,,,,,
0,end_of_track,,0,1,1,,,,,,,,,,,,,,,,,,,
0,midi_port,,0,1,2,,,,,,,0,,,,,,,,,,,,
0,track_name,,0,1,1,,,,,,,,,,,,,,,,,,,
0,track_name,,0,1,6,,,,,,,,,,,,,,,,,,,
0,time_signature,,0,1,0,,,,,,,,,,4,4,24,8,,,,,,
0,set_tempo,,0,1,0,,,,,,,,,600000,,,,,,,,,,
0,key_signature,,0,1,0,,,,,,,,Bb,,,,,,,,,,,
0,midi_port,,0,1,0,,,,,,,0,,,,,,,,,,,,
0,smpte_offset,,0,1,0,25,32,0,3,0,0,,,,,,,,,,,,,
0,instrument_name,,0,1,0,,,,,,,,,,,,,,,,,,,
0,track_name,,0,1,0,,,,,,,,,,,,,,,,,,,
0,midi_port,,0,1,6,,,,,,,0,,,,,,,,,,,,
0,midi_port,,0,1,1,,,,,,,0,,,,,,,,,,,,
0,control_change,,0,0,6,,,,,,,,,,,,,,,1,10,65,,
0,program_change,,0,0,6,,,,,,,,,,,,,,70,1,,,,
59,note_on,,59,0,14,,,,,,,,,,,,,,,13,,,43,0
59,note_on,,59,0,15,,,,,,,,,,,,,,,14,,,43,0
59,note_on,,59,0,6,,,,,,,,,,,,,,,1,,,43,0
60,note_on,,1,0,15,,,,,,,,,,,,,,,14,,,55,64
60,note_on,,1,0,6,,,,,,,,,,,,,,,1,,,55,64
60,note_on,,1,0,14,,,,,,,,,,,,,,,13,,,55,64
119,note_on,,0,0,15,,,,,,,,,,,,,,,14,,,55,0
119,note_on,,0,0,15,,,,,,,,,,,,,,,14,,,70,0
119,note_on,,59,0,6,,,,,,,,,,,,,,,1,,,55,0
119,note_on,,59,0,15,,,,,,,,,,,,,,,14,,,62,0
119,note_on,,0,0,15,,,,,,,,,,,,,,,14,,,67,0
119,note_on,,59,0,14,,,,,,,,,,,,,,,13,,,55,0
120,note_on,,1,0,6,,,,,,,,,,,,,,,1,,,54,64
120,note_on,,1,0,15,,,,,,,,,,,,,,,14,,,54,64
120,note_on,,0,0,15,,,,,,,,,,,,,,,14,,,69,64
120,note_on,,0,0,15,,,,,,,,,,,,,,,14,,,62,64
120,note_on,,1,0,14,,,,,,,,,,,,,,,13,,,54,64
179,note_on,,0,0,15,,,,,,,,,,,,,,,14,,,69,0
179,note_on,,59,0,6,,,,,,,,,,,,,,,1,,,54,0
179,note_on,,59,0,14,,,,,,,,,,,,,,,13,,,54,0
179,note_on,,0,0,15,,,,,,,,,,,,,,,14,,,62,0
179,note_on,,59,0,15,,,,,,,,,,,,,,,14,,,54,0
180,note_on,,1,0,15,,,,,,,,,,,,,,,14,,,69,64
180,note_on,,0,0,15,,,,,,,,,,,,,,,14,,,50,64
180,note_on,,0,0,15,,,,,,,,,,,,,,,14,,,74,64
180,note_on,,0,0,15,,,,,,,,,,,,,,,14,,,66,64
180,note_on,,1,0,14,,,,,,,,,,,,,,,13,,,50,64
180,note_on,,1,0,6,,,,,,,,,,,,,,,1,,,50,64
180,note_on,,180,0,7,,,,,,,,,,,,,,,5,,,74,78
180,note_on,,180,0,5,,,,,,,,,,,,,,,0,,,74,64
239,note_on,,59,0,6,,,,,,,,,,,,,,,1,,,50,0
239,note_on,,0,0,15,,,,,,,,,,,,,,,14,,,66,0
239,note_on,,59,0,14,,,,,,,,,,,,,,,13,,,50,0
239,note_on,,59,0,15,,,,,,,,,,,,,,,14,,,69,0
239,note_on,,0,0,15,,,,,,,,,,,,,,,14,,,50,0
239,note_on,,0,0,15,,,,,,,,,,,,,,,14,,,74,0
239,note_on,,59,0,7,,,,,,,,,,,,,,,5,,,74,0
239,note_on,,59,0,5,,,,,,,,,,,,,,,0,,,74,0
240,note_on,,1,0,14,,,,,,,,,,,,,,,13,,,51,64
240,note_on,,0,0,15,,,,,,,,,,,,,,,14,,,63,64
240,note_on,,1,0,15,,,,,,,,,,,,,,,14,,,51,64
240,note_on,,0,0,15,,,,,,,,,,,,,,,14,,,67,64
240,note_on,,0,0,15,,,,,,,,,,,,,,,14,,,58,64
240,note_on,,1,0,7,,,,,,,,,,,,,,,5,,,67,78
240,note_on,,1,0,6,,,,,,,,,,,,,,,1,,,51,64
240,note_on,,1,0,5,,,,,,,,,,,,,,,0,,,67,64
299,note_on,,59,0,14,,,,,,,,,,,,,,,13,,,51,0
299,note_on,,0,0,15,,,,,,,,,,,,,,,14,,,58,0
299,note_on,,0,0,15,,,,,,,,,,,,,,,14,,,63,0
299,note_on,,59,0,15,,,,,,,,,,,,,,,14,,,51,0
299,note_on,,59,0,6,,,,,,,,,,,,,,,1,,,51,0
300,note_on,,0,0,15,,,,,,,,,,,,,,,14,,,55,64
300,note_on,,0,0,15,,,,,,,,,,,,,,,14,,,62,64
300,note_on,,1,0,15,,,,,,,,,,,,,,,14,,,46,64
300,note_on,,1,0,14,,,,,,,,,,,,,,,13,,,46,64
300,note_on,,1,0,6,,,,,,,,,,,,,,,1,,,46,64
359,note_on,,119,0,5,,,,,,,,,,,,,,,0,,,67,0
359,note_on,,119,0,7,,,,,,,,,,,,,,,5,,,67,0
359,note_on,,0,0,15,,,,,,,,,,,,,,,14,,,55,0
359,note_on,,0,0,15,,,,,,,,,,,,,,,14,,,46,0
359,note_on,,59,0,15,,,,,,,,,,,,,,,14,,,67,0
359,note_on,,0,0,15,,,,,,,,,,,,,,,14,,,62,0
359,note_on,,59,0,14,,,,,,,,,,,,,,,13,,,46,0
359,note_on,,59,0,6,,,,,,,,,,,,,,,1,,,46,0
360,note_on,,1,0,6,,,,,,,,,,,,,,,1,,,48,64
360,note_on,,1,0,7,,,,,,,,,,,,,,,5,,,69,78
360,note_on,,1,0,14,,,,,,,,,,,,,,,13,,,48,64
360,note_on,,0,0,15,,,,,,,,,,,,,,,14,,,63,64
360,note_on,,0,0,15,,,,,,,,,,,,,,,14,,,67,64
360,note_on,,1,0,5,,,,,,,,,,,,,,,0,,,69,64
360,note_on,,0,0,15,,,,,,,,,,,,,,,14,,,69,64
360,note_on,,1,0,15,,,,,,,,,,,,,,,14,,,48,64
419,note_on,,0,0,15,,,,,,,,,,,,,,,14,,,63,0
419,note_on,,59,0,15,,,,,,,,,,,,,,,14,,,48,0
419,note_on,,0,0,15,,,,,,,,,,,,,,,14,,,67,0
419,note_on,,59,0,14,,,,,,,,,,,,,,,13,,,48,0
419,note_on,,59,0,6,,,,,,,,,,,,,,,1,,,48,0
420,note_on,,1,0,14,,,,,,,,,,,,,,,13,,,50,64
420,note_on,,1,0,15,,,,,,,,,,,,,,,14,,,50,64
420,note_on,,0,0,15,,,,,,,,,,,,,,,14,,,65,64
420,note_on,,0,0,15,,,,,,,,,,,,,,,14,,,62,64
420,note_on,,1,0,6,,,,,,,,,,,,,,,1,,,50,64
479,note_on,,59,0,6,,,,,,,,,,,,,,,1,,,50,0
479,note_on,,59,0,14,,,,,,,,,,,,,,,13,,,50,0
479,note_on,,59,0,15,,,,,,,,,,,,,,,14,,,69,0
479,note_on,,0,0,15,,,,,,,,,,,,,,,14,,,50,0
479,note_on,,119,0,5,,,,,,,,,,,,,,,0,,,69,0
479,note_on,,0,0,15,,,,,,,,,,,,,,,14,,,65,0
479,note_on,,0,0,15,,,,,,,,,,,,,,,14,,,62,0
479,note_on,,119,0,7,,,,,,,,,,,,,,,5,,,69,0
480,note_on,,0,0,15,,,,,,,,,,,,,,,14,,,67,64
480,note_on,,1,0,14,,,,,,,,,,,,,,,13,,,55,64
480,note_on,,1,0,15,,,,,,,,,,,,,,,14,,,55,64
480,note_on,,1,0,6,,,,,,,,,,,,,,,1,,,55,64
480,note_on,,1,0,7,,,,,,,,,,,,,,,5,,,70,78
480,note_on,,0,0,15,,,,,,,,,,,,,,,14,,,62,64
480,note_on,,0,0,15,,,,,,,,,,,,,,,14,,,70,64
480,note_on,,1,0,5,,,,,,,,,,,,,,,0,,,70,64
539,note_on,,59,0,5,,,,,,,,,,,,,,,0,,,70,0
539,note_on,,59,0,6,,,,,,,,,,,,,,,1,,,55,0
539,note_on,,59,0,7,,,,,,,,,,,,,,,5,,,70,0
539,note_on,,59,0,15,,,,,,,,,,,,,,,14,,,55,0
539,note_on,,0,0,15,,,,,,,,,,,,,,,14,,,70,0
539,note_on,,0,0,15,,,,,,,,,,,,,,,14,,,62,0
539,note_on,,0,0,15,,,,,,,,,,,,,,,14,,,67,0
539,note_on,,59,0,14,,,,,,,,,,,,,,,13,,,55,0
540,note_on,,1,0,5,,,,,,,,,,,,,,,0,,,72,64
540,note_on,,1,0,6,,,,,,,,,,,,,,,1,,,48,64
540,note_on,,1,0,14,,,,,,,,,,,,,,,13,,,48,64
540,note_on,,1,0,15,,,,,,,,,,,,,,,14,,,48,64
540,note_on,,1,0,7,,,,,,,,,,,,,,,5,,,72,78
540,note_on,,0,0,15,,,,,,,,,,,,,,,14,,,69,64
540,note_on,,0,0,15,,,,,,,,,,,,,,,14,,,63,64
540,note_on,,0,0,15,,,,,,,,,,,,,,,14,,,72,64
599,note_on,,0,0,15,,,,,,,,,,,,,,,14,,,63,0
599,note_on,,59,0,14,,,,,,,,,,,,,,,13,,,48,0
599,note_on,,59,0,15,,,,,,,,,,,,,,,14,,,48,0
599,note_on,,59,0,6,,,,,,,,,,,,,,,1,,,48,0
599,note_on,,59,0,5,,,,,,,,,,,,,,,0,,,72,0
599,note_on,,0,0,15,,,,,,,,,,,,,,,14,,,72,0
599,note_on,,59,0,7,,,,,,,,,,,,,,,5,,,72,0
599,note_on,,0,0,15,,,,,,,,,,,,,,,14,,,69,0
600,note_on,,0,0,15,,,,,,,,,,,,,,,14,,,57,64
600,note_on,,1,0,6,,,,,,,,,,,,,,,1,,,50,64
600,note_on,,0,0,15,,,,,,,,,,,,,,,14,,,69,64
600,note_on,,1,0,14,,,,,,,,,,,,,,,13,,,50,64
600,note_on,,1,0,15,,,,,,,,,,,,,,,14,,,50,64
600,note_on,,1,0,7,,,,,,,,,,,,,,,5,,,69,78
600,note_on,,1,0,5,,,,,,,,,,,,,,,0,,,69,64
600,note_on,,0,0,15,,,,,,,,,,,,,,,14,,,66,64
659,note_on,,59,0,15,,,,,,,,,,,,,,,14,,,50,0
659,note_on,,59,0,14,,,,,,,,,,,,,,,13,,,50,0
659,note_on,,59,0,6,,,,,,,,,,,,,,,1,,,50,0
659,note_on,,0,0,15,,,,,,,,,,,,,,,14,,,57,0
660,note_on,,0,0,15,,,,,,,,,,,,,,,14,,,62,64
660,note_on,,1,0,15,,,,,,,,,,,,,,,14,,,38,64
660,note_on,,1,0,14,,,,,,,,,,,,,,,13,,,38,64
660,note_on,,1,0,6,,,,,,,,,,,,,,,1,,,38,64
719,note_on,,0,0,15,,,,,,,,,,,,,,,14,,,38,0
719,note_on,,0,0,15,,,,,,,,,,,,,,,14,,,62,0
719,note_on,,119,0,7,,,,,,,,,,,,,,,5,,,69,0
719,note_on,,59,0,6,,,,,,,,,,,,,,,1,,,38,0
719,note_on,,59,0,14,,,,,,,,,,,,,,,13,,,38,0
719,note_on,,119,0,5,,,,,,,,,,,,,,,0,,,69,0
719,note_on,,59,0,15,,,,,,,,,,,,,,,14,,,69,0
719,note_on,,0,0,15,,,,,,,,,,,,,,,14,,,66,0
720,note_on,,0,0,15,,,,,,,,,,,,,,,14,,,58,64
720,note_on,,0,0,15,,,,,,,,,,,,,,,14,,,67,64
720,note_on,,1,0,15,,,,,,,,,,,,,,,14,,,43,64
720,note_on,,1,0,7,,,,,,,,,,,,,,,5,,,67,78
720,note_on,,1,0,14,,,,,,,,,,,,,,,13,,,43,64
720,note_on,,0,0,15,,,,,,,,,,,,,,,14,,,62,64
720,note_on,,1,0,6,,,,,,,,,,,,,,,1,,,43,64
720,note_on,,1,0,5,,,,,,,,,,,,,,,0,,,67,64
779,note_on,,59,0,14,,,,,,,,,,,,,,,13,,,43,0
779,note_on,,0,0,15,,,,,,,,,,,,,,,14,,,62,0
779,note_on,,59,0,15,,,,,,,,,,,,,,,14,,,43,0
779,note_on,,59,0,6,,,,,,,,,,,,,,,1,,,43,0
779,note_on,,0,0,15,,,,,,,,,,,,,,,14,,,58,0
780,note_on,,1,0,14,,,,,,,,,,,,,,,13,,,55,64
780,note_on,,1,0,15,,,,,,,,,,,,,,,14,,,55,64
780,note_on,,0,0,15,,,,,,,,,,,,,,,14,,,58,64
780,note_on,,780,0,11,,,,,,,,,,,,,,,10,,,74,48
780,note_on,,780,0,13,,,,,,,,,,,,,,,12,,,67,48
780,note_on,,780,0,12,,,,,,,,,,,,,,,11,,,70,48
780,note_on,,1,0,6,,,,,,,,,,,,,,,1,,,55,64
839,note_on,,59,0,15,,,,,,,,,,,,,,,14,,,55,0
839,note_on,,59,0,13,,,,,,,,,,,,,,,12,,,67,0
839,note_on,,119,0,5,,,,,,,,,,,,,,,0,,,67,0
839,note_on,,0,0,15,,,,,,,,,,,,,,,14,,,58,0
839,note_on,,59,0,11,,,,,,,,,,,,,,,10,,,74,0
839,note_on,,59,0,12,,,,,,,,,,,,,,,11,,,70,0
839,note_on,,59,0,14,,,,,,,,,,,,,,,13,,,55,0
839,note_on,,59,0,6,,,,,,,,,,,,,,,1,,,55,0
839,note_on,,119,0,7,,,,,,,,,,,,,,,5,,,67,0
840,note_on,,1,0,11,,,,,,,,,,,,,,,10,,,79,48
840,note_on,,1,0,13,,,,,,,,,,,,,,,12,,,67,48
840,note_on,,0,0,15,,,,,,,,,,,,,,,14,,,62,64
840,note_on,,1,0,15,,,,,,,,,,,,,,,14,,,58,64
840,note_on,,1,0,14,,,,,,,,,,,,,,,13,,,58,64
840,note_on,,1,0,12,,,,,,,,,,,,,,,11,,,74,48
840,note_on,,1,0,6,,,,,,,,,,,,,,,1,,,58,64
899,note_on,,59,0,6,,,,,,,,,,,,,,,1,,,58,0
899,note_on,,59,0,15,,,,,,,,,,,,,,,14,,,58,0
899,note_on,,0,0,15,,,,,,,,,,,,,,,14,,,62,0
899,note_on,,59,0,11,,,,,,,,,,,,,,,10,,,79,0
899,note_on,,59,0,12,,,,,,,,,,,,,,,11,,,74,0
899,note_on,,59,0,13,,,,,,,,,,,,,,,12,,,67,0
899,note_on,,59,0,14,,,,,,,,,,,,,,,13,,,58,0
900,note_on,,1,0,6,,,,,,,,,,,,,,,1,,,55,64
900,note_on,,1,0,15,,,,,,,,,,,,,,,14,,,55,64
900,note_on,,0,0,15,,,,,,,,,,,,,,,14,,,58,64
900,note_on,,1,0,11,,,,,,,,,,,,,,,10,,,74,48
900,note_on,,1,0,13,,,,,,,,,,,,,,,12,,,55,48
900,note_on,,1,0,12,,,,,,,,,,,,,,,11,,,70,48
900,note_on,,1,0,14,,,,,,,,,,,,,,,13,,,55,64
900,note_on,,61,0,7,,,,,,,,,,,,,,,5,,,74,78
900,note_on,,61,0,5,,,,,,,,,,,,,,,0,,,74,64
959,note_on,,59,0,12,,,,,,,,,,,,,,,11,,,70,0
959,note_on,,59,0,11,,,,,,,,,,,,,,,10,,,74,0
959,note_on,,59,0,6,,,,,,,,,,,,,,,1,,,55,0
959,note_on,,0,0,15,,,,,,,,,,,,,,,14,,,58,0
959,note_on,,0,0,15,,,,,,,,,,,,,,,14,,,55,0
959,note_on,,59,0,15,,,,,,,,,,,,,,,14,,,67,0
959,note_on,,59,0,13,,,,,,,,,,,,,,,12,,,55,0
959,note_on,,59,0,14,,,,,,,,,,,,,,,13,,,55,0
959,note_on,,59,0,7,,,,,,,,,,,,,,,5,,,74,0
959,note_on,,59,0,5,,,,,,,,,,,,,,,0,,,74,0
960,note_on,,1,0,7,,,,,,,,,,,,,,,5,,,79,78
960,note_on,,1,0,5,,,,,,,,,,,,,,,0,,,79,64
1019,note_on,,59,0,5,,,,,,,,,,,,,,,0,,,79,0
1019,note_on,,59,0,7,,,,,,,,,,,,,,,5,,,79,0
1020,note_on,,1,0,5,,,,,,,,,,,,,,,0,,,79,64
1020,note_on,,61,0,6,,,,,,,,,,,,,,,1,,,43,64
1020,note_on,,0,0,15,,,,,,,,,,,,,,,14,,,58,64
1020,note_on,,0,0,15,,,,,,,,,,,,,,,14,,,62,64
1020,note_on,,61,0,15,,,,,,,,,,,,,,,14,,,43,64
1020,note_on,,1,0,7,,,,,,,,,,,,,,,5,,,79,78
1020,note_on,,61,0,14,,,,,,,,,,,,,,,13,,,43,64
1079,note_on,,59,0,14,,,,,,,,,,,,,,,13,,,43,0
1079,note_on,,59,0,7,,,,,,,,,,,,,,,5,,,79,0
1079,note_on,,59,0,5,,,,,,,,,,,,,,,0,,,79,0
1079,note_on,,59,0,6,,,,,,,,,,,,,,,1,,,43,0
1079,note_on,,0,0,15,,,,,,,,,,,,,,,14,,,62,0
1079,note_on,,59,0,15,,,,,,,,,,,,,,,14,,,43,0
1079,note_on,,0,0,15,,,,,,,,,,,,,,,14,,,58,0
1080,note_on,,1,0,7,,,,,,,,,,,,,,,5,,,79,78
1080,note_on,,1,0,6,,,,,,,,,,,,,,,1,,,46,64
1080,note_on,,1,0,14,,,,,,,,,,,,,,,13,,,46,64
1080,note_on,,0,0,15,,,,,,,,,,,,,,,14,,,55,64
1080,note_on,,0,0,15,,,,,,,,,,,,,,,14,,,67,64
1080,note_on,,0,0,15,,,,,,,,,,,,,,,14,,,62,64
1080,note_on,,1,0,15,,,,,,,,,,,,,,,14,,,46,64
1080,note_on,,1,0,5,,,,,,,,,,,,,,,0,,,79,64
1139,note_on,,0,0,15,,,,,,,,,,,,,,,14,,,67,0
1139,note_on,,0,0,15,,,,,,,,,,,,,,,14,,,55,0
1139,note_on,,59,0,6,,,,,,,,,,,,,,,1,,,46,0
1139,note_on,,59,0,14,,,,,,,,,,,,,,,13,,,46,0
1139,note_on,,59,0,15,,,,,,,,,,,,,,,14,,,46,0
1139,note_on,,0,0,15,,,,,,,,,,,,,,,14,,,62,0
1139,note_on,,59,0,5,,,,,,,,,,,,,,,0,,,79,0
1139,note_on,,59,0,7,,,,,,,,,,,,,,,5,,,79,0
1140,note_on,,0,0,15,,,,,,,,,,,,,,,14,,,70,64
1140,note_on,,0,0,15,,,,,,,,,,,,,,,14,,,67,64
1140,note_on,,1,0,6,,,,,,,,,,,,,,,1,,,43,64
1140,note_on,,0,0,15,,,,,,,,,,,,,,,14,,,62,64
1140,note_on,,1,0,7,,,,,,,,,,,,,,,5,,,79,78
1140,note_on,,1,0,15,,,,,,,,,,,,,,,14,,,43,64
1140,note_on,,1,0,14,,,,,,,,,,,,,,,13,,,43,64
1140,note_on,,1,0,5,,,,,,,,,,,,,,,0,,,79,64
1199,note_on,,59,0,7,,,,,,,,,,,,,,,5,,,79,0
1199,note_on,,59,0,14,,,,,,,,,,,,,,,13,,,43,0
1199,note_on,,0,0,15,,,,,,,,,,,,,,,14,,,62,0
1199,note_on,,0,0,15,,,,,,,,,,,,,,,14,,,67,0
1199,note_on,,59,0,15,,,,,,,,,,,,,,,14,,,43,0
1199,note_on,,59,0,6,,,,,,,,,,,,,,,1,,,43,0
1199,note_on,,59,0,5,,,,,,,,,,,,,,,0,,,79,0
1199,note_on,,0,0,15,,,,,,,,,,,,,,,14,,,70,0
1200,note_on,,1,0,5,,,,,,,,,,,,,,,0,,,77,64
1200,note_on,,1,0,6,,,,,,,,,,,,,,,1,,,50,64
1200,note_on,,1,0,7,,,,,,,,,,,,,,,5,,,77,78
1200,note_on,,0,0,15,,,,,,,,,,,,,,,14,,,62,64
1200,note_on,,1,0,14,,,,,,,,,,,,,,,13,,,50,64
1200,note_on,,0,0,15,,,,,,,,,,,,,,,14,,,65,64
1200,note_on,,0,0,15,,,,,,,,,,,,,,,14,,,69,64
1200,note_on,,1,0,15,,,,,,,,,,,,,,,14,,,50,64
1229,note_on,,29,0,7,,,,,,,,,,,,,,,5,,,77,0
1229,note_on,,29,0,5,,,,,,,,,,,,,,,0,,,77,0
1230,note_on,,1,0,7,,,,,,,,,,,,,,,5,,,79,78
1230,note_on,,1,0,5,,,,,,,,,,,,,,,0,,,79,64
1259,note_on,,29,0,7,,,,,,,,,,,,,,,5,,,79,0
1259,note_on,,29,0,5,,,,,,,,,,,,,,,0,,,79,0
1260,note_on,,1,0,7,,,,,,,,,,,,,,,5,,,77,78
1260,note_on,,1,0,5,,,,,,,,,,,,,,,0,,,77,64
1289,note_on,,29,0,5,,,,,,,,,,,,,,,0,,,77,0
1289,note_on,,29,0,7,,,,,,,,,,,,,,,5,,,77,0
1290,note_on,,1,0,5,,,,,,,,,,,,,,,0,,,75,64
1290,note_on,,1,0,7,,,,,,,,,,,,,,,5,,,75,78
1319,note_on,,0,0,15,,,,,,,,,,,,,,,14,,,62,0
1319,note_on,,119,0,14,,,,,,,,,,,,,,,13,,,50,0
1319,note_on,,119,0,6,,,,,,,,,,,,,,,1,,,50,0
1319,note_on,,29,0,5,,,,,,,,,,,,,,,0,,,75,0
1319,note_on,,119,0,15,,,,,,,,,,,,,,,14,,,50,0
1319,note_on,,0,0,15,,,,,,,,,,,,,,,14,,,69,0
1319,note_on,,0,0,15,,,,,,,,,,,,,,,14,,,65,0
1319,note_on,,29,0,7,,,,,,,,,,,,,,,5,,,75,0
1320,note_on,,1,0,7,,,,,,,,,,,,,,,5,,,77,78
1320,note_on,,1,0,5,,,,,,,,,,,,,,,0,,,77,64
1349,note_on,,29,0,5,,,,,,,,,,,,,,,0,,,77,0
1349,note_on,,29,0,7,,,,,,,,,,,,,,,5,,,77,0
1350,note_on,,1,0,5,,,,,,,,,,,,,,,0,,,74,64
1350,note_on,,1,0,7,,,,,,,,,,,,,,,5,,,74,78
1379,note_on,,29,0,5,,,,,,,,,,,,,,,0,,,74,0
1379,note_on,,29,0,7,,,,,,,,,,,,,,,5,,,74,0
1380,note_on,,1,0,5,,,,,,,,,,,,,,,0,,,72,64
1380,note_on,,1,0,7,,,,,,,,,,,,,,,5,,,72,78
1380,note_on,,61,0,6,,,,,,,,,,,,,,,1,,,53,64
1380,note_on,,0,0,15,,,,,,,,,,,,,,,14,,,62,64
1380,note_on,,0,0,15,,,,,,,,,,,,,,,14,,,69,64
1380,note_on,,0,0,15,,,,,,,,,,,,,,,14,,,57,64
1380,note_on,,61,0,14,,,,,,,,,,,,,,,13,,,53,64
1380,note_on,,0,0,15,,,,,,,,,,,,,,,14,,,74,64
1380,note_on,,61,0,15,,,,,,,,,,,,,,,14,,,53,64
1409,note_on,,29,0,7,,,,,,,,,,,,,,,5,,,72,0
1409,note_on,,29,0,5,,,,,,,,,,,,,,,0,,,72,0
1410,note_on,,1,0,7,,,,,,,,,,,,,,,5,,,74,78
1410,note_on,,1,0,5,,,,,,,,,,,,,,,0,,,74,64
1439,note_on,,0,0,15,,,,,,,,,,,,,,,14,,,74,0
1439,note_on,,29,0,7,,,,,,,,,,,,,,,5,,,74,0
1439,note_on,,59,0,15,,,,,,,,,,,,,,,14,,,53,0
1439,note_on,,59,0,14,,,,,,,,,,,,,,,13,,,53,0
1439,note_on,,0,0,15,,,,,,,,,,,,,,,14,,,69,0
1439,note_on,,0,0,15,,,,,,,,,,,,,,,14,,,62,0
1439,note_on,,0,0,15,,,,,,,,,,,,,,,14,,,57,0
1439,note_on,,29,0,5,,,,,,,,,,,,,,,0,,,74,0
1439,note_on,,59,0,6,,,,,,,,,,,,,,,1,,,53,0
1440,note_on,,0,0,15,,,,,,,,,,,,,,,14,,,58,64
1440,note_on,,0,0,15,,,,,,,,,,,,,,,14,,,67,64
1440,note_on,,1,0,14,,,,,,,,,,,,,,,13,,,55,64
1440,note_on,,1,0,6,,,,,,,,,,,,,,,1,,,55,64
1440,note_on,,1,0,7,,,,,,,,,,,,,,,5,,,75,78
1440,note_on,,1,0,15,,,,,,,,,,,,,,,14,,,55,64
1440,note_on,,0,0,15,,,,,,,,,,,,,,,14,,,75,64
1440,note_on,,1,0,5,,,,,,,,,,,,,,,0,,,75,64
1469,note_on,,29,0,7,,,,,,,,,,,,,,,5,,,75,0
1469,note_on,,29,0,5,,,,,,,,,,,,,,,0,,,75,0
1470,note_on,,1,0,5,,,,,,,,,,,,,,,0,,,77,64
1470,note_on,,1,0,7,,,,,,,,,,,,,,,5,,,77,78
1499,note_on,,0,0,15,,,,,,,,,,,,,,,14,,,58,0
1499,note_on,,59,0,14,,,,,,,,,,,,,,,13,,,55,0
1499,note_on,,59,0,6,,,,,,,,,,,,,,,1,,,55,0
1499,note_on,,29,0,5,,,,,,,,,,,,,,,0,,,77,0
1499,note_on,,29,0,7,,,,,,,,,,,,,,,5,,,77,0
1499,note_on,,59,0,15,,,,,,,,,,,,,,,14,,,55,0
1500,note_on,,0,0,15,,,,,,,,,,,,,,,14,,,57,64
1500,note_on,,1,0,6,,,,,,,,,,,,,,,1,,,53,64
1500,note_on,,1,0,14,,,,,,,,,,,,,,,13,,,53,64
1500,note_on,,1,0,15,,,,,,,,,,,,,,,14,,,53,64
1500,note_on,,1,0,7,,,,,,,,,,,,,,,5,,,75,78
1500,note_on,,1,0,5,,,,,,,,,,,,,,,0,,,75,64
1529,note_on,,29,0,7,,,,,,,,,,,,,,,5,,,75,0
1529,note_on,,29,0,5,,,,,,,,,,,,,,,0,,,75,0
1530,note_on,,1,0,5,,,,,,,,,,,,,,,0,,,74,64
1530,note_on,,1,0,7,,,,,,,,,,,,,,,5,,,74,78
1559,note_on,,59,0,6,,,,,,,,,,,,,,,1,,,53,0
1559,note_on,,0,0,15,,,,,,,,,,,,,,,14,,,57,0
1559,note_on,,59,0,15,,,,,,,,,,,,,,,14,,,53,0
1559,note_on,,29,0,7,,,,,,,,,,,,,,,5,,,74,0
1559,note_on,,29,0,5,,,,,,,,,,,,,,,0,,,74,0
1559,note_on,,59,0,14,,,,,,,,,,,,,,,13,,,53,0
1560,note_on,,0,0,15,,,,,,,,,,,,,,,14,,,58,64
1560,note_on,,1,0,15,,,,,,,,,,,,,,,14,,,55,64
1560,note_on,,1,0,5,,,,,,,,,,,,,,,0,,,75,64
1560,note_on,,1,0,6,,,,,,,,,,,,,,,1,,,55,64
1560,note_on,,1,0,14,,,,,,,,,,,,,,,13,,,55,64
1560,note_on,,1,0,7,,,,,,,,,,,,,,,5,,,75,78
1589,note_on,,29,0,5,,,,,,,,,,,,,,,0,,,75,0
1589,note_on,,29,0,7,,,,,,,,,,,,,,,5,,,75,0
1590,note_on,,1,0,5,,,,,,,,,,,,,,,0,,,72,64
1590,note_on,,1,0,7,,,,,,,,,,,,,,,5,,,72,78
1619,note_on,,29,0,7,,,,,,,,,,,,,,,5,,,72,0
1619,note_on,,0,0,15,,,,,,,,,,,,,,,14,,,58,0
1619,note_on,,0,0,15,,,,,,,,,,,,,,,14,,,55,0
1619,note_on,,0,0,15,,,,,,,,,,,,,,,14,,,67,0
1619,note_on,,59,0,15,,,,,,,,,,,,,,,14,,,75,0
1619,note_on,,59,0,6,,,,,,,,,,,,,,,1,,,55,0
1619,note_on,,29,0,5,,,,,,,,,,,,,,,0,,,72,0
1619,note_on,,59,0,14,,,,,,,,,,,,,,,13,,,55,0
1620,note_on,,0,0,15,,,,,,,,,,,,,,,14,,,60,64
1620,note_on,,1,0,15,,,,,,,,,,,,,,,14,,,57,64
1620,note_on,,1,0,6,,,,,,,,,,,,,,,1,,,57,64
1620,note_on,,1,0,14,,,,,,,,,,,,,,,13,,,57,64
1620,note_on,,1,0,5,,,,,,,,,,,,,,,0,,,70,64
1620,note_on,,0,0,15,,,,,,,,,,,,,,,14,,,72,64
1620,note_on,,1,0,7,,,,,,,,,,,,,,,5,,,70,78
1620,note_on,,0,0,15,,,,,,,,,,,,,,,14,,,77,64
1649,note_on,,29,0,7,,,,,,,,,,,,,,,5,,,70,0
1649,note_on,,29,0,5,,,,,,,,,,,,,,,0,,,70,0
1650,note_on,,1,0,7,,,,,,,,,,,,,,,5,,,72,78
1650,note_on,,1,0,5,,,,,,,,,,,,,,,0,,,72,64
1679,note_on,,0,0,15,,,,,,,,,,,,,,,14,,,77,0
1679,note_on,,0,0,15,,,,,,,,,,,,,,,14,,,72,0
1679,note_on,,29,0,7,,,,,,,,,,,,,,,5,,,72,0
1679,note_on,,59,0,14,,,,,,,,,,,,,,,13,,,57,0
1679,note_on,,29,0,5,,,,,,,,,,,,,,,0,,,72,0
1679,note_on,,0,0,15,,,,,,,,,,,,,,,14,,,60,0
1679,note_on,,59,0,15,,,,,,,,,,,,,,,14,,,57,0
1679,note_on,,59,0,6,,,,,,,,,,,,,,,1,,,57,0
1680,note_on,,1,0,7,,,,,,,,,,,,,,,5,,,74,78
1680,note_on,,1,0,14,,,,,,,,,,,,,,,13,,,58,64
1680,note_on,,0,0,15,,,,,,,,,,,,,,,14,,,70,64
1680,note_on,,1,0,5,,,,,,,,,,,,,,,0,,,74,64
1680,note_on,,0,0,15,,,,,,,,,,,,,,,14,,,62,64
1680,note_on,,1,0,15,,,,,,,,,,,,,,,14,,,58,64
1680,note_on,,1,0,6,,,,,,,,,,,,,,,1,,,58,64
1680,note_on,,0,0,15,,,,,,,,,,,,,,,14,,,74,64
1739,note_on,,59,0,7,,,,,,,,,,,,,,,5,,,74,0
1739,note_on,,59,0,5,,,,,,,,,,,,,,,0,,,74,0
1740,note_on,,1,0,7,,,,,,,,,,,,,,,5,,,67,78
1740,note_on,,781,0,11,,,,,,,,,,,,,,,10,,,74,48
1740,note_on,,781,0,13,,,,,,,,,,,,,,,12,,,62,48
1740,note_on,,1,0,5,,,,,,,,,,,,,,,0,,,67,64
1740,note_on,,781,0,12,,,,,,,,,,,,,,,11,,,70,48
1799,note_on,,0,0,15,,,,,,,,,,,,,,,14,,,74,0
1799,note_on,,59,0,11,,,,,,,,,,,,,,,10,,,74,0
1799,note_on,,119,0,14,,,,,,,,,,,,,,,13,,,58,0
1799,note_on,,59,0,13,,,,,,,,,,,,,,,12,,,62,0
1799,note_on,,59,0,5,,,,,,,,,,,,,,,0,,,67,0
1799,note_on,,119,0,15,,,,,,,,,,,,,,,14,,,58,0
1799,note_on,,0,0,15,,,,,,,,,,,,,,,14,,,62,0
1799,note_on,,59,0,7,,,,,,,,,,,,,,,5,,,67,0
1799,note_on,,0,0,15,,,,,,,,,,,,,,,14,,,70,0
1799,note_on,,119,0,6,,,,,,,,,,,,,,,1,,,58,0
1799,note_on,,59,0,12,,,,,,,,,,,,,,,11,,,70,0
1800,note_on,,1,0,5,,,,,,,,,,,,,,,0,,,79,64
1800,note_on,,1,0,11,,,,,,,,,,,,,,,10,,,82,48
1800,note_on,,1,0,7,,,,,,,,,,,,,,,5,,,79,78
1800,note_on,,1,0,12,,,,,,,,,,,,,,,11,,,74,48
1800,note_on,,1,0,13,,,,,,,,,,,,,,,12,,,67,48
1859,note_on,,59,0,11,,,,,,,,,,,,,,,10,,,82,0
1859,note_on,,59,0,12,,,,,,,,,,,,,,,11,,,74,0
1860,note_on,,1,0,11,,,,,,,,,,,,,,,10,,,74,48
1860,note_on,,61,0,14,,,,,,,,,,,,,,,13,,,55,64
1860,note_on,,0,0,15,,,,,,,,,,,,,,,14,,,76,64
1860,note_on,,61,0,15,,,,,,,,,,,,,,,14,,,55,64
1860,note_on,,61,0,6,,,,,,,,,,,,,,,1,,,55,64
1860,note_on,,0,0,15,,,,,,,,,,,,,,,14,,,70,64
1860,note_on,,0,0,15,,,,,,,,,,,,,,,14,,,67,64
1860,note_on,,1,0,12,,,,,,,,,,,,,,,11,,,70,48
1919,note_on,,59,0,11,,,,,,,,,,,,,,,10,,,74,0
1919,note_on,,59,0,12,,,,,,,,,,,,,,,11,,,70,0
1919,note_on,,59,0,15,,,,,,,,,,,,,,,14,,,55,0
1919,note_on,,59,0,14,,,,,,,,,,,,,,,13,,,55,0
1919,note_on,,59,0,6,,,,,,,,,,,,,,,1,,,55,0
1919,note_on,,0,0,15,,,,,,,,,,,,,,,14,,,67,0
1919,note_on,,0,0,15,,,,,,,,,,,,,,,14,,,70,0
1919,note_on,,0,0,15,,,,,,,,,,,,,,,14,,,76,0
1919,note_on,,119,0,13,,,,,,,,,,,,,,,12,,,67,0
1920,note_on,,0,0,15,,,,,,,,,,,,,,,14,,,73,64
1920,note_on,,0,0,15,,,,,,,,,,,,,,,14,,,69,64
1920,note_on,,0,0,15,,,,,,,,,,,,,,,14,,,64,64
1920,note_on,,1,0,15,,,,,,,,,,,,,,,14,,,57,64
1920,note_on,,1,0,6,,,,,,,,,,,,,,,1,,,57,64
1920,note_on,,1,0,14,,,,,,,,,,,,,,,13,,,57,64
1920,note_on,,1,0,13,,,,,,,,,,,,,,,12,,,64,48
1920,note_on,,1,0,11,,,,,,,,,,,,,,,10,,,73,48
1920,note_on,,1,0,12,,,,,,,,,,,,,,,11,,,69,48
1979,note_on,,59,0,11,,,,,,,,,,,,,,,10,,,73,0
1979,note_on,,59,0,15,,,,,,,,,,,,,,,14,,,57,0
1979,note_on,,59,0,13,,,,,,,,,,,,,,,12,,,64,0
1979,note_on,,179,0,7,,,,,,,,,,,,,,,5,,,79,0
1979,note_on,,0,0,15,,,,,,,,,,,,,,,14,,,73,0
1979,note_on,,179,0,5,,,,,,,,,,,,,,,0,,,79,0
1979,note_on,,59,0,14,,,,,,,,,,,,,,,13,,,57,0
1979,note_on,,0,0,15,,,,,,,,,,,,,,,14,,,64,0
1979,note_on,,59,0,6,,,,,,,,,,,,,,,1,,,57,0
1980,note_on,,1,0,11,,,,,,,,,,,,,,,10,,,74,48
1980,note_on,,1,0,14,,,,,,,,,,,,,,,13,,,50,64
1980,note_on,,0,0,15,,,,,,,,,,,,,,,14,,,65,64
1980,note_on,,1,0,6,,,,,,,,,,,,,,,1,,,50,64
1980,note_on,,1,0,13,,,,,,,,,,,,,,,12,,,65,48
1980,note_on,,1,0,5,,,,,,,,,,,,,,,0,,,77,64
1980,note_on,,0,0,15,,,,,,,,,,,,,,,14,,,50,64
1980,note_on,,1,0,7,,,,,,,,,,,,,,,5,,,77,78
1980,note_on,,1,0,15,,,,,,,,,,,,,,,14,,,74,64
2009,note_on,,29,0,13,,,,,,,,,,,,,,,12,,,65,0
2010,note_on,,1,0,13,,,,,,,,,,,,,,,12,,,67,48
2039,note_on,,59,0,15,,,,,,,,,,,,,,,14,,,69,0
2039,note_on,,59,0,6,,,,,,,,,,,,,,,1,,,50,0
2039,note_on,,59,0,7,,,,,,,,,,,,,,,5,,,77,0
2039,note_on,,29,0,13,,,,,,,,,,,,,,,12,,,67,0
2039,note_on,,0,0,15,,,,,,,,,,,,,,,14,,,50,0
2039,note_on,,59,0,5,,,,,,,,,,,,,,,0,,,77,0
2039,note_on,,59,0,14,,,,,,,,,,,,,,,13,,,50,0
2039,note_on,,0,0,15,,,,,,,,,,,,,,,14,,,65,0
2040,note_on,,0,0,15,,,,,,,,,,,,,,,14,,,63,64
2040,note_on,,1,0,15,,,,,,,,,,,,,,,14,,,57,64
2040,note_on,,0,0,15,,,,,,,,,,,,,,,14,,,69,64
2040,note_on,,1,0,6,,,,,,,,,,,,,,,1,,,57,64
2040,note_on,,1,0,7,,,,,,,,,,,,,,,5,,,76,78
2040,note_on,,1,0,5,,,,,,,,,,,,,,,0,,,76,64
2040,note_on,,1,0,13,,,,,,,,,,,,,,,12,,,69,48
2040,note_on,,1,0,14,,,,,,,,,,,,,,,13,,,57,64
2099,note_on,,119,0,11,,,,,,,,,,,,,,,10,,,74,0
2099,note_on,,59,0,6,,,,,,,,,,,,,,,1,,,57,0
2099,note_on,,59,0,15,,,,,,,,,,,,,,,14,,,74,0
2099,note_on,,0,0,15,,,,,,,,,,,,,,,14,,,57,0
2099,note_on,,59,0,13,,,,,,,,,,,,,,,12,,,69,0
2099,note_on,,179,0,12,,,,,,,,,,,,,,,11,,,69,0
2099,note_on,,59,0,14,,,,,,,,,,,,,,,13,,,57,0
2100,note_on,,1,0,13,,,,,,,,,,,,,,,12,,,69,48
2100,note_on,,1,0,6,,,,,,,,,,,,,,,1,,,45,64
2100,note_on,,1,0,14,,,,,,,,,,,,,,,13,,,45,64
2100,note_on,,1,0,12,,,,,,,,,,,,,,,11,,,64,48
2100,control_change,,2100,0,10,,,,,,,,,,,,,,,8,7,96,,
2100,note_on,,0,0,10,,,,,,,,,,,,,,,8,,,57,78
2100,note_on,,1,0,15,,,,,,,,,,,,,,,14,,,45,64
2100,note_on,,0,0,15,,,,,,,,,,,,,,,14,,,72,64
2100,note_on,,0,0,15,,,,,,,,,,,,,,,14,,,57,64
2100,note_on,,1,0,11,,,,,,,,,,,,,,,10,,,73,48
2159,note_on,,59,0,6,,,,,,,,,,,,,,,1,,,45,0
2159,note_on,,59,0,15,,,,,,,,,,,,,,,14,,,69,0
2159,note_on,,0,0,15,,,,,,,,,,,,,,,14,,,63,0
2159,note_on,,0,0,15,,,,,,,,,,,,,,,14,,,72,0
2159,note_on,,0,0,15,,,,,,,,,,,,,,,14,,,57,0
2159,note_on,,0,0,15,,,,,,,,,,,,,,,14,,,45,0
2159,note_on,,59,0,12,,,,,,,,,,,,,,,11,,,64,0
2159,note_on,,119,0,7,,,,,,,,,,,,,,,5,,,76,0
2159,note_on,,59,0,14,,,,,,,,,,,,,,,13,,,45,0
2159,note_on,,59,0,11,,,,,,,,,,,,,,,10,,,73,0
2159,note_on,,119,0,5,,,,,,,,,,,,,,,0,,,76,0
2159,note_on,,59,0,10,,,,,,,,,,,,,,,8,,,57,0
2159,note_on,,59,0,13,,,,,,,,,,,,,,,12,,,69,0
2160,note_on,,0,0,15,,,,,,,,,,,,,,,14,,,69,64
2160,note_on,,0,0,15,,,,,,,,,,,,,,,14,,,65,64
2160,note_on,,0,0,15,,,,,,,,,,,,,,,14,,,53,64
2160,note_on,,1,0,10,,,,,,,,,,,,,,,8,,,50,78
2160,note_on,,1,0,12,,,,,,,,,,,,,,,11,,,65,48
2160,note_on,,0,0,15,,,,,,,,,,,,,,,14,,,74,64
2160,note_on,,1,0,11,,,,,,,,,,,,,,,10,,,74,48
2160,note_on,,1,0,5,,,,,,,,,,,,,,,0,,,74,64
2160,note_on,,1,0,14,,,,,,,,,,,,,,,13,,,50,64
2160,note_on,,1,0,7,,,,,,,,,,,,,,,5,,,74,78
2160,note_on,,1,0,6,,,,,,,,,,,,,,,1,,,50,64
2160,note_on,,1,0,13,,,,,,,,,,,,,,,12,,,69,48
2160,note_on,,1,0,15,,,,,,,,,,,,,,,14,,,50,64
2219,note_on,,59,0,12,,,,,,,,,,,,,,,11,,,65,0
2219,note_on,,59,0,11,,,,,,,,,,,,,,,10,,,74,0
2220,note_on,,1,0,12,,,,,,,,,,,,,,,11,,,77,48
2220,note_on,,1,0,11,,,,,,,,,,,,,,,10,,,86,48
2279,note_on,,119,0,15,,,,,,,,,,,,,,,14,,,50,0
2279,note_on,,119,0,10,,,,,,,,,,,,,,,8,,,50,0
2279,note_on,,0,0,15,,,,,,,,,,,,,,,14,,,74,0
2279,note_on,,0,0,15,,,,,,,,,,,,,,,14,,,69,0
2279,note_on,,59,0,12,,,,,,,,,,,,,,,11,,,77,0
2279,note_on,,0,0,15,,,,,,,,,,,,,,,14,,,65,0
2279,note_on,,0,0,15,,,,,,,,,,,,,,,14,,,53,0
2279,note_on,,119,0,13,,,,,,,,,,,,,,,12,,,69,0
2279,note_on,,119,0,14,,,,,,,,,,,,,,,13,,,50,0
2279,note_on,,119,0,5,,,,,,,,,,,,,,,0,,,74,0
2279,note_on,,119,0,6,,,,,,,,,,,,,,,1,,,50,0
2279,note_on,,119,0,7,,,,,,,,,,,,,,,5,,,74,0
2280,note_on,,0,0,15,,,,,,,,,,,,,,,14,,,55,64
2280,note_on,,1,0,6,,,,,,,,,,,,,,,1,,,52,64
2280,note_on,,1,0,15,,,,,,,,,,,,,,,14,,,52,64
2280,note_on,,0,0,15,,,,,,,,,,,,,,,14,,,67,64
2280,note_on,,1,0,12,,,,,,,,,,,,,,,11,,,79,48
2280,note_on,,0,0,15,,,,,,,,,,,,,,,14,,,63,64
2280,note_on,,1,0,14,,,,,,,,,,,,,,,13,,,52,64
2280,note_on,,1,0,13,,,,,,,,,,,,,,,12,,,64,48
2280,note_on,,1,0,10,,,,,,,,,,,,,,,8,,,52,78
2339,note_on,,119,0,11,,,,,,,,,,,,,,,10,,,86,0
2339,note_on,,59,0,12,,,,,,,,,,,,,,,11,,,79,0
2340,note_on,,1,0,11,,,,,,,,,,,,,,,10,,,85,48
2340,note_on,,1,0,12,,,,,,,,,,,,,,,11,,,67,48
2399,note_on,,119,0,15,,,,,,,,,,,,,,,14,,,52,0
2399,note_on,,119,0,14,,,,,,,,,,,,,,,13,,,52,0
2399,note_on,,59,0,11,,,,,,,,,,,,,,,10,,,85,0
2399,note_on,,0,0,15,,,,,,,,,,,,,,,14,,,63,0
2399,note_on,,119,0,13,,,,,,,,,,,,,,,12,,,64,0
2399,note_on,,119,0,6,,,,,,,,,,,,,,,1,,,52,0
2399,note_on,,0,0,15,,,,,,,,,,,,,,,14,,,67,0
2399,note_on,,59,0,12,,,,,,,,,,,,,,,11,,,67,0
2399,note_on,,119,0,10,,,,,,,,,,,,,,,8,,,52,0
2399,note_on,,0,0,15,,,,,,,,,,,,,,,14,,,55,0
2400,note_on,,1,0,12,,,,,,,,,,,,,,,11,,,69,48
2400,note_on,,1,0,13,,,,,,,,,,,,,,,12,,,62,48
2400,note_on,,1,0,10,,,,,,,,,,,,,,,8,,,53,78
2400,note_on,,1,0,14,,,,,,,,,,,,,,,13,,,53,64
2400,note_on,,1,0,11,,,,,,,,,,,,,,,10,,,86,48
2400,note_on,,1,0,15,,,,,,,,,,,,,,,14,,,53,64
2400,note_on,,0,0,15,,,,,,,,,,,,,,,14,,,65,64
2400,note_on,,0,0,15,,,,,,,,,,,,,,,14,,,62,64
2400,note_on,,0,0,15,,,,,,,,,,,,,,,14,,,57,64
2400,note_on,,1,0,6,,,,,,,,,,,,,,,1,,,53,64
2459,note_on,,59,0,10,,,,,,,,,,,,,,,8,,,53,0
2459,note_on,,0,0,15,,,,,,,,,,,,,,,14,,,57,0
2459,note_on,,0,0,15,,,,,,,,,,,,,,,14,,,62,0
2459,note_on,,59,0,14,,,,,,,,,,,,,,,13,,,53,0
2459,note_on,,59,0,11,,,,,,,,,,,,,,,10,,,86,0
2459,note_on,,59,0,15,,,,,,,,,,,,,,,14,,,53,0
2459,note_on,,59,0,6,,,,,,,,,,,,,,,1,,,53,0
2459,note_on,,0,0,15,,,,,,,,,,,,,,,14,,,65,0
2460,note_on,,1,0,10,,,,,,,,,,,,,,,8,,,55,78
2460,note_on,,1,0,15,,,,,,,,,,,,,,,14,,,55,64
2460,note_on,,0,0,15,,,,,,,,,,,,,,,14,,,58,64
2460,note_on,,0,0,15,,,,,,,,,,,,,,,14,,,64,64
2460,note_on,,1,0,14,,,,,,,,,,,,,,,13,,,55,64
2460,note_on,,1,0,6,,,,,,,,,,,,,,,1,,,55,64
2460,note_on,,1,0,11,,,,,,,,,,,,,,,10,,,74,48
2460,note_on,,0,0,15,,,,,,,,,,,,,,,14,,,70,64
2519,note_on,,59,0,11,,,,,,,,,,,,,,,10,,,74,0
2519,note_on,,59,0,14,,,,,,,,,,,,,,,13,,,55,0
2519,note_on,,59,0,6,,,,,,,,,,,,,,,1,,,55,0
2519,note_on,,59,0,10,,,,,,,,,,,,,,,8,,,55,0
2519,note_on,,119,0,12,,,,,,,,,,,,,,,11,,,69,0
2519,note_on,,59,0,15,,,,,,,,,,,,,,,14,,,55,0
2519,note_on,,0,0,15,,,,,,,,,,,,,,,14,,,70,0
2519,note_on,,119,0,13,,,,,,,,,,,,,,,12,,,62,0
2519,note_on,,0,0,15,,,,,,,,,,,,,,,14,,,64,0
2519,note_on,,0,0,15,,,,,,,,,,,,,,,14,,,58,0
2520,note_on,,0,0,15,,,,,,,,,,,,,,,14,,,62,64
2520,note_on,,1,0,15,,,,,,,,,,,,,,,14,,,52,64
2520,note_on,,1,0,14,,,,,,,,,,,,,,,13,,,52,64
2520,note_on,,0,0,15,,,,,,,,,,,,,,,14,,,67,64
2520,note_on,,1,0,10,,,,,,,,,,,,,,,8,,,52,78
2520,note_on,,0,0,15,,,,,,,,,,,,,,,14,,,64,64
2520,note_on,,1,0,6,,,,,,,,,,,,,,,1,,,52,64
2579,note_on,,59,0,15,,,,,,,,,,,,,,,14,,,62,0
2580,note_on,,1,0,15,,,,,,,,,,,,,,,14,,,61,64
2580,note_on,,0,0,15,,,,,,,,,,,,,,,14,,,55,64
2639,note_on,,119,0,10,,,,,,,,,,,,,,,8,,,52,0
2639,note_on,,0,0,15,,,,,,,,,,,,,,,14,,,55,0
2639,note_on,,0,0,15,,,,,,,,,,,,,,,14,,,64,0
2639,note_on,,0,0,15,,,,,,,,,,,,,,,14,,,61,0
2639,note_on,,119,0,14,,,,,,,,,,,,,,,13,,,52,0
2639,note_on,,59,0,15,,,,,,,,,,,,,,,14,,,52,0
2639,note_on,,0,0,15,,,,,,,,,,,,,,,14,,,67,0
2639,note_on,,119,0,6,,,,,,,,,,,,,,,1,,,52,0
2640,note_on,,1,0,6,,,,,,,,,,,,,,,1,,,50,64
2640,note_on,,1,0,10,,,,,,,,,,,,,,,8,,,50,78
2640,note_on,,1,0,14,,,,,,,,,,,,,,,13,,,50,64
2640,note_on,,0,0,15,,,,,,,,,,,,,,,14,,,57,64
2640,note_on,,1,0,15,,,,,,,,,,,,,,,14,,,50,64
2640,note_on,,0,0,15,,,,,,,,,,,,,,,14,,,65,64
2640,note_on,,0,0,15,,,,,,,,,,,,,,,14,,,62,64
2699,note_on,,59,0,14,,,,,,,,,,,,,,,13,,,50,0
2699,note_on,,59,0,6,,,,,,,,,,,,,,,1,,,50,0
2699,note_on,,59,0,15,,,,,,,,,,,,,,,14,,,50,0
2699,note_on,,0,0,15,,,,,,,,,,,,,,,14,,,57,0
2700,note_on,,181,0,11,,,,,,,,,,,,,,,10,,,69,48
2700,note_on,,1,0,6,,,,,,,,,,,,,,,1,,,38,64
2700,note_on,,0,0,15,,,,,,,,,,,,,,,14,,,53,64
2700,note_on,,181,0,13,,,,,,,,,,,,,,,12,,,62,48
2700,note_on,,1,0,14,,,,,,,,,,,,,,,13,,,38,64
2700,note_on,,181,0,12,,,,,,,,,,,,,,,11,,,65,48
2700,note_on,,1,0,15,,,,,,,,,,,,,,,14,,,38,64
2759,note_on,,59,0,15,,,,,,,,,,,,,,,14,,,38,0
2759,note_on,,59,0,11,,,,,,,,,,,,,,,10,,,69,0
2759,note_on,,59,0,13,,,,,,,,,,,,,,,12,,,62,0
2759,note_on,,59,0,14,,,,,,,,,,,,,,,13,,,38,0
2759,note_on,,119,0,10,,,,,,,,,,,,,,,8,,,50,0
2759,note_on,,0,0,15,,,,,,,,,,,,,,,14,,,53,0
2759,note_on,,59,0,12,,,,,,,,,,,,,,,11,,,65,0
2759,note_on,,59,0,6,,,,,,,,,,,,,,,1,,,38,0
2760,note_on,,1,0,12,,,,,,,,,,,,,,,11,,,69,48
2760,note_on,,0,0,15,,,,,,,,,,,,,,,14,,,57,64
2760,note_on,,1,0,11,,,,,,,,,,,,,,,10,,,74,48
2760,note_on,,1,0,15,,,,,,,,,,,,,,,14,,,41,64
2760,note_on,,1,0,14,,,,,,,,,,,,,,,13,,,41,64
2760,note_on,,1,0,13,,,,,,,,,,,,,,,12,,,62,48
2760,note_on,,1,0,6,,,,,,,,,,,,,,,1,,,41,64
2819,note_on,,59,0,15,,,,,,,,,,,,,,,14,,,41,0
2819,note_on,,59,0,13,,,,,,,,,,,,,,,12,,,62,0
2819,note_on,,59,0,12,,,,,,,,,,,,,,,11,,,69,0
2819,note_on,,59,0,14,,,,,,,,,,,,,,,13,,,41,0
2819,note_on,,59,0,6,,,,,,,,,,,,,,,1,,,41,0
2819,note_on,,59,0,11,,,,,,,,,,,,,,,10,,,74,0
2819,note_on,,0,0,15,,,,,,,,,,,,,,,14,,,57,0
2820,note_on,,1,0,12,,,,,,,,,,,,,,,11,,,65,48
2820,note_on,,61,0,10,,,,,,,,,,,,,,,8,,,57,78
2820,note_on,,1,0,6,,,,,,,,,,,,,,,1,,,38,64
2820,note_on,,1,0,14,,,,,,,,,,,,,,,13,,,38,64
2820,note_on,,1,0,15,,,,,,,,,,,,,,,14,,,38,64
2820,note_on,,1,0,11,,,,,,,,,,,,,,,10,,,69,48
2820,note_on,,1,0,13,,,,,,,,,,,,,,,12,,,50,48
2820,note_on,,0,0,15,,,,,,,,,,,,,,,14,,,53,64
2879,note_on,,59,0,6,,,,,,,,,,,,,,,1,,,38,0
2879,note_on,,59,0,10,,,,,,,,,,,,,,,8,,,57,0
2879,note_on,,59,0,12,,,,,,,,,,,,,,,11,,,65,0
2879,note_on,,0,0,15,,,,,,,,,,,,,,,14,,,38,0
2879,note_on,,0,0,15,,,,,,,,,,,,,,,14,,,53,0
2879,note_on,,59,0,15,,,,,,,,,,,,,,,14,,,65,0
2879,note_on,,59,0,14,,,,,,,,,,,,,,,13,,,38,0
2879,note_on,,59,0,11,,,,,,,,,,,,,,,10,,,69,0
2879,note_on,,0,0,15,,,,,,,,,,,,,,,14,,,62,0
2879,note_on,,59,0,13,,,,,,,,,,,,,,,12,,,50,0
2880,note_on,,1,0,10,,,,,,,,,,,,,,,8,,,62,78
2939,note_on,,59,0,10,,,,,,,,,,,,,,,8,,,62,0
2940,note_on,,61,0,15,,,,,,,,,,,,,,,14,,,50,64
2940,note_on,,0,0,15,,,,,,,,,,,,,,,14,,,57,64
2940,note_on,,0,0,15,,,,,,,,,,,,,,,14,,,53,64
2940,note_on,,1,0,10,,,,,,,,,,,,,,,8,,,62,78
2940,note_on,,61,0,6,,,,,,,,,,,,,,,1,,,50,64
2940,note_on,,61,0,14,,,,,,,,,,,,,,,13,,,50,64
2999,note_on,,59,0,6,,,,,,,,,,,,,,,1,,,50,0
2999,note_on,,0,0,15,,,,,,,,,,,,,,,14,,,53,0
2999,note_on,,0,0,15,,,,,,,,,,,,,,,14,,,57,0
2999,note_on,,59,0,15,,,,,,,,,,,,,,,14,,,50,0
2999,note_on,,59,0,10,,,,,,,,,,,,,,,8,,,62,0
2999,note_on,,59,0,14,,,,,,,,,,,,,,,13,,,50,0
3000,note_on,,1,0,10,,,,,,,,,,,,,,,8,,,62,78
3000,note_on,,1,0,6,,,,,,,,,,,,,,,1,,,53,64
3000,note_on,,1,0,14,,,,,,,,,,,,,,,13,,,53,64
3000,note_on,,1,0,15,,,,,,,,,,,,,,,14,,,53,64
3000,note_on,,0,0,15,,,,,,,,,,,,,,,14,,,62,64
3000,note_on,,0,0,15,,,,,,,,,,,,,,,14,,,57,64
3059,note_on,,59,0,14,,,,,,,,,,,,,,,13,,,53,0
3059,note_on,,59,0,15,,,,,,,,,,,,,,,14,,,53,0
3059,note_on,,0,0,15,,,,,,,,,,,,,,,14,,,62,0
3059,note_on,,0,0,15,,,,,,,,,,,,,,,14,,,57,0
3059,note_on,,59,0,10,,,,,,,,,,,,,,,8,,,62,0
3059,note_on,,59,0,6,,,,,,,,,,,,,,,1,,,53,0
3060,note_on,,0,0,15,,,,,,,,,,,,,,,14,,,62,64
3060,note_on,,0,0,15,,,,,,,,,,,,,,,14,,,65,64
3060,note_on,,1,0,15,,,,,,,,,,,,,,,14,,,50,64
3060,note_on,,1,0,6,,,,,,,,,,,,,,,1,,,50,64
3060,note_on,,0,0,15,,,,,,,,,,,,,,,14,,,57,64
3060,note_on,,1,0,14,,,,,,,,,,,,,,,13,,,50,64
3060,note_on,,1,0,10,,,,,,,,,,,,,,,8,,,62,78
3119,note_on,,59,0,6,,,,,,,,,,,,,,,1,,,50,0
3119,note_on,,0,0,15,,,,,,,,,,,,,,,14,,,65,0
3119,note_on,,59,0,14,,,,,,,,,,,,,,,13,,,50,0
3119,note_on,,59,0,10,,,,,,,,,,,,,,,8,,,62,0
3119,note_on,,0,0,15,,,,,,,,,,,,,,,14,,,57,0
3119,note_on,,59,0,15,,,,,,,,,,,,,,,14,,,50,0
3119,note_on,,0,0,15,,,,,,,,,,,,,,,14,,,62,0
3120,note_on,,0,0,15,,,,,,,,,,,,,,,14,,,64,64
3120,note_on,,1,0,15,,,,,,,,,,,,,,,14,,,57,64
3120,note_on,,0,0,15,,,,,,,,,,,,,,,14,,,60,64
3120,note_on,,1,0,6,,,,,,,,,,,,,,,1,,,57,64
3120,note_on,,1,0,14,,,,,,,,,,,,,,,13,,,57,64
3120,note_on,,1,0,10,,,,,,,,,,,,,,,8,,,60,78
3149,note_on,,29,0,10,,,,,,,,,,,,,,,8,,,60,0
3150,note_on,,1,0,10,,,,,,,,,,,,,,,8,,,62,78
3179,note_on,,29,0,10,,,,,,,,,,,,,,,8,,,62,0
3180,note_on,,1,0,10,,,,,,,,,,,,,,,8,,,60,78
3209,note_on,,29,0,10,,,,,,,,,,,,,,,8,,,60,0
3210,note_on,,1,0,10,,,,,,,,,,,,,,,8,,,58,78
3239,note_on,,29,0,10,,,,,,,,,,,,,,,8,,,58,0
3239,note_on,,119,0,14,,,,,,,,,,,,,,,13,,,57,0
3239,note_on,,119,0,6,,,,,,,,,,,,,,,1,,,57,0
3239,note_on,,0,0,15,,,,,,,,,,,,,,,14,,,64,0
3239,note_on,,119,0,15,,,,,,,,,,,,,,,14,,,57,0
3239,note_on,,0,0,15,,,,,,,,,,,,,,,14,,,60,0
3240,note_on,,1,0,10,,,,,,,,,,,,,,,8,,,60,78
3269,note_on,,29,0,10,,,,,,,,,,,,,,,8,,,60,0
3270,note_on,,1,0,10,,,,,,,,,,,,,,,8,,,57,78
3299,note_on,,29,0,10,,,,,,,,,,,,,,,8,,,57,0
3300,note_on,,0,0,15,,,,,,,,,,,,,,,14,,,52,64
3300,note_on,,1,0,10,,,,,,,,,,,,,,,8,,,55,78
3300,note_on,,61,0,6,,,,,,,,,,,,,,,1,,,48,64
3300,note_on,,0,0,15,,,,,,,,,,,,,,,14,,,57,64
3300,note_on,,61,0,14,,,,,,,,,,,,,,,13,,,48,64
3300,note_on,,61,0,15,,,,,,,,,,,,,,,14,,,48,64
3300,note_on,,0,0,15,,,,,,,,,,,,,,,14,,,69,64
3300,note_on,,0,0,15,,,,,,,,,,,,,,,14,,,64,64
3329,note_on,,29,0,10,,,,,,,,,,,,,,,8,,,55,0
3330,note_on,,1,0,10,,,,,,,,,,,,,,,8,,,57,78
3359,note_on,,0,0,15,,,,,,,,,,,,,,,14,,,64,0
3359,note_on,,0,0,15,,,,,,,,,,,,,,,14,,,57,0
3359,note_on,,0,0,15,,,,,,,,,,,,,,,14,,,52,0
3359,note_on,,59,0,14,,,,,,,,,,,,,,,13,,,48,0
3359,note_on,,59,0,6,,,,,,,,,,,,,,,1,,,48,0
3359,note_on,,59,0,15,,,,,,,,,,,,,,,14,,,48,0
3359,note_on,,0,0,15,,,,,,,,,,,,,,,14,,,69,0
3359,note_on,,29,0,10,,,,,,,,,,,,,,,8,,,57,0
3360,note_on,,1,0,6,,,,,,,,,,,,,,,1,,,50,64
3360,note_on,,1,0,10,,,,,,,,,,,,,,,8,,,58,78
3360,note_on,,1,0,14,,,,,,,,,,,,,,,13,,,50,64
3360,note_on,,1,0,15,,,,,,,,,,,,,,,14,,,50,64
3360,note_on,,0,0,15,,,,,,,,,,,,,,,14,,,70,64
3360,note_on,,0,0,15,,,,,,,,,,,,,,,14,,,62,64
3360,note_on,,0,0,15,,,,,,,,,,,,,,,14,,,53,64
3389,note_on,,29,0,10,,,,,,,,,,,,,,,8,,,58,0
3390,note_on,,1,0,10,,,,,,,,,,,,,,,8,,,60,78
3419,note_on,,59,0,6,,,,,,,,,,,,,,,1,,,50,0
3419,note_on,,29,0,10,,,,,,,,,,,,,,,8,,,60,0
3419,note_on,,59,0,14,,,,,,,,,,,,,,,13,,,50,0
3419,note_on,,59,0,15,,,,,,,,,,,,,,,14,,,50,0
3419,note_on,,0,0,15,,,,,,,,,,,,,,,14,,,53,0
3420,note_on,,0,0,15,,,,,,,,,,,,,,,14,,,52,64
3420,note_on,,1,0,15,,,,,,,,,,,,,,,14,,,48,64
3420,note_on,,1,0,6,,,,,,,,,,,,,,,1,,,48,64
3420,note_on,,1,0,10,,,,,,,,,,,,,,,8,,,58,78
3420,note_on,,1,0,14,,,,,,,,,,,,,,,13,,,48,64
3449,note_on,,29,0,10,,,,,,,,,,,,,,,8,,,58,0
3450,note_on,,1,0,10,,,,,,,,,,,,,,,8,,,57,78
3479,note_on,,59,0,6,,,,,,,,,,,,,,,1,,,48,0
3479,note_on,,0,0,15,,,,,,,,,,,,,,,14,,,52,0
3479,note_on,,59,0,15,,,,,,,,,,,,,,,14,,,48,0
3479,note_on,,59,0,14,,,,,,,,,,,,,,,13,,,48,0
3479,note_on,,29,0,10,,,,,,,,,,,,,,,8,,,57,0
3480,note_on,,1,0,15,,,,,,,,,,,,,,,14,,,50,64
3480,note_on,,1,0,14,,,,,,,,,,,,,,,13,,,50,64
3480,note_on,,1,0,10,,,,,,,,,,,,,,,8,,,58,78
3480,note_on,,0,0,15,,,,,,,,,,,,,,,14,,,53,64
3480,note_on,,1,0,6,,,,,,,,,,,,,,,1,,,50,64
3509,note_on,,29,0,10,,,,,,,,,,,,,,,8,,,58,0
3510,note_on,,1,0,10,,,,,,,,,,,,,,,8,,,55,78
3539,note_on,,0,0,15,,,,,,,,,,,,,,,14,,,53,0
3539,note_on,,0,0,15,,,,,,,,,,,,,,,14,,,50,0
3539,note_on,,29,0,10,,,,,,,,,,,,,,,8,,,55,0
3539,note_on,,0,0,15,,,,,,,,,,,,,,,14,,,62,0
3539,note_on,,59,0,15,,,,,,,,,,,,,,,14,,,70,0
3539,note_on,,59,0,6,,,,,,,,,,,,,,,1,,,50,0
3539,note_on,,59,0,14,,,,,,,,,,,,,,,13,,,50,0
3540,note_on,,0,0,15,,,,,,,,,,,,,,,14,,,72,64
3540,note_on,,1,0,15,,,,,,,,,,,,,,,14,,,51,64
3540,note_on,,0,0,15,,,,,,,,,,,,,,,14,,,55,64
3540,note_on,,0,0,15,,,,,,,,,,,,,,,14,,,67,64
3540,note_on,,1,0,14,,,,,,,,,,,,,,,13,,,51,64
3540,note_on,,1,0,6,,,,,,,,,,,,,,,1,,,51,64
3540,note_on,,0,0,15,,,,,,,,,,,,,,,14,,,60,64
3540,note_on,,1,0,10,,,,,,,,,,,,,,,8,,,53,78
3569,note_on,,29,0,10,,,,,,,,,,,,,,,8,,,53,0
3570,note_on,,1,0,10,,,,,,,,,,,,,,,8,,,55,78
3599,note_on,,59,0,15,,,,,,,,,,,,,,,14,,,51,0
3599,note_on,,59,0,6,,,,,,,,,,,,,,,1,,,51,0
3599,note_on,,59,0,14,,,,,,,,,,,,,,,13,,,51,0
3599,note_on,,0,0,15,,,,,,,,,,,,,,,14,,,67,0
3599,note_on,,0,0,15,,,,,,,,,,,,,,,14,,,72,0
3599,note_on,,0,0,15,,,,,,,,,,,,,,,14,,,55,0
3599,note_on,,0,0,15,,,,,,,,,,,,,,,14,,,60,0
3599,note_on,,29,0,10,,,,,,,,,,,,,,,8,,,55,0
3600,note_on,,1,0,15,,,,,,,,,,,,,,,14,,,53,64
3600,note_on,,0,0,15,,,,,,,,,,,,,,,14,,,69,64
3600,note_on,,0,0,15,,,,,,,,,,,,,,,14,,,65,64
3600,note_on,,0,0,15,,,,,,,,,,,,,,,14,,,57,64
3600,note_on,,1,0,14,,,,,,,,,,,,,,,13,,,53,64
3600,note_on,,1,0,6,,,,,,,,,,,,,,,1,,,53,64
3600,note_on,,1,0,10,,,,,,,,,,,,,,,8,,,57,78
3629,note_on,,29,0,10,,,,,,,,,,,,,,,8,,,57,0
3630,note_on,,1,0,10,,,,,,,,,,,,,,,8,,,58,78
3659,note_on,,59,0,14,,,,,,,,,,,,,,,13,,,53,0
3659,note_on,,59,0,15,,,,,,,,,,,,,,,14,,,53,0
3659,note_on,,59,0,6,,,,,,,,,,,,,,,1,,,53,0
3659,note_on,,29,0,10,,,,,,,,,,,,,,,8,,,58,0
3659,note_on,,0,0,15,,,,,,,,,,,,,,,14,,,69,0
3660,note_on,,1,0,6,,,,,,,,,,,,,,,1,,,50,64
3660,note_on,,0,0,15,,,,,,,,,,,,,,,14,,,65,64
3660,note_on,,1,0,14,,,,,,,,,,,,,,,13,,,50,64
3660,note_on,,1,0,10,,,,,,,,,,,,,,,8,,,57,78
3660,note_on,,1,0,15,,,,,,,,,,,,,,,14,,,50,64
3689,note_on,,29,0,10,,,,,,,,,,,,,,,8,,,57,0
3690,note_on,,1,0,10,,,,,,,,,,,,,,,8,,,55,78
3719,note_on,,59,0,15,,,,,,,,,,,,,,,14,,,65,0
3719,note_on,,0,0,15,,,,,,,,,,,,,,,14,,,57,0
3719,note_on,,0,0,15,,,,,,,,,,,,,,,14,,,50,0
3719,note_on,,0,0,15,,,,,,,,,,,,,,,14,,,65,0
3719,note_on,,59,0,6,,,,,,,,,,,,,,,1,,,50,0
3719,note_on,,29,0,10,,,,,,,,,,,,,,,8,,,55,0
3719,note_on,,59,0,14,,,,,,,,,,,,,,,13,,,50,0
3720,note_on,,1,0,6,,,,,,,,,,,,,,,1,,,49,64
3720,note_on,,1,0,10,,,,,,,,,,,,,,,8,,,57,78
3720,note_on,,1,0,14,,,,,,,,,,,,,,,13,,,49,64
3720,note_on,,1,0,15,,,,,,,,,,,,,,,14,,,49,64
3720,note_on,,0,0,15,,,,,,,,,,,,,,,14,,,57,64
3720,note_on,,0,0,15,,,,,,,,,,,,,,,14,,,64,64
3749,note_on,,29,0,10,,,,,,,,,,,,,,,8,,,57,0
3750,note_on,,1,0,10,,,,,,,,,,,,,,,8,,,53,78
3779,note_on,,29,0,10,,,,,,,,,,,,,,,8,,,53,0
3779,note_on,,59,0,6,,,,,,,,,,,,,,,1,,,49,0
3779,note_on,,59,0,15,,,,,,,,,,,,,,,14,,,49,0
3779,note_on,,0,0,15,,,,,,,,,,,,,,,14,,,64,0
3779,note_on,,59,0,14,,,,,,,,,,,,,,,13,,,49,0
3780,note_on,,1,0,10,,,,,,,,,,,,,,,8,,,52,78
3780,note_on,,1,0,6,,,,,,,,,,,,,,,1,,,50,64
3780,note_on,,1,0,15,,,,,,,,,,,,,,,14,,,50,64
3780,note_on,,0,0,15,,,,,,,,,,,,,,,14,,,65,64
3780,note_on,,1,0,14,,,,,,,,,,,,,,,13,,,50,64
3809,note_on,,29,0,10,,,,,,,,,,,,,,,8,,,52,0
3810,note_on,,1,0,10,,,,,,,,,,,,,,,8,,,53,78
3839,note_on,,0,0,15,,,,,,,,,,,,,,,14,,,65,0
3839,note_on,,59,0,14,,,,,,,,,,,,,,,13,,,50,0
3839,note_on,,29,0,10,,,,,,,,,,,,,,,8,,,53,0
3839,note_on,,0,0,15,,,,,,,,,,,,,,,14,,,50,0
3839,note_on,,59,0,15,,,,,,,,,,,,,,,14,,,57,0
3839,note_on,,59,0,6,,,,,,,,,,,,,,,1,,,50,0
3840,note_on,,0,0,15,,,,,,,,,,,,,,,14,,,55,64
3840,note_on,,0,0,15,,,,,,,,,,,,,,,14,,,67,64
3840,note_on,,1,0,6,,,,,,,,,,,,,,,1,,,52,64
3840,note_on,,1,0,15,,,,,,,,,,,,,,,14,,,52,64
3840,note_on,,0,0,15,,,,,,,,,,,,,,,14,,,64,64
3840,note_on,,1,0,10,,,,,,,,,,,,,,,8,,,55,78
3840,note_on,,1,0,14,,,,,,,,,,,,,,,13,,,52,64
3869,note_on,,29,0,10,,,,,,,,,,,,,,,8,,,55,0
3870,note_on,,1,0,10,,,,,,,,,,,,,,,8,,,57,78
3899,note_on,,59,0,14,,,,,,,,,,,,,,,13,,,52,0
3899,note_on,,59,0,15,,,,,,,,,,,,,,,14,,,52,0
3899,note_on,,0,0,15,,,,,,,,,,,,,,,14,,,67,0
3899,note_on,,59,0,6,,,,,,,,,,,,,,,1,,,52,0
3899,note_on,,29,0,10,,,,,,,,,,,,,,,8,,,57,0
3900,note_on,,1,0,15,,,,,,,,,,,,,,,14,,,50,64
3900,note_on,,0,0,15,,,,,,,,,,,,,,,14,,,65,64
3900,note_on,,1,0,6,,,,,,,,,,,,,,,1,,,50,64
3900,note_on,,1,0,10,,,,,,,,,,,,,,,8,,,55,78
3900,note_on,,1,0,14,,,,,,,,,,,,,,,13,,,50,64
3929,note_on,,29,0,10,,,,,,,,,,,,,,,8,,,55,0
3930,note_on,,1,0,10,,,,,,,,,,,,,,,8,,,53,78
3959,note_on,,59,0,6,,,,,,,,,,,,,,,1,,,50,0
3959,note_on,,59,0,14,,,,,,,,,,,,,,,13,,,50,0
3959,note_on,,29,0,10,,,,,,,,,,,,,,,8,,,53,0
3959,note_on,,59,0,15,,,,,,,,,,,,,,,14,,,50,0
3959,note_on,,0,0,15,,,,,,,,,,,,,,,14,,,65,0
3960,note_on,,1,0,10,,,,,,,,,,,,,,,8,,,55,78
3960,note_on,,1,0,14,,,,,,,,,,,,,,,13,,,52,64
3960,note_on,,1,0,6,,,,,,,,,,,,,,,1,,,52,64
3960,note_on,,1,0,15,,,,,,,,,,,,,,,14,,,52,64
3960,note_on,,0,0,15,,,,,,,,,,,,,,,14,,,67,64
3989,note_on,,29,0,10,,,,,,,,,,,,,,,8,,,55,0
3990,note_on,,1,0,10,,,,,,,,,,,,,,,8,,,52,78
4019,note_on,,0,0,15,,,,,,,,,,,,,,,14,,,67,0
4019,note_on,,0,0,15,,,,,,,,,,,,,,,14,,,52,0
4019,note_on,,0,0,15,,,,,,,,,,,,,,,14,,,55,0
4019,note_on,,59,0,14,,,,,,,,,,,,,,,13,,,52,0
4019,note_on,,59,0,6,,,,,,,,,,,,,,,1,,,52,0
4019,note_on,,59,0,15,,,,,,,,,,,,,,,14,,,64,0
4019,note_on,,29,0,10,,,,,,,,,,,,,,,8,,,52,0
4020,note_on,,1,0,10,,,,,,,,,,,,,,,8,,,50,78
4020,control_change,,4020,0,8,,,,,,,,,,,,,,,6,7,96,,
4020,note_on,,0,0,15,,,,,,,,,,,,,,,14,,,67,64
4020,note_on,,0,0,15,,,,,,,,,,,,,,,14,,,69,64
4020,note_on,,0,0,15,,,,,,,,,,,,,,,14,,,64,64
4020,note_on,,1,0,6,,,,,,,,,,,,,,,1,,,49,64
4020,note_on,,0,0,8,,,,,,,,,,,,,,,6,,,69,78
4020,note_on,,1,0,15,,,,,,,,,,,,,,,14,,,49,64
4020,note_on,,1,0,14,,,,,,,,,,,,,,,13,,,49,64
4049,note_on,,29,0,10,,,,,,,,,,,,,,,8,,,50,0
4050,note_on,,1,0,10,,,,,,,,,,,,,,,8,,,52,78
4079,note_on,,59,0,6,,,,,,,,,,,,,,,1,,,49,0
4079,note_on,,59,0,8,,,,,,,,,,,,,,,6,,,69,0
4079,note_on,,59,0,15,,,,,,,,,,,,,,,14,,,49,0
4079,note_on,,0,0,15,,,,,,,,,,,,,,,14,,,64,0
4079,note_on,,29,0,10,,,,,,,,,,,,,,,8,,,52,0
4079,note_on,,59,0,14,,,,,,,,,,,,,,,13,,,49,0
4079,note_on,,0,0,15,,,,,,,,,,,,,,,14,,,67,0
4080,note_on,,1,0,8,,,,,,,,,,,,,,,6,,,62,78
4080,note_on,,1,0,10,,,,,,,,,,,,,,,8,,,53,78
4080,note_on,,1,0,14,,,,,,,,,,,,,,,13,,,50,64
4080,note_on,,0,0,15,,,,,,,,,,,,,,,14,,,65,64
4080,note_on,,1,0,15,,,,,,,,,,,,,,,14,,,50,64
4080,note_on,,1,0,6,,,,,,,,,,,,,,,1,,,50,64
4080,note_on,,0,0,15,,,,,,,,,,,,,,,14,,,62,64
4139,note_on,,59,0,10,,,,,,,,,,,,,,,8,,,53,0
4139,note_on,,59,0,14,,,,,,,,,,,,,,,13,,,50,0
4139,note_on,,59,0,6,,,,,,,,,,,,,,,1,,,50,0
4139,note_on,,0,0,15,,,,,,,,,,,,,,,14,,,62,0
4139,note_on,,0,0,15,,,,,,,,,,,,,,,14,,,65,0
4139,note_on,,0,0,15,,,,,,,,,,,,,,,14,,,50,0
4139,note_on,,59,0,15,,,,,,,,,,,,,,,14,,,69,0
4140,note_on,,1,0,6,,,,,,,,,,,,,,,1,,,58,64
4140,note_on,,1261,0,12,,,,,,,,,,,,,,,11,,,65,48
4140,note_on,,1,0,15,,,,,,,,,,,,,,,14,,,58,64
4140,note_on,,1,0,10,,,,,,,,,,,,,,,8,,,58,78
4140,note_on,,0,0,15,,,,,,,,,,,,,,,14,,,62,64
4140,note_on,,0,0,15,,,,,,,,,,,,,,,14,,,67,64
4140,note_on,,1261,0,13,,,,,,,,,,,,,,,12,,,65,48
4140,note_on,,1,0,14,,,,,,,,,,,,,,,13,,,58,64
4140,note_on,,1261,0,11,,,,,,,,,,,,,,,10,,,74,48
4140,note_on,,0,0,15,,,,,,,,,,,,,,,14,,,74,64
4199,note_on,,59,0,11,,,,,,,,,,,,,,,10,,,74,0
4199,note_on,,59,0,13,,,,,,,,,,,,,,,12,,,65,0
4199,note_on,,59,0,10,,,,,,,,,,,,,,,8,,,58,0
4199,note_on,,59,0,12,,,,,,,,,,,,,,,11,,,65,0
4199,note_on,,59,0,6,,,,,,,,,,,,,,,1,,,58,0
4199,note_on,,0,0,15,,,,,,,,,,,,,,,14,,,62,0
4199,note_on,,59,0,14,,,,,,,,,,,,,,,13,,,58,0
4199,note_on,,0,0,15,,,,,,,,,,,,,,,14,,,74,0
4199,note_on,,59,0,15,,,,,,,,,,,,,,,14,,,58,0
4199,note_on,,119,0,8,,,,,,,,,,,,,,,6,,,62,0
4199,note_on,,0,0,15,,,,,,,,,,,,,,,14,,,67,0
4200,note_on,,1,0,15,,,,,,,,,,,,,,,14,,,55,64
4200,note_on,,1,0,8,,,,,,,,,,,,,,,6,,,64,78
4200,note_on,,1,0,12,,,,,,,,,,,,,,,11,,,70,48
4200,note_on,,1,0,14,,,,,,,,,,,,,,,13,,,55,64
4200,note_on,,0,0,15,,,,,,,,,,,,,,,14,,,63,64
4200,note_on,,0,0,15,,,,,,,,,,,,,,,14,,,67,64
4200,note_on,,1,0,6,,,,,,,,,,,,,,,1,,,55,64
4200,note_on,,1,0,13,,,,,,,,,,,,,,,12,,,64,48
4200,note_on,,0,0,15,,,,,,,,,,,,,,,14,,,70,64
4200,note_on,,1,0,10,,,,,,,,,,,,,,,8,,,55,78
4215,note_on,,16,0,11,,,,,,,,,,,,,,,10,,,74,48
4259,note_on,,59,0,12,,,,,,,,,,,,,,,11,,,70,0
4259,note_on,,59,0,10,,,,,,,,,,,,,,,8,,,55,0
4259,note_on,,0,0,15,,,,,,,,,,,,,,,14,,,63,0
4259,note_on,,59,0,14,,,,,,,,,,,,,,,13,,,55,0
4259,note_on,,0,0,15,,,,,,,,,,,,,,,14,,,67,0
4259,note_on,,59,0,15,,,,,,,,,,,,,,,14,,,55,0
4259,note_on,,59,0,13,,,,,,,,,,,,,,,12,,,64,0
4259,note_on,,59,0,6,,,,,,,,,,,,,,,1,,,55,0
4259,note_on,,0,0,15,,,,,,,,,,,,,,,14,,,70,0
4260,note_on,,1,0,6,,,,,,,,,,,,,,,1,,,57,64
4260,note_on,,1,0,14,,,,,,,,,,,,,,,13,,,57,64
4260,note_on,,45,0,11,,,,,,,,,,,,,,,10,,,73,48
4260,note_on,,0,0,15,,,,,,,,,,,,,,,14,,,61,64
4260,note_on,,1,0,10,,,,,,,,,,,,,,,8,,,57,78
4260,note_on,,0,0,15,,,,,,,,,,,,,,,14,,,63,64
4260,note_on,,0,0,15,,,,,,,,,,,,,,,14,,,69,64
4260,note_on,,1,0,15,,,,,,,,,,,,,,,14,,,57,64
4260,note_on,,1,0,13,,,,,,,,,,,,,,,12,,,64,48
4260,note_on,,1,0,12,,,,,,,,,,,,,,,11,,,69,48
4274,note_on,,14,0,11,,,,,,,,,,,,,,,10,,,74,0
4319,note_on,,59,0,6,,,,,,,,,,,,,,,1,,,57,0
4319,note_on,,0,0,15,,,,,,,,,,,,,,,14,,,69,0
4319,note_on,,0,0,15,,,,,,,,,,,,,,,14,,,63,0
4319,note_on,,59,0,13,,,,,,,,,,,,,,,12,,,64,0
4319,note_on,,59,0,14,,,,,,,,,,,,,,,13,,,57,0
4319,note_on,,59,0,15,,,,,,,,,,,,,,,14,,,57,0
4319,note_on,,0,0,15,,,,,,,,,,,,,,,14,,,61,0
4319,note_on,,59,0,12,,,,,,,,,,,,,,,11,,,69,0
4319,note_on,,119,0,8,,,,,,,,,,,,,,,6,,,64,0
4319,note_on,,45,0,11,,,,,,,,,,,,,,,10,,,73,0
4319,note_on,,59,0,10,,,,,,,,,,,,,,,8,,,57,0
4320,note_on,,1,0,15,,,,,,,,,,,,,,,14,,,62,64
4320,note_on,,1,0,8,,,,,,,,,,,,,,,6,,,65,78
4320,note_on,,1,0,10,,,,,,,,,,,,,,,8,,,62,78
4320,note_on,,0,0,15,,,,,,,,,,,,,,,14,,,69,64
4320,note_on,,1,0,14,,,,,,,,,,,,,,,13,,,62,64
4320,note_on,,1,0,6,,,,,,,,,,,,,,,1,,,62,64
4320,note_on,,0,0,15,,,,,,,,,,,,,,,14,,,65,64
4379,note_on,,59,0,15,,,,,,,,,,,,,,,14,,,62,0
4379,note_on,,59,0,8,,,,,,,,,,,,,,,6,,,65,0
4379,note_on,,59,0,14,,,,,,,,,,,,,,,13,,,62,0
4379,note_on,,0,0,15,,,,,,,,,,,,,,,14,,,69,0
4379,note_on,,0,0,15,,,,,,,,,,,,,,,14,,,65,0
4379,note_on,,59,0,6,,,,,,,,,,,,,,,1,,,62,0
4380,note_on,,1,0,15,,,,,,,,,,,,,,,14,,,55,64
4380,note_on,,1,0,8,,,,,,,,,,,,,,,6,,,67,78
4380,note_on,,1,0,6,,,,,,,,,,,,,,,1,,,55,64
4380,note_on,,1,0,14,,,,,,,,,,,,,,,13,,,55,64
4380,note_on,,0,0,15,,,,,,,,,,,,,,,14,,,70,64
4380,note_on,,0,0,15,,,,,,,,,,,,,,,14,,,67,64
4380,note_on,,0,0,15,,,,,,,,,,,,,,,14,,,58,64
4409,note_on,,89,0,10,,,,,,,,,,,,,,,8,,,62,0
4410,note_on,,1,0,10,,,,,,,,,,,,,,,8,,,64,78
4439,note_on,,59,0,6,,,,,,,,,,,,,,,1,,,55,0
4439,note_on,,29,0,10,,,,,,,,,,,,,,,8,,,64,0
4439,note_on,,0,0,15,,,,,,,,,,,,,,,14,,,58,0
4439,note_on,,0,0,15,,,,,,,,,,,,,,,14,,,67,0
4439,note_on,,59,0,15,,,,,,,,,,,,,,,14,,,55,0
4439,note_on,,59,0,8,,,,,,,,,,,,,,,6,,,67,0
4439,note_on,,0,0,15,,,,,,,,,,,,,,,14,,,70,0
4439,note_on,,59,0,14,,,,,,,,,,,,,,,13,,,55,0
4440,note_on,,1,0,10,,,,,,,,,,,,,,,8,,,61,78
4440,note_on,,0,0,15,,,,,,,,,,,,,,,14,,,64,64
4440,note_on,,1,0,15,,,,,,,,,,,,,,,14,,,57,64
4440,note_on,,1,0,14,,,,,,,,,,,,,,,13,,,57,64
4440,note_on,,0,0,15,,,,,,,,,,,,,,,14,,,61,64
4440,note_on,,1,0,8,,,,,,,,,,,,,,,6,,,64,78
4440,note_on,,1,0,6,,,,,,,,,,,,,,,1,,,57,64
4499,note_on,,59,0,6,,,,,,,,,,,,,,,1,,,57,0
4499,note_on,,59,0,15,,,,,,,,,,,,,,,14,,,57,0
4499,note_on,,0,0,15,,,,,,,,,,,,,,,14,,,64,0
4499,note_on,,59,0,14,,,,,,,,,,,,,,,13,,,57,0
4500,note_on,,1,0,14,,,,,,,,,,,,,,,13,,,45,64
4500,note_on,,1,0,15,,,,,,,,,,,,,,,14,,,45,64
4500,note_on,,0,0,15,,,,,,,,,,,,,,,14,,,69,64
4500,note_on,,0,0,15,,,,,,,,,,,,,,,14,,,57,64
4500,note_on,,1,0,6,,,,,,,,,,,,,,,1,,,45,64
4559,note_on,,0,0,15,,,,,,,,,,,,,,,14,,,45,0
4559,note_on,,119,0,8,,,,,,,,,,,,,,,6,,,64,0
4559,note_on,,59,0,14,,,,,,,,,,,,,,,13,,,45,0
4559,note_on,,59,0,15,,,,,,,,,,,,,,,14,,,61,0
4559,note_on,,59,0,6,,,,,,,,,,,,,,,1,,,45,0
4559,note_on,,0,0,15,,,,,,,,,,,,,,,14,,,57,0
4559,note_on,,119,0,10,,,,,,,,,,,,,,,8,,,61,0
4559,note_on,,0,0,15,,,,,,,,,,,,,,,14,,,69,0
4560,note_on,,1,0,15,,,,,,,,,,,,,,,14,,,62,64
4560,note_on,,0,0,15,,,,,,,,,,,,,,,14,,,50,64
4560,note_on,,0,0,15,,,,,,,,,,,,,,,14,,,65,64
4560,note_on,,0,0,15,,,,,,,,,,,,,,,14,,,57,64
4560,note_on,,1,0,8,,,,,,,,,,,,,,,6,,,62,78
4560,note_on,,1,0,10,,,,,,,,,,,,,,,8,,,62,78
4560,note_on,,1,0,6,,,,,,,,,,,,,,,1,,,50,64
4560,note_on,,1,0,14,,,,,,,,,,,,,,,13,,,50,64
4620,note_on,,301,0,12,,,,,,,,,,,,,,,11,,,77,48
4620,note_on,,301,0,13,,,,,,,,,,,,,,,12,,,62,48
4620,note_on,,301,0,11,,,,,,,,,,,,,,,10,,,81,48
4679,note_on,,119,0,10,,,,,,,,,,,,,,,8,,,62,0
4679,note_on,,59,0,12,,,,,,,,,,,,,,,11,,,77,0
4679,note_on,,59,0,11,,,,,,,,,,,,,,,10,,,81,0
4679,note_on,,119,0,14,,,,,,,,,,,,,,,13,,,50,0
4679,note_on,,119,0,8,,,,,,,,,,,,,,,6,,,62,0
4679,note_on,,59,0,13,,,,,,,,,,,,,,,12,,,62,0
4679,note_on,,0,0,15,,,,,,,,,,,,,,,14,,,65,0
4679,note_on,,119,0,15,,,,,,,,,,,,,,,14,,,62,0
4679,note_on,,0,0,15,,,,,,,,,,,,,,,14,,,50,0
4679,note_on,,0,0,15,,,,,,,,,,,,,,,14,,,57,0
4679,note_on,,119,0,6,,,,,,,,,,,,,,,1,,,50,0
4680,note_on,,1,0,11,,,,,,,,,,,,,,,10,,,86,48
4680,note_on,,1,0,12,,,,,,,,,,,,,,,11,,,81,48
4680,note_on,,1,0,13,,,,,,,,,,,,,,,12,,,65,48
4739,note_on,,59,0,11,,,,,,,,,,,,,,,10,,,86,0
4739,note_on,,59,0,12,,,,,,,,,,,,,,,11,,,81,0
4739,note_on,,59,0,13,,,,,,,,,,,,,,,12,,,65,0
4740,note_on,,0,0,15,,,,,,,,,,,,,,,14,,,57,64
4740,note_on,,0,0,15,,,,,,,,,,,,,,,14,,,65,64
4740,note_on,,61,0,15,,,,,,,,,,,,,,,14,,,38,64
4740,note_on,,1,0,11,,,,,,,,,,,,,,,10,,,81,48
4740,note_on,,61,0,14,,,,,,,,,,,,,,,13,,,38,64
4740,note_on,,1,0,13,,,,,,,,,,,,,,,12,,,62,48
4740,note_on,,1,0,12,,,,,,,,,,,,,,,11,,,77,48
4740,note_on,,0,0,15,,,,,,,,,,,,,,,14,,,50,64
4740,note_on,,61,0,6,,,,,,,,,,,,,,,1,,,38,64
4740,note_on,,0,0,9,,,,,,,,,,,,,,,7,,,57,78
4740,control_change,,4740,0,9,,,,,,,,,,,,,,,7,7,96,,
4799,note_on,,59,0,9,,,,,,,,,,,,,,,7,,,57,0
4799,note_on,,59,0,14,,,,,,,,,,,,,,,13,,,38,0
4799,note_on,,59,0,12,,,,,,,,,,,,,,,11,,,77,0
4799,note_on,,59,0,15,,,,,,,,,,,,,,,14,,,38,0
4799,note_on,,0,0,15,,,,,,,,,,,,,,,14,,,65,0
4799,note_on,,0,0,15,,,,,,,,,,,,,,,14,,,50,0
4799,note_on,,0,0,15,,,,,,,,,,,,,,,14,,,57,0
4799,note_on,,59,0,6,,,,,,,,,,,,,,,1,,,38,0
4799,note_on,,59,0,13,,,,,,,,,,,,,,,12,,,62,0
4799,note_on,,59,0,11,,,,,,,,,,,,,,,10,,,81,0
4800,note_on,,1,0,14,,,,,,,,,,,,,,,13,,,50,64
4800,note_on,,1,0,6,,,,,,,,,,,,,,,1,,,50,64
4800,note_on,,1,0,9,,,,,,,,,,,,,,,7,,,62,78
4800,note_on,,0,0,15,,,,,,,,,,,,,,,14,,,53,64
4800,note_on,,0,0,15,,,,,,,,,,,,,,,14,,,62,64
4800,note_on,,1,0,15,,,,,,,,,,,,,,,14,,,50,64
4800,note_on,,0,0,15,,,,,,,,,,,,,,,14,,,69,64
4859,note_on,,0,0,15,,,,,,,,,,,,,,,14,,,53,0
4859,note_on,,59,0,9,,,,,,,,,,,,,,,7,,,62,0
4859,note_on,,59,0,14,,,,,,,,,,,,,,,13,,,50,0
4859,note_on,,59,0,15,,,,,,,,,,,,,,,14,,,50,0
4859,note_on,,59,0,6,,,,,,,,,,,,,,,1,,,50,0
4860,note_on,,1,0,15,,,,,,,,,,,,,,,14,,,52,64
4860,note_on,,1,0,9,,,,,,,,,,,,,,,7,,,62,78
4860,note_on,,0,0,15,,,,,,,,,,,,,,,14,,,55,64
4860,note_on,,1,0,14,,,,,,,,,,,,,,,13,,,52,64
4860,note_on,,1,0,6,,,,,,,,,,,,,,,1,,,52,64
4919,note_on,,59,0,6,,,,,,,,,,,,,,,1,,,52,0
4919,note_on,,0,0,15,,,,,,,,,,,,,,,14,,,55,0
4919,note_on,,59,0,9,,,,,,,,,,,,,,,7,,,62,0
4919,note_on,,59,0,15,,,,,,,,,,,,,,,14,,,52,0
4919,note_on,,59,0,14,,,,,,,,,,,,,,,13,,,52,0
4920,note_on,,1,0,9,,,,,,,,,,,,,,,7,,,62,78
4920,note_on,,1,0,15,,,,,,,,,,,,,,,14,,,53,64
4920,note_on,,0,0,15,,,,,,,,,,,,,,,14,,,57,64
4920,note_on,,1,0,14,,,,,,,,,,,,,,,13,,,53,64
4920,note_on,,1,0,6,,,,,,,,,,,,,,,1,,,53,64
4979,note_on,,0,0,15,,,,,,,,,,,,,,,14,,,57,0
4979,note_on,,0,0,15,,,,,,,,,,,,,,,14,,,62,0
4979,note_on,,0,0,15,,,,,,,,,,,,,,,14,,,53,0
4979,note_on,,59,0,14,,,,,,,,,,,,,,,13,,,53,0
4979,note_on,,59,0,15,,,,,,,,,,,,,,,14,,,69,0
4979,note_on,,59,0,9,,,,,,,,,,,,,,,7,,,62,0
4979,note_on,,59,0,6,,,,,,,,,,,,,,,1,,,53,0
4980,note_on,,1,0,6,,,,,,,,,,,,,,,1,,,55,64
4980,note_on,,1,0,9,,,,,,,,,,,,,,,7,,,62,78
4980,note_on,,0,0,15,,,,,,,,,,,,,,,14,,,58,64
4980,note_on,,0,0,15,,,,,,,,,,,,,,,14,,,74,64
4980,note_on,,0,0,15,,,,,,,,,,,,,,,14,,,62,64
4980,note_on,,1,0,14,,,,,,,,,,,,,,,13,,,55,64
4980,note_on,,1,0,15,,,,,,,,,,,,,,,14,,,55,64
5039,note_on,,59,0,15,,,,,,,,,,,,,,,14,,,55,0
5039,note_on,,0,0,15,,,,,,,,,,,,,,,14,,,58,0
5039,note_on,,0,0,15,,,,,,,,,,,,,,,14,,,74,0
5039,note_on,,0,0,15,,,,,,,,,,,,,,,14,,,62,0
5039,note_on,,59,0,9,,,,,,,,,,,,,,,7,,,62,0
5039,note_on,,59,0,6,,,,,,,,,,,,,,,1,,,55,0
5039,note_on,,59,0,14,,,,,,,,,,,,,,,13,,,55,0
5040,note_on,,1,0,9,,,,,,,,,,,,,,,7,,,60,78
5040,note_on,,1,0,6,,,,,,,,,,,,,,,1,,,57,64
5040,note_on,,0,0,15,,,,,,,,,,,,,,,14,,,64,64
5040,note_on,,0,0,15,,,,,,,,,,,,,,,14,,,69,64
5040,note_on,,0,0,15,,,,,,,,,,,,,,,14,,,60,64
5040,note_on,,1,0,15,,,,,,,,,,,,,,,14,,,57,64
5040,note_on,,1,0,14,,,,,,,,,,,,,,,13,,,57,64
5069,note_on,,29,0,9,,,,,,,,,,,,,,,7,,,60,0
5070,note_on,,1,0,9,,,,,,,,,,,,,,,7,,,62,78
5099,note_on,,29,0,9,,,,,,,,,,,,,,,7,,,62,0
5100,note_on,,301,0,12,,,,,,,,,,,,,,,11,,,60,48
5100,note_on,,301,0,11,,,,,,,,,,,,,,,10,,,64,48
5100,note_on,,301,0,13,,,,,,,,,,,,,,,12,,,64,48
5100,note_on,,1,0,9,,,,,,,,,,,,,,,7,,,60,78
5129,note_on,,29,0,9,,,,,,,,,,,,,,,7,,,60,0
5130,note_on,,1,0,9,,,,,,,,,,,,,,,7,,,58,78
5159,note_on,,0,0,15,,,,,,,,,,,,,,,14,,,69,0
5159,note_on,,0,0,15,,,,,,,,,,,,,,,14,,,60,0
5159,note_on,,119,0,15,,,,,,,,,,,,,,,14,,,57,0
5159,note_on,,119,0,6,,,,,,,,,,,,,,,1,,,57,0
5159,note_on,,59,0,13,,,,,,,,,,,,,,,12,,,64,0
5159,note_on,,119,0,14,,,,,,,,,,,,,,,13,,,57,0
5159,note_on,,0,0,15,,,,,,,,,,,,,,,14,,,64,0
5159,note_on,,59,0,11,,,,,,,,,,,,,,,10,,,64,0
5159,note_on,,59,0,12,,,,,,,,,,,,,,,11,,,60,0
5159,note_on,,29,0,9,,,,,,,,,,,,,,,7,,,58,0
5160,note_on,,1,0,11,,,,,,,,,,,,,,,10,,,69,48
5160,note_on,,1,0,9,,,,,,,,,,,,,,,7,,,60,78
5160,note_on,,1,0,12,,,,,,,,,,,,,,,11,,,64,48
5160,note_on,,1,0,13,,,,,,,,,,,,,,,12,,,60,48
5189,note_on,,29,0,9,,,,,,,,,,,,,,,7,,,60,0
5190,note_on,,1,0,9,,,,,,,,,,,,,,,7,,,57,78
5219,note_on,,59,0,12,,,,,,,,,,,,,,,11,,,64,0
5219,note_on,,29,0,9,,,,,,,,,,,,,,,7,,,57,0
5219,note_on,,59,0,13,,,,,,,,,,,,,,,12,,,60,0
5219,note_on,,59,0,11,,,,,,,,,,,,,,,10,,,69,0
5220,note_on,,61,0,15,,,,,,,,,,,,,,,14,,,48,64
5220,note_on,,0,0,15,,,,,,,,,,,,,,,14,,,57,64
5220,note_on,,0,0,15,,,,,,,,,,,,,,,14,,,51,64
5220,note_on,,61,0,6,,,,,,,,,,,,,,,1,,,48,64
5220,note_on,,1,0,9,,,,,,,,,,,,,,,7,,,55,78
5220,note_on,,1,0,12,,,,,,,,,,,,,,,11,,,60,48
5220,note_on,,1,0,13,,,,,,,,,,,,,,,12,,,64,48
5220,note_on,,61,0,14,,,,,,,,,,,,,,,13,,,48,64
5220,note_on,,1,0,11,,,,,,,,,,,,,,,10,,,64,48
5220,note_on,,0,0,15,,,,,,,,,,,,,,,14,,,64,64
5249,note_on,,29,0,9,,,,,,,,,,,,,,,7,,,55,0
5250,note_on,,1,0,9,,,,,,,,,,,,,,,7,,,57,78
5279,note_on,,59,0,14,,,,,,,,,,,,,,,13,,,48,0
5279,note_on,,29,0,9,,,,,,,,,,,,,,,7,,,57,0
5279,note_on,,0,0,15,,,,,,,,,,,,,,,14,,,51,0
5279,note_on,,59,0,12,,,,,,,,,,,,,,,11,,,60,0
5279,note_on,,0,0,15,,,,,,,,,,,,,,,14,,,57,0
5279,note_on,,59,0,11,,,,,,,,,,,,,,,10,,,64,0
5279,note_on,,59,0,15,,,,,,,,,,,,,,,14,,,48,0
5279,note_on,,59,0,13,,,,,,,,,,,,,,,12,,,64,0
5279,note_on,,59,0,6,,,,,,,,,,,,,,,1,,,48,0
5279,note_on,,0,0,15,,,,,,,,,,,,,,,14,,,64,0
5280,note_on,,1,0,6,,,,,,,,,,,,,,,1,,,50,64
5280,note_on,,0,0,15,,,,,,,,,,,,,,,14,,,53,64
5280,note_on,,0,0,15,,,,,,,,,,,,,,,14,,,58,64
5280,note_on,,1,0,15,,,,,,,,,,,,,,,14,,,50,64
5280,note_on,,0,0,15,,,,,,,,,,,,,,,14,,,62,64
5280,note_on,,1,0,14,,,,,,,,,,,,,,,13,,,50,64
5280,note_on,,1,0,9,,,,,,,,,,,,,,,7,,,58,78
5309,note_on,,29,0,9,,,,,,,,,,,,,,,7,,,58,0
5310,note_on,,1,0,9,,,,,,,,,,,,,,,7,,,60,78
5339,note_on,,59,0,14,,,,,,,,,,,,,,,13,,,50,0
5339,note_on,,29,0,9,,,,,,,,,,,,,,,7,,,60,0
5339,note_on,,0,0,15,,,,,,,,,,,,,,,14,,,53,0
5339,note_on,,59,0,15,,,,,,,,,,,,,,,14,,,50,0
5339,note_on,,59,0,6,,,,,,,,,,,,,,,1,,,50,0
5340,note_on,,0,0,15,,,,,,,,,,,,,,,14,,,52,64
5340,note_on,,1,0,15,,,,,,,,,,,,,,,14,,,48,64
5340,note_on,,1,0,9,,,,,,,,,,,,,,,7,,,58,78
5340,note_on,,1,0,6,,,,,,,,,,,,,,,1,,,48,64
5340,note_on,,1,0,14,,,,,,,,,,,,,,,13,,,48,64
5369,note_on,,29,0,9,,,,,,,,,,,,,,,7,,,58,0
5370,note_on,,1,0,9,,,,,,,,,,,,,,,7,,,57,78
5399,note_on,,59,0,6,,,,,,,,,,,,,,,1,,,48,0
5399,note_on,,0,0,15,,,,,,,,,,,,,,,14,,,52,0
5399,note_on,,59,0,15,,,,,,,,,,,,,,,14,,,48,0
5399,note_on,,29,0,9,,,,,,,,,,,,,,,7,,,57,0
5399,note_on,,59,0,14,,,,,,,,,,,,,,,13,,,48,0
5400,note_on,,1,0,6,,,,,,,,,,,,,,,1,,,50,64
5400,note_on,,1,0,15,,,,,,,,,,,,,,,14,,,50,64
5400,note_on,,0,0,15,,,,,,,,,,,,,,,14,,,53,64
5400,note_on,,1,0,9,,,,,,,,,,,,,,,7,,,58,78
5400,note_on,,1,0,14,,,,,,,,,,,,,,,13,,,50,64
5429,note_on,,29,0,9,,,,,,,,,,,,,,,7,,,58,0
5430,note_on,,1,0,9,,,,,,,,,,,,,,,7,,,55,78
5459,note_on,,0,0,15,,,,,,,,,,,,,,,14,,,53,0
5459,note_on,,0,0,15,,,,,,,,,,,,,,,14,,,50,0
5459,note_on,,59,0,14,,,,,,,,,,,,,,,13,,,50,0
5459,note_on,,59,0,15,,,,,,,,,,,,,,,14,,,62,0
5459,note_on,,29,0,9,,,,,,,,,,,,,,,7,,,55,0
5459,note_on,,59,0,6,,,,,,,,,,,,,,,1,,,50,0
5459,note_on,,0,0,15,,,,,,,,,,,,,,,14,,,58,0
5460,note_on,,0,0,15,,,,,,,,,,,,,,,14,,,55,64
5460,note_on,,1,0,14,,,,,,,,,,,,,,,13,,,52,64
5460,note_on,,1,0,6,,,,,,,,,,,,,,,1,,,52,64
5460,note_on,,1,0,9,,,,,,,,,,,,,,,7,,,53,78
5460,note_on,,0,0,15,,,,,,,,,,,,,,,14,,,67,64
5460,note_on,,0,0,15,,,,,,,,,,,,,,,14,,,60,64
5460,note_on,,1,0,15,,,,,,,,,,,,,,,14,,,52,64
5489,note_on,,29,0,9,,,,,,,,,,,,,,,7,,,53,0
5490,note_on,,1,0,9,,,,,,,,,,,,,,,7,,,55,78
5519,note_on,,0,0,15,,,,,,,,,,,,,,,14,,,55,0
5519,note_on,,0,0,15,,,,,,,,,,,,,,,14,,,67,0
5519,note_on,,0,0,15,,,,,,,,,,,,,,,14,,,60,0
5519,note_on,,59,0,6,,,,,,,,,,,,,,,1,,,52,0
5519,note_on,,59,0,14,,,,,,,,,,,,,,,13,,,52,0
5519,note_on,,29,0,9,,,,,,,,,,,,,,,7,,,55,0
5519,note_on,,59,0,15,,,,,,,,,,,,,,,14,,,52,0
5520,note_on,,1,0,6,,,,,,,,,,,,,,,1,,,53,64
5520,note_on,,1,0,15,,,,,,,,,,,,,,,14,,,60,64
5520,note_on,,0,0,15,,,,,,,,,,,,,,,14,,,53,64
5520,note_on,,1,0,14,,,,,,,,,,,,,,,13,,,53,64
5520,note_on,,0,0,15,,,,,,,,,,,,,,,14,,,57,64
5520,note_on,,1,0,9,,,,,,,,,,,,,,,7,,,57,78
5579,note_on,,59,0,9,,,,,,,,,,,,,,,7,,,57,0
5580,note_on,,301,0,13,,,,,,,,,,,,,,,12,,,50,48
5580,note_on,,1,0,9,,,,,,,,,,,,,,,7,,,57,78
5580,note_on,,301,0,11,,,,,,,,,,,,,,,10,,,77,48
5580,note_on,,301,0,12,,,,,,,,,,,,,,,11,,,74,48
5639,note_on,,119,0,15,,,,,,,,,,,,,,,14,,,60,0
5639,note_on,,119,0,6,,,,,,,,,,,,,,,1,,,53,0
5639,note_on,,59,0,13,,,,,,,,,,,,,,,12,,,50,0
5639,note_on,,59,0,11,,,,,,,,,,,,,,,10,,,77,0
5639,note_on,,59,0,9,,,,,,,,,,,,,,,7,,,57,0
5639,note_on,,119,0,14,,,,,,,,,,,,,,,13,,,53,0
5639,note_on,,59,0,12,,,,,,,,,,,,,,,11,,,74,0
5639,note_on,,0,0,15,,,,,,,,,,,,,,,14,,,57,0
5639,note_on,,0,0,15,,,,,,,,,,,,,,,14,,,53,0
5640,note_on,,1,0,9,,,,,,,,,,,,,,,7,,,62,78
5640,note_on,,1,0,12,,,,,,,,,,,,,,,11,,,77,48
5640,note_on,,1,0,13,,,,,,,,,,,,,,,12,,,62,48
5640,note_on,,1,0,11,,,,,,,,,,,,,,,10,,,81,48
5699,note_on,,59,0,12,,,,,,,,,,,,,,,11,,,77,0
5699,note_on,,59,0,13,,,,,,,,,,,,,,,12,,,62,0
5699,note_on,,59,0,11,,,,,,,,,,,,,,,10,,,81,0
5700,note_on,,61,0,6,,,,,,,,,,,,,,,1,,,53,64
5700,note_on,,1,0,11,,,,,,,,,,,,,,,10,,,77,48
5700,note_on,,61,0,14,,,,,,,,,,,,,,,13,,,53,64
5700,note_on,,1021,0,8,,,,,,,,,,,,,,,6,,,62,78
5700,note_on,,1,0,12,,,,,,,,,,,,,,,11,,,74,48
5700,note_on,,1,0,13,,,,,,,,,,,,,,,12,,,69,48
5700,note_on,,0,0,15,,,,,,,,,,,,,,,14,,,57,64
5700,note_on,,0,0,15,,,,,,,,,,,,,,,14,,,62,64
5700,note_on,,61,0,15,,,,,,,,,,,,,,,14,,,53,64
5759,note_on,,59,0,13,,,,,,,,,,,,,,,12,,,69,0
5759,note_on,,59,0,11,,,,,,,,,,,,,,,10,,,77,0
5759,note_on,,59,0,6,,,,,,,,,,,,,,,1,,,53,0
5759,note_on,,59,0,12,,,,,,,,,,,,,,,11,,,74,0
5759,note_on,,0,0,15,,,,,,,,,,,,,,,14,,,57,0
5759,note_on,,0,0,15,,,,,,,,,,,,,,,14,,,62,0
5759,note_on,,59,0,15,,,,,,,,,,,,,,,14,,,53,0
5759,note_on,,59,0,14,,,,,,,,,,,,,,,13,,,53,0
5759,note_on,,59,0,8,,,,,,,,,,,,,,,6,,,62,0
5760,note_on,,0,0,15,,,,,,,,,,,,,,,14,,,58,64
5760,note_on,,1,0,8,,,,,,,,,,,,,,,6,,,67,78
5760,note_on,,1,0,14,,,,,,,,,,,,,,,13,,,51,64
5760,note_on,,1,0,6,,,,,,,,,,,,,,,1,,,51,64
5760,note_on,,1,0,15,,,,,,,,,,,,,,,14,,,51,64
5760,note_on,,0,0,15,,,,,,,,,,,,,,,14,,,67,64
5760,note_on,,0,0,15,,,,,,,,,,,,,,,14,,,62,64
5819,note_on,,59,0,8,,,,,,,,,,,,,,,6,,,67,0
5820,note_on,,1,0,8,,,,,,,,,,,,,,,6,,,67,78
5879,note_on,,239,0,9,,,,,,,,,,,,,,,7,,,62,0
5879,note_on,,59,0,8,,,,,,,,,,,,,,,6,,,67,0
5879,note_on,,0,0,15,,,,,,,,,,,,,,,14,,,58,0
5879,note_on,,119,0,15,,,,,,,,,,,,,,,14,,,62,0
5880,note_on,,1,0,15,,,,,,,,,,,,,,,14,,,60,64
5880,note_on,,1,0,8,,,,,,,,,,,,,,,6,,,67,78
5880,note_on,,0,0,15,,,,,,,,,,,,,,,14,,,55,64
5880,note_on,,1,0,9,,,,,,,,,,,,,,,7,,,60,78
5939,note_on,,59,0,15,,,,,,,,,,,,,,,14,,,51,0
5939,note_on,,179,0,14,,,,,,,,,,,,,,,13,,,51,0
5939,note_on,,59,0,8,,,,,,,,,,,,,,,6,,,67,0
5939,note_on,,179,0,6,,,,,,,,,,,,,,,1,,,51,0
5940,note_on,,1,0,15,,,,,,,,,,,,,,,14,,,51,64
5940,note_on,,1,0,6,,,,,,,,,,,,,,,1,,,51,64
5940,note_on,,1,0,8,,,,,,,,,,,,,,,6,,,67,78
5940,note_on,,1,0,14,,,,,,,,,,,,,,,13,,,51,64
5999,note_on,,59,0,6,,,,,,,,,,,,,,,1,,,51,0
5999,note_on,,59,0,14,,,,,,,,,,,,,,,13,,,51,0
5999,note_on,,59,0,8,,,,,,,,,,,,,,,6,,,67,0
5999,note_on,,59,0,15,,,,,,,,,,,,,,,14,,,67,0
5999,note_on,,0,0,15,,,,,,,,,,,,,,,14,,,60,0
5999,note_on,,0,0,15,,,,,,,,,,,,,,,14,,,55,0
5999,note_on,,0,0,15,,,,,,,,,,,,,,,14,,,51,0
6000,note_on,,1,0,14,,,,,,,,,,,,,,,13,,,50,64
6000,note_on,,0,0,15,,,,,,,,,,,,,,,14,,,60,64
6000,note_on,,0,0,15,,,,,,,,,,,,,,,14,,,65,64
6000,note_on,,0,0,15,,,,,,,,,,,,,,,14,,,69,64
6000,note_on,,1,0,15,,,,,,,,,,,,,,,14,,,50,64
6000,note_on,,1,0,8,,,,,,,,,,,,,,,6,,,65,78
6000,note_on,,1,0,6,,,,,,,,,,,,,,,1,,,50,64
6029,note_on,,29,0,8,,,,,,,,,,,,,,,6,,,65,0
6030,note_on,,1,0,8,,,,,,,,,,,,,,,6,,,67,78
6059,note_on,,59,0,15,,,,,,,,,,,,,,,14,,,50,0
6059,note_on,,59,0,6,,,,,,,,,,,,,,,1,,,50,0
6059,note_on,,29,0,8,,,,,,,,,,,,,,,6,,,67,0
6059,note_on,,59,0,14,,,,,,,,,,,,,,,13,,,50,0
6060,note_on,,1,0,15,,,,,,,,,,,,,,,14,,,48,64
6060,note_on,,1,0,14,,,,,,,,,,,,,,,13,,,48,64
6060,note_on,,1,0,6,,,,,,,,,,,,,,,1,,,48,64
6060,note_on,,1,0,8,,,,,,,,,,,,,,,6,,,65,78
6089,note_on,,29,0,8,,,,,,,,,,,,,,,6,,,65,0
6090,note_on,,1,0,8,,,,,,,,,,,,,,,6,,,63,78
6119,note_on,,59,0,15,,,,,,,,,,,,,,,14,,,69,0
6119,note_on,,59,0,14,,,,,,,,,,,,,,,13,,,48,0
6119,note_on,,0,0,15,,,,,,,,,,,,,,,14,,,65,0
6119,note_on,,0,0,15,,,,,,,,,,,,,,,14,,,60,0
6119,note_on,,0,0,15,,,,,,,,,,,,,,,14,,,48,0
6119,note_on,,59,0,6,,,,,,,,,,,,,,,1,,,48,0
6119,note_on,,29,0,8,,,,,,,,,,,,,,,6,,,63,0
6119,note_on,,239,0,9,,,,,,,,,,,,,,,7,,,60,0
6120,note_on,,0,0,15,,,,,,,,,,,,,,,14,,,58,64
6120,note_on,,0,0,15,,,,,,,,,,,,,,,14,,,70,64
6120,note_on,,1,0,15,,,,,,,,,,,,,,,14,,,50,64
6120,note_on,,1,0,14,,,,,,,,,,,,,,,13,,,50,64
6120,note_on,,1,0,9,,,,,,,,,,,,,,,7,,,58,78
6120,note_on,,1,0,6,,,,,,,,,,,,,,,1,,,50,64
6120,note_on,,0,0,15,,,,,,,,,,,,,,,14,,,65,64
6120,note_on,,1,0,8,,,,,,,,,,,,,,,6,,,65,78
6149,note_on,,29,0,8,,,,,,,,,,,,,,,6,,,65,0
6150,note_on,,1,0,8,,,,,,,,,,,,,,,6,,,62,78
6179,note_on,,59,0,15,,,,,,,,,,,,,,,14,,,50,0
6179,note_on,,0,0,15,,,,,,,,,,,,,,,14,,,70,0
6179,note_on,,0,0,15,,,,,,,,,,,,,,,14,,,65,0
6179,note_on,,0,0,15,,,,,,,,,,,,,,,14,,,58,0
6179,note_on,,59,0,6,,,,,,,,,,,,,,,1,,,50,0
6179,note_on,,59,0,14,,,,,,,,,,,,,,,13,,,50,0
6179,note_on,,29,0,8,,,,,,,,,,,,,,,6,,,62,0
6180,note_on,,1,0,15,,,,,,,,,,,,,,,14,,,43,64
6180,note_on,,0,0,15,,,,,,,,,,,,,,,14,,,75,64
6180,note_on,,1,0,8,,,,,,,,,,,,,,,6,,,60,78
6180,note_on,,0,0,15,,,,,,,,,,,,,,,14,,,70,64
6180,note_on,,0,0,15,,,,,,,,,,,,,,,14,,,67,64
6180,note_on,,1,0,14,,,,,,,,,,,,,,,13,,,43,64
6180,note_on,,1,0,6,,,,,,,,,,,,,,,1,,,43,64
6209,note_on,,29,0,8,,,,,,,,,,,,,,,6,,,60,0
6210,note_on,,1,0,8,,,,,,,,,,,,,,,6,,,62,78
6239,note_on,,29,0,8,,,,,,,,,,,,,,,6,,,62,0
6239,note_on,,0,0,15,,,,,,,,,,,,,,,14,,,75,0
6239,note_on,,59,0,15,,,,,,,,,,,,,,,14,,,43,0
6239,note_on,,59,0,6,,,,,,,,,,,,,,,1,,,43,0
6239,note_on,,59,0,14,,,,,,,,,,,,,,,13,,,43,0
6239,note_on,,0,0,15,,,,,,,,,,,,,,,14,,,70,0
6239,note_on,,0,0,15,,,,,,,,,,,,,,,14,,,67,0
6240,note_on,,1,0,14,,,,,,,,,,,,,,,13,,,48,64
6240,note_on,,0,0,15,,,,,,,,,,,,,,,14,,,70,64
6240,note_on,,0,0,15,,,,,,,,,,,,,,,14,,,72,64
6240,note_on,,1,0,15,,,,,,,,,,,,,,,14,,,48,64
6240,note_on,,1,0,6,,,,,,,,,,,,,,,1,,,48,64
6240,note_on,,1,0,8,,,,,,,,,,,,,,,6,,,63,78
6240,note_on,,0,0,15,,,,,,,,,,,,,,,14,,,63,64
6269,note_on,,29,0,8,,,,,,,,,,,,,,,6,,,63,0
6270,note_on,,1,0,8,,,,,,,,,,,,,,,6,,,65,78
6299,note_on,,29,0,8,,,,,,,,,,,,,,,6,,,65,0
6300,note_on,,1,0,8,,,,,,,,,,,,,,,6,,,63,78
6329,note_on,,29,0,8,,,,,,,,,,,,,,,6,,,63,0
6330,note_on,,1,0,8,,,,,,,,,,,,,,,6,,,62,78
6359,note_on,,29,0,8,,,,,,,,,,,,,,,6,,,62,0
6359,note_on,,239,0,9,,,,,,,,,,,,,,,7,,,58,0
6360,note_on,,1,0,9,,,,,,,,,,,,,,,7,,,57,78
6360,note_on,,1,0,8,,,,,,,,,,,,,,,6,,,63,78
6389,note_on,,29,0,8,,,,,,,,,,,,,,,6,,,63,0
6390,note_on,,1,0,8,,,,,,,,,,,,,,,6,,,60,78
6419,note_on,,0,0,15,,,,,,,,,,,,,,,14,,,70,0
6419,note_on,,179,0,6,,,,,,,,,,,,,,,1,,,48,0
6419,note_on,,0,0,15,,,,,,,,,,,,,,,14,,,63,0
6419,note_on,,29,0,8,,,,,,,,,,,,,,,6,,,60,0
6419,note_on,,179,0,14,,,,,,,,,,,,,,,13,,,48,0
6419,note_on,,179,0,15,,,,,,,,,,,,,,,14,,,48,0
6420,note_on,,1,0,15,,,,,,,,,,,,,,,14,,,41,64
6420,note_on,,0,0,15,,,,,,,,,,,,,,,14,,,69,64
6420,note_on,,1,0,8,,,,,,,,,,,,,,,6,,,58,78
6420,note_on,,1,0,14,,,,,,,,,,,,,,,13,,,41,64
6420,note_on,,1,0,6,,,,,,,,,,,,,,,1,,,41,64
6420,note_on,,0,0,15,,,,,,,,,,,,,,,14,,,65,64
6449,note_on,,29,0,8,,,,,,,,,,,,,,,6,,,58,0
6450,note_on,,1,0,8,,,,,,,,,,,,,,,6,,,60,78
6479,note_on,,0,0,15,,,,,,,,,,,,,,,14,,,41,0
6479,note_on,,0,0,15,,,,,,,,,,,,,,,14,,,69,0
6479,note_on,,0,0,15,,,,,,,,,,,,,,,14,,,65,0
6479,note_on,,59,0,14,,,,,,,,,,,,,,,13,,,41,0
6479,note_on,,59,0,15,,,,,,,,,,,,,,,14,,,72,0
6479,note_on,,59,0,6,,,,,,,,,,,,,,,1,,,41,0
6479,note_on,,29,0,8,,,,,,,,,,,,,,,6,,,60,0
6480,note_on,,1,0,15,,,,,,,,,,,,,,,14,,,46,64
6480,note_on,,0,0,15,,,,,,,,,,,,,,,14,,,74,64
6480,note_on,,0,0,15,,,,,,,,,,,,,,,14,,,70,64
6480,note_on,,0,0,15,,,,,,,,,,,,,,,14,,,62,64
6480,note_on,,1,0,14,,,,,,,,,,,,,,,13,,,46,64
6480,note_on,,1,0,6,,,,,,,,,,,,,,,1,,,46,64
6480,note_on,,1,0,8,,,,,,,,,,,,,,,6,,,62,78
6509,note_on,,29,0,8,,,,,,,,,,,,,,,6,,,62,0
6510,note_on,,1,0,8,,,,,,,,,,,,,,,6,,,63,78
6539,note_on,,29,0,8,,,,,,,,,,,,,,,6,,,63,0
6540,note_on,,1,0,8,,,,,,,,,,,,,,,6,,,62,78
6569,note_on,,29,0,8,,,,,,,,,,,,,,,6,,,62,0
6570,note_on,,1,0,8,,,,,,,,,,,,,,,6,,,60,78
6599,note_on,,239,0,9,,,,,,,,,,,,,,,7,,,57,0
6599,note_on,,29,0,8,,,,,,,,,,,,,,,6,,,60,0
6599,note_on,,119,0,15,,,,,,,,,,,,,,,14,,,74,0
6599,note_on,,0,0,15,,,,,,,,,,,,,,,14,,,70,0
6599,note_on,,0,0,15,,,,,,,,,,,,,,,14,,,62,0
6600,note_on,,1,0,8,,,,,,,,,,,,,,,6,,,62,78
6600,note_on,,0,0,15,,,,,,,,,,,,,,,14,,,62,64
6600,note_on,,1,0,9,,,,,,,,,,,,,,,7,,,55,78
6600,note_on,,0,0,15,,,,,,,,,,,,,,,14,,,58,64
6600,note_on,,1,0,15,,,,,,,,,,,,,,,14,,,67,64
6629,note_on,,29,0,8,,,,,,,,,,,,,,,6,,,62,0
6630,note_on,,1,0,8,,,,,,,,,,,,,,,6,,,58,78
6659,note_on,,29,0,8,,,,,,,,,,,,,,,6,,,58,0
6659,note_on,,59,0,15,,,,,,,,,,,,,,,14,,,46,0
6659,note_on,,0,0,15,,,,,,,,,,,,,,,14,,,62,0
6659,note_on,,179,0,14,,,,,,,,,,,,,,,13,,,46,0
6659,note_on,,179,0,6,,,,,,,,,,,,,,,1,,,46,0
6660,note_on,,0,0,15,,,,,,,,,,,,,,,14,,,60,64
6660,note_on,,1,0,6,,,,,,,,,,,,,,,1,,,51,64
6660,note_on,,1,0,15,,,,,,,,,,,,,,,14,,,51,64
6660,note_on,,1,0,8,,,,,,,,,,,,,,,6,,,57,78
6660,note_on,,1,0,14,,,,,,,,,,,,,,,13,,,51,64
6689,note_on,,29,0,8,,,,,,,,,,,,,,,6,,,57,0
6689,note_on,,29,0,15,,,,,,,,,,,,,,,14,,,60,0
6690,note_on,,1,0,8,,,,,,,,,,,,,,,6,,,58,78
6690,note_on,,1,0,15,,,,,,,,,,,,,,,14,,,58,64
6719,note_on,,29,0,8,,,,,,,,,,,,,,,6,,,58,0
6719,note_on,,119,0,9,,,,,,,,,,,,,,,7,,,55,0
6719,note_on,,0,0,15,,,,,,,,,,,,,,,14,,,58,0
6719,note_on,,0,0,15,,,,,,,,,,,,,,,14,,,58,0
6719,note_on,,59,0,14,,,,,,,,,,,,,,,13,,,51,0
6719,note_on,,0,0,15,,,,,,,,,,,,,,,14,,,51,0
6719,note_on,,59,0,6,,,,,,,,,,,,,,,1,,,51,0
6719,note_on,,29,0,15,,,,,,,,,,,,,,,14,,,67,0
6720,note_on,,1,0,14,,,,,,,,,,,,,,,13,,,45,64
6720,note_on,,0,0,15,,,,,,,,,,,,,,,14,,,69,64
6720,note_on,,1,0,15,,,,,,,,,,,,,,,14,,,60,64
6720,note_on,,0,0,15,,,,,,,,,,,,,,,14,,,45,64
6720,note_on,,0,0,15,,,,,,,,,,,,,,,14,,,67,64
6720,note_on,,1,0,8,,,,,,,,,,,,,,,6,,,60,78
6720,note_on,,1,0,9,,,,,,,,,,,,,,,7,,,55,88
6720,note_on,,1,0,6,,,,,,,,,,,,,,,1,,,45,64
6749,note_on,,29,0,8,,,,,,,,,,,,,,,6,,,60,0
6750,note_on,,1,0,8,,,,,,,,,,,,,,,6,,,62,78
6779,note_on,,29,0,8,,,,,,,,,,,,,,,6,,,62,0
6780,note_on,,1,0,8,,,,,,,,,,,,,,,6,,,60,78
6809,note_on,,29,0,8,,,,,,,,,,,,,,,6,,,60,0
6810,note_on,,1,0,8,,,,,,,,,,,,,,,6,,,58,78
6839,note_on,,119,0,9,,,,,,,,,,,,,,,7,,,55,0
6839,note_on,,0,0,15,,,,,,,,,,,,,,,14,,,67,0
6839,note_on,,119,0,15,,,,,,,,,,,,,,,14,,,45,0
6839,note_on,,29,0,8,,,,,,,,,,,,,,,6,,,58,0
6839,note_on,,119,0,14,,,,,,,,,,,,,,,13,,,45,0
6839,note_on,,119,0,6,,,,,,,,,,,,,,,1,,,45,0
6840,note_on,,1,0,8,,,,,,,,,,,,,,,6,,,60,78
6840,note_on,,1,0,9,,,,,,,,,,,,,,,7,,,54,88
6840,note_on,,1,0,14,,,,,,,,,,,,,,,13,,,50,64
6840,note_on,,1,0,15,,,,,,,,,,,,,,,14,,,50,64
6840,note_on,,1,0,6,,,,,,,,,,,,,,,1,,,50,64
6840,note_on,,0,0,15,,,,,,,,,,,,,,,14,,,66,64
6869,note_on,,29,0,8,,,,,,,,,,,,,,,6,,,60,0
6870,note_on,,1,0,8,,,,,,,,,,,,,,,6,,,57,78
6899,note_on,,59,0,15,,,,,,,,,,,,,,,14,,,60,0
6899,note_on,,0,0,15,,,,,,,,,,,,,,,14,,,69,0
6899,note_on,,0,0,15,,,,,,,,,,,,,,,14,,,50,0
6899,note_on,,29,0,8,,,,,,,,,,,,,,,6,,,57,0
6899,note_on,,59,0,6,,,,,,,,,,,,,,,1,,,50,0
6899,note_on,,0,0,15,,,,,,,,,,,,,,,14,,,66,0
6899,note_on,,59,0,14,,,,,,,,,,,,,,,13,,,50,0
6900,note_on,,1,0,14,,,,,,,,,,,,,,,13,,,54,64
6900,note_on,,0,0,15,,,,,,,,,,,,,,,14,,,62,64
6900,note_on,,1141,0,13,,,,,,,,,,,,,,,12,,,62,72
6900,note_on,,1141,0,12,,,,,,,,,,,,,,,11,,,69,72
6900,note_on,,4621,0,7,,,,,,,,,,,,,,,5,,,74,88
6900,note_on,,1141,0,11,,,,,,,,,,,,,,,10,,,74,72
6900,note_on,,0,0,15,,,,,,,,,,,,,,,14,,,74,64
6900,note_on,,0,0,15,,,,,,,,,,,,,,,14,,,54,64
6900,note_on,,1,0,15,,,,,,,,,,,,,,,14,,,69,64
6900,note_on,,4621,0,5,,,,,,,,,,,,,,,0,,,74,72
6900,note_on,,1,0,8,,,,,,,,,,,,,,,6,,,55,78
6900,note_on,,1,0,6,,,,,,,,,,,,,,,1,,,54,64
6929,note_on,,29,0,8,,,,,,,,,,,,,,,6,,,55,0
6930,note_on,,1,0,8,,,,,,,,,,,,,,,6,,,57,78
6959,note_on,,59,0,14,,,,,,,,,,,,,,,13,,,54,0
6959,note_on,,59,0,11,,,,,,,,,,,,,,,10,,,74,0
6959,note_on,,59,0,12,,,,,,,,,,,,,,,11,,,69,0
6959,note_on,,59,0,7,,,,,,,,,,,,,,,5,,,74,0
6959,note_on,,0,0,15,,,,,,,,,,,,,,,14,,,62,0
6959,note_on,,0,0,15,,,,,,,,,,,,,,,14,,,74,0
6959,note_on,,0,0,15,,,,,,,,,,,,,,,14,,,54,0
6959,note_on,,59,0,13,,,,,,,,,,,,,,,12,,,62,0
6959,note_on,,59,0,5,,,,,,,,,,,,,,,0,,,74,0
6959,note_on,,119,0,9,,,,,,,,,,,,,,,7,,,54,0
6959,note_on,,59,0,6,,,,,,,,,,,,,,,1,,,54,0
6959,note_on,,29,0,8,,,,,,,,,,,,,,,6,,,57,0
6959,note_on,,59,0,15,,,,,,,,,,,,,,,14,,,69,0
6960,note_on,,1,0,7,,,,,,,,,,,,,,,5,,,79,88
6960,note_on,,1,0,5,,,,,,,,,,,,,,,0,,,79,72
6960,note_on,,1,0,8,,,,,,,,,,,,,,,6,,,58,78
6960,note_on,,1,0,11,,,,,,,,,,,,,,,10,,,79,72
6960,note_on,,1,0,14,,,,,,,,,,,,,,,13,,,43,64
6960,note_on,,1,0,12,,,,,,,,,,,,,,,11,,,70,72
6960,note_on,,0,0,14,,,,,,,,,,,,,,,13,,,55,64
6960,note_on,,1,0,13,,,,,,,,,,,,,,,12,,,62,72
6960,note_on,,0,0,15,,,,,,,,,,,,,,,14,,,70,64
6960,note_on,,0,0,15,,,,,,,,,,,,,,,14,,,67,64
6960,note_on,,0,0,15,,,,,,,,,,,,,,,14,,,62,64
6960,note_on,,1,0,9,,,,,,,,,,,,,,,7,,,55,88
6960,note_on,,1,0,6,,,,,,,,,,,,,,,1,,,55,64
6960,note_on,,1,0,15,,,,,,,,,,,,,,,14,,,43,64
6960,note_on,,0,0,15,,,,,,,,,,,,,,,14,,,55,64
7019,note_on,,59,0,15,,,,,,,,,,,,,,,14,,,55,0
7019,note_on,,59,0,11,,,,,,,,,,,,,,,10,,,79,0
7019,note_on,,59,0,5,,,,,,,,,,,,,,,0,,,79,0
7019,note_on,,59,0,7,,,,,,,,,,,,,,,5,,,79,0
7019,note_on,,59,0,6,,,,,,,,,,,,,,,1,,,55,0
7019,note_on,,59,0,12,,,,,,,,,,,,,,,11,,,70,0
7019,note_on,,59,0,14,,,,,,,,,,,,,,,13,,,55,0
7019,note_on,,59,0,13,,,,,,,,,,,,,,,12,,,62,0
7020,note_on,,1,0,14,,,,,,,,,,,,,,,13,,,55,64
7020,note_on,,1,0,13,,,,,,,,,,,,,,,12,,,62,72
7020,note_on,,1,0,6,,,,,,,,,,,,,,,1,,,55,64
7020,note_on,,1,0,7,,,,,,,,,,,,,,,5,,,79,88
7020,note_on,,1,0,5,,,,,,,,,,,,,,,0,,,79,72
7020,note_on,,1,0,11,,,,,,,,,,,,,,,10,,,79,72
7020,note_on,,1,0,12,,,,,,,,,,,,,,,11,,,70,72
7020,note_on,,1,0,15,,,,,,,,,,,,,,,14,,,55,64
7079,note_on,,59,0,15,,,,,,,,,,,,,,,14,,,43,0
7079,note_on,,59,0,12,,,,,,,,,,,,,,,11,,,70,0
7079,note_on,,59,0,5,,,,,,,,,,,,,,,0,,,79,0
7079,note_on,,119,0,8,,,,,,,,,,,,,,,6,,,58,0
7079,note_on,,59,0,11,,,,,,,,,,,,,,,10,,,79,0
7079,note_on,,59,0,13,,,,,,,,,,,,,,,12,,,62,0
7079,note_on,,0,0,15,,,,,,,,,,,,,,,14,,,55,0
7079,note_on,,119,0,9,,,,,,,,,,,,,,,7,,,55,0
7079,note_on,,59,0,6,,,,,,,,,,,,,,,1,,,55,0
7079,note_on,,59,0,7,,,,,,,,,,,,,,,5,,,79,0
7079,note_on,,0,0,14,,,,,,,,,,,,,,,13,,,55,0
7079,note_on,,59,0,14,,,,,,,,,,,,,,,13,,,43,0
7080,note_on,,1,0,6,,,,,,,,,,,,,,,1,,,58,64
7080,note_on,,1,0,11,,,,,,,,,,,,,,,10,,,79,72
7080,note_on,,0,0,15,,,,,,,,,,,,,,,14,,,46,64
7080,note_on,,1,0,12,,,,,,,,,,,,,,,11,,,74,72
7080,note_on,,0,0,14,,,,,,,,,,,,,,,13,,,46,64
7080,note_on,,1,0,5,,,,,,,,,,,,,,,0,,,79,72
7080,note_on,,1,0,15,,,,,,,,,,,,,,,14,,,58,64
7080,note_on,,1,0,7,,,,,,,,,,,,,,,5,,,79,88
7080,note_on,,1,0,14,,,,,,,,,,,,,,,13,,,58,64
7080,note_on,,1,0,13,,,,,,,,,,,,,,,12,,,62,72
7139,note_on,,59,0,5,,,,,,,,,,,,,,,0,,,79,0
7139,note_on,,0,0,15,,,,,,,,,,,,,,,14,,,62,0
7139,note_on,,0,0,15,,,,,,,,,,,,,,,14,,,67,0
7139,note_on,,59,0,15,,,,,,,,,,,,,,,14,,,70,0
7139,note_on,,59,0,7,,,,,,,,,,,,,,,5,,,79,0
7139,note_on,,59,0,11,,,,,,,,,,,,,,,10,,,79,0
7139,note_on,,59,0,13,,,,,,,,,,,,,,,12,,,62,0
7139,note_on,,0,0,14,,,,,,,,,,,,,,,13,,,46,0
7139,note_on,,59,0,6,,,,,,,,,,,,,,,1,,,58,0
7139,note_on,,0,0,15,,,,,,,,,,,,,,,14,,,46,0
7139,note_on,,59,0,12,,,,,,,,,,,,,,,11,,,74,0
7139,note_on,,59,0,14,,,,,,,,,,,,,,,13,,,58,0
7139,note_on,,0,0,15,,,,,,,,,,,,,,,14,,,58,0
7140,note_on,,1,0,11,,,,,,,,,,,,,,,10,,,79,72
7140,note_on,,1,0,7,,,,,,,,,,,,,,,5,,,79,88
7140,note_on,,2461,0,10,,,,,,,,,,,,,,,8,,,55,88
7140,note_on,,1,0,13,,,,,,,,,,,,,,,12,,,62,72
7140,note_on,,1,0,12,,,,,,,,,,,,,,,11,,,70,72
7140,note_on,,1,0,14,,,,,,,,,,,,,,,13,,,55,64
7140,note_on,,1,0,6,,,,,,,,,,,,,,,1,,,55,64
7140,note_on,,1,0,15,,,,,,,,,,,,,,,14,,,55,64
7140,note_on,,1,0,5,,,,,,,,,,,,,,,0,,,79,72
7199,note_on,,59,0,12,,,,,,,,,,,,,,,11,,,70,0
7199,note_on,,59,0,6,,,,,,,,,,,,,,,1,,,55,0
7199,note_on,,59,0,10,,,,,,,,,,,,,,,8,,,55,0
7199,note_on,,59,0,11,,,,,,,,,,,,,,,10,,,79,0
7199,note_on,,59,0,15,,,,,,,,,,,,,,,14,,,55,0
7199,note_on,,59,0,7,,,,,,,,,,,,,,,5,,,79,0
7199,note_on,,59,0,14,,,,,,,,,,,,,,,13,,,55,0
7199,note_on,,59,0,13,,,,,,,,,,,,,,,12,,,62,0
7199,note_on,,59,0,5,,,,,,,,,,,,,,,0,,,79,0
7200,note_on,,1,0,12,,,,,,,,,,,,,,,11,,,69,72
7200,note_on,,0,0,15,,,,,,,,,,,,,,,14,,,65,64
7200,note_on,,1,0,13,,,,,,,,,,,,,,,12,,,62,72
7200,note_on,,0,0,15,,,,,,,,,,,,,,,14,,,69,64
7200,note_on,,1,0,6,,,,,,,,,,,,,,,1,,,62,64
7200,note_on,,1,0,7,,,,,,,,,,,,,,,5,,,77,88
7200,note_on,,1,0,11,,,,,,,,,,,,,,,10,,,77,72
7200,note_on,,1,0,5,,,,,,,,,,,,,,,0,,,77,72
7200,note_on,,0,0,15,,,,,,,,,,,,,,,14,,,77,64
7200,note_on,,1,0,10,,,,,,,,,,,,,,,8,,,62,88
7200,note_on,,1,0,14,,,,,,,,,,,,,,,13,,,62,64
7200,note_on,,1,0,15,,,,,,,,,,,,,,,14,,,62,64
7229,note_on,,29,0,11,,,,,,,,,,,,,,,10,,,77,0
7229,note_on,,29,0,7,,,,,,,,,,,,,,,5,,,77,0
7229,note_on,,29,0,5,,,,,,,,,,,,,,,0,,,77,0
7230,note_on,,1,0,11,,,,,,,,,,,,,,,10,,,79,72
7230,note_on,,1,0,5,,,,,,,,,,,,,,,0,,,79,72
7230,note_on,,1,0,7,,,,,,,,,,,,,,,5,,,79,88
7259,note_on,,59,0,10,,,,,,,,,,,,,,,8,,,62,0
7259,note_on,,29,0,11,,,,,,,,,,,,,,,10,,,79,0
7259,note_on,,59,0,12,,,,,,,,,,,,,,,11,,,69,0
7259,note_on,,59,0,15,,,,,,,,,,,,,,,14,,,62,0
7259,note_on,,59,0,14,,,,,,,,,,,,,,,13,,,62,0
7259,note_on,,59,0,6,,,,,,,,,,,,,,,1,,,62,0
7259,note_on,,29,0,7,,,,,,,,,,,,,,,5,,,79,0
7259,note_on,,29,0,5,,,,,,,,,,,,,,,0,,,79,0
7260,note_on,,1,0,10,,,,,,,,,,,,,,,8,,,62,88
7260,note_on,,1,0,14,,,,,,,,,,,,,,,13,,,62,64
7260,note_on,,1,0,6,,,,,,,,,,,,,,,1,,,62,64
7260,note_on,,181,0,8,,,,,,,,,,,,,,,6,,,65,88
7260,note_on,,1,0,15,,,,,,,,,,,,,,,14,,,62,64
7260,note_on,,1,0,5,,,,,,,,,,,,,,,0,,,77,72
7260,note_on,,1,0,12,,,,,,,,,,,,,,,11,,,65,72
7260,note_on,,1,0,7,,,,,,,,,,,,,,,5,,,77,88
7260,note_on,,1,0,11,,,,,,,,,,,,,,,10,,,77,72
7289,note_on,,29,0,7,,,,,,,,,,,,,,,5,,,77,0
7289,note_on,,29,0,5,,,,,,,,,,,,,,,0,,,77,0
7289,note_on,,29,0,11,,,,,,,,,,,,,,,10,,,77,0
7290,note_on,,1,0,5,,,,,,,,,,,,,,,0,,,75,72
7290,note_on,,1,0,7,,,,,,,,,,,,,,,5,,,75,88
7290,note_on,,1,0,11,,,,,,,,,,,,,,,10,,,75,72
7319,note_on,,119,0,13,,,,,,,,,,,,,,,12,,,62,0
7319,note_on,,59,0,15,,,,,,,,,,,,,,,14,,,77,0
7319,note_on,,29,0,11,,,,,,,,,,,,,,,10,,,75,0
7319,note_on,,59,0,8,,,,,,,,,,,,,,,6,,,65,0
7319,note_on,,59,0,12,,,,,,,,,,,,,,,11,,,65,0
7319,note_on,,59,0,14,,,,,,,,,,,,,,,13,,,62,0
7319,note_on,,0,0,15,,,,,,,,,,,,,,,14,,,69,0
7319,note_on,,0,0,15,,,,,,,,,,,,,,,14,,,65,0
7319,note_on,,29,0,7,,,,,,,,,,,,,,,5,,,75,0
7319,note_on,,59,0,10,,,,,,,,,,,,,,,8,,,62,0
7319,note_on,,29,0,5,,,,,,,,,,,,,,,0,,,75,0
7319,note_on,,59,0,6,,,,,,,,,,,,,,,1,,,62,0
7319,note_on,,0,0,15,,,,,,,,,,,,,,,14,,,62,0
7320,note_on,,1,0,15,,,,,,,,,,,,,,,14,,,62,64
7320,note_on,,1,0,10,,,,,,,,,,,,,,,8,,,62,88
7320,note_on,,1,0,14,,,,,,,,,,,,,,,13,,,62,64
7320,note_on,,1,0,6,,,,,,,,,,,,,,,1,,,62,64
7320,note_on,,1,0,12,,,,,,,,,,,,,,,11,,,70,72
7320,note_on,,1,0,5,,,,,,,,,,,,,,,0,,,77,72
7320,note_on,,1,0,8,,,,,,,,,,,,,,,6,,,70,88
7320,note_on,,1,0,11,,,,,,,,,,,,,,,10,,,77,72
7320,note_on,,0,0,15,,,,,,,,,,,,,,,14,,,65,64
7320,note_on,,1,0,7,,,,,,,,,,,,,,,5,,,77,88
7320,note_on,,0,0,15,,,,,,,,,,,,,,,14,,,70,64
7320,note_on,,0,0,15,,,,,,,,,,,,,,,14,,,74,64
7349,note_on,,29,0,5,,,,,,,,,,,,,,,0,,,77,0
7349,note_on,,29,0,11,,,,,,,,,,,,,,,10,,,77,0
7349,note_on,,29,0,7,,,,,,,,,,,,,,,5,,,77,0
7350,note_on,,1,0,11,,,,,,,,,,,,,,,10,,,74,72
7350,note_on,,1,0,7,,,,,,,,,,,,,,,5,,,74,88
7350,note_on,,1,0,5,,,,,,,,,,,,,,,0,,,74,72
7379,note_on,,29,0,5,,,,,,,,,,,,,,,0,,,74,0
7379,note_on,,59,0,15,,,,,,,,,,,,,,,14,,,62,0
7379,note_on,,29,0,7,,,,,,,,,,,,,,,5,,,74,0
7379,note_on,,59,0,6,,,,,,,,,,,,,,,1,,,62,0
7379,note_on,,59,0,14,,,,,,,,,,,,,,,13,,,62,0
7379,note_on,,59,0,10,,,,,,,,,,,,,,,8,,,62,0
7379,note_on,,29,0,11,,,,,,,,,,,,,,,10,,,74,0
7380,note_on,,1,0,7,,,,,,,,,,,,,,,5,,,72,88
7380,note_on,,1,0,6,,,,,,,,,,,,,,,1,,,62,64
7380,note_on,,1,0,5,,,,,,,,,,,,,,,0,,,72,72
7380,note_on,,1,0,15,,,,,,,,,,,,,,,14,,,62,64
7380,note_on,,1,0,14,,,,,,,,,,,,,,,13,,,62,64
7380,note_on,,1,0,10,,,,,,,,,,,,,,,8,,,62,88
7380,note_on,,1,0,11,,,,,,,,,,,,,,,10,,,72,72
7380,note_on,,61,0,13,,,,,,,,,,,,,,,12,,,65,72
7409,note_on,,29,0,7,,,,,,,,,,,,,,,5,,,72,0
7409,note_on,,29,0,11,,,,,,,,,,,,,,,10,,,72,0
7409,note_on,,29,0,5,,,,,,,,,,,,,,,0,,,72,0
7410,note_on,,1,0,11,,,,,,,,,,,,,,,10,,,74,72
7410,note_on,,1,0,7,,,,,,,,,,,,,,,5,,,74,88
7410,note_on,,1,0,5,,,,,,,,,,,,,,,0,,,74,72
7439,note_on,,59,0,13,,,,,,,,,,,,,,,12,,,65,0
7439,note_on,,59,0,10,,,,,,,,,,,,,,,8,,,62,0
7439,note_on,,0,0,15,,,,,,,,,,,,,,,14,,,62,0
7439,note_on,,0,0,15,,,,,,,,,,,,,,,14,,,65,0
7439,note_on,,59,0,15,,,,,,,,,,,,,,,14,,,74,0
7439,note_on,,59,0,6,,,,,,,,,,,,,,,1,,,62,0
7439,note_on,,29,0,11,,,,,,,,,,,,,,,10,,,74,0
7439,note_on,,59,0,14,,,,,,,,,,,,,,,13,,,62,0
7439,note_on,,29,0,5,,,,,,,,,,,,,,,0,,,74,0
7439,note_on,,0,0,15,,,,,,,,,,,,,,,14,,,70,0
7439,note_on,,29,0,7,,,,,,,,,,,,,,,5,,,74,0
7440,note_on,,0,0,15,,,,,,,,,,,,,,,14,,,70,64
7440,note_on,,1,0,7,,,,,,,,,,,,,,,5,,,75,88
7440,note_on,,0,0,15,,,,,,,,,,,,,,,14,,,72,64
7440,note_on,,0,0,15,,,,,,,,,,,,,,,14,,,75,64
7440,note_on,,1,0,15,,,,,,,,,,,,,,,14,,,60,64
7440,note_on,,0,0,15,,,,,,,,,,,,,,,14,,,63,64
7440,note_on,,1,0,5,,,,,,,,,,,,,,,0,,,75,72
7440,note_on,,1,0,10,,,,,,,,,,,,,,,8,,,60,88
7440,note_on,,1,0,13,,,,,,,,,,,,,,,12,,,67,72
7440,note_on,,1,0,11,,,,,,,,,,,,,,,10,,,75,72
7440,note_on,,1,0,14,,,,,,,,,,,,,,,13,,,60,64
7440,note_on,,1,0,6,,,,,,,,,,,,,,,1,,,60,64
7469,note_on,,29,0,7,,,,,,,,,,,,,,,5,,,75,0
7469,note_on,,29,0,11,,,,,,,,,,,,,,,10,,,75,0
7469,note_on,,29,0,10,,,,,,,,,,,,,,,8,,,60,0
7469,note_on,,29,0,5,,,,,,,,,,,,,,,0,,,75,0
7470,note_on,,1,0,5,,,,,,,,,,,,,,,0,,,77,72
7470,note_on,,1,0,10,,,,,,,,,,,,,,,8,,,62,88
7470,note_on,,1,0,7,,,,,,,,,,,,,,,5,,,77,88
7470,note_on,,1,0,11,,,,,,,,,,,,,,,10,,,77,72
7499,note_on,,29,0,11,,,,,,,,,,,,,,,10,,,77,0
7499,note_on,,29,0,5,,,,,,,,,,,,,,,0,,,77,0
7499,note_on,,59,0,13,,,,,,,,,,,,,,,12,,,67,0
7499,note_on,,29,0,7,,,,,,,,,,,,,,,5,,,77,0
7499,note_on,,29,0,10,,,,,,,,,,,,,,,8,,,62,0
7500,note_on,,1,0,10,,,,,,,,,,,,,,,8,,,60,88
7500,note_on,,1,0,5,,,,,,,,,,,,,,,0,,,75,72
7500,note_on,,1,0,13,,,,,,,,,,,,,,,12,,,67,72
7500,note_on,,1,0,11,,,,,,,,,,,,,,,10,,,75,72
7500,note_on,,1,0,7,,,,,,,,,,,,,,,5,,,75,88
7529,note_on,,29,0,7,,,,,,,,,,,,,,,5,,,75,0
7529,note_on,,29,0,10,,,,,,,,,,,,,,,8,,,60,0
7529,note_on,,29,0,5,,,,,,,,,,,,,,,0,,,75,0
7529,note_on,,29,0,11,,,,,,,,,,,,,,,10,,,75,0
7530,note_on,,1,0,7,,,,,,,,,,,,,,,5,,,74,88
7530,note_on,,1,0,10,,,,,,,,,,,,,,,8,,,58,88
7530,note_on,,1,0,5,,,,,,,,,,,,,,,0,,,74,72
7530,note_on,,1,0,11,,,,,,,,,,,,,,,10,,,74,72
7559,note_on,,59,0,13,,,,,,,,,,,,,,,12,,,67,0
7559,note_on,,29,0,5,,,,,,,,,,,,,,,0,,,74,0
7559,note_on,,29,0,11,,,,,,,,,,,,,,,10,,,74,0
7559,note_on,,239,0,8,,,,,,,,,,,,,,,6,,,70,0
7559,note_on,,239,0,12,,,,,,,,,,,,,,,11,,,70,0
7559,note_on,,29,0,10,,,,,,,,,,,,,,,8,,,58,0
7559,note_on,,29,0,7,,,,,,,,,,,,,,,5,,,74,0
7560,note_on,,1,0,12,,,,,,,,,,,,,,,11,,,69,72
7560,note_on,,1,0,10,,,,,,,,,,,,,,,8,,,60,88
7560,note_on,,1,0,5,,,,,,,,,,,,,,,0,,,75,72
7560,note_on,,1,0,11,,,,,,,,,,,,,,,10,,,75,72
7560,note_on,,1,0,13,,,,,,,,,,,,,,,12,,,63,72
7560,note_on,,1,0,7,,,,,,,,,,,,,,,5,,,75,88
7560,note_on,,1,0,8,,,,,,,,,,,,,,,6,,,69,88
7589,note_on,,29,0,7,,,,,,,,,,,,,,,5,,,75,0
7589,note_on,,29,0,5,,,,,,,,,,,,,,,0,,,75,0
7589,note_on,,29,0,11,,,,,,,,,,,,,,,10,,,75,0
7590,note_on,,1,0,7,,,,,,,,,,,,,,,5,,,72,88
7590,note_on,,1,0,5,,,,,,,,,,,,,,,0,,,72,72
7590,note_on,,1,0,11,,,,,,,,,,,,,,,10,,,72,72
7619,note_on,,0,0,15,,,,,,,,,,,,,,,14,,,75,0
7619,note_on,,179,0,14,,,,,,,,,,,,,,,13,,,60,0
7619,note_on,,179,0,6,,,,,,,,,,,,,,,1,,,60,0
7619,note_on,,59,0,13,,,,,,,,,,,,,,,12,,,63,0
7619,note_on,,29,0,5,,,,,,,,,,,,,,,0,,,72,0
7619,note_on,,59,0,10,,,,,,,,,,,,,,,8,,,60,0
7619,note_on,,29,0,11,,,,,,,,,,,,,,,10,,,72,0
7619,note_on,,179,0,15,,,,,,,,,,,,,,,14,,,60,0
7619,note_on,,0,0,15,,,,,,,,,,,,,,,14,,,63,0
7619,note_on,,0,0,15,,,,,,,,,,,,,,,14,,,72,0
7619,note_on,,0,0,15,,,,,,,,,,,,,,,14,,,70,0
7619,note_on,,29,0,7,,,,,,,,,,,,,,,5,,,72,0
7620,note_on,,1,0,10,,,,,,,,,,,,,,,8,,,53,88
7620,note_on,,1,0,13,,,,,,,,,,,,,,,12,,,65,72
7620,note_on,,1,0,6,,,,,,,,,,,,,,,1,,,53,64
7620,note_on,,0,0,15,,,,,,,,,,,,,,,14,,,60,64
7620,note_on,,1,0,5,,,,,,,,,,,,,,,0,,,70,72
7620,note_on,,0,0,15,,,,,,,,,,,,,,,14,,,72,64
7620,note_on,,0,0,15,,,,,,,,,,,,,,,14,,,69,64
7620,note_on,,1,0,15,,,,,,,,,,,,,,,14,,,53,64
7620,note_on,,1,0,7,,,,,,,,,,,,,,,5,,,70,88
7620,note_on,,1,0,11,,,,,,,,,,,,,,,10,,,70,72
7620,note_on,,1,0,14,,,,,,,,,,,,,,,13,,,53,64
7620,note_on,,0,0,15,,,,,,,,,,,,,,,14,,,77,64
7649,note_on,,29,0,11,,,,,,,,,,,,,,,10,,,70,0
7649,note_on,,29,0,5,,,,,,,,,,,,,,,0,,,70,0
7649,note_on,,29,0,7,,,,,,,,,,,,,,,5,,,70,0
7650,note_on,,1,0,7,,,,,,,,,,,,,,,5,,,72,88
7650,note_on,,1,0,11,,,,,,,,,,,,,,,10,,,72,72
7650,note_on,,1,0,5,,,,,,,,,,,,,,,0,,,72,72
7679,note_on,,59,0,13,,,,,,,,,,,,,,,12,,,65,0
7679,note_on,,59,0,6,,,,,,,,,,,,,,,1,,,53,0
7679,note_on,,29,0,7,,,,,,,,,,,,,,,5,,,72,0
7679,note_on,,59,0,10,,,,,,,,,,,,,,,8,,,53,0
7679,note_on,,59,0,14,,,,,,,,,,,,,,,13,,,53,0
7679,note_on,,29,0,5,,,,,,,,,,,,,,,0,,,72,0
7679,note_on,,29,0,11,,,,,,,,,,,,,,,10,,,72,0
7679,note_on,,0,0,15,,,,,,,,,,,,,,,14,,,72,0
7679,note_on,,0,0,15,,,,,,,,,,,,,,,14,,,69,0
7679,note_on,,0,0,15,,,,,,,,,,,,,,,14,,,60,0
7679,note_on,,59,0,15,,,,,,,,,,,,,,,14,,,53,0
7679,note_on,,0,0,15,,,,,,,,,,,,,,,14,,,77,0
7680,note_on,,0,0,15,,,,,,,,,,,,,,,14,,,65,64
7680,note_on,,1,0,13,,,,,,,,,,,,,,,12,,,65,72
7680,note_on,,1,0,11,,,,,,,,,,,,,,,10,,,74,72
7680,note_on,,1,0,10,,,,,,,,,,,,,,,8,,,58,88
7680,note_on,,1,0,5,,,,,,,,,,,,,,,0,,,74,72
7680,note_on,,1,0,7,,,,,,,,,,,,,,,5,,,74,88
7680,note_on,,1,0,15,,,,,,,,,,,,,,,14,,,58,64
7680,note_on,,0,0,15,,,,,,,,,,,,,,,14,,,74,64
7680,note_on,,1,0,14,,,,,,,,,,,,,,,13,,,58,64
7680,note_on,,0,0,15,,,,,,,,,,,,,,,14,,,70,64
7680,note_on,,1,0,6,,,,,,,,,,,,,,,1,,,58,64
7709,note_on,,29,0,5,,,,,,,,,,,,,,,0,,,74,0
7709,note_on,,29,0,11,,,,,,,,,,,,,,,10,,,74,0
7709,note_on,,29,0,7,,,,,,,,,,,,,,,5,,,74,0
7710,note_on,,1,0,7,,,,,,,,,,,,,,,5,,,75,88
7710,note_on,,1,0,5,,,,,,,,,,,,,,,0,,,75,72
7710,note_on,,1,0,11,,,,,,,,,,,,,,,10,,,75,72
7739,note_on,,59,0,10,,,,,,,,,,,,,,,8,,,58,0
7739,note_on,,29,0,5,,,,,,,,,,,,,,,0,,,75,0
7739,note_on,,29,0,7,,,,,,,,,,,,,,,5,,,75,0
7739,note_on,,59,0,15,,,,,,,,,,,,,,,14,,,58,0
7739,note_on,,59,0,14,,,,,,,,,,,,,,,13,,,58,0
7739,note_on,,29,0,11,,,,,,,,,,,,,,,10,,,75,0
7739,note_on,,59,0,6,,,,,,,,,,,,,,,1,,,58,0
7740,note_on,,1,0,5,,,,,,,,,,,,,,,0,,,74,72
7740,note_on,,1,0,11,,,,,,,,,,,,,,,10,,,74,72
7740,note_on,,1,0,10,,,,,,,,,,,,,,,8,,,58,88
7740,note_on,,1,0,14,,,,,,,,,,,,,,,13,,,58,64
7740,note_on,,1,0,7,,,,,,,,,,,,,,,5,,,74,88
7740,note_on,,1,0,6,,,,,,,,,,,,,,,1,,,58,64
7740,note_on,,1,0,15,,,,,,,,,,,,,,,14,,,58,64
7769,note_on,,29,0,5,,,,,,,,,,,,,,,0,,,74,0
7769,note_on,,29,0,7,,,,,,,,,,,,,,,5,,,74,0
7769,note_on,,29,0,11,,,,,,,,,,,,,,,10,,,74,0
7770,note_on,,1,0,5,,,,,,,,,,,,,,,0,,,72,72
7770,note_on,,1,0,7,,,,,,,,,,,,,,,5,,,72,88
7770,note_on,,1,0,11,,,,,,,,,,,,,,,10,,,72,72
7799,note_on,,29,0,5,,,,,,,,,,,,,,,0,,,72,0
7799,note_on,,29,0,7,,,,,,,,,,,,,,,5,,,72,0
7799,note_on,,59,0,14,,,,,,,,,,,,,,,13,,,58,0
7799,note_on,,59,0,6,,,,,,,,,,,,,,,1,,,58,0
7799,note_on,,0,0,15,,,,,,,,,,,,,,,14,,,58,0
7799,note_on,,0,0,15,,,,,,,,,,,,,,,14,,,70,0
7799,note_on,,0,0,15,,,,,,,,,,,,,,,14,,,65,0
7799,note_on,,119,0,13,,,,,,,,,,,,,,,12,,,65,0
7799,note_on,,59,0,10,,,,,,,,,,,,,,,8,,,58,0
7799,note_on,,239,0,12,,,,,,,,,,,,,,,11,,,69,0
7799,note_on,,59,0,15,,,,,,,,,,,,,,,14,,,74,0
7799,note_on,,29,0,11,,,,,,,,,,,,,,,10,,,72,0
7799,note_on,,239,0,8,,,,,,,,,,,,,,,6,,,69,0
7800,note_on,,1,0,6,,,,,,,,,,,,,,,1,,,58,64
7800,note_on,,1,0,14,,,,,,,,,,,,,,,13,,,58,64
7800,note_on,,0,0,15,,,,,,,,,,,,,,,14,,,62,64
7800,note_on,,0,0,15,,,,,,,,,,,,,,,14,,,67,64
7800,note_on,,1,0,5,,,,,,,,,,,,,,,0,,,74,72
7800,note_on,,1,0,13,,,,,,,,,,,,,,,12,,,62,72
7800,note_on,,1,0,7,,,,,,,,,,,,,,,5,,,74,88
7800,note_on,,1,0,12,,,,,,,,,,,,,,,11,,,67,72
7800,note_on,,1,0,10,,,,,,,,,,,,,,,8,,,58,88
7800,note_on,,0,0,15,,,,,,,,,,,,,,,14,,,70,64
7800,note_on,,1,0,15,,,,,,,,,,,,,,,14,,,58,64
7800,note_on,,1,0,8,,,,,,,,,,,,,,,6,,,67,88
7800,note_on,,1,0,11,,,,,,,,,,,,,,,10,,,74,72
7829,note_on,,29,0,11,,,,,,,,,,,,,,,10,,,74,0
7829,note_on,,29,0,7,,,,,,,,,,,,,,,5,,,74,0
7829,note_on,,29,0,5,,,,,,,,,,,,,,,0,,,74,0
7830,note_on,,1,0,11,,,,,,,,,,,,,,,10,,,70,72
7830,note_on,,1,0,5,,,,,,,,,,,,,,,0,,,70,72
7830,note_on,,1,0,7,,,,,,,,,,,,,,,5,,,70,88
7859,note_on,,29,0,11,,,,,,,,,,,,,,,10,,,70,0
7859,note_on,,59,0,6,,,,,,,,,,,,,,,1,,,58,0
7859,note_on,,29,0,5,,,,,,,,,,,,,,,0,,,70,0
7859,note_on,,59,0,15,,,,,,,,,,,,,,,14,,,58,0
7859,note_on,,59,0,10,,,,,,,,,,,,,,,8,,,58,0
7859,note_on,,29,0,7,,,,,,,,,,,,,,,5,,,70,0
7859,note_on,,59,0,14,,,,,,,,,,,,,,,13,,,58,0
7860,note_on,,1,0,11,,,,,,,,,,,,,,,10,,,69,72
7860,note_on,,1,0,10,,,,,,,,,,,,,,,8,,,58,88
7860,note_on,,1,0,5,,,,,,,,,,,,,,,0,,,69,72
7860,note_on,,1,0,6,,,,,,,,,,,,,,,1,,,58,64
7860,note_on,,1,0,14,,,,,,,,,,,,,,,13,,,58,64
7860,note_on,,1,0,7,,,,,,,,,,,,,,,5,,,69,88
7860,note_on,,1,0,15,,,,,,,,,,,,,,,14,,,58,64
7889,note_on,,29,0,11,,,,,,,,,,,,,,,10,,,69,0
7889,note_on,,29,0,7,,,,,,,,,,,,,,,5,,,69,0
7889,note_on,,29,0,5,,,,,,,,,,,,,,,0,,,69,0
7890,note_on,,1,0,7,,,,,,,,,,,,,,,5,,,70,88
7890,note_on,,1,0,5,,,,,,,,,,,,,,,0,,,70,72
7890,note_on,,1,0,11,,,,,,,,,,,,,,,10,,,70,72
7919,note_on,,59,0,10,,,,,,,,,,,,,,,8,,,58,0
7919,note_on,,119,0,13,,,,,,,,,,,,,,,12,,,62,0
7919,note_on,,59,0,14,,,,,,,,,,,,,,,13,,,58,0
7919,note_on,,59,0,6,,,,,,,,,,,,,,,1,,,58,0
7919,note_on,,29,0,5,,,,,,,,,,,,,,,0,,,70,0
7919,note_on,,59,0,15,,,,,,,,,,,,,,,14,,,70,0
7919,note_on,,0,0,15,,,,,,,,,,,,,,,14,,,62,0
7919,note_on,,0,0,15,,,,,,,,,,,,,,,14,,,58,0
7919,note_on,,29,0,7,,,,,,,,,,,,,,,5,,,70,0
7919,note_on,,119,0,8,,,,,,,,,,,,,,,6,,,67,0
7919,note_on,,0,0,15,,,,,,,,,,,,,,,14,,,67,0
7919,note_on,,29,0,11,,,,,,,,,,,,,,,10,,,70,0
7920,note_on,,1,0,15,,,,,,,,,,,,,,,14,,,57,64
7920,note_on,,1,0,5,,,,,,,,,,,,,,,0,,,72,72
7920,note_on,,1,0,6,,,,,,,,,,,,,,,1,,,57,64
7920,note_on,,0,0,15,,,,,,,,,,,,,,,14,,,72,64
7920,note_on,,1,0,10,,,,,,,,,,,,,,,8,,,57,88
7920,note_on,,1,0,14,,,,,,,,,,,,,,,13,,,57,64
7920,note_on,,0,0,15,,,,,,,,,,,,,,,14,,,69,64
7920,note_on,,0,0,15,,,,,,,,,,,,,,,14,,,67,64
7920,note_on,,1,0,8,,,,,,,,,,,,,,,6,,,67,88
7920,note_on,,1,0,13,,,,,,,,,,,,,,,12,,,69,72
7920,note_on,,1,0,7,,,,,,,,,,,,,,,5,,,72,88
7920,note_on,,1,0,11,,,,,,,,,,,,,,,10,,,72,72
7949,note_on,,29,0,11,,,,,,,,,,,,,,,10,,,72,0
7949,note_on,,29,0,10,,,,,,,,,,,,,,,8,,,57,0
7949,note_on,,29,0,7,,,,,,,,,,,,,,,5,,,72,0
7949,note_on,,29,0,5,,,,,,,,,,,,,,,0,,,72,0
7950,note_on,,1,0,11,,,,,,,,,,,,,,,10,,,74,72
7950,note_on,,1,0,10,,,,,,,,,,,,,,,8,,,58,88
7950,note_on,,1,0,7,,,,,,,,,,,,,,,5,,,74,88
7950,note_on,,1,0,5,,,,,,,,,,,,,,,0,,,74,72
7979,note_on,,29,0,10,,,,,,,,,,,,,,,8,,,58,0
7979,note_on,,59,0,13,,,,,,,,,,,,,,,12,,,69,0
7979,note_on,,29,0,7,,,,,,,,,,,,,,,5,,,74,0
7979,note_on,,29,0,11,,,,,,,,,,,,,,,10,,,74,0
7979,note_on,,29,0,5,,,,,,,,,,,,,,,0,,,74,0
7980,note_on,,1,0,5,,,,,,,,,,,,,,,0,,,72,72
7980,note_on,,1,0,13,,,,,,,,,,,,,,,12,,,69,72
7980,note_on,,1,0,10,,,,,,,,,,,,,,,8,,,57,88
7980,note_on,,1,0,7,,,,,,,,,,,,,,,5,,,72,88
7980,note_on,,1,0,11,,,,,,,,,,,,,,,10,,,72,72
8009,note_on,,29,0,7,,,,,,,,,,,,,,,5,,,72,0
8009,note_on,,29,0,10,,,,,,,,,,,,,,,8,,,57,0
8009,note_on,,29,0,5,,,,,,,,,,,,,,,0,,,72,0
8009,note_on,,29,0,11,,,,,,,,,,,,,,,10,,,72,0
8010,note_on,,1,0,11,,,,,,,,,,,,,,,10,,,70,72
8010,note_on,,1,0,7,,,,,,,,,,,,,,,5,,,70,88
8010,note_on,,1,0,10,,,,,,,,,,,,,,,8,,,55,88
8010,note_on,,1,0,5,,,,,,,,,,,,,,,0,,,70,72
8039,note_on,,29,0,11,,,,,,,,,,,,,,,10,,,70,0
8039,note_on,,29,0,5,,,,,,,,,,,,,,,0,,,70,0
8039,note_on,,29,0,7,,,,,,,,,,,,,,,5,,,70,0
8039,note_on,,59,0,13,,,,,,,,,,,,,,,12,,,69,0
8039,note_on,,119,0,8,,,,,,,,,,,,,,,6,,,67,0
8039,note_on,,29,0,10,,,,,,,,,,,,,,,8,,,55,0
8039,note_on,,239,0,12,,,,,,,,,,,,,,,11,,,67,0
8040,note_on,,1,0,12,,,,,,,,,,,,,,,11,,,66,72
8040,note_on,,1,0,7,,,,,,,,,,,,,,,5,,,72,88
8040,note_on,,1,0,8,,,,,,,,,,,,,,,6,,,66,88
8040,note_on,,1,0,11,,,,,,,,,,,,,,,10,,,72,72
8040,note_on,,1,0,5,,,,,,,,,,,,,,,0,,,72,72
8040,note_on,,1,0,10,,,,,,,,,,,,,,,8,,,57,88
8040,note_on,,1,0,13,,,,,,,,,,,,,,,12,,,69,72
8069,note_on,,29,0,7,,,,,,,,,,,,,,,5,,,72,0
8069,note_on,,29,0,5,,,,,,,,,,,,,,,0,,,72,0
8069,note_on,,29,0,11,,,,,,,,,,,,,,,10,,,72,0
8070,note_on,,1,0,5,,,,,,,,,,,,,,,0,,,69,72
8070,note_on,,1,0,11,,,,,,,,,,,,,,,10,,,69,72
8070,note_on,,1,0,7,,,,,,,,,,,,,,,5,,,69,88
8099,note_on,,0,0,15,,,,,,,,,,,,,,,14,,,72,0
8099,note_on,,59,0,13,,,,,,,,,,,,,,,12,,,69,0
8099,note_on,,29,0,7,,,,,,,,,,,,,,,5,,,69,0
8099,note_on,,59,0,10,,,,,,,,,,,,,,,8,,,57,0
8099,note_on,,179,0,15,,,,,,,,,,,,,,,14,,,57,0
8099,note_on,,29,0,5,,,,,,,,,,,,,,,0,,,69,0
8099,note_on,,29,0,11,,,,,,,,,,,,,,,10,,,69,0
8099,note_on,,0,0,15,,,,,,,,,,,,,,,14,,,69,0
8099,note_on,,179,0,6,,,,,,,,,,,,,,,1,,,57,0
8099,note_on,,59,0,12,,,,,,,,,,,,,,,11,,,66,0
8099,note_on,,179,0,14,,,,,,,,,,,,,,,13,,,57,0
8099,note_on,,0,0,15,,,,,,,,,,,,,,,14,,,67,0
8100,note_on,,1,0,15,,,,,,,,,,,,,,,14,,,54,64
8100,note_on,,1,0,6,,,,,,,,,,,,,,,1,,,54,64
8100,note_on,,1,0,12,,,,,,,,,,,,,,,11,,,74,72
8100,note_on,,1,0,5,,,,,,,,,,,,,,,0,,,67,72
8100,note_on,,0,0,15,,,,,,,,,,,,,,,14,,,62,64
8100,note_on,,0,0,15,,,,,,,,,,,,,,,14,,,69,64
8100,note_on,,1,0,7,,,,,,,,,,,,,,,5,,,67,88
8100,note_on,,1,0,13,,,,,,,,,,,,,,,12,,,69,72
8100,note_on,,1,0,10,,,,,,,,,,,,,,,8,,,54,88
8100,note_on,,1021,0,9,,,,,,,,,,,,,,,7,,,62,88
8100,note_on,,0,0,15,,,,,,,,,,,,,,,14,,,74,64
8100,note_on,,1,0,11,,,,,,,,,,,,,,,10,,,67,72
8100,note_on,,1,0,14,,,,,,,,,,,,,,,13,,,54,64
8129,note_on,,29,0,11,,,,,,,,,,,,,,,10,,,67,0
8129,note_on,,29,0,5,,,,,,,,,,,,,,,0,,,67,0
8129,note_on,,89,0,8,,,,,,,,,,,,,,,6,,,66,0
8129,note_on,,29,0,7,,,,,,,,,,,,,,,5,,,67,0
8130,note_on,,1,0,5,,,,,,,,,,,,,,,0,,,69,72
8130,note_on,,1,0,11,,,,,,,,,,,,,,,10,,,69,72
8130,note_on,,1,0,8,,,,,,,,,,,,,,,6,,,64,88
8130,note_on,,1,0,7,,,,,,,,,,,,,,,5,,,69,88
8159,note_on,,0,0,15,,,,,,,,,,,,,,,14,,,69,0
8159,note_on,,59,0,14,,,,,,,,,,,,,,,13,,,54,0
8159,note_on,,29,0,5,,,,,,,,,,,,,,,0,,,69,0
8159,note_on,,0,0,15,,,,,,,,,,,,,,,14,,,62,0
8159,note_on,,59,0,15,,,,,,,,,,,,,,,14,,,54,0
8159,note_on,,29,0,8,,,,,,,,,,,,,,,6,,,64,0
8159,note_on,,59,0,12,,,,,,,,,,,,,,,11,,,74,0
8159,note_on,,0,0,15,,,,,,,,,,,,,,,14,,,74,0
8159,note_on,,29,0,7,,,,,,,,,,,,,,,5,,,69,0
8159,note_on,,59,0,13,,,,,,,,,,,,,,,12,,,69,0
8159,note_on,,59,0,6,,,,,,,,,,,,,,,1,,,54,0
8159,note_on,,59,0,9,,,,,,,,,,,,,,,7,,,62,0
8159,note_on,,59,0,10,,,,,,,,,,,,,,,8,,,54,0
8159,note_on,,29,0,11,,,,,,,,,,,,,,,10,,,69,0
8160,note_on,,1,0,12,,,,,,,,,,,,,,,11,,,79,72
8160,note_on,,1,0,8,,,,,,,,,,,,,,,6,,,62,88
8160,note_on,,0,0,15,,,,,,,,,,,,,,,14,,,71,64
8160,note_on,,1,0,15,,,,,,,,,,,,,,,14,,,55,64
8160,note_on,,1,0,11,,,,,,,,,,,,,,,10,,,71,72
8160,note_on,,1,0,14,,,,,,,,,,,,,,,13,,,55,64
8160,note_on,,0,0,15,,,,,,,,,,,,,,,14,,,67,64
8160,note_on,,0,0,15,,,,,,,,,,,,,,,14,,,62,64
8160,note_on,,1,0,7,,,,,,,,,,,,,,,5,,,71,88
8160,note_on,,1,0,5,,,,,,,,,,,,,,,0,,,71,72
8160,note_on,,1,0,13,,,,,,,,,,,,,,,12,,,62,72
8160,note_on,,1,0,6,,,,,,,,,,,,,,,1,,,55,64
8160,note_on,,1,0,9,,,,,,,,,,,,,,,7,,,67,88
8160,note_on,,1,0,10,,,,,,,,,,,,,,,8,,,55,88
8219,note_on,,59,0,13,,,,,,,,,,,,,,,12,,,62,0
8219,note_on,,59,0,12,,,,,,,,,,,,,,,11,,,79,0
8219,note_on,,59,0,9,,,,,,,,,,,,,,,7,,,67,0
8219,note_on,,59,0,5,,,,,,,,,,,,,,,0,,,71,0
8219,note_on,,59,0,7,,,,,,,,,,,,,,,5,,,71,0
8219,note_on,,59,0,11,,,,,,,,,,,,,,,10,,,71,0
8220,note_on,,1,0,9,,,,,,,,,,,,,,,7,,,67,88
8220,note_on,,1,0,5,,,,,,,,,,,,,,,0,,,67,72
8220,note_on,,1,0,7,,,,,,,,,,,,,,,5,,,67,88
8220,note_on,,1,0,13,,,,,,,,,,,,,,,12,,,62,72
8220,note_on,,1,0,11,,,,,,,,,,,,,,,10,,,67,72
8220,note_on,,1,0,12,,,,,,,,,,,,,,,11,,,79,72
8279,note_on,,119,0,10,,,,,,,,,,,,,,,8,,,55,0
8279,note_on,,119,0,8,,,,,,,,,,,,,,,6,,,62,0
8279,note_on,,59,0,5,,,,,,,,,,,,,,,0,,,67,0
8279,note_on,,0,0,15,,,,,,,,,,,,,,,14,,,71,0
8279,note_on,,119,0,14,,,,,,,,,,,,,,,13,,,55,0
8279,note_on,,119,0,6,,,,,,,,,,,,,,,1,,,55,0
8279,note_on,,59,0,9,,,,,,,,,,,,,,,7,,,67,0
8279,note_on,,0,0,15,,,,,,,,,,,,,,,14,,,67,0
8279,note_on,,59,0,11,,,,,,,,,,,,,,,10,,,67,0
8279,note_on,,59,0,13,,,,,,,,,,,,,,,12,,,62,0
8279,note_on,,59,0,12,,,,,,,,,,,,,,,11,,,79,0
8279,note_on,,119,0,15,,,,,,,,,,,,,,,14,,,55,0
8279,note_on,,0,0,15,,,,,,,,,,,,,,,14,,,62,0
8279,note_on,,59,0,7,,,,,,,,,,,,,,,5,,,67,0
8280,note_on,,1,0,15,,,,,,,,,,,,,,,14,,,51,64
8280,note_on,,1,0,14,,,,,,,,,,,,,,,13,,,51,64
8280,note_on,,0,0,15,,,,,,,,,,,,,,,14,,,60,64
8280,note_on,,1,0,5,,,,,,,,,,,,,,,0,,,72,72
8280,note_on,,0,0,15,,,,,,,,,,,,,,,14,,,55,64
8280,note_on,,0,0,15,,,,,,,,,,,,,,,14,,,67,64
8280,note_on,,1,0,6,,,,,,,,,,,,,,,1,,,51,64
8280,note_on,,1,0,9,,,,,,,,,,,,,,,7,,,67,88
8280,note_on,,1,0,11,,,,,,,,,,,,,,,10,,,72,72
8280,note_on,,1,0,7,,,,,,,,,,,,,,,5,,,72,88
8280,note_on,,1,0,10,,,,,,,,,,,,,,,8,,,51,88
8280,note_on,,1,0,12,,,,,,,,,,,,,,,11,,,79,72
8280,note_on,,1,0,13,,,,,,,,,,,,,,,12,,,60,72
8339,note_on,,59,0,7,,,,,,,,,,,,,,,5,,,72,0
8339,note_on,,59,0,12,,,,,,,,,,,,,,,11,,,79,0
8339,note_on,,59,0,9,,,,,,,,,,,,,,,7,,,67,0
8339,note_on,,59,0,5,,,,,,,,,,,,,,,0,,,72,0
8339,note_on,,59,0,13,,,,,,,,,,,,,,,12,,,60,0
8340,note_on,,1,0,5,,,,,,,,,,,,,,,0,,,72,72
8340,note_on,,1,0,13,,,,,,,,,,,,,,,12,,,60,72
8340,note_on,,1,0,12,,,,,,,,,,,,,,,11,,,79,72
8340,note_on,,1,0,9,,,,,,,,,,,,,,,7,,,67,88
8340,note_on,,1,0,7,,,,,,,,,,,,,,,5,,,72,88
8399,note_on,,59,0,7,,,,,,,,,,,,,,,5,,,72,0
8399,note_on,,119,0,15,,,,,,,,,,,,,,,14,,,51,0
8399,note_on,,0,0,15,,,,,,,,,,,,,,,14,,,67,0
8399,note_on,,59,0,5,,,,,,,,,,,,,,,0,,,72,0
8399,note_on,,59,0,9,,,,,,,,,,,,,,,7,,,67,0
8399,note_on,,119,0,14,,,,,,,,,,,,,,,13,,,51,0
8399,note_on,,0,0,15,,,,,,,,,,,,,,,14,,,55,0
8399,note_on,,59,0,12,,,,,,,,,,,,,,,11,,,79,0
8399,note_on,,119,0,6,,,,,,,,,,,,,,,1,,,51,0
8399,note_on,,119,0,10,,,,,,,,,,,,,,,8,,,51,0
8399,note_on,,59,0,13,,,,,,,,,,,,,,,12,,,60,0
8399,note_on,,0,0,15,,,,,,,,,,,,,,,14,,,60,0
8400,note_on,,1,0,7,,,,,,,,,,,,,,,5,,,72,88
8400,note_on,,1,0,9,,,,,,,,,,,,,,,7,,,65,88
8400,note_on,,0,0,15,,,,,,,,,,,,,,,14,,,65,64
8400,note_on,,1,0,15,,,,,,,,,,,,,,,14,,,50,64
8400,note_on,,0,0,15,,,,,,,,,,,,,,,14,,,60,64
8400,note_on,,1,0,14,,,,,,,,,,,,,,,13,,,50,64
8400,note_on,,0,0,15,,,,,,,,,,,,,,,14,,,62,64
8400,note_on,,1,0,5,,,,,,,,,,,,,,,0,,,72,72
8400,note_on,,1,0,12,,,,,,,,,,,,,,,11,,,77,72
8400,note_on,,1,0,6,,,,,,,,,,,,,,,1,,,50,64
8400,note_on,,1,0,10,,,,,,,,,,,,,,,8,,,50,88
8400,note_on,,1,0,13,,,,,,,,,,,,,,,12,,,62,72
8429,note_on,,29,0,12,,,,,,,,,,,,,,,11,,,77,0
8429,note_on,,29,0,9,,,,,,,,,,,,,,,7,,,65,0
8430,note_on,,1,0,12,,,,,,,,,,,,,,,11,,,79,72
8430,note_on,,1,0,9,,,,,,,,,,,,,,,7,,,67,88
8459,note_on,,29,0,9,,,,,,,,,,,,,,,7,,,67,0
8459,note_on,,59,0,6,,,,,,,,,,,,,,,1,,,50,0
8459,note_on,,59,0,13,,,,,,,,,,,,,,,12,,,62,0
8459,note_on,,59,0,15,,,,,,,,,,,,,,,14,,,50,0
8459,note_on,,59,0,14,,,,,,,,,,,,,,,13,,,50,0
8459,note_on,,59,0,10,,,,,,,,,,,,,,,8,,,50,0
8459,note_on,,29,0,12,,,,,,,,,,,,,,,11,,,79,0
8460,note_on,,1,0,14,,,,,,,,,,,,,,,13,,,48,64
8460,note_on,,1,0,9,,,,,,,,,,,,,,,7,,,65,88
8460,note_on,,1,0,12,,,,,,,,,,,,,,,11,,,77,72
8460,note_on,,1,0,10,,,,,,,,,,,,,,,8,,,48,88
8460,note_on,,1,0,6,,,,,,,,,,,,,,,1,,,48,64
8460,note_on,,1,0,13,,,,,,,,,,,,,,,12,,,63,72
8460,note_on,,1,0,15,,,,,,,,,,,,,,,14,,,48,64
8489,note_on,,29,0,12,,,,,,,,,,,,,,,11,,,77,0
8489,note_on,,29,0,9,,,,,,,,,,,,,,,7,,,65,0
8490,note_on,,1,0,9,,,,,,,,,,,,,,,7,,,63,88
8490,note_on,,1,0,12,,,,,,,,,,,,,,,11,,,75,72
8519,note_on,,59,0,13,,,,,,,,,,,,,,,12,,,63,0
8519,note_on,,59,0,14,,,,,,,,,,,,,,,13,,,48,0
8519,note_on,,119,0,7,,,,,,,,,,,,,,,5,,,72,0
8519,note_on,,59,0,10,,,,,,,,,,,,,,,8,,,48,0
8519,note_on,,0,0,15,,,,,,,,,,,,,,,14,,,48,0
8519,note_on,,0,0,15,,,,,,,,,,,,,,,14,,,62,0
8519,note_on,,59,0,15,,,,,,,,,,,,,,,14,,,60,0
8519,note_on,,29,0,12,,,,,,,,,,,,,,,11,,,75,0
8519,note_on,,119,0,5,,,,,,,,,,,,,,,0,,,72,0
8519,note_on,,239,0,11,,,,,,,,,,,,,,,10,,,72,0
8519,note_on,,29,0,9,,,,,,,,,,,,,,,7,,,63,0
8519,note_on,,59,0,6,,,,,,,,,,,,,,,1,,,48,0
8520,note_on,,0,0,15,,,,,,,,,,,,,,,14,,,59,64
8520,note_on,,1,0,10,,,,,,,,,,,,,,,8,,,50,88
8520,note_on,,1,0,15,,,,,,,,,,,,,,,14,,,50,64
8520,note_on,,1,0,6,,,,,,,,,,,,,,,1,,,50,64
8520,note_on,,1,0,14,,,,,,,,,,,,,,,13,,,50,64
8520,note_on,,0,0,15,,,,,,,,,,,,,,,14,,,53,64
8520,note_on,,1,0,11,,,,,,,,,,,,,,,10,,,71,72
8520,note_on,,1,0,9,,,,,,,,,,,,,,,7,,,65,88
8520,note_on,,1,0,5,,,,,,,,,,,,,,,0,,,71,72
8520,note_on,,1,0,12,,,,,,,,,,,,,,,11,,,77,72
8520,note_on,,1,0,13,,,,,,,,,,,,,,,12,,,62,72
8520,note_on,,1,0,7,,,,,,,,,,,,,,,5,,,71,88
8549,note_on,,29,0,9,,,,,,,,,,,,,,,7,,,65,0
8549,note_on,,29,0,12,,,,,,,,,,,,,,,11,,,77,0
8550,note_on,,1,0,9,,,,,,,,,,,,,,,7,,,62,88
8550,note_on,,1,0,12,,,,,,,,,,,,,,,11,,,74,72
8579,note_on,,29,0,9,,,,,,,,,,,,,,,7,,,62,0
8579,note_on,,59,0,14,,,,,,,,,,,,,,,13,,,50,0
8579,note_on,,59,0,15,,,,,,,,,,,,,,,14,,,50,0
8579,note_on,,59,0,6,,,,,,,,,,,,,,,1,,,50,0
8579,note_on,,59,0,10,,,,,,,,,,,,,,,8,,,50,0
8579,note_on,,59,0,13,,,,,,,,,,,,,,,12,,,62,0
8579,note_on,,29,0,12,,,,,,,,,,,,,,,11,,,74,0
8580,note_on,,1,0,10,,,,,,,,,,,,,,,8,,,55,88
8580,note_on,,1,0,14,,,,,,,,,,,,,,,13,,,55,64
8580,note_on,,1,0,6,,,,,,,,,,,,,,,1,,,55,64
8580,note_on,,1,0,15,,,,,,,,,,,,,,,14,,,55,64
8580,note_on,,1,0,9,,,,,,,,,,,,,,,7,,,60,88
8580,note_on,,1,0,13,,,,,,,,,,,,,,,12,,,71,72
8580,note_on,,1,0,12,,,,,,,,,,,,,,,11,,,72,72
8609,note_on,,29,0,12,,,,,,,,,,,,,,,11,,,72,0
8609,note_on,,29,0,9,,,,,,,,,,,,,,,7,,,60,0
8610,note_on,,1,0,12,,,,,,,,,,,,,,,11,,,74,72
8610,note_on,,1,0,9,,,,,,,,,,,,,,,7,,,62,88
8639,note_on,,0,0,15,,,,,,,,,,,,,,,14,,,55,0
8639,note_on,,0,0,15,,,,,,,,,,,,,,,14,,,53,0
8639,note_on,,0,0,15,,,,,,,,,,,,,,,14,,,59,0
8639,note_on,,59,0,10,,,,,,,,,,,,,,,8,,,55,0
8639,note_on,,59,0,15,,,,,,,,,,,,,,,14,,,65,0
8639,note_on,,59,0,6,,,,,,,,,,,,,,,1,,,55,0
8639,note_on,,29,0,12,,,,,,,,,,,,,,,11,,,74,0
8639,note_on,,29,0,9,,,,,,,,,,,,,,,7,,,62,0
8639,note_on,,119,0,11,,,,,,,,,,,,,,,10,,,71,0
8639,note_on,,59,0,13,,,,,,,,,,,,,,,12,,,71,0
8639,note_on,,59,0,14,,,,,,,,,,,,,,,13,,,55,0
8639,note_on,,119,0,5,,,,,,,,,,,,,,,0,,,71,0
8639,note_on,,119,0,7,,,,,,,,,,,,,,,5,,,71,0
8640,note_on,,0,0,15,,,,,,,,,,,,,,,14,,,55,64
8640,note_on,,0,0,15,,,,,,,,,,,,,,,14,,,60,64
8640,note_on,,1,0,15,,,,,,,,,,,,,,,14,,,48,64
8640,note_on,,0,0,15,,,,,,,,,,,,,,,14,,,63,64
8640,note_on,,1,0,9,,,,,,,,,,,,,,,7,,,63,88
8640,note_on,,1,0,5,,,,,,,,,,,,,,,0,,,72,72
8640,note_on,,1,0,6,,,,,,,,,,,,,,,1,,,48,64
8640,note_on,,1,0,10,,,,,,,,,,,,,,,8,,,48,88
8640,note_on,,1,0,14,,,,,,,,,,,,,,,13,,,48,64
8640,note_on,,1,0,13,,,,,,,,,,,,,,,12,,,67,72
8640,note_on,,1,0,12,,,,,,,,,,,,,,,11,,,75,72
8640,note_on,,1,0,7,,,,,,,,,,,,,,,5,,,72,88
8669,note_on,,29,0,12,,,,,,,,,,,,,,,11,,,75,0
8669,note_on,,29,0,9,,,,,,,,,,,,,,,7,,,63,0
8670,note_on,,1,0,12,,,,,,,,,,,,,,,11,,,77,72
8670,note_on,,1,0,9,,,,,,,,,,,,,,,7,,,65,88
8699,note_on,,29,0,12,,,,,,,,,,,,,,,11,,,77,0
8699,note_on,,29,0,9,,,,,,,,,,,,,,,7,,,65,0
8700,note_on,,1,0,9,,,,,,,,,,,,,,,7,,,63,88
8700,note_on,,61,0,11,,,,,,,,,,,,,,,10,,,72,72
8700,note_on,,1,0,12,,,,,,,,,,,,,,,11,,,75,72
8700,note_on,,421,0,8,,,,,,,,,,,,,,,6,,,60,88
8729,note_on,,29,0,9,,,,,,,,,,,,,,,7,,,63,0
8729,note_on,,29,0,12,,,,,,,,,,,,,,,11,,,75,0
8730,note_on,,1,0,12,,,,,,,,,,,,,,,11,,,74,72
8730,note_on,,1,0,9,,,,,,,,,,,,,,,7,,,62,88
8759,note_on,,59,0,8,,,,,,,,,,,,,,,6,,,60,0
8759,note_on,,29,0,12,,,,,,,,,,,,,,,11,,,74,0
8759,note_on,,59,0,11,,,,,,,,,,,,,,,10,,,72,0
8759,note_on,,29,0,9,,,,,,,,,,,,,,,7,,,62,0
8759,note_on,,119,0,15,,,,,,,,,,,,,,,14,,,63,0
8759,note_on,,0,0,15,,,,,,,,,,,,,,,14,,,55,0
8759,note_on,,0,0,15,,,,,,,,,,,,,,,14,,,60,0
8759,note_on,,119,0,13,,,,,,,,,,,,,,,12,,,67,0
8759,note_on,,119,0,5,,,,,,,,,,,,,,,0,,,72,0
8759,note_on,,119,0,7,,,,,,,,,,,,,,,5,,,72,0
8760,note_on,,1,0,8,,,,,,,,,,,,,,,6,,,68,88
8760,note_on,,1,0,12,,,,,,,,,,,,,,,11,,,75,72
8760,note_on,,0,0,15,,,,,,,,,,,,,,,14,,,63,64
8760,note_on,,0,0,15,,,,,,,,,,,,,,,14,,,68,64
8760,note_on,,1,0,15,,,,,,,,,,,,,,,14,,,72,64
8760,note_on,,1,0,13,,,,,,,,,,,,,,,12,,,60,72
8760,note_on,,1,0,11,,,,,,,,,,,,,,,10,,,80,72
8760,note_on,,1,0,9,,,,,,,,,,,,,,,7,,,63,88
8789,note_on,,29,0,9,,,,,,,,,,,,,,,7,,,63,0
8789,note_on,,29,0,12,,,,,,,,,,,,,,,11,,,75,0
8790,note_on,,1,0,12,,,,,,,,,,,,,,,11,,,72,72
8790,note_on,,1,0,9,,,,,,,,,,,,,,,7,,,60,88
8809,note_on,,169,0,10,,,,,,,,,,,,,,,8,,,48,0
8819,note_on,,59,0,13,,,,,,,,,,,,,,,12,,,60,0
8819,note_on,,59,0,15,,,,,,,,,,,,,,,14,,,48,0
8819,note_on,,179,0,14,,,,,,,,,,,,,,,13,,,48,0
8819,note_on,,29,0,9,,,,,,,,,,,,,,,7,,,60,0
8819,note_on,,179,0,6,,,,,,,,,,,,,,,1,,,48,0
8819,note_on,,29,0,12,,,,,,,,,,,,,,,11,,,72,0
8820,note_on,,1,0,15,,,,,,,,,,,,,,,14,,,53,64
8820,note_on,,11,0,10,,,,,,,,,,,,,,,8,,,53,88
8820,note_on,,1,0,13,,,,,,,,,,,,,,,12,,,68,72
8820,note_on,,1,0,12,,,,,,,,,,,,,,,11,,,70,72
8820,note_on,,1,0,9,,,,,,,,,,,,,,,7,,,58,88
8820,note_on,,1,0,6,,,,,,,,,,,,,,,1,,,53,64
8820,note_on,,1,0,14,,,,,,,,,,,,,,,13,,,53,64
8849,note_on,,29,0,12,,,,,,,,,,,,,,,11,,,70,0
8849,note_on,,29,0,9,,,,,,,,,,,,,,,7,,,58,0
8850,note_on,,1,0,12,,,,,,,,,,,,,,,11,,,72,72
8850,note_on,,1,0,9,,,,,,,,,,,,,,,7,,,60,88
8879,note_on,,59,0,10,,,,,,,,,,,,,,,8,,,53,0
8879,note_on,,59,0,6,,,,,,,,,,,,,,,1,,,53,0
8879,note_on,,59,0,15,,,,,,,,,,,,,,,14,,,72,0
8879,note_on,,0,0,15,,,,,,,,,,,,,,,14,,,68,0
8879,note_on,,0,0,15,,,,,,,,,,,,,,,14,,,63,0
8879,note_on,,0,0,15,,,,,,,,,,,,,,,14,,,53,0
8879,note_on,,59,0,14,,,,,,,,,,,,,,,13,,,53,0
8879,note_on,,29,0,12,,,,,,,,,,,,,,,11,,,72,0
8879,note_on,,59,0,13,,,,,,,,,,,,,,,12,,,68,0
8879,note_on,,29,0,9,,,,,,,,,,,,,,,7,,,60,0
8880,note_on,,0,0,15,,,,,,,,,,,,,,,14,,,68,64
8880,note_on,,1,0,9,,,,,,,,,,,,,,,7,,,62,88
8880,note_on,,1,0,14,,,,,,,,,,,,,,,13,,,46,64
8880,note_on,,0,0,15,,,,,,,,,,,,,,,14,,,70,64
8880,note_on,,1,0,15,,,,,,,,,,,,,,,14,,,46,64
8880,note_on,,1,0,12,,,,,,,,,,,,,,,11,,,74,72
8880,note_on,,1,0,10,,,,,,,,,,,,,,,8,,,46,88
8880,note_on,,1,0,13,,,,,,,,,,,,,,,12,,,65,72
8880,note_on,,1,0,6,,,,,,,,,,,,,,,1,,,46,64
8880,note_on,,0,0,15,,,,,,,,,,,,,,,14,,,62,64
8909,note_on,,29,0,9,,,,,,,,,,,,,,,7,,,62,0
8909,note_on,,29,0,12,,,,,,,,,,,,,,,11,,,74,0
8910,note_on,,1,0,9,,,,,,,,,,,,,,,7,,,63,88
8910,note_on,,1,0,12,,,,,,,,,,,,,,,11,,,75,72
8939,note_on,,29,0,9,,,,,,,,,,,,,,,7,,,63,0
8939,note_on,,29,0,12,,,,,,,,,,,,,,,11,,,75,0
8940,note_on,,1,0,9,,,,,,,,,,,,,,,7,,,62,88
8940,note_on,,1,0,12,,,,,,,,,,,,,,,11,,,74,72
8969,note_on,,29,0,9,,,,,,,,,,,,,,,7,,,62,0
8969,note_on,,29,0,12,,,,,,,,,,,,,,,11,,,74,0
8970,note_on,,1,0,9,,,,,,,,,,,,,,,7,,,60,88
8970,note_on,,1,0,12,,,,,,,,,,,,,,,11,,,72,72
8999,note_on,,239,0,11,,,,,,,,,,,,,,,10,,,80,0
8999,note_on,,29,0,12,,,,,,,,,,,,,,,11,,,72,0
8999,note_on,,119,0,13,,,,,,,,,,,,,,,12,,,65,0
8999,note_on,,29,0,9,,,,,,,,,,,,,,,7,,,60,0
8999,note_on,,239,0,8,,,,,,,,,,,,,,,6,,,68,0
8999,note_on,,0,0,15,,,,,,,,,,,,,,,14,,,62,0
8999,note_on,,0,0,15,,,,,,,,,,,,,,,14,,,68,0
8999,note_on,,119,0,15,,,,,,,,,,,,,,,14,,,70,0
9000,note_on,,1,0,11,,,,,,,,,,,,,,,10,,,79,72
9000,note_on,,1,0,12,,,,,,,,,,,,,,,11,,,74,72
9000,note_on,,1,0,8,,,,,,,,,,,,,,,6,,,67,88
9000,note_on,,1,0,9,,,,,,,,,,,,,,,7,,,62,88
9000,note_on,,1,0,13,,,,,,,,,,,,,,,12,,,62,72
9000,note_on,,1,0,15,,,,,,,,,,,,,,,14,,,67,64
9000,note_on,,0,0,15,,,,,,,,,,,,,,,14,,,62,64
9000,note_on,,0,0,15,,,,,,,,,,,,,,,14,,,55,64
9029,note_on,,29,0,12,,,,,,,,,,,,,,,11,,,74,0
9029,note_on,,29,0,9,,,,,,,,,,,,,,,7,,,62,0
9030,note_on,,1,0,9,,,,,,,,,,,,,,,7,,,58,88
9030,note_on,,1,0,12,,,,,,,,,,,,,,,11,,,70,72
9059,note_on,,29,0,12,,,,,,,,,,,,,,,11,,,70,0
9059,note_on,,179,0,14,,,,,,,,,,,,,,,13,,,46,0
9059,note_on,,59,0,13,,,,,,,,,,,,,,,12,,,62,0
9059,note_on,,59,0,15,,,,,,,,,,,,,,,14,,,46,0
9059,note_on,,29,0,9,,,,,,,,,,,,,,,7,,,58,0
9059,note_on,,179,0,6,,,,,,,,,,,,,,,1,,,46,0
9059,note_on,,179,0,10,,,,,,,,,,,,,,,8,,,46,0
9060,note_on,,1,0,10,,,,,,,,,,,,,,,8,,,58,88
9060,note_on,,1,0,14,,,,,,,,,,,,,,,13,,,58,64
9060,note_on,,301,0,5,,,,,,,,,,,,,,,0,,,67,72
9060,note_on,,301,0,7,,,,,,,,,,,,,,,5,,,67,88
9060,note_on,,1,0,13,,,,,,,,,,,,,,,12,,,67,72
9060,note_on,,1,0,9,,,,,,,,,,,,,,,7,,,63,88
9060,note_on,,1,0,6,,,,,,,,,,,,,,,1,,,58,64
9060,note_on,,1,0,12,,,,,,,,,,,,,,,11,,,75,72
9060,note_on,,1,0,15,,,,,,,,,,,,,,,14,,,58,64
9089,note_on,,29,0,9,,,,,,,,,,,,,,,7,,,63,0
9089,note_on,,29,0,12,,,,,,,,,,,,,,,11,,,75,0
9090,note_on,,1,0,9,,,,,,,,,,,,,,,7,,,62,88
9090,note_on,,1,0,12,,,,,,,,,,,,,,,11,,,74,72
9119,note_on,,0,0,15,,,,,,,,,,,,,,,14,,,58,0
9119,note_on,,59,0,6,,,,,,,,,,,,,,,1,,,58,0
9119,note_on,,59,0,10,,,,,,,,,,,,,,,8,,,58,0
9119,note_on,,0,0,15,,,,,,,,,,,,,,,14,,,55,0
9119,note_on,,59,0,13,,,,,,,,,,,,,,,12,,,67,0
9119,note_on,,29,0,12,,,,,,,,,,,,,,,11,,,74,0
9119,note_on,,59,0,7,,,,,,,,,,,,,,,5,,,67,0
9119,note_on,,59,0,5,,,,,,,,,,,,,,,0,,,67,0
9119,note_on,,59,0,15,,,,,,,,,,,,,,,14,,,67,0
9119,note_on,,59,0,14,,,,,,,,,,,,,,,13,,,58,0
9119,note_on,,29,0,9,,,,,,,,,,,,,,,7,,,62,0
9119,note_on,,0,0,15,,,,,,,,,,,,,,,14,,,62,0
9120,note_on,,1,0,15,,,,,,,,,,,,,,,14,,,56,64
9120,note_on,,0,0,15,,,,,,,,,,,,,,,14,,,72,64
9120,note_on,,0,0,15,,,,,,,,,,,,,,,14,,,68,64
9120,note_on,,0,0,15,,,,,,,,,,,,,,,14,,,67,64
9120,note_on,,1,0,12,,,,,,,,,,,,,,,11,,,72,72
9120,note_on,,1,0,9,,,,,,,,,,,,,,,7,,,60,88
9120,note_on,,1,0,6,,,,,,,,,,,,,,,1,,,56,64
9120,note_on,,1,0,14,,,,,,,,,,,,,,,13,,,56,64
9120,note_on,,1,0,10,,,,,,,,,,,,,,,8,,,56,88
9120,note_on,,1,0,5,,,,,,,,,,,,,,,0,,,72,72
9120,note_on,,1,0,7,,,,,,,,,,,,,,,5,,,72,88
9120,note_on,,1,0,13,,,,,,,,,,,,,,,12,,,60,72
9149,note_on,,29,0,12,,,,,,,,,,,,,,,11,,,72,0
9150,note_on,,1,0,12,,,,,,,,,,,,,,,11,,,71,72
9179,note_on,,59,0,9,,,,,,,,,,,,,,,7,,,60,0
9179,note_on,,29,0,12,,,,,,,,,,,,,,,11,,,71,0
9179,note_on,,59,0,13,,,,,,,,,,,,,,,12,,,60,0
9180,note_on,,1,0,13,,,,,,,,,,,,,,,12,,,60,72
9180,note_on,,1,0,9,,,,,,,,,,,,,,,7,,,60,88
9180,note_on,,1,0,12,,,,,,,,,,,,,,,11,,,72,72
9209,note_on,,29,0,12,,,,,,,,,,,,,,,11,,,72,0
9210,note_on,,1,0,12,,,,,,,,,,,,,,,11,,,74,72
9239,note_on,,29,0,12,,,,,,,,,,,,,,,11,,,74,0
9239,note_on,,59,0,9,,,,,,,,,,,,,,,7,,,60,0
9239,note_on,,0,0,15,,,,,,,,,,,,,,,14,,,67,0
9239,note_on,,239,0,11,,,,,,,,,,,,,,,10,,,79,0
9239,note_on,,119,0,15,,,,,,,,,,,,,,,14,,,72,0
9239,note_on,,59,0,13,,,,,,,,,,,,,,,12,,,60,0
9239,note_on,,239,0,8,,,,,,,,,,,,,,,6,,,67,0
9239,note_on,,0,0,15,,,,,,,,,,,,,,,14,,,68,0
9240,note_on,,1,0,8,,,,,,,,,,,,,,,6,,,65,88
9240,note_on,,1,0,9,,,,,,,,,,,,,,,7,,,60,88
9240,note_on,,1,0,13,,,,,,,,,,,,,,,12,,,60,72
9240,note_on,,1,0,12,,,,,,,,,,,,,,,11,,,72,72
9240,note_on,,1,0,11,,,,,,,,,,,,,,,10,,,77,72
9240,note_on,,1,0,15,,,,,,,,,,,,,,,14,,,77,64
9240,note_on,,0,0,15,,,,,,,,,,,,,,,14,,,72,64
9240,note_on,,0,0,15,,,,,,,,,,,,,,,14,,,65,64
9269,note_on,,29,0,12,,,,,,,,,,,,,,,11,,,72,0
9270,note_on,,1,0,12,,,,,,,,,,,,,,,11,,,75,72
9299,note_on,,179,0,7,,,,,,,,,,,,,,,5,,,72,0
9299,note_on,,179,0,10,,,,,,,,,,,,,,,8,,,56,0
9299,note_on,,59,0,13,,,,,,,,,,,,,,,12,,,60,0
9299,note_on,,59,0,9,,,,,,,,,,,,,,,7,,,60,0
9299,note_on,,179,0,5,,,,,,,,,,,,,,,0,,,72,0
9299,note_on,,29,0,12,,,,,,,,,,,,,,,11,,,75,0
9300,note_on,,1,0,9,,,,,,,,,,,,,,,7,,,60,88
9300,note_on,,1,0,5,,,,,,,,,,,,,,,0,,,72,72
9300,note_on,,1,0,7,,,,,,,,,,,,,,,5,,,72,88
9300,note_on,,1,0,10,,,,,,,,,,,,,,,8,,,56,88
9300,note_on,,1,0,12,,,,,,,,,,,,,,,11,,,74,72
9300,note_on,,1,0,13,,,,,,,,,,,,,,,12,,,60,72
9329,note_on,,29,0,12,,,,,,,,,,,,,,,11,,,74,0
9330,note_on,,1,0,12,,,,,,,,,,,,,,,11,,,72,72
9359,note_on,,59,0,7,,,,,,,,,,,,,,,5,,,72,0
9359,note_on,,0,0,15,,,,,,,,,,,,,,,14,,,65,0
9359,note_on,,0,0,15,,,,,,,,,,,,,,,14,,,72,0
9359,note_on,,119,0,8,,,,,,,,,,,,,,,6,,,65,0
9359,note_on,,119,0,15,,,,,,,,,,,,,,,14,,,56,0
9359,note_on,,239,0,6,,,,,,,,,,,,,,,1,,,56,0
9359,note_on,,59,0,13,,,,,,,,,,,,,,,12,,,60,0
9359,note_on,,0,0,15,,,,,,,,,,,,,,,14,,,77,0
9359,note_on,,59,0,5,,,,,,,,,,,,,,,0,,,72,0
9359,note_on,,119,0,11,,,,,,,,,,,,,,,10,,,77,0
9359,note_on,,59,0,10,,,,,,,,,,,,,,,8,,,56,0
9359,note_on,,239,0,14,,,,,,,,,,,,,,,13,,,56,0
9359,note_on,,59,0,9,,,,,,,,,,,,,,,7,,,60,0
9359,note_on,,29,0,12,,,,,,,,,,,,,,,11,,,72,0
9360,note_on,,1,0,5,,,,,,,,,,,,,,,0,,,71,72
9360,note_on,,0,0,15,,,,,,,,,,,,,,,14,,,74,64
9360,note_on,,1,0,15,,,,,,,,,,,,,,,14,,,55,64
9360,note_on,,1,0,10,,,,,,,,,,,,,,,8,,,55,88
9360,note_on,,1,0,8,,,,,,,,,,,,,,,6,,,67,88
9360,note_on,,1,0,9,,,,,,,,,,,,,,,7,,,62,88
9360,note_on,,1,0,12,,,,,,,,,,,,,,,11,,,71,72
9360,note_on,,1,0,6,,,,,,,,,,,,,,,1,,,55,64
9360,note_on,,1,0,14,,,,,,,,,,,,,,,13,,,55,64
9360,note_on,,1,0,11,,,,,,,,,,,,,,,10,,,79,72
9360,note_on,,0,0,15,,,,,,,,,,,,,,,14,,,71,64
9360,note_on,,0,0,15,,,,,,,,,,,,,,,14,,,67,64
9360,note_on,,1,0,7,,,,,,,,,,,,,,,5,,,71,88
9360,note_on,,1,0,13,,,,,,,,,,,,,,,12,,,62,72
9419,note_on,,59,0,14,,,,,,,,,,,,,,,13,,,55,0
9419,note_on,,59,0,11,,,,,,,,,,,,,,,10,,,79,0
9419,note_on,,59,0,13,,,,,,,,,,,,,,,12,,,62,0
9419,note_on,,59,0,6,,,,,,,,,,,,,,,1,,,55,0
9419,note_on,,0,0,15,,,,,,,,,,,,,,,14,,,67,0
9419,note_on,,59,0,15,,,,,,,,,,,,,,,14,,,55,0
9419,note_on,,0,0,15,,,,,,,,,,,,,,,14,,,71,0
9419,note_on,,59,0,12,,,,,,,,,,,,,,,11,,,71,0
9419,note_on,,0,0,15,,,,,,,,,,,,,,,14,,,74,0
9420,note_on,,1,0,6,,,,,,,,,,,,,,,1,,,53,64
9420,note_on,,1,0,14,,,,,,,,,,,,,,,13,,,53,64
9420,note_on,,1,0,12,,,,,,,,,,,,,,,11,,,67,72
9420,note_on,,1,0,11,,,,,,,,,,,,,,,10,,,71,72
9420,note_on,,0,0,15,,,,,,,,,,,,,,,14,,,67,64
9420,note_on,,0,0,15,,,,,,,,,,,,,,,14,,,53,64
9420,note_on,,1,0,15,,,,,,,,,,,,,,,14,,,71,64
9420,note_on,,1,0,13,,,,,,,,,,,,,,,12,,,62,72
9420,note_on,,0,0,15,,,,,,,,,,,,,,,14,,,62,64
9479,note_on,,59,0,14,,,,,,,,,,,,,,,13,,,53,0
9479,note_on,,119,0,10,,,,,,,,,,,,,,,8,,,55,0
9479,note_on,,59,0,12,,,,,,,,,,,,,,,11,,,67,0
9479,note_on,,59,0,6,,,,,,,,,,,,,,,1,,,53,0
9479,note_on,,119,0,9,,,,,,,,,,,,,,,7,,,62,0
9479,note_on,,59,0,13,,,,,,,,,,,,,,,12,,,62,0
9479,note_on,,59,0,11,,,,,,,,,,,,,,,10,,,71,0
9479,note_on,,59,0,15,,,,,,,,,,,,,,,14,,,71,0
9479,note_on,,0,0,15,,,,,,,,,,,,,,,14,,,53,0
9479,note_on,,0,0,15,,,,,,,,,,,,,,,14,,,67,0
9479,note_on,,0,0,15,,,,,,,,,,,,,,,14,,,62,0
9479,note_on,,119,0,7,,,,,,,,,,,,,,,5,,,71,0
9479,note_on,,119,0,5,,,,,,,,,,,,,,,0,,,71,0
9479,note_on,,119,0,8,,,,,,,,,,,,,,,6,,,67,0
9480,note_on,,1,0,12,,,,,,,,,,,,,,,11,,,69,72
9480,note_on,,1,0,6,,,,,,,,,,,,,,,1,,,51,64
9480,note_on,,1,0,7,,,,,,,,,,,,,,,5,,,71,88
9480,note_on,,1,0,8,,,,,,,,,,,,,,,6,,,67,88
9480,note_on,,1,0,10,,,,,,,,,,,,,,,8,,,55,88
9480,note_on,,1,0,9,,,,,,,,,,,,,,,7,,,62,88
9480,note_on,,0,0,15,,,,,,,,,,,,,,,14,,,67,64
9480,note_on,,0,0,15,,,,,,,,,,,,,,,14,,,69,64
9480,note_on,,0,0,15,,,,,,,,,,,,,,,14,,,72,64
9480,note_on,,1,0,15,,,,,,,,,,,,,,,14,,,51,64
9480,note_on,,1,0,13,,,,,,,,,,,,,,,12,,,67,72
9480,note_on,,1,0,5,,,,,,,,,,,,,,,0,,,71,72
9480,note_on,,1,0,14,,,,,,,,,,,,,,,13,,,51,64
9480,note_on,,1,0,11,,,,,,,,,,,,,,,10,,,72,72
9539,note_on,,0,0,15,,,,,,,,,,,,,,,14,,,72,0
9539,note_on,,59,0,6,,,,,,,,,,,,,,,1,,,51,0
9539,note_on,,59,0,13,,,,,,,,,,,,,,,12,,,67,0
9539,note_on,,59,0,11,,,,,,,,,,,,,,,10,,,72,0
9539,note_on,,59,0,12,,,,,,,,,,,,,,,11,,,69,0
9539,note_on,,59,0,15,,,,,,,,,,,,,,,14,,,51,0
9539,note_on,,59,0,14,,,,,,,,,,,,,,,13,,,51,0
9539,note_on,,0,0,15,,,,,,,,,,,,,,,14,,,69,0
9539,note_on,,0,0,15,,,,,,,,,,,,,,,14,,,67,0
9540,note_on,,1,0,11,,,,,,,,,,,,,,,10,,,74,72
9540,note_on,,1,0,13,,,,,,,,,,,,,,,12,,,65,72
9540,note_on,,0,0,15,,,,,,,,,,,,,,,14,,,74,64
9540,note_on,,1,0,15,,,,,,,,,,,,,,,14,,,50,64
9540,note_on,,1,0,14,,,,,,,,,,,,,,,13,,,50,64
9540,note_on,,0,0,15,,,,,,,,,,,,,,,14,,,71,64
9540,note_on,,1,0,12,,,,,,,,,,,,,,,11,,,71,72
9540,note_on,,1,0,6,,,,,,,,,,,,,,,1,,,50,64
9540,note_on,,0,0,15,,,,,,,,,,,,,,,14,,,65,64
9599,note_on,,119,0,7,,,,,,,,,,,,,,,5,,,71,0
9599,note_on,,59,0,11,,,,,,,,,,,,,,,10,,,74,0
9599,note_on,,59,0,12,,,,,,,,,,,,,,,11,,,71,0
9599,note_on,,59,0,13,,,,,,,,,,,,,,,12,,,65,0
9599,note_on,,0,0,15,,,,,,,,,,,,,,,14,,,71,0
9599,note_on,,59,0,6,,,,,,,,,,,,,,,1,,,50,0
9599,note_on,,119,0,10,,,,,,,,,,,,,,,8,,,55,0
9599,note_on,,59,0,14,,,,,,,,,,,,,,,13,,,50,0
9599,note_on,,119,0,5,,,,,,,,,,,,,,,0,,,71,0
9599,note_on,,119,0,9,,,,,,,,,,,,,,,7,,,62,0
9599,note_on,,0,0,15,,,,,,,,,,,,,,,14,,,65,0
9599,note_on,,119,0,8,,,,,,,,,,,,,,,6,,,67,0
9599,note_on,,0,0,15,,,,,,,,,,,,,,,14,,,74,0
9599,note_on,,59,0,15,,,,,,,,,,,,,,,14,,,50,0
9600,note_on,,1,0,14,,,,,,,,,,,,,,,13,,,48,64
9600,note_on,,1,0,12,,,,,,,,,,,,,,,11,,,72,72
9600,note_on,,0,0,15,,,,,,,,,,,,,,,14,,,67,64
9600,note_on,,1,0,11,,,,,,,,,,,,,,,10,,,75,72
9600,note_on,,1,0,13,,,,,,,,,,,,,,,12,,,63,72
9600,note_on,,1,0,15,,,,,,,,,,,,,,,14,,,48,64
9600,note_on,,0,0,15,,,,,,,,,,,,,,,14,,,75,64
9600,note_on,,0,0,15,,,,,,,,,,,,,,,14,,,72,64
9600,note_on,,1,0,6,,,,,,,,,,,,,,,1,,,48,64
9629,note_on,,29,0,11,,,,,,,,,,,,,,,10,,,75,0
9629,note_on,,29,0,12,,,,,,,,,,,,,,,11,,,72,0
9630,note_on,,1,0,11,,,,,,,,,,,,,,,10,,,74,72
9630,note_on,,1,0,12,,,,,,,,,,,,,,,11,,,71,72
9659,note_on,,59,0,6,,,,,,,,,,,,,,,1,,,48,0
9659,note_on,,29,0,11,,,,,,,,,,,,,,,10,,,74,0
9659,note_on,,59,0,13,,,,,,,,,,,,,,,12,,,63,0
9659,note_on,,29,0,12,,,,,,,,,,,,,,,11,,,71,0
9659,note_on,,59,0,14,,,,,,,,,,,,,,,13,,,48,0
9659,note_on,,0,0,15,,,,,,,,,,,,,,,14,,,67,0
9659,note_on,,0,0,15,,,,,,,,,,,,,,,14,,,72,0
9659,note_on,,0,0,15,,,,,,,,,,,,,,,14,,,75,0
9659,note_on,,59,0,15,,,,,,,,,,,,,,,14,,,48,0
9660,note_on,,1,0,12,,,,,,,,,,,,,,,11,,,72,72
9660,note_on,,61,0,10,,,,,,,,,,,,,,,8,,,48,88
9660,note_on,,1,0,14,,,,,,,,,,,,,,,13,,,48,64
9660,note_on,,1,0,11,,,,,,,,,,,,,,,10,,,75,72
9660,note_on,,61,0,8,,,,,,,,,,,,,,,6,,,67,88
9660,note_on,,61,0,7,,,,,,,,,,,,,,,5,,,72,88
9660,note_on,,1,0,13,,,,,,,,,,,,,,,12,,,67,72
9660,note_on,,61,0,5,,,,,,,,,,,,,,,0,,,72,72
9660,note_on,,1,0,15,,,,,,,,,,,,,,,14,,,48,64
9660,note_on,,0,0,15,,,,,,,,,,,,,,,14,,,72,64
9660,note_on,,0,0,15,,,,,,,,,,,,,,,14,,,67,64
9660,note_on,,0,0,15,,,,,,,,,,,,,,,14,,,63,64
9660,note_on,,1,0,6,,,,,,,,,,,,,,,1,,,48,64
9660,note_on,,61,0,9,,,,,,,,,,,,,,,7,,,63,88
9689,note_on,,29,0,12,,,,,,,,,,,,,,,11,,,72,0
9689,note_on,,29,0,11,,,,,,,,,,,,,,,10,,,75,0
9690,note_on,,1,0,12,,,,,,,,,,,,,,,11,,,74,72
9690,note_on,,1,0,11,,,,,,,,,,,,,,,10,,,77,72
9719,note_on,,59,0,7,,,,,,,,,,,,,,,5,,,72,0
9719,note_on,,59,0,5,,,,,,,,,,,,,,,0,,,72,0
9719,note_on,,59,0,15,,,,,,,,,,,,,,,14,,,48,0
9719,note_on,,0,0,15,,,,,,,,,,,,,,,14,,,72,0
9719,note_on,,59,0,8,,,,,,,,,,,,,,,6,,,67,0
9719,note_on,,59,0,13,,,,,,,,,,,,,,,12,,,67,0
9719,note_on,,0,0,15,,,,,,,,,,,,,,,14,,,67,0
9719,note_on,,29,0,11,,,,,,,,,,,,,,,10,,,77,0
9719,note_on,,0,0,15,,,,,,,,,,,,,,,14,,,63,0
9719,note_on,,59,0,9,,,,,,,,,,,,,,,7,,,63,0
9719,note_on,,59,0,10,,,,,,,,,,,,,,,8,,,48,0
9719,note_on,,29,0,12,,,,,,,,,,,,,,,11,,,74,0
9719,note_on,,59,0,14,,,,,,,,,,,,,,,13,,,48,0
9719,note_on,,59,0,6,,,,,,,,,,,,,,,1,,,48,0
9720,note_on,,1,0,6,,,,,,,,,,,,,,,1,,,50,64
9720,note_on,,1,0,10,,,,,,,,,,,,,,,8,,,50,88
9720,note_on,,0,0,15,,,,,,,,,,,,,,,14,,,63,64
9720,note_on,,0,0,15,,,,,,,,,,,,,,,14,,,67,64
9720,note_on,,1,0,11,,,,,,,,,,,,,,,10,,,75,72
9720,note_on,,1,0,5,,,,,,,,,,,,,,,0,,,72,72
9720,note_on,,1,0,14,,,,,,,,,,,,,,,13,,,50,64
9720,note_on,,1,0,13,,,,,,,,,,,,,,,12,,,67,72
9720,note_on,,1,0,12,,,,,,,,,,,,,,,11,,,72,72
9720,note_on,,0,0,15,,,,,,,,,,,,,,,14,,,72,64
9720,note_on,,1,0,15,,,,,,,,,,,,,,,14,,,50,64
9720,note_on,,1,0,7,,,,,,,,,,,,,,,5,,,72,88
9720,note_on,,1,0,8,,,,,,,,,,,,,,,6,,,67,88
9720,note_on,,1,0,9,,,,,,,,,,,,,,,7,,,63,88
9749,note_on,,29,0,11,,,,,,,,,,,,,,,10,,,75,0
9749,note_on,,29,0,12,,,,,,,,,,,,,,,11,,,72,0
9750,note_on,,1,0,11,,,,,,,,,,,,,,,10,,,77,72
9750,note_on,,1,0,12,,,,,,,,,,,,,,,11,,,74,72
9779,note_on,,59,0,5,,,,,,,,,,,,,,,0,,,72,0
9779,note_on,,59,0,6,,,,,,,,,,,,,,,1,,,50,0
9779,note_on,,59,0,14,,,,,,,,,,,,,,,13,,,50,0
9779,note_on,,59,0,8,,,,,,,,,,,,,,,6,,,67,0
9779,note_on,,0,0,15,,,,,,,,,,,,,,,14,,,72,0
9779,note_on,,59,0,9,,,,,,,,,,,,,,,7,,,63,0
9779,note_on,,29,0,11,,,,,,,,,,,,,,,10,,,77,0
9779,note_on,,29,0,12,,,,,,,,,,,,,,,11,,,74,0
9779,note_on,,59,0,15,,,,,,,,,,,,,,,14,,,50,0
9779,note_on,,59,0,7,,,,,,,,,,,,,,,5,,,72,0
9779,note_on,,59,0,13,,,,,,,,,,,,,,,12,,,67,0
9779,note_on,,59,0,10,,,,,,,,,,,,,,,8,,,50,0
9779,note_on,,0,0,15,,,,,,,,,,,,,,,14,,,67,0
9779,note_on,,0,0,15,,,,,,,,,,,,,,,14,,,63,0
9780,note_on,,1,0,14,,,,,,,,,,,,,,,13,,,51,64
9780,note_on,,1,0,9,,,,,,,,,,,,,,,7,,,62,88
9780,note_on,,1,0,6,,,,,,,,,,,,,,,1,,,51,64
9780,note_on,,1,0,11,,,,,,,,,,,,,,,10,,,74,72
9780,note_on,,1,0,10,,,,,,,,,,,,,,,8,,,51,88
9780,note_on,,1,0,12,,,,,,,,,,,,,,,11,,,70,72
9780,note_on,,1,0,15,,,,,,,,,,,,,,,14,,,51,64
9780,note_on,,1,0,7,,,,,,,,,,,,,,,5,,,70,88
9780,note_on,,0,0,15,,,,,,,,,,,,,,,14,,,70,64
9780,note_on,,0,0,15,,,,,,,,,,,,,,,14,,,67,64
9780,note_on,,1,0,13,,,,,,,,,,,,,,,12,,,67,72
9780,note_on,,0,0,15,,,,,,,,,,,,,,,14,,,62,64
9780,note_on,,1,0,8,,,,,,,,,,,,,,,6,,,67,88
9780,note_on,,1,0,5,,,,,,,,,,,,,,,0,,,70,72
9809,note_on,,29,0,11,,,,,,,,,,,,,,,10,,,74,0
9809,note_on,,29,0,12,,,,,,,,,,,,,,,11,,,70,0
9810,note_on,,1,0,12,,,,,,,,,,,,,,,11,,,72,72
9810,note_on,,1,0,11,,,,,,,,,,,,,,,10,,,75,72
9839,note_on,,59,0,9,,,,,,,,,,,,,,,7,,,62,0
9839,note_on,,59,0,5,,,,,,,,,,,,,,,0,,,70,0
9839,note_on,,59,0,8,,,,,,,,,,,,,,,6,,,67,0
9839,note_on,,29,0,12,,,,,,,,,,,,,,,11,,,72,0
9839,note_on,,0,0,15,,,,,,,,,,,,,,,14,,,62,0
9839,note_on,,59,0,13,,,,,,,,,,,,,,,12,,,67,0
9839,note_on,,0,0,15,,,,,,,,,,,,,,,14,,,70,0
9839,note_on,,29,0,11,,,,,,,,,,,,,,,10,,,75,0
9839,note_on,,0,0,15,,,,,,,,,,,,,,,14,,,67,0
9839,note_on,,59,0,10,,,,,,,,,,,,,,,8,,,51,0
9839,note_on,,59,0,14,,,,,,,,,,,,,,,13,,,51,0
9839,note_on,,59,0,7,,,,,,,,,,,,,,,5,,,70,0
9839,note_on,,59,0,15,,,,,,,,,,,,,,,14,,,51,0
9839,note_on,,59,0,6,,,,,,,,,,,,,,,1,,,51,0
9840,note_on,,0,0,15,,,,,,,,,,,,,,,14,,,65,64
9840,note_on,,1,0,12,,,,,,,,,,,,,,,11,,,69,72
9840,note_on,,0,0,15,,,,,,,,,,,,,,,14,,,60,64
9840,note_on,,1,0,8,,,,,,,,,,,,,,,6,,,69,88
9840,note_on,,1,0,15,,,,,,,,,,,,,,,14,,,53,64
9840,note_on,,0,0,15,,,,,,,,,,,,,,,14,,,69,64
9840,note_on,,1,0,6,,,,,,,,,,,,,,,1,,,53,64
9840,note_on,,1,0,13,,,,,,,,,,,,,,,12,,,60,72
9840,note_on,,1,0,7,,,,,,,,,,,,,,,5,,,69,88
9840,note_on,,1,0,9,,,,,,,,,,,,,,,7,,,60,88
9840,note_on,,1,0,14,,,,,,,,,,,,,,,13,,,53,64
9840,note_on,,1,0,10,,,,,,,,,,,,,,,8,,,53,88
9840,note_on,,1,0,11,,,,,,,,,,,,,,,10,,,72,72
9840,note_on,,1,0,5,,,,,,,,,,,,,,,0,,,69,72
9869,note_on,,29,0,12,,,,,,,,,,,,,,,11,,,69,0
9869,note_on,,29,0,11,,,,,,,,,,,,,,,10,,,72,0
9870,note_on,,1,0,12,,,,,,,,,,,,,,,11,,,67,72
9870,note_on,,1,0,11,,,,,,,,,,,,,,,10,,,70,72
9899,note_on,,29,0,12,,,,,,,,,,,,,,,11,,,67,0
9899,note_on,,29,0,11,,,,,,,,,,,,,,,10,,,70,0
9899,note_on,,59,0,13,,,,,,,,,,,,,,,12,,,60,0
9900,note_on,,1,0,11,,,,,,,,,,,,,,,10,,,72,72
9900,note_on,,1,0,12,,,,,,,,,,,,,,,11,,,69,72
9900,note_on,,1,0,13,,,,,,,,,,,,,,,12,,,60,72
9929,note_on,,29,0,11,,,,,,,,,,,,,,,10,,,72,0
9929,note_on,,29,0,12,,,,,,,,,,,,,,,11,,,69,0
9930,note_on,,1,0,11,,,,,,,,,,,,,,,10,,,74,72
9930,note_on,,1,0,12,,,,,,,,,,,,,,,11,,,70,72
9959,note_on,,119,0,15,,,,,,,,,,,,,,,14,,,69,0
9959,note_on,,0,0,15,,,,,,,,,,,,,,,14,,,60,0
9959,note_on,,59,0,13,,,,,,,,,,,,,,,12,,,60,0
9959,note_on,,29,0,12,,,,,,,,,,,,,,,11,,,70,0
9959,note_on,,29,0,11,,,,,,,,,,,,,,,10,,,74,0
9959,note_on,,0,0,15,,,,,,,,,,,,,,,14,,,65,0
9960,note_on,,1,0,15,,,,,,,,,,,,,,,14,,,67,64
9960,note_on,,0,0,15,,,,,,,,,,,,,,,14,,,70,64
9960,note_on,,0,0,15,,,,,,,,,,,,,,,14,,,62,64
9960,note_on,,1,0,12,,,,,,,,,,,,,,,11,,,69,72
9960,note_on,,1,0,11,,,,,,,,,,,,,,,10,,,72,72
9960,note_on,,1,0,13,,,,,,,,,,,,,,,12,,,65,72
9989,note_on,,29,0,11,,,,,,,,,,,,,,,10,,,72,0
9989,note_on,,29,0,12,,,,,,,,,,,,,,,11,,,69,0
9990,note_on,,1,0,11,,,,,,,,,,,,,,,10,,,72,72
9990,note_on,,1,0,12,,,,,,,,,,,,,,,11,,,69,72
10019,note_on,,0,0,15,,,,,,,,,,,,,,,14,,,62,0
10019,note_on,,179,0,6,,,,,,,,,,,,,,,1,,,53,0
10019,note_on,,59,0,15,,,,,,,,,,,,,,,14,,,53,0
10019,note_on,,0,0,15,,,,,,,,,,,,,,,14,,,70,0
10019,note_on,,179,0,10,,,,,,,,,,,,,,,8,,,53,0
10019,note_on,,29,0,12,,,,,,,,,,,,,,,11,,,69,0
10019,note_on,,179,0,7,,,,,,,,,,,,,,,5,,,69,0
10019,note_on,,179,0,14,,,,,,,,,,,,,,,13,,,53,0
10019,note_on,,179,0,9,,,,,,,,,,,,,,,7,,,60,0
10019,note_on,,29,0,11,,,,,,,,,,,,,,,10,,,72,0
10019,note_on,,179,0,8,,,,,,,,,,,,,,,6,,,69,0
10019,note_on,,179,0,5,,,,,,,,,,,,,,,0,,,69,0
10020,note_on,,0,0,15,,,,,,,,,,,,,,,14,,,63,64
10020,note_on,,1,0,7,,,,,,,,,,,,,,,5,,,72,88
10020,note_on,,1,0,14,,,,,,,,,,,,,,,13,,,51,64
10020,note_on,,1,0,12,,,,,,,,,,,,,,,11,,,70,72
10020,note_on,,0,0,15,,,,,,,,,,,,,,,14,,,72,64
10020,note_on,,1,0,8,,,,,,,,,,,,,,,6,,,67,88
10020,note_on,,1,0,6,,,,,,,,,,,,,,,1,,,51,64
10020,note_on,,1,0,9,,,,,,,,,,,,,,,7,,,63,88
10020,note_on,,1,0,11,,,,,,,,,,,,,,,10,,,74,72
10020,note_on,,1,0,15,,,,,,,,,,,,,,,14,,,51,64
10020,note_on,,1,0,5,,,,,,,,,,,,,,,0,,,72,72
10020,note_on,,1,0,10,,,,,,,,,,,,,,,8,,,51,88
10049,note_on,,29,0,11,,,,,,,,,,,,,,,10,,,74,0
10049,note_on,,29,0,12,,,,,,,,,,,,,,,11,,,70,0
10050,note_on,,1,0,11,,,,,,,,,,,,,,,10,,,75,72
10050,note_on,,1,0,12,,,,,,,,,,,,,,,11,,,72,72
10079,note_on,,59,0,8,,,,,,,,,,,,,,,6,,,67,0
10079,note_on,,59,0,9,,,,,,,,,,,,,,,7,,,63,0
10079,note_on,,59,0,14,,,,,,,,,,,,,,,13,,,51,0
10079,note_on,,59,0,7,,,,,,,,,,,,,,,5,,,72,0
10079,note_on,,29,0,11,,,,,,,,,,,,,,,10,,,75,0
10079,note_on,,59,0,6,,,,,,,,,,,,,,,1,,,51,0
10079,note_on,,59,0,5,,,,,,,,,,,,,,,0,,,72,0
10079,note_on,,59,0,10,,,,,,,,,,,,,,,8,,,51,0
10079,note_on,,59,0,15,,,,,,,,,,,,,,,14,,,67,0
10079,note_on,,0,0,15,,,,,,,,,,,,,,,14,,,51,0
10079,note_on,,0,0,15,,,,,,,,,,,,,,,14,,,72,0
10079,note_on,,0,0,15,,,,,,,,,,,,,,,14,,,63,0
10079,note_on,,29,0,12,,,,,,,,,,,,,,,11,,,72,0
10080,note_on,,1,0,9,,,,,,,,,,,,,,,7,,,65,88
10080,note_on,,1,0,6,,,,,,,,,,,,,,,1,,,50,64
10080,note_on,,1,0,14,,,,,,,,,,,,,,,13,,,50,64
10080,note_on,,0,0,15,,,,,,,,,,,,,,,14,,,65,64
10080,note_on,,0,0,15,,,,,,,,,,,,,,,14,,,69,64
10080,note_on,,0,0,15,,,,,,,,,,,,,,,14,,,74,64
10080,note_on,,1,0,7,,,,,,,,,,,,,,,5,,,74,88
10080,note_on,,1,0,5,,,,,,,,,,,,,,,0,,,74,72
10080,note_on,,1,0,10,,,,,,,,,,,,,,,8,,,50,88
10080,note_on,,1,0,11,,,,,,,,,,,,,,,10,,,77,72
10080,note_on,,1,0,15,,,,,,,,,,,,,,,14,,,50,64
10080,note_on,,1,0,8,,,,,,,,,,,,,,,6,,,69,88
10080,note_on,,1,0,12,,,,,,,,,,,,,,,11,,,74,72
10109,note_on,,29,0,11,,,,,,,,,,,,,,,10,,,77,0
10109,note_on,,29,0,12,,,,,,,,,,,,,,,11,,,74,0
10110,note_on,,1,0,12,,,,,,,,,,,,,,,11,,,72,72
10110,note_on,,1,0,11,,,,,,,,,,,,,,,10,,,75,72
10139,note_on,,179,0,13,,,,,,,,,,,,,,,12,,,65,0
10139,note_on,,29,0,11,,,,,,,,,,,,,,,10,,,75,0
10139,note_on,,29,0,12,,,,,,,,,,,,,,,11,,,72,0
10140,note_on,,1,0,13,,,,,,,,,,,,,,,12,,,69,72
10140,note_on,,1,0,11,,,,,,,,,,,,,,,10,,,77,72
10140,note_on,,1,0,12,,,,,,,,,,,,,,,11,,,74,72
10169,note_on,,29,0,11,,,,,,,,,,,,,,,10,,,77,0
10169,note_on,,29,0,12,,,,,,,,,,,,,,,11,,,74,0
10170,note_on,,1,0,11,,,,,,,,,,,,,,,10,,,79,72
10170,note_on,,1,0,12,,,,,,,,,,,,,,,11,,,75,72
10199,note_on,,119,0,10,,,,,,,,,,,,,,,8,,,50,0
10199,note_on,,119,0,5,,,,,,,,,,,,,,,0,,,74,0
10199,note_on,,119,0,7,,,,,,,,,,,,,,,5,,,74,0
10199,note_on,,0,0,15,,,,,,,,,,,,,,,14,,,74,0
10199,note_on,,0,0,15,,,,,,,,,,,,,,,14,,,69,0
10199,note_on,,119,0,6,,,,,,,,,,,,,,,1,,,50,0
10199,note_on,,29,0,12,,,,,,,,,,,,,,,11,,,75,0
10199,note_on,,0,0,15,,,,,,,,,,,,,,,14,,,65,0
10199,note_on,,29,0,11,,,,,,,,,,,,,,,10,,,79,0
10199,note_on,,119,0,8,,,,,,,,,,,,,,,6,,,69,0
10199,note_on,,119,0,15,,,,,,,,,,,,,,,14,,,50,0
10199,note_on,,59,0,13,,,,,,,,,,,,,,,12,,,69,0
10199,note_on,,119,0,9,,,,,,,,,,,,,,,7,,,65,0
10199,note_on,,119,0,14,,,,,,,,,,,,,,,13,,,50,0
10200,note_on,,1,0,12,,,,,,,,,,,,,,,11,,,74,72
10200,note_on,,1,0,9,,,,,,,,,,,,,,,7,,,65,88
10200,note_on,,1,0,6,,,,,,,,,,,,,,,1,,,51,64
10200,note_on,,1,0,13,,,,,,,,,,,,,,,12,,,69,72
10200,note_on,,1,0,8,,,,,,,,,,,,,,,6,,,69,88
10200,note_on,,1,0,7,,,,,,,,,,,,,,,5,,,74,88
10200,note_on,,1,0,10,,,,,,,,,,,,,,,8,,,51,88
10200,note_on,,1,0,15,,,,,,,,,,,,,,,14,,,51,64
10200,note_on,,0,0,15,,,,,,,,,,,,,,,14,,,69,64
10200,note_on,,0,0,15,,,,,,,,,,,,,,,14,,,74,64
10200,note_on,,0,0,15,,,,,,,,,,,,,,,14,,,65,64
10200,note_on,,1,0,11,,,,,,,,,,,,,,,10,,,77,72
10200,note_on,,1,0,14,,,,,,,,,,,,,,,13,,,51,64
10200,note_on,,1,0,5,,,,,,,,,,,,,,,0,,,74,72
10229,note_on,,29,0,12,,,,,,,,,,,,,,,11,,,74,0
10229,note_on,,29,0,11,,,,,,,,,,,,,,,10,,,77,0
10230,note_on,,1,0,11,,,,,,,,,,,,,,,10,,,79,72
10230,note_on,,1,0,12,,,,,,,,,,,,,,,11,,,75,72
10259,note_on,,59,0,14,,,,,,,,,,,,,,,13,,,51,0
10259,note_on,,59,0,13,,,,,,,,,,,,,,,12,,,69,0
10259,note_on,,59,0,6,,,,,,,,,,,,,,,1,,,51,0
10259,note_on,,0,0,15,,,,,,,,,,,,,,,14,,,65,0
10259,note_on,,29,0,12,,,,,,,,,,,,,,,11,,,75,0
10259,note_on,,59,0,9,,,,,,,,,,,,,,,7,,,65,0
10259,note_on,,0,0,15,,,,,,,,,,,,,,,14,,,74,0
10259,note_on,,59,0,5,,,,,,,,,,,,,,,0,,,74,0
10259,note_on,,59,0,8,,,,,,,,,,,,,,,6,,,69,0
10259,note_on,,59,0,15,,,,,,,,,,,,,,,14,,,51,0
10259,note_on,,59,0,7,,,,,,,,,,,,,,,5,,,74,0
10259,note_on,,29,0,11,,,,,,,,,,,,,,,10,,,79,0
10259,note_on,,59,0,10,,,,,,,,,,,,,,,8,,,51,0
10260,note_on,,0,0,15,,,,,,,,,,,,,,,14,,,72,64
10260,note_on,,0,0,15,,,,,,,,,,,,,,,14,,,63,64
10260,note_on,,1,0,11,,,,,,,,,,,,,,,10,,,75,72
10260,note_on,,1,0,8,,,,,,,,,,,,,,,6,,,69,88
10260,note_on,,1,0,10,,,,,,,,,,,,,,,8,,,53,88
10260,note_on,,1,0,12,,,,,,,,,,,,,,,11,,,72,72
10260,note_on,,1,0,13,,,,,,,,,,,,,,,12,,,69,72
10260,note_on,,1,0,9,,,,,,,,,,,,,,,7,,,63,88
10260,note_on,,1,0,7,,,,,,,,,,,,,,,5,,,72,88
10260,note_on,,1,0,14,,,,,,,,,,,,,,,13,,,53,64
10260,note_on,,1,0,15,,,,,,,,,,,,,,,14,,,53,64
10260,note_on,,1,0,6,,,,,,,,,,,,,,,1,,,53,64
10260,note_on,,1,0,5,,,,,,,,,,,,,,,0,,,72,72
10289,note_on,,29,0,12,,,,,,,,,,,,,,,11,,,72,0
10289,note_on,,29,0,11,,,,,,,,,,,,,,,10,,,75,0
10290,note_on,,1,0,11,,,,,,,,,,,,,,,10,,,77,72
10290,note_on,,1,0,12,,,,,,,,,,,,,,,11,,,74,72
10319,note_on,,29,0,12,,,,,,,,,,,,,,,11,,,74,0
10319,note_on,,59,0,5,,,,,,,,,,,,,,,0,,,72,0
10319,note_on,,59,0,7,,,,,,,,,,,,,,,5,,,72,0
10319,note_on,,59,0,15,,,,,,,,,,,,,,,14,,,69,0
10319,note_on,,0,0,15,,,,,,,,,,,,,,,14,,,53,0
10319,note_on,,29,0,11,,,,,,,,,,,,,,,10,,,77,0
10319,note_on,,59,0,10,,,,,,,,,,,,,,,8,,,53,0
10319,note_on,,0,0,15,,,,,,,,,,,,,,,14,,,72,0
10319,note_on,,0,0,15,,,,,,,,,,,,,,,14,,,63,0
10319,note_on,,59,0,8,,,,,,,,,,,,,,,6,,,69,0
10319,note_on,,59,0,14,,,,,,,,,,,,,,,13,,,53,0
10319,note_on,,59,0,6,,,,,,,,,,,,,,,1,,,53,0
10319,note_on,,59,0,9,,,,,,,,,,,,,,,7,,,63,0
10319,note_on,,59,0,13,,,,,,,,,,,,,,,12,,,69,0
10320,note_on,,1,0,12,,,,,,,,,,,,,,,11,,,71,72
10320,note_on,,1,0,9,,,,,,,,,,,,,,,7,,,62,88
10320,note_on,,1,0,11,,,,,,,,,,,,,,,10,,,74,72
10320,note_on,,1,0,13,,,,,,,,,,,,,,,12,,,62,72
10320,note_on,,1,0,6,,,,,,,,,,,,,,,1,,,55,64
10320,note_on,,1,0,15,,,,,,,,,,,,,,,14,,,55,64
10320,note_on,,0,0,15,,,,,,,,,,,,,,,14,,,67,64
10320,note_on,,0,0,15,,,,,,,,,,,,,,,14,,,71,64
10320,note_on,,1,0,7,,,,,,,,,,,,,,,5,,,71,88
10320,note_on,,1,0,14,,,,,,,,,,,,,,,13,,,55,64
10320,note_on,,1,0,5,,,,,,,,,,,,,,,0,,,71,72
10320,note_on,,1,0,8,,,,,,,,,,,,,,,6,,,67,88
10320,note_on,,0,0,15,,,,,,,,,,,,,,,14,,,62,64
10320,note_on,,1,0,10,,,,,,,,,,,,,,,8,,,55,88
10349,note_on,,29,0,11,,,,,,,,,,,,,,,10,,,74,0
10349,note_on,,29,0,12,,,,,,,,,,,,,,,11,,,71,0
10350,note_on,,1,0,12,,,,,,,,,,,,,,,11,,,69,72
10350,note_on,,1,0,11,,,,,,,,,,,,,,,10,,,72,72
10379,note_on,,29,0,11,,,,,,,,,,,,,,,10,,,72,0
10379,note_on,,29,0,12,,,,,,,,,,,,,,,11,,,69,0
10379,note_on,,59,0,13,,,,,,,,,,,,,,,12,,,62,0
10380,note_on,,1,0,11,,,,,,,,,,,,,,,10,,,74,72
10380,note_on,,1,0,12,,,,,,,,,,,,,,,11,,,71,72
10380,note_on,,1,0,13,,,,,,,,,,,,,,,12,,,62,72
10409,note_on,,29,0,11,,,,,,,,,,,,,,,10,,,74,0
10409,note_on,,29,0,12,,,,,,,,,,,,,,,11,,,71,0
10410,note_on,,1,0,11,,,,,,,,,,,,,,,10,,,75,72
10410,note_on,,1,0,12,,,,,,,,,,,,,,,11,,,72,72
10439,note_on,,59,0,13,,,,,,,,,,,,,,,12,,,62,0
10439,note_on,,29,0,12,,,,,,,,,,,,,,,11,,,72,0
10439,note_on,,29,0,11,,,,,,,,,,,,,,,10,,,75,0
10440,note_on,,1,0,13,,,,,,,,,,,,,,,12,,,67,72
10440,note_on,,1,0,11,,,,,,,,,,,,,,,10,,,74,72
10440,note_on,,1,0,12,,,,,,,,,,,,,,,11,,,71,72
10469,note_on,,29,0,11,,,,,,,,,,,,,,,10,,,74,0
10469,note_on,,29,0,12,,,,,,,,,,,,,,,11,,,71,0
10470,note_on,,1,0,11,,,,,,,,,,,,,,,10,,,74,72
10470,note_on,,1,0,12,,,,,,,,,,,,,,,11,,,71,72
10499,note_on,,179,0,9,,,,,,,,,,,,,,,7,,,62,0
10499,note_on,,179,0,5,,,,,,,,,,,,,,,0,,,71,0
10499,note_on,,179,0,10,,,,,,,,,,,,,,,8,,,55,0
10499,note_on,,179,0,7,,,,,,,,,,,,,,,5,,,71,0
10499,note_on,,179,0,8,,,,,,,,,,,,,,,6,,,67,0
10499,note_on,,0,0,15,,,,,,,,,,,,,,,14,,,67,0
10499,note_on,,0,0,15,,,,,,,,,,,,,,,14,,,71,0
10499,note_on,,179,0,15,,,,,,,,,,,,,,,14,,,55,0
10499,note_on,,0,0,15,,,,,,,,,,,,,,,14,,,62,0
10499,note_on,,179,0,6,,,,,,,,,,,,,,,1,,,55,0
10499,note_on,,29,0,11,,,,,,,,,,,,,,,10,,,74,0
10499,note_on,,179,0,14,,,,,,,,,,,,,,,13,,,55,0
10499,note_on,,29,0,12,,,,,,,,,,,,,,,11,,,71,0
10500,note_on,,1,0,8,,,,,,,,,,,,,,,6,,,67,88
10500,note_on,,1,0,10,,,,,,,,,,,,,,,8,,,53,88
10500,note_on,,1,0,6,,,,,,,,,,,,,,,1,,,53,64
10500,note_on,,1,0,9,,,,,,,,,,,,,,,7,,,62,88
10500,note_on,,1,0,7,,,,,,,,,,,,,,,5,,,74,88
10500,note_on,,0,0,15,,,,,,,,,,,,,,,14,,,67,64
10500,note_on,,0,0,15,,,,,,,,,,,,,,,14,,,74,64
10500,note_on,,1,0,15,,,,,,,,,,,,,,,14,,,53,64
10500,note_on,,1,0,12,,,,,,,,,,,,,,,11,,,72,72
10500,note_on,,1,0,11,,,,,,,,,,,,,,,10,,,75,72
10500,note_on,,1,0,14,,,,,,,,,,,,,,,13,,,53,64
10500,note_on,,0,0,15,,,,,,,,,,,,,,,14,,,62,64
10500,note_on,,1,0,5,,,,,,,,,,,,,,,0,,,74,72
10529,note_on,,29,0,11,,,,,,,,,,,,,,,10,,,75,0
10529,note_on,,29,0,12,,,,,,,,,,,,,,,11,,,72,0
10530,note_on,,1,0,11,,,,,,,,,,,,,,,10,,,77,72
10530,note_on,,1,0,12,,,,,,,,,,,,,,,11,,,74,72
10559,note_on,,0,0,15,,,,,,,,,,,,,,,14,,,67,0
10559,note_on,,0,0,15,,,,,,,,,,,,,,,14,,,74,0
10559,note_on,,59,0,7,,,,,,,,,,,,,,,5,,,74,0
10559,note_on,,29,0,11,,,,,,,,,,,,,,,10,,,77,0
10559,note_on,,59,0,10,,,,,,,,,,,,,,,8,,,53,0
10559,note_on,,59,0,14,,,,,,,,,,,,,,,13,,,53,0
10559,note_on,,59,0,8,,,,,,,,,,,,,,,6,,,67,0
10559,note_on,,59,0,6,,,,,,,,,,,,,,,1,,,53,0
10559,note_on,,59,0,5,,,,,,,,,,,,,,,0,,,74,0
10559,note_on,,29,0,12,,,,,,,,,,,,,,,11,,,74,0
10559,note_on,,0,0,15,,,,,,,,,,,,,,,14,,,62,0
10559,note_on,,59,0,15,,,,,,,,,,,,,,,14,,,53,0
10559,note_on,,59,0,9,,,,,,,,,,,,,,,7,,,62,0
10560,note_on,,1,0,6,,,,,,,,,,,,,,,1,,,51,64
10560,note_on,,1,0,8,,,,,,,,,,,,,,,6,,,67,88
10560,note_on,,1,0,14,,,,,,,,,,,,,,,13,,,51,64
10560,note_on,,1,0,9,,,,,,,,,,,,,,,7,,,58,88
10560,note_on,,1,0,15,,,,,,,,,,,,,,,14,,,51,64
10560,note_on,,0,0,15,,,,,,,,,,,,,,,14,,,70,64
10560,note_on,,1,0,7,,,,,,,,,,,,,,,5,,,75,88
10560,note_on,,1,0,12,,,,,,,,,,,,,,,11,,,75,72
10560,note_on,,0,0,15,,,,,,,,,,,,,,,14,,,75,64
10560,note_on,,0,0,15,,,,,,,,,,,,,,,14,,,67,64
10560,note_on,,1,0,5,,,,,,,,,,,,,,,0,,,75,72
10560,note_on,,1,0,10,,,,,,,,,,,,,,,8,,,51,88
10560,note_on,,1,0,11,,,,,,,,,,,,,,,10,,,79,72
10589,note_on,,29,0,12,,,,,,,,,,,,,,,11,,,75,0
10589,note_on,,29,0,11,,,,,,,,,,,,,,,10,,,79,0
10590,note_on,,1,0,11,,,,,,,,,,,,,,,10,,,77,72
10590,note_on,,1,0,12,,,,,,,,,,,,,,,11,,,74,72
10619,note_on,,179,0,13,,,,,,,,,,,,,,,12,,,67,0
10619,note_on,,59,0,10,,,,,,,,,,,,,,,8,,,51,0
10619,note_on,,59,0,14,,,,,,,,,,,,,,,13,,,51,0
10619,note_on,,59,0,5,,,,,,,,,,,,,,,0,,,75,0
10619,note_on,,59,0,8,,,,,,,,,,,,,,,6,,,67,0
10619,note_on,,59,0,9,,,,,,,,,,,,,,,7,,,58,0
10619,note_on,,59,0,7,,,,,,,,,,,,,,,5,,,75,0
10619,note_on,,59,0,6,,,,,,,,,,,,,,,1,,,51,0
10619,note_on,,29,0,11,,,,,,,,,,,,,,,10,,,77,0
10619,note_on,,59,0,15,,,,,,,,,,,,,,,14,,,51,0
10619,note_on,,29,0,12,,,,,,,,,,,,,,,11,,,74,0
10620,note_on,,1,0,9,,,,,,,,,,,,,,,7,,,58,88
10620,note_on,,1,0,13,,,,,,,,,,,,,,,12,,,70,72
10620,note_on,,1,0,8,,,,,,,,,,,,,,,6,,,67,88
10620,note_on,,1,0,11,,,,,,,,,,,,,,,10,,,79,72
10620,note_on,,1,0,10,,,,,,,,,,,,,,,8,,,51,88
10620,note_on,,1,0,6,,,,,,,,,,,,,,,1,,,51,64
10620,note_on,,1,0,14,,,,,,,,,,,,,,,13,,,51,64
10620,note_on,,1,0,15,,,,,,,,,,,,,,,14,,,51,64
10620,note_on,,1,0,5,,,,,,,,,,,,,,,0,,,75,72
10620,note_on,,1,0,7,,,,,,,,,,,,,,,5,,,75,88
10620,note_on,,1,0,12,,,,,,,,,,,,,,,11,,,75,72
10649,note_on,,29,0,12,,,,,,,,,,,,,,,11,,,75,0
10649,note_on,,29,0,11,,,,,,,,,,,,,,,10,,,79,0
10650,note_on,,1,0,11,,,,,,,,,,,,,,,10,,,80,72
10650,note_on,,1,0,12,,,,,,,,,,,,,,,11,,,77,72
10679,note_on,,59,0,13,,,,,,,,,,,,,,,12,,,70,0
10679,note_on,,59,0,9,,,,,,,,,,,,,,,7,,,58,0
10679,note_on,,29,0,12,,,,,,,,,,,,,,,11,,,77,0
10679,note_on,,29,0,11,,,,,,,,,,,,,,,10,,,80,0
10679,note_on,,59,0,15,,,,,,,,,,,,,,,14,,,75,0
10679,note_on,,59,0,6,,,,,,,,,,,,,,,1,,,51,0
10679,note_on,,0,0,15,,,,,,,,,,,,,,,14,,,70,0
10679,note_on,,59,0,7,,,,,,,,,,,,,,,5,,,75,0
10679,note_on,,59,0,5,,,,,,,,,,,,,,,0,,,75,0
10679,note_on,,0,0,15,,,,,,,,,,,,,,,14,,,67,0
10679,note_on,,59,0,14,,,,,,,,,,,,,,,13,,,51,0
10679,note_on,,59,0,8,,,,,,,,,,,,,,,6,,,67,0
10679,note_on,,0,0,15,,,,,,,,,,,,,,,14,,,51,0
10679,note_on,,59,0,10,,,,,,,,,,,,,,,8,,,51,0
10680,note_on,,0,0,15,,,,,,,,,,,,,,,14,,,75,64
10680,note_on,,1,0,15,,,,,,,,,,,,,,,14,,,53,64
10680,note_on,,1,0,14,,,,,,,,,,,,,,,13,,,53,64
10680,note_on,,1,0,8,,,,,,,,,,,,,,,6,,,67,88
10680,note_on,,1,0,13,,,,,,,,,,,,,,,12,,,70,72
10680,note_on,,1,0,7,,,,,,,,,,,,,,,5,,,75,88
10680,note_on,,1,0,6,,,,,,,,,,,,,,,1,,,53,64
10680,note_on,,1,0,11,,,,,,,,,,,,,,,10,,,79,72
10680,note_on,,0,0,15,,,,,,,,,,,,,,,14,,,70,64
10680,note_on,,1,0,10,,,,,,,,,,,,,,,8,,,53,88
10680,note_on,,1,0,5,,,,,,,,,,,,,,,0,,,75,72
10680,note_on,,1,0,9,,,,,,,,,,,,,,,7,,,63,88
10680,note_on,,1,0,12,,,,,,,,,,,,,,,11,,,75,72
10680,note_on,,0,0,15,,,,,,,,,,,,,,,14,,,67,64
10709,note_on,,29,0,11,,,,,,,,,,,,,,,10,,,79,0
10709,note_on,,29,0,12,,,,,,,,,,,,,,,11,,,75,0
10710,note_on,,1,0,11,,,,,,,,,,,,,,,10,,,80,72
10710,note_on,,1,0,12,,,,,,,,,,,,,,,11,,,77,72
10739,note_on,,59,0,6,,,,,,,,,,,,,,,1,,,53,0
10739,note_on,,29,0,12,,,,,,,,,,,,,,,11,,,77,0
10739,note_on,,29,0,11,,,,,,,,,,,,,,,10,,,80,0
10739,note_on,,59,0,14,,,,,,,,,,,,,,,13,,,53,0
10739,note_on,,59,0,5,,,,,,,,,,,,,,,0,,,75,0
10739,note_on,,59,0,9,,,,,,,,,,,,,,,7,,,63,0
10739,note_on,,59,0,15,,,,,,,,,,,,,,,14,,,53,0
10739,note_on,,0,0,15,,,,,,,,,,,,,,,14,,,75,0
10739,note_on,,0,0,15,,,,,,,,,,,,,,,14,,,70,0
10739,note_on,,59,0,8,,,,,,,,,,,,,,,6,,,67,0
10739,note_on,,59,0,13,,,,,,,,,,,,,,,12,,,70,0
10739,note_on,,0,0,15,,,,,,,,,,,,,,,14,,,67,0
10739,note_on,,59,0,10,,,,,,,,,,,,,,,8,,,53,0
10739,note_on,,59,0,7,,,,,,,,,,,,,,,5,,,75,0
10740,note_on,,1,0,10,,,,,,,,,,,,,,,8,,,55,88
10740,note_on,,1,0,11,,,,,,,,,,,,,,,10,,,77,72
10740,note_on,,0,0,15,,,,,,,,,,,,,,,14,,,74,64
10740,note_on,,0,0,15,,,,,,,,,,,,,,,14,,,70,64
10740,note_on,,0,0,15,,,,,,,,,,,,,,,14,,,65,64
10740,note_on,,1,0,9,,,,,,,,,,,,,,,7,,,63,88
10740,note_on,,1,0,14,,,,,,,,,,,,,,,13,,,55,64
10740,note_on,,1,0,15,,,,,,,,,,,,,,,14,,,55,64
10740,note_on,,1,0,6,,,,,,,,,,,,,,,1,,,55,64
10740,note_on,,1,0,7,,,,,,,,,,,,,,,5,,,74,88
10740,note_on,,1,0,5,,,,,,,,,,,,,,,0,,,74,72
10740,note_on,,1,0,8,,,,,,,,,,,,,,,6,,,67,88
10740,note_on,,1,0,13,,,,,,,,,,,,,,,12,,,70,72
10740,note_on,,1,0,12,,,,,,,,,,,,,,,11,,,74,72
10769,note_on,,29,0,11,,,,,,,,,,,,,,,10,,,77,0
10769,note_on,,29,0,12,,,,,,,,,,,,,,,11,,,74,0
10770,note_on,,1,0,11,,,,,,,,,,,,,,,10,,,79,72
10770,note_on,,1,0,12,,,,,,,,,,,,,,,11,,,75,72
10799,note_on,,59,0,10,,,,,,,,,,,,,,,8,,,55,0
10799,note_on,,29,0,12,,,,,,,,,,,,,,,11,,,75,0
10799,note_on,,59,0,15,,,,,,,,,,,,,,,14,,,55,0
10799,note_on,,0,0,15,,,,,,,,,,,,,,,14,,,74,0
10799,note_on,,0,0,15,,,,,,,,,,,,,,,14,,,70,0
10799,note_on,,59,0,7,,,,,,,,,,,,,,,5,,,74,0
10799,note_on,,59,0,6,,,,,,,,,,,,,,,1,,,55,0
10799,note_on,,59,0,5,,,,,,,,,,,,,,,0,,,74,0
10799,note_on,,29,0,11,,,,,,,,,,,,,,,10,,,79,0
10799,note_on,,0,0,15,,,,,,,,,,,,,,,14,,,65,0
10799,note_on,,59,0,8,,,,,,,,,,,,,,,6,,,67,0
10799,note_on,,59,0,9,,,,,,,,,,,,,,,7,,,63,0
10799,note_on,,59,0,13,,,,,,,,,,,,,,,12,,,70,0
10799,note_on,,59,0,14,,,,,,,,,,,,,,,13,,,55,0
10800,note_on,,1,0,10,,,,,,,,,,,,,,,8,,,56,88
10800,note_on,,1,0,8,,,,,,,,,,,,,,,6,,,67,88
10800,note_on,,0,0,15,,,,,,,,,,,,,,,14,,,63,64
10800,note_on,,1,0,6,,,,,,,,,,,,,,,1,,,56,64
10800,note_on,,1,0,9,,,,,,,,,,,,,,,7,,,63,88
10800,note_on,,0,0,15,,,,,,,,,,,,,,,14,,,72,64
10800,note_on,,0,0,15,,,,,,,,,,,,,,,14,,,67,64
10800,note_on,,1,0,15,,,,,,,,,,,,,,,14,,,56,64
10800,note_on,,1,0,13,,,,,,,,,,,,,,,12,,,63,72
10800,note_on,,1,0,14,,,,,,,,,,,,,,,13,,,56,64
10800,note_on,,1,0,5,,,,,,,,,,,,,,,0,,,72,72
10800,note_on,,1,0,12,,,,,,,,,,,,,,,11,,,72,72
10800,note_on,,1,0,7,,,,,,,,,,,,,,,5,,,72,88
10800,note_on,,1,0,11,,,,,,,,,,,,,,,10,,,75,72
10829,note_on,,29,0,12,,,,,,,,,,,,,,,11,,,72,0
10830,note_on,,1,0,12,,,,,,,,,,,,,,,11,,,71,72
10859,note_on,,29,0,12,,,,,,,,,,,,,,,11,,,71,0
10859,note_on,,59,0,11,,,,,,,,,,,,,,,10,,,75,0
10859,note_on,,59,0,13,,,,,,,,,,,,,,,12,,,63,0
10860,note_on,,1,0,11,,,,,,,,,,,,,,,10,,,72,72
10860,note_on,,1,0,13,,,,,,,,,,,,,,,12,,,63,72
10860,note_on,,1,0,12,,,,,,,,,,,,,,,11,,,72,72
10889,note_on,,29,0,12,,,,,,,,,,,,,,,11,,,72,0
10890,note_on,,1,0,12,,,,,,,,,,,,,,,11,,,74,72
10919,note_on,,119,0,8,,,,,,,,,,,,,,,6,,,67,0
10919,note_on,,59,0,11,,,,,,,,,,,,,,,10,,,72,0
10919,note_on,,59,0,13,,,,,,,,,,,,,,,12,,,63,0
10919,note_on,,119,0,9,,,,,,,,,,,,,,,7,,,63,0
10919,note_on,,119,0,15,,,,,,,,,,,,,,,14,,,67,0
10919,note_on,,0,0,15,,,,,,,,,,,,,,,14,,,63,0
10919,note_on,,29,0,12,,,,,,,,,,,,,,,11,,,74,0
10920,note_on,,1,0,15,,,,,,,,,,,,,,,14,,,65,64
10920,note_on,,0,0,15,,,,,,,,,,,,,,,14,,,60,64
10920,note_on,,1,0,13,,,,,,,,,,,,,,,12,,,60,72
10920,note_on,,1,0,12,,,,,,,,,,,,,,,11,,,72,72
10920,note_on,,1,0,8,,,,,,,,,,,,,,,6,,,65,88
10920,note_on,,1,0,11,,,,,,,,,,,,,,,10,,,77,72
10920,note_on,,1,0,9,,,,,,,,,,,,,,,7,,,60,88
10949,note_on,,29,0,12,,,,,,,,,,,,,,,11,,,72,0
10950,note_on,,1,0,12,,,,,,,,,,,,,,,11,,,75,72
10979,note_on,,29,0,12,,,,,,,,,,,,,,,11,,,75,0
10979,note_on,,179,0,14,,,,,,,,,,,,,,,13,,,56,0
10979,note_on,,179,0,6,,,,,,,,,,,,,,,1,,,56,0
10979,note_on,,179,0,10,,,,,,,,,,,,,,,8,,,56,0
10979,note_on,,59,0,13,,,,,,,,,,,,,,,12,,,60,0
10979,note_on,,179,0,5,,,,,,,,,,,,,,,0,,,72,0
10979,note_on,,59,0,15,,,,,,,,,,,,,,,14,,,56,0
10979,note_on,,179,0,7,,,,,,,,,,,,,,,5,,,72,0
10980,note_on,,1,0,12,,,,,,,,,,,,,,,11,,,74,72
10980,note_on,,1,0,10,,,,,,,,,,,,,,,8,,,56,88
10980,note_on,,1,0,7,,,,,,,,,,,,,,,5,,,72,88
10980,note_on,,1,0,13,,,,,,,,,,,,,,,12,,,60,72
10980,note_on,,1,0,15,,,,,,,,,,,,,,,14,,,56,64
10980,note_on,,1,0,6,,,,,,,,,,,,,,,1,,,56,64
10980,note_on,,1,0,14,,,,,,,,,,,,,,,13,,,56,64
10980,note_on,,1,0,5,,,,,,,,,,,,,,,0,,,72,72
11009,note_on,,29,0,12,,,,,,,,,,,,,,,11,,,74,0
11010,note_on,,1,0,12,,,,,,,,,,,,,,,11,,,72,72
11039,note_on,,59,0,10,,,,,,,,,,,,,,,8,,,56,0
11039,note_on,,59,0,15,,,,,,,,,,,,,,,14,,,72,0
11039,note_on,,59,0,7,,,,,,,,,,,,,,,5,,,72,0
11039,note_on,,0,0,15,,,,,,,,,,,,,,,14,,,65,0
11039,note_on,,119,0,9,,,,,,,,,,,,,,,7,,,60,0
11039,note_on,,59,0,14,,,,,,,,,,,,,,,13,,,56,0
11039,note_on,,0,0,15,,,,,,,,,,,,,,,14,,,56,0
11039,note_on,,29,0,12,,,,,,,,,,,,,,,11,,,72,0
11039,note_on,,59,0,13,,,,,,,,,,,,,,,12,,,60,0
11039,note_on,,59,0,5,,,,,,,,,,,,,,,0,,,72,0
11039,note_on,,59,0,6,,,,,,,,,,,,,,,1,,,56,0
11039,note_on,,119,0,8,,,,,,,,,,,,,,,6,,,65,0
11039,note_on,,0,0,15,,,,,,,,,,,,,,,14,,,60,0
11040,note_on,,1,0,14,,,,,,,,,,,,,,,13,,,55,64
11040,note_on,,1,0,12,,,,,,,,,,,,,,,11,,,71,72
11040,note_on,,1,0,13,,,,,,,,,,,,,,,12,,,62,72
11040,note_on,,1,0,10,,,,,,,,,,,,,,,8,,,55,88
11040,note_on,,1,0,5,,,,,,,,,,,,,,,0,,,71,72
11040,note_on,,1,0,9,,,,,,,,,,,,,,,7,,,62,88
11040,note_on,,1,0,6,,,,,,,,,,,,,,,1,,,55,64
11040,note_on,,1,0,8,,,,,,,,,,,,,,,6,,,67,88
11040,note_on,,1,0,7,,,,,,,,,,,,,,,5,,,71,88
11040,note_on,,0,0,15,,,,,,,,,,,,,,,14,,,71,64
11040,note_on,,0,0,15,,,,,,,,,,,,,,,14,,,67,64
11040,note_on,,0,0,15,,,,,,,,,,,,,,,14,,,62,64
11040,note_on,,1,0,15,,,,,,,,,,,,,,,14,,,55,64
11099,note_on,,59,0,12,,,,,,,,,,,,,,,11,,,71,0
11099,note_on,,59,0,13,,,,,,,,,,,,,,,12,,,62,0
11099,note_on,,179,0,11,,,,,,,,,,,,,,,10,,,77,0
11100,note_on,,1,0,12,,,,,,,,,,,,,,,11,,,83,72
11100,note_on,,1,0,11,,,,,,,,,,,,,,,10,,,77,72
11100,note_on,,1,0,13,,,,,,,,,,,,,,,12,,,67,72
11159,note_on,,119,0,15,,,,,,,,,,,,,,,14,,,55,0
11159,note_on,,59,0,11,,,,,,,,,,,,,,,10,,,77,0
11159,note_on,,59,0,13,,,,,,,,,,,,,,,12,,,67,0
11159,note_on,,119,0,14,,,,,,,,,,,,,,,13,,,55,0
11159,note_on,,119,0,7,,,,,,,,,,,,,,,5,,,71,0
11159,note_on,,59,0,12,,,,,,,,,,,,,,,11,,,83,0
11159,note_on,,119,0,8,,,,,,,,,,,,,,,6,,,67,0
11159,note_on,,119,0,9,,,,,,,,,,,,,,,7,,,62,0
11159,note_on,,0,0,15,,,,,,,,,,,,,,,14,,,62,0
11159,note_on,,119,0,5,,,,,,,,,,,,,,,0,,,71,0
11159,note_on,,119,0,10,,,,,,,,,,,,,,,8,,,55,0
11159,note_on,,119,0,6,,,,,,,,,,,,,,,1,,,55,0
11159,note_on,,0,0,15,,,,,,,,,,,,,,,14,,,67,0
11159,note_on,,0,0,15,,,,,,,,,,,,,,,14,,,71,0
11160,note_on,,1,0,5,,,,,,,,,,,,,,,0,,,72,72
11160,note_on,,1,0,6,,,,,,,,,,,,,,,1,,,48,64
11160,note_on,,1,0,14,,,,,,,,,,,,,,,13,,,48,64
11160,note_on,,1,0,11,,,,,,,,,,,,,,,10,,,75,72
11160,note_on,,1,0,13,,,,,,,,,,,,,,,12,,,67,72
11160,note_on,,1,0,8,,,,,,,,,,,,,,,6,,,67,88
11160,note_on,,1,0,12,,,,,,,,,,,,,,,11,,,84,72
11160,note_on,,0,0,15,,,,,,,,,,,,,,,14,,,79,64
11160,note_on,,1,0,15,,,,,,,,,,,,,,,14,,,48,64
11160,note_on,,1,0,7,,,,,,,,,,,,,,,5,,,72,88
11160,note_on,,0,0,15,,,,,,,,,,,,,,,14,,,72,64
11160,note_on,,1,0,10,,,,,,,,,,,,,,,8,,,48,88
11160,note_on,,0,0,15,,,,,,,,,,,,,,,14,,,67,64
11160,note_on,,0,0,15,,,,,,,,,,,,,,,14,,,75,64
11160,note_on,,1,0,9,,,,,,,,,,,,,,,7,,,63,88
11219,note_on,,59,0,12,,,,,,,,,,,,,,,11,,,84,0
11219,note_on,,59,0,11,,,,,,,,,,,,,,,10,,,75,0
11219,note_on,,59,0,13,,,,,,,,,,,,,,,12,,,67,0
11220,note_on,,1,0,12,,,,,,,,,,,,,,,11,,,84,72
11220,note_on,,1,0,13,,,,,,,,,,,,,,,12,,,67,72
11220,note_on,,1,0,11,,,,,,,,,,,,,,,10,,,75,72
11279,note_on,,59,0,13,,,,,,,,,,,,,,,12,,,67,0
11279,note_on,,119,0,8,,,,,,,,,,,,,,,6,,,67,0
11279,note_on,,119,0,9,,,,,,,,,,,,,,,7,,,63,0
11279,note_on,,119,0,6,,,,,,,,,,,,,,,1,,,48,0
11279,note_on,,119,0,10,,,,,,,,,,,,,,,8,,,48,0
11279,note_on,,0,0,15,,,,,,,,,,,,,,,14,,,72,0
11279,note_on,,119,0,5,,,,,,,,,,,,,,,0,,,72,0
11279,note_on,,59,0,11,,,,,,,,,,,,,,,10,,,75,0
11279,note_on,,119,0,14,,,,,,,,,,,,,,,13,,,48,0
11279,note_on,,0,0,15,,,,,,,,,,,,,,,14,,,75,0
11279,note_on,,119,0,15,,,,,,,,,,,,,,,14,,,48,0
11279,note_on,,0,0,15,,,,,,,,,,,,,,,14,,,79,0
11279,note_on,,0,0,15,,,,,,,,,,,,,,,14,,,67,0
11279,note_on,,59,0,12,,,,,,,,,,,,,,,11,,,84,0
11279,note_on,,119,0,7,,,,,,,,,,,,,,,5,,,72,0
11280,note_on,,0,0,15,,,,,,,,,,,,,,,14,,,72,64
11280,note_on,,1,0,14,,,,,,,,,,,,,,,13,,,55,64
11280,note_on,,0,0,15,,,,,,,,,,,,,,,14,,,74,64
11280,note_on,,1,0,10,,,,,,,,,,,,,,,8,,,55,88
11280,note_on,,1,0,8,,,,,,,,,,,,,,,6,,,67,88
11280,note_on,,1,0,11,,,,,,,,,,,,,,,10,,,74,72
11280,note_on,,1,0,13,,,,,,,,,,,,,,,12,,,67,72
11280,note_on,,1,0,15,,,,,,,,,,,,,,,14,,,55,64
11280,note_on,,1,0,7,,,,,,,,,,,,,,,5,,,72,88
11280,note_on,,1,0,12,,,,,,,,,,,,,,,11,,,84,72
11280,note_on,,1,0,5,,,,,,,,,,,,,,,0,,,72,72
11280,note_on,,1,0,9,,,,,,,,,,,,,,,7,,,62,88
11280,note_on,,0,0,15,,,,,,,,,,,,,,,14,,,67,64
11280,note_on,,1,0,6,,,,,,,,,,,,,,,1,,,55,64
11309,note_on,,29,0,11,,,,,,,,,,,,,,,10,,,74,0
11310,note_on,,1,0,11,,,,,,,,,,,,,,,10,,,72,72
11339,note_on,,59,0,13,,,,,,,,,,,,,,,12,,,67,0
11339,note_on,,29,0,11,,,,,,,,,,,,,,,10,,,72,0
11339,note_on,,59,0,12,,,,,,,,,,,,,,,11,,,84,0
11340,note_on,,1,0,11,,,,,,,,,,,,,,,10,,,74,72
11340,note_on,,1,0,13,,,,,,,,,,,,,,,12,,,67,72
11340,note_on,,1,0,12,,,,,,,,,,,,,,,11,,,84,72
11369,note_on,,29,0,11,,,,,,,,,,,,,,,10,,,74,0
11370,note_on,,1,0,11,,,,,,,,,,,,,,,10,,,75,72
11399,note_on,,119,0,15,,,,,,,,,,,,,,,14,,,72,0
11399,note_on,,29,0,11,,,,,,,,,,,,,,,10,,,75,0
11399,note_on,,119,0,7,,,,,,,,,,,,,,,5,,,72,0
11399,note_on,,59,0,13,,,,,,,,,,,,,,,12,,,67,0
11399,note_on,,0,0,15,,,,,,,,,,,,,,,14,,,67,0
11399,note_on,,119,0,5,,,,,,,,,,,,,,,0,,,72,0
11399,note_on,,59,0,12,,,,,,,,,,,,,,,11,,,84,0
11400,note_on,,1,0,13,,,,,,,,,,,,,,,12,,,67,72
11400,note_on,,1,0,11,,,,,,,,,,,,,,,10,,,74,72
11400,note_on,,1,0,7,,,,,,,,,,,,,,,5,,,71,88
11400,note_on,,1,0,5,,,,,,,,,,,,,,,0,,,71,72
11400,note_on,,1,0,12,,,,,,,,,,,,,,,11,,,83,72
11400,note_on,,1,0,15,,,,,,,,,,,,,,,14,,,70,64
11400,note_on,,0,0,15,,,,,,,,,,,,,,,14,,,67,64
11400,note_on,,0,0,15,,,,,,,,,,,,,,,14,,,62,64
11429,note_on,,29,0,12,,,,,,,,,,,,,,,11,,,83,0
11429,note_on,,29,0,11,,,,,,,,,,,,,,,10,,,74,0
11430,note_on,,1,0,12,,,,,,,,,,,,,,,11,,,84,72
11430,note_on,,1,0,11,,,,,,,,,,,,,,,10,,,75,72
11459,note_on,,179,0,14,,,,,,,,,,,,,,,13,,,55,0
11459,note_on,,59,0,15,,,,,,,,,,,,,,,14,,,55,0
11459,note_on,,59,0,13,,,,,,,,,,,,,,,12,,,67,0
11459,note_on,,179,0,9,,,,,,,,,,,,,,,7,,,62,0
11459,note_on,,179,0,8,,,,,,,,,,,,,,,6,,,67,0
11459,note_on,,29,0,12,,,,,,,,,,,,,,,11,,,84,0
11459,note_on,,179,0,10,,,,,,,,,,,,,,,8,,,55,0
11459,note_on,,179,0,6,,,,,,,,,,,,,,,1,,,55,0
11459,note_on,,29,0,11,,,,,,,,,,,,,,,10,,,75,0
11460,note_on,,1,0,12,,,,,,,,,,,,,,,11,,,81,72
11460,note_on,,1,0,6,,,,,,,,,,,,,,,1,,,55,64
11460,note_on,,1,0,15,,,,,,,,,,,,,,,14,,,55,64
11460,note_on,,1,0,10,,,,,,,,,,,,,,,8,,,55,88
11460,note_on,,1,0,11,,,,,,,,,,,,,,,10,,,72,72
11460,note_on,,1,0,8,,,,,,,,,,,,,,,6,,,67,88
11460,note_on,,1,0,14,,,,,,,,,,,,,,,13,,,55,64
11460,note_on,,1,0,9,,,,,,,,,,,,,,,7,,,62,88
11460,note_on,,1,0,13,,,,,,,,,,,,,,,12,,,67,72
11489,note_on,,29,0,12,,,,,,,,,,,,,,,11,,,81,0
11489,note_on,,29,0,11,,,,,,,,,,,,,,,10,,,72,0
11490,note_on,,1,0,12,,,,,,,,,,,,,,,11,,,83,72
11490,note_on,,1,0,11,,,,,,,,,,,,,,,10,,,74,72
11519,note_on,,59,0,13,,,,,,,,,,,,,,,12,,,67,0
11519,note_on,,119,0,7,,,,,,,,,,,,,,,5,,,71,0
11519,note_on,,59,0,6,,,,,,,,,,,,,,,1,,,55,0
11519,note_on,,29,0,11,,,,,,,,,,,,,,,10,,,74,0
11519,note_on,,59,0,15,,,,,,,,,,,,,,,14,,,74,0
11519,note_on,,0,0,15,,,,,,,,,,,,,,,14,,,70,0
11519,note_on,,0,0,15,,,,,,,,,,,,,,,14,,,67,0
11519,note_on,,0,0,15,,,,,,,,,,,,,,,14,,,62,0
11519,note_on,,0,0,15,,,,,,,,,,,,,,,14,,,55,0
11519,note_on,,59,0,9,,,,,,,,,,,,,,,7,,,62,0
11519,note_on,,59,0,10,,,,,,,,,,,,,,,8,,,55,0
11519,note_on,,59,0,14,,,,,,,,,,,,,,,13,,,55,0
11519,note_on,,59,0,8,,,,,,,,,,,,,,,6,,,67,0
11519,note_on,,29,0,12,,,,,,,,,,,,,,,11,,,83,0
11519,note_on,,119,0,5,,,,,,,,,,,,,,,0,,,71,0
11520,note_on,,1,0,11,,,,,,,,,,,,,,,10,,,75,72
11520,note_on,,1,0,5,,,,,,,,,,,,,,,0,,,72,72
11520,note_on,,1,0,13,,,,,,,,,,,,,,,12,,,67,72
11520,note_on,,1,0,6,,,,,,,,,,,,,,,1,,,48,64
11520,note_on,,1,0,9,,,,,,,,,,,,,,,7,,,63,88
11520,note_on,,1,0,12,,,,,,,,,,,,,,,11,,,84,72
11520,note_on,,1,0,15,,,,,,,,,,,,,,,14,,,48,64
11520,note_on,,0,0,15,,,,,,,,,,,,,,,14,,,67,64
11520,note_on,,1,0,10,,,,,,,,,,,,,,,8,,,48,88
11520,note_on,,0,0,15,,,,,,,,,,,,,,,14,,,63,64
11520,note_on,,1,0,7,,,,,,,,,,,,,,,5,,,72,88
11520,note_on,,1,0,14,,,,,,,,,,,,,,,13,,,48,64
11520,note_on,,1,0,8,,,,,,,,,,,,,,,6,,,67,88
11520,note_on,,0,0,15,,,,,,,,,,,,,,,14,,,72,64
11579,note_on,,59,0,11,,,,,,,,,,,,,,,10,,,75,0
11579,note_on,,59,0,12,,,,,,,,,,,,,,,11,,,84,0
11580,note_on,,1,0,12,,,,,,,,,,,,,,,11,,,75,72
11580,note_on,,1,0,11,,,,,,,,,,,,,,,10,,,79,72
11639,note_on,,119,0,5,,,,,,,,,,,,,,,0,,,72,0
11639,note_on,,119,0,8,,,,,,,,,,,,,,,6,,,67,0
11639,note_on,,0,0,15,,,,,,,,,,,,,,,14,,,63,0
11639,note_on,,0,0,15,,,,,,,,,,,,,,,14,,,67,0
11639,note_on,,0,0,15,,,,,,,,,,,,,,,14,,,72,0
11639,note_on,,119,0,15,,,,,,,,,,,,,,,14,,,48,0
11639,note_on,,119,0,10,,,,,,,,,,,,,,,8,,,48,0
11639,note_on,,59,0,12,,,,,,,,,,,,,,,11,,,75,0
11639,note_on,,119,0,7,,,,,,,,,,,,,,,5,,,72,0
11639,note_on,,59,0,11,,,,,,,,,,,,,,,10,,,79,0
11639,note_on,,119,0,6,,,,,,,,,,,,,,,1,,,48,0
11639,note_on,,119,0,9,,,,,,,,,,,,,,,7,,,63,0
11639,note_on,,119,0,13,,,,,,,,,,,,,,,12,,,67,0
11639,note_on,,119,0,14,,,,,,,,,,,,,,,13,,,48,0
11640,note_on,,1,0,11,,,,,,,,,,,,,,,10,,,84,72
11640,note_on,,1,0,12,,,,,,,,,,,,,,,11,,,79,72
11699,note_on,,59,0,11,,,,,,,,,,,,,,,10,,,84,0
11699,note_on,,59,0,12,,,,,,,,,,,,,,,11,,,79,0
11700,note_on,,61,0,14,,,,,,,,,,,,,,,13,,,60,48
11700,note_on,,0,0,15,,,,,,,,,,,,,,,14,,,67,48
11700,note_on,,1,0,11,,,,,,,,,,,,,,,10,,,79,72
11700,note_on,,61,0,15,,,,,,,,,,,,,,,14,,,60,48
11700,note_on,,1,0,12,,,,,,,,,,,,,,,11,,,75,72
11700,note_on,,61,0,6,,,,,,,,,,,,,,,1,,,60,48
11700,note_on,,61,0,5,,,,,,,,,,,,,,,0,,,79,48
11700,note_on,,61,0,7,,,,,,,,,,,,,,,5,,,79,58
11700,note_on,,0,0,15,,,,,,,,,,,,,,,14,,,63,48
11759,note_on,,59,0,12,,,,,,,,,,,,,,,11,,,75,0
11759,note_on,,0,0,15,,,,,,,,,,,,,,,14,,,63,0
11759,note_on,,0,0,15,,,,,,,,,,,,,,,14,,,67,0
11759,note_on,,59,0,11,,,,,,,,,,,,,,,10,,,79,0
11759,note_on,,59,0,5,,,,,,,,,,,,,,,0,,,79,0
11759,note_on,,59,0,7,,,,,,,,,,,,,,,5,,,79,0
11759,note_on,,59,0,14,,,,,,,,,,,,,,,13,,,60,0
11759,note_on,,59,0,15,,,,,,,,,,,,,,,14,,,60,0
11759,note_on,,59,0,6,,,,,,,,,,,,,,,1,,,60,0
11760,note_on,,1,0,5,,,,,,,,,,,,,,,0,,,72,48
11760,note_on,,0,0,15,,,,,,,,,,,,,,,14,,,60,48
11760,note_on,,0,0,15,,,,,,,,,,,,,,,14,,,72,48
11760,note_on,,1,0,15,,,,,,,,,,,,,,,14,,,56,48
11760,note_on,,0,0,15,,,,,,,,,,,,,,,14,,,65,48
11760,note_on,,1,0,14,,,,,,,,,,,,,,,13,,,56,48
11760,note_on,,1,0,7,,,,,,,,,,,,,,,5,,,72,58
11760,note_on,,1,0,6,,,,,,,,,,,,,,,1,,,56,48
11819,note_on,,59,0,6,,,,,,,,,,,,,,,1,,,56,0
11819,note_on,,59,0,14,,,,,,,,,,,,,,,13,,,56,0
11819,note_on,,59,0,15,,,,,,,,,,,,,,,14,,,56,0
11819,note_on,,0,0,15,,,,,,,,,,,,,,,14,,,65,0
11820,note_on,,1,0,14,,,,,,,,,,,,,,,13,,,51,48
11820,note_on,,1,0,15,,,,,,,,,,,,,,,14,,,51,48
11820,note_on,,0,0,15,,,,,,,,,,,,,,,14,,,67,48
11820,note_on,,1,0,6,,,,,,,,,,,,,,,1,,,51,48
11879,note_on,,119,0,7,,,,,,,,,,,,,,,5,,,72,0
11879,note_on,,0,0,15,,,,,,,,,,,,,,,14,,,67,0
11879,note_on,,0,0,15,,,,,,,,,,,,,,,14,,,51,0
11879,note_on,,119,0,5,,,,,,,,,,,,,,,0,,,72,0
11879,note_on,,59,0,14,,,,,,,,,,,,,,,13,,,51,0
11879,note_on,,0,0,15,,,,,,,,,,,,,,,14,,,60,0
11879,note_on,,59,0,15,,,,,,,,,,,,,,,14,,,72,0
11879,note_on,,59,0,6,,,,,,,,,,,,,,,1,,,51,0
11880,note_on,,1,0,5,,,,,,,,,,,,,,,0,,,74,48
11880,note_on,,1,0,14,,,,,,,,,,,,,,,13,,,53,48
11880,note_on,,1,0,7,,,,,,,,,,,,,,,5,,,74,58
11880,note_on,,1,0,15,,,,,,,,,,,,,,,14,,,53,48
11880,note_on,,0,0,15,,,,,,,,,,,,,,,14,,,74,48
11880,note_on,,0,0,15,,,,,,,,,,,,,,,14,,,69,48
11880,note_on,,0,0,15,,,,,,,,,,,,,,,14,,,72,48
11880,note_on,,1,0,6,,,,,,,,,,,,,,,1,,,53,48
11939,note_on,,59,0,14,,,,,,,,,,,,,,,13,,,53,0
11939,note_on,,59,0,15,,,,,,,,,,,,,,,14,,,53,0
11939,note_on,,0,0,15,,,,,,,,,,,,,,,14,,,69,0
11939,note_on,,0,0,15,,,,,,,,,,,,,,,14,,,72,0
11939,note_on,,59,0,6,,,,,,,,,,,,,,,1,,,53,0
11940,note_on,,1,0,6,,,,,,,,,,,,,,,1,,,55,48
11940,note_on,,1,0,14,,,,,,,,,,,,,,,13,,,55,48
11940,note_on,,0,0,15,,,,,,,,,,,,,,,14,,,71,48
11940,note_on,,0,0,15,,,,,,,,,,,,,,,14,,,67,48
11940,note_on,,1,0,15,,,,,,,,,,,,,,,14,,,55,48
11999,note_on,,119,0,5,,,,,,,,,,,,,,,0,,,74,0
11999,note_on,,0,0,15,,,,,,,,,,,,,,,14,,,67,0
11999,note_on,,119,0,7,,,,,,,,,,,,,,,5,,,74,0
11999,note_on,,59,0,15,,,,,,,,,,,,,,,14,,,74,0
11999,note_on,,59,0,6,,,,,,,,,,,,,,,1,,,55,0
11999,note_on,,0,0,15,,,,,,,,,,,,,,,14,,,55,0
11999,note_on,,59,0,14,,,,,,,,,,,,,,,13,,,55,0
11999,note_on,,0,0,15,,,,,,,,,,,,,,,14,,,71,0
12000,note_on,,0,0,15,,,,,,,,,,,,,,,14,,,67,48
12000,note_on,,1,0,5,,,,,,,,,,,,,,,0,,,75,48
12000,note_on,,0,0,15,,,,,,,,,,,,,,,14,,,72,48
12000,note_on,,0,0,15,,,,,,,,,,,,,,,14,,,75,48
12000,note_on,,1,0,14,,,,,,,,,,,,,,,13,,,60,48
12000,note_on,,1,0,15,,,,,,,,,,,,,,,14,,,60,48
12000,note_on,,1,0,6,,,,,,,,,,,,,,,1,,,60,48
12000,note_on,,1,0,7,,,,,,,,,,,,,,,5,,,75,58
12059,note_on,,59,0,14,,,,,,,,,,,,,,,13,,,60,0
12059,note_on,,59,0,6,,,,,,,,,,,,,,,1,,,60,0
12059,note_on,,0,0,15,,,,,,,,,,,,,,,14,,,72,0
12059,note_on,,59,0,7,,,,,,,,,,,,,,,5,,,75,0
12059,note_on,,0,0,15,,,,,,,,,,,,,,,14,,,67,0
12059,note_on,,59,0,15,,,,,,,,,,,,,,,14,,,60,0
12059,note_on,,0,0,15,,,,,,,,,,,,,,,14,,,75,0
12059,note_on,,59,0,5,,,,,,,,,,,,,,,0,,,75,0
12060,note_on,,0,0,15,,,,,,,,,,,,,,,14,,,68,48
12060,note_on,,1,0,7,,,,,,,,,,,,,,,5,,,77,58
12060,note_on,,0,0,15,,,,,,,,,,,,,,,14,,,65,48
12060,note_on,,0,0,15,,,,,,,,,,,,,,,14,,,74,48
12060,note_on,,1,0,6,,,,,,,,,,,,,,,1,,,53,48
12060,note_on,,1,0,5,,,,,,,,,,,,,,,0,,,77,48
12060,note_on,,1,0,14,,,,,,,,,,,,,,,13,,,53,48
12060,note_on,,1,0,15,,,,,,,,,,,,,,,14,,,53,48
12119,note_on,,0,0,15,,,,,,,,,,,,,,,14,,,74,0
12119,note_on,,0,0,15,,,,,,,,,,,,,,,14,,,68,0
12119,note_on,,0,0,15,,,,,,,,,,,,,,,14,,,65,0
12119,note_on,,59,0,6,,,,,,,,,,,,,,,1,,,53,0
12119,note_on,,59,0,15,,,,,,,,,,,,,,,14,,,53,0
12119,note_on,,59,0,7,,,,,,,,,,,,,,,5,,,77,0
12119,note_on,,59,0,5,,,,,,,,,,,,,,,0,,,77,0
12119,note_on,,59,0,14,,,,,,,,,,,,,,,13,,,53,0
12120,note_on,,1,0,5,,,,,,,,,,,,,,,0,,,74,48
12120,note_on,,0,0,15,,,,,,,,,,,,,,,14,,,71,48
12120,note_on,,0,0,15,,,,,,,,,,,,,,,14,,,67,48
12120,note_on,,1,0,14,,,,,,,,,,,,,,,13,,,55,48
12120,note_on,,0,0,15,,,,,,,,,,,,,,,14,,,60,48
12120,note_on,,1,0,15,,,,,,,,,,,,,,,14,,,55,48
12120,note_on,,1,0,6,,,,,,,,,,,,,,,1,,,55,48
12120,note_on,,1,0,7,,,,,,,,,,,,,,,5,,,74,58
12179,note_on,,59,0,6,,,,,,,,,,,,,,,1,,,55,0
12179,note_on,,59,0,14,,,,,,,,,,,,,,,13,,,55,0
12179,note_on,,59,0,15,,,,,,,,,,,,,,,14,,,55,0
12179,note_on,,0,0,15,,,,,,,,,,,,,,,14,,,60,0
12180,note_on,,1,0,6,,,,,,,,,,,,,,,1,,,43,72
12180,note_on,,541,0,8,,,,,,,,,,,,,,,6,,,67,88
12180,note_on,,0,0,15,,,,,,,,,,,,,,,14,,,67,72
12180,note_on,,1,0,14,,,,,,,,,,,,,,,13,,,43,72
12180,note_on,,541,0,9,,,,,,,,,,,,,,,7,,,59,88
12180,note_on,,541,0,13,,,,,,,,,,,,,,,12,,,67,72
12180,note_on,,421,0,11,,,,,,,,,,,,,,,10,,,83,72
12180,note_on,,1,0,15,,,,,,,,,,,,,,,14,,,43,72
12180,note_on,,421,0,12,,,,,,,,,,,,,,,11,,,74,72
12180,note_on,,541,0,10,,,,,,,,,,,,,,,8,,,55,88
12239,note_on,,119,0,5,,,,,,,,,,,,,,,0,,,74,0
12239,note_on,,59,0,14,,,,,,,,,,,,,,,13,,,43,0
12239,note_on,,59,0,10,,,,,,,,,,,,,,,8,,,55,0
12239,note_on,,59,0,12,,,,,,,,,,,,,,,11,,,74,0
12239,note_on,,59,0,9,,,,,,,,,,,,,,,7,,,59,0
12239,note_on,,59,0,11,,,,,,,,,,,,,,,10,,,83,0
12239,note_on,,59,0,6,,,,,,,,,,,,,,,1,,,43,0
12239,note_on,,59,0,13,,,,,,,,,,,,,,,12,,,67,0
12239,note_on,,59,0,8,,,,,,,,,,,,,,,6,,,67,0
12239,note_on,,119,0,7,,,,,,,,,,,,,,,5,,,74,0
12239,note_on,,59,0,15,,,,,,,,,,,,,,,14,,,67,0
12239,note_on,,0,0,15,,,,,,,,,,,,,,,14,,,71,0
12239,note_on,,0,0,15,,,,,,,,,,,,,,,14,,,43,0
12239,note_on,,0,0,15,,,,,,,,,,,,,,,14,,,67,0
12240,note_on,,1,0,5,,,,,,,,,,,,,,,0,,,72,48
12240,note_on,,1,0,6,,,,,,,,,,,,,,,1,,,48,72
12240,note_on,,1,0,10,,,,,,,,,,,,,,,8,,,60,88
12240,note_on,,1,0,15,,,,,,,,,,,,,,,14,,,48,72
12240,note_on,,0,0,15,,,,,,,,,,,,,,,14,,,72,72
12240,note_on,,0,0,15,,,,,,,,,,,,,,,14,,,67,72
12240,note_on,,1,0,11,,,,,,,,,,,,,,,10,,,84,72
12240,note_on,,1,0,9,,,,,,,,,,,,,,,7,,,67,88
12240,note_on,,1,0,14,,,,,,,,,,,,,,,13,,,48,72
12240,note_on,,0,0,15,,,,,,,,,,,,,,,14,,,63,72
12240,note_on,,1,0,13,,,,,,,,,,,,,,,12,,,67,72
12240,note_on,,1,0,8,,,,,,,,,,,,,,,6,,,63,88
12240,note_on,,1,0,12,,,,,,,,,,,,,,,11,,,75,72
12240,note_on,,1,0,7,,,,,,,,,,,,,,,5,,,72,58
12299,note_on,,59,0,6,,,,,,,,,,,,,,,1,,,48,0
12299,note_on,,59,0,15,,,,,,,,,,,,,,,14,,,48,0
12299,note_on,,59,0,14,,,,,,,,,,,,,,,13,,,48,0
12300,note_on,,1,0,6,,,,,,,,,,,,,,,1,,,60,72
12300,note_on,,1,0,14,,,,,,,,,,,,,,,13,,,60,72
12300,note_on,,1,0,15,,,,,,,,,,,,,,,14,,,60,72
12359,note_on,,0,0,15,,,,,,,,,,,,,,,14,,,60,0
12359,note_on,,119,0,13,,,,,,,,,,,,,,,12,,,67,0
12359,note_on,,119,0,12,,,,,,,,,,,,,,,11,,,75,0
12359,note_on,,119,0,9,,,,,,,,,,,,,,,7,,,67,0
12359,note_on,,0,0,15,,,,,,,,,,,,,,,14,,,63,0
12359,note_on,,119,0,5,,,,,,,,,,,,,,,0,,,72,0
12359,note_on,,119,0,10,,,,,,,,,,,,,,,8,,,60,0
12359,note_on,,119,0,7,,,,,,,,,,,,,,,5,,,72,0
12359,note_on,,59,0,6,,,,,,,,,,,,,,,1,,,60,0
12359,note_on,,0,0,15,,,,,,,,,,,,,,,14,,,67,0
12359,note_on,,59,0,15,,,,,,,,,,,,,,,14,,,72,0
12359,note_on,,119,0,11,,,,,,,,,,,,,,,10,,,84,0
12359,note_on,,59,0,14,,,,,,,,,,,,,,,13,,,60,0
12359,note_on,,119,0,8,,,,,,,,,,,,,,,6,,,63,0
12360,note_on,,0,0,15,,,,,,,,,,,,,,,14,,,74,72
12360,note_on,,0,0,15,,,,,,,,,,,,,,,14,,,62,72
12360,note_on,,0,0,15,,,,,,,,,,,,,,,14,,,67,72
12360,note_on,,1,0,15,,,,,,,,,,,,,,,14,,,59,72
12360,note_on,,1,0,8,,,,,,,,,,,,,,,6,,,67,88
12360,note_on,,1,0,6,,,,,,,,,,,,,,,1,,,59,72
12360,note_on,,1,0,14,,,,,,,,,,,,,,,13,,,59,72
12360,note_on,,1,0,10,,,,,,,,,,,,,,,8,,,59,88
12360,note_on,,1,0,9,,,,,,,,,,,,,,,7,,,62,88
12360,note_on,,1,0,12,,,,,,,,,,,,,,,11,,,74,72
12360,note_on,,1,0,11,,,,,,,,,,,,,,,10,,,79,72
12360,note_on,,1,0,13,,,,,,,,,,,,,,,12,,,67,72
12419,note_on,,59,0,14,,,,,,,,,,,,,,,13,,,59,0
12419,note_on,,0,0,15,,,,,,,,,,,,,,,14,,,74,0
12419,note_on,,59,0,15,,,,,,,,,,,,,,,14,,,59,0
12419,note_on,,59,0,6,,,,,,,,,,,,,,,1,,,59,0
12420,note_on,,0,0,15,,,,,,,,,,,,,,,14,,,71,72
12420,note_on,,1,0,15,,,,,,,,,,,,,,,14,,,55,72
12420,note_on,,1,0,14,,,,,,,,,,,,,,,13,,,55,72
12420,note_on,,1,0,6,,,,,,,,,,,,,,,1,,,55,72
12479,note_on,,59,0,6,,,,,,,,,,,,,,,1,,,55,0
12479,note_on,,119,0,12,,,,,,,,,,,,,,,11,,,74,0
12479,note_on,,119,0,8,,,,,,,,,,,,,,,6,,,67,0
12479,note_on,,59,0,14,,,,,,,,,,,,,,,13,,,55,0
12479,note_on,,119,0,13,,,,,,,,,,,,,,,12,,,67,0
12479,note_on,,0,0,15,,,,,,,,,,,,,,,14,,,71,0
12479,note_on,,0,0,15,,,,,,,,,,,,,,,14,,,55,0
12479,note_on,,0,0,15,,,,,,,,,,,,,,,14,,,62,0
12479,note_on,,59,0,15,,,,,,,,,,,,,,,14,,,67,0
12479,note_on,,119,0,9,,,,,,,,,,,,,,,7,,,62,0
12479,note_on,,119,0,11,,,,,,,,,,,,,,,10,,,79,0
12479,note_on,,119,0,10,,,,,,,,,,,,,,,8,,,59,0
12480,note_on,,1,0,12,,,,,,,,,,,,,,,11,,,72,72
12480,note_on,,1,0,13,,,,,,,,,,,,,,,12,,,67,72
12480,note_on,,1,0,9,,,,,,,,,,,,,,,7,,,63,88
12480,note_on,,1,0,8,,,,,,,,,,,,,,,6,,,67,88
12480,note_on,,1,0,11,,,,,,,,,,,,,,,10,,,75,72
12480,note_on,,1,0,6,,,,,,,,,,,,,,,1,,,60,72
12480,note_on,,1,0,10,,,,,,,,,,,,,,,8,,,60,88
12480,note_on,,1,0,15,,,,,,,,,,,,,,,14,,,60,72
12480,note_on,,0,0,15,,,,,,,,,,,,,,,14,,,67,72
12480,note_on,,0,0,15,,,,,,,,,,,,,,,14,,,63,72
12480,note_on,,1,0,14,,,,,,,,,,,,,,,13,,,60,72
12539,note_on,,59,0,14,,,,,,,,,,,,,,,13,,,60,0
12539,note_on,,59,0,9,,,,,,,,,,,,,,,7,,,63,0
12539,note_on,,59,0,15,,,,,,,,,,,,,,,14,,,60,0
12539,note_on,,59,0,8,,,,,,,,,,,,,,,6,,,67,0
12539,note_on,,59,0,13,,,,,,,,,,,,,,,12,,,67,0
12539,note_on,,0,0,15,,,,,,,,,,,,,,,14,,,63,0
12539,note_on,,0,0,15,,,,,,,,,,,,,,,14,,,67,0
12539,note_on,,59,0,11,,,,,,,,,,,,,,,10,,,75,0
12539,note_on,,59,0,6,,,,,,,,,,,,,,,1,,,60,0
12539,note_on,,59,0,10,,,,,,,,,,,,,,,8,,,60,0
12539,note_on,,59,0,12,,,,,,,,,,,,,,,11,,,72,0
12540,note_on,,1,0,12,,,,,,,,,,,,,,,11,,,72,72
12540,note_on,,1,0,8,,,,,,,,,,,,,,,6,,,68,88
12540,note_on,,0,0,15,,,,,,,,,,,,,,,14,,,65,72
12540,note_on,,1,0,6,,,,,,,,,,,,,,,1,,,53,72
12540,note_on,,1,0,9,,,,,,,,,,,,,,,7,,,65,88
12540,note_on,,1,0,11,,,,,,,,,,,,,,,10,,,77,72
12540,note_on,,0,0,15,,,,,,,,,,,,,,,14,,,68,72
12540,note_on,,0,0,15,,,,,,,,,,,,,,,14,,,72,72
12540,note_on,,1,0,10,,,,,,,,,,,,,,,8,,,53,88
12540,note_on,,1,0,14,,,,,,,,,,,,,,,13,,,53,72
12540,note_on,,1,0,13,,,,,,,,,,,,,,,12,,,68,72
12540,note_on,,1,0,15,,,,,,,,,,,,,,,14,,,53,72
12599,note_on,,59,0,6,,,,,,,,,,,,,,,1,,,53,0
12599,note_on,,59,0,13,,,,,,,,,,,,,,,12,,,68,0
12599,note_on,,59,0,9,,,,,,,,,,,,,,,7,,,65,0
12599,note_on,,59,0,10,,,,,,,,,,,,,,,8,,,53,0
12599,note_on,,59,0,14,,,,,,,,,,,,,,,13,,,53,0
12599,note_on,,59,0,12,,,,,,,,,,,,,,,11,,,72,0
12599,note_on,,59,0,11,,,,,,,,,,,,,,,10,,,77,0
12599,note_on,,59,0,8,,,,,,,,,,,,,,,6,,,68,0
12599,note_on,,59,0,15,,,,,,,,,,,,,,,14,,,53,0
12599,note_on,,0,0,15,,,,,,,,,,,,,,,14,,,65,0
12599,note_on,,0,0,15,,,,,,,,,,,,,,,14,,,68,0
12599,note_on,,0,0,15,,,,,,,,,,,,,,,14,,,72,0
12600,note_on,,0,0,15,,,,,,,,,,,,,,,14,,,62,72
12600,note_on,,0,0,15,,,,,,,,,,,,,,,14,,,71,72
12600,note_on,,0,0,15,,,,,,,,,,,,,,,14,,,67,72
12600,note_on,,1,0,13,,,,,,,,,,,,,,,12,,,67,72
12600,note_on,,1,0,12,,,,,,,,,,,,,,,11,,,71,72
12600,note_on,,1,0,9,,,,,,,,,,,,,,,7,,,62,88
12600,note_on,,1,0,15,,,,,,,,,,,,,,,14,,,55,72
12600,note_on,,1,0,8,,,,,,,,,,,,,,,6,,,59,88
12600,note_on,,1,0,6,,,,,,,,,,,,,,,1,,,55,72
12600,note_on,,1,0,10,,,,,,,,,,,,,,,8,,,55,88
12600,note_on,,1,0,14,,,,,,,,,,,,,,,13,,,55,72
12600,note_on,,1,0,11,,,,,,,,,,,,,,,10,,,74,72
12659,note_on,,0,0,15,,,,,,,,,,,,,,,14,,,67,0
12659,note_on,,59,0,15,,,,,,,,,,,,,,,14,,,55,0
12659,note_on,,59,0,14,,,,,,,,,,,,,,,13,,,55,0
12659,note_on,,59,0,13,,,,,,,,,,,,,,,12,,,67,0
12659,note_on,,59,0,6,,,,,,,,,,,,,,,1,,,55,0
12660,note_on,,1,0,14,,,,,,,,,,,,,,,13,,,43,72
12660,note_on,,0,0,15,,,,,,,,,,,,,,,14,,,65,72
12660,note_on,,1,0,15,,,,,,,,,,,,,,,14,,,43,72
12660,note_on,,1,0,13,,,,,,,,,,,,,,,12,,,65,72
12660,note_on,,1,0,6,,,,,,,,,,,,,,,1,,,43,72
12719,note_on,,119,0,12,,,,,,,,,,,,,,,11,,,71,0
12719,note_on,,59,0,15,,,,,,,,,,,,,,,14,,,71,0
12719,note_on,,0,0,15,,,,,,,,,,,,,,,14,,,62,0
12719,note_on,,59,0,13,,,,,,,,,,,,,,,12,,,65,0
12719,note_on,,0,0,15,,,,,,,,,,,,,,,14,,,43,0
12719,note_on,,119,0,9,,,,,,,,,,,,,,,7,,,62,0
12719,note_on,,119,0,10,,,,,,,,,,,,,,,8,,,55,0
12719,note_on,,59,0,14,,,,,,,,,,,,,,,13,,,43,0
12719,note_on,,119,0,8,,,,,,,,,,,,,,,6,,,59,0
12719,note_on,,0,0,15,,,,,,,,,,,,,,,14,,,65,0
12719,note_on,,119,0,11,,,,,,,,,,,,,,,10,,,74,0
12719,note_on,,59,0,6,,,,,,,,,,,,,,,1,,,43,0
12720,note_on,,1,0,10,,,,,,,,,,,,,,,8,,,48,88
12720,note_on,,0,0,15,,,,,,,,,,,,,,,14,,,67,72
12720,note_on,,0,0,15,,,,,,,,,,,,,,,14,,,63,72
12720,note_on,,1,0,11,,,,,,,,,,,,,,,10,,,72,72
12720,note_on,,1,0,14,,,,,,,,,,,,,,,13,,,48,72
12720,note_on,,0,0,15,,,,,,,,,,,,,,,14,,,72,72
12720,note_on,,1,0,6,,,,,,,,,,,,,,,1,,,48,72
12720,note_on,,1,0,9,,,,,,,,,,,,,,,7,,,60,88
12720,note_on,,1,0,13,,,,,,,,,,,,,,,12,,,63,72
12720,note_on,,1,0,15,,,,,,,,,,,,,,,14,,,48,72
12720,note_on,,1,0,8,,,,,,,,,,,,,,,6,,,60,88
12720,note_on,,1,0,12,,,,,,,,,,,,,,,11,,,72,72
12779,note_on,,59,0,10,,,,,,,,,,,,,,,8,,,48,0
12779,note_on,,59,0,15,,,,,,,,,,,,,,,14,,,48,0
12779,note_on,,59,0,6,,,,,,,,,,,,,,,1,,,48,0
12779,note_on,,59,0,14,,,,,,,,,,,,,,,13,,,48,0
12780,note_on,,1,0,15,,,,,,,,,,,,,,,14,,,46,72
12780,note_on,,1,0,10,,,,,,,,,,,,,,,8,,,60,88
12780,note_on,,1,0,6,,,,,,,,,,,,,,,1,,,46,72
12780,note_on,,1,0,14,,,,,,,,,,,,,,,13,,,46,72
12839,note_on,,119,0,12,,,,,,,,,,,,,,,11,,,72,0
12839,note_on,,0,0,15,,,,,,,,,,,,,,,14,,,67,0
12839,note_on,,59,0,15,,,,,,,,,,,,,,,14,,,72,0
12839,note_on,,0,0,15,,,,,,,,,,,,,,,14,,,46,0
12839,note_on,,59,0,10,,,,,,,,,,,,,,,8,,,60,0
12839,note_on,,0,0,15,,,,,,,,,,,,,,,14,,,63,0
12839,note_on,,59,0,6,,,,,,,,,,,,,,,1,,,46,0
12839,note_on,,119,0,11,,,,,,,,,,,,,,,10,,,72,0
12839,note_on,,119,0,9,,,,,,,,,,,,,,,7,,,60,0
12839,note_on,,59,0,14,,,,,,,,,,,,,,,13,,,46,0
12839,note_on,,119,0,13,,,,,,,,,,,,,,,12,,,63,0
12839,note_on,,119,0,8,,,,,,,,,,,,,,,6,,,60,0
12840,note_on,,0,0,15,,,,,,,,,,,,,,,14,,,60,72
12840,note_on,,1,0,6,,,,,,,,,,,,,,,1,,,45,72
12840,note_on,,0,0,15,,,,,,,,,,,,,,,14,,,65,72
12840,note_on,,0,0,15,,,,,,,,,,,,,,,14,,,53,72
12840,note_on,,1,0,14,,,,,,,,,,,,,,,13,,,45,72
12840,note_on,,1,0,10,,,,,,,,,,,,,,,8,,,60,88
12840,note_on,,1,0,15,,,,,,,,,,,,,,,14,,,45,72
12899,note_on,,59,0,15,,,,,,,,,,,,,,,14,,,45,0
12899,note_on,,0,0,15,,,,,,,,,,,,,,,14,,,53,0
12899,note_on,,59,0,10,,,,,,,,,,,,,,,8,,,60,0
12899,note_on,,59,0,6,,,,,,,,,,,,,,,1,,,45,0
12899,note_on,,59,0,14,,,,,,,,,,,,,,,13,,,45,0
12900,note_on,,1,0,10,,,,,,,,,,,,,,,8,,,60,88
12900,note_on,,1,0,14,,,,,,,,,,,,,,,13,,,41,72
12900,note_on,,1,0,6,,,,,,,,,,,,,,,1,,,41,72
12900,note_on,,1,0,15,,,,,,,,,,,,,,,14,,,41,72
12900,note_on,,0,0,15,,,,,,,,,,,,,,,14,,,57,72
12959,note_on,,59,0,10,,,,,,,,,,,,,,,8,,,60,0
12959,note_on,,59,0,14,,,,,,,,,,,,,,,13,,,41,0
12959,note_on,,59,0,6,,,,,,,,,,,,,,,1,,,41,0
12959,note_on,,59,0,15,,,,,,,,,,,,,,,14,,,65,0
12959,note_on,,0,0,15,,,,,,,,,,,,,,,14,,,60,0
12959,note_on,,0,0,15,,,,,,,,,,,,,,,14,,,41,0
12959,note_on,,0,0,15,,,,,,,,,,,,,,,14,,,57,0
12960,note_on,,1,0,6,,,,,,,,,,,,,,,1,,,43,72
12960,note_on,,1,0,15,,,,,,,,,,,,,,,14,,,43,72
12960,note_on,,0,0,15,,,,,,,,,,,,,,,14,,,65,72
12960,note_on,,1,0,10,,,,,,,,,,,,,,,8,,,58,88
12960,note_on,,0,0,15,,,,,,,,,,,,,,,14,,,62,72
12960,note_on,,1,0,14,,,,,,,,,,,,,,,13,,,43,72
12960,note_on,,0,0,15,,,,,,,,,,,,,,,14,,,70,72
12989,note_on,,29,0,10,,,,,,,,,,,,,,,8,,,58,0
12990,note_on,,1,0,10,,,,,,,,,,,,,,,8,,,60,88
13019,note_on,,59,0,15,,,,,,,,,,,,,,,14,,,43,0
13019,note_on,,59,0,6,,,,,,,,,,,,,,,1,,,43,0
13019,note_on,,59,0,14,,,,,,,,,,,,,,,13,,,43,0
13019,note_on,,29,0,10,,,,,,,,,,,,,,,8,,,60,0
13020,note_on,,1,0,14,,,,,,,,,,,,,,,13,,,41,72
13020,note_on,,1,0,15,,,,,,,,,,,,,,,14,,,41,72
13020,note_on,,1,0,6,,,,,,,,,,,,,,,1,,,41,72
13020,note_on,,1,0,10,,,,,,,,,,,,,,,8,,,58,88
13049,note_on,,29,0,10,,,,,,,,,,,,,,,8,,,58,0
13050,note_on,,1,0,10,,,,,,,,,,,,,,,8,,,57,88
13079,note_on,,0,0,15,,,,,,,,,,,,,,,14,,,41,0
13079,note_on,,59,0,15,,,,,,,,,,,,,,,14,,,65,0
13079,note_on,,0,0,15,,,,,,,,,,,,,,,14,,,62,0
13079,note_on,,29,0,10,,,,,,,,,,,,,,,8,,,57,0
13079,note_on,,59,0,6,,,,,,,,,,,,,,,1,,,41,0
13079,note_on,,59,0,14,,,,,,,,,,,,,,,13,,,41,0
13080,note_on,,0,0,15,,,,,,,,,,,,,,,14,,,64,72
13080,note_on,,1,0,15,,,,,,,,,,,,,,,14,,,43,72
13080,note_on,,1,0,10,,,,,,,,,,,,,,,8,,,58,88
13080,note_on,,1,0,6,,,,,,,,,,,,,,,1,,,43,72
13080,note_on,,0,0,15,,,,,,,,,,,,,,,14,,,58,72
13080,note_on,,1,0,14,,,,,,,,,,,,,,,13,,,43,72
13109,note_on,,29,0,10,,,,,,,,,,,,,,,8,,,58,0
13110,note_on,,1,0,10,,,,,,,,,,,,,,,8,,,55,88
13139,note_on,,29,0,10,,,,,,,,,,,,,,,8,,,55,0
13139,note_on,,59,0,14,,,,,,,,,,,,,,,13,,,43,0
13139,note_on,,59,0,6,,,,,,,,,,,,,,,1,,,43,0
13139,note_on,,59,0,15,,,,,,,,,,,,,,,14,,,43,0
13140,note_on,,1,0,6,,,,,,,,,,,,,,,1,,,48,72
13140,note_on,,1,0,14,,,,,,,,,,,,,,,13,,,48,72
13140,note_on,,1,0,10,,,,,,,,,,,,,,,8,,,53,88
13140,note_on,,1,0,15,,,,,,,,,,,,,,,14,,,48,72
13169,note_on,,29,0,10,,,,,,,,,,,,,,,8,,,53,0
13170,note_on,,1,0,10,,,,,,,,,,,,,,,8,,,55,88
13199,note_on,,29,0,10,,,,,,,,,,,,,,,8,,,55,0
13199,note_on,,59,0,6,,,,,,,,,,,,,,,1,,,48,0
13199,note_on,,59,0,14,,,,,,,,,,,,,,,13,,,48,0
13199,note_on,,0,0,15,,,,,,,,,,,,,,,14,,,58,0
13199,note_on,,0,0,15,,,,,,,,,,,,,,,14,,,64,0
13199,note_on,,59,0,15,,,,,,,,,,,,,,,14,,,70,0
13199,note_on,,0,0,15,,,,,,,,,,,,,,,14,,,48,0
13200,note_on,,1,0,10,,,,,,,,,,,,,,,8,,,57,88
13200,note_on,,1,0,14,,,,,,,,,,,,,,,13,,,53,72
13200,note_on,,1,0,15,,,,,,,,,,,,,,,14,,,53,72
13200,note_on,,0,0,15,,,,,,,,,,,,,,,14,,,69,72
13200,note_on,,0,0,15,,,,,,,,,,,,,,,14,,,65,72
13200,note_on,,0,0,15,,,,,,,,,,,,,,,14,,,60,72
13200,note_on,,1,0,6,,,,,,,,,,,,,,,1,,,53,72
13229,note_on,,29,0,10,,,,,,,,,,,,,,,8,,,57,0
13230,note_on,,1,0,10,,,,,,,,,,,,,,,8,,,58,88
13259,note_on,,29,0,10,,,,,,,,,,,,,,,8,,,58,0
13260,note_on,,1,0,10,,,,,,,,,,,,,,,8,,,57,88
13289,note_on,,29,0,10,,,,,,,,,,,,,,,8,,,57,0
13290,note_on,,1,0,10,,,,,,,,,,,,,,,8,,,55,88
13319,note_on,,119,0,14,,,,,,,,,,,,,,,13,,,53,0
13319,note_on,,0,0,15,,,,,,,,,,,,,,,14,,,60,0
13319,note_on,,119,0,6,,,,,,,,,,,,,,,1,,,53,0
13319,note_on,,119,0,15,,,,,,,,,,,,,,,14,,,53,0
13319,note_on,,0,0,15,,,,,,,,,,,,,,,14,,,65,0
13319,note_on,,29,0,10,,,,,,,,,,,,,,,8,,,55,0
13319,note_on,,0,0,15,,,,,,,,,,,,,,,14,,,69,0
13320,note_on,,1,0,10,,,,,,,,,,,,,,,8,,,57,88
13349,note_on,,29,0,10,,,,,,,,,,,,,,,8,,,57,0
13350,note_on,,1,0,10,,,,,,,,,,,,,,,8,,,53,88
13379,note_on,,29,0,10,,,,,,,,,,,,,,,8,,,53,0
13380,note_on,,61,0,15,,,,,,,,,,,,,,,14,,,50,72
13380,note_on,,0,0,15,,,,,,,,,,,,,,,14,,,65,72
13380,note_on,,61,0,14,,,,,,,,,,,,,,,13,,,50,72
13380,note_on,,0,0,15,,,,,,,,,,,,,,,14,,,62,72
13380,note_on,,1,0,10,,,,,,,,,,,,,,,8,,,52,88
13380,note_on,,61,0,6,,,,,,,,,,,,,,,1,,,50,72
13409,note_on,,29,0,10,,,,,,,,,,,,,,,8,,,52,0
13410,note_on,,1,0,10,,,,,,,,,,,,,,,8,,,53,88
13439,note_on,,59,0,6,,,,,,,,,,,,,,,1,,,50,0
13439,note_on,,29,0,10,,,,,,,,,,,,,,,8,,,53,0
13439,note_on,,59,0,15,,,,,,,,,,,,,,,14,,,50,0
13439,note_on,,0,0,15,,,,,,,,,,,,,,,14,,,65,0
13439,note_on,,0,0,15,,,,,,,,,,,,,,,14,,,62,0
13439,note_on,,59,0,14,,,,,,,,,,,,,,,13,,,50,0
13440,note_on,,1,0,14,,,,,,,,,,,,,,,13,,,46,72
13440,note_on,,1,0,6,,,,,,,,,,,,,,,1,,,46,72
13440,note_on,,1,0,10,,,,,,,,,,,,,,,8,,,55,88
13440,note_on,,1,0,15,,,,,,,,,,,,,,,14,,,46,72
13440,note_on,,0,0,15,,,,,,,,,,,,,,,14,,,67,72
13440,note_on,,0,0,15,,,,,,,,,,,,,,,14,,,65,72
13440,note_on,,0,0,15,,,,,,,,,,,,,,,14,,,70,72
13469,note_on,,29,0,10,,,,,,,,,,,,,,,8,,,55,0
13470,note_on,,1,0,10,,,,,,,,,,,,,,,8,,,57,88
13499,note_on,,29,0,10,,,,,,,,,,,,,,,8,,,57,0
13500,note_on,,1,0,10,,,,,,,,,,,,,,,8,,,55,88
13529,note_on,,29,0,10,,,,,,,,,,,,,,,8,,,55,0
13530,note_on,,1,0,10,,,,,,,,,,,,,,,8,,,53,88
13559,note_on,,0,0,15,,,,,,,,,,,,,,,14,,,67,0
13559,note_on,,119,0,14,,,,,,,,,,,,,,,13,,,46,0
13559,note_on,,29,0,10,,,,,,,,,,,,,,,8,,,53,0
13559,note_on,,119,0,15,,,,,,,,,,,,,,,14,,,46,0
13559,note_on,,0,0,15,,,,,,,,,,,,,,,14,,,65,0
13559,note_on,,119,0,6,,,,,,,,,,,,,,,1,,,46,0
13559,note_on,,0,0,15,,,,,,,,,,,,,,,14,,,70,0
13560,note_on,,1,0,10,,,,,,,,,,,,,,,8,,,55,88
13589,note_on,,29,0,10,,,,,,,,,,,,,,,8,,,55,0
13590,note_on,,1,0,10,,,,,,,,,,,,,,,8,,,52,88
13619,note_on,,29,0,10,,,,,,,,,,,,,,,8,,,52,0
13620,note_on,,0,0,15,,,,,,,,,,,,,,,14,,,67,72
13620,note_on,,0,0,15,,,,,,,,,,,,,,,14,,,64,72
13620,note_on,,1,0,10,,,,,,,,,,,,,,,8,,,50,88
13620,note_on,,781,0,9,,,,,,,,,,,,,,,7,,,55,88
13620,note_on,,781,0,8,,,,,,,,,,,,,,,6,,,60,88
13620,note_on,,781,0,13,,,,,,,,,,,,,,,12,,,64,72
13620,note_on,,781,0,11,,,,,,,,,,,,,,,10,,,84,72
13620,note_on,,61,0,6,,,,,,,,,,,,,,,1,,,48,72
13620,note_on,,61,0,14,,,,,,,,,,,,,,,13,,,48,72
13620,note_on,,781,0,12,,,,,,,,,,,,,,,11,,,67,72
13620,note_on,,0,0,15,,,,,,,,,,,,,,,14,,,60,72
13620,note_on,,61,0,15,,,,,,,,,,,,,,,14,,,48,72
13649,note_on,,29,0,10,,,,,,,,,,,,,,,8,,,50,0
13650,note_on,,1,0,10,,,,,,,,,,,,,,,8,,,52,88
13679,note_on,,59,0,11,,,,,,,,,,,,,,,10,,,84,0
13679,note_on,,0,0,15,,,,,,,,,,,,,,,14,,,67,0
13679,note_on,,0,0,15,,,,,,,,,,,,,,,14,,,64,0
13679,note_on,,0,0,15,,,,,,,,,,,,,,,14,,,60,0
13679,note_on,,59,0,8,,,,,,,,,,,,,,,6,,,60,0
13679,note_on,,29,0,10,,,,,,,,,,,,,,,8,,,52,0
13679,note_on,,59,0,15,,,,,,,,,,,,,,,14,,,48,0
13679,note_on,,59,0,6,,,,,,,,,,,,,,,1,,,48,0
13679,note_on,,59,0,14,,,,,,,,,,,,,,,13,,,48,0
13679,note_on,,59,0,13,,,,,,,,,,,,,,,12,,,64,0
13679,note_on,,59,0,12,,,,,,,,,,,,,,,11,,,67,0
13679,note_on,,59,0,9,,,,,,,,,,,,,,,7,,,55,0
13680,note_on,,0,0,15,,,,,,,,,,,,,,,14,,,65,72
13680,note_on,,1,0,13,,,,,,,,,,,,,,,12,,,62,72
13680,note_on,,1,0,14,,,,,,,,,,,,,,,13,,,50,72
13680,note_on,,1,0,12,,,,,,,,,,,,,,,11,,,70,72
13680,note_on,,0,0,15,,,,,,,,,,,,,,,14,,,58,72
13680,note_on,,1,0,15,,,,,,,,,,,,,,,14,,,50,72
13680,note_on,,1,0,10,,,,,,,,,,,,,,,8,,,53,88
13680,note_on,,1,0,9,,,,,,,,,,,,,,,7,,,58,88
13680,note_on,,1,0,6,,,,,,,,,,,,,,,1,,,50,72
13680,note_on,,1,0,8,,,,,,,,,,,,,,,6,,,65,88
13680,note_on,,1,0,11,,,,,,,,,,,,,,,10,,,77,72
13739,note_on,,59,0,13,,,,,,,,,,,,,,,12,,,62,0
13739,note_on,,59,0,15,,,,,,,,,,,,,,,14,,,50,0
13739,note_on,,59,0,9,,,,,,,,,,,,,,,7,,,58,0
13739,note_on,,0,0,15,,,,,,,,,,,,,,,14,,,58,0
13739,note_on,,59,0,10,,,,,,,,,,,,,,,8,,,53,0
13739,note_on,,59,0,12,,,,,,,,,,,,,,,11,,,70,0
13739,note_on,,59,0,6,,,,,,,,,,,,,,,1,,,50,0
13739,note_on,,59,0,14,,,,,,,,,,,,,,,13,,,50,0
13740,note_on,,1,0,14,,,,,,,,,,,,,,,13,,,57,72
13740,note_on,,1,0,13,,,,,,,,,,,,,,,12,,,60,72
13740,note_on,,1,0,10,,,,,,,,,,,,,,,8,,,57,88
13740,note_on,,1,0,9,,,,,,,,,,,,,,,7,,,60,88
13740,note_on,,0,0,15,,,,,,,,,,,,,,,14,,,60,72
13740,note_on,,1,0,15,,,,,,,,,,,,,,,14,,,57,72
13740,note_on,,1,0,6,,,,,,,,,,,,,,,1,,,57,72
13740,note_on,,1,0,12,,,,,,,,,,,,,,,11,,,72,72
13799,note_on,,0,0,15,,,,,,,,,,,,,,,14,,,57,0
13799,note_on,,59,0,15,,,,,,,,,,,,,,,14,,,65,0
13799,note_on,,59,0,14,,,,,,,,,,,,,,,13,,,57,0
13799,note_on,,119,0,11,,,,,,,,,,,,,,,10,,,77,0
13799,note_on,,119,0,8,,,,,,,,,,,,,,,6,,,65,0
13799,note_on,,59,0,6,,,,,,,,,,,,,,,1,,,57,0
13799,note_on,,59,0,10,,,,,,,,,,,,,,,8,,,57,0
13799,note_on,,59,0,12,,,,,,,,,,,,,,,11,,,72,0
13799,note_on,,59,0,13,,,,,,,,,,,,,,,12,,,60,0
13799,note_on,,0,0,15,,,,,,,,,,,,,,,14,,,60,0
13799,note_on,,59,0,9,,,,,,,,,,,,,,,7,,,60,0
13800,note_on,,1,0,13,,,,,,,,,,,,,,,12,,,70,72
13800,note_on,,0,0,15,,,,,,,,,,,,,,,14,,,62,72
13800,note_on,,0,0,15,,,,,,,,,,,,,,,14,,,67,72
13800,note_on,,1,0,11,,,,,,,,,,,,,,,10,,,79,72
13800,note_on,,1,0,15,,,,,,,,,,,,,,,14,,,58,72
13800,note_on,,1,0,14,,,,,,,,,,,,,,,13,,,58,72
13800,note_on,,1,0,10,,,,,,,,,,,,,,,8,,,58,88
13800,note_on,,1,0,6,,,,,,,,,,,,,,,1,,,58,72
13800,note_on,,1,0,8,,,,,,,,,,,,,,,6,,,67,88
13800,note_on,,1,0,9,,,,,,,,,,,,,,,7,,,62,88
13800,note_on,,1,0,12,,,,,,,,,,,,,,,11,,,62,72
13859,note_on,,59,0,14,,,,,,,,,,,,,,,13,,,58,0
13859,note_on,,0,0,15,,,,,,,,,,,,,,,14,,,62,0
13859,note_on,,59,0,10,,,,,,,,,,,,,,,8,,,58,0
13859,note_on,,59,0,6,,,,,,,,,,,,,,,1,,,58,0
13859,note_on,,59,0,15,,,,,,,,,,,,,,,14,,,58,0
13859,note_on,,59,0,9,,,,,,,,,,,,,,,7,,,62,0
13859,note_on,,59,0,12,,,,,,,,,,,,,,,11,,,62,0
13860,note_on,,1,0,14,,,,,,,,,,,,,,,13,,,60,72
13860,note_on,,1,0,6,,,,,,,,,,,,,,,1,,,60,72
13860,note_on,,1,0,9,,,,,,,,,,,,,,,7,,,64,88
13860,note_on,,1,0,12,,,,,,,,,,,,,,,11,,,64,72
13860,note_on,,1,0,10,,,,,,,,,,,,,,,8,,,60,88
13860,note_on,,1,0,15,,,,,,,,,,,,,,,14,,,60,72
13860,note_on,,0,0,15,,,,,,,,,,,,,,,14,,,63,72
13919,note_on,,59,0,15,,,,,,,,,,,,,,,14,,,67,0
13919,note_on,,119,0,11,,,,,,,,,,,,,,,10,,,79,0
13919,note_on,,119,0,8,,,,,,,,,,,,,,,6,,,67,0
13919,note_on,,59,0,14,,,,,,,,,,,,,,,13,,,60,0
13919,note_on,,59,0,10,,,,,,,,,,,,,,,8,,,60,0
13919,note_on,,59,0,12,,,,,,,,,,,,,,,11,,,64,0
13919,note_on,,59,0,6,,,,,,,,,,,,,,,1,,,60,0
13919,note_on,,59,0,9,,,,,,,,,,,,,,,7,,,64,0
13919,note_on,,119,0,13,,,,,,,,,,,,,,,12,,,70,0
13919,note_on,,0,0,15,,,,,,,,,,,,,,,14,,,60,0
13919,note_on,,0,0,15,,,,,,,,,,,,,,,14,,,63,0
13920,note_on,,1,0,10,,,,,,,,,,,,,,,8,,,53,88
13920,note_on,,1,0,12,,,,,,,,,,,,,,,11,,,65,72
13920,note_on,,1,0,8,,,,,,,,,,,,,,,6,,,69,88
13920,note_on,,1,0,15,,,,,,,,,,,,,,,14,,,53,72
13920,note_on,,0,0,15,,,,,,,,,,,,,,,14,,,69,72
13920,note_on,,1,0,11,,,,,,,,,,,,,,,10,,,81,72
13920,note_on,,1,0,6,,,,,,,,,,,,,,,1,,,53,72
13920,note_on,,0,0,15,,,,,,,,,,,,,,,14,,,60,72
13920,note_on,,0,0,15,,,,,,,,,,,,,,,14,,,65,72
13920,note_on,,1,0,9,,,,,,,,,,,,,,,7,,,65,88
13920,note_on,,1,0,13,,,,,,,,,,,,,,,12,,,69,72
13920,note_on,,1,0,14,,,,,,,,,,,,,,,13,,,53,72
13979,note_on,,0,0,15,,,,,,,,,,,,,,,14,,,69,0
13979,note_on,,59,0,15,,,,,,,,,,,,,,,14,,,53,0
13979,note_on,,59,0,8,,,,,,,,,,,,,,,6,,,69,0
13979,note_on,,59,0,13,,,,,,,,,,,,,,,12,,,69,0
13979,note_on,,59,0,12,,,,,,,,,,,,,,,11,,,65,0
13979,note_on,,59,0,9,,,,,,,,,,,,,,,7,,,65,0
13979,note_on,,0,0,15,,,,,,,,,,,,,,,14,,,65,0
13979,note_on,,59,0,6,,,,,,,,,,,,,,,1,,,53,0
13979,note_on,,59,0,10,,,,,,,,,,,,,,,8,,,53,0
13979,note_on,,0,0,15,,,,,,,,,,,,,,,14,,,60,0
13979,note_on,,59,0,14,,,,,,,,,,,,,,,13,,,53,0
13979,note_on,,59,0,11,,,,,,,,,,,,,,,10,,,81,0
13980,note_on,,1,0,8,,,,,,,,,,,,,,,6,,,70,88
13980,note_on,,0,0,15,,,,,,,,,,,,,,,14,,,74,72
13980,note_on,,1,0,12,,,,,,,,,,,,,,,11,,,77,72
13980,note_on,,1,0,11,,,,,,,,,,,,,,,10,,,82,72
13980,note_on,,1,0,9,,,,,,,,,,,,,,,7,,,62,88
13980,note_on,,0,0,15,,,,,,,,,,,,,,,14,,,65,72
13980,note_on,,1,0,13,,,,,,,,,,,,,,,12,,,74,72
13980,note_on,,1,0,6,,,,,,,,,,,,,,,1,,,58,72
13980,note_on,,1,0,15,,,,,,,,,,,,,,,14,,,58,72
13980,note_on,,1,0,10,,,,,,,,,,,,,,,8,,,58,88
13980,note_on,,1,0,14,,,,,,,,,,,,,,,13,,,58,72
13980,note_on,,0,0,15,,,,,,,,,,,,,,,14,,,62,72
14039,note_on,,59,0,13,,,,,,,,,,,,,,,12,,,74,0
14039,note_on,,59,0,11,,,,,,,,,,,,,,,10,,,82,0
14039,note_on,,59,0,6,,,,,,,,,,,,,,,1,,,58,0
14039,note_on,,59,0,8,,,,,,,,,,,,,,,6,,,70,0
14039,note_on,,0,0,15,,,,,,,,,,,,,,,14,,,74,0
14039,note_on,,59,0,12,,,,,,,,,,,,,,,11,,,77,0
14039,note_on,,59,0,9,,,,,,,,,,,,,,,7,,,62,0
14039,note_on,,59,0,14,,,,,,,,,,,,,,,13,,,58,0
14039,note_on,,0,0,15,,,,,,,,,,,,,,,14,,,65,0
14039,note_on,,0,0,15,,,,,,,,,,,,,,,14,,,62,0
14039,note_on,,59,0,10,,,,,,,,,,,,,,,8,,,58,0
14039,note_on,,59,0,15,,,,,,,,,,,,,,,14,,,58,0
14040,note_on,,0,0,15,,,,,,,,,,,,,,,14,,,67,72
14040,note_on,,1,0,9,,,,,,,,,,,,,,,7,,,64,88
14040,note_on,,1,0,15,,,,,,,,,,,,,,,14,,,60,72
14040,note_on,,1,0,6,,,,,,,,,,,,,,,1,,,60,72
14040,note_on,,0,0,15,,,,,,,,,,,,,,,14,,,64,72
14040,note_on,,1,0,14,,,,,,,,,,,,,,,13,,,60,72
14040,note_on,,1,0,8,,,,,,,,,,,,,,,6,,,67,88
14040,note_on,,1,0,12,,,,,,,,,,,,,,,11,,,76,72
14040,note_on,,1,0,11,,,,,,,,,,,,,,,10,,,79,72
14040,note_on,,1,0,13,,,,,,,,,,,,,,,12,,,67,72
14040,note_on,,1,0,10,,,,,,,,,,,,,,,8,,,60,88
14099,note_on,,59,0,13,,,,,,,,,,,,,,,12,,,67,0
14099,note_on,,59,0,14,,,,,,,,,,,,,,,13,,,60,0
14099,note_on,,59,0,6,,,,,,,,,,,,,,,1,,,60,0
14099,note_on,,59,0,15,,,,,,,,,,,,,,,14,,,60,0
14099,note_on,,0,0,15,,,,,,,,,,,,,,,14,,,67,0
14100,note_on,,1741,0,7,,,,,,,,,,,,,,,5,,,72,88
14100,note_on,,1,0,15,,,,,,,,,,,,,,,14,,,48,72
14100,note_on,,0,0,15,,,,,,,,,,,,,,,14,,,72,72
14100,note_on,,1741,0,5,,,,,,,,,,,,,,,0,,,72,72
14100,note_on,,1,0,14,,,,,,,,,,,,,,,13,,,48,72
14100,note_on,,1,0,6,,,,,,,,,,,,,,,1,,,48,72
14100,note_on,,1,0,13,,,,,,,,,,,,,,,12,,,72,72
14159,note_on,,59,0,7,,,,,,,,,,,,,,,5,,,72,0
14159,note_on,,119,0,11,,,,,,,,,,,,,,,10,,,79,0
14159,note_on,,59,0,14,,,,,,,,,,,,,,,13,,,48,0
14159,note_on,,119,0,12,,,,,,,,,,,,,,,11,,,76,0
14159,note_on,,119,0,8,,,,,,,,,,,,,,,6,,,67,0
14159,note_on,,119,0,10,,,,,,,,,,,,,,,8,,,60,0
14159,note_on,,59,0,6,,,,,,,,,,,,,,,1,,,48,0
14159,note_on,,59,0,15,,,,,,,,,,,,,,,14,,,64,0
14159,note_on,,119,0,9,,,,,,,,,,,,,,,7,,,64,0
14159,note_on,,0,0,15,,,,,,,,,,,,,,,14,,,48,0
14159,note_on,,0,0,15,,,,,,,,,,,,,,,14,,,72,0
14159,note_on,,59,0,13,,,,,,,,,,,,,,,12,,,72,0
14159,note_on,,59,0,5,,,,,,,,,,,,,,,0,,,72,0
14160,note_on,,1,0,12,,,,,,,,,,,,,,,11,,,77,72
14160,note_on,,1,0,9,,,,,,,,,,,,,,,7,,,62,88
14160,note_on,,1,0,15,,,,,,,,,,,,,,,14,,,45,72
14160,note_on,,0,0,15,,,,,,,,,,,,,,,14,,,77,72
14160,note_on,,0,0,15,,,,,,,,,,,,,,,14,,,72,72
14160,note_on,,0,0,15,,,,,,,,,,,,,,,14,,,65,72
14160,note_on,,1,0,6,,,,,,,,,,,,,,,1,,,45,72
14160,note_on,,1,0,5,,,,,,,,,,,,,,,0,,,77,72
14160,note_on,,1,0,8,,,,,,,,,,,,,,,6,,,69,88
14160,note_on,,1,0,13,,,,,,,,,,,,,,,12,,,60,72
14160,note_on,,1,0,7,,,,,,,,,,,,,,,5,,,77,88
14160,note_on,,1,0,14,,,,,,,,,,,,,,,13,,,45,72
14160,note_on,,1,0,10,,,,,,,,,,,,,,,8,,,53,88
14160,note_on,,1,0,11,,,,,,,,,,,,,,,10,,,77,72
14219,note_on,,59,0,14,,,,,,,,,,,,,,,13,,,45,0
14219,note_on,,59,0,15,,,,,,,,,,,,,,,14,,,45,0
14219,note_on,,0,0,15,,,,,,,,,,,,,,,14,,,77,0
14219,note_on,,0,0,15,,,,,,,,,,,,,,,14,,,72,0
14219,note_on,,0,0,15,,,,,,,,,,,,,,,14,,,65,0
14219,note_on,,59,0,6,,,,,,,,,,,,,,,1,,,45,0
14219,note_on,,59,0,5,,,,,,,,,,,,,,,0,,,77,0
14219,note_on,,59,0,7,,,,,,,,,,,,,,,5,,,77,0
14220,note_on,,1,0,15,,,,,,,,,,,,,,,14,,,53,48
14220,note_on,,0,0,15,,,,,,,,,,,,,,,14,,,72,48
14220,note_on,,0,0,15,,,,,,,,,,,,,,,14,,,69,48
14220,note_on,,1,0,5,,,,,,,,,,,,,,,0,,,77,72
14220,note_on,,1,0,6,,,,,,,,,,,,,,,1,,,53,48
14220,note_on,,1,0,7,,,,,,,,,,,,,,,5,,,77,88
14220,note_on,,1,0,14,,,,,,,,,,,,,,,13,,,53,48
14279,note_on,,59,0,14,,,,,,,,,,,,,,,13,,,53,0
14279,note_on,,59,0,7,,,,,,,,,,,,,,,5,,,77,0
14279,note_on,,119,0,9,,,,,,,,,,,,,,,7,,,62,0
14279,note_on,,0,0,15,,,,,,,,,,,,,,,14,,,69,0
14279,note_on,,0,0,15,,,,,,,,,,,,,,,14,,,72,0
14279,note_on,,59,0,6,,,,,,,,,,,,,,,1,,,53,0
14279,note_on,,119,0,10,,,,,,,,,,,,,,,8,,,53,0
14279,note_on,,59,0,5,,,,,,,,,,,,,,,0,,,77,0
14279,note_on,,119,0,8,,,,,,,,,,,,,,,6,,,69,0
14279,note_on,,59,0,15,,,,,,,,,,,,,,,14,,,53,0
14279,note_on,,119,0,11,,,,,,,,,,,,,,,10,,,77,0
14279,note_on,,119,0,13,,,,,,,,,,,,,,,12,,,60,0
14279,note_on,,119,0,12,,,,,,,,,,,,,,,11,,,77,0
14280,note_on,,1,0,5,,,,,,,,,,,,,,,0,,,77,72
14280,note_on,,0,0,15,,,,,,,,,,,,,,,14,,,70,48
14280,note_on,,1,0,6,,,,,,,,,,,,,,,1,,,62,48
14280,note_on,,1,0,14,,,,,,,,,,,,,,,13,,,62,48
14280,note_on,,1,0,7,,,,,,,,,,,,,,,5,,,77,88
14280,note_on,,1,0,15,,,,,,,,,,,,,,,14,,,62,48
14280,note_on,,0,0,15,,,,,,,,,,,,,,,14,,,65,48
14339,note_on,,59,0,5,,,,,,,,,,,,,,,0,,,77,0
14339,note_on,,59,0,14,,,,,,,,,,,,,,,13,,,62,0
14339,note_on,,59,0,7,,,,,,,,,,,,,,,5,,,77,0
14339,note_on,,59,0,15,,,,,,,,,,,,,,,14,,,62,0
14339,note_on,,0,0,15,,,,,,,,,,,,,,,14,,,70,0
14339,note_on,,0,0,15,,,,,,,,,,,,,,,14,,,65,0
14339,note_on,,59,0,6,,,,,,,,,,,,,,,1,,,62,0
14340,note_on,,1,0,5,,,,,,,,,,,,,,,0,,,77,72
14340,note_on,,0,0,15,,,,,,,,,,,,,,,14,,,70,48
14340,note_on,,0,0,15,,,,,,,,,,,,,,,14,,,62,48
14340,note_on,,1,0,14,,,,,,,,,,,,,,,13,,,58,48
14340,note_on,,1,0,15,,,,,,,,,,,,,,,14,,,58,48
14340,note_on,,1,0,7,,,,,,,,,,,,,,,5,,,77,88
14340,note_on,,1,0,6,,,,,,,,,,,,,,,1,,,58,48
14340,note_on,,0,0,15,,,,,,,,,,,,,,,14,,,74,48
14399,note_on,,59,0,5,,,,,,,,,,,,,,,0,,,77,0
14399,note_on,,59,0,14,,,,,,,,,,,,,,,13,,,58,0
14399,note_on,,59,0,6,,,,,,,,,,,,,,,1,,,58,0
14399,note_on,,0,0,15,,,,,,,,,,,,,,,14,,,62,0
14399,note_on,,0,0,15,,,,,,,,,,,,,,,14,,,70,0
14399,note_on,,0,0,15,,,,,,,,,,,,,,,14,,,74,0
14399,note_on,,59,0,7,,,,,,,,,,,,,,,5,,,77,0
14399,note_on,,59,0,15,,,,,,,,,,,,,,,14,,,58,0
14400,note_on,,1,0,7,,,,,,,,,,,,,,,5,,,75,88
14400,note_on,,1,0,6,,,,,,,,,,,,,,,1,,,60,48
14400,note_on,,1,0,15,,,,,,,,,,,,,,,14,,,60,48
14400,note_on,,1,0,14,,,,,,,,,,,,,,,13,,,60,48
14400,note_on,,0,0,15,,,,,,,,,,,,,,,14,,,72,48
14400,note_on,,0,0,15,,,,,,,,,,,,,,,14,,,70,48
14400,note_on,,0,0,15,,,,,,,,,,,,,,,14,,,67,48
14400,note_on,,1,0,5,,,,,,,,,,,,,,,0,,,75,72
14429,note_on,,29,0,5,,,,,,,,,,,,,,,0,,,75,0
14429,note_on,,29,0,7,,,,,,,,,,,,,,,5,,,75,0
14430,note_on,,1,0,7,,,,,,,,,,,,,,,5,,,77,88
14430,note_on,,1,0,5,,,,,,,,,,,,,,,0,,,77,72
14459,note_on,,59,0,14,,,,,,,,,,,,,,,13,,,60,0
14459,note_on,,29,0,5,,,,,,,,,,,,,,,0,,,77,0
14459,note_on,,59,0,6,,,,,,,,,,,,,,,1,,,60,0
14459,note_on,,29,0,7,,,,,,,,,,,,,,,5,,,77,0
14459,note_on,,59,0,15,,,,,,,,,,,,,,,14,,,60,0
14460,note_on,,1,0,5,,,,,,,,,,,,,,,0,,,75,72
14460,note_on,,1,0,6,,,,,,,,,,,,,,,1,,,58,48
14460,note_on,,1,0,15,,,,,,,,,,,,,,,14,,,58,48
14460,note_on,,1,0,7,,,,,,,,,,,,,,,5,,,75,88
14460,note_on,,1,0,14,,,,,,,,,,,,,,,13,,,58,48
14489,note_on,,29,0,5,,,,,,,,,,,,,,,0,,,75,0
14489,note_on,,29,0,7,,,,,,,,,,,,,,,5,,,75,0
14490,note_on,,1,0,5,,,,,,,,,,,,,,,0,,,74,72
14490,note_on,,1,0,7,,,,,,,,,,,,,,,5,,,74,88
14519,note_on,,59,0,6,,,,,,,,,,,,,,,1,,,58,0
14519,note_on,,29,0,5,,,,,,,,,,,,,,,0,,,74,0
14519,note_on,,0,0,15,,,,,,,,,,,,,,,14,,,58,0
14519,note_on,,29,0,7,,,,,,,,,,,,,,,5,,,74,0
14519,note_on,,59,0,15,,,,,,,,,,,,,,,14,,,70,0
14519,note_on,,0,0,15,,,,,,,,,,,,,,,14,,,67,0
14519,note_on,,59,0,14,,,,,,,,,,,,,,,13,,,58,0
14520,note_on,,1,0,15,,,,,,,,,,,,,,,14,,,60,48
14520,note_on,,0,0,15,,,,,,,,,,,,,,,14,,,63,48
14520,note_on,,0,0,15,,,,,,,,,,,,,,,14,,,69,48
14520,note_on,,1,0,5,,,,,,,,,,,,,,,0,,,75,72
14520,note_on,,1,0,7,,,,,,,,,,,,,,,5,,,75,88
14520,note_on,,1,0,6,,,,,,,,,,,,,,,1,,,60,48
14520,note_on,,1,0,14,,,,,,,,,,,,,,,13,,,60,48
14549,note_on,,29,0,7,,,,,,,,,,,,,,,5,,,75,0
14549,note_on,,29,0,5,,,,,,,,,,,,,,,0,,,75,0
14550,note_on,,1,0,5,,,,,,,,,,,,,,,0,,,72,72
14550,note_on,,1,0,7,,,,,,,,,,,,,,,5,,,72,88
14579,note_on,,59,0,6,,,,,,,,,,,,,,,1,,,60,0
14579,note_on,,59,0,15,,,,,,,,,,,,,,,14,,,60,0
14579,note_on,,29,0,5,,,,,,,,,,,,,,,0,,,72,0
14579,note_on,,29,0,7,,,,,,,,,,,,,,,5,,,72,0
14579,note_on,,59,0,14,,,,,,,,,,,,,,,13,,,60,0
14580,note_on,,1,0,15,,,,,,,,,,,,,,,14,,,53,48
14580,note_on,,1,0,6,,,,,,,,,,,,,,,1,,,53,48
14580,note_on,,1,0,7,,,,,,,,,,,,,,,5,,,70,88
14580,note_on,,1,0,14,,,,,,,,,,,,,,,13,,,53,48
14580,note_on,,1,0,5,,,,,,,,,,,,,,,0,,,70,72
14609,note_on,,29,0,5,,,,,,,,,,,,,,,0,,,70,0
14609,note_on,,29,0,7,,,,,,,,,,,,,,,5,,,70,0
14610,note_on,,1,0,5,,,,,,,,,,,,,,,0,,,72,72
14610,note_on,,1,0,7,,,,,,,,,,,,,,,5,,,72,88
14639,note_on,,59,0,15,,,,,,,,,,,,,,,14,,,72,0
14639,note_on,,0,0,15,,,,,,,,,,,,,,,14,,,69,0
14639,note_on,,0,0,15,,,,,,,,,,,,,,,14,,,63,0
14639,note_on,,59,0,14,,,,,,,,,,,,,,,13,,,53,0
14639,note_on,,29,0,7,,,,,,,,,,,,,,,5,,,72,0
14639,note_on,,59,0,6,,,,,,,,,,,,,,,1,,,53,0
14639,note_on,,29,0,5,,,,,,,,,,,,,,,0,,,72,0
14639,note_on,,0,0,15,,,,,,,,,,,,,,,14,,,53,0
14640,note_on,,1,0,14,,,,,,,,,,,,,,,13,,,58,48
14640,note_on,,1,0,7,,,,,,,,,,,,,,,5,,,74,88
14640,note_on,,1,0,5,,,,,,,,,,,,,,,0,,,74,72
14640,note_on,,1,0,6,,,,,,,,,,,,,,,1,,,58,48
14640,note_on,,1,0,15,,,,,,,,,,,,,,,14,,,58,48
14640,note_on,,0,0,15,,,,,,,,,,,,,,,14,,,69,48
14640,note_on,,0,0,15,,,,,,,,,,,,,,,14,,,65,48
14640,note_on,,0,0,15,,,,,,,,,,,,,,,14,,,70,48
14669,note_on,,29,0,7,,,,,,,,,,,,,,,5,,,74,0
14669,note_on,,29,0,5,,,,,,,,,,,,,,,0,,,74,0
14670,note_on,,1,0,7,,,,,,,,,,,,,,,5,,,75,88
14670,note_on,,1,0,5,,,,,,,,,,,,,,,0,,,75,72
14699,note_on,,29,0,5,,,,,,,,,,,,,,,0,,,75,0
14699,note_on,,59,0,15,,,,,,,,,,,,,,,14,,,58,0
14699,note_on,,29,0,7,,,,,,,,,,,,,,,5,,,75,0
14699,note_on,,59,0,14,,,,,,,,,,,,,,,13,,,58,0
14699,note_on,,59,0,6,,,,,,,,,,,,,,,1,,,58,0
14700,note_on,,1,0,5,,,,,,,,,,,,,,,0,,,74,72
14700,note_on,,1,0,15,,,,,,,,,,,,,,,14,,,57,48
14700,note_on,,1,0,7,,,,,,,,,,,,,,,5,,,74,88
14700,note_on,,1,0,6,,,,,,,,,,,,,,,1,,,57,48
14700,note_on,,1,0,14,,,,,,,,,,,,,,,13,,,57,48
14729,note_on,,29,0,7,,,,,,,,,,,,,,,5,,,74,0
14729,note_on,,29,0,5,,,,,,,,,,,,,,,0,,,74,0
14730,note_on,,1,0,5,,,,,,,,,,,,,,,0,,,72,72
14730,note_on,,1,0,7,,,,,,,,,,,,,,,5,,,72,88
14759,note_on,,29,0,5,,,,,,,,,,,,,,,0,,,72,0
14759,note_on,,59,0,15,,,,,,,,,,,,,,,14,,,69,0
14759,note_on,,0,0,15,,,,,,,,,,,,,,,14,,,65,0
14759,note_on,,0,0,15,,,,,,,,,,,,,,,14,,,57,0
14759,note_on,,29,0,7,,,,,,,,,,,,,,,5,,,72,0
14759,note_on,,59,0,6,,,,,,,,,,,,,,,1,,,57,0
14759,note_on,,59,0,14,,,,,,,,,,,,,,,13,,,57,0
14760,note_on,,0,0,15,,,,,,,,,,,,,,,14,,,67,48
14760,note_on,,1,0,6,,,,,,,,,,,,,,,1,,,58,48
14760,note_on,,1,0,7,,,,,,,,,,,,,,,5,,,74,88
14760,note_on,,0,0,15,,,,,,,,,,,,,,,14,,,62,48
14760,note_on,,1,0,15,,,,,,,,,,,,,,,14,,,58,48
14760,note_on,,1,0,14,,,,,,,,,,,,,,,13,,,58,48
14760,note_on,,1,0,5,,,,,,,,,,,,,,,0,,,74,72
14789,note_on,,29,0,7,,,,,,,,,,,,,,,5,,,74,0
14789,note_on,,29,0,5,,,,,,,,,,,,,,,0,,,74,0
14790,note_on,,1,0,5,,,,,,,,,,,,,,,0,,,70,72
14790,note_on,,1,0,7,,,,,,,,,,,,,,,5,,,70,88
14819,note_on,,59,0,14,,,,,,,,,,,,,,,13,,,58,0
14819,note_on,,0,0,15,,,,,,,,,,,,,,,14,,,58,0
14819,note_on,,0,0,15,,,,,,,,,,,,,,,14,,,67,0
14819,note_on,,59,0,6,,,,,,,,,,,,,,,1,,,58,0
14819,note_on,,59,0,15,,,,,,,,,,,,,,,14,,,70,0
14819,note_on,,29,0,7,,,,,,,,,,,,,,,5,,,70,0
14819,note_on,,0,0,15,,,,,,,,,,,,,,,14,,,62,0
14819,note_on,,29,0,5,,,,,,,,,,,,,,,0,,,70,0
14820,note_on,,0,0,15,,,,,,,,,,,,,,,14,,,70,48
14820,note_on,,0,0,15,,,,,,,,,,,,,,,14,,,65,48
14820,note_on,,1,0,15,,,,,,,,,,,,,,,14,,,50,48
14820,note_on,,0,0,15,,,,,,,,,,,,,,,14,,,74,48
14820,note_on,,1,0,14,,,,,,,,,,,,,,,13,,,50,48
14820,note_on,,1,0,5,,,,,,,,,,,,,,,0,,,69,72
14820,note_on,,1,0,6,,,,,,,,,,,,,,,1,,,50,48
14820,note_on,,1,0,7,,,,,,,,,,,,,,,5,,,69,88
14849,note_on,,29,0,5,,,,,,,,,,,,,,,0,,,69,0
14849,note_on,,29,0,7,,,,,,,,,,,,,,,5,,,69,0
14850,note_on,,1,0,5,,,,,,,,,,,,,,,0,,,70,72
14850,note_on,,1,0,7,,,,,,,,,,,,,,,5,,,70,88
14879,note_on,,0,0,15,,,,,,,,,,,,,,,14,,,70,0
14879,note_on,,0,0,15,,,,,,,,,,,,,,,14,,,65,0
14879,note_on,,59,0,15,,,,,,,,,,,,,,,14,,,50,0
14879,note_on,,59,0,6,,,,,,,,,,,,,,,1,,,50,0
14879,note_on,,0,0,15,,,,,,,,,,,,,,,14,,,74,0
14879,note_on,,59,0,14,,,,,,,,,,,,,,,13,,,50,0
14879,note_on,,29,0,5,,,,,,,,,,,,,,,0,,,70,0
14879,note_on,,29,0,7,,,,,,,,,,,,,,,5,,,70,0
14880,note_on,,1,0,7,,,,,,,,,,,,,,,5,,,72,88
14880,note_on,,1,0,14,,,,,,,,,,,,,,,13,,,51,48
14880,note_on,,1,0,6,,,,,,,,,,,,,,,1,,,51,48
14880,note_on,,1,0,15,,,,,,,,,,,,,,,14,,,51,48
14880,note_on,,1,0,5,,,,,,,,,,,,,,,0,,,72,72
14880,note_on,,0,0,15,,,,,,,,,,,,,,,14,,,70,48
14880,note_on,,0,0,15,,,,,,,,,,,,,,,14,,,67,48
14880,note_on,,0,0,15,,,,,,,,,,,,,,,14,,,72,48
14909,note_on,,29,0,5,,,,,,,,,,,,,,,0,,,72,0
14909,note_on,,29,0,7,,,,,,,,,,,,,,,5,,,72,0
14910,note_on,,1,0,5,,,,,,,,,,,,,,,0,,,74,72
14910,note_on,,1,0,7,,,,,,,,,,,,,,,5,,,74,88
14939,note_on,,59,0,15,,,,,,,,,,,,,,,14,,,51,0
14939,note_on,,29,0,5,,,,,,,,,,,,,,,0,,,74,0
14939,note_on,,59,0,14,,,,,,,,,,,,,,,13,,,51,0
14939,note_on,,59,0,6,,,,,,,,,,,,,,,1,,,51,0
14939,note_on,,29,0,7,,,,,,,,,,,,,,,5,,,74,0
14940,note_on,,1,0,6,,,,,,,,,,,,,,,1,,,50,48
14940,note_on,,1,0,5,,,,,,,,,,,,,,,0,,,72,72
14940,note_on,,1,0,15,,,,,,,,,,,,,,,14,,,50,48
14940,note_on,,1,0,14,,,,,,,,,,,,,,,13,,,50,48
14940,note_on,,1,0,7,,,,,,,,,,,,,,,5,,,72,88
14969,note_on,,29,0,5,,,,,,,,,,,,,,,0,,,72,0
14969,note_on,,29,0,7,,,,,,,,,,,,,,,5,,,72,0
14970,note_on,,1,0,5,,,,,,,,,,,,,,,0,,,70,72
14970,note_on,,1,0,7,,,,,,,,,,,,,,,5,,,70,88
14999,note_on,,59,0,15,,,,,,,,,,,,,,,14,,,50,0
14999,note_on,,59,0,14,,,,,,,,,,,,,,,13,,,50,0
14999,note_on,,29,0,5,,,,,,,,,,,,,,,0,,,70,0
14999,note_on,,59,0,6,,,,,,,,,,,,,,,1,,,50,0
14999,note_on,,29,0,7,,,,,,,,,,,,,,,5,,,70,0
15000,note_on,,1,0,6,,,,,,,,,,,,,,,1,,,51,48
15000,note_on,,1,0,5,,,,,,,,,,,,,,,0,,,72,72
15000,note_on,,1,0,14,,,,,,,,,,,,,,,13,,,51,48
15000,note_on,,1,0,7,,,,,,,,,,,,,,,5,,,72,88
15000,note_on,,1,0,15,,,,,,,,,,,,,,,14,,,51,48
15029,note_on,,29,0,5,,,,,,,,,,,,,,,0,,,72,0
15029,note_on,,29,0,7,,,,,,,,,,,,,,,5,,,72,0
15030,note_on,,1,0,5,,,,,,,,,,,,,,,0,,,69,72
15030,note_on,,1,0,7,,,,,,,,,,,,,,,5,,,69,88
15059,note_on,,0,0,15,,,,,,,,,,,,,,,14,,,51,0
15059,note_on,,0,0,15,,,,,,,,,,,,,,,14,,,67,0
15059,note_on,,0,0,15,,,,,,,,,,,,,,,14,,,70,0
15059,note_on,,59,0,15,,,,,,,,,,,,,,,14,,,72,0
15059,note_on,,59,0,14,,,,,,,,,,,,,,,13,,,51,0
15059,note_on,,59,0,6,,,,,,,,,,,,,,,1,,,51,0
15059,note_on,,29,0,7,,,,,,,,,,,,,,,5,,,69,0
15059,note_on,,29,0,5,,,,,,,,,,,,,,,0,,,69,0
15060,note_on,,0,0,15,,,,,,,,,,,,,,,14,,,72,48
15060,note_on,,1,0,6,,,,,,,,,,,,,,,1,,,53,72
15060,note_on,,781,0,8,,,,,,,,,,,,,,,6,,,65,88
15060,note_on,,781,0,10,,,,,,,,,,,,,,,8,,,53,88
15060,note_on,,1,0,7,,,,,,,,,,,,,,,5,,,67,88
15060,note_on,,1,0,14,,,,,,,,,,,,,,,13,,,53,72
15060,note_on,,0,0,15,,,,,,,,,,,,,,,14,,,60,48
15060,note_on,,0,0,15,,,,,,,,,,,,,,,14,,,69,48
15060,note_on,,1,0,5,,,,,,,,,,,,,,,0,,,67,72
15060,note_on,,1,0,15,,,,,,,,,,,,,,,14,,,53,48
15060,note_on,,781,0,9,,,,,,,,,,,,,,,7,,,60,88
15089,note_on,,29,0,5,,,,,,,,,,,,,,,0,,,67,0
15089,note_on,,29,0,7,,,,,,,,,,,,,,,5,,,67,0
15090,note_on,,1,0,7,,,,,,,,,,,,,,,5,,,69,88
15090,note_on,,1,0,5,,,,,,,,,,,,,,,0,,,69,72
15119,note_on,,59,0,8,,,,,,,,,,,,,,,6,,,65,0
15119,note_on,,29,0,7,,,,,,,,,,,,,,,5,,,69,0
15119,note_on,,59,0,6,,,,,,,,,,,,,,,1,,,53,0
15119,note_on,,59,0,14,,,,,,,,,,,,,,,13,,,53,0
15119,note_on,,59,0,9,,,,,,,,,,,,,,,7,,,60,0
15119,note_on,,59,0,10,,,,,,,,,,,,,,,8,,,53,0
15119,note_on,,59,0,15,,,,,,,,,,,,,,,14,,,53,0
15119,note_on,,0,0,15,,,,,,,,,,,,,,,14,,,72,0
15119,note_on,,0,0,15,,,,,,,,,,,,,,,14,,,69,0
15119,note_on,,0,0,15,,,,,,,,,,,,,,,14,,,60,0
15119,note_on,,29,0,5,,,,,,,,,,,,,,,0,,,69,0
15120,note_on,,1,0,14,,,,,,,,,,,,,,,13,,,55,72
15120,note_on,,1,0,6,,,,,,,,,,,,,,,1,,,55,72
15120,note_on,,1,0,7,,,,,,,,,,,,,,,5,,,70,88
15120,note_on,,1,0,9,,,,,,,,,,,,,,,7,,,63,88
15120,note_on,,1,0,5,,,,,,,,,,,,,,,0,,,70,72
15120,note_on,,1,0,10,,,,,,,,,,,,,,,8,,,55,88
15120,note_on,,1,0,8,,,,,,,,,,,,,,,6,,,58,88
15120,note_on,,1,0,15,,,,,,,,,,,,,,,14,,,55,72
15120,note_on,,0,0,15,,,,,,,,,,,,,,,14,,,70,72
15120,note_on,,0,0,15,,,,,,,,,,,,,,,14,,,67,72
15120,note_on,,0,0,15,,,,,,,,,,,,,,,14,,,63,72
15239,note_on,,119,0,5,,,,,,,,,,,,,,,0,,,70,0
15239,note_on,,119,0,8,,,,,,,,,,,,,,,6,,,58,0
15239,note_on,,119,0,7,,,,,,,,,,,,,,,5,,,70,0
15239,note_on,,0,0,15,,,,,,,,,,,,,,,14,,,63,0
15239,note_on,,0,0,15,,,,,,,,,,,,,,,14,,,67,0
15239,note_on,,119,0,9,,,,,,,,,,,,,,,7,,,63,0
15239,note_on,,119,0,14,,,,,,,,,,,,,,,13,,,55,0
15239,note_on,,119,0,10,,,,,,,,,,,,,,,8,,,55,0
15239,note_on,,119,0,6,,,,,,,,,,,,,,,1,,,55,0
15239,note_on,,119,0,15,,,,,,,,,,,,,,,14,,,55,0
15239,note_on,,0,0,15,,,,,,,,,,,,,,,14,,,70,0
15240,note_on,,1,0,7,,,,,,,,,,,,,,,5,,,72,88
15240,note_on,,0,0,15,,,,,,,,,,,,,,,14,,,72,72
15240,note_on,,0,0,15,,,,,,,,,,,,,,,14,,,65,72
15240,note_on,,0,0,15,,,,,,,,,,,,,,,14,,,60,72
15240,note_on,,1,0,14,,,,,,,,,,,,,,,13,,,57,72
15240,note_on,,1,0,8,,,,,,,,,,,,,,,6,,,65,88
15240,note_on,,1,0,9,,,,,,,,,,,,,,,7,,,63,88
15240,note_on,,1,0,10,,,,,,,,,,,,,,,8,,,57,88
15240,note_on,,1,0,5,,,,,,,,,,,,,,,0,,,72,72
15240,note_on,,1,0,15,,,,,,,,,,,,,,,14,,,57,72
15240,note_on,,1,0,6,,,,,,,,,,,,,,,1,,,57,72
15359,note_on,,119,0,15,,,,,,,,,,,,,,,14,,,57,0
15359,note_on,,0,0,15,,,,,,,,,,,,,,,14,,,65,0
15359,note_on,,0,0,15,,,,,,,,,,,,,,,14,,,60,0
15359,note_on,,0,0,15,,,,,,,,,,,,,,,14,,,72,0
15359,note_on,,119,0,6,,,,,,,,,,,,,,,1,,,57,0
15359,note_on,,119,0,7,,,,,,,,,,,,,,,5,,,72,0
15359,note_on,,119,0,8,,,,,,,,,,,,,,,6,,,65,0
15359,note_on,,119,0,14,,,,,,,,,,,,,,,13,,,57,0
15359,note_on,,119,0,5,,,,,,,,,,,,,,,0,,,72,0
15359,note_on,,119,0,10,,,,,,,,,,,,,,,8,,,57,0
15359,note_on,,119,0,9,,,,,,,,,,,,,,,7,,,63,0
15360,note_on,,0,0,15,,,,,,,,,,,,,,,14,,,70,72
15360,note_on,,0,0,15,,,,,,,,,,,,,,,14,,,65,72
15360,note_on,,1,0,7,,,,,,,,,,,,,,,5,,,74,88
15360,note_on,,1,0,8,,,,,,,,,,,,,,,6,,,65,88
15360,note_on,,1,0,5,,,,,,,,,,,,,,,0,,,74,72
15360,note_on,,1,0,15,,,,,,,,,,,,,,,14,,,58,72
15360,note_on,,1,0,10,,,,,,,,,,,,,,,8,,,58,88
15360,note_on,,0,0,15,,,,,,,,,,,,,,,14,,,74,72
15360,note_on,,1,0,14,,,,,,,,,,,,,,,13,,,58,72
15360,note_on,,1,0,9,,,,,,,,,,,,,,,7,,,58,88
15360,note_on,,1,0,6,,,,,,,,,,,,,,,1,,,58,72
15419,note_on,,0,0,15,,,,,,,,,,,,,,,14,,,70,0
15419,note_on,,59,0,10,,,,,,,,,,,,,,,8,,,58,0
15419,note_on,,59,0,14,,,,,,,,,,,,,,,13,,,58,0
15419,note_on,,59,0,7,,,,,,,,,,,,,,,5,,,74,0
15419,note_on,,59,0,5,,,,,,,,,,,,,,,0,,,74,0
15419,note_on,,59,0,15,,,,,,,,,,,,,,,14,,,58,0
15419,note_on,,0,0,15,,,,,,,,,,,,,,,14,,,74,0
15419,note_on,,0,0,15,,,,,,,,,,,,,,,14,,,65,0
15419,note_on,,59,0,6,,,,,,,,,,,,,,,1,,,58,0
15419,note_on,,59,0,8,,,,,,,,,,,,,,,6,,,65,0
15420,note_on,,1,0,14,,,,,,,,,,,,,,,13,,,51,72
15420,note_on,,1,0,7,,,,,,,,,,,,,,,5,,,75,88
15420,note_on,,0,0,15,,,,,,,,,,,,,,,14,,,72,72
15420,note_on,,1,0,6,,,,,,,,,,,,,,,1,,,51,72
15420,note_on,,1,0,5,,,,,,,,,,,,,,,0,,,75,72
15420,note_on,,1,0,15,,,,,,,,,,,,,,,14,,,51,72
15420,note_on,,0,0,15,,,,,,,,,,,,,,,14,,,70,72
15420,note_on,,0,0,15,,,,,,,,,,,,,,,14,,,67,72
15420,note_on,,1,0,10,,,,,,,,,,,,,,,8,,,51,88
15420,note_on,,1,0,8,,,,,,,,,,,,,,,6,,,67,88
15479,note_on,,59,0,15,,,,,,,,,,,,,,,14,,,51,0
15479,note_on,,0,0,15,,,,,,,,,,,,,,,14,,,67,0
15479,note_on,,0,0,15,,,,,,,,,,,,,,,14,,,70,0
15479,note_on,,0,0,15,,,,,,,,,,,,,,,14,,,72,0
15479,note_on,,59,0,14,,,,,,,,,,,,,,,13,,,51,0
15479,note_on,,59,0,7,,,,,,,,,,,,,,,5,,,75,0
15479,note_on,,59,0,6,,,,,,,,,,,,,,,1,,,51,0
15479,note_on,,59,0,5,,,,,,,,,,,,,,,0,,,75,0
15479,note_on,,59,0,10,,,,,,,,,,,,,,,8,,,51,0
15479,note_on,,59,0,8,,,,,,,,,,,,,,,6,,,67,0
15480,note_on,,1,0,8,,,,,,,,,,,,,,,6,,,65,88
15480,note_on,,1,0,5,,,,,,,,,,,,,,,0,,,72,72
15480,note_on,,1,0,10,,,,,,,,,,,,,,,8,,,53,88
15480,note_on,,0,0,15,,,,,,,,,,,,,,,14,,,65,72
15480,note_on,,1,0,6,,,,,,,,,,,,,,,1,,,53,72
15480,note_on,,1,0,7,,,,,,,,,,,,,,,5,,,72,88
15480,note_on,,1,0,14,,,,,,,,,,,,,,,13,,,53,72
15480,note_on,,1,0,15,,,,,,,,,,,,,,,14,,,53,72
15480,note_on,,0,0,15,,,,,,,,,,,,,,,14,,,69,72
15480,note_on,,0,0,15,,,,,,,,,,,,,,,14,,,60,72
15539,note_on,,0,0,15,,,,,,,,,,,,,,,14,,,60,0
15539,note_on,,0,0,15,,,,,,,,,,,,,,,14,,,65,0
15539,note_on,,179,0,9,,,,,,,,,,,,,,,7,,,58,0
15539,note_on,,59,0,15,,,,,,,,,,,,,,,14,,,69,0
15540,note_on,,0,0,15,,,,,,,,,,,,,,,14,,,69,72
15540,note_on,,1261,0,11,,,,,,,,,,,,,,,10,,,77,72
15540,note_on,,1,0,15,,,,,,,,,,,,,,,14,,,72,72
15540,note_on,,0,0,15,,,,,,,,,,,,,,,14,,,65,72
15540,note_on,,1,0,9,,,,,,,,,,,,,,,7,,,57,88
15540,note_on,,1261,0,13,,,,,,,,,,,,,,,12,,,60,72
15540,note_on,,1261,0,12,,,,,,,,,,,,,,,11,,,69,72
15569,note_on,,89,0,6,,,,,,,,,,,,,,,1,,,53,0
15569,note_on,,29,0,15,,,,,,,,,,,,,,,14,,,53,0
15569,note_on,,89,0,14,,,,,,,,,,,,,,,13,,,53,0
15570,note_on,,1,0,6,,,,,,,,,,,,,,,1,,,51,72
15570,note_on,,1,0,14,,,,,,,,,,,,,,,13,,,51,72
15570,note_on,,1,0,15,,,,,,,,,,,,,,,14,,,51,72
15599,note_on,,0,0,15,,,,,,,,,,,,,,,14,,,51,0
15599,note_on,,59,0,9,,,,,,,,,,,,,,,7,,,57,0
15599,note_on,,29,0,6,,,,,,,,,,,,,,,1,,,51,0
15599,note_on,,119,0,5,,,,,,,,,,,,,,,0,,,72,0
15599,note_on,,119,0,10,,,,,,,,,,,,,,,8,,,53,0
15599,note_on,,0,0,15,,,,,,,,,,,,,,,14,,,65,0
15599,note_on,,0,0,15,,,,,,,,,,,,,,,14,,,69,0
15599,note_on,,29,0,15,,,,,,,,,,,,,,,14,,,72,0
15599,note_on,,59,0,12,,,,,,,,,,,,,,,11,,,69,0
15599,note_on,,59,0,11,,,,,,,,,,,,,,,10,,,77,0
15599,note_on,,119,0,7,,,,,,,,,,,,,,,5,,,72,0
15599,note_on,,29,0,14,,,,,,,,,,,,,,,13,,,51,0
15599,note_on,,119,0,8,,,,,,,,,,,,,,,6,,,65,0
15599,note_on,,59,0,13,,,,,,,,,,,,,,,12,,,60,0
15600,note_on,,0,0,15,,,,,,,,,,,,,,,14,,,77,72
15600,note_on,,0,0,15,,,,,,,,,,,,,,,14,,,70,72
15600,note_on,,1,0,13,,,,,,,,,,,,,,,12,,,62,72
15600,note_on,,1,0,9,,,,,,,,,,,,,,,7,,,62,88
15600,note_on,,1,0,6,,,,,,,,,,,,,,,1,,,50,72
15600,note_on,,1,0,10,,,,,,,,,,,,,,,8,,,58,88
15600,note_on,,0,0,15,,,,,,,,,,,,,,,14,,,65,72
15600,note_on,,1,0,15,,,,,,,,,,,,,,,14,,,50,72
15600,note_on,,1,0,14,,,,,,,,,,,,,,,13,,,50,72
15600,note_on,,1,0,5,,,,,,,,,,,,,,,0,,,72,72
15600,note_on,,1,0,8,,,,,,,,,,,,,,,6,,,65,88
15600,note_on,,1,0,11,,,,,,,,,,,,,,,10,,,70,72
15600,note_on,,1,0,7,,,,,,,,,,,,,,,5,,,72,88
15600,note_on,,1,0,12,,,,,,,,,,,,,,,11,,,65,72
15659,note_on,,59,0,6,,,,,,,,,,,,,,,1,,,50,0
15659,note_on,,59,0,14,,,,,,,,,,,,,,,13,,,50,0
15659,note_on,,59,0,15,,,,,,,,,,,,,,,14,,,50,0
15659,note_on,,0,0,15,,,,,,,,,,,,,,,14,,,77,0
15660,note_on,,1,0,6,,,,,,,,,,,,,,,1,,,58,72
15660,note_on,,0,0,15,,,,,,,,,,,,,,,14,,,74,72
15660,note_on,,1,0,14,,,,,,,,,,,,,,,13,,,58,72
15660,note_on,,1,0,15,,,,,,,,,,,,,,,14,,,58,72
15719,note_on,,119,0,7,,,,,,,,,,,,,,,5,,,72,0
15719,note_on,,119,0,8,,,,,,,,,,,,,,,6,,,65,0
15719,note_on,,119,0,10,,,,,,,,,,,,,,,8,,,58,0
15719,note_on,,0,0,15,,,,,,,,,,,,,,,14,,,74,0
15719,note_on,,0,0,15,,,,,,,,,,,,,,,14,,,58,0
15719,note_on,,119,0,5,,,,,,,,,,,,,,,0,,,72,0
15719,note_on,,59,0,14,,,,,,,,,,,,,,,13,,,58,0
15719,note_on,,119,0,12,,,,,,,,,,,,,,,11,,,65,0
15719,note_on,,119,0,11,,,,,,,,,,,,,,,10,,,70,0
15719,note_on,,119,0,13,,,,,,,,,,,,,,,12,,,62,0
15719,note_on,,119,0,9,,,,,,,,,,,,,,,7,,,62,0
15719,note_on,,59,0,6,,,,,,,,,,,,,,,1,,,58,0
15719,note_on,,59,0,15,,,,,,,,,,,,,,,14,,,65,0
15719,note_on,,0,0,15,,,,,,,,,,,,,,,14,,,70,0
15720,note_on,,1,0,15,,,,,,,,,,,,,,,14,,,57,72
15720,note_on,,0,0,15,,,,,,,,,,,,,,,14,,,72,72
15720,note_on,,0,0,15,,,,,,,,,,,,,,,14,,,65,72
15720,note_on,,1,0,11,,,,,,,,,,,,,,,10,,,72,72
15720,note_on,,1,0,12,,,,,,,,,,,,,,,11,,,69,72
15720,note_on,,1,0,14,,,,,,,,,,,,,,,13,,,57,72
15720,note_on,,1,0,13,,,,,,,,,,,,,,,12,,,65,72
15720,note_on,,1,0,6,,,,,,,,,,,,,,,1,,,57,72
15779,note_on,,59,0,14,,,,,,,,,,,,,,,13,,,57,0
15779,note_on,,59,0,15,,,,,,,,,,,,,,,14,,,57,0
15779,note_on,,0,0,15,,,,,,,,,,,,,,,14,,,72,0
15779,note_on,,0,0,15,,,,,,,,,,,,,,,14,,,65,0
15779,note_on,,59,0,6,,,,,,,,,,,,,,,1,,,57,0
15780,note_on,,1,0,6,,,,,,,,,,,,,,,1,,,53,72
15780,note_on,,1,0,14,,,,,,,,,,,,,,,13,,,53,72
15780,note_on,,0,0,15,,,,,,,,,,,,,,,14,,,69,72
15780,note_on,,1,0,15,,,,,,,,,,,,,,,14,,,53,72
15780,note_on,,0,0,15,,,,,,,,,,,,,,,14,,,77,72
15780,note_on,,0,0,15,,,,,,,,,,,,,,,14,,,72,72
15839,note_on,,119,0,13,,,,,,,,,,,,,,,12,,,65,0
15839,note_on,,59,0,15,,,,,,,,,,,,,,,14,,,53,0
15839,note_on,,59,0,14,,,,,,,,,,,,,,,13,,,53,0
15839,note_on,,0,0,15,,,,,,,,,,,,,,,14,,,72,0
15839,note_on,,0,0,15,,,,,,,,,,,,,,,14,,,69,0
15839,note_on,,0,0,15,,,,,,,,,,,,,,,14,,,77,0
15839,note_on,,119,0,12,,,,,,,,,,,,,,,11,,,69,0
15839,note_on,,59,0,6,,,,,,,,,,,,,,,1,,,53,0
15839,note_on,,119,0,11,,,,,,,,,,,,,,,10,,,72,0
15840,note_on,,1,0,6,,,,,,,,,,,,,,,1,,,58,72
15840,note_on,,1,0,14,,,,,,,,,,,,,,,13,,,58,72
15840,note_on,,1,0,11,,,,,,,,,,,,,,,10,,,74,72
15840,note_on,,1,0,13,,,,,,,,,,,,,,,12,,,65,72
15840,note_on,,0,0,15,,,,,,,,,,,,,,,14,,,65,72
15840,note_on,,0,0,15,,,,,,,,,,,,,,,14,,,70,72
15840,note_on,,0,0,15,,,,,,,,,,,,,,,14,,,74,72
15840,note_on,,1,0,15,,,,,,,,,,,,,,,14,,,58,72
15840,note_on,,1,0,12,,,,,,,,,,,,,,,11,,,70,72
15899,note_on,,0,0,15,,,,,,,,,,,,,,,14,,,70,0
15899,note_on,,0,0,15,,,,,,,,,,,,,,,14,,,74,0
15899,note_on,,59,0,13,,,,,,,,,,,,,,,12,,,65,0
15899,note_on,,59,0,14,,,,,,,,,,,,,,,13,,,58,0
15899,note_on,,59,0,15,,,,,,,,,,,,,,,14,,,58,0
15899,note_on,,59,0,6,,,,,,,,,,,,,,,1,,,58,0
15899,note_on,,0,0,15,,,,,,,,,,,,,,,14,,,65,0
15900,note_on,,1,0,14,,,,,,,,,,,,,,,13,,,51,72
15900,note_on,,1,0,13,,,,,,,,,,,,,,,12,,,67,72
15900,note_on,,1,0,6,,,,,,,,,,,,,,,1,,,51,72
15900,note_on,,0,0,15,,,,,,,,,,,,,,,14,,,70,72
15900,note_on,,1,0,15,,,,,,,,,,,,,,,14,,,51,72
15900,note_on,,0,0,15,,,,,,,,,,,,,,,14,,,72,72
15900,note_on,,0,0,15,,,,,,,,,,,,,,,14,,,67,72
15929,note_on,,89,0,11,,,,,,,,,,,,,,,10,,,74,0
15930,note_on,,1,0,11,,,,,,,,,,,,,,,10,,,75,72
15959,note_on,,0,0,15,,,,,,,,,,,,,,,14,,,67,0
15959,note_on,,59,0,15,,,,,,,,,,,,,,,14,,,51,0
15959,note_on,,0,0,15,,,,,,,,,,,,,,,14,,,72,0
15959,note_on,,59,0,13,,,,,,,,,,,,,,,12,,,67,0
15959,note_on,,0,0,15,,,,,,,,,,,,,,,14,,,70,0
15959,note_on,,119,0,12,,,,,,,,,,,,,,,11,,,70,0
15959,note_on,,29,0,11,,,,,,,,,,,,,,,10,,,75,0
15959,note_on,,59,0,14,,,,,,,,,,,,,,,13,,,51,0
15959,note_on,,59,0,6,,,,,,,,,,,,,,,1,,,51,0
15960,note_on,,1,0,6,,,,,,,,,,,,,,,1,,,53,72
15960,note_on,,1,0,13,,,,,,,,,,,,,,,12,,,60,72
15960,note_on,,1,0,15,,,,,,,,,,,,,,,14,,,53,72
15960,note_on,,0,0,15,,,,,,,,,,,,,,,14,,,69,72
15960,note_on,,0,0,15,,,,,,,,,,,,,,,14,,,65,72
15960,note_on,,0,0,15,,,,,,,,,,,,,,,14,,,60,72
15960,note_on,,1,0,14,,,,,,,,,,,,,,,13,,,53,72
15960,note_on,,1,0,11,,,,,,,,,,,,,,,10,,,72,72
15960,note_on,,1,0,12,,,,,,,,,,,,,,,11,,,69,72
16019,note_on,,59,0,6,,,,,,,,,,,,,,,1,,,53,0
16019,note_on,,59,0,13,,,,,,,,,,,,,,,12,,,60,0
16019,note_on,,59,0,12,,,,,,,,,,,,,,,11,,,69,0
16019,note_on,,59,0,14,,,,,,,,,,,,,,,13,,,53,0
16019,note_on,,59,0,15,,,,,,,,,,,,,,,14,,,53,0
16019,note_on,,0,0,15,,,,,,,,,,,,,,,14,,,60,0
16020,note_on,,0,0,15,,,,,,,,,,,,,,,14,,,65,72
16020,note_on,,301,0,9,,,,,,,,,,,,,,,7,,,60,88
16020,note_on,,301,0,5,,,,,,,,,,,,,,,0,,,77,72
16020,note_on,,301,0,10,,,,,,,,,,,,,,,8,,,53,88
16020,note_on,,1,0,15,,,,,,,,,,,,,,,14,,,41,72
16020,note_on,,1,0,12,,,,,,,,,,,,,,,11,,,77,72
16020,note_on,,1,0,14,,,,,,,,,,,,,,,13,,,41,72
16020,note_on,,1,0,13,,,,,,,,,,,,,,,12,,,60,72
16020,note_on,,1,0,6,,,,,,,,,,,,,,,1,,,41,72
16020,note_on,,301,0,8,,,,,,,,,,,,,,,6,,,69,88
16020,note_on,,301,0,7,,,,,,,,,,,,,,,5,,,77,88
16079,note_on,,119,0,11,,,,,,,,,,,,,,,10,,,72,0
16079,note_on,,59,0,9,,,,,,,,,,,,,,,7,,,60,0
16079,note_on,,59,0,6,,,,,,,,,,,,,,,1,,,41,0
16079,note_on,,0,0,15,,,,,,,,,,,,,,,14,,,41,0
16079,note_on,,0,0,15,,,,,,,,,,,,,,,14,,,65,0
16079,note_on,,59,0,7,,,,,,,,,,,,,,,5,,,77,0
16079,note_on,,59,0,10,,,,,,,,,,,,,,,8,,,53,0
16079,note_on,,0,0,15,,,,,,,,,,,,,,,14,,,65,0
16079,note_on,,59,0,15,,,,,,,,,,,,,,,14,,,69,0
16079,note_on,,59,0,8,,,,,,,,,,,,,,,6,,,69,0
16079,note_on,,59,0,13,,,,,,,,,,,,,,,12,,,60,0
16079,note_on,,59,0,5,,,,,,,,,,,,,,,0,,,77,0
16079,note_on,,59,0,14,,,,,,,,,,,,,,,13,,,41,0
16079,note_on,,59,0,12,,,,,,,,,,,,,,,11,,,77,0
16080,note_on,,1,0,12,,,,,,,,,,,,,,,11,,,75,72
16080,note_on,,1,0,14,,,,,,,,,,,,,,,13,,,43,72
16080,note_on,,0,0,15,,,,,,,,,,,,,,,14,,,70,72
16080,note_on,,1,0,6,,,,,,,,,,,,,,,1,,,43,72
16080,note_on,,0,0,15,,,,,,,,,,,,,,,14,,,63,72
16080,note_on,,1,0,10,,,,,,,,,,,,,,,8,,,55,88
16080,note_on,,0,0,15,,,,,,,,,,,,,,,14,,,58,72
16080,note_on,,1,0,8,,,,,,,,,,,,,,,6,,,67,88
16080,note_on,,1,0,15,,,,,,,,,,,,,,,14,,,43,72
16080,note_on,,1,0,7,,,,,,,,,,,,,,,5,,,70,88
16080,note_on,,1,0,5,,,,,,,,,,,,,,,0,,,70,72
16080,note_on,,1,0,13,,,,,,,,,,,,,,,12,,,63,72
16080,note_on,,1,0,9,,,,,,,,,,,,,,,7,,,58,88
16080,note_on,,1,0,11,,,,,,,,,,,,,,,10,,,70,72
16139,note_on,,59,0,13,,,,,,,,,,,,,,,12,,,63,0
16139,note_on,,59,0,11,,,,,,,,,,,,,,,10,,,70,0
16140,note_on,,1,0,11,,,,,,,,,,,,,,,10,,,82,72
16140,note_on,,1,0,13,,,,,,,,,,,,,,,12,,,67,72
16199,note_on,,119,0,14,,,,,,,,,,,,,,,13,,,43,0
16199,note_on,,59,0,11,,,,,,,,,,,,,,,10,,,82,0
16199,note_on,,119,0,7,,,,,,,,,,,,,,,5,,,70,0
16199,note_on,,119,0,10,,,,,,,,,,,,,,,8,,,55,0
16199,note_on,,119,0,6,,,,,,,,,,,,,,,1,,,43,0
16199,note_on,,0,0,15,,,,,,,,,,,,,,,14,,,58,0
16199,note_on,,119,0,9,,,,,,,,,,,,,,,7,,,58,0
16199,note_on,,119,0,8,,,,,,,,,,,,,,,6,,,67,0
16199,note_on,,0,0,15,,,,,,,,,,,,,,,14,,,70,0
16199,note_on,,119,0,15,,,,,,,,,,,,,,,14,,,43,0
16199,note_on,,119,0,5,,,,,,,,,,,,,,,0,,,70,0
16199,note_on,,59,0,13,,,,,,,,,,,,,,,12,,,67,0
16199,note_on,,0,0,15,,,,,,,,,,,,,,,14,,,63,0
16200,note_on,,1,0,15,,,,,,,,,,,,,,,14,,,45,72
16200,note_on,,1,0,7,,,,,,,,,,,,,,,5,,,72,88
16200,note_on,,1,0,10,,,,,,,,,,,,,,,8,,,57,88
16200,note_on,,1,0,13,,,,,,,,,,,,,,,12,,,65,72
16200,note_on,,0,0,15,,,,,,,,,,,,,,,14,,,60,72
16200,note_on,,0,0,15,,,,,,,,,,,,,,,14,,,65,72
16200,note_on,,1,0,14,,,,,,,,,,,,,,,13,,,45,72
16200,note_on,,0,0,15,,,,,,,,,,,,,,,14,,,57,72
16200,note_on,,1,0,6,,,,,,,,,,,,,,,1,,,45,72
16200,note_on,,1,0,11,,,,,,,,,,,,,,,10,,,84,72
16200,note_on,,1,0,8,,,,,,,,,,,,,,,6,,,65,88
16200,note_on,,1,0,5,,,,,,,,,,,,,,,0,,,72,72
16200,note_on,,1,0,9,,,,,,,,,,,,,,,7,,,65,88
16259,note_on,,179,0,12,,,,,,,,,,,,,,,11,,,75,0
16260,note_on,,1,0,12,,,,,,,,,,,,,,,11,,,77,72
16319,note_on,,0,0,15,,,,,,,,,,,,,,,14,,,60,0
16319,note_on,,119,0,7,,,,,,,,,,,,,,,5,,,72,0
16319,note_on,,119,0,14,,,,,,,,,,,,,,,13,,,45,0
16319,note_on,,119,0,8,,,,,,,,,,,,,,,6,,,65,0
16319,note_on,,119,0,11,,,,,,,,,,,,,,,10,,,84,0
16319,note_on,,0,0,15,,,,,,,,,,,,,,,14,,,57,0
16319,note_on,,119,0,15,,,,,,,,,,,,,,,14,,,45,0
16319,note_on,,0,0,15,,,,,,,,,,,,,,,14,,,65,0
16319,note_on,,119,0,10,,,,,,,,,,,,,,,8,,,57,0
16319,note_on,,119,0,6,,,,,,,,,,,,,,,1,,,45,0
16319,note_on,,119,0,13,,,,,,,,,,,,,,,12,,,65,0
16319,note_on,,119,0,5,,,,,,,,,,,,,,,0,,,72,0
16319,note_on,,119,0,9,,,,,,,,,,,,,,,7,,,65,0
16319,note_on,,59,0,12,,,,,,,,,,,,,,,11,,,77,0
16320,note_on,,1,0,6,,,,,,,,,,,,,,,1,,,46,72
16320,note_on,,0,0,15,,,,,,,,,,,,,,,14,,,58,72
16320,note_on,,0,0,15,,,,,,,,,,,,,,,14,,,62,72
16320,note_on,,1,0,15,,,,,,,,,,,,,,,14,,,46,72
16320,note_on,,1,0,9,,,,,,,,,,,,,,,7,,,62,88
16320,note_on,,1,0,11,,,,,,,,,,,,,,,10,,,77,72
16320,note_on,,1,0,5,,,,,,,,,,,,,,,0,,,74,72
16320,note_on,,1,0,8,,,,,,,,,,,,,,,6,,,65,88
16320,note_on,,0,0,15,,,,,,,,,,,,,,,14,,,53,72
16320,note_on,,1,0,7,,,,,,,,,,,,,,,5,,,74,88
16320,note_on,,1,0,14,,,,,,,,,,,,,,,13,,,46,72
16320,note_on,,1,0,10,,,,,,,,,,,,,,,8,,,58,88
16320,note_on,,1,0,12,,,,,,,,,,,,,,,11,,,74,72
16320,note_on,,1,0,13,,,,,,,,,,,,,,,12,,,70,72
16379,note_on,,0,0,15,,,,,,,,,,,,,,,14,,,53,0
16379,note_on,,59,0,10,,,,,,,,,,,,,,,8,,,58,0
16379,note_on,,0,0,15,,,,,,,,,,,,,,,14,,,62,0
16379,note_on,,59,0,9,,,,,,,,,,,,,,,7,,,62,0
16379,note_on,,59,0,14,,,,,,,,,,,,,,,13,,,46,0
16379,note_on,,59,0,11,,,,,,,,,,,,,,,10,,,77,0
16379,note_on,,59,0,15,,,,,,,,,,,,,,,14,,,46,0
16379,note_on,,59,0,8,,,,,,,,,,,,,,,6,,,65,0
16379,note_on,,59,0,5,,,,,,,,,,,,,,,0,,,74,0
16379,note_on,,59,0,6,,,,,,,,,,,,,,,1,,,46,0
16379,note_on,,59,0,7,,,,,,,,,,,,,,,5,,,74,0
16379,note_on,,59,0,12,,,,,,,,,,,,,,,11,,,74,0
16380,note_on,,1,0,11,,,,,,,,,,,,,,,10,,,79,72
16380,note_on,,0,0,15,,,,,,,,,,,,,,,14,,,67,72
16380,note_on,,1,0,15,,,,,,,,,,,,,,,14,,,51,72
16380,note_on,,0,0,15,,,,,,,,,,,,,,,14,,,55,72
16380,note_on,,1,0,14,,,,,,,,,,,,,,,13,,,51,72
16380,note_on,,1,0,7,,,,,,,,,,,,,,,5,,,75,88
16380,note_on,,1,0,9,,,,,,,,,,,,,,,7,,,58,88
16380,note_on,,1,0,5,,,,,,,,,,,,,,,0,,,75,72
16380,note_on,,1,0,6,,,,,,,,,,,,,,,1,,,51,72
16380,note_on,,1,0,8,,,,,,,,,,,,,,,6,,,67,88
16380,note_on,,1,0,12,,,,,,,,,,,,,,,11,,,75,72
16380,note_on,,1,0,10,,,,,,,,,,,,,,,8,,,51,88
16409,note_on,,29,0,11,,,,,,,,,,,,,,,10,,,79,0
16410,note_on,,1,0,11,,,,,,,,,,,,,,,10,,,82,72
16439,note_on,,59,0,10,,,,,,,,,,,,,,,8,,,51,0
16439,note_on,,0,0,15,,,,,,,,,,,,,,,14,,,55,0
16439,note_on,,0,0,15,,,,,,,,,,,,,,,14,,,67,0
16439,note_on,,0,0,15,,,,,,,,,,,,,,,14,,,51,0
16439,note_on,,59,0,15,,,,,,,,,,,,,,,14,,,58,0
16439,note_on,,59,0,5,,,,,,,,,,,,,,,0,,,75,0
16439,note_on,,119,0,13,,,,,,,,,,,,,,,12,,,70,0
16439,note_on,,29,0,11,,,,,,,,,,,,,,,10,,,82,0
16439,note_on,,59,0,9,,,,,,,,,,,,,,,7,,,58,0
16439,note_on,,59,0,7,,,,,,,,,,,,,,,5,,,75,0
16439,note_on,,59,0,12,,,,,,,,,,,,,,,11,,,75,0
16439,note_on,,59,0,8,,,,,,,,,,,,,,,6,,,67,0
16439,note_on,,59,0,6,,,,,,,,,,,,,,,1,,,51,0
16439,note_on,,59,0,14,,,,,,,,,,,,,,,13,,,51,0
16440,note_on,,1,0,14,,,,,,,,,,,,,,,13,,,53,72
16440,note_on,,1,0,6,,,,,,,,,,,,,,,1,,,53,72
16440,note_on,,1,0,9,,,,,,,,,,,,,,,7,,,65,88
16440,note_on,,1,0,8,,,,,,,,,,,,,,,6,,,69,88
16440,note_on,,0,0,15,,,,,,,,,,,,,,,14,,,60,72
16440,note_on,,1,0,11,,,,,,,,,,,,,,,10,,,81,72
16440,note_on,,1,0,13,,,,,,,,,,,,,,,12,,,65,72
16440,note_on,,1,0,5,,,,,,,,,,,,,,,0,,,72,72
16440,note_on,,1,0,10,,,,,,,,,,,,,,,8,,,53,88
16440,note_on,,1,0,7,,,,,,,,,,,,,,,5,,,72,88
16440,note_on,,1,0,12,,,,,,,,,,,,,,,11,,,72,72
16440,note_on,,0,0,15,,,,,,,,,,,,,,,14,,,57,72
16440,note_on,,1,0,15,,,,,,,,,,,,,,,14,,,53,72
16499,note_on,,0,0,15,,,,,,,,,,,,,,,14,,,60,0
16499,note_on,,59,0,6,,,,,,,,,,,,,,,1,,,53,0
16499,note_on,,59,0,9,,,,,,,,,,,,,,,7,,,65,0
16499,note_on,,59,0,15,,,,,,,,,,,,,,,14,,,53,0
16499,note_on,,59,0,14,,,,,,,,,,,,,,,13,,,53,0
16500,note_on,,1,0,9,,,,,,,,,,,,,,,7,,,63,88
16500,note_on,,1,0,15,,,,,,,,,,,,,,,14,,,41,72
16500,note_on,,0,0,15,,,,,,,,,,,,,,,14,,,65,72
16500,note_on,,1,0,6,,,,,,,,,,,,,,,1,,,41,72
16500,note_on,,1,0,14,,,,,,,,,,,,,,,13,,,41,72
16559,note_on,,119,0,13,,,,,,,,,,,,,,,12,,,65,0
16559,note_on,,119,0,12,,,,,,,,,,,,,,,11,,,72,0
16559,note_on,,59,0,9,,,,,,,,,,,,,,,7,,,63,0
16559,note_on,,59,0,6,,,,,,,,,,,,,,,1,,,41,0
16559,note_on,,119,0,5,,,,,,,,,,,,,,,0,,,72,0
16559,note_on,,59,0,14,,,,,,,,,,,,,,,13,,,41,0
16559,note_on,,119,0,11,,,,,,,,,,,,,,,10,,,81,0
16559,note_on,,119,0,8,,,,,,,,,,,,,,,6,,,69,0
16559,note_on,,0,0,15,,,,,,,,,,,,,,,14,,,65,0
16559,note_on,,0,0,15,,,,,,,,,,,,,,,14,,,41,0
16559,note_on,,59,0,15,,,,,,,,,,,,,,,14,,,57,0
16559,note_on,,119,0,10,,,,,,,,,,,,,,,8,,,53,0
16559,note_on,,119,0,7,,,,,,,,,,,,,,,5,,,72,0
16560,note_on,,0,0,15,,,,,,,,,,,,,,,14,,,53,72
16560,note_on,,1,0,14,,,,,,,,,,,,,,,13,,,46,72
16560,note_on,,1,0,11,,,,,,,,,,,,,,,10,,,82,72
16560,note_on,,1,0,13,,,,,,,,,,,,,,,12,,,65,72
16560,note_on,,1,0,5,,,,,,,,,,,,,,,0,,,70,72
16560,note_on,,1,0,8,,,,,,,,,,,,,,,6,,,65,88
16560,note_on,,1,0,7,,,,,,,,,,,,,,,5,,,70,88
16560,note_on,,1,0,10,,,,,,,,,,,,,,,8,,,46,88
16560,note_on,,1,0,9,,,,,,,,,,,,,,,7,,,62,88
16560,note_on,,1,0,6,,,,,,,,,,,,,,,1,,,46,72
16560,note_on,,1,0,15,,,,,,,,,,,,,,,14,,,46,72
16560,note_on,,0,0,15,,,,,,,,,,,,,,,14,,,62,72
16560,note_on,,1,0,12,,,,,,,,,,,,,,,11,,,74,72
16560,note_on,,0,0,15,,,,,,,,,,,,,,,14,,,58,72
16619,note_on,,59,0,11,,,,,,,,,,,,,,,10,,,82,0
16619,note_on,,59,0,12,,,,,,,,,,,,,,,11,,,74,0
16620,note_on,,1,0,11,,,,,,,,,,,,,,,10,,,74,72
16620,note_on,,1,0,12,,,,,,,,,,,,,,,11,,,70,72
16679,note_on,,119,0,5,,,,,,,,,,,,,,,0,,,70,0
16679,note_on,,59,0,11,,,,,,,,,,,,,,,10,,,74,0
16679,note_on,,119,0,13,,,,,,,,,,,,,,,12,,,65,0
16679,note_on,,119,0,6,,,,,,,,,,,,,,,1,,,46,0
16679,note_on,,0,0,15,,,,,,,,,,,,,,,14,,,58,0
16679,note_on,,0,0,15,,,,,,,,,,,,,,,14,,,62,0
16679,note_on,,119,0,15,,,,,,,,,,,,,,,14,,,46,0
16679,note_on,,119,0,10,,,,,,,,,,,,,,,8,,,46,0
16679,note_on,,119,0,14,,,,,,,,,,,,,,,13,,,46,0
16679,note_on,,119,0,8,,,,,,,,,,,,,,,6,,,65,0
16679,note_on,,59,0,12,,,,,,,,,,,,,,,11,,,70,0
16679,note_on,,119,0,7,,,,,,,,,,,,,,,5,,,70,0
16679,note_on,,119,0,9,,,,,,,,,,,,,,,7,,,62,0
16679,note_on,,0,0,15,,,,,,,,,,,,,,,14,,,53,0
16680,note_on,,1,0,11,,,,,,,,,,,,,,,10,,,77,72
16680,note_on,,1,0,12,,,,,,,,,,,,,,,11,,,74,72
16739,note_on,,59,0,12,,,,,,,,,,,,,,,11,,,74,0
16739,note_on,,59,0,11,,,,,,,,,,,,,,,10,,,77,0
16740,note_on,,61,0,10,,,,,,,,,,,,,,,8,,,53,88
16740,note_on,,61,0,14,,,,,,,,,,,,,,,13,,,53,72
16740,note_on,,1,0,12,,,,,,,,,,,,,,,11,,,69,72
16740,note_on,,61,0,13,,,,,,,,,,,,,,,12,,,65,72
16740,note_on,,61,0,6,,,,,,,,,,,,,,,1,,,53,72
16740,note_on,,1,0,11,,,,,,,,,,,,,,,10,,,72,72
16740,note_on,,61,0,15,,,,,,,,,,,,,,,14,,,53,72
16799,note_on,,59,0,15,,,,,,,,,,,,,,,14,,,53,0
16799,note_on,,59,0,12,,,,,,,,,,,,,,,11,,,69,0
16799,note_on,,59,0,11,,,,,,,,,,,,,,,10,,,72,0
16799,note_on,,59,0,10,,,,,,,,,,,,,,,8,,,53,0
16799,note_on,,59,0,13,,,,,,,,,,,,,,,12,,,65,0
16799,note_on,,59,0,6,,,,,,,,,,,,,,,1,,,53,0
16799,note_on,,59,0,14,,,,,,,,,,,,,,,13,,,53,0
16800,note_on,,0,0,15,,,,,,,,,,,,,,,14,,,70,72
16800,note_on,,0,0,15,,,,,,,,,,,,,,,14,,,62,72
16800,note_on,,1,0,11,,,,,,,,,,,,,,,10,,,74,72
16800,note_on,,1,0,13,,,,,,,,,,,,,,,12,,,65,72
16800,note_on,,0,0,15,,,,,,,,,,,,,,,14,,,74,72
16800,note_on,,0,0,15,,,,,,,,,,,,,,,14,,,65,72
16800,note_on,,1,0,10,,,,,,,,,,,,,,,8,,,58,88
16800,note_on,,1,0,15,,,,,,,,,,,,,,,14,,,58,72
16800,note_on,,1,0,6,,,,,,,,,,,,,,,1,,,58,72
16800,note_on,,1,0,14,,,,,,,,,,,,,,,13,,,58,72
16800,note_on,,1,0,12,,,,,,,,,,,,,,,11,,,70,72
16859,note_on,,59,0,15,,,,,,,,,,,,,,,14,,,58,0
16859,note_on,,0,0,15,,,,,,,,,,,,,,,14,,,62,0
16859,note_on,,59,0,14,,,,,,,,,,,,,,,13,,,58,0
16859,note_on,,59,0,10,,,,,,,,,,,,,,,8,,,58,0
16859,note_on,,59,0,6,,,,,,,,,,,,,,,1,,,58,0
16860,note_on,,1,0,10,,,,,,,,,,,,,,,8,,,58,88
16860,note_on,,1,0,6,,,,,,,,,,,,,,,1,,,58,72
16860,note_on,,0,0,15,,,,,,,,,,,,,,,14,,,62,72
16860,note_on,,1,0,15,,,,,,,,,,,,,,,14,,,58,72
16860,note_on,,1,0,14,,,,,,,,,,,,,,,13,,,58,72
16919,note_on,,59,0,10,,,,,,,,,,,,,,,8,,,58,0
16919,note_on,,119,0,13,,,,,,,,,,,,,,,12,,,65,0
16919,note_on,,59,0,14,,,,,,,,,,,,,,,13,,,58,0
16919,note_on,,59,0,6,,,,,,,,,,,,,,,1,,,58,0
16919,note_on,,0,0,15,,,,,,,,,,,,,,,14,,,62,0
16919,note_on,,119,0,11,,,,,,,,,,,,,,,10,,,74,0
16919,note_on,,0,0,15,,,,,,,,,,,,,,,14,,,58,0
16919,note_on,,0,0,15,,,,,,,,,,,,,,,14,,,70,0
16919,note_on,,0,0,15,,,,,,,,,,,,,,,14,,,65,0
16919,note_on,,119,0,12,,,,,,,,,,,,,,,11,,,70,0
16919,note_on,,59,0,15,,,,,,,,,,,,,,,14,,,74,0
16920,note_on,,1,0,6,,,,,,,,,,,,,,,1,,,58,72
16920,note_on,,1,0,10,,,,,,,,,,,,,,,8,,,58,88
16920,note_on,,1,0,14,,,,,,,,,,,,,,,13,,,58,72
16920,note_on,,0,0,15,,,,,,,,,,,,,,,14,,,62,72
16920,note_on,,1,0,15,,,,,,,,,,,,,,,14,,,58,72
16979,note_on,,0,0,15,,,,,,,,,,,,,,,14,,,62,0
16979,note_on,,59,0,15,,,,,,,,,,,,,,,14,,,58,0
16979,note_on,,59,0,14,,,,,,,,,,,,,,,13,,,58,0
16979,note_on,,59,0,10,,,,,,,,,,,,,,,8,,,58,0
16979,note_on,,59,0,6,,,,,,,,,,,,,,,1,,,58,0
16980,note_on,,0,0,15,,,,,,,,,,,,,,,14,,,62,72
16980,note_on,,301,0,7,,,,,,,,,,,,,,,5,,,70,88
16980,note_on,,301,0,5,,,,,,,,,,,,,,,0,,,70,72
16980,note_on,,1,0,6,,,,,,,,,,,,,,,1,,,58,72
16980,note_on,,1,0,10,,,,,,,,,,,,,,,8,,,58,88
16980,note_on,,1,0,15,,,,,,,,,,,,,,,14,,,58,72
16980,note_on,,1,0,14,,,,,,,,,,,,,,,13,,,58,72
17039,note_on,,59,0,6,,,,,,,,,,,,,,,1,,,58,0
17039,note_on,,59,0,14,,,,,,,,,,,,,,,13,,,58,0
17039,note_on,,59,0,5,,,,,,,,,,,,,,,0,,,70,0
17039,note_on,,59,0,7,,,,,,,,,,,,,,,5,,,70,0
17039,note_on,,59,0,15,,,,,,,,,,,,,,,14,,,58,0
17039,note_on,,0,0,15,,,,,,,,,,,,,,,14,,,62,0
17039,note_on,,59,0,10,,,,,,,,,,,,,,,8,,,58,0
17040,note_on,,1,0,14,,,,,,,,,,,,,,,13,,,57,72
17040,note_on,,0,0,15,,,,,,,,,,,,,,,14,,,60,72
17040,note_on,,0,0,15,,,,,,,,,,,,,,,14,,,77,72
17040,note_on,,1,0,15,,,,,,,,,,,,,,,14,,,57,72
17040,note_on,,0,0,15,,,,,,,,,,,,,,,14,,,65,72
17040,note_on,,121,0,13,,,,,,,,,,,,,,,12,,,69,72
17040,note_on,,1,0,6,,,,,,,,,,,,,,,1,,,57,72
17040,note_on,,1,0,7,,,,,,,,,,,,,,,5,,,77,88
17040,note_on,,121,0,12,,,,,,,,,,,,,,,11,,,72,72
17040,note_on,,1,0,10,,,,,,,,,,,,,,,8,,,57,88
17040,note_on,,0,0,15,,,,,,,,,,,,,,,14,,,72,72
17040,note_on,,1,0,5,,,,,,,,,,,,,,,0,,,77,72
17040,note_on,,121,0,11,,,,,,,,,,,,,,,10,,,77,72
17099,note_on,,59,0,6,,,,,,,,,,,,,,,1,,,57,0
17099,note_on,,59,0,10,,,,,,,,,,,,,,,8,,,57,0
17099,note_on,,59,0,5,,,,,,,,,,,,,,,0,,,77,0
17099,note_on,,59,0,15,,,,,,,,,,,,,,,14,,,57,0
17099,note_on,,59,0,7,,,,,,,,,,,,,,,5,,,77,0
17099,note_on,,59,0,14,,,,,,,,,,,,,,,13,,,57,0
17099,note_on,,0,0,15,,,,,,,,,,,,,,,14,,,60,0
17100,note_on,,1,0,15,,,,,,,,,,,,,,,14,,,55,72
17100,note_on,,0,0,15,,,,,,,,,,,,,,,14,,,58,72
17100,note_on,,1,0,7,,,,,,,,,,,,,,,5,,,77,88
17100,note_on,,1,0,14,,,,,,,,,,,,,,,13,,,55,72
17100,note_on,,1,0,6,,,,,,,,,,,,,,,1,,,55,72
17100,note_on,,1,0,10,,,,,,,,,,,,,,,8,,,55,88
17100,note_on,,1,0,5,,,,,,,,,,,,,,,0,,,77,72
17159,note_on,,0,0,15,,,,,,,,,,,,,,,14,,,65,0
17159,note_on,,59,0,7,,,,,,,,,,,,,,,5,,,77,0
17159,note_on,,119,0,13,,,,,,,,,,,,,,,12,,,69,0
17159,note_on,,59,0,15,,,,,,,,,,,,,,,14,,,77,0
17159,note_on,,119,0,12,,,,,,,,,,,,,,,11,,,72,0
17159,note_on,,119,0,11,,,,,,,,,,,,,,,10,,,77,0
17159,note_on,,0,0,15,,,,,,,,,,,,,,,14,,,58,0
17159,note_on,,0,0,15,,,,,,,,,,,,,,,14,,,72,0
17159,note_on,,0,0,15,,,,,,,,,,,,,,,14,,,55,0
17159,note_on,,59,0,6,,,,,,,,,,,,,,,1,,,55,0
17159,note_on,,59,0,14,,,,,,,,,,,,,,,13,,,55,0
17159,note_on,,59,0,10,,,,,,,,,,,,,,,8,,,55,0
17159,note_on,,59,0,5,,,,,,,,,,,,,,,0,,,77,0
17160,note_on,,1,0,6,,,,,,,,,,,,,,,1,,,57,72
17160,note_on,,1,0,14,,,,,,,,,,,,,,,13,,,57,72
17160,note_on,,1,0,7,,,,,,,,,,,,,,,5,,,77,88
17160,note_on,,1,0,10,,,,,,,,,,,,,,,8,,,57,88
17160,note_on,,1,0,15,,,,,,,,,,,,,,,14,,,60,72
17160,note_on,,0,0,15,,,,,,,,,,,,,,,14,,,57,72
17160,note_on,,1,0,5,,,,,,,,,,,,,,,0,,,77,72
17219,note_on,,59,0,7,,,,,,,,,,,,,,,5,,,77,0
17219,note_on,,59,0,10,,,,,,,,,,,,,,,8,,,57,0
17219,note_on,,59,0,6,,,,,,,,,,,,,,,1,,,57,0
17219,note_on,,59,0,5,,,,,,,,,,,,,,,0,,,77,0
17219,note_on,,59,0,14,,,,,,,,,,,,,,,13,,,57,0
17219,note_on,,59,0,15,,,,,,,,,,,,,,,14,,,60,0
17219,note_on,,0,0,15,,,,,,,,,,,,,,,14,,,57,0
17220,note_on,,1,0,5,,,,,,,,,,,,,,,0,,,77,72
17220,note_on,,0,0,15,,,,,,,,,,,,,,,14,,,57,72
17220,note_on,,1,0,15,,,,,,,,,,,,,,,14,,,53,72
17220,note_on,,1,0,6,,,,,,,,,,,,,,,1,,,53,72
17220,note_on,,1,0,14,,,,,,,,,,,,,,,13,,,53,72
17220,note_on,,541,0,9,,,,,,,,,,,,,,,7,,,57,88
17220,note_on,,1,0,10,,,,,,,,,,,,,,,8,,,53,88
17220,note_on,,1,0,7,,,,,,,,,,,,,,,5,,,77,88
17279,note_on,,59,0,5,,,,,,,,,,,,,,,0,,,77,0
17279,note_on,,59,0,6,,,,,,,,,,,,,,,1,,,53,0
17279,note_on,,59,0,10,,,,,,,,,,,,,,,8,,,53,0
17279,note_on,,59,0,7,,,,,,,,,,,,,,,5,,,77,0
17279,note_on,,59,0,9,,,,,,,,,,,,,,,7,,,57,0
17279,note_on,,59,0,15,,,,,,,,,,,,,,,14,,,53,0
17279,note_on,,59,0,14,,,,,,,,,,,,,,,13,,,53,0
17279,note_on,,0,0,15,,,,,,,,,,,,,,,14,,,57,0
17280,note_on,,0,0,15,,,,,,,,,,,,,,,14,,,75,72
17280,note_on,,121,0,12,,,,,,,,,,,,,,,11,,,72,72
17280,note_on,,121,0,11,,,,,,,,,,,,,,,10,,,75,72
17280,note_on,,1,0,10,,,,,,,,,,,,,,,8,,,60,88
17280,note_on,,1,0,6,,,,,,,,,,,,,,,1,,,60,72
17280,note_on,,121,0,13,,,,,,,,,,,,,,,12,,,67,72
17280,note_on,,0,0,15,,,,,,,,,,,,,,,14,,,72,72
17280,note_on,,1,0,5,,,,,,,,,,,,,,,0,,,75,72
17280,note_on,,0,0,15,,,,,,,,,,,,,,,14,,,63,72
17280,note_on,,0,0,15,,,,,,,,,,,,,,,14,,,67,72
17280,note_on,,1,0,9,,,,,,,,,,,,,,,7,,,60,88
17280,note_on,,1,0,15,,,,,,,,,,,,,,,14,,,60,72
17280,note_on,,1,0,14,,,,,,,,,,,,,,,13,,,60,72
17280,note_on,,1,0,7,,,,,,,,,,,,,,,5,,,75,88
17339,note_on,,59,0,5,,,,,,,,,,,,,,,0,,,75,0
17339,note_on,,59,0,9,,,,,,,,,,,,,,,7,,,60,0
17339,note_on,,59,0,7,,,,,,,,,,,,,,,5,,,75,0
17340,note_on,,1,0,9,,,,,,,,,,,,,,,7,,,60,88
17340,note_on,,1,0,5,,,,,,,,,,,,,,,0,,,74,72
17340,note_on,,1,0,7,,,,,,,,,,,,,,,5,,,74,88
17399,note_on,,0,0,15,,,,,,,,,,,,,,,14,,,75,0
17399,note_on,,119,0,6,,,,,,,,,,,,,,,1,,,60,0
17399,note_on,,59,0,7,,,,,,,,,,,,,,,5,,,74,0
17399,note_on,,119,0,12,,,,,,,,,,,,,,,11,,,72,0
17399,note_on,,119,0,11,,,,,,,,,,,,,,,10,,,75,0
17399,note_on,,59,0,9,,,,,,,,,,,,,,,7,,,60,0
17399,note_on,,119,0,14,,,,,,,,,,,,,,,13,,,60,0
17399,note_on,,119,0,10,,,,,,,,,,,,,,,8,,,60,0
17399,note_on,,0,0,15,,,,,,,,,,,,,,,14,,,72,0
17399,note_on,,0,0,15,,,,,,,,,,,,,,,14,,,63,0
17399,note_on,,119,0,13,,,,,,,,,,,,,,,12,,,67,0
17399,note_on,,0,0,15,,,,,,,,,,,,,,,14,,,67,0
17399,note_on,,59,0,5,,,,,,,,,,,,,,,0,,,74,0
17399,note_on,,119,0,15,,,,,,,,,,,,,,,14,,,60,0
17400,note_on,,1,0,9,,,,,,,,,,,,,,,7,,,60,88
17400,note_on,,1,0,15,,,,,,,,,,,,,,,14,,,48,72
17400,note_on,,0,0,15,,,,,,,,,,,,,,,14,,,55,72
17400,note_on,,1,0,5,,,,,,,,,,,,,,,0,,,75,72
17400,note_on,,1,0,6,,,,,,,,,,,,,,,1,,,48,72
17400,note_on,,1,0,14,,,,,,,,,,,,,,,13,,,48,72
17400,note_on,,1,0,7,,,,,,,,,,,,,,,5,,,75,88
17400,note_on,,1,0,10,,,,,,,,,,,,,,,8,,,48,88
17459,note_on,,59,0,7,,,,,,,,,,,,,,,5,,,75,0
17459,note_on,,59,0,10,,,,,,,,,,,,,,,8,,,48,0
17459,note_on,,59,0,5,,,,,,,,,,,,,,,0,,,75,0
17459,note_on,,59,0,9,,,,,,,,,,,,,,,7,,,60,0
17460,note_on,,1,0,5,,,,,,,,,,,,,,,0,,,72,72
17460,note_on,,1,0,9,,,,,,,,,,,,,,,7,,,60,88
17460,note_on,,1,0,10,,,,,,,,,,,,,,,8,,,48,88
17460,note_on,,1,0,7,,,,,,,,,,,,,,,5,,,72,88
17519,note_on,,119,0,14,,,,,,,,,,,,,,,13,,,48,0
17519,note_on,,59,0,10,,,,,,,,,,,,,,,8,,,48,0
17519,note_on,,59,0,7,,,,,,,,,,,,,,,5,,,72,0
17519,note_on,,59,0,5,,,,,,,,,,,,,,,0,,,72,0
17519,note_on,,59,0,9,,,,,,,,,,,,,,,7,,,60,0
17519,note_on,,119,0,15,,,,,,,,,,,,,,,14,,,48,0
17519,note_on,,0,0,15,,,,,,,,,,,,,,,14,,,55,0
17519,note_on,,119,0,6,,,,,,,,,,,,,,,1,,,48,0
17520,note_on,,1,0,9,,,,,,,,,,,,,,,7,,,58,88
17520,note_on,,1,0,7,,,,,,,,,,,,,,,5,,,74,88
17520,note_on,,1,0,10,,,,,,,,,,,,,,,8,,,55,88
17520,note_on,,121,0,13,,,,,,,,,,,,,,,12,,,67,72
17520,note_on,,0,0,15,,,,,,,,,,,,,,,14,,,67,72
17520,note_on,,1,0,14,,,,,,,,,,,,,,,13,,,55,72
17520,note_on,,121,0,11,,,,,,,,,,,,,,,10,,,74,72
17520,note_on,,1,0,6,,,,,,,,,,,,,,,1,,,55,72
17520,note_on,,1,0,5,,,,,,,,,,,,,,,0,,,74,72
17520,note_on,,1,0,15,,,,,,,,,,,,,,,14,,,55,72
17520,note_on,,0,0,15,,,,,,,,,,,,,,,14,,,79,72
17520,note_on,,0,0,15,,,,,,,,,,,,,,,14,,,74,72
17520,note_on,,121,0,12,,,,,,,,,,,,,,,11,,,70,72
17520,note_on,,0,0,15,,,,,,,,,,,,,,,14,,,58,72
17579,note_on,,59,0,9,,,,,,,,,,,,,,,7,,,58,0
17579,note_on,,59,0,7,,,,,,,,,,,,,,,5,,,74,0
17579,note_on,,59,0,5,,,,,,,,,,,,,,,0,,,74,0
17580,note_on,,1,0,9,,,,,,,,,,,,,,,7,,,57,88
17580,note_on,,1,0,7,,,,,,,,,,,,,,,5,,,72,88
17580,note_on,,1,0,5,,,,,,,,,,,,,,,0,,,72,72
17639,note_on,,119,0,12,,,,,,,,,,,,,,,11,,,70,0
17639,note_on,,119,0,11,,,,,,,,,,,,,,,10,,,74,0
17639,note_on,,59,0,7,,,,,,,,,,,,,,,5,,,72,0
17639,note_on,,59,0,9,,,,,,,,,,,,,,,7,,,57,0
17639,note_on,,119,0,13,,,,,,,,,,,,,,,12,,,67,0
17639,note_on,,59,0,5,,,,,,,,,,,,,,,0,,,72,0
17640,note_on,,1,0,7,,,,,,,,,,,,,,,5,,,74,88
17640,note_on,,1,0,5,,,,,,,,,,,,,,,0,,,74,72
17640,note_on,,1,0,9,,,,,,,,,,,,,,,7,,,58,88
17699,note_on,,0,0,15,,,,,,,,,,,,,,,14,,,79,0
17699,note_on,,0,0,15,,,,,,,,,,,,,,,14,,,74,0
17699,note_on,,179,0,14,,,,,,,,,,,,,,,13,,,55,0
17699,note_on,,179,0,10,,,,,,,,,,,,,,,8,,,55,0
17699,note_on,,179,0,6,,,,,,,,,,,,,,,1,,,55,0
17699,note_on,,59,0,9,,,,,,,,,,,,,,,7,,,58,0
17699,note_on,,0,0,15,,,,,,,,,,,,,,,14,,,58,0
17699,note_on,,59,0,7,,,,,,,,,,,,,,,5,,,74,0
17699,note_on,,59,0,5,,,,,,,,,,,,,,,0,,,74,0
17699,note_on,,179,0,15,,,,,,,,,,,,,,,14,,,55,0
17699,note_on,,0,0,15,,,,,,,,,,,,,,,14,,,67,0
17700,note_on,,1,0,7,,,,,,,,,,,,,,,5,,,76,88
17700,note_on,,1,0,6,,,,,,,,,,,,,,,1,,,55,72
17700,note_on,,1,0,14,,,,,,,,,,,,,,,13,,,55,72
17700,note_on,,1,0,9,,,,,,,,,,,,,,,7,,,55,88
17700,note_on,,1,0,10,,,,,,,,,,,,,,,8,,,55,88
17700,note_on,,0,0,15,,,,,,,,,,,,,,,14,,,58,72
17700,note_on,,0,0,15,,,,,,,,,,,,,,,14,,,67,72
17700,note_on,,0,0,15,,,,,,,,,,,,,,,14,,,74,72
17700,note_on,,0,0,15,,,,,,,,,,,,,,,14,,,79,72
17700,note_on,,1,0,15,,,,,,,,,,,,,,,14,,,55,72
17700,note_on,,1,0,5,,,,,,,,,,,,,,,0,,,76,72
17759,note_on,,0,0,15,,,,,,,,,,,,,,,14,,,58,0
17759,note_on,,0,0,15,,,,,,,,,,,,,,,14,,,74,0
17759,note_on,,0,0,15,,,,,,,,,,,,,,,14,,,79,0
17759,note_on,,59,0,15,,,,,,,,,,,,,,,14,,,55,0
17759,note_on,,59,0,10,,,,,,,,,,,,,,,8,,,55,0
17759,note_on,,59,0,9,,,,,,,,,,,,,,,7,,,55,0
17759,note_on,,59,0,5,,,,,,,,,,,,,,,0,,,76,0
17759,note_on,,59,0,7,,,,,,,,,,,,,,,5,,,76,0
17759,note_on,,59,0,14,,,,,,,,,,,,,,,13,,,55,0
17759,note_on,,0,0,15,,,,,,,,,,,,,,,14,,,67,0
17759,note_on,,59,0,6,,,,,,,,,,,,,,,1,,,55,0
17760,note_on,,121,0,11,,,,,,,,,,,,,,,10,,,78,72
17760,note_on,,121,0,13,,,,,,,,,,,,,,,12,,,69,72
17760,note_on,,1,0,7,,,,,,,,,,,,,,,5,,,78,88
17760,note_on,,1,0,14,,,,,,,,,,,,,,,13,,,50,72
17760,note_on,,1,0,5,,,,,,,,,,,,,,,0,,,78,72
17760,note_on,,1,0,6,,,,,,,,,,,,,,,1,,,50,72
17760,note_on,,1,0,9,,,,,,,,,,,,,,,7,,,57,88
17760,note_on,,0,0,15,,,,,,,,,,,,,,,14,,,57,72
17760,note_on,,0,0,15,,,,,,,,,,,,,,,14,,,69,72
17760,note_on,,0,0,15,,,,,,,,,,,,,,,14,,,74,72
17760,note_on,,121,0,12,,,,,,,,,,,,,,,11,,,74,72
17760,note_on,,1,0,10,,,,,,,,,,,,,,,8,,,50,88
17760,note_on,,1,0,15,,,,,,,,,,,,,,,14,,,50,72
17760,note_on,,0,0,15,,,,,,,,,,,,,,,14,,,78,72
17819,note_on,,59,0,13,,,,,,,,,,,,,,,12,,,69,0
17819,note_on,,59,0,11,,,,,,,,,,,,,,,10,,,78,0
17819,note_on,,59,0,12,,,,,,,,,,,,,,,11,,,74,0
17820,note_on,,1,0,11,,,,,,,,,,,,,,,10,,,69,72
17820,note_on,,1,0,13,,,,,,,,,,,,,,,12,,,62,72
17820,note_on,,1,0,12,,,,,,,,,,,,,,,11,,,66,72
17849,note_on,,89,0,7,,,,,,,,,,,,,,,5,,,78,0
17849,note_on,,89,0,5,,,,,,,,,,,,,,,0,,,78,0
17850,note_on,,1,0,7,,,,,,,,,,,,,,,5,,,76,88
17850,note_on,,1,0,5,,,,,,,,,,,,,,,0,,,76,72
17879,note_on,,119,0,10,,,,,,,,,,,,,,,8,,,50,0
17879,note_on,,119,0,14,,,,,,,,,,,,,,,13,,,50,0
17879,note_on,,59,0,11,,,,,,,,,,,,,,,10,,,69,0
17879,note_on,,29,0,5,,,,,,,,,,,,,,,0,,,76,0
17879,note_on,,0,0,15,,,,,,,,,,,,,,,14,,,69,0
17879,note_on,,0,0,15,,,,,,,,,,,,,,,14,,,74,0
17879,note_on,,119,0,6,,,,,,,,,,,,,,,1,,,50,0
17879,note_on,,59,0,12,,,,,,,,,,,,,,,11,,,66,0
17879,note_on,,119,0,9,,,,,,,,,,,,,,,7,,,57,0
17879,note_on,,0,0,15,,,,,,,,,,,,,,,14,,,78,0
17879,note_on,,29,0,7,,,,,,,,,,,,,,,5,,,76,0
17879,note_on,,119,0,15,,,,,,,,,,,,,,,14,,,50,0
17879,note_on,,0,0,15,,,,,,,,,,,,,,,14,,,57,0
17879,note_on,,59,0,13,,,,,,,,,,,,,,,12,,,62,0
17880,note_on,,1,0,6,,,,,,,,,,,,,,,1,,,50,72
17880,note_on,,1,0,11,,,,,,,,,,,,,,,10,,,74,72
17880,note_on,,1,0,10,,,,,,,,,,,,,,,8,,,50,88
17880,note_on,,1,0,9,,,,,,,,,,,,,,,7,,,57,88
17880,note_on,,1,0,5,,,,,,,,,,,,,,,0,,,74,72
17880,note_on,,1,0,13,,,,,,,,,,,,,,,12,,,66,72
17880,note_on,,0,0,15,,,,,,,,,,,,,,,14,,,57,72
17880,note_on,,1,0,7,,,,,,,,,,,,,,,5,,,74,88
17880,note_on,,0,0,15,,,,,,,,,,,,,,,14,,,62,72
17880,note_on,,0,0,15,,,,,,,,,,,,,,,14,,,66,72
17880,note_on,,1,0,14,,,,,,,,,,,,,,,13,,,50,72
17880,note_on,,0,0,15,,,,,,,,,,,,,,,14,,,69,72
17880,note_on,,1,0,12,,,,,,,,,,,,,,,11,,,69,72
17880,note_on,,1,0,15,,,,,,,,,,,,,,,14,,,50,72
17939,note_on,,59,0,11,,,,,,,,,,,,,,,10,,,74,0
17939,note_on,,59,0,15,,,,,,,,,,,,,,,14,,,50,0
17939,note_on,,59,0,12,,,,,,,,,,,,,,,11,,,69,0
17939,note_on,,59,0,13,,,,,,,,,,,,,,,12,,,66,0
17939,note_on,,59,0,14,,,,,,,,,,,,,,,13,,,50,0
17939,note_on,,59,0,6,,,,,,,,,,,,,,,1,,,50,0
17940,note_on,,1,0,12,,,,,,,,,,,,,,,11,,,62,72
17940,note_on,,1,0,14,,,,,,,,,,,,,,,13,,,48,72
17940,note_on,,1,0,6,,,,,,,,,,,,,,,1,,,48,72
17940,note_on,,1,0,13,,,,,,,,,,,,,,,12,,,69,72
17940,note_on,,1,0,11,,,,,,,,,,,,,,,10,,,66,72
17940,note_on,,1,0,15,,,,,,,,,,,,,,,14,,,48,72
17940,note_on,,1261,0,8,,,,,,,,,,,,,,,6,,,62,88
17999,note_on,,59,0,6,,,,,,,,,,,,,,,1,,,48,0
17999,note_on,,59,0,11,,,,,,,,,,,,,,,10,,,66,0
17999,note_on,,59,0,8,,,,,,,,,,,,,,,6,,,62,0
17999,note_on,,0,0,15,,,,,,,,,,,,,,,14,,,48,0
17999,note_on,,59,0,12,,,,,,,,,,,,,,,11,,,62,0
17999,note_on,,0,0,15,,,,,,,,,,,,,,,14,,,57,0
17999,note_on,,0,0,15,,,,,,,,,,,,,,,14,,,66,0
17999,note_on,,59,0,15,,,,,,,,,,,,,,,14,,,69,0
17999,note_on,,59,0,13,,,,,,,,,,,,,,,12,,,69,0
17999,note_on,,119,0,7,,,,,,,,,,,,,,,5,,,74,0
17999,note_on,,119,0,5,,,,,,,,,,,,,,,0,,,74,0
17999,note_on,,119,0,9,,,,,,,,,,,,,,,7,,,57,0
17999,note_on,,59,0,14,,,,,,,,,,,,,,,13,,,48,0
17999,note_on,,0,0,15,,,,,,,,,,,,,,,14,,,62,0
17999,note_on,,119,0,10,,,,,,,,,,,,,,,8,,,50,0
18000,note_on,,1,0,15,,,,,,,,,,,,,,,14,,,46,72
18000,note_on,,0,0,15,,,,,,,,,,,,,,,14,,,55,72
18000,note_on,,0,0,15,,,,,,,,,,,,,,,14,,,62,72
18000,note_on,,0,0,15,,,,,,,,,,,,,,,14,,,67,72
18000,note_on,,0,0,15,,,,,,,,,,,,,,,14,,,74,72
18000,note_on,,1,0,6,,,,,,,,,,,,,,,1,,,46,72
18000,note_on,,1,0,8,,,,,,,,,,,,,,,6,,,67,88
18000,note_on,,1,0,14,,,,,,,,,,,,,,,13,,,46,72
18059,note_on,,0,0,15,,,,,,,,,,,,,,,14,,,74,0
18059,note_on,,59,0,15,,,,,,,,,,,,,,,14,,,46,0
18059,note_on,,59,0,14,,,,,,,,,,,,,,,13,,,46,0
18059,note_on,,59,0,6,,,,,,,,,,,,,,,1,,,46,0
18060,note_on,,0,0,15,,,,,,,,,,,,,,,14,,,70,72
18060,note_on,,1,0,15,,,,,,,,,,,,,,,14,,,55,72
18060,note_on,,1,0,14,,,,,,,,,,,,,,,13,,,55,72
18060,note_on,,1,0,6,,,,,,,,,,,,,,,1,,,55,72
18119,note_on,,0,0,15,,,,,,,,,,,,,,,14,,,62,0
18119,note_on,,0,0,15,,,,,,,,,,,,,,,14,,,70,0
18119,note_on,,59,0,15,,,,,,,,,,,,,,,14,,,55,0
18119,note_on,,59,0,6,,,,,,,,,,,,,,,1,,,55,0
18119,note_on,,0,0,15,,,,,,,,,,,,,,,14,,,67,0
18119,note_on,,119,0,8,,,,,,,,,,,,,,,6,,,67,0
18119,note_on,,0,0,15,,,,,,,,,,,,,,,14,,,55,0
18119,note_on,,59,0,14,,,,,,,,,,,,,,,13,,,55,0
18120,note_on,,1,0,14,,,,,,,,,,,,,,,13,,,54,72
18120,note_on,,1,0,6,,,,,,,,,,,,,,,1,,,54,72
18120,note_on,,1,0,15,,,,,,,,,,,,,,,14,,,54,72
18120,note_on,,0,0,15,,,,,,,,,,,,,,,14,,,69,72
18120,note_on,,0,0,15,,,,,,,,,,,,,,,14,,,62,72
18120,note_on,,1,0,8,,,,,,,,,,,,,,,6,,,69,88
18120,note_on,,0,0,15,,,,,,,,,,,,,,,14,,,57,72
18179,note_on,,59,0,14,,,,,,,,,,,,,,,13,,,54,0
18179,note_on,,0,0,15,,,,,,,,,,,,,,,14,,,57,0
18179,note_on,,59,0,15,,,,,,,,,,,,,,,14,,,54,0
18179,note_on,,0,0,15,,,,,,,,,,,,,,,14,,,69,0
18179,note_on,,0,0,15,,,,,,,,,,,,,,,14,,,62,0
18179,note_on,,59,0,6,,,,,,,,,,,,,,,1,,,54,0
18180,note_on,,1,0,6,,,,,,,,,,,,,,,1,,,50,72
18180,note_on,,1,0,15,,,,,,,,,,,,,,,14,,,50,72
18180,note_on,,0,0,15,,,,,,,,,,,,,,,14,,,74,72
18180,note_on,,0,0,15,,,,,,,,,,,,,,,14,,,57,72
18180,note_on,,0,0,15,,,,,,,,,,,,,,,14,,,65,72
18180,note_on,,0,0,15,,,,,,,,,,,,,,,14,,,69,72
18180,note_on,,1,0,14,,,,,,,,,,,,,,,13,,,50,72
18239,note_on,,0,0,15,,,,,,,,,,,,,,,14,,,57,0
18239,note_on,,59,0,6,,,,,,,,,,,,,,,1,,,50,0
18239,note_on,,0,0,15,,,,,,,,,,,,,,,14,,,65,0
18239,note_on,,0,0,15,,,,,,,,,,,,,,,14,,,69,0
18239,note_on,,0,0,15,,,,,,,,,,,,,,,14,,,74,0
18239,note_on,,59,0,15,,,,,,,,,,,,,,,14,,,50,0
18239,note_on,,119,0,8,,,,,,,,,,,,,,,6,,,69,0
18239,note_on,,59,0,14,,,,,,,,,,,,,,,13,,,50,0
18240,note_on,,0,0,15,,,,,,,,,,,,,,,14,,,67,72
18240,note_on,,1,0,15,,,,,,,,,,,,,,,14,,,55,72
18240,note_on,,0,0,15,,,,,,,,,,,,,,,14,,,70,72
18240,note_on,,0,0,15,,,,,,,,,,,,,,,14,,,58,72
18240,note_on,,1,0,6,,,,,,,,,,,,,,,1,,,55,72
18240,note_on,,1,0,8,,,,,,,,,,,,,,,6,,,70,88
18240,note_on,,0,0,15,,,,,,,,,,,,,,,14,,,62,72
18240,note_on,,1,0,14,,,,,,,,,,,,,,,13,,,55,72
18299,note_on,,0,0,15,,,,,,,,,,,,,,,14,,,70,0
18299,note_on,,59,0,6,,,,,,,,,,,,,,,1,,,55,0
18299,note_on,,59,0,15,,,,,,,,,,,,,,,14,,,55,0
18299,note_on,,59,0,14,,,,,,,,,,,,,,,13,,,55,0
18299,note_on,,59,0,8,,,,,,,,,,,,,,,6,,,70,0
18299,note_on,,0,0,15,,,,,,,,,,,,,,,14,,,67,0
18299,note_on,,0,0,15,,,,,,,,,,,,,,,14,,,62,0
18299,note_on,,0,0,15,,,,,,,,,,,,,,,14,,,58,0
18300,note_on,,1,0,6,,,,,,,,,,,,,,,1,,,48,72
18300,note_on,,1,0,15,,,,,,,,,,,,,,,14,,,48,72
18300,note_on,,0,0,15,,,,,,,,,,,,,,,14,,,57,72
18300,note_on,,1,0,14,,,,,,,,,,,,,,,13,,,48,72
18300,note_on,,1,0,8,,,,,,,,,,,,,,,6,,,72,88
18300,note_on,,0,0,15,,,,,,,,,,,,,,,14,,,75,72
18300,note_on,,0,0,15,,,,,,,,,,,,,,,14,,,67,72
18300,note_on,,0,0,15,,,,,,,,,,,,,,,14,,,72,72
18359,note_on,,59,0,15,,,,,,,,,,,,,,,14,,,48,0
18359,note_on,,0,0,15,,,,,,,,,,,,,,,14,,,67,0
18359,note_on,,0,0,15,,,,,,,,,,,,,,,14,,,75,0
18359,note_on,,0,0,15,,,,,,,,,,,,,,,14,,,72,0
18359,note_on,,0,0,15,,,,,,,,,,,,,,,14,,,57,0
18359,note_on,,59,0,8,,,,,,,,,,,,,,,6,,,72,0
18359,note_on,,59,0,6,,,,,,,,,,,,,,,1,,,48,0
18359,note_on,,59,0,14,,,,,,,,,,,,,,,13,,,48,0
18360,note_on,,1,0,14,,,,,,,,,,,,,,,13,,,50,72
18360,note_on,,1,0,8,,,,,,,,,,,,,,,6,,,69,88
18360,note_on,,0,0,15,,,,,,,,,,,,,,,14,,,62,72
18360,note_on,,0,0,15,,,,,,,,,,,,,,,14,,,69,72
18360,note_on,,0,0,15,,,,,,,,,,,,,,,14,,,74,72
18360,note_on,,0,0,15,,,,,,,,,,,,,,,14,,,54,72
18360,note_on,,1,0,15,,,,,,,,,,,,,,,14,,,50,72
18360,note_on,,1,0,6,,,,,,,,,,,,,,,1,,,50,72
18419,note_on,,59,0,6,,,,,,,,,,,,,,,1,,,50,0
18419,note_on,,0,0,15,,,,,,,,,,,,,,,14,,,74,0
18419,note_on,,0,0,15,,,,,,,,,,,,,,,14,,,54,0
18419,note_on,,0,0,15,,,,,,,,,,,,,,,14,,,62,0
18419,note_on,,0,0,15,,,,,,,,,,,,,,,14,,,69,0
18419,note_on,,59,0,14,,,,,,,,,,,,,,,13,,,50,0
18419,note_on,,59,0,15,,,,,,,,,,,,,,,14,,,50,0
18420,note_on,,0,0,15,,,,,,,,,,,,,,,14,,,66,72
18420,note_on,,0,0,15,,,,,,,,,,,,,,,14,,,69,72
18420,note_on,,1,0,15,,,,,,,,,,,,,,,14,,,62,72
18420,note_on,,421,0,11,,,,,,,,,,,,,,,10,,,78,72
18420,note_on,,421,0,10,,,,,,,,,,,,,,,8,,,58,88
18420,note_on,,421,0,13,,,,,,,,,,,,,,,12,,,62,72
18420,note_on,,1,0,6,,,,,,,,,,,,,,,1,,,62,72
18420,note_on,,421,0,9,,,,,,,,,,,,,,,7,,,62,88
18420,note_on,,421,0,7,,,,,,,,,,,,,,,5,,,78,88
18420,note_on,,421,0,12,,,,,,,,,,,,,,,11,,,69,72
18420,note_on,,421,0,5,,,,,,,,,,,,,,,0,,,78,72
18420,note_on,,1,0,14,,,,,,,,,,,,,,,13,,,62,72
18479,note_on,,59,0,11,,,,,,,,,,,,,,,10,,,78,0
18479,note_on,,59,0,6,,,,,,,,,,,,,,,1,,,62,0
18479,note_on,,59,0,14,,,,,,,,,,,,,,,13,,,62,0
18479,note_on,,0,0,15,,,,,,,,,,,,,,,14,,,66,0
18479,note_on,,0,0,15,,,,,,,,,,,,,,,14,,,69,0
18479,note_on,,59,0,15,,,,,,,,,,,,,,,14,,,62,0
18479,note_on,,59,0,9,,,,,,,,,,,,,,,7,,,62,0
18479,note_on,,59,0,10,,,,,,,,,,,,,,,8,,,58,0
18479,note_on,,59,0,5,,,,,,,,,,,,,,,0,,,78,0
18479,note_on,,59,0,7,,,,,,,,,,,,,,,5,,,78,0
18479,note_on,,119,0,8,,,,,,,,,,,,,,,6,,,69,0
18479,note_on,,59,0,13,,,,,,,,,,,,,,,12,,,62,0
18479,note_on,,59,0,12,,,,,,,,,,,,,,,11,,,69,0
18480,note_on,,1,0,5,,,,,,,,,,,,,,,0,,,79,72
18480,note_on,,1,0,13,,,,,,,,,,,,,,,12,,,62,72
18480,note_on,,1,0,14,,,,,,,,,,,,,,,13,,,55,72
18480,note_on,,1,0,12,,,,,,,,,,,,,,,11,,,70,72
18480,note_on,,1,0,7,,,,,,,,,,,,,,,5,,,79,88
18480,note_on,,1,0,9,,,,,,,,,,,,,,,7,,,58,88
18480,note_on,,1,0,8,,,,,,,,,,,,,,,6,,,67,88
18480,note_on,,1,0,15,,,,,,,,,,,,,,,14,,,55,72
18480,note_on,,0,0,15,,,,,,,,,,,,,,,14,,,70,72
18480,note_on,,0,0,15,,,,,,,,,,,,,,,14,,,67,72
18480,note_on,,0,0,15,,,,,,,,,,,,,,,14,,,62,72
18480,note_on,,1,0,10,,,,,,,,,,,,,,,8,,,55,88
18480,note_on,,1,0,11,,,,,,,,,,,,,,,10,,,79,72
18480,note_on,,1,0,6,,,,,,,,,,,,,,,1,,,55,72
18599,note_on,,119,0,10,,,,,,,,,,,,,,,8,,,55,0
18599,note_on,,119,0,5,,,,,,,,,,,,,,,0,,,79,0
18599,note_on,,119,0,13,,,,,,,,,,,,,,,12,,,62,0
18599,note_on,,119,0,12,,,,,,,,,,,,,,,11,,,70,0
18599,note_on,,119,0,8,,,,,,,,,,,,,,,6,,,67,0
18599,note_on,,119,0,11,,,,,,,,,,,,,,,10,,,79,0
18599,note_on,,119,0,9,,,,,,,,,,,,,,,7,,,58,0
18599,note_on,,119,0,6,,,,,,,,,,,,,,,1,,,55,0
18599,note_on,,0,0,15,,,,,,,,,,,,,,,14,,,70,0
18599,note_on,,0,0,15,,,,,,,,,,,,,,,14,,,67,0
18599,note_on,,0,0,15,,,,,,,,,,,,,,,14,,,62,0
18599,note_on,,119,0,7,,,,,,,,,,,,,,,5,,,79,0
18599,note_on,,119,0,15,,,,,,,,,,,,,,,14,,,55,0
18599,note_on,,119,0,14,,,,,,,,,,,,,,,13,,,55,0
18600,note_on,,1,0,11,,,,,,,,,,,,,,,10,,,78,72
18600,note_on,,1,0,9,,,,,,,,,,,,,,,7,,,60,88
18600,note_on,,1,0,7,,,,,,,,,,,,,,,5,,,78,88
18600,note_on,,1,0,12,,,,,,,,,,,,,,,11,,,72,72
18600,note_on,,1,0,6,,,,,,,,,,,,,,,1,,,57,72
18600,note_on,,1,0,5,,,,,,,,,,,,,,,0,,,78,72
18600,note_on,,1,0,13,,,,,,,,,,,,,,,12,,,69,72
18600,note_on,,1,0,14,,,,,,,,,,,,,,,13,,,57,72
18600,note_on,,0,0,15,,,,,,,,,,,,,,,14,,,60,72
18600,note_on,,0,0,15,,,,,,,,,,,,,,,14,,,66,72
18600,note_on,,0,0,15,,,,,,,,,,,,,,,14,,,69,72
18600,note_on,,1,0,15,,,,,,,,,,,,,,,14,,,57,72
18600,note_on,,1,0,10,,,,,,,,,,,,,,,8,,,57,88
18719,note_on,,119,0,12,,,,,,,,,,,,,,,11,,,72,0
18719,note_on,,119,0,11,,,,,,,,,,,,,,,10,,,78,0
18719,note_on,,0,0,15,,,,,,,,,,,,,,,14,,,69,0
18719,note_on,,119,0,14,,,,,,,,,,,,,,,13,,,57,0
18719,note_on,,0,0,15,,,,,,,,,,,,,,,14,,,66,0
18719,note_on,,119,0,7,,,,,,,,,,,,,,,5,,,78,0
18719,note_on,,119,0,10,,,,,,,,,,,,,,,8,,,57,0
18719,note_on,,119,0,5,,,,,,,,,,,,,,,0,,,78,0
18719,note_on,,119,0,13,,,,,,,,,,,,,,,12,,,69,0
18719,note_on,,119,0,6,,,,,,,,,,,,,,,1,,,57,0
18719,note_on,,0,0,15,,,,,,,,,,,,,,,14,,,60,0
18719,note_on,,119,0,15,,,,,,,,,,,,,,,14,,,57,0
18719,note_on,,119,0,9,,,,,,,,,,,,,,,7,,,60,0
18720,note_on,,1,0,7,,,,,,,,,,,,,,,5,,,79,88
18720,note_on,,1,0,12,,,,,,,,,,,,,,,11,,,74,72
18720,note_on,,1,0,11,,,,,,,,,,,,,,,10,,,79,72
18720,note_on,,1,0,15,,,,,,,,,,,,,,,14,,,58,72
18720,note_on,,1,0,14,,,,,,,,,,,,,,,13,,,58,72
18720,note_on,,1,0,13,,,,,,,,,,,,,,,12,,,67,72
18720,note_on,,0,0,15,,,,,,,,,,,,,,,14,,,67,72
18720,note_on,,1,0,5,,,,,,,,,,,,,,,0,,,79,72
18720,note_on,,1,0,10,,,,,,,,,,,,,,,8,,,58,88
18720,note_on,,1,0,6,,,,,,,,,,,,,,,1,,,58,72
18720,note_on,,1,0,9,,,,,,,,,,,,,,,7,,,62,88
18720,note_on,,0,0,15,,,,,,,,,,,,,,,14,,,62,72
18779,note_on,,59,0,9,,,,,,,,,,,,,,,7,,,62,0
18779,note_on,,0,0,15,,,,,,,,,,,,,,,14,,,62,0
18779,note_on,,59,0,5,,,,,,,,,,,,,,,0,,,79,0
18779,note_on,,59,0,7,,,,,,,,,,,,,,,5,,,79,0
18779,note_on,,59,0,15,,,,,,,,,,,,,,,14,,,58,0
18779,note_on,,59,0,14,,,,,,,,,,,,,,,13,,,58,0
18779,note_on,,59,0,10,,,,,,,,,,,,,,,8,,,58,0
18779,note_on,,59,0,6,,,,,,,,,,,,,,,1,,,58,0
18779,note_on,,59,0,12,,,,,,,,,,,,,,,11,,,74,0
18780,note_on,,1,0,6,,,,,,,,,,,,,,,1,,,60,72
18780,note_on,,1,0,10,,,,,,,,,,,,,,,8,,,60,88
18780,note_on,,1,0,14,,,,,,,,,,,,,,,13,,,60,72
18780,note_on,,1,0,15,,,,,,,,,,,,,,,14,,,60,72
18780,note_on,,0,0,15,,,,,,,,,,,,,,,14,,,63,72
18780,note_on,,1,0,7,,,,,,,,,,,,,,,5,,,75,88
18780,note_on,,1,0,9,,,,,,,,,,,,,,,7,,,67,88
18780,note_on,,1,0,12,,,,,,,,,,,,,,,11,,,75,72
18780,note_on,,1,0,5,,,,,,,,,,,,,,,0,,,75,72
18839,note_on,,119,0,13,,,,,,,,,,,,,,,12,,,67,0
18839,note_on,,59,0,9,,,,,,,,,,,,,,,7,,,67,0
18839,note_on,,59,0,7,,,,,,,,,,,,,,,5,,,75,0
18839,note_on,,59,0,10,,,,,,,,,,,,,,,8,,,60,0
18839,note_on,,119,0,11,,,,,,,,,,,,,,,10,,,79,0
18839,note_on,,59,0,14,,,,,,,,,,,,,,,13,,,60,0
18839,note_on,,59,0,6,,,,,,,,,,,,,,,1,,,60,0
18839,note_on,,0,0,15,,,,,,,,,,,,,,,14,,,60,0
18839,note_on,,59,0,15,,,,,,,,,,,,,,,14,,,67,0
18839,note_on,,59,0,12,,,,,,,,,,,,,,,11,,,75,0
18839,note_on,,59,0,5,,,,,,,,,,,,,,,0,,,75,0
18839,note_on,,0,0,15,,,,,,,,,,,,,,,14,,,63,0
18840,note_on,,1,0,15,,,,,,,,,,,,,,,14,,,57,72
18840,note_on,,0,0,15,,,,,,,,,,,,,,,14,,,72,72
18840,note_on,,0,0,15,,,,,,,,,,,,,,,14,,,60,72
18840,note_on,,1,0,14,,,,,,,,,,,,,,,13,,,57,72
18840,note_on,,1,0,10,,,,,,,,,,,,,,,8,,,57,88
18840,note_on,,1,0,12,,,,,,,,,,,,,,,11,,,72,72
18840,note_on,,1,0,5,,,,,,,,,,,,,,,0,,,72,72
18840,note_on,,1,0,9,,,,,,,,,,,,,,,7,,,66,88
18840,note_on,,0,0,15,,,,,,,,,,,,,,,14,,,66,72
18840,note_on,,1,0,11,,,,,,,,,,,,,,,10,,,78,72
18840,note_on,,1,0,6,,,,,,,,,,,,,,,1,,,57,72
18840,note_on,,1,0,7,,,,,,,,,,,,,,,5,,,72,88
18840,note_on,,1,0,13,,,,,,,,,,,,,,,12,,,72,72
18900,note_on,,301,0,8,,,,,,,,,,,,,,,6,,,60,88
18959,note_on,,119,0,13,,,,,,,,,,,,,,,12,,,72,0
18959,note_on,,59,0,8,,,,,,,,,,,,,,,6,,,60,0
18959,note_on,,119,0,6,,,,,,,,,,,,,,,1,,,57,0
18959,note_on,,119,0,9,,,,,,,,,,,,,,,7,,,66,0
18959,note_on,,119,0,11,,,,,,,,,,,,,,,10,,,78,0
18959,note_on,,119,0,15,,,,,,,,,,,,,,,14,,,57,0
18959,note_on,,119,0,14,,,,,,,,,,,,,,,13,,,57,0
18959,note_on,,0,0,15,,,,,,,,,,,,,,,14,,,72,0
18959,note_on,,0,0,15,,,,,,,,,,,,,,,14,,,66,0
18959,note_on,,119,0,5,,,,,,,,,,,,,,,0,,,72,0
18959,note_on,,119,0,10,,,,,,,,,,,,,,,8,,,57,0
18959,note_on,,119,0,7,,,,,,,,,,,,,,,5,,,72,0
18959,note_on,,119,0,12,,,,,,,,,,,,,,,11,,,72,0
18959,note_on,,0,0,15,,,,,,,,,,,,,,,14,,,60,0
18960,note_on,,1,0,13,,,,,,,,,,,,,,,12,,,62,72
18960,note_on,,1,0,8,,,,,,,,,,,,,,,6,,,67,88
18960,note_on,,1,0,11,,,,,,,,,,,,,,,10,,,79,72
18960,note_on,,1,0,9,,,,,,,,,,,,,,,7,,,67,88
18960,note_on,,0,0,15,,,,,,,,,,,,,,,14,,,62,72
18960,note_on,,1,0,14,,,,,,,,,,,,,,,13,,,55,72
18960,note_on,,0,0,15,,,,,,,,,,,,,,,14,,,67,72
18960,note_on,,0,0,15,,,,,,,,,,,,,,,14,,,70,72
18960,note_on,,1,0,15,,,,,,,,,,,,,,,14,,,55,72
18960,note_on,,1,0,10,,,,,,,,,,,,,,,8,,,55,88
18960,note_on,,1,0,5,,,,,,,,,,,,,,,0,,,70,72
18960,note_on,,1,0,12,,,,,,,,,,,,,,,11,,,70,72
18960,note_on,,1,0,7,,,,,,,,,,,,,,,5,,,70,88
18960,note_on,,1,0,6,,,,,,,,,,,,,,,1,,,55,72
19019,note_on,,59,0,6,,,,,,,,,,,,,,,1,,,55,0
19019,note_on,,0,0,15,,,,,,,,,,,,,,,14,,,62,0
19019,note_on,,59,0,14,,,,,,,,,,,,,,,13,,,55,0
19019,note_on,,59,0,15,,,,,,,,,,,,,,,14,,,55,0
19020,note_on,,0,0,15,,,,,,,,,,,,,,,14,,,58,72
19020,note_on,,1,0,15,,,,,,,,,,,,,,,14,,,55,72
19020,note_on,,1,0,14,,,,,,,,,,,,,,,13,,,55,72
19020,note_on,,1,0,6,,,,,,,,,,,,,,,1,,,55,72
19079,note_on,,119,0,13,,,,,,,,,,,,,,,12,,,62,0
19079,note_on,,0,0,15,,,,,,,,,,,,,,,14,,,55,0
19079,note_on,,0,0,15,,,,,,,,,,,,,,,14,,,58,0
19079,note_on,,119,0,11,,,,,,,,,,,,,,,10,,,79,0
19079,note_on,,0,0,15,,,,,,,,,,,,,,,14,,,67,0
19079,note_on,,119,0,8,,,,,,,,,,,,,,,6,,,67,0
19079,note_on,,59,0,14,,,,,,,,,,,,,,,13,,,55,0
19079,note_on,,59,0,6,,,,,,,,,,,,,,,1,,,55,0
19079,note_on,,119,0,9,,,,,,,,,,,,,,,7,,,67,0
19079,note_on,,119,0,10,,,,,,,,,,,,,,,8,,,55,0
19079,note_on,,119,0,5,,,,,,,,,,,,,,,0,,,70,0
19079,note_on,,119,0,12,,,,,,,,,,,,,,,11,,,70,0
19079,note_on,,119,0,7,,,,,,,,,,,,,,,5,,,70,0
19079,note_on,,59,0,15,,,,,,,,,,,,,,,14,,,70,0
19080,note_on,,1,0,14,,,,,,,,,,,,,,,13,,,54,72
19080,note_on,,0,0,15,,,,,,,,,,,,,,,14,,,62,72
19080,note_on,,0,0,15,,,,,,,,,,,,,,,14,,,69,72
19080,note_on,,1,0,15,,,,,,,,,,,,,,,14,,,57,72
19080,note_on,,0,0,15,,,,,,,,,,,,,,,14,,,54,72
19080,note_on,,1,0,6,,,,,,,,,,,,,,,1,,,54,72
19080,note_on,,1,0,8,,,,,,,,,,,,,,,6,,,67,88
19139,note_on,,59,0,6,,,,,,,,,,,,,,,1,,,54,0
19139,note_on,,59,0,14,,,,,,,,,,,,,,,13,,,54,0
19139,note_on,,59,0,15,,,,,,,,,,,,,,,14,,,57,0
19139,note_on,,0,0,15,,,,,,,,,,,,,,,14,,,54,0
19140,note_on,,1,0,14,,,,,,,,,,,,,,,13,,,50,72
19140,note_on,,1,0,6,,,,,,,,,,,,,,,1,,,50,72
19140,note_on,,0,0,15,,,,,,,,,,,,,,,14,,,54,72
19140,note_on,,1,0,15,,,,,,,,,,,,,,,14,,,50,72
19199,note_on,,0,0,15,,,,,,,,,,,,,,,14,,,54,0
19199,note_on,,0,0,15,,,,,,,,,,,,,,,14,,,50,0
19199,note_on,,0,0,15,,,,,,,,,,,,,,,14,,,62,0
19199,note_on,,59,0,15,,,,,,,,,,,,,,,14,,,69,0
19199,note_on,,59,0,14,,,,,,,,,,,,,,,13,,,50,0
19199,note_on,,59,0,6,,,,,,,,,,,,,,,1,,,50,0
19199,note_on,,119,0,8,,,,,,,,,,,,,,,6,,,67,0
19200,note_on,,1,0,8,,,,,,,,,,,,,,,6,,,70,88
19200,note_on,,121,0,13,,,,,,,,,,,,,,,12,,,67,72
19200,note_on,,121,0,11,,,,,,,,,,,,,,,10,,,74,72
19200,note_on,,0,0,15,,,,,,,,,,,,,,,14,,,62,72
19200,note_on,,0,0,15,,,,,,,,,,,,,,,14,,,58,72
19200,note_on,,1,0,6,,,,,,,,,,,,,,,1,,,55,72
19200,note_on,,121,0,12,,,,,,,,,,,,,,,11,,,70,72
19200,note_on,,0,0,15,,,,,,,,,,,,,,,14,,,67,72
19200,note_on,,1,0,14,,,,,,,,,,,,,,,13,,,55,72
19200,note_on,,1,0,15,,,,,,,,,,,,,,,14,,,55,72
19259,note_on,,59,0,15,,,,,,,,,,,,,,,14,,,55,0
19259,note_on,,0,0,15,,,,,,,,,,,,,,,14,,,58,0
19259,note_on,,59,0,14,,,,,,,,,,,,,,,13,,,55,0
19259,note_on,,0,0,15,,,,,,,,,,,,,,,14,,,62,0
19259,note_on,,59,0,6,,,,,,,,,,,,,,,1,,,55,0
19259,note_on,,59,0,8,,,,,,,,,,,,,,,6,,,70,0
19260,note_on,,1,0,14,,,,,,,,,,,,,,,13,,,48,72
19260,note_on,,0,0,15,,,,,,,,,,,,,,,14,,,63,72
19260,note_on,,0,0,15,,,,,,,,,,,,,,,14,,,60,72
19260,note_on,,1,0,8,,,,,,,,,,,,,,,6,,,72,88
19260,note_on,,1,0,6,,,,,,,,,,,,,,,1,,,48,72
19260,note_on,,1,0,15,,,,,,,,,,,,,,,14,,,48,72
19319,note_on,,119,0,11,,,,,,,,,,,,,,,10,,,74,0
19319,note_on,,119,0,13,,,,,,,,,,,,,,,12,,,67,0
19319,note_on,,119,0,12,,,,,,,,,,,,,,,11,,,70,0
19319,note_on,,0,0,15,,,,,,,,,,,,,,,14,,,60,0
19319,note_on,,59,0,8,,,,,,,,,,,,,,,6,,,72,0
19319,note_on,,59,0,6,,,,,,,,,,,,,,,1,,,48,0
19319,note_on,,0,0,15,,,,,,,,,,,,,,,14,,,63,0
19319,note_on,,0,0,15,,,,,,,,,,,,,,,14,,,48,0
19319,note_on,,59,0,15,,,,,,,,,,,,,,,14,,,67,0
19319,note_on,,59,0,14,,,,,,,,,,,,,,,13,,,48,0
19320,note_on,,1,0,14,,,,,,,,,,,,,,,13,,,50,72
19320,note_on,,1,0,6,,,,,,,,,,,,,,,1,,,50,72
19320,note_on,,1,0,15,,,,,,,,,,,,,,,14,,,50,72
19320,note_on,,0,0,15,,,,,,,,,,,,,,,14,,,66,72
19320,note_on,,0,0,15,,,,,,,,,,,,,,,14,,,57,72
19320,note_on,,1,0,8,,,,,,,,,,,,,,,6,,,69,88
19320,note_on,,0,0,15,,,,,,,,,,,,,,,14,,,62,72
19379,note_on,,59,0,14,,,,,,,,,,,,,,,13,,,50,0
19379,note_on,,59,0,15,,,,,,,,,,,,,,,14,,,50,0
19379,note_on,,59,0,6,,,,,,,,,,,,,,,1,,,50,0
19380,note_on,,1,0,14,,,,,,,,,,,,,,,13,,,62,72
19380,note_on,,1,0,6,,,,,,,,,,,,,,,1,,,62,72
19380,note_on,,61,0,11,,,,,,,,,,,,,,,10,,,78,72
19380,note_on,,301,0,9,,,,,,,,,,,,,,,7,,,62,88
19380,note_on,,61,0,12,,,,,,,,,,,,,,,11,,,69,72
19380,note_on,,61,0,13,,,,,,,,,,,,,,,12,,,62,72
19380,note_on,,1,0,15,,,,,,,,,,,,,,,14,,,62,72
19439,note_on,,0,0,15,,,,,,,,,,,,,,,14,,,62,0
19439,note_on,,59,0,15,,,,,,,,,,,,,,,14,,,66,0
19439,note_on,,59,0,9,,,,,,,,,,,,,,,7,,,62,0
19439,note_on,,59,0,6,,,,,,,,,,,,,,,1,,,62,0
19439,note_on,,59,0,12,,,,,,,,,,,,,,,11,,,69,0
19439,note_on,,119,0,8,,,,,,,,,,,,,,,6,,,69,0
19439,note_on,,0,0,15,,,,,,,,,,,,,,,14,,,57,0
19439,note_on,,59,0,13,,,,,,,,,,,,,,,12,,,62,0
19439,note_on,,59,0,11,,,,,,,,,,,,,,,10,,,78,0
19439,note_on,,0,0,15,,,,,,,,,,,,,,,14,,,62,0
19439,note_on,,59,0,14,,,,,,,,,,,,,,,13,,,62,0
19440,note_on,,1,0,9,,,,,,,,,,,,,,,7,,,67,88
19440,note_on,,1,0,8,,,,,,,,,,,,,,,6,,,67,88
19440,note_on,,1,0,11,,,,,,,,,,,,,,,10,,,79,72
19440,note_on,,1,0,13,,,,,,,,,,,,,,,12,,,60,72
19440,note_on,,1,0,15,,,,,,,,,,,,,,,14,,,58,72
19440,note_on,,0,0,15,,,,,,,,,,,,,,,14,,,67,72
19440,note_on,,0,0,15,,,,,,,,,,,,,,,14,,,62,72
19440,note_on,,1,0,6,,,,,,,,,,,,,,,1,,,58,72
19440,note_on,,1,0,14,,,,,,,,,,,,,,,13,,,58,72
19440,note_on,,1,0,12,,,,,,,,,,,,,,,11,,,70,72
19499,note_on,,59,0,9,,,,,,,,,,,,,,,7,,,67,0
19499,note_on,,59,0,13,,,,,,,,,,,,,,,12,,,60,0
19499,note_on,,59,0,6,,,,,,,,,,,,,,,1,,,58,0
19499,note_on,,59,0,14,,,,,,,,,,,,,,,13,,,58,0
19499,note_on,,0,0,15,,,,,,,,,,,,,,,14,,,62,0
19499,note_on,,59,0,15,,,,,,,,,,,,,,,14,,,58,0
19500,note_on,,1,0,13,,,,,,,,,,,,,,,12,,,67,72
19500,note_on,,1,0,6,,,,,,,,,,,,,,,1,,,57,72
19500,note_on,,1,0,9,,,,,,,,,,,,,,,7,,,67,88
19500,note_on,,1,0,14,,,,,,,,,,,,,,,13,,,57,72
19500,note_on,,0,0,15,,,,,,,,,,,,,,,14,,,60,72
19500,note_on,,1,0,15,,,,,,,,,,,,,,,14,,,57,72
19559,note_on,,59,0,13,,,,,,,,,,,,,,,12,,,67,0
19559,note_on,,0,0,15,,,,,,,,,,,,,,,14,,,60,0
19559,note_on,,59,0,15,,,,,,,,,,,,,,,14,,,57,0
19559,note_on,,59,0,14,,,,,,,,,,,,,,,13,,,57,0
19559,note_on,,119,0,8,,,,,,,,,,,,,,,6,,,67,0
19559,note_on,,119,0,12,,,,,,,,,,,,,,,11,,,70,0
19559,note_on,,59,0,6,,,,,,,,,,,,,,,1,,,57,0
19559,note_on,,119,0,11,,,,,,,,,,,,,,,10,,,79,0
19559,note_on,,59,0,9,,,,,,,,,,,,,,,7,,,67,0
19560,note_on,,1,0,6,,,,,,,,,,,,,,,1,,,58,72
19560,note_on,,0,0,15,,,,,,,,,,,,,,,14,,,62,72
19560,note_on,,1,0,14,,,,,,,,,,,,,,,13,,,58,72
19560,note_on,,1,0,9,,,,,,,,,,,,,,,7,,,67,88
19560,note_on,,1,0,13,,,,,,,,,,,,,,,12,,,67,72
19560,note_on,,1,0,15,,,,,,,,,,,,,,,14,,,58,72
19619,note_on,,59,0,15,,,,,,,,,,,,,,,14,,,67,0
19619,note_on,,59,0,6,,,,,,,,,,,,,,,1,,,58,0
19619,note_on,,59,0,14,,,,,,,,,,,,,,,13,,,58,0
19619,note_on,,59,0,9,,,,,,,,,,,,,,,7,,,67,0
19619,note_on,,59,0,13,,,,,,,,,,,,,,,12,,,67,0
19619,note_on,,0,0,15,,,,,,,,,,,,,,,14,,,58,0
19619,note_on,,0,0,15,,,,,,,,,,,,,,,14,,,62,0
19620,note_on,,1,0,14,,,,,,,,,,,,,,,13,,,55,72
19620,note_on,,1,0,9,,,,,,,,,,,,,,,7,,,67,88
19620,note_on,,1,0,13,,,,,,,,,,,,,,,12,,,67,72
19620,note_on,,541,0,10,,,,,,,,,,,,,,,8,,,55,88
19620,note_on,,1,0,15,,,,,,,,,,,,,,,14,,,55,72
19620,note_on,,0,0,15,,,,,,,,,,,,,,,14,,,70,72
19620,note_on,,0,0,15,,,,,,,,,,,,,,,14,,,67,72
19620,note_on,,0,0,15,,,,,,,,,,,,,,,14,,,62,72
19620,note_on,,1,0,6,,,,,,,,,,,,,,,1,,,55,72
19679,note_on,,0,0,15,,,,,,,,,,,,,,,14,,,67,0
19679,note_on,,0,0,15,,,,,,,,,,,,,,,14,,,62,0
19679,note_on,,59,0,13,,,,,,,,,,,,,,,12,,,67,0
19679,note_on,,59,0,10,,,,,,,,,,,,,,,8,,,55,0
19679,note_on,,0,0,15,,,,,,,,,,,,,,,14,,,70,0
19679,note_on,,59,0,15,,,,,,,,,,,,,,,14,,,55,0
19679,note_on,,59,0,14,,,,,,,,,,,,,,,13,,,55,0
19679,note_on,,59,0,9,,,,,,,,,,,,,,,7,,,67,0
19679,note_on,,59,0,6,,,,,,,,,,,,,,,1,,,55,0
19680,note_on,,0,0,15,,,,,,,,,,,,,,,14,,,69,72
19680,note_on,,1,0,13,,,,,,,,,,,,,,,12,,,65,72
19680,note_on,,1,0,9,,,,,,,,,,,,,,,7,,,65,88
19680,note_on,,1,0,6,,,,,,,,,,,,,,,1,,,62,72
19680,note_on,,0,0,15,,,,,,,,,,,,,,,14,,,65,72
19680,note_on,,1,0,10,,,,,,,,,,,,,,,8,,,62,88
19680,note_on,,1,0,14,,,,,,,,,,,,,,,13,,,62,72
19680,note_on,,1,0,15,,,,,,,,,,,,,,,14,,,62,72
19709,note_on,,29,0,13,,,,,,,,,,,,,,,12,,,65,0
19709,note_on,,29,0,9,,,,,,,,,,,,,,,7,,,65,0
19710,note_on,,1,0,13,,,,,,,,,,,,,,,12,,,67,72
19710,note_on,,1,0,9,,,,,,,,,,,,,,,7,,,67,88
19739,note_on,,59,0,15,,,,,,,,,,,,,,,14,,,62,0
19739,note_on,,59,0,10,,,,,,,,,,,,,,,8,,,62,0
19739,note_on,,29,0,9,,,,,,,,,,,,,,,7,,,67,0
19739,note_on,,59,0,14,,,,,,,,,,,,,,,13,,,62,0
19739,note_on,,59,0,6,,,,,,,,,,,,,,,1,,,62,0
19739,note_on,,29,0,13,,,,,,,,,,,,,,,12,,,67,0
19740,note_on,,1,0,15,,,,,,,,,,,,,,,14,,,62,72
19740,note_on,,1,0,9,,,,,,,,,,,,,,,7,,,65,88
19740,note_on,,1,0,13,,,,,,,,,,,,,,,12,,,65,72
19740,note_on,,1,0,14,,,,,,,,,,,,,,,13,,,62,72
19740,note_on,,1,0,10,,,,,,,,,,,,,,,8,,,62,88
19740,note_on,,1,0,6,,,,,,,,,,,,,,,1,,,62,72
19769,note_on,,29,0,9,,,,,,,,,,,,,,,7,,,65,0
19769,note_on,,29,0,13,,,,,,,,,,,,,,,12,,,65,0
19770,note_on,,1,0,9,,,,,,,,,,,,,,,7,,,63,88
19770,note_on,,1,0,13,,,,,,,,,,,,,,,12,,,63,72
19799,note_on,,0,0,15,,,,,,,,,,,,,,,14,,,62,0
19799,note_on,,0,0,15,,,,,,,,,,,,,,,14,,,69,0
19799,note_on,,59,0,15,,,,,,,,,,,,,,,14,,,65,0
19799,note_on,,29,0,13,,,,,,,,,,,,,,,12,,,63,0
19799,note_on,,59,0,6,,,,,,,,,,,,,,,1,,,62,0
19799,note_on,,59,0,14,,,,,,,,,,,,,,,13,,,62,0
19799,note_on,,59,0,10,,,,,,,,,,,,,,,8,,,62,0
19799,note_on,,29,0,9,,,,,,,,,,,,,,,7,,,63,0
19800,note_on,,0,0,15,,,,,,,,,,,,,,,14,,,74,72
19800,note_on,,1,0,14,,,,,,,,,,,,,,,13,,,62,72
19800,note_on,,1,0,13,,,,,,,,,,,,,,,12,,,65,72
19800,note_on,,0,0,15,,,,,,,,,,,,,,,14,,,65,72
19800,note_on,,0,0,15,,,,,,,,,,,,,,,14,,,70,72
19800,note_on,,1,0,6,,,,,,,,,,,,,,,1,,,62,72
19800,note_on,,1,0,15,,,,,,,,,,,,,,,14,,,62,72
19800,note_on,,1,0,9,,,,,,,,,,,,,,,7,,,65,88
19800,note_on,,241,0,12,,,,,,,,,,,,,,,11,,,70,72
19800,note_on,,1,0,10,,,,,,,,,,,,,,,8,,,62,88
19800,note_on,,241,0,8,,,,,,,,,,,,,,,6,,,70,88
19829,note_on,,29,0,9,,,,,,,,,,,,,,,7,,,65,0
19829,note_on,,29,0,13,,,,,,,,,,,,,,,12,,,65,0
19830,note_on,,1,0,13,,,,,,,,,,,,,,,12,,,62,72
19830,note_on,,1,0,9,,,,,,,,,,,,,,,7,,,62,88
19859,note_on,,59,0,6,,,,,,,,,,,,,,,1,,,62,0
19859,note_on,,29,0,9,,,,,,,,,,,,,,,7,,,62,0
19859,note_on,,59,0,10,,,,,,,,,,,,,,,8,,,62,0
19859,note_on,,59,0,14,,,,,,,,,,,,,,,13,,,62,0
19859,note_on,,29,0,13,,,,,,,,,,,,,,,12,,,62,0
19859,note_on,,59,0,15,,,,,,,,,,,,,,,14,,,62,0
19860,note_on,,1,0,15,,,,,,,,,,,,,,,14,,,62,72
19860,note_on,,1,0,13,,,,,,,,,,,,,,,12,,,60,72
19860,note_on,,1,0,6,,,,,,,,,,,,,,,1,,,62,72
19860,note_on,,1,0,9,,,,,,,,,,,,,,,7,,,60,88
19860,note_on,,1,0,10,,,,,,,,,,,,,,,8,,,62,88
19860,note_on,,1,0,14,,,,,,,,,,,,,,,13,,,62,72
19889,note_on,,29,0,13,,,,,,,,,,,,,,,12,,,60,0
19889,note_on,,29,0,9,,,,,,,,,,,,,,,7,,,60,0
19890,note_on,,1,0,9,,,,,,,,,,,,,,,7,,,62,88
19890,note_on,,1,0,13,,,,,,,,,,,,,,,12,,,62,72
19919,note_on,,0,0,15,,,,,,,,,,,,,,,14,,,65,0
19919,note_on,,0,0,15,,,,,,,,,,,,,,,14,,,70,0
19919,note_on,,59,0,6,,,,,,,,,,,,,,,1,,,62,0
19919,note_on,,59,0,10,,,,,,,,,,,,,,,8,,,62,0
19919,note_on,,59,0,14,,,,,,,,,,,,,,,13,,,62,0
19919,note_on,,29,0,13,,,,,,,,,,,,,,,12,,,62,0
19919,note_on,,0,0,15,,,,,,,,,,,,,,,14,,,62,0
19919,note_on,,59,0,15,,,,,,,,,,,,,,,14,,,74,0
19919,note_on,,119,0,8,,,,,,,,,,,,,,,6,,,70,0
19919,note_on,,29,0,9,,,,,,,,,,,,,,,7,,,62,0
19920,note_on,,0,0,15,,,,,,,,,,,,,,,14,,,75,72
19920,note_on,,1,0,8,,,,,,,,,,,,,,,6,,,70,88
19920,note_on,,1,0,13,,,,,,,,,,,,,,,12,,,63,72
19920,note_on,,1,0,10,,,,,,,,,,,,,,,8,,,60,88
19920,note_on,,1,0,9,,,,,,,,,,,,,,,7,,,63,88
19920,note_on,,1,0,15,,,,,,,,,,,,,,,14,,,60,72
19920,note_on,,1,0,14,,,,,,,,,,,,,,,13,,,60,72
19920,note_on,,0,0,15,,,,,,,,,,,,,,,14,,,70,72
19920,note_on,,0,0,15,,,,,,,,,,,,,,,14,,,67,72
19920,note_on,,1,0,6,,,,,,,,,,,,,,,1,,,60,72
19949,note_on,,29,0,9,,,,,,,,,,,,,,,7,,,63,0
19949,note_on,,29,0,13,,,,,,,,,,,,,,,12,,,63,0
19950,note_on,,1,0,13,,,,,,,,,,,,,,,12,,,65,72
19950,note_on,,1,0,9,,,,,,,,,,,,,,,7,,,65,88
19979,note_on,,29,0,9,,,,,,,,,,,,,,,7,,,65,0
19979,note_on,,59,0,6,,,,,,,,,,,,,,,1,,,60,0
19979,note_on,,59,0,14,,,,,,,,,,,,,,,13,,,60,0
19979,note_on,,59,0,10,,,,,,,,,,,,,,,8,,,60,0
19979,note_on,,29,0,13,,,,,,,,,,,,,,,12,,,65,0
19979,note_on,,59,0,15,,,,,,,,,,,,,,,14,,,60,0
19980,note_on,,1,0,14,,,,,,,,,,,,,,,13,,,58,72
19980,note_on,,1,0,13,,,,,,,,,,,,,,,12,,,63,72
19980,note_on,,1,0,10,,,,,,,,,,,,,,,8,,,58,88
19980,note_on,,1,0,9,,,,,,,,,,,,,,,7,,,63,88
19980,note_on,,1,0,6,,,,,,,,,,,,,,,1,,,58,72
19980,note_on,,1,0,15,,,,,,,,,,,,,,,14,,,58,72
20009,note_on,,29,0,13,,,,,,,,,,,,,,,12,,,63,0
20009,note_on,,29,0,9,,,,,,,,,,,,,,,7,,,63,0
20010,note_on,,1,0,13,,,,,,,,,,,,,,,12,,,62,72
20010,note_on,,1,0,9,,,,,,,,,,,,,,,7,,,62,88
20039,note_on,,29,0,13,,,,,,,,,,,,,,,12,,,62,0
20039,note_on,,0,0,15,,,,,,,,,,,,,,,14,,,58,0
20039,note_on,,0,0,15,,,,,,,,,,,,,,,14,,,67,0
20039,note_on,,59,0,10,,,,,,,,,,,,,,,8,,,58,0
20039,note_on,,59,0,15,,,,,,,,,,,,,,,14,,,70,0
20039,note_on,,29,0,9,,,,,,,,,,,,,,,7,,,62,0
20039,note_on,,119,0,8,,,,,,,,,,,,,,,6,,,70,0
20039,note_on,,239,0,12,,,,,,,,,,,,,,,11,,,70,0
20039,note_on,,59,0,14,,,,,,,,,,,,,,,13,,,58,0
20039,note_on,,59,0,6,,,,,,,,,,,,,,,1,,,58,0
20040,note_on,,1,0,8,,,,,,,,,,,,,,,6,,,68,88
20040,note_on,,0,0,15,,,,,,,,,,,,,,,14,,,63,72
20040,note_on,,0,0,15,,,,,,,,,,,,,,,14,,,68,72
20040,note_on,,1,0,15,,,,,,,,,,,,,,,14,,,60,72
20040,note_on,,1,0,6,,,,,,,,,,,,,,,1,,,60,72
20040,note_on,,1,0,10,,,,,,,,,,,,,,,8,,,60,88
20040,note_on,,1,0,13,,,,,,,,,,,,,,,12,,,63,72
20040,note_on,,1,0,9,,,,,,,,,,,,,,,7,,,63,88
20040,note_on,,1,0,12,,,,,,,,,,,,,,,11,,,68,72
20040,note_on,,1,0,14,,,,,,,,,,,,,,,13,,,60,72
20069,note_on,,29,0,13,,,,,,,,,,,,,,,12,,,63,0
20069,note_on,,29,0,9,,,,,,,,,,,,,,,7,,,63,0
20070,note_on,,1,0,13,,,,,,,,,,,,,,,12,,,60,72
20070,note_on,,1,0,9,,,,,,,,,,,,,,,7,,,60,88
20099,note_on,,59,0,14,,,,,,,,,,,,,,,13,,,60,0
20099,note_on,,59,0,6,,,,,,,,,,,,,,,1,,,60,0
20099,note_on,,59,0,10,,,,,,,,,,,,,,,8,,,60,0
20099,note_on,,29,0,9,,,,,,,,,,,,,,,7,,,60,0
20099,note_on,,59,0,15,,,,,,,,,,,,,,,14,,,60,0
20099,note_on,,29,0,13,,,,,,,,,,,,,,,12,,,60,0
20100,note_on,,1,0,15,,,,,,,,,,,,,,,14,,,53,72
20100,note_on,,1,0,9,,,,,,,,,,,,,,,7,,,58,88
20100,note_on,,1,0,10,,,,,,,,,,,,,,,8,,,53,88
20100,note_on,,1,0,6,,,,,,,,,,,,,,,1,,,53,72
20100,note_on,,1,0,14,,,,,,,,,,,,,,,13,,,53,72
20100,note_on,,1,0,13,,,,,,,,,,,,,,,12,,,58,72
20129,note_on,,29,0,13,,,,,,,,,,,,,,,12,,,58,0
20129,note_on,,29,0,9,,,,,,,,,,,,,,,7,,,58,0
20130,note_on,,1,0,9,,,,,,,,,,,,,,,7,,,60,88
20130,note_on,,1,0,13,,,,,,,,,,,,,,,12,,,60,72
20159,note_on,,0,0,15,,,,,,,,,,,,,,,14,,,63,0
20159,note_on,,0,0,15,,,,,,,,,,,,,,,14,,,53,0
20159,note_on,,29,0,13,,,,,,,,,,,,,,,12,,,60,0
20159,note_on,,0,0,15,,,,,,,,,,,,,,,14,,,68,0
20159,note_on,,59,0,14,,,,,,,,,,,,,,,13,,,53,0
20159,note_on,,59,0,6,,,,,,,,,,,,,,,1,,,53,0
20159,note_on,,59,0,10,,,,,,,,,,,,,,,8,,,53,0
20159,note_on,,29,0,9,,,,,,,,,,,,,,,7,,,60,0
20159,note_on,,59,0,15,,,,,,,,,,,,,,,14,,,75,0
20160,note_on,,1,0,14,,,,,,,,,,,,,,,13,,,58,72
20160,note_on,,1,0,13,,,,,,,,,,,,,,,12,,,62,72
20160,note_on,,0,0,15,,,,,,,,,,,,,,,14,,,74,72
20160,note_on,,1,0,15,,,,,,,,,,,,,,,14,,,58,72
20160,note_on,,0,0,15,,,,,,,,,,,,,,,14,,,68,72
20160,note_on,,1,0,6,,,,,,,,,,,,,,,1,,,58,72
20160,note_on,,0,0,15,,,,,,,,,,,,,,,14,,,65,72
20160,note_on,,1,0,10,,,,,,,,,,,,,,,8,,,58,88
20160,note_on,,1,0,9,,,,,,,,,,,,,,,7,,,62,88
20189,note_on,,29,0,13,,,,,,,,,,,,,,,12,,,62,0
20189,note_on,,29,0,9,,,,,,,,,,,,,,,7,,,62,0
20190,note_on,,1,0,13,,,,,,,,,,,,,,,12,,,63,72
20190,note_on,,1,0,9,,,,,,,,,,,,,,,7,,,63,88
20219,note_on,,29,0,9,,,,,,,,,,,,,,,7,,,63,0
20219,note_on,,59,0,10,,,,,,,,,,,,,,,8,,,58,0
20219,note_on,,29,0,13,,,,,,,,,,,,,,,12,,,63,0
20220,note_on,,1,0,13,,,,,,,,,,,,,,,12,,,62,72
20220,note_on,,1,0,9,,,,,,,,,,,,,,,7,,,62,88
20220,note_on,,1,0,10,,,,,,,,,,,,,,,8,,,58,88
20249,note_on,,29,0,13,,,,,,,,,,,,,,,12,,,62,0
20249,note_on,,29,0,9,,,,,,,,,,,,,,,7,,,62,0
20250,note_on,,1,0,13,,,,,,,,,,,,,,,12,,,60,72
20250,note_on,,1,0,9,,,,,,,,,,,,,,,7,,,60,88
20279,note_on,,29,0,9,,,,,,,,,,,,,,,7,,,60,0
20279,note_on,,29,0,13,,,,,,,,,,,,,,,12,,,60,0
20279,note_on,,239,0,8,,,,,,,,,,,,,,,6,,,68,0
20279,note_on,,59,0,10,,,,,,,,,,,,,,,8,,,58,0
20279,note_on,,239,0,12,,,,,,,,,,,,,,,11,,,68,0
20279,note_on,,119,0,15,,,,,,,,,,,,,,,14,,,74,0
20279,note_on,,0,0,15,,,,,,,,,,,,,,,14,,,68,0
20279,note_on,,0,0,15,,,,,,,,,,,,,,,14,,,65,0
20280,note_on,,1,0,13,,,,,,,,,,,,,,,12,,,62,72
20280,note_on,,1,0,10,,,,,,,,,,,,,,,8,,,58,88
20280,note_on,,0,0,15,,,,,,,,,,,,,,,14,,,67,72
20280,note_on,,1,0,15,,,,,,,,,,,,,,,14,,,79,72
20280,note_on,,1,0,9,,,,,,,,,,,,,,,7,,,62,88
20280,note_on,,1,0,8,,,,,,,,,,,,,,,6,,,67,88
20280,note_on,,1,0,12,,,,,,,,,,,,,,,11,,,67,72
20280,note_on,,0,0,15,,,,,,,,,,,,,,,14,,,74,72
20309,note_on,,29,0,9,,,,,,,,,,,,,,,7,,,62,0
20309,note_on,,29,0,13,,,,,,,,,,,,,,,12,,,62,0
20310,note_on,,1,0,9,,,,,,,,,,,,,,,7,,,58,88
20310,note_on,,1,0,13,,,,,,,,,,,,,,,12,,,58,72
20339,note_on,,59,0,10,,,,,,,,,,,,,,,8,,,58,0
20339,note_on,,179,0,14,,,,,,,,,,,,,,,13,,,58,0
20339,note_on,,29,0,9,,,,,,,,,,,,,,,7,,,58,0
20339,note_on,,179,0,6,,,,,,,,,,,,,,,1,,,58,0
20339,note_on,,59,0,15,,,,,,,,,,,,,,,14,,,58,0
20339,note_on,,29,0,13,,,,,,,,,,,,,,,12,,,58,0
20340,note_on,,1,0,10,,,,,,,,,,,,,,,8,,,55,88
20340,note_on,,1,0,13,,,,,,,,,,,,,,,12,,,57,72
20340,note_on,,1,0,15,,,,,,,,,,,,,,,14,,,55,72
20340,note_on,,1,0,6,,,,,,,,,,,,,,,1,,,55,72
20340,note_on,,1,0,14,,,,,,,,,,,,,,,13,,,55,72
20340,note_on,,0,0,15,,,,,,,,,,,,,,,14,,,58,72
20340,note_on,,1,0,9,,,,,,,,,,,,,,,7,,,57,88
20369,note_on,,29,0,9,,,,,,,,,,,,,,,7,,,57,0
20369,note_on,,29,0,13,,,,,,,,,,,,,,,12,,,57,0
20370,note_on,,1,0,9,,,,,,,,,,,,,,,7,,,58,88
20370,note_on,,1,0,13,,,,,,,,,,,,,,,12,,,58,72
20399,note_on,,0,0,15,,,,,,,,,,,,,,,14,,,58,0
20399,note_on,,59,0,10,,,,,,,,,,,,,,,8,,,55,0
20399,note_on,,119,0,8,,,,,,,,,,,,,,,6,,,67,0
20399,note_on,,59,0,6,,,,,,,,,,,,,,,1,,,55,0
20399,note_on,,29,0,9,,,,,,,,,,,,,,,7,,,58,0
20399,note_on,,0,0,15,,,,,,,,,,,,,,,14,,,74,0
20399,note_on,,59,0,15,,,,,,,,,,,,,,,14,,,79,0
20399,note_on,,59,0,14,,,,,,,,,,,,,,,13,,,55,0
20399,note_on,,29,0,13,,,,,,,,,,,,,,,12,,,58,0
20399,note_on,,0,0,15,,,,,,,,,,,,,,,14,,,55,0
20399,note_on,,0,0,15,,,,,,,,,,,,,,,14,,,67,0
20400,note_on,,1,0,15,,,,,,,,,,,,,,,14,,,57,72
20400,note_on,,1,0,13,,,,,,,,,,,,,,,12,,,60,72
20400,note_on,,0,0,15,,,,,,,,,,,,,,,14,,,72,72
20400,note_on,,1,0,14,,,,,,,,,,,,,,,13,,,57,72
20400,note_on,,1,0,9,,,,,,,,,,,,,,,7,,,60,88
20400,note_on,,1,0,8,,,,,,,,,,,,,,,6,,,67,88
20400,note_on,,1,0,10,,,,,,,,,,,,,,,8,,,57,88
20400,note_on,,0,0,15,,,,,,,,,,,,,,,14,,,60,72
20400,note_on,,0,0,15,,,,,,,,,,,,,,,14,,,69,72
20400,note_on,,1,0,6,,,,,,,,,,,,,,,1,,,57,72
20429,note_on,,29,0,9,,,,,,,,,,,,,,,7,,,60,0
20429,note_on,,29,0,13,,,,,,,,,,,,,,,12,,,60,0
20430,note_on,,1,0,9,,,,,,,,,,,,,,,7,,,62,88
20430,note_on,,1,0,13,,,,,,,,,,,,,,,12,,,62,72
20459,note_on,,29,0,13,,,,,,,,,,,,,,,12,,,62,0
20459,note_on,,29,0,9,,,,,,,,,,,,,,,7,,,62,0
20460,note_on,,1,0,13,,,,,,,,,,,,,,,12,,,60,72
20460,note_on,,1,0,9,,,,,,,,,,,,,,,7,,,60,88
20489,note_on,,29,0,9,,,,,,,,,,,,,,,7,,,60,0
20489,note_on,,29,0,13,,,,,,,,,,,,,,,12,,,60,0
20490,note_on,,1,0,13,,,,,,,,,,,,,,,12,,,58,72
20490,note_on,,1,0,9,,,,,,,,,,,,,,,7,,,58,88
20519,note_on,,29,0,13,,,,,,,,,,,,,,,12,,,58,0
20519,note_on,,29,0,9,,,,,,,,,,,,,,,7,,,58,0
20519,note_on,,119,0,6,,,,,,,,,,,,,,,1,,,57,0
20519,note_on,,239,0,12,,,,,,,,,,,,,,,11,,,67,0
20519,note_on,,119,0,14,,,,,,,,,,,,,,,13,,,57,0
20519,note_on,,119,0,15,,,,,,,,,,,,,,,14,,,57,0
20519,note_on,,0,0,15,,,,,,,,,,,,,,,14,,,60,0
20519,note_on,,119,0,8,,,,,,,,,,,,,,,6,,,67,0
20519,note_on,,119,0,10,,,,,,,,,,,,,,,8,,,57,0
20520,note_on,,1,0,10,,,,,,,,,,,,,,,8,,,50,88
20520,note_on,,1,0,6,,,,,,,,,,,,,,,1,,,50,72
20520,note_on,,0,0,15,,,,,,,,,,,,,,,14,,,66,72
20520,note_on,,1,0,15,,,,,,,,,,,,,,,14,,,50,72
20520,note_on,,1,0,14,,,,,,,,,,,,,,,13,,,50,72
20520,note_on,,1,0,12,,,,,,,,,,,,,,,11,,,66,72
20520,note_on,,1,0,9,,,,,,,,,,,,,,,7,,,60,88
20520,note_on,,1,0,13,,,,,,,,,,,,,,,12,,,60,72
20520,note_on,,1,0,8,,,,,,,,,,,,,,,6,,,66,88
20549,note_on,,29,0,13,,,,,,,,,,,,,,,12,,,60,0
20549,note_on,,29,0,9,,,,,,,,,,,,,,,7,,,60,0
20550,note_on,,1,0,13,,,,,,,,,,,,,,,12,,,57,72
20550,note_on,,1,0,9,,,,,,,,,,,,,,,7,,,57,88
20579,note_on,,29,0,9,,,,,,,,,,,,,,,7,,,57,0
20579,note_on,,59,0,15,,,,,,,,,,,,,,,14,,,72,0
20579,note_on,,0,0,15,,,,,,,,,,,,,,,14,,,69,0
20579,note_on,,0,0,15,,,,,,,,,,,,,,,14,,,50,0
20579,note_on,,59,0,14,,,,,,,,,,,,,,,13,,,50,0
20579,note_on,,29,0,13,,,,,,,,,,,,,,,12,,,57,0
20579,note_on,,59,0,6,,,,,,,,,,,,,,,1,,,50,0
20579,note_on,,0,0,15,,,,,,,,,,,,,,,14,,,66,0
20580,note_on,,1501,0,7,,,,,,,,,,,,,,,5,,,74,88
20580,note_on,,1,0,13,,,,,,,,,,,,,,,12,,,55,72
20580,note_on,,1021,0,11,,,,,,,,,,,,,,,10,,,74,72
20580,note_on,,0,0,15,,,,,,,,,,,,,,,14,,,74,72
20580,note_on,,1501,0,5,,,,,,,,,,,,,,,0,,,74,72
20580,note_on,,0,0,15,,,,,,,,,,,,,,,14,,,69,72
20580,note_on,,1,0,9,,,,,,,,,,,,,,,7,,,55,88
20580,note_on,,1,0,6,,,,,,,,,,,,,,,1,,,54,72
20580,note_on,,0,0,15,,,,,,,,,,,,,,,14,,,62,72
20580,note_on,,1,0,15,,,,,,,,,,,,,,,14,,,54,72
20580,note_on,,1,0,14,,,,,,,,,,,,,,,13,,,54,72
20609,note_on,,29,0,13,,,,,,,,,,,,,,,12,,,55,0
20609,note_on,,29,0,9,,,,,,,,,,,,,,,7,,,55,0
20610,note_on,,1,0,9,,,,,,,,,,,,,,,7,,,57,88
20610,note_on,,1,0,13,,,,,,,,,,,,,,,12,,,57,72
20639,note_on,,29,0,9,,,,,,,,,,,,,,,7,,,57,0
20639,note_on,,119,0,12,,,,,,,,,,,,,,,11,,,66,0
20639,note_on,,119,0,10,,,,,,,,,,,,,,,8,,,50,0
20639,note_on,,0,0,15,,,,,,,,,,,,,,,14,,,74,0
20639,note_on,,59,0,11,,,,,,,,,,,,,,,10,,,74,0
20639,note_on,,59,0,14,,,,,,,,,,,,,,,13,,,54,0
20639,note_on,,119,0,8,,,,,,,,,,,,,,,6,,,66,0
20639,note_on,,59,0,7,,,,,,,,,,,,,,,5,,,74,0
20639,note_on,,59,0,15,,,,,,,,,,,,,,,14,,,54,0
20639,note_on,,59,0,5,,,,,,,,,,,,,,,0,,,74,0
20639,note_on,,29,0,13,,,,,,,,,,,,,,,12,,,57,0
20639,note_on,,0,0,15,,,,,,,,,,,,,,,14,,,69,0
20639,note_on,,0,0,15,,,,,,,,,,,,,,,14,,,62,0
20639,note_on,,59,0,6,,,,,,,,,,,,,,,1,,,54,0
20640,note_on,,1,0,5,,,,,,,,,,,,,,,0,,,79,72
20640,note_on,,1,0,12,,,,,,,,,,,,,,,11,,,62,72
20640,note_on,,1,0,9,,,,,,,,,,,,,,,7,,,58,88
20640,note_on,,0,0,15,,,,,,,,,,,,,,,14,,,50,72
20640,note_on,,0,0,15,,,,,,,,,,,,,,,14,,,62,72
20640,note_on,,0,0,15,,,,,,,,,,,,,,,14,,,67,72
20640,note_on,,0,0,15,,,,,,,,,,,,,,,14,,,70,72
20640,note_on,,1,0,15,,,,,,,,,,,,,,,14,,,43,72
20640,note_on,,1,0,13,,,,,,,,,,,,,,,12,,,58,72
20640,note_on,,1,0,11,,,,,,,,,,,,,,,10,,,79,72
20640,note_on,,1,0,6,,,,,,,,,,,,,,,1,,,43,72
20640,note_on,,1,0,14,,,,,,,,,,,,,,,13,,,43,72
20640,note_on,,1,0,7,,,,,,,,,,,,,,,5,,,79,88
20669,note_on,,29,0,9,,,,,,,,,,,,,,,7,,,58,0
20669,note_on,,29,0,12,,,,,,,,,,,,,,,11,,,62,0
20670,note_on,,1,0,12,,,,,,,,,,,,,,,11,,,72,72
20670,note_on,,1,0,9,,,,,,,,,,,,,,,7,,,60,88
20699,note_on,,59,0,11,,,,,,,,,,,,,,,10,,,79,0
20699,note_on,,29,0,9,,,,,,,,,,,,,,,7,,,60,0
20699,note_on,,29,0,12,,,,,,,,,,,,,,,11,,,72,0
20699,note_on,,59,0,7,,,,,,,,,,,,,,,5,,,79,0
20699,note_on,,59,0,5,,,,,,,,,,,,,,,0,,,79,0
20700,note_on,,1,0,9,,,,,,,,,,,,,,,7,,,58,88
20700,note_on,,1,0,11,,,,,,,,,,,,,,,10,,,79,72
20700,note_on,,1,0,12,,,,,,,,,,,,,,,11,,,70,72
20700,note_on,,1,0,5,,,,,,,,,,,,,,,0,,,79,72
20700,note_on,,1,0,7,,,,,,,,,,,,,,,5,,,79,88
20729,note_on,,29,0,9,,,,,,,,,,,,,,,7,,,58,0
20729,note_on,,29,0,12,,,,,,,,,,,,,,,11,,,70,0
20730,note_on,,1,0,9,,,,,,,,,,,,,,,7,,,57,88
20730,note_on,,1,0,12,,,,,,,,,,,,,,,11,,,69,72
20759,note_on,,29,0,9,,,,,,,,,,,,,,,7,,,57,0
20759,note_on,,119,0,6,,,,,,,,,,,,,,,1,,,43,0
20759,note_on,,119,0,15,,,,,,,,,,,,,,,14,,,43,0
20759,note_on,,0,0,15,,,,,,,,,,,,,,,14,,,50,0
20759,note_on,,59,0,5,,,,,,,,,,,,,,,0,,,79,0
20759,note_on,,119,0,13,,,,,,,,,,,,,,,12,,,58,0
20759,note_on,,59,0,11,,,,,,,,,,,,,,,10,,,79,0
20759,note_on,,0,0,15,,,,,,,,,,,,,,,14,,,70,0
20759,note_on,,29,0,12,,,,,,,,,,,,,,,11,,,69,0
20759,note_on,,59,0,7,,,,,,,,,,,,,,,5,,,79,0
20759,note_on,,0,0,15,,,,,,,,,,,,,,,14,,,62,0
20759,note_on,,119,0,14,,,,,,,,,,,,,,,13,,,43,0
20759,note_on,,0,0,15,,,,,,,,,,,,,,,14,,,67,0
20760,note_on,,1,0,5,,,,,,,,,,,,,,,0,,,79,72
20760,note_on,,1,0,15,,,,,,,,,,,,,,,14,,,55,72
20760,note_on,,1,0,7,,,,,,,,,,,,,,,5,,,79,88
20760,note_on,,1,0,14,,,,,,,,,,,,,,,13,,,55,72
20760,note_on,,1,0,9,,,,,,,,,,,,,,,7,,,58,88
20760,note_on,,1,0,12,,,,,,,,,,,,,,,11,,,70,72
20760,note_on,,1,0,11,,,,,,,,,,,,,,,10,,,79,72
20760,note_on,,0,0,15,,,,,,,,,,,,,,,14,,,62,72
20760,note_on,,0,0,15,,,,,,,,,,,,,,,14,,,58,72
20760,note_on,,1,0,6,,,,,,,,,,,,,,,1,,,55,72
20760,note_on,,0,0,15,,,,,,,,,,,,,,,14,,,67,72
20789,note_on,,29,0,9,,,,,,,,,,,,,,,7,,,58,0
20789,note_on,,29,0,12,,,,,,,,,,,,,,,11,,,70,0
20790,note_on,,1,0,9,,,,,,,,,,,,,,,7,,,62,88
20790,note_on,,1,0,12,,,,,,,,,,,,,,,11,,,74,72
20819,note_on,,59,0,15,,,,,,,,,,,,,,,14,,,55,0
20819,note_on,,0,0,15,,,,,,,,,,,,,,,14,,,67,0
20819,note_on,,59,0,14,,,,,,,,,,,,,,,13,,,55,0
20819,note_on,,0,0,15,,,,,,,,,,,,,,,14,,,58,0
20819,note_on,,59,0,5,,,,,,,,,,,,,,,0,,,79,0
20819,note_on,,59,0,11,,,,,,,,,,,,,,,10,,,79,0
20819,note_on,,59,0,7,,,,,,,,,,,,,,,5,,,79,0
20819,note_on,,0,0,15,,,,,,,,,,,,,,,14,,,62,0
20819,note_on,,59,0,6,,,,,,,,,,,,,,,1,,,55,0
20819,note_on,,29,0,12,,,,,,,,,,,,,,,11,,,74,0
20819,note_on,,29,0,9,,,,,,,,,,,,,,,7,,,62,0
20820,note_on,,1,0,6,,,,,,,,,,,,,,,1,,,51,72
20820,note_on,,1,0,5,,,,,,,,,,,,,,,0,,,79,72
20820,note_on,,1,0,15,,,,,,,,,,,,,,,14,,,51,72
20820,note_on,,1,0,14,,,,,,,,,,,,,,,13,,,51,72
20820,note_on,,1,0,9,,,,,,,,,,,,,,,7,,,60,88
20820,note_on,,1,0,11,,,,,,,,,,,,,,,10,,,79,72
20820,note_on,,0,0,15,,,,,,,,,,,,,,,14,,,55,72
20820,note_on,,0,0,15,,,,,,,,,,,,,,,14,,,67,72
20820,note_on,,0,0,15,,,,,,,,,,,,,,,14,,,72,72
20820,note_on,,1,0,12,,,,,,,,,,,,,,,11,,,72,72
20820,note_on,,1,0,7,,,,,,,,,,,,,,,5,,,79,88
20849,note_on,,29,0,9,,,,,,,,,,,,,,,7,,,60,0
20849,note_on,,29,0,12,,,,,,,,,,,,,,,11,,,72,0
20850,note_on,,1,0,9,,,,,,,,,,,,,,,7,,,63,88
20850,note_on,,1,0,12,,,,,,,,,,,,,,,11,,,75,72
20879,note_on,,29,0,9,,,,,,,,,,,,,,,7,,,63,0
20879,note_on,,59,0,6,,,,,,,,,,,,,,,1,,,51,0
20879,note_on,,59,0,7,,,,,,,,,,,,,,,5,,,79,0
20879,note_on,,59,0,11,,,,,,,,,,,,,,,10,,,79,0
20879,note_on,,0,0,15,,,,,,,,,,,,,,,14,,,55,0
20879,note_on,,59,0,14,,,,,,,,,,,,,,,13,,,51,0
20879,note_on,,29,0,12,,,,,,,,,,,,,,,11,,,75,0
20879,note_on,,59,0,5,,,,,,,,,,,,,,,0,,,79,0
20879,note_on,,0,0,15,,,,,,,,,,,,,,,14,,,72,0
20879,note_on,,0,0,15,,,,,,,,,,,,,,,14,,,67,0
20879,note_on,,59,0,15,,,,,,,,,,,,,,,14,,,51,0
20880,note_on,,1,0,9,,,,,,,,,,,,,,,7,,,62,88
20880,note_on,,1,0,12,,,,,,,,,,,,,,,11,,,69,72
20880,note_on,,1,0,7,,,,,,,,,,,,,,,5,,,77,88
20880,note_on,,1,0,11,,,,,,,,,,,,,,,10,,,77,72
20880,note_on,,1,0,14,,,,,,,,,,,,,,,13,,,50,72
20880,note_on,,1,0,15,,,,,,,,,,,,,,,14,,,50,72
20880,note_on,,0,0,15,,,,,,,,,,,,,,,14,,,74,72
20880,note_on,,0,0,15,,,,,,,,,,,,,,,14,,,65,72
20880,note_on,,0,0,15,,,,,,,,,,,,,,,14,,,57,72
20880,note_on,,1,0,5,,,,,,,,,,,,,,,0,,,77,72
20880,note_on,,1,0,6,,,,,,,,,,,,,,,1,,,50,72
20909,note_on,,29,0,7,,,,,,,,,,,,,,,5,,,77,0
20909,note_on,,29,0,5,,,,,,,,,,,,,,,0,,,77,0
20909,note_on,,29,0,11,,,,,,,,,,,,,,,10,,,77,0
20910,note_on,,1,0,5,,,,,,,,,,,,,,,0,,,79,72
20910,note_on,,1,0,11,,,,,,,,,,,,,,,10,,,79,72
20910,note_on,,1,0,7,,,,,,,,,,,,,,,5,,,79,88
20939,note_on,,29,0,11,,,,,,,,,,,,,,,10,,,79,0
20939,note_on,,29,0,5,,,,,,,,,,,,,,,0,,,79,0
20939,note_on,,59,0,9,,,,,,,,,,,,,,,7,,,62,0
20939,note_on,,29,0,7,,,,,,,,,,,,,,,5,,,79,0
20940,note_on,,1,0,5,,,,,,,,,,,,,,,0,,,77,72
20940,note_on,,1,0,9,,,,,,,,,,,,,,,7,,,62,88
20940,note_on,,1,0,11,,,,,,,,,,,,,,,10,,,77,72
20940,note_on,,1,0,7,,,,,,,,,,,,,,,5,,,77,88
20969,note_on,,29,0,11,,,,,,,,,,,,,,,10,,,77,0
20969,note_on,,29,0,7,,,,,,,,,,,,,,,5,,,77,0
20969,note_on,,29,0,5,,,,,,,,,,,,,,,0,,,77,0
20970,note_on,,1,0,7,,,,,,,,,,,,,,,5,,,75,88
20970,note_on,,1,0,11,,,,,,,,,,,,,,,10,,,75,72
20970,note_on,,1,0,5,,,,,,,,,,,,,,,0,,,75,72
20999,note_on,,29,0,11,,,,,,,,,,,,,,,10,,,75,0
20999,note_on,,119,0,12,,,,,,,,,,,,,,,11,,,69,0
20999,note_on,,29,0,5,,,,,,,,,,,,,,,0,,,75,0
20999,note_on,,119,0,14,,,,,,,,,,,,,,,13,,,50,0
20999,note_on,,119,0,15,,,,,,,,,,,,,,,14,,,50,0
20999,note_on,,119,0,6,,,,,,,,,,,,,,,1,,,50,0
20999,note_on,,0,0,15,,,,,,,,,,,,,,,14,,,74,0
20999,note_on,,0,0,15,,,,,,,,,,,,,,,14,,,65,0
20999,note_on,,59,0,9,,,,,,,,,,,,,,,7,,,62,0
20999,note_on,,29,0,7,,,,,,,,,,,,,,,5,,,75,0
20999,note_on,,0,0,15,,,,,,,,,,,,,,,14,,,57,0
21000,note_on,,361,0,10,,,,,,,,,,,,,,,8,,,58,88
21000,note_on,,1,0,6,,,,,,,,,,,,,,,1,,,50,72
21000,note_on,,1,0,14,,,,,,,,,,,,,,,13,,,50,72
21000,note_on,,1,0,7,,,,,,,,,,,,,,,5,,,77,88
21000,note_on,,1,0,5,,,,,,,,,,,,,,,0,,,77,72
21000,note_on,,0,0,15,,,,,,,,,,,,,,,14,,,53,72
21000,note_on,,0,0,15,,,,,,,,,,,,,,,14,,,62,72
21000,note_on,,0,0,15,,,,,,,,,,,,,,,14,,,65,72
21000,note_on,,1,0,9,,,,,,,,,,,,,,,7,,,62,88
21000,note_on,,0,0,15,,,,,,,,,,,,,,,14,,,70,72
21000,note_on,,1,0,15,,,,,,,,,,,,,,,14,,,50,72
21000,note_on,,1,0,12,,,,,,,,,,,,,,,11,,,62,72
21000,note_on,,241,0,13,,,,,,,,,,,,,,,12,,,58,72
21000,note_on,,1,0,11,,,,,,,,,,,,,,,10,,,77,72
21029,note_on,,29,0,11,,,,,,,,,,,,,,,10,,,77,0
21029,note_on,,29,0,5,,,,,,,,,,,,,,,0,,,77,0
21029,note_on,,29,0,7,,,,,,,,,,,,,,,5,,,77,0
21030,note_on,,1,0,11,,,,,,,,,,,,,,,10,,,74,72
21030,note_on,,1,0,5,,,,,,,,,,,,,,,0,,,74,72
21030,note_on,,1,0,7,,,,,,,,,,,,,,,5,,,74,88
21059,note_on,,59,0,9,,,,,,,,,,,,,,,7,,,62,0
21059,note_on,,29,0,11,,,,,,,,,,,,,,,10,,,74,0
21059,note_on,,29,0,5,,,,,,,,,,,,,,,0,,,74,0
21059,note_on,,59,0,15,,,,,,,,,,,,,,,14,,,50,0
21059,note_on,,59,0,14,,,,,,,,,,,,,,,13,,,50,0
21059,note_on,,0,0,15,,,,,,,,,,,,,,,14,,,53,0
21059,note_on,,59,0,6,,,,,,,,,,,,,,,1,,,50,0
21059,note_on,,29,0,7,,,,,,,,,,,,,,,5,,,74,0
21060,note_on,,1,0,6,,,,,,,,,,,,,,,1,,,55,72
21060,note_on,,1,0,15,,,,,,,,,,,,,,,14,,,55,72
21060,note_on,,1,0,5,,,,,,,,,,,,,,,0,,,72,72
21060,note_on,,1,0,11,,,,,,,,,,,,,,,10,,,72,72
21060,note_on,,1,0,7,,,,,,,,,,,,,,,5,,,72,88
21060,note_on,,1,0,14,,,,,,,,,,,,,,,13,,,55,72
21060,note_on,,0,0,15,,,,,,,,,,,,,,,14,,,58,72
21060,note_on,,1,0,9,,,,,,,,,,,,,,,7,,,62,88
21089,note_on,,29,0,7,,,,,,,,,,,,,,,5,,,72,0
21089,note_on,,29,0,11,,,,,,,,,,,,,,,10,,,72,0
21089,note_on,,29,0,5,,,,,,,,,,,,,,,0,,,72,0
21090,note_on,,1,0,11,,,,,,,,,,,,,,,10,,,74,72
21090,note_on,,1,0,7,,,,,,,,,,,,,,,5,,,74,88
21090,note_on,,1,0,5,,,,,,,,,,,,,,,0,,,74,72
21119,note_on,,29,0,7,,,,,,,,,,,,,,,5,,,74,0
21119,note_on,,29,0,5,,,,,,,,,,,,,,,0,,,74,0
21119,note_on,,119,0,12,,,,,,,,,,,,,,,11,,,62,0
21119,note_on,,119,0,13,,,,,,,,,,,,,,,12,,,58,0
21119,note_on,,59,0,6,,,,,,,,,,,,,,,1,,,55,0
21119,note_on,,59,0,14,,,,,,,,,,,,,,,13,,,55,0
21119,note_on,,0,0,15,,,,,,,,,,,,,,,14,,,58,0
21119,note_on,,119,0,10,,,,,,,,,,,,,,,8,,,58,0
21119,note_on,,0,0,15,,,,,,,,,,,,,,,14,,,55,0
21119,note_on,,0,0,15,,,,,,,,,,,,,,,14,,,62,0
21119,note_on,,0,0,15,,,,,,,,,,,,,,,14,,,65,0
21119,note_on,,59,0,15,,,,,,,,,,,,,,,14,,,70,0
21119,note_on,,29,0,11,,,,,,,,,,,,,,,10,,,74,0
21119,note_on,,59,0,9,,,,,,,,,,,,,,,7,,,62,0
21120,note_on,,1,0,7,,,,,,,,,,,,,,,5,,,75,88
21120,note_on,,1,0,10,,,,,,,,,,,,,,,8,,,58,88
21120,note_on,,1,0,14,,,,,,,,,,,,,,,13,,,48,72
21120,note_on,,1,0,13,,,,,,,,,,,,,,,12,,,58,72
21120,note_on,,1,0,9,,,,,,,,,,,,,,,7,,,60,88
21120,note_on,,0,0,15,,,,,,,,,,,,,,,14,,,60,72
21120,note_on,,1,0,5,,,,,,,,,,,,,,,0,,,75,72
21120,note_on,,0,0,15,,,,,,,,,,,,,,,14,,,67,72
21120,note_on,,1,0,11,,,,,,,,,,,,,,,10,,,75,72
21120,note_on,,0,0,15,,,,,,,,,,,,,,,14,,,70,72
21120,note_on,,1,0,15,,,,,,,,,,,,,,,14,,,48,72
21120,note_on,,0,0,15,,,,,,,,,,,,,,,14,,,75,72
21120,note_on,,1,0,6,,,,,,,,,,,,,,,1,,,48,72
21149,note_on,,29,0,5,,,,,,,,,,,,,,,0,,,75,0
21149,note_on,,29,0,11,,,,,,,,,,,,,,,10,,,75,0
21149,note_on,,29,0,7,,,,,,,,,,,,,,,5,,,75,0
21150,note_on,,1,0,7,,,,,,,,,,,,,,,5,,,77,88
21150,note_on,,1,0,5,,,,,,,,,,,,,,,0,,,77,72
21150,note_on,,1,0,11,,,,,,,,,,,,,,,10,,,77,72
21179,note_on,,29,0,11,,,,,,,,,,,,,,,10,,,77,0
21179,note_on,,29,0,7,,,,,,,,,,,,,,,5,,,77,0
21179,note_on,,29,0,5,,,,,,,,,,,,,,,0,,,77,0
21180,note_on,,1,0,11,,,,,,,,,,,,,,,10,,,75,72
21180,note_on,,1,0,5,,,,,,,,,,,,,,,0,,,75,72
21180,note_on,,1,0,7,,,,,,,,,,,,,,,5,,,75,88
21209,note_on,,29,0,5,,,,,,,,,,,,,,,0,,,75,0
21209,note_on,,29,0,7,,,,,,,,,,,,,,,5,,,75,0
21209,note_on,,29,0,11,,,,,,,,,,,,,,,10,,,75,0
21210,note_on,,1,0,5,,,,,,,,,,,,,,,0,,,74,72
21210,note_on,,1,0,7,,,,,,,,,,,,,,,5,,,74,88
21210,note_on,,1,0,11,,,,,,,,,,,,,,,10,,,74,72
21239,note_on,,119,0,9,,,,,,,,,,,,,,,7,,,60,0
21239,note_on,,119,0,13,,,,,,,,,,,,,,,12,,,58,0
21239,note_on,,29,0,11,,,,,,,,,,,,,,,10,,,74,0
21239,note_on,,29,0,7,,,,,,,,,,,,,,,5,,,74,0
21239,note_on,,0,0,15,,,,,,,,,,,,,,,14,,,60,0
21239,note_on,,119,0,15,,,,,,,,,,,,,,,14,,,70,0
21239,note_on,,29,0,5,,,,,,,,,,,,,,,0,,,74,0
21239,note_on,,119,0,10,,,,,,,,,,,,,,,8,,,58,0
21239,note_on,,0,0,15,,,,,,,,,,,,,,,14,,,67,0
21240,note_on,,1,0,11,,,,,,,,,,,,,,,10,,,75,72
21240,note_on,,1,0,9,,,,,,,,,,,,,,,7,,,60,88
21240,note_on,,1,0,7,,,,,,,,,,,,,,,5,,,75,88
21240,note_on,,0,0,15,,,,,,,,,,,,,,,14,,,72,72
21240,note_on,,1,0,10,,,,,,,,,,,,,,,8,,,56,88
21240,note_on,,1,0,13,,,,,,,,,,,,,,,12,,,56,72
21240,note_on,,1,0,5,,,,,,,,,,,,,,,0,,,75,72
21240,note_on,,1,0,15,,,,,,,,,,,,,,,14,,,56,72
21269,note_on,,29,0,5,,,,,,,,,,,,,,,0,,,75,0
21269,note_on,,29,0,7,,,,,,,,,,,,,,,5,,,75,0
21269,note_on,,29,0,11,,,,,,,,,,,,,,,10,,,75,0
21270,note_on,,1,0,7,,,,,,,,,,,,,,,5,,,72,88
21270,note_on,,1,0,5,,,,,,,,,,,,,,,0,,,72,72
21270,note_on,,1,0,11,,,,,,,,,,,,,,,10,,,72,72
21299,note_on,,179,0,6,,,,,,,,,,,,,,,1,,,48,0
21299,note_on,,29,0,7,,,,,,,,,,,,,,,5,,,72,0
21299,note_on,,179,0,14,,,,,,,,,,,,,,,13,,,48,0
21299,note_on,,29,0,11,,,,,,,,,,,,,,,10,,,72,0
21299,note_on,,29,0,5,,,,,,,,,,,,,,,0,,,72,0
21299,note_on,,59,0,15,,,,,,,,,,,,,,,14,,,48,0
21300,note_on,,1,0,6,,,,,,,,,,,,,,,1,,,53,72
21300,note_on,,1,0,14,,,,,,,,,,,,,,,13,,,53,72
21300,note_on,,1,0,11,,,,,,,,,,,,,,,10,,,70,72
21300,note_on,,1,0,15,,,,,,,,,,,,,,,14,,,53,72
21300,note_on,,1,0,5,,,,,,,,,,,,,,,0,,,70,72
21300,note_on,,1,0,7,,,,,,,,,,,,,,,5,,,70,88
21329,note_on,,29,0,7,,,,,,,,,,,,,,,5,,,70,0
21329,note_on,,29,0,5,,,,,,,,,,,,,,,0,,,70,0
21329,note_on,,29,0,11,,,,,,,,,,,,,,,10,,,70,0
21330,note_on,,1,0,11,,,,,,,,,,,,,,,10,,,72,72
21330,note_on,,1,0,7,,,,,,,,,,,,,,,5,,,72,88
21330,note_on,,1,0,5,,,,,,,,,,,,,,,0,,,72,72
21359,note_on,,29,0,11,,,,,,,,,,,,,,,10,,,72,0
21359,note_on,,29,0,5,,,,,,,,,,,,,,,0,,,72,0
21359,note_on,,59,0,15,,,,,,,,,,,,,,,14,,,75,0
21359,note_on,,0,0,15,,,,,,,,,,,,,,,14,,,72,0
21359,note_on,,0,0,15,,,,,,,,,,,,,,,14,,,53,0
21359,note_on,,29,0,7,,,,,,,,,,,,,,,5,,,72,0
21359,note_on,,119,0,9,,,,,,,,,,,,,,,7,,,60,0
21359,note_on,,59,0,6,,,,,,,,,,,,,,,1,,,53,0
21359,note_on,,59,0,14,,,,,,,,,,,,,,,13,,,53,0
21359,note_on,,0,0,15,,,,,,,,,,,,,,,14,,,56,0
21360,note_on,,1,0,15,,,,,,,,,,,,,,,14,,,46,72
21360,note_on,,0,0,15,,,,,,,,,,,,,,,14,,,74,72
21360,note_on,,0,0,15,,,,,,,,,,,,,,,14,,,68,72
21360,note_on,,0,0,15,,,,,,,,,,,,,,,14,,,65,72
21360,note_on,,0,0,15,,,,,,,,,,,,,,,14,,,53,72
21360,note_on,,1,0,6,,,,,,,,,,,,,,,1,,,46,72
21360,note_on,,1,0,11,,,,,,,,,,,,,,,10,,,74,72
21360,note_on,,1,0,7,,,,,,,,,,,,,,,5,,,74,88
21360,note_on,,1,0,5,,,,,,,,,,,,,,,0,,,74,72
21360,note_on,,1,0,14,,,,,,,,,,,,,,,13,,,46,72
21389,note_on,,29,0,5,,,,,,,,,,,,,,,0,,,74,0
21389,note_on,,29,0,11,,,,,,,,,,,,,,,10,,,74,0
21389,note_on,,29,0,7,,,,,,,,,,,,,,,5,,,74,0
21390,note_on,,1,0,5,,,,,,,,,,,,,,,0,,,75,72
21390,note_on,,1,0,11,,,,,,,,,,,,,,,10,,,75,72
21390,note_on,,1,0,7,,,,,,,,,,,,,,,5,,,75,88
21419,note_on,,29,0,11,,,,,,,,,,,,,,,10,,,75,0
21419,note_on,,29,0,7,,,,,,,,,,,,,,,5,,,75,0
21419,note_on,,29,0,5,,,,,,,,,,,,,,,0,,,75,0
21420,note_on,,1,0,5,,,,,,,,,,,,,,,0,,,74,72
21420,note_on,,1,0,11,,,,,,,,,,,,,,,10,,,74,72
21420,note_on,,1,0,7,,,,,,,,,,,,,,,5,,,74,88
21449,note_on,,29,0,11,,,,,,,,,,,,,,,10,,,74,0
21449,note_on,,29,0,5,,,,,,,,,,,,,,,0,,,74,0
21449,note_on,,29,0,7,,,,,,,,,,,,,,,5,,,74,0
21450,note_on,,1,0,7,,,,,,,,,,,,,,,5,,,72,88
21450,note_on,,1,0,5,,,,,,,,,,,,,,,0,,,72,72
21450,note_on,,1,0,11,,,,,,,,,,,,,,,10,,,72,72
21479,note_on,,29,0,5,,,,,,,,,,,,,,,0,,,72,0
21479,note_on,,0,0,15,,,,,,,,,,,,,,,14,,,53,0
21479,note_on,,239,0,10,,,,,,,,,,,,,,,8,,,56,0
21479,note_on,,29,0,11,,,,,,,,,,,,,,,10,,,72,0
21479,note_on,,119,0,15,,,,,,,,,,,,,,,14,,,74,0
21479,note_on,,239,0,13,,,,,,,,,,,,,,,12,,,56,0
21479,note_on,,29,0,7,,,,,,,,,,,,,,,5,,,72,0
21479,note_on,,0,0,15,,,,,,,,,,,,,,,14,,,65,0
21479,note_on,,0,0,15,,,,,,,,,,,,,,,14,,,68,0
21480,note_on,,1,0,5,,,,,,,,,,,,,,,0,,,74,72
21480,note_on,,0,0,15,,,,,,,,,,,,,,,14,,,55,72
21480,note_on,,1,0,10,,,,,,,,,,,,,,,8,,,55,88
21480,note_on,,0,0,15,,,,,,,,,,,,,,,14,,,62,72
21480,note_on,,0,0,15,,,,,,,,,,,,,,,14,,,67,72
21480,note_on,,1,0,15,,,,,,,,,,,,,,,14,,,70,72
21480,note_on,,1,0,13,,,,,,,,,,,,,,,12,,,55,72
21480,note_on,,1,0,7,,,,,,,,,,,,,,,5,,,74,88
21480,note_on,,1,0,11,,,,,,,,,,,,,,,10,,,74,72
21509,note_on,,29,0,5,,,,,,,,,,,,,,,0,,,74,0
21509,note_on,,29,0,11,,,,,,,,,,,,,,,10,,,74,0
21509,note_on,,29,0,7,,,,,,,,,,,,,,,5,,,74,0
21510,note_on,,1,0,5,,,,,,,,,,,,,,,0,,,70,72
21510,note_on,,1,0,7,,,,,,,,,,,,,,,5,,,70,88
21510,note_on,,1,0,11,,,,,,,,,,,,,,,10,,,70,72
21539,note_on,,59,0,15,,,,,,,,,,,,,,,14,,,46,0
21539,note_on,,29,0,7,,,,,,,,,,,,,,,5,,,70,0
21539,note_on,,179,0,14,,,,,,,,,,,,,,,13,,,46,0
21539,note_on,,179,0,6,,,,,,,,,,,,,,,1,,,46,0
21539,note_on,,29,0,11,,,,,,,,,,,,,,,10,,,70,0
21539,note_on,,29,0,5,,,,,,,,,,,,,,,0,,,70,0
21540,note_on,,1,0,11,,,,,,,,,,,,,,,10,,,69,72
21540,note_on,,1,0,15,,,,,,,,,,,,,,,14,,,51,72
21540,note_on,,1,0,14,,,,,,,,,,,,,,,13,,,51,72
21540,note_on,,1,0,6,,,,,,,,,,,,,,,1,,,51,72
21540,note_on,,1,0,7,,,,,,,,,,,,,,,5,,,69,88
21540,note_on,,1,0,5,,,,,,,,,,,,,,,0,,,69,72
21569,note_on,,29,0,5,,,,,,,,,,,,,,,0,,,69,0
21569,note_on,,29,0,11,,,,,,,,,,,,,,,10,,,69,0
21569,note_on,,29,0,7,,,,,,,,,,,,,,,5,,,69,0
21570,note_on,,1,0,5,,,,,,,,,,,,,,,0,,,70,72
21570,note_on,,1,0,11,,,,,,,,,,,,,,,10,,,70,72
21570,note_on,,1,0,7,,,,,,,,,,,,,,,5,,,70,88
21599,note_on,,29,0,11,,,,,,,,,,,,,,,10,,,70,0
21599,note_on,,59,0,14,,,,,,,,,,,,,,,13,,,51,0
21599,note_on,,29,0,7,,,,,,,,,,,,,,,5,,,70,0
21599,note_on,,29,0,5,,,,,,,,,,,,,,,0,,,70,0
21599,note_on,,59,0,6,,,,,,,,,,,,,,,1,,,51,0
21599,note_on,,0,0,15,,,,,,,,,,,,,,,14,,,51,0
21599,note_on,,0,0,15,,,,,,,,,,,,,,,14,,,55,0
21599,note_on,,0,0,15,,,,,,,,,,,,,,,14,,,62,0
21599,note_on,,0,0,15,,,,,,,,,,,,,,,14,,,67,0
21599,note_on,,59,0,15,,,,,,,,,,,,,,,14,,,70,0
21600,note_on,,1,0,6,,,,,,,,,,,,,,,1,,,45,72
21600,note_on,,1,0,7,,,,,,,,,,,,,,,5,,,72,88
21600,note_on,,1,0,11,,,,,,,,,,,,,,,10,,,72,72
21600,note_on,,1,0,5,,,,,,,,,,,,,,,0,,,72,72
21600,note_on,,0,0,15,,,,,,,,,,,,,,,14,,,69,72
21600,note_on,,1,0,15,,,,,,,,,,,,,,,14,,,72,72
21600,note_on,,1,0,14,,,,,,,,,,,,,,,13,,,45,72
21600,note_on,,0,0,15,,,,,,,,,,,,,,,14,,,67,72
21600,note_on,,0,0,15,,,,,,,,,,,,,,,14,,,55,72
21600,note_on,,0,0,15,,,,,,,,,,,,,,,14,,,45,72
21629,note_on,,29,0,11,,,,,,,,,,,,,,,10,,,72,0
21629,note_on,,29,0,7,,,,,,,,,,,,,,,5,,,72,0
21629,note_on,,29,0,5,,,,,,,,,,,,,,,0,,,72,0
21630,note_on,,1,0,11,,,,,,,,,,,,,,,10,,,74,72
21630,note_on,,1,0,5,,,,,,,,,,,,,,,0,,,74,72
21630,note_on,,1,0,7,,,,,,,,,,,,,,,5,,,74,88
21659,note_on,,29,0,11,,,,,,,,,,,,,,,10,,,74,0
21659,note_on,,29,0,5,,,,,,,,,,,,,,,0,,,74,0
21659,note_on,,29,0,7,,,,,,,,,,,,,,,5,,,74,0
21660,note_on,,1,0,7,,,,,,,,,,,,,,,5,,,72,88
21660,note_on,,1,0,5,,,,,,,,,,,,,,,0,,,72,72
21660,note_on,,1,0,11,,,,,,,,,,,,,,,10,,,72,72
21689,note_on,,29,0,11,,,,,,,,,,,,,,,10,,,72,0
21689,note_on,,29,0,7,,,,,,,,,,,,,,,5,,,72,0
21689,note_on,,29,0,5,,,,,,,,,,,,,,,0,,,72,0
21690,note_on,,1,0,5,,,,,,,,,,,,,,,0,,,70,72
21690,note_on,,1,0,11,,,,,,,,,,,,,,,10,,,70,72
21690,note_on,,1,0,7,,,,,,,,,,,,,,,5,,,70,88
21719,note_on,,0,0,15,,,,,,,,,,,,,,,14,,,67,0
21719,note_on,,0,0,15,,,,,,,,,,,,,,,14,,,55,0
21719,note_on,,0,0,15,,,,,,,,,,,,,,,14,,,69,0
21719,note_on,,29,0,7,,,,,,,,,,,,,,,5,,,70,0
21719,note_on,,119,0,15,,,,,,,,,,,,,,,14,,,72,0
21719,note_on,,119,0,6,,,,,,,,,,,,,,,1,,,45,0
21719,note_on,,239,0,13,,,,,,,,,,,,,,,12,,,55,0
21719,note_on,,29,0,5,,,,,,,,,,,,,,,0,,,70,0
21719,note_on,,119,0,14,,,,,,,,,,,,,,,13,,,45,0
21719,note_on,,239,0,10,,,,,,,,,,,,,,,8,,,55,0
21719,note_on,,29,0,11,,,,,,,,,,,,,,,10,,,70,0
21719,note_on,,0,0,15,,,,,,,,,,,,,,,14,,,45,0
21720,note_on,,1,0,6,,,,,,,,,,,,,,,1,,,50,72
21720,note_on,,1,0,10,,,,,,,,,,,,,,,8,,,54,88
21720,note_on,,0,0,15,,,,,,,,,,,,,,,14,,,69,72
21720,note_on,,1,0,11,,,,,,,,,,,,,,,10,,,72,72
21720,note_on,,1,0,5,,,,,,,,,,,,,,,0,,,72,72
21720,note_on,,1,0,15,,,,,,,,,,,,,,,14,,,50,72
21720,note_on,,0,0,15,,,,,,,,,,,,,,,14,,,74,72
21720,note_on,,1,0,14,,,,,,,,,,,,,,,13,,,50,72
21720,note_on,,1,0,13,,,,,,,,,,,,,,,12,,,54,72
21720,note_on,,0,0,15,,,,,,,,,,,,,,,14,,,54,72
21720,note_on,,0,0,15,,,,,,,,,,,,,,,14,,,62,72
21720,note_on,,1,0,7,,,,,,,,,,,,,,,5,,,72,88
21749,note_on,,29,0,11,,,,,,,,,,,,,,,10,,,72,0
21749,note_on,,29,0,5,,,,,,,,,,,,,,,0,,,72,0
21749,note_on,,29,0,7,,,,,,,,,,,,,,,5,,,72,0
21750,note_on,,1,0,7,,,,,,,,,,,,,,,5,,,69,88
21750,note_on,,1,0,11,,,,,,,,,,,,,,,10,,,69,72
21750,note_on,,1,0,5,,,,,,,,,,,,,,,0,,,69,72
21779,note_on,,29,0,5,,,,,,,,,,,,,,,0,,,69,0
21779,note_on,,29,0,7,,,,,,,,,,,,,,,5,,,69,0
21779,note_on,,29,0,11,,,,,,,,,,,,,,,10,,,69,0
21780,note_on,,1,0,5,,,,,,,,,,,,,,,0,,,67,72
21780,note_on,,1,0,11,,,,,,,,,,,,,,,10,,,67,72
21780,note_on,,1,0,7,,,,,,,,,,,,,,,5,,,67,88
21809,note_on,,29,0,5,,,,,,,,,,,,,,,0,,,67,0
21809,note_on,,29,0,11,,,,,,,,,,,,,,,10,,,67,0
21809,note_on,,29,0,7,,,,,,,,,,,,,,,5,,,67,0
21810,note_on,,1,0,11,,,,,,,,,,,,,,,10,,,69,72
21810,note_on,,1,0,7,,,,,,,,,,,,,,,5,,,69,88
21810,note_on,,1,0,5,,,,,,,,,,,,,,,0,,,69,72
21839,note_on,,29,0,7,,,,,,,,,,,,,,,5,,,69,0
21839,note_on,,119,0,6,,,,,,,,,,,,,,,1,,,50,0
21839,note_on,,29,0,5,,,,,,,,,,,,,,,0,,,69,0
21839,note_on,,0,0,15,,,,,,,,,,,,,,,14,,,74,0
21839,note_on,,0,0,15,,,,,,,,,,,,,,,14,,,69,0
21839,note_on,,0,0,15,,,,,,,,,,,,,,,14,,,62,0
21839,note_on,,0,0,15,,,,,,,,,,,,,,,14,,,54,0
21839,note_on,,119,0,10,,,,,,,,,,,,,,,8,,,54,0
21839,note_on,,119,0,14,,,,,,,,,,,,,,,13,,,50,0
21839,note_on,,119,0,15,,,,,,,,,,,,,,,14,,,50,0
21839,note_on,,29,0,11,,,,,,,,,,,,,,,10,,,69,0
21839,note_on,,119,0,13,,,,,,,,,,,,,,,12,,,54,0
21840,note_on,,1,0,13,,,,,,,,,,,,,,,12,,,55,72
21840,note_on,,1,0,7,,,,,,,,,,,,,,,5,,,70,88
21840,note_on,,0,0,15,,,,,,,,,,,,,,,14,,,70,72
21840,note_on,,1,0,6,,,,,,,,,,,,,,,1,,,43,72
21840,note_on,,1,0,11,,,,,,,,,,,,,,,10,,,70,72
21840,note_on,,0,0,15,,,,,,,,,,,,,,,14,,,55,72
21840,note_on,,0,0,15,,,,,,,,,,,,,,,14,,,67,72
21840,note_on,,1,0,5,,,,,,,,,,,,,,,0,,,70,72
21840,note_on,,1,0,14,,,,,,,,,,,,,,,13,,,43,72
21840,note_on,,0,0,15,,,,,,,,,,,,,,,14,,,62,72
21840,note_on,,1,0,10,,,,,,,,,,,,,,,8,,,55,88
21840,note_on,,1,0,15,,,,,,,,,,,,,,,14,,,43,72
21869,note_on,,29,0,11,,,,,,,,,,,,,,,10,,,70,0
21869,note_on,,29,0,7,,,,,,,,,,,,,,,5,,,70,0
21869,note_on,,29,0,5,,,,,,,,,,,,,,,0,,,70,0
21870,note_on,,1,0,11,,,,,,,,,,,,,,,10,,,72,72
21870,note_on,,1,0,7,,,,,,,,,,,,,,,5,,,72,88
21870,note_on,,1,0,5,,,,,,,,,,,,,,,0,,,72,72
21899,note_on,,29,0,11,,,,,,,,,,,,,,,10,,,72,0
21899,note_on,,59,0,14,,,,,,,,,,,,,,,13,,,43,0
21899,note_on,,59,0,13,,,,,,,,,,,,,,,12,,,55,0
21899,note_on,,29,0,7,,,,,,,,,,,,,,,5,,,72,0
21899,note_on,,59,0,15,,,,,,,,,,,,,,,14,,,43,0
21899,note_on,,29,0,5,,,,,,,,,,,,,,,0,,,72,0
21899,note_on,,59,0,6,,,,,,,,,,,,,,,1,,,43,0
21899,note_on,,0,0,15,,,,,,,,,,,,,,,14,,,55,0
21900,note_on,,1,0,7,,,,,,,,,,,,,,,5,,,70,88
21900,note_on,,1,0,6,,,,,,,,,,,,,,,1,,,55,72
21900,note_on,,1,0,14,,,,,,,,,,,,,,,13,,,55,72
21900,note_on,,1,0,13,,,,,,,,,,,,,,,12,,,55,72
21900,note_on,,1261,0,8,,,,,,,,,,,,,,,6,,,62,88
21900,note_on,,0,0,15,,,,,,,,,,,,,,,14,,,58,72
21900,note_on,,1,0,11,,,,,,,,,,,,,,,10,,,70,72
21900,note_on,,781,0,12,,,,,,,,,,,,,,,11,,,74,72
21900,note_on,,1,0,15,,,,,,,,,,,,,,,14,,,55,72
21900,note_on,,1,0,5,,,,,,,,,,,,,,,0,,,70,72
21929,note_on,,29,0,11,,,,,,,,,,,,,,,10,,,70,0
21929,note_on,,29,0,7,,,,,,,,,,,,,,,5,,,70,0
21929,note_on,,29,0,5,,,,,,,,,,,,,,,0,,,70,0
21930,note_on,,1,0,7,,,,,,,,,,,,,,,5,,,69,88
21930,note_on,,1,0,11,,,,,,,,,,,,,,,10,,,69,72
21930,note_on,,1,0,5,,,,,,,,,,,,,,,0,,,69,72
21959,note_on,,59,0,15,,,,,,,,,,,,,,,14,,,70,0
21959,note_on,,29,0,11,,,,,,,,,,,,,,,10,,,69,0
21959,note_on,,0,0,15,,,,,,,,,,,,,,,14,,,55,0
21959,note_on,,59,0,12,,,,,,,,,,,,,,,11,,,74,0
21959,note_on,,0,0,15,,,,,,,,,,,,,,,14,,,58,0
21959,note_on,,0,0,15,,,,,,,,,,,,,,,14,,,67,0
21959,note_on,,29,0,7,,,,,,,,,,,,,,,5,,,69,0
21959,note_on,,59,0,13,,,,,,,,,,,,,,,12,,,55,0
21959,note_on,,59,0,8,,,,,,,,,,,,,,,6,,,62,0
21959,note_on,,29,0,5,,,,,,,,,,,,,,,0,,,69,0
21959,note_on,,59,0,14,,,,,,,,,,,,,,,13,,,55,0
21959,note_on,,59,0,6,,,,,,,,,,,,,,,1,,,55,0
21959,note_on,,0,0,15,,,,,,,,,,,,,,,14,,,62,0
21960,note_on,,1,0,6,,,,,,,,,,,,,,,1,,,58,72
21960,note_on,,0,0,15,,,,,,,,,,,,,,,14,,,62,72
21960,note_on,,1,0,15,,,,,,,,,,,,,,,14,,,58,72
21960,note_on,,1,0,11,,,,,,,,,,,,,,,10,,,70,72
21960,note_on,,1,0,5,,,,,,,,,,,,,,,0,,,70,72
21960,note_on,,1,0,7,,,,,,,,,,,,,,,5,,,70,88
21960,note_on,,1,0,8,,,,,,,,,,,,,,,6,,,67,88
21960,note_on,,1,0,14,,,,,,,,,,,,,,,13,,,58,72
21960,note_on,,1,0,12,,,,,,,,,,,,,,,11,,,79,72
21960,note_on,,1,0,13,,,,,,,,,,,,,,,12,,,62,72
21989,note_on,,29,0,11,,,,,,,,,,,,,,,10,,,70,0
21989,note_on,,29,0,7,,,,,,,,,,,,,,,5,,,70,0
21989,note_on,,29,0,5,,,,,,,,,,,,,,,0,,,70,0
21990,note_on,,1,0,11,,,,,,,,,,,,,,,10,,,74,72
21990,note_on,,1,0,7,,,,,,,,,,,,,,,5,,,74,88
21990,note_on,,1,0,5,,,,,,,,,,,,,,,0,,,74,72
22019,note_on,,59,0,15,,,,,,,,,,,,,,,14,,,58,0
22019,note_on,,59,0,6,,,,,,,,,,,,,,,1,,,58,0
22019,note_on,,59,0,8,,,,,,,,,,,,,,,6,,,67,0
22019,note_on,,29,0,5,,,,,,,,,,,,,,,0,,,74,0
22019,note_on,,29,0,7,,,,,,,,,,,,,,,5,,,74,0
22019,note_on,,59,0,14,,,,,,,,,,,,,,,13,,,58,0
22019,note_on,,59,0,13,,,,,,,,,,,,,,,12,,,62,0
22019,note_on,,29,0,11,,,,,,,,,,,,,,,10,,,74,0
22019,note_on,,59,0,12,,,,,,,,,,,,,,,11,,,79,0
22019,note_on,,0,0,15,,,,,,,,,,,,,,,14,,,62,0
22020,note_on,,0,0,15,,,,,,,,,,,,,,,14,,,62,72
22020,note_on,,1,0,5,,,,,,,,,,,,,,,0,,,72,72
22020,note_on,,1,0,7,,,,,,,,,,,,,,,5,,,72,88
22020,note_on,,1,0,14,,,,,,,,,,,,,,,13,,,55,72
22020,note_on,,1,0,12,,,,,,,,,,,,,,,11,,,79,72
22020,note_on,,1,0,11,,,,,,,,,,,,,,,10,,,72,72
22020,note_on,,1,0,6,,,,,,,,,,,,,,,1,,,55,72
22020,note_on,,1,0,8,,,,,,,,,,,,,,,6,,,67,88
22020,note_on,,0,0,15,,,,,,,,,,,,,,,14,,,67,72
22020,note_on,,0,0,15,,,,,,,,,,,,,,,14,,,70,72
22020,note_on,,0,0,15,,,,,,,,,,,,,,,14,,,58,72
22020,note_on,,1,0,15,,,,,,,,,,,,,,,14,,,55,72
22020,note_on,,1,0,13,,,,,,,,,,,,,,,12,,,62,72
22049,note_on,,29,0,5,,,,,,,,,,,,,,,0,,,72,0
22049,note_on,,29,0,11,,,,,,,,,,,,,,,10,,,72,0
22049,note_on,,29,0,7,,,,,,,,,,,,,,,5,,,72,0
22050,note_on,,1,0,5,,,,,,,,,,,,,,,0,,,70,72
22050,note_on,,1,0,11,,,,,,,,,,,,,,,10,,,70,72
22050,note_on,,1,0,7,,,,,,,,,,,,,,,5,,,70,88
22079,note_on,,59,0,12,,,,,,,,,,,,,,,11,,,79,0
22079,note_on,,239,0,10,,,,,,,,,,,,,,,8,,,55,0
22079,note_on,,0,0,15,,,,,,,,,,,,,,,14,,,58,0
22079,note_on,,0,0,15,,,,,,,,,,,,,,,14,,,67,0
22079,note_on,,0,0,15,,,,,,,,,,,,,,,14,,,70,0
22079,note_on,,59,0,13,,,,,,,,,,,,,,,12,,,62,0
22079,note_on,,59,0,15,,,,,,,,,,,,,,,14,,,55,0
22079,note_on,,29,0,5,,,,,,,,,,,,,,,0,,,70,0
22079,note_on,,59,0,6,,,,,,,,,,,,,,,1,,,55,0
22079,note_on,,0,0,15,,,,,,,,,,,,,,,14,,,62,0
22079,note_on,,59,0,14,,,,,,,,,,,,,,,13,,,55,0
22079,note_on,,29,0,7,,,,,,,,,,,,,,,5,,,70,0
22079,note_on,,29,0,11,,,,,,,,,,,,,,,10,,,70,0
22079,note_on,,59,0,8,,,,,,,,,,,,,,,6,,,67,0
22080,note_on,,1,0,5,,,,,,,,,,,,,,,0,,,69,72
22080,note_on,,1,0,6,,,,,,,,,,,,,,,1,,,50,72
22080,note_on,,1,0,11,,,,,,,,,,,,,,,10,,,69,72
22080,note_on,,1,0,7,,,,,,,,,,,,,,,5,,,69,88
22080,note_on,,0,0,15,,,,,,,,,,,,,,,14,,,69,72
22080,note_on,,0,0,15,,,,,,,,,,,,,,,14,,,65,72
22080,note_on,,1,0,12,,,,,,,,,,,,,,,11,,,77,72
22080,note_on,,1,0,8,,,,,,,,,,,,,,,6,,,65,88
22080,note_on,,1,0,10,,,,,,,,,,,,,,,8,,,50,88
22080,note_on,,1,0,15,,,,,,,,,,,,,,,14,,,50,72
22080,note_on,,1,0,13,,,,,,,,,,,,,,,12,,,62,72
22080,note_on,,1,0,14,,,,,,,,,,,,,,,13,,,50,72
22080,note_on,,0,0,15,,,,,,,,,,,,,,,14,,,74,72
22080,note_on,,0,0,15,,,,,,,,,,,,,,,14,,,57,72
22109,note_on,,29,0,8,,,,,,,,,,,,,,,6,,,65,0
22109,note_on,,29,0,12,,,,,,,,,,,,,,,11,,,77,0
22110,note_on,,1,0,8,,,,,,,,,,,,,,,6,,,67,88
22110,note_on,,1,0,12,,,,,,,,,,,,,,,11,,,79,72
22139,note_on,,29,0,8,,,,,,,,,,,,,,,6,,,67,0
22139,note_on,,29,0,12,,,,,,,,,,,,,,,11,,,79,0
22139,note_on,,59,0,11,,,,,,,,,,,,,,,10,,,69,0
22140,note_on,,1,0,11,,,,,,,,,,,,,,,10,,,81,72
22140,note_on,,1,0,12,,,,,,,,,,,,,,,11,,,77,72
22140,note_on,,1,0,8,,,,,,,,,,,,,,,6,,,65,88
22140,note_on,,781,0,9,,,,,,,,,,,,,,,7,,,57,88
22169,note_on,,29,0,8,,,,,,,,,,,,,,,6,,,65,0
22169,note_on,,29,0,12,,,,,,,,,,,,,,,11,,,77,0
22170,note_on,,1,0,12,,,,,,,,,,,,,,,11,,,75,72
22170,note_on,,1,0,8,,,,,,,,,,,,,,,6,,,63,88
22199,note_on,,29,0,8,,,,,,,,,,,,,,,6,,,63,0
22199,note_on,,29,0,12,,,,,,,,,,,,,,,11,,,75,0
22199,note_on,,119,0,10,,,,,,,,,,,,,,,8,,,50,0
22199,note_on,,59,0,11,,,,,,,,,,,,,,,10,,,81,0
22199,note_on,,119,0,13,,,,,,,,,,,,,,,12,,,62,0
22199,note_on,,119,0,5,,,,,,,,,,,,,,,0,,,69,0
22199,note_on,,119,0,14,,,,,,,,,,,,,,,13,,,50,0
22199,note_on,,59,0,9,,,,,,,,,,,,,,,7,,,57,0
22199,note_on,,0,0,15,,,,,,,,,,,,,,,14,,,74,0
22199,note_on,,119,0,15,,,,,,,,,,,,,,,14,,,50,0
22199,note_on,,119,0,6,,,,,,,,,,,,,,,1,,,50,0
22199,note_on,,0,0,15,,,,,,,,,,,,,,,14,,,69,0
22199,note_on,,0,0,15,,,,,,,,,,,,,,,14,,,65,0
22199,note_on,,0,0,15,,,,,,,,,,,,,,,14,,,57,0
22199,note_on,,119,0,7,,,,,,,,,,,,,,,5,,,69,0
22200,note_on,,1,0,9,,,,,,,,,,,,,,,7,,,62,88
22200,note_on,,1,0,8,,,,,,,,,,,,,,,6,,,65,88
22200,note_on,,1,0,12,,,,,,,,,,,,,,,11,,,77,72
22200,note_on,,1,0,11,,,,,,,,,,,,,,,10,,,86,72
22229,note_on,,29,0,8,,,,,,,,,,,,,,,6,,,65,0
22229,note_on,,29,0,12,,,,,,,,,,,,,,,11,,,77,0
22230,note_on,,1,0,12,,,,,,,,,,,,,,,11,,,74,72
22230,note_on,,1,0,8,,,,,,,,,,,,,,,6,,,62,88
22259,note_on,,29,0,12,,,,,,,,,,,,,,,11,,,74,0
22259,note_on,,29,0,8,,,,,,,,,,,,,,,6,,,62,0
22259,note_on,,59,0,9,,,,,,,,,,,,,,,7,,,62,0
22259,note_on,,59,0,11,,,,,,,,,,,,,,,10,,,86,0
22260,note_on,,61,0,15,,,,,,,,,,,,,,,14,,,46,72
22260,note_on,,1,0,12,,,,,,,,,,,,,,,11,,,72,72
22260,note_on,,0,0,15,,,,,,,,,,,,,,,14,,,74,72
22260,note_on,,1,0,8,,,,,,,,,,,,,,,6,,,60,88
22260,note_on,,0,0,15,,,,,,,,,,,,,,,14,,,67,72
22260,note_on,,61,0,14,,,,,,,,,,,,,,,13,,,46,72
22260,note_on,,1,0,11,,,,,,,,,,,,,,,10,,,86,72
22260,note_on,,1,0,9,,,,,,,,,,,,,,,7,,,62,88
22260,note_on,,0,0,15,,,,,,,,,,,,,,,14,,,79,72
22260,note_on,,61,0,13,,,,,,,,,,,,,,,12,,,67,72
22260,note_on,,61,0,6,,,,,,,,,,,,,,,1,,,46,72
22260,note_on,,0,0,15,,,,,,,,,,,,,,,14,,,55,72
22289,note_on,,29,0,12,,,,,,,,,,,,,,,11,,,72,0
22289,note_on,,29,0,8,,,,,,,,,,,,,,,6,,,60,0
22290,note_on,,1,0,8,,,,,,,,,,,,,,,6,,,62,88
22290,note_on,,1,0,12,,,,,,,,,,,,,,,11,,,74,72
22319,note_on,,59,0,6,,,,,,,,,,,,,,,1,,,46,0
22319,note_on,,59,0,15,,,,,,,,,,,,,,,14,,,46,0
22319,note_on,,0,0,15,,,,,,,,,,,,,,,14,,,79,0
22319,note_on,,59,0,9,,,,,,,,,,,,,,,7,,,62,0
22319,note_on,,0,0,15,,,,,,,,,,,,,,,14,,,55,0
22319,note_on,,0,0,15,,,,,,,,,,,,,,,14,,,67,0
22319,note_on,,59,0,14,,,,,,,,,,,,,,,13,,,46,0
22319,note_on,,59,0,11,,,,,,,,,,,,,,,10,,,86,0
22319,note_on,,29,0,12,,,,,,,,,,,,,,,11,,,74,0
22319,note_on,,0,0,15,,,,,,,,,,,,,,,14,,,74,0
22319,note_on,,59,0,13,,,,,,,,,,,,,,,12,,,67,0
22319,note_on,,29,0,8,,,,,,,,,,,,,,,6,,,62,0
22320,note_on,,1,0,9,,,,,,,,,,,,,,,7,,,60,88
22320,note_on,,1,0,11,,,,,,,,,,,,,,,10,,,84,72
22320,note_on,,1,0,12,,,,,,,,,,,,,,,11,,,75,72
22320,note_on,,1,0,6,,,,,,,,,,,,,,,1,,,48,72
22320,note_on,,1,0,15,,,,,,,,,,,,,,,14,,,48,72
22320,note_on,,1,0,8,,,,,,,,,,,,,,,6,,,63,88
22320,note_on,,0,0,15,,,,,,,,,,,,,,,14,,,75,72
22320,note_on,,1,0,13,,,,,,,,,,,,,,,12,,,67,72
22320,note_on,,0,0,15,,,,,,,,,,,,,,,14,,,72,72
22320,note_on,,0,0,15,,,,,,,,,,,,,,,14,,,67,72
22320,note_on,,0,0,15,,,,,,,,,,,,,,,14,,,55,72
22320,note_on,,1,0,14,,,,,,,,,,,,,,,13,,,48,72
22349,note_on,,29,0,8,,,,,,,,,,,,,,,6,,,63,0
22349,note_on,,29,0,12,,,,,,,,,,,,,,,11,,,75,0
22349,note_on,,29,0,9,,,,,,,,,,,,,,,7,,,60,0
22349,note_on,,29,0,11,,,,,,,,,,,,,,,10,,,84,0
22350,note_on,,1,0,8,,,,,,,,,,,,,,,6,,,65,88
22350,note_on,,1,0,12,,,,,,,,,,,,,,,11,,,77,72
22350,note_on,,1,0,9,,,,,,,,,,,,,,,7,,,62,88
22350,note_on,,1,0,11,,,,,,,,,,,,,,,10,,,86,72
22379,note_on,,29,0,9,,,,,,,,,,,,,,,7,,,62,0
22379,note_on,,29,0,11,,,,,,,,,,,,,,,10,,,86,0
22379,note_on,,29,0,8,,,,,,,,,,,,,,,6,,,65,0
22379,note_on,,29,0,12,,,,,,,,,,,,,,,11,,,77,0
22380,note_on,,1,0,11,,,,,,,,,,,,,,,10,,,84,72
22380,note_on,,1,0,8,,,,,,,,,,,,,,,6,,,63,88
22380,note_on,,1,0,12,,,,,,,,,,,,,,,11,,,75,72
22380,note_on,,1,0,9,,,,,,,,,,,,,,,7,,,60,88
22409,note_on,,29,0,11,,,,,,,,,,,,,,,10,,,84,0
22409,note_on,,29,0,8,,,,,,,,,,,,,,,6,,,63,0
22409,note_on,,29,0,12,,,,,,,,,,,,,,,11,,,75,0
22409,note_on,,29,0,9,,,,,,,,,,,,,,,7,,,60,0
22410,note_on,,1,0,9,,,,,,,,,,,,,,,7,,,58,88
22410,note_on,,1,0,12,,,,,,,,,,,,,,,11,,,74,72
22410,note_on,,1,0,11,,,,,,,,,,,,,,,10,,,82,72
22410,note_on,,1,0,8,,,,,,,,,,,,,,,6,,,62,88
22439,note_on,,119,0,15,,,,,,,,,,,,,,,14,,,48,0
22439,note_on,,0,0,15,,,,,,,,,,,,,,,14,,,75,0
22439,note_on,,0,0,15,,,,,,,,,,,,,,,14,,,55,0
22439,note_on,,0,0,15,,,,,,,,,,,,,,,14,,,72,0
22439,note_on,,0,0,15,,,,,,,,,,,,,,,14,,,67,0
22439,note_on,,29,0,8,,,,,,,,,,,,,,,6,,,62,0
22439,note_on,,29,0,12,,,,,,,,,,,,,,,11,,,74,0
22439,note_on,,29,0,11,,,,,,,,,,,,,,,10,,,82,0
22439,note_on,,29,0,9,,,,,,,,,,,,,,,7,,,58,0
22439,note_on,,119,0,13,,,,,,,,,,,,,,,12,,,67,0
22439,note_on,,119,0,6,,,,,,,,,,,,,,,1,,,48,0
22439,note_on,,119,0,14,,,,,,,,,,,,,,,13,,,48,0
22440,note_on,,1,0,8,,,,,,,,,,,,,,,6,,,63,88
22440,note_on,,1,0,11,,,,,,,,,,,,,,,10,,,84,72
22440,note_on,,1,0,9,,,,,,,,,,,,,,,7,,,60,88
22440,note_on,,1,0,12,,,,,,,,,,,,,,,11,,,75,72
22469,note_on,,29,0,12,,,,,,,,,,,,,,,11,,,75,0
22469,note_on,,29,0,11,,,,,,,,,,,,,,,10,,,84,0
22469,note_on,,29,0,8,,,,,,,,,,,,,,,6,,,63,0
22469,note_on,,29,0,9,,,,,,,,,,,,,,,7,,,60,0
22470,note_on,,1,0,8,,,,,,,,,,,,,,,6,,,60,88
22470,note_on,,1,0,12,,,,,,,,,,,,,,,11,,,72,72
22470,note_on,,1,0,11,,,,,,,,,,,,,,,10,,,81,72
22470,note_on,,1,0,9,,,,,,,,,,,,,,,7,,,57,88
22499,note_on,,29,0,8,,,,,,,,,,,,,,,6,,,60,0
22499,note_on,,29,0,12,,,,,,,,,,,,,,,11,,,72,0
22499,note_on,,29,0,9,,,,,,,,,,,,,,,7,,,57,0
22499,note_on,,29,0,11,,,,,,,,,,,,,,,10,,,81,0
22500,note_on,,1,0,11,,,,,,,,,,,,,,,10,,,79,72
22500,note_on,,301,0,5,,,,,,,,,,,,,,,0,,,69,72
22500,note_on,,1,0,8,,,,,,,,,,,,,,,6,,,58,88
22500,note_on,,61,0,15,,,,,,,,,,,,,,,14,,,41,72
22500,note_on,,0,0,15,,,,,,,,,,,,,,,14,,,77,72
22500,note_on,,0,0,15,,,,,,,,,,,,,,,14,,,72,72
22500,note_on,,0,0,15,,,,,,,,,,,,,,,14,,,69,72
22500,note_on,,0,0,15,,,,,,,,,,,,,,,14,,,53,72
22500,note_on,,301,0,7,,,,,,,,,,,,,,,5,,,69,88
22500,note_on,,61,0,13,,,,,,,,,,,,,,,12,,,69,72
22500,note_on,,61,0,6,,,,,,,,,,,,,,,1,,,41,72
22500,note_on,,1,0,9,,,,,,,,,,,,,,,7,,,55,88
22500,note_on,,1,0,12,,,,,,,,,,,,,,,11,,,70,72
22500,note_on,,61,0,14,,,,,,,,,,,,,,,13,,,41,72
22529,note_on,,29,0,9,,,,,,,,,,,,,,,7,,,55,0
22529,note_on,,29,0,8,,,,,,,,,,,,,,,6,,,58,0
22529,note_on,,29,0,12,,,,,,,,,,,,,,,11,,,70,0
22529,note_on,,29,0,11,,,,,,,,,,,,,,,10,,,79,0
22530,note_on,,1,0,9,,,,,,,,,,,,,,,7,,,57,88
22530,note_on,,1,0,8,,,,,,,,,,,,,,,6,,,60,88
22530,note_on,,1,0,11,,,,,,,,,,,,,,,10,,,81,72
22530,note_on,,1,0,12,,,,,,,,,,,,,,,11,,,72,72
22559,note_on,,29,0,12,,,,,,,,,,,,,,,11,,,72,0
22559,note_on,,59,0,15,,,,,,,,,,,,,,,14,,,41,0
22559,note_on,,0,0,15,,,,,,,,,,,,,,,14,,,77,0
22559,note_on,,0,0,15,,,,,,,,,,,,,,,14,,,72,0
22559,note_on,,0,0,15,,,,,,,,,,,,,,,14,,,69,0
22559,note_on,,0,0,15,,,,,,,,,,,,,,,14,,,53,0
22559,note_on,,29,0,11,,,,,,,,,,,,,,,10,,,81,0
22559,note_on,,59,0,14,,,,,,,,,,,,,,,13,,,41,0
22559,note_on,,29,0,9,,,,,,,,,,,,,,,7,,,57,0
22559,note_on,,59,0,6,,,,,,,,,,,,,,,1,,,41,0
22559,note_on,,59,0,7,,,,,,,,,,,,,,,5,,,69,0
22559,note_on,,59,0,5,,,,,,,,,,,,,,,0,,,69,0
22559,note_on,,59,0,13,,,,,,,,,,,,,,,12,,,69,0
22559,note_on,,29,0,8,,,,,,,,,,,,,,,6,,,60,0
22560,note_on,,0,0,15,,,,,,,,,,,,,,,14,,,70,72
22560,note_on,,0,0,15,,,,,,,,,,,,,,,14,,,74,72
22560,note_on,,1,0,8,,,,,,,,,,,,,,,6,,,62,88
22560,note_on,,1,0,12,,,,,,,,,,,,,,,11,,,74,72
22560,note_on,,1,0,5,,,,,,,,,,,,,,,0,,,74,72
22560,note_on,,0,0,15,,,,,,,,,,,,,,,14,,,53,72
22560,note_on,,1,0,11,,,,,,,,,,,,,,,10,,,82,72
22560,note_on,,0,0,15,,,,,,,,,,,,,,,14,,,65,72
22560,note_on,,1,0,13,,,,,,,,,,,,,,,12,,,65,72
22560,note_on,,1,0,15,,,,,,,,,,,,,,,14,,,46,72
22560,note_on,,1,0,7,,,,,,,,,,,,,,,5,,,74,88
22560,note_on,,1,0,6,,,,,,,,,,,,,,,1,,,46,72
22560,note_on,,1,0,9,,,,,,,,,,,,,,,7,,,58,88
22560,note_on,,1,0,14,,,,,,,,,,,,,,,13,,,46,72
22589,note_on,,29,0,9,,,,,,,,,,,,,,,7,,,58,0
22589,note_on,,29,0,11,,,,,,,,,,,,,,,10,,,82,0
22589,note_on,,29,0,12,,,,,,,,,,,,,,,11,,,74,0
22590,note_on,,1,0,12,,,,,,,,,,,,,,,11,,,75,72
22590,note_on,,1,0,9,,,,,,,,,,,,,,,7,,,60,88
22590,note_on,,1,0,11,,,,,,,,,,,,,,,10,,,84,72
22619,note_on,,59,0,8,,,,,,,,,,,,,,,6,,,62,0
22619,note_on,,29,0,9,,,,,,,,,,,,,,,7,,,60,0
22619,note_on,,59,0,5,,,,,,,,,,,,,,,0,,,74,0
22619,note_on,,59,0,13,,,,,,,,,,,,,,,12,,,65,0
22619,note_on,,29,0,11,,,,,,,,,,,,,,,10,,,84,0
22619,note_on,,59,0,7,,,,,,,,,,,,,,,5,,,74,0
22619,note_on,,29,0,12,,,,,,,,,,,,,,,11,,,75,0
22620,note_on,,1,0,8,,,,,,,,,,,,,,,6,,,62,88
22620,note_on,,1,0,9,,,,,,,,,,,,,,,7,,,58,88
22620,note_on,,1,0,12,,,,,,,,,,,,,,,11,,,74,72
22620,note_on,,1,0,7,,,,,,,,,,,,,,,5,,,74,88
22620,note_on,,1,0,11,,,,,,,,,,,,,,,10,,,82,72
22620,note_on,,1,0,5,,,,,,,,,,,,,,,0,,,74,72
22620,note_on,,1,0,13,,,,,,,,,,,,,,,12,,,62,72
22649,note_on,,29,0,12,,,,,,,,,,,,,,,11,,,74,0
22649,note_on,,29,0,9,,,,,,,,,,,,,,,7,,,58,0
22649,note_on,,29,0,11,,,,,,,,,,,,,,,10,,,82,0
22650,note_on,,1,0,9,,,,,,,,,,,,,,,7,,,57,88
22650,note_on,,1,0,11,,,,,,,,,,,,,,,10,,,81,72
22650,note_on,,1,0,12,,,,,,,,,,,,,,,11,,,72,72
22679,note_on,,29,0,9,,,,,,,,,,,,,,,7,,,57,0
22679,note_on,,0,0,15,,,,,,,,,,,,,,,14,,,70,0
22679,note_on,,59,0,8,,,,,,,,,,,,,,,6,,,62,0
22679,note_on,,59,0,7,,,,,,,,,,,,,,,5,,,74,0
22679,note_on,,0,0,15,,,,,,,,,,,,,,,14,,,65,0
22679,note_on,,29,0,12,,,,,,,,,,,,,,,11,,,72,0
22679,note_on,,0,0,15,,,,,,,,,,,,,,,14,,,53,0
22679,note_on,,59,0,5,,,,,,,,,,,,,,,0,,,74,0
22679,note_on,,119,0,6,,,,,,,,,,,,,,,1,,,46,0
22679,note_on,,0,0,15,,,,,,,,,,,,,,,14,,,74,0
22679,note_on,,59,0,13,,,,,,,,,,,,,,,12,,,62,0
22679,note_on,,119,0,14,,,,,,,,,,,,,,,13,,,46,0
22679,note_on,,29,0,11,,,,,,,,,,,,,,,10,,,81,0
22679,note_on,,119,0,15,,,,,,,,,,,,,,,14,,,46,0
22680,note_on,,1,0,11,,,,,,,,,,,,,,,10,,,82,72
22680,note_on,,1,0,13,,,,,,,,,,,,,,,12,,,67,72
22680,note_on,,1,0,12,,,,,,,,,,,,,,,11,,,74,72
22680,note_on,,1,0,5,,,,,,,,,,,,,,,0,,,74,72
22680,note_on,,1,0,8,,,,,,,,,,,,,,,6,,,70,88
22680,note_on,,1,0,7,,,,,,,,,,,,,,,5,,,74,88
22680,note_on,,1,0,9,,,,,,,,,,,,,,,7,,,58,88
22709,note_on,,29,0,12,,,,,,,,,,,,,,,11,,,74,0
22709,note_on,,29,0,11,,,,,,,,,,,,,,,10,,,82,0
22709,note_on,,29,0,9,,,,,,,,,,,,,,,7,,,58,0
22710,note_on,,1,0,12,,,,,,,,,,,,,,,11,,,70,72
22710,note_on,,1,0,11,,,,,,,,,,,,,,,10,,,79,72
22710,note_on,,1,0,9,,,,,,,,,,,,,,,7,,,55,88
22739,note_on,,59,0,7,,,,,,,,,,,,,,,5,,,74,0
22739,note_on,,29,0,12,,,,,,,,,,,,,,,11,,,70,0
22739,note_on,,59,0,5,,,,,,,,,,,,,,,0,,,74,0
22739,note_on,,29,0,9,,,,,,,,,,,,,,,7,,,55,0
22739,note_on,,59,0,8,,,,,,,,,,,,,,,6,,,70,0
22739,note_on,,29,0,11,,,,,,,,,,,,,,,10,,,79,0
22740,note_on,,1,0,12,,,,,,,,,,,,,,,11,,,69,72
22740,note_on,,1,0,11,,,,,,,,,,,,,,,10,,,78,72
22740,note_on,,61,0,14,,,,,,,,,,,,,,,13,,,51,72
22740,note_on,,1,0,5,,,,,,,,,,,,,,,0,,,74,72
22740,note_on,,1,0,9,,,,,,,,,,,,,,,7,,,54,88
22740,note_on,,0,0,15,,,,,,,,,,,,,,,14,,,70,72
22740,note_on,,61,0,15,,,,,,,,,,,,,,,14,,,51,72
22740,note_on,,61,0,6,,,,,,,,,,,,,,,1,,,51,72
22740,note_on,,0,0,15,,,,,,,,,,,,,,,14,,,67,72
22740,note_on,,0,0,15,,,,,,,,,,,,,,,14,,,55,72
22740,note_on,,1,0,8,,,,,,,,,,,,,,,6,,,70,88
22740,note_on,,0,0,15,,,,,,,,,,,,,,,14,,,63,72
22740,note_on,,1,0,7,,,,,,,,,,,,,,,5,,,74,88
22769,note_on,,29,0,9,,,,,,,,,,,,,,,7,,,54,0
22769,note_on,,29,0,11,,,,,,,,,,,,,,,10,,,78,0
22769,note_on,,29,0,12,,,,,,,,,,,,,,,11,,,69,0
22770,note_on,,1,0,12,,,,,,,,,,,,,,,11,,,70,72
22770,note_on,,1,0,11,,,,,,,,,,,,,,,10,,,79,72
22770,note_on,,1,0,9,,,,,,,,,,,,,,,7,,,55,88
22799,note_on,,0,0,15,,,,,,,,,,,,,,,14,,,55,0
22799,note_on,,59,0,5,,,,,,,,,,,,,,,0,,,74,0
22799,note_on,,0,0,15,,,,,,,,,,,,,,,14,,,63,0
22799,note_on,,0,0,15,,,,,,,,,,,,,,,14,,,67,0
22799,note_on,,59,0,8,,,,,,,,,,,,,,,6,,,70,0
22799,note_on,,29,0,9,,,,,,,,,,,,,,,7,,,55,0
22799,note_on,,0,0,15,,,,,,,,,,,,,,,14,,,70,0
22799,note_on,,59,0,14,,,,,,,,,,,,,,,13,,,51,0
22799,note_on,,59,0,6,,,,,,,,,,,,,,,1,,,51,0
22799,note_on,,119,0,13,,,,,,,,,,,,,,,12,,,67,0
22799,note_on,,29,0,11,,,,,,,,,,,,,,,10,,,79,0
22799,note_on,,59,0,7,,,,,,,,,,,,,,,5,,,74,0
22799,note_on,,59,0,15,,,,,,,,,,,,,,,14,,,51,0
22799,note_on,,29,0,12,,,,,,,,,,,,,,,11,,,70,0
22800,note_on,,1,0,15,,,,,,,,,,,,,,,14,,,48,72
22800,note_on,,1,0,12,,,,,,,,,,,,,,,11,,,72,72
22800,note_on,,1,0,14,,,,,,,,,,,,,,,13,,,48,72
22800,note_on,,1,0,9,,,,,,,,,,,,,,,7,,,57,88
22800,note_on,,1,0,7,,,,,,,,,,,,,,,5,,,72,88
22800,note_on,,1,0,6,,,,,,,,,,,,,,,1,,,48,72
22800,note_on,,1,0,8,,,,,,,,,,,,,,,6,,,69,88
22800,note_on,,0,0,15,,,,,,,,,,,,,,,14,,,72,72
22800,note_on,,1,0,11,,,,,,,,,,,,,,,10,,,81,72
22800,note_on,,1,0,5,,,,,,,,,,,,,,,0,,,72,72
22800,note_on,,0,0,15,,,,,,,,,,,,,,,14,,,63,72
22800,note_on,,0,0,15,,,,,,,,,,,,,,,14,,,55,72
22800,note_on,,0,0,15,,,,,,,,,,,,,,,14,,,69,72
22800,note_on,,1,0,13,,,,,,,,,,,,,,,12,,,67,72
22829,note_on,,29,0,11,,,,,,,,,,,,,,,10,,,81,0
22829,note_on,,29,0,7,,,,,,,,,,,,,,,5,,,72,0
22829,note_on,,29,0,12,,,,,,,,,,,,,,,11,,,72,0
22829,note_on,,29,0,8,,,,,,,,,,,,,,,6,,,69,0
22829,note_on,,29,0,5,,,,,,,,,,,,,,,0,,,72,0
22830,note_on,,1,0,7,,,,,,,,,,,,,,,5,,,74,88
22830,note_on,,1,0,8,,,,,,,,,,,,,,,6,,,70,88
22830,note_on,,1,0,12,,,,,,,,,,,,,,,11,,,74,72
22830,note_on,,1,0,11,,,,,,,,,,,,,,,10,,,82,72
22830,note_on,,1,0,5,,,,,,,,,,,,,,,0,,,74,72
22859,note_on,,29,0,8,,,,,,,,,,,,,,,6,,,70,0
22859,note_on,,29,0,7,,,,,,,,,,,,,,,5,,,74,0
22859,note_on,,59,0,9,,,,,,,,,,,,,,,7,,,57,0
22859,note_on,,29,0,11,,,,,,,,,,,,,,,10,,,82,0
22859,note_on,,29,0,12,,,,,,,,,,,,,,,11,,,74,0
22859,note_on,,29,0,5,,,,,,,,,,,,,,,0,,,74,0
22860,note_on,,1,0,11,,,,,,,,,,,,,,,10,,,81,72
22860,note_on,,1,0,12,,,,,,,,,,,,,,,11,,,72,72
22860,note_on,,1,0,7,,,,,,,,,,,,,,,5,,,72,88
22860,note_on,,1,0,8,,,,,,,,,,,,,,,6,,,69,88
22860,note_on,,1,0,9,,,,,,,,,,,,,,,7,,,57,88
22860,note_on,,1,0,5,,,,,,,,,,,,,,,0,,,72,72
22889,note_on,,29,0,5,,,,,,,,,,,,,,,0,,,72,0
22889,note_on,,29,0,8,,,,,,,,,,,,,,,6,,,69,0
22889,note_on,,29,0,7,,,,,,,,,,,,,,,5,,,72,0
22889,note_on,,29,0,11,,,,,,,,,,,,,,,10,,,81,0
22889,note_on,,29,0,12,,,,,,,,,,,,,,,11,,,72,0
22890,note_on,,1,0,11,,,,,,,,,,,,,,,10,,,79,72
22890,note_on,,1,0,5,,,,,,,,,,,,,,,0,,,70,72
22890,note_on,,1,0,12,,,,,,,,,,,,,,,11,,,70,72
22890,note_on,,1,0,7,,,,,,,,,,,,,,,5,,,70,88
22890,note_on,,1,0,8,,,,,,,,,,,,,,,6,,,67,88
22919,note_on,,29,0,5,,,,,,,,,,,,,,,0,,,70,0
22919,note_on,,0,0,15,,,,,,,,,,,,,,,14,,,55,0
22919,note_on,,29,0,7,,,,,,,,,,,,,,,5,,,70,0
22919,note_on,,29,0,8,,,,,,,,,,,,,,,6,,,67,0
22919,note_on,,119,0,14,,,,,,,,,,,,,,,13,,,48,0
22919,note_on,,0,0,15,,,,,,,,,,,,,,,14,,,63,0
22919,note_on,,29,0,11,,,,,,,,,,,,,,,10,,,79,0
22919,note_on,,0,0,15,,,,,,,,,,,,,,,14,,,72,0
22919,note_on,,119,0,15,,,,,,,,,,,,,,,14,,,48,0
22919,note_on,,29,0,12,,,,,,,,,,,,,,,11,,,70,0
22919,note_on,,119,0,13,,,,,,,,,,,,,,,12,,,67,0
22919,note_on,,0,0,15,,,,,,,,,,,,,,,14,,,69,0
22919,note_on,,119,0,6,,,,,,,,,,,,,,,1,,,48,0
22919,note_on,,59,0,9,,,,,,,,,,,,,,,7,,,57,0
22920,note_on,,1,0,8,,,,,,,,,,,,,,,6,,,69,88
22920,note_on,,1,0,7,,,,,,,,,,,,,,,5,,,72,88
22920,note_on,,1,0,12,,,,,,,,,,,,,,,11,,,72,72
22920,note_on,,1,0,11,,,,,,,,,,,,,,,10,,,81,72
22920,note_on,,1,0,5,,,,,,,,,,,,,,,0,,,72,72
22920,note_on,,1,0,9,,,,,,,,,,,,,,,7,,,62,88
22920,note_on,,1,0,13,,,,,,,,,,,,,,,12,,,66,72
22949,note_on,,29,0,11,,,,,,,,,,,,,,,10,,,81,0
22949,note_on,,29,0,7,,,,,,,,,,,,,,,5,,,72,0
22949,note_on,,29,0,8,,,,,,,,,,,,,,,6,,,69,0
22949,note_on,,29,0,5,,,,,,,,,,,,,,,0,,,72,0
22949,note_on,,29,0,12,,,,,,,,,,,,,,,11,,,72,0
22950,note_on,,1,0,11,,,,,,,,,,,,,,,10,,,78,72
22950,note_on,,1,0,12,,,,,,,,,,,,,,,11,,,69,72
22950,note_on,,1,0,8,,,,,,,,,,,,,,,6,,,66,88
22950,note_on,,1,0,5,,,,,,,,,,,,,,,0,,,69,72
22950,note_on,,1,0,7,,,,,,,,,,,,,,,5,,,69,88
22979,note_on,,29,0,11,,,,,,,,,,,,,,,10,,,78,0
22979,note_on,,29,0,12,,,,,,,,,,,,,,,11,,,69,0
22979,note_on,,29,0,5,,,,,,,,,,,,,,,0,,,69,0
22979,note_on,,29,0,8,,,,,,,,,,,,,,,6,,,66,0
22979,note_on,,59,0,13,,,,,,,,,,,,,,,12,,,66,0
22979,note_on,,29,0,7,,,,,,,,,,,,,,,5,,,69,0
22980,note_on,,1,0,5,,,,,,,,,,,,,,,0,,,67,72
22980,note_on,,1,0,12,,,,,,,,,,,,,,,11,,,67,72
22980,note_on,,1,0,11,,,,,,,,,,,,,,,10,,,76,72
22980,note_on,,1,0,13,,,,,,,,,,,,,,,12,,,62,72
22980,note_on,,0,0,15,,,,,,,,,,,,,,,14,,,54,72
22980,note_on,,0,0,15,,,,,,,,,,,,,,,14,,,62,72
22980,note_on,,61,0,6,,,,,,,,,,,,,,,1,,,50,72
22980,note_on,,1,0,8,,,,,,,,,,,,,,,6,,,64,88
22980,note_on,,61,0,15,,,,,,,,,,,,,,,14,,,50,72
22980,note_on,,61,0,14,,,,,,,,,,,,,,,13,,,50,72
22980,note_on,,1,0,7,,,,,,,,,,,,,,,5,,,67,88
22980,note_on,,781,0,10,,,,,,,,,,,,,,,8,,,50,88
22980,note_on,,0,0,15,,,,,,,,,,,,,,,14,,,69,72
23009,note_on,,29,0,7,,,,,,,,,,,,,,,5,,,67,0
23009,note_on,,29,0,11,,,,,,,,,,,,,,,10,,,76,0
23009,note_on,,29,0,5,,,,,,,,,,,,,,,0,,,67,0
23009,note_on,,29,0,12,,,,,,,,,,,,,,,11,,,67,0
23009,note_on,,29,0,8,,,,,,,,,,,,,,,6,,,64,0
23010,note_on,,1,0,11,,,,,,,,,,,,,,,10,,,78,72
23010,note_on,,1,0,5,,,,,,,,,,,,,,,0,,,69,72
23010,note_on,,1,0,12,,,,,,,,,,,,,,,11,,,69,72
23010,note_on,,1,0,8,,,,,,,,,,,,,,,6,,,66,88
23010,note_on,,1,0,7,,,,,,,,,,,,,,,5,,,69,88
23039,note_on,,29,0,8,,,,,,,,,,,,,,,6,,,66,0
23039,note_on,,0,0,15,,,,,,,,,,,,,,,14,,,54,0
23039,note_on,,29,0,12,,,,,,,,,,,,,,,11,,,69,0
23039,note_on,,59,0,14,,,,,,,,,,,,,,,13,,,50,0
23039,note_on,,29,0,7,,,,,,,,,,,,,,,5,,,69,0
23039,note_on,,0,0,15,,,,,,,,,,,,,,,14,,,69,0
23039,note_on,,59,0,15,,,,,,,,,,,,,,,14,,,50,0
23039,note_on,,59,0,10,,,,,,,,,,,,,,,8,,,50,0
23039,note_on,,0,0,15,,,,,,,,,,,,,,,14,,,62,0
23039,note_on,,59,0,13,,,,,,,,,,,,,,,12,,,62,0
23039,note_on,,29,0,5,,,,,,,,,,,,,,,0,,,69,0
23039,note_on,,59,0,6,,,,,,,,,,,,,,,1,,,50,0
23039,note_on,,29,0,11,,,,,,,,,,,,,,,10,,,78,0
23040,note_on,,1,0,11,,,,,,,,,,,,,,,10,,,79,72
23040,note_on,,1,0,8,,,,,,,,,,,,,,,6,,,67,88
23040,note_on,,0,0,15,,,,,,,,,,,,,,,14,,,70,72
23040,note_on,,1,0,13,,,,,,,,,,,,,,,12,,,62,72
23040,note_on,,1,0,14,,,,,,,,,,,,,,,13,,,43,72
23040,note_on,,1,0,6,,,,,,,,,,,,,,,1,,,43,72
23040,note_on,,0,0,15,,,,,,,,,,,,,,,14,,,62,72
23040,note_on,,1,0,10,,,,,,,,,,,,,,,8,,,55,88
23040,note_on,,1,0,12,,,,,,,,,,,,,,,11,,,70,72
23040,note_on,,1,0,7,,,,,,,,,,,,,,,5,,,70,88
23040,note_on,,0,0,15,,,,,,,,,,,,,,,14,,,55,72
23040,note_on,,1,0,15,,,,,,,,,,,,,,,14,,,43,72
23040,note_on,,1,0,5,,,,,,,,,,,,,,,0,,,70,72
23040,note_on,,0,0,15,,,,,,,,,,,,,,,14,,,67,72
23069,note_on,,29,0,7,,,,,,,,,,,,,,,5,,,70,0
23069,note_on,,29,0,5,,,,,,,,,,,,,,,0,,,70,0
23069,note_on,,29,0,12,,,,,,,,,,,,,,,11,,,70,0
23070,note_on,,1,0,7,,,,,,,,,,,,,,,5,,,72,88
23070,note_on,,1,0,12,,,,,,,,,,,,,,,11,,,72,72
23070,note_on,,1,0,5,,,,,,,,,,,,,,,0,,,72,72
23099,note_on,,29,0,12,,,,,,,,,,,,,,,11,,,72,0
23099,note_on,,29,0,5,,,,,,,,,,,,,,,0,,,72,0
23099,note_on,,59,0,10,,,,,,,,,,,,,,,8,,,55,0
23099,note_on,,29,0,7,,,,,,,,,,,,,,,5,,,72,0
23099,note_on,,59,0,11,,,,,,,,,,,,,,,10,,,79,0
23099,note_on,,179,0,9,,,,,,,,,,,,,,,7,,,62,0
23099,note_on,,59,0,13,,,,,,,,,,,,,,,12,,,62,0
23099,note_on,,59,0,8,,,,,,,,,,,,,,,6,,,67,0
23100,note_on,,1,0,8,,,,,,,,,,,,,,,6,,,62,88
23100,note_on,,1,0,10,,,,,,,,,,,,,,,8,,,55,88
23100,note_on,,1,0,9,,,,,,,,,,,,,,,7,,,58,88
23100,note_on,,1,0,7,,,,,,,,,,,,,,,5,,,70,88
23100,note_on,,1,0,5,,,,,,,,,,,,,,,0,,,70,72
23100,note_on,,1,0,12,,,,,,,,,,,,,,,11,,,70,72
23100,note_on,,1,0,11,,,,,,,,,,,,,,,10,,,74,72
23100,note_on,,1,0,13,,,,,,,,,,,,,,,12,,,67,72
23129,note_on,,29,0,12,,,,,,,,,,,,,,,11,,,70,0
23129,note_on,,29,0,5,,,,,,,,,,,,,,,0,,,70,0
23129,note_on,,29,0,7,,,,,,,,,,,,,,,5,,,70,0
23130,note_on,,1,0,7,,,,,,,,,,,,,,,5,,,69,88
23130,note_on,,1,0,5,,,,,,,,,,,,,,,0,,,69,72
23130,note_on,,1,0,12,,,,,,,,,,,,,,,11,,,69,72
23159,note_on,,59,0,9,,,,,,,,,,,,,,,7,,,58,0
23159,note_on,,59,0,11,,,,,,,,,,,,,,,10,,,74,0
23159,note_on,,59,0,8,,,,,,,,,,,,,,,6,,,62,0
23159,note_on,,29,0,7,,,,,,,,,,,,,,,5,,,69,0
23159,note_on,,59,0,13,,,,,,,,,,,,,,,12,,,67,0
23159,note_on,,0,0,15,,,,,,,,,,,,,,,14,,,67,0
23159,note_on,,29,0,5,,,,,,,,,,,,,,,0,,,69,0
23159,note_on,,0,0,15,,,,,,,,,,,,,,,14,,,62,0
23159,note_on,,119,0,15,,,,,,,,,,,,,,,14,,,70,0
23159,note_on,,29,0,12,,,,,,,,,,,,,,,11,,,69,0
23159,note_on,,59,0,10,,,,,,,,,,,,,,,8,,,55,0
23160,note_on,,1,0,12,,,,,,,,,,,,,,,11,,,70,72
23160,note_on,,1,0,5,,,,,,,,,,,,,,,0,,,70,72
23160,note_on,,0,0,15,,,,,,,,,,,,,,,14,,,58,72
23160,note_on,,1,0,8,,,,,,,,,,,,,,,6,,,67,88
23160,note_on,,1,0,15,,,,,,,,,,,,,,,14,,,67,72
23160,note_on,,0,0,15,,,,,,,,,,,,,,,14,,,63,72
23160,note_on,,1,0,11,,,,,,,,,,,,,,,10,,,75,72
23160,note_on,,1,0,7,,,,,,,,,,,,,,,5,,,70,88
23160,note_on,,1,0,9,,,,,,,,,,,,,,,7,,,63,88
23160,note_on,,1,0,10,,,,,,,,,,,,,,,8,,,55,88
23160,note_on,,1,0,13,,,,,,,,,,,,,,,12,,,67,72
23189,note_on,,29,0,7,,,,,,,,,,,,,,,5,,,70,0
23189,note_on,,29,0,5,,,,,,,,,,,,,,,0,,,70,0
23189,note_on,,29,0,12,,,,,,,,,,,,,,,11,,,70,0
23190,note_on,,1,0,5,,,,,,,,,,,,,,,0,,,67,72
23190,note_on,,1,0,12,,,,,,,,,,,,,,,11,,,67,72
23190,note_on,,1,0,7,,,,,,,,,,,,,,,5,,,67,88
23219,note_on,,59,0,8,,,,,,,,,,,,,,,6,,,67,0
23219,note_on,,29,0,7,,,,,,,,,,,,,,,5,,,67,0
23219,note_on,,29,0,5,,,,,,,,,,,,,,,0,,,67,0
23219,note_on,,59,0,15,,,,,,,,,,,,,,,14,,,43,0
23219,note_on,,29,0,12,,,,,,,,,,,,,,,11,,,67,0
23219,note_on,,59,0,10,,,,,,,,,,,,,,,8,,,55,0
23219,note_on,,179,0,6,,,,,,,,,,,,,,,1,,,43,0
23219,note_on,,179,0,14,,,,,,,,,,,,,,,13,,,43,0
23219,note_on,,59,0,13,,,,,,,,,,,,,,,12,,,67,0
23219,note_on,,0,0,15,,,,,,,,,,,,,,,14,,,55,0
23220,note_on,,1,0,5,,,,,,,,,,,,,,,0,,,65,72
23220,note_on,,1,0,6,,,,,,,,,,,,,,,1,,,48,72
23220,note_on,,1,0,12,,,,,,,,,,,,,,,11,,,65,72
23220,note_on,,1,0,10,,,,,,,,,,,,,,,8,,,55,88
23220,note_on,,1,0,13,,,,,,,,,,,,,,,12,,,63,72
23220,note_on,,1,0,8,,,,,,,,,,,,,,,6,,,70,88
23220,note_on,,1,0,14,,,,,,,,,,,,,,,13,,,48,72
23220,note_on,,1,0,7,,,,,,,,,,,,,,,5,,,65,88
23220,note_on,,1,0,15,,,,,,,,,,,,,,,14,,,48,72
23220,note_on,,0,0,15,,,,,,,,,,,,,,,14,,,55,72
23249,note_on,,29,0,12,,,,,,,,,,,,,,,11,,,65,0
23249,note_on,,29,0,5,,,,,,,,,,,,,,,0,,,65,0
23249,note_on,,29,0,7,,,,,,,,,,,,,,,5,,,65,0
23250,note_on,,1,0,12,,,,,,,,,,,,,,,11,,,67,72
23250,note_on,,1,0,7,,,,,,,,,,,,,,,5,,,67,88
23250,note_on,,1,0,5,,,,,,,,,,,,,,,0,,,67,72
23279,note_on,,29,0,12,,,,,,,,,,,,,,,11,,,67,0
23279,note_on,,59,0,15,,,,,,,,,,,,,,,14,,,67,0
23279,note_on,,59,0,8,,,,,,,,,,,,,,,6,,,70,0
23279,note_on,,59,0,10,,,,,,,,,,,,,,,8,,,55,0
23279,note_on,,59,0,14,,,,,,,,,,,,,,,13,,,48,0
23279,note_on,,0,0,15,,,,,,,,,,,,,,,14,,,63,0
23279,note_on,,29,0,7,,,,,,,,,,,,,,,5,,,67,0
23279,note_on,,29,0,5,,,,,,,,,,,,,,,0,,,67,0
23279,note_on,,59,0,13,,,,,,,,,,,,,,,12,,,63,0
23279,note_on,,0,0,15,,,,,,,,,,,,,,,14,,,58,0
23279,note_on,,0,0,15,,,,,,,,,,,,,,,14,,,48,0
23279,note_on,,0,0,15,,,,,,,,,,,,,,,14,,,55,0
23279,note_on,,59,0,6,,,,,,,,,,,,,,,1,,,48,0
23280,note_on,,0,0,15,,,,,,,,,,,,,,,14,,,60,72
23280,note_on,,0,0,15,,,,,,,,,,,,,,,14,,,63,72
23280,note_on,,1,0,13,,,,,,,,,,,,,,,12,,,60,72
23280,note_on,,1,0,12,,,,,,,,,,,,,,,11,,,69,72
23280,note_on,,0,0,15,,,,,,,,,,,,,,,14,,,65,72
23280,note_on,,0,0,15,,,,,,,,,,,,,,,14,,,57,72
23280,note_on,,1,0,6,,,,,,,,,,,,,,,1,,,53,72
23280,note_on,,1,0,14,,,,,,,,,,,,,,,13,,,53,72
23280,note_on,,1,0,10,,,,,,,,,,,,,,,8,,,53,88
23280,note_on,,1,0,8,,,,,,,,,,,,,,,6,,,69,88
23280,note_on,,1,0,7,,,,,,,,,,,,,,,5,,,69,88
23280,note_on,,1,0,5,,,,,,,,,,,,,,,0,,,69,72
23280,note_on,,1,0,15,,,,,,,,,,,,,,,14,,,53,72
23309,note_on,,29,0,12,,,,,,,,,,,,,,,11,,,69,0
23309,note_on,,29,0,8,,,,,,,,,,,,,,,6,,,69,0
23309,note_on,,29,0,10,,,,,,,,,,,,,,,8,,,53,0
23310,note_on,,1,0,8,,,,,,,,,,,,,,,6,,,70,88
23310,note_on,,1,0,12,,,,,,,,,,,,,,,11,,,70,72
23310,note_on,,1,0,10,,,,,,,,,,,,,,,8,,,55,88
23339,note_on,,29,0,12,,,,,,,,,,,,,,,11,,,70,0
23339,note_on,,29,0,8,,,,,,,,,,,,,,,6,,,70,0
23339,note_on,,29,0,10,,,,,,,,,,,,,,,8,,,55,0
23339,note_on,,59,0,7,,,,,,,,,,,,,,,5,,,69,0
23339,note_on,,59,0,5,,,,,,,,,,,,,,,0,,,69,0
23340,note_on,,1,0,12,,,,,,,,,,,,,,,11,,,69,72
23340,note_on,,1,0,8,,,,,,,,,,,,,,,6,,,69,88
23340,note_on,,1,0,5,,,,,,,,,,,,,,,0,,,69,72
23340,note_on,,1,0,10,,,,,,,,,,,,,,,8,,,53,88
23340,note_on,,1,0,7,,,,,,,,,,,,,,,5,,,69,88
23369,note_on,,29,0,8,,,,,,,,,,,,,,,6,,,69,0
23369,note_on,,29,0,10,,,,,,,,,,,,,,,8,,,53,0
23369,note_on,,29,0,12,,,,,,,,,,,,,,,11,,,69,0
23370,note_on,,1,0,10,,,,,,,,,,,,,,,8,,,51,88
23370,note_on,,1,0,12,,,,,,,,,,,,,,,11,,,67,72
23370,note_on,,1,0,8,,,,,,,,,,,,,,,6,,,67,88
23399,note_on,,239,0,11,,,,,,,,,,,,,,,10,,,75,0
23399,note_on,,119,0,13,,,,,,,,,,,,,,,12,,,60,0
23399,note_on,,59,0,7,,,,,,,,,,,,,,,5,,,69,0
23399,note_on,,29,0,12,,,,,,,,,,,,,,,11,,,67,0
23399,note_on,,59,0,5,,,,,,,,,,,,,,,0,,,69,0
23399,note_on,,239,0,9,,,,,,,,,,,,,,,7,,,63,0
23399,note_on,,29,0,8,,,,,,,,,,,,,,,6,,,67,0
23399,note_on,,29,0,10,,,,,,,,,,,,,,,8,,,51,0
23399,note_on,,0,0,15,,,,,,,,,,,,,,,14,,,60,0
23399,note_on,,0,0,15,,,,,,,,,,,,,,,14,,,63,0
23399,note_on,,119,0,15,,,,,,,,,,,,,,,14,,,65,0
23400,note_on,,1,0,7,,,,,,,,,,,,,,,5,,,74,88
23400,note_on,,1,0,13,,,,,,,,,,,,,,,12,,,65,72
23400,note_on,,1,0,10,,,,,,,,,,,,,,,8,,,53,88
23400,note_on,,1,0,5,,,,,,,,,,,,,,,0,,,74,72
23400,note_on,,1,0,9,,,,,,,,,,,,,,,7,,,62,88
23400,note_on,,0,0,15,,,,,,,,,,,,,,,14,,,62,72
23400,note_on,,1,0,12,,,,,,,,,,,,,,,11,,,69,72
23400,note_on,,1,0,15,,,,,,,,,,,,,,,14,,,74,72
23400,note_on,,0,0,15,,,,,,,,,,,,,,,14,,,69,72
23400,note_on,,0,0,15,,,,,,,,,,,,,,,14,,,65,72
23400,note_on,,1,0,11,,,,,,,,,,,,,,,10,,,74,72
23400,note_on,,1,0,8,,,,,,,,,,,,,,,6,,,69,88
23429,note_on,,29,0,10,,,,,,,,,,,,,,,8,,,53,0
23429,note_on,,29,0,8,,,,,,,,,,,,,,,6,,,69,0
23429,note_on,,29,0,12,,,,,,,,,,,,,,,11,,,69,0
23430,note_on,,1,0,10,,,,,,,,,,,,,,,8,,,50,88
23430,note_on,,1,0,8,,,,,,,,,,,,,,,6,,,65,88
23430,note_on,,1,0,12,,,,,,,,,,,,,,,11,,,65,72
23459,note_on,,179,0,6,,,,,,,,,,,,,,,1,,,53,0
23459,note_on,,59,0,9,,,,,,,,,,,,,,,7,,,62,0
23459,note_on,,29,0,12,,,,,,,,,,,,,,,11,,,65,0
23459,note_on,,29,0,8,,,,,,,,,,,,,,,6,,,65,0
23459,note_on,,0,0,15,,,,,,,,,,,,,,,14,,,57,0
23459,note_on,,59,0,15,,,,,,,,,,,,,,,14,,,53,0
23459,note_on,,29,0,10,,,,,,,,,,,,,,,8,,,50,0
23459,note_on,,179,0,14,,,,,,,,,,,,,,,13,,,53,0
23460,note_on,,1,0,12,,,,,,,,,,,,,,,11,,,70,72
23460,note_on,,1,0,6,,,,,,,,,,,,,,,1,,,50,72
23460,note_on,,1,0,10,,,,,,,,,,,,,,,8,,,48,88
23460,note_on,,1,0,14,,,,,,,,,,,,,,,13,,,50,72
23460,note_on,,1,0,9,,,,,,,,,,,,,,,7,,,58,88
23460,note_on,,1,0,8,,,,,,,,,,,,,,,6,,,70,88
23460,note_on,,1,0,15,,,,,,,,,,,,,,,14,,,50,72
23460,note_on,,0,0,15,,,,,,,,,,,,,,,14,,,53,72
23489,note_on,,29,0,10,,,,,,,,,,,,,,,8,,,48,0
23489,note_on,,29,0,8,,,,,,,,,,,,,,,6,,,70,0
23489,note_on,,29,0,12,,,,,,,,,,,,,,,11,,,70,0
23490,note_on,,1,0,8,,,,,,,,,,,,,,,6,,,69,88
23490,note_on,,1,0,12,,,,,,,,,,,,,,,11,,,69,72
23490,note_on,,1,0,10,,,,,,,,,,,,,,,8,,,50,88
23519,note_on,,29,0,8,,,,,,,,,,,,,,,6,,,69,0
23519,note_on,,59,0,14,,,,,,,,,,,,,,,13,,,50,0
23519,note_on,,59,0,6,,,,,,,,,,,,,,,1,,,50,0
23519,note_on,,29,0,10,,,,,,,,,,,,,,,8,,,50,0
23519,note_on,,119,0,13,,,,,,,,,,,,,,,12,,,65,0
23519,note_on,,0,0,15,,,,,,,,,,,,,,,14,,,53,0
23519,note_on,,0,0,15,,,,,,,,,,,,,,,14,,,62,0
23519,note_on,,0,0,15,,,,,,,,,,,,,,,14,,,50,0
23519,note_on,,0,0,15,,,,,,,,,,,,,,,14,,,65,0
23519,note_on,,0,0,15,,,,,,,,,,,,,,,14,,,69,0
23519,note_on,,59,0,15,,,,,,,,,,,,,,,14,,,74,0
23519,note_on,,29,0,12,,,,,,,,,,,,,,,11,,,69,0
23520,note_on,,0,0,15,,,,,,,,,,,,,,,14,,,55,72
23520,note_on,,0,0,15,,,,,,,,,,,,,,,14,,,67,72
23520,note_on,,0,0,15,,,,,,,,,,,,,,,14,,,74,72
23520,note_on,,1,0,15,,,,,,,,,,,,,,,14,,,51,72
23520,note_on,,1,0,8,,,,,,,,,,,,,,,6,,,67,88
23520,note_on,,1,0,14,,,,,,,,,,,,,,,13,,,51,72
23520,note_on,,1,0,6,,,,,,,,,,,,,,,1,,,51,72
23520,note_on,,1,0,10,,,,,,,,,,,,,,,8,,,51,88
23520,note_on,,1,0,13,,,,,,,,,,,,,,,12,,,58,72
23520,note_on,,1,0,12,,,,,,,,,,,,,,,11,,,67,72
23549,note_on,,29,0,10,,,,,,,,,,,,,,,8,,,51,0
23549,note_on,,29,0,8,,,,,,,,,,,,,,,6,,,67,0
23549,note_on,,29,0,12,,,,,,,,,,,,,,,11,,,67,0
23550,note_on,,1,0,8,,,,,,,,,,,,,,,6,,,66,88
23550,note_on,,1,0,10,,,,,,,,,,,,,,,8,,,50,88
23550,note_on,,1,0,12,,,,,,,,,,,,,,,11,,,66,72
23579,note_on,,29,0,8,,,,,,,,,,,,,,,6,,,66,0
23579,note_on,,29,0,12,,,,,,,,,,,,,,,11,,,66,0
23579,note_on,,29,0,10,,,,,,,,,,,,,,,8,,,50,0
23580,note_on,,1,0,10,,,,,,,,,,,,,,,8,,,51,88
23580,note_on,,1,0,12,,,,,,,,,,,,,,,11,,,67,72
23580,note_on,,1,0,8,,,,,,,,,,,,,,,6,,,67,88
23609,note_on,,29,0,12,,,,,,,,,,,,,,,11,,,67,0
23609,note_on,,29,0,10,,,,,,,,,,,,,,,8,,,51,0
23609,note_on,,29,0,8,,,,,,,,,,,,,,,6,,,67,0
23610,note_on,,1,0,12,,,,,,,,,,,,,,,11,,,69,72
23610,note_on,,1,0,10,,,,,,,,,,,,,,,8,,,53,88
23610,note_on,,1,0,8,,,,,,,,,,,,,,,6,,,69,88
23639,note_on,,179,0,9,,,,,,,,,,,,,,,7,,,58,0
23639,note_on,,239,0,5,,,,,,,,,,,,,,,0,,,74,0
23639,note_on,,119,0,13,,,,,,,,,,,,,,,12,,,58,0
23639,note_on,,0,0,15,,,,,,,,,,,,,,,14,,,67,0
23639,note_on,,119,0,15,,,,,,,,,,,,,,,14,,,74,0
23639,note_on,,239,0,7,,,,,,,,,,,,,,,5,,,74,0
23639,note_on,,29,0,12,,,,,,,,,,,,,,,11,,,69,0
23639,note_on,,239,0,11,,,,,,,,,,,,,,,10,,,74,0
23639,note_on,,29,0,10,,,,,,,,,,,,,,,8,,,53,0
23639,note_on,,29,0,8,,,,,,,,,,,,,,,6,,,69,0
23640,note_on,,1,0,13,,,,,,,,,,,,,,,12,,,60,72
23640,note_on,,1,0,11,,,,,,,,,,,,,,,10,,,72,72
23640,note_on,,1,0,12,,,,,,,,,,,,,,,11,,,67,72
23640,note_on,,1,0,9,,,,,,,,,,,,,,,7,,,60,88
23640,note_on,,0,0,15,,,,,,,,,,,,,,,14,,,72,72
23640,note_on,,1,0,15,,,,,,,,,,,,,,,14,,,79,72
23640,note_on,,1,0,10,,,,,,,,,,,,,,,8,,,51,88
23640,note_on,,1,0,5,,,,,,,,,,,,,,,0,,,72,72
23640,note_on,,1,0,8,,,,,,,,,,,,,,,6,,,67,88
23640,note_on,,0,0,15,,,,,,,,,,,,,,,14,,,67,72
23640,note_on,,1,0,7,,,,,,,,,,,,,,,5,,,72,88
23669,note_on,,29,0,12,,,,,,,,,,,,,,,11,,,67,0
23669,note_on,,29,0,8,,,,,,,,,,,,,,,6,,,67,0
23670,note_on,,1,0,8,,,,,,,,,,,,,,,6,,,70,88
23670,note_on,,1,0,12,,,,,,,,,,,,,,,11,,,70,72
23699,note_on,,0,0,15,,,,,,,,,,,,,,,14,,,55,0
23699,note_on,,29,0,12,,,,,,,,,,,,,,,11,,,70,0
23699,note_on,,29,0,8,,,,,,,,,,,,,,,6,,,70,0
23699,note_on,,179,0,14,,,,,,,,,,,,,,,13,,,51,0
23699,note_on,,59,0,10,,,,,,,,,,,,,,,8,,,51,0
23699,note_on,,59,0,15,,,,,,,,,,,,,,,14,,,51,0
23699,note_on,,179,0,6,,,,,,,,,,,,,,,1,,,51,0
23700,note_on,,1,0,8,,,,,,,,,,,,,,,6,,,69,88
23700,note_on,,1,0,10,,,,,,,,,,,,,,,8,,,48,88
23700,note_on,,1,0,15,,,,,,,,,,,,,,,14,,,48,72
23700,note_on,,1,0,14,,,,,,,,,,,,,,,13,,,48,72
23700,note_on,,1,0,6,,,,,,,,,,,,,,,1,,,48,72
23700,note_on,,1,0,12,,,,,,,,,,,,,,,11,,,69,72
23700,note_on,,0,0,15,,,,,,,,,,,,,,,14,,,51,72
23729,note_on,,29,0,12,,,,,,,,,,,,,,,11,,,69,0
23729,note_on,,29,0,8,,,,,,,,,,,,,,,6,,,69,0
23730,note_on,,1,0,8,,,,,,,,,,,,,,,6,,,67,88
23730,note_on,,1,0,12,,,,,,,,,,,,,,,11,,,67,72
23759,note_on,,29,0,12,,,,,,,,,,,,,,,11,,,67,0
23759,note_on,,29,0,8,,,,,,,,,,,,,,,6,,,67,0
23759,note_on,,0,0,15,,,,,,,,,,,,,,,14,,,67,0
23759,note_on,,0,0,15,,,,,,,,,,,,,,,14,,,51,0
23759,note_on,,119,0,9,,,,,,,,,,,,,,,7,,,60,0
23759,note_on,,59,0,14,,,,,,,,,,,,,,,13,,,48,0
23759,note_on,,59,0,6,,,,,,,,,,,,,,,1,,,48,0
23759,note_on,,119,0,13,,,,,,,,,,,,,,,12,,,60,0
23759,note_on,,59,0,10,,,,,,,,,,,,,,,8,,,48,0
23759,note_on,,59,0,15,,,,,,,,,,,,,,,14,,,79,0
23759,note_on,,0,0,15,,,,,,,,,,,,,,,14,,,72,0
23759,note_on,,0,0,15,,,,,,,,,,,,,,,14,,,48,0
23760,note_on,,1,0,12,,,,,,,,,,,,,,,11,,,66,72
23760,note_on,,1,0,14,,,,,,,,,,,,,,,13,,,50,72
23760,note_on,,1,0,6,,,,,,,,,,,,,,,1,,,50,72
23760,note_on,,1,0,8,,,,,,,,,,,,,,,6,,,66,88
23760,note_on,,1,0,9,,,,,,,,,,,,,,,7,,,57,88
23760,note_on,,1,0,15,,,,,,,,,,,,,,,14,,,50,72
23760,note_on,,0,0,15,,,,,,,,,,,,,,,14,,,78,72
23760,note_on,,1,0,13,,,,,,,,,,,,,,,12,,,57,72
23760,note_on,,0,0,15,,,,,,,,,,,,,,,14,,,72,72
23760,note_on,,0,0,15,,,,,,,,,,,,,,,14,,,57,72
23760,note_on,,1,0,10,,,,,,,,,,,,,,,8,,,50,88
23789,note_on,,149,0,11,,,,,,,,,,,,,,,10,,,72,0
23790,note_on,,1,0,11,,,,,,,,,,,,,,,10,,,70,72
23819,note_on,,59,0,12,,,,,,,,,,,,,,,11,,,66,0
23819,note_on,,29,0,11,,,,,,,,,,,,,,,10,,,70,0
23819,note_on,,59,0,13,,,,,,,,,,,,,,,12,,,57,0
23819,note_on,,59,0,9,,,,,,,,,,,,,,,7,,,57,0
23820,note_on,,1,0,13,,,,,,,,,,,,,,,12,,,62,72
23820,note_on,,1,0,12,,,,,,,,,,,,,,,11,,,78,72
23820,note_on,,1,0,9,,,,,,,,,,,,,,,7,,,62,88
23820,note_on,,1,0,11,,,,,,,,,,,,,,,10,,,69,72
23849,note_on,,29,0,11,,,,,,,,,,,,,,,10,,,69,0
23850,note_on,,1,0,11,,,,,,,,,,,,,,,10,,,72,72
23879,note_on,,59,0,13,,,,,,,,,,,,,,,12,,,62,0
23879,note_on,,239,0,7,,,,,,,,,,,,,,,5,,,72,0
23879,note_on,,59,0,12,,,,,,,,,,,,,,,11,,,78,0
23879,note_on,,0,0,15,,,,,,,,,,,,,,,14,,,72,0
23879,note_on,,29,0,11,,,,,,,,,,,,,,,10,,,72,0
23879,note_on,,239,0,5,,,,,,,,,,,,,,,0,,,72,0
23879,note_on,,0,0,15,,,,,,,,,,,,,,,14,,,78,0
23879,note_on,,0,0,15,,,,,,,,,,,,,,,14,,,57,0
23879,note_on,,59,0,9,,,,,,,,,,,,,,,7,,,62,0
23879,note_on,,119,0,10,,,,,,,,,,,,,,,8,,,50,0
23879,note_on,,119,0,6,,,,,,,,,,,,,,,1,,,50,0
23879,note_on,,119,0,14,,,,,,,,,,,,,,,13,,,50,0
23879,note_on,,119,0,15,,,,,,,,,,,,,,,14,,,50,0
23879,note_on,,119,0,8,,,,,,,,,,,,,,,6,,,66,0
23880,note_on,,1,0,10,,,,,,,,,,,,,,,8,,,55,88
23880,note_on,,0,0,15,,,,,,,,,,,,,,,14,,,55,72
23880,note_on,,1,0,14,,,,,,,,,,,,,,,13,,,43,72
23880,note_on,,0,0,15,,,,,,,,,,,,,,,14,,,70,72
23880,note_on,,1,0,5,,,,,,,,,,,,,,,0,,,70,72
23880,note_on,,0,0,15,,,,,,,,,,,,,,,14,,,79,72
23880,note_on,,0,0,15,,,,,,,,,,,,,,,14,,,43,72
23880,note_on,,1,0,6,,,,,,,,,,,,,,,1,,,43,72
23880,note_on,,1,0,13,,,,,,,,,,,,,,,12,,,62,72
23880,note_on,,1,0,15,,,,,,,,,,,,,,,14,,,74,72
23880,note_on,,1,0,12,,,,,,,,,,,,,,,11,,,79,72
23880,note_on,,1,0,11,,,,,,,,,,,,,,,10,,,70,72
23880,note_on,,1,0,9,,,,,,,,,,,,,,,7,,,62,88
23880,note_on,,1,0,8,,,,,,,,,,,,,,,6,,,67,88
23880,note_on,,1,0,7,,,,,,,,,,,,,,,5,,,70,88
23909,note_on,,29,0,11,,,,,,,,,,,,,,,10,,,70,0
23910,note_on,,1,0,11,,,,,,,,,,,,,,,10,,,69,72
23939,note_on,,29,0,11,,,,,,,,,,,,,,,10,,,69,0
23939,note_on,,59,0,12,,,,,,,,,,,,,,,11,,,79,0
23940,note_on,,1,0,11,,,,,,,,,,,,,,,10,,,67,72
23940,note_on,,1,0,12,,,,,,,,,,,,,,,11,,,70,72
23969,note_on,,29,0,11,,,,,,,,,,,,,,,10,,,67,0
23970,note_on,,1,0,11,,,,,,,,,,,,,,,10,,,79,72
23999,note_on,,119,0,15,,,,,,,,,,,,,,,14,,,74,0
23999,note_on,,0,0,15,,,,,,,,,,,,,,,14,,,43,0
23999,note_on,,0,0,15,,,,,,,,,,,,,,,14,,,79,0
23999,note_on,,0,0,15,,,,,,,,,,,,,,,14,,,70,0
23999,note_on,,0,0,15,,,,,,,,,,,,,,,14,,,55,0
23999,note_on,,119,0,10,,,,,,,,,,,,,,,8,,,55,0
23999,note_on,,119,0,14,,,,,,,,,,,,,,,13,,,43,0
23999,note_on,,119,0,8,,,,,,,,,,,,,,,6,,,67,0
23999,note_on,,119,0,5,,,,,,,,,,,,,,,0,,,70,0
23999,note_on,,119,0,6,,,,,,,,,,,,,,,1,,,43,0
23999,note_on,,59,0,12,,,,,,,,,,,,,,,11,,,70,0
23999,note_on,,29,0,11,,,,,,,,,,,,,,,10,,,79,0
23999,note_on,,119,0,9,,,,,,,,,,,,,,,7,,,62,0
23999,note_on,,119,0,7,,,,,,,,,,,,,,,5,,,70,0
23999,note_on,,119,0,13,,,,,,,,,,,,,,,12,,,62,0
24000,note_on,,0,0,15,,,,,,,,,,,,,,,14,,,74,72
24000,note_on,,0,0,15,,,,,,,,,,,,,,,14,,,69,72
24000,note_on,,0,0,15,,,,,,,,,,,,,,,14,,,66,72
24000,note_on,,0,0,15,,,,,,,,,,,,,,,14,,,57,72
24000,note_on,,1,0,15,,,,,,,,,,,,,,,14,,,50,72
24000,note_on,,1,0,12,,,,,,,,,,,,,,,11,,,69,72
24000,note_on,,1,0,8,,,,,,,,,,,,,,,6,,,66,88
24000,note_on,,1,0,6,,,,,,,,,,,,,,,1,,,50,72
24000,note_on,,1,0,10,,,,,,,,,,,,,,,8,,,50,88
24000,note_on,,1,0,5,,,,,,,,,,,,,,,0,,,69,72
24000,note_on,,1,0,9,,,,,,,,,,,,,,,7,,,62,88
24000,note_on,,1,0,14,,,,,,,,,,,,,,,13,,,50,72
24000,note_on,,1,0,13,,,,,,,,,,,,,,,12,,,62,72
24000,note_on,,1,0,11,,,,,,,,,,,,,,,10,,,78,72
24000,note_on,,1,0,7,,,,,,,,,,,,,,,5,,,69,88
24029,note_on,,29,0,12,,,,,,,,,,,,,,,11,,,69,0
24029,note_on,,29,0,11,,,,,,,,,,,,,,,10,,,78,0
24030,note_on,,1,0,12,,,,,,,,,,,,,,,11,,,70,72
24030,note_on,,1,0,11,,,,,,,,,,,,,,,10,,,79,72
24059,note_on,,29,0,11,,,,,,,,,,,,,,,10,,,79,0
24059,note_on,,29,0,12,,,,,,,,,,,,,,,11,,,70,0
24060,note_on,,1,0,12,,,,,,,,,,,,,,,11,,,67,72
24060,note_on,,1,0,11,,,,,,,,,,,,,,,10,,,76,72
24089,note_on,,29,0,12,,,,,,,,,,,,,,,11,,,67,0
24089,note_on,,29,0,11,,,,,,,,,,,,,,,10,,,76,0
24090,note_on,,1,0,12,,,,,,,,,,,,,,,11,,,69,72
24090,note_on,,1,0,11,,,,,,,,,,,,,,,10,,,78,72
24119,note_on,,0,0,15,,,,,,,,,,,,,,,14,,,57,0
24119,note_on,,29,0,12,,,,,,,,,,,,,,,11,,,69,0
24119,note_on,,0,0,15,,,,,,,,,,,,,,,14,,,66,0
24119,note_on,,0,0,15,,,,,,,,,,,,,,,14,,,69,0
24119,note_on,,119,0,8,,,,,,,,,,,,,,,6,,,66,0
24119,note_on,,119,0,6,,,,,,,,,,,,,,,1,,,50,0
24119,note_on,,0,0,15,,,,,,,,,,,,,,,14,,,74,0
24119,note_on,,119,0,10,,,,,,,,,,,,,,,8,,,50,0
24119,note_on,,119,0,5,,,,,,,,,,,,,,,0,,,69,0
24119,note_on,,29,0,11,,,,,,,,,,,,,,,10,,,78,0
24119,note_on,,119,0,14,,,,,,,,,,,,,,,13,,,50,0
24119,note_on,,119,0,13,,,,,,,,,,,,,,,12,,,62,0
24119,note_on,,119,0,7,,,,,,,,,,,,,,,5,,,69,0
24119,note_on,,119,0,9,,,,,,,,,,,,,,,7,,,62,0
24119,note_on,,119,0,15,,,,,,,,,,,,,,,14,,,50,0
24120,note_on,,0,0,15,,,,,,,,,,,,,,,14,,,70,72
24120,note_on,,0,0,15,,,,,,,,,,,,,,,14,,,55,72
24120,note_on,,1,0,8,,,,,,,,,,,,,,,6,,,67,88
24120,note_on,,1,0,6,,,,,,,,,,,,,,,1,,,43,72
24120,note_on,,1,0,7,,,,,,,,,,,,,,,5,,,70,88
24120,note_on,,1,0,11,,,,,,,,,,,,,,,10,,,79,72
24120,note_on,,1,0,5,,,,,,,,,,,,,,,0,,,70,72
24120,note_on,,0,0,15,,,,,,,,,,,,,,,14,,,74,72
24120,note_on,,0,0,15,,,,,,,,,,,,,,,14,,,62,72
24120,note_on,,1,0,10,,,,,,,,,,,,,,,8,,,43,88
24120,note_on,,1,0,15,,,,,,,,,,,,,,,14,,,43,72
24120,note_on,,1,0,14,,,,,,,,,,,,,,,13,,,43,72
24120,note_on,,1,0,13,,,,,,,,,,,,,,,12,,,62,72
24120,note_on,,1,0,9,,,,,,,,,,,,,,,7,,,62,88
24120,note_on,,1,0,12,,,,,,,,,,,,,,,11,,,70,72
24149,note_on,,29,0,12,,,,,,,,,,,,,,,11,,,70,0
24149,note_on,,29,0,11,,,,,,,,,,,,,,,10,,,79,0
24150,note_on,,1,0,12,,,,,,,,,,,,,,,11,,,72,72
24150,note_on,,1,0,11,,,,,,,,,,,,,,,10,,,81,72
24179,note_on,,29,0,12,,,,,,,,,,,,,,,11,,,72,0
24179,note_on,,29,0,11,,,,,,,,,,,,,,,10,,,81,0
24180,note_on,,1,0,12,,,,,,,,,,,,,,,11,,,69,72
24180,note_on,,1,0,11,,,,,,,,,,,,,,,10,,,78,72
24209,note_on,,29,0,12,,,,,,,,,,,,,,,11,,,69,0
24209,note_on,,29,0,11,,,,,,,,,,,,,,,10,,,78,0
24210,note_on,,1,0,12,,,,,,,,,,,,,,,11,,,67,72
24210,note_on,,1,0,11,,,,,,,,,,,,,,,10,,,79,72
24239,note_on,,119,0,9,,,,,,,,,,,,,,,7,,,62,0
24239,note_on,,119,0,14,,,,,,,,,,,,,,,13,,,43,0
24239,note_on,,119,0,5,,,,,,,,,,,,,,,0,,,70,0
24239,note_on,,119,0,13,,,,,,,,,,,,,,,12,,,62,0
24239,note_on,,119,0,15,,,,,,,,,,,,,,,14,,,43,0
24239,note_on,,119,0,7,,,,,,,,,,,,,,,5,,,70,0
24239,note_on,,0,0,15,,,,,,,,,,,,,,,14,,,74,0
24239,note_on,,0,0,15,,,,,,,,,,,,,,,14,,,70,0
24239,note_on,,29,0,12,,,,,,,,,,,,,,,11,,,67,0
24239,note_on,,119,0,6,,,,,,,,,,,,,,,1,,,43,0
24239,note_on,,0,0,15,,,,,,,,,,,,,,,14,,,62,0
24239,note_on,,0,0,15,,,,,,,,,,,,,,,14,,,55,0
24239,note_on,,119,0,10,,,,,,,,,,,,,,,8,,,43,0
24239,note_on,,119,0,8,,,,,,,,,,,,,,,6,,,67,0
24239,note_on,,29,0,11,,,,,,,,,,,,,,,10,,,79,0
24240,note_on,,1,0,7,,,,,,,,,,,,,,,5,,,69,88
24240,note_on,,0,0,15,,,,,,,,,,,,,,,14,,,69,72
24240,note_on,,1,0,15,,,,,,,,,,,,,,,14,,,50,72
24240,note_on,,0,0,15,,,,,,,,,,,,,,,14,,,65,72
24240,note_on,,0,0,15,,,,,,,,,,,,,,,14,,,62,72
24240,note_on,,0,0,15,,,,,,,,,,,,,,,14,,,57,72
24240,note_on,,1,0,5,,,,,,,,,,,,,,,0,,,69,72
24240,note_on,,1,0,9,,,,,,,,,,,,,,,7,,,62,88
24240,note_on,,1,0,8,,,,,,,,,,,,,,,6,,,66,88
24240,note_on,,1,0,14,,,,,,,,,,,,,,,13,,,50,72
24240,note_on,,1,0,11,,,,,,,,,,,,,,,10,,,81,72
24240,note_on,,1,0,6,,,,,,,,,,,,,,,1,,,50,72
24240,note_on,,1,0,13,,,,,,,,,,,,,,,12,,,62,72
24240,note_on,,1,0,10,,,,,,,,,,,,,,,8,,,50,88
24240,note_on,,1,0,12,,,,,,,,,,,,,,,11,,,66,72
24299,note_on,,59,0,15,,,,,,,,,,,,,,,14,,,50,0
24299,note_on,,59,0,14,,,,,,,,,,,,,,,13,,,50,0
24299,note_on,,0,0,15,,,,,,,,,,,,,,,14,,,65,0
24299,note_on,,0,0,15,,,,,,,,,,,,,,,14,,,62,0
24299,note_on,,0,0,15,,,,,,,,,,,,,,,14,,,69,0
24299,note_on,,0,0,15,,,,,,,,,,,,,,,14,,,57,0
24299,note_on,,59,0,6,,,,,,,,,,,,,,,1,,,50,0
24299,note_on,,59,0,11,,,,,,,,,,,,,,,10,,,81,0
24299,note_on,,59,0,12,,,,,,,,,,,,,,,11,,,66,0
24300,note_on,,0,0,15,,,,,,,,,,,,,,,14,,,74,72
24300,note_on,,0,0,15,,,,,,,,,,,,,,,14,,,69,72
24300,note_on,,1,0,15,,,,,,,,,,,,,,,14,,,48,72
24300,note_on,,0,0,15,,,,,,,,,,,,,,,14,,,54,72
24300,note_on,,1,0,14,,,,,,,,,,,,,,,13,,,48,72
24300,note_on,,1,0,12,,,,,,,,,,,,,,,11,,,74,72
24300,note_on,,1,0,6,,,,,,,,,,,,,,,1,,,48,72
24300,note_on,,1,0,11,,,,,,,,,,,,,,,10,,,78,72
24359,note_on,,119,0,7,,,,,,,,,,,,,,,5,,,69,0
24359,note_on,,59,0,14,,,,,,,,,,,,,,,13,,,48,0
24359,note_on,,119,0,13,,,,,,,,,,,,,,,12,,,62,0
24359,note_on,,59,0,12,,,,,,,,,,,,,,,11,,,74,0
24359,note_on,,59,0,6,,,,,,,,,,,,,,,1,,,48,0
24359,note_on,,119,0,10,,,,,,,,,,,,,,,8,,,50,0
24359,note_on,,59,0,11,,,,,,,,,,,,,,,10,,,78,0
24359,note_on,,119,0,8,,,,,,,,,,,,,,,6,,,66,0
24359,note_on,,119,0,9,,,,,,,,,,,,,,,7,,,62,0
24359,note_on,,119,0,5,,,,,,,,,,,,,,,0,,,69,0
24359,note_on,,0,0,15,,,,,,,,,,,,,,,14,,,74,0
24359,note_on,,0,0,15,,,,,,,,,,,,,,,14,,,69,0
24359,note_on,,59,0,15,,,,,,,,,,,,,,,14,,,48,0
24359,note_on,,0,0,15,,,,,,,,,,,,,,,14,,,54,0
24360,note_on,,0,0,15,,,,,,,,,,,,,,,14,,,70,72
24360,note_on,,1,0,9,,,,,,,,,,,,,,,7,,,62,88
24360,note_on,,1,0,14,,,,,,,,,,,,,,,13,,,46,72
24360,note_on,,1,0,13,,,,,,,,,,,,,,,12,,,62,72
24360,note_on,,1,0,12,,,,,,,,,,,,,,,11,,,76,72
24360,note_on,,1,0,5,,,,,,,,,,,,,,,0,,,69,72
24360,note_on,,1,0,6,,,,,,,,,,,,,,,1,,,46,72
24360,note_on,,0,0,15,,,,,,,,,,,,,,,14,,,76,72
24360,note_on,,1,0,10,,,,,,,,,,,,,,,8,,,50,88
24360,note_on,,1,0,15,,,,,,,,,,,,,,,14,,,46,72
24360,note_on,,1,0,7,,,,,,,,,,,,,,,5,,,69,88
24360,note_on,,0,0,15,,,,,,,,,,,,,,,14,,,55,72
24360,note_on,,1,0,8,,,,,,,,,,,,,,,6,,,66,88
24360,note_on,,0,0,15,,,,,,,,,,,,,,,14,,,67,72
24360,note_on,,1,0,11,,,,,,,,,,,,,,,10,,,79,72
24419,note_on,,0,0,15,,,,,,,,,,,,,,,14,,,70,0
24419,note_on,,0,0,15,,,,,,,,,,,,,,,14,,,76,0
24419,note_on,,59,0,6,,,,,,,,,,,,,,,1,,,46,0
24419,note_on,,59,0,11,,,,,,,,,,,,,,,10,,,79,0
24419,note_on,,0,0,15,,,,,,,,,,,,,,,14,,,55,0
24419,note_on,,59,0,15,,,,,,,,,,,,,,,14,,,46,0
24419,note_on,,0,0,15,,,,,,,,,,,,,,,14,,,67,0
24419,note_on,,59,0,14,,,,,,,,,,,,,,,13,,,46,0
24419,note_on,,59,0,12,,,,,,,,,,,,,,,11,,,76,0
24420,note_on,,1,0,6,,,,,,,,,,,,,,,1,,,45,72
24420,note_on,,0,0,15,,,,,,,,,,,,,,,14,,,78,72
24420,note_on,,0,0,15,,,,,,,,,,,,,,,14,,,74,72
24420,note_on,,1,0,11,,,,,,,,,,,,,,,10,,,81,72
24420,note_on,,1,0,15,,,,,,,,,,,,,,,14,,,45,72
24420,note_on,,0,0,15,,,,,,,,,,,,,,,14,,,72,72
24420,note_on,,1,0,12,,,,,,,,,,,,,,,11,,,78,72
24420,note_on,,0,0,15,,,,,,,,,,,,,,,14,,,57,72
24420,note_on,,1,0,14,,,,,,,,,,,,,,,13,,,45,72
24479,note_on,,59,0,12,,,,,,,,,,,,,,,11,,,78,0
24479,note_on,,119,0,8,,,,,,,,,,,,,,,6,,,66,0
24479,note_on,,119,0,7,,,,,,,,,,,,,,,5,,,69,0
24479,note_on,,119,0,9,,,,,,,,,,,,,,,7,,,62,0
24479,note_on,,119,0,13,,,,,,,,,,,,,,,12,,,62,0
24479,note_on,,119,0,5,,,,,,,,,,,,,,,0,,,69,0
24479,note_on,,0,0,15,,,,,,,,,,,,,,,14,,,74,0
24479,note_on,,59,0,11,,,,,,,,,,,,,,,10,,,81,0
24479,note_on,,119,0,10,,,,,,,,,,,,,,,8,,,50,0
24479,note_on,,59,0,6,,,,,,,,,,,,,,,1,,,45,0
24479,note_on,,59,0,15,,,,,,,,,,,,,,,14,,,45,0
24479,note_on,,59,0,14,,,,,,,,,,,,,,,13,,,45,0
24479,note_on,,0,0,15,,,,,,,,,,,,,,,14,,,78,0
24479,note_on,,0,0,15,,,,,,,,,,,,,,,14,,,57,0
24479,note_on,,0,0,15,,,,,,,,,,,,,,,14,,,72,0
24480,note_on,,0,0,15,,,,,,,,,,,,,,,14,,,70,72
24480,note_on,,1,0,14,,,,,,,,,,,,,,,13,,,43,72
24480,note_on,,0,0,15,,,,,,,,,,,,,,,14,,,74,72
24480,note_on,,1,0,12,,,,,,,,,,,,,,,11,,,79,72
24480,note_on,,0,0,15,,,,,,,,,,,,,,,14,,,50,72
24480,note_on,,0,0,15,,,,,,,,,,,,,,,14,,,79,72
24480,note_on,,1,0,11,,,,,,,,,,,,,,,10,,,82,72
24480,note_on,,1,0,15,,,,,,,,,,,,,,,14,,,43,72
24480,note_on,,1,0,6,,,,,,,,,,,,,,,1,,,43,72
24509,note_on,,29,0,11,,,,,,,,,,,,,,,10,,,82,0
24509,note_on,,29,0,12,,,,,,,,,,,,,,,11,,,79,0
24510,note_on,,1,0,11,,,,,,,,,,,,,,,10,,,81,72
24510,note_on,,1,0,12,,,,,,,,,,,,,,,11,,,78,72
24539,note_on,,29,0,11,,,,,,,,,,,,,,,10,,,81,0
24539,note_on,,59,0,6,,,,,,,,,,,,,,,1,,,43,0
24539,note_on,,29,0,12,,,,,,,,,,,,,,,11,,,78,0
24539,note_on,,59,0,15,,,,,,,,,,,,,,,14,,,43,0
24539,note_on,,0,0,15,,,,,,,,,,,,,,,14,,,50,0
24539,note_on,,59,0,14,,,,,,,,,,,,,,,13,,,43,0
24540,note_on,,61,0,9,,,,,,,,,,,,,,,7,,,62,88
24540,note_on,,61,0,5,,,,,,,,,,,,,,,0,,,79,72
24540,note_on,,61,0,8,,,,,,,,,,,,,,,6,,,70,88
24540,note_on,,1,0,15,,,,,,,,,,,,,,,14,,,55,72
24540,note_on,,1,0,11,,,,,,,,,,,,,,,10,,,82,72
24540,note_on,,1,0,6,,,,,,,,,,,,,,,1,,,55,72
24540,note_on,,1,0,12,,,,,,,,,,,,,,,11,,,79,72
24540,note_on,,61,0,13,,,,,,,,,,,,,,,12,,,62,72
24540,note_on,,61,0,7,,,,,,,,,,,,,,,5,,,79,88
24540,note_on,,0,0,15,,,,,,,,,,,,,,,14,,,58,72
24540,note_on,,1,0,14,,,,,,,,,,,,,,,13,,,55,72
24540,note_on,,61,0,10,,,,,,,,,,,,,,,8,,,55,88
24569,note_on,,29,0,11,,,,,,,,,,,,,,,10,,,82,0
24569,note_on,,29,0,12,,,,,,,,,,,,,,,11,,,79,0
24570,note_on,,1,0,12,,,,,,,,,,,,,,,11,,,81,72
24570,note_on,,1,0,11,,,,,,,,,,,,,,,10,,,84,72
24599,note_on,,29,0,12,,,,,,,,,,,,,,,11,,,81,0
24599,note_on,,29,0,11,,,,,,,,,,,,,,,10,,,84,0
24599,note_on,,59,0,9,,,,,,,,,,,,,,,7,,,62,0
24599,note_on,,59,0,13,,,,,,,,,,,,,,,12,,,62,0
24599,note_on,,59,0,8,,,,,,,,,,,,,,,6,,,70,0
24599,note_on,,59,0,10,,,,,,,,,,,,,,,8,,,55,0
24599,note_on,,59,0,14,,,,,,,,,,,,,,,13,,,55,0
24599,note_on,,59,0,5,,,,,,,,,,,,,,,0,,,79,0
24599,note_on,,59,0,6,,,,,,,,,,,,,,,1,,,55,0
24599,note_on,,59,0,15,,,,,,,,,,,,,,,14,,,79,0
24599,note_on,,0,0,15,,,,,,,,,,,,,,,14,,,74,0
24599,note_on,,0,0,15,,,,,,,,,,,,,,,14,,,70,0
24599,note_on,,0,0,15,,,,,,,,,,,,,,,14,,,55,0
24599,note_on,,0,0,15,,,,,,,,,,,,,,,14,,,58,0
24599,note_on,,59,0,7,,,,,,,,,,,,,,,5,,,79,0
24600,note_on,,1,0,14,,,,,,,,,,,,,,,13,,,57,72
24600,note_on,,1,0,6,,,,,,,,,,,,,,,1,,,57,72
24600,note_on,,0,0,15,,,,,,,,,,,,,,,14,,,70,72
24600,note_on,,1,0,9,,,,,,,,,,,,,,,7,,,62,88
24600,note_on,,1,0,7,,,,,,,,,,,,,,,5,,,79,88
24600,note_on,,1,0,8,,,,,,,,,,,,,,,6,,,70,88
24600,note_on,,1,0,11,,,,,,,,,,,,,,,10,,,82,72
24600,note_on,,0,0,15,,,,,,,,,,,,,,,14,,,79,72
24600,note_on,,0,0,15,,,,,,,,,,,,,,,14,,,74,72
24600,note_on,,1,0,12,,,,,,,,,,,,,,,11,,,79,72
24600,note_on,,1,0,13,,,,,,,,,,,,,,,12,,,62,72
24600,note_on,,0,0,15,,,,,,,,,,,,,,,14,,,60,72
24600,note_on,,1,0,10,,,,,,,,,,,,,,,8,,,57,88
24600,note_on,,1,0,15,,,,,,,,,,,,,,,14,,,57,72
24600,note_on,,1,0,5,,,,,,,,,,,,,,,0,,,79,72
24629,note_on,,29,0,12,,,,,,,,,,,,,,,11,,,79,0
24629,note_on,,29,0,11,,,,,,,,,,,,,,,10,,,82,0
24630,note_on,,1,0,12,,,,,,,,,,,,,,,11,,,81,72
24630,note_on,,1,0,11,,,,,,,,,,,,,,,10,,,84,72
24659,note_on,,59,0,9,,,,,,,,,,,,,,,7,,,62,0
24659,note_on,,59,0,10,,,,,,,,,,,,,,,8,,,57,0
24659,note_on,,0,0,15,,,,,,,,,,,,,,,14,,,74,0
24659,note_on,,59,0,15,,,,,,,,,,,,,,,14,,,57,0
24659,note_on,,29,0,11,,,,,,,,,,,,,,,10,,,84,0
24659,note_on,,0,0,15,,,,,,,,,,,,,,,14,,,79,0
24659,note_on,,0,0,15,,,,,,,,,,,,,,,14,,,60,0
24659,note_on,,0,0,15,,,,,,,,,,,,,,,14,,,70,0
24659,note_on,,59,0,14,,,,,,,,,,,,,,,13,,,57,0
24659,note_on,,59,0,7,,,,,,,,,,,,,,,5,,,79,0
24659,note_on,,59,0,8,,,,,,,,,,,,,,,6,,,70,0
24659,note_on,,59,0,13,,,,,,,,,,,,,,,12,,,62,0
24659,note_on,,29,0,12,,,,,,,,,,,,,,,11,,,81,0
24659,note_on,,59,0,5,,,,,,,,,,,,,,,0,,,79,0
24659,note_on,,59,0,6,,,,,,,,,,,,,,,1,,,57,0
24660,note_on,,1,0,13,,,,,,,,,,,,,,,12,,,62,72
24660,note_on,,1,0,12,,,,,,,,,,,,,,,11,,,79,72
24660,note_on,,1,0,11,,,,,,,,,,,,,,,10,,,82,72
24660,note_on,,1,0,5,,,,,,,,,,,,,,,0,,,77,72
24660,note_on,,1,0,8,,,,,,,,,,,,,,,6,,,69,88
24660,note_on,,0,0,15,,,,,,,,,,,,,,,14,,,77,72
24660,note_on,,1,0,9,,,,,,,,,,,,,,,7,,,62,88
24660,note_on,,1,0,14,,,,,,,,,,,,,,,13,,,58,72
24660,note_on,,1,0,10,,,,,,,,,,,,,,,8,,,58,88
24660,note_on,,0,0,15,,,,,,,,,,,,,,,14,,,62,72
24660,note_on,,1,0,6,,,,,,,,,,,,,,,1,,,58,72
24660,note_on,,0,0,15,,,,,,,,,,,,,,,14,,,69,72
24660,note_on,,1,0,7,,,,,,,,,,,,,,,5,,,77,88
24660,note_on,,0,0,15,,,,,,,,,,,,,,,14,,,74,72
24660,note_on,,1,0,15,,,,,,,,,,,,,,,14,,,58,72
24689,note_on,,29,0,11,,,,,,,,,,,,,,,10,,,82,0
24689,note_on,,29,0,12,,,,,,,,,,,,,,,11,,,79,0
24690,note_on,,1,0,12,,,,,,,,,,,,,,,11,,,77,72
24690,note_on,,1,0,11,,,,,,,,,,,,,,,10,,,81,72
24719,note_on,,59,0,10,,,,,,,,,,,,,,,8,,,58,0
24719,note_on,,59,0,5,,,,,,,,,,,,,,,0,,,77,0
24719,note_on,,0,0,15,,,,,,,,,,,,,,,14,,,74,0
24719,note_on,,59,0,9,,,,,,,,,,,,,,,7,,,62,0
24719,note_on,,29,0,12,,,,,,,,,,,,,,,11,,,77,0
24719,note_on,,59,0,15,,,,,,,,,,,,,,,14,,,58,0
24719,note_on,,59,0,13,,,,,,,,,,,,,,,12,,,62,0
24719,note_on,,0,0,15,,,,,,,,,,,,,,,14,,,62,0
24719,note_on,,0,0,15,,,,,,,,,,,,,,,14,,,69,0
24719,note_on,,59,0,7,,,,,,,,,,,,,,,5,,,77,0
24719,note_on,,29,0,11,,,,,,,,,,,,,,,10,,,81,0
24719,note_on,,59,0,6,,,,,,,,,,,,,,,1,,,58,0
24719,note_on,,0,0,15,,,,,,,,,,,,,,,14,,,77,0
24719,note_on,,59,0,14,,,,,,,,,,,,,,,13,,,58,0
24719,note_on,,59,0,8,,,,,,,,,,,,,,,6,,,69,0
24720,note_on,,0,0,15,,,,,,,,,,,,,,,14,,,76,72
24720,note_on,,1,0,8,,,,,,,,,,,,,,,6,,,67,88
24720,note_on,,1,0,15,,,,,,,,,,,,,,,14,,,60,72
24720,note_on,,1,0,7,,,,,,,,,,,,,,,5,,,76,88
24720,note_on,,1,0,6,,,,,,,,,,,,,,,1,,,60,72
24720,note_on,,1,0,14,,,,,,,,,,,,,,,13,,,60,72
24720,note_on,,1,0,12,,,,,,,,,,,,,,,11,,,76,72
24720,note_on,,1,0,10,,,,,,,,,,,,,,,8,,,60,88
24720,note_on,,1,0,9,,,,,,,,,,,,,,,7,,,64,88
24720,note_on,,0,0,15,,,,,,,,,,,,,,,14,,,72,72
24720,note_on,,1,0,13,,,,,,,,,,,,,,,12,,,64,72
24720,note_on,,1,0,5,,,,,,,,,,,,,,,0,,,76,72
24720,note_on,,1,0,11,,,,,,,,,,,,,,,10,,,79,72
24720,note_on,,0,0,15,,,,,,,,,,,,,,,14,,,64,72
24720,note_on,,0,0,15,,,,,,,,,,,,,,,14,,,67,72
24749,note_on,,29,0,11,,,,,,,,,,,,,,,10,,,79,0
24749,note_on,,29,0,12,,,,,,,,,,,,,,,11,,,76,0
24750,note_on,,1,0,11,,,,,,,,,,,,,,,10,,,78,72
24750,note_on,,1,0,12,,,,,,,,,,,,,,,11,,,74,72
24779,note_on,,29,0,11,,,,,,,,,,,,,,,10,,,78,0
24779,note_on,,29,0,12,,,,,,,,,,,,,,,11,,,74,0
24780,note_on,,1,0,12,,,,,,,,,,,,,,,11,,,76,72
24780,note_on,,1,0,11,,,,,,,,,,,,,,,10,,,79,72
24809,note_on,,29,0,12,,,,,,,,,,,,,,,11,,,76,0
24809,note_on,,29,0,11,,,,,,,,,,,,,,,10,,,79,0
24810,note_on,,1,0,11,,,,,,,,,,,,,,,10,,,81,72
24810,note_on,,1,0,12,,,,,,,,,,,,,,,11,,,77,72
24839,note_on,,29,0,12,,,,,,,,,,,,,,,11,,,77,0
24839,note_on,,29,0,11,,,,,,,,,,,,,,,10,,,81,0
24840,note_on,,1,0,11,,,,,,,,,,,,,,,10,,,79,72
24840,note_on,,1,0,12,,,,,,,,,,,,,,,11,,,76,72
24869,note_on,,29,0,11,,,,,,,,,,,,,,,10,,,79,0
24869,note_on,,29,0,12,,,,,,,,,,,,,,,11,,,76,0
24870,note_on,,1,0,11,,,,,,,,,,,,,,,10,,,79,72
24870,note_on,,1,0,12,,,,,,,,,,,,,,,11,,,76,72
24899,note_on,,0,0,15,,,,,,,,,,,,,,,14,,,64,0
24899,note_on,,179,0,9,,,,,,,,,,,,,,,7,,,64,0
24899,note_on,,179,0,14,,,,,,,,,,,,,,,13,,,60,0
24899,note_on,,179,0,5,,,,,,,,,,,,,,,0,,,76,0
24899,note_on,,179,0,13,,,,,,,,,,,,,,,12,,,64,0
24899,note_on,,29,0,11,,,,,,,,,,,,,,,10,,,79,0
24899,note_on,,0,0,15,,,,,,,,,,,,,,,14,,,67,0
24899,note_on,,0,0,15,,,,,,,,,,,,,,,14,,,72,0
24899,note_on,,179,0,10,,,,,,,,,,,,,,,8,,,60,0
24899,note_on,,179,0,15,,,,,,,,,,,,,,,14,,,60,0
24899,note_on,,29,0,12,,,,,,,,,,,,,,,11,,,76,0
24899,note_on,,179,0,8,,,,,,,,,,,,,,,6,,,67,0
24899,note_on,,179,0,6,,,,,,,,,,,,,,,1,,,60,0
24899,note_on,,0,0,15,,,,,,,,,,,,,,,14,,,76,0
24899,note_on,,179,0,7,,,,,,,,,,,,,,,5,,,76,0
24900,note_on,,1,0,10,,,,,,,,,,,,,,,8,,,58,88
24900,note_on,,1,0,8,,,,,,,,,,,,,,,6,,,70,88
24900,note_on,,0,0,15,,,,,,,,,,,,,,,14,,,64,72
24900,note_on,,0,0,15,,,,,,,,,,,,,,,14,,,62,72
24900,note_on,,1,0,5,,,,,,,,,,,,,,,0,,,79,72
24900,note_on,,1,0,7,,,,,,,,,,,,,,,5,,,79,88
24900,note_on,,1,0,6,,,,,,,,,,,,,,,1,,,58,72
24900,note_on,,1,0,12,,,,,,,,,,,,,,,11,,,77,72
24900,note_on,,1,0,13,,,,,,,,,,,,,,,12,,,64,72
24900,note_on,,0,0,15,,,,,,,,,,,,,,,14,,,67,72
24900,note_on,,1,0,14,,,,,,,,,,,,,,,13,,,58,72
24900,note_on,,1,0,9,,,,,,,,,,,,,,,7,,,62,88
24900,note_on,,1,0,11,,,,,,,,,,,,,,,10,,,81,72
24900,note_on,,1,0,15,,,,,,,,,,,,,,,14,,,58,72
24929,note_on,,29,0,11,,,,,,,,,,,,,,,10,,,81,0
24929,note_on,,29,0,12,,,,,,,,,,,,,,,11,,,77,0
24930,note_on,,1,0,12,,,,,,,,,,,,,,,11,,,79,72
24930,note_on,,1,0,11,,,,,,,,,,,,,,,10,,,82,72
24959,note_on,,59,0,7,,,,,,,,,,,,,,,5,,,79,0
24959,note_on,,59,0,13,,,,,,,,,,,,,,,12,,,64,0
24959,note_on,,59,0,6,,,,,,,,,,,,,,,1,,,58,0
24959,note_on,,59,0,15,,,,,,,,,,,,,,,14,,,58,0
24959,note_on,,0,0,15,,,,,,,,,,,,,,,14,,,67,0
24959,note_on,,0,0,15,,,,,,,,,,,,,,,14,,,64,0
24959,note_on,,29,0,12,,,,,,,,,,,,,,,11,,,79,0
24959,note_on,,59,0,5,,,,,,,,,,,,,,,0,,,79,0
24959,note_on,,59,0,14,,,,,,,,,,,,,,,13,,,58,0
24959,note_on,,59,0,9,,,,,,,,,,,,,,,7,,,62,0
24959,note_on,,59,0,10,,,,,,,,,,,,,,,8,,,58,0
24959,note_on,,0,0,15,,,,,,,,,,,,,,,14,,,62,0
24959,note_on,,59,0,8,,,,,,,,,,,,,,,6,,,70,0
24959,note_on,,29,0,11,,,,,,,,,,,,,,,10,,,82,0
24960,note_on,,0,0,15,,,,,,,,,,,,,,,14,,,69,72
24960,note_on,,1,0,14,,,,,,,,,,,,,,,13,,,57,72
24960,note_on,,1,0,12,,,,,,,,,,,,,,,11,,,81,72
24960,note_on,,0,0,15,,,,,,,,,,,,,,,14,,,64,72
24960,note_on,,1,0,10,,,,,,,,,,,,,,,8,,,57,88
24960,note_on,,0,0,15,,,,,,,,,,,,,,,14,,,60,72
24960,note_on,,1,0,15,,,,,,,,,,,,,,,14,,,57,72
24960,note_on,,1,0,13,,,,,,,,,,,,,,,12,,,64,72
24960,note_on,,1,0,6,,,,,,,,,,,,,,,1,,,57,72
24960,note_on,,1,0,7,,,,,,,,,,,,,,,5,,,81,88
24960,note_on,,1,0,11,,,,,,,,,,,,,,,10,,,84,72
24960,note_on,,1,0,9,,,,,,,,,,,,,,,7,,,60,88
24960,note_on,,1,0,8,,,,,,,,,,,,,,,6,,,64,88
24960,note_on,,1,0,5,,,,,,,,,,,,,,,0,,,81,72
24960,note_on,,0,0,15,,,,,,,,,,,,,,,14,,,72,72
24989,note_on,,29,0,12,,,,,,,,,,,,,,,11,,,81,0
24989,note_on,,29,0,11,,,,,,,,,,,,,,,10,,,84,0
24990,note_on,,1,0,12,,,,,,,,,,,,,,,11,,,79,72
24990,note_on,,1,0,11,,,,,,,,,,,,,,,10,,,82,72
25019,note_on,,29,0,12,,,,,,,,,,,,,,,11,,,79,0
25019,note_on,,29,0,11,,,,,,,,,,,,,,,10,,,82,0
25020,note_on,,1,0,11,,,,,,,,,,,,,,,10,,,84,72
25020,note_on,,1,0,12,,,,,,,,,,,,,,,11,,,81,72
25049,note_on,,29,0,12,,,,,,,,,,,,,,,11,,,81,0
25049,note_on,,29,0,11,,,,,,,,,,,,,,,10,,,84,0
25050,note_on,,1,0,12,,,,,,,,,,,,,,,11,,,82,72
25050,note_on,,1,0,11,,,,,,,,,,,,,,,10,,,86,72
25079,note_on,,119,0,7,,,,,,,,,,,,,,,5,,,81,0
25079,note_on,,29,0,12,,,,,,,,,,,,,,,11,,,82,0
25079,note_on,,119,0,6,,,,,,,,,,,,,,,1,,,57,0
25079,note_on,,119,0,8,,,,,,,,,,,,,,,6,,,64,0
25079,note_on,,119,0,14,,,,,,,,,,,,,,,13,,,57,0
25079,note_on,,119,0,10,,,,,,,,,,,,,,,8,,,57,0
25079,note_on,,0,0,15,,,,,,,,,,,,,,,14,,,69,0
25079,note_on,,0,0,15,,,,,,,,,,,,,,,14,,,60,0
25079,note_on,,119,0,9,,,,,,,,,,,,,,,7,,,60,0
25079,note_on,,29,0,11,,,,,,,,,,,,,,,10,,,86,0
25079,note_on,,119,0,5,,,,,,,,,,,,,,,0,,,81,0
25079,note_on,,119,0,15,,,,,,,,,,,,,,,14,,,57,0
25079,note_on,,0,0,15,,,,,,,,,,,,,,,14,,,72,0
25079,note_on,,0,0,15,,,,,,,,,,,,,,,14,,,64,0
25079,note_on,,119,0,13,,,,,,,,,,,,,,,12,,,64,0
25080,note_on,,1,0,10,,,,,,,,,,,,,,,8,,,58,88
25080,note_on,,1,0,8,,,,,,,,,,,,,,,6,,,69,88
25080,note_on,,1,0,11,,,,,,,,,,,,,,,10,,,84,72
25080,note_on,,1,0,5,,,,,,,,,,,,,,,0,,,81,72
25080,note_on,,1,0,9,,,,,,,,,,,,,,,7,,,62,88
25080,note_on,,1,0,12,,,,,,,,,,,,,,,11,,,81,72
25080,note_on,,1,0,14,,,,,,,,,,,,,,,13,,,58,72
25080,note_on,,0,0,15,,,,,,,,,,,,,,,14,,,72,72
25080,note_on,,1,0,7,,,,,,,,,,,,,,,5,,,81,88
25080,note_on,,1,0,13,,,,,,,,,,,,,,,12,,,62,72
25080,note_on,,1,0,15,,,,,,,,,,,,,,,14,,,58,72
25080,note_on,,1,0,6,,,,,,,,,,,,,,,1,,,58,72
25080,note_on,,0,0,15,,,,,,,,,,,,,,,14,,,69,72
25080,note_on,,0,0,15,,,,,,,,,,,,,,,14,,,64,72
25109,note_on,,29,0,12,,,,,,,,,,,,,,,11,,,81,0
25109,note_on,,29,0,11,,,,,,,,,,,,,,,10,,,84,0
25110,note_on,,1,0,12,,,,,,,,,,,,,,,11,,,82,72
25110,note_on,,1,0,11,,,,,,,,,,,,,,,10,,,86,72
25139,note_on,,59,0,9,,,,,,,,,,,,,,,7,,,62,0
25139,note_on,,59,0,7,,,,,,,,,,,,,,,5,,,81,0
25139,note_on,,0,0,15,,,,,,,,,,,,,,,14,,,69,0
25139,note_on,,0,0,15,,,,,,,,,,,,,,,14,,,72,0
25139,note_on,,59,0,15,,,,,,,,,,,,,,,14,,,58,0
25139,note_on,,59,0,6,,,,,,,,,,,,,,,1,,,58,0
25139,note_on,,59,0,10,,,,,,,,,,,,,,,8,,,58,0
25139,note_on,,59,0,13,,,,,,,,,,,,,,,12,,,62,0
25139,note_on,,0,0,15,,,,,,,,,,,,,,,14,,,64,0
25139,note_on,,59,0,8,,,,,,,,,,,,,,,6,,,69,0
25139,note_on,,59,0,14,,,,,,,,,,,,,,,13,,,58,0
25139,note_on,,29,0,11,,,,,,,,,,,,,,,10,,,86,0
25139,note_on,,29,0,12,,,,,,,,,,,,,,,11,,,82,0
25139,note_on,,59,0,5,,,,,,,,,,,,,,,0,,,81,0
25140,note_on,,1,0,13,,,,,,,,,,,,,,,12,,,64,72
25140,note_on,,1,0,15,,,,,,,,,,,,,,,14,,,60,72
25140,note_on,,0,0,15,,,,,,,,,,,,,,,14,,,70,72
25140,note_on,,1,0,10,,,,,,,,,,,,,,,8,,,60,88
25140,note_on,,1,0,5,,,,,,,,,,,,,,,0,,,79,72
25140,note_on,,1,0,7,,,,,,,,,,,,,,,5,,,79,88
25140,note_on,,1,0,9,,,,,,,,,,,,,,,7,,,64,88
25140,note_on,,1,0,14,,,,,,,,,,,,,,,13,,,60,72
25140,note_on,,0,0,15,,,,,,,,,,,,,,,14,,,64,72
25140,note_on,,1,0,6,,,,,,,,,,,,,,,1,,,60,72
25140,note_on,,1,0,12,,,,,,,,,,,,,,,11,,,81,72
25140,note_on,,1,0,8,,,,,,,,,,,,,,,6,,,69,88
25140,note_on,,1,0,11,,,,,,,,,,,,,,,10,,,84,72
25140,note_on,,0,0,15,,,,,,,,,,,,,,,14,,,67,72
25169,note_on,,29,0,11,,,,,,,,,,,,,,,10,,,84,0
25169,note_on,,29,0,12,,,,,,,,,,,,,,,11,,,81,0
25170,note_on,,1,0,11,,,,,,,,,,,,,,,10,,,82,72
25170,note_on,,1,0,12,,,,,,,,,,,,,,,11,,,79,72
25199,note_on,,59,0,13,,,,,,,,,,,,,,,12,,,64,0
25199,note_on,,59,0,15,,,,,,,,,,,,,,,14,,,60,0
25199,note_on,,59,0,14,,,,,,,,,,,,,,,13,,,60,0
25199,note_on,,29,0,11,,,,,,,,,,,,,,,10,,,82,0
25199,note_on,,59,0,9,,,,,,,,,,,,,,,7,,,64,0
25199,note_on,,59,0,5,,,,,,,,,,,,,,,0,,,79,0
25199,note_on,,59,0,10,,,,,,,,,,,,,,,8,,,60,0
25199,note_on,,0,0,15,,,,,,,,,,,,,,,14,,,70,0
25199,note_on,,0,0,15,,,,,,,,,,,,,,,14,,,67,0
25199,note_on,,29,0,12,,,,,,,,,,,,,,,11,,,79,0
25199,note_on,,59,0,8,,,,,,,,,,,,,,,6,,,69,0
25199,note_on,,59,0,6,,,,,,,,,,,,,,,1,,,60,0
25199,note_on,,0,0,15,,,,,,,,,,,,,,,14,,,64,0
25199,note_on,,59,0,7,,,,,,,,,,,,,,,5,,,79,0
25200,note_on,,1,0,15,,,,,,,,,,,,,,,14,,,62,72
25200,note_on,,1,0,9,,,,,,,,,,,,,,,7,,,66,88
25200,note_on,,0,0,15,,,,,,,,,,,,,,,14,,,66,72
25200,note_on,,1,0,14,,,,,,,,,,,,,,,13,,,62,72
25200,note_on,,1,0,11,,,,,,,,,,,,,,,10,,,81,72
25200,note_on,,1,0,13,,,,,,,,,,,,,,,12,,,66,72
25200,note_on,,1,0,10,,,,,,,,,,,,,,,8,,,62,88
25200,note_on,,1,0,8,,,,,,,,,,,,,,,6,,,69,88
25200,note_on,,1,0,5,,,,,,,,,,,,,,,0,,,78,72
25200,note_on,,1,0,7,,,,,,,,,,,,,,,5,,,78,88
25200,note_on,,1,0,12,,,,,,,,,,,,,,,11,,,78,72
25200,note_on,,0,0,15,,,,,,,,,,,,,,,14,,,69,72
25200,note_on,,1,0,6,,,,,,,,,,,,,,,1,,,62,72
25229,note_on,,29,0,12,,,,,,,,,,,,,,,11,,,78,0
25229,note_on,,29,0,11,,,,,,,,,,,,,,,10,,,81,0
25230,note_on,,1,0,11,,,,,,,,,,,,,,,10,,,79,72
25230,note_on,,1,0,12,,,,,,,,,,,,,,,11,,,76,72
25259,note_on,,29,0,12,,,,,,,,,,,,,,,11,,,76,0
25259,note_on,,59,0,13,,,,,,,,,,,,,,,12,,,66,0
25259,note_on,,29,0,11,,,,,,,,,,,,,,,10,,,79,0
25260,note_on,,1,0,11,,,,,,,,,,,,,,,10,,,81,72
25260,note_on,,1,0,13,,,,,,,,,,,,,,,12,,,69,72
25260,note_on,,1,0,12,,,,,,,,,,,,,,,11,,,78,72
25289,note_on,,29,0,11,,,,,,,,,,,,,,,10,,,81,0
25289,note_on,,29,0,12,,,,,,,,,,,,,,,11,,,78,0
25290,note_on,,1,0,11,,,,,,,,,,,,,,,10,,,82,72
25290,note_on,,1,0,12,,,,,,,,,,,,,,,11,,,82,72
25319,note_on,,29,0,11,,,,,,,,,,,,,,,10,,,82,0
25319,note_on,,59,0,13,,,,,,,,,,,,,,,12,,,69,0
25319,note_on,,29,0,12,,,,,,,,,,,,,,,11,,,82,0
25319,note_on,,0,0,15,,,,,,,,,,,,,,,14,,,66,0
25319,note_on,,119,0,15,,,,,,,,,,,,,,,14,,,69,0
25319,note_on,,119,0,7,,,,,,,,,,,,,,,5,,,78,0
25319,note_on,,119,0,5,,,,,,,,,,,,,,,0,,,78,0
25320,note_on,,1,0,7,,,,,,,,,,,,,,,5,,,74,88
25320,note_on,,1,0,5,,,,,,,,,,,,,,,0,,,74,72
25320,note_on,,1,0,11,,,,,,,,,,,,,,,10,,,81,72
25320,note_on,,1,0,12,,,,,,,,,,,,,,,11,,,81,72
25320,note_on,,1,0,13,,,,,,,,,,,,,,,12,,,74,72
25320,note_on,,1,0,15,,,,,,,,,,,,,,,14,,,78,72
25320,note_on,,0,0,15,,,,,,,,,,,,,,,14,,,74,72
25320,note_on,,0,0,15,,,,,,,,,,,,,,,14,,,69,72
25349,note_on,,29,0,11,,,,,,,,,,,,,,,10,,,81,0
25349,note_on,,29,0,12,,,,,,,,,,,,,,,11,,,81,0
25350,note_on,,1,0,11,,,,,,,,,,,,,,,10,,,81,72
25350,note_on,,1,0,12,,,,,,,,,,,,,,,11,,,81,72
25379,note_on,,179,0,6,,,,,,,,,,,,,,,1,,,62,0
25379,note_on,,29,0,12,,,,,,,,,,,,,,,11,,,81,0
25379,note_on,,59,0,15,,,,,,,,,,,,,,,14,,,62,0
25379,note_on,,179,0,9,,,,,,,,,,,,,,,7,,,66,0
25379,note_on,,179,0,14,,,,,,,,,,,,,,,13,,,62,0
25379,note_on,,179,0,8,,,,,,,,,,,,,,,6,,,69,0
25379,note_on,,29,0,11,,,,,,,,,,,,,,,10,,,81,0
25379,note_on,,179,0,10,,,,,,,,,,,,,,,8,,,62,0
25380,note_on,,1,0,15,,,,,,,,,,,,,,,14,,,60,72
25380,note_on,,1,0,11,,,,,,,,,,,,,,,10,,,82,72
25380,note_on,,1,0,14,,,,,,,,,,,,,,,13,,,60,72
25380,note_on,,1,0,6,,,,,,,,,,,,,,,1,,,60,72
25380,note_on,,1,0,12,,,,,,,,,,,,,,,11,,,82,72
25380,note_on,,1,0,9,,,,,,,,,,,,,,,7,,,66,88
25380,note_on,,1,0,8,,,,,,,,,,,,,,,6,,,69,88
25380,note_on,,1,0,10,,,,,,,,,,,,,,,8,,,60,88
25409,note_on,,29,0,11,,,,,,,,,,,,,,,10,,,82,0
25409,note_on,,29,0,12,,,,,,,,,,,,,,,11,,,82,0
25410,note_on,,1,0,12,,,,,,,,,,,,,,,11,,,84,72
25410,note_on,,1,0,11,,,,,,,,,,,,,,,10,,,84,72
25439,note_on,,59,0,10,,,,,,,,,,,,,,,8,,,60,0
25439,note_on,,59,0,6,,,,,,,,,,,,,,,1,,,60,0
25439,note_on,,0,0,15,,,,,,,,,,,,,,,14,,,69,0
25439,note_on,,0,0,15,,,,,,,,,,,,,,,14,,,60,0
25439,note_on,,119,0,7,,,,,,,,,,,,,,,5,,,74,0
25439,note_on,,59,0,8,,,,,,,,,,,,,,,6,,,69,0
25439,note_on,,119,0,5,,,,,,,,,,,,,,,0,,,74,0
25439,note_on,,59,0,15,,,,,,,,,,,,,,,14,,,78,0
25439,note_on,,29,0,11,,,,,,,,,,,,,,,10,,,84,0
25439,note_on,,59,0,9,,,,,,,,,,,,,,,7,,,66,0
25439,note_on,,119,0,13,,,,,,,,,,,,,,,12,,,74,0
25439,note_on,,0,0,15,,,,,,,,,,,,,,,14,,,74,0
25439,note_on,,59,0,14,,,,,,,,,,,,,,,13,,,60,0
25439,note_on,,29,0,12,,,,,,,,,,,,,,,11,,,84,0
25440,note_on,,1,0,12,,,,,,,,,,,,,,,11,,,82,72
25440,note_on,,1,0,6,,,,,,,,,,,,,,,1,,,58,72
25440,note_on,,1,0,10,,,,,,,,,,,,,,,8,,,58,88
25440,note_on,,0,0,15,,,,,,,,,,,,,,,14,,,79,72
25440,note_on,,1,0,15,,,,,,,,,,,,,,,14,,,58,72
25440,note_on,,1,0,14,,,,,,,,,,,,,,,13,,,58,72
25440,note_on,,1,0,7,,,,,,,,,,,,,,,5,,,74,88
25440,note_on,,1,0,9,,,,,,,,,,,,,,,7,,,62,88
25440,note_on,,1,0,8,,,,,,,,,,,,,,,6,,,67,88
25440,note_on,,0,0,15,,,,,,,,,,,,,,,14,,,62,72
25440,note_on,,0,0,15,,,,,,,,,,,,,,,14,,,67,72
25440,note_on,,0,0,15,,,,,,,,,,,,,,,14,,,74,72
25440,note_on,,1,0,11,,,,,,,,,,,,,,,10,,,86,72
25440,note_on,,1,0,5,,,,,,,,,,,,,,,0,,,74,72
25440,note_on,,1,0,13,,,,,,,,,,,,,,,12,,,67,72
25499,note_on,,59,0,9,,,,,,,,,,,,,,,7,,,62,0
25499,note_on,,59,0,10,,,,,,,,,,,,,,,8,,,58,0
25499,note_on,,0,0,15,,,,,,,,,,,,,,,14,,,62,0
25499,note_on,,59,0,15,,,,,,,,,,,,,,,14,,,58,0
25499,note_on,,59,0,14,,,,,,,,,,,,,,,13,,,58,0
25499,note_on,,59,0,13,,,,,,,,,,,,,,,12,,,67,0
25499,note_on,,59,0,12,,,,,,,,,,,,,,,11,,,82,0
25499,note_on,,59,0,11,,,,,,,,,,,,,,,10,,,86,0
25499,note_on,,59,0,6,,,,,,,,,,,,,,,1,,,58,0
25499,note_on,,59,0,8,,,,,,,,,,,,,,,6,,,67,0
25499,note_on,,59,0,7,,,,,,,,,,,,,,,5,,,74,0
25499,note_on,,59,0,5,,,,,,,,,,,,,,,0,,,74,0
25500,note_on,,1,0,6,,,,,,,,,,,,,,,1,,,57,72
25500,note_on,,1,0,13,,,,,,,,,,,,,,,12,,,69,72
25500,note_on,,1,0,11,,,,,,,,,,,,,,,10,,,74,72
25500,note_on,,1,0,8,,,,,,,,,,,,,,,6,,,69,88
25500,note_on,,1,0,15,,,,,,,,,,,,,,,14,,,57,72
25500,note_on,,1,0,9,,,,,,,,,,,,,,,7,,,62,88
25500,note_on,,0,0,15,,,,,,,,,,,,,,,14,,,60,72
25500,note_on,,1,0,7,,,,,,,,,,,,,,,5,,,74,88
25500,note_on,,1,0,14,,,,,,,,,,,,,,,13,,,57,72
25500,note_on,,1,0,10,,,,,,,,,,,,,,,8,,,57,88
25500,note_on,,1,0,5,,,,,,,,,,,,,,,0,,,74,72
25500,note_on,,1,0,12,,,,,,,,,,,,,,,11,,,78,72
25559,note_on,,59,0,6,,,,,,,,,,,,,,,1,,,57,0
25559,note_on,,59,0,5,,,,,,,,,,,,,,,0,,,74,0
25559,note_on,,59,0,7,,,,,,,,,,,,,,,5,,,74,0
25559,note_on,,59,0,8,,,,,,,,,,,,,,,6,,,69,0
25559,note_on,,59,0,11,,,,,,,,,,,,,,,10,,,74,0
25559,note_on,,59,0,9,,,,,,,,,,,,,,,7,,,62,0
25559,note_on,,59,0,13,,,,,,,,,,,,,,,12,,,69,0
25559,note_on,,59,0,14,,,,,,,,,,,,,,,13,,,57,0
25559,note_on,,59,0,10,,,,,,,,,,,,,,,8,,,57,0
25559,note_on,,59,0,12,,,,,,,,,,,,,,,11,,,78,0
25559,note_on,,0,0,15,,,,,,,,,,,,,,,14,,,57,0
25559,note_on,,0,0,15,,,,,,,,,,,,,,,14,,,67,0
25559,note_on,,0,0,15,,,,,,,,,,,,,,,14,,,74,0
25559,note_on,,59,0,15,,,,,,,,,,,,,,,14,,,79,0
25559,note_on,,0,0,15,,,,,,,,,,,,,,,14,,,60,0
25560,note_on,,1,0,5,,,,,,,,,,,,,,,0,,,74,72
25560,note_on,,1,0,11,,,,,,,,,,,,,,,10,,,86,72
25560,note_on,,1,0,9,,,,,,,,,,,,,,,7,,,62,88
25560,note_on,,0,0,15,,,,,,,,,,,,,,,14,,,58,72
25560,note_on,,0,0,15,,,,,,,,,,,,,,,14,,,67,72
25560,note_on,,1,0,12,,,,,,,,,,,,,,,11,,,79,72
25560,note_on,,0,0,15,,,,,,,,,,,,,,,14,,,74,72
25560,note_on,,1,0,15,,,,,,,,,,,,,,,14,,,55,72
25560,note_on,,1,0,13,,,,,,,,,,,,,,,12,,,70,72
25560,note_on,,1,0,8,,,,,,,,,,,,,,,6,,,70,88
25560,note_on,,1,0,10,,,,,,,,,,,,,,,8,,,55,88
25560,note_on,,1,0,6,,,,,,,,,,,,,,,1,,,55,72
25560,note_on,,1,0,14,,,,,,,,,,,,,,,13,,,55,72
25560,note_on,,1,0,7,,,,,,,,,,,,,,,5,,,74,88
25619,note_on,,0,0,15,,,,,,,,,,,,,,,14,,,58,0
25619,note_on,,59,0,15,,,,,,,,,,,,,,,14,,,55,0
25619,note_on,,59,0,5,,,,,,,,,,,,,,,0,,,74,0
25619,note_on,,59,0,6,,,,,,,,,,,,,,,1,,,55,0
25619,note_on,,59,0,14,,,,,,,,,,,,,,,13,,,55,0
25619,note_on,,59,0,7,,,,,,,,,,,,,,,5,,,74,0
25619,note_on,,59,0,8,,,,,,,,,,,,,,,6,,,70,0
25619,note_on,,0,0,15,,,,,,,,,,,,,,,14,,,67,0
25619,note_on,,59,0,10,,,,,,,,,,,,,,,8,,,55,0
25619,note_on,,59,0,9,,,,,,,,,,,,,,,7,,,62,0
25619,note_on,,59,0,12,,,,,,,,,,,,,,,11,,,79,0
25619,note_on,,59,0,13,,,,,,,,,,,,,,,12,,,70,0
25620,note_on,,1,0,12,,,,,,,,,,,,,,,11,,,81,72
25620,note_on,,1,0,5,,,,,,,,,,,,,,,0,,,74,72
25620,note_on,,1,0,15,,,,,,,,,,,,,,,14,,,53,72
25620,note_on,,0,0,15,,,,,,,,,,,,,,,14,,,57,72
25620,note_on,,1,0,14,,,,,,,,,,,,,,,13,,,53,72
25620,note_on,,0,0,15,,,,,,,,,,,,,,,14,,,69,72
25620,note_on,,1,0,13,,,,,,,,,,,,,,,12,,,62,72
25620,note_on,,1,0,7,,,,,,,,,,,,,,,5,,,74,88
25620,note_on,,1,0,6,,,,,,,,,,,,,,,1,,,53,72
25620,note_on,,1,0,10,,,,,,,,,,,,,,,8,,,53,88
25620,note_on,,1,0,9,,,,,,,,,,,,,,,7,,,62,88
25620,note_on,,1,0,8,,,,,,,,,,,,,,,6,,,69,88
25679,note_on,,59,0,15,,,,,,,,,,,,,,,14,,,74,0
25679,note_on,,59,0,7,,,,,,,,,,,,,,,5,,,74,0
25679,note_on,,59,0,9,,,,,,,,,,,,,,,7,,,62,0
25679,note_on,,0,0,15,,,,,,,,,,,,,,,14,,,57,0
25679,note_on,,0,0,15,,,,,,,,,,,,,,,14,,,69,0
25679,note_on,,59,0,14,,,,,,,,,,,,,,,13,,,53,0
25679,note_on,,59,0,5,,,,,,,,,,,,,,,0,,,74,0
25679,note_on,,59,0,10,,,,,,,,,,,,,,,8,,,53,0
25679,note_on,,59,0,6,,,,,,,,,,,,,,,1,,,53,0
25679,note_on,,0,0,15,,,,,,,,,,,,,,,14,,,53,0
25679,note_on,,59,0,12,,,,,,,,,,,,,,,11,,,81,0
25679,note_on,,59,0,8,,,,,,,,,,,,,,,6,,,69,0
25679,note_on,,59,0,13,,,,,,,,,,,,,,,12,,,62,0
25680,note_on,,1,0,6,,,,,,,,,,,,,,,1,,,51,72
25680,note_on,,1,0,8,,,,,,,,,,,,,,,6,,,67,88
25680,note_on,,1,0,13,,,,,,,,,,,,,,,12,,,63,72
25680,note_on,,1,0,9,,,,,,,,,,,,,,,7,,,63,88
25680,note_on,,1,0,15,,,,,,,,,,,,,,,14,,,51,72
25680,note_on,,0,0,15,,,,,,,,,,,,,,,14,,,74,72
25680,note_on,,1,0,10,,,,,,,,,,,,,,,8,,,51,88
25680,note_on,,0,0,15,,,,,,,,,,,,,,,14,,,70,72
25680,note_on,,1,0,7,,,,,,,,,,,,,,,5,,,74,88
25680,note_on,,1,0,14,,,,,,,,,,,,,,,13,,,51,72
25680,note_on,,1,0,5,,,,,,,,,,,,,,,0,,,74,72
25680,note_on,,1,0,12,,,,,,,,,,,,,,,11,,,79,72
25680,note_on,,0,0,15,,,,,,,,,,,,,,,14,,,55,72
25739,note_on,,59,0,12,,,,,,,,,,,,,,,11,,,79,0
25740,note_on,,1,0,12,,,,,,,,,,,,,,,11,,,67,72
25799,note_on,,119,0,15,,,,,,,,,,,,,,,14,,,74,0
25799,note_on,,119,0,5,,,,,,,,,,,,,,,0,,,74,0
25799,note_on,,239,0,11,,,,,,,,,,,,,,,10,,,86,0
25799,note_on,,119,0,7,,,,,,,,,,,,,,,5,,,74,0
25799,note_on,,0,0,15,,,,,,,,,,,,,,,14,,,70,0
25799,note_on,,59,0,12,,,,,,,,,,,,,,,11,,,67,0
25800,note_on,,0,0,15,,,,,,,,,,,,,,,14,,,60,72
25800,note_on,,1,0,15,,,,,,,,,,,,,,,14,,,72,72
25800,note_on,,0,0,15,,,,,,,,,,,,,,,14,,,69,72
25800,note_on,,1,0,12,,,,,,,,,,,,,,,11,,,79,72
25800,note_on,,0,0,15,,,,,,,,,,,,,,,14,,,67,72
25800,note_on,,1,0,5,,,,,,,,,,,,,,,0,,,72,72
25800,note_on,,1,0,7,,,,,,,,,,,,,,,5,,,72,88
25800,note_on,,1,0,11,,,,,,,,,,,,,,,10,,,84,72
25829,note_on,,29,0,12,,,,,,,,,,,,,,,11,,,79,0
25830,note_on,,1,0,12,,,,,,,,,,,,,,,11,,,82,72
25859,note_on,,59,0,15,,,,,,,,,,,,,,,14,,,51,0
25859,note_on,,0,0,15,,,,,,,,,,,,,,,14,,,55,0
25859,note_on,,179,0,6,,,,,,,,,,,,,,,1,,,51,0
25859,note_on,,179,0,10,,,,,,,,,,,,,,,8,,,51,0
25859,note_on,,179,0,9,,,,,,,,,,,,,,,7,,,63,0
25859,note_on,,179,0,14,,,,,,,,,,,,,,,13,,,51,0
25859,note_on,,179,0,8,,,,,,,,,,,,,,,6,,,67,0
25859,note_on,,179,0,13,,,,,,,,,,,,,,,12,,,63,0
25859,note_on,,29,0,12,,,,,,,,,,,,,,,11,,,82,0
25860,note_on,,1,0,14,,,,,,,,,,,,,,,13,,,51,72
25860,note_on,,1,0,8,,,,,,,,,,,,,,,6,,,67,88
25860,note_on,,1,0,12,,,,,,,,,,,,,,,11,,,81,72
25860,note_on,,1,0,9,,,,,,,,,,,,,,,7,,,63,88
25860,note_on,,1,0,13,,,,,,,,,,,,,,,12,,,63,72
25860,note_on,,1,0,10,,,,,,,,,,,,,,,8,,,51,88
25860,note_on,,1,0,6,,,,,,,,,,,,,,,1,,,51,72
25860,note_on,,1,0,15,,,,,,,,,,,,,,,14,,,51,72
25860,note_on,,0,0,15,,,,,,,,,,,,,,,14,,,55,72
25889,note_on,,29,0,12,,,,,,,,,,,,,,,11,,,81,0
25890,note_on,,1,0,12,,,,,,,,,,,,,,,11,,,79,72
25919,note_on,,119,0,7,,,,,,,,,,,,,,,5,,,72,0
25919,note_on,,59,0,14,,,,,,,,,,,,,,,13,,,51,0
25919,note_on,,59,0,13,,,,,,,,,,,,,,,12,,,63,0
25919,note_on,,29,0,12,,,,,,,,,,,,,,,11,,,79,0
25919,note_on,,59,0,8,,,,,,,,,,,,,,,6,,,67,0
25919,note_on,,0,0,15,,,,,,,,,,,,,,,14,,,55,0
25919,note_on,,0,0,15,,,,,,,,,,,,,,,14,,,60,0
25919,note_on,,119,0,5,,,,,,,,,,,,,,,0,,,72,0
25919,note_on,,0,0,15,,,,,,,,,,,,,,,14,,,67,0
25919,note_on,,0,0,15,,,,,,,,,,,,,,,14,,,69,0
25919,note_on,,59,0,15,,,,,,,,,,,,,,,14,,,72,0
25919,note_on,,59,0,6,,,,,,,,,,,,,,,1,,,51,0
25919,note_on,,59,0,10,,,,,,,,,,,,,,,8,,,51,0
25919,note_on,,0,0,15,,,,,,,,,,,,,,,14,,,51,0
25919,note_on,,59,0,9,,,,,,,,,,,,,,,7,,,63,0
25920,note_on,,1,0,8,,,,,,,,,,,,,,,6,,,69,88
25920,note_on,,1,0,12,,,,,,,,,,,,,,,11,,,78,72
25920,note_on,,1,0,9,,,,,,,,,,,,,,,7,,,54,88
25920,note_on,,1,0,10,,,,,,,,,,,,,,,8,,,50,88
25920,note_on,,1,0,7,,,,,,,,,,,,,,,5,,,72,88
25920,note_on,,1,0,14,,,,,,,,,,,,,,,13,,,50,72
25920,note_on,,0,0,15,,,,,,,,,,,,,,,14,,,62,72
25920,note_on,,0,0,15,,,,,,,,,,,,,,,14,,,66,72
25920,note_on,,0,0,15,,,,,,,,,,,,,,,14,,,72,72
25920,note_on,,1,0,15,,,,,,,,,,,,,,,14,,,50,72
25920,note_on,,1,0,13,,,,,,,,,,,,,,,12,,,57,72
25920,note_on,,1,0,6,,,,,,,,,,,,,,,1,,,50,72
25920,note_on,,0,0,15,,,,,,,,,,,,,,,14,,,57,72
25920,note_on,,1,0,5,,,,,,,,,,,,,,,0,,,72,72
25979,note_on,,59,0,13,,,,,,,,,,,,,,,12,,,57,0
25980,note_on,,1,0,13,,,,,,,,,,,,,,,12,,,62,72
26039,note_on,,119,0,5,,,,,,,,,,,,,,,0,,,72,0
26039,note_on,,59,0,13,,,,,,,,,,,,,,,12,,,62,0
26039,note_on,,0,0,15,,,,,,,,,,,,,,,14,,,72,0
26039,note_on,,119,0,12,,,,,,,,,,,,,,,11,,,78,0
26039,note_on,,0,0,15,,,,,,,,,,,,,,,14,,,66,0
26039,note_on,,119,0,8,,,,,,,,,,,,,,,6,,,69,0
26039,note_on,,0,0,15,,,,,,,,,,,,,,,14,,,62,0
26039,note_on,,119,0,10,,,,,,,,,,,,,,,8,,,50,0
26039,note_on,,0,0,15,,,,,,,,,,,,,,,14,,,57,0
26039,note_on,,119,0,6,,,,,,,,,,,,,,,1,,,50,0
26039,note_on,,119,0,7,,,,,,,,,,,,,,,5,,,72,0
26039,note_on,,119,0,9,,,,,,,,,,,,,,,7,,,54,0
26039,note_on,,119,0,15,,,,,,,,,,,,,,,14,,,50,0
26039,note_on,,119,0,14,,,,,,,,,,,,,,,13,,,50,0
26039,note_on,,239,0,11,,,,,,,,,,,,,,,10,,,84,0
26040,note_on,,0,0,15,,,,,,,,,,,,,,,14,,,67,72
26040,note_on,,0,0,15,,,,,,,,,,,,,,,14,,,70,72
26040,note_on,,1,0,13,,,,,,,,,,,,,,,12,,,62,72
26040,note_on,,1,0,5,,,,,,,,,,,,,,,0,,,70,72
26040,note_on,,1,0,11,,,,,,,,,,,,,,,10,,,82,72
26040,note_on,,1,0,6,,,,,,,,,,,,,,,1,,,43,72
26040,note_on,,0,0,15,,,,,,,,,,,,,,,14,,,62,72
26040,note_on,,1,0,15,,,,,,,,,,,,,,,14,,,43,72
26040,note_on,,1,0,12,,,,,,,,,,,,,,,11,,,79,72
26040,note_on,,0,0,15,,,,,,,,,,,,,,,14,,,55,72
26040,note_on,,1,0,7,,,,,,,,,,,,,,,5,,,70,88
26040,note_on,,1,0,9,,,,,,,,,,,,,,,7,,,55,88
26040,note_on,,1,0,14,,,,,,,,,,,,,,,13,,,43,72
26040,note_on,,1,0,10,,,,,,,,,,,,,,,8,,,43,88
26040,note_on,,1,0,8,,,,,,,,,,,,,,,6,,,67,88
26159,note_on,,119,0,10,,,,,,,,,,,,,,,8,,,43,0
26159,note_on,,119,0,5,,,,,,,,,,,,,,,0,,,70,0
26159,note_on,,119,0,7,,,,,,,,,,,,,,,5,,,70,0
26159,note_on,,119,0,15,,,,,,,,,,,,,,,14,,,43,0
26159,note_on,,0,0,15,,,,,,,,,,,,,,,14,,,70,0
26159,note_on,,0,0,15,,,,,,,,,,,,,,,14,,,67,0
26159,note_on,,0,0,15,,,,,,,,,,,,,,,14,,,62,0
26159,note_on,,0,0,15,,,,,,,,,,,,,,,14,,,55,0
26159,note_on,,119,0,13,,,,,,,,,,,,,,,12,,,62,0
26159,note_on,,119,0,14,,,,,,,,,,,,,,,13,,,43,0
26159,note_on,,119,0,8,,,,,,,,,,,,,,,6,,,67,0
26159,note_on,,119,0,11,,,,,,,,,,,,,,,10,,,82,0
26159,note_on,,119,0,6,,,,,,,,,,,,,,,1,,,43,0
26159,note_on,,119,0,9,,,,,,,,,,,,,,,7,,,55,0
26160,note_on,,1,0,13,,,,,,,,,,,,,,,12,,,62,72
26160,note_on,,1,0,15,,,,,,,,,,,,,,,14,,,50,72
26160,note_on,,0,0,15,,,,,,,,,,,,,,,14,,,69,72
26160,note_on,,1,0,9,,,,,,,,,,,,,,,7,,,57,88
26160,note_on,,1,0,7,,,,,,,,,,,,,,,5,,,69,88
26160,note_on,,1,0,11,,,,,,,,,,,,,,,10,,,81,72
26160,note_on,,0,0,15,,,,,,,,,,,,,,,14,,,67,72
26160,note_on,,0,0,15,,,,,,,,,,,,,,,14,,,62,72
26160,note_on,,0,0,15,,,,,,,,,,,,,,,14,,,57,72
26160,note_on,,1,0,10,,,,,,,,,,,,,,,8,,,50,88
26160,note_on,,1,0,8,,,,,,,,,,,,,,,6,,,67,88
26160,note_on,,1,0,6,,,,,,,,,,,,,,,1,,,50,72
26160,note_on,,1,0,5,,,,,,,,,,,,,,,0,,,69,72
26160,note_on,,1,0,14,,,,,,,,,,,,,,,13,,,50,72
26279,note_on,,0,0,15,,,,,,,,,,,,,,,14,,,67,0
26279,note_on,,119,0,8,,,,,,,,,,,,,,,6,,,67,0
26279,note_on,,239,0,12,,,,,,,,,,,,,,,11,,,79,0
26279,note_on,,119,0,9,,,,,,,,,,,,,,,7,,,57,0
26279,note_on,,0,0,15,,,,,,,,,,,,,,,14,,,62,0
26279,note_on,,119,0,15,,,,,,,,,,,,,,,14,,,69,0
26280,note_on,,1,0,8,,,,,,,,,,,,,,,6,,,66,88
26280,note_on,,0,0,15,,,,,,,,,,,,,,,14,,,65,72
26280,note_on,,0,0,15,,,,,,,,,,,,,,,14,,,69,72
26280,note_on,,1,0,15,,,,,,,,,,,,,,,14,,,74,72
26280,note_on,,1,0,9,,,,,,,,,,,,,,,7,,,62,88
26280,note_on,,1,0,12,,,,,,,,,,,,,,,11,,,78,72
26339,note_on,,0,0,15,,,,,,,,,,,,,,,14,,,57,0
26339,note_on,,179,0,6,,,,,,,,,,,,,,,1,,,50,0
26339,note_on,,179,0,13,,,,,,,,,,,,,,,12,,,62,0
26339,note_on,,59,0,15,,,,,,,,,,,,,,,14,,,50,0
26339,note_on,,179,0,5,,,,,,,,,,,,,,,0,,,69,0
26339,note_on,,179,0,14,,,,,,,,,,,,,,,13,,,50,0
26339,note_on,,179,0,11,,,,,,,,,,,,,,,10,,,81,0
26339,note_on,,179,0,10,,,,,,,,,,,,,,,8,,,50,0
26339,note_on,,179,0,7,,,,,,,,,,,,,,,5,,,69,0
26340,note_on,,1,0,7,,,,,,,,,,,,,,,5,,,69,88
26340,note_on,,1,0,6,,,,,,,,,,,,,,,1,,,50,72
26340,note_on,,1,0,13,,,,,,,,,,,,,,,12,,,62,72
26340,note_on,,1,0,15,,,,,,,,,,,,,,,14,,,50,72
26340,note_on,,1,0,14,,,,,,,,,,,,,,,13,,,50,72
26340,note_on,,1,0,10,,,,,,,,,,,,,,,8,,,50,88
26340,note_on,,0,0,15,,,,,,,,,,,,,,,14,,,57,72
26340,note_on,,1,0,5,,,,,,,,,,,,,,,0,,,69,72
26340,note_on,,1,0,11,,,,,,,,,,,,,,,10,,,79,72
26399,note_on,,119,0,12,,,,,,,,,,,,,,,11,,,78,0
26399,note_on,,59,0,14,,,,,,,,,,,,,,,13,,,50,0
26399,note_on,,59,0,6,,,,,,,,,,,,,,,1,,,50,0
26399,note_on,,119,0,9,,,,,,,,,,,,,,,7,,,62,0
26399,note_on,,59,0,13,,,,,,,,,,,,,,,12,,,62,0
26399,note_on,,0,0,15,,,,,,,,,,,,,,,14,,,57,0
26399,note_on,,0,0,15,,,,,,,,,,,,,,,14,,,50,0
26399,note_on,,119,0,8,,,,,,,,,,,,,,,6,,,66,0
26399,note_on,,59,0,15,,,,,,,,,,,,,,,14,,,74,0
26399,note_on,,59,0,10,,,,,,,,,,,,,,,8,,,50,0
26399,note_on,,59,0,11,,,,,,,,,,,,,,,10,,,79,0
26399,note_on,,0,0,15,,,,,,,,,,,,,,,14,,,69,0
26399,note_on,,0,0,15,,,,,,,,,,,,,,,14,,,65,0
26399,note_on,,59,0,5,,,,,,,,,,,,,,,0,,,69,0
26399,note_on,,59,0,7,,,,,,,,,,,,,,,5,,,69,0
26400,note_on,,0,0,15,,,,,,,,,,,,,,,14,,,70,72
26400,note_on,,1,0,14,,,,,,,,,,,,,,,13,,,43,72
26400,note_on,,0,0,15,,,,,,,,,,,,,,,14,,,55,72
26400,note_on,,0,0,15,,,,,,,,,,,,,,,14,,,62,72
26400,note_on,,1,0,6,,,,,,,,,,,,,,,1,,,43,72
26400,note_on,,1,0,15,,,,,,,,,,,,,,,14,,,67,72
26400,note_on,,1,0,11,,,,,,,,,,,,,,,10,,,79,72
26400,note_on,,1,0,9,,,,,,,,,,,,,,,7,,,58,88
26400,note_on,,0,0,15,,,,,,,,,,,,,,,14,,,43,72
26400,note_on,,1,0,5,,,,,,,,,,,,,,,0,,,67,72
26400,note_on,,1,0,13,,,,,,,,,,,,,,,12,,,62,72
26400,note_on,,1,0,8,,,,,,,,,,,,,,,6,,,67,88
26400,note_on,,1,0,10,,,,,,,,,,,,,,,8,,,43,88
26400,note_on,,1,0,12,,,,,,,,,,,,,,,11,,,79,72
26400,note_on,,1,0,7,,,,,,,,,,,,,,,5,,,67,88
26459,note_on,,59,0,6,,,,,,,,,,,,,,,1,,,43,0
26459,note_on,,59,0,14,,,,,,,,,,,,,,,13,,,43,0
26459,note_on,,59,0,11,,,,,,,,,,,,,,,10,,,79,0
26459,note_on,,59,0,15,,,,,,,,,,,,,,,14,,,67,0
26459,note_on,,0,0,15,,,,,,,,,,,,,,,14,,,43,0
26459,note_on,,0,0,15,,,,,,,,,,,,,,,14,,,70,0
26459,note_on,,0,0,15,,,,,,,,,,,,,,,14,,,62,0
26460,note_on,,1,0,15,,,,,,,,,,,,,,,14,,,45,72
26460,note_on,,1,0,14,,,,,,,,,,,,,,,13,,,45,72
26460,note_on,,1,0,6,,,,,,,,,,,,,,,1,,,45,72
26460,note_on,,1,0,11,,,,,,,,,,,,,,,10,,,74,72
26460,note_on,,0,0,15,,,,,,,,,,,,,,,14,,,66,72
26460,note_on,,0,0,15,,,,,,,,,,,,,,,14,,,60,72
26460,note_on,,0,0,15,,,,,,,,,,,,,,,14,,,69,72
26519,note_on,,59,0,11,,,,,,,,,,,,,,,10,,,74,0
26519,note_on,,59,0,14,,,,,,,,,,,,,,,13,,,45,0
26519,note_on,,0,0,15,,,,,,,,,,,,,,,14,,,45,0
26519,note_on,,59,0,6,,,,,,,,,,,,,,,1,,,45,0
26519,note_on,,0,0,15,,,,,,,,,,,,,,,14,,,60,0
26519,note_on,,0,0,15,,,,,,,,,,,,,,,14,,,66,0
26519,note_on,,0,0,15,,,,,,,,,,,,,,,14,,,69,0
26519,note_on,,119,0,12,,,,,,,,,,,,,,,11,,,79,0
26519,note_on,,59,0,15,,,,,,,,,,,,,,,14,,,55,0
26520,note_on,,1,0,14,,,,,,,,,,,,,,,13,,,46,72
26520,note_on,,0,0,15,,,,,,,,,,,,,,,14,,,67,72
26520,note_on,,1,0,6,,,,,,,,,,,,,,,1,,,46,72
26520,note_on,,1,0,11,,,,,,,,,,,,,,,10,,,79,72
26520,note_on,,0,0,15,,,,,,,,,,,,,,,14,,,62,72
26520,note_on,,1,0,12,,,,,,,,,,,,,,,11,,,74,72
26520,note_on,,1,0,15,,,,,,,,,,,,,,,14,,,46,72
26520,note_on,,0,0,15,,,,,,,,,,,,,,,14,,,55,72
26579,note_on,,59,0,14,,,,,,,,,,,,,,,13,,,46,0
26579,note_on,,59,0,6,,,,,,,,,,,,,,,1,,,46,0
26579,note_on,,0,0,15,,,,,,,,,,,,,,,14,,,55,0
26579,note_on,,179,0,13,,,,,,,,,,,,,,,12,,,62,0
26579,note_on,,0,0,15,,,,,,,,,,,,,,,14,,,62,0
26579,note_on,,0,0,15,,,,,,,,,,,,,,,14,,,67,0
26579,note_on,,59,0,15,,,,,,,,,,,,,,,14,,,46,0
26579,note_on,,59,0,11,,,,,,,,,,,,,,,10,,,79,0
26580,note_on,,1,0,13,,,,,,,,,,,,,,,12,,,67,72
26580,note_on,,0,0,15,,,,,,,,,,,,,,,14,,,58,72
26580,note_on,,1,0,11,,,,,,,,,,,,,,,10,,,77,72
26580,note_on,,0,0,15,,,,,,,,,,,,,,,14,,,62,72
26580,note_on,,1,0,14,,,,,,,,,,,,,,,13,,,43,72
26580,note_on,,1,0,6,,,,,,,,,,,,,,,1,,,43,72
26580,note_on,,0,0,15,,,,,,,,,,,,,,,14,,,65,72
26580,note_on,,1,0,15,,,,,,,,,,,,,,,14,,,43,72
26639,note_on,,59,0,15,,,,,,,,,,,,,,,14,,,43,0
26639,note_on,,0,0,15,,,,,,,,,,,,,,,14,,,65,0
26639,note_on,,0,0,15,,,,,,,,,,,,,,,14,,,62,0
26639,note_on,,0,0,15,,,,,,,,,,,,,,,14,,,58,0
26639,note_on,,239,0,9,,,,,,,,,,,,,,,7,,,58,0
26639,end_of_track,,0,1,8,,,,,,,,,,,,,,,,,,,
26639,note_on,,59,0,14,,,,,,,,,,,,,,,13,,,43,0
26639,note_on,,59,0,13,,,,,,,,,,,,,,,12,,,67,0
26639,note_on,,239,0,7,,,,,,,,,,,,,,,5,,,67,0
26639,end_of_track,,0,1,7,,,,,,,,,,,,,,,,,,,
26639,note_on,,239,0,8,,,,,,,,,,,,,,,6,,,67,0
26639,end_of_track,,0,1,9,,,,,,,,,,,,,,,,,,,
26639,note_on,,239,0,10,,,,,,,,,,,,,,,8,,,43,0
26639,note_on,,119,0,12,,,,,,,,,,,,,,,11,,,74,0
26639,note_on,,59,0,11,,,,,,,,,,,,,,,10,,,77,0
26639,note_on,,239,0,5,,,,,,,,,,,,,,,0,,,67,0
26639,note_on,,59,0,6,,,,,,,,,,,,,,,1,,,43,0
26639,end_of_track,,0,1,5,,,,,,,,,,,,,,,,,,,
26639,end_of_track,,0,1,10,,,,,,,,,,,,,,,,,,,
26640,note_on,,0,0,15,,,,,,,,,,,,,,,14,,,60,72
26640,note_on,,0,0,15,,,,,,,,,,,,,,,14,,,63,72
26640,note_on,,1,0,15,,,,,,,,,,,,,,,14,,,48,72
26640,note_on,,1,0,14,,,,,,,,,,,,,,,13,,,48,72
26640,note_on,,1,0,13,,,,,,,,,,,,,,,12,,,67,72
26640,note_on,,0,0,15,,,,,,,,,,,,,,,14,,,55,72
26640,note_on,,1,0,12,,,,,,,,,,,,,,,11,,,72,72
26640,note_on,,1,0,11,,,,,,,,,,,,,,,10,,,75,72
26640,note_on,,1,0,6,,,,,,,,,,,,,,,1,,,48,72
26699,note_on,,59,0,11,,,,,,,,,,,,,,,10,,,75,0
26699,note_on,,59,0,14,,,,,,,,,,,,,,,13,,,48,0
26699,note_on,,59,0,15,,,,,,,,,,,,,,,14,,,48,0
26699,note_on,,59,0,12,,,,,,,,,,,,,,,11,,,72,0
26699,note_on,,0,0,15,,,,,,,,,,,,,,,14,,,60,0
26699,note_on,,59,0,6,,,,,,,,,,,,,,,1,,,48,0
26699,note_on,,0,0,15,,,,,,,,,,,,,,,14,,,63,0
26700,note_on,,1,0,11,,,,,,,,,,,,,,,10,,,74,72
26700,note_on,,1,0,6,,,,,,,,,,,,,,,1,,,50,72
26700,note_on,,1,0,12,,,,,,,,,,,,,,,11,,,70,72
26700,note_on,,1,0,14,,,,,,,,,,,,,,,13,,,50,72
26700,note_on,,0,0,15,,,,,,,,,,,,,,,14,,,62,72
26700,note_on,,0,0,15,,,,,,,,,,,,,,,14,,,58,72
26700,note_on,,1,0,15,,,,,,,,,,,,,,,14,,,50,72
26759,note_on,,0,0,15,,,,,,,,,,,,,,,14,,,50,0
26759,note_on,,119,0,13,,,,,,,,,,,,,,,12,,,67,0
26759,note_on,,0,0,15,,,,,,,,,,,,,,,14,,,58,0
26759,note_on,,59,0,15,,,,,,,,,,,,,,,14,,,55,0
26759,note_on,,59,0,12,,,,,,,,,,,,,,,11,,,70,0
26759,note_on,,59,0,6,,,,,,,,,,,,,,,1,,,50,0
26759,note_on,,59,0,11,,,,,,,,,,,,,,,10,,,74,0
26759,note_on,,59,0,14,,,,,,,,,,,,,,,13,,,50,0
26759,note_on,,0,0,15,,,,,,,,,,,,,,,14,,,62,0
26760,note_on,,1,0,13,,,,,,,,,,,,,,,12,,,60,72
26760,note_on,,1,0,12,,,,,,,,,,,,,,,11,,,69,72
26760,note_on,,1,0,14,,,,,,,,,,,,,,,13,,,51,72
26760,note_on,,1,0,11,,,,,,,,,,,,,,,10,,,72,72
26760,note_on,,1,0,6,,,,,,,,,,,,,,,1,,,51,72
26760,note_on,,1,0,15,,,,,,,,,,,,,,,14,,,51,72
26760,note_on,,0,0,15,,,,,,,,,,,,,,,14,,,60,72
26760,note_on,,0,0,15,,,,,,,,,,,,,,,14,,,57,72
26760,note_on,,0,0,15,,,,,,,,,,,,,,,14,,,55,72
26819,note_on,,59,0,12,,,,,,,,,,,,,,,11,,,69,0
26820,note_on,,1,0,12,,,,,,,,,,,,,,,11,,,67,72
26879,note_on,,119,0,15,,,,,,,,,,,,,,,14,,,51,0
26879,note_on,,119,0,6,,,,,,,,,,,,,,,1,,,51,0
26879,note_on,,0,0,15,,,,,,,,,,,,,,,14,,,55,0
26879,note_on,,59,0,12,,,,,,,,,,,,,,,11,,,67,0
26879,note_on,,0,0,15,,,,,,,,,,,,,,,14,,,60,0
26879,note_on,,119,0,14,,,,,,,,,,,,,,,13,,,51,0
26879,note_on,,119,0,13,,,,,,,,,,,,,,,12,,,60,0
26879,note_on,,0,0,15,,,,,,,,,,,,,,,14,,,57,0
26880,note_on,,1,0,15,,,,,,,,,,,,,,,14,,,50,72
26880,note_on,,0,0,15,,,,,,,,,,,,,,,14,,,60,72
26880,note_on,,0,0,15,,,,,,,,,,,,,,,14,,,57,72
26880,note_on,,0,0,15,,,,,,,,,,,,,,,14,,,66,72
26880,note_on,,1,0,12,,,,,,,,,,,,,,,11,,,66,72
26880,note_on,,1,0,6,,,,,,,,,,,,,,,1,,,50,72
26880,note_on,,1,0,14,,,,,,,,,,,,,,,13,,,50,72
26880,note_on,,1,0,13,,,,,,,,,,,,,,,12,,,62,72
26939,note_on,,179,0,11,,,,,,,,,,,,,,,10,,,72,0
26940,note_on,,1,0,11,,,,,,,,,,,,,,,10,,,74,72
26999,note_on,,119,0,12,,,,,,,,,,,,,,,11,,,66,0
26999,note_on,,0,0,15,,,,,,,,,,,,,,,14,,,60,0
26999,note_on,,0,0,15,,,,,,,,,,,,,,,14,,,57,0
26999,note_on,,119,0,13,,,,,,,,,,,,,,,12,,,62,0
26999,note_on,,119,0,14,,,,,,,,,,,,,,,13,,,50,0
26999,note_on,,0,0,15,,,,,,,,,,,,,,,14,,,66,0
26999,note_on,,59,0,11,,,,,,,,,,,,,,,10,,,74,0
26999,note_on,,119,0,6,,,,,,,,,,,,,,,1,,,50,0
26999,note_on,,119,0,15,,,,,,,,,,,,,,,14,,,50,0
27000,note_on,,1,0,13,,,,,,,,,,,,,,,12,,,62,72
27000,note_on,,1,0,6,,,,,,,,,,,,,,,1,,,43,72
27000,note_on,,1,0,14,,,,,,,,,,,,,,,13,,,43,72
27000,note_on,,1,0,11,,,,,,,,,,,,,,,10,,,70,72
27000,note_on,,0,0,15,,,,,,,,,,,,,,,14,,,50,72
27000,note_on,,0,0,15,,,,,,,,,,,,,,,14,,,70,72
27000,note_on,,0,0,15,,,,,,,,,,,,,,,14,,,67,72
27000,note_on,,1,0,15,,,,,,,,,,,,,,,14,,,43,72
27000,note_on,,0,0,15,,,,,,,,,,,,,,,14,,,62,72
27000,note_on,,1,0,12,,,,,,,,,,,,,,,11,,,67,72
27059,note_on,,59,0,11,,,,,,,,,,,,,,,10,,,70,0
27060,note_on,,1,0,11,,,,,,,,,,,,,,,10,,,69,72
27119,note_on,,0,0,15,,,,,,,,,,,,,,,14,,,50,0
27119,note_on,,0,0,15,,,,,,,,,,,,,,,14,,,62,0
27119,note_on,,119,0,15,,,,,,,,,,,,,,,14,,,43,0
27119,note_on,,0,0,15,,,,,,,,,,,,,,,14,,,67,0
27119,note_on,,119,0,14,,,,,,,,,,,,,,,13,,,43,0
27119,note_on,,59,0,11,,,,,,,,,,,,,,,10,,,69,0
27119,note_on,,119,0,6,,,,,,,,,,,,,,,1,,,43,0
27119,note_on,,119,0,13,,,,,,,,,,,,,,,12,,,62,0
27119,note_on,,0,0,15,,,,,,,,,,,,,,,14,,,70,0
27120,note_on,,0,0,15,,,,,,,,,,,,,,,14,,,69,72
27120,note_on,,1,0,15,,,,,,,,,,,,,,,14,,,50,72
27120,note_on,,0,0,15,,,,,,,,,,,,,,,14,,,67,72
27120,note_on,,1,0,14,,,,,,,,,,,,,,,13,,,50,72
27120,note_on,,0,0,15,,,,,,,,,,,,,,,14,,,57,72
27120,note_on,,1,0,13,,,,,,,,,,,,,,,12,,,62,72
27120,note_on,,1,0,6,,,,,,,,,,,,,,,1,,,50,72
27120,note_on,,1,0,11,,,,,,,,,,,,,,,10,,,69,72
27134,note_on,,14,0,11,,,,,,,,,,,,,,,10,,,69,0
27135,note_on,,1,0,11,,,,,,,,,,,,,,,10,,,70,72
27149,note_on,,14,0,11,,,,,,,,,,,,,,,10,,,70,0
27150,note_on,,1,0,11,,,,,,,,,,,,,,,10,,,69,72
27164,note_on,,14,0,11,,,,,,,,,,,,,,,10,,,69,0
27165,note_on,,1,0,11,,,,,,,,,,,,,,,10,,,70,72
27179,note_on,,14,0,11,,,,,,,,,,,,,,,10,,,70,0
27180,note_on,,1,0,11,,,,,,,,,,,,,,,10,,,69,72
27194,note_on,,14,0,11,,,,,,,,,,,,,,,10,,,69,0
27195,note_on,,1,0,11,,,,,,,,,,,,,,,10,,,70,72
27209,note_on,,14,0,11,,,,,,,,,,,,,,,10,,,70,0
27210,note_on,,1,0,11,,,,,,,,,,,,,,,10,,,69,72
27224,note_on,,14,0,11,,,,,,,,,,,,,,,10,,,69,0
27225,note_on,,1,0,11,,,,,,,,,,,,,,,10,,,70,72
27239,note_on,,14,0,11,,,,,,,,,,,,,,,10,,,70,0
27239,note_on,,119,0,14,,,,,,,,,,,,,,,13,,,50,0
27239,note_on,,119,0,13,,,,,,,,,,,,,,,12,,,62,0
27239,note_on,,239,0,12,,,,,,,,,,,,,,,11,,,67,0
27239,note_on,,119,0,15,,,,,,,,,,,,,,,14,,,50,0
27239,note_on,,0,0,15,,,,,,,,,,,,,,,14,,,67,0
27239,note_on,,0,0,15,,,,,,,,,,,,,,,14,,,57,0
27239,note_on,,119,0,6,,,,,,,,,,,,,,,1,,,50,0
27240,note_on,,1,0,12,,,,,,,,,,,,,,,11,,,66,72
27240,note_on,,1,0,6,,,,,,,,,,,,,,,1,,,38,72
27240,note_on,,0,0,15,,,,,,,,,,,,,,,14,,,66,72
27240,note_on,,1,0,13,,,,,,,,,,,,,,,12,,,57,72
27240,note_on,,0,0,15,,,,,,,,,,,,,,,14,,,50,72
27240,note_on,,1,0,15,,,,,,,,,,,,,,,14,,,38,72
27240,note_on,,1,0,11,,,,,,,,,,,,,,,10,,,69,72
27240,note_on,,0,0,15,,,,,,,,,,,,,,,14,,,62,72
27240,note_on,,1,0,14,,,,,,,,,,,,,,,13,,,38,72
27254,note_on,,14,0,11,,,,,,,,,,,,,,,10,,,69,0
27255,note_on,,1,0,11,,,,,,,,,,,,,,,10,,,70,72
27269,note_on,,14,0,11,,,,,,,,,,,,,,,10,,,70,0
27270,note_on,,1,0,11,,,,,,,,,,,,,,,10,,,67,72
27284,note_on,,14,0,11,,,,,,,,,,,,,,,10,,,67,0
27285,note_on,,1,0,11,,,,,,,,,,,,,,,10,,,69,72
27299,note_on,,14,0,11,,,,,,,,,,,,,,,10,,,69,0
27300,note_on,,1,0,11,,,,,,,,,,,,,,,10,,,67,72
27359,note_on,,119,0,15,,,,,,,,,,,,,,,14,,,69,0
27359,note_on,,119,0,6,,,,,,,,,,,,,,,1,,,38,0
27359,note_on,,119,0,14,,,,,,,,,,,,,,,13,,,38,0
27359,note_on,,119,0,13,,,,,,,,,,,,,,,12,,,57,0
27359,note_on,,0,0,15,,,,,,,,,,,,,,,14,,,50,0
27359,note_on,,119,0,12,,,,,,,,,,,,,,,11,,,66,0
27359,note_on,,0,0,15,,,,,,,,,,,,,,,14,,,38,0
27359,note_on,,59,0,11,,,,,,,,,,,,,,,10,,,67,0
27359,note_on,,0,0,15,,,,,,,,,,,,,,,14,,,62,0
27359,note_on,,0,0,15,,,,,,,,,,,,,,,14,,,66,0
27360,note_on,,1,0,12,,,,,,,,,,,,,,,11,,,67,72
27360,note_on,,1,0,6,,,,,,,,,,,,,,,1,,,43,72
27360,note_on,,1,0,15,,,,,,,,,,,,,,,14,,,43,72
27360,note_on,,1,0,11,,,,,,,,,,,,,,,10,,,67,72
27360,note_on,,1,0,14,,,,,,,,,,,,,,,13,,,43,72
27360,note_on,,0,0,15,,,,,,,,,,,,,,,14,,,58,72
27360,note_on,,1,0,13,,,,,,,,,,,,,,,12,,,58,72
27360,note_on,,0,0,15,,,,,,,,,,,,,,,14,,,67,72
27360,note_on,,0,0,15,,,,,,,,,,,,,,,14,,,50,72
27360,note_on,,0,0,15,,,,,,,,,,,,,,,14,,,62,72
27839,note_on,,479,0,15,,,,,,,,,,,,,,,14,,,43,0
27839,note_on,,0,0,15,,,,,,,,,,,,,,,14,,,67,0
27839,note_on,,0,0,15,,,,,,,,,,,,,,,14,,,62,0
27839,note_on,,0,0,15,,,,,,,,,,,,,,,14,,,58,0
27839,end_of_track,,0,1,15,,,,,,,,,,,,,,,,,,,
27839,note_on,,479,0,11,,,,,,,,,,,,,,,10,,,67,0
27839,end_of_track,,0,1,11,,,,,,,,,,,,,,,,,,,
27839,note_on,,0,0,15,,,,,,,,,,,,,,,14,,,50,0
27839,note_on,,479,0,12,,,,,,,,,,,,,,,11,,,67,0
27839,end_of_track,,0,1,12,,,,,,,,,,,,,,,,,,,
27839,note_on,,479,0,13,,,,,,,,,,,,,,,12,,,58,0
27839,end_of_track,,0,1,13,,,,,,,,,,,,,,,,,,,
27839,note_on,,479,0,14,,,,,,,,,,,,,,,13,,,43,0
27839,end_of_track,,0,1,14,,,,,,,,,,,,,,,,,,,
27839,end_of_track,,0,1,6,,,,,,,,,,,,,,,,,,,
27839,note_on,,479,0,6,,,,,,,,,,,,,,,1,,,43,0
28320,set_tempo,,28320,1,0,,,,,,,,,500000,,,,,,,,,,
28320,end_of_track,,0,1,0,,,,,,,,,,,,,,,,,,,
