tick,type,data,time,meta,track,frame_rate,hours,minutes,seconds,frames,sub_frames,port,key,tempo,numerator,denominator,clocks_per_click,notated_32nd_notes_per_beat,control,value,channel,program,note,velocity
0,sequencer_specific,"(0, 0, 91, 35, 1, 0, 5, 4, 35, 0)",0,1,0,,,,,,,,,,,,,,,,,,,
0,track_name,,0,1,13,,,,,,,,,,,,,,,,,,,
0,midi_port,,0,1,13,,,,,,,0,,,,,,,,,,,,
0,control_change,,0,0,13,,,,,,,,,,,,,,11,127,12,,,
0,control_change,,0,0,13,,,,,,,,,,,,,,10,80,12,,,
0,control_change,,0,0,13,,,,,,,,,,,,,,7,96,12,,,
0,program_change,,0,0,13,,,,,,,,,,,,,,,,12,48,,
0,midi_port,,0,1,8,,,,,,,0,,,,,,,,,,,,
0,note_on,,0,0,6,,,,,,,,,,,,,,,,2,,50,72
0,program_change,,0,0,6,,,,,,,,,,,,,,,,2,70,,
0,control_change,,0,0,6,,,,,,,,,,,,,,7,80,2,,,
0,control_change,,0,0,6,,,,,,,,,,,,,,10,65,2,,,
0,control_change,,0,0,6,,,,,,,,,,,,,,11,127,2,,,
0,midi_port,,0,1,6,,,,,,,0,,,,,,,,,,,,
0,track_name,,0,1,6,,,,,,,,,,,,,,,,,,,
0,program_change,,0,0,12,,,,,,,,,,,,,,,,11,48,,
0,track_name,,0,1,14,,,,,,,,,,,,,,,,,,,
0,control_change,,0,0,14,,,,,,,,,,,,,,11,127,13,,,
0,control_change,,0,0,14,,,,,,,,,,,,,,10,96,13,,,
0,control_change,,0,0,14,,,,,,,,,,,,,,7,96,13,,,
0,program_change,,0,0,14,,,,,,,,,,,,,,,,13,48,,
0,note_on,,0,0,14,,,,,,,,,,,,,,,,13,,50,72
0,track_name,,0,1,15,,,,,,,,,,,,,,,,,,,
0,midi_port,,0,1,15,,,,,,,0,,,,,,,,,,,,
0,control_change,,0,0,15,,,,,,,,,,,,,,11,127,15,,,
0,control_change,,0,0,15,,,,,,,,,,,,,,10,90,15,,,
0,control_change,,0,0,15,,,,,,,,,,,,,,7,96,15,,,
0,program_change,,0,0,15,,,,,,,,,,,,,,,,15,6,,
0,note_on,,0,0,15,,,,,,,,,,,,,,,,15,,50,72
0,note_on,,0,0,15,,,,,,,,,,,,,,,,15,,74,72
0,note_on,,0,0,15,,,,,,,,,,,,,,,,15,,69,72
0,midi_port,,0,1,14,,,,,,,0,,,,,,,,,,,,
0,note_on,,0,0,15,,,,,,,,,,,,,,,,15,,66,72
0,control_change,,0,0,12,,,,,,,,,,,,,,7,96,11,,,
0,control_change,,0,0,12,,,,,,,,,,,,,,11,127,11,,,
0,control_change,,0,0,8,,,,,,,,,,,,,,11,127,6,,,
0,control_change,,0,0,8,,,,,,,,,,,,,,7,96,6,,,
0,control_change,,0,0,8,,,,,,,,,,,,,,10,96,6,,,
0,program_change,,0,0,8,,,,,,,,,,,,,,,,6,73,,
0,program_change,,0,0,7,,,,,,,,,,,,,,,,5,73,,
0,control_change,,0,0,7,,,,,,,,,,,,,,7,96,5,,,
0,control_change,,0,0,7,,,,,,,,,,,,,,10,32,5,,,
0,control_change,,0,0,7,,,,,,,,,,,,,,11,127,5,,,
0,midi_port,,0,1,7,,,,,,,0,,,,,,,,,,,,
0,track_name,,0,1,7,,,,,,,,,,,,,,,,,,,
0,track_name,,0,1,9,,,,,,,,,,,,,,,,,,,
0,midi_port,,0,1,9,,,,,,,0,,,,,,,,,,,,
0,control_change,,0,0,9,,,,,,,,,,,,,,11,127,7,,,
0,control_change,,0,0,9,,,,,,,,,,,,,,10,48,7,,,
0,control_change,,0,0,12,,,,,,,,,,,,,,10,24,11,,,
0,control_change,,0,0,9,,,,,,,,,,,,,,7,96,7,,,
0,track_name,,0,1,10,,,,,,,,,,,,,,,,,,,
0,midi_port,,0,1,10,,,,,,,0,,,,,,,,,,,,
0,control_change,,0,0,10,,,,,,,,,,,,,,11,127,8,,,
0,control_change,,0,0,10,,,,,,,,,,,,,,7,96,8,,,
0,control_change,,0,0,10,,,,,,,,,,,,,,10,80,8,,,
0,program_change,,0,0,10,,,,,,,,,,,,,,,,8,60,,
0,track_name,,0,1,11,,,,,,,,,,,,,,,,,,,
0,midi_port,,0,1,11,,,,,,,0,,,,,,,,,,,,
0,control_change,,0,0,11,,,,,,,,,,,,,,11,127,10,,,
0,control_change,,0,0,11,,,,,,,,,,,,,,10,48,10,,,
0,control_change,,0,0,11,,,,,,,,,,,,,,7,96,10,,,
0,program_change,,0,0,11,,,,,,,,,,,,,,,,10,48,,
0,track_name,,0,1,12,,,,,,,,,,,,,,,,,,,
0,midi_port,,0,1,12,,,,,,,0,,,,,,,,,,,,
0,program_change,,0,0,9,,,,,,,,,,,,,,,,7,70,,
0,note_on,,0,0,15,,,,,,,,,,,,,,,,15,,62,72
0,track_name,,0,1,8,,,,,,,,,,,,,,,,,,,
0,control_change,,0,0,5,,,,,,,,,,,,,,10,70,1,,,
0,program_change,,0,0,5,,,,,,,,,,,,,,,,1,68,,
0,control_change,,0,0,5,,,,,,,,,,,,,,7,72,1,,,
0,control_change,,0,0,5,,,,,,,,,,,,,,11,127,1,,,
0,midi_port,,0,1,5,,,,,,,0,,,,,,,,,,,,
0,end_of_track,,0,1,4,,,,,,,,,,,,,,,,,,,
0,midi_port,,0,1,4,,,,,,,0,,,,,,,,,,,,
0,end_of_track,,0,1,3,,,,,,,,,,,,,,,,,,,
0,midi_port,,0,1,3,,,,,,,0,,,,,,,,,,,,
0,track_name,,0,1,3,,,,,,,,,,,,,,,,,,,
0,end_of_track,,0,1,2,,,,,,,,,,,,,,,,,,,
0,midi_port,,0,1,2,,,,,,,0,,,,,,,,,,,,
0,track_name,,0,1,2,,,,,,,,,,,,,,,,,,,
0,end_of_track,,0,1,1,,,,,,,,,,,,,,,,,,,
0,midi_port,,0,1,1,,,,,,,0,,,,,,,,,,,,
0,track_name,,0,1,5,,,,,,,,,,,,,,,,,,,
0,instrument_name,,0,1,0,,,,,,,,,,,,,,,,,,,
0,smpte_offset,,0,1,0,25,32,0,3,0,0,,,,,,,,,,,,,
0,track_name,,0,1,0,,,,,,,,,,,,,,,,,,,
0,track_name,,0,1,1,,,,,,,,,,,,,,,,,,,
0,midi_port,,0,1,0,,,,,,,0,,,,,,,,,,,,
0,set_tempo,,0,1,0,,,,,,,,,545454,,,,,,,,,,
0,key_signature,,0,1,0,,,,,,,,D,,,,,,,,,,,
0,time_signature,,0,1,0,,,,,,,,,,4,4,24,8,,,,,,
119,note_on,,0,0,15,,,,,,,,,,,,,,,,15,,74,0
119,note_on,,0,0,15,,,,,,,,,,,,,,,,15,,62,0
119,note_on,,0,0,15,,,,,,,,,,,,,,,,15,,66,0
119,note_on,,119,0,14,,,,,,,,,,,,,,,,13,,50,0
119,note_on,,119,0,6,,,,,,,,,,,,,,,,2,,50,0
119,note_on,,119,0,15,,,,,,,,,,,,,,,,15,,50,0
119,note_on,,0,0,15,,,,,,,,,,,,,,,,15,,69,0
180,note_on,,61,0,14,,,,,,,,,,,,,,,,13,,50,72
180,note_on,,180,0,5,,,,,,,,,,,,,,,,1,,69,72
180,note_on,,180,0,11,,,,,,,,,,,,,,,,10,,81,72
180,note_on,,61,0,6,,,,,,,,,,,,,,,,2,,50,72
180,note_on,,180,0,10,,,,,,,,,,,,,,,,8,,50,72
180,note_on,,0,0,15,,,,,,,,,,,,,,,,15,,57,72
180,note_on,,0,0,15,,,,,,,,,,,,,,,,15,,62,72
180,note_on,,180,0,12,,,,,,,,,,,,,,,,11,,78,72
180,note_on,,180,0,7,,,,,,,,,,,,,,,,5,,69,72
180,note_on,,0,0,15,,,,,,,,,,,,,,,,15,,66,72
180,note_on,,61,0,15,,,,,,,,,,,,,,,,15,,50,72
180,note_on,,180,0,9,,,,,,,,,,,,,,,,7,,62,72
180,note_on,,180,0,13,,,,,,,,,,,,,,,,12,,69,72
180,note_on,,180,0,8,,,,,,,,,,,,,,,,6,,66,72
239,note_on,,59,0,14,,,,,,,,,,,,,,,,13,,50,0
239,note_on,,59,0,11,,,,,,,,,,,,,,,,10,,81,0
239,note_on,,59,0,5,,,,,,,,,,,,,,,,1,,69,0
239,note_on,,59,0,9,,,,,,,,,,,,,,,,7,,62,0
239,note_on,,0,0,15,,,,,,,,,,,,,,,,15,,62,0
239,note_on,,59,0,12,,,,,,,,,,,,,,,,11,,78,0
239,note_on,,0,0,15,,,,,,,,,,,,,,,,15,,66,0
239,note_on,,59,0,15,,,,,,,,,,,,,,,,15,,50,0
239,note_on,,0,0,15,,,,,,,,,,,,,,,,15,,57,0
239,note_on,,59,0,7,,,,,,,,,,,,,,,,5,,69,0
239,note_on,,59,0,6,,,,,,,,,,,,,,,,2,,50,0
239,note_on,,59,0,10,,,,,,,,,,,,,,,,8,,50,0
239,note_on,,59,0,8,,,,,,,,,,,,,,,,6,,66,0
239,note_on,,59,0,13,,,,,,,,,,,,,,,,12,,69,0
240,note_on,,0,0,15,,,,,,,,,,,,,,,,15,,69,72
240,note_on,,1,0,5,,,,,,,,,,,,,,,,1,,74,72
240,note_on,,1,0,15,,,,,,,,,,,,,,,,15,,54,72
240,note_on,,1,0,12,,,,,,,,,,,,,,,,11,,81,72
240,note_on,,1,0,14,,,,,,,,,,,,,,,,13,,54,72
240,note_on,,1,0,7,,,,,,,,,,,,,,,,5,,74,72
240,note_on,,0,0,15,,,,,,,,,,,,,,,,15,,62,72
240,note_on,,1,0,11,,,,,,,,,,,,,,,,10,,86,72
240,note_on,,0,0,15,,,,,,,,,,,,,,,,15,,57,72
240,note_on,,1,0,8,,,,,,,,,,,,,,,,6,,69,72
240,note_on,,1,0,10,,,,,,,,,,,,,,,,8,,54,72
240,note_on,,1,0,13,,,,,,,,,,,,,,,,12,,69,72
240,note_on,,1,0,9,,,,,,,,,,,,,,,,7,,62,72
240,note_on,,1,0,6,,,,,,,,,,,,,,,,2,,54,72
359,note_on,,119,0,15,,,,,,,,,,,,,,,,15,,54,0
359,note_on,,0,0,15,,,,,,,,,,,,,,,,15,,69,0
359,note_on,,0,0,15,,,,,,,,,,,,,,,,15,,62,0
359,note_on,,119,0,12,,,,,,,,,,,,,,,,11,,81,0
359,note_on,,0,0,15,,,,,,,,,,,,,,,,15,,57,0
359,note_on,,119,0,13,,,,,,,,,,,,,,,,12,,69,0
359,note_on,,119,0,6,,,,,,,,,,,,,,,,2,,54,0
359,note_on,,119,0,8,,,,,,,,,,,,,,,,6,,69,0
359,note_on,,119,0,11,,,,,,,,,,,,,,,,10,,86,0
359,note_on,,119,0,5,,,,,,,,,,,,,,,,1,,74,0
359,note_on,,119,0,9,,,,,,,,,,,,,,,,7,,62,0
359,note_on,,119,0,10,,,,,,,,,,,,,,,,8,,54,0
359,note_on,,119,0,7,,,,,,,,,,,,,,,,5,,74,0
359,note_on,,119,0,14,,,,,,,,,,,,,,,,13,,54,0
360,note_on,,1,0,15,,,,,,,,,,,,,,,,15,,69,72
360,note_on,,1,0,6,,,,,,,,,,,,,,,,2,,50,72
360,note_on,,1,0,10,,,,,,,,,,,,,,,,8,,50,72
360,note_on,,0,0,15,,,,,,,,,,,,,,,,15,,74,72
360,note_on,,1,0,14,,,,,,,,,,,,,,,,13,,50,72
360,note_on,,0,0,15,,,,,,,,,,,,,,,,15,,78,72
360,note_on,,1,0,9,,,,,,,,,,,,,,,,7,,62,72
360,note_on,,1,0,11,,,,,,,,,,,,,,,,10,,81,72
360,note_on,,1,0,7,,,,,,,,,,,,,,,,5,,69,72
360,note_on,,1,0,12,,,,,,,,,,,,,,,,11,,78,72
360,note_on,,1,0,8,,,,,,,,,,,,,,,,6,,66,72
360,note_on,,1,0,13,,,,,,,,,,,,,,,,12,,74,72
360,note_on,,0,0,15,,,,,,,,,,,,,,,,15,,50,72
360,note_on,,1,0,5,,,,,,,,,,,,,,,,1,,69,72
360,note_on,,0,0,15,,,,,,,,,,,,,,,,15,,57,72
479,note_on,,0,0,15,,,,,,,,,,,,,,,,15,,74,0
479,note_on,,119,0,13,,,,,,,,,,,,,,,,12,,74,0
479,note_on,,119,0,6,,,,,,,,,,,,,,,,2,,50,0
479,note_on,,0,0,15,,,,,,,,,,,,,,,,15,,57,0
479,note_on,,0,0,15,,,,,,,,,,,,,,,,15,,50,0
479,note_on,,119,0,15,,,,,,,,,,,,,,,,15,,69,0
479,note_on,,0,0,15,,,,,,,,,,,,,,,,15,,78,0
479,note_on,,119,0,14,,,,,,,,,,,,,,,,13,,50,0
479,note_on,,119,0,7,,,,,,,,,,,,,,,,5,,69,0
479,note_on,,119,0,8,,,,,,,,,,,,,,,,6,,66,0
479,note_on,,119,0,12,,,,,,,,,,,,,,,,11,,78,0
479,note_on,,119,0,9,,,,,,,,,,,,,,,,7,,62,0
479,note_on,,119,0,5,,,,,,,,,,,,,,,,1,,69,0
479,note_on,,119,0,10,,,,,,,,,,,,,,,,8,,50,0
479,note_on,,119,0,11,,,,,,,,,,,,,,,,10,,81,0
480,note_on,,1,0,6,,,,,,,,,,,,,,,,2,,55,72
480,note_on,,0,0,15,,,,,,,,,,,,,,,,15,,67,72
480,note_on,,0,0,15,,,,,,,,,,,,,,,,15,,74,72
480,note_on,,0,0,15,,,,,,,,,,,,,,,,15,,59,72
480,note_on,,0,0,15,,,,,,,,,,,,,,,,15,,55,72
480,note_on,,1,0,15,,,,,,,,,,,,,,,,15,,71,72
480,note_on,,1,0,9,,,,,,,,,,,,,,,,7,,62,72
480,note_on,,1,0,14,,,,,,,,,,,,,,,,13,,55,72
480,note_on,,1,0,10,,,,,,,,,,,,,,,,8,,55,72
480,note_on,,1,0,11,,,,,,,,,,,,,,,,10,,83,72
480,note_on,,1,0,5,,,,,,,,,,,,,,,,1,,71,72
480,note_on,,1,0,7,,,,,,,,,,,,,,,,5,,71,72
480,note_on,,1,0,8,,,,,,,,,,,,,,,,6,,71,72
480,note_on,,1,0,13,,,,,,,,,,,,,,,,12,,71,72
480,note_on,,1,0,12,,,,,,,,,,,,,,,,11,,74,72
599,note_on,,0,0,15,,,,,,,,,,,,,,,,15,,59,0
599,note_on,,0,0,15,,,,,,,,,,,,,,,,15,,55,0
599,note_on,,119,0,15,,,,,,,,,,,,,,,,15,,71,0
599,note_on,,119,0,8,,,,,,,,,,,,,,,,6,,71,0
599,note_on,,119,0,12,,,,,,,,,,,,,,,,11,,74,0
599,note_on,,119,0,11,,,,,,,,,,,,,,,,10,,83,0
599,note_on,,119,0,14,,,,,,,,,,,,,,,,13,,55,0
599,note_on,,119,0,9,,,,,,,,,,,,,,,,7,,62,0
599,note_on,,119,0,13,,,,,,,,,,,,,,,,12,,71,0
599,note_on,,119,0,7,,,,,,,,,,,,,,,,5,,71,0
599,note_on,,119,0,10,,,,,,,,,,,,,,,,8,,55,0
599,note_on,,0,0,15,,,,,,,,,,,,,,,,15,,67,0
599,note_on,,119,0,6,,,,,,,,,,,,,,,,2,,55,0
599,note_on,,119,0,5,,,,,,,,,,,,,,,,1,,71,0
599,note_on,,0,0,15,,,,,,,,,,,,,,,,15,,74,0
600,note_on,,1,0,5,,,,,,,,,,,,,,,,1,,73,72
600,note_on,,0,0,15,,,,,,,,,,,,,,,,15,,73,72
600,note_on,,1,0,14,,,,,,,,,,,,,,,,13,,57,72
600,note_on,,1,0,6,,,,,,,,,,,,,,,,2,,57,72
600,note_on,,1,0,13,,,,,,,,,,,,,,,,12,,64,72
600,note_on,,1,0,9,,,,,,,,,,,,,,,,7,,57,72
600,note_on,,1,0,8,,,,,,,,,,,,,,,,6,,69,72
600,note_on,,1,0,15,,,,,,,,,,,,,,,,15,,57,72
600,note_on,,1,0,12,,,,,,,,,,,,,,,,11,,73,72
600,note_on,,1,0,10,,,,,,,,,,,,,,,,8,,57,72
600,note_on,,1,0,11,,,,,,,,,,,,,,,,10,,81,72
600,note_on,,0,0,15,,,,,,,,,,,,,,,,15,,61,72
600,note_on,,0,0,15,,,,,,,,,,,,,,,,15,,69,72
600,note_on,,0,0,15,,,,,,,,,,,,,,,,15,,64,72
600,note_on,,1,0,7,,,,,,,,,,,,,,,,5,,73,72
659,note_on,,59,0,11,,,,,,,,,,,,,,,,10,,81,0
659,note_on,,59,0,12,,,,,,,,,,,,,,,,11,,73,0
659,note_on,,59,0,7,,,,,,,,,,,,,,,,5,,73,0
659,note_on,,59,0,14,,,,,,,,,,,,,,,,13,,57,0
659,note_on,,59,0,6,,,,,,,,,,,,,,,,2,,57,0
659,note_on,,59,0,9,,,,,,,,,,,,,,,,7,,57,0
659,note_on,,59,0,13,,,,,,,,,,,,,,,,12,,64,0
659,note_on,,59,0,8,,,,,,,,,,,,,,,,6,,69,0
659,note_on,,0,0,15,,,,,,,,,,,,,,,,15,,61,0
659,note_on,,0,0,15,,,,,,,,,,,,,,,,15,,69,0
659,note_on,,59,0,15,,,,,,,,,,,,,,,,15,,57,0
659,note_on,,59,0,5,,,,,,,,,,,,,,,,1,,73,0
659,note_on,,59,0,10,,,,,,,,,,,,,,,,8,,57,0
660,note_on,,1,0,9,,,,,,,,,,,,,,,,7,,57,72
660,note_on,,1,0,8,,,,,,,,,,,,,,,,6,,67,72
660,note_on,,1,0,7,,,,,,,,,,,,,,,,5,,73,72
660,note_on,,1,0,11,,,,,,,,,,,,,,,,10,,79,72
660,note_on,,1,0,14,,,,,,,,,,,,,,,,13,,57,72
660,note_on,,1,0,5,,,,,,,,,,,,,,,,1,,73,72
660,note_on,,1,0,6,,,,,,,,,,,,,,,,2,,57,72
660,note_on,,1,0,13,,,,,,,,,,,,,,,,12,,64,72
660,note_on,,0,0,15,,,,,,,,,,,,,,,,15,,61,72
660,note_on,,0,0,15,,,,,,,,,,,,,,,,15,,67,72
660,note_on,,1,0,15,,,,,,,,,,,,,,,,15,,57,72
660,note_on,,1,0,10,,,,,,,,,,,,,,,,8,,57,72
660,note_on,,1,0,12,,,,,,,,,,,,,,,,11,,73,72
719,note_on,,59,0,6,,,,,,,,,,,,,,,,2,,57,0
719,note_on,,59,0,5,,,,,,,,,,,,,,,,1,,73,0
719,note_on,,59,0,7,,,,,,,,,,,,,,,,5,,73,0
719,note_on,,59,0,12,,,,,,,,,,,,,,,,11,,73,0
719,note_on,,59,0,11,,,,,,,,,,,,,,,,10,,79,0
719,note_on,,59,0,10,,,,,,,,,,,,,,,,8,,57,0
719,note_on,,59,0,9,,,,,,,,,,,,,,,,7,,57,0
719,note_on,,59,0,13,,,,,,,,,,,,,,,,12,,64,0
719,note_on,,59,0,14,,,,,,,,,,,,,,,,13,,57,0
719,note_on,,59,0,8,,,,,,,,,,,,,,,,6,,67,0
719,note_on,,0,0,15,,,,,,,,,,,,,,,,15,,64,0
719,note_on,,0,0,15,,,,,,,,,,,,,,,,15,,61,0
719,note_on,,0,0,15,,,,,,,,,,,,,,,,15,,67,0
719,note_on,,0,0,15,,,,,,,,,,,,,,,,15,,57,0
719,note_on,,59,0,15,,,,,,,,,,,,,,,,15,,73,0
720,note_on,,1,0,9,,,,,,,,,,,,,,,,7,,62,72
720,note_on,,1,0,13,,,,,,,,,,,,,,,,12,,62,72
720,note_on,,0,0,15,,,,,,,,,,,,,,,,15,,62,72
720,note_on,,0,0,15,,,,,,,,,,,,,,,,15,,66,72
720,note_on,,0,0,15,,,,,,,,,,,,,,,,15,,74,72
720,note_on,,1,0,15,,,,,,,,,,,,,,,,15,,59,72
720,note_on,,1,0,5,,,,,,,,,,,,,,,,1,,74,72
720,note_on,,1,0,10,,,,,,,,,,,,,,,,8,,59,72
720,note_on,,1,0,12,,,,,,,,,,,,,,,,11,,74,72
720,note_on,,1,0,7,,,,,,,,,,,,,,,,5,,74,72
720,note_on,,1,0,8,,,,,,,,,,,,,,,,6,,66,72
720,note_on,,1,0,11,,,,,,,,,,,,,,,,10,,78,72
720,note_on,,1,0,6,,,,,,,,,,,,,,,,2,,59,72
720,note_on,,1,0,14,,,,,,,,,,,,,,,,13,,59,72
779,note_on,,59,0,11,,,,,,,,,,,,,,,,10,,78,0
779,note_on,,59,0,13,,,,,,,,,,,,,,,,12,,62,0
780,note_on,,1,0,11,,,,,,,,,,,,,,,,10,,74,72
780,note_on,,1,0,13,,,,,,,,,,,,,,,,12,,59,72
839,note_on,,119,0,9,,,,,,,,,,,,,,,,7,,62,0
839,note_on,,0,0,15,,,,,,,,,,,,,,,,15,,66,0
839,note_on,,119,0,8,,,,,,,,,,,,,,,,6,,66,0
839,note_on,,119,0,15,,,,,,,,,,,,,,,,15,,74,0
839,note_on,,0,0,15,,,,,,,,,,,,,,,,15,,62,0
839,note_on,,119,0,12,,,,,,,,,,,,,,,,11,,74,0
839,note_on,,59,0,11,,,,,,,,,,,,,,,,10,,74,0
839,note_on,,59,0,13,,,,,,,,,,,,,,,,12,,59,0
840,note_on,,1,0,13,,,,,,,,,,,,,,,,12,,64,72
840,note_on,,0,0,15,,,,,,,,,,,,,,,,15,,64,72
840,note_on,,0,0,15,,,,,,,,,,,,,,,,15,,67,72
840,note_on,,1,0,11,,,,,,,,,,,,,,,,10,,79,72
840,note_on,,1,0,15,,,,,,,,,,,,,,,,15,,73,72
840,note_on,,1,0,8,,,,,,,,,,,,,,,,6,,64,72
840,note_on,,1,0,12,,,,,,,,,,,,,,,,11,,73,72
840,note_on,,1,0,9,,,,,,,,,,,,,,,,7,,67,72
899,note_on,,59,0,15,,,,,,,,,,,,,,,,15,,73,0
899,note_on,,0,0,15,,,,,,,,,,,,,,,,15,,67,0
899,note_on,,59,0,12,,,,,,,,,,,,,,,,11,,73,0
899,note_on,,0,0,15,,,,,,,,,,,,,,,,15,,64,0
899,note_on,,59,0,8,,,,,,,,,,,,,,,,6,,64,0
899,note_on,,59,0,13,,,,,,,,,,,,,,,,12,,64,0
900,note_on,,1,0,12,,,,,,,,,,,,,,,,11,,71,72
900,note_on,,1,0,13,,,,,,,,,,,,,,,,12,,62,72
900,note_on,,0,0,15,,,,,,,,,,,,,,,,15,,62,72
900,note_on,,1,0,8,,,,,,,,,,,,,,,,6,,62,72
900,note_on,,0,0,15,,,,,,,,,,,,,,,,15,,66,72
900,note_on,,1,0,15,,,,,,,,,,,,,,,,15,,71,72
959,note_on,,59,0,15,,,,,,,,,,,,,,,,15,,59,0
959,note_on,,239,0,6,,,,,,,,,,,,,,,,2,,59,0
959,note_on,,239,0,14,,,,,,,,,,,,,,,,13,,59,0
959,note_on,,0,0,15,,,,,,,,,,,,,,,,15,,66,0
959,note_on,,59,0,8,,,,,,,,,,,,,,,,6,,62,0
959,note_on,,239,0,10,,,,,,,,,,,,,,,,8,,59,0
959,note_on,,59,0,12,,,,,,,,,,,,,,,,11,,71,0
959,note_on,,239,0,5,,,,,,,,,,,,,,,,1,,74,0
959,note_on,,59,0,13,,,,,,,,,,,,,,,,12,,62,0
959,note_on,,239,0,7,,,,,,,,,,,,,,,,5,,74,0
959,note_on,,0,0,15,,,,,,,,,,,,,,,,15,,71,0
959,note_on,,0,0,15,,,,,,,,,,,,,,,,15,,62,0
960,note_on,,1,0,10,,,,,,,,,,,,,,,,8,,61,72
960,note_on,,1,0,6,,,,,,,,,,,,,,,,2,,61,72
960,note_on,,1,0,5,,,,,,,,,,,,,,,,1,,76,72
960,note_on,,0,0,15,,,,,,,,,,,,,,,,15,,69,72
960,note_on,,1,0,15,,,,,,,,,,,,,,,,15,,61,72
960,note_on,,0,0,15,,,,,,,,,,,,,,,,15,,67,72
960,note_on,,0,0,15,,,,,,,,,,,,,,,,15,,64,72
960,note_on,,1,0,7,,,,,,,,,,,,,,,,5,,76,72
960,note_on,,1,0,13,,,,,,,,,,,,,,,,12,,69,72
960,note_on,,1,0,14,,,,,,,,,,,,,,,,13,,61,72
960,note_on,,1,0,12,,,,,,,,,,,,,,,,11,,76,72
960,note_on,,1,0,8,,,,,,,,,,,,,,,,6,,69,72
1079,note_on,,119,0,5,,,,,,,,,,,,,,,,1,,76,0
1079,note_on,,0,0,15,,,,,,,,,,,,,,,,15,,64,0
1079,note_on,,239,0,9,,,,,,,,,,,,,,,,7,,67,0
1079,note_on,,0,0,15,,,,,,,,,,,,,,,,15,,67,0
1079,note_on,,0,0,15,,,,,,,,,,,,,,,,15,,69,0
1079,note_on,,119,0,15,,,,,,,,,,,,,,,,15,,61,0
1079,note_on,,239,0,11,,,,,,,,,,,,,,,,10,,79,0
1079,note_on,,119,0,12,,,,,,,,,,,,,,,,11,,76,0
1079,note_on,,119,0,10,,,,,,,,,,,,,,,,8,,61,0
1079,note_on,,119,0,6,,,,,,,,,,,,,,,,2,,61,0
1079,note_on,,119,0,14,,,,,,,,,,,,,,,,13,,61,0
1079,note_on,,119,0,7,,,,,,,,,,,,,,,,5,,76,0
1080,note_on,,1,0,7,,,,,,,,,,,,,,,,5,,74,72
1080,note_on,,1,0,5,,,,,,,,,,,,,,,,1,,74,72
1080,note_on,,0,0,15,,,,,,,,,,,,,,,,15,,66,72
1080,note_on,,0,0,15,,,,,,,,,,,,,,,,15,,69,72
1080,note_on,,0,0,15,,,,,,,,,,,,,,,,15,,74,72
1080,note_on,,1,0,15,,,,,,,,,,,,,,,,15,,62,72
1080,note_on,,1,0,11,,,,,,,,,,,,,,,,10,,78,72
1080,note_on,,1,0,14,,,,,,,,,,,,,,,,13,,62,72
1080,note_on,,1,0,6,,,,,,,,,,,,,,,,2,,62,72
1080,note_on,,1,0,12,,,,,,,,,,,,,,,,11,,74,72
1080,note_on,,1,0,9,,,,,,,,,,,,,,,,7,,66,72
1080,note_on,,1,0,10,,,,,,,,,,,,,,,,8,,62,72
1199,note_on,,0,0,15,,,,,,,,,,,,,,,,15,,66,0
1199,note_on,,119,0,11,,,,,,,,,,,,,,,,10,,78,0
1199,note_on,,119,0,10,,,,,,,,,,,,,,,,8,,62,0
1199,note_on,,119,0,15,,,,,,,,,,,,,,,,15,,62,0
1199,note_on,,119,0,6,,,,,,,,,,,,,,,,2,,62,0
1199,note_on,,119,0,14,,,,,,,,,,,,,,,,13,,62,0
1199,note_on,,239,0,13,,,,,,,,,,,,,,,,12,,69,0
1199,note_on,,119,0,9,,,,,,,,,,,,,,,,7,,66,0
1200,note_on,,1,0,13,,,,,,,,,,,,,,,,12,,69,72
1200,note_on,,0,0,15,,,,,,,,,,,,,,,,15,,64,72
1200,note_on,,1,0,6,,,,,,,,,,,,,,,,2,,57,72
1200,note_on,,1,0,9,,,,,,,,,,,,,,,,7,,64,72
1200,note_on,,1,0,10,,,,,,,,,,,,,,,,8,,57,72
1200,note_on,,1,0,11,,,,,,,,,,,,,,,,10,,76,72
1200,note_on,,1,0,14,,,,,,,,,,,,,,,,13,,57,72
1200,note_on,,1,0,15,,,,,,,,,,,,,,,,15,,57,72
1214,note_on,,14,0,11,,,,,,,,,,,,,,,,10,,76,0
1215,note_on,,1,0,11,,,,,,,,,,,,,,,,10,,78,72
1229,note_on,,14,0,11,,,,,,,,,,,,,,,,10,,78,0
1230,note_on,,1,0,11,,,,,,,,,,,,,,,,10,,76,72
1244,note_on,,14,0,11,,,,,,,,,,,,,,,,10,,76,0
1245,note_on,,1,0,11,,,,,,,,,,,,,,,,10,,78,72
1259,note_on,,14,0,11,,,,,,,,,,,,,,,,10,,78,0
1260,note_on,,1,0,11,,,,,,,,,,,,,,,,10,,76,72
1274,note_on,,14,0,11,,,,,,,,,,,,,,,,10,,76,0
1275,note_on,,1,0,11,,,,,,,,,,,,,,,,10,,78,72
1289,note_on,,14,0,11,,,,,,,,,,,,,,,,10,,78,0
1290,note_on,,1,0,11,,,,,,,,,,,,,,,,10,,76,72
1304,note_on,,14,0,11,,,,,,,,,,,,,,,,10,,76,0
1305,note_on,,1,0,11,,,,,,,,,,,,,,,,10,,78,72
1319,note_on,,239,0,12,,,,,,,,,,,,,,,,11,,74,0
1319,note_on,,119,0,15,,,,,,,,,,,,,,,,15,,74,0
1319,note_on,,359,0,8,,,,,,,,,,,,,,,,6,,69,0
1319,note_on,,0,0,15,,,,,,,,,,,,,,,,15,,64,0
1319,note_on,,119,0,13,,,,,,,,,,,,,,,,12,,69,0
1319,note_on,,239,0,7,,,,,,,,,,,,,,,,5,,74,0
1319,note_on,,239,0,5,,,,,,,,,,,,,,,,1,,74,0
1319,note_on,,119,0,9,,,,,,,,,,,,,,,,7,,64,0
1319,note_on,,14,0,11,,,,,,,,,,,,,,,,10,,78,0
1319,note_on,,0,0,15,,,,,,,,,,,,,,,,15,,69,0
1320,note_on,,0,0,15,,,,,,,,,,,,,,,,15,,73,72
1320,note_on,,0,0,15,,,,,,,,,,,,,,,,15,,69,72
1320,note_on,,0,0,15,,,,,,,,,,,,,,,,15,,64,72
1320,note_on,,1,0,11,,,,,,,,,,,,,,,,10,,76,72
1320,note_on,,1,0,15,,,,,,,,,,,,,,,,15,,76,72
1320,note_on,,1,0,7,,,,,,,,,,,,,,,,5,,73,72
1320,note_on,,1,0,5,,,,,,,,,,,,,,,,1,,73,72
1320,note_on,,1,0,9,,,,,,,,,,,,,,,,7,,57,72
1320,note_on,,1,0,8,,,,,,,,,,,,,,,,6,,64,72
1320,note_on,,1,0,13,,,,,,,,,,,,,,,,12,,64,72
1320,note_on,,1,0,12,,,,,,,,,,,,,,,,11,,73,72
1334,note_on,,14,0,11,,,,,,,,,,,,,,,,10,,76,0
1335,note_on,,1,0,11,,,,,,,,,,,,,,,,10,,78,72
1349,note_on,,14,0,11,,,,,,,,,,,,,,,,10,,78,0
1350,note_on,,1,0,11,,,,,,,,,,,,,,,,10,,74,72
1364,note_on,,14,0,11,,,,,,,,,,,,,,,,10,,74,0
1365,note_on,,1,0,11,,,,,,,,,,,,,,,,10,,76,72
1379,note_on,,14,0,11,,,,,,,,,,,,,,,,10,,76,0
1379,note_on,,59,0,15,,,,,,,,,,,,,,,,15,,57,0
1379,note_on,,179,0,6,,,,,,,,,,,,,,,,2,,57,0
1379,note_on,,179,0,10,,,,,,,,,,,,,,,,8,,57,0
1379,note_on,,179,0,14,,,,,,,,,,,,,,,,13,,57,0
1380,note_on,,1,0,11,,,,,,,,,,,,,,,,10,,74,72
1380,note_on,,1,0,6,,,,,,,,,,,,,,,,2,,57,72
1380,note_on,,1,0,15,,,,,,,,,,,,,,,,15,,57,72
1380,note_on,,1,0,14,,,,,,,,,,,,,,,,13,,57,72
1380,note_on,,1,0,10,,,,,,,,,,,,,,,,8,,57,72
1439,note_on,,119,0,8,,,,,,,,,,,,,,,,6,,64,0
1439,note_on,,119,0,7,,,,,,,,,,,,,,,,5,,73,0
1439,note_on,,59,0,11,,,,,,,,,,,,,,,,10,,74,0
1439,note_on,,119,0,9,,,,,,,,,,,,,,,,7,,57,0
1439,note_on,,0,0,15,,,,,,,,,,,,,,,,15,,57,0
1439,note_on,,59,0,6,,,,,,,,,,,,,,,,2,,57,0
1439,note_on,,0,0,15,,,,,,,,,,,,,,,,15,,64,0
1439,note_on,,0,0,15,,,,,,,,,,,,,,,,15,,69,0
1439,note_on,,0,0,15,,,,,,,,,,,,,,,,15,,73,0
1439,note_on,,59,0,15,,,,,,,,,,,,,,,,15,,76,0
1439,note_on,,59,0,10,,,,,,,,,,,,,,,,8,,57,0
1439,note_on,,119,0,5,,,,,,,,,,,,,,,,1,,73,0
1439,note_on,,119,0,13,,,,,,,,,,,,,,,,12,,64,0
1439,note_on,,119,0,12,,,,,,,,,,,,,,,,11,,73,0
1439,note_on,,59,0,14,,,,,,,,,,,,,,,,13,,57,0
1440,note_on,,1,0,10,,,,,,,,,,,,,,,,8,,50,72
1440,note_on,,1,0,8,,,,,,,,,,,,,,,,6,,66,72
1440,note_on,,1,0,9,,,,,,,,,,,,,,,,7,,57,72
1440,note_on,,1,0,11,,,,,,,,,,,,,,,,10,,74,72
1440,note_on,,1,0,14,,,,,,,,,,,,,,,,13,,50,72
1440,note_on,,0,0,15,,,,,,,,,,,,,,,,15,,57,72
1440,note_on,,1,0,12,,,,,,,,,,,,,,,,11,,74,72
1440,note_on,,1,0,15,,,,,,,,,,,,,,,,15,,50,72
1440,note_on,,0,0,15,,,,,,,,,,,,,,,,15,,78,72
1440,note_on,,0,0,15,,,,,,,,,,,,,,,,15,,74,72
1440,note_on,,0,0,15,,,,,,,,,,,,,,,,15,,69,72
1440,note_on,,1,0,13,,,,,,,,,,,,,,,,12,,66,72
1440,note_on,,1,0,5,,,,,,,,,,,,,,,,1,,74,72
1440,note_on,,1,0,6,,,,,,,,,,,,,,,,2,,50,72
1440,note_on,,1,0,7,,,,,,,,,,,,,,,,5,,74,72
1499,note_on,,59,0,6,,,,,,,,,,,,,,,,2,,50,0
1499,note_on,,0,0,15,,,,,,,,,,,,,,,,15,,69,0
1499,note_on,,59,0,11,,,,,,,,,,,,,,,,10,,74,0
1499,note_on,,0,0,15,,,,,,,,,,,,,,,,15,,57,0
1499,note_on,,59,0,15,,,,,,,,,,,,,,,,15,,50,0
1499,note_on,,59,0,14,,,,,,,,,,,,,,,,13,,50,0
1500,note_on,,1,0,11,,,,,,,,,,,,,,,,10,,69,72
1500,note_on,,1,0,15,,,,,,,,,,,,,,,,15,,69,72
1559,note_on,,119,0,13,,,,,,,,,,,,,,,,12,,66,0
1559,note_on,,59,0,11,,,,,,,,,,,,,,,,10,,69,0
1559,note_on,,0,0,15,,,,,,,,,,,,,,,,15,,74,0
1559,note_on,,0,0,15,,,,,,,,,,,,,,,,15,,69,0
1559,note_on,,119,0,5,,,,,,,,,,,,,,,,1,,74,0
1559,note_on,,119,0,9,,,,,,,,,,,,,,,,7,,57,0
1559,note_on,,119,0,12,,,,,,,,,,,,,,,,11,,74,0
1559,note_on,,119,0,7,,,,,,,,,,,,,,,,5,,74,0
1559,note_on,,119,0,10,,,,,,,,,,,,,,,,8,,50,0
1559,note_on,,119,0,8,,,,,,,,,,,,,,,,6,,66,0
1559,note_on,,59,0,15,,,,,,,,,,,,,,,,15,,78,0
1560,note_on,,1,0,11,,,,,,,,,,,,,,,,10,,74,72
1560,note_on,,1,0,15,,,,,,,,,,,,,,,,15,,81,72
1560,note_on,,0,0,15,,,,,,,,,,,,,,,,15,,74,72
1560,note_on,,1,0,12,,,,,,,,,,,,,,,,11,,81,72
1619,note_on,,59,0,15,,,,,,,,,,,,,,,,15,,74,0
1619,note_on,,59,0,11,,,,,,,,,,,,,,,,10,,74,0
1620,note_on,,1,0,15,,,,,,,,,,,,,,,,15,,69,72
1620,note_on,,1,0,11,,,,,,,,,,,,,,,,10,,69,72
1679,note_on,,59,0,11,,,,,,,,,,,,,,,,10,,69,0
1679,note_on,,0,0,15,,,,,,,,,,,,,,,,15,,69,0
1679,note_on,,59,0,15,,,,,,,,,,,,,,,,15,,81,0
1679,note_on,,119,0,12,,,,,,,,,,,,,,,,11,,81,0
1680,note_on,,0,0,15,,,,,,,,,,,,,,,,15,,71,72
1680,note_on,,1,0,15,,,,,,,,,,,,,,,,15,,86,72
1680,note_on,,1,0,11,,,,,,,,,,,,,,,,10,,71,72
1680,note_on,,1,0,12,,,,,,,,,,,,,,,,11,,86,72
1739,note_on,,59,0,15,,,,,,,,,,,,,,,,15,,71,0
1739,note_on,,59,0,11,,,,,,,,,,,,,,,,10,,71,0
1740,note_on,,1,0,15,,,,,,,,,,,,,,,,15,,69,72
1740,note_on,,1,0,11,,,,,,,,,,,,,,,,10,,69,72
1769,note_on,,29,0,15,,,,,,,,,,,,,,,,15,,69,0
1769,note_on,,29,0,11,,,,,,,,,,,,,,,,10,,69,0
1770,note_on,,1,0,15,,,,,,,,,,,,,,,,15,,67,72
1770,note_on,,1,0,11,,,,,,,,,,,,,,,,10,,67,72
1799,note_on,,29,0,15,,,,,,,,,,,,,,,,15,,86,0
1799,note_on,,29,0,11,,,,,,,,,,,,,,,,10,,67,0
1799,note_on,,0,0,15,,,,,,,,,,,,,,,,15,,67,0
1799,note_on,,119,0,12,,,,,,,,,,,,,,,,11,,86,0
1800,note_on,,1,0,15,,,,,,,,,,,,,,,,15,,81,72
1800,note_on,,1,0,11,,,,,,,,,,,,,,,,10,,66,72
1800,note_on,,1,0,12,,,,,,,,,,,,,,,,11,,81,72
1800,note_on,,0,0,15,,,,,,,,,,,,,,,,15,,66,72
1859,note_on,,59,0,15,,,,,,,,,,,,,,,,15,,66,0
1859,note_on,,59,0,11,,,,,,,,,,,,,,,,10,,66,0
1860,note_on,,1,0,15,,,,,,,,,,,,,,,,15,,64,72
1860,note_on,,1,0,11,,,,,,,,,,,,,,,,10,,64,72
1889,note_on,,29,0,15,,,,,,,,,,,,,,,,15,,64,0
1889,note_on,,29,0,11,,,,,,,,,,,,,,,,10,,64,0
1890,note_on,,1,0,11,,,,,,,,,,,,,,,,10,,66,72
1890,note_on,,1,0,15,,,,,,,,,,,,,,,,15,,66,72
1919,note_on,,29,0,15,,,,,,,,,,,,,,,,15,,81,0
1919,note_on,,0,0,15,,,,,,,,,,,,,,,,15,,66,0
1919,note_on,,29,0,11,,,,,,,,,,,,,,,,10,,66,0
1919,note_on,,119,0,12,,,,,,,,,,,,,,,,11,,81,0
1920,note_on,,1,0,11,,,,,,,,,,,,,,,,10,,67,72
1920,note_on,,1,0,12,,,,,,,,,,,,,,,,11,,83,72
1920,note_on,,0,0,15,,,,,,,,,,,,,,,,15,,67,72
1920,note_on,,1,0,15,,,,,,,,,,,,,,,,15,,83,72
1979,note_on,,59,0,11,,,,,,,,,,,,,,,,10,,67,0
1979,note_on,,59,0,15,,,,,,,,,,,,,,,,15,,67,0
1980,note_on,,1,0,11,,,,,,,,,,,,,,,,10,,71,72
1980,note_on,,1,0,15,,,,,,,,,,,,,,,,15,,71,72
2039,note_on,,59,0,15,,,,,,,,,,,,,,,,15,,83,0
2039,note_on,,0,0,15,,,,,,,,,,,,,,,,15,,71,0
2039,note_on,,59,0,11,,,,,,,,,,,,,,,,10,,71,0
2039,note_on,,119,0,12,,,,,,,,,,,,,,,,11,,83,0
2040,note_on,,1,0,11,,,,,,,,,,,,,,,,10,,73,72
2040,note_on,,0,0,15,,,,,,,,,,,,,,,,15,,73,72
2040,note_on,,1,0,15,,,,,,,,,,,,,,,,15,,81,72
2040,note_on,,1,0,12,,,,,,,,,,,,,,,,11,,81,72
2099,note_on,,0,0,15,,,,,,,,,,,,,,,,15,,73,0
2099,note_on,,59,0,11,,,,,,,,,,,,,,,,10,,73,0
2099,note_on,,59,0,12,,,,,,,,,,,,,,,,11,,81,0
2099,note_on,,59,0,15,,,,,,,,,,,,,,,,15,,81,0
2100,note_on,,1,0,12,,,,,,,,,,,,,,,,11,,79,72
2100,note_on,,1,0,15,,,,,,,,,,,,,,,,15,,79,72
2100,note_on,,1,0,11,,,,,,,,,,,,,,,,10,,71,72
2100,note_on,,0,0,15,,,,,,,,,,,,,,,,15,,71,72
2129,note_on,,29,0,11,,,,,,,,,,,,,,,,10,,71,0
2129,note_on,,29,0,15,,,,,,,,,,,,,,,,15,,71,0
2130,note_on,,1,0,11,,,,,,,,,,,,,,,,10,,73,72
2130,note_on,,1,0,15,,,,,,,,,,,,,,,,15,,73,72
2159,note_on,,59,0,12,,,,,,,,,,,,,,,,11,,79,0
2159,note_on,,29,0,11,,,,,,,,,,,,,,,,10,,73,0
2159,note_on,,29,0,15,,,,,,,,,,,,,,,,15,,79,0
2159,note_on,,0,0,15,,,,,,,,,,,,,,,,15,,73,0
2160,note_on,,1,0,11,,,,,,,,,,,,,,,,10,,74,72
2160,note_on,,1,0,15,,,,,,,,,,,,,,,,15,,78,72
2160,note_on,,0,0,15,,,,,,,,,,,,,,,,15,,74,72
2160,note_on,,1,0,12,,,,,,,,,,,,,,,,11,,78,72
2219,note_on,,59,0,12,,,,,,,,,,,,,,,,11,,78,0
2219,note_on,,59,0,15,,,,,,,,,,,,,,,,15,,74,0
2220,note_on,,1,0,12,,,,,,,,,,,,,,,,11,,62,72
2220,note_on,,1,0,15,,,,,,,,,,,,,,,,15,,62,72
2220,note_on,,661,0,8,,,,,,,,,,,,,,,,6,,62,72
2279,note_on,,0,0,15,,,,,,,,,,,,,,,,15,,62,0
2279,note_on,,59,0,15,,,,,,,,,,,,,,,,15,,78,0
2279,note_on,,59,0,8,,,,,,,,,,,,,,,,6,,62,0
2279,note_on,,119,0,11,,,,,,,,,,,,,,,,10,,74,0
2279,note_on,,59,0,12,,,,,,,,,,,,,,,,11,,62,0
2280,note_on,,721,0,5,,,,,,,,,,,,,,,,1,,76,72
2280,note_on,,721,0,7,,,,,,,,,,,,,,,,5,,76,72
2280,note_on,,1,0,8,,,,,,,,,,,,,,,,6,,69,72
2280,note_on,,1,0,11,,,,,,,,,,,,,,,,10,,76,72
2280,note_on,,0,0,15,,,,,,,,,,,,,,,,15,,69,72
2280,note_on,,1,0,15,,,,,,,,,,,,,,,,15,,76,72
2280,note_on,,1,0,12,,,,,,,,,,,,,,,,11,,69,72
2339,note_on,,59,0,8,,,,,,,,,,,,,,,,6,,69,0
2339,note_on,,59,0,15,,,,,,,,,,,,,,,,15,,69,0
2339,note_on,,59,0,12,,,,,,,,,,,,,,,,11,,69,0
2340,note_on,,1,0,12,,,,,,,,,,,,,,,,11,,64,72
2340,note_on,,1,0,15,,,,,,,,,,,,,,,,15,,64,72
2340,note_on,,1,0,8,,,,,,,,,,,,,,,,6,,64,72
2399,note_on,,59,0,12,,,,,,,,,,,,,,,,11,,64,0
2399,note_on,,119,0,5,,,,,,,,,,,,,,,,1,,76,0
2399,note_on,,119,0,11,,,,,,,,,,,,,,,,10,,76,0
2399,note_on,,59,0,8,,,,,,,,,,,,,,,,6,,64,0
2399,note_on,,59,0,15,,,,,,,,,,,,,,,,15,,76,0
2399,note_on,,0,0,15,,,,,,,,,,,,,,,,15,,64,0
2399,note_on,,119,0,7,,,,,,,,,,,,,,,,5,,76,0
2400,note_on,,1,0,7,,,,,,,,,,,,,,,,5,,81,72
2400,note_on,,0,0,15,,,,,,,,,,,,,,,,15,,66,72
2400,note_on,,1,0,5,,,,,,,,,,,,,,,,1,,81,72
2400,note_on,,1,0,15,,,,,,,,,,,,,,,,15,,81,72
2400,note_on,,1,0,8,,,,,,,,,,,,,,,,6,,66,72
2400,note_on,,1,0,12,,,,,,,,,,,,,,,,11,,66,72
2400,note_on,,1,0,11,,,,,,,,,,,,,,,,10,,81,72
2459,note_on,,59,0,8,,,,,,,,,,,,,,,,6,,66,0
2459,note_on,,59,0,12,,,,,,,,,,,,,,,,11,,66,0
2459,note_on,,59,0,15,,,,,,,,,,,,,,,,15,,66,0
2460,note_on,,1,0,15,,,,,,,,,,,,,,,,15,,64,72
2460,note_on,,1,0,8,,,,,,,,,,,,,,,,6,,64,72
2460,note_on,,1,0,12,,,,,,,,,,,,,,,,11,,64,72
2489,note_on,,29,0,8,,,,,,,,,,,,,,,,6,,64,0
2489,note_on,,29,0,12,,,,,,,,,,,,,,,,11,,64,0
2489,note_on,,29,0,15,,,,,,,,,,,,,,,,15,,64,0
2490,note_on,,1,0,12,,,,,,,,,,,,,,,,11,,62,72
2490,note_on,,1,0,8,,,,,,,,,,,,,,,,6,,62,72
2490,note_on,,1,0,15,,,,,,,,,,,,,,,,15,,62,72
2519,note_on,,119,0,11,,,,,,,,,,,,,,,,10,,81,0
2519,note_on,,29,0,8,,,,,,,,,,,,,,,,6,,62,0
2519,note_on,,29,0,15,,,,,,,,,,,,,,,,15,,81,0
2519,note_on,,119,0,5,,,,,,,,,,,,,,,,1,,81,0
2519,note_on,,0,0,15,,,,,,,,,,,,,,,,15,,62,0
2519,note_on,,119,0,7,,,,,,,,,,,,,,,,5,,81,0
2519,note_on,,29,0,12,,,,,,,,,,,,,,,,11,,62,0
2520,note_on,,1,0,11,,,,,,,,,,,,,,,,10,,76,72
2520,note_on,,1,0,5,,,,,,,,,,,,,,,,1,,76,72
2520,note_on,,0,0,15,,,,,,,,,,,,,,,,15,,61,72
2520,note_on,,1,0,7,,,,,,,,,,,,,,,,5,,76,72
2520,note_on,,1,0,8,,,,,,,,,,,,,,,,6,,61,72
2520,note_on,,1,0,12,,,,,,,,,,,,,,,,11,,61,72
2520,note_on,,1,0,15,,,,,,,,,,,,,,,,15,,76,72
2579,note_on,,59,0,12,,,,,,,,,,,,,,,,11,,61,0
2579,note_on,,59,0,8,,,,,,,,,,,,,,,,6,,61,0
2579,note_on,,59,0,15,,,,,,,,,,,,,,,,15,,61,0
2580,note_on,,1,0,8,,,,,,,,,,,,,,,,6,,59,72
2580,note_on,,1,0,12,,,,,,,,,,,,,,,,11,,59,72
2580,note_on,,1,0,15,,,,,,,,,,,,,,,,15,,59,72
2609,note_on,,29,0,8,,,,,,,,,,,,,,,,6,,59,0
2609,note_on,,29,0,12,,,,,,,,,,,,,,,,11,,59,0
2609,note_on,,29,0,15,,,,,,,,,,,,,,,,15,,59,0
2610,note_on,,1,0,12,,,,,,,,,,,,,,,,11,,61,72
2610,note_on,,1,0,8,,,,,,,,,,,,,,,,6,,61,72
2610,note_on,,1,0,15,,,,,,,,,,,,,,,,15,,61,72
2639,note_on,,29,0,8,,,,,,,,,,,,,,,,6,,61,0
2639,note_on,,29,0,15,,,,,,,,,,,,,,,,15,,76,0
2639,note_on,,119,0,11,,,,,,,,,,,,,,,,10,,76,0
2639,note_on,,119,0,7,,,,,,,,,,,,,,,,5,,76,0
2639,note_on,,119,0,5,,,,,,,,,,,,,,,,1,,76,0
2639,note_on,,0,0,15,,,,,,,,,,,,,,,,15,,61,0
2639,note_on,,29,0,12,,,,,,,,,,,,,,,,11,,61,0
2640,note_on,,1,0,5,,,,,,,,,,,,,,,,1,,78,72
2640,note_on,,1,0,12,,,,,,,,,,,,,,,,11,,62,72
2640,note_on,,1,0,7,,,,,,,,,,,,,,,,5,,78,72
2640,note_on,,1,0,15,,,,,,,,,,,,,,,,15,,78,72
2640,note_on,,0,0,15,,,,,,,,,,,,,,,,15,,62,72
2640,note_on,,1,0,8,,,,,,,,,,,,,,,,6,,62,72
2640,note_on,,1,0,11,,,,,,,,,,,,,,,,10,,78,72
2699,note_on,,59,0,12,,,,,,,,,,,,,,,,11,,62,0
2699,note_on,,59,0,8,,,,,,,,,,,,,,,,6,,62,0
2699,note_on,,59,0,15,,,,,,,,,,,,,,,,15,,62,0
2700,note_on,,1,0,12,,,,,,,,,,,,,,,,11,,66,72
2700,note_on,,1,0,8,,,,,,,,,,,,,,,,6,,66,72
2700,note_on,,1,0,15,,,,,,,,,,,,,,,,15,,66,72
2759,note_on,,119,0,7,,,,,,,,,,,,,,,,5,,78,0
2759,note_on,,0,0,15,,,,,,,,,,,,,,,,15,,66,0
2759,note_on,,59,0,15,,,,,,,,,,,,,,,,15,,78,0
2759,note_on,,119,0,5,,,,,,,,,,,,,,,,1,,78,0
2759,note_on,,119,0,11,,,,,,,,,,,,,,,,10,,78,0
2759,note_on,,59,0,12,,,,,,,,,,,,,,,,11,,66,0
2759,note_on,,59,0,8,,,,,,,,,,,,,,,,6,,66,0
2760,note_on,,1,0,15,,,,,,,,,,,,,,,,15,,76,72
2760,note_on,,0,0,15,,,,,,,,,,,,,,,,15,,68,72
2760,note_on,,1,0,12,,,,,,,,,,,,,,,,11,,68,72
2760,note_on,,1,0,7,,,,,,,,,,,,,,,,5,,76,72
2760,note_on,,1,0,8,,,,,,,,,,,,,,,,6,,68,72
2760,note_on,,1,0,5,,,,,,,,,,,,,,,,1,,76,72
2760,note_on,,1,0,11,,,,,,,,,,,,,,,,10,,76,72
2819,note_on,,59,0,15,,,,,,,,,,,,,,,,15,,76,0
2819,note_on,,0,0,15,,,,,,,,,,,,,,,,15,,68,0
2819,note_on,,59,0,5,,,,,,,,,,,,,,,,1,,76,0
2819,note_on,,59,0,12,,,,,,,,,,,,,,,,11,,68,0
2819,note_on,,59,0,11,,,,,,,,,,,,,,,,10,,76,0
2819,note_on,,59,0,7,,,,,,,,,,,,,,,,5,,76,0
2820,note_on,,0,0,15,,,,,,,,,,,,,,,,15,,66,72
2820,note_on,,1,0,15,,,,,,,,,,,,,,,,15,,74,72
2820,note_on,,1,0,11,,,,,,,,,,,,,,,,10,,74,72
2820,note_on,,1,0,12,,,,,,,,,,,,,,,,11,,66,72
2820,note_on,,1,0,7,,,,,,,,,,,,,,,,5,,74,72
2820,note_on,,1,0,5,,,,,,,,,,,,,,,,1,,74,72
2849,note_on,,89,0,8,,,,,,,,,,,,,,,,6,,68,0
2849,note_on,,29,0,15,,,,,,,,,,,,,,,,15,,66,0
2849,note_on,,29,0,12,,,,,,,,,,,,,,,,11,,66,0
2850,note_on,,1,0,15,,,,,,,,,,,,,,,,15,,68,72
2850,note_on,,1,0,12,,,,,,,,,,,,,,,,11,,68,72
2850,note_on,,1,0,8,,,,,,,,,,,,,,,,6,,68,72
2879,note_on,,29,0,15,,,,,,,,,,,,,,,,15,,74,0
2879,note_on,,59,0,7,,,,,,,,,,,,,,,,5,,74,0
2879,note_on,,29,0,8,,,,,,,,,,,,,,,,6,,68,0
2879,note_on,,0,0,15,,,,,,,,,,,,,,,,15,,68,0
2879,note_on,,29,0,12,,,,,,,,,,,,,,,,11,,68,0
2879,note_on,,59,0,5,,,,,,,,,,,,,,,,1,,74,0
2879,note_on,,59,0,11,,,,,,,,,,,,,,,,10,,74,0
2880,note_on,,1,0,5,,,,,,,,,,,,,,,,1,,73,72
2880,note_on,,1,0,15,,,,,,,,,,,,,,,,15,,73,72
2880,note_on,,1,0,12,,,,,,,,,,,,,,,,11,,69,72
2880,note_on,,1,0,11,,,,,,,,,,,,,,,,10,,73,72
2880,note_on,,1,0,8,,,,,,,,,,,,,,,,6,,69,72
2880,note_on,,1,0,7,,,,,,,,,,,,,,,,5,,73,72
2880,note_on,,0,0,15,,,,,,,,,,,,,,,,15,,69,72
2939,note_on,,59,0,7,,,,,,,,,,,,,,,,5,,73,0
2939,note_on,,59,0,11,,,,,,,,,,,,,,,,10,,73,0
2939,note_on,,59,0,5,,,,,,,,,,,,,,,,1,,73,0
2939,note_on,,59,0,15,,,,,,,,,,,,,,,,15,,73,0
2940,note_on,,1,0,5,,,,,,,,,,,,,,,,1,,76,72
2940,note_on,,1,0,15,,,,,,,,,,,,,,,,15,,76,72
2940,note_on,,1,0,7,,,,,,,,,,,,,,,,5,,76,72
2940,note_on,,1,0,11,,,,,,,,,,,,,,,,10,,76,72
2999,note_on,,59,0,15,,,,,,,,,,,,,,,,15,,69,0
2999,note_on,,0,0,15,,,,,,,,,,,,,,,,15,,76,0
2999,note_on,,59,0,7,,,,,,,,,,,,,,,,5,,76,0
2999,note_on,,59,0,5,,,,,,,,,,,,,,,,1,,76,0
2999,note_on,,119,0,12,,,,,,,,,,,,,,,,11,,69,0
2999,note_on,,59,0,11,,,,,,,,,,,,,,,,10,,76,0
3000,note_on,,0,0,15,,,,,,,,,,,,,,,,15,,69,72
3000,note_on,,1,0,15,,,,,,,,,,,,,,,,15,,57,72
3000,note_on,,1501,0,14,,,,,,,,,,,,,,,,13,,57,72
3000,note_on,,1,0,12,,,,,,,,,,,,,,,,11,,73,72
3000,note_on,,0,0,15,,,,,,,,,,,,,,,,15,,64,72
3000,note_on,,0,0,15,,,,,,,,,,,,,,,,15,,61,72
3000,note_on,,1501,0,6,,,,,,,,,,,,,,,,2,,57,72
3000,note_on,,1,0,5,,,,,,,,,,,,,,,,1,,81,72
3000,note_on,,1441,0,10,,,,,,,,,,,,,,,,8,,57,72
3000,note_on,,1,0,7,,,,,,,,,,,,,,,,5,,81,72
3000,note_on,,1,0,11,,,,,,,,,,,,,,,,10,,81,72
3059,note_on,,59,0,11,,,,,,,,,,,,,,,,10,,81,0
3059,note_on,,59,0,5,,,,,,,,,,,,,,,,1,,81,0
3059,note_on,,59,0,7,,,,,,,,,,,,,,,,5,,81,0
3060,note_on,,1,0,7,,,,,,,,,,,,,,,,5,,76,72
3060,note_on,,1,0,5,,,,,,,,,,,,,,,,1,,76,72
3060,note_on,,1,0,11,,,,,,,,,,,,,,,,10,,76,72
3089,note_on,,89,0,12,,,,,,,,,,,,,,,,11,,73,0
3090,note_on,,1,0,12,,,,,,,,,,,,,,,,11,,71,72
3119,note_on,,119,0,15,,,,,,,,,,,,,,,,15,,57,0
3119,note_on,,239,0,8,,,,,,,,,,,,,,,,6,,69,0
3119,note_on,,0,0,15,,,,,,,,,,,,,,,,15,,64,0
3119,note_on,,119,0,10,,,,,,,,,,,,,,,,8,,57,0
3119,note_on,,59,0,11,,,,,,,,,,,,,,,,10,,76,0
3119,note_on,,59,0,7,,,,,,,,,,,,,,,,5,,76,0
3119,note_on,,0,0,15,,,,,,,,,,,,,,,,15,,69,0
3119,note_on,,0,0,15,,,,,,,,,,,,,,,,15,,61,0
3119,note_on,,119,0,14,,,,,,,,,,,,,,,,13,,57,0
3119,note_on,,29,0,12,,,,,,,,,,,,,,,,11,,71,0
3119,note_on,,59,0,5,,,,,,,,,,,,,,,,1,,76,0
3119,note_on,,119,0,6,,,,,,,,,,,,,,,,2,,57,0
3120,note_on,,0,0,15,,,,,,,,,,,,,,,,15,,66,72
3120,note_on,,1,0,10,,,,,,,,,,,,,,,,8,,62,72
3120,note_on,,1,0,8,,,,,,,,,,,,,,,,6,,69,72
3120,note_on,,1,0,14,,,,,,,,,,,,,,,,13,,62,72
3120,note_on,,1,0,5,,,,,,,,,,,,,,,,1,,78,72
3120,note_on,,0,0,15,,,,,,,,,,,,,,,,15,,69,72
3120,note_on,,1,0,11,,,,,,,,,,,,,,,,10,,78,72
3120,note_on,,1,0,6,,,,,,,,,,,,,,,,2,,62,72
3120,note_on,,1,0,7,,,,,,,,,,,,,,,,5,,78,72
3120,note_on,,1,0,12,,,,,,,,,,,,,,,,11,,69,72
3120,note_on,,1,0,15,,,,,,,,,,,,,,,,15,,62,72
3179,note_on,,59,0,7,,,,,,,,,,,,,,,,5,,78,0
3179,note_on,,59,0,5,,,,,,,,,,,,,,,,1,,78,0
3179,note_on,,59,0,11,,,,,,,,,,,,,,,,10,,78,0
3180,note_on,,1,0,7,,,,,,,,,,,,,,,,5,,76,72
3180,note_on,,1,0,5,,,,,,,,,,,,,,,,1,,76,72
3180,note_on,,1,0,11,,,,,,,,,,,,,,,,10,,76,72
3209,note_on,,29,0,7,,,,,,,,,,,,,,,,5,,76,0
3209,note_on,,29,0,5,,,,,,,,,,,,,,,,1,,76,0
3209,note_on,,29,0,11,,,,,,,,,,,,,,,,10,,76,0
3210,note_on,,1,0,5,,,,,,,,,,,,,,,,1,,74,72
3210,note_on,,1,0,7,,,,,,,,,,,,,,,,5,,74,72
3210,note_on,,1,0,11,,,,,,,,,,,,,,,,10,,74,72
3239,note_on,,29,0,5,,,,,,,,,,,,,,,,1,,74,0
3239,note_on,,0,0,15,,,,,,,,,,,,,,,,15,,69,0
3239,note_on,,119,0,14,,,,,,,,,,,,,,,,13,,62,0
3239,note_on,,119,0,15,,,,,,,,,,,,,,,,15,,62,0
3239,note_on,,119,0,6,,,,,,,,,,,,,,,,2,,62,0
3239,note_on,,29,0,11,,,,,,,,,,,,,,,,10,,74,0
3239,note_on,,0,0,15,,,,,,,,,,,,,,,,15,,66,0
3239,note_on,,119,0,10,,,,,,,,,,,,,,,,8,,62,0
3239,note_on,,29,0,7,,,,,,,,,,,,,,,,5,,74,0
3240,note_on,,0,0,15,,,,,,,,,,,,,,,,15,,69,72
3240,note_on,,1,0,5,,,,,,,,,,,,,,,,1,,73,72
3240,note_on,,0,0,15,,,,,,,,,,,,,,,,15,,73,72
3240,note_on,,1,0,10,,,,,,,,,,,,,,,,8,,57,72
3240,note_on,,1,0,6,,,,,,,,,,,,,,,,2,,57,72
3240,note_on,,1,0,15,,,,,,,,,,,,,,,,15,,64,72
3240,note_on,,1,0,11,,,,,,,,,,,,,,,,10,,73,72
3240,note_on,,1,0,14,,,,,,,,,,,,,,,,13,,57,72
3240,note_on,,1,0,7,,,,,,,,,,,,,,,,5,,73,72
3240,note_on,,0,0,15,,,,,,,,,,,,,,,,15,,57,72
3299,note_on,,59,0,5,,,,,,,,,,,,,,,,1,,73,0
3299,note_on,,59,0,11,,,,,,,,,,,,,,,,10,,73,0
3299,note_on,,179,0,8,,,,,,,,,,,,,,,,6,,69,0
3299,note_on,,179,0,12,,,,,,,,,,,,,,,,11,,69,0
3299,note_on,,59,0,7,,,,,,,,,,,,,,,,5,,73,0
3300,note_on,,1,0,11,,,,,,,,,,,,,,,,10,,71,72
3300,note_on,,1,0,7,,,,,,,,,,,,,,,,5,,71,72
3300,note_on,,1,0,8,,,,,,,,,,,,,,,,6,,67,72
3300,note_on,,1,0,5,,,,,,,,,,,,,,,,1,,71,72
3300,note_on,,1,0,12,,,,,,,,,,,,,,,,11,,67,72
3329,note_on,,29,0,11,,,,,,,,,,,,,,,,10,,71,0
3329,note_on,,29,0,7,,,,,,,,,,,,,,,,5,,71,0
3329,note_on,,29,0,5,,,,,,,,,,,,,,,,1,,71,0
3330,note_on,,1,0,5,,,,,,,,,,,,,,,,1,,73,72
3330,note_on,,1,0,11,,,,,,,,,,,,,,,,10,,73,72
3330,note_on,,1,0,7,,,,,,,,,,,,,,,,5,,73,72
3359,note_on,,119,0,10,,,,,,,,,,,,,,,,8,,57,0
3359,note_on,,0,0,15,,,,,,,,,,,,,,,,15,,57,0
3359,note_on,,0,0,15,,,,,,,,,,,,,,,,15,,73,0
3359,note_on,,0,0,15,,,,,,,,,,,,,,,,15,,69,0
3359,note_on,,29,0,7,,,,,,,,,,,,,,,,5,,73,0
3359,note_on,,59,0,8,,,,,,,,,,,,,,,,6,,67,0
3359,note_on,,119,0,6,,,,,,,,,,,,,,,,2,,57,0
3359,note_on,,29,0,11,,,,,,,,,,,,,,,,10,,73,0
3359,note_on,,29,0,5,,,,,,,,,,,,,,,,1,,73,0
3359,note_on,,59,0,12,,,,,,,,,,,,,,,,11,,67,0
3359,note_on,,119,0,15,,,,,,,,,,,,,,,,15,,64,0
3359,note_on,,119,0,14,,,,,,,,,,,,,,,,13,,57,0
3360,note_on,,0,0,15,,,,,,,,,,,,,,,,15,,62,72
3360,note_on,,0,0,15,,,,,,,,,,,,,,,,15,,66,72
3360,note_on,,0,0,15,,,,,,,,,,,,,,,,15,,74,72
3360,note_on,,1,0,15,,,,,,,,,,,,,,,,15,,59,72
3360,note_on,,1,0,5,,,,,,,,,,,,,,,,1,,74,72
3360,note_on,,1,0,12,,,,,,,,,,,,,,,,11,,66,72
3360,note_on,,1,0,7,,,,,,,,,,,,,,,,5,,74,72
3360,note_on,,1,0,11,,,,,,,,,,,,,,,,10,,74,72
3360,note_on,,1,0,10,,,,,,,,,,,,,,,,8,,59,72
3360,note_on,,1,0,6,,,,,,,,,,,,,,,,2,,59,72
3360,note_on,,1,0,8,,,,,,,,,,,,,,,,6,,66,72
3360,note_on,,1,0,14,,,,,,,,,,,,,,,,13,,59,72
3419,note_on,,59,0,11,,,,,,,,,,,,,,,,10,,74,0
3419,note_on,,59,0,5,,,,,,,,,,,,,,,,1,,74,0
3419,note_on,,59,0,7,,,,,,,,,,,,,,,,5,,74,0
3420,note_on,,1,0,7,,,,,,,,,,,,,,,,5,,76,72
3420,note_on,,1,0,5,,,,,,,,,,,,,,,,1,,76,72
3420,note_on,,1,0,11,,,,,,,,,,,,,,,,10,,76,72
3420,note_on,,60,0,15,,,,,,,,,,,,,,,,15,,61,72
3479,note_on,,119,0,10,,,,,,,,,,,,,,,,8,,59,0
3479,note_on,,59,0,15,,,,,,,,,,,,,,,,15,,59,0
3479,note_on,,59,0,5,,,,,,,,,,,,,,,,1,,76,0
3479,note_on,,0,0,15,,,,,,,,,,,,,,,,15,,62,0
3479,note_on,,0,0,15,,,,,,,,,,,,,,,,15,,61,0
3479,note_on,,59,0,11,,,,,,,,,,,,,,,,10,,76,0
3479,note_on,,119,0,14,,,,,,,,,,,,,,,,13,,59,0
3479,note_on,,0,0,15,,,,,,,,,,,,,,,,15,,66,0
3479,note_on,,119,0,6,,,,,,,,,,,,,,,,2,,59,0
3479,note_on,,59,0,7,,,,,,,,,,,,,,,,5,,76,0
3480,note_on,,1,0,6,,,,,,,,,,,,,,,,2,,57,72
3480,note_on,,1,0,5,,,,,,,,,,,,,,,,1,,78,72
3480,note_on,,1,0,11,,,,,,,,,,,,,,,,10,,78,72
3480,note_on,,1,0,7,,,,,,,,,,,,,,,,5,,78,72
3480,note_on,,1,0,14,,,,,,,,,,,,,,,,13,,57,72
3480,note_on,,0,0,15,,,,,,,,,,,,,,,,15,,66,72
3480,note_on,,0,0,15,,,,,,,,,,,,,,,,15,,62,72
3480,note_on,,1,0,15,,,,,,,,,,,,,,,,15,,57,72
3480,note_on,,1,0,10,,,,,,,,,,,,,,,,8,,57,72
3539,note_on,,59,0,7,,,,,,,,,,,,,,,,5,,78,0
3539,note_on,,59,0,6,,,,,,,,,,,,,,,,2,,57,0
3539,note_on,,179,0,8,,,,,,,,,,,,,,,,6,,66,0
3539,note_on,,59,0,10,,,,,,,,,,,,,,,,8,,57,0
3539,note_on,,59,0,14,,,,,,,,,,,,,,,,13,,57,0
3539,note_on,,59,0,11,,,,,,,,,,,,,,,,10,,78,0
3539,note_on,,0,0,15,,,,,,,,,,,,,,,,15,,66,0
3539,note_on,,179,0,12,,,,,,,,,,,,,,,,11,,66,0
3539,note_on,,59,0,5,,,,,,,,,,,,,,,,1,,78,0
3539,note_on,,59,0,15,,,,,,,,,,,,,,,,15,,57,0
3539,note_on,,0,0,15,,,,,,,,,,,,,,,,15,,62,0
3540,note_on,,1,0,15,,,,,,,,,,,,,,,,15,,55,72
3540,note_on,,0,0,15,,,,,,,,,,,,,,,,15,,67,72
3540,note_on,,1,0,14,,,,,,,,,,,,,,,,13,,55,72
3540,note_on,,1,0,12,,,,,,,,,,,,,,,,11,,64,72
3540,note_on,,1,0,11,,,,,,,,,,,,,,,,10,,79,72
3540,note_on,,1,0,10,,,,,,,,,,,,,,,,8,,55,72
3540,note_on,,1,0,5,,,,,,,,,,,,,,,,1,,79,72
3540,note_on,,1,0,7,,,,,,,,,,,,,,,,5,,79,72
3540,note_on,,1,0,8,,,,,,,,,,,,,,,,6,,64,72
3540,note_on,,0,0,15,,,,,,,,,,,,,,,,15,,64,72
3540,note_on,,1,0,6,,,,,,,,,,,,,,,,2,,55,72
3599,note_on,,0,0,15,,,,,,,,,,,,,,,,15,,67,0
3599,note_on,,59,0,10,,,,,,,,,,,,,,,,8,,55,0
3599,note_on,,59,0,8,,,,,,,,,,,,,,,,6,,64,0
3599,note_on,,59,0,12,,,,,,,,,,,,,,,,11,,64,0
3599,note_on,,59,0,6,,,,,,,,,,,,,,,,2,,55,0
3599,note_on,,59,0,7,,,,,,,,,,,,,,,,5,,79,0
3599,note_on,,0,0,15,,,,,,,,,,,,,,,,15,,64,0
3599,note_on,,59,0,14,,,,,,,,,,,,,,,,13,,55,0
3599,note_on,,59,0,11,,,,,,,,,,,,,,,,10,,79,0
3599,note_on,,59,0,15,,,,,,,,,,,,,,,,15,,55,0
3599,note_on,,59,0,5,,,,,,,,,,,,,,,,1,,79,0
3600,note_on,,1,0,8,,,,,,,,,,,,,,,,6,,62,72
3600,note_on,,1,0,5,,,,,,,,,,,,,,,,1,,81,72
3600,note_on,,1,0,12,,,,,,,,,,,,,,,,11,,62,72
3600,note_on,,1,0,10,,,,,,,,,,,,,,,,8,,54,72
3600,note_on,,1,0,6,,,,,,,,,,,,,,,,2,,54,72
3600,note_on,,1,0,11,,,,,,,,,,,,,,,,10,,81,72
3600,note_on,,1,0,7,,,,,,,,,,,,,,,,5,,81,72
3600,note_on,,0,0,15,,,,,,,,,,,,,,,,15,,66,72
3600,note_on,,1,0,14,,,,,,,,,,,,,,,,13,,54,72
3600,note_on,,1,0,15,,,,,,,,,,,,,,,,15,,54,72
3600,note_on,,0,0,15,,,,,,,,,,,,,,,,15,,69,72
3659,note_on,,59,0,11,,,,,,,,,,,,,,,,10,,81,0
3659,note_on,,59,0,7,,,,,,,,,,,,,,,,5,,81,0
3659,note_on,,59,0,5,,,,,,,,,,,,,,,,1,,81,0
3660,note_on,,1,0,7,,,,,,,,,,,,,,,,5,,69,72
3660,note_on,,1,0,5,,,,,,,,,,,,,,,,1,,69,72
3660,note_on,,1,0,11,,,,,,,,,,,,,,,,10,,69,72
3719,note_on,,59,0,5,,,,,,,,,,,,,,,,1,,69,0
3719,note_on,,119,0,12,,,,,,,,,,,,,,,,11,,62,0
3719,note_on,,119,0,10,,,,,,,,,,,,,,,,8,,54,0
3719,note_on,,119,0,6,,,,,,,,,,,,,,,,2,,54,0
3719,note_on,,59,0,11,,,,,,,,,,,,,,,,10,,69,0
3719,note_on,,0,0,15,,,,,,,,,,,,,,,,15,,66,0
3719,note_on,,119,0,15,,,,,,,,,,,,,,,,15,,74,0
3719,note_on,,119,0,14,,,,,,,,,,,,,,,,13,,54,0
3719,note_on,,0,0,15,,,,,,,,,,,,,,,,15,,54,0
3719,note_on,,0,0,15,,,,,,,,,,,,,,,,15,,69,0
3719,note_on,,59,0,7,,,,,,,,,,,,,,,,5,,69,0
3719,note_on,,119,0,8,,,,,,,,,,,,,,,,6,,62,0
3720,note_on,,0,0,15,,,,,,,,,,,,,,,,15,,67,72
3720,note_on,,0,0,15,,,,,,,,,,,,,,,,15,,62,72
3720,note_on,,1,0,8,,,,,,,,,,,,,,,,6,,67,72
3720,note_on,,1,0,15,,,,,,,,,,,,,,,,15,,55,72
3720,note_on,,1,0,11,,,,,,,,,,,,,,,,10,,71,72
3720,note_on,,1,0,14,,,,,,,,,,,,,,,,13,,55,72
3720,note_on,,1,0,5,,,,,,,,,,,,,,,,1,,71,72
3720,note_on,,1,0,7,,,,,,,,,,,,,,,,5,,71,72
3720,note_on,,1,0,12,,,,,,,,,,,,,,,,11,,67,72
3720,note_on,,0,0,15,,,,,,,,,,,,,,,,15,,71,72
3720,note_on,,1,0,6,,,,,,,,,,,,,,,,2,,55,72
3720,note_on,,1,0,10,,,,,,,,,,,,,,,,8,,55,72
3779,note_on,,59,0,11,,,,,,,,,,,,,,,,10,,71,0
3779,note_on,,59,0,12,,,,,,,,,,,,,,,,11,,67,0
3779,note_on,,59,0,8,,,,,,,,,,,,,,,,6,,67,0
3780,note_on,,1,0,12,,,,,,,,,,,,,,,,11,,66,72
3780,note_on,,1,0,11,,,,,,,,,,,,,,,,10,,69,72
3780,note_on,,1,0,8,,,,,,,,,,,,,,,,6,,66,72
3809,note_on,,89,0,5,,,,,,,,,,,,,,,,1,,71,0
3809,note_on,,89,0,7,,,,,,,,,,,,,,,,5,,71,0
3809,note_on,,29,0,11,,,,,,,,,,,,,,,,10,,69,0
3810,note_on,,1,0,5,,,,,,,,,,,,,,,,1,,71,72
3810,note_on,,1,0,7,,,,,,,,,,,,,,,,5,,71,72
3810,note_on,,1,0,11,,,,,,,,,,,,,,,,10,,71,72
3839,note_on,,0,0,15,,,,,,,,,,,,,,,,15,,67,0
3839,note_on,,29,0,11,,,,,,,,,,,,,,,,10,,71,0
3839,note_on,,119,0,15,,,,,,,,,,,,,,,,15,,71,0
3839,note_on,,29,0,5,,,,,,,,,,,,,,,,1,,71,0
3839,note_on,,59,0,8,,,,,,,,,,,,,,,,6,,66,0
3839,note_on,,29,0,7,,,,,,,,,,,,,,,,5,,71,0
3839,note_on,,0,0,15,,,,,,,,,,,,,,,,15,,62,0
3839,note_on,,59,0,12,,,,,,,,,,,,,,,,11,,66,0
3840,note_on,,1,0,8,,,,,,,,,,,,,,,,6,,64,72
3840,note_on,,1,0,5,,,,,,,,,,,,,,,,1,,73,72
3840,note_on,,1,0,7,,,,,,,,,,,,,,,,5,,73,72
3840,note_on,,0,0,15,,,,,,,,,,,,,,,,15,,57,72
3840,note_on,,0,0,15,,,,,,,,,,,,,,,,15,,64,72
3840,note_on,,0,0,15,,,,,,,,,,,,,,,,15,,69,72
3840,note_on,,1,0,11,,,,,,,,,,,,,,,,10,,73,72
3840,note_on,,0,0,15,,,,,,,,,,,,,,,,15,,73,72
3840,note_on,,1,0,15,,,,,,,,,,,,,,,,15,,76,72
3840,note_on,,1,0,12,,,,,,,,,,,,,,,,11,,64,72
3959,note_on,,119,0,5,,,,,,,,,,,,,,,,1,,73,0
3959,note_on,,119,0,7,,,,,,,,,,,,,,,,5,,73,0
3959,note_on,,239,0,14,,,,,,,,,,,,,,,,13,,55,0
3959,note_on,,119,0,11,,,,,,,,,,,,,,,,10,,73,0
3959,note_on,,119,0,8,,,,,,,,,,,,,,,,6,,64,0
3959,note_on,,0,0,15,,,,,,,,,,,,,,,,15,,64,0
3959,note_on,,0,0,15,,,,,,,,,,,,,,,,15,,69,0
3959,note_on,,0,0,15,,,,,,,,,,,,,,,,15,,73,0
3959,note_on,,0,0,15,,,,,,,,,,,,,,,,15,,76,0
3959,note_on,,239,0,10,,,,,,,,,,,,,,,,8,,55,0
3959,note_on,,119,0,15,,,,,,,,,,,,,,,,15,,55,0
3959,note_on,,119,0,12,,,,,,,,,,,,,,,,11,,64,0
3959,note_on,,239,0,6,,,,,,,,,,,,,,,,2,,55,0
3960,note_on,,1,0,11,,,,,,,,,,,,,,,,10,,74,72
3960,note_on,,1,0,14,,,,,,,,,,,,,,,,13,,54,72
3960,note_on,,1,0,8,,,,,,,,,,,,,,,,6,,69,72
3960,note_on,,1,0,5,,,,,,,,,,,,,,,,1,,74,72
3960,note_on,,1,0,10,,,,,,,,,,,,,,,,8,,54,72
3960,note_on,,0,0,15,,,,,,,,,,,,,,,,15,,74,72
3960,note_on,,0,0,15,,,,,,,,,,,,,,,,15,,78,72
3960,note_on,,1,0,15,,,,,,,,,,,,,,,,15,,54,72
3960,note_on,,1,0,6,,,,,,,,,,,,,,,,2,,54,72
3960,note_on,,1,0,7,,,,,,,,,,,,,,,,5,,74,72
3960,note_on,,0,0,15,,,,,,,,,,,,,,,,15,,69,72
3960,note_on,,1,0,12,,,,,,,,,,,,,,,,11,,69,72
4079,note_on,,119,0,14,,,,,,,,,,,,,,,,13,,54,0
4079,note_on,,119,0,6,,,,,,,,,,,,,,,,2,,54,0
4079,note_on,,119,0,8,,,,,,,,,,,,,,,,6,,69,0
4079,note_on,,0,0,15,,,,,,,,,,,,,,,,15,,69,0
4079,note_on,,0,0,15,,,,,,,,,,,,,,,,15,,78,0
4079,note_on,,0,0,15,,,,,,,,,,,,,,,,15,,54,0
4079,note_on,,119,0,15,,,,,,,,,,,,,,,,15,,57,0
4079,note_on,,0,0,15,,,,,,,,,,,,,,,,15,,74,0
4079,note_on,,119,0,10,,,,,,,,,,,,,,,,8,,54,0
4079,note_on,,119,0,12,,,,,,,,,,,,,,,,11,,69,0
4080,note_on,,1,0,10,,,,,,,,,,,,,,,,8,,52,72
4080,note_on,,1,0,12,,,,,,,,,,,,,,,,11,,67,72
4080,note_on,,1,0,15,,,,,,,,,,,,,,,,15,,52,72
4080,note_on,,0,0,15,,,,,,,,,,,,,,,,15,,64,72
4080,note_on,,0,0,15,,,,,,,,,,,,,,,,15,,79,72
4080,note_on,,0,0,15,,,,,,,,,,,,,,,,15,,74,72
4080,note_on,,1,0,8,,,,,,,,,,,,,,,,6,,67,72
4080,note_on,,1,0,14,,,,,,,,,,,,,,,,13,,52,72
4080,note_on,,1,0,6,,,,,,,,,,,,,,,,2,,52,72
4080,note_on,,0,0,15,,,,,,,,,,,,,,,,15,,71,72
4199,note_on,,239,0,11,,,,,,,,,,,,,,,,10,,74,0
4199,note_on,,239,0,5,,,,,,,,,,,,,,,,1,,74,0
4199,note_on,,0,0,15,,,,,,,,,,,,,,,,15,,71,0
4199,note_on,,119,0,15,,,,,,,,,,,,,,,,15,,74,0
4199,note_on,,239,0,7,,,,,,,,,,,,,,,,5,,74,0
4200,note_on,,0,0,15,,,,,,,,,,,,,,,,15,,67,72
4200,note_on,,1,0,11,,,,,,,,,,,,,,,,10,,73,72
4200,note_on,,1,0,5,,,,,,,,,,,,,,,,1,,73,72
4200,note_on,,1,0,15,,,,,,,,,,,,,,,,15,,73,72
4200,note_on,,1,0,7,,,,,,,,,,,,,,,,5,,73,72
4259,note_on,,179,0,8,,,,,,,,,,,,,,,,6,,67,0
4259,note_on,,179,0,10,,,,,,,,,,,,,,,,8,,52,0
4259,note_on,,179,0,14,,,,,,,,,,,,,,,,13,,52,0
4259,note_on,,179,0,6,,,,,,,,,,,,,,,,2,,52,0
4259,note_on,,59,0,15,,,,,,,,,,,,,,,,15,,52,0
4259,note_on,,179,0,12,,,,,,,,,,,,,,,,11,,67,0
4260,note_on,,1,0,6,,,,,,,,,,,,,,,,2,,52,72
4260,note_on,,1,0,10,,,,,,,,,,,,,,,,8,,52,72
4260,note_on,,1,0,14,,,,,,,,,,,,,,,,13,,52,72
4260,note_on,,1,0,12,,,,,,,,,,,,,,,,11,,67,72
4260,note_on,,1,0,15,,,,,,,,,,,,,,,,15,,52,72
4260,note_on,,1,0,8,,,,,,,,,,,,,,,,6,,67,72
4319,note_on,,59,0,14,,,,,,,,,,,,,,,,13,,52,0
4319,note_on,,59,0,10,,,,,,,,,,,,,,,,8,,52,0
4319,note_on,,119,0,5,,,,,,,,,,,,,,,,1,,73,0
4319,note_on,,119,0,11,,,,,,,,,,,,,,,,10,,73,0
4319,note_on,,59,0,12,,,,,,,,,,,,,,,,11,,67,0
4319,note_on,,0,0,15,,,,,,,,,,,,,,,,15,,52,0
4319,note_on,,0,0,15,,,,,,,,,,,,,,,,15,,73,0
4319,note_on,,0,0,15,,,,,,,,,,,,,,,,15,,67,0
4319,note_on,,119,0,7,,,,,,,,,,,,,,,,5,,73,0
4319,note_on,,59,0,8,,,,,,,,,,,,,,,,6,,67,0
4319,note_on,,59,0,15,,,,,,,,,,,,,,,,15,,64,0
4319,note_on,,59,0,6,,,,,,,,,,,,,,,,2,,52,0
4319,note_on,,0,0,15,,,,,,,,,,,,,,,,15,,79,0
4320,note_on,,1,0,12,,,,,,,,,,,,,,,,11,,66,72
4320,note_on,,0,0,15,,,,,,,,,,,,,,,,15,,57,72
4320,note_on,,0,0,15,,,,,,,,,,,,,,,,15,,78,72
4320,note_on,,1,0,10,,,,,,,,,,,,,,,,8,,50,72
4320,note_on,,0,0,15,,,,,,,,,,,,,,,,15,,74,72
4320,note_on,,1,0,5,,,,,,,,,,,,,,,,1,,74,72
4320,note_on,,1,0,7,,,,,,,,,,,,,,,,5,,74,72
4320,note_on,,1,0,14,,,,,,,,,,,,,,,,13,,50,72
4320,note_on,,1,0,15,,,,,,,,,,,,,,,,15,,50,72
4320,note_on,,0,0,15,,,,,,,,,,,,,,,,15,,69,72
4320,note_on,,1,0,6,,,,,,,,,,,,,,,,2,,50,72
4320,note_on,,1,0,11,,,,,,,,,,,,,,,,10,,74,72
4320,note_on,,1,0,8,,,,,,,,,,,,,,,,6,,66,72
4379,note_on,,59,0,14,,,,,,,,,,,,,,,,13,,50,0
4379,note_on,,59,0,6,,,,,,,,,,,,,,,,2,,50,0
4379,note_on,,59,0,15,,,,,,,,,,,,,,,,15,,50,0
4379,note_on,,0,0,15,,,,,,,,,,,,,,,,15,,57,0
4380,note_on,,2821,0,13,,,,,,,,,,,,,,,,12,,57,72
4380,note_on,,1,0,14,,,,,,,,,,,,,,,,13,,57,72
4380,note_on,,1,0,6,,,,,,,,,,,,,,,,2,,57,72
4380,note_on,,1,0,15,,,,,,,,,,,,,,,,15,,57,72
4380,note_on,,2821,0,9,,,,,,,,,,,,,,,,7,,57,72
4439,note_on,,119,0,12,,,,,,,,,,,,,,,,11,,66,0
4439,note_on,,119,0,11,,,,,,,,,,,,,,,,10,,74,0
4439,note_on,,119,0,8,,,,,,,,,,,,,,,,6,,66,0
4439,note_on,,119,0,7,,,,,,,,,,,,,,,,5,,74,0
4439,note_on,,119,0,10,,,,,,,,,,,,,,,,8,,50,0
4439,note_on,,59,0,6,,,,,,,,,,,,,,,,2,,57,0
4439,note_on,,59,0,15,,,,,,,,,,,,,,,,15,,78,0
4439,note_on,,119,0,5,,,,,,,,,,,,,,,,1,,74,0
4439,note_on,,0,0,15,,,,,,,,,,,,,,,,15,,74,0
4439,note_on,,0,0,15,,,,,,,,,,,,,,,,15,,69,0
4439,note_on,,59,0,9,,,,,,,,,,,,,,,,7,,57,0
4439,note_on,,59,0,13,,,,,,,,,,,,,,,,12,,57,0
4439,note_on,,0,0,15,,,,,,,,,,,,,,,,15,,57,0
4439,note_on,,59,0,14,,,,,,,,,,,,,,,,13,,57,0
4440,note_on,,1,0,14,,,,,,,,,,,,,,,,13,,62,72
4440,note_on,,1,0,9,,,,,,,,,,,,,,,,7,,62,72
4440,note_on,,1,0,13,,,,,,,,,,,,,,,,12,,62,72
4440,note_on,,1,0,6,,,,,,,,,,,,,,,,2,,62,72
4440,note_on,,1,0,12,,,,,,,,,,,,,,,,11,,69,72
4440,note_on,,1,0,8,,,,,,,,,,,,,,,,6,,69,72
4440,note_on,,1,0,15,,,,,,,,,,,,,,,,15,,62,72
4440,note_on,,0,0,15,,,,,,,,,,,,,,,,15,,69,72
4499,note_on,,59,0,13,,,,,,,,,,,,,,,,12,,62,0
4499,note_on,,59,0,9,,,,,,,,,,,,,,,,7,,62,0
4499,note_on,,59,0,6,,,,,,,,,,,,,,,,2,,62,0
4499,note_on,,59,0,14,,,,,,,,,,,,,,,,13,,62,0
4499,note_on,,59,0,15,,,,,,,,,,,,,,,,15,,62,0
4500,note_on,,1,0,6,,,,,,,,,,,,,,,,2,,57,72
4500,note_on,,1,0,9,,,,,,,,,,,,,,,,7,,57,72
4500,note_on,,1,0,13,,,,,,,,,,,,,,,,12,,57,72
4500,note_on,,1,0,15,,,,,,,,,,,,,,,,15,,57,72
4500,note_on,,1,0,14,,,,,,,,,,,,,,,,13,,57,72
4559,note_on,,59,0,13,,,,,,,,,,,,,,,,12,,57,0
4559,note_on,,59,0,15,,,,,,,,,,,,,,,,15,,69,0
4559,note_on,,59,0,6,,,,,,,,,,,,,,,,2,,57,0
4559,note_on,,59,0,14,,,,,,,,,,,,,,,,13,,57,0
4559,note_on,,119,0,12,,,,,,,,,,,,,,,,11,,69,0
4559,note_on,,119,0,8,,,,,,,,,,,,,,,,6,,69,0
4559,note_on,,0,0,15,,,,,,,,,,,,,,,,15,,57,0
4559,note_on,,59,0,9,,,,,,,,,,,,,,,,7,,57,0
4560,note_on,,1,0,13,,,,,,,,,,,,,,,,12,,59,72
4560,note_on,,1,0,8,,,,,,,,,,,,,,,,6,,62,72
4560,note_on,,1,0,14,,,,,,,,,,,,,,,,13,,59,72
4560,note_on,,1,0,9,,,,,,,,,,,,,,,,7,,59,72
4560,note_on,,1,0,12,,,,,,,,,,,,,,,,11,,62,72
4560,note_on,,0,0,15,,,,,,,,,,,,,,,,15,,62,72
4560,note_on,,1,0,6,,,,,,,,,,,,,,,,2,,59,72
4560,note_on,,1,0,15,,,,,,,,,,,,,,,,15,,59,72
4619,note_on,,59,0,14,,,,,,,,,,,,,,,,13,,59,0
4619,note_on,,59,0,13,,,,,,,,,,,,,,,,12,,59,0
4619,note_on,,59,0,15,,,,,,,,,,,,,,,,15,,59,0
4619,note_on,,59,0,6,,,,,,,,,,,,,,,,2,,59,0
4619,note_on,,59,0,9,,,,,,,,,,,,,,,,7,,59,0
4620,note_on,,1,0,14,,,,,,,,,,,,,,,,13,,57,72
4620,note_on,,1,0,6,,,,,,,,,,,,,,,,2,,57,72
4620,note_on,,1,0,13,,,,,,,,,,,,,,,,12,,57,72
4620,note_on,,1,0,9,,,,,,,,,,,,,,,,7,,57,72
4620,note_on,,1,0,15,,,,,,,,,,,,,,,,15,,57,72
4649,note_on,,29,0,13,,,,,,,,,,,,,,,,12,,57,0
4649,note_on,,29,0,14,,,,,,,,,,,,,,,,13,,57,0
4649,note_on,,29,0,9,,,,,,,,,,,,,,,,7,,57,0
4649,note_on,,29,0,15,,,,,,,,,,,,,,,,15,,57,0
4649,note_on,,29,0,6,,,,,,,,,,,,,,,,2,,57,0
4650,note_on,,1,0,6,,,,,,,,,,,,,,,,2,,55,72
4650,note_on,,1,0,14,,,,,,,,,,,,,,,,13,,55,72
4650,note_on,,1,0,13,,,,,,,,,,,,,,,,12,,55,72
4650,note_on,,1,0,9,,,,,,,,,,,,,,,,7,,55,72
4650,note_on,,1,0,15,,,,,,,,,,,,,,,,15,,55,72
4679,note_on,,29,0,6,,,,,,,,,,,,,,,,2,,55,0
4679,note_on,,29,0,14,,,,,,,,,,,,,,,,13,,55,0
4679,note_on,,29,0,15,,,,,,,,,,,,,,,,15,,62,0
4679,note_on,,0,0,15,,,,,,,,,,,,,,,,15,,55,0
4679,note_on,,119,0,8,,,,,,,,,,,,,,,,6,,62,0
4679,note_on,,29,0,9,,,,,,,,,,,,,,,,7,,55,0
4679,note_on,,119,0,12,,,,,,,,,,,,,,,,11,,62,0
4679,note_on,,29,0,13,,,,,,,,,,,,,,,,12,,55,0
4680,note_on,,1,0,13,,,,,,,,,,,,,,,,12,,54,72
4680,note_on,,1,0,8,,,,,,,,,,,,,,,,6,,69,72
4680,note_on,,1,0,15,,,,,,,,,,,,,,,,15,,54,72
4680,note_on,,0,0,15,,,,,,,,,,,,,,,,15,,69,72
4680,note_on,,1,0,14,,,,,,,,,,,,,,,,13,,54,72
4680,note_on,,1,0,12,,,,,,,,,,,,,,,,11,,69,72
4680,note_on,,1,0,6,,,,,,,,,,,,,,,,2,,54,72
4680,note_on,,1,0,9,,,,,,,,,,,,,,,,7,,54,72
4739,note_on,,59,0,14,,,,,,,,,,,,,,,,13,,54,0
4739,note_on,,59,0,6,,,,,,,,,,,,,,,,2,,54,0
4739,note_on,,59,0,15,,,,,,,,,,,,,,,,15,,54,0
4739,note_on,,59,0,9,,,,,,,,,,,,,,,,7,,54,0
4739,note_on,,59,0,13,,,,,,,,,,,,,,,,12,,54,0
4740,note_on,,1,0,6,,,,,,,,,,,,,,,,2,,52,72
4740,note_on,,1,0,15,,,,,,,,,,,,,,,,15,,52,72
4740,note_on,,1,0,14,,,,,,,,,,,,,,,,13,,52,72
4740,note_on,,1,0,9,,,,,,,,,,,,,,,,7,,52,72
4740,note_on,,1,0,13,,,,,,,,,,,,,,,,12,,52,72
4769,note_on,,29,0,13,,,,,,,,,,,,,,,,12,,52,0
4769,note_on,,29,0,14,,,,,,,,,,,,,,,,13,,52,0
4769,note_on,,29,0,6,,,,,,,,,,,,,,,,2,,52,0
4769,note_on,,29,0,9,,,,,,,,,,,,,,,,7,,52,0
4769,note_on,,29,0,15,,,,,,,,,,,,,,,,15,,52,0
4770,note_on,,1,0,13,,,,,,,,,,,,,,,,12,,54,72
4770,note_on,,1,0,9,,,,,,,,,,,,,,,,7,,54,72
4770,note_on,,1,0,6,,,,,,,,,,,,,,,,2,,54,72
4770,note_on,,1,0,15,,,,,,,,,,,,,,,,15,,54,72
4770,note_on,,1,0,14,,,,,,,,,,,,,,,,13,,54,72
4799,note_on,,29,0,9,,,,,,,,,,,,,,,,7,,54,0
4799,note_on,,29,0,13,,,,,,,,,,,,,,,,12,,54,0
4799,note_on,,29,0,6,,,,,,,,,,,,,,,,2,,54,0
4799,note_on,,119,0,12,,,,,,,,,,,,,,,,11,,69,0
4799,note_on,,29,0,14,,,,,,,,,,,,,,,,13,,54,0
4799,note_on,,119,0,8,,,,,,,,,,,,,,,,6,,69,0
4799,note_on,,29,0,15,,,,,,,,,,,,,,,,15,,69,0
4799,note_on,,0,0,15,,,,,,,,,,,,,,,,15,,54,0
4800,note_on,,1,0,14,,,,,,,,,,,,,,,,13,,55,72
4800,note_on,,1,0,13,,,,,,,,,,,,,,,,12,,55,72
4800,note_on,,1,0,12,,,,,,,,,,,,,,,,11,,71,72
4800,note_on,,1,0,8,,,,,,,,,,,,,,,,6,,71,72
4800,note_on,,1,0,15,,,,,,,,,,,,,,,,15,,55,72
4800,note_on,,0,0,15,,,,,,,,,,,,,,,,15,,71,72
4800,note_on,,1,0,9,,,,,,,,,,,,,,,,7,,55,72
4800,note_on,,1,0,6,,,,,,,,,,,,,,,,2,,55,72
4859,note_on,,59,0,13,,,,,,,,,,,,,,,,12,,55,0
4859,note_on,,59,0,15,,,,,,,,,,,,,,,,15,,55,0
4859,note_on,,59,0,6,,,,,,,,,,,,,,,,2,,55,0
4859,note_on,,59,0,9,,,,,,,,,,,,,,,,7,,55,0
4859,note_on,,59,0,14,,,,,,,,,,,,,,,,13,,55,0
4860,note_on,,1,0,9,,,,,,,,,,,,,,,,7,,59,72
4860,note_on,,1,0,15,,,,,,,,,,,,,,,,15,,59,72
4860,note_on,,1,0,6,,,,,,,,,,,,,,,,2,,59,72
4860,note_on,,1,0,13,,,,,,,,,,,,,,,,12,,59,72
4860,note_on,,1,0,14,,,,,,,,,,,,,,,,13,,59,72
4919,note_on,,0,0,15,,,,,,,,,,,,,,,,15,,59,0
4919,note_on,,59,0,15,,,,,,,,,,,,,,,,15,,71,0
4919,note_on,,59,0,6,,,,,,,,,,,,,,,,2,,59,0
4919,note_on,,59,0,9,,,,,,,,,,,,,,,,7,,59,0
4919,note_on,,59,0,14,,,,,,,,,,,,,,,,13,,59,0
4919,note_on,,59,0,13,,,,,,,,,,,,,,,,12,,59,0
4919,note_on,,119,0,8,,,,,,,,,,,,,,,,6,,71,0
4919,note_on,,119,0,12,,,,,,,,,,,,,,,,11,,71,0
4920,note_on,,1,0,14,,,,,,,,,,,,,,,,13,,61,72
4920,note_on,,1,0,13,,,,,,,,,,,,,,,,12,,61,72
4920,note_on,,1,0,12,,,,,,,,,,,,,,,,11,,69,72
4920,note_on,,1,0,8,,,,,,,,,,,,,,,,6,,69,72
4920,note_on,,1,0,9,,,,,,,,,,,,,,,,7,,61,72
4920,note_on,,1,0,6,,,,,,,,,,,,,,,,2,,61,72
4920,note_on,,0,0,15,,,,,,,,,,,,,,,,15,,69,72
4920,note_on,,1,0,15,,,,,,,,,,,,,,,,15,,61,72
4979,note_on,,59,0,12,,,,,,,,,,,,,,,,11,,69,0
4979,note_on,,59,0,8,,,,,,,,,,,,,,,,6,,69,0
4979,note_on,,59,0,14,,,,,,,,,,,,,,,,13,,61,0
4979,note_on,,59,0,6,,,,,,,,,,,,,,,,2,,61,0
4979,note_on,,0,0,15,,,,,,,,,,,,,,,,15,,69,0
4979,note_on,,59,0,15,,,,,,,,,,,,,,,,15,,61,0
4980,note_on,,1,0,12,,,,,,,,,,,,,,,,11,,67,72
4980,note_on,,1,0,8,,,,,,,,,,,,,,,,6,,67,72
4980,note_on,,1,0,14,,,,,,,,,,,,,,,,13,,59,72
4980,note_on,,0,0,15,,,,,,,,,,,,,,,,15,,67,72
4980,note_on,,1,0,15,,,,,,,,,,,,,,,,15,,59,72
4980,note_on,,1,0,6,,,,,,,,,,,,,,,,2,,59,72
5009,note_on,,89,0,13,,,,,,,,,,,,,,,,12,,61,0
5009,note_on,,29,0,15,,,,,,,,,,,,,,,,15,,59,0
5009,note_on,,89,0,9,,,,,,,,,,,,,,,,7,,61,0
5009,note_on,,29,0,6,,,,,,,,,,,,,,,,2,,59,0
5009,note_on,,29,0,14,,,,,,,,,,,,,,,,13,,59,0
5010,note_on,,1,0,14,,,,,,,,,,,,,,,,13,,61,72
5010,note_on,,1,0,15,,,,,,,,,,,,,,,,15,,61,72
5010,note_on,,1,0,9,,,,,,,,,,,,,,,,7,,61,72
5010,note_on,,1,0,13,,,,,,,,,,,,,,,,12,,61,72
5010,note_on,,1,0,6,,,,,,,,,,,,,,,,2,,61,72
5039,note_on,,29,0,9,,,,,,,,,,,,,,,,7,,61,0
5039,note_on,,59,0,12,,,,,,,,,,,,,,,,11,,67,0
5039,note_on,,59,0,8,,,,,,,,,,,,,,,,6,,67,0
5039,note_on,,29,0,6,,,,,,,,,,,,,,,,2,,61,0
5039,note_on,,0,0,15,,,,,,,,,,,,,,,,15,,61,0
5039,note_on,,29,0,15,,,,,,,,,,,,,,,,15,,67,0
5039,note_on,,29,0,13,,,,,,,,,,,,,,,,12,,61,0
5039,note_on,,29,0,14,,,,,,,,,,,,,,,,13,,61,0
5040,note_on,,0,0,15,,,,,,,,,,,,,,,,15,,66,72
5040,note_on,,1,0,6,,,,,,,,,,,,,,,,2,,62,72
5040,note_on,,1,0,13,,,,,,,,,,,,,,,,12,,62,72
5040,note_on,,1,0,12,,,,,,,,,,,,,,,,11,,66,72
5040,note_on,,1,0,14,,,,,,,,,,,,,,,,13,,62,72
5040,note_on,,1,0,8,,,,,,,,,,,,,,,,6,,66,72
5040,note_on,,1,0,15,,,,,,,,,,,,,,,,15,,62,72
5040,note_on,,1,0,9,,,,,,,,,,,,,,,,7,,62,72
5100,note_on,,661,0,7,,,,,,,,,,,,,,,,5,,69,72
5100,note_on,,661,0,11,,,,,,,,,,,,,,,,10,,69,72
5100,note_on,,661,0,5,,,,,,,,,,,,,,,,1,,69,72
5159,note_on,,119,0,6,,,,,,,,,,,,,,,,2,,62,0
5159,note_on,,59,0,5,,,,,,,,,,,,,,,,1,,69,0
5159,note_on,,59,0,7,,,,,,,,,,,,,,,,5,,69,0
5159,note_on,,119,0,14,,,,,,,,,,,,,,,,13,,62,0
5159,note_on,,0,0,15,,,,,,,,,,,,,,,,15,,66,0
5159,note_on,,119,0,15,,,,,,,,,,,,,,,,15,,62,0
5159,note_on,,59,0,11,,,,,,,,,,,,,,,,10,,69,0
5160,note_on,,0,0,15,,,,,,,,,,,,,,,,15,,66,72
5160,note_on,,0,0,15,,,,,,,,,,,,,,,,15,,69,72
5160,note_on,,0,0,15,,,,,,,,,,,,,,,,15,,50,72
5160,note_on,,1,0,15,,,,,,,,,,,,,,,,15,,57,72
5160,note_on,,721,0,10,,,,,,,,,,,,,,,,8,,50,72
5160,note_on,,0,0,15,,,,,,,,,,,,,,,,15,,62,72
5160,note_on,,1,0,6,,,,,,,,,,,,,,,,2,,50,72
5160,note_on,,1,0,11,,,,,,,,,,,,,,,,10,,74,72
5160,note_on,,1,0,5,,,,,,,,,,,,,,,,1,,74,72
5160,note_on,,1,0,7,,,,,,,,,,,,,,,,5,,74,72
5160,note_on,,1,0,14,,,,,,,,,,,,,,,,13,,50,72
5219,note_on,,59,0,11,,,,,,,,,,,,,,,,10,,74,0
5219,note_on,,59,0,5,,,,,,,,,,,,,,,,1,,74,0
5219,note_on,,59,0,7,,,,,,,,,,,,,,,,5,,74,0
5220,note_on,,1,0,7,,,,,,,,,,,,,,,,5,,69,72
5220,note_on,,1,0,11,,,,,,,,,,,,,,,,10,,69,72
5220,note_on,,1,0,5,,,,,,,,,,,,,,,,1,,69,72
5279,note_on,,119,0,6,,,,,,,,,,,,,,,,2,,50,0
5279,note_on,,0,0,15,,,,,,,,,,,,,,,,15,,66,0
5279,note_on,,0,0,15,,,,,,,,,,,,,,,,15,,62,0
5279,note_on,,119,0,10,,,,,,,,,,,,,,,,8,,50,0
5279,note_on,,239,0,13,,,,,,,,,,,,,,,,12,,62,0
5279,note_on,,239,0,8,,,,,,,,,,,,,,,,6,,66,0
5279,note_on,,0,0,15,,,,,,,,,,,,,,,,15,,69,0
5279,note_on,,59,0,11,,,,,,,,,,,,,,,,10,,69,0
5279,note_on,,119,0,15,,,,,,,,,,,,,,,,15,,57,0
5279,note_on,,119,0,14,,,,,,,,,,,,,,,,13,,50,0
5279,note_on,,59,0,5,,,,,,,,,,,,,,,,1,,69,0
5279,note_on,,239,0,9,,,,,,,,,,,,,,,,7,,62,0
5279,note_on,,59,0,7,,,,,,,,,,,,,,,,5,,69,0
5279,note_on,,0,0,15,,,,,,,,,,,,,,,,15,,50,0
5279,note_on,,239,0,12,,,,,,,,,,,,,,,,11,,66,0
5280,note_on,,1,0,5,,,,,,,,,,,,,,,,1,,71,72
5280,note_on,,1,0,12,,,,,,,,,,,,,,,,11,,62,72
5280,note_on,,0,0,15,,,,,,,,,,,,,,,,15,,62,72
5280,note_on,,0,0,15,,,,,,,,,,,,,,,,15,,67,72
5280,note_on,,1,0,7,,,,,,,,,,,,,,,,5,,71,72
5280,note_on,,1,0,15,,,,,,,,,,,,,,,,15,,55,72
5280,note_on,,1,0,13,,,,,,,,,,,,,,,,12,,62,72
5280,note_on,,1,0,10,,,,,,,,,,,,,,,,8,,55,72
5280,note_on,,1,0,6,,,,,,,,,,,,,,,,2,,55,72
5280,note_on,,1,0,11,,,,,,,,,,,,,,,,10,,71,72
5280,note_on,,1,0,14,,,,,,,,,,,,,,,,13,,55,72
5280,note_on,,1,0,9,,,,,,,,,,,,,,,,7,,62,72
5280,note_on,,0,0,15,,,,,,,,,,,,,,,,15,,71,72
5280,note_on,,1,0,8,,,,,,,,,,,,,,,,6,,62,72
5339,note_on,,59,0,5,,,,,,,,,,,,,,,,1,,71,0
5339,note_on,,59,0,11,,,,,,,,,,,,,,,,10,,71,0
5339,note_on,,59,0,7,,,,,,,,,,,,,,,,5,,71,0
5340,note_on,,1,0,5,,,,,,,,,,,,,,,,1,,69,72
5340,note_on,,1,0,11,,,,,,,,,,,,,,,,10,,69,72
5340,note_on,,1,0,7,,,,,,,,,,,,,,,,5,,69,72
5369,note_on,,29,0,11,,,,,,,,,,,,,,,,10,,69,0
5369,note_on,,29,0,5,,,,,,,,,,,,,,,,1,,69,0
5369,note_on,,29,0,7,,,,,,,,,,,,,,,,5,,69,0
5370,note_on,,1,0,7,,,,,,,,,,,,,,,,5,,67,72
5370,note_on,,1,0,5,,,,,,,,,,,,,,,,1,,67,72
5370,note_on,,1,0,11,,,,,,,,,,,,,,,,10,,67,72
5399,note_on,,29,0,7,,,,,,,,,,,,,,,,5,,67,0
5399,note_on,,119,0,6,,,,,,,,,,,,,,,,2,,55,0
5399,note_on,,119,0,10,,,,,,,,,,,,,,,,8,,55,0
5399,note_on,,29,0,11,,,,,,,,,,,,,,,,10,,67,0
5399,note_on,,119,0,14,,,,,,,,,,,,,,,,13,,55,0
5399,note_on,,29,0,5,,,,,,,,,,,,,,,,1,,67,0
5399,note_on,,0,0,15,,,,,,,,,,,,,,,,15,,71,0
5399,note_on,,0,0,15,,,,,,,,,,,,,,,,15,,67,0
5399,note_on,,119,0,15,,,,,,,,,,,,,,,,15,,55,0
5399,note_on,,0,0,15,,,,,,,,,,,,,,,,15,,62,0
5400,note_on,,1,0,5,,,,,,,,,,,,,,,,1,,66,72
5400,note_on,,1,0,11,,,,,,,,,,,,,,,,10,,66,72
5400,note_on,,1,0,14,,,,,,,,,,,,,,,,13,,50,72
5400,note_on,,1,0,6,,,,,,,,,,,,,,,,2,,50,72
5400,note_on,,1,0,7,,,,,,,,,,,,,,,,5,,66,72
5400,note_on,,1,0,15,,,,,,,,,,,,,,,,15,,50,72
5400,note_on,,0,0,15,,,,,,,,,,,,,,,,15,,62,72
5400,note_on,,0,0,15,,,,,,,,,,,,,,,,15,,74,72
5400,note_on,,0,0,15,,,,,,,,,,,,,,,,15,,66,72
5400,note_on,,0,0,15,,,,,,,,,,,,,,,,15,,69,72
5400,note_on,,1,0,10,,,,,,,,,,,,,,,,8,,50,72
5459,note_on,,59,0,5,,,,,,,,,,,,,,,,1,,66,0
5459,note_on,,59,0,7,,,,,,,,,,,,,,,,5,,66,0
5459,note_on,,179,0,8,,,,,,,,,,,,,,,,6,,62,0
5459,note_on,,179,0,13,,,,,,,,,,,,,,,,12,,62,0
5459,note_on,,179,0,9,,,,,,,,,,,,,,,,7,,62,0
5459,note_on,,59,0,11,,,,,,,,,,,,,,,,10,,66,0
5459,note_on,,179,0,12,,,,,,,,,,,,,,,,11,,62,0
5460,note_on,,1,0,8,,,,,,,,,,,,,,,,6,,69,72
5460,note_on,,1,0,11,,,,,,,,,,,,,,,,10,,64,72
5460,note_on,,1,0,7,,,,,,,,,,,,,,,,5,,64,72
5460,note_on,,1,0,5,,,,,,,,,,,,,,,,1,,64,72
5460,note_on,,1,0,12,,,,,,,,,,,,,,,,11,,69,72
5460,note_on,,1,0,9,,,,,,,,,,,,,,,,7,,60,72
5460,note_on,,1,0,13,,,,,,,,,,,,,,,,12,,60,72
5489,note_on,,29,0,7,,,,,,,,,,,,,,,,5,,64,0
5489,note_on,,29,0,11,,,,,,,,,,,,,,,,10,,64,0
5489,note_on,,29,0,5,,,,,,,,,,,,,,,,1,,64,0
5490,note_on,,1,0,11,,,,,,,,,,,,,,,,10,,66,72
5490,note_on,,1,0,7,,,,,,,,,,,,,,,,5,,66,72
5490,note_on,,1,0,5,,,,,,,,,,,,,,,,1,,66,72
5519,note_on,,0,0,15,,,,,,,,,,,,,,,,15,,69,0
5519,note_on,,59,0,9,,,,,,,,,,,,,,,,7,,60,0
5519,note_on,,119,0,14,,,,,,,,,,,,,,,,13,,50,0
5519,note_on,,119,0,6,,,,,,,,,,,,,,,,2,,50,0
5519,note_on,,119,0,10,,,,,,,,,,,,,,,,8,,50,0
5519,note_on,,0,0,15,,,,,,,,,,,,,,,,15,,66,0
5519,note_on,,0,0,15,,,,,,,,,,,,,,,,15,,74,0
5519,note_on,,0,0,15,,,,,,,,,,,,,,,,15,,62,0
5519,note_on,,119,0,15,,,,,,,,,,,,,,,,15,,50,0
5519,note_on,,29,0,7,,,,,,,,,,,,,,,,5,,66,0
5519,note_on,,59,0,8,,,,,,,,,,,,,,,,6,,69,0
5519,note_on,,29,0,11,,,,,,,,,,,,,,,,10,,66,0
5519,note_on,,29,0,5,,,,,,,,,,,,,,,,1,,66,0
5519,note_on,,59,0,12,,,,,,,,,,,,,,,,11,,69,0
5519,note_on,,59,0,13,,,,,,,,,,,,,,,,12,,60,0
5520,note_on,,1,0,8,,,,,,,,,,,,,,,,6,,67,72
5520,note_on,,1,0,10,,,,,,,,,,,,,,,,8,,52,72
5520,note_on,,0,0,15,,,,,,,,,,,,,,,,15,,67,72
5520,note_on,,0,0,15,,,,,,,,,,,,,,,,15,,71,72
5520,note_on,,0,0,15,,,,,,,,,,,,,,,,15,,64,72
5520,note_on,,0,0,15,,,,,,,,,,,,,,,,15,,55,72
5520,note_on,,1,0,15,,,,,,,,,,,,,,,,15,,52,72
5520,note_on,,1,0,6,,,,,,,,,,,,,,,,2,,52,72
5520,note_on,,1,0,14,,,,,,,,,,,,,,,,13,,52,72
5520,note_on,,1,0,13,,,,,,,,,,,,,,,,12,,59,72
5520,note_on,,1,0,12,,,,,,,,,,,,,,,,11,,67,72
5520,note_on,,1,0,7,,,,,,,,,,,,,,,,5,,67,72
5520,note_on,,1,0,5,,,,,,,,,,,,,,,,1,,67,72
5520,note_on,,1,0,9,,,,,,,,,,,,,,,,7,,59,72
5520,note_on,,1,0,11,,,,,,,,,,,,,,,,10,,67,72
5579,note_on,,59,0,7,,,,,,,,,,,,,,,,5,,67,0
5579,note_on,,59,0,15,,,,,,,,,,,,,,,,15,,67,0
5579,note_on,,59,0,5,,,,,,,,,,,,,,,,1,,67,0
5579,note_on,,59,0,11,,,,,,,,,,,,,,,,10,,67,0
5580,note_on,,1,0,5,,,,,,,,,,,,,,,,1,,69,72
5580,note_on,,1,0,15,,,,,,,,,,,,,,,,15,,66,72
5580,note_on,,1,0,11,,,,,,,,,,,,,,,,10,,69,72
5580,note_on,,1,0,7,,,,,,,,,,,,,,,,5,,69,72
5639,note_on,,119,0,12,,,,,,,,,,,,,,,,11,,67,0
5639,note_on,,119,0,10,,,,,,,,,,,,,,,,8,,52,0
5639,note_on,,119,0,6,,,,,,,,,,,,,,,,2,,52,0
5639,note_on,,119,0,14,,,,,,,,,,,,,,,,13,,52,0
5639,note_on,,59,0,5,,,,,,,,,,,,,,,,1,,69,0
5639,note_on,,59,0,11,,,,,,,,,,,,,,,,10,,69,0
5639,note_on,,59,0,7,,,,,,,,,,,,,,,,5,,69,0
5639,note_on,,119,0,8,,,,,,,,,,,,,,,,6,,67,0
5639,note_on,,0,0,15,,,,,,,,,,,,,,,,15,,66,0
5639,note_on,,59,0,15,,,,,,,,,,,,,,,,15,,52,0
5640,note_on,,1,0,10,,,,,,,,,,,,,,,,8,,50,72
5640,note_on,,1,0,6,,,,,,,,,,,,,,,,2,,50,72
5640,note_on,,1,0,11,,,,,,,,,,,,,,,,10,,71,72
5640,note_on,,1,0,5,,,,,,,,,,,,,,,,1,,71,72
5640,note_on,,0,0,15,,,,,,,,,,,,,,,,15,,67,72
5640,note_on,,1,0,7,,,,,,,,,,,,,,,,5,,71,72
5640,note_on,,1,0,15,,,,,,,,,,,,,,,,15,,50,72
5640,note_on,,1,0,14,,,,,,,,,,,,,,,,13,,50,72
5699,note_on,,59,0,7,,,,,,,,,,,,,,,,5,,71,0
5699,note_on,,59,0,11,,,,,,,,,,,,,,,,10,,71,0
5699,note_on,,59,0,14,,,,,,,,,,,,,,,,13,,50,0
5699,note_on,,59,0,15,,,,,,,,,,,,,,,,15,,71,0
5699,note_on,,0,0,15,,,,,,,,,,,,,,,,15,,50,0
5699,note_on,,0,0,15,,,,,,,,,,,,,,,,15,,67,0
5699,note_on,,59,0,10,,,,,,,,,,,,,,,,8,,50,0
5699,note_on,,179,0,13,,,,,,,,,,,,,,,,12,,59,0
5699,note_on,,179,0,9,,,,,,,,,,,,,,,,7,,59,0
5699,note_on,,59,0,6,,,,,,,,,,,,,,,,2,,50,0
5699,note_on,,59,0,5,,,,,,,,,,,,,,,,1,,71,0
5700,note_on,,1,0,13,,,,,,,,,,,,,,,,12,,57,72
5700,note_on,,1,0,5,,,,,,,,,,,,,,,,1,,72,72
5700,note_on,,1,0,10,,,,,,,,,,,,,,,,8,,48,72
5700,note_on,,1,0,6,,,,,,,,,,,,,,,,2,,48,72
5700,note_on,,0,0,15,,,,,,,,,,,,,,,,15,,72,72
5700,note_on,,1,0,9,,,,,,,,,,,,,,,,7,,57,72
5700,note_on,,1,0,14,,,,,,,,,,,,,,,,13,,48,72
5700,note_on,,1,0,11,,,,,,,,,,,,,,,,10,,72,72
5700,note_on,,1,0,7,,,,,,,,,,,,,,,,5,,72,72
5700,note_on,,1,0,15,,,,,,,,,,,,,,,,15,,48,72
5700,note_on,,0,0,15,,,,,,,,,,,,,,,,15,,69,72
5759,note_on,,59,0,13,,,,,,,,,,,,,,,,12,,57,0
5759,note_on,,59,0,5,,,,,,,,,,,,,,,,1,,72,0
5759,note_on,,59,0,14,,,,,,,,,,,,,,,,13,,48,0
5759,note_on,,59,0,11,,,,,,,,,,,,,,,,10,,72,0
5759,note_on,,0,0,15,,,,,,,,,,,,,,,,15,,69,0
5759,note_on,,59,0,7,,,,,,,,,,,,,,,,5,,72,0
5759,note_on,,0,0,15,,,,,,,,,,,,,,,,15,,72,0
5759,note_on,,59,0,10,,,,,,,,,,,,,,,,8,,48,0
5759,note_on,,59,0,15,,,,,,,,,,,,,,,,15,,55,0
5759,note_on,,0,0,15,,,,,,,,,,,,,,,,15,,64,0
5759,note_on,,59,0,6,,,,,,,,,,,,,,,,2,,48,0
5759,note_on,,59,0,9,,,,,,,,,,,,,,,,7,,57,0
5759,note_on,,0,0,15,,,,,,,,,,,,,,,,15,,48,0
5760,note_on,,1,0,7,,,,,,,,,,,,,,,,5,,74,72
5760,note_on,,1,0,15,,,,,,,,,,,,,,,,15,,47,72
5760,note_on,,1,0,10,,,,,,,,,,,,,,,,8,,47,72
5760,note_on,,1,0,5,,,,,,,,,,,,,,,,1,,74,72
5760,note_on,,1,0,14,,,,,,,,,,,,,,,,13,,47,72
5760,note_on,,0,0,15,,,,,,,,,,,,,,,,15,,55,72
5760,note_on,,0,0,15,,,,,,,,,,,,,,,,15,,62,72
5760,note_on,,0,0,15,,,,,,,,,,,,,,,,15,,74,72
5760,note_on,,1,0,11,,,,,,,,,,,,,,,,10,,74,72
5760,note_on,,1,0,13,,,,,,,,,,,,,,,,12,,55,72
5760,note_on,,0,0,15,,,,,,,,,,,,,,,,15,,71,72
5760,note_on,,1,0,6,,,,,,,,,,,,,,,,2,,47,72
5760,note_on,,1,0,9,,,,,,,,,,,,,,,,7,,55,72
5879,note_on,,0,0,15,,,,,,,,,,,,,,,,15,,74,0
5879,note_on,,119,0,15,,,,,,,,,,,,,,,,15,,55,0
5879,note_on,,0,0,15,,,,,,,,,,,,,,,,15,,62,0
5879,note_on,,119,0,11,,,,,,,,,,,,,,,,10,,74,0
5879,note_on,,119,0,5,,,,,,,,,,,,,,,,1,,74,0
5879,note_on,,0,0,15,,,,,,,,,,,,,,,,15,,71,0
5879,note_on,,119,0,7,,,,,,,,,,,,,,,,5,,74,0
5880,note_on,,1,0,7,,,,,,,,,,,,,,,,5,,79,72
5880,note_on,,1,0,11,,,,,,,,,,,,,,,,10,,79,72
5880,note_on,,1,0,15,,,,,,,,,,,,,,,,15,,62,72
5880,note_on,,0,0,15,,,,,,,,,,,,,,,,15,,67,72
5880,note_on,,1,0,5,,,,,,,,,,,,,,,,1,,79,72
5880,note_on,,0,0,15,,,,,,,,,,,,,,,,15,,71,72
5939,note_on,,179,0,6,,,,,,,,,,,,,,,,2,,47,0
5939,note_on,,179,0,9,,,,,,,,,,,,,,,,7,,55,0
5939,note_on,,179,0,10,,,,,,,,,,,,,,,,8,,47,0
5939,note_on,,179,0,13,,,,,,,,,,,,,,,,12,,55,0
5939,note_on,,59,0,15,,,,,,,,,,,,,,,,15,,47,0
5939,note_on,,179,0,14,,,,,,,,,,,,,,,,13,,47,0
5940,note_on,,1,0,6,,,,,,,,,,,,,,,,2,,49,72
5940,note_on,,1,0,9,,,,,,,,,,,,,,,,7,,64,72
5940,note_on,,1,0,15,,,,,,,,,,,,,,,,15,,49,72
5940,note_on,,1,0,10,,,,,,,,,,,,,,,,8,,49,72
5940,note_on,,1,0,14,,,,,,,,,,,,,,,,13,,49,72
5940,note_on,,1,0,13,,,,,,,,,,,,,,,,12,,64,72
5999,note_on,,59,0,14,,,,,,,,,,,,,,,,13,,49,0
5999,note_on,,59,0,10,,,,,,,,,,,,,,,,8,,49,0
5999,note_on,,59,0,15,,,,,,,,,,,,,,,,15,,71,0
5999,note_on,,59,0,9,,,,,,,,,,,,,,,,7,,64,0
5999,note_on,,0,0,15,,,,,,,,,,,,,,,,15,,49,0
5999,note_on,,59,0,6,,,,,,,,,,,,,,,,2,,49,0
5999,note_on,,59,0,13,,,,,,,,,,,,,,,,12,,64,0
6000,note_on,,1,0,13,,,,,,,,,,,,,,,,12,,57,72
6000,note_on,,0,0,15,,,,,,,,,,,,,,,,15,,69,72
6000,note_on,,1,0,14,,,,,,,,,,,,,,,,13,,50,72
6000,note_on,,0,0,15,,,,,,,,,,,,,,,,15,,57,72
6000,note_on,,1,0,15,,,,,,,,,,,,,,,,15,,50,72
6000,note_on,,1,0,6,,,,,,,,,,,,,,,,2,,50,72
6000,note_on,,1,0,9,,,,,,,,,,,,,,,,7,,57,72
6000,note_on,,1,0,10,,,,,,,,,,,,,,,,8,,50,72
6059,note_on,,59,0,10,,,,,,,,,,,,,,,,8,,50,0
6059,note_on,,59,0,6,,,,,,,,,,,,,,,,2,,50,0
6059,note_on,,59,0,15,,,,,,,,,,,,,,,,15,,50,0
6059,note_on,,59,0,14,,,,,,,,,,,,,,,,13,,50,0
6060,note_on,,1,0,10,,,,,,,,,,,,,,,,8,,52,72
6060,note_on,,1,0,6,,,,,,,,,,,,,,,,2,,52,72
6060,note_on,,1,0,15,,,,,,,,,,,,,,,,15,,52,72
6060,note_on,,1,0,14,,,,,,,,,,,,,,,,13,,52,72
6119,note_on,,59,0,15,,,,,,,,,,,,,,,,15,,62,0
6119,note_on,,119,0,9,,,,,,,,,,,,,,,,7,,57,0
6119,note_on,,0,0,15,,,,,,,,,,,,,,,,15,,52,0
6119,note_on,,59,0,6,,,,,,,,,,,,,,,,2,,52,0
6119,note_on,,239,0,7,,,,,,,,,,,,,,,,5,,79,0
6119,note_on,,239,0,11,,,,,,,,,,,,,,,,10,,79,0
6119,note_on,,239,0,5,,,,,,,,,,,,,,,,1,,79,0
6119,note_on,,59,0,14,,,,,,,,,,,,,,,,13,,52,0
6119,note_on,,119,0,13,,,,,,,,,,,,,,,,12,,57,0
6119,note_on,,0,0,15,,,,,,,,,,,,,,,,15,,67,0
6119,note_on,,59,0,10,,,,,,,,,,,,,,,,8,,52,0
6120,note_on,,1,0,6,,,,,,,,,,,,,,,,2,,54,72
6120,note_on,,1,0,10,,,,,,,,,,,,,,,,8,,54,72
6120,note_on,,1,0,13,,,,,,,,,,,,,,,,12,,62,72
6120,note_on,,0,0,15,,,,,,,,,,,,,,,,15,,62,72
6120,note_on,,1,0,14,,,,,,,,,,,,,,,,13,,54,72
6120,note_on,,1,0,5,,,,,,,,,,,,,,,,1,,78,72
6120,note_on,,1,0,9,,,,,,,,,,,,,,,,7,,62,72
6120,note_on,,1,0,11,,,,,,,,,,,,,,,,10,,78,72
6120,note_on,,1,0,7,,,,,,,,,,,,,,,,5,,78,72
6120,note_on,,0,0,15,,,,,,,,,,,,,,,,15,,66,72
6120,note_on,,1,0,15,,,,,,,,,,,,,,,,15,,54,72
6179,note_on,,59,0,10,,,,,,,,,,,,,,,,8,,54,0
6179,note_on,,59,0,6,,,,,,,,,,,,,,,,2,,54,0
6179,note_on,,59,0,15,,,,,,,,,,,,,,,,15,,54,0
6179,note_on,,59,0,14,,,,,,,,,,,,,,,,13,,54,0
6180,note_on,,1,0,6,,,,,,,,,,,,,,,,2,,55,72
6180,note_on,,1,0,14,,,,,,,,,,,,,,,,13,,55,72
6180,note_on,,1,0,15,,,,,,,,,,,,,,,,15,,55,72
6180,note_on,,1,0,10,,,,,,,,,,,,,,,,8,,55,72
6239,note_on,,59,0,14,,,,,,,,,,,,,,,,13,,55,0
6239,note_on,,119,0,5,,,,,,,,,,,,,,,,1,,78,0
6239,note_on,,59,0,15,,,,,,,,,,,,,,,,15,,57,0
6239,note_on,,59,0,10,,,,,,,,,,,,,,,,8,,55,0
6239,note_on,,0,0,15,,,,,,,,,,,,,,,,15,,69,0
6239,note_on,,59,0,6,,,,,,,,,,,,,,,,2,,55,0
6239,note_on,,119,0,7,,,,,,,,,,,,,,,,5,,78,0
6239,note_on,,0,0,15,,,,,,,,,,,,,,,,15,,66,0
6239,note_on,,0,0,15,,,,,,,,,,,,,,,,15,,62,0
6239,note_on,,0,0,15,,,,,,,,,,,,,,,,15,,55,0
6239,note_on,,119,0,11,,,,,,,,,,,,,,,,10,,78,0
6240,note_on,,1,0,15,,,,,,,,,,,,,,,,15,,57,72
6240,note_on,,1,0,14,,,,,,,,,,,,,,,,13,,57,72
6240,note_on,,1,0,11,,,,,,,,,,,,,,,,10,,76,72
6240,note_on,,0,0,15,,,,,,,,,,,,,,,,15,,62,72
6240,note_on,,1,0,10,,,,,,,,,,,,,,,,8,,57,72
6240,note_on,,1,0,7,,,,,,,,,,,,,,,,5,,76,72
6240,note_on,,1,0,6,,,,,,,,,,,,,,,,2,,57,72
6240,note_on,,0,0,15,,,,,,,,,,,,,,,,15,,64,72
6240,note_on,,1,0,5,,,,,,,,,,,,,,,,1,,76,72
6359,note_on,,119,0,5,,,,,,,,,,,,,,,,1,,76,0
6359,note_on,,119,0,15,,,,,,,,,,,,,,,,15,,62,0
6359,note_on,,119,0,11,,,,,,,,,,,,,,,,10,,76,0
6359,note_on,,239,0,13,,,,,,,,,,,,,,,,12,,62,0
6359,note_on,,119,0,7,,,,,,,,,,,,,,,,5,,76,0
6359,note_on,,239,0,9,,,,,,,,,,,,,,,,7,,62,0
6360,note_on,,1,0,9,,,,,,,,,,,,,,,,7,,61,72
6360,note_on,,1,0,15,,,,,,,,,,,,,,,,15,,61,72
6360,note_on,,1,0,13,,,,,,,,,,,,,,,,12,,61,72
6419,note_on,,179,0,6,,,,,,,,,,,,,,,,2,,57,0
6419,note_on,,59,0,13,,,,,,,,,,,,,,,,12,,61,0
6419,note_on,,179,0,10,,,,,,,,,,,,,,,,8,,57,0
6419,note_on,,179,0,14,,,,,,,,,,,,,,,,13,,57,0
6419,note_on,,0,0,15,,,,,,,,,,,,,,,,15,,61,0
6419,note_on,,59,0,15,,,,,,,,,,,,,,,,15,,57,0
6419,note_on,,59,0,9,,,,,,,,,,,,,,,,7,,61,0
6420,note_on,,1,0,9,,,,,,,,,,,,,,,,7,,59,72
6420,note_on,,0,0,15,,,,,,,,,,,,,,,,15,,59,72
6420,note_on,,1,0,15,,,,,,,,,,,,,,,,15,,52,72
6420,note_on,,1,0,13,,,,,,,,,,,,,,,,12,,59,72
6420,note_on,,1,0,6,,,,,,,,,,,,,,,,2,,52,72
6420,note_on,,1,0,10,,,,,,,,,,,,,,,,8,,52,72
6420,note_on,,1,0,14,,,,,,,,,,,,,,,,13,,52,72
6479,note_on,,59,0,13,,,,,,,,,,,,,,,,12,,59,0
6479,note_on,,0,0,15,,,,,,,,,,,,,,,,15,,59,0
6479,note_on,,59,0,15,,,,,,,,,,,,,,,,15,,52,0
6479,note_on,,59,0,10,,,,,,,,,,,,,,,,8,,52,0
6479,note_on,,59,0,6,,,,,,,,,,,,,,,,2,,52,0
6479,note_on,,59,0,14,,,,,,,,,,,,,,,,13,,52,0
6479,note_on,,59,0,9,,,,,,,,,,,,,,,,7,,59,0
6480,note_on,,1,0,10,,,,,,,,,,,,,,,,8,,45,72
6480,note_on,,1,0,9,,,,,,,,,,,,,,,,7,,61,72
6480,note_on,,1,0,13,,,,,,,,,,,,,,,,12,,61,72
6480,note_on,,1,0,14,,,,,,,,,,,,,,,,13,,45,72
6480,note_on,,1,0,15,,,,,,,,,,,,,,,,15,,45,72
6480,note_on,,0,0,15,,,,,,,,,,,,,,,,15,,61,72
6480,note_on,,1,0,6,,,,,,,,,,,,,,,,2,,45,72
6539,note_on,,59,0,13,,,,,,,,,,,,,,,,12,,61,0
6539,note_on,,59,0,9,,,,,,,,,,,,,,,,7,,61,0
6539,note_on,,59,0,6,,,,,,,,,,,,,,,,2,,45,0
6539,note_on,,59,0,15,,,,,,,,,,,,,,,,15,,45,0
6539,note_on,,0,0,15,,,,,,,,,,,,,,,,15,,61,0
6539,note_on,,59,0,14,,,,,,,,,,,,,,,,13,,45,0
6539,note_on,,59,0,10,,,,,,,,,,,,,,,,8,,45,0
6540,note_on,,1,0,9,,,,,,,,,,,,,,,,7,,62,72
6540,note_on,,1,0,6,,,,,,,,,,,,,,,,2,,47,72
6540,note_on,,1,0,14,,,,,,,,,,,,,,,,13,,47,72
6540,note_on,,1,0,15,,,,,,,,,,,,,,,,15,,47,72
6540,note_on,,0,0,15,,,,,,,,,,,,,,,,15,,62,72
6540,note_on,,1,0,13,,,,,,,,,,,,,,,,12,,62,72
6540,note_on,,1,0,10,,,,,,,,,,,,,,,,8,,47,72
6599,note_on,,59,0,14,,,,,,,,,,,,,,,,13,,47,0
6599,note_on,,59,0,9,,,,,,,,,,,,,,,,7,,62,0
6599,note_on,,59,0,15,,,,,,,,,,,,,,,,15,,64,0
6599,note_on,,0,0,15,,,,,,,,,,,,,,,,15,,62,0
6599,note_on,,59,0,10,,,,,,,,,,,,,,,,8,,47,0
6599,note_on,,59,0,13,,,,,,,,,,,,,,,,12,,62,0
6599,note_on,,59,0,6,,,,,,,,,,,,,,,,2,,47,0
6599,note_on,,0,0,15,,,,,,,,,,,,,,,,15,,47,0
6600,note_on,,1,0,6,,,,,,,,,,,,,,,,2,,49,72
6600,note_on,,1,0,10,,,,,,,,,,,,,,,,8,,49,72
6600,note_on,,0,0,15,,,,,,,,,,,,,,,,15,,73,72
6600,note_on,,0,0,15,,,,,,,,,,,,,,,,15,,64,72
6600,note_on,,1,0,15,,,,,,,,,,,,,,,,15,,49,72
6600,note_on,,1,0,9,,,,,,,,,,,,,,,,7,,64,72
6600,note_on,,1,0,14,,,,,,,,,,,,,,,,13,,49,72
6600,note_on,,1,0,13,,,,,,,,,,,,,,,,12,,64,72
6659,note_on,,59,0,10,,,,,,,,,,,,,,,,8,,49,0
6659,note_on,,59,0,14,,,,,,,,,,,,,,,,13,,49,0
6659,note_on,,59,0,6,,,,,,,,,,,,,,,,2,,49,0
6659,note_on,,59,0,9,,,,,,,,,,,,,,,,7,,64,0
6659,note_on,,59,0,15,,,,,,,,,,,,,,,,15,,49,0
6659,note_on,,59,0,13,,,,,,,,,,,,,,,,12,,64,0
6660,note_on,,1,0,10,,,,,,,,,,,,,,,,8,,50,72
6660,note_on,,0,0,15,,,,,,,,,,,,,,,,15,,57,72
6660,note_on,,1,0,13,,,,,,,,,,,,,,,,12,,57,72
6660,note_on,,1,0,6,,,,,,,,,,,,,,,,2,,50,72
6660,note_on,,1,0,14,,,,,,,,,,,,,,,,13,,50,72
6660,note_on,,1,0,9,,,,,,,,,,,,,,,,7,,57,72
6660,note_on,,1,0,15,,,,,,,,,,,,,,,,15,,50,72
6719,note_on,,59,0,15,,,,,,,,,,,,,,,,15,,64,0
6719,note_on,,0,0,15,,,,,,,,,,,,,,,,15,,73,0
6719,note_on,,0,0,15,,,,,,,,,,,,,,,,15,,50,0
6719,note_on,,0,0,15,,,,,,,,,,,,,,,,15,,57,0
6719,note_on,,59,0,10,,,,,,,,,,,,,,,,8,,50,0
6719,note_on,,59,0,6,,,,,,,,,,,,,,,,2,,50,0
6719,note_on,,59,0,9,,,,,,,,,,,,,,,,7,,57,0
6719,note_on,,59,0,13,,,,,,,,,,,,,,,,12,,57,0
6719,note_on,,59,0,14,,,,,,,,,,,,,,,,13,,50,0
6720,note_on,,1,0,14,,,,,,,,,,,,,,,,13,,52,72
6720,note_on,,0,0,15,,,,,,,,,,,,,,,,15,,71,72
6720,note_on,,0,0,15,,,,,,,,,,,,,,,,15,,64,72
6720,note_on,,1,0,10,,,,,,,,,,,,,,,,8,,52,72
6720,note_on,,1,0,15,,,,,,,,,,,,,,,,15,,52,72
6720,note_on,,1,0,9,,,,,,,,,,,,,,,,7,,56,72
6720,note_on,,1,0,13,,,,,,,,,,,,,,,,12,,56,72
6720,note_on,,0,0,15,,,,,,,,,,,,,,,,15,,56,72
6720,note_on,,1,0,6,,,,,,,,,,,,,,,,2,,52,72
6780,note_on,,421,0,11,,,,,,,,,,,,,,,,10,,71,72
6780,note_on,,421,0,7,,,,,,,,,,,,,,,,5,,71,72
6780,note_on,,421,0,5,,,,,,,,,,,,,,,,1,,71,72
6839,note_on,,59,0,11,,,,,,,,,,,,,,,,10,,71,0
6839,note_on,,119,0,15,,,,,,,,,,,,,,,,15,,52,0
6839,note_on,,119,0,10,,,,,,,,,,,,,,,,8,,52,0
6839,note_on,,59,0,7,,,,,,,,,,,,,,,,5,,71,0
6839,note_on,,0,0,15,,,,,,,,,,,,,,,,15,,56,0
6839,note_on,,119,0,13,,,,,,,,,,,,,,,,12,,56,0
6839,note_on,,0,0,15,,,,,,,,,,,,,,,,15,,64,0
6839,note_on,,0,0,15,,,,,,,,,,,,,,,,15,,71,0
6839,note_on,,119,0,14,,,,,,,,,,,,,,,,13,,52,0
6839,note_on,,119,0,6,,,,,,,,,,,,,,,,2,,52,0
6839,note_on,,119,0,9,,,,,,,,,,,,,,,,7,,56,0
6839,note_on,,59,0,5,,,,,,,,,,,,,,,,1,,71,0
6840,note_on,,1,0,11,,,,,,,,,,,,,,,,10,,76,72
6840,note_on,,1,0,13,,,,,,,,,,,,,,,,12,,64,72
6840,note_on,,1,0,7,,,,,,,,,,,,,,,,5,,76,72
6840,note_on,,1,0,9,,,,,,,,,,,,,,,,7,,64,72
6840,note_on,,1,0,14,,,,,,,,,,,,,,,,13,,64,72
6840,note_on,,0,0,15,,,,,,,,,,,,,,,,15,,68,72
6840,note_on,,0,0,15,,,,,,,,,,,,,,,,15,,71,72
6840,note_on,,1,0,15,,,,,,,,,,,,,,,,15,,64,72
6840,note_on,,1,0,5,,,,,,,,,,,,,,,,1,,76,72
6899,note_on,,59,0,7,,,,,,,,,,,,,,,,5,,76,0
6899,note_on,,59,0,5,,,,,,,,,,,,,,,,1,,76,0
6899,note_on,,59,0,11,,,,,,,,,,,,,,,,10,,76,0
6900,note_on,,1,0,5,,,,,,,,,,,,,,,,1,,71,72
6900,note_on,,1,0,11,,,,,,,,,,,,,,,,10,,71,72
6900,note_on,,1,0,7,,,,,,,,,,,,,,,,5,,71,72
6959,note_on,,0,0,15,,,,,,,,,,,,,,,,15,,68,0
6959,note_on,,0,0,15,,,,,,,,,,,,,,,,15,,71,0
6959,note_on,,119,0,15,,,,,,,,,,,,,,,,15,,64,0
6959,note_on,,119,0,13,,,,,,,,,,,,,,,,12,,64,0
6959,note_on,,59,0,5,,,,,,,,,,,,,,,,1,,71,0
6959,note_on,,119,0,9,,,,,,,,,,,,,,,,7,,64,0
6959,note_on,,119,0,14,,,,,,,,,,,,,,,,13,,64,0
6959,note_on,,59,0,11,,,,,,,,,,,,,,,,10,,71,0
6959,note_on,,59,0,7,,,,,,,,,,,,,,,,5,,71,0
6960,note_on,,1,0,7,,,,,,,,,,,,,,,,5,,73,72
6960,note_on,,1,0,9,,,,,,,,,,,,,,,,7,,69,72
6960,note_on,,1,0,13,,,,,,,,,,,,,,,,12,,69,72
6960,note_on,,1,0,14,,,,,,,,,,,,,,,,13,,69,72
6960,note_on,,1,0,5,,,,,,,,,,,,,,,,1,,73,72
6960,note_on,,1,0,15,,,,,,,,,,,,,,,,15,,69,72
6960,note_on,,1,0,11,,,,,,,,,,,,,,,,10,,73,72
6960,note_on,,0,0,15,,,,,,,,,,,,,,,,15,,73,72
7019,note_on,,59,0,11,,,,,,,,,,,,,,,,10,,73,0
7019,note_on,,59,0,7,,,,,,,,,,,,,,,,5,,73,0
7019,note_on,,59,0,5,,,,,,,,,,,,,,,,1,,73,0
7020,note_on,,1,0,7,,,,,,,,,,,,,,,,5,,71,72
7020,note_on,,1,0,5,,,,,,,,,,,,,,,,1,,71,72
7020,note_on,,1,0,11,,,,,,,,,,,,,,,,10,,71,72
7049,note_on,,29,0,7,,,,,,,,,,,,,,,,5,,71,0
7049,note_on,,29,0,5,,,,,,,,,,,,,,,,1,,71,0
7049,note_on,,29,0,11,,,,,,,,,,,,,,,,10,,71,0
7050,note_on,,1,0,7,,,,,,,,,,,,,,,,5,,69,72
7050,note_on,,1,0,11,,,,,,,,,,,,,,,,10,,69,72
7050,note_on,,1,0,5,,,,,,,,,,,,,,,,1,,69,72
7079,note_on,,29,0,11,,,,,,,,,,,,,,,,10,,69,0
7079,note_on,,119,0,9,,,,,,,,,,,,,,,,7,,69,0
7079,note_on,,119,0,14,,,,,,,,,,,,,,,,13,,69,0
7079,note_on,,29,0,5,,,,,,,,,,,,,,,,1,,69,0
7079,note_on,,29,0,7,,,,,,,,,,,,,,,,5,,69,0
7079,note_on,,0,0,15,,,,,,,,,,,,,,,,15,,73,0
7079,note_on,,119,0,13,,,,,,,,,,,,,,,,12,,69,0
7079,note_on,,119,0,15,,,,,,,,,,,,,,,,15,,69,0
7080,note_on,,1,0,13,,,,,,,,,,,,,,,,12,,64,72
7080,note_on,,1,0,7,,,,,,,,,,,,,,,,5,,68,72
7080,note_on,,1,0,11,,,,,,,,,,,,,,,,10,,68,72
7080,note_on,,1,0,5,,,,,,,,,,,,,,,,1,,68,72
7080,note_on,,0,0,15,,,,,,,,,,,,,,,,15,,68,72
7080,note_on,,1,0,9,,,,,,,,,,,,,,,,7,,64,72
7080,note_on,,1,0,15,,,,,,,,,,,,,,,,15,,64,72
7080,note_on,,1,0,14,,,,,,,,,,,,,,,,13,,64,72
7139,note_on,,59,0,11,,,,,,,,,,,,,,,,10,,68,0
7139,note_on,,59,0,7,,,,,,,,,,,,,,,,5,,68,0
7139,note_on,,59,0,5,,,,,,,,,,,,,,,,1,,68,0
7140,note_on,,1,0,7,,,,,,,,,,,,,,,,5,,66,72
7140,note_on,,1,0,5,,,,,,,,,,,,,,,,1,,66,72
7140,note_on,,1,0,11,,,,,,,,,,,,,,,,10,,66,72
7169,note_on,,29,0,5,,,,,,,,,,,,,,,,1,,66,0
7169,note_on,,29,0,7,,,,,,,,,,,,,,,,5,,66,0
7169,note_on,,29,0,11,,,,,,,,,,,,,,,,10,,66,0
7170,note_on,,1,0,5,,,,,,,,,,,,,,,,1,,68,72
7170,note_on,,1,0,11,,,,,,,,,,,,,,,,10,,68,72
7170,note_on,,1,0,7,,,,,,,,,,,,,,,,5,,68,72
7199,note_on,,29,0,11,,,,,,,,,,,,,,,,10,,68,0
7199,note_on,,29,0,7,,,,,,,,,,,,,,,,5,,68,0
7199,note_on,,0,0,15,,,,,,,,,,,,,,,,15,,68,0
7199,note_on,,29,0,5,,,,,,,,,,,,,,,,1,,68,0
7199,note_on,,119,0,13,,,,,,,,,,,,,,,,12,,64,0
7199,note_on,,119,0,9,,,,,,,,,,,,,,,,7,,64,0
7199,note_on,,119,0,14,,,,,,,,,,,,,,,,13,,64,0
7199,note_on,,119,0,15,,,,,,,,,,,,,,,,15,,64,0
7200,note_on,,1,0,5,,,,,,,,,,,,,,,,1,,69,72
7200,note_on,,1,0,15,,,,,,,,,,,,,,,,15,,66,72
7200,note_on,,0,0,15,,,,,,,,,,,,,,,,15,,69,72
7200,note_on,,1,0,11,,,,,,,,,,,,,,,,10,,69,72
7200,note_on,,1,0,14,,,,,,,,,,,,,,,,13,,66,72
7200,note_on,,1,0,13,,,,,,,,,,,,,,,,12,,66,72
7200,note_on,,1,0,7,,,,,,,,,,,,,,,,5,,69,72
7200,note_on,,1,0,9,,,,,,,,,,,,,,,,7,,66,72
7259,note_on,,59,0,5,,,,,,,,,,,,,,,,1,,69,0
7259,note_on,,59,0,7,,,,,,,,,,,,,,,,5,,69,0
7259,note_on,,59,0,11,,,,,,,,,,,,,,,,10,,69,0
7260,note_on,,1,0,7,,,,,,,,,,,,,,,,5,,71,72
7260,note_on,,1,0,5,,,,,,,,,,,,,,,,1,,71,72
7260,note_on,,1,0,11,,,,,,,,,,,,,,,,10,,71,72
7319,note_on,,119,0,13,,,,,,,,,,,,,,,,12,,66,0
7319,note_on,,119,0,9,,,,,,,,,,,,,,,,7,,66,0
7319,note_on,,59,0,5,,,,,,,,,,,,,,,,1,,71,0
7319,note_on,,59,0,11,,,,,,,,,,,,,,,,10,,71,0
7319,note_on,,59,0,7,,,,,,,,,,,,,,,,5,,71,0
7319,note_on,,119,0,14,,,,,,,,,,,,,,,,13,,66,0
7319,note_on,,119,0,15,,,,,,,,,,,,,,,,15,,66,0
7320,note_on,,1,0,7,,,,,,,,,,,,,,,,5,,73,72
7320,note_on,,1,0,9,,,,,,,,,,,,,,,,7,,64,72
7320,note_on,,1,0,14,,,,,,,,,,,,,,,,13,,64,72
7320,note_on,,1,0,13,,,,,,,,,,,,,,,,12,,64,72
7320,note_on,,1,0,11,,,,,,,,,,,,,,,,10,,73,72
7320,note_on,,1,0,5,,,,,,,,,,,,,,,,1,,73,72
7320,note_on,,1,0,15,,,,,,,,,,,,,,,,15,,64,72
7379,note_on,,59,0,5,,,,,,,,,,,,,,,,1,,73,0
7379,note_on,,59,0,9,,,,,,,,,,,,,,,,7,,64,0
7379,note_on,,59,0,15,,,,,,,,,,,,,,,,15,,64,0
7379,note_on,,59,0,14,,,,,,,,,,,,,,,,13,,64,0
7379,note_on,,59,0,7,,,,,,,,,,,,,,,,5,,73,0
7379,note_on,,59,0,13,,,,,,,,,,,,,,,,12,,64,0
7379,note_on,,59,0,11,,,,,,,,,,,,,,,,10,,73,0
7380,note_on,,1,0,15,,,,,,,,,,,,,,,,15,,62,72
7380,note_on,,1,0,5,,,,,,,,,,,,,,,,1,,74,72
7380,note_on,,1,0,14,,,,,,,,,,,,,,,,13,,62,72
7380,note_on,,1,0,13,,,,,,,,,,,,,,,,12,,62,72
7380,note_on,,1,0,11,,,,,,,,,,,,,,,,10,,74,72
7380,note_on,,1,0,9,,,,,,,,,,,,,,,,7,,62,72
7380,note_on,,1,0,7,,,,,,,,,,,,,,,,5,,74,72
7439,note_on,,59,0,5,,,,,,,,,,,,,,,,1,,74,0
7439,note_on,,59,0,9,,,,,,,,,,,,,,,,7,,62,0
7439,note_on,,59,0,13,,,,,,,,,,,,,,,,12,,62,0
7439,note_on,,59,0,11,,,,,,,,,,,,,,,,10,,74,0
7439,note_on,,59,0,15,,,,,,,,,,,,,,,,15,,62,0
7439,note_on,,59,0,14,,,,,,,,,,,,,,,,13,,62,0
7439,note_on,,59,0,7,,,,,,,,,,,,,,,,5,,74,0
7440,note_on,,1,0,9,,,,,,,,,,,,,,,,7,,61,72
7440,note_on,,1,0,11,,,,,,,,,,,,,,,,10,,76,72
7440,note_on,,1,0,15,,,,,,,,,,,,,,,,15,,61,72
7440,note_on,,1,0,14,,,,,,,,,,,,,,,,13,,61,72
7440,note_on,,1,0,5,,,,,,,,,,,,,,,,1,,76,72
7440,note_on,,1,0,13,,,,,,,,,,,,,,,,12,,61,72
7440,note_on,,1,0,7,,,,,,,,,,,,,,,,5,,76,72
7440,note_on,,601,0,6,,,,,,,,,,,,,,,,2,,61,72
7499,note_on,,59,0,6,,,,,,,,,,,,,,,,2,,61,0
7499,note_on,,59,0,14,,,,,,,,,,,,,,,,13,,61,0
7499,note_on,,59,0,15,,,,,,,,,,,,,,,,15,,61,0
7500,note_on,,1,0,14,,,,,,,,,,,,,,,,13,,52,72
7500,note_on,,1,0,15,,,,,,,,,,,,,,,,15,,52,72
7500,note_on,,661,0,10,,,,,,,,,,,,,,,,8,,52,72
7500,note_on,,1,0,6,,,,,,,,,,,,,,,,2,,52,72
7559,note_on,,119,0,11,,,,,,,,,,,,,,,,10,,76,0
7559,note_on,,119,0,5,,,,,,,,,,,,,,,,1,,76,0
7559,note_on,,59,0,6,,,,,,,,,,,,,,,,2,,52,0
7559,note_on,,59,0,14,,,,,,,,,,,,,,,,13,,52,0
7559,note_on,,0,0,15,,,,,,,,,,,,,,,,15,,52,0
7559,note_on,,59,0,10,,,,,,,,,,,,,,,,8,,52,0
7559,note_on,,59,0,15,,,,,,,,,,,,,,,,15,,69,0
7559,note_on,,119,0,7,,,,,,,,,,,,,,,,5,,76,0
7560,note_on,,1,0,10,,,,,,,,,,,,,,,,8,,57,72
7560,note_on,,1,0,14,,,,,,,,,,,,,,,,13,,57,72
7560,note_on,,0,0,15,,,,,,,,,,,,,,,,15,,64,72
7560,note_on,,0,0,15,,,,,,,,,,,,,,,,15,,69,72
7560,note_on,,1,0,11,,,,,,,,,,,,,,,,10,,73,72
7560,note_on,,1,0,15,,,,,,,,,,,,,,,,15,,57,72
7560,note_on,,1,0,7,,,,,,,,,,,,,,,,5,,73,72
7560,note_on,,1921,0,8,,,,,,,,,,,,,,,,6,,64,72
7560,note_on,,0,0,15,,,,,,,,,,,,,,,,15,,73,72
7560,note_on,,1,0,6,,,,,,,,,,,,,,,,2,,57,72
7560,note_on,,1921,0,12,,,,,,,,,,,,,,,,11,,64,72
7560,note_on,,1,0,5,,,,,,,,,,,,,,,,1,,73,72
7619,note_on,,59,0,7,,,,,,,,,,,,,,,,5,,73,0
7619,note_on,,59,0,14,,,,,,,,,,,,,,,,13,,57,0
7619,note_on,,59,0,10,,,,,,,,,,,,,,,,8,,57,0
7619,note_on,,59,0,5,,,,,,,,,,,,,,,,1,,73,0
7619,note_on,,59,0,11,,,,,,,,,,,,,,,,10,,73,0
7619,note_on,,59,0,15,,,,,,,,,,,,,,,,15,,57,0
7619,note_on,,59,0,6,,,,,,,,,,,,,,,,2,,57,0
7620,note_on,,1,0,5,,,,,,,,,,,,,,,,1,,71,72
7620,note_on,,1,0,11,,,,,,,,,,,,,,,,10,,71,72
7620,note_on,,1,0,14,,,,,,,,,,,,,,,,13,,52,72
7620,note_on,,1,0,15,,,,,,,,,,,,,,,,15,,52,72
7620,note_on,,1,0,7,,,,,,,,,,,,,,,,5,,71,72
7620,note_on,,1,0,10,,,,,,,,,,,,,,,,8,,52,72
7620,note_on,,1,0,6,,,,,,,,,,,,,,,,2,,52,72
7679,note_on,,59,0,7,,,,,,,,,,,,,,,,5,,71,0
7679,note_on,,59,0,5,,,,,,,,,,,,,,,,1,,71,0
7679,note_on,,59,0,14,,,,,,,,,,,,,,,,13,,52,0
7679,note_on,,59,0,10,,,,,,,,,,,,,,,,8,,52,0
7679,note_on,,239,0,9,,,,,,,,,,,,,,,,7,,61,0
7679,note_on,,0,0,15,,,,,,,,,,,,,,,,15,,52,0
7679,note_on,,239,0,13,,,,,,,,,,,,,,,,12,,61,0
7679,note_on,,0,0,15,,,,,,,,,,,,,,,,15,,64,0
7679,note_on,,0,0,15,,,,,,,,,,,,,,,,15,,69,0
7679,note_on,,119,0,8,,,,,,,,,,,,,,,,6,,64,0
7679,note_on,,59,0,6,,,,,,,,,,,,,,,,2,,52,0
7679,note_on,,59,0,11,,,,,,,,,,,,,,,,10,,71,0
7679,note_on,,119,0,12,,,,,,,,,,,,,,,,11,,64,0
7679,note_on,,59,0,15,,,,,,,,,,,,,,,,15,,73,0
7680,note_on,,1,0,11,,,,,,,,,,,,,,,,10,,69,72
7680,note_on,,1,0,8,,,,,,,,,,,,,,,,6,,69,72
7680,note_on,,1,0,13,,,,,,,,,,,,,,,,12,,61,72
7680,note_on,,1,0,14,,,,,,,,,,,,,,,,13,,54,72
7680,note_on,,0,0,15,,,,,,,,,,,,,,,,15,,57,72
7680,note_on,,0,0,15,,,,,,,,,,,,,,,,15,,61,72
7680,note_on,,0,0,15,,,,,,,,,,,,,,,,15,,69,72
7680,note_on,,1,0,5,,,,,,,,,,,,,,,,1,,69,72
7680,note_on,,1,0,12,,,,,,,,,,,,,,,,11,,69,72
7680,note_on,,1,0,9,,,,,,,,,,,,,,,,7,,61,72
7680,note_on,,1,0,7,,,,,,,,,,,,,,,,5,,69,72
7680,note_on,,1,0,10,,,,,,,,,,,,,,,,8,,54,72
7680,note_on,,1,0,15,,,,,,,,,,,,,,,,15,,54,72
7680,note_on,,1,0,6,,,,,,,,,,,,,,,,2,,54,72
7739,note_on,,59,0,6,,,,,,,,,,,,,,,,2,,54,0
7739,note_on,,59,0,15,,,,,,,,,,,,,,,,15,,54,0
7739,note_on,,59,0,14,,,,,,,,,,,,,,,,13,,54,0
7739,note_on,,59,0,10,,,,,,,,,,,,,,,,8,,54,0
7740,note_on,,1,0,15,,,,,,,,,,,,,,,,15,,52,72
7740,note_on,,1,0,6,,,,,,,,,,,,,,,,2,,52,72
7740,note_on,,1,0,10,,,,,,,,,,,,,,,,8,,52,72
7740,note_on,,1,0,14,,,,,,,,,,,,,,,,13,,52,72
7769,note_on,,29,0,15,,,,,,,,,,,,,,,,15,,52,0
7769,note_on,,29,0,10,,,,,,,,,,,,,,,,8,,52,0
7769,note_on,,29,0,6,,,,,,,,,,,,,,,,2,,52,0
7769,note_on,,29,0,14,,,,,,,,,,,,,,,,13,,52,0
7770,note_on,,1,0,14,,,,,,,,,,,,,,,,13,,50,72
7770,note_on,,1,0,10,,,,,,,,,,,,,,,,8,,50,72
7770,note_on,,1,0,15,,,,,,,,,,,,,,,,15,,50,72
7770,note_on,,1,0,6,,,,,,,,,,,,,,,,2,,50,72
7799,note_on,,0,0,15,,,,,,,,,,,,,,,,15,,57,0
7799,note_on,,119,0,12,,,,,,,,,,,,,,,,11,,69,0
7799,note_on,,0,0,15,,,,,,,,,,,,,,,,15,,50,0
7799,note_on,,29,0,10,,,,,,,,,,,,,,,,8,,50,0
7799,note_on,,0,0,15,,,,,,,,,,,,,,,,15,,61,0
7799,note_on,,29,0,15,,,,,,,,,,,,,,,,15,,69,0
7799,note_on,,119,0,13,,,,,,,,,,,,,,,,12,,61,0
7799,note_on,,119,0,8,,,,,,,,,,,,,,,,6,,69,0
7799,note_on,,29,0,6,,,,,,,,,,,,,,,,2,,50,0
7799,note_on,,119,0,9,,,,,,,,,,,,,,,,7,,61,0
7799,note_on,,29,0,14,,,,,,,,,,,,,,,,13,,50,0
7800,note_on,,1,0,15,,,,,,,,,,,,,,,,15,,49,72
7800,note_on,,1,0,8,,,,,,,,,,,,,,,,6,,64,72
7800,note_on,,0,0,15,,,,,,,,,,,,,,,,15,,57,72
7800,note_on,,0,0,15,,,,,,,,,,,,,,,,15,,76,72
7800,note_on,,0,0,15,,,,,,,,,,,,,,,,15,,69,72
7800,note_on,,0,0,15,,,,,,,,,,,,,,,,15,,64,72
7800,note_on,,1,0,13,,,,,,,,,,,,,,,,12,,64,72
7800,note_on,,1,0,10,,,,,,,,,,,,,,,,8,,49,72
7800,note_on,,1,0,14,,,,,,,,,,,,,,,,13,,49,72
7800,note_on,,1,0,9,,,,,,,,,,,,,,,,7,,64,72
7800,note_on,,1,0,12,,,,,,,,,,,,,,,,11,,64,72
7800,note_on,,1,0,6,,,,,,,,,,,,,,,,2,,49,72
7859,note_on,,59,0,14,,,,,,,,,,,,,,,,13,,49,0
7859,note_on,,59,0,15,,,,,,,,,,,,,,,,15,,49,0
7859,note_on,,59,0,6,,,,,,,,,,,,,,,,2,,49,0
7859,note_on,,59,0,10,,,,,,,,,,,,,,,,8,,49,0
7860,note_on,,1,0,10,,,,,,,,,,,,,,,,8,,47,72
7860,note_on,,1,0,15,,,,,,,,,,,,,,,,15,,47,72
7860,note_on,,1,0,6,,,,,,,,,,,,,,,,2,,47,72
7860,note_on,,1,0,14,,,,,,,,,,,,,,,,13,,47,72
7889,note_on,,29,0,14,,,,,,,,,,,,,,,,13,,47,0
7889,note_on,,29,0,6,,,,,,,,,,,,,,,,2,,47,0
7889,note_on,,29,0,15,,,,,,,,,,,,,,,,15,,47,0
7889,note_on,,29,0,10,,,,,,,,,,,,,,,,8,,47,0
7890,note_on,,1,0,10,,,,,,,,,,,,,,,,8,,49,72
7890,note_on,,1,0,14,,,,,,,,,,,,,,,,13,,49,72
7890,note_on,,1,0,15,,,,,,,,,,,,,,,,15,,49,72
7890,note_on,,1,0,6,,,,,,,,,,,,,,,,2,,49,72
7919,note_on,,239,0,11,,,,,,,,,,,,,,,,10,,69,0
7919,note_on,,119,0,13,,,,,,,,,,,,,,,,12,,64,0
7919,note_on,,239,0,7,,,,,,,,,,,,,,,,5,,69,0
7919,note_on,,119,0,9,,,,,,,,,,,,,,,,7,,64,0
7919,note_on,,29,0,14,,,,,,,,,,,,,,,,13,,49,0
7919,note_on,,239,0,5,,,,,,,,,,,,,,,,1,,69,0
7919,note_on,,29,0,10,,,,,,,,,,,,,,,,8,,49,0
7919,note_on,,0,0,15,,,,,,,,,,,,,,,,15,,64,0
7919,note_on,,0,0,15,,,,,,,,,,,,,,,,15,,69,0
7919,note_on,,0,0,15,,,,,,,,,,,,,,,,15,,49,0
7919,note_on,,29,0,6,,,,,,,,,,,,,,,,2,,49,0
7919,note_on,,29,0,15,,,,,,,,,,,,,,,,15,,57,0
7919,note_on,,0,0,15,,,,,,,,,,,,,,,,15,,76,0
7919,note_on,,119,0,8,,,,,,,,,,,,,,,,6,,64,0
7919,note_on,,119,0,12,,,,,,,,,,,,,,,,11,,64,0
7920,note_on,,1,0,5,,,,,,,,,,,,,,,,1,,69,72
7920,note_on,,1,0,7,,,,,,,,,,,,,,,,5,,69,72
7920,note_on,,1,0,6,,,,,,,,,,,,,,,,2,,50,72
7920,note_on,,1,0,12,,,,,,,,,,,,,,,,11,,66,72
7920,note_on,,1,0,9,,,,,,,,,,,,,,,,7,,57,72
7920,note_on,,0,0,15,,,,,,,,,,,,,,,,15,,69,72
7920,note_on,,1,0,10,,,,,,,,,,,,,,,,8,,50,72
7920,note_on,,1,0,15,,,,,,,,,,,,,,,,15,,50,72
7920,note_on,,0,0,15,,,,,,,,,,,,,,,,15,,74,72
7920,note_on,,1,0,13,,,,,,,,,,,,,,,,12,,57,72
7920,note_on,,1,0,8,,,,,,,,,,,,,,,,6,,66,72
7920,note_on,,0,0,15,,,,,,,,,,,,,,,,15,,78,72
7920,note_on,,0,0,15,,,,,,,,,,,,,,,,15,,57,72
7920,note_on,,1,0,11,,,,,,,,,,,,,,,,10,,69,72
7920,note_on,,1,0,14,,,,,,,,,,,,,,,,13,,50,72
7979,note_on,,59,0,10,,,,,,,,,,,,,,,,8,,50,0
7979,note_on,,59,0,14,,,,,,,,,,,,,,,,13,,50,0
7979,note_on,,59,0,6,,,,,,,,,,,,,,,,2,,50,0
7979,note_on,,59,0,15,,,,,,,,,,,,,,,,15,,50,0
7980,note_on,,1,0,6,,,,,,,,,,,,,,,,2,,54,72
7980,note_on,,1,0,10,,,,,,,,,,,,,,,,8,,54,72
7980,note_on,,1,0,15,,,,,,,,,,,,,,,,15,,54,72
7980,note_on,,1,0,14,,,,,,,,,,,,,,,,13,,54,72
8039,note_on,,119,0,7,,,,,,,,,,,,,,,,5,,69,0
8039,note_on,,59,0,15,,,,,,,,,,,,,,,,15,,57,0
8039,note_on,,0,0,15,,,,,,,,,,,,,,,,15,,78,0
8039,note_on,,0,0,15,,,,,,,,,,,,,,,,15,,74,0
8039,note_on,,0,0,15,,,,,,,,,,,,,,,,15,,69,0
8039,note_on,,0,0,15,,,,,,,,,,,,,,,,15,,54,0
8039,note_on,,59,0,14,,,,,,,,,,,,,,,,13,,54,0
8039,note_on,,119,0,13,,,,,,,,,,,,,,,,12,,57,0
8039,note_on,,119,0,9,,,,,,,,,,,,,,,,7,,57,0
8039,note_on,,59,0,6,,,,,,,,,,,,,,,,2,,54,0
8039,note_on,,119,0,8,,,,,,,,,,,,,,,,6,,66,0
8039,note_on,,59,0,10,,,,,,,,,,,,,,,,8,,54,0
8039,note_on,,119,0,11,,,,,,,,,,,,,,,,10,,69,0
8039,note_on,,119,0,12,,,,,,,,,,,,,,,,11,,66,0
8039,note_on,,119,0,5,,,,,,,,,,,,,,,,1,,69,0
8040,note_on,,1,0,5,,,,,,,,,,,,,,,,1,,71,72
8040,note_on,,1,0,8,,,,,,,,,,,,,,,,6,,64,72
8040,note_on,,1,0,12,,,,,,,,,,,,,,,,11,,64,72
8040,note_on,,0,0,15,,,,,,,,,,,,,,,,15,,71,72
8040,note_on,,0,0,15,,,,,,,,,,,,,,,,15,,59,72
8040,note_on,,1,0,15,,,,,,,,,,,,,,,,15,,56,72
8040,note_on,,1,0,6,,,,,,,,,,,,,,,,2,,56,72
8040,note_on,,0,0,15,,,,,,,,,,,,,,,,15,,64,72
8040,note_on,,1,0,11,,,,,,,,,,,,,,,,10,,71,72
8040,note_on,,0,0,15,,,,,,,,,,,,,,,,15,,76,72
8040,note_on,,1,0,7,,,,,,,,,,,,,,,,5,,71,72
8040,note_on,,1,0,10,,,,,,,,,,,,,,,,8,,56,72
8040,note_on,,1,0,14,,,,,,,,,,,,,,,,13,,56,72
8099,note_on,,59,0,15,,,,,,,,,,,,,,,,15,,56,0
8099,note_on,,59,0,6,,,,,,,,,,,,,,,,2,,56,0
8099,note_on,,59,0,10,,,,,,,,,,,,,,,,8,,56,0
8099,note_on,,59,0,12,,,,,,,,,,,,,,,,11,,64,0
8099,note_on,,59,0,8,,,,,,,,,,,,,,,,6,,64,0
8099,note_on,,59,0,14,,,,,,,,,,,,,,,,13,,56,0
8100,note_on,,1,0,10,,,,,,,,,,,,,,,,8,,54,72
8100,note_on,,1,0,12,,,,,,,,,,,,,,,,11,,62,72
8100,note_on,,1,0,8,,,,,,,,,,,,,,,,6,,62,72
8100,note_on,,1,0,6,,,,,,,,,,,,,,,,2,,54,72
8100,note_on,,1,0,14,,,,,,,,,,,,,,,,13,,54,72
8100,note_on,,1,0,15,,,,,,,,,,,,,,,,15,,54,72
8129,note_on,,29,0,10,,,,,,,,,,,,,,,,8,,54,0
8129,note_on,,29,0,6,,,,,,,,,,,,,,,,2,,54,0
8129,note_on,,29,0,15,,,,,,,,,,,,,,,,15,,54,0
8129,note_on,,29,0,14,,,,,,,,,,,,,,,,13,,54,0
8130,note_on,,1,0,10,,,,,,,,,,,,,,,,8,,56,72
8130,note_on,,1,0,15,,,,,,,,,,,,,,,,15,,56,72
8130,note_on,,1,0,6,,,,,,,,,,,,,,,,2,,56,72
8130,note_on,,1,0,14,,,,,,,,,,,,,,,,13,,56,72
8159,note_on,,0,0,15,,,,,,,,,,,,,,,,15,,64,0
8159,note_on,,29,0,10,,,,,,,,,,,,,,,,8,,56,0
8159,note_on,,29,0,15,,,,,,,,,,,,,,,,15,,59,0
8159,note_on,,119,0,5,,,,,,,,,,,,,,,,1,,71,0
8159,note_on,,0,0,15,,,,,,,,,,,,,,,,15,,71,0
8159,note_on,,119,0,11,,,,,,,,,,,,,,,,10,,71,0
8159,note_on,,0,0,15,,,,,,,,,,,,,,,,15,,56,0
8159,note_on,,29,0,14,,,,,,,,,,,,,,,,13,,56,0
8159,note_on,,119,0,7,,,,,,,,,,,,,,,,5,,71,0
8159,note_on,,29,0,6,,,,,,,,,,,,,,,,2,,56,0
8159,note_on,,59,0,12,,,,,,,,,,,,,,,,11,,62,0
8159,note_on,,0,0,15,,,,,,,,,,,,,,,,15,,76,0
8159,note_on,,59,0,8,,,,,,,,,,,,,,,,6,,62,0
8160,note_on,,1,0,7,,,,,,,,,,,,,,,,5,,64,72
8160,note_on,,1,0,14,,,,,,,,,,,,,,,,13,,57,72
8160,note_on,,1,0,5,,,,,,,,,,,,,,,,1,,64,72
8160,note_on,,1,0,12,,,,,,,,,,,,,,,,11,,61,72
8160,note_on,,1,0,8,,,,,,,,,,,,,,,,6,,61,72
8160,note_on,,0,0,15,,,,,,,,,,,,,,,,15,,61,72
8160,note_on,,1,0,10,,,,,,,,,,,,,,,,8,,57,72
8160,note_on,,0,0,15,,,,,,,,,,,,,,,,15,,64,72
8160,note_on,,0,0,15,,,,,,,,,,,,,,,,15,,69,72
8160,note_on,,0,0,15,,,,,,,,,,,,,,,,15,,73,72
8160,note_on,,1,0,15,,,,,,,,,,,,,,,,15,,57,72
8160,note_on,,1,0,6,,,,,,,,,,,,,,,,2,,57,72
8160,note_on,,1,0,11,,,,,,,,,,,,,,,,10,,64,72
8219,note_on,,59,0,14,,,,,,,,,,,,,,,,13,,57,0
8219,note_on,,59,0,10,,,,,,,,,,,,,,,,8,,57,0
8219,note_on,,59,0,15,,,,,,,,,,,,,,,,15,,57,0
8219,note_on,,59,0,6,,,,,,,,,,,,,,,,2,,57,0
8220,note_on,,1,0,15,,,,,,,,,,,,,,,,15,,54,72
8220,note_on,,1,0,6,,,,,,,,,,,,,,,,2,,54,72
8220,note_on,,1,0,10,,,,,,,,,,,,,,,,8,,54,72
8220,note_on,,1,0,14,,,,,,,,,,,,,,,,13,,54,72
8279,note_on,,119,0,5,,,,,,,,,,,,,,,,1,,64,0
8279,note_on,,0,0,15,,,,,,,,,,,,,,,,15,,61,0
8279,note_on,,119,0,11,,,,,,,,,,,,,,,,10,,64,0
8279,note_on,,0,0,15,,,,,,,,,,,,,,,,15,,54,0
8279,note_on,,0,0,15,,,,,,,,,,,,,,,,15,,64,0
8279,note_on,,0,0,15,,,,,,,,,,,,,,,,15,,69,0
8279,note_on,,59,0,6,,,,,,,,,,,,,,,,2,,54,0
8279,note_on,,119,0,7,,,,,,,,,,,,,,,,5,,64,0
8279,note_on,,59,0,10,,,,,,,,,,,,,,,,8,,54,0
8279,note_on,,59,0,15,,,,,,,,,,,,,,,,15,,73,0
8279,note_on,,59,0,14,,,,,,,,,,,,,,,,13,,54,0
8279,note_on,,119,0,8,,,,,,,,,,,,,,,,6,,61,0
8279,note_on,,119,0,12,,,,,,,,,,,,,,,,11,,61,0
8280,note_on,,1,0,12,,,,,,,,,,,,,,,,11,,62,72
8280,note_on,,1,0,14,,,,,,,,,,,,,,,,13,,59,72
8280,note_on,,1,0,8,,,,,,,,,,,,,,,,6,,62,72
8280,note_on,,1,0,6,,,,,,,,,,,,,,,,2,,59,72
8280,note_on,,1,0,15,,,,,,,,,,,,,,,,15,,59,72
8280,note_on,,0,0,15,,,,,,,,,,,,,,,,15,,71,72
8280,note_on,,0,0,15,,,,,,,,,,,,,,,,15,,66,72
8280,note_on,,0,0,15,,,,,,,,,,,,,,,,15,,62,72
8280,note_on,,1,0,10,,,,,,,,,,,,,,,,8,,59,72
8339,note_on,,59,0,10,,,,,,,,,,,,,,,,8,,59,0
8339,note_on,,59,0,15,,,,,,,,,,,,,,,,15,,59,0
8339,note_on,,59,0,14,,,,,,,,,,,,,,,,13,,59,0
8339,note_on,,59,0,6,,,,,,,,,,,,,,,,2,,59,0
8340,note_on,,1,0,10,,,,,,,,,,,,,,,,8,,57,72
8340,note_on,,1,0,15,,,,,,,,,,,,,,,,15,,57,72
8340,note_on,,1,0,14,,,,,,,,,,,,,,,,13,,57,72
8340,note_on,,1,0,6,,,,,,,,,,,,,,,,2,,57,72
8399,note_on,,59,0,15,,,,,,,,,,,,,,,,15,,66,0
8399,note_on,,0,0,15,,,,,,,,,,,,,,,,15,,62,0
8399,note_on,,0,0,15,,,,,,,,,,,,,,,,15,,57,0
8399,note_on,,59,0,14,,,,,,,,,,,,,,,,13,,57,0
8399,note_on,,59,0,10,,,,,,,,,,,,,,,,8,,57,0
8399,note_on,,59,0,6,,,,,,,,,,,,,,,,2,,57,0
8400,note_on,,1,0,6,,,,,,,,,,,,,,,,2,,56,72
8400,note_on,,1,0,15,,,,,,,,,,,,,,,,15,,56,72
8400,note_on,,0,0,15,,,,,,,,,,,,,,,,15,,64,72
8400,note_on,,0,0,15,,,,,,,,,,,,,,,,15,,62,72
8400,note_on,,1,0,10,,,,,,,,,,,,,,,,8,,56,72
8400,note_on,,1,0,14,,,,,,,,,,,,,,,,13,,56,72
8459,note_on,,59,0,6,,,,,,,,,,,,,,,,2,,56,0
8459,note_on,,59,0,15,,,,,,,,,,,,,,,,15,,56,0
8459,note_on,,59,0,14,,,,,,,,,,,,,,,,13,,56,0
8459,note_on,,59,0,10,,,,,,,,,,,,,,,,8,,56,0
8460,note_on,,1,0,14,,,,,,,,,,,,,,,,13,,52,72
8460,note_on,,1,0,6,,,,,,,,,,,,,,,,2,,52,72
8460,note_on,,1,0,10,,,,,,,,,,,,,,,,8,,52,72
8460,note_on,,1,0,15,,,,,,,,,,,,,,,,15,,52,72
8519,note_on,,59,0,6,,,,,,,,,,,,,,,,2,,52,0
8519,note_on,,59,0,10,,,,,,,,,,,,,,,,8,,52,0
8519,note_on,,59,0,14,,,,,,,,,,,,,,,,13,,52,0
8519,note_on,,0,0,15,,,,,,,,,,,,,,,,15,,62,0
8519,note_on,,239,0,8,,,,,,,,,,,,,,,,6,,62,0
8519,note_on,,239,0,12,,,,,,,,,,,,,,,,11,,62,0
8519,note_on,,0,0,15,,,,,,,,,,,,,,,,15,,52,0
8519,note_on,,0,0,15,,,,,,,,,,,,,,,,15,,64,0
8519,note_on,,59,0,15,,,,,,,,,,,,,,,,15,,71,0
8520,note_on,,0,0,15,,,,,,,,,,,,,,,,15,,61,72
8520,note_on,,0,0,15,,,,,,,,,,,,,,,,15,,69,72
8520,note_on,,1,0,6,,,,,,,,,,,,,,,,2,,57,72
8520,note_on,,1,0,15,,,,,,,,,,,,,,,,15,,57,72
8520,note_on,,1,0,10,,,,,,,,,,,,,,,,8,,57,72
8520,note_on,,0,0,15,,,,,,,,,,,,,,,,15,,64,72
8520,note_on,,1,0,12,,,,,,,,,,,,,,,,11,,61,72
8520,note_on,,1,0,8,,,,,,,,,,,,,,,,6,,61,72
8520,note_on,,1,0,14,,,,,,,,,,,,,,,,13,,57,72
8579,note_on,,59,0,12,,,,,,,,,,,,,,,,11,,61,0
8579,note_on,,59,0,8,,,,,,,,,,,,,,,,6,,61,0
8580,note_on,,1,0,12,,,,,,,,,,,,,,,,11,,62,72
8580,note_on,,1,0,8,,,,,,,,,,,,,,,,6,,62,72
8639,note_on,,0,0,15,,,,,,,,,,,,,,,,15,,61,0
8639,note_on,,59,0,12,,,,,,,,,,,,,,,,11,,62,0
8639,note_on,,119,0,15,,,,,,,,,,,,,,,,15,,69,0
8639,note_on,,59,0,8,,,,,,,,,,,,,,,,6,,62,0
8639,note_on,,0,0,15,,,,,,,,,,,,,,,,15,,64,0
8640,note_on,,0,0,15,,,,,,,,,,,,,,,,15,,64,72
8640,note_on,,1,0,12,,,,,,,,,,,,,,,,11,,64,72
8640,note_on,,0,0,15,,,,,,,,,,,,,,,,15,,59,72
8640,note_on,,1,0,15,,,,,,,,,,,,,,,,15,,71,72
8640,note_on,,1,0,8,,,,,,,,,,,,,,,,6,,64,72
8699,note_on,,59,0,15,,,,,,,,,,,,,,,,15,,59,0
8700,note_on,,1,0,15,,,,,,,,,,,,,,,,15,,59,72
8700,note_on,,661,0,9,,,,,,,,,,,,,,,,7,,59,72
8700,note_on,,661,0,13,,,,,,,,,,,,,,,,12,,59,72
8759,note_on,,59,0,13,,,,,,,,,,,,,,,,12,,59,0
8759,note_on,,239,0,10,,,,,,,,,,,,,,,,8,,57,0
8759,note_on,,239,0,6,,,,,,,,,,,,,,,,2,,57,0
8759,note_on,,59,0,15,,,,,,,,,,,,,,,,15,,57,0
8759,note_on,,0,0,15,,,,,,,,,,,,,,,,15,,59,0
8759,note_on,,239,0,14,,,,,,,,,,,,,,,,13,,57,0
8759,note_on,,59,0,9,,,,,,,,,,,,,,,,7,,59,0
8760,note_on,,1,0,15,,,,,,,,,,,,,,,,15,,56,72
8760,note_on,,1,0,13,,,,,,,,,,,,,,,,12,,64,72
8760,note_on,,1,0,10,,,,,,,,,,,,,,,,8,,56,72
8760,note_on,,1,0,14,,,,,,,,,,,,,,,,13,,56,72
8760,note_on,,1,0,6,,,,,,,,,,,,,,,,2,,56,72
8760,note_on,,1,0,9,,,,,,,,,,,,,,,,7,,64,72
8819,note_on,,179,0,8,,,,,,,,,,,,,,,,6,,64,0
8819,note_on,,179,0,12,,,,,,,,,,,,,,,,11,,64,0
8819,note_on,,59,0,10,,,,,,,,,,,,,,,,8,,56,0
8819,note_on,,59,0,9,,,,,,,,,,,,,,,,7,,64,0
8819,note_on,,59,0,6,,,,,,,,,,,,,,,,2,,56,0
8819,note_on,,59,0,15,,,,,,,,,,,,,,,,15,,56,0
8819,note_on,,59,0,14,,,,,,,,,,,,,,,,13,,56,0
8819,note_on,,59,0,13,,,,,,,,,,,,,,,,12,,64,0
8820,note_on,,1,0,14,,,,,,,,,,,,,,,,13,,56,72
8820,note_on,,1,0,12,,,,,,,,,,,,,,,,11,,64,72
8820,note_on,,0,0,15,,,,,,,,,,,,,,,,15,,59,72
8820,note_on,,1,0,15,,,,,,,,,,,,,,,,15,,56,72
8820,note_on,,1,0,6,,,,,,,,,,,,,,,,2,,56,72
8820,note_on,,1,0,8,,,,,,,,,,,,,,,,6,,64,72
8820,note_on,,1,0,9,,,,,,,,,,,,,,,,7,,59,72
8820,note_on,,1,0,10,,,,,,,,,,,,,,,,8,,56,72
8820,note_on,,1,0,13,,,,,,,,,,,,,,,,12,,59,72
8879,note_on,,59,0,6,,,,,,,,,,,,,,,,2,,56,0
8879,note_on,,59,0,9,,,,,,,,,,,,,,,,7,,59,0
8879,note_on,,59,0,13,,,,,,,,,,,,,,,,12,,59,0
8879,note_on,,59,0,8,,,,,,,,,,,,,,,,6,,64,0
8879,note_on,,59,0,15,,,,,,,,,,,,,,,,15,,71,0
8879,note_on,,59,0,12,,,,,,,,,,,,,,,,11,,64,0
8879,note_on,,59,0,10,,,,,,,,,,,,,,,,8,,56,0
8879,note_on,,59,0,14,,,,,,,,,,,,,,,,13,,56,0
8879,note_on,,0,0,15,,,,,,,,,,,,,,,,15,,59,0
8879,note_on,,0,0,15,,,,,,,,,,,,,,,,15,,64,0
8879,note_on,,0,0,15,,,,,,,,,,,,,,,,15,,56,0
8880,note_on,,1,0,9,,,,,,,,,,,,,,,,7,,61,72
8880,note_on,,1,0,10,,,,,,,,,,,,,,,,8,,57,72
8880,note_on,,1,0,8,,,,,,,,,,,,,,,,6,,64,72
8880,note_on,,1,0,12,,,,,,,,,,,,,,,,11,,64,72
8880,note_on,,1,0,6,,,,,,,,,,,,,,,,2,,57,72
8880,note_on,,0,0,15,,,,,,,,,,,,,,,,15,,61,72
8880,note_on,,0,0,15,,,,,,,,,,,,,,,,15,,64,72
8880,note_on,,1,0,15,,,,,,,,,,,,,,,,15,,57,72
8880,note_on,,1,0,13,,,,,,,,,,,,,,,,12,,61,72
8880,note_on,,1,0,14,,,,,,,,,,,,,,,,13,,57,72
8939,note_on,,59,0,15,,,,,,,,,,,,,,,,15,,61,0
8939,note_on,,59,0,9,,,,,,,,,,,,,,,,7,,61,0
8939,note_on,,59,0,13,,,,,,,,,,,,,,,,12,,61,0
8940,note_on,,1,0,15,,,,,,,,,,,,,,,,15,,59,72
8940,note_on,,1,0,13,,,,,,,,,,,,,,,,12,,59,72
8940,note_on,,1,0,9,,,,,,,,,,,,,,,,7,,59,72
8969,note_on,,29,0,9,,,,,,,,,,,,,,,,7,,59,0
8969,note_on,,29,0,13,,,,,,,,,,,,,,,,12,,59,0
8969,note_on,,29,0,15,,,,,,,,,,,,,,,,15,,59,0
8970,note_on,,1,0,15,,,,,,,,,,,,,,,,15,,57,72
8970,note_on,,1,0,9,,,,,,,,,,,,,,,,7,,57,72
8970,note_on,,1,0,13,,,,,,,,,,,,,,,,12,,57,72
8999,note_on,,29,0,9,,,,,,,,,,,,,,,,7,,57,0
8999,note_on,,119,0,12,,,,,,,,,,,,,,,,11,,64,0
8999,note_on,,119,0,6,,,,,,,,,,,,,,,,2,,57,0
8999,note_on,,119,0,14,,,,,,,,,,,,,,,,13,,57,0
8999,note_on,,119,0,8,,,,,,,,,,,,,,,,6,,64,0
8999,note_on,,29,0,15,,,,,,,,,,,,,,,,15,,57,0
8999,note_on,,29,0,13,,,,,,,,,,,,,,,,12,,57,0
8999,note_on,,0,0,15,,,,,,,,,,,,,,,,15,,57,0
8999,note_on,,0,0,15,,,,,,,,,,,,,,,,15,,64,0
8999,note_on,,119,0,10,,,,,,,,,,,,,,,,8,,57,0
9000,note_on,,0,0,15,,,,,,,,,,,,,,,,15,,56,72
9000,note_on,,1,0,13,,,,,,,,,,,,,,,,12,,56,72
9000,note_on,,1,0,14,,,,,,,,,,,,,,,,13,,52,72
9000,note_on,,1,0,10,,,,,,,,,,,,,,,,8,,52,72
9000,note_on,,1,0,6,,,,,,,,,,,,,,,,2,,52,72
9000,note_on,,1,0,15,,,,,,,,,,,,,,,,15,,52,72
9000,note_on,,1,0,9,,,,,,,,,,,,,,,,7,,56,72
9059,note_on,,59,0,15,,,,,,,,,,,,,,,,15,,56,0
9059,note_on,,59,0,13,,,,,,,,,,,,,,,,12,,56,0
9059,note_on,,59,0,9,,,,,,,,,,,,,,,,7,,56,0
9060,note_on,,1,0,13,,,,,,,,,,,,,,,,12,,54,72
9060,note_on,,1,0,15,,,,,,,,,,,,,,,,15,,54,72
9060,note_on,,1,0,9,,,,,,,,,,,,,,,,7,,54,72
9089,note_on,,29,0,9,,,,,,,,,,,,,,,,7,,54,0
9089,note_on,,29,0,13,,,,,,,,,,,,,,,,12,,54,0
9089,note_on,,29,0,15,,,,,,,,,,,,,,,,15,,54,0
9090,note_on,,1,0,9,,,,,,,,,,,,,,,,7,,56,72
9090,note_on,,1,0,15,,,,,,,,,,,,,,,,15,,56,72
9090,note_on,,1,0,13,,,,,,,,,,,,,,,,12,,56,72
9119,note_on,,29,0,15,,,,,,,,,,,,,,,,15,,56,0
9119,note_on,,29,0,13,,,,,,,,,,,,,,,,12,,56,0
9119,note_on,,29,0,9,,,,,,,,,,,,,,,,7,,56,0
9120,note_on,,0,0,15,,,,,,,,,,,,,,,,15,,57,72
9120,note_on,,1,0,13,,,,,,,,,,,,,,,,12,,57,72
9120,note_on,,1,0,9,,,,,,,,,,,,,,,,7,,57,72
9120,note_on,,1,0,15,,,,,,,,,,,,,,,,15,,54,72
9179,note_on,,59,0,9,,,,,,,,,,,,,,,,7,,57,0
9179,note_on,,59,0,13,,,,,,,,,,,,,,,,12,,57,0
9180,note_on,,1,0,13,,,,,,,,,,,,,,,,12,,54,72
9180,note_on,,1,0,9,,,,,,,,,,,,,,,,7,,54,72
9239,note_on,,0,0,15,,,,,,,,,,,,,,,,15,,57,0
9239,note_on,,119,0,15,,,,,,,,,,,,,,,,15,,52,0
9239,note_on,,239,0,14,,,,,,,,,,,,,,,,13,,52,0
9239,note_on,,239,0,6,,,,,,,,,,,,,,,,2,,52,0
9239,note_on,,239,0,10,,,,,,,,,,,,,,,,8,,52,0
9239,note_on,,59,0,13,,,,,,,,,,,,,,,,12,,54,0
9239,note_on,,59,0,9,,,,,,,,,,,,,,,,7,,54,0
9240,note_on,,0,0,15,,,,,,,,,,,,,,,,15,,59,72
9240,note_on,,1,0,10,,,,,,,,,,,,,,,,8,,50,72
9240,note_on,,1,0,13,,,,,,,,,,,,,,,,12,,59,72
9240,note_on,,1,0,6,,,,,,,,,,,,,,,,2,,50,72
9240,note_on,,1,0,15,,,,,,,,,,,,,,,,15,,50,72
9240,note_on,,1,0,9,,,,,,,,,,,,,,,,7,,59,72
9240,note_on,,1,0,14,,,,,,,,,,,,,,,,13,,50,72
9299,note_on,,59,0,13,,,,,,,,,,,,,,,,12,,59,0
9299,note_on,,59,0,9,,,,,,,,,,,,,,,,7,,59,0
9300,note_on,,1,0,9,,,,,,,,,,,,,,,,7,,57,72
9300,note_on,,1,0,13,,,,,,,,,,,,,,,,12,,57,72
9359,note_on,,119,0,15,,,,,,,,,,,,,,,,15,,54,0
9359,note_on,,59,0,9,,,,,,,,,,,,,,,,7,,57,0
9359,note_on,,59,0,13,,,,,,,,,,,,,,,,12,,57,0
9360,note_on,,0,0,15,,,,,,,,,,,,,,,,15,,56,72
9360,note_on,,1,0,15,,,,,,,,,,,,,,,,15,,52,72
9360,note_on,,1,0,13,,,,,,,,,,,,,,,,12,,56,72
9360,note_on,,1,0,9,,,,,,,,,,,,,,,,7,,56,72
9420,note_on,,421,0,12,,,,,,,,,,,,,,,,11,,64,72
9420,note_on,,421,0,8,,,,,,,,,,,,,,,,6,,64,72
9479,note_on,,0,0,15,,,,,,,,,,,,,,,,15,,56,0
9479,note_on,,0,0,15,,,,,,,,,,,,,,,,15,,52,0
9479,note_on,,0,0,15,,,,,,,,,,,,,,,,15,,59,0
9479,note_on,,59,0,12,,,,,,,,,,,,,,,,11,,64,0
9479,note_on,,239,0,10,,,,,,,,,,,,,,,,8,,50,0
9479,note_on,,59,0,8,,,,,,,,,,,,,,,,6,,64,0
9479,note_on,,119,0,15,,,,,,,,,,,,,,,,15,,50,0
9479,note_on,,239,0,6,,,,,,,,,,,,,,,,2,,50,0
9479,note_on,,239,0,14,,,,,,,,,,,,,,,,13,,50,0
9479,note_on,,119,0,13,,,,,,,,,,,,,,,,12,,56,0
9479,note_on,,119,0,9,,,,,,,,,,,,,,,,7,,56,0
9480,note_on,,0,0,15,,,,,,,,,,,,,,,,15,,52,72
9480,note_on,,1,0,8,,,,,,,,,,,,,,,,6,,69,72
9480,note_on,,1,0,10,,,,,,,,,,,,,,,,8,,49,72
9480,note_on,,1,0,13,,,,,,,,,,,,,,,,12,,57,72
9480,note_on,,0,0,15,,,,,,,,,,,,,,,,15,,64,72
9480,note_on,,1,0,9,,,,,,,,,,,,,,,,7,,57,72
9480,note_on,,1,0,15,,,,,,,,,,,,,,,,15,,49,72
9480,note_on,,0,0,15,,,,,,,,,,,,,,,,15,,57,72
9480,note_on,,0,0,15,,,,,,,,,,,,,,,,15,,69,72
9480,note_on,,1,0,6,,,,,,,,,,,,,,,,2,,49,72
9480,note_on,,1,0,14,,,,,,,,,,,,,,,,13,,49,72
9480,note_on,,1,0,12,,,,,,,,,,,,,,,,11,,69,72
9539,note_on,,59,0,12,,,,,,,,,,,,,,,,11,,69,0
9539,note_on,,59,0,8,,,,,,,,,,,,,,,,6,,69,0
9540,note_on,,1,0,12,,,,,,,,,,,,,,,,11,,64,72
9540,note_on,,1,0,8,,,,,,,,,,,,,,,,6,,64,72
9599,note_on,,119,0,14,,,,,,,,,,,,,,,,13,,49,0
9599,note_on,,0,0,15,,,,,,,,,,,,,,,,15,,57,0
9599,note_on,,0,0,15,,,,,,,,,,,,,,,,15,,64,0
9599,note_on,,0,0,15,,,,,,,,,,,,,,,,15,,69,0
9599,note_on,,0,0,15,,,,,,,,,,,,,,,,15,,52,0
9599,note_on,,119,0,15,,,,,,,,,,,,,,,,15,,49,0
9599,note_on,,59,0,12,,,,,,,,,,,,,,,,11,,64,0
9599,note_on,,119,0,6,,,,,,,,,,,,,,,,2,,49,0
9599,note_on,,119,0,10,,,,,,,,,,,,,,,,8,,49,0
9599,note_on,,59,0,8,,,,,,,,,,,,,,,,6,,64,0
9600,note_on,,1,0,6,,,,,,,,,,,,,,,,2,,50,72
9600,note_on,,1,0,12,,,,,,,,,,,,,,,,11,,66,72
9600,note_on,,0,0,15,,,,,,,,,,,,,,,,15,,66,72
9600,note_on,,1,0,8,,,,,,,,,,,,,,,,6,,66,72
9600,note_on,,1,0,14,,,,,,,,,,,,,,,,13,,50,72
9600,note_on,,1,0,15,,,,,,,,,,,,,,,,15,,50,72
9600,note_on,,0,0,15,,,,,,,,,,,,,,,,15,,54,72
9600,note_on,,0,0,15,,,,,,,,,,,,,,,,15,,57,72
9600,note_on,,0,0,15,,,,,,,,,,,,,,,,15,,62,72
9600,note_on,,1,0,10,,,,,,,,,,,,,,,,8,,50,72
9659,note_on,,59,0,8,,,,,,,,,,,,,,,,6,,66,0
9659,note_on,,59,0,12,,,,,,,,,,,,,,,,11,,66,0
9660,note_on,,1,0,8,,,,,,,,,,,,,,,,6,,64,72
9660,note_on,,1,0,12,,,,,,,,,,,,,,,,11,,64,72
9689,note_on,,29,0,8,,,,,,,,,,,,,,,,6,,64,0
9689,note_on,,29,0,12,,,,,,,,,,,,,,,,11,,64,0
9690,note_on,,1,0,8,,,,,,,,,,,,,,,,6,,62,72
9690,note_on,,1,0,12,,,,,,,,,,,,,,,,11,,62,72
9719,note_on,,0,0,15,,,,,,,,,,,,,,,,15,,57,0
9719,note_on,,0,0,15,,,,,,,,,,,,,,,,15,,66,0
9719,note_on,,119,0,15,,,,,,,,,,,,,,,,15,,50,0
9719,note_on,,239,0,9,,,,,,,,,,,,,,,,7,,57,0
9719,note_on,,119,0,6,,,,,,,,,,,,,,,,2,,50,0
9719,note_on,,0,0,15,,,,,,,,,,,,,,,,15,,62,0
9719,note_on,,239,0,13,,,,,,,,,,,,,,,,12,,57,0
9719,note_on,,119,0,14,,,,,,,,,,,,,,,,13,,50,0
9719,note_on,,0,0,15,,,,,,,,,,,,,,,,15,,54,0
9719,note_on,,29,0,8,,,,,,,,,,,,,,,,6,,62,0
9719,note_on,,29,0,12,,,,,,,,,,,,,,,,11,,62,0
9719,note_on,,119,0,10,,,,,,,,,,,,,,,,8,,50,0
9720,note_on,,1,0,8,,,,,,,,,,,,,,,,6,,61,72
9720,note_on,,1,0,6,,,,,,,,,,,,,,,,2,,52,72
9720,note_on,,0,0,15,,,,,,,,,,,,,,,,15,,64,72
9720,note_on,,0,0,15,,,,,,,,,,,,,,,,15,,61,72
9720,note_on,,1,0,12,,,,,,,,,,,,,,,,11,,61,72
9720,note_on,,1,0,14,,,,,,,,,,,,,,,,13,,52,72
9720,note_on,,1,0,10,,,,,,,,,,,,,,,,8,,52,72
9720,note_on,,1,0,15,,,,,,,,,,,,,,,,15,,52,72
9720,note_on,,1,0,13,,,,,,,,,,,,,,,,12,,56,72
9720,note_on,,1,0,9,,,,,,,,,,,,,,,,7,,56,72
9720,note_on,,0,0,15,,,,,,,,,,,,,,,,15,,56,72
9779,note_on,,59,0,12,,,,,,,,,,,,,,,,11,,61,0
9779,note_on,,59,0,8,,,,,,,,,,,,,,,,6,,61,0
9780,note_on,,1,0,12,,,,,,,,,,,,,,,,11,,59,72
9780,note_on,,1,0,8,,,,,,,,,,,,,,,,6,,59,72
9809,note_on,,29,0,8,,,,,,,,,,,,,,,,6,,59,0
9809,note_on,,29,0,12,,,,,,,,,,,,,,,,11,,59,0
9810,note_on,,1,0,8,,,,,,,,,,,,,,,,6,,61,72
9810,note_on,,1,0,12,,,,,,,,,,,,,,,,11,,61,72
9839,note_on,,119,0,10,,,,,,,,,,,,,,,,8,,52,0
9839,note_on,,119,0,14,,,,,,,,,,,,,,,,13,,52,0
9839,note_on,,29,0,8,,,,,,,,,,,,,,,,6,,61,0
9839,note_on,,119,0,13,,,,,,,,,,,,,,,,12,,56,0
9839,note_on,,29,0,12,,,,,,,,,,,,,,,,11,,61,0
9839,note_on,,119,0,9,,,,,,,,,,,,,,,,7,,56,0
9839,note_on,,119,0,15,,,,,,,,,,,,,,,,15,,52,0
9839,note_on,,0,0,15,,,,,,,,,,,,,,,,15,,56,0
9839,note_on,,119,0,6,,,,,,,,,,,,,,,,2,,52,0
9839,note_on,,0,0,15,,,,,,,,,,,,,,,,15,,64,0
9839,note_on,,0,0,15,,,,,,,,,,,,,,,,15,,61,0
9840,note_on,,1,0,15,,,,,,,,,,,,,,,,15,,54,72
9840,note_on,,1,0,12,,,,,,,,,,,,,,,,11,,62,72
9840,note_on,,1,0,6,,,,,,,,,,,,,,,,2,,54,72
9840,note_on,,1,0,14,,,,,,,,,,,,,,,,13,,54,72
9840,note_on,,0,0,15,,,,,,,,,,,,,,,,15,,62,72
9840,note_on,,1,0,8,,,,,,,,,,,,,,,,6,,62,72
9840,note_on,,1,0,13,,,,,,,,,,,,,,,,12,,57,72
9840,note_on,,0,0,15,,,,,,,,,,,,,,,,15,,57,72
9840,note_on,,1,0,9,,,,,,,,,,,,,,,,7,,57,72
9840,note_on,,1,0,10,,,,,,,,,,,,,,,,8,,54,72
9899,note_on,,59,0,8,,,,,,,,,,,,,,,,6,,62,0
9899,note_on,,59,0,12,,,,,,,,,,,,,,,,11,,62,0
9900,note_on,,1,0,8,,,,,,,,,,,,,,,,6,,61,72
9900,note_on,,1,0,12,,,,,,,,,,,,,,,,11,,61,72
9929,note_on,,29,0,8,,,,,,,,,,,,,,,,6,,61,0
9929,note_on,,29,0,12,,,,,,,,,,,,,,,,11,,61,0
9930,note_on,,1,0,8,,,,,,,,,,,,,,,,6,,62,72
9930,note_on,,1,0,12,,,,,,,,,,,,,,,,11,,62,72
9959,note_on,,119,0,13,,,,,,,,,,,,,,,,12,,57,0
9959,note_on,,119,0,9,,,,,,,,,,,,,,,,7,,57,0
9959,note_on,,119,0,6,,,,,,,,,,,,,,,,2,,54,0
9959,note_on,,119,0,10,,,,,,,,,,,,,,,,8,,54,0
9959,note_on,,29,0,12,,,,,,,,,,,,,,,,11,,62,0
9959,note_on,,29,0,8,,,,,,,,,,,,,,,,6,,62,0
9959,note_on,,119,0,15,,,,,,,,,,,,,,,,15,,54,0
9959,note_on,,119,0,14,,,,,,,,,,,,,,,,13,,54,0
9959,note_on,,0,0,15,,,,,,,,,,,,,,,,15,,62,0
9959,note_on,,0,0,15,,,,,,,,,,,,,,,,15,,57,0
9960,note_on,,1,0,6,,,,,,,,,,,,,,,,2,,56,72
9960,note_on,,0,0,15,,,,,,,,,,,,,,,,15,,64,72
9960,note_on,,0,0,15,,,,,,,,,,,,,,,,15,,71,72
9960,note_on,,1,0,15,,,,,,,,,,,,,,,,15,,56,72
9960,note_on,,1,0,12,,,,,,,,,,,,,,,,11,,59,72
9960,note_on,,1,0,8,,,,,,,,,,,,,,,,6,,59,72
9960,note_on,,0,0,15,,,,,,,,,,,,,,,,15,,59,72
9960,note_on,,1,0,10,,,,,,,,,,,,,,,,8,,56,72
9960,note_on,,1,0,14,,,,,,,,,,,,,,,,13,,56,72
10019,note_on,,59,0,8,,,,,,,,,,,,,,,,6,,59,0
10019,note_on,,59,0,12,,,,,,,,,,,,,,,,11,,59,0
10020,note_on,,1,0,8,,,,,,,,,,,,,,,,6,,64,72
10020,note_on,,1,0,12,,,,,,,,,,,,,,,,11,,64,72
10079,note_on,,119,0,15,,,,,,,,,,,,,,,,15,,56,0
10079,note_on,,119,0,6,,,,,,,,,,,,,,,,2,,56,0
10079,note_on,,0,0,15,,,,,,,,,,,,,,,,15,,71,0
10079,note_on,,59,0,12,,,,,,,,,,,,,,,,11,,64,0
10079,note_on,,0,0,15,,,,,,,,,,,,,,,,15,,59,0
10079,note_on,,119,0,14,,,,,,,,,,,,,,,,13,,56,0
10079,note_on,,119,0,10,,,,,,,,,,,,,,,,8,,56,0
10079,note_on,,0,0,15,,,,,,,,,,,,,,,,15,,64,0
10079,note_on,,59,0,8,,,,,,,,,,,,,,,,6,,64,0
10080,note_on,,1,0,15,,,,,,,,,,,,,,,,15,,57,72
10080,note_on,,0,0,15,,,,,,,,,,,,,,,,15,,64,72
10080,note_on,,0,0,15,,,,,,,,,,,,,,,,15,,61,72
10080,note_on,,1,0,8,,,,,,,,,,,,,,,,6,,61,72
10080,note_on,,1,0,6,,,,,,,,,,,,,,,,2,,57,72
10080,note_on,,1,0,14,,,,,,,,,,,,,,,,13,,57,72
10080,note_on,,1,0,10,,,,,,,,,,,,,,,,8,,57,72
10080,note_on,,1,0,12,,,,,,,,,,,,,,,,11,,61,72
10140,note_on,,1861,0,11,,,,,,,,,,,,,,,,10,,76,72
10140,note_on,,1861,0,5,,,,,,,,,,,,,,,,1,,76,72
10140,note_on,,1861,0,7,,,,,,,,,,,,,,,,5,,76,72
10199,note_on,,0,0,15,,,,,,,,,,,,,,,,15,,64,0
10199,note_on,,119,0,10,,,,,,,,,,,,,,,,8,,57,0
10199,note_on,,59,0,5,,,,,,,,,,,,,,,,1,,76,0
10199,note_on,,119,0,6,,,,,,,,,,,,,,,,2,,57,0
10199,note_on,,119,0,15,,,,,,,,,,,,,,,,15,,57,0
10199,note_on,,59,0,7,,,,,,,,,,,,,,,,5,,76,0
10199,note_on,,0,0,15,,,,,,,,,,,,,,,,15,,61,0
10199,note_on,,59,0,11,,,,,,,,,,,,,,,,10,,76,0
10199,note_on,,119,0,14,,,,,,,,,,,,,,,,13,,57,0
10200,note_on,,0,0,15,,,,,,,,,,,,,,,,15,,64,72
10200,note_on,,241,0,9,,,,,,,,,,,,,,,,7,,57,72
10200,note_on,,0,0,15,,,,,,,,,,,,,,,,15,,73,72
10200,note_on,,241,0,13,,,,,,,,,,,,,,,,12,,57,72
10200,note_on,,1,0,5,,,,,,,,,,,,,,,,1,,81,72
10200,note_on,,0,0,15,,,,,,,,,,,,,,,,15,,69,72
10200,note_on,,1,0,15,,,,,,,,,,,,,,,,15,,57,72
10200,note_on,,1,0,14,,,,,,,,,,,,,,,,13,,57,72
10200,note_on,,1,0,7,,,,,,,,,,,,,,,,5,,81,72
10200,note_on,,1,0,11,,,,,,,,,,,,,,,,10,,81,72
10259,note_on,,59,0,7,,,,,,,,,,,,,,,,5,,81,0
10259,note_on,,59,0,11,,,,,,,,,,,,,,,,10,,81,0
10259,note_on,,59,0,5,,,,,,,,,,,,,,,,1,,81,0
10260,note_on,,1,0,11,,,,,,,,,,,,,,,,10,,76,72
10260,note_on,,1,0,5,,,,,,,,,,,,,,,,1,,76,72
10260,note_on,,1,0,7,,,,,,,,,,,,,,,,5,,76,72
10319,note_on,,59,0,7,,,,,,,,,,,,,,,,5,,76,0
10319,note_on,,0,0,15,,,,,,,,,,,,,,,,15,,69,0
10319,note_on,,119,0,13,,,,,,,,,,,,,,,,12,,57,0
10319,note_on,,119,0,9,,,,,,,,,,,,,,,,7,,57,0
10319,note_on,,59,0,11,,,,,,,,,,,,,,,,10,,76,0
10319,note_on,,0,0,15,,,,,,,,,,,,,,,,15,,73,0
10319,note_on,,119,0,14,,,,,,,,,,,,,,,,13,,57,0
10319,note_on,,239,0,8,,,,,,,,,,,,,,,,6,,61,0
10319,note_on,,59,0,5,,,,,,,,,,,,,,,,1,,76,0
10319,note_on,,239,0,12,,,,,,,,,,,,,,,,11,,61,0
10319,note_on,,0,0,15,,,,,,,,,,,,,,,,15,,64,0
10319,note_on,,119,0,15,,,,,,,,,,,,,,,,15,,57,0
10320,note_on,,1,0,9,,,,,,,,,,,,,,,,7,,62,72
10320,note_on,,1,0,5,,,,,,,,,,,,,,,,1,,78,72
10320,note_on,,1,0,14,,,,,,,,,,,,,,,,13,,62,72
10320,note_on,,1,0,7,,,,,,,,,,,,,,,,5,,78,72
10320,note_on,,1,0,15,,,,,,,,,,,,,,,,15,,62,72
10320,note_on,,0,0,15,,,,,,,,,,,,,,,,15,,74,72
10320,note_on,,0,0,15,,,,,,,,,,,,,,,,15,,69,72
10320,note_on,,0,0,15,,,,,,,,,,,,,,,,15,,66,72
10320,note_on,,1,0,11,,,,,,,,,,,,,,,,10,,78,72
10320,note_on,,1,0,8,,,,,,,,,,,,,,,,6,,69,72
10320,note_on,,1,0,12,,,,,,,,,,,,,,,,11,,69,72
10320,note_on,,1,0,13,,,,,,,,,,,,,,,,12,,62,72
10379,note_on,,59,0,11,,,,,,,,,,,,,,,,10,,78,0
10379,note_on,,59,0,5,,,,,,,,,,,,,,,,1,,78,0
10379,note_on,,59,0,7,,,,,,,,,,,,,,,,5,,78,0
10380,note_on,,1,0,7,,,,,,,,,,,,,,,,5,,76,72
10380,note_on,,1,0,11,,,,,,,,,,,,,,,,10,,76,72
10380,note_on,,1,0,5,,,,,,,,,,,,,,,,1,,76,72
10409,note_on,,29,0,5,,,,,,,,,,,,,,,,1,,76,0
10409,note_on,,29,0,7,,,,,,,,,,,,,,,,5,,76,0
10409,note_on,,29,0,11,,,,,,,,,,,,,,,,10,,76,0
10410,note_on,,1,0,5,,,,,,,,,,,,,,,,1,,74,72
10410,note_on,,1,0,11,,,,,,,,,,,,,,,,10,,74,72
10410,note_on,,1,0,7,,,,,,,,,,,,,,,,5,,74,72
10439,note_on,,119,0,14,,,,,,,,,,,,,,,,13,,62,0
10439,note_on,,29,0,11,,,,,,,,,,,,,,,,10,,74,0
10439,note_on,,29,0,7,,,,,,,,,,,,,,,,5,,74,0
10439,note_on,,119,0,9,,,,,,,,,,,,,,,,7,,62,0
10439,note_on,,119,0,15,,,,,,,,,,,,,,,,15,,62,0
10439,note_on,,0,0,15,,,,,,,,,,,,,,,,15,,74,0
10439,note_on,,0,0,15,,,,,,,,,,,,,,,,15,,69,0
10439,note_on,,0,0,15,,,,,,,,,,,,,,,,15,,66,0
10439,note_on,,29,0,5,,,,,,,,,,,,,,,,1,,74,0
10439,note_on,,119,0,13,,,,,,,,,,,,,,,,12,,62,0
10440,note_on,,1,0,11,,,,,,,,,,,,,,,,10,,73,72
10440,note_on,,1,0,9,,,,,,,,,,,,,,,,7,,57,72
10440,note_on,,1,0,13,,,,,,,,,,,,,,,,12,,57,72
10440,note_on,,1,0,14,,,,,,,,,,,,,,,,13,,57,72
10440,note_on,,1,0,7,,,,,,,,,,,,,,,,5,,73,72
10440,note_on,,1,0,15,,,,,,,,,,,,,,,,15,,57,72
10440,note_on,,0,0,15,,,,,,,,,,,,,,,,15,,73,72
10440,note_on,,0,0,15,,,,,,,,,,,,,,,,15,,64,72
10440,note_on,,0,0,15,,,,,,,,,,,,,,,,15,,69,72
10440,note_on,,1,0,5,,,,,,,,,,,,,,,,1,,73,72
10499,note_on,,59,0,5,,,,,,,,,,,,,,,,1,,73,0
10499,note_on,,59,0,11,,,,,,,,,,,,,,,,10,,73,0
10499,note_on,,59,0,15,,,,,,,,,,,,,,,,15,,69,0
10499,note_on,,179,0,12,,,,,,,,,,,,,,,,11,,69,0
10499,note_on,,59,0,7,,,,,,,,,,,,,,,,5,,73,0
10499,note_on,,179,0,8,,,,,,,,,,,,,,,,6,,69,0
10500,note_on,,1,0,8,,,,,,,,,,,,,,,,6,,67,72
10500,note_on,,1,0,12,,,,,,,,,,,,,,,,11,,67,72
10500,note_on,,1,0,11,,,,,,,,,,,,,,,,10,,71,72
10500,note_on,,1,0,15,,,,,,,,,,,,,,,,15,,67,72
10500,note_on,,1,0,7,,,,,,,,,,,,,,,,5,,71,72
10500,note_on,,1,0,5,,,,,,,,,,,,,,,,1,,71,72
10529,note_on,,29,0,5,,,,,,,,,,,,,,,,1,,71,0
10529,note_on,,29,0,7,,,,,,,,,,,,,,,,5,,71,0
10529,note_on,,29,0,11,,,,,,,,,,,,,,,,10,,71,0
10530,note_on,,1,0,11,,,,,,,,,,,,,,,,10,,73,72
10530,note_on,,1,0,5,,,,,,,,,,,,,,,,1,,73,72
10530,note_on,,1,0,7,,,,,,,,,,,,,,,,5,,73,72
10559,note_on,,119,0,14,,,,,,,,,,,,,,,,13,,57,0
10559,note_on,,59,0,8,,,,,,,,,,,,,,,,6,,67,0
10559,note_on,,29,0,5,,,,,,,,,,,,,,,,1,,73,0
10559,note_on,,119,0,13,,,,,,,,,,,,,,,,12,,57,0
10559,note_on,,29,0,7,,,,,,,,,,,,,,,,5,,73,0
10559,note_on,,59,0,12,,,,,,,,,,,,,,,,11,,67,0
10559,note_on,,0,0,15,,,,,,,,,,,,,,,,15,,67,0
10559,note_on,,0,0,15,,,,,,,,,,,,,,,,15,,64,0
10559,note_on,,0,0,15,,,,,,,,,,,,,,,,15,,73,0
10559,note_on,,59,0,15,,,,,,,,,,,,,,,,15,,57,0
10559,note_on,,29,0,11,,,,,,,,,,,,,,,,10,,73,0
10559,note_on,,119,0,9,,,,,,,,,,,,,,,,7,,57,0
10560,note_on,,0,0,15,,,,,,,,,,,,,,,,15,,62,72
10560,note_on,,0,0,15,,,,,,,,,,,,,,,,15,,66,72
10560,note_on,,0,0,15,,,,,,,,,,,,,,,,15,,71,72
10560,note_on,,1,0,15,,,,,,,,,,,,,,,,15,,59,72
10560,note_on,,1,0,12,,,,,,,,,,,,,,,,11,,66,72
10560,note_on,,1,0,11,,,,,,,,,,,,,,,,10,,74,72
10560,note_on,,1,0,14,,,,,,,,,,,,,,,,13,,59,72
10560,note_on,,1,0,9,,,,,,,,,,,,,,,,7,,59,72
10560,note_on,,1,0,8,,,,,,,,,,,,,,,,6,,66,72
10560,note_on,,1,0,13,,,,,,,,,,,,,,,,12,,59,72
10560,note_on,,1,0,7,,,,,,,,,,,,,,,,5,,74,72
10560,note_on,,1,0,5,,,,,,,,,,,,,,,,1,,74,72
10619,note_on,,59,0,7,,,,,,,,,,,,,,,,5,,74,0
10619,note_on,,59,0,15,,,,,,,,,,,,,,,,15,,62,0
10619,note_on,,59,0,11,,,,,,,,,,,,,,,,10,,74,0
10619,note_on,,59,0,5,,,,,,,,,,,,,,,,1,,74,0
10620,note_on,,1,0,7,,,,,,,,,,,,,,,,5,,76,72
10620,note_on,,1,0,15,,,,,,,,,,,,,,,,15,,61,72
10620,note_on,,1,0,5,,,,,,,,,,,,,,,,1,,76,72
10620,note_on,,1,0,11,,,,,,,,,,,,,,,,10,,76,72
10679,note_on,,59,0,7,,,,,,,,,,,,,,,,5,,76,0
10679,note_on,,119,0,13,,,,,,,,,,,,,,,,12,,59,0
10679,note_on,,59,0,15,,,,,,,,,,,,,,,,15,,59,0
10679,note_on,,0,0,15,,,,,,,,,,,,,,,,15,,61,0
10679,note_on,,119,0,9,,,,,,,,,,,,,,,,7,,59,0
10679,note_on,,59,0,11,,,,,,,,,,,,,,,,10,,76,0
10679,note_on,,59,0,5,,,,,,,,,,,,,,,,1,,76,0
10679,note_on,,119,0,14,,,,,,,,,,,,,,,,13,,59,0
10680,note_on,,1,0,5,,,,,,,,,,,,,,,,1,,78,72
10680,note_on,,1,0,9,,,,,,,,,,,,,,,,7,,57,72
10680,note_on,,1,0,13,,,,,,,,,,,,,,,,12,,57,72
10680,note_on,,1,0,7,,,,,,,,,,,,,,,,5,,78,72
10680,note_on,,1,0,14,,,,,,,,,,,,,,,,13,,57,72
10680,note_on,,0,0,15,,,,,,,,,,,,,,,,15,,62,72
10680,note_on,,1,0,15,,,,,,,,,,,,,,,,15,,57,72
10680,note_on,,1,0,11,,,,,,,,,,,,,,,,10,,78,72
10739,note_on,,179,0,8,,,,,,,,,,,,,,,,6,,66,0
10739,note_on,,59,0,13,,,,,,,,,,,,,,,,12,,57,0
10739,note_on,,59,0,9,,,,,,,,,,,,,,,,7,,57,0
10739,note_on,,59,0,14,,,,,,,,,,,,,,,,13,,57,0
10739,note_on,,59,0,11,,,,,,,,,,,,,,,,10,,78,0
10739,note_on,,59,0,5,,,,,,,,,,,,,,,,1,,78,0
10739,note_on,,59,0,15,,,,,,,,,,,,,,,,15,,71,0
10739,note_on,,0,0,15,,,,,,,,,,,,,,,,15,,66,0
10739,note_on,,0,0,15,,,,,,,,,,,,,,,,15,,57,0
10739,note_on,,0,0,15,,,,,,,,,,,,,,,,15,,62,0
10739,note_on,,179,0,12,,,,,,,,,,,,,,,,11,,66,0
10739,note_on,,59,0,7,,,,,,,,,,,,,,,,5,,78,0
10740,note_on,,1,0,13,,,,,,,,,,,,,,,,12,,55,72
10740,note_on,,1,0,14,,,,,,,,,,,,,,,,13,,55,72
10740,note_on,,1,0,11,,,,,,,,,,,,,,,,10,,79,72
10740,note_on,,1,0,5,,,,,,,,,,,,,,,,1,,79,72
10740,note_on,,0,0,15,,,,,,,,,,,,,,,,15,,64,72
10740,note_on,,1,0,8,,,,,,,,,,,,,,,,6,,64,72
10740,note_on,,0,0,15,,,,,,,,,,,,,,,,15,,67,72
10740,note_on,,0,0,15,,,,,,,,,,,,,,,,15,,73,72
10740,note_on,,1,0,7,,,,,,,,,,,,,,,,5,,79,72
10740,note_on,,1,0,9,,,,,,,,,,,,,,,,7,,55,72
10740,note_on,,1,0,15,,,,,,,,,,,,,,,,15,,55,72
10740,note_on,,1,0,12,,,,,,,,,,,,,,,,11,,64,72
10799,note_on,,0,0,15,,,,,,,,,,,,,,,,15,,64,0
10799,note_on,,59,0,15,,,,,,,,,,,,,,,,15,,55,0
10799,note_on,,59,0,9,,,,,,,,,,,,,,,,7,,55,0
10799,note_on,,59,0,13,,,,,,,,,,,,,,,,12,,55,0
10799,note_on,,59,0,8,,,,,,,,,,,,,,,,6,,64,0
10799,note_on,,59,0,5,,,,,,,,,,,,,,,,1,,79,0
10799,note_on,,59,0,12,,,,,,,,,,,,,,,,11,,64,0
10799,note_on,,59,0,14,,,,,,,,,,,,,,,,13,,55,0
10799,note_on,,59,0,11,,,,,,,,,,,,,,,,10,,79,0
10799,note_on,,59,0,7,,,,,,,,,,,,,,,,5,,79,0
10799,note_on,,0,0,15,,,,,,,,,,,,,,,,15,,67,0
10799,note_on,,0,0,15,,,,,,,,,,,,,,,,15,,73,0
10800,note_on,,0,0,15,,,,,,,,,,,,,,,,15,,66,72
10800,note_on,,1,0,13,,,,,,,,,,,,,,,,12,,54,72
10800,note_on,,0,0,15,,,,,,,,,,,,,,,,15,,69,72
10800,note_on,,1,0,14,,,,,,,,,,,,,,,,13,,54,72
10800,note_on,,1,0,7,,,,,,,,,,,,,,,,5,,81,72
10800,note_on,,0,0,15,,,,,,,,,,,,,,,,15,,74,72
10800,note_on,,1,0,15,,,,,,,,,,,,,,,,15,,54,72
10800,note_on,,1,0,8,,,,,,,,,,,,,,,,6,,62,72
10800,note_on,,1,0,12,,,,,,,,,,,,,,,,11,,62,72
10800,note_on,,1,0,11,,,,,,,,,,,,,,,,10,,81,72
10800,note_on,,1,0,5,,,,,,,,,,,,,,,,1,,81,72
10800,note_on,,1,0,9,,,,,,,,,,,,,,,,7,,54,72
10859,note_on,,59,0,11,,,,,,,,,,,,,,,,10,,81,0
10859,note_on,,59,0,5,,,,,,,,,,,,,,,,1,,81,0
10859,note_on,,59,0,7,,,,,,,,,,,,,,,,5,,81,0
10860,note_on,,1,0,7,,,,,,,,,,,,,,,,5,,69,72
10860,note_on,,1,0,5,,,,,,,,,,,,,,,,1,,69,72
10860,note_on,,1,0,11,,,,,,,,,,,,,,,,10,,69,72
10889,note_on,,29,0,7,,,,,,,,,,,,,,,,5,,69,0
10889,note_on,,29,0,11,,,,,,,,,,,,,,,,10,,69,0
10889,note_on,,29,0,5,,,,,,,,,,,,,,,,1,,69,0
10890,note_on,,1,0,7,,,,,,,,,,,,,,,,5,,71,72
10890,note_on,,1,0,5,,,,,,,,,,,,,,,,1,,71,72
10890,note_on,,1,0,11,,,,,,,,,,,,,,,,10,,71,72
10919,note_on,,119,0,15,,,,,,,,,,,,,,,,15,,74,0
10919,note_on,,29,0,5,,,,,,,,,,,,,,,,1,,71,0
10919,note_on,,29,0,11,,,,,,,,,,,,,,,,10,,71,0
10919,note_on,,0,0,15,,,,,,,,,,,,,,,,15,,69,0
10919,note_on,,29,0,7,,,,,,,,,,,,,,,,5,,71,0
10919,note_on,,0,0,15,,,,,,,,,,,,,,,,15,,66,0
10920,note_on,,0,0,15,,,,,,,,,,,,,,,,15,,69,72
10920,note_on,,1,0,5,,,,,,,,,,,,,,,,1,,72,72
10920,note_on,,0,0,15,,,,,,,,,,,,,,,,15,,57,72
10920,note_on,,1,0,7,,,,,,,,,,,,,,,,5,,72,72
10920,note_on,,1,0,11,,,,,,,,,,,,,,,,10,,72,72
10920,note_on,,1,0,15,,,,,,,,,,,,,,,,15,,73,72
10979,note_on,,59,0,7,,,,,,,,,,,,,,,,5,,72,0
10979,note_on,,59,0,5,,,,,,,,,,,,,,,,1,,72,0
10979,note_on,,59,0,11,,,,,,,,,,,,,,,,10,,72,0
10980,note_on,,1,0,7,,,,,,,,,,,,,,,,5,,74,72
10980,note_on,,1,0,11,,,,,,,,,,,,,,,,10,,74,72
10980,note_on,,1,0,5,,,,,,,,,,,,,,,,1,,74,72
11009,note_on,,29,0,5,,,,,,,,,,,,,,,,1,,74,0
11009,note_on,,29,0,7,,,,,,,,,,,,,,,,5,,74,0
11009,note_on,,29,0,11,,,,,,,,,,,,,,,,10,,74,0
11010,note_on,,1,0,11,,,,,,,,,,,,,,,,10,,72,72
11010,note_on,,1,0,7,,,,,,,,,,,,,,,,5,,72,72
11010,note_on,,1,0,5,,,,,,,,,,,,,,,,1,,72,72
11039,note_on,,0,0,15,,,,,,,,,,,,,,,,15,,69,0
11039,note_on,,239,0,12,,,,,,,,,,,,,,,,11,,62,0
11039,note_on,,29,0,7,,,,,,,,,,,,,,,,5,,72,0
11039,note_on,,29,0,11,,,,,,,,,,,,,,,,10,,72,0
11039,note_on,,239,0,8,,,,,,,,,,,,,,,,6,,62,0
11039,note_on,,239,0,9,,,,,,,,,,,,,,,,7,,54,0
11039,note_on,,119,0,15,,,,,,,,,,,,,,,,15,,54,0
11039,note_on,,0,0,15,,,,,,,,,,,,,,,,15,,73,0
11039,note_on,,29,0,5,,,,,,,,,,,,,,,,1,,72,0
11039,note_on,,0,0,15,,,,,,,,,,,,,,,,15,,57,0
11039,note_on,,239,0,14,,,,,,,,,,,,,,,,13,,54,0
11039,note_on,,239,0,13,,,,,,,,,,,,,,,,12,,54,0
11040,note_on,,1,0,13,,,,,,,,,,,,,,,,12,,55,72
11040,note_on,,1,0,12,,,,,,,,,,,,,,,,11,,62,72
11040,note_on,,0,0,15,,,,,,,,,,,,,,,,15,,62,72
11040,note_on,,1,0,15,,,,,,,,,,,,,,,,15,,55,72
11040,note_on,,1,0,11,,,,,,,,,,,,,,,,10,,71,72
11040,note_on,,1,0,7,,,,,,,,,,,,,,,,5,,71,72
11040,note_on,,0,0,15,,,,,,,,,,,,,,,,15,,59,72
11040,note_on,,1,0,9,,,,,,,,,,,,,,,,7,,55,72
11040,note_on,,1,0,8,,,,,,,,,,,,,,,,6,,62,72
11040,note_on,,1,0,14,,,,,,,,,,,,,,,,13,,55,72
11040,note_on,,1,0,5,,,,,,,,,,,,,,,,1,,71,72
11099,note_on,,59,0,12,,,,,,,,,,,,,,,,11,,62,0
11099,note_on,,59,0,13,,,,,,,,,,,,,,,,12,,55,0
11099,note_on,,59,0,14,,,,,,,,,,,,,,,,13,,55,0
11099,note_on,,59,0,15,,,,,,,,,,,,,,,,15,,55,0
11099,note_on,,59,0,9,,,,,,,,,,,,,,,,7,,55,0
11099,note_on,,59,0,8,,,,,,,,,,,,,,,,6,,62,0
11100,note_on,,1,0,13,,,,,,,,,,,,,,,,12,,54,72
11100,note_on,,1,0,15,,,,,,,,,,,,,,,,15,,54,72
11100,note_on,,1,0,14,,,,,,,,,,,,,,,,13,,54,72
11100,note_on,,1,0,9,,,,,,,,,,,,,,,,7,,54,72
11100,note_on,,1,0,8,,,,,,,,,,,,,,,,6,,64,72
11100,note_on,,1,0,12,,,,,,,,,,,,,,,,11,,64,72
11129,note_on,,29,0,12,,,,,,,,,,,,,,,,11,,64,0
11129,note_on,,29,0,8,,,,,,,,,,,,,,,,6,,64,0
11130,note_on,,1,0,8,,,,,,,,,,,,,,,,6,,66,72
11130,note_on,,1,0,12,,,,,,,,,,,,,,,,11,,66,72
11159,note_on,,29,0,8,,,,,,,,,,,,,,,,6,,66,0
11159,note_on,,59,0,9,,,,,,,,,,,,,,,,7,,54,0
11159,note_on,,119,0,11,,,,,,,,,,,,,,,,10,,71,0
11159,note_on,,59,0,15,,,,,,,,,,,,,,,,15,,62,0
11159,note_on,,0,0,15,,,,,,,,,,,,,,,,15,,54,0
11159,note_on,,119,0,5,,,,,,,,,,,,,,,,1,,71,0
11159,note_on,,0,0,15,,,,,,,,,,,,,,,,15,,59,0
11159,note_on,,119,0,7,,,,,,,,,,,,,,,,5,,71,0
11159,note_on,,29,0,12,,,,,,,,,,,,,,,,11,,66,0
11159,note_on,,59,0,13,,,,,,,,,,,,,,,,12,,54,0
11159,note_on,,59,0,14,,,,,,,,,,,,,,,,13,,54,0
11160,note_on,,1,0,15,,,,,,,,,,,,,,,,15,,52,72
11160,note_on,,1,0,5,,,,,,,,,,,,,,,,1,,76,72
11160,note_on,,1,0,9,,,,,,,,,,,,,,,,7,,52,72
11160,note_on,,1,0,12,,,,,,,,,,,,,,,,11,,67,72
11160,note_on,,1,0,11,,,,,,,,,,,,,,,,10,,76,72
11160,note_on,,1,0,13,,,,,,,,,,,,,,,,12,,52,72
11160,note_on,,1,0,14,,,,,,,,,,,,,,,,13,,52,72
11160,note_on,,1,0,8,,,,,,,,,,,,,,,,6,,67,72
11160,note_on,,1,0,7,,,,,,,,,,,,,,,,5,,76,72
11160,note_on,,0,0,15,,,,,,,,,,,,,,,,15,,64,72
11160,note_on,,0,0,15,,,,,,,,,,,,,,,,15,,67,72
11160,note_on,,0,0,15,,,,,,,,,,,,,,,,15,,71,72
11219,note_on,,59,0,8,,,,,,,,,,,,,,,,6,,67,0
11219,note_on,,59,0,12,,,,,,,,,,,,,,,,11,,67,0
11219,note_on,,59,0,15,,,,,,,,,,,,,,,,15,,52,0
11219,note_on,,59,0,9,,,,,,,,,,,,,,,,7,,52,0
11219,note_on,,59,0,7,,,,,,,,,,,,,,,,5,,76,0
11219,note_on,,59,0,13,,,,,,,,,,,,,,,,12,,52,0
11219,note_on,,59,0,5,,,,,,,,,,,,,,,,1,,76,0
11219,note_on,,59,0,14,,,,,,,,,,,,,,,,13,,52,0
11219,note_on,,59,0,11,,,,,,,,,,,,,,,,10,,76,0
11220,note_on,,1,0,11,,,,,,,,,,,,,,,,10,,74,72
11220,note_on,,1,0,13,,,,,,,,,,,,,,,,12,,54,72
11220,note_on,,1,0,9,,,,,,,,,,,,,,,,7,,54,72
11220,note_on,,1,0,7,,,,,,,,,,,,,,,,5,,74,72
11220,note_on,,1,0,14,,,,,,,,,,,,,,,,13,,54,72
11220,note_on,,1,0,8,,,,,,,,,,,,,,,,6,,66,72
11220,note_on,,1,0,15,,,,,,,,,,,,,,,,15,,54,72
11220,note_on,,1,0,5,,,,,,,,,,,,,,,,1,,74,72
11220,note_on,,1,0,12,,,,,,,,,,,,,,,,11,,66,72
11249,note_on,,29,0,9,,,,,,,,,,,,,,,,7,,54,0
11249,note_on,,29,0,13,,,,,,,,,,,,,,,,12,,54,0
11249,note_on,,29,0,15,,,,,,,,,,,,,,,,15,,54,0
11249,note_on,,29,0,14,,,,,,,,,,,,,,,,13,,54,0
11250,note_on,,1,0,9,,,,,,,,,,,,,,,,7,,55,72
11250,note_on,,1,0,14,,,,,,,,,,,,,,,,13,,55,72
11250,note_on,,1,0,15,,,,,,,,,,,,,,,,15,,55,72
11250,note_on,,1,0,13,,,,,,,,,,,,,,,,12,,55,72
11279,note_on,,59,0,11,,,,,,,,,,,,,,,,10,,74,0
11279,note_on,,29,0,14,,,,,,,,,,,,,,,,13,,55,0
11279,note_on,,29,0,15,,,,,,,,,,,,,,,,15,,71,0
11279,note_on,,29,0,9,,,,,,,,,,,,,,,,7,,55,0
11279,note_on,,59,0,5,,,,,,,,,,,,,,,,1,,74,0
11279,note_on,,0,0,15,,,,,,,,,,,,,,,,15,,55,0
11279,note_on,,59,0,8,,,,,,,,,,,,,,,,6,,66,0
11279,note_on,,0,0,15,,,,,,,,,,,,,,,,15,,64,0
11279,note_on,,59,0,12,,,,,,,,,,,,,,,,11,,66,0
11279,note_on,,0,0,15,,,,,,,,,,,,,,,,15,,67,0
11279,note_on,,29,0,13,,,,,,,,,,,,,,,,12,,55,0
11279,note_on,,59,0,7,,,,,,,,,,,,,,,,5,,74,0
11280,note_on,,1,0,11,,,,,,,,,,,,,,,,10,,73,72
11280,note_on,,0,0,15,,,,,,,,,,,,,,,,15,,69,72
11280,note_on,,1,0,15,,,,,,,,,,,,,,,,15,,57,72
11280,note_on,,1,0,12,,,,,,,,,,,,,,,,11,,64,72
11280,note_on,,1,0,9,,,,,,,,,,,,,,,,7,,57,72
11280,note_on,,0,0,15,,,,,,,,,,,,,,,,15,,64,72
11280,note_on,,1,0,5,,,,,,,,,,,,,,,,1,,73,72
11280,note_on,,1,0,13,,,,,,,,,,,,,,,,12,,57,72
11280,note_on,,1,0,14,,,,,,,,,,,,,,,,13,,57,72
11280,note_on,,1,0,8,,,,,,,,,,,,,,,,6,,64,72
11280,note_on,,1,0,7,,,,,,,,,,,,,,,,5,,73,72
11280,note_on,,0,0,15,,,,,,,,,,,,,,,,15,,61,72
11339,note_on,,59,0,13,,,,,,,,,,,,,,,,12,,57,0
11339,note_on,,59,0,9,,,,,,,,,,,,,,,,7,,57,0
11339,note_on,,59,0,12,,,,,,,,,,,,,,,,11,,64,0
11339,note_on,,59,0,14,,,,,,,,,,,,,,,,13,,57,0
11339,note_on,,59,0,8,,,,,,,,,,,,,,,,6,,64,0
11339,note_on,,59,0,15,,,,,,,,,,,,,,,,15,,57,0
11340,note_on,,1,0,8,,,,,,,,,,,,,,,,6,,66,72
11340,note_on,,1,0,15,,,,,,,,,,,,,,,,15,,55,72
11340,note_on,,1,0,14,,,,,,,,,,,,,,,,13,,55,72
11340,note_on,,1,0,13,,,,,,,,,,,,,,,,12,,55,72
11340,note_on,,1,0,9,,,,,,,,,,,,,,,,7,,55,72
11340,note_on,,1,0,12,,,,,,,,,,,,,,,,11,,66,72
11369,note_on,,29,0,8,,,,,,,,,,,,,,,,6,,66,0
11369,note_on,,29,0,12,,,,,,,,,,,,,,,,11,,66,0
11370,note_on,,1,0,8,,,,,,,,,,,,,,,,6,,67,72
11370,note_on,,1,0,12,,,,,,,,,,,,,,,,11,,67,72
11399,note_on,,0,0,15,,,,,,,,,,,,,,,,15,,55,0
11399,note_on,,119,0,5,,,,,,,,,,,,,,,,1,,73,0
11399,note_on,,59,0,13,,,,,,,,,,,,,,,,12,,55,0
11399,note_on,,0,0,15,,,,,,,,,,,,,,,,15,,61,0
11399,note_on,,0,0,15,,,,,,,,,,,,,,,,15,,64,0
11399,note_on,,59,0,15,,,,,,,,,,,,,,,,15,,69,0
11399,note_on,,29,0,8,,,,,,,,,,,,,,,,6,,67,0
11399,note_on,,119,0,11,,,,,,,,,,,,,,,,10,,73,0
11399,note_on,,119,0,7,,,,,,,,,,,,,,,,5,,73,0
11399,note_on,,59,0,14,,,,,,,,,,,,,,,,13,,55,0
11399,note_on,,59,0,9,,,,,,,,,,,,,,,,7,,55,0
11399,note_on,,29,0,12,,,,,,,,,,,,,,,,11,,67,0
11400,note_on,,1,0,14,,,,,,,,,,,,,,,,13,,54,72
11400,note_on,,0,0,15,,,,,,,,,,,,,,,,15,,73,72
11400,note_on,,1,0,5,,,,,,,,,,,,,,,,1,,78,72
11400,note_on,,1,0,12,,,,,,,,,,,,,,,,11,,69,72
11400,note_on,,1,0,11,,,,,,,,,,,,,,,,10,,78,72
11400,note_on,,0,0,15,,,,,,,,,,,,,,,,15,,69,72
11400,note_on,,1,0,7,,,,,,,,,,,,,,,,5,,78,72
11400,note_on,,1,0,8,,,,,,,,,,,,,,,,6,,69,72
11400,note_on,,1,0,13,,,,,,,,,,,,,,,,12,,54,72
11400,note_on,,1,0,15,,,,,,,,,,,,,,,,15,,54,72
11400,note_on,,1,0,9,,,,,,,,,,,,,,,,7,,54,72
11400,note_on,,0,0,15,,,,,,,,,,,,,,,,15,,66,72
11459,note_on,,59,0,9,,,,,,,,,,,,,,,,7,,54,0
11459,note_on,,59,0,8,,,,,,,,,,,,,,,,6,,69,0
11459,note_on,,59,0,11,,,,,,,,,,,,,,,,10,,78,0
11459,note_on,,59,0,13,,,,,,,,,,,,,,,,12,,54,0
11459,note_on,,59,0,5,,,,,,,,,,,,,,,,1,,78,0
11459,note_on,,59,0,12,,,,,,,,,,,,,,,,11,,69,0
11459,note_on,,59,0,15,,,,,,,,,,,,,,,,15,,54,0
11459,note_on,,59,0,7,,,,,,,,,,,,,,,,5,,78,0
11459,note_on,,59,0,14,,,,,,,,,,,,,,,,13,,54,0
11460,note_on,,1,0,15,,,,,,,,,,,,,,,,15,,55,72
11460,note_on,,1,0,8,,,,,,,,,,,,,,,,6,,67,72
11460,note_on,,1,0,9,,,,,,,,,,,,,,,,7,,55,72
11460,note_on,,1,0,14,,,,,,,,,,,,,,,,13,,55,72
11460,note_on,,1,0,7,,,,,,,,,,,,,,,,5,,76,72
11460,note_on,,1,0,12,,,,,,,,,,,,,,,,11,,67,72
11460,note_on,,1,0,5,,,,,,,,,,,,,,,,1,,76,72
11460,note_on,,1,0,11,,,,,,,,,,,,,,,,10,,76,72
11460,note_on,,1,0,13,,,,,,,,,,,,,,,,12,,55,72
11489,note_on,,29,0,13,,,,,,,,,,,,,,,,12,,55,0
11489,note_on,,29,0,9,,,,,,,,,,,,,,,,7,,55,0
11489,note_on,,29,0,14,,,,,,,,,,,,,,,,13,,55,0
11489,note_on,,29,0,15,,,,,,,,,,,,,,,,15,,55,0
11490,note_on,,1,0,15,,,,,,,,,,,,,,,,15,,57,72
11490,note_on,,1,0,9,,,,,,,,,,,,,,,,7,,57,72
11490,note_on,,1,0,14,,,,,,,,,,,,,,,,13,,57,72
11490,note_on,,1,0,13,,,,,,,,,,,,,,,,12,,57,72
11519,note_on,,29,0,14,,,,,,,,,,,,,,,,13,,57,0
11519,note_on,,0,0,15,,,,,,,,,,,,,,,,15,,66,0
11519,note_on,,0,0,15,,,,,,,,,,,,,,,,15,,69,0
11519,note_on,,29,0,15,,,,,,,,,,,,,,,,15,,73,0
11519,note_on,,0,0,15,,,,,,,,,,,,,,,,15,,57,0
11519,note_on,,59,0,5,,,,,,,,,,,,,,,,1,,76,0
11519,note_on,,29,0,13,,,,,,,,,,,,,,,,12,,57,0
11519,note_on,,59,0,12,,,,,,,,,,,,,,,,11,,67,0
11519,note_on,,59,0,7,,,,,,,,,,,,,,,,5,,76,0
11519,note_on,,29,0,9,,,,,,,,,,,,,,,,7,,57,0
11519,note_on,,59,0,8,,,,,,,,,,,,,,,,6,,67,0
11519,note_on,,59,0,11,,,,,,,,,,,,,,,,10,,76,0
11520,note_on,,1,0,5,,,,,,,,,,,,,,,,1,,74,72
11520,note_on,,1,0,15,,,,,,,,,,,,,,,,15,,59,72
11520,note_on,,0,0,15,,,,,,,,,,,,,,,,15,,62,72
11520,note_on,,1,0,7,,,,,,,,,,,,,,,,5,,74,72
11520,note_on,,0,0,15,,,,,,,,,,,,,,,,15,,71,72
11520,note_on,,1,0,11,,,,,,,,,,,,,,,,10,,74,72
11520,note_on,,0,0,15,,,,,,,,,,,,,,,,15,,66,72
11520,note_on,,1,0,8,,,,,,,,,,,,,,,,6,,66,72
11520,note_on,,1,0,9,,,,,,,,,,,,,,,,7,,59,72
11520,note_on,,1,0,12,,,,,,,,,,,,,,,,11,,66,72
11520,note_on,,1,0,14,,,,,,,,,,,,,,,,13,,59,72
11520,note_on,,1,0,13,,,,,,,,,,,,,,,,12,,59,72
11579,note_on,,59,0,7,,,,,,,,,,,,,,,,5,,74,0
11579,note_on,,59,0,5,,,,,,,,,,,,,,,,1,,74,0
11579,note_on,,59,0,11,,,,,,,,,,,,,,,,10,,74,0
11580,note_on,,1,0,5,,,,,,,,,,,,,,,,1,,76,72
11580,note_on,,1,0,7,,,,,,,,,,,,,,,,5,,76,72
11580,note_on,,1,0,11,,,,,,,,,,,,,,,,10,,76,72
11609,note_on,,29,0,11,,,,,,,,,,,,,,,,10,,76,0
11609,note_on,,29,0,7,,,,,,,,,,,,,,,,5,,76,0
11609,note_on,,29,0,5,,,,,,,,,,,,,,,,1,,76,0
11610,note_on,,1,0,5,,,,,,,,,,,,,,,,1,,78,72
11610,note_on,,1,0,11,,,,,,,,,,,,,,,,10,,78,72
11610,note_on,,1,0,7,,,,,,,,,,,,,,,,5,,78,72
11639,note_on,,119,0,8,,,,,,,,,,,,,,,,6,,66,0
11639,note_on,,119,0,12,,,,,,,,,,,,,,,,11,,66,0
11639,note_on,,0,0,15,,,,,,,,,,,,,,,,15,,66,0
11639,note_on,,119,0,15,,,,,,,,,,,,,,,,15,,71,0
11639,note_on,,29,0,11,,,,,,,,,,,,,,,,10,,78,0
11639,note_on,,29,0,5,,,,,,,,,,,,,,,,1,,78,0
11639,note_on,,0,0,15,,,,,,,,,,,,,,,,15,,62,0
11639,note_on,,29,0,7,,,,,,,,,,,,,,,,5,,78,0
11640,note_on,,1,0,12,,,,,,,,,,,,,,,,11,,64,72
11640,note_on,,1,0,15,,,,,,,,,,,,,,,,15,,74,72
11640,note_on,,0,0,15,,,,,,,,,,,,,,,,15,,71,72
11640,note_on,,0,0,15,,,,,,,,,,,,,,,,15,,67,72
11640,note_on,,1,0,7,,,,,,,,,,,,,,,,5,,79,72
11640,note_on,,1,0,11,,,,,,,,,,,,,,,,10,,79,72
11640,note_on,,1,0,5,,,,,,,,,,,,,,,,1,,79,72
11640,note_on,,1,0,8,,,,,,,,,,,,,,,,6,,64,72
11699,note_on,,179,0,9,,,,,,,,,,,,,,,,7,,59,0
11699,note_on,,59,0,8,,,,,,,,,,,,,,,,6,,64,0
11699,note_on,,179,0,13,,,,,,,,,,,,,,,,12,,59,0
11699,note_on,,59,0,15,,,,,,,,,,,,,,,,15,,59,0
11699,note_on,,59,0,12,,,,,,,,,,,,,,,,11,,64,0
11699,note_on,,179,0,14,,,,,,,,,,,,,,,,13,,59,0
11700,note_on,,1,0,13,,,,,,,,,,,,,,,,12,,57,72
11700,note_on,,1,0,14,,,,,,,,,,,,,,,,13,,57,72
11700,note_on,,1,0,8,,,,,,,,,,,,,,,,6,,62,72
11700,note_on,,1,0,12,,,,,,,,,,,,,,,,11,,62,72
11700,note_on,,1,0,15,,,,,,,,,,,,,,,,15,,57,72
11700,note_on,,1,0,9,,,,,,,,,,,,,,,,7,,57,72
11729,note_on,,29,0,15,,,,,,,,,,,,,,,,15,,57,0
11729,note_on,,29,0,13,,,,,,,,,,,,,,,,12,,57,0
11729,note_on,,29,0,9,,,,,,,,,,,,,,,,7,,57,0
11729,note_on,,29,0,14,,,,,,,,,,,,,,,,13,,57,0
11730,note_on,,1,0,15,,,,,,,,,,,,,,,,15,,59,72
11730,note_on,,1,0,13,,,,,,,,,,,,,,,,12,,59,72
11730,note_on,,1,0,14,,,,,,,,,,,,,,,,13,,59,72
11730,note_on,,1,0,9,,,,,,,,,,,,,,,,7,,59,72
11759,note_on,,29,0,13,,,,,,,,,,,,,,,,12,,59,0
11759,note_on,,29,0,9,,,,,,,,,,,,,,,,7,,59,0
11759,note_on,,59,0,12,,,,,,,,,,,,,,,,11,,62,0
11759,note_on,,29,0,14,,,,,,,,,,,,,,,,13,,59,0
11759,note_on,,59,0,8,,,,,,,,,,,,,,,,6,,62,0
11759,note_on,,29,0,15,,,,,,,,,,,,,,,,15,,74,0
11759,note_on,,0,0,15,,,,,,,,,,,,,,,,15,,71,0
11759,note_on,,0,0,15,,,,,,,,,,,,,,,,15,,67,0
11759,note_on,,0,0,15,,,,,,,,,,,,,,,,15,,59,0
11760,note_on,,1,0,12,,,,,,,,,,,,,,,,11,,69,72
11760,note_on,,1,0,14,,,,,,,,,,,,,,,,13,,61,72
11760,note_on,,1,0,8,,,,,,,,,,,,,,,,6,,69,72
11760,note_on,,1,0,13,,,,,,,,,,,,,,,,12,,61,72
11760,note_on,,1,0,9,,,,,,,,,,,,,,,,7,,61,72
11760,note_on,,0,0,15,,,,,,,,,,,,,,,,15,,69,72
11760,note_on,,0,0,15,,,,,,,,,,,,,,,,15,,67,72
11760,note_on,,1,0,15,,,,,,,,,,,,,,,,15,,61,72
11760,note_on,,0,0,15,,,,,,,,,,,,,,,,15,,64,72
11819,note_on,,179,0,5,,,,,,,,,,,,,,,,1,,79,0
11819,note_on,,179,0,7,,,,,,,,,,,,,,,,5,,79,0
11819,note_on,,179,0,11,,,,,,,,,,,,,,,,10,,79,0
11820,note_on,,1,0,11,,,,,,,,,,,,,,,,10,,78,72
11820,note_on,,1,0,5,,,,,,,,,,,,,,,,1,,78,72
11820,note_on,,1,0,7,,,,,,,,,,,,,,,,5,,78,72
11849,note_on,,29,0,7,,,,,,,,,,,,,,,,5,,78,0
11849,note_on,,29,0,11,,,,,,,,,,,,,,,,10,,78,0
11849,note_on,,29,0,5,,,,,,,,,,,,,,,,1,,78,0
11850,note_on,,1,0,7,,,,,,,,,,,,,,,,5,,76,72
11850,note_on,,1,0,11,,,,,,,,,,,,,,,,10,,76,72
11850,note_on,,1,0,5,,,,,,,,,,,,,,,,1,,76,72
11879,note_on,,119,0,13,,,,,,,,,,,,,,,,12,,61,0
11879,note_on,,29,0,11,,,,,,,,,,,,,,,,10,,76,0
11879,note_on,,29,0,5,,,,,,,,,,,,,,,,1,,76,0
11879,note_on,,0,0,15,,,,,,,,,,,,,,,,15,,64,0
11879,note_on,,29,0,7,,,,,,,,,,,,,,,,5,,76,0
11879,note_on,,0,0,15,,,,,,,,,,,,,,,,15,,67,0
11879,note_on,,119,0,15,,,,,,,,,,,,,,,,15,,61,0
11879,note_on,,119,0,9,,,,,,,,,,,,,,,,7,,61,0
11879,note_on,,119,0,14,,,,,,,,,,,,,,,,13,,61,0
11880,note_on,,1,0,14,,,,,,,,,,,,,,,,13,,62,72
11880,note_on,,1,0,7,,,,,,,,,,,,,,,,5,,78,72
11880,note_on,,1,0,9,,,,,,,,,,,,,,,,7,,62,72
11880,note_on,,1,0,5,,,,,,,,,,,,,,,,1,,78,72
11880,note_on,,1,0,13,,,,,,,,,,,,,,,,12,,62,72
11880,note_on,,1,0,15,,,,,,,,,,,,,,,,15,,62,72
11880,note_on,,0,0,15,,,,,,,,,,,,,,,,15,,66,72
11880,note_on,,1,0,11,,,,,,,,,,,,,,,,10,,78,72
11939,note_on,,59,0,11,,,,,,,,,,,,,,,,10,,78,0
11939,note_on,,59,0,5,,,,,,,,,,,,,,,,1,,78,0
11939,note_on,,59,0,7,,,,,,,,,,,,,,,,5,,78,0
11940,note_on,,1,0,11,,,,,,,,,,,,,,,,10,,76,72
11940,note_on,,1,0,5,,,,,,,,,,,,,,,,1,,76,72
11940,note_on,,1,0,7,,,,,,,,,,,,,,,,5,,76,72
11969,note_on,,29,0,7,,,,,,,,,,,,,,,,5,,76,0
11969,note_on,,29,0,11,,,,,,,,,,,,,,,,10,,76,0
11969,note_on,,29,0,5,,,,,,,,,,,,,,,,1,,76,0
11970,note_on,,1,0,5,,,,,,,,,,,,,,,,1,,74,72
11970,note_on,,1,0,11,,,,,,,,,,,,,,,,10,,74,72
11970,note_on,,1,0,7,,,,,,,,,,,,,,,,5,,74,72
11999,note_on,,29,0,11,,,,,,,,,,,,,,,,10,,74,0
11999,note_on,,0,0,15,,,,,,,,,,,,,,,,15,,66,0
11999,note_on,,119,0,15,,,,,,,,,,,,,,,,15,,69,0
11999,note_on,,29,0,7,,,,,,,,,,,,,,,,5,,74,0
11999,note_on,,119,0,14,,,,,,,,,,,,,,,,13,,62,0
11999,note_on,,119,0,9,,,,,,,,,,,,,,,,7,,62,0
11999,note_on,,0,0,15,,,,,,,,,,,,,,,,15,,62,0
11999,note_on,,29,0,5,,,,,,,,,,,,,,,,1,,74,0
11999,note_on,,119,0,13,,,,,,,,,,,,,,,,12,,62,0
12000,note_on,,0,0,15,,,,,,,,,,,,,,,,15,,69,72
12000,note_on,,1,0,5,,,,,,,,,,,,,,,,1,,73,72
12000,note_on,,1,0,7,,,,,,,,,,,,,,,,5,,73,72
12000,note_on,,1,0,14,,,,,,,,,,,,,,,,13,,57,72
12000,note_on,,1,0,15,,,,,,,,,,,,,,,,15,,57,72
12000,note_on,,0,0,15,,,,,,,,,,,,,,,,15,,64,72
12000,note_on,,1,0,13,,,,,,,,,,,,,,,,12,,57,72
12000,note_on,,1,0,11,,,,,,,,,,,,,,,,10,,73,72
12000,note_on,,1,0,9,,,,,,,,,,,,,,,,7,,57,72
12000,note_on,,0,0,15,,,,,,,,,,,,,,,,15,,61,72
12059,note_on,,59,0,5,,,,,,,,,,,,,,,,1,,73,0
12059,note_on,,59,0,11,,,,,,,,,,,,,,,,10,,73,0
12059,note_on,,59,0,7,,,,,,,,,,,,,,,,5,,73,0
12060,note_on,,1,0,11,,,,,,,,,,,,,,,,10,,74,72
12060,note_on,,1,0,5,,,,,,,,,,,,,,,,1,,74,72
12060,note_on,,1,0,7,,,,,,,,,,,,,,,,5,,74,72
12119,note_on,,59,0,7,,,,,,,,,,,,,,,,5,,74,0
12119,note_on,,59,0,11,,,,,,,,,,,,,,,,10,,74,0
12119,note_on,,59,0,5,,,,,,,,,,,,,,,,1,,74,0
12120,note_on,,1,0,7,,,,,,,,,,,,,,,,5,,76,72
12120,note_on,,1,0,11,,,,,,,,,,,,,,,,10,,76,72
12120,note_on,,1,0,5,,,,,,,,,,,,,,,,1,,76,72
12179,note_on,,179,0,15,,,,,,,,,,,,,,,,15,,64,0
12179,note_on,,179,0,9,,,,,,,,,,,,,,,,7,,57,0
12179,note_on,,179,0,13,,,,,,,,,,,,,,,,12,,57,0
12179,note_on,,419,0,12,,,,,,,,,,,,,,,,11,,69,0
12179,note_on,,419,0,8,,,,,,,,,,,,,,,,6,,69,0
12180,note_on,,1,0,15,,,,,,,,,,,,,,,,15,,67,72
12180,note_on,,1,0,13,,,,,,,,,,,,,,,,12,,57,72
12180,note_on,,1,0,12,,,,,,,,,,,,,,,,11,,67,72
12180,note_on,,1,0,9,,,,,,,,,,,,,,,,7,,57,72
12180,note_on,,1,0,8,,,,,,,,,,,,,,,,6,,67,72
12239,note_on,,59,0,8,,,,,,,,,,,,,,,,6,,67,0
12239,note_on,,119,0,5,,,,,,,,,,,,,,,,1,,76,0
12239,note_on,,119,0,11,,,,,,,,,,,,,,,,10,,76,0
12239,note_on,,59,0,13,,,,,,,,,,,,,,,,12,,57,0
12239,note_on,,59,0,15,,,,,,,,,,,,,,,,15,,61,0
12239,note_on,,59,0,12,,,,,,,,,,,,,,,,11,,67,0
12239,note_on,,0,0,15,,,,,,,,,,,,,,,,15,,67,0
12239,note_on,,59,0,9,,,,,,,,,,,,,,,,7,,57,0
12239,note_on,,119,0,7,,,,,,,,,,,,,,,,5,,76,0
12240,note_on,,1,0,7,,,,,,,,,,,,,,,,5,,69,72
12240,note_on,,1,0,11,,,,,,,,,,,,,,,,10,,69,72
12240,note_on,,1,0,15,,,,,,,,,,,,,,,,15,,66,72
12240,note_on,,1,0,9,,,,,,,,,,,,,,,,7,,57,72
12240,note_on,,1,0,12,,,,,,,,,,,,,,,,11,,66,72
12240,note_on,,1,0,5,,,,,,,,,,,,,,,,1,,69,72
12240,note_on,,0,0,15,,,,,,,,,,,,,,,,15,,62,72
12240,note_on,,1,0,13,,,,,,,,,,,,,,,,12,,57,72
12240,note_on,,1,0,8,,,,,,,,,,,,,,,,6,,66,72
12299,note_on,,59,0,11,,,,,,,,,,,,,,,,10,,69,0
12299,note_on,,59,0,5,,,,,,,,,,,,,,,,1,,69,0
12299,note_on,,59,0,8,,,,,,,,,,,,,,,,6,,66,0
12299,note_on,,59,0,12,,,,,,,,,,,,,,,,11,,66,0
12299,note_on,,59,0,7,,,,,,,,,,,,,,,,5,,69,0
12300,note_on,,1,0,11,,,,,,,,,,,,,,,,10,,71,72
12300,note_on,,1,0,12,,,,,,,,,,,,,,,,11,,67,72
12300,note_on,,1,0,5,,,,,,,,,,,,,,,,1,,71,72
12300,note_on,,1,0,7,,,,,,,,,,,,,,,,5,,71,72
12300,note_on,,1,0,8,,,,,,,,,,,,,,,,6,,67,72
12329,note_on,,29,0,11,,,,,,,,,,,,,,,,10,,71,0
12329,note_on,,29,0,8,,,,,,,,,,,,,,,,6,,67,0
12329,note_on,,29,0,5,,,,,,,,,,,,,,,,1,,71,0
12329,note_on,,29,0,7,,,,,,,,,,,,,,,,5,,71,0
12329,note_on,,29,0,12,,,,,,,,,,,,,,,,11,,67,0
12330,note_on,,1,0,12,,,,,,,,,,,,,,,,11,,66,72
12330,note_on,,1,0,8,,,,,,,,,,,,,,,,6,,66,72
12330,note_on,,1,0,5,,,,,,,,,,,,,,,,1,,69,72
12330,note_on,,1,0,7,,,,,,,,,,,,,,,,5,,69,72
12330,note_on,,1,0,11,,,,,,,,,,,,,,,,10,,69,72
12359,note_on,,29,0,5,,,,,,,,,,,,,,,,1,,69,0
12359,note_on,,119,0,15,,,,,,,,,,,,,,,,15,,66,0
12359,note_on,,0,0,15,,,,,,,,,,,,,,,,15,,62,0
12359,note_on,,29,0,7,,,,,,,,,,,,,,,,5,,69,0
12359,note_on,,29,0,12,,,,,,,,,,,,,,,,11,,66,0
12359,note_on,,29,0,11,,,,,,,,,,,,,,,,10,,69,0
12359,note_on,,29,0,8,,,,,,,,,,,,,,,,6,,66,0
12360,note_on,,1,0,12,,,,,,,,,,,,,,,,11,,64,72
12360,note_on,,1,0,11,,,,,,,,,,,,,,,,10,,67,72
12360,note_on,,1,0,8,,,,,,,,,,,,,,,,6,,64,72
12360,note_on,,0,0,15,,,,,,,,,,,,,,,,15,,64,72
12360,note_on,,1,0,15,,,,,,,,,,,,,,,,15,,67,72
12360,note_on,,1,0,5,,,,,,,,,,,,,,,,1,,67,72
12360,note_on,,1,0,7,,,,,,,,,,,,,,,,5,,67,72
12419,note_on,,59,0,8,,,,,,,,,,,,,,,,6,,64,0
12419,note_on,,59,0,11,,,,,,,,,,,,,,,,10,,67,0
12419,note_on,,59,0,7,,,,,,,,,,,,,,,,5,,67,0
12419,note_on,,59,0,12,,,,,,,,,,,,,,,,11,,64,0
12419,note_on,,0,0,15,,,,,,,,,,,,,,,,15,,64,0
12419,note_on,,59,0,15,,,,,,,,,,,,,,,,15,,67,0
12419,note_on,,59,0,5,,,,,,,,,,,,,,,,1,,67,0
12420,note_on,,1,0,11,,,,,,,,,,,,,,,,10,,66,72
12420,note_on,,0,0,15,,,,,,,,,,,,,,,,15,,62,72
12420,note_on,,1,0,7,,,,,,,,,,,,,,,,5,,66,72
12420,note_on,,1,0,8,,,,,,,,,,,,,,,,6,,62,72
12420,note_on,,1,0,5,,,,,,,,,,,,,,,,1,,66,72
12420,note_on,,1,0,12,,,,,,,,,,,,,,,,11,,62,72
12420,note_on,,1,0,15,,,,,,,,,,,,,,,,15,,66,72
12479,note_on,,59,0,5,,,,,,,,,,,,,,,,1,,66,0
12479,note_on,,59,0,11,,,,,,,,,,,,,,,,10,,66,0
12479,note_on,,239,0,13,,,,,,,,,,,,,,,,12,,57,0
12479,note_on,,239,0,9,,,,,,,,,,,,,,,,7,,57,0
12479,note_on,,59,0,8,,,,,,,,,,,,,,,,6,,62,0
12479,note_on,,59,0,7,,,,,,,,,,,,,,,,5,,66,0
12479,note_on,,0,0,15,,,,,,,,,,,,,,,,15,,69,0
12479,note_on,,0,0,15,,,,,,,,,,,,,,,,15,,66,0
12479,note_on,,0,0,15,,,,,,,,,,,,,,,,15,,62,0
12479,note_on,,479,0,14,,,,,,,,,,,,,,,,13,,57,0
12479,note_on,,59,0,12,,,,,,,,,,,,,,,,11,,62,0
12479,note_on,,59,0,15,,,,,,,,,,,,,,,,15,,57,0
12480,note_on,,1,0,14,,,,,,,,,,,,,,,,13,,57,72
12480,note_on,,1,0,12,,,,,,,,,,,,,,,,11,,61,72
12480,note_on,,1,0,8,,,,,,,,,,,,,,,,6,,61,72
12480,note_on,,1,0,7,,,,,,,,,,,,,,,,5,,64,72
12480,note_on,,1,0,11,,,,,,,,,,,,,,,,10,,64,72
12480,note_on,,0,0,15,,,,,,,,,,,,,,,,15,,61,72
12480,note_on,,0,0,15,,,,,,,,,,,,,,,,15,,64,72
12480,note_on,,0,0,15,,,,,,,,,,,,,,,,15,,69,72
12480,note_on,,1,0,15,,,,,,,,,,,,,,,,15,,57,72
12480,note_on,,1,0,5,,,,,,,,,,,,,,,,1,,64,72
12540,note_on,,61,0,9,,,,,,,,,,,,,,,,7,,64,72
12540,note_on,,61,0,13,,,,,,,,,,,,,,,,12,,64,72
12569,note_on,,89,0,5,,,,,,,,,,,,,,,,1,,64,0
12569,note_on,,89,0,7,,,,,,,,,,,,,,,,5,,64,0
12569,note_on,,89,0,11,,,,,,,,,,,,,,,,10,,64,0
12569,note_on,,89,0,8,,,,,,,,,,,,,,,,6,,61,0
12569,note_on,,89,0,12,,,,,,,,,,,,,,,,11,,61,0
12570,note_on,,1,0,12,,,,,,,,,,,,,,,,11,,61,72
12570,note_on,,1,0,11,,,,,,,,,,,,,,,,10,,64,72
12570,note_on,,1,0,8,,,,,,,,,,,,,,,,6,,61,72
12570,note_on,,1,0,7,,,,,,,,,,,,,,,,5,,64,72
12570,note_on,,1,0,5,,,,,,,,,,,,,,,,1,,64,72
12599,note_on,,29,0,12,,,,,,,,,,,,,,,,11,,61,0
12599,note_on,,59,0,9,,,,,,,,,,,,,,,,7,,64,0
12599,note_on,,29,0,5,,,,,,,,,,,,,,,,1,,64,0
12599,note_on,,29,0,11,,,,,,,,,,,,,,,,10,,64,0
12599,note_on,,29,0,7,,,,,,,,,,,,,,,,5,,64,0
12599,note_on,,29,0,8,,,,,,,,,,,,,,,,6,,61,0
12599,note_on,,59,0,13,,,,,,,,,,,,,,,,12,,64,0
12600,note_on,,1,0,12,,,,,,,,,,,,,,,,11,,61,72
12600,note_on,,1,0,7,,,,,,,,,,,,,,,,5,,64,72
12600,note_on,,1,0,9,,,,,,,,,,,,,,,,7,,69,72
12600,note_on,,1,0,8,,,,,,,,,,,,,,,,6,,61,72
12600,note_on,,1,0,5,,,,,,,,,,,,,,,,1,,64,72
12600,note_on,,1,0,11,,,,,,,,,,,,,,,,10,,64,72
12600,note_on,,1,0,13,,,,,,,,,,,,,,,,12,,69,72
12659,note_on,,59,0,13,,,,,,,,,,,,,,,,12,,69,0
12659,note_on,,59,0,9,,,,,,,,,,,,,,,,7,,69,0
12660,note_on,,1,0,13,,,,,,,,,,,,,,,,12,,64,72
12660,note_on,,1,0,9,,,,,,,,,,,,,,,,7,,64,72
12719,note_on,,119,0,8,,,,,,,,,,,,,,,,6,,61,0
12719,note_on,,239,0,14,,,,,,,,,,,,,,,,13,,57,0
12719,note_on,,119,0,5,,,,,,,,,,,,,,,,1,,64,0
12719,note_on,,59,0,13,,,,,,,,,,,,,,,,12,,64,0
12719,note_on,,119,0,12,,,,,,,,,,,,,,,,11,,61,0
12719,note_on,,0,0,15,,,,,,,,,,,,,,,,15,,61,0
12719,note_on,,59,0,9,,,,,,,,,,,,,,,,7,,64,0
12719,note_on,,0,0,15,,,,,,,,,,,,,,,,15,,64,0
12719,note_on,,119,0,11,,,,,,,,,,,,,,,,10,,64,0
12719,note_on,,239,0,15,,,,,,,,,,,,,,,,15,,57,0
12719,note_on,,119,0,7,,,,,,,,,,,,,,,,5,,64,0
12720,note_on,,1,0,9,,,,,,,,,,,,,,,,7,,66,72
12720,note_on,,1,0,13,,,,,,,,,,,,,,,,12,,66,72
12720,note_on,,1,0,14,,,,,,,,,,,,,,,,13,,66,72
12720,note_on,,1,0,15,,,,,,,,,,,,,,,,15,,66,72
12779,note_on,,59,0,15,,,,,,,,,,,,,,,,15,,69,0
12779,note_on,,0,0,15,,,,,,,,,,,,,,,,15,,66,0
12779,note_on,,59,0,14,,,,,,,,,,,,,,,,13,,66,0
12780,note_on,,61,0,12,,,,,,,,,,,,,,,,11,,69,72
12780,note_on,,0,0,15,,,,,,,,,,,,,,,,15,,64,72
12780,note_on,,0,0,15,,,,,,,,,,,,,,,,15,,69,72
12780,note_on,,0,0,15,,,,,,,,,,,,,,,,15,,73,72
12780,note_on,,61,0,8,,,,,,,,,,,,,,,,6,,69,72
12780,note_on,,0,0,15,,,,,,,,,,,,,,,,15,,76,72
12780,note_on,,2581,0,6,,,,,,,,,,,,,,,,2,,57,72
12780,note_on,,2581,0,10,,,,,,,,,,,,,,,,8,,57,72
12780,note_on,,1,0,15,,,,,,,,,,,,,,,,15,,57,72
12780,note_on,,1,0,14,,,,,,,,,,,,,,,,13,,57,72
12839,note_on,,0,0,15,,,,,,,,,,,,,,,,15,,69,0
12839,note_on,,0,0,15,,,,,,,,,,,,,,,,15,,73,0
12839,note_on,,0,0,15,,,,,,,,,,,,,,,,15,,76,0
12839,note_on,,59,0,15,,,,,,,,,,,,,,,,15,,57,0
12839,note_on,,59,0,10,,,,,,,,,,,,,,,,8,,57,0
12839,note_on,,59,0,6,,,,,,,,,,,,,,,,2,,57,0
12839,note_on,,59,0,12,,,,,,,,,,,,,,,,11,,69,0
12839,note_on,,0,0,15,,,,,,,,,,,,,,,,15,,64,0
12839,note_on,,59,0,8,,,,,,,,,,,,,,,,6,,69,0
12839,note_on,,59,0,14,,,,,,,,,,,,,,,,13,,57,0
12840,note_on,,1,0,15,,,,,,,,,,,,,,,,15,,62,72
12840,note_on,,0,0,15,,,,,,,,,,,,,,,,15,,69,72
12840,note_on,,1,0,8,,,,,,,,,,,,,,,,6,,69,72
12840,note_on,,121,0,5,,,,,,,,,,,,,,,,1,,69,72
12840,note_on,,121,0,11,,,,,,,,,,,,,,,,10,,69,72
12840,note_on,,1,0,12,,,,,,,,,,,,,,,,11,,69,72
12840,note_on,,1,0,10,,,,,,,,,,,,,,,,8,,62,72
12840,note_on,,1,0,14,,,,,,,,,,,,,,,,13,,62,72
12840,note_on,,1,0,6,,,,,,,,,,,,,,,,2,,62,72
12840,note_on,,121,0,7,,,,,,,,,,,,,,,,5,,69,72
12840,note_on,,0,0,15,,,,,,,,,,,,,,,,15,,74,72
12840,note_on,,0,0,15,,,,,,,,,,,,,,,,15,,78,72
12899,note_on,,59,0,12,,,,,,,,,,,,,,,,11,,69,0
12899,note_on,,59,0,8,,,,,,,,,,,,,,,,6,,69,0
12899,note_on,,59,0,14,,,,,,,,,,,,,,,,13,,62,0
12899,note_on,,0,0,15,,,,,,,,,,,,,,,,15,,78,0
12899,note_on,,179,0,13,,,,,,,,,,,,,,,,12,,66,0
12899,note_on,,59,0,6,,,,,,,,,,,,,,,,2,,62,0
12899,note_on,,59,0,10,,,,,,,,,,,,,,,,8,,62,0
12899,note_on,,59,0,15,,,,,,,,,,,,,,,,15,,62,0
12899,note_on,,0,0,15,,,,,,,,,,,,,,,,15,,69,0
12899,note_on,,0,0,15,,,,,,,,,,,,,,,,15,,74,0
12899,note_on,,179,0,9,,,,,,,,,,,,,,,,7,,66,0
12900,note_on,,1,0,10,,,,,,,,,,,,,,,,8,,57,72
12900,note_on,,1,0,9,,,,,,,,,,,,,,,,7,,64,72
12900,note_on,,1,0,8,,,,,,,,,,,,,,,,6,,67,72
12900,note_on,,1,0,15,,,,,,,,,,,,,,,,15,,76,72
12900,note_on,,0,0,15,,,,,,,,,,,,,,,,15,,57,72
12900,note_on,,0,0,15,,,,,,,,,,,,,,,,15,,61,72
12900,note_on,,1,0,13,,,,,,,,,,,,,,,,12,,64,72
12900,note_on,,1,0,12,,,,,,,,,,,,,,,,11,,67,72
12900,note_on,,0,0,15,,,,,,,,,,,,,,,,15,,81,72
12900,note_on,,0,0,15,,,,,,,,,,,,,,,,15,,69,72
12900,note_on,,1,0,14,,,,,,,,,,,,,,,,13,,57,72
12900,note_on,,1,0,6,,,,,,,,,,,,,,,,2,,57,72
12959,note_on,,59,0,12,,,,,,,,,,,,,,,,11,,67,0
12959,note_on,,119,0,7,,,,,,,,,,,,,,,,5,,69,0
12959,note_on,,59,0,6,,,,,,,,,,,,,,,,2,,57,0
12959,note_on,,59,0,9,,,,,,,,,,,,,,,,7,,64,0
12959,note_on,,0,0,15,,,,,,,,,,,,,,,,15,,69,0
12959,note_on,,59,0,8,,,,,,,,,,,,,,,,6,,67,0
12959,note_on,,59,0,10,,,,,,,,,,,,,,,,8,,57,0
12959,note_on,,0,0,15,,,,,,,,,,,,,,,,15,,81,0
12959,note_on,,0,0,15,,,,,,,,,,,,,,,,15,,61,0
12959,note_on,,0,0,15,,,,,,,,,,,,,,,,15,,57,0
12959,note_on,,59,0,14,,,,,,,,,,,,,,,,13,,57,0
12959,note_on,,59,0,15,,,,,,,,,,,,,,,,15,,76,0
12959,note_on,,119,0,5,,,,,,,,,,,,,,,,1,,69,0
12959,note_on,,59,0,13,,,,,,,,,,,,,,,,12,,64,0
12959,note_on,,119,0,11,,,,,,,,,,,,,,,,10,,69,0
12960,note_on,,1,0,9,,,,,,,,,,,,,,,,7,,62,72
12960,note_on,,1,0,15,,,,,,,,,,,,,,,,15,,59,72
12960,note_on,,0,0,15,,,,,,,,,,,,,,,,15,,74,72
12960,note_on,,0,0,15,,,,,,,,,,,,,,,,15,,71,72
12960,note_on,,0,0,15,,,,,,,,,,,,,,,,15,,66,72
12960,note_on,,1,0,6,,,,,,,,,,,,,,,,2,,59,72
12960,note_on,,0,0,15,,,,,,,,,,,,,,,,15,,62,72
12960,note_on,,1,0,11,,,,,,,,,,,,,,,,10,,74,72
12960,note_on,,1,0,8,,,,,,,,,,,,,,,,6,,66,72
12960,note_on,,1,0,14,,,,,,,,,,,,,,,,13,,59,72
12960,note_on,,1,0,5,,,,,,,,,,,,,,,,1,,74,72
12960,note_on,,1,0,13,,,,,,,,,,,,,,,,12,,62,72
12960,note_on,,1,0,7,,,,,,,,,,,,,,,,5,,74,72
12960,note_on,,1,0,12,,,,,,,,,,,,,,,,11,,66,72
12960,note_on,,1,0,10,,,,,,,,,,,,,,,,8,,59,72
13019,note_on,,59,0,14,,,,,,,,,,,,,,,,13,,59,0
13019,note_on,,59,0,6,,,,,,,,,,,,,,,,2,,59,0
13019,note_on,,59,0,15,,,,,,,,,,,,,,,,15,,59,0
13019,note_on,,59,0,10,,,,,,,,,,,,,,,,8,,59,0
13020,note_on,,1,0,6,,,,,,,,,,,,,,,,2,,57,72
13020,note_on,,1,0,14,,,,,,,,,,,,,,,,13,,57,72
13020,note_on,,1,0,15,,,,,,,,,,,,,,,,15,,57,72
13020,note_on,,1,0,10,,,,,,,,,,,,,,,,8,,57,72
13049,note_on,,29,0,14,,,,,,,,,,,,,,,,13,,57,0
13049,note_on,,29,0,6,,,,,,,,,,,,,,,,2,,57,0
13049,note_on,,29,0,15,,,,,,,,,,,,,,,,15,,57,0
13049,note_on,,29,0,10,,,,,,,,,,,,,,,,8,,57,0
13050,note_on,,1,0,15,,,,,,,,,,,,,,,,15,,55,72
13050,note_on,,1,0,14,,,,,,,,,,,,,,,,13,,55,72
13050,note_on,,1,0,6,,,,,,,,,,,,,,,,2,,55,72
13050,note_on,,1,0,10,,,,,,,,,,,,,,,,8,,55,72
13079,note_on,,29,0,14,,,,,,,,,,,,,,,,13,,55,0
13079,note_on,,29,0,15,,,,,,,,,,,,,,,,15,,71,0
13079,note_on,,119,0,11,,,,,,,,,,,,,,,,10,,74,0
13079,note_on,,0,0,15,,,,,,,,,,,,,,,,15,,55,0
13079,note_on,,119,0,5,,,,,,,,,,,,,,,,1,,74,0
13079,note_on,,29,0,10,,,,,,,,,,,,,,,,8,,55,0
13079,note_on,,0,0,15,,,,,,,,,,,,,,,,15,,62,0
13079,note_on,,0,0,15,,,,,,,,,,,,,,,,15,,66,0
13079,note_on,,119,0,7,,,,,,,,,,,,,,,,5,,74,0
13079,note_on,,29,0,6,,,,,,,,,,,,,,,,2,,55,0
13080,note_on,,1,0,10,,,,,,,,,,,,,,,,8,,54,72
13080,note_on,,1,0,5,,,,,,,,,,,,,,,,1,,69,72
13080,note_on,,1,0,7,,,,,,,,,,,,,,,,5,,69,72
13080,note_on,,1,0,11,,,,,,,,,,,,,,,,10,,69,72
13080,note_on,,1,0,15,,,,,,,,,,,,,,,,15,,54,72
13080,note_on,,0,0,15,,,,,,,,,,,,,,,,15,,57,72
13080,note_on,,0,0,15,,,,,,,,,,,,,,,,15,,69,72
13080,note_on,,0,0,15,,,,,,,,,,,,,,,,15,,62,72
13080,note_on,,1,0,6,,,,,,,,,,,,,,,,2,,54,72
13080,note_on,,1,0,14,,,,,,,,,,,,,,,,13,,54,72
13139,note_on,,59,0,15,,,,,,,,,,,,,,,,15,,54,0
13139,note_on,,179,0,12,,,,,,,,,,,,,,,,11,,66,0
13139,note_on,,59,0,14,,,,,,,,,,,,,,,,13,,54,0
13139,note_on,,179,0,9,,,,,,,,,,,,,,,,7,,62,0
13139,note_on,,59,0,10,,,,,,,,,,,,,,,,8,,54,0
13139,note_on,,179,0,13,,,,,,,,,,,,,,,,12,,62,0
13139,note_on,,59,0,6,,,,,,,,,,,,,,,,2,,54,0
13139,note_on,,179,0,8,,,,,,,,,,,,,,,,6,,66,0
13140,note_on,,1,0,14,,,,,,,,,,,,,,,,13,,52,72
13140,note_on,,1,0,15,,,,,,,,,,,,,,,,15,,52,72
13140,note_on,,1,0,9,,,,,,,,,,,,,,,,7,,61,72
13140,note_on,,1,0,10,,,,,,,,,,,,,,,,8,,52,72
13140,note_on,,1,0,6,,,,,,,,,,,,,,,,2,,52,72
13140,note_on,,1,0,8,,,,,,,,,,,,,,,,6,,67,72
13140,note_on,,1,0,12,,,,,,,,,,,,,,,,11,,67,72
13140,note_on,,1,0,13,,,,,,,,,,,,,,,,12,,61,72
13169,note_on,,29,0,8,,,,,,,,,,,,,,,,6,,67,0
13169,note_on,,29,0,15,,,,,,,,,,,,,,,,15,,52,0
13169,note_on,,29,0,12,,,,,,,,,,,,,,,,11,,67,0
13169,note_on,,29,0,10,,,,,,,,,,,,,,,,8,,52,0
13169,note_on,,29,0,14,,,,,,,,,,,,,,,,13,,52,0
13169,note_on,,29,0,6,,,,,,,,,,,,,,,,2,,52,0
13170,note_on,,1,0,6,,,,,,,,,,,,,,,,2,,54,72
13170,note_on,,1,0,8,,,,,,,,,,,,,,,,6,,69,72
13170,note_on,,1,0,14,,,,,,,,,,,,,,,,13,,54,72
13170,note_on,,1,0,10,,,,,,,,,,,,,,,,8,,54,72
13170,note_on,,1,0,15,,,,,,,,,,,,,,,,15,,54,72
13170,note_on,,1,0,12,,,,,,,,,,,,,,,,11,,69,72
13199,note_on,,119,0,7,,,,,,,,,,,,,,,,5,,69,0
13199,note_on,,119,0,11,,,,,,,,,,,,,,,,10,,69,0
13199,note_on,,59,0,9,,,,,,,,,,,,,,,,7,,61,0
13199,note_on,,29,0,12,,,,,,,,,,,,,,,,11,,69,0
13199,note_on,,29,0,15,,,,,,,,,,,,,,,,15,,74,0
13199,note_on,,0,0,15,,,,,,,,,,,,,,,,15,,62,0
13199,note_on,,29,0,14,,,,,,,,,,,,,,,,13,,54,0
13199,note_on,,0,0,15,,,,,,,,,,,,,,,,15,,57,0
13199,note_on,,0,0,15,,,,,,,,,,,,,,,,15,,54,0
13199,note_on,,0,0,15,,,,,,,,,,,,,,,,15,,69,0
13199,note_on,,29,0,6,,,,,,,,,,,,,,,,2,,54,0
13199,note_on,,59,0,13,,,,,,,,,,,,,,,,12,,61,0
13199,note_on,,29,0,10,,,,,,,,,,,,,,,,8,,54,0
13199,note_on,,119,0,5,,,,,,,,,,,,,,,,1,,69,0
13199,note_on,,29,0,8,,,,,,,,,,,,,,,,6,,69,0
13200,note_on,,1,0,8,,,,,,,,,,,,,,,,6,,62,72
13200,note_on,,0,0,15,,,,,,,,,,,,,,,,15,,62,72
13200,note_on,,1,0,7,,,,,,,,,,,,,,,,5,,71,72
13200,note_on,,0,0,15,,,,,,,,,,,,,,,,15,,59,72
13200,note_on,,0,0,15,,,,,,,,,,,,,,,,15,,71,72
13200,note_on,,1,0,6,,,,,,,,,,,,,,,,2,,55,72
13200,note_on,,0,0,15,,,,,,,,,,,,,,,,15,,67,72
13200,note_on,,1,0,15,,,,,,,,,,,,,,,,15,,55,72
13200,note_on,,1,0,11,,,,,,,,,,,,,,,,10,,71,72
13200,note_on,,1,0,14,,,,,,,,,,,,,,,,13,,55,72
13200,note_on,,1,0,9,,,,,,,,,,,,,,,,7,,59,72
13200,note_on,,1,0,12,,,,,,,,,,,,,,,,11,,62,72
13200,note_on,,1,0,10,,,,,,,,,,,,,,,,8,,55,72
13200,note_on,,1,0,5,,,,,,,,,,,,,,,,1,,71,72
13200,note_on,,1,0,13,,,,,,,,,,,,,,,,12,,59,72
13259,note_on,,59,0,14,,,,,,,,,,,,,,,,13,,55,0
13259,note_on,,59,0,12,,,,,,,,,,,,,,,,11,,62,0
13259,note_on,,59,0,10,,,,,,,,,,,,,,,,8,,55,0
13259,note_on,,59,0,8,,,,,,,,,,,,,,,,6,,62,0
13259,note_on,,59,0,6,,,,,,,,,,,,,,,,2,,55,0
13259,note_on,,59,0,15,,,,,,,,,,,,,,,,15,,55,0
13260,note_on,,1,0,15,,,,,,,,,,,,,,,,15,,47,72
13260,note_on,,1,0,12,,,,,,,,,,,,,,,,11,,67,72
13260,note_on,,1,0,10,,,,,,,,,,,,,,,,8,,47,72
13260,note_on,,1,0,8,,,,,,,,,,,,,,,,6,,67,72
13260,note_on,,1,0,14,,,,,,,,,,,,,,,,13,,47,72
13260,note_on,,1,0,6,,,,,,,,,,,,,,,,2,,47,72
13289,note_on,,29,0,12,,,,,,,,,,,,,,,,11,,67,0
13289,note_on,,29,0,8,,,,,,,,,,,,,,,,6,,67,0
13290,note_on,,1,0,8,,,,,,,,,,,,,,,,6,,66,72
13290,note_on,,1,0,12,,,,,,,,,,,,,,,,11,,66,72
13319,note_on,,119,0,7,,,,,,,,,,,,,,,,5,,71,0
13319,note_on,,29,0,8,,,,,,,,,,,,,,,,6,,66,0
13319,note_on,,0,0,15,,,,,,,,,,,,,,,,15,,47,0
13319,note_on,,0,0,15,,,,,,,,,,,,,,,,15,,62,0
13319,note_on,,0,0,15,,,,,,,,,,,,,,,,15,,67,0
13319,note_on,,59,0,14,,,,,,,,,,,,,,,,13,,47,0
13319,note_on,,0,0,15,,,,,,,,,,,,,,,,15,,71,0
13319,note_on,,119,0,9,,,,,,,,,,,,,,,,7,,59,0
13319,note_on,,29,0,12,,,,,,,,,,,,,,,,11,,66,0
13319,note_on,,59,0,15,,,,,,,,,,,,,,,,15,,59,0
13319,note_on,,59,0,10,,,,,,,,,,,,,,,,8,,47,0
13319,note_on,,119,0,5,,,,,,,,,,,,,,,,1,,71,0
13319,note_on,,119,0,11,,,,,,,,,,,,,,,,10,,71,0
13319,note_on,,59,0,6,,,,,,,,,,,,,,,,2,,47,0
13319,note_on,,119,0,13,,,,,,,,,,,,,,,,12,,59,0
13320,note_on,,1,0,11,,,,,,,,,,,,,,,,10,,69,72
13320,note_on,,0,0,15,,,,,,,,,,,,,,,,15,,52,72
13320,note_on,,1,0,9,,,,,,,,,,,,,,,,7,,64,72
13320,note_on,,0,0,15,,,,,,,,,,,,,,,,15,,69,72
13320,note_on,,1,0,10,,,,,,,,,,,,,,,,8,,49,72
13320,note_on,,1,0,5,,,,,,,,,,,,,,,,1,,69,72
13320,note_on,,1,0,14,,,,,,,,,,,,,,,,13,,49,72
13320,note_on,,1,0,7,,,,,,,,,,,,,,,,5,,69,72
13320,note_on,,1,0,13,,,,,,,,,,,,,,,,12,,64,72
13320,note_on,,0,0,15,,,,,,,,,,,,,,,,15,,67,72
13320,note_on,,1,0,15,,,,,,,,,,,,,,,,15,,49,72
13320,note_on,,1,0,8,,,,,,,,,,,,,,,,6,,64,72
13320,note_on,,1,0,6,,,,,,,,,,,,,,,,2,,49,72
13320,note_on,,1,0,12,,,,,,,,,,,,,,,,11,,64,72
13320,note_on,,0,0,15,,,,,,,,,,,,,,,,15,,64,72
13379,note_on,,59,0,6,,,,,,,,,,,,,,,,2,,49,0
13379,note_on,,59,0,12,,,,,,,,,,,,,,,,11,,64,0
13379,note_on,,59,0,8,,,,,,,,,,,,,,,,6,,64,0
13379,note_on,,59,0,15,,,,,,,,,,,,,,,,15,,49,0
13379,note_on,,59,0,5,,,,,,,,,,,,,,,,1,,69,0
13379,note_on,,59,0,14,,,,,,,,,,,,,,,,13,,49,0
13379,note_on,,59,0,7,,,,,,,,,,,,,,,,5,,69,0
13379,note_on,,59,0,11,,,,,,,,,,,,,,,,10,,69,0
13379,note_on,,59,0,10,,,,,,,,,,,,,,,,8,,49,0
13380,note_on,,1,0,12,,,,,,,,,,,,,,,,11,,62,72
13380,note_on,,1,0,10,,,,,,,,,,,,,,,,8,,47,72
13380,note_on,,1,0,14,,,,,,,,,,,,,,,,13,,47,72
13380,note_on,,1,0,7,,,,,,,,,,,,,,,,5,,67,72
13380,note_on,,1,0,15,,,,,,,,,,,,,,,,15,,47,72
13380,note_on,,1,0,8,,,,,,,,,,,,,,,,6,,62,72
13380,note_on,,1,0,5,,,,,,,,,,,,,,,,1,,67,72
13380,note_on,,1,0,6,,,,,,,,,,,,,,,,2,,47,72
13380,note_on,,1,0,11,,,,,,,,,,,,,,,,10,,67,72
13409,note_on,,29,0,6,,,,,,,,,,,,,,,,2,,47,0
13409,note_on,,29,0,15,,,,,,,,,,,,,,,,15,,47,0
13409,note_on,,29,0,14,,,,,,,,,,,,,,,,13,,47,0
13409,note_on,,29,0,10,,,,,,,,,,,,,,,,8,,47,0
13409,note_on,,29,0,12,,,,,,,,,,,,,,,,11,,62,0
13409,note_on,,29,0,8,,,,,,,,,,,,,,,,6,,62,0
13410,note_on,,1,0,6,,,,,,,,,,,,,,,,2,,49,72
13410,note_on,,1,0,14,,,,,,,,,,,,,,,,13,,49,72
13410,note_on,,1,0,15,,,,,,,,,,,,,,,,15,,49,72
13410,note_on,,1,0,12,,,,,,,,,,,,,,,,11,,64,72
13410,note_on,,1,0,10,,,,,,,,,,,,,,,,8,,49,72
13410,note_on,,1,0,8,,,,,,,,,,,,,,,,6,,64,72
13439,note_on,,119,0,13,,,,,,,,,,,,,,,,12,,64,0
13439,note_on,,59,0,7,,,,,,,,,,,,,,,,5,,67,0
13439,note_on,,59,0,5,,,,,,,,,,,,,,,,1,,67,0
13439,note_on,,29,0,6,,,,,,,,,,,,,,,,2,,49,0
13439,note_on,,29,0,12,,,,,,,,,,,,,,,,11,,64,0
13439,note_on,,29,0,14,,,,,,,,,,,,,,,,13,,49,0
13439,note_on,,119,0,9,,,,,,,,,,,,,,,,7,,64,0
13439,note_on,,0,0,15,,,,,,,,,,,,,,,,15,,67,0
13439,note_on,,29,0,8,,,,,,,,,,,,,,,,6,,64,0
13439,note_on,,59,0,11,,,,,,,,,,,,,,,,10,,67,0
13439,note_on,,0,0,15,,,,,,,,,,,,,,,,15,,49,0
13439,note_on,,29,0,10,,,,,,,,,,,,,,,,8,,49,0
13439,note_on,,29,0,15,,,,,,,,,,,,,,,,15,,52,0
13439,note_on,,0,0,15,,,,,,,,,,,,,,,,15,,64,0
13440,note_on,,1,0,13,,,,,,,,,,,,,,,,12,,57,72
13440,note_on,,1,0,15,,,,,,,,,,,,,,,,15,,50,72
13440,note_on,,1,0,7,,,,,,,,,,,,,,,,5,,66,72
13440,note_on,,1,0,8,,,,,,,,,,,,,,,,6,,66,72
13440,note_on,,0,0,15,,,,,,,,,,,,,,,,15,,66,72
13440,note_on,,1,0,6,,,,,,,,,,,,,,,,2,,50,72
13440,note_on,,1,0,5,,,,,,,,,,,,,,,,1,,66,72
13440,note_on,,1,0,10,,,,,,,,,,,,,,,,8,,50,72
13440,note_on,,0,0,15,,,,,,,,,,,,,,,,15,,57,72
13440,note_on,,0,0,15,,,,,,,,,,,,,,,,15,,62,72
13440,note_on,,1,0,9,,,,,,,,,,,,,,,,7,,57,72
13440,note_on,,1,0,11,,,,,,,,,,,,,,,,10,,66,72
13440,note_on,,1,0,12,,,,,,,,,,,,,,,,11,,66,72
13440,note_on,,1,0,14,,,,,,,,,,,,,,,,13,,50,72
13499,note_on,,59,0,10,,,,,,,,,,,,,,,,8,,50,0
13499,note_on,,59,0,14,,,,,,,,,,,,,,,,13,,50,0
13499,note_on,,59,0,15,,,,,,,,,,,,,,,,15,,50,0
13499,note_on,,59,0,6,,,,,,,,,,,,,,,,2,,50,0
13500,note_on,,1,0,14,,,,,,,,,,,,,,,,13,,45,72
13500,note_on,,1,0,15,,,,,,,,,,,,,,,,15,,45,72
13500,note_on,,1,0,10,,,,,,,,,,,,,,,,8,,45,72
13500,note_on,,1,0,6,,,,,,,,,,,,,,,,2,,45,72
13529,note_on,,29,0,14,,,,,,,,,,,,,,,,13,,45,0
13529,note_on,,29,0,6,,,,,,,,,,,,,,,,2,,45,0
13529,note_on,,29,0,15,,,,,,,,,,,,,,,,15,,45,0
13529,note_on,,29,0,10,,,,,,,,,,,,,,,,8,,45,0
13530,note_on,,1,0,14,,,,,,,,,,,,,,,,13,,47,72
13530,note_on,,1,0,6,,,,,,,,,,,,,,,,2,,47,72
13530,note_on,,1,0,15,,,,,,,,,,,,,,,,15,,47,72
13530,note_on,,1,0,10,,,,,,,,,,,,,,,,8,,47,72
13559,note_on,,119,0,11,,,,,,,,,,,,,,,,10,,66,0
13559,note_on,,29,0,15,,,,,,,,,,,,,,,,15,,69,0
13559,note_on,,0,0,15,,,,,,,,,,,,,,,,15,,66,0
13559,note_on,,0,0,15,,,,,,,,,,,,,,,,15,,62,0
13559,note_on,,0,0,15,,,,,,,,,,,,,,,,15,,57,0
13559,note_on,,0,0,15,,,,,,,,,,,,,,,,15,,47,0
13559,note_on,,29,0,14,,,,,,,,,,,,,,,,13,,47,0
13559,note_on,,119,0,7,,,,,,,,,,,,,,,,5,,66,0
13559,note_on,,29,0,10,,,,,,,,,,,,,,,,8,,47,0
13559,note_on,,119,0,5,,,,,,,,,,,,,,,,1,,66,0
13559,note_on,,119,0,9,,,,,,,,,,,,,,,,7,,57,0
13559,note_on,,119,0,8,,,,,,,,,,,,,,,,6,,66,0
13559,note_on,,119,0,12,,,,,,,,,,,,,,,,11,,66,0
13559,note_on,,119,0,13,,,,,,,,,,,,,,,,12,,57,0
13559,note_on,,29,0,6,,,,,,,,,,,,,,,,2,,47,0
13560,note_on,,0,0,15,,,,,,,,,,,,,,,,15,,57,72
13560,note_on,,0,0,15,,,,,,,,,,,,,,,,15,,69,72
13560,note_on,,1,0,14,,,,,,,,,,,,,,,,13,,48,72
13560,note_on,,0,0,15,,,,,,,,,,,,,,,,15,,74,72
13560,note_on,,0,0,15,,,,,,,,,,,,,,,,15,,66,72
13560,note_on,,1,0,7,,,,,,,,,,,,,,,,5,,64,72
13560,note_on,,1,0,15,,,,,,,,,,,,,,,,15,,48,72
13560,note_on,,1,0,13,,,,,,,,,,,,,,,,12,,57,72
13560,note_on,,1,0,6,,,,,,,,,,,,,,,,2,,48,72
13560,note_on,,1,0,12,,,,,,,,,,,,,,,,11,,57,72
13560,note_on,,1,0,11,,,,,,,,,,,,,,,,10,,64,72
13560,note_on,,1,0,9,,,,,,,,,,,,,,,,7,,57,72
13560,note_on,,1,0,10,,,,,,,,,,,,,,,,8,,48,72
13560,note_on,,1,0,5,,,,,,,,,,,,,,,,1,,64,72
13560,note_on,,1,0,8,,,,,,,,,,,,,,,,6,,57,72
13619,note_on,,59,0,15,,,,,,,,,,,,,,,,15,,48,0
13619,note_on,,59,0,13,,,,,,,,,,,,,,,,12,,57,0
13619,note_on,,59,0,10,,,,,,,,,,,,,,,,8,,48,0
13619,note_on,,59,0,7,,,,,,,,,,,,,,,,5,,64,0
13619,note_on,,59,0,12,,,,,,,,,,,,,,,,11,,57,0
13619,note_on,,59,0,9,,,,,,,,,,,,,,,,7,,57,0
13619,note_on,,59,0,14,,,,,,,,,,,,,,,,13,,48,0
13619,note_on,,59,0,6,,,,,,,,,,,,,,,,2,,48,0
13619,note_on,,59,0,5,,,,,,,,,,,,,,,,1,,64,0
13619,note_on,,59,0,11,,,,,,,,,,,,,,,,10,,64,0
13619,note_on,,59,0,8,,,,,,,,,,,,,,,,6,,57,0
13620,note_on,,1,0,8,,,,,,,,,,,,,,,,6,,57,72
13620,note_on,,1,0,10,,,,,,,,,,,,,,,,8,,50,72
13620,note_on,,1,0,12,,,,,,,,,,,,,,,,11,,57,72
13620,note_on,,1,0,9,,,,,,,,,,,,,,,,7,,57,72
13620,note_on,,1,0,13,,,,,,,,,,,,,,,,12,,57,72
13620,note_on,,1,0,15,,,,,,,,,,,,,,,,15,,50,72
13620,note_on,,1,0,14,,,,,,,,,,,,,,,,13,,50,72
13620,note_on,,1,0,11,,,,,,,,,,,,,,,,10,,66,72
13620,note_on,,1,0,5,,,,,,,,,,,,,,,,1,,66,72
13620,note_on,,1,0,6,,,,,,,,,,,,,,,,2,,50,72
13620,note_on,,1,0,7,,,,,,,,,,,,,,,,5,,66,72
13649,note_on,,29,0,6,,,,,,,,,,,,,,,,2,,50,0
13649,note_on,,29,0,14,,,,,,,,,,,,,,,,13,,50,0
13649,note_on,,29,0,10,,,,,,,,,,,,,,,,8,,50,0
13649,note_on,,29,0,15,,,,,,,,,,,,,,,,15,,50,0
13650,note_on,,1,0,15,,,,,,,,,,,,,,,,15,,48,72
13650,note_on,,1,0,10,,,,,,,,,,,,,,,,8,,48,72
13650,note_on,,1,0,6,,,,,,,,,,,,,,,,2,,48,72
13650,note_on,,1,0,14,,,,,,,,,,,,,,,,13,,48,72
13679,note_on,,59,0,12,,,,,,,,,,,,,,,,11,,57,0
13679,note_on,,59,0,13,,,,,,,,,,,,,,,,12,,57,0
13679,note_on,,29,0,14,,,,,,,,,,,,,,,,13,,48,0
13679,note_on,,59,0,8,,,,,,,,,,,,,,,,6,,57,0
13679,note_on,,29,0,15,,,,,,,,,,,,,,,,15,,57,0
13679,note_on,,59,0,5,,,,,,,,,,,,,,,,1,,66,0
13679,note_on,,59,0,7,,,,,,,,,,,,,,,,5,,66,0
13679,note_on,,29,0,6,,,,,,,,,,,,,,,,2,,48,0
13679,note_on,,0,0,15,,,,,,,,,,,,,,,,15,,69,0
13679,note_on,,59,0,9,,,,,,,,,,,,,,,,7,,57,0
13679,note_on,,0,0,15,,,,,,,,,,,,,,,,15,,48,0
13679,note_on,,29,0,10,,,,,,,,,,,,,,,,8,,48,0
13679,note_on,,0,0,15,,,,,,,,,,,,,,,,15,,66,0
13679,note_on,,59,0,11,,,,,,,,,,,,,,,,10,,66,0
13680,note_on,,1,0,13,,,,,,,,,,,,,,,,12,,59,72
13680,note_on,,1,0,15,,,,,,,,,,,,,,,,15,,47,72
13680,note_on,,0,0,15,,,,,,,,,,,,,,,,15,,59,72
13680,note_on,,0,0,15,,,,,,,,,,,,,,,,15,,67,72
13680,note_on,,0,0,15,,,,,,,,,,,,,,,,15,,62,72
13680,note_on,,1,0,14,,,,,,,,,,,,,,,,13,,47,72
13680,note_on,,1,0,11,,,,,,,,,,,,,,,,10,,67,72
13680,note_on,,1,0,6,,,,,,,,,,,,,,,,2,,47,72
13680,note_on,,1,0,10,,,,,,,,,,,,,,,,8,,47,72
13680,note_on,,1,0,5,,,,,,,,,,,,,,,,1,,67,72
13680,note_on,,1,0,8,,,,,,,,,,,,,,,,6,,62,72
13680,note_on,,1,0,12,,,,,,,,,,,,,,,,11,,62,72
13680,note_on,,1,0,7,,,,,,,,,,,,,,,,5,,67,72
13680,note_on,,1,0,9,,,,,,,,,,,,,,,,7,,59,72
13739,note_on,,59,0,15,,,,,,,,,,,,,,,,15,,47,0
13739,note_on,,59,0,6,,,,,,,,,,,,,,,,2,,47,0
13739,note_on,,59,0,10,,,,,,,,,,,,,,,,8,,47,0
13739,note_on,,59,0,14,,,,,,,,,,,,,,,,13,,47,0
13740,note_on,,1,0,10,,,,,,,,,,,,,,,,8,,55,72
13740,note_on,,1,0,14,,,,,,,,,,,,,,,,13,,55,72
13740,note_on,,1,0,15,,,,,,,,,,,,,,,,15,,55,72
13740,note_on,,1,0,6,,,,,,,,,,,,,,,,2,,55,72
13799,note_on,,119,0,11,,,,,,,,,,,,,,,,10,,67,0
13799,note_on,,59,0,6,,,,,,,,,,,,,,,,2,,55,0
13799,note_on,,59,0,15,,,,,,,,,,,,,,,,15,,74,0
13799,note_on,,0,0,15,,,,,,,,,,,,,,,,15,,59,0
13799,note_on,,0,0,15,,,,,,,,,,,,,,,,15,,67,0
13799,note_on,,0,0,15,,,,,,,,,,,,,,,,15,,62,0
13799,note_on,,0,0,15,,,,,,,,,,,,,,,,15,,55,0
13799,note_on,,59,0,10,,,,,,,,,,,,,,,,8,,55,0
13799,note_on,,119,0,9,,,,,,,,,,,,,,,,7,,59,0
13799,note_on,,119,0,8,,,,,,,,,,,,,,,,6,,62,0
13799,note_on,,119,0,7,,,,,,,,,,,,,,,,5,,67,0
13799,note_on,,119,0,12,,,,,,,,,,,,,,,,11,,62,0
13799,note_on,,119,0,13,,,,,,,,,,,,,,,,12,,59,0
13799,note_on,,59,0,14,,,,,,,,,,,,,,,,13,,55,0
13799,note_on,,119,0,5,,,,,,,,,,,,,,,,1,,67,0
13800,note_on,,1,0,5,,,,,,,,,,,,,,,,1,,69,72
13800,note_on,,1,0,10,,,,,,,,,,,,,,,,8,,54,72
13800,note_on,,1,0,13,,,,,,,,,,,,,,,,12,,62,72
13800,note_on,,1,0,9,,,,,,,,,,,,,,,,7,,62,72
13800,note_on,,1,0,14,,,,,,,,,,,,,,,,13,,54,72
13800,note_on,,1,0,11,,,,,,,,,,,,,,,,10,,69,72
13800,note_on,,0,0,15,,,,,,,,,,,,,,,,15,,57,72
13800,note_on,,1,0,12,,,,,,,,,,,,,,,,11,,66,72
13800,note_on,,1,0,6,,,,,,,,,,,,,,,,2,,54,72
13800,note_on,,1,0,15,,,,,,,,,,,,,,,,15,,54,72
13800,note_on,,1,0,8,,,,,,,,,,,,,,,,6,,66,72
13800,note_on,,1,0,7,,,,,,,,,,,,,,,,5,,69,72
13800,note_on,,0,0,15,,,,,,,,,,,,,,,,15,,62,72
13800,note_on,,0,0,15,,,,,,,,,,,,,,,,15,,69,72
13859,note_on,,59,0,14,,,,,,,,,,,,,,,,13,,54,0
13859,note_on,,59,0,10,,,,,,,,,,,,,,,,8,,54,0
13859,note_on,,59,0,15,,,,,,,,,,,,,,,,15,,54,0
13859,note_on,,59,0,6,,,,,,,,,,,,,,,,2,,54,0
13860,note_on,,1,0,14,,,,,,,,,,,,,,,,13,,52,72
13860,note_on,,1,0,10,,,,,,,,,,,,,,,,8,,52,72
13860,note_on,,1,0,15,,,,,,,,,,,,,,,,15,,52,72
13860,note_on,,1,0,6,,,,,,,,,,,,,,,,2,,52,72
13889,note_on,,29,0,15,,,,,,,,,,,,,,,,15,,52,0
13889,note_on,,29,0,10,,,,,,,,,,,,,,,,8,,52,0
13889,note_on,,29,0,6,,,,,,,,,,,,,,,,2,,52,0
13889,note_on,,29,0,14,,,,,,,,,,,,,,,,13,,52,0
13890,note_on,,1,0,15,,,,,,,,,,,,,,,,15,,54,72
13890,note_on,,1,0,14,,,,,,,,,,,,,,,,13,,54,72
13890,note_on,,1,0,10,,,,,,,,,,,,,,,,8,,54,72
13890,note_on,,1,0,6,,,,,,,,,,,,,,,,2,,54,72
13919,note_on,,29,0,15,,,,,,,,,,,,,,,,15,,57,0
13919,note_on,,29,0,6,,,,,,,,,,,,,,,,2,,54,0
13919,note_on,,119,0,13,,,,,,,,,,,,,,,,12,,62,0
13919,note_on,,0,0,15,,,,,,,,,,,,,,,,15,,62,0
13919,note_on,,119,0,9,,,,,,,,,,,,,,,,7,,62,0
13919,note_on,,119,0,5,,,,,,,,,,,,,,,,1,,69,0
13919,note_on,,119,0,11,,,,,,,,,,,,,,,,10,,69,0
13919,note_on,,0,0,15,,,,,,,,,,,,,,,,15,,54,0
13919,note_on,,119,0,12,,,,,,,,,,,,,,,,11,,66,0
13919,note_on,,119,0,7,,,,,,,,,,,,,,,,5,,69,0
13919,note_on,,119,0,8,,,,,,,,,,,,,,,,6,,66,0
13919,note_on,,29,0,14,,,,,,,,,,,,,,,,13,,54,0
13919,note_on,,29,0,10,,,,,,,,,,,,,,,,8,,54,0
13919,note_on,,0,0,15,,,,,,,,,,,,,,,,15,,69,0
13920,note_on,,1,0,15,,,,,,,,,,,,,,,,15,,55,72
13920,note_on,,1,0,14,,,,,,,,,,,,,,,,13,,55,72
13920,note_on,,1,0,10,,,,,,,,,,,,,,,,8,,55,72
13920,note_on,,1,0,7,,,,,,,,,,,,,,,,5,,71,72
13920,note_on,,0,0,15,,,,,,,,,,,,,,,,15,,71,72
13920,note_on,,0,0,15,,,,,,,,,,,,,,,,15,,67,72
13920,note_on,,1,0,8,,,,,,,,,,,,,,,,6,,62,72
13920,note_on,,1,0,6,,,,,,,,,,,,,,,,2,,55,72
13920,note_on,,1,0,9,,,,,,,,,,,,,,,,7,,59,72
13920,note_on,,1,0,5,,,,,,,,,,,,,,,,1,,71,72
13920,note_on,,1,0,13,,,,,,,,,,,,,,,,12,,59,72
13920,note_on,,1,0,11,,,,,,,,,,,,,,,,10,,71,72
13920,note_on,,0,0,15,,,,,,,,,,,,,,,,15,,62,72
13920,note_on,,1,0,12,,,,,,,,,,,,,,,,11,,62,72
13979,note_on,,59,0,15,,,,,,,,,,,,,,,,15,,55,0
13979,note_on,,59,0,14,,,,,,,,,,,,,,,,13,,55,0
13979,note_on,,59,0,6,,,,,,,,,,,,,,,,2,,55,0
13979,note_on,,59,0,10,,,,,,,,,,,,,,,,8,,55,0
13980,note_on,,1,0,14,,,,,,,,,,,,,,,,13,,54,72
13980,note_on,,1,0,6,,,,,,,,,,,,,,,,2,,54,72
13980,note_on,,1,0,10,,,,,,,,,,,,,,,,8,,54,72
13980,note_on,,1,0,15,,,,,,,,,,,,,,,,15,,54,72
14009,note_on,,29,0,14,,,,,,,,,,,,,,,,13,,54,0
14009,note_on,,29,0,6,,,,,,,,,,,,,,,,2,,54,0
14009,note_on,,29,0,10,,,,,,,,,,,,,,,,8,,54,0
14009,note_on,,29,0,15,,,,,,,,,,,,,,,,15,,54,0
14010,note_on,,1,0,6,,,,,,,,,,,,,,,,2,,55,72
14010,note_on,,1,0,10,,,,,,,,,,,,,,,,8,,55,72
14010,note_on,,1,0,14,,,,,,,,,,,,,,,,13,,55,72
14010,note_on,,1,0,15,,,,,,,,,,,,,,,,15,,55,72
14039,note_on,,0,0,15,,,,,,,,,,,,,,,,15,,55,0
14039,note_on,,119,0,9,,,,,,,,,,,,,,,,7,,59,0
14039,note_on,,119,0,11,,,,,,,,,,,,,,,,10,,71,0
14039,note_on,,29,0,6,,,,,,,,,,,,,,,,2,,55,0
14039,note_on,,29,0,10,,,,,,,,,,,,,,,,8,,55,0
14039,note_on,,119,0,13,,,,,,,,,,,,,,,,12,,59,0
14039,note_on,,119,0,12,,,,,,,,,,,,,,,,11,,62,0
14039,note_on,,119,0,5,,,,,,,,,,,,,,,,1,,71,0
14039,note_on,,29,0,14,,,,,,,,,,,,,,,,13,,55,0
14039,note_on,,0,0,15,,,,,,,,,,,,,,,,15,,67,0
14039,note_on,,29,0,15,,,,,,,,,,,,,,,,15,,71,0
14039,note_on,,0,0,15,,,,,,,,,,,,,,,,15,,62,0
14039,note_on,,119,0,8,,,,,,,,,,,,,,,,6,,62,0
14039,note_on,,119,0,7,,,,,,,,,,,,,,,,5,,71,0
14040,note_on,,1,0,14,,,,,,,,,,,,,,,,13,,52,72
14040,note_on,,0,0,15,,,,,,,,,,,,,,,,15,,67,72
14040,note_on,,0,0,15,,,,,,,,,,,,,,,,15,,73,72
14040,note_on,,1,0,9,,,,,,,,,,,,,,,,7,,64,72
14040,note_on,,0,0,15,,,,,,,,,,,,,,,,15,,64,72
14040,note_on,,1,0,11,,,,,,,,,,,,,,,,10,,73,72
14040,note_on,,1,0,8,,,,,,,,,,,,,,,,6,,67,72
14040,note_on,,1,0,10,,,,,,,,,,,,,,,,8,,52,72
14040,note_on,,1,0,15,,,,,,,,,,,,,,,,15,,52,72
14040,note_on,,0,0,15,,,,,,,,,,,,,,,,15,,76,72
14040,note_on,,1,0,5,,,,,,,,,,,,,,,,1,,73,72
14040,note_on,,1,0,13,,,,,,,,,,,,,,,,12,,64,72
14040,note_on,,1,0,6,,,,,,,,,,,,,,,,2,,52,72
14040,note_on,,1,0,7,,,,,,,,,,,,,,,,5,,73,72
14040,note_on,,1,0,12,,,,,,,,,,,,,,,,11,,67,72
14099,note_on,,59,0,12,,,,,,,,,,,,,,,,11,,67,0
14099,note_on,,59,0,10,,,,,,,,,,,,,,,,8,,52,0
14099,note_on,,59,0,14,,,,,,,,,,,,,,,,13,,52,0
14099,note_on,,59,0,8,,,,,,,,,,,,,,,,6,,67,0
14099,note_on,,59,0,15,,,,,,,,,,,,,,,,15,,52,0
14099,note_on,,59,0,6,,,,,,,,,,,,,,,,2,,52,0
14100,note_on,,1,0,15,,,,,,,,,,,,,,,,15,,57,72
14100,note_on,,1,0,6,,,,,,,,,,,,,,,,2,,57,72
14100,note_on,,1,0,14,,,,,,,,,,,,,,,,13,,57,72
14100,note_on,,1,0,8,,,,,,,,,,,,,,,,6,,64,72
14100,note_on,,1,0,10,,,,,,,,,,,,,,,,8,,57,72
14100,note_on,,1,0,12,,,,,,,,,,,,,,,,11,,64,72
14129,note_on,,29,0,14,,,,,,,,,,,,,,,,13,,57,0
14129,note_on,,29,0,6,,,,,,,,,,,,,,,,2,,57,0
14129,note_on,,29,0,15,,,,,,,,,,,,,,,,15,,57,0
14129,note_on,,29,0,10,,,,,,,,,,,,,,,,8,,57,0
14130,note_on,,1,0,15,,,,,,,,,,,,,,,,15,,55,72
14130,note_on,,1,0,10,,,,,,,,,,,,,,,,8,,55,72
14130,note_on,,1,0,6,,,,,,,,,,,,,,,,2,,55,72
14130,note_on,,1,0,14,,,,,,,,,,,,,,,,13,,55,72
14159,note_on,,29,0,14,,,,,,,,,,,,,,,,13,,55,0
14159,note_on,,119,0,11,,,,,,,,,,,,,,,,10,,73,0
14159,note_on,,0,0,15,,,,,,,,,,,,,,,,15,,67,0
14159,note_on,,0,0,15,,,,,,,,,,,,,,,,15,,73,0
14159,note_on,,0,0,15,,,,,,,,,,,,,,,,15,,76,0
14159,note_on,,29,0,15,,,,,,,,,,,,,,,,15,,64,0
14159,note_on,,29,0,6,,,,,,,,,,,,,,,,2,,55,0
14159,note_on,,119,0,9,,,,,,,,,,,,,,,,7,,64,0
14159,note_on,,119,0,13,,,,,,,,,,,,,,,,12,,64,0
14159,note_on,,29,0,10,,,,,,,,,,,,,,,,8,,55,0
14159,note_on,,119,0,5,,,,,,,,,,,,,,,,1,,73,0
14159,note_on,,119,0,7,,,,,,,,,,,,,,,,5,,73,0
14159,note_on,,59,0,8,,,,,,,,,,,,,,,,6,,64,0
14159,note_on,,0,0,15,,,,,,,,,,,,,,,,15,,55,0
14159,note_on,,59,0,12,,,,,,,,,,,,,,,,11,,64,0
14160,note_on,,1,0,8,,,,,,,,,,,,,,,,6,,69,72
14160,note_on,,1,0,6,,,,,,,,,,,,,,,,2,,54,72
14160,note_on,,0,0,15,,,,,,,,,,,,,,,,15,,69,72
14160,note_on,,1,0,9,,,,,,,,,,,,,,,,7,,66,72
14160,note_on,,1,0,10,,,,,,,,,,,,,,,,8,,54,72
14160,note_on,,1,0,7,,,,,,,,,,,,,,,,5,,74,72
14160,note_on,,1,0,12,,,,,,,,,,,,,,,,11,,69,72
14160,note_on,,0,0,15,,,,,,,,,,,,,,,,15,,74,72
14160,note_on,,0,0,15,,,,,,,,,,,,,,,,15,,78,72
14160,note_on,,1,0,15,,,,,,,,,,,,,,,,15,,54,72
14160,note_on,,1,0,11,,,,,,,,,,,,,,,,10,,74,72
14160,note_on,,0,0,15,,,,,,,,,,,,,,,,15,,62,72
14160,note_on,,1,0,13,,,,,,,,,,,,,,,,12,,66,72
14160,note_on,,1,0,14,,,,,,,,,,,,,,,,13,,54,72
14160,note_on,,1,0,5,,,,,,,,,,,,,,,,1,,74,72
14219,note_on,,59,0,14,,,,,,,,,,,,,,,,13,,54,0
14219,note_on,,59,0,10,,,,,,,,,,,,,,,,8,,54,0
14219,note_on,,59,0,6,,,,,,,,,,,,,,,,2,,54,0
14219,note_on,,59,0,15,,,,,,,,,,,,,,,,15,,54,0
14220,note_on,,1,0,15,,,,,,,,,,,,,,,,15,,52,72
14220,note_on,,1,0,6,,,,,,,,,,,,,,,,2,,52,72
14220,note_on,,1,0,10,,,,,,,,,,,,,,,,8,,52,72
14220,note_on,,1,0,14,,,,,,,,,,,,,,,,13,,52,72
14249,note_on,,29,0,15,,,,,,,,,,,,,,,,15,,52,0
14249,note_on,,29,0,10,,,,,,,,,,,,,,,,8,,52,0
14249,note_on,,29,0,14,,,,,,,,,,,,,,,,13,,52,0
14249,note_on,,29,0,6,,,,,,,,,,,,,,,,2,,52,0
14250,note_on,,1,0,10,,,,,,,,,,,,,,,,8,,50,72
14250,note_on,,1,0,15,,,,,,,,,,,,,,,,15,,50,72
14250,note_on,,1,0,14,,,,,,,,,,,,,,,,13,,50,72
14250,note_on,,1,0,6,,,,,,,,,,,,,,,,2,,50,72
14279,note_on,,119,0,9,,,,,,,,,,,,,,,,7,,66,0
14279,note_on,,119,0,7,,,,,,,,,,,,,,,,5,,74,0
14279,note_on,,119,0,8,,,,,,,,,,,,,,,,6,,69,0
14279,note_on,,119,0,13,,,,,,,,,,,,,,,,12,,66,0
14279,note_on,,0,0,15,,,,,,,,,,,,,,,,15,,74,0
14279,note_on,,0,0,15,,,,,,,,,,,,,,,,15,,69,0
14279,note_on,,0,0,15,,,,,,,,,,,,,,,,15,,50,0
14279,note_on,,119,0,11,,,,,,,,,,,,,,,,10,,74,0
14279,note_on,,29,0,6,,,,,,,,,,,,,,,,2,,50,0
14279,note_on,,119,0,5,,,,,,,,,,,,,,,,1,,74,0
14279,note_on,,29,0,15,,,,,,,,,,,,,,,,15,,62,0
14279,note_on,,29,0,14,,,,,,,,,,,,,,,,13,,50,0
14279,note_on,,29,0,10,,,,,,,,,,,,,,,,8,,50,0
14279,note_on,,119,0,12,,,,,,,,,,,,,,,,11,,69,0
14279,note_on,,0,0,15,,,,,,,,,,,,,,,,15,,78,0
14280,note_on,,1,0,13,,,,,,,,,,,,,,,,12,,64,72
14280,note_on,,1,0,6,,,,,,,,,,,,,,,,2,,49,72
14280,note_on,,1,0,11,,,,,,,,,,,,,,,,10,,76,72
14280,note_on,,1,0,10,,,,,,,,,,,,,,,,8,,49,72
14280,note_on,,1,0,7,,,,,,,,,,,,,,,,5,,76,72
14280,note_on,,0,0,15,,,,,,,,,,,,,,,,15,,67,72
14280,note_on,,0,0,15,,,,,,,,,,,,,,,,15,,69,72
14280,note_on,,0,0,15,,,,,,,,,,,,,,,,15,,64,72
14280,note_on,,1,0,5,,,,,,,,,,,,,,,,1,,76,72
14280,note_on,,1,0,15,,,,,,,,,,,,,,,,15,,49,72
14280,note_on,,1,0,12,,,,,,,,,,,,,,,,11,,69,72
14280,note_on,,1,0,14,,,,,,,,,,,,,,,,13,,49,72
14280,note_on,,1,0,9,,,,,,,,,,,,,,,,7,,64,72
14280,note_on,,1,0,8,,,,,,,,,,,,,,,,6,,69,72
14339,note_on,,59,0,5,,,,,,,,,,,,,,,,1,,76,0
14339,note_on,,59,0,13,,,,,,,,,,,,,,,,12,,64,0
14339,note_on,,59,0,6,,,,,,,,,,,,,,,,2,,49,0
14339,note_on,,59,0,10,,,,,,,,,,,,,,,,8,,49,0
14339,note_on,,59,0,14,,,,,,,,,,,,,,,,13,,49,0
14339,note_on,,59,0,9,,,,,,,,,,,,,,,,7,,64,0
14339,note_on,,59,0,7,,,,,,,,,,,,,,,,5,,76,0
14339,note_on,,59,0,12,,,,,,,,,,,,,,,,11,,69,0
14339,note_on,,59,0,15,,,,,,,,,,,,,,,,15,,49,0
14339,note_on,,59,0,11,,,,,,,,,,,,,,,,10,,76,0
14339,note_on,,59,0,8,,,,,,,,,,,,,,,,6,,69,0
14340,note_on,,1,0,8,,,,,,,,,,,,,,,,6,,69,72
14340,note_on,,1,0,9,,,,,,,,,,,,,,,,7,,64,72
14340,note_on,,1,0,11,,,,,,,,,,,,,,,,10,,76,72
14340,note_on,,1,0,7,,,,,,,,,,,,,,,,5,,76,72
14340,note_on,,1,0,15,,,,,,,,,,,,,,,,15,,47,72
14340,note_on,,1,0,5,,,,,,,,,,,,,,,,1,,76,72
14340,note_on,,1,0,10,,,,,,,,,,,,,,,,8,,47,72
14340,note_on,,1,0,12,,,,,,,,,,,,,,,,11,,69,72
14340,note_on,,1,0,14,,,,,,,,,,,,,,,,13,,47,72
14340,note_on,,1,0,6,,,,,,,,,,,,,,,,2,,47,72
14340,note_on,,1,0,13,,,,,,,,,,,,,,,,12,,64,72
14369,note_on,,29,0,14,,,,,,,,,,,,,,,,13,,47,0
14369,note_on,,29,0,6,,,,,,,,,,,,,,,,2,,47,0
14369,note_on,,29,0,10,,,,,,,,,,,,,,,,8,,47,0
14369,note_on,,29,0,15,,,,,,,,,,,,,,,,15,,47,0
14370,note_on,,1,0,15,,,,,,,,,,,,,,,,15,,49,72
14370,note_on,,1,0,10,,,,,,,,,,,,,,,,8,,49,72
14370,note_on,,1,0,6,,,,,,,,,,,,,,,,2,,49,72
14370,note_on,,1,0,14,,,,,,,,,,,,,,,,13,,49,72
14399,note_on,,29,0,10,,,,,,,,,,,,,,,,8,,49,0
14399,note_on,,0,0,15,,,,,,,,,,,,,,,,15,,49,0
14399,note_on,,59,0,5,,,,,,,,,,,,,,,,1,,76,0
14399,note_on,,59,0,9,,,,,,,,,,,,,,,,7,,64,0
14399,note_on,,59,0,12,,,,,,,,,,,,,,,,11,,69,0
14399,note_on,,29,0,15,,,,,,,,,,,,,,,,15,,67,0
14399,note_on,,29,0,6,,,,,,,,,,,,,,,,2,,49,0
14399,note_on,,0,0,15,,,,,,,,,,,,,,,,15,,64,0
14399,note_on,,59,0,7,,,,,,,,,,,,,,,,5,,76,0
14399,note_on,,59,0,11,,,,,,,,,,,,,,,,10,,76,0
14399,note_on,,59,0,13,,,,,,,,,,,,,,,,12,,64,0
14399,note_on,,59,0,8,,,,,,,,,,,,,,,,6,,69,0
14399,note_on,,29,0,14,,,,,,,,,,,,,,,,13,,49,0
14400,note_on,,1,0,10,,,,,,,,,,,,,,,,8,,50,72
14400,note_on,,0,0,15,,,,,,,,,,,,,,,,15,,62,72
14400,note_on,,1,0,15,,,,,,,,,,,,,,,,15,,50,72
14400,note_on,,1,0,5,,,,,,,,,,,,,,,,1,,78,72
14400,note_on,,1,0,14,,,,,,,,,,,,,,,,13,,50,72
14400,note_on,,1,0,13,,,,,,,,,,,,,,,,12,,62,72
14400,note_on,,1,0,12,,,,,,,,,,,,,,,,11,,69,72
14400,note_on,,1,0,11,,,,,,,,,,,,,,,,10,,78,72
14400,note_on,,1,0,6,,,,,,,,,,,,,,,,2,,50,72
14400,note_on,,0,0,15,,,,,,,,,,,,,,,,15,,66,72
14400,note_on,,1,0,8,,,,,,,,,,,,,,,,6,,69,72
14400,note_on,,1,0,9,,,,,,,,,,,,,,,,7,,62,72
14400,note_on,,0,0,15,,,,,,,,,,,,,,,,15,,57,72
14400,note_on,,1,0,7,,,,,,,,,,,,,,,,5,,78,72
14459,note_on,,59,0,15,,,,,,,,,,,,,,,,15,,50,0
14459,note_on,,59,0,10,,,,,,,,,,,,,,,,8,,50,0
14459,note_on,,59,0,14,,,,,,,,,,,,,,,,13,,50,0
14459,note_on,,59,0,6,,,,,,,,,,,,,,,,2,,50,0
14460,note_on,,1,0,14,,,,,,,,,,,,,,,,13,,49,72
14460,note_on,,1,0,15,,,,,,,,,,,,,,,,15,,49,72
14460,note_on,,1,0,10,,,,,,,,,,,,,,,,8,,49,72
14460,note_on,,1,0,6,,,,,,,,,,,,,,,,2,,49,72
14489,note_on,,29,0,14,,,,,,,,,,,,,,,,13,,49,0
14489,note_on,,29,0,6,,,,,,,,,,,,,,,,2,,49,0
14489,note_on,,29,0,15,,,,,,,,,,,,,,,,15,,49,0
14489,note_on,,29,0,10,,,,,,,,,,,,,,,,8,,49,0
14490,note_on,,1,0,10,,,,,,,,,,,,,,,,8,,50,72
14490,note_on,,1,0,6,,,,,,,,,,,,,,,,2,,50,72
14490,note_on,,1,0,14,,,,,,,,,,,,,,,,13,,50,72
14490,note_on,,1,0,15,,,,,,,,,,,,,,,,15,,50,72
14519,note_on,,0,0,15,,,,,,,,,,,,,,,,15,,50,0
14519,note_on,,0,0,15,,,,,,,,,,,,,,,,15,,62,0
14519,note_on,,0,0,15,,,,,,,,,,,,,,,,15,,66,0
14519,note_on,,119,0,11,,,,,,,,,,,,,,,,10,,78,0
14519,note_on,,29,0,14,,,,,,,,,,,,,,,,13,,50,0
14519,note_on,,119,0,5,,,,,,,,,,,,,,,,1,,78,0
14519,note_on,,29,0,6,,,,,,,,,,,,,,,,2,,50,0
14519,note_on,,29,0,15,,,,,,,,,,,,,,,,15,,69,0
14519,note_on,,0,0,15,,,,,,,,,,,,,,,,15,,57,0
14519,note_on,,119,0,12,,,,,,,,,,,,,,,,11,,69,0
14519,note_on,,119,0,7,,,,,,,,,,,,,,,,5,,78,0
14519,note_on,,119,0,8,,,,,,,,,,,,,,,,6,,69,0
14519,note_on,,29,0,10,,,,,,,,,,,,,,,,8,,50,0
14520,note_on,,1,0,10,,,,,,,,,,,,,,,,8,,47,72
14520,note_on,,1,0,5,,,,,,,,,,,,,,,,1,,79,72
14520,note_on,,1,0,6,,,,,,,,,,,,,,,,2,,47,72
14520,note_on,,1,0,11,,,,,,,,,,,,,,,,10,,79,72
14520,note_on,,1,0,7,,,,,,,,,,,,,,,,5,,79,72
14520,note_on,,1,0,8,,,,,,,,,,,,,,,,6,,67,72
14520,note_on,,0,0,15,,,,,,,,,,,,,,,,15,,62,72
14520,note_on,,1,0,12,,,,,,,,,,,,,,,,11,,67,72
14520,note_on,,0,0,15,,,,,,,,,,,,,,,,15,,74,72
14520,note_on,,0,0,15,,,,,,,,,,,,,,,,15,,55,72
14520,note_on,,1,0,15,,,,,,,,,,,,,,,,15,,47,72
14520,note_on,,1,0,14,,,,,,,,,,,,,,,,13,,47,72
14520,note_on,,0,0,15,,,,,,,,,,,,,,,,15,,67,72
14579,note_on,,179,0,9,,,,,,,,,,,,,,,,7,,62,0
14579,note_on,,59,0,10,,,,,,,,,,,,,,,,8,,47,0
14579,note_on,,59,0,6,,,,,,,,,,,,,,,,2,,47,0
14579,note_on,,59,0,15,,,,,,,,,,,,,,,,15,,47,0
14579,note_on,,59,0,14,,,,,,,,,,,,,,,,13,,47,0
14579,note_on,,59,0,8,,,,,,,,,,,,,,,,6,,67,0
14579,note_on,,179,0,13,,,,,,,,,,,,,,,,12,,62,0
14579,note_on,,59,0,12,,,,,,,,,,,,,,,,11,,67,0
14580,note_on,,1,0,6,,,,,,,,,,,,,,,,2,,52,72
14580,note_on,,1,0,10,,,,,,,,,,,,,,,,8,,52,72
14580,note_on,,1,0,13,,,,,,,,,,,,,,,,12,,64,72
14580,note_on,,1,0,9,,,,,,,,,,,,,,,,7,,64,72
14580,note_on,,1,0,8,,,,,,,,,,,,,,,,6,,66,72
14580,note_on,,1,0,15,,,,,,,,,,,,,,,,15,,52,72
14580,note_on,,1,0,14,,,,,,,,,,,,,,,,13,,52,72
14580,note_on,,1,0,12,,,,,,,,,,,,,,,,11,,66,72
14609,note_on,,29,0,9,,,,,,,,,,,,,,,,7,,64,0
14609,note_on,,29,0,13,,,,,,,,,,,,,,,,12,,64,0
14610,note_on,,1,0,13,,,,,,,,,,,,,,,,12,,62,72
14610,note_on,,1,0,9,,,,,,,,,,,,,,,,7,,62,72
14639,note_on,,0,0,15,,,,,,,,,,,,,,,,15,,62,0
14639,note_on,,0,0,15,,,,,,,,,,,,,,,,15,,67,0
14639,note_on,,59,0,12,,,,,,,,,,,,,,,,11,,66,0
14639,note_on,,59,0,14,,,,,,,,,,,,,,,,13,,52,0
14639,note_on,,59,0,15,,,,,,,,,,,,,,,,15,,74,0
14639,note_on,,59,0,10,,,,,,,,,,,,,,,,8,,52,0
14639,note_on,,59,0,6,,,,,,,,,,,,,,,,2,,52,0
14639,note_on,,29,0,9,,,,,,,,,,,,,,,,7,,62,0
14639,note_on,,29,0,13,,,,,,,,,,,,,,,,12,,62,0
14639,note_on,,0,0,15,,,,,,,,,,,,,,,,15,,52,0
14639,note_on,,59,0,8,,,,,,,,,,,,,,,,6,,66,0
14640,note_on,,1,0,12,,,,,,,,,,,,,,,,11,,64,72
14640,note_on,,1,0,10,,,,,,,,,,,,,,,,8,,45,72
14640,note_on,,1,0,8,,,,,,,,,,,,,,,,6,,64,72
14640,note_on,,1,0,15,,,,,,,,,,,,,,,,15,,73,72
14640,note_on,,0,0,15,,,,,,,,,,,,,,,,15,,64,72
14640,note_on,,0,0,15,,,,,,,,,,,,,,,,15,,67,72
14640,note_on,,0,0,15,,,,,,,,,,,,,,,,15,,45,72
14640,note_on,,1,0,9,,,,,,,,,,,,,,,,7,,61,72
14640,note_on,,1,0,6,,,,,,,,,,,,,,,,2,,45,72
14640,note_on,,1,0,14,,,,,,,,,,,,,,,,13,,45,72
14640,note_on,,1,0,13,,,,,,,,,,,,,,,,12,,61,72
14759,note_on,,0,0,15,,,,,,,,,,,,,,,,15,,67,0
14759,note_on,,0,0,15,,,,,,,,,,,,,,,,15,,64,0
14759,note_on,,0,0,15,,,,,,,,,,,,,,,,15,,73,0
14759,note_on,,119,0,15,,,,,,,,,,,,,,,,15,,55,0
14759,note_on,,119,0,13,,,,,,,,,,,,,,,,12,,61,0
14759,note_on,,239,0,5,,,,,,,,,,,,,,,,1,,79,0
14759,note_on,,119,0,9,,,,,,,,,,,,,,,,7,,61,0
14759,note_on,,119,0,10,,,,,,,,,,,,,,,,8,,45,0
14759,note_on,,239,0,11,,,,,,,,,,,,,,,,10,,79,0
14759,note_on,,119,0,8,,,,,,,,,,,,,,,,6,,64,0
14759,note_on,,119,0,12,,,,,,,,,,,,,,,,11,,64,0
14759,note_on,,239,0,7,,,,,,,,,,,,,,,,5,,79,0
14760,note_on,,0,0,15,,,,,,,,,,,,,,,,15,,62,72
14760,note_on,,0,0,15,,,,,,,,,,,,,,,,15,,66,72
14760,note_on,,0,0,15,,,,,,,,,,,,,,,,15,,57,72
14760,note_on,,1,0,15,,,,,,,,,,,,,,,,15,,74,72
14760,note_on,,1,0,8,,,,,,,,,,,,,,,,6,,62,72
14760,note_on,,1,0,12,,,,,,,,,,,,,,,,11,,62,72
14760,note_on,,1,0,11,,,,,,,,,,,,,,,,10,,78,72
14760,note_on,,1,0,5,,,,,,,,,,,,,,,,1,,78,72
14760,note_on,,1,0,7,,,,,,,,,,,,,,,,5,,78,72
14879,note_on,,239,0,14,,,,,,,,,,,,,,,,13,,45,0
14879,note_on,,239,0,6,,,,,,,,,,,,,,,,2,,45,0
14879,note_on,,119,0,15,,,,,,,,,,,,,,,,15,,45,0
14879,note_on,,0,0,15,,,,,,,,,,,,,,,,15,,74,0
14879,note_on,,0,0,15,,,,,,,,,,,,,,,,15,,66,0
14880,note_on,,121,0,13,,,,,,,,,,,,,,,,12,,69,72
14880,note_on,,1,0,14,,,,,,,,,,,,,,,,13,,45,72
14880,note_on,,121,0,9,,,,,,,,,,,,,,,,7,,69,72
14880,note_on,,121,0,10,,,,,,,,,,,,,,,,8,,57,72
14880,note_on,,0,0,15,,,,,,,,,,,,,,,,15,,69,72
14880,note_on,,1,0,6,,,,,,,,,,,,,,,,2,,45,72
14880,note_on,,0,0,15,,,,,,,,,,,,,,,,15,,66,72
14880,note_on,,1,0,15,,,,,,,,,,,,,,,,15,,45,72
14939,note_on,,0,0,15,,,,,,,,,,,,,,,,15,,62,0
14939,note_on,,59,0,15,,,,,,,,,,,,,,,,15,,57,0
14940,note_on,,1,0,15,,,,,,,,,,,,,,,,15,,62,72
14940,note_on,,0,0,15,,,,,,,,,,,,,,,,15,,59,72
14999,note_on,,239,0,8,,,,,,,,,,,,,,,,6,,62,0
14999,note_on,,239,0,5,,,,,,,,,,,,,,,,1,,78,0
14999,note_on,,239,0,11,,,,,,,,,,,,,,,,10,,78,0
14999,note_on,,239,0,7,,,,,,,,,,,,,,,,5,,78,0
14999,note_on,,239,0,12,,,,,,,,,,,,,,,,11,,62,0
14999,note_on,,59,0,15,,,,,,,,,,,,,,,,15,,66,0
14999,note_on,,0,0,15,,,,,,,,,,,,,,,,15,,62,0
14999,note_on,,0,0,15,,,,,,,,,,,,,,,,15,,59,0
15000,note_on,,1,0,7,,,,,,,,,,,,,,,,5,,76,72
15000,note_on,,1,0,12,,,,,,,,,,,,,,,,11,,61,72
15000,note_on,,1,0,8,,,,,,,,,,,,,,,,6,,61,72
15000,note_on,,1,0,5,,,,,,,,,,,,,,,,1,,76,72
15000,note_on,,1,0,11,,,,,,,,,,,,,,,,10,,76,72
15000,note_on,,1,0,15,,,,,,,,,,,,,,,,15,,61,72
15000,note_on,,0,0,15,,,,,,,,,,,,,,,,15,,64,72
15059,note_on,,59,0,15,,,,,,,,,,,,,,,,15,,61,0
15059,note_on,,0,0,15,,,,,,,,,,,,,,,,15,,64,0
15059,note_on,,179,0,13,,,,,,,,,,,,,,,,12,,69,0
15059,note_on,,179,0,9,,,,,,,,,,,,,,,,7,,69,0
15060,note_on,,1,0,15,,,,,,,,,,,,,,,,15,,67,72
15060,note_on,,0,0,15,,,,,,,,,,,,,,,,15,,64,72
15060,note_on,,1,0,9,,,,,,,,,,,,,,,,7,,67,72
15060,note_on,,1,0,13,,,,,,,,,,,,,,,,12,,67,72
15119,note_on,,59,0,9,,,,,,,,,,,,,,,,7,,67,0
15119,note_on,,119,0,12,,,,,,,,,,,,,,,,11,,61,0
15119,note_on,,59,0,13,,,,,,,,,,,,,,,,12,,67,0
15119,note_on,,119,0,8,,,,,,,,,,,,,,,,6,,61,0
15119,note_on,,0,0,15,,,,,,,,,,,,,,,,15,,64,0
15119,note_on,,59,0,15,,,,,,,,,,,,,,,,15,,67,0
15120,note_on,,1,0,8,,,,,,,,,,,,,,,,6,,69,72
15120,note_on,,0,0,15,,,,,,,,,,,,,,,,15,,57,72
15120,note_on,,1,0,15,,,,,,,,,,,,,,,,15,,66,72
15120,note_on,,1,0,13,,,,,,,,,,,,,,,,12,,66,72
15120,note_on,,1,0,12,,,,,,,,,,,,,,,,11,,69,72
15120,note_on,,1,0,9,,,,,,,,,,,,,,,,7,,66,72
15239,note_on,,0,0,15,,,,,,,,,,,,,,,,15,,66,0
15239,note_on,,0,0,15,,,,,,,,,,,,,,,,15,,57,0
15239,note_on,,119,0,15,,,,,,,,,,,,,,,,15,,69,0
15239,note_on,,239,0,11,,,,,,,,,,,,,,,,10,,76,0
15239,note_on,,239,0,7,,,,,,,,,,,,,,,,5,,76,0
15239,note_on,,239,0,5,,,,,,,,,,,,,,,,1,,76,0
15240,note_on,,1,0,7,,,,,,,,,,,,,,,,5,,74,72
15240,note_on,,1,0,11,,,,,,,,,,,,,,,,10,,74,72
15240,note_on,,1,0,15,,,,,,,,,,,,,,,,15,,54,72
15240,note_on,,0,0,15,,,,,,,,,,,,,,,,15,,74,72
15240,note_on,,1,0,5,,,,,,,,,,,,,,,,1,,74,72
15240,note_on,,0,0,15,,,,,,,,,,,,,,,,15,,62,72
15240,note_on,,0,0,15,,,,,,,,,,,,,,,,15,,69,72
15299,note_on,,179,0,9,,,,,,,,,,,,,,,,7,,66,0
15299,note_on,,179,0,13,,,,,,,,,,,,,,,,12,,66,0
15300,note_on,,1,0,13,,,,,,,,,,,,,,,,12,,67,72
15300,note_on,,1,0,9,,,,,,,,,,,,,,,,7,,67,72
15329,note_on,,29,0,9,,,,,,,,,,,,,,,,7,,67,0
15329,note_on,,29,0,13,,,,,,,,,,,,,,,,12,,67,0
15330,note_on,,1,0,9,,,,,,,,,,,,,,,,7,,66,72
15330,note_on,,1,0,13,,,,,,,,,,,,,,,,12,,66,72
15359,note_on,,119,0,5,,,,,,,,,,,,,,,,1,,74,0
15359,note_on,,0,0,15,,,,,,,,,,,,,,,,15,,74,0
15359,note_on,,29,0,13,,,,,,,,,,,,,,,,12,,66,0
15359,note_on,,239,0,12,,,,,,,,,,,,,,,,11,,69,0
15359,note_on,,0,0,15,,,,,,,,,,,,,,,,15,,62,0
15359,note_on,,0,0,15,,,,,,,,,,,,,,,,15,,69,0
15359,note_on,,239,0,8,,,,,,,,,,,,,,,,6,,69,0
15359,note_on,,119,0,7,,,,,,,,,,,,,,,,5,,74,0
15359,note_on,,119,0,11,,,,,,,,,,,,,,,,10,,74,0
15359,note_on,,119,0,15,,,,,,,,,,,,,,,,15,,54,0
15359,note_on,,29,0,9,,,,,,,,,,,,,,,,7,,66,0
15360,note_on,,1,0,9,,,,,,,,,,,,,,,,7,,64,72
15360,note_on,,1,0,13,,,,,,,,,,,,,,,,12,,64,72
15360,note_on,,1,0,12,,,,,,,,,,,,,,,,11,,67,72
15360,note_on,,1,0,8,,,,,,,,,,,,,,,,6,,67,72
15360,note_on,,1,0,7,,,,,,,,,,,,,,,,5,,73,72
15360,note_on,,1,0,11,,,,,,,,,,,,,,,,10,,73,72
15360,note_on,,0,0,15,,,,,,,,,,,,,,,,15,,73,72
15360,note_on,,0,0,15,,,,,,,,,,,,,,,,15,,67,72
15360,note_on,,1,0,5,,,,,,,,,,,,,,,,1,,73,72
15360,note_on,,1,0,15,,,,,,,,,,,,,,,,15,,52,72
15360,note_on,,0,0,15,,,,,,,,,,,,,,,,15,,76,72
15479,note_on,,119,0,9,,,,,,,,,,,,,,,,7,,64,0
15479,note_on,,119,0,11,,,,,,,,,,,,,,,,10,,73,0
15479,note_on,,119,0,7,,,,,,,,,,,,,,,,5,,73,0
15479,note_on,,119,0,15,,,,,,,,,,,,,,,,15,,52,0
15479,note_on,,0,0,15,,,,,,,,,,,,,,,,15,,76,0
15479,note_on,,0,0,15,,,,,,,,,,,,,,,,15,,73,0
15479,note_on,,119,0,12,,,,,,,,,,,,,,,,11,,67,0
15479,note_on,,0,0,15,,,,,,,,,,,,,,,,15,,67,0
15479,note_on,,119,0,13,,,,,,,,,,,,,,,,12,,64,0
15479,note_on,,119,0,8,,,,,,,,,,,,,,,,6,,67,0
15479,note_on,,119,0,5,,,,,,,,,,,,,,,,1,,73,0
15480,note_on,,0,0,15,,,,,,,,,,,,,,,,15,,69,72
15480,note_on,,1,0,11,,,,,,,,,,,,,,,,10,,74,72
15480,note_on,,1,0,9,,,,,,,,,,,,,,,,7,,57,72
15480,note_on,,0,0,15,,,,,,,,,,,,,,,,15,,74,72
15480,note_on,,1,0,5,,,,,,,,,,,,,,,,1,,74,72
15480,note_on,,1,0,8,,,,,,,,,,,,,,,,6,,66,72
15480,note_on,,1,0,15,,,,,,,,,,,,,,,,15,,50,72
15480,note_on,,1,0,12,,,,,,,,,,,,,,,,11,,66,72
15480,note_on,,0,0,15,,,,,,,,,,,,,,,,15,,78,72
15480,note_on,,1,0,7,,,,,,,,,,,,,,,,5,,74,72
15480,note_on,,1,0,13,,,,,,,,,,,,,,,,12,,57,72
15599,note_on,,0,0,15,,,,,,,,,,,,,,,,15,,69,0
15599,note_on,,0,0,15,,,,,,,,,,,,,,,,15,,74,0
15599,note_on,,119,0,12,,,,,,,,,,,,,,,,11,,66,0
15599,note_on,,0,0,15,,,,,,,,,,,,,,,,15,,78,0
15599,note_on,,119,0,8,,,,,,,,,,,,,,,,6,,66,0
15599,note_on,,119,0,15,,,,,,,,,,,,,,,,15,,50,0
15600,note_on,,1,0,8,,,,,,,,,,,,,,,,6,,64,72
15600,note_on,,1,0,15,,,,,,,,,,,,,,,,15,,57,72
15600,note_on,,1,0,12,,,,,,,,,,,,,,,,11,,64,72
15600,note_on,,0,0,15,,,,,,,,,,,,,,,,15,,69,72
15600,note_on,,0,0,15,,,,,,,,,,,,,,,,15,,74,72
15600,note_on,,0,0,15,,,,,,,,,,,,,,,,15,,76,72
15719,note_on,,239,0,9,,,,,,,,,,,,,,,,7,,57,0
15719,note_on,,239,0,11,,,,,,,,,,,,,,,,10,,74,0
15719,note_on,,0,0,15,,,,,,,,,,,,,,,,15,,69,0
15719,note_on,,0,0,15,,,,,,,,,,,,,,,,15,,74,0
15719,note_on,,239,0,13,,,,,,,,,,,,,,,,12,,57,0
15719,note_on,,839,0,10,,,,,,,,,,,,,,,,8,,57,0
15719,note_on,,239,0,7,,,,,,,,,,,,,,,,5,,74,0
15719,note_on,,839,0,6,,,,,,,,,,,,,,,,2,,45,0
15719,note_on,,239,0,5,,,,,,,,,,,,,,,,1,,74,0
15719,note_on,,839,0,14,,,,,,,,,,,,,,,,13,,45,0
15719,note_on,,119,0,15,,,,,,,,,,,,,,,,15,,45,0
15720,note_on,,0,0,15,,,,,,,,,,,,,,,,15,,69,72
15720,note_on,,1,0,14,,,,,,,,,,,,,,,,13,,45,72
15720,note_on,,0,0,15,,,,,,,,,,,,,,,,15,,64,72
15720,note_on,,1,0,10,,,,,,,,,,,,,,,,8,,45,72
15720,note_on,,1,0,9,,,,,,,,,,,,,,,,7,,57,72
15720,note_on,,1,0,11,,,,,,,,,,,,,,,,10,,73,72
15720,note_on,,1,0,7,,,,,,,,,,,,,,,,5,,73,72
15720,note_on,,1,0,15,,,,,,,,,,,,,,,,15,,45,72
15720,note_on,,1,0,6,,,,,,,,,,,,,,,,2,,45,72
15720,note_on,,0,0,15,,,,,,,,,,,,,,,,15,,73,72
15720,note_on,,1,0,5,,,,,,,,,,,,,,,,1,,73,72
15720,note_on,,1,0,13,,,,,,,,,,,,,,,,12,,57,72
15779,note_on,,179,0,8,,,,,,,,,,,,,,,,6,,64,0
15779,note_on,,179,0,12,,,,,,,,,,,,,,,,11,,64,0
15780,note_on,,1,0,12,,,,,,,,,,,,,,,,11,,64,72
15780,note_on,,1,0,8,,,,,,,,,,,,,,,,6,,64,72
15839,note_on,,119,0,15,,,,,,,,,,,,,,,,15,,57,0
15839,note_on,,119,0,13,,,,,,,,,,,,,,,,12,,57,0
15839,note_on,,119,0,6,,,,,,,,,,,,,,,,2,,45,0
15839,note_on,,0,0,15,,,,,,,,,,,,,,,,15,,73,0
15839,note_on,,0,0,15,,,,,,,,,,,,,,,,15,,45,0
15839,note_on,,0,0,15,,,,,,,,,,,,,,,,15,,76,0
15839,note_on,,119,0,7,,,,,,,,,,,,,,,,5,,73,0
15839,note_on,,119,0,9,,,,,,,,,,,,,,,,7,,57,0
15839,note_on,,119,0,5,,,,,,,,,,,,,,,,1,,73,0
15839,note_on,,119,0,14,,,,,,,,,,,,,,,,13,,45,0
15839,note_on,,119,0,10,,,,,,,,,,,,,,,,8,,45,0
15839,note_on,,119,0,11,,,,,,,,,,,,,,,,10,,73,0
15839,note_on,,0,0,15,,,,,,,,,,,,,,,,15,,64,0
15839,note_on,,0,0,15,,,,,,,,,,,,,,,,15,,69,0
15839,note_on,,59,0,12,,,,,,,,,,,,,,,,11,,64,0
15839,note_on,,59,0,8,,,,,,,,,,,,,,,,6,,64,0
15840,note_on,,1,0,12,,,,,,,,,,,,,,,,11,,66,72
15840,note_on,,1,0,13,,,,,,,,,,,,,,,,12,,57,72
15840,note_on,,0,0,15,,,,,,,,,,,,,,,,15,,57,72
15840,note_on,,1,0,7,,,,,,,,,,,,,,,,5,,74,72
15840,note_on,,1,0,14,,,,,,,,,,,,,,,,13,,50,72
15840,note_on,,1,0,11,,,,,,,,,,,,,,,,10,,74,72
15840,note_on,,1,0,10,,,,,,,,,,,,,,,,8,,50,72
15840,note_on,,1,0,8,,,,,,,,,,,,,,,,6,,66,72
15840,note_on,,1,0,6,,,,,,,,,,,,,,,,2,,50,72
15840,note_on,,0,0,15,,,,,,,,,,,,,,,,15,,66,72
15840,note_on,,0,0,15,,,,,,,,,,,,,,,,15,,69,72
15840,note_on,,0,0,15,,,,,,,,,,,,,,,,15,,74,72
15840,note_on,,1,0,15,,,,,,,,,,,,,,,,15,,50,72
15840,note_on,,1,0,9,,,,,,,,,,,,,,,,7,,57,72
15840,note_on,,1,0,5,,,,,,,,,,,,,,,,1,,74,72
15959,note_on,,119,0,6,,,,,,,,,,,,,,,,2,,50,0
15959,note_on,,119,0,15,,,,,,,,,,,,,,,,15,,50,0
15959,note_on,,0,0,15,,,,,,,,,,,,,,,,15,,74,0
15959,note_on,,0,0,15,,,,,,,,,,,,,,,,15,,57,0
15959,note_on,,119,0,14,,,,,,,,,,,,,,,,13,,50,0
15959,note_on,,119,0,13,,,,,,,,,,,,,,,,12,,57,0
15959,note_on,,0,0,15,,,,,,,,,,,,,,,,15,,69,0
15959,note_on,,0,0,15,,,,,,,,,,,,,,,,15,,66,0
15959,note_on,,119,0,11,,,,,,,,,,,,,,,,10,,74,0
15959,note_on,,119,0,12,,,,,,,,,,,,,,,,11,,66,0
16020,note_on,,0,0,15,,,,,,,,,,,,,,,,15,,62,72
16020,note_on,,0,0,15,,,,,,,,,,,,,,,,15,,57,72
16020,note_on,,61,0,15,,,,,,,,,,,,,,,,15,,50,72
16020,note_on,,61,0,6,,,,,,,,,,,,,,,,2,,50,72
16020,note_on,,0,0,15,,,,,,,,,,,,,,,,15,,66,72
16020,note_on,,61,0,11,,,,,,,,,,,,,,,,10,,81,72
16020,note_on,,61,0,13,,,,,,,,,,,,,,,,12,,69,72
16020,note_on,,61,0,12,,,,,,,,,,,,,,,,11,,78,72
16020,note_on,,61,0,14,,,,,,,,,,,,,,,,13,,50,72
16079,note_on,,59,0,11,,,,,,,,,,,,,,,,10,,81,0
16079,note_on,,59,0,13,,,,,,,,,,,,,,,,12,,69,0
16079,note_on,,0,0,15,,,,,,,,,,,,,,,,15,,57,0
16079,note_on,,0,0,15,,,,,,,,,,,,,,,,15,,62,0
16079,note_on,,0,0,15,,,,,,,,,,,,,,,,15,,66,0
16079,note_on,,59,0,6,,,,,,,,,,,,,,,,2,,50,0
16079,note_on,,59,0,15,,,,,,,,,,,,,,,,15,,50,0
16079,note_on,,59,0,14,,,,,,,,,,,,,,,,13,,50,0
16079,note_on,,59,0,12,,,,,,,,,,,,,,,,11,,78,0
16080,note_on,,1,0,12,,,,,,,,,,,,,,,,11,,81,72
16080,note_on,,1,0,6,,,,,,,,,,,,,,,,2,,54,72
16080,note_on,,1,0,14,,,,,,,,,,,,,,,,13,,54,72
16080,note_on,,1,0,11,,,,,,,,,,,,,,,,10,,86,72
16080,note_on,,1,0,13,,,,,,,,,,,,,,,,12,,69,72
16080,note_on,,1,0,15,,,,,,,,,,,,,,,,15,,54,72
16080,note_on,,0,0,15,,,,,,,,,,,,,,,,15,,69,72
16080,note_on,,0,0,15,,,,,,,,,,,,,,,,15,,62,72
16080,note_on,,0,0,15,,,,,,,,,,,,,,,,15,,57,72
16199,note_on,,119,0,14,,,,,,,,,,,,,,,,13,,54,0
16199,note_on,,119,0,12,,,,,,,,,,,,,,,,11,,81,0
16199,note_on,,0,0,15,,,,,,,,,,,,,,,,15,,62,0
16199,note_on,,0,0,15,,,,,,,,,,,,,,,,15,,69,0
16199,note_on,,119,0,15,,,,,,,,,,,,,,,,15,,54,0
16199,note_on,,0,0,15,,,,,,,,,,,,,,,,15,,57,0
16199,note_on,,119,0,13,,,,,,,,,,,,,,,,12,,69,0
16199,note_on,,119,0,11,,,,,,,,,,,,,,,,10,,86,0
16199,note_on,,119,0,6,,,,,,,,,,,,,,,,2,,54,0
16200,note_on,,1,0,15,,,,,,,,,,,,,,,,15,,50,72
16200,note_on,,0,0,15,,,,,,,,,,,,,,,,15,,57,72
16200,note_on,,0,0,15,,,,,,,,,,,,,,,,15,,78,72
16200,note_on,,0,0,15,,,,,,,,,,,,,,,,15,,74,72
16200,note_on,,1,0,12,,,,,,,,,,,,,,,,11,,78,72
16200,note_on,,1,0,13,,,,,,,,,,,,,,,,12,,74,72
16200,note_on,,0,0,15,,,,,,,,,,,,,,,,15,,69,72
16200,note_on,,1,0,6,,,,,,,,,,,,,,,,2,,50,72
16200,note_on,,1,0,14,,,,,,,,,,,,,,,,13,,50,72
16200,note_on,,1,0,11,,,,,,,,,,,,,,,,10,,81,72
16319,note_on,,119,0,15,,,,,,,,,,,,,,,,15,,50,0
16319,note_on,,0,0,15,,,,,,,,,,,,,,,,15,,57,0
16319,note_on,,0,0,15,,,,,,,,,,,,,,,,15,,78,0
16319,note_on,,0,0,15,,,,,,,,,,,,,,,,15,,74,0
16319,note_on,,0,0,15,,,,,,,,,,,,,,,,15,,69,0
16319,note_on,,479,0,8,,,,,,,,,,,,,,,,6,,66,0
16319,end_of_track,,0,1,10,,,,,,,,,,,,,,,,,,,
16319,note_on,,119,0,6,,,,,,,,,,,,,,,,2,,50,0
16319,note_on,,119,0,12,,,,,,,,,,,,,,,,11,,78,0
16319,end_of_track,,0,1,5,,,,,,,,,,,,,,,,,,,
16319,note_on,,479,0,5,,,,,,,,,,,,,,,,1,,74,0
16319,end_of_track,,0,1,8,,,,,,,,,,,,,,,,,,,
16319,note_on,,479,0,10,,,,,,,,,,,,,,,,8,,50,0
16319,note_on,,119,0,14,,,,,,,,,,,,,,,,13,,50,0
16319,note_on,,119,0,13,,,,,,,,,,,,,,,,12,,74,0
16319,note_on,,479,0,7,,,,,,,,,,,,,,,,5,,74,0
16319,end_of_track,,0,1,7,,,,,,,,,,,,,,,,,,,
16319,note_on,,119,0,11,,,,,,,,,,,,,,,,10,,81,0
16319,note_on,,479,0,9,,,,,,,,,,,,,,,,7,,57,0
16319,end_of_track,,0,1,9,,,,,,,,,,,,,,,,,,,
16320,note_on,,1,0,15,,,,,,,,,,,,,,,,15,,55,72
16320,note_on,,1,0,14,,,,,,,,,,,,,,,,13,,55,72
16320,note_on,,1,0,13,,,,,,,,,,,,,,,,12,,71,72
16320,note_on,,1,0,12,,,,,,,,,,,,,,,,11,,74,72
16320,note_on,,1,0,11,,,,,,,,,,,,,,,,10,,83,72
16320,note_on,,0,0,15,,,,,,,,,,,,,,,,15,,74,72
16320,note_on,,0,0,15,,,,,,,,,,,,,,,,15,,71,72
16320,note_on,,0,0,15,,,,,,,,,,,,,,,,15,,59,72
16320,note_on,,1,0,6,,,,,,,,,,,,,,,,2,,55,72
16320,note_on,,0,0,15,,,,,,,,,,,,,,,,15,,67,72
16439,note_on,,119,0,15,,,,,,,,,,,,,,,,15,,55,0
16439,note_on,,0,0,15,,,,,,,,,,,,,,,,15,,59,0
16439,note_on,,0,0,15,,,,,,,,,,,,,,,,15,,74,0
16439,note_on,,0,0,15,,,,,,,,,,,,,,,,15,,71,0
16439,note_on,,0,0,15,,,,,,,,,,,,,,,,15,,67,0
16439,note_on,,119,0,13,,,,,,,,,,,,,,,,12,,71,0
16439,note_on,,119,0,12,,,,,,,,,,,,,,,,11,,74,0
16439,note_on,,119,0,6,,,,,,,,,,,,,,,,2,,55,0
16439,note_on,,119,0,14,,,,,,,,,,,,,,,,13,,55,0
16439,note_on,,119,0,11,,,,,,,,,,,,,,,,10,,83,0
16440,note_on,,1,0,12,,,,,,,,,,,,,,,,11,,73,72
16440,note_on,,1,0,6,,,,,,,,,,,,,,,,2,,57,72
16440,note_on,,0,0,15,,,,,,,,,,,,,,,,15,,61,72
16440,note_on,,1,0,14,,,,,,,,,,,,,,,,13,,57,72
16440,note_on,,0,0,15,,,,,,,,,,,,,,,,15,,69,72
16440,note_on,,1,0,13,,,,,,,,,,,,,,,,12,,64,72
16440,note_on,,1,0,15,,,,,,,,,,,,,,,,15,,57,72
16440,note_on,,0,0,15,,,,,,,,,,,,,,,,15,,73,72
16440,note_on,,0,0,15,,,,,,,,,,,,,,,,15,,64,72
16440,note_on,,1,0,11,,,,,,,,,,,,,,,,10,,81,72
16499,note_on,,59,0,12,,,,,,,,,,,,,,,,11,,73,0
16499,note_on,,0,0,15,,,,,,,,,,,,,,,,15,,61,0
16499,note_on,,59,0,13,,,,,,,,,,,,,,,,12,,64,0
16499,note_on,,59,0,15,,,,,,,,,,,,,,,,15,,57,0
16499,note_on,,59,0,6,,,,,,,,,,,,,,,,2,,57,0
16499,note_on,,0,0,15,,,,,,,,,,,,,,,,15,,69,0
16499,note_on,,59,0,14,,,,,,,,,,,,,,,,13,,57,0
16499,note_on,,59,0,11,,,,,,,,,,,,,,,,10,,81,0
16500,note_on,,0,0,15,,,,,,,,,,,,,,,,15,,61,72
16500,note_on,,1,0,13,,,,,,,,,,,,,,,,12,,64,72
16500,note_on,,1,0,15,,,,,,,,,,,,,,,,15,,57,72
16500,note_on,,1,0,11,,,,,,,,,,,,,,,,10,,79,72
16500,note_on,,1,0,12,,,,,,,,,,,,,,,,11,,73,72
16500,note_on,,1,0,14,,,,,,,,,,,,,,,,13,,57,72
16500,note_on,,1,0,6,,,,,,,,,,,,,,,,2,,57,72
16500,note_on,,0,0,15,,,,,,,,,,,,,,,,15,,67,72
16559,note_on,,59,0,15,,,,,,,,,,,,,,,,15,,73,0
16559,note_on,,0,0,15,,,,,,,,,,,,,,,,15,,64,0
16559,note_on,,0,0,15,,,,,,,,,,,,,,,,15,,57,0
16559,note_on,,59,0,14,,,,,,,,,,,,,,,,13,,57,0
16559,note_on,,0,0,15,,,,,,,,,,,,,,,,15,,61,0
16559,note_on,,0,0,15,,,,,,,,,,,,,,,,15,,67,0
16559,note_on,,59,0,11,,,,,,,,,,,,,,,,10,,79,0
16559,note_on,,59,0,12,,,,,,,,,,,,,,,,11,,73,0
16559,note_on,,59,0,13,,,,,,,,,,,,,,,,12,,64,0
16559,note_on,,59,0,6,,,,,,,,,,,,,,,,2,,57,0
16560,note_on,,0,0,15,,,,,,,,,,,,,,,,15,,62,72
16560,note_on,,0,0,15,,,,,,,,,,,,,,,,15,,66,72
16560,note_on,,0,0,15,,,,,,,,,,,,,,,,15,,74,72
16560,note_on,,1,0,15,,,,,,,,,,,,,,,,15,,59,72
16560,note_on,,1,0,6,,,,,,,,,,,,,,,,2,,59,72
16560,note_on,,1,0,11,,,,,,,,,,,,,,,,10,,78,72
16560,note_on,,1,0,12,,,,,,,,,,,,,,,,11,,74,72
16560,note_on,,1,0,13,,,,,,,,,,,,,,,,12,,62,72
16560,note_on,,1,0,14,,,,,,,,,,,,,,,,13,,59,72
16619,note_on,,59,0,11,,,,,,,,,,,,,,,,10,,78,0
16619,note_on,,59,0,13,,,,,,,,,,,,,,,,12,,62,0
16620,note_on,,1,0,11,,,,,,,,,,,,,,,,10,,76,72
16620,note_on,,1,0,13,,,,,,,,,,,,,,,,12,,59,72
16679,note_on,,0,0,15,,,,,,,,,,,,,,,,15,,62,0
16679,note_on,,59,0,11,,,,,,,,,,,,,,,,10,,76,0
16679,note_on,,119,0,12,,,,,,,,,,,,,,,,11,,74,0
16679,note_on,,0,0,15,,,,,,,,,,,,,,,,15,,66,0
16679,note_on,,59,0,13,,,,,,,,,,,,,,,,12,,59,0
16679,note_on,,119,0,15,,,,,,,,,,,,,,,,15,,74,0
16680,note_on,,1,0,11,,,,,,,,,,,,,,,,10,,79,72
16680,note_on,,1,0,13,,,,,,,,,,,,,,,,12,,64,72
16680,note_on,,1,0,12,,,,,,,,,,,,,,,,11,,73,72
16680,note_on,,1,0,15,,,,,,,,,,,,,,,,15,,73,72
16680,note_on,,0,0,15,,,,,,,,,,,,,,,,15,,67,72
16680,note_on,,0,0,15,,,,,,,,,,,,,,,,15,,64,72
16739,note_on,,59,0,13,,,,,,,,,,,,,,,,12,,64,0
16739,note_on,,59,0,15,,,,,,,,,,,,,,,,15,,73,0
16739,note_on,,0,0,15,,,,,,,,,,,,,,,,15,,67,0
16739,note_on,,0,0,15,,,,,,,,,,,,,,,,15,,64,0
16739,note_on,,59,0,12,,,,,,,,,,,,,,,,11,,73,0
16740,note_on,,1,0,15,,,,,,,,,,,,,,,,15,,71,72
16740,note_on,,0,0,15,,,,,,,,,,,,,,,,15,,66,72
16740,note_on,,0,0,15,,,,,,,,,,,,,,,,15,,62,72
16740,note_on,,1,0,13,,,,,,,,,,,,,,,,12,,62,72
16740,note_on,,1,0,12,,,,,,,,,,,,,,,,11,,71,72
16799,note_on,,239,0,14,,,,,,,,,,,,,,,,13,,59,0
16799,note_on,,59,0,13,,,,,,,,,,,,,,,,12,,62,0
16799,note_on,,59,0,12,,,,,,,,,,,,,,,,11,,71,0
16799,note_on,,239,0,6,,,,,,,,,,,,,,,,2,,59,0
16799,note_on,,59,0,15,,,,,,,,,,,,,,,,15,,59,0
16799,note_on,,0,0,15,,,,,,,,,,,,,,,,15,,71,0
16799,note_on,,0,0,15,,,,,,,,,,,,,,,,15,,66,0
16799,note_on,,0,0,15,,,,,,,,,,,,,,,,15,,62,0
16800,note_on,,0,0,15,,,,,,,,,,,,,,,,15,,64,72
16800,note_on,,0,0,15,,,,,,,,,,,,,,,,15,,67,72
16800,note_on,,0,0,15,,,,,,,,,,,,,,,,15,,69,72
16800,note_on,,1,0,13,,,,,,,,,,,,,,,,12,,69,72
16800,note_on,,1,0,15,,,,,,,,,,,,,,,,15,,61,72
16800,note_on,,1,0,6,,,,,,,,,,,,,,,,2,,61,72
16800,note_on,,1,0,14,,,,,,,,,,,,,,,,13,,61,72
16800,note_on,,1,0,12,,,,,,,,,,,,,,,,11,,76,72
16919,note_on,,119,0,15,,,,,,,,,,,,,,,,15,,61,0
16919,note_on,,239,0,11,,,,,,,,,,,,,,,,10,,79,0
16919,note_on,,0,0,15,,,,,,,,,,,,,,,,15,,64,0
16919,note_on,,119,0,6,,,,,,,,,,,,,,,,2,,61,0
16919,note_on,,119,0,14,,,,,,,,,,,,,,,,13,,61,0
16919,note_on,,0,0,15,,,,,,,,,,,,,,,,15,,67,0
16919,note_on,,119,0,12,,,,,,,,,,,,,,,,11,,76,0
16919,note_on,,0,0,15,,,,,,,,,,,,,,,,15,,69,0
16920,note_on,,1,0,12,,,,,,,,,,,,,,,,11,,74,72
16920,note_on,,1,0,15,,,,,,,,,,,,,,,,15,,62,72
16920,note_on,,1,0,11,,,,,,,,,,,,,,,,10,,78,72
16920,note_on,,0,0,15,,,,,,,,,,,,,,,,15,,69,72
16920,note_on,,0,0,15,,,,,,,,,,,,,,,,15,,66,72
16920,note_on,,0,0,15,,,,,,,,,,,,,,,,15,,74,72
16920,note_on,,1,0,14,,,,,,,,,,,,,,,,13,,62,72
16920,note_on,,1,0,6,,,,,,,,,,,,,,,,2,,62,72
17039,note_on,,119,0,15,,,,,,,,,,,,,,,,15,,62,0
17039,note_on,,0,0,15,,,,,,,,,,,,,,,,15,,66,0
17039,note_on,,119,0,14,,,,,,,,,,,,,,,,13,,62,0
17039,note_on,,119,0,6,,,,,,,,,,,,,,,,2,,62,0
17039,note_on,,119,0,11,,,,,,,,,,,,,,,,10,,78,0
17039,note_on,,239,0,13,,,,,,,,,,,,,,,,12,,69,0
17040,note_on,,1,0,6,,,,,,,,,,,,,,,,2,,57,72
17040,note_on,,1,0,11,,,,,,,,,,,,,,,,10,,76,72
17040,note_on,,1,0,13,,,,,,,,,,,,,,,,12,,69,72
17040,note_on,,1,0,14,,,,,,,,,,,,,,,,13,,57,72
17040,note_on,,0,0,15,,,,,,,,,,,,,,,,15,,64,72
17040,note_on,,1,0,15,,,,,,,,,,,,,,,,15,,57,72
17054,note_on,,14,0,11,,,,,,,,,,,,,,,,10,,76,0
17055,note_on,,1,0,11,,,,,,,,,,,,,,,,10,,78,72
17069,note_on,,14,0,11,,,,,,,,,,,,,,,,10,,78,0
17070,note_on,,1,0,11,,,,,,,,,,,,,,,,10,,76,72
17084,note_on,,14,0,11,,,,,,,,,,,,,,,,10,,76,0
17085,note_on,,1,0,11,,,,,,,,,,,,,,,,10,,78,72
17099,note_on,,14,0,11,,,,,,,,,,,,,,,,10,,78,0
17100,note_on,,1,0,11,,,,,,,,,,,,,,,,10,,76,72
17114,note_on,,14,0,11,,,,,,,,,,,,,,,,10,,76,0
17115,note_on,,1,0,11,,,,,,,,,,,,,,,,10,,78,72
17129,note_on,,14,0,11,,,,,,,,,,,,,,,,10,,78,0
17130,note_on,,1,0,11,,,,,,,,,,,,,,,,10,,76,72
17144,note_on,,14,0,11,,,,,,,,,,,,,,,,10,,76,0
17145,note_on,,1,0,11,,,,,,,,,,,,,,,,10,,78,72
17159,note_on,,119,0,6,,,,,,,,,,,,,,,,2,,57,0
17159,note_on,,14,0,11,,,,,,,,,,,,,,,,10,,78,0
17159,note_on,,0,0,15,,,,,,,,,,,,,,,,15,,57,0
17159,note_on,,0,0,15,,,,,,,,,,,,,,,,15,,69,0
17159,note_on,,119,0,14,,,,,,,,,,,,,,,,13,,57,0
17159,note_on,,119,0,13,,,,,,,,,,,,,,,,12,,69,0
17159,note_on,,119,0,15,,,,,,,,,,,,,,,,15,,74,0
17159,note_on,,239,0,12,,,,,,,,,,,,,,,,11,,74,0
17160,note_on,,1,0,13,,,,,,,,,,,,,,,,12,,64,72
17160,note_on,,0,0,15,,,,,,,,,,,,,,,,15,,57,72
17160,note_on,,0,0,15,,,,,,,,,,,,,,,,15,,69,72
17160,note_on,,1,0,6,,,,,,,,,,,,,,,,2,,45,72
17160,note_on,,1,0,15,,,,,,,,,,,,,,,,15,,45,72
17160,note_on,,0,0,15,,,,,,,,,,,,,,,,15,,73,72
17160,note_on,,1,0,11,,,,,,,,,,,,,,,,10,,76,72
17160,note_on,,1,0,12,,,,,,,,,,,,,,,,11,,73,72
17160,note_on,,1,0,14,,,,,,,,,,,,,,,,13,,45,72
17174,note_on,,14,0,11,,,,,,,,,,,,,,,,10,,76,0
17175,note_on,,1,0,11,,,,,,,,,,,,,,,,10,,78,72
17189,note_on,,14,0,11,,,,,,,,,,,,,,,,10,,78,0
17190,note_on,,1,0,11,,,,,,,,,,,,,,,,10,,74,72
17204,note_on,,14,0,11,,,,,,,,,,,,,,,,10,,74,0
17205,note_on,,1,0,11,,,,,,,,,,,,,,,,10,,76,72
17219,note_on,,14,0,11,,,,,,,,,,,,,,,,10,,76,0
17220,note_on,,1,0,11,,,,,,,,,,,,,,,,10,,74,72
17279,note_on,,0,0,15,,,,,,,,,,,,,,,,15,,45,0
17279,note_on,,0,0,15,,,,,,,,,,,,,,,,15,,69,0
17279,note_on,,119,0,6,,,,,,,,,,,,,,,,2,,45,0
17279,note_on,,59,0,11,,,,,,,,,,,,,,,,10,,74,0
17279,note_on,,0,0,15,,,,,,,,,,,,,,,,15,,73,0
17279,note_on,,119,0,12,,,,,,,,,,,,,,,,11,,73,0
17279,note_on,,0,0,15,,,,,,,,,,,,,,,,15,,57,0
17279,note_on,,119,0,13,,,,,,,,,,,,,,,,12,,64,0
17279,note_on,,119,0,14,,,,,,,,,,,,,,,,13,,45,0
17279,note_on,,119,0,15,,,,,,,,,,,,,,,,15,,64,0
17280,note_on,,1,0,14,,,,,,,,,,,,,,,,13,,50,72
17280,note_on,,1,0,6,,,,,,,,,,,,,,,,2,,50,72
17280,note_on,,1,0,11,,,,,,,,,,,,,,,,10,,74,72
17280,note_on,,1,0,13,,,,,,,,,,,,,,,,12,,66,72
17280,note_on,,1,0,12,,,,,,,,,,,,,,,,11,,74,72
17280,note_on,,0,0,15,,,,,,,,,,,,,,,,15,,66,72
17280,note_on,,0,0,15,,,,,,,,,,,,,,,,15,,69,72
17280,note_on,,0,0,15,,,,,,,,,,,,,,,,15,,74,72
17280,note_on,,1,0,15,,,,,,,,,,,,,,,,15,,50,72
17280,note_on,,0,0,15,,,,,,,,,,,,,,,,15,,57,72
17759,note_on,,0,0,15,,,,,,,,,,,,,,,,15,,74,0
17759,note_on,,0,0,15,,,,,,,,,,,,,,,,15,,69,0
17759,note_on,,0,0,15,,,,,,,,,,,,,,,,15,,66,0
17759,note_on,,479,0,15,,,,,,,,,,,,,,,,15,,50,0
17759,note_on,,479,0,6,,,,,,,,,,,,,,,,2,,50,0
17759,note_on,,479,0,13,,,,,,,,,,,,,,,,12,,66,0
17759,end_of_track,,0,1,6,,,,,,,,,,,,,,,,,,,
17759,note_on,,479,0,14,,,,,,,,,,,,,,,,13,,50,0
17759,end_of_track,,0,1,14,,,,,,,,,,,,,,,,,,,
17759,end_of_track,,0,1,12,,,,,,,,,,,,,,,,,,,
17759,note_on,,479,0,12,,,,,,,,,,,,,,,,11,,74,0
17759,note_on,,479,0,11,,,,,,,,,,,,,,,,10,,74,0
17759,end_of_track,,0,1,11,,,,,,,,,,,,,,,,,,,
17759,note_on,,0,0,15,,,,,,,,,,,,,,,,15,,57,0
17759,end_of_track,,0,1,13,,,,,,,,,,,,,,,,,,,
17759,end_of_track,,0,1,15,,,,,,,,,,,,,,,,,,,
18720,end_of_track,,0,1,0,,,,,,,,,,,,,,,,,,,
18720,set_tempo,,18720,1,0,,,,,,,,,500000,,,,,,,,,,
