tick,type,data,time,meta,track,frame_rate,hours,minutes,seconds,frames,sub_frames,port,key,tempo,numerator,denominator,clocks_per_click,notated_32nd_notes_per_beat,control,value,channel,program,note,velocity
0,sequencer_specific,"(0, 0, 91, 35, 1, 0, 5, 4, 35, 0)",0,1,0,,,,,,,,,,,,,,,,,,,
0,control_change,,0,0,13,,,,,,,,,,,,,,10,80,12,,,
0,control_change,,0,0,13,,,,,,,,,,,,,,7,96,12,,,
0,program_change,,0,0,13,,,,,,,,,,,,,,,,12,48,,
0,note_on,,0,0,13,,,,,,,,,,,,,,,,12,,67,72
0,program_change,,0,0,7,,,,,,,,,,,,,,,,5,73,,
0,control_change,,0,0,7,,,,,,,,,,,,,,7,96,5,,,
0,control_change,,0,0,7,,,,,,,,,,,,,,10,32,5,,,
0,control_change,,0,0,7,,,,,,,,,,,,,,11,127,5,,,
0,midi_port,,0,1,7,,,,,,,0,,,,,,,,,,,,
0,track_name,,0,1,7,,,,,,,,,,,,,,,,,,,
0,track_name,,0,1,14,,,,,,,,,,,,,,,,,,,
0,midi_port,,0,1,14,,,,,,,0,,,,,,,,,,,,
0,control_change,,0,0,14,,,,,,,,,,,,,,11,127,13,,,
0,control_change,,0,0,14,,,,,,,,,,,,,,10,96,13,,,
0,control_change,,0,0,14,,,,,,,,,,,,,,7,96,13,,,
0,program_change,,0,0,14,,,,,,,,,,,,,,,,13,48,,
0,note_on,,0,0,14,,,,,,,,,,,,,,,,13,,67,72
0,midi_port,,0,1,9,,,,,,,0,,,,,,,,,,,,
0,track_name,,0,1,15,,,,,,,,,,,,,,,,,,,
0,midi_port,,0,1,15,,,,,,,0,,,,,,,,,,,,
0,control_change,,0,0,15,,,,,,,,,,,,,,11,127,15,,,
0,control_change,,0,0,15,,,,,,,,,,,,,,10,90,15,,,
0,control_change,,0,0,15,,,,,,,,,,,,,,7,96,15,,,
0,program_change,,0,0,15,,,,,,,,,,,,,,,,15,6,,
0,note_on,,0,0,15,,,,,,,,,,,,,,,,15,,67,72
0,program_change,,0,0,6,,,,,,,,,,,,,,,,2,70,,
0,control_change,,0,0,6,,,,,,,,,,,,,,7,80,2,,,
0,control_change,,0,0,6,,,,,,,,,,,,,,10,65,2,,,
0,control_change,,0,0,6,,,,,,,,,,,,,,11,127,2,,,
0,control_change,,0,0,13,,,,,,,,,,,,,,11,127,12,,,
0,midi_port,,0,1,6,,,,,,,0,,,,,,,,,,,,
0,midi_port,,0,1,13,,,,,,,0,,,,,,,,,,,,
0,program_change,,0,0,12,,,,,,,,,,,,,,,,11,48,,
0,control_change,,0,0,9,,,,,,,,,,,,,,11,127,7,,,
0,control_change,,0,0,9,,,,,,,,,,,,,,10,48,7,,,
0,control_change,,0,0,9,,,,,,,,,,,,,,7,88,7,,,
0,program_change,,0,0,9,,,,,,,,,,,,,,,,7,70,,
0,note_on,,0,0,9,,,,,,,,,,,,,,,,7,,67,72
0,program_change,,0,0,8,,,,,,,,,,,,,,,,6,73,,
0,control_change,,0,0,8,,,,,,,,,,,,,,10,96,6,,,
0,control_change,,0,0,8,,,,,,,,,,,,,,7,96,6,,,
0,control_change,,0,0,8,,,,,,,,,,,,,,11,127,6,,,
0,midi_port,,0,1,8,,,,,,,0,,,,,,,,,,,,
0,track_name,,0,1,8,,,,,,,,,,,,,,,,,,,
0,track_name,,0,1,10,,,,,,,,,,,,,,,,,,,
0,midi_port,,0,1,10,,,,,,,0,,,,,,,,,,,,
0,control_change,,0,0,10,,,,,,,,,,,,,,11,127,8,,,
0,control_change,,0,0,10,,,,,,,,,,,,,,7,112,8,,,
0,control_change,,0,0,10,,,,,,,,,,,,,,10,80,8,,,
0,program_change,,0,0,10,,,,,,,,,,,,,,,,8,60,,
0,track_name,,0,1,11,,,,,,,,,,,,,,,,,,,
0,midi_port,,0,1,11,,,,,,,0,,,,,,,,,,,,
0,control_change,,0,0,11,,,,,,,,,,,,,,11,127,10,,,
0,control_change,,0,0,11,,,,,,,,,,,,,,10,48,10,,,
0,control_change,,0,0,11,,,,,,,,,,,,,,7,96,10,,,
0,program_change,,0,0,11,,,,,,,,,,,,,,,,10,48,,
0,note_on,,0,0,11,,,,,,,,,,,,,,,,10,,67,72
0,track_name,,0,1,12,,,,,,,,,,,,,,,,,,,
0,midi_port,,0,1,12,,,,,,,0,,,,,,,,,,,,
0,control_change,,0,0,12,,,,,,,,,,,,,,11,127,11,,,
0,control_change,,0,0,12,,,,,,,,,,,,,,10,24,11,,,
0,control_change,,0,0,12,,,,,,,,,,,,,,7,96,11,,,
0,track_name,,0,1,13,,,,,,,,,,,,,,,,,,,
0,track_name,,0,1,6,,,,,,,,,,,,,,,,,,,
0,track_name,,0,1,9,,,,,,,,,,,,,,,,,,,
0,track_name,,0,1,1,,,,,,,,,,,,,,,,,,,
0,control_change,,0,0,5,,,,,,,,,,,,,,10,70,1,,,
0,midi_port,,0,1,3,,,,,,,0,,,,,,,,,,,,
0,track_name,,0,1,3,,,,,,,,,,,,,,,,,,,
0,end_of_track,,0,1,2,,,,,,,,,,,,,,,,,,,
0,midi_port,,0,1,2,,,,,,,0,,,,,,,,,,,,
0,track_name,,0,1,5,,,,,,,,,,,,,,,,,,,
0,program_change,,0,0,5,,,,,,,,,,,,,,,,1,68,,
0,track_name,,0,1,2,,,,,,,,,,,,,,,,,,,
0,end_of_track,,0,1,1,,,,,,,,,,,,,,,,,,,
0,midi_port,,0,1,1,,,,,,,0,,,,,,,,,,,,
0,control_change,,0,0,5,,,,,,,,,,,,,,11,127,1,,,
0,time_signature,,0,1,0,,,,,,,,,,3,4,24,8,,,,,,
0,midi_port,,0,1,5,,,,,,,0,,,,,,,,,,,,
0,end_of_track,,0,1,4,,,,,,,,,,,,,,,,,,,
0,midi_port,,0,1,4,,,,,,,0,,,,,,,,,,,,
0,end_of_track,,0,1,3,,,,,,,,,,,,,,,,,,,
0,control_change,,0,0,5,,,,,,,,,,,,,,7,72,1,,,
0,key_signature,,0,1,0,,,,,,,,C,,,,,,,,,,,
0,midi_port,,0,1,0,,,,,,,0,,,,,,,,,,,,
0,smpte_offset,,0,1,0,25,32,0,3,0,0,,,,,,,,,,,,,
0,instrument_name,,0,1,0,,,,,,,,,,,,,,,,,,,
0,track_name,,0,1,0,,,,,,,,,,,,,,,,,,,
0,set_tempo,,0,1,0,,,,,,,,,500000,,,,,,,,,,
44,note_on,,44,0,13,,,,,,,,,,,,,,,,12,,67,0
44,note_on,,44,0,11,,,,,,,,,,,,,,,,10,,67,0
59,note_on,,59,0,9,,,,,,,,,,,,,,,,7,,67,0
59,note_on,,59,0,15,,,,,,,,,,,,,,,,15,,67,0
59,note_on,,59,0,14,,,,,,,,,,,,,,,,13,,67,0
60,note_on,,1,0,15,,,,,,,,,,,,,,,,15,,62,72
60,note_on,,1,0,14,,,,,,,,,,,,,,,,13,,62,72
60,note_on,,16,0,13,,,,,,,,,,,,,,,,12,,62,72
60,note_on,,1,0,9,,,,,,,,,,,,,,,,7,,62,72
60,note_on,,16,0,11,,,,,,,,,,,,,,,,10,,62,72
104,note_on,,44,0,13,,,,,,,,,,,,,,,,12,,62,0
104,note_on,,44,0,11,,,,,,,,,,,,,,,,10,,62,0
119,note_on,,59,0,14,,,,,,,,,,,,,,,,13,,62,0
119,note_on,,59,0,15,,,,,,,,,,,,,,,,15,,62,0
119,note_on,,59,0,9,,,,,,,,,,,,,,,,7,,62,0
120,note_on,,1,0,14,,,,,,,,,,,,,,,,13,,64,72
120,note_on,,120,0,12,,,,,,,,,,,,,,,,11,,79,72
120,note_on,,120,0,7,,,,,,,,,,,,,,,,5,,79,72
120,note_on,,16,0,13,,,,,,,,,,,,,,,,12,,64,72
120,note_on,,1,0,15,,,,,,,,,,,,,,,,15,,64,72
120,note_on,,0,0,15,,,,,,,,,,,,,,,,15,,79,72
120,note_on,,1,0,9,,,,,,,,,,,,,,,,7,,64,72
120,note_on,,16,0,11,,,,,,,,,,,,,,,,10,,64,72
120,note_on,,120,0,5,,,,,,,,,,,,,,,,1,,79,72
164,note_on,,44,0,12,,,,,,,,,,,,,,,,11,,79,0
164,note_on,,44,0,11,,,,,,,,,,,,,,,,10,,64,0
164,note_on,,44,0,13,,,,,,,,,,,,,,,,12,,64,0
179,note_on,,59,0,9,,,,,,,,,,,,,,,,7,,64,0
179,note_on,,59,0,7,,,,,,,,,,,,,,,,5,,79,0
179,note_on,,0,0,15,,,,,,,,,,,,,,,,15,,79,0
179,note_on,,59,0,5,,,,,,,,,,,,,,,,1,,79,0
179,note_on,,59,0,15,,,,,,,,,,,,,,,,15,,64,0
179,note_on,,59,0,14,,,,,,,,,,,,,,,,13,,64,0
180,note_on,,1,0,14,,,,,,,,,,,,,,,,13,,59,72
180,note_on,,16,0,13,,,,,,,,,,,,,,,,12,,59,72
180,note_on,,16,0,12,,,,,,,,,,,,,,,,11,,74,72
180,note_on,,1,0,9,,,,,,,,,,,,,,,,7,,57,72
180,note_on,,0,0,15,,,,,,,,,,,,,,,,15,,74,72
180,note_on,,1,0,15,,,,,,,,,,,,,,,,15,,59,72
180,note_on,,1,0,7,,,,,,,,,,,,,,,,5,,74,72
180,note_on,,16,0,11,,,,,,,,,,,,,,,,10,,59,72
180,note_on,,1,0,5,,,,,,,,,,,,,,,,1,,74,72
224,note_on,,44,0,13,,,,,,,,,,,,,,,,12,,59,0
224,note_on,,44,0,11,,,,,,,,,,,,,,,,10,,59,0
224,note_on,,44,0,12,,,,,,,,,,,,,,,,11,,74,0
239,note_on,,59,0,5,,,,,,,,,,,,,,,,1,,74,0
239,note_on,,59,0,9,,,,,,,,,,,,,,,,7,,57,0
239,note_on,,59,0,15,,,,,,,,,,,,,,,,15,,59,0
239,note_on,,59,0,7,,,,,,,,,,,,,,,,5,,74,0
239,note_on,,0,0,15,,,,,,,,,,,,,,,,15,,74,0
239,note_on,,59,0,14,,,,,,,,,,,,,,,,13,,59,0
240,note_on,,16,0,11,,,,,,,,,,,,,,,,10,,60,72
240,note_on,,1,0,9,,,,,,,,,,,,,,,,7,,60,72
240,note_on,,1,0,14,,,,,,,,,,,,,,,,13,,60,72
240,note_on,,1,0,15,,,,,,,,,,,,,,,,15,,60,72
240,note_on,,1,0,5,,,,,,,,,,,,,,,,1,,76,72
240,note_on,,16,0,13,,,,,,,,,,,,,,,,12,,60,72
240,note_on,,0,0,15,,,,,,,,,,,,,,,,15,,76,72
240,note_on,,1,0,7,,,,,,,,,,,,,,,,5,,76,72
240,note_on,,16,0,12,,,,,,,,,,,,,,,,11,,76,72
284,note_on,,44,0,12,,,,,,,,,,,,,,,,11,,76,0
284,note_on,,44,0,11,,,,,,,,,,,,,,,,10,,60,0
284,note_on,,44,0,13,,,,,,,,,,,,,,,,12,,60,0
299,note_on,,59,0,14,,,,,,,,,,,,,,,,13,,60,0
299,note_on,,59,0,9,,,,,,,,,,,,,,,,7,,60,0
299,note_on,,59,0,15,,,,,,,,,,,,,,,,15,,60,0
299,note_on,,59,0,7,,,,,,,,,,,,,,,,5,,76,0
299,note_on,,0,0,15,,,,,,,,,,,,,,,,15,,76,0
299,note_on,,59,0,5,,,,,,,,,,,,,,,,1,,76,0
300,note_on,,16,0,13,,,,,,,,,,,,,,,,12,,55,72
300,note_on,,1,0,9,,,,,,,,,,,,,,,,7,,55,72
300,note_on,,1,0,14,,,,,,,,,,,,,,,,13,,55,72
300,note_on,,1,0,7,,,,,,,,,,,,,,,,5,,69,72
300,note_on,,1,0,15,,,,,,,,,,,,,,,,15,,55,72
300,note_on,,0,0,15,,,,,,,,,,,,,,,,15,,71,72
300,note_on,,16,0,12,,,,,,,,,,,,,,,,11,,71,72
300,note_on,,16,0,11,,,,,,,,,,,,,,,,10,,55,72
300,note_on,,1,0,5,,,,,,,,,,,,,,,,1,,69,72
344,note_on,,44,0,12,,,,,,,,,,,,,,,,11,,71,0
344,note_on,,44,0,13,,,,,,,,,,,,,,,,12,,55,0
344,note_on,,44,0,11,,,,,,,,,,,,,,,,10,,55,0
359,note_on,,0,0,15,,,,,,,,,,,,,,,,15,,71,0
359,note_on,,59,0,14,,,,,,,,,,,,,,,,13,,55,0
359,note_on,,59,0,9,,,,,,,,,,,,,,,,7,,55,0
359,note_on,,59,0,15,,,,,,,,,,,,,,,,15,,55,0
359,note_on,,59,0,7,,,,,,,,,,,,,,,,5,,69,0
359,note_on,,59,0,5,,,,,,,,,,,,,,,,1,,69,0
360,note_on,,1,0,5,,,,,,,,,,,,,,,,1,,72,72
360,note_on,,1,0,9,,,,,,,,,,,,,,,,7,,57,72
360,note_on,,1,0,14,,,,,,,,,,,,,,,,13,,57,72
360,note_on,,1,0,7,,,,,,,,,,,,,,,,5,,72,72
360,note_on,,16,0,13,,,,,,,,,,,,,,,,12,,57,72
360,note_on,,1,0,15,,,,,,,,,,,,,,,,15,,57,72
360,note_on,,0,0,15,,,,,,,,,,,,,,,,15,,72,72
360,note_on,,16,0,12,,,,,,,,,,,,,,,,11,,72,72
360,note_on,,16,0,11,,,,,,,,,,,,,,,,10,,57,72
419,note_on,,59,0,7,,,,,,,,,,,,,,,,5,,72,0
419,note_on,,59,0,9,,,,,,,,,,,,,,,,7,,57,0
419,note_on,,59,0,13,,,,,,,,,,,,,,,,12,,57,0
419,note_on,,59,0,5,,,,,,,,,,,,,,,,1,,72,0
419,note_on,,59,0,11,,,,,,,,,,,,,,,,10,,57,0
419,note_on,,59,0,12,,,,,,,,,,,,,,,,11,,72,0
419,note_on,,59,0,14,,,,,,,,,,,,,,,,13,,57,0
419,note_on,,59,0,15,,,,,,,,,,,,,,,,15,,57,0
419,note_on,,0,0,15,,,,,,,,,,,,,,,,15,,72,0
420,note_on,,1,0,15,,,,,,,,,,,,,,,,15,,64,72
420,note_on,,0,0,15,,,,,,,,,,,,,,,,15,,67,72
420,note_on,,1,0,5,,,,,,,,,,,,,,,,1,,67,72
420,note_on,,1,0,13,,,,,,,,,,,,,,,,12,,64,72
420,note_on,,1,0,7,,,,,,,,,,,,,,,,5,,67,72
420,note_on,,1,0,11,,,,,,,,,,,,,,,,10,,64,72
420,note_on,,1,0,14,,,,,,,,,,,,,,,,13,,64,72
420,note_on,,1,0,9,,,,,,,,,,,,,,,,7,,64,72
420,note_on,,1,0,12,,,,,,,,,,,,,,,,11,,67,72
479,note_on,,59,0,7,,,,,,,,,,,,,,,,5,,67,0
479,note_on,,59,0,11,,,,,,,,,,,,,,,,10,,64,0
479,note_on,,59,0,13,,,,,,,,,,,,,,,,12,,64,0
479,note_on,,0,0,15,,,,,,,,,,,,,,,,15,,67,0
479,note_on,,59,0,15,,,,,,,,,,,,,,,,15,,64,0
479,note_on,,59,0,12,,,,,,,,,,,,,,,,11,,67,0
479,note_on,,59,0,5,,,,,,,,,,,,,,,,1,,67,0
479,note_on,,59,0,14,,,,,,,,,,,,,,,,13,,64,0
479,note_on,,59,0,9,,,,,,,,,,,,,,,,7,,64,0
480,note_on,,1,0,14,,,,,,,,,,,,,,,,13,,65,72
480,note_on,,1,0,9,,,,,,,,,,,,,,,,7,,65,72
480,note_on,,1,0,13,,,,,,,,,,,,,,,,12,,65,72
480,note_on,,1,0,11,,,,,,,,,,,,,,,,10,,65,72
480,note_on,,1,0,7,,,,,,,,,,,,,,,,5,,69,72
480,note_on,,1,0,15,,,,,,,,,,,,,,,,15,,65,72
480,note_on,,0,0,15,,,,,,,,,,,,,,,,15,,69,72
480,note_on,,1,0,12,,,,,,,,,,,,,,,,11,,69,72
480,note_on,,1,0,5,,,,,,,,,,,,,,,,1,,69,72
509,note_on,,29,0,7,,,,,,,,,,,,,,,,5,,69,0
509,note_on,,29,0,15,,,,,,,,,,,,,,,,15,,69,0
509,note_on,,29,0,5,,,,,,,,,,,,,,,,1,,69,0
509,note_on,,29,0,12,,,,,,,,,,,,,,,,11,,69,0
510,note_on,,1,0,7,,,,,,,,,,,,,,,,5,,69,72
510,note_on,,1,0,15,,,,,,,,,,,,,,,,15,,71,72
510,note_on,,1,0,12,,,,,,,,,,,,,,,,11,,71,72
510,note_on,,1,0,5,,,,,,,,,,,,,,,,1,,69,72
539,note_on,,0,0,15,,,,,,,,,,,,,,,,15,,71,0
539,note_on,,29,0,15,,,,,,,,,,,,,,,,15,,65,0
539,note_on,,59,0,14,,,,,,,,,,,,,,,,13,,65,0
539,note_on,,29,0,12,,,,,,,,,,,,,,,,11,,71,0
539,note_on,,29,0,5,,,,,,,,,,,,,,,,1,,69,0
539,note_on,,29,0,7,,,,,,,,,,,,,,,,5,,69,0
539,note_on,,59,0,13,,,,,,,,,,,,,,,,12,,65,0
539,note_on,,59,0,9,,,,,,,,,,,,,,,,7,,65,0
539,note_on,,59,0,11,,,,,,,,,,,,,,,,10,,65,0
540,note_on,,0,0,15,,,,,,,,,,,,,,,,15,,72,72
540,note_on,,1,0,5,,,,,,,,,,,,,,,,1,,72,72
540,note_on,,1,0,9,,,,,,,,,,,,,,,,7,,64,72
540,note_on,,1,0,12,,,,,,,,,,,,,,,,11,,72,72
540,note_on,,1,0,13,,,,,,,,,,,,,,,,12,,64,72
540,note_on,,1,0,11,,,,,,,,,,,,,,,,10,,64,72
540,note_on,,1,0,14,,,,,,,,,,,,,,,,13,,64,72
540,note_on,,1,0,7,,,,,,,,,,,,,,,,5,,72,72
540,note_on,,1,0,15,,,,,,,,,,,,,,,,15,,64,72
599,note_on,,59,0,12,,,,,,,,,,,,,,,,11,,72,0
599,note_on,,59,0,11,,,,,,,,,,,,,,,,10,,64,0
599,note_on,,59,0,14,,,,,,,,,,,,,,,,13,,64,0
599,note_on,,59,0,7,,,,,,,,,,,,,,,,5,,72,0
599,note_on,,59,0,15,,,,,,,,,,,,,,,,15,,64,0
599,note_on,,0,0,15,,,,,,,,,,,,,,,,15,,72,0
599,note_on,,59,0,5,,,,,,,,,,,,,,,,1,,72,0
599,note_on,,59,0,9,,,,,,,,,,,,,,,,7,,64,0
599,note_on,,59,0,13,,,,,,,,,,,,,,,,12,,64,0
600,note_on,,0,0,15,,,,,,,,,,,,,,,,15,,71,72
600,note_on,,1,0,13,,,,,,,,,,,,,,,,12,,62,72
600,note_on,,1,0,7,,,,,,,,,,,,,,,,5,,69,72
600,note_on,,1,0,14,,,,,,,,,,,,,,,,13,,62,72
600,note_on,,1,0,11,,,,,,,,,,,,,,,,10,,62,72
600,note_on,,1,0,9,,,,,,,,,,,,,,,,7,,62,72
600,note_on,,1,0,15,,,,,,,,,,,,,,,,15,,62,72
600,note_on,,1,0,5,,,,,,,,,,,,,,,,1,,69,72
600,note_on,,1,0,12,,,,,,,,,,,,,,,,11,,71,72
629,note_on,,29,0,13,,,,,,,,,,,,,,,,12,,62,0
629,note_on,,29,0,12,,,,,,,,,,,,,,,,11,,71,0
629,note_on,,29,0,9,,,,,,,,,,,,,,,,7,,62,0
629,note_on,,29,0,14,,,,,,,,,,,,,,,,13,,62,0
629,note_on,,29,0,7,,,,,,,,,,,,,,,,5,,69,0
629,note_on,,0,0,15,,,,,,,,,,,,,,,,15,,71,0
629,note_on,,29,0,15,,,,,,,,,,,,,,,,15,,62,0
629,note_on,,29,0,5,,,,,,,,,,,,,,,,1,,69,0
629,note_on,,29,0,11,,,,,,,,,,,,,,,,10,,62,0
630,note_on,,1,0,13,,,,,,,,,,,,,,,,12,,64,72
630,note_on,,0,0,15,,,,,,,,,,,,,,,,15,,72,72
630,note_on,,1,0,14,,,,,,,,,,,,,,,,13,,64,72
630,note_on,,1,0,11,,,,,,,,,,,,,,,,10,,64,72
630,note_on,,1,0,7,,,,,,,,,,,,,,,,5,,72,72
630,note_on,,1,0,9,,,,,,,,,,,,,,,,7,,64,72
630,note_on,,1,0,5,,,,,,,,,,,,,,,,1,,72,72
630,note_on,,1,0,12,,,,,,,,,,,,,,,,11,,72,72
630,note_on,,1,0,15,,,,,,,,,,,,,,,,15,,64,72
659,note_on,,29,0,11,,,,,,,,,,,,,,,,10,,64,0
659,note_on,,29,0,9,,,,,,,,,,,,,,,,7,,64,0
659,note_on,,29,0,5,,,,,,,,,,,,,,,,1,,72,0
659,note_on,,29,0,12,,,,,,,,,,,,,,,,11,,72,0
659,note_on,,29,0,13,,,,,,,,,,,,,,,,12,,64,0
659,note_on,,29,0,15,,,,,,,,,,,,,,,,15,,64,0
659,note_on,,0,0,15,,,,,,,,,,,,,,,,15,,72,0
659,note_on,,29,0,14,,,,,,,,,,,,,,,,13,,64,0
659,note_on,,29,0,7,,,,,,,,,,,,,,,,5,,72,0
660,note_on,,1,0,7,,,,,,,,,,,,,,,,5,,74,72
660,note_on,,1,0,15,,,,,,,,,,,,,,,,15,,65,72
660,note_on,,0,0,15,,,,,,,,,,,,,,,,15,,74,72
660,note_on,,1,0,14,,,,,,,,,,,,,,,,13,,65,72
660,note_on,,1,0,11,,,,,,,,,,,,,,,,10,,65,72
660,note_on,,1,0,9,,,,,,,,,,,,,,,,7,,65,72
660,note_on,,1,0,5,,,,,,,,,,,,,,,,1,,74,72
660,note_on,,1,0,12,,,,,,,,,,,,,,,,11,,74,72
660,note_on,,1,0,13,,,,,,,,,,,,,,,,12,,65,72
719,note_on,,59,0,5,,,,,,,,,,,,,,,,1,,74,0
719,note_on,,59,0,12,,,,,,,,,,,,,,,,11,,74,0
719,note_on,,59,0,11,,,,,,,,,,,,,,,,10,,65,0
719,note_on,,59,0,14,,,,,,,,,,,,,,,,13,,65,0
719,note_on,,59,0,7,,,,,,,,,,,,,,,,5,,74,0
719,note_on,,59,0,13,,,,,,,,,,,,,,,,12,,65,0
719,note_on,,59,0,9,,,,,,,,,,,,,,,,7,,65,0
719,note_on,,59,0,15,,,,,,,,,,,,,,,,15,,65,0
719,note_on,,0,0,15,,,,,,,,,,,,,,,,15,,74,0
720,note_on,,1,0,13,,,,,,,,,,,,,,,,12,,64,72
720,note_on,,720,0,6,,,,,,,,,,,,,,,,2,,60,72
720,note_on,,1,0,14,,,,,,,,,,,,,,,,13,,60,72
720,note_on,,1,0,5,,,,,,,,,,,,,,,,1,,67,72
720,note_on,,1,0,15,,,,,,,,,,,,,,,,15,,60,72
720,note_on,,1,0,11,,,,,,,,,,,,,,,,10,,64,72
720,note_on,,720,0,10,,,,,,,,,,,,,,,,8,,60,72
720,note_on,,0,0,15,,,,,,,,,,,,,,,,15,,76,72
720,note_on,,0,0,15,,,,,,,,,,,,,,,,15,,72,72
720,note_on,,1,0,12,,,,,,,,,,,,,,,,11,,67,72
720,note_on,,1,0,9,,,,,,,,,,,,,,,,7,,64,72
720,note_on,,0,0,15,,,,,,,,,,,,,,,,15,,67,72
720,note_on,,1,0,7,,,,,,,,,,,,,,,,5,,67,72
779,note_on,,0,0,15,,,,,,,,,,,,,,,,15,,76,0
779,note_on,,59,0,14,,,,,,,,,,,,,,,,13,,60,0
779,note_on,,59,0,15,,,,,,,,,,,,,,,,15,,60,0
779,note_on,,0,0,15,,,,,,,,,,,,,,,,15,,67,0
779,note_on,,59,0,6,,,,,,,,,,,,,,,,2,,60,0
779,note_on,,59,0,10,,,,,,,,,,,,,,,,8,,60,0
779,note_on,,0,0,15,,,,,,,,,,,,,,,,15,,72,0
780,note_on,,1,0,14,,,,,,,,,,,,,,,,13,,55,72
780,note_on,,0,0,15,,,,,,,,,,,,,,,,15,,67,72
780,note_on,,1,0,6,,,,,,,,,,,,,,,,2,,55,72
780,note_on,,1,0,10,,,,,,,,,,,,,,,,8,,55,72
780,note_on,,0,0,15,,,,,,,,,,,,,,,,15,,62,72
780,note_on,,1,0,15,,,,,,,,,,,,,,,,15,,55,72
780,note_on,,0,0,15,,,,,,,,,,,,,,,,15,,71,72
839,note_on,,59,0,6,,,,,,,,,,,,,,,,2,,55,0
839,note_on,,59,0,14,,,,,,,,,,,,,,,,13,,55,0
839,note_on,,119,0,7,,,,,,,,,,,,,,,,5,,67,0
839,note_on,,119,0,5,,,,,,,,,,,,,,,,1,,67,0
839,note_on,,119,0,13,,,,,,,,,,,,,,,,12,,64,0
839,note_on,,59,0,15,,,,,,,,,,,,,,,,15,,55,0
839,note_on,,119,0,9,,,,,,,,,,,,,,,,7,,64,0
839,note_on,,119,0,11,,,,,,,,,,,,,,,,10,,64,0
839,note_on,,0,0,15,,,,,,,,,,,,,,,,15,,62,0
839,note_on,,0,0,15,,,,,,,,,,,,,,,,15,,67,0
839,note_on,,0,0,15,,,,,,,,,,,,,,,,15,,71,0
839,note_on,,119,0,12,,,,,,,,,,,,,,,,11,,67,0
839,note_on,,59,0,10,,,,,,,,,,,,,,,,8,,55,0
840,note_on,,0,0,15,,,,,,,,,,,,,,,,15,,64,72
840,note_on,,0,0,15,,,,,,,,,,,,,,,,15,,60,72
840,note_on,,0,0,15,,,,,,,,,,,,,,,,15,,72,72
840,note_on,,1,0,12,,,,,,,,,,,,,,,,11,,84,72
840,note_on,,840,0,8,,,,,,,,,,,,,,,,6,,72,72
840,note_on,,1,0,10,,,,,,,,,,,,,,,,8,,57,72
840,note_on,,1,0,6,,,,,,,,,,,,,,,,2,,57,72
840,note_on,,1,0,15,,,,,,,,,,,,,,,,15,,57,72
840,note_on,,1,0,14,,,,,,,,,,,,,,,,13,,57,72
899,note_on,,59,0,10,,,,,,,,,,,,,,,,8,,57,0
899,note_on,,59,0,14,,,,,,,,,,,,,,,,13,,57,0
899,note_on,,0,0,15,,,,,,,,,,,,,,,,15,,72,0
899,note_on,,59,0,12,,,,,,,,,,,,,,,,11,,84,0
899,note_on,,0,0,15,,,,,,,,,,,,,,,,15,,64,0
899,note_on,,59,0,8,,,,,,,,,,,,,,,,6,,72,0
899,note_on,,59,0,6,,,,,,,,,,,,,,,,2,,57,0
899,note_on,,59,0,15,,,,,,,,,,,,,,,,15,,57,0
899,note_on,,0,0,15,,,,,,,,,,,,,,,,15,,60,0
900,note_on,,0,0,15,,,,,,,,,,,,,,,,15,,71,72
900,note_on,,0,0,15,,,,,,,,,,,,,,,,15,,55,72
900,note_on,,1,0,12,,,,,,,,,,,,,,,,11,,79,72
900,note_on,,1,0,15,,,,,,,,,,,,,,,,15,,52,72
900,note_on,,1,0,10,,,,,,,,,,,,,,,,8,,52,72
900,note_on,,61,0,9,,,,,,,,,,,,,,,,7,,60,72
900,note_on,,0,0,15,,,,,,,,,,,,,,,,15,,64,72
900,note_on,,1,0,6,,,,,,,,,,,,,,,,2,,52,72
900,note_on,,61,0,13,,,,,,,,,,,,,,,,12,,60,72
900,note_on,,1,0,14,,,,,,,,,,,,,,,,13,,52,72
900,note_on,,1,0,8,,,,,,,,,,,,,,,,6,,67,72
959,note_on,,59,0,8,,,,,,,,,,,,,,,,6,,67,0
959,note_on,,59,0,9,,,,,,,,,,,,,,,,7,,60,0
959,note_on,,59,0,6,,,,,,,,,,,,,,,,2,,52,0
959,note_on,,59,0,15,,,,,,,,,,,,,,,,15,,52,0
959,note_on,,0,0,15,,,,,,,,,,,,,,,,15,,55,0
959,note_on,,0,0,15,,,,,,,,,,,,,,,,15,,71,0
959,note_on,,0,0,15,,,,,,,,,,,,,,,,15,,64,0
959,note_on,,59,0,10,,,,,,,,,,,,,,,,8,,52,0
959,note_on,,59,0,13,,,,,,,,,,,,,,,,12,,60,0
959,note_on,,59,0,12,,,,,,,,,,,,,,,,11,,79,0
959,note_on,,59,0,14,,,,,,,,,,,,,,,,13,,52,0
960,note_on,,1,0,10,,,,,,,,,,,,,,,,8,,53,72
960,note_on,,0,0,15,,,,,,,,,,,,,,,,15,,65,72
960,note_on,,1,0,15,,,,,,,,,,,,,,,,15,,53,72
960,note_on,,0,0,15,,,,,,,,,,,,,,,,15,,57,72
960,note_on,,1,0,9,,,,,,,,,,,,,,,,7,,60,72
960,note_on,,1,0,6,,,,,,,,,,,,,,,,2,,53,72
960,note_on,,0,0,15,,,,,,,,,,,,,,,,15,,60,72
960,note_on,,1,0,14,,,,,,,,,,,,,,,,13,,53,72
960,note_on,,0,0,15,,,,,,,,,,,,,,,,15,,69,72
960,note_on,,1,0,8,,,,,,,,,,,,,,,,6,,69,72
960,note_on,,1,0,12,,,,,,,,,,,,,,,,11,,81,72
960,note_on,,1,0,13,,,,,,,,,,,,,,,,12,,60,72
1019,note_on,,0,0,15,,,,,,,,,,,,,,,,15,,57,0
1019,note_on,,0,0,15,,,,,,,,,,,,,,,,15,,65,0
1019,note_on,,59,0,9,,,,,,,,,,,,,,,,7,,60,0
1019,note_on,,59,0,15,,,,,,,,,,,,,,,,15,,53,0
1019,note_on,,59,0,12,,,,,,,,,,,,,,,,11,,81,0
1019,note_on,,0,0,15,,,,,,,,,,,,,,,,15,,60,0
1019,note_on,,59,0,13,,,,,,,,,,,,,,,,12,,60,0
1019,note_on,,59,0,10,,,,,,,,,,,,,,,,8,,53,0
1019,note_on,,59,0,6,,,,,,,,,,,,,,,,2,,53,0
1019,note_on,,59,0,8,,,,,,,,,,,,,,,,6,,69,0
1019,note_on,,59,0,14,,,,,,,,,,,,,,,,13,,53,0
1019,note_on,,0,0,15,,,,,,,,,,,,,,,,15,,69,0
1020,note_on,,1,0,6,,,,,,,,,,,,,,,,2,,48,72
1020,note_on,,0,0,15,,,,,,,,,,,,,,,,15,,72,72
1020,note_on,,0,0,15,,,,,,,,,,,,,,,,15,,55,72
1020,note_on,,1,0,8,,,,,,,,,,,,,,,,6,,64,72
1020,note_on,,0,0,15,,,,,,,,,,,,,,,,15,,67,72
1020,note_on,,1,0,15,,,,,,,,,,,,,,,,15,,48,72
1020,note_on,,1,0,9,,,,,,,,,,,,,,,,7,,60,72
1020,note_on,,1,0,14,,,,,,,,,,,,,,,,13,,48,72
1020,note_on,,1,0,13,,,,,,,,,,,,,,,,12,,60,72
1020,note_on,,1,0,10,,,,,,,,,,,,,,,,8,,48,72
1020,note_on,,0,0,15,,,,,,,,,,,,,,,,15,,64,72
1020,note_on,,1,0,12,,,,,,,,,,,,,,,,11,,76,72
1079,note_on,,59,0,6,,,,,,,,,,,,,,,,2,,48,0
1079,note_on,,0,0,15,,,,,,,,,,,,,,,,15,,55,0
1079,note_on,,0,0,15,,,,,,,,,,,,,,,,15,,72,0
1079,note_on,,59,0,15,,,,,,,,,,,,,,,,15,,48,0
1079,note_on,,0,0,15,,,,,,,,,,,,,,,,15,,67,0
1079,note_on,,0,0,15,,,,,,,,,,,,,,,,15,,64,0
1079,note_on,,59,0,9,,,,,,,,,,,,,,,,7,,60,0
1079,note_on,,59,0,12,,,,,,,,,,,,,,,,11,,76,0
1079,note_on,,59,0,14,,,,,,,,,,,,,,,,13,,48,0
1079,note_on,,59,0,13,,,,,,,,,,,,,,,,12,,60,0
1079,note_on,,59,0,10,,,,,,,,,,,,,,,,8,,48,0
1079,note_on,,59,0,8,,,,,,,,,,,,,,,,6,,64,0
1080,note_on,,0,0,15,,,,,,,,,,,,,,,,15,,60,72
1080,note_on,,1,0,15,,,,,,,,,,,,,,,,15,,50,72
1080,note_on,,0,0,15,,,,,,,,,,,,,,,,15,,65,72
1080,note_on,,0,0,15,,,,,,,,,,,,,,,,15,,62,72
1080,note_on,,1,0,9,,,,,,,,,,,,,,,,7,,60,72
1080,note_on,,1,0,6,,,,,,,,,,,,,,,,2,,50,72
1080,note_on,,1,0,14,,,,,,,,,,,,,,,,13,,50,72
1080,note_on,,1,0,12,,,,,,,,,,,,,,,,11,,77,72
1080,note_on,,1,0,13,,,,,,,,,,,,,,,,12,,60,72
1080,note_on,,1,0,8,,,,,,,,,,,,,,,,6,,65,72
1080,note_on,,1,0,10,,,,,,,,,,,,,,,,8,,50,72
1139,note_on,,59,0,12,,,,,,,,,,,,,,,,11,,77,0
1139,note_on,,59,0,13,,,,,,,,,,,,,,,,12,,60,0
1139,note_on,,59,0,14,,,,,,,,,,,,,,,,13,,50,0
1139,note_on,,59,0,6,,,,,,,,,,,,,,,,2,,50,0
1139,note_on,,0,0,15,,,,,,,,,,,,,,,,15,,60,0
1139,note_on,,0,0,15,,,,,,,,,,,,,,,,15,,62,0
1139,note_on,,59,0,15,,,,,,,,,,,,,,,,15,,50,0
1139,note_on,,59,0,8,,,,,,,,,,,,,,,,6,,65,0
1139,note_on,,59,0,9,,,,,,,,,,,,,,,,7,,60,0
1139,note_on,,59,0,10,,,,,,,,,,,,,,,,8,,50,0
1140,note_on,,1,0,8,,,,,,,,,,,,,,,,6,,62,72
1140,note_on,,0,0,15,,,,,,,,,,,,,,,,15,,74,72
1140,note_on,,0,0,15,,,,,,,,,,,,,,,,15,,59,72
1140,note_on,,1,0,9,,,,,,,,,,,,,,,,7,,57,72
1140,note_on,,1,0,15,,,,,,,,,,,,,,,,15,,55,72
1140,note_on,,1,0,14,,,,,,,,,,,,,,,,13,,55,72
1140,note_on,,1,0,6,,,,,,,,,,,,,,,,2,,55,72
1140,note_on,,1,0,13,,,,,,,,,,,,,,,,12,,59,72
1140,note_on,,1,0,12,,,,,,,,,,,,,,,,11,,74,72
1140,note_on,,1,0,10,,,,,,,,,,,,,,,,8,,55,72
1199,note_on,,0,0,15,,,,,,,,,,,,,,,,15,,74,0
1199,note_on,,59,0,6,,,,,,,,,,,,,,,,2,,55,0
1199,note_on,,59,0,13,,,,,,,,,,,,,,,,12,,59,0
1199,note_on,,59,0,8,,,,,,,,,,,,,,,,6,,62,0
1199,note_on,,0,0,15,,,,,,,,,,,,,,,,15,,59,0
1199,note_on,,59,0,14,,,,,,,,,,,,,,,,13,,55,0
1199,note_on,,59,0,10,,,,,,,,,,,,,,,,8,,55,0
1199,note_on,,59,0,12,,,,,,,,,,,,,,,,11,,74,0
1199,note_on,,59,0,15,,,,,,,,,,,,,,,,15,,65,0
1199,note_on,,0,0,15,,,,,,,,,,,,,,,,15,,55,0
1199,note_on,,59,0,9,,,,,,,,,,,,,,,,7,,57,0
1200,note_on,,1,0,14,,,,,,,,,,,,,,,,13,,60,72
1200,note_on,,1,0,9,,,,,,,,,,,,,,,,7,,64,72
1200,note_on,,1,0,6,,,,,,,,,,,,,,,,2,,60,72
1200,note_on,,1,0,13,,,,,,,,,,,,,,,,12,,67,72
1200,note_on,,1,0,15,,,,,,,,,,,,,,,,15,,60,72
1200,note_on,,0,0,15,,,,,,,,,,,,,,,,15,,67,72
1200,note_on,,0,0,15,,,,,,,,,,,,,,,,15,,64,72
1200,note_on,,1,0,12,,,,,,,,,,,,,,,,11,,76,72
1200,note_on,,1,0,10,,,,,,,,,,,,,,,,8,,60,72
1200,note_on,,1,0,8,,,,,,,,,,,,,,,,6,,64,72
1229,note_on,,29,0,12,,,,,,,,,,,,,,,,11,,76,0
1229,note_on,,29,0,8,,,,,,,,,,,,,,,,6,,64,0
1230,note_on,,1,0,8,,,,,,,,,,,,,,,,6,,66,72
1230,note_on,,1,0,12,,,,,,,,,,,,,,,,11,,78,72
1259,note_on,,59,0,9,,,,,,,,,,,,,,,,7,,64,0
1259,note_on,,59,0,15,,,,,,,,,,,,,,,,15,,60,0
1259,note_on,,0,0,15,,,,,,,,,,,,,,,,15,,64,0
1259,note_on,,59,0,10,,,,,,,,,,,,,,,,8,,60,0
1259,note_on,,29,0,8,,,,,,,,,,,,,,,,6,,66,0
1259,note_on,,29,0,12,,,,,,,,,,,,,,,,11,,78,0
1259,note_on,,59,0,14,,,,,,,,,,,,,,,,13,,60,0
1259,note_on,,59,0,6,,,,,,,,,,,,,,,,2,,60,0
1259,note_on,,59,0,13,,,,,,,,,,,,,,,,12,,67,0
1260,note_on,,1,0,8,,,,,,,,,,,,,,,,6,,67,72
1260,note_on,,0,0,15,,,,,,,,,,,,,,,,15,,62,72
1260,note_on,,1,0,14,,,,,,,,,,,,,,,,13,,59,72
1260,note_on,,1,0,6,,,,,,,,,,,,,,,,2,,59,72
1260,note_on,,1,0,9,,,,,,,,,,,,,,,,7,,62,72
1260,note_on,,1,0,15,,,,,,,,,,,,,,,,15,,59,72
1260,note_on,,1,0,13,,,,,,,,,,,,,,,,12,,62,72
1260,note_on,,1,0,10,,,,,,,,,,,,,,,,8,,57,72
1260,note_on,,1,0,12,,,,,,,,,,,,,,,,11,,79,72
1319,note_on,,59,0,9,,,,,,,,,,,,,,,,7,,62,0
1319,note_on,,59,0,8,,,,,,,,,,,,,,,,6,,67,0
1319,note_on,,59,0,6,,,,,,,,,,,,,,,,2,,59,0
1319,note_on,,59,0,13,,,,,,,,,,,,,,,,12,,62,0
1319,note_on,,0,0,15,,,,,,,,,,,,,,,,15,,62,0
1319,note_on,,59,0,14,,,,,,,,,,,,,,,,13,,59,0
1319,note_on,,59,0,10,,,,,,,,,,,,,,,,8,,57,0
1319,note_on,,59,0,12,,,,,,,,,,,,,,,,11,,79,0
1319,note_on,,0,0,15,,,,,,,,,,,,,,,,15,,59,0
1319,note_on,,59,0,15,,,,,,,,,,,,,,,,15,,67,0
1320,note_on,,1,0,9,,,,,,,,,,,,,,,,7,,60,72
1320,note_on,,1,0,13,,,,,,,,,,,,,,,,12,,60,72
1320,note_on,,1,0,6,,,,,,,,,,,,,,,,2,,57,72
1320,note_on,,1,0,10,,,,,,,,,,,,,,,,8,,57,72
1320,note_on,,1,0,12,,,,,,,,,,,,,,,,11,,78,72
1320,note_on,,1,0,15,,,,,,,,,,,,,,,,15,,57,72
1320,note_on,,0,0,15,,,,,,,,,,,,,,,,15,,66,72
1320,note_on,,0,0,15,,,,,,,,,,,,,,,,15,,60,72
1320,note_on,,1,0,8,,,,,,,,,,,,,,,,6,,66,72
1320,note_on,,1,0,14,,,,,,,,,,,,,,,,13,,57,72
1320,note_on,,0,0,15,,,,,,,,,,,,,,,,15,,69,72
1320,note_on,,0,0,15,,,,,,,,,,,,,,,,15,,72,72
1349,note_on,,29,0,8,,,,,,,,,,,,,,,,6,,66,0
1349,note_on,,29,0,12,,,,,,,,,,,,,,,,11,,78,0
1350,note_on,,1,0,12,,,,,,,,,,,,,,,,11,,79,72
1350,note_on,,1,0,8,,,,,,,,,,,,,,,,6,,67,72
1379,note_on,,59,0,10,,,,,,,,,,,,,,,,8,,57,0
1379,note_on,,59,0,13,,,,,,,,,,,,,,,,12,,60,0
1379,note_on,,59,0,15,,,,,,,,,,,,,,,,15,,57,0
1379,note_on,,0,0,15,,,,,,,,,,,,,,,,15,,60,0
1379,note_on,,0,0,15,,,,,,,,,,,,,,,,15,,66,0
1379,note_on,,0,0,15,,,,,,,,,,,,,,,,15,,69,0
1379,note_on,,29,0,12,,,,,,,,,,,,,,,,11,,79,0
1379,note_on,,29,0,8,,,,,,,,,,,,,,,,6,,67,0
1379,note_on,,59,0,14,,,,,,,,,,,,,,,,13,,57,0
1379,note_on,,59,0,9,,,,,,,,,,,,,,,,7,,60,0
1379,note_on,,59,0,6,,,,,,,,,,,,,,,,2,,57,0
1380,note_on,,1,0,8,,,,,,,,,,,,,,,,6,,69,72
1380,note_on,,1,0,12,,,,,,,,,,,,,,,,11,,81,72
1380,note_on,,1,0,9,,,,,,,,,,,,,,,,7,,66,72
1380,note_on,,1,0,14,,,,,,,,,,,,,,,,13,,62,72
1380,note_on,,1,0,10,,,,,,,,,,,,,,,,8,,62,72
1380,note_on,,1,0,6,,,,,,,,,,,,,,,,2,,62,72
1380,note_on,,0,0,15,,,,,,,,,,,,,,,,15,,69,72
1380,note_on,,0,0,15,,,,,,,,,,,,,,,,15,,66,72
1380,note_on,,1,0,15,,,,,,,,,,,,,,,,15,,62,72
1380,note_on,,1,0,13,,,,,,,,,,,,,,,,12,,65,72
1439,note_on,,59,0,8,,,,,,,,,,,,,,,,6,,69,0
1439,note_on,,59,0,14,,,,,,,,,,,,,,,,13,,62,0
1439,note_on,,59,0,6,,,,,,,,,,,,,,,,2,,62,0
1439,note_on,,0,0,15,,,,,,,,,,,,,,,,15,,69,0
1439,note_on,,59,0,15,,,,,,,,,,,,,,,,15,,72,0
1439,note_on,,0,0,15,,,,,,,,,,,,,,,,15,,62,0
1439,note_on,,0,0,15,,,,,,,,,,,,,,,,15,,66,0
1439,note_on,,59,0,10,,,,,,,,,,,,,,,,8,,62,0
1439,note_on,,59,0,9,,,,,,,,,,,,,,,,7,,66,0
1439,note_on,,59,0,12,,,,,,,,,,,,,,,,11,,81,0
1439,note_on,,59,0,13,,,,,,,,,,,,,,,,12,,65,0
1440,note_on,,1,0,9,,,,,,,,,,,,,,,,7,,67,72
1440,note_on,,1,0,14,,,,,,,,,,,,,,,,13,,59,72
1440,note_on,,1,0,8,,,,,,,,,,,,,,,,6,,62,72
1440,note_on,,1,0,12,,,,,,,,,,,,,,,,11,,74,72
1440,note_on,,601,0,5,,,,,,,,,,,,,,,,1,,74,72
1440,note_on,,601,0,7,,,,,,,,,,,,,,,,5,,74,72
1440,note_on,,1,0,13,,,,,,,,,,,,,,,,12,,67,72
1440,note_on,,1,0,10,,,,,,,,,,,,,,,,8,,57,72
1440,note_on,,1,0,15,,,,,,,,,,,,,,,,15,,62,72
1440,note_on,,0,0,15,,,,,,,,,,,,,,,,15,,67,72
1440,note_on,,0,0,15,,,,,,,,,,,,,,,,15,,74,72
1440,note_on,,0,0,15,,,,,,,,,,,,,,,,15,,59,72
1440,note_on,,1,0,6,,,,,,,,,,,,,,,,2,,59,72
1440,note_on,,601,0,11,,,,,,,,,,,,,,,,10,,86,72
1499,note_on,,59,0,7,,,,,,,,,,,,,,,,5,,74,0
1499,note_on,,59,0,11,,,,,,,,,,,,,,,,10,,86,0
1499,note_on,,0,0,15,,,,,,,,,,,,,,,,15,,67,0
1499,note_on,,59,0,15,,,,,,,,,,,,,,,,15,,59,0
1499,note_on,,59,0,12,,,,,,,,,,,,,,,,11,,74,0
1499,note_on,,59,0,6,,,,,,,,,,,,,,,,2,,59,0
1499,note_on,,59,0,5,,,,,,,,,,,,,,,,1,,74,0
1499,note_on,,59,0,14,,,,,,,,,,,,,,,,13,,59,0
1499,note_on,,59,0,10,,,,,,,,,,,,,,,,8,,57,0
1500,note_on,,1,0,6,,,,,,,,,,,,,,,,2,,62,72
1500,note_on,,1,0,7,,,,,,,,,,,,,,,,5,,69,72
1500,note_on,,1,0,10,,,,,,,,,,,,,,,,8,,62,72
1500,note_on,,1,0,11,,,,,,,,,,,,,,,,10,,81,72
1500,note_on,,1,0,12,,,,,,,,,,,,,,,,11,,66,72
1500,note_on,,1,0,14,,,,,,,,,,,,,,,,13,,62,72
1500,note_on,,1,0,5,,,,,,,,,,,,,,,,1,,69,72
1500,note_on,,1,0,15,,,,,,,,,,,,,,,,15,,69,72
1500,note_on,,0,0,15,,,,,,,,,,,,,,,,15,,66,72
1559,note_on,,0,0,15,,,,,,,,,,,,,,,,15,,66,0
1559,note_on,,0,0,15,,,,,,,,,,,,,,,,15,,69,0
1559,note_on,,59,0,5,,,,,,,,,,,,,,,,1,,69,0
1559,note_on,,59,0,14,,,,,,,,,,,,,,,,13,,62,0
1559,note_on,,59,0,10,,,,,,,,,,,,,,,,8,,62,0
1559,note_on,,59,0,15,,,,,,,,,,,,,,,,15,,62,0
1559,note_on,,119,0,8,,,,,,,,,,,,,,,,6,,62,0
1559,note_on,,119,0,13,,,,,,,,,,,,,,,,12,,67,0
1559,note_on,,59,0,7,,,,,,,,,,,,,,,,5,,69,0
1559,note_on,,119,0,9,,,,,,,,,,,,,,,,7,,67,0
1559,note_on,,59,0,11,,,,,,,,,,,,,,,,10,,81,0
1559,note_on,,59,0,12,,,,,,,,,,,,,,,,11,,66,0
1559,note_on,,59,0,6,,,,,,,,,,,,,,,,2,,62,0
1560,note_on,,1,0,7,,,,,,,,,,,,,,,,5,,69,72
1560,note_on,,1,0,13,,,,,,,,,,,,,,,,12,,67,72
1560,note_on,,1,0,5,,,,,,,,,,,,,,,,1,,69,72
1560,note_on,,1,0,14,,,,,,,,,,,,,,,,13,,55,72
1560,note_on,,1,0,11,,,,,,,,,,,,,,,,10,,83,72
1560,note_on,,1,0,10,,,,,,,,,,,,,,,,8,,55,72
1560,note_on,,1,0,9,,,,,,,,,,,,,,,,7,,67,72
1560,note_on,,1,0,15,,,,,,,,,,,,,,,,15,,71,72
1560,note_on,,1,0,6,,,,,,,,,,,,,,,,2,,55,72
1560,note_on,,0,0,15,,,,,,,,,,,,,,,,15,,67,72
1560,note_on,,0,0,15,,,,,,,,,,,,,,,,15,,55,72
1560,note_on,,1,0,12,,,,,,,,,,,,,,,,11,,67,72
1560,note_on,,0,0,15,,,,,,,,,,,,,,,,15,,62,72
1619,note_on,,59,0,13,,,,,,,,,,,,,,,,12,,67,0
1619,note_on,,59,0,7,,,,,,,,,,,,,,,,5,,69,0
1619,note_on,,59,0,12,,,,,,,,,,,,,,,,11,,67,0
1619,note_on,,59,0,9,,,,,,,,,,,,,,,,7,,67,0
1619,note_on,,59,0,5,,,,,,,,,,,,,,,,1,,69,0
1619,note_on,,59,0,11,,,,,,,,,,,,,,,,10,,83,0
1620,note_on,,1,0,11,,,,,,,,,,,,,,,,10,,78,72
1620,note_on,,1,0,7,,,,,,,,,,,,,,,,5,,66,72
1620,note_on,,1,0,5,,,,,,,,,,,,,,,,1,,66,72
1620,note_on,,1,0,9,,,,,,,,,,,,,,,,7,,62,72
1620,note_on,,1,0,12,,,,,,,,,,,,,,,,11,,62,72
1620,note_on,,1,0,13,,,,,,,,,,,,,,,,12,,62,72
1679,note_on,,59,0,11,,,,,,,,,,,,,,,,10,,78,0
1679,note_on,,59,0,7,,,,,,,,,,,,,,,,5,,66,0
1679,note_on,,59,0,12,,,,,,,,,,,,,,,,11,,62,0
1679,note_on,,119,0,10,,,,,,,,,,,,,,,,8,,55,0
1679,note_on,,59,0,13,,,,,,,,,,,,,,,,12,,62,0
1679,note_on,,59,0,9,,,,,,,,,,,,,,,,7,,62,0
1679,note_on,,119,0,14,,,,,,,,,,,,,,,,13,,55,0
1679,note_on,,0,0,15,,,,,,,,,,,,,,,,15,,67,0
1679,note_on,,0,0,15,,,,,,,,,,,,,,,,15,,62,0
1679,note_on,,119,0,6,,,,,,,,,,,,,,,,2,,55,0
1679,note_on,,0,0,15,,,,,,,,,,,,,,,,15,,55,0
1679,note_on,,59,0,5,,,,,,,,,,,,,,,,1,,66,0
1679,note_on,,119,0,15,,,,,,,,,,,,,,,,15,,74,0
1679,note_on,,0,0,15,,,,,,,,,,,,,,,,15,,71,0
1680,note_on,,1,0,12,,,,,,,,,,,,,,,,11,,64,72
1680,note_on,,1,0,9,,,,,,,,,,,,,,,,7,,64,72
1680,note_on,,1,0,6,,,,,,,,,,,,,,,,2,,64,72
1680,note_on,,1,0,7,,,,,,,,,,,,,,,,5,,67,72
1680,note_on,,1,0,13,,,,,,,,,,,,,,,,12,,64,72
1680,note_on,,1,0,5,,,,,,,,,,,,,,,,1,,67,72
1680,note_on,,0,0,15,,,,,,,,,,,,,,,,15,,67,72
1680,note_on,,0,0,15,,,,,,,,,,,,,,,,15,,71,72
1680,note_on,,1,0,14,,,,,,,,,,,,,,,,13,,64,72
1680,note_on,,1,0,15,,,,,,,,,,,,,,,,15,,64,72
1680,note_on,,1,0,11,,,,,,,,,,,,,,,,10,,79,72
1739,note_on,,0,0,15,,,,,,,,,,,,,,,,15,,71,0
1739,note_on,,59,0,9,,,,,,,,,,,,,,,,7,,64,0
1739,note_on,,59,0,13,,,,,,,,,,,,,,,,12,,64,0
1739,note_on,,59,0,15,,,,,,,,,,,,,,,,15,,64,0
1739,note_on,,0,0,15,,,,,,,,,,,,,,,,15,,67,0
1739,note_on,,59,0,14,,,,,,,,,,,,,,,,13,,64,0
1739,note_on,,59,0,12,,,,,,,,,,,,,,,,11,,64,0
1739,note_on,,59,0,6,,,,,,,,,,,,,,,,2,,64,0
1739,note_on,,59,0,5,,,,,,,,,,,,,,,,1,,67,0
1739,note_on,,59,0,7,,,,,,,,,,,,,,,,5,,67,0
1739,note_on,,59,0,11,,,,,,,,,,,,,,,,10,,79,0
1740,note_on,,1,0,11,,,,,,,,,,,,,,,,10,,81,72
1740,note_on,,1,0,14,,,,,,,,,,,,,,,,13,,60,72
1740,note_on,,1,0,13,,,,,,,,,,,,,,,,12,,60,72
1740,note_on,,1,0,5,,,,,,,,,,,,,,,,1,,69,72
1740,note_on,,1,0,9,,,,,,,,,,,,,,,,7,,60,72
1740,note_on,,1,0,7,,,,,,,,,,,,,,,,5,,69,72
1740,note_on,,1,0,15,,,,,,,,,,,,,,,,15,,60,72
1740,note_on,,0,0,15,,,,,,,,,,,,,,,,15,,72,72
1740,note_on,,1,0,12,,,,,,,,,,,,,,,,11,,60,72
1740,note_on,,0,0,15,,,,,,,,,,,,,,,,15,,69,72
1740,note_on,,0,0,15,,,,,,,,,,,,,,,,15,,64,72
1740,note_on,,1,0,6,,,,,,,,,,,,,,,,2,,60,72
1799,note_on,,59,0,5,,,,,,,,,,,,,,,,1,,69,0
1799,note_on,,59,0,11,,,,,,,,,,,,,,,,10,,81,0
1799,note_on,,59,0,6,,,,,,,,,,,,,,,,2,,60,0
1799,note_on,,59,0,14,,,,,,,,,,,,,,,,13,,60,0
1799,note_on,,59,0,12,,,,,,,,,,,,,,,,11,,60,0
1799,note_on,,59,0,9,,,,,,,,,,,,,,,,7,,60,0
1799,note_on,,59,0,7,,,,,,,,,,,,,,,,5,,69,0
1799,note_on,,59,0,13,,,,,,,,,,,,,,,,12,,60,0
1799,note_on,,0,0,15,,,,,,,,,,,,,,,,15,,69,0
1799,note_on,,0,0,15,,,,,,,,,,,,,,,,15,,72,0
1799,note_on,,0,0,15,,,,,,,,,,,,,,,,15,,64,0
1799,note_on,,59,0,15,,,,,,,,,,,,,,,,15,,60,0
1800,note_on,,1,0,11,,,,,,,,,,,,,,,,10,,83,72
1800,note_on,,1,0,9,,,,,,,,,,,,,,,,7,,62,72
1800,note_on,,1,0,5,,,,,,,,,,,,,,,,1,,69,72
1800,note_on,,0,0,15,,,,,,,,,,,,,,,,15,,62,72
1800,note_on,,0,0,15,,,,,,,,,,,,,,,,15,,67,72
1800,note_on,,0,0,15,,,,,,,,,,,,,,,,15,,71,72
1800,note_on,,0,0,15,,,,,,,,,,,,,,,,15,,74,72
1800,note_on,,1,0,6,,,,,,,,,,,,,,,,2,,55,72
1800,note_on,,1,0,12,,,,,,,,,,,,,,,,11,,62,72
1800,note_on,,1,0,14,,,,,,,,,,,,,,,,13,,55,72
1800,note_on,,1,0,15,,,,,,,,,,,,,,,,15,,55,72
1800,note_on,,121,0,10,,,,,,,,,,,,,,,,8,,55,72
1800,note_on,,1,0,7,,,,,,,,,,,,,,,,5,,69,72
1800,note_on,,1,0,13,,,,,,,,,,,,,,,,12,,62,72
1829,note_on,,29,0,7,,,,,,,,,,,,,,,,5,,69,0
1829,note_on,,29,0,11,,,,,,,,,,,,,,,,10,,83,0
1829,note_on,,29,0,5,,,,,,,,,,,,,,,,1,,69,0
1830,note_on,,1,0,5,,,,,,,,,,,,,,,,1,,72,72
1830,note_on,,1,0,11,,,,,,,,,,,,,,,,10,,84,72
1830,note_on,,1,0,7,,,,,,,,,,,,,,,,5,,72,72
1859,note_on,,29,0,7,,,,,,,,,,,,,,,,5,,72,0
1859,note_on,,0,0,15,,,,,,,,,,,,,,,,15,,71,0
1859,note_on,,0,0,15,,,,,,,,,,,,,,,,15,,67,0
1859,note_on,,0,0,15,,,,,,,,,,,,,,,,15,,62,0
1859,note_on,,29,0,11,,,,,,,,,,,,,,,,10,,84,0
1859,note_on,,59,0,13,,,,,,,,,,,,,,,,12,,62,0
1859,note_on,,59,0,15,,,,,,,,,,,,,,,,15,,55,0
1859,note_on,,59,0,9,,,,,,,,,,,,,,,,7,,62,0
1859,note_on,,59,0,6,,,,,,,,,,,,,,,,2,,55,0
1859,note_on,,59,0,10,,,,,,,,,,,,,,,,8,,55,0
1859,note_on,,29,0,5,,,,,,,,,,,,,,,,1,,72,0
1859,note_on,,59,0,14,,,,,,,,,,,,,,,,13,,55,0
1860,note_on,,1,0,5,,,,,,,,,,,,,,,,1,,74,72
1860,note_on,,1,0,9,,,,,,,,,,,,,,,,7,,54,72
1860,note_on,,1,0,10,,,,,,,,,,,,,,,,8,,50,72
1860,note_on,,1,0,15,,,,,,,,,,,,,,,,15,,50,72
1860,note_on,,1,0,7,,,,,,,,,,,,,,,,5,,74,72
1860,note_on,,0,0,15,,,,,,,,,,,,,,,,15,,62,72
1860,note_on,,0,0,15,,,,,,,,,,,,,,,,15,,69,72
1860,note_on,,1,0,11,,,,,,,,,,,,,,,,10,,86,72
1860,note_on,,1,0,14,,,,,,,,,,,,,,,,13,,50,72
1860,note_on,,1,0,13,,,,,,,,,,,,,,,,12,,54,72
1860,note_on,,1,0,6,,,,,,,,,,,,,,,,2,,50,72
1860,note_on,,0,0,15,,,,,,,,,,,,,,,,15,,66,72
1919,note_on,,59,0,15,,,,,,,,,,,,,,,,15,,74,0
1919,note_on,,59,0,11,,,,,,,,,,,,,,,,10,,86,0
1919,note_on,,59,0,10,,,,,,,,,,,,,,,,8,,50,0
1919,note_on,,59,0,6,,,,,,,,,,,,,,,,2,,50,0
1919,note_on,,0,0,15,,,,,,,,,,,,,,,,15,,50,0
1919,note_on,,0,0,15,,,,,,,,,,,,,,,,15,,69,0
1919,note_on,,0,0,15,,,,,,,,,,,,,,,,15,,66,0
1919,note_on,,59,0,14,,,,,,,,,,,,,,,,13,,50,0
1919,note_on,,119,0,12,,,,,,,,,,,,,,,,11,,62,0
1919,note_on,,59,0,7,,,,,,,,,,,,,,,,5,,74,0
1919,note_on,,59,0,9,,,,,,,,,,,,,,,,7,,54,0
1919,note_on,,59,0,5,,,,,,,,,,,,,,,,1,,74,0
1919,note_on,,0,0,15,,,,,,,,,,,,,,,,15,,62,0
1919,note_on,,59,0,13,,,,,,,,,,,,,,,,12,,54,0
1920,note_on,,1,0,15,,,,,,,,,,,,,,,,15,,52,72
1920,note_on,,0,0,15,,,,,,,,,,,,,,,,15,,67,72
1920,note_on,,1,0,14,,,,,,,,,,,,,,,,13,,52,72
1920,note_on,,0,0,15,,,,,,,,,,,,,,,,15,,64,72
1920,note_on,,0,0,15,,,,,,,,,,,,,,,,15,,55,72
1920,note_on,,361,0,8,,,,,,,,,,,,,,,,6,,67,72
1920,note_on,,1,0,9,,,,,,,,,,,,,,,,7,,57,72
1920,note_on,,1,0,7,,,,,,,,,,,,,,,,5,,67,72
1920,note_on,,0,0,15,,,,,,,,,,,,,,,,15,,71,72
1920,note_on,,1,0,10,,,,,,,,,,,,,,,,8,,52,72
1920,note_on,,1,0,13,,,,,,,,,,,,,,,,12,,59,72
1920,note_on,,1,0,11,,,,,,,,,,,,,,,,10,,79,72
1920,note_on,,1,0,6,,,,,,,,,,,,,,,,2,,52,72
1920,note_on,,1,0,5,,,,,,,,,,,,,,,,1,,67,72
1949,note_on,,29,0,13,,,,,,,,,,,,,,,,12,,59,0
1949,note_on,,29,0,9,,,,,,,,,,,,,,,,7,,57,0
1950,note_on,,1,0,13,,,,,,,,,,,,,,,,12,,60,72
1950,note_on,,1,0,9,,,,,,,,,,,,,,,,7,,60,72
1979,note_on,,59,0,6,,,,,,,,,,,,,,,,2,,52,0
1979,note_on,,59,0,8,,,,,,,,,,,,,,,,6,,67,0
1979,note_on,,29,0,13,,,,,,,,,,,,,,,,12,,60,0
1979,note_on,,29,0,9,,,,,,,,,,,,,,,,7,,60,0
1979,note_on,,59,0,11,,,,,,,,,,,,,,,,10,,79,0
1979,note_on,,59,0,10,,,,,,,,,,,,,,,,8,,52,0
1979,note_on,,59,0,15,,,,,,,,,,,,,,,,15,,52,0
1979,note_on,,0,0,15,,,,,,,,,,,,,,,,15,,64,0
1979,note_on,,0,0,15,,,,,,,,,,,,,,,,15,,55,0
1979,note_on,,59,0,14,,,,,,,,,,,,,,,,13,,52,0
1980,note_on,,1,0,13,,,,,,,,,,,,,,,,12,,62,72
1980,note_on,,1,0,8,,,,,,,,,,,,,,,,6,,62,72
1980,note_on,,1,0,10,,,,,,,,,,,,,,,,8,,47,72
1980,note_on,,0,0,15,,,,,,,,,,,,,,,,15,,62,72
1980,note_on,,1,0,6,,,,,,,,,,,,,,,,2,,47,72
1980,note_on,,1,0,15,,,,,,,,,,,,,,,,15,,47,72
1980,note_on,,1,0,11,,,,,,,,,,,,,,,,10,,74,72
1980,note_on,,1,0,14,,,,,,,,,,,,,,,,13,,47,72
1980,note_on,,1,0,9,,,,,,,,,,,,,,,,7,,62,72
1980,note_on,,0,0,15,,,,,,,,,,,,,,,,15,,55,72
2039,note_on,,59,0,10,,,,,,,,,,,,,,,,8,,47,0
2039,note_on,,119,0,5,,,,,,,,,,,,,,,,1,,67,0
2039,note_on,,59,0,13,,,,,,,,,,,,,,,,12,,62,0
2039,note_on,,59,0,14,,,,,,,,,,,,,,,,13,,47,0
2039,note_on,,0,0,15,,,,,,,,,,,,,,,,15,,55,0
2039,note_on,,119,0,7,,,,,,,,,,,,,,,,5,,67,0
2039,note_on,,59,0,8,,,,,,,,,,,,,,,,6,,62,0
2039,note_on,,59,0,11,,,,,,,,,,,,,,,,10,,74,0
2039,note_on,,59,0,6,,,,,,,,,,,,,,,,2,,47,0
2039,note_on,,0,0,15,,,,,,,,,,,,,,,,15,,62,0
2039,note_on,,0,0,15,,,,,,,,,,,,,,,,15,,47,0
2039,note_on,,0,0,15,,,,,,,,,,,,,,,,15,,67,0
2039,note_on,,59,0,15,,,,,,,,,,,,,,,,15,,71,0
2039,note_on,,59,0,9,,,,,,,,,,,,,,,,7,,62,0
2040,note_on,,1,0,11,,,,,,,,,,,,,,,,10,,76,72
2040,note_on,,1,0,6,,,,,,,,,,,,,,,,2,,48,72
2040,note_on,,1,0,10,,,,,,,,,,,,,,,,8,,48,72
2040,note_on,,1,0,14,,,,,,,,,,,,,,,,13,,48,72
2040,note_on,,1,0,9,,,,,,,,,,,,,,,,7,,55,72
2040,note_on,,0,0,15,,,,,,,,,,,,,,,,15,,55,72
2040,note_on,,0,0,15,,,,,,,,,,,,,,,,15,,60,72
2040,note_on,,1,0,13,,,,,,,,,,,,,,,,12,,55,72
2040,note_on,,0,0,15,,,,,,,,,,,,,,,,15,,67,72
2040,note_on,,1,0,15,,,,,,,,,,,,,,,,15,,48,72
2040,note_on,,1,0,8,,,,,,,,,,,,,,,,6,,64,72
2040,note_on,,0,0,15,,,,,,,,,,,,,,,,15,,64,72
2099,note_on,,59,0,14,,,,,,,,,,,,,,,,13,,48,0
2099,note_on,,59,0,10,,,,,,,,,,,,,,,,8,,48,0
2099,note_on,,59,0,11,,,,,,,,,,,,,,,,10,,76,0
2099,note_on,,0,0,15,,,,,,,,,,,,,,,,15,,55,0
2099,note_on,,59,0,6,,,,,,,,,,,,,,,,2,,48,0
2099,note_on,,59,0,8,,,,,,,,,,,,,,,,6,,64,0
2099,note_on,,0,0,15,,,,,,,,,,,,,,,,15,,60,0
2099,note_on,,59,0,15,,,,,,,,,,,,,,,,15,,48,0
2100,note_on,,1,0,6,,,,,,,,,,,,,,,,2,,52,72
2100,note_on,,1,0,14,,,,,,,,,,,,,,,,13,,52,72
2100,note_on,,0,0,15,,,,,,,,,,,,,,,,15,,55,72
2100,note_on,,0,0,15,,,,,,,,,,,,,,,,15,,59,72
2100,note_on,,1,0,15,,,,,,,,,,,,,,,,15,,52,72
2100,note_on,,1,0,10,,,,,,,,,,,,,,,,8,,52,72
2100,note_on,,1,0,11,,,,,,,,,,,,,,,,10,,71,72
2100,note_on,,1,0,8,,,,,,,,,,,,,,,,6,,59,72
2159,note_on,,59,0,6,,,,,,,,,,,,,,,,2,,52,0
2159,note_on,,0,0,15,,,,,,,,,,,,,,,,15,,55,0
2159,note_on,,0,0,15,,,,,,,,,,,,,,,,15,,64,0
2159,note_on,,0,0,15,,,,,,,,,,,,,,,,15,,52,0
2159,note_on,,0,0,15,,,,,,,,,,,,,,,,15,,59,0
2159,note_on,,59,0,15,,,,,,,,,,,,,,,,15,,67,0
2159,note_on,,119,0,9,,,,,,,,,,,,,,,,7,,55,0
2159,note_on,,119,0,13,,,,,,,,,,,,,,,,12,,55,0
2159,note_on,,59,0,11,,,,,,,,,,,,,,,,10,,71,0
2159,note_on,,59,0,10,,,,,,,,,,,,,,,,8,,52,0
2159,note_on,,59,0,8,,,,,,,,,,,,,,,,6,,59,0
2159,note_on,,59,0,14,,,,,,,,,,,,,,,,13,,52,0
2160,note_on,,1,0,14,,,,,,,,,,,,,,,,13,,57,72
2160,note_on,,1,0,8,,,,,,,,,,,,,,,,6,,60,72
2160,note_on,,1,0,11,,,,,,,,,,,,,,,,10,,72,72
2160,note_on,,0,0,15,,,,,,,,,,,,,,,,15,,64,72
2160,note_on,,1,0,15,,,,,,,,,,,,,,,,15,,57,72
2160,note_on,,0,0,15,,,,,,,,,,,,,,,,15,,60,72
2160,note_on,,1,0,6,,,,,,,,,,,,,,,,2,,57,72
2160,note_on,,1,0,10,,,,,,,,,,,,,,,,8,,57,72
2189,note_on,,29,0,11,,,,,,,,,,,,,,,,10,,72,0
2189,note_on,,29,0,8,,,,,,,,,,,,,,,,6,,60,0
2190,note_on,,1,0,11,,,,,,,,,,,,,,,,10,,74,72
2190,note_on,,1,0,8,,,,,,,,,,,,,,,,6,,62,72
2219,note_on,,0,0,15,,,,,,,,,,,,,,,,15,,60,0
2219,note_on,,59,0,14,,,,,,,,,,,,,,,,13,,57,0
2219,note_on,,29,0,11,,,,,,,,,,,,,,,,10,,74,0
2219,note_on,,59,0,6,,,,,,,,,,,,,,,,2,,57,0
2219,note_on,,59,0,10,,,,,,,,,,,,,,,,8,,57,0
2219,note_on,,59,0,15,,,,,,,,,,,,,,,,15,,57,0
2219,note_on,,29,0,8,,,,,,,,,,,,,,,,6,,62,0
2220,note_on,,1,0,14,,,,,,,,,,,,,,,,13,,55,72
2220,note_on,,1,0,6,,,,,,,,,,,,,,,,2,,55,72
2220,note_on,,1,0,11,,,,,,,,,,,,,,,,10,,76,72
2220,note_on,,1,0,15,,,,,,,,,,,,,,,,15,,55,72
2220,note_on,,0,0,15,,,,,,,,,,,,,,,,15,,59,72
2220,note_on,,1,0,10,,,,,,,,,,,,,,,,8,,55,72
2220,note_on,,1,0,8,,,,,,,,,,,,,,,,6,,64,72
2279,note_on,,59,0,8,,,,,,,,,,,,,,,,6,,64,0
2279,note_on,,0,0,15,,,,,,,,,,,,,,,,15,,59,0
2279,note_on,,59,0,6,,,,,,,,,,,,,,,,2,,55,0
2279,note_on,,0,0,15,,,,,,,,,,,,,,,,15,,55,0
2279,note_on,,59,0,15,,,,,,,,,,,,,,,,15,,64,0
2279,note_on,,59,0,14,,,,,,,,,,,,,,,,13,,55,0
2279,note_on,,59,0,11,,,,,,,,,,,,,,,,10,,76,0
2279,note_on,,59,0,10,,,,,,,,,,,,,,,,8,,55,0
2280,note_on,,0,0,15,,,,,,,,,,,,,,,,15,,69,72
2280,note_on,,1,0,15,,,,,,,,,,,,,,,,15,,54,72
2280,note_on,,0,0,15,,,,,,,,,,,,,,,,15,,62,72
2280,note_on,,0,0,15,,,,,,,,,,,,,,,,15,,57,72
2280,note_on,,1,0,14,,,,,,,,,,,,,,,,13,,54,72
2280,note_on,,1,0,6,,,,,,,,,,,,,,,,2,,54,72
2280,note_on,,1,0,11,,,,,,,,,,,,,,,,10,,74,72
2280,note_on,,1,0,10,,,,,,,,,,,,,,,,8,,54,72
2280,note_on,,1,0,8,,,,,,,,,,,,,,,,6,,62,72
2309,note_on,,29,0,14,,,,,,,,,,,,,,,,13,,54,0
2309,note_on,,29,0,6,,,,,,,,,,,,,,,,2,,54,0
2309,note_on,,29,0,10,,,,,,,,,,,,,,,,8,,54,0
2309,note_on,,0,0,15,,,,,,,,,,,,,,,,15,,57,0
2309,note_on,,29,0,15,,,,,,,,,,,,,,,,15,,54,0
2310,note_on,,1,0,6,,,,,,,,,,,,,,,,2,,55,72
2310,note_on,,1,0,15,,,,,,,,,,,,,,,,15,,55,72
2310,note_on,,0,0,15,,,,,,,,,,,,,,,,15,,59,72
2310,note_on,,1,0,14,,,,,,,,,,,,,,,,13,,55,72
2310,note_on,,1,0,10,,,,,,,,,,,,,,,,8,,55,72
2339,note_on,,59,0,11,,,,,,,,,,,,,,,,10,,74,0
2339,note_on,,29,0,10,,,,,,,,,,,,,,,,8,,55,0
2339,note_on,,0,0,15,,,,,,,,,,,,,,,,15,,55,0
2339,note_on,,59,0,8,,,,,,,,,,,,,,,,6,,62,0
2339,note_on,,29,0,6,,,,,,,,,,,,,,,,2,,55,0
2339,note_on,,29,0,14,,,,,,,,,,,,,,,,13,,55,0
2339,note_on,,29,0,15,,,,,,,,,,,,,,,,15,,69,0
2339,note_on,,0,0,15,,,,,,,,,,,,,,,,15,,62,0
2339,note_on,,0,0,15,,,,,,,,,,,,,,,,15,,59,0
2340,note_on,,0,0,15,,,,,,,,,,,,,,,,15,,66,72
2340,note_on,,1,0,14,,,,,,,,,,,,,,,,13,,57,72
2340,note_on,,1,0,11,,,,,,,,,,,,,,,,10,,72,72
2340,note_on,,0,0,15,,,,,,,,,,,,,,,,15,,60,72
2340,note_on,,1,0,10,,,,,,,,,,,,,,,,8,,57,72
2340,note_on,,1,0,8,,,,,,,,,,,,,,,,6,,60,72
2340,note_on,,1,0,6,,,,,,,,,,,,,,,,2,,57,72
2340,note_on,,1,0,15,,,,,,,,,,,,,,,,15,,57,72
2399,note_on,,59,0,8,,,,,,,,,,,,,,,,6,,60,0
2399,note_on,,59,0,11,,,,,,,,,,,,,,,,10,,72,0
2399,note_on,,0,0,15,,,,,,,,,,,,,,,,15,,60,0
2399,note_on,,59,0,6,,,,,,,,,,,,,,,,2,,57,0
2399,note_on,,59,0,10,,,,,,,,,,,,,,,,8,,57,0
2399,note_on,,0,0,15,,,,,,,,,,,,,,,,15,,66,0
2399,note_on,,59,0,15,,,,,,,,,,,,,,,,15,,57,0
2399,note_on,,59,0,14,,,,,,,,,,,,,,,,13,,57,0
2400,note_on,,0,0,15,,,,,,,,,,,,,,,,15,,59,72
2400,note_on,,0,0,15,,,,,,,,,,,,,,,,15,,62,72
2400,note_on,,0,0,15,,,,,,,,,,,,,,,,15,,67,72
2400,note_on,,1,0,15,,,,,,,,,,,,,,,,15,,55,72
2400,note_on,,1,0,11,,,,,,,,,,,,,,,,10,,71,72
2400,note_on,,1,0,14,,,,,,,,,,,,,,,,13,,55,72
2400,note_on,,1,0,6,,,,,,,,,,,,,,,,2,,55,72
2400,note_on,,1,0,8,,,,,,,,,,,,,,,,6,,59,72
2400,note_on,,1,0,10,,,,,,,,,,,,,,,,8,,55,72
2459,note_on,,0,0,15,,,,,,,,,,,,,,,,15,,59,0
2459,note_on,,59,0,10,,,,,,,,,,,,,,,,8,,55,0
2459,note_on,,59,0,14,,,,,,,,,,,,,,,,13,,55,0
2459,note_on,,59,0,8,,,,,,,,,,,,,,,,6,,59,0
2459,note_on,,59,0,15,,,,,,,,,,,,,,,,15,,55,0
2459,note_on,,0,0,15,,,,,,,,,,,,,,,,15,,62,0
2459,note_on,,59,0,6,,,,,,,,,,,,,,,,2,,55,0
2459,note_on,,59,0,11,,,,,,,,,,,,,,,,10,,71,0
2460,note_on,,1,0,10,,,,,,,,,,,,,,,,8,,52,72
2460,note_on,,1,0,11,,,,,,,,,,,,,,,,10,,73,72
2460,note_on,,0,0,15,,,,,,,,,,,,,,,,15,,61,72
2460,note_on,,0,0,15,,,,,,,,,,,,,,,,15,,64,72
2460,note_on,,1,0,15,,,,,,,,,,,,,,,,15,,52,72
2460,note_on,,1,0,14,,,,,,,,,,,,,,,,13,,52,72
2460,note_on,,1,0,8,,,,,,,,,,,,,,,,6,,61,72
2460,note_on,,1,0,6,,,,,,,,,,,,,,,,2,,52,72
2519,note_on,,59,0,8,,,,,,,,,,,,,,,,6,,61,0
2519,note_on,,59,0,11,,,,,,,,,,,,,,,,10,,73,0
2519,note_on,,59,0,15,,,,,,,,,,,,,,,,15,,67,0
2519,note_on,,59,0,14,,,,,,,,,,,,,,,,13,,52,0
2519,note_on,,0,0,15,,,,,,,,,,,,,,,,15,,52,0
2519,note_on,,0,0,15,,,,,,,,,,,,,,,,15,,64,0
2519,note_on,,0,0,15,,,,,,,,,,,,,,,,15,,61,0
2519,note_on,,59,0,10,,,,,,,,,,,,,,,,8,,52,0
2519,note_on,,59,0,6,,,,,,,,,,,,,,,,2,,52,0
2520,note_on,,1,0,11,,,,,,,,,,,,,,,,10,,74,72
2520,note_on,,481,0,7,,,,,,,,,,,,,,,,5,,74,72
2520,note_on,,361,0,9,,,,,,,,,,,,,,,,7,,57,72
2520,note_on,,361,0,13,,,,,,,,,,,,,,,,12,,69,72
2520,note_on,,481,0,5,,,,,,,,,,,,,,,,1,,74,72
2520,note_on,,1,0,6,,,,,,,,,,,,,,,,2,,54,72
2520,note_on,,1,0,15,,,,,,,,,,,,,,,,15,,54,72
2520,note_on,,1,0,14,,,,,,,,,,,,,,,,13,,54,72
2520,note_on,,1,0,10,,,,,,,,,,,,,,,,8,,54,72
2520,note_on,,601,0,12,,,,,,,,,,,,,,,,11,,86,72
2520,note_on,,0,0,15,,,,,,,,,,,,,,,,15,,57,72
2520,note_on,,0,0,15,,,,,,,,,,,,,,,,15,,69,72
2520,note_on,,0,0,15,,,,,,,,,,,,,,,,15,,62,72
2520,note_on,,1,0,8,,,,,,,,,,,,,,,,6,,62,72
2579,note_on,,59,0,13,,,,,,,,,,,,,,,,12,,69,0
2579,note_on,,59,0,5,,,,,,,,,,,,,,,,1,,74,0
2579,note_on,,0,0,15,,,,,,,,,,,,,,,,15,,57,0
2579,note_on,,0,0,15,,,,,,,,,,,,,,,,15,,62,0
2579,note_on,,0,0,15,,,,,,,,,,,,,,,,15,,69,0
2579,note_on,,59,0,15,,,,,,,,,,,,,,,,15,,54,0
2579,note_on,,59,0,9,,,,,,,,,,,,,,,,7,,57,0
2579,note_on,,59,0,7,,,,,,,,,,,,,,,,5,,74,0
2579,note_on,,59,0,6,,,,,,,,,,,,,,,,2,,54,0
2579,note_on,,59,0,12,,,,,,,,,,,,,,,,11,,86,0
2579,note_on,,59,0,10,,,,,,,,,,,,,,,,8,,54,0
2579,note_on,,59,0,14,,,,,,,,,,,,,,,,13,,54,0
2579,note_on,,59,0,8,,,,,,,,,,,,,,,,6,,62,0
2580,note_on,,1,0,7,,,,,,,,,,,,,,,,5,,69,72
2580,note_on,,1,0,12,,,,,,,,,,,,,,,,11,,81,72
2580,note_on,,1,0,10,,,,,,,,,,,,,,,,8,,50,72
2580,note_on,,1,0,15,,,,,,,,,,,,,,,,15,,50,72
2580,note_on,,0,0,15,,,,,,,,,,,,,,,,15,,57,72
2580,note_on,,0,0,15,,,,,,,,,,,,,,,,15,,66,72
2580,note_on,,0,0,15,,,,,,,,,,,,,,,,15,,69,72
2580,note_on,,1,0,9,,,,,,,,,,,,,,,,7,,54,72
2580,note_on,,0,0,15,,,,,,,,,,,,,,,,15,,74,72
2580,note_on,,1,0,6,,,,,,,,,,,,,,,,2,,50,72
2580,note_on,,1,0,13,,,,,,,,,,,,,,,,12,,66,72
2580,note_on,,1,0,5,,,,,,,,,,,,,,,,1,,69,72
2580,note_on,,1,0,8,,,,,,,,,,,,,,,,6,,62,72
2580,note_on,,1,0,14,,,,,,,,,,,,,,,,13,,50,72
2639,note_on,,59,0,13,,,,,,,,,,,,,,,,12,,66,0
2639,note_on,,59,0,12,,,,,,,,,,,,,,,,11,,81,0
2639,note_on,,59,0,15,,,,,,,,,,,,,,,,15,,50,0
2639,note_on,,59,0,14,,,,,,,,,,,,,,,,13,,50,0
2639,note_on,,59,0,5,,,,,,,,,,,,,,,,1,,69,0
2639,note_on,,0,0,15,,,,,,,,,,,,,,,,15,,57,0
2639,note_on,,0,0,15,,,,,,,,,,,,,,,,15,,74,0
2639,note_on,,0,0,15,,,,,,,,,,,,,,,,15,,69,0
2639,note_on,,0,0,15,,,,,,,,,,,,,,,,15,,66,0
2639,note_on,,59,0,9,,,,,,,,,,,,,,,,7,,54,0
2639,note_on,,59,0,10,,,,,,,,,,,,,,,,8,,50,0
2639,note_on,,59,0,6,,,,,,,,,,,,,,,,2,,50,0
2639,note_on,,119,0,11,,,,,,,,,,,,,,,,10,,74,0
2639,note_on,,59,0,7,,,,,,,,,,,,,,,,5,,69,0
2639,note_on,,59,0,8,,,,,,,,,,,,,,,,6,,62,0
2640,note_on,,1,0,9,,,,,,,,,,,,,,,,7,,62,72
2640,note_on,,1,0,13,,,,,,,,,,,,,,,,12,,71,72
2640,note_on,,1,0,12,,,,,,,,,,,,,,,,11,,83,72
2640,note_on,,1,0,14,,,,,,,,,,,,,,,,13,,55,72
2640,note_on,,1,0,6,,,,,,,,,,,,,,,,2,,55,72
2640,note_on,,1,0,5,,,,,,,,,,,,,,,,1,,71,72
2640,note_on,,1,0,8,,,,,,,,,,,,,,,,6,,62,72
2640,note_on,,0,0,15,,,,,,,,,,,,,,,,15,,67,72
2640,note_on,,1,0,15,,,,,,,,,,,,,,,,15,,55,72
2640,note_on,,0,0,15,,,,,,,,,,,,,,,,15,,59,72
2640,note_on,,0,0,15,,,,,,,,,,,,,,,,15,,71,72
2640,note_on,,1,0,10,,,,,,,,,,,,,,,,8,,55,72
2640,note_on,,0,0,15,,,,,,,,,,,,,,,,15,,62,72
2640,note_on,,1,0,7,,,,,,,,,,,,,,,,5,,71,72
2669,note_on,,29,0,13,,,,,,,,,,,,,,,,12,,71,0
2670,note_on,,1,0,13,,,,,,,,,,,,,,,,12,,73,72
2699,note_on,,59,0,6,,,,,,,,,,,,,,,,2,,55,0
2699,note_on,,59,0,7,,,,,,,,,,,,,,,,5,,71,0
2699,note_on,,59,0,9,,,,,,,,,,,,,,,,7,,62,0
2699,note_on,,59,0,14,,,,,,,,,,,,,,,,13,,55,0
2699,note_on,,59,0,10,,,,,,,,,,,,,,,,8,,55,0
2699,note_on,,59,0,8,,,,,,,,,,,,,,,,6,,62,0
2699,note_on,,59,0,12,,,,,,,,,,,,,,,,11,,83,0
2699,note_on,,0,0,15,,,,,,,,,,,,,,,,15,,62,0
2699,note_on,,0,0,15,,,,,,,,,,,,,,,,15,,71,0
2699,note_on,,0,0,15,,,,,,,,,,,,,,,,15,,59,0
2699,note_on,,59,0,15,,,,,,,,,,,,,,,,15,,55,0
2699,note_on,,59,0,5,,,,,,,,,,,,,,,,1,,71,0
2699,note_on,,0,0,15,,,,,,,,,,,,,,,,15,,67,0
2699,note_on,,29,0,13,,,,,,,,,,,,,,,,12,,73,0
2700,note_on,,1,0,12,,,,,,,,,,,,,,,,11,,78,72
2700,note_on,,0,0,15,,,,,,,,,,,,,,,,15,,74,72
2700,note_on,,0,0,15,,,,,,,,,,,,,,,,15,,57,72
2700,note_on,,0,0,15,,,,,,,,,,,,,,,,15,,54,72
2700,note_on,,1,0,15,,,,,,,,,,,,,,,,15,,69,72
2700,note_on,,1,0,7,,,,,,,,,,,,,,,,5,,74,72
2700,note_on,,1,0,14,,,,,,,,,,,,,,,,13,,54,72
2700,note_on,,1,0,6,,,,,,,,,,,,,,,,2,,54,72
2700,note_on,,1,0,8,,,,,,,,,,,,,,,,6,,66,72
2700,note_on,,0,0,15,,,,,,,,,,,,,,,,15,,66,72
2700,note_on,,1,0,10,,,,,,,,,,,,,,,,8,,54,72
2700,note_on,,1,0,9,,,,,,,,,,,,,,,,7,,57,72
2700,note_on,,1,0,13,,,,,,,,,,,,,,,,12,,74,72
2700,note_on,,1,0,5,,,,,,,,,,,,,,,,1,,74,72
2759,note_on,,59,0,6,,,,,,,,,,,,,,,,2,,54,0
2759,note_on,,0,0,15,,,,,,,,,,,,,,,,15,,57,0
2759,note_on,,0,0,15,,,,,,,,,,,,,,,,15,,54,0
2759,note_on,,59,0,14,,,,,,,,,,,,,,,,13,,54,0
2759,note_on,,59,0,7,,,,,,,,,,,,,,,,5,,74,0
2759,note_on,,0,0,15,,,,,,,,,,,,,,,,15,,74,0
2759,note_on,,59,0,8,,,,,,,,,,,,,,,,6,,66,0
2759,note_on,,59,0,9,,,,,,,,,,,,,,,,7,,57,0
2759,note_on,,59,0,12,,,,,,,,,,,,,,,,11,,78,0
2759,note_on,,59,0,15,,,,,,,,,,,,,,,,15,,69,0
2759,note_on,,59,0,5,,,,,,,,,,,,,,,,1,,74,0
2759,note_on,,0,0,15,,,,,,,,,,,,,,,,15,,66,0
2759,note_on,,59,0,13,,,,,,,,,,,,,,,,12,,74,0
2759,note_on,,59,0,10,,,,,,,,,,,,,,,,8,,54,0
2760,note_on,,1,0,7,,,,,,,,,,,,,,,,5,,79,72
2760,note_on,,1,0,10,,,,,,,,,,,,,,,,8,,52,72
2760,note_on,,1,0,8,,,,,,,,,,,,,,,,6,,67,72
2760,note_on,,0,0,15,,,,,,,,,,,,,,,,15,,67,72
2760,note_on,,1,0,12,,,,,,,,,,,,,,,,11,,79,72
2760,note_on,,1,0,6,,,,,,,,,,,,,,,,2,,52,72
2760,note_on,,0,0,15,,,,,,,,,,,,,,,,15,,74,72
2760,note_on,,0,0,15,,,,,,,,,,,,,,,,15,,52,72
2760,note_on,,1,0,15,,,,,,,,,,,,,,,,15,,55,72
2760,note_on,,1,0,9,,,,,,,,,,,,,,,,7,,59,72
2760,note_on,,1,0,13,,,,,,,,,,,,,,,,12,,59,72
2760,note_on,,1,0,5,,,,,,,,,,,,,,,,1,,79,72
2760,note_on,,0,0,15,,,,,,,,,,,,,,,,15,,76,72
2760,note_on,,1,0,14,,,,,,,,,,,,,,,,13,,52,72
2819,note_on,,59,0,9,,,,,,,,,,,,,,,,7,,59,0
2819,note_on,,59,0,10,,,,,,,,,,,,,,,,8,,52,0
2819,note_on,,59,0,5,,,,,,,,,,,,,,,,1,,79,0
2819,note_on,,0,0,15,,,,,,,,,,,,,,,,15,,67,0
2819,note_on,,0,0,15,,,,,,,,,,,,,,,,15,,74,0
2819,note_on,,0,0,15,,,,,,,,,,,,,,,,15,,52,0
2819,note_on,,59,0,7,,,,,,,,,,,,,,,,5,,79,0
2819,note_on,,59,0,12,,,,,,,,,,,,,,,,11,,79,0
2819,note_on,,59,0,13,,,,,,,,,,,,,,,,12,,59,0
2819,note_on,,59,0,8,,,,,,,,,,,,,,,,6,,67,0
2819,note_on,,59,0,15,,,,,,,,,,,,,,,,15,,55,0
2819,note_on,,59,0,14,,,,,,,,,,,,,,,,13,,52,0
2819,note_on,,59,0,6,,,,,,,,,,,,,,,,2,,52,0
2820,note_on,,0,0,15,,,,,,,,,,,,,,,,15,,64,72
2820,note_on,,1,0,10,,,,,,,,,,,,,,,,8,,57,72
2820,note_on,,1,0,14,,,,,,,,,,,,,,,,13,,57,72
2820,note_on,,1,0,9,,,,,,,,,,,,,,,,7,,61,72
2820,note_on,,1,0,15,,,,,,,,,,,,,,,,15,,57,72
2820,note_on,,1,0,12,,,,,,,,,,,,,,,,11,,76,72
2820,note_on,,1,0,6,,,,,,,,,,,,,,,,2,,57,72
2820,note_on,,1,0,8,,,,,,,,,,,,,,,,6,,69,72
2820,note_on,,1,0,7,,,,,,,,,,,,,,,,5,,76,72
2820,note_on,,0,0,15,,,,,,,,,,,,,,,,15,,73,72
2820,note_on,,1,0,5,,,,,,,,,,,,,,,,1,,76,72
2820,note_on,,1,0,13,,,,,,,,,,,,,,,,12,,61,72
2879,note_on,,59,0,8,,,,,,,,,,,,,,,,6,,69,0
2879,note_on,,59,0,13,,,,,,,,,,,,,,,,12,,61,0
2879,note_on,,59,0,12,,,,,,,,,,,,,,,,11,,76,0
2879,note_on,,59,0,15,,,,,,,,,,,,,,,,15,,76,0
2879,note_on,,0,0,15,,,,,,,,,,,,,,,,15,,73,0
2879,note_on,,0,0,15,,,,,,,,,,,,,,,,15,,64,0
2879,note_on,,59,0,10,,,,,,,,,,,,,,,,8,,57,0
2879,note_on,,0,0,15,,,,,,,,,,,,,,,,15,,57,0
2879,note_on,,59,0,9,,,,,,,,,,,,,,,,7,,61,0
2879,note_on,,59,0,5,,,,,,,,,,,,,,,,1,,76,0
2879,note_on,,59,0,6,,,,,,,,,,,,,,,,2,,57,0
2879,note_on,,59,0,7,,,,,,,,,,,,,,,,5,,76,0
2879,note_on,,59,0,14,,,,,,,,,,,,,,,,13,,57,0
2880,note_on,,1,0,14,,,,,,,,,,,,,,,,13,,50,72
2880,note_on,,1,0,10,,,,,,,,,,,,,,,,8,,50,72
2880,note_on,,1,0,5,,,,,,,,,,,,,,,,1,,78,72
2880,note_on,,1,0,12,,,,,,,,,,,,,,,,11,,66,72
2880,note_on,,1,0,6,,,,,,,,,,,,,,,,2,,50,72
2880,note_on,,1,0,8,,,,,,,,,,,,,,,,6,,69,72
2880,note_on,,1,0,13,,,,,,,,,,,,,,,,12,,62,72
2880,note_on,,1,0,15,,,,,,,,,,,,,,,,15,,50,72
2880,note_on,,241,0,11,,,,,,,,,,,,,,,,10,,81,72
2880,note_on,,1,0,7,,,,,,,,,,,,,,,,5,,78,72
2880,note_on,,0,0,15,,,,,,,,,,,,,,,,15,,78,72
2880,note_on,,0,0,15,,,,,,,,,,,,,,,,15,,74,72
2880,note_on,,0,0,15,,,,,,,,,,,,,,,,15,,69,72
2880,note_on,,0,0,15,,,,,,,,,,,,,,,,15,,57,72
2880,note_on,,1,0,9,,,,,,,,,,,,,,,,7,,62,72
2939,note_on,,59,0,11,,,,,,,,,,,,,,,,10,,81,0
2940,note_on,,1,0,11,,,,,,,,,,,,,,,,10,,76,72
2969,note_on,,89,0,7,,,,,,,,,,,,,,,,5,,78,0
2969,note_on,,89,0,8,,,,,,,,,,,,,,,,6,,69,0
2969,note_on,,89,0,5,,,,,,,,,,,,,,,,1,,78,0
2970,note_on,,1,0,7,,,,,,,,,,,,,,,,5,,76,72
2970,note_on,,1,0,8,,,,,,,,,,,,,,,,6,,67,72
2970,note_on,,1,0,5,,,,,,,,,,,,,,,,1,,76,72
2999,note_on,,59,0,11,,,,,,,,,,,,,,,,10,,76,0
2999,note_on,,119,0,9,,,,,,,,,,,,,,,,7,,62,0
2999,note_on,,119,0,6,,,,,,,,,,,,,,,,2,,50,0
2999,note_on,,119,0,13,,,,,,,,,,,,,,,,12,,62,0
2999,note_on,,29,0,7,,,,,,,,,,,,,,,,5,,76,0
2999,note_on,,29,0,8,,,,,,,,,,,,,,,,6,,67,0
2999,note_on,,0,0,15,,,,,,,,,,,,,,,,15,,57,0
2999,note_on,,119,0,10,,,,,,,,,,,,,,,,8,,50,0
2999,note_on,,119,0,14,,,,,,,,,,,,,,,,13,,50,0
2999,note_on,,0,0,15,,,,,,,,,,,,,,,,15,,69,0
2999,note_on,,0,0,15,,,,,,,,,,,,,,,,15,,74,0
2999,note_on,,119,0,12,,,,,,,,,,,,,,,,11,,66,0
2999,note_on,,0,0,15,,,,,,,,,,,,,,,,15,,78,0
2999,note_on,,119,0,15,,,,,,,,,,,,,,,,15,,50,0
2999,note_on,,29,0,5,,,,,,,,,,,,,,,,1,,76,0
3000,note_on,,1,0,14,,,,,,,,,,,,,,,,13,,38,72
3000,note_on,,0,0,15,,,,,,,,,,,,,,,,15,,66,72
3000,note_on,,0,0,15,,,,,,,,,,,,,,,,15,,74,72
3000,note_on,,0,0,15,,,,,,,,,,,,,,,,15,,50,72
3000,note_on,,0,0,15,,,,,,,,,,,,,,,,15,,69,72
3000,note_on,,1,0,15,,,,,,,,,,,,,,,,15,,38,72
3000,note_on,,1,0,6,,,,,,,,,,,,,,,,2,,38,72
3000,note_on,,1,0,13,,,,,,,,,,,,,,,,12,,62,72
3000,note_on,,1,0,7,,,,,,,,,,,,,,,,5,,74,72
3000,note_on,,1,0,11,,,,,,,,,,,,,,,,10,,78,72
3000,note_on,,1,0,5,,,,,,,,,,,,,,,,1,,74,72
3000,note_on,,1,0,8,,,,,,,,,,,,,,,,6,,66,72
3000,note_on,,1,0,12,,,,,,,,,,,,,,,,11,,81,72
3000,note_on,,1,0,9,,,,,,,,,,,,,,,,7,,57,72
3000,note_on,,1,0,10,,,,,,,,,,,,,,,,8,,50,72
3059,note_on,,59,0,11,,,,,,,,,,,,,,,,10,,78,0
3059,note_on,,59,0,12,,,,,,,,,,,,,,,,11,,81,0
3060,note_on,,1,0,11,,,,,,,,,,,,,,,,10,,73,72
3060,note_on,,1,0,12,,,,,,,,,,,,,,,,11,,76,72
3119,note_on,,119,0,15,,,,,,,,,,,,,,,,15,,38,0
3119,note_on,,0,0,15,,,,,,,,,,,,,,,,15,,66,0
3119,note_on,,0,0,15,,,,,,,,,,,,,,,,15,,69,0
3119,note_on,,119,0,13,,,,,,,,,,,,,,,,12,,62,0
3119,note_on,,59,0,12,,,,,,,,,,,,,,,,11,,76,0
3119,note_on,,119,0,7,,,,,,,,,,,,,,,,5,,74,0
3119,note_on,,0,0,15,,,,,,,,,,,,,,,,15,,74,0
3119,note_on,,119,0,8,,,,,,,,,,,,,,,,6,,66,0
3119,note_on,,119,0,6,,,,,,,,,,,,,,,,2,,38,0
3119,note_on,,119,0,5,,,,,,,,,,,,,,,,1,,74,0
3119,note_on,,119,0,10,,,,,,,,,,,,,,,,8,,50,0
3119,note_on,,119,0,9,,,,,,,,,,,,,,,,7,,57,0
3119,note_on,,119,0,14,,,,,,,,,,,,,,,,13,,38,0
3119,note_on,,0,0,15,,,,,,,,,,,,,,,,15,,50,0
3119,note_on,,59,0,11,,,,,,,,,,,,,,,,10,,73,0
3120,note_on,,1,0,12,,,,,,,,,,,,,,,,11,,78,72
3120,note_on,,1,0,11,,,,,,,,,,,,,,,,10,,74,72
3179,note_on,,59,0,12,,,,,,,,,,,,,,,,11,,78,0
3179,note_on,,59,0,11,,,,,,,,,,,,,,,,10,,74,0
3180,note_on,,1,0,11,,,,,,,,,,,,,,,,10,,69,72
3180,note_on,,1,0,12,,,,,,,,,,,,,,,,11,,73,72
3239,note_on,,59,0,12,,,,,,,,,,,,,,,,11,,73,0
3239,note_on,,59,0,11,,,,,,,,,,,,,,,,10,,69,0
3240,note_on,,1,0,12,,,,,,,,,,,,,,,,11,,74,72
3240,note_on,,121,0,6,,,,,,,,,,,,,,,,2,,62,72
3240,note_on,,121,0,15,,,,,,,,,,,,,,,,15,,62,72
3240,note_on,,121,0,9,,,,,,,,,,,,,,,,7,,62,72
3240,note_on,,1,0,11,,,,,,,,,,,,,,,,10,,66,72
3240,note_on,,121,0,13,,,,,,,,,,,,,,,,12,,62,72
3240,note_on,,121,0,14,,,,,,,,,,,,,,,,13,,62,72
3329,note_on,,89,0,13,,,,,,,,,,,,,,,,12,,62,0
3359,note_on,,119,0,12,,,,,,,,,,,,,,,,11,,74,0
3359,note_on,,119,0,14,,,,,,,,,,,,,,,,13,,62,0
3359,note_on,,119,0,6,,,,,,,,,,,,,,,,2,,62,0
3359,note_on,,119,0,15,,,,,,,,,,,,,,,,15,,62,0
3359,note_on,,119,0,9,,,,,,,,,,,,,,,,7,,62,0
3359,note_on,,119,0,11,,,,,,,,,,,,,,,,10,,66,0
3360,note_on,,1,0,14,,,,,,,,,,,,,,,,13,,59,72
3360,note_on,,31,0,13,,,,,,,,,,,,,,,,12,,59,72
3360,note_on,,1,0,15,,,,,,,,,,,,,,,,15,,59,72
3360,note_on,,1,0,9,,,,,,,,,,,,,,,,7,,59,72
3360,note_on,,1,0,6,,,,,,,,,,,,,,,,2,,59,72
3449,note_on,,89,0,13,,,,,,,,,,,,,,,,12,,59,0
3479,note_on,,119,0,14,,,,,,,,,,,,,,,,13,,59,0
3479,note_on,,119,0,6,,,,,,,,,,,,,,,,2,,59,0
3479,note_on,,119,0,9,,,,,,,,,,,,,,,,7,,59,0
3479,note_on,,119,0,15,,,,,,,,,,,,,,,,15,,59,0
3480,note_on,,31,0,13,,,,,,,,,,,,,,,,12,,55,72
3480,note_on,,1,0,15,,,,,,,,,,,,,,,,15,,55,72
3480,note_on,,1,0,14,,,,,,,,,,,,,,,,13,,55,72
3480,note_on,,1,0,9,,,,,,,,,,,,,,,,7,,55,72
3480,note_on,,1,0,6,,,,,,,,,,,,,,,,2,,55,72
3569,note_on,,89,0,13,,,,,,,,,,,,,,,,12,,55,0
3599,note_on,,119,0,15,,,,,,,,,,,,,,,,15,,55,0
3599,note_on,,119,0,9,,,,,,,,,,,,,,,,7,,55,0
3599,note_on,,119,0,6,,,,,,,,,,,,,,,,2,,55,0
3599,note_on,,119,0,14,,,,,,,,,,,,,,,,13,,55,0
3600,note_on,,1,0,14,,,,,,,,,,,,,,,,13,,52,72
3600,note_on,,1,0,15,,,,,,,,,,,,,,,,15,,52,72
3600,note_on,,31,0,13,,,,,,,,,,,,,,,,12,,52,72
3600,note_on,,1,0,9,,,,,,,,,,,,,,,,7,,52,72
3600,note_on,,1,0,6,,,,,,,,,,,,,,,,2,,52,72
3659,note_on,,59,0,15,,,,,,,,,,,,,,,,15,,52,0
3659,note_on,,59,0,13,,,,,,,,,,,,,,,,12,,52,0
3659,note_on,,59,0,14,,,,,,,,,,,,,,,,13,,52,0
3659,note_on,,59,0,6,,,,,,,,,,,,,,,,2,,52,0
3659,note_on,,59,0,9,,,,,,,,,,,,,,,,7,,52,0
3660,note_on,,1,0,13,,,,,,,,,,,,,,,,12,,60,72
3660,note_on,,1,0,15,,,,,,,,,,,,,,,,15,,60,72
3660,note_on,,1,0,9,,,,,,,,,,,,,,,,7,,60,72
3660,note_on,,1,0,6,,,,,,,,,,,,,,,,2,,60,72
3660,note_on,,1,0,14,,,,,,,,,,,,,,,,13,,60,72
3719,note_on,,59,0,13,,,,,,,,,,,,,,,,12,,60,0
3720,note_on,,1,0,13,,,,,,,,,,,,,,,,12,,60,72
3749,note_on,,89,0,9,,,,,,,,,,,,,,,,7,,60,0
3749,note_on,,89,0,6,,,,,,,,,,,,,,,,2,,60,0
3749,note_on,,89,0,15,,,,,,,,,,,,,,,,15,,60,0
3749,note_on,,29,0,13,,,,,,,,,,,,,,,,12,,60,0
3749,note_on,,89,0,14,,,,,,,,,,,,,,,,13,,60,0
3750,note_on,,1,0,9,,,,,,,,,,,,,,,,7,,62,72
3750,note_on,,1,0,14,,,,,,,,,,,,,,,,13,,62,72
3750,note_on,,1,0,13,,,,,,,,,,,,,,,,12,,62,72
3750,note_on,,1,0,15,,,,,,,,,,,,,,,,15,,62,72
3750,note_on,,1,0,6,,,,,,,,,,,,,,,,2,,62,72
3779,note_on,,29,0,15,,,,,,,,,,,,,,,,15,,62,0
3779,note_on,,29,0,14,,,,,,,,,,,,,,,,13,,62,0
3779,note_on,,29,0,13,,,,,,,,,,,,,,,,12,,62,0
3779,note_on,,29,0,9,,,,,,,,,,,,,,,,7,,62,0
3779,note_on,,29,0,6,,,,,,,,,,,,,,,,2,,62,0
3780,note_on,,1,0,15,,,,,,,,,,,,,,,,15,,60,72
3780,note_on,,1,0,9,,,,,,,,,,,,,,,,7,,60,72
3780,note_on,,1,0,14,,,,,,,,,,,,,,,,13,,60,72
3780,note_on,,1,0,13,,,,,,,,,,,,,,,,12,,60,72
3780,note_on,,1,0,6,,,,,,,,,,,,,,,,2,,60,72
3809,note_on,,29,0,6,,,,,,,,,,,,,,,,2,,60,0
3809,note_on,,29,0,15,,,,,,,,,,,,,,,,15,,60,0
3809,note_on,,29,0,13,,,,,,,,,,,,,,,,12,,60,0
3809,note_on,,29,0,14,,,,,,,,,,,,,,,,13,,60,0
3809,note_on,,29,0,9,,,,,,,,,,,,,,,,7,,60,0
3810,note_on,,1,0,15,,,,,,,,,,,,,,,,15,,59,72
3810,note_on,,1,0,13,,,,,,,,,,,,,,,,12,,59,72
3810,note_on,,1,0,6,,,,,,,,,,,,,,,,2,,59,72
3810,note_on,,1,0,9,,,,,,,,,,,,,,,,7,,59,72
3810,note_on,,1,0,14,,,,,,,,,,,,,,,,13,,59,72
3839,note_on,,29,0,15,,,,,,,,,,,,,,,,15,,59,0
3839,note_on,,29,0,14,,,,,,,,,,,,,,,,13,,59,0
3839,note_on,,29,0,6,,,,,,,,,,,,,,,,2,,59,0
3839,note_on,,29,0,9,,,,,,,,,,,,,,,,7,,59,0
3839,note_on,,29,0,13,,,,,,,,,,,,,,,,12,,59,0
3840,note_on,,1,0,13,,,,,,,,,,,,,,,,12,,57,72
3840,note_on,,1,0,14,,,,,,,,,,,,,,,,13,,57,72
3840,note_on,,1,0,15,,,,,,,,,,,,,,,,15,,57,72
3840,note_on,,1,0,9,,,,,,,,,,,,,,,,7,,57,72
3840,note_on,,1,0,6,,,,,,,,,,,,,,,,2,,57,72
3869,note_on,,29,0,15,,,,,,,,,,,,,,,,15,,57,0
3869,note_on,,29,0,6,,,,,,,,,,,,,,,,2,,57,0
3869,note_on,,29,0,9,,,,,,,,,,,,,,,,7,,57,0
3869,note_on,,29,0,14,,,,,,,,,,,,,,,,13,,57,0
3869,note_on,,29,0,13,,,,,,,,,,,,,,,,12,,57,0
3870,note_on,,1,0,13,,,,,,,,,,,,,,,,12,,59,72
3870,note_on,,1,0,15,,,,,,,,,,,,,,,,15,,59,72
3870,note_on,,1,0,9,,,,,,,,,,,,,,,,7,,59,72
3870,note_on,,1,0,14,,,,,,,,,,,,,,,,13,,59,72
3870,note_on,,1,0,6,,,,,,,,,,,,,,,,2,,59,72
3899,note_on,,29,0,14,,,,,,,,,,,,,,,,13,,59,0
3899,note_on,,29,0,6,,,,,,,,,,,,,,,,2,,59,0
3899,note_on,,29,0,15,,,,,,,,,,,,,,,,15,,59,0
3899,note_on,,29,0,9,,,,,,,,,,,,,,,,7,,59,0
3899,note_on,,29,0,13,,,,,,,,,,,,,,,,12,,59,0
3900,note_on,,1,0,14,,,,,,,,,,,,,,,,13,,57,72
3900,note_on,,1,0,6,,,,,,,,,,,,,,,,2,,57,72
3900,note_on,,1,0,9,,,,,,,,,,,,,,,,7,,57,72
3900,note_on,,1,0,13,,,,,,,,,,,,,,,,12,,57,72
3900,note_on,,1,0,15,,,,,,,,,,,,,,,,15,,57,72
3929,note_on,,29,0,6,,,,,,,,,,,,,,,,2,,57,0
3929,note_on,,29,0,9,,,,,,,,,,,,,,,,7,,57,0
3929,note_on,,29,0,15,,,,,,,,,,,,,,,,15,,57,0
3929,note_on,,29,0,13,,,,,,,,,,,,,,,,12,,57,0
3929,note_on,,29,0,14,,,,,,,,,,,,,,,,13,,57,0
3930,note_on,,1,0,14,,,,,,,,,,,,,,,,13,,55,72
3930,note_on,,1,0,13,,,,,,,,,,,,,,,,12,,55,72
3930,note_on,,1,0,6,,,,,,,,,,,,,,,,2,,55,72
3930,note_on,,1,0,9,,,,,,,,,,,,,,,,7,,55,72
3930,note_on,,1,0,15,,,,,,,,,,,,,,,,15,,55,72
3959,note_on,,29,0,14,,,,,,,,,,,,,,,,13,,55,0
3959,note_on,,29,0,13,,,,,,,,,,,,,,,,12,,55,0
3959,note_on,,29,0,15,,,,,,,,,,,,,,,,15,,55,0
3959,note_on,,29,0,9,,,,,,,,,,,,,,,,7,,55,0
3959,note_on,,29,0,6,,,,,,,,,,,,,,,,2,,55,0
3960,note_on,,0,0,15,,,,,,,,,,,,,,,,15,,69,72
3960,note_on,,1,0,15,,,,,,,,,,,,,,,,15,,54,72
3960,note_on,,1,0,13,,,,,,,,,,,,,,,,12,,54,72
3960,note_on,,841,0,8,,,,,,,,,,,,,,,,6,,69,72
3960,note_on,,601,0,12,,,,,,,,,,,,,,,,11,,69,72
3960,note_on,,1,0,9,,,,,,,,,,,,,,,,7,,54,72
3960,note_on,,1,0,6,,,,,,,,,,,,,,,,2,,54,72
3960,note_on,,1,0,14,,,,,,,,,,,,,,,,13,,54,72
4019,note_on,,59,0,14,,,,,,,,,,,,,,,,13,,54,0
4019,note_on,,59,0,13,,,,,,,,,,,,,,,,12,,54,0
4019,note_on,,59,0,9,,,,,,,,,,,,,,,,7,,54,0
4019,note_on,,59,0,15,,,,,,,,,,,,,,,,15,,54,0
4019,note_on,,59,0,6,,,,,,,,,,,,,,,,2,,54,0
4020,note_on,,1,0,13,,,,,,,,,,,,,,,,12,,62,72
4020,note_on,,1,0,6,,,,,,,,,,,,,,,,2,,62,72
4020,note_on,,1,0,9,,,,,,,,,,,,,,,,7,,62,72
4020,note_on,,1,0,14,,,,,,,,,,,,,,,,13,,62,72
4020,note_on,,1,0,15,,,,,,,,,,,,,,,,15,,62,72
4049,note_on,,89,0,12,,,,,,,,,,,,,,,,11,,69,0
4079,note_on,,59,0,15,,,,,,,,,,,,,,,,15,,69,0
4079,note_on,,59,0,13,,,,,,,,,,,,,,,,12,,62,0
4079,note_on,,119,0,8,,,,,,,,,,,,,,,,6,,69,0
4080,note_on,,1,0,15,,,,,,,,,,,,,,,,15,,66,72
4080,note_on,,1,0,8,,,,,,,,,,,,,,,,6,,66,72
4080,note_on,,31,0,12,,,,,,,,,,,,,,,,11,,66,72
4080,note_on,,1,0,13,,,,,,,,,,,,,,,,12,,62,72
4109,note_on,,29,0,13,,,,,,,,,,,,,,,,12,,62,0
4109,note_on,,29,0,15,,,,,,,,,,,,,,,,15,,62,0
4109,note_on,,89,0,6,,,,,,,,,,,,,,,,2,,62,0
4109,note_on,,89,0,14,,,,,,,,,,,,,,,,13,,62,0
4109,note_on,,89,0,9,,,,,,,,,,,,,,,,7,,62,0
4110,note_on,,1,0,15,,,,,,,,,,,,,,,,15,,64,72
4110,note_on,,1,0,9,,,,,,,,,,,,,,,,7,,64,72
4110,note_on,,1,0,14,,,,,,,,,,,,,,,,13,,64,72
4110,note_on,,1,0,6,,,,,,,,,,,,,,,,2,,64,72
4110,note_on,,1,0,13,,,,,,,,,,,,,,,,12,,64,72
4139,note_on,,29,0,13,,,,,,,,,,,,,,,,12,,64,0
4139,note_on,,29,0,15,,,,,,,,,,,,,,,,15,,64,0
4139,note_on,,29,0,6,,,,,,,,,,,,,,,,2,,64,0
4139,note_on,,29,0,9,,,,,,,,,,,,,,,,7,,64,0
4139,note_on,,29,0,14,,,,,,,,,,,,,,,,13,,64,0
4140,note_on,,1,0,15,,,,,,,,,,,,,,,,15,,62,72
4140,note_on,,1,0,14,,,,,,,,,,,,,,,,13,,62,72
4140,note_on,,1,0,13,,,,,,,,,,,,,,,,12,,62,72
4140,note_on,,1,0,6,,,,,,,,,,,,,,,,2,,62,72
4140,note_on,,1,0,9,,,,,,,,,,,,,,,,7,,62,72
4169,note_on,,29,0,15,,,,,,,,,,,,,,,,15,,62,0
4169,note_on,,29,0,6,,,,,,,,,,,,,,,,2,,62,0
4169,note_on,,29,0,9,,,,,,,,,,,,,,,,7,,62,0
4169,note_on,,29,0,14,,,,,,,,,,,,,,,,13,,62,0
4169,note_on,,29,0,13,,,,,,,,,,,,,,,,12,,62,0
4169,note_on,,89,0,12,,,,,,,,,,,,,,,,11,,66,0
4170,note_on,,1,0,6,,,,,,,,,,,,,,,,2,,60,72
4170,note_on,,1,0,14,,,,,,,,,,,,,,,,13,,60,72
4170,note_on,,1,0,9,,,,,,,,,,,,,,,,7,,60,72
4170,note_on,,1,0,13,,,,,,,,,,,,,,,,12,,60,72
4170,note_on,,1,0,15,,,,,,,,,,,,,,,,15,,60,72
4199,note_on,,29,0,14,,,,,,,,,,,,,,,,13,,60,0
4199,note_on,,29,0,13,,,,,,,,,,,,,,,,12,,60,0
4199,note_on,,29,0,6,,,,,,,,,,,,,,,,2,,60,0
4199,note_on,,119,0,8,,,,,,,,,,,,,,,,6,,66,0
4199,note_on,,29,0,9,,,,,,,,,,,,,,,,7,,60,0
4199,note_on,,0,0,15,,,,,,,,,,,,,,,,15,,60,0
4199,note_on,,29,0,15,,,,,,,,,,,,,,,,15,,66,0
4200,note_on,,0,0,15,,,,,,,,,,,,,,,,15,,62,72
4200,note_on,,1,0,15,,,,,,,,,,,,,,,,15,,59,72
4200,note_on,,1,0,8,,,,,,,,,,,,,,,,6,,62,72
4200,note_on,,1,0,13,,,,,,,,,,,,,,,,12,,59,72
4200,note_on,,1,0,14,,,,,,,,,,,,,,,,13,,59,72
4200,note_on,,31,0,12,,,,,,,,,,,,,,,,11,,62,72
4200,note_on,,1,0,9,,,,,,,,,,,,,,,,7,,59,72
4200,note_on,,1,0,6,,,,,,,,,,,,,,,,2,,59,72
4229,note_on,,29,0,9,,,,,,,,,,,,,,,,7,,59,0
4229,note_on,,29,0,13,,,,,,,,,,,,,,,,12,,59,0
4229,note_on,,29,0,15,,,,,,,,,,,,,,,,15,,59,0
4229,note_on,,29,0,6,,,,,,,,,,,,,,,,2,,59,0
4229,note_on,,29,0,14,,,,,,,,,,,,,,,,13,,59,0
4230,note_on,,1,0,15,,,,,,,,,,,,,,,,15,,60,72
4230,note_on,,1,0,14,,,,,,,,,,,,,,,,13,,60,72
4230,note_on,,1,0,6,,,,,,,,,,,,,,,,2,,60,72
4230,note_on,,1,0,13,,,,,,,,,,,,,,,,12,,60,72
4230,note_on,,1,0,9,,,,,,,,,,,,,,,,7,,60,72
4259,note_on,,29,0,15,,,,,,,,,,,,,,,,15,,60,0
4259,note_on,,29,0,14,,,,,,,,,,,,,,,,13,,60,0
4259,note_on,,29,0,6,,,,,,,,,,,,,,,,2,,60,0
4259,note_on,,29,0,9,,,,,,,,,,,,,,,,7,,60,0
4259,note_on,,29,0,13,,,,,,,,,,,,,,,,12,,60,0
4260,note_on,,1,0,15,,,,,,,,,,,,,,,,15,,59,72
4260,note_on,,1,0,14,,,,,,,,,,,,,,,,13,,59,72
4260,note_on,,1,0,9,,,,,,,,,,,,,,,,7,,59,72
4260,note_on,,1,0,13,,,,,,,,,,,,,,,,12,,59,72
4260,note_on,,1,0,6,,,,,,,,,,,,,,,,2,,59,72
4289,note_on,,29,0,9,,,,,,,,,,,,,,,,7,,59,0
4289,note_on,,29,0,15,,,,,,,,,,,,,,,,15,,59,0
4289,note_on,,89,0,12,,,,,,,,,,,,,,,,11,,62,0
4289,note_on,,29,0,13,,,,,,,,,,,,,,,,12,,59,0
4289,note_on,,29,0,6,,,,,,,,,,,,,,,,2,,59,0
4289,note_on,,29,0,14,,,,,,,,,,,,,,,,13,,59,0
4290,note_on,,1,0,9,,,,,,,,,,,,,,,,7,,57,72
4290,note_on,,1,0,15,,,,,,,,,,,,,,,,15,,57,72
4290,note_on,,1,0,13,,,,,,,,,,,,,,,,12,,57,72
4290,note_on,,1,0,6,,,,,,,,,,,,,,,,2,,57,72
4290,note_on,,1,0,14,,,,,,,,,,,,,,,,13,,57,72
4319,note_on,,119,0,8,,,,,,,,,,,,,,,,6,,62,0
4319,note_on,,29,0,15,,,,,,,,,,,,,,,,15,,62,0
4319,note_on,,29,0,13,,,,,,,,,,,,,,,,12,,57,0
4319,note_on,,29,0,9,,,,,,,,,,,,,,,,7,,57,0
4319,note_on,,29,0,6,,,,,,,,,,,,,,,,2,,57,0
4319,note_on,,0,0,15,,,,,,,,,,,,,,,,15,,57,0
4319,note_on,,29,0,14,,,,,,,,,,,,,,,,13,,57,0
4320,note_on,,1,0,15,,,,,,,,,,,,,,,,15,,55,72
4320,note_on,,0,0,15,,,,,,,,,,,,,,,,15,,59,72
4320,note_on,,31,0,12,,,,,,,,,,,,,,,,11,,59,72
4320,note_on,,1,0,8,,,,,,,,,,,,,,,,6,,59,72
4320,note_on,,1,0,6,,,,,,,,,,,,,,,,2,,55,72
4320,note_on,,1,0,9,,,,,,,,,,,,,,,,7,,55,72
4320,note_on,,1,0,13,,,,,,,,,,,,,,,,12,,55,72
4320,note_on,,1,0,14,,,,,,,,,,,,,,,,13,,55,72
4379,note_on,,59,0,8,,,,,,,,,,,,,,,,6,,59,0
4379,note_on,,59,0,15,,,,,,,,,,,,,,,,15,,59,0
4379,note_on,,59,0,12,,,,,,,,,,,,,,,,11,,59,0
4380,note_on,,1,0,12,,,,,,,,,,,,,,,,11,,67,72
4380,note_on,,1,0,8,,,,,,,,,,,,,,,,6,,67,72
4380,note_on,,1,0,15,,,,,,,,,,,,,,,,15,,67,72
4439,note_on,,119,0,13,,,,,,,,,,,,,,,,12,,55,0
4439,note_on,,119,0,14,,,,,,,,,,,,,,,,13,,55,0
4439,note_on,,119,0,6,,,,,,,,,,,,,,,,2,,55,0
4439,note_on,,59,0,15,,,,,,,,,,,,,,,,15,,55,0
4439,note_on,,59,0,12,,,,,,,,,,,,,,,,11,,67,0
4439,note_on,,119,0,9,,,,,,,,,,,,,,,,7,,55,0
4440,note_on,,1,0,12,,,,,,,,,,,,,,,,11,,67,72
4469,note_on,,29,0,12,,,,,,,,,,,,,,,,11,,67,0
4469,note_on,,30,0,15,,,,,,,,,,,,,,,,15,,67,0
4469,note_on,,89,0,8,,,,,,,,,,,,,,,,6,,67,0
4470,note_on,,1,0,8,,,,,,,,,,,,,,,,6,,69,72
4470,note_on,,1,0,12,,,,,,,,,,,,,,,,11,,69,72
4470,note_on,,1,0,15,,,,,,,,,,,,,,,,15,,69,72
4499,note_on,,29,0,8,,,,,,,,,,,,,,,,6,,69,0
4499,note_on,,29,0,12,,,,,,,,,,,,,,,,11,,69,0
4499,note_on,,29,0,15,,,,,,,,,,,,,,,,15,,69,0
4500,note_on,,61,0,13,,,,,,,,,,,,,,,,12,,55,72
4500,note_on,,0,0,15,,,,,,,,,,,,,,,,15,,67,72
4500,note_on,,1,0,15,,,,,,,,,,,,,,,,15,,55,72
4500,note_on,,1,0,8,,,,,,,,,,,,,,,,6,,67,72
4500,note_on,,61,0,6,,,,,,,,,,,,,,,,2,,55,72
4500,note_on,,61,0,14,,,,,,,,,,,,,,,,13,,55,72
4500,note_on,,1,0,12,,,,,,,,,,,,,,,,11,,67,72
4500,note_on,,61,0,9,,,,,,,,,,,,,,,,7,,55,72
4529,note_on,,29,0,8,,,,,,,,,,,,,,,,6,,67,0
4529,note_on,,29,0,12,,,,,,,,,,,,,,,,11,,67,0
4529,note_on,,29,0,15,,,,,,,,,,,,,,,,15,,67,0
4530,note_on,,1,0,8,,,,,,,,,,,,,,,,6,,66,72
4530,note_on,,1,0,12,,,,,,,,,,,,,,,,11,,66,72
4530,note_on,,1,0,15,,,,,,,,,,,,,,,,15,,66,72
4559,note_on,,59,0,13,,,,,,,,,,,,,,,,12,,55,0
4559,note_on,,59,0,6,,,,,,,,,,,,,,,,2,,55,0
4559,note_on,,0,0,15,,,,,,,,,,,,,,,,15,,66,0
4559,note_on,,29,0,8,,,,,,,,,,,,,,,,6,,66,0
4559,note_on,,29,0,15,,,,,,,,,,,,,,,,15,,55,0
4559,note_on,,29,0,12,,,,,,,,,,,,,,,,11,,66,0
4559,note_on,,59,0,9,,,,,,,,,,,,,,,,7,,55,0
4559,note_on,,59,0,14,,,,,,,,,,,,,,,,13,,55,0
4560,note_on,,0,0,15,,,,,,,,,,,,,,,,15,,64,72
4560,note_on,,1,0,15,,,,,,,,,,,,,,,,15,,55,72
4560,note_on,,1,0,8,,,,,,,,,,,,,,,,6,,64,72
4560,note_on,,1,0,6,,,,,,,,,,,,,,,,2,,55,72
4560,note_on,,1,0,12,,,,,,,,,,,,,,,,11,,64,72
4560,note_on,,1,0,13,,,,,,,,,,,,,,,,12,,55,72
4560,note_on,,1,0,14,,,,,,,,,,,,,,,,13,,55,72
4560,note_on,,1,0,9,,,,,,,,,,,,,,,,7,,55,72
4589,note_on,,29,0,8,,,,,,,,,,,,,,,,6,,64,0
4589,note_on,,29,0,12,,,,,,,,,,,,,,,,11,,64,0
4589,note_on,,29,0,15,,,,,,,,,,,,,,,,15,,64,0
4590,note_on,,1,0,12,,,,,,,,,,,,,,,,11,,66,72
4590,note_on,,1,0,15,,,,,,,,,,,,,,,,15,,66,72
4590,note_on,,1,0,8,,,,,,,,,,,,,,,,6,,66,72
4619,note_on,,59,0,13,,,,,,,,,,,,,,,,12,,55,0
4619,note_on,,29,0,8,,,,,,,,,,,,,,,,6,,66,0
4619,note_on,,29,0,12,,,,,,,,,,,,,,,,11,,66,0
4619,note_on,,59,0,9,,,,,,,,,,,,,,,,7,,55,0
4619,note_on,,59,0,14,,,,,,,,,,,,,,,,13,,55,0
4619,note_on,,59,0,6,,,,,,,,,,,,,,,,2,,55,0
4619,note_on,,0,0,15,,,,,,,,,,,,,,,,15,,66,0
4619,note_on,,29,0,15,,,,,,,,,,,,,,,,15,,55,0
4620,note_on,,1,0,8,,,,,,,,,,,,,,,,6,,64,72
4620,note_on,,1,0,12,,,,,,,,,,,,,,,,11,,64,72
4620,note_on,,1,0,13,,,,,,,,,,,,,,,,12,,55,72
4620,note_on,,1,0,14,,,,,,,,,,,,,,,,13,,55,72
4620,note_on,,1,0,6,,,,,,,,,,,,,,,,2,,55,72
4620,note_on,,1,0,15,,,,,,,,,,,,,,,,15,,55,72
4620,note_on,,0,0,15,,,,,,,,,,,,,,,,15,,64,72
4620,note_on,,1,0,9,,,,,,,,,,,,,,,,7,,55,72
4649,note_on,,29,0,12,,,,,,,,,,,,,,,,11,,64,0
4649,note_on,,29,0,15,,,,,,,,,,,,,,,,15,,64,0
4649,note_on,,29,0,8,,,,,,,,,,,,,,,,6,,64,0
4650,note_on,,1,0,8,,,,,,,,,,,,,,,,6,,62,72
4650,note_on,,1,0,12,,,,,,,,,,,,,,,,11,,62,72
4650,note_on,,1,0,15,,,,,,,,,,,,,,,,15,,62,72
4679,note_on,,29,0,12,,,,,,,,,,,,,,,,11,,62,0
4679,note_on,,0,0,15,,,,,,,,,,,,,,,,15,,62,0
4679,note_on,,59,0,6,,,,,,,,,,,,,,,,2,,55,0
4679,note_on,,59,0,9,,,,,,,,,,,,,,,,7,,55,0
4679,note_on,,59,0,14,,,,,,,,,,,,,,,,13,,55,0
4679,note_on,,59,0,13,,,,,,,,,,,,,,,,12,,55,0
4679,note_on,,29,0,8,,,,,,,,,,,,,,,,6,,62,0
4679,note_on,,29,0,15,,,,,,,,,,,,,,,,15,,55,0
4680,note_on,,1,0,6,,,,,,,,,,,,,,,,2,,57,72
4680,note_on,,1,0,8,,,,,,,,,,,,,,,,6,,61,72
4680,note_on,,0,0,15,,,,,,,,,,,,,,,,15,,61,72
4680,note_on,,1,0,15,,,,,,,,,,,,,,,,15,,57,72
4680,note_on,,1,0,12,,,,,,,,,,,,,,,,11,,61,72
4680,note_on,,1,0,14,,,,,,,,,,,,,,,,13,,57,72
4680,note_on,,1,0,9,,,,,,,,,,,,,,,,7,,57,72
4680,note_on,,1,0,13,,,,,,,,,,,,,,,,12,,57,72
4739,note_on,,59,0,15,,,,,,,,,,,,,,,,15,,61,0
4739,note_on,,59,0,8,,,,,,,,,,,,,,,,6,,61,0
4739,note_on,,59,0,12,,,,,,,,,,,,,,,,11,,61,0
4740,note_on,,1,0,12,,,,,,,,,,,,,,,,11,,69,72
4740,note_on,,1,0,15,,,,,,,,,,,,,,,,15,,69,72
4740,note_on,,1,0,8,,,,,,,,,,,,,,,,6,,69,72
4799,note_on,,119,0,14,,,,,,,,,,,,,,,,13,,57,0
4799,note_on,,59,0,12,,,,,,,,,,,,,,,,11,,69,0
4799,note_on,,59,0,15,,,,,,,,,,,,,,,,15,,57,0
4799,note_on,,119,0,6,,,,,,,,,,,,,,,,2,,57,0
4799,note_on,,119,0,9,,,,,,,,,,,,,,,,7,,57,0
4799,note_on,,119,0,13,,,,,,,,,,,,,,,,12,,57,0
4800,note_on,,1,0,12,,,,,,,,,,,,,,,,11,,69,72
4829,note_on,,29,0,12,,,,,,,,,,,,,,,,11,,69,0
4829,note_on,,89,0,8,,,,,,,,,,,,,,,,6,,69,0
4829,note_on,,30,0,15,,,,,,,,,,,,,,,,15,,69,0
4830,note_on,,1,0,8,,,,,,,,,,,,,,,,6,,71,72
4830,note_on,,1,0,12,,,,,,,,,,,,,,,,11,,71,72
4830,note_on,,1,0,15,,,,,,,,,,,,,,,,15,,71,72
4859,note_on,,29,0,12,,,,,,,,,,,,,,,,11,,71,0
4859,note_on,,29,0,8,,,,,,,,,,,,,,,,6,,71,0
4859,note_on,,29,0,15,,,,,,,,,,,,,,,,15,,71,0
4860,note_on,,61,0,13,,,,,,,,,,,,,,,,12,,57,72
4860,note_on,,0,0,15,,,,,,,,,,,,,,,,15,,69,72
4860,note_on,,1,0,15,,,,,,,,,,,,,,,,15,,57,72
4860,note_on,,61,0,9,,,,,,,,,,,,,,,,7,,57,72
4860,note_on,,1,0,8,,,,,,,,,,,,,,,,6,,69,72
4860,note_on,,61,0,14,,,,,,,,,,,,,,,,13,,57,72
4860,note_on,,61,0,6,,,,,,,,,,,,,,,,2,,57,72
4860,note_on,,1,0,12,,,,,,,,,,,,,,,,11,,69,72
4889,note_on,,29,0,12,,,,,,,,,,,,,,,,11,,69,0
4889,note_on,,29,0,15,,,,,,,,,,,,,,,,15,,69,0
4889,note_on,,29,0,8,,,,,,,,,,,,,,,,6,,69,0
4890,note_on,,1,0,12,,,,,,,,,,,,,,,,11,,67,72
4890,note_on,,1,0,15,,,,,,,,,,,,,,,,15,,67,72
4890,note_on,,1,0,8,,,,,,,,,,,,,,,,6,,67,72
4919,note_on,,59,0,13,,,,,,,,,,,,,,,,12,,57,0
4919,note_on,,29,0,15,,,,,,,,,,,,,,,,15,,57,0
4919,note_on,,0,0,15,,,,,,,,,,,,,,,,15,,67,0
4919,note_on,,59,0,14,,,,,,,,,,,,,,,,13,,57,0
4919,note_on,,29,0,8,,,,,,,,,,,,,,,,6,,67,0
4919,note_on,,29,0,12,,,,,,,,,,,,,,,,11,,67,0
4919,note_on,,59,0,6,,,,,,,,,,,,,,,,2,,57,0
4919,note_on,,59,0,9,,,,,,,,,,,,,,,,7,,57,0
4920,note_on,,1,0,8,,,,,,,,,,,,,,,,6,,66,72
4920,note_on,,1,0,9,,,,,,,,,,,,,,,,7,,57,72
4920,note_on,,0,0,15,,,,,,,,,,,,,,,,15,,66,72
4920,note_on,,1,0,15,,,,,,,,,,,,,,,,15,,57,72
4920,note_on,,1,0,12,,,,,,,,,,,,,,,,11,,66,72
4920,note_on,,1,0,13,,,,,,,,,,,,,,,,12,,57,72
4920,note_on,,1,0,6,,,,,,,,,,,,,,,,2,,57,72
4920,note_on,,1,0,14,,,,,,,,,,,,,,,,13,,57,72
4949,note_on,,29,0,8,,,,,,,,,,,,,,,,6,,66,0
4949,note_on,,29,0,15,,,,,,,,,,,,,,,,15,,66,0
4949,note_on,,29,0,12,,,,,,,,,,,,,,,,11,,66,0
4950,note_on,,1,0,8,,,,,,,,,,,,,,,,6,,67,72
4950,note_on,,1,0,15,,,,,,,,,,,,,,,,15,,67,72
4950,note_on,,1,0,12,,,,,,,,,,,,,,,,11,,67,72
4979,note_on,,59,0,14,,,,,,,,,,,,,,,,13,,57,0
4979,note_on,,29,0,8,,,,,,,,,,,,,,,,6,,67,0
4979,note_on,,29,0,12,,,,,,,,,,,,,,,,11,,67,0
4979,note_on,,0,0,15,,,,,,,,,,,,,,,,15,,67,0
4979,note_on,,59,0,6,,,,,,,,,,,,,,,,2,,57,0
4979,note_on,,59,0,13,,,,,,,,,,,,,,,,12,,57,0
4979,note_on,,59,0,9,,,,,,,,,,,,,,,,7,,57,0
4979,note_on,,29,0,15,,,,,,,,,,,,,,,,15,,57,0
4980,note_on,,1,0,6,,,,,,,,,,,,,,,,2,,57,72
4980,note_on,,1,0,8,,,,,,,,,,,,,,,,6,,66,72
4980,note_on,,1,0,12,,,,,,,,,,,,,,,,11,,66,72
4980,note_on,,1,0,9,,,,,,,,,,,,,,,,7,,57,72
4980,note_on,,0,0,15,,,,,,,,,,,,,,,,15,,66,72
4980,note_on,,1,0,14,,,,,,,,,,,,,,,,13,,57,72
4980,note_on,,1,0,13,,,,,,,,,,,,,,,,12,,57,72
4980,note_on,,1,0,15,,,,,,,,,,,,,,,,15,,57,72
5009,note_on,,29,0,15,,,,,,,,,,,,,,,,15,,66,0
5009,note_on,,29,0,8,,,,,,,,,,,,,,,,6,,66,0
5009,note_on,,29,0,12,,,,,,,,,,,,,,,,11,,66,0
5010,note_on,,1,0,12,,,,,,,,,,,,,,,,11,,64,72
5010,note_on,,1,0,8,,,,,,,,,,,,,,,,6,,64,72
5010,note_on,,1,0,15,,,,,,,,,,,,,,,,15,,64,72
5039,note_on,,29,0,8,,,,,,,,,,,,,,,,6,,64,0
5039,note_on,,59,0,13,,,,,,,,,,,,,,,,12,,57,0
5039,note_on,,0,0,15,,,,,,,,,,,,,,,,15,,64,0
5039,note_on,,59,0,9,,,,,,,,,,,,,,,,7,,57,0
5039,note_on,,29,0,15,,,,,,,,,,,,,,,,15,,57,0
5039,note_on,,59,0,14,,,,,,,,,,,,,,,,13,,57,0
5039,note_on,,29,0,12,,,,,,,,,,,,,,,,11,,64,0
5039,note_on,,59,0,6,,,,,,,,,,,,,,,,2,,57,0
5040,note_on,,1,0,8,,,,,,,,,,,,,,,,6,,62,72
5040,note_on,,1,0,14,,,,,,,,,,,,,,,,13,,59,72
5040,note_on,,1,0,13,,,,,,,,,,,,,,,,12,,59,72
5040,note_on,,1921,0,5,,,,,,,,,,,,,,,,1,,74,72
5040,note_on,,1681,0,11,,,,,,,,,,,,,,,,10,,74,72
5040,note_on,,1,0,9,,,,,,,,,,,,,,,,7,,59,72
5040,note_on,,1,0,6,,,,,,,,,,,,,,,,2,,59,72
5040,note_on,,1,0,12,,,,,,,,,,,,,,,,11,,62,72
5040,note_on,,1,0,15,,,,,,,,,,,,,,,,15,,59,72
5040,note_on,,0,0,15,,,,,,,,,,,,,,,,15,,62,72
5040,note_on,,1921,0,7,,,,,,,,,,,,,,,,5,,74,72
5129,note_on,,89,0,11,,,,,,,,,,,,,,,,10,,74,0
5159,note_on,,119,0,12,,,,,,,,,,,,,,,,11,,62,0
5159,note_on,,119,0,5,,,,,,,,,,,,,,,,1,,74,0
5159,note_on,,119,0,8,,,,,,,,,,,,,,,,6,,62,0
5159,note_on,,119,0,7,,,,,,,,,,,,,,,,5,,74,0
5159,note_on,,119,0,13,,,,,,,,,,,,,,,,12,,59,0
5159,note_on,,119,0,6,,,,,,,,,,,,,,,,2,,59,0
5159,note_on,,119,0,14,,,,,,,,,,,,,,,,13,,59,0
5159,note_on,,119,0,9,,,,,,,,,,,,,,,,7,,59,0
5159,note_on,,119,0,15,,,,,,,,,,,,,,,,15,,59,0
5159,note_on,,0,0,15,,,,,,,,,,,,,,,,15,,62,0
5160,note_on,,31,0,11,,,,,,,,,,,,,,,,10,,71,72
5160,note_on,,1,0,5,,,,,,,,,,,,,,,,1,,71,72
5160,note_on,,1,0,7,,,,,,,,,,,,,,,,5,,71,72
5220,note_on,,0,0,15,,,,,,,,,,,,,,,,15,,62,72
5220,note_on,,0,0,15,,,,,,,,,,,,,,,,15,,67,72
5220,note_on,,61,0,12,,,,,,,,,,,,,,,,11,,62,72
5220,note_on,,0,0,15,,,,,,,,,,,,,,,,15,,74,72
5220,note_on,,61,0,15,,,,,,,,,,,,,,,,15,,59,72
5220,note_on,,61,0,8,,,,,,,,,,,,,,,,6,,62,72
5220,note_on,,61,0,14,,,,,,,,,,,,,,,,13,,59,72
5220,note_on,,61,0,9,,,,,,,,,,,,,,,,7,,59,72
5220,note_on,,61,0,13,,,,,,,,,,,,,,,,12,,59,72
5249,note_on,,89,0,11,,,,,,,,,,,,,,,,10,,71,0
5279,note_on,,0,0,15,,,,,,,,,,,,,,,,15,,62,0
5279,note_on,,119,0,5,,,,,,,,,,,,,,,,1,,71,0
5279,note_on,,119,0,7,,,,,,,,,,,,,,,,5,,71,0
5279,note_on,,0,0,15,,,,,,,,,,,,,,,,15,,67,0
5279,note_on,,59,0,12,,,,,,,,,,,,,,,,11,,62,0
5279,note_on,,59,0,14,,,,,,,,,,,,,,,,13,,59,0
5279,note_on,,59,0,13,,,,,,,,,,,,,,,,12,,59,0
5279,note_on,,0,0,15,,,,,,,,,,,,,,,,15,,74,0
5279,note_on,,59,0,8,,,,,,,,,,,,,,,,6,,62,0
5279,note_on,,59,0,15,,,,,,,,,,,,,,,,15,,59,0
5279,note_on,,59,0,9,,,,,,,,,,,,,,,,7,,59,0
5280,note_on,,0,0,15,,,,,,,,,,,,,,,,15,,62,72
5280,note_on,,0,0,15,,,,,,,,,,,,,,,,15,,67,72
5280,note_on,,0,0,15,,,,,,,,,,,,,,,,15,,74,72
5280,note_on,,1,0,15,,,,,,,,,,,,,,,,15,,59,72
5280,note_on,,1,0,8,,,,,,,,,,,,,,,,6,,62,72
5280,note_on,,1,0,7,,,,,,,,,,,,,,,,5,,67,72
5280,note_on,,1,0,13,,,,,,,,,,,,,,,,12,,59,72
5280,note_on,,1,0,9,,,,,,,,,,,,,,,,7,,59,72
5280,note_on,,31,0,11,,,,,,,,,,,,,,,,10,,67,72
5280,note_on,,1,0,5,,,,,,,,,,,,,,,,1,,67,72
5280,note_on,,1,0,12,,,,,,,,,,,,,,,,11,,62,72
5280,note_on,,1,0,14,,,,,,,,,,,,,,,,13,,59,72
5339,note_on,,59,0,9,,,,,,,,,,,,,,,,7,,59,0
5339,note_on,,59,0,8,,,,,,,,,,,,,,,,6,,62,0
5339,note_on,,59,0,15,,,,,,,,,,,,,,,,15,,59,0
5339,note_on,,0,0,15,,,,,,,,,,,,,,,,15,,74,0
5339,note_on,,59,0,13,,,,,,,,,,,,,,,,12,,59,0
5339,note_on,,59,0,12,,,,,,,,,,,,,,,,11,,62,0
5339,note_on,,0,0,15,,,,,,,,,,,,,,,,15,,67,0
5339,note_on,,59,0,14,,,,,,,,,,,,,,,,13,,59,0
5339,note_on,,0,0,15,,,,,,,,,,,,,,,,15,,62,0
5340,note_on,,1,0,12,,,,,,,,,,,,,,,,11,,62,72
5340,note_on,,0,0,15,,,,,,,,,,,,,,,,15,,67,72
5340,note_on,,0,0,15,,,,,,,,,,,,,,,,15,,62,72
5340,note_on,,0,0,15,,,,,,,,,,,,,,,,15,,74,72
5340,note_on,,1,0,15,,,,,,,,,,,,,,,,15,,59,72
5340,note_on,,1,0,14,,,,,,,,,,,,,,,,13,,59,72
5340,note_on,,1,0,8,,,,,,,,,,,,,,,,6,,62,72
5340,note_on,,1,0,9,,,,,,,,,,,,,,,,7,,59,72
5340,note_on,,1,0,13,,,,,,,,,,,,,,,,12,,59,72
5369,note_on,,89,0,11,,,,,,,,,,,,,,,,10,,67,0
5399,note_on,,59,0,12,,,,,,,,,,,,,,,,11,,62,0
5399,note_on,,59,0,8,,,,,,,,,,,,,,,,6,,62,0
5399,note_on,,119,0,5,,,,,,,,,,,,,,,,1,,67,0
5399,note_on,,119,0,7,,,,,,,,,,,,,,,,5,,67,0
5399,note_on,,59,0,13,,,,,,,,,,,,,,,,12,,59,0
5399,note_on,,59,0,15,,,,,,,,,,,,,,,,15,,59,0
5399,note_on,,0,0,15,,,,,,,,,,,,,,,,15,,74,0
5399,note_on,,0,0,15,,,,,,,,,,,,,,,,15,,67,0
5399,note_on,,0,0,15,,,,,,,,,,,,,,,,15,,62,0
5399,note_on,,59,0,14,,,,,,,,,,,,,,,,13,,59,0
5399,note_on,,59,0,9,,,,,,,,,,,,,,,,7,,59,0
5400,note_on,,0,0,15,,,,,,,,,,,,,,,,15,,64,72
5400,note_on,,1,0,13,,,,,,,,,,,,,,,,12,,60,72
5400,note_on,,1,0,14,,,,,,,,,,,,,,,,13,,60,72
5400,note_on,,1,0,9,,,,,,,,,,,,,,,,7,,60,72
5400,note_on,,1,0,5,,,,,,,,,,,,,,,,1,,64,72
5400,note_on,,1,0,7,,,,,,,,,,,,,,,,5,,64,72
5400,note_on,,1,0,15,,,,,,,,,,,,,,,,15,,60,72
5400,note_on,,1,0,12,,,,,,,,,,,,,,,,11,,64,72
5400,note_on,,1,0,8,,,,,,,,,,,,,,,,6,,64,72
5400,note_on,,31,0,11,,,,,,,,,,,,,,,,10,,64,72
5400,note_on,,0,0,15,,,,,,,,,,,,,,,,15,,67,72
5459,note_on,,59,0,7,,,,,,,,,,,,,,,,5,,64,0
5459,note_on,,59,0,11,,,,,,,,,,,,,,,,10,,64,0
5459,note_on,,59,0,5,,,,,,,,,,,,,,,,1,,64,0
5460,note_on,,1,0,11,,,,,,,,,,,,,,,,10,,72,72
5460,note_on,,1,0,5,,,,,,,,,,,,,,,,1,,72,72
5460,note_on,,1,0,7,,,,,,,,,,,,,,,,5,,72,72
5519,note_on,,0,0,15,,,,,,,,,,,,,,,,15,,64,0
5519,note_on,,119,0,15,,,,,,,,,,,,,,,,15,,60,0
5519,note_on,,119,0,14,,,,,,,,,,,,,,,,13,,60,0
5519,note_on,,119,0,12,,,,,,,,,,,,,,,,11,,64,0
5519,note_on,,119,0,9,,,,,,,,,,,,,,,,7,,60,0
5519,note_on,,119,0,8,,,,,,,,,,,,,,,,6,,64,0
5519,note_on,,0,0,15,,,,,,,,,,,,,,,,15,,67,0
5519,note_on,,119,0,13,,,,,,,,,,,,,,,,12,,60,0
5519,note_on,,59,0,11,,,,,,,,,,,,,,,,10,,72,0
5520,note_on,,1,0,11,,,,,,,,,,,,,,,,10,,72,72
5549,note_on,,89,0,5,,,,,,,,,,,,,,,,1,,72,0
5549,note_on,,29,0,11,,,,,,,,,,,,,,,,10,,72,0
5549,note_on,,89,0,7,,,,,,,,,,,,,,,,5,,72,0
5550,note_on,,1,0,11,,,,,,,,,,,,,,,,10,,74,72
5550,note_on,,1,0,5,,,,,,,,,,,,,,,,1,,74,72
5550,note_on,,1,0,7,,,,,,,,,,,,,,,,5,,74,72
5579,note_on,,29,0,5,,,,,,,,,,,,,,,,1,,74,0
5579,note_on,,29,0,7,,,,,,,,,,,,,,,,5,,74,0
5579,note_on,,29,0,11,,,,,,,,,,,,,,,,10,,74,0
5580,note_on,,0,0,15,,,,,,,,,,,,,,,,15,,72,72
5580,note_on,,61,0,13,,,,,,,,,,,,,,,,12,,60,72
5580,note_on,,0,0,15,,,,,,,,,,,,,,,,15,,60,72
5580,note_on,,61,0,9,,,,,,,,,,,,,,,,7,,60,72
5580,note_on,,61,0,15,,,,,,,,,,,,,,,,15,,64,72
5580,note_on,,61,0,14,,,,,,,,,,,,,,,,13,,60,72
5580,note_on,,1,0,11,,,,,,,,,,,,,,,,10,,72,72
5580,note_on,,0,0,15,,,,,,,,,,,,,,,,15,,69,72
5580,note_on,,61,0,12,,,,,,,,,,,,,,,,11,,64,72
5580,note_on,,1,0,5,,,,,,,,,,,,,,,,1,,72,72
5580,note_on,,61,0,8,,,,,,,,,,,,,,,,6,,64,72
5580,note_on,,1,0,7,,,,,,,,,,,,,,,,5,,72,72
5609,note_on,,29,0,7,,,,,,,,,,,,,,,,5,,72,0
5609,note_on,,29,0,5,,,,,,,,,,,,,,,,1,,72,0
5609,note_on,,29,0,11,,,,,,,,,,,,,,,,10,,72,0
5610,note_on,,1,0,5,,,,,,,,,,,,,,,,1,,71,72
5610,note_on,,1,0,11,,,,,,,,,,,,,,,,10,,71,72
5610,note_on,,1,0,7,,,,,,,,,,,,,,,,5,,71,72
5639,note_on,,59,0,12,,,,,,,,,,,,,,,,11,,64,0
5639,note_on,,0,0,15,,,,,,,,,,,,,,,,15,,69,0
5639,note_on,,59,0,15,,,,,,,,,,,,,,,,15,,64,0
5639,note_on,,0,0,15,,,,,,,,,,,,,,,,15,,60,0
5639,note_on,,0,0,15,,,,,,,,,,,,,,,,15,,72,0
5639,note_on,,59,0,8,,,,,,,,,,,,,,,,6,,64,0
5639,note_on,,59,0,14,,,,,,,,,,,,,,,,13,,60,0
5639,note_on,,29,0,5,,,,,,,,,,,,,,,,1,,71,0
5639,note_on,,59,0,9,,,,,,,,,,,,,,,,7,,60,0
5639,note_on,,59,0,13,,,,,,,,,,,,,,,,12,,60,0
5639,note_on,,29,0,11,,,,,,,,,,,,,,,,10,,71,0
5639,note_on,,29,0,7,,,,,,,,,,,,,,,,5,,71,0
5640,note_on,,1,0,5,,,,,,,,,,,,,,,,1,,69,72
5640,note_on,,1,0,13,,,,,,,,,,,,,,,,12,,60,72
5640,note_on,,0,0,15,,,,,,,,,,,,,,,,15,,64,72
5640,note_on,,0,0,15,,,,,,,,,,,,,,,,15,,69,72
5640,note_on,,0,0,15,,,,,,,,,,,,,,,,15,,72,72
5640,note_on,,1,0,15,,,,,,,,,,,,,,,,15,,60,72
5640,note_on,,1,0,7,,,,,,,,,,,,,,,,5,,69,72
5640,note_on,,1,0,14,,,,,,,,,,,,,,,,13,,60,72
5640,note_on,,1,0,9,,,,,,,,,,,,,,,,7,,60,72
5640,note_on,,1,0,12,,,,,,,,,,,,,,,,11,,64,72
5640,note_on,,1,0,8,,,,,,,,,,,,,,,,6,,64,72
5640,note_on,,1,0,11,,,,,,,,,,,,,,,,10,,69,72
5669,note_on,,29,0,5,,,,,,,,,,,,,,,,1,,69,0
5669,note_on,,29,0,7,,,,,,,,,,,,,,,,5,,69,0
5669,note_on,,29,0,11,,,,,,,,,,,,,,,,10,,69,0
5670,note_on,,1,0,5,,,,,,,,,,,,,,,,1,,71,72
5670,note_on,,1,0,7,,,,,,,,,,,,,,,,5,,71,72
5670,note_on,,1,0,11,,,,,,,,,,,,,,,,10,,71,72
5699,note_on,,29,0,11,,,,,,,,,,,,,,,,10,,71,0
5699,note_on,,59,0,14,,,,,,,,,,,,,,,,13,,60,0
5699,note_on,,59,0,8,,,,,,,,,,,,,,,,6,,64,0
5699,note_on,,59,0,12,,,,,,,,,,,,,,,,11,,64,0
5699,note_on,,59,0,13,,,,,,,,,,,,,,,,12,,60,0
5699,note_on,,29,0,5,,,,,,,,,,,,,,,,1,,71,0
5699,note_on,,29,0,7,,,,,,,,,,,,,,,,5,,71,0
5699,note_on,,59,0,15,,,,,,,,,,,,,,,,15,,60,0
5699,note_on,,0,0,15,,,,,,,,,,,,,,,,15,,72,0
5699,note_on,,0,0,15,,,,,,,,,,,,,,,,15,,69,0
5699,note_on,,0,0,15,,,,,,,,,,,,,,,,15,,64,0
5699,note_on,,59,0,9,,,,,,,,,,,,,,,,7,,60,0
5700,note_on,,1,0,9,,,,,,,,,,,,,,,,7,,60,72
5700,note_on,,1,0,12,,,,,,,,,,,,,,,,11,,64,72
5700,note_on,,1,0,5,,,,,,,,,,,,,,,,1,,69,72
5700,note_on,,1,0,11,,,,,,,,,,,,,,,,10,,69,72
5700,note_on,,0,0,15,,,,,,,,,,,,,,,,15,,64,72
5700,note_on,,1,0,8,,,,,,,,,,,,,,,,6,,64,72
5700,note_on,,0,0,15,,,,,,,,,,,,,,,,15,,69,72
5700,note_on,,0,0,15,,,,,,,,,,,,,,,,15,,72,72
5700,note_on,,1,0,15,,,,,,,,,,,,,,,,15,,60,72
5700,note_on,,1,0,13,,,,,,,,,,,,,,,,12,,60,72
5700,note_on,,1,0,7,,,,,,,,,,,,,,,,5,,69,72
5700,note_on,,1,0,14,,,,,,,,,,,,,,,,13,,60,72
5729,note_on,,29,0,5,,,,,,,,,,,,,,,,1,,69,0
5729,note_on,,29,0,11,,,,,,,,,,,,,,,,10,,69,0
5729,note_on,,29,0,7,,,,,,,,,,,,,,,,5,,69,0
5730,note_on,,1,0,5,,,,,,,,,,,,,,,,1,,67,72
5730,note_on,,1,0,11,,,,,,,,,,,,,,,,10,,67,72
5730,note_on,,1,0,7,,,,,,,,,,,,,,,,5,,67,72
5759,note_on,,59,0,13,,,,,,,,,,,,,,,,12,,60,0
5759,note_on,,29,0,7,,,,,,,,,,,,,,,,5,,67,0
5759,note_on,,59,0,12,,,,,,,,,,,,,,,,11,,64,0
5759,note_on,,29,0,5,,,,,,,,,,,,,,,,1,,67,0
5759,note_on,,59,0,8,,,,,,,,,,,,,,,,6,,64,0
5759,note_on,,59,0,15,,,,,,,,,,,,,,,,15,,60,0
5759,note_on,,59,0,9,,,,,,,,,,,,,,,,7,,60,0
5759,note_on,,29,0,11,,,,,,,,,,,,,,,,10,,67,0
5759,note_on,,0,0,15,,,,,,,,,,,,,,,,15,,72,0
5759,note_on,,0,0,15,,,,,,,,,,,,,,,,15,,69,0
5759,note_on,,0,0,15,,,,,,,,,,,,,,,,15,,64,0
5759,note_on,,59,0,14,,,,,,,,,,,,,,,,13,,60,0
5760,note_on,,1,0,12,,,,,,,,,,,,,,,,11,,66,72
5760,note_on,,1,0,15,,,,,,,,,,,,,,,,15,,62,72
5760,note_on,,1,0,8,,,,,,,,,,,,,,,,6,,66,72
5760,note_on,,0,0,15,,,,,,,,,,,,,,,,15,,69,72
5760,note_on,,1,0,11,,,,,,,,,,,,,,,,10,,66,72
5760,note_on,,1,0,5,,,,,,,,,,,,,,,,1,,66,72
5760,note_on,,1,0,13,,,,,,,,,,,,,,,,12,,62,72
5760,note_on,,1,0,14,,,,,,,,,,,,,,,,13,,62,72
5760,note_on,,1,0,9,,,,,,,,,,,,,,,,7,,62,72
5760,note_on,,1,0,7,,,,,,,,,,,,,,,,5,,66,72
5760,note_on,,0,0,15,,,,,,,,,,,,,,,,15,,66,72
5819,note_on,,59,0,7,,,,,,,,,,,,,,,,5,,66,0
5819,note_on,,59,0,11,,,,,,,,,,,,,,,,10,,66,0
5819,note_on,,59,0,5,,,,,,,,,,,,,,,,1,,66,0
5820,note_on,,1,0,7,,,,,,,,,,,,,,,,5,,74,72
5820,note_on,,1,0,5,,,,,,,,,,,,,,,,1,,74,72
5820,note_on,,1,0,11,,,,,,,,,,,,,,,,10,,74,72
5879,note_on,,0,0,15,,,,,,,,,,,,,,,,15,,66,0
5879,note_on,,119,0,12,,,,,,,,,,,,,,,,11,,66,0
5879,note_on,,119,0,14,,,,,,,,,,,,,,,,13,,62,0
5879,note_on,,119,0,8,,,,,,,,,,,,,,,,6,,66,0
5879,note_on,,119,0,13,,,,,,,,,,,,,,,,12,,62,0
5879,note_on,,119,0,9,,,,,,,,,,,,,,,,7,,62,0
5879,note_on,,59,0,11,,,,,,,,,,,,,,,,10,,74,0
5879,note_on,,119,0,15,,,,,,,,,,,,,,,,15,,62,0
5879,note_on,,0,0,15,,,,,,,,,,,,,,,,15,,69,0
5880,note_on,,1,0,11,,,,,,,,,,,,,,,,10,,74,72
5909,note_on,,29,0,11,,,,,,,,,,,,,,,,10,,74,0
5909,note_on,,89,0,5,,,,,,,,,,,,,,,,1,,74,0
5909,note_on,,89,0,7,,,,,,,,,,,,,,,,5,,74,0
5910,note_on,,1,0,5,,,,,,,,,,,,,,,,1,,76,72
5910,note_on,,1,0,7,,,,,,,,,,,,,,,,5,,76,72
5910,note_on,,1,0,11,,,,,,,,,,,,,,,,10,,76,72
5939,note_on,,29,0,7,,,,,,,,,,,,,,,,5,,76,0
5939,note_on,,29,0,5,,,,,,,,,,,,,,,,1,,76,0
5939,note_on,,29,0,11,,,,,,,,,,,,,,,,10,,76,0
5940,note_on,,61,0,8,,,,,,,,,,,,,,,,6,,66,72
5940,note_on,,61,0,12,,,,,,,,,,,,,,,,11,,66,72
5940,note_on,,61,0,14,,,,,,,,,,,,,,,,13,,62,72
5940,note_on,,61,0,9,,,,,,,,,,,,,,,,7,,62,72
5940,note_on,,1,0,7,,,,,,,,,,,,,,,,5,,74,72
5940,note_on,,0,0,15,,,,,,,,,,,,,,,,15,,69,72
5940,note_on,,1,0,5,,,,,,,,,,,,,,,,1,,74,72
5940,note_on,,61,0,15,,,,,,,,,,,,,,,,15,,62,72
5940,note_on,,1,0,11,,,,,,,,,,,,,,,,10,,74,72
5940,note_on,,61,0,13,,,,,,,,,,,,,,,,12,,62,72
5940,note_on,,0,0,15,,,,,,,,,,,,,,,,15,,66,72
5969,note_on,,29,0,11,,,,,,,,,,,,,,,,10,,74,0
5969,note_on,,29,0,7,,,,,,,,,,,,,,,,5,,74,0
5969,note_on,,29,0,5,,,,,,,,,,,,,,,,1,,74,0
5970,note_on,,1,0,11,,,,,,,,,,,,,,,,10,,72,72
5970,note_on,,1,0,5,,,,,,,,,,,,,,,,1,,72,72
5970,note_on,,1,0,7,,,,,,,,,,,,,,,,5,,72,72
5999,note_on,,29,0,11,,,,,,,,,,,,,,,,10,,72,0
5999,note_on,,59,0,14,,,,,,,,,,,,,,,,13,,62,0
5999,note_on,,29,0,7,,,,,,,,,,,,,,,,5,,72,0
5999,note_on,,59,0,9,,,,,,,,,,,,,,,,7,,62,0
5999,note_on,,59,0,15,,,,,,,,,,,,,,,,15,,62,0
5999,note_on,,0,0,15,,,,,,,,,,,,,,,,15,,69,0
5999,note_on,,0,0,15,,,,,,,,,,,,,,,,15,,66,0
5999,note_on,,59,0,12,,,,,,,,,,,,,,,,11,,66,0
5999,note_on,,59,0,8,,,,,,,,,,,,,,,,6,,66,0
5999,note_on,,29,0,5,,,,,,,,,,,,,,,,1,,72,0
5999,note_on,,59,0,13,,,,,,,,,,,,,,,,12,,62,0
6000,note_on,,1,0,13,,,,,,,,,,,,,,,,12,,62,72
6000,note_on,,1,0,12,,,,,,,,,,,,,,,,11,,66,72
6000,note_on,,1,0,8,,,,,,,,,,,,,,,,6,,66,72
6000,note_on,,1,0,9,,,,,,,,,,,,,,,,7,,62,72
6000,note_on,,1,0,5,,,,,,,,,,,,,,,,1,,71,72
6000,note_on,,1,0,14,,,,,,,,,,,,,,,,13,,62,72
6000,note_on,,1,0,11,,,,,,,,,,,,,,,,10,,71,72
6000,note_on,,1,0,7,,,,,,,,,,,,,,,,5,,71,72
6000,note_on,,0,0,15,,,,,,,,,,,,,,,,15,,74,72
6000,note_on,,0,0,15,,,,,,,,,,,,,,,,15,,66,72
6000,note_on,,1,0,15,,,,,,,,,,,,,,,,15,,62,72
6029,note_on,,29,0,7,,,,,,,,,,,,,,,,5,,71,0
6029,note_on,,29,0,11,,,,,,,,,,,,,,,,10,,71,0
6029,note_on,,29,0,5,,,,,,,,,,,,,,,,1,,71,0
6030,note_on,,1,0,7,,,,,,,,,,,,,,,,5,,72,72
6030,note_on,,1,0,5,,,,,,,,,,,,,,,,1,,72,72
6030,note_on,,1,0,11,,,,,,,,,,,,,,,,10,,72,72
6059,note_on,,29,0,11,,,,,,,,,,,,,,,,10,,72,0
6059,note_on,,59,0,9,,,,,,,,,,,,,,,,7,,62,0
6059,note_on,,0,0,15,,,,,,,,,,,,,,,,15,,66,0
6059,note_on,,29,0,5,,,,,,,,,,,,,,,,1,,72,0
6059,note_on,,0,0,15,,,,,,,,,,,,,,,,15,,74,0
6059,note_on,,59,0,12,,,,,,,,,,,,,,,,11,,66,0
6059,note_on,,59,0,15,,,,,,,,,,,,,,,,15,,62,0
6059,note_on,,29,0,7,,,,,,,,,,,,,,,,5,,72,0
6059,note_on,,59,0,8,,,,,,,,,,,,,,,,6,,66,0
6059,note_on,,59,0,14,,,,,,,,,,,,,,,,13,,62,0
6059,note_on,,59,0,13,,,,,,,,,,,,,,,,12,,62,0
6060,note_on,,1,0,12,,,,,,,,,,,,,,,,11,,66,72
6060,note_on,,0,0,15,,,,,,,,,,,,,,,,15,,74,72
6060,note_on,,0,0,15,,,,,,,,,,,,,,,,15,,66,72
6060,note_on,,1,0,15,,,,,,,,,,,,,,,,15,,62,72
6060,note_on,,1,0,5,,,,,,,,,,,,,,,,1,,71,72
6060,note_on,,1,0,13,,,,,,,,,,,,,,,,12,,62,72
6060,note_on,,1,0,14,,,,,,,,,,,,,,,,13,,62,72
6060,note_on,,1,0,9,,,,,,,,,,,,,,,,7,,62,72
6060,note_on,,1,0,8,,,,,,,,,,,,,,,,6,,66,72
6060,note_on,,1,0,7,,,,,,,,,,,,,,,,5,,71,72
6060,note_on,,1,0,11,,,,,,,,,,,,,,,,10,,71,72
6089,note_on,,29,0,11,,,,,,,,,,,,,,,,10,,71,0
6089,note_on,,29,0,5,,,,,,,,,,,,,,,,1,,71,0
6089,note_on,,29,0,7,,,,,,,,,,,,,,,,5,,71,0
6090,note_on,,1,0,7,,,,,,,,,,,,,,,,5,,69,72
6090,note_on,,1,0,11,,,,,,,,,,,,,,,,10,,69,72
6090,note_on,,1,0,5,,,,,,,,,,,,,,,,1,,69,72
6119,note_on,,29,0,5,,,,,,,,,,,,,,,,1,,69,0
6119,note_on,,59,0,13,,,,,,,,,,,,,,,,12,,62,0
6119,note_on,,59,0,12,,,,,,,,,,,,,,,,11,,66,0
6119,note_on,,29,0,7,,,,,,,,,,,,,,,,5,,69,0
6119,note_on,,29,0,11,,,,,,,,,,,,,,,,10,,69,0
6119,note_on,,59,0,15,,,,,,,,,,,,,,,,15,,62,0
6119,note_on,,0,0,15,,,,,,,,,,,,,,,,15,,74,0
6119,note_on,,59,0,8,,,,,,,,,,,,,,,,6,,66,0
6119,note_on,,59,0,14,,,,,,,,,,,,,,,,13,,62,0
6119,note_on,,0,0,15,,,,,,,,,,,,,,,,15,,66,0
6119,note_on,,59,0,9,,,,,,,,,,,,,,,,7,,62,0
6120,note_on,,1,0,13,,,,,,,,,,,,,,,,12,,74,72
6120,note_on,,1,0,14,,,,,,,,,,,,,,,,13,,55,72
6120,note_on,,1,0,7,,,,,,,,,,,,,,,,5,,71,72
6120,note_on,,1,0,8,,,,,,,,,,,,,,,,6,,67,72
6120,note_on,,1,0,5,,,,,,,,,,,,,,,,1,,71,72
6120,note_on,,3001,0,10,,,,,,,,,,,,,,,,8,,55,72
6120,note_on,,1,0,11,,,,,,,,,,,,,,,,10,,83,72
6120,note_on,,0,0,15,,,,,,,,,,,,,,,,15,,62,72
6120,note_on,,0,0,15,,,,,,,,,,,,,,,,15,,67,72
6120,note_on,,0,0,15,,,,,,,,,,,,,,,,15,,71,72
6120,note_on,,0,0,15,,,,,,,,,,,,,,,,15,,74,72
6120,note_on,,1,0,15,,,,,,,,,,,,,,,,15,,55,72
6120,note_on,,961,0,6,,,,,,,,,,,,,,,,2,,55,72
6120,note_on,,1,0,9,,,,,,,,,,,,,,,,7,,62,72
6120,note_on,,1,0,12,,,,,,,,,,,,,,,,11,,79,72
6179,note_on,,59,0,7,,,,,,,,,,,,,,,,5,,71,0
6179,note_on,,59,0,5,,,,,,,,,,,,,,,,1,,71,0
6180,note_on,,1,0,7,,,,,,,,,,,,,,,,5,,67,72
6180,note_on,,1,0,5,,,,,,,,,,,,,,,,1,,67,72
6209,note_on,,89,0,11,,,,,,,,,,,,,,,,10,,83,0
6209,note_on,,89,0,12,,,,,,,,,,,,,,,,11,,79,0
6209,note_on,,89,0,13,,,,,,,,,,,,,,,,12,,74,0
6239,note_on,,119,0,8,,,,,,,,,,,,,,,,6,,67,0
6239,note_on,,59,0,5,,,,,,,,,,,,,,,,1,,67,0
6239,note_on,,119,0,9,,,,,,,,,,,,,,,,7,,62,0
6239,note_on,,0,0,15,,,,,,,,,,,,,,,,15,,62,0
6239,note_on,,0,0,15,,,,,,,,,,,,,,,,15,,74,0
6239,note_on,,0,0,15,,,,,,,,,,,,,,,,15,,71,0
6239,note_on,,0,0,15,,,,,,,,,,,,,,,,15,,67,0
6239,note_on,,119,0,10,,,,,,,,,,,,,,,,8,,55,0
6239,note_on,,119,0,15,,,,,,,,,,,,,,,,15,,55,0
6239,note_on,,119,0,14,,,,,,,,,,,,,,,,13,,55,0
6239,note_on,,59,0,7,,,,,,,,,,,,,,,,5,,67,0
6239,note_on,,119,0,6,,,,,,,,,,,,,,,,2,,55,0
6240,note_on,,31,0,11,,,,,,,,,,,,,,,,10,,86,72
6240,note_on,,1,0,10,,,,,,,,,,,,,,,,8,,54,72
6240,note_on,,31,0,13,,,,,,,,,,,,,,,,12,,62,72
6240,note_on,,31,0,12,,,,,,,,,,,,,,,,11,,81,72
6240,note_on,,1,0,7,,,,,,,,,,,,,,,,5,,74,72
6240,note_on,,0,0,15,,,,,,,,,,,,,,,,15,,62,72
6240,note_on,,0,0,15,,,,,,,,,,,,,,,,15,,69,72
6240,note_on,,0,0,15,,,,,,,,,,,,,,,,15,,57,72
6240,note_on,,1,0,15,,,,,,,,,,,,,,,,15,,54,72
6240,note_on,,1,0,5,,,,,,,,,,,,,,,,1,,74,72
6240,note_on,,1,0,6,,,,,,,,,,,,,,,,2,,54,72
6240,note_on,,1,0,14,,,,,,,,,,,,,,,,13,,54,72
6300,note_on,,61,0,9,,,,,,,,,,,,,,,,7,,62,72
6300,note_on,,61,0,8,,,,,,,,,,,,,,,,6,,69,72
6329,note_on,,89,0,12,,,,,,,,,,,,,,,,11,,81,0
6329,note_on,,89,0,13,,,,,,,,,,,,,,,,12,,62,0
6329,note_on,,89,0,11,,,,,,,,,,,,,,,,10,,86,0
6359,note_on,,119,0,6,,,,,,,,,,,,,,,,2,,54,0
6359,note_on,,119,0,10,,,,,,,,,,,,,,,,8,,54,0
6359,note_on,,59,0,8,,,,,,,,,,,,,,,,6,,69,0
6359,note_on,,59,0,9,,,,,,,,,,,,,,,,7,,62,0
6359,note_on,,119,0,14,,,,,,,,,,,,,,,,13,,54,0
6359,note_on,,119,0,15,,,,,,,,,,,,,,,,15,,54,0
6359,note_on,,0,0,15,,,,,,,,,,,,,,,,15,,57,0
6359,note_on,,0,0,15,,,,,,,,,,,,,,,,15,,62,0
6359,note_on,,0,0,15,,,,,,,,,,,,,,,,15,,69,0
6360,note_on,,1,0,14,,,,,,,,,,,,,,,,13,,50,72
6360,note_on,,0,0,15,,,,,,,,,,,,,,,,15,,74,72
6360,note_on,,0,0,15,,,,,,,,,,,,,,,,15,,66,72
6360,note_on,,1,0,10,,,,,,,,,,,,,,,,8,,50,72
6360,note_on,,31,0,11,,,,,,,,,,,,,,,,10,,81,72
6360,note_on,,1,0,9,,,,,,,,,,,,,,,,7,,57,72
6360,note_on,,31,0,12,,,,,,,,,,,,,,,,11,,78,72
6360,note_on,,0,0,15,,,,,,,,,,,,,,,,15,,57,72
6360,note_on,,0,0,15,,,,,,,,,,,,,,,,15,,50,72
6360,note_on,,1,0,15,,,,,,,,,,,,,,,,15,,69,72
6360,note_on,,31,0,13,,,,,,,,,,,,,,,,12,,74,72
6360,note_on,,1,0,8,,,,,,,,,,,,,,,,6,,66,72
6360,note_on,,1,0,6,,,,,,,,,,,,,,,,2,,50,72
6419,note_on,,179,0,7,,,,,,,,,,,,,,,,5,,74,0
6419,note_on,,59,0,8,,,,,,,,,,,,,,,,6,,66,0
6419,note_on,,179,0,5,,,,,,,,,,,,,,,,1,,74,0
6419,note_on,,59,0,9,,,,,,,,,,,,,,,,7,,57,0
6420,note_on,,1,0,8,,,,,,,,,,,,,,,,6,,66,72
6420,note_on,,1,0,7,,,,,,,,,,,,,,,,5,,74,72
6420,note_on,,1,0,5,,,,,,,,,,,,,,,,1,,74,72
6420,note_on,,1,0,9,,,,,,,,,,,,,,,,7,,57,72
6449,note_on,,89,0,12,,,,,,,,,,,,,,,,11,,78,0
6449,note_on,,89,0,13,,,,,,,,,,,,,,,,12,,74,0
6449,note_on,,89,0,11,,,,,,,,,,,,,,,,10,,81,0
6479,note_on,,119,0,15,,,,,,,,,,,,,,,,15,,69,0
6479,note_on,,119,0,10,,,,,,,,,,,,,,,,8,,50,0
6479,note_on,,119,0,14,,,,,,,,,,,,,,,,13,,50,0
6479,note_on,,0,0,15,,,,,,,,,,,,,,,,15,,50,0
6479,note_on,,0,0,15,,,,,,,,,,,,,,,,15,,57,0
6479,note_on,,119,0,6,,,,,,,,,,,,,,,,2,,50,0
6479,note_on,,59,0,9,,,,,,,,,,,,,,,,7,,57,0
6479,note_on,,59,0,7,,,,,,,,,,,,,,,,5,,74,0
6479,note_on,,59,0,5,,,,,,,,,,,,,,,,1,,74,0
6479,note_on,,59,0,8,,,,,,,,,,,,,,,,6,,66,0
6479,note_on,,0,0,15,,,,,,,,,,,,,,,,15,,66,0
6479,note_on,,0,0,15,,,,,,,,,,,,,,,,15,,74,0
6480,note_on,,1,0,7,,,,,,,,,,,,,,,,5,,74,72
6480,note_on,,1,0,9,,,,,,,,,,,,,,,,7,,59,72
6480,note_on,,31,0,12,,,,,,,,,,,,,,,,11,,74,72
6480,note_on,,1,0,6,,,,,,,,,,,,,,,,2,,47,72
6480,note_on,,31,0,13,,,,,,,,,,,,,,,,12,,67,72
6480,note_on,,1,0,10,,,,,,,,,,,,,,,,8,,47,72
6480,note_on,,1,0,14,,,,,,,,,,,,,,,,13,,47,72
6480,note_on,,0,0,15,,,,,,,,,,,,,,,,15,,55,72
6480,note_on,,1,0,8,,,,,,,,,,,,,,,,6,,67,72
6480,note_on,,0,0,15,,,,,,,,,,,,,,,,15,,62,72
6480,note_on,,0,0,15,,,,,,,,,,,,,,,,15,,71,72
6480,note_on,,0,0,15,,,,,,,,,,,,,,,,15,,74,72
6480,note_on,,1,0,5,,,,,,,,,,,,,,,,1,,74,72
6480,note_on,,31,0,11,,,,,,,,,,,,,,,,10,,83,72
6480,note_on,,1,0,15,,,,,,,,,,,,,,,,15,,47,72
6509,note_on,,29,0,12,,,,,,,,,,,,,,,,11,,74,0
6510,note_on,,1,0,12,,,,,,,,,,,,,,,,11,,76,72
6539,note_on,,59,0,10,,,,,,,,,,,,,,,,8,,47,0
6539,note_on,,59,0,14,,,,,,,,,,,,,,,,13,,47,0
6539,note_on,,59,0,15,,,,,,,,,,,,,,,,15,,47,0
6539,note_on,,59,0,5,,,,,,,,,,,,,,,,1,,74,0
6539,note_on,,59,0,6,,,,,,,,,,,,,,,,2,,47,0
6539,note_on,,59,0,7,,,,,,,,,,,,,,,,5,,74,0
6539,note_on,,0,0,15,,,,,,,,,,,,,,,,15,,74,0
6539,note_on,,0,0,15,,,,,,,,,,,,,,,,15,,71,0
6539,note_on,,0,0,15,,,,,,,,,,,,,,,,15,,55,0
6539,note_on,,0,0,15,,,,,,,,,,,,,,,,15,,62,0
6539,note_on,,29,0,12,,,,,,,,,,,,,,,,11,,76,0
6540,note_on,,0,0,15,,,,,,,,,,,,,,,,15,,59,72
6540,note_on,,0,0,15,,,,,,,,,,,,,,,,15,,62,72
6540,note_on,,1,0,14,,,,,,,,,,,,,,,,13,,55,72
6540,note_on,,1,0,10,,,,,,,,,,,,,,,,8,,55,72
6540,note_on,,1,0,5,,,,,,,,,,,,,,,,1,,71,72
6540,note_on,,1,0,15,,,,,,,,,,,,,,,,15,,55,72
6540,note_on,,1,0,6,,,,,,,,,,,,,,,,2,,55,72
6540,note_on,,1,0,7,,,,,,,,,,,,,,,,5,,71,72
6540,note_on,,1,0,12,,,,,,,,,,,,,,,,11,,74,72
6540,note_on,,0,0,15,,,,,,,,,,,,,,,,15,,67,72
6540,note_on,,0,0,15,,,,,,,,,,,,,,,,15,,71,72
6569,note_on,,89,0,11,,,,,,,,,,,,,,,,10,,83,0
6569,note_on,,29,0,12,,,,,,,,,,,,,,,,11,,74,0
6570,note_on,,1,0,12,,,,,,,,,,,,,,,,11,,72,72
6599,note_on,,59,0,7,,,,,,,,,,,,,,,,5,,71,0
6599,note_on,,59,0,5,,,,,,,,,,,,,,,,1,,71,0
6599,note_on,,119,0,13,,,,,,,,,,,,,,,,12,,67,0
6599,note_on,,29,0,12,,,,,,,,,,,,,,,,11,,72,0
6599,note_on,,119,0,8,,,,,,,,,,,,,,,,6,,67,0
6599,note_on,,119,0,9,,,,,,,,,,,,,,,,7,,59,0
6600,note_on,,1,0,13,,,,,,,,,,,,,,,,12,,67,72
6600,note_on,,1,0,12,,,,,,,,,,,,,,,,11,,71,72
6600,note_on,,1,0,5,,,,,,,,,,,,,,,,1,,71,72
6600,note_on,,31,0,11,,,,,,,,,,,,,,,,10,,74,72
6600,note_on,,1,0,7,,,,,,,,,,,,,,,,5,,71,72
6629,note_on,,89,0,10,,,,,,,,,,,,,,,,8,,55,0
6629,note_on,,29,0,12,,,,,,,,,,,,,,,,11,,71,0
6630,note_on,,1,0,10,,,,,,,,,,,,,,,,8,,57,72
6630,note_on,,1,0,12,,,,,,,,,,,,,,,,11,,72,72
6659,note_on,,29,0,10,,,,,,,,,,,,,,,,8,,57,0
6659,note_on,,0,0,15,,,,,,,,,,,,,,,,15,,67,0
6659,note_on,,29,0,12,,,,,,,,,,,,,,,,11,,72,0
6659,note_on,,119,0,6,,,,,,,,,,,,,,,,2,,55,0
6659,note_on,,119,0,15,,,,,,,,,,,,,,,,15,,55,0
6659,note_on,,0,0,15,,,,,,,,,,,,,,,,15,,59,0
6659,note_on,,0,0,15,,,,,,,,,,,,,,,,15,,62,0
6659,note_on,,119,0,14,,,,,,,,,,,,,,,,13,,55,0
6659,note_on,,0,0,15,,,,,,,,,,,,,,,,15,,71,0
6660,note_on,,61,0,9,,,,,,,,,,,,,,,,7,,62,72
6660,note_on,,0,0,15,,,,,,,,,,,,,,,,15,,62,72
6660,note_on,,0,0,15,,,,,,,,,,,,,,,,15,,55,72
6660,note_on,,1,0,10,,,,,,,,,,,,,,,,8,,55,72
6660,note_on,,1,0,15,,,,,,,,,,,,,,,,15,,54,72
6660,note_on,,1,0,12,,,,,,,,,,,,,,,,11,,71,72
6660,note_on,,0,0,15,,,,,,,,,,,,,,,,15,,59,72
6660,note_on,,61,0,8,,,,,,,,,,,,,,,,6,,67,72
6660,note_on,,1,0,6,,,,,,,,,,,,,,,,2,,54,72
6660,note_on,,1,0,14,,,,,,,,,,,,,,,,13,,54,72
6689,note_on,,29,0,12,,,,,,,,,,,,,,,,11,,71,0
6689,note_on,,29,0,10,,,,,,,,,,,,,,,,8,,55,0
6689,note_on,,89,0,11,,,,,,,,,,,,,,,,10,,74,0
6690,note_on,,1,0,10,,,,,,,,,,,,,,,,8,,54,72
6690,note_on,,1,0,12,,,,,,,,,,,,,,,,11,,69,72
6719,note_on,,59,0,15,,,,,,,,,,,,,,,,15,,54,0
6719,note_on,,29,0,10,,,,,,,,,,,,,,,,8,,54,0
6719,note_on,,119,0,13,,,,,,,,,,,,,,,,12,,67,0
6719,note_on,,59,0,9,,,,,,,,,,,,,,,,7,,62,0
6719,note_on,,59,0,8,,,,,,,,,,,,,,,,6,,67,0
6719,note_on,,59,0,6,,,,,,,,,,,,,,,,2,,54,0
6719,note_on,,0,0,15,,,,,,,,,,,,,,,,15,,59,0
6719,note_on,,0,0,15,,,,,,,,,,,,,,,,15,,62,0
6719,note_on,,29,0,12,,,,,,,,,,,,,,,,11,,69,0
6719,note_on,,0,0,15,,,,,,,,,,,,,,,,15,,55,0
6719,note_on,,59,0,14,,,,,,,,,,,,,,,,13,,54,0
6720,note_on,,1,0,10,,,,,,,,,,,,,,,,8,,52,72
6720,note_on,,0,0,15,,,,,,,,,,,,,,,,15,,64,72
6720,note_on,,0,0,15,,,,,,,,,,,,,,,,15,,55,72
6720,note_on,,0,0,15,,,,,,,,,,,,,,,,15,,59,72
6720,note_on,,1,0,12,,,,,,,,,,,,,,,,11,,67,72
6720,note_on,,1,0,15,,,,,,,,,,,,,,,,15,,52,72
6720,note_on,,1,0,13,,,,,,,,,,,,,,,,12,,71,72
6720,note_on,,1,0,8,,,,,,,,,,,,,,,,6,,67,72
6720,note_on,,1,0,6,,,,,,,,,,,,,,,,2,,52,72
6720,note_on,,1,0,9,,,,,,,,,,,,,,,,7,,64,72
6720,note_on,,1,0,14,,,,,,,,,,,,,,,,13,,52,72
6749,note_on,,29,0,10,,,,,,,,,,,,,,,,8,,52,0
6749,note_on,,29,0,12,,,,,,,,,,,,,,,,11,,67,0
6750,note_on,,1,0,12,,,,,,,,,,,,,,,,11,,69,72
6750,note_on,,1,0,10,,,,,,,,,,,,,,,,8,,54,72
6779,note_on,,29,0,12,,,,,,,,,,,,,,,,11,,69,0
6779,note_on,,59,0,9,,,,,,,,,,,,,,,,7,,64,0
6779,note_on,,179,0,5,,,,,,,,,,,,,,,,1,,71,0
6779,note_on,,179,0,7,,,,,,,,,,,,,,,,5,,71,0
6779,note_on,,59,0,8,,,,,,,,,,,,,,,,6,,67,0
6779,note_on,,29,0,10,,,,,,,,,,,,,,,,8,,54,0
6780,note_on,,1,0,7,,,,,,,,,,,,,,,,5,,71,72
6780,note_on,,91,0,11,,,,,,,,,,,,,,,,10,,74,72
6780,note_on,,1,0,9,,,,,,,,,,,,,,,,7,,64,72
6780,note_on,,1,0,5,,,,,,,,,,,,,,,,1,,71,72
6780,note_on,,1,0,12,,,,,,,,,,,,,,,,11,,67,72
6780,note_on,,1,0,8,,,,,,,,,,,,,,,,6,,67,72
6780,note_on,,1,0,10,,,,,,,,,,,,,,,,8,,52,72
6809,note_on,,89,0,14,,,,,,,,,,,,,,,,13,,52,0
6809,note_on,,89,0,6,,,,,,,,,,,,,,,,2,,52,0
6809,note_on,,29,0,10,,,,,,,,,,,,,,,,8,,52,0
6809,note_on,,29,0,12,,,,,,,,,,,,,,,,11,,67,0
6809,note_on,,89,0,15,,,,,,,,,,,,,,,,15,,52,0
6809,note_on,,0,0,15,,,,,,,,,,,,,,,,15,,64,0
6809,note_on,,0,0,15,,,,,,,,,,,,,,,,15,,59,0
6809,note_on,,0,0,15,,,,,,,,,,,,,,,,15,,55,0
6810,note_on,,1,0,14,,,,,,,,,,,,,,,,13,,50,72
6810,note_on,,1,0,6,,,,,,,,,,,,,,,,2,,50,72
6810,note_on,,1,0,12,,,,,,,,,,,,,,,,11,,66,72
6810,note_on,,1,0,15,,,,,,,,,,,,,,,,15,,50,72
6810,note_on,,0,0,15,,,,,,,,,,,,,,,,15,,67,72
6810,note_on,,0,0,15,,,,,,,,,,,,,,,,15,,64,72
6810,note_on,,0,0,15,,,,,,,,,,,,,,,,15,,59,72
6810,note_on,,1,0,10,,,,,,,,,,,,,,,,8,,50,72
6839,note_on,,119,0,13,,,,,,,,,,,,,,,,12,,71,0
6839,note_on,,29,0,12,,,,,,,,,,,,,,,,11,,66,0
6839,note_on,,29,0,14,,,,,,,,,,,,,,,,13,,50,0
6839,note_on,,29,0,15,,,,,,,,,,,,,,,,15,,50,0
6839,note_on,,0,0,15,,,,,,,,,,,,,,,,15,,67,0
6839,note_on,,0,0,15,,,,,,,,,,,,,,,,15,,64,0
6839,note_on,,0,0,15,,,,,,,,,,,,,,,,15,,59,0
6839,note_on,,59,0,8,,,,,,,,,,,,,,,,6,,67,0
6839,note_on,,59,0,11,,,,,,,,,,,,,,,,10,,74,0
6839,note_on,,29,0,10,,,,,,,,,,,,,,,,8,,50,0
6839,note_on,,29,0,6,,,,,,,,,,,,,,,,2,,50,0
6839,note_on,,59,0,9,,,,,,,,,,,,,,,,7,,64,0
6839,note_on,,59,0,5,,,,,,,,,,,,,,,,1,,71,0
6839,note_on,,59,0,7,,,,,,,,,,,,,,,,5,,71,0
6840,note_on,,1,0,13,,,,,,,,,,,,,,,,12,,69,72
6840,note_on,,1,0,8,,,,,,,,,,,,,,,,6,,69,72
6840,note_on,,1,0,10,,,,,,,,,,,,,,,,8,,49,72
6840,note_on,,1,0,6,,,,,,,,,,,,,,,,2,,49,72
6840,note_on,,1,0,12,,,,,,,,,,,,,,,,11,,64,72
6840,note_on,,1,0,14,,,,,,,,,,,,,,,,13,,49,72
6840,note_on,,0,0,15,,,,,,,,,,,,,,,,15,,52,72
6840,note_on,,0,0,15,,,,,,,,,,,,,,,,15,,64,72
6840,note_on,,1,0,5,,,,,,,,,,,,,,,,1,,76,72
6840,note_on,,0,0,15,,,,,,,,,,,,,,,,15,,57,72
6840,note_on,,1,0,7,,,,,,,,,,,,,,,,5,,76,72
6840,note_on,,0,0,15,,,,,,,,,,,,,,,,15,,69,72
6840,note_on,,1,0,9,,,,,,,,,,,,,,,,7,,64,72
6840,note_on,,1,0,11,,,,,,,,,,,,,,,,10,,76,72
6840,note_on,,1,0,15,,,,,,,,,,,,,,,,15,,49,72
6869,note_on,,29,0,11,,,,,,,,,,,,,,,,10,,76,0
6870,note_on,,1,0,11,,,,,,,,,,,,,,,,10,,78,72
6899,note_on,,29,0,11,,,,,,,,,,,,,,,,10,,78,0
6899,note_on,,59,0,15,,,,,,,,,,,,,,,,15,,49,0
6899,note_on,,59,0,6,,,,,,,,,,,,,,,,2,,49,0
6899,note_on,,0,0,15,,,,,,,,,,,,,,,,15,,52,0
6899,note_on,,0,0,15,,,,,,,,,,,,,,,,15,,64,0
6899,note_on,,0,0,15,,,,,,,,,,,,,,,,15,,57,0
6899,note_on,,59,0,7,,,,,,,,,,,,,,,,5,,76,0
6899,note_on,,59,0,5,,,,,,,,,,,,,,,,1,,76,0
6899,note_on,,59,0,12,,,,,,,,,,,,,,,,11,,64,0
6899,note_on,,59,0,10,,,,,,,,,,,,,,,,8,,49,0
6899,note_on,,59,0,14,,,,,,,,,,,,,,,,13,,49,0
6900,note_on,,0,0,15,,,,,,,,,,,,,,,,15,,64,72
6900,note_on,,1,0,5,,,,,,,,,,,,,,,,1,,73,72
6900,note_on,,1,0,15,,,,,,,,,,,,,,,,15,,57,72
6900,note_on,,1,0,12,,,,,,,,,,,,,,,,11,,73,72
6900,note_on,,1,0,14,,,,,,,,,,,,,,,,13,,57,72
6900,note_on,,1,0,6,,,,,,,,,,,,,,,,2,,57,72
6900,note_on,,1,0,7,,,,,,,,,,,,,,,,5,,73,72
6900,note_on,,1,0,10,,,,,,,,,,,,,,,,8,,57,72
6900,note_on,,0,0,15,,,,,,,,,,,,,,,,15,,61,72
6900,note_on,,1,0,11,,,,,,,,,,,,,,,,10,,76,72
6929,note_on,,29,0,11,,,,,,,,,,,,,,,,10,,76,0
6930,note_on,,1,0,11,,,,,,,,,,,,,,,,10,,74,72
6959,note_on,,29,0,11,,,,,,,,,,,,,,,,10,,74,0
6959,note_on,,59,0,7,,,,,,,,,,,,,,,,5,,73,0
6959,note_on,,119,0,13,,,,,,,,,,,,,,,,12,,69,0
6959,note_on,,119,0,9,,,,,,,,,,,,,,,,7,,64,0
6959,note_on,,119,0,8,,,,,,,,,,,,,,,,6,,69,0
6959,note_on,,59,0,12,,,,,,,,,,,,,,,,11,,73,0
6959,note_on,,59,0,5,,,,,,,,,,,,,,,,1,,73,0
6960,note_on,,1,0,11,,,,,,,,,,,,,,,,10,,73,72
6960,note_on,,1,0,5,,,,,,,,,,,,,,,,1,,73,72
6960,note_on,,1,0,12,,,,,,,,,,,,,,,,11,,76,72
6960,note_on,,1,0,7,,,,,,,,,,,,,,,,5,,73,72
6989,note_on,,89,0,10,,,,,,,,,,,,,,,,8,,57,0
6989,note_on,,29,0,11,,,,,,,,,,,,,,,,10,,73,0
6990,note_on,,1,0,11,,,,,,,,,,,,,,,,10,,74,72
6990,note_on,,1,0,10,,,,,,,,,,,,,,,,8,,59,72
7019,note_on,,119,0,15,,,,,,,,,,,,,,,,15,,69,0
7019,note_on,,0,0,15,,,,,,,,,,,,,,,,15,,57,0
7019,note_on,,0,0,15,,,,,,,,,,,,,,,,15,,64,0
7019,note_on,,0,0,15,,,,,,,,,,,,,,,,15,,61,0
7019,note_on,,119,0,14,,,,,,,,,,,,,,,,13,,57,0
7019,note_on,,29,0,10,,,,,,,,,,,,,,,,8,,59,0
7019,note_on,,29,0,11,,,,,,,,,,,,,,,,10,,74,0
7019,note_on,,119,0,6,,,,,,,,,,,,,,,,2,,57,0
7020,note_on,,0,0,15,,,,,,,,,,,,,,,,15,,61,72
7020,note_on,,0,0,15,,,,,,,,,,,,,,,,15,,57,72
7020,note_on,,61,0,13,,,,,,,,,,,,,,,,12,,69,72
7020,note_on,,61,0,9,,,,,,,,,,,,,,,,7,,64,72
7020,note_on,,1,0,15,,,,,,,,,,,,,,,,15,,55,72
7020,note_on,,0,0,15,,,,,,,,,,,,,,,,15,,64,72
7020,note_on,,61,0,8,,,,,,,,,,,,,,,,6,,69,72
7020,note_on,,1,0,14,,,,,,,,,,,,,,,,13,,55,72
7020,note_on,,1,0,6,,,,,,,,,,,,,,,,2,,55,72
7020,note_on,,1,0,10,,,,,,,,,,,,,,,,8,,57,72
7020,note_on,,1,0,11,,,,,,,,,,,,,,,,10,,73,72
7049,note_on,,29,0,10,,,,,,,,,,,,,,,,8,,57,0
7049,note_on,,29,0,11,,,,,,,,,,,,,,,,10,,73,0
7050,note_on,,1,0,10,,,,,,,,,,,,,,,,8,,55,72
7050,note_on,,1,0,11,,,,,,,,,,,,,,,,10,,71,72
7079,note_on,,119,0,12,,,,,,,,,,,,,,,,11,,76,0
7079,note_on,,59,0,6,,,,,,,,,,,,,,,,2,,55,0
7079,note_on,,59,0,13,,,,,,,,,,,,,,,,12,,69,0
7079,note_on,,0,0,15,,,,,,,,,,,,,,,,15,,57,0
7079,note_on,,59,0,8,,,,,,,,,,,,,,,,6,,69,0
7079,note_on,,0,0,15,,,,,,,,,,,,,,,,15,,64,0
7079,note_on,,59,0,15,,,,,,,,,,,,,,,,15,,55,0
7079,note_on,,29,0,11,,,,,,,,,,,,,,,,10,,71,0
7079,note_on,,29,0,10,,,,,,,,,,,,,,,,8,,55,0
7079,note_on,,59,0,14,,,,,,,,,,,,,,,,13,,55,0
7079,note_on,,59,0,9,,,,,,,,,,,,,,,,7,,64,0
7079,note_on,,0,0,15,,,,,,,,,,,,,,,,15,,61,0
7080,note_on,,1,0,15,,,,,,,,,,,,,,,,15,,54,72
7080,note_on,,0,0,15,,,,,,,,,,,,,,,,15,,69,72
7080,note_on,,1,0,14,,,,,,,,,,,,,,,,13,,54,72
7080,note_on,,0,0,15,,,,,,,,,,,,,,,,15,,57,72
7080,note_on,,1,0,9,,,,,,,,,,,,,,,,7,,64,72
7080,note_on,,1,0,13,,,,,,,,,,,,,,,,12,,69,72
7080,note_on,,0,0,15,,,,,,,,,,,,,,,,15,,64,72
7080,note_on,,1,0,8,,,,,,,,,,,,,,,,6,,69,72
7080,note_on,,1,0,11,,,,,,,,,,,,,,,,10,,69,72
7080,note_on,,1,0,6,,,,,,,,,,,,,,,,2,,54,72
7080,note_on,,1,0,10,,,,,,,,,,,,,,,,8,,54,72
7109,note_on,,29,0,11,,,,,,,,,,,,,,,,10,,69,0
7109,note_on,,29,0,10,,,,,,,,,,,,,,,,8,,54,0
7110,note_on,,1,0,11,,,,,,,,,,,,,,,,10,,71,72
7110,note_on,,1,0,10,,,,,,,,,,,,,,,,8,,55,72
7139,note_on,,59,0,9,,,,,,,,,,,,,,,,7,,64,0
7139,note_on,,179,0,5,,,,,,,,,,,,,,,,1,,73,0
7139,note_on,,29,0,11,,,,,,,,,,,,,,,,10,,71,0
7139,note_on,,59,0,8,,,,,,,,,,,,,,,,6,,69,0
7139,note_on,,179,0,7,,,,,,,,,,,,,,,,5,,73,0
7139,note_on,,29,0,10,,,,,,,,,,,,,,,,8,,55,0
7139,note_on,,59,0,13,,,,,,,,,,,,,,,,12,,69,0
7140,note_on,,61,0,12,,,,,,,,,,,,,,,,11,,76,72
7140,note_on,,1,0,13,,,,,,,,,,,,,,,,12,,69,72
7140,note_on,,1,0,7,,,,,,,,,,,,,,,,5,,73,72
7140,note_on,,1,0,10,,,,,,,,,,,,,,,,8,,54,72
7140,note_on,,1,0,9,,,,,,,,,,,,,,,,7,,64,72
7140,note_on,,1,0,8,,,,,,,,,,,,,,,,6,,69,72
7140,note_on,,1,0,5,,,,,,,,,,,,,,,,1,,73,72
7140,note_on,,1,0,11,,,,,,,,,,,,,,,,10,,69,72
7169,note_on,,29,0,10,,,,,,,,,,,,,,,,8,,54,0
7169,note_on,,89,0,14,,,,,,,,,,,,,,,,13,,54,0
7169,note_on,,29,0,11,,,,,,,,,,,,,,,,10,,69,0
7169,note_on,,0,0,15,,,,,,,,,,,,,,,,15,,57,0
7169,note_on,,0,0,15,,,,,,,,,,,,,,,,15,,64,0
7169,note_on,,0,0,15,,,,,,,,,,,,,,,,15,,69,0
7169,note_on,,89,0,6,,,,,,,,,,,,,,,,2,,54,0
7169,note_on,,89,0,15,,,,,,,,,,,,,,,,15,,54,0
7170,note_on,,1,0,14,,,,,,,,,,,,,,,,13,,52,72
7170,note_on,,1,0,10,,,,,,,,,,,,,,,,8,,52,72
7170,note_on,,0,0,15,,,,,,,,,,,,,,,,15,,67,72
7170,note_on,,0,0,15,,,,,,,,,,,,,,,,15,,64,72
7170,note_on,,1,0,6,,,,,,,,,,,,,,,,2,,52,72
7170,note_on,,1,0,15,,,,,,,,,,,,,,,,15,,52,72
7170,note_on,,0,0,15,,,,,,,,,,,,,,,,15,,73,72
7170,note_on,,1,0,11,,,,,,,,,,,,,,,,10,,67,72
7199,note_on,,59,0,13,,,,,,,,,,,,,,,,12,,69,0
7199,note_on,,59,0,9,,,,,,,,,,,,,,,,7,,64,0
7199,note_on,,59,0,5,,,,,,,,,,,,,,,,1,,73,0
7199,note_on,,29,0,10,,,,,,,,,,,,,,,,8,,52,0
7199,note_on,,29,0,15,,,,,,,,,,,,,,,,15,,52,0
7199,note_on,,0,0,15,,,,,,,,,,,,,,,,15,,64,0
7199,note_on,,59,0,12,,,,,,,,,,,,,,,,11,,76,0
7199,note_on,,0,0,15,,,,,,,,,,,,,,,,15,,73,0
7199,note_on,,29,0,11,,,,,,,,,,,,,,,,10,,67,0
7199,note_on,,29,0,14,,,,,,,,,,,,,,,,13,,52,0
7199,note_on,,0,0,15,,,,,,,,,,,,,,,,15,,67,0
7199,note_on,,29,0,6,,,,,,,,,,,,,,,,2,,52,0
7199,note_on,,59,0,8,,,,,,,,,,,,,,,,6,,69,0
7199,note_on,,59,0,7,,,,,,,,,,,,,,,,5,,73,0
7200,note_on,,1,0,11,,,,,,,,,,,,,,,,10,,69,72
7200,note_on,,1,0,10,,,,,,,,,,,,,,,,8,,54,72
7200,note_on,,1,0,5,,,,,,,,,,,,,,,,1,,74,72
7200,note_on,,1,0,14,,,,,,,,,,,,,,,,13,,54,72
7200,note_on,,1,0,7,,,,,,,,,,,,,,,,5,,74,72
7200,note_on,,1,0,12,,,,,,,,,,,,,,,,11,,74,72
7200,note_on,,1,0,8,,,,,,,,,,,,,,,,6,,69,72
7200,note_on,,1,0,6,,,,,,,,,,,,,,,,2,,54,72
7200,note_on,,1,0,15,,,,,,,,,,,,,,,,15,,54,72
7200,note_on,,1,0,13,,,,,,,,,,,,,,,,12,,62,72
7200,note_on,,0,0,15,,,,,,,,,,,,,,,,15,,74,72
7200,note_on,,0,0,15,,,,,,,,,,,,,,,,15,,69,72
7200,note_on,,0,0,15,,,,,,,,,,,,,,,,15,,62,72
7200,note_on,,0,0,15,,,,,,,,,,,,,,,,15,,57,72
7200,note_on,,1,0,9,,,,,,,,,,,,,,,,7,,62,72
7259,note_on,,59,0,11,,,,,,,,,,,,,,,,10,,69,0
7259,note_on,,59,0,7,,,,,,,,,,,,,,,,5,,74,0
7259,note_on,,59,0,5,,,,,,,,,,,,,,,,1,,74,0
7260,note_on,,1,0,11,,,,,,,,,,,,,,,,10,,81,72
7260,note_on,,1,0,7,,,,,,,,,,,,,,,,5,,69,72
7260,note_on,,1,0,5,,,,,,,,,,,,,,,,1,,69,72
7319,note_on,,119,0,6,,,,,,,,,,,,,,,,2,,54,0
7319,note_on,,119,0,13,,,,,,,,,,,,,,,,12,,62,0
7319,note_on,,119,0,15,,,,,,,,,,,,,,,,15,,54,0
7319,note_on,,119,0,12,,,,,,,,,,,,,,,,11,,74,0
7319,note_on,,59,0,7,,,,,,,,,,,,,,,,5,,69,0
7319,note_on,,0,0,15,,,,,,,,,,,,,,,,15,,74,0
7319,note_on,,119,0,14,,,,,,,,,,,,,,,,13,,54,0
7319,note_on,,0,0,15,,,,,,,,,,,,,,,,15,,69,0
7319,note_on,,0,0,15,,,,,,,,,,,,,,,,15,,57,0
7319,note_on,,59,0,11,,,,,,,,,,,,,,,,10,,81,0
7319,note_on,,119,0,10,,,,,,,,,,,,,,,,8,,54,0
7319,note_on,,59,0,5,,,,,,,,,,,,,,,,1,,69,0
7319,note_on,,119,0,9,,,,,,,,,,,,,,,,7,,62,0
7319,note_on,,0,0,15,,,,,,,,,,,,,,,,15,,62,0
7319,note_on,,119,0,8,,,,,,,,,,,,,,,,6,,69,0
7320,note_on,,1,0,11,,,,,,,,,,,,,,,,10,,86,72
7320,note_on,,1,0,7,,,,,,,,,,,,,,,,5,,74,72
7320,note_on,,1,0,5,,,,,,,,,,,,,,,,1,,74,72
7380,note_on,,61,0,8,,,,,,,,,,,,,,,,6,,66,72
7380,note_on,,61,0,15,,,,,,,,,,,,,,,,15,,50,72
7380,note_on,,61,0,10,,,,,,,,,,,,,,,,8,,50,72
7380,note_on,,0,0,15,,,,,,,,,,,,,,,,15,,57,72
7380,note_on,,61,0,13,,,,,,,,,,,,,,,,12,,69,72
7380,note_on,,61,0,9,,,,,,,,,,,,,,,,7,,57,72
7380,note_on,,0,0,15,,,,,,,,,,,,,,,,15,,62,72
7380,note_on,,61,0,12,,,,,,,,,,,,,,,,11,,78,72
7380,note_on,,61,0,14,,,,,,,,,,,,,,,,13,,50,72
7380,note_on,,0,0,15,,,,,,,,,,,,,,,,15,,66,72
7380,note_on,,61,0,6,,,,,,,,,,,,,,,,2,,50,72
7439,note_on,,59,0,14,,,,,,,,,,,,,,,,13,,50,0
7439,note_on,,59,0,12,,,,,,,,,,,,,,,,11,,78,0
7439,note_on,,0,0,15,,,,,,,,,,,,,,,,15,,62,0
7439,note_on,,0,0,15,,,,,,,,,,,,,,,,15,,57,0
7439,note_on,,59,0,13,,,,,,,,,,,,,,,,12,,69,0
7439,note_on,,59,0,15,,,,,,,,,,,,,,,,15,,50,0
7439,note_on,,0,0,15,,,,,,,,,,,,,,,,15,,66,0
7439,note_on,,59,0,9,,,,,,,,,,,,,,,,7,,57,0
7439,note_on,,59,0,8,,,,,,,,,,,,,,,,6,,66,0
7439,note_on,,59,0,6,,,,,,,,,,,,,,,,2,,50,0
7439,note_on,,59,0,10,,,,,,,,,,,,,,,,8,,50,0
7440,note_on,,1,0,15,,,,,,,,,,,,,,,,15,,52,72
7440,note_on,,0,0,15,,,,,,,,,,,,,,,,15,,55,72
7440,note_on,,0,0,15,,,,,,,,,,,,,,,,15,,67,72
7440,note_on,,0,0,15,,,,,,,,,,,,,,,,15,,62,72
7440,note_on,,1,0,8,,,,,,,,,,,,,,,,6,,67,72
7440,note_on,,1,0,13,,,,,,,,,,,,,,,,12,,67,72
7440,note_on,,1,0,14,,,,,,,,,,,,,,,,13,,52,72
7440,note_on,,1,0,6,,,,,,,,,,,,,,,,2,,52,72
7440,note_on,,1,0,9,,,,,,,,,,,,,,,,7,,55,72
7440,note_on,,1,0,10,,,,,,,,,,,,,,,,8,,52,72
7440,note_on,,1,0,12,,,,,,,,,,,,,,,,11,,79,72
7499,note_on,,59,0,10,,,,,,,,,,,,,,,,8,,52,0
7499,note_on,,59,0,14,,,,,,,,,,,,,,,,13,,52,0
7499,note_on,,59,0,6,,,,,,,,,,,,,,,,2,,52,0
7499,note_on,,179,0,7,,,,,,,,,,,,,,,,5,,74,0
7499,note_on,,179,0,11,,,,,,,,,,,,,,,,10,,86,0
7499,note_on,,59,0,12,,,,,,,,,,,,,,,,11,,79,0
7499,note_on,,59,0,8,,,,,,,,,,,,,,,,6,,67,0
7499,note_on,,59,0,9,,,,,,,,,,,,,,,,7,,55,0
7499,note_on,,0,0,15,,,,,,,,,,,,,,,,15,,55,0
7499,note_on,,59,0,15,,,,,,,,,,,,,,,,15,,52,0
7499,note_on,,179,0,5,,,,,,,,,,,,,,,,1,,74,0
7499,note_on,,0,0,15,,,,,,,,,,,,,,,,15,,62,0
7499,note_on,,0,0,15,,,,,,,,,,,,,,,,15,,67,0
7499,note_on,,59,0,13,,,,,,,,,,,,,,,,12,,67,0
7500,note_on,,1,0,14,,,,,,,,,,,,,,,,13,,54,72
7500,note_on,,1,0,13,,,,,,,,,,,,,,,,12,,62,72
7500,note_on,,1,0,15,,,,,,,,,,,,,,,,15,,54,72
7500,note_on,,1,0,8,,,,,,,,,,,,,,,,6,,69,72
7500,note_on,,1,0,7,,,,,,,,,,,,,,,,5,,72,72
7500,note_on,,1,0,11,,,,,,,,,,,,,,,,10,,84,72
7500,note_on,,1,0,5,,,,,,,,,,,,,,,,1,,72,72
7500,note_on,,1,0,9,,,,,,,,,,,,,,,,7,,62,72
7500,note_on,,1,0,10,,,,,,,,,,,,,,,,8,,54,72
7500,note_on,,1,0,12,,,,,,,,,,,,,,,,11,,81,72
7500,note_on,,1,0,6,,,,,,,,,,,,,,,,2,,54,72
7500,note_on,,0,0,15,,,,,,,,,,,,,,,,15,,74,72
7500,note_on,,0,0,15,,,,,,,,,,,,,,,,15,,62,72
7500,note_on,,0,0,15,,,,,,,,,,,,,,,,15,,69,72
7559,note_on,,59,0,9,,,,,,,,,,,,,,,,7,,62,0
7559,note_on,,59,0,10,,,,,,,,,,,,,,,,8,,54,0
7559,note_on,,59,0,5,,,,,,,,,,,,,,,,1,,72,0
7559,note_on,,0,0,15,,,,,,,,,,,,,,,,15,,69,0
7559,note_on,,59,0,6,,,,,,,,,,,,,,,,2,,54,0
7559,note_on,,59,0,8,,,,,,,,,,,,,,,,6,,69,0
7559,note_on,,0,0,15,,,,,,,,,,,,,,,,15,,62,0
7559,note_on,,0,0,15,,,,,,,,,,,,,,,,15,,74,0
7559,note_on,,59,0,14,,,,,,,,,,,,,,,,13,,54,0
7559,note_on,,59,0,11,,,,,,,,,,,,,,,,10,,84,0
7559,note_on,,59,0,12,,,,,,,,,,,,,,,,11,,81,0
7559,note_on,,59,0,13,,,,,,,,,,,,,,,,12,,62,0
7559,note_on,,59,0,7,,,,,,,,,,,,,,,,5,,72,0
7559,note_on,,59,0,15,,,,,,,,,,,,,,,,15,,54,0
7560,note_on,,1,0,13,,,,,,,,,,,,,,,,12,,62,72
7560,note_on,,1,0,14,,,,,,,,,,,,,,,,13,,55,72
7560,note_on,,1,0,11,,,,,,,,,,,,,,,,10,,83,72
7560,note_on,,1,0,10,,,,,,,,,,,,,,,,8,,55,72
7560,note_on,,1,0,9,,,,,,,,,,,,,,,,7,,62,72
7560,note_on,,0,0,15,,,,,,,,,,,,,,,,15,,67,72
7560,note_on,,0,0,15,,,,,,,,,,,,,,,,15,,71,72
7560,note_on,,1,0,15,,,,,,,,,,,,,,,,15,,55,72
7560,note_on,,1,0,6,,,,,,,,,,,,,,,,2,,55,72
7560,note_on,,1,0,7,,,,,,,,,,,,,,,,5,,71,72
7560,note_on,,1,0,5,,,,,,,,,,,,,,,,1,,71,72
7560,note_on,,1,0,12,,,,,,,,,,,,,,,,11,,79,72
7560,note_on,,0,0,15,,,,,,,,,,,,,,,,15,,62,72
7560,note_on,,1,0,8,,,,,,,,,,,,,,,,6,,67,72
7619,note_on,,0,0,15,,,,,,,,,,,,,,,,15,,62,0
7619,note_on,,59,0,5,,,,,,,,,,,,,,,,1,,71,0
7619,note_on,,59,0,11,,,,,,,,,,,,,,,,10,,83,0
7619,note_on,,59,0,15,,,,,,,,,,,,,,,,15,,55,0
7619,note_on,,0,0,15,,,,,,,,,,,,,,,,15,,67,0
7619,note_on,,59,0,9,,,,,,,,,,,,,,,,7,,62,0
7619,note_on,,59,0,14,,,,,,,,,,,,,,,,13,,55,0
7619,note_on,,0,0,15,,,,,,,,,,,,,,,,15,,71,0
7619,note_on,,59,0,8,,,,,,,,,,,,,,,,6,,67,0
7619,note_on,,59,0,6,,,,,,,,,,,,,,,,2,,55,0
7619,note_on,,59,0,7,,,,,,,,,,,,,,,,5,,71,0
7619,note_on,,59,0,12,,,,,,,,,,,,,,,,11,,79,0
7619,note_on,,59,0,10,,,,,,,,,,,,,,,,8,,55,0
7619,note_on,,59,0,13,,,,,,,,,,,,,,,,12,,62,0
7620,note_on,,1,0,6,,,,,,,,,,,,,,,,2,,48,72
7620,note_on,,1,0,9,,,,,,,,,,,,,,,,7,,64,72
7620,note_on,,1,0,14,,,,,,,,,,,,,,,,13,,48,72
7620,note_on,,1,0,12,,,,,,,,,,,,,,,,11,,76,72
7620,note_on,,0,0,15,,,,,,,,,,,,,,,,15,,52,72
7620,note_on,,1,0,5,,,,,,,,,,,,,,,,1,,72,72
7620,note_on,,1,0,15,,,,,,,,,,,,,,,,15,,48,72
7620,note_on,,0,0,15,,,,,,,,,,,,,,,,15,,67,72
7620,note_on,,0,0,15,,,,,,,,,,,,,,,,15,,64,72
7620,note_on,,1,0,10,,,,,,,,,,,,,,,,8,,48,72
7620,note_on,,1,0,11,,,,,,,,,,,,,,,,10,,84,72
7620,note_on,,0,0,15,,,,,,,,,,,,,,,,15,,69,72
7620,note_on,,1,0,7,,,,,,,,,,,,,,,,5,,72,72
7620,note_on,,1,0,8,,,,,,,,,,,,,,,,6,,67,72
7620,note_on,,1,0,13,,,,,,,,,,,,,,,,12,,64,72
7679,note_on,,59,0,13,,,,,,,,,,,,,,,,12,,64,0
7679,note_on,,59,0,15,,,,,,,,,,,,,,,,15,,48,0
7679,note_on,,0,0,15,,,,,,,,,,,,,,,,15,,52,0
7679,note_on,,0,0,15,,,,,,,,,,,,,,,,15,,69,0
7679,note_on,,0,0,15,,,,,,,,,,,,,,,,15,,67,0
7679,note_on,,0,0,15,,,,,,,,,,,,,,,,15,,64,0
7679,note_on,,59,0,12,,,,,,,,,,,,,,,,11,,76,0
7679,note_on,,59,0,7,,,,,,,,,,,,,,,,5,,72,0
7679,note_on,,59,0,8,,,,,,,,,,,,,,,,6,,67,0
7679,note_on,,59,0,9,,,,,,,,,,,,,,,,7,,64,0
7679,note_on,,59,0,11,,,,,,,,,,,,,,,,10,,84,0
7679,note_on,,59,0,10,,,,,,,,,,,,,,,,8,,48,0
7679,note_on,,59,0,6,,,,,,,,,,,,,,,,2,,48,0
7679,note_on,,59,0,5,,,,,,,,,,,,,,,,1,,72,0
7679,note_on,,59,0,14,,,,,,,,,,,,,,,,13,,48,0
7680,note_on,,1,0,7,,,,,,,,,,,,,,,,5,,69,72
7680,note_on,,1,0,11,,,,,,,,,,,,,,,,10,,81,72
7680,note_on,,1,0,9,,,,,,,,,,,,,,,,7,,57,72
7680,note_on,,1,0,10,,,,,,,,,,,,,,,,8,,50,72
7680,note_on,,1,0,14,,,,,,,,,,,,,,,,13,,50,72
7680,note_on,,1,0,8,,,,,,,,,,,,,,,,6,,66,72
7680,note_on,,1,0,5,,,,,,,,,,,,,,,,1,,69,72
7680,note_on,,1,0,13,,,,,,,,,,,,,,,,12,,57,72
7680,note_on,,1,0,12,,,,,,,,,,,,,,,,11,,78,72
7680,note_on,,1,0,6,,,,,,,,,,,,,,,,2,,50,72
7680,note_on,,1,0,15,,,,,,,,,,,,,,,,15,,50,72
7680,note_on,,0,0,15,,,,,,,,,,,,,,,,15,,57,72
7680,note_on,,0,0,15,,,,,,,,,,,,,,,,15,,69,72
7680,note_on,,0,0,15,,,,,,,,,,,,,,,,15,,66,72
7680,note_on,,0,0,15,,,,,,,,,,,,,,,,15,,62,72
7694,note_on,,14,0,11,,,,,,,,,,,,,,,,10,,81,0
7695,note_on,,1,0,11,,,,,,,,,,,,,,,,10,,83,72
7709,note_on,,14,0,11,,,,,,,,,,,,,,,,10,,83,0
7710,note_on,,1,0,11,,,,,,,,,,,,,,,,10,,81,72
7724,note_on,,14,0,11,,,,,,,,,,,,,,,,10,,81,0
7725,note_on,,1,0,11,,,,,,,,,,,,,,,,10,,83,72
7739,note_on,,59,0,15,,,,,,,,,,,,,,,,15,,57,0
7739,note_on,,14,0,11,,,,,,,,,,,,,,,,10,,83,0
7739,note_on,,59,0,9,,,,,,,,,,,,,,,,7,,57,0
7740,note_on,,1,0,15,,,,,,,,,,,,,,,,15,,57,72
7740,note_on,,1,0,9,,,,,,,,,,,,,,,,7,,57,72
7740,note_on,,1,0,11,,,,,,,,,,,,,,,,10,,81,72
7754,note_on,,14,0,11,,,,,,,,,,,,,,,,10,,81,0
7755,note_on,,1,0,11,,,,,,,,,,,,,,,,10,,83,72
7769,note_on,,14,0,11,,,,,,,,,,,,,,,,10,,83,0
7770,note_on,,1,0,11,,,,,,,,,,,,,,,,10,,81,72
7784,note_on,,14,0,11,,,,,,,,,,,,,,,,10,,81,0
7785,note_on,,1,0,11,,,,,,,,,,,,,,,,10,,83,72
7799,note_on,,59,0,9,,,,,,,,,,,,,,,,7,,57,0
7799,note_on,,119,0,13,,,,,,,,,,,,,,,,12,,57,0
7799,note_on,,59,0,15,,,,,,,,,,,,,,,,15,,57,0
7799,note_on,,14,0,11,,,,,,,,,,,,,,,,10,,83,0
7800,note_on,,1,0,13,,,,,,,,,,,,,,,,12,,62,72
7800,note_on,,1,0,11,,,,,,,,,,,,,,,,10,,81,72
7800,note_on,,1,0,9,,,,,,,,,,,,,,,,7,,62,72
7814,note_on,,14,0,11,,,,,,,,,,,,,,,,10,,81,0
7815,note_on,,1,0,11,,,,,,,,,,,,,,,,10,,83,72
7829,note_on,,14,0,11,,,,,,,,,,,,,,,,10,,83,0
7830,note_on,,1,0,11,,,,,,,,,,,,,,,,10,,79,72
7844,note_on,,14,0,11,,,,,,,,,,,,,,,,10,,79,0
7845,note_on,,1,0,11,,,,,,,,,,,,,,,,10,,81,72
7859,note_on,,179,0,10,,,,,,,,,,,,,,,,8,,50,0
7859,note_on,,179,0,5,,,,,,,,,,,,,,,,1,,69,0
7859,note_on,,14,0,11,,,,,,,,,,,,,,,,10,,81,0
7859,note_on,,179,0,12,,,,,,,,,,,,,,,,11,,78,0
7859,note_on,,60,0,15,,,,,,,,,,,,,,,,15,,50,0
7859,note_on,,0,0,15,,,,,,,,,,,,,,,,15,,62,0
7859,note_on,,179,0,6,,,,,,,,,,,,,,,,2,,50,0
7859,note_on,,179,0,14,,,,,,,,,,,,,,,,13,,50,0
7859,note_on,,179,0,7,,,,,,,,,,,,,,,,5,,69,0
7859,note_on,,0,0,15,,,,,,,,,,,,,,,,15,,66,0
7859,note_on,,179,0,8,,,,,,,,,,,,,,,,6,,66,0
7859,note_on,,0,0,15,,,,,,,,,,,,,,,,15,,69,0
7860,note_on,,1,0,5,,,,,,,,,,,,,,,,1,,69,72
7860,note_on,,0,0,15,,,,,,,,,,,,,,,,15,,66,72
7860,note_on,,1,0,6,,,,,,,,,,,,,,,,2,,50,72
7860,note_on,,1,0,14,,,,,,,,,,,,,,,,13,,50,72
7860,note_on,,0,0,15,,,,,,,,,,,,,,,,15,,62,72
7860,note_on,,1,0,8,,,,,,,,,,,,,,,,6,,66,72
7860,note_on,,1,0,11,,,,,,,,,,,,,,,,10,,81,72
7860,note_on,,1,0,12,,,,,,,,,,,,,,,,11,,78,72
7860,note_on,,1,0,10,,,,,,,,,,,,,,,,8,,50,72
7860,note_on,,1,0,7,,,,,,,,,,,,,,,,5,,69,72
7860,note_on,,1,0,15,,,,,,,,,,,,,,,,15,,50,72
7860,note_on,,0,0,15,,,,,,,,,,,,,,,,15,,69,72
7919,note_on,,119,0,9,,,,,,,,,,,,,,,,7,,62,0
7919,note_on,,59,0,12,,,,,,,,,,,,,,,,11,,78,0
7919,note_on,,0,0,15,,,,,,,,,,,,,,,,15,,62,0
7919,note_on,,59,0,10,,,,,,,,,,,,,,,,8,,50,0
7919,note_on,,59,0,6,,,,,,,,,,,,,,,,2,,50,0
7919,note_on,,59,0,8,,,,,,,,,,,,,,,,6,,66,0
7919,note_on,,59,0,14,,,,,,,,,,,,,,,,13,,50,0
7919,note_on,,59,0,15,,,,,,,,,,,,,,,,15,,50,0
7919,note_on,,0,0,15,,,,,,,,,,,,,,,,15,,69,0
7919,note_on,,0,0,15,,,,,,,,,,,,,,,,15,,66,0
7919,note_on,,119,0,13,,,,,,,,,,,,,,,,12,,62,0
7919,note_on,,59,0,11,,,,,,,,,,,,,,,,10,,81,0
7919,note_on,,59,0,7,,,,,,,,,,,,,,,,5,,69,0
7919,note_on,,59,0,5,,,,,,,,,,,,,,,,1,,69,0
7920,note_on,,1,0,5,,,,,,,,,,,,,,,,1,,71,72
7920,note_on,,1,0,15,,,,,,,,,,,,,,,,15,,43,72
7920,note_on,,1,0,11,,,,,,,,,,,,,,,,10,,83,72
7920,note_on,,1,0,7,,,,,,,,,,,,,,,,5,,71,72
7920,note_on,,1,0,8,,,,,,,,,,,,,,,,6,,67,72
7920,note_on,,0,0,15,,,,,,,,,,,,,,,,15,,71,72
7920,note_on,,1,0,10,,,,,,,,,,,,,,,,8,,52,72
7920,note_on,,1,0,14,,,,,,,,,,,,,,,,13,,43,72
7920,note_on,,1,0,13,,,,,,,,,,,,,,,,12,,62,72
7920,note_on,,1,0,6,,,,,,,,,,,,,,,,2,,43,72
7920,note_on,,1,0,12,,,,,,,,,,,,,,,,11,,79,72
7920,note_on,,0,0,15,,,,,,,,,,,,,,,,15,,67,72
7920,note_on,,1,0,9,,,,,,,,,,,,,,,,7,,62,72
7979,note_on,,0,0,15,,,,,,,,,,,,,,,,15,,67,0
7979,note_on,,59,0,15,,,,,,,,,,,,,,,,15,,71,0
7979,note_on,,59,0,9,,,,,,,,,,,,,,,,7,,62,0
7979,note_on,,59,0,13,,,,,,,,,,,,,,,,12,,62,0
7980,note_on,,1,0,9,,,,,,,,,,,,,,,,7,,57,72
7980,note_on,,1,0,13,,,,,,,,,,,,,,,,12,,57,72
8039,note_on,,119,0,8,,,,,,,,,,,,,,,,6,,67,0
8039,note_on,,119,0,6,,,,,,,,,,,,,,,,2,,43,0
8039,note_on,,119,0,11,,,,,,,,,,,,,,,,10,,83,0
8039,note_on,,59,0,9,,,,,,,,,,,,,,,,7,,57,0
8039,note_on,,119,0,14,,,,,,,,,,,,,,,,13,,43,0
8039,note_on,,59,0,13,,,,,,,,,,,,,,,,12,,57,0
8039,note_on,,119,0,10,,,,,,,,,,,,,,,,8,,52,0
8039,note_on,,119,0,7,,,,,,,,,,,,,,,,5,,71,0
8039,note_on,,60,0,15,,,,,,,,,,,,,,,,15,,43,0
8039,note_on,,119,0,12,,,,,,,,,,,,,,,,11,,79,0
8039,note_on,,119,0,5,,,,,,,,,,,,,,,,1,,71,0
8040,note_on,,1,0,7,,,,,,,,,,,,,,,,5,,74,72
8040,note_on,,1,0,6,,,,,,,,,,,,,,,,2,,59,72
8040,note_on,,1,0,15,,,,,,,,,,,,,,,,15,,59,72
8040,note_on,,0,0,15,,,,,,,,,,,,,,,,15,,74,72
8040,note_on,,1,0,5,,,,,,,,,,,,,,,,1,,74,72
8040,note_on,,1,0,14,,,,,,,,,,,,,,,,13,,59,72
8040,note_on,,1,0,12,,,,,,,,,,,,,,,,11,,74,72
8040,note_on,,1,0,13,,,,,,,,,,,,,,,,12,,59,72
8040,note_on,,1,0,9,,,,,,,,,,,,,,,,7,,59,72
8099,note_on,,59,0,9,,,,,,,,,,,,,,,,7,,59,0
8099,note_on,,59,0,14,,,,,,,,,,,,,,,,13,,59,0
8099,note_on,,59,0,5,,,,,,,,,,,,,,,,1,,74,0
8099,note_on,,0,0,15,,,,,,,,,,,,,,,,15,,74,0
8099,note_on,,59,0,15,,,,,,,,,,,,,,,,15,,59,0
8099,note_on,,59,0,12,,,,,,,,,,,,,,,,11,,74,0
8099,note_on,,59,0,6,,,,,,,,,,,,,,,,2,,59,0
8099,note_on,,59,0,13,,,,,,,,,,,,,,,,12,,59,0
8099,note_on,,59,0,7,,,,,,,,,,,,,,,,5,,74,0
8100,note_on,,1,0,12,,,,,,,,,,,,,,,,11,,69,72
8100,note_on,,1,0,13,,,,,,,,,,,,,,,,12,,54,72
8100,note_on,,1,0,7,,,,,,,,,,,,,,,,5,,69,72
8100,note_on,,1,0,5,,,,,,,,,,,,,,,,1,,69,72
8100,note_on,,1,0,15,,,,,,,,,,,,,,,,15,,54,72
8100,note_on,,0,0,15,,,,,,,,,,,,,,,,15,,69,72
8100,note_on,,1,0,14,,,,,,,,,,,,,,,,13,,54,72
8100,note_on,,1,0,9,,,,,,,,,,,,,,,,7,,54,72
8100,note_on,,1,0,6,,,,,,,,,,,,,,,,2,,54,72
8159,note_on,,59,0,14,,,,,,,,,,,,,,,,13,,54,0
8159,note_on,,59,0,15,,,,,,,,,,,,,,,,15,,54,0
8159,note_on,,0,0,15,,,,,,,,,,,,,,,,15,,69,0
8159,note_on,,59,0,13,,,,,,,,,,,,,,,,12,,54,0
8159,note_on,,59,0,12,,,,,,,,,,,,,,,,11,,69,0
8159,note_on,,59,0,7,,,,,,,,,,,,,,,,5,,69,0
8159,note_on,,59,0,5,,,,,,,,,,,,,,,,1,,69,0
8159,note_on,,59,0,9,,,,,,,,,,,,,,,,7,,54,0
8159,note_on,,59,0,6,,,,,,,,,,,,,,,,2,,54,0
8160,note_on,,1,0,12,,,,,,,,,,,,,,,,11,,71,72
8160,note_on,,1,0,5,,,,,,,,,,,,,,,,1,,71,72
8160,note_on,,1,0,7,,,,,,,,,,,,,,,,5,,71,72
8160,note_on,,1,0,14,,,,,,,,,,,,,,,,13,,55,72
8160,note_on,,0,0,15,,,,,,,,,,,,,,,,15,,71,72
8160,note_on,,1,0,15,,,,,,,,,,,,,,,,15,,55,72
8160,note_on,,1,0,6,,,,,,,,,,,,,,,,2,,55,72
8160,note_on,,1,0,9,,,,,,,,,,,,,,,,7,,55,72
8160,note_on,,1,0,13,,,,,,,,,,,,,,,,12,,55,72
8219,note_on,,59,0,15,,,,,,,,,,,,,,,,15,,71,0
8219,note_on,,59,0,12,,,,,,,,,,,,,,,,11,,71,0
8219,note_on,,59,0,7,,,,,,,,,,,,,,,,5,,71,0
8219,note_on,,59,0,5,,,,,,,,,,,,,,,,1,,71,0
8220,note_on,,1,0,15,,,,,,,,,,,,,,,,15,,66,72
8220,note_on,,1,0,7,,,,,,,,,,,,,,,,5,,66,72
8220,note_on,,1,0,5,,,,,,,,,,,,,,,,1,,66,72
8220,note_on,,1,0,12,,,,,,,,,,,,,,,,11,,66,72
8279,note_on,,0,0,15,,,,,,,,,,,,,,,,15,,66,0
8279,note_on,,119,0,9,,,,,,,,,,,,,,,,7,,55,0
8279,note_on,,59,0,7,,,,,,,,,,,,,,,,5,,66,0
8279,note_on,,119,0,6,,,,,,,,,,,,,,,,2,,55,0
8279,note_on,,59,0,5,,,,,,,,,,,,,,,,1,,66,0
8279,note_on,,59,0,15,,,,,,,,,,,,,,,,15,,55,0
8279,note_on,,59,0,12,,,,,,,,,,,,,,,,11,,66,0
8279,note_on,,119,0,14,,,,,,,,,,,,,,,,13,,55,0
8279,note_on,,119,0,13,,,,,,,,,,,,,,,,12,,55,0
8280,note_on,,1,0,5,,,,,,,,,,,,,,,,1,,67,72
8280,note_on,,1,0,7,,,,,,,,,,,,,,,,5,,67,72
8280,note_on,,1,0,15,,,,,,,,,,,,,,,,15,,67,72
8280,note_on,,1,0,12,,,,,,,,,,,,,,,,11,,67,72
8280,note_on,,241,0,11,,,,,,,,,,,,,,,,10,,79,72
8280,note_on,,1,0,6,,,,,,,,,,,,,,,,2,,67,72
8280,note_on,,1,0,14,,,,,,,,,,,,,,,,13,,67,72
8280,note_on,,241,0,8,,,,,,,,,,,,,,,,6,,67,72
8339,note_on,,59,0,8,,,,,,,,,,,,,,,,6,,67,0
8339,note_on,,59,0,11,,,,,,,,,,,,,,,,10,,79,0
8339,note_on,,59,0,14,,,,,,,,,,,,,,,,13,,67,0
8339,note_on,,59,0,6,,,,,,,,,,,,,,,,2,,67,0
8340,note_on,,1,0,8,,,,,,,,,,,,,,,,6,,62,72
8340,note_on,,1,0,14,,,,,,,,,,,,,,,,13,,62,72
8340,note_on,,60,0,15,,,,,,,,,,,,,,,,15,,62,72
8340,note_on,,1,0,11,,,,,,,,,,,,,,,,10,,74,72
8340,note_on,,1,0,6,,,,,,,,,,,,,,,,2,,62,72
8399,note_on,,59,0,14,,,,,,,,,,,,,,,,13,,62,0
8399,note_on,,119,0,12,,,,,,,,,,,,,,,,11,,67,0
8399,note_on,,0,0,15,,,,,,,,,,,,,,,,15,,62,0
8399,note_on,,59,0,15,,,,,,,,,,,,,,,,15,,67,0
8399,note_on,,59,0,11,,,,,,,,,,,,,,,,10,,74,0
8399,note_on,,119,0,5,,,,,,,,,,,,,,,,1,,67,0
8399,note_on,,119,0,7,,,,,,,,,,,,,,,,5,,67,0
8399,note_on,,59,0,6,,,,,,,,,,,,,,,,2,,62,0
8399,note_on,,59,0,8,,,,,,,,,,,,,,,,6,,62,0
8400,note_on,,1,0,5,,,,,,,,,,,,,,,,1,,79,72
8400,note_on,,1,0,8,,,,,,,,,,,,,,,,6,,64,72
8400,note_on,,1,0,12,,,,,,,,,,,,,,,,11,,79,72
8400,note_on,,1,0,7,,,,,,,,,,,,,,,,5,,79,72
8400,note_on,,1,0,14,,,,,,,,,,,,,,,,13,,64,72
8400,note_on,,1,0,11,,,,,,,,,,,,,,,,10,,76,72
8400,note_on,,1,0,6,,,,,,,,,,,,,,,,2,,64,72
8400,note_on,,1,0,15,,,,,,,,,,,,,,,,15,,64,72
8400,note_on,,0,0,15,,,,,,,,,,,,,,,,15,,79,72
8459,note_on,,59,0,14,,,,,,,,,,,,,,,,13,,64,0
8459,note_on,,59,0,12,,,,,,,,,,,,,,,,11,,79,0
8459,note_on,,0,0,15,,,,,,,,,,,,,,,,15,,79,0
8459,note_on,,59,0,6,,,,,,,,,,,,,,,,2,,64,0
8459,note_on,,59,0,5,,,,,,,,,,,,,,,,1,,79,0
8459,note_on,,59,0,11,,,,,,,,,,,,,,,,10,,76,0
8459,note_on,,59,0,7,,,,,,,,,,,,,,,,5,,79,0
8459,note_on,,59,0,8,,,,,,,,,,,,,,,,6,,64,0
8459,note_on,,59,0,15,,,,,,,,,,,,,,,,15,,64,0
8460,note_on,,1,0,12,,,,,,,,,,,,,,,,11,,74,72
8460,note_on,,1,0,8,,,,,,,,,,,,,,,,6,,59,72
8460,note_on,,1,0,14,,,,,,,,,,,,,,,,13,,59,72
8460,note_on,,1,0,7,,,,,,,,,,,,,,,,5,,74,72
8460,note_on,,1,0,5,,,,,,,,,,,,,,,,1,,74,72
8460,note_on,,0,0,15,,,,,,,,,,,,,,,,15,,74,72
8460,note_on,,1,0,15,,,,,,,,,,,,,,,,15,,59,72
8460,note_on,,1,0,6,,,,,,,,,,,,,,,,2,,59,72
8460,note_on,,1,0,11,,,,,,,,,,,,,,,,10,,71,72
8519,note_on,,59,0,6,,,,,,,,,,,,,,,,2,,59,0
8519,note_on,,59,0,14,,,,,,,,,,,,,,,,13,,59,0
8519,note_on,,59,0,8,,,,,,,,,,,,,,,,6,,59,0
8519,note_on,,59,0,12,,,,,,,,,,,,,,,,11,,74,0
8519,note_on,,0,0,15,,,,,,,,,,,,,,,,15,,74,0
8519,note_on,,59,0,15,,,,,,,,,,,,,,,,15,,59,0
8519,note_on,,59,0,5,,,,,,,,,,,,,,,,1,,74,0
8519,note_on,,59,0,7,,,,,,,,,,,,,,,,5,,74,0
8519,note_on,,59,0,11,,,,,,,,,,,,,,,,10,,71,0
8520,note_on,,1,0,14,,,,,,,,,,,,,,,,13,,60,72
8520,note_on,,1,0,5,,,,,,,,,,,,,,,,1,,76,72
8520,note_on,,1,0,11,,,,,,,,,,,,,,,,10,,72,72
8520,note_on,,1,0,8,,,,,,,,,,,,,,,,6,,60,72
8520,note_on,,0,0,15,,,,,,,,,,,,,,,,15,,76,72
8520,note_on,,1,0,7,,,,,,,,,,,,,,,,5,,76,72
8520,note_on,,241,0,13,,,,,,,,,,,,,,,,12,,67,72
8520,note_on,,1,0,12,,,,,,,,,,,,,,,,11,,76,72
8520,note_on,,1,0,6,,,,,,,,,,,,,,,,2,,60,72
8520,note_on,,1,0,15,,,,,,,,,,,,,,,,15,,60,72
8579,note_on,,59,0,5,,,,,,,,,,,,,,,,1,,76,0
8579,note_on,,59,0,8,,,,,,,,,,,,,,,,6,,60,0
8579,note_on,,59,0,15,,,,,,,,,,,,,,,,15,,60,0
8579,note_on,,59,0,12,,,,,,,,,,,,,,,,11,,76,0
8579,note_on,,0,0,15,,,,,,,,,,,,,,,,15,,76,0
8579,note_on,,59,0,7,,,,,,,,,,,,,,,,5,,76,0
8579,note_on,,59,0,13,,,,,,,,,,,,,,,,12,,67,0
8579,note_on,,59,0,6,,,,,,,,,,,,,,,,2,,60,0
8579,note_on,,59,0,14,,,,,,,,,,,,,,,,13,,60,0
8580,note_on,,1,0,12,,,,,,,,,,,,,,,,11,,71,72
8580,note_on,,1,0,7,,,,,,,,,,,,,,,,5,,71,72
8580,note_on,,1,0,8,,,,,,,,,,,,,,,,6,,62,72
8580,note_on,,1,0,15,,,,,,,,,,,,,,,,15,,62,72
8580,note_on,,1,0,14,,,,,,,,,,,,,,,,13,,62,72
8580,note_on,,0,0,15,,,,,,,,,,,,,,,,15,,71,72
8580,note_on,,1,0,13,,,,,,,,,,,,,,,,12,,62,72
8580,note_on,,1,0,5,,,,,,,,,,,,,,,,1,,71,72
8580,note_on,,1,0,6,,,,,,,,,,,,,,,,2,,62,72
8639,note_on,,119,0,11,,,,,,,,,,,,,,,,10,,72,0
8639,note_on,,59,0,12,,,,,,,,,,,,,,,,11,,71,0
8639,note_on,,59,0,6,,,,,,,,,,,,,,,,2,,62,0
8639,note_on,,59,0,8,,,,,,,,,,,,,,,,6,,62,0
8639,note_on,,59,0,14,,,,,,,,,,,,,,,,13,,62,0
8639,note_on,,59,0,13,,,,,,,,,,,,,,,,12,,62,0
8639,note_on,,0,0,15,,,,,,,,,,,,,,,,15,,71,0
8639,note_on,,59,0,15,,,,,,,,,,,,,,,,15,,62,0
8639,note_on,,59,0,5,,,,,,,,,,,,,,,,1,,71,0
8639,note_on,,59,0,7,,,,,,,,,,,,,,,,5,,71,0
8640,note_on,,601,0,10,,,,,,,,,,,,,,,,8,,60,72
8640,note_on,,1,0,15,,,,,,,,,,,,,,,,15,,60,72
8640,note_on,,0,0,15,,,,,,,,,,,,,,,,15,,64,72
8640,note_on,,1,0,12,,,,,,,,,,,,,,,,11,,72,72
8640,note_on,,1,0,7,,,,,,,,,,,,,,,,5,,72,72
8640,note_on,,1,0,14,,,,,,,,,,,,,,,,13,,60,72
8640,note_on,,1,0,5,,,,,,,,,,,,,,,,1,,72,72
8640,note_on,,1,0,6,,,,,,,,,,,,,,,,2,,60,72
8640,note_on,,1,0,13,,,,,,,,,,,,,,,,12,,64,72
8640,note_on,,1,0,8,,,,,,,,,,,,,,,,6,,64,72
8640,note_on,,0,0,15,,,,,,,,,,,,,,,,15,,72,72
8640,note_on,,0,0,15,,,,,,,,,,,,,,,,15,,67,72
8669,note_on,,29,0,13,,,,,,,,,,,,,,,,12,,64,0
8669,note_on,,29,0,8,,,,,,,,,,,,,,,,6,,64,0
8670,note_on,,1,0,13,,,,,,,,,,,,,,,,12,,65,72
8670,note_on,,1,0,8,,,,,,,,,,,,,,,,6,,65,72
8699,note_on,,59,0,15,,,,,,,,,,,,,,,,15,,60,0
8699,note_on,,0,0,15,,,,,,,,,,,,,,,,15,,72,0
8699,note_on,,0,0,15,,,,,,,,,,,,,,,,15,,67,0
8699,note_on,,29,0,8,,,,,,,,,,,,,,,,6,,65,0
8699,note_on,,29,0,13,,,,,,,,,,,,,,,,12,,65,0
8699,note_on,,59,0,10,,,,,,,,,,,,,,,,8,,60,0
8699,note_on,,59,0,14,,,,,,,,,,,,,,,,13,,60,0
8699,note_on,,59,0,6,,,,,,,,,,,,,,,,2,,60,0
8699,note_on,,0,0,15,,,,,,,,,,,,,,,,15,,64,0
8700,note_on,,1,0,10,,,,,,,,,,,,,,,,8,,55,72
8700,note_on,,1,0,8,,,,,,,,,,,,,,,,6,,67,72
8700,note_on,,0,0,15,,,,,,,,,,,,,,,,15,,67,72
8700,note_on,,0,0,15,,,,,,,,,,,,,,,,15,,71,72
8700,note_on,,1,0,15,,,,,,,,,,,,,,,,15,,55,72
8700,note_on,,0,0,15,,,,,,,,,,,,,,,,15,,62,72
8700,note_on,,1,0,14,,,,,,,,,,,,,,,,13,,55,72
8700,note_on,,1,0,13,,,,,,,,,,,,,,,,12,,67,72
8700,note_on,,1,0,6,,,,,,,,,,,,,,,,2,,55,72
8759,note_on,,119,0,5,,,,,,,,,,,,,,,,1,,72,0
8759,note_on,,59,0,10,,,,,,,,,,,,,,,,8,,55,0
8759,note_on,,0,0,15,,,,,,,,,,,,,,,,15,,62,0
8759,note_on,,0,0,15,,,,,,,,,,,,,,,,15,,67,0
8759,note_on,,0,0,15,,,,,,,,,,,,,,,,15,,71,0
8759,note_on,,59,0,15,,,,,,,,,,,,,,,,15,,55,0
8759,note_on,,59,0,13,,,,,,,,,,,,,,,,12,,67,0
8759,note_on,,59,0,8,,,,,,,,,,,,,,,,6,,67,0
8759,note_on,,119,0,7,,,,,,,,,,,,,,,,5,,72,0
8759,note_on,,119,0,12,,,,,,,,,,,,,,,,11,,72,0
8759,note_on,,59,0,6,,,,,,,,,,,,,,,,2,,55,0
8759,note_on,,59,0,14,,,,,,,,,,,,,,,,13,,55,0
8760,note_on,,1,0,6,,,,,,,,,,,,,,,,2,,57,72
8760,note_on,,1,0,8,,,,,,,,,,,,,,,,6,,60,72
8760,note_on,,1,0,15,,,,,,,,,,,,,,,,15,,57,72
8760,note_on,,0,0,15,,,,,,,,,,,,,,,,15,,69,72
8760,note_on,,0,0,15,,,,,,,,,,,,,,,,15,,64,72
8760,note_on,,0,0,15,,,,,,,,,,,,,,,,15,,60,72
8760,note_on,,1,0,13,,,,,,,,,,,,,,,,12,,60,72
8760,note_on,,121,0,11,,,,,,,,,,,,,,,,10,,84,72
8760,note_on,,1,0,10,,,,,,,,,,,,,,,,8,,57,72
8760,note_on,,1,0,14,,,,,,,,,,,,,,,,13,,57,72
8819,note_on,,59,0,10,,,,,,,,,,,,,,,,8,,57,0
8819,note_on,,59,0,14,,,,,,,,,,,,,,,,13,,57,0
8819,note_on,,59,0,6,,,,,,,,,,,,,,,,2,,57,0
8819,note_on,,59,0,8,,,,,,,,,,,,,,,,6,,60,0
8819,note_on,,0,0,15,,,,,,,,,,,,,,,,15,,60,0
8819,note_on,,0,0,15,,,,,,,,,,,,,,,,15,,64,0
8819,note_on,,59,0,11,,,,,,,,,,,,,,,,10,,84,0
8819,note_on,,59,0,15,,,,,,,,,,,,,,,,15,,57,0
8819,note_on,,0,0,15,,,,,,,,,,,,,,,,15,,69,0
8820,note_on,,1,0,6,,,,,,,,,,,,,,,,2,,52,72
8820,note_on,,1,0,11,,,,,,,,,,,,,,,,10,,79,72
8820,note_on,,1,0,15,,,,,,,,,,,,,,,,15,,52,72
8820,note_on,,0,0,15,,,,,,,,,,,,,,,,15,,67,72
8820,note_on,,1,0,10,,,,,,,,,,,,,,,,8,,52,72
8820,note_on,,1,0,8,,,,,,,,,,,,,,,,6,,67,72
8820,note_on,,1,0,14,,,,,,,,,,,,,,,,13,,52,72
8820,note_on,,0,0,15,,,,,,,,,,,,,,,,15,,64,72
8820,note_on,,0,0,15,,,,,,,,,,,,,,,,15,,59,72
8879,note_on,,59,0,11,,,,,,,,,,,,,,,,10,,79,0
8879,note_on,,59,0,14,,,,,,,,,,,,,,,,13,,52,0
8879,note_on,,59,0,10,,,,,,,,,,,,,,,,8,,52,0
8879,note_on,,0,0,15,,,,,,,,,,,,,,,,15,,59,0
8879,note_on,,0,0,15,,,,,,,,,,,,,,,,15,,64,0
8879,note_on,,0,0,15,,,,,,,,,,,,,,,,15,,67,0
8879,note_on,,59,0,8,,,,,,,,,,,,,,,,6,,67,0
8879,note_on,,59,0,6,,,,,,,,,,,,,,,,2,,52,0
8879,note_on,,59,0,15,,,,,,,,,,,,,,,,15,,52,0
8880,note_on,,1,0,10,,,,,,,,,,,,,,,,8,,53,72
8880,note_on,,1,0,15,,,,,,,,,,,,,,,,15,,53,72
8880,note_on,,0,0,15,,,,,,,,,,,,,,,,15,,65,72
8880,note_on,,0,0,15,,,,,,,,,,,,,,,,15,,60,72
8880,note_on,,0,0,15,,,,,,,,,,,,,,,,15,,57,72
8880,note_on,,1,0,8,,,,,,,,,,,,,,,,6,,69,72
8880,note_on,,1,0,11,,,,,,,,,,,,,,,,10,,81,72
8880,note_on,,1,0,6,,,,,,,,,,,,,,,,2,,53,72
8880,note_on,,1,0,14,,,,,,,,,,,,,,,,13,,53,72
8939,note_on,,59,0,14,,,,,,,,,,,,,,,,13,,53,0
8939,note_on,,59,0,6,,,,,,,,,,,,,,,,2,,53,0
8939,note_on,,59,0,11,,,,,,,,,,,,,,,,10,,81,0
8939,note_on,,0,0,15,,,,,,,,,,,,,,,,15,,65,0
8939,note_on,,59,0,8,,,,,,,,,,,,,,,,6,,69,0
8939,note_on,,0,0,15,,,,,,,,,,,,,,,,15,,57,0
8939,note_on,,0,0,15,,,,,,,,,,,,,,,,15,,60,0
8939,note_on,,59,0,10,,,,,,,,,,,,,,,,8,,53,0
8939,note_on,,59,0,15,,,,,,,,,,,,,,,,15,,53,0
8939,note_on,,179,0,13,,,,,,,,,,,,,,,,12,,60,0
8940,note_on,,0,0,15,,,,,,,,,,,,,,,,15,,60,72
8940,note_on,,0,0,15,,,,,,,,,,,,,,,,15,,64,72
8940,note_on,,1,0,14,,,,,,,,,,,,,,,,13,,48,72
8940,note_on,,1,0,8,,,,,,,,,,,,,,,,6,,64,72
8940,note_on,,1,0,13,,,,,,,,,,,,,,,,12,,60,72
8940,note_on,,1,0,10,,,,,,,,,,,,,,,,8,,48,72
8940,note_on,,1,0,15,,,,,,,,,,,,,,,,15,,48,72
8940,note_on,,1,0,6,,,,,,,,,,,,,,,,2,,48,72
8940,note_on,,0,0,15,,,,,,,,,,,,,,,,15,,55,72
8940,note_on,,1,0,11,,,,,,,,,,,,,,,,10,,76,72
8999,note_on,,0,0,15,,,,,,,,,,,,,,,,15,,60,0
8999,note_on,,59,0,10,,,,,,,,,,,,,,,,8,,48,0
8999,note_on,,59,0,15,,,,,,,,,,,,,,,,15,,48,0
8999,note_on,,0,0,15,,,,,,,,,,,,,,,,15,,55,0
8999,note_on,,59,0,14,,,,,,,,,,,,,,,,13,,48,0
8999,note_on,,59,0,11,,,,,,,,,,,,,,,,10,,76,0
8999,note_on,,59,0,8,,,,,,,,,,,,,,,,6,,64,0
8999,note_on,,59,0,13,,,,,,,,,,,,,,,,12,,60,0
8999,note_on,,59,0,6,,,,,,,,,,,,,,,,2,,48,0
8999,note_on,,0,0,15,,,,,,,,,,,,,,,,15,,64,0
9000,note_on,,0,0,15,,,,,,,,,,,,,,,,15,,57,72
9000,note_on,,0,0,15,,,,,,,,,,,,,,,,15,,62,72
9000,note_on,,1,0,15,,,,,,,,,,,,,,,,15,,50,72
9000,note_on,,1,0,11,,,,,,,,,,,,,,,,10,,77,72
9000,note_on,,1,0,14,,,,,,,,,,,,,,,,13,,50,72
9000,note_on,,241,0,12,,,,,,,,,,,,,,,,11,,77,72
9000,note_on,,1,0,13,,,,,,,,,,,,,,,,12,,65,72
9000,note_on,,0,0,15,,,,,,,,,,,,,,,,15,,53,72
9000,note_on,,1,0,6,,,,,,,,,,,,,,,,2,,50,72
9000,note_on,,1,0,8,,,,,,,,,,,,,,,,6,,65,72
9000,note_on,,1,0,10,,,,,,,,,,,,,,,,8,,50,72
9000,note_on,,721,0,9,,,,,,,,,,,,,,,,7,,65,72
9059,note_on,,59,0,10,,,,,,,,,,,,,,,,8,,50,0
9059,note_on,,59,0,6,,,,,,,,,,,,,,,,2,,50,0
9059,note_on,,59,0,14,,,,,,,,,,,,,,,,13,,50,0
9059,note_on,,59,0,12,,,,,,,,,,,,,,,,11,,77,0
9059,note_on,,59,0,15,,,,,,,,,,,,,,,,15,,50,0
9059,note_on,,0,0,15,,,,,,,,,,,,,,,,15,,62,0
9059,note_on,,0,0,15,,,,,,,,,,,,,,,,15,,53,0
9059,note_on,,0,0,15,,,,,,,,,,,,,,,,15,,57,0
9059,note_on,,59,0,9,,,,,,,,,,,,,,,,7,,65,0
9060,note_on,,1,0,12,,,,,,,,,,,,,,,,11,,72,72
9060,note_on,,1,0,6,,,,,,,,,,,,,,,,2,,57,72
9060,note_on,,1,0,10,,,,,,,,,,,,,,,,8,,57,72
9060,note_on,,1,0,15,,,,,,,,,,,,,,,,15,,57,72
9060,note_on,,0,0,15,,,,,,,,,,,,,,,,15,,60,72
9060,note_on,,1,0,14,,,,,,,,,,,,,,,,13,,57,72
9060,note_on,,1,0,9,,,,,,,,,,,,,,,,7,,60,72
9119,note_on,,59,0,14,,,,,,,,,,,,,,,,13,,57,0
9119,note_on,,119,0,11,,,,,,,,,,,,,,,,10,,77,0
9119,note_on,,59,0,9,,,,,,,,,,,,,,,,7,,60,0
9119,note_on,,119,0,8,,,,,,,,,,,,,,,,6,,65,0
9119,note_on,,59,0,15,,,,,,,,,,,,,,,,15,,57,0
9119,note_on,,0,0,15,,,,,,,,,,,,,,,,15,,60,0
9119,note_on,,59,0,12,,,,,,,,,,,,,,,,11,,72,0
9119,note_on,,59,0,10,,,,,,,,,,,,,,,,8,,57,0
9119,note_on,,59,0,6,,,,,,,,,,,,,,,,2,,57,0
9120,note_on,,1,0,6,,,,,,,,,,,,,,,,2,,58,72
9120,note_on,,1,0,12,,,,,,,,,,,,,,,,11,,74,72
9120,note_on,,1,0,15,,,,,,,,,,,,,,,,15,,58,72
9120,note_on,,1,0,9,,,,,,,,,,,,,,,,7,,62,72
9120,note_on,,0,0,15,,,,,,,,,,,,,,,,15,,65,72
9120,note_on,,0,0,15,,,,,,,,,,,,,,,,15,,62,72
9120,note_on,,1,0,14,,,,,,,,,,,,,,,,13,,58,72
9120,note_on,,1,0,10,,,,,,,,,,,,,,,,8,,58,72
9179,note_on,,59,0,15,,,,,,,,,,,,,,,,15,,58,0
9179,note_on,,59,0,10,,,,,,,,,,,,,,,,8,,58,0
9179,note_on,,59,0,12,,,,,,,,,,,,,,,,11,,74,0
9179,note_on,,0,0,15,,,,,,,,,,,,,,,,15,,62,0
9179,note_on,,59,0,6,,,,,,,,,,,,,,,,2,,58,0
9179,note_on,,59,0,14,,,,,,,,,,,,,,,,13,,58,0
9179,note_on,,59,0,9,,,,,,,,,,,,,,,,7,,62,0
9179,note_on,,179,0,13,,,,,,,,,,,,,,,,12,,65,0
9180,note_on,,1,0,15,,,,,,,,,,,,,,,,15,,53,72
9180,note_on,,1,0,10,,,,,,,,,,,,,,,,8,,53,72
9180,note_on,,1,0,14,,,,,,,,,,,,,,,,13,,53,72
9180,note_on,,1,0,9,,,,,,,,,,,,,,,,7,,57,72
9180,note_on,,0,0,15,,,,,,,,,,,,,,,,15,,60,72
9180,note_on,,0,0,15,,,,,,,,,,,,,,,,15,,57,72
9180,note_on,,1,0,6,,,,,,,,,,,,,,,,2,,53,72
9180,note_on,,1,0,13,,,,,,,,,,,,,,,,12,,65,72
9180,note_on,,1,0,12,,,,,,,,,,,,,,,,11,,69,72
9239,note_on,,59,0,6,,,,,,,,,,,,,,,,2,,53,0
9239,note_on,,59,0,13,,,,,,,,,,,,,,,,12,,65,0
9239,note_on,,59,0,10,,,,,,,,,,,,,,,,8,,53,0
9239,note_on,,0,0,15,,,,,,,,,,,,,,,,15,,57,0
9239,note_on,,59,0,9,,,,,,,,,,,,,,,,7,,57,0
9239,note_on,,0,0,15,,,,,,,,,,,,,,,,15,,60,0
9239,note_on,,0,0,15,,,,,,,,,,,,,,,,15,,53,0
9239,note_on,,59,0,15,,,,,,,,,,,,,,,,15,,65,0
9239,note_on,,59,0,14,,,,,,,,,,,,,,,,13,,53,0
9239,note_on,,59,0,12,,,,,,,,,,,,,,,,11,,69,0
9240,note_on,,0,0,15,,,,,,,,,,,,,,,,15,,58,72
9240,note_on,,1,0,15,,,,,,,,,,,,,,,,15,,55,72
9240,note_on,,1,0,14,,,,,,,,,,,,,,,,13,,55,72
9240,note_on,,1,0,9,,,,,,,,,,,,,,,,7,,58,72
9240,note_on,,1,0,10,,,,,,,,,,,,,,,,8,,55,72
9240,note_on,,1,0,13,,,,,,,,,,,,,,,,12,,62,72
9240,note_on,,1,0,6,,,,,,,,,,,,,,,,2,,55,72
9240,note_on,,1,0,12,,,,,,,,,,,,,,,,11,,70,72
9299,note_on,,59,0,10,,,,,,,,,,,,,,,,8,,55,0
9299,note_on,,59,0,13,,,,,,,,,,,,,,,,12,,62,0
9299,note_on,,59,0,9,,,,,,,,,,,,,,,,7,,58,0
9299,note_on,,59,0,14,,,,,,,,,,,,,,,,13,,55,0
9299,note_on,,59,0,6,,,,,,,,,,,,,,,,2,,55,0
9299,note_on,,59,0,12,,,,,,,,,,,,,,,,11,,70,0
9299,note_on,,0,0,15,,,,,,,,,,,,,,,,15,,58,0
9299,note_on,,59,0,15,,,,,,,,,,,,,,,,15,,55,0
9300,note_on,,1,0,9,,,,,,,,,,,,,,,,7,,55,72
9300,note_on,,1,0,6,,,,,,,,,,,,,,,,2,,48,72
9300,note_on,,1,0,12,,,,,,,,,,,,,,,,11,,67,72
9300,note_on,,0,0,15,,,,,,,,,,,,,,,,15,,67,72
9300,note_on,,1,0,13,,,,,,,,,,,,,,,,12,,64,72
9300,note_on,,0,0,15,,,,,,,,,,,,,,,,15,,64,72
9300,note_on,,1,0,14,,,,,,,,,,,,,,,,13,,48,72
9300,note_on,,1,0,10,,,,,,,,,,,,,,,,8,,48,72
9300,note_on,,1,0,15,,,,,,,,,,,,,,,,15,,48,72
9359,note_on,,59,0,14,,,,,,,,,,,,,,,,13,,48,0
9359,note_on,,59,0,6,,,,,,,,,,,,,,,,2,,48,0
9359,note_on,,59,0,12,,,,,,,,,,,,,,,,11,,67,0
9359,note_on,,59,0,15,,,,,,,,,,,,,,,,15,,48,0
9359,note_on,,0,0,15,,,,,,,,,,,,,,,,15,,67,0
9359,note_on,,59,0,10,,,,,,,,,,,,,,,,8,,48,0
9359,note_on,,59,0,13,,,,,,,,,,,,,,,,12,,64,0
9359,note_on,,59,0,9,,,,,,,,,,,,,,,,7,,55,0
9359,note_on,,0,0,15,,,,,,,,,,,,,,,,15,,64,0
9360,note_on,,0,0,15,,,,,,,,,,,,,,,,15,,57,72
9360,note_on,,0,0,15,,,,,,,,,,,,,,,,15,,60,72
9360,note_on,,241,0,11,,,,,,,,,,,,,,,,10,,77,72
9360,note_on,,1,0,15,,,,,,,,,,,,,,,,15,,53,72
9360,note_on,,1,0,14,,,,,,,,,,,,,,,,13,,53,72
9360,note_on,,1,0,6,,,,,,,,,,,,,,,,2,,53,72
9360,note_on,,601,0,5,,,,,,,,,,,,,,,,1,,77,72
9360,note_on,,1,0,13,,,,,,,,,,,,,,,,12,,65,72
9360,note_on,,1,0,12,,,,,,,,,,,,,,,,11,,69,72
9360,note_on,,1,0,10,,,,,,,,,,,,,,,,8,,53,72
9360,note_on,,1,0,9,,,,,,,,,,,,,,,,7,,57,72
9360,note_on,,601,0,7,,,,,,,,,,,,,,,,5,,77,72
9419,note_on,,59,0,11,,,,,,,,,,,,,,,,10,,77,0
9419,note_on,,0,0,15,,,,,,,,,,,,,,,,15,,57,0
9419,note_on,,59,0,7,,,,,,,,,,,,,,,,5,,77,0
9419,note_on,,59,0,15,,,,,,,,,,,,,,,,15,,53,0
9419,note_on,,0,0,15,,,,,,,,,,,,,,,,15,,60,0
9419,note_on,,59,0,6,,,,,,,,,,,,,,,,2,,53,0
9419,note_on,,59,0,9,,,,,,,,,,,,,,,,7,,57,0
9419,note_on,,59,0,14,,,,,,,,,,,,,,,,13,,53,0
9419,note_on,,59,0,5,,,,,,,,,,,,,,,,1,,77,0
9419,note_on,,59,0,13,,,,,,,,,,,,,,,,12,,65,0
9420,note_on,,1,0,9,,,,,,,,,,,,,,,,7,,57,72
9420,note_on,,0,0,15,,,,,,,,,,,,,,,,15,,57,72
9420,note_on,,0,0,15,,,,,,,,,,,,,,,,15,,65,72
9420,note_on,,1,0,15,,,,,,,,,,,,,,,,15,,60,72
9420,note_on,,1,0,6,,,,,,,,,,,,,,,,2,,57,72
9420,note_on,,1,0,11,,,,,,,,,,,,,,,,10,,72,72
9420,note_on,,1,0,14,,,,,,,,,,,,,,,,13,,57,72
9420,note_on,,1,0,7,,,,,,,,,,,,,,,,5,,72,72
9420,note_on,,1,0,13,,,,,,,,,,,,,,,,12,,57,72
9420,note_on,,1,0,5,,,,,,,,,,,,,,,,1,,72,72
9479,note_on,,59,0,14,,,,,,,,,,,,,,,,13,,57,0
9479,note_on,,119,0,12,,,,,,,,,,,,,,,,11,,69,0
9479,note_on,,119,0,10,,,,,,,,,,,,,,,,8,,53,0
9479,note_on,,59,0,15,,,,,,,,,,,,,,,,15,,60,0
9479,note_on,,0,0,15,,,,,,,,,,,,,,,,15,,57,0
9479,note_on,,59,0,7,,,,,,,,,,,,,,,,5,,72,0
9479,note_on,,59,0,6,,,,,,,,,,,,,,,,2,,57,0
9479,note_on,,59,0,9,,,,,,,,,,,,,,,,7,,57,0
9479,note_on,,59,0,13,,,,,,,,,,,,,,,,12,,57,0
9479,note_on,,59,0,11,,,,,,,,,,,,,,,,10,,72,0
9479,note_on,,59,0,5,,,,,,,,,,,,,,,,1,,72,0
9480,note_on,,1,0,11,,,,,,,,,,,,,,,,10,,74,72
9480,note_on,,1,0,13,,,,,,,,,,,,,,,,12,,58,72
9480,note_on,,1,0,6,,,,,,,,,,,,,,,,2,,58,72
9480,note_on,,1,0,15,,,,,,,,,,,,,,,,15,,58,72
9480,note_on,,1,0,9,,,,,,,,,,,,,,,,7,,58,72
9480,note_on,,1,0,14,,,,,,,,,,,,,,,,13,,58,72
9480,note_on,,1,0,7,,,,,,,,,,,,,,,,5,,74,72
9480,note_on,,0,0,15,,,,,,,,,,,,,,,,15,,62,72
9480,note_on,,1,0,5,,,,,,,,,,,,,,,,1,,74,72
9539,note_on,,59,0,14,,,,,,,,,,,,,,,,13,,58,0
9539,note_on,,59,0,13,,,,,,,,,,,,,,,,12,,58,0
9539,note_on,,59,0,7,,,,,,,,,,,,,,,,5,,74,0
9539,note_on,,59,0,5,,,,,,,,,,,,,,,,1,,74,0
9539,note_on,,59,0,6,,,,,,,,,,,,,,,,2,,58,0
9539,note_on,,0,0,15,,,,,,,,,,,,,,,,15,,62,0
9539,note_on,,59,0,9,,,,,,,,,,,,,,,,7,,58,0
9539,note_on,,59,0,11,,,,,,,,,,,,,,,,10,,74,0
9539,note_on,,0,0,15,,,,,,,,,,,,,,,,15,,58,0
9539,note_on,,59,0,15,,,,,,,,,,,,,,,,15,,65,0
9540,note_on,,1,0,11,,,,,,,,,,,,,,,,10,,69,72
9540,note_on,,0,0,15,,,,,,,,,,,,,,,,15,,69,72
9540,note_on,,1,0,6,,,,,,,,,,,,,,,,2,,60,72
9540,note_on,,1,0,5,,,,,,,,,,,,,,,,1,,69,72
9540,note_on,,0,0,15,,,,,,,,,,,,,,,,15,,64,72
9540,note_on,,1,0,9,,,,,,,,,,,,,,,,7,,60,72
9540,note_on,,1,0,15,,,,,,,,,,,,,,,,15,,60,72
9540,note_on,,1,0,7,,,,,,,,,,,,,,,,5,,69,72
9540,note_on,,1,0,14,,,,,,,,,,,,,,,,13,,60,72
9540,note_on,,1,0,13,,,,,,,,,,,,,,,,12,,60,72
9599,note_on,,59,0,5,,,,,,,,,,,,,,,,1,,69,0
9599,note_on,,59,0,14,,,,,,,,,,,,,,,,13,,60,0
9599,note_on,,59,0,9,,,,,,,,,,,,,,,,7,,60,0
9599,note_on,,59,0,6,,,,,,,,,,,,,,,,2,,60,0
9599,note_on,,0,0,15,,,,,,,,,,,,,,,,15,,69,0
9599,note_on,,59,0,11,,,,,,,,,,,,,,,,10,,69,0
9599,note_on,,59,0,13,,,,,,,,,,,,,,,,12,,60,0
9599,note_on,,0,0,15,,,,,,,,,,,,,,,,15,,64,0
9599,note_on,,59,0,15,,,,,,,,,,,,,,,,15,,60,0
9599,note_on,,59,0,7,,,,,,,,,,,,,,,,5,,69,0
9600,note_on,,0,0,15,,,,,,,,,,,,,,,,15,,70,72
9600,note_on,,1,0,15,,,,,,,,,,,,,,,,15,,62,72
9600,note_on,,1,0,9,,,,,,,,,,,,,,,,7,,62,72
9600,note_on,,0,0,15,,,,,,,,,,,,,,,,15,,65,72
9600,note_on,,1,0,5,,,,,,,,,,,,,,,,1,,70,72
9600,note_on,,1,0,6,,,,,,,,,,,,,,,,2,,62,72
9600,note_on,,1,0,14,,,,,,,,,,,,,,,,13,,62,72
9600,note_on,,1,0,11,,,,,,,,,,,,,,,,10,,70,72
9600,note_on,,1,0,7,,,,,,,,,,,,,,,,5,,70,72
9600,note_on,,1,0,13,,,,,,,,,,,,,,,,12,,62,72
9659,note_on,,59,0,6,,,,,,,,,,,,,,,,2,,62,0
9659,note_on,,59,0,9,,,,,,,,,,,,,,,,7,,62,0
9659,note_on,,59,0,15,,,,,,,,,,,,,,,,15,,62,0
9659,note_on,,59,0,5,,,,,,,,,,,,,,,,1,,70,0
9659,note_on,,0,0,15,,,,,,,,,,,,,,,,15,,70,0
9659,note_on,,0,0,15,,,,,,,,,,,,,,,,15,,65,0
9659,note_on,,59,0,13,,,,,,,,,,,,,,,,12,,62,0
9659,note_on,,59,0,14,,,,,,,,,,,,,,,,13,,62,0
9659,note_on,,59,0,7,,,,,,,,,,,,,,,,5,,70,0
9659,note_on,,59,0,11,,,,,,,,,,,,,,,,10,,70,0
9660,note_on,,1,0,6,,,,,,,,,,,,,,,,2,,64,72
9660,note_on,,0,0,15,,,,,,,,,,,,,,,,15,,67,72
9660,note_on,,0,0,15,,,,,,,,,,,,,,,,15,,72,72
9660,note_on,,1,0,15,,,,,,,,,,,,,,,,15,,64,72
9660,note_on,,1,0,9,,,,,,,,,,,,,,,,7,,64,72
9660,note_on,,1,0,7,,,,,,,,,,,,,,,,5,,67,72
9660,note_on,,1,0,13,,,,,,,,,,,,,,,,12,,64,72
9660,note_on,,1,0,11,,,,,,,,,,,,,,,,10,,67,72
9660,note_on,,1,0,5,,,,,,,,,,,,,,,,1,,67,72
9660,note_on,,1,0,14,,,,,,,,,,,,,,,,13,,64,72
9719,note_on,,59,0,13,,,,,,,,,,,,,,,,12,,64,0
9719,note_on,,59,0,15,,,,,,,,,,,,,,,,15,,64,0
9719,note_on,,59,0,5,,,,,,,,,,,,,,,,1,,67,0
9719,note_on,,59,0,14,,,,,,,,,,,,,,,,13,,64,0
9719,note_on,,59,0,9,,,,,,,,,,,,,,,,7,,64,0
9719,note_on,,0,0,15,,,,,,,,,,,,,,,,15,,72,0
9719,note_on,,59,0,7,,,,,,,,,,,,,,,,5,,67,0
9719,note_on,,59,0,11,,,,,,,,,,,,,,,,10,,67,0
9719,note_on,,59,0,6,,,,,,,,,,,,,,,,2,,64,0
9719,note_on,,0,0,15,,,,,,,,,,,,,,,,15,,67,0
9720,note_on,,1,0,13,,,,,,,,,,,,,,,,12,,65,72
9720,note_on,,0,0,15,,,,,,,,,,,,,,,,15,,60,72
9720,note_on,,0,0,15,,,,,,,,,,,,,,,,15,,65,72
9720,note_on,,1,0,15,,,,,,,,,,,,,,,,15,,53,72
9720,note_on,,1,0,14,,,,,,,,,,,,,,,,13,,53,72
9720,note_on,,1,0,11,,,,,,,,,,,,,,,,10,,69,72
9720,note_on,,0,0,15,,,,,,,,,,,,,,,,15,,69,72
9720,note_on,,1,0,7,,,,,,,,,,,,,,,,5,,69,72
9720,note_on,,601,0,8,,,,,,,,,,,,,,,,6,,69,72
9720,note_on,,1,0,6,,,,,,,,,,,,,,,,2,,53,72
9720,note_on,,241,0,10,,,,,,,,,,,,,,,,8,,53,72
9720,note_on,,241,0,12,,,,,,,,,,,,,,,,11,,81,72
9720,note_on,,1,0,5,,,,,,,,,,,,,,,,1,,69,72
9720,note_on,,1,0,9,,,,,,,,,,,,,,,,7,,65,72
9779,note_on,,0,0,15,,,,,,,,,,,,,,,,15,,60,0
9779,note_on,,59,0,14,,,,,,,,,,,,,,,,13,,53,0
9779,note_on,,59,0,12,,,,,,,,,,,,,,,,11,,81,0
9779,note_on,,59,0,8,,,,,,,,,,,,,,,,6,,69,0
9779,note_on,,59,0,11,,,,,,,,,,,,,,,,10,,69,0
9779,note_on,,59,0,6,,,,,,,,,,,,,,,,2,,53,0
9779,note_on,,0,0,15,,,,,,,,,,,,,,,,15,,65,0
9779,note_on,,59,0,7,,,,,,,,,,,,,,,,5,,69,0
9779,note_on,,59,0,5,,,,,,,,,,,,,,,,1,,69,0
9779,note_on,,59,0,10,,,,,,,,,,,,,,,,8,,53,0
9779,note_on,,59,0,15,,,,,,,,,,,,,,,,15,,53,0
9779,note_on,,0,0,15,,,,,,,,,,,,,,,,15,,69,0
9780,note_on,,1,0,7,,,,,,,,,,,,,,,,5,,67,72
9780,note_on,,1,0,11,,,,,,,,,,,,,,,,10,,67,72
9780,note_on,,0,0,15,,,,,,,,,,,,,,,,15,,60,72
9780,note_on,,0,0,15,,,,,,,,,,,,,,,,15,,64,72
9780,note_on,,0,0,15,,,,,,,,,,,,,,,,15,,55,72
9780,note_on,,1,0,15,,,,,,,,,,,,,,,,15,,48,72
9780,note_on,,1,0,14,,,,,,,,,,,,,,,,13,,48,72
9780,note_on,,1,0,5,,,,,,,,,,,,,,,,1,,67,72
9780,note_on,,1,0,12,,,,,,,,,,,,,,,,11,,76,72
9780,note_on,,1,0,6,,,,,,,,,,,,,,,,2,,48,72
9780,note_on,,1,0,10,,,,,,,,,,,,,,,,8,,48,72
9780,note_on,,1,0,8,,,,,,,,,,,,,,,,6,,64,72
9839,note_on,,59,0,14,,,,,,,,,,,,,,,,13,,48,0
9839,note_on,,59,0,15,,,,,,,,,,,,,,,,15,,48,0
9839,note_on,,0,0,15,,,,,,,,,,,,,,,,15,,55,0
9839,note_on,,119,0,13,,,,,,,,,,,,,,,,12,,65,0
9839,note_on,,0,0,15,,,,,,,,,,,,,,,,15,,64,0
9839,note_on,,59,0,5,,,,,,,,,,,,,,,,1,,67,0
9839,note_on,,59,0,12,,,,,,,,,,,,,,,,11,,76,0
9839,note_on,,119,0,9,,,,,,,,,,,,,,,,7,,65,0
9839,note_on,,59,0,11,,,,,,,,,,,,,,,,10,,67,0
9839,note_on,,59,0,10,,,,,,,,,,,,,,,,8,,48,0
9839,note_on,,0,0,15,,,,,,,,,,,,,,,,15,,60,0
9839,note_on,,59,0,6,,,,,,,,,,,,,,,,2,,48,0
9839,note_on,,59,0,8,,,,,,,,,,,,,,,,6,,64,0
9839,note_on,,59,0,7,,,,,,,,,,,,,,,,5,,67,0
9840,note_on,,1,0,15,,,,,,,,,,,,,,,,15,,50,72
9840,note_on,,0,0,15,,,,,,,,,,,,,,,,15,,57,72
9840,note_on,,1,0,10,,,,,,,,,,,,,,,,8,,50,72
9840,note_on,,0,0,15,,,,,,,,,,,,,,,,15,,65,72
9840,note_on,,1,0,11,,,,,,,,,,,,,,,,10,,65,72
9840,note_on,,1,0,14,,,,,,,,,,,,,,,,13,,50,72
9840,note_on,,0,0,15,,,,,,,,,,,,,,,,15,,53,72
9840,note_on,,1,0,12,,,,,,,,,,,,,,,,11,,77,72
9840,note_on,,1,0,5,,,,,,,,,,,,,,,,1,,65,72
9840,note_on,,1,0,6,,,,,,,,,,,,,,,,2,,50,72
9840,note_on,,1,0,8,,,,,,,,,,,,,,,,6,,65,72
9840,note_on,,1,0,7,,,,,,,,,,,,,,,,5,,65,72
9899,note_on,,0,0,15,,,,,,,,,,,,,,,,15,,65,0
9899,note_on,,59,0,10,,,,,,,,,,,,,,,,8,,50,0
9899,note_on,,59,0,14,,,,,,,,,,,,,,,,13,,50,0
9899,note_on,,59,0,8,,,,,,,,,,,,,,,,6,,65,0
9899,note_on,,0,0,15,,,,,,,,,,,,,,,,15,,57,0
9899,note_on,,59,0,15,,,,,,,,,,,,,,,,15,,50,0
9899,note_on,,0,0,15,,,,,,,,,,,,,,,,15,,53,0
9899,note_on,,59,0,6,,,,,,,,,,,,,,,,2,,50,0
9899,note_on,,59,0,12,,,,,,,,,,,,,,,,11,,77,0
9900,note_on,,1,0,6,,,,,,,,,,,,,,,,2,,45,72
9900,note_on,,1,0,10,,,,,,,,,,,,,,,,8,,57,72
9900,note_on,,1,0,15,,,,,,,,,,,,,,,,15,,60,72
9900,note_on,,0,0,15,,,,,,,,,,,,,,,,15,,45,72
9900,note_on,,0,0,15,,,,,,,,,,,,,,,,15,,52,72
9900,note_on,,0,0,15,,,,,,,,,,,,,,,,15,,57,72
9900,note_on,,1,0,8,,,,,,,,,,,,,,,,6,,60,72
9900,note_on,,1,0,12,,,,,,,,,,,,,,,,11,,72,72
9900,note_on,,1,0,14,,,,,,,,,,,,,,,,13,,45,72
9959,note_on,,59,0,6,,,,,,,,,,,,,,,,2,,45,0
9959,note_on,,59,0,10,,,,,,,,,,,,,,,,8,,57,0
9959,note_on,,59,0,14,,,,,,,,,,,,,,,,13,,45,0
9959,note_on,,119,0,5,,,,,,,,,,,,,,,,1,,65,0
9959,note_on,,119,0,7,,,,,,,,,,,,,,,,5,,65,0
9959,note_on,,59,0,12,,,,,,,,,,,,,,,,11,,72,0
9959,note_on,,59,0,8,,,,,,,,,,,,,,,,6,,60,0
9959,note_on,,119,0,11,,,,,,,,,,,,,,,,10,,65,0
9959,note_on,,59,0,15,,,,,,,,,,,,,,,,15,,60,0
9959,note_on,,0,0,15,,,,,,,,,,,,,,,,15,,45,0
9959,note_on,,0,0,15,,,,,,,,,,,,,,,,15,,57,0
9959,note_on,,0,0,15,,,,,,,,,,,,,,,,15,,52,0
9960,note_on,,0,0,15,,,,,,,,,,,,,,,,15,,62,72
9960,note_on,,1,0,10,,,,,,,,,,,,,,,,8,,59,72
9960,note_on,,1,0,8,,,,,,,,,,,,,,,,6,,62,72
9960,note_on,,0,0,15,,,,,,,,,,,,,,,,15,,55,72
9960,note_on,,1,0,12,,,,,,,,,,,,,,,,11,,74,72
9960,note_on,,1,0,14,,,,,,,,,,,,,,,,13,,47,72
9960,note_on,,1,0,6,,,,,,,,,,,,,,,,2,,47,72
9960,note_on,,0,0,15,,,,,,,,,,,,,,,,15,,50,72
9960,note_on,,1,0,15,,,,,,,,,,,,,,,,15,,47,72
10019,note_on,,59,0,10,,,,,,,,,,,,,,,,8,,59,0
10019,note_on,,0,0,15,,,,,,,,,,,,,,,,15,,55,0
10019,note_on,,59,0,15,,,,,,,,,,,,,,,,15,,47,0
10019,note_on,,0,0,15,,,,,,,,,,,,,,,,15,,50,0
10019,note_on,,59,0,12,,,,,,,,,,,,,,,,11,,74,0
10019,note_on,,0,0,15,,,,,,,,,,,,,,,,15,,62,0
10019,note_on,,59,0,8,,,,,,,,,,,,,,,,6,,62,0
10019,note_on,,59,0,6,,,,,,,,,,,,,,,,2,,47,0
10019,note_on,,59,0,14,,,,,,,,,,,,,,,,13,,47,0
10020,note_on,,0,0,15,,,,,,,,,,,,,,,,15,,59,72
10020,note_on,,1,0,8,,,,,,,,,,,,,,,,6,,67,72
10020,note_on,,0,0,15,,,,,,,,,,,,,,,,15,,67,72
10020,note_on,,0,0,15,,,,,,,,,,,,,,,,15,,50,72
10020,note_on,,1,0,10,,,,,,,,,,,,,,,,8,,55,72
10020,note_on,,1,0,15,,,,,,,,,,,,,,,,15,,43,72
10020,note_on,,1,0,14,,,,,,,,,,,,,,,,13,,43,72
10020,note_on,,1,0,12,,,,,,,,,,,,,,,,11,,79,72
10020,note_on,,1,0,6,,,,,,,,,,,,,,,,2,,43,72
10079,note_on,,0,0,15,,,,,,,,,,,,,,,,15,,59,0
10079,note_on,,0,0,15,,,,,,,,,,,,,,,,15,,67,0
10079,note_on,,59,0,12,,,,,,,,,,,,,,,,11,,79,0
10079,note_on,,59,0,6,,,,,,,,,,,,,,,,2,,43,0
10079,note_on,,59,0,15,,,,,,,,,,,,,,,,15,,43,0
10079,note_on,,59,0,14,,,,,,,,,,,,,,,,13,,43,0
10079,note_on,,59,0,8,,,,,,,,,,,,,,,,6,,67,0
10079,note_on,,59,0,10,,,,,,,,,,,,,,,,8,,55,0
10079,note_on,,0,0,15,,,,,,,,,,,,,,,,15,,50,0
10080,note_on,,0,0,15,,,,,,,,,,,,,,,,15,,55,72
10080,note_on,,1,0,6,,,,,,,,,,,,,,,,2,,48,72
10080,note_on,,1,0,14,,,,,,,,,,,,,,,,13,,48,72
10080,note_on,,121,0,11,,,,,,,,,,,,,,,,10,,79,72
10080,note_on,,121,0,5,,,,,,,,,,,,,,,,1,,79,72
10080,note_on,,1,0,12,,,,,,,,,,,,,,,,11,,76,72
10080,note_on,,1,0,8,,,,,,,,,,,,,,,,6,,64,72
10080,note_on,,0,0,15,,,,,,,,,,,,,,,,15,,60,72
10080,note_on,,0,0,15,,,,,,,,,,,,,,,,15,,64,72
10080,note_on,,1,0,15,,,,,,,,,,,,,,,,15,,48,72
10080,note_on,,1,0,10,,,,,,,,,,,,,,,,8,,60,72
10080,note_on,,121,0,7,,,,,,,,,,,,,,,,5,,79,72
10139,note_on,,59,0,7,,,,,,,,,,,,,,,,5,,79,0
10139,note_on,,59,0,8,,,,,,,,,,,,,,,,6,,64,0
10139,note_on,,59,0,5,,,,,,,,,,,,,,,,1,,79,0
10139,note_on,,59,0,11,,,,,,,,,,,,,,,,10,,79,0
10140,note_on,,1,0,8,,,,,,,,,,,,,,,,6,,65,72
10140,note_on,,1,0,5,,,,,,,,,,,,,,,,1,,74,72
10140,note_on,,1,0,11,,,,,,,,,,,,,,,,10,,74,72
10140,note_on,,1,0,7,,,,,,,,,,,,,,,,5,,74,72
10199,note_on,,119,0,14,,,,,,,,,,,,,,,,13,,48,0
10199,note_on,,59,0,5,,,,,,,,,,,,,,,,1,,74,0
10199,note_on,,0,0,15,,,,,,,,,,,,,,,,15,,55,0
10199,note_on,,59,0,7,,,,,,,,,,,,,,,,5,,74,0
10199,note_on,,59,0,8,,,,,,,,,,,,,,,,6,,65,0
10199,note_on,,119,0,15,,,,,,,,,,,,,,,,15,,48,0
10199,note_on,,59,0,11,,,,,,,,,,,,,,,,10,,74,0
10199,note_on,,119,0,6,,,,,,,,,,,,,,,,2,,48,0
10199,note_on,,119,0,12,,,,,,,,,,,,,,,,11,,76,0
10199,note_on,,119,0,10,,,,,,,,,,,,,,,,8,,60,0
10199,note_on,,0,0,15,,,,,,,,,,,,,,,,15,,64,0
10199,note_on,,0,0,15,,,,,,,,,,,,,,,,15,,60,0
10200,note_on,,1,0,6,,,,,,,,,,,,,,,,2,,36,72
10200,note_on,,1,0,15,,,,,,,,,,,,,,,,15,,36,72
10200,note_on,,0,0,15,,,,,,,,,,,,,,,,15,,60,72
10200,note_on,,1,0,10,,,,,,,,,,,,,,,,8,,48,72
10200,note_on,,0,0,15,,,,,,,,,,,,,,,,15,,48,72
10200,note_on,,1,0,12,,,,,,,,,,,,,,,,11,,67,72
10200,note_on,,361,0,9,,,,,,,,,,,,,,,,7,,67,72
10200,note_on,,1,0,5,,,,,,,,,,,,,,,,1,,76,72
10200,note_on,,1,0,11,,,,,,,,,,,,,,,,10,,76,72
10200,note_on,,361,0,13,,,,,,,,,,,,,,,,12,,67,72
10200,note_on,,1,0,14,,,,,,,,,,,,,,,,13,,36,72
10200,note_on,,1,0,8,,,,,,,,,,,,,,,,6,,67,72
10200,note_on,,1,0,7,,,,,,,,,,,,,,,,5,,76,72
10200,note_on,,0,0,15,,,,,,,,,,,,,,,,15,,52,72
10200,note_on,,0,0,15,,,,,,,,,,,,,,,,15,,55,72
10259,note_on,,59,0,11,,,,,,,,,,,,,,,,10,,76,0
10259,note_on,,59,0,7,,,,,,,,,,,,,,,,5,,76,0
10259,note_on,,59,0,9,,,,,,,,,,,,,,,,7,,67,0
10259,note_on,,59,0,13,,,,,,,,,,,,,,,,12,,67,0
10259,note_on,,59,0,5,,,,,,,,,,,,,,,,1,,76,0
10259,note_on,,59,0,12,,,,,,,,,,,,,,,,11,,67,0
10260,note_on,,1,0,7,,,,,,,,,,,,,,,,5,,71,72
10260,note_on,,1,0,5,,,,,,,,,,,,,,,,1,,71,72
10260,note_on,,1,0,12,,,,,,,,,,,,,,,,11,,62,72
10260,note_on,,1,0,13,,,,,,,,,,,,,,,,12,,62,72
10260,note_on,,1,0,9,,,,,,,,,,,,,,,,7,,62,72
10260,note_on,,1,0,11,,,,,,,,,,,,,,,,10,,71,72
10319,note_on,,59,0,9,,,,,,,,,,,,,,,,7,,62,0
10319,note_on,,59,0,12,,,,,,,,,,,,,,,,11,,62,0
10319,note_on,,119,0,8,,,,,,,,,,,,,,,,6,,67,0
10319,note_on,,59,0,5,,,,,,,,,,,,,,,,1,,71,0
10319,note_on,,0,0,15,,,,,,,,,,,,,,,,15,,60,0
10319,note_on,,0,0,15,,,,,,,,,,,,,,,,15,,48,0
10319,note_on,,119,0,10,,,,,,,,,,,,,,,,8,,48,0
10319,note_on,,119,0,6,,,,,,,,,,,,,,,,2,,36,0
10319,note_on,,119,0,14,,,,,,,,,,,,,,,,13,,36,0
10319,note_on,,59,0,13,,,,,,,,,,,,,,,,12,,62,0
10319,note_on,,59,0,11,,,,,,,,,,,,,,,,10,,71,0
10319,note_on,,59,0,7,,,,,,,,,,,,,,,,5,,71,0
10319,note_on,,119,0,15,,,,,,,,,,,,,,,,15,,36,0
10319,note_on,,0,0,15,,,,,,,,,,,,,,,,15,,55,0
10319,note_on,,0,0,15,,,,,,,,,,,,,,,,15,,52,0
10320,note_on,,1,0,13,,,,,,,,,,,,,,,,12,,64,72
10320,note_on,,1,0,11,,,,,,,,,,,,,,,,10,,72,72
10320,note_on,,0,0,15,,,,,,,,,,,,,,,,15,,72,72
10320,note_on,,1,0,15,,,,,,,,,,,,,,,,15,,64,72
10320,note_on,,1,0,7,,,,,,,,,,,,,,,,5,,72,72
10320,note_on,,1,0,14,,,,,,,,,,,,,,,,13,,64,72
10320,note_on,,1,0,9,,,,,,,,,,,,,,,,7,,64,72
10320,note_on,,0,0,15,,,,,,,,,,,,,,,,15,,67,72
10320,note_on,,1,0,12,,,,,,,,,,,,,,,,11,,64,72
10320,note_on,,1,0,5,,,,,,,,,,,,,,,,1,,72,72
10379,note_on,,59,0,11,,,,,,,,,,,,,,,,10,,72,0
10379,note_on,,59,0,13,,,,,,,,,,,,,,,,12,,64,0
10379,note_on,,59,0,5,,,,,,,,,,,,,,,,1,,72,0
10379,note_on,,59,0,12,,,,,,,,,,,,,,,,11,,64,0
10379,note_on,,59,0,9,,,,,,,,,,,,,,,,7,,64,0
10379,note_on,,59,0,7,,,,,,,,,,,,,,,,5,,72,0
10379,note_on,,0,0,15,,,,,,,,,,,,,,,,15,,72,0
10379,note_on,,0,0,15,,,,,,,,,,,,,,,,15,,67,0
10379,note_on,,59,0,14,,,,,,,,,,,,,,,,13,,64,0
10379,note_on,,59,0,15,,,,,,,,,,,,,,,,15,,64,0
10380,note_on,,1,0,13,,,,,,,,,,,,,,,,12,,59,72
10380,note_on,,1,0,14,,,,,,,,,,,,,,,,13,,59,72
10380,note_on,,1,0,11,,,,,,,,,,,,,,,,10,,74,72
10380,note_on,,1,0,15,,,,,,,,,,,,,,,,15,,59,72
10380,note_on,,0,0,15,,,,,,,,,,,,,,,,15,,74,72
10380,note_on,,1,0,5,,,,,,,,,,,,,,,,1,,74,72
10380,note_on,,0,0,15,,,,,,,,,,,,,,,,15,,62,72
10380,note_on,,1,0,7,,,,,,,,,,,,,,,,5,,74,72
10380,note_on,,1,0,12,,,,,,,,,,,,,,,,11,,59,72
10380,note_on,,0,0,15,,,,,,,,,,,,,,,,15,,67,72
10380,note_on,,1,0,9,,,,,,,,,,,,,,,,7,,59,72
10439,note_on,,0,0,15,,,,,,,,,,,,,,,,15,,67,0
10439,note_on,,0,0,15,,,,,,,,,,,,,,,,15,,74,0
10439,note_on,,0,0,15,,,,,,,,,,,,,,,,15,,62,0
10439,note_on,,59,0,13,,,,,,,,,,,,,,,,12,,59,0
10439,note_on,,59,0,15,,,,,,,,,,,,,,,,15,,59,0
10439,note_on,,59,0,12,,,,,,,,,,,,,,,,11,,59,0
10439,note_on,,59,0,9,,,,,,,,,,,,,,,,7,,59,0
10439,note_on,,59,0,14,,,,,,,,,,,,,,,,13,,59,0
10439,note_on,,59,0,7,,,,,,,,,,,,,,,,5,,74,0
10439,note_on,,59,0,11,,,,,,,,,,,,,,,,10,,74,0
10439,note_on,,59,0,5,,,,,,,,,,,,,,,,1,,74,0
10440,note_on,,1,0,14,,,,,,,,,,,,,,,,13,,60,72
10440,note_on,,1,0,12,,,,,,,,,,,,,,,,11,,60,72
10440,note_on,,1,0,7,,,,,,,,,,,,,,,,5,,76,72
10440,note_on,,0,0,15,,,,,,,,,,,,,,,,15,,67,72
10440,note_on,,1,0,9,,,,,,,,,,,,,,,,7,,60,72
10440,note_on,,1,0,5,,,,,,,,,,,,,,,,1,,76,72
10440,note_on,,1,0,11,,,,,,,,,,,,,,,,10,,76,72
10440,note_on,,1,0,15,,,,,,,,,,,,,,,,15,,64,72
10440,note_on,,0,0,15,,,,,,,,,,,,,,,,15,,60,72
10440,note_on,,1,0,13,,,,,,,,,,,,,,,,12,,60,72
10469,note_on,,29,0,11,,,,,,,,,,,,,,,,10,,76,0
10469,note_on,,29,0,7,,,,,,,,,,,,,,,,5,,76,0
10469,note_on,,29,0,5,,,,,,,,,,,,,,,,1,,76,0
10470,note_on,,1,0,7,,,,,,,,,,,,,,,,5,,77,72
10470,note_on,,1,0,5,,,,,,,,,,,,,,,,1,,77,72
10470,note_on,,1,0,11,,,,,,,,,,,,,,,,10,,77,72
10499,note_on,,59,0,13,,,,,,,,,,,,,,,,12,,60,0
10499,note_on,,29,0,11,,,,,,,,,,,,,,,,10,,77,0
10499,note_on,,59,0,9,,,,,,,,,,,,,,,,7,,60,0
10499,note_on,,59,0,12,,,,,,,,,,,,,,,,11,,60,0
10499,note_on,,29,0,7,,,,,,,,,,,,,,,,5,,77,0
10499,note_on,,59,0,15,,,,,,,,,,,,,,,,15,,64,0
10499,note_on,,0,0,15,,,,,,,,,,,,,,,,15,,60,0
10499,note_on,,29,0,5,,,,,,,,,,,,,,,,1,,77,0
10499,note_on,,0,0,15,,,,,,,,,,,,,,,,15,,67,0
10499,note_on,,59,0,14,,,,,,,,,,,,,,,,13,,60,0
10500,note_on,,1,0,5,,,,,,,,,,,,,,,,1,,79,72
10500,note_on,,0,0,15,,,,,,,,,,,,,,,,15,,71,72
10500,note_on,,1,0,15,,,,,,,,,,,,,,,,15,,55,72
10500,note_on,,1,0,12,,,,,,,,,,,,,,,,11,,55,72
10500,note_on,,0,0,15,,,,,,,,,,,,,,,,15,,62,72
10500,note_on,,1,0,9,,,,,,,,,,,,,,,,7,,55,72
10500,note_on,,1,0,11,,,,,,,,,,,,,,,,10,,79,72
10500,note_on,,1,0,7,,,,,,,,,,,,,,,,5,,79,72
10500,note_on,,1,0,13,,,,,,,,,,,,,,,,12,,55,72
10500,note_on,,0,0,15,,,,,,,,,,,,,,,,15,,67,72
10500,note_on,,1,0,14,,,,,,,,,,,,,,,,13,,55,72
10559,note_on,,59,0,7,,,,,,,,,,,,,,,,5,,79,0
10559,note_on,,0,0,15,,,,,,,,,,,,,,,,15,,67,0
10559,note_on,,59,0,9,,,,,,,,,,,,,,,,7,,55,0
10559,note_on,,59,0,5,,,,,,,,,,,,,,,,1,,79,0
10559,note_on,,59,0,11,,,,,,,,,,,,,,,,10,,79,0
10559,note_on,,59,0,12,,,,,,,,,,,,,,,,11,,55,0
10559,note_on,,0,0,15,,,,,,,,,,,,,,,,15,,62,0
10559,note_on,,0,0,15,,,,,,,,,,,,,,,,15,,71,0
10559,note_on,,59,0,15,,,,,,,,,,,,,,,,15,,55,0
10559,note_on,,59,0,14,,,,,,,,,,,,,,,,13,,55,0
10559,note_on,,59,0,13,,,,,,,,,,,,,,,,12,,55,0
10560,note_on,,1,0,13,,,,,,,,,,,,,,,,12,,57,72
10560,note_on,,1,0,7,,,,,,,,,,,,,,,,5,,72,72
10560,note_on,,1,0,15,,,,,,,,,,,,,,,,15,,57,72
10560,note_on,,0,0,15,,,,,,,,,,,,,,,,15,,64,72
10560,note_on,,0,0,15,,,,,,,,,,,,,,,,15,,60,72
10560,note_on,,1,0,14,,,,,,,,,,,,,,,,13,,57,72
10560,note_on,,1,0,9,,,,,,,,,,,,,,,,7,,57,72
10560,note_on,,1,0,5,,,,,,,,,,,,,,,,1,,72,72
10560,note_on,,1,0,11,,,,,,,,,,,,,,,,10,,72,72
10560,note_on,,1,0,12,,,,,,,,,,,,,,,,11,,57,72
10589,note_on,,29,0,7,,,,,,,,,,,,,,,,5,,72,0
10589,note_on,,29,0,14,,,,,,,,,,,,,,,,13,,57,0
10589,note_on,,29,0,5,,,,,,,,,,,,,,,,1,,72,0
10589,note_on,,29,0,11,,,,,,,,,,,,,,,,10,,72,0
10589,note_on,,29,0,9,,,,,,,,,,,,,,,,7,,57,0
10589,note_on,,29,0,12,,,,,,,,,,,,,,,,11,,57,0
10589,note_on,,0,0,15,,,,,,,,,,,,,,,,15,,60,0
10589,note_on,,29,0,15,,,,,,,,,,,,,,,,15,,57,0
10589,note_on,,29,0,13,,,,,,,,,,,,,,,,12,,57,0
10590,note_on,,1,0,9,,,,,,,,,,,,,,,,7,,59,72
10590,note_on,,1,0,11,,,,,,,,,,,,,,,,10,,74,72
10590,note_on,,0,0,15,,,,,,,,,,,,,,,,15,,62,72
10590,note_on,,1,0,5,,,,,,,,,,,,,,,,1,,74,72
10590,note_on,,1,0,15,,,,,,,,,,,,,,,,15,,59,72
10590,note_on,,1,0,14,,,,,,,,,,,,,,,,13,,59,72
10590,note_on,,1,0,12,,,,,,,,,,,,,,,,11,,59,72
10590,note_on,,1,0,13,,,,,,,,,,,,,,,,12,,59,72
10590,note_on,,1,0,7,,,,,,,,,,,,,,,,5,,74,72
10619,note_on,,29,0,13,,,,,,,,,,,,,,,,12,,59,0
10619,note_on,,29,0,5,,,,,,,,,,,,,,,,1,,74,0
10619,note_on,,29,0,12,,,,,,,,,,,,,,,,11,,59,0
10619,note_on,,29,0,14,,,,,,,,,,,,,,,,13,,59,0
10619,note_on,,29,0,11,,,,,,,,,,,,,,,,10,,74,0
10619,note_on,,29,0,7,,,,,,,,,,,,,,,,5,,74,0
10619,note_on,,29,0,9,,,,,,,,,,,,,,,,7,,59,0
10619,note_on,,0,0,15,,,,,,,,,,,,,,,,15,,62,0
10619,note_on,,29,0,15,,,,,,,,,,,,,,,,15,,59,0
10620,note_on,,1,0,12,,,,,,,,,,,,,,,,11,,60,72
10620,note_on,,1,0,9,,,,,,,,,,,,,,,,7,,60,72
10620,note_on,,1,0,5,,,,,,,,,,,,,,,,1,,76,72
10620,note_on,,1,0,14,,,,,,,,,,,,,,,,13,,60,72
10620,note_on,,1,0,11,,,,,,,,,,,,,,,,10,,76,72
10620,note_on,,1,0,7,,,,,,,,,,,,,,,,5,,76,72
10620,note_on,,1,0,15,,,,,,,,,,,,,,,,15,,60,72
10620,note_on,,1,0,13,,,,,,,,,,,,,,,,12,,60,72
10679,note_on,,59,0,7,,,,,,,,,,,,,,,,5,,76,0
10679,note_on,,59,0,5,,,,,,,,,,,,,,,,1,,76,0
10679,note_on,,59,0,12,,,,,,,,,,,,,,,,11,,60,0
10679,note_on,,59,0,13,,,,,,,,,,,,,,,,12,,60,0
10679,note_on,,59,0,9,,,,,,,,,,,,,,,,7,,60,0
10679,note_on,,59,0,11,,,,,,,,,,,,,,,,10,,76,0
10679,note_on,,59,0,14,,,,,,,,,,,,,,,,13,,60,0
10679,note_on,,0,0,15,,,,,,,,,,,,,,,,15,,60,0
10679,note_on,,59,0,15,,,,,,,,,,,,,,,,15,,64,0
10680,note_on,,1,0,14,,,,,,,,,,,,,,,,13,,59,72
10680,note_on,,1,0,9,,,,,,,,,,,,,,,,7,,59,72
10680,note_on,,1,0,12,,,,,,,,,,,,,,,,11,,59,72
10680,note_on,,1,0,5,,,,,,,,,,,,,,,,1,,74,72
10680,note_on,,0,0,15,,,,,,,,,,,,,,,,15,,62,72
10680,note_on,,0,0,15,,,,,,,,,,,,,,,,15,,67,72
10680,note_on,,1,0,15,,,,,,,,,,,,,,,,15,,59,72
10680,note_on,,1,0,7,,,,,,,,,,,,,,,,5,,74,72
10680,note_on,,1,0,13,,,,,,,,,,,,,,,,12,,59,72
10680,note_on,,1,0,11,,,,,,,,,,,,,,,,10,,74,72
10709,note_on,,0,0,15,,,,,,,,,,,,,,,,15,,62,0
10709,note_on,,29,0,9,,,,,,,,,,,,,,,,7,,59,0
10709,note_on,,29,0,7,,,,,,,,,,,,,,,,5,,74,0
10709,note_on,,29,0,13,,,,,,,,,,,,,,,,12,,59,0
10709,note_on,,29,0,14,,,,,,,,,,,,,,,,13,,59,0
10709,note_on,,29,0,11,,,,,,,,,,,,,,,,10,,74,0
10709,note_on,,29,0,12,,,,,,,,,,,,,,,,11,,59,0
10709,note_on,,29,0,15,,,,,,,,,,,,,,,,15,,59,0
10709,note_on,,29,0,5,,,,,,,,,,,,,,,,1,,74,0
10710,note_on,,1,0,12,,,,,,,,,,,,,,,,11,,60,72
10710,note_on,,1,0,15,,,,,,,,,,,,,,,,15,,60,72
10710,note_on,,1,0,5,,,,,,,,,,,,,,,,1,,76,72
10710,note_on,,0,0,15,,,,,,,,,,,,,,,,15,,64,72
10710,note_on,,1,0,14,,,,,,,,,,,,,,,,13,,60,72
10710,note_on,,1,0,7,,,,,,,,,,,,,,,,5,,76,72
10710,note_on,,1,0,11,,,,,,,,,,,,,,,,10,,76,72
10710,note_on,,1,0,9,,,,,,,,,,,,,,,,7,,60,72
10710,note_on,,1,0,13,,,,,,,,,,,,,,,,12,,60,72
10739,note_on,,29,0,5,,,,,,,,,,,,,,,,1,,76,0
10739,note_on,,29,0,14,,,,,,,,,,,,,,,,13,,60,0
10739,note_on,,29,0,7,,,,,,,,,,,,,,,,5,,76,0
10739,note_on,,0,0,15,,,,,,,,,,,,,,,,15,,64,0
10739,note_on,,0,0,15,,,,,,,,,,,,,,,,15,,60,0
10739,note_on,,29,0,13,,,,,,,,,,,,,,,,12,,60,0
10739,note_on,,29,0,11,,,,,,,,,,,,,,,,10,,76,0
10739,note_on,,29,0,9,,,,,,,,,,,,,,,,7,,60,0
10739,note_on,,29,0,15,,,,,,,,,,,,,,,,15,,67,0
10739,note_on,,29,0,12,,,,,,,,,,,,,,,,11,,60,0
10740,note_on,,1,0,9,,,,,,,,,,,,,,,,7,,62,72
10740,note_on,,1,0,5,,,,,,,,,,,,,,,,1,,77,72
10740,note_on,,1,0,7,,,,,,,,,,,,,,,,5,,77,72
10740,note_on,,1,0,12,,,,,,,,,,,,,,,,11,,62,72
10740,note_on,,1,0,15,,,,,,,,,,,,,,,,15,,62,72
10740,note_on,,1,0,11,,,,,,,,,,,,,,,,10,,77,72
10740,note_on,,0,0,15,,,,,,,,,,,,,,,,15,,65,72
10740,note_on,,1,0,13,,,,,,,,,,,,,,,,12,,62,72
10740,note_on,,0,0,15,,,,,,,,,,,,,,,,15,,71,72
10740,note_on,,1,0,14,,,,,,,,,,,,,,,,13,,62,72
10799,note_on,,59,0,5,,,,,,,,,,,,,,,,1,,77,0
10799,note_on,,59,0,7,,,,,,,,,,,,,,,,5,,77,0
10799,note_on,,0,0,15,,,,,,,,,,,,,,,,15,,65,0
10799,note_on,,59,0,9,,,,,,,,,,,,,,,,7,,62,0
10799,note_on,,59,0,14,,,,,,,,,,,,,,,,13,,62,0
10799,note_on,,59,0,11,,,,,,,,,,,,,,,,10,,77,0
10799,note_on,,59,0,12,,,,,,,,,,,,,,,,11,,62,0
10799,note_on,,59,0,13,,,,,,,,,,,,,,,,12,,62,0
10799,note_on,,59,0,15,,,,,,,,,,,,,,,,15,,62,0
10799,note_on,,0,0,15,,,,,,,,,,,,,,,,15,,71,0
10800,note_on,,1,0,11,,,,,,,,,,,,,,,,10,,76,72
10800,note_on,,1,0,14,,,,,,,,,,,,,,,,13,,60,72
10800,note_on,,1,0,7,,,,,,,,,,,,,,,,5,,76,72
10800,note_on,,1,0,9,,,,,,,,,,,,,,,,7,,60,72
10800,note_on,,481,0,10,,,,,,,,,,,,,,,,8,,60,72
10800,note_on,,1,0,15,,,,,,,,,,,,,,,,15,,60,72
10800,note_on,,0,0,15,,,,,,,,,,,,,,,,15,,72,72
10800,note_on,,0,0,15,,,,,,,,,,,,,,,,15,,67,72
10800,note_on,,0,0,15,,,,,,,,,,,,,,,,15,,64,72
10800,note_on,,1,0,12,,,,,,,,,,,,,,,,11,,60,72
10800,note_on,,1,0,13,,,,,,,,,,,,,,,,12,,60,72
10800,note_on,,1,0,5,,,,,,,,,,,,,,,,1,,76,72
10800,note_on,,481,0,6,,,,,,,,,,,,,,,,2,,60,72
10859,note_on,,59,0,6,,,,,,,,,,,,,,,,2,,60,0
10859,note_on,,59,0,10,,,,,,,,,,,,,,,,8,,60,0
10859,note_on,,0,0,15,,,,,,,,,,,,,,,,15,,64,0
10859,note_on,,0,0,15,,,,,,,,,,,,,,,,15,,67,0
10859,note_on,,59,0,14,,,,,,,,,,,,,,,,13,,60,0
10859,note_on,,0,0,15,,,,,,,,,,,,,,,,15,,72,0
10859,note_on,,59,0,15,,,,,,,,,,,,,,,,15,,60,0
10860,note_on,,0,0,15,,,,,,,,,,,,,,,,15,,67,72
10860,note_on,,1,0,10,,,,,,,,,,,,,,,,8,,55,72
10860,note_on,,0,0,15,,,,,,,,,,,,,,,,15,,62,72
10860,note_on,,1,0,15,,,,,,,,,,,,,,,,15,,55,72
10860,note_on,,1,0,6,,,,,,,,,,,,,,,,2,,55,72
10860,note_on,,1,0,14,,,,,,,,,,,,,,,,13,,55,72
10860,note_on,,0,0,15,,,,,,,,,,,,,,,,15,,71,72
10919,note_on,,119,0,12,,,,,,,,,,,,,,,,11,,60,0
10919,note_on,,119,0,13,,,,,,,,,,,,,,,,12,,60,0
10919,note_on,,0,0,15,,,,,,,,,,,,,,,,15,,62,0
10919,note_on,,119,0,11,,,,,,,,,,,,,,,,10,,76,0
10919,note_on,,59,0,15,,,,,,,,,,,,,,,,15,,55,0
10919,note_on,,59,0,14,,,,,,,,,,,,,,,,13,,55,0
10919,note_on,,119,0,9,,,,,,,,,,,,,,,,7,,60,0
10919,note_on,,59,0,10,,,,,,,,,,,,,,,,8,,55,0
10919,note_on,,59,0,6,,,,,,,,,,,,,,,,2,,55,0
10919,note_on,,0,0,15,,,,,,,,,,,,,,,,15,,67,0
10919,note_on,,119,0,5,,,,,,,,,,,,,,,,1,,76,0
10919,note_on,,119,0,7,,,,,,,,,,,,,,,,5,,76,0
10919,note_on,,0,0,15,,,,,,,,,,,,,,,,15,,71,0
10920,note_on,,1,0,10,,,,,,,,,,,,,,,,8,,57,72
10920,note_on,,0,0,15,,,,,,,,,,,,,,,,15,,60,72
10920,note_on,,0,0,15,,,,,,,,,,,,,,,,15,,64,72
10920,note_on,,0,0,15,,,,,,,,,,,,,,,,15,,69,72
10920,note_on,,1,0,15,,,,,,,,,,,,,,,,15,,57,72
10920,note_on,,1,0,14,,,,,,,,,,,,,,,,13,,57,72
10920,note_on,,601,0,8,,,,,,,,,,,,,,,,6,,72,72
10920,note_on,,1,0,6,,,,,,,,,,,,,,,,2,,57,72
10920,note_on,,1,0,9,,,,,,,,,,,,,,,,7,,64,72
10920,note_on,,1,0,13,,,,,,,,,,,,,,,,12,,64,72
10920,note_on,,1,0,11,,,,,,,,,,,,,,,,10,,72,72
10979,note_on,,59,0,9,,,,,,,,,,,,,,,,7,,64,0
10979,note_on,,59,0,10,,,,,,,,,,,,,,,,8,,57,0
10979,note_on,,0,0,15,,,,,,,,,,,,,,,,15,,64,0
10979,note_on,,0,0,15,,,,,,,,,,,,,,,,15,,60,0
10979,note_on,,0,0,15,,,,,,,,,,,,,,,,15,,69,0
10979,note_on,,59,0,15,,,,,,,,,,,,,,,,15,,57,0
10979,note_on,,59,0,6,,,,,,,,,,,,,,,,2,,57,0
10979,note_on,,59,0,11,,,,,,,,,,,,,,,,10,,72,0
10979,note_on,,59,0,8,,,,,,,,,,,,,,,,6,,72,0
10979,note_on,,59,0,14,,,,,,,,,,,,,,,,13,,57,0
10980,note_on,,1,0,6,,,,,,,,,,,,,,,,2,,52,72
10980,note_on,,0,0,15,,,,,,,,,,,,,,,,15,,64,72
10980,note_on,,0,0,15,,,,,,,,,,,,,,,,15,,59,72
10980,note_on,,1,0,14,,,,,,,,,,,,,,,,13,,52,72
10980,note_on,,0,0,15,,,,,,,,,,,,,,,,15,,52,72
10980,note_on,,1,0,15,,,,,,,,,,,,,,,,15,,67,72
10980,note_on,,1,0,8,,,,,,,,,,,,,,,,6,,67,72
10980,note_on,,1,0,9,,,,,,,,,,,,,,,,7,,64,72
10980,note_on,,1,0,10,,,,,,,,,,,,,,,,8,,52,72
10980,note_on,,1,0,11,,,,,,,,,,,,,,,,10,,67,72
11039,note_on,,0,0,15,,,,,,,,,,,,,,,,15,,64,0
11039,note_on,,119,0,13,,,,,,,,,,,,,,,,12,,64,0
11039,note_on,,59,0,14,,,,,,,,,,,,,,,,13,,52,0
11039,note_on,,0,0,15,,,,,,,,,,,,,,,,15,,52,0
11039,note_on,,59,0,15,,,,,,,,,,,,,,,,15,,67,0
11039,note_on,,59,0,9,,,,,,,,,,,,,,,,7,,64,0
11039,note_on,,59,0,11,,,,,,,,,,,,,,,,10,,67,0
11039,note_on,,59,0,10,,,,,,,,,,,,,,,,8,,52,0
11039,note_on,,0,0,15,,,,,,,,,,,,,,,,15,,59,0
11039,note_on,,59,0,8,,,,,,,,,,,,,,,,6,,67,0
11039,note_on,,59,0,6,,,,,,,,,,,,,,,,2,,52,0
11040,note_on,,0,0,15,,,,,,,,,,,,,,,,15,,57,72
11040,note_on,,0,0,15,,,,,,,,,,,,,,,,15,,69,72
11040,note_on,,1,0,8,,,,,,,,,,,,,,,,6,,69,72
11040,note_on,,0,0,15,,,,,,,,,,,,,,,,15,,62,72
11040,note_on,,1,0,6,,,,,,,,,,,,,,,,2,,54,72
11040,note_on,,1,0,13,,,,,,,,,,,,,,,,12,,62,72
11040,note_on,,1,0,9,,,,,,,,,,,,,,,,7,,62,72
11040,note_on,,1,0,14,,,,,,,,,,,,,,,,13,,54,72
11040,note_on,,1,0,10,,,,,,,,,,,,,,,,8,,54,72
11040,note_on,,1,0,15,,,,,,,,,,,,,,,,15,,54,72
11040,note_on,,1,0,11,,,,,,,,,,,,,,,,10,,69,72
11099,note_on,,59,0,15,,,,,,,,,,,,,,,,15,,54,0
11099,note_on,,0,0,15,,,,,,,,,,,,,,,,15,,57,0
11099,note_on,,0,0,15,,,,,,,,,,,,,,,,15,,69,0
11099,note_on,,59,0,8,,,,,,,,,,,,,,,,6,,69,0
11099,note_on,,59,0,9,,,,,,,,,,,,,,,,7,,62,0
11099,note_on,,59,0,10,,,,,,,,,,,,,,,,8,,54,0
11099,note_on,,59,0,11,,,,,,,,,,,,,,,,10,,69,0
11099,note_on,,59,0,6,,,,,,,,,,,,,,,,2,,54,0
11099,note_on,,59,0,14,,,,,,,,,,,,,,,,13,,54,0
11099,note_on,,0,0,15,,,,,,,,,,,,,,,,15,,62,0
11100,note_on,,0,0,15,,,,,,,,,,,,,,,,15,,57,72
11100,note_on,,1,0,11,,,,,,,,,,,,,,,,10,,66,72
11100,note_on,,1,0,6,,,,,,,,,,,,,,,,2,,50,72
11100,note_on,,1,0,15,,,,,,,,,,,,,,,,15,,50,72
11100,note_on,,0,0,15,,,,,,,,,,,,,,,,15,,74,72
11100,note_on,,1,0,10,,,,,,,,,,,,,,,,8,,50,72
11100,note_on,,1,0,14,,,,,,,,,,,,,,,,13,,50,72
11100,note_on,,0,0,15,,,,,,,,,,,,,,,,15,,66,72
11100,note_on,,1,0,8,,,,,,,,,,,,,,,,6,,66,72
11100,note_on,,1,0,9,,,,,,,,,,,,,,,,7,,62,72
11159,note_on,,0,0,15,,,,,,,,,,,,,,,,15,,66,0
11159,note_on,,59,0,14,,,,,,,,,,,,,,,,13,,50,0
11159,note_on,,0,0,15,,,,,,,,,,,,,,,,15,,57,0
11159,note_on,,0,0,15,,,,,,,,,,,,,,,,15,,74,0
11159,note_on,,59,0,6,,,,,,,,,,,,,,,,2,,50,0
11159,note_on,,59,0,11,,,,,,,,,,,,,,,,10,,66,0
11159,note_on,,59,0,8,,,,,,,,,,,,,,,,6,,66,0
11159,note_on,,119,0,13,,,,,,,,,,,,,,,,12,,62,0
11159,note_on,,59,0,9,,,,,,,,,,,,,,,,7,,62,0
11159,note_on,,59,0,15,,,,,,,,,,,,,,,,15,,50,0
11159,note_on,,59,0,10,,,,,,,,,,,,,,,,8,,50,0
11160,note_on,,1,0,13,,,,,,,,,,,,,,,,12,,62,72
11160,note_on,,1,0,9,,,,,,,,,,,,,,,,7,,59,72
11160,note_on,,0,0,15,,,,,,,,,,,,,,,,15,,62,72
11160,note_on,,241,0,12,,,,,,,,,,,,,,,,11,,79,72
11160,note_on,,1,0,6,,,,,,,,,,,,,,,,2,,55,72
11160,note_on,,1,0,14,,,,,,,,,,,,,,,,13,,55,72
11160,note_on,,1,0,15,,,,,,,,,,,,,,,,15,,55,72
11160,note_on,,241,0,5,,,,,,,,,,,,,,,,1,,79,72
11160,note_on,,241,0,7,,,,,,,,,,,,,,,,5,,79,72
11160,note_on,,0,0,15,,,,,,,,,,,,,,,,15,,71,72
11160,note_on,,1,0,8,,,,,,,,,,,,,,,,6,,62,72
11160,note_on,,0,0,15,,,,,,,,,,,,,,,,15,,67,72
11160,note_on,,1,0,10,,,,,,,,,,,,,,,,8,,55,72
11160,note_on,,1,0,11,,,,,,,,,,,,,,,,10,,71,72
11219,note_on,,59,0,12,,,,,,,,,,,,,,,,11,,79,0
11219,note_on,,59,0,5,,,,,,,,,,,,,,,,1,,79,0
11219,note_on,,59,0,7,,,,,,,,,,,,,,,,5,,79,0
11220,note_on,,1,0,12,,,,,,,,,,,,,,,,11,,74,72
11220,note_on,,1,0,5,,,,,,,,,,,,,,,,1,,74,72
11220,note_on,,1,0,7,,,,,,,,,,,,,,,,5,,74,72
11279,note_on,,119,0,11,,,,,,,,,,,,,,,,10,,71,0
11279,note_on,,0,0,15,,,,,,,,,,,,,,,,15,,62,0
11279,note_on,,0,0,15,,,,,,,,,,,,,,,,15,,67,0
11279,note_on,,59,0,12,,,,,,,,,,,,,,,,11,,74,0
11279,note_on,,119,0,15,,,,,,,,,,,,,,,,15,,55,0
11279,note_on,,119,0,13,,,,,,,,,,,,,,,,12,,62,0
11279,note_on,,119,0,6,,,,,,,,,,,,,,,,2,,55,0
11279,note_on,,119,0,14,,,,,,,,,,,,,,,,13,,55,0
11279,note_on,,59,0,7,,,,,,,,,,,,,,,,5,,74,0
11279,note_on,,0,0,15,,,,,,,,,,,,,,,,15,,71,0
11279,note_on,,59,0,5,,,,,,,,,,,,,,,,1,,74,0
11279,note_on,,119,0,8,,,,,,,,,,,,,,,,6,,62,0
11279,note_on,,119,0,9,,,,,,,,,,,,,,,,7,,59,0
11279,note_on,,119,0,10,,,,,,,,,,,,,,,,8,,55,0
11280,note_on,,0,0,15,,,,,,,,,,,,,,,,15,,59,72
11280,note_on,,1,0,13,,,,,,,,,,,,,,,,12,,67,72
11280,note_on,,1,0,15,,,,,,,,,,,,,,,,15,,43,72
11280,note_on,,1,0,12,,,,,,,,,,,,,,,,11,,76,72
11280,note_on,,1,0,6,,,,,,,,,,,,,,,,2,,43,72
11280,note_on,,1,0,10,,,,,,,,,,,,,,,,8,,55,72
11280,note_on,,1,0,8,,,,,,,,,,,,,,,,6,,67,72
11280,note_on,,1,0,14,,,,,,,,,,,,,,,,13,,43,72
11280,note_on,,0,0,15,,,,,,,,,,,,,,,,15,,67,72
11280,note_on,,0,0,15,,,,,,,,,,,,,,,,15,,62,72
11280,note_on,,1,0,7,,,,,,,,,,,,,,,,5,,76,72
11280,note_on,,1,0,5,,,,,,,,,,,,,,,,1,,76,72
11339,note_on,,59,0,15,,,,,,,,,,,,,,,,15,,43,0
11339,note_on,,59,0,13,,,,,,,,,,,,,,,,12,,67,0
11339,note_on,,59,0,6,,,,,,,,,,,,,,,,2,,43,0
11339,note_on,,59,0,14,,,,,,,,,,,,,,,,13,,43,0
11339,note_on,,59,0,7,,,,,,,,,,,,,,,,5,,76,0
11339,note_on,,59,0,8,,,,,,,,,,,,,,,,6,,67,0
11339,note_on,,0,0,15,,,,,,,,,,,,,,,,15,,67,0
11339,note_on,,0,0,15,,,,,,,,,,,,,,,,15,,62,0
11339,note_on,,0,0,15,,,,,,,,,,,,,,,,15,,59,0
11339,note_on,,59,0,12,,,,,,,,,,,,,,,,11,,76,0
11339,note_on,,59,0,5,,,,,,,,,,,,,,,,1,,76,0
11340,note_on,,1,0,14,,,,,,,,,,,,,,,,13,,62,72
11340,note_on,,1,0,6,,,,,,,,,,,,,,,,2,,62,72
11340,note_on,,1,0,12,,,,,,,,,,,,,,,,11,,71,72
11340,note_on,,1,0,7,,,,,,,,,,,,,,,,5,,71,72
11340,note_on,,1,0,15,,,,,,,,,,,,,,,,15,,62,72
11340,note_on,,1,0,13,,,,,,,,,,,,,,,,12,,62,72
11340,note_on,,1,0,5,,,,,,,,,,,,,,,,1,,71,72
11340,note_on,,1,0,8,,,,,,,,,,,,,,,,6,,62,72
11340,note_on,,0,0,15,,,,,,,,,,,,,,,,15,,71,72
11399,note_on,,59,0,12,,,,,,,,,,,,,,,,11,,71,0
11399,note_on,,59,0,14,,,,,,,,,,,,,,,,13,,62,0
11399,note_on,,59,0,13,,,,,,,,,,,,,,,,12,,62,0
11399,note_on,,59,0,5,,,,,,,,,,,,,,,,1,,71,0
11399,note_on,,59,0,8,,,,,,,,,,,,,,,,6,,62,0
11399,note_on,,59,0,15,,,,,,,,,,,,,,,,15,,62,0
11399,note_on,,0,0,15,,,,,,,,,,,,,,,,15,,71,0
11399,note_on,,119,0,10,,,,,,,,,,,,,,,,8,,55,0
11399,note_on,,59,0,6,,,,,,,,,,,,,,,,2,,62,0
11399,note_on,,59,0,7,,,,,,,,,,,,,,,,5,,71,0
11400,note_on,,1,0,8,,,,,,,,,,,,,,,,6,,64,72
11400,note_on,,1,0,15,,,,,,,,,,,,,,,,15,,64,72
11400,note_on,,0,0,15,,,,,,,,,,,,,,,,15,,72,72
11400,note_on,,1,0,6,,,,,,,,,,,,,,,,2,,64,72
11400,note_on,,1,0,12,,,,,,,,,,,,,,,,11,,72,72
11400,note_on,,1,0,14,,,,,,,,,,,,,,,,13,,64,72
11400,note_on,,1,0,7,,,,,,,,,,,,,,,,5,,72,72
11400,note_on,,1,0,5,,,,,,,,,,,,,,,,1,,72,72
11400,note_on,,1,0,13,,,,,,,,,,,,,,,,12,,64,72
11459,note_on,,59,0,6,,,,,,,,,,,,,,,,2,,64,0
11459,note_on,,59,0,14,,,,,,,,,,,,,,,,13,,64,0
11459,note_on,,59,0,13,,,,,,,,,,,,,,,,12,,64,0
11459,note_on,,59,0,5,,,,,,,,,,,,,,,,1,,72,0
11459,note_on,,59,0,8,,,,,,,,,,,,,,,,6,,64,0
11459,note_on,,59,0,7,,,,,,,,,,,,,,,,5,,72,0
11459,note_on,,59,0,12,,,,,,,,,,,,,,,,11,,72,0
11459,note_on,,0,0,15,,,,,,,,,,,,,,,,15,,72,0
11459,note_on,,59,0,15,,,,,,,,,,,,,,,,15,,64,0
11460,note_on,,1,0,13,,,,,,,,,,,,,,,,12,,66,72
11460,note_on,,1,0,7,,,,,,,,,,,,,,,,5,,69,72
11460,note_on,,1,0,6,,,,,,,,,,,,,,,,2,,66,72
11460,note_on,,1,0,8,,,,,,,,,,,,,,,,6,,66,72
11460,note_on,,1,0,12,,,,,,,,,,,,,,,,11,,69,72
11460,note_on,,1,0,14,,,,,,,,,,,,,,,,13,,66,72
11460,note_on,,1,0,15,,,,,,,,,,,,,,,,15,,66,72
11460,note_on,,0,0,15,,,,,,,,,,,,,,,,15,,69,72
11460,note_on,,1,0,5,,,,,,,,,,,,,,,,1,,69,72
11519,note_on,,59,0,5,,,,,,,,,,,,,,,,1,,69,0
11519,note_on,,59,0,8,,,,,,,,,,,,,,,,6,,66,0
11519,note_on,,59,0,14,,,,,,,,,,,,,,,,13,,66,0
11519,note_on,,0,0,15,,,,,,,,,,,,,,,,15,,69,0
11519,note_on,,59,0,7,,,,,,,,,,,,,,,,5,,69,0
11519,note_on,,59,0,13,,,,,,,,,,,,,,,,12,,66,0
11519,note_on,,59,0,12,,,,,,,,,,,,,,,,11,,69,0
11519,note_on,,59,0,15,,,,,,,,,,,,,,,,15,,66,0
11519,note_on,,59,0,6,,,,,,,,,,,,,,,,2,,66,0
11520,note_on,,1,0,15,,,,,,,,,,,,,,,,15,,55,72
11520,note_on,,241,0,9,,,,,,,,,,,,,,,,7,,62,72
11520,note_on,,0,0,15,,,,,,,,,,,,,,,,15,,71,72
11520,note_on,,0,0,15,,,,,,,,,,,,,,,,15,,67,72
11520,note_on,,0,0,15,,,,,,,,,,,,,,,,15,,62,72
11520,note_on,,121,0,10,,,,,,,,,,,,,,,,8,,55,72
11520,note_on,,1,0,12,,,,,,,,,,,,,,,,11,,71,72
11520,note_on,,1,0,7,,,,,,,,,,,,,,,,5,,71,72
11520,note_on,,1,0,8,,,,,,,,,,,,,,,,6,,67,72
11520,note_on,,1,0,5,,,,,,,,,,,,,,,,1,,71,72
11520,note_on,,1,0,6,,,,,,,,,,,,,,,,2,,55,72
11520,note_on,,1,0,14,,,,,,,,,,,,,,,,13,,55,72
11520,note_on,,1,0,13,,,,,,,,,,,,,,,,12,,67,72
11579,note_on,,59,0,5,,,,,,,,,,,,,,,,1,,71,0
11579,note_on,,0,0,15,,,,,,,,,,,,,,,,15,,62,0
11579,note_on,,0,0,15,,,,,,,,,,,,,,,,15,,67,0
11579,note_on,,59,0,8,,,,,,,,,,,,,,,,6,,67,0
11579,note_on,,59,0,10,,,,,,,,,,,,,,,,8,,55,0
11579,note_on,,0,0,15,,,,,,,,,,,,,,,,15,,71,0
11579,note_on,,59,0,15,,,,,,,,,,,,,,,,15,,55,0
11579,note_on,,59,0,12,,,,,,,,,,,,,,,,11,,71,0
11579,note_on,,59,0,14,,,,,,,,,,,,,,,,13,,55,0
11579,note_on,,59,0,7,,,,,,,,,,,,,,,,5,,71,0
11579,note_on,,59,0,6,,,,,,,,,,,,,,,,2,,55,0
11579,note_on,,59,0,9,,,,,,,,,,,,,,,,7,,62,0
11580,note_on,,1,0,15,,,,,,,,,,,,,,,,15,,50,72
11580,note_on,,1,0,6,,,,,,,,,,,,,,,,2,,50,72
11580,note_on,,1,0,9,,,,,,,,,,,,,,,,7,,60,72
11580,note_on,,1,0,10,,,,,,,,,,,,,,,,8,,50,72
11580,note_on,,1,0,7,,,,,,,,,,,,,,,,5,,69,72
11580,note_on,,1,0,12,,,,,,,,,,,,,,,,11,,66,72
11580,note_on,,0,0,15,,,,,,,,,,,,,,,,15,,62,72
11580,note_on,,0,0,15,,,,,,,,,,,,,,,,15,,66,72
11580,note_on,,0,0,15,,,,,,,,,,,,,,,,15,,57,72
11580,note_on,,1,0,14,,,,,,,,,,,,,,,,13,,50,72
11580,note_on,,1,0,8,,,,,,,,,,,,,,,,6,,66,72
11580,note_on,,1,0,5,,,,,,,,,,,,,,,,1,,69,72
11639,note_on,,59,0,5,,,,,,,,,,,,,,,,1,,69,0
11639,note_on,,59,0,10,,,,,,,,,,,,,,,,8,,50,0
11639,note_on,,59,0,14,,,,,,,,,,,,,,,,13,,50,0
11639,note_on,,119,0,13,,,,,,,,,,,,,,,,12,,67,0
11639,note_on,,59,0,12,,,,,,,,,,,,,,,,11,,66,0
11639,note_on,,59,0,6,,,,,,,,,,,,,,,,2,,50,0
11639,note_on,,59,0,7,,,,,,,,,,,,,,,,5,,69,0
11639,note_on,,59,0,8,,,,,,,,,,,,,,,,6,,66,0
11639,note_on,,59,0,9,,,,,,,,,,,,,,,,7,,60,0
11639,note_on,,59,0,15,,,,,,,,,,,,,,,,15,,50,0
11639,note_on,,0,0,15,,,,,,,,,,,,,,,,15,,62,0
11639,note_on,,0,0,15,,,,,,,,,,,,,,,,15,,66,0
11639,note_on,,0,0,15,,,,,,,,,,,,,,,,15,,57,0
11640,note_on,,1,0,5,,,,,,,,,,,,,,,,1,,67,72
11640,note_on,,1,0,8,,,,,,,,,,,,,,,,6,,67,72
11640,note_on,,1,0,12,,,,,,,,,,,,,,,,11,,67,72
11640,note_on,,1,0,6,,,,,,,,,,,,,,,,2,,52,72
11640,note_on,,0,0,15,,,,,,,,,,,,,,,,15,,59,72
11640,note_on,,0,0,15,,,,,,,,,,,,,,,,15,,55,72
11640,note_on,,1,0,14,,,,,,,,,,,,,,,,13,,52,72
11640,note_on,,1,0,15,,,,,,,,,,,,,,,,15,,52,72
11640,note_on,,1,0,7,,,,,,,,,,,,,,,,5,,67,72
11640,note_on,,1,0,10,,,,,,,,,,,,,,,,8,,52,72
11640,note_on,,1,0,9,,,,,,,,,,,,,,,,7,,59,72
11640,note_on,,0,0,15,,,,,,,,,,,,,,,,15,,67,72
11699,note_on,,59,0,8,,,,,,,,,,,,,,,,6,,67,0
11699,note_on,,59,0,6,,,,,,,,,,,,,,,,2,,52,0
11699,note_on,,59,0,7,,,,,,,,,,,,,,,,5,,67,0
11699,note_on,,59,0,5,,,,,,,,,,,,,,,,1,,67,0
11699,note_on,,59,0,10,,,,,,,,,,,,,,,,8,,52,0
11699,note_on,,59,0,14,,,,,,,,,,,,,,,,13,,52,0
11699,note_on,,59,0,9,,,,,,,,,,,,,,,,7,,59,0
11699,note_on,,0,0,15,,,,,,,,,,,,,,,,15,,67,0
11699,note_on,,59,0,15,,,,,,,,,,,,,,,,15,,52,0
11699,note_on,,0,0,15,,,,,,,,,,,,,,,,15,,55,0
11699,note_on,,59,0,12,,,,,,,,,,,,,,,,11,,67,0
11699,note_on,,0,0,15,,,,,,,,,,,,,,,,15,,59,0
11700,note_on,,1,0,15,,,,,,,,,,,,,,,,15,,47,72
11700,note_on,,1,0,9,,,,,,,,,,,,,,,,7,,55,72
11700,note_on,,1,0,10,,,,,,,,,,,,,,,,8,,47,72
11700,note_on,,61,0,13,,,,,,,,,,,,,,,,12,,67,72
11700,note_on,,1,0,6,,,,,,,,,,,,,,,,2,,47,72
11700,note_on,,1,0,12,,,,,,,,,,,,,,,,11,,62,72
11700,note_on,,1,0,5,,,,,,,,,,,,,,,,1,,67,72
11700,note_on,,1,0,7,,,,,,,,,,,,,,,,5,,67,72
11700,note_on,,0,0,15,,,,,,,,,,,,,,,,15,,62,72
11700,note_on,,0,0,15,,,,,,,,,,,,,,,,15,,55,72
11700,note_on,,0,0,15,,,,,,,,,,,,,,,,15,,59,72
11700,note_on,,1,0,8,,,,,,,,,,,,,,,,6,,62,72
11700,note_on,,1,0,14,,,,,,,,,,,,,,,,13,,47,72
11759,note_on,,59,0,10,,,,,,,,,,,,,,,,8,,47,0
11759,note_on,,59,0,9,,,,,,,,,,,,,,,,7,,55,0
11759,note_on,,59,0,15,,,,,,,,,,,,,,,,15,,47,0
11759,note_on,,59,0,13,,,,,,,,,,,,,,,,12,,67,0
11759,note_on,,59,0,12,,,,,,,,,,,,,,,,11,,62,0
11759,note_on,,0,0,15,,,,,,,,,,,,,,,,15,,62,0
11759,note_on,,59,0,5,,,,,,,,,,,,,,,,1,,67,0
11759,note_on,,59,0,6,,,,,,,,,,,,,,,,2,,47,0
11759,note_on,,59,0,7,,,,,,,,,,,,,,,,5,,67,0
11759,note_on,,59,0,8,,,,,,,,,,,,,,,,6,,62,0
11759,note_on,,59,0,14,,,,,,,,,,,,,,,,13,,47,0
11759,note_on,,0,0,15,,,,,,,,,,,,,,,,15,,59,0
11759,note_on,,0,0,15,,,,,,,,,,,,,,,,15,,55,0
11760,note_on,,1,0,8,,,,,,,,,,,,,,,,6,,64,72
11760,note_on,,0,0,15,,,,,,,,,,,,,,,,15,,55,72
11760,note_on,,1,0,10,,,,,,,,,,,,,,,,8,,48,72
11760,note_on,,1,0,14,,,,,,,,,,,,,,,,13,,48,72
11760,note_on,,1,0,6,,,,,,,,,,,,,,,,2,,48,72
11760,note_on,,1,0,7,,,,,,,,,,,,,,,,5,,67,72
11760,note_on,,0,0,15,,,,,,,,,,,,,,,,15,,52,72
11760,note_on,,1,0,15,,,,,,,,,,,,,,,,15,,48,72
11760,note_on,,1,0,12,,,,,,,,,,,,,,,,11,,64,72
11760,note_on,,1,0,5,,,,,,,,,,,,,,,,1,,67,72
11760,note_on,,1,0,9,,,,,,,,,,,,,,,,7,,64,72
11760,note_on,,1,0,13,,,,,,,,,,,,,,,,12,,67,72
11760,note_on,,0,0,15,,,,,,,,,,,,,,,,15,,64,72
11819,note_on,,59,0,6,,,,,,,,,,,,,,,,2,,48,0
11819,note_on,,59,0,5,,,,,,,,,,,,,,,,1,,67,0
11819,note_on,,59,0,7,,,,,,,,,,,,,,,,5,,67,0
11819,note_on,,59,0,13,,,,,,,,,,,,,,,,12,,67,0
11819,note_on,,0,0,15,,,,,,,,,,,,,,,,15,,55,0
11819,note_on,,0,0,15,,,,,,,,,,,,,,,,15,,64,0
11819,note_on,,0,0,15,,,,,,,,,,,,,,,,15,,52,0
11819,note_on,,59,0,15,,,,,,,,,,,,,,,,15,,48,0
11819,note_on,,59,0,14,,,,,,,,,,,,,,,,13,,48,0
11819,note_on,,59,0,12,,,,,,,,,,,,,,,,11,,64,0
11819,note_on,,59,0,9,,,,,,,,,,,,,,,,7,,64,0
11819,note_on,,59,0,8,,,,,,,,,,,,,,,,6,,64,0
11819,note_on,,59,0,10,,,,,,,,,,,,,,,,8,,48,0
11820,note_on,,1,0,7,,,,,,,,,,,,,,,,5,,69,72
11820,note_on,,1,0,5,,,,,,,,,,,,,,,,1,,69,72
11820,note_on,,1,0,9,,,,,,,,,,,,,,,,7,,60,72
11820,note_on,,1,0,13,,,,,,,,,,,,,,,,12,,69,72
11820,note_on,,1,0,12,,,,,,,,,,,,,,,,11,,60,72
11820,note_on,,1,0,6,,,,,,,,,,,,,,,,2,,45,72
11820,note_on,,1,0,8,,,,,,,,,,,,,,,,6,,66,72
11820,note_on,,0,0,15,,,,,,,,,,,,,,,,15,,57,72
11820,note_on,,0,0,15,,,,,,,,,,,,,,,,15,,66,72
11820,note_on,,1,0,14,,,,,,,,,,,,,,,,13,,45,72
11820,note_on,,0,0,15,,,,,,,,,,,,,,,,15,,48,72
11820,note_on,,1,0,10,,,,,,,,,,,,,,,,8,,45,72
11820,note_on,,1,0,15,,,,,,,,,,,,,,,,15,,45,72
11849,note_on,,29,0,13,,,,,,,,,,,,,,,,12,,69,0
11850,note_on,,1,0,13,,,,,,,,,,,,,,,,12,,66,72
11879,note_on,,59,0,14,,,,,,,,,,,,,,,,13,,45,0
11879,note_on,,59,0,10,,,,,,,,,,,,,,,,8,,45,0
11879,note_on,,59,0,7,,,,,,,,,,,,,,,,5,,69,0
11879,note_on,,59,0,15,,,,,,,,,,,,,,,,15,,45,0
11879,note_on,,59,0,6,,,,,,,,,,,,,,,,2,,45,0
11879,note_on,,59,0,9,,,,,,,,,,,,,,,,7,,60,0
11879,note_on,,29,0,13,,,,,,,,,,,,,,,,12,,66,0
11879,note_on,,0,0,15,,,,,,,,,,,,,,,,15,,48,0
11879,note_on,,0,0,15,,,,,,,,,,,,,,,,15,,57,0
11879,note_on,,59,0,12,,,,,,,,,,,,,,,,11,,60,0
11879,note_on,,59,0,8,,,,,,,,,,,,,,,,6,,66,0
11879,note_on,,59,0,5,,,,,,,,,,,,,,,,1,,69,0
11879,note_on,,0,0,15,,,,,,,,,,,,,,,,15,,66,0
11880,note_on,,1,0,13,,,,,,,,,,,,,,,,12,,71,72
11880,note_on,,1,0,12,,,,,,,,,,,,,,,,11,,62,72
11880,note_on,,1,0,5,,,,,,,,,,,,,,,,1,,71,72
11880,note_on,,0,0,15,,,,,,,,,,,,,,,,15,,50,72
11880,note_on,,0,0,15,,,,,,,,,,,,,,,,15,,59,72
11880,note_on,,0,0,15,,,,,,,,,,,,,,,,15,,67,72
11880,note_on,,1,0,15,,,,,,,,,,,,,,,,15,,43,72
11880,note_on,,1,0,6,,,,,,,,,,,,,,,,2,,43,72
11880,note_on,,1,0,14,,,,,,,,,,,,,,,,13,,43,72
11880,note_on,,601,0,11,,,,,,,,,,,,,,,,10,,86,72
11880,note_on,,1,0,9,,,,,,,,,,,,,,,,7,,62,72
11880,note_on,,1,0,8,,,,,,,,,,,,,,,,6,,67,72
11880,note_on,,1,0,10,,,,,,,,,,,,,,,,8,,43,72
11880,note_on,,1,0,7,,,,,,,,,,,,,,,,5,,71,72
11939,note_on,,59,0,11,,,,,,,,,,,,,,,,10,,86,0
11940,note_on,,1,0,11,,,,,,,,,,,,,,,,10,,81,72
11999,note_on,,119,0,8,,,,,,,,,,,,,,,,6,,67,0
11999,note_on,,119,0,13,,,,,,,,,,,,,,,,12,,71,0
11999,note_on,,119,0,12,,,,,,,,,,,,,,,,11,,62,0
11999,note_on,,119,0,6,,,,,,,,,,,,,,,,2,,43,0
11999,note_on,,119,0,5,,,,,,,,,,,,,,,,1,,71,0
11999,note_on,,119,0,9,,,,,,,,,,,,,,,,7,,62,0
11999,note_on,,0,0,15,,,,,,,,,,,,,,,,15,,50,0
11999,note_on,,0,0,15,,,,,,,,,,,,,,,,15,,67,0
11999,note_on,,119,0,15,,,,,,,,,,,,,,,,15,,43,0
11999,note_on,,119,0,10,,,,,,,,,,,,,,,,8,,43,0
11999,note_on,,119,0,7,,,,,,,,,,,,,,,,5,,71,0
11999,note_on,,119,0,14,,,,,,,,,,,,,,,,13,,43,0
11999,note_on,,0,0,15,,,,,,,,,,,,,,,,15,,59,0
11999,note_on,,59,0,11,,,,,,,,,,,,,,,,10,,81,0
12000,note_on,,1,0,10,,,,,,,,,,,,,,,,8,,43,72
12000,note_on,,1,0,12,,,,,,,,,,,,,,,,11,,86,72
12000,note_on,,1,0,11,,,,,,,,,,,,,,,,10,,83,72
12000,note_on,,1,0,5,,,,,,,,,,,,,,,,1,,71,72
12000,note_on,,1,0,14,,,,,,,,,,,,,,,,13,,43,72
12000,note_on,,0,0,15,,,,,,,,,,,,,,,,15,,59,72
12000,note_on,,1,0,7,,,,,,,,,,,,,,,,5,,71,72
12000,note_on,,1,0,13,,,,,,,,,,,,,,,,12,,67,72
12000,note_on,,0,0,15,,,,,,,,,,,,,,,,15,,55,72
12000,note_on,,1,0,6,,,,,,,,,,,,,,,,2,,43,72
12000,note_on,,0,0,15,,,,,,,,,,,,,,,,15,,62,72
12000,note_on,,0,0,15,,,,,,,,,,,,,,,,15,,50,72
12000,note_on,,1,0,15,,,,,,,,,,,,,,,,15,,43,72
12000,note_on,,1,0,8,,,,,,,,,,,,,,,,6,,67,72
12000,note_on,,1,0,9,,,,,,,,,,,,,,,,7,,62,72
12059,note_on,,59,0,11,,,,,,,,,,,,,,,,10,,83,0
12059,note_on,,59,0,12,,,,,,,,,,,,,,,,11,,86,0
12060,note_on,,1,0,12,,,,,,,,,,,,,,,,11,,81,72
12060,note_on,,1,0,11,,,,,,,,,,,,,,,,10,,78,72
12119,note_on,,59,0,11,,,,,,,,,,,,,,,,10,,78,0
12119,note_on,,59,0,12,,,,,,,,,,,,,,,,11,,81,0
12119,note_on,,0,0,15,,,,,,,,,,,,,,,,15,,50,0
12119,note_on,,0,0,15,,,,,,,,,,,,,,,,15,,62,0
12119,note_on,,0,0,15,,,,,,,,,,,,,,,,15,,59,0
12119,note_on,,0,0,15,,,,,,,,,,,,,,,,15,,55,0
12119,note_on,,119,0,7,,,,,,,,,,,,,,,,5,,71,0
12119,note_on,,119,0,15,,,,,,,,,,,,,,,,15,,43,0
12119,note_on,,119,0,6,,,,,,,,,,,,,,,,2,,43,0
12119,note_on,,119,0,5,,,,,,,,,,,,,,,,1,,71,0
12119,note_on,,119,0,8,,,,,,,,,,,,,,,,6,,67,0
12119,note_on,,119,0,14,,,,,,,,,,,,,,,,13,,43,0
12119,note_on,,119,0,10,,,,,,,,,,,,,,,,8,,43,0
12119,note_on,,119,0,13,,,,,,,,,,,,,,,,12,,67,0
12119,note_on,,119,0,9,,,,,,,,,,,,,,,,7,,62,0
12120,note_on,,1,0,11,,,,,,,,,,,,,,,,10,,79,72
12120,note_on,,1,0,12,,,,,,,,,,,,,,,,11,,83,72
12179,note_on,,59,0,12,,,,,,,,,,,,,,,,11,,83,0
12179,note_on,,59,0,11,,,,,,,,,,,,,,,,10,,79,0
12180,note_on,,1,0,12,,,,,,,,,,,,,,,,11,,78,72
12180,note_on,,1,0,11,,,,,,,,,,,,,,,,10,,74,72
12239,note_on,,59,0,12,,,,,,,,,,,,,,,,11,,78,0
12239,note_on,,59,0,11,,,,,,,,,,,,,,,,10,,74,0
12240,note_on,,121,0,6,,,,,,,,,,,,,,,,2,,67,72
12240,note_on,,121,0,9,,,,,,,,,,,,,,,,7,,67,72
12240,note_on,,1,0,11,,,,,,,,,,,,,,,,10,,71,72
12240,note_on,,121,0,13,,,,,,,,,,,,,,,,12,,67,72
12240,note_on,,121,0,14,,,,,,,,,,,,,,,,13,,67,72
12240,note_on,,121,0,15,,,,,,,,,,,,,,,,15,,67,72
12240,note_on,,1,0,12,,,,,,,,,,,,,,,,11,,79,72
12359,note_on,,119,0,9,,,,,,,,,,,,,,,,7,,67,0
12359,note_on,,119,0,13,,,,,,,,,,,,,,,,12,,67,0
12359,note_on,,119,0,14,,,,,,,,,,,,,,,,13,,67,0
12359,note_on,,119,0,11,,,,,,,,,,,,,,,,10,,71,0
12359,note_on,,119,0,15,,,,,,,,,,,,,,,,15,,67,0
12359,note_on,,119,0,6,,,,,,,,,,,,,,,,2,,67,0
12359,note_on,,119,0,12,,,,,,,,,,,,,,,,11,,79,0
12360,note_on,,1,0,15,,,,,,,,,,,,,,,,15,,64,72
12360,note_on,,0,0,15,,,,,,,,,,,,,,,,15,,79,72
12360,note_on,,1,0,9,,,,,,,,,,,,,,,,7,,64,72
12360,note_on,,241,0,7,,,,,,,,,,,,,,,,5,,79,72
12360,note_on,,1,0,14,,,,,,,,,,,,,,,,13,,64,72
12360,note_on,,241,0,5,,,,,,,,,,,,,,,,1,,79,72
12360,note_on,,1,0,6,,,,,,,,,,,,,,,,2,,64,72
12360,note_on,,1,0,13,,,,,,,,,,,,,,,,12,,64,72
12360,note_on,,1,0,11,,,,,,,,,,,,,,,,10,,79,72
12449,note_on,,89,0,11,,,,,,,,,,,,,,,,10,,79,0
12479,note_on,,119,0,13,,,,,,,,,,,,,,,,12,,64,0
12479,note_on,,119,0,6,,,,,,,,,,,,,,,,2,,64,0
12479,note_on,,119,0,14,,,,,,,,,,,,,,,,13,,64,0
12479,note_on,,0,0,15,,,,,,,,,,,,,,,,15,,79,0
12479,note_on,,119,0,9,,,,,,,,,,,,,,,,7,,64,0
12479,note_on,,119,0,5,,,,,,,,,,,,,,,,1,,79,0
12479,note_on,,119,0,15,,,,,,,,,,,,,,,,15,,64,0
12479,note_on,,119,0,7,,,,,,,,,,,,,,,,5,,79,0
12480,note_on,,0,0,15,,,,,,,,,,,,,,,,15,,76,72
12480,note_on,,1,0,15,,,,,,,,,,,,,,,,15,,60,72
12480,note_on,,1,0,14,,,,,,,,,,,,,,,,13,,60,72
12480,note_on,,1,0,9,,,,,,,,,,,,,,,,7,,60,72
12480,note_on,,1,0,7,,,,,,,,,,,,,,,,5,,76,72
12480,note_on,,1,0,5,,,,,,,,,,,,,,,,1,,76,72
12480,note_on,,1,0,6,,,,,,,,,,,,,,,,2,,60,72
12480,note_on,,1,0,13,,,,,,,,,,,,,,,,12,,60,72
12480,note_on,,31,0,11,,,,,,,,,,,,,,,,10,,76,72
12569,note_on,,89,0,11,,,,,,,,,,,,,,,,10,,76,0
12599,note_on,,119,0,14,,,,,,,,,,,,,,,,13,,60,0
12599,note_on,,119,0,6,,,,,,,,,,,,,,,,2,,60,0
12599,note_on,,119,0,9,,,,,,,,,,,,,,,,7,,60,0
12599,note_on,,119,0,13,,,,,,,,,,,,,,,,12,,60,0
12599,note_on,,119,0,15,,,,,,,,,,,,,,,,15,,60,0
12599,note_on,,119,0,7,,,,,,,,,,,,,,,,5,,76,0
12599,note_on,,119,0,5,,,,,,,,,,,,,,,,1,,76,0
12599,note_on,,0,0,15,,,,,,,,,,,,,,,,15,,76,0
12600,note_on,,1,0,13,,,,,,,,,,,,,,,,12,,57,72
12600,note_on,,1,0,7,,,,,,,,,,,,,,,,5,,72,72
12600,note_on,,1,0,6,,,,,,,,,,,,,,,,2,,57,72
12600,note_on,,1,0,5,,,,,,,,,,,,,,,,1,,72,72
12600,note_on,,1,0,15,,,,,,,,,,,,,,,,15,,57,72
12600,note_on,,0,0,15,,,,,,,,,,,,,,,,15,,72,72
12600,note_on,,1,0,9,,,,,,,,,,,,,,,,7,,57,72
12600,note_on,,1,0,14,,,,,,,,,,,,,,,,13,,57,72
12600,note_on,,31,0,11,,,,,,,,,,,,,,,,10,,72,72
12659,note_on,,59,0,6,,,,,,,,,,,,,,,,2,,57,0
12659,note_on,,59,0,14,,,,,,,,,,,,,,,,13,,57,0
12659,note_on,,59,0,15,,,,,,,,,,,,,,,,15,,57,0
12659,note_on,,59,0,13,,,,,,,,,,,,,,,,12,,57,0
12659,note_on,,59,0,9,,,,,,,,,,,,,,,,7,,57,0
12660,note_on,,1,0,13,,,,,,,,,,,,,,,,12,,65,72
12660,note_on,,1,0,9,,,,,,,,,,,,,,,,7,,65,72
12660,note_on,,1,0,14,,,,,,,,,,,,,,,,13,,65,72
12660,note_on,,1,0,15,,,,,,,,,,,,,,,,15,,65,72
12660,note_on,,1,0,6,,,,,,,,,,,,,,,,2,,65,72
12689,note_on,,89,0,11,,,,,,,,,,,,,,,,10,,72,0
12719,note_on,,119,0,7,,,,,,,,,,,,,,,,5,,72,0
12719,note_on,,59,0,13,,,,,,,,,,,,,,,,12,,65,0
12719,note_on,,59,0,15,,,,,,,,,,,,,,,,15,,72,0
12719,note_on,,119,0,5,,,,,,,,,,,,,,,,1,,72,0
12720,note_on,,31,0,11,,,,,,,,,,,,,,,,10,,69,72
12720,note_on,,1,0,7,,,,,,,,,,,,,,,,5,,69,72
12720,note_on,,1,0,5,,,,,,,,,,,,,,,,1,,69,72
12720,note_on,,1,0,13,,,,,,,,,,,,,,,,12,,65,72
12720,note_on,,1,0,15,,,,,,,,,,,,,,,,15,,69,72
12749,note_on,,29,0,13,,,,,,,,,,,,,,,,12,,65,0
12749,note_on,,89,0,14,,,,,,,,,,,,,,,,13,,65,0
12749,note_on,,89,0,9,,,,,,,,,,,,,,,,7,,65,0
12749,note_on,,89,0,6,,,,,,,,,,,,,,,,2,,65,0
12749,note_on,,29,0,15,,,,,,,,,,,,,,,,15,,65,0
12750,note_on,,1,0,13,,,,,,,,,,,,,,,,12,,67,72
12750,note_on,,1,0,6,,,,,,,,,,,,,,,,2,,67,72
12750,note_on,,1,0,14,,,,,,,,,,,,,,,,13,,67,72
12750,note_on,,1,0,9,,,,,,,,,,,,,,,,7,,67,72
12750,note_on,,1,0,15,,,,,,,,,,,,,,,,15,,67,72
12779,note_on,,29,0,13,,,,,,,,,,,,,,,,12,,67,0
12779,note_on,,29,0,9,,,,,,,,,,,,,,,,7,,67,0
12779,note_on,,29,0,14,,,,,,,,,,,,,,,,13,,67,0
12779,note_on,,59,0,11,,,,,,,,,,,,,,,,10,,69,0
12779,note_on,,0,0,15,,,,,,,,,,,,,,,,15,,67,0
12779,note_on,,29,0,6,,,,,,,,,,,,,,,,2,,67,0
12779,note_on,,59,0,7,,,,,,,,,,,,,,,,5,,69,0
12779,note_on,,59,0,5,,,,,,,,,,,,,,,,1,,69,0
12779,note_on,,29,0,15,,,,,,,,,,,,,,,,15,,69,0
12780,note_on,,0,0,15,,,,,,,,,,,,,,,,15,,77,72
12780,note_on,,1,0,5,,,,,,,,,,,,,,,,1,,77,72
12780,note_on,,1,0,11,,,,,,,,,,,,,,,,10,,77,72
12780,note_on,,1,0,9,,,,,,,,,,,,,,,,7,,65,72
12780,note_on,,1,0,15,,,,,,,,,,,,,,,,15,,65,72
12780,note_on,,1,0,13,,,,,,,,,,,,,,,,12,,65,72
12780,note_on,,1,0,14,,,,,,,,,,,,,,,,13,,65,72
12780,note_on,,1,0,6,,,,,,,,,,,,,,,,2,,65,72
12780,note_on,,1,0,7,,,,,,,,,,,,,,,,5,,77,72
12809,note_on,,29,0,14,,,,,,,,,,,,,,,,13,,65,0
12809,note_on,,29,0,15,,,,,,,,,,,,,,,,15,,65,0
12809,note_on,,29,0,13,,,,,,,,,,,,,,,,12,,65,0
12809,note_on,,29,0,6,,,,,,,,,,,,,,,,2,,65,0
12809,note_on,,29,0,9,,,,,,,,,,,,,,,,7,,65,0
12810,note_on,,1,0,6,,,,,,,,,,,,,,,,2,,64,72
12810,note_on,,1,0,14,,,,,,,,,,,,,,,,13,,64,72
12810,note_on,,1,0,13,,,,,,,,,,,,,,,,12,,64,72
12810,note_on,,1,0,9,,,,,,,,,,,,,,,,7,,64,72
12810,note_on,,1,0,15,,,,,,,,,,,,,,,,15,,64,72
12839,note_on,,59,0,11,,,,,,,,,,,,,,,,10,,77,0
12839,note_on,,29,0,9,,,,,,,,,,,,,,,,7,,64,0
12839,note_on,,29,0,14,,,,,,,,,,,,,,,,13,,64,0
12839,note_on,,29,0,13,,,,,,,,,,,,,,,,12,,64,0
12839,note_on,,29,0,15,,,,,,,,,,,,,,,,15,,64,0
12839,note_on,,29,0,6,,,,,,,,,,,,,,,,2,,64,0
12840,note_on,,1,0,6,,,,,,,,,,,,,,,,2,,62,72
12840,note_on,,1,0,11,,,,,,,,,,,,,,,,10,,77,72
12840,note_on,,1,0,15,,,,,,,,,,,,,,,,15,,62,72
12840,note_on,,1,0,9,,,,,,,,,,,,,,,,7,,62,72
12840,note_on,,1,0,13,,,,,,,,,,,,,,,,12,,62,72
12840,note_on,,1,0,14,,,,,,,,,,,,,,,,13,,62,72
12869,note_on,,29,0,6,,,,,,,,,,,,,,,,2,,62,0
12869,note_on,,29,0,9,,,,,,,,,,,,,,,,7,,62,0
12869,note_on,,29,0,13,,,,,,,,,,,,,,,,12,,62,0
12869,note_on,,89,0,7,,,,,,,,,,,,,,,,5,,77,0
12869,note_on,,89,0,5,,,,,,,,,,,,,,,,1,,77,0
12869,note_on,,0,0,15,,,,,,,,,,,,,,,,15,,62,0
12869,note_on,,29,0,15,,,,,,,,,,,,,,,,15,,77,0
12869,note_on,,29,0,11,,,,,,,,,,,,,,,,10,,77,0
12869,note_on,,29,0,14,,,,,,,,,,,,,,,,13,,62,0
12870,note_on,,1,0,14,,,,,,,,,,,,,,,,13,,64,72
12870,note_on,,0,0,15,,,,,,,,,,,,,,,,15,,79,72
12870,note_on,,1,0,15,,,,,,,,,,,,,,,,15,,64,72
12870,note_on,,1,0,9,,,,,,,,,,,,,,,,7,,64,72
12870,note_on,,1,0,5,,,,,,,,,,,,,,,,1,,79,72
12870,note_on,,1,0,6,,,,,,,,,,,,,,,,2,,64,72
12870,note_on,,1,0,11,,,,,,,,,,,,,,,,10,,79,72
12870,note_on,,1,0,13,,,,,,,,,,,,,,,,12,,64,72
12870,note_on,,1,0,7,,,,,,,,,,,,,,,,5,,79,72
12899,note_on,,29,0,14,,,,,,,,,,,,,,,,13,,64,0
12899,note_on,,29,0,9,,,,,,,,,,,,,,,,7,,64,0
12899,note_on,,29,0,6,,,,,,,,,,,,,,,,2,,64,0
12899,note_on,,29,0,11,,,,,,,,,,,,,,,,10,,79,0
12899,note_on,,29,0,13,,,,,,,,,,,,,,,,12,,64,0
12899,note_on,,0,0,15,,,,,,,,,,,,,,,,15,,79,0
12899,note_on,,29,0,15,,,,,,,,,,,,,,,,15,,64,0
12899,note_on,,29,0,5,,,,,,,,,,,,,,,,1,,79,0
12899,note_on,,29,0,7,,,,,,,,,,,,,,,,5,,79,0
12900,note_on,,1,0,15,,,,,,,,,,,,,,,,15,,62,72
12900,note_on,,0,0,15,,,,,,,,,,,,,,,,15,,77,72
12900,note_on,,1,0,14,,,,,,,,,,,,,,,,13,,62,72
12900,note_on,,1,0,7,,,,,,,,,,,,,,,,5,,77,72
12900,note_on,,1,0,13,,,,,,,,,,,,,,,,12,,62,72
12900,note_on,,1,0,6,,,,,,,,,,,,,,,,2,,62,72
12900,note_on,,1,0,11,,,,,,,,,,,,,,,,10,,77,72
12900,note_on,,1,0,9,,,,,,,,,,,,,,,,7,,62,72
12900,note_on,,1,0,5,,,,,,,,,,,,,,,,1,,77,72
12929,note_on,,29,0,14,,,,,,,,,,,,,,,,13,,62,0
12929,note_on,,29,0,11,,,,,,,,,,,,,,,,10,,77,0
12929,note_on,,29,0,5,,,,,,,,,,,,,,,,1,,77,0
12929,note_on,,29,0,15,,,,,,,,,,,,,,,,15,,62,0
12929,note_on,,29,0,7,,,,,,,,,,,,,,,,5,,77,0
12929,note_on,,29,0,13,,,,,,,,,,,,,,,,12,,62,0
12929,note_on,,29,0,6,,,,,,,,,,,,,,,,2,,62,0
12929,note_on,,29,0,9,,,,,,,,,,,,,,,,7,,62,0
12929,note_on,,0,0,15,,,,,,,,,,,,,,,,15,,77,0
12930,note_on,,1,0,15,,,,,,,,,,,,,,,,15,,60,72
12930,note_on,,1,0,14,,,,,,,,,,,,,,,,13,,60,72
12930,note_on,,0,0,15,,,,,,,,,,,,,,,,15,,76,72
12930,note_on,,1,0,7,,,,,,,,,,,,,,,,5,,76,72
12930,note_on,,1,0,13,,,,,,,,,,,,,,,,12,,60,72
12930,note_on,,1,0,6,,,,,,,,,,,,,,,,2,,60,72
12930,note_on,,1,0,9,,,,,,,,,,,,,,,,7,,60,72
12930,note_on,,1,0,11,,,,,,,,,,,,,,,,10,,76,72
12930,note_on,,1,0,5,,,,,,,,,,,,,,,,1,,76,72
12959,note_on,,29,0,7,,,,,,,,,,,,,,,,5,,76,0
12959,note_on,,29,0,6,,,,,,,,,,,,,,,,2,,60,0
12959,note_on,,29,0,15,,,,,,,,,,,,,,,,15,,60,0
12959,note_on,,0,0,15,,,,,,,,,,,,,,,,15,,76,0
12959,note_on,,29,0,13,,,,,,,,,,,,,,,,12,,60,0
12959,note_on,,29,0,14,,,,,,,,,,,,,,,,13,,60,0
12959,note_on,,29,0,9,,,,,,,,,,,,,,,,7,,60,0
12959,note_on,,29,0,11,,,,,,,,,,,,,,,,10,,76,0
12959,note_on,,29,0,5,,,,,,,,,,,,,,,,1,,76,0
12960,note_on,,1,0,13,,,,,,,,,,,,,,,,12,,59,72
12960,note_on,,1,0,7,,,,,,,,,,,,,,,,5,,74,72
12960,note_on,,1,0,11,,,,,,,,,,,,,,,,10,,74,72
12960,note_on,,0,0,15,,,,,,,,,,,,,,,,15,,74,72
12960,note_on,,1,0,5,,,,,,,,,,,,,,,,1,,74,72
12960,note_on,,1,0,15,,,,,,,,,,,,,,,,15,,59,72
12960,note_on,,1,0,9,,,,,,,,,,,,,,,,7,,59,72
12960,note_on,,1,0,14,,,,,,,,,,,,,,,,13,,59,72
12960,note_on,,1,0,6,,,,,,,,,,,,,,,,2,,59,72
12989,note_on,,29,0,11,,,,,,,,,,,,,,,,10,,74,0
12989,note_on,,29,0,5,,,,,,,,,,,,,,,,1,,74,0
12989,note_on,,29,0,7,,,,,,,,,,,,,,,,5,,74,0
12989,note_on,,29,0,15,,,,,,,,,,,,,,,,15,,74,0
12990,note_on,,1,0,11,,,,,,,,,,,,,,,,10,,76,72
12990,note_on,,1,0,5,,,,,,,,,,,,,,,,1,,76,72
12990,note_on,,1,0,7,,,,,,,,,,,,,,,,5,,76,72
12990,note_on,,1,0,15,,,,,,,,,,,,,,,,15,,76,72
13019,note_on,,59,0,13,,,,,,,,,,,,,,,,12,,59,0
13019,note_on,,29,0,5,,,,,,,,,,,,,,,,1,,76,0
13019,note_on,,29,0,7,,,,,,,,,,,,,,,,5,,76,0
13019,note_on,,59,0,9,,,,,,,,,,,,,,,,7,,59,0
13019,note_on,,59,0,14,,,,,,,,,,,,,,,,13,,59,0
13019,note_on,,29,0,15,,,,,,,,,,,,,,,,15,,59,0
13019,note_on,,0,0,15,,,,,,,,,,,,,,,,15,,76,0
13019,note_on,,59,0,6,,,,,,,,,,,,,,,,2,,59,0
13019,note_on,,29,0,11,,,,,,,,,,,,,,,,10,,76,0
13020,note_on,,1,0,5,,,,,,,,,,,,,,,,1,,74,72
13020,note_on,,0,0,15,,,,,,,,,,,,,,,,15,,74,72
13020,note_on,,1,0,7,,,,,,,,,,,,,,,,5,,74,72
13020,note_on,,1,0,14,,,,,,,,,,,,,,,,13,,67,72
13020,note_on,,1,0,9,,,,,,,,,,,,,,,,7,,67,72
13020,note_on,,1,0,11,,,,,,,,,,,,,,,,10,,74,72
13020,note_on,,1,0,6,,,,,,,,,,,,,,,,2,,67,72
13020,note_on,,1,0,15,,,,,,,,,,,,,,,,15,,67,72
13020,note_on,,1,0,13,,,,,,,,,,,,,,,,12,,67,72
13049,note_on,,29,0,5,,,,,,,,,,,,,,,,1,,74,0
13049,note_on,,29,0,7,,,,,,,,,,,,,,,,5,,74,0
13049,note_on,,29,0,11,,,,,,,,,,,,,,,,10,,74,0
13049,note_on,,29,0,15,,,,,,,,,,,,,,,,15,,74,0
13050,note_on,,1,0,5,,,,,,,,,,,,,,,,1,,72,72
13050,note_on,,1,0,11,,,,,,,,,,,,,,,,10,,72,72
13050,note_on,,1,0,15,,,,,,,,,,,,,,,,15,,72,72
13050,note_on,,1,0,7,,,,,,,,,,,,,,,,5,,72,72
13079,note_on,,29,0,5,,,,,,,,,,,,,,,,1,,72,0
13079,note_on,,29,0,7,,,,,,,,,,,,,,,,5,,72,0
13079,note_on,,29,0,15,,,,,,,,,,,,,,,,15,,72,0
13079,note_on,,59,0,13,,,,,,,,,,,,,,,,12,,67,0
13079,note_on,,29,0,11,,,,,,,,,,,,,,,,10,,72,0
13080,note_on,,1,0,15,,,,,,,,,,,,,,,,15,,71,72
13080,note_on,,1,0,11,,,,,,,,,,,,,,,,10,,71,72
13080,note_on,,1,0,7,,,,,,,,,,,,,,,,5,,71,72
13080,note_on,,1,0,5,,,,,,,,,,,,,,,,1,,71,72
13080,note_on,,1,0,13,,,,,,,,,,,,,,,,12,,67,72
13109,note_on,,29,0,7,,,,,,,,,,,,,,,,5,,71,0
13109,note_on,,29,0,5,,,,,,,,,,,,,,,,1,,71,0
13109,note_on,,0,0,15,,,,,,,,,,,,,,,,15,,71,0
13109,note_on,,89,0,14,,,,,,,,,,,,,,,,13,,67,0
13109,note_on,,89,0,9,,,,,,,,,,,,,,,,7,,67,0
13109,note_on,,29,0,11,,,,,,,,,,,,,,,,10,,71,0
13109,note_on,,29,0,13,,,,,,,,,,,,,,,,12,,67,0
13109,note_on,,89,0,6,,,,,,,,,,,,,,,,2,,67,0
13109,note_on,,29,0,15,,,,,,,,,,,,,,,,15,,67,0
13110,note_on,,1,0,7,,,,,,,,,,,,,,,,5,,72,72
13110,note_on,,1,0,9,,,,,,,,,,,,,,,,7,,69,72
13110,note_on,,1,0,11,,,,,,,,,,,,,,,,10,,72,72
13110,note_on,,1,0,14,,,,,,,,,,,,,,,,13,,69,72
13110,note_on,,1,0,6,,,,,,,,,,,,,,,,2,,69,72
13110,note_on,,1,0,5,,,,,,,,,,,,,,,,1,,72,72
13110,note_on,,0,0,15,,,,,,,,,,,,,,,,15,,69,72
13110,note_on,,1,0,15,,,,,,,,,,,,,,,,15,,72,72
13110,note_on,,1,0,13,,,,,,,,,,,,,,,,12,,69,72
13139,note_on,,29,0,6,,,,,,,,,,,,,,,,2,,69,0
13139,note_on,,29,0,5,,,,,,,,,,,,,,,,1,,72,0
13139,note_on,,29,0,14,,,,,,,,,,,,,,,,13,,69,0
13139,note_on,,29,0,13,,,,,,,,,,,,,,,,12,,69,0
13139,note_on,,29,0,7,,,,,,,,,,,,,,,,5,,72,0
13139,note_on,,29,0,11,,,,,,,,,,,,,,,,10,,72,0
13139,note_on,,29,0,9,,,,,,,,,,,,,,,,7,,69,0
13139,note_on,,29,0,15,,,,,,,,,,,,,,,,15,,72,0
13139,note_on,,0,0,15,,,,,,,,,,,,,,,,15,,69,0
13140,note_on,,1,0,5,,,,,,,,,,,,,,,,1,,71,72
13140,note_on,,1,0,9,,,,,,,,,,,,,,,,7,,67,72
13140,note_on,,1,0,14,,,,,,,,,,,,,,,,13,,67,72
13140,note_on,,1,0,11,,,,,,,,,,,,,,,,10,,71,72
13140,note_on,,1,0,7,,,,,,,,,,,,,,,,5,,71,72
13140,note_on,,1,0,13,,,,,,,,,,,,,,,,12,,67,72
13140,note_on,,1,0,15,,,,,,,,,,,,,,,,15,,67,72
13140,note_on,,1,0,6,,,,,,,,,,,,,,,,2,,67,72
13140,note_on,,0,0,15,,,,,,,,,,,,,,,,15,,71,72
13169,note_on,,29,0,15,,,,,,,,,,,,,,,,15,,67,0
13169,note_on,,0,0,15,,,,,,,,,,,,,,,,15,,71,0
13169,note_on,,29,0,5,,,,,,,,,,,,,,,,1,,71,0
13169,note_on,,29,0,13,,,,,,,,,,,,,,,,12,,67,0
13169,note_on,,29,0,7,,,,,,,,,,,,,,,,5,,71,0
13169,note_on,,29,0,9,,,,,,,,,,,,,,,,7,,67,0
13169,note_on,,29,0,14,,,,,,,,,,,,,,,,13,,67,0
13169,note_on,,29,0,11,,,,,,,,,,,,,,,,10,,71,0
13169,note_on,,29,0,6,,,,,,,,,,,,,,,,2,,67,0
13170,note_on,,1,0,11,,,,,,,,,,,,,,,,10,,69,72
13170,note_on,,1,0,7,,,,,,,,,,,,,,,,5,,69,72
13170,note_on,,1,0,14,,,,,,,,,,,,,,,,13,,65,72
13170,note_on,,1,0,5,,,,,,,,,,,,,,,,1,,69,72
13170,note_on,,1,0,9,,,,,,,,,,,,,,,,7,,65,72
13170,note_on,,1,0,13,,,,,,,,,,,,,,,,12,,65,72
13170,note_on,,0,0,15,,,,,,,,,,,,,,,,15,,69,72
13170,note_on,,1,0,15,,,,,,,,,,,,,,,,15,,65,72
13170,note_on,,1,0,6,,,,,,,,,,,,,,,,2,,65,72
13199,note_on,,29,0,7,,,,,,,,,,,,,,,,5,,69,0
13199,note_on,,29,0,5,,,,,,,,,,,,,,,,1,,69,0
13199,note_on,,29,0,14,,,,,,,,,,,,,,,,13,,65,0
13199,note_on,,29,0,9,,,,,,,,,,,,,,,,7,,65,0
13199,note_on,,29,0,6,,,,,,,,,,,,,,,,2,,65,0
13199,note_on,,0,0,15,,,,,,,,,,,,,,,,15,,69,0
13199,note_on,,29,0,15,,,,,,,,,,,,,,,,15,,65,0
13199,note_on,,29,0,13,,,,,,,,,,,,,,,,12,,65,0
13199,note_on,,29,0,11,,,,,,,,,,,,,,,,10,,69,0
13200,note_on,,1,0,15,,,,,,,,,,,,,,,,15,,64,72
13200,note_on,,1,0,11,,,,,,,,,,,,,,,,10,,67,72
13200,note_on,,1,0,9,,,,,,,,,,,,,,,,7,,64,72
13200,note_on,,1,0,6,,,,,,,,,,,,,,,,2,,64,72
13200,note_on,,1,0,13,,,,,,,,,,,,,,,,12,,64,72
13200,note_on,,1,0,14,,,,,,,,,,,,,,,,13,,64,72
13200,note_on,,0,0,15,,,,,,,,,,,,,,,,15,,67,72
13200,note_on,,1,0,5,,,,,,,,,,,,,,,,1,,67,72
13200,note_on,,1,0,7,,,,,,,,,,,,,,,,5,,67,72
13229,note_on,,29,0,5,,,,,,,,,,,,,,,,1,,67,0
13229,note_on,,29,0,11,,,,,,,,,,,,,,,,10,,67,0
13229,note_on,,29,0,14,,,,,,,,,,,,,,,,13,,64,0
13229,note_on,,29,0,13,,,,,,,,,,,,,,,,12,,64,0
13229,note_on,,0,0,15,,,,,,,,,,,,,,,,15,,67,0
13229,note_on,,29,0,9,,,,,,,,,,,,,,,,7,,64,0
13229,note_on,,29,0,15,,,,,,,,,,,,,,,,15,,64,0
13229,note_on,,29,0,6,,,,,,,,,,,,,,,,2,,64,0
13229,note_on,,29,0,7,,,,,,,,,,,,,,,,5,,67,0
13230,note_on,,1,0,15,,,,,,,,,,,,,,,,15,,65,72
13230,note_on,,1,0,6,,,,,,,,,,,,,,,,2,,65,72
13230,note_on,,0,0,15,,,,,,,,,,,,,,,,15,,69,72
13230,note_on,,1,0,9,,,,,,,,,,,,,,,,7,,65,72
13230,note_on,,1,0,13,,,,,,,,,,,,,,,,12,,65,72
13230,note_on,,1,0,14,,,,,,,,,,,,,,,,13,,65,72
13230,note_on,,1,0,7,,,,,,,,,,,,,,,,5,,69,72
13230,note_on,,1,0,11,,,,,,,,,,,,,,,,10,,69,72
13230,note_on,,1,0,5,,,,,,,,,,,,,,,,1,,69,72
13259,note_on,,29,0,9,,,,,,,,,,,,,,,,7,,65,0
13259,note_on,,29,0,13,,,,,,,,,,,,,,,,12,,65,0
13259,note_on,,29,0,11,,,,,,,,,,,,,,,,10,,69,0
13259,note_on,,0,0,15,,,,,,,,,,,,,,,,15,,69,0
13259,note_on,,29,0,15,,,,,,,,,,,,,,,,15,,65,0
13259,note_on,,29,0,6,,,,,,,,,,,,,,,,2,,65,0
13259,note_on,,29,0,5,,,,,,,,,,,,,,,,1,,69,0
13259,note_on,,29,0,14,,,,,,,,,,,,,,,,13,,65,0
13259,note_on,,29,0,7,,,,,,,,,,,,,,,,5,,69,0
13260,note_on,,1,0,13,,,,,,,,,,,,,,,,12,,64,72
13260,note_on,,1,0,9,,,,,,,,,,,,,,,,7,,64,72
13260,note_on,,1,0,6,,,,,,,,,,,,,,,,2,,64,72
13260,note_on,,1,0,15,,,,,,,,,,,,,,,,15,,64,72
13260,note_on,,0,0,15,,,,,,,,,,,,,,,,15,,67,72
13260,note_on,,1,0,11,,,,,,,,,,,,,,,,10,,67,72
13260,note_on,,1,0,7,,,,,,,,,,,,,,,,5,,67,72
13260,note_on,,1,0,14,,,,,,,,,,,,,,,,13,,64,72
13260,note_on,,1,0,5,,,,,,,,,,,,,,,,1,,67,72
13289,note_on,,29,0,11,,,,,,,,,,,,,,,,10,,67,0
13289,note_on,,29,0,6,,,,,,,,,,,,,,,,2,,64,0
13289,note_on,,29,0,14,,,,,,,,,,,,,,,,13,,64,0
13289,note_on,,29,0,15,,,,,,,,,,,,,,,,15,,64,0
13289,note_on,,29,0,9,,,,,,,,,,,,,,,,7,,64,0
13289,note_on,,29,0,5,,,,,,,,,,,,,,,,1,,67,0
13289,note_on,,0,0,15,,,,,,,,,,,,,,,,15,,67,0
13289,note_on,,29,0,13,,,,,,,,,,,,,,,,12,,64,0
13289,note_on,,29,0,7,,,,,,,,,,,,,,,,5,,67,0
13290,note_on,,1,0,5,,,,,,,,,,,,,,,,1,,65,72
13290,note_on,,1,0,6,,,,,,,,,,,,,,,,2,,62,72
13290,note_on,,1,0,9,,,,,,,,,,,,,,,,7,,62,72
13290,note_on,,1,0,13,,,,,,,,,,,,,,,,12,,62,72
13290,note_on,,1,0,14,,,,,,,,,,,,,,,,13,,62,72
13290,note_on,,1,0,15,,,,,,,,,,,,,,,,15,,62,72
13290,note_on,,0,0,15,,,,,,,,,,,,,,,,15,,65,72
13290,note_on,,1,0,7,,,,,,,,,,,,,,,,5,,65,72
13290,note_on,,1,0,11,,,,,,,,,,,,,,,,10,,65,72
13319,note_on,,29,0,15,,,,,,,,,,,,,,,,15,,62,0
13319,note_on,,29,0,13,,,,,,,,,,,,,,,,12,,62,0
13319,note_on,,29,0,6,,,,,,,,,,,,,,,,2,,62,0
13319,note_on,,29,0,9,,,,,,,,,,,,,,,,7,,62,0
13319,note_on,,29,0,7,,,,,,,,,,,,,,,,5,,65,0
13319,note_on,,29,0,14,,,,,,,,,,,,,,,,13,,62,0
13319,note_on,,0,0,15,,,,,,,,,,,,,,,,15,,65,0
13319,note_on,,29,0,5,,,,,,,,,,,,,,,,1,,65,0
13319,note_on,,29,0,11,,,,,,,,,,,,,,,,10,,65,0
13320,note_on,,1,0,13,,,,,,,,,,,,,,,,12,,64,72
13320,note_on,,1,0,14,,,,,,,,,,,,,,,,13,,60,72
13320,note_on,,1,0,5,,,,,,,,,,,,,,,,1,,64,72
13320,note_on,,1,0,15,,,,,,,,,,,,,,,,15,,60,72
13320,note_on,,0,0,15,,,,,,,,,,,,,,,,15,,67,72
13320,note_on,,0,0,15,,,,,,,,,,,,,,,,15,,64,72
13320,note_on,,1,0,6,,,,,,,,,,,,,,,,2,,60,72
13320,note_on,,1201,0,10,,,,,,,,,,,,,,,,8,,60,72
13320,note_on,,1,0,11,,,,,,,,,,,,,,,,10,,64,72
13320,note_on,,1,0,7,,,,,,,,,,,,,,,,5,,64,72
13320,note_on,,1,0,9,,,,,,,,,,,,,,,,7,,60,72
13349,note_on,,29,0,13,,,,,,,,,,,,,,,,12,,64,0
13350,note_on,,1,0,13,,,,,,,,,,,,,,,,12,,65,72
13379,note_on,,59,0,7,,,,,,,,,,,,,,,,5,,64,0
13379,note_on,,29,0,13,,,,,,,,,,,,,,,,12,,65,0
13379,note_on,,59,0,11,,,,,,,,,,,,,,,,10,,64,0
13379,note_on,,59,0,5,,,,,,,,,,,,,,,,1,,64,0
13380,note_on,,1,0,7,,,,,,,,,,,,,,,,5,,72,72
13380,note_on,,1,0,11,,,,,,,,,,,,,,,,10,,72,72
13380,note_on,,1,0,5,,,,,,,,,,,,,,,,1,,72,72
13380,note_on,,1,0,13,,,,,,,,,,,,,,,,12,,64,72
13409,note_on,,29,0,13,,,,,,,,,,,,,,,,12,,64,0
13410,note_on,,1,0,13,,,,,,,,,,,,,,,,12,,62,72
13439,note_on,,119,0,10,,,,,,,,,,,,,,,,8,,60,0
13439,note_on,,0,0,15,,,,,,,,,,,,,,,,15,,67,0
13439,note_on,,59,0,11,,,,,,,,,,,,,,,,10,,72,0
13439,note_on,,0,0,15,,,,,,,,,,,,,,,,15,,64,0
13439,note_on,,29,0,13,,,,,,,,,,,,,,,,12,,62,0
13439,note_on,,119,0,9,,,,,,,,,,,,,,,,7,,60,0
13439,note_on,,119,0,14,,,,,,,,,,,,,,,,13,,60,0
13439,note_on,,119,0,15,,,,,,,,,,,,,,,,15,,60,0
13439,note_on,,119,0,6,,,,,,,,,,,,,,,,2,,60,0
13440,note_on,,1,0,15,,,,,,,,,,,,,,,,15,,57,72
13440,note_on,,0,0,15,,,,,,,,,,,,,,,,15,,60,72
13440,note_on,,0,0,15,,,,,,,,,,,,,,,,15,,72,72
13440,note_on,,0,0,15,,,,,,,,,,,,,,,,15,,64,72
13440,note_on,,1,0,14,,,,,,,,,,,,,,,,13,,57,72
13440,note_on,,1,0,10,,,,,,,,,,,,,,,,8,,57,72
13440,note_on,,1,0,13,,,,,,,,,,,,,,,,12,,60,72
13440,note_on,,1,0,6,,,,,,,,,,,,,,,,2,,57,72
13440,note_on,,1,0,11,,,,,,,,,,,,,,,,10,,72,72
13469,note_on,,29,0,11,,,,,,,,,,,,,,,,10,,72,0
13469,note_on,,89,0,7,,,,,,,,,,,,,,,,5,,72,0
13469,note_on,,89,0,5,,,,,,,,,,,,,,,,1,,72,0
13470,note_on,,1,0,7,,,,,,,,,,,,,,,,5,,74,72
13470,note_on,,1,0,11,,,,,,,,,,,,,,,,10,,74,72
13470,note_on,,1,0,5,,,,,,,,,,,,,,,,1,,74,72
13499,note_on,,29,0,5,,,,,,,,,,,,,,,,1,,74,0
13499,note_on,,59,0,13,,,,,,,,,,,,,,,,12,,60,0
13499,note_on,,29,0,7,,,,,,,,,,,,,,,,5,,74,0
13499,note_on,,29,0,11,,,,,,,,,,,,,,,,10,,74,0
13500,note_on,,1,0,5,,,,,,,,,,,,,,,,1,,72,72
13500,note_on,,1,0,7,,,,,,,,,,,,,,,,5,,72,72
13500,note_on,,1,0,13,,,,,,,,,,,,,,,,12,,60,72
13500,note_on,,1,0,11,,,,,,,,,,,,,,,,10,,72,72
13500,note_on,,61,0,9,,,,,,,,,,,,,,,,7,,60,72
13529,note_on,,29,0,11,,,,,,,,,,,,,,,,10,,72,0
13529,note_on,,29,0,5,,,,,,,,,,,,,,,,1,,72,0
13529,note_on,,29,0,7,,,,,,,,,,,,,,,,5,,72,0
13530,note_on,,1,0,7,,,,,,,,,,,,,,,,5,,70,72
13530,note_on,,1,0,11,,,,,,,,,,,,,,,,10,,70,72
13530,note_on,,1,0,5,,,,,,,,,,,,,,,,1,,70,72
13559,note_on,,0,0,15,,,,,,,,,,,,,,,,15,,64,0
13559,note_on,,119,0,10,,,,,,,,,,,,,,,,8,,57,0
13559,note_on,,59,0,13,,,,,,,,,,,,,,,,12,,60,0
13559,note_on,,119,0,6,,,,,,,,,,,,,,,,2,,57,0
13559,note_on,,0,0,15,,,,,,,,,,,,,,,,15,,72,0
13559,note_on,,119,0,15,,,,,,,,,,,,,,,,15,,57,0
13559,note_on,,59,0,9,,,,,,,,,,,,,,,,7,,60,0
13559,note_on,,119,0,14,,,,,,,,,,,,,,,,13,,57,0
13559,note_on,,29,0,11,,,,,,,,,,,,,,,,10,,70,0
13559,note_on,,29,0,7,,,,,,,,,,,,,,,,5,,70,0
13559,note_on,,0,0,15,,,,,,,,,,,,,,,,15,,60,0
13559,note_on,,29,0,5,,,,,,,,,,,,,,,,1,,70,0
13560,note_on,,1,0,13,,,,,,,,,,,,,,,,12,,65,72
13560,note_on,,1,0,14,,,,,,,,,,,,,,,,13,,53,72
13560,note_on,,1,0,10,,,,,,,,,,,,,,,,8,,53,72
13560,note_on,,1,0,6,,,,,,,,,,,,,,,,2,,53,72
13560,note_on,,1,0,11,,,,,,,,,,,,,,,,10,,69,72
13560,note_on,,0,0,15,,,,,,,,,,,,,,,,15,,60,72
13560,note_on,,1,0,9,,,,,,,,,,,,,,,,7,,60,72
13560,note_on,,0,0,15,,,,,,,,,,,,,,,,15,,69,72
13560,note_on,,0,0,15,,,,,,,,,,,,,,,,15,,65,72
13560,note_on,,1,0,5,,,,,,,,,,,,,,,,1,,69,72
13560,note_on,,1,0,7,,,,,,,,,,,,,,,,5,,69,72
13560,note_on,,1,0,15,,,,,,,,,,,,,,,,15,,53,72
13589,note_on,,29,0,5,,,,,,,,,,,,,,,,1,,69,0
13589,note_on,,29,0,11,,,,,,,,,,,,,,,,10,,69,0
13589,note_on,,29,0,7,,,,,,,,,,,,,,,,5,,69,0
13590,note_on,,1,0,5,,,,,,,,,,,,,,,,1,,70,72
13590,note_on,,1,0,11,,,,,,,,,,,,,,,,10,,70,72
13590,note_on,,1,0,7,,,,,,,,,,,,,,,,5,,70,72
13619,note_on,,29,0,5,,,,,,,,,,,,,,,,1,,70,0
13619,note_on,,29,0,11,,,,,,,,,,,,,,,,10,,70,0
13619,note_on,,59,0,13,,,,,,,,,,,,,,,,12,,65,0
13619,note_on,,29,0,7,,,,,,,,,,,,,,,,5,,70,0
13619,note_on,,59,0,9,,,,,,,,,,,,,,,,7,,60,0
13620,note_on,,1,0,11,,,,,,,,,,,,,,,,10,,69,72
13620,note_on,,1,0,13,,,,,,,,,,,,,,,,12,,65,72
13620,note_on,,1,0,5,,,,,,,,,,,,,,,,1,,69,72
13620,note_on,,1,0,7,,,,,,,,,,,,,,,,5,,69,72
13620,note_on,,1,0,9,,,,,,,,,,,,,,,,7,,60,72
13649,note_on,,29,0,11,,,,,,,,,,,,,,,,10,,69,0
13649,note_on,,29,0,5,,,,,,,,,,,,,,,,1,,69,0
13649,note_on,,29,0,7,,,,,,,,,,,,,,,,5,,69,0
13650,note_on,,1,0,11,,,,,,,,,,,,,,,,10,,67,72
13650,note_on,,1,0,7,,,,,,,,,,,,,,,,5,,67,72
13650,note_on,,1,0,5,,,,,,,,,,,,,,,,1,,67,72
13679,note_on,,119,0,14,,,,,,,,,,,,,,,,13,,53,0
13679,note_on,,119,0,6,,,,,,,,,,,,,,,,2,,53,0
13679,note_on,,29,0,7,,,,,,,,,,,,,,,,5,,67,0
13679,note_on,,59,0,13,,,,,,,,,,,,,,,,12,,65,0
13679,note_on,,59,0,9,,,,,,,,,,,,,,,,7,,60,0
13679,note_on,,29,0,5,,,,,,,,,,,,,,,,1,,67,0
13679,note_on,,0,0,15,,,,,,,,,,,,,,,,15,,69,0
13679,note_on,,0,0,15,,,,,,,,,,,,,,,,15,,60,0
13679,note_on,,29,0,11,,,,,,,,,,,,,,,,10,,67,0
13679,note_on,,0,0,15,,,,,,,,,,,,,,,,15,,65,0
13679,note_on,,119,0,10,,,,,,,,,,,,,,,,8,,53,0
13679,note_on,,119,0,15,,,,,,,,,,,,,,,,15,,53,0
13680,note_on,,1,0,11,,,,,,,,,,,,,,,,10,,65,72
13680,note_on,,1,0,9,,,,,,,,,,,,,,,,7,,65,72
13680,note_on,,1,0,6,,,,,,,,,,,,,,,,2,,50,72
13680,note_on,,1,0,7,,,,,,,,,,,,,,,,5,,65,72
13680,note_on,,0,0,15,,,,,,,,,,,,,,,,15,,70,72
13680,note_on,,0,0,15,,,,,,,,,,,,,,,,15,,65,72
13680,note_on,,1,0,5,,,,,,,,,,,,,,,,1,,65,72
13680,note_on,,1,0,10,,,,,,,,,,,,,,,,8,,50,72
13680,note_on,,1,0,13,,,,,,,,,,,,,,,,12,,70,72
13680,note_on,,1,0,15,,,,,,,,,,,,,,,,15,,50,72
13680,note_on,,0,0,15,,,,,,,,,,,,,,,,15,,74,72
13680,note_on,,0,0,15,,,,,,,,,,,,,,,,15,,58,72
13680,note_on,,1,0,14,,,,,,,,,,,,,,,,13,,50,72
13709,note_on,,29,0,9,,,,,,,,,,,,,,,,7,,65,0
13709,note_on,,29,0,11,,,,,,,,,,,,,,,,10,,65,0
13710,note_on,,1,0,11,,,,,,,,,,,,,,,,10,,67,72
13710,note_on,,1,0,9,,,,,,,,,,,,,,,,7,,67,72
13739,note_on,,59,0,10,,,,,,,,,,,,,,,,8,,50,0
13739,note_on,,59,0,6,,,,,,,,,,,,,,,,2,,50,0
13739,note_on,,0,0,15,,,,,,,,,,,,,,,,15,,58,0
13739,note_on,,59,0,14,,,,,,,,,,,,,,,,13,,50,0
13739,note_on,,59,0,13,,,,,,,,,,,,,,,,12,,70,0
13739,note_on,,29,0,11,,,,,,,,,,,,,,,,10,,67,0
13739,note_on,,59,0,15,,,,,,,,,,,,,,,,15,,50,0
13739,note_on,,29,0,9,,,,,,,,,,,,,,,,7,,67,0
13740,note_on,,1,0,6,,,,,,,,,,,,,,,,2,,58,72
13740,note_on,,1,0,14,,,,,,,,,,,,,,,,13,,58,72
13740,note_on,,1,0,10,,,,,,,,,,,,,,,,8,,58,72
13740,note_on,,1,0,15,,,,,,,,,,,,,,,,15,,58,72
13740,note_on,,1,0,11,,,,,,,,,,,,,,,,10,,65,72
13740,note_on,,1,0,13,,,,,,,,,,,,,,,,12,,62,72
13740,note_on,,1,0,9,,,,,,,,,,,,,,,,7,,65,72
13769,note_on,,29,0,9,,,,,,,,,,,,,,,,7,,65,0
13769,note_on,,29,0,11,,,,,,,,,,,,,,,,10,,65,0
13770,note_on,,1,0,9,,,,,,,,,,,,,,,,7,,64,72
13770,note_on,,1,0,11,,,,,,,,,,,,,,,,10,,64,72
13799,note_on,,119,0,5,,,,,,,,,,,,,,,,1,,65,0
13799,note_on,,29,0,9,,,,,,,,,,,,,,,,7,,64,0
13799,note_on,,119,0,7,,,,,,,,,,,,,,,,5,,65,0
13799,note_on,,0,0,15,,,,,,,,,,,,,,,,15,,65,0
13799,note_on,,0,0,15,,,,,,,,,,,,,,,,15,,70,0
13799,note_on,,29,0,11,,,,,,,,,,,,,,,,10,,64,0
13799,note_on,,59,0,15,,,,,,,,,,,,,,,,15,,74,0
13799,note_on,,59,0,13,,,,,,,,,,,,,,,,12,,62,0
13800,note_on,,1,0,15,,,,,,,,,,,,,,,,15,,65,72
13800,note_on,,1,0,11,,,,,,,,,,,,,,,,10,,62,72
13800,note_on,,1,0,9,,,,,,,,,,,,,,,,7,,62,72
13800,note_on,,1,0,13,,,,,,,,,,,,,,,,12,,65,72
13800,note_on,,0,0,15,,,,,,,,,,,,,,,,15,,62,72
13829,note_on,,29,0,11,,,,,,,,,,,,,,,,10,,62,0
13829,note_on,,29,0,15,,,,,,,,,,,,,,,,15,,58,0
13829,note_on,,89,0,6,,,,,,,,,,,,,,,,2,,58,0
13829,note_on,,89,0,14,,,,,,,,,,,,,,,,13,,58,0
13829,note_on,,89,0,10,,,,,,,,,,,,,,,,8,,58,0
13829,note_on,,29,0,9,,,,,,,,,,,,,,,,7,,62,0
13830,note_on,,1,0,10,,,,,,,,,,,,,,,,8,,60,72
13830,note_on,,1,0,11,,,,,,,,,,,,,,,,10,,64,72
13830,note_on,,1,0,15,,,,,,,,,,,,,,,,15,,60,72
13830,note_on,,1,0,9,,,,,,,,,,,,,,,,7,,64,72
13830,note_on,,1,0,6,,,,,,,,,,,,,,,,2,,60,72
13830,note_on,,1,0,14,,,,,,,,,,,,,,,,13,,60,72
13859,note_on,,29,0,11,,,,,,,,,,,,,,,,10,,64,0
13859,note_on,,29,0,15,,,,,,,,,,,,,,,,15,,60,0
13859,note_on,,59,0,13,,,,,,,,,,,,,,,,12,,65,0
13859,note_on,,29,0,10,,,,,,,,,,,,,,,,8,,60,0
13859,note_on,,29,0,9,,,,,,,,,,,,,,,,7,,64,0
13859,note_on,,29,0,6,,,,,,,,,,,,,,,,2,,60,0
13859,note_on,,29,0,14,,,,,,,,,,,,,,,,13,,60,0
13860,note_on,,1,0,13,,,,,,,,,,,,,,,,12,,65,72
13860,note_on,,1,0,10,,,,,,,,,,,,,,,,8,,58,72
13860,note_on,,1,0,11,,,,,,,,,,,,,,,,10,,62,72
13860,note_on,,1,0,6,,,,,,,,,,,,,,,,2,,58,72
13860,note_on,,1,0,15,,,,,,,,,,,,,,,,15,,58,72
13860,note_on,,1,0,9,,,,,,,,,,,,,,,,7,,62,72
13860,note_on,,61,0,5,,,,,,,,,,,,,,,,1,,65,72
13860,note_on,,1,0,14,,,,,,,,,,,,,,,,13,,58,72
13860,note_on,,61,0,7,,,,,,,,,,,,,,,,5,,65,72
13889,note_on,,29,0,6,,,,,,,,,,,,,,,,2,,58,0
13889,note_on,,29,0,15,,,,,,,,,,,,,,,,15,,58,0
13889,note_on,,29,0,14,,,,,,,,,,,,,,,,13,,58,0
13889,note_on,,29,0,11,,,,,,,,,,,,,,,,10,,62,0
13889,note_on,,29,0,10,,,,,,,,,,,,,,,,8,,58,0
13889,note_on,,29,0,9,,,,,,,,,,,,,,,,7,,62,0
13890,note_on,,1,0,6,,,,,,,,,,,,,,,,2,,57,72
13890,note_on,,1,0,11,,,,,,,,,,,,,,,,10,,60,72
13890,note_on,,1,0,15,,,,,,,,,,,,,,,,15,,57,72
13890,note_on,,1,0,14,,,,,,,,,,,,,,,,13,,57,72
13890,note_on,,1,0,9,,,,,,,,,,,,,,,,7,,60,72
13890,note_on,,1,0,10,,,,,,,,,,,,,,,,8,,57,72
13919,note_on,,0,0,15,,,,,,,,,,,,,,,,15,,57,0
13919,note_on,,0,0,15,,,,,,,,,,,,,,,,15,,62,0
13919,note_on,,29,0,15,,,,,,,,,,,,,,,,15,,65,0
13919,note_on,,59,0,13,,,,,,,,,,,,,,,,12,,65,0
13919,note_on,,29,0,6,,,,,,,,,,,,,,,,2,,57,0
13919,note_on,,29,0,10,,,,,,,,,,,,,,,,8,,57,0
13919,note_on,,29,0,14,,,,,,,,,,,,,,,,13,,57,0
13919,note_on,,59,0,5,,,,,,,,,,,,,,,,1,,65,0
13919,note_on,,29,0,11,,,,,,,,,,,,,,,,10,,60,0
13919,note_on,,59,0,7,,,,,,,,,,,,,,,,5,,65,0
13919,note_on,,29,0,9,,,,,,,,,,,,,,,,7,,60,0
13920,note_on,,1,0,10,,,,,,,,,,,,,,,,8,,55,72
13920,note_on,,1,0,9,,,,,,,,,,,,,,,,7,,58,72
13920,note_on,,0,0,15,,,,,,,,,,,,,,,,15,,62,72
13920,note_on,,1,0,5,,,,,,,,,,,,,,,,1,,70,72
13920,note_on,,1,0,15,,,,,,,,,,,,,,,,15,,55,72
13920,note_on,,1,0,11,,,,,,,,,,,,,,,,10,,58,72
13920,note_on,,1,0,13,,,,,,,,,,,,,,,,12,,70,72
13920,note_on,,1,0,7,,,,,,,,,,,,,,,,5,,70,72
13920,note_on,,1,0,6,,,,,,,,,,,,,,,,2,,55,72
13920,note_on,,1,0,14,,,,,,,,,,,,,,,,13,,55,72
13920,note_on,,0,0,15,,,,,,,,,,,,,,,,15,,71,72
13949,note_on,,29,0,15,,,,,,,,,,,,,,,,15,,55,0
13949,note_on,,29,0,6,,,,,,,,,,,,,,,,2,,55,0
13949,note_on,,29,0,10,,,,,,,,,,,,,,,,8,,55,0
13949,note_on,,29,0,9,,,,,,,,,,,,,,,,7,,58,0
13949,note_on,,29,0,14,,,,,,,,,,,,,,,,13,,55,0
13949,note_on,,29,0,11,,,,,,,,,,,,,,,,10,,58,0
13950,note_on,,1,0,9,,,,,,,,,,,,,,,,7,,60,72
13950,note_on,,1,0,14,,,,,,,,,,,,,,,,13,,57,72
13950,note_on,,1,0,15,,,,,,,,,,,,,,,,15,,57,72
13950,note_on,,1,0,6,,,,,,,,,,,,,,,,2,,57,72
13950,note_on,,1,0,11,,,,,,,,,,,,,,,,10,,60,72
13950,note_on,,1,0,10,,,,,,,,,,,,,,,,8,,57,72
13979,note_on,,29,0,11,,,,,,,,,,,,,,,,10,,60,0
13979,note_on,,59,0,5,,,,,,,,,,,,,,,,1,,70,0
13979,note_on,,29,0,14,,,,,,,,,,,,,,,,13,,57,0
13979,note_on,,29,0,6,,,,,,,,,,,,,,,,2,,57,0
13979,note_on,,59,0,13,,,,,,,,,,,,,,,,12,,70,0
13979,note_on,,29,0,15,,,,,,,,,,,,,,,,15,,57,0
13979,note_on,,59,0,7,,,,,,,,,,,,,,,,5,,70,0
13979,note_on,,29,0,10,,,,,,,,,,,,,,,,8,,57,0
13979,note_on,,29,0,9,,,,,,,,,,,,,,,,7,,60,0
13980,note_on,,1,0,7,,,,,,,,,,,,,,,,5,,74,72
13980,note_on,,1,0,13,,,,,,,,,,,,,,,,12,,74,72
13980,note_on,,1,0,9,,,,,,,,,,,,,,,,7,,58,72
13980,note_on,,1,0,6,,,,,,,,,,,,,,,,2,,55,72
13980,note_on,,1,0,5,,,,,,,,,,,,,,,,1,,74,72
13980,note_on,,1,0,14,,,,,,,,,,,,,,,,13,,55,72
13980,note_on,,1,0,11,,,,,,,,,,,,,,,,10,,58,72
13980,note_on,,1,0,15,,,,,,,,,,,,,,,,15,,55,72
13980,note_on,,1,0,10,,,,,,,,,,,,,,,,8,,55,72
14009,note_on,,29,0,10,,,,,,,,,,,,,,,,8,,55,0
14009,note_on,,29,0,6,,,,,,,,,,,,,,,,2,,55,0
14009,note_on,,29,0,11,,,,,,,,,,,,,,,,10,,58,0
14009,note_on,,29,0,14,,,,,,,,,,,,,,,,13,,55,0
14009,note_on,,29,0,9,,,,,,,,,,,,,,,,7,,58,0
14009,note_on,,29,0,15,,,,,,,,,,,,,,,,15,,55,0
14010,note_on,,1,0,14,,,,,,,,,,,,,,,,13,,53,72
14010,note_on,,1,0,10,,,,,,,,,,,,,,,,8,,53,72
14010,note_on,,1,0,11,,,,,,,,,,,,,,,,10,,57,72
14010,note_on,,1,0,15,,,,,,,,,,,,,,,,15,,53,72
14010,note_on,,1,0,9,,,,,,,,,,,,,,,,7,,57,72
14010,note_on,,1,0,6,,,,,,,,,,,,,,,,2,,53,72
14039,note_on,,59,0,5,,,,,,,,,,,,,,,,1,,74,0
14039,note_on,,59,0,13,,,,,,,,,,,,,,,,12,,74,0
14039,note_on,,29,0,15,,,,,,,,,,,,,,,,15,,71,0
14039,note_on,,0,0,15,,,,,,,,,,,,,,,,15,,62,0
14039,note_on,,0,0,15,,,,,,,,,,,,,,,,15,,53,0
14039,note_on,,29,0,9,,,,,,,,,,,,,,,,7,,57,0
14039,note_on,,59,0,7,,,,,,,,,,,,,,,,5,,74,0
14039,note_on,,29,0,6,,,,,,,,,,,,,,,,2,,53,0
14039,note_on,,29,0,11,,,,,,,,,,,,,,,,10,,57,0
14039,note_on,,29,0,14,,,,,,,,,,,,,,,,13,,53,0
14039,note_on,,29,0,10,,,,,,,,,,,,,,,,8,,53,0
14040,note_on,,0,0,15,,,,,,,,,,,,,,,,15,,60,72
14040,note_on,,1921,0,8,,,,,,,,,,,,,,,,6,,67,72
14040,note_on,,1,0,10,,,,,,,,,,,,,,,,8,,52,72
14040,note_on,,1681,0,12,,,,,,,,,,,,,,,,11,,79,72
14040,note_on,,1,0,13,,,,,,,,,,,,,,,,12,,72,72
14040,note_on,,1,0,15,,,,,,,,,,,,,,,,15,,52,72
14040,note_on,,1,0,6,,,,,,,,,,,,,,,,2,,52,72
14040,note_on,,1,0,11,,,,,,,,,,,,,,,,10,,55,72
14040,note_on,,1,0,9,,,,,,,,,,,,,,,,7,,55,72
14040,note_on,,0,0,15,,,,,,,,,,,,,,,,15,,72,72
14040,note_on,,1,0,7,,,,,,,,,,,,,,,,5,,72,72
14040,note_on,,1,0,14,,,,,,,,,,,,,,,,13,,52,72
14040,note_on,,0,0,15,,,,,,,,,,,,,,,,15,,67,72
14040,note_on,,1,0,5,,,,,,,,,,,,,,,,1,,72,72
14069,note_on,,29,0,15,,,,,,,,,,,,,,,,15,,52,0
14069,note_on,,29,0,14,,,,,,,,,,,,,,,,13,,52,0
14069,note_on,,29,0,10,,,,,,,,,,,,,,,,8,,52,0
14069,note_on,,29,0,6,,,,,,,,,,,,,,,,2,,52,0
14070,note_on,,1,0,14,,,,,,,,,,,,,,,,13,,53,72
14070,note_on,,1,0,15,,,,,,,,,,,,,,,,15,,53,72
14070,note_on,,1,0,10,,,,,,,,,,,,,,,,8,,53,72
14070,note_on,,1,0,6,,,,,,,,,,,,,,,,2,,53,72
14099,note_on,,29,0,10,,,,,,,,,,,,,,,,8,,53,0
14099,note_on,,29,0,15,,,,,,,,,,,,,,,,15,,53,0
14099,note_on,,59,0,13,,,,,,,,,,,,,,,,12,,72,0
14099,note_on,,29,0,14,,,,,,,,,,,,,,,,13,,53,0
14099,note_on,,29,0,6,,,,,,,,,,,,,,,,2,,53,0
14100,note_on,,1,0,6,,,,,,,,,,,,,,,,2,,52,72
14100,note_on,,1,0,13,,,,,,,,,,,,,,,,12,,67,72
14100,note_on,,1,0,14,,,,,,,,,,,,,,,,13,,52,72
14100,note_on,,1,0,15,,,,,,,,,,,,,,,,15,,52,72
14100,note_on,,1,0,10,,,,,,,,,,,,,,,,8,,52,72
14129,note_on,,29,0,15,,,,,,,,,,,,,,,,15,,52,0
14129,note_on,,29,0,6,,,,,,,,,,,,,,,,2,,52,0
14129,note_on,,89,0,12,,,,,,,,,,,,,,,,11,,79,0
14129,note_on,,29,0,10,,,,,,,,,,,,,,,,8,,52,0
14129,note_on,,29,0,14,,,,,,,,,,,,,,,,13,,52,0
14130,note_on,,1,0,6,,,,,,,,,,,,,,,,2,,50,72
14130,note_on,,1,0,15,,,,,,,,,,,,,,,,15,,50,72
14130,note_on,,1,0,10,,,,,,,,,,,,,,,,8,,50,72
14130,note_on,,1,0,14,,,,,,,,,,,,,,,,13,,50,72
14159,note_on,,119,0,11,,,,,,,,,,,,,,,,10,,55,0
14159,note_on,,59,0,13,,,,,,,,,,,,,,,,12,,67,0
14159,note_on,,29,0,10,,,,,,,,,,,,,,,,8,,50,0
14159,note_on,,119,0,5,,,,,,,,,,,,,,,,1,,72,0
14159,note_on,,119,0,8,,,,,,,,,,,,,,,,6,,67,0
14159,note_on,,119,0,7,,,,,,,,,,,,,,,,5,,72,0
14159,note_on,,29,0,14,,,,,,,,,,,,,,,,13,,50,0
14159,note_on,,29,0,15,,,,,,,,,,,,,,,,15,,72,0
14159,note_on,,0,0,15,,,,,,,,,,,,,,,,15,,67,0
14159,note_on,,0,0,15,,,,,,,,,,,,,,,,15,,60,0
14159,note_on,,0,0,15,,,,,,,,,,,,,,,,15,,50,0
14159,note_on,,119,0,9,,,,,,,,,,,,,,,,7,,55,0
14159,note_on,,29,0,6,,,,,,,,,,,,,,,,2,,50,0
14160,note_on,,0,0,15,,,,,,,,,,,,,,,,15,,64,72
14160,note_on,,1,0,15,,,,,,,,,,,,,,,,15,,48,72
14160,note_on,,1,0,14,,,,,,,,,,,,,,,,13,,48,72
14160,note_on,,1,0,10,,,,,,,,,,,,,,,,8,,48,72
14160,note_on,,0,0,15,,,,,,,,,,,,,,,,15,,55,72
14160,note_on,,1,0,8,,,,,,,,,,,,,,,,6,,64,72
14160,note_on,,31,0,12,,,,,,,,,,,,,,,,11,,76,72
14160,note_on,,1,0,13,,,,,,,,,,,,,,,,12,,67,72
14160,note_on,,0,0,15,,,,,,,,,,,,,,,,15,,60,72
14160,note_on,,1,0,6,,,,,,,,,,,,,,,,2,,48,72
14189,note_on,,29,0,13,,,,,,,,,,,,,,,,12,,67,0
14190,note_on,,1,0,13,,,,,,,,,,,,,,,,12,,69,72
14219,note_on,,29,0,13,,,,,,,,,,,,,,,,12,,69,0
14220,note_on,,1,0,13,,,,,,,,,,,,,,,,12,,67,72
14220,note_on,,61,0,9,,,,,,,,,,,,,,,,7,,55,72
14220,note_on,,61,0,7,,,,,,,,,,,,,,,,5,,67,72
14220,note_on,,61,0,5,,,,,,,,,,,,,,,,1,,67,72
14249,note_on,,29,0,13,,,,,,,,,,,,,,,,12,,67,0
14249,note_on,,89,0,12,,,,,,,,,,,,,,,,11,,76,0
14250,note_on,,1,0,13,,,,,,,,,,,,,,,,12,,65,72
14279,note_on,,29,0,13,,,,,,,,,,,,,,,,12,,65,0
14279,note_on,,59,0,7,,,,,,,,,,,,,,,,5,,67,0
14279,note_on,,119,0,8,,,,,,,,,,,,,,,,6,,64,0
14279,note_on,,119,0,6,,,,,,,,,,,,,,,,2,,48,0
14279,note_on,,59,0,5,,,,,,,,,,,,,,,,1,,67,0
14279,note_on,,119,0,10,,,,,,,,,,,,,,,,8,,48,0
14279,note_on,,59,0,9,,,,,,,,,,,,,,,,7,,55,0
14279,note_on,,119,0,15,,,,,,,,,,,,,,,,15,,48,0
14279,note_on,,0,0,15,,,,,,,,,,,,,,,,15,,64,0
14279,note_on,,0,0,15,,,,,,,,,,,,,,,,15,,60,0
14279,note_on,,119,0,14,,,,,,,,,,,,,,,,13,,48,0
14279,note_on,,0,0,15,,,,,,,,,,,,,,,,15,,55,0
14280,note_on,,1,0,13,,,,,,,,,,,,,,,,12,,64,72
14280,note_on,,31,0,12,,,,,,,,,,,,,,,,11,,72,72
14280,note_on,,1,0,8,,,,,,,,,,,,,,,,6,,60,72
14280,note_on,,1,0,7,,,,,,,,,,,,,,,,5,,67,72
14280,note_on,,1,0,5,,,,,,,,,,,,,,,,1,,67,72
14280,note_on,,1,0,9,,,,,,,,,,,,,,,,7,,60,72
14309,note_on,,29,0,13,,,,,,,,,,,,,,,,12,,64,0
14310,note_on,,1,0,13,,,,,,,,,,,,,,,,12,,65,72
14339,note_on,,29,0,13,,,,,,,,,,,,,,,,12,,65,0
14339,note_on,,59,0,9,,,,,,,,,,,,,,,,7,,60,0
14339,note_on,,59,0,5,,,,,,,,,,,,,,,,1,,67,0
14339,note_on,,59,0,7,,,,,,,,,,,,,,,,5,,67,0
14340,note_on,,61,0,15,,,,,,,,,,,,,,,,15,,52,72
14340,note_on,,0,0,15,,,,,,,,,,,,,,,,15,,55,72
14340,note_on,,0,0,15,,,,,,,,,,,,,,,,15,,72,72
14340,note_on,,0,0,15,,,,,,,,,,,,,,,,15,,67,72
14340,note_on,,61,0,10,,,,,,,,,,,,,,,,8,,52,72
14340,note_on,,1,0,13,,,,,,,,,,,,,,,,12,,64,72
14340,note_on,,1,0,7,,,,,,,,,,,,,,,,5,,67,72
14340,note_on,,61,0,6,,,,,,,,,,,,,,,,2,,52,72
14340,note_on,,61,0,14,,,,,,,,,,,,,,,,13,,52,72
14340,note_on,,1,0,9,,,,,,,,,,,,,,,,7,,60,72
14340,note_on,,1,0,5,,,,,,,,,,,,,,,,1,,67,72
14369,note_on,,89,0,12,,,,,,,,,,,,,,,,11,,72,0
14369,note_on,,29,0,13,,,,,,,,,,,,,,,,12,,64,0
14370,note_on,,1,0,13,,,,,,,,,,,,,,,,12,,62,72
14399,note_on,,59,0,6,,,,,,,,,,,,,,,,2,,52,0
14399,note_on,,59,0,14,,,,,,,,,,,,,,,,13,,52,0
14399,note_on,,59,0,10,,,,,,,,,,,,,,,,8,,52,0
14399,note_on,,119,0,8,,,,,,,,,,,,,,,,6,,60,0
14399,note_on,,59,0,7,,,,,,,,,,,,,,,,5,,67,0
14399,note_on,,59,0,5,,,,,,,,,,,,,,,,1,,67,0
14399,note_on,,59,0,9,,,,,,,,,,,,,,,,7,,60,0
14399,note_on,,0,0,15,,,,,,,,,,,,,,,,15,,67,0
14399,note_on,,0,0,15,,,,,,,,,,,,,,,,15,,55,0
14399,note_on,,59,0,15,,,,,,,,,,,,,,,,15,,52,0
14399,note_on,,29,0,13,,,,,,,,,,,,,,,,12,,62,0
14399,note_on,,0,0,15,,,,,,,,,,,,,,,,15,,72,0
14400,note_on,,241,0,11,,,,,,,,,,,,,,,,10,,84,72
14400,note_on,,31,0,12,,,,,,,,,,,,,,,,11,,69,72
14400,note_on,,1,0,7,,,,,,,,,,,,,,,,5,,69,72
14400,note_on,,1,0,9,,,,,,,,,,,,,,,,7,,60,72
14400,note_on,,1,0,10,,,,,,,,,,,,,,,,8,,53,72
14400,note_on,,0,0,15,,,,,,,,,,,,,,,,15,,60,72
14400,note_on,,1,0,13,,,,,,,,,,,,,,,,12,,60,72
14400,note_on,,1,0,15,,,,,,,,,,,,,,,,15,,65,72
14400,note_on,,0,0,15,,,,,,,,,,,,,,,,15,,53,72
14400,note_on,,0,0,15,,,,,,,,,,,,,,,,15,,69,72
14400,note_on,,1,0,8,,,,,,,,,,,,,,,,6,,57,72
14400,note_on,,1,0,14,,,,,,,,,,,,,,,,13,,53,72
14400,note_on,,1,0,6,,,,,,,,,,,,,,,,2,,53,72
14400,note_on,,0,0,15,,,,,,,,,,,,,,,,15,,57,72
14400,note_on,,1,0,5,,,,,,,,,,,,,,,,1,,69,72
14459,note_on,,59,0,8,,,,,,,,,,,,,,,,6,,57,0
14459,note_on,,59,0,12,,,,,,,,,,,,,,,,11,,69,0
14460,note_on,,1,0,12,,,,,,,,,,,,,,,,11,,77,72
14460,note_on,,1,0,8,,,,,,,,,,,,,,,,6,,65,72
14489,note_on,,89,0,11,,,,,,,,,,,,,,,,10,,84,0
14519,note_on,,119,0,15,,,,,,,,,,,,,,,,15,,65,0
14519,note_on,,119,0,10,,,,,,,,,,,,,,,,8,,53,0
14519,note_on,,0,0,15,,,,,,,,,,,,,,,,15,,57,0
14519,note_on,,0,0,15,,,,,,,,,,,,,,,,15,,60,0
14519,note_on,,119,0,5,,,,,,,,,,,,,,,,1,,69,0
14519,note_on,,0,0,15,,,,,,,,,,,,,,,,15,,69,0
14519,note_on,,119,0,6,,,,,,,,,,,,,,,,2,,53,0
14519,note_on,,0,0,15,,,,,,,,,,,,,,,,15,,53,0
14519,note_on,,119,0,7,,,,,,,,,,,,,,,,5,,69,0
14519,note_on,,119,0,14,,,,,,,,,,,,,,,,13,,53,0
14519,note_on,,119,0,13,,,,,,,,,,,,,,,,12,,60,0
14519,note_on,,59,0,12,,,,,,,,,,,,,,,,11,,77,0
14519,note_on,,119,0,9,,,,,,,,,,,,,,,,7,,60,0
14520,note_on,,1,0,12,,,,,,,,,,,,,,,,11,,77,72
14520,note_on,,31,0,11,,,,,,,,,,,,,,,,10,,81,72
14549,note_on,,89,0,8,,,,,,,,,,,,,,,,6,,65,0
14549,note_on,,29,0,12,,,,,,,,,,,,,,,,11,,77,0
14550,note_on,,1,0,8,,,,,,,,,,,,,,,,6,,67,72
14550,note_on,,1,0,12,,,,,,,,,,,,,,,,11,,79,72
14579,note_on,,29,0,8,,,,,,,,,,,,,,,,6,,67,0
14579,note_on,,29,0,12,,,,,,,,,,,,,,,,11,,79,0
14580,note_on,,61,0,9,,,,,,,,,,,,,,,,7,,62,72
14580,note_on,,61,0,7,,,,,,,,,,,,,,,,5,,69,72
14580,note_on,,61,0,15,,,,,,,,,,,,,,,,15,,53,72
14580,note_on,,61,0,14,,,,,,,,,,,,,,,,13,,53,72
14580,note_on,,61,0,10,,,,,,,,,,,,,,,,8,,53,72
14580,note_on,,0,0,15,,,,,,,,,,,,,,,,15,,57,72
14580,note_on,,61,0,6,,,,,,,,,,,,,,,,2,,53,72
14580,note_on,,1,0,12,,,,,,,,,,,,,,,,11,,77,72
14580,note_on,,61,0,13,,,,,,,,,,,,,,,,12,,62,72
14580,note_on,,1,0,8,,,,,,,,,,,,,,,,6,,65,72
14580,note_on,,61,0,5,,,,,,,,,,,,,,,,1,,69,72
14609,note_on,,29,0,8,,,,,,,,,,,,,,,,6,,65,0
14609,note_on,,89,0,11,,,,,,,,,,,,,,,,10,,81,0
14609,note_on,,29,0,12,,,,,,,,,,,,,,,,11,,77,0
14610,note_on,,1,0,12,,,,,,,,,,,,,,,,11,,76,72
14610,note_on,,1,0,8,,,,,,,,,,,,,,,,6,,64,72
14639,note_on,,29,0,8,,,,,,,,,,,,,,,,6,,64,0
14639,note_on,,59,0,10,,,,,,,,,,,,,,,,8,,53,0
14639,note_on,,59,0,13,,,,,,,,,,,,,,,,12,,62,0
14639,note_on,,59,0,14,,,,,,,,,,,,,,,,13,,53,0
14639,note_on,,29,0,12,,,,,,,,,,,,,,,,11,,76,0
14639,note_on,,59,0,5,,,,,,,,,,,,,,,,1,,69,0
14639,note_on,,59,0,15,,,,,,,,,,,,,,,,15,,53,0
14639,note_on,,59,0,6,,,,,,,,,,,,,,,,2,,53,0
14639,note_on,,0,0,15,,,,,,,,,,,,,,,,15,,57,0
14639,note_on,,59,0,7,,,,,,,,,,,,,,,,5,,69,0
14639,note_on,,59,0,9,,,,,,,,,,,,,,,,7,,62,0
14640,note_on,,1,0,7,,,,,,,,,,,,,,,,5,,69,72
14640,note_on,,1,0,10,,,,,,,,,,,,,,,,8,,53,72
14640,note_on,,1,0,5,,,,,,,,,,,,,,,,1,,69,72
14640,note_on,,0,0,15,,,,,,,,,,,,,,,,15,,57,72
14640,note_on,,1,0,15,,,,,,,,,,,,,,,,15,,53,72
14640,note_on,,1,0,13,,,,,,,,,,,,,,,,12,,69,72
14640,note_on,,31,0,11,,,,,,,,,,,,,,,,10,,77,72
14640,note_on,,1,0,12,,,,,,,,,,,,,,,,11,,74,72
14640,note_on,,1,0,6,,,,,,,,,,,,,,,,2,,53,72
14640,note_on,,1,0,14,,,,,,,,,,,,,,,,13,,53,72
14640,note_on,,1,0,9,,,,,,,,,,,,,,,,7,,62,72
14640,note_on,,0,0,15,,,,,,,,,,,,,,,,15,,62,72
14640,note_on,,0,0,15,,,,,,,,,,,,,,,,15,,69,72
14640,note_on,,0,0,15,,,,,,,,,,,,,,,,15,,74,72
14640,note_on,,1,0,8,,,,,,,,,,,,,,,,6,,62,72
14669,note_on,,29,0,12,,,,,,,,,,,,,,,,11,,74,0
14669,note_on,,29,0,8,,,,,,,,,,,,,,,,6,,62,0
14670,note_on,,1,0,12,,,,,,,,,,,,,,,,11,,76,72
14670,note_on,,1,0,8,,,,,,,,,,,,,,,,6,,64,72
14699,note_on,,59,0,14,,,,,,,,,,,,,,,,13,,53,0
14699,note_on,,59,0,15,,,,,,,,,,,,,,,,15,,53,0
14699,note_on,,59,0,6,,,,,,,,,,,,,,,,2,,53,0
14699,note_on,,59,0,7,,,,,,,,,,,,,,,,5,,69,0
14699,note_on,,29,0,12,,,,,,,,,,,,,,,,11,,76,0
14699,note_on,,29,0,8,,,,,,,,,,,,,,,,6,,64,0
14699,note_on,,59,0,5,,,,,,,,,,,,,,,,1,,69,0
14699,note_on,,59,0,13,,,,,,,,,,,,,,,,12,,69,0
14699,note_on,,59,0,10,,,,,,,,,,,,,,,,8,,53,0
14699,note_on,,0,0,15,,,,,,,,,,,,,,,,15,,57,0
14699,note_on,,59,0,9,,,,,,,,,,,,,,,,7,,62,0
14700,note_on,,1,0,7,,,,,,,,,,,,,,,,5,,69,72
14700,note_on,,1,0,15,,,,,,,,,,,,,,,,15,,53,72
14700,note_on,,1,0,10,,,,,,,,,,,,,,,,8,,53,72
14700,note_on,,1,0,8,,,,,,,,,,,,,,,,6,,62,72
14700,note_on,,1,0,12,,,,,,,,,,,,,,,,11,,74,72
14700,note_on,,1,0,9,,,,,,,,,,,,,,,,7,,62,72
14700,note_on,,1,0,13,,,,,,,,,,,,,,,,12,,69,72
14700,note_on,,0,0,15,,,,,,,,,,,,,,,,15,,57,72
14700,note_on,,1,0,5,,,,,,,,,,,,,,,,1,,69,72
14700,note_on,,1,0,14,,,,,,,,,,,,,,,,13,,53,72
14700,note_on,,1,0,6,,,,,,,,,,,,,,,,2,,53,72
14729,note_on,,29,0,12,,,,,,,,,,,,,,,,11,,74,0
14729,note_on,,29,0,8,,,,,,,,,,,,,,,,6,,62,0
14729,note_on,,89,0,11,,,,,,,,,,,,,,,,10,,77,0
14730,note_on,,1,0,8,,,,,,,,,,,,,,,,6,,60,72
14730,note_on,,1,0,12,,,,,,,,,,,,,,,,11,,72,72
14759,note_on,,59,0,9,,,,,,,,,,,,,,,,7,,62,0
14759,note_on,,29,0,12,,,,,,,,,,,,,,,,11,,72,0
14759,note_on,,59,0,7,,,,,,,,,,,,,,,,5,,69,0
14759,note_on,,0,0,15,,,,,,,,,,,,,,,,15,,62,0
14759,note_on,,59,0,13,,,,,,,,,,,,,,,,12,,69,0
14759,note_on,,59,0,6,,,,,,,,,,,,,,,,2,,53,0
14759,note_on,,59,0,15,,,,,,,,,,,,,,,,15,,74,0
14759,note_on,,0,0,15,,,,,,,,,,,,,,,,15,,57,0
14759,note_on,,0,0,15,,,,,,,,,,,,,,,,15,,53,0
14759,note_on,,59,0,14,,,,,,,,,,,,,,,,13,,53,0
14759,note_on,,0,0,15,,,,,,,,,,,,,,,,15,,69,0
14759,note_on,,59,0,10,,,,,,,,,,,,,,,,8,,53,0
14759,note_on,,29,0,8,,,,,,,,,,,,,,,,6,,60,0
14759,note_on,,59,0,5,,,,,,,,,,,,,,,,1,,69,0
14760,note_on,,1,0,6,,,,,,,,,,,,,,,,2,,55,72
14760,note_on,,31,0,11,,,,,,,,,,,,,,,,10,,74,72
14760,note_on,,1,0,12,,,,,,,,,,,,,,,,11,,71,72
14760,note_on,,1,0,9,,,,,,,,,,,,,,,,7,,62,72
14760,note_on,,1,0,14,,,,,,,,,,,,,,,,13,,55,72
14760,note_on,,1,0,7,,,,,,,,,,,,,,,,5,,71,72
14760,note_on,,1,0,13,,,,,,,,,,,,,,,,12,,71,72
14760,note_on,,1,0,10,,,,,,,,,,,,,,,,8,,55,72
14760,note_on,,1,0,15,,,,,,,,,,,,,,,,15,,67,72
14760,note_on,,0,0,15,,,,,,,,,,,,,,,,15,,55,72
14760,note_on,,0,0,15,,,,,,,,,,,,,,,,15,,59,72
14760,note_on,,0,0,15,,,,,,,,,,,,,,,,15,,71,72
14760,note_on,,0,0,15,,,,,,,,,,,,,,,,15,,62,72
14760,note_on,,1,0,5,,,,,,,,,,,,,,,,1,,71,72
14760,note_on,,1,0,8,,,,,,,,,,,,,,,,6,,59,72
14789,note_on,,29,0,12,,,,,,,,,,,,,,,,11,,71,0
14790,note_on,,1,0,12,,,,,,,,,,,,,,,,11,,72,72
14819,note_on,,59,0,11,,,,,,,,,,,,,,,,10,,74,0
14819,note_on,,29,0,12,,,,,,,,,,,,,,,,11,,72,0
14819,note_on,,59,0,8,,,,,,,,,,,,,,,,6,,59,0
14820,note_on,,1,0,8,,,,,,,,,,,,,,,,6,,67,72
14820,note_on,,1,0,12,,,,,,,,,,,,,,,,11,,71,72
14820,note_on,,1,0,11,,,,,,,,,,,,,,,,10,,79,72
14849,note_on,,29,0,12,,,,,,,,,,,,,,,,11,,71,0
14850,note_on,,1,0,12,,,,,,,,,,,,,,,,11,,69,72
14879,note_on,,0,0,15,,,,,,,,,,,,,,,,15,,55,0
14879,note_on,,0,0,15,,,,,,,,,,,,,,,,15,,71,0
14879,note_on,,0,0,15,,,,,,,,,,,,,,,,15,,59,0
14879,note_on,,119,0,5,,,,,,,,,,,,,,,,1,,71,0
14879,note_on,,119,0,13,,,,,,,,,,,,,,,,12,,71,0
14879,note_on,,119,0,6,,,,,,,,,,,,,,,,2,,55,0
14879,note_on,,119,0,10,,,,,,,,,,,,,,,,8,,55,0
14879,note_on,,119,0,9,,,,,,,,,,,,,,,,7,,62,0
14879,note_on,,119,0,14,,,,,,,,,,,,,,,,13,,55,0
14879,note_on,,119,0,15,,,,,,,,,,,,,,,,15,,67,0
14879,note_on,,0,0,15,,,,,,,,,,,,,,,,15,,62,0
14879,note_on,,59,0,11,,,,,,,,,,,,,,,,10,,79,0
14879,note_on,,29,0,12,,,,,,,,,,,,,,,,11,,69,0
14879,note_on,,119,0,7,,,,,,,,,,,,,,,,5,,71,0
14880,note_on,,1,0,11,,,,,,,,,,,,,,,,10,,79,72
14880,note_on,,1,0,12,,,,,,,,,,,,,,,,11,,67,72
14909,note_on,,29,0,11,,,,,,,,,,,,,,,,10,,79,0
14909,note_on,,89,0,8,,,,,,,,,,,,,,,,6,,67,0
14910,note_on,,1,0,11,,,,,,,,,,,,,,,,10,,81,72
14910,note_on,,1,0,8,,,,,,,,,,,,,,,,6,,69,72
14939,note_on,,29,0,8,,,,,,,,,,,,,,,,6,,69,0
14939,note_on,,29,0,11,,,,,,,,,,,,,,,,10,,81,0
14940,note_on,,0,0,15,,,,,,,,,,,,,,,,15,,59,72
14940,note_on,,61,0,5,,,,,,,,,,,,,,,,1,,71,72
14940,note_on,,61,0,13,,,,,,,,,,,,,,,,12,,64,72
14940,note_on,,61,0,7,,,,,,,,,,,,,,,,5,,71,72
14940,note_on,,1,0,11,,,,,,,,,,,,,,,,10,,79,72
14940,note_on,,61,0,10,,,,,,,,,,,,,,,,8,,55,72
14940,note_on,,61,0,15,,,,,,,,,,,,,,,,15,,55,72
14940,note_on,,61,0,9,,,,,,,,,,,,,,,,7,,64,72
14940,note_on,,61,0,14,,,,,,,,,,,,,,,,13,,55,72
14940,note_on,,1,0,8,,,,,,,,,,,,,,,,6,,67,72
14940,note_on,,61,0,6,,,,,,,,,,,,,,,,2,,55,72
14969,note_on,,29,0,8,,,,,,,,,,,,,,,,6,,67,0
14969,note_on,,29,0,11,,,,,,,,,,,,,,,,10,,79,0
14970,note_on,,1,0,11,,,,,,,,,,,,,,,,10,,77,72
14970,note_on,,1,0,8,,,,,,,,,,,,,,,,6,,65,72
14999,note_on,,59,0,5,,,,,,,,,,,,,,,,1,,71,0
14999,note_on,,119,0,12,,,,,,,,,,,,,,,,11,,67,0
14999,note_on,,59,0,7,,,,,,,,,,,,,,,,5,,71,0
14999,note_on,,59,0,14,,,,,,,,,,,,,,,,13,,55,0
14999,note_on,,59,0,15,,,,,,,,,,,,,,,,15,,55,0
14999,note_on,,29,0,8,,,,,,,,,,,,,,,,6,,65,0
14999,note_on,,59,0,9,,,,,,,,,,,,,,,,7,,64,0
14999,note_on,,59,0,6,,,,,,,,,,,,,,,,2,,55,0
14999,note_on,,29,0,11,,,,,,,,,,,,,,,,10,,77,0
14999,note_on,,0,0,15,,,,,,,,,,,,,,,,15,,59,0
14999,note_on,,59,0,13,,,,,,,,,,,,,,,,12,,64,0
14999,note_on,,59,0,10,,,,,,,,,,,,,,,,8,,55,0
15000,note_on,,1,0,9,,,,,,,,,,,,,,,,7,,64,72
15000,note_on,,1,0,8,,,,,,,,,,,,,,,,6,,64,72
15000,note_on,,1,0,7,,,,,,,,,,,,,,,,5,,71,72
15000,note_on,,1,0,15,,,,,,,,,,,,,,,,15,,55,72
15000,note_on,,0,0,15,,,,,,,,,,,,,,,,15,,59,72
15000,note_on,,0,0,15,,,,,,,,,,,,,,,,15,,76,72
15000,note_on,,0,0,15,,,,,,,,,,,,,,,,15,,71,72
15000,note_on,,1,0,11,,,,,,,,,,,,,,,,10,,76,72
15000,note_on,,0,0,15,,,,,,,,,,,,,,,,15,,64,72
15000,note_on,,1,0,13,,,,,,,,,,,,,,,,12,,64,72
15000,note_on,,1,0,10,,,,,,,,,,,,,,,,8,,55,72
15000,note_on,,1,0,6,,,,,,,,,,,,,,,,2,,55,72
15000,note_on,,1,0,14,,,,,,,,,,,,,,,,13,,55,72
15000,note_on,,1,0,5,,,,,,,,,,,,,,,,1,,71,72
15029,note_on,,29,0,11,,,,,,,,,,,,,,,,10,,76,0
15029,note_on,,29,0,8,,,,,,,,,,,,,,,,6,,64,0
15030,note_on,,1,0,11,,,,,,,,,,,,,,,,10,,77,72
15030,note_on,,1,0,8,,,,,,,,,,,,,,,,6,,65,72
15059,note_on,,59,0,13,,,,,,,,,,,,,,,,12,,64,0
15059,note_on,,59,0,10,,,,,,,,,,,,,,,,8,,55,0
15059,note_on,,29,0,8,,,,,,,,,,,,,,,,6,,65,0
15059,note_on,,59,0,6,,,,,,,,,,,,,,,,2,,55,0
15059,note_on,,29,0,11,,,,,,,,,,,,,,,,10,,77,0
15059,note_on,,59,0,14,,,,,,,,,,,,,,,,13,,55,0
15059,note_on,,59,0,15,,,,,,,,,,,,,,,,15,,55,0
15059,note_on,,59,0,7,,,,,,,,,,,,,,,,5,,71,0
15059,note_on,,0,0,15,,,,,,,,,,,,,,,,15,,59,0
15059,note_on,,59,0,9,,,,,,,,,,,,,,,,7,,64,0
15059,note_on,,59,0,5,,,,,,,,,,,,,,,,1,,71,0
15060,note_on,,1,0,6,,,,,,,,,,,,,,,,2,,55,72
15060,note_on,,1,0,14,,,,,,,,,,,,,,,,13,,55,72
15060,note_on,,1,0,7,,,,,,,,,,,,,,,,5,,71,72
15060,note_on,,61,0,12,,,,,,,,,,,,,,,,11,,79,72
15060,note_on,,0,0,15,,,,,,,,,,,,,,,,15,,59,72
15060,note_on,,1,0,15,,,,,,,,,,,,,,,,15,,55,72
15060,note_on,,1,0,13,,,,,,,,,,,,,,,,12,,64,72
15060,note_on,,1,0,9,,,,,,,,,,,,,,,,7,,64,72
15060,note_on,,1,0,11,,,,,,,,,,,,,,,,10,,76,72
15060,note_on,,1,0,8,,,,,,,,,,,,,,,,6,,64,72
15060,note_on,,1,0,5,,,,,,,,,,,,,,,,1,,71,72
15060,note_on,,1,0,10,,,,,,,,,,,,,,,,8,,55,72
15089,note_on,,29,0,11,,,,,,,,,,,,,,,,10,,76,0
15089,note_on,,29,0,8,,,,,,,,,,,,,,,,6,,64,0
15090,note_on,,1,0,11,,,,,,,,,,,,,,,,10,,74,72
15090,note_on,,1,0,8,,,,,,,,,,,,,,,,6,,62,72
15119,note_on,,59,0,5,,,,,,,,,,,,,,,,1,,71,0
15119,note_on,,59,0,12,,,,,,,,,,,,,,,,11,,79,0
15119,note_on,,29,0,11,,,,,,,,,,,,,,,,10,,74,0
15119,note_on,,59,0,10,,,,,,,,,,,,,,,,8,,55,0
15119,note_on,,59,0,14,,,,,,,,,,,,,,,,13,,55,0
15119,note_on,,0,0,15,,,,,,,,,,,,,,,,15,,59,0
15119,note_on,,0,0,15,,,,,,,,,,,,,,,,15,,55,0
15119,note_on,,0,0,15,,,,,,,,,,,,,,,,15,,64,0
15119,note_on,,59,0,6,,,,,,,,,,,,,,,,2,,55,0
15119,note_on,,0,0,15,,,,,,,,,,,,,,,,15,,71,0
15119,note_on,,29,0,8,,,,,,,,,,,,,,,,6,,62,0
15119,note_on,,59,0,9,,,,,,,,,,,,,,,,7,,64,0
15119,note_on,,59,0,15,,,,,,,,,,,,,,,,15,,76,0
15119,note_on,,59,0,13,,,,,,,,,,,,,,,,12,,64,0
15119,note_on,,59,0,7,,,,,,,,,,,,,,,,5,,71,0
15120,note_on,,1,0,15,,,,,,,,,,,,,,,,15,,57,72
15120,note_on,,0,0,15,,,,,,,,,,,,,,,,15,,72,72
15120,note_on,,0,0,15,,,,,,,,,,,,,,,,15,,69,72
15120,note_on,,0,0,15,,,,,,,,,,,,,,,,15,,64,72
15120,note_on,,1,0,12,,,,,,,,,,,,,,,,11,,76,72
15120,note_on,,1,0,14,,,,,,,,,,,,,,,,13,,57,72
15120,note_on,,1,0,7,,,,,,,,,,,,,,,,5,,72,72
15120,note_on,,1,0,11,,,,,,,,,,,,,,,,10,,72,72
15120,note_on,,1,0,10,,,,,,,,,,,,,,,,8,,57,72
15120,note_on,,1,0,5,,,,,,,,,,,,,,,,1,,72,72
15120,note_on,,1,0,13,,,,,,,,,,,,,,,,12,,64,72
15120,note_on,,1,0,8,,,,,,,,,,,,,,,,6,,60,72
15120,note_on,,1,0,9,,,,,,,,,,,,,,,,7,,64,72
15120,note_on,,0,0,15,,,,,,,,,,,,,,,,15,,60,72
15120,note_on,,1,0,6,,,,,,,,,,,,,,,,2,,57,72
15149,note_on,,29,0,12,,,,,,,,,,,,,,,,11,,76,0
15150,note_on,,1,0,12,,,,,,,,,,,,,,,,11,,78,72
15179,note_on,,59,0,7,,,,,,,,,,,,,,,,5,,72,0
15179,note_on,,59,0,10,,,,,,,,,,,,,,,,8,,57,0
15179,note_on,,59,0,15,,,,,,,,,,,,,,,,15,,57,0
15179,note_on,,0,0,15,,,,,,,,,,,,,,,,15,,72,0
15179,note_on,,0,0,15,,,,,,,,,,,,,,,,15,,69,0
15179,note_on,,0,0,15,,,,,,,,,,,,,,,,15,,64,0
15179,note_on,,59,0,6,,,,,,,,,,,,,,,,2,,57,0
15179,note_on,,59,0,14,,,,,,,,,,,,,,,,13,,57,0
15179,note_on,,0,0,15,,,,,,,,,,,,,,,,15,,60,0
15179,note_on,,59,0,11,,,,,,,,,,,,,,,,10,,72,0
15179,note_on,,29,0,12,,,,,,,,,,,,,,,,11,,78,0
15179,note_on,,59,0,8,,,,,,,,,,,,,,,,6,,60,0
15179,note_on,,59,0,5,,,,,,,,,,,,,,,,1,,72,0
15179,note_on,,59,0,9,,,,,,,,,,,,,,,,7,,64,0
15179,note_on,,59,0,13,,,,,,,,,,,,,,,,12,,64,0
15180,note_on,,0,0,15,,,,,,,,,,,,,,,,15,,59,72
15180,note_on,,1,0,10,,,,,,,,,,,,,,,,8,,55,72
15180,note_on,,1,0,11,,,,,,,,,,,,,,,,10,,74,72
15180,note_on,,1,0,15,,,,,,,,,,,,,,,,15,,55,72
15180,note_on,,1,0,8,,,,,,,,,,,,,,,,6,,67,72
15180,note_on,,1,0,5,,,,,,,,,,,,,,,,1,,74,72
15180,note_on,,1,0,14,,,,,,,,,,,,,,,,13,,55,72
15180,note_on,,1,0,9,,,,,,,,,,,,,,,,7,,59,72
15180,note_on,,1,0,12,,,,,,,,,,,,,,,,11,,79,72
15180,note_on,,1,0,13,,,,,,,,,,,,,,,,12,,59,72
15180,note_on,,1,0,6,,,,,,,,,,,,,,,,2,,55,72
15180,note_on,,0,0,15,,,,,,,,,,,,,,,,15,,74,72
15180,note_on,,1,0,7,,,,,,,,,,,,,,,,5,,74,72
15180,note_on,,0,0,15,,,,,,,,,,,,,,,,15,,71,72
15180,note_on,,0,0,15,,,,,,,,,,,,,,,,15,,67,72
15239,note_on,,59,0,5,,,,,,,,,,,,,,,,1,,74,0
15239,note_on,,59,0,7,,,,,,,,,,,,,,,,5,,74,0
15239,note_on,,0,0,15,,,,,,,,,,,,,,,,15,,67,0
15239,note_on,,59,0,8,,,,,,,,,,,,,,,,6,,67,0
15239,note_on,,59,0,9,,,,,,,,,,,,,,,,7,,59,0
15239,note_on,,59,0,15,,,,,,,,,,,,,,,,15,,55,0
15239,note_on,,59,0,6,,,,,,,,,,,,,,,,2,,55,0
15239,note_on,,59,0,12,,,,,,,,,,,,,,,,11,,79,0
15239,note_on,,0,0,15,,,,,,,,,,,,,,,,15,,59,0
15239,note_on,,0,0,15,,,,,,,,,,,,,,,,15,,74,0
15239,note_on,,0,0,15,,,,,,,,,,,,,,,,15,,71,0
15239,note_on,,59,0,13,,,,,,,,,,,,,,,,12,,59,0
15239,note_on,,59,0,11,,,,,,,,,,,,,,,,10,,74,0
15239,note_on,,59,0,10,,,,,,,,,,,,,,,,8,,55,0
15239,note_on,,59,0,14,,,,,,,,,,,,,,,,13,,55,0
15240,note_on,,1,0,12,,,,,,,,,,,,,,,,11,,79,72
15240,note_on,,1,0,13,,,,,,,,,,,,,,,,12,,60,72
15240,note_on,,1,0,5,,,,,,,,,,,,,,,,1,,72,72
15240,note_on,,1,0,8,,,,,,,,,,,,,,,,6,,67,72
15240,note_on,,1,0,10,,,,,,,,,,,,,,,,8,,57,72
15240,note_on,,1,0,6,,,,,,,,,,,,,,,,2,,57,72
15240,note_on,,1,0,14,,,,,,,,,,,,,,,,13,,57,72
15240,note_on,,1,0,15,,,,,,,,,,,,,,,,15,,57,72
15240,note_on,,1,0,11,,,,,,,,,,,,,,,,10,,72,72
15240,note_on,,1,0,7,,,,,,,,,,,,,,,,5,,72,72
15240,note_on,,0,0,15,,,,,,,,,,,,,,,,15,,72,72
15240,note_on,,0,0,15,,,,,,,,,,,,,,,,15,,67,72
15240,note_on,,0,0,15,,,,,,,,,,,,,,,,15,,64,72
15240,note_on,,0,0,15,,,,,,,,,,,,,,,,15,,60,72
15240,note_on,,1,0,9,,,,,,,,,,,,,,,,7,,60,72
15359,note_on,,119,0,15,,,,,,,,,,,,,,,,15,,72,0
15359,note_on,,0,0,15,,,,,,,,,,,,,,,,15,,67,0
15359,note_on,,0,0,15,,,,,,,,,,,,,,,,15,,64,0
15359,note_on,,119,0,12,,,,,,,,,,,,,,,,11,,79,0
15359,note_on,,119,0,8,,,,,,,,,,,,,,,,6,,67,0
15360,note_on,,1,0,12,,,,,,,,,,,,,,,,11,,78,72
15360,note_on,,1,0,8,,,,,,,,,,,,,,,,6,,66,72
15360,note_on,,0,0,15,,,,,,,,,,,,,,,,15,,66,72
15360,note_on,,1,0,15,,,,,,,,,,,,,,,,15,,69,72
15479,note_on,,239,0,13,,,,,,,,,,,,,,,,12,,60,0
15479,note_on,,119,0,8,,,,,,,,,,,,,,,,6,,66,0
15479,note_on,,239,0,14,,,,,,,,,,,,,,,,13,,57,0
15479,note_on,,119,0,15,,,,,,,,,,,,,,,,15,,57,0
15479,note_on,,239,0,6,,,,,,,,,,,,,,,,2,,57,0
15479,note_on,,239,0,5,,,,,,,,,,,,,,,,1,,72,0
15479,note_on,,239,0,7,,,,,,,,,,,,,,,,5,,72,0
15479,note_on,,0,0,15,,,,,,,,,,,,,,,,15,,66,0
15479,note_on,,239,0,11,,,,,,,,,,,,,,,,10,,72,0
15479,note_on,,0,0,15,,,,,,,,,,,,,,,,15,,69,0
15479,note_on,,0,0,15,,,,,,,,,,,,,,,,15,,60,0
15479,note_on,,119,0,12,,,,,,,,,,,,,,,,11,,78,0
15479,note_on,,239,0,10,,,,,,,,,,,,,,,,8,,57,0
15479,note_on,,239,0,9,,,,,,,,,,,,,,,,7,,60,0
15480,note_on,,1,0,10,,,,,,,,,,,,,,,,8,,55,72
15480,note_on,,1,0,13,,,,,,,,,,,,,,,,12,,62,72
15480,note_on,,1,0,7,,,,,,,,,,,,,,,,5,,71,72
15480,note_on,,1,0,11,,,,,,,,,,,,,,,,10,,71,72
15480,note_on,,1,0,5,,,,,,,,,,,,,,,,1,,71,72
15480,note_on,,1,0,9,,,,,,,,,,,,,,,,7,,62,72
15480,note_on,,1,0,8,,,,,,,,,,,,,,,,6,,67,72
15480,note_on,,1,0,6,,,,,,,,,,,,,,,,2,,55,72
15480,note_on,,1,0,14,,,,,,,,,,,,,,,,13,,55,72
15480,note_on,,1,0,15,,,,,,,,,,,,,,,,15,,55,72
15480,note_on,,0,0,15,,,,,,,,,,,,,,,,15,,71,72
15480,note_on,,0,0,15,,,,,,,,,,,,,,,,15,,67,72
15480,note_on,,0,0,15,,,,,,,,,,,,,,,,15,,62,72
15480,note_on,,1,0,12,,,,,,,,,,,,,,,,11,,79,72
15599,note_on,,119,0,6,,,,,,,,,,,,,,,,2,,55,0
15599,note_on,,119,0,11,,,,,,,,,,,,,,,,10,,71,0
15599,note_on,,119,0,13,,,,,,,,,,,,,,,,12,,62,0
15599,note_on,,119,0,8,,,,,,,,,,,,,,,,6,,67,0
15599,note_on,,0,0,15,,,,,,,,,,,,,,,,15,,67,0
15599,note_on,,0,0,15,,,,,,,,,,,,,,,,15,,71,0
15599,note_on,,119,0,15,,,,,,,,,,,,,,,,15,,55,0
15599,note_on,,119,0,10,,,,,,,,,,,,,,,,8,,55,0
15599,note_on,,119,0,14,,,,,,,,,,,,,,,,13,,55,0
15599,note_on,,119,0,9,,,,,,,,,,,,,,,,7,,62,0
15599,note_on,,119,0,5,,,,,,,,,,,,,,,,1,,71,0
15599,note_on,,0,0,15,,,,,,,,,,,,,,,,15,,62,0
15599,note_on,,119,0,7,,,,,,,,,,,,,,,,5,,71,0
15599,note_on,,119,0,12,,,,,,,,,,,,,,,,11,,79,0
15600,note_on,,1,0,13,,,,,,,,,,,,,,,,12,,55,72
15600,note_on,,1,0,5,,,,,,,,,,,,,,,,1,,71,72
15600,note_on,,1,0,6,,,,,,,,,,,,,,,,2,,43,72
15600,note_on,,1,0,14,,,,,,,,,,,,,,,,13,,43,72
15600,note_on,,1,0,15,,,,,,,,,,,,,,,,15,,43,72
15600,note_on,,1,0,7,,,,,,,,,,,,,,,,5,,71,72
15600,note_on,,0,0,15,,,,,,,,,,,,,,,,15,,50,72
15600,note_on,,0,0,15,,,,,,,,,,,,,,,,15,,62,72
15600,note_on,,1,0,10,,,,,,,,,,,,,,,,8,,55,72
15600,note_on,,1,0,9,,,,,,,,,,,,,,,,7,,62,72
15600,note_on,,1,0,8,,,,,,,,,,,,,,,,6,,67,72
15600,note_on,,1,0,11,,,,,,,,,,,,,,,,10,,74,72
15600,note_on,,0,0,15,,,,,,,,,,,,,,,,15,,59,72
15600,note_on,,0,0,15,,,,,,,,,,,,,,,,15,,55,72
15659,note_on,,59,0,11,,,,,,,,,,,,,,,,10,,74,0
15660,note_on,,1,0,11,,,,,,,,,,,,,,,,10,,69,72
15719,note_on,,119,0,6,,,,,,,,,,,,,,,,2,,43,0
15719,note_on,,59,0,11,,,,,,,,,,,,,,,,10,,69,0
15719,note_on,,119,0,5,,,,,,,,,,,,,,,,1,,71,0
15719,note_on,,119,0,9,,,,,,,,,,,,,,,,7,,62,0
15719,note_on,,119,0,13,,,,,,,,,,,,,,,,12,,55,0
15719,note_on,,119,0,7,,,,,,,,,,,,,,,,5,,71,0
15719,note_on,,0,0,15,,,,,,,,,,,,,,,,15,,59,0
15719,note_on,,119,0,8,,,,,,,,,,,,,,,,6,,67,0
15719,note_on,,0,0,15,,,,,,,,,,,,,,,,15,,62,0
15719,note_on,,0,0,15,,,,,,,,,,,,,,,,15,,50,0
15719,note_on,,119,0,15,,,,,,,,,,,,,,,,15,,43,0
15719,note_on,,119,0,14,,,,,,,,,,,,,,,,13,,43,0
15719,note_on,,119,0,10,,,,,,,,,,,,,,,,8,,55,0
15719,note_on,,0,0,15,,,,,,,,,,,,,,,,15,,55,0
15720,note_on,,0,0,15,,,,,,,,,,,,,,,,15,,55,72
15720,note_on,,1,0,15,,,,,,,,,,,,,,,,15,,43,72
15720,note_on,,1,0,11,,,,,,,,,,,,,,,,10,,71,72
15720,note_on,,0,0,15,,,,,,,,,,,,,,,,15,,59,72
15720,note_on,,0,0,15,,,,,,,,,,,,,,,,15,,62,72
15720,note_on,,1,0,14,,,,,,,,,,,,,,,,13,,43,72
15720,note_on,,1,0,6,,,,,,,,,,,,,,,,2,,43,72
15720,note_on,,121,0,12,,,,,,,,,,,,,,,,11,,74,72
15720,note_on,,0,0,15,,,,,,,,,,,,,,,,15,,50,72
15779,note_on,,59,0,11,,,,,,,,,,,,,,,,10,,71,0
15779,note_on,,59,0,12,,,,,,,,,,,,,,,,11,,74,0
15780,note_on,,1,0,12,,,,,,,,,,,,,,,,11,,69,72
15780,note_on,,1,0,11,,,,,,,,,,,,,,,,10,,66,72
15839,note_on,,119,0,15,,,,,,,,,,,,,,,,15,,43,0
15839,note_on,,0,0,15,,,,,,,,,,,,,,,,15,,50,0
15839,note_on,,0,0,15,,,,,,,,,,,,,,,,15,,59,0
15839,note_on,,59,0,12,,,,,,,,,,,,,,,,11,,69,0
15839,note_on,,0,0,15,,,,,,,,,,,,,,,,15,,62,0
15839,note_on,,0,0,15,,,,,,,,,,,,,,,,15,,55,0
15839,note_on,,119,0,14,,,,,,,,,,,,,,,,13,,43,0
15839,note_on,,59,0,11,,,,,,,,,,,,,,,,10,,66,0
15839,note_on,,119,0,6,,,,,,,,,,,,,,,,2,,43,0
15840,note_on,,1,0,6,,,,,,,,,,,,,,,,2,,43,72
15840,note_on,,0,0,15,,,,,,,,,,,,,,,,15,,50,72
15840,note_on,,1,0,14,,,,,,,,,,,,,,,,13,,43,72
15840,note_on,,1,0,12,,,,,,,,,,,,,,,,11,,71,72
15840,note_on,,121,0,9,,,,,,,,,,,,,,,,7,,67,72
15840,note_on,,1,0,11,,,,,,,,,,,,,,,,10,,67,72
15840,note_on,,1,0,15,,,,,,,,,,,,,,,,15,,43,72
15840,note_on,,0,0,15,,,,,,,,,,,,,,,,15,,62,72
15840,note_on,,0,0,15,,,,,,,,,,,,,,,,15,,59,72
15840,note_on,,0,0,15,,,,,,,,,,,,,,,,15,,55,72
15899,note_on,,59,0,12,,,,,,,,,,,,,,,,11,,71,0
15899,note_on,,59,0,9,,,,,,,,,,,,,,,,7,,67,0
15899,note_on,,59,0,11,,,,,,,,,,,,,,,,10,,67,0
15900,note_on,,1,0,11,,,,,,,,,,,,,,,,10,,62,72
15900,note_on,,1,0,9,,,,,,,,,,,,,,,,7,,62,72
15900,note_on,,1,0,12,,,,,,,,,,,,,,,,11,,66,72
15959,note_on,,0,0,15,,,,,,,,,,,,,,,,15,,59,0
15959,note_on,,119,0,15,,,,,,,,,,,,,,,,15,,50,0
15959,note_on,,0,0,15,,,,,,,,,,,,,,,,15,,62,0
15959,note_on,,0,0,15,,,,,,,,,,,,,,,,15,,55,0
15959,note_on,,59,0,9,,,,,,,,,,,,,,,,7,,62,0
15959,note_on,,59,0,12,,,,,,,,,,,,,,,,11,,66,0
15959,note_on,,59,0,11,,,,,,,,,,,,,,,,10,,62,0
15960,note_on,,1,0,12,,,,,,,,,,,,,,,,11,,67,72
15960,note_on,,1,0,9,,,,,,,,,,,,,,,,7,,64,72
15960,note_on,,241,0,13,,,,,,,,,,,,,,,,12,,55,72
15960,note_on,,1,0,15,,,,,,,,,,,,,,,,15,,64,72
15960,note_on,,0,0,15,,,,,,,,,,,,,,,,15,,55,72
15960,note_on,,241,0,10,,,,,,,,,,,,,,,,8,,55,72
15960,note_on,,1,0,11,,,,,,,,,,,,,,,,10,,64,72
16019,note_on,,59,0,10,,,,,,,,,,,,,,,,8,,55,0
16019,note_on,,59,0,11,,,,,,,,,,,,,,,,10,,64,0
16019,note_on,,59,0,9,,,,,,,,,,,,,,,,7,,64,0
16019,note_on,,0,0,15,,,,,,,,,,,,,,,,15,,55,0
16019,note_on,,59,0,15,,,,,,,,,,,,,,,,15,,64,0
16019,note_on,,59,0,13,,,,,,,,,,,,,,,,12,,55,0
16020,note_on,,0,0,15,,,,,,,,,,,,,,,,15,,50,72
16020,note_on,,0,0,15,,,,,,,,,,,,,,,,15,,55,72
16020,note_on,,1,0,15,,,,,,,,,,,,,,,,15,,59,72
16020,note_on,,1,0,13,,,,,,,,,,,,,,,,12,,50,72
16020,note_on,,1,0,9,,,,,,,,,,,,,,,,7,,59,72
16020,note_on,,1,0,10,,,,,,,,,,,,,,,,8,,50,72
16020,note_on,,1,0,11,,,,,,,,,,,,,,,,10,,59,72
16079,note_on,,59,0,15,,,,,,,,,,,,,,,,15,,59,0
16079,note_on,,0,0,15,,,,,,,,,,,,,,,,15,,50,0
16079,note_on,,59,0,13,,,,,,,,,,,,,,,,12,,50,0
16079,note_on,,119,0,12,,,,,,,,,,,,,,,,11,,67,0
16079,note_on,,59,0,11,,,,,,,,,,,,,,,,10,,59,0
16079,note_on,,59,0,9,,,,,,,,,,,,,,,,7,,59,0
16079,note_on,,59,0,10,,,,,,,,,,,,,,,,8,,50,0
16080,note_on,,0,0,15,,,,,,,,,,,,,,,,15,,52,72
16080,note_on,,1,0,10,,,,,,,,,,,,,,,,8,,52,72
16080,note_on,,1,0,13,,,,,,,,,,,,,,,,12,,52,72
16080,note_on,,1,0,15,,,,,,,,,,,,,,,,15,,60,72
16080,note_on,,1,0,11,,,,,,,,,,,,,,,,10,,60,72
16080,note_on,,1,0,9,,,,,,,,,,,,,,,,7,,60,72
16139,note_on,,59,0,15,,,,,,,,,,,,,,,,15,,55,0
16139,note_on,,59,0,13,,,,,,,,,,,,,,,,12,,52,0
16139,note_on,,0,0,15,,,,,,,,,,,,,,,,15,,52,0
16139,note_on,,59,0,9,,,,,,,,,,,,,,,,7,,60,0
16139,note_on,,59,0,11,,,,,,,,,,,,,,,,10,,60,0
16139,note_on,,59,0,10,,,,,,,,,,,,,,,,8,,52,0
16139,note_on,,0,0,15,,,,,,,,,,,,,,,,15,,60,0
16140,note_on,,1,0,13,,,,,,,,,,,,,,,,12,,54,72
16140,note_on,,1,0,9,,,,,,,,,,,,,,,,7,,62,72
16140,note_on,,0,0,15,,,,,,,,,,,,,,,,15,,62,72
16140,note_on,,0,0,15,,,,,,,,,,,,,,,,15,,57,72
16140,note_on,,1,0,10,,,,,,,,,,,,,,,,8,,54,72
16140,note_on,,1,0,11,,,,,,,,,,,,,,,,10,,62,72
16140,note_on,,1,0,15,,,,,,,,,,,,,,,,15,,54,72
16199,note_on,,59,0,15,,,,,,,,,,,,,,,,15,,54,0
16199,note_on,,0,0,15,,,,,,,,,,,,,,,,15,,57,0
16199,note_on,,59,0,10,,,,,,,,,,,,,,,,8,,54,0
16199,note_on,,59,0,13,,,,,,,,,,,,,,,,12,,54,0
16199,note_on,,59,0,9,,,,,,,,,,,,,,,,7,,62,0
16199,note_on,,59,0,11,,,,,,,,,,,,,,,,10,,62,0
16200,note_on,,1,0,10,,,,,,,,,,,,,,,,8,,55,72
16200,note_on,,1,0,13,,,,,,,,,,,,,,,,12,,55,72
16200,note_on,,1,0,9,,,,,,,,,,,,,,,,7,,59,72
16200,note_on,,1,0,11,,,,,,,,,,,,,,,,10,,59,72
16200,note_on,,481,0,7,,,,,,,,,,,,,,,,5,,79,72
16200,note_on,,481,0,5,,,,,,,,,,,,,,,,1,,79,72
16200,note_on,,121,0,12,,,,,,,,,,,,,,,,11,,79,72
16200,note_on,,0,0,15,,,,,,,,,,,,,,,,15,,55,72
16200,note_on,,1,0,15,,,,,,,,,,,,,,,,15,,59,72
16259,note_on,,59,0,5,,,,,,,,,,,,,,,,1,,79,0
16259,note_on,,59,0,12,,,,,,,,,,,,,,,,11,,79,0
16259,note_on,,59,0,7,,,,,,,,,,,,,,,,5,,79,0
16259,note_on,,59,0,9,,,,,,,,,,,,,,,,7,,59,0
16260,note_on,,1,0,12,,,,,,,,,,,,,,,,11,,74,72
16260,note_on,,1,0,5,,,,,,,,,,,,,,,,1,,74,72
16260,note_on,,1,0,7,,,,,,,,,,,,,,,,5,,74,72
16260,note_on,,1,0,9,,,,,,,,,,,,,,,,7,,57,72
16319,note_on,,0,0,15,,,,,,,,,,,,,,,,15,,59,0
16319,note_on,,119,0,15,,,,,,,,,,,,,,,,15,,62,0
16319,note_on,,59,0,7,,,,,,,,,,,,,,,,5,,74,0
16319,note_on,,119,0,11,,,,,,,,,,,,,,,,10,,59,0
16319,note_on,,59,0,12,,,,,,,,,,,,,,,,11,,74,0
16319,note_on,,59,0,9,,,,,,,,,,,,,,,,7,,57,0
16319,note_on,,119,0,13,,,,,,,,,,,,,,,,12,,55,0
16319,note_on,,59,0,5,,,,,,,,,,,,,,,,1,,74,0
16320,note_on,,1,0,9,,,,,,,,,,,,,,,,7,,55,72
16320,note_on,,1,0,11,,,,,,,,,,,,,,,,10,,79,72
16320,note_on,,1,0,7,,,,,,,,,,,,,,,,5,,76,72
16320,note_on,,1,0,12,,,,,,,,,,,,,,,,11,,76,72
16320,note_on,,1,0,5,,,,,,,,,,,,,,,,1,,76,72
16320,note_on,,1,0,15,,,,,,,,,,,,,,,,15,,67,72
16320,note_on,,0,0,15,,,,,,,,,,,,,,,,15,,59,72
16320,note_on,,601,0,8,,,,,,,,,,,,,,,,6,,67,72
16379,note_on,,59,0,7,,,,,,,,,,,,,,,,5,,76,0
16379,note_on,,59,0,11,,,,,,,,,,,,,,,,10,,79,0
16379,note_on,,59,0,12,,,,,,,,,,,,,,,,11,,76,0
16379,note_on,,59,0,8,,,,,,,,,,,,,,,,6,,67,0
16379,note_on,,59,0,5,,,,,,,,,,,,,,,,1,,76,0
16380,note_on,,1,0,8,,,,,,,,,,,,,,,,6,,62,72
16380,note_on,,1,0,7,,,,,,,,,,,,,,,,5,,71,72
16380,note_on,,1,0,5,,,,,,,,,,,,,,,,1,,71,72
16380,note_on,,1,0,12,,,,,,,,,,,,,,,,11,,71,72
16380,note_on,,1,0,11,,,,,,,,,,,,,,,,10,,74,72
16439,note_on,,59,0,5,,,,,,,,,,,,,,,,1,,71,0
16439,note_on,,119,0,15,,,,,,,,,,,,,,,,15,,59,0
16439,note_on,,59,0,7,,,,,,,,,,,,,,,,5,,71,0
16439,note_on,,119,0,9,,,,,,,,,,,,,,,,7,,55,0
16439,note_on,,59,0,8,,,,,,,,,,,,,,,,6,,62,0
16439,note_on,,59,0,11,,,,,,,,,,,,,,,,10,,74,0
16439,note_on,,59,0,12,,,,,,,,,,,,,,,,11,,71,0
16440,note_on,,1,0,7,,,,,,,,,,,,,,,,5,,72,72
16440,note_on,,1,0,11,,,,,,,,,,,,,,,,10,,76,72
16440,note_on,,1,0,8,,,,,,,,,,,,,,,,6,,64,72
16440,note_on,,0,0,15,,,,,,,,,,,,,,,,15,,57,72
16440,note_on,,1,0,15,,,,,,,,,,,,,,,,15,,60,72
16440,note_on,,1,0,5,,,,,,,,,,,,,,,,1,,72,72
16440,note_on,,1,0,12,,,,,,,,,,,,,,,,11,,72,72
16499,note_on,,59,0,5,,,,,,,,,,,,,,,,1,,72,0
16499,note_on,,59,0,11,,,,,,,,,,,,,,,,10,,76,0
16499,note_on,,59,0,8,,,,,,,,,,,,,,,,6,,64,0
16499,note_on,,59,0,12,,,,,,,,,,,,,,,,11,,72,0
16499,note_on,,59,0,7,,,,,,,,,,,,,,,,5,,72,0
16500,note_on,,1,0,8,,,,,,,,,,,,,,,,6,,66,72
16500,note_on,,1,0,5,,,,,,,,,,,,,,,,1,,74,72
16500,note_on,,1,0,11,,,,,,,,,,,,,,,,10,,78,72
16500,note_on,,1,0,12,,,,,,,,,,,,,,,,11,,74,72
16500,note_on,,1,0,7,,,,,,,,,,,,,,,,5,,74,72
16559,note_on,,59,0,5,,,,,,,,,,,,,,,,1,,74,0
16559,note_on,,359,0,10,,,,,,,,,,,,,,,,8,,55,0
16559,note_on,,59,0,12,,,,,,,,,,,,,,,,11,,74,0
16559,note_on,,0,0,15,,,,,,,,,,,,,,,,15,,60,0
16559,note_on,,0,0,15,,,,,,,,,,,,,,,,15,,57,0
16559,note_on,,59,0,8,,,,,,,,,,,,,,,,6,,66,0
16559,note_on,,119,0,15,,,,,,,,,,,,,,,,15,,55,0
16559,note_on,,59,0,7,,,,,,,,,,,,,,,,5,,74,0
16559,note_on,,59,0,11,,,,,,,,,,,,,,,,10,,78,0
16560,note_on,,1,0,12,,,,,,,,,,,,,,,,11,,71,72
16560,note_on,,1,0,15,,,,,,,,,,,,,,,,15,,62,72
16560,note_on,,1,0,7,,,,,,,,,,,,,,,,5,,71,72
16560,note_on,,1,0,8,,,,,,,,,,,,,,,,6,,67,72
16560,note_on,,241,0,13,,,,,,,,,,,,,,,,12,,62,72
16560,note_on,,0,0,15,,,,,,,,,,,,,,,,15,,59,72
16560,note_on,,1,0,5,,,,,,,,,,,,,,,,1,,71,72
16560,note_on,,1,0,10,,,,,,,,,,,,,,,,8,,62,72
16560,note_on,,1,0,11,,,,,,,,,,,,,,,,10,,79,72
16649,note_on,,89,0,7,,,,,,,,,,,,,,,,5,,71,0
16649,note_on,,89,0,5,,,,,,,,,,,,,,,,1,,71,0
16650,note_on,,1,0,5,,,,,,,,,,,,,,,,1,,69,72
16650,note_on,,1,0,7,,,,,,,,,,,,,,,,5,,69,72
16679,note_on,,0,0,15,,,,,,,,,,,,,,,,15,,62,0
16679,note_on,,0,0,15,,,,,,,,,,,,,,,,15,,59,0
16679,note_on,,119,0,15,,,,,,,,,,,,,,,,15,,67,0
16679,note_on,,29,0,5,,,,,,,,,,,,,,,,1,,69,0
16679,note_on,,29,0,7,,,,,,,,,,,,,,,,5,,69,0
16679,note_on,,119,0,11,,,,,,,,,,,,,,,,10,,79,0
16679,note_on,,119,0,13,,,,,,,,,,,,,,,,12,,62,0
16679,note_on,,119,0,12,,,,,,,,,,,,,,,,11,,71,0
16679,note_on,,119,0,8,,,,,,,,,,,,,,,,6,,67,0
16679,note_on,,119,0,10,,,,,,,,,,,,,,,,8,,62,0
16680,note_on,,1,0,11,,,,,,,,,,,,,,,,10,,67,72
16680,note_on,,1,0,15,,,,,,,,,,,,,,,,15,,50,72
16680,note_on,,0,0,15,,,,,,,,,,,,,,,,15,,62,72
16680,note_on,,1,0,12,,,,,,,,,,,,,,,,11,,62,72
16680,note_on,,1,0,5,,,,,,,,,,,,,,,,1,,67,72
16680,note_on,,0,0,15,,,,,,,,,,,,,,,,15,,67,72
16680,note_on,,0,0,15,,,,,,,,,,,,,,,,15,,71,72
16680,note_on,,241,0,9,,,,,,,,,,,,,,,,7,,62,72
16680,note_on,,1,0,7,,,,,,,,,,,,,,,,5,,67,72
16680,note_on,,1,0,10,,,,,,,,,,,,,,,,8,,59,72
16680,note_on,,1,0,13,,,,,,,,,,,,,,,,12,,59,72
16799,note_on,,119,0,15,,,,,,,,,,,,,,,,15,,50,0
16799,note_on,,119,0,11,,,,,,,,,,,,,,,,10,,67,0
16799,note_on,,0,0,15,,,,,,,,,,,,,,,,15,,71,0
16799,note_on,,119,0,7,,,,,,,,,,,,,,,,5,,67,0
16799,note_on,,119,0,10,,,,,,,,,,,,,,,,8,,59,0
16799,note_on,,0,0,15,,,,,,,,,,,,,,,,15,,62,0
16799,note_on,,119,0,13,,,,,,,,,,,,,,,,12,,59,0
16799,note_on,,119,0,5,,,,,,,,,,,,,,,,1,,67,0
16799,note_on,,119,0,12,,,,,,,,,,,,,,,,11,,62,0
16799,note_on,,119,0,9,,,,,,,,,,,,,,,,7,,62,0
16799,note_on,,0,0,15,,,,,,,,,,,,,,,,15,,67,0
16800,note_on,,1,0,10,,,,,,,,,,,,,,,,8,,55,72
16800,note_on,,0,0,15,,,,,,,,,,,,,,,,15,,67,72
16800,note_on,,1,0,12,,,,,,,,,,,,,,,,11,,59,72
16800,note_on,,0,0,15,,,,,,,,,,,,,,,,15,,74,72
16800,note_on,,0,0,15,,,,,,,,,,,,,,,,15,,62,72
16800,note_on,,1,0,15,,,,,,,,,,,,,,,,15,,47,72
16800,note_on,,1,0,13,,,,,,,,,,,,,,,,12,,55,72
16800,note_on,,1,0,9,,,,,,,,,,,,,,,,7,,59,72
16919,note_on,,0,0,15,,,,,,,,,,,,,,,,15,,74,0
16919,note_on,,119,0,15,,,,,,,,,,,,,,,,15,,43,0
16919,note_on,,0,0,15,,,,,,,,,,,,,,,,15,,62,0
16919,note_on,,0,0,15,,,,,,,,,,,,,,,,15,,47,0
16919,note_on,,0,0,15,,,,,,,,,,,,,,,,15,,67,0
16919,note_on,,119,0,12,,,,,,,,,,,,,,,,11,,59,0
16919,note_on,,119,0,10,,,,,,,,,,,,,,,,8,,55,0
16919,note_on,,1079,0,6,,,,,,,,,,,,,,,,2,,43,0
16919,note_on,,119,0,13,,,,,,,,,,,,,,,,12,,55,0
16919,note_on,,1079,0,14,,,,,,,,,,,,,,,,13,,43,0
16919,note_on,,119,0,9,,,,,,,,,,,,,,,,7,,59,0
16920,note_on,,1,0,12,,,,,,,,,,,,,,,,11,,55,72
16920,note_on,,0,0,15,,,,,,,,,,,,,,,,15,,67,72
16920,note_on,,1,0,15,,,,,,,,,,,,,,,,15,,48,72
16920,note_on,,0,0,15,,,,,,,,,,,,,,,,15,,60,72
16920,note_on,,0,0,15,,,,,,,,,,,,,,,,15,,64,72
16920,note_on,,1,0,13,,,,,,,,,,,,,,,,12,,52,72
16920,note_on,,1,0,9,,,,,,,,,,,,,,,,7,,55,72
16920,note_on,,121,0,11,,,,,,,,,,,,,,,,10,,79,72
16920,note_on,,121,0,5,,,,,,,,,,,,,,,,1,,79,72
16920,note_on,,1,0,10,,,,,,,,,,,,,,,,8,,52,72
16920,note_on,,1,0,14,,,,,,,,,,,,,,,,13,,48,72
16920,note_on,,121,0,7,,,,,,,,,,,,,,,,5,,79,72
16920,note_on,,1,0,6,,,,,,,,,,,,,,,,2,,48,72
16920,note_on,,0,0,15,,,,,,,,,,,,,,,,15,,55,72
16979,note_on,,59,0,10,,,,,,,,,,,,,,,,8,,52,0
16980,note_on,,1,0,10,,,,,,,,,,,,,,,,8,,48,72
17009,note_on,,89,0,11,,,,,,,,,,,,,,,,10,,79,0
17039,note_on,,0,0,15,,,,,,,,,,,,,,,,15,,60,0
17039,note_on,,0,0,15,,,,,,,,,,,,,,,,15,,64,0
17039,note_on,,119,0,5,,,,,,,,,,,,,,,,1,,79,0
17039,note_on,,0,0,15,,,,,,,,,,,,,,,,15,,67,0
17039,note_on,,119,0,9,,,,,,,,,,,,,,,,7,,55,0
17039,note_on,,119,0,15,,,,,,,,,,,,,,,,15,,48,0
17039,note_on,,119,0,13,,,,,,,,,,,,,,,,12,,52,0
17039,note_on,,0,0,15,,,,,,,,,,,,,,,,15,,55,0
17039,note_on,,59,0,10,,,,,,,,,,,,,,,,8,,48,0
17039,note_on,,119,0,12,,,,,,,,,,,,,,,,11,,55,0
17039,note_on,,119,0,6,,,,,,,,,,,,,,,,2,,48,0
17039,note_on,,119,0,7,,,,,,,,,,,,,,,,5,,79,0
17039,note_on,,119,0,14,,,,,,,,,,,,,,,,13,,48,0
17040,note_on,,1,0,14,,,,,,,,,,,,,,,,13,,48,72
17040,note_on,,1,0,13,,,,,,,,,,,,,,,,12,,60,72
17040,note_on,,1,0,5,,,,,,,,,,,,,,,,1,,76,72
17040,note_on,,0,0,15,,,,,,,,,,,,,,,,15,,64,72
17040,note_on,,0,0,15,,,,,,,,,,,,,,,,15,,67,72
17040,note_on,,0,0,15,,,,,,,,,,,,,,,,15,,72,72
17040,note_on,,0,0,15,,,,,,,,,,,,,,,,15,,55,72
17040,note_on,,1,0,15,,,,,,,,,,,,,,,,15,,48,72
17040,note_on,,1,0,7,,,,,,,,,,,,,,,,5,,76,72
17040,note_on,,31,0,11,,,,,,,,,,,,,,,,10,,76,72
17040,note_on,,1,0,12,,,,,,,,,,,,,,,,11,,67,72
17040,note_on,,1,0,9,,,,,,,,,,,,,,,,7,,60,72
17040,note_on,,1,0,6,,,,,,,,,,,,,,,,2,,48,72
17040,note_on,,1,0,10,,,,,,,,,,,,,,,,8,,48,72
17040,note_on,,361,0,8,,,,,,,,,,,,,,,,6,,67,72
17129,note_on,,89,0,11,,,,,,,,,,,,,,,,10,,76,0
17159,note_on,,119,0,8,,,,,,,,,,,,,,,,6,,67,0
17159,note_on,,119,0,7,,,,,,,,,,,,,,,,5,,76,0
17159,note_on,,119,0,5,,,,,,,,,,,,,,,,1,,76,0
17159,note_on,,119,0,12,,,,,,,,,,,,,,,,11,,67,0
17160,note_on,,1,0,5,,,,,,,,,,,,,,,,1,,72,72
17160,note_on,,31,0,11,,,,,,,,,,,,,,,,10,,72,72
17160,note_on,,1,0,8,,,,,,,,,,,,,,,,6,,64,72
17160,note_on,,1,0,7,,,,,,,,,,,,,,,,5,,72,72
17160,note_on,,1,0,12,,,,,,,,,,,,,,,,11,,64,72
17219,note_on,,179,0,6,,,,,,,,,,,,,,,,2,,48,0
17219,note_on,,179,0,13,,,,,,,,,,,,,,,,12,,60,0
17219,note_on,,179,0,9,,,,,,,,,,,,,,,,7,,60,0
17219,note_on,,179,0,14,,,,,,,,,,,,,,,,13,,48,0
17219,note_on,,179,0,10,,,,,,,,,,,,,,,,8,,48,0
17219,note_on,,179,0,15,,,,,,,,,,,,,,,,15,,48,0
17219,note_on,,0,0,15,,,,,,,,,,,,,,,,15,,55,0
17219,note_on,,0,0,15,,,,,,,,,,,,,,,,15,,72,0
17219,note_on,,0,0,15,,,,,,,,,,,,,,,,15,,67,0
17219,note_on,,0,0,15,,,,,,,,,,,,,,,,15,,64,0
17220,note_on,,0,0,15,,,,,,,,,,,,,,,,15,,67,72
17220,note_on,,1,0,10,,,,,,,,,,,,,,,,8,,48,72
17220,note_on,,0,0,15,,,,,,,,,,,,,,,,15,,72,72
17220,note_on,,1,0,6,,,,,,,,,,,,,,,,2,,48,72
17220,note_on,,1,0,13,,,,,,,,,,,,,,,,12,,60,72
17220,note_on,,1,0,9,,,,,,,,,,,,,,,,7,,60,72
17220,note_on,,0,0,15,,,,,,,,,,,,,,,,15,,55,72
17220,note_on,,1,0,14,,,,,,,,,,,,,,,,13,,48,72
17220,note_on,,0,0,15,,,,,,,,,,,,,,,,15,,64,72
17220,note_on,,1,0,15,,,,,,,,,,,,,,,,15,,48,72
17249,note_on,,89,0,11,,,,,,,,,,,,,,,,10,,72,0
17279,note_on,,59,0,10,,,,,,,,,,,,,,,,8,,48,0
17279,note_on,,119,0,8,,,,,,,,,,,,,,,,6,,64,0
17279,note_on,,0,0,15,,,,,,,,,,,,,,,,15,,67,0
17279,note_on,,119,0,7,,,,,,,,,,,,,,,,5,,72,0
17279,note_on,,0,0,15,,,,,,,,,,,,,,,,15,,64,0
17279,note_on,,59,0,15,,,,,,,,,,,,,,,,15,,48,0
17279,note_on,,59,0,9,,,,,,,,,,,,,,,,7,,60,0
17279,note_on,,0,0,15,,,,,,,,,,,,,,,,15,,55,0
17279,note_on,,59,0,6,,,,,,,,,,,,,,,,2,,48,0
17279,note_on,,0,0,15,,,,,,,,,,,,,,,,15,,72,0
17279,note_on,,59,0,14,,,,,,,,,,,,,,,,13,,48,0
17279,note_on,,119,0,5,,,,,,,,,,,,,,,,1,,72,0
17279,note_on,,119,0,12,,,,,,,,,,,,,,,,11,,64,0
17279,note_on,,59,0,13,,,,,,,,,,,,,,,,12,,60,0
17280,note_on,,0,0,15,,,,,,,,,,,,,,,,15,,65,72
17280,note_on,,0,0,15,,,,,,,,,,,,,,,,15,,69,72
17280,note_on,,1,0,15,,,,,,,,,,,,,,,,15,,53,72
17280,note_on,,0,0,15,,,,,,,,,,,,,,,,15,,60,72
17280,note_on,,0,0,15,,,,,,,,,,,,,,,,15,,57,72
17280,note_on,,1,0,12,,,,,,,,,,,,,,,,11,,60,72
17280,note_on,,1,0,8,,,,,,,,,,,,,,,,6,,60,72
17280,note_on,,1,0,7,,,,,,,,,,,,,,,,5,,69,72
17280,note_on,,1,0,13,,,,,,,,,,,,,,,,12,,60,72
17280,note_on,,1,0,10,,,,,,,,,,,,,,,,8,,53,72
17280,note_on,,1,0,6,,,,,,,,,,,,,,,,2,,53,72
17280,note_on,,31,0,11,,,,,,,,,,,,,,,,10,,69,72
17280,note_on,,1,0,14,,,,,,,,,,,,,,,,13,,53,72
17280,note_on,,1,0,5,,,,,,,,,,,,,,,,1,,69,72
17280,note_on,,1,0,9,,,,,,,,,,,,,,,,7,,60,72
17339,note_on,,59,0,8,,,,,,,,,,,,,,,,6,,60,0
17339,note_on,,59,0,11,,,,,,,,,,,,,,,,10,,69,0
17339,note_on,,59,0,5,,,,,,,,,,,,,,,,1,,69,0
17339,note_on,,59,0,12,,,,,,,,,,,,,,,,11,,60,0
17339,note_on,,59,0,9,,,,,,,,,,,,,,,,7,,60,0
17339,note_on,,59,0,13,,,,,,,,,,,,,,,,12,,60,0
17339,note_on,,59,0,7,,,,,,,,,,,,,,,,5,,69,0
17340,note_on,,1,0,13,,,,,,,,,,,,,,,,12,,62,72
17340,note_on,,1,0,12,,,,,,,,,,,,,,,,11,,57,72
17340,note_on,,1,0,11,,,,,,,,,,,,,,,,10,,77,72
17340,note_on,,1,0,8,,,,,,,,,,,,,,,,6,,57,72
17340,note_on,,1,0,7,,,,,,,,,,,,,,,,5,,77,72
17340,note_on,,1,0,9,,,,,,,,,,,,,,,,7,,62,72
17340,note_on,,1,0,5,,,,,,,,,,,,,,,,1,,77,72
17399,note_on,,119,0,15,,,,,,,,,,,,,,,,15,,57,0
17399,note_on,,59,0,13,,,,,,,,,,,,,,,,12,,62,0
17399,note_on,,59,0,8,,,,,,,,,,,,,,,,6,,57,0
17399,note_on,,59,0,9,,,,,,,,,,,,,,,,7,,62,0
17399,note_on,,119,0,10,,,,,,,,,,,,,,,,8,,53,0
17399,note_on,,59,0,11,,,,,,,,,,,,,,,,10,,77,0
17399,note_on,,59,0,12,,,,,,,,,,,,,,,,11,,57,0
17400,note_on,,1,0,11,,,,,,,,,,,,,,,,10,,77,72
17400,note_on,,1,0,12,,,,,,,,,,,,,,,,11,,69,72
17400,note_on,,1,0,13,,,,,,,,,,,,,,,,12,,62,72
17400,note_on,,1,0,9,,,,,,,,,,,,,,,,7,,62,72
17400,note_on,,1,0,8,,,,,,,,,,,,,,,,6,,69,72
17429,note_on,,89,0,5,,,,,,,,,,,,,,,,1,,77,0
17429,note_on,,29,0,11,,,,,,,,,,,,,,,,10,,77,0
17429,note_on,,89,0,7,,,,,,,,,,,,,,,,5,,77,0
17430,note_on,,1,0,5,,,,,,,,,,,,,,,,1,,79,72
17430,note_on,,1,0,11,,,,,,,,,,,,,,,,10,,79,72
17430,note_on,,1,0,7,,,,,,,,,,,,,,,,5,,79,72
17459,note_on,,60,0,15,,,,,,,,,,,,,,,,15,,53,0
17459,note_on,,29,0,11,,,,,,,,,,,,,,,,10,,79,0
17459,note_on,,179,0,6,,,,,,,,,,,,,,,,2,,53,0
17459,note_on,,29,0,5,,,,,,,,,,,,,,,,1,,79,0
17459,note_on,,29,0,7,,,,,,,,,,,,,,,,5,,79,0
17459,note_on,,179,0,14,,,,,,,,,,,,,,,,13,,53,0
17460,note_on,,61,0,10,,,,,,,,,,,,,,,,8,,53,72
17460,note_on,,1,0,11,,,,,,,,,,,,,,,,10,,77,72
17460,note_on,,1,0,7,,,,,,,,,,,,,,,,5,,77,72
17460,note_on,,1,0,5,,,,,,,,,,,,,,,,1,,77,72
17460,note_on,,1,0,15,,,,,,,,,,,,,,,,15,,53,72
17460,note_on,,0,0,15,,,,,,,,,,,,,,,,15,,57,72
17460,note_on,,1,0,14,,,,,,,,,,,,,,,,13,,53,72
17460,note_on,,1,0,6,,,,,,,,,,,,,,,,2,,53,72
17489,note_on,,29,0,11,,,,,,,,,,,,,,,,10,,77,0
17489,note_on,,29,0,5,,,,,,,,,,,,,,,,1,,77,0
17489,note_on,,29,0,7,,,,,,,,,,,,,,,,5,,77,0
17490,note_on,,1,0,11,,,,,,,,,,,,,,,,10,,76,72
17490,note_on,,1,0,5,,,,,,,,,,,,,,,,1,,76,72
17490,note_on,,1,0,7,,,,,,,,,,,,,,,,5,,76,72
17519,note_on,,59,0,14,,,,,,,,,,,,,,,,13,,53,0
17519,note_on,,59,0,10,,,,,,,,,,,,,,,,8,,53,0
17519,note_on,,29,0,7,,,,,,,,,,,,,,,,5,,76,0
17519,note_on,,0,0,15,,,,,,,,,,,,,,,,15,,60,0
17519,note_on,,0,0,15,,,,,,,,,,,,,,,,15,,53,0
17519,note_on,,0,0,15,,,,,,,,,,,,,,,,15,,57,0
17519,note_on,,0,0,15,,,,,,,,,,,,,,,,15,,65,0
17519,note_on,,29,0,11,,,,,,,,,,,,,,,,10,,76,0
17519,note_on,,59,0,6,,,,,,,,,,,,,,,,2,,53,0
17519,note_on,,59,0,15,,,,,,,,,,,,,,,,15,,69,0
17519,note_on,,29,0,5,,,,,,,,,,,,,,,,1,,76,0
17520,note_on,,1,0,6,,,,,,,,,,,,,,,,2,,53,72
17520,note_on,,0,0,15,,,,,,,,,,,,,,,,15,,74,72
17520,note_on,,1,0,7,,,,,,,,,,,,,,,,5,,74,72
17520,note_on,,0,0,15,,,,,,,,,,,,,,,,15,,57,72
17520,note_on,,1,0,5,,,,,,,,,,,,,,,,1,,74,72
17520,note_on,,0,0,15,,,,,,,,,,,,,,,,15,,69,72
17520,note_on,,1,0,15,,,,,,,,,,,,,,,,15,,53,72
17520,note_on,,1,0,14,,,,,,,,,,,,,,,,13,,53,72
17520,note_on,,1,0,11,,,,,,,,,,,,,,,,10,,74,72
17520,note_on,,1,0,10,,,,,,,,,,,,,,,,8,,53,72
17520,note_on,,0,0,15,,,,,,,,,,,,,,,,15,,62,72
17549,note_on,,29,0,11,,,,,,,,,,,,,,,,10,,74,0
17549,note_on,,29,0,7,,,,,,,,,,,,,,,,5,,74,0
17549,note_on,,29,0,5,,,,,,,,,,,,,,,,1,,74,0
17550,note_on,,1,0,5,,,,,,,,,,,,,,,,1,,76,72
17550,note_on,,1,0,11,,,,,,,,,,,,,,,,10,,76,72
17550,note_on,,1,0,7,,,,,,,,,,,,,,,,5,,76,72
17579,note_on,,179,0,8,,,,,,,,,,,,,,,,6,,69,0
17579,note_on,,0,0,15,,,,,,,,,,,,,,,,15,,57,0
17579,note_on,,29,0,7,,,,,,,,,,,,,,,,5,,76,0
17579,note_on,,59,0,15,,,,,,,,,,,,,,,,15,,53,0
17579,note_on,,29,0,11,,,,,,,,,,,,,,,,10,,76,0
17579,note_on,,59,0,6,,,,,,,,,,,,,,,,2,,53,0
17579,note_on,,59,0,10,,,,,,,,,,,,,,,,8,,53,0
17579,note_on,,179,0,9,,,,,,,,,,,,,,,,7,,62,0
17579,note_on,,179,0,13,,,,,,,,,,,,,,,,12,,62,0
17579,note_on,,179,0,12,,,,,,,,,,,,,,,,11,,69,0
17579,note_on,,29,0,5,,,,,,,,,,,,,,,,1,,76,0
17579,note_on,,59,0,14,,,,,,,,,,,,,,,,13,,53,0
17580,note_on,,1,0,12,,,,,,,,,,,,,,,,11,,69,72
17580,note_on,,1,0,5,,,,,,,,,,,,,,,,1,,74,72
17580,note_on,,1,0,15,,,,,,,,,,,,,,,,15,,53,72
17580,note_on,,1,0,14,,,,,,,,,,,,,,,,13,,53,72
17580,note_on,,1,0,6,,,,,,,,,,,,,,,,2,,53,72
17580,note_on,,1,0,13,,,,,,,,,,,,,,,,12,,62,72
17580,note_on,,1,0,10,,,,,,,,,,,,,,,,8,,53,72
17580,note_on,,1,0,11,,,,,,,,,,,,,,,,10,,74,72
17580,note_on,,0,0,15,,,,,,,,,,,,,,,,15,,57,72
17580,note_on,,1,0,9,,,,,,,,,,,,,,,,7,,62,72
17580,note_on,,1,0,7,,,,,,,,,,,,,,,,5,,74,72
17580,note_on,,1,0,8,,,,,,,,,,,,,,,,6,,69,72
17609,note_on,,29,0,11,,,,,,,,,,,,,,,,10,,74,0
17609,note_on,,29,0,5,,,,,,,,,,,,,,,,1,,74,0
17609,note_on,,29,0,7,,,,,,,,,,,,,,,,5,,74,0
17610,note_on,,1,0,7,,,,,,,,,,,,,,,,5,,72,72
17610,note_on,,1,0,11,,,,,,,,,,,,,,,,10,,72,72
17610,note_on,,1,0,5,,,,,,,,,,,,,,,,1,,72,72
17639,note_on,,59,0,10,,,,,,,,,,,,,,,,8,,53,0
17639,note_on,,59,0,13,,,,,,,,,,,,,,,,12,,62,0
17639,note_on,,0,0,15,,,,,,,,,,,,,,,,15,,57,0
17639,note_on,,59,0,12,,,,,,,,,,,,,,,,11,,69,0
17639,note_on,,59,0,6,,,,,,,,,,,,,,,,2,,53,0
17639,note_on,,0,0,15,,,,,,,,,,,,,,,,15,,53,0
17639,note_on,,29,0,7,,,,,,,,,,,,,,,,5,,72,0
17639,note_on,,59,0,9,,,,,,,,,,,,,,,,7,,62,0
17639,note_on,,59,0,8,,,,,,,,,,,,,,,,6,,69,0
17639,note_on,,59,0,14,,,,,,,,,,,,,,,,13,,53,0
17639,note_on,,29,0,5,,,,,,,,,,,,,,,,1,,72,0
17639,note_on,,29,0,11,,,,,,,,,,,,,,,,10,,72,0
17639,note_on,,0,0,15,,,,,,,,,,,,,,,,15,,69,0
17639,note_on,,59,0,15,,,,,,,,,,,,,,,,15,,74,0
17639,note_on,,0,0,15,,,,,,,,,,,,,,,,15,,62,0
17640,note_on,,1,0,15,,,,,,,,,,,,,,,,15,,55,72
17640,note_on,,1,0,13,,,,,,,,,,,,,,,,12,,62,72
17640,note_on,,1,0,11,,,,,,,,,,,,,,,,10,,71,72
17640,note_on,,1,0,5,,,,,,,,,,,,,,,,1,,71,72
17640,note_on,,1,0,8,,,,,,,,,,,,,,,,6,,67,72
17640,note_on,,1,0,7,,,,,,,,,,,,,,,,5,,71,72
17640,note_on,,0,0,15,,,,,,,,,,,,,,,,15,,67,72
17640,note_on,,0,0,15,,,,,,,,,,,,,,,,15,,62,72
17640,note_on,,0,0,15,,,,,,,,,,,,,,,,15,,59,72
17640,note_on,,1,0,10,,,,,,,,,,,,,,,,8,,55,72
17640,note_on,,1,0,14,,,,,,,,,,,,,,,,13,,55,72
17640,note_on,,1,0,6,,,,,,,,,,,,,,,,2,,55,72
17640,note_on,,1,0,12,,,,,,,,,,,,,,,,11,,67,72
17640,note_on,,1,0,9,,,,,,,,,,,,,,,,7,,62,72
17640,note_on,,0,0,15,,,,,,,,,,,,,,,,15,,71,72
17699,note_on,,59,0,11,,,,,,,,,,,,,,,,10,,71,0
17699,note_on,,59,0,7,,,,,,,,,,,,,,,,5,,71,0
17699,note_on,,59,0,13,,,,,,,,,,,,,,,,12,,62,0
17699,note_on,,59,0,5,,,,,,,,,,,,,,,,1,,71,0
17699,note_on,,59,0,9,,,,,,,,,,,,,,,,7,,62,0
17700,note_on,,1,0,7,,,,,,,,,,,,,,,,5,,79,72
17700,note_on,,1,0,5,,,,,,,,,,,,,,,,1,,79,72
17700,note_on,,1,0,11,,,,,,,,,,,,,,,,10,,79,72
17700,note_on,,1,0,9,,,,,,,,,,,,,,,,7,,64,72
17700,note_on,,1,0,13,,,,,,,,,,,,,,,,12,,64,72
17759,note_on,,119,0,10,,,,,,,,,,,,,,,,8,,55,0
17759,note_on,,59,0,11,,,,,,,,,,,,,,,,10,,79,0
17759,note_on,,59,0,9,,,,,,,,,,,,,,,,7,,64,0
17759,note_on,,59,0,13,,,,,,,,,,,,,,,,12,,64,0
17759,note_on,,119,0,15,,,,,,,,,,,,,,,,15,,59,0
17759,note_on,,119,0,12,,,,,,,,,,,,,,,,11,,67,0
17759,note_on,,119,0,8,,,,,,,,,,,,,,,,6,,67,0
17760,note_on,,1,0,13,,,,,,,,,,,,,,,,12,,64,72
17760,note_on,,1,0,9,,,,,,,,,,,,,,,,7,,64,72
17760,note_on,,1,0,11,,,,,,,,,,,,,,,,10,,79,72
17789,note_on,,29,0,11,,,,,,,,,,,,,,,,10,,79,0
17789,note_on,,89,0,5,,,,,,,,,,,,,,,,1,,79,0
17789,note_on,,89,0,7,,,,,,,,,,,,,,,,5,,79,0
17790,note_on,,1,0,11,,,,,,,,,,,,,,,,10,,81,72
17790,note_on,,1,0,7,,,,,,,,,,,,,,,,5,,81,72
17790,note_on,,1,0,5,,,,,,,,,,,,,,,,1,,81,72
17819,note_on,,179,0,6,,,,,,,,,,,,,,,,2,,55,0
17819,note_on,,179,0,14,,,,,,,,,,,,,,,,13,,55,0
17819,note_on,,29,0,11,,,,,,,,,,,,,,,,10,,81,0
17819,note_on,,29,0,7,,,,,,,,,,,,,,,,5,,81,0
17819,note_on,,60,0,15,,,,,,,,,,,,,,,,15,,55,0
17819,note_on,,29,0,5,,,,,,,,,,,,,,,,1,,81,0
17820,note_on,,1,0,11,,,,,,,,,,,,,,,,10,,79,72
17820,note_on,,1,0,7,,,,,,,,,,,,,,,,5,,79,72
17820,note_on,,1,0,15,,,,,,,,,,,,,,,,15,,55,72
17820,note_on,,61,0,8,,,,,,,,,,,,,,,,6,,71,72
17820,note_on,,61,0,12,,,,,,,,,,,,,,,,11,,71,72
17820,note_on,,1,0,6,,,,,,,,,,,,,,,,2,,55,72
17820,note_on,,1,0,14,,,,,,,,,,,,,,,,13,,55,72
17820,note_on,,61,0,10,,,,,,,,,,,,,,,,8,,55,72
17820,note_on,,0,0,15,,,,,,,,,,,,,,,,15,,59,72
17820,note_on,,1,0,5,,,,,,,,,,,,,,,,1,,79,72
17849,note_on,,29,0,7,,,,,,,,,,,,,,,,5,,79,0
17849,note_on,,29,0,5,,,,,,,,,,,,,,,,1,,79,0
17849,note_on,,29,0,11,,,,,,,,,,,,,,,,10,,79,0
17850,note_on,,1,0,5,,,,,,,,,,,,,,,,1,,77,72
17850,note_on,,1,0,7,,,,,,,,,,,,,,,,5,,77,72
17850,note_on,,1,0,11,,,,,,,,,,,,,,,,10,,77,72
17879,note_on,,0,0,15,,,,,,,,,,,,,,,,15,,62,0
17879,note_on,,59,0,14,,,,,,,,,,,,,,,,13,,55,0
17879,note_on,,29,0,11,,,,,,,,,,,,,,,,10,,77,0
17879,note_on,,59,0,8,,,,,,,,,,,,,,,,6,,71,0
17879,note_on,,0,0,15,,,,,,,,,,,,,,,,15,,67,0
17879,note_on,,0,0,15,,,,,,,,,,,,,,,,15,,55,0
17879,note_on,,0,0,15,,,,,,,,,,,,,,,,15,,59,0
17879,note_on,,59,0,12,,,,,,,,,,,,,,,,11,,71,0
17879,note_on,,29,0,7,,,,,,,,,,,,,,,,5,,77,0
17879,note_on,,59,0,6,,,,,,,,,,,,,,,,2,,55,0
17879,note_on,,59,0,15,,,,,,,,,,,,,,,,15,,71,0
17879,note_on,,29,0,5,,,,,,,,,,,,,,,,1,,77,0
17879,note_on,,59,0,10,,,,,,,,,,,,,,,,8,,55,0
17880,note_on,,1,0,5,,,,,,,,,,,,,,,,1,,76,72
17880,note_on,,1,0,15,,,,,,,,,,,,,,,,15,,55,72
17880,note_on,,0,0,15,,,,,,,,,,,,,,,,15,,59,72
17880,note_on,,0,0,15,,,,,,,,,,,,,,,,15,,67,72
17880,note_on,,1,0,14,,,,,,,,,,,,,,,,13,,55,72
17880,note_on,,1,0,6,,,,,,,,,,,,,,,,2,,55,72
17880,note_on,,1,0,12,,,,,,,,,,,,,,,,11,,71,72
17880,note_on,,0,0,15,,,,,,,,,,,,,,,,15,,71,72
17880,note_on,,1,0,7,,,,,,,,,,,,,,,,5,,76,72
17880,note_on,,1,0,8,,,,,,,,,,,,,,,,6,,71,72
17880,note_on,,1,0,11,,,,,,,,,,,,,,,,10,,76,72
17880,note_on,,1,0,10,,,,,,,,,,,,,,,,8,,55,72
17880,note_on,,0,0,15,,,,,,,,,,,,,,,,15,,76,72
17909,note_on,,29,0,5,,,,,,,,,,,,,,,,1,,76,0
17909,note_on,,29,0,7,,,,,,,,,,,,,,,,5,,76,0
17909,note_on,,29,0,11,,,,,,,,,,,,,,,,10,,76,0
17910,note_on,,1,0,5,,,,,,,,,,,,,,,,1,,77,72
17910,note_on,,1,0,11,,,,,,,,,,,,,,,,10,,77,72
17910,note_on,,1,0,7,,,,,,,,,,,,,,,,5,,77,72
17939,note_on,,0,0,15,,,,,,,,,,,,,,,,15,,59,0
17939,note_on,,59,0,6,,,,,,,,,,,,,,,,2,,55,0
17939,note_on,,59,0,15,,,,,,,,,,,,,,,,15,,55,0
17939,note_on,,29,0,7,,,,,,,,,,,,,,,,5,,77,0
17939,note_on,,179,0,9,,,,,,,,,,,,,,,,7,,64,0
17939,note_on,,59,0,8,,,,,,,,,,,,,,,,6,,71,0
17939,note_on,,179,0,13,,,,,,,,,,,,,,,,12,,64,0
17939,note_on,,59,0,10,,,,,,,,,,,,,,,,8,,55,0
17939,note_on,,59,0,14,,,,,,,,,,,,,,,,13,,55,0
17939,note_on,,29,0,5,,,,,,,,,,,,,,,,1,,77,0
17939,note_on,,59,0,12,,,,,,,,,,,,,,,,11,,71,0
17939,note_on,,29,0,11,,,,,,,,,,,,,,,,10,,77,0
17940,note_on,,0,0,15,,,,,,,,,,,,,,,,15,,59,72
17940,note_on,,1,0,15,,,,,,,,,,,,,,,,15,,55,72
17940,note_on,,1,0,6,,,,,,,,,,,,,,,,2,,55,72
17940,note_on,,1,0,14,,,,,,,,,,,,,,,,13,,55,72
17940,note_on,,1,0,12,,,,,,,,,,,,,,,,11,,71,72
17940,note_on,,1,0,10,,,,,,,,,,,,,,,,8,,55,72
17940,note_on,,1,0,7,,,,,,,,,,,,,,,,5,,76,72
17940,note_on,,1,0,13,,,,,,,,,,,,,,,,12,,64,72
17940,note_on,,1,0,11,,,,,,,,,,,,,,,,10,,76,72
17940,note_on,,1,0,5,,,,,,,,,,,,,,,,1,,76,72
17940,note_on,,1,0,8,,,,,,,,,,,,,,,,6,,71,72
17940,note_on,,1,0,9,,,,,,,,,,,,,,,,7,,64,72
17969,note_on,,29,0,5,,,,,,,,,,,,,,,,1,,76,0
17969,note_on,,29,0,7,,,,,,,,,,,,,,,,5,,76,0
17969,note_on,,29,0,11,,,,,,,,,,,,,,,,10,,76,0
17970,note_on,,1,0,7,,,,,,,,,,,,,,,,5,,74,72
17970,note_on,,1,0,11,,,,,,,,,,,,,,,,10,,74,72
17970,note_on,,1,0,5,,,,,,,,,,,,,,,,1,,74,72
17999,note_on,,59,0,14,,,,,,,,,,,,,,,,13,,55,0
17999,note_on,,59,0,13,,,,,,,,,,,,,,,,12,,64,0
17999,note_on,,29,0,7,,,,,,,,,,,,,,,,5,,74,0
17999,note_on,,59,0,12,,,,,,,,,,,,,,,,11,,71,0
17999,note_on,,59,0,8,,,,,,,,,,,,,,,,6,,71,0
17999,note_on,,29,0,11,,,,,,,,,,,,,,,,10,,74,0
17999,note_on,,0,0,15,,,,,,,,,,,,,,,,15,,59,0
17999,note_on,,59,0,6,,,,,,,,,,,,,,,,2,,55,0
17999,note_on,,29,0,5,,,,,,,,,,,,,,,,1,,74,0
17999,note_on,,59,0,15,,,,,,,,,,,,,,,,15,,76,0
17999,note_on,,59,0,10,,,,,,,,,,,,,,,,8,,55,0
17999,note_on,,59,0,9,,,,,,,,,,,,,,,,7,,64,0
17999,note_on,,0,0,15,,,,,,,,,,,,,,,,15,,71,0
17999,note_on,,0,0,15,,,,,,,,,,,,,,,,15,,67,0
17999,note_on,,0,0,15,,,,,,,,,,,,,,,,15,,55,0
18000,note_on,,0,0,15,,,,,,,,,,,,,,,,15,,64,72
18000,note_on,,1,0,11,,,,,,,,,,,,,,,,10,,72,72
18000,note_on,,1,0,14,,,,,,,,,,,,,,,,13,,57,72
18000,note_on,,1,0,5,,,,,,,,,,,,,,,,1,,72,72
18000,note_on,,1,0,7,,,,,,,,,,,,,,,,5,,72,72
18000,note_on,,0,0,15,,,,,,,,,,,,,,,,15,,60,72
18000,note_on,,0,0,15,,,,,,,,,,,,,,,,15,,69,72
18000,note_on,,1,0,13,,,,,,,,,,,,,,,,12,,64,72
18000,note_on,,0,0,15,,,,,,,,,,,,,,,,15,,72,72
18000,note_on,,1,0,15,,,,,,,,,,,,,,,,15,,57,72
18000,note_on,,1,0,8,,,,,,,,,,,,,,,,6,,69,72
18000,note_on,,1,0,9,,,,,,,,,,,,,,,,7,,64,72
18000,note_on,,1,0,6,,,,,,,,,,,,,,,,2,,57,72
18000,note_on,,1,0,12,,,,,,,,,,,,,,,,11,,69,72
18000,note_on,,1,0,10,,,,,,,,,,,,,,,,8,,57,72
18029,note_on,,29,0,5,,,,,,,,,,,,,,,,1,,72,0
18029,note_on,,29,0,7,,,,,,,,,,,,,,,,5,,72,0
18029,note_on,,29,0,11,,,,,,,,,,,,,,,,10,,72,0
18030,note_on,,1,0,5,,,,,,,,,,,,,,,,1,,71,72
18030,note_on,,1,0,7,,,,,,,,,,,,,,,,5,,71,72
18030,note_on,,1,0,11,,,,,,,,,,,,,,,,10,,71,72
18059,note_on,,29,0,7,,,,,,,,,,,,,,,,5,,71,0
18059,note_on,,29,0,5,,,,,,,,,,,,,,,,1,,71,0
18059,note_on,,29,0,11,,,,,,,,,,,,,,,,10,,71,0
18060,note_on,,1,0,7,,,,,,,,,,,,,,,,5,,69,72
18060,note_on,,1,0,5,,,,,,,,,,,,,,,,1,,69,72
18060,note_on,,1,0,11,,,,,,,,,,,,,,,,10,,69,72
18089,note_on,,29,0,7,,,,,,,,,,,,,,,,5,,69,0
18089,note_on,,29,0,11,,,,,,,,,,,,,,,,10,,69,0
18089,note_on,,29,0,5,,,,,,,,,,,,,,,,1,,69,0
18090,note_on,,1,0,7,,,,,,,,,,,,,,,,5,,71,72
18090,note_on,,1,0,5,,,,,,,,,,,,,,,,1,,71,72
18090,note_on,,1,0,11,,,,,,,,,,,,,,,,10,,71,72
18119,note_on,,119,0,12,,,,,,,,,,,,,,,,11,,69,0
18119,note_on,,119,0,9,,,,,,,,,,,,,,,,7,,64,0
18119,note_on,,119,0,8,,,,,,,,,,,,,,,,6,,69,0
18119,note_on,,119,0,10,,,,,,,,,,,,,,,,8,,57,0
18119,note_on,,119,0,13,,,,,,,,,,,,,,,,12,,64,0
18119,note_on,,29,0,7,,,,,,,,,,,,,,,,5,,71,0
18119,note_on,,29,0,5,,,,,,,,,,,,,,,,1,,71,0
18119,note_on,,119,0,15,,,,,,,,,,,,,,,,15,,60,0
18119,note_on,,29,0,11,,,,,,,,,,,,,,,,10,,71,0
18120,note_on,,1,0,7,,,,,,,,,,,,,,,,5,,72,72
18120,note_on,,1,0,11,,,,,,,,,,,,,,,,10,,72,72
18120,note_on,,1,0,5,,,,,,,,,,,,,,,,1,,72,72
18149,note_on,,29,0,11,,,,,,,,,,,,,,,,10,,72,0
18149,note_on,,29,0,5,,,,,,,,,,,,,,,,1,,72,0
18149,note_on,,29,0,7,,,,,,,,,,,,,,,,5,,72,0
18150,note_on,,1,0,5,,,,,,,,,,,,,,,,1,,74,72
18150,note_on,,1,0,11,,,,,,,,,,,,,,,,10,,74,72
18150,note_on,,1,0,7,,,,,,,,,,,,,,,,5,,74,72
18179,note_on,,29,0,7,,,,,,,,,,,,,,,,5,,74,0
18179,note_on,,179,0,6,,,,,,,,,,,,,,,,2,,57,0
18179,note_on,,60,0,15,,,,,,,,,,,,,,,,15,,57,0
18179,note_on,,29,0,11,,,,,,,,,,,,,,,,10,,74,0
18179,note_on,,29,0,5,,,,,,,,,,,,,,,,1,,74,0
18179,note_on,,179,0,14,,,,,,,,,,,,,,,,13,,57,0
18180,note_on,,0,0,15,,,,,,,,,,,,,,,,15,,60,72
18180,note_on,,61,0,12,,,,,,,,,,,,,,,,11,,69,72
18180,note_on,,61,0,13,,,,,,,,,,,,,,,,12,,64,72
18180,note_on,,1,0,6,,,,,,,,,,,,,,,,2,,57,72
18180,note_on,,1,0,11,,,,,,,,,,,,,,,,10,,72,72
18180,note_on,,61,0,8,,,,,,,,,,,,,,,,6,,69,72
18180,note_on,,1,0,15,,,,,,,,,,,,,,,,15,,57,72
18180,note_on,,1,0,5,,,,,,,,,,,,,,,,1,,72,72
18180,note_on,,1,0,14,,,,,,,,,,,,,,,,13,,57,72
18180,note_on,,61,0,10,,,,,,,,,,,,,,,,8,,57,72
18180,note_on,,61,0,9,,,,,,,,,,,,,,,,7,,64,72
18180,note_on,,1,0,7,,,,,,,,,,,,,,,,5,,72,72
18209,note_on,,29,0,5,,,,,,,,,,,,,,,,1,,72,0
18209,note_on,,29,0,11,,,,,,,,,,,,,,,,10,,72,0
18209,note_on,,29,0,7,,,,,,,,,,,,,,,,5,,72,0
18210,note_on,,1,0,11,,,,,,,,,,,,,,,,10,,74,72
18210,note_on,,1,0,5,,,,,,,,,,,,,,,,1,,74,72
18210,note_on,,1,0,7,,,,,,,,,,,,,,,,5,,74,72
18239,note_on,,29,0,5,,,,,,,,,,,,,,,,1,,74,0
18239,note_on,,59,0,8,,,,,,,,,,,,,,,,6,,69,0
18239,note_on,,0,0,15,,,,,,,,,,,,,,,,15,,64,0
18239,note_on,,0,0,15,,,,,,,,,,,,,,,,15,,69,0
18239,note_on,,59,0,15,,,,,,,,,,,,,,,,15,,72,0
18239,note_on,,59,0,14,,,,,,,,,,,,,,,,13,,57,0
18239,note_on,,59,0,12,,,,,,,,,,,,,,,,11,,69,0
18239,note_on,,59,0,10,,,,,,,,,,,,,,,,8,,57,0
18239,note_on,,59,0,9,,,,,,,,,,,,,,,,7,,64,0
18239,note_on,,59,0,13,,,,,,,,,,,,,,,,12,,64,0
18239,note_on,,0,0,15,,,,,,,,,,,,,,,,15,,60,0
18239,note_on,,0,0,15,,,,,,,,,,,,,,,,15,,57,0
18239,note_on,,29,0,7,,,,,,,,,,,,,,,,5,,74,0
18239,note_on,,29,0,11,,,,,,,,,,,,,,,,10,,74,0
18239,note_on,,59,0,6,,,,,,,,,,,,,,,,2,,57,0
18240,note_on,,1,0,7,,,,,,,,,,,,,,,,5,,76,72
18240,note_on,,1,0,13,,,,,,,,,,,,,,,,12,,60,72
18240,note_on,,0,0,15,,,,,,,,,,,,,,,,15,,60,72
18240,note_on,,1,0,15,,,,,,,,,,,,,,,,15,,57,72
18240,note_on,,1,0,11,,,,,,,,,,,,,,,,10,,76,72
18240,note_on,,1,0,12,,,,,,,,,,,,,,,,11,,69,72
18240,note_on,,1,0,6,,,,,,,,,,,,,,,,2,,57,72
18240,note_on,,1,0,10,,,,,,,,,,,,,,,,8,,57,72
18240,note_on,,1,0,5,,,,,,,,,,,,,,,,1,,76,72
18240,note_on,,0,0,15,,,,,,,,,,,,,,,,15,,64,72
18240,note_on,,1,0,9,,,,,,,,,,,,,,,,7,,60,72
18240,note_on,,1,0,14,,,,,,,,,,,,,,,,13,,57,72
18240,note_on,,1,0,8,,,,,,,,,,,,,,,,6,,69,72
18240,note_on,,0,0,15,,,,,,,,,,,,,,,,15,,69,72
18269,note_on,,29,0,11,,,,,,,,,,,,,,,,10,,76,0
18269,note_on,,29,0,5,,,,,,,,,,,,,,,,1,,76,0
18269,note_on,,29,0,7,,,,,,,,,,,,,,,,5,,76,0
18270,note_on,,1,0,11,,,,,,,,,,,,,,,,10,,78,72
18270,note_on,,1,0,5,,,,,,,,,,,,,,,,1,,78,72
18270,note_on,,1,0,7,,,,,,,,,,,,,,,,5,,78,72
18299,note_on,,29,0,7,,,,,,,,,,,,,,,,5,,78,0
18299,note_on,,0,0,15,,,,,,,,,,,,,,,,15,,60,0
18299,note_on,,59,0,13,,,,,,,,,,,,,,,,12,,60,0
18299,note_on,,59,0,8,,,,,,,,,,,,,,,,6,,69,0
18299,note_on,,59,0,12,,,,,,,,,,,,,,,,11,,69,0
18299,note_on,,29,0,11,,,,,,,,,,,,,,,,10,,78,0
18299,note_on,,59,0,14,,,,,,,,,,,,,,,,13,,57,0
18299,note_on,,59,0,9,,,,,,,,,,,,,,,,7,,60,0
18299,note_on,,59,0,6,,,,,,,,,,,,,,,,2,,57,0
18299,note_on,,29,0,5,,,,,,,,,,,,,,,,1,,78,0
18299,note_on,,59,0,10,,,,,,,,,,,,,,,,8,,57,0
18299,note_on,,59,0,15,,,,,,,,,,,,,,,,15,,57,0
18300,note_on,,1,0,5,,,,,,,,,,,,,,,,1,,76,72
18300,note_on,,1,0,13,,,,,,,,,,,,,,,,12,,60,72
18300,note_on,,1,0,8,,,,,,,,,,,,,,,,6,,69,72
18300,note_on,,1,0,11,,,,,,,,,,,,,,,,10,,76,72
18300,note_on,,1,0,6,,,,,,,,,,,,,,,,2,,57,72
18300,note_on,,1,0,7,,,,,,,,,,,,,,,,5,,76,72
18300,note_on,,1,0,9,,,,,,,,,,,,,,,,7,,60,72
18300,note_on,,1,0,14,,,,,,,,,,,,,,,,13,,57,72
18300,note_on,,1,0,12,,,,,,,,,,,,,,,,11,,69,72
18300,note_on,,0,0,15,,,,,,,,,,,,,,,,15,,60,72
18300,note_on,,1,0,15,,,,,,,,,,,,,,,,15,,57,72
18300,note_on,,1,0,10,,,,,,,,,,,,,,,,8,,57,72
18329,note_on,,29,0,7,,,,,,,,,,,,,,,,5,,76,0
18329,note_on,,29,0,11,,,,,,,,,,,,,,,,10,,76,0
18329,note_on,,29,0,5,,,,,,,,,,,,,,,,1,,76,0
18330,note_on,,1,0,7,,,,,,,,,,,,,,,,5,,78,72
18330,note_on,,1,0,11,,,,,,,,,,,,,,,,10,,78,72
18330,note_on,,1,0,5,,,,,,,,,,,,,,,,1,,78,72
18359,note_on,,59,0,14,,,,,,,,,,,,,,,,13,,57,0
18359,note_on,,59,0,12,,,,,,,,,,,,,,,,11,,69,0
18359,note_on,,29,0,5,,,,,,,,,,,,,,,,1,,78,0
18359,note_on,,59,0,10,,,,,,,,,,,,,,,,8,,57,0
18359,note_on,,29,0,11,,,,,,,,,,,,,,,,10,,78,0
18359,note_on,,29,0,7,,,,,,,,,,,,,,,,5,,78,0
18359,note_on,,59,0,15,,,,,,,,,,,,,,,,15,,69,0
18359,note_on,,0,0,15,,,,,,,,,,,,,,,,15,,60,0
18359,note_on,,0,0,15,,,,,,,,,,,,,,,,15,,64,0
18359,note_on,,59,0,9,,,,,,,,,,,,,,,,7,,60,0
18359,note_on,,0,0,15,,,,,,,,,,,,,,,,15,,57,0
18359,note_on,,59,0,8,,,,,,,,,,,,,,,,6,,69,0
18359,note_on,,59,0,6,,,,,,,,,,,,,,,,2,,57,0
18359,note_on,,59,0,13,,,,,,,,,,,,,,,,12,,60,0
18360,note_on,,1,0,13,,,,,,,,,,,,,,,,12,,62,72
18360,note_on,,1,0,11,,,,,,,,,,,,,,,,10,,79,72
18360,note_on,,0,0,15,,,,,,,,,,,,,,,,15,,62,72
18360,note_on,,0,0,15,,,,,,,,,,,,,,,,15,,67,72
18360,note_on,,0,0,15,,,,,,,,,,,,,,,,15,,74,72
18360,note_on,,1,0,15,,,,,,,,,,,,,,,,15,,59,72
18360,note_on,,1,0,8,,,,,,,,,,,,,,,,6,,67,72
18360,note_on,,1,0,14,,,,,,,,,,,,,,,,13,,59,72
18360,note_on,,1,0,9,,,,,,,,,,,,,,,,7,,62,72
18360,note_on,,1,0,12,,,,,,,,,,,,,,,,11,,67,72
18360,note_on,,1,0,7,,,,,,,,,,,,,,,,5,,79,72
18360,note_on,,1,0,5,,,,,,,,,,,,,,,,1,,79,72
18360,note_on,,1,0,10,,,,,,,,,,,,,,,,8,,59,72
18360,note_on,,1,0,6,,,,,,,,,,,,,,,,2,,59,72
18539,note_on,,179,0,7,,,,,,,,,,,,,,,,5,,79,0
18539,note_on,,179,0,10,,,,,,,,,,,,,,,,8,,59,0
18539,note_on,,179,0,6,,,,,,,,,,,,,,,,2,,59,0
18539,note_on,,179,0,13,,,,,,,,,,,,,,,,12,,62,0
18539,note_on,,179,0,9,,,,,,,,,,,,,,,,7,,62,0
18539,note_on,,179,0,14,,,,,,,,,,,,,,,,13,,59,0
18539,note_on,,179,0,11,,,,,,,,,,,,,,,,10,,79,0
18539,note_on,,179,0,8,,,,,,,,,,,,,,,,6,,67,0
18539,note_on,,179,0,12,,,,,,,,,,,,,,,,11,,67,0
18539,note_on,,0,0,15,,,,,,,,,,,,,,,,15,,62,0
18539,note_on,,0,0,15,,,,,,,,,,,,,,,,15,,67,0
18539,note_on,,0,0,15,,,,,,,,,,,,,,,,15,,74,0
18539,note_on,,179,0,15,,,,,,,,,,,,,,,,15,,59,0
18539,note_on,,179,0,5,,,,,,,,,,,,,,,,1,,79,0
18540,note_on,,1,0,14,,,,,,,,,,,,,,,,13,,59,72
18540,note_on,,1,0,12,,,,,,,,,,,,,,,,11,,67,72
18540,note_on,,1,0,9,,,,,,,,,,,,,,,,7,,62,72
18540,note_on,,0,0,15,,,,,,,,,,,,,,,,15,,67,72
18540,note_on,,0,0,15,,,,,,,,,,,,,,,,15,,62,72
18540,note_on,,1,0,10,,,,,,,,,,,,,,,,8,,59,72
18540,note_on,,1,0,7,,,,,,,,,,,,,,,,5,,77,72
18540,note_on,,1,0,13,,,,,,,,,,,,,,,,12,,62,72
18540,note_on,,1,0,6,,,,,,,,,,,,,,,,2,,59,72
18540,note_on,,1,0,5,,,,,,,,,,,,,,,,1,,77,72
18540,note_on,,1,0,11,,,,,,,,,,,,,,,,10,,77,72
18540,note_on,,0,0,15,,,,,,,,,,,,,,,,15,,74,72
18540,note_on,,1,0,8,,,,,,,,,,,,,,,,6,,67,72
18540,note_on,,1,0,15,,,,,,,,,,,,,,,,15,,59,72
18599,note_on,,0,0,15,,,,,,,,,,,,,,,,15,,67,0
18599,note_on,,0,0,15,,,,,,,,,,,,,,,,15,,74,0
18599,note_on,,59,0,15,,,,,,,,,,,,,,,,15,,59,0
18599,note_on,,0,0,15,,,,,,,,,,,,,,,,15,,62,0
18599,note_on,,59,0,7,,,,,,,,,,,,,,,,5,,77,0
18599,note_on,,59,0,6,,,,,,,,,,,,,,,,2,,59,0
18599,note_on,,59,0,14,,,,,,,,,,,,,,,,13,,59,0
18599,note_on,,59,0,8,,,,,,,,,,,,,,,,6,,67,0
18599,note_on,,59,0,11,,,,,,,,,,,,,,,,10,,77,0
18599,note_on,,59,0,9,,,,,,,,,,,,,,,,7,,62,0
18599,note_on,,59,0,5,,,,,,,,,,,,,,,,1,,77,0
18599,note_on,,59,0,10,,,,,,,,,,,,,,,,8,,59,0
18599,note_on,,59,0,12,,,,,,,,,,,,,,,,11,,67,0
18599,note_on,,59,0,13,,,,,,,,,,,,,,,,12,,62,0
18600,note_on,,1,0,7,,,,,,,,,,,,,,,,5,,76,72
18600,note_on,,1,0,14,,,,,,,,,,,,,,,,13,,60,72
18600,note_on,,1,0,11,,,,,,,,,,,,,,,,10,,76,72
18600,note_on,,1,0,6,,,,,,,,,,,,,,,,2,,60,72
18600,note_on,,1,0,10,,,,,,,,,,,,,,,,8,,60,72
18600,note_on,,1,0,9,,,,,,,,,,,,,,,,7,,60,72
18600,note_on,,1,0,8,,,,,,,,,,,,,,,,6,,67,72
18600,note_on,,1,0,12,,,,,,,,,,,,,,,,11,,67,72
18600,note_on,,1,0,5,,,,,,,,,,,,,,,,1,,76,72
18600,note_on,,1,0,13,,,,,,,,,,,,,,,,12,,60,72
18600,note_on,,1,0,15,,,,,,,,,,,,,,,,15,,60,72
18600,note_on,,0,0,15,,,,,,,,,,,,,,,,15,,67,72
18600,note_on,,0,0,15,,,,,,,,,,,,,,,,15,,64,72
18659,note_on,,0,0,15,,,,,,,,,,,,,,,,15,,64,0
18659,note_on,,59,0,7,,,,,,,,,,,,,,,,5,,76,0
18659,note_on,,59,0,13,,,,,,,,,,,,,,,,12,,60,0
18659,note_on,,59,0,8,,,,,,,,,,,,,,,,6,,67,0
18659,note_on,,59,0,12,,,,,,,,,,,,,,,,11,,67,0
18659,note_on,,59,0,15,,,,,,,,,,,,,,,,15,,60,0
18659,note_on,,0,0,15,,,,,,,,,,,,,,,,15,,67,0
18659,note_on,,59,0,11,,,,,,,,,,,,,,,,10,,76,0
18659,note_on,,59,0,6,,,,,,,,,,,,,,,,2,,60,0
18659,note_on,,59,0,10,,,,,,,,,,,,,,,,8,,60,0
18659,note_on,,59,0,5,,,,,,,,,,,,,,,,1,,76,0
18659,note_on,,59,0,9,,,,,,,,,,,,,,,,7,,60,0
18659,note_on,,59,0,14,,,,,,,,,,,,,,,,13,,60,0
18660,note_on,,1,0,11,,,,,,,,,,,,,,,,10,,74,72
18660,note_on,,1,0,6,,,,,,,,,,,,,,,,2,,59,72
18660,note_on,,1,0,13,,,,,,,,,,,,,,,,12,,62,72
18660,note_on,,1,0,10,,,,,,,,,,,,,,,,8,,59,72
18660,note_on,,1,0,5,,,,,,,,,,,,,,,,1,,74,72
18660,note_on,,1,0,9,,,,,,,,,,,,,,,,7,,62,72
18660,note_on,,0,0,15,,,,,,,,,,,,,,,,15,,67,72
18660,note_on,,1,0,12,,,,,,,,,,,,,,,,11,,67,72
18660,note_on,,0,0,15,,,,,,,,,,,,,,,,15,,74,72
18660,note_on,,1,0,14,,,,,,,,,,,,,,,,13,,59,72
18660,note_on,,1,0,7,,,,,,,,,,,,,,,,5,,74,72
18660,note_on,,0,0,15,,,,,,,,,,,,,,,,15,,62,72
18660,note_on,,1,0,15,,,,,,,,,,,,,,,,15,,59,72
18660,note_on,,1,0,8,,,,,,,,,,,,,,,,6,,67,72
18719,note_on,,59,0,14,,,,,,,,,,,,,,,,13,,59,0
18719,note_on,,59,0,6,,,,,,,,,,,,,,,,2,,59,0
18719,note_on,,0,0,15,,,,,,,,,,,,,,,,15,,74,0
18719,note_on,,0,0,15,,,,,,,,,,,,,,,,15,,67,0
18719,note_on,,59,0,11,,,,,,,,,,,,,,,,10,,74,0
18719,note_on,,0,0,15,,,,,,,,,,,,,,,,15,,62,0
18719,note_on,,59,0,8,,,,,,,,,,,,,,,,6,,67,0
18719,note_on,,59,0,5,,,,,,,,,,,,,,,,1,,74,0
18719,note_on,,59,0,9,,,,,,,,,,,,,,,,7,,62,0
18719,note_on,,59,0,7,,,,,,,,,,,,,,,,5,,74,0
18719,note_on,,59,0,12,,,,,,,,,,,,,,,,11,,67,0
18719,note_on,,59,0,15,,,,,,,,,,,,,,,,15,,59,0
18719,note_on,,59,0,13,,,,,,,,,,,,,,,,12,,62,0
18719,note_on,,59,0,10,,,,,,,,,,,,,,,,8,,59,0
18720,note_on,,0,0,15,,,,,,,,,,,,,,,,15,,76,72
18720,note_on,,1,0,5,,,,,,,,,,,,,,,,1,,76,72
18720,note_on,,1,0,9,,,,,,,,,,,,,,,,7,,60,72
18720,note_on,,1,0,15,,,,,,,,,,,,,,,,15,,60,72
18720,note_on,,1,0,6,,,,,,,,,,,,,,,,2,,60,72
18720,note_on,,0,0,15,,,,,,,,,,,,,,,,15,,72,72
18720,note_on,,0,0,15,,,,,,,,,,,,,,,,15,,67,72
18720,note_on,,1,0,11,,,,,,,,,,,,,,,,10,,76,72
18720,note_on,,1,0,13,,,,,,,,,,,,,,,,12,,60,72
18720,note_on,,1,0,8,,,,,,,,,,,,,,,,6,,67,72
18720,note_on,,1,0,7,,,,,,,,,,,,,,,,5,,76,72
18720,note_on,,1,0,14,,,,,,,,,,,,,,,,13,,60,72
18720,note_on,,1,0,10,,,,,,,,,,,,,,,,8,,60,72
18720,note_on,,1,0,12,,,,,,,,,,,,,,,,11,,67,72
18779,note_on,,59,0,9,,,,,,,,,,,,,,,,7,,60,0
18779,note_on,,59,0,6,,,,,,,,,,,,,,,,2,,60,0
18779,note_on,,59,0,7,,,,,,,,,,,,,,,,5,,76,0
18779,note_on,,0,0,15,,,,,,,,,,,,,,,,15,,67,0
18779,note_on,,59,0,5,,,,,,,,,,,,,,,,1,,76,0
18779,note_on,,59,0,11,,,,,,,,,,,,,,,,10,,76,0
18779,note_on,,59,0,13,,,,,,,,,,,,,,,,12,,60,0
18779,note_on,,59,0,12,,,,,,,,,,,,,,,,11,,67,0
18779,note_on,,59,0,15,,,,,,,,,,,,,,,,15,,60,0
18779,note_on,,0,0,15,,,,,,,,,,,,,,,,15,,76,0
18779,note_on,,0,0,15,,,,,,,,,,,,,,,,15,,72,0
18779,note_on,,59,0,14,,,,,,,,,,,,,,,,13,,60,0
18779,note_on,,59,0,8,,,,,,,,,,,,,,,,6,,67,0
18779,note_on,,59,0,10,,,,,,,,,,,,,,,,8,,60,0
18780,note_on,,1,0,10,,,,,,,,,,,,,,,,8,,53,72
18780,note_on,,1,0,5,,,,,,,,,,,,,,,,1,,77,72
18780,note_on,,1,0,13,,,,,,,,,,,,,,,,12,,60,72
18780,note_on,,1,0,12,,,,,,,,,,,,,,,,11,,69,72
18780,note_on,,1,0,15,,,,,,,,,,,,,,,,15,,53,72
18780,note_on,,0,0,15,,,,,,,,,,,,,,,,15,,74,72
18780,note_on,,0,0,15,,,,,,,,,,,,,,,,15,,69,72
18780,note_on,,1,0,8,,,,,,,,,,,,,,,,6,,69,72
18780,note_on,,1,0,14,,,,,,,,,,,,,,,,13,,53,72
18780,note_on,,0,0,15,,,,,,,,,,,,,,,,15,,57,72
18780,note_on,,1,0,7,,,,,,,,,,,,,,,,5,,77,72
18780,note_on,,1,0,6,,,,,,,,,,,,,,,,2,,53,72
18780,note_on,,1,0,11,,,,,,,,,,,,,,,,10,,77,72
18780,note_on,,0,0,15,,,,,,,,,,,,,,,,15,,72,72
18780,note_on,,1,0,9,,,,,,,,,,,,,,,,7,,60,72
18839,note_on,,59,0,8,,,,,,,,,,,,,,,,6,,69,0
18839,note_on,,59,0,7,,,,,,,,,,,,,,,,5,,77,0
18839,note_on,,59,0,6,,,,,,,,,,,,,,,,2,,53,0
18839,note_on,,59,0,13,,,,,,,,,,,,,,,,12,,60,0
18839,note_on,,59,0,11,,,,,,,,,,,,,,,,10,,77,0
18839,note_on,,59,0,10,,,,,,,,,,,,,,,,8,,53,0
18839,note_on,,59,0,5,,,,,,,,,,,,,,,,1,,77,0
18839,note_on,,59,0,9,,,,,,,,,,,,,,,,7,,60,0
18839,note_on,,59,0,12,,,,,,,,,,,,,,,,11,,69,0
18839,note_on,,0,0,15,,,,,,,,,,,,,,,,15,,57,0
18839,note_on,,0,0,15,,,,,,,,,,,,,,,,15,,69,0
18839,note_on,,59,0,14,,,,,,,,,,,,,,,,13,,53,0
18839,note_on,,59,0,15,,,,,,,,,,,,,,,,15,,53,0
18839,note_on,,0,0,15,,,,,,,,,,,,,,,,15,,72,0
18839,note_on,,0,0,15,,,,,,,,,,,,,,,,15,,74,0
18840,note_on,,1,0,10,,,,,,,,,,,,,,,,8,,55,72
18840,note_on,,1,0,6,,,,,,,,,,,,,,,,2,,55,72
18840,note_on,,1,0,11,,,,,,,,,,,,,,,,10,,74,72
18840,note_on,,0,0,15,,,,,,,,,,,,,,,,15,,71,72
18840,note_on,,0,0,15,,,,,,,,,,,,,,,,15,,74,72
18840,note_on,,0,0,15,,,,,,,,,,,,,,,,15,,62,72
18840,note_on,,1,0,15,,,,,,,,,,,,,,,,15,,55,72
18840,note_on,,1,0,7,,,,,,,,,,,,,,,,5,,74,72
18840,note_on,,0,0,15,,,,,,,,,,,,,,,,15,,59,72
18840,note_on,,1,0,8,,,,,,,,,,,,,,,,6,,67,72
18840,note_on,,1,0,14,,,,,,,,,,,,,,,,13,,55,72
18840,note_on,,1,0,5,,,,,,,,,,,,,,,,1,,74,72
18840,note_on,,1,0,13,,,,,,,,,,,,,,,,12,,59,72
18840,note_on,,1,0,12,,,,,,,,,,,,,,,,11,,67,72
18840,note_on,,1,0,9,,,,,,,,,,,,,,,,7,,59,72
18959,note_on,,119,0,6,,,,,,,,,,,,,,,,2,,55,0
18959,note_on,,0,0,15,,,,,,,,,,,,,,,,15,,62,0
18959,note_on,,0,0,15,,,,,,,,,,,,,,,,15,,59,0
18959,note_on,,119,0,14,,,,,,,,,,,,,,,,13,,55,0
18959,note_on,,119,0,15,,,,,,,,,,,,,,,,15,,55,0
18960,note_on,,1,0,14,,,,,,,,,,,,,,,,13,,43,72
18960,note_on,,0,0,15,,,,,,,,,,,,,,,,15,,55,72
18960,note_on,,1,0,6,,,,,,,,,,,,,,,,2,,43,72
18960,note_on,,0,0,15,,,,,,,,,,,,,,,,15,,67,72
18960,note_on,,1,0,15,,,,,,,,,,,,,,,,15,,43,72
19079,note_on,,119,0,15,,,,,,,,,,,,,,,,15,,74,0
19079,note_on,,0,0,15,,,,,,,,,,,,,,,,15,,71,0
19079,note_on,,0,0,15,,,,,,,,,,,,,,,,15,,43,0
19079,note_on,,239,0,5,,,,,,,,,,,,,,,,1,,74,0
19079,note_on,,239,0,10,,,,,,,,,,,,,,,,8,,55,0
19079,note_on,,239,0,12,,,,,,,,,,,,,,,,11,,67,0
19079,note_on,,119,0,14,,,,,,,,,,,,,,,,13,,43,0
19079,note_on,,0,0,15,,,,,,,,,,,,,,,,15,,67,0
19079,note_on,,239,0,13,,,,,,,,,,,,,,,,12,,59,0
19079,note_on,,0,0,15,,,,,,,,,,,,,,,,15,,55,0
19079,note_on,,239,0,11,,,,,,,,,,,,,,,,10,,74,0
19079,note_on,,119,0,6,,,,,,,,,,,,,,,,2,,43,0
19079,note_on,,239,0,7,,,,,,,,,,,,,,,,5,,74,0
19079,note_on,,239,0,9,,,,,,,,,,,,,,,,7,,59,0
19080,note_on,,1,0,11,,,,,,,,,,,,,,,,10,,76,72
19080,note_on,,1,0,10,,,,,,,,,,,,,,,,8,,48,72
19080,note_on,,1,0,14,,,,,,,,,,,,,,,,13,,48,72
19080,note_on,,1,0,7,,,,,,,,,,,,,,,,5,,76,72
19080,note_on,,1,0,12,,,,,,,,,,,,,,,,11,,67,72
19080,note_on,,1,0,6,,,,,,,,,,,,,,,,2,,48,72
19080,note_on,,1,0,5,,,,,,,,,,,,,,,,1,,76,72
19080,note_on,,1,0,15,,,,,,,,,,,,,,,,15,,48,72
19080,note_on,,0,0,15,,,,,,,,,,,,,,,,15,,72,72
19080,note_on,,0,0,15,,,,,,,,,,,,,,,,15,,67,72
19080,note_on,,0,0,15,,,,,,,,,,,,,,,,15,,64,72
19080,note_on,,0,0,15,,,,,,,,,,,,,,,,15,,55,72
19080,note_on,,1,0,9,,,,,,,,,,,,,,,,7,,60,72
19080,note_on,,1,0,13,,,,,,,,,,,,,,,,12,,72,72
19139,note_on,,59,0,9,,,,,,,,,,,,,,,,7,,60,0
19139,note_on,,59,0,13,,,,,,,,,,,,,,,,12,,72,0
19140,note_on,,1,0,13,,,,,,,,,,,,,,,,12,,67,72
19140,note_on,,1,0,9,,,,,,,,,,,,,,,,7,,55,72
19199,note_on,,119,0,7,,,,,,,,,,,,,,,,5,,76,0
19199,note_on,,59,0,9,,,,,,,,,,,,,,,,7,,55,0
19199,note_on,,119,0,15,,,,,,,,,,,,,,,,15,,72,0
19199,note_on,,0,0,15,,,,,,,,,,,,,,,,15,,55,0
19199,note_on,,0,0,15,,,,,,,,,,,,,,,,15,,64,0
19199,note_on,,359,0,8,,,,,,,,,,,,,,,,6,,67,0
19199,note_on,,59,0,13,,,,,,,,,,,,,,,,12,,67,0
19199,note_on,,119,0,12,,,,,,,,,,,,,,,,11,,67,0
19199,note_on,,119,0,11,,,,,,,,,,,,,,,,10,,76,0
19199,note_on,,0,0,15,,,,,,,,,,,,,,,,15,,67,0
19199,note_on,,119,0,5,,,,,,,,,,,,,,,,1,,76,0
19199,note_on,,119,0,10,,,,,,,,,,,,,,,,8,,48,0
19200,note_on,,1,0,13,,,,,,,,,,,,,,,,12,,69,72
19200,note_on,,1,0,10,,,,,,,,,,,,,,,,8,,48,72
19200,note_on,,1,0,8,,,,,,,,,,,,,,,,6,,72,72
19200,note_on,,1,0,5,,,,,,,,,,,,,,,,1,,76,72
19200,note_on,,0,0,15,,,,,,,,,,,,,,,,15,,72,72
19200,note_on,,1,0,7,,,,,,,,,,,,,,,,5,,76,72
19200,note_on,,1,0,15,,,,,,,,,,,,,,,,15,,57,72
19200,note_on,,1,0,12,,,,,,,,,,,,,,,,11,,72,72
19200,note_on,,1,0,9,,,,,,,,,,,,,,,,7,,57,72
19259,note_on,,0,0,15,,,,,,,,,,,,,,,,15,,72,0
19259,note_on,,59,0,15,,,,,,,,,,,,,,,,15,,57,0
19259,note_on,,59,0,12,,,,,,,,,,,,,,,,11,,72,0
19259,note_on,,59,0,8,,,,,,,,,,,,,,,,6,,72,0
19259,note_on,,59,0,9,,,,,,,,,,,,,,,,7,,57,0
19259,note_on,,59,0,13,,,,,,,,,,,,,,,,12,,69,0
19260,note_on,,1,0,9,,,,,,,,,,,,,,,,7,,52,72
19260,note_on,,1,0,8,,,,,,,,,,,,,,,,6,,67,72
19260,note_on,,1,0,12,,,,,,,,,,,,,,,,11,,67,72
19260,note_on,,1,0,15,,,,,,,,,,,,,,,,15,,52,72
19260,note_on,,0,0,15,,,,,,,,,,,,,,,,15,,67,72
19260,note_on,,1,0,13,,,,,,,,,,,,,,,,12,,64,72
19319,note_on,,59,0,15,,,,,,,,,,,,,,,,15,,52,0
19319,note_on,,119,0,5,,,,,,,,,,,,,,,,1,,76,0
19319,note_on,,119,0,10,,,,,,,,,,,,,,,,8,,48,0
19319,note_on,,119,0,7,,,,,,,,,,,,,,,,5,,76,0
19319,note_on,,59,0,13,,,,,,,,,,,,,,,,12,,64,0
19319,note_on,,59,0,9,,,,,,,,,,,,,,,,7,,52,0
19319,note_on,,59,0,12,,,,,,,,,,,,,,,,11,,67,0
19319,note_on,,59,0,8,,,,,,,,,,,,,,,,6,,67,0
19319,note_on,,0,0,15,,,,,,,,,,,,,,,,15,,67,0
19320,note_on,,1,0,13,,,,,,,,,,,,,,,,12,,65,72
19320,note_on,,0,0,15,,,,,,,,,,,,,,,,15,,69,72
19320,note_on,,1,0,15,,,,,,,,,,,,,,,,15,,53,72
19320,note_on,,1,0,9,,,,,,,,,,,,,,,,7,,53,72
19320,note_on,,1,0,8,,,,,,,,,,,,,,,,6,,69,72
19320,note_on,,1,0,12,,,,,,,,,,,,,,,,11,,69,72
19379,note_on,,59,0,12,,,,,,,,,,,,,,,,11,,69,0
19379,note_on,,59,0,13,,,,,,,,,,,,,,,,12,,65,0
19379,note_on,,59,0,9,,,,,,,,,,,,,,,,7,,53,0
19379,note_on,,0,0,15,,,,,,,,,,,,,,,,15,,69,0
19379,note_on,,59,0,15,,,,,,,,,,,,,,,,15,,53,0
19379,note_on,,59,0,8,,,,,,,,,,,,,,,,6,,69,0
19380,note_on,,1,0,12,,,,,,,,,,,,,,,,11,,65,72
19380,note_on,,1,0,9,,,,,,,,,,,,,,,,7,,62,72
19380,note_on,,1,0,15,,,,,,,,,,,,,,,,15,,57,72
19380,note_on,,1,0,8,,,,,,,,,,,,,,,,6,,65,72
19380,note_on,,0,0,15,,,,,,,,,,,,,,,,15,,65,72
19380,note_on,,0,0,15,,,,,,,,,,,,,,,,15,,62,72
19380,note_on,,1,0,13,,,,,,,,,,,,,,,,12,,62,72
19439,note_on,,59,0,13,,,,,,,,,,,,,,,,12,,62,0
19439,note_on,,59,0,15,,,,,,,,,,,,,,,,15,,57,0
19439,note_on,,0,0,15,,,,,,,,,,,,,,,,15,,62,0
19439,note_on,,59,0,9,,,,,,,,,,,,,,,,7,,62,0
19439,note_on,,59,0,12,,,,,,,,,,,,,,,,11,,65,0
19439,note_on,,0,0,15,,,,,,,,,,,,,,,,15,,65,0
19439,note_on,,59,0,8,,,,,,,,,,,,,,,,6,,65,0
19440,note_on,,121,0,10,,,,,,,,,,,,,,,,8,,60,72
19440,note_on,,1,0,9,,,,,,,,,,,,,,,,7,,64,72
19440,note_on,,1,0,13,,,,,,,,,,,,,,,,12,,64,72
19440,note_on,,1,0,8,,,,,,,,,,,,,,,,6,,67,72
19440,note_on,,1,0,12,,,,,,,,,,,,,,,,11,,67,72
19440,note_on,,1,0,15,,,,,,,,,,,,,,,,15,,67,72
19440,note_on,,0,0,15,,,,,,,,,,,,,,,,15,,64,72
19440,note_on,,0,0,15,,,,,,,,,,,,,,,,15,,60,72
19499,note_on,,59,0,8,,,,,,,,,,,,,,,,6,,67,0
19499,note_on,,59,0,9,,,,,,,,,,,,,,,,7,,64,0
19499,note_on,,59,0,13,,,,,,,,,,,,,,,,12,,64,0
19499,note_on,,59,0,12,,,,,,,,,,,,,,,,11,,67,0
19499,note_on,,59,0,10,,,,,,,,,,,,,,,,8,,60,0
19500,note_on,,1,0,12,,,,,,,,,,,,,,,,11,,65,72
19500,note_on,,1,0,10,,,,,,,,,,,,,,,,8,,55,72
19500,note_on,,1,0,13,,,,,,,,,,,,,,,,12,,62,72
19500,note_on,,1,0,8,,,,,,,,,,,,,,,,6,,65,72
19500,note_on,,1,0,9,,,,,,,,,,,,,,,,7,,62,72
19559,note_on,,59,0,9,,,,,,,,,,,,,,,,7,,62,0
19559,note_on,,59,0,8,,,,,,,,,,,,,,,,6,,65,0
19559,note_on,,59,0,10,,,,,,,,,,,,,,,,8,,55,0
19559,note_on,,59,0,13,,,,,,,,,,,,,,,,12,,62,0
19559,note_on,,0,0,15,,,,,,,,,,,,,,,,15,,60,0
19559,note_on,,59,0,12,,,,,,,,,,,,,,,,11,,65,0
19559,note_on,,119,0,15,,,,,,,,,,,,,,,,15,,67,0
19559,note_on,,0,0,15,,,,,,,,,,,,,,,,15,,64,0
19560,note_on,,1,0,12,,,,,,,,,,,,,,,,11,,64,72
19560,note_on,,1,0,8,,,,,,,,,,,,,,,,6,,64,72
19560,note_on,,1,0,9,,,,,,,,,,,,,,,,7,,60,72
19560,note_on,,241,0,7,,,,,,,,,,,,,,,,5,,72,72
19560,note_on,,1,0,13,,,,,,,,,,,,,,,,12,,60,72
19560,note_on,,1,0,15,,,,,,,,,,,,,,,,15,,72,72
19560,note_on,,0,0,15,,,,,,,,,,,,,,,,15,,57,72
19560,note_on,,0,0,15,,,,,,,,,,,,,,,,15,,60,72
19560,note_on,,1,0,10,,,,,,,,,,,,,,,,8,,57,72
19560,note_on,,361,0,11,,,,,,,,,,,,,,,,10,,84,72
19560,note_on,,241,0,5,,,,,,,,,,,,,,,,1,,72,72
19619,note_on,,59,0,9,,,,,,,,,,,,,,,,7,,60,0
19619,note_on,,59,0,11,,,,,,,,,,,,,,,,10,,84,0
19619,note_on,,59,0,12,,,,,,,,,,,,,,,,11,,64,0
19619,note_on,,59,0,5,,,,,,,,,,,,,,,,1,,72,0
19619,note_on,,59,0,7,,,,,,,,,,,,,,,,5,,72,0
19619,note_on,,59,0,10,,,,,,,,,,,,,,,,8,,57,0
19620,note_on,,1,0,11,,,,,,,,,,,,,,,,10,,79,72
19620,note_on,,1,0,12,,,,,,,,,,,,,,,,11,,72,72
19620,note_on,,1,0,5,,,,,,,,,,,,,,,,1,,67,72
19620,note_on,,1,0,7,,,,,,,,,,,,,,,,5,,67,72
19620,note_on,,1,0,10,,,,,,,,,,,,,,,,8,,52,72
19620,note_on,,1,0,9,,,,,,,,,,,,,,,,7,,60,72
19679,note_on,,0,0,15,,,,,,,,,,,,,,,,15,,60,0
19679,note_on,,0,0,15,,,,,,,,,,,,,,,,15,,57,0
19679,note_on,,119,0,15,,,,,,,,,,,,,,,,15,,72,0
19679,note_on,,59,0,7,,,,,,,,,,,,,,,,5,,67,0
19679,note_on,,59,0,10,,,,,,,,,,,,,,,,8,,52,0
19679,note_on,,59,0,11,,,,,,,,,,,,,,,,10,,79,0
19679,note_on,,59,0,9,,,,,,,,,,,,,,,,7,,60,0
19679,note_on,,119,0,8,,,,,,,,,,,,,,,,6,,64,0
19679,note_on,,59,0,5,,,,,,,,,,,,,,,,1,,67,0
19679,note_on,,59,0,12,,,,,,,,,,,,,,,,11,,72,0
19680,note_on,,0,0,15,,,,,,,,,,,,,,,,15,,53,72
19680,note_on,,1,0,10,,,,,,,,,,,,,,,,8,,53,72
19680,note_on,,1,0,15,,,,,,,,,,,,,,,,15,,69,72
19680,note_on,,0,0,15,,,,,,,,,,,,,,,,15,,65,72
19680,note_on,,0,0,15,,,,,,,,,,,,,,,,15,,60,72
19680,note_on,,1,0,5,,,,,,,,,,,,,,,,1,,69,72
19680,note_on,,1,0,8,,,,,,,,,,,,,,,,6,,69,72
19680,note_on,,1,0,7,,,,,,,,,,,,,,,,5,,69,72
19680,note_on,,1,0,11,,,,,,,,,,,,,,,,10,,81,72
19680,note_on,,1,0,12,,,,,,,,,,,,,,,,11,,69,72
19680,note_on,,1,0,9,,,,,,,,,,,,,,,,7,,60,72
19739,note_on,,59,0,11,,,,,,,,,,,,,,,,10,,81,0
19739,note_on,,59,0,12,,,,,,,,,,,,,,,,11,,69,0
19739,note_on,,59,0,5,,,,,,,,,,,,,,,,1,,69,0
19739,note_on,,59,0,10,,,,,,,,,,,,,,,,8,,53,0
19739,note_on,,179,0,13,,,,,,,,,,,,,,,,12,,60,0
19739,note_on,,59,0,7,,,,,,,,,,,,,,,,5,,69,0
19739,note_on,,59,0,8,,,,,,,,,,,,,,,,6,,69,0
19739,note_on,,59,0,9,,,,,,,,,,,,,,,,7,,60,0
19739,note_on,,0,0,15,,,,,,,,,,,,,,,,15,,53,0
19739,note_on,,0,0,15,,,,,,,,,,,,,,,,15,,65,0
19739,note_on,,59,0,15,,,,,,,,,,,,,,,,15,,69,0
19739,note_on,,0,0,15,,,,,,,,,,,,,,,,15,,60,0
19740,note_on,,1,0,8,,,,,,,,,,,,,,,,6,,65,72
19740,note_on,,0,0,15,,,,,,,,,,,,,,,,15,,50,72
19740,note_on,,1,0,5,,,,,,,,,,,,,,,,1,,71,72
19740,note_on,,0,0,15,,,,,,,,,,,,,,,,15,,62,72
19740,note_on,,0,0,15,,,,,,,,,,,,,,,,15,,65,72
19740,note_on,,1,0,15,,,,,,,,,,,,,,,,15,,71,72
19740,note_on,,1,0,12,,,,,,,,,,,,,,,,11,,71,72
19740,note_on,,1,0,13,,,,,,,,,,,,,,,,12,,65,72
19740,note_on,,1,0,11,,,,,,,,,,,,,,,,10,,77,72
19740,note_on,,1,0,7,,,,,,,,,,,,,,,,5,,71,72
19740,note_on,,1,0,10,,,,,,,,,,,,,,,,8,,50,72
19740,note_on,,1,0,9,,,,,,,,,,,,,,,,7,,62,72
19799,note_on,,59,0,8,,,,,,,,,,,,,,,,6,,65,0
19799,note_on,,719,0,6,,,,,,,,,,,,,,,,2,,48,0
19799,note_on,,59,0,7,,,,,,,,,,,,,,,,5,,71,0
19799,note_on,,59,0,9,,,,,,,,,,,,,,,,7,,62,0
19799,note_on,,59,0,12,,,,,,,,,,,,,,,,11,,71,0
19799,note_on,,719,0,14,,,,,,,,,,,,,,,,13,,48,0
19799,note_on,,0,0,15,,,,,,,,,,,,,,,,15,,62,0
19799,note_on,,59,0,13,,,,,,,,,,,,,,,,12,,65,0
19799,note_on,,0,0,15,,,,,,,,,,,,,,,,15,,71,0
19799,note_on,,0,0,15,,,,,,,,,,,,,,,,15,,65,0
19799,note_on,,59,0,11,,,,,,,,,,,,,,,,10,,77,0
19799,note_on,,59,0,5,,,,,,,,,,,,,,,,1,,71,0
19799,note_on,,59,0,10,,,,,,,,,,,,,,,,8,,50,0
19799,note_on,,0,0,15,,,,,,,,,,,,,,,,15,,50,0
19799,note_on,,59,0,15,,,,,,,,,,,,,,,,15,,48,0
19800,note_on,,1,0,13,,,,,,,,,,,,,,,,12,,67,72
19800,note_on,,1,0,14,,,,,,,,,,,,,,,,13,,48,72
19800,note_on,,1,0,7,,,,,,,,,,,,,,,,5,,72,72
19800,note_on,,1,0,12,,,,,,,,,,,,,,,,11,,72,72
19800,note_on,,1,0,6,,,,,,,,,,,,,,,,2,,48,72
19800,note_on,,1,0,15,,,,,,,,,,,,,,,,15,,48,72
19800,note_on,,0,0,15,,,,,,,,,,,,,,,,15,,52,72
19800,note_on,,1,0,10,,,,,,,,,,,,,,,,8,,48,72
19800,note_on,,1,0,5,,,,,,,,,,,,,,,,1,,72,72
19800,note_on,,1,0,11,,,,,,,,,,,,,,,,10,,76,72
19800,note_on,,0,0,15,,,,,,,,,,,,,,,,15,,72,72
19800,note_on,,0,0,15,,,,,,,,,,,,,,,,15,,67,72
19800,note_on,,0,0,15,,,,,,,,,,,,,,,,15,,60,72
19800,note_on,,1,0,9,,,,,,,,,,,,,,,,7,,64,72
19800,note_on,,1,0,8,,,,,,,,,,,,,,,,6,,67,72
19859,note_on,,59,0,12,,,,,,,,,,,,,,,,11,,72,0
19859,note_on,,59,0,7,,,,,,,,,,,,,,,,5,,72,0
19859,note_on,,59,0,5,,,,,,,,,,,,,,,,1,,72,0
19859,note_on,,59,0,11,,,,,,,,,,,,,,,,10,,76,0
19860,note_on,,1,0,7,,,,,,,,,,,,,,,,5,,74,72
19860,note_on,,1,0,5,,,,,,,,,,,,,,,,1,,74,72
19860,note_on,,1,0,12,,,,,,,,,,,,,,,,11,,74,72
19860,note_on,,1,0,11,,,,,,,,,,,,,,,,10,,71,72
19919,note_on,,119,0,10,,,,,,,,,,,,,,,,8,,48,0
19919,note_on,,59,0,12,,,,,,,,,,,,,,,,11,,74,0
19919,note_on,,59,0,7,,,,,,,,,,,,,,,,5,,74,0
19919,note_on,,119,0,13,,,,,,,,,,,,,,,,12,,67,0
19919,note_on,,59,0,5,,,,,,,,,,,,,,,,1,,74,0
19919,note_on,,119,0,8,,,,,,,,,,,,,,,,6,,67,0
19919,note_on,,119,0,9,,,,,,,,,,,,,,,,7,,64,0
19919,note_on,,59,0,11,,,,,,,,,,,,,,,,10,,71,0
19920,note_on,,1,0,5,,,,,,,,,,,,,,,,1,,76,72
19920,note_on,,1,0,9,,,,,,,,,,,,,,,,7,,64,72
19920,note_on,,1,0,10,,,,,,,,,,,,,,,,8,,48,72
19920,note_on,,1,0,12,,,,,,,,,,,,,,,,11,,76,72
19920,note_on,,1,0,11,,,,,,,,,,,,,,,,10,,72,72
19920,note_on,,1,0,7,,,,,,,,,,,,,,,,5,,76,72
19920,note_on,,1,0,13,,,,,,,,,,,,,,,,12,,67,72
19920,note_on,,1,0,8,,,,,,,,,,,,,,,,6,,67,72
19979,note_on,,59,0,10,,,,,,,,,,,,,,,,8,,48,0
19979,note_on,,179,0,14,,,,,,,,,,,,,,,,13,,48,0
19979,note_on,,0,0,15,,,,,,,,,,,,,,,,15,,60,0
19979,note_on,,0,0,15,,,,,,,,,,,,,,,,15,,67,0
19979,note_on,,0,0,15,,,,,,,,,,,,,,,,15,,52,0
19979,note_on,,59,0,8,,,,,,,,,,,,,,,,6,,67,0
19979,note_on,,0,0,15,,,,,,,,,,,,,,,,15,,72,0
19979,note_on,,59,0,9,,,,,,,,,,,,,,,,7,,64,0
19979,note_on,,59,0,13,,,,,,,,,,,,,,,,12,,67,0
19979,note_on,,179,0,6,,,,,,,,,,,,,,,,2,,48,0
19979,note_on,,179,0,15,,,,,,,,,,,,,,,,15,,48,0
19980,note_on,,1,0,10,,,,,,,,,,,,,,,,8,,50,72
19980,note_on,,1,0,14,,,,,,,,,,,,,,,,13,,50,72
19980,note_on,,0,0,15,,,,,,,,,,,,,,,,15,,53,72
19980,note_on,,0,0,15,,,,,,,,,,,,,,,,15,,59,72
19980,note_on,,1,0,8,,,,,,,,,,,,,,,,6,,65,72
19980,note_on,,1,0,15,,,,,,,,,,,,,,,,15,,50,72
19980,note_on,,1,0,6,,,,,,,,,,,,,,,,2,,50,72
19980,note_on,,1,0,13,,,,,,,,,,,,,,,,12,,65,72
19980,note_on,,1,0,9,,,,,,,,,,,,,,,,7,,62,72
19980,note_on,,0,0,15,,,,,,,,,,,,,,,,15,,65,72
19980,note_on,,0,0,15,,,,,,,,,,,,,,,,15,,62,72
20039,note_on,,59,0,15,,,,,,,,,,,,,,,,15,,50,0
20039,note_on,,0,0,15,,,,,,,,,,,,,,,,15,,65,0
20039,note_on,,0,0,15,,,,,,,,,,,,,,,,15,,62,0
20039,note_on,,59,0,14,,,,,,,,,,,,,,,,13,,50,0
20039,note_on,,59,0,9,,,,,,,,,,,,,,,,7,,62,0
20039,note_on,,0,0,15,,,,,,,,,,,,,,,,15,,59,0
20039,note_on,,59,0,13,,,,,,,,,,,,,,,,12,,65,0
20039,note_on,,59,0,6,,,,,,,,,,,,,,,,2,,50,0
20039,note_on,,59,0,8,,,,,,,,,,,,,,,,6,,65,0
20039,note_on,,0,0,15,,,,,,,,,,,,,,,,15,,53,0
20039,note_on,,59,0,10,,,,,,,,,,,,,,,,8,,50,0
20040,note_on,,1,0,8,,,,,,,,,,,,,,,,6,,67,72
20040,note_on,,1,0,9,,,,,,,,,,,,,,,,7,,60,72
20040,note_on,,1,0,13,,,,,,,,,,,,,,,,12,,67,72
20040,note_on,,1,0,10,,,,,,,,,,,,,,,,8,,52,72
20040,note_on,,1,0,6,,,,,,,,,,,,,,,,2,,52,72
20040,note_on,,1,0,15,,,,,,,,,,,,,,,,15,,52,72
20040,note_on,,1,0,14,,,,,,,,,,,,,,,,13,,52,72
20040,note_on,,0,0,15,,,,,,,,,,,,,,,,15,,55,72
20040,note_on,,0,0,15,,,,,,,,,,,,,,,,15,,60,72
20040,note_on,,0,0,15,,,,,,,,,,,,,,,,15,,64,72
20099,note_on,,59,0,10,,,,,,,,,,,,,,,,8,,52,0
20099,note_on,,179,0,5,,,,,,,,,,,,,,,,1,,76,0
20099,note_on,,59,0,8,,,,,,,,,,,,,,,,6,,67,0
20099,note_on,,59,0,15,,,,,,,,,,,,,,,,15,,52,0
20099,note_on,,179,0,12,,,,,,,,,,,,,,,,11,,76,0
20099,note_on,,179,0,11,,,,,,,,,,,,,,,,10,,72,0
20099,note_on,,59,0,14,,,,,,,,,,,,,,,,13,,52,0
20099,note_on,,179,0,7,,,,,,,,,,,,,,,,5,,76,0
20099,note_on,,59,0,9,,,,,,,,,,,,,,,,7,,60,0
20099,note_on,,59,0,6,,,,,,,,,,,,,,,,2,,52,0
20099,note_on,,0,0,15,,,,,,,,,,,,,,,,15,,64,0
20099,note_on,,0,0,15,,,,,,,,,,,,,,,,15,,55,0
20099,note_on,,59,0,13,,,,,,,,,,,,,,,,12,,67,0
20099,note_on,,0,0,15,,,,,,,,,,,,,,,,15,,60,0
20100,note_on,,0,0,15,,,,,,,,,,,,,,,,15,,60,72
20100,note_on,,1,0,8,,,,,,,,,,,,,,,,6,,69,72
20100,note_on,,1,0,13,,,,,,,,,,,,,,,,12,,62,72
20100,note_on,,1,0,12,,,,,,,,,,,,,,,,11,,81,72
20100,note_on,,1,0,11,,,,,,,,,,,,,,,,10,,84,72
20100,note_on,,1,0,15,,,,,,,,,,,,,,,,15,,53,72
20100,note_on,,0,0,15,,,,,,,,,,,,,,,,15,,62,72
20100,note_on,,1,0,14,,,,,,,,,,,,,,,,13,,53,72
20100,note_on,,1,0,5,,,,,,,,,,,,,,,,1,,74,72
20100,note_on,,1,0,6,,,,,,,,,,,,,,,,2,,53,72
20100,note_on,,1,0,9,,,,,,,,,,,,,,,,7,,65,72
20100,note_on,,0,0,15,,,,,,,,,,,,,,,,15,,57,72
20100,note_on,,1,0,7,,,,,,,,,,,,,,,,5,,74,72
20100,note_on,,1,0,10,,,,,,,,,,,,,,,,8,,53,72
20129,note_on,,29,0,5,,,,,,,,,,,,,,,,1,,74,0
20129,note_on,,29,0,7,,,,,,,,,,,,,,,,5,,74,0
20130,note_on,,1,0,7,,,,,,,,,,,,,,,,5,,72,72
20130,note_on,,1,0,5,,,,,,,,,,,,,,,,1,,72,72
20159,note_on,,59,0,6,,,,,,,,,,,,,,,,2,,53,0
20159,note_on,,29,0,7,,,,,,,,,,,,,,,,5,,72,0
20159,note_on,,59,0,8,,,,,,,,,,,,,,,,6,,69,0
20159,note_on,,29,0,5,,,,,,,,,,,,,,,,1,,72,0
20159,note_on,,59,0,11,,,,,,,,,,,,,,,,10,,84,0
20159,note_on,,0,0,15,,,,,,,,,,,,,,,,15,,57,0
20159,note_on,,59,0,12,,,,,,,,,,,,,,,,11,,81,0
20159,note_on,,59,0,10,,,,,,,,,,,,,,,,8,,53,0
20159,note_on,,59,0,9,,,,,,,,,,,,,,,,7,,65,0
20159,note_on,,59,0,15,,,,,,,,,,,,,,,,15,,53,0
20159,note_on,,0,0,15,,,,,,,,,,,,,,,,15,,62,0
20159,note_on,,0,0,15,,,,,,,,,,,,,,,,15,,60,0
20159,note_on,,59,0,13,,,,,,,,,,,,,,,,12,,62,0
20159,note_on,,59,0,14,,,,,,,,,,,,,,,,13,,53,0
20160,note_on,,1,0,9,,,,,,,,,,,,,,,,7,,62,72
20160,note_on,,1,0,8,,,,,,,,,,,,,,,,6,,67,72
20160,note_on,,1,0,13,,,,,,,,,,,,,,,,12,,62,72
20160,note_on,,1,0,5,,,,,,,,,,,,,,,,1,,71,72
20160,note_on,,1,0,14,,,,,,,,,,,,,,,,13,,55,72
20160,note_on,,1,0,12,,,,,,,,,,,,,,,,11,,74,72
20160,note_on,,1,0,7,,,,,,,,,,,,,,,,5,,71,72
20160,note_on,,1,0,15,,,,,,,,,,,,,,,,15,,55,72
20160,note_on,,1,0,6,,,,,,,,,,,,,,,,2,,55,72
20160,note_on,,0,0,15,,,,,,,,,,,,,,,,15,,62,72
20160,note_on,,0,0,15,,,,,,,,,,,,,,,,15,,59,72
20160,note_on,,1,0,11,,,,,,,,,,,,,,,,10,,83,72
20160,note_on,,1,0,10,,,,,,,,,,,,,,,,8,,55,72
20339,note_on,,179,0,14,,,,,,,,,,,,,,,,13,,55,0
20339,note_on,,179,0,15,,,,,,,,,,,,,,,,15,,55,0
20339,note_on,,0,0,15,,,,,,,,,,,,,,,,15,,62,0
20339,note_on,,0,0,15,,,,,,,,,,,,,,,,15,,59,0
20339,note_on,,179,0,10,,,,,,,,,,,,,,,,8,,55,0
20339,note_on,,179,0,12,,,,,,,,,,,,,,,,11,,74,0
20339,note_on,,179,0,9,,,,,,,,,,,,,,,,7,,62,0
20339,note_on,,179,0,13,,,,,,,,,,,,,,,,12,,62,0
20339,note_on,,179,0,11,,,,,,,,,,,,,,,,10,,83,0
20339,note_on,,179,0,6,,,,,,,,,,,,,,,,2,,55,0
20339,note_on,,179,0,8,,,,,,,,,,,,,,,,6,,67,0
20339,note_on,,179,0,7,,,,,,,,,,,,,,,,5,,71,0
20339,note_on,,179,0,5,,,,,,,,,,,,,,,,1,,71,0
20340,note_on,,1,0,13,,,,,,,,,,,,,,,,12,,62,72
20340,note_on,,1,0,5,,,,,,,,,,,,,,,,1,,79,72
20340,note_on,,1,0,6,,,,,,,,,,,,,,,,2,,55,72
20340,note_on,,1,0,10,,,,,,,,,,,,,,,,8,,55,72
20340,note_on,,1,0,11,,,,,,,,,,,,,,,,10,,79,72
20340,note_on,,1,0,9,,,,,,,,,,,,,,,,7,,59,72
20340,note_on,,1,0,14,,,,,,,,,,,,,,,,13,,55,72
20340,note_on,,1,0,12,,,,,,,,,,,,,,,,11,,71,72
20340,note_on,,1,0,8,,,,,,,,,,,,,,,,6,,62,72
20340,note_on,,0,0,15,,,,,,,,,,,,,,,,15,,59,72
20340,note_on,,0,0,15,,,,,,,,,,,,,,,,15,,71,72
20340,note_on,,0,0,15,,,,,,,,,,,,,,,,15,,74,72
20340,note_on,,1,0,7,,,,,,,,,,,,,,,,5,,79,72
20340,note_on,,0,0,15,,,,,,,,,,,,,,,,15,,79,72
20340,note_on,,1,0,15,,,,,,,,,,,,,,,,15,,55,72
20399,note_on,,59,0,10,,,,,,,,,,,,,,,,8,,55,0
20399,note_on,,0,0,15,,,,,,,,,,,,,,,,15,,74,0
20399,note_on,,0,0,15,,,,,,,,,,,,,,,,15,,71,0
20399,note_on,,59,0,12,,,,,,,,,,,,,,,,11,,71,0
20399,note_on,,59,0,5,,,,,,,,,,,,,,,,1,,79,0
20399,note_on,,59,0,6,,,,,,,,,,,,,,,,2,,55,0
20399,note_on,,59,0,15,,,,,,,,,,,,,,,,15,,55,0
20399,note_on,,0,0,15,,,,,,,,,,,,,,,,15,,79,0
20399,note_on,,59,0,7,,,,,,,,,,,,,,,,5,,79,0
20399,note_on,,59,0,11,,,,,,,,,,,,,,,,10,,79,0
20399,note_on,,0,0,15,,,,,,,,,,,,,,,,15,,59,0
20399,note_on,,59,0,8,,,,,,,,,,,,,,,,6,,62,0
20399,note_on,,59,0,9,,,,,,,,,,,,,,,,7,,59,0
20399,note_on,,59,0,13,,,,,,,,,,,,,,,,12,,62,0
20399,note_on,,59,0,14,,,,,,,,,,,,,,,,13,,55,0
20400,note_on,,1,0,10,,,,,,,,,,,,,,,,8,,57,72
20400,note_on,,1,0,5,,,,,,,,,,,,,,,,1,,77,72
20400,note_on,,1,0,8,,,,,,,,,,,,,,,,6,,60,72
20400,note_on,,0,0,15,,,,,,,,,,,,,,,,15,,72,72
20400,note_on,,0,0,15,,,,,,,,,,,,,,,,15,,60,72
20400,note_on,,0,0,15,,,,,,,,,,,,,,,,15,,69,72
20400,note_on,,1,0,6,,,,,,,,,,,,,,,,2,,57,72
20400,note_on,,1,0,14,,,,,,,,,,,,,,,,13,,57,72
20400,note_on,,1,0,7,,,,,,,,,,,,,,,,5,,77,72
20400,note_on,,1,0,11,,,,,,,,,,,,,,,,10,,77,72
20400,note_on,,1,0,15,,,,,,,,,,,,,,,,15,,57,72
20400,note_on,,1,0,9,,,,,,,,,,,,,,,,7,,60,72
20400,note_on,,1,0,13,,,,,,,,,,,,,,,,12,,60,72
20400,note_on,,0,0,15,,,,,,,,,,,,,,,,15,,77,72
20400,note_on,,1,0,12,,,,,,,,,,,,,,,,11,,72,72
20459,note_on,,0,0,15,,,,,,,,,,,,,,,,15,,69,0
20459,note_on,,59,0,14,,,,,,,,,,,,,,,,13,,57,0
20459,note_on,,0,0,15,,,,,,,,,,,,,,,,15,,72,0
20459,note_on,,0,0,15,,,,,,,,,,,,,,,,15,,77,0
20459,note_on,,0,0,15,,,,,,,,,,,,,,,,15,,60,0
20459,note_on,,59,0,6,,,,,,,,,,,,,,,,2,,57,0
20459,note_on,,59,0,11,,,,,,,,,,,,,,,,10,,77,0
20459,note_on,,59,0,13,,,,,,,,,,,,,,,,12,,60,0
20459,note_on,,59,0,12,,,,,,,,,,,,,,,,11,,72,0
20459,note_on,,59,0,15,,,,,,,,,,,,,,,,15,,57,0
20459,note_on,,59,0,5,,,,,,,,,,,,,,,,1,,77,0
20459,note_on,,59,0,9,,,,,,,,,,,,,,,,7,,60,0
20459,note_on,,59,0,7,,,,,,,,,,,,,,,,5,,77,0
20459,note_on,,59,0,10,,,,,,,,,,,,,,,,8,,57,0
20459,note_on,,59,0,8,,,,,,,,,,,,,,,,6,,60,0
20460,note_on,,1,0,15,,,,,,,,,,,,,,,,15,,59,72
20460,note_on,,0,0,15,,,,,,,,,,,,,,,,15,,62,72
20460,note_on,,1,0,6,,,,,,,,,,,,,,,,2,,59,72
20460,note_on,,0,0,15,,,,,,,,,,,,,,,,15,,71,72
20460,note_on,,1,0,8,,,,,,,,,,,,,,,,6,,67,72
20460,note_on,,1,0,7,,,,,,,,,,,,,,,,5,,79,72
20460,note_on,,1,0,13,,,,,,,,,,,,,,,,12,,67,72
20460,note_on,,0,0,15,,,,,,,,,,,,,,,,15,,74,72
20460,note_on,,0,0,15,,,,,,,,,,,,,,,,15,,67,72
20460,note_on,,1,0,10,,,,,,,,,,,,,,,,8,,59,72
20460,note_on,,1,0,9,,,,,,,,,,,,,,,,7,,62,72
20460,note_on,,1,0,12,,,,,,,,,,,,,,,,11,,74,72
20460,note_on,,1,0,11,,,,,,,,,,,,,,,,10,,79,72
20460,note_on,,1,0,5,,,,,,,,,,,,,,,,1,,79,72
20460,note_on,,1,0,14,,,,,,,,,,,,,,,,13,,59,72
20519,note_on,,59,0,5,,,,,,,,,,,,,,,,1,,79,0
20519,note_on,,59,0,9,,,,,,,,,,,,,,,,7,,62,0
20519,note_on,,59,0,8,,,,,,,,,,,,,,,,6,,67,0
20519,note_on,,59,0,12,,,,,,,,,,,,,,,,11,,74,0
20519,note_on,,59,0,11,,,,,,,,,,,,,,,,10,,79,0
20519,note_on,,59,0,6,,,,,,,,,,,,,,,,2,,59,0
20519,note_on,,0,0,15,,,,,,,,,,,,,,,,15,,67,0
20519,note_on,,0,0,15,,,,,,,,,,,,,,,,15,,71,0
20519,note_on,,0,0,15,,,,,,,,,,,,,,,,15,,74,0
20519,note_on,,59,0,10,,,,,,,,,,,,,,,,8,,59,0
20519,note_on,,59,0,15,,,,,,,,,,,,,,,,15,,59,0
20519,note_on,,0,0,15,,,,,,,,,,,,,,,,15,,62,0
20519,note_on,,59,0,13,,,,,,,,,,,,,,,,12,,67,0
20519,note_on,,59,0,7,,,,,,,,,,,,,,,,5,,79,0
20519,note_on,,59,0,14,,,,,,,,,,,,,,,,13,,59,0
20520,note_on,,1,0,5,,,,,,,,,,,,,,,,1,,76,72
20520,note_on,,1,0,9,,,,,,,,,,,,,,,,7,,64,72
20520,note_on,,1,0,10,,,,,,,,,,,,,,,,8,,60,72
20520,note_on,,1,0,12,,,,,,,,,,,,,,,,11,,72,72
20520,note_on,,1,0,15,,,,,,,,,,,,,,,,15,,60,72
20520,note_on,,1,0,11,,,,,,,,,,,,,,,,10,,76,72
20520,note_on,,1,0,8,,,,,,,,,,,,,,,,6,,67,72
20520,note_on,,1,0,14,,,,,,,,,,,,,,,,13,,60,72
20520,note_on,,0,0,15,,,,,,,,,,,,,,,,15,,67,72
20520,note_on,,0,0,15,,,,,,,,,,,,,,,,15,,64,72
20520,note_on,,1,0,7,,,,,,,,,,,,,,,,5,,76,72
20520,note_on,,1,0,6,,,,,,,,,,,,,,,,2,,60,72
20520,note_on,,1,0,13,,,,,,,,,,,,,,,,12,,67,72
20579,note_on,,59,0,9,,,,,,,,,,,,,,,,7,,64,0
20579,note_on,,59,0,15,,,,,,,,,,,,,,,,15,,67,0
20579,note_on,,0,0,15,,,,,,,,,,,,,,,,15,,64,0
20579,note_on,,59,0,7,,,,,,,,,,,,,,,,5,,76,0
20579,note_on,,59,0,8,,,,,,,,,,,,,,,,6,,67,0
20579,note_on,,59,0,5,,,,,,,,,,,,,,,,1,,76,0
20579,note_on,,59,0,10,,,,,,,,,,,,,,,,8,,60,0
20579,note_on,,59,0,14,,,,,,,,,,,,,,,,13,,60,0
20579,note_on,,59,0,6,,,,,,,,,,,,,,,,2,,60,0
20579,note_on,,59,0,13,,,,,,,,,,,,,,,,12,,67,0
20579,note_on,,59,0,11,,,,,,,,,,,,,,,,10,,76,0
20580,note_on,,1,0,11,,,,,,,,,,,,,,,,10,,74,72
20580,note_on,,1,0,5,,,,,,,,,,,,,,,,1,,77,72
20580,note_on,,1,0,7,,,,,,,,,,,,,,,,5,,77,72
20580,note_on,,0,0,15,,,,,,,,,,,,,,,,15,,65,72
20580,note_on,,0,0,15,,,,,,,,,,,,,,,,15,,69,72
20580,note_on,,0,0,15,,,,,,,,,,,,,,,,15,,72,72
20580,note_on,,0,0,15,,,,,,,,,,,,,,,,15,,74,72
20580,note_on,,1,0,15,,,,,,,,,,,,,,,,15,,53,72
20580,note_on,,1,0,6,,,,,,,,,,,,,,,,2,,53,72
20580,note_on,,1,0,9,,,,,,,,,,,,,,,,7,,60,72
20580,note_on,,1,0,14,,,,,,,,,,,,,,,,13,,53,72
20580,note_on,,1,0,13,,,,,,,,,,,,,,,,12,,69,72
20580,note_on,,1,0,10,,,,,,,,,,,,,,,,8,,53,72
20580,note_on,,1,0,8,,,,,,,,,,,,,,,,6,,69,72
20639,note_on,,59,0,10,,,,,,,,,,,,,,,,8,,53,0
20639,note_on,,59,0,13,,,,,,,,,,,,,,,,12,,69,0
20639,note_on,,59,0,7,,,,,,,,,,,,,,,,5,,77,0
20639,note_on,,59,0,11,,,,,,,,,,,,,,,,10,,74,0
20639,note_on,,59,0,5,,,,,,,,,,,,,,,,1,,77,0
20639,note_on,,59,0,8,,,,,,,,,,,,,,,,6,,69,0
20639,note_on,,59,0,15,,,,,,,,,,,,,,,,15,,60,0
20639,note_on,,0,0,15,,,,,,,,,,,,,,,,15,,65,0
20639,note_on,,59,0,9,,,,,,,,,,,,,,,,7,,60,0
20639,note_on,,59,0,14,,,,,,,,,,,,,,,,13,,53,0
20639,note_on,,0,0,15,,,,,,,,,,,,,,,,15,,53,0
20639,note_on,,0,0,15,,,,,,,,,,,,,,,,15,,74,0
20639,note_on,,0,0,15,,,,,,,,,,,,,,,,15,,72,0
20639,note_on,,0,0,15,,,,,,,,,,,,,,,,15,,69,0
20639,note_on,,119,0,12,,,,,,,,,,,,,,,,11,,72,0
20639,note_on,,59,0,6,,,,,,,,,,,,,,,,2,,53,0
20640,note_on,,0,0,15,,,,,,,,,,,,,,,,15,,74,72
20640,note_on,,0,0,15,,,,,,,,,,,,,,,,15,,72,72
20640,note_on,,0,0,15,,,,,,,,,,,,,,,,15,,67,72
20640,note_on,,1,0,12,,,,,,,,,,,,,,,,11,,72,72
20640,note_on,,1,0,15,,,,,,,,,,,,,,,,15,,55,72
20640,note_on,,1,0,11,,,,,,,,,,,,,,,,10,,74,72
20640,note_on,,1,0,14,,,,,,,,,,,,,,,,13,,55,72
20640,note_on,,1,0,13,,,,,,,,,,,,,,,,12,,67,72
20640,note_on,,1,0,5,,,,,,,,,,,,,,,,1,,74,72
20640,note_on,,1,0,6,,,,,,,,,,,,,,,,2,,55,72
20640,note_on,,0,0,15,,,,,,,,,,,,,,,,15,,62,72
20640,note_on,,1,0,7,,,,,,,,,,,,,,,,5,,74,72
20640,note_on,,1,0,8,,,,,,,,,,,,,,,,6,,67,72
20640,note_on,,1,0,10,,,,,,,,,,,,,,,,8,,55,72
20640,note_on,,1,0,9,,,,,,,,,,,,,,,,7,,60,72
20759,note_on,,119,0,13,,,,,,,,,,,,,,,,12,,67,0
20759,note_on,,119,0,15,,,,,,,,,,,,,,,,15,,72,0
20759,note_on,,0,0,15,,,,,,,,,,,,,,,,15,,67,0
20759,note_on,,0,0,15,,,,,,,,,,,,,,,,15,,62,0
20759,note_on,,119,0,14,,,,,,,,,,,,,,,,13,,55,0
20759,note_on,,119,0,9,,,,,,,,,,,,,,,,7,,60,0
20759,note_on,,119,0,6,,,,,,,,,,,,,,,,2,,55,0
20759,note_on,,119,0,12,,,,,,,,,,,,,,,,11,,72,0
20760,note_on,,1,0,14,,,,,,,,,,,,,,,,13,,43,72
20760,note_on,,0,0,15,,,,,,,,,,,,,,,,15,,67,72
20760,note_on,,1,0,6,,,,,,,,,,,,,,,,2,,43,72
20760,note_on,,0,0,15,,,,,,,,,,,,,,,,15,,71,72
20760,note_on,,1,0,13,,,,,,,,,,,,,,,,12,,67,72
20760,note_on,,1,0,12,,,,,,,,,,,,,,,,11,,71,72
20760,note_on,,1,0,9,,,,,,,,,,,,,,,,7,,59,72
20760,note_on,,1,0,15,,,,,,,,,,,,,,,,15,,43,72
20819,note_on,,59,0,12,,,,,,,,,,,,,,,,11,,71,0
20819,note_on,,59,0,9,,,,,,,,,,,,,,,,7,,59,0
20820,note_on,,1,0,9,,,,,,,,,,,,,,,,7,,65,72
20820,note_on,,1,0,12,,,,,,,,,,,,,,,,11,,65,72
20879,note_on,,0,0,15,,,,,,,,,,,,,,,,15,,74,0
20879,note_on,,119,0,15,,,,,,,,,,,,,,,,15,,55,0
20879,note_on,,0,0,15,,,,,,,,,,,,,,,,15,,71,0
20879,note_on,,0,0,15,,,,,,,,,,,,,,,,15,,67,0
20879,note_on,,239,0,10,,,,,,,,,,,,,,,,8,,55,0
20879,note_on,,0,0,15,,,,,,,,,,,,,,,,15,,43,0
20879,note_on,,119,0,13,,,,,,,,,,,,,,,,12,,67,0
20879,note_on,,119,0,14,,,,,,,,,,,,,,,,13,,43,0
20879,note_on,,239,0,8,,,,,,,,,,,,,,,,6,,67,0
20879,note_on,,59,0,9,,,,,,,,,,,,,,,,7,,65,0
20879,note_on,,59,0,12,,,,,,,,,,,,,,,,11,,65,0
20879,note_on,,239,0,7,,,,,,,,,,,,,,,,5,,74,0
20879,note_on,,119,0,6,,,,,,,,,,,,,,,,2,,43,0
20879,note_on,,239,0,11,,,,,,,,,,,,,,,,10,,74,0
20879,note_on,,239,0,5,,,,,,,,,,,,,,,,1,,74,0
20880,note_on,,1,0,9,,,,,,,,,,,,,,,,7,,64,72
20880,note_on,,1,0,12,,,,,,,,,,,,,,,,11,,64,72
20880,note_on,,1,0,8,,,,,,,,,,,,,,,,6,,67,72
20880,note_on,,1,0,6,,,,,,,,,,,,,,,,2,,48,72
20880,note_on,,1,0,15,,,,,,,,,,,,,,,,15,,48,72
20880,note_on,,1,0,11,,,,,,,,,,,,,,,,10,,72,72
20880,note_on,,1,0,13,,,,,,,,,,,,,,,,12,,67,72
20880,note_on,,1,0,7,,,,,,,,,,,,,,,,5,,72,72
20880,note_on,,1,0,10,,,,,,,,,,,,,,,,8,,48,72
20880,note_on,,0,0,15,,,,,,,,,,,,,,,,15,,72,72
20880,note_on,,0,0,15,,,,,,,,,,,,,,,,15,,67,72
20880,note_on,,0,0,15,,,,,,,,,,,,,,,,15,,64,72
20880,note_on,,0,0,15,,,,,,,,,,,,,,,,15,,55,72
20880,note_on,,1,0,14,,,,,,,,,,,,,,,,13,,48,72
20880,note_on,,1,0,5,,,,,,,,,,,,,,,,1,,72,72
20939,note_on,,59,0,12,,,,,,,,,,,,,,,,11,,64,0
20939,note_on,,59,0,13,,,,,,,,,,,,,,,,12,,67,0
20940,note_on,,1,0,12,,,,,,,,,,,,,,,,11,,59,72
20940,note_on,,1,0,13,,,,,,,,,,,,,,,,12,,62,72
20999,note_on,,119,0,10,,,,,,,,,,,,,,,,8,,48,0
20999,note_on,,119,0,8,,,,,,,,,,,,,,,,6,,67,0
20999,note_on,,119,0,9,,,,,,,,,,,,,,,,7,,64,0
20999,note_on,,59,0,12,,,,,,,,,,,,,,,,11,,59,0
20999,note_on,,119,0,7,,,,,,,,,,,,,,,,5,,72,0
20999,note_on,,59,0,13,,,,,,,,,,,,,,,,12,,62,0
20999,note_on,,119,0,5,,,,,,,,,,,,,,,,1,,72,0
20999,note_on,,119,0,11,,,,,,,,,,,,,,,,10,,72,0
21000,note_on,,1,0,5,,,,,,,,,,,,,,,,1,,72,72
21000,note_on,,1,0,7,,,,,,,,,,,,,,,,5,,72,72
21000,note_on,,1,0,13,,,,,,,,,,,,,,,,12,,64,72
21000,note_on,,1,0,9,,,,,,,,,,,,,,,,7,,64,72
21000,note_on,,1,0,12,,,,,,,,,,,,,,,,11,,60,72
21000,note_on,,1,0,10,,,,,,,,,,,,,,,,8,,48,72
21000,note_on,,1,0,11,,,,,,,,,,,,,,,,10,,79,72
21000,note_on,,1,0,8,,,,,,,,,,,,,,,,6,,67,72
21059,note_on,,59,0,11,,,,,,,,,,,,,,,,10,,79,0
21059,note_on,,59,0,13,,,,,,,,,,,,,,,,12,,64,0
21060,note_on,,1,0,13,,,,,,,,,,,,,,,,12,,59,72
21060,note_on,,1,0,11,,,,,,,,,,,,,,,,10,,74,72
21119,note_on,,59,0,11,,,,,,,,,,,,,,,,10,,74,0
21119,note_on,,119,0,12,,,,,,,,,,,,,,,,11,,60,0
21119,note_on,,59,0,13,,,,,,,,,,,,,,,,12,,59,0
21119,note_on,,119,0,7,,,,,,,,,,,,,,,,5,,72,0
21119,end_of_track,,0,1,7,,,,,,,,,,,,,,,,,,,
21119,end_of_track,,0,1,8,,,,,,,,,,,,,,,,,,,
21119,note_on,,119,0,8,,,,,,,,,,,,,,,,6,,67,0
21119,end_of_track,,0,1,10,,,,,,,,,,,,,,,,,,,
21119,note_on,,119,0,10,,,,,,,,,,,,,,,,8,,48,0
21119,note_on,,119,0,5,,,,,,,,,,,,,,,,1,,72,0
21119,end_of_track,,0,1,5,,,,,,,,,,,,,,,,,,,
21119,note_on,,119,0,9,,,,,,,,,,,,,,,,7,,64,0
21119,end_of_track,,0,1,9,,,,,,,,,,,,,,,,,,,
21120,note_on,,1,0,13,,,,,,,,,,,,,,,,12,,60,72
21120,note_on,,1,0,11,,,,,,,,,,,,,,,,10,,76,72
21120,note_on,,1,0,12,,,,,,,,,,,,,,,,11,,79,72
21179,note_on,,59,0,12,,,,,,,,,,,,,,,,11,,79,0
21179,note_on,,59,0,11,,,,,,,,,,,,,,,,10,,76,0
21180,note_on,,1,0,12,,,,,,,,,,,,,,,,11,,74,72
21180,note_on,,1,0,11,,,,,,,,,,,,,,,,10,,71,72
21239,note_on,,59,0,12,,,,,,,,,,,,,,,,11,,74,0
21239,note_on,,0,0,15,,,,,,,,,,,,,,,,15,,55,0
21239,note_on,,0,0,15,,,,,,,,,,,,,,,,15,,64,0
21239,note_on,,0,0,15,,,,,,,,,,,,,,,,15,,67,0
21239,note_on,,359,0,15,,,,,,,,,,,,,,,,15,,48,0
21239,note_on,,0,0,15,,,,,,,,,,,,,,,,15,,72,0
21239,note_on,,119,0,13,,,,,,,,,,,,,,,,12,,60,0
21239,note_on,,359,0,14,,,,,,,,,,,,,,,,13,,48,0
21239,note_on,,359,0,6,,,,,,,,,,,,,,,,2,,48,0
21239,note_on,,59,0,11,,,,,,,,,,,,,,,,10,,71,0
21240,note_on,,1,0,11,,,,,,,,,,,,,,,,10,,72,72
21240,note_on,,1,0,14,,,,,,,,,,,,,,,,13,,60,72
21240,note_on,,1,0,12,,,,,,,,,,,,,,,,11,,76,72
21240,note_on,,1,0,6,,,,,,,,,,,,,,,,2,,60,72
21240,note_on,,1,0,15,,,,,,,,,,,,,,,,15,,60,72
21240,note_on,,0,0,15,,,,,,,,,,,,,,,,15,,76,72
21240,note_on,,0,0,15,,,,,,,,,,,,,,,,15,,72,72
21240,note_on,,0,0,15,,,,,,,,,,,,,,,,15,,67,72
21240,note_on,,1,0,13,,,,,,,,,,,,,,,,12,,67,72
21299,note_on,,59,0,15,,,,,,,,,,,,,,,,15,,60,0
21299,note_on,,0,0,15,,,,,,,,,,,,,,,,15,,76,0
21299,note_on,,0,0,15,,,,,,,,,,,,,,,,15,,72,0
21299,note_on,,59,0,14,,,,,,,,,,,,,,,,13,,60,0
21299,note_on,,59,0,6,,,,,,,,,,,,,,,,2,,60,0
21299,note_on,,59,0,12,,,,,,,,,,,,,,,,11,,76,0
21300,note_on,,0,0,15,,,,,,,,,,,,,,,,15,,62,72
21300,note_on,,1,0,15,,,,,,,,,,,,,,,,15,,55,72
21300,note_on,,1,0,14,,,,,,,,,,,,,,,,13,,55,72
21300,note_on,,1,0,6,,,,,,,,,,,,,,,,2,,55,72
21300,note_on,,1,0,12,,,,,,,,,,,,,,,,11,,71,72
21300,note_on,,0,0,15,,,,,,,,,,,,,,,,15,,71,72
21359,note_on,,59,0,14,,,,,,,,,,,,,,,,13,,55,0
21359,note_on,,59,0,15,,,,,,,,,,,,,,,,15,,67,0
21359,note_on,,0,0,15,,,,,,,,,,,,,,,,15,,55,0
21359,note_on,,59,0,12,,,,,,,,,,,,,,,,11,,71,0
21359,note_on,,119,0,11,,,,,,,,,,,,,,,,10,,72,0
21359,note_on,,0,0,15,,,,,,,,,,,,,,,,15,,62,0
21359,note_on,,119,0,13,,,,,,,,,,,,,,,,12,,67,0
21359,note_on,,59,0,6,,,,,,,,,,,,,,,,2,,55,0
21359,note_on,,0,0,15,,,,,,,,,,,,,,,,15,,71,0
21360,note_on,,1,0,15,,,,,,,,,,,,,,,,15,,57,72
21360,note_on,,0,0,15,,,,,,,,,,,,,,,,15,,60,72
21360,note_on,,0,0,15,,,,,,,,,,,,,,,,15,,64,72
21360,note_on,,0,0,15,,,,,,,,,,,,,,,,15,,72,72
21360,note_on,,1,0,11,,,,,,,,,,,,,,,,10,,84,72
21360,note_on,,1,0,14,,,,,,,,,,,,,,,,13,,57,72
21360,note_on,,1,0,12,,,,,,,,,,,,,,,,11,,72,72
21360,note_on,,1,0,13,,,,,,,,,,,,,,,,12,,64,72
21360,note_on,,1,0,6,,,,,,,,,,,,,,,,2,,57,72
21419,note_on,,59,0,14,,,,,,,,,,,,,,,,13,,57,0
21419,note_on,,59,0,6,,,,,,,,,,,,,,,,2,,57,0
21419,note_on,,59,0,11,,,,,,,,,,,,,,,,10,,84,0
21419,note_on,,59,0,15,,,,,,,,,,,,,,,,15,,57,0
21419,note_on,,0,0,15,,,,,,,,,,,,,,,,15,,72,0
21420,note_on,,1,0,6,,,,,,,,,,,,,,,,2,,52,72
21420,note_on,,1,0,15,,,,,,,,,,,,,,,,15,,52,72
21420,note_on,,0,0,15,,,,,,,,,,,,,,,,15,,67,72
21420,note_on,,1,0,14,,,,,,,,,,,,,,,,13,,52,72
21420,note_on,,1,0,11,,,,,,,,,,,,,,,,10,,79,72
21479,note_on,,59,0,15,,,,,,,,,,,,,,,,15,,60,0
21479,note_on,,0,0,15,,,,,,,,,,,,,,,,15,,52,0
21479,note_on,,0,0,15,,,,,,,,,,,,,,,,15,,67,0
21479,note_on,,59,0,14,,,,,,,,,,,,,,,,13,,52,0
21479,note_on,,119,0,13,,,,,,,,,,,,,,,,12,,64,0
21479,note_on,,0,0,15,,,,,,,,,,,,,,,,15,,64,0
21479,note_on,,59,0,11,,,,,,,,,,,,,,,,10,,79,0
21479,note_on,,59,0,6,,,,,,,,,,,,,,,,2,,52,0
21480,note_on,,1,0,15,,,,,,,,,,,,,,,,15,,53,72
21480,note_on,,0,0,15,,,,,,,,,,,,,,,,15,,57,72
21480,note_on,,0,0,15,,,,,,,,,,,,,,,,15,,69,72
21480,note_on,,0,0,15,,,,,,,,,,,,,,,,15,,60,72
21480,note_on,,1,0,6,,,,,,,,,,,,,,,,2,,53,72
21480,note_on,,1,0,13,,,,,,,,,,,,,,,,12,,60,72
21480,note_on,,1,0,14,,,,,,,,,,,,,,,,13,,53,72
21480,note_on,,1,0,11,,,,,,,,,,,,,,,,10,,81,72
21539,note_on,,179,0,12,,,,,,,,,,,,,,,,11,,72,0
21539,note_on,,0,0,15,,,,,,,,,,,,,,,,15,,60,0
21539,note_on,,0,0,15,,,,,,,,,,,,,,,,15,,69,0
21539,note_on,,0,0,15,,,,,,,,,,,,,,,,15,,57,0
21539,note_on,,59,0,15,,,,,,,,,,,,,,,,15,,53,0
21539,note_on,,59,0,11,,,,,,,,,,,,,,,,10,,81,0
21539,note_on,,59,0,14,,,,,,,,,,,,,,,,13,,53,0
21539,note_on,,59,0,6,,,,,,,,,,,,,,,,2,,53,0
21540,note_on,,1,0,6,,,,,,,,,,,,,,,,2,,48,72
21540,note_on,,1,0,11,,,,,,,,,,,,,,,,10,,76,72
21540,note_on,,1,0,14,,,,,,,,,,,,,,,,13,,48,72
21540,note_on,,1,0,12,,,,,,,,,,,,,,,,11,,72,72
21540,note_on,,1,0,15,,,,,,,,,,,,,,,,15,,48,72
21540,note_on,,0,0,15,,,,,,,,,,,,,,,,15,,55,72
21540,note_on,,0,0,15,,,,,,,,,,,,,,,,15,,72,72
21540,note_on,,0,0,15,,,,,,,,,,,,,,,,15,,64,72
21599,note_on,,59,0,11,,,,,,,,,,,,,,,,10,,76,0
21599,note_on,,59,0,6,,,,,,,,,,,,,,,,2,,48,0
21599,note_on,,59,0,15,,,,,,,,,,,,,,,,15,,48,0
21599,note_on,,0,0,15,,,,,,,,,,,,,,,,15,,55,0
21599,note_on,,0,0,15,,,,,,,,,,,,,,,,15,,72,0
21599,note_on,,0,0,15,,,,,,,,,,,,,,,,15,,64,0
21599,note_on,,59,0,14,,,,,,,,,,,,,,,,13,,48,0
21599,note_on,,119,0,13,,,,,,,,,,,,,,,,12,,60,0
21599,note_on,,59,0,12,,,,,,,,,,,,,,,,11,,72,0
21600,note_on,,0,0,15,,,,,,,,,,,,,,,,15,,62,72
21600,note_on,,1,0,12,,,,,,,,,,,,,,,,11,,69,72
21600,note_on,,0,0,15,,,,,,,,,,,,,,,,15,,65,72
21600,note_on,,1,0,13,,,,,,,,,,,,,,,,12,,65,72
21600,note_on,,1,0,11,,,,,,,,,,,,,,,,10,,77,72
21600,note_on,,1,0,15,,,,,,,,,,,,,,,,15,,50,72
21600,note_on,,1,0,6,,,,,,,,,,,,,,,,2,,50,72
21600,note_on,,0,0,15,,,,,,,,,,,,,,,,15,,71,72
21600,note_on,,1,0,14,,,,,,,,,,,,,,,,13,,50,72
21659,note_on,,59,0,12,,,,,,,,,,,,,,,,11,,69,0
21659,note_on,,59,0,13,,,,,,,,,,,,,,,,12,,65,0
21659,note_on,,59,0,14,,,,,,,,,,,,,,,,13,,50,0
21659,note_on,,59,0,6,,,,,,,,,,,,,,,,2,,50,0
21659,note_on,,59,0,15,,,,,,,,,,,,,,,,15,,50,0
21659,note_on,,59,0,11,,,,,,,,,,,,,,,,10,,77,0
21660,note_on,,1,0,14,,,,,,,,,,,,,,,,13,,55,72
21660,note_on,,1,0,15,,,,,,,,,,,,,,,,15,,55,72
21660,note_on,,1,0,13,,,,,,,,,,,,,,,,12,,67,72
21660,note_on,,1,0,11,,,,,,,,,,,,,,,,10,,74,72
21660,note_on,,1,0,12,,,,,,,,,,,,,,,,11,,71,72
21660,note_on,,1,0,6,,,,,,,,,,,,,,,,2,,55,72
21719,note_on,,59,0,13,,,,,,,,,,,,,,,,12,,67,0
21719,note_on,,59,0,12,,,,,,,,,,,,,,,,11,,71,0
21719,note_on,,59,0,6,,,,,,,,,,,,,,,,2,,55,0
21719,note_on,,0,0,15,,,,,,,,,,,,,,,,15,,65,0
21719,note_on,,59,0,11,,,,,,,,,,,,,,,,10,,74,0
21719,note_on,,59,0,14,,,,,,,,,,,,,,,,13,,55,0
21719,note_on,,59,0,15,,,,,,,,,,,,,,,,15,,71,0
21719,note_on,,0,0,15,,,,,,,,,,,,,,,,15,,55,0
21719,note_on,,0,0,15,,,,,,,,,,,,,,,,15,,62,0
21720,note_on,,1,0,6,,,,,,,,,,,,,,,,2,,60,72
21720,note_on,,1,0,15,,,,,,,,,,,,,,,,15,,60,72
21720,note_on,,0,0,15,,,,,,,,,,,,,,,,15,,64,72
21720,note_on,,0,0,15,,,,,,,,,,,,,,,,15,,67,72
21720,note_on,,1,0,14,,,,,,,,,,,,,,,,13,,60,72
21720,note_on,,1,0,13,,,,,,,,,,,,,,,,12,,67,72
21720,note_on,,1,0,11,,,,,,,,,,,,,,,,10,,76,72
21720,note_on,,1,0,12,,,,,,,,,,,,,,,,11,,67,72
21779,note_on,,59,0,6,,,,,,,,,,,,,,,,2,,60,0
21779,note_on,,59,0,15,,,,,,,,,,,,,,,,15,,67,0
21779,note_on,,59,0,12,,,,,,,,,,,,,,,,11,,67,0
21779,note_on,,59,0,14,,,,,,,,,,,,,,,,13,,60,0
21779,note_on,,59,0,13,,,,,,,,,,,,,,,,12,,67,0
21780,note_on,,0,0,15,,,,,,,,,,,,,,,,15,,69,72
21780,note_on,,1,0,15,,,,,,,,,,,,,,,,15,,57,72
21780,note_on,,1,0,6,,,,,,,,,,,,,,,,2,,57,72
21780,note_on,,1,0,14,,,,,,,,,,,,,,,,13,,57,72
21780,note_on,,1,0,12,,,,,,,,,,,,,,,,11,,72,72
21780,note_on,,1,0,13,,,,,,,,,,,,,,,,12,,69,72
21839,note_on,,0,0,15,,,,,,,,,,,,,,,,15,,57,0
21839,note_on,,0,0,15,,,,,,,,,,,,,,,,15,,69,0
21839,note_on,,59,0,12,,,,,,,,,,,,,,,,11,,72,0
21839,note_on,,0,0,15,,,,,,,,,,,,,,,,15,,64,0
21839,note_on,,59,0,15,,,,,,,,,,,,,,,,15,,60,0
21839,note_on,,59,0,14,,,,,,,,,,,,,,,,13,,57,0
21839,note_on,,119,0,11,,,,,,,,,,,,,,,,10,,76,0
21839,note_on,,59,0,6,,,,,,,,,,,,,,,,2,,57,0
21839,note_on,,59,0,13,,,,,,,,,,,,,,,,12,,69,0
21840,note_on,,1,0,13,,,,,,,,,,,,,,,,12,,69,72
21840,note_on,,1,0,12,,,,,,,,,,,,,,,,11,,69,72
21840,note_on,,1,0,11,,,,,,,,,,,,,,,,10,,78,72
21840,note_on,,1,0,6,,,,,,,,,,,,,,,,2,,62,72
21840,note_on,,1,0,14,,,,,,,,,,,,,,,,13,,62,72
21840,note_on,,0,0,15,,,,,,,,,,,,,,,,15,,66,72
21840,note_on,,0,0,15,,,,,,,,,,,,,,,,15,,69,72
21840,note_on,,1,0,15,,,,,,,,,,,,,,,,15,,62,72
21899,note_on,,59,0,13,,,,,,,,,,,,,,,,12,,69,0
21899,note_on,,59,0,6,,,,,,,,,,,,,,,,2,,62,0
21899,note_on,,59,0,14,,,,,,,,,,,,,,,,13,,62,0
21900,note_on,,1,0,6,,,,,,,,,,,,,,,,2,,60,72
21900,note_on,,60,0,15,,,,,,,,,,,,,,,,15,,60,72
21900,note_on,,1,0,14,,,,,,,,,,,,,,,,13,,60,72
21900,note_on,,1,0,13,,,,,,,,,,,,,,,,12,,62,72
21959,note_on,,0,0,15,,,,,,,,,,,,,,,,15,,69,0
21959,note_on,,59,0,6,,,,,,,,,,,,,,,,2,,60,0
21959,note_on,,59,0,14,,,,,,,,,,,,,,,,13,,60,0
21959,note_on,,59,0,15,,,,,,,,,,,,,,,,15,,62,0
21959,note_on,,0,0,15,,,,,,,,,,,,,,,,15,,60,0
21959,note_on,,119,0,12,,,,,,,,,,,,,,,,11,,69,0
21959,note_on,,119,0,11,,,,,,,,,,,,,,,,10,,78,0
21959,note_on,,0,0,15,,,,,,,,,,,,,,,,15,,66,0
21959,note_on,,59,0,13,,,,,,,,,,,,,,,,12,,62,0
21960,note_on,,1,0,13,,,,,,,,,,,,,,,,12,,62,72
21960,note_on,,0,0,15,,,,,,,,,,,,,,,,15,,67,72
21960,note_on,,0,0,15,,,,,,,,,,,,,,,,15,,74,72
21960,note_on,,1,0,14,,,,,,,,,,,,,,,,13,,59,72
21960,note_on,,1,0,6,,,,,,,,,,,,,,,,2,,59,72
21960,note_on,,0,0,15,,,,,,,,,,,,,,,,15,,62,72
21960,note_on,,1,0,15,,,,,,,,,,,,,,,,15,,59,72
21960,note_on,,1,0,11,,,,,,,,,,,,,,,,10,,79,72
21960,note_on,,1,0,12,,,,,,,,,,,,,,,,11,,74,72
22079,note_on,,119,0,15,,,,,,,,,,,,,,,,15,,59,0
22079,note_on,,119,0,11,,,,,,,,,,,,,,,,10,,79,0
22079,note_on,,119,0,13,,,,,,,,,,,,,,,,12,,62,0
22079,note_on,,119,0,6,,,,,,,,,,,,,,,,2,,59,0
22079,note_on,,0,0,15,,,,,,,,,,,,,,,,15,,67,0
22079,note_on,,119,0,12,,,,,,,,,,,,,,,,11,,74,0
22079,note_on,,0,0,15,,,,,,,,,,,,,,,,15,,62,0
22079,note_on,,0,0,15,,,,,,,,,,,,,,,,15,,74,0
22079,note_on,,119,0,14,,,,,,,,,,,,,,,,13,,59,0
22080,note_on,,1,0,6,,,,,,,,,,,,,,,,2,,55,72
22080,note_on,,1,0,15,,,,,,,,,,,,,,,,15,,55,72
22080,note_on,,0,0,15,,,,,,,,,,,,,,,,15,,71,72
22080,note_on,,0,0,15,,,,,,,,,,,,,,,,15,,67,72
22080,note_on,,1,0,14,,,,,,,,,,,,,,,,13,,55,72
22080,note_on,,0,0,15,,,,,,,,,,,,,,,,15,,62,72
22080,note_on,,1,0,12,,,,,,,,,,,,,,,,11,,71,72
22080,note_on,,1,0,13,,,,,,,,,,,,,,,,12,,74,72
22080,note_on,,1,0,11,,,,,,,,,,,,,,,,10,,67,72
22139,note_on,,59,0,15,,,,,,,,,,,,,,,,15,,55,0
22139,note_on,,59,0,14,,,,,,,,,,,,,,,,13,,55,0
22139,note_on,,59,0,6,,,,,,,,,,,,,,,,2,,55,0
22140,note_on,,1,0,15,,,,,,,,,,,,,,,,15,,57,72
22140,note_on,,1,0,6,,,,,,,,,,,,,,,,2,,57,72
22140,note_on,,1,0,14,,,,,,,,,,,,,,,,13,,57,72
22199,note_on,,119,0,12,,,,,,,,,,,,,,,,11,,71,0
22199,note_on,,0,0,15,,,,,,,,,,,,,,,,15,,57,0
22199,note_on,,0,0,15,,,,,,,,,,,,,,,,15,,62,0
22199,note_on,,0,0,15,,,,,,,,,,,,,,,,15,,67,0
22199,note_on,,59,0,14,,,,,,,,,,,,,,,,13,,57,0
22199,note_on,,59,0,15,,,,,,,,,,,,,,,,15,,71,0
22199,note_on,,59,0,6,,,,,,,,,,,,,,,,2,,57,0
22199,note_on,,119,0,13,,,,,,,,,,,,,,,,12,,74,0
22199,note_on,,119,0,11,,,,,,,,,,,,,,,,10,,67,0
22200,note_on,,1,0,15,,,,,,,,,,,,,,,,15,,59,72
22200,note_on,,1,0,6,,,,,,,,,,,,,,,,2,,59,72
22200,note_on,,1,0,14,,,,,,,,,,,,,,,,13,,59,72
22200,note_on,,1,0,13,,,,,,,,,,,,,,,,12,,71,72
22200,note_on,,0,0,15,,,,,,,,,,,,,,,,15,,67,72
22200,note_on,,1,0,12,,,,,,,,,,,,,,,,11,,67,72
22200,note_on,,0,0,15,,,,,,,,,,,,,,,,15,,62,72
22259,note_on,,59,0,6,,,,,,,,,,,,,,,,2,,59,0
22259,note_on,,59,0,15,,,,,,,,,,,,,,,,15,,59,0
22259,note_on,,59,0,14,,,,,,,,,,,,,,,,13,,59,0
22259,note_on,,0,0,15,,,,,,,,,,,,,,,,15,,62,0
22260,note_on,,1,0,15,,,,,,,,,,,,,,,,15,,55,72
22260,note_on,,0,0,15,,,,,,,,,,,,,,,,15,,59,72
22260,note_on,,1,0,6,,,,,,,,,,,,,,,,2,,55,72
22260,note_on,,1,0,14,,,,,,,,,,,,,,,,13,,55,72
22319,note_on,,59,0,15,,,,,,,,,,,,,,,,15,,67,0
22319,note_on,,0,0,15,,,,,,,,,,,,,,,,15,,55,0
22319,note_on,,0,0,15,,,,,,,,,,,,,,,,15,,59,0
22319,note_on,,59,0,6,,,,,,,,,,,,,,,,2,,55,0
22319,note_on,,119,0,13,,,,,,,,,,,,,,,,12,,71,0
22319,note_on,,119,0,12,,,,,,,,,,,,,,,,11,,67,0
22319,note_on,,59,0,14,,,,,,,,,,,,,,,,13,,55,0
22320,note_on,,121,0,11,,,,,,,,,,,,,,,,10,,79,72
22320,note_on,,1,0,13,,,,,,,,,,,,,,,,12,,67,72
22320,note_on,,0,0,15,,,,,,,,,,,,,,,,15,,64,72
22320,note_on,,0,0,15,,,,,,,,,,,,,,,,15,,67,72
22320,note_on,,1,0,12,,,,,,,,,,,,,,,,11,,64,72
22320,note_on,,1,0,6,,,,,,,,,,,,,,,,2,,60,72
22320,note_on,,1,0,15,,,,,,,,,,,,,,,,15,,60,72
22320,note_on,,1,0,14,,,,,,,,,,,,,,,,13,,60,72
22379,note_on,,59,0,12,,,,,,,,,,,,,,,,11,,64,0
22380,note_on,,1,0,12,,,,,,,,,,,,,,,,11,,72,72
22439,note_on,,119,0,14,,,,,,,,,,,,,,,,13,,60,0
22439,note_on,,119,0,13,,,,,,,,,,,,,,,,12,,67,0
22439,note_on,,119,0,11,,,,,,,,,,,,,,,,10,,79,0
22439,note_on,,59,0,12,,,,,,,,,,,,,,,,11,,72,0
22439,note_on,,119,0,6,,,,,,,,,,,,,,,,2,,60,0
22439,note_on,,0,0,15,,,,,,,,,,,,,,,,15,,67,0
22439,note_on,,119,0,15,,,,,,,,,,,,,,,,15,,60,0
22439,note_on,,0,0,15,,,,,,,,,,,,,,,,15,,64,0
22440,note_on,,1,0,15,,,,,,,,,,,,,,,,15,,48,72
22440,note_on,,1,0,13,,,,,,,,,,,,,,,,12,,67,72
22440,note_on,,1,0,11,,,,,,,,,,,,,,,,10,,76,72
22440,note_on,,1,0,12,,,,,,,,,,,,,,,,11,,72,72
22440,note_on,,0,0,15,,,,,,,,,,,,,,,,15,,60,72
22440,note_on,,0,0,15,,,,,,,,,,,,,,,,15,,76,72
22440,note_on,,0,0,15,,,,,,,,,,,,,,,,15,,72,72
22440,note_on,,0,0,15,,,,,,,,,,,,,,,,15,,67,72
22440,note_on,,1,0,6,,,,,,,,,,,,,,,,2,,48,72
22440,note_on,,1,0,14,,,,,,,,,,,,,,,,13,,48,72
22469,note_on,,29,0,12,,,,,,,,,,,,,,,,11,,72,0
22470,note_on,,1,0,12,,,,,,,,,,,,,,,,11,,74,72
22499,note_on,,29,0,12,,,,,,,,,,,,,,,,11,,74,0
22500,note_on,,1,0,12,,,,,,,,,,,,,,,,11,,72,72
22529,note_on,,29,0,12,,,,,,,,,,,,,,,,11,,72,0
22530,note_on,,1,0,12,,,,,,,,,,,,,,,,11,,71,72
22559,note_on,,0,0,15,,,,,,,,,,,,,,,,15,,72,0
22559,note_on,,29,0,12,,,,,,,,,,,,,,,,11,,71,0
22559,note_on,,119,0,13,,,,,,,,,,,,,,,,12,,67,0
22559,note_on,,119,0,11,,,,,,,,,,,,,,,,10,,76,0
22559,note_on,,0,0,15,,,,,,,,,,,,,,,,15,,67,0
22559,note_on,,119,0,15,,,,,,,,,,,,,,,,15,,76,0
22560,note_on,,1,0,12,,,,,,,,,,,,,,,,11,,69,72
22560,note_on,,1,0,13,,,,,,,,,,,,,,,,12,,64,72
22560,note_on,,0,0,15,,,,,,,,,,,,,,,,15,,64,72
22560,note_on,,1,0,11,,,,,,,,,,,,,,,,10,,72,72
22560,note_on,,0,0,15,,,,,,,,,,,,,,,,15,,69,72
22560,note_on,,1,0,15,,,,,,,,,,,,,,,,15,,72,72
22589,note_on,,29,0,12,,,,,,,,,,,,,,,,11,,69,0
22590,note_on,,1,0,12,,,,,,,,,,,,,,,,11,,71,72
22619,note_on,,29,0,12,,,,,,,,,,,,,,,,11,,71,0
22619,note_on,,179,0,14,,,,,,,,,,,,,,,,13,,48,0
22619,note_on,,0,0,15,,,,,,,,,,,,,,,,15,,60,0
22619,note_on,,179,0,6,,,,,,,,,,,,,,,,2,,48,0
22619,note_on,,59,0,15,,,,,,,,,,,,,,,,15,,48,0
22620,note_on,,1,0,6,,,,,,,,,,,,,,,,2,,48,72
22620,note_on,,1,0,14,,,,,,,,,,,,,,,,13,,48,72
22620,note_on,,0,0,15,,,,,,,,,,,,,,,,15,,52,72
22620,note_on,,1,0,15,,,,,,,,,,,,,,,,15,,48,72
22620,note_on,,1,0,12,,,,,,,,,,,,,,,,11,,69,72
22649,note_on,,29,0,12,,,,,,,,,,,,,,,,11,,69,0
22650,note_on,,1,0,12,,,,,,,,,,,,,,,,11,,67,72
22679,note_on,,59,0,14,,,,,,,,,,,,,,,,13,,48,0
22679,note_on,,59,0,15,,,,,,,,,,,,,,,,15,,72,0
22679,note_on,,0,0,15,,,,,,,,,,,,,,,,15,,69,0
22679,note_on,,0,0,15,,,,,,,,,,,,,,,,15,,64,0
22679,note_on,,0,0,15,,,,,,,,,,,,,,,,15,,48,0
22679,note_on,,0,0,15,,,,,,,,,,,,,,,,15,,52,0
22679,note_on,,29,0,12,,,,,,,,,,,,,,,,11,,67,0
22679,note_on,,59,0,6,,,,,,,,,,,,,,,,2,,48,0
22679,note_on,,119,0,13,,,,,,,,,,,,,,,,12,,64,0
22679,note_on,,119,0,11,,,,,,,,,,,,,,,,10,,72,0
22680,note_on,,1,0,13,,,,,,,,,,,,,,,,12,,60,72
22680,note_on,,1,0,14,,,,,,,,,,,,,,,,13,,53,72
22680,note_on,,1,0,6,,,,,,,,,,,,,,,,2,,53,72
22680,note_on,,1,0,12,,,,,,,,,,,,,,,,11,,65,72
22680,note_on,,1,0,11,,,,,,,,,,,,,,,,10,,69,72
22680,note_on,,1,0,15,,,,,,,,,,,,,,,,15,,53,72
22680,note_on,,0,0,15,,,,,,,,,,,,,,,,15,,69,72
22680,note_on,,0,0,15,,,,,,,,,,,,,,,,15,,57,72
22680,note_on,,0,0,15,,,,,,,,,,,,,,,,15,,60,72
22680,note_on,,0,0,15,,,,,,,,,,,,,,,,15,,65,72
22709,note_on,,29,0,12,,,,,,,,,,,,,,,,11,,65,0
22710,note_on,,1,0,12,,,,,,,,,,,,,,,,11,,67,72
22739,note_on,,29,0,12,,,,,,,,,,,,,,,,11,,67,0
22739,note_on,,59,0,11,,,,,,,,,,,,,,,,10,,69,0
22740,note_on,,1,0,12,,,,,,,,,,,,,,,,11,,65,72
22740,note_on,,1,0,11,,,,,,,,,,,,,,,,10,,77,72
22769,note_on,,29,0,12,,,,,,,,,,,,,,,,11,,65,0
22770,note_on,,1,0,12,,,,,,,,,,,,,,,,11,,64,72
22799,note_on,,59,0,11,,,,,,,,,,,,,,,,10,,77,0
22799,note_on,,119,0,13,,,,,,,,,,,,,,,,12,,60,0
22799,note_on,,29,0,12,,,,,,,,,,,,,,,,11,,64,0
22799,note_on,,0,0,15,,,,,,,,,,,,,,,,15,,65,0
22799,note_on,,119,0,15,,,,,,,,,,,,,,,,15,,69,0
22799,note_on,,0,0,15,,,,,,,,,,,,,,,,15,,60,0
22800,note_on,,1,0,15,,,,,,,,,,,,,,,,15,,77,72
22800,note_on,,1,0,12,,,,,,,,,,,,,,,,11,,62,72
22800,note_on,,0,0,15,,,,,,,,,,,,,,,,15,,74,72
22800,note_on,,0,0,15,,,,,,,,,,,,,,,,15,,69,72
22800,note_on,,1,0,11,,,,,,,,,,,,,,,,10,,77,72
22800,note_on,,1,0,13,,,,,,,,,,,,,,,,12,,69,72
22829,note_on,,29,0,11,,,,,,,,,,,,,,,,10,,77,0
22830,note_on,,1,0,11,,,,,,,,,,,,,,,,10,,79,72
22859,note_on,,179,0,14,,,,,,,,,,,,,,,,13,,53,0
22859,note_on,,29,0,11,,,,,,,,,,,,,,,,10,,79,0
22859,note_on,,59,0,12,,,,,,,,,,,,,,,,11,,62,0
22859,note_on,,0,0,15,,,,,,,,,,,,,,,,15,,57,0
22859,note_on,,59,0,15,,,,,,,,,,,,,,,,15,,53,0
22859,note_on,,179,0,6,,,,,,,,,,,,,,,,2,,53,0
22860,note_on,,1,0,11,,,,,,,,,,,,,,,,10,,77,72
22860,note_on,,1,0,14,,,,,,,,,,,,,,,,13,,53,72
22860,note_on,,1,0,6,,,,,,,,,,,,,,,,2,,53,72
22860,note_on,,1,0,12,,,,,,,,,,,,,,,,11,,69,72
22860,note_on,,1,0,15,,,,,,,,,,,,,,,,15,,53,72
22860,note_on,,0,0,15,,,,,,,,,,,,,,,,15,,57,72
22889,note_on,,29,0,11,,,,,,,,,,,,,,,,10,,77,0
22890,note_on,,1,0,11,,,,,,,,,,,,,,,,10,,76,72
22919,note_on,,59,0,14,,,,,,,,,,,,,,,,13,,53,0
22919,note_on,,0,0,15,,,,,,,,,,,,,,,,15,,74,0
22919,note_on,,59,0,15,,,,,,,,,,,,,,,,15,,77,0
22919,note_on,,59,0,12,,,,,,,,,,,,,,,,11,,69,0
22919,note_on,,0,0,15,,,,,,,,,,,,,,,,15,,69,0
22919,note_on,,59,0,6,,,,,,,,,,,,,,,,2,,53,0
22919,note_on,,0,0,15,,,,,,,,,,,,,,,,15,,57,0
22919,note_on,,29,0,11,,,,,,,,,,,,,,,,10,,76,0
22919,note_on,,0,0,15,,,,,,,,,,,,,,,,15,,53,0
22920,note_on,,1,0,11,,,,,,,,,,,,,,,,10,,74,72
22920,note_on,,0,0,15,,,,,,,,,,,,,,,,15,,65,72
22920,note_on,,1,0,6,,,,,,,,,,,,,,,,2,,53,72
22920,note_on,,0,0,15,,,,,,,,,,,,,,,,15,,69,72
22920,note_on,,0,0,15,,,,,,,,,,,,,,,,15,,74,72
22920,note_on,,0,0,15,,,,,,,,,,,,,,,,15,,57,72
22920,note_on,,1,0,12,,,,,,,,,,,,,,,,11,,77,72
22920,note_on,,1,0,15,,,,,,,,,,,,,,,,15,,53,72
22920,note_on,,1,0,14,,,,,,,,,,,,,,,,13,,53,72
22949,note_on,,29,0,12,,,,,,,,,,,,,,,,11,,77,0
22949,note_on,,29,0,11,,,,,,,,,,,,,,,,10,,74,0
22950,note_on,,1,0,11,,,,,,,,,,,,,,,,10,,76,72
22950,note_on,,1,0,12,,,,,,,,,,,,,,,,11,,79,72
22979,note_on,,59,0,14,,,,,,,,,,,,,,,,13,,53,0
22979,note_on,,29,0,12,,,,,,,,,,,,,,,,11,,79,0
22979,note_on,,59,0,6,,,,,,,,,,,,,,,,2,,53,0
22979,note_on,,179,0,13,,,,,,,,,,,,,,,,12,,69,0
22979,note_on,,0,0,15,,,,,,,,,,,,,,,,15,,57,0
22979,note_on,,29,0,11,,,,,,,,,,,,,,,,10,,76,0
22979,note_on,,59,0,15,,,,,,,,,,,,,,,,15,,53,0
22980,note_on,,1,0,12,,,,,,,,,,,,,,,,11,,77,72
22980,note_on,,1,0,15,,,,,,,,,,,,,,,,15,,53,72
22980,note_on,,0,0,15,,,,,,,,,,,,,,,,15,,57,72
22980,note_on,,1,0,14,,,,,,,,,,,,,,,,13,,53,72
22980,note_on,,1,0,6,,,,,,,,,,,,,,,,2,,53,72
22980,note_on,,1,0,13,,,,,,,,,,,,,,,,12,,69,72
22980,note_on,,1,0,11,,,,,,,,,,,,,,,,10,,74,72
23009,note_on,,29,0,11,,,,,,,,,,,,,,,,10,,74,0
23009,note_on,,29,0,12,,,,,,,,,,,,,,,,11,,77,0
23010,note_on,,1,0,11,,,,,,,,,,,,,,,,10,,72,72
23010,note_on,,1,0,12,,,,,,,,,,,,,,,,11,,76,72
23039,note_on,,29,0,11,,,,,,,,,,,,,,,,10,,72,0
23039,note_on,,59,0,6,,,,,,,,,,,,,,,,2,,53,0
23039,note_on,,59,0,14,,,,,,,,,,,,,,,,13,,53,0
23039,note_on,,59,0,13,,,,,,,,,,,,,,,,12,,69,0
23039,note_on,,29,0,12,,,,,,,,,,,,,,,,11,,76,0
23039,note_on,,0,0,15,,,,,,,,,,,,,,,,15,,57,0
23039,note_on,,59,0,15,,,,,,,,,,,,,,,,15,,74,0
23039,note_on,,0,0,15,,,,,,,,,,,,,,,,15,,53,0
23039,note_on,,0,0,15,,,,,,,,,,,,,,,,15,,69,0
23039,note_on,,0,0,15,,,,,,,,,,,,,,,,15,,65,0
23040,note_on,,0,0,15,,,,,,,,,,,,,,,,15,,59,72
23040,note_on,,1,0,14,,,,,,,,,,,,,,,,13,,55,72
23040,note_on,,0,0,15,,,,,,,,,,,,,,,,15,,62,72
23040,note_on,,0,0,15,,,,,,,,,,,,,,,,15,,67,72
23040,note_on,,1,0,13,,,,,,,,,,,,,,,,12,,62,72
23040,note_on,,0,0,15,,,,,,,,,,,,,,,,15,,71,72
23040,note_on,,1,0,15,,,,,,,,,,,,,,,,15,,55,72
23040,note_on,,1,0,12,,,,,,,,,,,,,,,,11,,74,72
23040,note_on,,1,0,6,,,,,,,,,,,,,,,,2,,55,72
23040,note_on,,1,0,11,,,,,,,,,,,,,,,,10,,71,72
23069,note_on,,29,0,12,,,,,,,,,,,,,,,,11,,74,0
23069,note_on,,29,0,11,,,,,,,,,,,,,,,,10,,71,0
23070,note_on,,1,0,11,,,,,,,,,,,,,,,,10,,72,72
23070,note_on,,1,0,12,,,,,,,,,,,,,,,,11,,76,72
23099,note_on,,29,0,12,,,,,,,,,,,,,,,,11,,76,0
23099,note_on,,29,0,11,,,,,,,,,,,,,,,,10,,72,0
23100,note_on,,1,0,11,,,,,,,,,,,,,,,,10,,71,72
23100,note_on,,1,0,12,,,,,,,,,,,,,,,,11,,74,72
23129,note_on,,29,0,11,,,,,,,,,,,,,,,,10,,71,0
23129,note_on,,29,0,12,,,,,,,,,,,,,,,,11,,74,0
23130,note_on,,1,0,11,,,,,,,,,,,,,,,,10,,69,72
23130,note_on,,1,0,12,,,,,,,,,,,,,,,,11,,72,72
23159,note_on,,29,0,12,,,,,,,,,,,,,,,,11,,72,0
23159,note_on,,29,0,11,,,,,,,,,,,,,,,,10,,69,0
23160,note_on,,1,0,11,,,,,,,,,,,,,,,,10,,67,72
23160,note_on,,1,0,12,,,,,,,,,,,,,,,,11,,71,72
23189,note_on,,29,0,12,,,,,,,,,,,,,,,,11,,71,0
23190,note_on,,1,0,12,,,,,,,,,,,,,,,,11,,72,72
23219,note_on,,179,0,13,,,,,,,,,,,,,,,,12,,62,0
23219,note_on,,29,0,12,,,,,,,,,,,,,,,,11,,72,0
23219,note_on,,179,0,14,,,,,,,,,,,,,,,,13,,55,0
23219,note_on,,179,0,15,,,,,,,,,,,,,,,,15,,55,0
23219,note_on,,0,0,15,,,,,,,,,,,,,,,,15,,71,0
23219,note_on,,0,0,15,,,,,,,,,,,,,,,,15,,67,0
23219,note_on,,0,0,15,,,,,,,,,,,,,,,,15,,59,0
23219,note_on,,179,0,6,,,,,,,,,,,,,,,,2,,55,0
23219,note_on,,59,0,11,,,,,,,,,,,,,,,,10,,67,0
23219,note_on,,0,0,15,,,,,,,,,,,,,,,,15,,62,0
23220,note_on,,1,0,15,,,,,,,,,,,,,,,,15,,59,72
23220,note_on,,0,0,15,,,,,,,,,,,,,,,,15,,67,72
23220,note_on,,0,0,15,,,,,,,,,,,,,,,,15,,62,72
23220,note_on,,0,0,15,,,,,,,,,,,,,,,,15,,74,72
23220,note_on,,1,0,13,,,,,,,,,,,,,,,,12,,67,72
23220,note_on,,1,0,14,,,,,,,,,,,,,,,,13,,59,72
23220,note_on,,1,0,11,,,,,,,,,,,,,,,,10,,77,72
23220,note_on,,1,0,6,,,,,,,,,,,,,,,,2,,59,72
23220,note_on,,1,0,12,,,,,,,,,,,,,,,,11,,71,72
23249,note_on,,29,0,12,,,,,,,,,,,,,,,,11,,71,0
23250,note_on,,1,0,12,,,,,,,,,,,,,,,,11,,69,72
23279,note_on,,59,0,14,,,,,,,,,,,,,,,,13,,59,0
23279,note_on,,59,0,11,,,,,,,,,,,,,,,,10,,77,0
23279,note_on,,59,0,15,,,,,,,,,,,,,,,,15,,59,0
23279,note_on,,0,0,15,,,,,,,,,,,,,,,,15,,74,0
23279,note_on,,0,0,15,,,,,,,,,,,,,,,,15,,67,0
23279,note_on,,0,0,15,,,,,,,,,,,,,,,,15,,62,0
23279,note_on,,59,0,6,,,,,,,,,,,,,,,,2,,59,0
23279,note_on,,59,0,13,,,,,,,,,,,,,,,,12,,67,0
23279,note_on,,29,0,12,,,,,,,,,,,,,,,,11,,69,0
23280,note_on,,1,0,6,,,,,,,,,,,,,,,,2,,60,72
23280,note_on,,0,0,15,,,,,,,,,,,,,,,,15,,64,72
23280,note_on,,0,0,15,,,,,,,,,,,,,,,,15,,67,72
23280,note_on,,1,0,15,,,,,,,,,,,,,,,,15,,60,72
23280,note_on,,1,0,12,,,,,,,,,,,,,,,,11,,67,72
23280,note_on,,1,0,13,,,,,,,,,,,,,,,,12,,60,72
23280,note_on,,1,0,11,,,,,,,,,,,,,,,,10,,76,72
23280,note_on,,1,0,14,,,,,,,,,,,,,,,,13,,60,72
23369,note_on,,89,0,11,,,,,,,,,,,,,,,,10,,76,0
23369,note_on,,89,0,12,,,,,,,,,,,,,,,,11,,67,0
23370,note_on,,1,0,11,,,,,,,,,,,,,,,,10,,74,72
23370,note_on,,1,0,12,,,,,,,,,,,,,,,,11,,71,72
23399,note_on,,119,0,13,,,,,,,,,,,,,,,,12,,60,0
23399,note_on,,29,0,11,,,,,,,,,,,,,,,,10,,74,0
23399,note_on,,29,0,12,,,,,,,,,,,,,,,,11,,71,0
23399,note_on,,119,0,14,,,,,,,,,,,,,,,,13,,60,0
23399,note_on,,119,0,6,,,,,,,,,,,,,,,,2,,60,0
23399,note_on,,0,0,15,,,,,,,,,,,,,,,,15,,64,0
23399,note_on,,0,0,15,,,,,,,,,,,,,,,,15,,67,0
23399,note_on,,119,0,15,,,,,,,,,,,,,,,,15,,60,0
23400,note_on,,0,0,15,,,,,,,,,,,,,,,,15,,65,72
23400,note_on,,0,0,15,,,,,,,,,,,,,,,,15,,60,72
23400,note_on,,1,0,15,,,,,,,,,,,,,,,,15,,57,72
23400,note_on,,1,0,14,,,,,,,,,,,,,,,,13,,57,72
23400,note_on,,0,0,15,,,,,,,,,,,,,,,,15,,72,72
23400,note_on,,1,0,6,,,,,,,,,,,,,,,,2,,57,72
23400,note_on,,1,0,11,,,,,,,,,,,,,,,,10,,76,72
23400,note_on,,1,0,13,,,,,,,,,,,,,,,,12,,60,72
23400,note_on,,1,0,12,,,,,,,,,,,,,,,,11,,72,72
23459,note_on,,59,0,14,,,,,,,,,,,,,,,,13,,57,0
23459,note_on,,59,0,6,,,,,,,,,,,,,,,,2,,57,0
23459,note_on,,59,0,11,,,,,,,,,,,,,,,,10,,76,0
23459,note_on,,59,0,15,,,,,,,,,,,,,,,,15,,57,0
23459,note_on,,59,0,13,,,,,,,,,,,,,,,,12,,60,0
23460,note_on,,1,0,11,,,,,,,,,,,,,,,,10,,77,72
23460,note_on,,1,0,14,,,,,,,,,,,,,,,,13,,53,72
23460,note_on,,1,0,13,,,,,,,,,,,,,,,,12,,69,72
23460,note_on,,1,0,15,,,,,,,,,,,,,,,,15,,53,72
23460,note_on,,0,0,15,,,,,,,,,,,,,,,,15,,69,72
23460,note_on,,1,0,6,,,,,,,,,,,,,,,,2,,53,72
23519,note_on,,59,0,6,,,,,,,,,,,,,,,,2,,53,0
23519,note_on,,59,0,11,,,,,,,,,,,,,,,,10,,77,0
23519,note_on,,0,0,15,,,,,,,,,,,,,,,,15,,69,0
23519,note_on,,0,0,15,,,,,,,,,,,,,,,,15,,53,0
23519,note_on,,0,0,15,,,,,,,,,,,,,,,,15,,60,0
23519,note_on,,59,0,14,,,,,,,,,,,,,,,,13,,53,0
23519,note_on,,59,0,13,,,,,,,,,,,,,,,,12,,69,0
23519,note_on,,59,0,15,,,,,,,,,,,,,,,,15,,65,0
23520,note_on,,1,0,15,,,,,,,,,,,,,,,,15,,55,72
23520,note_on,,0,0,15,,,,,,,,,,,,,,,,15,,67,72
23520,note_on,,0,0,15,,,,,,,,,,,,,,,,15,,62,72
23520,note_on,,1,0,11,,,,,,,,,,,,,,,,10,,74,72
23520,note_on,,1,0,14,,,,,,,,,,,,,,,,13,,55,72
23520,note_on,,1,0,6,,,,,,,,,,,,,,,,2,,55,72
23520,note_on,,1,0,13,,,,,,,,,,,,,,,,12,,62,72
23534,note_on,,14,0,11,,,,,,,,,,,,,,,,10,,74,0
23535,note_on,,1,0,11,,,,,,,,,,,,,,,,10,,76,72
23549,note_on,,14,0,11,,,,,,,,,,,,,,,,10,,76,0
23550,note_on,,1,0,11,,,,,,,,,,,,,,,,10,,74,72
23564,note_on,,14,0,11,,,,,,,,,,,,,,,,10,,74,0
23565,note_on,,1,0,11,,,,,,,,,,,,,,,,10,,76,72
23579,note_on,,14,0,11,,,,,,,,,,,,,,,,10,,76,0
23580,note_on,,1,0,11,,,,,,,,,,,,,,,,10,,74,72
23594,note_on,,14,0,11,,,,,,,,,,,,,,,,10,,74,0
23595,note_on,,1,0,11,,,,,,,,,,,,,,,,10,,76,72
23609,note_on,,14,0,11,,,,,,,,,,,,,,,,10,,76,0
23610,note_on,,1,0,11,,,,,,,,,,,,,,,,10,,74,72
23624,note_on,,14,0,11,,,,,,,,,,,,,,,,10,,74,0
23625,note_on,,1,0,11,,,,,,,,,,,,,,,,10,,76,72
23639,note_on,,119,0,13,,,,,,,,,,,,,,,,12,,62,0
23639,note_on,,14,0,11,,,,,,,,,,,,,,,,10,,76,0
23639,note_on,,119,0,15,,,,,,,,,,,,,,,,15,,72,0
23639,note_on,,0,0,15,,,,,,,,,,,,,,,,15,,55,0
23639,note_on,,119,0,14,,,,,,,,,,,,,,,,13,,55,0
23639,note_on,,119,0,6,,,,,,,,,,,,,,,,2,,55,0
23639,note_on,,0,0,15,,,,,,,,,,,,,,,,15,,62,0
23639,note_on,,0,0,15,,,,,,,,,,,,,,,,15,,67,0
23639,note_on,,239,0,12,,,,,,,,,,,,,,,,11,,72,0
23640,note_on,,0,0,15,,,,,,,,,,,,,,,,15,,62,72
23640,note_on,,0,0,15,,,,,,,,,,,,,,,,15,,67,72
23640,note_on,,0,0,15,,,,,,,,,,,,,,,,15,,55,72
23640,note_on,,1,0,15,,,,,,,,,,,,,,,,15,,43,72
23640,note_on,,0,0,15,,,,,,,,,,,,,,,,15,,71,72
23640,note_on,,1,0,11,,,,,,,,,,,,,,,,10,,74,72
23640,note_on,,1,0,14,,,,,,,,,,,,,,,,13,,43,72
23640,note_on,,1,0,13,,,,,,,,,,,,,,,,12,,67,72
23640,note_on,,1,0,6,,,,,,,,,,,,,,,,2,,43,72
23640,note_on,,1,0,12,,,,,,,,,,,,,,,,11,,71,72
23654,note_on,,14,0,11,,,,,,,,,,,,,,,,10,,74,0
23655,note_on,,1,0,11,,,,,,,,,,,,,,,,10,,76,72
23669,note_on,,14,0,11,,,,,,,,,,,,,,,,10,,76,0
23670,note_on,,1,0,11,,,,,,,,,,,,,,,,10,,72,72
23684,note_on,,14,0,11,,,,,,,,,,,,,,,,10,,72,0
23685,note_on,,1,0,11,,,,,,,,,,,,,,,,10,,74,72
23699,note_on,,14,0,11,,,,,,,,,,,,,,,,10,,74,0
23700,note_on,,1,0,11,,,,,,,,,,,,,,,,10,,72,72
23759,note_on,,0,0,15,,,,,,,,,,,,,,,,15,,55,0
23759,note_on,,119,0,12,,,,,,,,,,,,,,,,11,,71,0
23759,note_on,,0,0,15,,,,,,,,,,,,,,,,15,,62,0
23759,note_on,,119,0,14,,,,,,,,,,,,,,,,13,,43,0
23759,note_on,,119,0,13,,,,,,,,,,,,,,,,12,,67,0
23759,note_on,,119,0,15,,,,,,,,,,,,,,,,15,,43,0
23759,note_on,,119,0,6,,,,,,,,,,,,,,,,2,,43,0
23759,note_on,,59,0,11,,,,,,,,,,,,,,,,10,,72,0
23759,note_on,,0,0,15,,,,,,,,,,,,,,,,15,,71,0
23759,note_on,,0,0,15,,,,,,,,,,,,,,,,15,,67,0
23760,note_on,,1,0,13,,,,,,,,,,,,,,,,12,,64,72
23760,note_on,,1,0,14,,,,,,,,,,,,,,,,13,,48,72
23760,note_on,,1,0,6,,,,,,,,,,,,,,,,2,,48,72
23760,note_on,,0,0,15,,,,,,,,,,,,,,,,15,,48,72
23760,note_on,,0,0,15,,,,,,,,,,,,,,,,15,,55,72
23760,note_on,,1,0,12,,,,,,,,,,,,,,,,11,,72,72
23760,note_on,,1,0,11,,,,,,,,,,,,,,,,10,,72,72
23760,note_on,,1,0,15,,,,,,,,,,,,,,,,15,,64,72
23760,note_on,,0,0,15,,,,,,,,,,,,,,,,15,,72,72
24119,note_on,,359,0,15,,,,,,,,,,,,,,,,15,,64,0
24119,note_on,,0,0,15,,,,,,,,,,,,,,,,15,,48,0
24119,note_on,,0,0,15,,,,,,,,,,,,,,,,15,,72,0
24119,end_of_track,,0,1,15,,,,,,,,,,,,,,,,,,,
24119,end_of_track,,0,1,14,,,,,,,,,,,,,,,,,,,
24119,end_of_track,,0,1,13,,,,,,,,,,,,,,,,,,,
24119,note_on,,359,0,13,,,,,,,,,,,,,,,,12,,64,0
24119,note_on,,359,0,6,,,,,,,,,,,,,,,,2,,48,0
24119,end_of_track,,0,1,6,,,,,,,,,,,,,,,,,,,
24119,end_of_track,,0,1,12,,,,,,,,,,,,,,,,,,,
24119,note_on,,359,0,12,,,,,,,,,,,,,,,,11,,72,0
24119,note_on,,0,0,15,,,,,,,,,,,,,,,,15,,55,0
24119,end_of_track,,0,1,11,,,,,,,,,,,,,,,,,,,
24119,note_on,,359,0,11,,,,,,,,,,,,,,,,10,,72,0
24119,note_on,,359,0,14,,,,,,,,,,,,,,,,13,,48,0
24480,set_tempo,,24480,1,0,,,,,,,,,500000,,,,,,,,,,
24480,end_of_track,,0,1,0,,,,,,,,,,,,,,,,,,,
