tick,type,data,time,meta,track,frame_rate,hours,minutes,seconds,frames,sub_frames,port,key,tempo,numerator,denominator,clocks_per_click,notated_32nd_notes_per_beat,control,value,channel,program,note,velocity
0,sequencer_specific,"(0, 0, 91, 35, 1, 0, 5, 4, 35, 0)",0,1,0,,,,,,,,,,,,,,,,,,,
0,program_change,,0,0,7,,,,,,,,,,,,,,,,5,73,,
0,note_on,,0,0,12,,,,,,,,,,,,,,,,11,,63,72
0,program_change,,0,0,12,,,,,,,,,,,,,,,,11,48,,
0,control_change,,0,0,12,,,,,,,,,,,,,,7,96,11,,,
0,control_change,,0,0,12,,,,,,,,,,,,,,10,24,11,,,
0,control_change,,0,0,12,,,,,,,,,,,,,,11,127,11,,,
0,midi_port,,0,1,12,,,,,,,0,,,,,,,,,,,,
0,track_name,,0,1,12,,,,,,,,,,,,,,,,,,,
0,track_name,,0,1,8,,,,,,,,,,,,,,,,,,,
0,midi_port,,0,1,8,,,,,,,0,,,,,,,,,,,,
0,control_change,,0,0,8,,,,,,,,,,,,,,11,127,6,,,
0,control_change,,0,0,8,,,,,,,,,,,,,,7,96,6,,,
0,control_change,,0,0,8,,,,,,,,,,,,,,10,96,6,,,
0,program_change,,0,0,8,,,,,,,,,,,,,,,,6,73,,
0,note_on,,0,0,11,,,,,,,,,,,,,,,,10,,72,72
0,program_change,,0,0,11,,,,,,,,,,,,,,,,10,48,,
0,control_change,,0,0,11,,,,,,,,,,,,,,7,96,10,,,
0,control_change,,0,0,9,,,,,,,,,,,,,,10,48,7,,,
0,control_change,,0,0,9,,,,,,,,,,,,,,11,127,7,,,
0,midi_port,,0,1,9,,,,,,,0,,,,,,,,,,,,
0,track_name,,0,1,9,,,,,,,,,,,,,,,,,,,
0,track_name,,0,1,10,,,,,,,,,,,,,,,,,,,
0,midi_port,,0,1,10,,,,,,,0,,,,,,,,,,,,
0,control_change,,0,0,7,,,,,,,,,,,,,,7,96,5,,,
0,control_change,,0,0,10,,,,,,,,,,,,,,11,127,8,,,
0,control_change,,0,0,10,,,,,,,,,,,,,,10,80,8,,,
0,program_change,,0,0,10,,,,,,,,,,,,,,,,8,60,,
0,track_name,,0,1,11,,,,,,,,,,,,,,,,,,,
0,midi_port,,0,1,11,,,,,,,0,,,,,,,,,,,,
0,control_change,,0,0,11,,,,,,,,,,,,,,11,127,10,,,
0,control_change,,0,0,11,,,,,,,,,,,,,,10,48,10,,,
0,control_change,,0,0,10,,,,,,,,,,,,,,7,96,8,,,
0,control_change,,0,0,9,,,,,,,,,,,,,,7,96,7,,,
0,control_change,,0,0,7,,,,,,,,,,,,,,10,32,5,,,
0,midi_port,,0,1,7,,,,,,,0,,,,,,,,,,,,
0,note_on,,0,0,13,,,,,,,,,,,,,,,,12,,67,72
0,program_change,,0,0,13,,,,,,,,,,,,,,,,12,48,,
0,control_change,,0,0,13,,,,,,,,,,,,,,7,96,12,,,
0,control_change,,0,0,13,,,,,,,,,,,,,,10,80,12,,,
0,control_change,,0,0,13,,,,,,,,,,,,,,11,127,12,,,
0,midi_port,,0,1,13,,,,,,,0,,,,,,,,,,,,
0,track_name,,0,1,13,,,,,,,,,,,,,,,,,,,
0,note_on,,0,0,6,,,,,,,,,,,,,,,,2,,60,72
0,program_change,,0,0,6,,,,,,,,,,,,,,,,2,70,,
0,control_change,,0,0,6,,,,,,,,,,,,,,7,88,2,,,
0,control_change,,0,0,6,,,,,,,,,,,,,,10,65,2,,,
0,control_change,,0,0,6,,,,,,,,,,,,,,11,127,2,,,
0,midi_port,,0,1,6,,,,,,,0,,,,,,,,,,,,
0,track_name,,0,1,6,,,,,,,,,,,,,,,,,,,
0,note_on,,0,0,15,,,,,,,,,,,,,,,,15,,67,72
0,note_on,,0,0,15,,,,,,,,,,,,,,,,15,,72,72
0,note_on,,0,0,15,,,,,,,,,,,,,,,,15,,60,72
0,track_name,,0,1,7,,,,,,,,,,,,,,,,,,,
0,note_on,,0,0,14,,,,,,,,,,,,,,,,13,,60,72
0,program_change,,0,0,14,,,,,,,,,,,,,,,,13,48,,
0,control_change,,0,0,14,,,,,,,,,,,,,,7,96,13,,,
0,control_change,,0,0,14,,,,,,,,,,,,,,10,96,13,,,
0,control_change,,0,0,14,,,,,,,,,,,,,,11,127,13,,,
0,control_change,,0,0,7,,,,,,,,,,,,,,11,127,5,,,
0,midi_port,,0,1,14,,,,,,,0,,,,,,,,,,,,
0,track_name,,0,1,15,,,,,,,,,,,,,,,,,,,
0,midi_port,,0,1,15,,,,,,,0,,,,,,,,,,,,
0,control_change,,0,0,15,,,,,,,,,,,,,,11,127,15,,,
0,control_change,,0,0,15,,,,,,,,,,,,,,10,90,15,,,
0,control_change,,0,0,15,,,,,,,,,,,,,,7,96,15,,,
0,program_change,,0,0,15,,,,,,,,,,,,,,,,15,6,,
0,track_name,,0,1,14,,,,,,,,,,,,,,,,,,,
0,program_change,,0,0,9,,,,,,,,,,,,,,,,7,70,,
0,note_on,,0,0,15,,,,,,,,,,,,,,,,15,,63,72
0,midi_port,,0,1,4,,,,,,,0,,,,,,,,,,,,
0,set_tempo,,0,1,0,,,,,,,,,500000,,,,,,,,,,
0,track_name,,0,1,1,,,,,,,,,,,,,,,,,,,
0,midi_port,,0,1,1,,,,,,,0,,,,,,,,,,,,
0,end_of_track,,0,1,1,,,,,,,,,,,,,,,,,,,
0,key_signature,,0,1,0,,,,,,,,Eb,,,,,,,,,,,
0,midi_port,,0,1,0,,,,,,,0,,,,,,,,,,,,
0,track_name,,0,1,0,,,,,,,,,,,,,,,,,,,
0,smpte_offset,,0,1,0,25,32,0,3,0,0,,,,,,,,,,,,,
0,track_name,,0,1,2,,,,,,,,,,,,,,,,,,,
0,midi_port,,0,1,2,,,,,,,0,,,,,,,,,,,,
0,end_of_track,,0,1,2,,,,,,,,,,,,,,,,,,,
0,track_name,,0,1,3,,,,,,,,,,,,,,,,,,,
0,instrument_name,,0,1,0,,,,,,,,,,,,,,,,,,,
0,midi_port,,0,1,3,,,,,,,0,,,,,,,,,,,,
0,end_of_track,,0,1,3,,,,,,,,,,,,,,,,,,,
0,program_change,,0,0,5,,,,,,,,,,,,,,,,1,68,,
0,control_change,,0,0,5,,,,,,,,,,,,,,7,72,1,,,
0,control_change,,0,0,5,,,,,,,,,,,,,,10,70,1,,,
0,control_change,,0,0,5,,,,,,,,,,,,,,11,127,1,,,
0,midi_port,,0,1,5,,,,,,,0,,,,,,,,,,,,
0,track_name,,0,1,5,,,,,,,,,,,,,,,,,,,
0,end_of_track,,0,1,4,,,,,,,,,,,,,,,,,,,
0,time_signature,,0,1,0,,,,,,,,,,4,4,24,8,,,,,,
119,note_on,,0,0,15,,,,,,,,,,,,,,,,15,,72,0
119,note_on,,119,0,6,,,,,,,,,,,,,,,,2,,60,0
119,note_on,,0,0,15,,,,,,,,,,,,,,,,15,,63,0
119,note_on,,0,0,15,,,,,,,,,,,,,,,,15,,67,0
119,note_on,,119,0,15,,,,,,,,,,,,,,,,15,,60,0
119,note_on,,119,0,14,,,,,,,,,,,,,,,,13,,60,0
119,note_on,,119,0,11,,,,,,,,,,,,,,,,10,,72,0
119,note_on,,119,0,13,,,,,,,,,,,,,,,,12,,67,0
119,note_on,,119,0,12,,,,,,,,,,,,,,,,11,,63,0
120,note_on,,1,0,6,,,,,,,,,,,,,,,,2,,55,72
120,note_on,,1,0,15,,,,,,,,,,,,,,,,15,,55,72
120,note_on,,1,0,14,,,,,,,,,,,,,,,,13,,55,72
120,note_on,,120,0,10,,,,,,,,,,,,,,,,8,,55,72
239,note_on,,119,0,14,,,,,,,,,,,,,,,,13,,55,0
239,note_on,,119,0,6,,,,,,,,,,,,,,,,2,,55,0
239,note_on,,119,0,10,,,,,,,,,,,,,,,,8,,55,0
239,note_on,,119,0,15,,,,,,,,,,,,,,,,15,,55,0
240,note_on,,1,0,6,,,,,,,,,,,,,,,,2,,48,72
240,note_on,,1,0,14,,,,,,,,,,,,,,,,13,,48,72
240,note_on,,1,0,10,,,,,,,,,,,,,,,,8,,48,72
240,note_on,,1,0,15,,,,,,,,,,,,,,,,15,,48,72
359,note_on,,119,0,15,,,,,,,,,,,,,,,,15,,48,0
359,note_on,,119,0,10,,,,,,,,,,,,,,,,8,,48,0
359,note_on,,119,0,6,,,,,,,,,,,,,,,,2,,48,0
359,note_on,,119,0,14,,,,,,,,,,,,,,,,13,,48,0
360,note_on,,1,0,15,,,,,,,,,,,,,,,,15,,50,72
360,note_on,,1,0,14,,,,,,,,,,,,,,,,13,,50,72
360,note_on,,1,0,6,,,,,,,,,,,,,,,,2,,50,72
360,note_on,,1,0,10,,,,,,,,,,,,,,,,8,,50,72
419,note_on,,59,0,10,,,,,,,,,,,,,,,,8,,50,0
419,note_on,,59,0,15,,,,,,,,,,,,,,,,15,,50,0
419,note_on,,59,0,14,,,,,,,,,,,,,,,,13,,50,0
419,note_on,,59,0,6,,,,,,,,,,,,,,,,2,,50,0
420,note_on,,1,0,14,,,,,,,,,,,,,,,,13,,50,72
420,note_on,,1,0,10,,,,,,,,,,,,,,,,8,,50,72
420,note_on,,1,0,15,,,,,,,,,,,,,,,,15,,50,72
420,note_on,,1,0,6,,,,,,,,,,,,,,,,2,,50,72
479,note_on,,59,0,14,,,,,,,,,,,,,,,,13,,50,0
479,note_on,,59,0,10,,,,,,,,,,,,,,,,8,,50,0
479,note_on,,59,0,6,,,,,,,,,,,,,,,,2,,50,0
479,note_on,,59,0,15,,,,,,,,,,,,,,,,15,,50,0
480,note_on,,1,0,14,,,,,,,,,,,,,,,,13,,51,72
480,note_on,,1,0,15,,,,,,,,,,,,,,,,15,,51,72
480,note_on,,1,0,6,,,,,,,,,,,,,,,,2,,51,72
480,note_on,,1,0,10,,,,,,,,,,,,,,,,8,,51,72
539,note_on,,59,0,10,,,,,,,,,,,,,,,,8,,51,0
539,note_on,,59,0,14,,,,,,,,,,,,,,,,13,,51,0
539,note_on,,59,0,6,,,,,,,,,,,,,,,,2,,51,0
539,note_on,,59,0,15,,,,,,,,,,,,,,,,15,,51,0
540,note_on,,1,0,10,,,,,,,,,,,,,,,,8,,48,72
540,note_on,,1,0,14,,,,,,,,,,,,,,,,13,,48,72
540,note_on,,1,0,6,,,,,,,,,,,,,,,,2,,48,72
540,note_on,,1,0,15,,,,,,,,,,,,,,,,15,,48,72
599,note_on,,59,0,10,,,,,,,,,,,,,,,,8,,48,0
599,note_on,,59,0,6,,,,,,,,,,,,,,,,2,,48,0
599,note_on,,59,0,15,,,,,,,,,,,,,,,,15,,48,0
599,note_on,,59,0,14,,,,,,,,,,,,,,,,13,,48,0
600,note_on,,1,0,15,,,,,,,,,,,,,,,,15,,53,72
600,note_on,,1,0,14,,,,,,,,,,,,,,,,13,,53,72
600,note_on,,1,0,6,,,,,,,,,,,,,,,,2,,53,72
600,note_on,,1,0,10,,,,,,,,,,,,,,,,8,,53,72
779,note_on,,179,0,10,,,,,,,,,,,,,,,,8,,53,0
779,note_on,,179,0,15,,,,,,,,,,,,,,,,15,,53,0
779,note_on,,179,0,6,,,,,,,,,,,,,,,,2,,53,0
779,note_on,,179,0,14,,,,,,,,,,,,,,,,13,,53,0
780,note_on,,1,0,15,,,,,,,,,,,,,,,,15,,51,72
780,note_on,,1,0,6,,,,,,,,,,,,,,,,2,,51,72
780,note_on,,1,0,10,,,,,,,,,,,,,,,,8,,51,72
780,note_on,,1,0,14,,,,,,,,,,,,,,,,13,,51,72
809,note_on,,29,0,6,,,,,,,,,,,,,,,,2,,51,0
809,note_on,,29,0,10,,,,,,,,,,,,,,,,8,,51,0
809,note_on,,29,0,14,,,,,,,,,,,,,,,,13,,51,0
809,note_on,,29,0,15,,,,,,,,,,,,,,,,15,,51,0
810,note_on,,1,0,14,,,,,,,,,,,,,,,,13,,50,72
810,note_on,,1,0,6,,,,,,,,,,,,,,,,2,,50,72
810,note_on,,1,0,10,,,,,,,,,,,,,,,,8,,50,72
810,note_on,,1,0,15,,,,,,,,,,,,,,,,15,,50,72
839,note_on,,29,0,6,,,,,,,,,,,,,,,,2,,50,0
839,note_on,,29,0,10,,,,,,,,,,,,,,,,8,,50,0
839,note_on,,29,0,15,,,,,,,,,,,,,,,,15,,50,0
839,note_on,,29,0,14,,,,,,,,,,,,,,,,13,,50,0
840,note_on,,1,0,14,,,,,,,,,,,,,,,,13,,51,72
840,note_on,,1,0,6,,,,,,,,,,,,,,,,2,,51,72
840,note_on,,1,0,10,,,,,,,,,,,,,,,,8,,51,72
840,note_on,,1,0,15,,,,,,,,,,,,,,,,15,,51,72
899,note_on,,59,0,15,,,,,,,,,,,,,,,,15,,51,0
899,note_on,,59,0,6,,,,,,,,,,,,,,,,2,,51,0
899,note_on,,59,0,10,,,,,,,,,,,,,,,,8,,51,0
899,note_on,,59,0,14,,,,,,,,,,,,,,,,13,,51,0
900,note_on,,1,0,15,,,,,,,,,,,,,,,,15,,53,72
900,note_on,,1,0,6,,,,,,,,,,,,,,,,2,,53,72
900,note_on,,1,0,10,,,,,,,,,,,,,,,,8,,53,72
900,note_on,,1,0,14,,,,,,,,,,,,,,,,13,,53,72
959,note_on,,59,0,15,,,,,,,,,,,,,,,,15,,53,0
959,note_on,,59,0,6,,,,,,,,,,,,,,,,2,,53,0
959,note_on,,59,0,10,,,,,,,,,,,,,,,,8,,53,0
959,note_on,,59,0,14,,,,,,,,,,,,,,,,13,,53,0
960,note_on,,1,0,15,,,,,,,,,,,,,,,,15,,55,72
960,note_on,,1,0,10,,,,,,,,,,,,,,,,8,,55,72
960,note_on,,1,0,14,,,,,,,,,,,,,,,,13,,55,72
960,note_on,,1,0,6,,,,,,,,,,,,,,,,2,,55,72
1019,note_on,,59,0,14,,,,,,,,,,,,,,,,13,,55,0
1019,note_on,,59,0,6,,,,,,,,,,,,,,,,2,,55,0
1019,note_on,,59,0,15,,,,,,,,,,,,,,,,15,,55,0
1019,note_on,,59,0,10,,,,,,,,,,,,,,,,8,,55,0
1020,note_on,,1,0,6,,,,,,,,,,,,,,,,2,,51,72
1020,note_on,,1,0,14,,,,,,,,,,,,,,,,13,,51,72
1020,note_on,,1,0,10,,,,,,,,,,,,,,,,8,,51,72
1020,note_on,,1,0,15,,,,,,,,,,,,,,,,15,,51,72
1079,note_on,,59,0,6,,,,,,,,,,,,,,,,2,,51,0
1079,note_on,,59,0,14,,,,,,,,,,,,,,,,13,,51,0
1079,note_on,,59,0,15,,,,,,,,,,,,,,,,15,,51,0
1079,note_on,,59,0,10,,,,,,,,,,,,,,,,8,,51,0
1080,note_on,,1,0,15,,,,,,,,,,,,,,,,15,,56,72
1080,note_on,,1,0,14,,,,,,,,,,,,,,,,13,,56,72
1080,note_on,,1,0,10,,,,,,,,,,,,,,,,8,,56,72
1080,note_on,,1,0,6,,,,,,,,,,,,,,,,2,,56,72
1199,note_on,,119,0,10,,,,,,,,,,,,,,,,8,,56,0
1259,note_on,,179,0,15,,,,,,,,,,,,,,,,15,,56,0
1259,note_on,,179,0,14,,,,,,,,,,,,,,,,13,,56,0
1259,note_on,,179,0,6,,,,,,,,,,,,,,,,2,,56,0
1260,note_on,,61,0,10,,,,,,,,,,,,,,,,8,,55,72
1260,note_on,,1,0,14,,,,,,,,,,,,,,,,13,,55,72
1260,note_on,,1,0,6,,,,,,,,,,,,,,,,2,,55,72
1260,note_on,,1,0,15,,,,,,,,,,,,,,,,15,,55,72
1289,note_on,,29,0,15,,,,,,,,,,,,,,,,15,,55,0
1289,note_on,,29,0,6,,,,,,,,,,,,,,,,2,,55,0
1289,note_on,,29,0,14,,,,,,,,,,,,,,,,13,,55,0
1290,note_on,,1,0,14,,,,,,,,,,,,,,,,13,,53,72
1290,note_on,,1,0,15,,,,,,,,,,,,,,,,15,,53,72
1290,note_on,,1,0,6,,,,,,,,,,,,,,,,2,,53,72
1319,note_on,,29,0,6,,,,,,,,,,,,,,,,2,,53,0
1319,note_on,,29,0,14,,,,,,,,,,,,,,,,13,,53,0
1319,note_on,,29,0,15,,,,,,,,,,,,,,,,15,,53,0
1319,note_on,,59,0,10,,,,,,,,,,,,,,,,8,,55,0
1320,note_on,,1,0,6,,,,,,,,,,,,,,,,2,,55,72
1320,note_on,,1,0,14,,,,,,,,,,,,,,,,13,,55,72
1320,note_on,,1,0,15,,,,,,,,,,,,,,,,15,,55,72
1320,note_on,,1,0,10,,,,,,,,,,,,,,,,8,,55,72
1379,note_on,,59,0,14,,,,,,,,,,,,,,,,13,,55,0
1379,note_on,,59,0,10,,,,,,,,,,,,,,,,8,,55,0
1379,note_on,,59,0,15,,,,,,,,,,,,,,,,15,,55,0
1379,note_on,,59,0,6,,,,,,,,,,,,,,,,2,,55,0
1380,note_on,,1,0,6,,,,,,,,,,,,,,,,2,,55,72
1380,note_on,,1,0,14,,,,,,,,,,,,,,,,13,,55,72
1380,note_on,,1,0,15,,,,,,,,,,,,,,,,15,,55,72
1380,note_on,,1,0,10,,,,,,,,,,,,,,,,8,,55,72
1439,note_on,,59,0,10,,,,,,,,,,,,,,,,8,,55,0
1439,note_on,,59,0,15,,,,,,,,,,,,,,,,15,,55,0
1439,note_on,,59,0,6,,,,,,,,,,,,,,,,2,,55,0
1439,note_on,,59,0,14,,,,,,,,,,,,,,,,13,,55,0
1440,note_on,,1,0,14,,,,,,,,,,,,,,,,13,,60,72
1440,note_on,,1,0,10,,,,,,,,,,,,,,,,8,,60,72
1440,note_on,,1,0,15,,,,,,,,,,,,,,,,15,,60,72
1440,note_on,,1,0,6,,,,,,,,,,,,,,,,2,,60,72
1499,note_on,,59,0,15,,,,,,,,,,,,,,,,15,,60,0
1499,note_on,,59,0,14,,,,,,,,,,,,,,,,13,,60,0
1499,note_on,,59,0,6,,,,,,,,,,,,,,,,2,,60,0
1499,note_on,,59,0,10,,,,,,,,,,,,,,,,8,,60,0
1500,note_on,,1,0,10,,,,,,,,,,,,,,,,8,,53,72
1500,note_on,,1,0,15,,,,,,,,,,,,,,,,15,,53,72
1500,note_on,,1,0,6,,,,,,,,,,,,,,,,2,,53,72
1500,note_on,,1,0,14,,,,,,,,,,,,,,,,13,,53,72
1559,note_on,,59,0,10,,,,,,,,,,,,,,,,8,,53,0
1559,note_on,,59,0,6,,,,,,,,,,,,,,,,2,,53,0
1559,note_on,,59,0,14,,,,,,,,,,,,,,,,13,,53,0
1559,note_on,,59,0,15,,,,,,,,,,,,,,,,15,,53,0
1560,note_on,,1,0,10,,,,,,,,,,,,,,,,8,,53,72
1560,note_on,,1,0,15,,,,,,,,,,,,,,,,15,,53,72
1560,note_on,,1,0,14,,,,,,,,,,,,,,,,13,,53,72
1560,note_on,,1,0,6,,,,,,,,,,,,,,,,2,,53,72
1679,note_on,,119,0,10,,,,,,,,,,,,,,,,8,,53,0
1739,note_on,,179,0,6,,,,,,,,,,,,,,,,2,,53,0
1739,note_on,,179,0,15,,,,,,,,,,,,,,,,15,,53,0
1739,note_on,,179,0,14,,,,,,,,,,,,,,,,13,,53,0
1740,note_on,,1,0,15,,,,,,,,,,,,,,,,15,,55,72
1740,note_on,,1,0,6,,,,,,,,,,,,,,,,2,,55,72
1740,note_on,,61,0,10,,,,,,,,,,,,,,,,8,,56,72
1740,note_on,,1,0,14,,,,,,,,,,,,,,,,13,,55,72
1769,note_on,,29,0,14,,,,,,,,,,,,,,,,13,,55,0
1769,note_on,,29,0,6,,,,,,,,,,,,,,,,2,,55,0
1769,note_on,,29,0,15,,,,,,,,,,,,,,,,15,,55,0
1770,note_on,,1,0,15,,,,,,,,,,,,,,,,15,,56,72
1770,note_on,,1,0,6,,,,,,,,,,,,,,,,2,,56,72
1770,note_on,,1,0,14,,,,,,,,,,,,,,,,13,,56,72
1799,note_on,,29,0,15,,,,,,,,,,,,,,,,15,,56,0
1799,note_on,,29,0,6,,,,,,,,,,,,,,,,2,,56,0
1799,note_on,,29,0,14,,,,,,,,,,,,,,,,13,,56,0
1799,note_on,,59,0,10,,,,,,,,,,,,,,,,8,,56,0
1800,note_on,,1,0,15,,,,,,,,,,,,,,,,15,,55,72
1800,note_on,,1,0,6,,,,,,,,,,,,,,,,2,,55,72
1800,note_on,,1,0,14,,,,,,,,,,,,,,,,13,,55,72
1800,note_on,,1,0,10,,,,,,,,,,,,,,,,8,,55,72
1859,note_on,,59,0,10,,,,,,,,,,,,,,,,8,,55,0
1859,note_on,,59,0,14,,,,,,,,,,,,,,,,13,,55,0
1859,note_on,,59,0,15,,,,,,,,,,,,,,,,15,,55,0
1859,note_on,,59,0,6,,,,,,,,,,,,,,,,2,,55,0
1860,note_on,,1,0,6,,,,,,,,,,,,,,,,2,,53,72
1860,note_on,,1,0,14,,,,,,,,,,,,,,,,13,,53,72
1860,note_on,,1,0,15,,,,,,,,,,,,,,,,15,,53,72
1860,note_on,,1,0,10,,,,,,,,,,,,,,,,8,,53,72
1919,note_on,,59,0,14,,,,,,,,,,,,,,,,13,,53,0
1919,note_on,,59,0,6,,,,,,,,,,,,,,,,2,,53,0
1919,note_on,,59,0,15,,,,,,,,,,,,,,,,15,,53,0
1919,note_on,,59,0,10,,,,,,,,,,,,,,,,8,,53,0
1920,note_on,,1,0,15,,,,,,,,,,,,,,,,15,,51,72
1920,note_on,,1,0,14,,,,,,,,,,,,,,,,13,,51,72
1920,note_on,,1,0,10,,,,,,,,,,,,,,,,8,,51,72
1920,note_on,,1,0,6,,,,,,,,,,,,,,,,2,,51,72
2039,note_on,,119,0,14,,,,,,,,,,,,,,,,13,,51,0
2039,note_on,,119,0,15,,,,,,,,,,,,,,,,15,,51,0
2039,note_on,,119,0,10,,,,,,,,,,,,,,,,8,,51,0
2039,note_on,,119,0,6,,,,,,,,,,,,,,,,2,,51,0
2040,note_on,,1,0,14,,,,,,,,,,,,,,,,13,,50,72
2040,note_on,,1,0,15,,,,,,,,,,,,,,,,15,,50,72
2040,note_on,,1,0,10,,,,,,,,,,,,,,,,8,,50,72
2040,note_on,,1,0,6,,,,,,,,,,,,,,,,2,,50,72
2159,note_on,,119,0,15,,,,,,,,,,,,,,,,15,,50,0
2159,note_on,,119,0,14,,,,,,,,,,,,,,,,13,,50,0
2159,note_on,,119,0,10,,,,,,,,,,,,,,,,8,,50,0
2159,note_on,,119,0,6,,,,,,,,,,,,,,,,2,,50,0
2160,note_on,,1,0,6,,,,,,,,,,,,,,,,2,,48,72
2160,note_on,,1,0,14,,,,,,,,,,,,,,,,13,,48,72
2160,note_on,,1,0,15,,,,,,,,,,,,,,,,15,,48,72
2160,note_on,,1,0,10,,,,,,,,,,,,,,,,8,,48,72
2279,note_on,,119,0,15,,,,,,,,,,,,,,,,15,,48,0
2279,note_on,,119,0,10,,,,,,,,,,,,,,,,8,,48,0
2279,note_on,,119,0,14,,,,,,,,,,,,,,,,13,,48,0
2279,note_on,,119,0,6,,,,,,,,,,,,,,,,2,,48,0
2280,note_on,,2280,0,9,,,,,,,,,,,,,,,,7,,60,72
2280,note_on,,2161,0,13,,,,,,,,,,,,,,,,12,,60,72
2280,note_on,,1,0,15,,,,,,,,,,,,,,,,15,,60,72
2280,note_on,,1,0,6,,,,,,,,,,,,,,,,2,,60,72
2280,note_on,,1,0,14,,,,,,,,,,,,,,,,13,,60,72
2399,note_on,,119,0,6,,,,,,,,,,,,,,,,2,,60,0
2399,note_on,,119,0,14,,,,,,,,,,,,,,,,13,,60,0
2399,note_on,,119,0,9,,,,,,,,,,,,,,,,7,,60,0
2399,note_on,,119,0,13,,,,,,,,,,,,,,,,12,,60,0
2399,note_on,,119,0,15,,,,,,,,,,,,,,,,15,,60,0
2400,note_on,,1,0,9,,,,,,,,,,,,,,,,7,,55,72
2400,note_on,,1,0,15,,,,,,,,,,,,,,,,15,,55,72
2400,note_on,,1,0,13,,,,,,,,,,,,,,,,12,,55,72
2400,note_on,,1,0,6,,,,,,,,,,,,,,,,2,,55,72
2460,note_on,,60,0,15,,,,,,,,,,,,,,,,15,,51,72
2460,note_on,,61,0,14,,,,,,,,,,,,,,,,13,,51,72
2460,note_on,,181,0,10,,,,,,,,,,,,,,,,8,,51,72
2519,note_on,,119,0,9,,,,,,,,,,,,,,,,7,,55,0
2519,note_on,,59,0,15,,,,,,,,,,,,,,,,15,,55,0
2519,note_on,,0,0,15,,,,,,,,,,,,,,,,15,,51,0
2519,note_on,,59,0,14,,,,,,,,,,,,,,,,13,,51,0
2519,note_on,,59,0,10,,,,,,,,,,,,,,,,8,,51,0
2519,note_on,,119,0,13,,,,,,,,,,,,,,,,12,,55,0
2519,note_on,,119,0,6,,,,,,,,,,,,,,,,2,,55,0
2520,note_on,,1,0,13,,,,,,,,,,,,,,,,12,,57,72
2520,note_on,,1,0,9,,,,,,,,,,,,,,,,7,,57,72
2520,note_on,,0,0,15,,,,,,,,,,,,,,,,15,,57,72
2520,note_on,,1,0,15,,,,,,,,,,,,,,,,15,,50,72
2520,note_on,,1,0,14,,,,,,,,,,,,,,,,13,,50,72
2520,note_on,,1,0,10,,,,,,,,,,,,,,,,8,,50,72
2520,note_on,,1,0,6,,,,,,,,,,,,,,,,2,,57,72
2579,note_on,,59,0,6,,,,,,,,,,,,,,,,2,,57,0
2579,note_on,,59,0,13,,,,,,,,,,,,,,,,12,,57,0
2579,note_on,,59,0,15,,,,,,,,,,,,,,,,15,,50,0
2579,note_on,,59,0,14,,,,,,,,,,,,,,,,13,,50,0
2579,note_on,,59,0,9,,,,,,,,,,,,,,,,7,,57,0
2579,note_on,,59,0,10,,,,,,,,,,,,,,,,8,,50,0
2580,note_on,,1,0,6,,,,,,,,,,,,,,,,2,,57,72
2580,note_on,,1,0,15,,,,,,,,,,,,,,,,15,,48,72
2580,note_on,,1,0,13,,,,,,,,,,,,,,,,12,,57,72
2580,note_on,,1,0,9,,,,,,,,,,,,,,,,7,,57,72
2580,note_on,,1,0,14,,,,,,,,,,,,,,,,13,,48,72
2580,note_on,,1,0,10,,,,,,,,,,,,,,,,8,,48,72
2639,note_on,,59,0,15,,,,,,,,,,,,,,,,15,,57,0
2639,note_on,,59,0,14,,,,,,,,,,,,,,,,13,,48,0
2639,note_on,,59,0,9,,,,,,,,,,,,,,,,7,,57,0
2639,note_on,,59,0,10,,,,,,,,,,,,,,,,8,,48,0
2639,note_on,,0,0,15,,,,,,,,,,,,,,,,15,,48,0
2639,note_on,,59,0,6,,,,,,,,,,,,,,,,2,,57,0
2639,note_on,,59,0,13,,,,,,,,,,,,,,,,12,,57,0
2640,note_on,,0,0,15,,,,,,,,,,,,,,,,15,,58,72
2640,note_on,,1,0,10,,,,,,,,,,,,,,,,8,,55,72
2640,note_on,,1,0,15,,,,,,,,,,,,,,,,15,,55,72
2640,note_on,,1,0,13,,,,,,,,,,,,,,,,12,,58,72
2640,note_on,,1,0,6,,,,,,,,,,,,,,,,2,,58,72
2640,note_on,,1,0,14,,,,,,,,,,,,,,,,13,,55,72
2640,note_on,,1,0,9,,,,,,,,,,,,,,,,7,,58,72
2699,note_on,,59,0,9,,,,,,,,,,,,,,,,7,,58,0
2699,note_on,,59,0,13,,,,,,,,,,,,,,,,12,,58,0
2699,note_on,,59,0,15,,,,,,,,,,,,,,,,15,,58,0
2699,note_on,,59,0,6,,,,,,,,,,,,,,,,2,,58,0
2700,note_on,,1,0,6,,,,,,,,,,,,,,,,2,,55,72
2700,note_on,,1,0,15,,,,,,,,,,,,,,,,15,,55,72
2700,note_on,,1,0,13,,,,,,,,,,,,,,,,12,,55,72
2700,note_on,,1,0,9,,,,,,,,,,,,,,,,7,,55,72
2759,note_on,,59,0,15,,,,,,,,,,,,,,,,15,,55,0
2759,note_on,,0,0,15,,,,,,,,,,,,,,,,15,,55,0
2759,note_on,,59,0,6,,,,,,,,,,,,,,,,2,,55,0
2759,note_on,,59,0,13,,,,,,,,,,,,,,,,12,,55,0
2759,note_on,,119,0,10,,,,,,,,,,,,,,,,8,,55,0
2759,note_on,,59,0,9,,,,,,,,,,,,,,,,7,,55,0
2759,note_on,,119,0,14,,,,,,,,,,,,,,,,13,,55,0
2760,note_on,,1,0,9,,,,,,,,,,,,,,,,7,,60,72
2760,note_on,,1,0,6,,,,,,,,,,,,,,,,2,,60,72
2760,note_on,,1,0,13,,,,,,,,,,,,,,,,12,,60,72
2760,note_on,,1,0,15,,,,,,,,,,,,,,,,15,,60,72
2820,note_on,,61,0,14,,,,,,,,,,,,,,,,13,,57,72
2820,note_on,,61,0,10,,,,,,,,,,,,,,,,8,,57,72
2820,note_on,,60,0,15,,,,,,,,,,,,,,,,15,,57,72
2879,note_on,,59,0,15,,,,,,,,,,,,,,,,15,,57,0
2879,note_on,,59,0,10,,,,,,,,,,,,,,,,8,,57,0
2879,note_on,,59,0,14,,,,,,,,,,,,,,,,13,,57,0
2880,note_on,,1,0,14,,,,,,,,,,,,,,,,13,,50,72
2880,note_on,,1,0,15,,,,,,,,,,,,,,,,15,,50,72
2880,note_on,,1,0,10,,,,,,,,,,,,,,,,8,,50,72
2939,note_on,,179,0,13,,,,,,,,,,,,,,,,12,,60,0
2939,note_on,,59,0,15,,,,,,,,,,,,,,,,15,,60,0
2939,note_on,,0,0,15,,,,,,,,,,,,,,,,15,,50,0
2939,note_on,,59,0,14,,,,,,,,,,,,,,,,13,,50,0
2939,note_on,,59,0,10,,,,,,,,,,,,,,,,8,,50,0
2939,note_on,,179,0,6,,,,,,,,,,,,,,,,2,,60,0
2939,note_on,,179,0,9,,,,,,,,,,,,,,,,7,,60,0
2940,note_on,,1,0,10,,,,,,,,,,,,,,,,8,,54,72
2940,note_on,,1,0,6,,,,,,,,,,,,,,,,2,,58,72
2940,note_on,,1,0,13,,,,,,,,,,,,,,,,12,,58,72
2940,note_on,,1,0,15,,,,,,,,,,,,,,,,15,,54,72
2940,note_on,,0,0,15,,,,,,,,,,,,,,,,15,,58,72
2940,note_on,,1,0,9,,,,,,,,,,,,,,,,7,,58,72
2940,note_on,,1,0,14,,,,,,,,,,,,,,,,13,,54,72
2969,note_on,,29,0,13,,,,,,,,,,,,,,,,12,,58,0
2969,note_on,,29,0,6,,,,,,,,,,,,,,,,2,,58,0
2969,note_on,,29,0,15,,,,,,,,,,,,,,,,15,,58,0
2969,note_on,,29,0,9,,,,,,,,,,,,,,,,7,,58,0
2970,note_on,,1,0,9,,,,,,,,,,,,,,,,7,,57,72
2970,note_on,,1,0,13,,,,,,,,,,,,,,,,12,,57,72
2970,note_on,,1,0,6,,,,,,,,,,,,,,,,2,,57,72
2970,note_on,,1,0,15,,,,,,,,,,,,,,,,15,,57,72
2999,note_on,,29,0,13,,,,,,,,,,,,,,,,12,,57,0
2999,note_on,,29,0,6,,,,,,,,,,,,,,,,2,,57,0
2999,note_on,,0,0,15,,,,,,,,,,,,,,,,15,,57,0
2999,note_on,,59,0,14,,,,,,,,,,,,,,,,13,,54,0
2999,note_on,,29,0,15,,,,,,,,,,,,,,,,15,,54,0
2999,note_on,,59,0,10,,,,,,,,,,,,,,,,8,,54,0
2999,note_on,,29,0,9,,,,,,,,,,,,,,,,7,,57,0
3000,note_on,,0,0,15,,,,,,,,,,,,,,,,15,,58,72
3000,note_on,,1,0,14,,,,,,,,,,,,,,,,13,,55,72
3000,note_on,,1,0,15,,,,,,,,,,,,,,,,15,,55,72
3000,note_on,,1,0,6,,,,,,,,,,,,,,,,2,,58,72
3000,note_on,,1,0,10,,,,,,,,,,,,,,,,8,,55,72
3000,note_on,,1,0,13,,,,,,,,,,,,,,,,12,,58,72
3000,note_on,,1,0,9,,,,,,,,,,,,,,,,7,,58,72
3059,note_on,,59,0,10,,,,,,,,,,,,,,,,8,,55,0
3059,note_on,,59,0,14,,,,,,,,,,,,,,,,13,,55,0
3059,note_on,,59,0,6,,,,,,,,,,,,,,,,2,,58,0
3059,note_on,,59,0,9,,,,,,,,,,,,,,,,7,,58,0
3059,note_on,,0,0,15,,,,,,,,,,,,,,,,15,,58,0
3059,note_on,,59,0,15,,,,,,,,,,,,,,,,15,,55,0
3059,note_on,,59,0,13,,,,,,,,,,,,,,,,12,,58,0
3060,note_on,,1,0,13,,,,,,,,,,,,,,,,12,,60,72
3060,note_on,,1,0,14,,,,,,,,,,,,,,,,13,,57,72
3060,note_on,,1,0,9,,,,,,,,,,,,,,,,7,,60,72
3060,note_on,,0,0,15,,,,,,,,,,,,,,,,15,,60,72
3060,note_on,,1,0,15,,,,,,,,,,,,,,,,15,,57,72
3060,note_on,,1,0,6,,,,,,,,,,,,,,,,2,,60,72
3060,note_on,,1,0,10,,,,,,,,,,,,,,,,8,,57,72
3119,note_on,,59,0,13,,,,,,,,,,,,,,,,12,,60,0
3119,note_on,,59,0,14,,,,,,,,,,,,,,,,13,,57,0
3119,note_on,,59,0,10,,,,,,,,,,,,,,,,8,,57,0
3119,note_on,,59,0,6,,,,,,,,,,,,,,,,2,,60,0
3119,note_on,,59,0,9,,,,,,,,,,,,,,,,7,,60,0
3119,note_on,,0,0,15,,,,,,,,,,,,,,,,15,,60,0
3119,note_on,,59,0,15,,,,,,,,,,,,,,,,15,,57,0
3120,note_on,,1,0,14,,,,,,,,,,,,,,,,13,,58,72
3120,note_on,,1,0,9,,,,,,,,,,,,,,,,7,,62,72
3120,note_on,,1,0,10,,,,,,,,,,,,,,,,8,,58,72
3120,note_on,,1,0,13,,,,,,,,,,,,,,,,12,,62,72
3120,note_on,,0,0,15,,,,,,,,,,,,,,,,15,,62,72
3120,note_on,,1,0,15,,,,,,,,,,,,,,,,15,,58,72
3120,note_on,,1,0,6,,,,,,,,,,,,,,,,2,,62,72
3179,note_on,,0,0,15,,,,,,,,,,,,,,,,15,,62,0
3179,note_on,,59,0,6,,,,,,,,,,,,,,,,2,,62,0
3179,note_on,,59,0,10,,,,,,,,,,,,,,,,8,,58,0
3179,note_on,,59,0,15,,,,,,,,,,,,,,,,15,,58,0
3179,note_on,,59,0,9,,,,,,,,,,,,,,,,7,,62,0
3179,note_on,,59,0,13,,,,,,,,,,,,,,,,12,,62,0
3179,note_on,,59,0,14,,,,,,,,,,,,,,,,13,,58,0
3180,note_on,,1,0,9,,,,,,,,,,,,,,,,7,,58,72
3180,note_on,,1,0,14,,,,,,,,,,,,,,,,13,,55,72
3180,note_on,,1,0,6,,,,,,,,,,,,,,,,2,,58,72
3180,note_on,,1,0,13,,,,,,,,,,,,,,,,12,,58,72
3180,note_on,,1,0,10,,,,,,,,,,,,,,,,8,,55,72
3180,note_on,,0,0,15,,,,,,,,,,,,,,,,15,,58,72
3180,note_on,,1,0,15,,,,,,,,,,,,,,,,15,,55,72
3239,note_on,,59,0,13,,,,,,,,,,,,,,,,12,,58,0
3239,note_on,,59,0,9,,,,,,,,,,,,,,,,7,,58,0
3239,note_on,,59,0,14,,,,,,,,,,,,,,,,13,,55,0
3239,note_on,,0,0,15,,,,,,,,,,,,,,,,15,,58,0
3239,note_on,,59,0,15,,,,,,,,,,,,,,,,15,,55,0
3239,note_on,,59,0,10,,,,,,,,,,,,,,,,8,,55,0
3239,note_on,,59,0,6,,,,,,,,,,,,,,,,2,,58,0
3240,note_on,,1,0,13,,,,,,,,,,,,,,,,12,,63,72
3240,note_on,,1,0,10,,,,,,,,,,,,,,,,8,,60,72
3240,note_on,,1,0,14,,,,,,,,,,,,,,,,13,,60,72
3240,note_on,,1,0,9,,,,,,,,,,,,,,,,7,,63,72
3240,note_on,,1,0,6,,,,,,,,,,,,,,,,2,,63,72
3240,note_on,,1,0,15,,,,,,,,,,,,,,,,15,,60,72
3240,note_on,,0,0,15,,,,,,,,,,,,,,,,15,,63,72
3299,note_on,,59,0,14,,,,,,,,,,,,,,,,13,,60,0
3299,note_on,,59,0,10,,,,,,,,,,,,,,,,8,,60,0
3299,note_on,,59,0,15,,,,,,,,,,,,,,,,15,,60,0
3300,note_on,,1,0,14,,,,,,,,,,,,,,,,13,,60,72
3300,note_on,,1,0,15,,,,,,,,,,,,,,,,15,,60,72
3300,note_on,,1,0,10,,,,,,,,,,,,,,,,8,,60,72
3359,note_on,,59,0,15,,,,,,,,,,,,,,,,15,,60,0
3359,note_on,,59,0,14,,,,,,,,,,,,,,,,13,,60,0
3359,note_on,,59,0,10,,,,,,,,,,,,,,,,8,,60,0
3359,note_on,,119,0,9,,,,,,,,,,,,,,,,7,,63,0
3359,note_on,,119,0,6,,,,,,,,,,,,,,,,2,,63,0
3360,note_on,,0,0,15,,,,,,,,,,,,,,,,15,,60,72
3360,note_on,,0,0,15,,,,,,,,,,,,,,,,15,,69,72
3360,note_on,,1,0,15,,,,,,,,,,,,,,,,15,,53,72
3360,note_on,,1,0,14,,,,,,,,,,,,,,,,13,,53,72
3360,note_on,,1,0,10,,,,,,,,,,,,,,,,8,,53,72
3360,note_on,,1,0,6,,,,,,,,,,,,,,,,2,,53,72
3419,note_on,,0,0,15,,,,,,,,,,,,,,,,15,,60,0
3419,note_on,,59,0,15,,,,,,,,,,,,,,,,15,,63,0
3419,note_on,,179,0,13,,,,,,,,,,,,,,,,12,,63,0
3420,note_on,,1,0,13,,,,,,,,,,,,,,,,12,,62,72
3420,note_on,,1,0,15,,,,,,,,,,,,,,,,15,,62,72
3420,note_on,,61,0,9,,,,,,,,,,,,,,,,7,,62,72
3449,note_on,,29,0,15,,,,,,,,,,,,,,,,15,,62,0
3450,note_on,,1,0,15,,,,,,,,,,,,,,,,15,,60,72
3479,note_on,,29,0,15,,,,,,,,,,,,,,,,15,,60,0
3479,note_on,,59,0,9,,,,,,,,,,,,,,,,7,,62,0
3479,note_on,,119,0,10,,,,,,,,,,,,,,,,8,,53,0
3479,note_on,,59,0,13,,,,,,,,,,,,,,,,12,,62,0
3480,note_on,,1,0,15,,,,,,,,,,,,,,,,15,,62,72
3480,note_on,,1,0,13,,,,,,,,,,,,,,,,12,,62,72
3480,note_on,,1,0,9,,,,,,,,,,,,,,,,7,,62,72
3539,note_on,,179,0,6,,,,,,,,,,,,,,,,2,,53,0
3539,note_on,,59,0,15,,,,,,,,,,,,,,,,15,,53,0
3539,note_on,,179,0,14,,,,,,,,,,,,,,,,13,,53,0
3539,note_on,,59,0,13,,,,,,,,,,,,,,,,12,,62,0
3539,note_on,,0,0,15,,,,,,,,,,,,,,,,15,,69,0
3539,note_on,,59,0,9,,,,,,,,,,,,,,,,7,,62,0
3539,note_on,,0,0,15,,,,,,,,,,,,,,,,15,,62,0
3540,note_on,,1,0,13,,,,,,,,,,,,,,,,12,,62,72
3540,note_on,,1,0,15,,,,,,,,,,,,,,,,15,,58,72
3540,note_on,,1,0,6,,,,,,,,,,,,,,,,2,,58,72
3540,note_on,,1,0,9,,,,,,,,,,,,,,,,7,,62,72
3540,note_on,,0,0,15,,,,,,,,,,,,,,,,15,,62,72
3540,note_on,,0,0,15,,,,,,,,,,,,,,,,15,,65,72
3540,note_on,,61,0,10,,,,,,,,,,,,,,,,8,,58,72
3540,note_on,,1,0,14,,,,,,,,,,,,,,,,13,,58,72
3599,note_on,,59,0,6,,,,,,,,,,,,,,,,2,,58,0
3599,note_on,,59,0,13,,,,,,,,,,,,,,,,12,,62,0
3599,note_on,,59,0,15,,,,,,,,,,,,,,,,15,,58,0
3599,note_on,,59,0,9,,,,,,,,,,,,,,,,7,,62,0
3599,note_on,,0,0,15,,,,,,,,,,,,,,,,15,,65,0
3599,note_on,,0,0,15,,,,,,,,,,,,,,,,15,,62,0
3599,note_on,,59,0,10,,,,,,,,,,,,,,,,8,,58,0
3599,note_on,,59,0,14,,,,,,,,,,,,,,,,13,,58,0
3600,note_on,,0,0,15,,,,,,,,,,,,,,,,15,,67,72
3600,note_on,,0,0,15,,,,,,,,,,,,,,,,15,,62,72
3600,note_on,,1,0,15,,,,,,,,,,,,,,,,15,,51,72
3600,note_on,,1,0,14,,,,,,,,,,,,,,,,13,,51,72
3600,note_on,,1,0,10,,,,,,,,,,,,,,,,8,,51,72
3600,note_on,,1,0,13,,,,,,,,,,,,,,,,12,,67,72
3600,note_on,,1,0,9,,,,,,,,,,,,,,,,7,,67,72
3600,note_on,,1,0,6,,,,,,,,,,,,,,,,2,,51,72
3659,note_on,,59,0,9,,,,,,,,,,,,,,,,7,,67,0
3659,note_on,,59,0,13,,,,,,,,,,,,,,,,12,,67,0
3660,note_on,,1,0,9,,,,,,,,,,,,,,,,7,,60,72
3660,note_on,,1,0,13,,,,,,,,,,,,,,,,12,,60,72
3719,note_on,,0,0,15,,,,,,,,,,,,,,,,15,,62,0
3719,note_on,,119,0,15,,,,,,,,,,,,,,,,15,,67,0
3719,note_on,,59,0,9,,,,,,,,,,,,,,,,7,,60,0
3719,note_on,,59,0,13,,,,,,,,,,,,,,,,12,,60,0
3720,note_on,,1,0,13,,,,,,,,,,,,,,,,12,,60,72
3720,note_on,,0,0,15,,,,,,,,,,,,,,,,15,,60,72
3720,note_on,,1,0,15,,,,,,,,,,,,,,,,15,,72,72
3720,note_on,,1,0,9,,,,,,,,,,,,,,,,7,,60,72
3720,note_on,,0,0,15,,,,,,,,,,,,,,,,15,,67,72
3779,note_on,,179,0,14,,,,,,,,,,,,,,,,13,,51,0
3779,note_on,,59,0,15,,,,,,,,,,,,,,,,15,,51,0
3779,note_on,,179,0,10,,,,,,,,,,,,,,,,8,,51,0
3779,note_on,,179,0,6,,,,,,,,,,,,,,,,2,,51,0
3780,note_on,,1,0,14,,,,,,,,,,,,,,,,13,,51,72
3780,note_on,,1,0,10,,,,,,,,,,,,,,,,8,,51,72
3780,note_on,,1,0,15,,,,,,,,,,,,,,,,15,,51,72
3780,note_on,,1,0,6,,,,,,,,,,,,,,,,2,,51,72
3839,note_on,,59,0,15,,,,,,,,,,,,,,,,15,,67,0
3839,note_on,,0,0,15,,,,,,,,,,,,,,,,15,,60,0
3839,note_on,,0,0,15,,,,,,,,,,,,,,,,15,,51,0
3839,note_on,,119,0,13,,,,,,,,,,,,,,,,12,,60,0
3839,note_on,,59,0,10,,,,,,,,,,,,,,,,8,,51,0
3839,note_on,,119,0,9,,,,,,,,,,,,,,,,7,,60,0
3839,note_on,,59,0,14,,,,,,,,,,,,,,,,13,,51,0
3839,note_on,,59,0,6,,,,,,,,,,,,,,,,2,,51,0
3840,note_on,,1,0,10,,,,,,,,,,,,,,,,8,,50,72
3840,note_on,,1,0,14,,,,,,,,,,,,,,,,13,,50,72
3840,note_on,,1,0,6,,,,,,,,,,,,,,,,2,,50,72
3840,note_on,,1,0,15,,,,,,,,,,,,,,,,15,,50,72
3840,note_on,,0,0,15,,,,,,,,,,,,,,,,15,,66,72
3840,note_on,,0,0,15,,,,,,,,,,,,,,,,15,,62,72
3899,note_on,,0,0,15,,,,,,,,,,,,,,,,15,,62,0
3899,note_on,,0,0,15,,,,,,,,,,,,,,,,15,,66,0
3899,note_on,,59,0,14,,,,,,,,,,,,,,,,13,,50,0
3899,note_on,,0,0,15,,,,,,,,,,,,,,,,15,,50,0
3899,note_on,,59,0,10,,,,,,,,,,,,,,,,8,,50,0
3899,note_on,,59,0,6,,,,,,,,,,,,,,,,2,,50,0
3899,note_on,,59,0,15,,,,,,,,,,,,,,,,15,,72,0
3900,note_on,,61,0,13,,,,,,,,,,,,,,,,12,,63,72
3900,note_on,,1,0,10,,,,,,,,,,,,,,,,8,,54,72
3900,note_on,,0,0,15,,,,,,,,,,,,,,,,15,,63,72
3900,note_on,,1,0,14,,,,,,,,,,,,,,,,13,,54,72
3900,note_on,,1,0,15,,,,,,,,,,,,,,,,15,,54,72
3900,note_on,,0,0,15,,,,,,,,,,,,,,,,15,,72,72
3900,note_on,,0,0,15,,,,,,,,,,,,,,,,15,,69,72
3900,note_on,,61,0,9,,,,,,,,,,,,,,,,7,,63,72
3900,note_on,,1,0,6,,,,,,,,,,,,,,,,2,,54,72
3959,note_on,,59,0,10,,,,,,,,,,,,,,,,8,,54,0
3959,note_on,,59,0,6,,,,,,,,,,,,,,,,2,,54,0
3959,note_on,,0,0,15,,,,,,,,,,,,,,,,15,,72,0
3959,note_on,,0,0,15,,,,,,,,,,,,,,,,15,,69,0
3959,note_on,,0,0,15,,,,,,,,,,,,,,,,15,,63,0
3959,note_on,,59,0,14,,,,,,,,,,,,,,,,13,,54,0
3959,note_on,,59,0,13,,,,,,,,,,,,,,,,12,,63,0
3959,note_on,,59,0,9,,,,,,,,,,,,,,,,7,,63,0
3959,note_on,,59,0,15,,,,,,,,,,,,,,,,15,,54,0
3960,note_on,,1,0,14,,,,,,,,,,,,,,,,13,,55,72
3960,note_on,,1,0,13,,,,,,,,,,,,,,,,12,,62,72
3960,note_on,,1,0,10,,,,,,,,,,,,,,,,8,,55,72
3960,note_on,,1,0,9,,,,,,,,,,,,,,,,7,,62,72
3960,note_on,,1,0,6,,,,,,,,,,,,,,,,2,,55,72
3960,note_on,,1,0,15,,,,,,,,,,,,,,,,15,,55,72
3960,note_on,,0,0,15,,,,,,,,,,,,,,,,15,,70,72
3960,note_on,,0,0,15,,,,,,,,,,,,,,,,15,,67,72
3960,note_on,,0,0,15,,,,,,,,,,,,,,,,15,,62,72
4019,note_on,,0,0,15,,,,,,,,,,,,,,,,15,,70,0
4019,note_on,,59,0,14,,,,,,,,,,,,,,,,13,,55,0
4019,note_on,,59,0,13,,,,,,,,,,,,,,,,12,,62,0
4019,note_on,,59,0,6,,,,,,,,,,,,,,,,2,,55,0
4019,note_on,,59,0,10,,,,,,,,,,,,,,,,8,,55,0
4019,note_on,,0,0,15,,,,,,,,,,,,,,,,15,,62,0
4019,note_on,,0,0,15,,,,,,,,,,,,,,,,15,,67,0
4019,note_on,,59,0,9,,,,,,,,,,,,,,,,7,,62,0
4019,note_on,,59,0,15,,,,,,,,,,,,,,,,15,,55,0
4020,note_on,,1,0,14,,,,,,,,,,,,,,,,13,,48,72
4020,note_on,,1,0,13,,,,,,,,,,,,,,,,12,,60,72
4020,note_on,,1,0,10,,,,,,,,,,,,,,,,8,,48,72
4020,note_on,,0,0,15,,,,,,,,,,,,,,,,15,,63,72
4020,note_on,,1,0,9,,,,,,,,,,,,,,,,7,,60,72
4020,note_on,,1,0,15,,,,,,,,,,,,,,,,15,,48,72
4020,note_on,,1,0,6,,,,,,,,,,,,,,,,2,,48,72
4020,note_on,,0,0,15,,,,,,,,,,,,,,,,15,,60,72
4020,note_on,,0,0,15,,,,,,,,,,,,,,,,15,,69,72
4079,note_on,,59,0,10,,,,,,,,,,,,,,,,8,,48,0
4079,note_on,,59,0,6,,,,,,,,,,,,,,,,2,,48,0
4079,note_on,,0,0,15,,,,,,,,,,,,,,,,15,,60,0
4079,note_on,,59,0,13,,,,,,,,,,,,,,,,12,,60,0
4079,note_on,,59,0,14,,,,,,,,,,,,,,,,13,,48,0
4079,note_on,,0,0,15,,,,,,,,,,,,,,,,15,,63,0
4079,note_on,,0,0,15,,,,,,,,,,,,,,,,15,,69,0
4079,note_on,,59,0,15,,,,,,,,,,,,,,,,15,,48,0
4079,note_on,,59,0,9,,,,,,,,,,,,,,,,7,,60,0
4080,note_on,,1,0,13,,,,,,,,,,,,,,,,12,,58,72
4080,note_on,,1,0,9,,,,,,,,,,,,,,,,7,,58,72
4080,note_on,,1,0,15,,,,,,,,,,,,,,,,15,,50,72
4080,note_on,,0,0,15,,,,,,,,,,,,,,,,15,,67,72
4080,note_on,,0,0,15,,,,,,,,,,,,,,,,15,,62,72
4080,note_on,,0,0,15,,,,,,,,,,,,,,,,15,,58,72
4080,note_on,,1,0,14,,,,,,,,,,,,,,,,13,,50,72
4080,note_on,,1,0,10,,,,,,,,,,,,,,,,8,,50,72
4080,note_on,,1,0,6,,,,,,,,,,,,,,,,2,,50,72
4199,note_on,,119,0,9,,,,,,,,,,,,,,,,7,,58,0
4199,note_on,,119,0,14,,,,,,,,,,,,,,,,13,,50,0
4199,note_on,,119,0,6,,,,,,,,,,,,,,,,2,,50,0
4199,note_on,,119,0,13,,,,,,,,,,,,,,,,12,,58,0
4199,note_on,,119,0,10,,,,,,,,,,,,,,,,8,,50,0
4199,note_on,,0,0,15,,,,,,,,,,,,,,,,15,,58,0
4199,note_on,,0,0,15,,,,,,,,,,,,,,,,15,,67,0
4199,note_on,,0,0,15,,,,,,,,,,,,,,,,15,,62,0
4199,note_on,,119,0,15,,,,,,,,,,,,,,,,15,,50,0
4200,note_on,,1,0,13,,,,,,,,,,,,,,,,12,,57,72
4200,note_on,,0,0,15,,,,,,,,,,,,,,,,15,,57,72
4200,note_on,,1,0,9,,,,,,,,,,,,,,,,7,,57,72
4200,note_on,,1,0,14,,,,,,,,,,,,,,,,13,,38,72
4200,note_on,,1,0,15,,,,,,,,,,,,,,,,15,,38,72
4200,note_on,,0,0,15,,,,,,,,,,,,,,,,15,,66,72
4200,note_on,,1,0,10,,,,,,,,,,,,,,,,8,,53,72
4200,note_on,,0,0,15,,,,,,,,,,,,,,,,15,,62,72
4200,note_on,,1,0,6,,,,,,,,,,,,,,,,2,,38,72
4319,note_on,,119,0,6,,,,,,,,,,,,,,,,2,,38,0
4319,note_on,,119,0,13,,,,,,,,,,,,,,,,12,,57,0
4319,note_on,,119,0,10,,,,,,,,,,,,,,,,8,,53,0
4319,note_on,,119,0,9,,,,,,,,,,,,,,,,7,,57,0
4319,note_on,,0,0,15,,,,,,,,,,,,,,,,15,,62,0
4319,note_on,,119,0,14,,,,,,,,,,,,,,,,13,,38,0
4319,note_on,,0,0,15,,,,,,,,,,,,,,,,15,,57,0
4319,note_on,,0,0,15,,,,,,,,,,,,,,,,15,,66,0
4319,note_on,,119,0,15,,,,,,,,,,,,,,,,15,,38,0
4320,note_on,,0,0,15,,,,,,,,,,,,,,,,15,,67,72
4320,note_on,,0,0,15,,,,,,,,,,,,,,,,15,,62,72
4320,note_on,,1,0,14,,,,,,,,,,,,,,,,13,,43,72
4320,note_on,,1,0,9,,,,,,,,,,,,,,,,7,,55,72
4320,note_on,,0,0,15,,,,,,,,,,,,,,,,15,,58,72
4320,note_on,,1,0,13,,,,,,,,,,,,,,,,12,,55,72
4320,note_on,,1,0,10,,,,,,,,,,,,,,,,8,,55,72
4320,note_on,,1,0,6,,,,,,,,,,,,,,,,2,,43,72
4320,note_on,,1,0,15,,,,,,,,,,,,,,,,15,,43,72
4379,note_on,,59,0,10,,,,,,,,,,,,,,,,8,,55,0
4379,note_on,,59,0,14,,,,,,,,,,,,,,,,13,,43,0
4379,note_on,,59,0,6,,,,,,,,,,,,,,,,2,,43,0
4379,note_on,,59,0,15,,,,,,,,,,,,,,,,15,,43,0
4380,note_on,,1,0,10,,,,,,,,,,,,,,,,8,,53,72
4380,note_on,,1,0,15,,,,,,,,,,,,,,,,15,,53,72
4380,note_on,,1,0,14,,,,,,,,,,,,,,,,13,,53,72
4380,note_on,,1,0,6,,,,,,,,,,,,,,,,2,,53,72
4439,note_on,,119,0,9,,,,,,,,,,,,,,,,7,,55,0
4439,note_on,,59,0,14,,,,,,,,,,,,,,,,13,,53,0
4439,note_on,,119,0,13,,,,,,,,,,,,,,,,12,,55,0
4439,note_on,,0,0,15,,,,,,,,,,,,,,,,15,,62,0
4439,note_on,,0,0,15,,,,,,,,,,,,,,,,15,,58,0
4439,note_on,,0,0,15,,,,,,,,,,,,,,,,15,,53,0
4439,note_on,,59,0,6,,,,,,,,,,,,,,,,2,,53,0
4439,note_on,,59,0,15,,,,,,,,,,,,,,,,15,,67,0
4439,note_on,,59,0,10,,,,,,,,,,,,,,,,8,,53,0
4440,note_on,,1,0,14,,,,,,,,,,,,,,,,13,,51,72
4440,note_on,,1,0,15,,,,,,,,,,,,,,,,15,,51,72
4440,note_on,,0,0,15,,,,,,,,,,,,,,,,15,,67,72
4440,note_on,,0,0,15,,,,,,,,,,,,,,,,15,,60,72
4440,note_on,,0,0,15,,,,,,,,,,,,,,,,15,,55,72
4440,note_on,,1,0,6,,,,,,,,,,,,,,,,2,,51,72
4440,note_on,,4321,0,12,,,,,,,,,,,,,,,,11,,67,72
4440,note_on,,4440,0,8,,,,,,,,,,,,,,,,6,,67,72
4440,note_on,,1,0,10,,,,,,,,,,,,,,,,8,,51,72
4499,note_on,,59,0,6,,,,,,,,,,,,,,,,2,,51,0
4499,note_on,,0,0,15,,,,,,,,,,,,,,,,15,,55,0
4499,note_on,,0,0,15,,,,,,,,,,,,,,,,15,,60,0
4499,note_on,,59,0,15,,,,,,,,,,,,,,,,15,,51,0
4499,note_on,,59,0,14,,,,,,,,,,,,,,,,13,,51,0
4499,note_on,,59,0,10,,,,,,,,,,,,,,,,8,,51,0
4500,note_on,,1,0,10,,,,,,,,,,,,,,,,8,,50,72
4500,note_on,,0,0,15,,,,,,,,,,,,,,,,15,,59,72
4500,note_on,,0,0,15,,,,,,,,,,,,,,,,15,,53,72
4500,note_on,,1,0,15,,,,,,,,,,,,,,,,15,,50,72
4500,note_on,,1,0,6,,,,,,,,,,,,,,,,2,,50,72
4500,note_on,,1,0,14,,,,,,,,,,,,,,,,13,,50,72
4559,note_on,,59,0,15,,,,,,,,,,,,,,,,15,,67,0
4559,note_on,,119,0,8,,,,,,,,,,,,,,,,6,,67,0
4559,note_on,,0,0,15,,,,,,,,,,,,,,,,15,,53,0
4559,note_on,,0,0,15,,,,,,,,,,,,,,,,15,,59,0
4559,note_on,,0,0,15,,,,,,,,,,,,,,,,15,,50,0
4559,note_on,,59,0,10,,,,,,,,,,,,,,,,8,,50,0
4559,note_on,,119,0,12,,,,,,,,,,,,,,,,11,,67,0
4559,note_on,,59,0,14,,,,,,,,,,,,,,,,13,,50,0
4559,note_on,,59,0,6,,,,,,,,,,,,,,,,2,,50,0
4560,note_on,,1,0,10,,,,,,,,,,,,,,,,8,,51,72
4560,note_on,,1,0,8,,,,,,,,,,,,,,,,6,,60,72
4560,note_on,,1,0,6,,,,,,,,,,,,,,,,2,,51,72
4560,note_on,,1,0,15,,,,,,,,,,,,,,,,15,,51,72
4560,note_on,,0,0,15,,,,,,,,,,,,,,,,15,,55,72
4560,note_on,,0,0,15,,,,,,,,,,,,,,,,15,,60,72
4560,note_on,,1,0,12,,,,,,,,,,,,,,,,11,,60,72
4560,note_on,,1,0,14,,,,,,,,,,,,,,,,13,,51,72
4620,note_on,,181,0,9,,,,,,,,,,,,,,,,7,,55,72
4620,note_on,,181,0,13,,,,,,,,,,,,,,,,12,,55,72
4679,note_on,,119,0,10,,,,,,,,,,,,,,,,8,,51,0
4679,note_on,,119,0,12,,,,,,,,,,,,,,,,11,,60,0
4679,note_on,,59,0,9,,,,,,,,,,,,,,,,7,,55,0
4679,note_on,,0,0,15,,,,,,,,,,,,,,,,15,,55,0
4679,note_on,,119,0,8,,,,,,,,,,,,,,,,6,,60,0
4679,note_on,,0,0,15,,,,,,,,,,,,,,,,15,,60,0
4679,note_on,,59,0,13,,,,,,,,,,,,,,,,12,,55,0
4679,note_on,,119,0,15,,,,,,,,,,,,,,,,15,,51,0
4679,note_on,,119,0,14,,,,,,,,,,,,,,,,13,,51,0
4679,note_on,,119,0,6,,,,,,,,,,,,,,,,2,,51,0
4680,note_on,,0,0,15,,,,,,,,,,,,,,,,15,,57,72
4680,note_on,,0,0,15,,,,,,,,,,,,,,,,15,,62,72
4680,note_on,,1,0,15,,,,,,,,,,,,,,,,15,,53,72
4680,note_on,,1,0,12,,,,,,,,,,,,,,,,11,,62,72
4680,note_on,,1,0,9,,,,,,,,,,,,,,,,7,,57,72
4680,note_on,,1,0,10,,,,,,,,,,,,,,,,8,,53,72
4680,note_on,,1,0,14,,,,,,,,,,,,,,,,13,,53,72
4680,note_on,,1,0,8,,,,,,,,,,,,,,,,6,,62,72
4680,note_on,,1,0,13,,,,,,,,,,,,,,,,12,,57,72
4680,note_on,,1,0,6,,,,,,,,,,,,,,,,2,,53,72
4739,note_on,,59,0,13,,,,,,,,,,,,,,,,12,,57,0
4739,note_on,,59,0,15,,,,,,,,,,,,,,,,15,,53,0
4739,note_on,,0,0,15,,,,,,,,,,,,,,,,15,,57,0
4739,note_on,,59,0,14,,,,,,,,,,,,,,,,13,,53,0
4739,note_on,,59,0,6,,,,,,,,,,,,,,,,2,,53,0
4739,note_on,,59,0,10,,,,,,,,,,,,,,,,8,,53,0
4739,note_on,,59,0,8,,,,,,,,,,,,,,,,6,,62,0
4739,note_on,,59,0,12,,,,,,,,,,,,,,,,11,,62,0
4739,note_on,,59,0,9,,,,,,,,,,,,,,,,7,,57,0
4740,note_on,,1,0,15,,,,,,,,,,,,,,,,15,,55,72
4740,note_on,,0,0,15,,,,,,,,,,,,,,,,15,,58,72
4740,note_on,,1,0,8,,,,,,,,,,,,,,,,6,,62,72
4740,note_on,,1,0,9,,,,,,,,,,,,,,,,7,,59,72
4740,note_on,,1,0,12,,,,,,,,,,,,,,,,11,,62,72
4740,note_on,,1,0,6,,,,,,,,,,,,,,,,2,,55,72
4740,note_on,,1,0,14,,,,,,,,,,,,,,,,13,,55,72
4740,note_on,,1,0,13,,,,,,,,,,,,,,,,12,,59,72
4740,note_on,,1,0,10,,,,,,,,,,,,,,,,8,,55,72
4799,note_on,,59,0,13,,,,,,,,,,,,,,,,12,,59,0
4799,note_on,,59,0,6,,,,,,,,,,,,,,,,2,,55,0
4799,note_on,,59,0,8,,,,,,,,,,,,,,,,6,,62,0
4799,note_on,,59,0,14,,,,,,,,,,,,,,,,13,,55,0
4799,note_on,,59,0,9,,,,,,,,,,,,,,,,7,,59,0
4799,note_on,,59,0,12,,,,,,,,,,,,,,,,11,,62,0
4799,note_on,,0,0,15,,,,,,,,,,,,,,,,15,,55,0
4799,note_on,,0,0,15,,,,,,,,,,,,,,,,15,,58,0
4799,note_on,,59,0,10,,,,,,,,,,,,,,,,8,,55,0
4799,note_on,,59,0,15,,,,,,,,,,,,,,,,15,,62,0
4800,note_on,,1,0,15,,,,,,,,,,,,,,,,15,,48,72
4800,note_on,,0,0,15,,,,,,,,,,,,,,,,15,,63,72
4800,note_on,,1,0,6,,,,,,,,,,,,,,,,2,,48,72
4800,note_on,,1,0,14,,,,,,,,,,,,,,,,13,,48,72
4800,note_on,,0,0,15,,,,,,,,,,,,,,,,15,,60,72
4800,note_on,,0,0,15,,,,,,,,,,,,,,,,15,,55,72
4800,note_on,,1,0,8,,,,,,,,,,,,,,,,6,,63,72
4800,note_on,,1,0,13,,,,,,,,,,,,,,,,12,,60,72
4800,note_on,,1,0,10,,,,,,,,,,,,,,,,8,,48,72
4800,note_on,,1,0,12,,,,,,,,,,,,,,,,11,,63,72
4800,note_on,,1,0,9,,,,,,,,,,,,,,,,7,,60,72
4859,note_on,,59,0,12,,,,,,,,,,,,,,,,11,,63,0
4859,note_on,,0,0,15,,,,,,,,,,,,,,,,15,,55,0
4859,note_on,,0,0,15,,,,,,,,,,,,,,,,15,,60,0
4859,note_on,,59,0,15,,,,,,,,,,,,,,,,15,,63,0
4859,note_on,,59,0,8,,,,,,,,,,,,,,,,6,,63,0
4860,note_on,,1,0,12,,,,,,,,,,,,,,,,11,,60,72
4860,note_on,,1,0,8,,,,,,,,,,,,,,,,6,,60,72
4860,note_on,,1,0,15,,,,,,,,,,,,,,,,15,,60,72
4919,note_on,,119,0,10,,,,,,,,,,,,,,,,8,,48,0
4919,note_on,,119,0,14,,,,,,,,,,,,,,,,13,,48,0
4919,note_on,,0,0,15,,,,,,,,,,,,,,,,15,,60,0
4919,note_on,,59,0,8,,,,,,,,,,,,,,,,6,,60,0
4919,note_on,,119,0,9,,,,,,,,,,,,,,,,7,,60,0
4919,note_on,,59,0,12,,,,,,,,,,,,,,,,11,,60,0
4919,note_on,,119,0,6,,,,,,,,,,,,,,,,2,,48,0
4919,note_on,,119,0,13,,,,,,,,,,,,,,,,12,,60,0
4919,note_on,,59,0,15,,,,,,,,,,,,,,,,15,,48,0
4920,note_on,,1,0,15,,,,,,,,,,,,,,,,15,,65,72
4920,note_on,,1,0,12,,,,,,,,,,,,,,,,11,,65,72
4920,note_on,,1,0,8,,,,,,,,,,,,,,,,6,,65,72
4980,note_on,,60,0,15,,,,,,,,,,,,,,,,15,,62,72
4980,note_on,,61,0,9,,,,,,,,,,,,,,,,7,,62,72
4980,note_on,,61,0,6,,,,,,,,,,,,,,,,2,,62,72
4980,note_on,,61,0,14,,,,,,,,,,,,,,,,13,,62,72
4980,note_on,,61,0,13,,,,,,,,,,,,,,,,12,,62,72
5039,note_on,,59,0,9,,,,,,,,,,,,,,,,7,,62,0
5039,note_on,,59,0,6,,,,,,,,,,,,,,,,2,,62,0
5039,note_on,,59,0,15,,,,,,,,,,,,,,,,15,,62,0
5039,note_on,,59,0,14,,,,,,,,,,,,,,,,13,,62,0
5039,note_on,,59,0,13,,,,,,,,,,,,,,,,12,,62,0
5040,note_on,,1,0,14,,,,,,,,,,,,,,,,13,,55,72
5040,note_on,,1,0,15,,,,,,,,,,,,,,,,15,,55,72
5040,note_on,,1,0,6,,,,,,,,,,,,,,,,2,,55,72
5040,note_on,,1,0,9,,,,,,,,,,,,,,,,7,,55,72
5040,note_on,,1,0,13,,,,,,,,,,,,,,,,12,,55,72
5099,note_on,,179,0,8,,,,,,,,,,,,,,,,6,,65,0
5099,note_on,,179,0,12,,,,,,,,,,,,,,,,11,,65,0
5099,note_on,,0,0,15,,,,,,,,,,,,,,,,15,,55,0
5099,note_on,,59,0,15,,,,,,,,,,,,,,,,15,,65,0
5099,note_on,,59,0,13,,,,,,,,,,,,,,,,12,,55,0
5099,note_on,,59,0,6,,,,,,,,,,,,,,,,2,,55,0
5099,note_on,,59,0,9,,,,,,,,,,,,,,,,7,,55,0
5099,note_on,,59,0,14,,,,,,,,,,,,,,,,13,,55,0
5100,note_on,,1,0,15,,,,,,,,,,,,,,,,15,,59,72
5100,note_on,,0,0,15,,,,,,,,,,,,,,,,15,,63,72
5100,note_on,,1,0,6,,,,,,,,,,,,,,,,2,,59,72
5100,note_on,,1,0,8,,,,,,,,,,,,,,,,6,,63,72
5100,note_on,,1,0,13,,,,,,,,,,,,,,,,12,,59,72
5100,note_on,,1,0,12,,,,,,,,,,,,,,,,11,,63,72
5100,note_on,,1,0,9,,,,,,,,,,,,,,,,7,,59,72
5100,note_on,,1,0,14,,,,,,,,,,,,,,,,13,,59,72
5129,note_on,,29,0,12,,,,,,,,,,,,,,,,11,,63,0
5129,note_on,,29,0,15,,,,,,,,,,,,,,,,15,,63,0
5129,note_on,,29,0,8,,,,,,,,,,,,,,,,6,,63,0
5130,note_on,,1,0,15,,,,,,,,,,,,,,,,15,,62,72
5130,note_on,,1,0,12,,,,,,,,,,,,,,,,11,,62,72
5130,note_on,,1,0,8,,,,,,,,,,,,,,,,6,,62,72
5159,note_on,,29,0,12,,,,,,,,,,,,,,,,11,,62,0
5159,note_on,,29,0,8,,,,,,,,,,,,,,,,6,,62,0
5159,note_on,,59,0,9,,,,,,,,,,,,,,,,7,,59,0
5159,note_on,,59,0,13,,,,,,,,,,,,,,,,12,,59,0
5159,note_on,,59,0,6,,,,,,,,,,,,,,,,2,,59,0
5159,note_on,,59,0,14,,,,,,,,,,,,,,,,13,,59,0
5159,note_on,,29,0,15,,,,,,,,,,,,,,,,15,,59,0
5159,note_on,,0,0,15,,,,,,,,,,,,,,,,15,,62,0
5160,note_on,,1,0,9,,,,,,,,,,,,,,,,7,,60,72
5160,note_on,,1,0,13,,,,,,,,,,,,,,,,12,,60,72
5160,note_on,,1,0,6,,,,,,,,,,,,,,,,2,,60,72
5160,note_on,,1,0,14,,,,,,,,,,,,,,,,13,,60,72
5160,note_on,,1,0,15,,,,,,,,,,,,,,,,15,,60,72
5160,note_on,,0,0,15,,,,,,,,,,,,,,,,15,,63,72
5160,note_on,,1,0,12,,,,,,,,,,,,,,,,11,,63,72
5160,note_on,,1,0,8,,,,,,,,,,,,,,,,6,,63,72
5219,note_on,,59,0,14,,,,,,,,,,,,,,,,13,,60,0
5219,note_on,,59,0,15,,,,,,,,,,,,,,,,15,,60,0
5219,note_on,,59,0,6,,,,,,,,,,,,,,,,2,,60,0
5219,note_on,,59,0,12,,,,,,,,,,,,,,,,11,,63,0
5219,note_on,,59,0,13,,,,,,,,,,,,,,,,12,,60,0
5219,note_on,,0,0,15,,,,,,,,,,,,,,,,15,,63,0
5219,note_on,,59,0,8,,,,,,,,,,,,,,,,6,,63,0
5219,note_on,,59,0,9,,,,,,,,,,,,,,,,7,,60,0
5220,note_on,,1,0,12,,,,,,,,,,,,,,,,11,,65,72
5220,note_on,,1,0,6,,,,,,,,,,,,,,,,2,,62,72
5220,note_on,,1,0,15,,,,,,,,,,,,,,,,15,,62,72
5220,note_on,,0,0,15,,,,,,,,,,,,,,,,15,,65,72
5220,note_on,,1,0,9,,,,,,,,,,,,,,,,7,,62,72
5220,note_on,,1,0,8,,,,,,,,,,,,,,,,6,,65,72
5220,note_on,,1,0,14,,,,,,,,,,,,,,,,13,,62,72
5220,note_on,,1,0,13,,,,,,,,,,,,,,,,12,,62,72
5279,note_on,,59,0,14,,,,,,,,,,,,,,,,13,,62,0
5279,note_on,,59,0,13,,,,,,,,,,,,,,,,12,,62,0
5279,note_on,,59,0,9,,,,,,,,,,,,,,,,7,,62,0
5279,note_on,,59,0,12,,,,,,,,,,,,,,,,11,,65,0
5279,note_on,,59,0,15,,,,,,,,,,,,,,,,15,,62,0
5279,note_on,,0,0,15,,,,,,,,,,,,,,,,15,,65,0
5279,note_on,,59,0,8,,,,,,,,,,,,,,,,6,,65,0
5279,note_on,,59,0,6,,,,,,,,,,,,,,,,2,,62,0
5280,note_on,,1,0,13,,,,,,,,,,,,,,,,12,,63,72
5280,note_on,,1,0,12,,,,,,,,,,,,,,,,11,,67,72
5280,note_on,,1,0,8,,,,,,,,,,,,,,,,6,,67,72
5280,note_on,,1,0,6,,,,,,,,,,,,,,,,2,,63,72
5280,note_on,,0,0,15,,,,,,,,,,,,,,,,15,,67,72
5280,note_on,,1,0,15,,,,,,,,,,,,,,,,15,,63,72
5280,note_on,,1,0,9,,,,,,,,,,,,,,,,7,,63,72
5280,note_on,,1,0,14,,,,,,,,,,,,,,,,13,,63,72
5339,note_on,,59,0,15,,,,,,,,,,,,,,,,15,,63,0
5339,note_on,,59,0,6,,,,,,,,,,,,,,,,2,,63,0
5339,note_on,,59,0,12,,,,,,,,,,,,,,,,11,,67,0
5339,note_on,,59,0,8,,,,,,,,,,,,,,,,6,,67,0
5339,note_on,,59,0,9,,,,,,,,,,,,,,,,7,,63,0
5339,note_on,,59,0,14,,,,,,,,,,,,,,,,13,,63,0
5339,note_on,,0,0,15,,,,,,,,,,,,,,,,15,,67,0
5339,note_on,,59,0,13,,,,,,,,,,,,,,,,12,,63,0
5340,note_on,,1,0,6,,,,,,,,,,,,,,,,2,,60,72
5340,note_on,,0,0,15,,,,,,,,,,,,,,,,15,,63,72
5340,note_on,,1,0,12,,,,,,,,,,,,,,,,11,,63,72
5340,note_on,,1,0,9,,,,,,,,,,,,,,,,7,,60,72
5340,note_on,,1,0,14,,,,,,,,,,,,,,,,13,,60,72
5340,note_on,,1,0,13,,,,,,,,,,,,,,,,12,,60,72
5340,note_on,,1,0,15,,,,,,,,,,,,,,,,15,,60,72
5340,note_on,,1,0,8,,,,,,,,,,,,,,,,6,,63,72
5399,note_on,,59,0,14,,,,,,,,,,,,,,,,13,,60,0
5399,note_on,,59,0,6,,,,,,,,,,,,,,,,2,,60,0
5399,note_on,,59,0,9,,,,,,,,,,,,,,,,7,,60,0
5399,note_on,,59,0,15,,,,,,,,,,,,,,,,15,,60,0
5399,note_on,,59,0,12,,,,,,,,,,,,,,,,11,,63,0
5399,note_on,,59,0,13,,,,,,,,,,,,,,,,12,,60,0
5399,note_on,,0,0,15,,,,,,,,,,,,,,,,15,,63,0
5399,note_on,,59,0,8,,,,,,,,,,,,,,,,6,,63,0
5400,note_on,,1,0,6,,,,,,,,,,,,,,,,2,,65,72
5400,note_on,,1,0,14,,,,,,,,,,,,,,,,13,,65,72
5400,note_on,,1,0,13,,,,,,,,,,,,,,,,12,,65,72
5400,note_on,,1,0,12,,,,,,,,,,,,,,,,11,,68,72
5400,note_on,,0,0,15,,,,,,,,,,,,,,,,15,,68,72
5400,note_on,,1,0,15,,,,,,,,,,,,,,,,15,,65,72
5400,note_on,,1,0,9,,,,,,,,,,,,,,,,7,,65,72
5400,note_on,,1,0,8,,,,,,,,,,,,,,,,6,,68,72
5459,note_on,,59,0,9,,,,,,,,,,,,,,,,7,,65,0
5459,note_on,,59,0,14,,,,,,,,,,,,,,,,13,,65,0
5459,note_on,,59,0,13,,,,,,,,,,,,,,,,12,,65,0
5459,note_on,,59,0,6,,,,,,,,,,,,,,,,2,,65,0
5459,note_on,,59,0,15,,,,,,,,,,,,,,,,15,,65,0
5460,note_on,,1,0,6,,,,,,,,,,,,,,,,2,,65,72
5460,note_on,,1,0,9,,,,,,,,,,,,,,,,7,,65,72
5460,note_on,,1,0,14,,,,,,,,,,,,,,,,13,,65,72
5460,note_on,,1,0,15,,,,,,,,,,,,,,,,15,,65,72
5460,note_on,,1,0,13,,,,,,,,,,,,,,,,12,,65,72
5519,note_on,,59,0,15,,,,,,,,,,,,,,,,15,,65,0
5519,note_on,,59,0,6,,,,,,,,,,,,,,,,2,,65,0
5519,note_on,,119,0,8,,,,,,,,,,,,,,,,6,,68,0
5519,note_on,,59,0,14,,,,,,,,,,,,,,,,13,,65,0
5519,note_on,,59,0,13,,,,,,,,,,,,,,,,12,,65,0
5519,note_on,,119,0,12,,,,,,,,,,,,,,,,11,,68,0
5519,note_on,,59,0,9,,,,,,,,,,,,,,,,7,,65,0
5520,note_on,,1,0,15,,,,,,,,,,,,,,,,15,,58,72
5520,note_on,,1,0,6,,,,,,,,,,,,,,,,2,,58,72
5520,note_on,,1,0,9,,,,,,,,,,,,,,,,7,,58,72
5520,note_on,,1,0,14,,,,,,,,,,,,,,,,13,,58,72
5520,note_on,,1,0,13,,,,,,,,,,,,,,,,12,,58,72
5579,note_on,,59,0,15,,,,,,,,,,,,,,,,15,,68,0
5580,note_on,,61,0,8,,,,,,,,,,,,,,,,6,,67,72
5580,note_on,,1,0,15,,,,,,,,,,,,,,,,15,,67,72
5580,note_on,,61,0,12,,,,,,,,,,,,,,,,11,,67,72
5609,note_on,,29,0,15,,,,,,,,,,,,,,,,15,,67,0
5610,note_on,,1,0,15,,,,,,,,,,,,,,,,15,,65,72
5639,note_on,,119,0,6,,,,,,,,,,,,,,,,2,,58,0
5639,note_on,,59,0,12,,,,,,,,,,,,,,,,11,,67,0
5639,note_on,,59,0,8,,,,,,,,,,,,,,,,6,,67,0
5639,note_on,,119,0,14,,,,,,,,,,,,,,,,13,,58,0
5639,note_on,,29,0,15,,,,,,,,,,,,,,,,15,,58,0
5639,note_on,,119,0,9,,,,,,,,,,,,,,,,7,,58,0
5639,note_on,,0,0,15,,,,,,,,,,,,,,,,15,,65,0
5639,note_on,,119,0,13,,,,,,,,,,,,,,,,12,,58,0
5640,note_on,,1,0,12,,,,,,,,,,,,,,,,11,,67,72
5640,note_on,,1,0,15,,,,,,,,,,,,,,,,15,,67,72
5640,note_on,,1,0,8,,,,,,,,,,,,,,,,6,,67,72
5699,note_on,,59,0,15,,,,,,,,,,,,,,,,15,,67,0
5699,note_on,,59,0,8,,,,,,,,,,,,,,,,6,,67,0
5699,note_on,,59,0,12,,,,,,,,,,,,,,,,11,,67,0
5700,note_on,,0,0,15,,,,,,,,,,,,,,,,15,,67,72
5700,note_on,,61,0,13,,,,,,,,,,,,,,,,12,,63,72
5700,note_on,,61,0,14,,,,,,,,,,,,,,,,13,,63,72
5700,note_on,,1,0,15,,,,,,,,,,,,,,,,15,,63,72
5700,note_on,,1,0,12,,,,,,,,,,,,,,,,11,,67,72
5700,note_on,,1,0,8,,,,,,,,,,,,,,,,6,,67,72
5700,note_on,,61,0,6,,,,,,,,,,,,,,,,2,,63,72
5700,note_on,,61,0,9,,,,,,,,,,,,,,,,7,,63,72
5759,note_on,,59,0,14,,,,,,,,,,,,,,,,13,,63,0
5759,note_on,,59,0,15,,,,,,,,,,,,,,,,15,,63,0
5759,note_on,,59,0,9,,,,,,,,,,,,,,,,7,,63,0
5759,note_on,,59,0,8,,,,,,,,,,,,,,,,6,,67,0
5759,note_on,,59,0,6,,,,,,,,,,,,,,,,2,,63,0
5759,note_on,,0,0,15,,,,,,,,,,,,,,,,15,,67,0
5759,note_on,,59,0,13,,,,,,,,,,,,,,,,12,,63,0
5759,note_on,,59,0,12,,,,,,,,,,,,,,,,11,,67,0
5760,note_on,,1,0,14,,,,,,,,,,,,,,,,13,,56,72
5760,note_on,,1,0,12,,,,,,,,,,,,,,,,11,,72,72
5760,note_on,,1,0,8,,,,,,,,,,,,,,,,6,,72,72
5760,note_on,,1,0,6,,,,,,,,,,,,,,,,2,,56,72
5760,note_on,,1,0,13,,,,,,,,,,,,,,,,12,,56,72
5760,note_on,,0,0,15,,,,,,,,,,,,,,,,15,,72,72
5760,note_on,,1,0,15,,,,,,,,,,,,,,,,15,,56,72
5760,note_on,,1,0,9,,,,,,,,,,,,,,,,7,,56,72
5819,note_on,,59,0,15,,,,,,,,,,,,,,,,15,,72,0
5819,note_on,,59,0,8,,,,,,,,,,,,,,,,6,,72,0
5819,note_on,,59,0,12,,,,,,,,,,,,,,,,11,,72,0
5820,note_on,,1,0,12,,,,,,,,,,,,,,,,11,,65,72
5820,note_on,,1,0,8,,,,,,,,,,,,,,,,6,,65,72
5820,note_on,,1,0,15,,,,,,,,,,,,,,,,15,,65,72
5879,note_on,,59,0,15,,,,,,,,,,,,,,,,15,,65,0
5879,note_on,,59,0,8,,,,,,,,,,,,,,,,6,,65,0
5879,note_on,,59,0,12,,,,,,,,,,,,,,,,11,,65,0
5880,note_on,,1,0,12,,,,,,,,,,,,,,,,11,,65,72
5880,note_on,,1,0,8,,,,,,,,,,,,,,,,6,,65,72
5880,note_on,,1,0,15,,,,,,,,,,,,,,,,15,,65,72
5939,note_on,,179,0,13,,,,,,,,,,,,,,,,12,,56,0
5939,note_on,,179,0,9,,,,,,,,,,,,,,,,7,,56,0
5939,note_on,,179,0,14,,,,,,,,,,,,,,,,13,,56,0
5939,note_on,,59,0,15,,,,,,,,,,,,,,,,15,,56,0
5939,note_on,,179,0,6,,,,,,,,,,,,,,,,2,,56,0
5940,note_on,,1,0,13,,,,,,,,,,,,,,,,12,,56,72
5940,note_on,,1,0,14,,,,,,,,,,,,,,,,13,,56,72
5940,note_on,,1,0,9,,,,,,,,,,,,,,,,7,,56,72
5940,note_on,,1,0,15,,,,,,,,,,,,,,,,15,,56,72
5940,note_on,,1,0,6,,,,,,,,,,,,,,,,2,,56,72
5999,note_on,,59,0,15,,,,,,,,,,,,,,,,15,,56,0
5999,note_on,,59,0,9,,,,,,,,,,,,,,,,7,,56,0
5999,note_on,,119,0,8,,,,,,,,,,,,,,,,6,,65,0
5999,note_on,,59,0,14,,,,,,,,,,,,,,,,13,,56,0
5999,note_on,,59,0,13,,,,,,,,,,,,,,,,12,,56,0
5999,note_on,,59,0,6,,,,,,,,,,,,,,,,2,,56,0
5999,note_on,,119,0,12,,,,,,,,,,,,,,,,11,,65,0
6000,note_on,,1,0,14,,,,,,,,,,,,,,,,13,,55,72
6000,note_on,,1,0,15,,,,,,,,,,,,,,,,15,,55,72
6000,note_on,,1,0,13,,,,,,,,,,,,,,,,12,,55,72
6000,note_on,,1,0,9,,,,,,,,,,,,,,,,7,,55,72
6000,note_on,,1,0,6,,,,,,,,,,,,,,,,2,,55,72
6059,note_on,,59,0,6,,,,,,,,,,,,,,,,2,,55,0
6059,note_on,,59,0,14,,,,,,,,,,,,,,,,13,,55,0
6059,note_on,,0,0,15,,,,,,,,,,,,,,,,15,,55,0
6059,note_on,,59,0,15,,,,,,,,,,,,,,,,15,,65,0
6059,note_on,,59,0,13,,,,,,,,,,,,,,,,12,,55,0
6059,note_on,,59,0,9,,,,,,,,,,,,,,,,7,,55,0
6060,note_on,,1,0,9,,,,,,,,,,,,,,,,7,,59,72
6060,note_on,,61,0,8,,,,,,,,,,,,,,,,6,,68,72
6060,note_on,,1,0,15,,,,,,,,,,,,,,,,15,,59,72
6060,note_on,,0,0,15,,,,,,,,,,,,,,,,15,,67,72
6060,note_on,,1,0,13,,,,,,,,,,,,,,,,12,,59,72
6060,note_on,,1,0,6,,,,,,,,,,,,,,,,2,,59,72
6060,note_on,,1,0,14,,,,,,,,,,,,,,,,13,,59,72
6060,note_on,,61,0,12,,,,,,,,,,,,,,,,11,,68,72
6089,note_on,,29,0,15,,,,,,,,,,,,,,,,15,,67,0
6090,note_on,,1,0,15,,,,,,,,,,,,,,,,15,,68,72
6119,note_on,,59,0,13,,,,,,,,,,,,,,,,12,,59,0
6119,note_on,,59,0,8,,,,,,,,,,,,,,,,6,,68,0
6119,note_on,,59,0,6,,,,,,,,,,,,,,,,2,,59,0
6119,note_on,,29,0,15,,,,,,,,,,,,,,,,15,,59,0
6119,note_on,,0,0,15,,,,,,,,,,,,,,,,15,,68,0
6119,note_on,,59,0,12,,,,,,,,,,,,,,,,11,,68,0
6119,note_on,,59,0,14,,,,,,,,,,,,,,,,13,,59,0
6119,note_on,,59,0,9,,,,,,,,,,,,,,,,7,,59,0
6120,note_on,,1,0,8,,,,,,,,,,,,,,,,6,,67,72
6120,note_on,,1,0,12,,,,,,,,,,,,,,,,11,,67,72
6120,note_on,,1,0,13,,,,,,,,,,,,,,,,12,,60,72
6120,note_on,,1,0,14,,,,,,,,,,,,,,,,13,,60,72
6120,note_on,,1,0,9,,,,,,,,,,,,,,,,7,,60,72
6120,note_on,,0,0,15,,,,,,,,,,,,,,,,15,,67,72
6120,note_on,,1,0,15,,,,,,,,,,,,,,,,15,,60,72
6120,note_on,,1,0,6,,,,,,,,,,,,,,,,2,,60,72
6179,note_on,,59,0,12,,,,,,,,,,,,,,,,11,,67,0
6179,note_on,,59,0,14,,,,,,,,,,,,,,,,13,,60,0
6179,note_on,,59,0,6,,,,,,,,,,,,,,,,2,,60,0
6179,note_on,,0,0,15,,,,,,,,,,,,,,,,15,,67,0
6179,note_on,,59,0,9,,,,,,,,,,,,,,,,7,,60,0
6179,note_on,,59,0,13,,,,,,,,,,,,,,,,12,,60,0
6179,note_on,,59,0,15,,,,,,,,,,,,,,,,15,,60,0
6179,note_on,,59,0,8,,,,,,,,,,,,,,,,6,,67,0
6180,note_on,,1,0,13,,,,,,,,,,,,,,,,12,,62,72
6180,note_on,,1,0,12,,,,,,,,,,,,,,,,11,,65,72
6180,note_on,,1,0,6,,,,,,,,,,,,,,,,2,,62,72
6180,note_on,,1,0,15,,,,,,,,,,,,,,,,15,,62,72
6180,note_on,,1,0,14,,,,,,,,,,,,,,,,13,,62,72
6180,note_on,,0,0,15,,,,,,,,,,,,,,,,15,,65,72
6180,note_on,,1,0,8,,,,,,,,,,,,,,,,6,,65,72
6180,note_on,,1,0,9,,,,,,,,,,,,,,,,7,,62,72
6239,note_on,,59,0,9,,,,,,,,,,,,,,,,7,,62,0
6239,note_on,,0,0,15,,,,,,,,,,,,,,,,15,,65,0
6239,note_on,,59,0,6,,,,,,,,,,,,,,,,2,,62,0
6239,note_on,,59,0,15,,,,,,,,,,,,,,,,15,,62,0
6239,note_on,,59,0,14,,,,,,,,,,,,,,,,13,,62,0
6239,note_on,,59,0,12,,,,,,,,,,,,,,,,11,,65,0
6239,note_on,,59,0,8,,,,,,,,,,,,,,,,6,,65,0
6239,note_on,,59,0,13,,,,,,,,,,,,,,,,12,,62,0
6240,note_on,,1,0,15,,,,,,,,,,,,,,,,15,,55,72
6240,note_on,,1,0,9,,,,,,,,,,,,,,,,7,,55,72
6240,note_on,,1,0,13,,,,,,,,,,,,,,,,12,,55,72
6240,note_on,,0,0,15,,,,,,,,,,,,,,,,15,,63,72
6240,note_on,,1,0,8,,,,,,,,,,,,,,,,6,,63,72
6240,note_on,,1,0,12,,,,,,,,,,,,,,,,11,,63,72
6240,note_on,,1,0,14,,,,,,,,,,,,,,,,13,,55,72
6240,note_on,,1,0,6,,,,,,,,,,,,,,,,2,,55,72
6359,note_on,,119,0,6,,,,,,,,,,,,,,,,2,,55,0
6359,note_on,,119,0,13,,,,,,,,,,,,,,,,12,,55,0
6359,note_on,,119,0,14,,,,,,,,,,,,,,,,13,,55,0
6359,note_on,,119,0,8,,,,,,,,,,,,,,,,6,,63,0
6359,note_on,,119,0,9,,,,,,,,,,,,,,,,7,,55,0
6359,note_on,,0,0,15,,,,,,,,,,,,,,,,15,,63,0
6359,note_on,,119,0,15,,,,,,,,,,,,,,,,15,,55,0
6359,note_on,,119,0,12,,,,,,,,,,,,,,,,11,,63,0
6360,note_on,,1,0,14,,,,,,,,,,,,,,,,13,,55,72
6360,note_on,,0,0,15,,,,,,,,,,,,,,,,15,,74,72
6360,note_on,,0,0,15,,,,,,,,,,,,,,,,15,,71,72
6360,note_on,,0,0,15,,,,,,,,,,,,,,,,15,,67,72
6360,note_on,,0,0,15,,,,,,,,,,,,,,,,15,,62,72
6360,note_on,,1,0,8,,,,,,,,,,,,,,,,6,,62,72
6360,note_on,,1441,0,10,,,,,,,,,,,,,,,,8,,55,72
6360,note_on,,1,0,15,,,,,,,,,,,,,,,,15,,55,72
6360,note_on,,1,0,12,,,,,,,,,,,,,,,,11,,62,72
6360,note_on,,1,0,13,,,,,,,,,,,,,,,,12,,59,72
6360,note_on,,1,0,9,,,,,,,,,,,,,,,,7,,59,72
6360,note_on,,1,0,6,,,,,,,,,,,,,,,,2,,55,72
6479,note_on,,119,0,8,,,,,,,,,,,,,,,,6,,62,0
6479,note_on,,119,0,13,,,,,,,,,,,,,,,,12,,59,0
6479,note_on,,119,0,12,,,,,,,,,,,,,,,,11,,62,0
6479,note_on,,0,0,15,,,,,,,,,,,,,,,,15,,62,0
6479,note_on,,0,0,15,,,,,,,,,,,,,,,,15,,67,0
6479,note_on,,119,0,9,,,,,,,,,,,,,,,,7,,59,0
6479,note_on,,119,0,14,,,,,,,,,,,,,,,,13,,55,0
6479,note_on,,119,0,10,,,,,,,,,,,,,,,,8,,55,0
6479,note_on,,119,0,6,,,,,,,,,,,,,,,,2,,55,0
6479,note_on,,0,0,15,,,,,,,,,,,,,,,,15,,71,0
6479,note_on,,0,0,15,,,,,,,,,,,,,,,,15,,74,0
6479,note_on,,119,0,15,,,,,,,,,,,,,,,,15,,55,0
6480,note_on,,0,0,15,,,,,,,,,,,,,,,,15,,75,72
6480,note_on,,1,0,13,,,,,,,,,,,,,,,,12,,60,72
6480,note_on,,1,0,14,,,,,,,,,,,,,,,,13,,48,72
6480,note_on,,1,0,15,,,,,,,,,,,,,,,,15,,48,72
6480,note_on,,1,0,12,,,,,,,,,,,,,,,,11,,60,72
6480,note_on,,1,0,6,,,,,,,,,,,,,,,,2,,48,72
6480,note_on,,0,0,15,,,,,,,,,,,,,,,,15,,72,72
6480,note_on,,1,0,8,,,,,,,,,,,,,,,,6,,60,72
6480,note_on,,0,0,15,,,,,,,,,,,,,,,,15,,67,72
6480,note_on,,1,0,10,,,,,,,,,,,,,,,,8,,48,72
6480,note_on,,1,0,9,,,,,,,,,,,,,,,,7,,60,72
6539,note_on,,59,0,9,,,,,,,,,,,,,,,,7,,60,0
6539,note_on,,59,0,13,,,,,,,,,,,,,,,,12,,60,0
6540,note_on,,1,0,9,,,,,,,,,,,,,,,,7,,62,72
6540,note_on,,1,0,13,,,,,,,,,,,,,,,,12,,62,72
6599,note_on,,119,0,14,,,,,,,,,,,,,,,,13,,48,0
6599,note_on,,59,0,13,,,,,,,,,,,,,,,,12,,62,0
6599,note_on,,119,0,12,,,,,,,,,,,,,,,,11,,60,0
6599,note_on,,59,0,9,,,,,,,,,,,,,,,,7,,62,0
6599,note_on,,119,0,10,,,,,,,,,,,,,,,,8,,48,0
6599,note_on,,119,0,6,,,,,,,,,,,,,,,,2,,48,0
6599,note_on,,119,0,8,,,,,,,,,,,,,,,,6,,60,0
6599,note_on,,119,0,15,,,,,,,,,,,,,,,,15,,48,0
6599,note_on,,0,0,15,,,,,,,,,,,,,,,,15,,72,0
6599,note_on,,0,0,15,,,,,,,,,,,,,,,,15,,67,0
6599,note_on,,0,0,15,,,,,,,,,,,,,,,,15,,75,0
6600,note_on,,0,0,15,,,,,,,,,,,,,,,,15,,63,72
6600,note_on,,1,0,13,,,,,,,,,,,,,,,,12,,63,72
6600,note_on,,1,0,14,,,,,,,,,,,,,,,,13,,48,72
6600,note_on,,1,0,9,,,,,,,,,,,,,,,,7,,63,72
6600,note_on,,0,0,15,,,,,,,,,,,,,,,,15,,67,72
6600,note_on,,6600,0,7,,,,,,,,,,,,,,,,5,,72,72
6600,note_on,,1,0,10,,,,,,,,,,,,,,,,8,,48,72
6600,note_on,,1,0,6,,,,,,,,,,,,,,,,2,,48,72
6600,note_on,,1,0,15,,,,,,,,,,,,,,,,15,,48,72
6600,note_on,,0,0,15,,,,,,,,,,,,,,,,15,,72,72
6600,note_on,,6481,0,11,,,,,,,,,,,,,,,,10,,72,72
6600,note_on,,6600,0,5,,,,,,,,,,,,,,,,1,,72,72
6659,note_on,,59,0,9,,,,,,,,,,,,,,,,7,,63,0
6659,note_on,,59,0,6,,,,,,,,,,,,,,,,2,,48,0
6659,note_on,,59,0,15,,,,,,,,,,,,,,,,15,,48,0
6659,note_on,,0,0,15,,,,,,,,,,,,,,,,15,,67,0
6659,note_on,,59,0,10,,,,,,,,,,,,,,,,8,,48,0
6659,note_on,,59,0,13,,,,,,,,,,,,,,,,12,,63,0
6659,note_on,,59,0,14,,,,,,,,,,,,,,,,13,,48,0
6660,note_on,,1,0,6,,,,,,,,,,,,,,,,2,,50,72
6660,note_on,,1,0,15,,,,,,,,,,,,,,,,15,,50,72
6660,note_on,,0,0,15,,,,,,,,,,,,,,,,15,,65,72
6660,note_on,,1,0,13,,,,,,,,,,,,,,,,12,,62,72
6660,note_on,,1,0,14,,,,,,,,,,,,,,,,13,,50,72
6660,note_on,,1,0,10,,,,,,,,,,,,,,,,8,,50,72
6660,note_on,,1,0,9,,,,,,,,,,,,,,,,7,,62,72
6719,note_on,,59,0,14,,,,,,,,,,,,,,,,13,,50,0
6719,note_on,,119,0,7,,,,,,,,,,,,,,,,5,,72,0
6719,note_on,,0,0,15,,,,,,,,,,,,,,,,15,,63,0
6719,note_on,,59,0,15,,,,,,,,,,,,,,,,15,,72,0
6719,note_on,,59,0,10,,,,,,,,,,,,,,,,8,,50,0
6719,note_on,,119,0,11,,,,,,,,,,,,,,,,10,,72,0
6719,note_on,,0,0,15,,,,,,,,,,,,,,,,15,,65,0
6719,note_on,,59,0,9,,,,,,,,,,,,,,,,7,,62,0
6719,note_on,,59,0,13,,,,,,,,,,,,,,,,12,,62,0
6719,note_on,,59,0,6,,,,,,,,,,,,,,,,2,,50,0
6719,note_on,,0,0,15,,,,,,,,,,,,,,,,15,,50,0
6719,note_on,,119,0,5,,,,,,,,,,,,,,,,1,,72,0
6720,note_on,,1,0,7,,,,,,,,,,,,,,,,5,,67,72
6720,note_on,,1,0,15,,,,,,,,,,,,,,,,15,,60,72
6720,note_on,,1,0,13,,,,,,,,,,,,,,,,12,,60,72
6720,note_on,,1,0,9,,,,,,,,,,,,,,,,7,,60,72
6720,note_on,,1,0,5,,,,,,,,,,,,,,,,1,,67,72
6720,note_on,,0,0,15,,,,,,,,,,,,,,,,15,,51,72
6720,note_on,,0,0,15,,,,,,,,,,,,,,,,15,,67,72
6720,note_on,,0,0,15,,,,,,,,,,,,,,,,15,,63,72
6720,note_on,,1,0,11,,,,,,,,,,,,,,,,10,,67,72
6720,note_on,,1,0,14,,,,,,,,,,,,,,,,13,,51,72
6720,note_on,,1,0,10,,,,,,,,,,,,,,,,8,,51,72
6720,note_on,,1,0,6,,,,,,,,,,,,,,,,2,,51,72
6780,note_on,,181,0,8,,,,,,,,,,,,,,,,6,,67,72
6780,note_on,,181,0,12,,,,,,,,,,,,,,,,11,,67,72
6839,note_on,,0,0,15,,,,,,,,,,,,,,,,15,,67,0
6839,note_on,,119,0,7,,,,,,,,,,,,,,,,5,,67,0
6839,note_on,,0,0,15,,,,,,,,,,,,,,,,15,,63,0
6839,note_on,,119,0,15,,,,,,,,,,,,,,,,15,,51,0
6839,note_on,,119,0,6,,,,,,,,,,,,,,,,2,,51,0
6839,note_on,,119,0,11,,,,,,,,,,,,,,,,10,,67,0
6839,note_on,,59,0,8,,,,,,,,,,,,,,,,6,,67,0
6839,note_on,,119,0,10,,,,,,,,,,,,,,,,8,,51,0
6839,note_on,,59,0,12,,,,,,,,,,,,,,,,11,,67,0
6839,note_on,,119,0,5,,,,,,,,,,,,,,,,1,,67,0
6839,note_on,,119,0,14,,,,,,,,,,,,,,,,13,,51,0
6840,note_on,,1,0,11,,,,,,,,,,,,,,,,10,,69,72
6840,note_on,,1,0,5,,,,,,,,,,,,,,,,1,,69,72
6840,note_on,,1,0,6,,,,,,,,,,,,,,,,2,,50,72
6840,note_on,,1,0,8,,,,,,,,,,,,,,,,6,,65,72
6840,note_on,,1,0,7,,,,,,,,,,,,,,,,5,,69,72
6840,note_on,,1,0,10,,,,,,,,,,,,,,,,8,,50,72
6840,note_on,,1,0,14,,,,,,,,,,,,,,,,13,,50,72
6840,note_on,,1,0,15,,,,,,,,,,,,,,,,15,,50,72
6840,note_on,,0,0,15,,,,,,,,,,,,,,,,15,,69,72
6840,note_on,,0,0,15,,,,,,,,,,,,,,,,15,,65,72
6840,note_on,,1,0,12,,,,,,,,,,,,,,,,11,,65,72
6899,note_on,,179,0,9,,,,,,,,,,,,,,,,7,,60,0
6899,note_on,,0,0,15,,,,,,,,,,,,,,,,15,,65,0
6899,note_on,,59,0,6,,,,,,,,,,,,,,,,2,,50,0
6899,note_on,,59,0,8,,,,,,,,,,,,,,,,6,,65,0
6899,note_on,,59,0,12,,,,,,,,,,,,,,,,11,,65,0
6899,note_on,,59,0,11,,,,,,,,,,,,,,,,10,,69,0
6899,note_on,,59,0,14,,,,,,,,,,,,,,,,13,,50,0
6899,note_on,,59,0,15,,,,,,,,,,,,,,,,15,,50,0
6899,note_on,,59,0,7,,,,,,,,,,,,,,,,5,,69,0
6899,note_on,,59,0,10,,,,,,,,,,,,,,,,8,,50,0
6899,note_on,,59,0,5,,,,,,,,,,,,,,,,1,,69,0
6899,note_on,,179,0,13,,,,,,,,,,,,,,,,12,,60,0
6900,note_on,,0,0,15,,,,,,,,,,,,,,,,15,,63,72
6900,note_on,,1,0,5,,,,,,,,,,,,,,,,1,,69,72
6900,note_on,,1,0,15,,,,,,,,,,,,,,,,15,,48,72
6900,note_on,,1,0,12,,,,,,,,,,,,,,,,11,,63,72
6900,note_on,,1,0,9,,,,,,,,,,,,,,,,7,,62,72
6900,note_on,,1,0,6,,,,,,,,,,,,,,,,2,,48,72
6900,note_on,,1,0,10,,,,,,,,,,,,,,,,8,,48,72
6900,note_on,,1,0,11,,,,,,,,,,,,,,,,10,,69,72
6900,note_on,,1,0,13,,,,,,,,,,,,,,,,12,,62,72
6900,note_on,,1,0,7,,,,,,,,,,,,,,,,5,,69,72
6900,note_on,,1,0,14,,,,,,,,,,,,,,,,13,,48,72
6900,note_on,,1,0,8,,,,,,,,,,,,,,,,6,,63,72
6929,note_on,,29,0,13,,,,,,,,,,,,,,,,12,,62,0
6929,note_on,,29,0,9,,,,,,,,,,,,,,,,7,,62,0
6930,note_on,,1,0,9,,,,,,,,,,,,,,,,7,,60,72
6930,note_on,,1,0,13,,,,,,,,,,,,,,,,12,,60,72
6959,note_on,,59,0,7,,,,,,,,,,,,,,,,5,,69,0
6959,note_on,,59,0,12,,,,,,,,,,,,,,,,11,,63,0
6959,note_on,,59,0,8,,,,,,,,,,,,,,,,6,,63,0
6959,note_on,,0,0,15,,,,,,,,,,,,,,,,15,,48,0
6959,note_on,,0,0,15,,,,,,,,,,,,,,,,15,,63,0
6959,note_on,,29,0,9,,,,,,,,,,,,,,,,7,,60,0
6959,note_on,,59,0,11,,,,,,,,,,,,,,,,10,,69,0
6959,note_on,,59,0,10,,,,,,,,,,,,,,,,8,,48,0
6959,note_on,,59,0,5,,,,,,,,,,,,,,,,1,,69,0
6959,note_on,,29,0,13,,,,,,,,,,,,,,,,12,,60,0
6959,note_on,,0,0,15,,,,,,,,,,,,,,,,15,,69,0
6959,note_on,,59,0,14,,,,,,,,,,,,,,,,13,,48,0
6959,note_on,,59,0,15,,,,,,,,,,,,,,,,15,,60,0
6959,note_on,,59,0,6,,,,,,,,,,,,,,,,2,,48,0
6960,note_on,,1,0,6,,,,,,,,,,,,,,,,2,,55,72
6960,note_on,,1,0,11,,,,,,,,,,,,,,,,10,,70,72
6960,note_on,,1,0,10,,,,,,,,,,,,,,,,8,,55,72
6960,note_on,,1,0,14,,,,,,,,,,,,,,,,13,,55,72
6960,note_on,,1,0,8,,,,,,,,,,,,,,,,6,,62,72
6960,note_on,,1,0,15,,,,,,,,,,,,,,,,15,,55,72
6960,note_on,,0,0,15,,,,,,,,,,,,,,,,15,,58,72
6960,note_on,,0,0,15,,,,,,,,,,,,,,,,15,,70,72
6960,note_on,,0,0,15,,,,,,,,,,,,,,,,15,,62,72
6960,note_on,,1,0,13,,,,,,,,,,,,,,,,12,,58,72
6960,note_on,,1,0,5,,,,,,,,,,,,,,,,1,,70,72
6960,note_on,,1,0,7,,,,,,,,,,,,,,,,5,,70,72
6960,note_on,,1,0,9,,,,,,,,,,,,,,,,7,,58,72
6960,note_on,,1,0,12,,,,,,,,,,,,,,,,11,,62,72
7019,note_on,,59,0,11,,,,,,,,,,,,,,,,10,,70,0
7019,note_on,,0,0,15,,,,,,,,,,,,,,,,15,,58,0
7019,note_on,,59,0,8,,,,,,,,,,,,,,,,6,,62,0
7019,note_on,,59,0,15,,,,,,,,,,,,,,,,15,,55,0
7019,note_on,,59,0,12,,,,,,,,,,,,,,,,11,,62,0
7019,note_on,,59,0,6,,,,,,,,,,,,,,,,2,,55,0
7019,note_on,,59,0,5,,,,,,,,,,,,,,,,1,,70,0
7019,note_on,,59,0,13,,,,,,,,,,,,,,,,12,,58,0
7019,note_on,,59,0,10,,,,,,,,,,,,,,,,8,,55,0
7019,note_on,,59,0,14,,,,,,,,,,,,,,,,13,,55,0
7019,note_on,,59,0,9,,,,,,,,,,,,,,,,7,,58,0
7019,note_on,,59,0,7,,,,,,,,,,,,,,,,5,,70,0
7020,note_on,,1,0,6,,,,,,,,,,,,,,,,2,,58,72
7020,note_on,,1,0,8,,,,,,,,,,,,,,,,6,,67,72
7020,note_on,,1,0,15,,,,,,,,,,,,,,,,15,,58,72
7020,note_on,,1,0,10,,,,,,,,,,,,,,,,8,,58,72
7020,note_on,,1,0,14,,,,,,,,,,,,,,,,13,,58,72
7020,note_on,,1,0,11,,,,,,,,,,,,,,,,10,,67,72
7020,note_on,,1,0,12,,,,,,,,,,,,,,,,11,,67,72
7020,note_on,,0,0,15,,,,,,,,,,,,,,,,15,,62,72
7020,note_on,,1,0,5,,,,,,,,,,,,,,,,1,,67,72
7020,note_on,,1,0,13,,,,,,,,,,,,,,,,12,,62,72
7020,note_on,,1,0,9,,,,,,,,,,,,,,,,7,,62,72
7020,note_on,,1,0,7,,,,,,,,,,,,,,,,5,,67,72
7079,note_on,,59,0,9,,,,,,,,,,,,,,,,7,,62,0
7079,note_on,,0,0,15,,,,,,,,,,,,,,,,15,,58,0
7079,note_on,,0,0,15,,,,,,,,,,,,,,,,15,,62,0
7079,note_on,,59,0,8,,,,,,,,,,,,,,,,6,,67,0
7079,note_on,,59,0,14,,,,,,,,,,,,,,,,13,,58,0
7079,note_on,,0,0,15,,,,,,,,,,,,,,,,15,,62,0
7079,note_on,,59,0,10,,,,,,,,,,,,,,,,8,,58,0
7079,note_on,,59,0,5,,,,,,,,,,,,,,,,1,,67,0
7079,note_on,,59,0,11,,,,,,,,,,,,,,,,10,,67,0
7079,note_on,,59,0,6,,,,,,,,,,,,,,,,2,,58,0
7079,note_on,,59,0,12,,,,,,,,,,,,,,,,11,,67,0
7079,note_on,,59,0,13,,,,,,,,,,,,,,,,12,,62,0
7079,note_on,,59,0,7,,,,,,,,,,,,,,,,5,,67,0
7079,note_on,,59,0,15,,,,,,,,,,,,,,,,15,,70,0
7080,note_on,,1,0,7,,,,,,,,,,,,,,,,5,,72,72
7080,note_on,,1,0,14,,,,,,,,,,,,,,,,13,,57,72
7080,note_on,,1,0,10,,,,,,,,,,,,,,,,8,,57,72
7080,note_on,,1,0,9,,,,,,,,,,,,,,,,7,,60,72
7080,note_on,,1,0,12,,,,,,,,,,,,,,,,11,,66,72
7080,note_on,,1,0,13,,,,,,,,,,,,,,,,12,,60,72
7080,note_on,,0,0,15,,,,,,,,,,,,,,,,15,,60,72
7080,note_on,,1,0,6,,,,,,,,,,,,,,,,2,,57,72
7080,note_on,,1,0,11,,,,,,,,,,,,,,,,10,,72,72
7080,note_on,,1,0,5,,,,,,,,,,,,,,,,1,,72,72
7080,note_on,,0,0,15,,,,,,,,,,,,,,,,15,,66,72
7080,note_on,,0,0,15,,,,,,,,,,,,,,,,15,,72,72
7080,note_on,,1,0,8,,,,,,,,,,,,,,,,6,,66,72
7080,note_on,,1,0,15,,,,,,,,,,,,,,,,15,,57,72
7139,note_on,,59,0,13,,,,,,,,,,,,,,,,12,,60,0
7139,note_on,,0,0,15,,,,,,,,,,,,,,,,15,,66,0
7139,note_on,,59,0,8,,,,,,,,,,,,,,,,6,,66,0
7139,note_on,,59,0,12,,,,,,,,,,,,,,,,11,,66,0
7139,note_on,,0,0,15,,,,,,,,,,,,,,,,15,,60,0
7139,note_on,,59,0,6,,,,,,,,,,,,,,,,2,,57,0
7139,note_on,,59,0,9,,,,,,,,,,,,,,,,7,,60,0
7139,note_on,,59,0,10,,,,,,,,,,,,,,,,8,,57,0
7139,note_on,,59,0,15,,,,,,,,,,,,,,,,15,,57,0
7139,note_on,,59,0,14,,,,,,,,,,,,,,,,13,,57,0
7140,note_on,,1,0,6,,,,,,,,,,,,,,,,2,,55,72
7140,note_on,,0,0,15,,,,,,,,,,,,,,,,15,,67,72
7140,note_on,,1,0,13,,,,,,,,,,,,,,,,12,,58,72
7140,note_on,,1,0,14,,,,,,,,,,,,,,,,13,,55,72
7140,note_on,,1,0,10,,,,,,,,,,,,,,,,8,,55,72
7140,note_on,,1,0,12,,,,,,,,,,,,,,,,11,,67,72
7140,note_on,,1,0,15,,,,,,,,,,,,,,,,15,,58,72
7140,note_on,,1,0,8,,,,,,,,,,,,,,,,6,,67,72
7140,note_on,,0,0,15,,,,,,,,,,,,,,,,15,,55,72
7140,note_on,,1,0,9,,,,,,,,,,,,,,,,7,,58,72
7199,note_on,,59,0,14,,,,,,,,,,,,,,,,13,,55,0
7199,note_on,,0,0,15,,,,,,,,,,,,,,,,15,,55,0
7199,note_on,,59,0,12,,,,,,,,,,,,,,,,11,,67,0
7199,note_on,,59,0,10,,,,,,,,,,,,,,,,8,,55,0
7199,note_on,,59,0,6,,,,,,,,,,,,,,,,2,,55,0
7199,note_on,,59,0,13,,,,,,,,,,,,,,,,12,,58,0
7199,note_on,,59,0,9,,,,,,,,,,,,,,,,7,,58,0
7199,note_on,,0,0,15,,,,,,,,,,,,,,,,15,,67,0
7199,note_on,,59,0,15,,,,,,,,,,,,,,,,15,,58,0
7199,note_on,,59,0,8,,,,,,,,,,,,,,,,6,,67,0
7200,note_on,,1,0,8,,,,,,,,,,,,,,,,6,,62,72
7200,note_on,,1,0,6,,,,,,,,,,,,,,,,2,,54,72
7200,note_on,,1,0,14,,,,,,,,,,,,,,,,13,,54,72
7200,note_on,,1,0,13,,,,,,,,,,,,,,,,12,,57,72
7200,note_on,,1,0,12,,,,,,,,,,,,,,,,11,,62,72
7200,note_on,,1,0,10,,,,,,,,,,,,,,,,8,,54,72
7200,note_on,,1,0,9,,,,,,,,,,,,,,,,7,,57,72
7200,note_on,,0,0,15,,,,,,,,,,,,,,,,15,,69,72
7200,note_on,,0,0,15,,,,,,,,,,,,,,,,15,,62,72
7200,note_on,,1,0,15,,,,,,,,,,,,,,,,15,,54,72
7259,note_on,,59,0,8,,,,,,,,,,,,,,,,6,,62,0
7259,note_on,,59,0,13,,,,,,,,,,,,,,,,12,,57,0
7259,note_on,,59,0,9,,,,,,,,,,,,,,,,7,,57,0
7259,note_on,,179,0,5,,,,,,,,,,,,,,,,1,,72,0
7259,note_on,,179,0,11,,,,,,,,,,,,,,,,10,,72,0
7259,note_on,,179,0,7,,,,,,,,,,,,,,,,5,,72,0
7259,note_on,,59,0,12,,,,,,,,,,,,,,,,11,,62,0
7260,note_on,,1,0,8,,,,,,,,,,,,,,,,6,,69,72
7260,note_on,,1,0,13,,,,,,,,,,,,,,,,12,,62,72
7260,note_on,,1,0,5,,,,,,,,,,,,,,,,1,,70,72
7260,note_on,,1,0,11,,,,,,,,,,,,,,,,10,,70,72
7260,note_on,,1,0,9,,,,,,,,,,,,,,,,7,,62,72
7260,note_on,,1,0,7,,,,,,,,,,,,,,,,5,,70,72
7260,note_on,,1,0,12,,,,,,,,,,,,,,,,11,,69,72
7289,note_on,,29,0,5,,,,,,,,,,,,,,,,1,,70,0
7289,note_on,,29,0,11,,,,,,,,,,,,,,,,10,,70,0
7289,note_on,,29,0,7,,,,,,,,,,,,,,,,5,,70,0
7290,note_on,,1,0,5,,,,,,,,,,,,,,,,1,,69,72
7290,note_on,,1,0,11,,,,,,,,,,,,,,,,10,,69,72
7290,note_on,,1,0,7,,,,,,,,,,,,,,,,5,,69,72
7319,note_on,,119,0,15,,,,,,,,,,,,,,,,15,,72,0
7319,note_on,,29,0,5,,,,,,,,,,,,,,,,1,,69,0
7319,note_on,,0,0,15,,,,,,,,,,,,,,,,15,,62,0
7319,note_on,,0,0,15,,,,,,,,,,,,,,,,15,,69,0
7319,note_on,,0,0,15,,,,,,,,,,,,,,,,15,,54,0
7319,note_on,,119,0,6,,,,,,,,,,,,,,,,2,,54,0
7319,note_on,,59,0,12,,,,,,,,,,,,,,,,11,,69,0
7319,note_on,,119,0,10,,,,,,,,,,,,,,,,8,,54,0
7319,note_on,,29,0,7,,,,,,,,,,,,,,,,5,,69,0
7319,note_on,,59,0,8,,,,,,,,,,,,,,,,6,,69,0
7319,note_on,,119,0,14,,,,,,,,,,,,,,,,13,,54,0
7319,note_on,,29,0,11,,,,,,,,,,,,,,,,10,,69,0
7320,note_on,,0,0,15,,,,,,,,,,,,,,,,15,,62,72
7320,note_on,,0,0,15,,,,,,,,,,,,,,,,15,,67,72
7320,note_on,,0,0,15,,,,,,,,,,,,,,,,15,,70,72
7320,note_on,,1,0,5,,,,,,,,,,,,,,,,1,,70,72
7320,note_on,,1,0,8,,,,,,,,,,,,,,,,6,,67,72
7320,note_on,,1,0,15,,,,,,,,,,,,,,,,15,,55,72
7320,note_on,,1,0,12,,,,,,,,,,,,,,,,11,,67,72
7320,note_on,,1,0,11,,,,,,,,,,,,,,,,10,,70,72
7320,note_on,,1,0,6,,,,,,,,,,,,,,,,2,,55,72
7320,note_on,,1,0,10,,,,,,,,,,,,,,,,8,,55,72
7320,note_on,,1,0,7,,,,,,,,,,,,,,,,5,,70,72
7320,note_on,,1,0,14,,,,,,,,,,,,,,,,13,,55,72
7379,note_on,,119,0,9,,,,,,,,,,,,,,,,7,,62,0
7379,note_on,,59,0,10,,,,,,,,,,,,,,,,8,,55,0
7379,note_on,,59,0,8,,,,,,,,,,,,,,,,6,,67,0
7379,note_on,,59,0,11,,,,,,,,,,,,,,,,10,,70,0
7379,note_on,,0,0,15,,,,,,,,,,,,,,,,15,,67,0
7379,note_on,,59,0,6,,,,,,,,,,,,,,,,2,,55,0
7379,note_on,,59,0,7,,,,,,,,,,,,,,,,5,,70,0
7379,note_on,,59,0,15,,,,,,,,,,,,,,,,15,,55,0
7379,note_on,,0,0,15,,,,,,,,,,,,,,,,15,,70,0
7379,note_on,,0,0,15,,,,,,,,,,,,,,,,15,,62,0
7379,note_on,,119,0,13,,,,,,,,,,,,,,,,12,,62,0
7379,note_on,,59,0,12,,,,,,,,,,,,,,,,11,,67,0
7379,note_on,,59,0,14,,,,,,,,,,,,,,,,13,,55,0
7379,note_on,,59,0,5,,,,,,,,,,,,,,,,1,,70,0
7380,note_on,,1,0,8,,,,,,,,,,,,,,,,6,,66,72
7380,note_on,,1,0,10,,,,,,,,,,,,,,,,8,,57,72
7380,note_on,,1,0,12,,,,,,,,,,,,,,,,11,,66,72
7380,note_on,,1,0,7,,,,,,,,,,,,,,,,5,,72,72
7380,note_on,,1,0,14,,,,,,,,,,,,,,,,13,,57,72
7380,note_on,,1,0,9,,,,,,,,,,,,,,,,7,,60,72
7380,note_on,,1,0,11,,,,,,,,,,,,,,,,10,,72,72
7380,note_on,,1,0,5,,,,,,,,,,,,,,,,1,,72,72
7380,note_on,,1,0,6,,,,,,,,,,,,,,,,2,,57,72
7380,note_on,,0,0,15,,,,,,,,,,,,,,,,15,,69,72
7380,note_on,,0,0,15,,,,,,,,,,,,,,,,15,,66,72
7380,note_on,,1,0,15,,,,,,,,,,,,,,,,15,,57,72
7380,note_on,,1,0,13,,,,,,,,,,,,,,,,12,,60,72
7380,note_on,,0,0,15,,,,,,,,,,,,,,,,15,,60,72
7439,note_on,,59,0,7,,,,,,,,,,,,,,,,5,,72,0
7439,note_on,,59,0,10,,,,,,,,,,,,,,,,8,,57,0
7439,note_on,,59,0,5,,,,,,,,,,,,,,,,1,,72,0
7439,note_on,,0,0,15,,,,,,,,,,,,,,,,15,,66,0
7439,note_on,,59,0,9,,,,,,,,,,,,,,,,7,,60,0
7439,note_on,,59,0,15,,,,,,,,,,,,,,,,15,,57,0
7439,note_on,,59,0,14,,,,,,,,,,,,,,,,13,,57,0
7439,note_on,,59,0,6,,,,,,,,,,,,,,,,2,,57,0
7439,note_on,,59,0,8,,,,,,,,,,,,,,,,6,,66,0
7439,note_on,,0,0,15,,,,,,,,,,,,,,,,15,,69,0
7439,note_on,,59,0,11,,,,,,,,,,,,,,,,10,,72,0
7439,note_on,,0,0,15,,,,,,,,,,,,,,,,15,,60,0
7439,note_on,,59,0,12,,,,,,,,,,,,,,,,11,,66,0
7439,note_on,,59,0,13,,,,,,,,,,,,,,,,12,,60,0
7440,note_on,,1,0,11,,,,,,,,,,,,,,,,10,,74,72
7440,note_on,,1,0,7,,,,,,,,,,,,,,,,5,,74,72
7440,note_on,,1,0,14,,,,,,,,,,,,,,,,13,,58,72
7440,note_on,,1,0,8,,,,,,,,,,,,,,,,6,,67,72
7440,note_on,,1,0,12,,,,,,,,,,,,,,,,11,,67,72
7440,note_on,,1,0,13,,,,,,,,,,,,,,,,12,,58,72
7440,note_on,,1,0,6,,,,,,,,,,,,,,,,2,,58,72
7440,note_on,,0,0,15,,,,,,,,,,,,,,,,15,,62,72
7440,note_on,,1,0,15,,,,,,,,,,,,,,,,15,,58,72
7440,note_on,,1,0,5,,,,,,,,,,,,,,,,1,,74,72
7440,note_on,,1,0,9,,,,,,,,,,,,,,,,7,,58,72
7440,note_on,,1,0,10,,,,,,,,,,,,,,,,8,,58,72
7440,note_on,,0,0,15,,,,,,,,,,,,,,,,15,,67,72
7499,note_on,,59,0,14,,,,,,,,,,,,,,,,13,,58,0
7499,note_on,,59,0,15,,,,,,,,,,,,,,,,15,,58,0
7499,note_on,,59,0,9,,,,,,,,,,,,,,,,7,,58,0
7499,note_on,,59,0,11,,,,,,,,,,,,,,,,10,,74,0
7499,note_on,,59,0,5,,,,,,,,,,,,,,,,1,,74,0
7499,note_on,,0,0,15,,,,,,,,,,,,,,,,15,,62,0
7499,note_on,,59,0,10,,,,,,,,,,,,,,,,8,,58,0
7499,note_on,,59,0,6,,,,,,,,,,,,,,,,2,,58,0
7499,note_on,,59,0,13,,,,,,,,,,,,,,,,12,,58,0
7499,note_on,,59,0,7,,,,,,,,,,,,,,,,5,,74,0
7500,note_on,,1,0,9,,,,,,,,,,,,,,,,7,,62,72
7500,note_on,,0,0,15,,,,,,,,,,,,,,,,15,,58,72
7500,note_on,,1,0,7,,,,,,,,,,,,,,,,5,,70,72
7500,note_on,,1,0,6,,,,,,,,,,,,,,,,2,,55,72
7500,note_on,,1,0,11,,,,,,,,,,,,,,,,10,,70,72
7500,note_on,,1,0,10,,,,,,,,,,,,,,,,8,,55,72
7500,note_on,,1,0,5,,,,,,,,,,,,,,,,1,,70,72
7500,note_on,,1,0,14,,,,,,,,,,,,,,,,13,,55,72
7500,note_on,,1,0,13,,,,,,,,,,,,,,,,12,,62,72
7500,note_on,,1,0,15,,,,,,,,,,,,,,,,15,,55,72
7559,note_on,,59,0,11,,,,,,,,,,,,,,,,10,,70,0
7559,note_on,,59,0,10,,,,,,,,,,,,,,,,8,,55,0
7559,note_on,,0,0,15,,,,,,,,,,,,,,,,15,,58,0
7559,note_on,,59,0,13,,,,,,,,,,,,,,,,12,,62,0
7559,note_on,,59,0,14,,,,,,,,,,,,,,,,13,,55,0
7559,note_on,,59,0,6,,,,,,,,,,,,,,,,2,,55,0
7559,note_on,,59,0,7,,,,,,,,,,,,,,,,5,,70,0
7559,note_on,,59,0,9,,,,,,,,,,,,,,,,7,,62,0
7559,note_on,,59,0,15,,,,,,,,,,,,,,,,15,,67,0
7559,note_on,,0,0,15,,,,,,,,,,,,,,,,15,,55,0
7559,note_on,,59,0,5,,,,,,,,,,,,,,,,1,,70,0
7560,note_on,,1,0,14,,,,,,,,,,,,,,,,13,,60,72
7560,note_on,,1,0,15,,,,,,,,,,,,,,,,15,,60,72
7560,note_on,,1,0,6,,,,,,,,,,,,,,,,2,,60,72
7560,note_on,,1,0,11,,,,,,,,,,,,,,,,10,,75,72
7560,note_on,,0,0,15,,,,,,,,,,,,,,,,15,,63,72
7560,note_on,,0,0,15,,,,,,,,,,,,,,,,15,,67,72
7560,note_on,,1,0,13,,,,,,,,,,,,,,,,12,,60,72
7560,note_on,,1,0,9,,,,,,,,,,,,,,,,7,,60,72
7560,note_on,,1,0,5,,,,,,,,,,,,,,,,1,,75,72
7560,note_on,,1,0,7,,,,,,,,,,,,,,,,5,,75,72
7560,note_on,,1,0,10,,,,,,,,,,,,,,,,8,,60,72
7619,note_on,,179,0,8,,,,,,,,,,,,,,,,6,,67,0
7619,note_on,,59,0,14,,,,,,,,,,,,,,,,13,,60,0
7619,note_on,,59,0,15,,,,,,,,,,,,,,,,15,,60,0
7619,note_on,,59,0,6,,,,,,,,,,,,,,,,2,,60,0
7619,note_on,,179,0,12,,,,,,,,,,,,,,,,11,,67,0
7619,note_on,,59,0,10,,,,,,,,,,,,,,,,8,,60,0
7620,note_on,,1,0,8,,,,,,,,,,,,,,,,6,,69,72
7620,note_on,,1,0,6,,,,,,,,,,,,,,,,2,,60,72
7620,note_on,,1,0,15,,,,,,,,,,,,,,,,15,,60,72
7620,note_on,,1,0,14,,,,,,,,,,,,,,,,13,,60,72
7620,note_on,,1,0,12,,,,,,,,,,,,,,,,11,,69,72
7620,note_on,,1,0,10,,,,,,,,,,,,,,,,8,,60,72
7649,note_on,,29,0,8,,,,,,,,,,,,,,,,6,,69,0
7649,note_on,,29,0,12,,,,,,,,,,,,,,,,11,,69,0
7650,note_on,,1,0,12,,,,,,,,,,,,,,,,11,,70,72
7650,note_on,,1,0,8,,,,,,,,,,,,,,,,6,,70,72
7679,note_on,,29,0,8,,,,,,,,,,,,,,,,6,,70,0
7679,note_on,,119,0,11,,,,,,,,,,,,,,,,10,,75,0
7679,note_on,,119,0,7,,,,,,,,,,,,,,,,5,,75,0
7679,note_on,,119,0,5,,,,,,,,,,,,,,,,1,,75,0
7679,note_on,,29,0,12,,,,,,,,,,,,,,,,11,,70,0
7679,note_on,,59,0,6,,,,,,,,,,,,,,,,2,,60,0
7679,note_on,,0,0,15,,,,,,,,,,,,,,,,15,,63,0
7679,note_on,,59,0,15,,,,,,,,,,,,,,,,15,,67,0
7679,note_on,,59,0,14,,,,,,,,,,,,,,,,13,,60,0
7679,note_on,,59,0,10,,,,,,,,,,,,,,,,8,,60,0
7680,note_on,,1,0,8,,,,,,,,,,,,,,,,6,,69,72
7680,note_on,,0,0,15,,,,,,,,,,,,,,,,15,,63,72
7680,note_on,,1,0,6,,,,,,,,,,,,,,,,2,,53,72
7680,note_on,,1,0,10,,,,,,,,,,,,,,,,8,,53,72
7680,note_on,,1,0,15,,,,,,,,,,,,,,,,15,,53,72
7680,note_on,,1,0,12,,,,,,,,,,,,,,,,11,,69,72
7680,note_on,,0,0,15,,,,,,,,,,,,,,,,15,,69,72
7680,note_on,,1,0,14,,,,,,,,,,,,,,,,13,,53,72
7739,note_on,,59,0,10,,,,,,,,,,,,,,,,8,,53,0
7739,note_on,,179,0,13,,,,,,,,,,,,,,,,12,,60,0
7739,note_on,,179,0,9,,,,,,,,,,,,,,,,7,,60,0
7739,note_on,,59,0,14,,,,,,,,,,,,,,,,13,,53,0
7739,note_on,,59,0,15,,,,,,,,,,,,,,,,15,,60,0
7739,note_on,,0,0,15,,,,,,,,,,,,,,,,15,,53,0
7739,note_on,,0,0,15,,,,,,,,,,,,,,,,15,,63,0
7739,note_on,,59,0,6,,,,,,,,,,,,,,,,2,,53,0
7740,note_on,,0,0,15,,,,,,,,,,,,,,,,15,,65,72
7740,note_on,,0,0,15,,,,,,,,,,,,,,,,15,,58,72
7740,note_on,,1,0,9,,,,,,,,,,,,,,,,7,,65,72
7740,note_on,,61,0,5,,,,,,,,,,,,,,,,1,,74,72
7740,note_on,,1,0,10,,,,,,,,,,,,,,,,8,,53,72
7740,note_on,,1,0,14,,,,,,,,,,,,,,,,13,,53,72
7740,note_on,,1,0,15,,,,,,,,,,,,,,,,15,,53,72
7740,note_on,,61,0,7,,,,,,,,,,,,,,,,5,,74,72
7740,note_on,,1,0,13,,,,,,,,,,,,,,,,12,,65,72
7740,note_on,,1,0,6,,,,,,,,,,,,,,,,2,,53,72
7740,note_on,,61,0,11,,,,,,,,,,,,,,,,10,,74,72
7769,note_on,,29,0,15,,,,,,,,,,,,,,,,15,,58,0
7770,note_on,,1,0,15,,,,,,,,,,,,,,,,15,,57,72
7799,note_on,,59,0,6,,,,,,,,,,,,,,,,2,,53,0
7799,note_on,,59,0,10,,,,,,,,,,,,,,,,8,,53,0
7799,note_on,,59,0,13,,,,,,,,,,,,,,,,12,,65,0
7799,note_on,,59,0,11,,,,,,,,,,,,,,,,10,,74,0
7799,note_on,,59,0,14,,,,,,,,,,,,,,,,13,,53,0
7799,note_on,,59,0,5,,,,,,,,,,,,,,,,1,,74,0
7799,note_on,,29,0,15,,,,,,,,,,,,,,,,15,,69,0
7799,note_on,,59,0,9,,,,,,,,,,,,,,,,7,,65,0
7799,note_on,,59,0,7,,,,,,,,,,,,,,,,5,,74,0
7799,note_on,,0,0,15,,,,,,,,,,,,,,,,15,,53,0
7799,note_on,,0,0,15,,,,,,,,,,,,,,,,15,,57,0
7800,note_on,,1,0,14,,,,,,,,,,,,,,,,13,,58,72
7800,note_on,,0,0,15,,,,,,,,,,,,,,,,15,,62,72
7800,note_on,,1,0,10,,,,,,,,,,,,,,,,8,,58,72
7800,note_on,,0,0,15,,,,,,,,,,,,,,,,15,,70,72
7800,note_on,,1,0,9,,,,,,,,,,,,,,,,7,,62,72
7800,note_on,,1,0,5,,,,,,,,,,,,,,,,1,,74,72
7800,note_on,,1,0,15,,,,,,,,,,,,,,,,15,,58,72
7800,note_on,,1,0,6,,,,,,,,,,,,,,,,2,,58,72
7800,note_on,,1,0,7,,,,,,,,,,,,,,,,5,,74,72
7800,note_on,,1,0,13,,,,,,,,,,,,,,,,12,,62,72
7800,note_on,,1,0,11,,,,,,,,,,,,,,,,10,,74,72
7859,note_on,,179,0,12,,,,,,,,,,,,,,,,11,,69,0
7859,note_on,,59,0,11,,,,,,,,,,,,,,,,10,,74,0
7859,note_on,,0,0,15,,,,,,,,,,,,,,,,15,,62,0
7859,note_on,,59,0,14,,,,,,,,,,,,,,,,13,,58,0
7859,note_on,,59,0,6,,,,,,,,,,,,,,,,2,,58,0
7859,note_on,,59,0,10,,,,,,,,,,,,,,,,8,,58,0
7859,note_on,,179,0,8,,,,,,,,,,,,,,,,6,,69,0
7859,note_on,,59,0,7,,,,,,,,,,,,,,,,5,,74,0
7859,note_on,,59,0,15,,,,,,,,,,,,,,,,15,,65,0
7859,note_on,,59,0,5,,,,,,,,,,,,,,,,1,,74,0
7859,note_on,,0,0,15,,,,,,,,,,,,,,,,15,,58,0
7860,note_on,,1,0,10,,,,,,,,,,,,,,,,8,,58,72
7860,note_on,,1,0,12,,,,,,,,,,,,,,,,11,,70,72
7860,note_on,,1,0,14,,,,,,,,,,,,,,,,13,,58,72
7860,note_on,,1,0,11,,,,,,,,,,,,,,,,10,,74,72
7860,note_on,,1,0,15,,,,,,,,,,,,,,,,15,,58,72
7860,note_on,,1,0,5,,,,,,,,,,,,,,,,1,,74,72
7860,note_on,,1,0,6,,,,,,,,,,,,,,,,2,,58,72
7860,note_on,,0,0,15,,,,,,,,,,,,,,,,15,,62,72
7860,note_on,,1,0,7,,,,,,,,,,,,,,,,5,,74,72
7860,note_on,,1,0,8,,,,,,,,,,,,,,,,6,,70,72
7860,note_on,,0,0,15,,,,,,,,,,,,,,,,15,,65,72
7889,note_on,,29,0,8,,,,,,,,,,,,,,,,6,,70,0
7889,note_on,,29,0,12,,,,,,,,,,,,,,,,11,,70,0
7890,note_on,,1,0,8,,,,,,,,,,,,,,,,6,,69,72
7890,note_on,,1,0,12,,,,,,,,,,,,,,,,11,,69,72
7919,note_on,,59,0,10,,,,,,,,,,,,,,,,8,,58,0
7919,note_on,,0,0,15,,,,,,,,,,,,,,,,15,,62,0
7919,note_on,,0,0,15,,,,,,,,,,,,,,,,15,,65,0
7919,note_on,,0,0,15,,,,,,,,,,,,,,,,15,,58,0
7919,note_on,,59,0,15,,,,,,,,,,,,,,,,15,,70,0
7919,note_on,,29,0,12,,,,,,,,,,,,,,,,11,,69,0
7919,note_on,,59,0,7,,,,,,,,,,,,,,,,5,,74,0
7919,note_on,,29,0,8,,,,,,,,,,,,,,,,6,,69,0
7919,note_on,,59,0,6,,,,,,,,,,,,,,,,2,,58,0
7919,note_on,,59,0,11,,,,,,,,,,,,,,,,10,,74,0
7919,note_on,,59,0,14,,,,,,,,,,,,,,,,13,,58,0
7919,note_on,,59,0,5,,,,,,,,,,,,,,,,1,,74,0
7920,note_on,,1,0,6,,,,,,,,,,,,,,,,2,,51,72
7920,note_on,,0,0,15,,,,,,,,,,,,,,,,15,,62,72
7920,note_on,,0,0,15,,,,,,,,,,,,,,,,15,,67,72
7920,note_on,,1,0,10,,,,,,,,,,,,,,,,8,,51,72
7920,note_on,,1,0,14,,,,,,,,,,,,,,,,13,,51,72
7920,note_on,,1,0,8,,,,,,,,,,,,,,,,6,,67,72
7920,note_on,,1,0,5,,,,,,,,,,,,,,,,1,,79,72
7920,note_on,,1,0,15,,,,,,,,,,,,,,,,15,,51,72
7920,note_on,,1,0,12,,,,,,,,,,,,,,,,11,,67,72
7920,note_on,,1,0,7,,,,,,,,,,,,,,,,5,,79,72
7920,note_on,,1,0,11,,,,,,,,,,,,,,,,10,,79,72
7979,note_on,,179,0,13,,,,,,,,,,,,,,,,12,,62,0
7979,note_on,,59,0,7,,,,,,,,,,,,,,,,5,,79,0
7979,note_on,,59,0,11,,,,,,,,,,,,,,,,10,,79,0
7979,note_on,,179,0,9,,,,,,,,,,,,,,,,7,,62,0
7979,note_on,,59,0,5,,,,,,,,,,,,,,,,1,,79,0
7980,note_on,,1,0,9,,,,,,,,,,,,,,,,7,,63,72
7980,note_on,,1,0,5,,,,,,,,,,,,,,,,1,,72,72
7980,note_on,,1,0,7,,,,,,,,,,,,,,,,5,,72,72
7980,note_on,,1,0,13,,,,,,,,,,,,,,,,12,,63,72
7980,note_on,,1,0,11,,,,,,,,,,,,,,,,10,,72,72
8009,note_on,,29,0,9,,,,,,,,,,,,,,,,7,,63,0
8009,note_on,,29,0,13,,,,,,,,,,,,,,,,12,,63,0
8010,note_on,,1,0,13,,,,,,,,,,,,,,,,12,,62,72
8010,note_on,,1,0,9,,,,,,,,,,,,,,,,7,,62,72
8039,note_on,,29,0,13,,,,,,,,,,,,,,,,12,,62,0
8039,note_on,,29,0,9,,,,,,,,,,,,,,,,7,,62,0
8039,note_on,,59,0,5,,,,,,,,,,,,,,,,1,,72,0
8039,note_on,,0,0,15,,,,,,,,,,,,,,,,15,,67,0
8039,note_on,,59,0,11,,,,,,,,,,,,,,,,10,,72,0
8039,note_on,,59,0,7,,,,,,,,,,,,,,,,5,,72,0
8039,note_on,,119,0,15,,,,,,,,,,,,,,,,15,,62,0
8040,note_on,,1,0,15,,,,,,,,,,,,,,,,15,,55,72
8040,note_on,,0,0,15,,,,,,,,,,,,,,,,15,,72,72
8040,note_on,,0,0,15,,,,,,,,,,,,,,,,15,,67,72
8040,note_on,,1,0,9,,,,,,,,,,,,,,,,7,,60,72
8040,note_on,,1,0,5,,,,,,,,,,,,,,,,1,,72,72
8040,note_on,,1,0,11,,,,,,,,,,,,,,,,10,,72,72
8040,note_on,,1,0,7,,,,,,,,,,,,,,,,5,,72,72
8040,note_on,,1,0,13,,,,,,,,,,,,,,,,12,,60,72
8099,note_on,,59,0,9,,,,,,,,,,,,,,,,7,,60,0
8099,note_on,,179,0,12,,,,,,,,,,,,,,,,11,,67,0
8099,note_on,,179,0,14,,,,,,,,,,,,,,,,13,,51,0
8099,note_on,,59,0,13,,,,,,,,,,,,,,,,12,,60,0
8099,note_on,,179,0,10,,,,,,,,,,,,,,,,8,,51,0
8099,note_on,,59,0,15,,,,,,,,,,,,,,,,15,,51,0
8099,note_on,,179,0,6,,,,,,,,,,,,,,,,2,,51,0
8099,note_on,,179,0,8,,,,,,,,,,,,,,,,6,,67,0
8100,note_on,,1,0,13,,,,,,,,,,,,,,,,12,,63,72
8100,note_on,,1,0,6,,,,,,,,,,,,,,,,2,,51,72
8100,note_on,,1,0,10,,,,,,,,,,,,,,,,8,,51,72
8100,note_on,,1,0,14,,,,,,,,,,,,,,,,13,,51,72
8100,note_on,,1,0,8,,,,,,,,,,,,,,,,6,,69,72
8100,note_on,,1,0,12,,,,,,,,,,,,,,,,11,,69,72
8100,note_on,,1,0,15,,,,,,,,,,,,,,,,15,,51,72
8100,note_on,,1,0,9,,,,,,,,,,,,,,,,7,,63,72
8129,note_on,,29,0,8,,,,,,,,,,,,,,,,6,,69,0
8129,note_on,,29,0,12,,,,,,,,,,,,,,,,11,,69,0
8130,note_on,,1,0,12,,,,,,,,,,,,,,,,11,,67,72
8130,note_on,,1,0,8,,,,,,,,,,,,,,,,6,,67,72
8159,note_on,,0,0,15,,,,,,,,,,,,,,,,15,,67,0
8159,note_on,,59,0,10,,,,,,,,,,,,,,,,8,,51,0
8159,note_on,,59,0,13,,,,,,,,,,,,,,,,12,,63,0
8159,note_on,,119,0,5,,,,,,,,,,,,,,,,1,,72,0
8159,note_on,,119,0,11,,,,,,,,,,,,,,,,10,,72,0
8159,note_on,,119,0,7,,,,,,,,,,,,,,,,5,,72,0
8159,note_on,,59,0,9,,,,,,,,,,,,,,,,7,,63,0
8159,note_on,,59,0,15,,,,,,,,,,,,,,,,15,,55,0
8159,note_on,,29,0,12,,,,,,,,,,,,,,,,11,,67,0
8159,note_on,,59,0,14,,,,,,,,,,,,,,,,13,,51,0
8159,note_on,,0,0,15,,,,,,,,,,,,,,,,15,,51,0
8159,note_on,,59,0,6,,,,,,,,,,,,,,,,2,,51,0
8159,note_on,,29,0,8,,,,,,,,,,,,,,,,6,,67,0
8160,note_on,,0,0,15,,,,,,,,,,,,,,,,15,,66,72
8160,note_on,,1,0,6,,,,,,,,,,,,,,,,2,,50,72
8160,note_on,,1,0,12,,,,,,,,,,,,,,,,11,,66,72
8160,note_on,,1,0,15,,,,,,,,,,,,,,,,15,,50,72
8160,note_on,,0,0,15,,,,,,,,,,,,,,,,15,,56,72
8160,note_on,,1,0,8,,,,,,,,,,,,,,,,6,,66,72
8160,note_on,,1,0,14,,,,,,,,,,,,,,,,13,,50,72
8160,note_on,,1,0,9,,,,,,,,,,,,,,,,7,,56,72
8160,note_on,,1,0,10,,,,,,,,,,,,,,,,8,,50,72
8160,note_on,,1,0,13,,,,,,,,,,,,,,,,12,,56,72
8220,note_on,,61,0,11,,,,,,,,,,,,,,,,10,,75,72
8220,note_on,,61,0,5,,,,,,,,,,,,,,,,1,,75,72
8220,note_on,,61,0,7,,,,,,,,,,,,,,,,5,,75,72
8279,note_on,,119,0,8,,,,,,,,,,,,,,,,6,,66,0
8279,note_on,,59,0,7,,,,,,,,,,,,,,,,5,,75,0
8279,note_on,,119,0,9,,,,,,,,,,,,,,,,7,,56,0
8279,note_on,,59,0,5,,,,,,,,,,,,,,,,1,,75,0
8279,note_on,,119,0,13,,,,,,,,,,,,,,,,12,,56,0
8279,note_on,,119,0,12,,,,,,,,,,,,,,,,11,,66,0
8279,note_on,,119,0,15,,,,,,,,,,,,,,,,15,,72,0
8279,note_on,,0,0,15,,,,,,,,,,,,,,,,15,,66,0
8279,note_on,,59,0,11,,,,,,,,,,,,,,,,10,,75,0
8279,note_on,,0,0,15,,,,,,,,,,,,,,,,15,,56,0
8280,note_on,,1,0,7,,,,,,,,,,,,,,,,5,,74,72
8280,note_on,,1,0,5,,,,,,,,,,,,,,,,1,,74,72
8280,note_on,,1,0,11,,,,,,,,,,,,,,,,10,,74,72
8280,note_on,,1,0,9,,,,,,,,,,,,,,,,7,,58,72
8280,note_on,,1,0,13,,,,,,,,,,,,,,,,12,,58,72
8280,note_on,,0,0,15,,,,,,,,,,,,,,,,15,,67,72
8280,note_on,,0,0,15,,,,,,,,,,,,,,,,15,,70,72
8280,note_on,,1,0,15,,,,,,,,,,,,,,,,15,,58,72
8280,note_on,,1,0,8,,,,,,,,,,,,,,,,6,,67,72
8280,note_on,,1,0,12,,,,,,,,,,,,,,,,11,,67,72
8280,note_on,,0,0,15,,,,,,,,,,,,,,,,15,,62,72
8339,note_on,,59,0,9,,,,,,,,,,,,,,,,7,,58,0
8339,note_on,,59,0,15,,,,,,,,,,,,,,,,15,,58,0
8339,note_on,,0,0,15,,,,,,,,,,,,,,,,15,,67,0
8339,note_on,,59,0,7,,,,,,,,,,,,,,,,5,,74,0
8339,note_on,,59,0,11,,,,,,,,,,,,,,,,10,,74,0
8339,note_on,,59,0,13,,,,,,,,,,,,,,,,12,,58,0
8339,note_on,,59,0,5,,,,,,,,,,,,,,,,1,,74,0
8340,note_on,,1,0,11,,,,,,,,,,,,,,,,10,,72,72
8340,note_on,,1,0,7,,,,,,,,,,,,,,,,5,,72,72
8340,note_on,,1,0,13,,,,,,,,,,,,,,,,12,,60,72
8340,note_on,,0,0,15,,,,,,,,,,,,,,,,15,,69,72
8340,note_on,,1,0,9,,,,,,,,,,,,,,,,7,,60,72
8340,note_on,,1,0,5,,,,,,,,,,,,,,,,1,,72,72
8340,note_on,,1,0,15,,,,,,,,,,,,,,,,15,,60,72
8399,note_on,,59,0,13,,,,,,,,,,,,,,,,12,,60,0
8399,note_on,,59,0,9,,,,,,,,,,,,,,,,7,,60,0
8399,note_on,,59,0,11,,,,,,,,,,,,,,,,10,,72,0
8399,note_on,,239,0,10,,,,,,,,,,,,,,,,8,,50,0
8399,note_on,,0,0,15,,,,,,,,,,,,,,,,15,,69,0
8399,note_on,,0,0,15,,,,,,,,,,,,,,,,15,,60,0
8399,note_on,,0,0,15,,,,,,,,,,,,,,,,15,,62,0
8399,note_on,,59,0,15,,,,,,,,,,,,,,,,15,,70,0
8399,note_on,,59,0,5,,,,,,,,,,,,,,,,1,,72,0
8399,note_on,,59,0,7,,,,,,,,,,,,,,,,5,,72,0
8400,note_on,,1,0,5,,,,,,,,,,,,,,,,1,,70,72
8400,note_on,,1,0,11,,,,,,,,,,,,,,,,10,,70,72
8400,note_on,,1,0,15,,,,,,,,,,,,,,,,15,,70,72
8400,note_on,,1,0,7,,,,,,,,,,,,,,,,5,,70,72
8400,note_on,,1,0,9,,,,,,,,,,,,,,,,7,,62,72
8400,note_on,,1,0,13,,,,,,,,,,,,,,,,12,,62,72
8400,note_on,,0,0,15,,,,,,,,,,,,,,,,15,,67,72
8400,note_on,,0,0,15,,,,,,,,,,,,,,,,15,,62,72
8459,note_on,,299,0,6,,,,,,,,,,,,,,,,2,,50,0
8459,note_on,,299,0,14,,,,,,,,,,,,,,,,13,,50,0
8459,note_on,,59,0,15,,,,,,,,,,,,,,,,15,,50,0
8460,note_on,,1,0,6,,,,,,,,,,,,,,,,2,,50,72
8460,note_on,,1,0,14,,,,,,,,,,,,,,,,13,,50,72
8460,note_on,,1,0,15,,,,,,,,,,,,,,,,15,,50,72
8519,note_on,,119,0,7,,,,,,,,,,,,,,,,5,,70,0
8519,note_on,,59,0,14,,,,,,,,,,,,,,,,13,,50,0
8519,note_on,,119,0,5,,,,,,,,,,,,,,,,1,,70,0
8519,note_on,,0,0,15,,,,,,,,,,,,,,,,15,,50,0
8519,note_on,,59,0,6,,,,,,,,,,,,,,,,2,,50,0
8519,note_on,,0,0,15,,,,,,,,,,,,,,,,15,,62,0
8519,note_on,,0,0,15,,,,,,,,,,,,,,,,15,,67,0
8519,note_on,,119,0,11,,,,,,,,,,,,,,,,10,,70,0
8519,note_on,,59,0,15,,,,,,,,,,,,,,,,15,,70,0
8519,note_on,,239,0,12,,,,,,,,,,,,,,,,11,,67,0
8519,note_on,,239,0,8,,,,,,,,,,,,,,,,6,,67,0
8520,note_on,,0,0,15,,,,,,,,,,,,,,,,15,,65,72
8520,note_on,,0,0,15,,,,,,,,,,,,,,,,15,,69,72
8520,note_on,,1,0,15,,,,,,,,,,,,,,,,15,,62,72
8520,note_on,,1,0,8,,,,,,,,,,,,,,,,6,,66,72
8520,note_on,,1,0,12,,,,,,,,,,,,,,,,11,,66,72
8520,note_on,,1,0,6,,,,,,,,,,,,,,,,2,,62,72
8520,note_on,,1,0,14,,,,,,,,,,,,,,,,13,,62,72
8520,note_on,,1,0,11,,,,,,,,,,,,,,,,10,,69,72
8520,note_on,,121,0,10,,,,,,,,,,,,,,,,8,,62,64
8520,note_on,,1,0,5,,,,,,,,,,,,,,,,1,,69,72
8520,note_on,,1,0,7,,,,,,,,,,,,,,,,5,,69,72
8579,note_on,,59,0,6,,,,,,,,,,,,,,,,2,,62,0
8579,note_on,,59,0,15,,,,,,,,,,,,,,,,15,,62,0
8579,note_on,,59,0,14,,,,,,,,,,,,,,,,13,,62,0
8579,note_on,,59,0,10,,,,,,,,,,,,,,,,8,,62,0
8580,note_on,,1,0,6,,,,,,,,,,,,,,,,2,,60,72
8580,note_on,,1,0,15,,,,,,,,,,,,,,,,15,,60,72
8580,note_on,,1,0,10,,,,,,,,,,,,,,,,8,,60,64
8580,note_on,,1,0,14,,,,,,,,,,,,,,,,13,,60,72
8639,note_on,,0,0,15,,,,,,,,,,,,,,,,15,,60,0
8639,note_on,,0,0,15,,,,,,,,,,,,,,,,15,,65,0
8639,note_on,,59,0,15,,,,,,,,,,,,,,,,15,,69,0
8639,note_on,,119,0,7,,,,,,,,,,,,,,,,5,,69,0
8639,note_on,,239,0,9,,,,,,,,,,,,,,,,7,,62,0
8639,note_on,,119,0,8,,,,,,,,,,,,,,,,6,,66,0
8639,note_on,,239,0,13,,,,,,,,,,,,,,,,12,,62,0
8639,note_on,,119,0,5,,,,,,,,,,,,,,,,1,,69,0
8639,note_on,,59,0,14,,,,,,,,,,,,,,,,13,,60,0
8639,note_on,,119,0,11,,,,,,,,,,,,,,,,10,,69,0
8639,note_on,,59,0,6,,,,,,,,,,,,,,,,2,,60,0
8639,note_on,,59,0,10,,,,,,,,,,,,,,,,8,,60,0
8639,note_on,,119,0,12,,,,,,,,,,,,,,,,11,,66,0
8640,note_on,,0,0,15,,,,,,,,,,,,,,,,15,,62,72
8640,note_on,,1,0,7,,,,,,,,,,,,,,,,5,,67,72
8640,note_on,,1,0,11,,,,,,,,,,,,,,,,10,,67,72
8640,note_on,,1,0,14,,,,,,,,,,,,,,,,13,,59,72
8640,note_on,,1,0,5,,,,,,,,,,,,,,,,1,,67,72
8640,note_on,,1,0,10,,,,,,,,,,,,,,,,8,,59,64
8640,note_on,,0,0,15,,,,,,,,,,,,,,,,15,,67,72
8640,note_on,,0,0,15,,,,,,,,,,,,,,,,15,,74,72
8640,note_on,,1,0,8,,,,,,,,,,,,,,,,6,,67,72
8640,note_on,,1,0,15,,,,,,,,,,,,,,,,15,,59,72
8640,note_on,,1,0,6,,,,,,,,,,,,,,,,2,,59,72
8640,note_on,,1,0,12,,,,,,,,,,,,,,,,11,,67,72
8699,note_on,,59,0,15,,,,,,,,,,,,,,,,15,,67,0
8700,note_on,,1,0,15,,,,,,,,,,,,,,,,15,,62,72
8700,note_on,,61,0,9,,,,,,,,,,,,,,,,7,,62,64
8700,note_on,,61,0,13,,,,,,,,,,,,,,,,12,,62,64
8729,note_on,,89,0,10,,,,,,,,,,,,,,,,8,,59,0
8729,note_on,,29,0,15,,,,,,,,,,,,,,,,15,,59,0
8729,note_on,,89,0,14,,,,,,,,,,,,,,,,13,,59,0
8729,note_on,,89,0,6,,,,,,,,,,,,,,,,2,,59,0
8729,note_on,,0,0,15,,,,,,,,,,,,,,,,15,,62,0
8730,note_on,,1,0,15,,,,,,,,,,,,,,,,15,,57,72
8730,note_on,,0,0,15,,,,,,,,,,,,,,,,15,,60,72
8730,note_on,,1,0,14,,,,,,,,,,,,,,,,13,,57,72
8730,note_on,,1,0,6,,,,,,,,,,,,,,,,2,,57,72
8730,note_on,,1,0,10,,,,,,,,,,,,,,,,8,,57,64
8759,note_on,,59,0,13,,,,,,,,,,,,,,,,12,,62,0
8759,note_on,,119,0,8,,,,,,,,,,,,,,,,6,,67,0
8759,note_on,,119,0,12,,,,,,,,,,,,,,,,11,,67,0
8759,note_on,,29,0,15,,,,,,,,,,,,,,,,15,,62,0
8759,note_on,,0,0,15,,,,,,,,,,,,,,,,15,,57,0
8759,note_on,,29,0,14,,,,,,,,,,,,,,,,13,,57,0
8759,note_on,,59,0,9,,,,,,,,,,,,,,,,7,,62,0
8759,note_on,,29,0,6,,,,,,,,,,,,,,,,2,,57,0
8759,note_on,,119,0,7,,,,,,,,,,,,,,,,5,,67,0
8759,note_on,,119,0,11,,,,,,,,,,,,,,,,10,,67,0
8759,note_on,,0,0,15,,,,,,,,,,,,,,,,15,,60,0
8759,note_on,,29,0,10,,,,,,,,,,,,,,,,8,,57,0
8759,note_on,,119,0,5,,,,,,,,,,,,,,,,1,,67,0
8760,note_on,,1,0,9,,,,,,,,,,,,,,,,7,,67,64
8760,note_on,,1,0,13,,,,,,,,,,,,,,,,12,,67,64
8760,note_on,,1,0,6,,,,,,,,,,,,,,,,2,,55,72
8760,note_on,,1,0,14,,,,,,,,,,,,,,,,13,,55,72
8760,note_on,,0,0,15,,,,,,,,,,,,,,,,15,,58,72
8760,note_on,,0,0,15,,,,,,,,,,,,,,,,15,,67,72
8760,note_on,,1,0,15,,,,,,,,,,,,,,,,15,,55,72
8760,note_on,,1,0,10,,,,,,,,,,,,,,,,8,,55,64
8819,note_on,,59,0,15,,,,,,,,,,,,,,,,15,,67,0
8819,note_on,,59,0,9,,,,,,,,,,,,,,,,7,,67,0
8819,note_on,,59,0,13,,,,,,,,,,,,,,,,12,,67,0
8820,note_on,,1,0,13,,,,,,,,,,,,,,,,12,,65,64
8820,note_on,,1,0,9,,,,,,,,,,,,,,,,7,,65,64
8820,note_on,,1,0,15,,,,,,,,,,,,,,,,15,,65,72
8849,note_on,,29,0,15,,,,,,,,,,,,,,,,15,,55,0
8849,note_on,,89,0,6,,,,,,,,,,,,,,,,2,,55,0
8849,note_on,,0,0,15,,,,,,,,,,,,,,,,15,,58,0
8849,note_on,,89,0,14,,,,,,,,,,,,,,,,13,,55,0
8850,note_on,,1,0,6,,,,,,,,,,,,,,,,2,,59,72
8850,note_on,,1,0,15,,,,,,,,,,,,,,,,15,,59,72
8850,note_on,,1,0,14,,,,,,,,,,,,,,,,13,,59,72
8879,note_on,,0,0,15,,,,,,,,,,,,,,,,15,,59,0
8879,note_on,,29,0,15,,,,,,,,,,,,,,,,15,,74,0
8879,note_on,,29,0,14,,,,,,,,,,,,,,,,13,,59,0
8879,note_on,,59,0,9,,,,,,,,,,,,,,,,7,,65,0
8879,note_on,,59,0,13,,,,,,,,,,,,,,,,12,,65,0
8879,note_on,,29,0,6,,,,,,,,,,,,,,,,2,,59,0
8879,note_on,,0,0,15,,,,,,,,,,,,,,,,15,,65,0
8879,note_on,,119,0,10,,,,,,,,,,,,,,,,8,,55,0
8880,note_on,,1,0,14,,,,,,,,,,,,,,,,13,,60,72
8880,note_on,,1,0,9,,,,,,,,,,,,,,,,7,,64,64
8880,note_on,,1,0,6,,,,,,,,,,,,,,,,2,,60,72
8880,note_on,,0,0,15,,,,,,,,,,,,,,,,15,,64,72
8880,note_on,,0,0,15,,,,,,,,,,,,,,,,15,,67,72
8880,note_on,,1,0,15,,,,,,,,,,,,,,,,15,,60,72
8880,note_on,,1,0,13,,,,,,,,,,,,,,,,12,,64,64
8939,note_on,,59,0,15,,,,,,,,,,,,,,,,15,,60,0
8939,note_on,,59,0,6,,,,,,,,,,,,,,,,2,,60,0
8939,note_on,,59,0,14,,,,,,,,,,,,,,,,13,,60,0
8940,note_on,,1,0,14,,,,,,,,,,,,,,,,13,,55,72
8940,note_on,,61,0,10,,,,,,,,,,,,,,,,8,,55,64
8940,note_on,,1,0,15,,,,,,,,,,,,,,,,15,,55,72
8940,note_on,,1,0,6,,,,,,,,,,,,,,,,2,,55,72
8969,note_on,,89,0,9,,,,,,,,,,,,,,,,7,,64,0
8969,note_on,,29,0,15,,,,,,,,,,,,,,,,15,,64,0
8969,note_on,,89,0,13,,,,,,,,,,,,,,,,12,,64,0
8970,note_on,,1,0,13,,,,,,,,,,,,,,,,12,,62,64
8970,note_on,,0,0,15,,,,,,,,,,,,,,,,15,,65,72
8970,note_on,,1,0,15,,,,,,,,,,,,,,,,15,,62,72
8970,note_on,,1,0,9,,,,,,,,,,,,,,,,7,,62,64
8999,note_on,,59,0,10,,,,,,,,,,,,,,,,8,,55,0
8999,note_on,,29,0,9,,,,,,,,,,,,,,,,7,,62,0
8999,note_on,,59,0,6,,,,,,,,,,,,,,,,2,,55,0
8999,note_on,,59,0,14,,,,,,,,,,,,,,,,13,,55,0
8999,note_on,,29,0,15,,,,,,,,,,,,,,,,15,,55,0
8999,note_on,,0,0,15,,,,,,,,,,,,,,,,15,,62,0
8999,note_on,,0,0,15,,,,,,,,,,,,,,,,15,,65,0
8999,note_on,,29,0,13,,,,,,,,,,,,,,,,12,,62,0
9000,note_on,,1,0,10,,,,,,,,,,,,,,,,8,,60,64
9000,note_on,,1,0,13,,,,,,,,,,,,,,,,12,,60,64
9000,note_on,,1,0,15,,,,,,,,,,,,,,,,15,,60,72
9000,note_on,,1,0,9,,,,,,,,,,,,,,,,7,,60,64
9000,note_on,,0,0,15,,,,,,,,,,,,,,,,15,,64,72
9000,note_on,,1,0,6,,,,,,,,,,,,,,,,2,,60,72
9000,note_on,,1,0,14,,,,,,,,,,,,,,,,13,,60,72
9059,note_on,,59,0,6,,,,,,,,,,,,,,,,2,,60,0
9059,note_on,,0,0,15,,,,,,,,,,,,,,,,15,,64,0
9059,note_on,,0,0,15,,,,,,,,,,,,,,,,15,,60,0
9059,note_on,,59,0,15,,,,,,,,,,,,,,,,15,,67,0
9059,note_on,,59,0,10,,,,,,,,,,,,,,,,8,,60,0
9059,note_on,,59,0,14,,,,,,,,,,,,,,,,13,,60,0
9060,note_on,,1,0,6,,,,,,,,,,,,,,,,2,,58,72
9060,note_on,,1,0,10,,,,,,,,,,,,,,,,8,,58,64
9060,note_on,,0,0,15,,,,,,,,,,,,,,,,15,,75,72
9060,note_on,,0,0,15,,,,,,,,,,,,,,,,15,,72,72
9060,note_on,,1,0,14,,,,,,,,,,,,,,,,13,,58,72
9060,note_on,,1,0,15,,,,,,,,,,,,,,,,15,,58,72
9060,note_on,,0,0,15,,,,,,,,,,,,,,,,15,,67,72
9119,note_on,,59,0,14,,,,,,,,,,,,,,,,13,,58,0
9119,note_on,,59,0,10,,,,,,,,,,,,,,,,8,,58,0
9119,note_on,,0,0,15,,,,,,,,,,,,,,,,15,,72,0
9119,note_on,,0,0,15,,,,,,,,,,,,,,,,15,,75,0
9119,note_on,,0,0,15,,,,,,,,,,,,,,,,15,,67,0
9119,note_on,,59,0,15,,,,,,,,,,,,,,,,15,,58,0
9119,note_on,,119,0,9,,,,,,,,,,,,,,,,7,,60,0
9119,note_on,,119,0,13,,,,,,,,,,,,,,,,12,,60,0
9119,note_on,,59,0,6,,,,,,,,,,,,,,,,2,,58,0
9120,note_on,,1,0,10,,,,,,,,,,,,,,,,8,,56,64
9120,note_on,,1,0,15,,,,,,,,,,,,,,,,15,,56,72
9120,note_on,,0,0,15,,,,,,,,,,,,,,,,15,,77,72
9120,note_on,,0,0,15,,,,,,,,,,,,,,,,15,,65,72
9120,note_on,,0,0,15,,,,,,,,,,,,,,,,15,,72,72
9120,note_on,,1,0,14,,,,,,,,,,,,,,,,13,,56,72
9120,note_on,,1,0,6,,,,,,,,,,,,,,,,2,,56,72
9180,note_on,,421,0,5,,,,,,,,,,,,,,,,1,,72,64
9180,note_on,,421,0,11,,,,,,,,,,,,,,,,10,,72,64
9180,note_on,,421,0,7,,,,,,,,,,,,,,,,5,,72,64
9209,note_on,,89,0,10,,,,,,,,,,,,,,,,8,,56,0
9209,note_on,,89,0,14,,,,,,,,,,,,,,,,13,,56,0
9209,note_on,,0,0,15,,,,,,,,,,,,,,,,15,,72,0
9209,note_on,,89,0,15,,,,,,,,,,,,,,,,15,,56,0
9209,note_on,,89,0,6,,,,,,,,,,,,,,,,2,,56,0
9210,note_on,,1,0,6,,,,,,,,,,,,,,,,2,,55,72
9210,note_on,,1,0,10,,,,,,,,,,,,,,,,8,,55,64
9210,note_on,,1,0,15,,,,,,,,,,,,,,,,15,,55,72
9210,note_on,,0,0,15,,,,,,,,,,,,,,,,15,,70,72
9210,note_on,,1,0,14,,,,,,,,,,,,,,,,13,,55,72
9239,note_on,,29,0,10,,,,,,,,,,,,,,,,8,,55,0
9239,note_on,,29,0,6,,,,,,,,,,,,,,,,2,,55,0
9239,note_on,,59,0,7,,,,,,,,,,,,,,,,5,,72,0
9239,note_on,,0,0,15,,,,,,,,,,,,,,,,15,,70,0
9239,note_on,,0,0,15,,,,,,,,,,,,,,,,15,,55,0
9239,note_on,,0,0,15,,,,,,,,,,,,,,,,15,,65,0
9239,note_on,,59,0,11,,,,,,,,,,,,,,,,10,,72,0
9239,note_on,,59,0,5,,,,,,,,,,,,,,,,1,,72,0
9239,note_on,,29,0,14,,,,,,,,,,,,,,,,13,,55,0
9239,note_on,,29,0,15,,,,,,,,,,,,,,,,15,,77,0
9240,note_on,,1,0,11,,,,,,,,,,,,,,,,10,,77,64
9240,note_on,,1,0,5,,,,,,,,,,,,,,,,1,,77,64
9240,note_on,,1,0,14,,,,,,,,,,,,,,,,13,,53,72
9240,note_on,,1,0,15,,,,,,,,,,,,,,,,15,,53,72
9240,note_on,,0,0,15,,,,,,,,,,,,,,,,15,,72,72
9240,note_on,,1,0,7,,,,,,,,,,,,,,,,5,,77,64
9240,note_on,,0,0,15,,,,,,,,,,,,,,,,15,,68,72
9240,note_on,,1,0,6,,,,,,,,,,,,,,,,2,,53,72
9240,note_on,,1,0,10,,,,,,,,,,,,,,,,8,,53,64
9240,note_on,,0,0,15,,,,,,,,,,,,,,,,15,,65,72
9299,note_on,,59,0,11,,,,,,,,,,,,,,,,10,,77,0
9299,note_on,,0,0,15,,,,,,,,,,,,,,,,15,,72,0
9299,note_on,,59,0,6,,,,,,,,,,,,,,,,2,,53,0
9299,note_on,,59,0,5,,,,,,,,,,,,,,,,1,,77,0
9299,note_on,,59,0,15,,,,,,,,,,,,,,,,15,,53,0
9299,note_on,,0,0,15,,,,,,,,,,,,,,,,15,,65,0
9299,note_on,,59,0,14,,,,,,,,,,,,,,,,13,,53,0
9299,note_on,,59,0,7,,,,,,,,,,,,,,,,5,,77,0
9299,note_on,,0,0,15,,,,,,,,,,,,,,,,15,,68,0
9300,note_on,,1,0,7,,,,,,,,,,,,,,,,5,,75,64
9300,note_on,,1,0,15,,,,,,,,,,,,,,,,15,,56,72
9300,note_on,,0,0,15,,,,,,,,,,,,,,,,15,,77,72
9300,note_on,,0,0,15,,,,,,,,,,,,,,,,15,,72,72
9300,note_on,,1,0,11,,,,,,,,,,,,,,,,10,,75,64
9300,note_on,,1,0,5,,,,,,,,,,,,,,,,1,,75,64
9300,note_on,,1,0,6,,,,,,,,,,,,,,,,2,,56,72
9300,note_on,,1,0,14,,,,,,,,,,,,,,,,13,,56,72
9300,note_on,,0,0,15,,,,,,,,,,,,,,,,15,,65,72
9359,note_on,,59,0,15,,,,,,,,,,,,,,,,15,,56,0
9359,note_on,,0,0,15,,,,,,,,,,,,,,,,15,,77,0
9359,note_on,,0,0,15,,,,,,,,,,,,,,,,15,,72,0
9359,note_on,,0,0,15,,,,,,,,,,,,,,,,15,,65,0
9359,note_on,,59,0,7,,,,,,,,,,,,,,,,5,,75,0
9359,note_on,,59,0,11,,,,,,,,,,,,,,,,10,,75,0
9359,note_on,,119,0,10,,,,,,,,,,,,,,,,8,,53,0
9359,note_on,,59,0,14,,,,,,,,,,,,,,,,13,,56,0
9359,note_on,,59,0,6,,,,,,,,,,,,,,,,2,,56,0
9359,note_on,,59,0,5,,,,,,,,,,,,,,,,1,,75,0
9360,note_on,,1,0,14,,,,,,,,,,,,,,,,13,,58,72
9360,note_on,,1,0,11,,,,,,,,,,,,,,,,10,,74,64
9360,note_on,,0,0,15,,,,,,,,,,,,,,,,15,,65,72
9360,note_on,,0,0,15,,,,,,,,,,,,,,,,15,,70,72
9360,note_on,,0,0,15,,,,,,,,,,,,,,,,15,,74,72
9360,note_on,,0,0,15,,,,,,,,,,,,,,,,15,,77,72
9360,note_on,,1,0,15,,,,,,,,,,,,,,,,15,,58,72
9360,note_on,,1,0,5,,,,,,,,,,,,,,,,1,,74,64
9360,note_on,,1,0,7,,,,,,,,,,,,,,,,5,,74,64
9360,note_on,,1,0,6,,,,,,,,,,,,,,,,2,,58,72
9420,note_on,,661,0,12,,,,,,,,,,,,,,,,11,,65,64
9420,note_on,,661,0,8,,,,,,,,,,,,,,,,6,,65,64
9449,note_on,,89,0,7,,,,,,,,,,,,,,,,5,,74,0
9449,note_on,,89,0,11,,,,,,,,,,,,,,,,10,,74,0
9449,note_on,,89,0,5,,,,,,,,,,,,,,,,1,,74,0
9450,note_on,,1,0,11,,,,,,,,,,,,,,,,10,,72,64
9450,note_on,,1,0,5,,,,,,,,,,,,,,,,1,,72,64
9450,note_on,,1,0,7,,,,,,,,,,,,,,,,5,,72,64
9479,note_on,,0,0,15,,,,,,,,,,,,,,,,15,,65,0
9479,note_on,,59,0,12,,,,,,,,,,,,,,,,11,,65,0
9479,note_on,,0,0,15,,,,,,,,,,,,,,,,15,,70,0
9479,note_on,,29,0,7,,,,,,,,,,,,,,,,5,,72,0
9479,note_on,,0,0,15,,,,,,,,,,,,,,,,15,,74,0
9479,note_on,,119,0,15,,,,,,,,,,,,,,,,15,,58,0
9479,note_on,,59,0,8,,,,,,,,,,,,,,,,6,,65,0
9479,note_on,,29,0,5,,,,,,,,,,,,,,,,1,,72,0
9479,note_on,,119,0,6,,,,,,,,,,,,,,,,2,,58,0
9479,note_on,,119,0,14,,,,,,,,,,,,,,,,13,,58,0
9479,note_on,,29,0,11,,,,,,,,,,,,,,,,10,,72,0
9480,note_on,,0,0,15,,,,,,,,,,,,,,,,15,,70,72
9480,note_on,,1,0,5,,,,,,,,,,,,,,,,1,,70,64
9480,note_on,,1,0,6,,,,,,,,,,,,,,,,2,,50,72
9480,note_on,,1,0,14,,,,,,,,,,,,,,,,13,,50,72
9480,note_on,,1,0,7,,,,,,,,,,,,,,,,5,,70,64
9480,note_on,,1,0,15,,,,,,,,,,,,,,,,15,,50,72
9480,note_on,,0,0,15,,,,,,,,,,,,,,,,15,,65,72
9480,note_on,,1,0,12,,,,,,,,,,,,,,,,11,,70,64
9480,note_on,,1,0,11,,,,,,,,,,,,,,,,10,,70,64
9480,note_on,,1,0,8,,,,,,,,,,,,,,,,6,,70,64
9539,note_on,,59,0,12,,,,,,,,,,,,,,,,11,,70,0
9539,note_on,,59,0,8,,,,,,,,,,,,,,,,6,,70,0
9540,note_on,,421,0,9,,,,,,,,,,,,,,,,7,,58,64
9540,note_on,,421,0,13,,,,,,,,,,,,,,,,12,,58,64
9540,note_on,,1,0,12,,,,,,,,,,,,,,,,11,,68,64
9540,note_on,,1,0,8,,,,,,,,,,,,,,,,6,,68,64
9599,note_on,,59,0,12,,,,,,,,,,,,,,,,11,,68,0
9599,note_on,,119,0,11,,,,,,,,,,,,,,,,10,,70,0
9599,note_on,,119,0,15,,,,,,,,,,,,,,,,15,,77,0
9599,note_on,,119,0,5,,,,,,,,,,,,,,,,1,,70,0
9599,note_on,,119,0,6,,,,,,,,,,,,,,,,2,,50,0
9599,note_on,,119,0,14,,,,,,,,,,,,,,,,13,,50,0
9599,note_on,,59,0,9,,,,,,,,,,,,,,,,7,,58,0
9599,note_on,,0,0,15,,,,,,,,,,,,,,,,15,,50,0
9599,note_on,,59,0,8,,,,,,,,,,,,,,,,6,,68,0
9599,note_on,,59,0,13,,,,,,,,,,,,,,,,12,,58,0
9599,note_on,,0,0,15,,,,,,,,,,,,,,,,15,,70,0
9599,note_on,,0,0,15,,,,,,,,,,,,,,,,15,,65,0
9599,note_on,,119,0,7,,,,,,,,,,,,,,,,5,,70,0
9600,note_on,,1,0,6,,,,,,,,,,,,,,,,2,,51,72
9600,note_on,,1,0,12,,,,,,,,,,,,,,,,11,,67,64
9600,note_on,,1,0,15,,,,,,,,,,,,,,,,15,,51,72
9600,note_on,,1,0,13,,,,,,,,,,,,,,,,12,,63,64
9600,note_on,,1,0,9,,,,,,,,,,,,,,,,7,,63,64
9600,note_on,,1,0,14,,,,,,,,,,,,,,,,13,,51,72
9600,note_on,,1,0,8,,,,,,,,,,,,,,,,6,,67,64
9600,note_on,,0,0,15,,,,,,,,,,,,,,,,15,,70,72
9600,note_on,,0,0,15,,,,,,,,,,,,,,,,15,,63,72
9600,note_on,,0,0,15,,,,,,,,,,,,,,,,15,,67,72
9660,note_on,,61,0,5,,,,,,,,,,,,,,,,1,,70,64
9660,note_on,,61,0,7,,,,,,,,,,,,,,,,5,,70,64
9660,note_on,,61,0,11,,,,,,,,,,,,,,,,10,,70,64
9689,note_on,,89,0,8,,,,,,,,,,,,,,,,6,,67,0
9689,note_on,,89,0,12,,,,,,,,,,,,,,,,11,,67,0
9690,note_on,,1,0,12,,,,,,,,,,,,,,,,11,,65,64
9690,note_on,,1,0,8,,,,,,,,,,,,,,,,6,,65,64
9719,note_on,,59,0,5,,,,,,,,,,,,,,,,1,,70,0
9719,note_on,,59,0,11,,,,,,,,,,,,,,,,10,,70,0
9719,note_on,,59,0,7,,,,,,,,,,,,,,,,5,,70,0
9719,note_on,,0,0,15,,,,,,,,,,,,,,,,15,,67,0
9719,note_on,,0,0,15,,,,,,,,,,,,,,,,15,,63,0
9719,note_on,,0,0,15,,,,,,,,,,,,,,,,15,,70,0
9719,note_on,,29,0,12,,,,,,,,,,,,,,,,11,,65,0
9719,note_on,,119,0,14,,,,,,,,,,,,,,,,13,,51,0
9719,note_on,,119,0,6,,,,,,,,,,,,,,,,2,,51,0
9719,note_on,,119,0,15,,,,,,,,,,,,,,,,15,,51,0
9719,note_on,,29,0,8,,,,,,,,,,,,,,,,6,,65,0
9720,note_on,,0,0,15,,,,,,,,,,,,,,,,15,,72,72
9720,note_on,,1,0,15,,,,,,,,,,,,,,,,15,,63,72
9720,note_on,,1,0,5,,,,,,,,,,,,,,,,1,,72,64
9720,note_on,,0,0,15,,,,,,,,,,,,,,,,15,,67,72
9720,note_on,,1,0,14,,,,,,,,,,,,,,,,13,,63,72
9720,note_on,,1,0,8,,,,,,,,,,,,,,,,6,,63,64
9720,note_on,,1,0,12,,,,,,,,,,,,,,,,11,,63,64
9720,note_on,,1,0,11,,,,,,,,,,,,,,,,10,,72,64
9720,note_on,,1,0,7,,,,,,,,,,,,,,,,5,,72,64
9779,note_on,,179,0,13,,,,,,,,,,,,,,,,12,,63,0
9779,note_on,,59,0,8,,,,,,,,,,,,,,,,6,,63,0
9779,note_on,,179,0,9,,,,,,,,,,,,,,,,7,,63,0
9779,note_on,,59,0,12,,,,,,,,,,,,,,,,11,,63,0
9780,note_on,,1,0,9,,,,,,,,,,,,,,,,7,,63,64
9780,note_on,,1,0,12,,,,,,,,,,,,,,,,11,,67,64
9780,note_on,,1,0,8,,,,,,,,,,,,,,,,6,,67,64
9780,note_on,,1,0,13,,,,,,,,,,,,,,,,12,,63,64
9839,note_on,,0,0,15,,,,,,,,,,,,,,,,15,,72,0
9839,note_on,,59,0,12,,,,,,,,,,,,,,,,11,,67,0
9839,note_on,,119,0,15,,,,,,,,,,,,,,,,15,,63,0
9839,note_on,,59,0,13,,,,,,,,,,,,,,,,12,,63,0
9839,note_on,,119,0,14,,,,,,,,,,,,,,,,13,,63,0
9839,note_on,,59,0,9,,,,,,,,,,,,,,,,7,,63,0
9839,note_on,,0,0,15,,,,,,,,,,,,,,,,15,,67,0
9839,note_on,,59,0,8,,,,,,,,,,,,,,,,6,,67,0
9840,note_on,,1,0,14,,,,,,,,,,,,,,,,13,,62,72
9840,note_on,,0,0,15,,,,,,,,,,,,,,,,15,,65,72
9840,note_on,,1,0,12,,,,,,,,,,,,,,,,11,,65,64
9840,note_on,,1,0,8,,,,,,,,,,,,,,,,6,,65,64
9840,note_on,,1,0,15,,,,,,,,,,,,,,,,15,,62,72
9840,note_on,,1,0,9,,,,,,,,,,,,,,,,7,,62,64
9840,note_on,,1,0,13,,,,,,,,,,,,,,,,12,,62,64
9899,note_on,,179,0,11,,,,,,,,,,,,,,,,10,,72,0
9899,note_on,,179,0,7,,,,,,,,,,,,,,,,5,,72,0
9899,note_on,,179,0,5,,,,,,,,,,,,,,,,1,,72,0
9900,note_on,,1,0,11,,,,,,,,,,,,,,,,10,,72,64
9900,note_on,,1,0,7,,,,,,,,,,,,,,,,5,,72,64
9900,note_on,,1,0,5,,,,,,,,,,,,,,,,1,,72,64
9959,note_on,,59,0,7,,,,,,,,,,,,,,,,5,,72,0
9959,note_on,,59,0,11,,,,,,,,,,,,,,,,10,,72,0
9959,note_on,,59,0,5,,,,,,,,,,,,,,,,1,,72,0
9960,note_on,,120,0,15,,,,,,,,,,,,,,,,15,,70,72
9960,note_on,,1,0,5,,,,,,,,,,,,,,,,1,,70,64
9960,note_on,,0,0,15,,,,,,,,,,,,,,,,15,,77,72
9960,note_on,,1,0,7,,,,,,,,,,,,,,,,5,,70,64
9960,note_on,,1,0,11,,,,,,,,,,,,,,,,10,,70,64
10019,note_on,,179,0,14,,,,,,,,,,,,,,,,13,,62,0
10019,note_on,,179,0,9,,,,,,,,,,,,,,,,7,,62,0
10019,note_on,,179,0,8,,,,,,,,,,,,,,,,6,,65,0
10019,note_on,,179,0,12,,,,,,,,,,,,,,,,11,,65,0
10019,note_on,,179,0,13,,,,,,,,,,,,,,,,12,,62,0
10019,note_on,,59,0,15,,,,,,,,,,,,,,,,15,,62,0
10020,note_on,,1,0,14,,,,,,,,,,,,,,,,13,,63,72
10020,note_on,,1,0,15,,,,,,,,,,,,,,,,15,,63,72
10020,note_on,,1,0,12,,,,,,,,,,,,,,,,11,,67,64
10020,note_on,,1,0,8,,,,,,,,,,,,,,,,6,,67,64
10020,note_on,,1,0,13,,,,,,,,,,,,,,,,12,,63,64
10020,note_on,,1,0,9,,,,,,,,,,,,,,,,7,,63,64
10049,note_on,,29,0,9,,,,,,,,,,,,,,,,7,,63,0
10049,note_on,,29,0,13,,,,,,,,,,,,,,,,12,,63,0
10049,note_on,,29,0,14,,,,,,,,,,,,,,,,13,,63,0
10049,note_on,,29,0,15,,,,,,,,,,,,,,,,15,,63,0
10050,note_on,,1,0,14,,,,,,,,,,,,,,,,13,,62,72
10050,note_on,,1,0,15,,,,,,,,,,,,,,,,15,,62,72
10050,note_on,,1,0,9,,,,,,,,,,,,,,,,7,,62,64
10050,note_on,,1,0,13,,,,,,,,,,,,,,,,12,,62,64
10079,note_on,,29,0,14,,,,,,,,,,,,,,,,13,,62,0
10079,note_on,,29,0,15,,,,,,,,,,,,,,,,15,,65,0
10079,note_on,,0,0,15,,,,,,,,,,,,,,,,15,,77,0
10079,note_on,,0,0,15,,,,,,,,,,,,,,,,15,,62,0
10079,note_on,,59,0,12,,,,,,,,,,,,,,,,11,,67,0
10079,note_on,,29,0,9,,,,,,,,,,,,,,,,7,,62,0
10079,note_on,,59,0,8,,,,,,,,,,,,,,,,6,,67,0
10079,note_on,,29,0,13,,,,,,,,,,,,,,,,12,,62,0
10080,note_on,,1,0,8,,,,,,,,,,,,,,,,6,,63,64
10080,note_on,,1,0,9,,,,,,,,,,,,,,,,7,,60,64
10080,note_on,,1,0,14,,,,,,,,,,,,,,,,13,,60,72
10080,note_on,,1,0,13,,,,,,,,,,,,,,,,12,,60,64
10080,note_on,,1,0,12,,,,,,,,,,,,,,,,11,,63,64
10080,note_on,,0,0,15,,,,,,,,,,,,,,,,15,,67,72
10080,note_on,,0,0,15,,,,,,,,,,,,,,,,15,,75,72
10080,note_on,,1,0,15,,,,,,,,,,,,,,,,15,,60,72
10199,note_on,,239,0,11,,,,,,,,,,,,,,,,10,,70,0
10199,note_on,,119,0,14,,,,,,,,,,,,,,,,13,,60,0
10199,note_on,,239,0,7,,,,,,,,,,,,,,,,5,,70,0
10199,note_on,,239,0,5,,,,,,,,,,,,,,,,1,,70,0
10199,note_on,,119,0,15,,,,,,,,,,,,,,,,15,,70,0
10199,note_on,,0,0,15,,,,,,,,,,,,,,,,15,,67,0
10199,note_on,,0,0,15,,,,,,,,,,,,,,,,15,,60,0
10200,note_on,,1,0,15,,,,,,,,,,,,,,,,15,,53,72
10200,note_on,,0,0,15,,,,,,,,,,,,,,,,15,,72,72
10200,note_on,,0,0,15,,,,,,,,,,,,,,,,15,,69,72
10200,note_on,,0,0,15,,,,,,,,,,,,,,,,15,,65,72
10200,note_on,,841,0,10,,,,,,,,,,,,,,,,8,,53,72
10200,note_on,,1,0,14,,,,,,,,,,,,,,,,13,,53,72
10200,note_on,,1,0,5,,,,,,,,,,,,,,,,1,,69,64
10200,note_on,,1,0,11,,,,,,,,,,,,,,,,10,,69,64
10200,note_on,,1,0,7,,,,,,,,,,,,,,,,5,,69,64
10200,note_on,,481,0,6,,,,,,,,,,,,,,,,2,,53,72
10259,note_on,,179,0,8,,,,,,,,,,,,,,,,6,,63,0
10259,note_on,,179,0,13,,,,,,,,,,,,,,,,12,,60,0
10259,note_on,,179,0,12,,,,,,,,,,,,,,,,11,,63,0
10259,note_on,,179,0,9,,,,,,,,,,,,,,,,7,,60,0
10260,note_on,,1,0,12,,,,,,,,,,,,,,,,11,,63,64
10260,note_on,,1,0,9,,,,,,,,,,,,,,,,7,,60,64
10260,note_on,,1,0,8,,,,,,,,,,,,,,,,6,,63,64
10260,note_on,,1,0,13,,,,,,,,,,,,,,,,12,,60,64
10319,note_on,,59,0,12,,,,,,,,,,,,,,,,11,,63,0
10319,note_on,,119,0,14,,,,,,,,,,,,,,,,13,,53,0
10319,note_on,,0,0,15,,,,,,,,,,,,,,,,15,,72,0
10319,note_on,,59,0,13,,,,,,,,,,,,,,,,12,,60,0
10319,note_on,,119,0,11,,,,,,,,,,,,,,,,10,,69,0
10319,note_on,,119,0,10,,,,,,,,,,,,,,,,8,,53,0
10319,note_on,,119,0,15,,,,,,,,,,,,,,,,15,,75,0
10319,note_on,,0,0,15,,,,,,,,,,,,,,,,15,,53,0
10319,note_on,,0,0,15,,,,,,,,,,,,,,,,15,,69,0
10319,note_on,,0,0,15,,,,,,,,,,,,,,,,15,,65,0
10319,note_on,,59,0,8,,,,,,,,,,,,,,,,6,,63,0
10319,note_on,,119,0,5,,,,,,,,,,,,,,,,1,,69,0
10319,note_on,,59,0,9,,,,,,,,,,,,,,,,7,,60,0
10319,note_on,,119,0,7,,,,,,,,,,,,,,,,5,,69,0
10319,note_on,,119,0,6,,,,,,,,,,,,,,,,2,,53,0
10320,note_on,,1,0,11,,,,,,,,,,,,,,,,10,,70,64
10320,note_on,,1,0,7,,,,,,,,,,,,,,,,5,,70,64
10320,note_on,,1,0,14,,,,,,,,,,,,,,,,13,,46,72
10320,note_on,,1,0,5,,,,,,,,,,,,,,,,1,,70,64
10320,note_on,,0,0,15,,,,,,,,,,,,,,,,15,,65,72
10320,note_on,,0,0,15,,,,,,,,,,,,,,,,15,,70,72
10320,note_on,,0,0,15,,,,,,,,,,,,,,,,15,,74,72
10320,note_on,,1,0,15,,,,,,,,,,,,,,,,15,,46,72
10320,note_on,,1,0,6,,,,,,,,,,,,,,,,2,,46,72
10320,note_on,,0,0,15,,,,,,,,,,,,,,,,15,,53,72
10320,note_on,,1,0,12,,,,,,,,,,,,,,,,11,,62,64
10320,note_on,,1,0,8,,,,,,,,,,,,,,,,6,,62,64
10320,note_on,,1,0,10,,,,,,,,,,,,,,,,8,,46,72
10320,note_on,,1,0,9,,,,,,,,,,,,,,,,7,,58,64
10320,note_on,,1,0,13,,,,,,,,,,,,,,,,12,,58,64
10379,note_on,,59,0,15,,,,,,,,,,,,,,,,15,,53,0
10379,note_on,,59,0,13,,,,,,,,,,,,,,,,12,,58,0
10379,note_on,,59,0,9,,,,,,,,,,,,,,,,7,,58,0
10380,note_on,,1,0,9,,,,,,,,,,,,,,,,7,,58,72
10380,note_on,,1,0,15,,,,,,,,,,,,,,,,15,,58,72
10380,note_on,,1,0,13,,,,,,,,,,,,,,,,12,,58,72
10439,note_on,,59,0,15,,,,,,,,,,,,,,,,15,,46,0
10439,note_on,,59,0,9,,,,,,,,,,,,,,,,7,,58,0
10439,note_on,,0,0,15,,,,,,,,,,,,,,,,15,,70,0
10439,note_on,,0,0,15,,,,,,,,,,,,,,,,15,,65,0
10439,note_on,,0,0,15,,,,,,,,,,,,,,,,15,,58,0
10439,note_on,,119,0,5,,,,,,,,,,,,,,,,1,,70,0
10439,note_on,,59,0,13,,,,,,,,,,,,,,,,12,,58,0
10439,note_on,,119,0,10,,,,,,,,,,,,,,,,8,,46,0
10439,note_on,,119,0,14,,,,,,,,,,,,,,,,13,,46,0
10439,note_on,,119,0,6,,,,,,,,,,,,,,,,2,,46,0
10439,note_on,,0,0,15,,,,,,,,,,,,,,,,15,,74,0
10439,note_on,,119,0,11,,,,,,,,,,,,,,,,10,,70,0
10439,note_on,,119,0,12,,,,,,,,,,,,,,,,11,,62,0
10439,note_on,,119,0,8,,,,,,,,,,,,,,,,6,,62,0
10439,note_on,,119,0,7,,,,,,,,,,,,,,,,5,,70,0
10440,note_on,,1,0,14,,,,,,,,,,,,,,,,13,,48,72
10440,note_on,,1,0,9,,,,,,,,,,,,,,,,7,,57,72
10440,note_on,,0,0,15,,,,,,,,,,,,,,,,15,,72,72
10440,note_on,,0,0,15,,,,,,,,,,,,,,,,15,,57,72
10440,note_on,,0,0,15,,,,,,,,,,,,,,,,15,,63,72
10440,note_on,,1,0,10,,,,,,,,,,,,,,,,8,,48,72
10440,note_on,,1,0,15,,,,,,,,,,,,,,,,15,,48,72
10440,note_on,,1,0,6,,,,,,,,,,,,,,,,2,,48,72
10440,note_on,,1,0,13,,,,,,,,,,,,,,,,12,,57,72
10499,note_on,,0,0,15,,,,,,,,,,,,,,,,15,,57,0
10499,note_on,,59,0,9,,,,,,,,,,,,,,,,7,,57,0
10499,note_on,,59,0,13,,,,,,,,,,,,,,,,12,,57,0
10499,note_on,,59,0,6,,,,,,,,,,,,,,,,2,,48,0
10499,note_on,,59,0,14,,,,,,,,,,,,,,,,13,,48,0
10499,note_on,,59,0,15,,,,,,,,,,,,,,,,15,,48,0
10499,note_on,,59,0,10,,,,,,,,,,,,,,,,8,,48,0
10500,note_on,,1,0,9,,,,,,,,,,,,,,,,7,,55,72
10500,note_on,,1,0,6,,,,,,,,,,,,,,,,2,,48,72
10500,note_on,,1,0,15,,,,,,,,,,,,,,,,15,,48,72
10500,note_on,,1,0,13,,,,,,,,,,,,,,,,12,,55,72
10500,note_on,,1,0,10,,,,,,,,,,,,,,,,8,,48,72
10500,note_on,,0,0,15,,,,,,,,,,,,,,,,15,,55,72
10500,note_on,,1,0,14,,,,,,,,,,,,,,,,13,,48,72
10559,note_on,,59,0,15,,,,,,,,,,,,,,,,15,,72,0
10559,note_on,,59,0,14,,,,,,,,,,,,,,,,13,,48,0
10559,note_on,,0,0,15,,,,,,,,,,,,,,,,15,,63,0
10559,note_on,,0,0,15,,,,,,,,,,,,,,,,15,,48,0
10559,note_on,,59,0,9,,,,,,,,,,,,,,,,7,,55,0
10559,note_on,,0,0,15,,,,,,,,,,,,,,,,15,,55,0
10559,note_on,,59,0,13,,,,,,,,,,,,,,,,12,,55,0
10559,note_on,,59,0,10,,,,,,,,,,,,,,,,8,,48,0
10559,note_on,,59,0,6,,,,,,,,,,,,,,,,2,,48,0
10560,note_on,,1,0,15,,,,,,,,,,,,,,,,15,,70,72
10560,note_on,,0,0,15,,,,,,,,,,,,,,,,15,,50,72
10560,note_on,,0,0,15,,,,,,,,,,,,,,,,15,,65,72
10560,note_on,,0,0,15,,,,,,,,,,,,,,,,15,,53,72
10560,note_on,,1,0,10,,,,,,,,,,,,,,,,8,,50,72
10560,note_on,,1,0,13,,,,,,,,,,,,,,,,12,,53,72
10560,note_on,,1,0,6,,,,,,,,,,,,,,,,2,,50,72
10560,note_on,,1,0,9,,,,,,,,,,,,,,,,7,,53,72
10560,note_on,,1,0,14,,,,,,,,,,,,,,,,13,,50,72
10619,note_on,,59,0,13,,,,,,,,,,,,,,,,12,,53,0
10619,note_on,,59,0,9,,,,,,,,,,,,,,,,7,,53,0
10620,note_on,,1,0,13,,,,,,,,,,,,,,,,12,,58,72
10620,note_on,,1,0,9,,,,,,,,,,,,,,,,7,,58,72
10679,note_on,,119,0,15,,,,,,,,,,,,,,,,15,,70,0
10679,note_on,,0,0,15,,,,,,,,,,,,,,,,15,,65,0
10680,note_on,,1,0,15,,,,,,,,,,,,,,,,15,,65,72
10680,note_on,,0,0,15,,,,,,,,,,,,,,,,15,,58,72
10680,note_on,,241,0,8,,,,,,,,,,,,,,,,6,,65,72
10680,note_on,,241,0,12,,,,,,,,,,,,,,,,11,,65,72
10739,note_on,,59,0,15,,,,,,,,,,,,,,,,15,,50,0
10739,note_on,,0,0,15,,,,,,,,,,,,,,,,15,,53,0
10739,note_on,,179,0,6,,,,,,,,,,,,,,,,2,,50,0
10739,note_on,,119,0,13,,,,,,,,,,,,,,,,12,,58,0
10739,note_on,,179,0,10,,,,,,,,,,,,,,,,8,,50,0
10739,note_on,,119,0,9,,,,,,,,,,,,,,,,7,,58,0
10739,note_on,,179,0,14,,,,,,,,,,,,,,,,13,,50,0
10740,note_on,,1,0,13,,,,,,,,,,,,,,,,12,,57,72
10740,note_on,,1,0,10,,,,,,,,,,,,,,,,8,,50,72
10740,note_on,,1,0,6,,,,,,,,,,,,,,,,2,,50,72
10740,note_on,,1,0,9,,,,,,,,,,,,,,,,7,,57,72
10740,note_on,,1,0,14,,,,,,,,,,,,,,,,13,,50,72
10740,note_on,,1,0,15,,,,,,,,,,,,,,,,15,,50,72
10740,note_on,,0,0,15,,,,,,,,,,,,,,,,15,,53,72
10799,note_on,,59,0,10,,,,,,,,,,,,,,,,8,,50,0
10799,note_on,,59,0,9,,,,,,,,,,,,,,,,7,,57,0
10799,note_on,,59,0,15,,,,,,,,,,,,,,,,15,,65,0
10799,note_on,,0,0,15,,,,,,,,,,,,,,,,15,,58,0
10799,note_on,,59,0,13,,,,,,,,,,,,,,,,12,,57,0
10799,note_on,,119,0,8,,,,,,,,,,,,,,,,6,,65,0
10799,note_on,,59,0,14,,,,,,,,,,,,,,,,13,,50,0
10799,note_on,,59,0,6,,,,,,,,,,,,,,,,2,,50,0
10799,note_on,,119,0,12,,,,,,,,,,,,,,,,11,,65,0
10799,note_on,,0,0,15,,,,,,,,,,,,,,,,15,,50,0
10799,note_on,,0,0,15,,,,,,,,,,,,,,,,15,,53,0
10800,note_on,,1,0,15,,,,,,,,,,,,,,,,15,,51,72
10800,note_on,,0,0,15,,,,,,,,,,,,,,,,15,,55,72
10800,note_on,,0,0,15,,,,,,,,,,,,,,,,15,,58,72
10800,note_on,,1,0,6,,,,,,,,,,,,,,,,2,,51,72
10800,note_on,,1,0,12,,,,,,,,,,,,,,,,11,,58,72
10800,note_on,,1,0,10,,,,,,,,,,,,,,,,8,,51,72
10800,note_on,,1,0,8,,,,,,,,,,,,,,,,6,,58,72
10800,note_on,,1,0,13,,,,,,,,,,,,,,,,12,,55,72
10800,note_on,,1,0,9,,,,,,,,,,,,,,,,7,,55,72
10800,note_on,,1,0,14,,,,,,,,,,,,,,,,13,,51,72
10859,note_on,,0,0,15,,,,,,,,,,,,,,,,15,,55,0
10859,note_on,,59,0,10,,,,,,,,,,,,,,,,8,,51,0
10859,note_on,,59,0,13,,,,,,,,,,,,,,,,12,,55,0
10859,note_on,,59,0,9,,,,,,,,,,,,,,,,7,,55,0
10859,note_on,,59,0,6,,,,,,,,,,,,,,,,2,,51,0
10859,note_on,,59,0,14,,,,,,,,,,,,,,,,13,,51,0
10859,note_on,,59,0,15,,,,,,,,,,,,,,,,15,,51,0
10860,note_on,,0,0,15,,,,,,,,,,,,,,,,15,,53,72
10860,note_on,,1,0,13,,,,,,,,,,,,,,,,12,,53,72
10860,note_on,,1,0,6,,,,,,,,,,,,,,,,2,,50,72
10860,note_on,,1,0,15,,,,,,,,,,,,,,,,15,,50,72
10860,note_on,,1,0,10,,,,,,,,,,,,,,,,8,,50,72
10860,note_on,,1,0,14,,,,,,,,,,,,,,,,13,,50,72
10860,note_on,,1,0,9,,,,,,,,,,,,,,,,7,,53,72
10919,note_on,,59,0,10,,,,,,,,,,,,,,,,8,,50,0
10919,note_on,,0,0,15,,,,,,,,,,,,,,,,15,,53,0
10919,note_on,,59,0,15,,,,,,,,,,,,,,,,15,,50,0
10919,note_on,,119,0,8,,,,,,,,,,,,,,,,6,,58,0
10919,note_on,,119,0,12,,,,,,,,,,,,,,,,11,,58,0
10919,note_on,,59,0,9,,,,,,,,,,,,,,,,7,,53,0
10919,note_on,,59,0,14,,,,,,,,,,,,,,,,13,,50,0
10919,note_on,,59,0,6,,,,,,,,,,,,,,,,2,,50,0
10919,note_on,,59,0,13,,,,,,,,,,,,,,,,12,,53,0
10920,note_on,,1,0,13,,,,,,,,,,,,,,,,12,,55,72
10920,note_on,,1,0,9,,,,,,,,,,,,,,,,7,,55,72
10920,note_on,,1,0,8,,,,,,,,,,,,,,,,6,,60,72
10920,note_on,,1,0,10,,,,,,,,,,,,,,,,8,,51,72
10920,note_on,,1,0,15,,,,,,,,,,,,,,,,15,,51,72
10920,note_on,,0,0,15,,,,,,,,,,,,,,,,15,,60,72
10920,note_on,,0,0,15,,,,,,,,,,,,,,,,15,,55,72
10920,note_on,,1,0,6,,,,,,,,,,,,,,,,2,,51,72
10920,note_on,,1,0,12,,,,,,,,,,,,,,,,11,,60,72
10920,note_on,,1,0,14,,,,,,,,,,,,,,,,13,,51,72
10979,note_on,,59,0,6,,,,,,,,,,,,,,,,2,,51,0
10979,note_on,,59,0,12,,,,,,,,,,,,,,,,11,,60,0
10979,note_on,,59,0,15,,,,,,,,,,,,,,,,15,,58,0
10979,note_on,,59,0,10,,,,,,,,,,,,,,,,8,,51,0
10979,note_on,,59,0,9,,,,,,,,,,,,,,,,7,,55,0
10979,note_on,,0,0,15,,,,,,,,,,,,,,,,15,,51,0
10979,note_on,,0,0,15,,,,,,,,,,,,,,,,15,,55,0
10979,note_on,,59,0,8,,,,,,,,,,,,,,,,6,,60,0
10979,note_on,,59,0,13,,,,,,,,,,,,,,,,12,,55,0
10979,note_on,,59,0,14,,,,,,,,,,,,,,,,13,,51,0
10980,note_on,,1,0,8,,,,,,,,,,,,,,,,6,,60,72
10980,note_on,,1,0,9,,,,,,,,,,,,,,,,7,,57,72
10980,note_on,,1,0,14,,,,,,,,,,,,,,,,13,,48,72
10980,note_on,,0,0,15,,,,,,,,,,,,,,,,15,,51,72
10980,note_on,,0,0,15,,,,,,,,,,,,,,,,15,,57,72
10980,note_on,,1,0,15,,,,,,,,,,,,,,,,15,,48,72
10980,note_on,,1,0,10,,,,,,,,,,,,,,,,8,,48,72
10980,note_on,,1,0,12,,,,,,,,,,,,,,,,11,,60,72
10980,note_on,,1,0,6,,,,,,,,,,,,,,,,2,,48,72
10980,note_on,,1,0,13,,,,,,,,,,,,,,,,12,,57,72
11039,note_on,,59,0,15,,,,,,,,,,,,,,,,15,,60,0
11039,note_on,,0,0,15,,,,,,,,,,,,,,,,15,,51,0
11039,note_on,,0,0,15,,,,,,,,,,,,,,,,15,,57,0
11039,note_on,,59,0,6,,,,,,,,,,,,,,,,2,,48,0
11039,note_on,,0,0,15,,,,,,,,,,,,,,,,15,,48,0
11039,note_on,,59,0,8,,,,,,,,,,,,,,,,6,,60,0
11039,note_on,,59,0,13,,,,,,,,,,,,,,,,12,,57,0
11039,note_on,,59,0,9,,,,,,,,,,,,,,,,7,,57,0
11039,note_on,,59,0,12,,,,,,,,,,,,,,,,11,,60,0
11039,note_on,,59,0,10,,,,,,,,,,,,,,,,8,,48,0
11039,note_on,,59,0,14,,,,,,,,,,,,,,,,13,,48,0
11040,note_on,,0,0,15,,,,,,,,,,,,,,,,15,,53,72
11040,note_on,,1,0,15,,,,,,,,,,,,,,,,15,,46,72
11040,note_on,,1,0,9,,,,,,,,,,,,,,,,7,,58,72
11040,note_on,,1,0,14,,,,,,,,,,,,,,,,13,,46,72
11040,note_on,,0,0,15,,,,,,,,,,,,,,,,15,,62,72
11040,note_on,,0,0,15,,,,,,,,,,,,,,,,15,,58,72
11040,note_on,,1,0,8,,,,,,,,,,,,,,,,6,,62,72
11040,note_on,,1,0,6,,,,,,,,,,,,,,,,2,,46,72
11040,note_on,,1,0,12,,,,,,,,,,,,,,,,11,,62,72
11040,note_on,,1,0,13,,,,,,,,,,,,,,,,12,,58,72
11040,note_on,,1,0,10,,,,,,,,,,,,,,,,8,,46,72
11099,note_on,,59,0,6,,,,,,,,,,,,,,,,2,,46,0
11099,note_on,,59,0,14,,,,,,,,,,,,,,,,13,,46,0
11099,note_on,,59,0,12,,,,,,,,,,,,,,,,11,,62,0
11099,note_on,,0,0,15,,,,,,,,,,,,,,,,15,,53,0
11099,note_on,,59,0,10,,,,,,,,,,,,,,,,8,,46,0
11099,note_on,,59,0,8,,,,,,,,,,,,,,,,6,,62,0
11099,note_on,,59,0,15,,,,,,,,,,,,,,,,15,,46,0
11100,note_on,,1,0,15,,,,,,,,,,,,,,,,15,,58,72
11100,note_on,,1,0,10,,,,,,,,,,,,,,,,8,,58,72
11100,note_on,,1,0,8,,,,,,,,,,,,,,,,6,,58,72
11100,note_on,,1,0,14,,,,,,,,,,,,,,,,13,,58,72
11100,note_on,,1,0,12,,,,,,,,,,,,,,,,11,,58,72
11100,note_on,,1,0,6,,,,,,,,,,,,,,,,2,,58,72
11159,note_on,,119,0,13,,,,,,,,,,,,,,,,12,,58,0
11159,note_on,,119,0,9,,,,,,,,,,,,,,,,7,,58,0
11159,note_on,,59,0,14,,,,,,,,,,,,,,,,13,,58,0
11159,note_on,,59,0,8,,,,,,,,,,,,,,,,6,,58,0
11159,note_on,,59,0,6,,,,,,,,,,,,,,,,2,,58,0
11159,note_on,,59,0,12,,,,,,,,,,,,,,,,11,,58,0
11159,note_on,,59,0,10,,,,,,,,,,,,,,,,8,,58,0
11159,note_on,,59,0,15,,,,,,,,,,,,,,,,15,,62,0
11159,note_on,,0,0,15,,,,,,,,,,,,,,,,15,,58,0
11159,note_on,,0,0,15,,,,,,,,,,,,,,,,15,,58,0
11160,note_on,,0,0,15,,,,,,,,,,,,,,,,15,,63,72
11160,note_on,,1,0,8,,,,,,,,,,,,,,,,6,,63,72
11160,note_on,,1,0,15,,,,,,,,,,,,,,,,15,,60,72
11160,note_on,,1,0,14,,,,,,,,,,,,,,,,13,,60,72
11160,note_on,,1,0,6,,,,,,,,,,,,,,,,2,,60,72
11160,note_on,,1,0,10,,,,,,,,,,,,,,,,8,,60,72
11160,note_on,,1,0,12,,,,,,,,,,,,,,,,11,,63,72
11219,note_on,,59,0,14,,,,,,,,,,,,,,,,13,,60,0
11219,note_on,,59,0,10,,,,,,,,,,,,,,,,8,,60,0
11219,note_on,,59,0,6,,,,,,,,,,,,,,,,2,,60,0
11219,note_on,,59,0,15,,,,,,,,,,,,,,,,15,,60,0
11220,note_on,,1,0,6,,,,,,,,,,,,,,,,2,,58,72
11220,note_on,,1,0,14,,,,,,,,,,,,,,,,13,,58,72
11220,note_on,,1,0,10,,,,,,,,,,,,,,,,8,,58,72
11220,note_on,,1,0,15,,,,,,,,,,,,,,,,15,,58,72
11279,note_on,,59,0,15,,,,,,,,,,,,,,,,15,,58,0
11279,note_on,,59,0,14,,,,,,,,,,,,,,,,13,,58,0
11279,note_on,,59,0,10,,,,,,,,,,,,,,,,8,,58,0
11279,note_on,,59,0,6,,,,,,,,,,,,,,,,2,,58,0
11280,note_on,,1,0,15,,,,,,,,,,,,,,,,15,,57,72
11280,note_on,,0,0,15,,,,,,,,,,,,,,,,15,,72,72
11280,note_on,,1,0,10,,,,,,,,,,,,,,,,8,,57,72
11280,note_on,,1,0,14,,,,,,,,,,,,,,,,13,,57,72
11280,note_on,,1,0,6,,,,,,,,,,,,,,,,2,,57,72
11339,note_on,,179,0,12,,,,,,,,,,,,,,,,11,,63,0
11339,note_on,,59,0,10,,,,,,,,,,,,,,,,8,,57,0
11339,note_on,,59,0,14,,,,,,,,,,,,,,,,13,,57,0
11339,note_on,,179,0,8,,,,,,,,,,,,,,,,6,,63,0
11339,note_on,,59,0,15,,,,,,,,,,,,,,,,15,,57,0
11339,note_on,,59,0,6,,,,,,,,,,,,,,,,2,,57,0
11340,note_on,,1,0,14,,,,,,,,,,,,,,,,13,,53,72
11340,note_on,,1,0,8,,,,,,,,,,,,,,,,6,,62,72
11340,note_on,,1,0,12,,,,,,,,,,,,,,,,11,,62,72
11340,note_on,,181,0,13,,,,,,,,,,,,,,,,12,,57,72
11340,note_on,,181,0,9,,,,,,,,,,,,,,,,7,,57,72
11340,note_on,,1,0,15,,,,,,,,,,,,,,,,15,,53,72
11340,note_on,,0,0,15,,,,,,,,,,,,,,,,15,,57,72
11340,note_on,,1,0,10,,,,,,,,,,,,,,,,8,,53,72
11340,note_on,,1,0,6,,,,,,,,,,,,,,,,2,,53,72
11369,note_on,,29,0,12,,,,,,,,,,,,,,,,11,,62,0
11369,note_on,,29,0,8,,,,,,,,,,,,,,,,6,,62,0
11370,note_on,,1,0,8,,,,,,,,,,,,,,,,6,,60,72
11370,note_on,,1,0,12,,,,,,,,,,,,,,,,11,,60,72
11399,note_on,,0,0,15,,,,,,,,,,,,,,,,15,,57,0
11399,note_on,,0,0,15,,,,,,,,,,,,,,,,15,,72,0
11399,note_on,,29,0,12,,,,,,,,,,,,,,,,11,,60,0
11399,note_on,,59,0,10,,,,,,,,,,,,,,,,8,,53,0
11399,note_on,,59,0,9,,,,,,,,,,,,,,,,7,,57,0
11399,note_on,,59,0,14,,,,,,,,,,,,,,,,13,,53,0
11399,note_on,,0,0,15,,,,,,,,,,,,,,,,15,,53,0
11399,note_on,,59,0,15,,,,,,,,,,,,,,,,15,,63,0
11399,note_on,,29,0,8,,,,,,,,,,,,,,,,6,,60,0
11399,note_on,,59,0,6,,,,,,,,,,,,,,,,2,,53,0
11399,note_on,,59,0,13,,,,,,,,,,,,,,,,12,,57,0
11400,note_on,,1,0,10,,,,,,,,,,,,,,,,8,,58,72
11400,note_on,,1,0,12,,,,,,,,,,,,,,,,11,,62,72
11400,note_on,,1,0,9,,,,,,,,,,,,,,,,7,,58,72
11400,note_on,,1,0,6,,,,,,,,,,,,,,,,2,,58,72
11400,note_on,,1,0,8,,,,,,,,,,,,,,,,6,,62,72
11400,note_on,,0,0,15,,,,,,,,,,,,,,,,15,,62,72
11400,note_on,,0,0,15,,,,,,,,,,,,,,,,15,,65,72
11400,note_on,,1,0,14,,,,,,,,,,,,,,,,13,,58,72
11400,note_on,,1,0,13,,,,,,,,,,,,,,,,12,,58,72
11400,note_on,,1,0,15,,,,,,,,,,,,,,,,15,,58,72
11459,note_on,,59,0,6,,,,,,,,,,,,,,,,2,,58,0
11459,note_on,,0,0,15,,,,,,,,,,,,,,,,15,,62,0
11459,note_on,,59,0,14,,,,,,,,,,,,,,,,13,,58,0
11459,note_on,,59,0,8,,,,,,,,,,,,,,,,6,,62,0
11459,note_on,,59,0,9,,,,,,,,,,,,,,,,7,,58,0
11459,note_on,,59,0,12,,,,,,,,,,,,,,,,11,,62,0
11459,note_on,,59,0,15,,,,,,,,,,,,,,,,15,,58,0
11459,note_on,,59,0,13,,,,,,,,,,,,,,,,12,,58,0
11460,note_on,,1,0,13,,,,,,,,,,,,,,,,12,,60,72
11460,note_on,,1,0,15,,,,,,,,,,,,,,,,15,,60,72
11460,note_on,,0,0,15,,,,,,,,,,,,,,,,15,,63,72
11460,note_on,,1,0,12,,,,,,,,,,,,,,,,11,,63,72
11460,note_on,,1,0,6,,,,,,,,,,,,,,,,2,,60,72
11460,note_on,,1,0,14,,,,,,,,,,,,,,,,13,,60,72
11460,note_on,,1,0,9,,,,,,,,,,,,,,,,7,,60,72
11460,note_on,,1,0,8,,,,,,,,,,,,,,,,6,,63,72
11519,note_on,,59,0,9,,,,,,,,,,,,,,,,7,,60,0
11519,note_on,,59,0,15,,,,,,,,,,,,,,,,15,,65,0
11519,note_on,,0,0,15,,,,,,,,,,,,,,,,15,,60,0
11519,note_on,,59,0,6,,,,,,,,,,,,,,,,2,,60,0
11519,note_on,,59,0,12,,,,,,,,,,,,,,,,11,,63,0
11519,note_on,,59,0,13,,,,,,,,,,,,,,,,12,,60,0
11519,note_on,,119,0,10,,,,,,,,,,,,,,,,8,,58,0
11519,note_on,,59,0,8,,,,,,,,,,,,,,,,6,,63,0
11519,note_on,,0,0,15,,,,,,,,,,,,,,,,15,,63,0
11519,note_on,,59,0,14,,,,,,,,,,,,,,,,13,,60,0
11520,note_on,,1,0,15,,,,,,,,,,,,,,,,15,,62,72
11520,note_on,,1,0,12,,,,,,,,,,,,,,,,11,,65,72
11520,note_on,,1,0,8,,,,,,,,,,,,,,,,6,,65,72
11520,note_on,,1,0,9,,,,,,,,,,,,,,,,7,,62,72
11520,note_on,,1,0,14,,,,,,,,,,,,,,,,13,,62,72
11520,note_on,,0,0,15,,,,,,,,,,,,,,,,15,,65,72
11520,note_on,,1,0,6,,,,,,,,,,,,,,,,2,,62,72
11520,note_on,,1,0,13,,,,,,,,,,,,,,,,12,,62,72
11520,note_on,,0,0,15,,,,,,,,,,,,,,,,15,,70,72
11579,note_on,,59,0,13,,,,,,,,,,,,,,,,12,,62,0
11579,note_on,,59,0,14,,,,,,,,,,,,,,,,13,,62,0
11579,note_on,,0,0,15,,,,,,,,,,,,,,,,15,,65,0
11579,note_on,,59,0,8,,,,,,,,,,,,,,,,6,,65,0
11579,note_on,,59,0,6,,,,,,,,,,,,,,,,2,,62,0
11579,note_on,,59,0,15,,,,,,,,,,,,,,,,15,,62,0
11579,note_on,,59,0,12,,,,,,,,,,,,,,,,11,,65,0
11579,note_on,,59,0,9,,,,,,,,,,,,,,,,7,,62,0
11580,note_on,,1,0,9,,,,,,,,,,,,,,,,7,,58,72
11580,note_on,,1,0,15,,,,,,,,,,,,,,,,15,,58,72
11580,note_on,,0,0,15,,,,,,,,,,,,,,,,15,,62,72
11580,note_on,,1,0,8,,,,,,,,,,,,,,,,6,,62,72
11580,note_on,,1,0,14,,,,,,,,,,,,,,,,13,,58,72
11580,note_on,,1,0,6,,,,,,,,,,,,,,,,2,,58,72
11580,note_on,,1,0,12,,,,,,,,,,,,,,,,11,,62,72
11580,note_on,,1,0,13,,,,,,,,,,,,,,,,12,,58,72
11639,note_on,,59,0,8,,,,,,,,,,,,,,,,6,,62,0
11639,note_on,,59,0,13,,,,,,,,,,,,,,,,12,,58,0
11639,note_on,,59,0,9,,,,,,,,,,,,,,,,7,,58,0
11639,note_on,,0,0,15,,,,,,,,,,,,,,,,15,,62,0
11639,note_on,,59,0,14,,,,,,,,,,,,,,,,13,,58,0
11639,note_on,,59,0,15,,,,,,,,,,,,,,,,15,,58,0
11639,note_on,,59,0,6,,,,,,,,,,,,,,,,2,,58,0
11639,note_on,,59,0,12,,,,,,,,,,,,,,,,11,,62,0
11640,note_on,,1,0,6,,,,,,,,,,,,,,,,2,,63,72
11640,note_on,,1,0,15,,,,,,,,,,,,,,,,15,,63,72
11640,note_on,,1,0,8,,,,,,,,,,,,,,,,6,,67,72
11640,note_on,,1,0,12,,,,,,,,,,,,,,,,11,,67,72
11640,note_on,,0,0,15,,,,,,,,,,,,,,,,15,,67,72
11640,note_on,,1,0,14,,,,,,,,,,,,,,,,13,,63,72
11640,note_on,,1,0,9,,,,,,,,,,,,,,,,7,,63,72
11640,note_on,,1,0,13,,,,,,,,,,,,,,,,12,,63,72
11699,note_on,,59,0,13,,,,,,,,,,,,,,,,12,,63,0
11699,note_on,,0,0,15,,,,,,,,,,,,,,,,15,,63,0
11699,note_on,,59,0,14,,,,,,,,,,,,,,,,13,,63,0
11699,note_on,,59,0,15,,,,,,,,,,,,,,,,15,,70,0
11699,note_on,,0,0,15,,,,,,,,,,,,,,,,15,,67,0
11699,note_on,,59,0,9,,,,,,,,,,,,,,,,7,,63,0
11699,note_on,,59,0,6,,,,,,,,,,,,,,,,2,,63,0
11700,note_on,,1,0,9,,,,,,,,,,,,,,,,7,,60,72
11700,note_on,,1,0,15,,,,,,,,,,,,,,,,15,,51,72
11700,note_on,,1,0,13,,,,,,,,,,,,,,,,12,,60,72
11700,note_on,,0,0,15,,,,,,,,,,,,,,,,15,,72,72
11700,note_on,,0,0,15,,,,,,,,,,,,,,,,15,,67,72
11700,note_on,,0,0,15,,,,,,,,,,,,,,,,15,,63,72
11700,note_on,,181,0,10,,,,,,,,,,,,,,,,8,,51,72
11700,note_on,,1,0,14,,,,,,,,,,,,,,,,13,,51,72
11700,note_on,,1,0,6,,,,,,,,,,,,,,,,2,,51,72
11759,note_on,,119,0,12,,,,,,,,,,,,,,,,11,,67,0
11759,note_on,,59,0,10,,,,,,,,,,,,,,,,8,,51,0
11759,note_on,,59,0,15,,,,,,,,,,,,,,,,15,,51,0
11759,note_on,,59,0,13,,,,,,,,,,,,,,,,12,,60,0
11759,note_on,,59,0,6,,,,,,,,,,,,,,,,2,,51,0
11759,note_on,,119,0,8,,,,,,,,,,,,,,,,6,,67,0
11759,note_on,,0,0,15,,,,,,,,,,,,,,,,15,,63,0
11759,note_on,,0,0,15,,,,,,,,,,,,,,,,15,,67,0
11759,note_on,,59,0,9,,,,,,,,,,,,,,,,7,,60,0
11759,note_on,,59,0,14,,,,,,,,,,,,,,,,13,,51,0
11759,note_on,,0,0,15,,,,,,,,,,,,,,,,15,,72,0
11760,note_on,,0,0,15,,,,,,,,,,,,,,,,15,,60,72
11760,note_on,,1,0,9,,,,,,,,,,,,,,,,7,,57,72
11760,note_on,,1,0,6,,,,,,,,,,,,,,,,2,,48,72
11760,note_on,,1,0,14,,,,,,,,,,,,,,,,13,,48,72
11760,note_on,,1,0,13,,,,,,,,,,,,,,,,12,,57,72
11760,note_on,,1,0,15,,,,,,,,,,,,,,,,15,,48,72
11760,note_on,,0,0,15,,,,,,,,,,,,,,,,15,,75,72
11760,note_on,,0,0,15,,,,,,,,,,,,,,,,15,,72,72
11760,note_on,,0,0,15,,,,,,,,,,,,,,,,15,,69,72
11760,note_on,,1,0,10,,,,,,,,,,,,,,,,8,,48,72
11760,note_on,,0,0,15,,,,,,,,,,,,,,,,15,,67,72
11820,note_on,,61,0,8,,,,,,,,,,,,,,,,6,,65,72
11820,note_on,,61,0,12,,,,,,,,,,,,,,,,11,,65,72
11879,note_on,,119,0,15,,,,,,,,,,,,,,,,15,,48,0
11879,note_on,,0,0,15,,,,,,,,,,,,,,,,15,,75,0
11879,note_on,,0,0,15,,,,,,,,,,,,,,,,15,,72,0
11879,note_on,,0,0,15,,,,,,,,,,,,,,,,15,,69,0
11879,note_on,,0,0,15,,,,,,,,,,,,,,,,15,,67,0
11879,note_on,,0,0,15,,,,,,,,,,,,,,,,15,,60,0
11879,note_on,,119,0,14,,,,,,,,,,,,,,,,13,,48,0
11879,note_on,,59,0,12,,,,,,,,,,,,,,,,11,,65,0
11879,note_on,,59,0,8,,,,,,,,,,,,,,,,6,,65,0
11879,note_on,,119,0,6,,,,,,,,,,,,,,,,2,,48,0
11879,note_on,,119,0,10,,,,,,,,,,,,,,,,8,,48,0
11880,note_on,,0,0,15,,,,,,,,,,,,,,,,15,,65,72
11880,note_on,,1,0,8,,,,,,,,,,,,,,,,6,,65,72
11880,note_on,,1,0,15,,,,,,,,,,,,,,,,15,,50,72
11880,note_on,,0,0,15,,,,,,,,,,,,,,,,15,,57,72
11880,note_on,,0,0,15,,,,,,,,,,,,,,,,15,,74,72
11880,note_on,,0,0,15,,,,,,,,,,,,,,,,15,,69,72
11880,note_on,,1,0,6,,,,,,,,,,,,,,,,2,,50,72
11880,note_on,,1,0,14,,,,,,,,,,,,,,,,13,,50,72
11880,note_on,,1,0,10,,,,,,,,,,,,,,,,8,,50,72
11880,note_on,,1,0,12,,,,,,,,,,,,,,,,11,,65,72
11939,note_on,,179,0,9,,,,,,,,,,,,,,,,7,,57,0
11939,note_on,,179,0,13,,,,,,,,,,,,,,,,12,,57,0
11939,note_on,,59,0,8,,,,,,,,,,,,,,,,6,,65,0
11939,note_on,,59,0,12,,,,,,,,,,,,,,,,11,,65,0
11940,note_on,,1,0,12,,,,,,,,,,,,,,,,11,,65,72
11940,note_on,,1,0,9,,,,,,,,,,,,,,,,7,,57,72
11940,note_on,,1,0,13,,,,,,,,,,,,,,,,12,,57,72
11940,note_on,,1,0,8,,,,,,,,,,,,,,,,6,,65,72
11999,note_on,,119,0,10,,,,,,,,,,,,,,,,8,,50,0
11999,note_on,,59,0,9,,,,,,,,,,,,,,,,7,,57,0
11999,note_on,,119,0,6,,,,,,,,,,,,,,,,2,,50,0
11999,note_on,,59,0,13,,,,,,,,,,,,,,,,12,,57,0
11999,note_on,,59,0,8,,,,,,,,,,,,,,,,6,,65,0
11999,note_on,,0,0,15,,,,,,,,,,,,,,,,15,,69,0
11999,note_on,,0,0,15,,,,,,,,,,,,,,,,15,,57,0
11999,note_on,,119,0,15,,,,,,,,,,,,,,,,15,,50,0
11999,note_on,,59,0,12,,,,,,,,,,,,,,,,11,,65,0
11999,note_on,,119,0,14,,,,,,,,,,,,,,,,13,,50,0
12000,note_on,,0,0,15,,,,,,,,,,,,,,,,15,,58,72
12000,note_on,,1,0,13,,,,,,,,,,,,,,,,12,,55,72
12000,note_on,,1,0,9,,,,,,,,,,,,,,,,7,,55,72
12000,note_on,,1,0,8,,,,,,,,,,,,,,,,6,,70,72
12000,note_on,,0,0,15,,,,,,,,,,,,,,,,15,,67,72
12000,note_on,,1,0,15,,,,,,,,,,,,,,,,15,,46,72
12000,note_on,,1,0,6,,,,,,,,,,,,,,,,2,,46,72
12000,note_on,,1,0,14,,,,,,,,,,,,,,,,13,,46,72
12000,note_on,,1,0,10,,,,,,,,,,,,,,,,8,,46,72
12000,note_on,,1,0,12,,,,,,,,,,,,,,,,11,,70,72
12059,note_on,,59,0,8,,,,,,,,,,,,,,,,6,,70,0
12059,note_on,,59,0,12,,,,,,,,,,,,,,,,11,,70,0
12060,note_on,,1,0,8,,,,,,,,,,,,,,,,6,,63,72
12060,note_on,,1,0,12,,,,,,,,,,,,,,,,11,,63,72
12119,note_on,,119,0,15,,,,,,,,,,,,,,,,15,,74,0
12119,note_on,,59,0,12,,,,,,,,,,,,,,,,11,,63,0
12119,note_on,,59,0,8,,,,,,,,,,,,,,,,6,,63,0
12119,note_on,,0,0,15,,,,,,,,,,,,,,,,15,,46,0
12119,note_on,,119,0,6,,,,,,,,,,,,,,,,2,,46,0
12119,note_on,,0,0,15,,,,,,,,,,,,,,,,15,,58,0
12119,note_on,,0,0,15,,,,,,,,,,,,,,,,15,,67,0
12119,note_on,,119,0,10,,,,,,,,,,,,,,,,8,,46,0
12119,note_on,,0,0,15,,,,,,,,,,,,,,,,15,,65,0
12119,note_on,,119,0,14,,,,,,,,,,,,,,,,13,,46,0
12120,note_on,,1,0,8,,,,,,,,,,,,,,,,6,,63,72
12120,note_on,,1,0,12,,,,,,,,,,,,,,,,11,,63,72
12120,note_on,,1,0,14,,,,,,,,,,,,,,,,13,,48,72
12120,note_on,,1,0,15,,,,,,,,,,,,,,,,15,,48,72
12120,note_on,,0,0,15,,,,,,,,,,,,,,,,15,,55,72
12120,note_on,,0,0,15,,,,,,,,,,,,,,,,15,,72,72
12120,note_on,,0,0,15,,,,,,,,,,,,,,,,15,,67,72
12120,note_on,,0,0,15,,,,,,,,,,,,,,,,15,,63,72
12120,note_on,,1,0,10,,,,,,,,,,,,,,,,8,,48,72
12120,note_on,,1,0,6,,,,,,,,,,,,,,,,2,,48,72
12179,note_on,,179,0,13,,,,,,,,,,,,,,,,12,,55,0
12179,note_on,,179,0,9,,,,,,,,,,,,,,,,7,,55,0
12180,note_on,,1,0,13,,,,,,,,,,,,,,,,12,,55,72
12180,note_on,,1,0,9,,,,,,,,,,,,,,,,7,,55,72
12239,note_on,,119,0,15,,,,,,,,,,,,,,,,15,,48,0
12239,note_on,,0,0,15,,,,,,,,,,,,,,,,15,,55,0
12239,note_on,,0,0,15,,,,,,,,,,,,,,,,15,,67,0
12239,note_on,,0,0,15,,,,,,,,,,,,,,,,15,,63,0
12239,note_on,,119,0,8,,,,,,,,,,,,,,,,6,,63,0
12239,note_on,,119,0,12,,,,,,,,,,,,,,,,11,,63,0
12239,note_on,,119,0,6,,,,,,,,,,,,,,,,2,,48,0
12239,note_on,,119,0,14,,,,,,,,,,,,,,,,13,,48,0
12239,note_on,,59,0,13,,,,,,,,,,,,,,,,12,,55,0
12239,note_on,,119,0,10,,,,,,,,,,,,,,,,8,,48,0
12239,note_on,,59,0,9,,,,,,,,,,,,,,,,7,,55,0
12240,note_on,,0,0,15,,,,,,,,,,,,,,,,15,,69,72
12240,note_on,,1,0,14,,,,,,,,,,,,,,,,13,,53,72
12240,note_on,,1,0,6,,,,,,,,,,,,,,,,2,,53,72
12240,note_on,,1,0,10,,,,,,,,,,,,,,,,8,,53,72
12240,note_on,,1,0,13,,,,,,,,,,,,,,,,12,,57,72
12240,note_on,,1,0,9,,,,,,,,,,,,,,,,7,,57,72
12240,note_on,,1,0,15,,,,,,,,,,,,,,,,15,,53,72
12240,note_on,,0,0,15,,,,,,,,,,,,,,,,15,,65,72
12299,note_on,,0,0,15,,,,,,,,,,,,,,,,15,,69,0
12299,note_on,,59,0,6,,,,,,,,,,,,,,,,2,,53,0
12299,note_on,,59,0,15,,,,,,,,,,,,,,,,15,,53,0
12299,note_on,,59,0,9,,,,,,,,,,,,,,,,7,,57,0
12299,note_on,,59,0,14,,,,,,,,,,,,,,,,13,,53,0
12299,note_on,,59,0,10,,,,,,,,,,,,,,,,8,,53,0
12299,note_on,,59,0,13,,,,,,,,,,,,,,,,12,,57,0
12299,note_on,,0,0,15,,,,,,,,,,,,,,,,15,,65,0
12300,note_on,,1,0,9,,,,,,,,,,,,,,,,7,,57,72
12300,note_on,,1,0,15,,,,,,,,,,,,,,,,15,,51,72
12300,note_on,,1,0,14,,,,,,,,,,,,,,,,13,,51,72
12300,note_on,,1,0,6,,,,,,,,,,,,,,,,2,,51,72
12300,note_on,,1,0,10,,,,,,,,,,,,,,,,8,,51,72
12300,note_on,,61,0,12,,,,,,,,,,,,,,,,11,,67,72
12300,note_on,,1,0,13,,,,,,,,,,,,,,,,12,,57,72
12300,note_on,,0,0,15,,,,,,,,,,,,,,,,15,,67,72
12300,note_on,,61,0,8,,,,,,,,,,,,,,,,6,,67,72
12300,note_on,,0,0,15,,,,,,,,,,,,,,,,15,,60,72
12359,note_on,,59,0,14,,,,,,,,,,,,,,,,13,,51,0
12359,note_on,,59,0,10,,,,,,,,,,,,,,,,8,,51,0
12359,note_on,,59,0,12,,,,,,,,,,,,,,,,11,,67,0
12359,note_on,,59,0,13,,,,,,,,,,,,,,,,12,,57,0
12359,note_on,,59,0,6,,,,,,,,,,,,,,,,2,,51,0
12359,note_on,,59,0,9,,,,,,,,,,,,,,,,7,,57,0
12359,note_on,,59,0,15,,,,,,,,,,,,,,,,15,,72,0
12359,note_on,,59,0,8,,,,,,,,,,,,,,,,6,,67,0
12359,note_on,,0,0,15,,,,,,,,,,,,,,,,15,,51,0
12359,note_on,,0,0,15,,,,,,,,,,,,,,,,15,,60,0
12359,note_on,,0,0,15,,,,,,,,,,,,,,,,15,,67,0
12360,note_on,,1,0,12,,,,,,,,,,,,,,,,11,,65,72
12360,note_on,,1,0,6,,,,,,,,,,,,,,,,2,,50,72
12360,note_on,,0,0,15,,,,,,,,,,,,,,,,15,,65,72
12360,note_on,,0,0,15,,,,,,,,,,,,,,,,15,,62,72
12360,note_on,,1,0,9,,,,,,,,,,,,,,,,7,,58,72
12360,note_on,,0,0,15,,,,,,,,,,,,,,,,15,,70,72
12360,note_on,,1,0,13,,,,,,,,,,,,,,,,12,,58,72
12360,note_on,,1,0,10,,,,,,,,,,,,,,,,8,,50,72
12360,note_on,,1,0,15,,,,,,,,,,,,,,,,15,,50,72
12360,note_on,,1,0,8,,,,,,,,,,,,,,,,6,,65,72
12360,note_on,,1,0,14,,,,,,,,,,,,,,,,13,,50,72
12419,note_on,,59,0,14,,,,,,,,,,,,,,,,13,,50,0
12419,note_on,,59,0,15,,,,,,,,,,,,,,,,15,,50,0
12419,note_on,,59,0,13,,,,,,,,,,,,,,,,12,,58,0
12419,note_on,,59,0,12,,,,,,,,,,,,,,,,11,,65,0
12419,note_on,,59,0,10,,,,,,,,,,,,,,,,8,,50,0
12419,note_on,,0,0,15,,,,,,,,,,,,,,,,15,,65,0
12419,note_on,,0,0,15,,,,,,,,,,,,,,,,15,,62,0
12419,note_on,,59,0,8,,,,,,,,,,,,,,,,6,,65,0
12419,note_on,,59,0,6,,,,,,,,,,,,,,,,2,,50,0
12419,note_on,,59,0,9,,,,,,,,,,,,,,,,7,,58,0
12420,note_on,,1,0,13,,,,,,,,,,,,,,,,12,,58,72
12420,note_on,,1,0,6,,,,,,,,,,,,,,,,2,,51,72
12420,note_on,,1,0,8,,,,,,,,,,,,,,,,6,,63,72
12420,note_on,,1,0,12,,,,,,,,,,,,,,,,11,,63,72
12420,note_on,,0,0,15,,,,,,,,,,,,,,,,15,,60,72
12420,note_on,,0,0,15,,,,,,,,,,,,,,,,15,,63,72
12420,note_on,,1,0,15,,,,,,,,,,,,,,,,15,,51,72
12420,note_on,,1,0,10,,,,,,,,,,,,,,,,8,,51,72
12420,note_on,,1,0,14,,,,,,,,,,,,,,,,13,,51,72
12420,note_on,,1,0,9,,,,,,,,,,,,,,,,7,,58,72
12479,note_on,,59,0,15,,,,,,,,,,,,,,,,15,,51,0
12479,note_on,,0,0,15,,,,,,,,,,,,,,,,15,,60,0
12479,note_on,,59,0,10,,,,,,,,,,,,,,,,8,,51,0
12479,note_on,,59,0,9,,,,,,,,,,,,,,,,7,,58,0
12479,note_on,,0,0,15,,,,,,,,,,,,,,,,15,,63,0
12479,note_on,,59,0,12,,,,,,,,,,,,,,,,11,,63,0
12479,note_on,,59,0,8,,,,,,,,,,,,,,,,6,,63,0
12479,note_on,,59,0,13,,,,,,,,,,,,,,,,12,,58,0
12479,note_on,,59,0,6,,,,,,,,,,,,,,,,2,,51,0
12479,note_on,,59,0,14,,,,,,,,,,,,,,,,13,,51,0
12480,note_on,,1,0,6,,,,,,,,,,,,,,,,2,,53,72
12480,note_on,,1,0,14,,,,,,,,,,,,,,,,13,,53,72
12480,note_on,,1,0,13,,,,,,,,,,,,,,,,12,,58,72
12480,note_on,,1,0,15,,,,,,,,,,,,,,,,15,,53,72
12480,note_on,,0,0,15,,,,,,,,,,,,,,,,15,,62,72
12480,note_on,,0,0,15,,,,,,,,,,,,,,,,15,,58,72
12480,note_on,,1,0,8,,,,,,,,,,,,,,,,6,,62,72
12480,note_on,,1,0,10,,,,,,,,,,,,,,,,8,,53,72
12480,note_on,,1,0,9,,,,,,,,,,,,,,,,7,,58,72
12480,note_on,,1,0,12,,,,,,,,,,,,,,,,11,,62,72
12540,note_on,,2101,0,7,,,,,,,,,,,,,,,,5,,65,72
12540,note_on,,2101,0,5,,,,,,,,,,,,,,,,1,,65,72
12540,note_on,,2101,0,11,,,,,,,,,,,,,,,,10,,65,72
12599,note_on,,59,0,7,,,,,,,,,,,,,,,,5,,65,0
12599,note_on,,59,0,5,,,,,,,,,,,,,,,,1,,65,0
12599,note_on,,59,0,11,,,,,,,,,,,,,,,,10,,65,0
12599,note_on,,0,0,15,,,,,,,,,,,,,,,,15,,58,0
12599,note_on,,119,0,9,,,,,,,,,,,,,,,,7,,58,0
12599,note_on,,119,0,8,,,,,,,,,,,,,,,,6,,62,0
12599,note_on,,119,0,13,,,,,,,,,,,,,,,,12,,58,0
12599,note_on,,119,0,15,,,,,,,,,,,,,,,,15,,70,0
12599,note_on,,0,0,15,,,,,,,,,,,,,,,,15,,62,0
12599,note_on,,119,0,12,,,,,,,,,,,,,,,,11,,62,0
12600,note_on,,1,0,13,,,,,,,,,,,,,,,,12,,57,72
12600,note_on,,1,0,8,,,,,,,,,,,,,,,,6,,60,72
12600,note_on,,1,0,12,,,,,,,,,,,,,,,,11,,60,72
12600,note_on,,1,0,9,,,,,,,,,,,,,,,,7,,57,72
12600,note_on,,0,0,15,,,,,,,,,,,,,,,,15,,60,72
12600,note_on,,0,0,15,,,,,,,,,,,,,,,,15,,65,72
12600,note_on,,1,0,11,,,,,,,,,,,,,,,,10,,77,72
12600,note_on,,1,0,7,,,,,,,,,,,,,,,,5,,77,72
12600,note_on,,1,0,5,,,,,,,,,,,,,,,,1,,77,72
12600,note_on,,1,0,15,,,,,,,,,,,,,,,,15,,69,72
12659,note_on,,59,0,11,,,,,,,,,,,,,,,,10,,77,0
12659,note_on,,179,0,14,,,,,,,,,,,,,,,,13,,53,0
12659,note_on,,179,0,6,,,,,,,,,,,,,,,,2,,53,0
12659,note_on,,59,0,15,,,,,,,,,,,,,,,,15,,53,0
12659,note_on,,59,0,7,,,,,,,,,,,,,,,,5,,77,0
12659,note_on,,59,0,5,,,,,,,,,,,,,,,,1,,77,0
12659,note_on,,179,0,10,,,,,,,,,,,,,,,,8,,53,0
12660,note_on,,1,0,15,,,,,,,,,,,,,,,,15,,53,72
12660,note_on,,1,0,5,,,,,,,,,,,,,,,,1,,75,72
12660,note_on,,1,0,7,,,,,,,,,,,,,,,,5,,75,72
12660,note_on,,1,0,14,,,,,,,,,,,,,,,,13,,53,72
12660,note_on,,1,0,6,,,,,,,,,,,,,,,,2,,53,72
12660,note_on,,1,0,10,,,,,,,,,,,,,,,,8,,53,72
12660,note_on,,1,0,11,,,,,,,,,,,,,,,,10,,75,72
12719,note_on,,0,0,15,,,,,,,,,,,,,,,,15,,53,0
12719,note_on,,119,0,12,,,,,,,,,,,,,,,,11,,60,0
12719,note_on,,59,0,6,,,,,,,,,,,,,,,,2,,53,0
12719,note_on,,119,0,8,,,,,,,,,,,,,,,,6,,60,0
12719,note_on,,59,0,14,,,,,,,,,,,,,,,,13,,53,0
12719,note_on,,59,0,7,,,,,,,,,,,,,,,,5,,75,0
12719,note_on,,59,0,11,,,,,,,,,,,,,,,,10,,75,0
12719,note_on,,59,0,5,,,,,,,,,,,,,,,,1,,75,0
12719,note_on,,119,0,13,,,,,,,,,,,,,,,,12,,57,0
12719,note_on,,59,0,10,,,,,,,,,,,,,,,,8,,53,0
12719,note_on,,0,0,15,,,,,,,,,,,,,,,,15,,65,0
12719,note_on,,119,0,9,,,,,,,,,,,,,,,,7,,57,0
12719,note_on,,0,0,15,,,,,,,,,,,,,,,,15,,60,0
12719,note_on,,59,0,15,,,,,,,,,,,,,,,,15,,69,0
12720,note_on,,1,0,9,,,,,,,,,,,,,,,,7,,58,72
12720,note_on,,1,0,5,,,,,,,,,,,,,,,,1,,74,72
12720,note_on,,1,0,14,,,,,,,,,,,,,,,,13,,46,72
12720,note_on,,1,0,13,,,,,,,,,,,,,,,,12,,58,72
12720,note_on,,1,0,10,,,,,,,,,,,,,,,,8,,46,72
12720,note_on,,0,0,15,,,,,,,,,,,,,,,,15,,65,72
12720,note_on,,1,0,11,,,,,,,,,,,,,,,,10,,74,72
12720,note_on,,1,0,15,,,,,,,,,,,,,,,,15,,46,72
12720,note_on,,0,0,15,,,,,,,,,,,,,,,,15,,70,72
12720,note_on,,1,0,12,,,,,,,,,,,,,,,,11,,58,72
12720,note_on,,0,0,15,,,,,,,,,,,,,,,,15,,62,72
12720,note_on,,1,0,7,,,,,,,,,,,,,,,,5,,74,72
12720,note_on,,1,0,6,,,,,,,,,,,,,,,,2,,46,72
12720,note_on,,1,0,8,,,,,,,,,,,,,,,,6,,58,72
12779,note_on,,59,0,12,,,,,,,,,,,,,,,,11,,58,0
12779,note_on,,59,0,8,,,,,,,,,,,,,,,,6,,58,0
12779,note_on,,0,0,15,,,,,,,,,,,,,,,,15,,65,0
12779,note_on,,0,0,15,,,,,,,,,,,,,,,,15,,62,0
12779,note_on,,59,0,15,,,,,,,,,,,,,,,,15,,70,0
12780,note_on,,1,0,8,,,,,,,,,,,,,,,,6,,62,72
12780,note_on,,0,0,15,,,,,,,,,,,,,,,,15,,58,72
12780,note_on,,1,0,15,,,,,,,,,,,,,,,,15,,62,72
12780,note_on,,1,0,12,,,,,,,,,,,,,,,,11,,62,72
12809,note_on,,89,0,5,,,,,,,,,,,,,,,,1,,74,0
12809,note_on,,89,0,11,,,,,,,,,,,,,,,,10,,74,0
12809,note_on,,89,0,7,,,,,,,,,,,,,,,,5,,74,0
12810,note_on,,1,0,11,,,,,,,,,,,,,,,,10,,72,72
12810,note_on,,1,0,7,,,,,,,,,,,,,,,,5,,72,72
12810,note_on,,1,0,5,,,,,,,,,,,,,,,,1,,72,72
12839,note_on,,119,0,6,,,,,,,,,,,,,,,,2,,46,0
12839,note_on,,59,0,12,,,,,,,,,,,,,,,,11,,62,0
12839,note_on,,119,0,9,,,,,,,,,,,,,,,,7,,58,0
12839,note_on,,29,0,5,,,,,,,,,,,,,,,,1,,72,0
12839,note_on,,119,0,13,,,,,,,,,,,,,,,,12,,58,0
12839,note_on,,29,0,7,,,,,,,,,,,,,,,,5,,72,0
12839,note_on,,119,0,10,,,,,,,,,,,,,,,,8,,46,0
12839,note_on,,59,0,15,,,,,,,,,,,,,,,,15,,46,0
12839,note_on,,0,0,15,,,,,,,,,,,,,,,,15,,62,0
12839,note_on,,0,0,15,,,,,,,,,,,,,,,,15,,58,0
12839,note_on,,59,0,8,,,,,,,,,,,,,,,,6,,62,0
12839,note_on,,119,0,14,,,,,,,,,,,,,,,,13,,46,0
12839,note_on,,29,0,11,,,,,,,,,,,,,,,,10,,72,0
12840,note_on,,1,0,5,,,,,,,,,,,,,,,,1,,70,72
12840,note_on,,1,0,12,,,,,,,,,,,,,,,,11,,63,72
12840,note_on,,1,0,7,,,,,,,,,,,,,,,,5,,70,72
12840,note_on,,1,0,8,,,,,,,,,,,,,,,,6,,63,72
12840,note_on,,1,0,14,,,,,,,,,,,,,,,,13,,58,72
12840,note_on,,1,0,11,,,,,,,,,,,,,,,,10,,70,72
12840,note_on,,1,0,13,,,,,,,,,,,,,,,,12,,58,72
12840,note_on,,1,0,9,,,,,,,,,,,,,,,,7,,58,72
12840,note_on,,1,0,15,,,,,,,,,,,,,,,,15,,58,72
12840,note_on,,0,0,15,,,,,,,,,,,,,,,,15,,60,72
12840,note_on,,0,0,15,,,,,,,,,,,,,,,,15,,63,72
12899,note_on,,59,0,8,,,,,,,,,,,,,,,,6,,63,0
12899,note_on,,59,0,12,,,,,,,,,,,,,,,,11,,63,0
12899,note_on,,0,0,15,,,,,,,,,,,,,,,,15,,60,0
12899,note_on,,59,0,15,,,,,,,,,,,,,,,,15,,63,0
12900,note_on,,1,0,8,,,,,,,,,,,,,,,,6,,65,72
12900,note_on,,1,0,15,,,,,,,,,,,,,,,,15,,65,72
12900,note_on,,1,0,12,,,,,,,,,,,,,,,,11,,65,72
12900,note_on,,0,0,15,,,,,,,,,,,,,,,,15,,62,72
12959,note_on,,59,0,8,,,,,,,,,,,,,,,,6,,65,0
12959,note_on,,119,0,7,,,,,,,,,,,,,,,,5,,70,0
12959,note_on,,119,0,14,,,,,,,,,,,,,,,,13,,58,0
12959,note_on,,119,0,11,,,,,,,,,,,,,,,,10,,70,0
12959,note_on,,119,0,5,,,,,,,,,,,,,,,,1,,70,0
12959,note_on,,59,0,12,,,,,,,,,,,,,,,,11,,65,0
12959,note_on,,0,0,15,,,,,,,,,,,,,,,,15,,65,0
12959,note_on,,119,0,13,,,,,,,,,,,,,,,,12,,58,0
12959,note_on,,0,0,15,,,,,,,,,,,,,,,,15,,62,0
12959,note_on,,59,0,15,,,,,,,,,,,,,,,,15,,58,0
12959,note_on,,119,0,9,,,,,,,,,,,,,,,,7,,58,0
12960,note_on,,0,0,15,,,,,,,,,,,,,,,,15,,67,72
12960,note_on,,1,0,15,,,,,,,,,,,,,,,,15,,51,72
12960,note_on,,1,0,8,,,,,,,,,,,,,,,,6,,67,72
12960,note_on,,1,0,12,,,,,,,,,,,,,,,,11,,67,72
12960,note_on,,0,0,15,,,,,,,,,,,,,,,,15,,63,72
12960,note_on,,0,0,15,,,,,,,,,,,,,,,,15,,58,72
12960,note_on,,1,0,9,,,,,,,,,,,,,,,,7,,51,72
12960,note_on,,1,0,14,,,,,,,,,,,,,,,,13,,51,72
12960,note_on,,1,0,13,,,,,,,,,,,,,,,,12,,51,72
13019,note_on,,59,0,12,,,,,,,,,,,,,,,,11,,67,0
13019,note_on,,59,0,8,,,,,,,,,,,,,,,,6,,67,0
13020,note_on,,1,0,8,,,,,,,,,,,,,,,,6,,63,72
13020,note_on,,1,0,12,,,,,,,,,,,,,,,,11,,63,72
13079,note_on,,0,0,15,,,,,,,,,,,,,,,,15,,63,0
13079,note_on,,119,0,15,,,,,,,,,,,,,,,,15,,51,0
13079,note_on,,59,0,8,,,,,,,,,,,,,,,,6,,63,0
13079,note_on,,119,0,13,,,,,,,,,,,,,,,,12,,51,0
13079,note_on,,119,0,9,,,,,,,,,,,,,,,,7,,51,0
13079,note_on,,0,0,15,,,,,,,,,,,,,,,,15,,58,0
13079,note_on,,0,0,15,,,,,,,,,,,,,,,,15,,67,0
13079,note_on,,119,0,14,,,,,,,,,,,,,,,,13,,51,0
13079,note_on,,59,0,12,,,,,,,,,,,,,,,,11,,63,0
13080,note_on,,1,0,12,,,,,,,,,,,,,,,,11,,62,72
13080,note_on,,1,0,15,,,,,,,,,,,,,,,,15,,62,72
13080,note_on,,0,0,15,,,,,,,,,,,,,,,,15,,53,72
13080,note_on,,1,0,13,,,,,,,,,,,,,,,,12,,53,72
13080,note_on,,1,0,14,,,,,,,,,,,,,,,,13,,53,72
13080,note_on,,1,0,8,,,,,,,,,,,,,,,,6,,62,72
13080,note_on,,1,0,9,,,,,,,,,,,,,,,,7,,53,72
13080,note_on,,0,0,15,,,,,,,,,,,,,,,,15,,65,72
13080,note_on,,0,0,15,,,,,,,,,,,,,,,,15,,56,72
13139,note_on,,59,0,15,,,,,,,,,,,,,,,,15,,53,0
13139,note_on,,59,0,9,,,,,,,,,,,,,,,,7,,53,0
13139,note_on,,59,0,13,,,,,,,,,,,,,,,,12,,53,0
13139,note_on,,59,0,14,,,,,,,,,,,,,,,,13,,53,0
13139,note_on,,59,0,12,,,,,,,,,,,,,,,,11,,62,0
13139,note_on,,59,0,8,,,,,,,,,,,,,,,,6,,62,0
13140,note_on,,1,0,15,,,,,,,,,,,,,,,,15,,53,72
13140,note_on,,1,0,13,,,,,,,,,,,,,,,,12,,53,72
13140,note_on,,1,0,14,,,,,,,,,,,,,,,,13,,53,72
13140,note_on,,1,0,9,,,,,,,,,,,,,,,,7,,53,72
13140,note_on,,1,0,8,,,,,,,,,,,,,,,,6,,60,72
13140,note_on,,1,0,12,,,,,,,,,,,,,,,,11,,60,72
13199,note_on,,59,0,9,,,,,,,,,,,,,,,,7,,53,0
13199,note_on,,59,0,14,,,,,,,,,,,,,,,,13,,53,0
13199,note_on,,0,0,15,,,,,,,,,,,,,,,,15,,56,0
13199,note_on,,59,0,15,,,,,,,,,,,,,,,,15,,62,0
13199,note_on,,0,0,15,,,,,,,,,,,,,,,,15,,65,0
13199,note_on,,0,0,15,,,,,,,,,,,,,,,,15,,53,0
13199,note_on,,59,0,12,,,,,,,,,,,,,,,,11,,60,0
13199,note_on,,59,0,13,,,,,,,,,,,,,,,,12,,53,0
13199,note_on,,59,0,8,,,,,,,,,,,,,,,,6,,60,0
13200,note_on,,1,0,9,,,,,,,,,,,,,,,,7,,55,72
13200,note_on,,0,0,15,,,,,,,,,,,,,,,,15,,58,72
13200,note_on,,1,0,12,,,,,,,,,,,,,,,,11,,58,72
13200,note_on,,1,0,15,,,,,,,,,,,,,,,,15,,55,72
13200,note_on,,0,0,15,,,,,,,,,,,,,,,,15,,63,72
13200,note_on,,1,0,14,,,,,,,,,,,,,,,,13,,55,72
13200,note_on,,1,0,13,,,,,,,,,,,,,,,,12,,55,72
13200,note_on,,1,0,8,,,,,,,,,,,,,,,,6,,58,72
13259,note_on,,59,0,12,,,,,,,,,,,,,,,,11,,58,0
13259,note_on,,59,0,8,,,,,,,,,,,,,,,,6,,58,0
13260,note_on,,1,0,8,,,,,,,,,,,,,,,,6,,63,72
13260,note_on,,1,0,12,,,,,,,,,,,,,,,,11,,63,72
13319,note_on,,119,0,15,,,,,,,,,,,,,,,,15,,63,0
13319,note_on,,0,0,15,,,,,,,,,,,,,,,,15,,58,0
13320,note_on,,361,0,11,,,,,,,,,,,,,,,,10,,70,72
13320,note_on,,361,0,5,,,,,,,,,,,,,,,,1,,70,72
13320,note_on,,1,0,15,,,,,,,,,,,,,,,,15,,70,72
13320,note_on,,0,0,15,,,,,,,,,,,,,,,,15,,63,72
13320,note_on,,0,0,15,,,,,,,,,,,,,,,,15,,58,72
13320,note_on,,361,0,7,,,,,,,,,,,,,,,,5,,70,72
13379,note_on,,179,0,13,,,,,,,,,,,,,,,,12,,55,0
13379,note_on,,59,0,15,,,,,,,,,,,,,,,,15,,55,0
13379,note_on,,179,0,14,,,,,,,,,,,,,,,,13,,55,0
13379,note_on,,119,0,8,,,,,,,,,,,,,,,,6,,63,0
13379,note_on,,119,0,12,,,,,,,,,,,,,,,,11,,63,0
13379,note_on,,179,0,9,,,,,,,,,,,,,,,,7,,55,0
13380,note_on,,1,0,13,,,,,,,,,,,,,,,,12,,55,72
13380,note_on,,1,0,14,,,,,,,,,,,,,,,,13,,55,72
13380,note_on,,1,0,8,,,,,,,,,,,,,,,,6,,62,72
13380,note_on,,1,0,15,,,,,,,,,,,,,,,,15,,55,72
13380,note_on,,1,0,12,,,,,,,,,,,,,,,,11,,62,72
13380,note_on,,1,0,9,,,,,,,,,,,,,,,,7,,55,72
13439,note_on,,59,0,12,,,,,,,,,,,,,,,,11,,62,0
13439,note_on,,0,0,15,,,,,,,,,,,,,,,,15,,63,0
13439,note_on,,0,0,15,,,,,,,,,,,,,,,,15,,58,0
13439,note_on,,0,0,15,,,,,,,,,,,,,,,,15,,55,0
13439,note_on,,59,0,15,,,,,,,,,,,,,,,,15,,70,0
13439,note_on,,59,0,8,,,,,,,,,,,,,,,,6,,62,0
13439,note_on,,59,0,9,,,,,,,,,,,,,,,,7,,55,0
13439,note_on,,59,0,13,,,,,,,,,,,,,,,,12,,55,0
13439,note_on,,119,0,7,,,,,,,,,,,,,,,,5,,70,0
13439,note_on,,119,0,11,,,,,,,,,,,,,,,,10,,70,0
13439,note_on,,59,0,14,,,,,,,,,,,,,,,,13,,55,0
13439,note_on,,119,0,5,,,,,,,,,,,,,,,,1,,70,0
13440,note_on,,0,0,15,,,,,,,,,,,,,,,,15,,60,72
13440,note_on,,0,0,15,,,,,,,,,,,,,,,,15,,63,72
13440,note_on,,1,0,15,,,,,,,,,,,,,,,,15,,56,72
13440,note_on,,1,0,11,,,,,,,,,,,,,,,,10,,63,72
13440,note_on,,1,0,13,,,,,,,,,,,,,,,,12,,56,72
13440,note_on,,1,0,8,,,,,,,,,,,,,,,,6,,60,72
13440,note_on,,1,0,14,,,,,,,,,,,,,,,,13,,56,72
13440,note_on,,1,0,7,,,,,,,,,,,,,,,,5,,63,72
13440,note_on,,1,0,5,,,,,,,,,,,,,,,,1,,63,72
13440,note_on,,1,0,9,,,,,,,,,,,,,,,,7,,56,72
13440,note_on,,1,0,12,,,,,,,,,,,,,,,,11,,60,72
13499,note_on,,59,0,9,,,,,,,,,,,,,,,,7,,56,0
13499,note_on,,59,0,15,,,,,,,,,,,,,,,,15,,56,0
13499,note_on,,0,0,15,,,,,,,,,,,,,,,,15,,60,0
13499,note_on,,59,0,13,,,,,,,,,,,,,,,,12,,56,0
13499,note_on,,59,0,12,,,,,,,,,,,,,,,,11,,60,0
13499,note_on,,59,0,14,,,,,,,,,,,,,,,,13,,56,0
13499,note_on,,59,0,8,,,,,,,,,,,,,,,,6,,60,0
13500,note_on,,1,0,12,,,,,,,,,,,,,,,,11,,58,72
13500,note_on,,1,0,13,,,,,,,,,,,,,,,,12,,55,72
13500,note_on,,1,0,14,,,,,,,,,,,,,,,,13,,55,72
13500,note_on,,0,0,15,,,,,,,,,,,,,,,,15,,58,72
13500,note_on,,1,0,9,,,,,,,,,,,,,,,,7,,55,72
13500,note_on,,1,0,8,,,,,,,,,,,,,,,,6,,58,72
13500,note_on,,1,0,15,,,,,,,,,,,,,,,,15,,55,72
13559,note_on,,0,0,15,,,,,,,,,,,,,,,,15,,58,0
13559,note_on,,59,0,15,,,,,,,,,,,,,,,,15,,63,0
13559,note_on,,0,0,15,,,,,,,,,,,,,,,,15,,55,0
13559,note_on,,59,0,8,,,,,,,,,,,,,,,,6,,58,0
13559,note_on,,59,0,9,,,,,,,,,,,,,,,,7,,55,0
13559,note_on,,119,0,5,,,,,,,,,,,,,,,,1,,63,0
13559,note_on,,59,0,13,,,,,,,,,,,,,,,,12,,55,0
13559,note_on,,119,0,7,,,,,,,,,,,,,,,,5,,63,0
13559,note_on,,59,0,14,,,,,,,,,,,,,,,,13,,55,0
13559,note_on,,59,0,12,,,,,,,,,,,,,,,,11,,58,0
13559,note_on,,119,0,11,,,,,,,,,,,,,,,,10,,63,0
13560,note_on,,1,0,11,,,,,,,,,,,,,,,,10,,65,72
13560,note_on,,1,0,14,,,,,,,,,,,,,,,,13,,56,72
13560,note_on,,1,0,13,,,,,,,,,,,,,,,,12,,56,72
13560,note_on,,0,0,15,,,,,,,,,,,,,,,,15,,65,72
13560,note_on,,1,0,15,,,,,,,,,,,,,,,,15,,56,72
13560,note_on,,1,0,7,,,,,,,,,,,,,,,,5,,65,72
13560,note_on,,1,0,5,,,,,,,,,,,,,,,,1,,65,72
13560,note_on,,1,0,8,,,,,,,,,,,,,,,,6,,60,72
13560,note_on,,1,0,9,,,,,,,,,,,,,,,,7,,56,72
13560,note_on,,1,0,12,,,,,,,,,,,,,,,,11,,60,72
13560,note_on,,0,0,15,,,,,,,,,,,,,,,,15,,60,72
13619,note_on,,59,0,15,,,,,,,,,,,,,,,,15,,56,0
13619,note_on,,59,0,7,,,,,,,,,,,,,,,,5,,65,0
13619,note_on,,0,0,15,,,,,,,,,,,,,,,,15,,60,0
13619,note_on,,59,0,5,,,,,,,,,,,,,,,,1,,65,0
13619,note_on,,59,0,12,,,,,,,,,,,,,,,,11,,60,0
13619,note_on,,59,0,14,,,,,,,,,,,,,,,,13,,56,0
13619,note_on,,59,0,9,,,,,,,,,,,,,,,,7,,56,0
13619,note_on,,59,0,13,,,,,,,,,,,,,,,,12,,56,0
13619,note_on,,59,0,8,,,,,,,,,,,,,,,,6,,60,0
13619,note_on,,59,0,11,,,,,,,,,,,,,,,,10,,65,0
13620,note_on,,1,0,11,,,,,,,,,,,,,,,,10,,65,72
13620,note_on,,1,0,5,,,,,,,,,,,,,,,,1,,65,72
13620,note_on,,1,0,13,,,,,,,,,,,,,,,,12,,53,72
13620,note_on,,1,0,12,,,,,,,,,,,,,,,,11,,62,72
13620,note_on,,1,0,9,,,,,,,,,,,,,,,,7,,53,72
13620,note_on,,1,0,14,,,,,,,,,,,,,,,,13,,58,72
13620,note_on,,1,0,8,,,,,,,,,,,,,,,,6,,62,72
13620,note_on,,1,0,15,,,,,,,,,,,,,,,,15,,58,72
13620,note_on,,0,0,15,,,,,,,,,,,,,,,,15,,62,72
13620,note_on,,1,0,7,,,,,,,,,,,,,,,,5,,65,72
13679,note_on,,59,0,14,,,,,,,,,,,,,,,,13,,58,0
13679,note_on,,59,0,11,,,,,,,,,,,,,,,,10,,65,0
13679,note_on,,59,0,8,,,,,,,,,,,,,,,,6,,62,0
13679,note_on,,0,0,15,,,,,,,,,,,,,,,,15,,62,0
13679,note_on,,0,0,15,,,,,,,,,,,,,,,,15,,58,0
13679,note_on,,59,0,9,,,,,,,,,,,,,,,,7,,53,0
13679,note_on,,59,0,12,,,,,,,,,,,,,,,,11,,62,0
13679,note_on,,59,0,15,,,,,,,,,,,,,,,,15,,65,0
13679,note_on,,59,0,7,,,,,,,,,,,,,,,,5,,65,0
13679,note_on,,59,0,13,,,,,,,,,,,,,,,,12,,53,0
13679,note_on,,59,0,5,,,,,,,,,,,,,,,,1,,65,0
13680,note_on,,1,0,13,,,,,,,,,,,,,,,,12,,51,72
13680,note_on,,0,0,15,,,,,,,,,,,,,,,,15,,67,72
13680,note_on,,1,0,11,,,,,,,,,,,,,,,,10,,67,72
13680,note_on,,1,0,14,,,,,,,,,,,,,,,,13,,51,72
13680,note_on,,0,0,15,,,,,,,,,,,,,,,,15,,63,72
13680,note_on,,1,0,7,,,,,,,,,,,,,,,,5,,67,72
13680,note_on,,1,0,12,,,,,,,,,,,,,,,,11,,63,72
13680,note_on,,1,0,9,,,,,,,,,,,,,,,,7,,51,72
13680,note_on,,1,0,15,,,,,,,,,,,,,,,,15,,51,72
13680,note_on,,0,0,15,,,,,,,,,,,,,,,,15,,58,72
13680,note_on,,1,0,5,,,,,,,,,,,,,,,,1,,67,72
13680,note_on,,1,0,8,,,,,,,,,,,,,,,,6,,63,72
13739,note_on,,59,0,5,,,,,,,,,,,,,,,,1,,67,0
13739,note_on,,59,0,13,,,,,,,,,,,,,,,,12,,51,0
13739,note_on,,59,0,11,,,,,,,,,,,,,,,,10,,67,0
13739,note_on,,59,0,14,,,,,,,,,,,,,,,,13,,51,0
13739,note_on,,59,0,15,,,,,,,,,,,,,,,,15,,51,0
13739,note_on,,0,0,15,,,,,,,,,,,,,,,,15,,58,0
13739,note_on,,59,0,7,,,,,,,,,,,,,,,,5,,67,0
13739,note_on,,59,0,9,,,,,,,,,,,,,,,,7,,51,0
13740,note_on,,1,0,5,,,,,,,,,,,,,,,,1,,63,72
13740,note_on,,1,0,11,,,,,,,,,,,,,,,,10,,63,72
13740,note_on,,1,0,7,,,,,,,,,,,,,,,,5,,63,72
13740,note_on,,1,0,14,,,,,,,,,,,,,,,,13,,63,72
13740,note_on,,1,0,9,,,,,,,,,,,,,,,,7,,63,72
13740,note_on,,1,0,15,,,,,,,,,,,,,,,,15,,63,72
13740,note_on,,1,0,13,,,,,,,,,,,,,,,,12,,63,72
13799,note_on,,59,0,13,,,,,,,,,,,,,,,,12,,63,0
13799,note_on,,59,0,5,,,,,,,,,,,,,,,,1,,63,0
13799,note_on,,119,0,12,,,,,,,,,,,,,,,,11,,63,0
13799,note_on,,59,0,14,,,,,,,,,,,,,,,,13,,63,0
13799,note_on,,59,0,7,,,,,,,,,,,,,,,,5,,63,0
13799,note_on,,59,0,11,,,,,,,,,,,,,,,,10,,63,0
13799,note_on,,59,0,9,,,,,,,,,,,,,,,,7,,63,0
13799,note_on,,119,0,8,,,,,,,,,,,,,,,,6,,63,0
13799,note_on,,0,0,15,,,,,,,,,,,,,,,,15,,63,0
13799,note_on,,0,0,15,,,,,,,,,,,,,,,,15,,67,0
13799,note_on,,59,0,15,,,,,,,,,,,,,,,,15,,63,0
13800,note_on,,1,0,9,,,,,,,,,,,,,,,,7,,65,72
13800,note_on,,1,0,15,,,,,,,,,,,,,,,,15,,65,72
13800,note_on,,1,0,13,,,,,,,,,,,,,,,,12,,65,72
13800,note_on,,1,0,14,,,,,,,,,,,,,,,,13,,65,72
13800,note_on,,1,0,7,,,,,,,,,,,,,,,,5,,68,72
13800,note_on,,0,0,15,,,,,,,,,,,,,,,,15,,68,72
13800,note_on,,1,0,5,,,,,,,,,,,,,,,,1,,68,72
13800,note_on,,1,0,11,,,,,,,,,,,,,,,,10,,68,72
13859,note_on,,59,0,14,,,,,,,,,,,,,,,,13,,65,0
13859,note_on,,59,0,13,,,,,,,,,,,,,,,,12,,65,0
13859,note_on,,59,0,15,,,,,,,,,,,,,,,,15,,65,0
13859,note_on,,59,0,9,,,,,,,,,,,,,,,,7,,65,0
13860,note_on,,1,0,14,,,,,,,,,,,,,,,,13,,63,72
13860,note_on,,1,0,9,,,,,,,,,,,,,,,,7,,63,72
13860,note_on,,1,0,13,,,,,,,,,,,,,,,,12,,63,72
13860,note_on,,1,0,15,,,,,,,,,,,,,,,,15,,63,72
13919,note_on,,59,0,15,,,,,,,,,,,,,,,,15,,63,0
13919,note_on,,59,0,9,,,,,,,,,,,,,,,,7,,63,0
13919,note_on,,59,0,14,,,,,,,,,,,,,,,,13,,63,0
13919,note_on,,59,0,13,,,,,,,,,,,,,,,,12,,63,0
13920,note_on,,0,0,15,,,,,,,,,,,,,,,,15,,70,72
13920,note_on,,1,0,15,,,,,,,,,,,,,,,,15,,62,72
13920,note_on,,1,0,13,,,,,,,,,,,,,,,,12,,62,72
13920,note_on,,1,0,14,,,,,,,,,,,,,,,,13,,62,72
13920,note_on,,1,0,9,,,,,,,,,,,,,,,,7,,62,72
13979,note_on,,179,0,5,,,,,,,,,,,,,,,,1,,68,0
13979,note_on,,179,0,7,,,,,,,,,,,,,,,,5,,68,0
13979,note_on,,59,0,15,,,,,,,,,,,,,,,,15,,62,0
13979,note_on,,59,0,9,,,,,,,,,,,,,,,,7,,62,0
13979,note_on,,179,0,11,,,,,,,,,,,,,,,,10,,68,0
13979,note_on,,59,0,13,,,,,,,,,,,,,,,,12,,62,0
13979,note_on,,59,0,14,,,,,,,,,,,,,,,,13,,62,0
13980,note_on,,1,0,11,,,,,,,,,,,,,,,,10,,67,72
13980,note_on,,1,0,7,,,,,,,,,,,,,,,,5,,67,72
13980,note_on,,181,0,8,,,,,,,,,,,,,,,,6,,62,72
13980,note_on,,1,0,15,,,,,,,,,,,,,,,,15,,58,72
13980,note_on,,181,0,12,,,,,,,,,,,,,,,,11,,62,72
13980,note_on,,1,0,14,,,,,,,,,,,,,,,,13,,58,72
13980,note_on,,1,0,9,,,,,,,,,,,,,,,,7,,58,72
13980,note_on,,1,0,5,,,,,,,,,,,,,,,,1,,67,72
13980,note_on,,1,0,13,,,,,,,,,,,,,,,,12,,58,72
14009,note_on,,29,0,5,,,,,,,,,,,,,,,,1,,67,0
14009,note_on,,29,0,7,,,,,,,,,,,,,,,,5,,67,0
14009,note_on,,29,0,11,,,,,,,,,,,,,,,,10,,67,0
14010,note_on,,1,0,11,,,,,,,,,,,,,,,,10,,65,72
14010,note_on,,1,0,7,,,,,,,,,,,,,,,,5,,65,72
14010,note_on,,1,0,5,,,,,,,,,,,,,,,,1,,65,72
14039,note_on,,29,0,7,,,,,,,,,,,,,,,,5,,65,0
14039,note_on,,0,0,15,,,,,,,,,,,,,,,,15,,70,0
14039,note_on,,59,0,14,,,,,,,,,,,,,,,,13,,58,0
14039,note_on,,59,0,15,,,,,,,,,,,,,,,,15,,68,0
14039,note_on,,29,0,5,,,,,,,,,,,,,,,,1,,65,0
14039,note_on,,59,0,13,,,,,,,,,,,,,,,,12,,58,0
14039,note_on,,59,0,9,,,,,,,,,,,,,,,,7,,58,0
14039,note_on,,0,0,15,,,,,,,,,,,,,,,,15,,58,0
14039,note_on,,59,0,8,,,,,,,,,,,,,,,,6,,62,0
14039,note_on,,59,0,12,,,,,,,,,,,,,,,,11,,62,0
14039,note_on,,29,0,11,,,,,,,,,,,,,,,,10,,65,0
14040,note_on,,1,0,7,,,,,,,,,,,,,,,,5,,67,72
14040,note_on,,1,0,11,,,,,,,,,,,,,,,,10,,67,72
14040,note_on,,1,0,12,,,,,,,,,,,,,,,,11,,63,72
14040,note_on,,1,0,15,,,,,,,,,,,,,,,,15,,63,72
14040,note_on,,0,0,15,,,,,,,,,,,,,,,,15,,67,72
14040,note_on,,1,0,9,,,,,,,,,,,,,,,,7,,63,72
14040,note_on,,1,0,5,,,,,,,,,,,,,,,,1,,67,72
14040,note_on,,1,0,14,,,,,,,,,,,,,,,,13,,63,72
14040,note_on,,1,0,13,,,,,,,,,,,,,,,,12,,63,72
14040,note_on,,1,0,8,,,,,,,,,,,,,,,,6,,63,72
14099,note_on,,59,0,11,,,,,,,,,,,,,,,,10,,67,0
14099,note_on,,59,0,15,,,,,,,,,,,,,,,,15,,63,0
14099,note_on,,0,0,15,,,,,,,,,,,,,,,,15,,67,0
14099,note_on,,59,0,14,,,,,,,,,,,,,,,,13,,63,0
14099,note_on,,59,0,7,,,,,,,,,,,,,,,,5,,67,0
14099,note_on,,59,0,5,,,,,,,,,,,,,,,,1,,67,0
14099,note_on,,59,0,8,,,,,,,,,,,,,,,,6,,63,0
14099,note_on,,59,0,12,,,,,,,,,,,,,,,,11,,63,0
14100,note_on,,0,0,15,,,,,,,,,,,,,,,,15,,68,72
14100,note_on,,1,0,15,,,,,,,,,,,,,,,,15,,65,72
14100,note_on,,1,0,12,,,,,,,,,,,,,,,,11,,65,72
14100,note_on,,1,0,7,,,,,,,,,,,,,,,,5,,68,72
14100,note_on,,1,0,11,,,,,,,,,,,,,,,,10,,68,72
14100,note_on,,1,0,14,,,,,,,,,,,,,,,,13,,65,72
14100,note_on,,1,0,8,,,,,,,,,,,,,,,,6,,65,72
14100,note_on,,1,0,5,,,,,,,,,,,,,,,,1,,68,72
14159,note_on,,59,0,5,,,,,,,,,,,,,,,,1,,68,0
14159,note_on,,119,0,13,,,,,,,,,,,,,,,,12,,63,0
14159,note_on,,0,0,15,,,,,,,,,,,,,,,,15,,68,0
14159,note_on,,59,0,15,,,,,,,,,,,,,,,,15,,65,0
14159,note_on,,119,0,9,,,,,,,,,,,,,,,,7,,63,0
14159,note_on,,59,0,12,,,,,,,,,,,,,,,,11,,65,0
14159,note_on,,59,0,8,,,,,,,,,,,,,,,,6,,65,0
14159,note_on,,59,0,14,,,,,,,,,,,,,,,,13,,65,0
14159,note_on,,59,0,7,,,,,,,,,,,,,,,,5,,68,0
14159,note_on,,59,0,11,,,,,,,,,,,,,,,,10,,68,0
14160,note_on,,1,0,12,,,,,,,,,,,,,,,,11,,67,72
14160,note_on,,1,0,14,,,,,,,,,,,,,,,,13,,67,72
14160,note_on,,1,0,5,,,,,,,,,,,,,,,,1,,70,72
14160,note_on,,1,0,8,,,,,,,,,,,,,,,,6,,67,72
14160,note_on,,1,0,15,,,,,,,,,,,,,,,,15,,67,72
14160,note_on,,1,0,7,,,,,,,,,,,,,,,,5,,70,72
14160,note_on,,0,0,15,,,,,,,,,,,,,,,,15,,70,72
14160,note_on,,1,0,11,,,,,,,,,,,,,,,,10,,70,72
14219,note_on,,59,0,5,,,,,,,,,,,,,,,,1,,70,0
14219,note_on,,59,0,14,,,,,,,,,,,,,,,,13,,67,0
14219,note_on,,59,0,12,,,,,,,,,,,,,,,,11,,67,0
14219,note_on,,0,0,15,,,,,,,,,,,,,,,,15,,70,0
14219,note_on,,59,0,7,,,,,,,,,,,,,,,,5,,70,0
14219,note_on,,59,0,8,,,,,,,,,,,,,,,,6,,67,0
14219,note_on,,59,0,11,,,,,,,,,,,,,,,,10,,70,0
14219,note_on,,59,0,15,,,,,,,,,,,,,,,,15,,67,0
14220,note_on,,1,0,11,,,,,,,,,,,,,,,,10,,67,72
14220,note_on,,0,0,15,,,,,,,,,,,,,,,,15,,67,72
14220,note_on,,1,0,15,,,,,,,,,,,,,,,,15,,63,72
14220,note_on,,1,0,7,,,,,,,,,,,,,,,,5,,67,72
14220,note_on,,1,0,8,,,,,,,,,,,,,,,,6,,63,72
14220,note_on,,1,0,12,,,,,,,,,,,,,,,,11,,63,72
14220,note_on,,1,0,14,,,,,,,,,,,,,,,,13,,63,72
14220,note_on,,1,0,5,,,,,,,,,,,,,,,,1,,67,72
14279,note_on,,59,0,11,,,,,,,,,,,,,,,,10,,67,0
14279,note_on,,59,0,8,,,,,,,,,,,,,,,,6,,63,0
14279,note_on,,59,0,12,,,,,,,,,,,,,,,,11,,63,0
14279,note_on,,59,0,5,,,,,,,,,,,,,,,,1,,67,0
14279,note_on,,59,0,15,,,,,,,,,,,,,,,,15,,63,0
14279,note_on,,0,0,15,,,,,,,,,,,,,,,,15,,67,0
14279,note_on,,59,0,7,,,,,,,,,,,,,,,,5,,67,0
14279,note_on,,59,0,14,,,,,,,,,,,,,,,,13,,63,0
14280,note_on,,1,0,14,,,,,,,,,,,,,,,,13,,68,72
14280,note_on,,0,0,15,,,,,,,,,,,,,,,,15,,72,72
14280,note_on,,1,0,7,,,,,,,,,,,,,,,,5,,72,72
14280,note_on,,1,0,5,,,,,,,,,,,,,,,,1,,72,72
14280,note_on,,1,0,8,,,,,,,,,,,,,,,,6,,68,72
14280,note_on,,1,0,12,,,,,,,,,,,,,,,,11,,68,72
14280,note_on,,1,0,11,,,,,,,,,,,,,,,,10,,72,72
14280,note_on,,1,0,15,,,,,,,,,,,,,,,,15,,68,72
14339,note_on,,59,0,8,,,,,,,,,,,,,,,,6,,68,0
14339,note_on,,59,0,12,,,,,,,,,,,,,,,,11,,68,0
14339,note_on,,59,0,15,,,,,,,,,,,,,,,,15,,68,0
14339,note_on,,59,0,14,,,,,,,,,,,,,,,,13,,68,0
14340,note_on,,1,0,8,,,,,,,,,,,,,,,,6,,65,72
14340,note_on,,181,0,9,,,,,,,,,,,,,,,,7,,56,72
14340,note_on,,1,0,15,,,,,,,,,,,,,,,,15,,56,72
14340,note_on,,1,0,14,,,,,,,,,,,,,,,,13,,56,72
14340,note_on,,181,0,13,,,,,,,,,,,,,,,,12,,56,72
14340,note_on,,0,0,15,,,,,,,,,,,,,,,,15,,60,72
14340,note_on,,0,0,15,,,,,,,,,,,,,,,,15,,65,72
14340,note_on,,1,0,12,,,,,,,,,,,,,,,,11,,65,72
14399,note_on,,59,0,13,,,,,,,,,,,,,,,,12,,56,0
14399,note_on,,119,0,5,,,,,,,,,,,,,,,,1,,72,0
14399,note_on,,59,0,12,,,,,,,,,,,,,,,,11,,65,0
14399,note_on,,119,0,7,,,,,,,,,,,,,,,,5,,72,0
14399,note_on,,0,0,15,,,,,,,,,,,,,,,,15,,65,0
14399,note_on,,0,0,15,,,,,,,,,,,,,,,,15,,60,0
14399,note_on,,59,0,9,,,,,,,,,,,,,,,,7,,56,0
14399,note_on,,59,0,8,,,,,,,,,,,,,,,,6,,65,0
14399,note_on,,119,0,11,,,,,,,,,,,,,,,,10,,72,0
14399,note_on,,59,0,14,,,,,,,,,,,,,,,,13,,56,0
14399,note_on,,59,0,15,,,,,,,,,,,,,,,,15,,56,0
14400,note_on,,0,0,15,,,,,,,,,,,,,,,,15,,62,72
14400,note_on,,1,0,15,,,,,,,,,,,,,,,,15,,53,72
14400,note_on,,1,0,12,,,,,,,,,,,,,,,,11,,62,72
14400,note_on,,1,0,14,,,,,,,,,,,,,,,,13,,53,72
14400,note_on,,1,0,13,,,,,,,,,,,,,,,,12,,53,72
14400,note_on,,0,0,15,,,,,,,,,,,,,,,,15,,56,72
14400,note_on,,1,0,9,,,,,,,,,,,,,,,,7,,53,72
14400,note_on,,1,0,8,,,,,,,,,,,,,,,,6,,62,72
14459,note_on,,59,0,15,,,,,,,,,,,,,,,,15,,72,0
14460,note_on,,61,0,5,,,,,,,,,,,,,,,,1,,70,72
14460,note_on,,1,0,15,,,,,,,,,,,,,,,,15,,65,72
14460,note_on,,61,0,7,,,,,,,,,,,,,,,,5,,70,72
14460,note_on,,61,0,11,,,,,,,,,,,,,,,,10,,70,72
14519,note_on,,119,0,14,,,,,,,,,,,,,,,,13,,53,0
14519,note_on,,59,0,7,,,,,,,,,,,,,,,,5,,70,0
14519,note_on,,0,0,15,,,,,,,,,,,,,,,,15,,65,0
14519,note_on,,119,0,13,,,,,,,,,,,,,,,,12,,53,0
14519,note_on,,59,0,15,,,,,,,,,,,,,,,,15,,53,0
14519,note_on,,0,0,15,,,,,,,,,,,,,,,,15,,62,0
14519,note_on,,0,0,15,,,,,,,,,,,,,,,,15,,56,0
14519,note_on,,119,0,9,,,,,,,,,,,,,,,,7,,53,0
14519,note_on,,59,0,5,,,,,,,,,,,,,,,,1,,70,0
14519,note_on,,59,0,11,,,,,,,,,,,,,,,,10,,70,0
14520,note_on,,1,0,5,,,,,,,,,,,,,,,,1,,70,72
14520,note_on,,1,0,13,,,,,,,,,,,,,,,,12,,55,72
14520,note_on,,1,0,7,,,,,,,,,,,,,,,,5,,70,72
14520,note_on,,1,0,15,,,,,,,,,,,,,,,,15,,55,72
14520,note_on,,1,0,14,,,,,,,,,,,,,,,,13,,55,72
14520,note_on,,1,0,9,,,,,,,,,,,,,,,,7,,55,72
14520,note_on,,0,0,15,,,,,,,,,,,,,,,,15,,63,72
14520,note_on,,1,0,11,,,,,,,,,,,,,,,,10,,70,72
14520,note_on,,0,0,15,,,,,,,,,,,,,,,,15,,58,72
14520,note_on,,0,0,15,,,,,,,,,,,,,,,,15,,70,72
14579,note_on,,59,0,7,,,,,,,,,,,,,,,,5,,70,0
14579,note_on,,59,0,5,,,,,,,,,,,,,,,,1,,70,0
14579,note_on,,59,0,11,,,,,,,,,,,,,,,,10,,70,0
14579,note_on,,179,0,12,,,,,,,,,,,,,,,,11,,62,0
14579,note_on,,179,0,8,,,,,,,,,,,,,,,,6,,62,0
14580,note_on,,1,0,11,,,,,,,,,,,,,,,,10,,70,72
14580,note_on,,1,0,12,,,,,,,,,,,,,,,,11,,62,72
14580,note_on,,1,0,8,,,,,,,,,,,,,,,,6,,62,72
14580,note_on,,1,0,5,,,,,,,,,,,,,,,,1,,70,72
14580,note_on,,1,0,7,,,,,,,,,,,,,,,,5,,70,72
14639,note_on,,119,0,14,,,,,,,,,,,,,,,,13,,55,0
14639,note_on,,59,0,8,,,,,,,,,,,,,,,,6,,62,0
14639,note_on,,59,0,11,,,,,,,,,,,,,,,,10,,70,0
14639,note_on,,59,0,5,,,,,,,,,,,,,,,,1,,70,0
14639,note_on,,119,0,9,,,,,,,,,,,,,,,,7,,55,0
14639,note_on,,59,0,7,,,,,,,,,,,,,,,,5,,70,0
14639,note_on,,119,0,15,,,,,,,,,,,,,,,,15,,55,0
14639,note_on,,0,0,15,,,,,,,,,,,,,,,,15,,58,0
14639,note_on,,0,0,15,,,,,,,,,,,,,,,,15,,70,0
14639,note_on,,0,0,15,,,,,,,,,,,,,,,,15,,63,0
14639,note_on,,119,0,13,,,,,,,,,,,,,,,,12,,55,0
14639,note_on,,59,0,12,,,,,,,,,,,,,,,,11,,62,0
14640,note_on,,0,0,15,,,,,,,,,,,,,,,,15,,72,72
14640,note_on,,1,0,7,,,,,,,,,,,,,,,,5,,75,72
14640,note_on,,1,0,11,,,,,,,,,,,,,,,,10,,75,72
14640,note_on,,1,0,15,,,,,,,,,,,,,,,,15,,51,72
14640,note_on,,0,0,15,,,,,,,,,,,,,,,,15,,60,72
14640,note_on,,0,0,15,,,,,,,,,,,,,,,,15,,75,72
14640,note_on,,1,0,8,,,,,,,,,,,,,,,,6,,60,72
14640,note_on,,0,0,15,,,,,,,,,,,,,,,,15,,70,72
14640,note_on,,1,0,5,,,,,,,,,,,,,,,,1,,75,72
14640,note_on,,1,0,14,,,,,,,,,,,,,,,,13,,51,72
14640,note_on,,1,0,9,,,,,,,,,,,,,,,,7,,51,72
14640,note_on,,1,0,13,,,,,,,,,,,,,,,,12,,51,72
14640,note_on,,1,0,12,,,,,,,,,,,,,,,,11,,60,72
14699,note_on,,59,0,5,,,,,,,,,,,,,,,,1,,75,0
14699,note_on,,59,0,7,,,,,,,,,,,,,,,,5,,75,0
14699,note_on,,59,0,11,,,,,,,,,,,,,,,,10,,75,0
14700,note_on,,1,0,7,,,,,,,,,,,,,,,,5,,68,72
14700,note_on,,1,0,5,,,,,,,,,,,,,,,,1,,68,72
14700,note_on,,1,0,11,,,,,,,,,,,,,,,,10,,68,72
14759,note_on,,119,0,15,,,,,,,,,,,,,,,,15,,51,0
14759,note_on,,119,0,9,,,,,,,,,,,,,,,,7,,51,0
14759,note_on,,59,0,5,,,,,,,,,,,,,,,,1,,68,0
14759,note_on,,59,0,7,,,,,,,,,,,,,,,,5,,68,0
14759,note_on,,119,0,14,,,,,,,,,,,,,,,,13,,51,0
14759,note_on,,119,0,13,,,,,,,,,,,,,,,,12,,51,0
14759,note_on,,0,0,15,,,,,,,,,,,,,,,,15,,60,0
14759,note_on,,0,0,15,,,,,,,,,,,,,,,,15,,70,0
14759,note_on,,59,0,11,,,,,,,,,,,,,,,,10,,68,0
14760,note_on,,1,0,7,,,,,,,,,,,,,,,,5,,68,72
14760,note_on,,1,0,13,,,,,,,,,,,,,,,,12,,53,72
14760,note_on,,1,0,5,,,,,,,,,,,,,,,,1,,68,72
14760,note_on,,1,0,14,,,,,,,,,,,,,,,,13,,53,72
14760,note_on,,1,0,9,,,,,,,,,,,,,,,,7,,53,72
14760,note_on,,0,0,15,,,,,,,,,,,,,,,,15,,68,72
14760,note_on,,1,0,15,,,,,,,,,,,,,,,,15,,53,72
14760,note_on,,1,0,11,,,,,,,,,,,,,,,,10,,68,72
14760,note_on,,0,0,15,,,,,,,,,,,,,,,,15,,60,72
14819,note_on,,179,0,12,,,,,,,,,,,,,,,,11,,60,0
14819,note_on,,179,0,8,,,,,,,,,,,,,,,,6,,60,0
14820,note_on,,1,0,8,,,,,,,,,,,,,,,,6,,60,72
14820,note_on,,1,0,12,,,,,,,,,,,,,,,,11,,60,72
14879,note_on,,119,0,14,,,,,,,,,,,,,,,,13,,53,0
14879,note_on,,119,0,9,,,,,,,,,,,,,,,,7,,53,0
14879,note_on,,119,0,5,,,,,,,,,,,,,,,,1,,68,0
14879,note_on,,59,0,8,,,,,,,,,,,,,,,,6,,60,0
14879,note_on,,0,0,15,,,,,,,,,,,,,,,,15,,53,0
14879,note_on,,0,0,15,,,,,,,,,,,,,,,,15,,60,0
14879,note_on,,0,0,15,,,,,,,,,,,,,,,,15,,68,0
14879,note_on,,119,0,13,,,,,,,,,,,,,,,,12,,53,0
14879,note_on,,119,0,11,,,,,,,,,,,,,,,,10,,68,0
14879,note_on,,0,0,15,,,,,,,,,,,,,,,,15,,72,0
14879,note_on,,119,0,7,,,,,,,,,,,,,,,,5,,68,0
14879,note_on,,119,0,15,,,,,,,,,,,,,,,,15,,75,0
14879,note_on,,59,0,12,,,,,,,,,,,,,,,,11,,60,0
14880,note_on,,1,0,12,,,,,,,,,,,,,,,,11,,62,72
14880,note_on,,1,0,9,,,,,,,,,,,,,,,,7,,58,72
14880,note_on,,1,0,13,,,,,,,,,,,,,,,,12,,58,72
14880,note_on,,1,0,15,,,,,,,,,,,,,,,,15,,58,72
14880,note_on,,1,0,8,,,,,,,,,,,,,,,,6,,62,72
14880,note_on,,0,0,15,,,,,,,,,,,,,,,,15,,74,72
14880,note_on,,0,0,15,,,,,,,,,,,,,,,,15,,70,72
14880,note_on,,1,0,14,,,,,,,,,,,,,,,,13,,58,72
14880,note_on,,0,0,15,,,,,,,,,,,,,,,,15,,65,72
14939,note_on,,59,0,15,,,,,,,,,,,,,,,,15,,58,0
14939,note_on,,0,0,15,,,,,,,,,,,,,,,,15,,74,0
14939,note_on,,0,0,15,,,,,,,,,,,,,,,,15,,70,0
14939,note_on,,59,0,14,,,,,,,,,,,,,,,,13,,58,0
14939,note_on,,59,0,13,,,,,,,,,,,,,,,,12,,58,0
14939,note_on,,59,0,8,,,,,,,,,,,,,,,,6,,62,0
14939,note_on,,59,0,12,,,,,,,,,,,,,,,,11,,62,0
14939,note_on,,59,0,9,,,,,,,,,,,,,,,,7,,58,0
14940,note_on,,1,0,14,,,,,,,,,,,,,,,,13,,56,72
14940,note_on,,1,0,12,,,,,,,,,,,,,,,,11,,62,72
14940,note_on,,61,0,11,,,,,,,,,,,,,,,,10,,72,72
14940,note_on,,1,0,13,,,,,,,,,,,,,,,,12,,56,72
14940,note_on,,61,0,5,,,,,,,,,,,,,,,,1,,72,72
14940,note_on,,1,0,8,,,,,,,,,,,,,,,,6,,62,72
14940,note_on,,61,0,7,,,,,,,,,,,,,,,,5,,72,72
14940,note_on,,1,0,15,,,,,,,,,,,,,,,,15,,56,72
14940,note_on,,0,0,15,,,,,,,,,,,,,,,,15,,77,72
14940,note_on,,0,0,15,,,,,,,,,,,,,,,,15,,72,72
14940,note_on,,1,0,9,,,,,,,,,,,,,,,,7,,56,72
14999,note_on,,59,0,9,,,,,,,,,,,,,,,,7,,56,0
14999,note_on,,59,0,13,,,,,,,,,,,,,,,,12,,56,0
14999,note_on,,59,0,12,,,,,,,,,,,,,,,,11,,62,0
14999,note_on,,59,0,5,,,,,,,,,,,,,,,,1,,72,0
14999,note_on,,59,0,7,,,,,,,,,,,,,,,,5,,72,0
14999,note_on,,59,0,11,,,,,,,,,,,,,,,,10,,72,0
14999,note_on,,59,0,14,,,,,,,,,,,,,,,,13,,56,0
14999,note_on,,0,0,15,,,,,,,,,,,,,,,,15,,72,0
14999,note_on,,0,0,15,,,,,,,,,,,,,,,,15,,77,0
14999,note_on,,0,0,15,,,,,,,,,,,,,,,,15,,56,0
14999,note_on,,59,0,15,,,,,,,,,,,,,,,,15,,65,0
14999,note_on,,59,0,8,,,,,,,,,,,,,,,,6,,62,0
15000,note_on,,1,0,13,,,,,,,,,,,,,,,,12,,55,72
15000,note_on,,0,0,15,,,,,,,,,,,,,,,,15,,75,72
15000,note_on,,1,0,7,,,,,,,,,,,,,,,,5,,70,72
15000,note_on,,0,0,15,,,,,,,,,,,,,,,,15,,55,72
15000,note_on,,1,0,15,,,,,,,,,,,,,,,,15,,70,72
15000,note_on,,1,0,11,,,,,,,,,,,,,,,,10,,70,72
15000,note_on,,1,0,9,,,,,,,,,,,,,,,,7,,55,72
15000,note_on,,1,0,5,,,,,,,,,,,,,,,,1,,70,72
15000,note_on,,1,0,14,,,,,,,,,,,,,,,,13,,55,72
15000,note_on,,1,0,8,,,,,,,,,,,,,,,,6,,63,72
15000,note_on,,1,0,12,,,,,,,,,,,,,,,,11,,63,72
15000,note_on,,0,0,15,,,,,,,,,,,,,,,,15,,67,72
15059,note_on,,59,0,9,,,,,,,,,,,,,,,,7,,55,0
15059,note_on,,59,0,11,,,,,,,,,,,,,,,,10,,70,0
15059,note_on,,59,0,7,,,,,,,,,,,,,,,,5,,70,0
15059,note_on,,59,0,14,,,,,,,,,,,,,,,,13,,55,0
15059,note_on,,59,0,8,,,,,,,,,,,,,,,,6,,63,0
15059,note_on,,59,0,12,,,,,,,,,,,,,,,,11,,63,0
15059,note_on,,59,0,15,,,,,,,,,,,,,,,,15,,70,0
15059,note_on,,59,0,5,,,,,,,,,,,,,,,,1,,70,0
15059,note_on,,59,0,13,,,,,,,,,,,,,,,,12,,55,0
15059,note_on,,0,0,15,,,,,,,,,,,,,,,,15,,67,0
15059,note_on,,0,0,15,,,,,,,,,,,,,,,,15,,55,0
15060,note_on,,1,0,7,,,,,,,,,,,,,,,,5,,68,72
15060,note_on,,1,0,5,,,,,,,,,,,,,,,,1,,68,72
15060,note_on,,1,0,8,,,,,,,,,,,,,,,,6,,63,72
15060,note_on,,0,0,15,,,,,,,,,,,,,,,,15,,65,72
15060,note_on,,1,0,14,,,,,,,,,,,,,,,,13,,56,72
15060,note_on,,1,0,15,,,,,,,,,,,,,,,,15,,56,72
15060,note_on,,0,0,15,,,,,,,,,,,,,,,,15,,68,72
15060,note_on,,1,0,11,,,,,,,,,,,,,,,,10,,68,72
15060,note_on,,1,0,12,,,,,,,,,,,,,,,,11,,63,72
15060,note_on,,1,0,9,,,,,,,,,,,,,,,,7,,56,72
15060,note_on,,1,0,13,,,,,,,,,,,,,,,,12,,56,72
15119,note_on,,59,0,9,,,,,,,,,,,,,,,,7,,56,0
15119,note_on,,59,0,5,,,,,,,,,,,,,,,,1,,68,0
15119,note_on,,59,0,8,,,,,,,,,,,,,,,,6,,63,0
15119,note_on,,59,0,12,,,,,,,,,,,,,,,,11,,63,0
15119,note_on,,59,0,14,,,,,,,,,,,,,,,,13,,56,0
15119,note_on,,0,0,15,,,,,,,,,,,,,,,,15,,65,0
15119,note_on,,0,0,15,,,,,,,,,,,,,,,,15,,68,0
15119,note_on,,59,0,15,,,,,,,,,,,,,,,,15,,56,0
15119,note_on,,59,0,13,,,,,,,,,,,,,,,,12,,56,0
15119,note_on,,59,0,11,,,,,,,,,,,,,,,,10,,68,0
15119,note_on,,59,0,7,,,,,,,,,,,,,,,,5,,68,0
15120,note_on,,0,0,15,,,,,,,,,,,,,,,,15,,63,72
15120,note_on,,1,0,14,,,,,,,,,,,,,,,,13,,58,72
15120,note_on,,1,0,7,,,,,,,,,,,,,,,,5,,67,72
15120,note_on,,1,0,12,,,,,,,,,,,,,,,,11,,63,72
15120,note_on,,1,0,9,,,,,,,,,,,,,,,,7,,58,72
15120,note_on,,1,0,8,,,,,,,,,,,,,,,,6,,63,72
15120,note_on,,0,0,15,,,,,,,,,,,,,,,,15,,67,72
15120,note_on,,1,0,11,,,,,,,,,,,,,,,,10,,67,72
15120,note_on,,1,0,13,,,,,,,,,,,,,,,,12,,58,72
15120,note_on,,1,0,5,,,,,,,,,,,,,,,,1,,67,72
15120,note_on,,1,0,15,,,,,,,,,,,,,,,,15,,58,72
15179,note_on,,59,0,15,,,,,,,,,,,,,,,,15,,58,0
15179,note_on,,0,0,15,,,,,,,,,,,,,,,,15,,67,0
15179,note_on,,59,0,14,,,,,,,,,,,,,,,,13,,58,0
15180,note_on,,1,0,14,,,,,,,,,,,,,,,,13,,46,72
15180,note_on,,1,0,15,,,,,,,,,,,,,,,,15,,46,72
15180,note_on,,0,0,15,,,,,,,,,,,,,,,,15,,68,72
15180,note_on,,2341,0,6,,,,,,,,,,,,,,,,2,,46,72
15180,note_on,,2341,0,10,,,,,,,,,,,,,,,,8,,46,64
15239,note_on,,59,0,6,,,,,,,,,,,,,,,,2,,46,0
15239,note_on,,59,0,10,,,,,,,,,,,,,,,,8,,46,0
15239,note_on,,119,0,11,,,,,,,,,,,,,,,,10,,67,0
15239,note_on,,119,0,12,,,,,,,,,,,,,,,,11,,63,0
15239,note_on,,119,0,8,,,,,,,,,,,,,,,,6,,63,0
15239,note_on,,59,0,14,,,,,,,,,,,,,,,,13,,46,0
15239,note_on,,0,0,15,,,,,,,,,,,,,,,,15,,68,0
15239,note_on,,119,0,7,,,,,,,,,,,,,,,,5,,67,0
15239,note_on,,59,0,15,,,,,,,,,,,,,,,,15,,75,0
15239,note_on,,0,0,15,,,,,,,,,,,,,,,,15,,63,0
15239,note_on,,0,0,15,,,,,,,,,,,,,,,,15,,46,0
15239,note_on,,119,0,5,,,,,,,,,,,,,,,,1,,67,0
15240,note_on,,1,0,15,,,,,,,,,,,,,,,,15,,58,72
15240,note_on,,1,0,8,,,,,,,,,,,,,,,,6,,62,72
15240,note_on,,1,0,12,,,,,,,,,,,,,,,,11,,62,72
15240,note_on,,1,0,6,,,,,,,,,,,,,,,,2,,58,72
15240,note_on,,1,0,7,,,,,,,,,,,,,,,,5,,65,72
15240,note_on,,1,0,11,,,,,,,,,,,,,,,,10,,65,72
15240,note_on,,1,0,5,,,,,,,,,,,,,,,,1,,65,72
15240,note_on,,1,0,14,,,,,,,,,,,,,,,,13,,58,72
15240,note_on,,0,0,15,,,,,,,,,,,,,,,,15,,70,72
15240,note_on,,0,0,15,,,,,,,,,,,,,,,,15,,65,72
15240,note_on,,0,0,15,,,,,,,,,,,,,,,,15,,74,72
15240,note_on,,1,0,10,,,,,,,,,,,,,,,,8,,58,64
15299,note_on,,179,0,9,,,,,,,,,,,,,,,,7,,58,0
15299,note_on,,59,0,10,,,,,,,,,,,,,,,,8,,58,0
15299,note_on,,59,0,6,,,,,,,,,,,,,,,,2,,58,0
15299,note_on,,59,0,15,,,,,,,,,,,,,,,,15,,58,0
15299,note_on,,179,0,13,,,,,,,,,,,,,,,,12,,58,0
15299,note_on,,59,0,14,,,,,,,,,,,,,,,,13,,58,0
15300,note_on,,1,0,14,,,,,,,,,,,,,,,,13,,56,72
15300,note_on,,1,0,10,,,,,,,,,,,,,,,,8,,56,64
15300,note_on,,1,0,6,,,,,,,,,,,,,,,,2,,56,72
15300,note_on,,1,0,13,,,,,,,,,,,,,,,,12,,58,72
15300,note_on,,1,0,15,,,,,,,,,,,,,,,,15,,56,72
15300,note_on,,1,0,9,,,,,,,,,,,,,,,,7,,58,72
15359,note_on,,59,0,13,,,,,,,,,,,,,,,,12,,58,0
15359,note_on,,0,0,15,,,,,,,,,,,,,,,,15,,56,0
15359,note_on,,0,0,15,,,,,,,,,,,,,,,,15,,65,0
15359,note_on,,59,0,6,,,,,,,,,,,,,,,,2,,56,0
15359,note_on,,119,0,5,,,,,,,,,,,,,,,,1,,65,0
15359,note_on,,59,0,10,,,,,,,,,,,,,,,,8,,56,0
15359,note_on,,59,0,9,,,,,,,,,,,,,,,,7,,58,0
15359,note_on,,59,0,14,,,,,,,,,,,,,,,,13,,56,0
15359,note_on,,0,0,15,,,,,,,,,,,,,,,,15,,70,0
15359,note_on,,119,0,12,,,,,,,,,,,,,,,,11,,62,0
15359,note_on,,119,0,7,,,,,,,,,,,,,,,,5,,65,0
15359,note_on,,59,0,15,,,,,,,,,,,,,,,,15,,74,0
15359,note_on,,119,0,11,,,,,,,,,,,,,,,,10,,65,0
15359,note_on,,119,0,8,,,,,,,,,,,,,,,,6,,62,0
15360,note_on,,1,0,8,,,,,,,,,,,,,,,,6,,63,72
15360,note_on,,1,0,14,,,,,,,,,,,,,,,,13,,55,72
15360,note_on,,1,0,11,,,,,,,,,,,,,,,,10,,63,72
15360,note_on,,1,0,15,,,,,,,,,,,,,,,,15,,55,72
15360,note_on,,0,0,15,,,,,,,,,,,,,,,,15,,70,72
15360,note_on,,0,0,15,,,,,,,,,,,,,,,,15,,63,72
15360,note_on,,1,0,10,,,,,,,,,,,,,,,,8,,55,64
15360,note_on,,1,0,9,,,,,,,,,,,,,,,,7,,58,72
15360,note_on,,1,0,13,,,,,,,,,,,,,,,,12,,58,72
15360,note_on,,1,0,7,,,,,,,,,,,,,,,,5,,63,72
15360,note_on,,1,0,6,,,,,,,,,,,,,,,,2,,55,72
15360,note_on,,1,0,5,,,,,,,,,,,,,,,,1,,63,72
15360,note_on,,0,0,15,,,,,,,,,,,,,,,,15,,75,72
15360,note_on,,1,0,12,,,,,,,,,,,,,,,,11,,63,72
15419,note_on,,59,0,9,,,,,,,,,,,,,,,,7,,58,0
15419,note_on,,59,0,13,,,,,,,,,,,,,,,,12,,58,0
15420,note_on,,1,0,9,,,,,,,,,,,,,,,,7,,58,64
15420,note_on,,1,0,13,,,,,,,,,,,,,,,,12,,58,64
15449,note_on,,89,0,10,,,,,,,,,,,,,,,,8,,55,0
15449,note_on,,89,0,14,,,,,,,,,,,,,,,,13,,55,0
15449,note_on,,89,0,6,,,,,,,,,,,,,,,,2,,55,0
15449,note_on,,89,0,15,,,,,,,,,,,,,,,,15,,55,0
15449,note_on,,0,0,15,,,,,,,,,,,,,,,,15,,70,0
15450,note_on,,0,0,15,,,,,,,,,,,,,,,,15,,68,72
15450,note_on,,1,0,14,,,,,,,,,,,,,,,,13,,53,72
15450,note_on,,1,0,6,,,,,,,,,,,,,,,,2,,53,72
15450,note_on,,1,0,10,,,,,,,,,,,,,,,,8,,53,64
15450,note_on,,1,0,15,,,,,,,,,,,,,,,,15,,53,72
15479,note_on,,119,0,11,,,,,,,,,,,,,,,,10,,63,0
15479,note_on,,29,0,14,,,,,,,,,,,,,,,,13,,53,0
15479,note_on,,119,0,8,,,,,,,,,,,,,,,,6,,63,0
15479,note_on,,29,0,10,,,,,,,,,,,,,,,,8,,53,0
15479,note_on,,59,0,9,,,,,,,,,,,,,,,,7,,58,0
15479,note_on,,119,0,7,,,,,,,,,,,,,,,,5,,63,0
15479,note_on,,59,0,13,,,,,,,,,,,,,,,,12,,58,0
15479,note_on,,119,0,12,,,,,,,,,,,,,,,,11,,63,0
15479,note_on,,0,0,15,,,,,,,,,,,,,,,,15,,68,0
15479,note_on,,0,0,15,,,,,,,,,,,,,,,,15,,53,0
15479,note_on,,0,0,15,,,,,,,,,,,,,,,,15,,63,0
15479,note_on,,29,0,15,,,,,,,,,,,,,,,,15,,75,0
15479,note_on,,119,0,5,,,,,,,,,,,,,,,,1,,63,0
15479,note_on,,29,0,6,,,,,,,,,,,,,,,,2,,53,0
15480,note_on,,1,0,9,,,,,,,,,,,,,,,,7,,63,64
15480,note_on,,1,0,13,,,,,,,,,,,,,,,,12,,63,64
15480,note_on,,1,0,14,,,,,,,,,,,,,,,,13,,51,72
15480,note_on,,0,0,15,,,,,,,,,,,,,,,,15,,67,72
15480,note_on,,1,0,10,,,,,,,,,,,,,,,,8,,51,64
15480,note_on,,1,0,6,,,,,,,,,,,,,,,,2,,51,72
15480,note_on,,1,0,15,,,,,,,,,,,,,,,,15,,51,72
15480,note_on,,0,0,15,,,,,,,,,,,,,,,,15,,63,72
15480,note_on,,0,0,15,,,,,,,,,,,,,,,,15,,70,72
15539,note_on,,59,0,9,,,,,,,,,,,,,,,,7,,63,0
15539,note_on,,59,0,13,,,,,,,,,,,,,,,,12,,63,0
15539,note_on,,59,0,15,,,,,,,,,,,,,,,,15,,63,0
15539,note_on,,0,0,15,,,,,,,,,,,,,,,,15,,67,0
15539,note_on,,0,0,15,,,,,,,,,,,,,,,,15,,70,0
15540,note_on,,1,0,13,,,,,,,,,,,,,,,,12,,63,64
15540,note_on,,1,0,9,,,,,,,,,,,,,,,,7,,63,64
15540,note_on,,0,0,15,,,,,,,,,,,,,,,,15,,67,72
15540,note_on,,1,0,15,,,,,,,,,,,,,,,,15,,75,72
15540,note_on,,0,0,15,,,,,,,,,,,,,,,,15,,70,72
15599,note_on,,0,0,15,,,,,,,,,,,,,,,,15,,75,0
15599,note_on,,119,0,6,,,,,,,,,,,,,,,,2,,51,0
15599,note_on,,59,0,15,,,,,,,,,,,,,,,,15,,51,0
15599,note_on,,59,0,9,,,,,,,,,,,,,,,,7,,63,0
15599,note_on,,0,0,15,,,,,,,,,,,,,,,,15,,70,0
15599,note_on,,119,0,10,,,,,,,,,,,,,,,,8,,51,0
15599,note_on,,119,0,14,,,,,,,,,,,,,,,,13,,51,0
15599,note_on,,0,0,15,,,,,,,,,,,,,,,,15,,67,0
15599,note_on,,59,0,13,,,,,,,,,,,,,,,,12,,63,0
15600,note_on,,1,0,14,,,,,,,,,,,,,,,,13,,58,72
15600,note_on,,1,0,15,,,,,,,,,,,,,,,,15,,58,72
15600,note_on,,0,0,15,,,,,,,,,,,,,,,,15,,70,72
15600,note_on,,0,0,15,,,,,,,,,,,,,,,,15,,65,72
15600,note_on,,1,0,9,,,,,,,,,,,,,,,,7,,62,64
15600,note_on,,1,0,6,,,,,,,,,,,,,,,,2,,58,72
15600,note_on,,0,0,15,,,,,,,,,,,,,,,,15,,74,72
15600,note_on,,1,0,13,,,,,,,,,,,,,,,,12,,62,64
15659,note_on,,59,0,6,,,,,,,,,,,,,,,,2,,58,0
15659,note_on,,59,0,14,,,,,,,,,,,,,,,,13,,58,0
15659,note_on,,59,0,15,,,,,,,,,,,,,,,,15,,58,0
15659,note_on,,0,0,15,,,,,,,,,,,,,,,,15,,65,0
15660,note_on,,1,0,14,,,,,,,,,,,,,,,,13,,46,72
15660,note_on,,1,0,6,,,,,,,,,,,,,,,,2,,46,72
15660,note_on,,181,0,12,,,,,,,,,,,,,,,,11,,65,64
15660,note_on,,1,0,15,,,,,,,,,,,,,,,,15,,46,72
15660,note_on,,181,0,8,,,,,,,,,,,,,,,,6,,65,64
15660,note_on,,0,0,15,,,,,,,,,,,,,,,,15,,62,72
15689,note_on,,89,0,13,,,,,,,,,,,,,,,,12,,62,0
15689,note_on,,89,0,9,,,,,,,,,,,,,,,,7,,62,0
15690,note_on,,1,0,9,,,,,,,,,,,,,,,,7,,60,64
15690,note_on,,1,0,13,,,,,,,,,,,,,,,,12,,60,64
15719,note_on,,59,0,6,,,,,,,,,,,,,,,,2,,46,0
15719,note_on,,29,0,9,,,,,,,,,,,,,,,,7,,60,0
15719,note_on,,59,0,15,,,,,,,,,,,,,,,,15,,46,0
15719,note_on,,0,0,15,,,,,,,,,,,,,,,,15,,62,0
15719,note_on,,59,0,8,,,,,,,,,,,,,,,,6,,65,0
15719,note_on,,29,0,13,,,,,,,,,,,,,,,,12,,60,0
15719,note_on,,59,0,12,,,,,,,,,,,,,,,,11,,65,0
15719,note_on,,59,0,14,,,,,,,,,,,,,,,,13,,46,0
15720,note_on,,1,0,15,,,,,,,,,,,,,,,,15,,50,72
15720,note_on,,1,0,14,,,,,,,,,,,,,,,,13,,50,72
15720,note_on,,1,0,9,,,,,,,,,,,,,,,,7,,58,64
15720,note_on,,1,0,12,,,,,,,,,,,,,,,,11,,70,64
15720,note_on,,1,0,13,,,,,,,,,,,,,,,,12,,58,64
15720,note_on,,1,0,8,,,,,,,,,,,,,,,,6,,70,64
15720,note_on,,1,0,6,,,,,,,,,,,,,,,,2,,50,72
15720,note_on,,0,0,15,,,,,,,,,,,,,,,,15,,65,72
15779,note_on,,0,0,15,,,,,,,,,,,,,,,,15,,70,0
15779,note_on,,0,0,15,,,,,,,,,,,,,,,,15,,50,0
15779,note_on,,59,0,15,,,,,,,,,,,,,,,,15,,74,0
15779,note_on,,59,0,14,,,,,,,,,,,,,,,,13,,50,0
15779,note_on,,59,0,6,,,,,,,,,,,,,,,,2,,50,0
15779,note_on,,0,0,15,,,,,,,,,,,,,,,,15,,65,0
15779,note_on,,59,0,12,,,,,,,,,,,,,,,,11,,70,0
15779,note_on,,59,0,8,,,,,,,,,,,,,,,,6,,70,0
15780,note_on,,1,0,12,,,,,,,,,,,,,,,,11,,70,64
15780,note_on,,1,0,14,,,,,,,,,,,,,,,,13,,52,72
15780,note_on,,1,0,8,,,,,,,,,,,,,,,,6,,70,64
15780,note_on,,0,0,15,,,,,,,,,,,,,,,,15,,74,72
15780,note_on,,0,0,15,,,,,,,,,,,,,,,,15,,67,72
15780,note_on,,1,0,15,,,,,,,,,,,,,,,,15,,70,72
15780,note_on,,0,0,15,,,,,,,,,,,,,,,,15,,52,72
15780,note_on,,1,0,6,,,,,,,,,,,,,,,,2,,52,72
15839,note_on,,59,0,15,,,,,,,,,,,,,,,,15,,70,0
15839,note_on,,0,0,15,,,,,,,,,,,,,,,,15,,52,0
15839,note_on,,0,0,15,,,,,,,,,,,,,,,,15,,67,0
15839,note_on,,119,0,13,,,,,,,,,,,,,,,,12,,58,0
15839,note_on,,59,0,14,,,,,,,,,,,,,,,,13,,52,0
15839,note_on,,119,0,9,,,,,,,,,,,,,,,,7,,58,0
15839,note_on,,59,0,8,,,,,,,,,,,,,,,,6,,70,0
15839,note_on,,59,0,12,,,,,,,,,,,,,,,,11,,70,0
15839,note_on,,0,0,15,,,,,,,,,,,,,,,,15,,74,0
15839,note_on,,59,0,6,,,,,,,,,,,,,,,,2,,52,0
15840,note_on,,1,0,6,,,,,,,,,,,,,,,,2,,53,72
15840,note_on,,1,0,8,,,,,,,,,,,,,,,,6,,68,64
15840,note_on,,0,0,15,,,,,,,,,,,,,,,,15,,68,72
15840,note_on,,1,0,14,,,,,,,,,,,,,,,,13,,53,72
15840,note_on,,0,0,15,,,,,,,,,,,,,,,,15,,60,72
15840,note_on,,1,0,15,,,,,,,,,,,,,,,,15,,53,72
15840,note_on,,0,0,15,,,,,,,,,,,,,,,,15,,72,72
15840,note_on,,1,0,12,,,,,,,,,,,,,,,,11,,68,64
15899,note_on,,59,0,14,,,,,,,,,,,,,,,,13,,53,0
15899,note_on,,59,0,15,,,,,,,,,,,,,,,,15,,53,0
15899,note_on,,0,0,15,,,,,,,,,,,,,,,,15,,60,0
15899,note_on,,59,0,6,,,,,,,,,,,,,,,,2,,53,0
15900,note_on,,1,0,14,,,,,,,,,,,,,,,,13,,55,72
15900,note_on,,421,0,5,,,,,,,,,,,,,,,,1,,72,64
15900,note_on,,421,0,7,,,,,,,,,,,,,,,,5,,72,64
15900,note_on,,1,0,15,,,,,,,,,,,,,,,,15,,55,72
15900,note_on,,0,0,15,,,,,,,,,,,,,,,,15,,64,72
15900,note_on,,421,0,11,,,,,,,,,,,,,,,,10,,72,64
15900,note_on,,1,0,6,,,,,,,,,,,,,,,,2,,55,72
15929,note_on,,89,0,12,,,,,,,,,,,,,,,,11,,68,0
15929,note_on,,89,0,8,,,,,,,,,,,,,,,,6,,68,0
15930,note_on,,1,0,12,,,,,,,,,,,,,,,,11,,67,64
15930,note_on,,1,0,8,,,,,,,,,,,,,,,,6,,67,64
15959,note_on,,59,0,7,,,,,,,,,,,,,,,,5,,72,0
15959,note_on,,59,0,14,,,,,,,,,,,,,,,,13,,55,0
15959,note_on,,29,0,12,,,,,,,,,,,,,,,,11,,67,0
15959,note_on,,29,0,8,,,,,,,,,,,,,,,,6,,67,0
15959,note_on,,59,0,5,,,,,,,,,,,,,,,,1,,72,0
15959,note_on,,59,0,11,,,,,,,,,,,,,,,,10,,72,0
15959,note_on,,59,0,6,,,,,,,,,,,,,,,,2,,55,0
15959,note_on,,59,0,15,,,,,,,,,,,,,,,,15,,55,0
15959,note_on,,0,0,15,,,,,,,,,,,,,,,,15,,64,0
15960,note_on,,1,0,14,,,,,,,,,,,,,,,,13,,56,72
15960,note_on,,1,0,8,,,,,,,,,,,,,,,,6,,65,64
15960,note_on,,0,0,15,,,,,,,,,,,,,,,,15,,65,72
15960,note_on,,1,0,12,,,,,,,,,,,,,,,,11,,65,64
15960,note_on,,1,0,7,,,,,,,,,,,,,,,,5,,77,64
15960,note_on,,1,0,6,,,,,,,,,,,,,,,,2,,56,72
15960,note_on,,1,0,5,,,,,,,,,,,,,,,,1,,77,64
15960,note_on,,1,0,15,,,,,,,,,,,,,,,,15,,56,72
15960,note_on,,1,0,11,,,,,,,,,,,,,,,,10,,77,64
16019,note_on,,59,0,15,,,,,,,,,,,,,,,,15,,72,0
16019,note_on,,0,0,15,,,,,,,,,,,,,,,,15,,56,0
16019,note_on,,59,0,7,,,,,,,,,,,,,,,,5,,77,0
16019,note_on,,59,0,11,,,,,,,,,,,,,,,,10,,77,0
16019,note_on,,59,0,6,,,,,,,,,,,,,,,,2,,56,0
16019,note_on,,59,0,14,,,,,,,,,,,,,,,,13,,56,0
16019,note_on,,59,0,5,,,,,,,,,,,,,,,,1,,77,0
16020,note_on,,1,0,15,,,,,,,,,,,,,,,,15,,58,72
16020,note_on,,0,0,15,,,,,,,,,,,,,,,,15,,73,72
16020,note_on,,1,0,5,,,,,,,,,,,,,,,,1,,77,64
16020,note_on,,1,0,7,,,,,,,,,,,,,,,,5,,77,64
16020,note_on,,1,0,11,,,,,,,,,,,,,,,,10,,77,64
16020,note_on,,1,0,6,,,,,,,,,,,,,,,,2,,58,72
16020,note_on,,1,0,14,,,,,,,,,,,,,,,,13,,58,72
16079,note_on,,59,0,7,,,,,,,,,,,,,,,,5,,77,0
16079,note_on,,0,0,15,,,,,,,,,,,,,,,,15,,65,0
16079,note_on,,59,0,15,,,,,,,,,,,,,,,,15,,68,0
16079,note_on,,59,0,11,,,,,,,,,,,,,,,,10,,77,0
16079,note_on,,59,0,14,,,,,,,,,,,,,,,,13,,58,0
16079,note_on,,119,0,12,,,,,,,,,,,,,,,,11,,65,0
16079,note_on,,0,0,15,,,,,,,,,,,,,,,,15,,73,0
16079,note_on,,59,0,6,,,,,,,,,,,,,,,,2,,58,0
16079,note_on,,59,0,5,,,,,,,,,,,,,,,,1,,77,0
16079,note_on,,119,0,8,,,,,,,,,,,,,,,,6,,65,0
16079,note_on,,0,0,15,,,,,,,,,,,,,,,,15,,58,0
16080,note_on,,0,0,15,,,,,,,,,,,,,,,,15,,72,72
16080,note_on,,0,0,15,,,,,,,,,,,,,,,,15,,64,72
16080,note_on,,1,0,14,,,,,,,,,,,,,,,,13,,60,72
16080,note_on,,1,0,15,,,,,,,,,,,,,,,,15,,60,72
16080,note_on,,1,0,11,,,,,,,,,,,,,,,,10,,76,64
16080,note_on,,1,0,5,,,,,,,,,,,,,,,,1,,76,64
16080,note_on,,0,0,15,,,,,,,,,,,,,,,,15,,67,72
16080,note_on,,1,0,6,,,,,,,,,,,,,,,,2,,60,72
16080,note_on,,1,0,7,,,,,,,,,,,,,,,,5,,76,64
16139,note_on,,59,0,15,,,,,,,,,,,,,,,,15,,60,0
16139,note_on,,59,0,14,,,,,,,,,,,,,,,,13,,60,0
16139,note_on,,59,0,6,,,,,,,,,,,,,,,,2,,60,0
16140,note_on,,1,0,6,,,,,,,,,,,,,,,,2,,55,72
16140,note_on,,541,0,10,,,,,,,,,,,,,,,,8,,55,64
16140,note_on,,1,0,14,,,,,,,,,,,,,,,,13,,55,72
16140,note_on,,1,0,15,,,,,,,,,,,,,,,,15,,55,72
16169,note_on,,89,0,5,,,,,,,,,,,,,,,,1,,76,0
16169,note_on,,89,0,11,,,,,,,,,,,,,,,,10,,76,0
16169,note_on,,29,0,15,,,,,,,,,,,,,,,,15,,67,0
16169,note_on,,89,0,7,,,,,,,,,,,,,,,,5,,76,0
16170,note_on,,1,0,15,,,,,,,,,,,,,,,,15,,65,72
16170,note_on,,1,0,11,,,,,,,,,,,,,,,,10,,74,64
16170,note_on,,1,0,7,,,,,,,,,,,,,,,,5,,74,64
16170,note_on,,1,0,5,,,,,,,,,,,,,,,,1,,74,64
16199,note_on,,29,0,15,,,,,,,,,,,,,,,,15,,64,0
16199,note_on,,59,0,10,,,,,,,,,,,,,,,,8,,55,0
16199,note_on,,29,0,5,,,,,,,,,,,,,,,,1,,74,0
16199,note_on,,59,0,14,,,,,,,,,,,,,,,,13,,55,0
16199,note_on,,59,0,6,,,,,,,,,,,,,,,,2,,55,0
16199,note_on,,29,0,7,,,,,,,,,,,,,,,,5,,74,0
16199,note_on,,29,0,11,,,,,,,,,,,,,,,,10,,74,0
16199,note_on,,0,0,15,,,,,,,,,,,,,,,,15,,65,0
16199,note_on,,0,0,15,,,,,,,,,,,,,,,,15,,55,0
16200,note_on,,1,0,14,,,,,,,,,,,,,,,,13,,60,72
16200,note_on,,1,0,5,,,,,,,,,,,,,,,,1,,72,64
16200,note_on,,1,0,15,,,,,,,,,,,,,,,,15,,60,72
16200,note_on,,0,0,15,,,,,,,,,,,,,,,,15,,64,72
16200,note_on,,1,0,7,,,,,,,,,,,,,,,,5,,72,64
16200,note_on,,1,0,10,,,,,,,,,,,,,,,,8,,60,64
16200,note_on,,1,0,11,,,,,,,,,,,,,,,,10,,72,64
16200,note_on,,1,0,6,,,,,,,,,,,,,,,,2,,60,72
16259,note_on,,59,0,14,,,,,,,,,,,,,,,,13,,60,0
16259,note_on,,59,0,10,,,,,,,,,,,,,,,,8,,60,0
16259,note_on,,0,0,15,,,,,,,,,,,,,,,,15,,60,0
16259,note_on,,59,0,6,,,,,,,,,,,,,,,,2,,60,0
16259,note_on,,59,0,15,,,,,,,,,,,,,,,,15,,72,0
16260,note_on,,1,0,14,,,,,,,,,,,,,,,,13,,58,72
16260,note_on,,0,0,15,,,,,,,,,,,,,,,,15,,67,72
16260,note_on,,1,0,15,,,,,,,,,,,,,,,,15,,58,72
16260,note_on,,1,0,6,,,,,,,,,,,,,,,,2,,58,72
16260,note_on,,1,0,10,,,,,,,,,,,,,,,,8,,58,64
16319,note_on,,59,0,14,,,,,,,,,,,,,,,,13,,58,0
16319,note_on,,0,0,15,,,,,,,,,,,,,,,,15,,67,0
16319,note_on,,0,0,15,,,,,,,,,,,,,,,,15,,58,0
16319,note_on,,59,0,15,,,,,,,,,,,,,,,,15,,64,0
16319,note_on,,119,0,7,,,,,,,,,,,,,,,,5,,72,0
16319,note_on,,59,0,6,,,,,,,,,,,,,,,,2,,58,0
16319,note_on,,59,0,10,,,,,,,,,,,,,,,,8,,58,0
16319,note_on,,119,0,5,,,,,,,,,,,,,,,,1,,72,0
16319,note_on,,119,0,11,,,,,,,,,,,,,,,,10,,72,0
16320,note_on,,1,0,15,,,,,,,,,,,,,,,,15,,56,72
16320,note_on,,0,0,15,,,,,,,,,,,,,,,,15,,65,72
16320,note_on,,0,0,15,,,,,,,,,,,,,,,,15,,60,72
16320,note_on,,1,0,6,,,,,,,,,,,,,,,,2,,56,72
16320,note_on,,1,0,10,,,,,,,,,,,,,,,,8,,56,64
16320,note_on,,1,0,14,,,,,,,,,,,,,,,,13,,56,72
16380,note_on,,301,0,12,,,,,,,,,,,,,,,,11,,60,64
16380,note_on,,301,0,8,,,,,,,,,,,,,,,,6,,60,64
16409,note_on,,89,0,10,,,,,,,,,,,,,,,,8,,56,0
16409,note_on,,0,0,15,,,,,,,,,,,,,,,,15,,60,0
16409,note_on,,0,0,15,,,,,,,,,,,,,,,,15,,65,0
16409,note_on,,89,0,15,,,,,,,,,,,,,,,,15,,56,0
16409,note_on,,89,0,6,,,,,,,,,,,,,,,,2,,56,0
16409,note_on,,89,0,14,,,,,,,,,,,,,,,,13,,56,0
16410,note_on,,0,0,15,,,,,,,,,,,,,,,,15,,58,72
16410,note_on,,1,0,6,,,,,,,,,,,,,,,,2,,55,72
16410,note_on,,1,0,15,,,,,,,,,,,,,,,,15,,55,72
16410,note_on,,1,0,10,,,,,,,,,,,,,,,,8,,55,64
16410,note_on,,0,0,15,,,,,,,,,,,,,,,,15,,64,72
16410,note_on,,1,0,14,,,,,,,,,,,,,,,,13,,55,72
16439,note_on,,29,0,6,,,,,,,,,,,,,,,,2,,55,0
16439,note_on,,29,0,10,,,,,,,,,,,,,,,,8,,55,0
16439,note_on,,29,0,15,,,,,,,,,,,,,,,,15,,55,0
16439,note_on,,59,0,12,,,,,,,,,,,,,,,,11,,60,0
16439,note_on,,59,0,8,,,,,,,,,,,,,,,,6,,60,0
16439,note_on,,0,0,15,,,,,,,,,,,,,,,,15,,58,0
16439,note_on,,0,0,15,,,,,,,,,,,,,,,,15,,64,0
16439,note_on,,29,0,14,,,,,,,,,,,,,,,,13,,55,0
16440,note_on,,1,0,12,,,,,,,,,,,,,,,,11,,65,64
16440,note_on,,1,0,10,,,,,,,,,,,,,,,,8,,53,64
16440,note_on,,1,0,6,,,,,,,,,,,,,,,,2,,56,72
16440,note_on,,1,0,8,,,,,,,,,,,,,,,,6,,65,64
16440,note_on,,0,0,15,,,,,,,,,,,,,,,,15,,60,72
16440,note_on,,0,0,15,,,,,,,,,,,,,,,,15,,65,72
16440,note_on,,1,0,15,,,,,,,,,,,,,,,,15,,56,72
16440,note_on,,1,0,14,,,,,,,,,,,,,,,,13,,56,72
16499,note_on,,59,0,12,,,,,,,,,,,,,,,,11,,65,0
16499,note_on,,59,0,14,,,,,,,,,,,,,,,,13,,56,0
16499,note_on,,59,0,8,,,,,,,,,,,,,,,,6,,65,0
16499,note_on,,59,0,6,,,,,,,,,,,,,,,,2,,56,0
16499,note_on,,0,0,15,,,,,,,,,,,,,,,,15,,60,0
16499,note_on,,0,0,15,,,,,,,,,,,,,,,,15,,65,0
16499,note_on,,59,0,15,,,,,,,,,,,,,,,,15,,56,0
16500,note_on,,0,0,15,,,,,,,,,,,,,,,,15,,68,72
16500,note_on,,1,0,6,,,,,,,,,,,,,,,,2,,53,72
16500,note_on,,0,0,15,,,,,,,,,,,,,,,,15,,65,72
16500,note_on,,0,0,15,,,,,,,,,,,,,,,,15,,60,72
16500,note_on,,1,0,12,,,,,,,,,,,,,,,,11,,65,64
16500,note_on,,1,0,14,,,,,,,,,,,,,,,,13,,53,72
16500,note_on,,1,0,8,,,,,,,,,,,,,,,,6,,65,64
16500,note_on,,1,0,15,,,,,,,,,,,,,,,,15,,53,72
16559,note_on,,59,0,15,,,,,,,,,,,,,,,,15,,53,0
16559,note_on,,59,0,12,,,,,,,,,,,,,,,,11,,65,0
16559,note_on,,0,0,15,,,,,,,,,,,,,,,,15,,68,0
16559,note_on,,0,0,15,,,,,,,,,,,,,,,,15,,65,0
16559,note_on,,119,0,10,,,,,,,,,,,,,,,,8,,53,0
16559,note_on,,59,0,14,,,,,,,,,,,,,,,,13,,53,0
16559,note_on,,59,0,8,,,,,,,,,,,,,,,,6,,65,0
16559,note_on,,59,0,6,,,,,,,,,,,,,,,,2,,53,0
16559,note_on,,0,0,15,,,,,,,,,,,,,,,,15,,60,0
16560,note_on,,1,0,15,,,,,,,,,,,,,,,,15,,60,72
16560,note_on,,0,0,15,,,,,,,,,,,,,,,,15,,67,72
16560,note_on,,0,0,15,,,,,,,,,,,,,,,,15,,64,72
16560,note_on,,1,0,12,,,,,,,,,,,,,,,,11,,64,64
16560,note_on,,1,0,14,,,,,,,,,,,,,,,,13,,60,72
16560,note_on,,1,0,8,,,,,,,,,,,,,,,,6,,64,64
16560,note_on,,1,0,6,,,,,,,,,,,,,,,,2,,60,72
16620,note_on,,301,0,7,,,,,,,,,,,,,,,,5,,67,64
16620,note_on,,301,0,11,,,,,,,,,,,,,,,,10,,67,64
16620,note_on,,301,0,5,,,,,,,,,,,,,,,,1,,67,64
16649,note_on,,89,0,8,,,,,,,,,,,,,,,,6,,64,0
16649,note_on,,89,0,12,,,,,,,,,,,,,,,,11,,64,0
16650,note_on,,1,0,12,,,,,,,,,,,,,,,,11,,62,64
16650,note_on,,1,0,8,,,,,,,,,,,,,,,,6,,62,64
16679,note_on,,119,0,14,,,,,,,,,,,,,,,,13,,60,0
16679,note_on,,59,0,7,,,,,,,,,,,,,,,,5,,67,0
16679,note_on,,119,0,6,,,,,,,,,,,,,,,,2,,60,0
16679,note_on,,0,0,15,,,,,,,,,,,,,,,,15,,64,0
16679,note_on,,0,0,15,,,,,,,,,,,,,,,,15,,67,0
16679,note_on,,119,0,15,,,,,,,,,,,,,,,,15,,60,0
16679,note_on,,29,0,12,,,,,,,,,,,,,,,,11,,62,0
16679,note_on,,29,0,8,,,,,,,,,,,,,,,,6,,62,0
16679,note_on,,59,0,5,,,,,,,,,,,,,,,,1,,67,0
16679,note_on,,59,0,11,,,,,,,,,,,,,,,,10,,67,0
16680,note_on,,1,0,15,,,,,,,,,,,,,,,,15,,52,72
16680,note_on,,0,0,15,,,,,,,,,,,,,,,,15,,72,72
16680,note_on,,1,0,14,,,,,,,,,,,,,,,,13,,52,72
16680,note_on,,1,0,5,,,,,,,,,,,,,,,,1,,72,64
16680,note_on,,0,0,15,,,,,,,,,,,,,,,,15,,60,72
16680,note_on,,1,0,11,,,,,,,,,,,,,,,,10,,72,64
16680,note_on,,1,0,7,,,,,,,,,,,,,,,,5,,72,64
16680,note_on,,1,0,12,,,,,,,,,,,,,,,,11,,60,64
16680,note_on,,1,0,8,,,,,,,,,,,,,,,,6,,60,64
16680,note_on,,0,0,15,,,,,,,,,,,,,,,,15,,67,72
16739,note_on,,59,0,7,,,,,,,,,,,,,,,,5,,72,0
16739,note_on,,59,0,14,,,,,,,,,,,,,,,,13,,52,0
16739,note_on,,59,0,11,,,,,,,,,,,,,,,,10,,72,0
16739,note_on,,59,0,5,,,,,,,,,,,,,,,,1,,72,0
16739,note_on,,0,0,15,,,,,,,,,,,,,,,,15,,60,0
16739,note_on,,59,0,15,,,,,,,,,,,,,,,,15,,52,0
16740,note_on,,1,0,14,,,,,,,,,,,,,,,,13,,48,72
16740,note_on,,1,0,5,,,,,,,,,,,,,,,,1,,70,64
16740,note_on,,0,0,15,,,,,,,,,,,,,,,,15,,63,72
16740,note_on,,901,0,13,,,,,,,,,,,,,,,,12,,60,64
16740,note_on,,901,0,9,,,,,,,,,,,,,,,,7,,60,64
16740,note_on,,1,0,11,,,,,,,,,,,,,,,,10,,70,64
16740,note_on,,1,0,7,,,,,,,,,,,,,,,,5,,70,64
16740,note_on,,1,0,15,,,,,,,,,,,,,,,,15,,48,72
16799,note_on,,59,0,15,,,,,,,,,,,,,,,,15,,67,0
16799,note_on,,0,0,15,,,,,,,,,,,,,,,,15,,63,0
16799,note_on,,59,0,7,,,,,,,,,,,,,,,,5,,70,0
16799,note_on,,0,0,15,,,,,,,,,,,,,,,,15,,48,0
16799,note_on,,59,0,13,,,,,,,,,,,,,,,,12,,60,0
16799,note_on,,59,0,5,,,,,,,,,,,,,,,,1,,70,0
16799,note_on,,59,0,9,,,,,,,,,,,,,,,,7,,60,0
16799,note_on,,119,0,12,,,,,,,,,,,,,,,,11,,60,0
16799,note_on,,119,0,8,,,,,,,,,,,,,,,,6,,60,0
16799,note_on,,59,0,11,,,,,,,,,,,,,,,,10,,70,0
16799,note_on,,59,0,14,,,,,,,,,,,,,,,,13,,48,0
16800,note_on,,1,0,5,,,,,,,,,,,,,,,,1,,68,64
16800,note_on,,1,0,9,,,,,,,,,,,,,,,,7,,53,64
16800,note_on,,0,0,15,,,,,,,,,,,,,,,,15,,68,72
16800,note_on,,0,0,15,,,,,,,,,,,,,,,,15,,65,72
16800,note_on,,1,0,11,,,,,,,,,,,,,,,,10,,68,64
16800,note_on,,1,0,7,,,,,,,,,,,,,,,,5,,68,64
16800,note_on,,1,0,13,,,,,,,,,,,,,,,,12,,53,64
16800,note_on,,1,0,15,,,,,,,,,,,,,,,,15,,53,72
16800,note_on,,1,0,14,,,,,,,,,,,,,,,,13,,53,72
16859,note_on,,59,0,5,,,,,,,,,,,,,,,,1,,68,0
16859,note_on,,59,0,7,,,,,,,,,,,,,,,,5,,68,0
16859,note_on,,59,0,11,,,,,,,,,,,,,,,,10,,68,0
16860,note_on,,1,0,7,,,,,,,,,,,,,,,,5,,67,64
16860,note_on,,1,0,5,,,,,,,,,,,,,,,,1,,67,64
16860,note_on,,1,0,11,,,,,,,,,,,,,,,,10,,67,64
16919,note_on,,119,0,14,,,,,,,,,,,,,,,,13,,53,0
16919,note_on,,59,0,5,,,,,,,,,,,,,,,,1,,67,0
16919,note_on,,119,0,15,,,,,,,,,,,,,,,,15,,72,0
16919,note_on,,119,0,9,,,,,,,,,,,,,,,,7,,53,0
16919,note_on,,119,0,13,,,,,,,,,,,,,,,,12,,53,0
16919,note_on,,59,0,7,,,,,,,,,,,,,,,,5,,67,0
16919,note_on,,0,0,15,,,,,,,,,,,,,,,,15,,68,0
16919,note_on,,0,0,15,,,,,,,,,,,,,,,,15,,53,0
16919,note_on,,59,0,11,,,,,,,,,,,,,,,,10,,67,0
16919,note_on,,0,0,15,,,,,,,,,,,,,,,,15,,65,0
16920,note_on,,1,0,5,,,,,,,,,,,,,,,,1,,65,64
16920,note_on,,1,0,11,,,,,,,,,,,,,,,,10,,65,64
16920,note_on,,1,0,14,,,,,,,,,,,,,,,,13,,55,72
16920,note_on,,1,0,7,,,,,,,,,,,,,,,,5,,65,64
16920,note_on,,1,0,13,,,,,,,,,,,,,,,,12,,55,64
16920,note_on,,1,0,15,,,,,,,,,,,,,,,,15,,55,72
16920,note_on,,1,0,9,,,,,,,,,,,,,,,,7,,55,64
16920,note_on,,0,0,15,,,,,,,,,,,,,,,,15,,70,72
16920,note_on,,0,0,15,,,,,,,,,,,,,,,,15,,67,72
16920,note_on,,0,0,15,,,,,,,,,,,,,,,,15,,58,72
16979,note_on,,59,0,15,,,,,,,,,,,,,,,,15,,55,0
16979,note_on,,59,0,14,,,,,,,,,,,,,,,,13,,55,0
16979,note_on,,59,0,5,,,,,,,,,,,,,,,,1,,65,0
16979,note_on,,59,0,13,,,,,,,,,,,,,,,,12,,55,0
16979,note_on,,59,0,11,,,,,,,,,,,,,,,,10,,65,0
16979,note_on,,59,0,9,,,,,,,,,,,,,,,,7,,55,0
16979,note_on,,59,0,7,,,,,,,,,,,,,,,,5,,65,0
16980,note_on,,1,0,15,,,,,,,,,,,,,,,,15,,55,72
16980,note_on,,1,0,5,,,,,,,,,,,,,,,,1,,64,64
16980,note_on,,1,0,11,,,,,,,,,,,,,,,,10,,64,64
16980,note_on,,1,0,13,,,,,,,,,,,,,,,,12,,55,64
16980,note_on,,1,0,7,,,,,,,,,,,,,,,,5,,64,64
16980,note_on,,1,0,9,,,,,,,,,,,,,,,,7,,55,64
16980,note_on,,1,0,14,,,,,,,,,,,,,,,,13,,55,72
17039,note_on,,59,0,7,,,,,,,,,,,,,,,,5,,64,0
17039,note_on,,59,0,11,,,,,,,,,,,,,,,,10,,64,0
17039,note_on,,59,0,14,,,,,,,,,,,,,,,,13,,55,0
17039,note_on,,59,0,15,,,,,,,,,,,,,,,,15,,70,0
17039,note_on,,0,0,15,,,,,,,,,,,,,,,,15,,67,0
17039,note_on,,0,0,15,,,,,,,,,,,,,,,,15,,58,0
17039,note_on,,0,0,15,,,,,,,,,,,,,,,,15,,55,0
17039,note_on,,59,0,5,,,,,,,,,,,,,,,,1,,64,0
17039,note_on,,59,0,13,,,,,,,,,,,,,,,,12,,55,0
17039,note_on,,59,0,9,,,,,,,,,,,,,,,,7,,55,0
17040,note_on,,0,0,15,,,,,,,,,,,,,,,,15,,68,72
17040,note_on,,0,0,15,,,,,,,,,,,,,,,,15,,65,72
17040,note_on,,0,0,15,,,,,,,,,,,,,,,,15,,60,72
17040,note_on,,1,0,9,,,,,,,,,,,,,,,,7,,56,64
17040,note_on,,1,0,11,,,,,,,,,,,,,,,,10,,65,64
17040,note_on,,1,0,15,,,,,,,,,,,,,,,,15,,56,72
17040,note_on,,1,0,13,,,,,,,,,,,,,,,,12,,56,64
17040,note_on,,1,0,14,,,,,,,,,,,,,,,,13,,56,72
17040,note_on,,1,0,5,,,,,,,,,,,,,,,,1,,65,64
17040,note_on,,1,0,7,,,,,,,,,,,,,,,,5,,65,64
17099,note_on,,59,0,14,,,,,,,,,,,,,,,,13,,56,0
17099,note_on,,59,0,13,,,,,,,,,,,,,,,,12,,56,0
17099,note_on,,59,0,15,,,,,,,,,,,,,,,,15,,56,0
17099,note_on,,59,0,9,,,,,,,,,,,,,,,,7,,56,0
17100,note_on,,1,0,9,,,,,,,,,,,,,,,,7,,53,64
17100,note_on,,301,0,8,,,,,,,,,,,,,,,,6,,68,64
17100,note_on,,301,0,12,,,,,,,,,,,,,,,,11,,68,64
17100,note_on,,1,0,15,,,,,,,,,,,,,,,,15,,53,72
17100,note_on,,1,0,14,,,,,,,,,,,,,,,,13,,53,72
17100,note_on,,1,0,13,,,,,,,,,,,,,,,,12,,53,64
17159,note_on,,119,0,5,,,,,,,,,,,,,,,,1,,65,0
17159,note_on,,0,0,15,,,,,,,,,,,,,,,,15,,60,0
17159,note_on,,0,0,15,,,,,,,,,,,,,,,,15,,53,0
17159,note_on,,59,0,12,,,,,,,,,,,,,,,,11,,68,0
17159,note_on,,59,0,8,,,,,,,,,,,,,,,,6,,68,0
17159,note_on,,119,0,11,,,,,,,,,,,,,,,,10,,65,0
17159,note_on,,59,0,15,,,,,,,,,,,,,,,,15,,68,0
17159,note_on,,59,0,13,,,,,,,,,,,,,,,,12,,53,0
17159,note_on,,59,0,14,,,,,,,,,,,,,,,,13,,53,0
17159,note_on,,59,0,9,,,,,,,,,,,,,,,,7,,53,0
17159,note_on,,119,0,7,,,,,,,,,,,,,,,,5,,65,0
17159,note_on,,0,0,15,,,,,,,,,,,,,,,,15,,65,0
17160,note_on,,1,0,11,,,,,,,,,,,,,,,,10,,73,64
17160,note_on,,1,0,8,,,,,,,,,,,,,,,,6,,67,64
17160,note_on,,0,0,15,,,,,,,,,,,,,,,,15,,61,72
17160,note_on,,1,0,7,,,,,,,,,,,,,,,,5,,73,64
17160,note_on,,0,0,15,,,,,,,,,,,,,,,,15,,67,72
17160,note_on,,1,0,15,,,,,,,,,,,,,,,,15,,58,72
17160,note_on,,1,0,12,,,,,,,,,,,,,,,,11,,67,64
17160,note_on,,1,0,5,,,,,,,,,,,,,,,,1,,73,64
17160,note_on,,1,0,9,,,,,,,,,,,,,,,,7,,58,64
17160,note_on,,0,0,15,,,,,,,,,,,,,,,,15,,70,72
17160,note_on,,1,0,13,,,,,,,,,,,,,,,,12,,58,64
17160,note_on,,1,0,14,,,,,,,,,,,,,,,,13,,58,72
17219,note_on,,59,0,12,,,,,,,,,,,,,,,,11,,67,0
17219,note_on,,59,0,8,,,,,,,,,,,,,,,,6,,67,0
17220,note_on,,1,0,8,,,,,,,,,,,,,,,,6,,65,64
17220,note_on,,1,0,12,,,,,,,,,,,,,,,,11,,65,64
17279,note_on,,59,0,8,,,,,,,,,,,,,,,,6,,65,0
17279,note_on,,0,0,15,,,,,,,,,,,,,,,,15,,61,0
17279,note_on,,0,0,15,,,,,,,,,,,,,,,,15,,67,0
17279,note_on,,119,0,15,,,,,,,,,,,,,,,,15,,70,0
17279,note_on,,119,0,7,,,,,,,,,,,,,,,,5,,73,0
17279,note_on,,119,0,11,,,,,,,,,,,,,,,,10,,73,0
17279,note_on,,59,0,12,,,,,,,,,,,,,,,,11,,65,0
17279,note_on,,119,0,5,,,,,,,,,,,,,,,,1,,73,0
17280,note_on,,1,0,7,,,,,,,,,,,,,,,,5,,72,64
17280,note_on,,1,0,5,,,,,,,,,,,,,,,,1,,72,64
17280,note_on,,1,0,12,,,,,,,,,,,,,,,,11,,64,64
17280,note_on,,1,0,11,,,,,,,,,,,,,,,,10,,72,64
17280,note_on,,1,0,8,,,,,,,,,,,,,,,,6,,64,64
17280,note_on,,1,0,15,,,,,,,,,,,,,,,,15,,67,72
17280,note_on,,0,0,15,,,,,,,,,,,,,,,,15,,64,72
17280,note_on,,0,0,15,,,,,,,,,,,,,,,,15,,60,72
17339,note_on,,179,0,9,,,,,,,,,,,,,,,,7,,58,0
17339,note_on,,179,0,14,,,,,,,,,,,,,,,,13,,58,0
17339,note_on,,179,0,13,,,,,,,,,,,,,,,,12,,58,0
17339,note_on,,59,0,12,,,,,,,,,,,,,,,,11,,64,0
17339,note_on,,59,0,15,,,,,,,,,,,,,,,,15,,58,0
17339,note_on,,59,0,8,,,,,,,,,,,,,,,,6,,64,0
17340,note_on,,1,0,9,,,,,,,,,,,,,,,,7,,56,64
17340,note_on,,1,0,12,,,,,,,,,,,,,,,,11,,60,64
17340,note_on,,1,0,8,,,,,,,,,,,,,,,,6,,60,64
17340,note_on,,1,0,14,,,,,,,,,,,,,,,,13,,56,72
17340,note_on,,1,0,15,,,,,,,,,,,,,,,,15,,56,72
17340,note_on,,1,0,13,,,,,,,,,,,,,,,,12,,56,64
17369,note_on,,29,0,15,,,,,,,,,,,,,,,,15,,56,0
17369,note_on,,29,0,9,,,,,,,,,,,,,,,,7,,56,0
17369,note_on,,29,0,14,,,,,,,,,,,,,,,,13,,56,0
17369,note_on,,29,0,13,,,,,,,,,,,,,,,,12,,56,0
17370,note_on,,1,0,15,,,,,,,,,,,,,,,,15,,55,72
17370,note_on,,1,0,13,,,,,,,,,,,,,,,,12,,55,64
17370,note_on,,1,0,14,,,,,,,,,,,,,,,,13,,55,72
17370,note_on,,1,0,9,,,,,,,,,,,,,,,,7,,55,64
17399,note_on,,29,0,13,,,,,,,,,,,,,,,,12,,55,0
17399,note_on,,59,0,8,,,,,,,,,,,,,,,,6,,60,0
17399,note_on,,0,0,15,,,,,,,,,,,,,,,,15,,55,0
17399,note_on,,29,0,15,,,,,,,,,,,,,,,,15,,67,0
17399,note_on,,0,0,15,,,,,,,,,,,,,,,,15,,64,0
17399,note_on,,29,0,14,,,,,,,,,,,,,,,,13,,55,0
17399,note_on,,29,0,9,,,,,,,,,,,,,,,,7,,55,0
17399,note_on,,0,0,15,,,,,,,,,,,,,,,,15,,60,0
17399,note_on,,59,0,12,,,,,,,,,,,,,,,,11,,60,0
17400,note_on,,1,0,15,,,,,,,,,,,,,,,,15,,56,72
17400,note_on,,0,0,15,,,,,,,,,,,,,,,,15,,60,72
17400,note_on,,1,0,8,,,,,,,,,,,,,,,,6,,65,64
17400,note_on,,1,0,9,,,,,,,,,,,,,,,,7,,56,64
17400,note_on,,1,0,13,,,,,,,,,,,,,,,,12,,56,64
17400,note_on,,0,0,15,,,,,,,,,,,,,,,,15,,72,72
17400,note_on,,1,0,14,,,,,,,,,,,,,,,,13,,56,72
17400,note_on,,1,0,12,,,,,,,,,,,,,,,,11,,65,64
17400,note_on,,0,0,15,,,,,,,,,,,,,,,,15,,65,72
17459,note_on,,0,0,15,,,,,,,,,,,,,,,,15,,60,0
17459,note_on,,0,0,15,,,,,,,,,,,,,,,,15,,72,0
17459,note_on,,59,0,13,,,,,,,,,,,,,,,,12,,56,0
17459,note_on,,59,0,14,,,,,,,,,,,,,,,,13,,56,0
17459,note_on,,59,0,15,,,,,,,,,,,,,,,,15,,56,0
17459,note_on,,59,0,9,,,,,,,,,,,,,,,,7,,56,0
17460,note_on,,1,0,9,,,,,,,,,,,,,,,,7,,58,64
17460,note_on,,1,0,15,,,,,,,,,,,,,,,,15,,58,72
17460,note_on,,0,0,15,,,,,,,,,,,,,,,,15,,73,72
17460,note_on,,1,0,14,,,,,,,,,,,,,,,,13,,58,72
17460,note_on,,1,0,13,,,,,,,,,,,,,,,,12,,58,64
17519,note_on,,59,0,15,,,,,,,,,,,,,,,,15,,65,0
17519,note_on,,0,0,15,,,,,,,,,,,,,,,,15,,58,0
17519,note_on,,0,0,15,,,,,,,,,,,,,,,,15,,73,0
17519,note_on,,59,0,14,,,,,,,,,,,,,,,,13,,58,0
17519,note_on,,239,0,5,,,,,,,,,,,,,,,,1,,72,0
17519,note_on,,59,0,13,,,,,,,,,,,,,,,,12,,58,0
17519,note_on,,239,0,7,,,,,,,,,,,,,,,,5,,72,0
17519,note_on,,239,0,11,,,,,,,,,,,,,,,,10,,72,0
17519,note_on,,59,0,9,,,,,,,,,,,,,,,,7,,58,0
17520,note_on,,1,0,13,,,,,,,,,,,,,,,,12,,60,64
17520,note_on,,1,0,14,,,,,,,,,,,,,,,,13,,60,72
17520,note_on,,0,0,15,,,,,,,,,,,,,,,,15,,67,72
17520,note_on,,0,0,15,,,,,,,,,,,,,,,,15,,65,72
17520,note_on,,1,0,15,,,,,,,,,,,,,,,,15,,60,72
17520,note_on,,1,0,9,,,,,,,,,,,,,,,,7,,60,64
17580,note_on,,61,0,5,,,,,,,,,,,,,,,,1,,67,64
17580,note_on,,61,0,11,,,,,,,,,,,,,,,,10,,67,64
17580,note_on,,61,0,7,,,,,,,,,,,,,,,,5,,67,64
17639,note_on,,0,0,15,,,,,,,,,,,,,,,,15,,67,0
17639,note_on,,119,0,15,,,,,,,,,,,,,,,,15,,65,0
17639,note_on,,239,0,8,,,,,,,,,,,,,,,,6,,65,0
17639,note_on,,239,0,12,,,,,,,,,,,,,,,,11,,65,0
17639,note_on,,59,0,11,,,,,,,,,,,,,,,,10,,67,0
17639,note_on,,59,0,5,,,,,,,,,,,,,,,,1,,67,0
17639,note_on,,59,0,7,,,,,,,,,,,,,,,,5,,67,0
17640,note_on,,1,0,11,,,,,,,,,,,,,,,,10,,72,64
17640,note_on,,0,0,15,,,,,,,,,,,,,,,,15,,67,72
17640,note_on,,1,0,12,,,,,,,,,,,,,,,,11,,63,64
17640,note_on,,0,0,15,,,,,,,,,,,,,,,,15,,72,72
17640,note_on,,1,0,15,,,,,,,,,,,,,,,,15,,63,72
17640,note_on,,1,0,7,,,,,,,,,,,,,,,,5,,72,64
17640,note_on,,1,0,8,,,,,,,,,,,,,,,,6,,63,64
17640,note_on,,1,0,5,,,,,,,,,,,,,,,,1,,72,64
17699,note_on,,59,0,5,,,,,,,,,,,,,,,,1,,72,0
17699,note_on,,179,0,14,,,,,,,,,,,,,,,,13,,60,0
17699,note_on,,59,0,15,,,,,,,,,,,,,,,,15,,60,0
17699,note_on,,179,0,9,,,,,,,,,,,,,,,,7,,60,0
17699,note_on,,59,0,8,,,,,,,,,,,,,,,,6,,63,0
17699,note_on,,59,0,7,,,,,,,,,,,,,,,,5,,72,0
17699,note_on,,179,0,13,,,,,,,,,,,,,,,,12,,60,0
17699,note_on,,59,0,12,,,,,,,,,,,,,,,,11,,63,0
17699,note_on,,59,0,11,,,,,,,,,,,,,,,,10,,72,0
17700,note_on,,1,0,14,,,,,,,,,,,,,,,,13,,60,72
17700,note_on,,1,0,11,,,,,,,,,,,,,,,,10,,70,64
17700,note_on,,1,0,5,,,,,,,,,,,,,,,,1,,70,64
17700,note_on,,1,0,8,,,,,,,,,,,,,,,,6,,62,64
17700,note_on,,1,0,9,,,,,,,,,,,,,,,,7,,60,64
17700,note_on,,1,0,12,,,,,,,,,,,,,,,,11,,62,64
17700,note_on,,1,0,13,,,,,,,,,,,,,,,,12,,60,64
17700,note_on,,1,0,7,,,,,,,,,,,,,,,,5,,70,64
17700,note_on,,1,0,15,,,,,,,,,,,,,,,,15,,60,72
17759,note_on,,59,0,14,,,,,,,,,,,,,,,,13,,60,0
17759,note_on,,59,0,11,,,,,,,,,,,,,,,,10,,70,0
17759,note_on,,59,0,8,,,,,,,,,,,,,,,,6,,62,0
17759,note_on,,59,0,7,,,,,,,,,,,,,,,,5,,70,0
17759,note_on,,59,0,13,,,,,,,,,,,,,,,,12,,60,0
17759,note_on,,0,0,15,,,,,,,,,,,,,,,,15,,72,0
17759,note_on,,59,0,15,,,,,,,,,,,,,,,,15,,63,0
17759,note_on,,59,0,12,,,,,,,,,,,,,,,,11,,62,0
17759,note_on,,59,0,9,,,,,,,,,,,,,,,,7,,60,0
17759,note_on,,59,0,5,,,,,,,,,,,,,,,,1,,70,0
17759,note_on,,0,0,15,,,,,,,,,,,,,,,,15,,67,0
17759,note_on,,0,0,15,,,,,,,,,,,,,,,,15,,60,0
17760,note_on,,1,0,12,,,,,,,,,,,,,,,,11,,60,64
17760,note_on,,1,0,9,,,,,,,,,,,,,,,,7,,53,64
17760,note_on,,1,0,13,,,,,,,,,,,,,,,,12,,53,64
17760,note_on,,1,0,5,,,,,,,,,,,,,,,,1,,69,64
17760,note_on,,1,0,14,,,,,,,,,,,,,,,,13,,53,72
17760,note_on,,1,0,15,,,,,,,,,,,,,,,,15,,53,72
17760,note_on,,0,0,15,,,,,,,,,,,,,,,,15,,60,72
17760,note_on,,1,0,11,,,,,,,,,,,,,,,,10,,69,64
17760,note_on,,1,0,7,,,,,,,,,,,,,,,,5,,69,64
17760,note_on,,1,0,8,,,,,,,,,,,,,,,,6,,60,64
17760,note_on,,0,0,15,,,,,,,,,,,,,,,,15,,65,72
17760,note_on,,0,0,15,,,,,,,,,,,,,,,,15,,69,72
17819,note_on,,59,0,15,,,,,,,,,,,,,,,,15,,53,0
17819,note_on,,59,0,14,,,,,,,,,,,,,,,,13,,53,0
17820,note_on,,1141,0,6,,,,,,,,,,,,,,,,2,,41,72
17820,note_on,,1,0,15,,,,,,,,,,,,,,,,15,,41,72
17820,note_on,,1,0,14,,,,,,,,,,,,,,,,13,,41,72
17820,note_on,,1261,0,10,,,,,,,,,,,,,,,,8,,53,64
17849,note_on,,89,0,5,,,,,,,,,,,,,,,,1,,69,0
17849,note_on,,89,0,7,,,,,,,,,,,,,,,,5,,69,0
17849,note_on,,89,0,11,,,,,,,,,,,,,,,,10,,69,0
17850,note_on,,1,0,11,,,,,,,,,,,,,,,,10,,67,64
17850,note_on,,1,0,5,,,,,,,,,,,,,,,,1,,67,64
17850,note_on,,1,0,7,,,,,,,,,,,,,,,,5,,67,64
17879,note_on,,29,0,7,,,,,,,,,,,,,,,,5,,67,0
17879,note_on,,59,0,6,,,,,,,,,,,,,,,,2,,41,0
17879,note_on,,59,0,15,,,,,,,,,,,,,,,,15,,41,0
17879,note_on,,119,0,8,,,,,,,,,,,,,,,,6,,60,0
17879,note_on,,29,0,5,,,,,,,,,,,,,,,,1,,67,0
17879,note_on,,59,0,14,,,,,,,,,,,,,,,,13,,41,0
17879,note_on,,59,0,10,,,,,,,,,,,,,,,,8,,53,0
17879,note_on,,119,0,12,,,,,,,,,,,,,,,,11,,60,0
17879,note_on,,119,0,9,,,,,,,,,,,,,,,,7,,53,0
17879,note_on,,29,0,11,,,,,,,,,,,,,,,,10,,67,0
17879,note_on,,119,0,13,,,,,,,,,,,,,,,,12,,53,0
17880,note_on,,1,0,5,,,,,,,,,,,,,,,,1,,65,64
17880,note_on,,1,0,15,,,,,,,,,,,,,,,,15,,53,72
17880,note_on,,1,0,11,,,,,,,,,,,,,,,,10,,65,64
17880,note_on,,1,0,10,,,,,,,,,,,,,,,,8,,53,64
17880,note_on,,1,0,7,,,,,,,,,,,,,,,,5,,65,64
17880,note_on,,1,0,6,,,,,,,,,,,,,,,,2,,53,72
17880,note_on,,1,0,14,,,,,,,,,,,,,,,,13,,53,72
17939,note_on,,59,0,15,,,,,,,,,,,,,,,,15,,53,0
17939,note_on,,59,0,14,,,,,,,,,,,,,,,,13,,53,0
17939,note_on,,59,0,6,,,,,,,,,,,,,,,,2,,53,0
17939,note_on,,59,0,10,,,,,,,,,,,,,,,,8,,53,0
17940,note_on,,1,0,15,,,,,,,,,,,,,,,,15,,51,72
17940,note_on,,1,0,6,,,,,,,,,,,,,,,,2,,51,72
17940,note_on,,1,0,14,,,,,,,,,,,,,,,,13,,51,72
17940,note_on,,1,0,10,,,,,,,,,,,,,,,,8,,51,64
17999,note_on,,0,0,15,,,,,,,,,,,,,,,,15,,65,0
17999,note_on,,119,0,11,,,,,,,,,,,,,,,,10,,65,0
17999,note_on,,59,0,15,,,,,,,,,,,,,,,,15,,69,0
17999,note_on,,0,0,15,,,,,,,,,,,,,,,,15,,60,0
17999,note_on,,0,0,15,,,,,,,,,,,,,,,,15,,51,0
17999,note_on,,119,0,5,,,,,,,,,,,,,,,,1,,65,0
17999,note_on,,59,0,10,,,,,,,,,,,,,,,,8,,51,0
17999,note_on,,59,0,14,,,,,,,,,,,,,,,,13,,51,0
17999,note_on,,59,0,6,,,,,,,,,,,,,,,,2,,51,0
17999,note_on,,119,0,7,,,,,,,,,,,,,,,,5,,65,0
18000,note_on,,1,0,10,,,,,,,,,,,,,,,,8,,50,64
18000,note_on,,1,0,6,,,,,,,,,,,,,,,,2,,50,72
18000,note_on,,0,0,15,,,,,,,,,,,,,,,,15,,70,72
18000,note_on,,1,0,15,,,,,,,,,,,,,,,,15,,50,72
18000,note_on,,1,0,14,,,,,,,,,,,,,,,,13,,50,72
18000,note_on,,0,0,15,,,,,,,,,,,,,,,,15,,65,72
18000,note_on,,0,0,15,,,,,,,,,,,,,,,,15,,58,72
18060,note_on,,181,0,9,,,,,,,,,,,,,,,,7,,53,64
18060,note_on,,181,0,13,,,,,,,,,,,,,,,,12,,53,64
18089,note_on,,89,0,15,,,,,,,,,,,,,,,,15,,50,0
18089,note_on,,89,0,6,,,,,,,,,,,,,,,,2,,50,0
18089,note_on,,89,0,10,,,,,,,,,,,,,,,,8,,50,0
18089,note_on,,0,0,15,,,,,,,,,,,,,,,,15,,65,0
18089,note_on,,89,0,14,,,,,,,,,,,,,,,,13,,50,0
18090,note_on,,0,0,15,,,,,,,,,,,,,,,,15,,63,72
18090,note_on,,1,0,10,,,,,,,,,,,,,,,,8,,48,64
18090,note_on,,1,0,6,,,,,,,,,,,,,,,,2,,48,72
18090,note_on,,1,0,15,,,,,,,,,,,,,,,,15,,48,72
18090,note_on,,1,0,14,,,,,,,,,,,,,,,,13,,48,72
18119,note_on,,29,0,10,,,,,,,,,,,,,,,,8,,48,0
18119,note_on,,29,0,14,,,,,,,,,,,,,,,,13,,48,0
18119,note_on,,59,0,13,,,,,,,,,,,,,,,,12,,53,0
18119,note_on,,29,0,6,,,,,,,,,,,,,,,,2,,48,0
18119,note_on,,59,0,9,,,,,,,,,,,,,,,,7,,53,0
18119,note_on,,29,0,15,,,,,,,,,,,,,,,,15,,48,0
18119,note_on,,0,0,15,,,,,,,,,,,,,,,,15,,63,0
18120,note_on,,1,0,6,,,,,,,,,,,,,,,,2,,46,72
18120,note_on,,1,0,10,,,,,,,,,,,,,,,,8,,46,64
18120,note_on,,0,0,15,,,,,,,,,,,,,,,,15,,65,72
18120,note_on,,0,0,15,,,,,,,,,,,,,,,,15,,62,72
18120,note_on,,1,0,14,,,,,,,,,,,,,,,,13,,46,72
18120,note_on,,1,0,9,,,,,,,,,,,,,,,,7,,58,64
18120,note_on,,1,0,13,,,,,,,,,,,,,,,,12,,58,64
18120,note_on,,1,0,15,,,,,,,,,,,,,,,,15,,46,72
18179,note_on,,59,0,15,,,,,,,,,,,,,,,,15,,58,0
18179,note_on,,0,0,15,,,,,,,,,,,,,,,,15,,46,0
18179,note_on,,0,0,15,,,,,,,,,,,,,,,,15,,65,0
18179,note_on,,59,0,13,,,,,,,,,,,,,,,,12,,58,0
18179,note_on,,0,0,15,,,,,,,,,,,,,,,,15,,62,0
18179,note_on,,59,0,14,,,,,,,,,,,,,,,,13,,46,0
18179,note_on,,59,0,9,,,,,,,,,,,,,,,,7,,58,0
18179,note_on,,59,0,6,,,,,,,,,,,,,,,,2,,46,0
18180,note_on,,1,0,14,,,,,,,,,,,,,,,,13,,58,72
18180,note_on,,0,0,15,,,,,,,,,,,,,,,,15,,62,72
18180,note_on,,1,0,15,,,,,,,,,,,,,,,,15,,58,72
18180,note_on,,0,0,15,,,,,,,,,,,,,,,,15,,65,72
18180,note_on,,1,0,9,,,,,,,,,,,,,,,,7,,58,64
18180,note_on,,1,0,13,,,,,,,,,,,,,,,,12,,58,64
18239,note_on,,59,0,14,,,,,,,,,,,,,,,,13,,58,0
18239,note_on,,59,0,9,,,,,,,,,,,,,,,,7,,58,0
18239,note_on,,59,0,13,,,,,,,,,,,,,,,,12,,58,0
18239,note_on,,119,0,10,,,,,,,,,,,,,,,,8,,46,0
18239,note_on,,59,0,15,,,,,,,,,,,,,,,,15,,70,0
18239,note_on,,0,0,15,,,,,,,,,,,,,,,,15,,58,0
18239,note_on,,0,0,15,,,,,,,,,,,,,,,,15,,65,0
18239,note_on,,0,0,15,,,,,,,,,,,,,,,,15,,62,0
18240,note_on,,1,0,15,,,,,,,,,,,,,,,,15,,57,72
18240,note_on,,0,0,15,,,,,,,,,,,,,,,,15,,60,72
18240,note_on,,1,0,14,,,,,,,,,,,,,,,,13,,57,72
18240,note_on,,1,0,13,,,,,,,,,,,,,,,,12,,57,64
18240,note_on,,0,0,15,,,,,,,,,,,,,,,,15,,65,72
18240,note_on,,1,0,9,,,,,,,,,,,,,,,,7,,57,64
18300,note_on,,301,0,7,,,,,,,,,,,,,,,,5,,72,64
18300,note_on,,301,0,11,,,,,,,,,,,,,,,,10,,72,64
18300,note_on,,301,0,5,,,,,,,,,,,,,,,,1,,72,64
18329,note_on,,89,0,14,,,,,,,,,,,,,,,,13,,57,0
18329,note_on,,89,0,13,,,,,,,,,,,,,,,,12,,57,0
18329,note_on,,89,0,15,,,,,,,,,,,,,,,,15,,57,0
18329,note_on,,89,0,9,,,,,,,,,,,,,,,,7,,57,0
18330,note_on,,1,0,9,,,,,,,,,,,,,,,,7,,55,64
18330,note_on,,1,0,13,,,,,,,,,,,,,,,,12,,55,64
18330,note_on,,1,0,14,,,,,,,,,,,,,,,,13,,55,72
18330,note_on,,0,0,15,,,,,,,,,,,,,,,,15,,58,72
18330,note_on,,1,0,15,,,,,,,,,,,,,,,,15,,55,72
18359,note_on,,29,0,13,,,,,,,,,,,,,,,,12,,55,0
18359,note_on,,29,0,14,,,,,,,,,,,,,,,,13,,55,0
18359,note_on,,59,0,7,,,,,,,,,,,,,,,,5,,72,0
18359,note_on,,0,0,15,,,,,,,,,,,,,,,,15,,58,0
18359,note_on,,29,0,9,,,,,,,,,,,,,,,,7,,55,0
18359,note_on,,59,0,5,,,,,,,,,,,,,,,,1,,72,0
18359,note_on,,59,0,11,,,,,,,,,,,,,,,,10,,72,0
18359,note_on,,29,0,15,,,,,,,,,,,,,,,,15,,65,0
18359,note_on,,0,0,15,,,,,,,,,,,,,,,,15,,60,0
18359,note_on,,0,0,15,,,,,,,,,,,,,,,,15,,55,0
18360,note_on,,1,0,14,,,,,,,,,,,,,,,,13,,53,72
18360,note_on,,1,0,9,,,,,,,,,,,,,,,,7,,53,64
18360,note_on,,1,0,15,,,,,,,,,,,,,,,,15,,53,72
18360,note_on,,0,0,15,,,,,,,,,,,,,,,,15,,72,72
18360,note_on,,1,0,5,,,,,,,,,,,,,,,,1,,77,64
18360,note_on,,1,0,7,,,,,,,,,,,,,,,,5,,77,64
18360,note_on,,0,0,15,,,,,,,,,,,,,,,,15,,65,72
18360,note_on,,0,0,15,,,,,,,,,,,,,,,,15,,57,72
18360,note_on,,1,0,13,,,,,,,,,,,,,,,,12,,53,64
18360,note_on,,1,0,11,,,,,,,,,,,,,,,,10,,77,64
18419,note_on,,59,0,5,,,,,,,,,,,,,,,,1,,77,0
18419,note_on,,59,0,15,,,,,,,,,,,,,,,,15,,53,0
18419,note_on,,0,0,15,,,,,,,,,,,,,,,,15,,72,0
18419,note_on,,0,0,15,,,,,,,,,,,,,,,,15,,57,0
18419,note_on,,59,0,11,,,,,,,,,,,,,,,,10,,77,0
18419,note_on,,59,0,7,,,,,,,,,,,,,,,,5,,77,0
18419,note_on,,59,0,14,,,,,,,,,,,,,,,,13,,53,0
18419,note_on,,0,0,15,,,,,,,,,,,,,,,,15,,65,0
18420,note_on,,0,0,15,,,,,,,,,,,,,,,,15,,65,72
18420,note_on,,1,0,14,,,,,,,,,,,,,,,,13,,57,72
18420,note_on,,1,0,5,,,,,,,,,,,,,,,,1,,75,64
18420,note_on,,1,0,11,,,,,,,,,,,,,,,,10,,75,64
18420,note_on,,0,0,15,,,,,,,,,,,,,,,,15,,60,72
18420,note_on,,1,0,7,,,,,,,,,,,,,,,,5,,75,64
18420,note_on,,1,0,15,,,,,,,,,,,,,,,,15,,57,72
18479,note_on,,59,0,7,,,,,,,,,,,,,,,,5,,75,0
18479,note_on,,0,0,15,,,,,,,,,,,,,,,,15,,60,0
18479,note_on,,119,0,9,,,,,,,,,,,,,,,,7,,53,0
18479,note_on,,59,0,5,,,,,,,,,,,,,,,,1,,75,0
18479,note_on,,59,0,14,,,,,,,,,,,,,,,,13,,57,0
18479,note_on,,119,0,13,,,,,,,,,,,,,,,,12,,53,0
18479,note_on,,59,0,15,,,,,,,,,,,,,,,,15,,57,0
18479,note_on,,59,0,11,,,,,,,,,,,,,,,,10,,75,0
18480,note_on,,1,0,7,,,,,,,,,,,,,,,,5,,74,64
18480,note_on,,1,0,14,,,,,,,,,,,,,,,,13,,58,72
18480,note_on,,0,0,15,,,,,,,,,,,,,,,,15,,62,72
18480,note_on,,1,0,5,,,,,,,,,,,,,,,,1,,74,64
18480,note_on,,1,0,11,,,,,,,,,,,,,,,,10,,74,64
18480,note_on,,1,0,15,,,,,,,,,,,,,,,,15,,58,72
18539,note_on,,59,0,14,,,,,,,,,,,,,,,,13,,58,0
18539,note_on,,0,0,15,,,,,,,,,,,,,,,,15,,62,0
18539,note_on,,0,0,15,,,,,,,,,,,,,,,,15,,58,0
18539,note_on,,59,0,15,,,,,,,,,,,,,,,,15,,65,0
18540,note_on,,661,0,12,,,,,,,,,,,,,,,,11,,65,64
18540,note_on,,1,0,14,,,,,,,,,,,,,,,,13,,60,72
18540,note_on,,661,0,8,,,,,,,,,,,,,,,,6,,65,64
18540,note_on,,0,0,15,,,,,,,,,,,,,,,,15,,63,72
18540,note_on,,1,0,15,,,,,,,,,,,,,,,,15,,60,72
18540,note_on,,0,0,15,,,,,,,,,,,,,,,,15,,69,72
18569,note_on,,89,0,7,,,,,,,,,,,,,,,,5,,74,0
18569,note_on,,89,0,11,,,,,,,,,,,,,,,,10,,74,0
18569,note_on,,89,0,5,,,,,,,,,,,,,,,,1,,74,0
18570,note_on,,1,0,11,,,,,,,,,,,,,,,,10,,72,64
18570,note_on,,1,0,5,,,,,,,,,,,,,,,,1,,72,64
18570,note_on,,1,0,7,,,,,,,,,,,,,,,,5,,72,64
18599,note_on,,29,0,7,,,,,,,,,,,,,,,,5,,72,0
18599,note_on,,59,0,14,,,,,,,,,,,,,,,,13,,60,0
18599,note_on,,29,0,11,,,,,,,,,,,,,,,,10,,72,0
18599,note_on,,0,0,15,,,,,,,,,,,,,,,,15,,63,0
18599,note_on,,0,0,15,,,,,,,,,,,,,,,,15,,69,0
18599,note_on,,59,0,8,,,,,,,,,,,,,,,,6,,65,0
18599,note_on,,59,0,15,,,,,,,,,,,,,,,,15,,60,0
18599,note_on,,29,0,5,,,,,,,,,,,,,,,,1,,72,0
18599,note_on,,59,0,12,,,,,,,,,,,,,,,,11,,65,0
18600,note_on,,1,0,15,,,,,,,,,,,,,,,,15,,62,72
18600,note_on,,1,0,11,,,,,,,,,,,,,,,,10,,70,64
18600,note_on,,1,0,12,,,,,,,,,,,,,,,,11,,70,64
18600,note_on,,1,0,8,,,,,,,,,,,,,,,,6,,70,64
18600,note_on,,1,0,14,,,,,,,,,,,,,,,,13,,62,72
18600,note_on,,1,0,7,,,,,,,,,,,,,,,,5,,70,64
18600,note_on,,1,0,5,,,,,,,,,,,,,,,,1,,70,64
18600,note_on,,0,0,15,,,,,,,,,,,,,,,,15,,70,72
18600,note_on,,0,0,15,,,,,,,,,,,,,,,,15,,65,72
18659,note_on,,59,0,12,,,,,,,,,,,,,,,,11,,70,0
18659,note_on,,0,0,15,,,,,,,,,,,,,,,,15,,65,0
18659,note_on,,59,0,14,,,,,,,,,,,,,,,,13,,62,0
18659,note_on,,59,0,8,,,,,,,,,,,,,,,,6,,70,0
18659,note_on,,59,0,15,,,,,,,,,,,,,,,,15,,62,0
18660,note_on,,1,0,12,,,,,,,,,,,,,,,,11,,70,64
18660,note_on,,1,0,15,,,,,,,,,,,,,,,,15,,63,72
18660,note_on,,0,0,15,,,,,,,,,,,,,,,,15,,67,72
18660,note_on,,1,0,8,,,,,,,,,,,,,,,,6,,70,64
18660,note_on,,1,0,14,,,,,,,,,,,,,,,,13,,63,72
18719,note_on,,59,0,14,,,,,,,,,,,,,,,,13,,63,0
18719,note_on,,59,0,12,,,,,,,,,,,,,,,,11,,70,0
18719,note_on,,0,0,15,,,,,,,,,,,,,,,,15,,67,0
18719,note_on,,119,0,7,,,,,,,,,,,,,,,,5,,70,0
18719,note_on,,59,0,8,,,,,,,,,,,,,,,,6,,70,0
18719,note_on,,119,0,5,,,,,,,,,,,,,,,,1,,70,0
18719,note_on,,59,0,15,,,,,,,,,,,,,,,,15,,70,0
18719,note_on,,0,0,15,,,,,,,,,,,,,,,,15,,63,0
18719,note_on,,119,0,11,,,,,,,,,,,,,,,,10,,70,0
18720,note_on,,1,0,14,,,,,,,,,,,,,,,,13,,65,72
18720,note_on,,0,0,15,,,,,,,,,,,,,,,,15,,69,72
18720,note_on,,1,0,12,,,,,,,,,,,,,,,,11,,69,64
18720,note_on,,0,0,15,,,,,,,,,,,,,,,,15,,65,72
18720,note_on,,1,0,15,,,,,,,,,,,,,,,,15,,65,72
18720,note_on,,1,0,8,,,,,,,,,,,,,,,,6,,69,64
18779,note_on,,59,0,15,,,,,,,,,,,,,,,,15,,65,0
18779,note_on,,59,0,14,,,,,,,,,,,,,,,,13,,65,0
18780,note_on,,1,0,14,,,,,,,,,,,,,,,,13,,53,72
18780,note_on,,61,0,11,,,,,,,,,,,,,,,,10,,72,64
18780,note_on,,61,0,7,,,,,,,,,,,,,,,,5,,72,64
18780,note_on,,61,0,5,,,,,,,,,,,,,,,,1,,72,64
18780,note_on,,301,0,13,,,,,,,,,,,,,,,,12,,53,64
18780,note_on,,1,0,15,,,,,,,,,,,,,,,,15,,53,72
18780,note_on,,301,0,9,,,,,,,,,,,,,,,,7,,53,64
18809,note_on,,89,0,8,,,,,,,,,,,,,,,,6,,69,0
18809,note_on,,29,0,15,,,,,,,,,,,,,,,,15,,65,0
18809,note_on,,0,0,15,,,,,,,,,,,,,,,,15,,69,0
18809,note_on,,89,0,12,,,,,,,,,,,,,,,,11,,69,0
18810,note_on,,0,0,15,,,,,,,,,,,,,,,,15,,67,72
18810,note_on,,1,0,8,,,,,,,,,,,,,,,,6,,67,64
18810,note_on,,1,0,15,,,,,,,,,,,,,,,,15,,70,72
18810,note_on,,1,0,12,,,,,,,,,,,,,,,,11,,67,64
18839,note_on,,59,0,14,,,,,,,,,,,,,,,,13,,53,0
18839,note_on,,59,0,11,,,,,,,,,,,,,,,,10,,72,0
18839,note_on,,59,0,7,,,,,,,,,,,,,,,,5,,72,0
18839,note_on,,0,0,15,,,,,,,,,,,,,,,,15,,67,0
18839,note_on,,59,0,5,,,,,,,,,,,,,,,,1,,72,0
18839,note_on,,59,0,13,,,,,,,,,,,,,,,,12,,53,0
18839,note_on,,0,0,15,,,,,,,,,,,,,,,,15,,70,0
18839,note_on,,29,0,8,,,,,,,,,,,,,,,,6,,67,0
18839,note_on,,59,0,9,,,,,,,,,,,,,,,,7,,53,0
18839,note_on,,29,0,15,,,,,,,,,,,,,,,,15,,53,0
18839,note_on,,29,0,12,,,,,,,,,,,,,,,,11,,67,0
18840,note_on,,1,0,14,,,,,,,,,,,,,,,,13,,53,72
18840,note_on,,1,0,11,,,,,,,,,,,,,,,,10,,69,64
18840,note_on,,1,0,13,,,,,,,,,,,,,,,,12,,53,64
18840,note_on,,0,0,15,,,,,,,,,,,,,,,,15,,72,72
18840,note_on,,1,0,8,,,,,,,,,,,,,,,,6,,65,64
18840,note_on,,1,0,12,,,,,,,,,,,,,,,,11,,65,64
18840,note_on,,1,0,9,,,,,,,,,,,,,,,,7,,53,64
18840,note_on,,1,0,5,,,,,,,,,,,,,,,,1,,69,64
18840,note_on,,1,0,15,,,,,,,,,,,,,,,,15,,53,72
18840,note_on,,0,0,15,,,,,,,,,,,,,,,,15,,69,72
18840,note_on,,1,0,7,,,,,,,,,,,,,,,,5,,69,64
18899,note_on,,59,0,9,,,,,,,,,,,,,,,,7,,53,0
18899,note_on,,59,0,14,,,,,,,,,,,,,,,,13,,53,0
18899,note_on,,59,0,15,,,,,,,,,,,,,,,,15,,53,0
18899,note_on,,0,0,15,,,,,,,,,,,,,,,,15,,69,0
18899,note_on,,59,0,11,,,,,,,,,,,,,,,,10,,69,0
18899,note_on,,59,0,7,,,,,,,,,,,,,,,,5,,69,0
18899,note_on,,0,0,15,,,,,,,,,,,,,,,,15,,72,0
18899,note_on,,59,0,13,,,,,,,,,,,,,,,,12,,53,0
18899,note_on,,59,0,5,,,,,,,,,,,,,,,,1,,69,0
18900,note_on,,1,0,7,,,,,,,,,,,,,,,,5,,70,64
18900,note_on,,1,0,14,,,,,,,,,,,,,,,,13,,55,72
18900,note_on,,0,0,15,,,,,,,,,,,,,,,,15,,76,72
18900,note_on,,1,0,15,,,,,,,,,,,,,,,,15,,55,72
18900,note_on,,1,0,13,,,,,,,,,,,,,,,,12,,55,64
18900,note_on,,1,0,5,,,,,,,,,,,,,,,,1,,70,64
18900,note_on,,1,0,11,,,,,,,,,,,,,,,,10,,70,64
18900,note_on,,0,0,15,,,,,,,,,,,,,,,,15,,70,72
18900,note_on,,1,0,9,,,,,,,,,,,,,,,,7,,55,64
18900,note_on,,0,0,15,,,,,,,,,,,,,,,,15,,67,72
18959,note_on,,0,0,15,,,,,,,,,,,,,,,,15,,76,0
18959,note_on,,59,0,7,,,,,,,,,,,,,,,,5,,70,0
18959,note_on,,0,0,15,,,,,,,,,,,,,,,,15,,67,0
18959,note_on,,119,0,8,,,,,,,,,,,,,,,,6,,65,0
18959,note_on,,119,0,12,,,,,,,,,,,,,,,,11,,65,0
18959,note_on,,59,0,11,,,,,,,,,,,,,,,,10,,70,0
18959,note_on,,59,0,14,,,,,,,,,,,,,,,,13,,55,0
18959,note_on,,0,0,15,,,,,,,,,,,,,,,,15,,70,0
18959,note_on,,59,0,5,,,,,,,,,,,,,,,,1,,70,0
18959,note_on,,59,0,15,,,,,,,,,,,,,,,,15,,55,0
18959,note_on,,59,0,9,,,,,,,,,,,,,,,,7,,55,0
18959,note_on,,59,0,13,,,,,,,,,,,,,,,,12,,55,0
18960,note_on,,1,0,15,,,,,,,,,,,,,,,,15,,57,72
18960,note_on,,0,0,15,,,,,,,,,,,,,,,,15,,65,72
18960,note_on,,1,0,7,,,,,,,,,,,,,,,,5,,72,64
18960,note_on,,0,0,15,,,,,,,,,,,,,,,,15,,72,72
18960,note_on,,0,0,15,,,,,,,,,,,,,,,,15,,77,72
18960,note_on,,1,0,9,,,,,,,,,,,,,,,,7,,57,64
18960,note_on,,1,0,14,,,,,,,,,,,,,,,,13,,57,72
18960,note_on,,1,0,5,,,,,,,,,,,,,,,,1,,72,64
18960,note_on,,1,0,11,,,,,,,,,,,,,,,,10,,72,64
18960,note_on,,1,0,13,,,,,,,,,,,,,,,,12,,57,64
19019,note_on,,59,0,14,,,,,,,,,,,,,,,,13,,57,0
19019,note_on,,0,0,15,,,,,,,,,,,,,,,,15,,72,0
19019,note_on,,0,0,15,,,,,,,,,,,,,,,,15,,65,0
19019,note_on,,59,0,7,,,,,,,,,,,,,,,,5,,72,0
19019,note_on,,59,0,11,,,,,,,,,,,,,,,,10,,72,0
19019,note_on,,59,0,13,,,,,,,,,,,,,,,,12,,57,0
19019,note_on,,59,0,9,,,,,,,,,,,,,,,,7,,57,0
19019,note_on,,59,0,5,,,,,,,,,,,,,,,,1,,72,0
19019,note_on,,59,0,15,,,,,,,,,,,,,,,,15,,57,0
19020,note_on,,1,0,15,,,,,,,,,,,,,,,,15,,58,72
19020,note_on,,1,0,11,,,,,,,,,,,,,,,,10,,74,64
19020,note_on,,61,0,8,,,,,,,,,,,,,,,,6,,70,64
19020,note_on,,1,0,5,,,,,,,,,,,,,,,,1,,74,64
19020,note_on,,61,0,12,,,,,,,,,,,,,,,,11,,70,64
19020,note_on,,0,0,15,,,,,,,,,,,,,,,,15,,74,72
19020,note_on,,1,0,13,,,,,,,,,,,,,,,,12,,58,64
19020,note_on,,1,0,9,,,,,,,,,,,,,,,,7,,58,64
19020,note_on,,1,0,14,,,,,,,,,,,,,,,,13,,58,72
19020,note_on,,1,0,7,,,,,,,,,,,,,,,,5,,74,64
19020,note_on,,0,0,15,,,,,,,,,,,,,,,,15,,70,72
19079,note_on,,0,0,15,,,,,,,,,,,,,,,,15,,58,0
19079,note_on,,0,0,15,,,,,,,,,,,,,,,,15,,74,0
19079,note_on,,0,0,15,,,,,,,,,,,,,,,,15,,70,0
19079,note_on,,59,0,15,,,,,,,,,,,,,,,,15,,77,0
19079,note_on,,59,0,7,,,,,,,,,,,,,,,,5,,74,0
19079,note_on,,59,0,12,,,,,,,,,,,,,,,,11,,70,0
19079,note_on,,59,0,14,,,,,,,,,,,,,,,,13,,58,0
19079,note_on,,59,0,8,,,,,,,,,,,,,,,,6,,70,0
19079,note_on,,59,0,9,,,,,,,,,,,,,,,,7,,58,0
19079,note_on,,59,0,5,,,,,,,,,,,,,,,,1,,74,0
19079,note_on,,59,0,11,,,,,,,,,,,,,,,,10,,74,0
19079,note_on,,59,0,13,,,,,,,,,,,,,,,,12,,58,0
19080,note_on,,1,0,13,,,,,,,,,,,,,,,,12,,60,64
19080,note_on,,1,0,12,,,,,,,,,,,,,,,,11,,67,64
19080,note_on,,1,0,7,,,,,,,,,,,,,,,,5,,75,64
19080,note_on,,0,0,15,,,,,,,,,,,,,,,,15,,76,72
19080,note_on,,0,0,15,,,,,,,,,,,,,,,,15,,72,72
19080,note_on,,0,0,15,,,,,,,,,,,,,,,,15,,67,72
19080,note_on,,1,0,5,,,,,,,,,,,,,,,,1,,75,64
19080,note_on,,1,0,8,,,,,,,,,,,,,,,,6,,67,64
19080,note_on,,1,0,15,,,,,,,,,,,,,,,,15,,60,72
19080,note_on,,1,0,11,,,,,,,,,,,,,,,,10,,75,64
19080,note_on,,1,0,9,,,,,,,,,,,,,,,,7,,60,64
19080,note_on,,1,0,14,,,,,,,,,,,,,,,,13,,60,72
19139,note_on,,59,0,12,,,,,,,,,,,,,,,,11,,67,0
19139,note_on,,59,0,7,,,,,,,,,,,,,,,,5,,75,0
19139,note_on,,59,0,9,,,,,,,,,,,,,,,,7,,60,0
19139,note_on,,59,0,8,,,,,,,,,,,,,,,,6,,67,0
19139,note_on,,59,0,11,,,,,,,,,,,,,,,,10,,75,0
19139,note_on,,59,0,15,,,,,,,,,,,,,,,,15,,60,0
19139,note_on,,0,0,15,,,,,,,,,,,,,,,,15,,76,0
19139,note_on,,0,0,15,,,,,,,,,,,,,,,,15,,67,0
19139,note_on,,59,0,13,,,,,,,,,,,,,,,,12,,60,0
19139,note_on,,59,0,5,,,,,,,,,,,,,,,,1,,75,0
19139,note_on,,0,0,15,,,,,,,,,,,,,,,,15,,72,0
19139,note_on,,59,0,14,,,,,,,,,,,,,,,,13,,60,0
19140,note_on,,1,0,13,,,,,,,,,,,,,,,,12,,62,64
19140,note_on,,1,0,5,,,,,,,,,,,,,,,,1,,74,64
19140,note_on,,1,0,7,,,,,,,,,,,,,,,,5,,74,64
19140,note_on,,0,0,15,,,,,,,,,,,,,,,,15,,66,72
19140,note_on,,1,0,12,,,,,,,,,,,,,,,,11,,66,64
19140,note_on,,1,0,8,,,,,,,,,,,,,,,,6,,66,64
19140,note_on,,1,0,11,,,,,,,,,,,,,,,,10,,74,64
19140,note_on,,1,0,15,,,,,,,,,,,,,,,,15,,62,72
19140,note_on,,0,0,15,,,,,,,,,,,,,,,,15,,74,72
19140,note_on,,0,0,15,,,,,,,,,,,,,,,,15,,69,72
19140,note_on,,1,0,14,,,,,,,,,,,,,,,,13,,62,72
19140,note_on,,1,0,9,,,,,,,,,,,,,,,,7,,62,64
19199,note_on,,59,0,14,,,,,,,,,,,,,,,,13,,62,0
19199,note_on,,59,0,9,,,,,,,,,,,,,,,,7,,62,0
19199,note_on,,59,0,7,,,,,,,,,,,,,,,,5,,74,0
19199,note_on,,59,0,12,,,,,,,,,,,,,,,,11,,66,0
19199,note_on,,59,0,5,,,,,,,,,,,,,,,,1,,74,0
19199,note_on,,59,0,13,,,,,,,,,,,,,,,,12,,62,0
19199,note_on,,59,0,15,,,,,,,,,,,,,,,,15,,62,0
19199,note_on,,0,0,15,,,,,,,,,,,,,,,,15,,74,0
19199,note_on,,0,0,15,,,,,,,,,,,,,,,,15,,69,0
19199,note_on,,0,0,15,,,,,,,,,,,,,,,,15,,66,0
19199,note_on,,59,0,8,,,,,,,,,,,,,,,,6,,66,0
19199,note_on,,59,0,11,,,,,,,,,,,,,,,,10,,74,0
19200,note_on,,1,0,9,,,,,,,,,,,,,,,,7,,63,64
19200,note_on,,1,0,8,,,,,,,,,,,,,,,,6,,67,64
19200,note_on,,1,0,11,,,,,,,,,,,,,,,,10,,74,64
19200,note_on,,1,0,13,,,,,,,,,,,,,,,,12,,63,64
19200,note_on,,1,0,7,,,,,,,,,,,,,,,,5,,74,64
19200,note_on,,1,0,14,,,,,,,,,,,,,,,,13,,63,72
19200,note_on,,1,0,5,,,,,,,,,,,,,,,,1,,74,64
19200,note_on,,1,0,12,,,,,,,,,,,,,,,,11,,67,64
19200,note_on,,1,0,15,,,,,,,,,,,,,,,,15,,63,72
19200,note_on,,0,0,15,,,,,,,,,,,,,,,,15,,74,72
19200,note_on,,0,0,15,,,,,,,,,,,,,,,,15,,67,72
19319,note_on,,119,0,15,,,,,,,,,,,,,,,,15,,74,0
19319,note_on,,119,0,11,,,,,,,,,,,,,,,,10,,74,0
19319,note_on,,119,0,7,,,,,,,,,,,,,,,,5,,74,0
19319,note_on,,119,0,5,,,,,,,,,,,,,,,,1,,74,0
19320,note_on,,1,0,5,,,,,,,,,,,,,,,,1,,72,64
19320,note_on,,1,0,7,,,,,,,,,,,,,,,,5,,72,64
19320,note_on,,0,0,15,,,,,,,,,,,,,,,,15,,69,72
19320,note_on,,1,0,11,,,,,,,,,,,,,,,,10,,72,64
19320,note_on,,1,0,15,,,,,,,,,,,,,,,,15,,72,72
19379,note_on,,179,0,9,,,,,,,,,,,,,,,,7,,63,0
19379,note_on,,179,0,8,,,,,,,,,,,,,,,,6,,67,0
19379,note_on,,179,0,12,,,,,,,,,,,,,,,,11,,67,0
19379,note_on,,59,0,15,,,,,,,,,,,,,,,,15,,63,0
19379,note_on,,0,0,15,,,,,,,,,,,,,,,,15,,67,0
19379,note_on,,179,0,14,,,,,,,,,,,,,,,,13,,63,0
19379,note_on,,179,0,13,,,,,,,,,,,,,,,,12,,63,0
19380,note_on,,1,0,15,,,,,,,,,,,,,,,,15,,63,72
19380,note_on,,0,0,15,,,,,,,,,,,,,,,,15,,67,72
19380,note_on,,1,0,12,,,,,,,,,,,,,,,,11,,67,64
19380,note_on,,1,0,14,,,,,,,,,,,,,,,,13,,63,72
19380,note_on,,1,0,13,,,,,,,,,,,,,,,,12,,63,64
19380,note_on,,1,0,8,,,,,,,,,,,,,,,,6,,67,64
19380,note_on,,1,0,9,,,,,,,,,,,,,,,,7,,63,64
19439,note_on,,59,0,9,,,,,,,,,,,,,,,,7,,63,0
19439,note_on,,119,0,7,,,,,,,,,,,,,,,,5,,72,0
19439,note_on,,0,0,15,,,,,,,,,,,,,,,,15,,69,0
19439,note_on,,0,0,15,,,,,,,,,,,,,,,,15,,63,0
19439,note_on,,0,0,15,,,,,,,,,,,,,,,,15,,67,0
19439,note_on,,59,0,12,,,,,,,,,,,,,,,,11,,67,0
19439,note_on,,119,0,11,,,,,,,,,,,,,,,,10,,72,0
19439,note_on,,59,0,13,,,,,,,,,,,,,,,,12,,63,0
19439,note_on,,59,0,8,,,,,,,,,,,,,,,,6,,67,0
19439,note_on,,59,0,14,,,,,,,,,,,,,,,,13,,63,0
19439,note_on,,119,0,5,,,,,,,,,,,,,,,,1,,72,0
19439,note_on,,59,0,15,,,,,,,,,,,,,,,,15,,72,0
19440,note_on,,1,0,12,,,,,,,,,,,,,,,,11,,66,64
19440,note_on,,1,0,5,,,,,,,,,,,,,,,,1,,74,64
19440,note_on,,1,0,7,,,,,,,,,,,,,,,,5,,74,64
19440,note_on,,1,0,9,,,,,,,,,,,,,,,,7,,62,64
19440,note_on,,1,0,11,,,,,,,,,,,,,,,,10,,74,64
19440,note_on,,1,0,8,,,,,,,,,,,,,,,,6,,66,64
19440,note_on,,0,0,15,,,,,,,,,,,,,,,,15,,74,72
19440,note_on,,0,0,15,,,,,,,,,,,,,,,,15,,66,72
19440,note_on,,0,0,15,,,,,,,,,,,,,,,,15,,69,72
19440,note_on,,1,0,15,,,,,,,,,,,,,,,,15,,62,72
19440,note_on,,1,0,13,,,,,,,,,,,,,,,,12,,62,64
19440,note_on,,1,0,14,,,,,,,,,,,,,,,,13,,62,72
19529,note_on,,89,0,5,,,,,,,,,,,,,,,,1,,74,0
19529,note_on,,89,0,13,,,,,,,,,,,,,,,,12,,62,0
19529,note_on,,89,0,11,,,,,,,,,,,,,,,,10,,74,0
19529,note_on,,89,0,9,,,,,,,,,,,,,,,,7,,62,0
19529,note_on,,89,0,7,,,,,,,,,,,,,,,,5,,74,0
19530,note_on,,1,0,9,,,,,,,,,,,,,,,,7,,62,64
19530,note_on,,1,0,11,,,,,,,,,,,,,,,,10,,74,64
19530,note_on,,1,0,5,,,,,,,,,,,,,,,,1,,74,64
19530,note_on,,1,0,13,,,,,,,,,,,,,,,,12,,62,64
19530,note_on,,1,0,7,,,,,,,,,,,,,,,,5,,74,64
19559,note_on,,29,0,7,,,,,,,,,,,,,,,,5,,74,0
19559,note_on,,29,0,5,,,,,,,,,,,,,,,,1,,74,0
19559,note_on,,29,0,11,,,,,,,,,,,,,,,,10,,74,0
19559,note_on,,0,0,15,,,,,,,,,,,,,,,,15,,74,0
19559,note_on,,0,0,15,,,,,,,,,,,,,,,,15,,69,0
19559,note_on,,0,0,15,,,,,,,,,,,,,,,,15,,66,0
19559,note_on,,119,0,14,,,,,,,,,,,,,,,,13,,62,0
19559,note_on,,29,0,13,,,,,,,,,,,,,,,,12,,62,0
19559,note_on,,119,0,15,,,,,,,,,,,,,,,,15,,62,0
19559,note_on,,29,0,9,,,,,,,,,,,,,,,,7,,62,0
19560,note_on,,1,0,7,,,,,,,,,,,,,,,,5,,74,64
19560,note_on,,1321,0,10,,,,,,,,,,,,,,,,8,,50,72
19560,note_on,,1,0,5,,,,,,,,,,,,,,,,1,,74,64
19560,note_on,,1,0,14,,,,,,,,,,,,,,,,13,,50,72
19560,note_on,,1,0,9,,,,,,,,,,,,,,,,7,,57,64
19560,note_on,,1381,0,6,,,,,,,,,,,,,,,,2,,50,72
19560,note_on,,1,0,15,,,,,,,,,,,,,,,,15,,50,72
19560,note_on,,0,0,15,,,,,,,,,,,,,,,,15,,69,72
19560,note_on,,0,0,15,,,,,,,,,,,,,,,,15,,66,72
19560,note_on,,1,0,13,,,,,,,,,,,,,,,,12,,57,64
19560,note_on,,0,0,15,,,,,,,,,,,,,,,,15,,62,72
19560,note_on,,1,0,11,,,,,,,,,,,,,,,,10,,74,64
19619,note_on,,179,0,12,,,,,,,,,,,,,,,,11,,66,0
19619,note_on,,179,0,8,,,,,,,,,,,,,,,,6,,66,0
19619,note_on,,59,0,9,,,,,,,,,,,,,,,,7,,57,0
19619,note_on,,59,0,13,,,,,,,,,,,,,,,,12,,57,0
19620,note_on,,1,0,13,,,,,,,,,,,,,,,,12,,57,72
19620,note_on,,1,0,9,,,,,,,,,,,,,,,,7,,57,72
19620,note_on,,1,0,8,,,,,,,,,,,,,,,,6,,66,72
19620,note_on,,1,0,12,,,,,,,,,,,,,,,,11,,66,72
19679,note_on,,119,0,15,,,,,,,,,,,,,,,,15,,50,0
19679,note_on,,119,0,7,,,,,,,,,,,,,,,,5,,74,0
19679,note_on,,0,0,15,,,,,,,,,,,,,,,,15,,62,0
19679,note_on,,59,0,12,,,,,,,,,,,,,,,,11,,66,0
19679,note_on,,0,0,15,,,,,,,,,,,,,,,,15,,69,0
19679,note_on,,119,0,5,,,,,,,,,,,,,,,,1,,74,0
19679,note_on,,0,0,15,,,,,,,,,,,,,,,,15,,66,0
19679,note_on,,119,0,10,,,,,,,,,,,,,,,,8,,50,0
19679,note_on,,59,0,9,,,,,,,,,,,,,,,,7,,57,0
19679,note_on,,119,0,14,,,,,,,,,,,,,,,,13,,50,0
19679,note_on,,59,0,13,,,,,,,,,,,,,,,,12,,57,0
19679,note_on,,119,0,11,,,,,,,,,,,,,,,,10,,74,0
19679,note_on,,59,0,8,,,,,,,,,,,,,,,,6,,66,0
19679,note_on,,119,0,6,,,,,,,,,,,,,,,,2,,50,0
19680,note_on,,1,0,12,,,,,,,,,,,,,,,,11,,67,72
19680,note_on,,0,0,15,,,,,,,,,,,,,,,,15,,70,72
19680,note_on,,0,0,15,,,,,,,,,,,,,,,,15,,67,72
19680,note_on,,0,0,15,,,,,,,,,,,,,,,,15,,62,72
19680,note_on,,1,0,13,,,,,,,,,,,,,,,,12,,58,72
19680,note_on,,1,0,8,,,,,,,,,,,,,,,,6,,67,72
19680,note_on,,1,0,6,,,,,,,,,,,,,,,,2,,43,72
19680,note_on,,1,0,14,,,,,,,,,,,,,,,,13,,43,72
19680,note_on,,1,0,9,,,,,,,,,,,,,,,,7,,58,72
19680,note_on,,1,0,10,,,,,,,,,,,,,,,,8,,43,72
19680,note_on,,1,0,15,,,,,,,,,,,,,,,,15,,43,72
19799,note_on,,119,0,10,,,,,,,,,,,,,,,,8,,43,0
19799,note_on,,119,0,6,,,,,,,,,,,,,,,,2,,43,0
19799,note_on,,119,0,13,,,,,,,,,,,,,,,,12,,58,0
19799,note_on,,119,0,14,,,,,,,,,,,,,,,,13,,43,0
19799,note_on,,119,0,9,,,,,,,,,,,,,,,,7,,58,0
19799,note_on,,119,0,8,,,,,,,,,,,,,,,,6,,67,0
19799,note_on,,119,0,12,,,,,,,,,,,,,,,,11,,67,0
19799,note_on,,119,0,15,,,,,,,,,,,,,,,,15,,43,0
19799,note_on,,0,0,15,,,,,,,,,,,,,,,,15,,70,0
19799,note_on,,0,0,15,,,,,,,,,,,,,,,,15,,67,0
19799,note_on,,0,0,15,,,,,,,,,,,,,,,,15,,62,0
19800,note_on,,1,0,14,,,,,,,,,,,,,,,,13,,45,72
19800,note_on,,1,0,6,,,,,,,,,,,,,,,,2,,45,72
19800,note_on,,1,0,9,,,,,,,,,,,,,,,,7,,60,72
19800,note_on,,1,0,12,,,,,,,,,,,,,,,,11,,65,72
19800,note_on,,1,0,10,,,,,,,,,,,,,,,,8,,45,72
19800,note_on,,1,0,13,,,,,,,,,,,,,,,,12,,60,72
19800,note_on,,1,0,8,,,,,,,,,,,,,,,,6,,65,72
19800,note_on,,0,0,15,,,,,,,,,,,,,,,,15,,69,72
19800,note_on,,1,0,15,,,,,,,,,,,,,,,,15,,45,72
19800,note_on,,0,0,15,,,,,,,,,,,,,,,,15,,65,72
19800,note_on,,0,0,15,,,,,,,,,,,,,,,,15,,60,72
19859,note_on,,59,0,14,,,,,,,,,,,,,,,,13,,45,0
19859,note_on,,59,0,9,,,,,,,,,,,,,,,,7,,60,0
19859,note_on,,59,0,12,,,,,,,,,,,,,,,,11,,65,0
19859,note_on,,0,0,15,,,,,,,,,,,,,,,,15,,65,0
19859,note_on,,59,0,15,,,,,,,,,,,,,,,,15,,45,0
19859,note_on,,59,0,8,,,,,,,,,,,,,,,,6,,65,0
19859,note_on,,59,0,13,,,,,,,,,,,,,,,,12,,60,0
19859,note_on,,59,0,10,,,,,,,,,,,,,,,,8,,45,0
19859,note_on,,59,0,6,,,,,,,,,,,,,,,,2,,45,0
19860,note_on,,1,0,10,,,,,,,,,,,,,,,,8,,45,72
19860,note_on,,1,0,14,,,,,,,,,,,,,,,,13,,45,72
19860,note_on,,1,0,12,,,,,,,,,,,,,,,,11,,63,72
19860,note_on,,1,0,8,,,,,,,,,,,,,,,,6,,63,72
19860,note_on,,1,0,6,,,,,,,,,,,,,,,,2,,45,72
19860,note_on,,0,0,15,,,,,,,,,,,,,,,,15,,63,72
19860,note_on,,1,0,15,,,,,,,,,,,,,,,,15,,45,72
19860,note_on,,1,0,13,,,,,,,,,,,,,,,,12,,60,72
19860,note_on,,1,0,9,,,,,,,,,,,,,,,,7,,60,72
19919,note_on,,0,0,15,,,,,,,,,,,,,,,,15,,60,0
19919,note_on,,59,0,6,,,,,,,,,,,,,,,,2,,45,0
19919,note_on,,59,0,8,,,,,,,,,,,,,,,,6,,63,0
19919,note_on,,59,0,13,,,,,,,,,,,,,,,,12,,60,0
19919,note_on,,59,0,10,,,,,,,,,,,,,,,,8,,45,0
19919,note_on,,0,0,15,,,,,,,,,,,,,,,,15,,45,0
19919,note_on,,59,0,12,,,,,,,,,,,,,,,,11,,63,0
19919,note_on,,59,0,14,,,,,,,,,,,,,,,,13,,45,0
19919,note_on,,0,0,15,,,,,,,,,,,,,,,,15,,63,0
19919,note_on,,59,0,15,,,,,,,,,,,,,,,,15,,69,0
19919,note_on,,59,0,9,,,,,,,,,,,,,,,,7,,60,0
19920,note_on,,1,0,12,,,,,,,,,,,,,,,,11,,62,72
19920,note_on,,1,0,6,,,,,,,,,,,,,,,,2,,46,72
19920,note_on,,1,0,14,,,,,,,,,,,,,,,,13,,46,72
19920,note_on,,0,0,15,,,,,,,,,,,,,,,,15,,62,72
19920,note_on,,1,0,13,,,,,,,,,,,,,,,,12,,62,72
19920,note_on,,0,0,15,,,,,,,,,,,,,,,,15,,67,72
19920,note_on,,1,0,15,,,,,,,,,,,,,,,,15,,46,72
19920,note_on,,1,0,8,,,,,,,,,,,,,,,,6,,62,72
19920,note_on,,1,0,10,,,,,,,,,,,,,,,,8,,46,72
19920,note_on,,1,0,9,,,,,,,,,,,,,,,,7,,62,72
19979,note_on,,59,0,6,,,,,,,,,,,,,,,,2,,46,0
19979,note_on,,59,0,10,,,,,,,,,,,,,,,,8,,46,0
19979,note_on,,59,0,15,,,,,,,,,,,,,,,,15,,46,0
19979,note_on,,59,0,13,,,,,,,,,,,,,,,,12,,62,0
19979,note_on,,59,0,12,,,,,,,,,,,,,,,,11,,62,0
19979,note_on,,59,0,14,,,,,,,,,,,,,,,,13,,46,0
19979,note_on,,59,0,8,,,,,,,,,,,,,,,,6,,62,0
19979,note_on,,59,0,9,,,,,,,,,,,,,,,,7,,62,0
19980,note_on,,1,0,6,,,,,,,,,,,,,,,,2,,43,72
19980,note_on,,1,0,14,,,,,,,,,,,,,,,,13,,43,72
19980,note_on,,0,0,15,,,,,,,,,,,,,,,,15,,58,72
19980,note_on,,1,0,12,,,,,,,,,,,,,,,,11,,70,72
19980,note_on,,1,0,13,,,,,,,,,,,,,,,,12,,62,72
19980,note_on,,1,0,15,,,,,,,,,,,,,,,,15,,43,72
19980,note_on,,1,0,10,,,,,,,,,,,,,,,,8,,43,72
19980,note_on,,1,0,8,,,,,,,,,,,,,,,,6,,70,72
19980,note_on,,1,0,9,,,,,,,,,,,,,,,,7,,62,72
20039,note_on,,59,0,13,,,,,,,,,,,,,,,,12,,62,0
20039,note_on,,59,0,10,,,,,,,,,,,,,,,,8,,43,0
20039,note_on,,59,0,12,,,,,,,,,,,,,,,,11,,70,0
20039,note_on,,59,0,8,,,,,,,,,,,,,,,,6,,70,0
20039,note_on,,59,0,9,,,,,,,,,,,,,,,,7,,62,0
20039,note_on,,0,0,15,,,,,,,,,,,,,,,,15,,62,0
20039,note_on,,59,0,6,,,,,,,,,,,,,,,,2,,43,0
20039,note_on,,0,0,15,,,,,,,,,,,,,,,,15,,58,0
20039,note_on,,0,0,15,,,,,,,,,,,,,,,,15,,43,0
20039,note_on,,59,0,15,,,,,,,,,,,,,,,,15,,67,0
20039,note_on,,59,0,14,,,,,,,,,,,,,,,,13,,43,0
20040,note_on,,1,0,10,,,,,,,,,,,,,,,,8,,48,72
20040,note_on,,1,0,14,,,,,,,,,,,,,,,,13,,48,72
20040,note_on,,1,0,15,,,,,,,,,,,,,,,,15,,48,72
20040,note_on,,0,0,15,,,,,,,,,,,,,,,,15,,69,72
20040,note_on,,0,0,15,,,,,,,,,,,,,,,,15,,63,72
20040,note_on,,0,0,15,,,,,,,,,,,,,,,,15,,60,72
20040,note_on,,1,0,6,,,,,,,,,,,,,,,,2,,48,72
20040,note_on,,1,0,13,,,,,,,,,,,,,,,,12,,60,72
20040,note_on,,1,0,9,,,,,,,,,,,,,,,,7,,60,72
20040,note_on,,1,0,12,,,,,,,,,,,,,,,,11,,69,72
20040,note_on,,1,0,8,,,,,,,,,,,,,,,,6,,69,72
20099,note_on,,59,0,12,,,,,,,,,,,,,,,,11,,69,0
20099,note_on,,59,0,13,,,,,,,,,,,,,,,,12,,60,0
20099,note_on,,59,0,9,,,,,,,,,,,,,,,,7,,60,0
20099,note_on,,59,0,8,,,,,,,,,,,,,,,,6,,69,0
20100,note_on,,1,0,13,,,,,,,,,,,,,,,,12,,58,72
20100,note_on,,1,0,9,,,,,,,,,,,,,,,,7,,58,72
20100,note_on,,1,0,8,,,,,,,,,,,,,,,,6,,67,72
20100,note_on,,1,0,12,,,,,,,,,,,,,,,,11,,67,72
20159,note_on,,59,0,9,,,,,,,,,,,,,,,,7,,58,0
20159,note_on,,0,0,15,,,,,,,,,,,,,,,,15,,60,0
20159,note_on,,59,0,12,,,,,,,,,,,,,,,,11,,67,0
20159,note_on,,59,0,13,,,,,,,,,,,,,,,,12,,58,0
20159,note_on,,59,0,8,,,,,,,,,,,,,,,,6,,67,0
20159,note_on,,0,0,15,,,,,,,,,,,,,,,,15,,63,0
20159,note_on,,119,0,15,,,,,,,,,,,,,,,,15,,69,0
20160,note_on,,0,0,15,,,,,,,,,,,,,,,,15,,69,72
20160,note_on,,0,0,15,,,,,,,,,,,,,,,,15,,62,72
20160,note_on,,1,0,12,,,,,,,,,,,,,,,,11,,66,72
20160,note_on,,1,0,13,,,,,,,,,,,,,,,,12,,57,72
20160,note_on,,1,0,15,,,,,,,,,,,,,,,,15,,74,72
20160,note_on,,1,0,9,,,,,,,,,,,,,,,,7,,57,72
20160,note_on,,0,0,15,,,,,,,,,,,,,,,,15,,66,72
20160,note_on,,1,0,8,,,,,,,,,,,,,,,,6,,66,72
20219,note_on,,59,0,15,,,,,,,,,,,,,,,,15,,48,0
20219,note_on,,59,0,13,,,,,,,,,,,,,,,,12,,57,0
20219,note_on,,59,0,12,,,,,,,,,,,,,,,,11,,66,0
20219,note_on,,179,0,14,,,,,,,,,,,,,,,,13,,48,0
20219,note_on,,179,0,10,,,,,,,,,,,,,,,,8,,48,0
20219,note_on,,59,0,9,,,,,,,,,,,,,,,,7,,57,0
20219,note_on,,179,0,6,,,,,,,,,,,,,,,,2,,48,0
20219,note_on,,59,0,8,,,,,,,,,,,,,,,,6,,66,0
20220,note_on,,1,0,8,,,,,,,,,,,,,,,,6,,62,72
20220,note_on,,1,0,15,,,,,,,,,,,,,,,,15,,46,72
20220,note_on,,1,0,6,,,,,,,,,,,,,,,,2,,46,72
20220,note_on,,1,0,10,,,,,,,,,,,,,,,,8,,46,72
20220,note_on,,1,0,12,,,,,,,,,,,,,,,,11,,62,72
20220,note_on,,1,0,13,,,,,,,,,,,,,,,,12,,57,72
20220,note_on,,1,0,9,,,,,,,,,,,,,,,,7,,57,72
20220,note_on,,1,0,14,,,,,,,,,,,,,,,,13,,46,72
20249,note_on,,29,0,14,,,,,,,,,,,,,,,,13,,46,0
20249,note_on,,29,0,10,,,,,,,,,,,,,,,,8,,46,0
20249,note_on,,29,0,6,,,,,,,,,,,,,,,,2,,46,0
20249,note_on,,29,0,15,,,,,,,,,,,,,,,,15,,46,0
20250,note_on,,1,0,15,,,,,,,,,,,,,,,,15,,45,72
20250,note_on,,1,0,10,,,,,,,,,,,,,,,,8,,45,72
20250,note_on,,1,0,6,,,,,,,,,,,,,,,,2,,45,72
20250,note_on,,1,0,14,,,,,,,,,,,,,,,,13,,45,72
20279,note_on,,29,0,6,,,,,,,,,,,,,,,,2,,45,0
20279,note_on,,59,0,9,,,,,,,,,,,,,,,,7,,57,0
20279,note_on,,29,0,14,,,,,,,,,,,,,,,,13,,45,0
20279,note_on,,59,0,13,,,,,,,,,,,,,,,,12,,57,0
20279,note_on,,0,0,15,,,,,,,,,,,,,,,,15,,66,0
20279,note_on,,59,0,8,,,,,,,,,,,,,,,,6,,62,0
20279,note_on,,29,0,15,,,,,,,,,,,,,,,,15,,69,0
20279,note_on,,0,0,15,,,,,,,,,,,,,,,,15,,45,0
20279,note_on,,59,0,12,,,,,,,,,,,,,,,,11,,62,0
20279,note_on,,29,0,10,,,,,,,,,,,,,,,,8,,45,0
20280,note_on,,1,0,6,,,,,,,,,,,,,,,,2,,46,72
20280,note_on,,1,0,8,,,,,,,,,,,,,,,,6,,67,72
20280,note_on,,1,0,13,,,,,,,,,,,,,,,,12,,62,72
20280,note_on,,1,0,14,,,,,,,,,,,,,,,,13,,46,72
20280,note_on,,1,0,9,,,,,,,,,,,,,,,,7,,62,72
20280,note_on,,1,0,10,,,,,,,,,,,,,,,,8,,46,72
20280,note_on,,1,0,12,,,,,,,,,,,,,,,,11,,67,72
20280,note_on,,0,0,15,,,,,,,,,,,,,,,,15,,67,72
20280,note_on,,1,0,15,,,,,,,,,,,,,,,,15,,46,72
20339,note_on,,0,0,15,,,,,,,,,,,,,,,,15,,62,0
20339,note_on,,59,0,14,,,,,,,,,,,,,,,,13,,46,0
20339,note_on,,59,0,13,,,,,,,,,,,,,,,,12,,62,0
20339,note_on,,59,0,10,,,,,,,,,,,,,,,,8,,46,0
20339,note_on,,59,0,9,,,,,,,,,,,,,,,,7,,62,0
20339,note_on,,0,0,15,,,,,,,,,,,,,,,,15,,46,0
20339,note_on,,59,0,6,,,,,,,,,,,,,,,,2,,46,0
20339,note_on,,0,0,15,,,,,,,,,,,,,,,,15,,67,0
20339,note_on,,59,0,12,,,,,,,,,,,,,,,,11,,67,0
20339,note_on,,59,0,8,,,,,,,,,,,,,,,,6,,67,0
20339,note_on,,59,0,15,,,,,,,,,,,,,,,,15,,74,0
20340,note_on,,1,0,6,,,,,,,,,,,,,,,,2,,48,72
20340,note_on,,1,0,8,,,,,,,,,,,,,,,,6,,69,72
20340,note_on,,1,0,15,,,,,,,,,,,,,,,,15,,48,72
20340,note_on,,1,0,14,,,,,,,,,,,,,,,,13,,48,72
20340,note_on,,1,0,12,,,,,,,,,,,,,,,,11,,69,72
20340,note_on,,0,0,15,,,,,,,,,,,,,,,,15,,72,72
20340,note_on,,1,0,13,,,,,,,,,,,,,,,,12,,60,72
20340,note_on,,1,0,10,,,,,,,,,,,,,,,,8,,48,72
20340,note_on,,0,0,15,,,,,,,,,,,,,,,,15,,63,72
20340,note_on,,1,0,9,,,,,,,,,,,,,,,,7,,60,72
20340,note_on,,0,0,15,,,,,,,,,,,,,,,,15,,69,72
20399,note_on,,59,0,8,,,,,,,,,,,,,,,,6,,69,0
20399,note_on,,59,0,6,,,,,,,,,,,,,,,,2,,48,0
20399,note_on,,59,0,13,,,,,,,,,,,,,,,,12,,60,0
20399,note_on,,59,0,10,,,,,,,,,,,,,,,,8,,48,0
20399,note_on,,59,0,12,,,,,,,,,,,,,,,,11,,69,0
20399,note_on,,0,0,15,,,,,,,,,,,,,,,,15,,63,0
20399,note_on,,0,0,15,,,,,,,,,,,,,,,,15,,69,0
20399,note_on,,0,0,15,,,,,,,,,,,,,,,,15,,72,0
20399,note_on,,59,0,15,,,,,,,,,,,,,,,,15,,48,0
20399,note_on,,59,0,14,,,,,,,,,,,,,,,,13,,48,0
20399,note_on,,59,0,9,,,,,,,,,,,,,,,,7,,60,0
20400,note_on,,1,0,12,,,,,,,,,,,,,,,,11,,70,72
20400,note_on,,1,0,13,,,,,,,,,,,,,,,,12,,58,72
20400,note_on,,1,0,6,,,,,,,,,,,,,,,,2,,50,72
20400,note_on,,1,0,15,,,,,,,,,,,,,,,,15,,50,72
20400,note_on,,0,0,15,,,,,,,,,,,,,,,,15,,70,72
20400,note_on,,1,0,9,,,,,,,,,,,,,,,,7,,58,72
20400,note_on,,0,0,15,,,,,,,,,,,,,,,,15,,65,72
20400,note_on,,1,0,14,,,,,,,,,,,,,,,,13,,50,72
20400,note_on,,1,0,8,,,,,,,,,,,,,,,,6,,70,72
20400,note_on,,1,0,10,,,,,,,,,,,,,,,,8,,50,72
20459,note_on,,59,0,9,,,,,,,,,,,,,,,,7,,58,0
20459,note_on,,59,0,10,,,,,,,,,,,,,,,,8,,50,0
20459,note_on,,59,0,13,,,,,,,,,,,,,,,,12,,58,0
20459,note_on,,59,0,14,,,,,,,,,,,,,,,,13,,50,0
20459,note_on,,59,0,15,,,,,,,,,,,,,,,,15,,50,0
20459,note_on,,59,0,6,,,,,,,,,,,,,,,,2,,50,0
20460,note_on,,1,0,14,,,,,,,,,,,,,,,,13,,46,72
20460,note_on,,1,0,10,,,,,,,,,,,,,,,,8,,46,72
20460,note_on,,1,0,13,,,,,,,,,,,,,,,,12,,58,72
20460,note_on,,1,0,9,,,,,,,,,,,,,,,,7,,58,72
20460,note_on,,1,0,6,,,,,,,,,,,,,,,,2,,46,72
20460,note_on,,1,0,15,,,,,,,,,,,,,,,,15,,46,72
20460,note_on,,0,0,15,,,,,,,,,,,,,,,,15,,62,72
20519,note_on,,59,0,13,,,,,,,,,,,,,,,,12,,58,0
20519,note_on,,59,0,9,,,,,,,,,,,,,,,,7,,58,0
20519,note_on,,59,0,10,,,,,,,,,,,,,,,,8,,46,0
20519,note_on,,59,0,15,,,,,,,,,,,,,,,,15,,65,0
20519,note_on,,59,0,14,,,,,,,,,,,,,,,,13,,46,0
20519,note_on,,59,0,6,,,,,,,,,,,,,,,,2,,46,0
20519,note_on,,0,0,15,,,,,,,,,,,,,,,,15,,62,0
20519,note_on,,0,0,15,,,,,,,,,,,,,,,,15,,46,0
20520,note_on,,0,0,15,,,,,,,,,,,,,,,,15,,67,72
20520,note_on,,0,0,15,,,,,,,,,,,,,,,,15,,63,72
20520,note_on,,0,0,15,,,,,,,,,,,,,,,,15,,58,72
20520,note_on,,1,0,15,,,,,,,,,,,,,,,,15,,51,72
20520,note_on,,1,0,9,,,,,,,,,,,,,,,,7,,67,72
20520,note_on,,1,0,10,,,,,,,,,,,,,,,,8,,51,72
20520,note_on,,1,0,13,,,,,,,,,,,,,,,,12,,67,72
20520,note_on,,1,0,6,,,,,,,,,,,,,,,,2,,51,72
20520,note_on,,1,0,14,,,,,,,,,,,,,,,,13,,51,72
20579,note_on,,179,0,8,,,,,,,,,,,,,,,,6,,70,0
20579,note_on,,59,0,15,,,,,,,,,,,,,,,,15,,58,0
20579,note_on,,59,0,9,,,,,,,,,,,,,,,,7,,67,0
20579,note_on,,59,0,13,,,,,,,,,,,,,,,,12,,67,0
20579,note_on,,0,0,15,,,,,,,,,,,,,,,,15,,67,0
20579,note_on,,0,0,15,,,,,,,,,,,,,,,,15,,63,0
20579,note_on,,179,0,12,,,,,,,,,,,,,,,,11,,70,0
20580,note_on,,1,0,8,,,,,,,,,,,,,,,,6,,70,72
20580,note_on,,1,0,13,,,,,,,,,,,,,,,,12,,63,72
20580,note_on,,1,0,15,,,,,,,,,,,,,,,,15,,67,72
20580,note_on,,1,0,12,,,,,,,,,,,,,,,,11,,70,72
20580,note_on,,1,0,9,,,,,,,,,,,,,,,,7,,63,72
20639,note_on,,59,0,8,,,,,,,,,,,,,,,,6,,70,0
20639,note_on,,59,0,9,,,,,,,,,,,,,,,,7,,63,0
20639,note_on,,0,0,15,,,,,,,,,,,,,,,,15,,67,0
20639,note_on,,59,0,15,,,,,,,,,,,,,,,,15,,70,0
20639,note_on,,59,0,13,,,,,,,,,,,,,,,,12,,63,0
20639,note_on,,59,0,12,,,,,,,,,,,,,,,,11,,70,0
20640,note_on,,0,0,15,,,,,,,,,,,,,,,,15,,72,72
20640,note_on,,1,0,13,,,,,,,,,,,,,,,,12,,60,72
20640,note_on,,1,0,12,,,,,,,,,,,,,,,,11,,69,72
20640,note_on,,1,0,8,,,,,,,,,,,,,,,,6,,69,72
20640,note_on,,1,0,9,,,,,,,,,,,,,,,,7,,60,72
20640,note_on,,1,0,15,,,,,,,,,,,,,,,,15,,77,72
20640,note_on,,0,0,15,,,,,,,,,,,,,,,,15,,69,72
20699,note_on,,59,0,9,,,,,,,,,,,,,,,,7,,60,0
20699,note_on,,59,0,8,,,,,,,,,,,,,,,,6,,69,0
20699,note_on,,59,0,12,,,,,,,,,,,,,,,,11,,69,0
20699,note_on,,179,0,6,,,,,,,,,,,,,,,,2,,51,0
20699,note_on,,179,0,10,,,,,,,,,,,,,,,,8,,51,0
20699,note_on,,0,0,15,,,,,,,,,,,,,,,,15,,69,0
20699,note_on,,59,0,15,,,,,,,,,,,,,,,,15,,51,0
20699,note_on,,59,0,13,,,,,,,,,,,,,,,,12,,60,0
20699,note_on,,179,0,14,,,,,,,,,,,,,,,,13,,51,0
20700,note_on,,1,0,6,,,,,,,,,,,,,,,,2,,50,72
20700,note_on,,0,0,15,,,,,,,,,,,,,,,,15,,65,72
20700,note_on,,1,0,14,,,,,,,,,,,,,,,,13,,50,72
20700,note_on,,1,0,15,,,,,,,,,,,,,,,,15,,50,72
20700,note_on,,1,0,13,,,,,,,,,,,,,,,,12,,62,72
20700,note_on,,1,0,8,,,,,,,,,,,,,,,,6,,65,72
20700,note_on,,1,0,9,,,,,,,,,,,,,,,,7,,62,72
20700,note_on,,1,0,12,,,,,,,,,,,,,,,,11,,65,72
20700,note_on,,1,0,10,,,,,,,,,,,,,,,,8,,50,72
20729,note_on,,29,0,14,,,,,,,,,,,,,,,,13,,50,0
20729,note_on,,29,0,9,,,,,,,,,,,,,,,,7,,62,0
20729,note_on,,29,0,15,,,,,,,,,,,,,,,,15,,50,0
20729,note_on,,29,0,6,,,,,,,,,,,,,,,,2,,50,0
20729,note_on,,29,0,13,,,,,,,,,,,,,,,,12,,62,0
20730,note_on,,1,0,9,,,,,,,,,,,,,,,,7,,63,72
20730,note_on,,1,0,13,,,,,,,,,,,,,,,,12,,63,72
20730,note_on,,1,0,6,,,,,,,,,,,,,,,,2,,48,72
20730,note_on,,1,0,15,,,,,,,,,,,,,,,,15,,48,72
20730,note_on,,1,0,14,,,,,,,,,,,,,,,,13,,48,72
20759,note_on,,59,0,10,,,,,,,,,,,,,,,,8,,50,0
20759,note_on,,29,0,15,,,,,,,,,,,,,,,,15,,72,0
20759,note_on,,29,0,9,,,,,,,,,,,,,,,,7,,63,0
20759,note_on,,29,0,14,,,,,,,,,,,,,,,,13,,48,0
20759,note_on,,29,0,6,,,,,,,,,,,,,,,,2,,48,0
20759,note_on,,59,0,8,,,,,,,,,,,,,,,,6,,65,0
20759,note_on,,59,0,12,,,,,,,,,,,,,,,,11,,65,0
20759,note_on,,0,0,15,,,,,,,,,,,,,,,,15,,48,0
20759,note_on,,29,0,13,,,,,,,,,,,,,,,,12,,63,0
20760,note_on,,1,0,14,,,,,,,,,,,,,,,,13,,50,72
20760,note_on,,1,0,13,,,,,,,,,,,,,,,,12,,65,72
20760,note_on,,1,0,10,,,,,,,,,,,,,,,,8,,50,72
20760,note_on,,1,0,15,,,,,,,,,,,,,,,,15,,50,72
20760,note_on,,0,0,15,,,,,,,,,,,,,,,,15,,70,72
20760,note_on,,1,0,6,,,,,,,,,,,,,,,,2,,50,72
20760,note_on,,1,0,12,,,,,,,,,,,,,,,,11,,70,72
20760,note_on,,1,0,8,,,,,,,,,,,,,,,,6,,70,72
20760,note_on,,1,0,9,,,,,,,,,,,,,,,,7,,65,72
20819,note_on,,59,0,14,,,,,,,,,,,,,,,,13,,50,0
20819,note_on,,59,0,15,,,,,,,,,,,,,,,,15,,50,0
20819,note_on,,59,0,12,,,,,,,,,,,,,,,,11,,70,0
20819,note_on,,59,0,13,,,,,,,,,,,,,,,,12,,65,0
20819,note_on,,59,0,9,,,,,,,,,,,,,,,,7,,65,0
20819,note_on,,59,0,8,,,,,,,,,,,,,,,,6,,70,0
20819,note_on,,59,0,6,,,,,,,,,,,,,,,,2,,50,0
20819,note_on,,59,0,10,,,,,,,,,,,,,,,,8,,50,0
20820,note_on,,1,0,14,,,,,,,,,,,,,,,,13,,50,72
20820,note_on,,1,0,8,,,,,,,,,,,,,,,,6,,69,72
20820,note_on,,1,0,9,,,,,,,,,,,,,,,,7,,62,72
20820,note_on,,1,0,10,,,,,,,,,,,,,,,,8,,50,72
20820,note_on,,1,0,12,,,,,,,,,,,,,,,,11,,69,72
20820,note_on,,1,0,13,,,,,,,,,,,,,,,,12,,62,72
20820,note_on,,1,0,15,,,,,,,,,,,,,,,,15,,50,72
20820,note_on,,1,0,6,,,,,,,,,,,,,,,,2,,50,72
20879,note_on,,0,0,15,,,,,,,,,,,,,,,,15,,65,0
20879,note_on,,59,0,13,,,,,,,,,,,,,,,,12,,62,0
20879,note_on,,59,0,10,,,,,,,,,,,,,,,,8,,50,0
20879,note_on,,59,0,8,,,,,,,,,,,,,,,,6,,69,0
20879,note_on,,59,0,14,,,,,,,,,,,,,,,,13,,50,0
20879,note_on,,59,0,15,,,,,,,,,,,,,,,,15,,77,0
20879,note_on,,59,0,6,,,,,,,,,,,,,,,,2,,50,0
20879,note_on,,59,0,9,,,,,,,,,,,,,,,,7,,62,0
20879,note_on,,0,0,15,,,,,,,,,,,,,,,,15,,50,0
20879,note_on,,0,0,15,,,,,,,,,,,,,,,,15,,70,0
20879,note_on,,59,0,12,,,,,,,,,,,,,,,,11,,69,0
20880,note_on,,1,0,10,,,,,,,,,,,,,,,,8,,50,72
20880,note_on,,1,0,13,,,,,,,,,,,,,,,,12,,58,72
20880,note_on,,1,0,8,,,,,,,,,,,,,,,,6,,67,72
20880,note_on,,0,0,15,,,,,,,,,,,,,,,,15,,67,72
20880,note_on,,0,0,15,,,,,,,,,,,,,,,,15,,70,72
20880,note_on,,1,0,15,,,,,,,,,,,,,,,,15,,50,72
20880,note_on,,1,0,12,,,,,,,,,,,,,,,,11,,67,72
20880,note_on,,0,0,15,,,,,,,,,,,,,,,,15,,75,72
20880,note_on,,1,0,9,,,,,,,,,,,,,,,,7,,58,72
20880,note_on,,1,0,6,,,,,,,,,,,,,,,,2,,50,72
20880,note_on,,1,0,14,,,,,,,,,,,,,,,,13,,50,72
20939,note_on,,59,0,14,,,,,,,,,,,,,,,,13,,50,0
20939,note_on,,59,0,15,,,,,,,,,,,,,,,,15,,50,0
20939,note_on,,59,0,12,,,,,,,,,,,,,,,,11,,67,0
20939,note_on,,59,0,13,,,,,,,,,,,,,,,,12,,58,0
20939,note_on,,59,0,8,,,,,,,,,,,,,,,,6,,67,0
20939,note_on,,59,0,6,,,,,,,,,,,,,,,,2,,50,0
20939,note_on,,59,0,9,,,,,,,,,,,,,,,,7,,58,0
20939,note_on,,59,0,10,,,,,,,,,,,,,,,,8,,50,0
20940,note_on,,1,0,6,,,,,,,,,,,,,,,,2,,48,72
20940,note_on,,1,0,8,,,,,,,,,,,,,,,,6,,69,72
20940,note_on,,1,0,14,,,,,,,,,,,,,,,,13,,48,72
20940,note_on,,1,0,12,,,,,,,,,,,,,,,,11,,69,72
20940,note_on,,1,0,9,,,,,,,,,,,,,,,,7,,60,72
20940,note_on,,1,0,15,,,,,,,,,,,,,,,,15,,48,72
20940,note_on,,1,0,10,,,,,,,,,,,,,,,,8,,48,72
20940,note_on,,1,0,13,,,,,,,,,,,,,,,,12,,60,72
20969,note_on,,29,0,9,,,,,,,,,,,,,,,,7,,60,0
20969,note_on,,29,0,8,,,,,,,,,,,,,,,,6,,69,0
20969,note_on,,29,0,12,,,,,,,,,,,,,,,,11,,69,0
20969,note_on,,29,0,13,,,,,,,,,,,,,,,,12,,60,0
20970,note_on,,1,0,13,,,,,,,,,,,,,,,,12,,62,72
20970,note_on,,1,0,8,,,,,,,,,,,,,,,,6,,70,72
20970,note_on,,1,0,9,,,,,,,,,,,,,,,,7,,62,72
20970,note_on,,1,0,12,,,,,,,,,,,,,,,,11,,70,72
20999,note_on,,29,0,13,,,,,,,,,,,,,,,,12,,62,0
20999,note_on,,29,0,8,,,,,,,,,,,,,,,,6,,70,0
20999,note_on,,0,0,15,,,,,,,,,,,,,,,,15,,67,0
20999,note_on,,59,0,14,,,,,,,,,,,,,,,,13,,48,0
20999,note_on,,59,0,6,,,,,,,,,,,,,,,,2,,48,0
20999,note_on,,0,0,15,,,,,,,,,,,,,,,,15,,48,0
20999,note_on,,29,0,9,,,,,,,,,,,,,,,,7,,62,0
20999,note_on,,59,0,15,,,,,,,,,,,,,,,,15,,70,0
20999,note_on,,29,0,12,,,,,,,,,,,,,,,,11,,70,0
20999,note_on,,59,0,10,,,,,,,,,,,,,,,,8,,48,0
21000,note_on,,1,0,6,,,,,,,,,,,,,,,,2,,48,72
21000,note_on,,1,0,15,,,,,,,,,,,,,,,,15,,48,72
21000,note_on,,0,0,15,,,,,,,,,,,,,,,,15,,72,72
21000,note_on,,0,0,15,,,,,,,,,,,,,,,,15,,69,72
21000,note_on,,1,0,13,,,,,,,,,,,,,,,,12,,63,72
21000,note_on,,1,0,12,,,,,,,,,,,,,,,,11,,69,72
21000,note_on,,1,0,8,,,,,,,,,,,,,,,,6,,69,72
21000,note_on,,1,0,14,,,,,,,,,,,,,,,,13,,48,72
21000,note_on,,1,0,9,,,,,,,,,,,,,,,,7,,63,72
21000,note_on,,1,0,10,,,,,,,,,,,,,,,,8,,48,72
21059,note_on,,59,0,13,,,,,,,,,,,,,,,,12,,63,0
21059,note_on,,59,0,9,,,,,,,,,,,,,,,,7,,63,0
21059,note_on,,59,0,15,,,,,,,,,,,,,,,,15,,72,0
21059,note_on,,0,0,15,,,,,,,,,,,,,,,,15,,69,0
21059,note_on,,59,0,8,,,,,,,,,,,,,,,,6,,69,0
21059,note_on,,59,0,12,,,,,,,,,,,,,,,,11,,69,0
21060,note_on,,1,0,8,,,,,,,,,,,,,,,,6,,67,72
21060,note_on,,0,0,15,,,,,,,,,,,,,,,,15,,67,72
21060,note_on,,1,0,15,,,,,,,,,,,,,,,,15,,70,72
21060,note_on,,1,0,13,,,,,,,,,,,,,,,,12,,60,72
21060,note_on,,1,0,9,,,,,,,,,,,,,,,,7,,60,72
21060,note_on,,1,0,12,,,,,,,,,,,,,,,,11,,67,72
21119,note_on,,59,0,15,,,,,,,,,,,,,,,,15,,75,0
21119,note_on,,59,0,12,,,,,,,,,,,,,,,,11,,67,0
21119,note_on,,0,0,15,,,,,,,,,,,,,,,,15,,70,0
21119,note_on,,59,0,9,,,,,,,,,,,,,,,,7,,60,0
21119,note_on,,0,0,15,,,,,,,,,,,,,,,,15,,67,0
21119,note_on,,59,0,8,,,,,,,,,,,,,,,,6,,67,0
21119,note_on,,59,0,13,,,,,,,,,,,,,,,,12,,60,0
21120,note_on,,0,0,15,,,,,,,,,,,,,,,,15,,66,72
21120,note_on,,1,0,13,,,,,,,,,,,,,,,,12,,57,72
21120,note_on,,1,0,8,,,,,,,,,,,,,,,,6,,66,72
21120,note_on,,1,0,12,,,,,,,,,,,,,,,,11,,66,72
21120,note_on,,1,0,9,,,,,,,,,,,,,,,,7,,57,72
21120,note_on,,1,0,15,,,,,,,,,,,,,,,,15,,74,72
21120,note_on,,0,0,15,,,,,,,,,,,,,,,,15,,69,72
21179,note_on,,59,0,8,,,,,,,,,,,,,,,,6,,66,0
21179,note_on,,179,0,10,,,,,,,,,,,,,,,,8,,48,0
21179,note_on,,179,0,14,,,,,,,,,,,,,,,,13,,48,0
21179,note_on,,179,0,6,,,,,,,,,,,,,,,,2,,48,0
21179,note_on,,59,0,15,,,,,,,,,,,,,,,,15,,48,0
21179,note_on,,59,0,9,,,,,,,,,,,,,,,,7,,57,0
21179,note_on,,59,0,12,,,,,,,,,,,,,,,,11,,66,0
21179,note_on,,59,0,13,,,,,,,,,,,,,,,,12,,57,0
21180,note_on,,1,0,12,,,,,,,,,,,,,,,,11,,62,72
21180,note_on,,1,0,10,,,,,,,,,,,,,,,,8,,48,72
21180,note_on,,1,0,15,,,,,,,,,,,,,,,,15,,48,72
21180,note_on,,1,0,14,,,,,,,,,,,,,,,,13,,48,72
21180,note_on,,1,0,13,,,,,,,,,,,,,,,,12,,58,72
21180,note_on,,1,0,8,,,,,,,,,,,,,,,,6,,62,72
21180,note_on,,1,0,6,,,,,,,,,,,,,,,,2,,48,72
21180,note_on,,1,0,9,,,,,,,,,,,,,,,,7,,58,72
21209,note_on,,29,0,13,,,,,,,,,,,,,,,,12,,58,0
21209,note_on,,29,0,9,,,,,,,,,,,,,,,,7,,58,0
21210,note_on,,1,0,9,,,,,,,,,,,,,,,,7,,60,72
21210,note_on,,1,0,13,,,,,,,,,,,,,,,,12,,60,72
21239,note_on,,59,0,12,,,,,,,,,,,,,,,,11,,62,0
21239,note_on,,59,0,14,,,,,,,,,,,,,,,,13,,48,0
21239,note_on,,0,0,15,,,,,,,,,,,,,,,,15,,48,0
21239,note_on,,59,0,6,,,,,,,,,,,,,,,,2,,48,0
21239,note_on,,0,0,15,,,,,,,,,,,,,,,,15,,66,0
21239,note_on,,59,0,15,,,,,,,,,,,,,,,,15,,69,0
21239,note_on,,29,0,13,,,,,,,,,,,,,,,,12,,60,0
21239,note_on,,29,0,9,,,,,,,,,,,,,,,,7,,60,0
21239,note_on,,59,0,10,,,,,,,,,,,,,,,,8,,48,0
21239,note_on,,59,0,8,,,,,,,,,,,,,,,,6,,62,0
21240,note_on,,1,0,12,,,,,,,,,,,,,,,,11,,67,72
21240,note_on,,1,0,8,,,,,,,,,,,,,,,,6,,67,72
21240,note_on,,1,0,14,,,,,,,,,,,,,,,,13,,46,72
21240,note_on,,1,0,9,,,,,,,,,,,,,,,,7,,62,72
21240,note_on,,1,0,10,,,,,,,,,,,,,,,,8,,46,72
21240,note_on,,1,0,6,,,,,,,,,,,,,,,,2,,46,72
21240,note_on,,0,0,15,,,,,,,,,,,,,,,,15,,62,72
21240,note_on,,0,0,15,,,,,,,,,,,,,,,,15,,67,72
21240,note_on,,1,0,15,,,,,,,,,,,,,,,,15,,46,72
21240,note_on,,1,0,13,,,,,,,,,,,,,,,,12,,62,72
21299,note_on,,59,0,6,,,,,,,,,,,,,,,,2,,46,0
21299,note_on,,59,0,13,,,,,,,,,,,,,,,,12,,62,0
21299,note_on,,0,0,15,,,,,,,,,,,,,,,,15,,62,0
21299,note_on,,0,0,15,,,,,,,,,,,,,,,,15,,67,0
21299,note_on,,59,0,14,,,,,,,,,,,,,,,,13,,46,0
21299,note_on,,59,0,15,,,,,,,,,,,,,,,,15,,46,0
21299,note_on,,59,0,9,,,,,,,,,,,,,,,,7,,62,0
21299,note_on,,59,0,10,,,,,,,,,,,,,,,,8,,46,0
21300,note_on,,1,0,14,,,,,,,,,,,,,,,,13,,48,72
21300,note_on,,1,0,6,,,,,,,,,,,,,,,,2,,48,72
21300,note_on,,1,0,9,,,,,,,,,,,,,,,,7,,60,72
21300,note_on,,0,0,15,,,,,,,,,,,,,,,,15,,69,72
21300,note_on,,0,0,15,,,,,,,,,,,,,,,,15,,63,72
21300,note_on,,1,0,15,,,,,,,,,,,,,,,,15,,48,72
21300,note_on,,1,0,10,,,,,,,,,,,,,,,,8,,48,72
21300,note_on,,1,0,13,,,,,,,,,,,,,,,,12,,60,72
21359,note_on,,59,0,13,,,,,,,,,,,,,,,,12,,60,0
21359,note_on,,59,0,10,,,,,,,,,,,,,,,,8,,48,0
21359,note_on,,59,0,14,,,,,,,,,,,,,,,,13,,48,0
21359,note_on,,59,0,15,,,,,,,,,,,,,,,,15,,48,0
21359,note_on,,0,0,15,,,,,,,,,,,,,,,,15,,69,0
21359,note_on,,59,0,9,,,,,,,,,,,,,,,,7,,60,0
21359,note_on,,0,0,15,,,,,,,,,,,,,,,,15,,63,0
21359,note_on,,59,0,6,,,,,,,,,,,,,,,,2,,48,0
21360,note_on,,1,0,6,,,,,,,,,,,,,,,,2,,50,72
21360,note_on,,1,0,14,,,,,,,,,,,,,,,,13,,50,72
21360,note_on,,1,0,9,,,,,,,,,,,,,,,,7,,58,72
21360,note_on,,1,0,13,,,,,,,,,,,,,,,,12,,58,72
21360,note_on,,1,0,10,,,,,,,,,,,,,,,,8,,50,72
21360,note_on,,1,0,15,,,,,,,,,,,,,,,,15,,50,72
21360,note_on,,0,0,15,,,,,,,,,,,,,,,,15,,70,72
21360,note_on,,0,0,15,,,,,,,,,,,,,,,,15,,67,72
21360,note_on,,0,0,15,,,,,,,,,,,,,,,,15,,62,72
21420,note_on,,1741,0,7,,,,,,,,,,,,,,,,5,,62,64
21420,note_on,,1741,0,11,,,,,,,,,,,,,,,,10,,62,64
21420,note_on,,1741,0,5,,,,,,,,,,,,,,,,1,,62,64
21479,note_on,,59,0,7,,,,,,,,,,,,,,,,5,,62,0
21479,note_on,,119,0,15,,,,,,,,,,,,,,,,15,,74,0
21479,note_on,,0,0,15,,,,,,,,,,,,,,,,15,,67,0
21479,note_on,,0,0,15,,,,,,,,,,,,,,,,15,,62,0
21479,note_on,,239,0,8,,,,,,,,,,,,,,,,6,,67,0
21479,note_on,,119,0,13,,,,,,,,,,,,,,,,12,,58,0
21479,note_on,,119,0,9,,,,,,,,,,,,,,,,7,,58,0
21479,note_on,,0,0,15,,,,,,,,,,,,,,,,15,,70,0
21479,note_on,,59,0,5,,,,,,,,,,,,,,,,1,,62,0
21479,note_on,,239,0,12,,,,,,,,,,,,,,,,11,,67,0
21479,note_on,,59,0,11,,,,,,,,,,,,,,,,10,,62,0
21480,note_on,,1,0,13,,,,,,,,,,,,,,,,12,,56,72
21480,note_on,,1,0,7,,,,,,,,,,,,,,,,5,,74,64
21480,note_on,,1,0,5,,,,,,,,,,,,,,,,1,,74,64
21480,note_on,,0,0,15,,,,,,,,,,,,,,,,15,,62,72
21480,note_on,,0,0,15,,,,,,,,,,,,,,,,15,,66,72
21480,note_on,,1,0,8,,,,,,,,,,,,,,,,6,,65,72
21480,note_on,,1,0,15,,,,,,,,,,,,,,,,15,,69,72
21480,note_on,,1,0,9,,,,,,,,,,,,,,,,7,,56,72
21480,note_on,,1,0,12,,,,,,,,,,,,,,,,11,,65,72
21480,note_on,,1,0,11,,,,,,,,,,,,,,,,10,,74,64
21539,note_on,,179,0,6,,,,,,,,,,,,,,,,2,,50,0
21539,note_on,,59,0,7,,,,,,,,,,,,,,,,5,,74,0
21539,note_on,,59,0,15,,,,,,,,,,,,,,,,15,,50,0
21539,note_on,,179,0,10,,,,,,,,,,,,,,,,8,,50,0
21539,note_on,,179,0,14,,,,,,,,,,,,,,,,13,,50,0
21539,note_on,,59,0,11,,,,,,,,,,,,,,,,10,,74,0
21539,note_on,,59,0,5,,,,,,,,,,,,,,,,1,,74,0
21540,note_on,,1,0,11,,,,,,,,,,,,,,,,10,,72,64
21540,note_on,,1,0,6,,,,,,,,,,,,,,,,2,,50,72
21540,note_on,,1,0,5,,,,,,,,,,,,,,,,1,,72,64
21540,note_on,,1,0,14,,,,,,,,,,,,,,,,13,,50,72
21540,note_on,,1,0,7,,,,,,,,,,,,,,,,5,,72,64
21540,note_on,,1,0,10,,,,,,,,,,,,,,,,8,,50,72
21540,note_on,,1,0,15,,,,,,,,,,,,,,,,15,,50,72
21599,note_on,,59,0,5,,,,,,,,,,,,,,,,1,,72,0
21599,note_on,,0,0,15,,,,,,,,,,,,,,,,15,,50,0
21599,note_on,,0,0,15,,,,,,,,,,,,,,,,15,,62,0
21599,note_on,,0,0,15,,,,,,,,,,,,,,,,15,,66,0
21599,note_on,,59,0,15,,,,,,,,,,,,,,,,15,,69,0
21599,note_on,,119,0,12,,,,,,,,,,,,,,,,11,,65,0
21599,note_on,,59,0,11,,,,,,,,,,,,,,,,10,,72,0
21599,note_on,,119,0,9,,,,,,,,,,,,,,,,7,,56,0
21599,note_on,,59,0,14,,,,,,,,,,,,,,,,13,,50,0
21599,note_on,,119,0,13,,,,,,,,,,,,,,,,12,,56,0
21599,note_on,,119,0,8,,,,,,,,,,,,,,,,6,,65,0
21599,note_on,,59,0,6,,,,,,,,,,,,,,,,2,,50,0
21599,note_on,,59,0,10,,,,,,,,,,,,,,,,8,,50,0
21599,note_on,,59,0,7,,,,,,,,,,,,,,,,5,,72,0
21600,note_on,,1,0,11,,,,,,,,,,,,,,,,10,,71,64
21600,note_on,,1,0,9,,,,,,,,,,,,,,,,7,,55,72
21600,note_on,,1,0,7,,,,,,,,,,,,,,,,5,,71,64
21600,note_on,,1,0,8,,,,,,,,,,,,,,,,6,,67,72
21600,note_on,,1,0,12,,,,,,,,,,,,,,,,11,,67,72
21600,note_on,,1,0,5,,,,,,,,,,,,,,,,1,,71,64
21600,note_on,,1,0,13,,,,,,,,,,,,,,,,12,,55,72
21600,note_on,,1,0,10,,,,,,,,,,,,,,,,8,,43,72
21600,note_on,,1,0,6,,,,,,,,,,,,,,,,2,,43,72
21600,note_on,,1,0,15,,,,,,,,,,,,,,,,15,,43,72
21600,note_on,,0,0,15,,,,,,,,,,,,,,,,15,,71,72
21600,note_on,,1,0,14,,,,,,,,,,,,,,,,13,,43,72
21600,note_on,,0,0,15,,,,,,,,,,,,,,,,15,,67,72
21600,note_on,,0,0,15,,,,,,,,,,,,,,,,15,,62,72
21659,note_on,,59,0,12,,,,,,,,,,,,,,,,11,,67,0
21659,note_on,,59,0,6,,,,,,,,,,,,,,,,2,,43,0
21659,note_on,,59,0,14,,,,,,,,,,,,,,,,13,,43,0
21659,note_on,,59,0,8,,,,,,,,,,,,,,,,6,,67,0
21659,note_on,,59,0,15,,,,,,,,,,,,,,,,15,,43,0
21660,note_on,,1,0,12,,,,,,,,,,,,,,,,11,,62,64
21660,note_on,,1,0,8,,,,,,,,,,,,,,,,6,,62,64
21660,note_on,,1,0,6,,,,,,,,,,,,,,,,2,,55,72
21660,note_on,,1,0,15,,,,,,,,,,,,,,,,15,,55,72
21660,note_on,,1,0,14,,,,,,,,,,,,,,,,13,,55,72
21689,note_on,,89,0,5,,,,,,,,,,,,,,,,1,,71,0
21689,note_on,,89,0,7,,,,,,,,,,,,,,,,5,,71,0
21689,note_on,,89,0,11,,,,,,,,,,,,,,,,10,,71,0
21690,note_on,,1,0,11,,,,,,,,,,,,,,,,10,,69,64
21690,note_on,,1,0,7,,,,,,,,,,,,,,,,5,,69,64
21690,note_on,,1,0,5,,,,,,,,,,,,,,,,1,,69,64
21719,note_on,,59,0,15,,,,,,,,,,,,,,,,15,,71,0
21719,note_on,,59,0,8,,,,,,,,,,,,,,,,6,,62,0
21719,note_on,,119,0,9,,,,,,,,,,,,,,,,7,,55,0
21719,note_on,,119,0,10,,,,,,,,,,,,,,,,8,,43,0
21719,note_on,,29,0,7,,,,,,,,,,,,,,,,5,,69,0
21719,note_on,,0,0,15,,,,,,,,,,,,,,,,15,,62,0
21719,note_on,,29,0,5,,,,,,,,,,,,,,,,1,,69,0
21719,note_on,,29,0,11,,,,,,,,,,,,,,,,10,,69,0
21719,note_on,,119,0,13,,,,,,,,,,,,,,,,12,,55,0
21719,note_on,,59,0,14,,,,,,,,,,,,,,,,13,,55,0
21719,note_on,,0,0,15,,,,,,,,,,,,,,,,15,,55,0
21719,note_on,,59,0,12,,,,,,,,,,,,,,,,11,,62,0
21719,note_on,,0,0,15,,,,,,,,,,,,,,,,15,,67,0
21719,note_on,,59,0,6,,,,,,,,,,,,,,,,2,,55,0
21720,note_on,,1,0,15,,,,,,,,,,,,,,,,15,,59,72
21720,note_on,,0,0,15,,,,,,,,,,,,,,,,15,,62,72
21720,note_on,,1,0,8,,,,,,,,,,,,,,,,6,,67,64
21720,note_on,,0,0,15,,,,,,,,,,,,,,,,15,,67,72
21720,note_on,,1,0,7,,,,,,,,,,,,,,,,5,,67,64
21720,note_on,,1,0,5,,,,,,,,,,,,,,,,1,,67,64
21720,note_on,,1,0,11,,,,,,,,,,,,,,,,10,,67,64
21720,note_on,,1,0,14,,,,,,,,,,,,,,,,13,,59,72
21720,note_on,,1,0,12,,,,,,,,,,,,,,,,11,,67,64
21720,note_on,,1,0,6,,,,,,,,,,,,,,,,2,,59,72
21720,note_on,,0,0,15,,,,,,,,,,,,,,,,15,,74,72
21779,note_on,,59,0,8,,,,,,,,,,,,,,,,6,,67,0
21779,note_on,,59,0,6,,,,,,,,,,,,,,,,2,,59,0
21779,note_on,,59,0,14,,,,,,,,,,,,,,,,13,,59,0
21779,note_on,,59,0,12,,,,,,,,,,,,,,,,11,,67,0
21779,note_on,,59,0,15,,,,,,,,,,,,,,,,15,,59,0
21780,note_on,,1,0,6,,,,,,,,,,,,,,,,2,,55,72
21780,note_on,,1,0,14,,,,,,,,,,,,,,,,13,,55,72
21780,note_on,,1,0,12,,,,,,,,,,,,,,,,11,,65,64
21780,note_on,,1,0,15,,,,,,,,,,,,,,,,15,,55,72
21780,note_on,,1,0,8,,,,,,,,,,,,,,,,6,,65,64
21839,note_on,,59,0,15,,,,,,,,,,,,,,,,15,,74,0
21839,note_on,,59,0,12,,,,,,,,,,,,,,,,11,,65,0
21839,note_on,,119,0,11,,,,,,,,,,,,,,,,10,,67,0
21839,note_on,,119,0,5,,,,,,,,,,,,,,,,1,,67,0
21839,note_on,,119,0,7,,,,,,,,,,,,,,,,5,,67,0
21839,note_on,,59,0,6,,,,,,,,,,,,,,,,2,,55,0
21839,note_on,,59,0,8,,,,,,,,,,,,,,,,6,,65,0
21839,note_on,,59,0,14,,,,,,,,,,,,,,,,13,,55,0
21839,note_on,,0,0,15,,,,,,,,,,,,,,,,15,,67,0
21839,note_on,,0,0,15,,,,,,,,,,,,,,,,15,,62,0
21839,note_on,,0,0,15,,,,,,,,,,,,,,,,15,,55,0
21840,note_on,,1,0,6,,,,,,,,,,,,,,,,2,,60,72
21840,note_on,,1,0,12,,,,,,,,,,,,,,,,11,,63,64
21840,note_on,,1,0,15,,,,,,,,,,,,,,,,15,,60,72
21840,note_on,,1,0,14,,,,,,,,,,,,,,,,13,,60,72
21840,note_on,,0,0,15,,,,,,,,,,,,,,,,15,,63,72
21840,note_on,,0,0,15,,,,,,,,,,,,,,,,15,,67,72
21840,note_on,,1,0,8,,,,,,,,,,,,,,,,6,,63,64
21899,note_on,,59,0,15,,,,,,,,,,,,,,,,15,,60,0
21899,note_on,,59,0,6,,,,,,,,,,,,,,,,2,,60,0
21899,note_on,,59,0,14,,,,,,,,,,,,,,,,13,,60,0
21900,note_on,,1,0,14,,,,,,,,,,,,,,,,13,,48,72
21900,note_on,,181,0,9,,,,,,,,,,,,,,,,7,,55,64
21900,note_on,,1,0,15,,,,,,,,,,,,,,,,15,,48,72
21900,note_on,,181,0,13,,,,,,,,,,,,,,,,12,,55,64
21900,note_on,,1,0,6,,,,,,,,,,,,,,,,2,,48,72
21929,note_on,,89,0,8,,,,,,,,,,,,,,,,6,,63,0
21929,note_on,,89,0,12,,,,,,,,,,,,,,,,11,,63,0
21930,note_on,,1,0,8,,,,,,,,,,,,,,,,6,,62,64
21930,note_on,,1,0,12,,,,,,,,,,,,,,,,11,,62,64
21959,note_on,,59,0,15,,,,,,,,,,,,,,,,15,,67,0
21959,note_on,,59,0,13,,,,,,,,,,,,,,,,12,,55,0
21959,note_on,,0,0,15,,,,,,,,,,,,,,,,15,,48,0
21959,note_on,,59,0,9,,,,,,,,,,,,,,,,7,,55,0
21959,note_on,,29,0,12,,,,,,,,,,,,,,,,11,,62,0
21959,note_on,,29,0,8,,,,,,,,,,,,,,,,6,,62,0
21959,note_on,,0,0,15,,,,,,,,,,,,,,,,15,,63,0
21959,note_on,,59,0,6,,,,,,,,,,,,,,,,2,,48,0
21959,note_on,,59,0,14,,,,,,,,,,,,,,,,13,,48,0
21960,note_on,,1,0,15,,,,,,,,,,,,,,,,15,,51,72
21960,note_on,,1,0,12,,,,,,,,,,,,,,,,11,,60,64
21960,note_on,,1,0,9,,,,,,,,,,,,,,,,7,,60,64
21960,note_on,,1,0,6,,,,,,,,,,,,,,,,2,,51,72
21960,note_on,,0,0,15,,,,,,,,,,,,,,,,15,,67,72
21960,note_on,,1,0,14,,,,,,,,,,,,,,,,13,,51,72
21960,note_on,,1,0,8,,,,,,,,,,,,,,,,6,,60,64
21960,note_on,,0,0,15,,,,,,,,,,,,,,,,15,,72,72
21960,note_on,,1,0,13,,,,,,,,,,,,,,,,12,,60,64
22019,note_on,,59,0,14,,,,,,,,,,,,,,,,13,,51,0
22019,note_on,,59,0,13,,,,,,,,,,,,,,,,12,,60,0
22019,note_on,,0,0,15,,,,,,,,,,,,,,,,15,,67,0
22019,note_on,,59,0,15,,,,,,,,,,,,,,,,15,,51,0
22019,note_on,,59,0,9,,,,,,,,,,,,,,,,7,,60,0
22019,note_on,,59,0,6,,,,,,,,,,,,,,,,2,,51,0
22020,note_on,,1,0,13,,,,,,,,,,,,,,,,12,,60,64
22020,note_on,,0,0,15,,,,,,,,,,,,,,,,15,,63,72
22020,note_on,,1,0,14,,,,,,,,,,,,,,,,13,,48,72
22020,note_on,,1,0,15,,,,,,,,,,,,,,,,15,,48,72
22020,note_on,,1,0,9,,,,,,,,,,,,,,,,7,,60,64
22020,note_on,,1,0,6,,,,,,,,,,,,,,,,2,,48,72
22079,note_on,,59,0,9,,,,,,,,,,,,,,,,7,,60,0
22079,note_on,,59,0,6,,,,,,,,,,,,,,,,2,,48,0
22079,note_on,,59,0,13,,,,,,,,,,,,,,,,12,,60,0
22079,note_on,,59,0,14,,,,,,,,,,,,,,,,13,,48,0
22079,note_on,,59,0,15,,,,,,,,,,,,,,,,15,,72,0
22079,note_on,,0,0,15,,,,,,,,,,,,,,,,15,,63,0
22079,note_on,,0,0,15,,,,,,,,,,,,,,,,15,,48,0
22079,note_on,,119,0,12,,,,,,,,,,,,,,,,11,,60,0
22079,note_on,,119,0,8,,,,,,,,,,,,,,,,6,,60,0
22080,note_on,,1,0,14,,,,,,,,,,,,,,,,13,,55,72
22080,note_on,,1,0,9,,,,,,,,,,,,,,,,7,,59,64
22080,note_on,,1,0,13,,,,,,,,,,,,,,,,12,,59,64
22080,note_on,,1,0,15,,,,,,,,,,,,,,,,15,,55,72
22080,note_on,,0,0,15,,,,,,,,,,,,,,,,15,,74,72
22080,note_on,,0,0,15,,,,,,,,,,,,,,,,15,,71,72
22080,note_on,,0,0,15,,,,,,,,,,,,,,,,15,,62,72
22080,note_on,,1,0,6,,,,,,,,,,,,,,,,2,,55,72
22139,note_on,,59,0,14,,,,,,,,,,,,,,,,13,,55,0
22139,note_on,,59,0,15,,,,,,,,,,,,,,,,15,,55,0
22139,note_on,,59,0,6,,,,,,,,,,,,,,,,2,,55,0
22140,note_on,,1,0,15,,,,,,,,,,,,,,,,15,,43,72
22140,note_on,,1,0,6,,,,,,,,,,,,,,,,2,,43,72
22140,note_on,,301,0,11,,,,,,,,,,,,,,,,10,,74,64
22140,note_on,,301,0,7,,,,,,,,,,,,,,,,5,,74,64
22140,note_on,,1,0,14,,,,,,,,,,,,,,,,13,,43,72
22140,note_on,,301,0,5,,,,,,,,,,,,,,,,1,,74,64
22169,note_on,,89,0,9,,,,,,,,,,,,,,,,7,,59,0
22169,note_on,,89,0,13,,,,,,,,,,,,,,,,12,,59,0
22170,note_on,,1,0,13,,,,,,,,,,,,,,,,12,,57,64
22170,note_on,,1,0,9,,,,,,,,,,,,,,,,7,,57,64
22199,note_on,,59,0,14,,,,,,,,,,,,,,,,13,,43,0
22199,note_on,,59,0,5,,,,,,,,,,,,,,,,1,,74,0
22199,note_on,,59,0,11,,,,,,,,,,,,,,,,10,,74,0
22199,note_on,,29,0,13,,,,,,,,,,,,,,,,12,,57,0
22199,note_on,,59,0,7,,,,,,,,,,,,,,,,5,,74,0
22199,note_on,,0,0,15,,,,,,,,,,,,,,,,15,,62,0
22199,note_on,,0,0,15,,,,,,,,,,,,,,,,15,,43,0
22199,note_on,,0,0,15,,,,,,,,,,,,,,,,15,,71,0
22199,note_on,,59,0,6,,,,,,,,,,,,,,,,2,,43,0
22199,note_on,,29,0,9,,,,,,,,,,,,,,,,7,,57,0
22199,note_on,,59,0,15,,,,,,,,,,,,,,,,15,,74,0
22200,note_on,,1,0,5,,,,,,,,,,,,,,,,1,,79,64
22200,note_on,,1,0,7,,,,,,,,,,,,,,,,5,,79,64
22200,note_on,,1,0,14,,,,,,,,,,,,,,,,13,,47,72
22200,note_on,,1,0,15,,,,,,,,,,,,,,,,15,,47,72
22200,note_on,,1,0,11,,,,,,,,,,,,,,,,10,,79,64
22200,note_on,,0,0,15,,,,,,,,,,,,,,,,15,,62,72
22200,note_on,,0,0,15,,,,,,,,,,,,,,,,15,,67,72
22200,note_on,,1,0,6,,,,,,,,,,,,,,,,2,,47,72
22200,note_on,,1,0,9,,,,,,,,,,,,,,,,7,,55,64
22200,note_on,,1,0,13,,,,,,,,,,,,,,,,12,,55,64
22259,note_on,,59,0,5,,,,,,,,,,,,,,,,1,,79,0
22259,note_on,,59,0,7,,,,,,,,,,,,,,,,5,,79,0
22259,note_on,,59,0,15,,,,,,,,,,,,,,,,15,,47,0
22259,note_on,,0,0,15,,,,,,,,,,,,,,,,15,,67,0
22259,note_on,,59,0,6,,,,,,,,,,,,,,,,2,,47,0
22259,note_on,,59,0,11,,,,,,,,,,,,,,,,10,,79,0
22259,note_on,,59,0,14,,,,,,,,,,,,,,,,13,,47,0
22260,note_on,,1,0,14,,,,,,,,,,,,,,,,13,,43,72
22260,note_on,,1,0,7,,,,,,,,,,,,,,,,5,,77,64
22260,note_on,,1,0,15,,,,,,,,,,,,,,,,15,,43,72
22260,note_on,,0,0,15,,,,,,,,,,,,,,,,15,,71,72
22260,note_on,,1,0,11,,,,,,,,,,,,,,,,10,,77,64
22260,note_on,,1,0,6,,,,,,,,,,,,,,,,2,,43,72
22260,note_on,,1,0,5,,,,,,,,,,,,,,,,1,,77,64
22319,note_on,,59,0,15,,,,,,,,,,,,,,,,15,,62,0
22319,note_on,,0,0,15,,,,,,,,,,,,,,,,15,,43,0
22319,note_on,,59,0,5,,,,,,,,,,,,,,,,1,,77,0
22319,note_on,,0,0,15,,,,,,,,,,,,,,,,15,,71,0
22319,note_on,,59,0,11,,,,,,,,,,,,,,,,10,,77,0
22319,note_on,,59,0,14,,,,,,,,,,,,,,,,13,,43,0
22319,note_on,,119,0,13,,,,,,,,,,,,,,,,12,,55,0
22319,note_on,,119,0,9,,,,,,,,,,,,,,,,7,,55,0
22319,note_on,,59,0,6,,,,,,,,,,,,,,,,2,,43,0
22319,note_on,,59,0,7,,,,,,,,,,,,,,,,5,,77,0
22320,note_on,,1,0,6,,,,,,,,,,,,,,,,2,,48,72
22320,note_on,,1,0,11,,,,,,,,,,,,,,,,10,,75,64
22320,note_on,,1,0,5,,,,,,,,,,,,,,,,1,,75,64
22320,note_on,,1,0,15,,,,,,,,,,,,,,,,15,,48,72
22320,note_on,,1,0,14,,,,,,,,,,,,,,,,13,,48,72
22320,note_on,,0,0,15,,,,,,,,,,,,,,,,15,,63,72
22320,note_on,,0,0,15,,,,,,,,,,,,,,,,15,,67,72
22320,note_on,,0,0,15,,,,,,,,,,,,,,,,15,,72,72
22320,note_on,,1,0,7,,,,,,,,,,,,,,,,5,,75,64
22379,note_on,,59,0,6,,,,,,,,,,,,,,,,2,,48,0
22379,note_on,,0,0,15,,,,,,,,,,,,,,,,15,,63,0
22379,note_on,,0,0,15,,,,,,,,,,,,,,,,15,,72,0
22379,note_on,,59,0,15,,,,,,,,,,,,,,,,15,,48,0
22379,note_on,,0,0,15,,,,,,,,,,,,,,,,15,,67,0
22379,note_on,,59,0,14,,,,,,,,,,,,,,,,13,,48,0
22380,note_on,,661,0,10,,,,,,,,,,,,,,,,8,,55,64
22380,note_on,,1,0,15,,,,,,,,,,,,,,,,15,,48,72
22380,note_on,,0,0,15,,,,,,,,,,,,,,,,15,,75,72
22380,note_on,,0,0,15,,,,,,,,,,,,,,,,15,,67,72
22380,note_on,,1,0,6,,,,,,,,,,,,,,,,2,,48,72
22380,note_on,,1,0,14,,,,,,,,,,,,,,,,13,,48,72
22409,note_on,,89,0,7,,,,,,,,,,,,,,,,5,,75,0
22409,note_on,,89,0,5,,,,,,,,,,,,,,,,1,,75,0
22409,note_on,,89,0,11,,,,,,,,,,,,,,,,10,,75,0
22410,note_on,,1,0,7,,,,,,,,,,,,,,,,5,,74,64
22410,note_on,,1,0,5,,,,,,,,,,,,,,,,1,,74,64
22410,note_on,,1,0,11,,,,,,,,,,,,,,,,10,,74,64
22439,note_on,,29,0,5,,,,,,,,,,,,,,,,1,,74,0
22439,note_on,,59,0,6,,,,,,,,,,,,,,,,2,,48,0
22439,note_on,,59,0,14,,,,,,,,,,,,,,,,13,,48,0
22439,note_on,,59,0,15,,,,,,,,,,,,,,,,15,,48,0
22439,note_on,,0,0,15,,,,,,,,,,,,,,,,15,,75,0
22439,note_on,,29,0,11,,,,,,,,,,,,,,,,10,,74,0
22439,note_on,,59,0,10,,,,,,,,,,,,,,,,8,,55,0
22439,note_on,,29,0,7,,,,,,,,,,,,,,,,5,,74,0
22440,note_on,,1,0,6,,,,,,,,,,,,,,,,2,,51,72
22440,note_on,,1,0,11,,,,,,,,,,,,,,,,10,,72,64
22440,note_on,,0,0,15,,,,,,,,,,,,,,,,15,,72,72
22440,note_on,,1,0,14,,,,,,,,,,,,,,,,13,,51,72
22440,note_on,,0,0,15,,,,,,,,,,,,,,,,15,,79,72
22440,note_on,,1,0,15,,,,,,,,,,,,,,,,15,,51,72
22440,note_on,,1,0,7,,,,,,,,,,,,,,,,5,,72,64
22440,note_on,,1,0,10,,,,,,,,,,,,,,,,8,,60,64
22440,note_on,,1,0,5,,,,,,,,,,,,,,,,1,,72,64
22499,note_on,,59,0,10,,,,,,,,,,,,,,,,8,,60,0
22499,note_on,,0,0,15,,,,,,,,,,,,,,,,15,,79,0
22499,note_on,,59,0,15,,,,,,,,,,,,,,,,15,,51,0
22499,note_on,,59,0,14,,,,,,,,,,,,,,,,13,,51,0
22499,note_on,,59,0,6,,,,,,,,,,,,,,,,2,,51,0
22500,note_on,,0,0,15,,,,,,,,,,,,,,,,15,,75,72
22500,note_on,,1,0,10,,,,,,,,,,,,,,,,8,,58,64
22500,note_on,,1,0,14,,,,,,,,,,,,,,,,13,,48,72
22500,note_on,,1,0,6,,,,,,,,,,,,,,,,2,,48,72
22500,note_on,,1,0,15,,,,,,,,,,,,,,,,15,,48,72
22559,note_on,,0,0,15,,,,,,,,,,,,,,,,15,,75,0
22559,note_on,,119,0,11,,,,,,,,,,,,,,,,10,,72,0
22559,note_on,,59,0,10,,,,,,,,,,,,,,,,8,,58,0
22559,note_on,,59,0,15,,,,,,,,,,,,,,,,15,,67,0
22559,note_on,,59,0,6,,,,,,,,,,,,,,,,2,,48,0
22559,note_on,,0,0,15,,,,,,,,,,,,,,,,15,,72,0
22559,note_on,,119,0,5,,,,,,,,,,,,,,,,1,,72,0
22559,note_on,,0,0,15,,,,,,,,,,,,,,,,15,,48,0
22559,note_on,,119,0,7,,,,,,,,,,,,,,,,5,,72,0
22559,note_on,,59,0,14,,,,,,,,,,,,,,,,13,,48,0
22560,note_on,,0,0,15,,,,,,,,,,,,,,,,15,,65,72
22560,note_on,,0,0,15,,,,,,,,,,,,,,,,15,,68,72
22560,note_on,,1,0,15,,,,,,,,,,,,,,,,15,,53,72
22560,note_on,,0,0,15,,,,,,,,,,,,,,,,15,,72,72
22560,note_on,,1,0,14,,,,,,,,,,,,,,,,13,,53,72
22560,note_on,,1,0,6,,,,,,,,,,,,,,,,2,,53,72
22560,note_on,,1,0,10,,,,,,,,,,,,,,,,8,,56,64
22619,note_on,,0,0,15,,,,,,,,,,,,,,,,15,,72,0
22619,note_on,,59,0,6,,,,,,,,,,,,,,,,2,,53,0
22619,note_on,,0,0,15,,,,,,,,,,,,,,,,15,,68,0
22619,note_on,,0,0,15,,,,,,,,,,,,,,,,15,,65,0
22619,note_on,,59,0,14,,,,,,,,,,,,,,,,13,,53,0
22619,note_on,,59,0,15,,,,,,,,,,,,,,,,15,,53,0
22620,note_on,,1,0,14,,,,,,,,,,,,,,,,13,,41,72
22620,note_on,,0,0,15,,,,,,,,,,,,,,,,15,,68,72
22620,note_on,,1,0,15,,,,,,,,,,,,,,,,15,,41,72
22620,note_on,,0,0,15,,,,,,,,,,,,,,,,15,,60,72
22620,note_on,,1,0,6,,,,,,,,,,,,,,,,2,,41,72
22620,note_on,,61,0,11,,,,,,,,,,,,,,,,10,,72,64
22620,note_on,,61,0,5,,,,,,,,,,,,,,,,1,,72,64
22620,note_on,,61,0,7,,,,,,,,,,,,,,,,5,,72,64
22649,note_on,,89,0,10,,,,,,,,,,,,,,,,8,,56,0
22650,note_on,,1,0,10,,,,,,,,,,,,,,,,8,,55,64
22679,note_on,,29,0,10,,,,,,,,,,,,,,,,8,,55,0
22679,note_on,,59,0,11,,,,,,,,,,,,,,,,10,,72,0
22679,note_on,,59,0,6,,,,,,,,,,,,,,,,2,,41,0
22679,note_on,,59,0,7,,,,,,,,,,,,,,,,5,,72,0
22679,note_on,,59,0,14,,,,,,,,,,,,,,,,13,,41,0
22679,note_on,,59,0,5,,,,,,,,,,,,,,,,1,,72,0
22679,note_on,,0,0,15,,,,,,,,,,,,,,,,15,,68,0
22679,note_on,,59,0,15,,,,,,,,,,,,,,,,15,,41,0
22680,note_on,,1,0,14,,,,,,,,,,,,,,,,13,,44,72
22680,note_on,,1,0,11,,,,,,,,,,,,,,,,10,,77,64
22680,note_on,,0,0,15,,,,,,,,,,,,,,,,15,,65,72
22680,note_on,,1,0,6,,,,,,,,,,,,,,,,2,,44,72
22680,note_on,,1,0,5,,,,,,,,,,,,,,,,1,,77,64
22680,note_on,,1,0,10,,,,,,,,,,,,,,,,8,,53,64
22680,note_on,,0,0,15,,,,,,,,,,,,,,,,15,,72,72
22680,note_on,,1,0,7,,,,,,,,,,,,,,,,5,,77,64
22680,note_on,,1,0,15,,,,,,,,,,,,,,,,15,,44,72
22739,note_on,,59,0,11,,,,,,,,,,,,,,,,10,,77,0
22739,note_on,,59,0,5,,,,,,,,,,,,,,,,1,,77,0
22739,note_on,,0,0,15,,,,,,,,,,,,,,,,15,,72,0
22739,note_on,,59,0,6,,,,,,,,,,,,,,,,2,,44,0
22739,note_on,,59,0,7,,,,,,,,,,,,,,,,5,,77,0
22739,note_on,,59,0,14,,,,,,,,,,,,,,,,13,,44,0
22739,note_on,,59,0,15,,,,,,,,,,,,,,,,15,,44,0
22740,note_on,,1,0,15,,,,,,,,,,,,,,,,15,,41,72
22740,note_on,,0,0,15,,,,,,,,,,,,,,,,15,,68,72
22740,note_on,,1,0,5,,,,,,,,,,,,,,,,1,,75,64
22740,note_on,,1,0,11,,,,,,,,,,,,,,,,10,,75,64
22740,note_on,,1,0,7,,,,,,,,,,,,,,,,5,,75,64
22740,note_on,,1,0,14,,,,,,,,,,,,,,,,13,,41,72
22740,note_on,,1,0,6,,,,,,,,,,,,,,,,2,,41,72
22799,note_on,,59,0,5,,,,,,,,,,,,,,,,1,,75,0
22799,note_on,,59,0,11,,,,,,,,,,,,,,,,10,,75,0
22799,note_on,,59,0,7,,,,,,,,,,,,,,,,5,,75,0
22799,note_on,,0,0,15,,,,,,,,,,,,,,,,15,,68,0
22799,note_on,,59,0,14,,,,,,,,,,,,,,,,13,,41,0
22799,note_on,,119,0,10,,,,,,,,,,,,,,,,8,,53,0
22799,note_on,,0,0,15,,,,,,,,,,,,,,,,15,,41,0
22799,note_on,,0,0,15,,,,,,,,,,,,,,,,15,,65,0
22799,note_on,,59,0,15,,,,,,,,,,,,,,,,15,,60,0
22799,note_on,,59,0,6,,,,,,,,,,,,,,,,2,,41,0
22800,note_on,,1,0,15,,,,,,,,,,,,,,,,15,,46,72
22800,note_on,,0,0,15,,,,,,,,,,,,,,,,15,,65,72
22800,note_on,,0,0,15,,,,,,,,,,,,,,,,15,,62,72
22800,note_on,,0,0,15,,,,,,,,,,,,,,,,15,,58,72
22800,note_on,,1,0,11,,,,,,,,,,,,,,,,10,,74,64
22800,note_on,,1,0,5,,,,,,,,,,,,,,,,1,,74,64
22800,note_on,,1,0,6,,,,,,,,,,,,,,,,2,,46,72
22800,note_on,,1,0,14,,,,,,,,,,,,,,,,13,,46,72
22800,note_on,,1,0,7,,,,,,,,,,,,,,,,5,,74,64
22859,note_on,,59,0,14,,,,,,,,,,,,,,,,13,,46,0
22859,note_on,,59,0,6,,,,,,,,,,,,,,,,2,,46,0
22859,note_on,,59,0,15,,,,,,,,,,,,,,,,15,,46,0
22859,note_on,,0,0,15,,,,,,,,,,,,,,,,15,,65,0
22859,note_on,,0,0,15,,,,,,,,,,,,,,,,15,,62,0
22859,note_on,,0,0,15,,,,,,,,,,,,,,,,15,,58,0
22860,note_on,,781,0,8,,,,,,,,,,,,,,,,6,,65,64
22860,note_on,,781,0,12,,,,,,,,,,,,,,,,11,,65,64
22860,note_on,,1,0,15,,,,,,,,,,,,,,,,15,,46,72
22860,note_on,,1,0,6,,,,,,,,,,,,,,,,2,,46,72
22860,note_on,,0,0,15,,,,,,,,,,,,,,,,15,,74,72
22860,note_on,,0,0,15,,,,,,,,,,,,,,,,15,,65,72
22860,note_on,,1,0,14,,,,,,,,,,,,,,,,13,,46,72
22889,note_on,,89,0,5,,,,,,,,,,,,,,,,1,,74,0
22889,note_on,,89,0,11,,,,,,,,,,,,,,,,10,,74,0
22889,note_on,,89,0,7,,,,,,,,,,,,,,,,5,,74,0
22890,note_on,,1,0,11,,,,,,,,,,,,,,,,10,,72,64
22890,note_on,,1,0,5,,,,,,,,,,,,,,,,1,,72,64
22890,note_on,,1,0,7,,,,,,,,,,,,,,,,5,,72,64
22919,note_on,,59,0,15,,,,,,,,,,,,,,,,15,,46,0
22919,note_on,,0,0,15,,,,,,,,,,,,,,,,15,,74,0
22919,note_on,,59,0,8,,,,,,,,,,,,,,,,6,,65,0
22919,note_on,,59,0,14,,,,,,,,,,,,,,,,13,,46,0
22919,note_on,,29,0,11,,,,,,,,,,,,,,,,10,,72,0
22919,note_on,,59,0,6,,,,,,,,,,,,,,,,2,,46,0
22919,note_on,,29,0,7,,,,,,,,,,,,,,,,5,,72,0
22919,note_on,,59,0,12,,,,,,,,,,,,,,,,11,,65,0
22919,note_on,,29,0,5,,,,,,,,,,,,,,,,1,,72,0
22920,note_on,,1,0,12,,,,,,,,,,,,,,,,11,,70,64
22920,note_on,,0,0,15,,,,,,,,,,,,,,,,15,,70,72
22920,note_on,,0,0,15,,,,,,,,,,,,,,,,15,,77,72
22920,note_on,,1,0,15,,,,,,,,,,,,,,,,15,,50,72
22920,note_on,,1,0,14,,,,,,,,,,,,,,,,13,,50,72
22920,note_on,,1,0,5,,,,,,,,,,,,,,,,1,,70,64
22920,note_on,,1,0,8,,,,,,,,,,,,,,,,6,,70,64
22920,note_on,,1,0,6,,,,,,,,,,,,,,,,2,,50,72
22920,note_on,,1,0,11,,,,,,,,,,,,,,,,10,,70,64
22920,note_on,,1,0,7,,,,,,,,,,,,,,,,5,,70,64
22979,note_on,,59,0,15,,,,,,,,,,,,,,,,15,,50,0
22979,note_on,,0,0,15,,,,,,,,,,,,,,,,15,,77,0
22979,note_on,,59,0,6,,,,,,,,,,,,,,,,2,,50,0
22979,note_on,,59,0,8,,,,,,,,,,,,,,,,6,,70,0
22979,note_on,,59,0,12,,,,,,,,,,,,,,,,11,,70,0
22979,note_on,,59,0,14,,,,,,,,,,,,,,,,13,,50,0
22980,note_on,,1,0,12,,,,,,,,,,,,,,,,11,,68,64
22980,note_on,,1,0,8,,,,,,,,,,,,,,,,6,,68,64
22980,note_on,,0,0,15,,,,,,,,,,,,,,,,15,,74,72
22980,note_on,,1,0,15,,,,,,,,,,,,,,,,15,,46,72
22980,note_on,,1,0,14,,,,,,,,,,,,,,,,13,,46,72
22980,note_on,,1,0,6,,,,,,,,,,,,,,,,2,,46,72
23039,note_on,,59,0,8,,,,,,,,,,,,,,,,6,,68,0
23039,note_on,,119,0,7,,,,,,,,,,,,,,,,5,,70,0
23039,note_on,,59,0,15,,,,,,,,,,,,,,,,15,,65,0
23039,note_on,,0,0,15,,,,,,,,,,,,,,,,15,,46,0
23039,note_on,,0,0,15,,,,,,,,,,,,,,,,15,,74,0
23039,note_on,,59,0,14,,,,,,,,,,,,,,,,13,,46,0
23039,note_on,,119,0,5,,,,,,,,,,,,,,,,1,,70,0
23039,note_on,,59,0,6,,,,,,,,,,,,,,,,2,,46,0
23039,note_on,,0,0,15,,,,,,,,,,,,,,,,15,,70,0
23039,note_on,,59,0,12,,,,,,,,,,,,,,,,11,,68,0
23039,note_on,,119,0,11,,,,,,,,,,,,,,,,10,,70,0
23040,note_on,,0,0,15,,,,,,,,,,,,,,,,15,,67,72
23040,note_on,,0,0,15,,,,,,,,,,,,,,,,15,,63,72
23040,note_on,,1,0,6,,,,,,,,,,,,,,,,2,,51,72
23040,note_on,,0,0,15,,,,,,,,,,,,,,,,15,,70,72
23040,note_on,,1,0,14,,,,,,,,,,,,,,,,13,,51,72
23040,note_on,,1,0,15,,,,,,,,,,,,,,,,15,,51,72
23040,note_on,,1,0,8,,,,,,,,,,,,,,,,6,,67,64
23040,note_on,,1,0,12,,,,,,,,,,,,,,,,11,,67,64
23099,note_on,,0,0,15,,,,,,,,,,,,,,,,15,,63,0
23099,note_on,,0,0,15,,,,,,,,,,,,,,,,15,,67,0
23099,note_on,,0,0,15,,,,,,,,,,,,,,,,15,,70,0
23099,note_on,,59,0,15,,,,,,,,,,,,,,,,15,,51,0
23099,note_on,,59,0,14,,,,,,,,,,,,,,,,13,,51,0
23099,note_on,,59,0,6,,,,,,,,,,,,,,,,2,,51,0
23100,note_on,,1,0,14,,,,,,,,,,,,,,,,13,,51,72
23100,note_on,,1,0,15,,,,,,,,,,,,,,,,15,,51,72
23100,note_on,,0,0,15,,,,,,,,,,,,,,,,15,,67,72
23100,note_on,,0,0,15,,,,,,,,,,,,,,,,15,,58,72
23100,note_on,,781,0,9,,,,,,,,,,,,,,,,7,,58,64
23100,note_on,,301,0,10,,,,,,,,,,,,,,,,8,,51,64
23100,note_on,,1,0,6,,,,,,,,,,,,,,,,2,,51,72
23100,note_on,,781,0,13,,,,,,,,,,,,,,,,12,,58,64
23159,note_on,,59,0,9,,,,,,,,,,,,,,,,7,,58,0
23159,note_on,,0,0,15,,,,,,,,,,,,,,,,15,,67,0
23159,note_on,,0,0,15,,,,,,,,,,,,,,,,15,,58,0
23159,note_on,,59,0,13,,,,,,,,,,,,,,,,12,,58,0
23159,note_on,,59,0,14,,,,,,,,,,,,,,,,13,,51,0
23159,note_on,,59,0,10,,,,,,,,,,,,,,,,8,,51,0
23159,note_on,,59,0,6,,,,,,,,,,,,,,,,2,,51,0
23159,note_on,,59,0,15,,,,,,,,,,,,,,,,15,,51,0
23160,note_on,,1,0,9,,,,,,,,,,,,,,,,7,,63,64
23160,note_on,,1,0,13,,,,,,,,,,,,,,,,12,,63,64
23160,note_on,,1,0,14,,,,,,,,,,,,,,,,13,,55,72
23160,note_on,,1,0,6,,,,,,,,,,,,,,,,2,,55,72
23160,note_on,,0,0,15,,,,,,,,,,,,,,,,15,,63,72
23160,note_on,,0,0,15,,,,,,,,,,,,,,,,15,,70,72
23160,note_on,,1,0,15,,,,,,,,,,,,,,,,15,,55,72
23160,note_on,,1,0,10,,,,,,,,,,,,,,,,8,,55,64
23219,note_on,,59,0,10,,,,,,,,,,,,,,,,8,,55,0
23219,note_on,,59,0,14,,,,,,,,,,,,,,,,13,,55,0
23219,note_on,,59,0,6,,,,,,,,,,,,,,,,2,,55,0
23219,note_on,,59,0,15,,,,,,,,,,,,,,,,15,,55,0
23219,note_on,,59,0,13,,,,,,,,,,,,,,,,12,,63,0
23219,note_on,,0,0,15,,,,,,,,,,,,,,,,15,,63,0
23219,note_on,,59,0,9,,,,,,,,,,,,,,,,7,,63,0
23220,note_on,,1,0,13,,,,,,,,,,,,,,,,12,,62,64
23220,note_on,,1,0,10,,,,,,,,,,,,,,,,8,,51,64
23220,note_on,,1,0,9,,,,,,,,,,,,,,,,7,,62,64
23220,note_on,,1,0,6,,,,,,,,,,,,,,,,2,,51,72
23220,note_on,,0,0,15,,,,,,,,,,,,,,,,15,,67,72
23220,note_on,,1,0,14,,,,,,,,,,,,,,,,13,,51,72
23220,note_on,,1,0,15,,,,,,,,,,,,,,,,15,,51,72
23279,note_on,,59,0,14,,,,,,,,,,,,,,,,13,,51,0
23279,note_on,,59,0,13,,,,,,,,,,,,,,,,12,,62,0
23279,note_on,,59,0,10,,,,,,,,,,,,,,,,8,,51,0
23279,note_on,,59,0,6,,,,,,,,,,,,,,,,2,,51,0
23279,note_on,,0,0,15,,,,,,,,,,,,,,,,15,,51,0
23279,note_on,,59,0,15,,,,,,,,,,,,,,,,15,,70,0
23279,note_on,,0,0,15,,,,,,,,,,,,,,,,15,,67,0
23279,note_on,,59,0,9,,,,,,,,,,,,,,,,7,,62,0
23280,note_on,,1,0,15,,,,,,,,,,,,,,,,15,,56,72
23280,note_on,,1,0,14,,,,,,,,,,,,,,,,13,,56,72
23280,note_on,,1,0,10,,,,,,,,,,,,,,,,8,,56,64
23280,note_on,,1,0,6,,,,,,,,,,,,,,,,2,,56,72
23280,note_on,,0,0,15,,,,,,,,,,,,,,,,15,,68,72
23280,note_on,,0,0,15,,,,,,,,,,,,,,,,15,,63,72
23280,note_on,,1,0,9,,,,,,,,,,,,,,,,7,,60,64
23280,note_on,,1,0,13,,,,,,,,,,,,,,,,12,,60,64
23280,note_on,,0,0,15,,,,,,,,,,,,,,,,15,,72,72
23339,note_on,,59,0,13,,,,,,,,,,,,,,,,12,,60,0
23339,note_on,,59,0,9,,,,,,,,,,,,,,,,7,,60,0
23340,note_on,,1,0,9,,,,,,,,,,,,,,,,7,,62,64
23340,note_on,,1,0,13,,,,,,,,,,,,,,,,12,,62,64
23369,note_on,,29,0,9,,,,,,,,,,,,,,,,7,,62,0
23369,note_on,,29,0,13,,,,,,,,,,,,,,,,12,,62,0
23370,note_on,,1,0,9,,,,,,,,,,,,,,,,7,,63,64
23370,note_on,,1,0,13,,,,,,,,,,,,,,,,12,,63,64
23399,note_on,,0,0,15,,,,,,,,,,,,,,,,15,,63,0
23399,note_on,,119,0,15,,,,,,,,,,,,,,,,15,,68,0
23399,note_on,,29,0,13,,,,,,,,,,,,,,,,12,,63,0
23399,note_on,,29,0,9,,,,,,,,,,,,,,,,7,,63,0
23399,note_on,,359,0,8,,,,,,,,,,,,,,,,6,,67,0
23399,note_on,,359,0,12,,,,,,,,,,,,,,,,11,,67,0
23400,note_on,,1,0,9,,,,,,,,,,,,,,,,7,,62,64
23400,note_on,,1,0,8,,,,,,,,,,,,,,,,6,,65,64
23400,note_on,,1,0,15,,,,,,,,,,,,,,,,15,,65,72
23400,note_on,,0,0,15,,,,,,,,,,,,,,,,15,,62,72
23400,note_on,,1,0,12,,,,,,,,,,,,,,,,11,,65,64
23400,note_on,,1,0,13,,,,,,,,,,,,,,,,12,,62,64
23459,note_on,,179,0,6,,,,,,,,,,,,,,,,2,,56,0
23459,note_on,,179,0,14,,,,,,,,,,,,,,,,13,,56,0
23459,note_on,,59,0,9,,,,,,,,,,,,,,,,7,,62,0
23459,note_on,,179,0,10,,,,,,,,,,,,,,,,8,,56,0
23459,note_on,,59,0,15,,,,,,,,,,,,,,,,15,,56,0
23459,note_on,,0,0,15,,,,,,,,,,,,,,,,15,,62,0
23459,note_on,,59,0,13,,,,,,,,,,,,,,,,12,,62,0
23460,note_on,,1,0,13,,,,,,,,,,,,,,,,12,,60,64
23460,note_on,,1,0,10,,,,,,,,,,,,,,,,8,,56,64
23460,note_on,,1,0,14,,,,,,,,,,,,,,,,13,,56,72
23460,note_on,,1,0,6,,,,,,,,,,,,,,,,2,,56,72
23460,note_on,,1,0,15,,,,,,,,,,,,,,,,15,,56,72
23460,note_on,,0,0,15,,,,,,,,,,,,,,,,15,,60,72
23460,note_on,,1,0,9,,,,,,,,,,,,,,,,7,,60,64
23519,note_on,,59,0,10,,,,,,,,,,,,,,,,8,,56,0
23519,note_on,,0,0,15,,,,,,,,,,,,,,,,15,,60,0
23519,note_on,,119,0,12,,,,,,,,,,,,,,,,11,,65,0
23519,note_on,,0,0,15,,,,,,,,,,,,,,,,15,,56,0
23519,note_on,,59,0,6,,,,,,,,,,,,,,,,2,,56,0
23519,note_on,,119,0,8,,,,,,,,,,,,,,,,6,,65,0
23519,note_on,,0,0,15,,,,,,,,,,,,,,,,15,,65,0
23519,note_on,,59,0,13,,,,,,,,,,,,,,,,12,,60,0
23519,note_on,,59,0,15,,,,,,,,,,,,,,,,15,,72,0
23519,note_on,,59,0,14,,,,,,,,,,,,,,,,13,,56,0
23519,note_on,,59,0,9,,,,,,,,,,,,,,,,7,,60,0
23520,note_on,,1,0,8,,,,,,,,,,,,,,,,6,,67,64
23520,note_on,,0,0,15,,,,,,,,,,,,,,,,15,,71,72
23520,note_on,,0,0,15,,,,,,,,,,,,,,,,15,,67,72
23520,note_on,,0,0,15,,,,,,,,,,,,,,,,15,,62,72
23520,note_on,,1,0,15,,,,,,,,,,,,,,,,15,,55,72
23520,note_on,,1,0,10,,,,,,,,,,,,,,,,8,,55,64
23520,note_on,,1,0,13,,,,,,,,,,,,,,,,12,,59,64
23520,note_on,,1,0,12,,,,,,,,,,,,,,,,11,,67,64
23520,note_on,,1,0,9,,,,,,,,,,,,,,,,7,,59,64
23520,note_on,,1,0,14,,,,,,,,,,,,,,,,13,,55,72
23520,note_on,,1,0,6,,,,,,,,,,,,,,,,2,,55,72
23579,note_on,,59,0,9,,,,,,,,,,,,,,,,7,,59,0
23579,note_on,,59,0,13,,,,,,,,,,,,,,,,12,,59,0
23579,note_on,,59,0,10,,,,,,,,,,,,,,,,8,,55,0
23579,note_on,,59,0,14,,,,,,,,,,,,,,,,13,,55,0
23579,note_on,,59,0,6,,,,,,,,,,,,,,,,2,,55,0
23579,note_on,,59,0,15,,,,,,,,,,,,,,,,15,,55,0
23580,note_on,,1,0,15,,,,,,,,,,,,,,,,15,,53,72
23580,note_on,,1,0,14,,,,,,,,,,,,,,,,13,,53,72
23580,note_on,,1,0,13,,,,,,,,,,,,,,,,12,,62,72
23580,note_on,,1,0,9,,,,,,,,,,,,,,,,7,,62,72
23580,note_on,,1,0,6,,,,,,,,,,,,,,,,2,,53,72
23580,note_on,,1,0,10,,,,,,,,,,,,,,,,8,,53,72
23639,note_on,,0,0,15,,,,,,,,,,,,,,,,15,,53,0
23639,note_on,,59,0,15,,,,,,,,,,,,,,,,15,,71,0
23639,note_on,,0,0,15,,,,,,,,,,,,,,,,15,,67,0
23639,note_on,,0,0,15,,,,,,,,,,,,,,,,15,,62,0
23639,note_on,,59,0,13,,,,,,,,,,,,,,,,12,,62,0
23639,note_on,,59,0,10,,,,,,,,,,,,,,,,8,,53,0
23639,note_on,,119,0,8,,,,,,,,,,,,,,,,6,,67,0
23639,note_on,,59,0,14,,,,,,,,,,,,,,,,13,,53,0
23639,note_on,,59,0,9,,,,,,,,,,,,,,,,7,,62,0
23639,note_on,,119,0,12,,,,,,,,,,,,,,,,11,,67,0
23639,note_on,,59,0,6,,,,,,,,,,,,,,,,2,,53,0
23640,note_on,,1,0,10,,,,,,,,,,,,,,,,8,,51,72
23640,note_on,,1,0,13,,,,,,,,,,,,,,,,12,,60,72
23640,note_on,,0,0,15,,,,,,,,,,,,,,,,15,,67,72
23640,note_on,,1,0,14,,,,,,,,,,,,,,,,13,,51,72
23640,note_on,,1,0,9,,,,,,,,,,,,,,,,7,,60,72
23640,note_on,,601,0,5,,,,,,,,,,,,,,,,1,,79,72
23640,note_on,,1,0,15,,,,,,,,,,,,,,,,15,,51,72
23640,note_on,,0,0,15,,,,,,,,,,,,,,,,15,,72,72
23640,note_on,,0,0,15,,,,,,,,,,,,,,,,15,,63,72
23640,note_on,,1,0,6,,,,,,,,,,,,,,,,2,,51,72
23640,note_on,,601,0,7,,,,,,,,,,,,,,,,5,,79,72
23640,note_on,,1,0,12,,,,,,,,,,,,,,,,11,,67,72
23640,note_on,,601,0,11,,,,,,,,,,,,,,,,10,,79,72
23640,note_on,,1,0,8,,,,,,,,,,,,,,,,6,,67,72
23699,note_on,,59,0,6,,,,,,,,,,,,,,,,2,,51,0
23699,note_on,,59,0,10,,,,,,,,,,,,,,,,8,,51,0
23699,note_on,,59,0,13,,,,,,,,,,,,,,,,12,,60,0
23699,note_on,,59,0,14,,,,,,,,,,,,,,,,13,,51,0
23699,note_on,,0,0,15,,,,,,,,,,,,,,,,15,,63,0
23699,note_on,,59,0,9,,,,,,,,,,,,,,,,7,,60,0
23699,note_on,,59,0,15,,,,,,,,,,,,,,,,15,,51,0
23699,note_on,,0,0,15,,,,,,,,,,,,,,,,15,,72,0
23699,note_on,,0,0,15,,,,,,,,,,,,,,,,15,,67,0
23700,note_on,,0,0,15,,,,,,,,,,,,,,,,15,,74,72
23700,note_on,,1,0,15,,,,,,,,,,,,,,,,15,,50,72
23700,note_on,,1,0,9,,,,,,,,,,,,,,,,7,,59,72
23700,note_on,,1,0,14,,,,,,,,,,,,,,,,13,,50,72
23700,note_on,,1,0,13,,,,,,,,,,,,,,,,12,,59,72
23700,note_on,,0,0,15,,,,,,,,,,,,,,,,15,,71,72
23700,note_on,,0,0,15,,,,,,,,,,,,,,,,15,,65,72
23700,note_on,,1,0,10,,,,,,,,,,,,,,,,8,,50,72
23700,note_on,,1,0,6,,,,,,,,,,,,,,,,2,,50,72
23759,note_on,,119,0,8,,,,,,,,,,,,,,,,6,,67,0
23759,note_on,,59,0,15,,,,,,,,,,,,,,,,15,,50,0
23759,note_on,,0,0,15,,,,,,,,,,,,,,,,15,,74,0
23759,note_on,,0,0,15,,,,,,,,,,,,,,,,15,,71,0
23759,note_on,,0,0,15,,,,,,,,,,,,,,,,15,,65,0
23759,note_on,,119,0,7,,,,,,,,,,,,,,,,5,,79,0
23759,note_on,,119,0,11,,,,,,,,,,,,,,,,10,,79,0
23759,note_on,,59,0,10,,,,,,,,,,,,,,,,8,,50,0
23759,note_on,,59,0,9,,,,,,,,,,,,,,,,7,,59,0
23759,note_on,,59,0,14,,,,,,,,,,,,,,,,13,,50,0
23759,note_on,,59,0,13,,,,,,,,,,,,,,,,12,,59,0
23759,note_on,,119,0,12,,,,,,,,,,,,,,,,11,,67,0
23759,note_on,,59,0,6,,,,,,,,,,,,,,,,2,,50,0
23759,note_on,,119,0,5,,,,,,,,,,,,,,,,1,,79,0
23760,note_on,,1,0,9,,,,,,,,,,,,,,,,7,,67,72
23760,note_on,,1,0,5,,,,,,,,,,,,,,,,1,,72,72
23760,note_on,,1,0,10,,,,,,,,,,,,,,,,8,,48,72
23760,note_on,,1,0,8,,,,,,,,,,,,,,,,6,,63,72
23760,note_on,,1,0,13,,,,,,,,,,,,,,,,12,,67,72
23760,note_on,,1,0,7,,,,,,,,,,,,,,,,5,,72,72
23760,note_on,,1,0,12,,,,,,,,,,,,,,,,11,,63,72
23760,note_on,,1,0,11,,,,,,,,,,,,,,,,10,,72,72
23760,note_on,,1,0,14,,,,,,,,,,,,,,,,13,,48,72
23760,note_on,,1,0,6,,,,,,,,,,,,,,,,2,,48,72
23760,note_on,,1,0,15,,,,,,,,,,,,,,,,15,,48,72
23760,note_on,,0,0,15,,,,,,,,,,,,,,,,15,,67,72
23760,note_on,,0,0,15,,,,,,,,,,,,,,,,15,,72,72
23760,note_on,,0,0,15,,,,,,,,,,,,,,,,15,,75,72
23819,note_on,,59,0,14,,,,,,,,,,,,,,,,13,,48,0
23819,note_on,,59,0,15,,,,,,,,,,,,,,,,15,,48,0
23819,note_on,,59,0,6,,,,,,,,,,,,,,,,2,,48,0
23819,note_on,,59,0,10,,,,,,,,,,,,,,,,8,,48,0
23820,note_on,,1,0,6,,,,,,,,,,,,,,,,2,,60,72
23820,note_on,,1,0,14,,,,,,,,,,,,,,,,13,,60,72
23820,note_on,,1,0,15,,,,,,,,,,,,,,,,15,,60,72
23820,note_on,,1,0,10,,,,,,,,,,,,,,,,8,,60,72
23879,note_on,,59,0,6,,,,,,,,,,,,,,,,2,,60,0
23879,note_on,,0,0,15,,,,,,,,,,,,,,,,15,,67,0
23879,note_on,,59,0,14,,,,,,,,,,,,,,,,13,,60,0
23879,note_on,,119,0,8,,,,,,,,,,,,,,,,6,,63,0
23879,note_on,,0,0,15,,,,,,,,,,,,,,,,15,,60,0
23879,note_on,,59,0,10,,,,,,,,,,,,,,,,8,,60,0
23879,note_on,,119,0,12,,,,,,,,,,,,,,,,11,,63,0
23879,note_on,,59,0,15,,,,,,,,,,,,,,,,15,,75,0
23879,note_on,,119,0,7,,,,,,,,,,,,,,,,5,,72,0
23879,note_on,,119,0,11,,,,,,,,,,,,,,,,10,,72,0
23879,note_on,,119,0,5,,,,,,,,,,,,,,,,1,,72,0
23879,note_on,,0,0,15,,,,,,,,,,,,,,,,15,,72,0
23880,note_on,,0,0,15,,,,,,,,,,,,,,,,15,,67,72
23880,note_on,,1,0,6,,,,,,,,,,,,,,,,2,,59,72
23880,note_on,,1,0,15,,,,,,,,,,,,,,,,15,,59,72
23880,note_on,,0,0,15,,,,,,,,,,,,,,,,15,,62,72
23880,note_on,,1,0,11,,,,,,,,,,,,,,,,10,,74,72
23880,note_on,,1,0,10,,,,,,,,,,,,,,,,8,,59,72
23880,note_on,,0,0,15,,,,,,,,,,,,,,,,15,,74,72
23880,note_on,,1,0,14,,,,,,,,,,,,,,,,13,,59,72
23880,note_on,,1,0,8,,,,,,,,,,,,,,,,6,,67,72
23880,note_on,,1,0,5,,,,,,,,,,,,,,,,1,,74,72
23880,note_on,,1,0,12,,,,,,,,,,,,,,,,11,,67,72
23880,note_on,,1,0,7,,,,,,,,,,,,,,,,5,,74,72
23939,note_on,,59,0,5,,,,,,,,,,,,,,,,1,,74,0
23939,note_on,,59,0,7,,,,,,,,,,,,,,,,5,,74,0
23939,note_on,,59,0,11,,,,,,,,,,,,,,,,10,,74,0
23939,note_on,,0,0,15,,,,,,,,,,,,,,,,15,,74,0
23939,note_on,,59,0,15,,,,,,,,,,,,,,,,15,,59,0
23939,note_on,,179,0,13,,,,,,,,,,,,,,,,12,,67,0
23939,note_on,,59,0,10,,,,,,,,,,,,,,,,8,,59,0
23939,note_on,,59,0,6,,,,,,,,,,,,,,,,2,,59,0
23939,note_on,,179,0,9,,,,,,,,,,,,,,,,7,,67,0
23939,note_on,,59,0,12,,,,,,,,,,,,,,,,11,,67,0
23939,note_on,,59,0,14,,,,,,,,,,,,,,,,13,,59,0
23939,note_on,,59,0,8,,,,,,,,,,,,,,,,6,,67,0
23940,note_on,,1,0,12,,,,,,,,,,,,,,,,11,,67,72
23940,note_on,,0,0,15,,,,,,,,,,,,,,,,15,,71,72
23940,note_on,,1,0,10,,,,,,,,,,,,,,,,8,,55,72
23940,note_on,,1,0,13,,,,,,,,,,,,,,,,12,,65,72
23940,note_on,,1,0,8,,,,,,,,,,,,,,,,6,,67,72
23940,note_on,,1,0,14,,,,,,,,,,,,,,,,13,,55,72
23940,note_on,,1,0,7,,,,,,,,,,,,,,,,5,,74,72
23940,note_on,,1,0,9,,,,,,,,,,,,,,,,7,,65,72
23940,note_on,,1,0,6,,,,,,,,,,,,,,,,2,,55,72
23940,note_on,,1,0,5,,,,,,,,,,,,,,,,1,,74,72
23940,note_on,,1,0,15,,,,,,,,,,,,,,,,15,,55,72
23940,note_on,,1,0,11,,,,,,,,,,,,,,,,10,,74,72
23999,note_on,,59,0,11,,,,,,,,,,,,,,,,10,,74,0
23999,note_on,,59,0,14,,,,,,,,,,,,,,,,13,,55,0
23999,note_on,,59,0,12,,,,,,,,,,,,,,,,11,,67,0
23999,note_on,,59,0,5,,,,,,,,,,,,,,,,1,,74,0
23999,note_on,,59,0,6,,,,,,,,,,,,,,,,2,,55,0
23999,note_on,,59,0,7,,,,,,,,,,,,,,,,5,,74,0
23999,note_on,,59,0,9,,,,,,,,,,,,,,,,7,,65,0
23999,note_on,,59,0,13,,,,,,,,,,,,,,,,12,,65,0
23999,note_on,,0,0,15,,,,,,,,,,,,,,,,15,,62,0
23999,note_on,,59,0,8,,,,,,,,,,,,,,,,6,,67,0
23999,note_on,,59,0,10,,,,,,,,,,,,,,,,8,,55,0
23999,note_on,,0,0,15,,,,,,,,,,,,,,,,15,,71,0
23999,note_on,,59,0,15,,,,,,,,,,,,,,,,15,,67,0
23999,note_on,,0,0,15,,,,,,,,,,,,,,,,15,,55,0
24000,note_on,,0,0,15,,,,,,,,,,,,,,,,15,,67,72
24000,note_on,,0,0,15,,,,,,,,,,,,,,,,15,,72,72
24000,note_on,,1,0,15,,,,,,,,,,,,,,,,15,,60,72
24000,note_on,,1,0,6,,,,,,,,,,,,,,,,2,,60,72
24000,note_on,,1,0,10,,,,,,,,,,,,,,,,8,,60,72
24000,note_on,,0,0,15,,,,,,,,,,,,,,,,15,,63,72
24000,note_on,,1,0,9,,,,,,,,,,,,,,,,7,,63,72
24000,note_on,,1,0,14,,,,,,,,,,,,,,,,13,,60,72
24000,note_on,,1,0,8,,,,,,,,,,,,,,,,6,,67,72
24000,note_on,,1,0,13,,,,,,,,,,,,,,,,12,,63,72
24000,note_on,,1,0,7,,,,,,,,,,,,,,,,5,,75,72
24000,note_on,,1,0,5,,,,,,,,,,,,,,,,1,,75,72
24000,note_on,,1,0,11,,,,,,,,,,,,,,,,10,,75,72
24000,note_on,,1,0,12,,,,,,,,,,,,,,,,11,,67,72
24059,note_on,,59,0,7,,,,,,,,,,,,,,,,5,,75,0
24059,note_on,,59,0,5,,,,,,,,,,,,,,,,1,,75,0
24059,note_on,,59,0,12,,,,,,,,,,,,,,,,11,,67,0
24059,note_on,,59,0,11,,,,,,,,,,,,,,,,10,,75,0
24059,note_on,,59,0,8,,,,,,,,,,,,,,,,6,,67,0
24060,note_on,,1,0,11,,,,,,,,,,,,,,,,10,,72,72
24060,note_on,,1,0,7,,,,,,,,,,,,,,,,5,,72,72
24060,note_on,,1,0,5,,,,,,,,,,,,,,,,1,,72,72
24060,note_on,,1,0,8,,,,,,,,,,,,,,,,6,,67,72
24060,note_on,,1,0,12,,,,,,,,,,,,,,,,11,,67,72
24119,note_on,,119,0,13,,,,,,,,,,,,,,,,12,,63,0
24119,note_on,,59,0,8,,,,,,,,,,,,,,,,6,,67,0
24119,note_on,,59,0,11,,,,,,,,,,,,,,,,10,,72,0
24119,note_on,,59,0,7,,,,,,,,,,,,,,,,5,,72,0
24119,note_on,,0,0,15,,,,,,,,,,,,,,,,15,,67,0
24119,note_on,,59,0,5,,,,,,,,,,,,,,,,1,,72,0
24119,note_on,,0,0,15,,,,,,,,,,,,,,,,15,,63,0
24119,note_on,,119,0,9,,,,,,,,,,,,,,,,7,,63,0
24119,note_on,,59,0,12,,,,,,,,,,,,,,,,11,,67,0
24119,note_on,,119,0,15,,,,,,,,,,,,,,,,15,,72,0
24120,note_on,,1,0,11,,,,,,,,,,,,,,,,10,,77,72
24120,note_on,,1,0,9,,,,,,,,,,,,,,,,7,,62,72
24120,note_on,,1,0,13,,,,,,,,,,,,,,,,12,,62,72
24120,note_on,,1,0,7,,,,,,,,,,,,,,,,5,,77,72
24120,note_on,,1,0,12,,,,,,,,,,,,,,,,11,,68,72
24120,note_on,,1,0,5,,,,,,,,,,,,,,,,1,,77,72
24120,note_on,,1,0,15,,,,,,,,,,,,,,,,15,,77,72
24120,note_on,,0,0,15,,,,,,,,,,,,,,,,15,,74,72
24120,note_on,,0,0,15,,,,,,,,,,,,,,,,15,,68,72
24120,note_on,,1,0,8,,,,,,,,,,,,,,,,6,,68,72
24179,note_on,,179,0,10,,,,,,,,,,,,,,,,8,,60,0
24179,note_on,,179,0,14,,,,,,,,,,,,,,,,13,,60,0
24179,note_on,,59,0,8,,,,,,,,,,,,,,,,6,,68,0
24179,note_on,,59,0,15,,,,,,,,,,,,,,,,15,,60,0
24179,note_on,,59,0,12,,,,,,,,,,,,,,,,11,,68,0
24179,note_on,,179,0,6,,,,,,,,,,,,,,,,2,,60,0
24180,note_on,,1,0,8,,,,,,,,,,,,,,,,6,,68,72
24180,note_on,,1,0,12,,,,,,,,,,,,,,,,11,,68,72
24180,note_on,,1,0,15,,,,,,,,,,,,,,,,15,,62,72
24180,note_on,,1,0,6,,,,,,,,,,,,,,,,2,,62,72
24180,note_on,,1,0,10,,,,,,,,,,,,,,,,8,,62,72
24180,note_on,,1,0,14,,,,,,,,,,,,,,,,13,,62,72
24209,note_on,,29,0,15,,,,,,,,,,,,,,,,15,,62,0
24209,note_on,,29,0,10,,,,,,,,,,,,,,,,8,,62,0
24209,note_on,,29,0,6,,,,,,,,,,,,,,,,2,,62,0
24209,note_on,,29,0,14,,,,,,,,,,,,,,,,13,,62,0
24210,note_on,,1,0,14,,,,,,,,,,,,,,,,13,,60,72
24210,note_on,,1,0,10,,,,,,,,,,,,,,,,8,,60,72
24210,note_on,,1,0,6,,,,,,,,,,,,,,,,2,,60,72
24210,note_on,,1,0,15,,,,,,,,,,,,,,,,15,,60,72
24239,note_on,,29,0,6,,,,,,,,,,,,,,,,2,,60,0
24239,note_on,,0,0,15,,,,,,,,,,,,,,,,15,,60,0
24239,note_on,,29,0,15,,,,,,,,,,,,,,,,15,,68,0
24239,note_on,,59,0,12,,,,,,,,,,,,,,,,11,,68,0
24239,note_on,,59,0,8,,,,,,,,,,,,,,,,6,,68,0
24239,note_on,,29,0,14,,,,,,,,,,,,,,,,13,,60,0
24239,note_on,,29,0,10,,,,,,,,,,,,,,,,8,,60,0
24240,note_on,,1,0,14,,,,,,,,,,,,,,,,13,,59,72
24240,note_on,,0,0,15,,,,,,,,,,,,,,,,15,,67,72
24240,note_on,,1,0,6,,,,,,,,,,,,,,,,2,,59,72
24240,note_on,,1,0,15,,,,,,,,,,,,,,,,15,,59,72
24240,note_on,,1,0,12,,,,,,,,,,,,,,,,11,,67,72
24240,note_on,,1,0,10,,,,,,,,,,,,,,,,8,,59,72
24240,note_on,,1,0,8,,,,,,,,,,,,,,,,6,,67,72
24299,note_on,,179,0,5,,,,,,,,,,,,,,,,1,,77,0
24299,note_on,,59,0,10,,,,,,,,,,,,,,,,8,,59,0
24299,note_on,,59,0,14,,,,,,,,,,,,,,,,13,,59,0
24299,note_on,,59,0,15,,,,,,,,,,,,,,,,15,,59,0
24299,note_on,,59,0,6,,,,,,,,,,,,,,,,2,,59,0
24299,note_on,,179,0,11,,,,,,,,,,,,,,,,10,,77,0
24299,note_on,,179,0,7,,,,,,,,,,,,,,,,5,,77,0
24300,note_on,,1,0,14,,,,,,,,,,,,,,,,13,,55,72
24300,note_on,,1,0,7,,,,,,,,,,,,,,,,5,,75,72
24300,note_on,,1,0,11,,,,,,,,,,,,,,,,10,,75,72
24300,note_on,,1,0,6,,,,,,,,,,,,,,,,2,,55,72
24300,note_on,,1,0,5,,,,,,,,,,,,,,,,1,,75,72
24300,note_on,,1,0,15,,,,,,,,,,,,,,,,15,,55,72
24300,note_on,,1,0,10,,,,,,,,,,,,,,,,8,,55,72
24329,note_on,,29,0,7,,,,,,,,,,,,,,,,5,,75,0
24329,note_on,,29,0,5,,,,,,,,,,,,,,,,1,,75,0
24329,note_on,,29,0,11,,,,,,,,,,,,,,,,10,,75,0
24330,note_on,,1,0,7,,,,,,,,,,,,,,,,5,,74,72
24330,note_on,,1,0,11,,,,,,,,,,,,,,,,10,,74,72
24330,note_on,,1,0,5,,,,,,,,,,,,,,,,1,,74,72
24359,note_on,,59,0,6,,,,,,,,,,,,,,,,2,,55,0
24359,note_on,,59,0,15,,,,,,,,,,,,,,,,15,,77,0
24359,note_on,,0,0,15,,,,,,,,,,,,,,,,15,,74,0
24359,note_on,,59,0,10,,,,,,,,,,,,,,,,8,,55,0
24359,note_on,,0,0,15,,,,,,,,,,,,,,,,15,,55,0
24359,note_on,,29,0,11,,,,,,,,,,,,,,,,10,,74,0
24359,note_on,,239,0,13,,,,,,,,,,,,,,,,12,,62,0
24359,note_on,,29,0,7,,,,,,,,,,,,,,,,5,,74,0
24359,note_on,,29,0,5,,,,,,,,,,,,,,,,1,,74,0
24359,note_on,,239,0,9,,,,,,,,,,,,,,,,7,,62,0
24359,note_on,,0,0,15,,,,,,,,,,,,,,,,15,,67,0
24359,note_on,,59,0,14,,,,,,,,,,,,,,,,13,,55,0
24360,note_on,,1,0,7,,,,,,,,,,,,,,,,5,,75,72
24360,note_on,,1,0,9,,,,,,,,,,,,,,,,7,,60,72
24360,note_on,,1,0,15,,,,,,,,,,,,,,,,15,,48,72
24360,note_on,,0,0,15,,,,,,,,,,,,,,,,15,,72,72
24360,note_on,,1,0,10,,,,,,,,,,,,,,,,8,,48,72
24360,note_on,,0,0,15,,,,,,,,,,,,,,,,15,,75,72
24360,note_on,,1,0,5,,,,,,,,,,,,,,,,1,,75,72
24360,note_on,,1,0,13,,,,,,,,,,,,,,,,12,,60,72
24360,note_on,,1,0,6,,,,,,,,,,,,,,,,2,,48,72
24360,note_on,,1,0,11,,,,,,,,,,,,,,,,10,,75,72
24360,note_on,,0,0,15,,,,,,,,,,,,,,,,15,,67,72
24360,note_on,,1,0,14,,,,,,,,,,,,,,,,13,,48,72
24419,note_on,,59,0,14,,,,,,,,,,,,,,,,13,,48,0
24419,note_on,,59,0,7,,,,,,,,,,,,,,,,5,,75,0
24419,note_on,,59,0,13,,,,,,,,,,,,,,,,12,,60,0
24419,note_on,,179,0,8,,,,,,,,,,,,,,,,6,,67,0
24419,note_on,,59,0,15,,,,,,,,,,,,,,,,15,,48,0
24419,note_on,,0,0,15,,,,,,,,,,,,,,,,15,,75,0
24419,note_on,,59,0,10,,,,,,,,,,,,,,,,8,,48,0
24419,note_on,,0,0,15,,,,,,,,,,,,,,,,15,,72,0
24419,note_on,,0,0,15,,,,,,,,,,,,,,,,15,,67,0
24419,note_on,,59,0,6,,,,,,,,,,,,,,,,2,,48,0
24419,note_on,,59,0,9,,,,,,,,,,,,,,,,7,,60,0
24419,note_on,,59,0,11,,,,,,,,,,,,,,,,10,,75,0
24419,note_on,,179,0,12,,,,,,,,,,,,,,,,11,,67,0
24419,note_on,,59,0,5,,,,,,,,,,,,,,,,1,,75,0
24420,note_on,,1,0,5,,,,,,,,,,,,,,,,1,,77,72
24420,note_on,,1,0,9,,,,,,,,,,,,,,,,7,,59,72
24420,note_on,,1,0,12,,,,,,,,,,,,,,,,11,,65,72
24420,note_on,,1,0,6,,,,,,,,,,,,,,,,2,,50,72
24420,note_on,,1,0,11,,,,,,,,,,,,,,,,10,,77,72
24420,note_on,,1,0,14,,,,,,,,,,,,,,,,13,,50,72
24420,note_on,,1,0,8,,,,,,,,,,,,,,,,6,,65,72
24420,note_on,,1,0,7,,,,,,,,,,,,,,,,5,,77,72
24420,note_on,,1,0,10,,,,,,,,,,,,,,,,8,,50,72
24420,note_on,,0,0,15,,,,,,,,,,,,,,,,15,,65,72
24420,note_on,,0,0,15,,,,,,,,,,,,,,,,15,,71,72
24420,note_on,,0,0,15,,,,,,,,,,,,,,,,15,,74,72
24420,note_on,,1,0,13,,,,,,,,,,,,,,,,12,,59,72
24420,note_on,,1,0,15,,,,,,,,,,,,,,,,15,,50,72
24479,note_on,,0,0,15,,,,,,,,,,,,,,,,15,,65,0
24479,note_on,,59,0,8,,,,,,,,,,,,,,,,6,,65,0
24479,note_on,,59,0,12,,,,,,,,,,,,,,,,11,,65,0
24479,note_on,,59,0,13,,,,,,,,,,,,,,,,12,,59,0
24479,note_on,,59,0,14,,,,,,,,,,,,,,,,13,,50,0
24479,note_on,,59,0,7,,,,,,,,,,,,,,,,5,,77,0
24479,note_on,,59,0,6,,,,,,,,,,,,,,,,2,,50,0
24479,note_on,,59,0,9,,,,,,,,,,,,,,,,7,,59,0
24479,note_on,,0,0,15,,,,,,,,,,,,,,,,15,,71,0
24479,note_on,,59,0,5,,,,,,,,,,,,,,,,1,,77,0
24479,note_on,,59,0,11,,,,,,,,,,,,,,,,10,,77,0
24479,note_on,,59,0,15,,,,,,,,,,,,,,,,15,,50,0
24479,note_on,,0,0,15,,,,,,,,,,,,,,,,15,,74,0
24479,note_on,,59,0,10,,,,,,,,,,,,,,,,8,,50,0
24480,note_on,,1,0,14,,,,,,,,,,,,,,,,13,,51,72
24480,note_on,,0,0,15,,,,,,,,,,,,,,,,15,,60,72
24480,note_on,,1,0,15,,,,,,,,,,,,,,,,15,,51,72
24480,note_on,,1,0,12,,,,,,,,,,,,,,,,11,,63,72
24480,note_on,,1,0,10,,,,,,,,,,,,,,,,8,,51,72
24480,note_on,,0,0,15,,,,,,,,,,,,,,,,15,,67,72
24480,note_on,,0,0,15,,,,,,,,,,,,,,,,15,,72,72
24480,note_on,,1,0,7,,,,,,,,,,,,,,,,5,,79,72
24480,note_on,,1,0,8,,,,,,,,,,,,,,,,6,,63,72
24480,note_on,,1,0,5,,,,,,,,,,,,,,,,1,,79,72
24480,note_on,,1,0,11,,,,,,,,,,,,,,,,10,,79,72
24480,note_on,,1,0,9,,,,,,,,,,,,,,,,7,,60,72
24480,note_on,,1,0,6,,,,,,,,,,,,,,,,2,,51,72
24480,note_on,,1,0,13,,,,,,,,,,,,,,,,12,,60,72
24539,note_on,,59,0,11,,,,,,,,,,,,,,,,10,,79,0
24539,note_on,,59,0,10,,,,,,,,,,,,,,,,8,,51,0
24539,note_on,,59,0,14,,,,,,,,,,,,,,,,13,,51,0
24539,note_on,,59,0,12,,,,,,,,,,,,,,,,11,,63,0
24539,note_on,,59,0,7,,,,,,,,,,,,,,,,5,,79,0
24539,note_on,,59,0,5,,,,,,,,,,,,,,,,1,,79,0
24539,note_on,,59,0,8,,,,,,,,,,,,,,,,6,,63,0
24539,note_on,,0,0,15,,,,,,,,,,,,,,,,15,,60,0
24539,note_on,,59,0,15,,,,,,,,,,,,,,,,15,,51,0
24539,note_on,,59,0,6,,,,,,,,,,,,,,,,2,,51,0
24540,note_on,,0,0,15,,,,,,,,,,,,,,,,15,,63,72
24540,note_on,,1,0,11,,,,,,,,,,,,,,,,10,,75,72
24540,note_on,,1,0,14,,,,,,,,,,,,,,,,13,,48,72
24540,note_on,,1,0,15,,,,,,,,,,,,,,,,15,,48,72
24540,note_on,,1,0,10,,,,,,,,,,,,,,,,8,,48,72
24540,note_on,,1,0,5,,,,,,,,,,,,,,,,1,,75,72
24540,note_on,,1,0,6,,,,,,,,,,,,,,,,2,,48,72
24540,note_on,,1,0,7,,,,,,,,,,,,,,,,5,,75,72
24540,note_on,,1,0,8,,,,,,,,,,,,,,,,6,,63,72
24540,note_on,,1,0,12,,,,,,,,,,,,,,,,11,,63,72
24599,note_on,,0,0,15,,,,,,,,,,,,,,,,15,,48,0
24599,note_on,,59,0,8,,,,,,,,,,,,,,,,6,,63,0
24599,note_on,,59,0,5,,,,,,,,,,,,,,,,1,,75,0
24599,note_on,,59,0,11,,,,,,,,,,,,,,,,10,,75,0
24599,note_on,,59,0,10,,,,,,,,,,,,,,,,8,,48,0
24599,note_on,,59,0,12,,,,,,,,,,,,,,,,11,,63,0
24599,note_on,,59,0,6,,,,,,,,,,,,,,,,2,,48,0
24599,note_on,,59,0,14,,,,,,,,,,,,,,,,13,,48,0
24599,note_on,,59,0,15,,,,,,,,,,,,,,,,15,,67,0
24599,note_on,,0,0,15,,,,,,,,,,,,,,,,15,,63,0
24599,note_on,,59,0,7,,,,,,,,,,,,,,,,5,,75,0
24600,note_on,,1,0,14,,,,,,,,,,,,,,,,13,,53,72
24600,note_on,,1,0,10,,,,,,,,,,,,,,,,8,,53,72
24600,note_on,,1,0,5,,,,,,,,,,,,,,,,1,,80,72
24600,note_on,,1,0,7,,,,,,,,,,,,,,,,5,,80,72
24600,note_on,,1,0,12,,,,,,,,,,,,,,,,11,,65,72
24600,note_on,,1,0,15,,,,,,,,,,,,,,,,15,,53,72
24600,note_on,,0,0,15,,,,,,,,,,,,,,,,15,,68,72
24600,note_on,,0,0,15,,,,,,,,,,,,,,,,15,,60,72
24600,note_on,,1,0,8,,,,,,,,,,,,,,,,6,,65,72
24600,note_on,,1,0,11,,,,,,,,,,,,,,,,10,,80,72
24600,note_on,,1,0,6,,,,,,,,,,,,,,,,2,,53,72
24659,note_on,,59,0,15,,,,,,,,,,,,,,,,15,,53,0
24659,note_on,,179,0,9,,,,,,,,,,,,,,,,7,,60,0
24659,note_on,,59,0,14,,,,,,,,,,,,,,,,13,,53,0
24659,note_on,,59,0,8,,,,,,,,,,,,,,,,6,,65,0
24659,note_on,,179,0,13,,,,,,,,,,,,,,,,12,,60,0
24659,note_on,,59,0,6,,,,,,,,,,,,,,,,2,,53,0
24659,note_on,,59,0,12,,,,,,,,,,,,,,,,11,,65,0
24659,note_on,,59,0,10,,,,,,,,,,,,,,,,8,,53,0
24660,note_on,,1,0,10,,,,,,,,,,,,,,,,8,,51,72
24660,note_on,,1,0,13,,,,,,,,,,,,,,,,12,,62,72
24660,note_on,,1,0,12,,,,,,,,,,,,,,,,11,,65,72
24660,note_on,,1,0,8,,,,,,,,,,,,,,,,6,,65,72
24660,note_on,,1,0,14,,,,,,,,,,,,,,,,13,,51,72
24660,note_on,,1,0,15,,,,,,,,,,,,,,,,15,,51,72
24660,note_on,,1,0,6,,,,,,,,,,,,,,,,2,,51,72
24660,note_on,,1,0,9,,,,,,,,,,,,,,,,7,,62,72
24689,note_on,,29,0,13,,,,,,,,,,,,,,,,12,,62,0
24689,note_on,,29,0,9,,,,,,,,,,,,,,,,7,,62,0
24690,note_on,,1,0,9,,,,,,,,,,,,,,,,7,,60,72
24690,note_on,,1,0,13,,,,,,,,,,,,,,,,12,,60,72
24719,note_on,,119,0,7,,,,,,,,,,,,,,,,5,,80,0
24719,note_on,,29,0,9,,,,,,,,,,,,,,,,7,,60,0
24719,note_on,,59,0,6,,,,,,,,,,,,,,,,2,,51,0
24719,note_on,,119,0,5,,,,,,,,,,,,,,,,1,,80,0
24719,note_on,,29,0,13,,,,,,,,,,,,,,,,12,,60,0
24719,note_on,,59,0,12,,,,,,,,,,,,,,,,11,,65,0
24719,note_on,,119,0,11,,,,,,,,,,,,,,,,10,,80,0
24719,note_on,,59,0,15,,,,,,,,,,,,,,,,15,,72,0
24719,note_on,,59,0,10,,,,,,,,,,,,,,,,8,,51,0
24719,note_on,,0,0,15,,,,,,,,,,,,,,,,15,,60,0
24719,note_on,,59,0,14,,,,,,,,,,,,,,,,13,,51,0
24719,note_on,,0,0,15,,,,,,,,,,,,,,,,15,,51,0
24719,note_on,,59,0,8,,,,,,,,,,,,,,,,6,,65,0
24719,note_on,,0,0,15,,,,,,,,,,,,,,,,15,,68,0
24720,note_on,,1,0,15,,,,,,,,,,,,,,,,15,,50,72
24720,note_on,,0,0,15,,,,,,,,,,,,,,,,15,,70,72
24720,note_on,,1,0,12,,,,,,,,,,,,,,,,11,,65,72
24720,note_on,,1,0,9,,,,,,,,,,,,,,,,7,,58,72
24720,note_on,,1,0,13,,,,,,,,,,,,,,,,12,,58,72
24720,note_on,,1,0,8,,,,,,,,,,,,,,,,6,,65,72
24720,note_on,,1,0,14,,,,,,,,,,,,,,,,13,,50,72
24720,note_on,,0,0,15,,,,,,,,,,,,,,,,15,,68,72
24720,note_on,,1,0,10,,,,,,,,,,,,,,,,8,,50,72
24720,note_on,,1,0,6,,,,,,,,,,,,,,,,2,,50,72
24720,note_on,,0,0,15,,,,,,,,,,,,,,,,15,,65,72
24779,note_on,,59,0,6,,,,,,,,,,,,,,,,2,,50,0
24779,note_on,,59,0,12,,,,,,,,,,,,,,,,11,,65,0
24779,note_on,,59,0,15,,,,,,,,,,,,,,,,15,,50,0
24779,note_on,,59,0,8,,,,,,,,,,,,,,,,6,,65,0
24779,note_on,,59,0,10,,,,,,,,,,,,,,,,8,,50,0
24779,note_on,,59,0,14,,,,,,,,,,,,,,,,13,,50,0
24779,note_on,,0,0,15,,,,,,,,,,,,,,,,15,,65,0
24780,note_on,,61,0,7,,,,,,,,,,,,,,,,5,,79,72
24780,note_on,,0,0,15,,,,,,,,,,,,,,,,15,,62,72
24780,note_on,,61,0,5,,,,,,,,,,,,,,,,1,,79,72
24780,note_on,,1,0,8,,,,,,,,,,,,,,,,6,,62,72
24780,note_on,,1,0,14,,,,,,,,,,,,,,,,13,,58,72
24780,note_on,,61,0,11,,,,,,,,,,,,,,,,10,,79,72
24780,note_on,,1,0,10,,,,,,,,,,,,,,,,8,,58,72
24780,note_on,,1,0,6,,,,,,,,,,,,,,,,2,,58,72
24780,note_on,,1,0,12,,,,,,,,,,,,,,,,11,,62,72
24780,note_on,,1,0,15,,,,,,,,,,,,,,,,15,,58,72
24809,note_on,,29,0,11,,,,,,,,,,,,,,,,10,,79,0
24810,note_on,,1,0,11,,,,,,,,,,,,,,,,10,,77,72
24839,note_on,,59,0,12,,,,,,,,,,,,,,,,11,,62,0
24839,note_on,,59,0,7,,,,,,,,,,,,,,,,5,,79,0
24839,note_on,,59,0,8,,,,,,,,,,,,,,,,6,,62,0
24839,note_on,,59,0,14,,,,,,,,,,,,,,,,13,,58,0
24839,note_on,,119,0,13,,,,,,,,,,,,,,,,12,,58,0
24839,note_on,,59,0,10,,,,,,,,,,,,,,,,8,,58,0
24839,note_on,,0,0,15,,,,,,,,,,,,,,,,15,,62,0
24839,note_on,,119,0,9,,,,,,,,,,,,,,,,7,,58,0
24839,note_on,,29,0,11,,,,,,,,,,,,,,,,10,,77,0
24839,note_on,,59,0,5,,,,,,,,,,,,,,,,1,,79,0
24839,note_on,,0,0,15,,,,,,,,,,,,,,,,15,,68,0
24839,note_on,,59,0,15,,,,,,,,,,,,,,,,15,,70,0
24839,note_on,,0,0,15,,,,,,,,,,,,,,,,15,,58,0
24839,note_on,,59,0,6,,,,,,,,,,,,,,,,2,,58,0
24840,note_on,,1,0,8,,,,,,,,,,,,,,,,6,,70,72
24840,note_on,,1,0,6,,,,,,,,,,,,,,,,2,,63,72
24840,note_on,,1,0,7,,,,,,,,,,,,,,,,5,,79,72
24840,note_on,,1,0,13,,,,,,,,,,,,,,,,12,,67,72
24840,note_on,,1,0,9,,,,,,,,,,,,,,,,7,,67,72
24840,note_on,,1,0,11,,,,,,,,,,,,,,,,10,,79,72
24840,note_on,,1,0,10,,,,,,,,,,,,,,,,8,,63,72
24840,note_on,,1,0,15,,,,,,,,,,,,,,,,15,,63,72
24840,note_on,,1,0,14,,,,,,,,,,,,,,,,13,,63,72
24840,note_on,,1,0,5,,,,,,,,,,,,,,,,1,,79,72
24840,note_on,,0,0,15,,,,,,,,,,,,,,,,15,,70,72
24840,note_on,,0,0,15,,,,,,,,,,,,,,,,15,,67,72
24840,note_on,,1,0,12,,,,,,,,,,,,,,,,11,,70,72
24899,note_on,,59,0,9,,,,,,,,,,,,,,,,7,,67,0
24899,note_on,,59,0,13,,,,,,,,,,,,,,,,12,,67,0
24899,note_on,,59,0,14,,,,,,,,,,,,,,,,13,,63,0
24899,note_on,,59,0,6,,,,,,,,,,,,,,,,2,,63,0
24899,note_on,,59,0,11,,,,,,,,,,,,,,,,10,,79,0
24899,note_on,,59,0,7,,,,,,,,,,,,,,,,5,,79,0
24899,note_on,,59,0,10,,,,,,,,,,,,,,,,8,,63,0
24899,note_on,,59,0,15,,,,,,,,,,,,,,,,15,,63,0
24899,note_on,,0,0,15,,,,,,,,,,,,,,,,15,,67,0
24899,note_on,,59,0,5,,,,,,,,,,,,,,,,1,,79,0
24900,note_on,,1,0,6,,,,,,,,,,,,,,,,2,,62,72
24900,note_on,,1,0,10,,,,,,,,,,,,,,,,8,,62,72
24900,note_on,,1,0,9,,,,,,,,,,,,,,,,7,,65,72
24900,note_on,,1,0,7,,,,,,,,,,,,,,,,5,,79,72
24900,note_on,,1,0,13,,,,,,,,,,,,,,,,12,,65,72
24900,note_on,,1,0,14,,,,,,,,,,,,,,,,13,,62,72
24900,note_on,,1,0,15,,,,,,,,,,,,,,,,15,,62,72
24900,note_on,,0,0,15,,,,,,,,,,,,,,,,15,,65,72
24900,note_on,,1,0,5,,,,,,,,,,,,,,,,1,,79,72
24900,note_on,,1,0,11,,,,,,,,,,,,,,,,10,,79,72
24959,note_on,,59,0,13,,,,,,,,,,,,,,,,12,,65,0
24959,note_on,,119,0,12,,,,,,,,,,,,,,,,11,,70,0
24959,note_on,,59,0,6,,,,,,,,,,,,,,,,2,,62,0
24959,note_on,,59,0,10,,,,,,,,,,,,,,,,8,,62,0
24959,note_on,,59,0,9,,,,,,,,,,,,,,,,7,,65,0
24959,note_on,,59,0,14,,,,,,,,,,,,,,,,13,,62,0
24959,note_on,,0,0,15,,,,,,,,,,,,,,,,15,,65,0
24959,note_on,,0,0,15,,,,,,,,,,,,,,,,15,,62,0
24959,note_on,,59,0,7,,,,,,,,,,,,,,,,5,,79,0
24959,note_on,,59,0,15,,,,,,,,,,,,,,,,15,,70,0
24959,note_on,,59,0,11,,,,,,,,,,,,,,,,10,,79,0
24959,note_on,,59,0,5,,,,,,,,,,,,,,,,1,,79,0
24959,note_on,,119,0,8,,,,,,,,,,,,,,,,6,,70,0
24960,note_on,,1,0,15,,,,,,,,,,,,,,,,15,,60,72
24960,note_on,,0,0,15,,,,,,,,,,,,,,,,15,,68,72
24960,note_on,,1,0,10,,,,,,,,,,,,,,,,8,,60,72
24960,note_on,,1,0,13,,,,,,,,,,,,,,,,12,,63,72
24960,note_on,,0,0,15,,,,,,,,,,,,,,,,15,,72,72
24960,note_on,,0,0,15,,,,,,,,,,,,,,,,15,,63,72
24960,note_on,,1,0,14,,,,,,,,,,,,,,,,13,,60,72
24960,note_on,,1,0,5,,,,,,,,,,,,,,,,1,,79,72
24960,note_on,,1,0,11,,,,,,,,,,,,,,,,10,,84,72
24960,note_on,,1,0,7,,,,,,,,,,,,,,,,5,,79,72
24960,note_on,,1,0,8,,,,,,,,,,,,,,,,6,,68,72
24960,note_on,,1,0,9,,,,,,,,,,,,,,,,7,,63,72
24960,note_on,,1,0,12,,,,,,,,,,,,,,,,11,,68,72
24960,note_on,,1,0,6,,,,,,,,,,,,,,,,2,,60,72
25019,note_on,,59,0,9,,,,,,,,,,,,,,,,7,,63,0
25019,note_on,,59,0,10,,,,,,,,,,,,,,,,8,,60,0
25019,note_on,,59,0,14,,,,,,,,,,,,,,,,13,,60,0
25019,note_on,,59,0,13,,,,,,,,,,,,,,,,12,,63,0
25019,note_on,,59,0,7,,,,,,,,,,,,,,,,5,,79,0
25019,note_on,,0,0,15,,,,,,,,,,,,,,,,15,,63,0
25019,note_on,,59,0,15,,,,,,,,,,,,,,,,15,,60,0
25019,note_on,,59,0,5,,,,,,,,,,,,,,,,1,,79,0
25019,note_on,,59,0,11,,,,,,,,,,,,,,,,10,,84,0
25019,note_on,,59,0,6,,,,,,,,,,,,,,,,2,,60,0
25020,note_on,,1,0,10,,,,,,,,,,,,,,,,8,,63,72
25020,note_on,,1,0,11,,,,,,,,,,,,,,,,10,,77,72
25020,note_on,,1,0,6,,,,,,,,,,,,,,,,2,,63,72
25020,note_on,,1,0,13,,,,,,,,,,,,,,,,12,,60,72
25020,note_on,,1,0,15,,,,,,,,,,,,,,,,15,,63,72
25020,note_on,,0,0,15,,,,,,,,,,,,,,,,15,,67,72
25020,note_on,,1,0,5,,,,,,,,,,,,,,,,1,,77,72
25020,note_on,,1,0,7,,,,,,,,,,,,,,,,5,,77,72
25020,note_on,,1,0,14,,,,,,,,,,,,,,,,13,,63,72
25020,note_on,,1,0,9,,,,,,,,,,,,,,,,7,,60,72
25079,note_on,,59,0,11,,,,,,,,,,,,,,,,10,,77,0
25079,note_on,,59,0,5,,,,,,,,,,,,,,,,1,,77,0
25079,note_on,,59,0,7,,,,,,,,,,,,,,,,5,,77,0
25079,note_on,,59,0,14,,,,,,,,,,,,,,,,13,,63,0
25079,note_on,,59,0,9,,,,,,,,,,,,,,,,7,,60,0
25079,note_on,,59,0,6,,,,,,,,,,,,,,,,2,,63,0
25079,note_on,,0,0,15,,,,,,,,,,,,,,,,15,,67,0
25079,note_on,,59,0,15,,,,,,,,,,,,,,,,15,,63,0
25079,note_on,,59,0,13,,,,,,,,,,,,,,,,12,,60,0
25079,note_on,,59,0,10,,,,,,,,,,,,,,,,8,,63,0
25080,note_on,,0,0,15,,,,,,,,,,,,,,,,15,,65,72
25080,note_on,,1,0,15,,,,,,,,,,,,,,,,15,,62,72
25080,note_on,,1,0,6,,,,,,,,,,,,,,,,2,,62,72
25080,note_on,,1,0,11,,,,,,,,,,,,,,,,10,,77,72
25080,note_on,,1,0,5,,,,,,,,,,,,,,,,1,,77,72
25080,note_on,,1,0,13,,,,,,,,,,,,,,,,12,,65,72
25080,note_on,,1,0,10,,,,,,,,,,,,,,,,8,,62,72
25080,note_on,,1,0,14,,,,,,,,,,,,,,,,13,,62,72
25080,note_on,,1,0,9,,,,,,,,,,,,,,,,7,,65,72
25080,note_on,,1,0,7,,,,,,,,,,,,,,,,5,,77,72
25139,note_on,,59,0,9,,,,,,,,,,,,,,,,7,,65,0
25139,note_on,,59,0,6,,,,,,,,,,,,,,,,2,,62,0
25139,note_on,,179,0,8,,,,,,,,,,,,,,,,6,,68,0
25139,note_on,,59,0,15,,,,,,,,,,,,,,,,15,,62,0
25139,note_on,,59,0,13,,,,,,,,,,,,,,,,12,,65,0
25139,note_on,,59,0,14,,,,,,,,,,,,,,,,13,,62,0
25139,note_on,,59,0,10,,,,,,,,,,,,,,,,8,,62,0
25139,note_on,,179,0,12,,,,,,,,,,,,,,,,11,,68,0
25139,note_on,,0,0,15,,,,,,,,,,,,,,,,15,,65,0
25140,note_on,,1,0,13,,,,,,,,,,,,,,,,12,,63,72
25140,note_on,,1,0,15,,,,,,,,,,,,,,,,15,,60,72
25140,note_on,,1,0,12,,,,,,,,,,,,,,,,11,,68,72
25140,note_on,,1,0,8,,,,,,,,,,,,,,,,6,,68,72
25140,note_on,,1,0,10,,,,,,,,,,,,,,,,8,,60,72
25140,note_on,,1,0,14,,,,,,,,,,,,,,,,13,,60,72
25140,note_on,,1,0,6,,,,,,,,,,,,,,,,2,,60,72
25140,note_on,,1,0,9,,,,,,,,,,,,,,,,7,,63,72
25140,note_on,,0,0,15,,,,,,,,,,,,,,,,15,,63,72
25199,note_on,,59,0,10,,,,,,,,,,,,,,,,8,,60,0
25199,note_on,,0,0,15,,,,,,,,,,,,,,,,15,,68,0
25199,note_on,,0,0,15,,,,,,,,,,,,,,,,15,,63,0
25199,note_on,,59,0,14,,,,,,,,,,,,,,,,13,,60,0
25199,note_on,,59,0,15,,,,,,,,,,,,,,,,15,,72,0
25199,note_on,,0,0,15,,,,,,,,,,,,,,,,15,,60,0
25199,note_on,,119,0,7,,,,,,,,,,,,,,,,5,,77,0
25199,note_on,,59,0,8,,,,,,,,,,,,,,,,6,,68,0
25199,note_on,,59,0,13,,,,,,,,,,,,,,,,12,,63,0
25199,note_on,,59,0,6,,,,,,,,,,,,,,,,2,,60,0
25199,note_on,,119,0,11,,,,,,,,,,,,,,,,10,,77,0
25199,note_on,,119,0,5,,,,,,,,,,,,,,,,1,,77,0
25199,note_on,,59,0,12,,,,,,,,,,,,,,,,11,,68,0
25199,note_on,,59,0,9,,,,,,,,,,,,,,,,7,,63,0
25200,note_on,,1,0,10,,,,,,,,,,,,,,,,8,,59,72
25200,note_on,,1,0,14,,,,,,,,,,,,,,,,13,,59,72
25200,note_on,,1,0,6,,,,,,,,,,,,,,,,2,,59,72
25200,note_on,,0,0,15,,,,,,,,,,,,,,,,15,,62,72
25200,note_on,,0,0,15,,,,,,,,,,,,,,,,15,,67,72
25200,note_on,,1,0,15,,,,,,,,,,,,,,,,15,,59,72
25200,note_on,,1,0,12,,,,,,,,,,,,,,,,11,,67,72
25200,note_on,,1,0,13,,,,,,,,,,,,,,,,12,,62,72
25200,note_on,,1,0,8,,,,,,,,,,,,,,,,6,,67,72
25200,note_on,,0,0,15,,,,,,,,,,,,,,,,15,,74,72
25200,note_on,,1,0,9,,,,,,,,,,,,,,,,7,,62,72
25259,note_on,,59,0,15,,,,,,,,,,,,,,,,15,,59,0
25259,note_on,,0,0,15,,,,,,,,,,,,,,,,15,,67,0
25259,note_on,,59,0,13,,,,,,,,,,,,,,,,12,,62,0
25259,note_on,,59,0,14,,,,,,,,,,,,,,,,13,,59,0
25259,note_on,,59,0,6,,,,,,,,,,,,,,,,2,,59,0
25259,note_on,,59,0,9,,,,,,,,,,,,,,,,7,,62,0
25259,note_on,,59,0,12,,,,,,,,,,,,,,,,11,,67,0
25259,note_on,,59,0,10,,,,,,,,,,,,,,,,8,,59,0
25259,note_on,,59,0,8,,,,,,,,,,,,,,,,6,,67,0
25260,note_on,,61,0,5,,,,,,,,,,,,,,,,1,,80,72
25260,note_on,,1,0,12,,,,,,,,,,,,,,,,11,,62,72
25260,note_on,,1,0,10,,,,,,,,,,,,,,,,8,,60,72
25260,note_on,,61,0,11,,,,,,,,,,,,,,,,10,,80,72
25260,note_on,,1,0,14,,,,,,,,,,,,,,,,13,,59,72
25260,note_on,,1,0,9,,,,,,,,,,,,,,,,7,,62,72
25260,note_on,,1,0,8,,,,,,,,,,,,,,,,6,,62,72
25260,note_on,,1,0,13,,,,,,,,,,,,,,,,12,,62,72
25260,note_on,,61,0,7,,,,,,,,,,,,,,,,5,,80,72
25260,note_on,,1,0,15,,,,,,,,,,,,,,,,15,,59,72
25260,note_on,,0,0,15,,,,,,,,,,,,,,,,15,,65,72
25260,note_on,,1,0,6,,,,,,,,,,,,,,,,2,,59,72
25289,note_on,,29,0,10,,,,,,,,,,,,,,,,8,,60,0
25290,note_on,,1,0,10,,,,,,,,,,,,,,,,8,,59,72
25319,note_on,,59,0,12,,,,,,,,,,,,,,,,11,,62,0
25319,note_on,,0,0,15,,,,,,,,,,,,,,,,15,,59,0
25319,note_on,,29,0,10,,,,,,,,,,,,,,,,8,,59,0
25319,note_on,,59,0,7,,,,,,,,,,,,,,,,5,,80,0
25319,note_on,,59,0,13,,,,,,,,,,,,,,,,12,,62,0
25319,note_on,,59,0,11,,,,,,,,,,,,,,,,10,,80,0
25319,note_on,,59,0,6,,,,,,,,,,,,,,,,2,,59,0
25319,note_on,,0,0,15,,,,,,,,,,,,,,,,15,,65,0
25319,note_on,,59,0,14,,,,,,,,,,,,,,,,13,,59,0
25319,note_on,,59,0,15,,,,,,,,,,,,,,,,15,,74,0
25319,note_on,,59,0,5,,,,,,,,,,,,,,,,1,,80,0
25319,note_on,,59,0,9,,,,,,,,,,,,,,,,7,,62,0
25319,note_on,,59,0,8,,,,,,,,,,,,,,,,6,,62,0
25319,note_on,,0,0,15,,,,,,,,,,,,,,,,15,,62,0
25320,note_on,,1,0,7,,,,,,,,,,,,,,,,5,,79,72
25320,note_on,,0,0,15,,,,,,,,,,,,,,,,15,,63,72
25320,note_on,,1,0,13,,,,,,,,,,,,,,,,12,,63,72
25320,note_on,,1,0,11,,,,,,,,,,,,,,,,10,,79,72
25320,note_on,,1,0,14,,,,,,,,,,,,,,,,13,,60,72
25320,note_on,,1,0,9,,,,,,,,,,,,,,,,7,,63,72
25320,note_on,,1,0,8,,,,,,,,,,,,,,,,6,,67,72
25320,note_on,,0,0,15,,,,,,,,,,,,,,,,15,,67,72
25320,note_on,,1,0,5,,,,,,,,,,,,,,,,1,,79,72
25320,note_on,,1,0,15,,,,,,,,,,,,,,,,15,,60,72
25320,note_on,,1,0,6,,,,,,,,,,,,,,,,2,,60,72
25320,note_on,,1,0,10,,,,,,,,,,,,,,,,8,,60,72
25320,note_on,,1,0,12,,,,,,,,,,,,,,,,11,,67,72
25379,note_on,,0,0,15,,,,,,,,,,,,,,,,15,,63,0
25379,note_on,,59,0,6,,,,,,,,,,,,,,,,2,,60,0
25379,note_on,,59,0,8,,,,,,,,,,,,,,,,6,,67,0
25379,note_on,,59,0,13,,,,,,,,,,,,,,,,12,,63,0
25379,note_on,,59,0,9,,,,,,,,,,,,,,,,7,,63,0
25379,note_on,,59,0,11,,,,,,,,,,,,,,,,10,,79,0
25379,note_on,,59,0,10,,,,,,,,,,,,,,,,8,,60,0
25379,note_on,,59,0,7,,,,,,,,,,,,,,,,5,,79,0
25379,note_on,,59,0,14,,,,,,,,,,,,,,,,13,,60,0
25379,note_on,,0,0,15,,,,,,,,,,,,,,,,15,,67,0
25379,note_on,,59,0,15,,,,,,,,,,,,,,,,15,,60,0
25379,note_on,,59,0,12,,,,,,,,,,,,,,,,11,,67,0
25379,note_on,,59,0,5,,,,,,,,,,,,,,,,1,,79,0
25380,note_on,,0,0,15,,,,,,,,,,,,,,,,15,,72,72
25380,note_on,,1,0,15,,,,,,,,,,,,,,,,15,,53,72
25380,note_on,,1,0,9,,,,,,,,,,,,,,,,7,,60,72
25380,note_on,,1,0,8,,,,,,,,,,,,,,,,6,,68,72
25380,note_on,,1,0,14,,,,,,,,,,,,,,,,13,,53,72
25380,note_on,,1,0,13,,,,,,,,,,,,,,,,12,,60,72
25380,note_on,,1,0,10,,,,,,,,,,,,,,,,8,,53,72
25380,note_on,,1,0,5,,,,,,,,,,,,,,,,1,,77,72
25380,note_on,,0,0,15,,,,,,,,,,,,,,,,15,,65,72
25380,note_on,,1,0,12,,,,,,,,,,,,,,,,11,,68,72
25380,note_on,,1,0,6,,,,,,,,,,,,,,,,2,,53,72
25380,note_on,,1,0,7,,,,,,,,,,,,,,,,5,,77,72
25380,note_on,,1,0,11,,,,,,,,,,,,,,,,10,,77,72
25380,note_on,,0,0,15,,,,,,,,,,,,,,,,15,,68,72
25439,note_on,,0,0,15,,,,,,,,,,,,,,,,15,,65,0
25439,note_on,,59,0,11,,,,,,,,,,,,,,,,10,,77,0
25439,note_on,,0,0,15,,,,,,,,,,,,,,,,15,,68,0
25439,note_on,,0,0,15,,,,,,,,,,,,,,,,15,,72,0
25439,note_on,,59,0,12,,,,,,,,,,,,,,,,11,,68,0
25439,note_on,,59,0,9,,,,,,,,,,,,,,,,7,,60,0
25439,note_on,,59,0,14,,,,,,,,,,,,,,,,13,,53,0
25439,note_on,,59,0,7,,,,,,,,,,,,,,,,5,,77,0
25439,note_on,,59,0,5,,,,,,,,,,,,,,,,1,,77,0
25439,note_on,,59,0,15,,,,,,,,,,,,,,,,15,,53,0
25439,note_on,,59,0,8,,,,,,,,,,,,,,,,6,,68,0
25439,note_on,,59,0,10,,,,,,,,,,,,,,,,8,,53,0
25439,note_on,,59,0,6,,,,,,,,,,,,,,,,2,,53,0
25439,note_on,,59,0,13,,,,,,,,,,,,,,,,12,,60,0
25440,note_on,,1,0,8,,,,,,,,,,,,,,,,6,,67,72
25440,note_on,,0,0,15,,,,,,,,,,,,,,,,15,,63,72
25440,note_on,,1,0,6,,,,,,,,,,,,,,,,2,,55,72
25440,note_on,,0,0,15,,,,,,,,,,,,,,,,15,,67,72
25440,note_on,,0,0,15,,,,,,,,,,,,,,,,15,,72,72
25440,note_on,,1,0,13,,,,,,,,,,,,,,,,12,,60,72
25440,note_on,,1,0,9,,,,,,,,,,,,,,,,7,,60,72
25440,note_on,,1,0,12,,,,,,,,,,,,,,,,11,,67,72
25440,note_on,,1,0,14,,,,,,,,,,,,,,,,13,,55,72
25440,note_on,,1,0,5,,,,,,,,,,,,,,,,1,,75,72
25440,note_on,,1,0,10,,,,,,,,,,,,,,,,8,,55,72
25440,note_on,,1,0,7,,,,,,,,,,,,,,,,5,,75,72
25440,note_on,,1,0,11,,,,,,,,,,,,,,,,10,,75,72
25440,note_on,,1,0,15,,,,,,,,,,,,,,,,15,,55,72
25499,note_on,,59,0,14,,,,,,,,,,,,,,,,13,,55,0
25499,note_on,,59,0,10,,,,,,,,,,,,,,,,8,,55,0
25499,note_on,,59,0,15,,,,,,,,,,,,,,,,15,,55,0
25499,note_on,,59,0,6,,,,,,,,,,,,,,,,2,,55,0
25500,note_on,,1,0,6,,,,,,,,,,,,,,,,2,,43,72
25500,note_on,,1,0,10,,,,,,,,,,,,,,,,8,,55,72
25500,note_on,,1,0,14,,,,,,,,,,,,,,,,13,,43,72
25500,note_on,,1,0,15,,,,,,,,,,,,,,,,15,,43,72
25529,note_on,,89,0,12,,,,,,,,,,,,,,,,11,,67,0
25529,note_on,,89,0,8,,,,,,,,,,,,,,,,6,,67,0
25530,note_on,,1,0,12,,,,,,,,,,,,,,,,11,,67,72
25530,note_on,,1,0,8,,,,,,,,,,,,,,,,6,,67,72
25559,note_on,,0,0,15,,,,,,,,,,,,,,,,15,,67,0
25559,note_on,,29,0,12,,,,,,,,,,,,,,,,11,,67,0
25559,note_on,,119,0,5,,,,,,,,,,,,,,,,1,,75,0
25559,note_on,,59,0,14,,,,,,,,,,,,,,,,13,,43,0
25559,note_on,,119,0,11,,,,,,,,,,,,,,,,10,,75,0
25559,note_on,,119,0,7,,,,,,,,,,,,,,,,5,,75,0
25559,note_on,,59,0,10,,,,,,,,,,,,,,,,8,,55,0
25559,note_on,,119,0,9,,,,,,,,,,,,,,,,7,,60,0
25559,note_on,,119,0,13,,,,,,,,,,,,,,,,12,,60,0
25559,note_on,,29,0,8,,,,,,,,,,,,,,,,6,,67,0
25559,note_on,,0,0,15,,,,,,,,,,,,,,,,15,,43,0
25559,note_on,,59,0,15,,,,,,,,,,,,,,,,15,,72,0
25559,note_on,,0,0,15,,,,,,,,,,,,,,,,15,,63,0
25559,note_on,,59,0,6,,,,,,,,,,,,,,,,2,,43,0
25560,note_on,,1,0,5,,,,,,,,,,,,,,,,1,,74,72
25560,note_on,,1,0,9,,,,,,,,,,,,,,,,7,,59,72
25560,note_on,,1,0,6,,,,,,,,,,,,,,,,2,,55,72
25560,note_on,,1,0,11,,,,,,,,,,,,,,,,10,,74,72
25560,note_on,,1,0,13,,,,,,,,,,,,,,,,12,,59,72
25560,note_on,,1,0,14,,,,,,,,,,,,,,,,13,,55,72
25560,note_on,,0,0,15,,,,,,,,,,,,,,,,15,,71,72
25560,note_on,,1,0,12,,,,,,,,,,,,,,,,11,,67,72
25560,note_on,,1,0,10,,,,,,,,,,,,,,,,8,,55,72
25560,note_on,,1,0,7,,,,,,,,,,,,,,,,5,,74,72
25560,note_on,,1,0,8,,,,,,,,,,,,,,,,6,,67,72
25560,note_on,,1,0,15,,,,,,,,,,,,,,,,15,,55,72
25560,note_on,,0,0,15,,,,,,,,,,,,,,,,15,,67,72
25560,note_on,,0,0,15,,,,,,,,,,,,,,,,15,,62,72
25619,note_on,,59,0,10,,,,,,,,,,,,,,,,8,,55,0
25619,note_on,,59,0,6,,,,,,,,,,,,,,,,2,,55,0
25619,note_on,,59,0,14,,,,,,,,,,,,,,,,13,,55,0
25619,note_on,,59,0,15,,,,,,,,,,,,,,,,15,,55,0
25620,note_on,,1,0,10,,,,,,,,,,,,,,,,8,,53,72
25620,note_on,,1,0,15,,,,,,,,,,,,,,,,15,,53,72
25620,note_on,,1,0,6,,,,,,,,,,,,,,,,2,,53,72
25620,note_on,,1,0,14,,,,,,,,,,,,,,,,13,,53,72
25679,note_on,,0,0,15,,,,,,,,,,,,,,,,15,,67,0
25679,note_on,,59,0,10,,,,,,,,,,,,,,,,8,,53,0
25679,note_on,,119,0,12,,,,,,,,,,,,,,,,11,,67,0
25679,note_on,,59,0,15,,,,,,,,,,,,,,,,15,,71,0
25679,note_on,,119,0,13,,,,,,,,,,,,,,,,12,,59,0
25679,note_on,,119,0,11,,,,,,,,,,,,,,,,10,,74,0
25679,note_on,,0,0,15,,,,,,,,,,,,,,,,15,,53,0
25679,note_on,,119,0,9,,,,,,,,,,,,,,,,7,,59,0
25679,note_on,,59,0,6,,,,,,,,,,,,,,,,2,,53,0
25679,note_on,,119,0,8,,,,,,,,,,,,,,,,6,,67,0
25679,note_on,,0,0,15,,,,,,,,,,,,,,,,15,,62,0
25679,note_on,,119,0,7,,,,,,,,,,,,,,,,5,,74,0
25679,note_on,,59,0,14,,,,,,,,,,,,,,,,13,,53,0
25679,note_on,,119,0,5,,,,,,,,,,,,,,,,1,,74,0
25680,note_on,,1,0,7,,,,,,,,,,,,,,,,5,,72,72
25680,note_on,,1,0,11,,,,,,,,,,,,,,,,10,,72,72
25680,note_on,,1,0,9,,,,,,,,,,,,,,,,7,,60,72
25680,note_on,,0,0,15,,,,,,,,,,,,,,,,15,,67,72
25680,note_on,,1,0,10,,,,,,,,,,,,,,,,8,,51,72
25680,note_on,,1,0,14,,,,,,,,,,,,,,,,13,,51,72
25680,note_on,,0,0,15,,,,,,,,,,,,,,,,15,,60,72
25680,note_on,,0,0,15,,,,,,,,,,,,,,,,15,,72,72
25680,note_on,,1,0,15,,,,,,,,,,,,,,,,15,,51,72
25680,note_on,,1,0,6,,,,,,,,,,,,,,,,2,,51,72
25680,note_on,,1,0,5,,,,,,,,,,,,,,,,1,,72,72
25680,note_on,,1,0,13,,,,,,,,,,,,,,,,12,,60,72
25740,note_on,,61,0,12,,,,,,,,,,,,,,,,11,,67,72
25740,note_on,,61,0,8,,,,,,,,,,,,,,,,6,,67,72
25769,note_on,,89,0,14,,,,,,,,,,,,,,,,13,,51,0
25769,note_on,,89,0,6,,,,,,,,,,,,,,,,2,,51,0
25769,note_on,,89,0,10,,,,,,,,,,,,,,,,8,,51,0
25769,note_on,,0,0,15,,,,,,,,,,,,,,,,15,,67,0
25769,note_on,,89,0,15,,,,,,,,,,,,,,,,15,,51,0
25770,note_on,,0,0,15,,,,,,,,,,,,,,,,15,,65,72
25770,note_on,,1,0,10,,,,,,,,,,,,,,,,8,,50,72
25770,note_on,,1,0,14,,,,,,,,,,,,,,,,13,,50,72
25770,note_on,,1,0,6,,,,,,,,,,,,,,,,2,,50,72
25770,note_on,,1,0,15,,,,,,,,,,,,,,,,15,,50,72
25799,note_on,,29,0,14,,,,,,,,,,,,,,,,13,,50,0
25799,note_on,,0,0,15,,,,,,,,,,,,,,,,15,,65,0
25799,note_on,,59,0,12,,,,,,,,,,,,,,,,11,,67,0
25799,note_on,,0,0,15,,,,,,,,,,,,,,,,15,,60,0
25799,note_on,,29,0,15,,,,,,,,,,,,,,,,15,,72,0
25799,note_on,,119,0,11,,,,,,,,,,,,,,,,10,,72,0
25799,note_on,,119,0,7,,,,,,,,,,,,,,,,5,,72,0
25799,note_on,,119,0,5,,,,,,,,,,,,,,,,1,,72,0
25799,note_on,,119,0,9,,,,,,,,,,,,,,,,7,,60,0
25799,note_on,,29,0,10,,,,,,,,,,,,,,,,8,,50,0
25799,note_on,,59,0,8,,,,,,,,,,,,,,,,6,,67,0
25799,note_on,,29,0,6,,,,,,,,,,,,,,,,2,,50,0
25799,note_on,,0,0,15,,,,,,,,,,,,,,,,15,,50,0
25799,note_on,,119,0,13,,,,,,,,,,,,,,,,12,,60,0
25800,note_on,,0,0,15,,,,,,,,,,,,,,,,15,,67,72
25800,note_on,,1,0,10,,,,,,,,,,,,,,,,8,,48,72
25800,note_on,,0,0,15,,,,,,,,,,,,,,,,15,,63,72
25800,note_on,,1,0,12,,,,,,,,,,,,,,,,11,,72,72
25800,note_on,,1,0,15,,,,,,,,,,,,,,,,15,,48,72
25800,note_on,,1,0,8,,,,,,,,,,,,,,,,6,,72,72
25800,note_on,,1,0,14,,,,,,,,,,,,,,,,13,,48,72
25800,note_on,,1,0,6,,,,,,,,,,,,,,,,2,,48,72
25800,note_on,,0,0,15,,,,,,,,,,,,,,,,15,,60,72
25859,note_on,,59,0,6,,,,,,,,,,,,,,,,2,,48,0
25859,note_on,,0,0,15,,,,,,,,,,,,,,,,15,,67,0
25859,note_on,,59,0,8,,,,,,,,,,,,,,,,6,,72,0
25859,note_on,,0,0,15,,,,,,,,,,,,,,,,15,,63,0
25859,note_on,,59,0,12,,,,,,,,,,,,,,,,11,,72,0
25859,note_on,,59,0,14,,,,,,,,,,,,,,,,13,,48,0
25859,note_on,,0,0,15,,,,,,,,,,,,,,,,15,,60,0
25859,note_on,,59,0,15,,,,,,,,,,,,,,,,15,,48,0
25860,note_on,,1,0,15,,,,,,,,,,,,,,,,15,,51,72
25860,note_on,,0,0,15,,,,,,,,,,,,,,,,15,,72,72
25860,note_on,,0,0,15,,,,,,,,,,,,,,,,15,,67,72
25860,note_on,,1,0,6,,,,,,,,,,,,,,,,2,,51,72
25860,note_on,,0,0,15,,,,,,,,,,,,,,,,15,,60,72
25860,note_on,,1,0,14,,,,,,,,,,,,,,,,13,,51,72
25860,note_on,,1,0,12,,,,,,,,,,,,,,,,11,,70,72
25860,note_on,,1,0,8,,,,,,,,,,,,,,,,6,,70,72
25919,note_on,,59,0,8,,,,,,,,,,,,,,,,6,,70,0
25919,note_on,,59,0,15,,,,,,,,,,,,,,,,15,,51,0
25919,note_on,,119,0,10,,,,,,,,,,,,,,,,8,,48,0
25919,note_on,,59,0,14,,,,,,,,,,,,,,,,13,,51,0
25919,note_on,,0,0,15,,,,,,,,,,,,,,,,15,,67,0
25919,note_on,,0,0,15,,,,,,,,,,,,,,,,15,,72,0
25919,note_on,,59,0,6,,,,,,,,,,,,,,,,2,,51,0
25919,note_on,,59,0,12,,,,,,,,,,,,,,,,11,,70,0
25919,note_on,,0,0,15,,,,,,,,,,,,,,,,15,,60,0
25920,note_on,,1,0,15,,,,,,,,,,,,,,,,15,,53,72
25920,note_on,,0,0,15,,,,,,,,,,,,,,,,15,,60,72
25920,note_on,,1,0,12,,,,,,,,,,,,,,,,11,,68,72
25920,note_on,,1,0,8,,,,,,,,,,,,,,,,6,,68,72
25920,note_on,,0,0,15,,,,,,,,,,,,,,,,15,,65,72
25920,note_on,,1,0,14,,,,,,,,,,,,,,,,13,,53,72
25920,note_on,,1,0,6,,,,,,,,,,,,,,,,2,,53,72
25920,note_on,,0,0,15,,,,,,,,,,,,,,,,15,,68,72
25979,note_on,,59,0,14,,,,,,,,,,,,,,,,13,,53,0
25979,note_on,,59,0,6,,,,,,,,,,,,,,,,2,,53,0
25979,note_on,,59,0,15,,,,,,,,,,,,,,,,15,,53,0
25979,note_on,,0,0,15,,,,,,,,,,,,,,,,15,,68,0
25980,note_on,,1,0,15,,,,,,,,,,,,,,,,15,,55,72
25980,note_on,,0,0,15,,,,,,,,,,,,,,,,15,,70,72
25980,note_on,,181,0,13,,,,,,,,,,,,,,,,12,,60,72
25980,note_on,,1,0,6,,,,,,,,,,,,,,,,2,,55,72
25980,note_on,,1,0,14,,,,,,,,,,,,,,,,13,,55,72
25980,note_on,,181,0,9,,,,,,,,,,,,,,,,7,,60,72
26009,note_on,,89,0,8,,,,,,,,,,,,,,,,6,,68,0
26009,note_on,,89,0,12,,,,,,,,,,,,,,,,11,,68,0
26010,note_on,,1,0,12,,,,,,,,,,,,,,,,11,,67,72
26010,note_on,,1,0,8,,,,,,,,,,,,,,,,6,,67,72
26039,note_on,,59,0,14,,,,,,,,,,,,,,,,13,,55,0
26039,note_on,,0,0,15,,,,,,,,,,,,,,,,15,,70,0
26039,note_on,,59,0,15,,,,,,,,,,,,,,,,15,,55,0
26039,note_on,,59,0,6,,,,,,,,,,,,,,,,2,,55,0
26039,note_on,,59,0,13,,,,,,,,,,,,,,,,12,,60,0
26039,note_on,,29,0,12,,,,,,,,,,,,,,,,11,,67,0
26039,note_on,,29,0,8,,,,,,,,,,,,,,,,6,,67,0
26039,note_on,,59,0,9,,,,,,,,,,,,,,,,7,,60,0
26040,note_on,,1,0,13,,,,,,,,,,,,,,,,12,,65,72
26040,note_on,,1,0,14,,,,,,,,,,,,,,,,13,,56,72
26040,note_on,,1,0,15,,,,,,,,,,,,,,,,15,,56,72
26040,note_on,,0,0,15,,,,,,,,,,,,,,,,15,,72,72
26040,note_on,,1,0,9,,,,,,,,,,,,,,,,7,,65,72
26040,note_on,,1,0,12,,,,,,,,,,,,,,,,11,,65,72
26040,note_on,,1,0,8,,,,,,,,,,,,,,,,6,,65,72
26040,note_on,,1,0,6,,,,,,,,,,,,,,,,2,,56,72
26099,note_on,,59,0,9,,,,,,,,,,,,,,,,7,,65,0
26099,note_on,,59,0,15,,,,,,,,,,,,,,,,15,,56,0
26099,note_on,,0,0,15,,,,,,,,,,,,,,,,15,,72,0
26099,note_on,,59,0,6,,,,,,,,,,,,,,,,2,,56,0
26099,note_on,,59,0,13,,,,,,,,,,,,,,,,12,,65,0
26099,note_on,,59,0,14,,,,,,,,,,,,,,,,13,,56,0
26100,note_on,,1,0,14,,,,,,,,,,,,,,,,13,,53,72
26100,note_on,,1,0,13,,,,,,,,,,,,,,,,12,,63,72
26100,note_on,,1,0,9,,,,,,,,,,,,,,,,7,,63,72
26100,note_on,,1,0,6,,,,,,,,,,,,,,,,2,,53,72
26100,note_on,,1,0,15,,,,,,,,,,,,,,,,15,,53,72
26100,note_on,,0,0,15,,,,,,,,,,,,,,,,15,,68,72
26159,note_on,,59,0,6,,,,,,,,,,,,,,,,2,,53,0
26159,note_on,,0,0,15,,,,,,,,,,,,,,,,15,,68,0
26159,note_on,,119,0,8,,,,,,,,,,,,,,,,6,,65,0
26159,note_on,,59,0,9,,,,,,,,,,,,,,,,7,,63,0
26159,note_on,,0,0,15,,,,,,,,,,,,,,,,15,,53,0
26159,note_on,,59,0,14,,,,,,,,,,,,,,,,13,,53,0
26159,note_on,,59,0,13,,,,,,,,,,,,,,,,12,,63,0
26159,note_on,,119,0,12,,,,,,,,,,,,,,,,11,,65,0
26159,note_on,,59,0,15,,,,,,,,,,,,,,,,15,,65,0
26159,note_on,,0,0,15,,,,,,,,,,,,,,,,15,,60,0
26160,note_on,,1,0,13,,,,,,,,,,,,,,,,12,,62,72
26160,note_on,,1,0,9,,,,,,,,,,,,,,,,7,,62,72
26160,note_on,,1,0,14,,,,,,,,,,,,,,,,13,,58,72
26160,note_on,,1,0,15,,,,,,,,,,,,,,,,15,,58,72
26160,note_on,,1,0,6,,,,,,,,,,,,,,,,2,,58,72
26160,note_on,,0,0,15,,,,,,,,,,,,,,,,15,,62,72
26160,note_on,,0,0,15,,,,,,,,,,,,,,,,15,,65,72
26219,note_on,,59,0,14,,,,,,,,,,,,,,,,13,,58,0
26219,note_on,,59,0,15,,,,,,,,,,,,,,,,15,,58,0
26219,note_on,,0,0,15,,,,,,,,,,,,,,,,15,,62,0
26219,note_on,,59,0,6,,,,,,,,,,,,,,,,2,,58,0
26220,note_on,,1,0,6,,,,,,,,,,,,,,,,2,,60,72
26220,note_on,,61,0,12,,,,,,,,,,,,,,,,11,,65,72
26220,note_on,,61,0,8,,,,,,,,,,,,,,,,6,,65,72
26220,note_on,,1,0,14,,,,,,,,,,,,,,,,13,,60,72
26220,note_on,,0,0,15,,,,,,,,,,,,,,,,15,,63,72
26220,note_on,,1,0,15,,,,,,,,,,,,,,,,15,,60,72
26249,note_on,,89,0,9,,,,,,,,,,,,,,,,7,,62,0
26249,note_on,,89,0,13,,,,,,,,,,,,,,,,12,,62,0
26250,note_on,,1,0,13,,,,,,,,,,,,,,,,12,,60,72
26250,note_on,,1,0,9,,,,,,,,,,,,,,,,7,,60,72
26279,note_on,,29,0,13,,,,,,,,,,,,,,,,12,,60,0
26279,note_on,,59,0,14,,,,,,,,,,,,,,,,13,,60,0
26279,note_on,,59,0,6,,,,,,,,,,,,,,,,2,,60,0
26279,note_on,,0,0,15,,,,,,,,,,,,,,,,15,,63,0
26279,note_on,,59,0,15,,,,,,,,,,,,,,,,15,,65,0
26279,note_on,,59,0,8,,,,,,,,,,,,,,,,6,,65,0
26279,note_on,,29,0,9,,,,,,,,,,,,,,,,7,,60,0
26279,note_on,,59,0,12,,,,,,,,,,,,,,,,11,,65,0
26279,note_on,,0,0,15,,,,,,,,,,,,,,,,15,,60,0
26280,note_on,,1,0,15,,,,,,,,,,,,,,,,15,,62,72
26280,note_on,,1,0,14,,,,,,,,,,,,,,,,13,,62,72
26280,note_on,,0,0,15,,,,,,,,,,,,,,,,15,,77,72
26280,note_on,,1,0,6,,,,,,,,,,,,,,,,2,,62,72
26280,note_on,,1,0,12,,,,,,,,,,,,,,,,11,,70,72
26280,note_on,,0,0,15,,,,,,,,,,,,,,,,15,,65,72
26280,note_on,,1,0,8,,,,,,,,,,,,,,,,6,,70,72
26280,note_on,,1,0,9,,,,,,,,,,,,,,,,7,,58,72
26280,note_on,,1,0,13,,,,,,,,,,,,,,,,12,,58,72
26280,note_on,,0,0,15,,,,,,,,,,,,,,,,15,,70,72
26339,note_on,,59,0,12,,,,,,,,,,,,,,,,11,,70,0
26339,note_on,,59,0,15,,,,,,,,,,,,,,,,15,,62,0
26339,note_on,,59,0,14,,,,,,,,,,,,,,,,13,,62,0
26339,note_on,,0,0,15,,,,,,,,,,,,,,,,15,,77,0
26339,note_on,,59,0,8,,,,,,,,,,,,,,,,6,,70,0
26339,note_on,,59,0,6,,,,,,,,,,,,,,,,2,,62,0
26340,note_on,,1,0,12,,,,,,,,,,,,,,,,11,,68,72
26340,note_on,,1,0,8,,,,,,,,,,,,,,,,6,,68,72
26340,note_on,,1,0,6,,,,,,,,,,,,,,,,2,,58,72
26340,note_on,,0,0,15,,,,,,,,,,,,,,,,15,,74,72
26340,note_on,,1,0,15,,,,,,,,,,,,,,,,15,,58,72
26340,note_on,,1,0,14,,,,,,,,,,,,,,,,13,,58,72
26399,note_on,,59,0,12,,,,,,,,,,,,,,,,11,,68,0
26399,note_on,,59,0,8,,,,,,,,,,,,,,,,6,,68,0
26399,note_on,,119,0,13,,,,,,,,,,,,,,,,12,,58,0
26399,note_on,,0,0,15,,,,,,,,,,,,,,,,15,,65,0
26399,note_on,,59,0,15,,,,,,,,,,,,,,,,15,,70,0
26399,note_on,,59,0,14,,,,,,,,,,,,,,,,13,,58,0
26399,note_on,,59,0,6,,,,,,,,,,,,,,,,2,,58,0
26399,note_on,,0,0,15,,,,,,,,,,,,,,,,15,,74,0
26399,note_on,,0,0,15,,,,,,,,,,,,,,,,15,,58,0
26399,note_on,,119,0,9,,,,,,,,,,,,,,,,7,,58,0
26400,note_on,,1,0,12,,,,,,,,,,,,,,,,11,,67,72
26400,note_on,,1,0,6,,,,,,,,,,,,,,,,2,,63,72
26400,note_on,,0,0,15,,,,,,,,,,,,,,,,15,,67,72
26400,note_on,,1,0,8,,,,,,,,,,,,,,,,6,,67,72
26400,note_on,,1,0,15,,,,,,,,,,,,,,,,15,,63,72
26400,note_on,,0,0,15,,,,,,,,,,,,,,,,15,,70,72
26400,note_on,,1,0,14,,,,,,,,,,,,,,,,13,,63,72
26459,note_on,,59,0,6,,,,,,,,,,,,,,,,2,,63,0
26459,note_on,,59,0,14,,,,,,,,,,,,,,,,13,,63,0
26459,note_on,,0,0,15,,,,,,,,,,,,,,,,15,,70,0
26459,note_on,,59,0,15,,,,,,,,,,,,,,,,15,,63,0
26460,note_on,,61,0,13,,,,,,,,,,,,,,,,12,,51,72
26460,note_on,,661,0,5,,,,,,,,,,,,,,,,1,,70,72
26460,note_on,,1,0,6,,,,,,,,,,,,,,,,2,,51,72
26460,note_on,,0,0,15,,,,,,,,,,,,,,,,15,,67,72
26460,note_on,,1,0,15,,,,,,,,,,,,,,,,15,,51,72
26460,note_on,,1,0,14,,,,,,,,,,,,,,,,13,,51,72
26460,note_on,,61,0,9,,,,,,,,,,,,,,,,7,,51,72
26460,note_on,,661,0,7,,,,,,,,,,,,,,,,5,,70,72
26460,note_on,,661,0,11,,,,,,,,,,,,,,,,10,,70,72
26519,note_on,,59,0,9,,,,,,,,,,,,,,,,7,,51,0
26519,note_on,,59,0,5,,,,,,,,,,,,,,,,1,,70,0
26519,note_on,,59,0,14,,,,,,,,,,,,,,,,13,,51,0
26519,note_on,,59,0,6,,,,,,,,,,,,,,,,2,,51,0
26519,note_on,,0,0,15,,,,,,,,,,,,,,,,15,,67,0
26519,note_on,,59,0,15,,,,,,,,,,,,,,,,15,,51,0
26519,note_on,,59,0,7,,,,,,,,,,,,,,,,5,,70,0
26519,note_on,,59,0,13,,,,,,,,,,,,,,,,12,,51,0
26519,note_on,,59,0,11,,,,,,,,,,,,,,,,10,,70,0
26520,note_on,,1,0,5,,,,,,,,,,,,,,,,1,,75,72
26520,note_on,,1,0,11,,,,,,,,,,,,,,,,10,,75,72
26520,note_on,,1,0,13,,,,,,,,,,,,,,,,12,,53,72
26520,note_on,,1,0,6,,,,,,,,,,,,,,,,2,,53,72
26520,note_on,,0,0,15,,,,,,,,,,,,,,,,15,,68,72
26520,note_on,,1,0,15,,,,,,,,,,,,,,,,15,,53,72
26520,note_on,,1,0,14,,,,,,,,,,,,,,,,13,,53,72
26520,note_on,,1,0,7,,,,,,,,,,,,,,,,5,,75,72
26520,note_on,,1,0,9,,,,,,,,,,,,,,,,7,,53,72
26579,note_on,,59,0,11,,,,,,,,,,,,,,,,10,,75,0
26579,note_on,,59,0,15,,,,,,,,,,,,,,,,15,,67,0
26579,note_on,,179,0,8,,,,,,,,,,,,,,,,6,,67,0
26579,note_on,,0,0,15,,,,,,,,,,,,,,,,15,,68,0
26579,note_on,,59,0,6,,,,,,,,,,,,,,,,2,,53,0
26579,note_on,,59,0,5,,,,,,,,,,,,,,,,1,,75,0
26579,note_on,,59,0,9,,,,,,,,,,,,,,,,7,,53,0
26579,note_on,,59,0,14,,,,,,,,,,,,,,,,13,,53,0
26579,note_on,,0,0,15,,,,,,,,,,,,,,,,15,,53,0
26579,note_on,,59,0,13,,,,,,,,,,,,,,,,12,,53,0
26579,note_on,,59,0,7,,,,,,,,,,,,,,,,5,,75,0
26579,note_on,,179,0,12,,,,,,,,,,,,,,,,11,,67,0
26580,note_on,,1,0,7,,,,,,,,,,,,,,,,5,,74,72
26580,note_on,,1,0,8,,,,,,,,,,,,,,,,6,,65,72
26580,note_on,,1,0,14,,,,,,,,,,,,,,,,13,,55,72
26580,note_on,,1,0,12,,,,,,,,,,,,,,,,11,,65,72
26580,note_on,,0,0,15,,,,,,,,,,,,,,,,15,,65,72
26580,note_on,,1,0,11,,,,,,,,,,,,,,,,10,,74,72
26580,note_on,,1,0,6,,,,,,,,,,,,,,,,2,,55,72
26580,note_on,,1,0,13,,,,,,,,,,,,,,,,12,,55,72
26580,note_on,,1,0,5,,,,,,,,,,,,,,,,1,,74,72
26580,note_on,,0,0,15,,,,,,,,,,,,,,,,15,,70,72
26580,note_on,,1,0,15,,,,,,,,,,,,,,,,15,,55,72
26580,note_on,,1,0,9,,,,,,,,,,,,,,,,7,,55,72
26639,note_on,,59,0,11,,,,,,,,,,,,,,,,10,,74,0
26639,note_on,,59,0,14,,,,,,,,,,,,,,,,13,,55,0
26639,note_on,,59,0,9,,,,,,,,,,,,,,,,7,,55,0
26639,note_on,,59,0,12,,,,,,,,,,,,,,,,11,,65,0
26639,note_on,,0,0,15,,,,,,,,,,,,,,,,15,,65,0
26639,note_on,,59,0,7,,,,,,,,,,,,,,,,5,,74,0
26639,note_on,,59,0,8,,,,,,,,,,,,,,,,6,,65,0
26639,note_on,,0,0,15,,,,,,,,,,,,,,,,15,,70,0
26639,note_on,,59,0,6,,,,,,,,,,,,,,,,2,,55,0
26639,note_on,,59,0,15,,,,,,,,,,,,,,,,15,,55,0
26639,note_on,,59,0,5,,,,,,,,,,,,,,,,1,,74,0
26639,note_on,,59,0,13,,,,,,,,,,,,,,,,12,,55,0
26640,note_on,,1,0,13,,,,,,,,,,,,,,,,12,,56,72
26640,note_on,,1,0,9,,,,,,,,,,,,,,,,7,,56,72
26640,note_on,,1,0,5,,,,,,,,,,,,,,,,1,,72,72
26640,note_on,,1,0,7,,,,,,,,,,,,,,,,5,,72,72
26640,note_on,,1,0,15,,,,,,,,,,,,,,,,15,,56,72
26640,note_on,,0,0,15,,,,,,,,,,,,,,,,15,,63,72
26640,note_on,,1,0,8,,,,,,,,,,,,,,,,6,,63,72
26640,note_on,,1,0,11,,,,,,,,,,,,,,,,10,,72,72
26640,note_on,,1,0,6,,,,,,,,,,,,,,,,2,,56,72
26640,note_on,,0,0,15,,,,,,,,,,,,,,,,15,,72,72
26640,note_on,,1,0,12,,,,,,,,,,,,,,,,11,,63,72
26640,note_on,,1,0,14,,,,,,,,,,,,,,,,13,,56,72
26699,note_on,,59,0,8,,,,,,,,,,,,,,,,6,,63,0
26699,note_on,,59,0,7,,,,,,,,,,,,,,,,5,,72,0
26699,note_on,,59,0,11,,,,,,,,,,,,,,,,10,,72,0
26699,note_on,,59,0,12,,,,,,,,,,,,,,,,11,,63,0
26699,note_on,,59,0,5,,,,,,,,,,,,,,,,1,,72,0
26700,note_on,,1,0,8,,,,,,,,,,,,,,,,6,,65,72
26700,note_on,,1,0,11,,,,,,,,,,,,,,,,10,,74,72
26700,note_on,,1,0,12,,,,,,,,,,,,,,,,11,,65,72
26700,note_on,,1,0,7,,,,,,,,,,,,,,,,5,,74,72
26700,note_on,,1,0,5,,,,,,,,,,,,,,,,1,,74,72
26729,note_on,,29,0,12,,,,,,,,,,,,,,,,11,,65,0
26729,note_on,,29,0,8,,,,,,,,,,,,,,,,6,,65,0
26729,note_on,,29,0,7,,,,,,,,,,,,,,,,5,,74,0
26729,note_on,,29,0,5,,,,,,,,,,,,,,,,1,,74,0
26729,note_on,,29,0,11,,,,,,,,,,,,,,,,10,,74,0
26730,note_on,,1,0,12,,,,,,,,,,,,,,,,11,,67,72
26730,note_on,,1,0,11,,,,,,,,,,,,,,,,10,,75,72
26730,note_on,,1,0,5,,,,,,,,,,,,,,,,1,,75,72
26730,note_on,,1,0,8,,,,,,,,,,,,,,,,6,,67,72
26730,note_on,,1,0,7,,,,,,,,,,,,,,,,5,,75,72
26759,note_on,,29,0,8,,,,,,,,,,,,,,,,6,,67,0
26759,note_on,,29,0,11,,,,,,,,,,,,,,,,10,,75,0
26759,note_on,,29,0,12,,,,,,,,,,,,,,,,11,,67,0
26759,note_on,,119,0,15,,,,,,,,,,,,,,,,15,,63,0
26759,note_on,,29,0,7,,,,,,,,,,,,,,,,5,,75,0
26759,note_on,,29,0,5,,,,,,,,,,,,,,,,1,,75,0
26760,note_on,,1,0,5,,,,,,,,,,,,,,,,1,,74,72
26760,note_on,,1,0,11,,,,,,,,,,,,,,,,10,,74,72
26760,note_on,,1,0,12,,,,,,,,,,,,,,,,11,,65,72
26760,note_on,,0,0,15,,,,,,,,,,,,,,,,15,,60,72
26760,note_on,,1,0,15,,,,,,,,,,,,,,,,15,,65,72
26760,note_on,,1,0,7,,,,,,,,,,,,,,,,5,,74,72
26760,note_on,,1,0,8,,,,,,,,,,,,,,,,6,,65,72
26819,note_on,,179,0,13,,,,,,,,,,,,,,,,12,,56,0
26819,note_on,,59,0,5,,,,,,,,,,,,,,,,1,,74,0
26819,note_on,,59,0,11,,,,,,,,,,,,,,,,10,,74,0
26819,note_on,,179,0,9,,,,,,,,,,,,,,,,7,,56,0
26819,note_on,,179,0,6,,,,,,,,,,,,,,,,2,,56,0
26819,note_on,,59,0,7,,,,,,,,,,,,,,,,5,,74,0
26819,note_on,,179,0,14,,,,,,,,,,,,,,,,13,,56,0
26819,note_on,,59,0,15,,,,,,,,,,,,,,,,15,,56,0
26820,note_on,,1,0,9,,,,,,,,,,,,,,,,7,,56,72
26820,note_on,,1,0,5,,,,,,,,,,,,,,,,1,,72,72
26820,note_on,,1,0,14,,,,,,,,,,,,,,,,13,,56,72
26820,note_on,,1,0,6,,,,,,,,,,,,,,,,2,,56,72
26820,note_on,,1,0,15,,,,,,,,,,,,,,,,15,,56,72
26820,note_on,,1,0,13,,,,,,,,,,,,,,,,12,,56,72
26820,note_on,,1,0,7,,,,,,,,,,,,,,,,5,,72,72
26820,note_on,,1,0,11,,,,,,,,,,,,,,,,10,,72,72
26879,note_on,,59,0,15,,,,,,,,,,,,,,,,15,,72,0
26879,note_on,,59,0,14,,,,,,,,,,,,,,,,13,,56,0
26879,note_on,,0,0,15,,,,,,,,,,,,,,,,15,,65,0
26879,note_on,,0,0,15,,,,,,,,,,,,,,,,15,,60,0
26879,note_on,,0,0,15,,,,,,,,,,,,,,,,15,,56,0
26879,note_on,,59,0,7,,,,,,,,,,,,,,,,5,,72,0
26879,note_on,,59,0,13,,,,,,,,,,,,,,,,12,,56,0
26879,note_on,,59,0,9,,,,,,,,,,,,,,,,7,,56,0
26879,note_on,,59,0,6,,,,,,,,,,,,,,,,2,,56,0
26879,note_on,,59,0,5,,,,,,,,,,,,,,,,1,,72,0
26879,note_on,,59,0,11,,,,,,,,,,,,,,,,10,,72,0
26880,note_on,,1,0,7,,,,,,,,,,,,,,,,5,,71,72
26880,note_on,,1,0,11,,,,,,,,,,,,,,,,10,,71,72
26880,note_on,,0,0,15,,,,,,,,,,,,,,,,15,,67,72
26880,note_on,,0,0,15,,,,,,,,,,,,,,,,15,,71,72
26880,note_on,,1,0,15,,,,,,,,,,,,,,,,15,,55,72
26880,note_on,,1,0,5,,,,,,,,,,,,,,,,1,,71,72
26880,note_on,,0,0,15,,,,,,,,,,,,,,,,15,,62,72
26880,note_on,,1,0,13,,,,,,,,,,,,,,,,12,,55,72
26880,note_on,,1,0,6,,,,,,,,,,,,,,,,2,,55,72
26880,note_on,,1,0,14,,,,,,,,,,,,,,,,13,,55,72
26880,note_on,,1,0,9,,,,,,,,,,,,,,,,7,,55,72
26939,note_on,,59,0,9,,,,,,,,,,,,,,,,7,,55,0
26939,note_on,,59,0,13,,,,,,,,,,,,,,,,12,,55,0
26939,note_on,,179,0,12,,,,,,,,,,,,,,,,11,,65,0
26939,note_on,,179,0,8,,,,,,,,,,,,,,,,6,,65,0
26940,note_on,,1,0,9,,,,,,,,,,,,,,,,7,,62,72
26940,note_on,,1,0,13,,,,,,,,,,,,,,,,12,,62,72
26940,note_on,,1,0,12,,,,,,,,,,,,,,,,11,,67,72
26940,note_on,,1,0,8,,,,,,,,,,,,,,,,6,,67,72
26969,note_on,,29,0,8,,,,,,,,,,,,,,,,6,,67,0
26969,note_on,,29,0,12,,,,,,,,,,,,,,,,11,,67,0
26970,note_on,,1,0,8,,,,,,,,,,,,,,,,6,,65,72
26970,note_on,,1,0,12,,,,,,,,,,,,,,,,11,,65,72
26999,note_on,,119,0,11,,,,,,,,,,,,,,,,10,,71,0
26999,note_on,,59,0,9,,,,,,,,,,,,,,,,7,,62,0
26999,note_on,,119,0,7,,,,,,,,,,,,,,,,5,,71,0
26999,note_on,,119,0,14,,,,,,,,,,,,,,,,13,,55,0
26999,note_on,,29,0,8,,,,,,,,,,,,,,,,6,,65,0
26999,note_on,,59,0,13,,,,,,,,,,,,,,,,12,,62,0
26999,note_on,,0,0,15,,,,,,,,,,,,,,,,15,,62,0
26999,note_on,,0,0,15,,,,,,,,,,,,,,,,15,,67,0
26999,note_on,,0,0,15,,,,,,,,,,,,,,,,15,,71,0
26999,note_on,,119,0,15,,,,,,,,,,,,,,,,15,,55,0
26999,note_on,,119,0,5,,,,,,,,,,,,,,,,1,,71,0
26999,note_on,,119,0,6,,,,,,,,,,,,,,,,2,,55,0
26999,note_on,,29,0,12,,,,,,,,,,,,,,,,11,,65,0
27000,note_on,,0,0,15,,,,,,,,,,,,,,,,15,,67,72
27000,note_on,,0,0,15,,,,,,,,,,,,,,,,15,,71,72
27000,note_on,,0,0,15,,,,,,,,,,,,,,,,15,,74,72
27000,note_on,,1,0,8,,,,,,,,,,,,,,,,6,,63,72
27000,note_on,,1,0,14,,,,,,,,,,,,,,,,13,,55,72
27000,note_on,,1,0,6,,,,,,,,,,,,,,,,2,,55,72
27000,note_on,,1,0,13,,,,,,,,,,,,,,,,12,,60,72
27000,note_on,,1,0,15,,,,,,,,,,,,,,,,15,,55,72
27000,note_on,,1081,0,10,,,,,,,,,,,,,,,,8,,55,72
27000,note_on,,1,0,9,,,,,,,,,,,,,,,,7,,60,72
27000,note_on,,1,0,12,,,,,,,,,,,,,,,,11,,63,72
27059,note_on,,59,0,12,,,,,,,,,,,,,,,,11,,63,0
27059,note_on,,59,0,8,,,,,,,,,,,,,,,,6,,63,0
27059,note_on,,59,0,9,,,,,,,,,,,,,,,,7,,60,0
27059,note_on,,59,0,13,,,,,,,,,,,,,,,,12,,60,0
27060,note_on,,1,0,9,,,,,,,,,,,,,,,,7,,59,72
27060,note_on,,1,0,13,,,,,,,,,,,,,,,,12,,59,72
27060,note_on,,1,0,8,,,,,,,,,,,,,,,,6,,62,72
27060,note_on,,1,0,12,,,,,,,,,,,,,,,,11,,62,72
27119,note_on,,59,0,12,,,,,,,,,,,,,,,,11,,62,0
27119,note_on,,59,0,13,,,,,,,,,,,,,,,,12,,59,0
27119,note_on,,59,0,9,,,,,,,,,,,,,,,,7,,59,0
27119,note_on,,0,0,15,,,,,,,,,,,,,,,,15,,74,0
27119,note_on,,59,0,8,,,,,,,,,,,,,,,,6,,62,0
27119,note_on,,119,0,14,,,,,,,,,,,,,,,,13,,55,0
27119,note_on,,0,0,15,,,,,,,,,,,,,,,,15,,71,0
27119,note_on,,119,0,10,,,,,,,,,,,,,,,,8,,55,0
27119,note_on,,0,0,15,,,,,,,,,,,,,,,,15,,67,0
27119,note_on,,119,0,15,,,,,,,,,,,,,,,,15,,55,0
27119,note_on,,119,0,6,,,,,,,,,,,,,,,,2,,55,0
27120,note_on,,1,0,6,,,,,,,,,,,,,,,,2,,48,72
27120,note_on,,1,0,8,,,,,,,,,,,,,,,,6,,63,72
27120,note_on,,1,0,12,,,,,,,,,,,,,,,,11,,63,72
27120,note_on,,1,0,9,,,,,,,,,,,,,,,,7,,67,72
27120,note_on,,1,0,13,,,,,,,,,,,,,,,,12,,67,72
27120,note_on,,0,0,15,,,,,,,,,,,,,,,,15,,72,72
27120,note_on,,1,0,10,,,,,,,,,,,,,,,,8,,48,72
27120,note_on,,0,0,15,,,,,,,,,,,,,,,,15,,67,72
27120,note_on,,1,0,15,,,,,,,,,,,,,,,,15,,48,72
27120,note_on,,0,0,15,,,,,,,,,,,,,,,,15,,75,72
27120,note_on,,1,0,14,,,,,,,,,,,,,,,,13,,48,72
27180,note_on,,181,0,7,,,,,,,,,,,,,,,,5,,72,72
27180,note_on,,181,0,11,,,,,,,,,,,,,,,,10,,72,72
27180,note_on,,181,0,5,,,,,,,,,,,,,,,,1,,72,72
27239,note_on,,59,0,7,,,,,,,,,,,,,,,,5,,72,0
27239,note_on,,119,0,9,,,,,,,,,,,,,,,,7,,67,0
27239,note_on,,119,0,13,,,,,,,,,,,,,,,,12,,67,0
27239,note_on,,119,0,10,,,,,,,,,,,,,,,,8,,48,0
27239,note_on,,0,0,15,,,,,,,,,,,,,,,,15,,72,0
27239,note_on,,0,0,15,,,,,,,,,,,,,,,,15,,67,0
27239,note_on,,0,0,15,,,,,,,,,,,,,,,,15,,75,0
27239,note_on,,119,0,12,,,,,,,,,,,,,,,,11,,63,0
27239,note_on,,119,0,8,,,,,,,,,,,,,,,,6,,63,0
27239,note_on,,119,0,6,,,,,,,,,,,,,,,,2,,48,0
27239,note_on,,59,0,5,,,,,,,,,,,,,,,,1,,72,0
27239,note_on,,119,0,15,,,,,,,,,,,,,,,,15,,48,0
27239,note_on,,59,0,11,,,,,,,,,,,,,,,,10,,72,0
27239,note_on,,119,0,14,,,,,,,,,,,,,,,,13,,48,0
27240,note_on,,1,0,15,,,,,,,,,,,,,,,,15,,50,72
27240,note_on,,1,0,11,,,,,,,,,,,,,,,,10,,70,72
27240,note_on,,1,0,12,,,,,,,,,,,,,,,,11,,62,72
27240,note_on,,1,0,6,,,,,,,,,,,,,,,,2,,50,72
27240,note_on,,1,0,8,,,,,,,,,,,,,,,,6,,62,72
27240,note_on,,1,0,7,,,,,,,,,,,,,,,,5,,70,72
27240,note_on,,1,0,14,,,,,,,,,,,,,,,,13,,50,72
27240,note_on,,1,0,5,,,,,,,,,,,,,,,,1,,70,72
27240,note_on,,0,0,15,,,,,,,,,,,,,,,,15,,65,72
27240,note_on,,0,0,15,,,,,,,,,,,,,,,,15,,70,72
27240,note_on,,1,0,9,,,,,,,,,,,,,,,,7,,65,72
27240,note_on,,1,0,13,,,,,,,,,,,,,,,,12,,65,72
27240,note_on,,0,0,15,,,,,,,,,,,,,,,,15,,77,72
27240,note_on,,1,0,10,,,,,,,,,,,,,,,,8,,50,72
27299,note_on,,59,0,11,,,,,,,,,,,,,,,,10,,70,0
27299,note_on,,59,0,7,,,,,,,,,,,,,,,,5,,70,0
27299,note_on,,59,0,5,,,,,,,,,,,,,,,,1,,70,0
27299,note_on,,59,0,10,,,,,,,,,,,,,,,,8,,50,0
27299,note_on,,59,0,8,,,,,,,,,,,,,,,,6,,62,0
27299,note_on,,59,0,12,,,,,,,,,,,,,,,,11,,62,0
27300,note_on,,1,0,12,,,,,,,,,,,,,,,,11,,60,72
27300,note_on,,1,0,11,,,,,,,,,,,,,,,,10,,68,72
27300,note_on,,1,0,8,,,,,,,,,,,,,,,,6,,60,72
27300,note_on,,1,0,7,,,,,,,,,,,,,,,,5,,68,72
27300,note_on,,1,0,5,,,,,,,,,,,,,,,,1,,68,72
27300,note_on,,1,0,10,,,,,,,,,,,,,,,,8,,50,72
27359,note_on,,59,0,12,,,,,,,,,,,,,,,,11,,60,0
27359,note_on,,119,0,13,,,,,,,,,,,,,,,,12,,65,0
27359,note_on,,119,0,9,,,,,,,,,,,,,,,,7,,65,0
27359,note_on,,119,0,15,,,,,,,,,,,,,,,,15,,50,0
27359,note_on,,59,0,10,,,,,,,,,,,,,,,,8,,50,0
27359,note_on,,119,0,14,,,,,,,,,,,,,,,,13,,50,0
27359,note_on,,0,0,15,,,,,,,,,,,,,,,,15,,70,0
27359,note_on,,0,0,15,,,,,,,,,,,,,,,,15,,65,0
27359,note_on,,59,0,11,,,,,,,,,,,,,,,,10,,68,0
27359,note_on,,59,0,7,,,,,,,,,,,,,,,,5,,68,0
27359,note_on,,59,0,8,,,,,,,,,,,,,,,,6,,60,0
27359,note_on,,119,0,6,,,,,,,,,,,,,,,,2,,50,0
27359,note_on,,0,0,15,,,,,,,,,,,,,,,,15,,77,0
27359,note_on,,59,0,5,,,,,,,,,,,,,,,,1,,68,0
27360,note_on,,1,0,11,,,,,,,,,,,,,,,,10,,67,72
27360,note_on,,0,0,15,,,,,,,,,,,,,,,,15,,63,72
27360,note_on,,1,0,13,,,,,,,,,,,,,,,,12,,63,72
27360,note_on,,0,0,15,,,,,,,,,,,,,,,,15,,67,72
27360,note_on,,1,0,15,,,,,,,,,,,,,,,,15,,70,72
27360,note_on,,0,0,15,,,,,,,,,,,,,,,,15,,51,72
27360,note_on,,1,0,5,,,,,,,,,,,,,,,,1,,67,72
27360,note_on,,1,0,6,,,,,,,,,,,,,,,,2,,51,72
27360,note_on,,1,0,10,,,,,,,,,,,,,,,,8,,51,72
27360,note_on,,1,0,8,,,,,,,,,,,,,,,,6,,58,72
27360,note_on,,1,0,7,,,,,,,,,,,,,,,,5,,67,72
27360,note_on,,1,0,14,,,,,,,,,,,,,,,,13,,51,72
27360,note_on,,1,0,12,,,,,,,,,,,,,,,,11,,58,72
27360,note_on,,1,0,9,,,,,,,,,,,,,,,,7,,63,72
27419,note_on,,59,0,10,,,,,,,,,,,,,,,,8,,51,0
27419,note_on,,59,0,15,,,,,,,,,,,,,,,,15,,70,0
27419,note_on,,59,0,8,,,,,,,,,,,,,,,,6,,58,0
27419,note_on,,59,0,11,,,,,,,,,,,,,,,,10,,67,0
27419,note_on,,59,0,14,,,,,,,,,,,,,,,,13,,51,0
27419,note_on,,0,0,15,,,,,,,,,,,,,,,,15,,51,0
27419,note_on,,59,0,12,,,,,,,,,,,,,,,,11,,58,0
27419,note_on,,59,0,13,,,,,,,,,,,,,,,,12,,63,0
27419,note_on,,59,0,5,,,,,,,,,,,,,,,,1,,67,0
27419,note_on,,59,0,7,,,,,,,,,,,,,,,,5,,67,0
27419,note_on,,59,0,9,,,,,,,,,,,,,,,,7,,63,0
27419,note_on,,59,0,6,,,,,,,,,,,,,,,,2,,51,0
27420,note_on,,1,0,11,,,,,,,,,,,,,,,,10,,75,72
27420,note_on,,1,0,5,,,,,,,,,,,,,,,,1,,75,72
27420,note_on,,1,0,9,,,,,,,,,,,,,,,,7,,67,72
27420,note_on,,1,0,6,,,,,,,,,,,,,,,,2,,48,72
27420,note_on,,1,0,7,,,,,,,,,,,,,,,,5,,75,72
27420,note_on,,1,0,10,,,,,,,,,,,,,,,,8,,48,72
27420,note_on,,1,0,13,,,,,,,,,,,,,,,,12,,67,72
27420,note_on,,1,0,15,,,,,,,,,,,,,,,,15,,48,72
27420,note_on,,1,0,8,,,,,,,,,,,,,,,,6,,63,72
27420,note_on,,0,0,15,,,,,,,,,,,,,,,,15,,68,72
27420,note_on,,1,0,14,,,,,,,,,,,,,,,,13,,48,72
27420,note_on,,1,0,12,,,,,,,,,,,,,,,,11,,63,72
27449,note_on,,29,0,15,,,,,,,,,,,,,,,,15,,68,0
27479,note_on,,59,0,6,,,,,,,,,,,,,,,,2,,48,0
27479,note_on,,59,0,10,,,,,,,,,,,,,,,,8,,48,0
27479,note_on,,59,0,7,,,,,,,,,,,,,,,,5,,75,0
27479,note_on,,59,0,5,,,,,,,,,,,,,,,,1,,75,0
27479,note_on,,59,0,13,,,,,,,,,,,,,,,,12,,67,0
27479,note_on,,59,0,11,,,,,,,,,,,,,,,,10,,75,0
27479,note_on,,59,0,12,,,,,,,,,,,,,,,,11,,63,0
27479,note_on,,0,0,15,,,,,,,,,,,,,,,,15,,48,0
27479,note_on,,59,0,8,,,,,,,,,,,,,,,,6,,63,0
27479,note_on,,30,0,15,,,,,,,,,,,,,,,,15,,67,0
27479,note_on,,59,0,14,,,,,,,,,,,,,,,,13,,48,0
27479,note_on,,0,0,15,,,,,,,,,,,,,,,,15,,63,0
27479,note_on,,59,0,9,,,,,,,,,,,,,,,,7,,67,0
27480,note_on,,1,0,12,,,,,,,,,,,,,,,,11,,68,72
27480,note_on,,1,0,14,,,,,,,,,,,,,,,,13,,53,72
27480,note_on,,1,0,10,,,,,,,,,,,,,,,,8,,53,72
27480,note_on,,1,0,7,,,,,,,,,,,,,,,,5,,74,72
27480,note_on,,1,0,6,,,,,,,,,,,,,,,,2,,53,72
27480,note_on,,0,0,15,,,,,,,,,,,,,,,,15,,65,72
27480,note_on,,0,0,15,,,,,,,,,,,,,,,,15,,60,72
27480,note_on,,1,0,15,,,,,,,,,,,,,,,,15,,53,72
27480,note_on,,1,0,13,,,,,,,,,,,,,,,,12,,65,72
27480,note_on,,1,0,5,,,,,,,,,,,,,,,,1,,74,72
27480,note_on,,1,0,11,,,,,,,,,,,,,,,,10,,74,72
27480,note_on,,1,0,8,,,,,,,,,,,,,,,,6,,68,72
27480,note_on,,0,0,15,,,,,,,,,,,,,,,,15,,68,72
27480,note_on,,1,0,9,,,,,,,,,,,,,,,,7,,65,72
27539,note_on,,59,0,7,,,,,,,,,,,,,,,,5,,74,0
27539,note_on,,59,0,5,,,,,,,,,,,,,,,,1,,74,0
27539,note_on,,59,0,15,,,,,,,,,,,,,,,,15,,65,0
27539,note_on,,59,0,9,,,,,,,,,,,,,,,,7,,65,0
27539,note_on,,59,0,13,,,,,,,,,,,,,,,,12,,65,0
27539,note_on,,59,0,11,,,,,,,,,,,,,,,,10,,74,0
27540,note_on,,1,0,9,,,,,,,,,,,,,,,,7,,63,72
27540,note_on,,1,0,15,,,,,,,,,,,,,,,,15,,63,72
27540,note_on,,1,0,13,,,,,,,,,,,,,,,,12,,63,72
27540,note_on,,1,0,11,,,,,,,,,,,,,,,,10,,72,72
27540,note_on,,1,0,5,,,,,,,,,,,,,,,,1,,72,72
27540,note_on,,1,0,7,,,,,,,,,,,,,,,,5,,72,72
27599,note_on,,0,0,15,,,,,,,,,,,,,,,,15,,63,0
27599,note_on,,0,0,15,,,,,,,,,,,,,,,,15,,60,0
27599,note_on,,59,0,15,,,,,,,,,,,,,,,,15,,68,0
27599,note_on,,59,0,11,,,,,,,,,,,,,,,,10,,72,0
27599,note_on,,59,0,9,,,,,,,,,,,,,,,,7,,63,0
27599,note_on,,59,0,7,,,,,,,,,,,,,,,,5,,72,0
27599,note_on,,119,0,12,,,,,,,,,,,,,,,,11,,68,0
27599,note_on,,59,0,5,,,,,,,,,,,,,,,,1,,72,0
27599,note_on,,119,0,8,,,,,,,,,,,,,,,,6,,68,0
27599,note_on,,59,0,13,,,,,,,,,,,,,,,,12,,63,0
27600,note_on,,1,0,9,,,,,,,,,,,,,,,,7,,62,72
27600,note_on,,1,0,8,,,,,,,,,,,,,,,,6,,67,72
27600,note_on,,1,0,5,,,,,,,,,,,,,,,,1,,71,72
27600,note_on,,1,0,11,,,,,,,,,,,,,,,,10,,71,72
27600,note_on,,1,0,7,,,,,,,,,,,,,,,,5,,71,72
27600,note_on,,1,0,13,,,,,,,,,,,,,,,,12,,62,72
27600,note_on,,1,0,12,,,,,,,,,,,,,,,,11,,67,72
27600,note_on,,1,0,15,,,,,,,,,,,,,,,,15,,67,72
27600,note_on,,0,0,15,,,,,,,,,,,,,,,,15,,62,72
27600,note_on,,0,0,15,,,,,,,,,,,,,,,,15,,59,72
27659,note_on,,179,0,14,,,,,,,,,,,,,,,,13,,53,0
27659,note_on,,179,0,6,,,,,,,,,,,,,,,,2,,53,0
27659,note_on,,179,0,10,,,,,,,,,,,,,,,,8,,53,0
27659,note_on,,59,0,5,,,,,,,,,,,,,,,,1,,71,0
27659,note_on,,59,0,11,,,,,,,,,,,,,,,,10,,71,0
27659,note_on,,59,0,15,,,,,,,,,,,,,,,,15,,53,0
27659,note_on,,59,0,7,,,,,,,,,,,,,,,,5,,71,0
27660,note_on,,1,0,6,,,,,,,,,,,,,,,,2,,51,72
27660,note_on,,1,0,14,,,,,,,,,,,,,,,,13,,51,72
27660,note_on,,1,0,10,,,,,,,,,,,,,,,,8,,51,72
27660,note_on,,1,0,15,,,,,,,,,,,,,,,,15,,51,72
27660,note_on,,1,0,11,,,,,,,,,,,,,,,,10,,67,72
27660,note_on,,1,0,5,,,,,,,,,,,,,,,,1,,67,72
27660,note_on,,1,0,7,,,,,,,,,,,,,,,,5,,67,72
27689,note_on,,29,0,14,,,,,,,,,,,,,,,,13,,51,0
27689,note_on,,29,0,10,,,,,,,,,,,,,,,,8,,51,0
27689,note_on,,29,0,6,,,,,,,,,,,,,,,,2,,51,0
27689,note_on,,29,0,15,,,,,,,,,,,,,,,,15,,51,0
27690,note_on,,1,0,15,,,,,,,,,,,,,,,,15,,50,72
27690,note_on,,1,0,10,,,,,,,,,,,,,,,,8,,50,72
27690,note_on,,1,0,6,,,,,,,,,,,,,,,,2,,50,72
27690,note_on,,1,0,14,,,,,,,,,,,,,,,,13,,50,72
27719,note_on,,119,0,9,,,,,,,,,,,,,,,,7,,62,0
27719,note_on,,29,0,6,,,,,,,,,,,,,,,,2,,50,0
27719,note_on,,29,0,14,,,,,,,,,,,,,,,,13,,50,0
27719,note_on,,59,0,7,,,,,,,,,,,,,,,,5,,67,0
27719,note_on,,59,0,11,,,,,,,,,,,,,,,,10,,67,0
27719,note_on,,29,0,15,,,,,,,,,,,,,,,,15,,67,0
27719,note_on,,29,0,10,,,,,,,,,,,,,,,,8,,50,0
27719,note_on,,119,0,13,,,,,,,,,,,,,,,,12,,62,0
27719,note_on,,0,0,15,,,,,,,,,,,,,,,,15,,50,0
27719,note_on,,0,0,15,,,,,,,,,,,,,,,,15,,59,0
27719,note_on,,59,0,5,,,,,,,,,,,,,,,,1,,67,0
27719,note_on,,0,0,15,,,,,,,,,,,,,,,,15,,62,0
27720,note_on,,1,0,11,,,,,,,,,,,,,,,,10,,79,72
27720,note_on,,0,0,15,,,,,,,,,,,,,,,,15,,60,72
27720,note_on,,0,0,15,,,,,,,,,,,,,,,,15,,67,72
27720,note_on,,0,0,15,,,,,,,,,,,,,,,,15,,72,72
27720,note_on,,1,0,15,,,,,,,,,,,,,,,,15,,51,72
27720,note_on,,1,0,9,,,,,,,,,,,,,,,,7,,60,72
27720,note_on,,1,0,7,,,,,,,,,,,,,,,,5,,79,72
27720,note_on,,1,0,6,,,,,,,,,,,,,,,,2,,51,72
27720,note_on,,1,0,14,,,,,,,,,,,,,,,,13,,51,72
27720,note_on,,1,0,10,,,,,,,,,,,,,,,,8,,51,72
27720,note_on,,1,0,13,,,,,,,,,,,,,,,,12,,60,72
27720,note_on,,1,0,5,,,,,,,,,,,,,,,,1,,79,72
27779,note_on,,59,0,13,,,,,,,,,,,,,,,,12,,60,0
27779,note_on,,59,0,10,,,,,,,,,,,,,,,,8,,51,0
27779,note_on,,59,0,15,,,,,,,,,,,,,,,,15,,51,0
27779,note_on,,179,0,12,,,,,,,,,,,,,,,,11,,67,0
27779,note_on,,59,0,9,,,,,,,,,,,,,,,,7,,60,0
27779,note_on,,59,0,6,,,,,,,,,,,,,,,,2,,51,0
27779,note_on,,179,0,8,,,,,,,,,,,,,,,,6,,67,0
27779,note_on,,59,0,14,,,,,,,,,,,,,,,,13,,51,0
27780,note_on,,1,0,10,,,,,,,,,,,,,,,,8,,53,72
27780,note_on,,1,0,12,,,,,,,,,,,,,,,,11,,65,72
27780,note_on,,1,0,8,,,,,,,,,,,,,,,,6,,65,72
27780,note_on,,1,0,9,,,,,,,,,,,,,,,,7,,62,72
27780,note_on,,1,0,15,,,,,,,,,,,,,,,,15,,53,72
27780,note_on,,1,0,6,,,,,,,,,,,,,,,,2,,53,72
27780,note_on,,1,0,13,,,,,,,,,,,,,,,,12,,62,72
27780,note_on,,1,0,14,,,,,,,,,,,,,,,,13,,53,72
27839,note_on,,59,0,8,,,,,,,,,,,,,,,,6,,65,0
27839,note_on,,0,0,15,,,,,,,,,,,,,,,,15,,67,0
27839,note_on,,59,0,15,,,,,,,,,,,,,,,,15,,72,0
27839,note_on,,59,0,13,,,,,,,,,,,,,,,,12,,62,0
27839,note_on,,0,0,15,,,,,,,,,,,,,,,,15,,53,0
27839,note_on,,0,0,15,,,,,,,,,,,,,,,,15,,60,0
27839,note_on,,59,0,6,,,,,,,,,,,,,,,,2,,53,0
27839,note_on,,59,0,14,,,,,,,,,,,,,,,,13,,53,0
27839,note_on,,59,0,9,,,,,,,,,,,,,,,,7,,62,0
27839,note_on,,59,0,12,,,,,,,,,,,,,,,,11,,65,0
27839,note_on,,59,0,10,,,,,,,,,,,,,,,,8,,53,0
27840,note_on,,0,0,15,,,,,,,,,,,,,,,,15,,55,72
27840,note_on,,1,0,15,,,,,,,,,,,,,,,,15,,67,72
27840,note_on,,1,0,8,,,,,,,,,,,,,,,,6,,63,72
27840,note_on,,1,0,14,,,,,,,,,,,,,,,,13,,55,72
27840,note_on,,1,0,10,,,,,,,,,,,,,,,,8,,55,72
27840,note_on,,1,0,9,,,,,,,,,,,,,,,,7,,58,72
27840,note_on,,1,0,12,,,,,,,,,,,,,,,,11,,63,72
27840,note_on,,0,0,15,,,,,,,,,,,,,,,,15,,70,72
27840,note_on,,0,0,15,,,,,,,,,,,,,,,,15,,63,72
27840,note_on,,1,0,6,,,,,,,,,,,,,,,,2,,55,72
27840,note_on,,1,0,13,,,,,,,,,,,,,,,,12,,58,72
27899,note_on,,59,0,6,,,,,,,,,,,,,,,,2,,55,0
27899,note_on,,59,0,15,,,,,,,,,,,,,,,,15,,55,0
27899,note_on,,59,0,10,,,,,,,,,,,,,,,,8,,55,0
27899,note_on,,59,0,14,,,,,,,,,,,,,,,,13,,55,0
27900,note_on,,1,0,15,,,,,,,,,,,,,,,,15,,51,72
27900,note_on,,1,0,14,,,,,,,,,,,,,,,,13,,51,72
27900,note_on,,1,0,10,,,,,,,,,,,,,,,,8,,51,72
27900,note_on,,1,0,6,,,,,,,,,,,,,,,,2,,51,72
27959,note_on,,59,0,14,,,,,,,,,,,,,,,,13,,51,0
27959,note_on,,119,0,8,,,,,,,,,,,,,,,,6,,63,0
27959,note_on,,59,0,15,,,,,,,,,,,,,,,,15,,67,0
27959,note_on,,239,0,11,,,,,,,,,,,,,,,,10,,79,0
27959,note_on,,59,0,6,,,,,,,,,,,,,,,,2,,51,0
27959,note_on,,119,0,9,,,,,,,,,,,,,,,,7,,58,0
27959,note_on,,239,0,7,,,,,,,,,,,,,,,,5,,79,0
27959,note_on,,239,0,5,,,,,,,,,,,,,,,,1,,79,0
27959,note_on,,119,0,12,,,,,,,,,,,,,,,,11,,63,0
27959,note_on,,0,0,15,,,,,,,,,,,,,,,,15,,63,0
27959,note_on,,0,0,15,,,,,,,,,,,,,,,,15,,51,0
27959,note_on,,119,0,13,,,,,,,,,,,,,,,,12,,58,0
27959,note_on,,59,0,10,,,,,,,,,,,,,,,,8,,51,0
27959,note_on,,0,0,15,,,,,,,,,,,,,,,,15,,70,0
27960,note_on,,1,0,7,,,,,,,,,,,,,,,,5,,77,72
27960,note_on,,1,0,10,,,,,,,,,,,,,,,,8,,56,72
27960,note_on,,1,0,13,,,,,,,,,,,,,,,,12,,60,72
27960,note_on,,1,0,12,,,,,,,,,,,,,,,,11,,65,72
27960,note_on,,1,0,8,,,,,,,,,,,,,,,,6,,65,72
27960,note_on,,0,0,15,,,,,,,,,,,,,,,,15,,60,72
27960,note_on,,1,0,5,,,,,,,,,,,,,,,,1,,77,72
27960,note_on,,1,0,6,,,,,,,,,,,,,,,,2,,56,72
27960,note_on,,0,0,15,,,,,,,,,,,,,,,,15,,65,72
27960,note_on,,0,0,15,,,,,,,,,,,,,,,,15,,72,72
27960,note_on,,1,0,9,,,,,,,,,,,,,,,,7,,60,72
27960,note_on,,1,0,15,,,,,,,,,,,,,,,,15,,56,72
27960,note_on,,1,0,11,,,,,,,,,,,,,,,,10,,77,72
27960,note_on,,1,0,14,,,,,,,,,,,,,,,,13,,56,72
28019,note_on,,59,0,11,,,,,,,,,,,,,,,,10,,77,0
28019,note_on,,59,0,7,,,,,,,,,,,,,,,,5,,77,0
28019,note_on,,59,0,5,,,,,,,,,,,,,,,,1,,77,0
28020,note_on,,1,0,5,,,,,,,,,,,,,,,,1,,75,72
28020,note_on,,1,0,11,,,,,,,,,,,,,,,,10,,75,72
28020,note_on,,1,0,7,,,,,,,,,,,,,,,,5,,75,72
28079,note_on,,119,0,12,,,,,,,,,,,,,,,,11,,65,0
28079,note_on,,59,0,5,,,,,,,,,,,,,,,,1,,75,0
28079,note_on,,59,0,11,,,,,,,,,,,,,,,,10,,75,0
28079,note_on,,119,0,8,,,,,,,,,,,,,,,,6,,65,0
28079,note_on,,119,0,9,,,,,,,,,,,,,,,,7,,60,0
28079,note_on,,0,0,15,,,,,,,,,,,,,,,,15,,60,0
28079,note_on,,0,0,15,,,,,,,,,,,,,,,,15,,65,0
28079,note_on,,59,0,7,,,,,,,,,,,,,,,,5,,75,0
28079,note_on,,119,0,13,,,,,,,,,,,,,,,,12,,60,0
28079,note_on,,119,0,15,,,,,,,,,,,,,,,,15,,72,0
28080,note_on,,1,0,13,,,,,,,,,,,,,,,,12,,65,72
28080,note_on,,1,0,12,,,,,,,,,,,,,,,,11,,70,72
28080,note_on,,0,0,15,,,,,,,,,,,,,,,,15,,65,72
28080,note_on,,0,0,15,,,,,,,,,,,,,,,,15,,70,72
28080,note_on,,1,0,15,,,,,,,,,,,,,,,,15,,62,72
28080,note_on,,1,0,8,,,,,,,,,,,,,,,,6,,70,72
28080,note_on,,1,0,7,,,,,,,,,,,,,,,,5,,74,72
28080,note_on,,1,0,5,,,,,,,,,,,,,,,,1,,74,72
28080,note_on,,1,0,11,,,,,,,,,,,,,,,,10,,74,72
28080,note_on,,1,0,9,,,,,,,,,,,,,,,,7,,65,72
28139,note_on,,179,0,6,,,,,,,,,,,,,,,,2,,56,0
28139,note_on,,59,0,11,,,,,,,,,,,,,,,,10,,74,0
28139,note_on,,59,0,7,,,,,,,,,,,,,,,,5,,74,0
28139,note_on,,59,0,13,,,,,,,,,,,,,,,,12,,65,0
28139,note_on,,59,0,15,,,,,,,,,,,,,,,,15,,56,0
28139,note_on,,59,0,5,,,,,,,,,,,,,,,,1,,74,0
28139,note_on,,179,0,14,,,,,,,,,,,,,,,,13,,56,0
28139,note_on,,179,0,10,,,,,,,,,,,,,,,,8,,56,0
28139,note_on,,59,0,9,,,,,,,,,,,,,,,,7,,65,0
28140,note_on,,1,0,7,,,,,,,,,,,,,,,,5,,70,72
28140,note_on,,1,0,14,,,,,,,,,,,,,,,,13,,55,72
28140,note_on,,1,0,6,,,,,,,,,,,,,,,,2,,55,72
28140,note_on,,1,0,15,,,,,,,,,,,,,,,,15,,55,72
28140,note_on,,1,0,11,,,,,,,,,,,,,,,,10,,70,72
28140,note_on,,1,0,13,,,,,,,,,,,,,,,,12,,65,72
28140,note_on,,1,0,9,,,,,,,,,,,,,,,,7,,65,72
28140,note_on,,1,0,10,,,,,,,,,,,,,,,,8,,55,72
28140,note_on,,1,0,5,,,,,,,,,,,,,,,,1,,70,72
28199,note_on,,59,0,11,,,,,,,,,,,,,,,,10,,70,0
28199,note_on,,59,0,14,,,,,,,,,,,,,,,,13,,55,0
28199,note_on,,0,0,15,,,,,,,,,,,,,,,,15,,55,0
28199,note_on,,0,0,15,,,,,,,,,,,,,,,,15,,65,0
28199,note_on,,59,0,7,,,,,,,,,,,,,,,,5,,70,0
28199,note_on,,59,0,15,,,,,,,,,,,,,,,,15,,62,0
28199,note_on,,59,0,9,,,,,,,,,,,,,,,,7,,65,0
28199,note_on,,59,0,6,,,,,,,,,,,,,,,,2,,55,0
28199,note_on,,59,0,10,,,,,,,,,,,,,,,,8,,55,0
28199,note_on,,59,0,13,,,,,,,,,,,,,,,,12,,65,0
28199,note_on,,59,0,5,,,,,,,,,,,,,,,,1,,70,0
28200,note_on,,1,0,6,,,,,,,,,,,,,,,,2,,55,72
28200,note_on,,1,0,14,,,,,,,,,,,,,,,,13,,55,72
28200,note_on,,1,0,9,,,,,,,,,,,,,,,,7,,67,72
28200,note_on,,1,0,10,,,,,,,,,,,,,,,,8,,55,72
28200,note_on,,1,0,15,,,,,,,,,,,,,,,,15,,55,72
28200,note_on,,0,0,15,,,,,,,,,,,,,,,,15,,67,72
28200,note_on,,0,0,15,,,,,,,,,,,,,,,,15,,58,72
28200,note_on,,1,0,13,,,,,,,,,,,,,,,,12,,67,72
28200,note_on,,1,0,11,,,,,,,,,,,,,,,,10,,75,72
28200,note_on,,1,0,7,,,,,,,,,,,,,,,,5,,75,72
28200,note_on,,0,0,15,,,,,,,,,,,,,,,,15,,63,72
28200,note_on,,1,0,5,,,,,,,,,,,,,,,,1,,75,72
28259,note_on,,59,0,15,,,,,,,,,,,,,,,,15,,55,0
28259,note_on,,59,0,13,,,,,,,,,,,,,,,,12,,67,0
28259,note_on,,59,0,6,,,,,,,,,,,,,,,,2,,55,0
28259,note_on,,59,0,9,,,,,,,,,,,,,,,,7,,67,0
28259,note_on,,59,0,14,,,,,,,,,,,,,,,,13,,55,0
28259,note_on,,179,0,8,,,,,,,,,,,,,,,,6,,70,0
28259,note_on,,59,0,10,,,,,,,,,,,,,,,,8,,55,0
28259,note_on,,179,0,12,,,,,,,,,,,,,,,,11,,70,0
28260,note_on,,1,0,13,,,,,,,,,,,,,,,,12,,63,72
28260,note_on,,1,0,10,,,,,,,,,,,,,,,,8,,55,72
28260,note_on,,1,0,6,,,,,,,,,,,,,,,,2,,55,72
28260,note_on,,1,0,8,,,,,,,,,,,,,,,,6,,70,72
28260,note_on,,1,0,14,,,,,,,,,,,,,,,,13,,55,72
28260,note_on,,1,0,15,,,,,,,,,,,,,,,,15,,55,72
28260,note_on,,1,0,12,,,,,,,,,,,,,,,,11,,70,72
28260,note_on,,1,0,9,,,,,,,,,,,,,,,,7,,63,72
28319,note_on,,59,0,15,,,,,,,,,,,,,,,,15,,70,0
28319,note_on,,0,0,15,,,,,,,,,,,,,,,,15,,67,0
28319,note_on,,0,0,15,,,,,,,,,,,,,,,,15,,63,0
28319,note_on,,0,0,15,,,,,,,,,,,,,,,,15,,58,0
28319,note_on,,0,0,15,,,,,,,,,,,,,,,,15,,55,0
28319,note_on,,59,0,6,,,,,,,,,,,,,,,,2,,55,0
28319,note_on,,59,0,13,,,,,,,,,,,,,,,,12,,63,0
28319,note_on,,59,0,10,,,,,,,,,,,,,,,,8,,55,0
28319,note_on,,59,0,9,,,,,,,,,,,,,,,,7,,63,0
28319,note_on,,59,0,14,,,,,,,,,,,,,,,,13,,55,0
28319,note_on,,59,0,12,,,,,,,,,,,,,,,,11,,70,0
28319,note_on,,59,0,8,,,,,,,,,,,,,,,,6,,70,0
28320,note_on,,1,0,6,,,,,,,,,,,,,,,,2,,53,72
28320,note_on,,1,0,9,,,,,,,,,,,,,,,,7,,65,72
28320,note_on,,1,0,10,,,,,,,,,,,,,,,,8,,53,72
28320,note_on,,0,0,15,,,,,,,,,,,,,,,,15,,60,72
28320,note_on,,1,0,8,,,,,,,,,,,,,,,,6,,68,72
28320,note_on,,1,0,15,,,,,,,,,,,,,,,,15,,53,72
28320,note_on,,1,0,14,,,,,,,,,,,,,,,,13,,53,72
28320,note_on,,1,0,12,,,,,,,,,,,,,,,,11,,68,72
28320,note_on,,1,0,13,,,,,,,,,,,,,,,,12,,65,72
28320,note_on,,0,0,15,,,,,,,,,,,,,,,,15,,63,72
28320,note_on,,0,0,15,,,,,,,,,,,,,,,,15,,68,72
28439,note_on,,0,0,15,,,,,,,,,,,,,,,,15,,60,0
28439,note_on,,239,0,7,,,,,,,,,,,,,,,,5,,75,0
28439,note_on,,119,0,15,,,,,,,,,,,,,,,,15,,63,0
28439,note_on,,239,0,5,,,,,,,,,,,,,,,,1,,75,0
28439,note_on,,239,0,11,,,,,,,,,,,,,,,,10,,75,0
28440,note_on,,1,0,5,,,,,,,,,,,,,,,,1,,74,72
28440,note_on,,1,0,7,,,,,,,,,,,,,,,,5,,74,72
28440,note_on,,1,0,15,,,,,,,,,,,,,,,,15,,65,72
28440,note_on,,0,0,15,,,,,,,,,,,,,,,,15,,62,72
28440,note_on,,1,0,11,,,,,,,,,,,,,,,,10,,74,72
28499,note_on,,59,0,5,,,,,,,,,,,,,,,,1,,74,0
28499,note_on,,59,0,11,,,,,,,,,,,,,,,,10,,74,0
28499,note_on,,179,0,13,,,,,,,,,,,,,,,,12,,65,0
28499,note_on,,179,0,6,,,,,,,,,,,,,,,,2,,53,0
28499,note_on,,59,0,7,,,,,,,,,,,,,,,,5,,74,0
28499,note_on,,179,0,8,,,,,,,,,,,,,,,,6,,68,0
28499,note_on,,59,0,15,,,,,,,,,,,,,,,,15,,53,0
28499,note_on,,179,0,10,,,,,,,,,,,,,,,,8,,53,0
28499,note_on,,179,0,9,,,,,,,,,,,,,,,,7,,65,0
28499,note_on,,179,0,12,,,,,,,,,,,,,,,,11,,68,0
28499,note_on,,0,0,15,,,,,,,,,,,,,,,,15,,68,0
28499,note_on,,179,0,14,,,,,,,,,,,,,,,,13,,53,0
28500,note_on,,1,0,15,,,,,,,,,,,,,,,,15,,53,72
28500,note_on,,0,0,15,,,,,,,,,,,,,,,,15,,68,72
28500,note_on,,1,0,13,,,,,,,,,,,,,,,,12,,63,72
28500,note_on,,1,0,11,,,,,,,,,,,,,,,,10,,72,72
28500,note_on,,1,0,14,,,,,,,,,,,,,,,,13,,53,72
28500,note_on,,1,0,9,,,,,,,,,,,,,,,,7,,63,72
28500,note_on,,1,0,6,,,,,,,,,,,,,,,,2,,53,72
28500,note_on,,1,0,12,,,,,,,,,,,,,,,,11,,68,72
28500,note_on,,1,0,10,,,,,,,,,,,,,,,,8,,53,72
28500,note_on,,1,0,8,,,,,,,,,,,,,,,,6,,68,72
28500,note_on,,1,0,7,,,,,,,,,,,,,,,,5,,72,72
28500,note_on,,1,0,5,,,,,,,,,,,,,,,,1,,72,72
28559,note_on,,59,0,11,,,,,,,,,,,,,,,,10,,72,0
28559,note_on,,59,0,14,,,,,,,,,,,,,,,,13,,53,0
28559,note_on,,59,0,5,,,,,,,,,,,,,,,,1,,72,0
28559,note_on,,59,0,8,,,,,,,,,,,,,,,,6,,68,0
28559,note_on,,59,0,7,,,,,,,,,,,,,,,,5,,72,0
28559,note_on,,0,0,15,,,,,,,,,,,,,,,,15,,62,0
28559,note_on,,0,0,15,,,,,,,,,,,,,,,,15,,53,0
28559,note_on,,59,0,15,,,,,,,,,,,,,,,,15,,65,0
28559,note_on,,59,0,6,,,,,,,,,,,,,,,,2,,53,0
28559,note_on,,59,0,10,,,,,,,,,,,,,,,,8,,53,0
28559,note_on,,59,0,12,,,,,,,,,,,,,,,,11,,68,0
28559,note_on,,59,0,9,,,,,,,,,,,,,,,,7,,63,0
28559,note_on,,0,0,15,,,,,,,,,,,,,,,,15,,68,0
28559,note_on,,59,0,13,,,,,,,,,,,,,,,,12,,63,0
28560,note_on,,1,0,13,,,,,,,,,,,,,,,,12,,62,72
28560,note_on,,1,0,7,,,,,,,,,,,,,,,,5,,71,72
28560,note_on,,1,0,5,,,,,,,,,,,,,,,,1,,71,72
28560,note_on,,0,0,15,,,,,,,,,,,,,,,,15,,59,72
28560,note_on,,0,0,15,,,,,,,,,,,,,,,,15,,62,72
28560,note_on,,0,0,15,,,,,,,,,,,,,,,,15,,67,72
28560,note_on,,1,0,15,,,,,,,,,,,,,,,,15,,53,72
28560,note_on,,1,0,12,,,,,,,,,,,,,,,,11,,67,72
28560,note_on,,1,0,10,,,,,,,,,,,,,,,,8,,53,72
28560,note_on,,1,0,6,,,,,,,,,,,,,,,,2,,53,72
28560,note_on,,1,0,8,,,,,,,,,,,,,,,,6,,67,72
28560,note_on,,1,0,14,,,,,,,,,,,,,,,,13,,53,72
28560,note_on,,1,0,9,,,,,,,,,,,,,,,,7,,62,72
28560,note_on,,1,0,11,,,,,,,,,,,,,,,,10,,71,72
28649,note_on,,89,0,15,,,,,,,,,,,,,,,,15,,53,0
28649,note_on,,89,0,7,,,,,,,,,,,,,,,,5,,71,0
28649,note_on,,89,0,11,,,,,,,,,,,,,,,,10,,71,0
28649,note_on,,89,0,12,,,,,,,,,,,,,,,,11,,67,0
28649,note_on,,89,0,8,,,,,,,,,,,,,,,,6,,67,0
28649,note_on,,89,0,14,,,,,,,,,,,,,,,,13,,53,0
28649,note_on,,89,0,5,,,,,,,,,,,,,,,,1,,71,0
28649,note_on,,89,0,6,,,,,,,,,,,,,,,,2,,53,0
28649,note_on,,89,0,13,,,,,,,,,,,,,,,,12,,62,0
28649,note_on,,89,0,10,,,,,,,,,,,,,,,,8,,53,0
28649,note_on,,89,0,9,,,,,,,,,,,,,,,,7,,62,0
28650,note_on,,1,0,13,,,,,,,,,,,,,,,,12,,62,72
28650,note_on,,1,0,5,,,,,,,,,,,,,,,,1,,71,72
28650,note_on,,1,0,12,,,,,,,,,,,,,,,,11,,67,72
28650,note_on,,1,0,6,,,,,,,,,,,,,,,,2,,53,72
28650,note_on,,1,0,7,,,,,,,,,,,,,,,,5,,71,72
28650,note_on,,1,0,11,,,,,,,,,,,,,,,,10,,71,72
28650,note_on,,1,0,10,,,,,,,,,,,,,,,,8,,53,72
28650,note_on,,1,0,8,,,,,,,,,,,,,,,,6,,67,72
28650,note_on,,1,0,15,,,,,,,,,,,,,,,,15,,53,72
28650,note_on,,1,0,14,,,,,,,,,,,,,,,,13,,53,72
28650,note_on,,1,0,9,,,,,,,,,,,,,,,,7,,62,72
28679,note_on,,29,0,10,,,,,,,,,,,,,,,,8,,53,0
28679,note_on,,29,0,12,,,,,,,,,,,,,,,,11,,67,0
28679,note_on,,29,0,14,,,,,,,,,,,,,,,,13,,53,0
28679,note_on,,29,0,8,,,,,,,,,,,,,,,,6,,67,0
28679,note_on,,29,0,7,,,,,,,,,,,,,,,,5,,71,0
28679,note_on,,29,0,15,,,,,,,,,,,,,,,,15,,53,0
28679,note_on,,29,0,11,,,,,,,,,,,,,,,,10,,71,0
28679,note_on,,29,0,6,,,,,,,,,,,,,,,,2,,53,0
28679,note_on,,29,0,13,,,,,,,,,,,,,,,,12,,62,0
28679,note_on,,29,0,9,,,,,,,,,,,,,,,,7,,62,0
28679,note_on,,29,0,5,,,,,,,,,,,,,,,,1,,71,0
28680,note_on,,1,0,5,,,,,,,,,,,,,,,,1,,71,72
28680,note_on,,1,0,6,,,,,,,,,,,,,,,,2,,53,72
28680,note_on,,1,0,14,,,,,,,,,,,,,,,,13,,53,72
28680,note_on,,1,0,9,,,,,,,,,,,,,,,,7,,62,72
28680,note_on,,1,0,13,,,,,,,,,,,,,,,,12,,62,72
28680,note_on,,1,0,12,,,,,,,,,,,,,,,,11,,67,72
28680,note_on,,1,0,10,,,,,,,,,,,,,,,,8,,53,72
28680,note_on,,1,0,8,,,,,,,,,,,,,,,,6,,67,72
28680,note_on,,1,0,7,,,,,,,,,,,,,,,,5,,71,72
28680,note_on,,1,0,11,,,,,,,,,,,,,,,,10,,71,72
28680,note_on,,1,0,15,,,,,,,,,,,,,,,,15,,53,72
28799,note_on,,119,0,8,,,,,,,,,,,,,,,,6,,67,0
28799,note_on,,119,0,9,,,,,,,,,,,,,,,,7,,62,0
28799,note_on,,119,0,5,,,,,,,,,,,,,,,,1,,71,0
28799,note_on,,0,0,15,,,,,,,,,,,,,,,,15,,53,0
28799,note_on,,0,0,15,,,,,,,,,,,,,,,,15,,59,0
28799,note_on,,0,0,15,,,,,,,,,,,,,,,,15,,62,0
28799,note_on,,119,0,13,,,,,,,,,,,,,,,,12,,62,0
28799,note_on,,119,0,11,,,,,,,,,,,,,,,,10,,71,0
28799,note_on,,119,0,15,,,,,,,,,,,,,,,,15,,67,0
28799,note_on,,119,0,7,,,,,,,,,,,,,,,,5,,71,0
28799,note_on,,119,0,10,,,,,,,,,,,,,,,,8,,53,0
28799,note_on,,119,0,12,,,,,,,,,,,,,,,,11,,67,0
28799,note_on,,119,0,14,,,,,,,,,,,,,,,,13,,53,0
28799,note_on,,119,0,6,,,,,,,,,,,,,,,,2,,53,0
28800,set_tempo,,28800,1,0,,,,,,,,,1000000,,,,,,,,,,
28920,note_on,,121,0,6,,,,,,,,,,,,,,,,2,,53,72
28920,note_on,,121,0,10,,,,,,,,,,,,,,,,8,,53,72
28920,note_on,,0,0,15,,,,,,,,,,,,,,,,15,,62,72
28920,note_on,,0,0,15,,,,,,,,,,,,,,,,15,,67,72
28920,note_on,,0,0,15,,,,,,,,,,,,,,,,15,,71,72
28920,note_on,,121,0,8,,,,,,,,,,,,,,,,6,,67,72
28920,note_on,,121,0,9,,,,,,,,,,,,,,,,7,,62,72
28920,note_on,,121,0,5,,,,,,,,,,,,,,,,1,,71,72
28920,note_on,,121,0,14,,,,,,,,,,,,,,,,13,,53,72
28920,note_on,,121,0,15,,,,,,,,,,,,,,,,15,,53,72
28920,note_on,,121,0,12,,,,,,,,,,,,,,,,11,,67,72
28920,note_on,,121,0,7,,,,,,,,,,,,,,,,5,,71,72
28920,note_on,,121,0,13,,,,,,,,,,,,,,,,12,,62,72
28920,note_on,,121,0,11,,,,,,,,,,,,,,,,10,,71,72
28920,note_on,,0,0,15,,,,,,,,,,,,,,,,15,,74,72
29039,note_on,,119,0,5,,,,,,,,,,,,,,,,1,,71,0
29039,note_on,,119,0,14,,,,,,,,,,,,,,,,13,,53,0
29039,note_on,,119,0,6,,,,,,,,,,,,,,,,2,,53,0
29039,note_on,,119,0,12,,,,,,,,,,,,,,,,11,,67,0
29039,note_on,,0,0,15,,,,,,,,,,,,,,,,15,,62,0
29039,note_on,,119,0,7,,,,,,,,,,,,,,,,5,,71,0
29039,note_on,,119,0,15,,,,,,,,,,,,,,,,15,,53,0
29039,note_on,,0,0,15,,,,,,,,,,,,,,,,15,,74,0
29039,note_on,,0,0,15,,,,,,,,,,,,,,,,15,,71,0
29039,note_on,,119,0,8,,,,,,,,,,,,,,,,6,,67,0
29039,note_on,,0,0,15,,,,,,,,,,,,,,,,15,,67,0
29039,note_on,,119,0,10,,,,,,,,,,,,,,,,8,,53,0
29039,note_on,,119,0,11,,,,,,,,,,,,,,,,10,,71,0
29039,note_on,,119,0,13,,,,,,,,,,,,,,,,12,,62,0
29039,note_on,,119,0,9,,,,,,,,,,,,,,,,7,,62,0
29040,note_on,,1,0,14,,,,,,,,,,,,,,,,13,,51,72
29040,note_on,,0,0,15,,,,,,,,,,,,,,,,15,,72,72
29040,note_on,,1,0,6,,,,,,,,,,,,,,,,2,,51,72
29040,note_on,,1,0,13,,,,,,,,,,,,,,,,12,,63,72
29040,note_on,,0,0,15,,,,,,,,,,,,,,,,15,,75,72
29040,note_on,,0,0,15,,,,,,,,,,,,,,,,15,,55,72
29040,note_on,,1,0,15,,,,,,,,,,,,,,,,15,,51,72
29040,note_on,,1,0,7,,,,,,,,,,,,,,,,5,,72,72
29040,note_on,,0,0,15,,,,,,,,,,,,,,,,15,,67,72
29040,note_on,,1,0,9,,,,,,,,,,,,,,,,7,,63,72
29040,note_on,,1,0,5,,,,,,,,,,,,,,,,1,,72,72
29040,note_on,,1,0,10,,,,,,,,,,,,,,,,8,,51,72
29040,note_on,,1,0,8,,,,,,,,,,,,,,,,6,,67,72
29040,note_on,,1,0,11,,,,,,,,,,,,,,,,10,,72,72
29040,note_on,,1,0,12,,,,,,,,,,,,,,,,11,,67,72
29159,note_on,,119,0,9,,,,,,,,,,,,,,,,7,,63,0
29159,note_on,,119,0,8,,,,,,,,,,,,,,,,6,,67,0
29159,note_on,,119,0,13,,,,,,,,,,,,,,,,12,,63,0
29159,note_on,,119,0,11,,,,,,,,,,,,,,,,10,,72,0
29159,note_on,,119,0,14,,,,,,,,,,,,,,,,13,,51,0
29159,note_on,,119,0,6,,,,,,,,,,,,,,,,2,,51,0
29159,note_on,,119,0,7,,,,,,,,,,,,,,,,5,,72,0
29159,note_on,,0,0,15,,,,,,,,,,,,,,,,15,,55,0
29159,note_on,,119,0,12,,,,,,,,,,,,,,,,11,,67,0
29159,note_on,,119,0,5,,,,,,,,,,,,,,,,1,,72,0
29159,note_on,,119,0,10,,,,,,,,,,,,,,,,8,,51,0
29159,note_on,,119,0,15,,,,,,,,,,,,,,,,15,,51,0
29160,note_on,,1,0,12,,,,,,,,,,,,,,,,11,,67,72
29160,note_on,,1,0,14,,,,,,,,,,,,,,,,13,,48,72
29160,note_on,,1,0,9,,,,,,,,,,,,,,,,7,,63,72
29160,note_on,,1,0,6,,,,,,,,,,,,,,,,2,,48,72
29160,note_on,,1,0,8,,,,,,,,,,,,,,,,6,,67,72
29160,note_on,,1,0,13,,,,,,,,,,,,,,,,12,,63,72
29160,note_on,,1,0,10,,,,,,,,,,,,,,,,8,,48,72
29160,note_on,,1,0,7,,,,,,,,,,,,,,,,5,,72,72
29160,note_on,,1,0,5,,,,,,,,,,,,,,,,1,,72,72
29160,note_on,,0,0,15,,,,,,,,,,,,,,,,15,,60,72
29160,note_on,,1,0,11,,,,,,,,,,,,,,,,10,,72,72
29160,note_on,,1,0,15,,,,,,,,,,,,,,,,15,,48,72
29279,note_on,,119,0,7,,,,,,,,,,,,,,,,5,,72,0
29279,note_on,,119,0,10,,,,,,,,,,,,,,,,8,,48,0
29279,note_on,,0,0,15,,,,,,,,,,,,,,,,15,,67,0
29279,note_on,,0,0,15,,,,,,,,,,,,,,,,15,,48,0
29279,note_on,,0,0,15,,,,,,,,,,,,,,,,15,,60,0
29279,note_on,,0,0,15,,,,,,,,,,,,,,,,15,,72,0
29279,note_on,,119,0,8,,,,,,,,,,,,,,,,6,,67,0
29279,note_on,,119,0,11,,,,,,,,,,,,,,,,10,,72,0
29279,note_on,,119,0,12,,,,,,,,,,,,,,,,11,,67,0
29279,note_on,,119,0,14,,,,,,,,,,,,,,,,13,,48,0
29279,note_on,,119,0,5,,,,,,,,,,,,,,,,1,,72,0
29279,note_on,,119,0,9,,,,,,,,,,,,,,,,7,,63,0
29279,note_on,,119,0,15,,,,,,,,,,,,,,,,15,,75,0
29279,note_on,,119,0,13,,,,,,,,,,,,,,,,12,,63,0
29279,note_on,,119,0,6,,,,,,,,,,,,,,,,2,,48,0
29280,note_on,,0,0,15,,,,,,,,,,,,,,,,15,,62,72
29280,note_on,,1,0,5,,,,,,,,,,,,,,,,1,,72,72
29280,note_on,,1,0,7,,,,,,,,,,,,,,,,5,,72,72
29280,note_on,,0,0,15,,,,,,,,,,,,,,,,15,,60,72
29280,note_on,,0,0,15,,,,,,,,,,,,,,,,15,,67,72
29280,note_on,,1,0,13,,,,,,,,,,,,,,,,12,,62,72
29280,note_on,,0,0,15,,,,,,,,,,,,,,,,15,,72,72
29280,note_on,,1,0,12,,,,,,,,,,,,,,,,11,,67,72
29280,note_on,,1,0,6,,,,,,,,,,,,,,,,2,,55,72
29280,note_on,,1,0,10,,,,,,,,,,,,,,,,8,,55,72
29280,note_on,,1,0,8,,,,,,,,,,,,,,,,6,,67,72
29280,note_on,,1,0,9,,,,,,,,,,,,,,,,7,,62,72
29280,note_on,,1,0,11,,,,,,,,,,,,,,,,10,,72,72
29280,note_on,,0,0,15,,,,,,,,,,,,,,,,15,,74,72
29280,note_on,,1,0,15,,,,,,,,,,,,,,,,15,,55,72
29280,note_on,,1,0,14,,,,,,,,,,,,,,,,13,,55,72
29519,note_on,,0,0,15,,,,,,,,,,,,,,,,15,,72,0
29519,note_on,,0,0,15,,,,,,,,,,,,,,,,15,,60,0
29519,note_on,,239,0,7,,,,,,,,,,,,,,,,5,,72,0
29519,note_on,,239,0,15,,,,,,,,,,,,,,,,15,,55,0
29519,note_on,,239,0,5,,,,,,,,,,,,,,,,1,,72,0
29519,note_on,,239,0,11,,,,,,,,,,,,,,,,10,,72,0
29519,note_on,,239,0,6,,,,,,,,,,,,,,,,2,,55,0
29519,note_on,,239,0,14,,,,,,,,,,,,,,,,13,,55,0
29520,note_on,,1,0,5,,,,,,,,,,,,,,,,1,,71,72
29520,note_on,,1,0,7,,,,,,,,,,,,,,,,5,,71,72
29520,note_on,,0,0,15,,,,,,,,,,,,,,,,15,,55,72
29520,note_on,,1,0,6,,,,,,,,,,,,,,,,2,,43,72
29520,note_on,,1,0,14,,,,,,,,,,,,,,,,13,,43,72
29520,note_on,,0,0,15,,,,,,,,,,,,,,,,15,,71,72
29520,note_on,,1,0,11,,,,,,,,,,,,,,,,10,,71,72
29520,note_on,,1,0,15,,,,,,,,,,,,,,,,15,,43,72
29639,note_on,,359,0,10,,,,,,,,,,,,,,,,8,,55,0
29639,note_on,,359,0,13,,,,,,,,,,,,,,,,12,,62,0
29639,note_on,,359,0,8,,,,,,,,,,,,,,,,6,,67,0
29639,note_on,,359,0,9,,,,,,,,,,,,,,,,7,,62,0
29639,note_on,,359,0,12,,,,,,,,,,,,,,,,11,,67,0
29640,note_on,,1,0,10,,,,,,,,,,,,,,,,8,,55,72
29640,note_on,,1,0,8,,,,,,,,,,,,,,,,6,,67,72
29640,note_on,,1,0,9,,,,,,,,,,,,,,,,7,,62,72
29640,note_on,,1,0,13,,,,,,,,,,,,,,,,12,,62,72
29640,note_on,,1,0,12,,,,,,,,,,,,,,,,11,,67,72
29759,note_on,,119,0,13,,,,,,,,,,,,,,,,12,,62,0
29759,note_on,,119,0,9,,,,,,,,,,,,,,,,7,,62,0
29759,note_on,,239,0,11,,,,,,,,,,,,,,,,10,,71,0
29759,note_on,,0,0,15,,,,,,,,,,,,,,,,15,,67,0
29759,note_on,,0,0,15,,,,,,,,,,,,,,,,15,,71,0
29759,note_on,,0,0,15,,,,,,,,,,,,,,,,15,,55,0
29759,note_on,,239,0,6,,,,,,,,,,,,,,,,2,,43,0
29759,note_on,,239,0,5,,,,,,,,,,,,,,,,1,,71,0
29759,note_on,,119,0,8,,,,,,,,,,,,,,,,6,,67,0
29759,note_on,,0,0,15,,,,,,,,,,,,,,,,15,,62,0
29759,note_on,,0,0,15,,,,,,,,,,,,,,,,15,,43,0
29759,note_on,,119,0,12,,,,,,,,,,,,,,,,11,,67,0
29759,note_on,,239,0,14,,,,,,,,,,,,,,,,13,,43,0
29759,note_on,,119,0,10,,,,,,,,,,,,,,,,8,,55,0
29759,note_on,,239,0,7,,,,,,,,,,,,,,,,5,,71,0
29759,note_on,,239,0,15,,,,,,,,,,,,,,,,15,,74,0
29760,note_on,,0,0,15,,,,,,,,,,,,,,,,15,,63,72
29760,note_on,,1,0,14,,,,,,,,,,,,,,,,13,,48,72
29760,note_on,,0,0,15,,,,,,,,,,,,,,,,15,,67,72
29760,note_on,,1,0,11,,,,,,,,,,,,,,,,10,,72,72
29760,note_on,,0,0,15,,,,,,,,,,,,,,,,15,,72,72
29760,note_on,,1,0,15,,,,,,,,,,,,,,,,15,,48,72
29760,note_on,,1,0,10,,,,,,,,,,,,,,,,8,,48,72
29760,note_on,,1,0,9,,,,,,,,,,,,,,,,7,,63,72
29760,note_on,,1,0,13,,,,,,,,,,,,,,,,12,,63,72
29760,note_on,,1,0,8,,,,,,,,,,,,,,,,6,,67,72
29760,note_on,,0,0,15,,,,,,,,,,,,,,,,15,,51,72
29760,note_on,,1,0,6,,,,,,,,,,,,,,,,2,,48,72
29760,note_on,,1,0,12,,,,,,,,,,,,,,,,11,,67,72
29760,note_on,,1,0,7,,,,,,,,,,,,,,,,5,,72,72
29760,note_on,,1,0,5,,,,,,,,,,,,,,,,1,,72,72
30239,note_on,,479,0,15,,,,,,,,,,,,,,,,15,,48,0
30239,note_on,,0,0,15,,,,,,,,,,,,,,,,15,,72,0
30239,note_on,,0,0,15,,,,,,,,,,,,,,,,15,,67,0
30239,note_on,,0,0,15,,,,,,,,,,,,,,,,15,,63,0
30239,note_on,,479,0,13,,,,,,,,,,,,,,,,12,,63,0
30239,note_on,,479,0,9,,,,,,,,,,,,,,,,7,,63,0
30239,note_on,,479,0,14,,,,,,,,,,,,,,,,13,,48,0
30239,end_of_track,,0,1,14,,,,,,,,,,,,,,,,,,,
30239,end_of_track,,0,1,12,,,,,,,,,,,,,,,,,,,
30239,note_on,,479,0,12,,,,,,,,,,,,,,,,11,,67,0
30239,note_on,,0,0,15,,,,,,,,,,,,,,,,15,,51,0
30239,end_of_track,,0,1,11,,,,,,,,,,,,,,,,,,,
30239,note_on,,479,0,11,,,,,,,,,,,,,,,,10,,72,0
30239,end_of_track,,0,1,10,,,,,,,,,,,,,,,,,,,
30239,note_on,,479,0,10,,,,,,,,,,,,,,,,8,,48,0
30239,end_of_track,,0,1,9,,,,,,,,,,,,,,,,,,,
30239,end_of_track,,0,1,15,,,,,,,,,,,,,,,,,,,
30239,end_of_track,,0,1,8,,,,,,,,,,,,,,,,,,,
30239,note_on,,479,0,8,,,,,,,,,,,,,,,,6,,67,0
30239,end_of_track,,0,1,13,,,,,,,,,,,,,,,,,,,
30239,end_of_track,,0,1,7,,,,,,,,,,,,,,,,,,,
30239,note_on,,479,0,7,,,,,,,,,,,,,,,,5,,72,0
30239,end_of_track,,0,1,6,,,,,,,,,,,,,,,,,,,
30239,note_on,,479,0,6,,,,,,,,,,,,,,,,2,,48,0
30239,end_of_track,,0,1,5,,,,,,,,,,,,,,,,,,,
30239,note_on,,479,0,5,,,,,,,,,,,,,,,,1,,72,0
30240,set_tempo,,1440,1,0,,,,,,,,,1000000,,,,,,,,,,
30720,end_of_track,,0,1,0,,,,,,,,,,,,,,,,,,,
30720,set_tempo,,480,1,0,,,,,,,,,500000,,,,,,,,,,
