tick,type,data,time,meta,track,frame_rate,hours,minutes,seconds,frames,sub_frames,port,key,tempo,numerator,denominator,clocks_per_click,notated_32nd_notes_per_beat,control,value,channel,program,note,velocity
0,sequencer_specific,"(0, 0, 91, 35, 1, 0, 5, 4, 35, 0)",0,1,0,,,,,,,,,,,,,,,,,,,
0,note_on,,0,0,10,,,,,,,,,,,,,,,,15,,61,72
0,note_on,,0,0,10,,,,,,,,,,,,,,,,15,,58,72
0,note_on,,0,0,10,,,,,,,,,,,,,,,,15,,53,72
0,note_on,,0,0,7,,,,,,,,,,,,,,,,11,,65,72
0,program_change,,0,0,7,,,,,,,,,,,,,,,,11,48,,
0,control_change,,0,0,7,,,,,,,,,,,,,,10,24,11,,,
0,control_change,,0,0,7,,,,,,,,,,,,,,7,96,11,,,
0,note_on,,0,0,10,,,,,,,,,,,,,,,,15,,65,72
0,control_change,,0,0,7,,,,,,,,,,,,,,11,127,11,,,
0,track_name,,0,1,7,,,,,,,,,,,,,,,,,,,
0,midi_port,,0,1,9,,,,,,,0,,,,,,,,,,,,
0,note_on,,0,0,6,,,,,,,,,,,,,,,,10,,82,72
0,program_change,,0,0,6,,,,,,,,,,,,,,,,10,48,,
0,control_change,,0,0,6,,,,,,,,,,,,,,10,48,10,,,
0,control_change,,0,0,6,,,,,,,,,,,,,,7,96,10,,,
0,control_change,,0,0,6,,,,,,,,,,,,,,11,127,10,,,
0,midi_port,,0,1,7,,,,,,,0,,,,,,,,,,,,
0,midi_port,,0,1,6,,,,,,,0,,,,,,,,,,,,
0,note_on,,0,0,10,,,,,,,,,,,,,,,,15,,46,72
0,control_change,,0,0,10,,,,,,,,,,,,,,10,90,15,,,
0,control_change,,0,0,9,,,,,,,,,,,,,,11,127,13,,,
0,control_change,,0,0,9,,,,,,,,,,,,,,7,96,13,,,
0,control_change,,0,0,9,,,,,,,,,,,,,,10,96,13,,,
0,program_change,,0,0,9,,,,,,,,,,,,,,,,13,48,,
0,note_on,,0,0,9,,,,,,,,,,,,,,,,13,,46,72
0,note_on,,0,0,8,,,,,,,,,,,,,,,,12,,61,72
0,program_change,,0,0,8,,,,,,,,,,,,,,,,12,48,,
0,program_change,,0,0,10,,,,,,,,,,,,,,,,15,6,,
0,control_change,,0,0,8,,,,,,,,,,,,,,10,80,12,,,
0,control_change,,0,0,8,,,,,,,,,,,,,,11,127,12,,,
0,midi_port,,0,1,8,,,,,,,0,,,,,,,,,,,,
0,track_name,,0,1,8,,,,,,,,,,,,,,,,,,,
0,track_name,,0,1,10,,,,,,,,,,,,,,,,,,,
0,midi_port,,0,1,10,,,,,,,0,,,,,,,,,,,,
0,control_change,,0,0,10,,,,,,,,,,,,,,11,127,15,,,
0,control_change,,0,0,10,,,,,,,,,,,,,,7,96,15,,,
0,control_change,,0,0,8,,,,,,,,,,,,,,7,96,12,,,
0,track_name,,0,1,6,,,,,,,,,,,,,,,,,,,
0,track_name,,0,1,9,,,,,,,,,,,,,,,,,,,
0,midi_port,,0,1,4,,,,,,,0,,,,,,,,,,,,
0,set_tempo,,0,1,0,,,,,,,,,800000,,,,,,,,,,
0,time_signature,,0,1,0,,,,,,,,,,4,4,24,8,,,,,,
0,track_name,,0,1,1,,,,,,,,,,,,,,,,,,,
0,midi_port,,0,1,1,,,,,,,0,,,,,,,,,,,,
0,end_of_track,,0,1,1,,,,,,,,,,,,,,,,,,,
0,track_name,,0,1,2,,,,,,,,,,,,,,,,,,,
0,midi_port,,0,1,2,,,,,,,0,,,,,,,,,,,,
0,end_of_track,,0,1,2,,,,,,,,,,,,,,,,,,,
0,track_name,,0,1,3,,,,,,,,,,,,,,,,,,,
0,midi_port,,0,1,3,,,,,,,0,,,,,,,,,,,,
0,end_of_track,,0,1,3,,,,,,,,,,,,,,,,,,,
0,end_of_track,,0,1,4,,,,,,,,,,,,,,,,,,,
0,track_name,,0,1,5,,,,,,,,,,,,,,,,,,,
0,midi_port,,0,1,5,,,,,,,0,,,,,,,,,,,,
0,control_change,,0,0,5,,,,,,,,,,,,,,11,127,7,,,
0,program_change,,0,0,5,,,,,,,,,,,,,,,,7,70,,
0,control_change,,0,0,5,,,,,,,,,,,,,,10,80,7,,,
0,control_change,,0,0,5,,,,,,,,,,,,,,7,96,7,,,
0,track_name,,0,1,0,,,,,,,,,,,,,,,,,,,
0,instrument_name,,0,1,0,,,,,,,,,,,,,,,,,,,
0,key_signature,,0,1,0,,,,,,,,Eb,,,,,,,,,,,
0,midi_port,,0,1,0,,,,,,,0,,,,,,,,,,,,
0,smpte_offset,,0,1,0,25,32,0,3,0,0,,,,,,,,,,,,,
44,note_on,,44,0,6,,,,,,,,,,,,,,,,10,,82,0
45,note_on,,1,0,6,,,,,,,,,,,,,,,,10,,77,72
59,note_on,,59,0,10,,,,,,,,,,,,,,,,15,,46,0
59,note_on,,59,0,8,,,,,,,,,,,,,,,,12,,61,0
59,note_on,,59,0,7,,,,,,,,,,,,,,,,11,,65,0
59,note_on,,14,0,6,,,,,,,,,,,,,,,,10,,77,0
59,note_on,,59,0,9,,,,,,,,,,,,,,,,13,,46,0
60,note_on,,1,0,8,,,,,,,,,,,,,,,,12,,61,72
60,note_on,,1,0,10,,,,,,,,,,,,,,,,15,,46,72
60,note_on,,1,0,7,,,,,,,,,,,,,,,,11,,65,72
60,note_on,,1,0,6,,,,,,,,,,,,,,,,10,,82,72
60,note_on,,1,0,9,,,,,,,,,,,,,,,,13,,46,72
104,note_on,,44,0,6,,,,,,,,,,,,,,,,10,,82,0
105,note_on,,1,0,6,,,,,,,,,,,,,,,,10,,77,72
119,note_on,,59,0,7,,,,,,,,,,,,,,,,11,,65,0
119,note_on,,59,0,8,,,,,,,,,,,,,,,,12,,61,0
119,note_on,,59,0,10,,,,,,,,,,,,,,,,15,,46,0
119,note_on,,59,0,9,,,,,,,,,,,,,,,,13,,46,0
119,note_on,,14,0,6,,,,,,,,,,,,,,,,10,,77,0
120,note_on,,1,0,7,,,,,,,,,,,,,,,,11,,65,72
120,note_on,,1,0,10,,,,,,,,,,,,,,,,15,,46,72
120,note_on,,1,0,6,,,,,,,,,,,,,,,,10,,82,72
120,note_on,,1,0,8,,,,,,,,,,,,,,,,12,,61,72
120,note_on,,1,0,9,,,,,,,,,,,,,,,,13,,46,72
164,note_on,,44,0,6,,,,,,,,,,,,,,,,10,,82,0
165,note_on,,1,0,6,,,,,,,,,,,,,,,,10,,77,72
179,note_on,,59,0,9,,,,,,,,,,,,,,,,13,,46,0
179,note_on,,59,0,8,,,,,,,,,,,,,,,,12,,61,0
179,note_on,,59,0,10,,,,,,,,,,,,,,,,15,,46,0
179,note_on,,59,0,7,,,,,,,,,,,,,,,,11,,65,0
179,note_on,,14,0,6,,,,,,,,,,,,,,,,10,,77,0
180,note_on,,1,0,7,,,,,,,,,,,,,,,,11,,65,72
180,note_on,,1,0,10,,,,,,,,,,,,,,,,15,,46,72
180,note_on,,1,0,8,,,,,,,,,,,,,,,,12,,61,72
180,note_on,,1,0,9,,,,,,,,,,,,,,,,13,,46,72
180,note_on,,1,0,6,,,,,,,,,,,,,,,,10,,82,72
224,note_on,,44,0,6,,,,,,,,,,,,,,,,10,,82,0
225,note_on,,1,0,6,,,,,,,,,,,,,,,,10,,77,72
239,note_on,,0,0,10,,,,,,,,,,,,,,,,15,,53,0
239,note_on,,0,0,10,,,,,,,,,,,,,,,,15,,58,0
239,note_on,,0,0,10,,,,,,,,,,,,,,,,15,,61,0
239,note_on,,59,0,9,,,,,,,,,,,,,,,,13,,46,0
239,note_on,,59,0,7,,,,,,,,,,,,,,,,11,,65,0
239,note_on,,0,0,10,,,,,,,,,,,,,,,,15,,46,0
239,note_on,,59,0,10,,,,,,,,,,,,,,,,15,,65,0
239,note_on,,59,0,8,,,,,,,,,,,,,,,,12,,61,0
239,note_on,,14,0,6,,,,,,,,,,,,,,,,10,,77,0
240,note_on,,1,0,9,,,,,,,,,,,,,,,,13,,46,72
240,note_on,,1,0,8,,,,,,,,,,,,,,,,12,,63,72
240,note_on,,0,0,10,,,,,,,,,,,,,,,,15,,51,72
240,note_on,,0,0,10,,,,,,,,,,,,,,,,15,,54,72
240,note_on,,0,0,10,,,,,,,,,,,,,,,,15,,58,72
240,note_on,,0,0,10,,,,,,,,,,,,,,,,15,,70,72
240,note_on,,1,0,10,,,,,,,,,,,,,,,,15,,46,72
240,note_on,,1,0,6,,,,,,,,,,,,,,,,10,,82,72
240,note_on,,1,0,7,,,,,,,,,,,,,,,,11,,66,72
284,note_on,,44,0,6,,,,,,,,,,,,,,,,10,,82,0
285,note_on,,1,0,6,,,,,,,,,,,,,,,,10,,75,72
299,note_on,,59,0,8,,,,,,,,,,,,,,,,12,,63,0
299,note_on,,59,0,7,,,,,,,,,,,,,,,,11,,66,0
299,note_on,,59,0,9,,,,,,,,,,,,,,,,13,,46,0
299,note_on,,14,0,6,,,,,,,,,,,,,,,,10,,75,0
299,note_on,,59,0,10,,,,,,,,,,,,,,,,15,,46,0
300,note_on,,1,0,9,,,,,,,,,,,,,,,,13,,46,72
300,note_on,,1,0,6,,,,,,,,,,,,,,,,10,,82,72
300,note_on,,1,0,7,,,,,,,,,,,,,,,,11,,66,72
300,note_on,,1,0,10,,,,,,,,,,,,,,,,15,,46,72
300,note_on,,1,0,8,,,,,,,,,,,,,,,,12,,63,72
344,note_on,,44,0,6,,,,,,,,,,,,,,,,10,,82,0
345,note_on,,1,0,6,,,,,,,,,,,,,,,,10,,75,72
359,note_on,,59,0,9,,,,,,,,,,,,,,,,13,,46,0
359,note_on,,14,0,6,,,,,,,,,,,,,,,,10,,75,0
359,note_on,,59,0,7,,,,,,,,,,,,,,,,11,,66,0
359,note_on,,59,0,10,,,,,,,,,,,,,,,,15,,46,0
359,note_on,,59,0,8,,,,,,,,,,,,,,,,12,,63,0
360,note_on,,1,0,10,,,,,,,,,,,,,,,,15,,46,72
360,note_on,,1,0,8,,,,,,,,,,,,,,,,12,,63,72
360,note_on,,1,0,6,,,,,,,,,,,,,,,,10,,82,72
360,note_on,,1,0,9,,,,,,,,,,,,,,,,13,,46,72
360,note_on,,1,0,7,,,,,,,,,,,,,,,,11,,66,72
404,note_on,,44,0,6,,,,,,,,,,,,,,,,10,,82,0
405,note_on,,1,0,6,,,,,,,,,,,,,,,,10,,75,72
419,note_on,,59,0,7,,,,,,,,,,,,,,,,11,,66,0
419,note_on,,59,0,10,,,,,,,,,,,,,,,,15,,46,0
419,note_on,,59,0,9,,,,,,,,,,,,,,,,13,,46,0
419,note_on,,59,0,8,,,,,,,,,,,,,,,,12,,63,0
419,note_on,,14,0,6,,,,,,,,,,,,,,,,10,,75,0
420,note_on,,1,0,9,,,,,,,,,,,,,,,,13,,46,72
420,note_on,,1,0,6,,,,,,,,,,,,,,,,10,,82,72
420,note_on,,1,0,10,,,,,,,,,,,,,,,,15,,46,72
420,note_on,,1,0,7,,,,,,,,,,,,,,,,11,,66,72
420,note_on,,1,0,8,,,,,,,,,,,,,,,,12,,63,72
464,note_on,,44,0,6,,,,,,,,,,,,,,,,10,,82,0
465,note_on,,1,0,6,,,,,,,,,,,,,,,,10,,75,72
479,note_on,,14,0,6,,,,,,,,,,,,,,,,10,,75,0
479,note_on,,59,0,9,,,,,,,,,,,,,,,,13,,46,0
479,note_on,,0,0,10,,,,,,,,,,,,,,,,15,,46,0
479,note_on,,0,0,10,,,,,,,,,,,,,,,,15,,51,0
479,note_on,,59,0,7,,,,,,,,,,,,,,,,11,,66,0
479,note_on,,59,0,10,,,,,,,,,,,,,,,,15,,70,0
479,note_on,,0,0,10,,,,,,,,,,,,,,,,15,,54,0
479,note_on,,59,0,8,,,,,,,,,,,,,,,,12,,63,0
479,note_on,,0,0,10,,,,,,,,,,,,,,,,15,,58,0
480,note_on,,0,0,10,,,,,,,,,,,,,,,,15,,61,72
480,note_on,,0,0,10,,,,,,,,,,,,,,,,15,,53,72
480,note_on,,1,0,9,,,,,,,,,,,,,,,,13,,46,72
480,note_on,,0,0,10,,,,,,,,,,,,,,,,15,,46,72
480,note_on,,1,0,10,,,,,,,,,,,,,,,,15,,65,72
480,note_on,,1,0,6,,,,,,,,,,,,,,,,10,,77,72
480,note_on,,1,0,8,,,,,,,,,,,,,,,,12,,61,72
480,note_on,,1,0,7,,,,,,,,,,,,,,,,11,,65,72
524,note_on,,44,0,6,,,,,,,,,,,,,,,,10,,77,0
525,note_on,,1,0,6,,,,,,,,,,,,,,,,10,,70,72
539,note_on,,59,0,10,,,,,,,,,,,,,,,,15,,46,0
539,note_on,,14,0,6,,,,,,,,,,,,,,,,10,,70,0
539,note_on,,59,0,8,,,,,,,,,,,,,,,,12,,61,0
539,note_on,,59,0,9,,,,,,,,,,,,,,,,13,,46,0
539,note_on,,59,0,7,,,,,,,,,,,,,,,,11,,65,0
540,note_on,,1,0,7,,,,,,,,,,,,,,,,11,,65,72
540,note_on,,1,0,8,,,,,,,,,,,,,,,,12,,61,72
540,note_on,,1,0,10,,,,,,,,,,,,,,,,15,,46,72
540,note_on,,1,0,9,,,,,,,,,,,,,,,,13,,46,72
540,note_on,,1,0,6,,,,,,,,,,,,,,,,10,,77,72
584,note_on,,44,0,6,,,,,,,,,,,,,,,,10,,77,0
585,note_on,,1,0,6,,,,,,,,,,,,,,,,10,,70,72
599,note_on,,59,0,10,,,,,,,,,,,,,,,,15,,65,0
599,note_on,,14,0,6,,,,,,,,,,,,,,,,10,,70,0
599,note_on,,0,0,10,,,,,,,,,,,,,,,,15,,61,0
599,note_on,,0,0,10,,,,,,,,,,,,,,,,15,,53,0
599,note_on,,0,0,10,,,,,,,,,,,,,,,,15,,46,0
599,note_on,,59,0,9,,,,,,,,,,,,,,,,13,,46,0
599,note_on,,59,0,8,,,,,,,,,,,,,,,,12,,61,0
599,note_on,,59,0,7,,,,,,,,,,,,,,,,11,,65,0
600,note_on,,1,0,10,,,,,,,,,,,,,,,,15,,48,72
600,note_on,,1,0,6,,,,,,,,,,,,,,,,10,,77,72
600,note_on,,0,0,10,,,,,,,,,,,,,,,,15,,72,72
600,note_on,,0,0,10,,,,,,,,,,,,,,,,15,,57,72
600,note_on,,0,0,10,,,,,,,,,,,,,,,,15,,63,72
600,note_on,,1,0,9,,,,,,,,,,,,,,,,13,,48,72
600,note_on,,1,0,8,,,,,,,,,,,,,,,,12,,63,72
600,note_on,,1,0,7,,,,,,,,,,,,,,,,11,,69,72
644,note_on,,44,0,6,,,,,,,,,,,,,,,,10,,77,0
645,note_on,,1,0,6,,,,,,,,,,,,,,,,10,,69,72
659,note_on,,14,0,6,,,,,,,,,,,,,,,,10,,69,0
659,note_on,,59,0,8,,,,,,,,,,,,,,,,12,,63,0
659,note_on,,59,0,9,,,,,,,,,,,,,,,,13,,48,0
659,note_on,,59,0,7,,,,,,,,,,,,,,,,11,,69,0
659,note_on,,59,0,10,,,,,,,,,,,,,,,,15,,48,0
660,note_on,,1,0,7,,,,,,,,,,,,,,,,11,,69,72
660,note_on,,1,0,9,,,,,,,,,,,,,,,,13,,48,72
660,note_on,,1,0,8,,,,,,,,,,,,,,,,12,,63,72
660,note_on,,1,0,10,,,,,,,,,,,,,,,,15,,48,72
660,note_on,,1,0,6,,,,,,,,,,,,,,,,10,,77,72
704,note_on,,44,0,6,,,,,,,,,,,,,,,,10,,77,0
705,note_on,,1,0,6,,,,,,,,,,,,,,,,10,,69,72
719,note_on,,59,0,10,,,,,,,,,,,,,,,,15,,72,0
719,note_on,,0,0,10,,,,,,,,,,,,,,,,15,,63,0
719,note_on,,0,0,10,,,,,,,,,,,,,,,,15,,57,0
719,note_on,,0,0,10,,,,,,,,,,,,,,,,15,,48,0
719,note_on,,59,0,9,,,,,,,,,,,,,,,,13,,48,0
719,note_on,,14,0,6,,,,,,,,,,,,,,,,10,,69,0
719,note_on,,59,0,7,,,,,,,,,,,,,,,,11,,69,0
719,note_on,,59,0,8,,,,,,,,,,,,,,,,12,,63,0
720,note_on,,1,0,7,,,,,,,,,,,,,,,,11,,70,72
720,note_on,,0,0,10,,,,,,,,,,,,,,,,15,,70,72
720,note_on,,1,0,10,,,,,,,,,,,,,,,,15,,49,72
720,note_on,,1,0,6,,,,,,,,,,,,,,,,10,,77,72
720,note_on,,0,0,10,,,,,,,,,,,,,,,,15,,58,72
720,note_on,,0,0,10,,,,,,,,,,,,,,,,15,,65,72
720,note_on,,1,0,9,,,,,,,,,,,,,,,,13,,49,72
720,note_on,,1,0,8,,,,,,,,,,,,,,,,12,,65,72
764,note_on,,44,0,6,,,,,,,,,,,,,,,,10,,77,0
765,note_on,,1,0,6,,,,,,,,,,,,,,,,10,,70,72
779,note_on,,59,0,10,,,,,,,,,,,,,,,,15,,49,0
779,note_on,,59,0,7,,,,,,,,,,,,,,,,11,,70,0
779,note_on,,59,0,8,,,,,,,,,,,,,,,,12,,65,0
779,note_on,,59,0,9,,,,,,,,,,,,,,,,13,,49,0
779,note_on,,14,0,6,,,,,,,,,,,,,,,,10,,70,0
780,note_on,,1,0,7,,,,,,,,,,,,,,,,11,,70,72
780,note_on,,1,0,9,,,,,,,,,,,,,,,,13,,49,72
780,note_on,,1,0,6,,,,,,,,,,,,,,,,10,,77,72
780,note_on,,1,0,10,,,,,,,,,,,,,,,,15,,49,72
780,note_on,,1,0,8,,,,,,,,,,,,,,,,12,,65,72
824,note_on,,44,0,6,,,,,,,,,,,,,,,,10,,77,0
825,note_on,,1,0,6,,,,,,,,,,,,,,,,10,,70,72
839,note_on,,59,0,8,,,,,,,,,,,,,,,,12,,65,0
839,note_on,,59,0,7,,,,,,,,,,,,,,,,11,,70,0
839,note_on,,14,0,6,,,,,,,,,,,,,,,,10,,70,0
839,note_on,,59,0,9,,,,,,,,,,,,,,,,13,,49,0
839,note_on,,59,0,10,,,,,,,,,,,,,,,,15,,49,0
840,note_on,,1,0,10,,,,,,,,,,,,,,,,15,,49,72
840,note_on,,1,0,7,,,,,,,,,,,,,,,,11,,70,72
840,note_on,,1,0,9,,,,,,,,,,,,,,,,13,,49,72
840,note_on,,1,0,6,,,,,,,,,,,,,,,,10,,77,72
840,note_on,,1,0,8,,,,,,,,,,,,,,,,12,,65,72
884,note_on,,44,0,6,,,,,,,,,,,,,,,,10,,77,0
885,note_on,,1,0,6,,,,,,,,,,,,,,,,10,,70,72
899,note_on,,14,0,6,,,,,,,,,,,,,,,,10,,70,0
899,note_on,,0,0,10,,,,,,,,,,,,,,,,15,,49,0
899,note_on,,59,0,7,,,,,,,,,,,,,,,,11,,70,0
899,note_on,,0,0,10,,,,,,,,,,,,,,,,15,,65,0
899,note_on,,59,0,10,,,,,,,,,,,,,,,,15,,70,0
899,note_on,,59,0,9,,,,,,,,,,,,,,,,13,,49,0
899,note_on,,0,0,10,,,,,,,,,,,,,,,,15,,58,0
899,note_on,,59,0,8,,,,,,,,,,,,,,,,12,,65,0
900,note_on,,0,0,10,,,,,,,,,,,,,,,,15,,60,72
900,note_on,,0,0,10,,,,,,,,,,,,,,,,15,,66,72
900,note_on,,0,0,10,,,,,,,,,,,,,,,,15,,70,72
900,note_on,,1,0,10,,,,,,,,,,,,,,,,15,,51,72
900,note_on,,1,0,8,,,,,,,,,,,,,,,,12,,70,72
900,note_on,,1,0,9,,,,,,,,,,,,,,,,13,,51,72
900,note_on,,1,0,6,,,,,,,,,,,,,,,,10,,78,72
900,note_on,,1,0,7,,,,,,,,,,,,,,,,11,,72,72
944,note_on,,44,0,6,,,,,,,,,,,,,,,,10,,78,0
945,note_on,,1,0,6,,,,,,,,,,,,,,,,10,,70,72
959,note_on,,0,0,10,,,,,,,,,,,,,,,,15,,60,0
959,note_on,,0,0,10,,,,,,,,,,,,,,,,15,,70,0
959,note_on,,0,0,10,,,,,,,,,,,,,,,,15,,66,0
959,note_on,,59,0,10,,,,,,,,,,,,,,,,15,,51,0
959,note_on,,14,0,6,,,,,,,,,,,,,,,,10,,70,0
959,note_on,,59,0,8,,,,,,,,,,,,,,,,12,,70,0
959,note_on,,59,0,7,,,,,,,,,,,,,,,,11,,72,0
959,note_on,,59,0,9,,,,,,,,,,,,,,,,13,,51,0
960,note_on,,0,0,10,,,,,,,,,,,,,,,,15,,60,72
960,note_on,,0,0,10,,,,,,,,,,,,,,,,15,,65,72
960,note_on,,0,0,10,,,,,,,,,,,,,,,,15,,69,72
960,note_on,,1,0,10,,,,,,,,,,,,,,,,15,,53,72
960,note_on,,1,0,8,,,,,,,,,,,,,,,,12,,69,72
960,note_on,,1,0,6,,,,,,,,,,,,,,,,10,,77,72
960,note_on,,1,0,9,,,,,,,,,,,,,,,,13,,53,72
960,note_on,,1,0,7,,,,,,,,,,,,,,,,11,,72,72
1004,note_on,,44,0,6,,,,,,,,,,,,,,,,10,,77,0
1005,note_on,,1,0,6,,,,,,,,,,,,,,,,10,,69,72
1019,note_on,,0,0,10,,,,,,,,,,,,,,,,15,,60,0
1019,note_on,,0,0,10,,,,,,,,,,,,,,,,15,,65,0
1019,note_on,,0,0,10,,,,,,,,,,,,,,,,15,,69,0
1019,note_on,,14,0,6,,,,,,,,,,,,,,,,10,,69,0
1019,note_on,,59,0,10,,,,,,,,,,,,,,,,15,,53,0
1019,note_on,,59,0,7,,,,,,,,,,,,,,,,11,,72,0
1019,note_on,,59,0,9,,,,,,,,,,,,,,,,13,,53,0
1019,note_on,,59,0,8,,,,,,,,,,,,,,,,12,,69,0
1020,note_on,,1,0,9,,,,,,,,,,,,,,,,13,,54,72
1020,note_on,,0,0,10,,,,,,,,,,,,,,,,15,,70,72
1020,note_on,,0,0,10,,,,,,,,,,,,,,,,15,,58,72
1020,note_on,,1,0,10,,,,,,,,,,,,,,,,15,,54,72
1020,note_on,,1,0,7,,,,,,,,,,,,,,,,11,,70,72
1020,note_on,,0,0,10,,,,,,,,,,,,,,,,15,,63,72
1020,note_on,,1,0,8,,,,,,,,,,,,,,,,12,,63,72
1020,note_on,,1,0,6,,,,,,,,,,,,,,,,10,,70,72
1064,note_on,,44,0,6,,,,,,,,,,,,,,,,10,,70,0
1065,note_on,,1,0,6,,,,,,,,,,,,,,,,10,,75,72
1079,note_on,,0,0,10,,,,,,,,,,,,,,,,15,,63,0
1079,note_on,,59,0,10,,,,,,,,,,,,,,,,15,,54,0
1079,note_on,,14,0,6,,,,,,,,,,,,,,,,10,,75,0
1079,note_on,,59,0,8,,,,,,,,,,,,,,,,12,,63,0
1079,note_on,,59,0,7,,,,,,,,,,,,,,,,11,,70,0
1079,note_on,,59,0,9,,,,,,,,,,,,,,,,13,,54,0
1080,note_on,,1,0,9,,,,,,,,,,,,,,,,13,,53,72
1080,note_on,,1,0,7,,,,,,,,,,,,,,,,11,,70,72
1080,note_on,,1,0,6,,,,,,,,,,,,,,,,10,,73,72
1080,note_on,,0,0,10,,,,,,,,,,,,,,,,15,,65,72
1080,note_on,,1,0,10,,,,,,,,,,,,,,,,15,,53,72
1080,note_on,,1,0,8,,,,,,,,,,,,,,,,12,,65,72
1139,note_on,,59,0,9,,,,,,,,,,,,,,,,13,,53,0
1139,note_on,,59,0,8,,,,,,,,,,,,,,,,12,,65,0
1139,note_on,,59,0,7,,,,,,,,,,,,,,,,11,,70,0
1139,note_on,,59,0,10,,,,,,,,,,,,,,,,15,,58,0
1139,note_on,,0,0,10,,,,,,,,,,,,,,,,15,,70,0
1139,note_on,,0,0,10,,,,,,,,,,,,,,,,15,,53,0
1139,note_on,,59,0,6,,,,,,,,,,,,,,,,10,,73,0
1140,note_on,,1,0,10,,,,,,,,,,,,,,,,15,,41,72
1140,note_on,,0,0,10,,,,,,,,,,,,,,,,15,,60,72
1140,note_on,,0,0,10,,,,,,,,,,,,,,,,15,,69,72
1140,note_on,,1,0,9,,,,,,,,,,,,,,,,13,,41,72
1140,note_on,,1,0,7,,,,,,,,,,,,,,,,11,,69,72
1140,note_on,,1,0,6,,,,,,,,,,,,,,,,10,,72,72
1140,note_on,,1,0,8,,,,,,,,,,,,,,,,12,,63,72
1154,note_on,,14,0,6,,,,,,,,,,,,,,,,10,,72,0
1155,note_on,,1,0,6,,,,,,,,,,,,,,,,10,,73,72
1169,note_on,,14,0,6,,,,,,,,,,,,,,,,10,,73,0
1170,note_on,,1,0,6,,,,,,,,,,,,,,,,10,,72,72
1184,note_on,,14,0,6,,,,,,,,,,,,,,,,10,,72,0
1185,note_on,,1,0,6,,,,,,,,,,,,,,,,10,,70,72
1199,note_on,,59,0,7,,,,,,,,,,,,,,,,11,,69,0
1199,note_on,,0,0,10,,,,,,,,,,,,,,,,15,,41,0
1199,note_on,,0,0,10,,,,,,,,,,,,,,,,15,,60,0
1199,note_on,,0,0,10,,,,,,,,,,,,,,,,15,,69,0
1199,note_on,,59,0,10,,,,,,,,,,,,,,,,15,,65,0
1199,note_on,,14,0,6,,,,,,,,,,,,,,,,10,,70,0
1199,note_on,,59,0,9,,,,,,,,,,,,,,,,13,,41,0
1199,note_on,,59,0,8,,,,,,,,,,,,,,,,12,,63,0
1200,note_on,,1,0,8,,,,,,,,,,,,,,,,12,,61,72
1200,note_on,,1,0,6,,,,,,,,,,,,,,,,10,,70,72
1200,note_on,,0,0,10,,,,,,,,,,,,,,,,15,,65,72
1200,note_on,,1,0,7,,,,,,,,,,,,,,,,11,,70,72
1200,note_on,,0,0,10,,,,,,,,,,,,,,,,15,,61,72
1200,note_on,,0,0,10,,,,,,,,,,,,,,,,15,,70,72
1200,note_on,,1,0,10,,,,,,,,,,,,,,,,15,,46,72
1200,note_on,,1,0,9,,,,,,,,,,,,,,,,13,,46,72
1244,note_on,,44,0,6,,,,,,,,,,,,,,,,10,,70,0
1245,note_on,,1,0,6,,,,,,,,,,,,,,,,10,,65,72
1259,note_on,,59,0,8,,,,,,,,,,,,,,,,12,,61,0
1259,note_on,,59,0,9,,,,,,,,,,,,,,,,13,,46,0
1259,note_on,,14,0,6,,,,,,,,,,,,,,,,10,,65,0
1259,note_on,,59,0,7,,,,,,,,,,,,,,,,11,,70,0
1259,note_on,,59,0,10,,,,,,,,,,,,,,,,15,,46,0
1259,note_on,,0,0,10,,,,,,,,,,,,,,,,15,,70,0
1259,note_on,,0,0,10,,,,,,,,,,,,,,,,15,,65,0
1259,note_on,,0,0,10,,,,,,,,,,,,,,,,15,,61,0
1260,note_on,,0,0,10,,,,,,,,,,,,,,,,15,,61,72
1260,note_on,,0,0,10,,,,,,,,,,,,,,,,15,,58,72
1260,note_on,,1,0,10,,,,,,,,,,,,,,,,15,,46,72
1260,note_on,,1,0,6,,,,,,,,,,,,,,,,10,,70,72
1260,note_on,,0,0,10,,,,,,,,,,,,,,,,15,,53,72
1260,note_on,,1,0,8,,,,,,,,,,,,,,,,12,,61,72
1260,note_on,,1,0,7,,,,,,,,,,,,,,,,11,,65,72
1260,note_on,,1,0,9,,,,,,,,,,,,,,,,13,,46,72
1304,note_on,,44,0,6,,,,,,,,,,,,,,,,10,,70,0
1305,note_on,,1,0,6,,,,,,,,,,,,,,,,10,,65,72
1319,note_on,,0,0,10,,,,,,,,,,,,,,,,15,,53,0
1319,note_on,,0,0,10,,,,,,,,,,,,,,,,15,,58,0
1319,note_on,,0,0,10,,,,,,,,,,,,,,,,15,,61,0
1319,note_on,,59,0,7,,,,,,,,,,,,,,,,11,,65,0
1319,note_on,,59,0,9,,,,,,,,,,,,,,,,13,,46,0
1319,note_on,,59,0,8,,,,,,,,,,,,,,,,12,,61,0
1319,note_on,,14,0,6,,,,,,,,,,,,,,,,10,,65,0
1319,note_on,,59,0,10,,,,,,,,,,,,,,,,15,,46,0
1320,note_on,,1,0,7,,,,,,,,,,,,,,,,11,,65,72
1320,note_on,,1,0,8,,,,,,,,,,,,,,,,12,,61,72
1320,note_on,,1,0,10,,,,,,,,,,,,,,,,15,,46,72
1320,note_on,,0,0,10,,,,,,,,,,,,,,,,15,,61,72
1320,note_on,,0,0,10,,,,,,,,,,,,,,,,15,,58,72
1320,note_on,,0,0,10,,,,,,,,,,,,,,,,15,,53,72
1320,note_on,,1,0,6,,,,,,,,,,,,,,,,10,,70,72
1320,note_on,,1,0,9,,,,,,,,,,,,,,,,13,,46,72
1364,note_on,,44,0,6,,,,,,,,,,,,,,,,10,,70,0
1365,note_on,,1,0,6,,,,,,,,,,,,,,,,10,,65,72
1379,note_on,,59,0,7,,,,,,,,,,,,,,,,11,,65,0
1379,note_on,,59,0,9,,,,,,,,,,,,,,,,13,,46,0
1379,note_on,,14,0,6,,,,,,,,,,,,,,,,10,,65,0
1379,note_on,,0,0,10,,,,,,,,,,,,,,,,15,,58,0
1379,note_on,,0,0,10,,,,,,,,,,,,,,,,15,,61,0
1379,note_on,,59,0,10,,,,,,,,,,,,,,,,15,,46,0
1379,note_on,,59,0,8,,,,,,,,,,,,,,,,12,,61,0
1379,note_on,,0,0,10,,,,,,,,,,,,,,,,15,,53,0
1380,note_on,,1,0,7,,,,,,,,,,,,,,,,11,,65,72
1380,note_on,,1,0,6,,,,,,,,,,,,,,,,10,,70,72
1380,note_on,,1,0,10,,,,,,,,,,,,,,,,15,,46,72
1380,note_on,,0,0,10,,,,,,,,,,,,,,,,15,,61,72
1380,note_on,,0,0,10,,,,,,,,,,,,,,,,15,,58,72
1380,note_on,,0,0,10,,,,,,,,,,,,,,,,15,,53,72
1380,note_on,,1,0,9,,,,,,,,,,,,,,,,13,,46,72
1380,note_on,,1,0,8,,,,,,,,,,,,,,,,12,,61,72
1424,note_on,,44,0,6,,,,,,,,,,,,,,,,10,,70,0
1425,note_on,,1,0,6,,,,,,,,,,,,,,,,10,,65,72
1439,note_on,,59,0,8,,,,,,,,,,,,,,,,12,,61,0
1439,note_on,,59,0,9,,,,,,,,,,,,,,,,13,,46,0
1439,note_on,,59,0,10,,,,,,,,,,,,,,,,15,,46,0
1439,note_on,,59,0,7,,,,,,,,,,,,,,,,11,,65,0
1439,note_on,,0,0,10,,,,,,,,,,,,,,,,15,,61,0
1439,note_on,,0,0,10,,,,,,,,,,,,,,,,15,,58,0
1439,note_on,,0,0,10,,,,,,,,,,,,,,,,15,,53,0
1439,note_on,,14,0,6,,,,,,,,,,,,,,,,10,,65,0
1440,note_on,,1,0,9,,,,,,,,,,,,,,,,13,,46,48
1440,note_on,,1,0,10,,,,,,,,,,,,,,,,15,,46,48
1440,note_on,,0,0,10,,,,,,,,,,,,,,,,15,,53,48
1440,note_on,,1,0,6,,,,,,,,,,,,,,,,10,,70,48
1440,note_on,,1,0,8,,,,,,,,,,,,,,,,12,,61,48
1440,note_on,,1,0,7,,,,,,,,,,,,,,,,11,,65,48
1455,note_on,,15,0,10,,,,,,,,,,,,,,,,15,,58,48
1470,note_on,,15,0,10,,,,,,,,,,,,,,,,15,,61,48
1484,note_on,,44,0,6,,,,,,,,,,,,,,,,10,,70,0
1485,note_on,,1,0,6,,,,,,,,,,,,,,,,10,,65,48
1485,note_on,,15,0,10,,,,,,,,,,,,,,,,15,,65,48
1499,note_on,,14,0,6,,,,,,,,,,,,,,,,10,,65,0
1500,note_on,,1,0,6,,,,,,,,,,,,,,,,10,,70,48
1544,note_on,,44,0,6,,,,,,,,,,,,,,,,10,,70,0
1545,note_on,,1,0,6,,,,,,,,,,,,,,,,10,,65,48
1559,note_on,,14,0,6,,,,,,,,,,,,,,,,10,,65,0
1559,note_on,,119,0,8,,,,,,,,,,,,,,,,12,,61,0
1559,note_on,,119,0,7,,,,,,,,,,,,,,,,11,,65,0
1560,note_on,,1,0,6,,,,,,,,,,,,,,,,10,,70,48
1604,note_on,,44,0,6,,,,,,,,,,,,,,,,10,,70,0
1605,note_on,,1,0,6,,,,,,,,,,,,,,,,10,,65,48
1619,note_on,,14,0,6,,,,,,,,,,,,,,,,10,,65,0
1620,note_on,,1620,0,5,,,,,,,,,,,,,,,,7,,53,72
1620,note_on,,1,0,6,,,,,,,,,,,,,,,,10,,70,48
1664,note_on,,44,0,6,,,,,,,,,,,,,,,,10,,70,0
1665,note_on,,1,0,6,,,,,,,,,,,,,,,,10,,65,48
1679,note_on,,14,0,6,,,,,,,,,,,,,,,,10,,65,0
1679,note_on,,59,0,5,,,,,,,,,,,,,,,,7,,53,0
1680,note_on,,1,0,5,,,,,,,,,,,,,,,,7,,61,72
1680,note_on,,1,0,6,,,,,,,,,,,,,,,,10,,70,48
1724,note_on,,44,0,6,,,,,,,,,,,,,,,,10,,70,0
1725,note_on,,1,0,6,,,,,,,,,,,,,,,,10,,65,48
1739,note_on,,14,0,6,,,,,,,,,,,,,,,,10,,65,0
1740,note_on,,1,0,6,,,,,,,,,,,,,,,,10,,70,48
1784,note_on,,44,0,6,,,,,,,,,,,,,,,,10,,70,0
1785,note_on,,1,0,6,,,,,,,,,,,,,,,,10,,65,48
1799,note_on,,14,0,6,,,,,,,,,,,,,,,,10,,65,0
1799,note_on,,119,0,5,,,,,,,,,,,,,,,,7,,61,0
1800,note_on,,1,0,6,,,,,,,,,,,,,,,,10,,70,48
1844,note_on,,44,0,6,,,,,,,,,,,,,,,,10,,70,0
1845,note_on,,1,0,6,,,,,,,,,,,,,,,,10,,65,48
1859,note_on,,14,0,6,,,,,,,,,,,,,,,,10,,65,0
1860,note_on,,1,0,6,,,,,,,,,,,,,,,,10,,70,48
1860,note_on,,61,0,5,,,,,,,,,,,,,,,,7,,61,72
1889,note_on,,29,0,5,,,,,,,,,,,,,,,,7,,61,0
1890,note_on,,1,0,5,,,,,,,,,,,,,,,,7,,60,72
1904,note_on,,44,0,6,,,,,,,,,,,,,,,,10,,70,0
1905,note_on,,1,0,6,,,,,,,,,,,,,,,,10,,65,48
1919,note_on,,479,0,9,,,,,,,,,,,,,,,,13,,46,0
1919,note_on,,0,0,10,,,,,,,,,,,,,,,,15,,65,0
1919,note_on,,14,0,6,,,,,,,,,,,,,,,,10,,65,0
1919,note_on,,0,0,10,,,,,,,,,,,,,,,,15,,53,0
1919,note_on,,0,0,10,,,,,,,,,,,,,,,,15,,58,0
1919,note_on,,0,0,10,,,,,,,,,,,,,,,,15,,61,0
1919,note_on,,29,0,5,,,,,,,,,,,,,,,,7,,60,0
1919,note_on,,434,0,10,,,,,,,,,,,,,,,,15,,46,0
1920,note_on,,1,0,9,,,,,,,,,,,,,,,,13,,48,48
1920,note_on,,1,0,10,,,,,,,,,,,,,,,,15,,48,48
1920,note_on,,0,0,10,,,,,,,,,,,,,,,,15,,72,48
1920,note_on,,0,0,10,,,,,,,,,,,,,,,,15,,69,48
1920,note_on,,0,0,10,,,,,,,,,,,,,,,,15,,63,48
1920,note_on,,0,0,10,,,,,,,,,,,,,,,,15,,57,48
1920,note_on,,1,0,5,,,,,,,,,,,,,,,,7,,57,72
1920,note_on,,1,0,6,,,,,,,,,,,,,,,,10,,75,48
1964,note_on,,44,0,6,,,,,,,,,,,,,,,,10,,75,0
1965,note_on,,1,0,6,,,,,,,,,,,,,,,,10,,69,48
1979,note_on,,59,0,5,,,,,,,,,,,,,,,,7,,57,0
1979,note_on,,14,0,6,,,,,,,,,,,,,,,,10,,69,0
1980,note_on,,1,0,6,,,,,,,,,,,,,,,,10,,75,48
1980,note_on,,1,0,5,,,,,,,,,,,,,,,,7,,57,72
2024,note_on,,44,0,6,,,,,,,,,,,,,,,,10,,75,0
2025,note_on,,1,0,6,,,,,,,,,,,,,,,,10,,69,48
2039,note_on,,14,0,6,,,,,,,,,,,,,,,,10,,69,0
2039,note_on,,59,0,5,,,,,,,,,,,,,,,,7,,57,0
2040,note_on,,1,0,6,,,,,,,,,,,,,,,,10,,75,48
2084,note_on,,44,0,6,,,,,,,,,,,,,,,,10,,75,0
2085,note_on,,1,0,6,,,,,,,,,,,,,,,,10,,69,48
2099,note_on,,14,0,6,,,,,,,,,,,,,,,,10,,69,0
2100,note_on,,1,0,6,,,,,,,,,,,,,,,,10,,75,48
2144,note_on,,44,0,6,,,,,,,,,,,,,,,,10,,75,0
2145,note_on,,1,0,6,,,,,,,,,,,,,,,,10,,69,48
2159,note_on,,14,0,6,,,,,,,,,,,,,,,,10,,69,0
2159,note_on,,0,0,10,,,,,,,,,,,,,,,,15,,57,0
2159,note_on,,239,0,10,,,,,,,,,,,,,,,,15,,48,0
2159,note_on,,0,0,10,,,,,,,,,,,,,,,,15,,69,0
2159,note_on,,0,0,10,,,,,,,,,,,,,,,,15,,72,0
2159,note_on,,239,0,9,,,,,,,,,,,,,,,,13,,48,0
2159,note_on,,0,0,10,,,,,,,,,,,,,,,,15,,63,0
2160,note_on,,1,0,6,,,,,,,,,,,,,,,,10,,81,48
2160,note_on,,601,0,7,,,,,,,,,,,,,,,,11,,72,48
2160,note_on,,1,0,9,,,,,,,,,,,,,,,,13,,41,48
2160,note_on,,0,0,10,,,,,,,,,,,,,,,,15,,72,48
2160,note_on,,0,0,10,,,,,,,,,,,,,,,,15,,69,48
2160,note_on,,0,0,10,,,,,,,,,,,,,,,,15,,41,48
2160,note_on,,1,0,10,,,,,,,,,,,,,,,,15,,53,48
2160,note_on,,601,0,8,,,,,,,,,,,,,,,,12,,65,48
2160,note_on,,0,0,10,,,,,,,,,,,,,,,,15,,75,48
2279,note_on,,119,0,10,,,,,,,,,,,,,,,,15,,53,0
2279,note_on,,119,0,7,,,,,,,,,,,,,,,,11,,72,0
2279,note_on,,119,0,6,,,,,,,,,,,,,,,,10,,81,0
2279,note_on,,0,0,10,,,,,,,,,,,,,,,,15,,41,0
2279,note_on,,0,0,10,,,,,,,,,,,,,,,,15,,75,0
2279,note_on,,0,0,10,,,,,,,,,,,,,,,,15,,72,0
2279,note_on,,0,0,10,,,,,,,,,,,,,,,,15,,69,0
2279,note_on,,119,0,8,,,,,,,,,,,,,,,,12,,65,0
2279,note_on,,119,0,9,,,,,,,,,,,,,,,,13,,41,0
2280,note_on,,241,0,5,,,,,,,,,,,,,,,,7,,63,76
2339,note_on,,59,0,5,,,,,,,,,,,,,,,,7,,63,0
2340,note_on,,1,0,5,,,,,,,,,,,,,,,,7,,63,72
2369,note_on,,29,0,5,,,,,,,,,,,,,,,,7,,63,0
2370,note_on,,1,0,5,,,,,,,,,,,,,,,,7,,61,72
2384,note_on,,14,0,5,,,,,,,,,,,,,,,,7,,61,0
2385,note_on,,1,0,5,,,,,,,,,,,,,,,,7,,60,72
2399,note_on,,14,0,5,,,,,,,,,,,,,,,,7,,60,0
2400,note_on,,0,0,10,,,,,,,,,,,,,,,,15,,73,72
2400,note_on,,121,0,7,,,,,,,,,,,,,,,,11,,77,72
2400,note_on,,121,0,6,,,,,,,,,,,,,,,,10,,82,72
2400,note_on,,121,0,10,,,,,,,,,,,,,,,,15,,53,72
2400,note_on,,0,0,10,,,,,,,,,,,,,,,,15,,46,72
2400,note_on,,0,0,10,,,,,,,,,,,,,,,,15,,70,72
2400,note_on,,0,0,10,,,,,,,,,,,,,,,,15,,65,72
2400,note_on,,121,0,9,,,,,,,,,,,,,,,,13,,46,72
2400,note_on,,121,0,8,,,,,,,,,,,,,,,,12,,61,72
2400,note_on,,1,0,5,,,,,,,,,,,,,,,,7,,58,72
2414,note_on,,14,0,7,,,,,,,,,,,,,,,,11,,77,0
2414,note_on,,14,0,6,,,,,,,,,,,,,,,,10,,82,0
2415,note_on,,1,0,6,,,,,,,,,,,,,,,,10,,82,72
2415,note_on,,1,0,7,,,,,,,,,,,,,,,,11,,77,72
2429,note_on,,29,0,9,,,,,,,,,,,,,,,,13,,46,0
2429,note_on,,29,0,8,,,,,,,,,,,,,,,,12,,61,0
2429,note_on,,14,0,6,,,,,,,,,,,,,,,,10,,82,0
2429,note_on,,29,0,10,,,,,,,,,,,,,,,,15,,46,0
2429,note_on,,14,0,7,,,,,,,,,,,,,,,,11,,77,0
2430,note_on,,1,0,8,,,,,,,,,,,,,,,,12,,65,72
2430,note_on,,1,0,10,,,,,,,,,,,,,,,,15,,46,72
2430,note_on,,1,0,7,,,,,,,,,,,,,,,,11,,73,72
2430,note_on,,1,0,9,,,,,,,,,,,,,,,,13,,46,72
2430,note_on,,1,0,6,,,,,,,,,,,,,,,,10,,77,72
2444,note_on,,14,0,6,,,,,,,,,,,,,,,,10,,77,0
2444,note_on,,14,0,7,,,,,,,,,,,,,,,,11,,73,0
2445,note_on,,1,0,7,,,,,,,,,,,,,,,,11,,73,72
2445,note_on,,1,0,6,,,,,,,,,,,,,,,,10,,77,72
2459,note_on,,14,0,7,,,,,,,,,,,,,,,,11,,73,0
2459,note_on,,29,0,8,,,,,,,,,,,,,,,,12,,65,0
2459,note_on,,29,0,9,,,,,,,,,,,,,,,,13,,46,0
2459,note_on,,29,0,10,,,,,,,,,,,,,,,,15,,46,0
2459,note_on,,14,0,6,,,,,,,,,,,,,,,,10,,77,0
2460,note_on,,1,0,10,,,,,,,,,,,,,,,,15,,46,72
2460,note_on,,1,0,6,,,,,,,,,,,,,,,,10,,73,72
2460,note_on,,1,0,9,,,,,,,,,,,,,,,,13,,46,72
2460,note_on,,1,0,8,,,,,,,,,,,,,,,,12,,65,72
2460,note_on,,1,0,7,,,,,,,,,,,,,,,,11,,70,72
2474,note_on,,14,0,6,,,,,,,,,,,,,,,,10,,73,0
2474,note_on,,14,0,7,,,,,,,,,,,,,,,,11,,70,0
2475,note_on,,1,0,7,,,,,,,,,,,,,,,,11,,70,72
2475,note_on,,1,0,6,,,,,,,,,,,,,,,,10,,73,72
2489,note_on,,29,0,9,,,,,,,,,,,,,,,,13,,46,0
2489,note_on,,29,0,8,,,,,,,,,,,,,,,,12,,65,0
2489,note_on,,14,0,6,,,,,,,,,,,,,,,,10,,73,0
2489,note_on,,29,0,10,,,,,,,,,,,,,,,,15,,46,0
2489,note_on,,14,0,7,,,,,,,,,,,,,,,,11,,70,0
2490,note_on,,1,0,8,,,,,,,,,,,,,,,,12,,70,72
2490,note_on,,1,0,6,,,,,,,,,,,,,,,,10,,77,72
2490,note_on,,1,0,10,,,,,,,,,,,,,,,,15,,46,72
2490,note_on,,1,0,9,,,,,,,,,,,,,,,,13,,46,72
2490,note_on,,1,0,7,,,,,,,,,,,,,,,,11,,73,72
2504,note_on,,14,0,6,,,,,,,,,,,,,,,,10,,77,0
2504,note_on,,14,0,7,,,,,,,,,,,,,,,,11,,73,0
2505,note_on,,1,0,6,,,,,,,,,,,,,,,,10,,77,72
2505,note_on,,1,0,7,,,,,,,,,,,,,,,,11,,73,72
2519,note_on,,0,0,10,,,,,,,,,,,,,,,,15,,46,0
2519,note_on,,14,0,7,,,,,,,,,,,,,,,,11,,73,0
2519,note_on,,29,0,8,,,,,,,,,,,,,,,,12,,70,0
2519,note_on,,29,0,9,,,,,,,,,,,,,,,,13,,46,0
2519,note_on,,0,0,10,,,,,,,,,,,,,,,,15,,65,0
2519,note_on,,119,0,5,,,,,,,,,,,,,,,,7,,58,0
2519,note_on,,0,0,10,,,,,,,,,,,,,,,,15,,73,0
2519,note_on,,29,0,10,,,,,,,,,,,,,,,,15,,53,0
2519,note_on,,14,0,6,,,,,,,,,,,,,,,,10,,77,0
2519,note_on,,0,0,10,,,,,,,,,,,,,,,,15,,70,0
2520,note_on,,1,0,6,,,,,,,,,,,,,,,,10,,70,72
2520,note_on,,1,0,8,,,,,,,,,,,,,,,,12,,61,72
2520,note_on,,1,0,9,,,,,,,,,,,,,,,,13,,58,72
2520,note_on,,0,0,10,,,,,,,,,,,,,,,,15,,70,72
2520,note_on,,0,0,10,,,,,,,,,,,,,,,,15,,61,72
2520,note_on,,1,0,7,,,,,,,,,,,,,,,,11,,65,72
2520,note_on,,1,0,10,,,,,,,,,,,,,,,,15,,58,72
2520,note_on,,0,0,10,,,,,,,,,,,,,,,,15,,65,72
2534,note_on,,14,0,7,,,,,,,,,,,,,,,,11,,65,0
2534,note_on,,14,0,6,,,,,,,,,,,,,,,,10,,70,0
2535,note_on,,1,0,7,,,,,,,,,,,,,,,,11,,65,72
2535,note_on,,1,0,6,,,,,,,,,,,,,,,,10,,70,72
2549,note_on,,29,0,8,,,,,,,,,,,,,,,,12,,61,0
2549,note_on,,29,0,10,,,,,,,,,,,,,,,,15,,58,0
2549,note_on,,14,0,6,,,,,,,,,,,,,,,,10,,70,0
2549,note_on,,14,0,7,,,,,,,,,,,,,,,,11,,65,0
2549,note_on,,29,0,9,,,,,,,,,,,,,,,,13,,58,0
2550,note_on,,1,0,8,,,,,,,,,,,,,,,,12,,65,72
2550,note_on,,1,0,6,,,,,,,,,,,,,,,,10,,74,72
2550,note_on,,1,0,7,,,,,,,,,,,,,,,,11,,70,72
2550,note_on,,1,0,9,,,,,,,,,,,,,,,,13,,58,72
2550,note_on,,1,0,10,,,,,,,,,,,,,,,,15,,58,72
2564,note_on,,14,0,6,,,,,,,,,,,,,,,,10,,74,0
2564,note_on,,14,0,7,,,,,,,,,,,,,,,,11,,70,0
2565,note_on,,1,0,6,,,,,,,,,,,,,,,,10,,74,72
2565,note_on,,1,0,7,,,,,,,,,,,,,,,,11,,70,72
2579,note_on,,14,0,6,,,,,,,,,,,,,,,,10,,74,0
2579,note_on,,29,0,9,,,,,,,,,,,,,,,,13,,58,0
2579,note_on,,14,0,7,,,,,,,,,,,,,,,,11,,70,0
2579,note_on,,29,0,8,,,,,,,,,,,,,,,,12,,65,0
2579,note_on,,29,0,10,,,,,,,,,,,,,,,,15,,58,0
2580,note_on,,1,0,10,,,,,,,,,,,,,,,,15,,58,72
2580,note_on,,1,0,7,,,,,,,,,,,,,,,,11,,65,72
2580,note_on,,1,0,6,,,,,,,,,,,,,,,,10,,65,72
2580,note_on,,1,0,8,,,,,,,,,,,,,,,,12,,58,72
2580,note_on,,1,0,9,,,,,,,,,,,,,,,,13,,58,72
2594,note_on,,14,0,6,,,,,,,,,,,,,,,,10,,65,0
2594,note_on,,14,0,7,,,,,,,,,,,,,,,,11,,65,0
2595,note_on,,1,0,7,,,,,,,,,,,,,,,,11,,65,72
2595,note_on,,1,0,6,,,,,,,,,,,,,,,,10,,65,72
2609,note_on,,29,0,10,,,,,,,,,,,,,,,,15,,58,0
2609,note_on,,29,0,9,,,,,,,,,,,,,,,,13,,58,0
2609,note_on,,29,0,8,,,,,,,,,,,,,,,,12,,58,0
2609,note_on,,14,0,7,,,,,,,,,,,,,,,,11,,65,0
2609,note_on,,14,0,6,,,,,,,,,,,,,,,,10,,65,0
2610,note_on,,1,0,10,,,,,,,,,,,,,,,,15,,58,72
2610,note_on,,1,0,7,,,,,,,,,,,,,,,,11,,63,72
2610,note_on,,1,0,8,,,,,,,,,,,,,,,,12,,60,72
2610,note_on,,1,0,6,,,,,,,,,,,,,,,,10,,70,72
2610,note_on,,1,0,9,,,,,,,,,,,,,,,,13,,58,72
2624,note_on,,14,0,7,,,,,,,,,,,,,,,,11,,63,0
2624,note_on,,14,0,6,,,,,,,,,,,,,,,,10,,70,0
2625,note_on,,1,0,7,,,,,,,,,,,,,,,,11,,63,72
2625,note_on,,1,0,6,,,,,,,,,,,,,,,,10,,70,72
2639,note_on,,29,0,10,,,,,,,,,,,,,,,,15,,70,0
2639,note_on,,14,0,7,,,,,,,,,,,,,,,,11,,63,0
2639,note_on,,29,0,9,,,,,,,,,,,,,,,,13,,58,0
2639,note_on,,0,0,10,,,,,,,,,,,,,,,,15,,61,0
2639,note_on,,0,0,10,,,,,,,,,,,,,,,,15,,58,0
2639,note_on,,29,0,8,,,,,,,,,,,,,,,,12,,60,0
2639,note_on,,0,0,10,,,,,,,,,,,,,,,,15,,65,0
2639,note_on,,14,0,6,,,,,,,,,,,,,,,,10,,70,0
2640,note_on,,0,0,10,,,,,,,,,,,,,,,,15,,58,72
2640,note_on,,1,0,8,,,,,,,,,,,,,,,,12,,62,72
2640,note_on,,0,0,10,,,,,,,,,,,,,,,,15,,65,72
2640,note_on,,1,0,7,,,,,,,,,,,,,,,,11,,62,72
2640,note_on,,1,0,10,,,,,,,,,,,,,,,,15,,56,72
2640,note_on,,1,0,9,,,,,,,,,,,,,,,,13,,56,72
2640,note_on,,1,0,6,,,,,,,,,,,,,,,,10,,77,72
2640,note_on,,0,0,10,,,,,,,,,,,,,,,,15,,74,72
2640,note_on,,0,0,10,,,,,,,,,,,,,,,,15,,70,72
2684,note_on,,44,0,6,,,,,,,,,,,,,,,,10,,77,0
2685,note_on,,1,0,6,,,,,,,,,,,,,,,,10,,70,72
2699,note_on,,59,0,8,,,,,,,,,,,,,,,,12,,62,0
2699,note_on,,59,0,9,,,,,,,,,,,,,,,,13,,56,0
2699,note_on,,59,0,10,,,,,,,,,,,,,,,,15,,56,0
2699,note_on,,14,0,6,,,,,,,,,,,,,,,,10,,70,0
2699,note_on,,59,0,7,,,,,,,,,,,,,,,,11,,62,0
2700,note_on,,1,0,7,,,,,,,,,,,,,,,,11,,62,72
2700,note_on,,1,0,8,,,,,,,,,,,,,,,,12,,62,72
2700,note_on,,1,0,9,,,,,,,,,,,,,,,,13,,56,72
2700,note_on,,1,0,10,,,,,,,,,,,,,,,,15,,56,72
2700,note_on,,1,0,6,,,,,,,,,,,,,,,,10,,77,72
2744,note_on,,44,0,6,,,,,,,,,,,,,,,,10,,77,0
2745,note_on,,1,0,6,,,,,,,,,,,,,,,,10,,70,72
2759,note_on,,59,0,7,,,,,,,,,,,,,,,,11,,62,0
2759,note_on,,59,0,8,,,,,,,,,,,,,,,,12,,62,0
2759,note_on,,59,0,10,,,,,,,,,,,,,,,,15,,56,0
2759,note_on,,14,0,6,,,,,,,,,,,,,,,,10,,70,0
2759,note_on,,59,0,9,,,,,,,,,,,,,,,,13,,56,0
2760,note_on,,1,0,6,,,,,,,,,,,,,,,,10,,77,72
2760,note_on,,1,0,7,,,,,,,,,,,,,,,,11,,62,72
2760,note_on,,1,0,9,,,,,,,,,,,,,,,,13,,56,72
2760,note_on,,1,0,8,,,,,,,,,,,,,,,,12,,62,72
2760,note_on,,1,0,10,,,,,,,,,,,,,,,,15,,56,72
2804,note_on,,44,0,6,,,,,,,,,,,,,,,,10,,77,0
2805,note_on,,1,0,6,,,,,,,,,,,,,,,,10,,70,72
2819,note_on,,59,0,8,,,,,,,,,,,,,,,,12,,62,0
2819,note_on,,59,0,7,,,,,,,,,,,,,,,,11,,62,0
2819,note_on,,59,0,9,,,,,,,,,,,,,,,,13,,56,0
2819,note_on,,14,0,6,,,,,,,,,,,,,,,,10,,70,0
2819,note_on,,59,0,10,,,,,,,,,,,,,,,,15,,56,0
2820,note_on,,301,0,5,,,,,,,,,,,,,,,,7,,62,72
2820,note_on,,1,0,8,,,,,,,,,,,,,,,,12,,62,72
2820,note_on,,1,0,9,,,,,,,,,,,,,,,,13,,56,72
2820,note_on,,1,0,6,,,,,,,,,,,,,,,,10,,77,72
2820,note_on,,1,0,10,,,,,,,,,,,,,,,,15,,56,72
2820,note_on,,1,0,7,,,,,,,,,,,,,,,,11,,62,72
2864,note_on,,44,0,6,,,,,,,,,,,,,,,,10,,77,0
2865,note_on,,1,0,6,,,,,,,,,,,,,,,,10,,70,72
2879,note_on,,14,0,6,,,,,,,,,,,,,,,,10,,70,0
2879,note_on,,0,0,10,,,,,,,,,,,,,,,,15,,56,0
2879,note_on,,0,0,10,,,,,,,,,,,,,,,,15,,65,0
2879,note_on,,0,0,10,,,,,,,,,,,,,,,,15,,70,0
2879,note_on,,59,0,10,,,,,,,,,,,,,,,,15,,74,0
2879,note_on,,59,0,5,,,,,,,,,,,,,,,,7,,62,0
2879,note_on,,59,0,8,,,,,,,,,,,,,,,,12,,62,0
2879,note_on,,59,0,9,,,,,,,,,,,,,,,,13,,56,0
2879,note_on,,59,0,7,,,,,,,,,,,,,,,,11,,62,0
2879,note_on,,0,0,10,,,,,,,,,,,,,,,,15,,58,0
2880,note_on,,0,0,10,,,,,,,,,,,,,,,,15,,58,72
2880,note_on,,1,0,9,,,,,,,,,,,,,,,,13,,56,72
2880,note_on,,1,0,6,,,,,,,,,,,,,,,,10,,82,72
2880,note_on,,0,0,10,,,,,,,,,,,,,,,,15,,65,72
2880,note_on,,0,0,10,,,,,,,,,,,,,,,,15,,70,72
2880,note_on,,0,0,10,,,,,,,,,,,,,,,,15,,77,72
2880,note_on,,0,0,10,,,,,,,,,,,,,,,,15,,56,72
2880,note_on,,1,0,10,,,,,,,,,,,,,,,,15,,74,72
2880,note_on,,1,0,5,,,,,,,,,,,,,,,,7,,65,72
2880,note_on,,1,0,7,,,,,,,,,,,,,,,,11,,62,72
2880,note_on,,1,0,8,,,,,,,,,,,,,,,,12,,62,72
2999,note_on,,119,0,5,,,,,,,,,,,,,,,,7,,65,0
2999,note_on,,119,0,9,,,,,,,,,,,,,,,,13,,56,0
2999,note_on,,0,0,10,,,,,,,,,,,,,,,,15,,65,0
2999,note_on,,119,0,8,,,,,,,,,,,,,,,,12,,62,0
2999,note_on,,0,0,10,,,,,,,,,,,,,,,,15,,70,0
2999,note_on,,0,0,10,,,,,,,,,,,,,,,,15,,77,0
2999,note_on,,119,0,10,,,,,,,,,,,,,,,,15,,74,0
2999,note_on,,119,0,6,,,,,,,,,,,,,,,,10,,82,0
2999,note_on,,119,0,7,,,,,,,,,,,,,,,,11,,62,0
2999,note_on,,0,0,10,,,,,,,,,,,,,,,,15,,58,0
2999,note_on,,0,0,10,,,,,,,,,,,,,,,,15,,56,0
3000,note_on,,1,0,5,,,,,,,,,,,,,,,,7,,62,72
3059,note_on,,59,0,5,,,,,,,,,,,,,,,,7,,62,0
3060,note_on,,1,0,5,,,,,,,,,,,,,,,,7,,58,72
3119,note_on,,59,0,5,,,,,,,,,,,,,,,,7,,58,0
3120,note_on,,0,0,10,,,,,,,,,,,,,,,,15,,67,72
3120,note_on,,121,0,6,,,,,,,,,,,,,,,,10,,82,72
3120,note_on,,1,0,5,,,,,,,,,,,,,,,,7,,63,72
3120,note_on,,0,0,10,,,,,,,,,,,,,,,,15,,58,72
3120,note_on,,121,0,7,,,,,,,,,,,,,,,,11,,79,72
3120,note_on,,121,0,8,,,,,,,,,,,,,,,,12,,63,72
3120,note_on,,121,0,10,,,,,,,,,,,,,,,,15,,55,72
3120,note_on,,0,0,10,,,,,,,,,,,,,,,,15,,75,72
3120,note_on,,0,0,10,,,,,,,,,,,,,,,,15,,70,72
3120,note_on,,121,0,9,,,,,,,,,,,,,,,,13,,55,72
3134,note_on,,14,0,7,,,,,,,,,,,,,,,,11,,79,0
3134,note_on,,14,0,6,,,,,,,,,,,,,,,,10,,82,0
3135,note_on,,1,0,6,,,,,,,,,,,,,,,,10,,82,72
3135,note_on,,1,0,7,,,,,,,,,,,,,,,,11,,79,72
3149,note_on,,29,0,10,,,,,,,,,,,,,,,,15,,55,0
3149,note_on,,14,0,7,,,,,,,,,,,,,,,,11,,79,0
3149,note_on,,29,0,9,,,,,,,,,,,,,,,,13,,55,0
3149,note_on,,29,0,8,,,,,,,,,,,,,,,,12,,63,0
3149,note_on,,14,0,6,,,,,,,,,,,,,,,,10,,82,0
3150,note_on,,1,0,6,,,,,,,,,,,,,,,,10,,79,72
3150,note_on,,1,0,9,,,,,,,,,,,,,,,,13,,55,72
3150,note_on,,1,0,8,,,,,,,,,,,,,,,,12,,70,72
3150,note_on,,1,0,10,,,,,,,,,,,,,,,,15,,55,72
3150,note_on,,1,0,7,,,,,,,,,,,,,,,,11,,75,72
3164,note_on,,14,0,6,,,,,,,,,,,,,,,,10,,79,0
3164,note_on,,14,0,7,,,,,,,,,,,,,,,,11,,75,0
3165,note_on,,1,0,6,,,,,,,,,,,,,,,,10,,79,72
3165,note_on,,1,0,7,,,,,,,,,,,,,,,,11,,75,72
3179,note_on,,14,0,6,,,,,,,,,,,,,,,,10,,79,0
3179,note_on,,14,0,7,,,,,,,,,,,,,,,,11,,75,0
3179,note_on,,29,0,8,,,,,,,,,,,,,,,,12,,70,0
3179,note_on,,29,0,9,,,,,,,,,,,,,,,,13,,55,0
3179,note_on,,29,0,10,,,,,,,,,,,,,,,,15,,55,0
3180,note_on,,1,0,9,,,,,,,,,,,,,,,,13,,55,72
3180,note_on,,1,0,10,,,,,,,,,,,,,,,,15,,55,72
3180,note_on,,1,0,7,,,,,,,,,,,,,,,,11,,70,72
3180,note_on,,1,0,6,,,,,,,,,,,,,,,,10,,75,72
3180,note_on,,1,0,8,,,,,,,,,,,,,,,,12,,67,72
3194,note_on,,14,0,6,,,,,,,,,,,,,,,,10,,75,0
3194,note_on,,14,0,7,,,,,,,,,,,,,,,,11,,70,0
3195,note_on,,1,0,7,,,,,,,,,,,,,,,,11,,70,72
3195,note_on,,1,0,6,,,,,,,,,,,,,,,,10,,75,72
3209,note_on,,14,0,7,,,,,,,,,,,,,,,,11,,70,0
3209,note_on,,29,0,8,,,,,,,,,,,,,,,,12,,67,0
3209,note_on,,29,0,9,,,,,,,,,,,,,,,,13,,55,0
3209,note_on,,14,0,6,,,,,,,,,,,,,,,,10,,75,0
3209,note_on,,29,0,10,,,,,,,,,,,,,,,,15,,55,0
3210,note_on,,1,0,7,,,,,,,,,,,,,,,,11,,75,72
3210,note_on,,1,0,8,,,,,,,,,,,,,,,,12,,70,72
3210,note_on,,1,0,10,,,,,,,,,,,,,,,,15,,55,72
3210,note_on,,1,0,9,,,,,,,,,,,,,,,,13,,55,72
3210,note_on,,1,0,6,,,,,,,,,,,,,,,,10,,79,72
3224,note_on,,14,0,6,,,,,,,,,,,,,,,,10,,79,0
3224,note_on,,14,0,7,,,,,,,,,,,,,,,,11,,75,0
3225,note_on,,1,0,6,,,,,,,,,,,,,,,,10,,79,72
3225,note_on,,1,0,7,,,,,,,,,,,,,,,,11,,75,72
3239,note_on,,0,0,10,,,,,,,,,,,,,,,,15,,67,0
3239,note_on,,119,0,5,,,,,,,,,,,,,,,,7,,63,0
3239,note_on,,0,0,10,,,,,,,,,,,,,,,,15,,70,0
3239,note_on,,14,0,6,,,,,,,,,,,,,,,,10,,79,0
3239,note_on,,29,0,10,,,,,,,,,,,,,,,,15,,75,0
3239,note_on,,0,0,10,,,,,,,,,,,,,,,,15,,55,0
3239,note_on,,29,0,9,,,,,,,,,,,,,,,,13,,55,0
3239,note_on,,29,0,8,,,,,,,,,,,,,,,,12,,70,0
3239,note_on,,14,0,7,,,,,,,,,,,,,,,,11,,75,0
3239,note_on,,0,0,10,,,,,,,,,,,,,,,,15,,58,0
3240,note_on,,1,0,10,,,,,,,,,,,,,,,,15,,55,72
3240,note_on,,0,0,10,,,,,,,,,,,,,,,,15,,67,72
3240,note_on,,0,0,10,,,,,,,,,,,,,,,,15,,70,72
3240,note_on,,1,0,9,,,,,,,,,,,,,,,,13,,55,72
3240,note_on,,0,0,10,,,,,,,,,,,,,,,,15,,63,72
3240,note_on,,1,0,7,,,,,,,,,,,,,,,,11,,67,72
3240,note_on,,1,0,6,,,,,,,,,,,,,,,,10,,70,72
3240,note_on,,1,0,8,,,,,,,,,,,,,,,,12,,63,72
3240,note_on,,0,0,10,,,,,,,,,,,,,,,,15,,58,72
3254,note_on,,14,0,7,,,,,,,,,,,,,,,,11,,67,0
3254,note_on,,14,0,6,,,,,,,,,,,,,,,,10,,70,0
3255,note_on,,1,0,6,,,,,,,,,,,,,,,,10,,70,72
3255,note_on,,1,0,7,,,,,,,,,,,,,,,,11,,67,72
3269,note_on,,29,0,10,,,,,,,,,,,,,,,,15,,55,0
3269,note_on,,14,0,6,,,,,,,,,,,,,,,,10,,70,0
3269,note_on,,29,0,9,,,,,,,,,,,,,,,,13,,55,0
3269,note_on,,14,0,7,,,,,,,,,,,,,,,,11,,67,0
3269,note_on,,29,0,8,,,,,,,,,,,,,,,,12,,63,0
3270,note_on,,1,0,10,,,,,,,,,,,,,,,,15,,55,72
3270,note_on,,1,0,6,,,,,,,,,,,,,,,,10,,75,72
3270,note_on,,1,0,7,,,,,,,,,,,,,,,,11,,70,72
3270,note_on,,1,0,8,,,,,,,,,,,,,,,,12,,67,72
3270,note_on,,1,0,9,,,,,,,,,,,,,,,,13,,55,72
3284,note_on,,14,0,6,,,,,,,,,,,,,,,,10,,75,0
3284,note_on,,14,0,7,,,,,,,,,,,,,,,,11,,70,0
3285,note_on,,1,0,7,,,,,,,,,,,,,,,,11,,70,72
3285,note_on,,1,0,6,,,,,,,,,,,,,,,,10,,75,72
3299,note_on,,14,0,6,,,,,,,,,,,,,,,,10,,75,0
3299,note_on,,14,0,7,,,,,,,,,,,,,,,,11,,70,0
3299,note_on,,29,0,10,,,,,,,,,,,,,,,,15,,55,0
3299,note_on,,29,0,8,,,,,,,,,,,,,,,,12,,67,0
3299,note_on,,29,0,9,,,,,,,,,,,,,,,,13,,55,0
3300,note_on,,1,0,8,,,,,,,,,,,,,,,,12,,58,72
3300,note_on,,1,0,10,,,,,,,,,,,,,,,,15,,55,72
3300,note_on,,1,0,9,,,,,,,,,,,,,,,,13,,55,72
3300,note_on,,1,0,6,,,,,,,,,,,,,,,,10,,67,72
3300,note_on,,1,0,7,,,,,,,,,,,,,,,,11,,63,72
3314,note_on,,14,0,7,,,,,,,,,,,,,,,,11,,63,0
3314,note_on,,14,0,6,,,,,,,,,,,,,,,,10,,67,0
3315,note_on,,1,0,7,,,,,,,,,,,,,,,,11,,63,72
3315,note_on,,1,0,6,,,,,,,,,,,,,,,,10,,67,72
3329,note_on,,29,0,9,,,,,,,,,,,,,,,,13,,55,0
3329,note_on,,29,0,8,,,,,,,,,,,,,,,,12,,58,0
3329,note_on,,14,0,7,,,,,,,,,,,,,,,,11,,63,0
3329,note_on,,14,0,6,,,,,,,,,,,,,,,,10,,67,0
3329,note_on,,29,0,10,,,,,,,,,,,,,,,,15,,55,0
3330,note_on,,1,0,9,,,,,,,,,,,,,,,,13,,55,72
3330,note_on,,1,0,8,,,,,,,,,,,,,,,,12,,63,72
3330,note_on,,1,0,7,,,,,,,,,,,,,,,,11,,67,72
3330,note_on,,1,0,6,,,,,,,,,,,,,,,,10,,70,72
3330,note_on,,1,0,10,,,,,,,,,,,,,,,,15,,55,72
3344,note_on,,14,0,6,,,,,,,,,,,,,,,,10,,70,0
3344,note_on,,14,0,7,,,,,,,,,,,,,,,,11,,67,0
3345,note_on,,1,0,6,,,,,,,,,,,,,,,,10,,70,72
3345,note_on,,1,0,7,,,,,,,,,,,,,,,,11,,67,72
3359,note_on,,14,0,7,,,,,,,,,,,,,,,,11,,67,0
3359,note_on,,0,0,10,,,,,,,,,,,,,,,,15,,55,0
3359,note_on,,0,0,10,,,,,,,,,,,,,,,,15,,58,0
3359,note_on,,29,0,8,,,,,,,,,,,,,,,,12,,63,0
3359,note_on,,0,0,10,,,,,,,,,,,,,,,,15,,67,0
3359,note_on,,29,0,10,,,,,,,,,,,,,,,,15,,70,0
3359,note_on,,14,0,6,,,,,,,,,,,,,,,,10,,70,0
3359,note_on,,29,0,9,,,,,,,,,,,,,,,,13,,55,0
3359,note_on,,0,0,10,,,,,,,,,,,,,,,,15,,63,0
3360,note_on,,1,0,6,,,,,,,,,,,,,,,,10,,63,72
3360,note_on,,1,0,8,,,,,,,,,,,,,,,,12,,58,72
3360,note_on,,0,0,10,,,,,,,,,,,,,,,,15,,63,72
3360,note_on,,1,0,7,,,,,,,,,,,,,,,,11,,58,72
3360,note_on,,1,0,10,,,,,,,,,,,,,,,,15,,55,72
3360,note_on,,1,0,9,,,,,,,,,,,,,,,,13,,55,72
3360,note_on,,0,0,10,,,,,,,,,,,,,,,,15,,58,72
3389,note_on,,0,0,10,,,,,,,,,,,,,,,,15,,58,0
3389,note_on,,0,0,10,,,,,,,,,,,,,,,,15,,63,0
3389,note_on,,29,0,6,,,,,,,,,,,,,,,,10,,63,0
3389,note_on,,29,0,9,,,,,,,,,,,,,,,,13,,55,0
3389,note_on,,29,0,7,,,,,,,,,,,,,,,,11,,58,0
3389,note_on,,29,0,8,,,,,,,,,,,,,,,,12,,58,0
3389,note_on,,29,0,10,,,,,,,,,,,,,,,,15,,55,0
3390,note_on,,1,0,9,,,,,,,,,,,,,,,,13,,56,72
3390,note_on,,0,0,10,,,,,,,,,,,,,,,,15,,65,72
3390,note_on,,0,0,10,,,,,,,,,,,,,,,,15,,60,72
3390,note_on,,1,0,10,,,,,,,,,,,,,,,,15,,56,72
3390,note_on,,1,0,8,,,,,,,,,,,,,,,,12,,60,72
3390,note_on,,1,0,7,,,,,,,,,,,,,,,,11,,60,72
3390,note_on,,1,0,6,,,,,,,,,,,,,,,,10,,65,72
3419,note_on,,29,0,6,,,,,,,,,,,,,,,,10,,65,0
3419,note_on,,29,0,8,,,,,,,,,,,,,,,,12,,60,0
3419,note_on,,29,0,9,,,,,,,,,,,,,,,,13,,56,0
3419,note_on,,29,0,10,,,,,,,,,,,,,,,,15,,56,0
3419,note_on,,0,0,10,,,,,,,,,,,,,,,,15,,60,0
3419,note_on,,0,0,10,,,,,,,,,,,,,,,,15,,65,0
3419,note_on,,29,0,7,,,,,,,,,,,,,,,,11,,60,0
3420,note_on,,1,0,9,,,,,,,,,,,,,,,,13,,55,72
3420,note_on,,0,0,10,,,,,,,,,,,,,,,,15,,58,72
3420,note_on,,1,0,6,,,,,,,,,,,,,,,,10,,63,72
3420,note_on,,0,0,10,,,,,,,,,,,,,,,,15,,63,72
3420,note_on,,1,0,8,,,,,,,,,,,,,,,,12,,58,72
3420,note_on,,1,0,7,,,,,,,,,,,,,,,,11,,58,72
3420,note_on,,1,0,10,,,,,,,,,,,,,,,,15,,55,72
3449,note_on,,29,0,10,,,,,,,,,,,,,,,,15,,55,0
3449,note_on,,0,0,10,,,,,,,,,,,,,,,,15,,63,0
3449,note_on,,0,0,10,,,,,,,,,,,,,,,,15,,58,0
3449,note_on,,29,0,6,,,,,,,,,,,,,,,,10,,63,0
3449,note_on,,29,0,7,,,,,,,,,,,,,,,,11,,58,0
3449,note_on,,29,0,8,,,,,,,,,,,,,,,,12,,58,0
3449,note_on,,29,0,9,,,,,,,,,,,,,,,,13,,55,0
3450,note_on,,1,0,6,,,,,,,,,,,,,,,,10,,65,72
3450,note_on,,1,0,7,,,,,,,,,,,,,,,,11,,60,72
3450,note_on,,1,0,8,,,,,,,,,,,,,,,,12,,60,72
3450,note_on,,1,0,9,,,,,,,,,,,,,,,,13,,56,72
3450,note_on,,0,0,10,,,,,,,,,,,,,,,,15,,60,72
3450,note_on,,0,0,10,,,,,,,,,,,,,,,,15,,65,72
3450,note_on,,1,0,10,,,,,,,,,,,,,,,,15,,56,72
3479,note_on,,29,0,6,,,,,,,,,,,,,,,,10,,65,0
3479,note_on,,29,0,7,,,,,,,,,,,,,,,,11,,60,0
3479,note_on,,29,0,8,,,,,,,,,,,,,,,,12,,60,0
3479,note_on,,0,0,10,,,,,,,,,,,,,,,,15,,60,0
3479,note_on,,0,0,10,,,,,,,,,,,,,,,,15,,65,0
3479,note_on,,29,0,10,,,,,,,,,,,,,,,,15,,56,0
3479,note_on,,29,0,9,,,,,,,,,,,,,,,,13,,56,0
3480,note_on,,1,0,8,,,,,,,,,,,,,,,,12,,58,72
3480,note_on,,1,0,6,,,,,,,,,,,,,,,,10,,63,72
3480,note_on,,1,0,7,,,,,,,,,,,,,,,,11,,58,72
3480,note_on,,1,0,10,,,,,,,,,,,,,,,,15,,55,72
3480,note_on,,1,0,9,,,,,,,,,,,,,,,,13,,55,72
3480,note_on,,0,0,10,,,,,,,,,,,,,,,,15,,58,72
3480,note_on,,0,0,10,,,,,,,,,,,,,,,,15,,63,72
3509,note_on,,29,0,6,,,,,,,,,,,,,,,,10,,63,0
3509,note_on,,29,0,7,,,,,,,,,,,,,,,,11,,58,0
3509,note_on,,29,0,9,,,,,,,,,,,,,,,,13,,55,0
3509,note_on,,0,0,10,,,,,,,,,,,,,,,,15,,58,0
3509,note_on,,0,0,10,,,,,,,,,,,,,,,,15,,63,0
3509,note_on,,29,0,8,,,,,,,,,,,,,,,,12,,58,0
3509,note_on,,29,0,10,,,,,,,,,,,,,,,,15,,55,0
3510,note_on,,1,0,6,,,,,,,,,,,,,,,,10,,65,72
3510,note_on,,0,0,10,,,,,,,,,,,,,,,,15,,60,72
3510,note_on,,0,0,10,,,,,,,,,,,,,,,,15,,65,72
3510,note_on,,1,0,10,,,,,,,,,,,,,,,,15,,56,72
3510,note_on,,1,0,7,,,,,,,,,,,,,,,,11,,60,72
3510,note_on,,1,0,8,,,,,,,,,,,,,,,,12,,60,72
3510,note_on,,1,0,9,,,,,,,,,,,,,,,,13,,56,72
3539,note_on,,29,0,7,,,,,,,,,,,,,,,,11,,60,0
3539,note_on,,29,0,6,,,,,,,,,,,,,,,,10,,65,0
3539,note_on,,0,0,10,,,,,,,,,,,,,,,,15,,60,0
3539,note_on,,29,0,8,,,,,,,,,,,,,,,,12,,60,0
3539,note_on,,29,0,9,,,,,,,,,,,,,,,,13,,56,0
3539,note_on,,0,0,10,,,,,,,,,,,,,,,,15,,65,0
3539,note_on,,29,0,10,,,,,,,,,,,,,,,,15,,56,0
3540,note_on,,1,0,7,,,,,,,,,,,,,,,,11,,58,72
3540,note_on,,1,0,6,,,,,,,,,,,,,,,,10,,63,72
3540,note_on,,1,0,10,,,,,,,,,,,,,,,,15,,55,72
3540,note_on,,0,0,10,,,,,,,,,,,,,,,,15,,63,72
3540,note_on,,1,0,8,,,,,,,,,,,,,,,,12,,58,72
3540,note_on,,0,0,10,,,,,,,,,,,,,,,,15,,58,72
3540,note_on,,1,0,9,,,,,,,,,,,,,,,,13,,55,72
3569,note_on,,29,0,7,,,,,,,,,,,,,,,,11,,58,0
3569,note_on,,29,0,6,,,,,,,,,,,,,,,,10,,63,0
3569,note_on,,0,0,10,,,,,,,,,,,,,,,,15,,58,0
3569,note_on,,29,0,9,,,,,,,,,,,,,,,,13,,55,0
3569,note_on,,0,0,10,,,,,,,,,,,,,,,,15,,63,0
3569,note_on,,29,0,10,,,,,,,,,,,,,,,,15,,55,0
3569,note_on,,29,0,8,,,,,,,,,,,,,,,,12,,58,0
3570,note_on,,1,0,7,,,,,,,,,,,,,,,,11,,60,72
3570,note_on,,1,0,9,,,,,,,,,,,,,,,,13,,56,72
3570,note_on,,1,0,8,,,,,,,,,,,,,,,,12,,60,72
3570,note_on,,1,0,10,,,,,,,,,,,,,,,,15,,56,72
3570,note_on,,1,0,6,,,,,,,,,,,,,,,,10,,65,72
3570,note_on,,0,0,10,,,,,,,,,,,,,,,,15,,65,72
3570,note_on,,0,0,10,,,,,,,,,,,,,,,,15,,60,72
3599,note_on,,29,0,8,,,,,,,,,,,,,,,,12,,60,0
3599,note_on,,29,0,9,,,,,,,,,,,,,,,,13,,56,0
3599,note_on,,29,0,7,,,,,,,,,,,,,,,,11,,60,0
3599,note_on,,0,0,10,,,,,,,,,,,,,,,,15,,60,0
3599,note_on,,29,0,6,,,,,,,,,,,,,,,,10,,65,0
3599,note_on,,29,0,10,,,,,,,,,,,,,,,,15,,56,0
3599,note_on,,0,0,10,,,,,,,,,,,,,,,,15,,65,0
3600,note_on,,1,0,8,,,,,,,,,,,,,,,,12,,58,72
3600,note_on,,1,0,6,,,,,,,,,,,,,,,,10,,63,72
3600,note_on,,0,0,10,,,,,,,,,,,,,,,,15,,58,72
3600,note_on,,0,0,10,,,,,,,,,,,,,,,,15,,63,72
3600,note_on,,1,0,10,,,,,,,,,,,,,,,,15,,55,72
3600,note_on,,1,0,9,,,,,,,,,,,,,,,,13,,55,72
3600,note_on,,1,0,7,,,,,,,,,,,,,,,,11,,58,72
3660,note_on,,421,0,5,,,,,,,,,,,,,,,,7,,58,72
3719,note_on,,0,0,10,,,,,,,,,,,,,,,,15,,63,0
3719,note_on,,119,0,8,,,,,,,,,,,,,,,,12,,58,0
3719,note_on,,59,0,5,,,,,,,,,,,,,,,,7,,58,0
3719,note_on,,119,0,9,,,,,,,,,,,,,,,,13,,55,0
3719,note_on,,119,0,6,,,,,,,,,,,,,,,,10,,63,0
3719,note_on,,119,0,7,,,,,,,,,,,,,,,,11,,58,0
3719,note_on,,119,0,10,,,,,,,,,,,,,,,,15,,55,0
3719,note_on,,0,0,10,,,,,,,,,,,,,,,,15,,58,0
3720,note_on,,1,0,5,,,,,,,,,,,,,,,,7,,63,72
3779,note_on,,59,0,5,,,,,,,,,,,,,,,,7,,63,0
3780,note_on,,1,0,5,,,,,,,,,,,,,,,,7,,58,72
3839,note_on,,59,0,5,,,,,,,,,,,,,,,,7,,58,0
3840,note_on,,0,0,10,,,,,,,,,,,,,,,,15,,72,72
3840,note_on,,0,0,10,,,,,,,,,,,,,,,,15,,68,72
3840,note_on,,0,0,10,,,,,,,,,,,,,,,,15,,63,72
3840,note_on,,121,0,7,,,,,,,,,,,,,,,,11,,60,72
3840,note_on,,121,0,8,,,,,,,,,,,,,,,,12,,60,72
3840,note_on,,121,0,10,,,,,,,,,,,,,,,,15,,56,72
3840,note_on,,1,0,5,,,,,,,,,,,,,,,,7,,60,72
3840,note_on,,121,0,9,,,,,,,,,,,,,,,,13,,56,72
3840,note_on,,121,0,6,,,,,,,,,,,,,,,,10,,63,72
3840,note_on,,0,0,10,,,,,,,,,,,,,,,,15,,56,72
3869,note_on,,29,0,6,,,,,,,,,,,,,,,,10,,63,0
3869,note_on,,29,0,8,,,,,,,,,,,,,,,,12,,60,0
3869,note_on,,29,0,7,,,,,,,,,,,,,,,,11,,60,0
3870,note_on,,1,0,8,,,,,,,,,,,,,,,,12,,62,72
3870,note_on,,1,0,6,,,,,,,,,,,,,,,,10,,65,72
3870,note_on,,1,0,7,,,,,,,,,,,,,,,,11,,62,72
3899,note_on,,29,0,7,,,,,,,,,,,,,,,,11,,62,0
3899,note_on,,59,0,10,,,,,,,,,,,,,,,,15,,56,0
3899,note_on,,59,0,9,,,,,,,,,,,,,,,,13,,56,0
3899,note_on,,29,0,6,,,,,,,,,,,,,,,,10,,65,0
3899,note_on,,29,0,8,,,,,,,,,,,,,,,,12,,62,0
3900,note_on,,1,0,6,,,,,,,,,,,,,,,,10,,63,72
3900,note_on,,1,0,9,,,,,,,,,,,,,,,,13,,44,72
3900,note_on,,1,0,10,,,,,,,,,,,,,,,,15,,44,72
3900,note_on,,1,0,8,,,,,,,,,,,,,,,,12,,60,72
3900,note_on,,1,0,7,,,,,,,,,,,,,,,,11,,60,72
3929,note_on,,29,0,6,,,,,,,,,,,,,,,,10,,63,0
3929,note_on,,29,0,7,,,,,,,,,,,,,,,,11,,60,0
3929,note_on,,29,0,8,,,,,,,,,,,,,,,,12,,60,0
3930,note_on,,1,0,8,,,,,,,,,,,,,,,,12,,62,72
3930,note_on,,1,0,7,,,,,,,,,,,,,,,,11,,62,72
3930,note_on,,1,0,6,,,,,,,,,,,,,,,,10,,65,72
3959,note_on,,29,0,7,,,,,,,,,,,,,,,,11,,62,0
3959,note_on,,29,0,8,,,,,,,,,,,,,,,,12,,62,0
3959,note_on,,119,0,5,,,,,,,,,,,,,,,,7,,60,0
3959,note_on,,59,0,10,,,,,,,,,,,,,,,,15,,44,0
3959,note_on,,59,0,9,,,,,,,,,,,,,,,,13,,44,0
3959,note_on,,29,0,6,,,,,,,,,,,,,,,,10,,65,0
3960,note_on,,1,0,8,,,,,,,,,,,,,,,,12,,60,72
3960,note_on,,1,0,6,,,,,,,,,,,,,,,,10,,63,72
3960,note_on,,1,0,10,,,,,,,,,,,,,,,,15,,44,72
3960,note_on,,1,0,7,,,,,,,,,,,,,,,,11,,60,72
3960,note_on,,1,0,9,,,,,,,,,,,,,,,,13,,44,72
3989,note_on,,29,0,7,,,,,,,,,,,,,,,,11,,60,0
3989,note_on,,29,0,8,,,,,,,,,,,,,,,,12,,60,0
3989,note_on,,29,0,6,,,,,,,,,,,,,,,,10,,63,0
3990,note_on,,1,0,7,,,,,,,,,,,,,,,,11,,62,72
3990,note_on,,1,0,8,,,,,,,,,,,,,,,,12,,62,72
3990,note_on,,1,0,6,,,,,,,,,,,,,,,,10,,65,72
4019,note_on,,59,0,10,,,,,,,,,,,,,,,,15,,44,0
4019,note_on,,59,0,9,,,,,,,,,,,,,,,,13,,44,0
4019,note_on,,29,0,8,,,,,,,,,,,,,,,,12,,62,0
4019,note_on,,29,0,6,,,,,,,,,,,,,,,,10,,65,0
4019,note_on,,29,0,7,,,,,,,,,,,,,,,,11,,62,0
4020,note_on,,1,0,10,,,,,,,,,,,,,,,,15,,44,72
4020,note_on,,1,0,6,,,,,,,,,,,,,,,,10,,63,72
4020,note_on,,1,0,9,,,,,,,,,,,,,,,,13,,44,72
4020,note_on,,1,0,7,,,,,,,,,,,,,,,,11,,60,72
4020,note_on,,1,0,8,,,,,,,,,,,,,,,,12,,60,72
4049,note_on,,29,0,7,,,,,,,,,,,,,,,,11,,60,0
4049,note_on,,29,0,6,,,,,,,,,,,,,,,,10,,63,0
4049,note_on,,29,0,8,,,,,,,,,,,,,,,,12,,60,0
4050,note_on,,1,0,7,,,,,,,,,,,,,,,,11,,62,72
4050,note_on,,1,0,6,,,,,,,,,,,,,,,,10,,65,72
4050,note_on,,1,0,8,,,,,,,,,,,,,,,,12,,62,72
4079,note_on,,59,0,10,,,,,,,,,,,,,,,,15,,72,0
4079,note_on,,0,0,10,,,,,,,,,,,,,,,,15,,44,0
4079,note_on,,0,0,10,,,,,,,,,,,,,,,,15,,68,0
4079,note_on,,29,0,8,,,,,,,,,,,,,,,,12,,62,0
4079,note_on,,29,0,6,,,,,,,,,,,,,,,,10,,65,0
4079,note_on,,0,0,10,,,,,,,,,,,,,,,,15,,56,0
4079,note_on,,59,0,9,,,,,,,,,,,,,,,,13,,44,0
4079,note_on,,29,0,7,,,,,,,,,,,,,,,,11,,62,0
4079,note_on,,0,0,10,,,,,,,,,,,,,,,,15,,63,0
4080,note_on,,0,0,10,,,,,,,,,,,,,,,,15,,63,72
4080,note_on,,0,0,10,,,,,,,,,,,,,,,,15,,54,72
4080,note_on,,0,0,10,,,,,,,,,,,,,,,,15,,60,72
4080,note_on,,1,0,7,,,,,,,,,,,,,,,,11,,63,72
4080,note_on,,1,0,10,,,,,,,,,,,,,,,,15,,45,72
4080,note_on,,0,0,10,,,,,,,,,,,,,,,,15,,72,72
4080,note_on,,1,0,9,,,,,,,,,,,,,,,,13,,45,72
4080,note_on,,1,0,8,,,,,,,,,,,,,,,,12,,60,72
4080,note_on,,1,0,6,,,,,,,,,,,,,,,,10,,66,72
4200,note_on,,241,0,5,,,,,,,,,,,,,,,,7,,63,72
4319,note_on,,239,0,8,,,,,,,,,,,,,,,,12,,60,0
4319,note_on,,239,0,7,,,,,,,,,,,,,,,,11,,63,0
4319,note_on,,239,0,6,,,,,,,,,,,,,,,,10,,66,0
4319,note_on,,0,0,10,,,,,,,,,,,,,,,,15,,63,0
4319,note_on,,0,0,10,,,,,,,,,,,,,,,,15,,60,0
4319,note_on,,0,0,10,,,,,,,,,,,,,,,,15,,54,0
4319,note_on,,0,0,10,,,,,,,,,,,,,,,,15,,72,0
4319,note_on,,239,0,9,,,,,,,,,,,,,,,,13,,45,0
4319,note_on,,239,0,10,,,,,,,,,,,,,,,,15,,45,0
4439,note_on,,239,0,5,,,,,,,,,,,,,,,,7,,63,0
4440,note_on,,1,0,5,,,,,,,,,,,,,,,,7,,58,72
4470,note_on,,151,0,6,,,,,,,,,,,,,,,,10,,65,72
4470,note_on,,151,0,9,,,,,,,,,,,,,,,,13,,46,72
4470,note_on,,151,0,8,,,,,,,,,,,,,,,,12,,58,72
4470,note_on,,151,0,10,,,,,,,,,,,,,,,,15,,46,72
4470,note_on,,151,0,7,,,,,,,,,,,,,,,,11,,62,72
4499,note_on,,29,0,7,,,,,,,,,,,,,,,,11,,62,0
4499,note_on,,29,0,6,,,,,,,,,,,,,,,,10,,65,0
4499,note_on,,29,0,9,,,,,,,,,,,,,,,,13,,46,0
4499,note_on,,29,0,8,,,,,,,,,,,,,,,,12,,58,0
4499,note_on,,29,0,10,,,,,,,,,,,,,,,,15,,46,0
4500,note_on,,1,0,8,,,,,,,,,,,,,,,,12,,58,72
4500,note_on,,0,0,10,,,,,,,,,,,,,,,,15,,62,72
4500,note_on,,0,0,10,,,,,,,,,,,,,,,,15,,65,72
4500,note_on,,0,0,10,,,,,,,,,,,,,,,,15,,58,72
4500,note_on,,1,0,7,,,,,,,,,,,,,,,,11,,62,72
4500,note_on,,1,0,6,,,,,,,,,,,,,,,,10,,65,72
4500,note_on,,1,0,10,,,,,,,,,,,,,,,,15,,46,72
4500,note_on,,1,0,9,,,,,,,,,,,,,,,,13,,46,72
4544,note_on,,44,0,10,,,,,,,,,,,,,,,,15,,46,0
4544,note_on,,44,0,8,,,,,,,,,,,,,,,,12,,58,0
4544,note_on,,44,0,7,,,,,,,,,,,,,,,,11,,62,0
4544,note_on,,44,0,9,,,,,,,,,,,,,,,,13,,46,0
4544,note_on,,44,0,6,,,,,,,,,,,,,,,,10,,65,0
4545,note_on,,1,0,7,,,,,,,,,,,,,,,,11,,62,72
4545,note_on,,1,0,8,,,,,,,,,,,,,,,,12,,58,72
4545,note_on,,1,0,9,,,,,,,,,,,,,,,,13,,46,72
4545,note_on,,1,0,10,,,,,,,,,,,,,,,,15,,46,72
4545,note_on,,1,0,6,,,,,,,,,,,,,,,,10,,65,72
4559,note_on,,0,0,10,,,,,,,,,,,,,,,,15,,58,0
4559,note_on,,14,0,8,,,,,,,,,,,,,,,,12,,58,0
4559,note_on,,14,0,7,,,,,,,,,,,,,,,,11,,62,0
4559,note_on,,0,0,10,,,,,,,,,,,,,,,,15,,46,0
4559,note_on,,14,0,10,,,,,,,,,,,,,,,,15,,65,0
4559,note_on,,0,0,10,,,,,,,,,,,,,,,,15,,62,0
4559,end_of_track,,0,1,5,,,,,,,,,,,,,,,,,,,
4559,note_on,,119,0,5,,,,,,,,,,,,,,,,7,,58,0
4559,note_on,,14,0,9,,,,,,,,,,,,,,,,13,,46,0
4559,note_on,,14,0,6,,,,,,,,,,,,,,,,10,,65,0
4560,note_on,,1,0,8,,,,,,,,,,,,,,,,12,,58,72
4560,note_on,,1,0,7,,,,,,,,,,,,,,,,11,,65,72
4560,note_on,,1,0,6,,,,,,,,,,,,,,,,10,,74,72
4560,note_on,,1,0,9,,,,,,,,,,,,,,,,13,,46,72
4560,note_on,,0,0,10,,,,,,,,,,,,,,,,15,,53,72
4560,note_on,,0,0,10,,,,,,,,,,,,,,,,15,,58,72
4560,note_on,,0,0,10,,,,,,,,,,,,,,,,15,,62,72
4560,note_on,,1,0,10,,,,,,,,,,,,,,,,15,,46,72
4604,note_on,,44,0,8,,,,,,,,,,,,,,,,12,,58,0
4604,note_on,,44,0,6,,,,,,,,,,,,,,,,10,,74,0
4604,note_on,,44,0,10,,,,,,,,,,,,,,,,15,,46,0
4604,note_on,,44,0,7,,,,,,,,,,,,,,,,11,,65,0
4604,note_on,,44,0,9,,,,,,,,,,,,,,,,13,,46,0
4605,note_on,,1,0,6,,,,,,,,,,,,,,,,10,,74,72
4605,note_on,,1,0,7,,,,,,,,,,,,,,,,11,,65,72
4605,note_on,,1,0,9,,,,,,,,,,,,,,,,13,,46,72
4605,note_on,,1,0,8,,,,,,,,,,,,,,,,12,,58,72
4605,note_on,,1,0,10,,,,,,,,,,,,,,,,15,,46,72
4619,note_on,,14,0,10,,,,,,,,,,,,,,,,15,,46,0
4619,note_on,,14,0,7,,,,,,,,,,,,,,,,11,,65,0
4619,note_on,,14,0,8,,,,,,,,,,,,,,,,12,,58,0
4619,note_on,,14,0,6,,,,,,,,,,,,,,,,10,,74,0
4619,note_on,,14,0,9,,,,,,,,,,,,,,,,13,,46,0
4620,note_on,,1,0,8,,,,,,,,,,,,,,,,12,,58,72
4620,note_on,,1,0,6,,,,,,,,,,,,,,,,10,,74,72
4620,note_on,,1,0,7,,,,,,,,,,,,,,,,11,,65,72
4620,note_on,,1,0,10,,,,,,,,,,,,,,,,15,,46,72
4620,note_on,,1,0,9,,,,,,,,,,,,,,,,13,,46,72
4664,note_on,,44,0,8,,,,,,,,,,,,,,,,12,,58,0
4664,note_on,,44,0,7,,,,,,,,,,,,,,,,11,,65,0
4664,note_on,,44,0,6,,,,,,,,,,,,,,,,10,,74,0
4664,note_on,,44,0,10,,,,,,,,,,,,,,,,15,,46,0
4664,note_on,,44,0,9,,,,,,,,,,,,,,,,13,,46,0
4665,note_on,,1,0,9,,,,,,,,,,,,,,,,13,,46,72
4665,note_on,,1,0,7,,,,,,,,,,,,,,,,11,,65,72
4665,note_on,,1,0,8,,,,,,,,,,,,,,,,12,,58,72
4665,note_on,,1,0,6,,,,,,,,,,,,,,,,10,,74,72
4665,note_on,,1,0,10,,,,,,,,,,,,,,,,15,,46,72
4679,note_on,,0,0,10,,,,,,,,,,,,,,,,15,,58,0
4679,note_on,,14,0,10,,,,,,,,,,,,,,,,15,,62,0
4679,note_on,,14,0,7,,,,,,,,,,,,,,,,11,,65,0
4679,note_on,,0,0,10,,,,,,,,,,,,,,,,15,,46,0
4679,note_on,,14,0,9,,,,,,,,,,,,,,,,13,,46,0
4679,note_on,,14,0,6,,,,,,,,,,,,,,,,10,,74,0
4679,note_on,,14,0,8,,,,,,,,,,,,,,,,12,,58,0
4679,note_on,,0,0,10,,,,,,,,,,,,,,,,15,,53,0
4680,note_on,,1,0,6,,,,,,,,,,,,,,,,10,,74,72
4680,note_on,,1,0,9,,,,,,,,,,,,,,,,13,,46,72
4680,note_on,,1,0,7,,,,,,,,,,,,,,,,11,,65,72
4680,note_on,,0,0,10,,,,,,,,,,,,,,,,15,,62,72
4680,note_on,,0,0,10,,,,,,,,,,,,,,,,15,,65,72
4680,note_on,,1,0,8,,,,,,,,,,,,,,,,12,,58,72
4680,note_on,,1,0,10,,,,,,,,,,,,,,,,15,,46,72
4680,note_on,,0,0,10,,,,,,,,,,,,,,,,15,,70,72
4724,note_on,,44,0,8,,,,,,,,,,,,,,,,12,,58,0
4724,note_on,,44,0,10,,,,,,,,,,,,,,,,15,,46,0
4724,note_on,,44,0,7,,,,,,,,,,,,,,,,11,,65,0
4724,note_on,,44,0,6,,,,,,,,,,,,,,,,10,,74,0
4724,note_on,,44,0,9,,,,,,,,,,,,,,,,13,,46,0
4725,note_on,,1,0,7,,,,,,,,,,,,,,,,11,,65,72
4725,note_on,,1,0,9,,,,,,,,,,,,,,,,13,,46,72
4725,note_on,,1,0,8,,,,,,,,,,,,,,,,12,,58,72
4725,note_on,,1,0,10,,,,,,,,,,,,,,,,15,,46,72
4725,note_on,,1,0,6,,,,,,,,,,,,,,,,10,,74,72
4739,note_on,,14,0,7,,,,,,,,,,,,,,,,11,,65,0
4739,note_on,,14,0,10,,,,,,,,,,,,,,,,15,,46,0
4739,note_on,,14,0,9,,,,,,,,,,,,,,,,13,,46,0
4739,note_on,,14,0,8,,,,,,,,,,,,,,,,12,,58,0
4739,note_on,,14,0,6,,,,,,,,,,,,,,,,10,,74,0
4740,note_on,,1,0,6,,,,,,,,,,,,,,,,10,,74,72
4740,note_on,,1,0,9,,,,,,,,,,,,,,,,13,,46,72
4740,note_on,,1,0,10,,,,,,,,,,,,,,,,15,,46,72
4740,note_on,,1,0,7,,,,,,,,,,,,,,,,11,,65,72
4740,note_on,,1,0,8,,,,,,,,,,,,,,,,12,,58,72
4784,note_on,,44,0,8,,,,,,,,,,,,,,,,12,,58,0
4784,note_on,,44,0,9,,,,,,,,,,,,,,,,13,,46,0
4784,note_on,,44,0,10,,,,,,,,,,,,,,,,15,,46,0
4784,note_on,,44,0,7,,,,,,,,,,,,,,,,11,,65,0
4784,note_on,,44,0,6,,,,,,,,,,,,,,,,10,,74,0
4785,note_on,,1,0,9,,,,,,,,,,,,,,,,13,,46,72
4785,note_on,,1,0,10,,,,,,,,,,,,,,,,15,,46,72
4785,note_on,,1,0,7,,,,,,,,,,,,,,,,11,,65,72
4785,note_on,,1,0,6,,,,,,,,,,,,,,,,10,,74,72
4785,note_on,,1,0,8,,,,,,,,,,,,,,,,12,,58,72
4799,note_on,,14,0,8,,,,,,,,,,,,,,,,12,,58,0
4799,note_on,,14,0,6,,,,,,,,,,,,,,,,10,,74,0
4799,note_on,,0,0,10,,,,,,,,,,,,,,,,15,,62,0
4799,note_on,,0,0,10,,,,,,,,,,,,,,,,15,,65,0
4799,note_on,,14,0,10,,,,,,,,,,,,,,,,15,,70,0
4799,note_on,,14,0,9,,,,,,,,,,,,,,,,13,,46,0
4799,note_on,,0,0,10,,,,,,,,,,,,,,,,15,,46,0
4799,note_on,,14,0,7,,,,,,,,,,,,,,,,11,,65,0
4800,note_on,,0,0,10,,,,,,,,,,,,,,,,15,,70,72
4800,note_on,,0,0,10,,,,,,,,,,,,,,,,15,,67,72
4800,note_on,,0,0,10,,,,,,,,,,,,,,,,15,,63,72
4800,note_on,,0,0,10,,,,,,,,,,,,,,,,15,,58,72
4800,note_on,,0,0,10,,,,,,,,,,,,,,,,15,,51,72
4800,note_on,,1,0,7,,,,,,,,,,,,,,,,11,,67,72
4800,note_on,,1,0,10,,,,,,,,,,,,,,,,15,,39,72
4800,note_on,,1,0,9,,,,,,,,,,,,,,,,13,,39,72
4800,note_on,,1,0,6,,,,,,,,,,,,,,,,10,,75,72
4800,note_on,,1,0,8,,,,,,,,,,,,,,,,12,,58,72
4919,note_on,,119,0,10,,,,,,,,,,,,,,,,15,,39,0
4919,note_on,,0,0,10,,,,,,,,,,,,,,,,15,,70,0
4919,note_on,,0,0,10,,,,,,,,,,,,,,,,15,,67,0
4919,note_on,,0,0,10,,,,,,,,,,,,,,,,15,,63,0
4919,note_on,,0,0,10,,,,,,,,,,,,,,,,15,,58,0
4919,end_of_track,,0,1,8,,,,,,,,,,,,,,,,,,,
4919,end_of_track,,0,1,10,,,,,,,,,,,,,,,,,,,
4919,note_on,,0,0,10,,,,,,,,,,,,,,,,15,,51,0
4919,end_of_track,,0,1,7,,,,,,,,,,,,,,,,,,,
4919,note_on,,119,0,7,,,,,,,,,,,,,,,,11,,67,0
4919,note_on,,119,0,9,,,,,,,,,,,,,,,,13,,39,0
4919,end_of_track,,0,1,9,,,,,,,,,,,,,,,,,,,
4919,end_of_track,,0,1,6,,,,,,,,,,,,,,,,,,,
4919,note_on,,119,0,6,,,,,,,,,,,,,,,,10,,75,0
4919,note_on,,119,0,8,,,,,,,,,,,,,,,,12,,58,0
5280,set_tempo,,5280,1,0,,,,,,,,,500000,,,,,,,,,,
5280,end_of_track,,0,1,0,,,,,,,,,,,,,,,,,,,
