tick,type,data,time,meta,track,frame_rate,hours,minutes,seconds,frames,sub_frames,port,key,tempo,numerator,denominator,clocks_per_click,notated_32nd_notes_per_beat,control,value,channel,program,note,velocity
0,sequencer_specific,"(0, 0, 91, 35, 1, 0, 5, 4, 35, 0)",0,1,0,,,,,,,,,,,,,,,,,,,
0,midi_port,,0,1,9,,,,,,,0,,,,,,,,,,,,
0,track_name,,0,1,9,,,,,,,,,,,,,,,,,,,
0,program_change,,0,0,8,,,,,,,,,,,,,,,,4,56,,
0,control_change,,0,0,8,,,,,,,,,,,,,,7,96,4,,,
0,control_change,,0,0,8,,,,,,,,,,,,,,10,60,4,,,
0,control_change,,0,0,8,,,,,,,,,,,,,,11,127,4,,,
0,midi_port,,0,1,8,,,,,,,0,,,,,,,,,,,,
0,control_change,,0,0,9,,,,,,,,,,,,,,11,127,5,,,
0,track_name,,0,1,8,,,,,,,,,,,,,,,,,,,
0,control_change,,0,0,15,,,,,,,,,,,,,,7,96,11,,,
0,control_change,,0,0,15,,,,,,,,,,,,,,10,24,11,,,
0,control_change,,0,0,15,,,,,,,,,,,,,,11,127,11,,,
0,midi_port,,0,1,15,,,,,,,0,,,,,,,,,,,,
0,track_name,,0,1,15,,,,,,,,,,,,,,,,,,,
0,track_name,,0,1,11,,,,,,,,,,,,,,,,,,,
0,midi_port,,0,1,11,,,,,,,0,,,,,,,,,,,,
0,program_change,,0,0,15,,,,,,,,,,,,,,,,11,48,,
0,control_change,,0,0,11,,,,,,,,,,,,,,11,127,7,,,
0,control_change,,0,0,9,,,,,,,,,,,,,,10,32,5,,,
0,program_change,,0,0,9,,,,,,,,,,,,,,,,5,73,,
0,control_change,,0,0,10,,,,,,,,,,,,,,11,127,6,,,
0,midi_port,,0,1,10,,,,,,,0,,,,,,,,,,,,
0,track_name,,0,1,10,,,,,,,,,,,,,,,,,,,
0,track_name,,0,1,16,,,,,,,,,,,,,,,,,,,
0,midi_port,,0,1,16,,,,,,,0,,,,,,,,,,,,
0,control_change,,0,0,16,,,,,,,,,,,,,,11,127,12,,,
0,control_change,,0,0,16,,,,,,,,,,,,,,10,80,12,,,
0,control_change,,0,0,9,,,,,,,,,,,,,,7,96,5,,,
0,control_change,,0,0,16,,,,,,,,,,,,,,7,96,12,,,
0,track_name,,0,1,17,,,,,,,,,,,,,,,,,,,
0,midi_port,,0,1,17,,,,,,,0,,,,,,,,,,,,
0,control_change,,0,0,17,,,,,,,,,,,,,,11,127,13,,,
0,control_change,,0,0,17,,,,,,,,,,,,,,10,96,13,,,
0,control_change,,0,0,17,,,,,,,,,,,,,,7,96,13,,,
0,program_change,,0,0,17,,,,,,,,,,,,,,,,13,48,,
0,note_on,,0,0,17,,,,,,,,,,,,,,,,13,,50,72
0,program_change,,0,0,16,,,,,,,,,,,,,,,,12,48,,
0,control_change,,0,0,11,,,,,,,,,,,,,,10,48,7,,,
0,control_change,,0,0,11,,,,,,,,,,,,,,7,96,7,,,
0,program_change,,0,0,11,,,,,,,,,,,,,,,,7,70,,
0,program_change,,0,0,14,,,,,,,,,,,,,,,,10,48,,
0,control_change,,0,0,14,,,,,,,,,,,,,,7,96,10,,,
0,control_change,,0,0,14,,,,,,,,,,,,,,10,48,10,,,
0,program_change,,0,0,12,,,,,,,,,,,,,,,,8,60,,
0,control_change,,0,0,12,,,,,,,,,,,,,,10,80,8,,,
0,control_change,,0,0,12,,,,,,,,,,,,,,7,96,8,,,
0,control_change,,0,0,12,,,,,,,,,,,,,,11,127,8,,,
0,track_name,,0,1,6,,,,,,,,,,,,,,,,,,,
0,midi_port,,0,1,12,,,,,,,0,,,,,,,,,,,,
0,track_name,,0,1,13,,,,,,,,,,,,,,,,,,,
0,midi_port,,0,1,13,,,,,,,0,,,,,,,,,,,,
0,control_change,,0,0,13,,,,,,,,,,,,,,11,127,14,,,
0,control_change,,0,0,13,,,,,,,,,,,,,,10,25,14,,,
0,control_change,,0,0,13,,,,,,,,,,,,,,7,96,14,,,
0,program_change,,0,0,13,,,,,,,,,,,,,,,,14,47,,
0,control_change,,0,0,14,,,,,,,,,,,,,,11,127,10,,,
0,track_name,,0,1,12,,,,,,,,,,,,,,,,,,,
0,midi_port,,0,1,6,,,,,,,0,,,,,,,,,,,,
0,control_change,,0,0,6,,,,,,,,,,,,,,11,127,2,,,
0,control_change,,0,0,6,,,,,,,,,,,,,,10,65,2,,,
0,track_name,,0,1,18,,,,,,,,,,,,,,,,,,,
0,midi_port,,0,1,18,,,,,,,0,,,,,,,,,,,,
0,midi_port,,0,1,14,,,,,,,0,,,,,,,,,,,,
0,control_change,,0,0,18,,,,,,,,,,,,,,10,90,15,,,
0,control_change,,0,0,18,,,,,,,,,,,,,,7,96,15,,,
0,program_change,,0,0,18,,,,,,,,,,,,,,,,15,6,,
0,note_on,,0,0,18,,,,,,,,,,,,,,,,15,,50,72
0,note_on,,0,0,18,,,,,,,,,,,,,,,,15,,62,72
0,program_change,,0,0,7,,,,,,,,,,,,,,,,3,56,,
0,control_change,,0,0,7,,,,,,,,,,,,,,7,96,3,,,
0,control_change,,0,0,7,,,,,,,,,,,,,,10,50,3,,,
0,control_change,,0,0,7,,,,,,,,,,,,,,11,127,3,,,
0,midi_port,,0,1,7,,,,,,,0,,,,,,,,,,,,
0,track_name,,0,1,7,,,,,,,,,,,,,,,,,,,
0,note_on,,0,0,6,,,,,,,,,,,,,,,,2,,50,72
0,program_change,,0,0,6,,,,,,,,,,,,,,,,2,70,,
0,control_change,,0,0,6,,,,,,,,,,,,,,7,80,2,,,
0,control_change,,0,0,10,,,,,,,,,,,,,,7,96,6,,,
0,control_change,,0,0,10,,,,,,,,,,,,,,10,96,6,,,
0,control_change,,0,0,18,,,,,,,,,,,,,,11,127,15,,,
0,track_name,,0,1,14,,,,,,,,,,,,,,,,,,,
0,program_change,,0,0,5,,,,,,,,,,,,,,,,1,68,,
0,control_change,,0,0,5,,,,,,,,,,,,,,7,72,1,,,
0,control_change,,0,0,5,,,,,,,,,,,,,,10,70,1,,,
0,control_change,,0,0,5,,,,,,,,,,,,,,11,127,1,,,
0,midi_port,,0,1,5,,,,,,,0,,,,,,,,,,,,
0,track_name,,0,1,5,,,,,,,,,,,,,,,,,,,
0,end_of_track,,0,1,4,,,,,,,,,,,,,,,,,,,
0,midi_port,,0,1,4,,,,,,,0,,,,,,,,,,,,
0,end_of_track,,0,1,3,,,,,,,,,,,,,,,,,,,
0,midi_port,,0,1,3,,,,,,,0,,,,,,,,,,,,
0,track_name,,0,1,3,,,,,,,,,,,,,,,,,,,
0,end_of_track,,0,1,2,,,,,,,,,,,,,,,,,,,
0,midi_port,,0,1,2,,,,,,,0,,,,,,,,,,,,
0,track_name,,0,1,2,,,,,,,,,,,,,,,,,,,
0,program_change,,0,0,10,,,,,,,,,,,,,,,,6,73,,
0,end_of_track,,0,1,1,,,,,,,,,,,,,,,,,,,
0,midi_port,,0,1,1,,,,,,,0,,,,,,,,,,,,
0,track_name,,0,1,1,,,,,,,,,,,,,,,,,,,
0,track_name,,0,1,0,,,,,,,,,,,,,,,,,,,
0,instrument_name,,0,1,0,,,,,,,,,,,,,,,,,,,
0,smpte_offset,,0,1,0,25,32,0,3,0,0,,,,,,,,,,,,,
0,midi_port,,0,1,0,,,,,,,0,,,,,,,,,,,,
0,key_signature,,0,1,0,,,,,,,,D,,,,,,,,,,,
0,set_tempo,,0,1,0,,,,,,,,,1200000,,,,,,,,,,
0,time_signature,,0,1,0,,,,,,,,,,4,4,24,8,,,,,,
119,note_on,,119,0,6,,,,,,,,,,,,,,,,2,,50,0
119,note_on,,119,0,18,,,,,,,,,,,,,,,,15,,50,0
119,note_on,,119,0,17,,,,,,,,,,,,,,,,13,,50,0
119,note_on,,0,0,18,,,,,,,,,,,,,,,,15,,62,0
120,note_on,,1,0,18,,,,,,,,,,,,,,,,15,,62,72
120,note_on,,1,0,6,,,,,,,,,,,,,,,,2,,50,72
120,note_on,,0,0,18,,,,,,,,,,,,,,,,15,,57,72
120,note_on,,0,0,18,,,,,,,,,,,,,,,,15,,50,72
120,note_on,,0,0,18,,,,,,,,,,,,,,,,15,,66,72
120,note_on,,0,0,18,,,,,,,,,,,,,,,,15,,69,72
120,note_on,,1,0,17,,,,,,,,,,,,,,,,13,,50,72
120,note_on,,120,0,7,,,,,,,,,,,,,,,,3,,78,72
120,note_on,,120,0,14,,,,,,,,,,,,,,,,10,,78,72
120,note_on,,120,0,11,,,,,,,,,,,,,,,,7,,66,72
120,note_on,,120,0,5,,,,,,,,,,,,,,,,1,,74,72
120,note_on,,120,0,15,,,,,,,,,,,,,,,,11,,74,72
120,note_on,,120,0,8,,,,,,,,,,,,,,,,4,,74,72
120,note_on,,120,0,9,,,,,,,,,,,,,,,,5,,74,72
120,note_on,,120,0,12,,,,,,,,,,,,,,,,8,,62,72
120,note_on,,120,0,10,,,,,,,,,,,,,,,,6,,69,72
120,note_on,,120,0,16,,,,,,,,,,,,,,,,12,,69,72
359,note_on,,239,0,18,,,,,,,,,,,,,,,,15,,62,0
359,note_on,,239,0,9,,,,,,,,,,,,,,,,5,,74,0
359,note_on,,0,0,18,,,,,,,,,,,,,,,,15,,57,0
359,note_on,,239,0,8,,,,,,,,,,,,,,,,4,,74,0
359,note_on,,239,0,6,,,,,,,,,,,,,,,,2,,50,0
359,note_on,,239,0,16,,,,,,,,,,,,,,,,12,,69,0
359,note_on,,239,0,15,,,,,,,,,,,,,,,,11,,74,0
359,note_on,,239,0,5,,,,,,,,,,,,,,,,1,,74,0
359,note_on,,239,0,11,,,,,,,,,,,,,,,,7,,66,0
359,note_on,,239,0,14,,,,,,,,,,,,,,,,10,,78,0
359,note_on,,239,0,12,,,,,,,,,,,,,,,,8,,62,0
359,note_on,,239,0,7,,,,,,,,,,,,,,,,3,,78,0
359,note_on,,0,0,18,,,,,,,,,,,,,,,,15,,69,0
359,note_on,,239,0,10,,,,,,,,,,,,,,,,6,,69,0
359,note_on,,0,0,18,,,,,,,,,,,,,,,,15,,66,0
359,note_on,,0,0,18,,,,,,,,,,,,,,,,15,,50,0
359,note_on,,239,0,17,,,,,,,,,,,,,,,,13,,50,0
360,note_on,,0,0,18,,,,,,,,,,,,,,,,15,,64,72
360,note_on,,0,0,18,,,,,,,,,,,,,,,,15,,76,72
360,note_on,,1,0,15,,,,,,,,,,,,,,,,11,,76,72
360,note_on,,1,0,17,,,,,,,,,,,,,,,,13,,49,72
360,note_on,,1,0,16,,,,,,,,,,,,,,,,12,,69,72
360,note_on,,1,0,8,,,,,,,,,,,,,,,,4,,76,72
360,note_on,,1,0,10,,,,,,,,,,,,,,,,6,,69,72
360,note_on,,1,0,7,,,,,,,,,,,,,,,,3,,81,72
360,note_on,,1,0,9,,,,,,,,,,,,,,,,5,,69,72
360,note_on,,1,0,6,,,,,,,,,,,,,,,,2,,49,72
360,note_on,,1,0,14,,,,,,,,,,,,,,,,10,,81,72
360,note_on,,1,0,18,,,,,,,,,,,,,,,,15,,49,72
360,note_on,,1,0,5,,,,,,,,,,,,,,,,1,,69,72
360,note_on,,1,0,11,,,,,,,,,,,,,,,,7,,64,72
360,note_on,,0,0,18,,,,,,,,,,,,,,,,15,,57,72
360,note_on,,0,0,18,,,,,,,,,,,,,,,,15,,69,72
360,note_on,,1,0,12,,,,,,,,,,,,,,,,8,,61,72
479,note_on,,119,0,18,,,,,,,,,,,,,,,,15,,49,0
479,note_on,,0,0,18,,,,,,,,,,,,,,,,15,,69,0
479,note_on,,119,0,9,,,,,,,,,,,,,,,,5,,69,0
479,note_on,,0,0,18,,,,,,,,,,,,,,,,15,,76,0
479,note_on,,119,0,7,,,,,,,,,,,,,,,,3,,81,0
479,note_on,,0,0,18,,,,,,,,,,,,,,,,15,,64,0
479,note_on,,119,0,8,,,,,,,,,,,,,,,,4,,76,0
479,note_on,,119,0,10,,,,,,,,,,,,,,,,6,,69,0
479,note_on,,119,0,6,,,,,,,,,,,,,,,,2,,49,0
479,note_on,,119,0,11,,,,,,,,,,,,,,,,7,,64,0
479,note_on,,0,0,18,,,,,,,,,,,,,,,,15,,57,0
479,note_on,,119,0,17,,,,,,,,,,,,,,,,13,,49,0
479,note_on,,119,0,15,,,,,,,,,,,,,,,,11,,76,0
479,note_on,,119,0,5,,,,,,,,,,,,,,,,1,,69,0
479,note_on,,119,0,14,,,,,,,,,,,,,,,,10,,81,0
479,note_on,,119,0,12,,,,,,,,,,,,,,,,8,,61,0
479,note_on,,119,0,16,,,,,,,,,,,,,,,,12,,69,0
480,note_on,,1,0,15,,,,,,,,,,,,,,,,11,,78,72
480,note_on,,1,0,18,,,,,,,,,,,,,,,,15,,74,72
480,note_on,,0,0,18,,,,,,,,,,,,,,,,15,,71,72
480,note_on,,1,0,5,,,,,,,,,,,,,,,,1,,74,72
480,note_on,,1,0,7,,,,,,,,,,,,,,,,3,,86,72
480,note_on,,0,0,18,,,,,,,,,,,,,,,,15,,47,72
480,note_on,,0,0,18,,,,,,,,,,,,,,,,15,,78,72
480,note_on,,0,0,18,,,,,,,,,,,,,,,,15,,59,72
480,note_on,,1,0,11,,,,,,,,,,,,,,,,7,,62,72
480,note_on,,1,0,8,,,,,,,,,,,,,,,,4,,78,72
480,note_on,,1,0,17,,,,,,,,,,,,,,,,13,,47,72
480,note_on,,1,0,16,,,,,,,,,,,,,,,,12,,66,72
480,note_on,,1,0,10,,,,,,,,,,,,,,,,6,,66,72
480,note_on,,1,0,14,,,,,,,,,,,,,,,,10,,86,72
480,note_on,,1,0,12,,,,,,,,,,,,,,,,8,,59,72
480,note_on,,1,0,6,,,,,,,,,,,,,,,,2,,47,72
480,note_on,,1,0,9,,,,,,,,,,,,,,,,5,,74,72
599,note_on,,119,0,8,,,,,,,,,,,,,,,,4,,78,0
659,note_on,,179,0,7,,,,,,,,,,,,,,,,3,,86,0
659,note_on,,179,0,5,,,,,,,,,,,,,,,,1,,74,0
659,note_on,,179,0,14,,,,,,,,,,,,,,,,10,,86,0
659,note_on,,179,0,11,,,,,,,,,,,,,,,,7,,62,0
659,note_on,,0,0,18,,,,,,,,,,,,,,,,15,,59,0
659,note_on,,0,0,18,,,,,,,,,,,,,,,,15,,78,0
659,note_on,,179,0,15,,,,,,,,,,,,,,,,11,,78,0
659,note_on,,0,0,18,,,,,,,,,,,,,,,,15,,47,0
659,note_on,,179,0,6,,,,,,,,,,,,,,,,2,,47,0
659,note_on,,0,0,18,,,,,,,,,,,,,,,,15,,71,0
659,note_on,,179,0,17,,,,,,,,,,,,,,,,13,,47,0
659,note_on,,179,0,10,,,,,,,,,,,,,,,,6,,66,0
659,note_on,,179,0,16,,,,,,,,,,,,,,,,12,,66,0
659,note_on,,179,0,9,,,,,,,,,,,,,,,,5,,74,0
659,note_on,,179,0,12,,,,,,,,,,,,,,,,8,,59,0
659,note_on,,179,0,18,,,,,,,,,,,,,,,,15,,74,0
660,note_on,,0,0,18,,,,,,,,,,,,,,,,15,,62,72
660,note_on,,1,0,11,,,,,,,,,,,,,,,,7,,62,72
660,note_on,,0,0,18,,,,,,,,,,,,,,,,15,,59,72
660,note_on,,1,0,10,,,,,,,,,,,,,,,,6,,66,72
660,note_on,,1,0,18,,,,,,,,,,,,,,,,15,,71,72
660,note_on,,1,0,12,,,,,,,,,,,,,,,,8,,59,72
660,note_on,,1,0,14,,,,,,,,,,,,,,,,10,,86,72
660,note_on,,1,0,17,,,,,,,,,,,,,,,,13,,59,72
660,note_on,,1,0,5,,,,,,,,,,,,,,,,1,,74,72
660,note_on,,0,0,18,,,,,,,,,,,,,,,,15,,78,72
660,note_on,,1,0,6,,,,,,,,,,,,,,,,2,,59,72
660,note_on,,1,0,15,,,,,,,,,,,,,,,,11,,78,72
660,note_on,,0,0,18,,,,,,,,,,,,,,,,15,,74,72
660,note_on,,1,0,16,,,,,,,,,,,,,,,,12,,66,72
660,note_on,,1,0,9,,,,,,,,,,,,,,,,5,,74,72
660,note_on,,1,0,7,,,,,,,,,,,,,,,,3,,86,72
660,note_on,,61,0,8,,,,,,,,,,,,,,,,4,,78,72
719,note_on,,0,0,18,,,,,,,,,,,,,,,,15,,74,0
719,note_on,,59,0,5,,,,,,,,,,,,,,,,1,,74,0
719,note_on,,59,0,14,,,,,,,,,,,,,,,,10,,86,0
719,note_on,,0,0,18,,,,,,,,,,,,,,,,15,,59,0
719,note_on,,59,0,9,,,,,,,,,,,,,,,,5,,74,0
719,note_on,,59,0,8,,,,,,,,,,,,,,,,4,,78,0
719,note_on,,59,0,18,,,,,,,,,,,,,,,,15,,71,0
719,note_on,,0,0,18,,,,,,,,,,,,,,,,15,,62,0
719,note_on,,59,0,7,,,,,,,,,,,,,,,,3,,86,0
719,note_on,,59,0,12,,,,,,,,,,,,,,,,8,,59,0
719,note_on,,59,0,16,,,,,,,,,,,,,,,,12,,66,0
719,note_on,,59,0,10,,,,,,,,,,,,,,,,6,,66,0
719,note_on,,59,0,17,,,,,,,,,,,,,,,,13,,59,0
719,note_on,,59,0,6,,,,,,,,,,,,,,,,2,,59,0
719,note_on,,59,0,11,,,,,,,,,,,,,,,,7,,62,0
719,note_on,,59,0,15,,,,,,,,,,,,,,,,11,,78,0
719,note_on,,0,0,18,,,,,,,,,,,,,,,,15,,78,0
720,note_on,,0,0,18,,,,,,,,,,,,,,,,15,,74,72
720,note_on,,0,0,18,,,,,,,,,,,,,,,,15,,62,72
720,note_on,,1,0,14,,,,,,,,,,,,,,,,10,,85,72
720,note_on,,1,0,8,,,,,,,,,,,,,,,,4,,74,72
720,note_on,,1,0,11,,,,,,,,,,,,,,,,7,,62,72
720,note_on,,1,0,18,,,,,,,,,,,,,,,,15,,69,72
720,note_on,,1,0,5,,,,,,,,,,,,,,,,1,,69,72
720,note_on,,1,0,7,,,,,,,,,,,,,,,,3,,81,72
720,note_on,,0,0,18,,,,,,,,,,,,,,,,15,,81,72
720,note_on,,0,0,18,,,,,,,,,,,,,,,,15,,54,72
720,note_on,,1,0,15,,,,,,,,,,,,,,,,11,,74,72
720,note_on,,1,0,12,,,,,,,,,,,,,,,,8,,54,72
720,note_on,,1,0,16,,,,,,,,,,,,,,,,12,,66,72
720,note_on,,1,0,10,,,,,,,,,,,,,,,,6,,69,72
720,note_on,,1,0,17,,,,,,,,,,,,,,,,13,,54,72
720,note_on,,1,0,6,,,,,,,,,,,,,,,,2,,54,72
720,note_on,,1,0,9,,,,,,,,,,,,,,,,5,,69,72
959,note_on,,239,0,11,,,,,,,,,,,,,,,,7,,62,0
959,note_on,,0,0,18,,,,,,,,,,,,,,,,15,,62,0
959,note_on,,0,0,18,,,,,,,,,,,,,,,,15,,54,0
959,note_on,,0,0,18,,,,,,,,,,,,,,,,15,,74,0
959,note_on,,239,0,12,,,,,,,,,,,,,,,,8,,54,0
959,note_on,,239,0,16,,,,,,,,,,,,,,,,12,,66,0
959,note_on,,0,0,18,,,,,,,,,,,,,,,,15,,81,0
959,note_on,,239,0,8,,,,,,,,,,,,,,,,4,,74,0
959,note_on,,239,0,17,,,,,,,,,,,,,,,,13,,54,0
959,note_on,,239,0,6,,,,,,,,,,,,,,,,2,,54,0
959,note_on,,239,0,10,,,,,,,,,,,,,,,,6,,69,0
959,note_on,,239,0,9,,,,,,,,,,,,,,,,5,,69,0
959,note_on,,239,0,5,,,,,,,,,,,,,,,,1,,69,0
959,note_on,,239,0,7,,,,,,,,,,,,,,,,3,,81,0
959,note_on,,239,0,18,,,,,,,,,,,,,,,,15,,69,0
959,note_on,,239,0,15,,,,,,,,,,,,,,,,11,,74,0
959,note_on,,239,0,14,,,,,,,,,,,,,,,,10,,85,0
960,note_on,,1,0,17,,,,,,,,,,,,,,,,13,,52,72
960,note_on,,1,0,6,,,,,,,,,,,,,,,,2,,52,72
960,note_on,,1,0,7,,,,,,,,,,,,,,,,3,,79,72
960,note_on,,0,0,18,,,,,,,,,,,,,,,,15,,73,72
960,note_on,,0,0,18,,,,,,,,,,,,,,,,15,,52,72
960,note_on,,0,0,18,,,,,,,,,,,,,,,,15,,61,72
960,note_on,,1,0,14,,,,,,,,,,,,,,,,10,,79,72
960,note_on,,0,0,18,,,,,,,,,,,,,,,,15,,64,72
960,note_on,,1,0,16,,,,,,,,,,,,,,,,12,,67,72
960,note_on,,1,0,18,,,,,,,,,,,,,,,,15,,67,72
960,note_on,,1,0,15,,,,,,,,,,,,,,,,11,,73,72
960,note_on,,1,0,5,,,,,,,,,,,,,,,,1,,73,72
960,note_on,,1,0,8,,,,,,,,,,,,,,,,4,,76,72
960,note_on,,1,0,10,,,,,,,,,,,,,,,,6,,67,72
960,note_on,,1,0,9,,,,,,,,,,,,,,,,5,,73,72
960,note_on,,1,0,12,,,,,,,,,,,,,,,,8,,52,72
960,note_on,,1,0,11,,,,,,,,,,,,,,,,7,,64,72
1079,note_on,,0,0,18,,,,,,,,,,,,,,,,15,,61,0
1079,note_on,,119,0,18,,,,,,,,,,,,,,,,15,,67,0
1079,note_on,,119,0,7,,,,,,,,,,,,,,,,3,,79,0
1079,note_on,,119,0,16,,,,,,,,,,,,,,,,12,,67,0
1079,note_on,,119,0,12,,,,,,,,,,,,,,,,8,,52,0
1079,note_on,,0,0,18,,,,,,,,,,,,,,,,15,,73,0
1079,note_on,,119,0,14,,,,,,,,,,,,,,,,10,,79,0
1079,note_on,,119,0,6,,,,,,,,,,,,,,,,2,,52,0
1079,note_on,,0,0,18,,,,,,,,,,,,,,,,15,,52,0
1079,note_on,,0,0,18,,,,,,,,,,,,,,,,15,,64,0
1079,note_on,,119,0,9,,,,,,,,,,,,,,,,5,,73,0
1079,note_on,,119,0,8,,,,,,,,,,,,,,,,4,,76,0
1079,note_on,,119,0,10,,,,,,,,,,,,,,,,6,,67,0
1079,note_on,,119,0,11,,,,,,,,,,,,,,,,7,,64,0
1079,note_on,,119,0,17,,,,,,,,,,,,,,,,13,,52,0
1079,note_on,,119,0,15,,,,,,,,,,,,,,,,11,,73,0
1079,note_on,,119,0,5,,,,,,,,,,,,,,,,1,,73,0
1080,note_on,,1,0,9,,,,,,,,,,,,,,,,5,,74,72
1080,note_on,,1,0,6,,,,,,,,,,,,,,,,2,,50,72
1080,note_on,,1,0,11,,,,,,,,,,,,,,,,7,,57,72
1080,note_on,,1,0,17,,,,,,,,,,,,,,,,13,,50,72
1080,note_on,,1,0,5,,,,,,,,,,,,,,,,1,,74,72
1080,note_on,,1,0,18,,,,,,,,,,,,,,,,15,,57,72
1080,note_on,,1,0,8,,,,,,,,,,,,,,,,4,,69,72
1080,note_on,,1,0,15,,,,,,,,,,,,,,,,11,,74,72
1080,note_on,,0,0,18,,,,,,,,,,,,,,,,15,,50,72
1080,note_on,,1,0,16,,,,,,,,,,,,,,,,12,,69,72
1080,note_on,,0,0,18,,,,,,,,,,,,,,,,15,,69,72
1080,note_on,,0,0,18,,,,,,,,,,,,,,,,15,,66,72
1080,note_on,,1,0,7,,,,,,,,,,,,,,,,3,,78,72
1080,note_on,,0,0,18,,,,,,,,,,,,,,,,15,,74,72
1080,note_on,,1,0,14,,,,,,,,,,,,,,,,10,,78,72
1080,note_on,,1,0,12,,,,,,,,,,,,,,,,8,,50,72
1080,note_on,,1,0,10,,,,,,,,,,,,,,,,6,,66,72
1199,note_on,,119,0,9,,,,,,,,,,,,,,,,5,,74,0
1199,note_on,,119,0,15,,,,,,,,,,,,,,,,11,,74,0
1199,note_on,,119,0,16,,,,,,,,,,,,,,,,12,,69,0
1199,note_on,,0,0,18,,,,,,,,,,,,,,,,15,,74,0
1199,note_on,,0,0,18,,,,,,,,,,,,,,,,15,,50,0
1199,note_on,,0,0,18,,,,,,,,,,,,,,,,15,,66,0
1199,note_on,,119,0,7,,,,,,,,,,,,,,,,3,,78,0
1199,note_on,,119,0,17,,,,,,,,,,,,,,,,13,,50,0
1199,note_on,,119,0,10,,,,,,,,,,,,,,,,6,,66,0
1199,note_on,,119,0,18,,,,,,,,,,,,,,,,15,,57,0
1199,note_on,,119,0,11,,,,,,,,,,,,,,,,7,,57,0
1199,note_on,,119,0,6,,,,,,,,,,,,,,,,2,,50,0
1199,note_on,,119,0,5,,,,,,,,,,,,,,,,1,,74,0
1199,note_on,,119,0,8,,,,,,,,,,,,,,,,4,,69,0
1199,note_on,,119,0,14,,,,,,,,,,,,,,,,10,,78,0
1199,note_on,,0,0,18,,,,,,,,,,,,,,,,15,,69,0
1199,note_on,,119,0,12,,,,,,,,,,,,,,,,8,,50,0
1200,note_on,,1,0,9,,,,,,,,,,,,,,,,5,,73,72
1200,note_on,,0,0,18,,,,,,,,,,,,,,,,15,,69,72
1200,note_on,,1,0,16,,,,,,,,,,,,,,,,12,,69,72
1200,note_on,,0,0,18,,,,,,,,,,,,,,,,15,,61,72
1200,note_on,,1,0,5,,,,,,,,,,,,,,,,1,,73,72
1200,note_on,,1,0,10,,,,,,,,,,,,,,,,6,,64,72
1200,note_on,,1,0,17,,,,,,,,,,,,,,,,13,,57,72
1200,note_on,,1,0,8,,,,,,,,,,,,,,,,4,,69,72
1200,note_on,,1,0,7,,,,,,,,,,,,,,,,3,,76,72
1200,note_on,,1,0,12,,,,,,,,,,,,,,,,8,,57,72
1200,note_on,,1,0,14,,,,,,,,,,,,,,,,10,,76,72
1200,note_on,,0,0,18,,,,,,,,,,,,,,,,15,,57,72
1200,note_on,,1,0,6,,,,,,,,,,,,,,,,2,,57,72
1200,note_on,,0,0,18,,,,,,,,,,,,,,,,15,,64,72
1200,note_on,,1,0,18,,,,,,,,,,,,,,,,15,,76,72
1200,note_on,,1,0,15,,,,,,,,,,,,,,,,11,,73,72
1200,note_on,,1,0,11,,,,,,,,,,,,,,,,7,,61,72
1439,note_on,,239,0,6,,,,,,,,,,,,,,,,2,,57,0
1439,note_on,,239,0,8,,,,,,,,,,,,,,,,4,,69,0
1439,note_on,,239,0,17,,,,,,,,,,,,,,,,13,,57,0
1439,note_on,,239,0,5,,,,,,,,,,,,,,,,1,,73,0
1439,note_on,,0,0,18,,,,,,,,,,,,,,,,15,,57,0
1439,note_on,,0,0,18,,,,,,,,,,,,,,,,15,,61,0
1439,note_on,,239,0,12,,,,,,,,,,,,,,,,8,,57,0
1439,note_on,,239,0,16,,,,,,,,,,,,,,,,12,,69,0
1439,note_on,,0,0,18,,,,,,,,,,,,,,,,15,,64,0
1439,note_on,,239,0,7,,,,,,,,,,,,,,,,3,,76,0
1439,note_on,,239,0,18,,,,,,,,,,,,,,,,15,,76,0
1439,note_on,,0,0,18,,,,,,,,,,,,,,,,15,,69,0
1439,note_on,,239,0,10,,,,,,,,,,,,,,,,6,,64,0
1439,note_on,,239,0,9,,,,,,,,,,,,,,,,5,,73,0
1439,note_on,,239,0,15,,,,,,,,,,,,,,,,11,,73,0
1439,note_on,,239,0,14,,,,,,,,,,,,,,,,10,,76,0
1439,note_on,,239,0,11,,,,,,,,,,,,,,,,7,,61,0
1560,note_on,,121,0,9,,,,,,,,,,,,,,,,5,,73,72
1560,note_on,,121,0,15,,,,,,,,,,,,,,,,11,,73,72
1560,note_on,,121,0,5,,,,,,,,,,,,,,,,1,,73,72
1560,note_on,,121,0,14,,,,,,,,,,,,,,,,10,,76,72
1560,note_on,,121,0,12,,,,,,,,,,,,,,,,8,,55,72
1560,note_on,,121,0,6,,,,,,,,,,,,,,,,2,,55,72
1560,note_on,,121,0,17,,,,,,,,,,,,,,,,13,,55,72
1560,note_on,,121,0,8,,,,,,,,,,,,,,,,4,,76,72
1560,note_on,,0,0,18,,,,,,,,,,,,,,,,15,,73,72
1560,note_on,,0,0,18,,,,,,,,,,,,,,,,15,,57,72
1560,note_on,,0,0,18,,,,,,,,,,,,,,,,15,,64,72
1560,note_on,,121,0,18,,,,,,,,,,,,,,,,15,,55,72
1560,note_on,,121,0,16,,,,,,,,,,,,,,,,12,,69,72
1560,note_on,,121,0,7,,,,,,,,,,,,,,,,3,,76,72
1560,note_on,,121,0,11,,,,,,,,,,,,,,,,7,,64,72
1560,note_on,,121,0,10,,,,,,,,,,,,,,,,6,,69,72
1560,note_on,,0,0,18,,,,,,,,,,,,,,,,15,,76,72
1619,note_on,,59,0,16,,,,,,,,,,,,,,,,12,,69,0
1620,note_on,,1,0,16,,,,,,,,,,,,,,,,12,,64,72
1679,note_on,,119,0,11,,,,,,,,,,,,,,,,7,,64,0
1679,note_on,,119,0,9,,,,,,,,,,,,,,,,5,,73,0
1679,note_on,,119,0,17,,,,,,,,,,,,,,,,13,,55,0
1679,note_on,,119,0,14,,,,,,,,,,,,,,,,10,,76,0
1679,note_on,,119,0,5,,,,,,,,,,,,,,,,1,,73,0
1679,note_on,,119,0,12,,,,,,,,,,,,,,,,8,,55,0
1679,note_on,,59,0,16,,,,,,,,,,,,,,,,12,,64,0
1679,note_on,,119,0,7,,,,,,,,,,,,,,,,3,,76,0
1679,note_on,,119,0,8,,,,,,,,,,,,,,,,4,,76,0
1679,note_on,,119,0,10,,,,,,,,,,,,,,,,6,,69,0
1679,note_on,,119,0,6,,,,,,,,,,,,,,,,2,,55,0
1679,note_on,,119,0,15,,,,,,,,,,,,,,,,11,,73,0
1679,note_on,,119,0,18,,,,,,,,,,,,,,,,15,,55,0
1679,note_on,,0,0,18,,,,,,,,,,,,,,,,15,,64,0
1679,note_on,,0,0,18,,,,,,,,,,,,,,,,15,,76,0
1679,note_on,,0,0,18,,,,,,,,,,,,,,,,15,,57,0
1679,note_on,,0,0,18,,,,,,,,,,,,,,,,15,,73,0
1680,note_on,,1,0,10,,,,,,,,,,,,,,,,6,,70,72
1680,note_on,,1,0,14,,,,,,,,,,,,,,,,10,,82,72
1680,note_on,,0,0,18,,,,,,,,,,,,,,,,15,,54,72
1680,note_on,,1,0,17,,,,,,,,,,,,,,,,13,,54,72
1680,note_on,,0,0,18,,,,,,,,,,,,,,,,15,,58,72
1680,note_on,,1,0,18,,,,,,,,,,,,,,,,15,,73,72
1680,note_on,,1,0,9,,,,,,,,,,,,,,,,5,,73,72
1680,note_on,,1,0,11,,,,,,,,,,,,,,,,7,,64,72
1680,note_on,,1,0,8,,,,,,,,,,,,,,,,4,,66,72
1680,note_on,,0,0,18,,,,,,,,,,,,,,,,15,,66,72
1680,note_on,,1,0,12,,,,,,,,,,,,,,,,8,,54,72
1680,note_on,,1,0,6,,,,,,,,,,,,,,,,2,,54,72
1680,note_on,,1,0,15,,,,,,,,,,,,,,,,11,,73,72
1680,note_on,,1,0,7,,,,,,,,,,,,,,,,3,,76,72
1680,note_on,,1,0,5,,,,,,,,,,,,,,,,1,,73,72
1680,note_on,,1,0,16,,,,,,,,,,,,,,,,12,,64,72
1680,note_on,,0,0,18,,,,,,,,,,,,,,,,15,,76,72
1859,note_on,,179,0,16,,,,,,,,,,,,,,,,12,,64,0
1859,note_on,,179,0,12,,,,,,,,,,,,,,,,8,,54,0
1859,note_on,,179,0,15,,,,,,,,,,,,,,,,11,,73,0
1859,note_on,,179,0,17,,,,,,,,,,,,,,,,13,,54,0
1859,note_on,,179,0,18,,,,,,,,,,,,,,,,15,,73,0
1859,note_on,,179,0,5,,,,,,,,,,,,,,,,1,,73,0
1859,note_on,,0,0,18,,,,,,,,,,,,,,,,15,,66,0
1859,note_on,,179,0,6,,,,,,,,,,,,,,,,2,,54,0
1859,note_on,,179,0,10,,,,,,,,,,,,,,,,6,,70,0
1859,note_on,,179,0,9,,,,,,,,,,,,,,,,5,,73,0
1859,note_on,,179,0,8,,,,,,,,,,,,,,,,4,,66,0
1859,note_on,,0,0,18,,,,,,,,,,,,,,,,15,,54,0
1859,note_on,,179,0,11,,,,,,,,,,,,,,,,7,,64,0
1859,note_on,,179,0,14,,,,,,,,,,,,,,,,10,,82,0
1859,note_on,,0,0,18,,,,,,,,,,,,,,,,15,,58,0
1859,note_on,,0,0,18,,,,,,,,,,,,,,,,15,,76,0
1859,note_on,,179,0,7,,,,,,,,,,,,,,,,3,,76,0
1860,note_on,,1,0,8,,,,,,,,,,,,,,,,4,,66,72
1860,note_on,,1,0,10,,,,,,,,,,,,,,,,6,,70,72
1860,note_on,,1,0,6,,,,,,,,,,,,,,,,2,,54,72
1860,note_on,,1,0,14,,,,,,,,,,,,,,,,10,,82,72
1860,note_on,,1,0,5,,,,,,,,,,,,,,,,1,,73,72
1860,note_on,,1,0,9,,,,,,,,,,,,,,,,5,,73,72
1860,note_on,,1,0,18,,,,,,,,,,,,,,,,15,,66,72
1860,note_on,,1,0,16,,,,,,,,,,,,,,,,12,,64,72
1860,note_on,,1,0,7,,,,,,,,,,,,,,,,3,,76,72
1860,note_on,,1,0,12,,,,,,,,,,,,,,,,8,,54,72
1860,note_on,,1,0,11,,,,,,,,,,,,,,,,7,,64,72
1860,note_on,,1,0,15,,,,,,,,,,,,,,,,11,,73,72
1860,note_on,,0,0,18,,,,,,,,,,,,,,,,15,,73,72
1860,note_on,,1,0,17,,,,,,,,,,,,,,,,13,,54,72
1860,note_on,,0,0,18,,,,,,,,,,,,,,,,15,,76,72
1860,note_on,,0,0,18,,,,,,,,,,,,,,,,15,,58,72
1860,note_on,,0,0,18,,,,,,,,,,,,,,,,15,,54,72
1919,note_on,,0,0,18,,,,,,,,,,,,,,,,15,,76,0
1919,note_on,,0,0,18,,,,,,,,,,,,,,,,15,,58,0
1919,note_on,,59,0,18,,,,,,,,,,,,,,,,15,,66,0
1919,note_on,,59,0,7,,,,,,,,,,,,,,,,3,,76,0
1919,note_on,,0,0,18,,,,,,,,,,,,,,,,15,,73,0
1919,note_on,,59,0,15,,,,,,,,,,,,,,,,11,,73,0
1919,note_on,,59,0,9,,,,,,,,,,,,,,,,5,,73,0
1919,note_on,,59,0,14,,,,,,,,,,,,,,,,10,,82,0
1919,note_on,,59,0,11,,,,,,,,,,,,,,,,7,,64,0
1919,note_on,,59,0,16,,,,,,,,,,,,,,,,12,,64,0
1919,note_on,,59,0,5,,,,,,,,,,,,,,,,1,,73,0
1919,note_on,,59,0,6,,,,,,,,,,,,,,,,2,,54,0
1919,note_on,,0,0,18,,,,,,,,,,,,,,,,15,,54,0
1919,note_on,,59,0,17,,,,,,,,,,,,,,,,13,,54,0
1919,note_on,,59,0,12,,,,,,,,,,,,,,,,8,,54,0
1919,note_on,,59,0,10,,,,,,,,,,,,,,,,6,,70,0
1919,note_on,,59,0,8,,,,,,,,,,,,,,,,4,,66,0
1920,note_on,,1,0,12,,,,,,,,,,,,,,,,8,,59,72
1920,note_on,,1,0,7,,,,,,,,,,,,,,,,3,,74,72
1920,note_on,,1,0,16,,,,,,,,,,,,,,,,12,,62,72
1920,note_on,,1,0,11,,,,,,,,,,,,,,,,7,,62,72
1920,note_on,,1,0,14,,,,,,,,,,,,,,,,10,,83,72
1920,note_on,,1,0,9,,,,,,,,,,,,,,,,5,,74,72
1920,note_on,,1,0,17,,,,,,,,,,,,,,,,13,,59,72
1920,note_on,,1,0,15,,,,,,,,,,,,,,,,11,,74,72
1920,note_on,,1,0,5,,,,,,,,,,,,,,,,1,,74,72
1920,note_on,,1,0,8,,,,,,,,,,,,,,,,4,,66,72
1920,note_on,,1,0,10,,,,,,,,,,,,,,,,6,,71,72
1920,note_on,,0,0,18,,,,,,,,,,,,,,,,15,,74,72
1920,note_on,,0,0,18,,,,,,,,,,,,,,,,15,,71,72
1920,note_on,,0,0,18,,,,,,,,,,,,,,,,15,,59,72
1920,note_on,,1,0,18,,,,,,,,,,,,,,,,15,,66,72
1920,note_on,,0,0,18,,,,,,,,,,,,,,,,15,,62,72
1920,note_on,,1,0,6,,,,,,,,,,,,,,,,2,,59,72
2099,note_on,,179,0,8,,,,,,,,,,,,,,,,4,,66,0
2099,note_on,,179,0,12,,,,,,,,,,,,,,,,8,,59,0
2099,note_on,,179,0,7,,,,,,,,,,,,,,,,3,,74,0
2099,note_on,,179,0,16,,,,,,,,,,,,,,,,12,,62,0
2099,note_on,,179,0,11,,,,,,,,,,,,,,,,7,,62,0
2099,note_on,,0,0,18,,,,,,,,,,,,,,,,15,,74,0
2099,note_on,,179,0,14,,,,,,,,,,,,,,,,10,,83,0
2099,note_on,,179,0,17,,,,,,,,,,,,,,,,13,,59,0
2099,note_on,,179,0,9,,,,,,,,,,,,,,,,5,,74,0
2099,note_on,,179,0,15,,,,,,,,,,,,,,,,11,,74,0
2099,note_on,,179,0,6,,,,,,,,,,,,,,,,2,,59,0
2099,note_on,,0,0,18,,,,,,,,,,,,,,,,15,,62,0
2099,note_on,,179,0,10,,,,,,,,,,,,,,,,6,,71,0
2099,note_on,,0,0,18,,,,,,,,,,,,,,,,15,,71,0
2099,note_on,,179,0,18,,,,,,,,,,,,,,,,15,,66,0
2099,note_on,,0,0,18,,,,,,,,,,,,,,,,15,,59,0
2099,note_on,,179,0,5,,,,,,,,,,,,,,,,1,,74,0
2100,note_on,,1,0,12,,,,,,,,,,,,,,,,8,,59,72
2100,note_on,,1,0,16,,,,,,,,,,,,,,,,12,,66,72
2100,note_on,,1,0,5,,,,,,,,,,,,,,,,1,,74,72
2100,note_on,,1,0,11,,,,,,,,,,,,,,,,7,,62,72
2100,note_on,,1,0,18,,,,,,,,,,,,,,,,15,,59,72
2100,note_on,,1,0,7,,,,,,,,,,,,,,,,3,,74,72
2100,note_on,,1,0,10,,,,,,,,,,,,,,,,6,,66,72
2100,note_on,,1,0,15,,,,,,,,,,,,,,,,11,,74,72
2100,note_on,,0,0,18,,,,,,,,,,,,,,,,15,,62,72
2100,note_on,,1,0,14,,,,,,,,,,,,,,,,10,,83,72
2100,note_on,,0,0,18,,,,,,,,,,,,,,,,15,,74,72
2100,note_on,,1,0,6,,,,,,,,,,,,,,,,2,,59,72
2100,note_on,,1,0,9,,,,,,,,,,,,,,,,5,,74,72
2100,note_on,,0,0,18,,,,,,,,,,,,,,,,15,,66,72
2100,note_on,,1,0,8,,,,,,,,,,,,,,,,4,,66,72
2100,note_on,,0,0,18,,,,,,,,,,,,,,,,15,,71,72
2100,note_on,,1,0,17,,,,,,,,,,,,,,,,13,,59,72
2159,note_on,,59,0,17,,,,,,,,,,,,,,,,13,,59,0
2159,note_on,,59,0,12,,,,,,,,,,,,,,,,8,,59,0
2159,note_on,,59,0,9,,,,,,,,,,,,,,,,5,,74,0
2159,note_on,,59,0,10,,,,,,,,,,,,,,,,6,,66,0
2159,note_on,,59,0,7,,,,,,,,,,,,,,,,3,,74,0
2159,note_on,,59,0,5,,,,,,,,,,,,,,,,1,,74,0
2159,note_on,,59,0,8,,,,,,,,,,,,,,,,4,,66,0
2159,note_on,,0,0,18,,,,,,,,,,,,,,,,15,,66,0
2159,note_on,,0,0,18,,,,,,,,,,,,,,,,15,,74,0
2159,note_on,,0,0,18,,,,,,,,,,,,,,,,15,,62,0
2159,note_on,,0,0,18,,,,,,,,,,,,,,,,15,,71,0
2159,note_on,,59,0,6,,,,,,,,,,,,,,,,2,,59,0
2159,note_on,,59,0,18,,,,,,,,,,,,,,,,15,,59,0
2159,note_on,,59,0,15,,,,,,,,,,,,,,,,11,,74,0
2159,note_on,,59,0,11,,,,,,,,,,,,,,,,7,,62,0
2159,note_on,,59,0,16,,,,,,,,,,,,,,,,12,,66,0
2159,note_on,,59,0,14,,,,,,,,,,,,,,,,10,,83,0
2160,note_on,,1,0,5,,,,,,,,,,,,,,,,1,,74,72
2160,note_on,,0,0,18,,,,,,,,,,,,,,,,15,,74,72
2160,note_on,,1,0,10,,,,,,,,,,,,,,,,6,,66,72
2160,note_on,,1,0,16,,,,,,,,,,,,,,,,12,,66,72
2160,note_on,,1,0,11,,,,,,,,,,,,,,,,7,,62,72
2160,note_on,,1,0,18,,,,,,,,,,,,,,,,15,,59,72
2160,note_on,,0,0,18,,,,,,,,,,,,,,,,15,,71,72
2160,note_on,,0,0,18,,,,,,,,,,,,,,,,15,,66,72
2160,note_on,,0,0,18,,,,,,,,,,,,,,,,15,,62,72
2160,note_on,,1,0,15,,,,,,,,,,,,,,,,11,,74,72
2160,note_on,,1,0,14,,,,,,,,,,,,,,,,10,,83,72
2160,note_on,,1,0,12,,,,,,,,,,,,,,,,8,,59,72
2160,note_on,,1,0,9,,,,,,,,,,,,,,,,5,,74,72
2160,note_on,,1,0,8,,,,,,,,,,,,,,,,4,,66,72
2160,note_on,,1,0,6,,,,,,,,,,,,,,,,2,,59,72
2160,note_on,,1,0,7,,,,,,,,,,,,,,,,3,,74,72
2160,note_on,,1,0,17,,,,,,,,,,,,,,,,13,,59,72
2279,note_on,,119,0,8,,,,,,,,,,,,,,,,4,,66,0
2279,note_on,,119,0,14,,,,,,,,,,,,,,,,10,,83,0
2279,note_on,,119,0,11,,,,,,,,,,,,,,,,7,,62,0
2279,note_on,,0,0,18,,,,,,,,,,,,,,,,15,,62,0
2279,note_on,,119,0,16,,,,,,,,,,,,,,,,12,,66,0
2279,note_on,,119,0,17,,,,,,,,,,,,,,,,13,,59,0
2279,note_on,,119,0,18,,,,,,,,,,,,,,,,15,,59,0
2279,note_on,,0,0,18,,,,,,,,,,,,,,,,15,,66,0
2279,note_on,,119,0,12,,,,,,,,,,,,,,,,8,,59,0
2279,note_on,,0,0,18,,,,,,,,,,,,,,,,15,,74,0
2279,note_on,,119,0,6,,,,,,,,,,,,,,,,2,,59,0
2279,note_on,,119,0,10,,,,,,,,,,,,,,,,6,,66,0
2279,note_on,,0,0,18,,,,,,,,,,,,,,,,15,,71,0
2280,note_on,,0,0,18,,,,,,,,,,,,,,,,15,,74,72
2280,note_on,,1,0,6,,,,,,,,,,,,,,,,2,,59,72
2280,note_on,,1,0,16,,,,,,,,,,,,,,,,12,,66,72
2280,note_on,,1,0,17,,,,,,,,,,,,,,,,13,,59,72
2280,note_on,,1,0,8,,,,,,,,,,,,,,,,4,,66,72
2280,note_on,,1,0,14,,,,,,,,,,,,,,,,10,,86,72
2280,note_on,,0,0,18,,,,,,,,,,,,,,,,15,,59,72
2280,note_on,,1,0,11,,,,,,,,,,,,,,,,7,,62,72
2280,note_on,,0,0,18,,,,,,,,,,,,,,,,15,,83,72
2280,note_on,,1,0,18,,,,,,,,,,,,,,,,15,,78,72
2280,note_on,,0,0,18,,,,,,,,,,,,,,,,15,,62,72
2280,note_on,,1,0,10,,,,,,,,,,,,,,,,6,,66,72
2280,note_on,,1,0,12,,,,,,,,,,,,,,,,8,,59,72
2339,note_on,,179,0,7,,,,,,,,,,,,,,,,3,,74,0
2339,note_on,,179,0,5,,,,,,,,,,,,,,,,1,,74,0
2339,note_on,,179,0,9,,,,,,,,,,,,,,,,5,,74,0
2339,note_on,,179,0,15,,,,,,,,,,,,,,,,11,,74,0
2340,note_on,,1,0,5,,,,,,,,,,,,,,,,1,,76,72
2340,note_on,,1,0,9,,,,,,,,,,,,,,,,5,,76,72
2340,note_on,,1,0,15,,,,,,,,,,,,,,,,11,,76,72
2340,note_on,,1,0,7,,,,,,,,,,,,,,,,3,,76,72
2399,note_on,,0,0,18,,,,,,,,,,,,,,,,15,,62,0
2399,note_on,,119,0,16,,,,,,,,,,,,,,,,12,,66,0
2399,note_on,,0,0,18,,,,,,,,,,,,,,,,15,,74,0
2399,note_on,,119,0,18,,,,,,,,,,,,,,,,15,,78,0
2399,note_on,,119,0,11,,,,,,,,,,,,,,,,7,,62,0
2399,note_on,,119,0,6,,,,,,,,,,,,,,,,2,,59,0
2399,note_on,,119,0,17,,,,,,,,,,,,,,,,13,,59,0
2399,note_on,,0,0,18,,,,,,,,,,,,,,,,15,,83,0
2399,note_on,,59,0,15,,,,,,,,,,,,,,,,11,,76,0
2399,note_on,,119,0,12,,,,,,,,,,,,,,,,8,,59,0
2399,note_on,,59,0,9,,,,,,,,,,,,,,,,5,,76,0
2399,note_on,,119,0,8,,,,,,,,,,,,,,,,4,,66,0
2399,note_on,,0,0,18,,,,,,,,,,,,,,,,15,,59,0
2399,note_on,,119,0,14,,,,,,,,,,,,,,,,10,,86,0
2399,note_on,,59,0,5,,,,,,,,,,,,,,,,1,,76,0
2399,note_on,,59,0,7,,,,,,,,,,,,,,,,3,,76,0
2399,note_on,,119,0,10,,,,,,,,,,,,,,,,6,,66,0
2400,note_on,,1,0,10,,,,,,,,,,,,,,,,6,,66,72
2400,note_on,,1,0,9,,,,,,,,,,,,,,,,5,,78,72
2400,note_on,,1,0,12,,,,,,,,,,,,,,,,8,,57,72
2400,note_on,,1,0,5,,,,,,,,,,,,,,,,1,,78,72
2400,note_on,,1,0,6,,,,,,,,,,,,,,,,2,,57,72
2400,note_on,,1,0,15,,,,,,,,,,,,,,,,11,,78,72
2400,note_on,,1,0,17,,,,,,,,,,,,,,,,13,,57,72
2400,note_on,,1,0,8,,,,,,,,,,,,,,,,4,,66,72
2400,note_on,,1,0,11,,,,,,,,,,,,,,,,7,,61,72
2400,note_on,,1,0,14,,,,,,,,,,,,,,,,10,,85,72
2400,note_on,,1,0,16,,,,,,,,,,,,,,,,12,,66,72
2400,note_on,,1,0,18,,,,,,,,,,,,,,,,15,,73,72
2400,note_on,,0,0,18,,,,,,,,,,,,,,,,15,,78,72
2400,note_on,,1,0,7,,,,,,,,,,,,,,,,3,,78,72
2400,note_on,,0,0,18,,,,,,,,,,,,,,,,15,,57,72
2400,note_on,,0,0,18,,,,,,,,,,,,,,,,15,,66,72
2400,note_on,,0,0,18,,,,,,,,,,,,,,,,15,,61,72
2519,note_on,,119,0,7,,,,,,,,,,,,,,,,3,,78,0
2519,note_on,,119,0,15,,,,,,,,,,,,,,,,11,,78,0
2519,note_on,,119,0,5,,,,,,,,,,,,,,,,1,,78,0
2519,note_on,,119,0,9,,,,,,,,,,,,,,,,5,,78,0
2519,note_on,,119,0,8,,,,,,,,,,,,,,,,4,,66,0
2519,note_on,,119,0,16,,,,,,,,,,,,,,,,12,,66,0
2520,note_on,,1,0,8,,,,,,,,,,,,,,,,4,,66,72
2520,note_on,,1,0,9,,,,,,,,,,,,,,,,5,,78,72
2520,note_on,,1,0,5,,,,,,,,,,,,,,,,1,,78,72
2520,note_on,,1,0,15,,,,,,,,,,,,,,,,11,,78,72
2520,note_on,,1,0,7,,,,,,,,,,,,,,,,3,,78,72
2520,note_on,,1,0,16,,,,,,,,,,,,,,,,12,,61,72
2579,note_on,,179,0,14,,,,,,,,,,,,,,,,10,,85,0
2580,note_on,,1,0,14,,,,,,,,,,,,,,,,10,,86,72
2639,note_on,,239,0,10,,,,,,,,,,,,,,,,6,,66,0
2639,note_on,,239,0,6,,,,,,,,,,,,,,,,2,,57,0
2639,note_on,,59,0,14,,,,,,,,,,,,,,,,10,,86,0
2639,note_on,,239,0,17,,,,,,,,,,,,,,,,13,,57,0
2639,note_on,,119,0,8,,,,,,,,,,,,,,,,4,,66,0
2639,note_on,,239,0,12,,,,,,,,,,,,,,,,8,,57,0
2639,note_on,,0,0,18,,,,,,,,,,,,,,,,15,,61,0
2639,note_on,,0,0,18,,,,,,,,,,,,,,,,15,,66,0
2639,note_on,,239,0,18,,,,,,,,,,,,,,,,15,,73,0
2639,note_on,,0,0,18,,,,,,,,,,,,,,,,15,,57,0
2639,note_on,,239,0,11,,,,,,,,,,,,,,,,7,,61,0
2639,note_on,,119,0,16,,,,,,,,,,,,,,,,12,,61,0
2639,note_on,,0,0,18,,,,,,,,,,,,,,,,15,,78,0
2640,note_on,,1,0,18,,,,,,,,,,,,,,,,15,,59,72
2640,note_on,,1,0,14,,,,,,,,,,,,,,,,10,,83,72
2640,note_on,,1,0,8,,,,,,,,,,,,,,,,4,,62,72
2640,note_on,,1,0,16,,,,,,,,,,,,,,,,12,,62,72
2640,note_on,,1,0,12,,,,,,,,,,,,,,,,8,,55,72
2640,note_on,,0,0,18,,,,,,,,,,,,,,,,15,,74,72
2640,note_on,,0,0,18,,,,,,,,,,,,,,,,15,,71,72
2640,note_on,,1,0,10,,,,,,,,,,,,,,,,6,,71,72
2640,note_on,,1,0,6,,,,,,,,,,,,,,,,2,,55,72
2640,note_on,,1,0,11,,,,,,,,,,,,,,,,7,,62,72
2640,note_on,,1,0,17,,,,,,,,,,,,,,,,13,,55,72
2640,note_on,,0,0,18,,,,,,,,,,,,,,,,15,,55,72
2759,note_on,,0,0,18,,,,,,,,,,,,,,,,15,,74,0
2759,note_on,,239,0,9,,,,,,,,,,,,,,,,5,,78,0
2759,note_on,,239,0,15,,,,,,,,,,,,,,,,11,,78,0
2759,note_on,,119,0,16,,,,,,,,,,,,,,,,12,,62,0
2759,note_on,,119,0,11,,,,,,,,,,,,,,,,7,,62,0
2759,note_on,,119,0,18,,,,,,,,,,,,,,,,15,,71,0
2759,note_on,,119,0,8,,,,,,,,,,,,,,,,4,,62,0
2759,note_on,,239,0,5,,,,,,,,,,,,,,,,1,,78,0
2759,note_on,,239,0,7,,,,,,,,,,,,,,,,3,,78,0
2760,note_on,,1,0,7,,,,,,,,,,,,,,,,3,,76,72
2760,note_on,,0,0,18,,,,,,,,,,,,,,,,15,,67,72
2760,note_on,,1,0,9,,,,,,,,,,,,,,,,5,,76,72
2760,note_on,,1,0,8,,,,,,,,,,,,,,,,4,,76,72
2760,note_on,,0,0,18,,,,,,,,,,,,,,,,15,,76,72
2760,note_on,,1,0,18,,,,,,,,,,,,,,,,15,,71,72
2760,note_on,,1,0,11,,,,,,,,,,,,,,,,7,,59,72
2760,note_on,,1,0,15,,,,,,,,,,,,,,,,11,,76,72
2760,note_on,,1,0,16,,,,,,,,,,,,,,,,12,,59,72
2760,note_on,,1,0,5,,,,,,,,,,,,,,,,1,,76,72
2819,note_on,,179,0,14,,,,,,,,,,,,,,,,10,,83,0
2819,note_on,,179,0,17,,,,,,,,,,,,,,,,13,,55,0
2819,note_on,,0,0,18,,,,,,,,,,,,,,,,15,,55,0
2819,note_on,,59,0,16,,,,,,,,,,,,,,,,12,,59,0
2819,note_on,,59,0,18,,,,,,,,,,,,,,,,15,,59,0
2819,note_on,,179,0,12,,,,,,,,,,,,,,,,8,,55,0
2819,note_on,,179,0,6,,,,,,,,,,,,,,,,2,,55,0
2819,note_on,,179,0,10,,,,,,,,,,,,,,,,6,,71,0
2820,note_on,,1,0,17,,,,,,,,,,,,,,,,13,,55,72
2820,note_on,,1,0,10,,,,,,,,,,,,,,,,6,,71,72
2820,note_on,,1,0,6,,,,,,,,,,,,,,,,2,,55,72
2820,note_on,,1,0,12,,,,,,,,,,,,,,,,8,,55,72
2820,note_on,,1,0,18,,,,,,,,,,,,,,,,15,,55,72
2820,note_on,,1,0,16,,,,,,,,,,,,,,,,12,,71,72
2820,note_on,,0,0,18,,,,,,,,,,,,,,,,15,,59,72
2820,note_on,,1,0,14,,,,,,,,,,,,,,,,10,,83,72
2879,note_on,,59,0,10,,,,,,,,,,,,,,,,6,,71,0
2879,note_on,,0,0,18,,,,,,,,,,,,,,,,15,,55,0
2879,note_on,,119,0,15,,,,,,,,,,,,,,,,11,,76,0
2879,note_on,,59,0,18,,,,,,,,,,,,,,,,15,,71,0
2879,note_on,,119,0,9,,,,,,,,,,,,,,,,5,,76,0
2879,note_on,,0,0,18,,,,,,,,,,,,,,,,15,,67,0
2879,note_on,,0,0,18,,,,,,,,,,,,,,,,15,,59,0
2879,note_on,,59,0,17,,,,,,,,,,,,,,,,13,,55,0
2879,note_on,,0,0,18,,,,,,,,,,,,,,,,15,,76,0
2879,note_on,,119,0,7,,,,,,,,,,,,,,,,3,,76,0
2879,note_on,,59,0,6,,,,,,,,,,,,,,,,2,,55,0
2879,note_on,,119,0,8,,,,,,,,,,,,,,,,4,,76,0
2879,note_on,,119,0,5,,,,,,,,,,,,,,,,1,,76,0
2879,note_on,,119,0,11,,,,,,,,,,,,,,,,7,,59,0
2879,note_on,,59,0,16,,,,,,,,,,,,,,,,12,,71,0
2879,note_on,,59,0,12,,,,,,,,,,,,,,,,8,,55,0
2879,note_on,,59,0,14,,,,,,,,,,,,,,,,10,,83,0
2880,note_on,,1,0,18,,,,,,,,,,,,,,,,15,,78,72
2880,note_on,,0,0,18,,,,,,,,,,,,,,,,15,,58,72
2880,note_on,,0,0,18,,,,,,,,,,,,,,,,15,,61,72
2880,note_on,,0,0,18,,,,,,,,,,,,,,,,15,,54,72
2880,note_on,,1,0,10,,,,,,,,,,,,,,,,6,,70,72
2880,note_on,,1,0,15,,,,,,,,,,,,,,,,11,,78,72
2880,note_on,,1,0,17,,,,,,,,,,,,,,,,13,,54,72
2880,note_on,,1,0,8,,,,,,,,,,,,,,,,4,,66,72
2880,note_on,,1,0,11,,,,,,,,,,,,,,,,7,,61,72
2880,note_on,,1,0,16,,,,,,,,,,,,,,,,12,,73,72
2880,note_on,,0,0,18,,,,,,,,,,,,,,,,15,,73,72
2880,note_on,,1,0,9,,,,,,,,,,,,,,,,5,,78,72
2880,note_on,,1,0,12,,,,,,,,,,,,,,,,8,,54,72
2880,note_on,,1,0,6,,,,,,,,,,,,,,,,2,,54,72
2880,note_on,,1,0,5,,,,,,,,,,,,,,,,1,,78,72
2880,note_on,,1,0,7,,,,,,,,,,,,,,,,3,,78,72
2880,note_on,,1,0,14,,,,,,,,,,,,,,,,10,,82,72
3119,note_on,,239,0,5,,,,,,,,,,,,,,,,1,,78,0
3119,note_on,,239,0,11,,,,,,,,,,,,,,,,7,,61,0
3119,note_on,,239,0,6,,,,,,,,,,,,,,,,2,,54,0
3119,note_on,,239,0,15,,,,,,,,,,,,,,,,11,,78,0
3119,note_on,,0,0,18,,,,,,,,,,,,,,,,15,,73,0
3119,note_on,,239,0,14,,,,,,,,,,,,,,,,10,,82,0
3119,note_on,,239,0,16,,,,,,,,,,,,,,,,12,,73,0
3119,note_on,,239,0,17,,,,,,,,,,,,,,,,13,,54,0
3119,note_on,,239,0,8,,,,,,,,,,,,,,,,4,,66,0
3119,note_on,,239,0,7,,,,,,,,,,,,,,,,3,,78,0
3119,note_on,,0,0,18,,,,,,,,,,,,,,,,15,,58,0
3119,note_on,,239,0,12,,,,,,,,,,,,,,,,8,,54,0
3119,note_on,,239,0,10,,,,,,,,,,,,,,,,6,,70,0
3119,note_on,,0,0,18,,,,,,,,,,,,,,,,15,,61,0
3119,note_on,,0,0,18,,,,,,,,,,,,,,,,15,,54,0
3119,note_on,,239,0,9,,,,,,,,,,,,,,,,5,,78,0
3119,note_on,,239,0,18,,,,,,,,,,,,,,,,15,,78,0
3120,set_tempo,,3120,1,0,,,,,,,,,705882,,,,,,,,,,
3180,note_on,,61,0,8,,,,,,,,,,,,,,,,4,,66,72
3180,note_on,,61,0,11,,,,,,,,,,,,,,,,7,,58,72
3180,note_on,,61,0,15,,,,,,,,,,,,,,,,11,,82,72
3180,note_on,,61,0,10,,,,,,,,,,,,,,,,6,,66,72
3180,note_on,,61,0,17,,,,,,,,,,,,,,,,13,,54,72
3180,note_on,,61,0,14,,,,,,,,,,,,,,,,10,,85,72
3180,note_on,,61,0,5,,,,,,,,,,,,,,,,1,,73,72
3180,note_on,,61,0,6,,,,,,,,,,,,,,,,2,,54,72
3180,note_on,,0,0,18,,,,,,,,,,,,,,,,15,,58,72
3180,note_on,,0,0,18,,,,,,,,,,,,,,,,15,,78,72
3180,note_on,,0,0,18,,,,,,,,,,,,,,,,15,,73,72
3180,note_on,,0,0,18,,,,,,,,,,,,,,,,15,,70,72
3180,note_on,,61,0,18,,,,,,,,,,,,,,,,15,,54,72
3180,note_on,,61,0,16,,,,,,,,,,,,,,,,12,,66,72
3180,note_on,,61,0,12,,,,,,,,,,,,,,,,8,,54,72
3180,note_on,,61,0,9,,,,,,,,,,,,,,,,5,,73,72
3180,note_on,,61,0,7,,,,,,,,,,,,,,,,3,,78,72
3239,note_on,,59,0,11,,,,,,,,,,,,,,,,7,,58,0
3239,note_on,,0,0,18,,,,,,,,,,,,,,,,15,,58,0
3239,note_on,,59,0,17,,,,,,,,,,,,,,,,13,,54,0
3239,note_on,,59,0,8,,,,,,,,,,,,,,,,4,,66,0
3239,note_on,,0,0,18,,,,,,,,,,,,,,,,15,,78,0
3239,note_on,,59,0,9,,,,,,,,,,,,,,,,5,,73,0
3239,note_on,,59,0,16,,,,,,,,,,,,,,,,12,,66,0
3239,note_on,,59,0,18,,,,,,,,,,,,,,,,15,,54,0
3239,note_on,,59,0,10,,,,,,,,,,,,,,,,6,,66,0
3239,note_on,,0,0,18,,,,,,,,,,,,,,,,15,,70,0
3239,note_on,,59,0,12,,,,,,,,,,,,,,,,8,,54,0
3239,note_on,,59,0,15,,,,,,,,,,,,,,,,11,,82,0
3239,note_on,,59,0,14,,,,,,,,,,,,,,,,10,,85,0
3239,note_on,,59,0,7,,,,,,,,,,,,,,,,3,,78,0
3239,note_on,,59,0,5,,,,,,,,,,,,,,,,1,,73,0
3239,note_on,,0,0,18,,,,,,,,,,,,,,,,15,,73,0
3239,note_on,,59,0,6,,,,,,,,,,,,,,,,2,,54,0
3240,note_on,,1,0,10,,,,,,,,,,,,,,,,6,,66,72
3240,note_on,,0,0,18,,,,,,,,,,,,,,,,15,,78,72
3240,note_on,,0,0,18,,,,,,,,,,,,,,,,15,,70,72
3240,note_on,,1,0,5,,,,,,,,,,,,,,,,1,,73,72
3240,note_on,,1,0,11,,,,,,,,,,,,,,,,7,,58,72
3240,note_on,,0,0,18,,,,,,,,,,,,,,,,15,,73,72
3240,note_on,,1,0,7,,,,,,,,,,,,,,,,3,,78,72
3240,note_on,,0,0,18,,,,,,,,,,,,,,,,15,,58,72
3240,note_on,,1,0,15,,,,,,,,,,,,,,,,11,,82,72
3240,note_on,,1,0,16,,,,,,,,,,,,,,,,12,,66,72
3240,note_on,,1,0,14,,,,,,,,,,,,,,,,10,,85,72
3240,note_on,,1,0,6,,,,,,,,,,,,,,,,2,,54,72
3240,note_on,,1,0,8,,,,,,,,,,,,,,,,4,,66,72
3240,note_on,,1,0,18,,,,,,,,,,,,,,,,15,,54,72
3240,note_on,,1,0,12,,,,,,,,,,,,,,,,8,,54,72
3240,note_on,,1,0,17,,,,,,,,,,,,,,,,13,,54,72
3240,note_on,,1,0,9,,,,,,,,,,,,,,,,5,,73,72
3299,note_on,,59,0,15,,,,,,,,,,,,,,,,11,,82,0
3299,note_on,,59,0,6,,,,,,,,,,,,,,,,2,,54,0
3299,note_on,,0,0,18,,,,,,,,,,,,,,,,15,,73,0
3299,note_on,,59,0,9,,,,,,,,,,,,,,,,5,,73,0
3299,note_on,,59,0,7,,,,,,,,,,,,,,,,3,,78,0
3299,note_on,,59,0,10,,,,,,,,,,,,,,,,6,,66,0
3299,note_on,,59,0,14,,,,,,,,,,,,,,,,10,,85,0
3299,note_on,,0,0,18,,,,,,,,,,,,,,,,15,,70,0
3299,note_on,,0,0,18,,,,,,,,,,,,,,,,15,,58,0
3299,note_on,,59,0,16,,,,,,,,,,,,,,,,12,,66,0
3299,note_on,,0,0,18,,,,,,,,,,,,,,,,15,,78,0
3299,note_on,,59,0,18,,,,,,,,,,,,,,,,15,,54,0
3299,note_on,,59,0,17,,,,,,,,,,,,,,,,13,,54,0
3299,note_on,,59,0,5,,,,,,,,,,,,,,,,1,,73,0
3299,note_on,,59,0,8,,,,,,,,,,,,,,,,4,,66,0
3299,note_on,,59,0,11,,,,,,,,,,,,,,,,7,,58,0
3299,note_on,,59,0,12,,,,,,,,,,,,,,,,8,,54,0
3300,note_on,,1,0,16,,,,,,,,,,,,,,,,12,,66,72
3300,note_on,,1,0,9,,,,,,,,,,,,,,,,5,,73,72
3300,note_on,,1,0,6,,,,,,,,,,,,,,,,2,,54,72
3300,note_on,,1,0,17,,,,,,,,,,,,,,,,13,,54,72
3300,note_on,,0,0,18,,,,,,,,,,,,,,,,15,,58,72
3300,note_on,,1,0,15,,,,,,,,,,,,,,,,11,,82,72
3300,note_on,,1,0,8,,,,,,,,,,,,,,,,4,,66,72
3300,note_on,,1,0,12,,,,,,,,,,,,,,,,8,,54,72
3300,note_on,,1,0,7,,,,,,,,,,,,,,,,3,,78,72
3300,note_on,,1,0,11,,,,,,,,,,,,,,,,7,,58,72
3300,note_on,,1,0,10,,,,,,,,,,,,,,,,6,,66,72
3300,note_on,,1,0,14,,,,,,,,,,,,,,,,10,,85,72
3300,note_on,,1,0,5,,,,,,,,,,,,,,,,1,,73,72
3300,note_on,,0,0,18,,,,,,,,,,,,,,,,15,,73,72
3300,note_on,,0,0,18,,,,,,,,,,,,,,,,15,,70,72
3300,note_on,,1,0,18,,,,,,,,,,,,,,,,15,,54,72
3300,note_on,,0,0,18,,,,,,,,,,,,,,,,15,,78,72
3359,note_on,,59,0,17,,,,,,,,,,,,,,,,13,,54,0
3359,note_on,,59,0,12,,,,,,,,,,,,,,,,8,,54,0
3359,note_on,,59,0,6,,,,,,,,,,,,,,,,2,,54,0
3359,note_on,,59,0,9,,,,,,,,,,,,,,,,5,,73,0
3359,note_on,,59,0,7,,,,,,,,,,,,,,,,3,,78,0
3359,note_on,,59,0,14,,,,,,,,,,,,,,,,10,,85,0
3359,note_on,,59,0,18,,,,,,,,,,,,,,,,15,,54,0
3359,note_on,,0,0,18,,,,,,,,,,,,,,,,15,,58,0
3359,note_on,,59,0,16,,,,,,,,,,,,,,,,12,,66,0
3359,note_on,,59,0,5,,,,,,,,,,,,,,,,1,,73,0
3359,note_on,,0,0,18,,,,,,,,,,,,,,,,15,,78,0
3359,note_on,,0,0,18,,,,,,,,,,,,,,,,15,,73,0
3359,note_on,,59,0,11,,,,,,,,,,,,,,,,7,,58,0
3359,note_on,,0,0,18,,,,,,,,,,,,,,,,15,,70,0
3359,note_on,,59,0,8,,,,,,,,,,,,,,,,4,,66,0
3359,note_on,,59,0,10,,,,,,,,,,,,,,,,6,,66,0
3359,note_on,,59,0,15,,,,,,,,,,,,,,,,11,,82,0
3360,note_on,,1,0,7,,,,,,,,,,,,,,,,3,,74,72
3360,note_on,,1,0,8,,,,,,,,,,,,,,,,4,,66,72
3360,note_on,,0,0,18,,,,,,,,,,,,,,,,15,,59,72
3360,note_on,,1,0,11,,,,,,,,,,,,,,,,7,,59,72
3360,note_on,,1,0,12,,,,,,,,,,,,,,,,8,,59,72
3360,note_on,,1,0,17,,,,,,,,,,,,,,,,13,,59,72
3360,note_on,,1,0,16,,,,,,,,,,,,,,,,12,,66,72
3360,note_on,,1,0,10,,,,,,,,,,,,,,,,6,,66,72
3360,note_on,,1,0,14,,,,,,,,,,,,,,,,10,,86,72
3360,note_on,,0,0,18,,,,,,,,,,,,,,,,15,,66,72
3360,note_on,,0,0,18,,,,,,,,,,,,,,,,15,,62,72
3360,note_on,,1,0,5,,,,,,,,,,,,,,,,1,,74,72
3360,note_on,,0,0,18,,,,,,,,,,,,,,,,15,,71,72
3360,note_on,,1,0,6,,,,,,,,,,,,,,,,2,,59,72
3360,note_on,,1,0,9,,,,,,,,,,,,,,,,5,,74,72
3360,note_on,,1,0,15,,,,,,,,,,,,,,,,11,,78,72
3360,note_on,,3360,0,13,,,,,,,,,,,,,,,,14,,50,72
3360,note_on,,1,0,18,,,,,,,,,,,,,,,,15,,74,72
3419,note_on,,0,0,18,,,,,,,,,,,,,,,,15,,59,0
3419,note_on,,59,0,16,,,,,,,,,,,,,,,,12,,66,0
3419,note_on,,59,0,17,,,,,,,,,,,,,,,,13,,59,0
3419,note_on,,59,0,13,,,,,,,,,,,,,,,,14,,50,0
3419,note_on,,59,0,11,,,,,,,,,,,,,,,,7,,59,0
3419,note_on,,59,0,14,,,,,,,,,,,,,,,,10,,86,0
3419,note_on,,59,0,15,,,,,,,,,,,,,,,,11,,78,0
3419,note_on,,59,0,10,,,,,,,,,,,,,,,,6,,66,0
3419,note_on,,59,0,8,,,,,,,,,,,,,,,,4,,66,0
3419,note_on,,59,0,9,,,,,,,,,,,,,,,,5,,74,0
3419,note_on,,59,0,6,,,,,,,,,,,,,,,,2,,59,0
3419,note_on,,59,0,7,,,,,,,,,,,,,,,,3,,74,0
3419,note_on,,59,0,5,,,,,,,,,,,,,,,,1,,74,0
3419,note_on,,59,0,12,,,,,,,,,,,,,,,,8,,59,0
3419,note_on,,59,0,18,,,,,,,,,,,,,,,,15,,62,0
3420,note_on,,1,0,6,,,,,,,,,,,,,,,,2,,59,72
3420,note_on,,0,0,18,,,,,,,,,,,,,,,,15,,59,72
3420,note_on,,1,0,18,,,,,,,,,,,,,,,,15,,62,72
3420,note_on,,1,0,12,,,,,,,,,,,,,,,,8,,59,72
3420,note_on,,1,0,7,,,,,,,,,,,,,,,,3,,74,72
3420,note_on,,1,0,8,,,,,,,,,,,,,,,,4,,66,72
3420,note_on,,1,0,9,,,,,,,,,,,,,,,,5,,74,72
3420,note_on,,1,0,16,,,,,,,,,,,,,,,,12,,66,72
3420,note_on,,1,0,11,,,,,,,,,,,,,,,,7,,59,72
3420,note_on,,1,0,15,,,,,,,,,,,,,,,,11,,78,72
3420,note_on,,1,0,14,,,,,,,,,,,,,,,,10,,86,72
3420,note_on,,1,0,13,,,,,,,,,,,,,,,,14,,50,72
3420,note_on,,1,0,10,,,,,,,,,,,,,,,,6,,66,72
3420,note_on,,1,0,5,,,,,,,,,,,,,,,,1,,74,72
3420,note_on,,1,0,17,,,,,,,,,,,,,,,,13,,59,72
3449,note_on,,29,0,15,,,,,,,,,,,,,,,,11,,78,0
3449,note_on,,29,0,14,,,,,,,,,,,,,,,,10,,86,0
3450,note_on,,1,0,14,,,,,,,,,,,,,,,,10,,85,72
3450,note_on,,1,0,15,,,,,,,,,,,,,,,,11,,76,72
3479,note_on,,0,0,18,,,,,,,,,,,,,,,,15,,62,0
3479,note_on,,0,0,18,,,,,,,,,,,,,,,,15,,71,0
3479,note_on,,59,0,7,,,,,,,,,,,,,,,,3,,74,0
3479,note_on,,59,0,6,,,,,,,,,,,,,,,,2,,59,0
3479,note_on,,0,0,18,,,,,,,,,,,,,,,,15,,66,0
3479,note_on,,59,0,9,,,,,,,,,,,,,,,,5,,74,0
3479,note_on,,59,0,17,,,,,,,,,,,,,,,,13,,59,0
3479,note_on,,59,0,12,,,,,,,,,,,,,,,,8,,59,0
3479,note_on,,0,0,18,,,,,,,,,,,,,,,,15,,59,0
3479,note_on,,29,0,14,,,,,,,,,,,,,,,,10,,85,0
3479,note_on,,59,0,18,,,,,,,,,,,,,,,,15,,74,0
3479,note_on,,29,0,15,,,,,,,,,,,,,,,,11,,76,0
3479,note_on,,59,0,13,,,,,,,,,,,,,,,,14,,50,0
3479,note_on,,59,0,10,,,,,,,,,,,,,,,,6,,66,0
3479,note_on,,59,0,5,,,,,,,,,,,,,,,,1,,74,0
3479,note_on,,59,0,11,,,,,,,,,,,,,,,,7,,59,0
3479,note_on,,59,0,8,,,,,,,,,,,,,,,,4,,66,0
3479,note_on,,59,0,16,,,,,,,,,,,,,,,,12,,66,0
3480,note_on,,1,0,15,,,,,,,,,,,,,,,,11,,74,72
3480,note_on,,1,0,14,,,,,,,,,,,,,,,,10,,83,72
3509,note_on,,29,0,14,,,,,,,,,,,,,,,,10,,83,0
3509,note_on,,29,0,15,,,,,,,,,,,,,,,,11,,74,0
3510,note_on,,1,0,14,,,,,,,,,,,,,,,,10,,81,72
3510,note_on,,1,0,15,,,,,,,,,,,,,,,,11,,73,72
3539,note_on,,29,0,15,,,,,,,,,,,,,,,,11,,73,0
3539,note_on,,29,0,14,,,,,,,,,,,,,,,,10,,81,0
3540,note_on,,61,0,16,,,,,,,,,,,,,,,,12,,66,72
3540,note_on,,1,0,15,,,,,,,,,,,,,,,,11,,71,72
3540,note_on,,61,0,6,,,,,,,,,,,,,,,,2,,59,72
3540,note_on,,61,0,5,,,,,,,,,,,,,,,,1,,74,72
3540,note_on,,0,0,18,,,,,,,,,,,,,,,,15,,62,72
3540,note_on,,61,0,10,,,,,,,,,,,,,,,,6,,66,72
3540,note_on,,61,0,9,,,,,,,,,,,,,,,,5,,74,72
3540,note_on,,61,0,17,,,,,,,,,,,,,,,,13,,59,72
3540,note_on,,61,0,18,,,,,,,,,,,,,,,,15,,59,72
3540,note_on,,61,0,8,,,,,,,,,,,,,,,,4,,66,72
3540,note_on,,61,0,7,,,,,,,,,,,,,,,,3,,74,72
3540,note_on,,61,0,11,,,,,,,,,,,,,,,,7,,59,72
3540,note_on,,61,0,13,,,,,,,,,,,,,,,,14,,50,72
3540,note_on,,61,0,12,,,,,,,,,,,,,,,,8,,59,72
3540,note_on,,1,0,14,,,,,,,,,,,,,,,,10,,79,72
3569,note_on,,29,0,15,,,,,,,,,,,,,,,,11,,71,0
3569,note_on,,29,0,14,,,,,,,,,,,,,,,,10,,79,0
3570,note_on,,1,0,15,,,,,,,,,,,,,,,,11,,74,72
3570,note_on,,1,0,14,,,,,,,,,,,,,,,,10,,78,72
3599,note_on,,59,0,6,,,,,,,,,,,,,,,,2,,59,0
3599,note_on,,29,0,14,,,,,,,,,,,,,,,,10,,78,0
3599,note_on,,0,0,18,,,,,,,,,,,,,,,,15,,62,0
3599,note_on,,59,0,8,,,,,,,,,,,,,,,,4,,66,0
3599,note_on,,59,0,9,,,,,,,,,,,,,,,,5,,74,0
3599,note_on,,59,0,5,,,,,,,,,,,,,,,,1,,74,0
3599,note_on,,59,0,7,,,,,,,,,,,,,,,,3,,74,0
3599,note_on,,59,0,18,,,,,,,,,,,,,,,,15,,59,0
3599,note_on,,59,0,10,,,,,,,,,,,,,,,,6,,66,0
3599,note_on,,59,0,11,,,,,,,,,,,,,,,,7,,59,0
3599,note_on,,29,0,15,,,,,,,,,,,,,,,,11,,74,0
3599,note_on,,59,0,16,,,,,,,,,,,,,,,,12,,66,0
3599,note_on,,59,0,12,,,,,,,,,,,,,,,,8,,59,0
3599,note_on,,59,0,13,,,,,,,,,,,,,,,,14,,50,0
3599,note_on,,59,0,17,,,,,,,,,,,,,,,,13,,59,0
3600,note_on,,1,0,12,,,,,,,,,,,,,,,,8,,61,72
3600,note_on,,1,0,14,,,,,,,,,,,,,,,,10,,76,72
3600,note_on,,1,0,11,,,,,,,,,,,,,,,,7,,64,72
3600,note_on,,1,0,7,,,,,,,,,,,,,,,,3,,76,72
3600,note_on,,1,0,13,,,,,,,,,,,,,,,,14,,45,72
3600,note_on,,1,0,6,,,,,,,,,,,,,,,,2,,61,72
3600,note_on,,1,0,15,,,,,,,,,,,,,,,,11,,73,72
3600,note_on,,1,0,18,,,,,,,,,,,,,,,,15,,64,72
3600,note_on,,0,0,18,,,,,,,,,,,,,,,,15,,81,72
3600,note_on,,0,0,18,,,,,,,,,,,,,,,,15,,76,72
3600,note_on,,0,0,18,,,,,,,,,,,,,,,,15,,69,72
3600,note_on,,0,0,18,,,,,,,,,,,,,,,,15,,61,72
3600,note_on,,1,0,16,,,,,,,,,,,,,,,,12,,69,72
3600,note_on,,1,0,5,,,,,,,,,,,,,,,,1,,76,72
3600,note_on,,1,0,8,,,,,,,,,,,,,,,,4,,69,72
3600,note_on,,1,0,9,,,,,,,,,,,,,,,,5,,76,72
3600,note_on,,1,0,17,,,,,,,,,,,,,,,,13,,61,72
3600,note_on,,1,0,10,,,,,,,,,,,,,,,,6,,69,72
3659,note_on,,59,0,5,,,,,,,,,,,,,,,,1,,76,0
3659,note_on,,59,0,13,,,,,,,,,,,,,,,,14,,45,0
3659,note_on,,59,0,9,,,,,,,,,,,,,,,,5,,76,0
3659,note_on,,59,0,7,,,,,,,,,,,,,,,,3,,76,0
3659,note_on,,59,0,11,,,,,,,,,,,,,,,,7,,64,0
3659,note_on,,59,0,17,,,,,,,,,,,,,,,,13,,61,0
3659,note_on,,59,0,10,,,,,,,,,,,,,,,,6,,69,0
3659,note_on,,59,0,14,,,,,,,,,,,,,,,,10,,76,0
3659,note_on,,59,0,15,,,,,,,,,,,,,,,,11,,73,0
3659,note_on,,59,0,16,,,,,,,,,,,,,,,,12,,69,0
3659,note_on,,59,0,8,,,,,,,,,,,,,,,,4,,69,0
3659,note_on,,59,0,6,,,,,,,,,,,,,,,,2,,61,0
3659,note_on,,59,0,12,,,,,,,,,,,,,,,,8,,61,0
3659,note_on,,59,0,18,,,,,,,,,,,,,,,,15,,64,0
3659,note_on,,0,0,18,,,,,,,,,,,,,,,,15,,61,0
3660,note_on,,1,0,13,,,,,,,,,,,,,,,,14,,45,72
3660,note_on,,1,0,14,,,,,,,,,,,,,,,,10,,76,72
3660,note_on,,1,0,16,,,,,,,,,,,,,,,,12,,69,72
3660,note_on,,1,0,9,,,,,,,,,,,,,,,,5,,76,72
3660,note_on,,1,0,8,,,,,,,,,,,,,,,,4,,69,72
3660,note_on,,1,0,12,,,,,,,,,,,,,,,,8,,61,72
3660,note_on,,0,0,18,,,,,,,,,,,,,,,,15,,61,72
3660,note_on,,1,0,5,,,,,,,,,,,,,,,,1,,76,72
3660,note_on,,1,0,11,,,,,,,,,,,,,,,,7,,64,72
3660,note_on,,1,0,7,,,,,,,,,,,,,,,,3,,76,72
3660,note_on,,1,0,6,,,,,,,,,,,,,,,,2,,61,72
3660,note_on,,1,0,15,,,,,,,,,,,,,,,,11,,73,72
3660,note_on,,1,0,17,,,,,,,,,,,,,,,,13,,61,72
3660,note_on,,1,0,18,,,,,,,,,,,,,,,,15,,64,72
3660,note_on,,1,0,10,,,,,,,,,,,,,,,,6,,69,72
3689,note_on,,29,0,15,,,,,,,,,,,,,,,,11,,73,0
3689,note_on,,29,0,14,,,,,,,,,,,,,,,,10,,76,0
3690,note_on,,1,0,14,,,,,,,,,,,,,,,,10,,74,72
3690,note_on,,1,0,15,,,,,,,,,,,,,,,,11,,71,72
3719,note_on,,59,0,11,,,,,,,,,,,,,,,,7,,64,0
3719,note_on,,29,0,14,,,,,,,,,,,,,,,,10,,74,0
3719,note_on,,59,0,8,,,,,,,,,,,,,,,,4,,69,0
3719,note_on,,59,0,16,,,,,,,,,,,,,,,,12,,69,0
3719,note_on,,59,0,6,,,,,,,,,,,,,,,,2,,61,0
3719,note_on,,59,0,9,,,,,,,,,,,,,,,,5,,76,0
3719,note_on,,59,0,17,,,,,,,,,,,,,,,,13,,61,0
3719,note_on,,59,0,7,,,,,,,,,,,,,,,,3,,76,0
3719,note_on,,59,0,10,,,,,,,,,,,,,,,,6,,69,0
3719,note_on,,59,0,5,,,,,,,,,,,,,,,,1,,76,0
3719,note_on,,29,0,15,,,,,,,,,,,,,,,,11,,71,0
3719,note_on,,59,0,13,,,,,,,,,,,,,,,,14,,45,0
3719,note_on,,0,0,18,,,,,,,,,,,,,,,,15,,76,0
3719,note_on,,59,0,18,,,,,,,,,,,,,,,,15,,81,0
3719,note_on,,0,0,18,,,,,,,,,,,,,,,,15,,64,0
3719,note_on,,0,0,18,,,,,,,,,,,,,,,,15,,61,0
3719,note_on,,0,0,18,,,,,,,,,,,,,,,,15,,69,0
3719,note_on,,59,0,12,,,,,,,,,,,,,,,,8,,61,0
3720,note_on,,1,0,15,,,,,,,,,,,,,,,,11,,69,72
3720,note_on,,1,0,14,,,,,,,,,,,,,,,,10,,73,72
3749,note_on,,29,0,15,,,,,,,,,,,,,,,,11,,69,0
3749,note_on,,29,0,14,,,,,,,,,,,,,,,,10,,73,0
3750,note_on,,1,0,14,,,,,,,,,,,,,,,,10,,71,72
3750,note_on,,1,0,15,,,,,,,,,,,,,,,,11,,67,72
3779,note_on,,29,0,15,,,,,,,,,,,,,,,,11,,67,0
3779,note_on,,29,0,14,,,,,,,,,,,,,,,,10,,71,0
3780,note_on,,61,0,10,,,,,,,,,,,,,,,,6,,69,72
3780,note_on,,0,0,18,,,,,,,,,,,,,,,,15,,61,72
3780,note_on,,61,0,18,,,,,,,,,,,,,,,,15,,64,72
3780,note_on,,61,0,9,,,,,,,,,,,,,,,,5,,76,72
3780,note_on,,61,0,16,,,,,,,,,,,,,,,,12,,69,72
3780,note_on,,61,0,8,,,,,,,,,,,,,,,,4,,69,72
3780,note_on,,61,0,17,,,,,,,,,,,,,,,,13,,61,72
3780,note_on,,61,0,12,,,,,,,,,,,,,,,,8,,61,72
3780,note_on,,1,0,14,,,,,,,,,,,,,,,,10,,69,72
3780,note_on,,1,0,15,,,,,,,,,,,,,,,,11,,66,72
3780,note_on,,61,0,11,,,,,,,,,,,,,,,,7,,64,72
3780,note_on,,61,0,5,,,,,,,,,,,,,,,,1,,76,72
3780,note_on,,61,0,7,,,,,,,,,,,,,,,,3,,76,72
3780,note_on,,61,0,6,,,,,,,,,,,,,,,,2,,61,72
3780,note_on,,61,0,13,,,,,,,,,,,,,,,,14,,45,72
3809,note_on,,29,0,15,,,,,,,,,,,,,,,,11,,66,0
3809,note_on,,29,0,14,,,,,,,,,,,,,,,,10,,69,0
3810,note_on,,1,0,14,,,,,,,,,,,,,,,,10,,67,72
3810,note_on,,1,0,15,,,,,,,,,,,,,,,,11,,64,72
3839,note_on,,59,0,18,,,,,,,,,,,,,,,,15,,64,0
3839,note_on,,59,0,8,,,,,,,,,,,,,,,,4,,69,0
3839,note_on,,59,0,10,,,,,,,,,,,,,,,,6,,69,0
3839,note_on,,59,0,11,,,,,,,,,,,,,,,,7,,64,0
3839,note_on,,59,0,13,,,,,,,,,,,,,,,,14,,45,0
3839,note_on,,59,0,6,,,,,,,,,,,,,,,,2,,61,0
3839,note_on,,59,0,16,,,,,,,,,,,,,,,,12,,69,0
3839,note_on,,59,0,17,,,,,,,,,,,,,,,,13,,61,0
3839,note_on,,59,0,7,,,,,,,,,,,,,,,,3,,76,0
3839,note_on,,0,0,18,,,,,,,,,,,,,,,,15,,61,0
3839,note_on,,59,0,5,,,,,,,,,,,,,,,,1,,76,0
3839,note_on,,59,0,12,,,,,,,,,,,,,,,,8,,61,0
3839,note_on,,29,0,14,,,,,,,,,,,,,,,,10,,67,0
3839,note_on,,59,0,9,,,,,,,,,,,,,,,,5,,76,0
3839,note_on,,29,0,15,,,,,,,,,,,,,,,,11,,64,0
3840,note_on,,0,0,18,,,,,,,,,,,,,,,,15,,62,72
3840,note_on,,1,0,17,,,,,,,,,,,,,,,,13,,62,72
3840,note_on,,1,0,15,,,,,,,,,,,,,,,,11,,62,72
3840,note_on,,0,0,18,,,,,,,,,,,,,,,,15,,69,72
3840,note_on,,0,0,18,,,,,,,,,,,,,,,,15,,66,72
3840,note_on,,0,0,18,,,,,,,,,,,,,,,,15,,78,72
3840,note_on,,1,0,18,,,,,,,,,,,,,,,,15,,74,72
3840,note_on,,1,0,6,,,,,,,,,,,,,,,,2,,62,72
3840,note_on,,1,0,10,,,,,,,,,,,,,,,,6,,69,72
3840,note_on,,1,0,7,,,,,,,,,,,,,,,,3,,78,72
3840,note_on,,1,0,14,,,,,,,,,,,,,,,,10,,66,72
3840,note_on,,1,0,8,,,,,,,,,,,,,,,,4,,69,72
3840,note_on,,1,0,13,,,,,,,,,,,,,,,,14,,50,72
3840,note_on,,1,0,11,,,,,,,,,,,,,,,,7,,62,72
3840,note_on,,1,0,16,,,,,,,,,,,,,,,,12,,69,72
3840,note_on,,1,0,9,,,,,,,,,,,,,,,,5,,78,72
3840,note_on,,1,0,5,,,,,,,,,,,,,,,,1,,78,72
3840,note_on,,1,0,12,,,,,,,,,,,,,,,,8,,62,72
3899,note_on,,59,0,11,,,,,,,,,,,,,,,,7,,62,0
3899,note_on,,59,0,16,,,,,,,,,,,,,,,,12,,69,0
3899,note_on,,59,0,9,,,,,,,,,,,,,,,,5,,78,0
3899,note_on,,59,0,18,,,,,,,,,,,,,,,,15,,62,0
3899,note_on,,0,0,18,,,,,,,,,,,,,,,,15,,66,0
3899,note_on,,59,0,10,,,,,,,,,,,,,,,,6,,69,0
3899,note_on,,59,0,13,,,,,,,,,,,,,,,,14,,50,0
3899,note_on,,59,0,7,,,,,,,,,,,,,,,,3,,78,0
3899,note_on,,59,0,15,,,,,,,,,,,,,,,,11,,62,0
3899,note_on,,59,0,12,,,,,,,,,,,,,,,,8,,62,0
3899,note_on,,59,0,14,,,,,,,,,,,,,,,,10,,66,0
3899,note_on,,59,0,17,,,,,,,,,,,,,,,,13,,62,0
3899,note_on,,59,0,6,,,,,,,,,,,,,,,,2,,62,0
3899,note_on,,59,0,8,,,,,,,,,,,,,,,,4,,69,0
3899,note_on,,59,0,5,,,,,,,,,,,,,,,,1,,78,0
3900,note_on,,1,0,6,,,,,,,,,,,,,,,,2,,50,72
3900,note_on,,1,0,8,,,,,,,,,,,,,,,,4,,69,72
3900,note_on,,1,0,14,,,,,,,,,,,,,,,,10,,78,72
3900,note_on,,1,0,12,,,,,,,,,,,,,,,,8,,50,72
3900,note_on,,1,0,16,,,,,,,,,,,,,,,,12,,69,72
3900,note_on,,1,0,11,,,,,,,,,,,,,,,,7,,62,72
3900,note_on,,1,0,9,,,,,,,,,,,,,,,,5,,78,72
3900,note_on,,1,0,5,,,,,,,,,,,,,,,,1,,78,72
3900,note_on,,0,0,18,,,,,,,,,,,,,,,,15,,50,72
3900,note_on,,1,0,13,,,,,,,,,,,,,,,,14,,50,72
3900,note_on,,1,0,10,,,,,,,,,,,,,,,,6,,69,72
3900,note_on,,1,0,17,,,,,,,,,,,,,,,,13,,50,72
3900,note_on,,1,0,7,,,,,,,,,,,,,,,,3,,78,72
3900,note_on,,1,0,15,,,,,,,,,,,,,,,,11,,74,72
3900,note_on,,1,0,18,,,,,,,,,,,,,,,,15,,62,72
3929,note_on,,29,0,15,,,,,,,,,,,,,,,,11,,74,0
3929,note_on,,29,0,14,,,,,,,,,,,,,,,,10,,78,0
3930,note_on,,1,0,14,,,,,,,,,,,,,,,,10,,76,72
3930,note_on,,1,0,15,,,,,,,,,,,,,,,,11,,73,72
3959,note_on,,59,0,10,,,,,,,,,,,,,,,,6,,69,0
3959,note_on,,29,0,15,,,,,,,,,,,,,,,,11,,73,0
3959,note_on,,59,0,7,,,,,,,,,,,,,,,,3,,78,0
3959,note_on,,59,0,17,,,,,,,,,,,,,,,,13,,50,0
3959,note_on,,59,0,9,,,,,,,,,,,,,,,,5,,78,0
3959,note_on,,29,0,14,,,,,,,,,,,,,,,,10,,76,0
3959,note_on,,59,0,8,,,,,,,,,,,,,,,,4,,69,0
3959,note_on,,59,0,16,,,,,,,,,,,,,,,,12,,69,0
3959,note_on,,59,0,11,,,,,,,,,,,,,,,,7,,62,0
3959,note_on,,59,0,5,,,,,,,,,,,,,,,,1,,78,0
3959,note_on,,59,0,6,,,,,,,,,,,,,,,,2,,50,0
3959,note_on,,59,0,13,,,,,,,,,,,,,,,,14,,50,0
3959,note_on,,59,0,18,,,,,,,,,,,,,,,,15,,74,0
3959,note_on,,0,0,18,,,,,,,,,,,,,,,,15,,78,0
3959,note_on,,0,0,18,,,,,,,,,,,,,,,,15,,69,0
3959,note_on,,59,0,12,,,,,,,,,,,,,,,,8,,50,0
3959,note_on,,0,0,18,,,,,,,,,,,,,,,,15,,62,0
3959,note_on,,0,0,18,,,,,,,,,,,,,,,,15,,50,0
3960,note_on,,1,0,15,,,,,,,,,,,,,,,,11,,71,72
3960,note_on,,1,0,14,,,,,,,,,,,,,,,,10,,74,72
3989,note_on,,29,0,15,,,,,,,,,,,,,,,,11,,71,0
3989,note_on,,29,0,14,,,,,,,,,,,,,,,,10,,74,0
3990,note_on,,1,0,14,,,,,,,,,,,,,,,,10,,73,72
3990,note_on,,1,0,15,,,,,,,,,,,,,,,,11,,69,72
4019,note_on,,29,0,14,,,,,,,,,,,,,,,,10,,73,0
4019,note_on,,29,0,15,,,,,,,,,,,,,,,,11,,69,0
4020,note_on,,61,0,5,,,,,,,,,,,,,,,,1,,74,72
4020,note_on,,61,0,9,,,,,,,,,,,,,,,,5,,74,72
4020,note_on,,61,0,11,,,,,,,,,,,,,,,,7,,66,72
4020,note_on,,61,0,16,,,,,,,,,,,,,,,,12,,74,72
4020,note_on,,61,0,13,,,,,,,,,,,,,,,,14,,50,72
4020,note_on,,1,0,15,,,,,,,,,,,,,,,,11,,67,72
4020,note_on,,61,0,6,,,,,,,,,,,,,,,,2,,50,72
4020,note_on,,1,0,14,,,,,,,,,,,,,,,,10,,71,72
4020,note_on,,61,0,12,,,,,,,,,,,,,,,,8,,50,72
4020,note_on,,61,0,8,,,,,,,,,,,,,,,,4,,74,72
4020,note_on,,61,0,10,,,,,,,,,,,,,,,,6,,69,72
4020,note_on,,0,0,18,,,,,,,,,,,,,,,,15,,50,72
4020,note_on,,61,0,7,,,,,,,,,,,,,,,,3,,78,72
4020,note_on,,61,0,18,,,,,,,,,,,,,,,,15,,62,72
4020,note_on,,61,0,17,,,,,,,,,,,,,,,,13,,50,72
4049,note_on,,29,0,15,,,,,,,,,,,,,,,,11,,67,0
4049,note_on,,29,0,14,,,,,,,,,,,,,,,,10,,71,0
4050,note_on,,1,0,15,,,,,,,,,,,,,,,,11,,66,72
4050,note_on,,1,0,14,,,,,,,,,,,,,,,,10,,69,72
4079,note_on,,29,0,15,,,,,,,,,,,,,,,,11,,66,0
4079,note_on,,59,0,11,,,,,,,,,,,,,,,,7,,66,0
4079,note_on,,59,0,6,,,,,,,,,,,,,,,,2,,50,0
4079,note_on,,59,0,5,,,,,,,,,,,,,,,,1,,74,0
4079,note_on,,59,0,17,,,,,,,,,,,,,,,,13,,50,0
4079,note_on,,59,0,7,,,,,,,,,,,,,,,,3,,78,0
4079,note_on,,59,0,16,,,,,,,,,,,,,,,,12,,74,0
4079,note_on,,0,0,18,,,,,,,,,,,,,,,,15,,50,0
4079,note_on,,59,0,13,,,,,,,,,,,,,,,,14,,50,0
4079,note_on,,59,0,18,,,,,,,,,,,,,,,,15,,62,0
4079,note_on,,29,0,14,,,,,,,,,,,,,,,,10,,69,0
4079,note_on,,59,0,8,,,,,,,,,,,,,,,,4,,74,0
4079,note_on,,59,0,9,,,,,,,,,,,,,,,,5,,74,0
4079,note_on,,59,0,10,,,,,,,,,,,,,,,,6,,69,0
4079,note_on,,59,0,12,,,,,,,,,,,,,,,,8,,50,0
4080,note_on,,1,0,17,,,,,,,,,,,,,,,,13,,52,72
4080,note_on,,0,0,18,,,,,,,,,,,,,,,,15,,73,72
4080,note_on,,1,0,18,,,,,,,,,,,,,,,,15,,52,72
4080,note_on,,0,0,18,,,,,,,,,,,,,,,,15,,67,72
4080,note_on,,1,0,8,,,,,,,,,,,,,,,,4,,76,72
4080,note_on,,0,0,18,,,,,,,,,,,,,,,,15,,76,72
4080,note_on,,1,0,5,,,,,,,,,,,,,,,,1,,73,72
4080,note_on,,1,0,11,,,,,,,,,,,,,,,,7,,64,72
4080,note_on,,0,0,18,,,,,,,,,,,,,,,,15,,55,72
4080,note_on,,1,0,7,,,,,,,,,,,,,,,,3,,79,72
4080,note_on,,1,0,15,,,,,,,,,,,,,,,,11,,64,72
4080,note_on,,1,0,14,,,,,,,,,,,,,,,,10,,67,72
4080,note_on,,1,0,13,,,,,,,,,,,,,,,,14,,45,72
4080,note_on,,1,0,9,,,,,,,,,,,,,,,,5,,73,72
4080,note_on,,1,0,10,,,,,,,,,,,,,,,,6,,67,72
4080,note_on,,1,0,16,,,,,,,,,,,,,,,,12,,73,72
4080,note_on,,1,0,12,,,,,,,,,,,,,,,,8,,52,72
4080,note_on,,1,0,6,,,,,,,,,,,,,,,,2,,52,72
4139,note_on,,59,0,15,,,,,,,,,,,,,,,,11,,64,0
4139,note_on,,59,0,14,,,,,,,,,,,,,,,,10,,67,0
4140,note_on,,1,0,15,,,,,,,,,,,,,,,,11,,76,72
4140,note_on,,1,0,14,,,,,,,,,,,,,,,,10,,79,72
4169,note_on,,29,0,14,,,,,,,,,,,,,,,,10,,79,0
4169,note_on,,29,0,15,,,,,,,,,,,,,,,,11,,76,0
4170,note_on,,1,0,14,,,,,,,,,,,,,,,,10,,78,72
4170,note_on,,1,0,15,,,,,,,,,,,,,,,,11,,74,72
4199,note_on,,119,0,8,,,,,,,,,,,,,,,,4,,76,0
4199,note_on,,29,0,14,,,,,,,,,,,,,,,,10,,78,0
4199,note_on,,119,0,10,,,,,,,,,,,,,,,,6,,67,0
4199,note_on,,119,0,16,,,,,,,,,,,,,,,,12,,73,0
4199,note_on,,119,0,9,,,,,,,,,,,,,,,,5,,73,0
4199,note_on,,29,0,15,,,,,,,,,,,,,,,,11,,74,0
4199,note_on,,119,0,6,,,,,,,,,,,,,,,,2,,52,0
4199,note_on,,119,0,13,,,,,,,,,,,,,,,,14,,45,0
4199,note_on,,119,0,12,,,,,,,,,,,,,,,,8,,52,0
4199,note_on,,119,0,11,,,,,,,,,,,,,,,,7,,64,0
4199,note_on,,119,0,7,,,,,,,,,,,,,,,,3,,79,0
4199,note_on,,0,0,18,,,,,,,,,,,,,,,,15,,55,0
4199,note_on,,119,0,17,,,,,,,,,,,,,,,,13,,52,0
4199,note_on,,119,0,18,,,,,,,,,,,,,,,,15,,52,0
4199,note_on,,0,0,18,,,,,,,,,,,,,,,,15,,73,0
4199,note_on,,0,0,18,,,,,,,,,,,,,,,,15,,67,0
4199,note_on,,119,0,5,,,,,,,,,,,,,,,,1,,73,0
4199,note_on,,0,0,18,,,,,,,,,,,,,,,,15,,76,0
4200,note_on,,1,0,14,,,,,,,,,,,,,,,,10,,76,72
4200,note_on,,1,0,15,,,,,,,,,,,,,,,,11,,73,72
4229,note_on,,29,0,14,,,,,,,,,,,,,,,,10,,76,0
4229,note_on,,29,0,15,,,,,,,,,,,,,,,,11,,73,0
4230,note_on,,1,0,14,,,,,,,,,,,,,,,,10,,74,72
4230,note_on,,1,0,15,,,,,,,,,,,,,,,,11,,71,72
4259,note_on,,29,0,14,,,,,,,,,,,,,,,,10,,74,0
4259,note_on,,29,0,15,,,,,,,,,,,,,,,,11,,71,0
4260,note_on,,61,0,11,,,,,,,,,,,,,,,,7,,64,72
4260,note_on,,61,0,5,,,,,,,,,,,,,,,,1,,73,72
4260,note_on,,61,0,18,,,,,,,,,,,,,,,,15,,55,72
4260,note_on,,61,0,10,,,,,,,,,,,,,,,,6,,67,72
4260,note_on,,61,0,9,,,,,,,,,,,,,,,,5,,73,72
4260,note_on,,61,0,7,,,,,,,,,,,,,,,,3,,79,72
4260,note_on,,0,0,18,,,,,,,,,,,,,,,,15,,52,72
4260,note_on,,61,0,13,,,,,,,,,,,,,,,,14,,45,72
4260,note_on,,61,0,17,,,,,,,,,,,,,,,,13,,52,72
4260,note_on,,1,0,14,,,,,,,,,,,,,,,,10,,73,72
4260,note_on,,61,0,16,,,,,,,,,,,,,,,,12,,73,72
4260,note_on,,61,0,12,,,,,,,,,,,,,,,,8,,52,72
4260,note_on,,1,0,15,,,,,,,,,,,,,,,,11,,69,72
4260,note_on,,61,0,6,,,,,,,,,,,,,,,,2,,52,72
4260,note_on,,61,0,8,,,,,,,,,,,,,,,,4,,76,72
4289,note_on,,29,0,15,,,,,,,,,,,,,,,,11,,69,0
4289,note_on,,29,0,14,,,,,,,,,,,,,,,,10,,73,0
4290,note_on,,1,0,14,,,,,,,,,,,,,,,,10,,71,72
4290,note_on,,1,0,15,,,,,,,,,,,,,,,,11,,67,72
4319,note_on,,59,0,12,,,,,,,,,,,,,,,,8,,52,0
4319,note_on,,59,0,13,,,,,,,,,,,,,,,,14,,45,0
4319,note_on,,59,0,6,,,,,,,,,,,,,,,,2,,52,0
4319,note_on,,29,0,14,,,,,,,,,,,,,,,,10,,71,0
4319,note_on,,59,0,18,,,,,,,,,,,,,,,,15,,55,0
4319,note_on,,0,0,18,,,,,,,,,,,,,,,,15,,52,0
4319,note_on,,59,0,17,,,,,,,,,,,,,,,,13,,52,0
4319,note_on,,59,0,10,,,,,,,,,,,,,,,,6,,67,0
4319,note_on,,59,0,7,,,,,,,,,,,,,,,,3,,79,0
4319,note_on,,29,0,15,,,,,,,,,,,,,,,,11,,67,0
4319,note_on,,59,0,5,,,,,,,,,,,,,,,,1,,73,0
4319,note_on,,59,0,11,,,,,,,,,,,,,,,,7,,64,0
4319,note_on,,59,0,9,,,,,,,,,,,,,,,,5,,73,0
4319,note_on,,59,0,16,,,,,,,,,,,,,,,,12,,73,0
4319,note_on,,59,0,8,,,,,,,,,,,,,,,,4,,76,0
4320,note_on,,1,0,10,,,,,,,,,,,,,,,,6,,66,72
4320,note_on,,1,0,12,,,,,,,,,,,,,,,,8,,54,72
4320,note_on,,1,0,15,,,,,,,,,,,,,,,,11,,66,72
4320,note_on,,1,0,7,,,,,,,,,,,,,,,,3,,78,72
4320,note_on,,1,0,11,,,,,,,,,,,,,,,,7,,57,72
4320,note_on,,1,0,13,,,,,,,,,,,,,,,,14,,50,72
4320,note_on,,1,0,17,,,,,,,,,,,,,,,,13,,54,72
4320,note_on,,1,0,9,,,,,,,,,,,,,,,,5,,74,72
4320,note_on,,0,0,18,,,,,,,,,,,,,,,,15,,62,72
4320,note_on,,1,0,5,,,,,,,,,,,,,,,,1,,74,72
4320,note_on,,1,0,8,,,,,,,,,,,,,,,,4,,74,72
4320,note_on,,1,0,6,,,,,,,,,,,,,,,,2,,54,72
4320,note_on,,1,0,14,,,,,,,,,,,,,,,,10,,69,72
4320,note_on,,1,0,18,,,,,,,,,,,,,,,,15,,69,72
4320,note_on,,0,0,18,,,,,,,,,,,,,,,,15,,54,72
4320,note_on,,0,0,18,,,,,,,,,,,,,,,,15,,57,72
4320,note_on,,0,0,18,,,,,,,,,,,,,,,,15,,66,72
4320,note_on,,1,0,16,,,,,,,,,,,,,,,,12,,74,72
4379,note_on,,59,0,15,,,,,,,,,,,,,,,,11,,66,0
4379,note_on,,59,0,6,,,,,,,,,,,,,,,,2,,54,0
4379,note_on,,59,0,8,,,,,,,,,,,,,,,,4,,74,0
4379,note_on,,0,0,18,,,,,,,,,,,,,,,,15,,57,0
4379,note_on,,59,0,16,,,,,,,,,,,,,,,,12,,74,0
4379,note_on,,59,0,5,,,,,,,,,,,,,,,,1,,74,0
4379,note_on,,59,0,11,,,,,,,,,,,,,,,,7,,57,0
4379,note_on,,59,0,10,,,,,,,,,,,,,,,,6,,66,0
4379,note_on,,59,0,18,,,,,,,,,,,,,,,,15,,54,0
4379,note_on,,59,0,14,,,,,,,,,,,,,,,,10,,69,0
4379,note_on,,59,0,7,,,,,,,,,,,,,,,,3,,78,0
4379,note_on,,59,0,17,,,,,,,,,,,,,,,,13,,54,0
4379,note_on,,59,0,12,,,,,,,,,,,,,,,,8,,54,0
4379,note_on,,59,0,13,,,,,,,,,,,,,,,,14,,50,0
4379,note_on,,59,0,9,,,,,,,,,,,,,,,,5,,74,0
4380,note_on,,1,0,14,,,,,,,,,,,,,,,,10,,81,72
4380,note_on,,1,0,11,,,,,,,,,,,,,,,,7,,57,72
4380,note_on,,1,0,9,,,,,,,,,,,,,,,,5,,74,72
4380,note_on,,1,0,10,,,,,,,,,,,,,,,,6,,66,72
4380,note_on,,1,0,16,,,,,,,,,,,,,,,,12,,62,72
4380,note_on,,0,0,18,,,,,,,,,,,,,,,,15,,57,72
4380,note_on,,1,0,5,,,,,,,,,,,,,,,,1,,74,72
4380,note_on,,1,0,18,,,,,,,,,,,,,,,,15,,54,72
4380,note_on,,1,0,12,,,,,,,,,,,,,,,,8,,54,72
4380,note_on,,1,0,15,,,,,,,,,,,,,,,,11,,78,72
4380,note_on,,1,0,6,,,,,,,,,,,,,,,,2,,54,72
4380,note_on,,1,0,17,,,,,,,,,,,,,,,,13,,54,72
4380,note_on,,1,0,13,,,,,,,,,,,,,,,,14,,50,72
4380,note_on,,1,0,8,,,,,,,,,,,,,,,,4,,74,72
4380,note_on,,1,0,7,,,,,,,,,,,,,,,,3,,78,72
4409,note_on,,29,0,14,,,,,,,,,,,,,,,,10,,81,0
4409,note_on,,29,0,15,,,,,,,,,,,,,,,,11,,78,0
4410,note_on,,1,0,15,,,,,,,,,,,,,,,,11,,76,72
4410,note_on,,1,0,14,,,,,,,,,,,,,,,,10,,79,72
4439,note_on,,59,0,5,,,,,,,,,,,,,,,,1,,74,0
4439,note_on,,59,0,10,,,,,,,,,,,,,,,,6,,66,0
4439,note_on,,59,0,6,,,,,,,,,,,,,,,,2,,54,0
4439,note_on,,59,0,13,,,,,,,,,,,,,,,,14,,50,0
4439,note_on,,59,0,16,,,,,,,,,,,,,,,,12,,62,0
4439,note_on,,0,0,18,,,,,,,,,,,,,,,,15,,57,0
4439,note_on,,29,0,14,,,,,,,,,,,,,,,,10,,79,0
4439,note_on,,59,0,7,,,,,,,,,,,,,,,,3,,78,0
4439,note_on,,59,0,11,,,,,,,,,,,,,,,,7,,57,0
4439,note_on,,59,0,12,,,,,,,,,,,,,,,,8,,54,0
4439,note_on,,29,0,15,,,,,,,,,,,,,,,,11,,76,0
4439,note_on,,59,0,17,,,,,,,,,,,,,,,,13,,54,0
4439,note_on,,59,0,9,,,,,,,,,,,,,,,,5,,74,0
4439,note_on,,59,0,8,,,,,,,,,,,,,,,,4,,74,0
4439,note_on,,59,0,18,,,,,,,,,,,,,,,,15,,69,0
4439,note_on,,0,0,18,,,,,,,,,,,,,,,,15,,62,0
4439,note_on,,0,0,18,,,,,,,,,,,,,,,,15,,66,0
4439,note_on,,0,0,18,,,,,,,,,,,,,,,,15,,54,0
4440,note_on,,1,0,14,,,,,,,,,,,,,,,,10,,78,72
4440,note_on,,1,0,15,,,,,,,,,,,,,,,,11,,74,72
4469,note_on,,29,0,14,,,,,,,,,,,,,,,,10,,78,0
4469,note_on,,29,0,15,,,,,,,,,,,,,,,,11,,74,0
4470,note_on,,1,0,14,,,,,,,,,,,,,,,,10,,76,72
4470,note_on,,1,0,15,,,,,,,,,,,,,,,,11,,73,72
4499,note_on,,29,0,15,,,,,,,,,,,,,,,,11,,73,0
4499,note_on,,29,0,14,,,,,,,,,,,,,,,,10,,76,0
4500,note_on,,61,0,6,,,,,,,,,,,,,,,,2,,54,72
4500,note_on,,1,0,14,,,,,,,,,,,,,,,,10,,74,72
4500,note_on,,61,0,8,,,,,,,,,,,,,,,,4,,74,72
4500,note_on,,61,0,17,,,,,,,,,,,,,,,,13,,54,72
4500,note_on,,61,0,10,,,,,,,,,,,,,,,,6,,66,72
4500,note_on,,61,0,12,,,,,,,,,,,,,,,,8,,54,72
4500,note_on,,0,0,18,,,,,,,,,,,,,,,,15,,57,72
4500,note_on,,61,0,18,,,,,,,,,,,,,,,,15,,54,72
4500,note_on,,61,0,11,,,,,,,,,,,,,,,,7,,57,72
4500,note_on,,61,0,9,,,,,,,,,,,,,,,,5,,74,72
4500,note_on,,61,0,16,,,,,,,,,,,,,,,,12,,62,72
4500,note_on,,1,0,15,,,,,,,,,,,,,,,,11,,71,72
4500,note_on,,61,0,5,,,,,,,,,,,,,,,,1,,74,72
4500,note_on,,61,0,7,,,,,,,,,,,,,,,,3,,81,72
4500,note_on,,61,0,13,,,,,,,,,,,,,,,,14,,45,72
4529,note_on,,29,0,15,,,,,,,,,,,,,,,,11,,71,0
4529,note_on,,29,0,14,,,,,,,,,,,,,,,,10,,74,0
4530,note_on,,1,0,15,,,,,,,,,,,,,,,,11,,69,72
4530,note_on,,1,0,14,,,,,,,,,,,,,,,,10,,73,72
4559,note_on,,59,0,12,,,,,,,,,,,,,,,,8,,54,0
4559,note_on,,59,0,9,,,,,,,,,,,,,,,,5,,74,0
4559,note_on,,59,0,6,,,,,,,,,,,,,,,,2,,54,0
4559,note_on,,59,0,17,,,,,,,,,,,,,,,,13,,54,0
4559,note_on,,59,0,7,,,,,,,,,,,,,,,,3,,81,0
4559,note_on,,29,0,14,,,,,,,,,,,,,,,,10,,73,0
4559,note_on,,0,0,18,,,,,,,,,,,,,,,,15,,57,0
4559,note_on,,59,0,18,,,,,,,,,,,,,,,,15,,54,0
4559,note_on,,59,0,11,,,,,,,,,,,,,,,,7,,57,0
4559,note_on,,59,0,5,,,,,,,,,,,,,,,,1,,74,0
4559,note_on,,59,0,8,,,,,,,,,,,,,,,,4,,74,0
4559,note_on,,29,0,15,,,,,,,,,,,,,,,,11,,69,0
4559,note_on,,59,0,16,,,,,,,,,,,,,,,,12,,62,0
4559,note_on,,59,0,10,,,,,,,,,,,,,,,,6,,66,0
4559,note_on,,59,0,13,,,,,,,,,,,,,,,,14,,45,0
4560,note_on,,1,0,13,,,,,,,,,,,,,,,,14,,50,72
4560,note_on,,1,0,7,,,,,,,,,,,,,,,,3,,80,72
4560,note_on,,1,0,16,,,,,,,,,,,,,,,,12,,64,72
4560,note_on,,1,0,15,,,,,,,,,,,,,,,,11,,68,72
4560,note_on,,0,0,18,,,,,,,,,,,,,,,,15,,56,72
4560,note_on,,0,0,18,,,,,,,,,,,,,,,,15,,64,72
4560,note_on,,0,0,18,,,,,,,,,,,,,,,,15,,59,72
4560,note_on,,1,0,8,,,,,,,,,,,,,,,,4,,76,72
4560,note_on,,0,0,18,,,,,,,,,,,,,,,,15,,76,72
4560,note_on,,1,0,18,,,,,,,,,,,,,,,,15,,71,72
4560,note_on,,1,0,12,,,,,,,,,,,,,,,,8,,56,72
4560,note_on,,1,0,11,,,,,,,,,,,,,,,,7,,59,72
4560,note_on,,1,0,17,,,,,,,,,,,,,,,,13,,56,72
4560,note_on,,1,0,6,,,,,,,,,,,,,,,,2,,56,72
4560,note_on,,1,0,10,,,,,,,,,,,,,,,,6,,64,72
4560,note_on,,1,0,14,,,,,,,,,,,,,,,,10,,71,72
4560,note_on,,1,0,9,,,,,,,,,,,,,,,,5,,71,72
4560,note_on,,1,0,5,,,,,,,,,,,,,,,,1,,71,72
4619,note_on,,59,0,7,,,,,,,,,,,,,,,,3,,80,0
4619,note_on,,59,0,5,,,,,,,,,,,,,,,,1,,71,0
4619,note_on,,59,0,15,,,,,,,,,,,,,,,,11,,68,0
4619,note_on,,59,0,9,,,,,,,,,,,,,,,,5,,71,0
4619,note_on,,59,0,10,,,,,,,,,,,,,,,,6,,64,0
4619,note_on,,59,0,13,,,,,,,,,,,,,,,,14,,50,0
4619,note_on,,59,0,12,,,,,,,,,,,,,,,,8,,56,0
4619,note_on,,0,0,18,,,,,,,,,,,,,,,,15,,56,0
4619,note_on,,59,0,6,,,,,,,,,,,,,,,,2,,56,0
4619,note_on,,59,0,16,,,,,,,,,,,,,,,,12,,64,0
4619,note_on,,59,0,8,,,,,,,,,,,,,,,,4,,76,0
4619,note_on,,59,0,14,,,,,,,,,,,,,,,,10,,71,0
4619,note_on,,59,0,11,,,,,,,,,,,,,,,,7,,59,0
4619,note_on,,59,0,17,,,,,,,,,,,,,,,,13,,56,0
4619,note_on,,59,0,18,,,,,,,,,,,,,,,,15,,59,0
4620,note_on,,1,0,15,,,,,,,,,,,,,,,,11,,80,72
4620,note_on,,1,0,16,,,,,,,,,,,,,,,,12,,64,72
4620,note_on,,1,0,6,,,,,,,,,,,,,,,,2,,56,72
4620,note_on,,1,0,17,,,,,,,,,,,,,,,,13,,56,72
4620,note_on,,1,0,14,,,,,,,,,,,,,,,,10,,83,72
4620,note_on,,1,0,5,,,,,,,,,,,,,,,,1,,71,72
4620,note_on,,1,0,12,,,,,,,,,,,,,,,,8,,56,72
4620,note_on,,1,0,13,,,,,,,,,,,,,,,,14,,50,72
4620,note_on,,1,0,10,,,,,,,,,,,,,,,,6,,64,72
4620,note_on,,1,0,11,,,,,,,,,,,,,,,,7,,59,72
4620,note_on,,1,0,9,,,,,,,,,,,,,,,,5,,71,72
4620,note_on,,0,0,18,,,,,,,,,,,,,,,,15,,56,72
4620,note_on,,1,0,7,,,,,,,,,,,,,,,,3,,80,72
4620,note_on,,1,0,8,,,,,,,,,,,,,,,,4,,76,72
4620,note_on,,1,0,18,,,,,,,,,,,,,,,,15,,59,72
4649,note_on,,29,0,14,,,,,,,,,,,,,,,,10,,83,0
4649,note_on,,29,0,15,,,,,,,,,,,,,,,,11,,80,0
4650,note_on,,1,0,14,,,,,,,,,,,,,,,,10,,81,72
4650,note_on,,1,0,15,,,,,,,,,,,,,,,,11,,78,72
4679,note_on,,29,0,15,,,,,,,,,,,,,,,,11,,78,0
4679,note_on,,59,0,5,,,,,,,,,,,,,,,,1,,71,0
4679,note_on,,59,0,10,,,,,,,,,,,,,,,,6,,64,0
4679,note_on,,0,0,18,,,,,,,,,,,,,,,,15,,64,0
4679,note_on,,0,0,18,,,,,,,,,,,,,,,,15,,59,0
4679,note_on,,0,0,18,,,,,,,,,,,,,,,,15,,56,0
4679,note_on,,59,0,8,,,,,,,,,,,,,,,,4,,76,0
4679,note_on,,59,0,16,,,,,,,,,,,,,,,,12,,64,0
4679,note_on,,29,0,14,,,,,,,,,,,,,,,,10,,81,0
4679,note_on,,0,0,18,,,,,,,,,,,,,,,,15,,76,0
4679,note_on,,59,0,13,,,,,,,,,,,,,,,,14,,50,0
4679,note_on,,59,0,12,,,,,,,,,,,,,,,,8,,56,0
4679,note_on,,59,0,7,,,,,,,,,,,,,,,,3,,80,0
4679,note_on,,59,0,6,,,,,,,,,,,,,,,,2,,56,0
4679,note_on,,59,0,9,,,,,,,,,,,,,,,,5,,71,0
4679,note_on,,59,0,11,,,,,,,,,,,,,,,,7,,59,0
4679,note_on,,59,0,17,,,,,,,,,,,,,,,,13,,56,0
4679,note_on,,59,0,18,,,,,,,,,,,,,,,,15,,71,0
4680,note_on,,1,0,15,,,,,,,,,,,,,,,,11,,76,72
4680,note_on,,1,0,14,,,,,,,,,,,,,,,,10,,80,72
4709,note_on,,29,0,14,,,,,,,,,,,,,,,,10,,80,0
4709,note_on,,29,0,15,,,,,,,,,,,,,,,,11,,76,0
4710,note_on,,1,0,15,,,,,,,,,,,,,,,,11,,74,72
4710,note_on,,1,0,14,,,,,,,,,,,,,,,,10,,78,72
4739,note_on,,29,0,15,,,,,,,,,,,,,,,,11,,74,0
4739,note_on,,29,0,14,,,,,,,,,,,,,,,,10,,78,0
4740,note_on,,61,0,7,,,,,,,,,,,,,,,,3,,83,72
4740,note_on,,61,0,18,,,,,,,,,,,,,,,,15,,56,72
4740,note_on,,0,0,18,,,,,,,,,,,,,,,,15,,59,72
4740,note_on,,61,0,11,,,,,,,,,,,,,,,,7,,59,72
4740,note_on,,61,0,13,,,,,,,,,,,,,,,,14,,50,72
4740,note_on,,61,0,12,,,,,,,,,,,,,,,,8,,56,72
4740,note_on,,1,0,14,,,,,,,,,,,,,,,,10,,76,72
4740,note_on,,61,0,9,,,,,,,,,,,,,,,,5,,76,72
4740,note_on,,61,0,10,,,,,,,,,,,,,,,,6,,64,72
4740,note_on,,61,0,5,,,,,,,,,,,,,,,,1,,76,72
4740,note_on,,61,0,6,,,,,,,,,,,,,,,,2,,56,72
4740,note_on,,61,0,17,,,,,,,,,,,,,,,,13,,56,72
4740,note_on,,1,0,15,,,,,,,,,,,,,,,,11,,73,72
4740,note_on,,61,0,16,,,,,,,,,,,,,,,,12,,64,72
4740,note_on,,61,0,8,,,,,,,,,,,,,,,,4,,76,72
4769,note_on,,29,0,14,,,,,,,,,,,,,,,,10,,76,0
4769,note_on,,29,0,15,,,,,,,,,,,,,,,,11,,73,0
4770,note_on,,1,0,15,,,,,,,,,,,,,,,,11,,71,72
4770,note_on,,1,0,14,,,,,,,,,,,,,,,,10,,74,72
4799,note_on,,29,0,15,,,,,,,,,,,,,,,,11,,71,0
4799,note_on,,59,0,16,,,,,,,,,,,,,,,,12,,64,0
4799,note_on,,59,0,9,,,,,,,,,,,,,,,,5,,76,0
4799,note_on,,59,0,10,,,,,,,,,,,,,,,,6,,64,0
4799,note_on,,59,0,17,,,,,,,,,,,,,,,,13,,56,0
4799,note_on,,59,0,6,,,,,,,,,,,,,,,,2,,56,0
4799,note_on,,29,0,14,,,,,,,,,,,,,,,,10,,74,0
4799,note_on,,59,0,8,,,,,,,,,,,,,,,,4,,76,0
4799,note_on,,59,0,18,,,,,,,,,,,,,,,,15,,56,0
4799,note_on,,0,0,18,,,,,,,,,,,,,,,,15,,59,0
4799,note_on,,59,0,5,,,,,,,,,,,,,,,,1,,76,0
4799,note_on,,59,0,11,,,,,,,,,,,,,,,,7,,59,0
4799,note_on,,59,0,7,,,,,,,,,,,,,,,,3,,83,0
4799,note_on,,59,0,12,,,,,,,,,,,,,,,,8,,56,0
4799,note_on,,59,0,13,,,,,,,,,,,,,,,,14,,50,0
4800,note_on,,1,0,12,,,,,,,,,,,,,,,,8,,57,72
4800,note_on,,1,0,13,,,,,,,,,,,,,,,,14,,45,72
4800,note_on,,1,0,11,,,,,,,,,,,,,,,,7,,61,72
4800,note_on,,1,0,6,,,,,,,,,,,,,,,,2,,57,72
4800,note_on,,1,0,7,,,,,,,,,,,,,,,,3,,81,72
4800,note_on,,1,0,9,,,,,,,,,,,,,,,,5,,73,72
4800,note_on,,1,0,17,,,,,,,,,,,,,,,,13,,57,72
4800,note_on,,0,0,18,,,,,,,,,,,,,,,,15,,73,72
4800,note_on,,1,0,16,,,,,,,,,,,,,,,,12,,64,72
4800,note_on,,1,0,14,,,,,,,,,,,,,,,,10,,73,72
4800,note_on,,1,0,8,,,,,,,,,,,,,,,,4,,76,72
4800,note_on,,1,0,5,,,,,,,,,,,,,,,,1,,73,72
4800,note_on,,1,0,18,,,,,,,,,,,,,,,,15,,61,72
4800,note_on,,0,0,18,,,,,,,,,,,,,,,,15,,64,72
4800,note_on,,0,0,18,,,,,,,,,,,,,,,,15,,69,72
4800,note_on,,0,0,18,,,,,,,,,,,,,,,,15,,57,72
4800,note_on,,1,0,15,,,,,,,,,,,,,,,,11,,69,72
4800,note_on,,1,0,10,,,,,,,,,,,,,,,,6,,64,72
4859,note_on,,59,0,14,,,,,,,,,,,,,,,,10,,73,0
4859,note_on,,59,0,15,,,,,,,,,,,,,,,,11,,69,0
4859,note_on,,59,0,16,,,,,,,,,,,,,,,,12,,64,0
4860,note_on,,1,0,15,,,,,,,,,,,,,,,,11,,68,72
4860,note_on,,1,0,16,,,,,,,,,,,,,,,,12,,64,72
4860,note_on,,1,0,14,,,,,,,,,,,,,,,,10,,71,72
4889,note_on,,29,0,14,,,,,,,,,,,,,,,,10,,71,0
4889,note_on,,29,0,15,,,,,,,,,,,,,,,,11,,68,0
4890,note_on,,1,0,15,,,,,,,,,,,,,,,,11,,66,72
4890,note_on,,1,0,14,,,,,,,,,,,,,,,,10,,69,72
4919,note_on,,0,0,18,,,,,,,,,,,,,,,,15,,69,0
4919,note_on,,59,0,16,,,,,,,,,,,,,,,,12,,64,0
4919,note_on,,119,0,7,,,,,,,,,,,,,,,,3,,81,0
4919,note_on,,0,0,18,,,,,,,,,,,,,,,,15,,57,0
4919,note_on,,0,0,18,,,,,,,,,,,,,,,,15,,73,0
4919,note_on,,119,0,8,,,,,,,,,,,,,,,,4,,76,0
4919,note_on,,119,0,12,,,,,,,,,,,,,,,,8,,57,0
4919,note_on,,119,0,6,,,,,,,,,,,,,,,,2,,57,0
4919,note_on,,119,0,18,,,,,,,,,,,,,,,,15,,61,0
4919,note_on,,29,0,14,,,,,,,,,,,,,,,,10,,69,0
4919,note_on,,0,0,18,,,,,,,,,,,,,,,,15,,64,0
4919,note_on,,119,0,17,,,,,,,,,,,,,,,,13,,57,0
4919,note_on,,119,0,13,,,,,,,,,,,,,,,,14,,45,0
4919,note_on,,29,0,15,,,,,,,,,,,,,,,,11,,66,0
4919,note_on,,119,0,9,,,,,,,,,,,,,,,,5,,73,0
4919,note_on,,119,0,11,,,,,,,,,,,,,,,,7,,61,0
4919,note_on,,119,0,10,,,,,,,,,,,,,,,,6,,64,0
4919,note_on,,119,0,5,,,,,,,,,,,,,,,,1,,73,0
4920,note_on,,0,0,18,,,,,,,,,,,,,,,,15,,81,72
4920,note_on,,1,0,9,,,,,,,,,,,,,,,,5,,73,72
4920,note_on,,1,0,16,,,,,,,,,,,,,,,,12,,64,72
4920,note_on,,1,0,13,,,,,,,,,,,,,,,,14,,45,72
4920,note_on,,1,0,10,,,,,,,,,,,,,,,,6,,64,72
4920,note_on,,1,0,18,,,,,,,,,,,,,,,,15,,76,72
4920,note_on,,0,0,18,,,,,,,,,,,,,,,,15,,45,72
4920,note_on,,0,0,18,,,,,,,,,,,,,,,,15,,69,72
4920,note_on,,1,0,8,,,,,,,,,,,,,,,,4,,69,72
4920,note_on,,1,0,12,,,,,,,,,,,,,,,,8,,45,72
4920,note_on,,0,0,18,,,,,,,,,,,,,,,,15,,73,72
4920,note_on,,1,0,11,,,,,,,,,,,,,,,,7,,61,72
4920,note_on,,1,0,6,,,,,,,,,,,,,,,,2,,45,72
4920,note_on,,0,0,18,,,,,,,,,,,,,,,,15,,57,72
4920,note_on,,1,0,17,,,,,,,,,,,,,,,,13,,45,72
4920,note_on,,1,0,15,,,,,,,,,,,,,,,,11,,64,72
4920,note_on,,1,0,14,,,,,,,,,,,,,,,,10,,68,72
4920,note_on,,1,0,5,,,,,,,,,,,,,,,,1,,73,72
4920,note_on,,1,0,7,,,,,,,,,,,,,,,,3,,76,72
4949,note_on,,29,0,15,,,,,,,,,,,,,,,,11,,64,0
4949,note_on,,29,0,14,,,,,,,,,,,,,,,,10,,68,0
4950,note_on,,1,0,15,,,,,,,,,,,,,,,,11,,62,72
4950,note_on,,1,0,14,,,,,,,,,,,,,,,,10,,66,72
4979,note_on,,29,0,15,,,,,,,,,,,,,,,,11,,62,0
4979,note_on,,59,0,16,,,,,,,,,,,,,,,,12,,64,0
4979,note_on,,29,0,14,,,,,,,,,,,,,,,,10,,66,0
4980,note_on,,1,0,16,,,,,,,,,,,,,,,,12,,64,72
4980,note_on,,1,0,15,,,,,,,,,,,,,,,,11,,61,72
4980,note_on,,1,0,14,,,,,,,,,,,,,,,,10,,64,72
5009,note_on,,29,0,15,,,,,,,,,,,,,,,,11,,61,0
5009,note_on,,29,0,14,,,,,,,,,,,,,,,,10,,64,0
5010,note_on,,1,0,15,,,,,,,,,,,,,,,,11,,59,72
5010,note_on,,1,0,14,,,,,,,,,,,,,,,,10,,62,72
5039,note_on,,119,0,18,,,,,,,,,,,,,,,,15,,76,0
5039,note_on,,119,0,7,,,,,,,,,,,,,,,,3,,76,0
5039,note_on,,119,0,9,,,,,,,,,,,,,,,,5,,73,0
5039,note_on,,119,0,10,,,,,,,,,,,,,,,,6,,64,0
5039,note_on,,119,0,13,,,,,,,,,,,,,,,,14,,45,0
5039,note_on,,119,0,11,,,,,,,,,,,,,,,,7,,61,0
5039,note_on,,29,0,15,,,,,,,,,,,,,,,,11,,59,0
5039,note_on,,59,0,16,,,,,,,,,,,,,,,,12,,64,0
5039,note_on,,119,0,6,,,,,,,,,,,,,,,,2,,45,0
5039,note_on,,29,0,14,,,,,,,,,,,,,,,,10,,62,0
5039,note_on,,119,0,17,,,,,,,,,,,,,,,,13,,45,0
5039,note_on,,119,0,8,,,,,,,,,,,,,,,,4,,69,0
5039,note_on,,119,0,12,,,,,,,,,,,,,,,,8,,45,0
5039,note_on,,0,0,18,,,,,,,,,,,,,,,,15,,81,0
5039,note_on,,0,0,18,,,,,,,,,,,,,,,,15,,57,0
5039,note_on,,0,0,18,,,,,,,,,,,,,,,,15,,73,0
5039,note_on,,0,0,18,,,,,,,,,,,,,,,,15,,69,0
5039,note_on,,0,0,18,,,,,,,,,,,,,,,,15,,45,0
5039,note_on,,119,0,5,,,,,,,,,,,,,,,,1,,73,0
5040,note_on,,1,0,14,,,,,,,,,,,,,,,,10,,61,72
5040,note_on,,1,0,16,,,,,,,,,,,,,,,,12,,64,72
5040,note_on,,1,0,15,,,,,,,,,,,,,,,,11,,57,72
5159,note_on,,119,0,14,,,,,,,,,,,,,,,,10,,61,0
5159,note_on,,119,0,15,,,,,,,,,,,,,,,,11,,57,0
5159,note_on,,119,0,16,,,,,,,,,,,,,,,,12,,64,0
5280,note_on,,241,0,18,,,,,,,,,,,,,,,,15,,57,72
5280,note_on,,241,0,17,,,,,,,,,,,,,,,,13,,45,72
5280,note_on,,0,0,18,,,,,,,,,,,,,,,,15,,45,72
5280,note_on,,241,0,6,,,,,,,,,,,,,,,,2,,45,72
5280,set_tempo,,2160,1,0,,,,,,,,,1200000,,,,,,,,,,
5399,note_on,,119,0,17,,,,,,,,,,,,,,,,13,,45,0
5399,note_on,,0,0,18,,,,,,,,,,,,,,,,15,,45,0
5399,note_on,,119,0,6,,,,,,,,,,,,,,,,2,,45,0
5399,note_on,,119,0,18,,,,,,,,,,,,,,,,15,,57,0
5400,note_on,,241,0,16,,,,,,,,,,,,,,,,12,,69,72
5400,note_on,,361,0,5,,,,,,,,,,,,,,,,1,,73,72
5400,note_on,,241,0,14,,,,,,,,,,,,,,,,10,,85,72
5400,note_on,,1,0,18,,,,,,,,,,,,,,,,15,,61,72
5400,note_on,,0,0,18,,,,,,,,,,,,,,,,15,,57,72
5400,note_on,,0,0,18,,,,,,,,,,,,,,,,15,,73,72
5400,note_on,,0,0,18,,,,,,,,,,,,,,,,15,,69,72
5400,note_on,,0,0,18,,,,,,,,,,,,,,,,15,,64,72
5400,note_on,,361,0,10,,,,,,,,,,,,,,,,6,,69,72
5400,note_on,,361,0,12,,,,,,,,,,,,,,,,8,,57,72
5400,note_on,,1,0,6,,,,,,,,,,,,,,,,2,,57,72
5400,note_on,,241,0,15,,,,,,,,,,,,,,,,11,,76,72
5400,note_on,,1,0,17,,,,,,,,,,,,,,,,13,,57,72
5400,note_on,,361,0,11,,,,,,,,,,,,,,,,7,,64,72
5400,note_on,,361,0,9,,,,,,,,,,,,,,,,5,,73,72
5639,note_on,,239,0,18,,,,,,,,,,,,,,,,15,,61,0
5639,note_on,,0,0,18,,,,,,,,,,,,,,,,15,,57,0
5639,note_on,,0,0,18,,,,,,,,,,,,,,,,15,,73,0
5639,note_on,,0,0,18,,,,,,,,,,,,,,,,15,,64,0
5639,note_on,,239,0,12,,,,,,,,,,,,,,,,8,,57,0
5639,note_on,,239,0,14,,,,,,,,,,,,,,,,10,,85,0
5639,note_on,,239,0,6,,,,,,,,,,,,,,,,2,,57,0
5639,note_on,,239,0,9,,,,,,,,,,,,,,,,5,,73,0
5639,note_on,,239,0,15,,,,,,,,,,,,,,,,11,,76,0
5639,note_on,,0,0,18,,,,,,,,,,,,,,,,15,,69,0
5639,note_on,,239,0,11,,,,,,,,,,,,,,,,7,,64,0
5639,note_on,,239,0,10,,,,,,,,,,,,,,,,6,,69,0
5639,note_on,,239,0,16,,,,,,,,,,,,,,,,12,,69,0
5639,note_on,,239,0,5,,,,,,,,,,,,,,,,1,,73,0
5639,note_on,,239,0,17,,,,,,,,,,,,,,,,13,,57,0
5640,note_on,,1,0,17,,,,,,,,,,,,,,,,13,,56,72
5640,note_on,,1,0,10,,,,,,,,,,,,,,,,6,,64,72
5640,note_on,,1,0,18,,,,,,,,,,,,,,,,15,,71,72
5640,note_on,,1,0,6,,,,,,,,,,,,,,,,2,,56,72
5640,note_on,,0,0,18,,,,,,,,,,,,,,,,15,,64,72
5640,note_on,,1,0,14,,,,,,,,,,,,,,,,10,,83,72
5640,note_on,,1,0,15,,,,,,,,,,,,,,,,11,,76,72
5640,note_on,,0,0,18,,,,,,,,,,,,,,,,15,,56,72
5640,note_on,,0,0,18,,,,,,,,,,,,,,,,15,,76,72
5640,note_on,,1,0,9,,,,,,,,,,,,,,,,5,,71,72
5640,note_on,,1,0,12,,,,,,,,,,,,,,,,8,,56,72
5640,note_on,,1,0,5,,,,,,,,,,,,,,,,1,,71,72
5640,note_on,,1,0,16,,,,,,,,,,,,,,,,12,,71,72
5640,note_on,,0,0,18,,,,,,,,,,,,,,,,15,,59,72
5640,note_on,,1,0,11,,,,,,,,,,,,,,,,7,,64,72
5759,note_on,,0,0,18,,,,,,,,,,,,,,,,15,,76,0
5759,note_on,,119,0,6,,,,,,,,,,,,,,,,2,,56,0
5759,note_on,,0,0,18,,,,,,,,,,,,,,,,15,,64,0
5759,note_on,,119,0,17,,,,,,,,,,,,,,,,13,,56,0
5759,note_on,,119,0,16,,,,,,,,,,,,,,,,12,,71,0
5759,note_on,,119,0,12,,,,,,,,,,,,,,,,8,,56,0
5759,note_on,,0,0,18,,,,,,,,,,,,,,,,15,,59,0
5759,note_on,,0,0,18,,,,,,,,,,,,,,,,15,,56,0
5759,note_on,,119,0,14,,,,,,,,,,,,,,,,10,,83,0
5759,note_on,,119,0,11,,,,,,,,,,,,,,,,7,,64,0
5759,note_on,,119,0,10,,,,,,,,,,,,,,,,6,,64,0
5759,note_on,,119,0,15,,,,,,,,,,,,,,,,11,,76,0
5759,note_on,,119,0,9,,,,,,,,,,,,,,,,5,,71,0
5759,note_on,,119,0,5,,,,,,,,,,,,,,,,1,,71,0
5759,note_on,,119,0,18,,,,,,,,,,,,,,,,15,,71,0
5760,note_on,,1,0,14,,,,,,,,,,,,,,,,10,,81,72
5760,note_on,,1,0,6,,,,,,,,,,,,,,,,2,,54,72
5760,note_on,,1,0,17,,,,,,,,,,,,,,,,13,,54,72
5760,note_on,,0,0,18,,,,,,,,,,,,,,,,15,,73,72
5760,note_on,,1,0,9,,,,,,,,,,,,,,,,5,,69,72
5760,note_on,,1,0,15,,,,,,,,,,,,,,,,11,,78,72
5760,note_on,,1,0,16,,,,,,,,,,,,,,,,12,,73,72
5760,note_on,,0,0,18,,,,,,,,,,,,,,,,15,,54,72
5760,note_on,,1,0,12,,,,,,,,,,,,,,,,8,,54,72
5760,note_on,,1,0,5,,,,,,,,,,,,,,,,1,,69,72
5760,note_on,,1,0,18,,,,,,,,,,,,,,,,15,,69,72
5760,note_on,,0,0,18,,,,,,,,,,,,,,,,15,,57,72
5760,note_on,,0,0,18,,,,,,,,,,,,,,,,15,,78,72
5760,note_on,,1,0,11,,,,,,,,,,,,,,,,7,,61,72
5760,note_on,,1,0,10,,,,,,,,,,,,,,,,6,,66,72
5939,note_on,,179,0,18,,,,,,,,,,,,,,,,15,,69,0
5939,note_on,,0,0,18,,,,,,,,,,,,,,,,15,,73,0
5939,note_on,,179,0,17,,,,,,,,,,,,,,,,13,,54,0
5939,note_on,,179,0,9,,,,,,,,,,,,,,,,5,,69,0
5939,note_on,,179,0,11,,,,,,,,,,,,,,,,7,,61,0
5939,note_on,,0,0,18,,,,,,,,,,,,,,,,15,,54,0
5939,note_on,,0,0,18,,,,,,,,,,,,,,,,15,,78,0
5939,note_on,,179,0,12,,,,,,,,,,,,,,,,8,,54,0
5939,note_on,,179,0,6,,,,,,,,,,,,,,,,2,,54,0
5939,note_on,,179,0,10,,,,,,,,,,,,,,,,6,,66,0
5939,note_on,,0,0,18,,,,,,,,,,,,,,,,15,,57,0
5939,note_on,,179,0,5,,,,,,,,,,,,,,,,1,,69,0
5939,note_on,,179,0,14,,,,,,,,,,,,,,,,10,,81,0
5939,note_on,,179,0,16,,,,,,,,,,,,,,,,12,,73,0
5939,note_on,,179,0,15,,,,,,,,,,,,,,,,11,,78,0
5940,note_on,,1,0,10,,,,,,,,,,,,,,,,6,,66,72
5940,note_on,,1,0,9,,,,,,,,,,,,,,,,5,,69,72
5940,note_on,,0,0,18,,,,,,,,,,,,,,,,15,,69,72
5940,note_on,,1,0,14,,,,,,,,,,,,,,,,10,,81,72
5940,note_on,,1,0,11,,,,,,,,,,,,,,,,7,,61,72
5940,note_on,,1,0,15,,,,,,,,,,,,,,,,11,,73,72
5940,note_on,,0,0,18,,,,,,,,,,,,,,,,15,,57,72
5940,note_on,,0,0,18,,,,,,,,,,,,,,,,15,,73,72
5940,note_on,,1,0,18,,,,,,,,,,,,,,,,15,,54,72
5940,note_on,,1,0,17,,,,,,,,,,,,,,,,13,,54,72
5940,note_on,,1,0,6,,,,,,,,,,,,,,,,2,,54,72
5940,note_on,,1,0,5,,,,,,,,,,,,,,,,1,,69,72
5940,note_on,,0,0,18,,,,,,,,,,,,,,,,15,,78,72
5940,note_on,,1,0,16,,,,,,,,,,,,,,,,12,,66,72
5940,note_on,,1,0,12,,,,,,,,,,,,,,,,8,,54,72
5999,note_on,,59,0,17,,,,,,,,,,,,,,,,13,,54,0
5999,note_on,,59,0,11,,,,,,,,,,,,,,,,7,,61,0
5999,note_on,,59,0,6,,,,,,,,,,,,,,,,2,,54,0
5999,note_on,,59,0,9,,,,,,,,,,,,,,,,5,,69,0
5999,note_on,,59,0,10,,,,,,,,,,,,,,,,6,,66,0
5999,note_on,,59,0,5,,,,,,,,,,,,,,,,1,,69,0
5999,note_on,,59,0,15,,,,,,,,,,,,,,,,11,,73,0
5999,note_on,,59,0,14,,,,,,,,,,,,,,,,10,,81,0
5999,note_on,,59,0,16,,,,,,,,,,,,,,,,12,,66,0
5999,note_on,,59,0,12,,,,,,,,,,,,,,,,8,,54,0
5999,note_on,,0,0,18,,,,,,,,,,,,,,,,15,,78,0
5999,note_on,,0,0,18,,,,,,,,,,,,,,,,15,,57,0
5999,note_on,,0,0,18,,,,,,,,,,,,,,,,15,,73,0
5999,note_on,,0,0,18,,,,,,,,,,,,,,,,15,,69,0
5999,note_on,,59,0,18,,,,,,,,,,,,,,,,15,,54,0
6000,note_on,,1,0,15,,,,,,,,,,,,,,,,11,,69,72
6000,note_on,,1,0,11,,,,,,,,,,,,,,,,7,,64,72
6000,note_on,,1,0,17,,,,,,,,,,,,,,,,13,,49,72
6000,note_on,,1,0,9,,,,,,,,,,,,,,,,5,,76,72
6000,note_on,,1,0,12,,,,,,,,,,,,,,,,8,,61,72
6000,note_on,,1,0,18,,,,,,,,,,,,,,,,15,,52,72
6000,note_on,,0,0,18,,,,,,,,,,,,,,,,15,,76,72
6000,note_on,,0,0,18,,,,,,,,,,,,,,,,15,,81,72
6000,note_on,,1,0,5,,,,,,,,,,,,,,,,1,,76,72
6000,note_on,,0,0,18,,,,,,,,,,,,,,,,15,,49,72
6000,note_on,,0,0,18,,,,,,,,,,,,,,,,15,,69,72
6000,note_on,,1,0,16,,,,,,,,,,,,,,,,12,,64,72
6000,note_on,,1,0,14,,,,,,,,,,,,,,,,10,,76,72
6000,note_on,,1,0,10,,,,,,,,,,,,,,,,6,,69,72
6000,note_on,,1,0,6,,,,,,,,,,,,,,,,2,,49,72
6239,note_on,,239,0,6,,,,,,,,,,,,,,,,2,,49,0
6239,note_on,,239,0,12,,,,,,,,,,,,,,,,8,,61,0
6239,note_on,,239,0,14,,,,,,,,,,,,,,,,10,,76,0
6239,note_on,,239,0,17,,,,,,,,,,,,,,,,13,,49,0
6239,note_on,,239,0,11,,,,,,,,,,,,,,,,7,,64,0
6239,note_on,,239,0,18,,,,,,,,,,,,,,,,15,,52,0
6239,note_on,,0,0,18,,,,,,,,,,,,,,,,15,,76,0
6239,note_on,,0,0,18,,,,,,,,,,,,,,,,15,,81,0
6239,note_on,,0,0,18,,,,,,,,,,,,,,,,15,,49,0
6239,note_on,,239,0,16,,,,,,,,,,,,,,,,12,,64,0
6239,note_on,,0,0,18,,,,,,,,,,,,,,,,15,,69,0
6239,note_on,,239,0,10,,,,,,,,,,,,,,,,6,,69,0
6239,note_on,,239,0,9,,,,,,,,,,,,,,,,5,,76,0
6239,note_on,,239,0,5,,,,,,,,,,,,,,,,1,,76,0
6239,note_on,,239,0,15,,,,,,,,,,,,,,,,11,,69,0
6240,note_on,,1,0,5,,,,,,,,,,,,,,,,1,,74,72
6240,note_on,,1,0,18,,,,,,,,,,,,,,,,15,,59,72
6240,note_on,,0,0,18,,,,,,,,,,,,,,,,15,,71,72
6240,note_on,,0,0,18,,,,,,,,,,,,,,,,15,,80,72
6240,note_on,,1,0,14,,,,,,,,,,,,,,,,10,,74,72
6240,note_on,,1,0,17,,,,,,,,,,,,,,,,13,,47,72
6240,note_on,,0,0,18,,,,,,,,,,,,,,,,15,,74,72
6240,note_on,,1,0,12,,,,,,,,,,,,,,,,8,,59,72
6240,note_on,,1,0,9,,,,,,,,,,,,,,,,5,,74,72
6240,note_on,,1,0,11,,,,,,,,,,,,,,,,7,,59,72
6240,note_on,,1,0,10,,,,,,,,,,,,,,,,6,,68,72
6240,note_on,,1,0,15,,,,,,,,,,,,,,,,11,,68,72
6240,note_on,,1,0,6,,,,,,,,,,,,,,,,2,,47,72
6240,note_on,,0,0,18,,,,,,,,,,,,,,,,15,,47,72
6240,note_on,,1,0,16,,,,,,,,,,,,,,,,12,,71,72
6359,note_on,,119,0,10,,,,,,,,,,,,,,,,6,,68,0
6359,note_on,,119,0,12,,,,,,,,,,,,,,,,8,,59,0
6359,note_on,,119,0,14,,,,,,,,,,,,,,,,10,,74,0
6359,note_on,,119,0,17,,,,,,,,,,,,,,,,13,,47,0
6359,note_on,,119,0,6,,,,,,,,,,,,,,,,2,,47,0
6359,note_on,,119,0,15,,,,,,,,,,,,,,,,11,,68,0
6359,note_on,,119,0,11,,,,,,,,,,,,,,,,7,,59,0
6359,note_on,,119,0,9,,,,,,,,,,,,,,,,5,,74,0
6359,note_on,,0,0,18,,,,,,,,,,,,,,,,15,,74,0
6359,note_on,,0,0,18,,,,,,,,,,,,,,,,15,,47,0
6359,note_on,,0,0,18,,,,,,,,,,,,,,,,15,,80,0
6359,note_on,,0,0,18,,,,,,,,,,,,,,,,15,,71,0
6359,note_on,,119,0,18,,,,,,,,,,,,,,,,15,,59,0
6359,note_on,,119,0,16,,,,,,,,,,,,,,,,12,,71,0
6359,note_on,,119,0,5,,,,,,,,,,,,,,,,1,,74,0
6360,note_on,,1,0,17,,,,,,,,,,,,,,,,13,,45,72
6360,note_on,,1,0,11,,,,,,,,,,,,,,,,7,,64,72
6360,note_on,,1,0,5,,,,,,,,,,,,,,,,1,,73,72
6360,note_on,,1,0,9,,,,,,,,,,,,,,,,5,,73,72
6360,note_on,,1,0,18,,,,,,,,,,,,,,,,15,,76,72
6360,note_on,,1,0,16,,,,,,,,,,,,,,,,12,,64,72
6360,note_on,,1,0,14,,,,,,,,,,,,,,,,10,,73,72
6360,note_on,,0,0,18,,,,,,,,,,,,,,,,15,,81,72
6360,note_on,,1,0,12,,,,,,,,,,,,,,,,8,,57,72
6360,note_on,,0,0,18,,,,,,,,,,,,,,,,15,,45,72
6360,note_on,,1,0,6,,,,,,,,,,,,,,,,2,,45,72
6360,note_on,,1,0,15,,,,,,,,,,,,,,,,11,,69,72
6360,note_on,,1,0,10,,,,,,,,,,,,,,,,6,,69,72
6360,note_on,,0,0,18,,,,,,,,,,,,,,,,15,,52,72
6360,note_on,,0,0,18,,,,,,,,,,,,,,,,15,,73,72
6479,note_on,,119,0,11,,,,,,,,,,,,,,,,7,,64,0
6479,note_on,,0,0,18,,,,,,,,,,,,,,,,15,,52,0
6479,note_on,,0,0,18,,,,,,,,,,,,,,,,15,,81,0
6479,note_on,,0,0,18,,,,,,,,,,,,,,,,15,,45,0
6479,note_on,,0,0,18,,,,,,,,,,,,,,,,15,,73,0
6479,note_on,,119,0,14,,,,,,,,,,,,,,,,10,,73,0
6479,note_on,,119,0,10,,,,,,,,,,,,,,,,6,,69,0
6479,note_on,,119,0,18,,,,,,,,,,,,,,,,15,,76,0
6479,note_on,,119,0,9,,,,,,,,,,,,,,,,5,,73,0
6479,note_on,,119,0,5,,,,,,,,,,,,,,,,1,,73,0
6479,note_on,,119,0,12,,,,,,,,,,,,,,,,8,,57,0
6479,note_on,,119,0,6,,,,,,,,,,,,,,,,2,,45,0
6479,note_on,,119,0,17,,,,,,,,,,,,,,,,13,,45,0
6479,note_on,,119,0,16,,,,,,,,,,,,,,,,12,,64,0
6479,note_on,,119,0,15,,,,,,,,,,,,,,,,11,,69,0
6480,note_on,,1,0,12,,,,,,,,,,,,,,,,8,,52,72
6480,note_on,,1,0,9,,,,,,,,,,,,,,,,5,,71,72
6480,note_on,,1,0,10,,,,,,,,,,,,,,,,6,,68,72
6480,note_on,,1,0,17,,,,,,,,,,,,,,,,13,,52,72
6480,note_on,,1,0,15,,,,,,,,,,,,,,,,11,,68,72
6480,note_on,,1,0,16,,,,,,,,,,,,,,,,12,,64,72
6480,note_on,,1,0,11,,,,,,,,,,,,,,,,7,,64,72
6480,note_on,,1,0,18,,,,,,,,,,,,,,,,15,,68,72
6480,note_on,,0,0,18,,,,,,,,,,,,,,,,15,,76,72
6480,note_on,,0,0,18,,,,,,,,,,,,,,,,15,,56,72
6480,note_on,,0,0,18,,,,,,,,,,,,,,,,15,,71,72
6480,note_on,,1,0,5,,,,,,,,,,,,,,,,1,,71,72
6480,note_on,,1,0,14,,,,,,,,,,,,,,,,10,,71,72
6480,note_on,,1,0,6,,,,,,,,,,,,,,,,2,,52,72
6480,note_on,,0,0,18,,,,,,,,,,,,,,,,15,,52,72
6719,note_on,,239,0,16,,,,,,,,,,,,,,,,12,,64,0
6719,note_on,,239,0,17,,,,,,,,,,,,,,,,13,,52,0
6719,note_on,,239,0,12,,,,,,,,,,,,,,,,8,,52,0
6719,note_on,,239,0,6,,,,,,,,,,,,,,,,2,,52,0
6719,note_on,,239,0,11,,,,,,,,,,,,,,,,7,,64,0
6719,note_on,,239,0,10,,,,,,,,,,,,,,,,6,,68,0
6719,note_on,,0,0,18,,,,,,,,,,,,,,,,15,,71,0
6719,note_on,,239,0,9,,,,,,,,,,,,,,,,5,,71,0
6719,note_on,,239,0,5,,,,,,,,,,,,,,,,1,,71,0
6719,note_on,,0,0,18,,,,,,,,,,,,,,,,15,,56,0
6719,note_on,,0,0,18,,,,,,,,,,,,,,,,15,,76,0
6719,note_on,,239,0,15,,,,,,,,,,,,,,,,11,,68,0
6719,note_on,,239,0,14,,,,,,,,,,,,,,,,10,,71,0
6719,note_on,,0,0,18,,,,,,,,,,,,,,,,15,,52,0
6719,note_on,,239,0,18,,,,,,,,,,,,,,,,15,,68,0
6840,note_on,,121,0,17,,,,,,,,,,,,,,,,13,,50,72
6840,note_on,,121,0,18,,,,,,,,,,,,,,,,15,,59,72
6840,note_on,,121,0,10,,,,,,,,,,,,,,,,6,,68,72
6840,note_on,,121,0,9,,,,,,,,,,,,,,,,5,,71,72
6840,note_on,,121,0,14,,,,,,,,,,,,,,,,10,,83,72
6840,note_on,,121,0,6,,,,,,,,,,,,,,,,2,,50,72
6840,note_on,,121,0,5,,,,,,,,,,,,,,,,1,,71,72
6840,note_on,,121,0,12,,,,,,,,,,,,,,,,8,,50,72
6840,note_on,,121,0,16,,,,,,,,,,,,,,,,12,,64,72
6840,note_on,,121,0,11,,,,,,,,,,,,,,,,7,,52,72
6840,note_on,,0,0,18,,,,,,,,,,,,,,,,15,,52,72
6840,note_on,,0,0,18,,,,,,,,,,,,,,,,15,,68,72
6840,note_on,,121,0,15,,,,,,,,,,,,,,,,11,,80,72
6840,note_on,,0,0,18,,,,,,,,,,,,,,,,15,,50,72
6840,note_on,,0,0,18,,,,,,,,,,,,,,,,15,,71,72
6959,note_on,,0,0,18,,,,,,,,,,,,,,,,15,,50,0
6959,note_on,,119,0,15,,,,,,,,,,,,,,,,11,,80,0
6959,note_on,,119,0,5,,,,,,,,,,,,,,,,1,,71,0
6959,note_on,,119,0,6,,,,,,,,,,,,,,,,2,,50,0
6959,note_on,,119,0,14,,,,,,,,,,,,,,,,10,,83,0
6959,note_on,,119,0,16,,,,,,,,,,,,,,,,12,,64,0
6959,note_on,,119,0,11,,,,,,,,,,,,,,,,7,,52,0
6959,note_on,,119,0,12,,,,,,,,,,,,,,,,8,,50,0
6959,note_on,,119,0,18,,,,,,,,,,,,,,,,15,,59,0
6959,note_on,,119,0,17,,,,,,,,,,,,,,,,13,,50,0
6959,note_on,,0,0,18,,,,,,,,,,,,,,,,15,,52,0
6959,note_on,,0,0,18,,,,,,,,,,,,,,,,15,,68,0
6959,note_on,,119,0,10,,,,,,,,,,,,,,,,6,,68,0
6959,note_on,,0,0,18,,,,,,,,,,,,,,,,15,,71,0
6959,note_on,,119,0,9,,,,,,,,,,,,,,,,5,,71,0
6960,note_on,,1,0,10,,,,,,,,,,,,,,,,6,,65,72
6960,note_on,,1,0,14,,,,,,,,,,,,,,,,10,,83,72
6960,note_on,,1,0,16,,,,,,,,,,,,,,,,12,,68,72
6960,note_on,,1,0,17,,,,,,,,,,,,,,,,13,,49,72
6960,note_on,,0,0,18,,,,,,,,,,,,,,,,15,,68,72
6960,note_on,,1,0,5,,,,,,,,,,,,,,,,1,,71,72
6960,note_on,,1,0,9,,,,,,,,,,,,,,,,5,,71,72
6960,note_on,,1,0,6,,,,,,,,,,,,,,,,2,,49,72
6960,note_on,,1,0,15,,,,,,,,,,,,,,,,11,,77,72
6960,note_on,,1,0,11,,,,,,,,,,,,,,,,7,,56,72
6960,note_on,,0,0,18,,,,,,,,,,,,,,,,15,,49,72
6960,note_on,,0,0,18,,,,,,,,,,,,,,,,15,,71,72
6960,note_on,,1,0,12,,,,,,,,,,,,,,,,8,,49,72
6960,note_on,,0,0,18,,,,,,,,,,,,,,,,15,,53,72
6960,note_on,,1,0,18,,,,,,,,,,,,,,,,15,,59,72
7139,note_on,,179,0,9,,,,,,,,,,,,,,,,5,,71,0
7139,note_on,,179,0,10,,,,,,,,,,,,,,,,6,,65,0
7139,note_on,,179,0,5,,,,,,,,,,,,,,,,1,,71,0
7139,note_on,,179,0,15,,,,,,,,,,,,,,,,11,,77,0
7139,note_on,,179,0,11,,,,,,,,,,,,,,,,7,,56,0
7139,note_on,,179,0,17,,,,,,,,,,,,,,,,13,,49,0
7139,note_on,,179,0,16,,,,,,,,,,,,,,,,12,,68,0
7139,note_on,,179,0,18,,,,,,,,,,,,,,,,15,,59,0
7139,note_on,,0,0,18,,,,,,,,,,,,,,,,15,,68,0
7139,note_on,,179,0,12,,,,,,,,,,,,,,,,8,,49,0
7139,note_on,,0,0,18,,,,,,,,,,,,,,,,15,,71,0
7139,note_on,,0,0,18,,,,,,,,,,,,,,,,15,,49,0
7139,note_on,,0,0,18,,,,,,,,,,,,,,,,15,,53,0
7139,note_on,,179,0,14,,,,,,,,,,,,,,,,10,,83,0
7139,note_on,,179,0,6,,,,,,,,,,,,,,,,2,,49,0
7140,note_on,,1,0,15,,,,,,,,,,,,,,,,11,,77,72
7140,note_on,,1,0,6,,,,,,,,,,,,,,,,2,,49,72
7140,note_on,,1,0,18,,,,,,,,,,,,,,,,15,,59,72
7140,note_on,,0,0,18,,,,,,,,,,,,,,,,15,,53,72
7140,note_on,,0,0,18,,,,,,,,,,,,,,,,15,,49,72
7140,note_on,,0,0,18,,,,,,,,,,,,,,,,15,,71,72
7140,note_on,,1,0,14,,,,,,,,,,,,,,,,10,,83,72
7140,note_on,,0,0,18,,,,,,,,,,,,,,,,15,,68,72
7140,note_on,,1,0,10,,,,,,,,,,,,,,,,6,,65,72
7140,note_on,,1,0,5,,,,,,,,,,,,,,,,1,,71,72
7140,note_on,,1,0,12,,,,,,,,,,,,,,,,8,,49,72
7140,note_on,,1,0,17,,,,,,,,,,,,,,,,13,,49,72
7140,note_on,,1,0,9,,,,,,,,,,,,,,,,5,,71,72
7140,note_on,,1,0,16,,,,,,,,,,,,,,,,12,,68,72
7140,note_on,,1,0,11,,,,,,,,,,,,,,,,7,,61,72
7199,note_on,,59,0,14,,,,,,,,,,,,,,,,10,,83,0
7199,note_on,,59,0,11,,,,,,,,,,,,,,,,7,,61,0
7199,note_on,,59,0,6,,,,,,,,,,,,,,,,2,,49,0
7199,note_on,,59,0,12,,,,,,,,,,,,,,,,8,,49,0
7199,note_on,,59,0,10,,,,,,,,,,,,,,,,6,,65,0
7199,note_on,,59,0,5,,,,,,,,,,,,,,,,1,,71,0
7199,note_on,,59,0,16,,,,,,,,,,,,,,,,12,,68,0
7199,note_on,,59,0,9,,,,,,,,,,,,,,,,5,,71,0
7199,note_on,,59,0,18,,,,,,,,,,,,,,,,15,,59,0
7199,note_on,,0,0,18,,,,,,,,,,,,,,,,15,,53,0
7199,note_on,,0,0,18,,,,,,,,,,,,,,,,15,,49,0
7199,note_on,,0,0,18,,,,,,,,,,,,,,,,15,,71,0
7199,note_on,,0,0,18,,,,,,,,,,,,,,,,15,,68,0
7199,note_on,,59,0,17,,,,,,,,,,,,,,,,13,,49,0
7199,note_on,,59,0,15,,,,,,,,,,,,,,,,11,,77,0
7200,note_on,,1,0,12,,,,,,,,,,,,,,,,8,,54,72
7200,note_on,,1,0,11,,,,,,,,,,,,,,,,7,,61,72
7200,note_on,,1,0,17,,,,,,,,,,,,,,,,13,,54,72
7200,note_on,,1,0,6,,,,,,,,,,,,,,,,2,,54,72
7200,note_on,,1,0,16,,,,,,,,,,,,,,,,12,,69,72
7200,note_on,,1,0,14,,,,,,,,,,,,,,,,10,,81,72
7200,note_on,,0,0,18,,,,,,,,,,,,,,,,15,,69,72
7200,note_on,,0,0,18,,,,,,,,,,,,,,,,15,,61,72
7200,note_on,,0,0,18,,,,,,,,,,,,,,,,15,,57,72
7200,note_on,,1,0,10,,,,,,,,,,,,,,,,6,,66,72
7200,note_on,,1,0,5,,,,,,,,,,,,,,,,1,,69,72
7200,note_on,,1,0,18,,,,,,,,,,,,,,,,15,,66,72
7200,note_on,,1,0,9,,,,,,,,,,,,,,,,5,,69,72
7200,note_on,,1,0,15,,,,,,,,,,,,,,,,11,,73,72
7200,note_on,,0,0,18,,,,,,,,,,,,,,,,15,,54,72
7379,note_on,,179,0,15,,,,,,,,,,,,,,,,11,,73,0
7379,note_on,,179,0,5,,,,,,,,,,,,,,,,1,,69,0
7379,note_on,,179,0,11,,,,,,,,,,,,,,,,7,,61,0
7379,note_on,,179,0,6,,,,,,,,,,,,,,,,2,,54,0
7379,note_on,,179,0,9,,,,,,,,,,,,,,,,5,,69,0
7379,note_on,,0,0,18,,,,,,,,,,,,,,,,15,,54,0
7379,note_on,,0,0,18,,,,,,,,,,,,,,,,15,,61,0
7379,note_on,,179,0,18,,,,,,,,,,,,,,,,15,,66,0
7379,note_on,,179,0,17,,,,,,,,,,,,,,,,13,,54,0
7379,note_on,,179,0,14,,,,,,,,,,,,,,,,10,,81,0
7379,note_on,,0,0,18,,,,,,,,,,,,,,,,15,,69,0
7379,note_on,,179,0,16,,,,,,,,,,,,,,,,12,,69,0
7379,note_on,,0,0,18,,,,,,,,,,,,,,,,15,,57,0
7379,note_on,,179,0,10,,,,,,,,,,,,,,,,6,,66,0
7379,note_on,,179,0,12,,,,,,,,,,,,,,,,8,,54,0
7380,note_on,,1,0,5,,,,,,,,,,,,,,,,1,,69,72
7380,note_on,,1,0,14,,,,,,,,,,,,,,,,10,,81,72
7380,note_on,,1,0,15,,,,,,,,,,,,,,,,11,,73,72
7380,note_on,,1,0,16,,,,,,,,,,,,,,,,12,,66,72
7380,note_on,,1,0,9,,,,,,,,,,,,,,,,5,,69,72
7380,note_on,,1,0,12,,,,,,,,,,,,,,,,8,,54,72
7380,note_on,,0,0,18,,,,,,,,,,,,,,,,15,,54,72
7380,note_on,,0,0,18,,,,,,,,,,,,,,,,15,,69,72
7380,note_on,,1,0,6,,,,,,,,,,,,,,,,2,,54,72
7380,note_on,,0,0,18,,,,,,,,,,,,,,,,15,,66,72
7380,note_on,,0,0,18,,,,,,,,,,,,,,,,15,,61,72
7380,note_on,,1,0,18,,,,,,,,,,,,,,,,15,,57,72
7380,note_on,,1,0,17,,,,,,,,,,,,,,,,13,,54,72
7380,note_on,,1,0,11,,,,,,,,,,,,,,,,7,,61,72
7380,note_on,,1,0,10,,,,,,,,,,,,,,,,6,,66,72
7439,note_on,,59,0,9,,,,,,,,,,,,,,,,5,,69,0
7439,note_on,,59,0,6,,,,,,,,,,,,,,,,2,,54,0
7439,note_on,,0,0,18,,,,,,,,,,,,,,,,15,,69,0
7439,note_on,,59,0,16,,,,,,,,,,,,,,,,12,,66,0
7439,note_on,,0,0,18,,,,,,,,,,,,,,,,15,,54,0
7439,note_on,,59,0,14,,,,,,,,,,,,,,,,10,,81,0
7439,note_on,,59,0,5,,,,,,,,,,,,,,,,1,,69,0
7439,note_on,,59,0,15,,,,,,,,,,,,,,,,11,,73,0
7439,note_on,,0,0,18,,,,,,,,,,,,,,,,15,,66,0
7439,note_on,,0,0,18,,,,,,,,,,,,,,,,15,,61,0
7439,note_on,,59,0,12,,,,,,,,,,,,,,,,8,,54,0
7439,note_on,,59,0,18,,,,,,,,,,,,,,,,15,,57,0
7439,note_on,,59,0,11,,,,,,,,,,,,,,,,7,,61,0
7439,note_on,,59,0,17,,,,,,,,,,,,,,,,13,,54,0
7439,note_on,,59,0,10,,,,,,,,,,,,,,,,6,,66,0
7440,note_on,,1,0,18,,,,,,,,,,,,,,,,15,,66,72
7440,note_on,,0,0,18,,,,,,,,,,,,,,,,15,,69,72
7440,note_on,,0,0,18,,,,,,,,,,,,,,,,15,,61,72
7440,note_on,,1,0,14,,,,,,,,,,,,,,,,10,,81,72
7440,note_on,,0,0,18,,,,,,,,,,,,,,,,15,,57,72
7440,note_on,,1,0,15,,,,,,,,,,,,,,,,11,,73,72
7440,note_on,,1,0,9,,,,,,,,,,,,,,,,5,,69,72
7440,note_on,,1,0,5,,,,,,,,,,,,,,,,1,,69,72
7440,note_on,,1,0,11,,,,,,,,,,,,,,,,7,,61,72
7440,note_on,,1,0,12,,,,,,,,,,,,,,,,8,,54,72
7440,note_on,,1,0,10,,,,,,,,,,,,,,,,6,,66,72
7440,note_on,,1,0,6,,,,,,,,,,,,,,,,2,,54,72
7440,note_on,,1,0,16,,,,,,,,,,,,,,,,12,,66,72
7440,note_on,,0,0,18,,,,,,,,,,,,,,,,15,,54,72
7440,note_on,,1,0,17,,,,,,,,,,,,,,,,13,,54,72
7559,note_on,,119,0,11,,,,,,,,,,,,,,,,7,,61,0
7559,note_on,,119,0,18,,,,,,,,,,,,,,,,15,,66,0
7559,note_on,,0,0,18,,,,,,,,,,,,,,,,15,,69,0
7559,note_on,,0,0,18,,,,,,,,,,,,,,,,15,,57,0
7559,note_on,,0,0,18,,,,,,,,,,,,,,,,15,,54,0
7559,note_on,,0,0,18,,,,,,,,,,,,,,,,15,,61,0
7559,note_on,,119,0,9,,,,,,,,,,,,,,,,5,,69,0
7559,note_on,,119,0,15,,,,,,,,,,,,,,,,11,,73,0
7559,note_on,,119,0,5,,,,,,,,,,,,,,,,1,,69,0
7559,note_on,,119,0,17,,,,,,,,,,,,,,,,13,,54,0
7559,note_on,,119,0,12,,,,,,,,,,,,,,,,8,,54,0
7559,note_on,,119,0,6,,,,,,,,,,,,,,,,2,,54,0
7559,note_on,,119,0,10,,,,,,,,,,,,,,,,6,,66,0
7559,note_on,,119,0,14,,,,,,,,,,,,,,,,10,,81,0
7559,note_on,,119,0,16,,,,,,,,,,,,,,,,12,,66,0
7560,note_on,,1,0,10,,,,,,,,,,,,,,,,6,,69,72
7560,note_on,,1,0,5,,,,,,,,,,,,,,,,1,,73,72
7560,note_on,,1,0,9,,,,,,,,,,,,,,,,5,,73,72
7560,note_on,,1,0,17,,,,,,,,,,,,,,,,13,,54,72
7560,note_on,,1,0,14,,,,,,,,,,,,,,,,10,,85,72
7560,note_on,,0,0,18,,,,,,,,,,,,,,,,15,,57,72
7560,note_on,,1,0,12,,,,,,,,,,,,,,,,8,,54,72
7560,note_on,,1,0,15,,,,,,,,,,,,,,,,11,,81,72
7560,note_on,,0,0,18,,,,,,,,,,,,,,,,15,,78,72
7560,note_on,,0,0,18,,,,,,,,,,,,,,,,15,,69,72
7560,note_on,,1,0,18,,,,,,,,,,,,,,,,15,,73,72
7560,note_on,,1,0,11,,,,,,,,,,,,,,,,7,,66,72
7560,note_on,,1,0,6,,,,,,,,,,,,,,,,2,,54,72
7560,note_on,,1,0,16,,,,,,,,,,,,,,,,12,,66,72
7560,note_on,,0,0,18,,,,,,,,,,,,,,,,15,,54,72
7679,note_on,,0,0,18,,,,,,,,,,,,,,,,15,,69,0
7679,note_on,,0,0,18,,,,,,,,,,,,,,,,15,,78,0
7679,note_on,,119,0,11,,,,,,,,,,,,,,,,7,,66,0
7679,note_on,,0,0,18,,,,,,,,,,,,,,,,15,,54,0
7679,note_on,,0,0,18,,,,,,,,,,,,,,,,15,,57,0
7679,note_on,,119,0,9,,,,,,,,,,,,,,,,5,,73,0
7679,note_on,,119,0,18,,,,,,,,,,,,,,,,15,,73,0
7679,note_on,,119,0,14,,,,,,,,,,,,,,,,10,,85,0
7679,note_on,,119,0,5,,,,,,,,,,,,,,,,1,,73,0
7679,note_on,,119,0,6,,,,,,,,,,,,,,,,2,,54,0
7679,note_on,,119,0,10,,,,,,,,,,,,,,,,6,,69,0
7679,note_on,,119,0,12,,,,,,,,,,,,,,,,8,,54,0
7679,note_on,,119,0,17,,,,,,,,,,,,,,,,13,,54,0
7679,note_on,,119,0,16,,,,,,,,,,,,,,,,12,,66,0
7679,note_on,,119,0,15,,,,,,,,,,,,,,,,11,,81,0
7680,note_on,,1,0,9,,,,,,,,,,,,,,,,5,,74,72
7680,note_on,,1,0,6,,,,,,,,,,,,,,,,2,,59,72
7680,note_on,,1,0,11,,,,,,,,,,,,,,,,7,,62,72
7680,note_on,,1,0,14,,,,,,,,,,,,,,,,10,,86,72
7680,note_on,,1,0,12,,,,,,,,,,,,,,,,8,,59,72
7680,note_on,,1,0,10,,,,,,,,,,,,,,,,6,,66,72
7680,note_on,,1,0,16,,,,,,,,,,,,,,,,12,,62,72
7680,note_on,,1,0,17,,,,,,,,,,,,,,,,13,,59,72
7680,note_on,,1,0,18,,,,,,,,,,,,,,,,15,,74,72
7680,note_on,,0,0,18,,,,,,,,,,,,,,,,15,,66,72
7680,note_on,,0,0,18,,,,,,,,,,,,,,,,15,,59,72
7680,note_on,,0,0,18,,,,,,,,,,,,,,,,15,,71,72
7680,note_on,,0,0,18,,,,,,,,,,,,,,,,15,,62,72
7680,note_on,,1,0,5,,,,,,,,,,,,,,,,1,,74,72
7680,note_on,,1,0,15,,,,,,,,,,,,,,,,11,,78,72
7919,note_on,,239,0,12,,,,,,,,,,,,,,,,8,,59,0
7919,note_on,,239,0,16,,,,,,,,,,,,,,,,12,,62,0
7919,note_on,,239,0,15,,,,,,,,,,,,,,,,11,,78,0
7919,note_on,,239,0,5,,,,,,,,,,,,,,,,1,,74,0
7919,note_on,,0,0,18,,,,,,,,,,,,,,,,15,,71,0
7919,note_on,,0,0,18,,,,,,,,,,,,,,,,15,,66,0
7919,note_on,,0,0,18,,,,,,,,,,,,,,,,15,,59,0
7919,note_on,,239,0,10,,,,,,,,,,,,,,,,6,,66,0
7919,note_on,,0,0,18,,,,,,,,,,,,,,,,15,,62,0
7919,note_on,,239,0,18,,,,,,,,,,,,,,,,15,,74,0
7919,note_on,,239,0,14,,,,,,,,,,,,,,,,10,,86,0
7919,note_on,,239,0,11,,,,,,,,,,,,,,,,7,,62,0
7919,note_on,,239,0,9,,,,,,,,,,,,,,,,5,,74,0
7919,note_on,,239,0,6,,,,,,,,,,,,,,,,2,,59,0
7919,note_on,,239,0,17,,,,,,,,,,,,,,,,13,,59,0
8040,note_on,,121,0,15,,,,,,,,,,,,,,,,11,,69,72
8040,note_on,,121,0,14,,,,,,,,,,,,,,,,10,,78,72
8040,note_on,,121,0,16,,,,,,,,,,,,,,,,12,,61,72
8040,note_on,,121,0,11,,,,,,,,,,,,,,,,7,,66,72
8040,note_on,,121,0,6,,,,,,,,,,,,,,,,2,,54,72
8040,note_on,,121,0,10,,,,,,,,,,,,,,,,6,,69,72
8040,note_on,,121,0,12,,,,,,,,,,,,,,,,8,,54,72
8040,note_on,,0,0,18,,,,,,,,,,,,,,,,15,,81,72
8040,note_on,,121,0,18,,,,,,,,,,,,,,,,15,,73,72
8040,note_on,,0,0,18,,,,,,,,,,,,,,,,15,,57,72
8040,note_on,,121,0,5,,,,,,,,,,,,,,,,1,,73,72
8040,note_on,,121,0,9,,,,,,,,,,,,,,,,5,,73,72
8040,note_on,,0,0,18,,,,,,,,,,,,,,,,15,,78,72
8040,note_on,,121,0,17,,,,,,,,,,,,,,,,13,,54,72
8040,note_on,,0,0,18,,,,,,,,,,,,,,,,15,,54,72
8159,note_on,,119,0,9,,,,,,,,,,,,,,,,5,,73,0
8159,note_on,,119,0,15,,,,,,,,,,,,,,,,11,,69,0
8159,note_on,,119,0,12,,,,,,,,,,,,,,,,8,,54,0
8159,note_on,,119,0,11,,,,,,,,,,,,,,,,7,,66,0
8159,note_on,,119,0,5,,,,,,,,,,,,,,,,1,,73,0
8159,note_on,,119,0,17,,,,,,,,,,,,,,,,13,,54,0
8159,note_on,,119,0,6,,,,,,,,,,,,,,,,2,,54,0
8159,note_on,,119,0,16,,,,,,,,,,,,,,,,12,,61,0
8159,note_on,,119,0,10,,,,,,,,,,,,,,,,6,,69,0
8159,note_on,,119,0,14,,,,,,,,,,,,,,,,10,,78,0
8159,note_on,,119,0,18,,,,,,,,,,,,,,,,15,,73,0
8159,note_on,,0,0,18,,,,,,,,,,,,,,,,15,,57,0
8159,note_on,,0,0,18,,,,,,,,,,,,,,,,15,,54,0
8159,note_on,,0,0,18,,,,,,,,,,,,,,,,15,,81,0
8159,note_on,,0,0,18,,,,,,,,,,,,,,,,15,,78,0
8160,note_on,,1,0,6,,,,,,,,,,,,,,,,2,,61,72
8160,note_on,,1,0,16,,,,,,,,,,,,,,,,12,,61,72
8160,note_on,,1,0,14,,,,,,,,,,,,,,,,10,,78,72
8160,note_on,,0,0,18,,,,,,,,,,,,,,,,15,,78,72
8160,note_on,,1,0,10,,,,,,,,,,,,,,,,6,,68,72
8160,note_on,,1,0,12,,,,,,,,,,,,,,,,8,,61,72
8160,note_on,,0,0,18,,,,,,,,,,,,,,,,15,,68,72
8160,note_on,,0,0,18,,,,,,,,,,,,,,,,15,,80,72
8160,note_on,,1,0,18,,,,,,,,,,,,,,,,15,,61,72
8160,note_on,,1,0,11,,,,,,,,,,,,,,,,7,,66,72
8160,note_on,,1,0,17,,,,,,,,,,,,,,,,13,,61,72
8160,note_on,,1,0,15,,,,,,,,,,,,,,,,11,,68,72
8160,note_on,,1,0,5,,,,,,,,,,,,,,,,1,,73,72
8160,note_on,,1,0,9,,,,,,,,,,,,,,,,5,,73,72
8160,note_on,,0,0,18,,,,,,,,,,,,,,,,15,,73,72
8399,note_on,,239,0,15,,,,,,,,,,,,,,,,11,,68,0
8399,note_on,,239,0,14,,,,,,,,,,,,,,,,10,,78,0
8399,note_on,,239,0,16,,,,,,,,,,,,,,,,12,,61,0
8399,note_on,,0,0,18,,,,,,,,,,,,,,,,15,,78,0
8399,note_on,,239,0,12,,,,,,,,,,,,,,,,8,,61,0
8399,note_on,,0,0,18,,,,,,,,,,,,,,,,15,,80,0
8399,note_on,,239,0,11,,,,,,,,,,,,,,,,7,,66,0
8399,note_on,,0,0,18,,,,,,,,,,,,,,,,15,,73,0
8399,note_on,,239,0,18,,,,,,,,,,,,,,,,15,,61,0
8399,note_on,,239,0,6,,,,,,,,,,,,,,,,2,,61,0
8399,note_on,,239,0,17,,,,,,,,,,,,,,,,13,,61,0
8399,note_on,,239,0,5,,,,,,,,,,,,,,,,1,,73,0
8399,note_on,,0,0,18,,,,,,,,,,,,,,,,15,,68,0
8399,note_on,,239,0,10,,,,,,,,,,,,,,,,6,,68,0
8399,note_on,,239,0,9,,,,,,,,,,,,,,,,5,,73,0
8400,note_on,,1,0,11,,,,,,,,,,,,,,,,7,,65,72
8400,note_on,,1,0,17,,,,,,,,,,,,,,,,13,,49,72
8400,note_on,,1,0,12,,,,,,,,,,,,,,,,8,,49,72
8400,note_on,,1,0,15,,,,,,,,,,,,,,,,11,,68,72
8400,note_on,,0,0,18,,,,,,,,,,,,,,,,15,,80,72
8400,note_on,,1,0,14,,,,,,,,,,,,,,,,10,,77,72
8400,note_on,,1,0,5,,,,,,,,,,,,,,,,1,,73,72
8400,note_on,,0,0,18,,,,,,,,,,,,,,,,15,,49,72
8400,note_on,,0,0,18,,,,,,,,,,,,,,,,15,,77,72
8400,note_on,,1,0,6,,,,,,,,,,,,,,,,2,,49,72
8400,note_on,,1,0,9,,,,,,,,,,,,,,,,5,,73,72
8400,note_on,,0,0,18,,,,,,,,,,,,,,,,15,,73,72
8400,note_on,,1,0,10,,,,,,,,,,,,,,,,6,,68,72
8400,note_on,,0,0,18,,,,,,,,,,,,,,,,15,,68,72
8400,note_on,,1,0,18,,,,,,,,,,,,,,,,15,,61,72
8400,note_on,,1,0,16,,,,,,,,,,,,,,,,12,,61,72
8579,note_on,,179,0,6,,,,,,,,,,,,,,,,2,,49,0
8579,note_on,,179,0,14,,,,,,,,,,,,,,,,10,,77,0
8579,note_on,,179,0,12,,,,,,,,,,,,,,,,8,,49,0
8579,note_on,,179,0,16,,,,,,,,,,,,,,,,12,,61,0
8579,note_on,,179,0,17,,,,,,,,,,,,,,,,13,,49,0
8579,note_on,,0,0,18,,,,,,,,,,,,,,,,15,,77,0
8579,note_on,,0,0,18,,,,,,,,,,,,,,,,15,,80,0
8579,note_on,,179,0,11,,,,,,,,,,,,,,,,7,,65,0
8579,note_on,,179,0,10,,,,,,,,,,,,,,,,6,,68,0
8579,note_on,,0,0,18,,,,,,,,,,,,,,,,15,,49,0
8579,note_on,,179,0,15,,,,,,,,,,,,,,,,11,,68,0
8579,note_on,,0,0,18,,,,,,,,,,,,,,,,15,,73,0
8579,note_on,,0,0,18,,,,,,,,,,,,,,,,15,,68,0
8579,note_on,,179,0,9,,,,,,,,,,,,,,,,5,,73,0
8579,note_on,,179,0,18,,,,,,,,,,,,,,,,15,,61,0
8579,note_on,,179,0,5,,,,,,,,,,,,,,,,1,,73,0
8580,note_on,,1,0,17,,,,,,,,,,,,,,,,13,,49,72
8580,note_on,,1,0,18,,,,,,,,,,,,,,,,15,,73,72
8580,note_on,,0,0,18,,,,,,,,,,,,,,,,15,,80,72
8580,note_on,,1,0,11,,,,,,,,,,,,,,,,7,,61,72
8580,note_on,,1,0,6,,,,,,,,,,,,,,,,2,,49,72
8580,note_on,,1,0,12,,,,,,,,,,,,,,,,8,,49,72
8580,note_on,,1,0,9,,,,,,,,,,,,,,,,5,,68,72
8580,note_on,,0,0,18,,,,,,,,,,,,,,,,15,,77,72
8580,note_on,,1,0,16,,,,,,,,,,,,,,,,12,,61,72
8580,note_on,,0,0,18,,,,,,,,,,,,,,,,15,,49,72
8580,note_on,,0,0,18,,,,,,,,,,,,,,,,15,,61,72
8580,note_on,,0,0,18,,,,,,,,,,,,,,,,15,,68,72
8580,note_on,,1,0,5,,,,,,,,,,,,,,,,1,,68,72
8580,note_on,,1,0,10,,,,,,,,,,,,,,,,6,,65,72
8580,note_on,,1,0,14,,,,,,,,,,,,,,,,10,,77,72
8580,note_on,,1,0,15,,,,,,,,,,,,,,,,11,,68,72
8639,note_on,,59,0,11,,,,,,,,,,,,,,,,7,,61,0
8639,note_on,,0,0,18,,,,,,,,,,,,,,,,15,,49,0
8639,note_on,,59,0,5,,,,,,,,,,,,,,,,1,,68,0
8639,note_on,,0,0,18,,,,,,,,,,,,,,,,15,,77,0
8639,note_on,,0,0,18,,,,,,,,,,,,,,,,15,,68,0
8639,note_on,,0,0,18,,,,,,,,,,,,,,,,15,,80,0
8639,note_on,,59,0,17,,,,,,,,,,,,,,,,13,,49,0
8639,note_on,,59,0,16,,,,,,,,,,,,,,,,12,,61,0
8639,note_on,,0,0,18,,,,,,,,,,,,,,,,15,,61,0
8639,note_on,,59,0,6,,,,,,,,,,,,,,,,2,,49,0
8639,note_on,,59,0,15,,,,,,,,,,,,,,,,11,,68,0
8639,note_on,,59,0,12,,,,,,,,,,,,,,,,8,,49,0
8639,note_on,,59,0,14,,,,,,,,,,,,,,,,10,,77,0
8639,note_on,,59,0,9,,,,,,,,,,,,,,,,5,,68,0
8639,note_on,,59,0,18,,,,,,,,,,,,,,,,15,,73,0
8639,note_on,,59,0,10,,,,,,,,,,,,,,,,6,,65,0
8640,note_on,,1,0,18,,,,,,,,,,,,,,,,15,,69,72
8640,note_on,,1,0,12,,,,,,,,,,,,,,,,8,,54,72
8640,note_on,,1,0,16,,,,,,,,,,,,,,,,12,,61,72
8640,note_on,,1,0,14,,,,,,,,,,,,,,,,10,,78,72
8640,note_on,,1,0,5,,,,,,,,,,,,,,,,1,,69,72
8640,note_on,,0,0,18,,,,,,,,,,,,,,,,15,,78,72
8640,note_on,,0,0,18,,,,,,,,,,,,,,,,15,,57,72
8640,note_on,,1,0,11,,,,,,,,,,,,,,,,7,,61,72
8640,note_on,,0,0,18,,,,,,,,,,,,,,,,15,,73,72
8640,note_on,,1,0,17,,,,,,,,,,,,,,,,13,,54,72
8640,note_on,,1,0,6,,,,,,,,,,,,,,,,2,,54,72
8640,note_on,,1,0,15,,,,,,,,,,,,,,,,11,,69,72
8640,note_on,,0,0,18,,,,,,,,,,,,,,,,15,,54,72
8640,note_on,,1,0,9,,,,,,,,,,,,,,,,5,,69,72
8640,note_on,,1,0,10,,,,,,,,,,,,,,,,6,,66,72
8879,note_on,,239,0,16,,,,,,,,,,,,,,,,12,,61,0
8879,note_on,,239,0,15,,,,,,,,,,,,,,,,11,,69,0
8879,note_on,,239,0,14,,,,,,,,,,,,,,,,10,,78,0
8879,note_on,,239,0,17,,,,,,,,,,,,,,,,13,,54,0
8879,note_on,,239,0,9,,,,,,,,,,,,,,,,5,,69,0
8879,note_on,,239,0,5,,,,,,,,,,,,,,,,1,,69,0
8879,note_on,,0,0,18,,,,,,,,,,,,,,,,15,,54,0
8879,note_on,,239,0,10,,,,,,,,,,,,,,,,6,,66,0
8879,note_on,,0,0,18,,,,,,,,,,,,,,,,15,,78,0
8879,note_on,,239,0,12,,,,,,,,,,,,,,,,8,,54,0
8879,note_on,,0,0,18,,,,,,,,,,,,,,,,15,,73,0
8879,note_on,,0,0,18,,,,,,,,,,,,,,,,15,,57,0
8879,note_on,,239,0,11,,,,,,,,,,,,,,,,7,,61,0
8879,note_on,,239,0,18,,,,,,,,,,,,,,,,15,,69,0
8879,note_on,,239,0,6,,,,,,,,,,,,,,,,2,,54,0
8880,set_tempo,,3600,1,0,,,,,,,,,705882,,,,,,,,,,
8940,note_on,,3901,0,8,,,,,,,,,,,,,,,,4,,78,72
8940,note_on,,61,0,6,,,,,,,,,,,,,,,,2,,50,72
8940,note_on,,61,0,15,,,,,,,,,,,,,,,,11,,74,72
8940,note_on,,0,0,18,,,,,,,,,,,,,,,,15,,62,72
8940,note_on,,0,0,18,,,,,,,,,,,,,,,,15,,74,72
8940,note_on,,61,0,17,,,,,,,,,,,,,,,,13,,50,72
8940,note_on,,61,0,9,,,,,,,,,,,,,,,,5,,74,72
8940,note_on,,0,0,18,,,,,,,,,,,,,,,,15,,50,72
8940,note_on,,3901,0,7,,,,,,,,,,,,,,,,3,,81,72
8940,note_on,,0,0,18,,,,,,,,,,,,,,,,15,,78,72
8940,note_on,,3901,0,13,,,,,,,,,,,,,,,,14,,50,72
8940,note_on,,61,0,16,,,,,,,,,,,,,,,,12,,69,72
8940,note_on,,61,0,12,,,,,,,,,,,,,,,,8,,50,72
8940,note_on,,61,0,14,,,,,,,,,,,,,,,,10,,78,72
8940,note_on,,61,0,11,,,,,,,,,,,,,,,,7,,66,72
8940,note_on,,61,0,10,,,,,,,,,,,,,,,,6,,69,72
8940,note_on,,61,0,18,,,,,,,,,,,,,,,,15,,69,72
8940,note_on,,61,0,5,,,,,,,,,,,,,,,,1,,74,72
8999,note_on,,59,0,10,,,,,,,,,,,,,,,,6,,69,0
8999,note_on,,59,0,9,,,,,,,,,,,,,,,,5,,74,0
8999,note_on,,0,0,18,,,,,,,,,,,,,,,,15,,62,0
8999,note_on,,59,0,16,,,,,,,,,,,,,,,,12,,69,0
8999,note_on,,0,0,18,,,,,,,,,,,,,,,,15,,74,0
8999,note_on,,59,0,17,,,,,,,,,,,,,,,,13,,50,0
8999,note_on,,59,0,13,,,,,,,,,,,,,,,,14,,50,0
8999,note_on,,59,0,11,,,,,,,,,,,,,,,,7,,66,0
8999,note_on,,59,0,18,,,,,,,,,,,,,,,,15,,69,0
8999,note_on,,59,0,7,,,,,,,,,,,,,,,,3,,81,0
8999,note_on,,59,0,15,,,,,,,,,,,,,,,,11,,74,0
8999,note_on,,0,0,18,,,,,,,,,,,,,,,,15,,50,0
8999,note_on,,59,0,6,,,,,,,,,,,,,,,,2,,50,0
8999,note_on,,0,0,18,,,,,,,,,,,,,,,,15,,78,0
8999,note_on,,59,0,14,,,,,,,,,,,,,,,,10,,78,0
8999,note_on,,59,0,8,,,,,,,,,,,,,,,,4,,78,0
8999,note_on,,59,0,5,,,,,,,,,,,,,,,,1,,74,0
8999,note_on,,59,0,12,,,,,,,,,,,,,,,,8,,50,0
9000,note_on,,1,0,13,,,,,,,,,,,,,,,,14,,50,72
9000,note_on,,1,0,10,,,,,,,,,,,,,,,,6,,69,72
9000,note_on,,1,0,16,,,,,,,,,,,,,,,,12,,69,72
9000,note_on,,1,0,17,,,,,,,,,,,,,,,,13,,50,72
9000,note_on,,1,0,5,,,,,,,,,,,,,,,,1,,74,72
9000,note_on,,1,0,7,,,,,,,,,,,,,,,,3,,81,72
9000,note_on,,1,0,14,,,,,,,,,,,,,,,,10,,78,72
9000,note_on,,1,0,8,,,,,,,,,,,,,,,,4,,78,72
9000,note_on,,1,0,12,,,,,,,,,,,,,,,,8,,50,72
9000,note_on,,1,0,6,,,,,,,,,,,,,,,,2,,50,72
9000,note_on,,0,0,18,,,,,,,,,,,,,,,,15,,74,72
9000,note_on,,1,0,15,,,,,,,,,,,,,,,,11,,74,72
9000,note_on,,1,0,9,,,,,,,,,,,,,,,,5,,74,72
9000,note_on,,0,0,18,,,,,,,,,,,,,,,,15,,50,72
9000,note_on,,0,0,18,,,,,,,,,,,,,,,,15,,69,72
9000,note_on,,1,0,11,,,,,,,,,,,,,,,,7,,66,72
9000,note_on,,0,0,18,,,,,,,,,,,,,,,,15,,78,72
9000,note_on,,1,0,18,,,,,,,,,,,,,,,,15,,62,72
9059,note_on,,0,0,18,,,,,,,,,,,,,,,,15,,69,0
9059,note_on,,0,0,18,,,,,,,,,,,,,,,,15,,74,0
9059,note_on,,0,0,18,,,,,,,,,,,,,,,,15,,78,0
9059,note_on,,59,0,18,,,,,,,,,,,,,,,,15,,62,0
9059,note_on,,59,0,16,,,,,,,,,,,,,,,,12,,69,0
9059,note_on,,59,0,11,,,,,,,,,,,,,,,,7,,66,0
9059,note_on,,59,0,10,,,,,,,,,,,,,,,,6,,69,0
9059,note_on,,59,0,12,,,,,,,,,,,,,,,,8,,50,0
9059,note_on,,59,0,9,,,,,,,,,,,,,,,,5,,74,0
9059,note_on,,59,0,6,,,,,,,,,,,,,,,,2,,50,0
9059,note_on,,59,0,17,,,,,,,,,,,,,,,,13,,50,0
9059,note_on,,0,0,18,,,,,,,,,,,,,,,,15,,50,0
9059,note_on,,59,0,7,,,,,,,,,,,,,,,,3,,81,0
9059,note_on,,59,0,15,,,,,,,,,,,,,,,,11,,74,0
9059,note_on,,59,0,5,,,,,,,,,,,,,,,,1,,74,0
9059,note_on,,59,0,8,,,,,,,,,,,,,,,,4,,78,0
9059,note_on,,59,0,14,,,,,,,,,,,,,,,,10,,78,0
9059,note_on,,59,0,13,,,,,,,,,,,,,,,,14,,50,0
9060,note_on,,1,0,12,,,,,,,,,,,,,,,,8,,50,72
9060,note_on,,1,0,14,,,,,,,,,,,,,,,,10,,78,72
9060,note_on,,1,0,9,,,,,,,,,,,,,,,,5,,74,72
9060,note_on,,1,0,8,,,,,,,,,,,,,,,,4,,78,72
9060,note_on,,1,0,10,,,,,,,,,,,,,,,,6,,69,72
9060,note_on,,1,0,6,,,,,,,,,,,,,,,,2,,50,72
9060,note_on,,1,0,18,,,,,,,,,,,,,,,,15,,78,72
9060,note_on,,0,0,18,,,,,,,,,,,,,,,,15,,74,72
9060,note_on,,0,0,18,,,,,,,,,,,,,,,,15,,62,72
9060,note_on,,0,0,18,,,,,,,,,,,,,,,,15,,50,72
9060,note_on,,0,0,18,,,,,,,,,,,,,,,,15,,69,72
9060,note_on,,1,0,13,,,,,,,,,,,,,,,,14,,50,72
9060,note_on,,1,0,5,,,,,,,,,,,,,,,,1,,74,72
9060,note_on,,1,0,17,,,,,,,,,,,,,,,,13,,50,72
9060,note_on,,1,0,7,,,,,,,,,,,,,,,,3,,81,72
9060,note_on,,1,0,11,,,,,,,,,,,,,,,,7,,66,72
9060,note_on,,1,0,15,,,,,,,,,,,,,,,,11,,74,72
9060,note_on,,1,0,16,,,,,,,,,,,,,,,,12,,69,72
9119,note_on,,59,0,10,,,,,,,,,,,,,,,,6,,69,0
9119,note_on,,59,0,8,,,,,,,,,,,,,,,,4,,78,0
9119,note_on,,0,0,18,,,,,,,,,,,,,,,,15,,50,0
9119,note_on,,59,0,9,,,,,,,,,,,,,,,,5,,74,0
9119,note_on,,59,0,17,,,,,,,,,,,,,,,,13,,50,0
9119,note_on,,59,0,15,,,,,,,,,,,,,,,,11,,74,0
9119,note_on,,59,0,12,,,,,,,,,,,,,,,,8,,50,0
9119,note_on,,59,0,13,,,,,,,,,,,,,,,,14,,50,0
9119,note_on,,59,0,5,,,,,,,,,,,,,,,,1,,74,0
9119,note_on,,59,0,6,,,,,,,,,,,,,,,,2,,50,0
9119,note_on,,59,0,16,,,,,,,,,,,,,,,,12,,69,0
9119,note_on,,59,0,7,,,,,,,,,,,,,,,,3,,81,0
9119,note_on,,0,0,18,,,,,,,,,,,,,,,,15,,69,0
9119,note_on,,0,0,18,,,,,,,,,,,,,,,,15,,62,0
9119,note_on,,0,0,18,,,,,,,,,,,,,,,,15,,74,0
9119,note_on,,59,0,18,,,,,,,,,,,,,,,,15,,78,0
9119,note_on,,59,0,14,,,,,,,,,,,,,,,,10,,78,0
9119,note_on,,59,0,11,,,,,,,,,,,,,,,,7,,66,0
9120,note_on,,1,0,7,,,,,,,,,,,,,,,,3,,79,72
9120,note_on,,1,0,18,,,,,,,,,,,,,,,,15,,55,72
9120,note_on,,1,0,14,,,,,,,,,,,,,,,,10,,79,72
9120,note_on,,0,0,18,,,,,,,,,,,,,,,,15,,76,72
9120,note_on,,1,0,15,,,,,,,,,,,,,,,,11,,73,72
9120,note_on,,1,0,11,,,,,,,,,,,,,,,,7,,64,72
9120,note_on,,0,0,18,,,,,,,,,,,,,,,,15,,73,72
9120,note_on,,0,0,18,,,,,,,,,,,,,,,,15,,67,72
9120,note_on,,1,0,5,,,,,,,,,,,,,,,,1,,73,72
9120,note_on,,1,0,12,,,,,,,,,,,,,,,,8,,52,72
9120,note_on,,0,0,18,,,,,,,,,,,,,,,,15,,52,72
9120,note_on,,1,0,10,,,,,,,,,,,,,,,,6,,67,72
9120,note_on,,1,0,8,,,,,,,,,,,,,,,,4,,76,72
9120,note_on,,1,0,6,,,,,,,,,,,,,,,,2,,52,72
9120,note_on,,1,0,9,,,,,,,,,,,,,,,,5,,73,72
9120,note_on,,1,0,13,,,,,,,,,,,,,,,,14,,45,72
9120,note_on,,1,0,17,,,,,,,,,,,,,,,,13,,52,72
9120,note_on,,1,0,16,,,,,,,,,,,,,,,,12,,67,72
9179,note_on,,59,0,5,,,,,,,,,,,,,,,,1,,73,0
9179,note_on,,59,0,13,,,,,,,,,,,,,,,,14,,45,0
9179,note_on,,59,0,9,,,,,,,,,,,,,,,,5,,73,0
9179,note_on,,59,0,6,,,,,,,,,,,,,,,,2,,52,0
9179,note_on,,59,0,7,,,,,,,,,,,,,,,,3,,79,0
9179,note_on,,59,0,14,,,,,,,,,,,,,,,,10,,79,0
9179,note_on,,59,0,17,,,,,,,,,,,,,,,,13,,52,0
9179,note_on,,59,0,10,,,,,,,,,,,,,,,,6,,67,0
9179,note_on,,59,0,12,,,,,,,,,,,,,,,,8,,52,0
9179,note_on,,59,0,18,,,,,,,,,,,,,,,,15,,55,0
9179,note_on,,0,0,18,,,,,,,,,,,,,,,,15,,52,0
9179,note_on,,59,0,11,,,,,,,,,,,,,,,,7,,64,0
9179,note_on,,59,0,15,,,,,,,,,,,,,,,,11,,73,0
9179,note_on,,59,0,8,,,,,,,,,,,,,,,,4,,76,0
9179,note_on,,59,0,16,,,,,,,,,,,,,,,,12,,67,0
9180,note_on,,1,0,18,,,,,,,,,,,,,,,,15,,55,72
9180,note_on,,1,0,14,,,,,,,,,,,,,,,,10,,78,72
9180,note_on,,1,0,16,,,,,,,,,,,,,,,,12,,67,72
9180,note_on,,1,0,10,,,,,,,,,,,,,,,,6,,67,72
9180,note_on,,0,0,18,,,,,,,,,,,,,,,,15,,52,72
9180,note_on,,1,0,12,,,,,,,,,,,,,,,,8,,52,72
9180,note_on,,1,0,13,,,,,,,,,,,,,,,,14,,45,72
9180,note_on,,1,0,11,,,,,,,,,,,,,,,,7,,64,72
9180,note_on,,1,0,9,,,,,,,,,,,,,,,,5,,73,72
9180,note_on,,1,0,8,,,,,,,,,,,,,,,,4,,76,72
9180,note_on,,1,0,15,,,,,,,,,,,,,,,,11,,76,72
9180,note_on,,1,0,6,,,,,,,,,,,,,,,,2,,52,72
9180,note_on,,1,0,7,,,,,,,,,,,,,,,,3,,79,72
9180,note_on,,1,0,17,,,,,,,,,,,,,,,,13,,52,72
9180,note_on,,1,0,5,,,,,,,,,,,,,,,,1,,73,72
9209,note_on,,29,0,14,,,,,,,,,,,,,,,,10,,78,0
9209,note_on,,29,0,15,,,,,,,,,,,,,,,,11,,76,0
9210,note_on,,1,0,14,,,,,,,,,,,,,,,,10,,78,72
9210,note_on,,1,0,15,,,,,,,,,,,,,,,,11,,74,72
9239,note_on,,59,0,10,,,,,,,,,,,,,,,,6,,67,0
9239,note_on,,59,0,16,,,,,,,,,,,,,,,,12,,67,0
9239,note_on,,59,0,17,,,,,,,,,,,,,,,,13,,52,0
9239,note_on,,59,0,8,,,,,,,,,,,,,,,,4,,76,0
9239,note_on,,59,0,7,,,,,,,,,,,,,,,,3,,79,0
9239,note_on,,59,0,6,,,,,,,,,,,,,,,,2,,52,0
9239,note_on,,59,0,12,,,,,,,,,,,,,,,,8,,52,0
9239,note_on,,59,0,5,,,,,,,,,,,,,,,,1,,73,0
9239,note_on,,29,0,14,,,,,,,,,,,,,,,,10,,78,0
9239,note_on,,59,0,13,,,,,,,,,,,,,,,,14,,45,0
9239,note_on,,29,0,15,,,,,,,,,,,,,,,,11,,74,0
9239,note_on,,59,0,9,,,,,,,,,,,,,,,,5,,73,0
9239,note_on,,0,0,18,,,,,,,,,,,,,,,,15,,52,0
9239,note_on,,0,0,18,,,,,,,,,,,,,,,,15,,55,0
9239,note_on,,59,0,18,,,,,,,,,,,,,,,,15,,76,0
9239,note_on,,0,0,18,,,,,,,,,,,,,,,,15,,73,0
9239,note_on,,59,0,11,,,,,,,,,,,,,,,,7,,64,0
9239,note_on,,0,0,18,,,,,,,,,,,,,,,,15,,67,0
9240,note_on,,1,0,15,,,,,,,,,,,,,,,,11,,73,72
9240,note_on,,1,0,14,,,,,,,,,,,,,,,,10,,76,72
9269,note_on,,29,0,14,,,,,,,,,,,,,,,,10,,76,0
9269,note_on,,29,0,15,,,,,,,,,,,,,,,,11,,73,0
9270,note_on,,1,0,14,,,,,,,,,,,,,,,,10,,74,72
9270,note_on,,1,0,15,,,,,,,,,,,,,,,,11,,71,72
9299,note_on,,29,0,14,,,,,,,,,,,,,,,,10,,74,0
9299,note_on,,29,0,15,,,,,,,,,,,,,,,,11,,71,0
9300,note_on,,61,0,6,,,,,,,,,,,,,,,,2,,52,72
9300,note_on,,61,0,13,,,,,,,,,,,,,,,,14,,45,72
9300,note_on,,1,0,15,,,,,,,,,,,,,,,,11,,69,72
9300,note_on,,61,0,7,,,,,,,,,,,,,,,,3,,79,72
9300,note_on,,61,0,8,,,,,,,,,,,,,,,,4,,76,72
9300,note_on,,61,0,11,,,,,,,,,,,,,,,,7,,64,72
9300,note_on,,61,0,12,,,,,,,,,,,,,,,,8,,52,72
9300,note_on,,61,0,9,,,,,,,,,,,,,,,,5,,73,72
9300,note_on,,61,0,17,,,,,,,,,,,,,,,,13,,52,72
9300,note_on,,61,0,10,,,,,,,,,,,,,,,,6,,67,72
9300,note_on,,1,0,14,,,,,,,,,,,,,,,,10,,73,72
9300,note_on,,61,0,5,,,,,,,,,,,,,,,,1,,73,72
9300,note_on,,0,0,18,,,,,,,,,,,,,,,,15,,52,72
9300,note_on,,61,0,18,,,,,,,,,,,,,,,,15,,55,72
9300,note_on,,61,0,16,,,,,,,,,,,,,,,,12,,73,72
9329,note_on,,29,0,15,,,,,,,,,,,,,,,,11,,69,0
9329,note_on,,29,0,14,,,,,,,,,,,,,,,,10,,73,0
9330,note_on,,1,0,14,,,,,,,,,,,,,,,,10,,71,72
9330,note_on,,1,0,15,,,,,,,,,,,,,,,,11,,67,72
9359,note_on,,59,0,7,,,,,,,,,,,,,,,,3,,79,0
9359,note_on,,59,0,8,,,,,,,,,,,,,,,,4,,76,0
9359,note_on,,59,0,10,,,,,,,,,,,,,,,,6,,67,0
9359,note_on,,59,0,5,,,,,,,,,,,,,,,,1,,73,0
9359,note_on,,59,0,12,,,,,,,,,,,,,,,,8,,52,0
9359,note_on,,59,0,18,,,,,,,,,,,,,,,,15,,55,0
9359,note_on,,29,0,15,,,,,,,,,,,,,,,,11,,67,0
9359,note_on,,29,0,14,,,,,,,,,,,,,,,,10,,71,0
9359,note_on,,59,0,6,,,,,,,,,,,,,,,,2,,52,0
9359,note_on,,59,0,11,,,,,,,,,,,,,,,,7,,64,0
9359,note_on,,59,0,13,,,,,,,,,,,,,,,,14,,45,0
9359,note_on,,59,0,16,,,,,,,,,,,,,,,,12,,73,0
9359,note_on,,59,0,9,,,,,,,,,,,,,,,,5,,73,0
9359,note_on,,0,0,18,,,,,,,,,,,,,,,,15,,52,0
9359,note_on,,59,0,17,,,,,,,,,,,,,,,,13,,52,0
9360,note_on,,0,0,18,,,,,,,,,,,,,,,,15,,54,72
9360,note_on,,1,0,13,,,,,,,,,,,,,,,,14,,50,72
9360,note_on,,0,0,18,,,,,,,,,,,,,,,,15,,74,72
9360,note_on,,0,0,18,,,,,,,,,,,,,,,,15,,69,72
9360,note_on,,0,0,18,,,,,,,,,,,,,,,,15,,57,72
9360,note_on,,1,0,8,,,,,,,,,,,,,,,,4,,74,72
9360,note_on,,1,0,5,,,,,,,,,,,,,,,,1,,74,72
9360,note_on,,1,0,18,,,,,,,,,,,,,,,,15,,66,72
9360,note_on,,1,0,17,,,,,,,,,,,,,,,,13,,54,72
9360,note_on,,1,0,9,,,,,,,,,,,,,,,,5,,74,72
9360,note_on,,1,0,6,,,,,,,,,,,,,,,,2,,54,72
9360,note_on,,1,0,7,,,,,,,,,,,,,,,,3,,78,72
9360,note_on,,1,0,16,,,,,,,,,,,,,,,,12,,74,72
9360,note_on,,1,0,10,,,,,,,,,,,,,,,,6,,69,72
9360,note_on,,1,0,15,,,,,,,,,,,,,,,,11,,66,72
9360,note_on,,1,0,12,,,,,,,,,,,,,,,,8,,54,72
9360,note_on,,1,0,11,,,,,,,,,,,,,,,,7,,62,72
9360,note_on,,1,0,14,,,,,,,,,,,,,,,,10,,69,72
9419,note_on,,59,0,14,,,,,,,,,,,,,,,,10,,69,0
9419,note_on,,59,0,18,,,,,,,,,,,,,,,,15,,57,0
9419,note_on,,59,0,10,,,,,,,,,,,,,,,,6,,69,0
9419,note_on,,59,0,12,,,,,,,,,,,,,,,,8,,54,0
9419,note_on,,59,0,13,,,,,,,,,,,,,,,,14,,50,0
9419,note_on,,59,0,16,,,,,,,,,,,,,,,,12,,74,0
9419,note_on,,59,0,9,,,,,,,,,,,,,,,,5,,74,0
9419,note_on,,59,0,11,,,,,,,,,,,,,,,,7,,62,0
9419,note_on,,59,0,17,,,,,,,,,,,,,,,,13,,54,0
9419,note_on,,0,0,18,,,,,,,,,,,,,,,,15,,54,0
9419,note_on,,59,0,15,,,,,,,,,,,,,,,,11,,66,0
9419,note_on,,59,0,6,,,,,,,,,,,,,,,,2,,54,0
9419,note_on,,59,0,7,,,,,,,,,,,,,,,,3,,78,0
9419,note_on,,59,0,5,,,,,,,,,,,,,,,,1,,74,0
9419,note_on,,59,0,8,,,,,,,,,,,,,,,,4,,74,0
9420,note_on,,1,0,14,,,,,,,,,,,,,,,,10,,81,72
9420,note_on,,1,0,16,,,,,,,,,,,,,,,,12,,62,72
9420,note_on,,1,0,6,,,,,,,,,,,,,,,,2,,54,72
9420,note_on,,1,0,15,,,,,,,,,,,,,,,,11,,78,72
9420,note_on,,1,0,10,,,,,,,,,,,,,,,,6,,69,72
9420,note_on,,1,0,8,,,,,,,,,,,,,,,,4,,74,72
9420,note_on,,1,0,17,,,,,,,,,,,,,,,,13,,54,72
9420,note_on,,1,0,13,,,,,,,,,,,,,,,,14,,50,72
9420,note_on,,1,0,18,,,,,,,,,,,,,,,,15,,57,72
9420,note_on,,0,0,18,,,,,,,,,,,,,,,,15,,54,72
9420,note_on,,1,0,11,,,,,,,,,,,,,,,,7,,62,72
9420,note_on,,1,0,7,,,,,,,,,,,,,,,,3,,78,72
9420,note_on,,1,0,9,,,,,,,,,,,,,,,,5,,74,72
9420,note_on,,1,0,5,,,,,,,,,,,,,,,,1,,74,72
9420,note_on,,1,0,12,,,,,,,,,,,,,,,,8,,54,72
9449,note_on,,29,0,15,,,,,,,,,,,,,,,,11,,78,0
9449,note_on,,29,0,14,,,,,,,,,,,,,,,,10,,81,0
9450,note_on,,1,0,14,,,,,,,,,,,,,,,,10,,79,72
9450,note_on,,1,0,15,,,,,,,,,,,,,,,,11,,76,72
9479,note_on,,59,0,12,,,,,,,,,,,,,,,,8,,54,0
9479,note_on,,0,0,18,,,,,,,,,,,,,,,,15,,57,0
9479,note_on,,59,0,16,,,,,,,,,,,,,,,,12,,62,0
9479,note_on,,0,0,18,,,,,,,,,,,,,,,,15,,69,0
9479,note_on,,59,0,18,,,,,,,,,,,,,,,,15,,66,0
9479,note_on,,0,0,18,,,,,,,,,,,,,,,,15,,54,0
9479,note_on,,0,0,18,,,,,,,,,,,,,,,,15,,74,0
9479,note_on,,59,0,7,,,,,,,,,,,,,,,,3,,78,0
9479,note_on,,59,0,9,,,,,,,,,,,,,,,,5,,74,0
9479,note_on,,59,0,8,,,,,,,,,,,,,,,,4,,74,0
9479,note_on,,59,0,13,,,,,,,,,,,,,,,,14,,50,0
9479,note_on,,59,0,5,,,,,,,,,,,,,,,,1,,74,0
9479,note_on,,59,0,11,,,,,,,,,,,,,,,,7,,62,0
9479,note_on,,59,0,17,,,,,,,,,,,,,,,,13,,54,0
9479,note_on,,29,0,14,,,,,,,,,,,,,,,,10,,79,0
9479,note_on,,59,0,6,,,,,,,,,,,,,,,,2,,54,0
9479,note_on,,29,0,15,,,,,,,,,,,,,,,,11,,76,0
9479,note_on,,59,0,10,,,,,,,,,,,,,,,,6,,69,0
9480,note_on,,1,0,14,,,,,,,,,,,,,,,,10,,78,72
9480,note_on,,1,0,15,,,,,,,,,,,,,,,,11,,74,72
9509,note_on,,29,0,14,,,,,,,,,,,,,,,,10,,78,0
9509,note_on,,29,0,15,,,,,,,,,,,,,,,,11,,74,0
9510,note_on,,1,0,14,,,,,,,,,,,,,,,,10,,76,72
9510,note_on,,1,0,15,,,,,,,,,,,,,,,,11,,73,72
9539,note_on,,29,0,15,,,,,,,,,,,,,,,,11,,73,0
9539,note_on,,29,0,14,,,,,,,,,,,,,,,,10,,76,0
9540,note_on,,61,0,12,,,,,,,,,,,,,,,,8,,54,72
9540,note_on,,1,0,14,,,,,,,,,,,,,,,,10,,74,72
9540,note_on,,61,0,16,,,,,,,,,,,,,,,,12,,62,72
9540,note_on,,61,0,11,,,,,,,,,,,,,,,,7,,66,72
9540,note_on,,61,0,10,,,,,,,,,,,,,,,,6,,69,72
9540,note_on,,61,0,13,,,,,,,,,,,,,,,,14,,50,72
9540,note_on,,61,0,17,,,,,,,,,,,,,,,,13,,54,72
9540,note_on,,1,0,15,,,,,,,,,,,,,,,,11,,71,72
9540,note_on,,61,0,8,,,,,,,,,,,,,,,,4,,74,72
9540,note_on,,61,0,5,,,,,,,,,,,,,,,,1,,74,72
9540,note_on,,61,0,6,,,,,,,,,,,,,,,,2,,54,72
9540,note_on,,61,0,7,,,,,,,,,,,,,,,,3,,78,72
9540,note_on,,61,0,18,,,,,,,,,,,,,,,,15,,57,72
9540,note_on,,61,0,9,,,,,,,,,,,,,,,,5,,74,72
9540,note_on,,0,0,18,,,,,,,,,,,,,,,,15,,54,72
9569,note_on,,29,0,14,,,,,,,,,,,,,,,,10,,74,0
9569,note_on,,29,0,15,,,,,,,,,,,,,,,,11,,71,0
9570,note_on,,1,0,14,,,,,,,,,,,,,,,,10,,73,72
9570,note_on,,1,0,15,,,,,,,,,,,,,,,,11,,69,72
9599,note_on,,59,0,16,,,,,,,,,,,,,,,,12,,62,0
9599,note_on,,59,0,6,,,,,,,,,,,,,,,,2,,54,0
9599,note_on,,59,0,17,,,,,,,,,,,,,,,,13,,54,0
9599,note_on,,29,0,15,,,,,,,,,,,,,,,,11,,69,0
9599,note_on,,59,0,9,,,,,,,,,,,,,,,,5,,74,0
9599,note_on,,59,0,5,,,,,,,,,,,,,,,,1,,74,0
9599,note_on,,59,0,7,,,,,,,,,,,,,,,,3,,78,0
9599,note_on,,29,0,14,,,,,,,,,,,,,,,,10,,73,0
9599,note_on,,59,0,8,,,,,,,,,,,,,,,,4,,74,0
9599,note_on,,59,0,18,,,,,,,,,,,,,,,,15,,57,0
9599,note_on,,59,0,10,,,,,,,,,,,,,,,,6,,69,0
9599,note_on,,0,0,18,,,,,,,,,,,,,,,,15,,54,0
9599,note_on,,59,0,12,,,,,,,,,,,,,,,,8,,54,0
9599,note_on,,59,0,13,,,,,,,,,,,,,,,,14,,50,0
9599,note_on,,59,0,11,,,,,,,,,,,,,,,,7,,66,0
9600,note_on,,0,0,18,,,,,,,,,,,,,,,,15,,62,72
9600,note_on,,0,0,18,,,,,,,,,,,,,,,,15,,59,72
9600,note_on,,1,0,18,,,,,,,,,,,,,,,,15,,55,72
9600,note_on,,1,0,12,,,,,,,,,,,,,,,,8,,55,72
9600,note_on,,1,0,15,,,,,,,,,,,,,,,,11,,67,72
9600,note_on,,1,0,8,,,,,,,,,,,,,,,,4,,62,72
9600,note_on,,1,0,5,,,,,,,,,,,,,,,,1,,71,72
9600,note_on,,1,0,7,,,,,,,,,,,,,,,,3,,74,72
9600,note_on,,1,0,16,,,,,,,,,,,,,,,,12,,62,72
9600,note_on,,0,0,18,,,,,,,,,,,,,,,,15,,71,72
9600,note_on,,0,0,18,,,,,,,,,,,,,,,,15,,67,72
9600,note_on,,1,0,6,,,,,,,,,,,,,,,,2,,55,72
9600,note_on,,1,0,14,,,,,,,,,,,,,,,,10,,71,72
9600,note_on,,1,0,13,,,,,,,,,,,,,,,,14,,50,72
9600,note_on,,1,0,9,,,,,,,,,,,,,,,,5,,71,72
9600,note_on,,1,0,17,,,,,,,,,,,,,,,,13,,55,72
9600,note_on,,1,0,11,,,,,,,,,,,,,,,,7,,62,72
9600,note_on,,1,0,10,,,,,,,,,,,,,,,,6,,67,72
9659,note_on,,59,0,12,,,,,,,,,,,,,,,,8,,55,0
9659,note_on,,59,0,15,,,,,,,,,,,,,,,,11,,67,0
9659,note_on,,59,0,13,,,,,,,,,,,,,,,,14,,50,0
9659,note_on,,59,0,10,,,,,,,,,,,,,,,,6,,67,0
9659,note_on,,0,0,18,,,,,,,,,,,,,,,,15,,59,0
9659,note_on,,59,0,11,,,,,,,,,,,,,,,,7,,62,0
9659,note_on,,59,0,6,,,,,,,,,,,,,,,,2,,55,0
9659,note_on,,59,0,17,,,,,,,,,,,,,,,,13,,55,0
9659,note_on,,59,0,9,,,,,,,,,,,,,,,,5,,71,0
9659,note_on,,59,0,14,,,,,,,,,,,,,,,,10,,71,0
9659,note_on,,59,0,5,,,,,,,,,,,,,,,,1,,71,0
9659,note_on,,59,0,8,,,,,,,,,,,,,,,,4,,62,0
9659,note_on,,59,0,18,,,,,,,,,,,,,,,,15,,55,0
9659,note_on,,59,0,16,,,,,,,,,,,,,,,,12,,62,0
9659,note_on,,59,0,7,,,,,,,,,,,,,,,,3,,74,0
9660,note_on,,1,0,12,,,,,,,,,,,,,,,,8,,55,72
9660,note_on,,1,0,5,,,,,,,,,,,,,,,,1,,71,72
9660,note_on,,1,0,9,,,,,,,,,,,,,,,,5,,71,72
9660,note_on,,1,0,8,,,,,,,,,,,,,,,,4,,62,72
9660,note_on,,1,0,14,,,,,,,,,,,,,,,,10,,83,72
9660,note_on,,1,0,6,,,,,,,,,,,,,,,,2,,55,72
9660,note_on,,1,0,10,,,,,,,,,,,,,,,,6,,67,72
9660,note_on,,1,0,7,,,,,,,,,,,,,,,,3,,74,72
9660,note_on,,1,0,17,,,,,,,,,,,,,,,,13,,55,72
9660,note_on,,1,0,18,,,,,,,,,,,,,,,,15,,59,72
9660,note_on,,0,0,18,,,,,,,,,,,,,,,,15,,55,72
9660,note_on,,1,0,15,,,,,,,,,,,,,,,,11,,79,72
9660,note_on,,1,0,11,,,,,,,,,,,,,,,,7,,62,72
9660,note_on,,1,0,16,,,,,,,,,,,,,,,,12,,62,72
9660,note_on,,1,0,13,,,,,,,,,,,,,,,,14,,50,72
9689,note_on,,29,0,15,,,,,,,,,,,,,,,,11,,79,0
9689,note_on,,29,0,14,,,,,,,,,,,,,,,,10,,83,0
9690,note_on,,1,0,14,,,,,,,,,,,,,,,,10,,81,72
9690,note_on,,1,0,15,,,,,,,,,,,,,,,,11,,78,72
9719,note_on,,59,0,18,,,,,,,,,,,,,,,,15,,62,0
9719,note_on,,59,0,7,,,,,,,,,,,,,,,,3,,74,0
9719,note_on,,59,0,6,,,,,,,,,,,,,,,,2,,55,0
9719,note_on,,59,0,17,,,,,,,,,,,,,,,,13,,55,0
9719,note_on,,59,0,10,,,,,,,,,,,,,,,,6,,67,0
9719,note_on,,0,0,18,,,,,,,,,,,,,,,,15,,67,0
9719,note_on,,29,0,14,,,,,,,,,,,,,,,,10,,81,0
9719,note_on,,0,0,18,,,,,,,,,,,,,,,,15,,59,0
9719,note_on,,59,0,8,,,,,,,,,,,,,,,,4,,62,0
9719,note_on,,29,0,15,,,,,,,,,,,,,,,,11,,78,0
9719,note_on,,59,0,9,,,,,,,,,,,,,,,,5,,71,0
9719,note_on,,59,0,5,,,,,,,,,,,,,,,,1,,71,0
9719,note_on,,59,0,12,,,,,,,,,,,,,,,,8,,55,0
9719,note_on,,0,0,18,,,,,,,,,,,,,,,,15,,55,0
9719,note_on,,59,0,13,,,,,,,,,,,,,,,,14,,50,0
9719,note_on,,59,0,16,,,,,,,,,,,,,,,,12,,62,0
9719,note_on,,59,0,11,,,,,,,,,,,,,,,,7,,62,0
9719,note_on,,0,0,18,,,,,,,,,,,,,,,,15,,71,0
9720,note_on,,1,0,15,,,,,,,,,,,,,,,,11,,76,72
9720,note_on,,1,0,14,,,,,,,,,,,,,,,,10,,79,72
9749,note_on,,29,0,15,,,,,,,,,,,,,,,,11,,76,0
9749,note_on,,29,0,14,,,,,,,,,,,,,,,,10,,79,0
9750,note_on,,1,0,14,,,,,,,,,,,,,,,,10,,78,72
9750,note_on,,1,0,15,,,,,,,,,,,,,,,,11,,74,72
9779,note_on,,29,0,15,,,,,,,,,,,,,,,,11,,74,0
9779,note_on,,29,0,14,,,,,,,,,,,,,,,,10,,78,0
9780,note_on,,61,0,8,,,,,,,,,,,,,,,,4,,62,72
9780,note_on,,61,0,11,,,,,,,,,,,,,,,,7,,67,72
9780,note_on,,0,0,18,,,,,,,,,,,,,,,,15,,79,72
9780,note_on,,61,0,17,,,,,,,,,,,,,,,,13,,55,72
9780,note_on,,0,0,18,,,,,,,,,,,,,,,,15,,74,72
9780,note_on,,0,0,18,,,,,,,,,,,,,,,,15,,71,72
9780,note_on,,0,0,18,,,,,,,,,,,,,,,,15,,59,72
9780,note_on,,61,0,7,,,,,,,,,,,,,,,,3,,79,72
9780,note_on,,61,0,6,,,,,,,,,,,,,,,,2,,55,72
9780,note_on,,61,0,18,,,,,,,,,,,,,,,,15,,55,72
9780,note_on,,61,0,9,,,,,,,,,,,,,,,,5,,76,72
9780,note_on,,61,0,16,,,,,,,,,,,,,,,,12,,67,72
9780,note_on,,1,0,14,,,,,,,,,,,,,,,,10,,76,72
9780,note_on,,61,0,10,,,,,,,,,,,,,,,,6,,71,72
9780,note_on,,1,0,15,,,,,,,,,,,,,,,,11,,73,72
9780,note_on,,61,0,13,,,,,,,,,,,,,,,,14,,50,72
9780,note_on,,61,0,12,,,,,,,,,,,,,,,,8,,55,72
9780,note_on,,61,0,5,,,,,,,,,,,,,,,,1,,76,72
9809,note_on,,29,0,15,,,,,,,,,,,,,,,,11,,73,0
9809,note_on,,29,0,14,,,,,,,,,,,,,,,,10,,76,0
9810,note_on,,1,0,15,,,,,,,,,,,,,,,,11,,71,72
9810,note_on,,1,0,14,,,,,,,,,,,,,,,,10,,74,72
9839,note_on,,29,0,15,,,,,,,,,,,,,,,,11,,71,0
9839,note_on,,59,0,11,,,,,,,,,,,,,,,,7,,67,0
9839,note_on,,59,0,16,,,,,,,,,,,,,,,,12,,67,0
9839,note_on,,59,0,12,,,,,,,,,,,,,,,,8,,55,0
9839,note_on,,59,0,17,,,,,,,,,,,,,,,,13,,55,0
9839,note_on,,59,0,13,,,,,,,,,,,,,,,,14,,50,0
9839,note_on,,59,0,6,,,,,,,,,,,,,,,,2,,55,0
9839,note_on,,59,0,18,,,,,,,,,,,,,,,,15,,55,0
9839,note_on,,0,0,18,,,,,,,,,,,,,,,,15,,79,0
9839,note_on,,0,0,18,,,,,,,,,,,,,,,,15,,59,0
9839,note_on,,59,0,10,,,,,,,,,,,,,,,,6,,71,0
9839,note_on,,59,0,8,,,,,,,,,,,,,,,,4,,62,0
9839,note_on,,59,0,7,,,,,,,,,,,,,,,,3,,79,0
9839,note_on,,59,0,9,,,,,,,,,,,,,,,,5,,76,0
9839,note_on,,0,0,18,,,,,,,,,,,,,,,,15,,74,0
9839,note_on,,0,0,18,,,,,,,,,,,,,,,,15,,71,0
9839,note_on,,29,0,14,,,,,,,,,,,,,,,,10,,74,0
9839,note_on,,59,0,5,,,,,,,,,,,,,,,,1,,76,0
9840,note_on,,1,0,17,,,,,,,,,,,,,,,,13,,57,72
9840,note_on,,1,0,9,,,,,,,,,,,,,,,,5,,73,72
9840,note_on,,1,0,14,,,,,,,,,,,,,,,,10,,73,72
9840,note_on,,1,0,8,,,,,,,,,,,,,,,,4,,69,72
9840,note_on,,1,0,13,,,,,,,,,,,,,,,,14,,45,72
9840,note_on,,1,0,16,,,,,,,,,,,,,,,,12,,64,72
9840,note_on,,0,0,18,,,,,,,,,,,,,,,,15,,61,72
9840,note_on,,0,0,18,,,,,,,,,,,,,,,,15,,69,72
9840,note_on,,0,0,18,,,,,,,,,,,,,,,,15,,76,72
9840,note_on,,0,0,18,,,,,,,,,,,,,,,,15,,64,72
9840,note_on,,1,0,10,,,,,,,,,,,,,,,,6,,69,72
9840,note_on,,1,0,18,,,,,,,,,,,,,,,,15,,57,72
9840,note_on,,1,0,12,,,,,,,,,,,,,,,,8,,57,72
9840,note_on,,1,0,6,,,,,,,,,,,,,,,,2,,57,72
9840,note_on,,1,0,15,,,,,,,,,,,,,,,,11,,69,72
9840,note_on,,1,0,7,,,,,,,,,,,,,,,,3,,76,72
9840,note_on,,1,0,11,,,,,,,,,,,,,,,,7,,64,72
9840,note_on,,1,0,5,,,,,,,,,,,,,,,,1,,73,72
9899,note_on,,59,0,15,,,,,,,,,,,,,,,,11,,69,0
9899,note_on,,59,0,14,,,,,,,,,,,,,,,,10,,73,0
9900,note_on,,1,0,15,,,,,,,,,,,,,,,,11,,81,72
9900,note_on,,1,0,14,,,,,,,,,,,,,,,,10,,85,72
9929,note_on,,29,0,14,,,,,,,,,,,,,,,,10,,85,0
9929,note_on,,29,0,15,,,,,,,,,,,,,,,,11,,81,0
9930,note_on,,1,0,15,,,,,,,,,,,,,,,,11,,79,72
9930,note_on,,1,0,14,,,,,,,,,,,,,,,,10,,83,72
9959,note_on,,119,0,10,,,,,,,,,,,,,,,,6,,69,0
9959,note_on,,29,0,14,,,,,,,,,,,,,,,,10,,83,0
9959,note_on,,119,0,12,,,,,,,,,,,,,,,,8,,57,0
9959,note_on,,119,0,6,,,,,,,,,,,,,,,,2,,57,0
9959,note_on,,119,0,13,,,,,,,,,,,,,,,,14,,45,0
9959,note_on,,119,0,8,,,,,,,,,,,,,,,,4,,69,0
9959,note_on,,0,0,18,,,,,,,,,,,,,,,,15,,69,0
9959,note_on,,119,0,5,,,,,,,,,,,,,,,,1,,73,0
9959,note_on,,119,0,11,,,,,,,,,,,,,,,,7,,64,0
9959,note_on,,119,0,18,,,,,,,,,,,,,,,,15,,57,0
9959,note_on,,0,0,18,,,,,,,,,,,,,,,,15,,64,0
9959,note_on,,0,0,18,,,,,,,,,,,,,,,,15,,76,0
9959,note_on,,119,0,17,,,,,,,,,,,,,,,,13,,57,0
9959,note_on,,0,0,18,,,,,,,,,,,,,,,,15,,61,0
9959,note_on,,119,0,7,,,,,,,,,,,,,,,,3,,76,0
9959,note_on,,29,0,15,,,,,,,,,,,,,,,,11,,79,0
9959,note_on,,119,0,9,,,,,,,,,,,,,,,,5,,73,0
9959,note_on,,119,0,16,,,,,,,,,,,,,,,,12,,64,0
9960,note_on,,1,0,15,,,,,,,,,,,,,,,,11,,78,72
9960,note_on,,1,0,14,,,,,,,,,,,,,,,,10,,81,72
9989,note_on,,29,0,15,,,,,,,,,,,,,,,,11,,78,0
9989,note_on,,29,0,14,,,,,,,,,,,,,,,,10,,81,0
9990,note_on,,1,0,14,,,,,,,,,,,,,,,,10,,79,72
9990,note_on,,1,0,15,,,,,,,,,,,,,,,,11,,76,72
10019,note_on,,29,0,14,,,,,,,,,,,,,,,,10,,79,0
10019,note_on,,29,0,15,,,,,,,,,,,,,,,,11,,76,0
10020,note_on,,61,0,6,,,,,,,,,,,,,,,,2,,57,72
10020,note_on,,61,0,7,,,,,,,,,,,,,,,,3,,81,72
10020,note_on,,61,0,5,,,,,,,,,,,,,,,,1,,73,72
10020,note_on,,1,0,15,,,,,,,,,,,,,,,,11,,74,72
10020,note_on,,61,0,18,,,,,,,,,,,,,,,,15,,61,72
10020,note_on,,0,0,18,,,,,,,,,,,,,,,,15,,57,72
10020,note_on,,61,0,10,,,,,,,,,,,,,,,,6,,69,72
10020,note_on,,61,0,16,,,,,,,,,,,,,,,,12,,69,72
10020,note_on,,61,0,17,,,,,,,,,,,,,,,,13,,57,72
10020,note_on,,61,0,12,,,,,,,,,,,,,,,,8,,57,72
10020,note_on,,1,0,14,,,,,,,,,,,,,,,,10,,78,72
10020,note_on,,61,0,11,,,,,,,,,,,,,,,,7,,66,72
10020,note_on,,61,0,9,,,,,,,,,,,,,,,,5,,73,72
10020,note_on,,61,0,13,,,,,,,,,,,,,,,,14,,45,72
10020,note_on,,61,0,8,,,,,,,,,,,,,,,,4,,76,72
10049,note_on,,29,0,14,,,,,,,,,,,,,,,,10,,78,0
10049,note_on,,29,0,15,,,,,,,,,,,,,,,,11,,74,0
10050,note_on,,1,0,15,,,,,,,,,,,,,,,,11,,73,72
10050,note_on,,1,0,14,,,,,,,,,,,,,,,,10,,76,72
10079,note_on,,59,0,13,,,,,,,,,,,,,,,,14,,45,0
10079,note_on,,59,0,16,,,,,,,,,,,,,,,,12,,69,0
10079,note_on,,59,0,17,,,,,,,,,,,,,,,,13,,57,0
10079,note_on,,0,0,18,,,,,,,,,,,,,,,,15,,57,0
10079,note_on,,59,0,18,,,,,,,,,,,,,,,,15,,61,0
10079,note_on,,59,0,10,,,,,,,,,,,,,,,,6,,69,0
10079,note_on,,29,0,14,,,,,,,,,,,,,,,,10,,76,0
10079,note_on,,59,0,8,,,,,,,,,,,,,,,,4,,76,0
10079,note_on,,29,0,15,,,,,,,,,,,,,,,,11,,73,0
10079,note_on,,59,0,11,,,,,,,,,,,,,,,,7,,66,0
10079,note_on,,59,0,7,,,,,,,,,,,,,,,,3,,81,0
10079,note_on,,59,0,12,,,,,,,,,,,,,,,,8,,57,0
10079,note_on,,59,0,5,,,,,,,,,,,,,,,,1,,73,0
10079,note_on,,59,0,9,,,,,,,,,,,,,,,,5,,73,0
10079,note_on,,59,0,6,,,,,,,,,,,,,,,,2,,57,0
10080,note_on,,1,0,9,,,,,,,,,,,,,,,,5,,74,72
10080,note_on,,1,0,8,,,,,,,,,,,,,,,,4,,74,72
10080,note_on,,1,0,17,,,,,,,,,,,,,,,,13,,59,72
10080,note_on,,1,0,15,,,,,,,,,,,,,,,,11,,71,72
10080,note_on,,1,0,13,,,,,,,,,,,,,,,,14,,50,72
10080,note_on,,1,0,10,,,,,,,,,,,,,,,,6,,69,72
10080,note_on,,1,0,11,,,,,,,,,,,,,,,,7,,66,72
10080,note_on,,1,0,5,,,,,,,,,,,,,,,,1,,74,72
10080,note_on,,0,0,18,,,,,,,,,,,,,,,,15,,66,72
10080,note_on,,1,0,18,,,,,,,,,,,,,,,,15,,71,72
10080,note_on,,0,0,18,,,,,,,,,,,,,,,,15,,74,72
10080,note_on,,0,0,18,,,,,,,,,,,,,,,,15,,59,72
10080,note_on,,1,0,6,,,,,,,,,,,,,,,,2,,59,72
10080,note_on,,1,0,14,,,,,,,,,,,,,,,,10,,74,72
10080,note_on,,1,0,16,,,,,,,,,,,,,,,,12,,69,72
10080,note_on,,0,0,18,,,,,,,,,,,,,,,,15,,69,72
10080,note_on,,1,0,12,,,,,,,,,,,,,,,,8,,59,72
10080,note_on,,1,0,7,,,,,,,,,,,,,,,,3,,81,72
10139,note_on,,59,0,9,,,,,,,,,,,,,,,,5,,74,0
10139,note_on,,59,0,11,,,,,,,,,,,,,,,,7,,66,0
10139,note_on,,59,0,7,,,,,,,,,,,,,,,,3,,81,0
10139,note_on,,59,0,15,,,,,,,,,,,,,,,,11,,71,0
10139,note_on,,59,0,12,,,,,,,,,,,,,,,,8,,59,0
10139,note_on,,59,0,6,,,,,,,,,,,,,,,,2,,59,0
10139,note_on,,59,0,17,,,,,,,,,,,,,,,,13,,59,0
10139,note_on,,59,0,8,,,,,,,,,,,,,,,,4,,74,0
10139,note_on,,59,0,13,,,,,,,,,,,,,,,,14,,50,0
10139,note_on,,59,0,16,,,,,,,,,,,,,,,,12,,69,0
10139,note_on,,59,0,10,,,,,,,,,,,,,,,,6,,69,0
10139,note_on,,59,0,18,,,,,,,,,,,,,,,,15,,66,0
10139,note_on,,0,0,18,,,,,,,,,,,,,,,,15,,59,0
10139,note_on,,0,0,18,,,,,,,,,,,,,,,,15,,69,0
10139,note_on,,59,0,14,,,,,,,,,,,,,,,,10,,74,0
10139,note_on,,59,0,5,,,,,,,,,,,,,,,,1,,74,0
10140,note_on,,1,0,9,,,,,,,,,,,,,,,,5,,74,72
10140,note_on,,1,0,16,,,,,,,,,,,,,,,,12,,67,72
10140,note_on,,1,0,15,,,,,,,,,,,,,,,,11,,83,72
10140,note_on,,1,0,7,,,,,,,,,,,,,,,,3,,79,72
10140,note_on,,0,0,18,,,,,,,,,,,,,,,,15,,62,72
10140,note_on,,1,0,6,,,,,,,,,,,,,,,,2,,59,72
10140,note_on,,1,0,10,,,,,,,,,,,,,,,,6,,67,72
10140,note_on,,1,0,13,,,,,,,,,,,,,,,,14,,50,72
10140,note_on,,1,0,12,,,,,,,,,,,,,,,,8,,59,72
10140,note_on,,1,0,8,,,,,,,,,,,,,,,,4,,74,72
10140,note_on,,1,0,14,,,,,,,,,,,,,,,,10,,86,72
10140,note_on,,0,0,18,,,,,,,,,,,,,,,,15,,67,72
10140,note_on,,1,0,11,,,,,,,,,,,,,,,,7,,62,72
10140,note_on,,1,0,18,,,,,,,,,,,,,,,,15,,59,72
10140,note_on,,1,0,5,,,,,,,,,,,,,,,,1,,74,72
10140,note_on,,1,0,17,,,,,,,,,,,,,,,,13,,59,72
10169,note_on,,29,0,14,,,,,,,,,,,,,,,,10,,86,0
10169,note_on,,29,0,15,,,,,,,,,,,,,,,,11,,83,0
10170,note_on,,1,0,14,,,,,,,,,,,,,,,,10,,85,72
10170,note_on,,1,0,15,,,,,,,,,,,,,,,,11,,81,72
10199,note_on,,59,0,5,,,,,,,,,,,,,,,,1,,74,0
10199,note_on,,59,0,18,,,,,,,,,,,,,,,,15,,71,0
10199,note_on,,0,0,18,,,,,,,,,,,,,,,,15,,74,0
10199,note_on,,0,0,18,,,,,,,,,,,,,,,,15,,59,0
10199,note_on,,59,0,12,,,,,,,,,,,,,,,,8,,59,0
10199,note_on,,0,0,18,,,,,,,,,,,,,,,,15,,67,0
10199,note_on,,59,0,7,,,,,,,,,,,,,,,,3,,79,0
10199,note_on,,59,0,11,,,,,,,,,,,,,,,,7,,62,0
10199,note_on,,59,0,8,,,,,,,,,,,,,,,,4,,74,0
10199,note_on,,59,0,13,,,,,,,,,,,,,,,,14,,50,0
10199,note_on,,29,0,14,,,,,,,,,,,,,,,,10,,85,0
10199,note_on,,59,0,10,,,,,,,,,,,,,,,,6,,67,0
10199,note_on,,29,0,15,,,,,,,,,,,,,,,,11,,81,0
10199,note_on,,0,0,18,,,,,,,,,,,,,,,,15,,62,0
10199,note_on,,59,0,16,,,,,,,,,,,,,,,,12,,67,0
10199,note_on,,59,0,17,,,,,,,,,,,,,,,,13,,59,0
10199,note_on,,59,0,9,,,,,,,,,,,,,,,,5,,74,0
10199,note_on,,59,0,6,,,,,,,,,,,,,,,,2,,59,0
10200,note_on,,1,0,15,,,,,,,,,,,,,,,,11,,79,72
10200,note_on,,1,0,14,,,,,,,,,,,,,,,,10,,83,72
10229,note_on,,29,0,15,,,,,,,,,,,,,,,,11,,79,0
10229,note_on,,29,0,14,,,,,,,,,,,,,,,,10,,83,0
10230,note_on,,1,0,15,,,,,,,,,,,,,,,,11,,78,72
10230,note_on,,1,0,14,,,,,,,,,,,,,,,,10,,81,72
10259,note_on,,29,0,14,,,,,,,,,,,,,,,,10,,81,0
10259,note_on,,29,0,15,,,,,,,,,,,,,,,,11,,78,0
10260,note_on,,61,0,11,,,,,,,,,,,,,,,,7,,62,72
10260,note_on,,1,0,15,,,,,,,,,,,,,,,,11,,76,72
10260,note_on,,61,0,5,,,,,,,,,,,,,,,,1,,74,72
10260,note_on,,61,0,17,,,,,,,,,,,,,,,,13,,59,72
10260,note_on,,61,0,12,,,,,,,,,,,,,,,,8,,59,72
10260,note_on,,61,0,9,,,,,,,,,,,,,,,,5,,74,72
10260,note_on,,61,0,7,,,,,,,,,,,,,,,,3,,79,72
10260,note_on,,61,0,8,,,,,,,,,,,,,,,,4,,74,72
10260,note_on,,61,0,16,,,,,,,,,,,,,,,,12,,67,72
10260,note_on,,1,0,14,,,,,,,,,,,,,,,,10,,79,72
10260,note_on,,0,0,18,,,,,,,,,,,,,,,,15,,74,72
10260,note_on,,61,0,13,,,,,,,,,,,,,,,,14,,50,72
10260,note_on,,0,0,18,,,,,,,,,,,,,,,,15,,59,72
10260,note_on,,0,0,18,,,,,,,,,,,,,,,,15,,62,72
10260,note_on,,0,0,18,,,,,,,,,,,,,,,,15,,79,72
10260,note_on,,61,0,6,,,,,,,,,,,,,,,,2,,59,72
10260,note_on,,61,0,10,,,,,,,,,,,,,,,,6,,67,72
10260,note_on,,61,0,18,,,,,,,,,,,,,,,,15,,71,72
10289,note_on,,29,0,15,,,,,,,,,,,,,,,,11,,76,0
10289,note_on,,29,0,14,,,,,,,,,,,,,,,,10,,79,0
10290,note_on,,1,0,14,,,,,,,,,,,,,,,,10,,78,72
10290,note_on,,1,0,15,,,,,,,,,,,,,,,,11,,74,72
10319,note_on,,59,0,9,,,,,,,,,,,,,,,,5,,74,0
10319,note_on,,59,0,10,,,,,,,,,,,,,,,,6,,67,0
10319,note_on,,59,0,12,,,,,,,,,,,,,,,,8,,59,0
10319,note_on,,59,0,8,,,,,,,,,,,,,,,,4,,74,0
10319,note_on,,59,0,6,,,,,,,,,,,,,,,,2,,59,0
10319,note_on,,29,0,15,,,,,,,,,,,,,,,,11,,74,0
10319,note_on,,59,0,7,,,,,,,,,,,,,,,,3,,79,0
10319,note_on,,59,0,17,,,,,,,,,,,,,,,,13,,59,0
10319,note_on,,59,0,11,,,,,,,,,,,,,,,,7,,62,0
10319,note_on,,59,0,16,,,,,,,,,,,,,,,,12,,67,0
10319,note_on,,59,0,13,,,,,,,,,,,,,,,,14,,50,0
10319,note_on,,0,0,18,,,,,,,,,,,,,,,,15,,62,0
10319,note_on,,0,0,18,,,,,,,,,,,,,,,,15,,79,0
10319,note_on,,29,0,14,,,,,,,,,,,,,,,,10,,78,0
10319,note_on,,59,0,5,,,,,,,,,,,,,,,,1,,74,0
10319,note_on,,59,0,18,,,,,,,,,,,,,,,,15,,71,0
10319,note_on,,0,0,18,,,,,,,,,,,,,,,,15,,59,0
10319,note_on,,0,0,18,,,,,,,,,,,,,,,,15,,74,0
10320,note_on,,1,0,6,,,,,,,,,,,,,,,,2,,61,72
10320,note_on,,0,0,18,,,,,,,,,,,,,,,,15,,67,72
10320,note_on,,1,0,12,,,,,,,,,,,,,,,,8,,61,72
10320,note_on,,1,0,8,,,,,,,,,,,,,,,,4,,76,72
10320,note_on,,1,0,14,,,,,,,,,,,,,,,,10,,76,72
10320,note_on,,0,0,18,,,,,,,,,,,,,,,,15,,61,72
10320,note_on,,0,0,18,,,,,,,,,,,,,,,,15,,64,72
10320,note_on,,1,0,18,,,,,,,,,,,,,,,,15,,69,72
10320,note_on,,1,0,16,,,,,,,,,,,,,,,,12,,69,72
10320,note_on,,1,0,11,,,,,,,,,,,,,,,,7,,64,72
10320,note_on,,1,0,9,,,,,,,,,,,,,,,,5,,69,72
10320,note_on,,1,0,13,,,,,,,,,,,,,,,,14,,45,72
10320,note_on,,1,0,10,,,,,,,,,,,,,,,,6,,69,72
10320,note_on,,1,0,17,,,,,,,,,,,,,,,,13,,61,72
10320,note_on,,0,0,18,,,,,,,,,,,,,,,,15,,76,72
10320,note_on,,1,0,15,,,,,,,,,,,,,,,,11,,73,72
10320,note_on,,1,0,5,,,,,,,,,,,,,,,,1,,69,72
10320,note_on,,1,0,7,,,,,,,,,,,,,,,,3,,79,72
10379,note_on,,59,0,8,,,,,,,,,,,,,,,,4,,76,0
10379,note_on,,59,0,14,,,,,,,,,,,,,,,,10,,76,0
10379,note_on,,59,0,12,,,,,,,,,,,,,,,,8,,61,0
10379,note_on,,59,0,13,,,,,,,,,,,,,,,,14,,45,0
10379,note_on,,59,0,7,,,,,,,,,,,,,,,,3,,79,0
10379,note_on,,59,0,18,,,,,,,,,,,,,,,,15,,64,0
10379,note_on,,59,0,6,,,,,,,,,,,,,,,,2,,61,0
10379,note_on,,59,0,17,,,,,,,,,,,,,,,,13,,61,0
10379,note_on,,59,0,11,,,,,,,,,,,,,,,,7,,64,0
10379,note_on,,59,0,16,,,,,,,,,,,,,,,,12,,69,0
10379,note_on,,0,0,18,,,,,,,,,,,,,,,,15,,61,0
10379,note_on,,59,0,9,,,,,,,,,,,,,,,,5,,69,0
10379,note_on,,59,0,10,,,,,,,,,,,,,,,,6,,69,0
10379,note_on,,59,0,15,,,,,,,,,,,,,,,,11,,73,0
10379,note_on,,59,0,5,,,,,,,,,,,,,,,,1,,69,0
10380,note_on,,1,0,15,,,,,,,,,,,,,,,,11,,85,72
10380,note_on,,1,0,14,,,,,,,,,,,,,,,,10,,88,72
10380,note_on,,1,0,8,,,,,,,,,,,,,,,,4,,76,72
10380,note_on,,1,0,6,,,,,,,,,,,,,,,,2,,61,72
10380,note_on,,1,0,10,,,,,,,,,,,,,,,,6,,69,72
10380,note_on,,1,0,11,,,,,,,,,,,,,,,,7,,64,72
10380,note_on,,1,0,13,,,,,,,,,,,,,,,,14,,45,72
10380,note_on,,1,0,17,,,,,,,,,,,,,,,,13,,61,72
10380,note_on,,1,0,7,,,,,,,,,,,,,,,,3,,79,72
10380,note_on,,1,0,18,,,,,,,,,,,,,,,,15,,61,72
10380,note_on,,1,0,5,,,,,,,,,,,,,,,,1,,69,72
10380,note_on,,1,0,9,,,,,,,,,,,,,,,,5,,69,72
10380,note_on,,1,0,16,,,,,,,,,,,,,,,,12,,69,72
10380,note_on,,1,0,12,,,,,,,,,,,,,,,,8,,61,72
10380,note_on,,0,0,18,,,,,,,,,,,,,,,,15,,64,72
10409,note_on,,29,0,14,,,,,,,,,,,,,,,,10,,88,0
10409,note_on,,29,0,15,,,,,,,,,,,,,,,,11,,85,0
10410,note_on,,1,0,14,,,,,,,,,,,,,,,,10,,86,72
10410,note_on,,1,0,15,,,,,,,,,,,,,,,,11,,83,72
10439,note_on,,0,0,18,,,,,,,,,,,,,,,,15,,76,0
10439,note_on,,59,0,8,,,,,,,,,,,,,,,,4,,76,0
10439,note_on,,29,0,15,,,,,,,,,,,,,,,,11,,83,0
10439,note_on,,0,0,18,,,,,,,,,,,,,,,,15,,61,0
10439,note_on,,0,0,18,,,,,,,,,,,,,,,,15,,64,0
10439,note_on,,0,0,18,,,,,,,,,,,,,,,,15,,67,0
10439,note_on,,59,0,5,,,,,,,,,,,,,,,,1,,69,0
10439,note_on,,59,0,7,,,,,,,,,,,,,,,,3,,79,0
10439,note_on,,59,0,13,,,,,,,,,,,,,,,,14,,45,0
10439,note_on,,59,0,12,,,,,,,,,,,,,,,,8,,61,0
10439,note_on,,59,0,17,,,,,,,,,,,,,,,,13,,61,0
10439,note_on,,59,0,9,,,,,,,,,,,,,,,,5,,69,0
10439,note_on,,59,0,10,,,,,,,,,,,,,,,,6,,69,0
10439,note_on,,29,0,14,,,,,,,,,,,,,,,,10,,86,0
10439,note_on,,59,0,18,,,,,,,,,,,,,,,,15,,69,0
10439,note_on,,59,0,11,,,,,,,,,,,,,,,,7,,64,0
10439,note_on,,59,0,6,,,,,,,,,,,,,,,,2,,61,0
10439,note_on,,59,0,16,,,,,,,,,,,,,,,,12,,69,0
10440,note_on,,1,0,14,,,,,,,,,,,,,,,,10,,85,72
10440,note_on,,1,0,15,,,,,,,,,,,,,,,,11,,81,72
10469,note_on,,29,0,15,,,,,,,,,,,,,,,,11,,81,0
10469,note_on,,29,0,14,,,,,,,,,,,,,,,,10,,85,0
10470,note_on,,1,0,14,,,,,,,,,,,,,,,,10,,83,72
10470,note_on,,1,0,15,,,,,,,,,,,,,,,,11,,79,72
10499,note_on,,29,0,14,,,,,,,,,,,,,,,,10,,83,0
10499,note_on,,29,0,15,,,,,,,,,,,,,,,,11,,79,0
10500,note_on,,0,0,18,,,,,,,,,,,,,,,,15,,76,72
10500,note_on,,61,0,9,,,,,,,,,,,,,,,,5,,69,72
10500,note_on,,61,0,17,,,,,,,,,,,,,,,,13,,61,72
10500,note_on,,0,0,18,,,,,,,,,,,,,,,,15,,61,72
10500,note_on,,61,0,16,,,,,,,,,,,,,,,,12,,69,72
10500,note_on,,61,0,11,,,,,,,,,,,,,,,,7,,64,72
10500,note_on,,0,0,18,,,,,,,,,,,,,,,,15,,81,72
10500,note_on,,61,0,6,,,,,,,,,,,,,,,,2,,61,72
10500,note_on,,61,0,18,,,,,,,,,,,,,,,,15,,64,72
10500,note_on,,1,0,14,,,,,,,,,,,,,,,,10,,81,72
10500,note_on,,61,0,8,,,,,,,,,,,,,,,,4,,76,72
10500,note_on,,61,0,12,,,,,,,,,,,,,,,,8,,61,72
10500,note_on,,1,0,15,,,,,,,,,,,,,,,,11,,78,72
10500,note_on,,61,0,7,,,,,,,,,,,,,,,,3,,79,72
10500,note_on,,61,0,13,,,,,,,,,,,,,,,,14,,45,72
10500,note_on,,61,0,10,,,,,,,,,,,,,,,,6,,69,72
10500,note_on,,61,0,5,,,,,,,,,,,,,,,,1,,69,72
10500,note_on,,0,0,18,,,,,,,,,,,,,,,,15,,73,72
10529,note_on,,29,0,15,,,,,,,,,,,,,,,,11,,78,0
10529,note_on,,29,0,14,,,,,,,,,,,,,,,,10,,81,0
10530,note_on,,1,0,14,,,,,,,,,,,,,,,,10,,79,72
10530,note_on,,1,0,15,,,,,,,,,,,,,,,,11,,76,72
10559,note_on,,59,0,11,,,,,,,,,,,,,,,,7,,64,0
10559,note_on,,59,0,13,,,,,,,,,,,,,,,,14,,45,0
10559,note_on,,29,0,15,,,,,,,,,,,,,,,,11,,76,0
10559,note_on,,59,0,7,,,,,,,,,,,,,,,,3,,79,0
10559,note_on,,59,0,17,,,,,,,,,,,,,,,,13,,61,0
10559,note_on,,59,0,5,,,,,,,,,,,,,,,,1,,69,0
10559,note_on,,0,0,18,,,,,,,,,,,,,,,,15,,73,0
10559,note_on,,59,0,8,,,,,,,,,,,,,,,,4,,76,0
10559,note_on,,59,0,12,,,,,,,,,,,,,,,,8,,61,0
10559,note_on,,0,0,18,,,,,,,,,,,,,,,,15,,76,0
10559,note_on,,0,0,18,,,,,,,,,,,,,,,,15,,81,0
10559,note_on,,0,0,18,,,,,,,,,,,,,,,,15,,61,0
10559,note_on,,59,0,10,,,,,,,,,,,,,,,,6,,69,0
10559,note_on,,59,0,18,,,,,,,,,,,,,,,,15,,64,0
10559,note_on,,59,0,16,,,,,,,,,,,,,,,,12,,69,0
10559,note_on,,29,0,14,,,,,,,,,,,,,,,,10,,79,0
10559,note_on,,59,0,9,,,,,,,,,,,,,,,,5,,69,0
10559,note_on,,59,0,6,,,,,,,,,,,,,,,,2,,61,0
10560,note_on,,1,0,13,,,,,,,,,,,,,,,,14,,50,72
10560,note_on,,1,0,16,,,,,,,,,,,,,,,,12,,69,72
10560,note_on,,1,0,9,,,,,,,,,,,,,,,,5,,78,72
10560,note_on,,1,0,17,,,,,,,,,,,,,,,,13,,62,72
10560,note_on,,1,0,15,,,,,,,,,,,,,,,,11,,74,72
10560,note_on,,1,0,10,,,,,,,,,,,,,,,,6,,69,72
10560,note_on,,1,0,14,,,,,,,,,,,,,,,,10,,78,72
10560,note_on,,1,0,7,,,,,,,,,,,,,,,,3,,78,72
10560,note_on,,0,0,18,,,,,,,,,,,,,,,,15,,66,72
10560,note_on,,0,0,18,,,,,,,,,,,,,,,,15,,69,72
10560,note_on,,1,0,6,,,,,,,,,,,,,,,,2,,62,72
10560,note_on,,1,0,18,,,,,,,,,,,,,,,,15,,74,72
10560,note_on,,0,0,18,,,,,,,,,,,,,,,,15,,62,72
10560,note_on,,1,0,11,,,,,,,,,,,,,,,,7,,66,72
10560,note_on,,0,0,18,,,,,,,,,,,,,,,,15,,78,72
10560,note_on,,1,0,12,,,,,,,,,,,,,,,,8,,62,72
10560,note_on,,1,0,5,,,,,,,,,,,,,,,,1,,78,72
10560,note_on,,1,0,8,,,,,,,,,,,,,,,,4,,74,72
10619,note_on,,59,0,15,,,,,,,,,,,,,,,,11,,74,0
10619,note_on,,59,0,16,,,,,,,,,,,,,,,,12,,69,0
10619,note_on,,59,0,14,,,,,,,,,,,,,,,,10,,78,0
10620,note_on,,1,0,16,,,,,,,,,,,,,,,,12,,69,72
10620,note_on,,1,0,14,,,,,,,,,,,,,,,,10,,76,72
10620,note_on,,1,0,15,,,,,,,,,,,,,,,,11,,73,72
10649,note_on,,29,0,14,,,,,,,,,,,,,,,,10,,76,0
10649,note_on,,29,0,15,,,,,,,,,,,,,,,,11,,73,0
10650,note_on,,1,0,15,,,,,,,,,,,,,,,,11,,71,72
10650,note_on,,1,0,14,,,,,,,,,,,,,,,,10,,74,72
10679,note_on,,59,0,16,,,,,,,,,,,,,,,,12,,69,0
10679,note_on,,119,0,11,,,,,,,,,,,,,,,,7,,66,0
10679,note_on,,29,0,14,,,,,,,,,,,,,,,,10,,74,0
10679,note_on,,119,0,6,,,,,,,,,,,,,,,,2,,62,0
10679,note_on,,119,0,17,,,,,,,,,,,,,,,,13,,62,0
10679,note_on,,29,0,15,,,,,,,,,,,,,,,,11,,71,0
10679,note_on,,119,0,13,,,,,,,,,,,,,,,,14,,50,0
10679,note_on,,0,0,18,,,,,,,,,,,,,,,,15,,69,0
10679,note_on,,119,0,10,,,,,,,,,,,,,,,,6,,69,0
10679,note_on,,119,0,12,,,,,,,,,,,,,,,,8,,62,0
10679,note_on,,119,0,8,,,,,,,,,,,,,,,,4,,74,0
10679,note_on,,119,0,5,,,,,,,,,,,,,,,,1,,78,0
10679,note_on,,119,0,7,,,,,,,,,,,,,,,,3,,78,0
10679,note_on,,119,0,18,,,,,,,,,,,,,,,,15,,74,0
10679,note_on,,0,0,18,,,,,,,,,,,,,,,,15,,78,0
10679,note_on,,0,0,18,,,,,,,,,,,,,,,,15,,62,0
10679,note_on,,0,0,18,,,,,,,,,,,,,,,,15,,66,0
10679,note_on,,119,0,9,,,,,,,,,,,,,,,,5,,78,0
10680,note_on,,0,0,18,,,,,,,,,,,,,,,,15,,66,72
10680,note_on,,0,0,18,,,,,,,,,,,,,,,,15,,50,72
10680,note_on,,1,0,14,,,,,,,,,,,,,,,,10,,73,72
10680,note_on,,1,0,13,,,,,,,,,,,,,,,,14,,50,72
10680,note_on,,1,0,11,,,,,,,,,,,,,,,,7,,66,72
10680,note_on,,1,0,9,,,,,,,,,,,,,,,,5,,74,72
10680,note_on,,0,0,18,,,,,,,,,,,,,,,,15,,57,72
10680,note_on,,1,0,16,,,,,,,,,,,,,,,,12,,69,72
10680,note_on,,1,0,18,,,,,,,,,,,,,,,,15,,69,72
10680,note_on,,1,0,17,,,,,,,,,,,,,,,,13,,50,72
10680,note_on,,1,0,15,,,,,,,,,,,,,,,,11,,69,72
10680,note_on,,1,0,7,,,,,,,,,,,,,,,,3,,78,72
10680,note_on,,1,0,6,,,,,,,,,,,,,,,,2,,50,72
10680,note_on,,0,0,18,,,,,,,,,,,,,,,,15,,74,72
10680,note_on,,1,0,12,,,,,,,,,,,,,,,,8,,50,72
10680,note_on,,1,0,8,,,,,,,,,,,,,,,,4,,74,72
10680,note_on,,1,0,5,,,,,,,,,,,,,,,,1,,74,72
10680,note_on,,1,0,10,,,,,,,,,,,,,,,,6,,69,72
10709,note_on,,29,0,15,,,,,,,,,,,,,,,,11,,69,0
10709,note_on,,29,0,14,,,,,,,,,,,,,,,,10,,73,0
10710,note_on,,1,0,15,,,,,,,,,,,,,,,,11,,67,72
10710,note_on,,1,0,14,,,,,,,,,,,,,,,,10,,71,72
10739,note_on,,59,0,16,,,,,,,,,,,,,,,,12,,69,0
10739,note_on,,29,0,15,,,,,,,,,,,,,,,,11,,67,0
10739,note_on,,29,0,14,,,,,,,,,,,,,,,,10,,71,0
10740,note_on,,1,0,16,,,,,,,,,,,,,,,,12,,69,72
10740,note_on,,1,0,14,,,,,,,,,,,,,,,,10,,69,72
10740,note_on,,1,0,15,,,,,,,,,,,,,,,,11,,66,72
10769,note_on,,29,0,14,,,,,,,,,,,,,,,,10,,69,0
10769,note_on,,29,0,15,,,,,,,,,,,,,,,,11,,66,0
10770,note_on,,1,0,14,,,,,,,,,,,,,,,,10,,67,72
10770,note_on,,1,0,15,,,,,,,,,,,,,,,,11,,64,72
10799,note_on,,119,0,7,,,,,,,,,,,,,,,,3,,78,0
10799,note_on,,119,0,10,,,,,,,,,,,,,,,,6,,69,0
10799,note_on,,0,0,18,,,,,,,,,,,,,,,,15,,66,0
10799,note_on,,119,0,17,,,,,,,,,,,,,,,,13,,50,0
10799,note_on,,0,0,18,,,,,,,,,,,,,,,,15,,74,0
10799,note_on,,29,0,15,,,,,,,,,,,,,,,,11,,64,0
10799,note_on,,0,0,18,,,,,,,,,,,,,,,,15,,57,0
10799,note_on,,59,0,16,,,,,,,,,,,,,,,,12,,69,0
10799,note_on,,119,0,9,,,,,,,,,,,,,,,,5,,74,0
10799,note_on,,119,0,6,,,,,,,,,,,,,,,,2,,50,0
10799,note_on,,119,0,18,,,,,,,,,,,,,,,,15,,69,0
10799,note_on,,119,0,8,,,,,,,,,,,,,,,,4,,74,0
10799,note_on,,119,0,5,,,,,,,,,,,,,,,,1,,74,0
10799,note_on,,119,0,12,,,,,,,,,,,,,,,,8,,50,0
10799,note_on,,119,0,11,,,,,,,,,,,,,,,,7,,66,0
10799,note_on,,0,0,18,,,,,,,,,,,,,,,,15,,50,0
10799,note_on,,119,0,13,,,,,,,,,,,,,,,,14,,50,0
10799,note_on,,29,0,14,,,,,,,,,,,,,,,,10,,67,0
10800,note_on,,1,0,16,,,,,,,,,,,,,,,,12,,69,72
10800,note_on,,1,0,14,,,,,,,,,,,,,,,,10,,66,72
10800,note_on,,1,0,15,,,,,,,,,,,,,,,,11,,62,72
10919,note_on,,119,0,14,,,,,,,,,,,,,,,,10,,66,0
10919,note_on,,119,0,15,,,,,,,,,,,,,,,,11,,62,0
10919,note_on,,119,0,16,,,,,,,,,,,,,,,,12,,69,0
11040,set_tempo,,2160,1,0,,,,,,,,,800000,,,,,,,,,,
11040,note_on,,241,0,12,,,,,,,,,,,,,,,,8,,57,72
11040,note_on,,241,0,11,,,,,,,,,,,,,,,,7,,57,72
11040,note_on,,241,0,6,,,,,,,,,,,,,,,,2,,57,72
11040,note_on,,241,0,18,,,,,,,,,,,,,,,,15,,57,72
11040,note_on,,241,0,17,,,,,,,,,,,,,,,,13,,57,72
11219,note_on,,179,0,6,,,,,,,,,,,,,,,,2,,57,0
11219,note_on,,179,0,18,,,,,,,,,,,,,,,,15,,57,0
11219,note_on,,179,0,11,,,,,,,,,,,,,,,,7,,57,0
11219,note_on,,179,0,12,,,,,,,,,,,,,,,,8,,57,0
11219,note_on,,179,0,17,,,,,,,,,,,,,,,,13,,57,0
11220,note_on,,1,0,17,,,,,,,,,,,,,,,,13,,59,72
11220,note_on,,1,0,18,,,,,,,,,,,,,,,,15,,59,72
11220,note_on,,1,0,6,,,,,,,,,,,,,,,,2,,59,72
11220,note_on,,1,0,11,,,,,,,,,,,,,,,,7,,59,72
11220,note_on,,1,0,12,,,,,,,,,,,,,,,,8,,59,72
11249,note_on,,29,0,6,,,,,,,,,,,,,,,,2,,59,0
11249,note_on,,29,0,17,,,,,,,,,,,,,,,,13,,59,0
11249,note_on,,29,0,12,,,,,,,,,,,,,,,,8,,59,0
11249,note_on,,29,0,11,,,,,,,,,,,,,,,,7,,59,0
11249,note_on,,29,0,18,,,,,,,,,,,,,,,,15,,59,0
11250,note_on,,1,0,6,,,,,,,,,,,,,,,,2,,61,72
11250,note_on,,1,0,12,,,,,,,,,,,,,,,,8,,61,72
11250,note_on,,1,0,17,,,,,,,,,,,,,,,,13,,61,72
11250,note_on,,1,0,11,,,,,,,,,,,,,,,,7,,61,72
11250,note_on,,1,0,18,,,,,,,,,,,,,,,,15,,61,72
11279,note_on,,29,0,6,,,,,,,,,,,,,,,,2,,61,0
11279,note_on,,29,0,17,,,,,,,,,,,,,,,,13,,61,0
11279,note_on,,29,0,11,,,,,,,,,,,,,,,,7,,61,0
11279,note_on,,29,0,12,,,,,,,,,,,,,,,,8,,61,0
11279,note_on,,29,0,18,,,,,,,,,,,,,,,,15,,61,0
11280,note_on,,1,0,11,,,,,,,,,,,,,,,,7,,62,72
11280,note_on,,1,0,6,,,,,,,,,,,,,,,,2,,62,72
11280,note_on,,1,0,17,,,,,,,,,,,,,,,,13,,62,72
11280,note_on,,1,0,12,,,,,,,,,,,,,,,,8,,62,72
11280,note_on,,1,0,18,,,,,,,,,,,,,,,,15,,62,72
11339,note_on,,59,0,12,,,,,,,,,,,,,,,,8,,62,0
11339,note_on,,59,0,11,,,,,,,,,,,,,,,,7,,62,0
11339,note_on,,59,0,6,,,,,,,,,,,,,,,,2,,62,0
11339,note_on,,59,0,18,,,,,,,,,,,,,,,,15,,62,0
11339,note_on,,59,0,17,,,,,,,,,,,,,,,,13,,62,0
11340,note_on,,1,0,18,,,,,,,,,,,,,,,,15,,62,72
11340,note_on,,1,0,11,,,,,,,,,,,,,,,,7,,62,72
11340,note_on,,1,0,6,,,,,,,,,,,,,,,,2,,62,72
11340,note_on,,1,0,12,,,,,,,,,,,,,,,,8,,62,72
11340,note_on,,1,0,17,,,,,,,,,,,,,,,,13,,62,72
11399,note_on,,59,0,18,,,,,,,,,,,,,,,,15,,62,0
11399,note_on,,59,0,12,,,,,,,,,,,,,,,,8,,62,0
11399,note_on,,59,0,6,,,,,,,,,,,,,,,,2,,62,0
11399,note_on,,59,0,11,,,,,,,,,,,,,,,,7,,62,0
11399,note_on,,59,0,17,,,,,,,,,,,,,,,,13,,62,0
11400,note_on,,1,0,18,,,,,,,,,,,,,,,,15,,62,72
11400,note_on,,1,0,17,,,,,,,,,,,,,,,,13,,62,72
11400,note_on,,1,0,11,,,,,,,,,,,,,,,,7,,62,72
11400,note_on,,1,0,6,,,,,,,,,,,,,,,,2,,62,72
11400,note_on,,1,0,12,,,,,,,,,,,,,,,,8,,62,72
11459,note_on,,59,0,17,,,,,,,,,,,,,,,,13,,62,0
11459,note_on,,59,0,12,,,,,,,,,,,,,,,,8,,62,0
11459,note_on,,59,0,6,,,,,,,,,,,,,,,,2,,62,0
11459,note_on,,59,0,18,,,,,,,,,,,,,,,,15,,62,0
11459,note_on,,59,0,11,,,,,,,,,,,,,,,,7,,62,0
11460,note_on,,1,0,12,,,,,,,,,,,,,,,,8,,62,72
11460,note_on,,1,0,17,,,,,,,,,,,,,,,,13,,62,72
11460,note_on,,1,0,6,,,,,,,,,,,,,,,,2,,62,72
11460,note_on,,1,0,18,,,,,,,,,,,,,,,,15,,62,72
11460,note_on,,1,0,11,,,,,,,,,,,,,,,,7,,62,72
11519,note_on,,59,0,18,,,,,,,,,,,,,,,,15,,62,0
11519,note_on,,59,0,6,,,,,,,,,,,,,,,,2,,62,0
11519,note_on,,59,0,12,,,,,,,,,,,,,,,,8,,62,0
11519,note_on,,59,0,17,,,,,,,,,,,,,,,,13,,62,0
11519,note_on,,59,0,11,,,,,,,,,,,,,,,,7,,62,0
11520,note_on,,1,0,6,,,,,,,,,,,,,,,,2,,62,72
11520,note_on,,1,0,17,,,,,,,,,,,,,,,,13,,62,72
11520,note_on,,1,0,18,,,,,,,,,,,,,,,,15,,62,72
11520,note_on,,1,0,12,,,,,,,,,,,,,,,,8,,62,72
11520,note_on,,1,0,11,,,,,,,,,,,,,,,,7,,62,72
11579,note_on,,59,0,11,,,,,,,,,,,,,,,,7,,62,0
11579,note_on,,59,0,18,,,,,,,,,,,,,,,,15,,62,0
11579,note_on,,59,0,17,,,,,,,,,,,,,,,,13,,62,0
11579,note_on,,59,0,12,,,,,,,,,,,,,,,,8,,62,0
11579,note_on,,59,0,6,,,,,,,,,,,,,,,,2,,62,0
11580,note_on,,1,0,17,,,,,,,,,,,,,,,,13,,62,72
11580,note_on,,1,0,6,,,,,,,,,,,,,,,,2,,62,72
11580,note_on,,1,0,12,,,,,,,,,,,,,,,,8,,62,72
11580,note_on,,1,0,18,,,,,,,,,,,,,,,,15,,62,72
11580,note_on,,1,0,11,,,,,,,,,,,,,,,,7,,62,72
11639,note_on,,59,0,17,,,,,,,,,,,,,,,,13,,62,0
11639,note_on,,59,0,12,,,,,,,,,,,,,,,,8,,62,0
11639,note_on,,59,0,18,,,,,,,,,,,,,,,,15,,62,0
11639,note_on,,59,0,11,,,,,,,,,,,,,,,,7,,62,0
11639,note_on,,59,0,6,,,,,,,,,,,,,,,,2,,62,0
11640,note_on,,1,0,11,,,,,,,,,,,,,,,,7,,62,72
11640,note_on,,1,0,6,,,,,,,,,,,,,,,,2,,62,72
11640,note_on,,1,0,17,,,,,,,,,,,,,,,,13,,62,72
11640,note_on,,1,0,18,,,,,,,,,,,,,,,,15,,62,72
11640,note_on,,1,0,12,,,,,,,,,,,,,,,,8,,62,72
11699,note_on,,59,0,18,,,,,,,,,,,,,,,,15,,62,0
11699,note_on,,59,0,11,,,,,,,,,,,,,,,,7,,62,0
11699,note_on,,59,0,12,,,,,,,,,,,,,,,,8,,62,0
11699,note_on,,59,0,6,,,,,,,,,,,,,,,,2,,62,0
11699,note_on,,59,0,17,,,,,,,,,,,,,,,,13,,62,0
11700,note_on,,1,0,17,,,,,,,,,,,,,,,,13,,62,72
11700,note_on,,1,0,18,,,,,,,,,,,,,,,,15,,62,72
11700,note_on,,1,0,12,,,,,,,,,,,,,,,,8,,62,72
11700,note_on,,1,0,11,,,,,,,,,,,,,,,,7,,62,72
11700,note_on,,1,0,6,,,,,,,,,,,,,,,,2,,62,72
11759,note_on,,59,0,6,,,,,,,,,,,,,,,,2,,62,0
11759,note_on,,59,0,17,,,,,,,,,,,,,,,,13,,62,0
11759,note_on,,59,0,18,,,,,,,,,,,,,,,,15,,62,0
11759,note_on,,59,0,11,,,,,,,,,,,,,,,,7,,62,0
11759,note_on,,59,0,12,,,,,,,,,,,,,,,,8,,62,0
11760,note_on,,1,0,18,,,,,,,,,,,,,,,,15,,62,72
11760,note_on,,1,0,12,,,,,,,,,,,,,,,,8,,62,72
11760,note_on,,1,0,11,,,,,,,,,,,,,,,,7,,62,72
11760,note_on,,1,0,6,,,,,,,,,,,,,,,,2,,62,72
11760,note_on,,1,0,17,,,,,,,,,,,,,,,,13,,62,72
11819,note_on,,59,0,18,,,,,,,,,,,,,,,,15,,62,0
11819,note_on,,59,0,6,,,,,,,,,,,,,,,,2,,62,0
11819,note_on,,59,0,17,,,,,,,,,,,,,,,,13,,62,0
11819,note_on,,59,0,11,,,,,,,,,,,,,,,,7,,62,0
11819,note_on,,59,0,12,,,,,,,,,,,,,,,,8,,62,0
11820,note_on,,1,0,18,,,,,,,,,,,,,,,,15,,61,72
11820,note_on,,1,0,11,,,,,,,,,,,,,,,,7,,61,72
11820,note_on,,1,0,6,,,,,,,,,,,,,,,,2,,61,72
11820,note_on,,1,0,12,,,,,,,,,,,,,,,,8,,61,72
11820,note_on,,1,0,17,,,,,,,,,,,,,,,,13,,61,72
11849,note_on,,29,0,17,,,,,,,,,,,,,,,,13,,61,0
11849,note_on,,29,0,11,,,,,,,,,,,,,,,,7,,61,0
11849,note_on,,29,0,6,,,,,,,,,,,,,,,,2,,61,0
11849,note_on,,29,0,12,,,,,,,,,,,,,,,,8,,61,0
11849,note_on,,29,0,18,,,,,,,,,,,,,,,,15,,61,0
11850,note_on,,1,0,12,,,,,,,,,,,,,,,,8,,59,72
11850,note_on,,1,0,18,,,,,,,,,,,,,,,,15,,59,72
11850,note_on,,1,0,17,,,,,,,,,,,,,,,,13,,59,72
11850,note_on,,1,0,6,,,,,,,,,,,,,,,,2,,59,72
11850,note_on,,1,0,11,,,,,,,,,,,,,,,,7,,59,72
11879,note_on,,29,0,12,,,,,,,,,,,,,,,,8,,59,0
11879,note_on,,29,0,18,,,,,,,,,,,,,,,,15,,59,0
11879,note_on,,29,0,6,,,,,,,,,,,,,,,,2,,59,0
11879,note_on,,29,0,11,,,,,,,,,,,,,,,,7,,59,0
11879,note_on,,29,0,17,,,,,,,,,,,,,,,,13,,59,0
11880,note_on,,1,0,6,,,,,,,,,,,,,,,,2,,57,72
11880,note_on,,1,0,18,,,,,,,,,,,,,,,,15,,57,72
11880,note_on,,1,0,11,,,,,,,,,,,,,,,,7,,57,72
11880,note_on,,1,0,12,,,,,,,,,,,,,,,,8,,57,72
11880,note_on,,1,0,17,,,,,,,,,,,,,,,,13,,57,72
11939,note_on,,59,0,6,,,,,,,,,,,,,,,,2,,57,0
11939,note_on,,59,0,18,,,,,,,,,,,,,,,,15,,57,0
11939,note_on,,59,0,11,,,,,,,,,,,,,,,,7,,57,0
11939,note_on,,59,0,12,,,,,,,,,,,,,,,,8,,57,0
11939,note_on,,59,0,17,,,,,,,,,,,,,,,,13,,57,0
11940,note_on,,1,0,12,,,,,,,,,,,,,,,,8,,55,72
11940,note_on,,1,0,17,,,,,,,,,,,,,,,,13,,55,72
11940,note_on,,1,0,11,,,,,,,,,,,,,,,,7,,55,72
11940,note_on,,1,0,6,,,,,,,,,,,,,,,,2,,55,72
11940,note_on,,1,0,18,,,,,,,,,,,,,,,,15,,55,72
11999,note_on,,59,0,17,,,,,,,,,,,,,,,,13,,55,0
11999,note_on,,59,0,11,,,,,,,,,,,,,,,,7,,55,0
11999,note_on,,59,0,18,,,,,,,,,,,,,,,,15,,55,0
11999,note_on,,59,0,12,,,,,,,,,,,,,,,,8,,55,0
11999,note_on,,59,0,6,,,,,,,,,,,,,,,,2,,55,0
12000,note_on,,1,0,18,,,,,,,,,,,,,,,,15,,54,72
12000,note_on,,1,0,11,,,,,,,,,,,,,,,,7,,54,72
12000,note_on,,1,0,6,,,,,,,,,,,,,,,,2,,54,72
12000,note_on,,1,0,12,,,,,,,,,,,,,,,,8,,54,72
12000,note_on,,1,0,17,,,,,,,,,,,,,,,,13,,54,72
12119,note_on,,119,0,17,,,,,,,,,,,,,,,,13,,54,0
12119,note_on,,119,0,18,,,,,,,,,,,,,,,,15,,54,0
12119,note_on,,119,0,11,,,,,,,,,,,,,,,,7,,54,0
12119,note_on,,119,0,6,,,,,,,,,,,,,,,,2,,54,0
12119,note_on,,119,0,12,,,,,,,,,,,,,,,,8,,54,0
12180,note_on,,61,0,12,,,,,,,,,,,,,,,,8,,57,72
12180,note_on,,61,0,17,,,,,,,,,,,,,,,,13,,57,72
12180,note_on,,61,0,6,,,,,,,,,,,,,,,,2,,57,72
12180,note_on,,61,0,11,,,,,,,,,,,,,,,,7,,57,72
12180,note_on,,61,0,18,,,,,,,,,,,,,,,,15,,57,72
12239,note_on,,59,0,6,,,,,,,,,,,,,,,,2,,57,0
12239,note_on,,59,0,17,,,,,,,,,,,,,,,,13,,57,0
12239,note_on,,59,0,12,,,,,,,,,,,,,,,,8,,57,0
12239,note_on,,59,0,11,,,,,,,,,,,,,,,,7,,57,0
12239,note_on,,59,0,18,,,,,,,,,,,,,,,,15,,57,0
12240,note_on,,1,0,6,,,,,,,,,,,,,,,,2,,59,72
12240,note_on,,1,0,17,,,,,,,,,,,,,,,,13,,59,72
12240,note_on,,1,0,12,,,,,,,,,,,,,,,,8,,59,72
12240,note_on,,1,0,11,,,,,,,,,,,,,,,,7,,59,72
12240,note_on,,1,0,18,,,,,,,,,,,,,,,,15,,59,72
12269,note_on,,29,0,11,,,,,,,,,,,,,,,,7,,59,0
12269,note_on,,29,0,12,,,,,,,,,,,,,,,,8,,59,0
12269,note_on,,29,0,6,,,,,,,,,,,,,,,,2,,59,0
12269,note_on,,29,0,18,,,,,,,,,,,,,,,,15,,59,0
12269,note_on,,29,0,17,,,,,,,,,,,,,,,,13,,59,0
12270,note_on,,1,0,18,,,,,,,,,,,,,,,,15,,57,72
12270,note_on,,1,0,12,,,,,,,,,,,,,,,,8,,57,72
12270,note_on,,1,0,11,,,,,,,,,,,,,,,,7,,57,72
12270,note_on,,1,0,17,,,,,,,,,,,,,,,,13,,57,72
12270,note_on,,1,0,6,,,,,,,,,,,,,,,,2,,57,72
12299,note_on,,29,0,17,,,,,,,,,,,,,,,,13,,57,0
12299,note_on,,29,0,18,,,,,,,,,,,,,,,,15,,57,0
12299,note_on,,29,0,12,,,,,,,,,,,,,,,,8,,57,0
12299,note_on,,29,0,6,,,,,,,,,,,,,,,,2,,57,0
12299,note_on,,29,0,11,,,,,,,,,,,,,,,,7,,57,0
12300,note_on,,1,0,18,,,,,,,,,,,,,,,,15,,55,72
12300,note_on,,1,0,11,,,,,,,,,,,,,,,,7,,55,72
12300,note_on,,1,0,17,,,,,,,,,,,,,,,,13,,55,72
12300,note_on,,1,0,6,,,,,,,,,,,,,,,,2,,55,72
12300,note_on,,1,0,12,,,,,,,,,,,,,,,,8,,55,72
12329,note_on,,29,0,6,,,,,,,,,,,,,,,,2,,55,0
12329,note_on,,29,0,18,,,,,,,,,,,,,,,,15,,55,0
12329,note_on,,29,0,12,,,,,,,,,,,,,,,,8,,55,0
12329,note_on,,29,0,11,,,,,,,,,,,,,,,,7,,55,0
12329,note_on,,29,0,17,,,,,,,,,,,,,,,,13,,55,0
12330,note_on,,1,0,18,,,,,,,,,,,,,,,,15,,54,72
12330,note_on,,1,0,12,,,,,,,,,,,,,,,,8,,54,72
12330,note_on,,1,0,17,,,,,,,,,,,,,,,,13,,54,72
12330,note_on,,1,0,6,,,,,,,,,,,,,,,,2,,54,72
12330,note_on,,1,0,11,,,,,,,,,,,,,,,,7,,54,72
12359,note_on,,29,0,12,,,,,,,,,,,,,,,,8,,54,0
12359,note_on,,29,0,6,,,,,,,,,,,,,,,,2,,54,0
12359,note_on,,29,0,11,,,,,,,,,,,,,,,,7,,54,0
12359,note_on,,29,0,17,,,,,,,,,,,,,,,,13,,54,0
12359,note_on,,29,0,18,,,,,,,,,,,,,,,,15,,54,0
12360,note_on,,1,0,17,,,,,,,,,,,,,,,,13,,52,72
12360,note_on,,1,0,11,,,,,,,,,,,,,,,,7,,52,72
12360,note_on,,1,0,6,,,,,,,,,,,,,,,,2,,52,72
12360,note_on,,1,0,18,,,,,,,,,,,,,,,,15,,52,72
12360,note_on,,1,0,12,,,,,,,,,,,,,,,,8,,52,72
12419,note_on,,59,0,18,,,,,,,,,,,,,,,,15,,52,0
12419,note_on,,59,0,11,,,,,,,,,,,,,,,,7,,52,0
12419,note_on,,59,0,12,,,,,,,,,,,,,,,,8,,52,0
12419,note_on,,59,0,17,,,,,,,,,,,,,,,,13,,52,0
12419,note_on,,59,0,6,,,,,,,,,,,,,,,,2,,52,0
12420,note_on,,1,0,11,,,,,,,,,,,,,,,,7,,57,72
12420,note_on,,1,0,6,,,,,,,,,,,,,,,,2,,57,72
12420,note_on,,1,0,17,,,,,,,,,,,,,,,,13,,57,72
12420,note_on,,1,0,12,,,,,,,,,,,,,,,,8,,57,72
12420,note_on,,1,0,18,,,,,,,,,,,,,,,,15,,57,72
12479,note_on,,59,0,6,,,,,,,,,,,,,,,,2,,57,0
12479,note_on,,59,0,11,,,,,,,,,,,,,,,,7,,57,0
12479,note_on,,59,0,17,,,,,,,,,,,,,,,,13,,57,0
12479,note_on,,59,0,12,,,,,,,,,,,,,,,,8,,57,0
12479,note_on,,59,0,18,,,,,,,,,,,,,,,,15,,57,0
12480,note_on,,1,0,18,,,,,,,,,,,,,,,,15,,50,72
12480,note_on,,1,0,11,,,,,,,,,,,,,,,,7,,50,72
12480,note_on,,1,0,12,,,,,,,,,,,,,,,,8,,50,72
12480,note_on,,1,0,6,,,,,,,,,,,,,,,,2,,50,72
12480,note_on,,1,0,17,,,,,,,,,,,,,,,,13,,50,72
12539,note_on,,59,0,6,,,,,,,,,,,,,,,,2,,50,0
12539,note_on,,59,0,11,,,,,,,,,,,,,,,,7,,50,0
12539,note_on,,59,0,18,,,,,,,,,,,,,,,,15,,50,0
12539,note_on,,59,0,12,,,,,,,,,,,,,,,,8,,50,0
12539,note_on,,59,0,17,,,,,,,,,,,,,,,,13,,50,0
12540,note_on,,1,0,12,,,,,,,,,,,,,,,,8,,62,72
12540,note_on,,1,0,18,,,,,,,,,,,,,,,,15,,62,72
12540,note_on,,1,0,6,,,,,,,,,,,,,,,,2,,62,72
12540,note_on,,1,0,17,,,,,,,,,,,,,,,,13,,62,72
12540,note_on,,1,0,11,,,,,,,,,,,,,,,,7,,62,72
12659,note_on,,119,0,6,,,,,,,,,,,,,,,,2,,62,0
12659,note_on,,119,0,18,,,,,,,,,,,,,,,,15,,62,0
12659,note_on,,119,0,11,,,,,,,,,,,,,,,,7,,62,0
12659,note_on,,119,0,12,,,,,,,,,,,,,,,,8,,62,0
12659,note_on,,119,0,17,,,,,,,,,,,,,,,,13,,62,0
12660,note_on,,1,0,17,,,,,,,,,,,,,,,,13,,61,72
12660,note_on,,1,0,6,,,,,,,,,,,,,,,,2,,61,72
12660,note_on,,1,0,18,,,,,,,,,,,,,,,,15,,61,72
12660,note_on,,1,0,12,,,,,,,,,,,,,,,,8,,61,72
12660,note_on,,1,0,11,,,,,,,,,,,,,,,,7,,61,72
12719,note_on,,59,0,6,,,,,,,,,,,,,,,,2,,61,0
12719,note_on,,59,0,12,,,,,,,,,,,,,,,,8,,61,0
12719,note_on,,59,0,17,,,,,,,,,,,,,,,,13,,61,0
12719,note_on,,59,0,11,,,,,,,,,,,,,,,,7,,61,0
12719,note_on,,59,0,18,,,,,,,,,,,,,,,,15,,61,0
12720,note_on,,1,0,6,,,,,,,,,,,,,,,,2,,59,72
12720,note_on,,1,0,18,,,,,,,,,,,,,,,,15,,59,72
12720,note_on,,1,0,11,,,,,,,,,,,,,,,,7,,59,72
12720,note_on,,1,0,12,,,,,,,,,,,,,,,,8,,59,72
12720,note_on,,1,0,17,,,,,,,,,,,,,,,,13,,59,72
12779,note_on,,59,0,18,,,,,,,,,,,,,,,,15,,59,0
12779,note_on,,59,0,11,,,,,,,,,,,,,,,,7,,59,0
12779,note_on,,59,0,12,,,,,,,,,,,,,,,,8,,59,0
12779,note_on,,59,0,6,,,,,,,,,,,,,,,,2,,59,0
12779,note_on,,59,0,17,,,,,,,,,,,,,,,,13,,59,0
12780,note_on,,1,0,17,,,,,,,,,,,,,,,,13,,57,72
12780,note_on,,1,0,11,,,,,,,,,,,,,,,,7,,57,72
12780,note_on,,1,0,18,,,,,,,,,,,,,,,,15,,57,72
12780,note_on,,1,0,6,,,,,,,,,,,,,,,,2,,57,72
12780,note_on,,1,0,12,,,,,,,,,,,,,,,,8,,57,72
12839,note_on,,59,0,12,,,,,,,,,,,,,,,,8,,57,0
12839,note_on,,59,0,6,,,,,,,,,,,,,,,,2,,57,0
12839,note_on,,59,0,18,,,,,,,,,,,,,,,,15,,57,0
12839,note_on,,59,0,17,,,,,,,,,,,,,,,,13,,57,0
12839,note_on,,59,0,11,,,,,,,,,,,,,,,,7,,57,0
12840,note_on,,1,0,6,,,,,,,,,,,,,,,,2,,59,72
12840,note_on,,1,0,11,,,,,,,,,,,,,,,,7,,59,72
12840,note_on,,1,0,12,,,,,,,,,,,,,,,,8,,59,72
12840,note_on,,1,0,17,,,,,,,,,,,,,,,,13,,59,72
12840,note_on,,1,0,18,,,,,,,,,,,,,,,,15,,59,72
12929,note_on,,89,0,12,,,,,,,,,,,,,,,,8,,59,0
12929,note_on,,89,0,11,,,,,,,,,,,,,,,,7,,59,0
12930,note_on,,1,0,11,,,,,,,,,,,,,,,,7,,57,72
12930,note_on,,1,0,12,,,,,,,,,,,,,,,,8,,57,72
12959,note_on,,119,0,18,,,,,,,,,,,,,,,,15,,59,0
12959,note_on,,29,0,11,,,,,,,,,,,,,,,,7,,57,0
12959,note_on,,29,0,12,,,,,,,,,,,,,,,,8,,57,0
12959,note_on,,119,0,17,,,,,,,,,,,,,,,,13,,59,0
12959,note_on,,119,0,6,,,,,,,,,,,,,,,,2,,59,0
12960,note_on,,1,0,18,,,,,,,,,,,,,,,,15,,57,72
12960,note_on,,1,0,6,,,,,,,,,,,,,,,,2,,57,72
12960,note_on,,1,0,11,,,,,,,,,,,,,,,,7,,57,72
12960,note_on,,1,0,12,,,,,,,,,,,,,,,,8,,57,72
12960,note_on,,1,0,17,,,,,,,,,,,,,,,,13,,57,72
13079,note_on,,119,0,18,,,,,,,,,,,,,,,,15,,57,0
13079,note_on,,119,0,11,,,,,,,,,,,,,,,,7,,57,0
13079,note_on,,119,0,6,,,,,,,,,,,,,,,,2,,57,0
13079,note_on,,119,0,17,,,,,,,,,,,,,,,,13,,57,0
13079,note_on,,119,0,12,,,,,,,,,,,,,,,,8,,57,0
13080,note_on,,2161,0,15,,,,,,,,,,,,,,,,11,,69,72
13080,note_on,,2281,0,9,,,,,,,,,,,,,,,,5,,69,72
13080,note_on,,1,0,18,,,,,,,,,,,,,,,,15,,69,72
13080,note_on,,2281,0,5,,,,,,,,,,,,,,,,1,,69,72
13080,note_on,,2161,0,14,,,,,,,,,,,,,,,,10,,69,72
13080,note_on,,2161,0,16,,,,,,,,,,,,,,,,12,,69,72
13139,note_on,,59,0,18,,,,,,,,,,,,,,,,15,,69,0
13139,note_on,,59,0,5,,,,,,,,,,,,,,,,1,,69,0
13139,note_on,,59,0,14,,,,,,,,,,,,,,,,10,,69,0
13139,note_on,,59,0,15,,,,,,,,,,,,,,,,11,,69,0
13139,note_on,,59,0,9,,,,,,,,,,,,,,,,5,,69,0
13139,note_on,,59,0,16,,,,,,,,,,,,,,,,12,,69,0
13140,note_on,,1,0,15,,,,,,,,,,,,,,,,11,,71,72
13140,note_on,,1,0,5,,,,,,,,,,,,,,,,1,,71,72
13140,note_on,,1,0,18,,,,,,,,,,,,,,,,15,,71,72
13140,note_on,,1,0,9,,,,,,,,,,,,,,,,5,,71,72
13140,note_on,,1,0,14,,,,,,,,,,,,,,,,10,,71,72
13140,note_on,,1,0,16,,,,,,,,,,,,,,,,12,,71,72
13169,note_on,,29,0,16,,,,,,,,,,,,,,,,12,,71,0
13169,note_on,,29,0,9,,,,,,,,,,,,,,,,5,,71,0
13169,note_on,,29,0,5,,,,,,,,,,,,,,,,1,,71,0
13169,note_on,,29,0,14,,,,,,,,,,,,,,,,10,,71,0
13169,note_on,,29,0,15,,,,,,,,,,,,,,,,11,,71,0
13169,note_on,,29,0,18,,,,,,,,,,,,,,,,15,,71,0
13170,note_on,,1,0,9,,,,,,,,,,,,,,,,5,,73,72
13170,note_on,,1,0,5,,,,,,,,,,,,,,,,1,,73,72
13170,note_on,,1,0,15,,,,,,,,,,,,,,,,11,,73,72
13170,note_on,,1,0,14,,,,,,,,,,,,,,,,10,,73,72
13170,note_on,,1,0,18,,,,,,,,,,,,,,,,15,,73,72
13170,note_on,,1,0,16,,,,,,,,,,,,,,,,12,,73,72
13199,note_on,,29,0,5,,,,,,,,,,,,,,,,1,,73,0
13199,note_on,,29,0,14,,,,,,,,,,,,,,,,10,,73,0
13199,note_on,,29,0,18,,,,,,,,,,,,,,,,15,,73,0
13199,note_on,,29,0,9,,,,,,,,,,,,,,,,5,,73,0
13199,note_on,,29,0,16,,,,,,,,,,,,,,,,12,,73,0
13199,note_on,,29,0,15,,,,,,,,,,,,,,,,11,,73,0
13200,note_on,,1,0,16,,,,,,,,,,,,,,,,12,,74,72
13200,note_on,,1,0,15,,,,,,,,,,,,,,,,11,,74,72
13200,note_on,,1,0,9,,,,,,,,,,,,,,,,5,,74,72
13200,note_on,,1,0,5,,,,,,,,,,,,,,,,1,,74,72
13200,note_on,,1,0,14,,,,,,,,,,,,,,,,10,,74,72
13200,note_on,,1,0,18,,,,,,,,,,,,,,,,15,,74,72
13259,note_on,,59,0,5,,,,,,,,,,,,,,,,1,,74,0
13259,note_on,,59,0,15,,,,,,,,,,,,,,,,11,,74,0
13259,note_on,,59,0,16,,,,,,,,,,,,,,,,12,,74,0
13259,note_on,,59,0,14,,,,,,,,,,,,,,,,10,,74,0
13259,note_on,,59,0,18,,,,,,,,,,,,,,,,15,,74,0
13259,note_on,,59,0,9,,,,,,,,,,,,,,,,5,,74,0
13260,note_on,,1,0,15,,,,,,,,,,,,,,,,11,,74,72
13260,note_on,,1,0,18,,,,,,,,,,,,,,,,15,,74,72
13260,note_on,,1,0,16,,,,,,,,,,,,,,,,12,,74,72
13260,note_on,,1,0,5,,,,,,,,,,,,,,,,1,,74,72
13260,note_on,,1,0,9,,,,,,,,,,,,,,,,5,,74,72
13260,note_on,,1,0,14,,,,,,,,,,,,,,,,10,,74,72
13319,note_on,,59,0,9,,,,,,,,,,,,,,,,5,,74,0
13319,note_on,,59,0,18,,,,,,,,,,,,,,,,15,,74,0
13319,note_on,,59,0,15,,,,,,,,,,,,,,,,11,,74,0
13319,note_on,,59,0,16,,,,,,,,,,,,,,,,12,,74,0
13319,note_on,,59,0,5,,,,,,,,,,,,,,,,1,,74,0
13319,note_on,,59,0,14,,,,,,,,,,,,,,,,10,,74,0
13320,note_on,,1,0,5,,,,,,,,,,,,,,,,1,,74,72
13320,note_on,,1,0,9,,,,,,,,,,,,,,,,5,,74,72
13320,note_on,,1,0,18,,,,,,,,,,,,,,,,15,,74,72
13320,note_on,,1,0,16,,,,,,,,,,,,,,,,12,,74,72
13320,note_on,,1,0,15,,,,,,,,,,,,,,,,11,,74,72
13320,note_on,,1,0,14,,,,,,,,,,,,,,,,10,,74,72
13379,note_on,,59,0,14,,,,,,,,,,,,,,,,10,,74,0
13379,note_on,,59,0,5,,,,,,,,,,,,,,,,1,,74,0
13379,note_on,,59,0,16,,,,,,,,,,,,,,,,12,,74,0
13379,note_on,,59,0,9,,,,,,,,,,,,,,,,5,,74,0
13379,note_on,,59,0,18,,,,,,,,,,,,,,,,15,,74,0
13379,note_on,,59,0,15,,,,,,,,,,,,,,,,11,,74,0
13380,note_on,,1,0,16,,,,,,,,,,,,,,,,12,,74,72
13380,note_on,,1,0,14,,,,,,,,,,,,,,,,10,,74,72
13380,note_on,,1,0,9,,,,,,,,,,,,,,,,5,,74,72
13380,note_on,,1,0,18,,,,,,,,,,,,,,,,15,,74,72
13380,note_on,,1,0,5,,,,,,,,,,,,,,,,1,,74,72
13380,note_on,,1,0,15,,,,,,,,,,,,,,,,11,,74,72
13439,note_on,,59,0,16,,,,,,,,,,,,,,,,12,,74,0
13439,note_on,,59,0,9,,,,,,,,,,,,,,,,5,,74,0
13439,note_on,,59,0,14,,,,,,,,,,,,,,,,10,,74,0
13439,note_on,,59,0,15,,,,,,,,,,,,,,,,11,,74,0
13439,note_on,,59,0,18,,,,,,,,,,,,,,,,15,,74,0
13439,note_on,,59,0,5,,,,,,,,,,,,,,,,1,,74,0
13440,note_on,,1,0,14,,,,,,,,,,,,,,,,10,,74,72
13440,note_on,,1,0,15,,,,,,,,,,,,,,,,11,,74,72
13440,note_on,,1,0,5,,,,,,,,,,,,,,,,1,,74,72
13440,note_on,,1,0,16,,,,,,,,,,,,,,,,12,,74,72
13440,note_on,,1,0,18,,,,,,,,,,,,,,,,15,,74,72
13440,note_on,,1,0,9,,,,,,,,,,,,,,,,5,,74,72
13499,note_on,,59,0,14,,,,,,,,,,,,,,,,10,,74,0
13499,note_on,,59,0,5,,,,,,,,,,,,,,,,1,,74,0
13499,note_on,,59,0,16,,,,,,,,,,,,,,,,12,,74,0
13499,note_on,,59,0,9,,,,,,,,,,,,,,,,5,,74,0
13499,note_on,,59,0,18,,,,,,,,,,,,,,,,15,,74,0
13499,note_on,,59,0,15,,,,,,,,,,,,,,,,11,,74,0
13500,note_on,,1,0,9,,,,,,,,,,,,,,,,5,,74,72
13500,note_on,,1,0,18,,,,,,,,,,,,,,,,15,,74,72
13500,note_on,,1,0,15,,,,,,,,,,,,,,,,11,,74,72
13500,note_on,,1,0,5,,,,,,,,,,,,,,,,1,,74,72
13500,note_on,,1,0,14,,,,,,,,,,,,,,,,10,,74,72
13500,note_on,,1,0,16,,,,,,,,,,,,,,,,12,,74,72
13559,note_on,,59,0,9,,,,,,,,,,,,,,,,5,,74,0
13559,note_on,,59,0,5,,,,,,,,,,,,,,,,1,,74,0
13559,note_on,,59,0,14,,,,,,,,,,,,,,,,10,,74,0
13559,note_on,,59,0,15,,,,,,,,,,,,,,,,11,,74,0
13559,note_on,,59,0,18,,,,,,,,,,,,,,,,15,,74,0
13559,note_on,,59,0,16,,,,,,,,,,,,,,,,12,,74,0
13560,note_on,,1,0,15,,,,,,,,,,,,,,,,11,,74,72
13560,note_on,,1,0,18,,,,,,,,,,,,,,,,15,,74,72
13560,note_on,,1,0,9,,,,,,,,,,,,,,,,5,,74,72
13560,note_on,,1,0,14,,,,,,,,,,,,,,,,10,,74,72
13560,note_on,,1,0,5,,,,,,,,,,,,,,,,1,,74,72
13560,note_on,,1,0,16,,,,,,,,,,,,,,,,12,,74,72
13619,note_on,,59,0,16,,,,,,,,,,,,,,,,12,,74,0
13619,note_on,,59,0,15,,,,,,,,,,,,,,,,11,,74,0
13619,note_on,,59,0,5,,,,,,,,,,,,,,,,1,,74,0
13619,note_on,,59,0,18,,,,,,,,,,,,,,,,15,,74,0
13619,note_on,,59,0,14,,,,,,,,,,,,,,,,10,,74,0
13619,note_on,,59,0,9,,,,,,,,,,,,,,,,5,,74,0
13620,note_on,,1,0,15,,,,,,,,,,,,,,,,11,,74,72
13620,note_on,,1,0,18,,,,,,,,,,,,,,,,15,,74,72
13620,note_on,,1,0,5,,,,,,,,,,,,,,,,1,,74,72
13620,note_on,,1,0,16,,,,,,,,,,,,,,,,12,,74,72
13620,note_on,,1,0,14,,,,,,,,,,,,,,,,10,,74,72
13620,note_on,,1,0,9,,,,,,,,,,,,,,,,5,,74,72
13679,note_on,,59,0,5,,,,,,,,,,,,,,,,1,,74,0
13679,note_on,,59,0,18,,,,,,,,,,,,,,,,15,,74,0
13679,note_on,,59,0,14,,,,,,,,,,,,,,,,10,,74,0
13679,note_on,,59,0,9,,,,,,,,,,,,,,,,5,,74,0
13679,note_on,,59,0,15,,,,,,,,,,,,,,,,11,,74,0
13679,note_on,,59,0,16,,,,,,,,,,,,,,,,12,,74,0
13680,note_on,,1,0,18,,,,,,,,,,,,,,,,15,,74,72
13680,note_on,,1,0,15,,,,,,,,,,,,,,,,11,,74,72
13680,note_on,,1,0,14,,,,,,,,,,,,,,,,10,,74,72
13680,note_on,,1,0,5,,,,,,,,,,,,,,,,1,,74,72
13680,note_on,,1,0,16,,,,,,,,,,,,,,,,12,,74,72
13680,note_on,,1,0,9,,,,,,,,,,,,,,,,5,,74,72
13739,note_on,,59,0,14,,,,,,,,,,,,,,,,10,,74,0
13739,note_on,,59,0,5,,,,,,,,,,,,,,,,1,,74,0
13739,note_on,,59,0,9,,,,,,,,,,,,,,,,5,,74,0
13739,note_on,,59,0,18,,,,,,,,,,,,,,,,15,,74,0
13739,note_on,,59,0,15,,,,,,,,,,,,,,,,11,,74,0
13739,note_on,,59,0,16,,,,,,,,,,,,,,,,12,,74,0
13740,note_on,,1,0,18,,,,,,,,,,,,,,,,15,,73,72
13740,note_on,,1,0,14,,,,,,,,,,,,,,,,10,,73,72
13740,note_on,,1,0,15,,,,,,,,,,,,,,,,11,,73,72
13740,note_on,,1,0,5,,,,,,,,,,,,,,,,1,,73,72
13740,note_on,,1,0,9,,,,,,,,,,,,,,,,5,,73,72
13740,note_on,,1,0,16,,,,,,,,,,,,,,,,12,,73,72
13769,note_on,,29,0,15,,,,,,,,,,,,,,,,11,,73,0
13769,note_on,,29,0,9,,,,,,,,,,,,,,,,5,,73,0
13769,note_on,,29,0,14,,,,,,,,,,,,,,,,10,,73,0
13769,note_on,,29,0,5,,,,,,,,,,,,,,,,1,,73,0
13769,note_on,,29,0,16,,,,,,,,,,,,,,,,12,,73,0
13769,note_on,,29,0,18,,,,,,,,,,,,,,,,15,,73,0
13770,note_on,,1,0,5,,,,,,,,,,,,,,,,1,,71,72
13770,note_on,,1,0,14,,,,,,,,,,,,,,,,10,,71,72
13770,note_on,,1,0,9,,,,,,,,,,,,,,,,5,,71,72
13770,note_on,,1,0,16,,,,,,,,,,,,,,,,12,,71,72
13770,note_on,,1,0,15,,,,,,,,,,,,,,,,11,,71,72
13770,note_on,,1,0,18,,,,,,,,,,,,,,,,15,,71,72
13799,note_on,,29,0,9,,,,,,,,,,,,,,,,5,,71,0
13799,note_on,,29,0,15,,,,,,,,,,,,,,,,11,,71,0
13799,note_on,,29,0,18,,,,,,,,,,,,,,,,15,,71,0
13799,note_on,,29,0,16,,,,,,,,,,,,,,,,12,,71,0
13799,note_on,,29,0,14,,,,,,,,,,,,,,,,10,,71,0
13799,note_on,,29,0,5,,,,,,,,,,,,,,,,1,,71,0
13800,note_on,,1,0,18,,,,,,,,,,,,,,,,15,,69,72
13800,note_on,,1,0,5,,,,,,,,,,,,,,,,1,,69,72
13800,note_on,,1,0,16,,,,,,,,,,,,,,,,12,,69,72
13800,note_on,,1,0,15,,,,,,,,,,,,,,,,11,,69,72
13800,note_on,,1,0,9,,,,,,,,,,,,,,,,5,,69,72
13800,note_on,,1,0,14,,,,,,,,,,,,,,,,10,,69,72
13859,note_on,,59,0,18,,,,,,,,,,,,,,,,15,,69,0
13859,note_on,,59,0,16,,,,,,,,,,,,,,,,12,,69,0
13859,note_on,,59,0,5,,,,,,,,,,,,,,,,1,,69,0
13859,note_on,,59,0,15,,,,,,,,,,,,,,,,11,,69,0
13859,note_on,,59,0,14,,,,,,,,,,,,,,,,10,,69,0
13859,note_on,,59,0,9,,,,,,,,,,,,,,,,5,,69,0
13860,note_on,,1,0,18,,,,,,,,,,,,,,,,15,,67,72
13860,note_on,,1,0,15,,,,,,,,,,,,,,,,11,,67,72
13860,note_on,,1,0,9,,,,,,,,,,,,,,,,5,,67,72
13860,note_on,,1,0,14,,,,,,,,,,,,,,,,10,,67,72
13860,note_on,,1,0,5,,,,,,,,,,,,,,,,1,,67,72
13860,note_on,,1,0,16,,,,,,,,,,,,,,,,12,,67,72
13919,note_on,,59,0,5,,,,,,,,,,,,,,,,1,,67,0
13919,note_on,,59,0,14,,,,,,,,,,,,,,,,10,,67,0
13919,note_on,,59,0,9,,,,,,,,,,,,,,,,5,,67,0
13919,note_on,,59,0,15,,,,,,,,,,,,,,,,11,,67,0
13919,note_on,,59,0,18,,,,,,,,,,,,,,,,15,,67,0
13919,note_on,,59,0,16,,,,,,,,,,,,,,,,12,,67,0
13920,note_on,,1,0,9,,,,,,,,,,,,,,,,5,,66,72
13920,note_on,,1,0,16,,,,,,,,,,,,,,,,12,,66,72
13920,note_on,,1,0,18,,,,,,,,,,,,,,,,15,,66,72
13920,note_on,,1,0,15,,,,,,,,,,,,,,,,11,,66,72
13920,note_on,,1,0,5,,,,,,,,,,,,,,,,1,,66,72
13920,note_on,,1,0,14,,,,,,,,,,,,,,,,10,,66,72
14039,note_on,,119,0,9,,,,,,,,,,,,,,,,5,,66,0
14039,note_on,,119,0,14,,,,,,,,,,,,,,,,10,,66,0
14039,note_on,,119,0,16,,,,,,,,,,,,,,,,12,,66,0
14039,note_on,,119,0,15,,,,,,,,,,,,,,,,11,,66,0
14039,note_on,,119,0,18,,,,,,,,,,,,,,,,15,,66,0
14039,note_on,,119,0,5,,,,,,,,,,,,,,,,1,,66,0
14100,note_on,,61,0,9,,,,,,,,,,,,,,,,5,,69,72
14100,note_on,,61,0,18,,,,,,,,,,,,,,,,15,,69,72
14100,note_on,,61,0,14,,,,,,,,,,,,,,,,10,,69,72
14100,note_on,,61,0,5,,,,,,,,,,,,,,,,1,,69,72
14159,note_on,,59,0,5,,,,,,,,,,,,,,,,1,,69,0
14159,note_on,,59,0,18,,,,,,,,,,,,,,,,15,,69,0
14159,note_on,,59,0,14,,,,,,,,,,,,,,,,10,,69,0
14159,note_on,,59,0,9,,,,,,,,,,,,,,,,5,,69,0
14160,note_on,,1,0,5,,,,,,,,,,,,,,,,1,,71,72
14160,note_on,,1,0,9,,,,,,,,,,,,,,,,5,,71,72
14160,note_on,,1,0,14,,,,,,,,,,,,,,,,10,,71,72
14160,note_on,,1,0,18,,,,,,,,,,,,,,,,15,,71,72
14189,note_on,,29,0,9,,,,,,,,,,,,,,,,5,,71,0
14189,note_on,,29,0,5,,,,,,,,,,,,,,,,1,,71,0
14189,note_on,,29,0,18,,,,,,,,,,,,,,,,15,,71,0
14189,note_on,,29,0,14,,,,,,,,,,,,,,,,10,,71,0
14190,note_on,,1,0,9,,,,,,,,,,,,,,,,5,,69,72
14190,note_on,,1,0,5,,,,,,,,,,,,,,,,1,,69,72
14190,note_on,,1,0,18,,,,,,,,,,,,,,,,15,,69,72
14190,note_on,,1,0,14,,,,,,,,,,,,,,,,10,,69,72
14219,note_on,,29,0,9,,,,,,,,,,,,,,,,5,,69,0
14219,note_on,,29,0,18,,,,,,,,,,,,,,,,15,,69,0
14219,note_on,,29,0,5,,,,,,,,,,,,,,,,1,,69,0
14219,note_on,,29,0,14,,,,,,,,,,,,,,,,10,,69,0
14220,note_on,,1,0,5,,,,,,,,,,,,,,,,1,,67,72
14220,note_on,,1,0,18,,,,,,,,,,,,,,,,15,,67,72
14220,note_on,,1,0,9,,,,,,,,,,,,,,,,5,,67,72
14220,note_on,,1,0,14,,,,,,,,,,,,,,,,10,,67,72
14249,note_on,,29,0,5,,,,,,,,,,,,,,,,1,,67,0
14249,note_on,,29,0,9,,,,,,,,,,,,,,,,5,,67,0
14249,note_on,,29,0,14,,,,,,,,,,,,,,,,10,,67,0
14249,note_on,,29,0,18,,,,,,,,,,,,,,,,15,,67,0
14250,note_on,,1,0,9,,,,,,,,,,,,,,,,5,,66,72
14250,note_on,,1,0,5,,,,,,,,,,,,,,,,1,,66,72
14250,note_on,,1,0,18,,,,,,,,,,,,,,,,15,,66,72
14250,note_on,,1,0,14,,,,,,,,,,,,,,,,10,,66,72
14279,note_on,,29,0,5,,,,,,,,,,,,,,,,1,,66,0
14279,note_on,,29,0,18,,,,,,,,,,,,,,,,15,,66,0
14279,note_on,,29,0,14,,,,,,,,,,,,,,,,10,,66,0
14279,note_on,,29,0,9,,,,,,,,,,,,,,,,5,,66,0
14280,note_on,,1,0,18,,,,,,,,,,,,,,,,15,,64,72
14280,note_on,,1,0,9,,,,,,,,,,,,,,,,5,,64,72
14280,note_on,,1,0,14,,,,,,,,,,,,,,,,10,,64,72
14280,note_on,,1,0,5,,,,,,,,,,,,,,,,1,,64,72
14339,note_on,,59,0,14,,,,,,,,,,,,,,,,10,,64,0
14339,note_on,,59,0,5,,,,,,,,,,,,,,,,1,,64,0
14339,note_on,,59,0,9,,,,,,,,,,,,,,,,5,,64,0
14339,note_on,,59,0,18,,,,,,,,,,,,,,,,15,,64,0
14340,note_on,,301,0,16,,,,,,,,,,,,,,,,12,,57,72
14340,note_on,,1261,0,17,,,,,,,,,,,,,,,,13,,57,72
14340,note_on,,1261,0,11,,,,,,,,,,,,,,,,7,,57,72
14340,note_on,,1,0,18,,,,,,,,,,,,,,,,15,,57,72
14340,note_on,,1,0,14,,,,,,,,,,,,,,,,10,,69,72
14340,note_on,,1,0,5,,,,,,,,,,,,,,,,1,,69,72
14340,note_on,,1,0,9,,,,,,,,,,,,,,,,5,,69,72
14399,note_on,,59,0,14,,,,,,,,,,,,,,,,10,,69,0
14399,note_on,,59,0,5,,,,,,,,,,,,,,,,1,,69,0
14399,note_on,,59,0,17,,,,,,,,,,,,,,,,13,,57,0
14399,note_on,,59,0,16,,,,,,,,,,,,,,,,12,,57,0
14399,note_on,,59,0,11,,,,,,,,,,,,,,,,7,,57,0
14399,note_on,,59,0,9,,,,,,,,,,,,,,,,5,,69,0
14399,note_on,,59,0,18,,,,,,,,,,,,,,,,15,,57,0
14400,note_on,,1,0,5,,,,,,,,,,,,,,,,1,,62,72
14400,note_on,,1,0,17,,,,,,,,,,,,,,,,13,,59,72
14400,note_on,,1,0,11,,,,,,,,,,,,,,,,7,,59,72
14400,note_on,,1,0,16,,,,,,,,,,,,,,,,12,,59,72
14400,note_on,,1,0,14,,,,,,,,,,,,,,,,10,,62,72
14400,note_on,,1,0,18,,,,,,,,,,,,,,,,15,,59,72
14400,note_on,,1,0,9,,,,,,,,,,,,,,,,5,,62,72
14429,note_on,,29,0,16,,,,,,,,,,,,,,,,12,,59,0
14429,note_on,,29,0,17,,,,,,,,,,,,,,,,13,,59,0
14429,note_on,,29,0,11,,,,,,,,,,,,,,,,7,,59,0
14429,note_on,,29,0,18,,,,,,,,,,,,,,,,15,,59,0
14430,note_on,,1,0,17,,,,,,,,,,,,,,,,13,,57,72
14430,note_on,,1,0,16,,,,,,,,,,,,,,,,12,,57,72
14430,note_on,,1,0,11,,,,,,,,,,,,,,,,7,,57,72
14430,note_on,,1,0,18,,,,,,,,,,,,,,,,15,,57,72
14459,note_on,,59,0,9,,,,,,,,,,,,,,,,5,,62,0
14459,note_on,,59,0,5,,,,,,,,,,,,,,,,1,,62,0
14459,note_on,,29,0,18,,,,,,,,,,,,,,,,15,,57,0
14459,note_on,,29,0,17,,,,,,,,,,,,,,,,13,,57,0
14459,note_on,,29,0,11,,,,,,,,,,,,,,,,7,,57,0
14459,note_on,,29,0,16,,,,,,,,,,,,,,,,12,,57,0
14459,note_on,,59,0,14,,,,,,,,,,,,,,,,10,,62,0
14460,note_on,,1,0,18,,,,,,,,,,,,,,,,15,,71,72
14460,note_on,,1,0,5,,,,,,,,,,,,,,,,1,,74,72
14460,note_on,,1,0,17,,,,,,,,,,,,,,,,13,,55,72
14460,note_on,,0,0,18,,,,,,,,,,,,,,,,15,,55,72
14460,note_on,,1,0,14,,,,,,,,,,,,,,,,10,,74,72
14460,note_on,,1,0,16,,,,,,,,,,,,,,,,12,,55,72
14460,note_on,,1,0,9,,,,,,,,,,,,,,,,5,,74,72
14460,note_on,,1,0,11,,,,,,,,,,,,,,,,7,,55,72
14489,note_on,,29,0,16,,,,,,,,,,,,,,,,12,,55,0
14489,note_on,,29,0,11,,,,,,,,,,,,,,,,7,,55,0
14489,note_on,,0,0,18,,,,,,,,,,,,,,,,15,,55,0
14489,note_on,,29,0,18,,,,,,,,,,,,,,,,15,,71,0
14489,note_on,,29,0,17,,,,,,,,,,,,,,,,13,,55,0
14490,note_on,,1,0,11,,,,,,,,,,,,,,,,7,,54,72
14490,note_on,,1,0,17,,,,,,,,,,,,,,,,13,,54,72
14490,note_on,,0,0,18,,,,,,,,,,,,,,,,15,,69,72
14490,note_on,,1,0,18,,,,,,,,,,,,,,,,15,,54,72
14490,note_on,,1,0,16,,,,,,,,,,,,,,,,12,,54,72
14519,note_on,,0,0,18,,,,,,,,,,,,,,,,15,,69,0
14519,note_on,,29,0,11,,,,,,,,,,,,,,,,7,,54,0
14519,note_on,,29,0,16,,,,,,,,,,,,,,,,12,,54,0
14519,note_on,,29,0,18,,,,,,,,,,,,,,,,15,,54,0
14519,note_on,,29,0,17,,,,,,,,,,,,,,,,13,,54,0
14520,note_on,,1,0,18,,,,,,,,,,,,,,,,15,,67,72
14520,note_on,,1,0,11,,,,,,,,,,,,,,,,7,,52,72
14520,note_on,,0,0,18,,,,,,,,,,,,,,,,15,,52,72
14520,note_on,,1,0,16,,,,,,,,,,,,,,,,12,,52,72
14520,note_on,,1,0,17,,,,,,,,,,,,,,,,13,,52,72
14549,note_on,,29,0,18,,,,,,,,,,,,,,,,15,,67,0
14550,note_on,,1,0,18,,,,,,,,,,,,,,,,15,,66,72
14579,note_on,,59,0,16,,,,,,,,,,,,,,,,12,,52,0
14579,note_on,,119,0,5,,,,,,,,,,,,,,,,1,,74,0
14579,note_on,,119,0,9,,,,,,,,,,,,,,,,5,,74,0
14579,note_on,,59,0,17,,,,,,,,,,,,,,,,13,,52,0
14579,note_on,,119,0,14,,,,,,,,,,,,,,,,10,,74,0
14579,note_on,,0,0,18,,,,,,,,,,,,,,,,15,,66,0
14579,note_on,,59,0,11,,,,,,,,,,,,,,,,7,,52,0
14579,note_on,,29,0,18,,,,,,,,,,,,,,,,15,,52,0
14580,note_on,,0,0,18,,,,,,,,,,,,,,,,15,,64,72
14580,note_on,,1,0,11,,,,,,,,,,,,,,,,7,,57,72
14580,note_on,,0,0,18,,,,,,,,,,,,,,,,15,,57,72
14580,note_on,,1,0,18,,,,,,,,,,,,,,,,15,,69,72
14580,note_on,,1,0,17,,,,,,,,,,,,,,,,13,,57,72
14580,note_on,,1,0,5,,,,,,,,,,,,,,,,1,,73,72
14580,note_on,,1,0,16,,,,,,,,,,,,,,,,12,,57,72
14580,note_on,,1,0,14,,,,,,,,,,,,,,,,10,,73,72
14580,note_on,,1,0,9,,,,,,,,,,,,,,,,5,,73,72
14609,note_on,,29,0,18,,,,,,,,,,,,,,,,15,,69,0
14610,note_on,,1,0,18,,,,,,,,,,,,,,,,15,,67,72
14639,note_on,,59,0,14,,,,,,,,,,,,,,,,10,,73,0
14639,note_on,,59,0,17,,,,,,,,,,,,,,,,13,,57,0
14639,note_on,,59,0,9,,,,,,,,,,,,,,,,5,,73,0
14639,note_on,,59,0,5,,,,,,,,,,,,,,,,1,,73,0
14639,note_on,,0,0,18,,,,,,,,,,,,,,,,15,,67,0
14639,note_on,,0,0,18,,,,,,,,,,,,,,,,15,,57,0
14639,note_on,,59,0,16,,,,,,,,,,,,,,,,12,,57,0
14639,note_on,,59,0,11,,,,,,,,,,,,,,,,7,,57,0
14639,note_on,,29,0,18,,,,,,,,,,,,,,,,15,,64,0
14640,note_on,,1,0,5,,,,,,,,,,,,,,,,1,,66,72
14640,note_on,,0,0,18,,,,,,,,,,,,,,,,15,,66,72
14640,note_on,,1,0,14,,,,,,,,,,,,,,,,10,,66,72
14640,note_on,,0,0,18,,,,,,,,,,,,,,,,15,,62,72
14640,note_on,,1,0,18,,,,,,,,,,,,,,,,15,,50,72
14640,note_on,,1,0,9,,,,,,,,,,,,,,,,5,,66,72
14640,note_on,,1,0,16,,,,,,,,,,,,,,,,12,,50,72
14640,note_on,,1,0,17,,,,,,,,,,,,,,,,13,,50,72
14640,note_on,,1,0,11,,,,,,,,,,,,,,,,7,,50,72
14669,note_on,,29,0,18,,,,,,,,,,,,,,,,15,,66,0
14670,note_on,,1,0,18,,,,,,,,,,,,,,,,15,,64,72
14699,note_on,,29,0,18,,,,,,,,,,,,,,,,15,,50,0
14699,note_on,,0,0,18,,,,,,,,,,,,,,,,15,,64,0
14699,note_on,,59,0,5,,,,,,,,,,,,,,,,1,,66,0
14699,note_on,,59,0,14,,,,,,,,,,,,,,,,10,,66,0
14699,note_on,,59,0,17,,,,,,,,,,,,,,,,13,,50,0
14699,note_on,,59,0,9,,,,,,,,,,,,,,,,5,,66,0
14699,note_on,,59,0,11,,,,,,,,,,,,,,,,7,,50,0
14699,note_on,,59,0,16,,,,,,,,,,,,,,,,12,,50,0
14700,note_on,,1,0,16,,,,,,,,,,,,,,,,12,,62,72
14700,note_on,,1,0,17,,,,,,,,,,,,,,,,13,,62,72
14700,note_on,,1,0,11,,,,,,,,,,,,,,,,7,,62,72
14700,note_on,,1,0,18,,,,,,,,,,,,,,,,15,,62,72
14700,note_on,,1,0,9,,,,,,,,,,,,,,,,5,,71,72
14700,note_on,,1,0,5,,,,,,,,,,,,,,,,1,,71,72
14700,note_on,,1,0,14,,,,,,,,,,,,,,,,10,,71,72
14759,note_on,,59,0,9,,,,,,,,,,,,,,,,5,,71,0
14759,note_on,,59,0,18,,,,,,,,,,,,,,,,15,,62,0
14759,note_on,,59,0,5,,,,,,,,,,,,,,,,1,,71,0
14759,note_on,,59,0,14,,,,,,,,,,,,,,,,10,,71,0
14760,note_on,,1,0,9,,,,,,,,,,,,,,,,5,,64,72
14760,note_on,,1,0,14,,,,,,,,,,,,,,,,10,,64,72
14760,note_on,,1,0,5,,,,,,,,,,,,,,,,1,,64,72
14760,note_on,,1,0,18,,,,,,,,,,,,,,,,15,,64,72
14760,note_on,,0,0,18,,,,,,,,,,,,,,,,15,,69,72
14819,note_on,,59,0,5,,,,,,,,,,,,,,,,1,,64,0
14819,note_on,,59,0,14,,,,,,,,,,,,,,,,10,,64,0
14819,note_on,,59,0,9,,,,,,,,,,,,,,,,5,,64,0
14819,note_on,,59,0,18,,,,,,,,,,,,,,,,15,,62,0
14819,note_on,,119,0,16,,,,,,,,,,,,,,,,12,,62,0
14819,note_on,,119,0,17,,,,,,,,,,,,,,,,13,,62,0
14819,note_on,,119,0,11,,,,,,,,,,,,,,,,7,,62,0
14820,note_on,,1,0,16,,,,,,,,,,,,,,,,12,,61,72
14820,note_on,,1,0,18,,,,,,,,,,,,,,,,15,,61,72
14820,note_on,,1,0,14,,,,,,,,,,,,,,,,10,,69,72
14820,note_on,,1,0,5,,,,,,,,,,,,,,,,1,,69,72
14820,note_on,,1,0,11,,,,,,,,,,,,,,,,7,,61,72
14820,note_on,,1,0,17,,,,,,,,,,,,,,,,13,,61,72
14820,note_on,,1,0,9,,,,,,,,,,,,,,,,5,,69,72
14879,note_on,,59,0,14,,,,,,,,,,,,,,,,10,,69,0
14879,note_on,,59,0,18,,,,,,,,,,,,,,,,15,,64,0
14879,note_on,,0,0,18,,,,,,,,,,,,,,,,15,,69,0
14879,note_on,,0,0,18,,,,,,,,,,,,,,,,15,,61,0
14879,note_on,,59,0,16,,,,,,,,,,,,,,,,12,,61,0
14879,note_on,,59,0,5,,,,,,,,,,,,,,,,1,,69,0
14879,note_on,,59,0,11,,,,,,,,,,,,,,,,7,,61,0
14879,note_on,,59,0,17,,,,,,,,,,,,,,,,13,,61,0
14879,note_on,,59,0,9,,,,,,,,,,,,,,,,5,,69,0
14880,note_on,,1,0,16,,,,,,,,,,,,,,,,12,,54,72
14880,note_on,,1,0,17,,,,,,,,,,,,,,,,13,,54,72
14880,note_on,,1,0,14,,,,,,,,,,,,,,,,10,,74,72
14880,note_on,,1,0,11,,,,,,,,,,,,,,,,7,,54,72
14880,note_on,,0,0,18,,,,,,,,,,,,,,,,15,,54,72
14880,note_on,,0,0,18,,,,,,,,,,,,,,,,15,,69,72
14880,note_on,,1,0,18,,,,,,,,,,,,,,,,15,,57,72
14880,note_on,,1,0,5,,,,,,,,,,,,,,,,1,,74,72
14880,note_on,,1,0,9,,,,,,,,,,,,,,,,5,,74,72
14939,note_on,,59,0,16,,,,,,,,,,,,,,,,12,,54,0
14939,note_on,,0,0,18,,,,,,,,,,,,,,,,15,,54,0
14939,note_on,,59,0,18,,,,,,,,,,,,,,,,15,,57,0
14939,note_on,,0,0,18,,,,,,,,,,,,,,,,15,,69,0
14939,note_on,,59,0,17,,,,,,,,,,,,,,,,13,,54,0
14939,note_on,,59,0,11,,,,,,,,,,,,,,,,7,,54,0
14940,note_on,,1,0,11,,,,,,,,,,,,,,,,7,,59,72
14940,note_on,,1,0,18,,,,,,,,,,,,,,,,15,,59,72
14940,note_on,,0,0,18,,,,,,,,,,,,,,,,15,,62,72
14940,note_on,,1,0,16,,,,,,,,,,,,,,,,12,,59,72
14940,note_on,,1,0,17,,,,,,,,,,,,,,,,13,,59,72
14999,note_on,,119,0,14,,,,,,,,,,,,,,,,10,,74,0
14999,note_on,,59,0,16,,,,,,,,,,,,,,,,12,,59,0
14999,note_on,,0,0,18,,,,,,,,,,,,,,,,15,,62,0
14999,note_on,,59,0,11,,,,,,,,,,,,,,,,7,,59,0
14999,note_on,,119,0,9,,,,,,,,,,,,,,,,5,,74,0
14999,note_on,,119,0,5,,,,,,,,,,,,,,,,1,,74,0
14999,note_on,,59,0,17,,,,,,,,,,,,,,,,13,,59,0
14999,note_on,,59,0,18,,,,,,,,,,,,,,,,15,,59,0
15000,note_on,,1,0,5,,,,,,,,,,,,,,,,1,,74,72
15000,note_on,,1,0,11,,,,,,,,,,,,,,,,7,,56,72
15000,note_on,,1,0,18,,,,,,,,,,,,,,,,15,,56,72
15000,note_on,,1,0,17,,,,,,,,,,,,,,,,13,,56,72
15000,note_on,,0,0,18,,,,,,,,,,,,,,,,15,,71,72
15000,note_on,,0,0,18,,,,,,,,,,,,,,,,15,,64,72
15000,note_on,,0,0,18,,,,,,,,,,,,,,,,15,,76,72
15000,note_on,,1,0,14,,,,,,,,,,,,,,,,10,,74,72
15000,note_on,,1,0,16,,,,,,,,,,,,,,,,12,,56,72
15000,note_on,,1,0,9,,,,,,,,,,,,,,,,5,,74,72
15059,note_on,,0,0,18,,,,,,,,,,,,,,,,15,,64,0
15059,note_on,,59,0,18,,,,,,,,,,,,,,,,15,,71,0
15059,note_on,,0,0,18,,,,,,,,,,,,,,,,15,,76,0
15059,note_on,,59,0,9,,,,,,,,,,,,,,,,5,,74,0
15059,note_on,,59,0,14,,,,,,,,,,,,,,,,10,,74,0
15059,note_on,,59,0,5,,,,,,,,,,,,,,,,1,,74,0
15060,note_on,,1,0,14,,,,,,,,,,,,,,,,10,,74,72
15060,note_on,,1,0,5,,,,,,,,,,,,,,,,1,,74,72
15060,note_on,,1,0,9,,,,,,,,,,,,,,,,5,,74,72
15089,note_on,,89,0,11,,,,,,,,,,,,,,,,7,,56,0
15089,note_on,,89,0,17,,,,,,,,,,,,,,,,13,,56,0
15089,note_on,,89,0,16,,,,,,,,,,,,,,,,12,,56,0
15089,note_on,,30,0,18,,,,,,,,,,,,,,,,15,,56,0
15090,note_on,,1,0,18,,,,,,,,,,,,,,,,15,,56,72
15090,note_on,,1,0,11,,,,,,,,,,,,,,,,7,,56,72
15090,note_on,,1,0,17,,,,,,,,,,,,,,,,13,,56,72
15090,note_on,,1,0,16,,,,,,,,,,,,,,,,12,,56,72
15119,note_on,,59,0,9,,,,,,,,,,,,,,,,5,,74,0
15119,note_on,,29,0,16,,,,,,,,,,,,,,,,12,,56,0
15119,note_on,,29,0,18,,,,,,,,,,,,,,,,15,,56,0
15119,note_on,,29,0,11,,,,,,,,,,,,,,,,7,,56,0
15119,note_on,,59,0,14,,,,,,,,,,,,,,,,10,,74,0
15119,note_on,,29,0,17,,,,,,,,,,,,,,,,13,,56,0
15119,note_on,,59,0,5,,,,,,,,,,,,,,,,1,,74,0
15120,note_on,,1,0,14,,,,,,,,,,,,,,,,10,,74,72
15120,note_on,,1,0,9,,,,,,,,,,,,,,,,5,,74,72
15120,note_on,,1,0,11,,,,,,,,,,,,,,,,7,,57,72
15120,note_on,,1,0,16,,,,,,,,,,,,,,,,12,,57,72
15120,note_on,,4321,0,10,,,,,,,,,,,,,,,,6,,64,72
15120,note_on,,1,0,17,,,,,,,,,,,,,,,,13,,57,72
15120,note_on,,1081,0,15,,,,,,,,,,,,,,,,11,,76,72
15120,note_on,,1,0,5,,,,,,,,,,,,,,,,1,,74,72
15120,note_on,,1,0,18,,,,,,,,,,,,,,,,15,,76,72
15120,note_on,,0,0,18,,,,,,,,,,,,,,,,15,,57,72
15120,note_on,,0,0,18,,,,,,,,,,,,,,,,15,,64,72
15120,note_on,,0,0,18,,,,,,,,,,,,,,,,15,,69,72
15179,note_on,,59,0,5,,,,,,,,,,,,,,,,1,,74,0
15179,note_on,,59,0,14,,,,,,,,,,,,,,,,10,,74,0
15179,note_on,,59,0,9,,,,,,,,,,,,,,,,5,,74,0
15180,note_on,,1,0,9,,,,,,,,,,,,,,,,5,,76,72
15180,note_on,,1,0,14,,,,,,,,,,,,,,,,10,,76,72
15180,note_on,,1,0,5,,,,,,,,,,,,,,,,1,,76,72
15209,note_on,,29,0,9,,,,,,,,,,,,,,,,5,,76,0
15209,note_on,,29,0,5,,,,,,,,,,,,,,,,1,,76,0
15209,note_on,,29,0,14,,,,,,,,,,,,,,,,10,,76,0
15210,note_on,,1,0,5,,,,,,,,,,,,,,,,1,,74,72
15210,note_on,,1,0,14,,,,,,,,,,,,,,,,10,,74,72
15210,note_on,,1,0,9,,,,,,,,,,,,,,,,5,,74,72
15239,note_on,,29,0,9,,,,,,,,,,,,,,,,5,,74,0
15239,note_on,,0,0,18,,,,,,,,,,,,,,,,15,,69,0
15239,note_on,,119,0,18,,,,,,,,,,,,,,,,15,,76,0
15239,note_on,,29,0,14,,,,,,,,,,,,,,,,10,,74,0
15239,note_on,,119,0,16,,,,,,,,,,,,,,,,12,,57,0
15239,note_on,,29,0,5,,,,,,,,,,,,,,,,1,,74,0
15239,note_on,,0,0,18,,,,,,,,,,,,,,,,15,,64,0
15239,note_on,,119,0,11,,,,,,,,,,,,,,,,7,,57,0
15240,note_on,,1,0,14,,,,,,,,,,,,,,,,10,,73,72
15240,note_on,,1,0,5,,,,,,,,,,,,,,,,1,,73,72
15240,note_on,,1,0,9,,,,,,,,,,,,,,,,5,,73,72
15299,note_on,,59,0,9,,,,,,,,,,,,,,,,5,,73,0
15299,note_on,,59,0,5,,,,,,,,,,,,,,,,1,,73,0
15299,note_on,,179,0,10,,,,,,,,,,,,,,,,6,,64,0
15299,note_on,,59,0,14,,,,,,,,,,,,,,,,10,,73,0
15299,note_on,,179,0,15,,,,,,,,,,,,,,,,11,,76,0
15300,note_on,,1,0,5,,,,,,,,,,,,,,,,1,,71,72
15300,note_on,,1,0,15,,,,,,,,,,,,,,,,11,,78,72
15300,note_on,,1,0,9,,,,,,,,,,,,,,,,5,,71,72
15300,note_on,,1,0,14,,,,,,,,,,,,,,,,10,,71,72
15300,note_on,,1,0,10,,,,,,,,,,,,,,,,6,,66,72
15329,note_on,,29,0,15,,,,,,,,,,,,,,,,11,,78,0
15329,note_on,,29,0,10,,,,,,,,,,,,,,,,6,,66,0
15330,note_on,,1,0,15,,,,,,,,,,,,,,,,11,,80,72
15330,note_on,,1,0,10,,,,,,,,,,,,,,,,6,,68,72
15359,note_on,,59,0,9,,,,,,,,,,,,,,,,5,,71,0
15359,note_on,,29,0,15,,,,,,,,,,,,,,,,11,,80,0
15359,note_on,,59,0,14,,,,,,,,,,,,,,,,10,,71,0
15359,note_on,,59,0,5,,,,,,,,,,,,,,,,1,,71,0
15359,note_on,,120,0,18,,,,,,,,,,,,,,,,15,,57,0
15359,note_on,,239,0,17,,,,,,,,,,,,,,,,13,,57,0
15359,note_on,,29,0,10,,,,,,,,,,,,,,,,6,,68,0
15360,note_on,,1,0,10,,,,,,,,,,,,,,,,6,,69,72
15360,note_on,,1,0,14,,,,,,,,,,,,,,,,10,,73,72
15360,note_on,,1,0,5,,,,,,,,,,,,,,,,1,,73,72
15360,note_on,,1,0,9,,,,,,,,,,,,,,,,5,,73,72
15360,note_on,,1,0,15,,,,,,,,,,,,,,,,11,,81,72
15419,note_on,,59,0,9,,,,,,,,,,,,,,,,5,,73,0
15419,note_on,,59,0,5,,,,,,,,,,,,,,,,1,,73,0
15419,note_on,,59,0,10,,,,,,,,,,,,,,,,6,,69,0
15419,note_on,,59,0,14,,,,,,,,,,,,,,,,10,,73,0
15419,note_on,,59,0,15,,,,,,,,,,,,,,,,11,,81,0
15420,note_on,,0,0,18,,,,,,,,,,,,,,,,15,,61,72
15420,note_on,,0,0,18,,,,,,,,,,,,,,,,15,,69,72
15420,note_on,,1,0,5,,,,,,,,,,,,,,,,1,,76,72
15420,note_on,,181,0,11,,,,,,,,,,,,,,,,7,,61,72
15420,note_on,,61,0,17,,,,,,,,,,,,,,,,13,,61,72
15420,note_on,,0,0,18,,,,,,,,,,,,,,,,15,,76,72
15420,note_on,,1,0,14,,,,,,,,,,,,,,,,10,,76,72
15420,note_on,,61,0,18,,,,,,,,,,,,,,,,15,,64,72
15420,note_on,,1,0,10,,,,,,,,,,,,,,,,6,,69,72
15420,note_on,,181,0,16,,,,,,,,,,,,,,,,12,,61,72
15420,note_on,,1,0,9,,,,,,,,,,,,,,,,5,,76,72
15420,note_on,,1,0,15,,,,,,,,,,,,,,,,11,,81,72
15479,note_on,,59,0,15,,,,,,,,,,,,,,,,11,,81,0
15479,note_on,,59,0,16,,,,,,,,,,,,,,,,12,,61,0
15479,note_on,,59,0,18,,,,,,,,,,,,,,,,15,,64,0
15479,note_on,,0,0,18,,,,,,,,,,,,,,,,15,,76,0
15479,note_on,,0,0,18,,,,,,,,,,,,,,,,15,,69,0
15479,note_on,,0,0,18,,,,,,,,,,,,,,,,15,,61,0
15479,note_on,,59,0,14,,,,,,,,,,,,,,,,10,,76,0
15479,note_on,,59,0,11,,,,,,,,,,,,,,,,7,,61,0
15479,note_on,,59,0,5,,,,,,,,,,,,,,,,1,,76,0
15479,note_on,,59,0,10,,,,,,,,,,,,,,,,6,,69,0
15479,note_on,,59,0,17,,,,,,,,,,,,,,,,13,,61,0
15479,note_on,,59,0,9,,,,,,,,,,,,,,,,5,,76,0
15480,note_on,,1,0,11,,,,,,,,,,,,,,,,7,,62,72
15480,note_on,,1,0,5,,,,,,,,,,,,,,,,1,,78,72
15480,note_on,,1,0,14,,,,,,,,,,,,,,,,10,,78,72
15480,note_on,,1,0,9,,,,,,,,,,,,,,,,5,,78,72
15480,note_on,,0,0,18,,,,,,,,,,,,,,,,15,,69,72
15480,note_on,,1,0,18,,,,,,,,,,,,,,,,15,,62,72
15480,note_on,,0,0,18,,,,,,,,,,,,,,,,15,,66,72
15480,note_on,,1,0,16,,,,,,,,,,,,,,,,12,,62,72
15480,note_on,,1,0,10,,,,,,,,,,,,,,,,6,,69,72
15480,note_on,,1,0,15,,,,,,,,,,,,,,,,11,,81,72
15480,note_on,,1,0,17,,,,,,,,,,,,,,,,13,,62,72
15539,note_on,,59,0,16,,,,,,,,,,,,,,,,12,,62,0
15539,note_on,,59,0,10,,,,,,,,,,,,,,,,6,,69,0
15539,note_on,,59,0,9,,,,,,,,,,,,,,,,5,,78,0
15539,note_on,,59,0,17,,,,,,,,,,,,,,,,13,,62,0
15539,note_on,,59,0,14,,,,,,,,,,,,,,,,10,,78,0
15539,note_on,,59,0,15,,,,,,,,,,,,,,,,11,,81,0
15539,note_on,,59,0,18,,,,,,,,,,,,,,,,15,,62,0
15539,note_on,,0,0,18,,,,,,,,,,,,,,,,15,,66,0
15539,note_on,,0,0,18,,,,,,,,,,,,,,,,15,,69,0
15539,note_on,,59,0,11,,,,,,,,,,,,,,,,7,,62,0
15539,note_on,,59,0,5,,,,,,,,,,,,,,,,1,,78,0
15540,note_on,,1,0,5,,,,,,,,,,,,,,,,1,,76,72
15540,note_on,,1,0,10,,,,,,,,,,,,,,,,6,,69,72
15540,note_on,,1,0,11,,,,,,,,,,,,,,,,7,,61,72
15540,note_on,,1,0,9,,,,,,,,,,,,,,,,5,,76,72
15540,note_on,,1,0,17,,,,,,,,,,,,,,,,13,,61,72
15540,note_on,,1,0,18,,,,,,,,,,,,,,,,15,,64,72
15540,note_on,,0,0,18,,,,,,,,,,,,,,,,15,,61,72
15540,note_on,,1,0,15,,,,,,,,,,,,,,,,11,,81,72
15540,note_on,,1,0,16,,,,,,,,,,,,,,,,12,,61,72
15540,note_on,,1,0,14,,,,,,,,,,,,,,,,10,,76,72
15569,note_on,,29,0,16,,,,,,,,,,,,,,,,12,,61,0
15569,note_on,,29,0,14,,,,,,,,,,,,,,,,10,,76,0
15569,note_on,,29,0,18,,,,,,,,,,,,,,,,15,,64,0
15569,note_on,,0,0,18,,,,,,,,,,,,,,,,15,,61,0
15569,note_on,,29,0,11,,,,,,,,,,,,,,,,7,,61,0
15569,note_on,,29,0,5,,,,,,,,,,,,,,,,1,,76,0
15569,note_on,,29,0,17,,,,,,,,,,,,,,,,13,,61,0
15569,note_on,,29,0,9,,,,,,,,,,,,,,,,5,,76,0
15570,note_on,,1,0,14,,,,,,,,,,,,,,,,10,,74,72
15570,note_on,,0,0,18,,,,,,,,,,,,,,,,15,,62,72
15570,note_on,,1,0,5,,,,,,,,,,,,,,,,1,,74,72
15570,note_on,,1,0,17,,,,,,,,,,,,,,,,13,,59,72
15570,note_on,,1,0,18,,,,,,,,,,,,,,,,15,,59,72
15570,note_on,,1,0,9,,,,,,,,,,,,,,,,5,,74,72
15570,note_on,,1,0,16,,,,,,,,,,,,,,,,12,,59,72
15570,note_on,,1,0,11,,,,,,,,,,,,,,,,7,,59,72
15599,note_on,,29,0,11,,,,,,,,,,,,,,,,7,,59,0
15599,note_on,,29,0,18,,,,,,,,,,,,,,,,15,,59,0
15599,note_on,,29,0,9,,,,,,,,,,,,,,,,5,,74,0
15599,note_on,,59,0,15,,,,,,,,,,,,,,,,11,,81,0
15599,note_on,,0,0,18,,,,,,,,,,,,,,,,15,,62,0
15599,note_on,,29,0,5,,,,,,,,,,,,,,,,1,,74,0
15599,note_on,,29,0,14,,,,,,,,,,,,,,,,10,,74,0
15599,note_on,,29,0,17,,,,,,,,,,,,,,,,13,,59,0
15599,note_on,,29,0,16,,,,,,,,,,,,,,,,12,,59,0
15599,note_on,,59,0,10,,,,,,,,,,,,,,,,6,,69,0
15600,note_on,,0,0,18,,,,,,,,,,,,,,,,15,,64,72
15600,note_on,,0,0,18,,,,,,,,,,,,,,,,15,,76,72
15600,note_on,,0,0,18,,,,,,,,,,,,,,,,15,,69,72
15600,note_on,,1,0,16,,,,,,,,,,,,,,,,12,,61,72
15600,note_on,,1,0,10,,,,,,,,,,,,,,,,6,,69,72
15600,note_on,,1,0,14,,,,,,,,,,,,,,,,10,,76,72
15600,note_on,,1,0,18,,,,,,,,,,,,,,,,15,,61,72
15600,note_on,,1,0,11,,,,,,,,,,,,,,,,7,,61,72
15600,note_on,,1,0,15,,,,,,,,,,,,,,,,11,,81,72
15600,note_on,,1,0,5,,,,,,,,,,,,,,,,1,,76,72
15600,note_on,,1,0,17,,,,,,,,,,,,,,,,13,,61,72
15600,note_on,,1,0,9,,,,,,,,,,,,,,,,5,,76,72
15659,note_on,,59,0,11,,,,,,,,,,,,,,,,7,,61,0
15659,note_on,,59,0,9,,,,,,,,,,,,,,,,5,,76,0
15659,note_on,,59,0,14,,,,,,,,,,,,,,,,10,,76,0
15659,note_on,,59,0,15,,,,,,,,,,,,,,,,11,,81,0
15659,note_on,,59,0,5,,,,,,,,,,,,,,,,1,,76,0
15659,note_on,,59,0,10,,,,,,,,,,,,,,,,6,,69,0
15659,note_on,,59,0,16,,,,,,,,,,,,,,,,12,,61,0
15659,note_on,,59,0,17,,,,,,,,,,,,,,,,13,,61,0
15659,note_on,,0,0,18,,,,,,,,,,,,,,,,15,,69,0
15659,note_on,,0,0,18,,,,,,,,,,,,,,,,15,,76,0
15659,note_on,,59,0,18,,,,,,,,,,,,,,,,15,,61,0
15660,note_on,,1,0,9,,,,,,,,,,,,,,,,5,,73,72
15660,note_on,,1,0,16,,,,,,,,,,,,,,,,12,,57,72
15660,note_on,,1,0,17,,,,,,,,,,,,,,,,13,,57,72
15660,note_on,,1,0,10,,,,,,,,,,,,,,,,6,,69,72
15660,note_on,,1,0,15,,,,,,,,,,,,,,,,11,,81,72
15660,note_on,,1,0,5,,,,,,,,,,,,,,,,1,,73,72
15660,note_on,,1,0,18,,,,,,,,,,,,,,,,15,,57,72
15660,note_on,,0,0,18,,,,,,,,,,,,,,,,15,,73,72
15660,note_on,,1,0,14,,,,,,,,,,,,,,,,10,,73,72
15660,note_on,,1,0,11,,,,,,,,,,,,,,,,7,,57,72
15689,note_on,,29,0,11,,,,,,,,,,,,,,,,7,,57,0
15689,note_on,,29,0,16,,,,,,,,,,,,,,,,12,,57,0
15689,note_on,,29,0,18,,,,,,,,,,,,,,,,15,,57,0
15689,note_on,,29,0,9,,,,,,,,,,,,,,,,5,,73,0
15689,note_on,,29,0,14,,,,,,,,,,,,,,,,10,,73,0
15689,note_on,,0,0,18,,,,,,,,,,,,,,,,15,,73,0
15689,note_on,,29,0,17,,,,,,,,,,,,,,,,13,,57,0
15689,note_on,,29,0,5,,,,,,,,,,,,,,,,1,,73,0
15690,note_on,,1,0,14,,,,,,,,,,,,,,,,10,,74,72
15690,note_on,,1,0,9,,,,,,,,,,,,,,,,5,,74,72
15690,note_on,,1,0,11,,,,,,,,,,,,,,,,7,,59,72
15690,note_on,,1,0,17,,,,,,,,,,,,,,,,13,,59,72
15690,note_on,,1,0,18,,,,,,,,,,,,,,,,15,,59,72
15690,note_on,,0,0,18,,,,,,,,,,,,,,,,15,,74,72
15690,note_on,,1,0,16,,,,,,,,,,,,,,,,12,,59,72
15690,note_on,,1,0,5,,,,,,,,,,,,,,,,1,,74,72
15719,note_on,,29,0,17,,,,,,,,,,,,,,,,13,,59,0
15719,note_on,,59,0,15,,,,,,,,,,,,,,,,11,,81,0
15719,note_on,,29,0,5,,,,,,,,,,,,,,,,1,,74,0
15719,note_on,,29,0,16,,,,,,,,,,,,,,,,12,,59,0
15719,note_on,,0,0,18,,,,,,,,,,,,,,,,15,,59,0
15719,note_on,,0,0,18,,,,,,,,,,,,,,,,15,,74,0
15719,note_on,,29,0,11,,,,,,,,,,,,,,,,7,,59,0
15719,note_on,,29,0,18,,,,,,,,,,,,,,,,15,,64,0
15719,note_on,,29,0,9,,,,,,,,,,,,,,,,5,,74,0
15719,note_on,,59,0,10,,,,,,,,,,,,,,,,6,,69,0
15719,note_on,,29,0,14,,,,,,,,,,,,,,,,10,,74,0
15720,note_on,,1,0,15,,,,,,,,,,,,,,,,11,,81,72
15720,note_on,,1,0,17,,,,,,,,,,,,,,,,13,,61,72
15720,note_on,,1,0,10,,,,,,,,,,,,,,,,6,,69,72
15720,note_on,,0,0,18,,,,,,,,,,,,,,,,15,,69,72
15720,note_on,,1,0,5,,,,,,,,,,,,,,,,1,,76,72
15720,note_on,,1,0,16,,,,,,,,,,,,,,,,12,,61,72
15720,note_on,,1,0,11,,,,,,,,,,,,,,,,7,,61,72
15720,note_on,,0,0,18,,,,,,,,,,,,,,,,15,,76,72
15720,note_on,,1,0,18,,,,,,,,,,,,,,,,15,,61,72
15720,note_on,,1,0,9,,,,,,,,,,,,,,,,5,,76,72
15720,note_on,,1,0,14,,,,,,,,,,,,,,,,10,,76,72
15779,note_on,,59,0,15,,,,,,,,,,,,,,,,11,,81,0
15779,note_on,,0,0,18,,,,,,,,,,,,,,,,15,,69,0
15779,note_on,,0,0,18,,,,,,,,,,,,,,,,15,,76,0
15779,note_on,,59,0,18,,,,,,,,,,,,,,,,15,,61,0
15779,note_on,,59,0,14,,,,,,,,,,,,,,,,10,,76,0
15779,note_on,,59,0,5,,,,,,,,,,,,,,,,1,,76,0
15779,note_on,,59,0,9,,,,,,,,,,,,,,,,5,,76,0
15779,note_on,,59,0,17,,,,,,,,,,,,,,,,13,,61,0
15779,note_on,,59,0,16,,,,,,,,,,,,,,,,12,,61,0
15779,note_on,,59,0,11,,,,,,,,,,,,,,,,7,,61,0
15779,note_on,,59,0,10,,,,,,,,,,,,,,,,6,,69,0
15780,note_on,,1,0,9,,,,,,,,,,,,,,,,5,,74,72
15780,note_on,,1,0,18,,,,,,,,,,,,,,,,15,,74,72
15780,note_on,,1,0,14,,,,,,,,,,,,,,,,10,,74,72
15780,note_on,,1,0,17,,,,,,,,,,,,,,,,13,,59,72
15780,note_on,,0,0,18,,,,,,,,,,,,,,,,15,,59,72
15780,note_on,,1,0,15,,,,,,,,,,,,,,,,11,,81,72
15780,note_on,,1,0,5,,,,,,,,,,,,,,,,1,,74,72
15780,note_on,,1,0,16,,,,,,,,,,,,,,,,12,,59,72
15780,note_on,,1,0,10,,,,,,,,,,,,,,,,6,,69,72
15780,note_on,,1,0,11,,,,,,,,,,,,,,,,7,,59,72
15809,note_on,,29,0,18,,,,,,,,,,,,,,,,15,,74,0
15809,note_on,,0,0,18,,,,,,,,,,,,,,,,15,,59,0
15809,note_on,,29,0,9,,,,,,,,,,,,,,,,5,,74,0
15809,note_on,,29,0,14,,,,,,,,,,,,,,,,10,,74,0
15809,note_on,,29,0,11,,,,,,,,,,,,,,,,7,,59,0
15809,note_on,,29,0,5,,,,,,,,,,,,,,,,1,,74,0
15809,note_on,,29,0,17,,,,,,,,,,,,,,,,13,,59,0
15809,note_on,,29,0,16,,,,,,,,,,,,,,,,12,,59,0
15810,note_on,,1,0,14,,,,,,,,,,,,,,,,10,,73,72
15810,note_on,,1,0,16,,,,,,,,,,,,,,,,12,,57,72
15810,note_on,,1,0,9,,,,,,,,,,,,,,,,5,,73,72
15810,note_on,,1,0,11,,,,,,,,,,,,,,,,7,,57,72
15810,note_on,,0,0,18,,,,,,,,,,,,,,,,15,,73,72
15810,note_on,,1,0,17,,,,,,,,,,,,,,,,13,,57,72
15810,note_on,,1,0,5,,,,,,,,,,,,,,,,1,,73,72
15810,note_on,,1,0,18,,,,,,,,,,,,,,,,15,,57,72
15839,note_on,,29,0,18,,,,,,,,,,,,,,,,15,,57,0
15839,note_on,,0,0,18,,,,,,,,,,,,,,,,15,,73,0
15839,note_on,,59,0,10,,,,,,,,,,,,,,,,6,,69,0
15839,note_on,,59,0,15,,,,,,,,,,,,,,,,11,,81,0
15839,note_on,,29,0,17,,,,,,,,,,,,,,,,13,,57,0
15839,note_on,,29,0,11,,,,,,,,,,,,,,,,7,,57,0
15839,note_on,,29,0,14,,,,,,,,,,,,,,,,10,,73,0
15839,note_on,,29,0,9,,,,,,,,,,,,,,,,5,,73,0
15839,note_on,,29,0,5,,,,,,,,,,,,,,,,1,,73,0
15839,note_on,,29,0,16,,,,,,,,,,,,,,,,12,,57,0
15840,note_on,,1,0,16,,,,,,,,,,,,,,,,12,,64,72
15840,note_on,,1,0,10,,,,,,,,,,,,,,,,6,,69,72
15840,note_on,,1,0,9,,,,,,,,,,,,,,,,5,,71,72
15840,note_on,,1,0,11,,,,,,,,,,,,,,,,7,,64,72
15840,note_on,,1,0,14,,,,,,,,,,,,,,,,10,,71,72
15840,note_on,,1,0,17,,,,,,,,,,,,,,,,13,,64,72
15840,note_on,,1,0,18,,,,,,,,,,,,,,,,15,,71,72
15840,note_on,,0,0,18,,,,,,,,,,,,,,,,15,,76,72
15840,note_on,,0,0,18,,,,,,,,,,,,,,,,15,,64,72
15840,note_on,,1,0,5,,,,,,,,,,,,,,,,1,,71,72
15840,note_on,,1,0,15,,,,,,,,,,,,,,,,11,,81,72
15899,note_on,,59,0,9,,,,,,,,,,,,,,,,5,,71,0
15899,note_on,,59,0,14,,,,,,,,,,,,,,,,10,,71,0
15899,note_on,,59,0,16,,,,,,,,,,,,,,,,12,,64,0
15899,note_on,,59,0,11,,,,,,,,,,,,,,,,7,,64,0
15899,note_on,,59,0,15,,,,,,,,,,,,,,,,11,,81,0
15899,note_on,,59,0,10,,,,,,,,,,,,,,,,6,,69,0
15899,note_on,,59,0,5,,,,,,,,,,,,,,,,1,,71,0
15900,note_on,,1,0,11,,,,,,,,,,,,,,,,7,,64,72
15900,note_on,,1,0,9,,,,,,,,,,,,,,,,5,,71,72
15900,note_on,,1,0,14,,,,,,,,,,,,,,,,10,,71,72
15900,note_on,,1,0,5,,,,,,,,,,,,,,,,1,,71,72
15900,note_on,,1,0,10,,,,,,,,,,,,,,,,6,,68,72
15900,note_on,,1,0,16,,,,,,,,,,,,,,,,12,,64,72
15900,note_on,,1,0,15,,,,,,,,,,,,,,,,11,,80,72
15929,note_on,,29,0,10,,,,,,,,,,,,,,,,6,,68,0
15929,note_on,,29,0,15,,,,,,,,,,,,,,,,11,,80,0
15930,note_on,,1,0,15,,,,,,,,,,,,,,,,11,,78,72
15930,note_on,,1,0,10,,,,,,,,,,,,,,,,6,,66,72
15959,note_on,,59,0,11,,,,,,,,,,,,,,,,7,,64,0
15959,note_on,,0,0,18,,,,,,,,,,,,,,,,15,,64,0
15959,note_on,,59,0,14,,,,,,,,,,,,,,,,10,,71,0
15959,note_on,,0,0,18,,,,,,,,,,,,,,,,15,,76,0
15959,note_on,,119,0,18,,,,,,,,,,,,,,,,15,,71,0
15959,note_on,,119,0,17,,,,,,,,,,,,,,,,13,,64,0
15959,note_on,,59,0,9,,,,,,,,,,,,,,,,5,,71,0
15959,note_on,,59,0,5,,,,,,,,,,,,,,,,1,,71,0
15959,note_on,,29,0,15,,,,,,,,,,,,,,,,11,,78,0
15959,note_on,,29,0,10,,,,,,,,,,,,,,,,6,,66,0
15959,note_on,,59,0,16,,,,,,,,,,,,,,,,12,,64,0
15960,note_on,,1,0,17,,,,,,,,,,,,,,,,13,,52,72
15960,note_on,,1,0,18,,,,,,,,,,,,,,,,15,,52,72
15960,note_on,,1,0,15,,,,,,,,,,,,,,,,11,,76,72
15960,note_on,,1,0,10,,,,,,,,,,,,,,,,6,,64,72
15960,note_on,,2881,0,6,,,,,,,,,,,,,,,,2,,52,72
15960,note_on,,2881,0,12,,,,,,,,,,,,,,,,8,,52,72
16019,note_on,,59,0,18,,,,,,,,,,,,,,,,15,,52,0
16019,note_on,,59,0,10,,,,,,,,,,,,,,,,6,,64,0
16019,note_on,,59,0,15,,,,,,,,,,,,,,,,11,,76,0
16019,note_on,,59,0,6,,,,,,,,,,,,,,,,2,,52,0
16019,note_on,,59,0,12,,,,,,,,,,,,,,,,8,,52,0
16019,note_on,,59,0,17,,,,,,,,,,,,,,,,13,,52,0
16020,note_on,,1,0,6,,,,,,,,,,,,,,,,2,,54,72
16020,note_on,,1,0,10,,,,,,,,,,,,,,,,6,,62,72
16020,note_on,,1,0,18,,,,,,,,,,,,,,,,15,,54,72
16020,note_on,,1,0,15,,,,,,,,,,,,,,,,11,,74,72
16020,note_on,,1,0,17,,,,,,,,,,,,,,,,13,,54,72
16020,note_on,,1,0,12,,,,,,,,,,,,,,,,8,,54,72
16049,note_on,,29,0,6,,,,,,,,,,,,,,,,2,,54,0
16049,note_on,,29,0,18,,,,,,,,,,,,,,,,15,,54,0
16049,note_on,,29,0,12,,,,,,,,,,,,,,,,8,,54,0
16049,note_on,,29,0,17,,,,,,,,,,,,,,,,13,,54,0
16050,note_on,,1,0,18,,,,,,,,,,,,,,,,15,,56,72
16050,note_on,,1,0,12,,,,,,,,,,,,,,,,8,,56,72
16050,note_on,,1,0,17,,,,,,,,,,,,,,,,13,,56,72
16050,note_on,,1,0,6,,,,,,,,,,,,,,,,2,,56,72
16079,note_on,,29,0,12,,,,,,,,,,,,,,,,8,,56,0
16079,note_on,,59,0,15,,,,,,,,,,,,,,,,11,,74,0
16079,note_on,,29,0,18,,,,,,,,,,,,,,,,15,,56,0
16079,note_on,,59,0,10,,,,,,,,,,,,,,,,6,,62,0
16079,note_on,,29,0,17,,,,,,,,,,,,,,,,13,,56,0
16079,note_on,,29,0,6,,,,,,,,,,,,,,,,2,,56,0
16080,note_on,,1,0,17,,,,,,,,,,,,,,,,13,,57,72
16080,note_on,,1,0,10,,,,,,,,,,,,,,,,6,,61,72
16080,note_on,,0,0,18,,,,,,,,,,,,,,,,15,,57,72
16080,note_on,,1,0,6,,,,,,,,,,,,,,,,2,,57,72
16080,note_on,,1,0,18,,,,,,,,,,,,,,,,15,,61,72
16080,note_on,,121,0,9,,,,,,,,,,,,,,,,5,,64,72
16080,note_on,,121,0,14,,,,,,,,,,,,,,,,10,,64,72
16080,note_on,,0,0,18,,,,,,,,,,,,,,,,15,,64,72
16080,note_on,,1,0,15,,,,,,,,,,,,,,,,11,,73,72
16080,note_on,,1,0,12,,,,,,,,,,,,,,,,8,,57,72
16080,note_on,,121,0,5,,,,,,,,,,,,,,,,1,,64,72
16139,note_on,,59,0,6,,,,,,,,,,,,,,,,2,,57,0
16139,note_on,,59,0,14,,,,,,,,,,,,,,,,10,,64,0
16139,note_on,,59,0,12,,,,,,,,,,,,,,,,8,,57,0
16139,note_on,,0,0,18,,,,,,,,,,,,,,,,15,,57,0
16139,note_on,,0,0,18,,,,,,,,,,,,,,,,15,,64,0
16139,note_on,,59,0,9,,,,,,,,,,,,,,,,5,,64,0
16139,note_on,,59,0,5,,,,,,,,,,,,,,,,1,,64,0
16139,note_on,,59,0,17,,,,,,,,,,,,,,,,13,,57,0
16139,note_on,,59,0,18,,,,,,,,,,,,,,,,15,,61,0
16140,note_on,,1,0,18,,,,,,,,,,,,,,,,15,,57,72
16140,note_on,,181,0,16,,,,,,,,,,,,,,,,12,,64,72
16140,note_on,,181,0,11,,,,,,,,,,,,,,,,7,,64,72
16140,note_on,,1,0,5,,,,,,,,,,,,,,,,1,,66,72
16140,note_on,,1,0,9,,,,,,,,,,,,,,,,5,,66,72
16140,note_on,,1,0,14,,,,,,,,,,,,,,,,10,,66,72
16140,note_on,,1,0,12,,,,,,,,,,,,,,,,8,,57,72
16140,note_on,,1,0,17,,,,,,,,,,,,,,,,13,,57,72
16140,note_on,,1,0,6,,,,,,,,,,,,,,,,2,,57,72
16169,note_on,,29,0,9,,,,,,,,,,,,,,,,5,,66,0
16169,note_on,,29,0,14,,,,,,,,,,,,,,,,10,,66,0
16169,note_on,,29,0,5,,,,,,,,,,,,,,,,1,,66,0
16170,note_on,,1,0,5,,,,,,,,,,,,,,,,1,,68,72
16170,note_on,,1,0,9,,,,,,,,,,,,,,,,5,,68,72
16170,note_on,,1,0,14,,,,,,,,,,,,,,,,10,,68,72
16199,note_on,,59,0,11,,,,,,,,,,,,,,,,7,,64,0
16199,note_on,,119,0,15,,,,,,,,,,,,,,,,11,,73,0
16199,note_on,,29,0,14,,,,,,,,,,,,,,,,10,,68,0
16199,note_on,,59,0,17,,,,,,,,,,,,,,,,13,,57,0
16199,note_on,,59,0,12,,,,,,,,,,,,,,,,8,,57,0
16199,note_on,,29,0,9,,,,,,,,,,,,,,,,5,,68,0
16199,note_on,,59,0,6,,,,,,,,,,,,,,,,2,,57,0
16199,note_on,,29,0,5,,,,,,,,,,,,,,,,1,,68,0
16199,note_on,,59,0,18,,,,,,,,,,,,,,,,15,,57,0
16199,note_on,,59,0,16,,,,,,,,,,,,,,,,12,,64,0
16199,note_on,,119,0,10,,,,,,,,,,,,,,,,6,,61,0
16200,note_on,,1,0,6,,,,,,,,,,,,,,,,2,,57,72
16200,note_on,,1,0,12,,,,,,,,,,,,,,,,8,,57,72
16200,note_on,,1,0,9,,,,,,,,,,,,,,,,5,,69,72
16200,note_on,,1,0,14,,,,,,,,,,,,,,,,10,,69,72
16200,note_on,,1,0,11,,,,,,,,,,,,,,,,7,,66,72
16200,note_on,,1,0,16,,,,,,,,,,,,,,,,12,,66,72
16200,note_on,,1,0,5,,,,,,,,,,,,,,,,1,,69,72
16200,note_on,,1,0,18,,,,,,,,,,,,,,,,15,,69,72
16200,note_on,,1,0,17,,,,,,,,,,,,,,,,13,,57,72
16200,note_on,,0,0,18,,,,,,,,,,,,,,,,15,,66,72
16200,note_on,,0,0,18,,,,,,,,,,,,,,,,15,,62,72
16200,note_on,,0,0,18,,,,,,,,,,,,,,,,15,,57,72
16229,note_on,,29,0,5,,,,,,,,,,,,,,,,1,,69,0
16229,note_on,,29,0,9,,,,,,,,,,,,,,,,5,,69,0
16229,note_on,,29,0,14,,,,,,,,,,,,,,,,10,,69,0
16230,note_on,,1,0,14,,,,,,,,,,,,,,,,10,,71,72
16230,note_on,,1,0,5,,,,,,,,,,,,,,,,1,,71,72
16230,note_on,,1,0,9,,,,,,,,,,,,,,,,5,,71,72
16259,note_on,,59,0,17,,,,,,,,,,,,,,,,13,,57,0
16259,note_on,,59,0,12,,,,,,,,,,,,,,,,8,,57,0
16259,note_on,,59,0,6,,,,,,,,,,,,,,,,2,,57,0
16259,note_on,,29,0,9,,,,,,,,,,,,,,,,5,,71,0
16259,note_on,,59,0,11,,,,,,,,,,,,,,,,7,,66,0
16259,note_on,,59,0,16,,,,,,,,,,,,,,,,12,,66,0
16259,note_on,,29,0,14,,,,,,,,,,,,,,,,10,,71,0
16259,note_on,,0,0,18,,,,,,,,,,,,,,,,15,,62,0
16259,note_on,,29,0,5,,,,,,,,,,,,,,,,1,,71,0
16259,note_on,,59,0,18,,,,,,,,,,,,,,,,15,,69,0
16259,note_on,,0,0,18,,,,,,,,,,,,,,,,15,,66,0
16259,note_on,,0,0,18,,,,,,,,,,,,,,,,15,,57,0
16260,note_on,,1,0,6,,,,,,,,,,,,,,,,2,,57,72
16260,note_on,,1,0,5,,,,,,,,,,,,,,,,1,,73,72
16260,note_on,,1,0,11,,,,,,,,,,,,,,,,7,,64,72
16260,note_on,,1,0,9,,,,,,,,,,,,,,,,5,,73,72
16260,note_on,,1,0,17,,,,,,,,,,,,,,,,13,,57,72
16260,note_on,,1,0,12,,,,,,,,,,,,,,,,8,,57,72
16260,note_on,,1,0,16,,,,,,,,,,,,,,,,12,,64,72
16260,note_on,,1,0,14,,,,,,,,,,,,,,,,10,,73,72
16260,note_on,,1,0,18,,,,,,,,,,,,,,,,15,,57,72
16289,note_on,,29,0,9,,,,,,,,,,,,,,,,5,,73,0
16289,note_on,,29,0,11,,,,,,,,,,,,,,,,7,,64,0
16289,note_on,,29,0,5,,,,,,,,,,,,,,,,1,,73,0
16289,note_on,,29,0,14,,,,,,,,,,,,,,,,10,,73,0
16289,note_on,,29,0,16,,,,,,,,,,,,,,,,12,,64,0
16290,note_on,,1,0,16,,,,,,,,,,,,,,,,12,,62,72
16290,note_on,,1,0,11,,,,,,,,,,,,,,,,7,,62,72
16290,note_on,,1,0,9,,,,,,,,,,,,,,,,5,,74,72
16290,note_on,,1,0,14,,,,,,,,,,,,,,,,10,,74,72
16290,note_on,,1,0,5,,,,,,,,,,,,,,,,1,,74,72
16319,note_on,,29,0,5,,,,,,,,,,,,,,,,1,,74,0
16319,note_on,,59,0,12,,,,,,,,,,,,,,,,8,,57,0
16319,note_on,,59,0,17,,,,,,,,,,,,,,,,13,,57,0
16319,note_on,,59,0,6,,,,,,,,,,,,,,,,2,,57,0
16319,note_on,,29,0,9,,,,,,,,,,,,,,,,5,,74,0
16319,note_on,,29,0,16,,,,,,,,,,,,,,,,12,,62,0
16319,note_on,,29,0,11,,,,,,,,,,,,,,,,7,,62,0
16319,note_on,,59,0,18,,,,,,,,,,,,,,,,15,,57,0
16319,note_on,,29,0,14,,,,,,,,,,,,,,,,10,,74,0
16320,note_on,,1,0,11,,,,,,,,,,,,,,,,7,,61,72
16320,note_on,,1,0,6,,,,,,,,,,,,,,,,2,,57,72
16320,note_on,,1,0,12,,,,,,,,,,,,,,,,8,,57,72
16320,note_on,,1,0,14,,,,,,,,,,,,,,,,10,,76,72
16320,note_on,,1,0,16,,,,,,,,,,,,,,,,12,,61,72
16320,note_on,,1,0,5,,,,,,,,,,,,,,,,1,,76,72
16320,note_on,,0,0,18,,,,,,,,,,,,,,,,15,,64,72
16320,note_on,,0,0,18,,,,,,,,,,,,,,,,15,,73,72
16320,note_on,,1,0,17,,,,,,,,,,,,,,,,13,,57,72
16320,note_on,,1,0,9,,,,,,,,,,,,,,,,5,,76,72
16320,note_on,,0,0,18,,,,,,,,,,,,,,,,15,,69,72
16320,note_on,,1,0,18,,,,,,,,,,,,,,,,15,,57,72
16349,note_on,,29,0,9,,,,,,,,,,,,,,,,5,,76,0
16349,note_on,,29,0,14,,,,,,,,,,,,,,,,10,,76,0
16349,note_on,,29,0,5,,,,,,,,,,,,,,,,1,,76,0
16350,note_on,,1,0,9,,,,,,,,,,,,,,,,5,,69,72
16350,note_on,,1,0,14,,,,,,,,,,,,,,,,10,,69,72
16350,note_on,,1,0,5,,,,,,,,,,,,,,,,1,,69,72
16379,note_on,,59,0,12,,,,,,,,,,,,,,,,8,,57,0
16379,note_on,,59,0,17,,,,,,,,,,,,,,,,13,,57,0
16379,note_on,,59,0,6,,,,,,,,,,,,,,,,2,,57,0
16379,note_on,,29,0,9,,,,,,,,,,,,,,,,5,,69,0
16379,note_on,,59,0,16,,,,,,,,,,,,,,,,12,,61,0
16379,note_on,,29,0,14,,,,,,,,,,,,,,,,10,,69,0
16379,note_on,,59,0,11,,,,,,,,,,,,,,,,7,,61,0
16379,note_on,,0,0,18,,,,,,,,,,,,,,,,15,,64,0
16379,note_on,,59,0,18,,,,,,,,,,,,,,,,15,,57,0
16379,note_on,,0,0,18,,,,,,,,,,,,,,,,15,,69,0
16379,note_on,,29,0,5,,,,,,,,,,,,,,,,1,,69,0
16379,note_on,,0,0,18,,,,,,,,,,,,,,,,15,,73,0
16380,note_on,,1,0,12,,,,,,,,,,,,,,,,8,,57,72
16380,note_on,,1,0,11,,,,,,,,,,,,,,,,7,,57,72
16380,note_on,,1,0,17,,,,,,,,,,,,,,,,13,,57,72
16380,note_on,,1,0,18,,,,,,,,,,,,,,,,15,,57,72
16380,note_on,,181,0,15,,,,,,,,,,,,,,,,11,,76,72
16380,note_on,,1,0,5,,,,,,,,,,,,,,,,1,,71,72
16380,note_on,,1,0,14,,,,,,,,,,,,,,,,10,,71,72
16380,note_on,,1,0,6,,,,,,,,,,,,,,,,2,,57,72
16380,note_on,,1,0,9,,,,,,,,,,,,,,,,5,,71,72
16380,note_on,,181,0,10,,,,,,,,,,,,,,,,6,,64,72
16380,note_on,,1,0,16,,,,,,,,,,,,,,,,12,,57,72
16409,note_on,,29,0,9,,,,,,,,,,,,,,,,5,,71,0
16409,note_on,,29,0,14,,,,,,,,,,,,,,,,10,,71,0
16409,note_on,,29,0,5,,,,,,,,,,,,,,,,1,,71,0
16410,note_on,,1,0,9,,,,,,,,,,,,,,,,5,,73,72
16410,note_on,,1,0,5,,,,,,,,,,,,,,,,1,,73,72
16410,note_on,,1,0,14,,,,,,,,,,,,,,,,10,,73,72
16439,note_on,,59,0,12,,,,,,,,,,,,,,,,8,,57,0
16439,note_on,,59,0,11,,,,,,,,,,,,,,,,7,,57,0
16439,note_on,,59,0,17,,,,,,,,,,,,,,,,13,,57,0
16439,note_on,,59,0,10,,,,,,,,,,,,,,,,6,,64,0
16439,note_on,,59,0,18,,,,,,,,,,,,,,,,15,,57,0
16439,note_on,,59,0,15,,,,,,,,,,,,,,,,11,,76,0
16439,note_on,,59,0,16,,,,,,,,,,,,,,,,12,,57,0
16439,note_on,,29,0,9,,,,,,,,,,,,,,,,5,,73,0
16439,note_on,,59,0,6,,,,,,,,,,,,,,,,2,,57,0
16439,note_on,,29,0,5,,,,,,,,,,,,,,,,1,,73,0
16439,note_on,,29,0,14,,,,,,,,,,,,,,,,10,,73,0
16440,note_on,,1,0,17,,,,,,,,,,,,,,,,13,,57,72
16440,note_on,,1,0,10,,,,,,,,,,,,,,,,6,,66,72
16440,note_on,,1,0,12,,,,,,,,,,,,,,,,8,,57,72
16440,note_on,,1,0,15,,,,,,,,,,,,,,,,11,,78,72
16440,note_on,,1,0,9,,,,,,,,,,,,,,,,5,,74,72
16440,note_on,,1,0,18,,,,,,,,,,,,,,,,15,,69,72
16440,note_on,,0,0,18,,,,,,,,,,,,,,,,15,,74,72
16440,note_on,,0,0,18,,,,,,,,,,,,,,,,15,,78,72
16440,note_on,,0,0,18,,,,,,,,,,,,,,,,15,,57,72
16440,note_on,,1,0,14,,,,,,,,,,,,,,,,10,,74,72
16440,note_on,,1,0,5,,,,,,,,,,,,,,,,1,,74,72
16440,note_on,,1,0,6,,,,,,,,,,,,,,,,2,,57,72
16469,note_on,,29,0,14,,,,,,,,,,,,,,,,10,,74,0
16469,note_on,,29,0,5,,,,,,,,,,,,,,,,1,,74,0
16469,note_on,,29,0,9,,,,,,,,,,,,,,,,5,,74,0
16470,note_on,,1,0,14,,,,,,,,,,,,,,,,10,,76,72
16470,note_on,,1,0,5,,,,,,,,,,,,,,,,1,,76,72
16470,note_on,,1,0,9,,,,,,,,,,,,,,,,5,,76,72
16499,note_on,,0,0,18,,,,,,,,,,,,,,,,15,,57,0
16499,note_on,,59,0,17,,,,,,,,,,,,,,,,13,,57,0
16499,note_on,,59,0,12,,,,,,,,,,,,,,,,8,,57,0
16499,note_on,,29,0,14,,,,,,,,,,,,,,,,10,,76,0
16499,note_on,,59,0,10,,,,,,,,,,,,,,,,6,,66,0
16499,note_on,,59,0,15,,,,,,,,,,,,,,,,11,,78,0
16499,note_on,,0,0,18,,,,,,,,,,,,,,,,15,,78,0
16499,note_on,,29,0,9,,,,,,,,,,,,,,,,5,,76,0
16499,note_on,,0,0,18,,,,,,,,,,,,,,,,15,,74,0
16499,note_on,,59,0,18,,,,,,,,,,,,,,,,15,,69,0
16499,note_on,,29,0,5,,,,,,,,,,,,,,,,1,,76,0
16499,note_on,,59,0,6,,,,,,,,,,,,,,,,2,,57,0
16500,note_on,,1,0,17,,,,,,,,,,,,,,,,13,,57,72
16500,note_on,,1,0,5,,,,,,,,,,,,,,,,1,,78,72
16500,note_on,,1,0,12,,,,,,,,,,,,,,,,8,,57,72
16500,note_on,,1,0,6,,,,,,,,,,,,,,,,2,,57,72
16500,note_on,,1,0,10,,,,,,,,,,,,,,,,6,,64,72
16500,note_on,,1,0,15,,,,,,,,,,,,,,,,11,,76,72
16500,note_on,,1,0,9,,,,,,,,,,,,,,,,5,,78,72
16500,note_on,,1,0,14,,,,,,,,,,,,,,,,10,,78,72
16500,note_on,,1,0,18,,,,,,,,,,,,,,,,15,,57,72
16500,note_on,,61,0,16,,,,,,,,,,,,,,,,12,,57,72
16529,note_on,,29,0,10,,,,,,,,,,,,,,,,6,,64,0
16529,note_on,,29,0,15,,,,,,,,,,,,,,,,11,,76,0
16529,note_on,,29,0,14,,,,,,,,,,,,,,,,10,,78,0
16529,note_on,,29,0,9,,,,,,,,,,,,,,,,5,,78,0
16529,note_on,,29,0,5,,,,,,,,,,,,,,,,1,,78,0
16530,note_on,,1,0,10,,,,,,,,,,,,,,,,6,,62,72
16530,note_on,,1,0,15,,,,,,,,,,,,,,,,11,,74,72
16530,note_on,,1,0,5,,,,,,,,,,,,,,,,1,,80,72
16530,note_on,,1,0,14,,,,,,,,,,,,,,,,10,,80,72
16530,note_on,,1,0,9,,,,,,,,,,,,,,,,5,,80,72
16559,note_on,,29,0,14,,,,,,,,,,,,,,,,10,,80,0
16559,note_on,,59,0,16,,,,,,,,,,,,,,,,12,,57,0
16559,note_on,,59,0,17,,,,,,,,,,,,,,,,13,,57,0
16559,note_on,,29,0,15,,,,,,,,,,,,,,,,11,,74,0
16559,note_on,,29,0,10,,,,,,,,,,,,,,,,6,,62,0
16559,note_on,,29,0,5,,,,,,,,,,,,,,,,1,,80,0
16559,note_on,,29,0,9,,,,,,,,,,,,,,,,5,,80,0
16559,note_on,,59,0,6,,,,,,,,,,,,,,,,2,,57,0
16559,note_on,,59,0,18,,,,,,,,,,,,,,,,15,,57,0
16559,note_on,,59,0,12,,,,,,,,,,,,,,,,8,,57,0
16560,note_on,,1,0,9,,,,,,,,,,,,,,,,5,,81,72
16560,note_on,,1,0,16,,,,,,,,,,,,,,,,12,,64,72
16560,note_on,,1,0,10,,,,,,,,,,,,,,,,6,,61,72
16560,note_on,,1,0,12,,,,,,,,,,,,,,,,8,,57,72
16560,note_on,,0,0,18,,,,,,,,,,,,,,,,15,,73,72
16560,note_on,,0,0,18,,,,,,,,,,,,,,,,15,,64,72
16560,note_on,,0,0,18,,,,,,,,,,,,,,,,15,,57,72
16560,note_on,,1,0,18,,,,,,,,,,,,,,,,15,,69,72
16560,note_on,,1,0,6,,,,,,,,,,,,,,,,2,,57,72
16560,note_on,,1,0,17,,,,,,,,,,,,,,,,13,,57,72
16560,note_on,,1,0,5,,,,,,,,,,,,,,,,1,,81,72
16560,note_on,,1,0,15,,,,,,,,,,,,,,,,11,,73,72
16560,note_on,,1,0,14,,,,,,,,,,,,,,,,10,,81,72
16560,note_on,,0,0,18,,,,,,,,,,,,,,,,15,,76,72
16589,note_on,,29,0,16,,,,,,,,,,,,,,,,12,,64,0
16590,note_on,,1,0,16,,,,,,,,,,,,,,,,12,,66,72
16619,note_on,,59,0,17,,,,,,,,,,,,,,,,13,,57,0
16619,note_on,,59,0,10,,,,,,,,,,,,,,,,6,,61,0
16619,note_on,,29,0,16,,,,,,,,,,,,,,,,12,,66,0
16619,note_on,,59,0,5,,,,,,,,,,,,,,,,1,,81,0
16619,note_on,,59,0,14,,,,,,,,,,,,,,,,10,,81,0
16619,note_on,,0,0,18,,,,,,,,,,,,,,,,15,,64,0
16619,note_on,,0,0,18,,,,,,,,,,,,,,,,15,,76,0
16619,note_on,,59,0,18,,,,,,,,,,,,,,,,15,,69,0
16619,note_on,,59,0,9,,,,,,,,,,,,,,,,5,,81,0
16619,note_on,,59,0,12,,,,,,,,,,,,,,,,8,,57,0
16619,note_on,,59,0,6,,,,,,,,,,,,,,,,2,,57,0
16619,note_on,,59,0,15,,,,,,,,,,,,,,,,11,,73,0
16619,note_on,,0,0,18,,,,,,,,,,,,,,,,15,,73,0
16619,note_on,,0,0,18,,,,,,,,,,,,,,,,15,,57,0
16620,note_on,,1,0,5,,,,,,,,,,,,,,,,1,,76,72
16620,note_on,,1,0,10,,,,,,,,,,,,,,,,6,,59,72
16620,note_on,,1,0,17,,,,,,,,,,,,,,,,13,,56,72
16620,note_on,,1,0,12,,,,,,,,,,,,,,,,8,,56,72
16620,note_on,,1,0,15,,,,,,,,,,,,,,,,11,,71,72
16620,note_on,,181,0,11,,,,,,,,,,,,,,,,7,,64,72
16620,note_on,,0,0,18,,,,,,,,,,,,,,,,15,,56,72
16620,note_on,,1,0,9,,,,,,,,,,,,,,,,5,,76,72
16620,note_on,,1,0,6,,,,,,,,,,,,,,,,2,,56,72
16620,note_on,,1,0,14,,,,,,,,,,,,,,,,10,,76,72
16620,note_on,,1,0,16,,,,,,,,,,,,,,,,12,,68,72
16620,note_on,,1,0,18,,,,,,,,,,,,,,,,15,,71,72
16649,note_on,,29,0,12,,,,,,,,,,,,,,,,8,,56,0
16649,note_on,,29,0,16,,,,,,,,,,,,,,,,12,,68,0
16649,note_on,,29,0,6,,,,,,,,,,,,,,,,2,,56,0
16649,note_on,,0,0,18,,,,,,,,,,,,,,,,15,,56,0
16649,note_on,,29,0,18,,,,,,,,,,,,,,,,15,,71,0
16649,note_on,,29,0,17,,,,,,,,,,,,,,,,13,,56,0
16650,note_on,,1,0,16,,,,,,,,,,,,,,,,12,,69,72
16650,note_on,,1,0,12,,,,,,,,,,,,,,,,8,,54,72
16650,note_on,,1,0,18,,,,,,,,,,,,,,,,15,,69,72
16650,note_on,,0,0,18,,,,,,,,,,,,,,,,15,,54,72
16650,note_on,,1,0,17,,,,,,,,,,,,,,,,13,,54,72
16650,note_on,,1,0,6,,,,,,,,,,,,,,,,2,,54,72
16679,note_on,,59,0,15,,,,,,,,,,,,,,,,11,,71,0
16679,note_on,,29,0,6,,,,,,,,,,,,,,,,2,,54,0
16679,note_on,,59,0,14,,,,,,,,,,,,,,,,10,,76,0
16679,note_on,,59,0,10,,,,,,,,,,,,,,,,6,,59,0
16679,note_on,,29,0,16,,,,,,,,,,,,,,,,12,,69,0
16679,note_on,,59,0,11,,,,,,,,,,,,,,,,7,,64,0
16679,note_on,,29,0,12,,,,,,,,,,,,,,,,8,,54,0
16679,note_on,,29,0,17,,,,,,,,,,,,,,,,13,,54,0
16679,note_on,,29,0,18,,,,,,,,,,,,,,,,15,,69,0
16679,note_on,,0,0,18,,,,,,,,,,,,,,,,15,,54,0
16679,note_on,,59,0,5,,,,,,,,,,,,,,,,1,,76,0
16679,note_on,,59,0,9,,,,,,,,,,,,,,,,5,,76,0
16680,note_on,,1,0,11,,,,,,,,,,,,,,,,7,,68,72
16680,note_on,,0,0,18,,,,,,,,,,,,,,,,15,,76,72
16680,note_on,,1,0,6,,,,,,,,,,,,,,,,2,,52,72
16680,note_on,,1,0,18,,,,,,,,,,,,,,,,15,,68,72
16680,note_on,,1,0,17,,,,,,,,,,,,,,,,13,,52,72
16680,note_on,,0,0,18,,,,,,,,,,,,,,,,15,,71,72
16680,note_on,,1,0,14,,,,,,,,,,,,,,,,10,,68,72
16680,note_on,,1,0,12,,,,,,,,,,,,,,,,8,,52,72
16680,note_on,,1,0,16,,,,,,,,,,,,,,,,12,,71,72
16680,note_on,,0,0,18,,,,,,,,,,,,,,,,15,,52,72
16739,note_on,,59,0,16,,,,,,,,,,,,,,,,12,,71,0
16739,note_on,,59,0,6,,,,,,,,,,,,,,,,2,,52,0
16739,note_on,,59,0,11,,,,,,,,,,,,,,,,7,,68,0
16739,note_on,,59,0,12,,,,,,,,,,,,,,,,8,,52,0
16739,note_on,,0,0,18,,,,,,,,,,,,,,,,15,,76,0
16739,note_on,,0,0,18,,,,,,,,,,,,,,,,15,,52,0
16739,note_on,,59,0,17,,,,,,,,,,,,,,,,13,,52,0
16739,note_on,,59,0,14,,,,,,,,,,,,,,,,10,,68,0
16739,note_on,,0,0,18,,,,,,,,,,,,,,,,15,,71,0
16739,note_on,,59,0,18,,,,,,,,,,,,,,,,15,,68,0
16740,note_on,,1,0,14,,,,,,,,,,,,,,,,10,,66,72
16740,note_on,,1,0,11,,,,,,,,,,,,,,,,7,,66,72
16740,note_on,,61,0,10,,,,,,,,,,,,,,,,6,,59,72
16740,note_on,,1,0,12,,,,,,,,,,,,,,,,8,,50,72
16740,note_on,,1,0,18,,,,,,,,,,,,,,,,15,,50,72
16740,note_on,,1,0,6,,,,,,,,,,,,,,,,2,,50,72
16740,note_on,,1,0,17,,,,,,,,,,,,,,,,13,,50,72
16740,note_on,,1,0,16,,,,,,,,,,,,,,,,12,,68,72
16740,note_on,,61,0,15,,,,,,,,,,,,,,,,11,,71,72
16769,note_on,,29,0,11,,,,,,,,,,,,,,,,7,,66,0
16769,note_on,,29,0,14,,,,,,,,,,,,,,,,10,,66,0
16770,note_on,,1,0,14,,,,,,,,,,,,,,,,10,,64,72
16770,note_on,,1,0,11,,,,,,,,,,,,,,,,7,,64,72
16799,note_on,,29,0,14,,,,,,,,,,,,,,,,10,,64,0
16799,note_on,,29,0,11,,,,,,,,,,,,,,,,7,,64,0
16799,note_on,,59,0,16,,,,,,,,,,,,,,,,12,,68,0
16799,note_on,,59,0,17,,,,,,,,,,,,,,,,13,,50,0
16799,note_on,,59,0,15,,,,,,,,,,,,,,,,11,,71,0
16799,note_on,,59,0,12,,,,,,,,,,,,,,,,8,,50,0
16799,note_on,,59,0,6,,,,,,,,,,,,,,,,2,,50,0
16799,note_on,,59,0,10,,,,,,,,,,,,,,,,6,,59,0
16799,note_on,,59,0,18,,,,,,,,,,,,,,,,15,,50,0
16800,note_on,,1,0,12,,,,,,,,,,,,,,,,8,,49,72
16800,note_on,,1,0,11,,,,,,,,,,,,,,,,7,,69,72
16800,note_on,,1,0,10,,,,,,,,,,,,,,,,6,,64,72
16800,note_on,,0,0,18,,,,,,,,,,,,,,,,15,,69,72
16800,note_on,,0,0,18,,,,,,,,,,,,,,,,15,,76,72
16800,note_on,,1,0,15,,,,,,,,,,,,,,,,11,,64,72
16800,note_on,,0,0,18,,,,,,,,,,,,,,,,15,,81,72
16800,note_on,,1,0,18,,,,,,,,,,,,,,,,15,,49,72
16800,note_on,,1,0,16,,,,,,,,,,,,,,,,12,,64,72
16800,note_on,,1,0,6,,,,,,,,,,,,,,,,2,,49,72
16800,note_on,,1,0,14,,,,,,,,,,,,,,,,10,,69,72
16800,note_on,,1,0,17,,,,,,,,,,,,,,,,13,,49,72
16859,note_on,,59,0,15,,,,,,,,,,,,,,,,11,,64,0
16859,note_on,,59,0,18,,,,,,,,,,,,,,,,15,,76,0
16859,note_on,,59,0,14,,,,,,,,,,,,,,,,10,,69,0
16859,note_on,,59,0,10,,,,,,,,,,,,,,,,6,,64,0
16859,note_on,,0,0,18,,,,,,,,,,,,,,,,15,,69,0
16859,note_on,,0,0,18,,,,,,,,,,,,,,,,15,,81,0
16859,note_on,,59,0,11,,,,,,,,,,,,,,,,7,,69,0
16860,note_on,,1,0,15,,,,,,,,,,,,,,,,11,,69,72
16860,note_on,,1,0,14,,,,,,,,,,,,,,,,10,,68,72
16860,note_on,,1,0,10,,,,,,,,,,,,,,,,6,,57,72
16860,note_on,,1,0,11,,,,,,,,,,,,,,,,7,,68,72
16889,note_on,,29,0,14,,,,,,,,,,,,,,,,10,,68,0
16889,note_on,,29,0,11,,,,,,,,,,,,,,,,7,,68,0
16890,note_on,,1,0,11,,,,,,,,,,,,,,,,7,,66,72
16890,note_on,,1,0,14,,,,,,,,,,,,,,,,10,,66,72
16919,note_on,,29,0,11,,,,,,,,,,,,,,,,7,,66,0
16919,note_on,,119,0,17,,,,,,,,,,,,,,,,13,,49,0
16919,note_on,,59,0,10,,,,,,,,,,,,,,,,6,,57,0
16919,note_on,,119,0,16,,,,,,,,,,,,,,,,12,,64,0
16919,note_on,,29,0,14,,,,,,,,,,,,,,,,10,,66,0
16919,note_on,,59,0,15,,,,,,,,,,,,,,,,11,,69,0
16919,note_on,,60,0,18,,,,,,,,,,,,,,,,15,,49,0
16919,note_on,,119,0,6,,,,,,,,,,,,,,,,2,,49,0
16919,note_on,,119,0,12,,,,,,,,,,,,,,,,8,,49,0
16920,note_on,,1,0,14,,,,,,,,,,,,,,,,10,,64,72
16920,note_on,,1,0,11,,,,,,,,,,,,,,,,7,,64,72
16949,note_on,,29,0,14,,,,,,,,,,,,,,,,10,,64,0
16949,note_on,,29,0,11,,,,,,,,,,,,,,,,7,,64,0
16950,note_on,,1,0,11,,,,,,,,,,,,,,,,7,,62,72
16950,note_on,,1,0,14,,,,,,,,,,,,,,,,10,,62,72
16979,note_on,,29,0,14,,,,,,,,,,,,,,,,10,,62,0
16979,note_on,,29,0,11,,,,,,,,,,,,,,,,7,,62,0
16980,note_on,,1,0,14,,,,,,,,,,,,,,,,10,,61,72
16980,note_on,,61,0,18,,,,,,,,,,,,,,,,15,,52,72
16980,note_on,,61,0,6,,,,,,,,,,,,,,,,2,,52,72
16980,note_on,,1,0,11,,,,,,,,,,,,,,,,7,,61,72
16980,note_on,,61,0,12,,,,,,,,,,,,,,,,8,,52,72
16980,note_on,,61,0,17,,,,,,,,,,,,,,,,13,,52,72
17009,note_on,,29,0,14,,,,,,,,,,,,,,,,10,,61,0
17009,note_on,,29,0,11,,,,,,,,,,,,,,,,7,,61,0
17010,note_on,,1,0,14,,,,,,,,,,,,,,,,10,,59,72
17010,note_on,,1,0,11,,,,,,,,,,,,,,,,7,,59,72
17039,note_on,,59,0,12,,,,,,,,,,,,,,,,8,,52,0
17039,note_on,,59,0,18,,,,,,,,,,,,,,,,15,,52,0
17039,note_on,,59,0,17,,,,,,,,,,,,,,,,13,,52,0
17039,note_on,,29,0,11,,,,,,,,,,,,,,,,7,,59,0
17039,note_on,,29,0,14,,,,,,,,,,,,,,,,10,,59,0
17039,note_on,,59,0,6,,,,,,,,,,,,,,,,2,,52,0
17040,note_on,,1,0,14,,,,,,,,,,,,,,,,10,,57,72
17040,note_on,,1,0,18,,,,,,,,,,,,,,,,15,,54,72
17040,note_on,,1,0,6,,,,,,,,,,,,,,,,2,,54,72
17040,note_on,,1,0,11,,,,,,,,,,,,,,,,7,,57,72
17040,note_on,,1,0,17,,,,,,,,,,,,,,,,13,,54,72
17040,note_on,,1,0,12,,,,,,,,,,,,,,,,8,,54,72
17069,note_on,,29,0,6,,,,,,,,,,,,,,,,2,,54,0
17069,note_on,,29,0,17,,,,,,,,,,,,,,,,13,,54,0
17069,note_on,,29,0,12,,,,,,,,,,,,,,,,8,,54,0
17069,note_on,,29,0,18,,,,,,,,,,,,,,,,15,,54,0
17070,note_on,,1,0,17,,,,,,,,,,,,,,,,13,,52,72
17070,note_on,,1,0,6,,,,,,,,,,,,,,,,2,,52,72
17070,note_on,,1,0,12,,,,,,,,,,,,,,,,8,,52,72
17070,note_on,,1,0,18,,,,,,,,,,,,,,,,15,,52,72
17099,note_on,,29,0,18,,,,,,,,,,,,,,,,15,,52,0
17099,note_on,,29,0,12,,,,,,,,,,,,,,,,8,,52,0
17099,note_on,,59,0,11,,,,,,,,,,,,,,,,7,,57,0
17099,note_on,,59,0,14,,,,,,,,,,,,,,,,10,,57,0
17099,note_on,,29,0,17,,,,,,,,,,,,,,,,13,,52,0
17099,note_on,,29,0,6,,,,,,,,,,,,,,,,2,,52,0
17100,note_on,,1,0,6,,,,,,,,,,,,,,,,2,,50,72
17100,note_on,,1,0,11,,,,,,,,,,,,,,,,7,,57,72
17100,note_on,,1,0,12,,,,,,,,,,,,,,,,8,,50,72
17100,note_on,,1,0,18,,,,,,,,,,,,,,,,15,,50,72
17100,note_on,,1,0,17,,,,,,,,,,,,,,,,13,,50,72
17100,note_on,,1,0,14,,,,,,,,,,,,,,,,10,,57,72
17129,note_on,,29,0,6,,,,,,,,,,,,,,,,2,,50,0
17129,note_on,,29,0,12,,,,,,,,,,,,,,,,8,,50,0
17129,note_on,,29,0,17,,,,,,,,,,,,,,,,13,,50,0
17129,note_on,,29,0,18,,,,,,,,,,,,,,,,15,,50,0
17130,note_on,,1,0,17,,,,,,,,,,,,,,,,13,,49,72
17130,note_on,,1,0,18,,,,,,,,,,,,,,,,15,,49,72
17130,note_on,,1,0,12,,,,,,,,,,,,,,,,8,,49,72
17130,note_on,,1,0,6,,,,,,,,,,,,,,,,2,,49,72
17159,note_on,,29,0,18,,,,,,,,,,,,,,,,15,,49,0
17159,note_on,,29,0,6,,,,,,,,,,,,,,,,2,,49,0
17159,note_on,,29,0,17,,,,,,,,,,,,,,,,13,,49,0
17159,note_on,,29,0,12,,,,,,,,,,,,,,,,8,,49,0
17159,note_on,,59,0,14,,,,,,,,,,,,,,,,10,,57,0
17159,note_on,,59,0,11,,,,,,,,,,,,,,,,7,,57,0
17160,note_on,,1,0,17,,,,,,,,,,,,,,,,13,,47,72
17160,note_on,,1,0,12,,,,,,,,,,,,,,,,8,,47,72
17160,note_on,,1,0,6,,,,,,,,,,,,,,,,2,,47,72
17160,note_on,,1,0,18,,,,,,,,,,,,,,,,15,,47,72
17219,note_on,,59,0,6,,,,,,,,,,,,,,,,2,,47,0
17219,note_on,,59,0,18,,,,,,,,,,,,,,,,15,,47,0
17219,note_on,,59,0,12,,,,,,,,,,,,,,,,8,,47,0
17219,note_on,,59,0,17,,,,,,,,,,,,,,,,13,,47,0
17220,note_on,,301,0,15,,,,,,,,,,,,,,,,11,,64,72
17220,note_on,,1,0,18,,,,,,,,,,,,,,,,15,,52,72
17220,note_on,,301,0,16,,,,,,,,,,,,,,,,12,,64,72
17220,note_on,,301,0,10,,,,,,,,,,,,,,,,6,,64,72
17220,note_on,,1,0,6,,,,,,,,,,,,,,,,2,,52,72
17220,note_on,,1,0,17,,,,,,,,,,,,,,,,13,,52,72
17220,note_on,,1,0,12,,,,,,,,,,,,,,,,8,,52,72
17279,note_on,,59,0,16,,,,,,,,,,,,,,,,12,,64,0
17279,note_on,,59,0,18,,,,,,,,,,,,,,,,15,,52,0
17279,note_on,,59,0,17,,,,,,,,,,,,,,,,13,,52,0
17279,note_on,,59,0,6,,,,,,,,,,,,,,,,2,,52,0
17279,note_on,,59,0,15,,,,,,,,,,,,,,,,11,,64,0
17279,note_on,,59,0,10,,,,,,,,,,,,,,,,6,,64,0
17279,note_on,,59,0,12,,,,,,,,,,,,,,,,8,,52,0
17280,note_on,,1,0,16,,,,,,,,,,,,,,,,12,,66,72
17280,note_on,,1,0,10,,,,,,,,,,,,,,,,6,,66,72
17280,note_on,,1,0,6,,,,,,,,,,,,,,,,2,,45,72
17280,note_on,,1,0,15,,,,,,,,,,,,,,,,11,,66,72
17280,note_on,,1,0,17,,,,,,,,,,,,,,,,13,,45,72
17280,note_on,,1,0,18,,,,,,,,,,,,,,,,15,,45,72
17280,note_on,,1,0,12,,,,,,,,,,,,,,,,8,,45,72
17309,note_on,,29,0,10,,,,,,,,,,,,,,,,6,,66,0
17309,note_on,,29,0,16,,,,,,,,,,,,,,,,12,,66,0
17309,note_on,,29,0,15,,,,,,,,,,,,,,,,11,,66,0
17310,note_on,,1,0,10,,,,,,,,,,,,,,,,6,,64,72
17310,note_on,,1,0,15,,,,,,,,,,,,,,,,11,,64,72
17310,note_on,,1,0,16,,,,,,,,,,,,,,,,12,,64,72
17339,note_on,,29,0,15,,,,,,,,,,,,,,,,11,,64,0
17339,note_on,,59,0,17,,,,,,,,,,,,,,,,13,,45,0
17339,note_on,,29,0,10,,,,,,,,,,,,,,,,6,,64,0
17339,note_on,,29,0,16,,,,,,,,,,,,,,,,12,,64,0
17339,note_on,,59,0,6,,,,,,,,,,,,,,,,2,,45,0
17339,note_on,,59,0,12,,,,,,,,,,,,,,,,8,,45,0
17339,note_on,,59,0,18,,,,,,,,,,,,,,,,15,,45,0
17340,note_on,,1,0,15,,,,,,,,,,,,,,,,11,,62,72
17340,note_on,,1,0,6,,,,,,,,,,,,,,,,2,,57,72
17340,note_on,,1,0,17,,,,,,,,,,,,,,,,13,,57,72
17340,note_on,,1,0,16,,,,,,,,,,,,,,,,12,,62,72
17340,note_on,,0,0,18,,,,,,,,,,,,,,,,15,,66,72
17340,note_on,,1,0,10,,,,,,,,,,,,,,,,6,,62,72
17340,note_on,,1,0,12,,,,,,,,,,,,,,,,8,,57,72
17340,note_on,,0,0,18,,,,,,,,,,,,,,,,15,,57,72
17340,note_on,,1,0,18,,,,,,,,,,,,,,,,15,,69,72
17369,note_on,,29,0,10,,,,,,,,,,,,,,,,6,,62,0
17369,note_on,,29,0,16,,,,,,,,,,,,,,,,12,,62,0
17369,note_on,,29,0,15,,,,,,,,,,,,,,,,11,,62,0
17370,note_on,,1,0,16,,,,,,,,,,,,,,,,12,,61,72
17370,note_on,,1,0,10,,,,,,,,,,,,,,,,6,,61,72
17370,note_on,,1,0,15,,,,,,,,,,,,,,,,11,,61,72
17399,note_on,,59,0,18,,,,,,,,,,,,,,,,15,,69,0
17399,note_on,,0,0,18,,,,,,,,,,,,,,,,15,,66,0
17399,note_on,,29,0,16,,,,,,,,,,,,,,,,12,,61,0
17399,note_on,,29,0,10,,,,,,,,,,,,,,,,6,,61,0
17399,note_on,,29,0,15,,,,,,,,,,,,,,,,11,,61,0
17400,note_on,,0,0,18,,,,,,,,,,,,,,,,15,,71,72
17400,note_on,,1,0,18,,,,,,,,,,,,,,,,15,,64,72
17400,note_on,,1,0,16,,,,,,,,,,,,,,,,12,,59,72
17400,note_on,,1,0,10,,,,,,,,,,,,,,,,6,,59,72
17400,note_on,,1,0,15,,,,,,,,,,,,,,,,11,,59,72
17459,note_on,,59,0,18,,,,,,,,,,,,,,,,15,,57,0
17459,note_on,,59,0,16,,,,,,,,,,,,,,,,12,,59,0
17459,note_on,,119,0,17,,,,,,,,,,,,,,,,13,,57,0
17459,note_on,,59,0,10,,,,,,,,,,,,,,,,6,,59,0
17459,note_on,,0,0,18,,,,,,,,,,,,,,,,15,,71,0
17459,note_on,,0,0,18,,,,,,,,,,,,,,,,15,,64,0
17459,note_on,,119,0,6,,,,,,,,,,,,,,,,2,,57,0
17459,note_on,,119,0,12,,,,,,,,,,,,,,,,8,,57,0
17459,note_on,,59,0,15,,,,,,,,,,,,,,,,11,,59,0
17460,note_on,,1,0,16,,,,,,,,,,,,,,,,12,,64,72
17460,note_on,,1,0,10,,,,,,,,,,,,,,,,6,,64,72
17460,note_on,,1,0,17,,,,,,,,,,,,,,,,13,,56,72
17460,note_on,,1,0,6,,,,,,,,,,,,,,,,2,,56,72
17460,note_on,,1,0,15,,,,,,,,,,,,,,,,11,,64,72
17460,note_on,,1,0,12,,,,,,,,,,,,,,,,8,,56,72
17460,note_on,,1,0,18,,,,,,,,,,,,,,,,15,,56,72
17519,note_on,,59,0,10,,,,,,,,,,,,,,,,6,,64,0
17519,note_on,,59,0,15,,,,,,,,,,,,,,,,11,,64,0
17519,note_on,,59,0,16,,,,,,,,,,,,,,,,12,,64,0
17520,note_on,,1,0,16,,,,,,,,,,,,,,,,12,,57,72
17520,note_on,,1,0,10,,,,,,,,,,,,,,,,6,,57,72
17520,note_on,,0,0,18,,,,,,,,,,,,,,,,15,,69,72
17520,note_on,,60,0,18,,,,,,,,,,,,,,,,15,,64,72
17520,note_on,,0,0,18,,,,,,,,,,,,,,,,15,,73,72
17520,note_on,,1,0,15,,,,,,,,,,,,,,,,11,,57,72
17549,note_on,,29,0,16,,,,,,,,,,,,,,,,12,,57,0
17550,note_on,,1,0,16,,,,,,,,,,,,,,,,12,,59,72
17579,note_on,,29,0,16,,,,,,,,,,,,,,,,12,,59,0
17579,note_on,,0,0,18,,,,,,,,,,,,,,,,15,,64,0
17579,note_on,,59,0,10,,,,,,,,,,,,,,,,6,,57,0
17579,note_on,,0,0,18,,,,,,,,,,,,,,,,15,,69,0
17579,note_on,,0,0,18,,,,,,,,,,,,,,,,15,,73,0
17579,note_on,,119,0,12,,,,,,,,,,,,,,,,8,,56,0
17579,note_on,,119,0,6,,,,,,,,,,,,,,,,2,,56,0
17579,note_on,,59,0,18,,,,,,,,,,,,,,,,15,,56,0
17579,note_on,,59,0,15,,,,,,,,,,,,,,,,11,,57,0
17579,note_on,,119,0,17,,,,,,,,,,,,,,,,13,,56,0
17580,note_on,,1,0,6,,,,,,,,,,,,,,,,2,,54,72
17580,note_on,,1,0,15,,,,,,,,,,,,,,,,11,,69,72
17580,note_on,,1,0,17,,,,,,,,,,,,,,,,13,,54,72
17580,note_on,,1,0,18,,,,,,,,,,,,,,,,15,,54,72
17580,note_on,,1,0,12,,,,,,,,,,,,,,,,8,,54,72
17580,note_on,,1,0,16,,,,,,,,,,,,,,,,12,,61,72
17580,note_on,,1,0,10,,,,,,,,,,,,,,,,6,,69,72
17609,note_on,,29,0,16,,,,,,,,,,,,,,,,12,,61,0
17610,note_on,,1,0,16,,,,,,,,,,,,,,,,12,,62,72
17639,note_on,,59,0,12,,,,,,,,,,,,,,,,8,,54,0
17639,note_on,,59,0,17,,,,,,,,,,,,,,,,13,,54,0
17639,note_on,,29,0,16,,,,,,,,,,,,,,,,12,,62,0
17639,note_on,,59,0,18,,,,,,,,,,,,,,,,15,,54,0
17639,note_on,,59,0,6,,,,,,,,,,,,,,,,2,,54,0
17640,note_on,,0,0,18,,,,,,,,,,,,,,,,15,,71,72
17640,note_on,,1,0,18,,,,,,,,,,,,,,,,15,,76,72
17640,note_on,,0,0,18,,,,,,,,,,,,,,,,15,,64,72
17640,note_on,,1,0,16,,,,,,,,,,,,,,,,12,,64,72
17640,note_on,,1,0,12,,,,,,,,,,,,,,,,8,,52,72
17640,note_on,,0,0,18,,,,,,,,,,,,,,,,15,,52,72
17640,note_on,,1,0,6,,,,,,,,,,,,,,,,2,,52,72
17640,note_on,,1,0,17,,,,,,,,,,,,,,,,13,,52,72
17699,note_on,,0,0,18,,,,,,,,,,,,,,,,15,,71,0
17699,note_on,,59,0,18,,,,,,,,,,,,,,,,15,,76,0
17699,note_on,,0,0,18,,,,,,,,,,,,,,,,15,,64,0
17699,note_on,,119,0,10,,,,,,,,,,,,,,,,6,,69,0
17699,note_on,,59,0,16,,,,,,,,,,,,,,,,12,,64,0
17699,note_on,,119,0,15,,,,,,,,,,,,,,,,11,,69,0
17700,note_on,,1021,0,5,,,,,,,,,,,,,,,,1,,76,72
17700,note_on,,1,0,15,,,,,,,,,,,,,,,,11,,68,72
17700,note_on,,1,0,10,,,,,,,,,,,,,,,,6,,68,72
17700,note_on,,1,0,16,,,,,,,,,,,,,,,,12,,64,72
17700,note_on,,1021,0,9,,,,,,,,,,,,,,,,5,,76,72
17700,note_on,,541,0,14,,,,,,,,,,,,,,,,10,,76,72
17729,note_on,,30,0,18,,,,,,,,,,,,,,,,15,,52,0
17729,note_on,,89,0,12,,,,,,,,,,,,,,,,8,,52,0
17729,note_on,,89,0,6,,,,,,,,,,,,,,,,2,,52,0
17729,note_on,,89,0,17,,,,,,,,,,,,,,,,13,,52,0
17730,note_on,,1,0,18,,,,,,,,,,,,,,,,15,,52,72
17730,note_on,,1,0,12,,,,,,,,,,,,,,,,8,,52,72
17730,note_on,,1,0,6,,,,,,,,,,,,,,,,2,,52,72
17730,note_on,,1,0,17,,,,,,,,,,,,,,,,13,,52,72
17759,note_on,,59,0,9,,,,,,,,,,,,,,,,5,,76,0
17759,note_on,,59,0,10,,,,,,,,,,,,,,,,6,,68,0
17759,note_on,,29,0,6,,,,,,,,,,,,,,,,2,,52,0
17759,note_on,,59,0,14,,,,,,,,,,,,,,,,10,,76,0
17759,note_on,,59,0,16,,,,,,,,,,,,,,,,12,,64,0
17759,note_on,,59,0,15,,,,,,,,,,,,,,,,11,,68,0
17759,note_on,,29,0,17,,,,,,,,,,,,,,,,13,,52,0
17759,note_on,,29,0,18,,,,,,,,,,,,,,,,15,,52,0
17759,note_on,,29,0,12,,,,,,,,,,,,,,,,8,,52,0
17759,note_on,,59,0,5,,,,,,,,,,,,,,,,1,,76,0
17760,note_on,,0,0,18,,,,,,,,,,,,,,,,15,,74,72
17760,note_on,,1,0,18,,,,,,,,,,,,,,,,15,,78,72
17760,note_on,,1,0,17,,,,,,,,,,,,,,,,13,,50,72
17760,note_on,,1,0,14,,,,,,,,,,,,,,,,10,,78,72
17760,note_on,,1,0,16,,,,,,,,,,,,,,,,12,,69,72
17760,note_on,,1,0,5,,,,,,,,,,,,,,,,1,,78,72
17760,note_on,,1,0,15,,,,,,,,,,,,,,,,11,,66,72
17760,note_on,,1,0,6,,,,,,,,,,,,,,,,2,,50,72
17760,note_on,,0,0,18,,,,,,,,,,,,,,,,15,,69,72
17760,note_on,,1,0,9,,,,,,,,,,,,,,,,5,,78,72
17760,note_on,,1,0,10,,,,,,,,,,,,,,,,6,,66,72
17760,note_on,,1,0,12,,,,,,,,,,,,,,,,8,,50,72
17760,note_on,,0,0,18,,,,,,,,,,,,,,,,15,,50,72
17789,note_on,,29,0,14,,,,,,,,,,,,,,,,10,,78,0
17789,note_on,,29,0,9,,,,,,,,,,,,,,,,5,,78,0
17789,note_on,,29,0,5,,,,,,,,,,,,,,,,1,,78,0
17790,note_on,,1,0,5,,,,,,,,,,,,,,,,1,,76,72
17790,note_on,,1,0,9,,,,,,,,,,,,,,,,5,,76,72
17790,note_on,,1,0,14,,,,,,,,,,,,,,,,10,,76,72
17819,note_on,,0,0,18,,,,,,,,,,,,,,,,15,,50,0
17819,note_on,,59,0,10,,,,,,,,,,,,,,,,6,,66,0
17819,note_on,,59,0,16,,,,,,,,,,,,,,,,12,,69,0
17819,note_on,,29,0,5,,,,,,,,,,,,,,,,1,,76,0
17819,note_on,,0,0,18,,,,,,,,,,,,,,,,15,,74,0
17819,note_on,,59,0,12,,,,,,,,,,,,,,,,8,,50,0
17819,note_on,,0,0,18,,,,,,,,,,,,,,,,15,,69,0
17819,note_on,,59,0,17,,,,,,,,,,,,,,,,13,,50,0
17819,note_on,,59,0,18,,,,,,,,,,,,,,,,15,,78,0
17819,note_on,,59,0,6,,,,,,,,,,,,,,,,2,,50,0
17819,note_on,,59,0,15,,,,,,,,,,,,,,,,11,,66,0
17819,note_on,,29,0,9,,,,,,,,,,,,,,,,5,,76,0
17819,note_on,,29,0,14,,,,,,,,,,,,,,,,10,,76,0
17820,note_on,,1,0,18,,,,,,,,,,,,,,,,15,,50,72
17820,note_on,,1,0,17,,,,,,,,,,,,,,,,13,,50,72
17820,note_on,,1,0,6,,,,,,,,,,,,,,,,2,,50,72
17820,note_on,,1,0,12,,,,,,,,,,,,,,,,8,,50,72
17820,note_on,,1,0,10,,,,,,,,,,,,,,,,6,,66,72
17820,note_on,,1,0,15,,,,,,,,,,,,,,,,11,,66,72
17820,note_on,,1,0,16,,,,,,,,,,,,,,,,12,,71,72
17820,note_on,,1,0,5,,,,,,,,,,,,,,,,1,,74,72
17820,note_on,,1,0,14,,,,,,,,,,,,,,,,10,,74,72
17820,note_on,,1,0,9,,,,,,,,,,,,,,,,5,,74,72
17849,note_on,,29,0,14,,,,,,,,,,,,,,,,10,,74,0
17849,note_on,,29,0,9,,,,,,,,,,,,,,,,5,,74,0
17849,note_on,,29,0,16,,,,,,,,,,,,,,,,12,,71,0
17849,note_on,,29,0,5,,,,,,,,,,,,,,,,1,,74,0
17850,note_on,,1,0,14,,,,,,,,,,,,,,,,10,,73,72
17850,note_on,,1,0,16,,,,,,,,,,,,,,,,12,,69,72
17850,note_on,,1,0,9,,,,,,,,,,,,,,,,5,,73,72
17850,note_on,,1,0,5,,,,,,,,,,,,,,,,1,,73,72
17879,note_on,,59,0,15,,,,,,,,,,,,,,,,11,,66,0
17879,note_on,,59,0,10,,,,,,,,,,,,,,,,6,,66,0
17879,note_on,,29,0,9,,,,,,,,,,,,,,,,5,,73,0
17879,note_on,,59,0,17,,,,,,,,,,,,,,,,13,,50,0
17879,note_on,,29,0,16,,,,,,,,,,,,,,,,12,,69,0
17879,note_on,,59,0,12,,,,,,,,,,,,,,,,8,,50,0
17879,note_on,,29,0,5,,,,,,,,,,,,,,,,1,,73,0
17879,note_on,,29,0,14,,,,,,,,,,,,,,,,10,,73,0
17879,note_on,,59,0,6,,,,,,,,,,,,,,,,2,,50,0
17879,note_on,,59,0,18,,,,,,,,,,,,,,,,15,,50,0
17880,note_on,,1,0,10,,,,,,,,,,,,,,,,6,,68,72
17880,note_on,,1,0,5,,,,,,,,,,,,,,,,1,,71,72
17880,note_on,,0,0,18,,,,,,,,,,,,,,,,15,,64,72
17880,note_on,,1,0,12,,,,,,,,,,,,,,,,8,,52,72
17880,note_on,,0,0,18,,,,,,,,,,,,,,,,15,,71,72
17880,note_on,,0,0,18,,,,,,,,,,,,,,,,15,,68,72
17880,note_on,,1,0,9,,,,,,,,,,,,,,,,5,,71,72
17880,note_on,,1,0,15,,,,,,,,,,,,,,,,11,,68,72
17880,note_on,,1,0,17,,,,,,,,,,,,,,,,13,,52,72
17880,note_on,,1,0,14,,,,,,,,,,,,,,,,10,,71,72
17880,note_on,,1,0,6,,,,,,,,,,,,,,,,2,,52,72
17880,note_on,,1,0,18,,,,,,,,,,,,,,,,15,,52,72
17880,note_on,,1,0,16,,,,,,,,,,,,,,,,12,,68,72
17909,note_on,,29,0,16,,,,,,,,,,,,,,,,12,,68,0
17910,note_on,,1,0,16,,,,,,,,,,,,,,,,12,,66,72
17939,note_on,,0,0,18,,,,,,,,,,,,,,,,15,,71,0
17939,note_on,,0,0,18,,,,,,,,,,,,,,,,15,,68,0
17939,note_on,,29,0,16,,,,,,,,,,,,,,,,12,,66,0
17939,note_on,,59,0,18,,,,,,,,,,,,,,,,15,,64,0
17939,note_on,,59,0,14,,,,,,,,,,,,,,,,10,,71,0
17939,note_on,,59,0,9,,,,,,,,,,,,,,,,5,,71,0
17939,note_on,,59,0,5,,,,,,,,,,,,,,,,1,,71,0
17940,note_on,,1,0,14,,,,,,,,,,,,,,,,10,,76,72
17940,note_on,,1,0,9,,,,,,,,,,,,,,,,5,,76,72
17940,note_on,,1,0,16,,,,,,,,,,,,,,,,12,,64,72
17940,note_on,,1,0,5,,,,,,,,,,,,,,,,1,,76,72
17969,note_on,,89,0,10,,,,,,,,,,,,,,,,6,,68,0
17969,note_on,,89,0,6,,,,,,,,,,,,,,,,2,,52,0
17969,note_on,,29,0,16,,,,,,,,,,,,,,,,12,,64,0
17969,note_on,,89,0,15,,,,,,,,,,,,,,,,11,,68,0
17969,note_on,,89,0,17,,,,,,,,,,,,,,,,13,,52,0
17969,note_on,,89,0,12,,,,,,,,,,,,,,,,8,,52,0
17969,note_on,,30,0,18,,,,,,,,,,,,,,,,15,,52,0
17970,note_on,,1,0,15,,,,,,,,,,,,,,,,11,,68,72
17970,note_on,,1,0,17,,,,,,,,,,,,,,,,13,,52,72
17970,note_on,,1,0,12,,,,,,,,,,,,,,,,8,,52,72
17970,note_on,,1,0,6,,,,,,,,,,,,,,,,2,,52,72
17970,note_on,,1,0,16,,,,,,,,,,,,,,,,12,,62,72
17970,note_on,,1,0,10,,,,,,,,,,,,,,,,6,,68,72
17970,note_on,,1,0,18,,,,,,,,,,,,,,,,15,,52,72
17999,note_on,,29,0,6,,,,,,,,,,,,,,,,2,,52,0
17999,note_on,,29,0,17,,,,,,,,,,,,,,,,13,,52,0
17999,note_on,,29,0,18,,,,,,,,,,,,,,,,15,,52,0
17999,note_on,,59,0,5,,,,,,,,,,,,,,,,1,,76,0
17999,note_on,,59,0,14,,,,,,,,,,,,,,,,10,,76,0
17999,note_on,,29,0,16,,,,,,,,,,,,,,,,12,,62,0
17999,note_on,,29,0,12,,,,,,,,,,,,,,,,8,,52,0
17999,note_on,,59,0,9,,,,,,,,,,,,,,,,5,,76,0
17999,note_on,,29,0,15,,,,,,,,,,,,,,,,11,,68,0
17999,note_on,,29,0,10,,,,,,,,,,,,,,,,6,,68,0
18000,note_on,,1,0,14,,,,,,,,,,,,,,,,10,,69,72
18000,note_on,,1,0,16,,,,,,,,,,,,,,,,12,,61,72
18000,note_on,,1,0,12,,,,,,,,,,,,,,,,8,,54,72
18000,note_on,,1,0,17,,,,,,,,,,,,,,,,13,,54,72
18000,note_on,,1,0,15,,,,,,,,,,,,,,,,11,,69,72
18000,note_on,,1,0,9,,,,,,,,,,,,,,,,5,,69,72
18000,note_on,,1,0,10,,,,,,,,,,,,,,,,6,,69,72
18000,note_on,,1,0,18,,,,,,,,,,,,,,,,15,,69,72
18000,note_on,,1,0,6,,,,,,,,,,,,,,,,2,,54,72
18000,note_on,,0,0,18,,,,,,,,,,,,,,,,15,,62,72
18000,note_on,,0,0,18,,,,,,,,,,,,,,,,15,,54,72
18000,note_on,,0,0,18,,,,,,,,,,,,,,,,15,,57,72
18000,note_on,,1,0,5,,,,,,,,,,,,,,,,1,,69,72
18059,note_on,,59,0,10,,,,,,,,,,,,,,,,6,,69,0
18059,note_on,,59,0,9,,,,,,,,,,,,,,,,5,,69,0
18059,note_on,,59,0,5,,,,,,,,,,,,,,,,1,,69,0
18059,note_on,,59,0,14,,,,,,,,,,,,,,,,10,,69,0
18059,note_on,,59,0,18,,,,,,,,,,,,,,,,15,,69,0
18059,note_on,,0,0,18,,,,,,,,,,,,,,,,15,,62,0
18059,note_on,,59,0,16,,,,,,,,,,,,,,,,12,,61,0
18059,note_on,,0,0,18,,,,,,,,,,,,,,,,15,,57,0
18059,note_on,,59,0,15,,,,,,,,,,,,,,,,11,,69,0
18060,note_on,,1,0,9,,,,,,,,,,,,,,,,5,,74,72
18060,note_on,,1,0,10,,,,,,,,,,,,,,,,6,,68,72
18060,note_on,,1,0,16,,,,,,,,,,,,,,,,12,,62,72
18060,note_on,,1,0,5,,,,,,,,,,,,,,,,1,,74,72
18060,note_on,,1,0,15,,,,,,,,,,,,,,,,11,,68,72
18060,note_on,,1,0,14,,,,,,,,,,,,,,,,10,,74,72
18089,note_on,,30,0,18,,,,,,,,,,,,,,,,15,,54,0
18089,note_on,,29,0,10,,,,,,,,,,,,,,,,6,,68,0
18089,note_on,,89,0,6,,,,,,,,,,,,,,,,2,,54,0
18089,note_on,,89,0,17,,,,,,,,,,,,,,,,13,,54,0
18089,note_on,,29,0,15,,,,,,,,,,,,,,,,11,,68,0
18089,note_on,,89,0,12,,,,,,,,,,,,,,,,8,,54,0
18090,note_on,,1,0,6,,,,,,,,,,,,,,,,2,,56,72
18090,note_on,,1,0,17,,,,,,,,,,,,,,,,13,,56,72
18090,note_on,,1,0,15,,,,,,,,,,,,,,,,11,,66,72
18090,note_on,,1,0,10,,,,,,,,,,,,,,,,6,,66,72
18090,note_on,,1,0,12,,,,,,,,,,,,,,,,8,,56,72
18090,note_on,,1,0,18,,,,,,,,,,,,,,,,15,,56,72
18119,note_on,,29,0,15,,,,,,,,,,,,,,,,11,,66,0
18119,note_on,,29,0,10,,,,,,,,,,,,,,,,6,,66,0
18119,note_on,,29,0,12,,,,,,,,,,,,,,,,8,,56,0
18119,note_on,,29,0,6,,,,,,,,,,,,,,,,2,,56,0
18119,note_on,,29,0,18,,,,,,,,,,,,,,,,15,,56,0
18119,note_on,,59,0,16,,,,,,,,,,,,,,,,12,,62,0
18119,note_on,,29,0,17,,,,,,,,,,,,,,,,13,,56,0
18120,note_on,,1,0,17,,,,,,,,,,,,,,,,13,,57,72
18120,note_on,,0,0,18,,,,,,,,,,,,,,,,15,,62,72
18120,note_on,,1,0,6,,,,,,,,,,,,,,,,2,,57,72
18120,note_on,,1,0,16,,,,,,,,,,,,,,,,12,,69,72
18120,note_on,,1,0,12,,,,,,,,,,,,,,,,8,,57,72
18120,note_on,,1,0,15,,,,,,,,,,,,,,,,11,,64,72
18120,note_on,,1,0,18,,,,,,,,,,,,,,,,15,,57,72
18120,note_on,,0,0,18,,,,,,,,,,,,,,,,15,,64,72
18120,note_on,,1,0,10,,,,,,,,,,,,,,,,6,,64,72
18179,note_on,,59,0,6,,,,,,,,,,,,,,,,2,,57,0
18179,note_on,,119,0,5,,,,,,,,,,,,,,,,1,,74,0
18179,note_on,,59,0,17,,,,,,,,,,,,,,,,13,,57,0
18179,note_on,,119,0,9,,,,,,,,,,,,,,,,5,,74,0
18179,note_on,,59,0,12,,,,,,,,,,,,,,,,8,,57,0
18179,note_on,,59,0,18,,,,,,,,,,,,,,,,15,,57,0
18179,note_on,,0,0,18,,,,,,,,,,,,,,,,15,,64,0
18179,note_on,,119,0,14,,,,,,,,,,,,,,,,10,,74,0
18179,note_on,,59,0,15,,,,,,,,,,,,,,,,11,,64,0
18179,note_on,,59,0,16,,,,,,,,,,,,,,,,12,,69,0
18179,note_on,,0,0,18,,,,,,,,,,,,,,,,15,,62,0
18179,note_on,,59,0,10,,,,,,,,,,,,,,,,6,,64,0
18180,note_on,,1,0,9,,,,,,,,,,,,,,,,5,,73,72
18180,note_on,,1,0,14,,,,,,,,,,,,,,,,10,,73,72
18180,note_on,,1,0,15,,,,,,,,,,,,,,,,11,,76,72
18180,note_on,,1021,0,11,,,,,,,,,,,,,,,,7,,64,72
18180,note_on,,1,0,12,,,,,,,,,,,,,,,,8,,57,72
18180,note_on,,1,0,5,,,,,,,,,,,,,,,,1,,73,72
18180,note_on,,1,0,6,,,,,,,,,,,,,,,,2,,57,72
18180,note_on,,1,0,18,,,,,,,,,,,,,,,,15,,61,72
18180,note_on,,0,0,18,,,,,,,,,,,,,,,,15,,64,72
18180,note_on,,0,0,18,,,,,,,,,,,,,,,,15,,57,72
18180,note_on,,0,0,18,,,,,,,,,,,,,,,,15,,69,72
18180,note_on,,1,0,16,,,,,,,,,,,,,,,,12,,69,72
18180,note_on,,1,0,10,,,,,,,,,,,,,,,,6,,69,72
18180,note_on,,1,0,17,,,,,,,,,,,,,,,,13,,57,72
18239,note_on,,59,0,9,,,,,,,,,,,,,,,,5,,73,0
18239,note_on,,59,0,15,,,,,,,,,,,,,,,,11,,76,0
18239,note_on,,0,0,18,,,,,,,,,,,,,,,,15,,57,0
18239,note_on,,59,0,11,,,,,,,,,,,,,,,,7,,64,0
18239,note_on,,59,0,17,,,,,,,,,,,,,,,,13,,57,0
18239,note_on,,59,0,18,,,,,,,,,,,,,,,,15,,61,0
18239,note_on,,0,0,18,,,,,,,,,,,,,,,,15,,64,0
18239,note_on,,0,0,18,,,,,,,,,,,,,,,,15,,69,0
18239,note_on,,59,0,10,,,,,,,,,,,,,,,,6,,69,0
18239,note_on,,59,0,12,,,,,,,,,,,,,,,,8,,57,0
18239,note_on,,59,0,5,,,,,,,,,,,,,,,,1,,73,0
18239,note_on,,59,0,14,,,,,,,,,,,,,,,,10,,73,0
18239,note_on,,59,0,16,,,,,,,,,,,,,,,,12,,69,0
18239,note_on,,59,0,6,,,,,,,,,,,,,,,,2,,57,0
18240,note_on,,1,0,10,,,,,,,,,,,,,,,,6,,69,72
18240,note_on,,1,0,9,,,,,,,,,,,,,,,,5,,71,72
18240,note_on,,1,0,14,,,,,,,,,,,,,,,,10,,71,72
18240,note_on,,1,0,15,,,,,,,,,,,,,,,,11,,78,72
18240,note_on,,1,0,11,,,,,,,,,,,,,,,,7,,66,72
18240,note_on,,1,0,17,,,,,,,,,,,,,,,,13,,50,72
18240,note_on,,1,0,5,,,,,,,,,,,,,,,,1,,71,72
18240,note_on,,1,0,18,,,,,,,,,,,,,,,,15,,66,72
18240,note_on,,0,0,18,,,,,,,,,,,,,,,,15,,50,72
18240,note_on,,0,0,18,,,,,,,,,,,,,,,,15,,69,72
18240,note_on,,0,0,18,,,,,,,,,,,,,,,,15,,59,72
18240,note_on,,1,0,12,,,,,,,,,,,,,,,,8,,50,72
18240,note_on,,1,0,16,,,,,,,,,,,,,,,,12,,69,72
18240,note_on,,1,0,6,,,,,,,,,,,,,,,,2,,50,72
18269,note_on,,29,0,15,,,,,,,,,,,,,,,,11,,78,0
18269,note_on,,29,0,11,,,,,,,,,,,,,,,,7,,66,0
18270,note_on,,1,0,15,,,,,,,,,,,,,,,,11,,76,72
18270,note_on,,1,0,11,,,,,,,,,,,,,,,,7,,64,72
18299,note_on,,59,0,14,,,,,,,,,,,,,,,,10,,71,0
18299,note_on,,29,0,15,,,,,,,,,,,,,,,,11,,76,0
18299,note_on,,29,0,11,,,,,,,,,,,,,,,,7,,64,0
18299,note_on,,59,0,16,,,,,,,,,,,,,,,,12,,69,0
18300,note_on,,1,0,14,,,,,,,,,,,,,,,,10,,83,72
18300,note_on,,1,0,16,,,,,,,,,,,,,,,,12,,66,72
18300,note_on,,1,0,15,,,,,,,,,,,,,,,,11,,74,72
18300,note_on,,1,0,11,,,,,,,,,,,,,,,,7,,62,72
18329,note_on,,29,0,11,,,,,,,,,,,,,,,,7,,62,0
18329,note_on,,29,0,14,,,,,,,,,,,,,,,,10,,83,0
18329,note_on,,29,0,15,,,,,,,,,,,,,,,,11,,74,0
18330,note_on,,1,0,15,,,,,,,,,,,,,,,,11,,73,72
18330,note_on,,1,0,11,,,,,,,,,,,,,,,,7,,61,72
18330,note_on,,1,0,14,,,,,,,,,,,,,,,,10,,81,72
18359,note_on,,0,0,18,,,,,,,,,,,,,,,,15,,59,0
18359,note_on,,0,0,18,,,,,,,,,,,,,,,,15,,69,0
18359,note_on,,0,0,18,,,,,,,,,,,,,,,,15,,50,0
18359,note_on,,119,0,18,,,,,,,,,,,,,,,,15,,66,0
18359,note_on,,119,0,6,,,,,,,,,,,,,,,,2,,50,0
18359,note_on,,119,0,9,,,,,,,,,,,,,,,,5,,71,0
18359,note_on,,29,0,14,,,,,,,,,,,,,,,,10,,81,0
18359,note_on,,119,0,12,,,,,,,,,,,,,,,,8,,50,0
18359,note_on,,119,0,5,,,,,,,,,,,,,,,,1,,71,0
18359,note_on,,119,0,10,,,,,,,,,,,,,,,,6,,69,0
18359,note_on,,29,0,11,,,,,,,,,,,,,,,,7,,61,0
18359,note_on,,29,0,15,,,,,,,,,,,,,,,,11,,73,0
18359,note_on,,119,0,17,,,,,,,,,,,,,,,,13,,50,0
18359,note_on,,59,0,16,,,,,,,,,,,,,,,,12,,66,0
18360,note_on,,1,0,5,,,,,,,,,,,,,,,,1,,71,72
18360,note_on,,1,0,9,,,,,,,,,,,,,,,,5,,71,72
18360,note_on,,1,0,6,,,,,,,,,,,,,,,,2,,52,72
18360,note_on,,1,0,11,,,,,,,,,,,,,,,,7,,59,72
18360,note_on,,1,0,15,,,,,,,,,,,,,,,,11,,71,72
18360,note_on,,1,0,14,,,,,,,,,,,,,,,,10,,80,72
18360,note_on,,1,0,12,,,,,,,,,,,,,,,,8,,52,72
18360,note_on,,1,0,16,,,,,,,,,,,,,,,,12,,68,72
18360,note_on,,1,0,18,,,,,,,,,,,,,,,,15,,64,72
18360,note_on,,1,0,10,,,,,,,,,,,,,,,,6,,68,72
18360,note_on,,1,0,17,,,,,,,,,,,,,,,,13,,52,72
18360,note_on,,0,0,18,,,,,,,,,,,,,,,,15,,68,72
18360,note_on,,0,0,18,,,,,,,,,,,,,,,,15,,52,72
18360,note_on,,0,0,18,,,,,,,,,,,,,,,,15,,59,72
18389,note_on,,29,0,14,,,,,,,,,,,,,,,,10,,80,0
18390,note_on,,1,0,14,,,,,,,,,,,,,,,,10,,78,72
18419,note_on,,59,0,16,,,,,,,,,,,,,,,,12,,68,0
18419,note_on,,59,0,10,,,,,,,,,,,,,,,,6,,68,0
18419,note_on,,59,0,18,,,,,,,,,,,,,,,,15,,52,0
18419,note_on,,29,0,14,,,,,,,,,,,,,,,,10,,78,0
18419,note_on,,59,0,11,,,,,,,,,,,,,,,,7,,59,0
18419,note_on,,59,0,9,,,,,,,,,,,,,,,,5,,71,0
18419,note_on,,59,0,5,,,,,,,,,,,,,,,,1,,71,0
18419,note_on,,59,0,12,,,,,,,,,,,,,,,,8,,52,0
18419,note_on,,59,0,6,,,,,,,,,,,,,,,,2,,52,0
18419,note_on,,59,0,15,,,,,,,,,,,,,,,,11,,71,0
18419,note_on,,59,0,17,,,,,,,,,,,,,,,,13,,52,0
18420,note_on,,1,0,12,,,,,,,,,,,,,,,,8,,52,72
18420,note_on,,1,0,17,,,,,,,,,,,,,,,,13,,52,72
18420,note_on,,1,0,11,,,,,,,,,,,,,,,,7,,64,72
18420,note_on,,1,0,18,,,,,,,,,,,,,,,,15,,52,72
18420,note_on,,1,0,6,,,,,,,,,,,,,,,,2,,52,72
18420,note_on,,1,0,5,,,,,,,,,,,,,,,,1,,71,72
18420,note_on,,1,0,14,,,,,,,,,,,,,,,,10,,76,72
18420,note_on,,1,0,10,,,,,,,,,,,,,,,,6,,68,72
18420,note_on,,1,0,15,,,,,,,,,,,,,,,,11,,76,72
18420,note_on,,1,0,9,,,,,,,,,,,,,,,,5,,71,72
18420,note_on,,1,0,16,,,,,,,,,,,,,,,,12,,68,72
18449,note_on,,29,0,14,,,,,,,,,,,,,,,,10,,76,0
18450,note_on,,1,0,14,,,,,,,,,,,,,,,,10,,74,72
18479,note_on,,59,0,18,,,,,,,,,,,,,,,,15,,64,0
18479,note_on,,59,0,16,,,,,,,,,,,,,,,,12,,68,0
18479,note_on,,59,0,15,,,,,,,,,,,,,,,,11,,76,0
18479,note_on,,59,0,5,,,,,,,,,,,,,,,,1,,71,0
18479,note_on,,0,0,18,,,,,,,,,,,,,,,,15,,59,0
18479,note_on,,0,0,18,,,,,,,,,,,,,,,,15,,52,0
18479,note_on,,59,0,12,,,,,,,,,,,,,,,,8,,52,0
18479,note_on,,59,0,11,,,,,,,,,,,,,,,,7,,64,0
18479,note_on,,59,0,6,,,,,,,,,,,,,,,,2,,52,0
18479,note_on,,29,0,14,,,,,,,,,,,,,,,,10,,74,0
18479,note_on,,59,0,10,,,,,,,,,,,,,,,,6,,68,0
18479,note_on,,59,0,9,,,,,,,,,,,,,,,,5,,71,0
18479,note_on,,0,0,18,,,,,,,,,,,,,,,,15,,68,0
18479,note_on,,59,0,17,,,,,,,,,,,,,,,,13,,52,0
18480,note_on,,1,0,16,,,,,,,,,,,,,,,,12,,69,72
18480,note_on,,1,0,11,,,,,,,,,,,,,,,,7,,64,72
18480,note_on,,1,0,9,,,,,,,,,,,,,,,,5,,73,72
18480,note_on,,1,0,14,,,,,,,,,,,,,,,,10,,73,72
18480,note_on,,1,0,15,,,,,,,,,,,,,,,,11,,76,72
18480,note_on,,1,0,5,,,,,,,,,,,,,,,,1,,73,72
18480,note_on,,1,0,10,,,,,,,,,,,,,,,,6,,69,72
18480,note_on,,1,0,12,,,,,,,,,,,,,,,,8,,45,72
18480,note_on,,1,0,18,,,,,,,,,,,,,,,,15,,66,72
18480,note_on,,0,0,18,,,,,,,,,,,,,,,,15,,69,72
18480,note_on,,1,0,6,,,,,,,,,,,,,,,,2,,45,72
18480,note_on,,1,0,17,,,,,,,,,,,,,,,,13,,45,72
18480,note_on,,0,0,18,,,,,,,,,,,,,,,,15,,61,72
18480,note_on,,0,0,18,,,,,,,,,,,,,,,,15,,45,72
18599,note_on,,0,0,18,,,,,,,,,,,,,,,,15,,45,0
18599,note_on,,0,0,18,,,,,,,,,,,,,,,,15,,61,0
18599,note_on,,0,0,18,,,,,,,,,,,,,,,,15,,69,0
18599,note_on,,119,0,17,,,,,,,,,,,,,,,,13,,45,0
18599,note_on,,119,0,16,,,,,,,,,,,,,,,,12,,69,0
18599,note_on,,119,0,15,,,,,,,,,,,,,,,,11,,76,0
18599,note_on,,119,0,18,,,,,,,,,,,,,,,,15,,66,0
18599,note_on,,119,0,10,,,,,,,,,,,,,,,,6,,69,0
18599,note_on,,119,0,9,,,,,,,,,,,,,,,,5,,73,0
18599,note_on,,119,0,14,,,,,,,,,,,,,,,,10,,73,0
18599,note_on,,119,0,11,,,,,,,,,,,,,,,,7,,64,0
18599,note_on,,119,0,6,,,,,,,,,,,,,,,,2,,45,0
18599,note_on,,119,0,5,,,,,,,,,,,,,,,,1,,73,0
18599,note_on,,119,0,12,,,,,,,,,,,,,,,,8,,45,0
18600,note_on,,1,0,18,,,,,,,,,,,,,,,,15,,57,72
18600,note_on,,1,0,17,,,,,,,,,,,,,,,,13,,57,72
18600,note_on,,1,0,6,,,,,,,,,,,,,,,,2,,57,72
18600,note_on,,1,0,12,,,,,,,,,,,,,,,,8,,57,72
18659,note_on,,59,0,12,,,,,,,,,,,,,,,,8,,57,0
18659,note_on,,59,0,18,,,,,,,,,,,,,,,,15,,57,0
18659,note_on,,59,0,6,,,,,,,,,,,,,,,,2,,57,0
18659,note_on,,59,0,17,,,,,,,,,,,,,,,,13,,57,0
18660,note_on,,1,0,18,,,,,,,,,,,,,,,,15,,59,72
18660,note_on,,1,0,6,,,,,,,,,,,,,,,,2,,59,72
18660,note_on,,1,0,12,,,,,,,,,,,,,,,,8,,59,72
18660,note_on,,1,0,17,,,,,,,,,,,,,,,,13,,59,72
18689,note_on,,29,0,18,,,,,,,,,,,,,,,,15,,59,0
18689,note_on,,29,0,17,,,,,,,,,,,,,,,,13,,59,0
18689,note_on,,29,0,12,,,,,,,,,,,,,,,,8,,59,0
18689,note_on,,29,0,6,,,,,,,,,,,,,,,,2,,59,0
18690,note_on,,1,0,12,,,,,,,,,,,,,,,,8,,61,72
18690,note_on,,1,0,18,,,,,,,,,,,,,,,,15,,61,72
18690,note_on,,1,0,17,,,,,,,,,,,,,,,,13,,61,72
18690,note_on,,1,0,6,,,,,,,,,,,,,,,,2,,61,72
18719,note_on,,29,0,18,,,,,,,,,,,,,,,,15,,61,0
18719,note_on,,29,0,12,,,,,,,,,,,,,,,,8,,61,0
18719,note_on,,29,0,6,,,,,,,,,,,,,,,,2,,61,0
18719,note_on,,29,0,17,,,,,,,,,,,,,,,,13,,61,0
18720,note_on,,1,0,17,,,,,,,,,,,,,,,,13,,62,72
18720,note_on,,1,0,12,,,,,,,,,,,,,,,,8,,62,72
18720,note_on,,1,0,6,,,,,,,,,,,,,,,,2,,62,72
18720,note_on,,1,0,18,,,,,,,,,,,,,,,,15,,62,72
18779,note_on,,59,0,6,,,,,,,,,,,,,,,,2,,62,0
18779,note_on,,59,0,12,,,,,,,,,,,,,,,,8,,62,0
18779,note_on,,59,0,18,,,,,,,,,,,,,,,,15,,62,0
18779,note_on,,59,0,17,,,,,,,,,,,,,,,,13,,62,0
18780,note_on,,1,0,17,,,,,,,,,,,,,,,,13,,62,72
18780,note_on,,1,0,12,,,,,,,,,,,,,,,,8,,62,72
18780,note_on,,1,0,18,,,,,,,,,,,,,,,,15,,62,72
18780,note_on,,1,0,6,,,,,,,,,,,,,,,,2,,62,72
18839,note_on,,59,0,17,,,,,,,,,,,,,,,,13,,62,0
18839,note_on,,59,0,6,,,,,,,,,,,,,,,,2,,62,0
18839,note_on,,59,0,18,,,,,,,,,,,,,,,,15,,62,0
18839,note_on,,59,0,12,,,,,,,,,,,,,,,,8,,62,0
18840,note_on,,0,0,18,,,,,,,,,,,,,,,,15,,69,72
18840,note_on,,0,0,18,,,,,,,,,,,,,,,,15,,62,72
18840,note_on,,1,0,18,,,,,,,,,,,,,,,,15,,66,72
18840,note_on,,241,0,15,,,,,,,,,,,,,,,,11,,74,72
18840,note_on,,1,0,6,,,,,,,,,,,,,,,,2,,62,72
18840,note_on,,1,0,12,,,,,,,,,,,,,,,,8,,62,72
18840,note_on,,241,0,10,,,,,,,,,,,,,,,,6,,62,72
18840,note_on,,1,0,17,,,,,,,,,,,,,,,,13,,62,72
18899,note_on,,59,0,17,,,,,,,,,,,,,,,,13,,62,0
18899,note_on,,59,0,18,,,,,,,,,,,,,,,,15,,66,0
18899,note_on,,59,0,6,,,,,,,,,,,,,,,,2,,62,0
18899,note_on,,59,0,15,,,,,,,,,,,,,,,,11,,74,0
18899,note_on,,0,0,18,,,,,,,,,,,,,,,,15,,62,0
18899,note_on,,59,0,10,,,,,,,,,,,,,,,,6,,62,0
18899,note_on,,59,0,12,,,,,,,,,,,,,,,,8,,62,0
18899,note_on,,0,0,18,,,,,,,,,,,,,,,,15,,69,0
18900,note_on,,1,0,18,,,,,,,,,,,,,,,,15,,62,72
18900,note_on,,1,0,6,,,,,,,,,,,,,,,,2,,62,72
18900,note_on,,1,0,17,,,,,,,,,,,,,,,,13,,62,72
18900,note_on,,1,0,10,,,,,,,,,,,,,,,,6,,66,72
18900,note_on,,1,0,15,,,,,,,,,,,,,,,,11,,78,72
18900,note_on,,1,0,12,,,,,,,,,,,,,,,,8,,62,72
18929,note_on,,29,0,15,,,,,,,,,,,,,,,,11,,78,0
18929,note_on,,29,0,10,,,,,,,,,,,,,,,,6,,66,0
18930,note_on,,1,0,10,,,,,,,,,,,,,,,,6,,67,72
18930,note_on,,1,0,15,,,,,,,,,,,,,,,,11,,79,72
18959,note_on,,59,0,17,,,,,,,,,,,,,,,,13,,62,0
18959,note_on,,29,0,15,,,,,,,,,,,,,,,,11,,79,0
18959,note_on,,59,0,18,,,,,,,,,,,,,,,,15,,62,0
18959,note_on,,29,0,10,,,,,,,,,,,,,,,,6,,67,0
18959,note_on,,59,0,12,,,,,,,,,,,,,,,,8,,62,0
18959,note_on,,59,0,6,,,,,,,,,,,,,,,,2,,62,0
18960,note_on,,0,0,18,,,,,,,,,,,,,,,,15,,69,72
18960,note_on,,0,0,18,,,,,,,,,,,,,,,,15,,76,72
18960,note_on,,0,0,18,,,,,,,,,,,,,,,,15,,64,72
18960,note_on,,1,0,15,,,,,,,,,,,,,,,,11,,81,72
18960,note_on,,1,0,12,,,,,,,,,,,,,,,,8,,62,72
18960,note_on,,1,0,6,,,,,,,,,,,,,,,,2,,62,72
18960,note_on,,1,0,18,,,,,,,,,,,,,,,,15,,62,72
18960,note_on,,1,0,17,,,,,,,,,,,,,,,,13,,62,72
18960,note_on,,1,0,10,,,,,,,,,,,,,,,,6,,69,72
19019,note_on,,0,0,18,,,,,,,,,,,,,,,,15,,69,0
19019,note_on,,59,0,15,,,,,,,,,,,,,,,,11,,81,0
19019,note_on,,59,0,6,,,,,,,,,,,,,,,,2,,62,0
19019,note_on,,59,0,17,,,,,,,,,,,,,,,,13,,62,0
19019,note_on,,0,0,18,,,,,,,,,,,,,,,,15,,76,0
19019,note_on,,0,0,18,,,,,,,,,,,,,,,,15,,64,0
19019,note_on,,59,0,10,,,,,,,,,,,,,,,,6,,69,0
19019,note_on,,59,0,12,,,,,,,,,,,,,,,,8,,62,0
19019,note_on,,59,0,18,,,,,,,,,,,,,,,,15,,62,0
19020,note_on,,1,0,6,,,,,,,,,,,,,,,,2,,61,72
19020,note_on,,1,0,17,,,,,,,,,,,,,,,,13,,61,72
19020,note_on,,1,0,15,,,,,,,,,,,,,,,,11,,81,72
19020,note_on,,1,0,18,,,,,,,,,,,,,,,,15,,61,72
19020,note_on,,1,0,10,,,,,,,,,,,,,,,,6,,69,72
19020,note_on,,1,0,12,,,,,,,,,,,,,,,,8,,61,72
19049,note_on,,29,0,17,,,,,,,,,,,,,,,,13,,61,0
19049,note_on,,29,0,12,,,,,,,,,,,,,,,,8,,61,0
19049,note_on,,29,0,6,,,,,,,,,,,,,,,,2,,61,0
19049,note_on,,29,0,18,,,,,,,,,,,,,,,,15,,61,0
19050,note_on,,1,0,17,,,,,,,,,,,,,,,,13,,59,72
19050,note_on,,1,0,6,,,,,,,,,,,,,,,,2,,59,72
19050,note_on,,1,0,12,,,,,,,,,,,,,,,,8,,59,72
19050,note_on,,1,0,18,,,,,,,,,,,,,,,,15,,59,72
19079,note_on,,59,0,15,,,,,,,,,,,,,,,,11,,81,0
19079,note_on,,29,0,17,,,,,,,,,,,,,,,,13,,59,0
19079,note_on,,59,0,10,,,,,,,,,,,,,,,,6,,69,0
19079,note_on,,29,0,12,,,,,,,,,,,,,,,,8,,59,0
19079,note_on,,29,0,6,,,,,,,,,,,,,,,,2,,59,0
19079,note_on,,29,0,18,,,,,,,,,,,,,,,,15,,59,0
19080,note_on,,1,0,10,,,,,,,,,,,,,,,,6,,69,72
19080,note_on,,481,0,14,,,,,,,,,,,,,,,,10,,81,72
19080,note_on,,1,0,17,,,,,,,,,,,,,,,,13,,57,72
19080,note_on,,0,0,18,,,,,,,,,,,,,,,,15,,57,72
19080,note_on,,0,0,18,,,,,,,,,,,,,,,,15,,69,72
19080,note_on,,1,0,15,,,,,,,,,,,,,,,,11,,81,72
19080,note_on,,0,0,18,,,,,,,,,,,,,,,,15,,64,72
19080,note_on,,1,0,12,,,,,,,,,,,,,,,,8,,57,72
19080,note_on,,481,0,5,,,,,,,,,,,,,,,,1,,69,72
19080,note_on,,1,0,18,,,,,,,,,,,,,,,,15,,73,72
19080,note_on,,481,0,9,,,,,,,,,,,,,,,,5,,69,72
19080,note_on,,1,0,6,,,,,,,,,,,,,,,,2,,57,72
19139,note_on,,0,0,18,,,,,,,,,,,,,,,,15,,57,0
19139,note_on,,59,0,9,,,,,,,,,,,,,,,,5,,69,0
19139,note_on,,0,0,18,,,,,,,,,,,,,,,,15,,64,0
19139,note_on,,0,0,18,,,,,,,,,,,,,,,,15,,69,0
19139,note_on,,59,0,5,,,,,,,,,,,,,,,,1,,69,0
19139,note_on,,59,0,17,,,,,,,,,,,,,,,,13,,57,0
19139,note_on,,59,0,18,,,,,,,,,,,,,,,,15,,73,0
19139,note_on,,59,0,14,,,,,,,,,,,,,,,,10,,81,0
19139,note_on,,59,0,15,,,,,,,,,,,,,,,,11,,81,0
19139,note_on,,59,0,10,,,,,,,,,,,,,,,,6,,69,0
19139,note_on,,59,0,6,,,,,,,,,,,,,,,,2,,57,0
19139,note_on,,59,0,12,,,,,,,,,,,,,,,,8,,57,0
19140,note_on,,1,0,18,,,,,,,,,,,,,,,,15,,55,72
19140,note_on,,1,0,6,,,,,,,,,,,,,,,,2,,55,72
19140,note_on,,1,0,17,,,,,,,,,,,,,,,,13,,55,72
19140,note_on,,1,0,10,,,,,,,,,,,,,,,,6,,69,72
19140,note_on,,1,0,12,,,,,,,,,,,,,,,,8,,55,72
19140,note_on,,1,0,5,,,,,,,,,,,,,,,,1,,71,72
19140,note_on,,1,0,15,,,,,,,,,,,,,,,,11,,81,72
19140,note_on,,1,0,14,,,,,,,,,,,,,,,,10,,83,72
19140,note_on,,1,0,9,,,,,,,,,,,,,,,,5,,71,72
19169,note_on,,29,0,5,,,,,,,,,,,,,,,,1,,71,0
19169,note_on,,29,0,14,,,,,,,,,,,,,,,,10,,83,0
19169,note_on,,29,0,9,,,,,,,,,,,,,,,,5,,71,0
19170,note_on,,1,0,9,,,,,,,,,,,,,,,,5,,73,72
19170,note_on,,1,0,14,,,,,,,,,,,,,,,,10,,85,72
19170,note_on,,1,0,5,,,,,,,,,,,,,,,,1,,73,72
19199,note_on,,59,0,15,,,,,,,,,,,,,,,,11,,81,0
19199,note_on,,59,0,18,,,,,,,,,,,,,,,,15,,55,0
19199,note_on,,59,0,10,,,,,,,,,,,,,,,,6,,69,0
19199,note_on,,29,0,5,,,,,,,,,,,,,,,,1,,73,0
19199,note_on,,29,0,14,,,,,,,,,,,,,,,,10,,85,0
19199,note_on,,59,0,12,,,,,,,,,,,,,,,,8,,55,0
19199,note_on,,59,0,6,,,,,,,,,,,,,,,,2,,55,0
19199,note_on,,59,0,17,,,,,,,,,,,,,,,,13,,55,0
19199,note_on,,29,0,9,,,,,,,,,,,,,,,,5,,73,0
19200,note_on,,1,0,9,,,,,,,,,,,,,,,,5,,74,72
19200,note_on,,1,0,12,,,,,,,,,,,,,,,,8,,54,72
19200,note_on,,1,0,6,,,,,,,,,,,,,,,,2,,54,72
19200,note_on,,1,0,17,,,,,,,,,,,,,,,,13,,54,72
19200,note_on,,1,0,14,,,,,,,,,,,,,,,,10,,86,72
19200,note_on,,1,0,15,,,,,,,,,,,,,,,,11,,81,72
19200,note_on,,0,0,18,,,,,,,,,,,,,,,,15,,54,72
19200,note_on,,0,0,18,,,,,,,,,,,,,,,,15,,69,72
19200,note_on,,0,0,18,,,,,,,,,,,,,,,,15,,74,72
19200,note_on,,1,0,10,,,,,,,,,,,,,,,,6,,69,72
19200,note_on,,1,0,5,,,,,,,,,,,,,,,,1,,74,72
19200,note_on,,1,0,18,,,,,,,,,,,,,,,,15,,66,72
19259,note_on,,59,0,9,,,,,,,,,,,,,,,,5,,74,0
19259,note_on,,59,0,15,,,,,,,,,,,,,,,,11,,81,0
19259,note_on,,59,0,10,,,,,,,,,,,,,,,,6,,69,0
19259,note_on,,59,0,5,,,,,,,,,,,,,,,,1,,74,0
19259,note_on,,59,0,14,,,,,,,,,,,,,,,,10,,86,0
19260,note_on,,1,0,15,,,,,,,,,,,,,,,,11,,79,72
19260,note_on,,1,0,10,,,,,,,,,,,,,,,,6,,67,72
19260,note_on,,1,0,5,,,,,,,,,,,,,,,,1,,74,72
19260,note_on,,1,0,14,,,,,,,,,,,,,,,,10,,86,72
19260,note_on,,1,0,9,,,,,,,,,,,,,,,,5,,74,72
19289,note_on,,29,0,15,,,,,,,,,,,,,,,,11,,79,0
19289,note_on,,29,0,10,,,,,,,,,,,,,,,,6,,67,0
19290,note_on,,1,0,15,,,,,,,,,,,,,,,,11,,78,72
19290,note_on,,1,0,10,,,,,,,,,,,,,,,,6,,66,72
19319,note_on,,59,0,5,,,,,,,,,,,,,,,,1,,74,0
19319,note_on,,119,0,12,,,,,,,,,,,,,,,,8,,54,0
19319,note_on,,119,0,6,,,,,,,,,,,,,,,,2,,54,0
19319,note_on,,29,0,15,,,,,,,,,,,,,,,,11,,78,0
19319,note_on,,59,0,9,,,,,,,,,,,,,,,,5,,74,0
19319,note_on,,119,0,17,,,,,,,,,,,,,,,,13,,54,0
19319,note_on,,0,0,18,,,,,,,,,,,,,,,,15,,74,0
19319,note_on,,0,0,18,,,,,,,,,,,,,,,,15,,69,0
19319,note_on,,59,0,14,,,,,,,,,,,,,,,,10,,86,0
19319,note_on,,119,0,18,,,,,,,,,,,,,,,,15,,66,0
19319,note_on,,0,0,18,,,,,,,,,,,,,,,,15,,54,0
19319,note_on,,29,0,10,,,,,,,,,,,,,,,,6,,66,0
19320,note_on,,1,0,9,,,,,,,,,,,,,,,,5,,74,72
19320,note_on,,1,0,15,,,,,,,,,,,,,,,,11,,76,72
19320,note_on,,1,0,10,,,,,,,,,,,,,,,,6,,64,72
19320,note_on,,1,0,5,,,,,,,,,,,,,,,,1,,74,72
19320,note_on,,1,0,14,,,,,,,,,,,,,,,,10,,86,72
19379,note_on,,59,0,14,,,,,,,,,,,,,,,,10,,86,0
19379,note_on,,59,0,10,,,,,,,,,,,,,,,,6,,64,0
19379,note_on,,59,0,15,,,,,,,,,,,,,,,,11,,76,0
19379,note_on,,59,0,5,,,,,,,,,,,,,,,,1,,74,0
19379,note_on,,59,0,9,,,,,,,,,,,,,,,,5,,74,0
19380,note_on,,1,0,5,,,,,,,,,,,,,,,,1,,74,72
19380,note_on,,1,0,14,,,,,,,,,,,,,,,,10,,86,72
19380,note_on,,61,0,6,,,,,,,,,,,,,,,,2,,59,72
19380,note_on,,1,0,10,,,,,,,,,,,,,,,,6,,62,72
19380,note_on,,1,0,15,,,,,,,,,,,,,,,,11,,74,72
19380,note_on,,1,0,9,,,,,,,,,,,,,,,,5,,74,72
19380,note_on,,0,0,18,,,,,,,,,,,,,,,,15,,66,72
19380,note_on,,61,0,18,,,,,,,,,,,,,,,,15,,59,72
19380,note_on,,0,0,18,,,,,,,,,,,,,,,,15,,71,72
19380,note_on,,0,0,18,,,,,,,,,,,,,,,,15,,62,72
19380,note_on,,61,0,12,,,,,,,,,,,,,,,,8,,59,72
19380,note_on,,61,0,17,,,,,,,,,,,,,,,,13,,59,72
19439,note_on,,59,0,15,,,,,,,,,,,,,,,,11,,74,0
19439,note_on,,0,0,18,,,,,,,,,,,,,,,,15,,71,0
19439,note_on,,0,0,18,,,,,,,,,,,,,,,,15,,62,0
19439,note_on,,59,0,14,,,,,,,,,,,,,,,,10,,86,0
19439,note_on,,0,0,18,,,,,,,,,,,,,,,,15,,66,0
19439,note_on,,59,0,18,,,,,,,,,,,,,,,,15,,59,0
19439,note_on,,59,0,10,,,,,,,,,,,,,,,,6,,62,0
19439,note_on,,59,0,6,,,,,,,,,,,,,,,,2,,59,0
19439,note_on,,59,0,17,,,,,,,,,,,,,,,,13,,59,0
19439,note_on,,59,0,12,,,,,,,,,,,,,,,,8,,59,0
19439,note_on,,59,0,9,,,,,,,,,,,,,,,,5,,74,0
19439,note_on,,59,0,5,,,,,,,,,,,,,,,,1,,74,0
19440,note_on,,1,0,10,,,,,,,,,,,,,,,,6,,64,72
19440,note_on,,1,0,14,,,,,,,,,,,,,,,,10,,86,72
19440,note_on,,1,0,5,,,,,,,,,,,,,,,,1,,74,72
19440,note_on,,1,0,17,,,,,,,,,,,,,,,,13,,57,72
19440,note_on,,1,0,15,,,,,,,,,,,,,,,,11,,76,72
19440,note_on,,1,0,9,,,,,,,,,,,,,,,,5,,74,72
19440,note_on,,1,0,12,,,,,,,,,,,,,,,,8,,57,72
19440,note_on,,0,0,18,,,,,,,,,,,,,,,,15,,64,72
19440,note_on,,0,0,18,,,,,,,,,,,,,,,,15,,57,72
19440,note_on,,0,0,18,,,,,,,,,,,,,,,,15,,69,72
19440,note_on,,1,0,18,,,,,,,,,,,,,,,,15,,76,72
19440,note_on,,1,0,6,,,,,,,,,,,,,,,,2,,57,72
19499,note_on,,59,0,9,,,,,,,,,,,,,,,,5,,74,0
19499,note_on,,59,0,6,,,,,,,,,,,,,,,,2,,57,0
19499,note_on,,59,0,17,,,,,,,,,,,,,,,,13,,57,0
19499,note_on,,59,0,18,,,,,,,,,,,,,,,,15,,57,0
19499,note_on,,59,0,5,,,,,,,,,,,,,,,,1,,74,0
19499,note_on,,59,0,14,,,,,,,,,,,,,,,,10,,86,0
19499,note_on,,59,0,12,,,,,,,,,,,,,,,,8,,57,0
19500,note_on,,1,0,14,,,,,,,,,,,,,,,,10,,85,72
19500,note_on,,1,0,12,,,,,,,,,,,,,,,,8,,57,72
19500,note_on,,1,0,6,,,,,,,,,,,,,,,,2,,45,72
19500,note_on,,1,0,5,,,,,,,,,,,,,,,,1,,73,72
19500,note_on,,1,0,17,,,,,,,,,,,,,,,,13,,45,72
19500,note_on,,1,0,18,,,,,,,,,,,,,,,,15,,45,72
19500,note_on,,1,0,9,,,,,,,,,,,,,,,,5,,73,72
19529,note_on,,29,0,14,,,,,,,,,,,,,,,,10,,85,0
19529,note_on,,29,0,9,,,,,,,,,,,,,,,,5,,73,0
19529,note_on,,29,0,5,,,,,,,,,,,,,,,,1,,73,0
19530,note_on,,1,0,14,,,,,,,,,,,,,,,,10,,83,72
19530,note_on,,1,0,9,,,,,,,,,,,,,,,,5,,71,72
19530,note_on,,1,0,5,,,,,,,,,,,,,,,,1,,71,72
19559,note_on,,29,0,9,,,,,,,,,,,,,,,,5,,71,0
19559,note_on,,119,0,15,,,,,,,,,,,,,,,,11,,76,0
19559,note_on,,59,0,18,,,,,,,,,,,,,,,,15,,76,0
19559,note_on,,0,0,18,,,,,,,,,,,,,,,,15,,69,0
19559,note_on,,0,0,18,,,,,,,,,,,,,,,,15,,64,0
19559,note_on,,0,0,18,,,,,,,,,,,,,,,,15,,45,0
19559,note_on,,59,0,17,,,,,,,,,,,,,,,,13,,45,0
19559,note_on,,29,0,5,,,,,,,,,,,,,,,,1,,71,0
19559,note_on,,59,0,12,,,,,,,,,,,,,,,,8,,57,0
19559,note_on,,119,0,10,,,,,,,,,,,,,,,,6,,64,0
19559,note_on,,29,0,14,,,,,,,,,,,,,,,,10,,83,0
19559,note_on,,59,0,6,,,,,,,,,,,,,,,,2,,45,0
19560,note_on,,1,0,14,,,,,,,,,,,,,,,,10,,81,72
19560,note_on,,1,0,18,,,,,,,,,,,,,,,,15,,57,72
19560,note_on,,961,0,11,,,,,,,,,,,,,,,,7,,57,72
19560,note_on,,1,0,9,,,,,,,,,,,,,,,,5,,69,72
19560,note_on,,961,0,16,,,,,,,,,,,,,,,,12,,57,72
19560,note_on,,1,0,10,,,,,,,,,,,,,,,,6,,69,72
19560,note_on,,1,0,5,,,,,,,,,,,,,,,,1,,69,72
19560,note_on,,1,0,17,,,,,,,,,,,,,,,,13,,57,72
19560,note_on,,1,0,15,,,,,,,,,,,,,,,,11,,81,72
19619,note_on,,59,0,9,,,,,,,,,,,,,,,,5,,69,0
19619,note_on,,59,0,5,,,,,,,,,,,,,,,,1,,69,0
19619,note_on,,59,0,18,,,,,,,,,,,,,,,,15,,57,0
19619,note_on,,59,0,17,,,,,,,,,,,,,,,,13,,57,0
19619,note_on,,59,0,14,,,,,,,,,,,,,,,,10,,81,0
19619,note_on,,59,0,11,,,,,,,,,,,,,,,,7,,57,0
19619,note_on,,59,0,16,,,,,,,,,,,,,,,,12,,57,0
19620,note_on,,1,0,5,,,,,,,,,,,,,,,,1,,67,72
19620,note_on,,1,0,14,,,,,,,,,,,,,,,,10,,79,72
19620,note_on,,1,0,18,,,,,,,,,,,,,,,,15,,59,72
19620,note_on,,1,0,16,,,,,,,,,,,,,,,,12,,59,72
19620,note_on,,1,0,11,,,,,,,,,,,,,,,,7,,59,72
19620,note_on,,1,0,9,,,,,,,,,,,,,,,,5,,67,72
19620,note_on,,1,0,17,,,,,,,,,,,,,,,,13,,59,72
19649,note_on,,29,0,18,,,,,,,,,,,,,,,,15,,59,0
19649,note_on,,29,0,11,,,,,,,,,,,,,,,,7,,59,0
19649,note_on,,29,0,17,,,,,,,,,,,,,,,,13,,59,0
19649,note_on,,29,0,16,,,,,,,,,,,,,,,,12,,59,0
19650,note_on,,1,0,18,,,,,,,,,,,,,,,,15,,61,72
19650,note_on,,1,0,17,,,,,,,,,,,,,,,,13,,61,72
19650,note_on,,1,0,11,,,,,,,,,,,,,,,,7,,61,72
19650,note_on,,1,0,16,,,,,,,,,,,,,,,,12,,61,72
19679,note_on,,29,0,16,,,,,,,,,,,,,,,,12,,61,0
19679,note_on,,59,0,14,,,,,,,,,,,,,,,,10,,79,0
19679,note_on,,59,0,5,,,,,,,,,,,,,,,,1,,67,0
19679,note_on,,29,0,17,,,,,,,,,,,,,,,,13,,61,0
19679,note_on,,59,0,9,,,,,,,,,,,,,,,,5,,67,0
19679,note_on,,29,0,11,,,,,,,,,,,,,,,,7,,61,0
19679,note_on,,29,0,18,,,,,,,,,,,,,,,,15,,61,0
19680,note_on,,1,0,16,,,,,,,,,,,,,,,,12,,62,72
19680,note_on,,1,0,5,,,,,,,,,,,,,,,,1,,66,72
19680,note_on,,1,0,9,,,,,,,,,,,,,,,,5,,66,72
19680,note_on,,1,0,14,,,,,,,,,,,,,,,,10,,78,72
19680,note_on,,1,0,17,,,,,,,,,,,,,,,,13,,62,72
19680,note_on,,1,0,18,,,,,,,,,,,,,,,,15,,62,72
19680,note_on,,1,0,11,,,,,,,,,,,,,,,,7,,62,72
19739,note_on,,179,0,15,,,,,,,,,,,,,,,,11,,81,0
19739,note_on,,179,0,10,,,,,,,,,,,,,,,,6,,69,0
19739,note_on,,59,0,11,,,,,,,,,,,,,,,,7,,62,0
19739,note_on,,59,0,16,,,,,,,,,,,,,,,,12,,62,0
19739,note_on,,59,0,18,,,,,,,,,,,,,,,,15,,62,0
19739,note_on,,59,0,17,,,,,,,,,,,,,,,,13,,62,0
19740,note_on,,1,0,16,,,,,,,,,,,,,,,,12,,62,72
19740,note_on,,1,0,10,,,,,,,,,,,,,,,,6,,67,72
19740,note_on,,1,0,18,,,,,,,,,,,,,,,,15,,62,72
19740,note_on,,1,0,11,,,,,,,,,,,,,,,,7,,62,72
19740,note_on,,1,0,15,,,,,,,,,,,,,,,,11,,79,72
19740,note_on,,1,0,17,,,,,,,,,,,,,,,,13,,62,72
19769,note_on,,29,0,10,,,,,,,,,,,,,,,,6,,67,0
19769,note_on,,29,0,15,,,,,,,,,,,,,,,,11,,79,0
19770,note_on,,1,0,15,,,,,,,,,,,,,,,,11,,78,72
19770,note_on,,1,0,10,,,,,,,,,,,,,,,,6,,66,72
19799,note_on,,59,0,16,,,,,,,,,,,,,,,,12,,62,0
19799,note_on,,59,0,11,,,,,,,,,,,,,,,,7,,62,0
19799,note_on,,59,0,18,,,,,,,,,,,,,,,,15,,62,0
19799,note_on,,119,0,14,,,,,,,,,,,,,,,,10,,78,0
19799,note_on,,29,0,10,,,,,,,,,,,,,,,,6,,66,0
19799,note_on,,119,0,9,,,,,,,,,,,,,,,,5,,66,0
19799,note_on,,119,0,5,,,,,,,,,,,,,,,,1,,66,0
19799,note_on,,29,0,15,,,,,,,,,,,,,,,,11,,78,0
19799,note_on,,59,0,17,,,,,,,,,,,,,,,,13,,62,0
19800,note_on,,1,0,16,,,,,,,,,,,,,,,,12,,62,72
19800,note_on,,1,0,11,,,,,,,,,,,,,,,,7,,62,72
19800,note_on,,0,0,18,,,,,,,,,,,,,,,,15,,66,72
19800,note_on,,1,0,15,,,,,,,,,,,,,,,,11,,76,72
19800,note_on,,1,0,10,,,,,,,,,,,,,,,,6,,64,72
19800,note_on,,1,0,17,,,,,,,,,,,,,,,,13,,62,72
19800,note_on,,1,0,18,,,,,,,,,,,,,,,,15,,62,72
19800,note_on,,0,0,18,,,,,,,,,,,,,,,,15,,69,72
19859,note_on,,59,0,17,,,,,,,,,,,,,,,,13,,62,0
19859,note_on,,59,0,18,,,,,,,,,,,,,,,,15,,62,0
19859,note_on,,59,0,10,,,,,,,,,,,,,,,,6,,64,0
19859,note_on,,0,0,18,,,,,,,,,,,,,,,,15,,69,0
19859,note_on,,0,0,18,,,,,,,,,,,,,,,,15,,66,0
19859,note_on,,59,0,15,,,,,,,,,,,,,,,,11,,76,0
19859,note_on,,59,0,11,,,,,,,,,,,,,,,,7,,62,0
19859,note_on,,59,0,16,,,,,,,,,,,,,,,,12,,62,0
19860,note_on,,1,0,17,,,,,,,,,,,,,,,,13,,62,72
19860,note_on,,1,0,11,,,,,,,,,,,,,,,,7,,62,72
19860,note_on,,1,0,15,,,,,,,,,,,,,,,,11,,74,72
19860,note_on,,1,0,10,,,,,,,,,,,,,,,,6,,62,72
19860,note_on,,1,0,18,,,,,,,,,,,,,,,,15,,62,72
19860,note_on,,1,0,16,,,,,,,,,,,,,,,,12,,62,72
19919,note_on,,59,0,15,,,,,,,,,,,,,,,,11,,74,0
19919,note_on,,59,0,17,,,,,,,,,,,,,,,,13,,62,0
19919,note_on,,59,0,10,,,,,,,,,,,,,,,,6,,62,0
19919,note_on,,59,0,11,,,,,,,,,,,,,,,,7,,62,0
19919,note_on,,59,0,16,,,,,,,,,,,,,,,,12,,62,0
19919,note_on,,59,0,18,,,,,,,,,,,,,,,,15,,62,0
19920,note_on,,1,0,18,,,,,,,,,,,,,,,,15,,76,72
19920,note_on,,0,0,18,,,,,,,,,,,,,,,,15,,62,72
19920,note_on,,0,0,18,,,,,,,,,,,,,,,,15,,69,72
19920,note_on,,1,0,17,,,,,,,,,,,,,,,,13,,62,72
19920,note_on,,0,0,18,,,,,,,,,,,,,,,,15,,64,72
19920,note_on,,1,0,16,,,,,,,,,,,,,,,,12,,62,72
19920,note_on,,1,0,10,,,,,,,,,,,,,,,,6,,64,72
19920,note_on,,1,0,15,,,,,,,,,,,,,,,,11,,76,72
19920,note_on,,1,0,11,,,,,,,,,,,,,,,,7,,62,72
19979,note_on,,0,0,18,,,,,,,,,,,,,,,,15,,62,0
19979,note_on,,59,0,16,,,,,,,,,,,,,,,,12,,62,0
19979,note_on,,0,0,18,,,,,,,,,,,,,,,,15,,64,0
19979,note_on,,59,0,11,,,,,,,,,,,,,,,,7,,62,0
19979,note_on,,59,0,18,,,,,,,,,,,,,,,,15,,76,0
19979,note_on,,59,0,17,,,,,,,,,,,,,,,,13,,62,0
19979,note_on,,0,0,18,,,,,,,,,,,,,,,,15,,69,0
19980,note_on,,1,0,11,,,,,,,,,,,,,,,,7,,61,72
19980,note_on,,1,0,18,,,,,,,,,,,,,,,,15,,61,72
19980,note_on,,1,0,17,,,,,,,,,,,,,,,,13,,61,72
19980,note_on,,1,0,16,,,,,,,,,,,,,,,,12,,61,72
20009,note_on,,29,0,11,,,,,,,,,,,,,,,,7,,61,0
20009,note_on,,29,0,18,,,,,,,,,,,,,,,,15,,61,0
20009,note_on,,29,0,17,,,,,,,,,,,,,,,,13,,61,0
20009,note_on,,29,0,16,,,,,,,,,,,,,,,,12,,61,0
20010,note_on,,1,0,11,,,,,,,,,,,,,,,,7,,59,72
20010,note_on,,1,0,17,,,,,,,,,,,,,,,,13,,59,72
20010,note_on,,1,0,16,,,,,,,,,,,,,,,,12,,59,72
20010,note_on,,1,0,18,,,,,,,,,,,,,,,,15,,59,72
20039,note_on,,29,0,16,,,,,,,,,,,,,,,,12,,59,0
20039,note_on,,29,0,17,,,,,,,,,,,,,,,,13,,59,0
20039,note_on,,119,0,15,,,,,,,,,,,,,,,,11,,76,0
20039,note_on,,29,0,11,,,,,,,,,,,,,,,,7,,59,0
20039,note_on,,29,0,18,,,,,,,,,,,,,,,,15,,59,0
20039,note_on,,119,0,10,,,,,,,,,,,,,,,,6,,64,0
20040,note_on,,1,0,17,,,,,,,,,,,,,,,,13,,57,72
20040,note_on,,241,0,14,,,,,,,,,,,,,,,,10,,69,72
20040,note_on,,1,0,16,,,,,,,,,,,,,,,,12,,57,72
20040,note_on,,0,0,18,,,,,,,,,,,,,,,,15,,73,72
20040,note_on,,241,0,9,,,,,,,,,,,,,,,,5,,69,72
20040,note_on,,1,0,18,,,,,,,,,,,,,,,,15,,64,72
20040,note_on,,1,0,11,,,,,,,,,,,,,,,,7,,57,72
20040,note_on,,241,0,5,,,,,,,,,,,,,,,,1,,69,72
20040,note_on,,0,0,18,,,,,,,,,,,,,,,,15,,69,72
20040,note_on,,0,0,18,,,,,,,,,,,,,,,,15,,57,72
20099,note_on,,59,0,18,,,,,,,,,,,,,,,,15,,64,0
20099,note_on,,59,0,16,,,,,,,,,,,,,,,,12,,57,0
20099,note_on,,59,0,11,,,,,,,,,,,,,,,,7,,57,0
20099,note_on,,59,0,17,,,,,,,,,,,,,,,,13,,57,0
20099,note_on,,0,0,18,,,,,,,,,,,,,,,,15,,69,0
20099,note_on,,0,0,18,,,,,,,,,,,,,,,,15,,57,0
20099,note_on,,0,0,18,,,,,,,,,,,,,,,,15,,73,0
20100,note_on,,1,0,18,,,,,,,,,,,,,,,,15,,55,72
20100,note_on,,1,0,17,,,,,,,,,,,,,,,,13,,55,72
20100,note_on,,1,0,11,,,,,,,,,,,,,,,,7,,55,72
20100,note_on,,1,0,16,,,,,,,,,,,,,,,,12,,55,72
20159,note_on,,59,0,17,,,,,,,,,,,,,,,,13,,55,0
20159,note_on,,59,0,11,,,,,,,,,,,,,,,,7,,55,0
20159,note_on,,59,0,16,,,,,,,,,,,,,,,,12,,55,0
20159,note_on,,59,0,18,,,,,,,,,,,,,,,,15,,55,0
20160,note_on,,1,0,16,,,,,,,,,,,,,,,,12,,54,72
20160,note_on,,1,0,11,,,,,,,,,,,,,,,,7,,54,72
20160,note_on,,0,0,18,,,,,,,,,,,,,,,,15,,69,72
20160,note_on,,0,0,18,,,,,,,,,,,,,,,,15,,54,72
20160,note_on,,1,0,17,,,,,,,,,,,,,,,,13,,54,72
20160,note_on,,0,0,18,,,,,,,,,,,,,,,,15,,81,72
20160,note_on,,1,0,18,,,,,,,,,,,,,,,,15,,74,72
20219,note_on,,179,0,14,,,,,,,,,,,,,,,,10,,69,0
20219,note_on,,179,0,9,,,,,,,,,,,,,,,,5,,69,0
20219,note_on,,179,0,5,,,,,,,,,,,,,,,,1,,69,0
20220,note_on,,1,0,14,,,,,,,,,,,,,,,,10,,67,72
20220,note_on,,1,0,5,,,,,,,,,,,,,,,,1,,67,72
20220,note_on,,1,0,9,,,,,,,,,,,,,,,,5,,67,72
20249,note_on,,29,0,5,,,,,,,,,,,,,,,,1,,67,0
20249,note_on,,29,0,9,,,,,,,,,,,,,,,,5,,67,0
20249,note_on,,29,0,14,,,,,,,,,,,,,,,,10,,67,0
20250,note_on,,1,0,5,,,,,,,,,,,,,,,,1,,66,72
20250,note_on,,1,0,9,,,,,,,,,,,,,,,,5,,66,72
20250,note_on,,1,0,14,,,,,,,,,,,,,,,,10,,66,72
20279,note_on,,119,0,16,,,,,,,,,,,,,,,,12,,54,0
20279,note_on,,29,0,9,,,,,,,,,,,,,,,,5,,66,0
20279,note_on,,119,0,17,,,,,,,,,,,,,,,,13,,54,0
20279,note_on,,119,0,11,,,,,,,,,,,,,,,,7,,54,0
20279,note_on,,0,0,18,,,,,,,,,,,,,,,,15,,54,0
20279,note_on,,29,0,14,,,,,,,,,,,,,,,,10,,66,0
20279,note_on,,29,0,5,,,,,,,,,,,,,,,,1,,66,0
20279,note_on,,119,0,18,,,,,,,,,,,,,,,,15,,74,0
20279,note_on,,0,0,18,,,,,,,,,,,,,,,,15,,69,0
20279,note_on,,0,0,18,,,,,,,,,,,,,,,,15,,81,0
20280,note_on,,1,0,5,,,,,,,,,,,,,,,,1,,64,72
20280,note_on,,1,0,9,,,,,,,,,,,,,,,,5,,64,72
20280,note_on,,1,0,14,,,,,,,,,,,,,,,,10,,64,72
20339,note_on,,59,0,14,,,,,,,,,,,,,,,,10,,64,0
20339,note_on,,59,0,5,,,,,,,,,,,,,,,,1,,64,0
20339,note_on,,59,0,9,,,,,,,,,,,,,,,,5,,64,0
20340,note_on,,61,0,17,,,,,,,,,,,,,,,,13,,54,72
20340,note_on,,301,0,15,,,,,,,,,,,,,,,,11,,69,72
20340,note_on,,1,0,9,,,,,,,,,,,,,,,,5,,62,72
20340,note_on,,61,0,18,,,,,,,,,,,,,,,,15,,54,72
20340,note_on,,61,0,11,,,,,,,,,,,,,,,,7,,54,72
20340,note_on,,61,0,16,,,,,,,,,,,,,,,,12,,54,72
20340,note_on,,1,0,5,,,,,,,,,,,,,,,,1,,62,72
20340,note_on,,301,0,10,,,,,,,,,,,,,,,,6,,69,72
20340,note_on,,1,0,14,,,,,,,,,,,,,,,,10,,62,72
20399,note_on,,59,0,11,,,,,,,,,,,,,,,,7,,54,0
20399,note_on,,59,0,15,,,,,,,,,,,,,,,,11,,69,0
20399,note_on,,59,0,10,,,,,,,,,,,,,,,,6,,69,0
20399,note_on,,59,0,14,,,,,,,,,,,,,,,,10,,62,0
20399,note_on,,59,0,17,,,,,,,,,,,,,,,,13,,54,0
20399,note_on,,59,0,16,,,,,,,,,,,,,,,,12,,54,0
20399,note_on,,59,0,9,,,,,,,,,,,,,,,,5,,62,0
20399,note_on,,59,0,18,,,,,,,,,,,,,,,,15,,54,0
20399,note_on,,59,0,5,,,,,,,,,,,,,,,,1,,62,0
20400,note_on,,1,0,15,,,,,,,,,,,,,,,,11,,71,72
20400,note_on,,1,0,10,,,,,,,,,,,,,,,,6,,71,72
20400,note_on,,0,0,18,,,,,,,,,,,,,,,,15,,55,72
20400,note_on,,1,0,18,,,,,,,,,,,,,,,,15,,74,72
20400,note_on,,1,0,16,,,,,,,,,,,,,,,,12,,55,72
20400,note_on,,1,0,11,,,,,,,,,,,,,,,,7,,55,72
20400,note_on,,1,0,9,,,,,,,,,,,,,,,,5,,74,72
20400,note_on,,0,0,18,,,,,,,,,,,,,,,,15,,67,72
20400,note_on,,0,0,18,,,,,,,,,,,,,,,,15,,71,72
20400,note_on,,1,0,5,,,,,,,,,,,,,,,,1,,74,72
20400,note_on,,1,0,14,,,,,,,,,,,,,,,,10,,62,72
20400,note_on,,1,0,17,,,,,,,,,,,,,,,,13,,55,72
20429,note_on,,29,0,15,,,,,,,,,,,,,,,,11,,71,0
20429,note_on,,29,0,10,,,,,,,,,,,,,,,,6,,71,0
20430,note_on,,1,0,15,,,,,,,,,,,,,,,,11,,69,72
20430,note_on,,1,0,10,,,,,,,,,,,,,,,,6,,69,72
20459,note_on,,59,0,14,,,,,,,,,,,,,,,,10,,62,0
20459,note_on,,29,0,15,,,,,,,,,,,,,,,,11,,69,0
20459,note_on,,29,0,10,,,,,,,,,,,,,,,,6,,69,0
20460,note_on,,1,0,10,,,,,,,,,,,,,,,,6,,67,72
20460,note_on,,1,0,14,,,,,,,,,,,,,,,,10,,64,72
20460,note_on,,1,0,15,,,,,,,,,,,,,,,,11,,67,72
20489,note_on,,29,0,14,,,,,,,,,,,,,,,,10,,64,0
20489,note_on,,29,0,10,,,,,,,,,,,,,,,,6,,67,0
20489,note_on,,29,0,15,,,,,,,,,,,,,,,,11,,67,0
20490,note_on,,1,0,14,,,,,,,,,,,,,,,,10,,62,72
20490,note_on,,1,0,10,,,,,,,,,,,,,,,,6,,66,72
20490,note_on,,1,0,15,,,,,,,,,,,,,,,,11,,66,72
20519,note_on,,119,0,18,,,,,,,,,,,,,,,,15,,74,0
20519,note_on,,0,0,18,,,,,,,,,,,,,,,,15,,55,0
20519,note_on,,119,0,16,,,,,,,,,,,,,,,,12,,55,0
20519,note_on,,29,0,15,,,,,,,,,,,,,,,,11,,66,0
20519,note_on,,119,0,11,,,,,,,,,,,,,,,,7,,55,0
20519,note_on,,0,0,18,,,,,,,,,,,,,,,,15,,67,0
20519,note_on,,0,0,18,,,,,,,,,,,,,,,,15,,71,0
20519,note_on,,119,0,5,,,,,,,,,,,,,,,,1,,74,0
20519,note_on,,119,0,9,,,,,,,,,,,,,,,,5,,74,0
20519,note_on,,119,0,17,,,,,,,,,,,,,,,,13,,55,0
20519,note_on,,29,0,14,,,,,,,,,,,,,,,,10,,62,0
20519,note_on,,29,0,10,,,,,,,,,,,,,,,,6,,66,0
20520,note_on,,0,0,18,,,,,,,,,,,,,,,,15,,69,72
20520,note_on,,0,0,18,,,,,,,,,,,,,,,,15,,64,72
20520,note_on,,0,0,18,,,,,,,,,,,,,,,,15,,73,72
20520,note_on,,1,0,17,,,,,,,,,,,,,,,,13,,57,72
20520,note_on,,1,0,16,,,,,,,,,,,,,,,,12,,57,72
20520,note_on,,1,0,18,,,,,,,,,,,,,,,,15,,57,72
20520,note_on,,1,0,10,,,,,,,,,,,,,,,,6,,64,72
20520,note_on,,1,0,14,,,,,,,,,,,,,,,,10,,61,72
20520,note_on,,1,0,15,,,,,,,,,,,,,,,,11,,64,72
20520,note_on,,1,0,11,,,,,,,,,,,,,,,,7,,57,72
20579,note_on,,59,0,10,,,,,,,,,,,,,,,,6,,64,0
20579,note_on,,59,0,15,,,,,,,,,,,,,,,,11,,64,0
20579,note_on,,59,0,14,,,,,,,,,,,,,,,,10,,61,0
20579,note_on,,59,0,11,,,,,,,,,,,,,,,,7,,57,0
20579,note_on,,59,0,18,,,,,,,,,,,,,,,,15,,57,0
20579,note_on,,59,0,17,,,,,,,,,,,,,,,,13,,57,0
20580,note_on,,1,0,11,,,,,,,,,,,,,,,,7,,61,72
20580,note_on,,1,0,18,,,,,,,,,,,,,,,,15,,57,72
20580,note_on,,1,0,14,,,,,,,,,,,,,,,,10,,61,72
20580,note_on,,1021,0,6,,,,,,,,,,,,,,,,2,,57,72
20580,note_on,,1021,0,12,,,,,,,,,,,,,,,,8,,57,72
20580,note_on,,1,0,17,,,,,,,,,,,,,,,,13,,57,72
20580,note_on,,1,0,15,,,,,,,,,,,,,,,,11,,69,72
20580,note_on,,1,0,10,,,,,,,,,,,,,,,,6,,69,72
20639,note_on,,59,0,14,,,,,,,,,,,,,,,,10,,61,0
20639,note_on,,59,0,17,,,,,,,,,,,,,,,,13,,57,0
20639,note_on,,59,0,6,,,,,,,,,,,,,,,,2,,57,0
20639,note_on,,59,0,10,,,,,,,,,,,,,,,,6,,69,0
20639,note_on,,0,0,18,,,,,,,,,,,,,,,,15,,73,0
20639,note_on,,0,0,18,,,,,,,,,,,,,,,,15,,64,0
20639,note_on,,119,0,16,,,,,,,,,,,,,,,,12,,57,0
20639,note_on,,59,0,12,,,,,,,,,,,,,,,,8,,57,0
20639,note_on,,59,0,15,,,,,,,,,,,,,,,,11,,69,0
20639,note_on,,59,0,11,,,,,,,,,,,,,,,,7,,61,0
20639,note_on,,59,0,18,,,,,,,,,,,,,,,,15,,69,0
20639,note_on,,0,0,18,,,,,,,,,,,,,,,,15,,57,0
20640,note_on,,1,0,10,,,,,,,,,,,,,,,,6,,62,72
20640,note_on,,1,0,16,,,,,,,,,,,,,,,,12,,66,72
20640,note_on,,1,0,12,,,,,,,,,,,,,,,,8,,59,72
20640,note_on,,1,0,15,,,,,,,,,,,,,,,,11,,62,72
20640,note_on,,1,0,6,,,,,,,,,,,,,,,,2,,59,72
20640,note_on,,1,0,11,,,,,,,,,,,,,,,,7,,62,72
20640,note_on,,1,0,14,,,,,,,,,,,,,,,,10,,62,72
20640,note_on,,0,0,18,,,,,,,,,,,,,,,,15,,74,72
20640,note_on,,1,0,18,,,,,,,,,,,,,,,,15,,59,72
20640,note_on,,0,0,18,,,,,,,,,,,,,,,,15,,66,72
20640,note_on,,0,0,18,,,,,,,,,,,,,,,,15,,62,72
20640,note_on,,1,0,17,,,,,,,,,,,,,,,,13,,59,72
20669,note_on,,29,0,12,,,,,,,,,,,,,,,,8,,59,0
20669,note_on,,29,0,17,,,,,,,,,,,,,,,,13,,59,0
20669,note_on,,29,0,6,,,,,,,,,,,,,,,,2,,59,0
20669,note_on,,29,0,18,,,,,,,,,,,,,,,,15,,59,0
20670,note_on,,1,0,12,,,,,,,,,,,,,,,,8,,57,72
20670,note_on,,1,0,17,,,,,,,,,,,,,,,,13,,57,72
20670,note_on,,1,0,18,,,,,,,,,,,,,,,,15,,57,72
20670,note_on,,1,0,6,,,,,,,,,,,,,,,,2,,57,72
20699,note_on,,59,0,16,,,,,,,,,,,,,,,,12,,66,0
20699,note_on,,59,0,15,,,,,,,,,,,,,,,,11,,62,0
20699,note_on,,0,0,18,,,,,,,,,,,,,,,,15,,57,0
20699,note_on,,0,0,18,,,,,,,,,,,,,,,,15,,74,0
20699,note_on,,0,0,18,,,,,,,,,,,,,,,,15,,66,0
20699,note_on,,29,0,18,,,,,,,,,,,,,,,,15,,62,0
20699,note_on,,59,0,10,,,,,,,,,,,,,,,,6,,62,0
20699,note_on,,29,0,17,,,,,,,,,,,,,,,,13,,57,0
20699,note_on,,29,0,12,,,,,,,,,,,,,,,,8,,57,0
20699,note_on,,29,0,6,,,,,,,,,,,,,,,,2,,57,0
20700,note_on,,1,0,6,,,,,,,,,,,,,,,,2,,55,72
20700,note_on,,1,0,12,,,,,,,,,,,,,,,,8,,55,72
20700,note_on,,1,0,17,,,,,,,,,,,,,,,,13,,55,72
20700,note_on,,1,0,18,,,,,,,,,,,,,,,,15,,55,72
20700,note_on,,1,0,16,,,,,,,,,,,,,,,,12,,64,72
20700,note_on,,1,0,15,,,,,,,,,,,,,,,,11,,64,72
20700,note_on,,1,0,10,,,,,,,,,,,,,,,,6,,64,72
20729,note_on,,29,0,6,,,,,,,,,,,,,,,,2,,55,0
20729,note_on,,29,0,15,,,,,,,,,,,,,,,,11,,64,0
20729,note_on,,29,0,16,,,,,,,,,,,,,,,,12,,64,0
20729,note_on,,29,0,18,,,,,,,,,,,,,,,,15,,55,0
20729,note_on,,29,0,17,,,,,,,,,,,,,,,,13,,55,0
20729,note_on,,29,0,12,,,,,,,,,,,,,,,,8,,55,0
20729,note_on,,29,0,10,,,,,,,,,,,,,,,,6,,64,0
20730,note_on,,1,0,15,,,,,,,,,,,,,,,,11,,66,72
20730,note_on,,1,0,17,,,,,,,,,,,,,,,,13,,54,72
20730,note_on,,1,0,16,,,,,,,,,,,,,,,,12,,62,72
20730,note_on,,1,0,18,,,,,,,,,,,,,,,,15,,54,72
20730,note_on,,1,0,12,,,,,,,,,,,,,,,,8,,54,72
20730,note_on,,1,0,10,,,,,,,,,,,,,,,,6,,66,72
20730,note_on,,1,0,6,,,,,,,,,,,,,,,,2,,54,72
20759,note_on,,29,0,17,,,,,,,,,,,,,,,,13,,54,0
20759,note_on,,29,0,16,,,,,,,,,,,,,,,,12,,62,0
20759,note_on,,29,0,12,,,,,,,,,,,,,,,,8,,54,0
20759,note_on,,29,0,10,,,,,,,,,,,,,,,,6,,66,0
20759,note_on,,29,0,15,,,,,,,,,,,,,,,,11,,66,0
20759,note_on,,29,0,6,,,,,,,,,,,,,,,,2,,54,0
20759,note_on,,119,0,11,,,,,,,,,,,,,,,,7,,62,0
20759,note_on,,119,0,14,,,,,,,,,,,,,,,,10,,62,0
20759,note_on,,29,0,18,,,,,,,,,,,,,,,,15,,54,0
20760,note_on,,1,0,6,,,,,,,,,,,,,,,,2,,52,72
20760,note_on,,1,0,16,,,,,,,,,,,,,,,,12,,64,72
20760,note_on,,0,0,18,,,,,,,,,,,,,,,,15,,67,72
20760,note_on,,1,0,18,,,,,,,,,,,,,,,,15,,64,72
20760,note_on,,0,0,18,,,,,,,,,,,,,,,,15,,52,72
20760,note_on,,1,0,17,,,,,,,,,,,,,,,,13,,52,72
20760,note_on,,0,0,18,,,,,,,,,,,,,,,,15,,73,72
20760,note_on,,1,0,10,,,,,,,,,,,,,,,,6,,67,72
20760,note_on,,1,0,12,,,,,,,,,,,,,,,,8,,52,72
20760,note_on,,1,0,15,,,,,,,,,,,,,,,,11,,67,72
20819,note_on,,59,0,10,,,,,,,,,,,,,,,,6,,67,0
20819,note_on,,59,0,18,,,,,,,,,,,,,,,,15,,64,0
20819,note_on,,0,0,18,,,,,,,,,,,,,,,,15,,67,0
20819,note_on,,0,0,18,,,,,,,,,,,,,,,,15,,52,0
20819,note_on,,59,0,15,,,,,,,,,,,,,,,,11,,67,0
20819,note_on,,0,0,18,,,,,,,,,,,,,,,,15,,73,0
20819,note_on,,59,0,17,,,,,,,,,,,,,,,,13,,52,0
20819,note_on,,59,0,16,,,,,,,,,,,,,,,,12,,64,0
20819,note_on,,59,0,6,,,,,,,,,,,,,,,,2,,52,0
20819,note_on,,59,0,12,,,,,,,,,,,,,,,,8,,52,0
20820,note_on,,1,0,6,,,,,,,,,,,,,,,,2,,57,72
20820,note_on,,1,0,17,,,,,,,,,,,,,,,,13,,57,72
20820,note_on,,1,0,12,,,,,,,,,,,,,,,,8,,57,72
20820,note_on,,1,0,10,,,,,,,,,,,,,,,,6,,66,72
20820,note_on,,1,0,16,,,,,,,,,,,,,,,,12,,62,72
20820,note_on,,1,0,18,,,,,,,,,,,,,,,,15,,57,72
20820,note_on,,1,0,15,,,,,,,,,,,,,,,,11,,66,72
20849,note_on,,29,0,15,,,,,,,,,,,,,,,,11,,66,0
20849,note_on,,29,0,16,,,,,,,,,,,,,,,,12,,62,0
20849,note_on,,29,0,10,,,,,,,,,,,,,,,,6,,66,0
20850,note_on,,1,0,15,,,,,,,,,,,,,,,,11,,64,72
20850,note_on,,1,0,16,,,,,,,,,,,,,,,,12,,61,72
20850,note_on,,1,0,10,,,,,,,,,,,,,,,,6,,64,72
20879,note_on,,59,0,12,,,,,,,,,,,,,,,,8,,57,0
20879,note_on,,29,0,15,,,,,,,,,,,,,,,,11,,64,0
20879,note_on,,59,0,17,,,,,,,,,,,,,,,,13,,57,0
20879,note_on,,29,0,10,,,,,,,,,,,,,,,,6,,64,0
20879,note_on,,59,0,18,,,,,,,,,,,,,,,,15,,57,0
20879,note_on,,59,0,6,,,,,,,,,,,,,,,,2,,57,0
20879,note_on,,29,0,16,,,,,,,,,,,,,,,,12,,61,0
20880,note_on,,1,0,16,,,,,,,,,,,,,,,,12,,62,72
20880,note_on,,1,0,15,,,,,,,,,,,,,,,,11,,66,72
20880,note_on,,1,0,17,,,,,,,,,,,,,,,,13,,50,72
20880,note_on,,1,0,12,,,,,,,,,,,,,,,,8,,50,72
20880,note_on,,1,0,10,,,,,,,,,,,,,,,,6,,66,72
20880,note_on,,0,0,18,,,,,,,,,,,,,,,,15,,66,72
20880,note_on,,1,0,6,,,,,,,,,,,,,,,,2,,50,72
20880,note_on,,0,0,18,,,,,,,,,,,,,,,,15,,74,72
20880,note_on,,0,0,18,,,,,,,,,,,,,,,,15,,69,72
20880,note_on,,1,0,18,,,,,,,,,,,,,,,,15,,50,72
20939,note_on,,0,0,18,,,,,,,,,,,,,,,,15,,69,0
20939,note_on,,0,0,18,,,,,,,,,,,,,,,,15,,74,0
20939,note_on,,0,0,18,,,,,,,,,,,,,,,,15,,66,0
20939,note_on,,59,0,18,,,,,,,,,,,,,,,,15,,50,0
20939,note_on,,59,0,17,,,,,,,,,,,,,,,,13,,50,0
20939,note_on,,59,0,12,,,,,,,,,,,,,,,,8,,50,0
20939,note_on,,59,0,10,,,,,,,,,,,,,,,,6,,66,0
20939,note_on,,59,0,6,,,,,,,,,,,,,,,,2,,50,0
20939,note_on,,59,0,15,,,,,,,,,,,,,,,,11,,66,0
20940,note_on,,1,0,10,,,,,,,,,,,,,,,,6,,67,72
20940,note_on,,1,0,18,,,,,,,,,,,,,,,,15,,52,72
20940,note_on,,1,0,15,,,,,,,,,,,,,,,,11,,67,72
20940,note_on,,1,0,17,,,,,,,,,,,,,,,,13,,52,72
20940,note_on,,1,0,6,,,,,,,,,,,,,,,,2,,52,72
20940,note_on,,1,0,12,,,,,,,,,,,,,,,,8,,52,72
20969,note_on,,29,0,18,,,,,,,,,,,,,,,,15,,52,0
20969,note_on,,29,0,10,,,,,,,,,,,,,,,,6,,67,0
20969,note_on,,29,0,15,,,,,,,,,,,,,,,,11,,67,0
20969,note_on,,29,0,12,,,,,,,,,,,,,,,,8,,52,0
20969,note_on,,29,0,17,,,,,,,,,,,,,,,,13,,52,0
20969,note_on,,29,0,6,,,,,,,,,,,,,,,,2,,52,0
20970,note_on,,1,0,6,,,,,,,,,,,,,,,,2,,54,72
20970,note_on,,1,0,10,,,,,,,,,,,,,,,,6,,69,72
20970,note_on,,1,0,17,,,,,,,,,,,,,,,,13,,54,72
20970,note_on,,1,0,15,,,,,,,,,,,,,,,,11,,69,72
20970,note_on,,1,0,18,,,,,,,,,,,,,,,,15,,54,72
20970,note_on,,1,0,12,,,,,,,,,,,,,,,,8,,54,72
20999,note_on,,29,0,6,,,,,,,,,,,,,,,,2,,54,0
20999,note_on,,29,0,10,,,,,,,,,,,,,,,,6,,69,0
20999,note_on,,29,0,15,,,,,,,,,,,,,,,,11,,69,0
20999,note_on,,29,0,12,,,,,,,,,,,,,,,,8,,54,0
20999,note_on,,29,0,17,,,,,,,,,,,,,,,,13,,54,0
20999,note_on,,119,0,16,,,,,,,,,,,,,,,,12,,62,0
20999,note_on,,29,0,18,,,,,,,,,,,,,,,,15,,54,0
21000,note_on,,1,0,18,,,,,,,,,,,,,,,,15,,62,72
21000,note_on,,0,0,18,,,,,,,,,,,,,,,,15,,55,72
21000,note_on,,0,0,18,,,,,,,,,,,,,,,,15,,67,72
21000,note_on,,1,0,17,,,,,,,,,,,,,,,,13,,55,72
21000,note_on,,1,0,10,,,,,,,,,,,,,,,,6,,71,72
21000,note_on,,0,0,18,,,,,,,,,,,,,,,,15,,71,72
21000,note_on,,1,0,15,,,,,,,,,,,,,,,,11,,71,72
21000,note_on,,1,0,12,,,,,,,,,,,,,,,,8,,55,72
21000,note_on,,1,0,6,,,,,,,,,,,,,,,,2,,55,72
21059,note_on,,59,0,6,,,,,,,,,,,,,,,,2,,55,0
21059,note_on,,59,0,15,,,,,,,,,,,,,,,,11,,71,0
21059,note_on,,59,0,10,,,,,,,,,,,,,,,,6,,71,0
21059,note_on,,0,0,18,,,,,,,,,,,,,,,,15,,67,0
21059,note_on,,59,0,18,,,,,,,,,,,,,,,,15,,62,0
21059,note_on,,0,0,18,,,,,,,,,,,,,,,,15,,55,0
21059,note_on,,59,0,12,,,,,,,,,,,,,,,,8,,55,0
21059,note_on,,0,0,18,,,,,,,,,,,,,,,,15,,71,0
21059,note_on,,59,0,17,,,,,,,,,,,,,,,,13,,55,0
21060,note_on,,1,0,10,,,,,,,,,,,,,,,,6,,69,72
21060,note_on,,1,0,15,,,,,,,,,,,,,,,,11,,69,72
21060,note_on,,1,0,18,,,,,,,,,,,,,,,,15,,54,72
21060,note_on,,1,0,6,,,,,,,,,,,,,,,,2,,54,72
21060,note_on,,1,0,12,,,,,,,,,,,,,,,,8,,54,72
21060,note_on,,1,0,17,,,,,,,,,,,,,,,,13,,54,72
21089,note_on,,29,0,15,,,,,,,,,,,,,,,,11,,69,0
21089,note_on,,29,0,12,,,,,,,,,,,,,,,,8,,54,0
21089,note_on,,29,0,10,,,,,,,,,,,,,,,,6,,69,0
21089,note_on,,29,0,6,,,,,,,,,,,,,,,,2,,54,0
21089,note_on,,29,0,18,,,,,,,,,,,,,,,,15,,54,0
21089,note_on,,29,0,17,,,,,,,,,,,,,,,,13,,54,0
21090,note_on,,1,0,17,,,,,,,,,,,,,,,,13,,52,72
21090,note_on,,1,0,15,,,,,,,,,,,,,,,,11,,67,72
21090,note_on,,1,0,12,,,,,,,,,,,,,,,,8,,52,72
21090,note_on,,1,0,6,,,,,,,,,,,,,,,,2,,52,72
21090,note_on,,1,0,10,,,,,,,,,,,,,,,,6,,67,72
21090,note_on,,1,0,18,,,,,,,,,,,,,,,,15,,52,72
21119,note_on,,29,0,12,,,,,,,,,,,,,,,,8,,52,0
21119,note_on,,29,0,10,,,,,,,,,,,,,,,,6,,67,0
21119,note_on,,29,0,15,,,,,,,,,,,,,,,,11,,67,0
21119,note_on,,29,0,17,,,,,,,,,,,,,,,,13,,52,0
21119,note_on,,29,0,18,,,,,,,,,,,,,,,,15,,52,0
21119,note_on,,29,0,6,,,,,,,,,,,,,,,,2,,52,0
21120,note_on,,1,0,15,,,,,,,,,,,,,,,,11,,69,72
21120,note_on,,1,0,12,,,,,,,,,,,,,,,,8,,54,72
21120,note_on,,1,0,17,,,,,,,,,,,,,,,,13,,54,72
21120,note_on,,1,0,18,,,,,,,,,,,,,,,,15,,54,72
21120,note_on,,0,0,18,,,,,,,,,,,,,,,,15,,66,72
21120,note_on,,0,0,18,,,,,,,,,,,,,,,,15,,74,72
21120,note_on,,0,0,18,,,,,,,,,,,,,,,,15,,69,72
21120,note_on,,1,0,10,,,,,,,,,,,,,,,,6,,69,72
21120,note_on,,1,0,6,,,,,,,,,,,,,,,,2,,54,72
21179,note_on,,0,0,18,,,,,,,,,,,,,,,,15,,66,0
21179,note_on,,59,0,18,,,,,,,,,,,,,,,,15,,54,0
21179,note_on,,59,0,17,,,,,,,,,,,,,,,,13,,54,0
21179,note_on,,59,0,6,,,,,,,,,,,,,,,,2,,54,0
21179,note_on,,0,0,18,,,,,,,,,,,,,,,,15,,74,0
21179,note_on,,59,0,10,,,,,,,,,,,,,,,,6,,69,0
21179,note_on,,59,0,12,,,,,,,,,,,,,,,,8,,54,0
21179,note_on,,59,0,15,,,,,,,,,,,,,,,,11,,69,0
21179,note_on,,0,0,18,,,,,,,,,,,,,,,,15,,69,0
21180,note_on,,1,0,17,,,,,,,,,,,,,,,,13,,55,72
21180,note_on,,1,0,10,,,,,,,,,,,,,,,,6,,67,72
21180,note_on,,1,0,15,,,,,,,,,,,,,,,,11,,67,72
21180,note_on,,1,0,18,,,,,,,,,,,,,,,,15,,55,72
21180,note_on,,1,0,12,,,,,,,,,,,,,,,,8,,55,72
21180,note_on,,1,0,6,,,,,,,,,,,,,,,,2,,55,72
21209,note_on,,29,0,18,,,,,,,,,,,,,,,,15,,55,0
21209,note_on,,29,0,15,,,,,,,,,,,,,,,,11,,67,0
21209,note_on,,29,0,6,,,,,,,,,,,,,,,,2,,55,0
21209,note_on,,29,0,17,,,,,,,,,,,,,,,,13,,55,0
21209,note_on,,29,0,12,,,,,,,,,,,,,,,,8,,55,0
21209,note_on,,29,0,10,,,,,,,,,,,,,,,,6,,67,0
21210,note_on,,1,0,18,,,,,,,,,,,,,,,,15,,57,72
21210,note_on,,1,0,6,,,,,,,,,,,,,,,,2,,57,72
21210,note_on,,1,0,17,,,,,,,,,,,,,,,,13,,57,72
21210,note_on,,1,0,15,,,,,,,,,,,,,,,,11,,66,72
21210,note_on,,1,0,10,,,,,,,,,,,,,,,,6,,66,72
21210,note_on,,1,0,12,,,,,,,,,,,,,,,,8,,57,72
21239,note_on,,29,0,12,,,,,,,,,,,,,,,,8,,57,0
21239,note_on,,29,0,15,,,,,,,,,,,,,,,,11,,66,0
21239,note_on,,29,0,10,,,,,,,,,,,,,,,,6,,66,0
21239,note_on,,29,0,17,,,,,,,,,,,,,,,,13,,57,0
21239,note_on,,29,0,6,,,,,,,,,,,,,,,,2,,57,0
21239,note_on,,29,0,18,,,,,,,,,,,,,,,,15,,57,0
21240,note_on,,1,0,10,,,,,,,,,,,,,,,,6,,67,72
21240,note_on,,1,0,6,,,,,,,,,,,,,,,,2,,59,72
21240,note_on,,1,0,17,,,,,,,,,,,,,,,,13,,59,72
21240,note_on,,0,0,18,,,,,,,,,,,,,,,,15,,59,72
21240,note_on,,1,0,12,,,,,,,,,,,,,,,,8,,59,72
21240,note_on,,1,0,15,,,,,,,,,,,,,,,,11,,67,72
21240,note_on,,0,0,18,,,,,,,,,,,,,,,,15,,76,72
21240,note_on,,0,0,18,,,,,,,,,,,,,,,,15,,67,72
21240,note_on,,1,0,18,,,,,,,,,,,,,,,,15,,79,72
21269,note_on,,29,0,12,,,,,,,,,,,,,,,,8,,59,0
21269,note_on,,29,0,18,,,,,,,,,,,,,,,,15,,59,0
21269,note_on,,29,0,15,,,,,,,,,,,,,,,,11,,67,0
21269,note_on,,29,0,6,,,,,,,,,,,,,,,,2,,59,0
21269,note_on,,29,0,17,,,,,,,,,,,,,,,,13,,59,0
21269,note_on,,29,0,10,,,,,,,,,,,,,,,,6,,67,0
21270,note_on,,1,0,6,,,,,,,,,,,,,,,,2,,57,72
21270,note_on,,1,0,17,,,,,,,,,,,,,,,,13,,57,72
21270,note_on,,1,0,18,,,,,,,,,,,,,,,,15,,57,72
21270,note_on,,1,0,12,,,,,,,,,,,,,,,,8,,57,72
21270,note_on,,1,0,15,,,,,,,,,,,,,,,,11,,66,72
21270,note_on,,1,0,10,,,,,,,,,,,,,,,,6,,66,72
21299,note_on,,29,0,6,,,,,,,,,,,,,,,,2,,57,0
21299,note_on,,29,0,18,,,,,,,,,,,,,,,,15,,79,0
21299,note_on,,0,0,18,,,,,,,,,,,,,,,,15,,67,0
21299,note_on,,0,0,18,,,,,,,,,,,,,,,,15,,76,0
21299,note_on,,0,0,18,,,,,,,,,,,,,,,,15,,57,0
21299,note_on,,29,0,17,,,,,,,,,,,,,,,,13,,57,0
21299,note_on,,29,0,12,,,,,,,,,,,,,,,,8,,57,0
21299,note_on,,29,0,10,,,,,,,,,,,,,,,,6,,66,0
21299,note_on,,29,0,15,,,,,,,,,,,,,,,,11,,66,0
21300,note_on,,1,0,10,,,,,,,,,,,,,,,,6,,67,72
21300,note_on,,1,0,12,,,,,,,,,,,,,,,,8,,59,72
21300,note_on,,1,0,15,,,,,,,,,,,,,,,,11,,67,72
21300,note_on,,1,0,6,,,,,,,,,,,,,,,,2,,59,72
21300,note_on,,1,0,17,,,,,,,,,,,,,,,,13,,59,72
21300,note_on,,1,0,18,,,,,,,,,,,,,,,,15,,59,72
21329,note_on,,29,0,12,,,,,,,,,,,,,,,,8,,59,0
21329,note_on,,29,0,18,,,,,,,,,,,,,,,,15,,59,0
21329,note_on,,29,0,15,,,,,,,,,,,,,,,,11,,67,0
21329,note_on,,29,0,6,,,,,,,,,,,,,,,,2,,59,0
21329,note_on,,29,0,10,,,,,,,,,,,,,,,,6,,67,0
21329,note_on,,29,0,17,,,,,,,,,,,,,,,,13,,59,0
21330,note_on,,1,0,15,,,,,,,,,,,,,,,,11,,64,72
21330,note_on,,1,0,6,,,,,,,,,,,,,,,,2,,61,72
21330,note_on,,1,0,18,,,,,,,,,,,,,,,,15,,61,72
21330,note_on,,1,0,10,,,,,,,,,,,,,,,,6,,64,72
21330,note_on,,1,0,17,,,,,,,,,,,,,,,,13,,61,72
21330,note_on,,1,0,12,,,,,,,,,,,,,,,,8,,61,72
21359,note_on,,29,0,17,,,,,,,,,,,,,,,,13,,61,0
21359,note_on,,29,0,6,,,,,,,,,,,,,,,,2,,61,0
21359,note_on,,29,0,18,,,,,,,,,,,,,,,,15,,61,0
21359,note_on,,29,0,15,,,,,,,,,,,,,,,,11,,64,0
21359,note_on,,29,0,10,,,,,,,,,,,,,,,,6,,64,0
21359,note_on,,29,0,12,,,,,,,,,,,,,,,,8,,61,0
21360,note_on,,0,0,18,,,,,,,,,,,,,,,,15,,62,72
21360,note_on,,0,0,18,,,,,,,,,,,,,,,,15,,74,72
21360,note_on,,0,0,18,,,,,,,,,,,,,,,,15,,78,72
21360,note_on,,1,0,12,,,,,,,,,,,,,,,,8,,62,72
21360,note_on,,1,0,15,,,,,,,,,,,,,,,,11,,66,72
21360,note_on,,1,0,17,,,,,,,,,,,,,,,,13,,62,72
21360,note_on,,1,0,6,,,,,,,,,,,,,,,,2,,62,72
21360,note_on,,1,0,10,,,,,,,,,,,,,,,,6,,66,72
21360,note_on,,1,0,18,,,,,,,,,,,,,,,,15,,69,72
21419,note_on,,0,0,18,,,,,,,,,,,,,,,,15,,78,0
21419,note_on,,59,0,18,,,,,,,,,,,,,,,,15,,69,0
21419,note_on,,59,0,17,,,,,,,,,,,,,,,,13,,62,0
21419,note_on,,0,0,18,,,,,,,,,,,,,,,,15,,74,0
21419,note_on,,59,0,12,,,,,,,,,,,,,,,,8,,62,0
21419,note_on,,0,0,18,,,,,,,,,,,,,,,,15,,62,0
21419,note_on,,59,0,6,,,,,,,,,,,,,,,,2,,62,0
21420,note_on,,1,0,6,,,,,,,,,,,,,,,,2,,57,72
21420,note_on,,1,0,17,,,,,,,,,,,,,,,,13,,57,72
21420,note_on,,1,0,12,,,,,,,,,,,,,,,,8,,57,72
21420,note_on,,1,0,18,,,,,,,,,,,,,,,,15,,57,72
21479,note_on,,119,0,10,,,,,,,,,,,,,,,,6,,66,0
21479,note_on,,59,0,17,,,,,,,,,,,,,,,,13,,57,0
21479,note_on,,119,0,15,,,,,,,,,,,,,,,,11,,66,0
21479,note_on,,59,0,12,,,,,,,,,,,,,,,,8,,57,0
21479,note_on,,59,0,18,,,,,,,,,,,,,,,,15,,57,0
21479,note_on,,59,0,6,,,,,,,,,,,,,,,,2,,57,0
21480,note_on,,1,0,6,,,,,,,,,,,,,,,,2,,62,72
21480,note_on,,1,0,12,,,,,,,,,,,,,,,,8,,62,72
21480,note_on,,1,0,18,,,,,,,,,,,,,,,,15,,69,72
21480,note_on,,0,0,18,,,,,,,,,,,,,,,,15,,66,72
21480,note_on,,0,0,18,,,,,,,,,,,,,,,,15,,62,72
21480,note_on,,1,0,17,,,,,,,,,,,,,,,,13,,62,72
21540,note_on,,1021,0,9,,,,,,,,,,,,,,,,5,,69,72
21540,note_on,,1021,0,5,,,,,,,,,,,,,,,,1,,69,72
21540,note_on,,781,0,14,,,,,,,,,,,,,,,,10,,81,72
21599,note_on,,59,0,9,,,,,,,,,,,,,,,,5,,69,0
21599,note_on,,59,0,5,,,,,,,,,,,,,,,,1,,69,0
21599,note_on,,119,0,18,,,,,,,,,,,,,,,,15,,69,0
21599,note_on,,59,0,14,,,,,,,,,,,,,,,,10,,81,0
21599,note_on,,0,0,18,,,,,,,,,,,,,,,,15,,66,0
21600,note_on,,1,0,18,,,,,,,,,,,,,,,,15,,67,72
21600,note_on,,0,0,18,,,,,,,,,,,,,,,,15,,76,72
21600,note_on,,1,0,14,,,,,,,,,,,,,,,,10,,83,72
21600,note_on,,0,0,18,,,,,,,,,,,,,,,,15,,71,72
21600,note_on,,1,0,9,,,,,,,,,,,,,,,,5,,71,72
21600,note_on,,1,0,5,,,,,,,,,,,,,,,,1,,71,72
21629,note_on,,29,0,14,,,,,,,,,,,,,,,,10,,83,0
21629,note_on,,29,0,5,,,,,,,,,,,,,,,,1,,71,0
21629,note_on,,29,0,9,,,,,,,,,,,,,,,,5,,71,0
21630,note_on,,1,0,14,,,,,,,,,,,,,,,,10,,81,72
21630,note_on,,1,0,9,,,,,,,,,,,,,,,,5,,69,72
21630,note_on,,1,0,5,,,,,,,,,,,,,,,,1,,69,72
21659,note_on,,29,0,14,,,,,,,,,,,,,,,,10,,81,0
21659,note_on,,29,0,9,,,,,,,,,,,,,,,,5,,69,0
21659,note_on,,29,0,5,,,,,,,,,,,,,,,,1,,69,0
21660,note_on,,1,0,14,,,,,,,,,,,,,,,,10,,79,72
21660,note_on,,1,0,5,,,,,,,,,,,,,,,,1,,67,72
21660,note_on,,1,0,9,,,,,,,,,,,,,,,,5,,67,72
21689,note_on,,29,0,14,,,,,,,,,,,,,,,,10,,79,0
21689,note_on,,29,0,9,,,,,,,,,,,,,,,,5,,67,0
21689,note_on,,29,0,5,,,,,,,,,,,,,,,,1,,67,0
21690,note_on,,1,0,5,,,,,,,,,,,,,,,,1,,66,72
21690,note_on,,1,0,9,,,,,,,,,,,,,,,,5,,66,72
21690,note_on,,1,0,14,,,,,,,,,,,,,,,,10,,78,72
21719,note_on,,239,0,17,,,,,,,,,,,,,,,,13,,62,0
21719,note_on,,29,0,9,,,,,,,,,,,,,,,,5,,66,0
21719,note_on,,0,0,18,,,,,,,,,,,,,,,,15,,71,0
21719,note_on,,239,0,6,,,,,,,,,,,,,,,,2,,62,0
21719,note_on,,0,0,18,,,,,,,,,,,,,,,,15,,76,0
21719,note_on,,119,0,18,,,,,,,,,,,,,,,,15,,62,0
21719,note_on,,29,0,5,,,,,,,,,,,,,,,,1,,66,0
21719,note_on,,239,0,12,,,,,,,,,,,,,,,,8,,62,0
21719,note_on,,0,0,18,,,,,,,,,,,,,,,,15,,67,0
21719,note_on,,29,0,14,,,,,,,,,,,,,,,,10,,78,0
21720,note_on,,1,0,14,,,,,,,,,,,,,,,,10,,76,72
21720,note_on,,1,0,12,,,,,,,,,,,,,,,,8,,61,72
21720,note_on,,1,0,18,,,,,,,,,,,,,,,,15,,69,72
21720,note_on,,0,0,18,,,,,,,,,,,,,,,,15,,64,72
21720,note_on,,0,0,18,,,,,,,,,,,,,,,,15,,61,72
21720,note_on,,1,0,17,,,,,,,,,,,,,,,,13,,61,72
21720,note_on,,1,0,9,,,,,,,,,,,,,,,,5,,64,72
21720,note_on,,1,0,6,,,,,,,,,,,,,,,,2,,61,72
21720,note_on,,1,0,5,,,,,,,,,,,,,,,,1,,64,72
21779,note_on,,59,0,5,,,,,,,,,,,,,,,,1,,64,0
21779,note_on,,59,0,14,,,,,,,,,,,,,,,,10,,76,0
21779,note_on,,59,0,9,,,,,,,,,,,,,,,,5,,64,0
21780,note_on,,1,0,9,,,,,,,,,,,,,,,,5,,69,72
21780,note_on,,1,0,5,,,,,,,,,,,,,,,,1,,69,72
21780,note_on,,1,0,14,,,,,,,,,,,,,,,,10,,81,72
21839,note_on,,119,0,6,,,,,,,,,,,,,,,,2,,61,0
21839,note_on,,59,0,5,,,,,,,,,,,,,,,,1,,69,0
21839,note_on,,119,0,17,,,,,,,,,,,,,,,,13,,61,0
21839,note_on,,59,0,14,,,,,,,,,,,,,,,,10,,81,0
21839,note_on,,59,0,9,,,,,,,,,,,,,,,,5,,69,0
21839,note_on,,119,0,12,,,,,,,,,,,,,,,,8,,61,0
21839,note_on,,0,0,18,,,,,,,,,,,,,,,,15,,61,0
21839,note_on,,119,0,18,,,,,,,,,,,,,,,,15,,69,0
21839,note_on,,0,0,18,,,,,,,,,,,,,,,,15,,64,0
21840,note_on,,1,0,6,,,,,,,,,,,,,,,,2,,59,72
21840,note_on,,1,0,17,,,,,,,,,,,,,,,,13,,59,72
21840,note_on,,1,0,9,,,,,,,,,,,,,,,,5,,62,72
21840,note_on,,1,0,5,,,,,,,,,,,,,,,,1,,62,72
21840,note_on,,0,0,18,,,,,,,,,,,,,,,,15,,71,72
21840,note_on,,0,0,18,,,,,,,,,,,,,,,,15,,66,72
21840,note_on,,0,0,18,,,,,,,,,,,,,,,,15,,59,72
21840,note_on,,1,0,18,,,,,,,,,,,,,,,,15,,62,72
21840,note_on,,1,0,14,,,,,,,,,,,,,,,,10,,74,72
21840,note_on,,1,0,12,,,,,,,,,,,,,,,,8,,59,72
21899,note_on,,59,0,14,,,,,,,,,,,,,,,,10,,74,0
21899,note_on,,59,0,9,,,,,,,,,,,,,,,,5,,62,0
21899,note_on,,59,0,5,,,,,,,,,,,,,,,,1,,62,0
21900,note_on,,1,0,9,,,,,,,,,,,,,,,,5,,74,72
21900,note_on,,1,0,5,,,,,,,,,,,,,,,,1,,74,72
21900,note_on,,1,0,14,,,,,,,,,,,,,,,,10,,86,72
21959,note_on,,0,0,18,,,,,,,,,,,,,,,,15,,71,0
21959,note_on,,0,0,18,,,,,,,,,,,,,,,,15,,66,0
21959,note_on,,0,0,18,,,,,,,,,,,,,,,,15,,59,0
21959,note_on,,119,0,18,,,,,,,,,,,,,,,,15,,62,0
21959,note_on,,119,0,12,,,,,,,,,,,,,,,,8,,59,0
21959,note_on,,119,0,6,,,,,,,,,,,,,,,,2,,59,0
21959,note_on,,119,0,17,,,,,,,,,,,,,,,,13,,59,0
21960,note_on,,0,0,18,,,,,,,,,,,,,,,,15,,57,72
21960,note_on,,1,0,6,,,,,,,,,,,,,,,,2,,57,72
21960,note_on,,1,0,12,,,,,,,,,,,,,,,,8,,57,72
21960,note_on,,0,0,18,,,,,,,,,,,,,,,,15,,69,72
21960,note_on,,1,0,17,,,,,,,,,,,,,,,,13,,57,72
21960,note_on,,0,0,18,,,,,,,,,,,,,,,,15,,64,72
21960,note_on,,1,0,18,,,,,,,,,,,,,,,,15,,76,72
22019,note_on,,119,0,14,,,,,,,,,,,,,,,,10,,86,0
22019,note_on,,119,0,9,,,,,,,,,,,,,,,,5,,74,0
22019,note_on,,119,0,5,,,,,,,,,,,,,,,,1,,74,0
22020,note_on,,1,0,5,,,,,,,,,,,,,,,,1,,73,72
22020,note_on,,541,0,15,,,,,,,,,,,,,,,,11,,76,72
22020,note_on,,541,0,10,,,,,,,,,,,,,,,,6,,64,72
22020,note_on,,1,0,14,,,,,,,,,,,,,,,,10,,85,72
22020,note_on,,1,0,9,,,,,,,,,,,,,,,,5,,73,72
22079,note_on,,119,0,12,,,,,,,,,,,,,,,,8,,57,0
22079,note_on,,59,0,15,,,,,,,,,,,,,,,,11,,76,0
22079,note_on,,59,0,10,,,,,,,,,,,,,,,,6,,64,0
22079,note_on,,59,0,5,,,,,,,,,,,,,,,,1,,73,0
22079,note_on,,0,0,18,,,,,,,,,,,,,,,,15,,57,0
22079,note_on,,0,0,18,,,,,,,,,,,,,,,,15,,69,0
22079,note_on,,59,0,9,,,,,,,,,,,,,,,,5,,73,0
22079,note_on,,119,0,17,,,,,,,,,,,,,,,,13,,57,0
22079,note_on,,119,0,6,,,,,,,,,,,,,,,,2,,57,0
22079,note_on,,119,0,18,,,,,,,,,,,,,,,,15,,76,0
22079,note_on,,0,0,18,,,,,,,,,,,,,,,,15,,64,0
22079,note_on,,59,0,14,,,,,,,,,,,,,,,,10,,85,0
22080,note_on,,1,0,17,,,,,,,,,,,,,,,,13,,50,72
22080,note_on,,1,0,12,,,,,,,,,,,,,,,,8,,50,72
22080,note_on,,1,0,10,,,,,,,,,,,,,,,,6,,66,72
22080,note_on,,1,0,15,,,,,,,,,,,,,,,,11,,78,72
22080,note_on,,0,0,18,,,,,,,,,,,,,,,,15,,74,72
22080,note_on,,0,0,18,,,,,,,,,,,,,,,,15,,50,72
22080,note_on,,1,0,6,,,,,,,,,,,,,,,,2,,50,72
22080,note_on,,1,0,18,,,,,,,,,,,,,,,,15,,69,72
22080,note_on,,1,0,9,,,,,,,,,,,,,,,,5,,74,72
22080,note_on,,0,0,18,,,,,,,,,,,,,,,,15,,78,72
22080,note_on,,1,0,14,,,,,,,,,,,,,,,,10,,86,72
22080,note_on,,1,0,5,,,,,,,,,,,,,,,,1,,74,72
22109,note_on,,29,0,5,,,,,,,,,,,,,,,,1,,74,0
22109,note_on,,29,0,14,,,,,,,,,,,,,,,,10,,86,0
22109,note_on,,29,0,10,,,,,,,,,,,,,,,,6,,66,0
22109,note_on,,29,0,9,,,,,,,,,,,,,,,,5,,74,0
22109,note_on,,29,0,15,,,,,,,,,,,,,,,,11,,78,0
22110,note_on,,1,0,10,,,,,,,,,,,,,,,,6,,64,72
22110,note_on,,1,0,9,,,,,,,,,,,,,,,,5,,73,72
22110,note_on,,1,0,5,,,,,,,,,,,,,,,,1,,73,72
22110,note_on,,1,0,14,,,,,,,,,,,,,,,,10,,85,72
22110,note_on,,1,0,15,,,,,,,,,,,,,,,,11,,76,72
22139,note_on,,29,0,14,,,,,,,,,,,,,,,,10,,85,0
22139,note_on,,29,0,9,,,,,,,,,,,,,,,,5,,73,0
22139,note_on,,29,0,10,,,,,,,,,,,,,,,,6,,64,0
22139,note_on,,29,0,5,,,,,,,,,,,,,,,,1,,73,0
22139,note_on,,29,0,15,,,,,,,,,,,,,,,,11,,76,0
22140,note_on,,1,0,9,,,,,,,,,,,,,,,,5,,71,72
22140,note_on,,1,0,10,,,,,,,,,,,,,,,,6,,62,72
22140,note_on,,1,0,5,,,,,,,,,,,,,,,,1,,71,72
22140,note_on,,1,0,14,,,,,,,,,,,,,,,,10,,83,72
22140,note_on,,1,0,15,,,,,,,,,,,,,,,,11,,74,72
22169,note_on,,29,0,5,,,,,,,,,,,,,,,,1,,71,0
22169,note_on,,29,0,15,,,,,,,,,,,,,,,,11,,74,0
22169,note_on,,29,0,14,,,,,,,,,,,,,,,,10,,83,0
22169,note_on,,29,0,9,,,,,,,,,,,,,,,,5,,71,0
22169,note_on,,29,0,10,,,,,,,,,,,,,,,,6,,62,0
22170,note_on,,1,0,10,,,,,,,,,,,,,,,,6,,61,72
22170,note_on,,1,0,5,,,,,,,,,,,,,,,,1,,69,72
22170,note_on,,1,0,14,,,,,,,,,,,,,,,,10,,81,72
22170,note_on,,1,0,15,,,,,,,,,,,,,,,,11,,73,72
22170,note_on,,1,0,9,,,,,,,,,,,,,,,,5,,69,72
22199,note_on,,29,0,5,,,,,,,,,,,,,,,,1,,69,0
22199,note_on,,0,0,18,,,,,,,,,,,,,,,,15,,74,0
22199,note_on,,0,0,18,,,,,,,,,,,,,,,,15,,50,0
22199,note_on,,29,0,14,,,,,,,,,,,,,,,,10,,81,0
22199,note_on,,0,0,18,,,,,,,,,,,,,,,,15,,78,0
22199,note_on,,119,0,6,,,,,,,,,,,,,,,,2,,50,0
22199,note_on,,29,0,15,,,,,,,,,,,,,,,,11,,73,0
22199,note_on,,119,0,17,,,,,,,,,,,,,,,,13,,50,0
22199,note_on,,29,0,9,,,,,,,,,,,,,,,,5,,69,0
22199,note_on,,119,0,18,,,,,,,,,,,,,,,,15,,69,0
22199,note_on,,29,0,10,,,,,,,,,,,,,,,,6,,61,0
22199,note_on,,119,0,12,,,,,,,,,,,,,,,,8,,50,0
22200,note_on,,1,0,9,,,,,,,,,,,,,,,,5,,68,72
22200,note_on,,1,0,5,,,,,,,,,,,,,,,,1,,68,72
22200,note_on,,1,0,6,,,,,,,,,,,,,,,,2,,52,72
22200,note_on,,1,0,10,,,,,,,,,,,,,,,,6,,59,72
22200,note_on,,1,0,15,,,,,,,,,,,,,,,,11,,71,72
22200,note_on,,1,0,12,,,,,,,,,,,,,,,,8,,52,72
22200,note_on,,0,0,18,,,,,,,,,,,,,,,,15,,64,72
22200,note_on,,0,0,18,,,,,,,,,,,,,,,,15,,68,72
22200,note_on,,1,0,17,,,,,,,,,,,,,,,,13,,52,72
22200,note_on,,1,0,18,,,,,,,,,,,,,,,,15,,52,72
22200,note_on,,0,0,18,,,,,,,,,,,,,,,,15,,71,72
22200,note_on,,1,0,14,,,,,,,,,,,,,,,,10,,80,72
22259,note_on,,59,0,18,,,,,,,,,,,,,,,,15,,52,0
22259,note_on,,59,0,5,,,,,,,,,,,,,,,,1,,68,0
22259,note_on,,59,0,9,,,,,,,,,,,,,,,,5,,68,0
22259,note_on,,59,0,14,,,,,,,,,,,,,,,,10,,80,0
22259,note_on,,59,0,10,,,,,,,,,,,,,,,,6,,59,0
22259,note_on,,59,0,6,,,,,,,,,,,,,,,,2,,52,0
22259,note_on,,59,0,17,,,,,,,,,,,,,,,,13,,52,0
22259,note_on,,59,0,12,,,,,,,,,,,,,,,,8,,52,0
22260,note_on,,1,0,6,,,,,,,,,,,,,,,,2,,52,72
22260,note_on,,1,0,10,,,,,,,,,,,,,,,,6,,68,72
22260,note_on,,1,0,9,,,,,,,,,,,,,,,,5,,76,72
22260,note_on,,1,0,17,,,,,,,,,,,,,,,,13,,52,72
22260,note_on,,1,0,18,,,,,,,,,,,,,,,,15,,52,72
22260,note_on,,1,0,14,,,,,,,,,,,,,,,,10,,76,72
22260,note_on,,1,0,5,,,,,,,,,,,,,,,,1,,76,72
22260,note_on,,1,0,12,,,,,,,,,,,,,,,,8,,52,72
22260,note_on,,1261,0,16,,,,,,,,,,,,,,,,12,,68,72
22319,note_on,,0,0,18,,,,,,,,,,,,,,,,15,,71,0
22319,note_on,,0,0,18,,,,,,,,,,,,,,,,15,,64,0
22319,note_on,,59,0,6,,,,,,,,,,,,,,,,2,,52,0
22319,note_on,,59,0,5,,,,,,,,,,,,,,,,1,,76,0
22319,note_on,,119,0,15,,,,,,,,,,,,,,,,11,,71,0
22319,note_on,,59,0,12,,,,,,,,,,,,,,,,8,,52,0
22319,note_on,,59,0,9,,,,,,,,,,,,,,,,5,,76,0
22319,note_on,,59,0,16,,,,,,,,,,,,,,,,12,,68,0
22319,note_on,,0,0,18,,,,,,,,,,,,,,,,15,,52,0
22319,note_on,,59,0,18,,,,,,,,,,,,,,,,15,,68,0
22319,note_on,,59,0,10,,,,,,,,,,,,,,,,6,,68,0
22319,note_on,,59,0,17,,,,,,,,,,,,,,,,13,,52,0
22320,note_on,,1,0,9,,,,,,,,,,,,,,,,5,,76,72
22320,note_on,,1,0,16,,,,,,,,,,,,,,,,12,,69,72
22320,note_on,,1,0,10,,,,,,,,,,,,,,,,6,,69,72
22320,note_on,,1,0,5,,,,,,,,,,,,,,,,1,,76,72
22320,note_on,,1,0,17,,,,,,,,,,,,,,,,13,,54,72
22320,note_on,,0,0,18,,,,,,,,,,,,,,,,15,,57,72
22320,note_on,,0,0,18,,,,,,,,,,,,,,,,15,,54,72
22320,note_on,,0,0,18,,,,,,,,,,,,,,,,15,,66,72
22320,note_on,,1,0,18,,,,,,,,,,,,,,,,15,,69,72
22320,note_on,,1,0,12,,,,,,,,,,,,,,,,8,,54,72
22320,note_on,,1,0,6,,,,,,,,,,,,,,,,2,,54,72
22349,note_on,,29,0,16,,,,,,,,,,,,,,,,12,,69,0
22350,note_on,,1,0,16,,,,,,,,,,,,,,,,12,,68,72
22379,note_on,,119,0,14,,,,,,,,,,,,,,,,10,,76,0
22379,note_on,,59,0,9,,,,,,,,,,,,,,,,5,,76,0
22379,note_on,,59,0,5,,,,,,,,,,,,,,,,1,,76,0
22379,note_on,,29,0,16,,,,,,,,,,,,,,,,12,,68,0
22380,note_on,,1,0,5,,,,,,,,,,,,,,,,1,,74,72
22380,note_on,,1,0,16,,,,,,,,,,,,,,,,12,,66,72
22380,note_on,,1,0,14,,,,,,,,,,,,,,,,10,,74,72
22380,note_on,,1,0,9,,,,,,,,,,,,,,,,5,,74,72
22409,note_on,,29,0,16,,,,,,,,,,,,,,,,12,,66,0
22409,note_on,,29,0,14,,,,,,,,,,,,,,,,10,,74,0
22409,note_on,,29,0,5,,,,,,,,,,,,,,,,1,,74,0
22409,note_on,,29,0,9,,,,,,,,,,,,,,,,5,,74,0
22410,note_on,,1,0,16,,,,,,,,,,,,,,,,12,,64,72
22410,note_on,,1,0,14,,,,,,,,,,,,,,,,10,,73,72
22410,note_on,,1,0,5,,,,,,,,,,,,,,,,1,,73,72
22410,note_on,,1,0,9,,,,,,,,,,,,,,,,5,,73,72
22439,note_on,,29,0,16,,,,,,,,,,,,,,,,12,,64,0
22439,note_on,,29,0,9,,,,,,,,,,,,,,,,5,,73,0
22439,note_on,,29,0,5,,,,,,,,,,,,,,,,1,,73,0
22439,note_on,,29,0,14,,,,,,,,,,,,,,,,10,,73,0
22440,note_on,,1,0,14,,,,,,,,,,,,,,,,10,,74,72
22440,note_on,,121,0,15,,,,,,,,,,,,,,,,11,,69,72
22440,note_on,,1,0,16,,,,,,,,,,,,,,,,12,,62,72
22440,note_on,,1681,0,11,,,,,,,,,,,,,,,,7,,57,72
22440,note_on,,1,0,9,,,,,,,,,,,,,,,,5,,74,72
22440,note_on,,1,0,5,,,,,,,,,,,,,,,,1,,74,72
22499,note_on,,59,0,15,,,,,,,,,,,,,,,,11,,69,0
22499,note_on,,59,0,16,,,,,,,,,,,,,,,,12,,62,0
22499,note_on,,59,0,11,,,,,,,,,,,,,,,,7,,57,0
22499,note_on,,179,0,12,,,,,,,,,,,,,,,,8,,54,0
22499,note_on,,179,0,17,,,,,,,,,,,,,,,,13,,54,0
22499,note_on,,179,0,18,,,,,,,,,,,,,,,,15,,54,0
22499,note_on,,179,0,6,,,,,,,,,,,,,,,,2,,54,0
22499,note_on,,179,0,10,,,,,,,,,,,,,,,,6,,69,0
22500,note_on,,1,0,16,,,,,,,,,,,,,,,,12,,61,72
22500,note_on,,1,0,15,,,,,,,,,,,,,,,,11,,73,72
22500,note_on,,1,0,17,,,,,,,,,,,,,,,,13,,54,72
22500,note_on,,1,0,10,,,,,,,,,,,,,,,,6,,57,72
22500,note_on,,1,0,11,,,,,,,,,,,,,,,,7,,61,72
22500,note_on,,1,0,18,,,,,,,,,,,,,,,,15,,54,72
22500,note_on,,1,0,6,,,,,,,,,,,,,,,,2,,54,72
22500,note_on,,1,0,12,,,,,,,,,,,,,,,,8,,54,72
22529,note_on,,29,0,15,,,,,,,,,,,,,,,,11,,73,0
22529,note_on,,29,0,11,,,,,,,,,,,,,,,,7,,61,0
22530,note_on,,1,0,15,,,,,,,,,,,,,,,,11,,74,72
22530,note_on,,1,0,11,,,,,,,,,,,,,,,,7,,62,72
22559,note_on,,59,0,17,,,,,,,,,,,,,,,,13,,54,0
22559,note_on,,59,0,16,,,,,,,,,,,,,,,,12,,61,0
22559,note_on,,29,0,11,,,,,,,,,,,,,,,,7,,62,0
22559,note_on,,59,0,10,,,,,,,,,,,,,,,,6,,57,0
22559,note_on,,29,0,15,,,,,,,,,,,,,,,,11,,74,0
22559,note_on,,0,0,18,,,,,,,,,,,,,,,,15,,54,0
22559,note_on,,59,0,12,,,,,,,,,,,,,,,,8,,54,0
22559,note_on,,59,0,18,,,,,,,,,,,,,,,,15,,69,0
22559,note_on,,0,0,18,,,,,,,,,,,,,,,,15,,66,0
22559,note_on,,0,0,18,,,,,,,,,,,,,,,,15,,57,0
22559,note_on,,59,0,6,,,,,,,,,,,,,,,,2,,54,0
22560,note_on,,1,0,15,,,,,,,,,,,,,,,,11,,76,72
22560,note_on,,1,0,17,,,,,,,,,,,,,,,,13,,56,72
22560,note_on,,1,0,6,,,,,,,,,,,,,,,,2,,56,72
22560,note_on,,1,0,11,,,,,,,,,,,,,,,,7,,64,72
22560,note_on,,0,0,18,,,,,,,,,,,,,,,,15,,56,72
22560,note_on,,1,0,18,,,,,,,,,,,,,,,,15,,59,72
22560,note_on,,1,0,10,,,,,,,,,,,,,,,,6,,59,72
22560,note_on,,1,0,16,,,,,,,,,,,,,,,,12,,59,72
22560,note_on,,0,0,18,,,,,,,,,,,,,,,,15,,64,72
22560,note_on,,1,0,12,,,,,,,,,,,,,,,,8,,56,72
22619,note_on,,179,0,9,,,,,,,,,,,,,,,,5,,74,0
22619,note_on,,59,0,11,,,,,,,,,,,,,,,,7,,64,0
22619,note_on,,179,0,5,,,,,,,,,,,,,,,,1,,74,0
22619,note_on,,179,0,14,,,,,,,,,,,,,,,,10,,74,0
22619,note_on,,59,0,15,,,,,,,,,,,,,,,,11,,76,0
22620,note_on,,1,0,9,,,,,,,,,,,,,,,,5,,73,72
22620,note_on,,1,0,11,,,,,,,,,,,,,,,,7,,64,72
22620,note_on,,1,0,5,,,,,,,,,,,,,,,,1,,73,72
22620,note_on,,1,0,14,,,,,,,,,,,,,,,,10,,73,72
22620,note_on,,1,0,15,,,,,,,,,,,,,,,,11,,76,72
22649,note_on,,29,0,14,,,,,,,,,,,,,,,,10,,73,0
22649,note_on,,29,0,5,,,,,,,,,,,,,,,,1,,73,0
22649,note_on,,29,0,9,,,,,,,,,,,,,,,,5,,73,0
22650,note_on,,1,0,9,,,,,,,,,,,,,,,,5,,71,72
22650,note_on,,1,0,14,,,,,,,,,,,,,,,,10,,71,72
22650,note_on,,1,0,5,,,,,,,,,,,,,,,,1,,71,72
22679,note_on,,29,0,5,,,,,,,,,,,,,,,,1,,71,0
22679,note_on,,59,0,11,,,,,,,,,,,,,,,,7,,64,0
22679,note_on,,119,0,12,,,,,,,,,,,,,,,,8,,56,0
22679,note_on,,59,0,15,,,,,,,,,,,,,,,,11,,76,0
22679,note_on,,119,0,17,,,,,,,,,,,,,,,,13,,56,0
22679,note_on,,119,0,18,,,,,,,,,,,,,,,,15,,59,0
22679,note_on,,119,0,6,,,,,,,,,,,,,,,,2,,56,0
22679,note_on,,29,0,14,,,,,,,,,,,,,,,,10,,71,0
22679,note_on,,119,0,10,,,,,,,,,,,,,,,,6,,59,0
22679,note_on,,0,0,18,,,,,,,,,,,,,,,,15,,64,0
22679,note_on,,0,0,18,,,,,,,,,,,,,,,,15,,56,0
22679,note_on,,29,0,9,,,,,,,,,,,,,,,,5,,71,0
22679,note_on,,119,0,16,,,,,,,,,,,,,,,,12,,59,0
22680,note_on,,1,0,15,,,,,,,,,,,,,,,,11,,76,72
22680,note_on,,1,0,10,,,,,,,,,,,,,,,,6,,57,72
22680,note_on,,1,0,12,,,,,,,,,,,,,,,,8,,57,72
22680,note_on,,1,0,5,,,,,,,,,,,,,,,,1,,73,72
22680,note_on,,0,0,18,,,,,,,,,,,,,,,,15,,64,72
22680,note_on,,1,0,11,,,,,,,,,,,,,,,,7,,64,72
22680,note_on,,0,0,18,,,,,,,,,,,,,,,,15,,69,72
22680,note_on,,0,0,18,,,,,,,,,,,,,,,,15,,73,72
22680,note_on,,1,0,9,,,,,,,,,,,,,,,,5,,73,72
22680,note_on,,1,0,18,,,,,,,,,,,,,,,,15,,57,72
22680,note_on,,1,0,16,,,,,,,,,,,,,,,,12,,57,72
22680,note_on,,1,0,14,,,,,,,,,,,,,,,,10,,73,72
22680,note_on,,1,0,17,,,,,,,,,,,,,,,,13,,57,72
22680,note_on,,1,0,6,,,,,,,,,,,,,,,,2,,57,72
22739,note_on,,59,0,14,,,,,,,,,,,,,,,,10,,73,0
22739,note_on,,59,0,5,,,,,,,,,,,,,,,,1,,73,0
22739,note_on,,59,0,10,,,,,,,,,,,,,,,,6,,57,0
22739,note_on,,59,0,9,,,,,,,,,,,,,,,,5,,73,0
22739,note_on,,59,0,12,,,,,,,,,,,,,,,,8,,57,0
22739,note_on,,59,0,15,,,,,,,,,,,,,,,,11,,76,0
22739,note_on,,59,0,11,,,,,,,,,,,,,,,,7,,64,0
22739,note_on,,59,0,18,,,,,,,,,,,,,,,,15,,57,0
22739,note_on,,59,0,17,,,,,,,,,,,,,,,,13,,57,0
22739,note_on,,59,0,16,,,,,,,,,,,,,,,,12,,57,0
22739,note_on,,59,0,6,,,,,,,,,,,,,,,,2,,57,0
22740,note_on,,1,0,16,,,,,,,,,,,,,,,,12,,69,72
22740,note_on,,1,0,11,,,,,,,,,,,,,,,,7,,64,72
22740,note_on,,1,0,5,,,,,,,,,,,,,,,,1,,74,72
22740,note_on,,1,0,14,,,,,,,,,,,,,,,,10,,74,72
22740,note_on,,1,0,17,,,,,,,,,,,,,,,,13,,57,72
22740,note_on,,1,0,6,,,,,,,,,,,,,,,,2,,57,72
22740,note_on,,1,0,12,,,,,,,,,,,,,,,,8,,57,72
22740,note_on,,1,0,10,,,,,,,,,,,,,,,,6,,69,72
22740,note_on,,1,0,9,,,,,,,,,,,,,,,,5,,74,72
22740,note_on,,1,0,18,,,,,,,,,,,,,,,,15,,57,72
22740,note_on,,1,0,15,,,,,,,,,,,,,,,,11,,76,72
22769,note_on,,29,0,14,,,,,,,,,,,,,,,,10,,74,0
22769,note_on,,29,0,9,,,,,,,,,,,,,,,,5,,74,0
22769,note_on,,29,0,5,,,,,,,,,,,,,,,,1,,74,0
22770,note_on,,1,0,14,,,,,,,,,,,,,,,,10,,73,72
22770,note_on,,1,0,9,,,,,,,,,,,,,,,,5,,73,72
22770,note_on,,1,0,5,,,,,,,,,,,,,,,,1,,73,72
22799,note_on,,29,0,5,,,,,,,,,,,,,,,,1,,73,0
22799,note_on,,0,0,18,,,,,,,,,,,,,,,,15,,57,0
22799,note_on,,0,0,18,,,,,,,,,,,,,,,,15,,69,0
22799,note_on,,0,0,18,,,,,,,,,,,,,,,,15,,73,0
22799,note_on,,59,0,18,,,,,,,,,,,,,,,,15,,64,0
22799,note_on,,59,0,12,,,,,,,,,,,,,,,,8,,57,0
22799,note_on,,59,0,16,,,,,,,,,,,,,,,,12,,69,0
22799,note_on,,59,0,10,,,,,,,,,,,,,,,,6,,69,0
22799,note_on,,29,0,9,,,,,,,,,,,,,,,,5,,73,0
22799,note_on,,29,0,14,,,,,,,,,,,,,,,,10,,73,0
22799,note_on,,59,0,15,,,,,,,,,,,,,,,,11,,76,0
22799,note_on,,59,0,17,,,,,,,,,,,,,,,,13,,57,0
22799,note_on,,59,0,6,,,,,,,,,,,,,,,,2,,57,0
22799,note_on,,59,0,11,,,,,,,,,,,,,,,,7,,64,0
22800,note_on,,1,0,10,,,,,,,,,,,,,,,,6,,69,72
22800,note_on,,1,0,17,,,,,,,,,,,,,,,,13,,52,72
22800,note_on,,0,0,18,,,,,,,,,,,,,,,,15,,69,72
22800,note_on,,0,0,18,,,,,,,,,,,,,,,,15,,71,72
22800,note_on,,0,0,18,,,,,,,,,,,,,,,,15,,64,72
22800,note_on,,1,0,18,,,,,,,,,,,,,,,,15,,52,72
22800,note_on,,1,0,16,,,,,,,,,,,,,,,,12,,69,72
22800,note_on,,1,0,14,,,,,,,,,,,,,,,,10,,71,72
22800,note_on,,1,0,9,,,,,,,,,,,,,,,,5,,71,72
22800,note_on,,1,0,5,,,,,,,,,,,,,,,,1,,71,72
22800,note_on,,1,0,6,,,,,,,,,,,,,,,,2,,52,72
22800,note_on,,1,0,12,,,,,,,,,,,,,,,,8,,52,72
22800,note_on,,1,0,15,,,,,,,,,,,,,,,,11,,76,72
22800,note_on,,1,0,11,,,,,,,,,,,,,,,,7,,64,72
22859,note_on,,59,0,16,,,,,,,,,,,,,,,,12,,69,0
22859,note_on,,59,0,14,,,,,,,,,,,,,,,,10,,71,0
22859,note_on,,59,0,11,,,,,,,,,,,,,,,,7,,64,0
22859,note_on,,59,0,15,,,,,,,,,,,,,,,,11,,76,0
22860,note_on,,1,0,14,,,,,,,,,,,,,,,,10,,81,72
22860,note_on,,1,0,16,,,,,,,,,,,,,,,,12,,68,72
22860,note_on,,1,0,11,,,,,,,,,,,,,,,,7,,64,72
22860,note_on,,1,0,15,,,,,,,,,,,,,,,,11,,76,72
22889,note_on,,29,0,16,,,,,,,,,,,,,,,,12,,68,0
22890,note_on,,1,0,16,,,,,,,,,,,,,,,,12,,66,72
22919,note_on,,0,0,18,,,,,,,,,,,,,,,,15,,64,0
22919,note_on,,0,0,18,,,,,,,,,,,,,,,,15,,71,0
22919,note_on,,0,0,18,,,,,,,,,,,,,,,,15,,69,0
22919,note_on,,119,0,10,,,,,,,,,,,,,,,,6,,69,0
22919,note_on,,119,0,6,,,,,,,,,,,,,,,,2,,52,0
22919,note_on,,59,0,11,,,,,,,,,,,,,,,,7,,64,0
22919,note_on,,29,0,16,,,,,,,,,,,,,,,,12,,66,0
22919,note_on,,59,0,15,,,,,,,,,,,,,,,,11,,76,0
22919,note_on,,119,0,18,,,,,,,,,,,,,,,,15,,52,0
22919,note_on,,59,0,14,,,,,,,,,,,,,,,,10,,81,0
22919,note_on,,119,0,17,,,,,,,,,,,,,,,,13,,52,0
22920,note_on,,0,0,18,,,,,,,,,,,,,,,,15,,40,72
22920,note_on,,1,0,18,,,,,,,,,,,,,,,,15,,76,72
22920,note_on,,1,0,15,,,,,,,,,,,,,,,,11,,76,72
22920,note_on,,1,0,17,,,,,,,,,,,,,,,,13,,40,72
22920,note_on,,1,0,10,,,,,,,,,,,,,,,,6,,68,72
22920,note_on,,0,0,18,,,,,,,,,,,,,,,,15,,71,72
22920,note_on,,1,0,14,,,,,,,,,,,,,,,,10,,80,72
22920,note_on,,1,0,6,,,,,,,,,,,,,,,,2,,40,72
22920,note_on,,1,0,11,,,,,,,,,,,,,,,,7,,64,72
22920,note_on,,1,0,16,,,,,,,,,,,,,,,,12,,64,72
22920,note_on,,0,0,18,,,,,,,,,,,,,,,,15,,68,72
22979,note_on,,59,0,16,,,,,,,,,,,,,,,,12,,64,0
22980,note_on,,1,0,16,,,,,,,,,,,,,,,,12,,64,72
23009,note_on,,89,0,15,,,,,,,,,,,,,,,,11,,76,0
23009,note_on,,89,0,14,,,,,,,,,,,,,,,,10,,80,0
23009,note_on,,89,0,11,,,,,,,,,,,,,,,,7,,64,0
23010,note_on,,1,0,11,,,,,,,,,,,,,,,,7,,62,72
23010,note_on,,1,0,14,,,,,,,,,,,,,,,,10,,80,72
23010,note_on,,1,0,15,,,,,,,,,,,,,,,,11,,74,72
23039,note_on,,0,0,18,,,,,,,,,,,,,,,,15,,71,0
23039,note_on,,29,0,11,,,,,,,,,,,,,,,,7,,62,0
23039,note_on,,239,0,12,,,,,,,,,,,,,,,,8,,52,0
23039,note_on,,119,0,6,,,,,,,,,,,,,,,,2,,40,0
23039,note_on,,59,0,16,,,,,,,,,,,,,,,,12,,64,0
23039,note_on,,0,0,18,,,,,,,,,,,,,,,,15,,68,0
23039,note_on,,119,0,17,,,,,,,,,,,,,,,,13,,40,0
23039,note_on,,239,0,5,,,,,,,,,,,,,,,,1,,71,0
23039,note_on,,119,0,10,,,,,,,,,,,,,,,,6,,68,0
23039,note_on,,29,0,14,,,,,,,,,,,,,,,,10,,80,0
23039,note_on,,0,0,18,,,,,,,,,,,,,,,,15,,40,0
23039,note_on,,119,0,18,,,,,,,,,,,,,,,,15,,76,0
23039,note_on,,29,0,15,,,,,,,,,,,,,,,,11,,74,0
23039,note_on,,239,0,9,,,,,,,,,,,,,,,,5,,71,0
23040,note_on,,1,0,14,,,,,,,,,,,,,,,,10,,81,72
23040,note_on,,1,0,16,,,,,,,,,,,,,,,,12,,64,72
23040,note_on,,1,0,6,,,,,,,,,,,,,,,,2,,45,72
23040,note_on,,1,0,15,,,,,,,,,,,,,,,,11,,73,72
23040,note_on,,1,0,9,,,,,,,,,,,,,,,,5,,69,72
23040,note_on,,1,0,12,,,,,,,,,,,,,,,,8,,45,72
23040,note_on,,0,0,18,,,,,,,,,,,,,,,,15,,69,72
23040,note_on,,1,0,11,,,,,,,,,,,,,,,,7,,61,72
23040,note_on,,0,0,18,,,,,,,,,,,,,,,,15,,45,72
23040,note_on,,1,0,5,,,,,,,,,,,,,,,,1,,69,72
23040,note_on,,1,0,18,,,,,,,,,,,,,,,,15,,73,72
23040,note_on,,1,0,10,,,,,,,,,,,,,,,,6,,69,72
23040,note_on,,0,0,18,,,,,,,,,,,,,,,,15,,64,72
23040,note_on,,1,0,17,,,,,,,,,,,,,,,,13,,45,72
23069,note_on,,29,0,14,,,,,,,,,,,,,,,,10,,81,0
23069,note_on,,29,0,15,,,,,,,,,,,,,,,,11,,73,0
23070,note_on,,1,0,14,,,,,,,,,,,,,,,,10,,76,72
23070,note_on,,1,0,15,,,,,,,,,,,,,,,,11,,69,72
23099,note_on,,29,0,15,,,,,,,,,,,,,,,,11,,69,0
23099,note_on,,29,0,14,,,,,,,,,,,,,,,,10,,76,0
23100,note_on,,1,0,15,,,,,,,,,,,,,,,,11,,73,72
23100,note_on,,1,0,14,,,,,,,,,,,,,,,,10,,81,72
23129,note_on,,29,0,14,,,,,,,,,,,,,,,,10,,81,0
23129,note_on,,29,0,15,,,,,,,,,,,,,,,,11,,73,0
23130,note_on,,1,0,14,,,,,,,,,,,,,,,,10,,85,72
23130,note_on,,1,0,15,,,,,,,,,,,,,,,,11,,76,72
23159,note_on,,0,0,18,,,,,,,,,,,,,,,,15,,45,0
23159,note_on,,119,0,17,,,,,,,,,,,,,,,,13,,45,0
23159,note_on,,119,0,16,,,,,,,,,,,,,,,,12,,64,0
23159,note_on,,119,0,5,,,,,,,,,,,,,,,,1,,69,0
23159,note_on,,119,0,10,,,,,,,,,,,,,,,,6,,69,0
23159,note_on,,0,0,18,,,,,,,,,,,,,,,,15,,69,0
23159,note_on,,119,0,6,,,,,,,,,,,,,,,,2,,45,0
23159,note_on,,0,0,18,,,,,,,,,,,,,,,,15,,64,0
23159,note_on,,119,0,11,,,,,,,,,,,,,,,,7,,61,0
23159,note_on,,119,0,12,,,,,,,,,,,,,,,,8,,45,0
23159,note_on,,119,0,9,,,,,,,,,,,,,,,,5,,69,0
23159,note_on,,119,0,18,,,,,,,,,,,,,,,,15,,73,0
23159,note_on,,29,0,14,,,,,,,,,,,,,,,,10,,85,0
23159,note_on,,29,0,15,,,,,,,,,,,,,,,,11,,76,0
23160,note_on,,1,0,12,,,,,,,,,,,,,,,,8,,57,72
23160,note_on,,1,0,10,,,,,,,,,,,,,,,,6,,69,72
23160,note_on,,1,0,15,,,,,,,,,,,,,,,,11,,81,72
23160,note_on,,1,0,5,,,,,,,,,,,,,,,,1,,73,72
23160,note_on,,1,0,18,,,,,,,,,,,,,,,,15,,57,72
23160,note_on,,1,0,16,,,,,,,,,,,,,,,,12,,73,72
23160,note_on,,1,0,9,,,,,,,,,,,,,,,,5,,73,72
23160,note_on,,1,0,6,,,,,,,,,,,,,,,,2,,57,72
23160,note_on,,1,0,14,,,,,,,,,,,,,,,,10,,76,72
23160,note_on,,1,0,17,,,,,,,,,,,,,,,,13,,57,72
23160,note_on,,1,0,11,,,,,,,,,,,,,,,,7,,61,72
23189,note_on,,29,0,15,,,,,,,,,,,,,,,,11,,81,0
23189,note_on,,29,0,14,,,,,,,,,,,,,,,,10,,76,0
23190,note_on,,1,0,15,,,,,,,,,,,,,,,,11,,76,72
23190,note_on,,1,0,14,,,,,,,,,,,,,,,,10,,73,72
23219,note_on,,59,0,16,,,,,,,,,,,,,,,,12,,73,0
23219,note_on,,59,0,17,,,,,,,,,,,,,,,,13,,57,0
23219,note_on,,59,0,11,,,,,,,,,,,,,,,,7,,61,0
23219,note_on,,59,0,6,,,,,,,,,,,,,,,,2,,57,0
23219,note_on,,29,0,14,,,,,,,,,,,,,,,,10,,73,0
23219,note_on,,29,0,15,,,,,,,,,,,,,,,,11,,76,0
23219,note_on,,59,0,18,,,,,,,,,,,,,,,,15,,57,0
23219,note_on,,59,0,12,,,,,,,,,,,,,,,,8,,57,0
23220,note_on,,1,0,11,,,,,,,,,,,,,,,,7,,62,72
23220,note_on,,1,0,12,,,,,,,,,,,,,,,,8,,59,72
23220,note_on,,1,0,17,,,,,,,,,,,,,,,,13,,59,72
23220,note_on,,1,0,18,,,,,,,,,,,,,,,,15,,59,72
23220,note_on,,1,0,6,,,,,,,,,,,,,,,,2,,59,72
23220,note_on,,1,0,15,,,,,,,,,,,,,,,,11,,73,72
23220,note_on,,1,0,14,,,,,,,,,,,,,,,,10,,69,72
23220,note_on,,1,0,16,,,,,,,,,,,,,,,,12,,73,72
23249,note_on,,29,0,17,,,,,,,,,,,,,,,,13,,59,0
23249,note_on,,29,0,15,,,,,,,,,,,,,,,,11,,73,0
23249,note_on,,29,0,11,,,,,,,,,,,,,,,,7,,62,0
23249,note_on,,29,0,12,,,,,,,,,,,,,,,,8,,59,0
23249,note_on,,29,0,14,,,,,,,,,,,,,,,,10,,69,0
23249,note_on,,29,0,6,,,,,,,,,,,,,,,,2,,59,0
23249,note_on,,29,0,18,,,,,,,,,,,,,,,,15,,59,0
23250,note_on,,1,0,15,,,,,,,,,,,,,,,,11,,69,72
23250,note_on,,1,0,17,,,,,,,,,,,,,,,,13,,61,72
23250,note_on,,1,0,11,,,,,,,,,,,,,,,,7,,64,72
23250,note_on,,1,0,14,,,,,,,,,,,,,,,,10,,85,72
23250,note_on,,1,0,12,,,,,,,,,,,,,,,,8,,61,72
23250,note_on,,1,0,18,,,,,,,,,,,,,,,,15,,61,72
23250,note_on,,1,0,6,,,,,,,,,,,,,,,,2,,61,72
23279,note_on,,29,0,17,,,,,,,,,,,,,,,,13,,61,0
23279,note_on,,29,0,6,,,,,,,,,,,,,,,,2,,61,0
23279,note_on,,29,0,14,,,,,,,,,,,,,,,,10,,85,0
23279,note_on,,29,0,12,,,,,,,,,,,,,,,,8,,61,0
23279,note_on,,29,0,18,,,,,,,,,,,,,,,,15,,61,0
23279,note_on,,59,0,16,,,,,,,,,,,,,,,,12,,73,0
23279,note_on,,29,0,11,,,,,,,,,,,,,,,,7,,64,0
23279,note_on,,29,0,15,,,,,,,,,,,,,,,,11,,69,0
23280,note_on,,0,0,18,,,,,,,,,,,,,,,,15,,62,72
23280,note_on,,0,0,18,,,,,,,,,,,,,,,,15,,66,72
23280,note_on,,1,0,16,,,,,,,,,,,,,,,,12,,69,72
23280,note_on,,0,0,18,,,,,,,,,,,,,,,,15,,73,72
23280,note_on,,1,0,15,,,,,,,,,,,,,,,,11,,66,72
23280,note_on,,1,0,18,,,,,,,,,,,,,,,,15,,69,72
23280,note_on,,1,0,17,,,,,,,,,,,,,,,,13,,62,72
23280,note_on,,1,0,12,,,,,,,,,,,,,,,,8,,62,72
23280,note_on,,1,0,14,,,,,,,,,,,,,,,,10,,85,72
23280,note_on,,1,0,11,,,,,,,,,,,,,,,,7,,66,72
23280,note_on,,1,0,6,,,,,,,,,,,,,,,,2,,62,72
23309,note_on,,29,0,14,,,,,,,,,,,,,,,,10,,85,0
23309,note_on,,29,0,15,,,,,,,,,,,,,,,,11,,66,0
23310,note_on,,1,0,14,,,,,,,,,,,,,,,,10,,81,72
23310,note_on,,1,0,15,,,,,,,,,,,,,,,,11,,78,72
23339,note_on,,59,0,16,,,,,,,,,,,,,,,,12,,69,0
23339,note_on,,59,0,11,,,,,,,,,,,,,,,,7,,66,0
23339,note_on,,59,0,17,,,,,,,,,,,,,,,,13,,62,0
23339,note_on,,59,0,6,,,,,,,,,,,,,,,,2,,62,0
23339,note_on,,29,0,15,,,,,,,,,,,,,,,,11,,78,0
23339,note_on,,59,0,18,,,,,,,,,,,,,,,,15,,62,0
23339,note_on,,29,0,14,,,,,,,,,,,,,,,,10,,81,0
23339,note_on,,59,0,12,,,,,,,,,,,,,,,,8,,62,0
23340,note_on,,1,0,14,,,,,,,,,,,,,,,,10,,78,72
23340,note_on,,1,0,11,,,,,,,,,,,,,,,,7,,66,72
23340,note_on,,1,0,6,,,,,,,,,,,,,,,,2,,62,72
23340,note_on,,1,0,18,,,,,,,,,,,,,,,,15,,62,72
23340,note_on,,1,0,16,,,,,,,,,,,,,,,,12,,69,72
23340,note_on,,1,0,12,,,,,,,,,,,,,,,,8,,62,72
23340,note_on,,1,0,15,,,,,,,,,,,,,,,,11,,81,72
23340,note_on,,1,0,17,,,,,,,,,,,,,,,,13,,62,72
23369,note_on,,29,0,15,,,,,,,,,,,,,,,,11,,81,0
23369,note_on,,29,0,14,,,,,,,,,,,,,,,,10,,78,0
23370,note_on,,1,0,14,,,,,,,,,,,,,,,,10,,85,72
23370,note_on,,1,0,15,,,,,,,,,,,,,,,,11,,78,72
23399,note_on,,29,0,14,,,,,,,,,,,,,,,,10,,85,0
23399,note_on,,29,0,15,,,,,,,,,,,,,,,,11,,78,0
23399,note_on,,239,0,10,,,,,,,,,,,,,,,,6,,69,0
23399,note_on,,59,0,18,,,,,,,,,,,,,,,,15,,69,0
23399,note_on,,0,0,18,,,,,,,,,,,,,,,,15,,66,0
23399,note_on,,239,0,9,,,,,,,,,,,,,,,,5,,73,0
23399,note_on,,59,0,12,,,,,,,,,,,,,,,,8,,62,0
23399,note_on,,0,0,18,,,,,,,,,,,,,,,,15,,62,0
23399,note_on,,59,0,17,,,,,,,,,,,,,,,,13,,62,0
23399,note_on,,59,0,11,,,,,,,,,,,,,,,,7,,66,0
23399,note_on,,239,0,5,,,,,,,,,,,,,,,,1,,73,0
23399,note_on,,59,0,16,,,,,,,,,,,,,,,,12,,69,0
23399,note_on,,59,0,6,,,,,,,,,,,,,,,,2,,62,0
23399,note_on,,0,0,18,,,,,,,,,,,,,,,,15,,73,0
23400,note_on,,1,0,6,,,,,,,,,,,,,,,,2,,62,72
23400,note_on,,1,0,17,,,,,,,,,,,,,,,,13,,62,72
23400,note_on,,1,0,5,,,,,,,,,,,,,,,,1,,71,72
23400,note_on,,1,0,10,,,,,,,,,,,,,,,,6,,66,72
23400,note_on,,1,0,16,,,,,,,,,,,,,,,,12,,66,72
23400,note_on,,1,0,14,,,,,,,,,,,,,,,,10,,83,72
23400,note_on,,1,0,9,,,,,,,,,,,,,,,,5,,71,72
23400,note_on,,1,0,11,,,,,,,,,,,,,,,,7,,66,72
23400,note_on,,1,0,15,,,,,,,,,,,,,,,,11,,74,72
23400,note_on,,0,0,18,,,,,,,,,,,,,,,,15,,71,72
23400,note_on,,1,0,12,,,,,,,,,,,,,,,,8,,62,72
23400,note_on,,1,0,18,,,,,,,,,,,,,,,,15,,66,72
23400,note_on,,0,0,18,,,,,,,,,,,,,,,,15,,62,72
23429,note_on,,29,0,14,,,,,,,,,,,,,,,,10,,83,0
23429,note_on,,29,0,15,,,,,,,,,,,,,,,,11,,74,0
23430,note_on,,1,0,15,,,,,,,,,,,,,,,,11,,78,72
23430,note_on,,1,0,14,,,,,,,,,,,,,,,,10,,71,72
23459,note_on,,59,0,6,,,,,,,,,,,,,,,,2,,62,0
23459,note_on,,59,0,12,,,,,,,,,,,,,,,,8,,62,0
23459,note_on,,59,0,18,,,,,,,,,,,,,,,,15,,66,0
23459,note_on,,0,0,18,,,,,,,,,,,,,,,,15,,62,0
23459,note_on,,0,0,18,,,,,,,,,,,,,,,,15,,71,0
23459,note_on,,59,0,16,,,,,,,,,,,,,,,,12,,66,0
23459,note_on,,59,0,9,,,,,,,,,,,,,,,,5,,71,0
23459,note_on,,59,0,17,,,,,,,,,,,,,,,,13,,62,0
23459,note_on,,59,0,5,,,,,,,,,,,,,,,,1,,71,0
23459,note_on,,29,0,14,,,,,,,,,,,,,,,,10,,71,0
23459,note_on,,59,0,11,,,,,,,,,,,,,,,,7,,66,0
23459,note_on,,29,0,15,,,,,,,,,,,,,,,,11,,78,0
23460,note_on,,0,0,18,,,,,,,,,,,,,,,,15,,70,72
23460,note_on,,1,0,16,,,,,,,,,,,,,,,,12,,66,72
23460,note_on,,1,0,15,,,,,,,,,,,,,,,,11,,74,72
23460,note_on,,1,0,5,,,,,,,,,,,,,,,,1,,70,72
23460,note_on,,1,0,17,,,,,,,,,,,,,,,,13,,62,72
23460,note_on,,1,0,14,,,,,,,,,,,,,,,,10,,78,72
23460,note_on,,1,0,11,,,,,,,,,,,,,,,,7,,66,72
23460,note_on,,1,0,18,,,,,,,,,,,,,,,,15,,73,72
23460,note_on,,0,0,18,,,,,,,,,,,,,,,,15,,64,72
23460,note_on,,1,0,12,,,,,,,,,,,,,,,,8,,62,72
23460,note_on,,0,0,18,,,,,,,,,,,,,,,,15,,62,72
23460,note_on,,1,0,6,,,,,,,,,,,,,,,,2,,62,72
23460,note_on,,1,0,9,,,,,,,,,,,,,,,,5,,70,72
23489,note_on,,29,0,14,,,,,,,,,,,,,,,,10,,78,0
23489,note_on,,29,0,15,,,,,,,,,,,,,,,,11,,74,0
23490,note_on,,1,0,15,,,,,,,,,,,,,,,,11,,73,72
23490,note_on,,1,0,14,,,,,,,,,,,,,,,,10,,82,72
23519,note_on,,59,0,9,,,,,,,,,,,,,,,,5,,70,0
23519,note_on,,59,0,5,,,,,,,,,,,,,,,,1,,70,0
23519,note_on,,29,0,14,,,,,,,,,,,,,,,,10,,82,0
23519,note_on,,0,0,18,,,,,,,,,,,,,,,,15,,70,0
23519,note_on,,0,0,18,,,,,,,,,,,,,,,,15,,62,0
23519,note_on,,119,0,10,,,,,,,,,,,,,,,,6,,66,0
23519,note_on,,59,0,11,,,,,,,,,,,,,,,,7,,66,0
23519,note_on,,59,0,18,,,,,,,,,,,,,,,,15,,73,0
23519,note_on,,59,0,17,,,,,,,,,,,,,,,,13,,62,0
23519,note_on,,0,0,18,,,,,,,,,,,,,,,,15,,64,0
23519,note_on,,29,0,15,,,,,,,,,,,,,,,,11,,73,0
23519,note_on,,59,0,16,,,,,,,,,,,,,,,,12,,66,0
23519,note_on,,59,0,12,,,,,,,,,,,,,,,,8,,62,0
23519,note_on,,59,0,6,,,,,,,,,,,,,,,,2,,62,0
23520,note_on,,1,0,18,,,,,,,,,,,,,,,,15,,62,72
23520,note_on,,1,0,17,,,,,,,,,,,,,,,,13,,62,72
23520,note_on,,1,0,5,,,,,,,,,,,,,,,,1,,71,72
23520,note_on,,1,0,10,,,,,,,,,,,,,,,,6,,66,72
23520,note_on,,1,0,11,,,,,,,,,,,,,,,,7,,66,72
23520,note_on,,1,0,16,,,,,,,,,,,,,,,,12,,62,72
23520,note_on,,1,0,12,,,,,,,,,,,,,,,,8,,62,72
23520,note_on,,1,0,9,,,,,,,,,,,,,,,,5,,71,72
23520,note_on,,0,0,18,,,,,,,,,,,,,,,,15,,66,72
23520,note_on,,0,0,18,,,,,,,,,,,,,,,,15,,71,72
23520,note_on,,0,0,18,,,,,,,,,,,,,,,,15,,74,72
23520,note_on,,1,0,15,,,,,,,,,,,,,,,,11,,71,72
23520,note_on,,1,0,14,,,,,,,,,,,,,,,,10,,83,72
23520,note_on,,1,0,6,,,,,,,,,,,,,,,,2,,62,72
23549,note_on,,29,0,14,,,,,,,,,,,,,,,,10,,83,0
23549,note_on,,29,0,15,,,,,,,,,,,,,,,,11,,71,0
23550,note_on,,1,0,15,,,,,,,,,,,,,,,,11,,74,72
23550,note_on,,1,0,14,,,,,,,,,,,,,,,,10,,78,72
23579,note_on,,29,0,14,,,,,,,,,,,,,,,,10,,78,0
23579,note_on,,29,0,15,,,,,,,,,,,,,,,,11,,74,0
23579,note_on,,59,0,11,,,,,,,,,,,,,,,,7,,66,0
23579,note_on,,59,0,16,,,,,,,,,,,,,,,,12,,62,0
23579,note_on,,59,0,17,,,,,,,,,,,,,,,,13,,62,0
23579,note_on,,59,0,12,,,,,,,,,,,,,,,,8,,62,0
23579,note_on,,59,0,18,,,,,,,,,,,,,,,,15,,62,0
23579,note_on,,0,0,18,,,,,,,,,,,,,,,,15,,66,0
23579,note_on,,0,0,18,,,,,,,,,,,,,,,,15,,71,0
23579,note_on,,0,0,18,,,,,,,,,,,,,,,,15,,74,0
23579,note_on,,59,0,6,,,,,,,,,,,,,,,,2,,62,0
23580,note_on,,1,0,14,,,,,,,,,,,,,,,,10,,74,72
23580,note_on,,1,0,17,,,,,,,,,,,,,,,,13,,62,72
23580,note_on,,1,0,12,,,,,,,,,,,,,,,,8,,62,72
23580,note_on,,1,0,15,,,,,,,,,,,,,,,,11,,78,72
23580,note_on,,1,0,18,,,,,,,,,,,,,,,,15,,62,72
23580,note_on,,1,0,16,,,,,,,,,,,,,,,,12,,62,72
23580,note_on,,1,0,11,,,,,,,,,,,,,,,,7,,66,72
23580,note_on,,1,0,6,,,,,,,,,,,,,,,,2,,62,72
23609,note_on,,29,0,14,,,,,,,,,,,,,,,,10,,74,0
23609,note_on,,29,0,15,,,,,,,,,,,,,,,,11,,78,0
23610,note_on,,1,0,15,,,,,,,,,,,,,,,,11,,74,72
23610,note_on,,1,0,14,,,,,,,,,,,,,,,,10,,83,72
23639,note_on,,59,0,16,,,,,,,,,,,,,,,,12,,62,0
23639,note_on,,59,0,17,,,,,,,,,,,,,,,,13,,62,0
23639,note_on,,59,0,11,,,,,,,,,,,,,,,,7,,66,0
23639,note_on,,59,0,6,,,,,,,,,,,,,,,,2,,62,0
23639,note_on,,29,0,14,,,,,,,,,,,,,,,,10,,83,0
23639,note_on,,59,0,18,,,,,,,,,,,,,,,,15,,62,0
23639,note_on,,59,0,12,,,,,,,,,,,,,,,,8,,62,0
23639,note_on,,29,0,15,,,,,,,,,,,,,,,,11,,74,0
23640,note_on,,1,0,6,,,,,,,,,,,,,,,,2,,62,72
23640,note_on,,0,0,18,,,,,,,,,,,,,,,,15,,62,72
23640,note_on,,0,0,18,,,,,,,,,,,,,,,,15,,78,72
23640,note_on,,0,0,18,,,,,,,,,,,,,,,,15,,71,72
23640,note_on,,1,0,12,,,,,,,,,,,,,,,,8,,62,72
23640,note_on,,1,0,11,,,,,,,,,,,,,,,,7,,62,72
23640,note_on,,1,0,18,,,,,,,,,,,,,,,,15,,74,72
23640,note_on,,1,0,16,,,,,,,,,,,,,,,,12,,62,72
23640,note_on,,1,0,17,,,,,,,,,,,,,,,,13,,62,72
23640,note_on,,1,0,15,,,,,,,,,,,,,,,,11,,71,72
23640,note_on,,1,0,14,,,,,,,,,,,,,,,,10,,83,72
23669,note_on,,29,0,15,,,,,,,,,,,,,,,,11,,71,0
23669,note_on,,29,0,14,,,,,,,,,,,,,,,,10,,83,0
23670,note_on,,1,0,14,,,,,,,,,,,,,,,,10,,78,72
23670,note_on,,1,0,15,,,,,,,,,,,,,,,,11,,74,72
23699,note_on,,59,0,12,,,,,,,,,,,,,,,,8,,62,0
23699,note_on,,0,0,18,,,,,,,,,,,,,,,,15,,62,0
23699,note_on,,0,0,18,,,,,,,,,,,,,,,,15,,71,0
23699,note_on,,59,0,18,,,,,,,,,,,,,,,,15,,74,0
23699,note_on,,59,0,6,,,,,,,,,,,,,,,,2,,62,0
23699,note_on,,59,0,11,,,,,,,,,,,,,,,,7,,62,0
23699,note_on,,59,0,16,,,,,,,,,,,,,,,,12,,62,0
23699,note_on,,29,0,15,,,,,,,,,,,,,,,,11,,74,0
23699,note_on,,29,0,14,,,,,,,,,,,,,,,,10,,78,0
23699,note_on,,179,0,9,,,,,,,,,,,,,,,,5,,71,0
23699,note_on,,59,0,17,,,,,,,,,,,,,,,,13,,62,0
23699,note_on,,179,0,10,,,,,,,,,,,,,,,,6,,66,0
23699,note_on,,179,0,5,,,,,,,,,,,,,,,,1,,71,0
23699,note_on,,0,0,18,,,,,,,,,,,,,,,,15,,78,0
23700,note_on,,1,0,6,,,,,,,,,,,,,,,,2,,62,72
23700,note_on,,1,0,17,,,,,,,,,,,,,,,,13,,62,72
23700,note_on,,1,0,14,,,,,,,,,,,,,,,,10,,71,72
23700,note_on,,1,0,9,,,,,,,,,,,,,,,,5,,71,72
23700,note_on,,1,0,18,,,,,,,,,,,,,,,,15,,62,72
23700,note_on,,1,0,16,,,,,,,,,,,,,,,,12,,62,72
23700,note_on,,1,0,11,,,,,,,,,,,,,,,,7,,62,72
23700,note_on,,1,0,10,,,,,,,,,,,,,,,,6,,68,72
23700,note_on,,1,0,5,,,,,,,,,,,,,,,,1,,71,72
23700,note_on,,1,0,12,,,,,,,,,,,,,,,,8,,62,72
23700,note_on,,1,0,15,,,,,,,,,,,,,,,,11,,80,72
23729,note_on,,29,0,14,,,,,,,,,,,,,,,,10,,71,0
23729,note_on,,29,0,15,,,,,,,,,,,,,,,,11,,80,0
23730,note_on,,1,0,14,,,,,,,,,,,,,,,,10,,83,72
23730,note_on,,1,0,15,,,,,,,,,,,,,,,,11,,74,72
23759,note_on,,59,0,18,,,,,,,,,,,,,,,,15,,62,0
23759,note_on,,59,0,6,,,,,,,,,,,,,,,,2,,62,0
23759,note_on,,59,0,11,,,,,,,,,,,,,,,,7,,62,0
23759,note_on,,59,0,10,,,,,,,,,,,,,,,,6,,68,0
23759,note_on,,59,0,5,,,,,,,,,,,,,,,,1,,71,0
23759,note_on,,29,0,15,,,,,,,,,,,,,,,,11,,74,0
23759,note_on,,59,0,17,,,,,,,,,,,,,,,,13,,62,0
23759,note_on,,59,0,9,,,,,,,,,,,,,,,,5,,71,0
23759,note_on,,59,0,16,,,,,,,,,,,,,,,,12,,62,0
23759,note_on,,29,0,14,,,,,,,,,,,,,,,,10,,83,0
23759,note_on,,59,0,12,,,,,,,,,,,,,,,,8,,62,0
23760,note_on,,1,0,9,,,,,,,,,,,,,,,,5,,71,72
23760,note_on,,1,0,10,,,,,,,,,,,,,,,,6,,68,72
23760,note_on,,1,0,11,,,,,,,,,,,,,,,,7,,61,72
23760,note_on,,1,0,16,,,,,,,,,,,,,,,,12,,68,72
23760,note_on,,0,0,18,,,,,,,,,,,,,,,,15,,61,72
23760,note_on,,1,0,17,,,,,,,,,,,,,,,,13,,53,72
23760,note_on,,0,0,18,,,,,,,,,,,,,,,,15,,71,72
23760,note_on,,0,0,18,,,,,,,,,,,,,,,,15,,73,72
23760,note_on,,1,0,18,,,,,,,,,,,,,,,,15,,53,72
23760,note_on,,0,0,18,,,,,,,,,,,,,,,,15,,80,72
23760,note_on,,1,0,14,,,,,,,,,,,,,,,,10,,83,72
23760,note_on,,1,0,6,,,,,,,,,,,,,,,,2,,53,72
23760,note_on,,1,0,5,,,,,,,,,,,,,,,,1,,71,72
23760,note_on,,1,0,15,,,,,,,,,,,,,,,,11,,73,72
23760,note_on,,1,0,12,,,,,,,,,,,,,,,,8,,53,72
23789,note_on,,29,0,14,,,,,,,,,,,,,,,,10,,83,0
23789,note_on,,29,0,15,,,,,,,,,,,,,,,,11,,73,0
23790,note_on,,1,0,15,,,,,,,,,,,,,,,,11,,77,72
23790,note_on,,1,0,14,,,,,,,,,,,,,,,,10,,80,72
23819,note_on,,29,0,14,,,,,,,,,,,,,,,,10,,80,0
23819,note_on,,59,0,16,,,,,,,,,,,,,,,,12,,68,0
23819,note_on,,29,0,15,,,,,,,,,,,,,,,,11,,77,0
23820,note_on,,1,0,16,,,,,,,,,,,,,,,,12,,68,72
23820,note_on,,1,0,14,,,,,,,,,,,,,,,,10,,73,72
23820,note_on,,1,0,15,,,,,,,,,,,,,,,,11,,79,72
23849,note_on,,29,0,15,,,,,,,,,,,,,,,,11,,79,0
23849,note_on,,29,0,14,,,,,,,,,,,,,,,,10,,73,0
23850,note_on,,1,0,15,,,,,,,,,,,,,,,,11,,77,72
23850,note_on,,1,0,14,,,,,,,,,,,,,,,,10,,83,72
23879,note_on,,119,0,10,,,,,,,,,,,,,,,,6,,68,0
23879,note_on,,59,0,16,,,,,,,,,,,,,,,,12,,68,0
23879,note_on,,119,0,9,,,,,,,,,,,,,,,,5,,71,0
23879,note_on,,29,0,15,,,,,,,,,,,,,,,,11,,77,0
23879,note_on,,119,0,5,,,,,,,,,,,,,,,,1,,71,0
23879,note_on,,0,0,18,,,,,,,,,,,,,,,,15,,80,0
23879,note_on,,0,0,18,,,,,,,,,,,,,,,,15,,71,0
23879,note_on,,0,0,18,,,,,,,,,,,,,,,,15,,73,0
23879,note_on,,119,0,18,,,,,,,,,,,,,,,,15,,53,0
23879,note_on,,119,0,12,,,,,,,,,,,,,,,,8,,53,0
23879,note_on,,119,0,17,,,,,,,,,,,,,,,,13,,53,0
23879,note_on,,29,0,14,,,,,,,,,,,,,,,,10,,83,0
23879,note_on,,119,0,11,,,,,,,,,,,,,,,,7,,61,0
23879,note_on,,119,0,6,,,,,,,,,,,,,,,,2,,53,0
23879,note_on,,0,0,18,,,,,,,,,,,,,,,,15,,61,0
23880,note_on,,1,0,6,,,,,,,,,,,,,,,,2,,54,72
23880,note_on,,1,0,5,,,,,,,,,,,,,,,,1,,69,72
23880,note_on,,1,0,18,,,,,,,,,,,,,,,,15,,66,72
23880,note_on,,0,0,18,,,,,,,,,,,,,,,,15,,73,72
23880,note_on,,0,0,18,,,,,,,,,,,,,,,,15,,69,72
23880,note_on,,0,0,18,,,,,,,,,,,,,,,,15,,61,72
23880,note_on,,1,0,11,,,,,,,,,,,,,,,,7,,61,72
23880,note_on,,1,0,15,,,,,,,,,,,,,,,,11,,73,72
23880,note_on,,1,0,10,,,,,,,,,,,,,,,,6,,66,72
23880,note_on,,0,0,18,,,,,,,,,,,,,,,,15,,54,72
23880,note_on,,1,0,12,,,,,,,,,,,,,,,,8,,54,72
23880,note_on,,1,0,17,,,,,,,,,,,,,,,,13,,54,72
23880,note_on,,1,0,9,,,,,,,,,,,,,,,,5,,69,72
23880,note_on,,1,0,14,,,,,,,,,,,,,,,,10,,81,72
23880,note_on,,1,0,16,,,,,,,,,,,,,,,,12,,66,72
23909,note_on,,29,0,14,,,,,,,,,,,,,,,,10,,81,0
23909,note_on,,29,0,15,,,,,,,,,,,,,,,,11,,73,0
23910,note_on,,1,0,14,,,,,,,,,,,,,,,,10,,73,72
23910,note_on,,1,0,15,,,,,,,,,,,,,,,,11,,78,72
23939,note_on,,29,0,14,,,,,,,,,,,,,,,,10,,73,0
23939,note_on,,59,0,16,,,,,,,,,,,,,,,,12,,66,0
23939,note_on,,29,0,15,,,,,,,,,,,,,,,,11,,78,0
23940,note_on,,1,0,14,,,,,,,,,,,,,,,,10,,78,72
23940,note_on,,1,0,15,,,,,,,,,,,,,,,,11,,81,72
23940,note_on,,1,0,16,,,,,,,,,,,,,,,,12,,61,72
23969,note_on,,89,0,5,,,,,,,,,,,,,,,,1,,69,0
23969,note_on,,29,0,14,,,,,,,,,,,,,,,,10,,78,0
23969,note_on,,89,0,9,,,,,,,,,,,,,,,,5,,69,0
23969,note_on,,29,0,15,,,,,,,,,,,,,,,,11,,81,0
23970,note_on,,1,0,5,,,,,,,,,,,,,,,,1,,71,72
23970,note_on,,1,0,14,,,,,,,,,,,,,,,,10,,83,72
23970,note_on,,1,0,9,,,,,,,,,,,,,,,,5,,71,72
23970,note_on,,1,0,15,,,,,,,,,,,,,,,,11,,78,72
23999,note_on,,119,0,12,,,,,,,,,,,,,,,,8,,54,0
23999,note_on,,29,0,5,,,,,,,,,,,,,,,,1,,71,0
23999,note_on,,119,0,11,,,,,,,,,,,,,,,,7,,61,0
23999,note_on,,0,0,18,,,,,,,,,,,,,,,,15,,73,0
23999,note_on,,29,0,15,,,,,,,,,,,,,,,,11,,78,0
23999,note_on,,0,0,18,,,,,,,,,,,,,,,,15,,69,0
23999,note_on,,0,0,18,,,,,,,,,,,,,,,,15,,54,0
23999,note_on,,0,0,18,,,,,,,,,,,,,,,,15,,61,0
23999,note_on,,119,0,18,,,,,,,,,,,,,,,,15,,66,0
23999,note_on,,59,0,16,,,,,,,,,,,,,,,,12,,61,0
23999,note_on,,119,0,17,,,,,,,,,,,,,,,,13,,54,0
23999,note_on,,29,0,9,,,,,,,,,,,,,,,,5,,71,0
23999,note_on,,29,0,14,,,,,,,,,,,,,,,,10,,83,0
23999,note_on,,119,0,6,,,,,,,,,,,,,,,,2,,54,0
24000,note_on,,1,0,12,,,,,,,,,,,,,,,,8,,49,72
24000,note_on,,1,0,17,,,,,,,,,,,,,,,,13,,49,72
24000,note_on,,1,0,18,,,,,,,,,,,,,,,,15,,49,72
24000,note_on,,0,0,18,,,,,,,,,,,,,,,,15,,61,72
24000,note_on,,0,0,18,,,,,,,,,,,,,,,,15,,73,72
24000,note_on,,1,0,9,,,,,,,,,,,,,,,,5,,68,72
24000,note_on,,1,0,14,,,,,,,,,,,,,,,,10,,80,72
24000,note_on,,0,0,18,,,,,,,,,,,,,,,,15,,66,72
24000,note_on,,1,0,5,,,,,,,,,,,,,,,,1,,68,72
24000,note_on,,1,0,6,,,,,,,,,,,,,,,,2,,49,72
24000,note_on,,0,0,18,,,,,,,,,,,,,,,,15,,68,72
24000,note_on,,1,0,16,,,,,,,,,,,,,,,,12,,61,72
24000,note_on,,1,0,11,,,,,,,,,,,,,,,,7,,61,72
24000,note_on,,1,0,15,,,,,,,,,,,,,,,,11,,78,72
24029,note_on,,29,0,14,,,,,,,,,,,,,,,,10,,80,0
24030,note_on,,1,0,14,,,,,,,,,,,,,,,,10,,73,72
24059,note_on,,29,0,14,,,,,,,,,,,,,,,,10,,73,0
24059,note_on,,59,0,16,,,,,,,,,,,,,,,,12,,61,0
24059,note_on,,59,0,15,,,,,,,,,,,,,,,,11,,78,0
24060,note_on,,1,0,14,,,,,,,,,,,,,,,,10,,68,72
24060,note_on,,1,0,15,,,,,,,,,,,,,,,,11,,78,72
24060,note_on,,1,0,16,,,,,,,,,,,,,,,,12,,61,72
24089,note_on,,29,0,14,,,,,,,,,,,,,,,,10,,68,0
24090,note_on,,1,0,14,,,,,,,,,,,,,,,,10,,80,72
24119,note_on,,119,0,18,,,,,,,,,,,,,,,,15,,61,0
24119,note_on,,239,0,10,,,,,,,,,,,,,,,,6,,66,0
24119,note_on,,59,0,16,,,,,,,,,,,,,,,,12,,61,0
24119,note_on,,59,0,15,,,,,,,,,,,,,,,,11,,78,0
24119,note_on,,0,0,18,,,,,,,,,,,,,,,,15,,66,0
24119,note_on,,29,0,14,,,,,,,,,,,,,,,,10,,80,0
24120,note_on,,1,0,16,,,,,,,,,,,,,,,,12,,61,72
24120,note_on,,1,0,14,,,,,,,,,,,,,,,,10,,80,72
24120,note_on,,1,0,15,,,,,,,,,,,,,,,,11,,77,72
24120,note_on,,1,0,18,,,,,,,,,,,,,,,,15,,65,72
24120,note_on,,0,0,18,,,,,,,,,,,,,,,,15,,55,72
24120,note_on,,1,0,10,,,,,,,,,,,,,,,,6,,65,72
24149,note_on,,29,0,14,,,,,,,,,,,,,,,,10,,80,0
24150,note_on,,1,0,14,,,,,,,,,,,,,,,,10,,73,72
24179,note_on,,29,0,14,,,,,,,,,,,,,,,,10,,73,0
24179,note_on,,59,0,16,,,,,,,,,,,,,,,,12,,61,0
24179,note_on,,59,0,15,,,,,,,,,,,,,,,,11,,77,0
24180,note_on,,1,0,14,,,,,,,,,,,,,,,,10,,71,72
24180,note_on,,1,0,16,,,,,,,,,,,,,,,,12,,61,72
24180,note_on,,1,0,15,,,,,,,,,,,,,,,,11,,77,72
24209,note_on,,29,0,14,,,,,,,,,,,,,,,,10,,71,0
24210,note_on,,1,0,14,,,,,,,,,,,,,,,,10,,80,72
24239,note_on,,59,0,16,,,,,,,,,,,,,,,,12,,61,0
24239,note_on,,0,0,18,,,,,,,,,,,,,,,,15,,55,0
24239,note_on,,0,0,18,,,,,,,,,,,,,,,,15,,65,0
24239,note_on,,0,0,18,,,,,,,,,,,,,,,,15,,73,0
24239,note_on,,119,0,18,,,,,,,,,,,,,,,,15,,49,0
24239,note_on,,239,0,9,,,,,,,,,,,,,,,,5,,68,0
24239,note_on,,0,0,18,,,,,,,,,,,,,,,,15,,68,0
24239,note_on,,119,0,10,,,,,,,,,,,,,,,,6,,65,0
24239,note_on,,239,0,12,,,,,,,,,,,,,,,,8,,49,0
24239,note_on,,239,0,17,,,,,,,,,,,,,,,,13,,49,0
24239,note_on,,239,0,11,,,,,,,,,,,,,,,,7,,61,0
24239,note_on,,239,0,5,,,,,,,,,,,,,,,,1,,68,0
24239,note_on,,29,0,14,,,,,,,,,,,,,,,,10,,80,0
24239,note_on,,239,0,6,,,,,,,,,,,,,,,,2,,49,0
24239,note_on,,59,0,15,,,,,,,,,,,,,,,,11,,77,0
24240,note_on,,1,0,10,,,,,,,,,,,,,,,,6,,66,72
24240,note_on,,1,0,5,,,,,,,,,,,,,,,,1,,69,72
24240,note_on,,1,0,11,,,,,,,,,,,,,,,,7,,61,72
24240,note_on,,1,0,16,,,,,,,,,,,,,,,,12,,69,72
24240,note_on,,1,0,14,,,,,,,,,,,,,,,,10,,78,72
24240,note_on,,0,0,18,,,,,,,,,,,,,,,,15,,66,72
24240,note_on,,0,0,18,,,,,,,,,,,,,,,,15,,57,72
24240,note_on,,0,0,18,,,,,,,,,,,,,,,,15,,61,72
24240,note_on,,1,0,9,,,,,,,,,,,,,,,,5,,69,72
24240,note_on,,1,0,12,,,,,,,,,,,,,,,,8,,54,72
24240,note_on,,1,0,17,,,,,,,,,,,,,,,,13,,54,72
24240,note_on,,1,0,15,,,,,,,,,,,,,,,,11,,78,72
24240,note_on,,1,0,18,,,,,,,,,,,,,,,,15,,54,72
24240,note_on,,1,0,6,,,,,,,,,,,,,,,,2,,54,72
24240,note_on,,0,0,18,,,,,,,,,,,,,,,,15,,69,72
24269,note_on,,29,0,14,,,,,,,,,,,,,,,,10,,78,0
24269,note_on,,29,0,15,,,,,,,,,,,,,,,,11,,78,0
24270,note_on,,1,0,14,,,,,,,,,,,,,,,,10,,66,72
24270,note_on,,1,0,15,,,,,,,,,,,,,,,,11,,69,72
24299,note_on,,59,0,16,,,,,,,,,,,,,,,,12,,69,0
24299,note_on,,29,0,14,,,,,,,,,,,,,,,,10,,66,0
24299,note_on,,29,0,15,,,,,,,,,,,,,,,,11,,69,0
24300,note_on,,1,0,16,,,,,,,,,,,,,,,,12,,66,72
24300,note_on,,1,0,14,,,,,,,,,,,,,,,,10,,69,72
24300,note_on,,1,0,15,,,,,,,,,,,,,,,,11,,73,72
24329,note_on,,29,0,14,,,,,,,,,,,,,,,,10,,69,0
24329,note_on,,29,0,15,,,,,,,,,,,,,,,,11,,73,0
24330,note_on,,1,0,14,,,,,,,,,,,,,,,,10,,73,72
24330,note_on,,1,0,15,,,,,,,,,,,,,,,,11,,78,72
24359,note_on,,0,0,18,,,,,,,,,,,,,,,,15,,57,0
24359,note_on,,119,0,5,,,,,,,,,,,,,,,,1,,69,0
24359,note_on,,0,0,18,,,,,,,,,,,,,,,,15,,61,0
24359,note_on,,29,0,14,,,,,,,,,,,,,,,,10,,73,0
24359,note_on,,0,0,18,,,,,,,,,,,,,,,,15,,69,0
24359,note_on,,0,0,18,,,,,,,,,,,,,,,,15,,66,0
24359,note_on,,119,0,18,,,,,,,,,,,,,,,,15,,54,0
24359,note_on,,119,0,12,,,,,,,,,,,,,,,,8,,54,0
24359,note_on,,119,0,6,,,,,,,,,,,,,,,,2,,54,0
24359,note_on,,119,0,10,,,,,,,,,,,,,,,,6,,66,0
24359,note_on,,119,0,17,,,,,,,,,,,,,,,,13,,54,0
24359,note_on,,119,0,11,,,,,,,,,,,,,,,,7,,61,0
24359,note_on,,119,0,9,,,,,,,,,,,,,,,,5,,69,0
24359,note_on,,29,0,15,,,,,,,,,,,,,,,,11,,78,0
24359,note_on,,59,0,16,,,,,,,,,,,,,,,,12,,66,0
24360,note_on,,1,0,10,,,,,,,,,,,,,,,,6,,66,72
24360,note_on,,1,0,14,,,,,,,,,,,,,,,,10,,78,72
24360,note_on,,1,0,9,,,,,,,,,,,,,,,,5,,74,72
24360,note_on,,1,0,17,,,,,,,,,,,,,,,,13,,62,72
24360,note_on,,1,0,18,,,,,,,,,,,,,,,,15,,62,72
24360,note_on,,1,0,11,,,,,,,,,,,,,,,,7,,62,72
24360,note_on,,1,0,5,,,,,,,,,,,,,,,,1,,74,72
24360,note_on,,1,0,15,,,,,,,,,,,,,,,,11,,81,72
24360,note_on,,1,0,16,,,,,,,,,,,,,,,,12,,62,72
24419,note_on,,59,0,14,,,,,,,,,,,,,,,,10,,78,0
24419,note_on,,59,0,11,,,,,,,,,,,,,,,,7,,62,0
24419,note_on,,59,0,10,,,,,,,,,,,,,,,,6,,66,0
24419,note_on,,59,0,17,,,,,,,,,,,,,,,,13,,62,0
24419,note_on,,59,0,15,,,,,,,,,,,,,,,,11,,81,0
24419,note_on,,59,0,16,,,,,,,,,,,,,,,,12,,62,0
24419,note_on,,59,0,5,,,,,,,,,,,,,,,,1,,74,0
24419,note_on,,59,0,9,,,,,,,,,,,,,,,,5,,74,0
24419,note_on,,59,0,18,,,,,,,,,,,,,,,,15,,62,0
24420,note_on,,1,0,16,,,,,,,,,,,,,,,,12,,64,72
24420,note_on,,1,0,17,,,,,,,,,,,,,,,,13,,64,72
24420,note_on,,1,0,10,,,,,,,,,,,,,,,,6,,67,72
24420,note_on,,1,0,18,,,,,,,,,,,,,,,,15,,64,72
24420,note_on,,1,0,5,,,,,,,,,,,,,,,,1,,74,72
24420,note_on,,1,0,9,,,,,,,,,,,,,,,,5,,74,72
24420,note_on,,1,0,15,,,,,,,,,,,,,,,,11,,74,72
24420,note_on,,1,0,11,,,,,,,,,,,,,,,,7,,64,72
24420,note_on,,1,0,14,,,,,,,,,,,,,,,,10,,79,72
24449,note_on,,29,0,18,,,,,,,,,,,,,,,,15,,64,0
24449,note_on,,29,0,14,,,,,,,,,,,,,,,,10,,79,0
24449,note_on,,29,0,11,,,,,,,,,,,,,,,,7,,64,0
24449,note_on,,29,0,10,,,,,,,,,,,,,,,,6,,67,0
24449,note_on,,29,0,17,,,,,,,,,,,,,,,,13,,64,0
24449,note_on,,29,0,9,,,,,,,,,,,,,,,,5,,74,0
24449,note_on,,29,0,5,,,,,,,,,,,,,,,,1,,74,0
24449,note_on,,29,0,16,,,,,,,,,,,,,,,,12,,64,0
24450,note_on,,1,0,5,,,,,,,,,,,,,,,,1,,74,72
24450,note_on,,1,0,10,,,,,,,,,,,,,,,,6,,69,72
24450,note_on,,1,0,14,,,,,,,,,,,,,,,,10,,81,72
24450,note_on,,1,0,9,,,,,,,,,,,,,,,,5,,74,72
24450,note_on,,1,0,18,,,,,,,,,,,,,,,,15,,66,72
24450,note_on,,1,0,11,,,,,,,,,,,,,,,,7,,66,72
24450,note_on,,1,0,16,,,,,,,,,,,,,,,,12,,66,72
24450,note_on,,1,0,17,,,,,,,,,,,,,,,,13,,66,72
24479,note_on,,29,0,5,,,,,,,,,,,,,,,,1,,74,0
24479,note_on,,29,0,10,,,,,,,,,,,,,,,,6,,69,0
24479,note_on,,29,0,18,,,,,,,,,,,,,,,,15,,66,0
24479,note_on,,29,0,11,,,,,,,,,,,,,,,,7,,66,0
24479,note_on,,59,0,15,,,,,,,,,,,,,,,,11,,74,0
24479,note_on,,29,0,17,,,,,,,,,,,,,,,,13,,66,0
24479,note_on,,29,0,9,,,,,,,,,,,,,,,,5,,74,0
24479,note_on,,29,0,14,,,,,,,,,,,,,,,,10,,81,0
24479,note_on,,29,0,16,,,,,,,,,,,,,,,,12,,66,0
24480,note_on,,1,0,14,,,,,,,,,,,,,,,,10,,83,72
24480,note_on,,1,0,16,,,,,,,,,,,,,,,,12,,67,72
24480,note_on,,1,0,11,,,,,,,,,,,,,,,,7,,67,72
24480,note_on,,1,0,15,,,,,,,,,,,,,,,,11,,74,72
24480,note_on,,1,0,5,,,,,,,,,,,,,,,,1,,74,72
24480,note_on,,1,0,17,,,,,,,,,,,,,,,,13,,67,72
24480,note_on,,1,0,9,,,,,,,,,,,,,,,,5,,74,72
24480,note_on,,1,0,10,,,,,,,,,,,,,,,,6,,71,72
24480,note_on,,1,0,18,,,,,,,,,,,,,,,,15,,67,72
24509,note_on,,29,0,15,,,,,,,,,,,,,,,,11,,74,0
24509,note_on,,29,0,14,,,,,,,,,,,,,,,,10,,83,0
24510,note_on,,1,0,14,,,,,,,,,,,,,,,,10,,79,72
24510,note_on,,1,0,15,,,,,,,,,,,,,,,,11,,71,72
24539,note_on,,59,0,9,,,,,,,,,,,,,,,,5,,74,0
24539,note_on,,59,0,5,,,,,,,,,,,,,,,,1,,74,0
24539,note_on,,59,0,11,,,,,,,,,,,,,,,,7,,67,0
24539,note_on,,59,0,17,,,,,,,,,,,,,,,,13,,67,0
24539,note_on,,59,0,18,,,,,,,,,,,,,,,,15,,67,0
24539,note_on,,29,0,14,,,,,,,,,,,,,,,,10,,79,0
24539,note_on,,59,0,16,,,,,,,,,,,,,,,,12,,67,0
24539,note_on,,29,0,15,,,,,,,,,,,,,,,,11,,71,0
24539,note_on,,59,0,10,,,,,,,,,,,,,,,,6,,71,0
24540,note_on,,1,0,10,,,,,,,,,,,,,,,,6,,67,72
24540,note_on,,1,0,11,,,,,,,,,,,,,,,,7,,67,72
24540,note_on,,1,0,15,,,,,,,,,,,,,,,,11,,74,72
24540,note_on,,1,0,17,,,,,,,,,,,,,,,,13,,67,72
24540,note_on,,1,0,18,,,,,,,,,,,,,,,,15,,67,72
24540,note_on,,1,0,14,,,,,,,,,,,,,,,,10,,83,72
24540,note_on,,1,0,9,,,,,,,,,,,,,,,,5,,71,72
24540,note_on,,1,0,5,,,,,,,,,,,,,,,,1,,71,72
24540,note_on,,1,0,16,,,,,,,,,,,,,,,,12,,67,72
24569,note_on,,29,0,14,,,,,,,,,,,,,,,,10,,83,0
24569,note_on,,29,0,15,,,,,,,,,,,,,,,,11,,74,0
24570,note_on,,1,0,15,,,,,,,,,,,,,,,,11,,83,72
24570,note_on,,1,0,14,,,,,,,,,,,,,,,,10,,86,72
24599,note_on,,29,0,14,,,,,,,,,,,,,,,,10,,86,0
24599,note_on,,59,0,16,,,,,,,,,,,,,,,,12,,67,0
24599,note_on,,59,0,17,,,,,,,,,,,,,,,,13,,67,0
24599,note_on,,59,0,5,,,,,,,,,,,,,,,,1,,71,0
24599,note_on,,59,0,11,,,,,,,,,,,,,,,,7,,67,0
24599,note_on,,29,0,15,,,,,,,,,,,,,,,,11,,83,0
24599,note_on,,59,0,10,,,,,,,,,,,,,,,,6,,67,0
24599,note_on,,59,0,18,,,,,,,,,,,,,,,,15,,67,0
24599,note_on,,59,0,9,,,,,,,,,,,,,,,,5,,71,0
24600,note_on,,1,0,16,,,,,,,,,,,,,,,,12,,67,72
24600,note_on,,1,0,10,,,,,,,,,,,,,,,,6,,67,72
24600,note_on,,1,0,15,,,,,,,,,,,,,,,,11,,79,72
24600,note_on,,1,0,14,,,,,,,,,,,,,,,,10,,83,72
24600,note_on,,1,0,9,,,,,,,,,,,,,,,,5,,71,72
24600,note_on,,1,0,17,,,,,,,,,,,,,,,,13,,67,72
24600,note_on,,0,0,18,,,,,,,,,,,,,,,,15,,67,72
24600,note_on,,0,0,18,,,,,,,,,,,,,,,,15,,74,72
24600,note_on,,1,0,11,,,,,,,,,,,,,,,,7,,67,72
24600,note_on,,1,0,5,,,,,,,,,,,,,,,,1,,71,72
24600,note_on,,1,0,18,,,,,,,,,,,,,,,,15,,71,72
24629,note_on,,29,0,14,,,,,,,,,,,,,,,,10,,83,0
24629,note_on,,29,0,15,,,,,,,,,,,,,,,,11,,79,0
24630,note_on,,1,0,14,,,,,,,,,,,,,,,,10,,79,72
24630,note_on,,1,0,15,,,,,,,,,,,,,,,,11,,74,72
24659,note_on,,0,0,18,,,,,,,,,,,,,,,,15,,67,0
24659,note_on,,59,0,5,,,,,,,,,,,,,,,,1,,71,0
24659,note_on,,0,0,18,,,,,,,,,,,,,,,,15,,74,0
24659,note_on,,59,0,18,,,,,,,,,,,,,,,,15,,71,0
24659,note_on,,59,0,10,,,,,,,,,,,,,,,,6,,67,0
24659,note_on,,59,0,17,,,,,,,,,,,,,,,,13,,67,0
24659,note_on,,29,0,14,,,,,,,,,,,,,,,,10,,79,0
24659,note_on,,59,0,11,,,,,,,,,,,,,,,,7,,67,0
24659,note_on,,29,0,15,,,,,,,,,,,,,,,,11,,74,0
24659,note_on,,59,0,9,,,,,,,,,,,,,,,,5,,71,0
24659,note_on,,59,0,16,,,,,,,,,,,,,,,,12,,67,0
24660,note_on,,1,0,14,,,,,,,,,,,,,,,,10,,83,72
24660,note_on,,1,0,15,,,,,,,,,,,,,,,,11,,79,72
24660,note_on,,1,0,18,,,,,,,,,,,,,,,,15,,67,72
24660,note_on,,1,0,11,,,,,,,,,,,,,,,,7,,67,72
24660,note_on,,1,0,16,,,,,,,,,,,,,,,,12,,67,72
24660,note_on,,1,0,5,,,,,,,,,,,,,,,,1,,74,72
24660,note_on,,1,0,17,,,,,,,,,,,,,,,,13,,67,72
24660,note_on,,1,0,10,,,,,,,,,,,,,,,,6,,71,72
24660,note_on,,1,0,9,,,,,,,,,,,,,,,,5,,74,72
24689,note_on,,29,0,14,,,,,,,,,,,,,,,,10,,83,0
24689,note_on,,29,0,15,,,,,,,,,,,,,,,,11,,79,0
24690,note_on,,1,0,14,,,,,,,,,,,,,,,,10,,86,72
24690,note_on,,1,0,15,,,,,,,,,,,,,,,,11,,83,72
24719,note_on,,29,0,14,,,,,,,,,,,,,,,,10,,86,0
24719,note_on,,59,0,18,,,,,,,,,,,,,,,,15,,67,0
24719,note_on,,59,0,10,,,,,,,,,,,,,,,,6,,71,0
24719,note_on,,29,0,15,,,,,,,,,,,,,,,,11,,83,0
24719,note_on,,59,0,16,,,,,,,,,,,,,,,,12,,67,0
24719,note_on,,59,0,11,,,,,,,,,,,,,,,,7,,67,0
24719,note_on,,59,0,5,,,,,,,,,,,,,,,,1,,74,0
24719,note_on,,59,0,17,,,,,,,,,,,,,,,,13,,67,0
24719,note_on,,59,0,9,,,,,,,,,,,,,,,,5,,74,0
24720,note_on,,1,0,15,,,,,,,,,,,,,,,,11,,73,72
24720,note_on,,1,0,14,,,,,,,,,,,,,,,,10,,76,72
24720,note_on,,1,0,11,,,,,,,,,,,,,,,,7,,67,72
24720,note_on,,0,0,18,,,,,,,,,,,,,,,,15,,76,72
24720,note_on,,1,0,9,,,,,,,,,,,,,,,,5,,73,72
24720,note_on,,1,0,17,,,,,,,,,,,,,,,,13,,67,72
24720,note_on,,1,0,18,,,,,,,,,,,,,,,,15,,67,72
24720,note_on,,0,0,18,,,,,,,,,,,,,,,,15,,69,72
24720,note_on,,0,0,18,,,,,,,,,,,,,,,,15,,73,72
24720,note_on,,1,0,5,,,,,,,,,,,,,,,,1,,73,72
24720,note_on,,1,0,16,,,,,,,,,,,,,,,,12,,67,72
24720,note_on,,1,0,10,,,,,,,,,,,,,,,,6,,69,72
24749,note_on,,29,0,14,,,,,,,,,,,,,,,,10,,76,0
24749,note_on,,29,0,15,,,,,,,,,,,,,,,,11,,73,0
24750,note_on,,1,0,15,,,,,,,,,,,,,,,,11,,69,72
24750,note_on,,1,0,14,,,,,,,,,,,,,,,,10,,73,72
24779,note_on,,59,0,17,,,,,,,,,,,,,,,,13,,67,0
24779,note_on,,29,0,14,,,,,,,,,,,,,,,,10,,73,0
24779,note_on,,29,0,15,,,,,,,,,,,,,,,,11,,69,0
24779,note_on,,59,0,16,,,,,,,,,,,,,,,,12,,67,0
24779,note_on,,59,0,9,,,,,,,,,,,,,,,,5,,73,0
24779,note_on,,59,0,11,,,,,,,,,,,,,,,,7,,67,0
24779,note_on,,59,0,5,,,,,,,,,,,,,,,,1,,73,0
24779,note_on,,59,0,10,,,,,,,,,,,,,,,,6,,69,0
24779,note_on,,0,0,18,,,,,,,,,,,,,,,,15,,73,0
24779,note_on,,0,0,18,,,,,,,,,,,,,,,,15,,69,0
24779,note_on,,0,0,18,,,,,,,,,,,,,,,,15,,76,0
24779,note_on,,59,0,18,,,,,,,,,,,,,,,,15,,67,0
24780,note_on,,1,0,9,,,,,,,,,,,,,,,,5,,76,72
24780,note_on,,1,0,16,,,,,,,,,,,,,,,,12,,67,72
24780,note_on,,1,0,18,,,,,,,,,,,,,,,,15,,67,72
24780,note_on,,1,0,11,,,,,,,,,,,,,,,,7,,67,72
24780,note_on,,1,0,14,,,,,,,,,,,,,,,,10,,76,72
24780,note_on,,1,0,15,,,,,,,,,,,,,,,,11,,73,72
24780,note_on,,1,0,10,,,,,,,,,,,,,,,,6,,69,72
24780,note_on,,1,0,17,,,,,,,,,,,,,,,,13,,67,72
24780,note_on,,1,0,5,,,,,,,,,,,,,,,,1,,76,72
24809,note_on,,29,0,14,,,,,,,,,,,,,,,,10,,76,0
24809,note_on,,29,0,15,,,,,,,,,,,,,,,,11,,73,0
24810,note_on,,1,0,14,,,,,,,,,,,,,,,,10,,81,72
24810,note_on,,1,0,15,,,,,,,,,,,,,,,,11,,76,72
24839,note_on,,59,0,11,,,,,,,,,,,,,,,,7,,67,0
24839,note_on,,59,0,16,,,,,,,,,,,,,,,,12,,67,0
24839,note_on,,29,0,15,,,,,,,,,,,,,,,,11,,76,0
24839,note_on,,59,0,10,,,,,,,,,,,,,,,,6,,69,0
24839,note_on,,59,0,5,,,,,,,,,,,,,,,,1,,76,0
24839,note_on,,29,0,14,,,,,,,,,,,,,,,,10,,81,0
24839,note_on,,59,0,9,,,,,,,,,,,,,,,,5,,76,0
24839,note_on,,59,0,17,,,,,,,,,,,,,,,,13,,67,0
24839,note_on,,59,0,18,,,,,,,,,,,,,,,,15,,67,0
24840,note_on,,1,0,11,,,,,,,,,,,,,,,,7,,67,72
24840,note_on,,1,0,14,,,,,,,,,,,,,,,,10,,76,72
24840,note_on,,1,0,5,,,,,,,,,,,,,,,,1,,73,72
24840,note_on,,1,0,17,,,,,,,,,,,,,,,,13,,67,72
24840,note_on,,1,0,15,,,,,,,,,,,,,,,,11,,73,72
24840,note_on,,1,0,9,,,,,,,,,,,,,,,,5,,73,72
24840,note_on,,0,0,18,,,,,,,,,,,,,,,,15,,81,72
24840,note_on,,0,0,18,,,,,,,,,,,,,,,,15,,73,72
24840,note_on,,0,0,18,,,,,,,,,,,,,,,,15,,67,72
24840,note_on,,1,0,18,,,,,,,,,,,,,,,,15,,76,72
24840,note_on,,1,0,16,,,,,,,,,,,,,,,,12,,67,72
24840,note_on,,1,0,10,,,,,,,,,,,,,,,,6,,69,72
24869,note_on,,29,0,15,,,,,,,,,,,,,,,,11,,73,0
24869,note_on,,29,0,14,,,,,,,,,,,,,,,,10,,76,0
24870,note_on,,1,0,15,,,,,,,,,,,,,,,,11,,69,72
24870,note_on,,1,0,14,,,,,,,,,,,,,,,,10,,73,72
24899,note_on,,59,0,9,,,,,,,,,,,,,,,,5,,73,0
24899,note_on,,29,0,14,,,,,,,,,,,,,,,,10,,73,0
24899,note_on,,59,0,18,,,,,,,,,,,,,,,,15,,76,0
24899,note_on,,59,0,10,,,,,,,,,,,,,,,,6,,69,0
24899,note_on,,0,0,18,,,,,,,,,,,,,,,,15,,73,0
24899,note_on,,0,0,18,,,,,,,,,,,,,,,,15,,67,0
24899,note_on,,59,0,17,,,,,,,,,,,,,,,,13,,67,0
24899,note_on,,59,0,5,,,,,,,,,,,,,,,,1,,73,0
24899,note_on,,59,0,11,,,,,,,,,,,,,,,,7,,67,0
24899,note_on,,29,0,15,,,,,,,,,,,,,,,,11,,69,0
24899,note_on,,0,0,18,,,,,,,,,,,,,,,,15,,81,0
24899,note_on,,59,0,16,,,,,,,,,,,,,,,,12,,67,0
24900,note_on,,1,0,18,,,,,,,,,,,,,,,,15,,67,72
24900,note_on,,1,0,17,,,,,,,,,,,,,,,,13,,67,72
24900,note_on,,1,0,15,,,,,,,,,,,,,,,,11,,73,72
24900,note_on,,1,0,16,,,,,,,,,,,,,,,,12,,67,72
24900,note_on,,1,0,14,,,,,,,,,,,,,,,,10,,76,72
24900,note_on,,1,0,11,,,,,,,,,,,,,,,,7,,67,72
24900,note_on,,1,0,9,,,,,,,,,,,,,,,,5,,71,72
24900,note_on,,1,0,10,,,,,,,,,,,,,,,,6,,69,72
24900,note_on,,1,0,5,,,,,,,,,,,,,,,,1,,71,72
24929,note_on,,29,0,9,,,,,,,,,,,,,,,,5,,71,0
24929,note_on,,29,0,5,,,,,,,,,,,,,,,,1,,71,0
24929,note_on,,29,0,14,,,,,,,,,,,,,,,,10,,76,0
24929,note_on,,29,0,15,,,,,,,,,,,,,,,,11,,73,0
24930,note_on,,1,0,15,,,,,,,,,,,,,,,,11,,76,72
24930,note_on,,1,0,9,,,,,,,,,,,,,,,,5,,69,72
24930,note_on,,1,0,5,,,,,,,,,,,,,,,,1,,69,72
24930,note_on,,1,0,14,,,,,,,,,,,,,,,,10,,81,72
24959,note_on,,59,0,16,,,,,,,,,,,,,,,,12,,67,0
24959,note_on,,29,0,15,,,,,,,,,,,,,,,,11,,76,0
24959,note_on,,29,0,9,,,,,,,,,,,,,,,,5,,69,0
24959,note_on,,59,0,10,,,,,,,,,,,,,,,,6,,69,0
24959,note_on,,59,0,11,,,,,,,,,,,,,,,,7,,67,0
24959,note_on,,59,0,18,,,,,,,,,,,,,,,,15,,67,0
24959,note_on,,29,0,5,,,,,,,,,,,,,,,,1,,69,0
24959,note_on,,59,0,17,,,,,,,,,,,,,,,,13,,67,0
24959,note_on,,29,0,14,,,,,,,,,,,,,,,,10,,81,0
24960,note_on,,1,0,14,,,,,,,,,,,,,,,,10,,74,72
24960,note_on,,0,0,18,,,,,,,,,,,,,,,,15,,74,72
24960,note_on,,0,0,18,,,,,,,,,,,,,,,,15,,69,72
24960,note_on,,1,0,16,,,,,,,,,,,,,,,,12,,66,72
24960,note_on,,1,0,5,,,,,,,,,,,,,,,,1,,74,72
24960,note_on,,1,0,17,,,,,,,,,,,,,,,,13,,66,72
24960,note_on,,1,0,10,,,,,,,,,,,,,,,,6,,69,72
24960,note_on,,1,0,9,,,,,,,,,,,,,,,,5,,74,72
24960,note_on,,1,0,15,,,,,,,,,,,,,,,,11,,81,72
24960,note_on,,1,0,11,,,,,,,,,,,,,,,,7,,66,72
24960,note_on,,1,0,18,,,,,,,,,,,,,,,,15,,66,72
24989,note_on,,29,0,15,,,,,,,,,,,,,,,,11,,81,0
24989,note_on,,29,0,14,,,,,,,,,,,,,,,,10,,74,0
24990,note_on,,1,0,15,,,,,,,,,,,,,,,,11,,74,72
24990,note_on,,1,0,14,,,,,,,,,,,,,,,,10,,78,72
25019,note_on,,29,0,15,,,,,,,,,,,,,,,,11,,74,0
25019,note_on,,29,0,14,,,,,,,,,,,,,,,,10,,78,0
25019,note_on,,59,0,18,,,,,,,,,,,,,,,,15,,66,0
25019,note_on,,59,0,10,,,,,,,,,,,,,,,,6,,69,0
25019,note_on,,59,0,11,,,,,,,,,,,,,,,,7,,66,0
25019,note_on,,59,0,9,,,,,,,,,,,,,,,,5,,74,0
25019,note_on,,59,0,5,,,,,,,,,,,,,,,,1,,74,0
25019,note_on,,59,0,17,,,,,,,,,,,,,,,,13,,66,0
25019,note_on,,59,0,16,,,,,,,,,,,,,,,,12,,66,0
25020,note_on,,1,0,17,,,,,,,,,,,,,,,,13,,66,72
25020,note_on,,1,0,18,,,,,,,,,,,,,,,,15,,66,72
25020,note_on,,1,0,16,,,,,,,,,,,,,,,,12,,66,72
25020,note_on,,1,0,9,,,,,,,,,,,,,,,,5,,74,72
25020,note_on,,1,0,5,,,,,,,,,,,,,,,,1,,74,72
25020,note_on,,1,0,10,,,,,,,,,,,,,,,,6,,69,72
25020,note_on,,1,0,15,,,,,,,,,,,,,,,,11,,78,72
25020,note_on,,1,0,11,,,,,,,,,,,,,,,,7,,66,72
25020,note_on,,1,0,14,,,,,,,,,,,,,,,,10,,81,72
25049,note_on,,29,0,15,,,,,,,,,,,,,,,,11,,78,0
25049,note_on,,29,0,14,,,,,,,,,,,,,,,,10,,81,0
25050,note_on,,1,0,14,,,,,,,,,,,,,,,,10,,86,72
25050,note_on,,1,0,15,,,,,,,,,,,,,,,,11,,81,72
25079,note_on,,59,0,9,,,,,,,,,,,,,,,,5,,74,0
25079,note_on,,59,0,18,,,,,,,,,,,,,,,,15,,69,0
25079,note_on,,0,0,18,,,,,,,,,,,,,,,,15,,74,0
25079,note_on,,0,0,18,,,,,,,,,,,,,,,,15,,66,0
25079,note_on,,29,0,14,,,,,,,,,,,,,,,,10,,86,0
25079,note_on,,29,0,15,,,,,,,,,,,,,,,,11,,81,0
25079,note_on,,59,0,17,,,,,,,,,,,,,,,,13,,66,0
25079,note_on,,59,0,11,,,,,,,,,,,,,,,,7,,66,0
25079,note_on,,59,0,5,,,,,,,,,,,,,,,,1,,74,0
25079,note_on,,59,0,16,,,,,,,,,,,,,,,,12,,66,0
25079,note_on,,59,0,10,,,,,,,,,,,,,,,,6,,69,0
25080,note_on,,1,0,5,,,,,,,,,,,,,,,,1,,73,72
25080,note_on,,1,0,10,,,,,,,,,,,,,,,,6,,67,72
25080,note_on,,1,0,15,,,,,,,,,,,,,,,,11,,79,72
25080,note_on,,1,0,16,,,,,,,,,,,,,,,,12,,64,72
25080,note_on,,0,0,18,,,,,,,,,,,,,,,,15,,64,72
25080,note_on,,1,0,9,,,,,,,,,,,,,,,,5,,73,72
25080,note_on,,1,0,18,,,,,,,,,,,,,,,,15,,73,72
25080,note_on,,1,0,11,,,,,,,,,,,,,,,,7,,64,72
25080,note_on,,0,0,18,,,,,,,,,,,,,,,,15,,67,72
25080,note_on,,1,0,17,,,,,,,,,,,,,,,,13,,64,72
25080,note_on,,1,0,14,,,,,,,,,,,,,,,,10,,85,72
25109,note_on,,29,0,14,,,,,,,,,,,,,,,,10,,85,0
25110,note_on,,1,0,14,,,,,,,,,,,,,,,,10,,76,72
25139,note_on,,29,0,14,,,,,,,,,,,,,,,,10,,76,0
25139,note_on,,59,0,9,,,,,,,,,,,,,,,,5,,73,0
25139,note_on,,59,0,16,,,,,,,,,,,,,,,,12,,64,0
25139,note_on,,0,0,18,,,,,,,,,,,,,,,,15,,67,0
25139,note_on,,59,0,18,,,,,,,,,,,,,,,,15,,73,0
25139,note_on,,0,0,18,,,,,,,,,,,,,,,,15,,64,0
25139,note_on,,59,0,15,,,,,,,,,,,,,,,,11,,79,0
25139,note_on,,59,0,10,,,,,,,,,,,,,,,,6,,67,0
25139,note_on,,59,0,17,,,,,,,,,,,,,,,,13,,64,0
25139,note_on,,59,0,5,,,,,,,,,,,,,,,,1,,73,0
25139,note_on,,59,0,11,,,,,,,,,,,,,,,,7,,64,0
25140,note_on,,1,0,9,,,,,,,,,,,,,,,,5,,74,72
25140,note_on,,1,0,17,,,,,,,,,,,,,,,,13,,62,72
25140,note_on,,1,0,11,,,,,,,,,,,,,,,,7,,62,72
25140,note_on,,0,0,18,,,,,,,,,,,,,,,,15,,69,72
25140,note_on,,0,0,18,,,,,,,,,,,,,,,,15,,66,72
25140,note_on,,1,0,15,,,,,,,,,,,,,,,,11,,78,72
25140,note_on,,0,0,18,,,,,,,,,,,,,,,,15,,62,72
25140,note_on,,1,0,10,,,,,,,,,,,,,,,,6,,66,72
25140,note_on,,1,0,14,,,,,,,,,,,,,,,,10,,81,72
25140,note_on,,1,0,5,,,,,,,,,,,,,,,,1,,74,72
25140,note_on,,1,0,16,,,,,,,,,,,,,,,,12,,62,72
25140,note_on,,1,0,18,,,,,,,,,,,,,,,,15,,74,72
25169,note_on,,29,0,14,,,,,,,,,,,,,,,,10,,81,0
25170,note_on,,1,0,14,,,,,,,,,,,,,,,,10,,86,72
25199,note_on,,29,0,14,,,,,,,,,,,,,,,,10,,86,0
25199,note_on,,59,0,17,,,,,,,,,,,,,,,,13,,62,0
25199,note_on,,59,0,5,,,,,,,,,,,,,,,,1,,74,0
25199,note_on,,59,0,9,,,,,,,,,,,,,,,,5,,74,0
25199,note_on,,59,0,18,,,,,,,,,,,,,,,,15,,74,0
25199,note_on,,0,0,18,,,,,,,,,,,,,,,,15,,69,0
25199,note_on,,59,0,11,,,,,,,,,,,,,,,,7,,62,0
25199,note_on,,59,0,10,,,,,,,,,,,,,,,,6,,66,0
25199,note_on,,0,0,18,,,,,,,,,,,,,,,,15,,66,0
25199,note_on,,59,0,15,,,,,,,,,,,,,,,,11,,78,0
25199,note_on,,59,0,16,,,,,,,,,,,,,,,,12,,62,0
25199,note_on,,0,0,18,,,,,,,,,,,,,,,,15,,62,0
25200,note_on,,0,0,18,,,,,,,,,,,,,,,,15,,76,72
25200,note_on,,1,0,14,,,,,,,,,,,,,,,,10,,85,72
25200,note_on,,1,0,15,,,,,,,,,,,,,,,,11,,76,72
25200,note_on,,0,0,18,,,,,,,,,,,,,,,,15,,64,72
25200,note_on,,1,0,11,,,,,,,,,,,,,,,,7,,57,72
25200,note_on,,1,0,9,,,,,,,,,,,,,,,,5,,73,72
25200,note_on,,1,0,17,,,,,,,,,,,,,,,,13,,57,72
25200,note_on,,1,0,10,,,,,,,,,,,,,,,,6,,64,72
25200,note_on,,0,0,18,,,,,,,,,,,,,,,,15,,57,72
25200,note_on,,1,0,5,,,,,,,,,,,,,,,,1,,73,72
25200,note_on,,1,0,18,,,,,,,,,,,,,,,,15,,73,72
25200,note_on,,0,0,18,,,,,,,,,,,,,,,,15,,69,72
25200,note_on,,1,0,16,,,,,,,,,,,,,,,,12,,57,72
25229,note_on,,29,0,15,,,,,,,,,,,,,,,,11,,76,0
25229,note_on,,29,0,14,,,,,,,,,,,,,,,,10,,85,0
25230,note_on,,1,0,15,,,,,,,,,,,,,,,,11,,73,72
25230,note_on,,1,0,14,,,,,,,,,,,,,,,,10,,69,72
25259,note_on,,29,0,15,,,,,,,,,,,,,,,,11,,73,0
25259,note_on,,29,0,14,,,,,,,,,,,,,,,,10,,69,0
25260,note_on,,1,0,15,,,,,,,,,,,,,,,,11,,69,72
25260,note_on,,1,0,14,,,,,,,,,,,,,,,,10,,73,72
25289,note_on,,29,0,14,,,,,,,,,,,,,,,,10,,73,0
25289,note_on,,29,0,15,,,,,,,,,,,,,,,,11,,69,0
25290,note_on,,1,0,14,,,,,,,,,,,,,,,,10,,76,72
25290,note_on,,1,0,15,,,,,,,,,,,,,,,,11,,73,72
25319,note_on,,119,0,17,,,,,,,,,,,,,,,,13,,57,0
25319,note_on,,119,0,11,,,,,,,,,,,,,,,,7,,57,0
25319,note_on,,119,0,10,,,,,,,,,,,,,,,,6,,64,0
25319,note_on,,119,0,5,,,,,,,,,,,,,,,,1,,73,0
25319,note_on,,119,0,16,,,,,,,,,,,,,,,,12,,57,0
25319,note_on,,29,0,15,,,,,,,,,,,,,,,,11,,73,0
25319,note_on,,119,0,18,,,,,,,,,,,,,,,,15,,73,0
25319,note_on,,0,0,18,,,,,,,,,,,,,,,,15,,57,0
25319,note_on,,119,0,9,,,,,,,,,,,,,,,,5,,73,0
25319,note_on,,29,0,14,,,,,,,,,,,,,,,,10,,76,0
25319,note_on,,0,0,18,,,,,,,,,,,,,,,,15,,64,0
25319,note_on,,0,0,18,,,,,,,,,,,,,,,,15,,76,0
25319,note_on,,0,0,18,,,,,,,,,,,,,,,,15,,69,0
25320,note_on,,1,0,18,,,,,,,,,,,,,,,,15,,57,72
25320,note_on,,961,0,6,,,,,,,,,,,,,,,,2,,57,72
25320,note_on,,14521,0,7,,,,,,,,,,,,,,,,3,,57,72
25320,note_on,,14521,0,13,,,,,,,,,,,,,,,,14,,45,72
25320,note_on,,1,0,16,,,,,,,,,,,,,,,,12,,57,72
25320,note_on,,961,0,12,,,,,,,,,,,,,,,,8,,57,72
25320,note_on,,1,0,14,,,,,,,,,,,,,,,,10,,57,72
25320,note_on,,1,0,11,,,,,,,,,,,,,,,,7,,57,72
25320,note_on,,14521,0,8,,,,,,,,,,,,,,,,4,,57,72
25320,note_on,,1,0,17,,,,,,,,,,,,,,,,13,,57,72
25320,note_on,,1,0,15,,,,,,,,,,,,,,,,11,,57,72
25320,note_on,,1,0,10,,,,,,,,,,,,,,,,6,,57,72
25379,note_on,,59,0,8,,,,,,,,,,,,,,,,4,,57,0
25379,note_on,,59,0,16,,,,,,,,,,,,,,,,12,,57,0
25379,note_on,,59,0,11,,,,,,,,,,,,,,,,7,,57,0
25379,note_on,,59,0,17,,,,,,,,,,,,,,,,13,,57,0
25379,note_on,,59,0,14,,,,,,,,,,,,,,,,10,,57,0
25379,note_on,,59,0,18,,,,,,,,,,,,,,,,15,,57,0
25379,note_on,,59,0,15,,,,,,,,,,,,,,,,11,,57,0
25379,note_on,,59,0,10,,,,,,,,,,,,,,,,6,,57,0
25379,note_on,,59,0,12,,,,,,,,,,,,,,,,8,,57,0
25379,note_on,,59,0,7,,,,,,,,,,,,,,,,3,,57,0
25379,note_on,,59,0,13,,,,,,,,,,,,,,,,14,,45,0
25379,note_on,,59,0,6,,,,,,,,,,,,,,,,2,,57,0
25380,note_on,,1,0,10,,,,,,,,,,,,,,,,6,,59,72
25380,note_on,,1,0,12,,,,,,,,,,,,,,,,8,,59,72
25380,note_on,,1,0,14,,,,,,,,,,,,,,,,10,,59,72
25380,note_on,,1,0,8,,,,,,,,,,,,,,,,4,,57,72
25380,note_on,,1,0,18,,,,,,,,,,,,,,,,15,,59,72
25380,note_on,,1,0,13,,,,,,,,,,,,,,,,14,,45,72
25380,note_on,,1,0,6,,,,,,,,,,,,,,,,2,,59,72
25380,note_on,,1,0,7,,,,,,,,,,,,,,,,3,,57,72
25380,note_on,,1,0,16,,,,,,,,,,,,,,,,12,,59,72
25380,note_on,,1,0,11,,,,,,,,,,,,,,,,7,,59,72
25380,note_on,,1,0,17,,,,,,,,,,,,,,,,13,,59,72
25380,note_on,,1,0,15,,,,,,,,,,,,,,,,11,,59,72
25409,note_on,,29,0,10,,,,,,,,,,,,,,,,6,,59,0
25409,note_on,,29,0,11,,,,,,,,,,,,,,,,7,,59,0
25409,note_on,,29,0,16,,,,,,,,,,,,,,,,12,,59,0
25409,note_on,,29,0,8,,,,,,,,,,,,,,,,4,,57,0
25409,note_on,,29,0,17,,,,,,,,,,,,,,,,13,,59,0
25409,note_on,,29,0,12,,,,,,,,,,,,,,,,8,,59,0
25409,note_on,,29,0,13,,,,,,,,,,,,,,,,14,,45,0
25409,note_on,,29,0,6,,,,,,,,,,,,,,,,2,,59,0
25409,note_on,,29,0,18,,,,,,,,,,,,,,,,15,,59,0
25409,note_on,,29,0,7,,,,,,,,,,,,,,,,3,,57,0
25409,note_on,,29,0,15,,,,,,,,,,,,,,,,11,,59,0
25409,note_on,,29,0,14,,,,,,,,,,,,,,,,10,,59,0
25410,note_on,,1,0,12,,,,,,,,,,,,,,,,8,,61,72
25410,note_on,,1,0,15,,,,,,,,,,,,,,,,11,,61,72
25410,note_on,,1,0,10,,,,,,,,,,,,,,,,6,,61,72
25410,note_on,,1,0,18,,,,,,,,,,,,,,,,15,,61,72
25410,note_on,,1,0,16,,,,,,,,,,,,,,,,12,,61,72
25410,note_on,,1,0,8,,,,,,,,,,,,,,,,4,,57,72
25410,note_on,,1,0,17,,,,,,,,,,,,,,,,13,,61,72
25410,note_on,,1,0,13,,,,,,,,,,,,,,,,14,,45,72
25410,note_on,,1,0,6,,,,,,,,,,,,,,,,2,,61,72
25410,note_on,,1,0,7,,,,,,,,,,,,,,,,3,,57,72
25410,note_on,,1,0,11,,,,,,,,,,,,,,,,7,,61,72
25410,note_on,,1,0,14,,,,,,,,,,,,,,,,10,,61,72
25439,note_on,,29,0,7,,,,,,,,,,,,,,,,3,,57,0
25439,note_on,,29,0,11,,,,,,,,,,,,,,,,7,,61,0
25439,note_on,,29,0,10,,,,,,,,,,,,,,,,6,,61,0
25439,note_on,,29,0,15,,,,,,,,,,,,,,,,11,,61,0
25439,note_on,,29,0,16,,,,,,,,,,,,,,,,12,,61,0
25439,note_on,,29,0,17,,,,,,,,,,,,,,,,13,,61,0
25439,note_on,,29,0,13,,,,,,,,,,,,,,,,14,,45,0
25439,note_on,,29,0,6,,,,,,,,,,,,,,,,2,,61,0
25439,note_on,,29,0,14,,,,,,,,,,,,,,,,10,,61,0
25439,note_on,,29,0,18,,,,,,,,,,,,,,,,15,,61,0
25439,note_on,,29,0,8,,,,,,,,,,,,,,,,4,,57,0
25439,note_on,,29,0,12,,,,,,,,,,,,,,,,8,,61,0
25440,note_on,,1,0,15,,,,,,,,,,,,,,,,11,,62,72
25440,note_on,,1,0,17,,,,,,,,,,,,,,,,13,,62,72
25440,note_on,,1,0,8,,,,,,,,,,,,,,,,4,,62,72
25440,note_on,,1,0,12,,,,,,,,,,,,,,,,8,,62,72
25440,note_on,,1,0,16,,,,,,,,,,,,,,,,12,,62,72
25440,note_on,,1,0,13,,,,,,,,,,,,,,,,14,,50,72
25440,note_on,,1,0,6,,,,,,,,,,,,,,,,2,,62,72
25440,note_on,,1,0,14,,,,,,,,,,,,,,,,10,,62,72
25440,note_on,,1,0,7,,,,,,,,,,,,,,,,3,,62,72
25440,note_on,,1,0,11,,,,,,,,,,,,,,,,7,,62,72
25440,note_on,,1,0,18,,,,,,,,,,,,,,,,15,,62,72
25440,note_on,,1,0,10,,,,,,,,,,,,,,,,6,,62,72
25499,note_on,,59,0,18,,,,,,,,,,,,,,,,15,,62,0
25499,note_on,,59,0,17,,,,,,,,,,,,,,,,13,,62,0
25499,note_on,,59,0,15,,,,,,,,,,,,,,,,11,,62,0
25499,note_on,,59,0,8,,,,,,,,,,,,,,,,4,,62,0
25499,note_on,,59,0,12,,,,,,,,,,,,,,,,8,,62,0
25499,note_on,,59,0,11,,,,,,,,,,,,,,,,7,,62,0
25499,note_on,,59,0,13,,,,,,,,,,,,,,,,14,,50,0
25499,note_on,,59,0,10,,,,,,,,,,,,,,,,6,,62,0
25499,note_on,,59,0,16,,,,,,,,,,,,,,,,12,,62,0
25499,note_on,,59,0,7,,,,,,,,,,,,,,,,3,,62,0
25499,note_on,,59,0,6,,,,,,,,,,,,,,,,2,,62,0
25499,note_on,,59,0,14,,,,,,,,,,,,,,,,10,,62,0
25500,note_on,,1,0,10,,,,,,,,,,,,,,,,6,,62,72
25500,note_on,,1,0,11,,,,,,,,,,,,,,,,7,,62,72
25500,note_on,,1,0,12,,,,,,,,,,,,,,,,8,,62,72
25500,note_on,,1,0,17,,,,,,,,,,,,,,,,13,,62,72
25500,note_on,,1,0,15,,,,,,,,,,,,,,,,11,,62,72
25500,note_on,,1,0,7,,,,,,,,,,,,,,,,3,,62,72
25500,note_on,,1,0,8,,,,,,,,,,,,,,,,4,,62,72
25500,note_on,,1,0,13,,,,,,,,,,,,,,,,14,,50,72
25500,note_on,,1,0,6,,,,,,,,,,,,,,,,2,,62,72
25500,note_on,,1,0,18,,,,,,,,,,,,,,,,15,,62,72
25500,note_on,,1,0,14,,,,,,,,,,,,,,,,10,,62,72
25500,note_on,,1,0,16,,,,,,,,,,,,,,,,12,,62,72
25559,note_on,,59,0,11,,,,,,,,,,,,,,,,7,,62,0
25559,note_on,,59,0,12,,,,,,,,,,,,,,,,8,,62,0
25559,note_on,,59,0,6,,,,,,,,,,,,,,,,2,,62,0
25559,note_on,,59,0,17,,,,,,,,,,,,,,,,13,,62,0
25559,note_on,,59,0,14,,,,,,,,,,,,,,,,10,,62,0
25559,note_on,,59,0,16,,,,,,,,,,,,,,,,12,,62,0
25559,note_on,,59,0,15,,,,,,,,,,,,,,,,11,,62,0
25559,note_on,,59,0,7,,,,,,,,,,,,,,,,3,,62,0
25559,note_on,,59,0,8,,,,,,,,,,,,,,,,4,,62,0
25559,note_on,,59,0,10,,,,,,,,,,,,,,,,6,,62,0
25559,note_on,,59,0,18,,,,,,,,,,,,,,,,15,,62,0
25559,note_on,,59,0,13,,,,,,,,,,,,,,,,14,,50,0
25560,note_on,,1,0,12,,,,,,,,,,,,,,,,8,,62,72
25560,note_on,,1,0,14,,,,,,,,,,,,,,,,10,,62,72
25560,note_on,,1,0,8,,,,,,,,,,,,,,,,4,,62,72
25560,note_on,,1,0,11,,,,,,,,,,,,,,,,7,,62,72
25560,note_on,,1,0,15,,,,,,,,,,,,,,,,11,,62,72
25560,note_on,,1,0,10,,,,,,,,,,,,,,,,6,,62,72
25560,note_on,,1,0,7,,,,,,,,,,,,,,,,3,,62,72
25560,note_on,,1,0,13,,,,,,,,,,,,,,,,14,,50,72
25560,note_on,,1,0,6,,,,,,,,,,,,,,,,2,,62,72
25560,note_on,,1,0,16,,,,,,,,,,,,,,,,12,,62,72
25560,note_on,,1,0,18,,,,,,,,,,,,,,,,15,,62,72
25560,note_on,,1,0,17,,,,,,,,,,,,,,,,13,,62,72
25619,note_on,,59,0,14,,,,,,,,,,,,,,,,10,,62,0
25619,note_on,,59,0,12,,,,,,,,,,,,,,,,8,,62,0
25619,note_on,,59,0,6,,,,,,,,,,,,,,,,2,,62,0
25619,note_on,,59,0,7,,,,,,,,,,,,,,,,3,,62,0
25619,note_on,,59,0,10,,,,,,,,,,,,,,,,6,,62,0
25619,note_on,,59,0,15,,,,,,,,,,,,,,,,11,,62,0
25619,note_on,,59,0,11,,,,,,,,,,,,,,,,7,,62,0
25619,note_on,,59,0,13,,,,,,,,,,,,,,,,14,,50,0
25619,note_on,,59,0,18,,,,,,,,,,,,,,,,15,,62,0
25619,note_on,,59,0,16,,,,,,,,,,,,,,,,12,,62,0
25619,note_on,,59,0,17,,,,,,,,,,,,,,,,13,,62,0
25619,note_on,,59,0,8,,,,,,,,,,,,,,,,4,,62,0
25620,note_on,,1,0,7,,,,,,,,,,,,,,,,3,,62,72
25620,note_on,,1,0,16,,,,,,,,,,,,,,,,12,,62,72
25620,note_on,,1,0,8,,,,,,,,,,,,,,,,4,,62,72
25620,note_on,,1,0,17,,,,,,,,,,,,,,,,13,,62,72
25620,note_on,,1,0,6,,,,,,,,,,,,,,,,2,,62,72
25620,note_on,,1,0,12,,,,,,,,,,,,,,,,8,,62,72
25620,note_on,,1,0,11,,,,,,,,,,,,,,,,7,,62,72
25620,note_on,,1,0,13,,,,,,,,,,,,,,,,14,,50,72
25620,note_on,,1,0,10,,,,,,,,,,,,,,,,6,,62,72
25620,note_on,,1,0,14,,,,,,,,,,,,,,,,10,,62,72
25620,note_on,,1,0,18,,,,,,,,,,,,,,,,15,,62,72
25620,note_on,,1,0,15,,,,,,,,,,,,,,,,11,,62,72
25679,note_on,,59,0,17,,,,,,,,,,,,,,,,13,,62,0
25679,note_on,,59,0,7,,,,,,,,,,,,,,,,3,,62,0
25679,note_on,,59,0,6,,,,,,,,,,,,,,,,2,,62,0
25679,note_on,,59,0,14,,,,,,,,,,,,,,,,10,,62,0
25679,note_on,,59,0,12,,,,,,,,,,,,,,,,8,,62,0
25679,note_on,,59,0,18,,,,,,,,,,,,,,,,15,,62,0
25679,note_on,,59,0,16,,,,,,,,,,,,,,,,12,,62,0
25679,note_on,,59,0,8,,,,,,,,,,,,,,,,4,,62,0
25679,note_on,,59,0,15,,,,,,,,,,,,,,,,11,,62,0
25679,note_on,,59,0,10,,,,,,,,,,,,,,,,6,,62,0
25679,note_on,,59,0,13,,,,,,,,,,,,,,,,14,,50,0
25679,note_on,,59,0,11,,,,,,,,,,,,,,,,7,,62,0
25680,note_on,,1,0,11,,,,,,,,,,,,,,,,7,,62,72
25680,note_on,,0,0,18,,,,,,,,,,,,,,,,15,,74,72
25680,note_on,,0,0,18,,,,,,,,,,,,,,,,15,,62,72
25680,note_on,,0,0,18,,,,,,,,,,,,,,,,15,,71,72
25680,note_on,,1,0,15,,,,,,,,,,,,,,,,11,,67,72
25680,note_on,,1,0,10,,,,,,,,,,,,,,,,6,,62,72
25680,note_on,,1,0,6,,,,,,,,,,,,,,,,2,,62,72
25680,note_on,,1,0,13,,,,,,,,,,,,,,,,14,,50,72
25680,note_on,,1,0,7,,,,,,,,,,,,,,,,3,,62,72
25680,note_on,,1,0,12,,,,,,,,,,,,,,,,8,,62,72
25680,note_on,,1,0,17,,,,,,,,,,,,,,,,13,,62,72
25680,note_on,,1,0,8,,,,,,,,,,,,,,,,4,,62,72
25680,note_on,,1,0,16,,,,,,,,,,,,,,,,12,,62,72
25680,note_on,,1,0,18,,,,,,,,,,,,,,,,15,,67,72
25680,note_on,,1,0,14,,,,,,,,,,,,,,,,10,,71,72
25709,note_on,,29,0,15,,,,,,,,,,,,,,,,11,,67,0
25709,note_on,,29,0,14,,,,,,,,,,,,,,,,10,,71,0
25710,note_on,,1,0,14,,,,,,,,,,,,,,,,10,,67,72
25710,note_on,,1,0,15,,,,,,,,,,,,,,,,11,,62,72
25739,note_on,,59,0,16,,,,,,,,,,,,,,,,12,,62,0
25739,note_on,,59,0,12,,,,,,,,,,,,,,,,8,,62,0
25739,note_on,,59,0,8,,,,,,,,,,,,,,,,4,,62,0
25739,note_on,,29,0,15,,,,,,,,,,,,,,,,11,,62,0
25739,note_on,,59,0,18,,,,,,,,,,,,,,,,15,,62,0
25739,note_on,,59,0,13,,,,,,,,,,,,,,,,14,,50,0
25739,note_on,,59,0,11,,,,,,,,,,,,,,,,7,,62,0
25739,note_on,,59,0,7,,,,,,,,,,,,,,,,3,,62,0
25739,note_on,,29,0,14,,,,,,,,,,,,,,,,10,,67,0
25739,note_on,,59,0,6,,,,,,,,,,,,,,,,2,,62,0
25739,note_on,,59,0,17,,,,,,,,,,,,,,,,13,,62,0
25739,note_on,,59,0,10,,,,,,,,,,,,,,,,6,,62,0
25740,note_on,,1,0,6,,,,,,,,,,,,,,,,2,,62,72
25740,note_on,,1,0,11,,,,,,,,,,,,,,,,7,,62,72
25740,note_on,,1,0,17,,,,,,,,,,,,,,,,13,,62,72
25740,note_on,,1,0,12,,,,,,,,,,,,,,,,8,,62,72
25740,note_on,,1,0,16,,,,,,,,,,,,,,,,12,,62,72
25740,note_on,,1,0,18,,,,,,,,,,,,,,,,15,,62,72
25740,note_on,,1,0,14,,,,,,,,,,,,,,,,10,,71,72
25740,note_on,,1,0,13,,,,,,,,,,,,,,,,14,,50,72
25740,note_on,,1,0,10,,,,,,,,,,,,,,,,6,,62,72
25740,note_on,,1,0,8,,,,,,,,,,,,,,,,4,,62,72
25740,note_on,,1,0,15,,,,,,,,,,,,,,,,11,,67,72
25740,note_on,,1,0,7,,,,,,,,,,,,,,,,3,,62,72
25769,note_on,,29,0,14,,,,,,,,,,,,,,,,10,,71,0
25769,note_on,,29,0,15,,,,,,,,,,,,,,,,11,,67,0
25770,note_on,,1,0,14,,,,,,,,,,,,,,,,10,,74,72
25770,note_on,,1,0,15,,,,,,,,,,,,,,,,11,,71,72
25799,note_on,,59,0,10,,,,,,,,,,,,,,,,6,,62,0
25799,note_on,,59,0,12,,,,,,,,,,,,,,,,8,,62,0
25799,note_on,,59,0,16,,,,,,,,,,,,,,,,12,,62,0
25799,note_on,,59,0,8,,,,,,,,,,,,,,,,4,,62,0
25799,note_on,,29,0,15,,,,,,,,,,,,,,,,11,,71,0
25799,note_on,,59,0,13,,,,,,,,,,,,,,,,14,,50,0
25799,note_on,,59,0,7,,,,,,,,,,,,,,,,3,,62,0
25799,note_on,,59,0,6,,,,,,,,,,,,,,,,2,,62,0
25799,note_on,,59,0,17,,,,,,,,,,,,,,,,13,,62,0
25799,note_on,,59,0,11,,,,,,,,,,,,,,,,7,,62,0
25799,note_on,,0,0,18,,,,,,,,,,,,,,,,15,,71,0
25799,note_on,,0,0,18,,,,,,,,,,,,,,,,15,,62,0
25799,note_on,,29,0,14,,,,,,,,,,,,,,,,10,,74,0
25799,note_on,,59,0,18,,,,,,,,,,,,,,,,15,,67,0
25799,note_on,,0,0,18,,,,,,,,,,,,,,,,15,,74,0
25800,note_on,,1,0,7,,,,,,,,,,,,,,,,3,,62,72
25800,note_on,,1,0,18,,,,,,,,,,,,,,,,15,,62,72
25800,note_on,,1,0,11,,,,,,,,,,,,,,,,7,,62,72
25800,note_on,,1,0,14,,,,,,,,,,,,,,,,10,,71,72
25800,note_on,,1,0,13,,,,,,,,,,,,,,,,14,,50,72
25800,note_on,,1,0,16,,,,,,,,,,,,,,,,12,,62,72
25800,note_on,,1,0,15,,,,,,,,,,,,,,,,11,,67,72
25800,note_on,,1,0,8,,,,,,,,,,,,,,,,4,,62,72
25800,note_on,,1,0,6,,,,,,,,,,,,,,,,2,,62,72
25800,note_on,,1,0,12,,,,,,,,,,,,,,,,8,,62,72
25800,note_on,,1,0,10,,,,,,,,,,,,,,,,6,,62,72
25800,note_on,,1,0,17,,,,,,,,,,,,,,,,13,,62,72
25829,note_on,,29,0,15,,,,,,,,,,,,,,,,11,,67,0
25829,note_on,,29,0,14,,,,,,,,,,,,,,,,10,,71,0
25830,note_on,,1,0,15,,,,,,,,,,,,,,,,11,,62,72
25830,note_on,,1,0,14,,,,,,,,,,,,,,,,10,,67,72
25859,note_on,,59,0,11,,,,,,,,,,,,,,,,7,,62,0
25859,note_on,,29,0,14,,,,,,,,,,,,,,,,10,,67,0
25859,note_on,,59,0,7,,,,,,,,,,,,,,,,3,,62,0
25859,note_on,,59,0,8,,,,,,,,,,,,,,,,4,,62,0
25859,note_on,,59,0,13,,,,,,,,,,,,,,,,14,,50,0
25859,note_on,,59,0,16,,,,,,,,,,,,,,,,12,,62,0
25859,note_on,,59,0,10,,,,,,,,,,,,,,,,6,,62,0
25859,note_on,,59,0,17,,,,,,,,,,,,,,,,13,,62,0
25859,note_on,,29,0,15,,,,,,,,,,,,,,,,11,,62,0
25859,note_on,,59,0,18,,,,,,,,,,,,,,,,15,,62,0
25859,note_on,,59,0,12,,,,,,,,,,,,,,,,8,,62,0
25859,note_on,,59,0,6,,,,,,,,,,,,,,,,2,,62,0
25860,note_on,,1,0,17,,,,,,,,,,,,,,,,13,,62,72
25860,note_on,,1,0,11,,,,,,,,,,,,,,,,7,,62,72
25860,note_on,,1,0,13,,,,,,,,,,,,,,,,14,,50,72
25860,note_on,,1,0,10,,,,,,,,,,,,,,,,6,,62,72
25860,note_on,,1,0,15,,,,,,,,,,,,,,,,11,,67,72
25860,note_on,,1,0,18,,,,,,,,,,,,,,,,15,,62,72
25860,note_on,,1,0,14,,,,,,,,,,,,,,,,10,,71,72
25860,note_on,,1,0,16,,,,,,,,,,,,,,,,12,,62,72
25860,note_on,,1,0,7,,,,,,,,,,,,,,,,3,,62,72
25860,note_on,,1,0,6,,,,,,,,,,,,,,,,2,,62,72
25860,note_on,,1,0,12,,,,,,,,,,,,,,,,8,,62,72
25860,note_on,,1,0,8,,,,,,,,,,,,,,,,4,,62,72
25889,note_on,,29,0,15,,,,,,,,,,,,,,,,11,,67,0
25889,note_on,,29,0,14,,,,,,,,,,,,,,,,10,,71,0
25890,note_on,,1,0,15,,,,,,,,,,,,,,,,11,,71,72
25890,note_on,,1,0,14,,,,,,,,,,,,,,,,10,,74,72
25919,note_on,,29,0,15,,,,,,,,,,,,,,,,11,,71,0
25919,note_on,,59,0,8,,,,,,,,,,,,,,,,4,,62,0
25919,note_on,,59,0,18,,,,,,,,,,,,,,,,15,,62,0
25919,note_on,,29,0,14,,,,,,,,,,,,,,,,10,,74,0
25919,note_on,,59,0,12,,,,,,,,,,,,,,,,8,,62,0
25919,note_on,,59,0,16,,,,,,,,,,,,,,,,12,,62,0
25919,note_on,,59,0,6,,,,,,,,,,,,,,,,2,,62,0
25919,note_on,,59,0,7,,,,,,,,,,,,,,,,3,,62,0
25919,note_on,,59,0,17,,,,,,,,,,,,,,,,13,,62,0
25919,note_on,,59,0,11,,,,,,,,,,,,,,,,7,,62,0
25919,note_on,,59,0,10,,,,,,,,,,,,,,,,6,,62,0
25919,note_on,,59,0,13,,,,,,,,,,,,,,,,14,,50,0
25920,note_on,,0,0,18,,,,,,,,,,,,,,,,15,,69,72
25920,note_on,,1,0,6,,,,,,,,,,,,,,,,2,,62,72
25920,note_on,,1,0,10,,,,,,,,,,,,,,,,6,,62,72
25920,note_on,,1,0,8,,,,,,,,,,,,,,,,4,,62,72
25920,note_on,,1,0,12,,,,,,,,,,,,,,,,8,,62,72
25920,note_on,,1,0,16,,,,,,,,,,,,,,,,12,,62,72
25920,note_on,,1,0,15,,,,,,,,,,,,,,,,11,,66,72
25920,note_on,,1,0,17,,,,,,,,,,,,,,,,13,,62,72
25920,note_on,,1,0,7,,,,,,,,,,,,,,,,3,,62,72
25920,note_on,,1,0,14,,,,,,,,,,,,,,,,10,,69,72
25920,note_on,,0,0,18,,,,,,,,,,,,,,,,15,,74,72
25920,note_on,,1,0,18,,,,,,,,,,,,,,,,15,,62,72
25920,note_on,,1,0,13,,,,,,,,,,,,,,,,14,,50,72
25920,note_on,,0,0,18,,,,,,,,,,,,,,,,15,,78,72
25920,note_on,,1,0,11,,,,,,,,,,,,,,,,7,,62,72
25949,note_on,,29,0,15,,,,,,,,,,,,,,,,11,,66,0
25949,note_on,,29,0,14,,,,,,,,,,,,,,,,10,,69,0
25950,note_on,,1,0,14,,,,,,,,,,,,,,,,10,,66,72
25950,note_on,,1,0,15,,,,,,,,,,,,,,,,11,,62,72
25979,note_on,,59,0,7,,,,,,,,,,,,,,,,3,,62,0
25979,note_on,,59,0,13,,,,,,,,,,,,,,,,14,,50,0
25979,note_on,,59,0,17,,,,,,,,,,,,,,,,13,,62,0
25979,note_on,,59,0,6,,,,,,,,,,,,,,,,2,,62,0
25979,note_on,,59,0,8,,,,,,,,,,,,,,,,4,,62,0
25979,note_on,,59,0,10,,,,,,,,,,,,,,,,6,,62,0
25979,note_on,,59,0,12,,,,,,,,,,,,,,,,8,,62,0
25979,note_on,,29,0,15,,,,,,,,,,,,,,,,11,,62,0
25979,note_on,,59,0,11,,,,,,,,,,,,,,,,7,,62,0
25979,note_on,,59,0,18,,,,,,,,,,,,,,,,15,,62,0
25979,note_on,,29,0,14,,,,,,,,,,,,,,,,10,,66,0
25979,note_on,,59,0,16,,,,,,,,,,,,,,,,12,,62,0
25980,note_on,,1,0,12,,,,,,,,,,,,,,,,8,,61,72
25980,note_on,,1,0,7,,,,,,,,,,,,,,,,3,,57,72
25980,note_on,,1,0,17,,,,,,,,,,,,,,,,13,,61,72
25980,note_on,,1,0,10,,,,,,,,,,,,,,,,6,,61,72
25980,note_on,,1,0,15,,,,,,,,,,,,,,,,11,,69,72
25980,note_on,,1,0,6,,,,,,,,,,,,,,,,2,,61,72
25980,note_on,,1,0,16,,,,,,,,,,,,,,,,12,,61,72
25980,note_on,,1,0,18,,,,,,,,,,,,,,,,15,,61,72
25980,note_on,,1,0,13,,,,,,,,,,,,,,,,14,,45,72
25980,note_on,,1,0,11,,,,,,,,,,,,,,,,7,,61,72
25980,note_on,,1,0,14,,,,,,,,,,,,,,,,10,,69,72
25980,note_on,,1,0,8,,,,,,,,,,,,,,,,4,,57,72
26009,note_on,,29,0,13,,,,,,,,,,,,,,,,14,,45,0
26009,note_on,,29,0,16,,,,,,,,,,,,,,,,12,,61,0
26009,note_on,,29,0,17,,,,,,,,,,,,,,,,13,,61,0
26009,note_on,,29,0,18,,,,,,,,,,,,,,,,15,,61,0
26009,note_on,,29,0,11,,,,,,,,,,,,,,,,7,,61,0
26009,note_on,,29,0,8,,,,,,,,,,,,,,,,4,,57,0
26009,note_on,,29,0,6,,,,,,,,,,,,,,,,2,,61,0
26009,note_on,,29,0,15,,,,,,,,,,,,,,,,11,,69,0
26009,note_on,,29,0,12,,,,,,,,,,,,,,,,8,,61,0
26009,note_on,,29,0,10,,,,,,,,,,,,,,,,6,,61,0
26009,note_on,,29,0,7,,,,,,,,,,,,,,,,3,,57,0
26009,note_on,,29,0,14,,,,,,,,,,,,,,,,10,,69,0
26010,note_on,,1,0,6,,,,,,,,,,,,,,,,2,,59,72
26010,note_on,,1,0,17,,,,,,,,,,,,,,,,13,,59,72
26010,note_on,,1,0,16,,,,,,,,,,,,,,,,12,,59,72
26010,note_on,,1,0,13,,,,,,,,,,,,,,,,14,,45,72
26010,note_on,,1,0,14,,,,,,,,,,,,,,,,10,,74,72
26010,note_on,,1,0,18,,,,,,,,,,,,,,,,15,,59,72
26010,note_on,,1,0,15,,,,,,,,,,,,,,,,11,,71,72
26010,note_on,,1,0,10,,,,,,,,,,,,,,,,6,,59,72
26010,note_on,,1,0,11,,,,,,,,,,,,,,,,7,,59,72
26010,note_on,,1,0,12,,,,,,,,,,,,,,,,8,,59,72
26010,note_on,,1,0,7,,,,,,,,,,,,,,,,3,,57,72
26010,note_on,,1,0,8,,,,,,,,,,,,,,,,4,,57,72
26039,note_on,,29,0,6,,,,,,,,,,,,,,,,2,,59,0
26039,note_on,,29,0,15,,,,,,,,,,,,,,,,11,,71,0
26039,note_on,,29,0,16,,,,,,,,,,,,,,,,12,,59,0
26039,note_on,,0,0,18,,,,,,,,,,,,,,,,15,,78,0
26039,note_on,,29,0,18,,,,,,,,,,,,,,,,15,,74,0
26039,note_on,,0,0,18,,,,,,,,,,,,,,,,15,,69,0
26039,note_on,,29,0,11,,,,,,,,,,,,,,,,7,,59,0
26039,note_on,,29,0,8,,,,,,,,,,,,,,,,4,,57,0
26039,note_on,,0,0,18,,,,,,,,,,,,,,,,15,,59,0
26039,note_on,,29,0,14,,,,,,,,,,,,,,,,10,,74,0
26039,note_on,,29,0,12,,,,,,,,,,,,,,,,8,,59,0
26039,note_on,,29,0,7,,,,,,,,,,,,,,,,3,,57,0
26039,note_on,,29,0,13,,,,,,,,,,,,,,,,14,,45,0
26039,note_on,,29,0,17,,,,,,,,,,,,,,,,13,,59,0
26039,note_on,,29,0,10,,,,,,,,,,,,,,,,6,,59,0
26040,note_on,,1,0,8,,,,,,,,,,,,,,,,4,,57,72
26040,note_on,,1,0,6,,,,,,,,,,,,,,,,2,,57,72
26040,note_on,,1,0,7,,,,,,,,,,,,,,,,3,,57,72
26040,note_on,,1,0,10,,,,,,,,,,,,,,,,6,,57,72
26040,note_on,,1,0,15,,,,,,,,,,,,,,,,11,,64,72
26040,note_on,,1,0,13,,,,,,,,,,,,,,,,14,,45,72
26040,note_on,,1,0,14,,,,,,,,,,,,,,,,10,,73,72
26040,note_on,,1,0,18,,,,,,,,,,,,,,,,15,,57,72
26040,note_on,,1,0,17,,,,,,,,,,,,,,,,13,,57,72
26040,note_on,,1,0,16,,,,,,,,,,,,,,,,12,,57,72
26040,note_on,,1,0,11,,,,,,,,,,,,,,,,7,,57,72
26040,note_on,,1,0,12,,,,,,,,,,,,,,,,8,,57,72
26069,note_on,,29,0,14,,,,,,,,,,,,,,,,10,,73,0
26069,note_on,,29,0,15,,,,,,,,,,,,,,,,11,,64,0
26070,note_on,,1,0,14,,,,,,,,,,,,,,,,10,,69,72
26070,note_on,,1,0,15,,,,,,,,,,,,,,,,11,,61,72
26099,note_on,,59,0,6,,,,,,,,,,,,,,,,2,,57,0
26099,note_on,,29,0,14,,,,,,,,,,,,,,,,10,,69,0
26099,note_on,,59,0,13,,,,,,,,,,,,,,,,14,,45,0
26099,note_on,,59,0,10,,,,,,,,,,,,,,,,6,,57,0
26099,note_on,,59,0,17,,,,,,,,,,,,,,,,13,,57,0
26099,note_on,,59,0,11,,,,,,,,,,,,,,,,7,,57,0
26099,note_on,,59,0,16,,,,,,,,,,,,,,,,12,,57,0
26099,note_on,,59,0,12,,,,,,,,,,,,,,,,8,,57,0
26099,note_on,,59,0,18,,,,,,,,,,,,,,,,15,,57,0
26099,note_on,,59,0,8,,,,,,,,,,,,,,,,4,,57,0
26099,note_on,,59,0,7,,,,,,,,,,,,,,,,3,,57,0
26099,note_on,,29,0,15,,,,,,,,,,,,,,,,11,,61,0
26100,note_on,,1,0,17,,,,,,,,,,,,,,,,13,,55,72
26100,note_on,,1,0,13,,,,,,,,,,,,,,,,14,,45,72
26100,note_on,,1,0,18,,,,,,,,,,,,,,,,15,,55,72
26100,note_on,,1,0,14,,,,,,,,,,,,,,,,10,,73,72
26100,note_on,,1,0,10,,,,,,,,,,,,,,,,6,,55,72
26100,note_on,,1,0,15,,,,,,,,,,,,,,,,11,,64,72
26100,note_on,,1,0,11,,,,,,,,,,,,,,,,7,,55,72
26100,note_on,,1,0,6,,,,,,,,,,,,,,,,2,,55,72
26100,note_on,,1,0,12,,,,,,,,,,,,,,,,8,,55,72
26100,note_on,,1,0,16,,,,,,,,,,,,,,,,12,,55,72
26100,note_on,,1,0,8,,,,,,,,,,,,,,,,4,,57,72
26100,note_on,,1,0,7,,,,,,,,,,,,,,,,3,,57,72
26129,note_on,,29,0,14,,,,,,,,,,,,,,,,10,,73,0
26129,note_on,,29,0,15,,,,,,,,,,,,,,,,11,,64,0
26130,note_on,,1,0,15,,,,,,,,,,,,,,,,11,,69,72
26130,note_on,,1,0,14,,,,,,,,,,,,,,,,10,,76,72
26159,note_on,,59,0,13,,,,,,,,,,,,,,,,14,,45,0
26159,note_on,,59,0,8,,,,,,,,,,,,,,,,4,,57,0
26159,note_on,,59,0,18,,,,,,,,,,,,,,,,15,,55,0
26159,note_on,,29,0,15,,,,,,,,,,,,,,,,11,,69,0
26159,note_on,,59,0,10,,,,,,,,,,,,,,,,6,,55,0
26159,note_on,,29,0,14,,,,,,,,,,,,,,,,10,,76,0
26159,note_on,,59,0,11,,,,,,,,,,,,,,,,7,,55,0
26159,note_on,,59,0,17,,,,,,,,,,,,,,,,13,,55,0
26159,note_on,,59,0,7,,,,,,,,,,,,,,,,3,,57,0
26159,note_on,,59,0,16,,,,,,,,,,,,,,,,12,,55,0
26159,note_on,,59,0,6,,,,,,,,,,,,,,,,2,,55,0
26159,note_on,,59,0,12,,,,,,,,,,,,,,,,8,,55,0
26160,note_on,,1,0,16,,,,,,,,,,,,,,,,12,,54,72
26160,note_on,,1,0,11,,,,,,,,,,,,,,,,7,,54,72
26160,note_on,,1,0,10,,,,,,,,,,,,,,,,6,,54,72
26160,note_on,,1,0,15,,,,,,,,,,,,,,,,11,,69,72
26160,note_on,,1,0,12,,,,,,,,,,,,,,,,8,,54,72
26160,note_on,,0,0,18,,,,,,,,,,,,,,,,15,,81,72
26160,note_on,,0,0,18,,,,,,,,,,,,,,,,15,,86,72
26160,note_on,,1,0,8,,,,,,,,,,,,,,,,4,,62,72
26160,note_on,,1,0,18,,,,,,,,,,,,,,,,15,,74,72
26160,note_on,,1,0,17,,,,,,,,,,,,,,,,13,,54,72
26160,note_on,,1,0,6,,,,,,,,,,,,,,,,2,,54,72
26160,note_on,,1,0,13,,,,,,,,,,,,,,,,14,,50,72
26160,note_on,,1,0,7,,,,,,,,,,,,,,,,3,,62,72
26160,note_on,,0,0,18,,,,,,,,,,,,,,,,15,,54,72
26160,note_on,,1,0,14,,,,,,,,,,,,,,,,10,,74,72
26160,note_on,,0,0,18,,,,,,,,,,,,,,,,15,,66,72
26189,note_on,,29,0,15,,,,,,,,,,,,,,,,11,,69,0
26189,note_on,,29,0,14,,,,,,,,,,,,,,,,10,,74,0
26190,note_on,,1,0,14,,,,,,,,,,,,,,,,10,,69,72
26190,note_on,,1,0,15,,,,,,,,,,,,,,,,11,,66,72
26219,note_on,,59,0,7,,,,,,,,,,,,,,,,3,,62,0
26219,note_on,,29,0,14,,,,,,,,,,,,,,,,10,,69,0
26219,note_on,,29,0,15,,,,,,,,,,,,,,,,11,,66,0
26219,note_on,,59,0,8,,,,,,,,,,,,,,,,4,,62,0
26220,note_on,,1,0,7,,,,,,,,,,,,,,,,3,,62,72
26220,note_on,,1,0,14,,,,,,,,,,,,,,,,10,,66,72
26220,note_on,,1,0,8,,,,,,,,,,,,,,,,4,,62,72
26220,note_on,,1,0,15,,,,,,,,,,,,,,,,11,,62,72
26249,note_on,,29,0,15,,,,,,,,,,,,,,,,11,,62,0
26249,note_on,,29,0,7,,,,,,,,,,,,,,,,3,,62,0
26249,note_on,,29,0,14,,,,,,,,,,,,,,,,10,,66,0
26249,note_on,,29,0,8,,,,,,,,,,,,,,,,4,,62,0
26250,note_on,,1,0,15,,,,,,,,,,,,,,,,11,,74,72
26250,note_on,,1,0,7,,,,,,,,,,,,,,,,3,,62,72
26250,note_on,,1,0,14,,,,,,,,,,,,,,,,10,,69,72
26250,note_on,,1,0,8,,,,,,,,,,,,,,,,4,,62,72
26279,note_on,,119,0,16,,,,,,,,,,,,,,,,12,,54,0
26279,note_on,,0,0,18,,,,,,,,,,,,,,,,15,,81,0
26279,note_on,,0,0,18,,,,,,,,,,,,,,,,15,,86,0
26279,note_on,,0,0,18,,,,,,,,,,,,,,,,15,,66,0
26279,note_on,,0,0,18,,,,,,,,,,,,,,,,15,,54,0
26279,note_on,,119,0,18,,,,,,,,,,,,,,,,15,,74,0
26279,note_on,,29,0,15,,,,,,,,,,,,,,,,11,,74,0
26279,note_on,,29,0,8,,,,,,,,,,,,,,,,4,,62,0
26279,note_on,,119,0,10,,,,,,,,,,,,,,,,6,,54,0
26279,note_on,,29,0,14,,,,,,,,,,,,,,,,10,,69,0
26279,note_on,,119,0,17,,,,,,,,,,,,,,,,13,,54,0
26279,note_on,,119,0,6,,,,,,,,,,,,,,,,2,,54,0
26279,note_on,,29,0,7,,,,,,,,,,,,,,,,3,,62,0
26279,note_on,,119,0,13,,,,,,,,,,,,,,,,14,,50,0
26279,note_on,,119,0,11,,,,,,,,,,,,,,,,7,,54,0
26279,note_on,,119,0,12,,,,,,,,,,,,,,,,8,,54,0
26280,note_on,,1,0,8,,,,,,,,,,,,,,,,4,,62,72
26280,note_on,,1,0,14,,,,,,,,,,,,,,,,10,,69,72
26280,note_on,,1,0,15,,,,,,,,,,,,,,,,11,,74,72
26280,note_on,,1,0,7,,,,,,,,,,,,,,,,3,,66,72
26309,note_on,,29,0,14,,,,,,,,,,,,,,,,10,,69,0
26309,note_on,,29,0,15,,,,,,,,,,,,,,,,11,,74,0
26310,note_on,,1,0,15,,,,,,,,,,,,,,,,11,,69,72
26310,note_on,,1,0,14,,,,,,,,,,,,,,,,10,,66,72
26339,note_on,,59,0,8,,,,,,,,,,,,,,,,4,,62,0
26339,note_on,,29,0,14,,,,,,,,,,,,,,,,10,,66,0
26339,note_on,,59,0,7,,,,,,,,,,,,,,,,3,,66,0
26339,note_on,,29,0,15,,,,,,,,,,,,,,,,11,,69,0
26340,note_on,,1,0,7,,,,,,,,,,,,,,,,3,,66,72
26340,note_on,,1,0,14,,,,,,,,,,,,,,,,10,,62,72
26340,note_on,,1,0,8,,,,,,,,,,,,,,,,4,,62,72
26340,note_on,,1,0,15,,,,,,,,,,,,,,,,11,,66,72
26369,note_on,,29,0,14,,,,,,,,,,,,,,,,10,,62,0
26369,note_on,,29,0,15,,,,,,,,,,,,,,,,11,,66,0
26369,note_on,,29,0,8,,,,,,,,,,,,,,,,4,,62,0
26369,note_on,,29,0,7,,,,,,,,,,,,,,,,3,,66,0
26370,note_on,,1,0,15,,,,,,,,,,,,,,,,11,,78,72
26370,note_on,,1,0,7,,,,,,,,,,,,,,,,3,,66,72
26370,note_on,,1,0,8,,,,,,,,,,,,,,,,4,,62,72
26370,note_on,,1,0,14,,,,,,,,,,,,,,,,10,,74,72
26399,note_on,,29,0,8,,,,,,,,,,,,,,,,4,,62,0
26399,note_on,,29,0,7,,,,,,,,,,,,,,,,3,,66,0
26399,note_on,,29,0,15,,,,,,,,,,,,,,,,11,,78,0
26399,note_on,,29,0,14,,,,,,,,,,,,,,,,10,,74,0
26400,note_on,,121,0,16,,,,,,,,,,,,,,,,12,,69,72
26400,note_on,,1,0,8,,,,,,,,,,,,,,,,4,,66,72
26400,note_on,,121,0,17,,,,,,,,,,,,,,,,13,,62,72
26400,note_on,,121,0,12,,,,,,,,,,,,,,,,8,,62,72
26400,note_on,,121,0,18,,,,,,,,,,,,,,,,15,,78,72
26400,note_on,,0,0,18,,,,,,,,,,,,,,,,15,,69,72
26400,note_on,,121,0,11,,,,,,,,,,,,,,,,7,,66,72
26400,note_on,,1081,0,5,,,,,,,,,,,,,,,,1,,74,72
26400,note_on,,1081,0,9,,,,,,,,,,,,,,,,5,,74,72
26400,note_on,,121,0,10,,,,,,,,,,,,,,,,6,,69,72
26400,note_on,,121,0,13,,,,,,,,,,,,,,,,14,,50,72
26400,note_on,,1,0,7,,,,,,,,,,,,,,,,3,,69,72
26400,note_on,,1,0,15,,,,,,,,,,,,,,,,11,,78,72
26400,note_on,,1,0,14,,,,,,,,,,,,,,,,10,,74,72
26400,note_on,,0,0,18,,,,,,,,,,,,,,,,15,,62,72
26400,note_on,,121,0,6,,,,,,,,,,,,,,,,2,,62,72
26400,note_on,,0,0,18,,,,,,,,,,,,,,,,15,,74,72
26429,note_on,,29,0,14,,,,,,,,,,,,,,,,10,,74,0
26429,note_on,,29,0,15,,,,,,,,,,,,,,,,11,,78,0
26430,note_on,,1,0,14,,,,,,,,,,,,,,,,10,,69,72
26430,note_on,,1,0,15,,,,,,,,,,,,,,,,11,,74,72
26459,note_on,,59,0,16,,,,,,,,,,,,,,,,12,,69,0
26459,note_on,,59,0,13,,,,,,,,,,,,,,,,14,,50,0
26459,note_on,,29,0,15,,,,,,,,,,,,,,,,11,,74,0
26459,note_on,,59,0,7,,,,,,,,,,,,,,,,3,,69,0
26459,note_on,,59,0,9,,,,,,,,,,,,,,,,5,,74,0
26459,note_on,,59,0,17,,,,,,,,,,,,,,,,13,,62,0
26459,note_on,,59,0,8,,,,,,,,,,,,,,,,4,,66,0
26459,note_on,,59,0,6,,,,,,,,,,,,,,,,2,,62,0
26459,note_on,,29,0,14,,,,,,,,,,,,,,,,10,,69,0
26459,note_on,,59,0,5,,,,,,,,,,,,,,,,1,,74,0
26459,note_on,,59,0,18,,,,,,,,,,,,,,,,15,,62,0
26459,note_on,,59,0,10,,,,,,,,,,,,,,,,6,,69,0
26459,note_on,,59,0,12,,,,,,,,,,,,,,,,8,,62,0
26459,note_on,,59,0,11,,,,,,,,,,,,,,,,7,,66,0
26460,note_on,,1,0,12,,,,,,,,,,,,,,,,8,,50,72
26460,note_on,,1,0,10,,,,,,,,,,,,,,,,6,,66,72
26460,note_on,,1,0,11,,,,,,,,,,,,,,,,7,,62,72
26460,note_on,,1,0,13,,,,,,,,,,,,,,,,14,,50,72
26460,note_on,,1,0,8,,,,,,,,,,,,,,,,4,,62,72
26460,note_on,,1,0,6,,,,,,,,,,,,,,,,2,,50,72
26460,note_on,,0,0,18,,,,,,,,,,,,,,,,15,,50,72
26460,note_on,,1,0,18,,,,,,,,,,,,,,,,15,,62,72
26460,note_on,,1,0,17,,,,,,,,,,,,,,,,13,,50,72
26460,note_on,,1,0,7,,,,,,,,,,,,,,,,3,,66,72
26460,note_on,,1,0,5,,,,,,,,,,,,,,,,1,,69,72
26460,note_on,,1,0,16,,,,,,,,,,,,,,,,12,,62,72
26460,note_on,,1,0,9,,,,,,,,,,,,,,,,5,,69,72
26460,note_on,,1,0,14,,,,,,,,,,,,,,,,10,,66,72
26460,note_on,,1,0,15,,,,,,,,,,,,,,,,11,,69,72
26489,note_on,,29,0,15,,,,,,,,,,,,,,,,11,,69,0
26489,note_on,,29,0,14,,,,,,,,,,,,,,,,10,,66,0
26490,note_on,,1,0,14,,,,,,,,,,,,,,,,10,,69,72
26490,note_on,,1,0,15,,,,,,,,,,,,,,,,11,,74,72
26519,note_on,,59,0,9,,,,,,,,,,,,,,,,5,,69,0
26519,note_on,,59,0,6,,,,,,,,,,,,,,,,2,,50,0
26519,note_on,,59,0,17,,,,,,,,,,,,,,,,13,,50,0
26519,note_on,,29,0,14,,,,,,,,,,,,,,,,10,,69,0
26519,note_on,,59,0,8,,,,,,,,,,,,,,,,4,,62,0
26519,note_on,,59,0,18,,,,,,,,,,,,,,,,15,,78,0
26519,note_on,,59,0,13,,,,,,,,,,,,,,,,14,,50,0
26519,note_on,,0,0,18,,,,,,,,,,,,,,,,15,,74,0
26519,note_on,,59,0,10,,,,,,,,,,,,,,,,6,,66,0
26519,note_on,,0,0,18,,,,,,,,,,,,,,,,15,,50,0
26519,note_on,,29,0,15,,,,,,,,,,,,,,,,11,,74,0
26519,note_on,,0,0,18,,,,,,,,,,,,,,,,15,,62,0
26519,note_on,,59,0,11,,,,,,,,,,,,,,,,7,,62,0
26519,note_on,,59,0,12,,,,,,,,,,,,,,,,8,,50,0
26519,note_on,,59,0,5,,,,,,,,,,,,,,,,1,,69,0
26519,note_on,,0,0,18,,,,,,,,,,,,,,,,15,,69,0
26519,note_on,,59,0,7,,,,,,,,,,,,,,,,3,,66,0
26519,note_on,,59,0,16,,,,,,,,,,,,,,,,12,,62,0
26520,note_on,,1,0,14,,,,,,,,,,,,,,,,10,,74,72
26520,note_on,,1,0,15,,,,,,,,,,,,,,,,11,,78,72
26549,note_on,,29,0,15,,,,,,,,,,,,,,,,11,,78,0
26549,note_on,,29,0,14,,,,,,,,,,,,,,,,10,,74,0
26550,note_on,,1,0,14,,,,,,,,,,,,,,,,10,,69,72
26550,note_on,,1,0,15,,,,,,,,,,,,,,,,11,,74,72
26579,note_on,,29,0,15,,,,,,,,,,,,,,,,11,,74,0
26579,note_on,,29,0,14,,,,,,,,,,,,,,,,10,,69,0
26580,note_on,,1,0,15,,,,,,,,,,,,,,,,11,,69,72
26580,note_on,,1,0,14,,,,,,,,,,,,,,,,10,,66,72
26609,note_on,,29,0,14,,,,,,,,,,,,,,,,10,,66,0
26609,note_on,,29,0,15,,,,,,,,,,,,,,,,11,,69,0
26610,note_on,,1,0,14,,,,,,,,,,,,,,,,10,,69,72
26610,note_on,,1,0,15,,,,,,,,,,,,,,,,11,,74,72
26639,note_on,,29,0,14,,,,,,,,,,,,,,,,10,,69,0
26639,note_on,,29,0,15,,,,,,,,,,,,,,,,11,,74,0
26640,note_on,,121,0,5,,,,,,,,,,,,,,,,1,,74,72
26640,note_on,,121,0,13,,,,,,,,,,,,,,,,14,,50,72
26640,note_on,,121,0,11,,,,,,,,,,,,,,,,7,,66,72
26640,note_on,,121,0,16,,,,,,,,,,,,,,,,12,,74,72
26640,note_on,,121,0,7,,,,,,,,,,,,,,,,3,,74,72
26640,note_on,,1,0,15,,,,,,,,,,,,,,,,11,,81,72
26640,note_on,,121,0,17,,,,,,,,,,,,,,,,13,,62,72
26640,note_on,,121,0,12,,,,,,,,,,,,,,,,8,,62,72
26640,note_on,,0,0,18,,,,,,,,,,,,,,,,15,,62,72
26640,note_on,,121,0,9,,,,,,,,,,,,,,,,5,,74,72
26640,note_on,,0,0,18,,,,,,,,,,,,,,,,15,,69,72
26640,note_on,,0,0,18,,,,,,,,,,,,,,,,15,,74,72
26640,note_on,,121,0,18,,,,,,,,,,,,,,,,15,,78,72
26640,note_on,,0,0,18,,,,,,,,,,,,,,,,15,,81,72
26640,note_on,,121,0,6,,,,,,,,,,,,,,,,2,,62,72
26640,note_on,,121,0,10,,,,,,,,,,,,,,,,6,,69,72
26640,note_on,,121,0,8,,,,,,,,,,,,,,,,4,,69,72
26640,note_on,,1,0,14,,,,,,,,,,,,,,,,10,,78,72
26669,note_on,,29,0,15,,,,,,,,,,,,,,,,11,,81,0
26669,note_on,,29,0,14,,,,,,,,,,,,,,,,10,,78,0
26670,note_on,,1,0,14,,,,,,,,,,,,,,,,10,,74,72
26670,note_on,,1,0,15,,,,,,,,,,,,,,,,11,,78,72
26699,note_on,,29,0,15,,,,,,,,,,,,,,,,11,,78,0
26699,note_on,,59,0,13,,,,,,,,,,,,,,,,14,,50,0
26699,note_on,,59,0,11,,,,,,,,,,,,,,,,7,,66,0
26699,note_on,,29,0,14,,,,,,,,,,,,,,,,10,,74,0
26699,note_on,,59,0,9,,,,,,,,,,,,,,,,5,,74,0
26699,note_on,,59,0,7,,,,,,,,,,,,,,,,3,,74,0
26699,note_on,,59,0,8,,,,,,,,,,,,,,,,4,,69,0
26699,note_on,,59,0,5,,,,,,,,,,,,,,,,1,,74,0
26699,note_on,,59,0,18,,,,,,,,,,,,,,,,15,,62,0
26699,note_on,,59,0,6,,,,,,,,,,,,,,,,2,,62,0
26699,note_on,,59,0,10,,,,,,,,,,,,,,,,6,,69,0
26699,note_on,,59,0,17,,,,,,,,,,,,,,,,13,,62,0
26699,note_on,,59,0,16,,,,,,,,,,,,,,,,12,,74,0
26699,note_on,,59,0,12,,,,,,,,,,,,,,,,8,,62,0
26700,note_on,,1,0,8,,,,,,,,,,,,,,,,4,,66,72
26700,note_on,,1,0,18,,,,,,,,,,,,,,,,15,,62,72
26700,note_on,,1,0,6,,,,,,,,,,,,,,,,2,,50,72
26700,note_on,,1,0,10,,,,,,,,,,,,,,,,6,,66,72
26700,note_on,,1,0,17,,,,,,,,,,,,,,,,13,,50,72
26700,note_on,,1,0,14,,,,,,,,,,,,,,,,10,,69,72
26700,note_on,,1,0,15,,,,,,,,,,,,,,,,11,,74,72
26700,note_on,,0,0,18,,,,,,,,,,,,,,,,15,,50,72
26700,note_on,,1,0,9,,,,,,,,,,,,,,,,5,,69,72
26700,note_on,,1,0,16,,,,,,,,,,,,,,,,12,,69,72
26700,note_on,,1,0,12,,,,,,,,,,,,,,,,8,,50,72
26700,note_on,,1,0,13,,,,,,,,,,,,,,,,14,,50,72
26700,note_on,,1,0,5,,,,,,,,,,,,,,,,1,,69,72
26700,note_on,,1,0,11,,,,,,,,,,,,,,,,7,,62,72
26700,note_on,,1,0,7,,,,,,,,,,,,,,,,3,,69,72
26729,note_on,,29,0,14,,,,,,,,,,,,,,,,10,,69,0
26729,note_on,,29,0,15,,,,,,,,,,,,,,,,11,,74,0
26730,note_on,,1,0,14,,,,,,,,,,,,,,,,10,,74,72
26730,note_on,,1,0,15,,,,,,,,,,,,,,,,11,,78,72
26759,note_on,,0,0,18,,,,,,,,,,,,,,,,15,,74,0
26759,note_on,,0,0,18,,,,,,,,,,,,,,,,15,,62,0
26759,note_on,,0,0,18,,,,,,,,,,,,,,,,15,,81,0
26759,note_on,,59,0,18,,,,,,,,,,,,,,,,15,,78,0
26759,note_on,,0,0,18,,,,,,,,,,,,,,,,15,,69,0
26759,note_on,,59,0,12,,,,,,,,,,,,,,,,8,,50,0
26759,note_on,,29,0,14,,,,,,,,,,,,,,,,10,,74,0
26759,note_on,,59,0,5,,,,,,,,,,,,,,,,1,,69,0
26759,note_on,,59,0,6,,,,,,,,,,,,,,,,2,,50,0
26759,note_on,,59,0,8,,,,,,,,,,,,,,,,4,,66,0
26759,note_on,,59,0,7,,,,,,,,,,,,,,,,3,,69,0
26759,note_on,,59,0,11,,,,,,,,,,,,,,,,7,,62,0
26759,note_on,,0,0,18,,,,,,,,,,,,,,,,15,,50,0
26759,note_on,,59,0,10,,,,,,,,,,,,,,,,6,,66,0
26759,note_on,,59,0,17,,,,,,,,,,,,,,,,13,,50,0
26759,note_on,,59,0,9,,,,,,,,,,,,,,,,5,,69,0
26759,note_on,,29,0,15,,,,,,,,,,,,,,,,11,,78,0
26759,note_on,,59,0,13,,,,,,,,,,,,,,,,14,,50,0
26759,note_on,,59,0,16,,,,,,,,,,,,,,,,12,,69,0
26760,note_on,,1,0,14,,,,,,,,,,,,,,,,10,,78,72
26760,note_on,,1,0,15,,,,,,,,,,,,,,,,11,,81,72
26789,note_on,,29,0,15,,,,,,,,,,,,,,,,11,,81,0
26789,note_on,,29,0,14,,,,,,,,,,,,,,,,10,,78,0
26790,note_on,,1,0,15,,,,,,,,,,,,,,,,11,,78,72
26790,note_on,,1,0,14,,,,,,,,,,,,,,,,10,,74,72
26819,note_on,,29,0,15,,,,,,,,,,,,,,,,11,,78,0
26819,note_on,,29,0,14,,,,,,,,,,,,,,,,10,,74,0
26820,note_on,,1,0,15,,,,,,,,,,,,,,,,11,,74,72
26820,note_on,,1,0,14,,,,,,,,,,,,,,,,10,,69,72
26849,note_on,,29,0,14,,,,,,,,,,,,,,,,10,,69,0
26849,note_on,,29,0,15,,,,,,,,,,,,,,,,11,,74,0
26850,note_on,,1,0,14,,,,,,,,,,,,,,,,10,,81,72
26850,note_on,,1,0,15,,,,,,,,,,,,,,,,11,,78,72
26879,note_on,,29,0,14,,,,,,,,,,,,,,,,10,,81,0
26879,note_on,,29,0,15,,,,,,,,,,,,,,,,11,,78,0
26880,note_on,,0,0,18,,,,,,,,,,,,,,,,15,,69,72
26880,note_on,,121,0,8,,,,,,,,,,,,,,,,4,,74,72
26880,note_on,,121,0,18,,,,,,,,,,,,,,,,15,,62,72
26880,note_on,,121,0,5,,,,,,,,,,,,,,,,1,,74,72
26880,note_on,,1,0,15,,,,,,,,,,,,,,,,11,,78,72
26880,note_on,,121,0,17,,,,,,,,,,,,,,,,13,,62,72
26880,note_on,,121,0,9,,,,,,,,,,,,,,,,5,,74,72
26880,note_on,,121,0,16,,,,,,,,,,,,,,,,12,,74,72
26880,note_on,,121,0,11,,,,,,,,,,,,,,,,7,,66,72
26880,note_on,,0,0,18,,,,,,,,,,,,,,,,15,,66,72
26880,note_on,,121,0,13,,,,,,,,,,,,,,,,14,,50,72
26880,note_on,,121,0,12,,,,,,,,,,,,,,,,8,,62,72
26880,note_on,,121,0,7,,,,,,,,,,,,,,,,3,,78,72
26880,note_on,,1,0,14,,,,,,,,,,,,,,,,10,,81,72
26880,note_on,,121,0,10,,,,,,,,,,,,,,,,6,,69,72
26880,note_on,,121,0,6,,,,,,,,,,,,,,,,2,,62,72
26909,note_on,,29,0,14,,,,,,,,,,,,,,,,10,,81,0
26909,note_on,,29,0,15,,,,,,,,,,,,,,,,11,,78,0
26910,note_on,,1,0,15,,,,,,,,,,,,,,,,11,,74,72
26910,note_on,,1,0,14,,,,,,,,,,,,,,,,10,,78,72
26939,note_on,,59,0,11,,,,,,,,,,,,,,,,7,,66,0
26939,note_on,,59,0,12,,,,,,,,,,,,,,,,8,,62,0
26939,note_on,,59,0,6,,,,,,,,,,,,,,,,2,,62,0
26939,note_on,,29,0,15,,,,,,,,,,,,,,,,11,,74,0
26939,note_on,,59,0,10,,,,,,,,,,,,,,,,6,,69,0
26939,note_on,,59,0,17,,,,,,,,,,,,,,,,13,,62,0
26939,note_on,,59,0,13,,,,,,,,,,,,,,,,14,,50,0
26939,note_on,,59,0,9,,,,,,,,,,,,,,,,5,,74,0
26939,note_on,,29,0,14,,,,,,,,,,,,,,,,10,,78,0
26939,note_on,,59,0,8,,,,,,,,,,,,,,,,4,,74,0
26939,note_on,,59,0,16,,,,,,,,,,,,,,,,12,,74,0
26939,note_on,,59,0,7,,,,,,,,,,,,,,,,3,,78,0
26939,note_on,,59,0,5,,,,,,,,,,,,,,,,1,,74,0
26939,note_on,,59,0,18,,,,,,,,,,,,,,,,15,,62,0
26940,note_on,,1,0,12,,,,,,,,,,,,,,,,8,,50,72
26940,note_on,,1,0,13,,,,,,,,,,,,,,,,14,,50,72
26940,note_on,,1,0,16,,,,,,,,,,,,,,,,12,,66,72
26940,note_on,,1,0,17,,,,,,,,,,,,,,,,13,,50,72
26940,note_on,,1,0,11,,,,,,,,,,,,,,,,7,,62,72
26940,note_on,,1,0,10,,,,,,,,,,,,,,,,6,,66,72
26940,note_on,,1,0,7,,,,,,,,,,,,,,,,3,,74,72
26940,note_on,,1,0,15,,,,,,,,,,,,,,,,11,,69,72
26940,note_on,,1,0,5,,,,,,,,,,,,,,,,1,,69,72
26940,note_on,,1,0,9,,,,,,,,,,,,,,,,5,,69,72
26940,note_on,,1,0,6,,,,,,,,,,,,,,,,2,,50,72
26940,note_on,,0,0,18,,,,,,,,,,,,,,,,15,,62,72
26940,note_on,,1,0,8,,,,,,,,,,,,,,,,4,,69,72
26940,note_on,,1,0,14,,,,,,,,,,,,,,,,10,,74,72
26940,note_on,,1,0,18,,,,,,,,,,,,,,,,15,,50,72
26969,note_on,,29,0,14,,,,,,,,,,,,,,,,10,,74,0
26969,note_on,,29,0,15,,,,,,,,,,,,,,,,11,,69,0
26970,note_on,,1,0,14,,,,,,,,,,,,,,,,10,,81,72
26970,note_on,,1,0,15,,,,,,,,,,,,,,,,11,,78,72
26999,note_on,,59,0,8,,,,,,,,,,,,,,,,4,,69,0
26999,note_on,,59,0,5,,,,,,,,,,,,,,,,1,,69,0
26999,note_on,,29,0,15,,,,,,,,,,,,,,,,11,,78,0
26999,note_on,,59,0,7,,,,,,,,,,,,,,,,3,,74,0
26999,note_on,,59,0,16,,,,,,,,,,,,,,,,12,,66,0
26999,note_on,,0,0,18,,,,,,,,,,,,,,,,15,,62,0
26999,note_on,,59,0,9,,,,,,,,,,,,,,,,5,,69,0
26999,note_on,,59,0,18,,,,,,,,,,,,,,,,15,,66,0
26999,note_on,,0,0,18,,,,,,,,,,,,,,,,15,,50,0
26999,note_on,,59,0,13,,,,,,,,,,,,,,,,14,,50,0
26999,note_on,,0,0,18,,,,,,,,,,,,,,,,15,,69,0
26999,note_on,,59,0,12,,,,,,,,,,,,,,,,8,,50,0
26999,note_on,,59,0,17,,,,,,,,,,,,,,,,13,,50,0
26999,note_on,,59,0,6,,,,,,,,,,,,,,,,2,,50,0
26999,note_on,,29,0,14,,,,,,,,,,,,,,,,10,,81,0
26999,note_on,,59,0,10,,,,,,,,,,,,,,,,6,,66,0
26999,note_on,,59,0,11,,,,,,,,,,,,,,,,7,,62,0
27000,note_on,,1,0,15,,,,,,,,,,,,,,,,11,,78,72
27000,note_on,,1,0,14,,,,,,,,,,,,,,,,10,,81,72
27029,note_on,,29,0,14,,,,,,,,,,,,,,,,10,,81,0
27029,note_on,,29,0,15,,,,,,,,,,,,,,,,11,,78,0
27030,note_on,,1,0,14,,,,,,,,,,,,,,,,10,,78,72
27030,note_on,,1,0,15,,,,,,,,,,,,,,,,11,,74,72
27059,note_on,,29,0,14,,,,,,,,,,,,,,,,10,,78,0
27059,note_on,,29,0,15,,,,,,,,,,,,,,,,11,,74,0
27060,note_on,,61,0,6,,,,,,,,,,,,,,,,2,,50,72
27060,note_on,,61,0,7,,,,,,,,,,,,,,,,3,,78,72
27060,note_on,,61,0,18,,,,,,,,,,,,,,,,15,,62,72
27060,note_on,,61,0,17,,,,,,,,,,,,,,,,13,,50,72
27060,note_on,,61,0,9,,,,,,,,,,,,,,,,5,,74,72
27060,note_on,,61,0,10,,,,,,,,,,,,,,,,6,,69,72
27060,note_on,,61,0,5,,,,,,,,,,,,,,,,1,,74,72
27060,note_on,,0,0,18,,,,,,,,,,,,,,,,15,,50,72
27060,note_on,,61,0,8,,,,,,,,,,,,,,,,4,,74,72
27060,note_on,,61,0,12,,,,,,,,,,,,,,,,8,,50,72
27060,note_on,,61,0,13,,,,,,,,,,,,,,,,14,,50,72
27060,note_on,,1,0,14,,,,,,,,,,,,,,,,10,,74,72
27060,note_on,,1,0,15,,,,,,,,,,,,,,,,11,,69,72
27060,note_on,,61,0,11,,,,,,,,,,,,,,,,7,,66,72
27089,note_on,,29,0,14,,,,,,,,,,,,,,,,10,,74,0
27089,note_on,,29,0,15,,,,,,,,,,,,,,,,11,,69,0
27090,note_on,,1,0,14,,,,,,,,,,,,,,,,10,,86,72
27090,note_on,,1,0,15,,,,,,,,,,,,,,,,11,,78,72
27119,note_on,,59,0,9,,,,,,,,,,,,,,,,5,,74,0
27119,note_on,,59,0,13,,,,,,,,,,,,,,,,14,,50,0
27119,note_on,,0,0,18,,,,,,,,,,,,,,,,15,,50,0
27119,note_on,,59,0,18,,,,,,,,,,,,,,,,15,,62,0
27119,note_on,,59,0,10,,,,,,,,,,,,,,,,6,,69,0
27119,note_on,,59,0,7,,,,,,,,,,,,,,,,3,,78,0
27119,note_on,,59,0,11,,,,,,,,,,,,,,,,7,,66,0
27119,note_on,,59,0,6,,,,,,,,,,,,,,,,2,,50,0
27119,note_on,,59,0,12,,,,,,,,,,,,,,,,8,,50,0
27119,note_on,,29,0,15,,,,,,,,,,,,,,,,11,,78,0
27119,note_on,,29,0,14,,,,,,,,,,,,,,,,10,,86,0
27119,note_on,,59,0,17,,,,,,,,,,,,,,,,13,,50,0
27119,note_on,,59,0,5,,,,,,,,,,,,,,,,1,,74,0
27119,note_on,,59,0,8,,,,,,,,,,,,,,,,4,,74,0
27120,note_on,,1,0,10,,,,,,,,,,,,,,,,6,,69,72
27120,note_on,,1,0,18,,,,,,,,,,,,,,,,15,,62,72
27120,note_on,,1,0,7,,,,,,,,,,,,,,,,3,,81,72
27120,note_on,,121,0,16,,,,,,,,,,,,,,,,12,,69,72
27120,note_on,,1,0,8,,,,,,,,,,,,,,,,4,,78,72
27120,note_on,,1,0,17,,,,,,,,,,,,,,,,13,,62,72
27120,note_on,,0,0,18,,,,,,,,,,,,,,,,15,,78,72
27120,note_on,,1,0,13,,,,,,,,,,,,,,,,14,,50,72
27120,note_on,,1,0,11,,,,,,,,,,,,,,,,7,,66,72
27120,note_on,,0,0,18,,,,,,,,,,,,,,,,15,,74,72
27120,note_on,,1,0,6,,,,,,,,,,,,,,,,2,,62,72
27120,note_on,,1,0,12,,,,,,,,,,,,,,,,8,,62,72
27120,note_on,,1,0,14,,,,,,,,,,,,,,,,10,,86,72
27120,note_on,,1,0,15,,,,,,,,,,,,,,,,11,,78,72
27120,note_on,,0,0,18,,,,,,,,,,,,,,,,15,,69,72
27120,note_on,,1,0,5,,,,,,,,,,,,,,,,1,,74,72
27120,note_on,,1,0,9,,,,,,,,,,,,,,,,5,,74,72
27120,note_on,,0,0,18,,,,,,,,,,,,,,,,15,,66,72
27149,note_on,,29,0,14,,,,,,,,,,,,,,,,10,,86,0
27149,note_on,,29,0,15,,,,,,,,,,,,,,,,11,,78,0
27150,note_on,,1,0,15,,,,,,,,,,,,,,,,11,,74,72
27150,note_on,,1,0,14,,,,,,,,,,,,,,,,10,,81,72
27179,note_on,,59,0,13,,,,,,,,,,,,,,,,14,,50,0
27179,note_on,,59,0,9,,,,,,,,,,,,,,,,5,,74,0
27179,note_on,,59,0,10,,,,,,,,,,,,,,,,6,,69,0
27179,note_on,,59,0,17,,,,,,,,,,,,,,,,13,,62,0
27179,note_on,,29,0,14,,,,,,,,,,,,,,,,10,,81,0
27179,note_on,,59,0,11,,,,,,,,,,,,,,,,7,,66,0
27179,note_on,,59,0,6,,,,,,,,,,,,,,,,2,,62,0
27179,note_on,,59,0,12,,,,,,,,,,,,,,,,8,,62,0
27179,note_on,,59,0,8,,,,,,,,,,,,,,,,4,,78,0
27179,note_on,,59,0,7,,,,,,,,,,,,,,,,3,,81,0
27179,note_on,,59,0,18,,,,,,,,,,,,,,,,15,,62,0
27179,note_on,,59,0,5,,,,,,,,,,,,,,,,1,,74,0
27179,note_on,,29,0,15,,,,,,,,,,,,,,,,11,,74,0
27179,note_on,,0,0,18,,,,,,,,,,,,,,,,15,,66,0
27179,note_on,,59,0,16,,,,,,,,,,,,,,,,12,,69,0
27180,note_on,,1,0,18,,,,,,,,,,,,,,,,15,,66,72
27180,note_on,,1,0,12,,,,,,,,,,,,,,,,8,,62,72
27180,note_on,,1,0,6,,,,,,,,,,,,,,,,2,,62,72
27180,note_on,,1,0,11,,,,,,,,,,,,,,,,7,,66,72
27180,note_on,,1,0,10,,,,,,,,,,,,,,,,6,,69,72
27180,note_on,,1,0,14,,,,,,,,,,,,,,,,10,,78,72
27180,note_on,,1,0,7,,,,,,,,,,,,,,,,3,,78,72
27180,note_on,,1,0,17,,,,,,,,,,,,,,,,13,,62,72
27180,note_on,,1,0,5,,,,,,,,,,,,,,,,1,,74,72
27180,note_on,,0,0,18,,,,,,,,,,,,,,,,15,,62,72
27180,note_on,,1,0,15,,,,,,,,,,,,,,,,11,,69,72
27180,note_on,,1,0,16,,,,,,,,,,,,,,,,12,,62,72
27180,note_on,,1,0,13,,,,,,,,,,,,,,,,14,,50,72
27180,note_on,,1,0,8,,,,,,,,,,,,,,,,4,,74,72
27180,note_on,,1,0,9,,,,,,,,,,,,,,,,5,,74,72
27209,note_on,,29,0,12,,,,,,,,,,,,,,,,8,,62,0
27209,note_on,,29,0,5,,,,,,,,,,,,,,,,1,,74,0
27209,note_on,,29,0,6,,,,,,,,,,,,,,,,2,,62,0
27209,note_on,,29,0,11,,,,,,,,,,,,,,,,7,,66,0
27209,note_on,,29,0,8,,,,,,,,,,,,,,,,4,,74,0
27209,note_on,,29,0,9,,,,,,,,,,,,,,,,5,,74,0
27209,note_on,,29,0,10,,,,,,,,,,,,,,,,6,,69,0
27209,note_on,,29,0,15,,,,,,,,,,,,,,,,11,,69,0
27209,note_on,,29,0,7,,,,,,,,,,,,,,,,3,,78,0
27209,note_on,,0,0,18,,,,,,,,,,,,,,,,15,,62,0
27209,note_on,,29,0,14,,,,,,,,,,,,,,,,10,,78,0
27209,note_on,,29,0,13,,,,,,,,,,,,,,,,14,,50,0
27209,note_on,,29,0,18,,,,,,,,,,,,,,,,15,,66,0
27209,note_on,,29,0,16,,,,,,,,,,,,,,,,12,,62,0
27209,note_on,,29,0,17,,,,,,,,,,,,,,,,13,,62,0
27210,note_on,,1,0,16,,,,,,,,,,,,,,,,12,,62,72
27210,note_on,,1,0,12,,,,,,,,,,,,,,,,8,,62,72
27210,note_on,,1,0,13,,,,,,,,,,,,,,,,14,,50,72
27210,note_on,,1,0,5,,,,,,,,,,,,,,,,1,,74,72
27210,note_on,,1,0,15,,,,,,,,,,,,,,,,11,,78,72
27210,note_on,,1,0,6,,,,,,,,,,,,,,,,2,,62,72
27210,note_on,,1,0,11,,,,,,,,,,,,,,,,7,,66,72
27210,note_on,,1,0,7,,,,,,,,,,,,,,,,3,,78,72
27210,note_on,,1,0,8,,,,,,,,,,,,,,,,4,,74,72
27210,note_on,,1,0,9,,,,,,,,,,,,,,,,5,,74,72
27210,note_on,,1,0,17,,,,,,,,,,,,,,,,13,,62,72
27210,note_on,,1,0,18,,,,,,,,,,,,,,,,15,,62,72
27210,note_on,,0,0,18,,,,,,,,,,,,,,,,15,,66,72
27210,note_on,,1,0,10,,,,,,,,,,,,,,,,6,,69,72
27210,note_on,,1,0,14,,,,,,,,,,,,,,,,10,,81,72
27239,note_on,,29,0,12,,,,,,,,,,,,,,,,8,,62,0
27239,note_on,,29,0,16,,,,,,,,,,,,,,,,12,,62,0
27239,note_on,,29,0,17,,,,,,,,,,,,,,,,13,,62,0
27239,note_on,,29,0,13,,,,,,,,,,,,,,,,14,,50,0
27239,note_on,,29,0,6,,,,,,,,,,,,,,,,2,,62,0
27239,note_on,,29,0,5,,,,,,,,,,,,,,,,1,,74,0
27239,note_on,,29,0,8,,,,,,,,,,,,,,,,4,,74,0
27239,note_on,,29,0,10,,,,,,,,,,,,,,,,6,,69,0
27239,note_on,,0,0,18,,,,,,,,,,,,,,,,15,,69,0
27239,note_on,,29,0,18,,,,,,,,,,,,,,,,15,,74,0
27239,note_on,,0,0,18,,,,,,,,,,,,,,,,15,,66,0
27239,note_on,,29,0,11,,,,,,,,,,,,,,,,7,,66,0
27239,note_on,,29,0,9,,,,,,,,,,,,,,,,5,,74,0
27239,note_on,,29,0,15,,,,,,,,,,,,,,,,11,,78,0
27239,note_on,,29,0,14,,,,,,,,,,,,,,,,10,,81,0
27239,note_on,,29,0,7,,,,,,,,,,,,,,,,3,,78,0
27239,note_on,,0,0,18,,,,,,,,,,,,,,,,15,,62,0
27239,note_on,,0,0,18,,,,,,,,,,,,,,,,15,,78,0
27240,note_on,,0,0,18,,,,,,,,,,,,,,,,15,,71,72
27240,note_on,,0,0,18,,,,,,,,,,,,,,,,15,,62,72
27240,note_on,,0,0,18,,,,,,,,,,,,,,,,15,,79,72
27240,note_on,,1,0,8,,,,,,,,,,,,,,,,4,,62,72
27240,note_on,,0,0,18,,,,,,,,,,,,,,,,15,,59,72
27240,note_on,,1,0,17,,,,,,,,,,,,,,,,13,,59,72
27240,note_on,,1,0,12,,,,,,,,,,,,,,,,8,,59,72
27240,note_on,,1,0,11,,,,,,,,,,,,,,,,7,,62,72
27240,note_on,,1,0,15,,,,,,,,,,,,,,,,11,,79,72
27240,note_on,,1,0,6,,,,,,,,,,,,,,,,2,,59,72
27240,note_on,,1,0,13,,,,,,,,,,,,,,,,14,,50,72
27240,note_on,,1,0,7,,,,,,,,,,,,,,,,3,,74,72
27240,note_on,,1,0,14,,,,,,,,,,,,,,,,10,,83,72
27240,note_on,,1,0,10,,,,,,,,,,,,,,,,6,,67,72
27240,note_on,,1,0,5,,,,,,,,,,,,,,,,1,,74,72
27240,note_on,,1,0,9,,,,,,,,,,,,,,,,5,,74,72
27240,note_on,,1,0,16,,,,,,,,,,,,,,,,12,,62,72
27240,note_on,,1,0,18,,,,,,,,,,,,,,,,15,,74,72
27269,note_on,,29,0,15,,,,,,,,,,,,,,,,11,,79,0
27269,note_on,,29,0,14,,,,,,,,,,,,,,,,10,,83,0
27270,note_on,,1,0,15,,,,,,,,,,,,,,,,11,,74,72
27270,note_on,,1,0,14,,,,,,,,,,,,,,,,10,,79,72
27299,note_on,,59,0,13,,,,,,,,,,,,,,,,14,,50,0
27299,note_on,,59,0,8,,,,,,,,,,,,,,,,4,,62,0
27299,note_on,,59,0,16,,,,,,,,,,,,,,,,12,,62,0
27299,note_on,,59,0,5,,,,,,,,,,,,,,,,1,,74,0
27299,note_on,,59,0,7,,,,,,,,,,,,,,,,3,,74,0
27299,note_on,,59,0,9,,,,,,,,,,,,,,,,5,,74,0
27299,note_on,,29,0,15,,,,,,,,,,,,,,,,11,,74,0
27299,note_on,,59,0,18,,,,,,,,,,,,,,,,15,,74,0
27299,note_on,,0,0,18,,,,,,,,,,,,,,,,15,,59,0
27299,note_on,,29,0,14,,,,,,,,,,,,,,,,10,,79,0
27299,note_on,,0,0,18,,,,,,,,,,,,,,,,15,,62,0
27299,note_on,,59,0,10,,,,,,,,,,,,,,,,6,,67,0
27299,note_on,,0,0,18,,,,,,,,,,,,,,,,15,,71,0
27299,note_on,,59,0,6,,,,,,,,,,,,,,,,2,,59,0
27299,note_on,,0,0,18,,,,,,,,,,,,,,,,15,,79,0
27299,note_on,,59,0,11,,,,,,,,,,,,,,,,7,,62,0
27299,note_on,,59,0,12,,,,,,,,,,,,,,,,8,,59,0
27299,note_on,,59,0,17,,,,,,,,,,,,,,,,13,,59,0
27300,note_on,,1,0,15,,,,,,,,,,,,,,,,11,,79,72
27300,note_on,,1,0,18,,,,,,,,,,,,,,,,15,,62,72
27300,note_on,,0,0,18,,,,,,,,,,,,,,,,15,,83,72
27300,note_on,,1,0,5,,,,,,,,,,,,,,,,1,,74,72
27300,note_on,,0,0,18,,,,,,,,,,,,,,,,15,,74,72
27300,note_on,,1,0,13,,,,,,,,,,,,,,,,14,,50,72
27300,note_on,,0,0,18,,,,,,,,,,,,,,,,15,,79,72
27300,note_on,,0,0,18,,,,,,,,,,,,,,,,15,,55,72
27300,note_on,,1,0,8,,,,,,,,,,,,,,,,4,,74,72
27300,note_on,,1,0,9,,,,,,,,,,,,,,,,5,,74,72
27300,note_on,,1,0,16,,,,,,,,,,,,,,,,12,,62,72
27300,note_on,,1,0,12,,,,,,,,,,,,,,,,8,,55,72
27300,note_on,,1,0,11,,,,,,,,,,,,,,,,7,,67,72
27300,note_on,,1,0,6,,,,,,,,,,,,,,,,2,,55,72
27300,note_on,,1,0,7,,,,,,,,,,,,,,,,3,,79,72
27300,note_on,,1,0,17,,,,,,,,,,,,,,,,13,,55,72
27300,note_on,,1,0,14,,,,,,,,,,,,,,,,10,,83,72
27300,note_on,,1,0,10,,,,,,,,,,,,,,,,6,,71,72
27329,note_on,,29,0,14,,,,,,,,,,,,,,,,10,,83,0
27329,note_on,,29,0,15,,,,,,,,,,,,,,,,11,,79,0
27330,note_on,,1,0,14,,,,,,,,,,,,,,,,10,,86,72
27330,note_on,,1,0,15,,,,,,,,,,,,,,,,11,,83,72
27359,note_on,,29,0,14,,,,,,,,,,,,,,,,10,,86,0
27359,note_on,,29,0,15,,,,,,,,,,,,,,,,11,,83,0
27359,note_on,,59,0,9,,,,,,,,,,,,,,,,5,,74,0
27359,note_on,,59,0,12,,,,,,,,,,,,,,,,8,,55,0
27359,note_on,,59,0,16,,,,,,,,,,,,,,,,12,,62,0
27359,note_on,,59,0,11,,,,,,,,,,,,,,,,7,,67,0
27359,note_on,,59,0,8,,,,,,,,,,,,,,,,4,,74,0
27359,note_on,,59,0,10,,,,,,,,,,,,,,,,6,,71,0
27359,note_on,,0,0,18,,,,,,,,,,,,,,,,15,,83,0
27359,note_on,,59,0,18,,,,,,,,,,,,,,,,15,,62,0
27359,note_on,,59,0,6,,,,,,,,,,,,,,,,2,,55,0
27359,note_on,,0,0,18,,,,,,,,,,,,,,,,15,,79,0
27359,note_on,,59,0,13,,,,,,,,,,,,,,,,14,,50,0
27359,note_on,,0,0,18,,,,,,,,,,,,,,,,15,,74,0
27359,note_on,,59,0,17,,,,,,,,,,,,,,,,13,,55,0
27359,note_on,,59,0,7,,,,,,,,,,,,,,,,3,,79,0
27359,note_on,,0,0,18,,,,,,,,,,,,,,,,15,,55,0
27359,note_on,,59,0,5,,,,,,,,,,,,,,,,1,,74,0
27360,note_on,,1,0,8,,,,,,,,,,,,,,,,4,,74,72
27360,note_on,,1,0,12,,,,,,,,,,,,,,,,8,,62,72
27360,note_on,,1,0,9,,,,,,,,,,,,,,,,5,,74,72
27360,note_on,,1,0,17,,,,,,,,,,,,,,,,13,,62,72
27360,note_on,,1,0,10,,,,,,,,,,,,,,,,6,,69,72
27360,note_on,,1,0,6,,,,,,,,,,,,,,,,2,,62,72
27360,note_on,,1,0,14,,,,,,,,,,,,,,,,10,,86,72
27360,note_on,,1,0,5,,,,,,,,,,,,,,,,1,,74,72
27360,note_on,,1,0,18,,,,,,,,,,,,,,,,15,,62,72
27360,note_on,,1,0,7,,,,,,,,,,,,,,,,3,,78,72
27360,note_on,,0,0,18,,,,,,,,,,,,,,,,15,,69,72
27360,note_on,,0,0,18,,,,,,,,,,,,,,,,15,,74,72
27360,note_on,,0,0,18,,,,,,,,,,,,,,,,15,,81,72
27360,note_on,,0,0,18,,,,,,,,,,,,,,,,15,,78,72
27360,note_on,,1,0,13,,,,,,,,,,,,,,,,14,,50,72
27360,note_on,,1,0,16,,,,,,,,,,,,,,,,12,,66,72
27360,note_on,,0,0,18,,,,,,,,,,,,,,,,15,,66,72
27360,note_on,,1,0,11,,,,,,,,,,,,,,,,7,,66,72
27360,note_on,,1,0,15,,,,,,,,,,,,,,,,11,,81,72
27389,note_on,,29,0,15,,,,,,,,,,,,,,,,11,,81,0
27389,note_on,,29,0,14,,,,,,,,,,,,,,,,10,,86,0
27390,note_on,,1,0,14,,,,,,,,,,,,,,,,10,,81,72
27390,note_on,,1,0,15,,,,,,,,,,,,,,,,11,,78,72
27419,note_on,,29,0,15,,,,,,,,,,,,,,,,11,,78,0
27419,note_on,,29,0,14,,,,,,,,,,,,,,,,10,,81,0
27420,note_on,,1,0,15,,,,,,,,,,,,,,,,11,,74,72
27420,note_on,,1,0,14,,,,,,,,,,,,,,,,10,,78,72
27449,note_on,,29,0,14,,,,,,,,,,,,,,,,10,,78,0
27449,note_on,,29,0,15,,,,,,,,,,,,,,,,11,,74,0
27450,note_on,,1,0,14,,,,,,,,,,,,,,,,10,,81,72
27450,note_on,,1,0,15,,,,,,,,,,,,,,,,11,,78,72
27479,note_on,,119,0,16,,,,,,,,,,,,,,,,12,,66,0
27479,note_on,,119,0,6,,,,,,,,,,,,,,,,2,,62,0
27479,note_on,,0,0,18,,,,,,,,,,,,,,,,15,,81,0
27479,note_on,,119,0,17,,,,,,,,,,,,,,,,13,,62,0
27479,note_on,,119,0,5,,,,,,,,,,,,,,,,1,,74,0
27479,note_on,,0,0,18,,,,,,,,,,,,,,,,15,,74,0
27479,note_on,,0,0,18,,,,,,,,,,,,,,,,15,,69,0
27479,note_on,,0,0,18,,,,,,,,,,,,,,,,15,,66,0
27479,note_on,,29,0,14,,,,,,,,,,,,,,,,10,,81,0
27479,note_on,,119,0,7,,,,,,,,,,,,,,,,3,,78,0
27479,note_on,,119,0,11,,,,,,,,,,,,,,,,7,,66,0
27479,note_on,,119,0,18,,,,,,,,,,,,,,,,15,,62,0
27479,note_on,,0,0,18,,,,,,,,,,,,,,,,15,,78,0
27479,note_on,,119,0,12,,,,,,,,,,,,,,,,8,,62,0
27479,note_on,,119,0,9,,,,,,,,,,,,,,,,5,,74,0
27479,note_on,,119,0,10,,,,,,,,,,,,,,,,6,,69,0
27479,note_on,,119,0,13,,,,,,,,,,,,,,,,14,,50,0
27479,note_on,,29,0,15,,,,,,,,,,,,,,,,11,,78,0
27479,note_on,,119,0,8,,,,,,,,,,,,,,,,4,,74,0
27480,note_on,,1,0,15,,,,,,,,,,,,,,,,11,,62,72
27480,note_on,,1,0,14,,,,,,,,,,,,,,,,10,,74,72
27539,note_on,,59,0,14,,,,,,,,,,,,,,,,10,,74,0
27540,note_on,,61,0,7,,,,,,,,,,,,,,,,3,,81,72
27540,note_on,,1,0,14,,,,,,,,,,,,,,,,10,,81,72
27540,note_on,,61,0,5,,,,,,,,,,,,,,,,1,,69,72
27540,note_on,,61,0,18,,,,,,,,,,,,,,,,15,,69,72
27540,note_on,,61,0,9,,,,,,,,,,,,,,,,5,,69,72
27540,note_on,,61,0,6,,,,,,,,,,,,,,,,2,,69,72
27540,note_on,,61,0,10,,,,,,,,,,,,,,,,6,,69,72
27540,note_on,,61,0,17,,,,,,,,,,,,,,,,13,,69,72
27599,note_on,,59,0,14,,,,,,,,,,,,,,,,10,,81,0
27599,note_on,,59,0,9,,,,,,,,,,,,,,,,5,,69,0
27599,note_on,,59,0,18,,,,,,,,,,,,,,,,15,,69,0
27599,note_on,,59,0,10,,,,,,,,,,,,,,,,6,,69,0
27599,note_on,,119,0,15,,,,,,,,,,,,,,,,11,,62,0
27599,note_on,,59,0,5,,,,,,,,,,,,,,,,1,,69,0
27599,note_on,,59,0,7,,,,,,,,,,,,,,,,3,,81,0
27599,note_on,,59,0,6,,,,,,,,,,,,,,,,2,,69,0
27599,note_on,,59,0,17,,,,,,,,,,,,,,,,13,,69,0
27600,note_on,,1,0,5,,,,,,,,,,,,,,,,1,,71,72
27600,note_on,,1,0,14,,,,,,,,,,,,,,,,10,,83,72
27600,note_on,,1,0,6,,,,,,,,,,,,,,,,2,,71,72
27600,note_on,,1,0,7,,,,,,,,,,,,,,,,3,,83,72
27600,note_on,,1,0,10,,,,,,,,,,,,,,,,6,,71,72
27600,note_on,,1,0,18,,,,,,,,,,,,,,,,15,,71,72
27600,note_on,,1,0,17,,,,,,,,,,,,,,,,13,,71,72
27600,note_on,,1,0,9,,,,,,,,,,,,,,,,5,,71,72
27629,note_on,,29,0,6,,,,,,,,,,,,,,,,2,,71,0
27629,note_on,,29,0,10,,,,,,,,,,,,,,,,6,,71,0
27629,note_on,,29,0,5,,,,,,,,,,,,,,,,1,,71,0
27629,note_on,,29,0,18,,,,,,,,,,,,,,,,15,,71,0
27629,note_on,,29,0,14,,,,,,,,,,,,,,,,10,,83,0
27629,note_on,,29,0,7,,,,,,,,,,,,,,,,3,,83,0
27629,note_on,,29,0,17,,,,,,,,,,,,,,,,13,,71,0
27629,note_on,,29,0,9,,,,,,,,,,,,,,,,5,,71,0
27630,note_on,,1,0,14,,,,,,,,,,,,,,,,10,,81,72
27630,note_on,,1,0,5,,,,,,,,,,,,,,,,1,,69,72
27630,note_on,,1,0,9,,,,,,,,,,,,,,,,5,,69,72
27630,note_on,,1,0,6,,,,,,,,,,,,,,,,2,,69,72
27630,note_on,,1,0,18,,,,,,,,,,,,,,,,15,,69,72
27630,note_on,,1,0,7,,,,,,,,,,,,,,,,3,,81,72
27630,note_on,,1,0,17,,,,,,,,,,,,,,,,13,,69,72
27630,note_on,,1,0,10,,,,,,,,,,,,,,,,6,,69,72
27659,note_on,,29,0,14,,,,,,,,,,,,,,,,10,,81,0
27659,note_on,,29,0,10,,,,,,,,,,,,,,,,6,,69,0
27659,note_on,,29,0,18,,,,,,,,,,,,,,,,15,,69,0
27659,note_on,,29,0,6,,,,,,,,,,,,,,,,2,,69,0
27659,note_on,,29,0,5,,,,,,,,,,,,,,,,1,,69,0
27659,note_on,,29,0,7,,,,,,,,,,,,,,,,3,,81,0
27659,note_on,,29,0,17,,,,,,,,,,,,,,,,13,,69,0
27659,note_on,,29,0,9,,,,,,,,,,,,,,,,5,,69,0
27660,note_on,,1,0,17,,,,,,,,,,,,,,,,13,,67,72
27660,note_on,,1,0,7,,,,,,,,,,,,,,,,3,,79,72
27660,note_on,,1,0,10,,,,,,,,,,,,,,,,6,,67,72
27660,note_on,,1,0,14,,,,,,,,,,,,,,,,10,,79,72
27660,note_on,,1,0,18,,,,,,,,,,,,,,,,15,,67,72
27660,note_on,,1,0,6,,,,,,,,,,,,,,,,2,,67,72
27660,note_on,,1,0,9,,,,,,,,,,,,,,,,5,,67,72
27660,note_on,,1,0,5,,,,,,,,,,,,,,,,1,,67,72
27689,note_on,,29,0,10,,,,,,,,,,,,,,,,6,,67,0
27689,note_on,,29,0,17,,,,,,,,,,,,,,,,13,,67,0
27689,note_on,,29,0,7,,,,,,,,,,,,,,,,3,,79,0
27689,note_on,,29,0,9,,,,,,,,,,,,,,,,5,,67,0
27689,note_on,,29,0,5,,,,,,,,,,,,,,,,1,,67,0
27689,note_on,,29,0,6,,,,,,,,,,,,,,,,2,,67,0
27689,note_on,,29,0,14,,,,,,,,,,,,,,,,10,,79,0
27689,note_on,,29,0,18,,,,,,,,,,,,,,,,15,,67,0
27690,note_on,,1,0,5,,,,,,,,,,,,,,,,1,,66,72
27690,note_on,,1,0,10,,,,,,,,,,,,,,,,6,,66,72
27690,note_on,,1,0,6,,,,,,,,,,,,,,,,2,,66,72
27690,note_on,,1,0,18,,,,,,,,,,,,,,,,15,,66,72
27690,note_on,,1,0,14,,,,,,,,,,,,,,,,10,,78,72
27690,note_on,,1,0,9,,,,,,,,,,,,,,,,5,,66,72
27690,note_on,,1,0,17,,,,,,,,,,,,,,,,13,,66,72
27690,note_on,,1,0,7,,,,,,,,,,,,,,,,3,,78,72
27719,note_on,,29,0,7,,,,,,,,,,,,,,,,3,,78,0
27719,note_on,,29,0,9,,,,,,,,,,,,,,,,5,,66,0
27719,note_on,,29,0,17,,,,,,,,,,,,,,,,13,,66,0
27719,note_on,,29,0,6,,,,,,,,,,,,,,,,2,,66,0
27719,note_on,,29,0,10,,,,,,,,,,,,,,,,6,,66,0
27719,note_on,,29,0,18,,,,,,,,,,,,,,,,15,,66,0
27719,note_on,,29,0,5,,,,,,,,,,,,,,,,1,,66,0
27719,note_on,,29,0,14,,,,,,,,,,,,,,,,10,,78,0
27720,note_on,,1,0,17,,,,,,,,,,,,,,,,13,,64,72
27720,note_on,,1,0,18,,,,,,,,,,,,,,,,15,,64,72
27720,note_on,,1,0,5,,,,,,,,,,,,,,,,1,,64,72
27720,note_on,,1,0,10,,,,,,,,,,,,,,,,6,,64,72
27720,note_on,,1,0,7,,,,,,,,,,,,,,,,3,,76,72
27720,note_on,,1,0,14,,,,,,,,,,,,,,,,10,,76,72
27720,note_on,,1,0,6,,,,,,,,,,,,,,,,2,,64,72
27720,note_on,,1,0,9,,,,,,,,,,,,,,,,5,,64,72
27779,note_on,,59,0,17,,,,,,,,,,,,,,,,13,,64,0
27779,note_on,,59,0,10,,,,,,,,,,,,,,,,6,,64,0
27779,note_on,,59,0,5,,,,,,,,,,,,,,,,1,,64,0
27779,note_on,,59,0,18,,,,,,,,,,,,,,,,15,,64,0
27779,note_on,,59,0,6,,,,,,,,,,,,,,,,2,,64,0
27779,note_on,,59,0,14,,,,,,,,,,,,,,,,10,,76,0
27779,note_on,,59,0,9,,,,,,,,,,,,,,,,5,,64,0
27779,note_on,,59,0,7,,,,,,,,,,,,,,,,3,,76,0
27780,note_on,,301,0,16,,,,,,,,,,,,,,,,12,,61,72
27780,note_on,,301,0,13,,,,,,,,,,,,,,,,14,,45,72
27780,note_on,,1,0,7,,,,,,,,,,,,,,,,3,,81,72
27780,note_on,,1,0,14,,,,,,,,,,,,,,,,10,,81,72
27780,note_on,,1,0,9,,,,,,,,,,,,,,,,5,,69,72
27780,note_on,,1,0,18,,,,,,,,,,,,,,,,15,,57,72
27780,note_on,,1,0,17,,,,,,,,,,,,,,,,13,,57,72
27780,note_on,,1,0,6,,,,,,,,,,,,,,,,2,,57,72
27780,note_on,,1,0,5,,,,,,,,,,,,,,,,1,,69,72
27780,note_on,,301,0,8,,,,,,,,,,,,,,,,4,,69,72
27780,note_on,,1,0,10,,,,,,,,,,,,,,,,6,,69,72
27780,note_on,,301,0,12,,,,,,,,,,,,,,,,8,,57,72
27839,note_on,,59,0,13,,,,,,,,,,,,,,,,14,,45,0
27839,note_on,,59,0,7,,,,,,,,,,,,,,,,3,,81,0
27839,note_on,,59,0,6,,,,,,,,,,,,,,,,2,,57,0
27839,note_on,,59,0,8,,,,,,,,,,,,,,,,4,,69,0
27839,note_on,,59,0,5,,,,,,,,,,,,,,,,1,,69,0
27839,note_on,,59,0,16,,,,,,,,,,,,,,,,12,,61,0
27839,note_on,,59,0,18,,,,,,,,,,,,,,,,15,,57,0
27839,note_on,,59,0,10,,,,,,,,,,,,,,,,6,,69,0
27839,note_on,,59,0,9,,,,,,,,,,,,,,,,5,,69,0
27839,note_on,,59,0,17,,,,,,,,,,,,,,,,13,,57,0
27839,note_on,,59,0,14,,,,,,,,,,,,,,,,10,,81,0
27839,note_on,,59,0,12,,,,,,,,,,,,,,,,8,,57,0
27840,note_on,,1,0,16,,,,,,,,,,,,,,,,12,,62,72
27840,note_on,,1,0,14,,,,,,,,,,,,,,,,10,,74,72
27840,note_on,,1,0,7,,,,,,,,,,,,,,,,3,,74,72
27840,note_on,,1,0,13,,,,,,,,,,,,,,,,14,,50,72
27840,note_on,,1,0,5,,,,,,,,,,,,,,,,1,,62,72
27840,note_on,,1,0,10,,,,,,,,,,,,,,,,6,,62,72
27840,note_on,,1,0,8,,,,,,,,,,,,,,,,4,,66,72
27840,note_on,,1,0,17,,,,,,,,,,,,,,,,13,,59,72
27840,note_on,,0,0,18,,,,,,,,,,,,,,,,15,,71,72
27840,note_on,,1,0,9,,,,,,,,,,,,,,,,5,,62,72
27840,note_on,,1,0,6,,,,,,,,,,,,,,,,2,,59,72
27840,note_on,,1,0,12,,,,,,,,,,,,,,,,8,,59,72
27840,note_on,,0,0,18,,,,,,,,,,,,,,,,15,,74,72
27840,note_on,,1,0,18,,,,,,,,,,,,,,,,15,,59,72
27840,note_on,,0,0,18,,,,,,,,,,,,,,,,15,,66,72
27869,note_on,,29,0,18,,,,,,,,,,,,,,,,15,,59,0
27869,note_on,,29,0,6,,,,,,,,,,,,,,,,2,,59,0
27869,note_on,,29,0,17,,,,,,,,,,,,,,,,13,,59,0
27869,note_on,,29,0,12,,,,,,,,,,,,,,,,8,,59,0
27870,note_on,,1,0,17,,,,,,,,,,,,,,,,13,,57,72
27870,note_on,,1,0,18,,,,,,,,,,,,,,,,15,,57,72
27870,note_on,,1,0,6,,,,,,,,,,,,,,,,2,,57,72
27870,note_on,,1,0,12,,,,,,,,,,,,,,,,8,,57,72
27899,note_on,,29,0,12,,,,,,,,,,,,,,,,8,,57,0
27899,note_on,,29,0,17,,,,,,,,,,,,,,,,13,,57,0
27899,note_on,,59,0,7,,,,,,,,,,,,,,,,3,,74,0
27899,note_on,,29,0,6,,,,,,,,,,,,,,,,2,,57,0
27899,note_on,,59,0,5,,,,,,,,,,,,,,,,1,,62,0
27899,note_on,,59,0,10,,,,,,,,,,,,,,,,6,,62,0
27899,note_on,,29,0,18,,,,,,,,,,,,,,,,15,,57,0
27899,note_on,,59,0,14,,,,,,,,,,,,,,,,10,,74,0
27899,note_on,,59,0,16,,,,,,,,,,,,,,,,12,,62,0
27899,note_on,,59,0,9,,,,,,,,,,,,,,,,5,,62,0
27900,note_on,,1,0,9,,,,,,,,,,,,,,,,5,,74,72
27900,note_on,,1,0,18,,,,,,,,,,,,,,,,15,,55,72
27900,note_on,,1,0,7,,,,,,,,,,,,,,,,3,,76,72
27900,note_on,,1,0,16,,,,,,,,,,,,,,,,12,,64,72
27900,note_on,,1,0,10,,,,,,,,,,,,,,,,6,,64,72
27900,note_on,,1,0,14,,,,,,,,,,,,,,,,10,,86,72
27900,note_on,,1,0,5,,,,,,,,,,,,,,,,1,,74,72
27900,note_on,,1,0,6,,,,,,,,,,,,,,,,2,,55,72
27900,note_on,,1,0,17,,,,,,,,,,,,,,,,13,,55,72
27900,note_on,,1,0,12,,,,,,,,,,,,,,,,8,,55,72
27929,note_on,,29,0,12,,,,,,,,,,,,,,,,8,,55,0
27929,note_on,,29,0,18,,,,,,,,,,,,,,,,15,,55,0
27929,note_on,,29,0,7,,,,,,,,,,,,,,,,3,,76,0
27929,note_on,,29,0,16,,,,,,,,,,,,,,,,12,,64,0
27929,note_on,,29,0,6,,,,,,,,,,,,,,,,2,,55,0
27929,note_on,,29,0,17,,,,,,,,,,,,,,,,13,,55,0
27929,note_on,,29,0,10,,,,,,,,,,,,,,,,6,,64,0
27930,note_on,,1,0,6,,,,,,,,,,,,,,,,2,,54,72
27930,note_on,,1,0,12,,,,,,,,,,,,,,,,8,,54,72
27930,note_on,,1,0,17,,,,,,,,,,,,,,,,13,,54,72
27930,note_on,,1,0,18,,,,,,,,,,,,,,,,15,,54,72
27930,note_on,,1,0,16,,,,,,,,,,,,,,,,12,,66,72
27930,note_on,,1,0,10,,,,,,,,,,,,,,,,6,,66,72
27930,note_on,,1,0,7,,,,,,,,,,,,,,,,3,,78,72
27959,note_on,,119,0,8,,,,,,,,,,,,,,,,4,,66,0
27959,note_on,,29,0,7,,,,,,,,,,,,,,,,3,,78,0
27959,note_on,,29,0,6,,,,,,,,,,,,,,,,2,,54,0
27959,note_on,,29,0,17,,,,,,,,,,,,,,,,13,,54,0
27959,note_on,,29,0,18,,,,,,,,,,,,,,,,15,,66,0
27959,note_on,,29,0,16,,,,,,,,,,,,,,,,12,,66,0
27959,note_on,,0,0,18,,,,,,,,,,,,,,,,15,,74,0
27959,note_on,,0,0,18,,,,,,,,,,,,,,,,15,,71,0
27959,note_on,,0,0,18,,,,,,,,,,,,,,,,15,,54,0
27959,note_on,,29,0,10,,,,,,,,,,,,,,,,6,,66,0
27959,note_on,,29,0,12,,,,,,,,,,,,,,,,8,,54,0
27959,note_on,,119,0,13,,,,,,,,,,,,,,,,14,,50,0
27960,note_on,,1,0,10,,,,,,,,,,,,,,,,6,,67,72
27960,note_on,,0,0,18,,,,,,,,,,,,,,,,15,,67,72
27960,note_on,,1,0,7,,,,,,,,,,,,,,,,3,,79,72
27960,note_on,,1,0,6,,,,,,,,,,,,,,,,2,,52,72
27960,note_on,,0,0,18,,,,,,,,,,,,,,,,15,,74,72
27960,note_on,,1,0,12,,,,,,,,,,,,,,,,8,,52,72
27960,note_on,,1,0,16,,,,,,,,,,,,,,,,12,,67,72
27960,note_on,,1,0,18,,,,,,,,,,,,,,,,15,,76,72
27960,note_on,,0,0,18,,,,,,,,,,,,,,,,15,,52,72
27960,note_on,,1,0,17,,,,,,,,,,,,,,,,13,,52,72
28019,note_on,,59,0,12,,,,,,,,,,,,,,,,8,,52,0
28019,note_on,,119,0,5,,,,,,,,,,,,,,,,1,,74,0
28019,note_on,,59,0,7,,,,,,,,,,,,,,,,3,,79,0
28019,note_on,,0,0,18,,,,,,,,,,,,,,,,15,,74,0
28019,note_on,,119,0,9,,,,,,,,,,,,,,,,5,,74,0
28019,note_on,,59,0,16,,,,,,,,,,,,,,,,12,,67,0
28019,note_on,,59,0,17,,,,,,,,,,,,,,,,13,,52,0
28019,note_on,,119,0,14,,,,,,,,,,,,,,,,10,,86,0
28019,note_on,,59,0,6,,,,,,,,,,,,,,,,2,,52,0
28019,note_on,,59,0,10,,,,,,,,,,,,,,,,6,,67,0
28019,note_on,,0,0,18,,,,,,,,,,,,,,,,15,,67,0
28019,note_on,,59,0,18,,,,,,,,,,,,,,,,15,,52,0
28020,note_on,,1,0,7,,,,,,,,,,,,,,,,3,,76,72
28020,note_on,,1,0,9,,,,,,,,,,,,,,,,5,,73,72
28020,note_on,,61,0,8,,,,,,,,,,,,,,,,4,,69,72
28020,note_on,,1,0,14,,,,,,,,,,,,,,,,10,,85,72
28020,note_on,,0,0,18,,,,,,,,,,,,,,,,15,,73,72
28020,note_on,,541,0,11,,,,,,,,,,,,,,,,7,,64,72
28020,note_on,,421,0,15,,,,,,,,,,,,,,,,11,,76,72
28020,note_on,,1,0,12,,,,,,,,,,,,,,,,8,,57,72
28020,note_on,,1,0,6,,,,,,,,,,,,,,,,2,,57,72
28020,note_on,,0,0,18,,,,,,,,,,,,,,,,15,,64,72
28020,note_on,,1,0,5,,,,,,,,,,,,,,,,1,,73,72
28020,note_on,,61,0,13,,,,,,,,,,,,,,,,14,,45,72
28020,note_on,,1,0,18,,,,,,,,,,,,,,,,15,,57,72
28020,note_on,,1,0,16,,,,,,,,,,,,,,,,12,,69,72
28020,note_on,,1,0,17,,,,,,,,,,,,,,,,13,,57,72
28020,note_on,,1,0,10,,,,,,,,,,,,,,,,6,,69,72
28049,note_on,,29,0,16,,,,,,,,,,,,,,,,12,,69,0
28049,note_on,,29,0,10,,,,,,,,,,,,,,,,6,,69,0
28050,note_on,,1,0,16,,,,,,,,,,,,,,,,12,,67,72
28050,note_on,,1,0,10,,,,,,,,,,,,,,,,6,,67,72
28079,note_on,,59,0,12,,,,,,,,,,,,,,,,8,,57,0
28079,note_on,,59,0,13,,,,,,,,,,,,,,,,14,,45,0
28079,note_on,,59,0,6,,,,,,,,,,,,,,,,2,,57,0
28079,note_on,,29,0,10,,,,,,,,,,,,,,,,6,,67,0
28079,note_on,,59,0,7,,,,,,,,,,,,,,,,3,,76,0
28079,note_on,,59,0,9,,,,,,,,,,,,,,,,5,,73,0
28079,note_on,,59,0,14,,,,,,,,,,,,,,,,10,,85,0
28079,note_on,,59,0,17,,,,,,,,,,,,,,,,13,,57,0
28079,note_on,,0,0,18,,,,,,,,,,,,,,,,15,,73,0
28079,note_on,,0,0,18,,,,,,,,,,,,,,,,15,,64,0
28079,note_on,,0,0,18,,,,,,,,,,,,,,,,15,,57,0
28079,note_on,,59,0,18,,,,,,,,,,,,,,,,15,,76,0
28079,note_on,,59,0,5,,,,,,,,,,,,,,,,1,,73,0
28079,note_on,,59,0,15,,,,,,,,,,,,,,,,11,,76,0
28079,note_on,,59,0,8,,,,,,,,,,,,,,,,4,,69,0
28079,note_on,,29,0,16,,,,,,,,,,,,,,,,12,,67,0
28079,note_on,,59,0,11,,,,,,,,,,,,,,,,7,,64,0
28080,note_on,,1,0,18,,,,,,,,,,,,,,,,15,,78,72
28080,note_on,,0,0,18,,,,,,,,,,,,,,,,15,,74,72
28080,note_on,,1,0,9,,,,,,,,,,,,,,,,5,,74,72
28080,note_on,,1,0,15,,,,,,,,,,,,,,,,11,,78,72
28080,note_on,,1,0,13,,,,,,,,,,,,,,,,14,,50,72
28080,note_on,,1,0,8,,,,,,,,,,,,,,,,4,,69,72
28080,note_on,,1,0,11,,,,,,,,,,,,,,,,7,,66,72
28080,note_on,,0,0,18,,,,,,,,,,,,,,,,15,,50,72
28080,note_on,,0,0,18,,,,,,,,,,,,,,,,15,,69,72
28080,note_on,,1,0,17,,,,,,,,,,,,,,,,13,,50,72
28080,note_on,,1,0,16,,,,,,,,,,,,,,,,12,,69,72
28080,note_on,,1,0,12,,,,,,,,,,,,,,,,8,,50,72
28080,note_on,,1,0,5,,,,,,,,,,,,,,,,1,,74,72
28080,note_on,,1,0,7,,,,,,,,,,,,,,,,3,,78,72
28080,note_on,,1,0,10,,,,,,,,,,,,,,,,6,,69,72
28080,note_on,,1,0,6,,,,,,,,,,,,,,,,2,,50,72
28080,note_on,,1,0,14,,,,,,,,,,,,,,,,10,,86,72
28109,note_on,,29,0,11,,,,,,,,,,,,,,,,7,,66,0
28109,note_on,,29,0,16,,,,,,,,,,,,,,,,12,,69,0
28109,note_on,,29,0,15,,,,,,,,,,,,,,,,11,,78,0
28109,note_on,,29,0,10,,,,,,,,,,,,,,,,6,,69,0
28110,note_on,,1,0,11,,,,,,,,,,,,,,,,7,,64,72
28110,note_on,,1,0,16,,,,,,,,,,,,,,,,12,,67,72
28110,note_on,,1,0,10,,,,,,,,,,,,,,,,6,,67,72
28110,note_on,,1,0,15,,,,,,,,,,,,,,,,11,,76,72
28139,note_on,,29,0,16,,,,,,,,,,,,,,,,12,,67,0
28139,note_on,,29,0,11,,,,,,,,,,,,,,,,7,,64,0
28139,note_on,,59,0,5,,,,,,,,,,,,,,,,1,,74,0
28139,note_on,,59,0,8,,,,,,,,,,,,,,,,4,,69,0
28139,note_on,,29,0,10,,,,,,,,,,,,,,,,6,,67,0
28139,note_on,,59,0,14,,,,,,,,,,,,,,,,10,,86,0
28139,note_on,,29,0,15,,,,,,,,,,,,,,,,11,,76,0
28139,note_on,,59,0,9,,,,,,,,,,,,,,,,5,,74,0
28140,note_on,,1,0,11,,,,,,,,,,,,,,,,7,,62,72
28140,note_on,,1,0,8,,,,,,,,,,,,,,,,4,,66,72
28140,note_on,,1,0,10,,,,,,,,,,,,,,,,6,,66,72
28140,note_on,,1,0,16,,,,,,,,,,,,,,,,12,,66,72
28140,note_on,,1,0,14,,,,,,,,,,,,,,,,10,,81,72
28140,note_on,,1,0,15,,,,,,,,,,,,,,,,11,,74,72
28140,note_on,,1,0,5,,,,,,,,,,,,,,,,1,,69,72
28140,note_on,,1,0,9,,,,,,,,,,,,,,,,5,,69,72
28169,note_on,,29,0,16,,,,,,,,,,,,,,,,12,,66,0
28169,note_on,,89,0,7,,,,,,,,,,,,,,,,3,,78,0
28169,note_on,,29,0,15,,,,,,,,,,,,,,,,11,,74,0
28169,note_on,,29,0,10,,,,,,,,,,,,,,,,6,,66,0
28169,note_on,,29,0,11,,,,,,,,,,,,,,,,7,,62,0
28170,note_on,,1,0,11,,,,,,,,,,,,,,,,7,,61,72
28170,note_on,,1,0,10,,,,,,,,,,,,,,,,6,,64,72
28170,note_on,,1,0,15,,,,,,,,,,,,,,,,11,,73,72
28170,note_on,,1,0,16,,,,,,,,,,,,,,,,12,,64,72
28170,note_on,,1,0,7,,,,,,,,,,,,,,,,3,,76,72
28199,note_on,,29,0,11,,,,,,,,,,,,,,,,7,,61,0
28199,note_on,,29,0,10,,,,,,,,,,,,,,,,6,,64,0
28199,note_on,,29,0,7,,,,,,,,,,,,,,,,3,,76,0
28199,note_on,,59,0,14,,,,,,,,,,,,,,,,10,,81,0
28199,note_on,,119,0,18,,,,,,,,,,,,,,,,15,,78,0
28199,note_on,,0,0,18,,,,,,,,,,,,,,,,15,,74,0
28199,note_on,,0,0,18,,,,,,,,,,,,,,,,15,,69,0
28199,note_on,,0,0,18,,,,,,,,,,,,,,,,15,,50,0
28199,note_on,,119,0,6,,,,,,,,,,,,,,,,2,,50,0
28199,note_on,,119,0,17,,,,,,,,,,,,,,,,13,,50,0
28199,note_on,,119,0,12,,,,,,,,,,,,,,,,8,,50,0
28199,note_on,,59,0,5,,,,,,,,,,,,,,,,1,,69,0
28199,note_on,,29,0,16,,,,,,,,,,,,,,,,12,,64,0
28199,note_on,,59,0,8,,,,,,,,,,,,,,,,4,,66,0
28199,note_on,,59,0,9,,,,,,,,,,,,,,,,5,,69,0
28199,note_on,,119,0,13,,,,,,,,,,,,,,,,14,,50,0
28199,note_on,,29,0,15,,,,,,,,,,,,,,,,11,,73,0
28200,note_on,,0,0,18,,,,,,,,,,,,,,,,15,,62,72
28200,note_on,,1,0,9,,,,,,,,,,,,,,,,5,,71,72
28200,note_on,,1,0,7,,,,,,,,,,,,,,,,3,,74,72
28200,note_on,,1,0,5,,,,,,,,,,,,,,,,1,,71,72
28200,note_on,,1,0,17,,,,,,,,,,,,,,,,13,,55,72
28200,note_on,,1,0,16,,,,,,,,,,,,,,,,12,,62,72
28200,note_on,,0,0,18,,,,,,,,,,,,,,,,15,,67,72
28200,note_on,,1,0,14,,,,,,,,,,,,,,,,10,,83,72
28200,note_on,,1,0,6,,,,,,,,,,,,,,,,2,,55,72
28200,note_on,,1,0,10,,,,,,,,,,,,,,,,6,,62,72
28200,note_on,,1,0,11,,,,,,,,,,,,,,,,7,,59,72
28200,note_on,,1,0,15,,,,,,,,,,,,,,,,11,,71,72
28200,note_on,,1,0,18,,,,,,,,,,,,,,,,15,,71,72
28200,note_on,,0,0,18,,,,,,,,,,,,,,,,15,,55,72
28200,note_on,,1,0,12,,,,,,,,,,,,,,,,8,,55,72
28259,note_on,,59,0,11,,,,,,,,,,,,,,,,7,,59,0
28259,note_on,,59,0,16,,,,,,,,,,,,,,,,12,,62,0
28259,note_on,,59,0,10,,,,,,,,,,,,,,,,6,,62,0
28259,note_on,,59,0,5,,,,,,,,,,,,,,,,1,,71,0
28259,note_on,,59,0,15,,,,,,,,,,,,,,,,11,,71,0
28259,note_on,,59,0,7,,,,,,,,,,,,,,,,3,,74,0
28259,note_on,,59,0,9,,,,,,,,,,,,,,,,5,,71,0
28259,note_on,,59,0,14,,,,,,,,,,,,,,,,10,,83,0
28260,note_on,,1,0,10,,,,,,,,,,,,,,,,6,,67,72
28260,note_on,,61,0,8,,,,,,,,,,,,,,,,4,,62,72
28260,note_on,,1,0,5,,,,,,,,,,,,,,,,1,,73,72
28260,note_on,,61,0,13,,,,,,,,,,,,,,,,14,,50,72
28260,note_on,,1,0,7,,,,,,,,,,,,,,,,3,,79,72
28260,note_on,,1,0,16,,,,,,,,,,,,,,,,12,,67,72
28260,note_on,,1,0,11,,,,,,,,,,,,,,,,7,,64,72
28260,note_on,,1,0,15,,,,,,,,,,,,,,,,11,,76,72
28260,note_on,,1,0,14,,,,,,,,,,,,,,,,10,,85,72
28260,note_on,,1,0,9,,,,,,,,,,,,,,,,5,,73,72
28289,note_on,,29,0,9,,,,,,,,,,,,,,,,5,,73,0
28289,note_on,,29,0,5,,,,,,,,,,,,,,,,1,,73,0
28289,note_on,,29,0,16,,,,,,,,,,,,,,,,12,,67,0
28289,note_on,,29,0,10,,,,,,,,,,,,,,,,6,,67,0
28289,note_on,,29,0,14,,,,,,,,,,,,,,,,10,,85,0
28289,note_on,,29,0,7,,,,,,,,,,,,,,,,3,,79,0
28290,note_on,,1,0,9,,,,,,,,,,,,,,,,5,,74,72
28290,note_on,,1,0,10,,,,,,,,,,,,,,,,6,,66,72
28290,note_on,,1,0,16,,,,,,,,,,,,,,,,12,,66,72
28290,note_on,,1,0,14,,,,,,,,,,,,,,,,10,,86,72
28290,note_on,,1,0,5,,,,,,,,,,,,,,,,1,,74,72
28290,note_on,,1,0,7,,,,,,,,,,,,,,,,3,,78,72
28319,note_on,,29,0,7,,,,,,,,,,,,,,,,3,,78,0
28319,note_on,,29,0,9,,,,,,,,,,,,,,,,5,,74,0
28319,note_on,,59,0,15,,,,,,,,,,,,,,,,11,,76,0
28319,note_on,,29,0,16,,,,,,,,,,,,,,,,12,,66,0
28319,note_on,,59,0,11,,,,,,,,,,,,,,,,7,,64,0
28319,note_on,,119,0,18,,,,,,,,,,,,,,,,15,,71,0
28319,note_on,,0,0,18,,,,,,,,,,,,,,,,15,,62,0
28319,note_on,,29,0,5,,,,,,,,,,,,,,,,1,,74,0
28319,note_on,,0,0,18,,,,,,,,,,,,,,,,15,,67,0
28319,note_on,,29,0,14,,,,,,,,,,,,,,,,10,,86,0
28319,note_on,,29,0,10,,,,,,,,,,,,,,,,6,,66,0
28319,note_on,,59,0,8,,,,,,,,,,,,,,,,4,,62,0
28319,note_on,,59,0,13,,,,,,,,,,,,,,,,14,,50,0
28320,note_on,,1,0,5,,,,,,,,,,,,,,,,1,,73,72
28320,note_on,,1,0,7,,,,,,,,,,,,,,,,3,,76,72
28320,note_on,,1,0,15,,,,,,,,,,,,,,,,11,,69,72
28320,note_on,,1,0,14,,,,,,,,,,,,,,,,10,,85,72
28320,note_on,,1,0,16,,,,,,,,,,,,,,,,12,,64,72
28320,note_on,,1,0,9,,,,,,,,,,,,,,,,5,,73,72
28320,note_on,,1,0,11,,,,,,,,,,,,,,,,7,,57,72
28320,note_on,,1,0,8,,,,,,,,,,,,,,,,4,,69,72
28320,note_on,,1,0,18,,,,,,,,,,,,,,,,15,,69,72
28320,note_on,,0,0,18,,,,,,,,,,,,,,,,15,,64,72
28320,note_on,,0,0,18,,,,,,,,,,,,,,,,15,,57,72
28320,note_on,,1,0,13,,,,,,,,,,,,,,,,14,,45,72
28320,note_on,,1,0,10,,,,,,,,,,,,,,,,6,,64,72
28320,note_on,,0,0,18,,,,,,,,,,,,,,,,15,,73,72
28349,note_on,,29,0,15,,,,,,,,,,,,,,,,11,,69,0
28350,note_on,,1,0,15,,,,,,,,,,,,,,,,11,,76,72
28379,note_on,,179,0,17,,,,,,,,,,,,,,,,13,,55,0
28379,note_on,,179,0,6,,,,,,,,,,,,,,,,2,,55,0
28379,note_on,,29,0,15,,,,,,,,,,,,,,,,11,,76,0
28379,note_on,,179,0,12,,,,,,,,,,,,,,,,8,,55,0
28379,note_on,,59,0,18,,,,,,,,,,,,,,,,15,,55,0
28379,note_on,,59,0,10,,,,,,,,,,,,,,,,6,,64,0
28380,note_on,,1,0,17,,,,,,,,,,,,,,,,13,,54,72
28380,note_on,,1,0,6,,,,,,,,,,,,,,,,2,,54,72
28380,note_on,,1,0,10,,,,,,,,,,,,,,,,6,,66,72
28380,note_on,,1,0,12,,,,,,,,,,,,,,,,8,,54,72
28380,note_on,,1,0,18,,,,,,,,,,,,,,,,15,,54,72
28380,note_on,,1,0,15,,,,,,,,,,,,,,,,11,,78,72
28409,note_on,,29,0,10,,,,,,,,,,,,,,,,6,,66,0
28409,note_on,,29,0,12,,,,,,,,,,,,,,,,8,,54,0
28409,note_on,,29,0,17,,,,,,,,,,,,,,,,13,,54,0
28409,note_on,,29,0,6,,,,,,,,,,,,,,,,2,,54,0
28409,note_on,,29,0,18,,,,,,,,,,,,,,,,15,,54,0
28409,note_on,,29,0,15,,,,,,,,,,,,,,,,11,,78,0
28410,note_on,,1,0,10,,,,,,,,,,,,,,,,6,,67,72
28410,note_on,,1,0,12,,,,,,,,,,,,,,,,8,,52,72
28410,note_on,,1,0,15,,,,,,,,,,,,,,,,11,,79,72
28410,note_on,,1,0,18,,,,,,,,,,,,,,,,15,,52,72
28410,note_on,,1,0,17,,,,,,,,,,,,,,,,13,,52,72
28410,note_on,,1,0,6,,,,,,,,,,,,,,,,2,,52,72
28439,note_on,,29,0,6,,,,,,,,,,,,,,,,2,,52,0
28439,note_on,,119,0,9,,,,,,,,,,,,,,,,5,,73,0
28439,note_on,,119,0,5,,,,,,,,,,,,,,,,1,,73,0
28439,note_on,,29,0,15,,,,,,,,,,,,,,,,11,,79,0
28439,note_on,,0,0,18,,,,,,,,,,,,,,,,15,,52,0
28439,note_on,,0,0,18,,,,,,,,,,,,,,,,15,,64,0
28439,note_on,,119,0,11,,,,,,,,,,,,,,,,7,,57,0
28439,note_on,,119,0,8,,,,,,,,,,,,,,,,4,,69,0
28439,note_on,,0,0,18,,,,,,,,,,,,,,,,15,,73,0
28439,note_on,,0,0,18,,,,,,,,,,,,,,,,15,,57,0
28439,note_on,,29,0,18,,,,,,,,,,,,,,,,15,,69,0
28439,note_on,,29,0,12,,,,,,,,,,,,,,,,8,,52,0
28439,note_on,,29,0,17,,,,,,,,,,,,,,,,13,,52,0
28439,note_on,,119,0,13,,,,,,,,,,,,,,,,14,,45,0
28439,note_on,,29,0,10,,,,,,,,,,,,,,,,6,,67,0
28439,note_on,,119,0,7,,,,,,,,,,,,,,,,3,,76,0
28439,note_on,,119,0,16,,,,,,,,,,,,,,,,12,,64,0
28439,note_on,,119,0,14,,,,,,,,,,,,,,,,10,,85,0
28440,note_on,,0,0,18,,,,,,,,,,,,,,,,15,,74,72
28440,note_on,,0,0,18,,,,,,,,,,,,,,,,15,,69,72
28440,note_on,,1,0,10,,,,,,,,,,,,,,,,6,,69,72
28440,note_on,,1,0,9,,,,,,,,,,,,,,,,5,,74,72
28440,note_on,,1,0,6,,,,,,,,,,,,,,,,2,,54,72
28440,note_on,,1,0,5,,,,,,,,,,,,,,,,1,,74,72
28440,note_on,,1,0,14,,,,,,,,,,,,,,,,10,,86,72
28440,note_on,,1,0,15,,,,,,,,,,,,,,,,11,,81,72
28440,note_on,,1,0,12,,,,,,,,,,,,,,,,8,,54,72
28440,note_on,,1,0,18,,,,,,,,,,,,,,,,15,,66,72
28440,note_on,,1,0,7,,,,,,,,,,,,,,,,3,,74,72
28440,note_on,,0,0,18,,,,,,,,,,,,,,,,15,,54,72
28440,note_on,,0,0,18,,,,,,,,,,,,,,,,15,,57,72
28440,note_on,,1,0,17,,,,,,,,,,,,,,,,13,,54,72
28499,note_on,,59,0,10,,,,,,,,,,,,,,,,6,,69,0
28499,note_on,,0,0,18,,,,,,,,,,,,,,,,15,,74,0
28499,note_on,,59,0,17,,,,,,,,,,,,,,,,13,,54,0
28499,note_on,,59,0,14,,,,,,,,,,,,,,,,10,,86,0
28499,note_on,,59,0,12,,,,,,,,,,,,,,,,8,,54,0
28499,note_on,,0,0,18,,,,,,,,,,,,,,,,15,,69,0
28499,note_on,,59,0,6,,,,,,,,,,,,,,,,2,,54,0
28499,note_on,,59,0,18,,,,,,,,,,,,,,,,15,,66,0
28499,note_on,,59,0,15,,,,,,,,,,,,,,,,11,,81,0
28499,note_on,,0,0,18,,,,,,,,,,,,,,,,15,,54,0
28499,note_on,,0,0,18,,,,,,,,,,,,,,,,15,,57,0
28500,note_on,,0,0,18,,,,,,,,,,,,,,,,15,,69,72
28500,note_on,,0,0,18,,,,,,,,,,,,,,,,15,,78,72
28500,note_on,,0,0,18,,,,,,,,,,,,,,,,15,,50,72
28500,note_on,,1,0,18,,,,,,,,,,,,,,,,15,,54,72
28500,note_on,,1,0,17,,,,,,,,,,,,,,,,13,,50,72
28500,note_on,,0,0,18,,,,,,,,,,,,,,,,15,,74,72
28500,note_on,,61,0,16,,,,,,,,,,,,,,,,12,,66,72
28500,note_on,,1,0,14,,,,,,,,,,,,,,,,10,,74,72
28500,note_on,,1,0,10,,,,,,,,,,,,,,,,6,,69,72
28500,note_on,,61,0,13,,,,,,,,,,,,,,,,14,,50,72
28500,note_on,,61,0,11,,,,,,,,,,,,,,,,7,,66,72
28500,note_on,,1,0,12,,,,,,,,,,,,,,,,8,,50,72
28500,note_on,,1,0,15,,,,,,,,,,,,,,,,11,,69,72
28500,note_on,,61,0,8,,,,,,,,,,,,,,,,4,,66,72
28500,note_on,,1,0,6,,,,,,,,,,,,,,,,2,,50,72
28559,note_on,,59,0,11,,,,,,,,,,,,,,,,7,,66,0
28559,note_on,,59,0,15,,,,,,,,,,,,,,,,11,,69,0
28559,note_on,,59,0,8,,,,,,,,,,,,,,,,4,,66,0
28559,note_on,,119,0,5,,,,,,,,,,,,,,,,1,,74,0
28559,note_on,,59,0,18,,,,,,,,,,,,,,,,15,,54,0
28559,note_on,,0,0,18,,,,,,,,,,,,,,,,15,,50,0
28559,note_on,,0,0,18,,,,,,,,,,,,,,,,15,,78,0
28559,note_on,,0,0,18,,,,,,,,,,,,,,,,15,,69,0
28559,note_on,,59,0,12,,,,,,,,,,,,,,,,8,,50,0
28559,note_on,,59,0,10,,,,,,,,,,,,,,,,6,,69,0
28559,note_on,,59,0,13,,,,,,,,,,,,,,,,14,,50,0
28559,note_on,,0,0,18,,,,,,,,,,,,,,,,15,,74,0
28559,note_on,,59,0,6,,,,,,,,,,,,,,,,2,,50,0
28559,note_on,,119,0,9,,,,,,,,,,,,,,,,5,,74,0
28559,note_on,,59,0,16,,,,,,,,,,,,,,,,12,,66,0
28559,note_on,,59,0,17,,,,,,,,,,,,,,,,13,,50,0
28560,note_on,,1,0,8,,,,,,,,,,,,,,,,4,,62,72
28560,note_on,,1,0,6,,,,,,,,,,,,,,,,2,,59,72
28560,note_on,,0,0,18,,,,,,,,,,,,,,,,15,,71,72
28560,note_on,,1,0,9,,,,,,,,,,,,,,,,5,,74,72
28560,note_on,,1,0,16,,,,,,,,,,,,,,,,12,,66,72
28560,note_on,,1,0,11,,,,,,,,,,,,,,,,7,,66,72
28560,note_on,,1,0,10,,,,,,,,,,,,,,,,6,,69,72
28560,note_on,,1,0,17,,,,,,,,,,,,,,,,13,,59,72
28560,note_on,,0,0,18,,,,,,,,,,,,,,,,15,,59,72
28560,note_on,,0,0,18,,,,,,,,,,,,,,,,15,,74,72
28560,note_on,,0,0,18,,,,,,,,,,,,,,,,15,,62,72
28560,note_on,,1,0,12,,,,,,,,,,,,,,,,8,,59,72
28560,note_on,,1,0,13,,,,,,,,,,,,,,,,14,,50,72
28560,note_on,,1,0,15,,,,,,,,,,,,,,,,11,,69,72
28560,note_on,,1,0,18,,,,,,,,,,,,,,,,15,,67,72
28560,note_on,,1,0,5,,,,,,,,,,,,,,,,1,,74,72
28619,note_on,,59,0,6,,,,,,,,,,,,,,,,2,,59,0
28619,note_on,,59,0,11,,,,,,,,,,,,,,,,7,,66,0
28619,note_on,,59,0,13,,,,,,,,,,,,,,,,14,,50,0
28619,note_on,,59,0,15,,,,,,,,,,,,,,,,11,,69,0
28619,note_on,,59,0,16,,,,,,,,,,,,,,,,12,,66,0
28619,note_on,,119,0,14,,,,,,,,,,,,,,,,10,,74,0
28619,note_on,,59,0,8,,,,,,,,,,,,,,,,4,,62,0
28619,note_on,,59,0,9,,,,,,,,,,,,,,,,5,,74,0
28619,note_on,,59,0,17,,,,,,,,,,,,,,,,13,,59,0
28619,note_on,,0,0,18,,,,,,,,,,,,,,,,15,,62,0
28619,note_on,,179,0,7,,,,,,,,,,,,,,,,3,,74,0
28619,note_on,,59,0,12,,,,,,,,,,,,,,,,8,,59,0
28619,note_on,,59,0,5,,,,,,,,,,,,,,,,1,,74,0
28619,note_on,,59,0,18,,,,,,,,,,,,,,,,15,,59,0
28620,note_on,,1,0,14,,,,,,,,,,,,,,,,10,,76,72
28620,note_on,,1,0,11,,,,,,,,,,,,,,,,7,,62,72
28620,note_on,,1,0,18,,,,,,,,,,,,,,,,15,,62,72
28620,note_on,,0,0,18,,,,,,,,,,,,,,,,15,,59,72
28620,note_on,,1,0,6,,,,,,,,,,,,,,,,2,,59,72
28620,note_on,,1,0,15,,,,,,,,,,,,,,,,11,,67,72
28620,note_on,,1,0,8,,,,,,,,,,,,,,,,4,,62,72
28620,note_on,,1,0,7,,,,,,,,,,,,,,,,3,,76,72
28620,note_on,,1,0,12,,,,,,,,,,,,,,,,8,,59,72
28620,note_on,,1,0,13,,,,,,,,,,,,,,,,14,,50,72
28620,note_on,,1,0,17,,,,,,,,,,,,,,,,13,,59,72
28620,note_on,,1,0,9,,,,,,,,,,,,,,,,5,,76,72
28620,note_on,,1,0,5,,,,,,,,,,,,,,,,1,,76,72
28620,note_on,,1,0,16,,,,,,,,,,,,,,,,12,,62,72
28649,note_on,,29,0,9,,,,,,,,,,,,,,,,5,,76,0
28649,note_on,,29,0,7,,,,,,,,,,,,,,,,3,,76,0
28649,note_on,,29,0,14,,,,,,,,,,,,,,,,10,,76,0
28649,note_on,,29,0,5,,,,,,,,,,,,,,,,1,,76,0
28650,note_on,,1,0,7,,,,,,,,,,,,,,,,3,,78,72
28650,note_on,,1,0,14,,,,,,,,,,,,,,,,10,,78,72
28650,note_on,,1,0,5,,,,,,,,,,,,,,,,1,,78,72
28650,note_on,,1,0,9,,,,,,,,,,,,,,,,5,,78,72
28679,note_on,,119,0,10,,,,,,,,,,,,,,,,6,,69,0
28679,note_on,,59,0,11,,,,,,,,,,,,,,,,7,,62,0
28679,note_on,,29,0,14,,,,,,,,,,,,,,,,10,,78,0
28679,note_on,,59,0,18,,,,,,,,,,,,,,,,15,,67,0
28679,note_on,,0,0,18,,,,,,,,,,,,,,,,15,,71,0
28679,note_on,,0,0,18,,,,,,,,,,,,,,,,15,,74,0
28679,note_on,,29,0,5,,,,,,,,,,,,,,,,1,,78,0
28679,note_on,,0,0,18,,,,,,,,,,,,,,,,15,,59,0
28679,note_on,,29,0,7,,,,,,,,,,,,,,,,3,,78,0
28679,note_on,,59,0,6,,,,,,,,,,,,,,,,2,,59,0
28679,note_on,,0,0,18,,,,,,,,,,,,,,,,15,,62,0
28679,note_on,,29,0,9,,,,,,,,,,,,,,,,5,,78,0
28679,note_on,,59,0,16,,,,,,,,,,,,,,,,12,,62,0
28679,note_on,,59,0,17,,,,,,,,,,,,,,,,13,,59,0
28679,note_on,,59,0,15,,,,,,,,,,,,,,,,11,,67,0
28679,note_on,,59,0,13,,,,,,,,,,,,,,,,14,,50,0
28679,note_on,,59,0,12,,,,,,,,,,,,,,,,8,,59,0
28679,note_on,,59,0,8,,,,,,,,,,,,,,,,4,,62,0
28680,note_on,,1,0,12,,,,,,,,,,,,,,,,8,,59,72
28680,note_on,,1,0,15,,,,,,,,,,,,,,,,11,,67,72
28680,note_on,,1,0,13,,,,,,,,,,,,,,,,14,,50,72
28680,note_on,,1,0,9,,,,,,,,,,,,,,,,5,,79,72
28680,note_on,,1,0,6,,,,,,,,,,,,,,,,2,,59,72
28680,note_on,,1,0,10,,,,,,,,,,,,,,,,6,,67,72
28680,note_on,,1,0,11,,,,,,,,,,,,,,,,7,,62,72
28680,note_on,,0,0,18,,,,,,,,,,,,,,,,15,,74,72
28680,note_on,,1,0,14,,,,,,,,,,,,,,,,10,,79,72
28680,note_on,,1,0,8,,,,,,,,,,,,,,,,4,,74,72
28680,note_on,,1,0,7,,,,,,,,,,,,,,,,3,,79,72
28680,note_on,,0,0,18,,,,,,,,,,,,,,,,15,,79,72
28680,note_on,,1,0,17,,,,,,,,,,,,,,,,13,,59,72
28680,note_on,,0,0,18,,,,,,,,,,,,,,,,15,,59,72
28680,note_on,,1,0,16,,,,,,,,,,,,,,,,12,,62,72
28680,note_on,,1,0,18,,,,,,,,,,,,,,,,15,,62,72
28680,note_on,,0,0,18,,,,,,,,,,,,,,,,15,,83,72
28680,note_on,,1,0,5,,,,,,,,,,,,,,,,1,,79,72
28739,note_on,,59,0,9,,,,,,,,,,,,,,,,5,,79,0
28739,note_on,,59,0,6,,,,,,,,,,,,,,,,2,,59,0
28739,note_on,,59,0,8,,,,,,,,,,,,,,,,4,,74,0
28739,note_on,,59,0,11,,,,,,,,,,,,,,,,7,,62,0
28739,note_on,,59,0,15,,,,,,,,,,,,,,,,11,,67,0
28739,note_on,,59,0,13,,,,,,,,,,,,,,,,14,,50,0
28739,note_on,,59,0,17,,,,,,,,,,,,,,,,13,,59,0
28739,note_on,,59,0,14,,,,,,,,,,,,,,,,10,,79,0
28739,note_on,,59,0,16,,,,,,,,,,,,,,,,12,,62,0
28739,note_on,,59,0,18,,,,,,,,,,,,,,,,15,,59,0
28739,note_on,,59,0,10,,,,,,,,,,,,,,,,6,,67,0
28739,note_on,,59,0,7,,,,,,,,,,,,,,,,3,,79,0
28739,note_on,,59,0,12,,,,,,,,,,,,,,,,8,,59,0
28739,note_on,,59,0,5,,,,,,,,,,,,,,,,1,,79,0
28740,note_on,,1,0,9,,,,,,,,,,,,,,,,5,,79,72
28740,note_on,,1,0,14,,,,,,,,,,,,,,,,10,,79,72
28740,note_on,,1,0,18,,,,,,,,,,,,,,,,15,,57,72
28740,note_on,,1,0,13,,,,,,,,,,,,,,,,14,,50,72
28740,note_on,,1,0,17,,,,,,,,,,,,,,,,13,,57,72
28740,note_on,,1,0,6,,,,,,,,,,,,,,,,2,,57,72
28740,note_on,,1,0,8,,,,,,,,,,,,,,,,4,,74,72
28740,note_on,,1,0,5,,,,,,,,,,,,,,,,1,,79,72
28740,note_on,,1,0,7,,,,,,,,,,,,,,,,3,,79,72
28740,note_on,,1,0,12,,,,,,,,,,,,,,,,8,,57,72
28740,note_on,,1,0,10,,,,,,,,,,,,,,,,6,,67,72
28740,note_on,,1,0,16,,,,,,,,,,,,,,,,12,,62,72
28740,note_on,,1,0,11,,,,,,,,,,,,,,,,7,,62,72
28740,note_on,,1,0,15,,,,,,,,,,,,,,,,11,,71,72
28769,note_on,,29,0,18,,,,,,,,,,,,,,,,15,,57,0
28769,note_on,,29,0,12,,,,,,,,,,,,,,,,8,,57,0
28769,note_on,,29,0,17,,,,,,,,,,,,,,,,13,,57,0
28769,note_on,,29,0,6,,,,,,,,,,,,,,,,2,,57,0
28770,note_on,,1,0,18,,,,,,,,,,,,,,,,15,,55,72
28770,note_on,,1,0,17,,,,,,,,,,,,,,,,13,,55,72
28770,note_on,,1,0,12,,,,,,,,,,,,,,,,8,,55,72
28770,note_on,,1,0,6,,,,,,,,,,,,,,,,2,,55,72
28799,note_on,,0,0,18,,,,,,,,,,,,,,,,15,,83,0
28799,note_on,,0,0,18,,,,,,,,,,,,,,,,15,,74,0
28799,note_on,,0,0,18,,,,,,,,,,,,,,,,15,,55,0
28799,note_on,,29,0,17,,,,,,,,,,,,,,,,13,,55,0
28799,note_on,,29,0,6,,,,,,,,,,,,,,,,2,,55,0
28799,note_on,,59,0,7,,,,,,,,,,,,,,,,3,,79,0
28799,note_on,,0,0,18,,,,,,,,,,,,,,,,15,,79,0
28799,note_on,,59,0,16,,,,,,,,,,,,,,,,12,,62,0
28799,note_on,,29,0,18,,,,,,,,,,,,,,,,15,,62,0
28799,note_on,,59,0,13,,,,,,,,,,,,,,,,14,,50,0
28799,note_on,,59,0,8,,,,,,,,,,,,,,,,4,,74,0
28799,note_on,,59,0,11,,,,,,,,,,,,,,,,7,,62,0
28799,note_on,,59,0,15,,,,,,,,,,,,,,,,11,,71,0
28799,note_on,,29,0,12,,,,,,,,,,,,,,,,8,,55,0
28799,note_on,,59,0,5,,,,,,,,,,,,,,,,1,,79,0
28799,note_on,,59,0,10,,,,,,,,,,,,,,,,6,,67,0
28799,note_on,,59,0,9,,,,,,,,,,,,,,,,5,,79,0
28800,note_on,,1,0,11,,,,,,,,,,,,,,,,7,,62,72
28800,note_on,,1,0,15,,,,,,,,,,,,,,,,11,,69,72
28800,note_on,,1,0,6,,,,,,,,,,,,,,,,2,,62,72
28800,note_on,,0,0,18,,,,,,,,,,,,,,,,15,,69,72
28800,note_on,,1,0,16,,,,,,,,,,,,,,,,12,,62,72
28800,note_on,,1,0,17,,,,,,,,,,,,,,,,13,,62,72
28800,note_on,,1,0,10,,,,,,,,,,,,,,,,6,,69,72
28800,note_on,,1,0,12,,,,,,,,,,,,,,,,8,,62,72
28800,note_on,,1,0,7,,,,,,,,,,,,,,,,3,,79,72
28800,note_on,,1,0,8,,,,,,,,,,,,,,,,4,,69,72
28800,note_on,,0,0,18,,,,,,,,,,,,,,,,15,,62,72
28800,note_on,,1,0,9,,,,,,,,,,,,,,,,5,,79,72
28800,note_on,,0,0,18,,,,,,,,,,,,,,,,15,,74,72
28800,note_on,,1,0,5,,,,,,,,,,,,,,,,1,,79,72
28800,note_on,,1,0,18,,,,,,,,,,,,,,,,15,,81,72
28800,note_on,,1,0,13,,,,,,,,,,,,,,,,14,,50,72
28859,note_on,,59,0,7,,,,,,,,,,,,,,,,3,,79,0
28859,note_on,,59,0,5,,,,,,,,,,,,,,,,1,,79,0
28859,note_on,,119,0,14,,,,,,,,,,,,,,,,10,,79,0
28859,note_on,,59,0,8,,,,,,,,,,,,,,,,4,,69,0
28859,note_on,,59,0,9,,,,,,,,,,,,,,,,5,,79,0
28860,note_on,,1,0,8,,,,,,,,,,,,,,,,4,,66,72
28860,note_on,,1,0,5,,,,,,,,,,,,,,,,1,,78,72
28860,note_on,,1,0,9,,,,,,,,,,,,,,,,5,,78,72
28860,note_on,,1,0,14,,,,,,,,,,,,,,,,10,,78,72
28860,note_on,,1,0,7,,,,,,,,,,,,,,,,3,,78,72
28889,note_on,,29,0,7,,,,,,,,,,,,,,,,3,,78,0
28889,note_on,,29,0,9,,,,,,,,,,,,,,,,5,,78,0
28889,note_on,,29,0,14,,,,,,,,,,,,,,,,10,,78,0
28889,note_on,,29,0,5,,,,,,,,,,,,,,,,1,,78,0
28890,note_on,,1,0,9,,,,,,,,,,,,,,,,5,,76,72
28890,note_on,,1,0,5,,,,,,,,,,,,,,,,1,,76,72
28890,note_on,,1,0,14,,,,,,,,,,,,,,,,10,,76,72
28890,note_on,,1,0,7,,,,,,,,,,,,,,,,3,,76,72
28919,note_on,,119,0,10,,,,,,,,,,,,,,,,6,,69,0
28919,note_on,,119,0,12,,,,,,,,,,,,,,,,8,,62,0
28919,note_on,,119,0,13,,,,,,,,,,,,,,,,14,,50,0
28919,note_on,,119,0,16,,,,,,,,,,,,,,,,12,,62,0
28919,note_on,,59,0,8,,,,,,,,,,,,,,,,4,,66,0
28919,note_on,,29,0,9,,,,,,,,,,,,,,,,5,,76,0
28919,note_on,,119,0,15,,,,,,,,,,,,,,,,11,,69,0
28919,note_on,,119,0,11,,,,,,,,,,,,,,,,7,,62,0
28919,note_on,,29,0,5,,,,,,,,,,,,,,,,1,,76,0
28919,note_on,,29,0,14,,,,,,,,,,,,,,,,10,,76,0
28919,note_on,,29,0,7,,,,,,,,,,,,,,,,3,,76,0
28920,note_on,,1,0,7,,,,,,,,,,,,,,,,3,,78,72
28920,note_on,,1,0,8,,,,,,,,,,,,,,,,4,,74,72
28920,note_on,,1,0,13,,,,,,,,,,,,,,,,14,,50,72
28920,note_on,,1,0,14,,,,,,,,,,,,,,,,10,,78,72
28920,note_on,,1,0,5,,,,,,,,,,,,,,,,1,,78,72
28920,note_on,,1,0,9,,,,,,,,,,,,,,,,5,,78,72
28979,note_on,,0,0,18,,,,,,,,,,,,,,,,15,,69,0
28979,note_on,,179,0,17,,,,,,,,,,,,,,,,13,,62,0
28979,note_on,,59,0,14,,,,,,,,,,,,,,,,10,,78,0
28979,note_on,,179,0,6,,,,,,,,,,,,,,,,2,,62,0
28979,note_on,,179,0,18,,,,,,,,,,,,,,,,15,,81,0
28979,note_on,,0,0,18,,,,,,,,,,,,,,,,15,,62,0
28979,note_on,,0,0,18,,,,,,,,,,,,,,,,15,,74,0
28980,note_on,,1,0,14,,,,,,,,,,,,,,,,10,,69,72
28980,note_on,,61,0,11,,,,,,,,,,,,,,,,7,,66,72
28980,note_on,,61,0,15,,,,,,,,,,,,,,,,11,,66,72
28980,note_on,,1,0,6,,,,,,,,,,,,,,,,2,,66,72
28980,note_on,,61,0,10,,,,,,,,,,,,,,,,6,,69,72
28980,note_on,,1,0,18,,,,,,,,,,,,,,,,15,,66,72
28980,note_on,,0,0,18,,,,,,,,,,,,,,,,15,,69,72
28980,note_on,,1,0,17,,,,,,,,,,,,,,,,13,,66,72
28980,note_on,,61,0,16,,,,,,,,,,,,,,,,12,,62,72
29039,note_on,,59,0,11,,,,,,,,,,,,,,,,7,,66,0
29039,note_on,,119,0,5,,,,,,,,,,,,,,,,1,,78,0
29039,note_on,,59,0,18,,,,,,,,,,,,,,,,15,,66,0
29039,note_on,,0,0,18,,,,,,,,,,,,,,,,15,,69,0
29039,note_on,,119,0,13,,,,,,,,,,,,,,,,14,,50,0
29039,note_on,,59,0,15,,,,,,,,,,,,,,,,11,,66,0
29039,note_on,,59,0,17,,,,,,,,,,,,,,,,13,,66,0
29039,note_on,,119,0,7,,,,,,,,,,,,,,,,3,,78,0
29039,note_on,,59,0,16,,,,,,,,,,,,,,,,12,,62,0
29039,note_on,,119,0,8,,,,,,,,,,,,,,,,4,,74,0
29039,note_on,,59,0,10,,,,,,,,,,,,,,,,6,,69,0
29039,note_on,,59,0,6,,,,,,,,,,,,,,,,2,,66,0
29039,note_on,,119,0,9,,,,,,,,,,,,,,,,5,,78,0
29039,note_on,,59,0,14,,,,,,,,,,,,,,,,10,,69,0
29040,note_on,,0,0,18,,,,,,,,,,,,,,,,15,,67,72
29040,note_on,,1,0,18,,,,,,,,,,,,,,,,15,,71,72
29040,note_on,,1,0,6,,,,,,,,,,,,,,,,2,,67,72
29040,note_on,,1,0,14,,,,,,,,,,,,,,,,10,,71,72
29040,note_on,,1,0,15,,,,,,,,,,,,,,,,11,,67,72
29040,note_on,,1,0,11,,,,,,,,,,,,,,,,7,,67,72
29040,note_on,,1,0,17,,,,,,,,,,,,,,,,13,,67,72
29040,note_on,,1,0,10,,,,,,,,,,,,,,,,6,,71,72
29040,note_on,,1,0,16,,,,,,,,,,,,,,,,12,,67,72
29069,note_on,,29,0,17,,,,,,,,,,,,,,,,13,,67,0
29069,note_on,,29,0,14,,,,,,,,,,,,,,,,10,,71,0
29069,note_on,,29,0,11,,,,,,,,,,,,,,,,7,,67,0
29069,note_on,,29,0,10,,,,,,,,,,,,,,,,6,,71,0
29069,note_on,,29,0,6,,,,,,,,,,,,,,,,2,,67,0
29069,note_on,,29,0,18,,,,,,,,,,,,,,,,15,,71,0
29069,note_on,,0,0,18,,,,,,,,,,,,,,,,15,,67,0
29069,note_on,,29,0,15,,,,,,,,,,,,,,,,11,,67,0
29070,note_on,,1,0,18,,,,,,,,,,,,,,,,15,,69,72
29070,note_on,,1,0,6,,,,,,,,,,,,,,,,2,,66,72
29070,note_on,,1,0,10,,,,,,,,,,,,,,,,6,,69,72
29070,note_on,,1,0,14,,,,,,,,,,,,,,,,10,,69,72
29070,note_on,,1,0,11,,,,,,,,,,,,,,,,7,,66,72
29070,note_on,,1,0,17,,,,,,,,,,,,,,,,13,,66,72
29070,note_on,,1,0,15,,,,,,,,,,,,,,,,11,,66,72
29070,note_on,,0,0,18,,,,,,,,,,,,,,,,15,,66,72
29099,note_on,,29,0,14,,,,,,,,,,,,,,,,10,,69,0
29099,note_on,,59,0,16,,,,,,,,,,,,,,,,12,,67,0
29099,note_on,,29,0,15,,,,,,,,,,,,,,,,11,,66,0
29099,note_on,,29,0,18,,,,,,,,,,,,,,,,15,,69,0
29099,note_on,,29,0,6,,,,,,,,,,,,,,,,2,,66,0
29099,note_on,,29,0,10,,,,,,,,,,,,,,,,6,,69,0
29099,note_on,,29,0,11,,,,,,,,,,,,,,,,7,,66,0
29099,note_on,,0,0,18,,,,,,,,,,,,,,,,15,,66,0
29099,note_on,,29,0,17,,,,,,,,,,,,,,,,13,,66,0
29100,note_on,,1,0,18,,,,,,,,,,,,,,,,15,,64,72
29100,note_on,,1,0,17,,,,,,,,,,,,,,,,13,,64,72
29100,note_on,,0,0,18,,,,,,,,,,,,,,,,15,,67,72
29100,note_on,,1,0,15,,,,,,,,,,,,,,,,11,,64,72
29100,note_on,,1,0,14,,,,,,,,,,,,,,,,10,,67,72
29100,note_on,,1,0,11,,,,,,,,,,,,,,,,7,,64,72
29100,note_on,,1,0,6,,,,,,,,,,,,,,,,2,,64,72
29100,note_on,,1,0,10,,,,,,,,,,,,,,,,6,,67,72
29100,note_on,,1,0,16,,,,,,,,,,,,,,,,12,,67,72
29129,note_on,,29,0,10,,,,,,,,,,,,,,,,6,,67,0
29129,note_on,,29,0,14,,,,,,,,,,,,,,,,10,,67,0
29129,note_on,,29,0,11,,,,,,,,,,,,,,,,7,,64,0
29129,note_on,,29,0,17,,,,,,,,,,,,,,,,13,,64,0
29129,note_on,,29,0,18,,,,,,,,,,,,,,,,15,,64,0
29129,note_on,,29,0,6,,,,,,,,,,,,,,,,2,,64,0
29129,note_on,,0,0,18,,,,,,,,,,,,,,,,15,,67,0
29129,note_on,,29,0,15,,,,,,,,,,,,,,,,11,,64,0
29130,note_on,,1,0,11,,,,,,,,,,,,,,,,7,,62,72
29130,note_on,,0,0,18,,,,,,,,,,,,,,,,15,,62,72
29130,note_on,,1,0,18,,,,,,,,,,,,,,,,15,,66,72
29130,note_on,,1,0,14,,,,,,,,,,,,,,,,10,,66,72
29130,note_on,,1,0,10,,,,,,,,,,,,,,,,6,,66,72
29130,note_on,,1,0,6,,,,,,,,,,,,,,,,2,,62,72
29130,note_on,,1,0,15,,,,,,,,,,,,,,,,11,,62,72
29130,note_on,,1,0,17,,,,,,,,,,,,,,,,13,,62,72
29159,note_on,,29,0,14,,,,,,,,,,,,,,,,10,,66,0
29159,note_on,,29,0,10,,,,,,,,,,,,,,,,6,,66,0
29159,note_on,,29,0,6,,,,,,,,,,,,,,,,2,,62,0
29159,note_on,,59,0,16,,,,,,,,,,,,,,,,12,,67,0
29159,note_on,,29,0,18,,,,,,,,,,,,,,,,15,,66,0
29159,note_on,,0,0,18,,,,,,,,,,,,,,,,15,,62,0
29159,note_on,,29,0,15,,,,,,,,,,,,,,,,11,,62,0
29159,note_on,,29,0,11,,,,,,,,,,,,,,,,7,,62,0
29159,note_on,,29,0,17,,,,,,,,,,,,,,,,13,,62,0
29160,note_on,,1,0,10,,,,,,,,,,,,,,,,6,,64,72
29160,note_on,,1,0,17,,,,,,,,,,,,,,,,13,,61,72
29160,note_on,,1,0,11,,,,,,,,,,,,,,,,7,,61,72
29160,note_on,,1,0,15,,,,,,,,,,,,,,,,11,,61,72
29160,note_on,,1,0,16,,,,,,,,,,,,,,,,12,,69,72
29160,note_on,,1,0,14,,,,,,,,,,,,,,,,10,,64,72
29160,note_on,,0,0,18,,,,,,,,,,,,,,,,15,,64,72
29160,note_on,,1,0,18,,,,,,,,,,,,,,,,15,,61,72
29160,note_on,,1,0,6,,,,,,,,,,,,,,,,2,,61,72
29189,note_on,,29,0,16,,,,,,,,,,,,,,,,12,,69,0
29190,note_on,,1,0,16,,,,,,,,,,,,,,,,12,,67,72
29219,note_on,,59,0,17,,,,,,,,,,,,,,,,13,,61,0
29219,note_on,,59,0,6,,,,,,,,,,,,,,,,2,,61,0
29219,note_on,,59,0,10,,,,,,,,,,,,,,,,6,,64,0
29219,note_on,,59,0,14,,,,,,,,,,,,,,,,10,,64,0
29219,note_on,,59,0,11,,,,,,,,,,,,,,,,7,,61,0
29219,note_on,,59,0,18,,,,,,,,,,,,,,,,15,,61,0
29219,note_on,,59,0,15,,,,,,,,,,,,,,,,11,,61,0
29219,note_on,,0,0,18,,,,,,,,,,,,,,,,15,,64,0
29219,note_on,,29,0,16,,,,,,,,,,,,,,,,12,,67,0
29220,note_on,,1,0,6,,,,,,,,,,,,,,,,2,,54,72
29220,note_on,,1,0,11,,,,,,,,,,,,,,,,7,,61,72
29220,note_on,,1,0,16,,,,,,,,,,,,,,,,12,,66,72
29220,note_on,,1,0,10,,,,,,,,,,,,,,,,6,,69,72
29220,note_on,,301,0,12,,,,,,,,,,,,,,,,8,,54,72
29220,note_on,,1,0,17,,,,,,,,,,,,,,,,13,,54,72
29220,note_on,,1,0,14,,,,,,,,,,,,,,,,10,,69,72
29220,note_on,,1,0,15,,,,,,,,,,,,,,,,11,,73,72
29220,note_on,,0,0,18,,,,,,,,,,,,,,,,15,,54,72
29220,note_on,,1,0,18,,,,,,,,,,,,,,,,15,,73,72
29220,note_on,,0,0,18,,,,,,,,,,,,,,,,15,,66,72
29220,note_on,,0,0,18,,,,,,,,,,,,,,,,15,,57,72
29220,note_on,,0,0,18,,,,,,,,,,,,,,,,15,,69,72
29249,note_on,,29,0,16,,,,,,,,,,,,,,,,12,,66,0
29250,note_on,,1,0,16,,,,,,,,,,,,,,,,12,,64,72
29279,note_on,,29,0,16,,,,,,,,,,,,,,,,12,,64,0
29279,note_on,,59,0,6,,,,,,,,,,,,,,,,2,,54,0
29279,note_on,,59,0,17,,,,,,,,,,,,,,,,13,,54,0
29279,note_on,,59,0,11,,,,,,,,,,,,,,,,7,,61,0
29279,note_on,,59,0,18,,,,,,,,,,,,,,,,15,,73,0
29279,note_on,,0,0,18,,,,,,,,,,,,,,,,15,,66,0
29279,note_on,,0,0,18,,,,,,,,,,,,,,,,15,,57,0
29279,note_on,,0,0,18,,,,,,,,,,,,,,,,15,,69,0
29279,note_on,,0,0,18,,,,,,,,,,,,,,,,15,,54,0
29279,note_on,,59,0,14,,,,,,,,,,,,,,,,10,,69,0
29279,note_on,,59,0,12,,,,,,,,,,,,,,,,8,,54,0
29279,note_on,,59,0,15,,,,,,,,,,,,,,,,11,,73,0
29279,note_on,,59,0,10,,,,,,,,,,,,,,,,6,,69,0
29280,note_on,,1,0,6,,,,,,,,,,,,,,,,2,,59,72
29280,note_on,,1,0,12,,,,,,,,,,,,,,,,8,,59,72
29280,note_on,,1,0,16,,,,,,,,,,,,,,,,12,,62,72
29280,note_on,,1,0,10,,,,,,,,,,,,,,,,6,,69,72
29280,note_on,,0,0,18,,,,,,,,,,,,,,,,15,,62,72
29280,note_on,,0,0,18,,,,,,,,,,,,,,,,15,,69,72
29280,note_on,,0,0,18,,,,,,,,,,,,,,,,15,,59,72
29280,note_on,,1,0,11,,,,,,,,,,,,,,,,7,,62,72
29280,note_on,,1,0,15,,,,,,,,,,,,,,,,11,,74,72
29280,note_on,,0,0,18,,,,,,,,,,,,,,,,15,,71,72
29280,note_on,,1,0,14,,,,,,,,,,,,,,,,10,,69,72
29280,note_on,,1,0,18,,,,,,,,,,,,,,,,15,,66,72
29280,note_on,,1,0,17,,,,,,,,,,,,,,,,13,,59,72
29309,note_on,,29,0,10,,,,,,,,,,,,,,,,6,,69,0
29309,note_on,,29,0,14,,,,,,,,,,,,,,,,10,,69,0
29310,note_on,,1,0,10,,,,,,,,,,,,,,,,6,,67,72
29310,note_on,,1,0,14,,,,,,,,,,,,,,,,10,,67,72
29339,note_on,,59,0,15,,,,,,,,,,,,,,,,11,,74,0
29339,note_on,,59,0,16,,,,,,,,,,,,,,,,12,,62,0
29339,note_on,,59,0,12,,,,,,,,,,,,,,,,8,,59,0
29339,note_on,,59,0,17,,,,,,,,,,,,,,,,13,,59,0
29339,note_on,,59,0,6,,,,,,,,,,,,,,,,2,,59,0
29339,note_on,,59,0,11,,,,,,,,,,,,,,,,7,,62,0
29339,note_on,,59,0,18,,,,,,,,,,,,,,,,15,,59,0
29339,note_on,,29,0,14,,,,,,,,,,,,,,,,10,,67,0
29339,note_on,,0,0,18,,,,,,,,,,,,,,,,15,,62,0
29339,note_on,,29,0,10,,,,,,,,,,,,,,,,6,,67,0
29340,note_on,,1,0,17,,,,,,,,,,,,,,,,13,,59,72
29340,note_on,,1,0,16,,,,,,,,,,,,,,,,12,,62,72
29340,note_on,,1,0,18,,,,,,,,,,,,,,,,15,,62,72
29340,note_on,,0,0,18,,,,,,,,,,,,,,,,15,,59,72
29340,note_on,,1,0,10,,,,,,,,,,,,,,,,6,,66,72
29340,note_on,,1,0,14,,,,,,,,,,,,,,,,10,,66,72
29340,note_on,,1,0,11,,,,,,,,,,,,,,,,7,,62,72
29340,note_on,,1,0,12,,,,,,,,,,,,,,,,8,,59,72
29340,note_on,,1,0,6,,,,,,,,,,,,,,,,2,,59,72
29340,note_on,,1,0,15,,,,,,,,,,,,,,,,11,,74,72
29369,note_on,,29,0,10,,,,,,,,,,,,,,,,6,,66,0
29369,note_on,,29,0,14,,,,,,,,,,,,,,,,10,,66,0
29370,note_on,,1,0,14,,,,,,,,,,,,,,,,10,,64,72
29370,note_on,,1,0,10,,,,,,,,,,,,,,,,6,,64,72
29399,note_on,,0,0,18,,,,,,,,,,,,,,,,15,,69,0
29399,note_on,,0,0,18,,,,,,,,,,,,,,,,15,,71,0
29399,note_on,,59,0,18,,,,,,,,,,,,,,,,15,,66,0
29399,note_on,,0,0,18,,,,,,,,,,,,,,,,15,,62,0
29399,note_on,,0,0,18,,,,,,,,,,,,,,,,15,,59,0
29399,note_on,,29,0,14,,,,,,,,,,,,,,,,10,,64,0
29399,note_on,,59,0,16,,,,,,,,,,,,,,,,12,,62,0
29399,note_on,,29,0,10,,,,,,,,,,,,,,,,6,,64,0
29399,note_on,,59,0,17,,,,,,,,,,,,,,,,13,,59,0
29399,note_on,,59,0,6,,,,,,,,,,,,,,,,2,,59,0
29399,note_on,,59,0,12,,,,,,,,,,,,,,,,8,,59,0
29399,note_on,,59,0,11,,,,,,,,,,,,,,,,7,,62,0
29399,note_on,,59,0,15,,,,,,,,,,,,,,,,11,,74,0
29400,note_on,,1,0,14,,,,,,,,,,,,,,,,10,,62,72
29400,note_on,,1,0,10,,,,,,,,,,,,,,,,6,,62,72
29459,note_on,,59,0,14,,,,,,,,,,,,,,,,10,,62,0
29459,note_on,,59,0,10,,,,,,,,,,,,,,,,6,,62,0
29460,note_on,,1,0,10,,,,,,,,,,,,,,,,6,,71,72
29460,note_on,,0,0,18,,,,,,,,,,,,,,,,15,,67,72
29460,note_on,,0,0,18,,,,,,,,,,,,,,,,15,,76,72
29460,note_on,,61,0,12,,,,,,,,,,,,,,,,8,,52,72
29460,note_on,,421,0,9,,,,,,,,,,,,,,,,5,,79,72
29460,note_on,,61,0,16,,,,,,,,,,,,,,,,12,,71,72
29460,note_on,,1,0,14,,,,,,,,,,,,,,,,10,,79,72
29460,note_on,,61,0,6,,,,,,,,,,,,,,,,2,,52,72
29460,note_on,,0,0,18,,,,,,,,,,,,,,,,15,,55,72
29460,note_on,,421,0,5,,,,,,,,,,,,,,,,1,,79,72
29460,note_on,,61,0,15,,,,,,,,,,,,,,,,11,,74,72
29460,note_on,,61,0,17,,,,,,,,,,,,,,,,13,,52,72
29460,note_on,,61,0,11,,,,,,,,,,,,,,,,7,,62,72
29460,note_on,,61,0,18,,,,,,,,,,,,,,,,15,,71,72
29460,note_on,,0,0,18,,,,,,,,,,,,,,,,15,,52,72
29519,note_on,,0,0,18,,,,,,,,,,,,,,,,15,,52,0
29519,note_on,,59,0,15,,,,,,,,,,,,,,,,11,,74,0
29519,note_on,,59,0,16,,,,,,,,,,,,,,,,12,,71,0
29519,note_on,,59,0,5,,,,,,,,,,,,,,,,1,,79,0
29519,note_on,,59,0,10,,,,,,,,,,,,,,,,6,,71,0
29519,note_on,,0,0,18,,,,,,,,,,,,,,,,15,,67,0
29519,note_on,,0,0,18,,,,,,,,,,,,,,,,15,,76,0
29519,note_on,,0,0,18,,,,,,,,,,,,,,,,15,,55,0
29519,note_on,,59,0,14,,,,,,,,,,,,,,,,10,,79,0
29519,note_on,,59,0,9,,,,,,,,,,,,,,,,5,,79,0
29519,note_on,,59,0,6,,,,,,,,,,,,,,,,2,,52,0
29519,note_on,,59,0,17,,,,,,,,,,,,,,,,13,,52,0
29519,note_on,,59,0,11,,,,,,,,,,,,,,,,7,,62,0
29519,note_on,,59,0,12,,,,,,,,,,,,,,,,8,,52,0
29519,note_on,,59,0,18,,,,,,,,,,,,,,,,15,,71,0
29520,note_on,,1,0,14,,,,,,,,,,,,,,,,10,,79,72
29520,note_on,,1,0,6,,,,,,,,,,,,,,,,2,,57,72
29520,note_on,,0,0,18,,,,,,,,,,,,,,,,15,,67,72
29520,note_on,,0,0,18,,,,,,,,,,,,,,,,15,,61,72
29520,note_on,,0,0,18,,,,,,,,,,,,,,,,15,,69,72
29520,note_on,,0,0,18,,,,,,,,,,,,,,,,15,,57,72
29520,note_on,,1,0,18,,,,,,,,,,,,,,,,15,,73,72
29520,note_on,,1,0,16,,,,,,,,,,,,,,,,12,,69,72
29520,note_on,,1,0,5,,,,,,,,,,,,,,,,1,,79,72
29520,note_on,,1,0,12,,,,,,,,,,,,,,,,8,,57,72
29520,note_on,,1,0,10,,,,,,,,,,,,,,,,6,,69,72
29520,note_on,,1,0,11,,,,,,,,,,,,,,,,7,,61,72
29520,note_on,,1,0,9,,,,,,,,,,,,,,,,5,,79,72
29520,note_on,,1,0,15,,,,,,,,,,,,,,,,11,,73,72
29520,note_on,,1,0,17,,,,,,,,,,,,,,,,13,,57,72
29549,note_on,,29,0,14,,,,,,,,,,,,,,,,10,,79,0
29549,note_on,,29,0,9,,,,,,,,,,,,,,,,5,,79,0
29549,note_on,,29,0,5,,,,,,,,,,,,,,,,1,,79,0
29550,note_on,,1,0,14,,,,,,,,,,,,,,,,10,,78,72
29550,note_on,,1,0,5,,,,,,,,,,,,,,,,1,,78,72
29550,note_on,,1,0,9,,,,,,,,,,,,,,,,5,,78,72
29579,note_on,,59,0,11,,,,,,,,,,,,,,,,7,,61,0
29579,note_on,,0,0,18,,,,,,,,,,,,,,,,15,,61,0
29579,note_on,,59,0,18,,,,,,,,,,,,,,,,15,,57,0
29579,note_on,,59,0,12,,,,,,,,,,,,,,,,8,,57,0
29579,note_on,,59,0,15,,,,,,,,,,,,,,,,11,,73,0
29579,note_on,,59,0,6,,,,,,,,,,,,,,,,2,,57,0
29579,note_on,,29,0,9,,,,,,,,,,,,,,,,5,,78,0
29579,note_on,,29,0,5,,,,,,,,,,,,,,,,1,,78,0
29579,note_on,,59,0,10,,,,,,,,,,,,,,,,6,,69,0
29579,note_on,,29,0,14,,,,,,,,,,,,,,,,10,,78,0
29579,note_on,,59,0,16,,,,,,,,,,,,,,,,12,,69,0
29579,note_on,,59,0,17,,,,,,,,,,,,,,,,13,,57,0
29580,note_on,,1,0,14,,,,,,,,,,,,,,,,10,,76,72
29580,note_on,,1,0,16,,,,,,,,,,,,,,,,12,,69,72
29580,note_on,,1,0,12,,,,,,,,,,,,,,,,8,,57,72
29580,note_on,,1,0,9,,,,,,,,,,,,,,,,5,,76,72
29580,note_on,,1,0,5,,,,,,,,,,,,,,,,1,,76,72
29580,note_on,,1,0,18,,,,,,,,,,,,,,,,15,,57,72
29580,note_on,,1,0,15,,,,,,,,,,,,,,,,11,,73,72
29580,note_on,,1,0,17,,,,,,,,,,,,,,,,13,,57,72
29580,note_on,,1,0,6,,,,,,,,,,,,,,,,2,,57,72
29580,note_on,,1,0,10,,,,,,,,,,,,,,,,6,,69,72
29580,note_on,,1,0,11,,,,,,,,,,,,,,,,7,,61,72
29580,note_on,,0,0,18,,,,,,,,,,,,,,,,15,,61,72
29609,note_on,,29,0,9,,,,,,,,,,,,,,,,5,,76,0
29609,note_on,,29,0,14,,,,,,,,,,,,,,,,10,,76,0
29609,note_on,,29,0,5,,,,,,,,,,,,,,,,1,,76,0
29610,note_on,,1,0,5,,,,,,,,,,,,,,,,1,,74,72
29610,note_on,,1,0,9,,,,,,,,,,,,,,,,5,,74,72
29610,note_on,,1,0,14,,,,,,,,,,,,,,,,10,,74,72
29639,note_on,,29,0,5,,,,,,,,,,,,,,,,1,,74,0
29639,note_on,,59,0,17,,,,,,,,,,,,,,,,13,,57,0
29639,note_on,,59,0,6,,,,,,,,,,,,,,,,2,,57,0
29639,note_on,,59,0,16,,,,,,,,,,,,,,,,12,,69,0
29639,note_on,,59,0,18,,,,,,,,,,,,,,,,15,,73,0
29639,note_on,,0,0,18,,,,,,,,,,,,,,,,15,,69,0
29639,note_on,,0,0,18,,,,,,,,,,,,,,,,15,,67,0
29639,note_on,,0,0,18,,,,,,,,,,,,,,,,15,,57,0
29639,note_on,,0,0,18,,,,,,,,,,,,,,,,15,,61,0
29639,note_on,,29,0,14,,,,,,,,,,,,,,,,10,,74,0
29639,note_on,,59,0,15,,,,,,,,,,,,,,,,11,,73,0
29639,note_on,,59,0,10,,,,,,,,,,,,,,,,6,,69,0
29639,note_on,,29,0,9,,,,,,,,,,,,,,,,5,,74,0
29639,note_on,,59,0,12,,,,,,,,,,,,,,,,8,,57,0
29639,note_on,,59,0,11,,,,,,,,,,,,,,,,7,,61,0
29640,note_on,,1,0,5,,,,,,,,,,,,,,,,1,,73,72
29640,note_on,,1,0,14,,,,,,,,,,,,,,,,10,,73,72
29640,note_on,,1,0,9,,,,,,,,,,,,,,,,5,,73,72
29699,note_on,,59,0,14,,,,,,,,,,,,,,,,10,,73,0
29699,note_on,,59,0,9,,,,,,,,,,,,,,,,5,,73,0
29699,note_on,,59,0,5,,,,,,,,,,,,,,,,1,,73,0
29700,note_on,,61,0,15,,,,,,,,,,,,,,,,11,,73,72
29700,note_on,,1,0,9,,,,,,,,,,,,,,,,5,,78,72
29700,note_on,,0,0,18,,,,,,,,,,,,,,,,15,,73,72
29700,note_on,,0,0,18,,,,,,,,,,,,,,,,15,,50,72
29700,note_on,,0,0,18,,,,,,,,,,,,,,,,15,,69,72
29700,note_on,,0,0,18,,,,,,,,,,,,,,,,15,,78,72
29700,note_on,,61,0,18,,,,,,,,,,,,,,,,15,,57,72
29700,note_on,,61,0,16,,,,,,,,,,,,,,,,12,,69,72
29700,note_on,,61,0,10,,,,,,,,,,,,,,,,6,,69,72
29700,note_on,,61,0,6,,,,,,,,,,,,,,,,2,,50,72
29700,note_on,,61,0,17,,,,,,,,,,,,,,,,13,,50,72
29700,note_on,,61,0,11,,,,,,,,,,,,,,,,7,,61,72
29700,note_on,,1,0,14,,,,,,,,,,,,,,,,10,,78,72
29700,note_on,,61,0,12,,,,,,,,,,,,,,,,8,,50,72
29700,note_on,,1,0,5,,,,,,,,,,,,,,,,1,,78,72
29759,note_on,,59,0,15,,,,,,,,,,,,,,,,11,,73,0
29759,note_on,,59,0,9,,,,,,,,,,,,,,,,5,,78,0
29759,note_on,,59,0,10,,,,,,,,,,,,,,,,6,,69,0
29759,note_on,,0,0,18,,,,,,,,,,,,,,,,15,,73,0
29759,note_on,,0,0,18,,,,,,,,,,,,,,,,15,,50,0
29759,note_on,,0,0,18,,,,,,,,,,,,,,,,15,,69,0
29759,note_on,,0,0,18,,,,,,,,,,,,,,,,15,,78,0
29759,note_on,,59,0,18,,,,,,,,,,,,,,,,15,,57,0
29759,note_on,,59,0,6,,,,,,,,,,,,,,,,2,,50,0
29759,note_on,,59,0,12,,,,,,,,,,,,,,,,8,,50,0
29759,note_on,,59,0,16,,,,,,,,,,,,,,,,12,,69,0
29759,note_on,,59,0,14,,,,,,,,,,,,,,,,10,,78,0
29759,note_on,,59,0,17,,,,,,,,,,,,,,,,13,,50,0
29759,note_on,,59,0,11,,,,,,,,,,,,,,,,7,,61,0
29759,note_on,,59,0,5,,,,,,,,,,,,,,,,1,,78,0
29760,note_on,,1,0,14,,,,,,,,,,,,,,,,10,,78,72
29760,note_on,,1,0,16,,,,,,,,,,,,,,,,12,,67,72
29760,note_on,,1,0,11,,,,,,,,,,,,,,,,7,,59,72
29760,note_on,,1,0,9,,,,,,,,,,,,,,,,5,,78,72
29760,note_on,,1,0,6,,,,,,,,,,,,,,,,2,,55,72
29760,note_on,,1,0,15,,,,,,,,,,,,,,,,11,,71,72
29760,note_on,,1,0,10,,,,,,,,,,,,,,,,6,,67,72
29760,note_on,,0,0,18,,,,,,,,,,,,,,,,15,,55,72
29760,note_on,,1,0,12,,,,,,,,,,,,,,,,8,,55,72
29760,note_on,,1,0,5,,,,,,,,,,,,,,,,1,,78,72
29760,note_on,,0,0,18,,,,,,,,,,,,,,,,15,,78,72
29760,note_on,,1,0,18,,,,,,,,,,,,,,,,15,,59,72
29760,note_on,,1,0,17,,,,,,,,,,,,,,,,13,,55,72
29760,note_on,,0,0,18,,,,,,,,,,,,,,,,15,,67,72
29760,note_on,,0,0,18,,,,,,,,,,,,,,,,15,,71,72
29789,note_on,,29,0,14,,,,,,,,,,,,,,,,10,,78,0
29789,note_on,,29,0,9,,,,,,,,,,,,,,,,5,,78,0
29789,note_on,,29,0,5,,,,,,,,,,,,,,,,1,,78,0
29790,note_on,,1,0,14,,,,,,,,,,,,,,,,10,,76,72
29790,note_on,,1,0,9,,,,,,,,,,,,,,,,5,,76,72
29790,note_on,,1,0,5,,,,,,,,,,,,,,,,1,,76,72
29819,note_on,,59,0,6,,,,,,,,,,,,,,,,2,,55,0
29819,note_on,,59,0,11,,,,,,,,,,,,,,,,7,,59,0
29819,note_on,,29,0,5,,,,,,,,,,,,,,,,1,,76,0
29819,note_on,,29,0,14,,,,,,,,,,,,,,,,10,,76,0
29819,note_on,,59,0,17,,,,,,,,,,,,,,,,13,,55,0
29819,note_on,,59,0,16,,,,,,,,,,,,,,,,12,,67,0
29819,note_on,,59,0,10,,,,,,,,,,,,,,,,6,,67,0
29819,note_on,,29,0,9,,,,,,,,,,,,,,,,5,,76,0
29819,note_on,,59,0,18,,,,,,,,,,,,,,,,15,,59,0
29819,note_on,,0,0,18,,,,,,,,,,,,,,,,15,,55,0
29819,note_on,,59,0,15,,,,,,,,,,,,,,,,11,,71,0
29819,note_on,,59,0,12,,,,,,,,,,,,,,,,8,,55,0
29820,note_on,,1,0,5,,,,,,,,,,,,,,,,1,,74,72
29820,note_on,,1,0,11,,,,,,,,,,,,,,,,7,,59,72
29820,note_on,,1,0,15,,,,,,,,,,,,,,,,11,,71,72
29820,note_on,,1,0,16,,,,,,,,,,,,,,,,12,,67,72
29820,note_on,,1,0,12,,,,,,,,,,,,,,,,8,,55,72
29820,note_on,,1,0,14,,,,,,,,,,,,,,,,10,,74,72
29820,note_on,,1,0,10,,,,,,,,,,,,,,,,6,,67,72
29820,note_on,,0,0,18,,,,,,,,,,,,,,,,15,,59,72
29820,note_on,,1,0,18,,,,,,,,,,,,,,,,15,,55,72
29820,note_on,,1,0,9,,,,,,,,,,,,,,,,5,,74,72
29820,note_on,,1,0,6,,,,,,,,,,,,,,,,2,,55,72
29820,note_on,,1,0,17,,,,,,,,,,,,,,,,13,,55,72
29849,note_on,,29,0,14,,,,,,,,,,,,,,,,10,,74,0
29849,note_on,,29,0,9,,,,,,,,,,,,,,,,5,,74,0
29849,note_on,,29,0,5,,,,,,,,,,,,,,,,1,,74,0
29850,note_on,,1,0,14,,,,,,,,,,,,,,,,10,,73,72
29850,note_on,,1,0,9,,,,,,,,,,,,,,,,5,,73,72
29850,note_on,,1,0,5,,,,,,,,,,,,,,,,1,,73,72
29879,note_on,,59,0,12,,,,,,,,,,,,,,,,8,,55,0
29879,note_on,,0,0,18,,,,,,,,,,,,,,,,15,,71,0
29879,note_on,,0,0,18,,,,,,,,,,,,,,,,15,,59,0
29879,note_on,,0,0,18,,,,,,,,,,,,,,,,15,,55,0
29879,note_on,,59,0,18,,,,,,,,,,,,,,,,15,,78,0
29879,note_on,,59,0,15,,,,,,,,,,,,,,,,11,,71,0
29879,note_on,,0,0,18,,,,,,,,,,,,,,,,15,,67,0
29879,note_on,,59,0,16,,,,,,,,,,,,,,,,12,,67,0
29879,note_on,,59,0,10,,,,,,,,,,,,,,,,6,,67,0
29879,note_on,,59,0,11,,,,,,,,,,,,,,,,7,,59,0
29879,note_on,,59,0,17,,,,,,,,,,,,,,,,13,,55,0
29879,note_on,,29,0,9,,,,,,,,,,,,,,,,5,,73,0
29879,note_on,,29,0,5,,,,,,,,,,,,,,,,1,,73,0
29879,note_on,,59,0,6,,,,,,,,,,,,,,,,2,,55,0
29879,note_on,,29,0,14,,,,,,,,,,,,,,,,10,,73,0
29880,note_on,,1,0,5,,,,,,,,,,,,,,,,1,,71,72
29880,note_on,,1,0,14,,,,,,,,,,,,,,,,10,,71,72
29880,note_on,,1,0,9,,,,,,,,,,,,,,,,5,,71,72
29939,note_on,,59,0,5,,,,,,,,,,,,,,,,1,,71,0
29939,note_on,,59,0,9,,,,,,,,,,,,,,,,5,,71,0
29939,note_on,,59,0,14,,,,,,,,,,,,,,,,10,,71,0
29940,note_on,,61,0,10,,,,,,,,,,,,,,,,6,,67,72
29940,note_on,,61,0,18,,,,,,,,,,,,,,,,15,,73,72
29940,note_on,,1,0,14,,,,,,,,,,,,,,,,10,,76,72
29940,note_on,,61,0,6,,,,,,,,,,,,,,,,2,,52,72
29940,note_on,,1,0,9,,,,,,,,,,,,,,,,5,,76,72
29940,note_on,,0,0,18,,,,,,,,,,,,,,,,15,,79,72
29940,note_on,,0,0,18,,,,,,,,,,,,,,,,15,,55,72
29940,note_on,,0,0,18,,,,,,,,,,,,,,,,15,,52,72
29940,note_on,,0,0,18,,,,,,,,,,,,,,,,15,,76,72
29940,note_on,,61,0,17,,,,,,,,,,,,,,,,13,,52,72
29940,note_on,,61,0,15,,,,,,,,,,,,,,,,11,,73,72
29940,note_on,,61,0,16,,,,,,,,,,,,,,,,12,,67,72
29940,note_on,,1,0,5,,,,,,,,,,,,,,,,1,,76,72
29940,note_on,,61,0,12,,,,,,,,,,,,,,,,8,,52,72
29940,note_on,,61,0,11,,,,,,,,,,,,,,,,7,,61,72
29999,note_on,,0,0,18,,,,,,,,,,,,,,,,15,,55,0
29999,note_on,,59,0,5,,,,,,,,,,,,,,,,1,,76,0
29999,note_on,,59,0,15,,,,,,,,,,,,,,,,11,,73,0
29999,note_on,,59,0,14,,,,,,,,,,,,,,,,10,,76,0
29999,note_on,,59,0,18,,,,,,,,,,,,,,,,15,,73,0
29999,note_on,,0,0,18,,,,,,,,,,,,,,,,15,,76,0
29999,note_on,,59,0,9,,,,,,,,,,,,,,,,5,,76,0
29999,note_on,,59,0,17,,,,,,,,,,,,,,,,13,,52,0
29999,note_on,,0,0,18,,,,,,,,,,,,,,,,15,,52,0
29999,note_on,,0,0,18,,,,,,,,,,,,,,,,15,,79,0
29999,note_on,,59,0,16,,,,,,,,,,,,,,,,12,,67,0
29999,note_on,,59,0,6,,,,,,,,,,,,,,,,2,,52,0
29999,note_on,,59,0,10,,,,,,,,,,,,,,,,6,,67,0
29999,note_on,,59,0,11,,,,,,,,,,,,,,,,7,,61,0
29999,note_on,,59,0,12,,,,,,,,,,,,,,,,8,,52,0
30000,note_on,,0,0,18,,,,,,,,,,,,,,,,15,,57,72
30000,note_on,,0,0,18,,,,,,,,,,,,,,,,15,,69,72
30000,note_on,,0,0,18,,,,,,,,,,,,,,,,15,,54,72
30000,note_on,,0,0,18,,,,,,,,,,,,,,,,15,,78,72
30000,note_on,,1,0,18,,,,,,,,,,,,,,,,15,,76,72
30000,note_on,,1,0,17,,,,,,,,,,,,,,,,13,,54,72
30000,note_on,,1,0,5,,,,,,,,,,,,,,,,1,,76,72
30000,note_on,,1,0,6,,,,,,,,,,,,,,,,2,,54,72
30000,note_on,,1,0,10,,,,,,,,,,,,,,,,6,,66,72
30000,note_on,,1,0,12,,,,,,,,,,,,,,,,8,,54,72
30000,note_on,,1,0,9,,,,,,,,,,,,,,,,5,,76,72
30000,note_on,,1,0,15,,,,,,,,,,,,,,,,11,,69,72
30000,note_on,,1,0,16,,,,,,,,,,,,,,,,12,,66,72
30000,note_on,,1,0,11,,,,,,,,,,,,,,,,7,,57,72
30000,note_on,,1,0,14,,,,,,,,,,,,,,,,10,,76,72
30029,note_on,,29,0,5,,,,,,,,,,,,,,,,1,,76,0
30029,note_on,,29,0,14,,,,,,,,,,,,,,,,10,,76,0
30029,note_on,,29,0,9,,,,,,,,,,,,,,,,5,,76,0
30030,note_on,,1,0,9,,,,,,,,,,,,,,,,5,,74,72
30030,note_on,,1,0,5,,,,,,,,,,,,,,,,1,,74,72
30030,note_on,,1,0,14,,,,,,,,,,,,,,,,10,,74,72
30059,note_on,,59,0,15,,,,,,,,,,,,,,,,11,,69,0
30059,note_on,,29,0,14,,,,,,,,,,,,,,,,10,,74,0
30059,note_on,,29,0,5,,,,,,,,,,,,,,,,1,,74,0
30059,note_on,,59,0,10,,,,,,,,,,,,,,,,6,,66,0
30059,note_on,,0,0,18,,,,,,,,,,,,,,,,15,,57,0
30059,note_on,,59,0,18,,,,,,,,,,,,,,,,15,,54,0
30059,note_on,,59,0,6,,,,,,,,,,,,,,,,2,,54,0
30059,note_on,,59,0,11,,,,,,,,,,,,,,,,7,,57,0
30059,note_on,,29,0,9,,,,,,,,,,,,,,,,5,,74,0
30059,note_on,,59,0,16,,,,,,,,,,,,,,,,12,,66,0
30059,note_on,,59,0,12,,,,,,,,,,,,,,,,8,,54,0
30059,note_on,,59,0,17,,,,,,,,,,,,,,,,13,,54,0
30060,note_on,,1,0,18,,,,,,,,,,,,,,,,15,,57,72
30060,note_on,,0,0,18,,,,,,,,,,,,,,,,15,,54,72
30060,note_on,,1,0,5,,,,,,,,,,,,,,,,1,,73,72
30060,note_on,,1,0,10,,,,,,,,,,,,,,,,6,,66,72
30060,note_on,,1,0,6,,,,,,,,,,,,,,,,2,,54,72
30060,note_on,,1,0,16,,,,,,,,,,,,,,,,12,,66,72
30060,note_on,,1,0,15,,,,,,,,,,,,,,,,11,,69,72
30060,note_on,,1,0,12,,,,,,,,,,,,,,,,8,,54,72
30060,note_on,,1,0,14,,,,,,,,,,,,,,,,10,,73,72
30060,note_on,,1,0,17,,,,,,,,,,,,,,,,13,,54,72
30060,note_on,,1,0,9,,,,,,,,,,,,,,,,5,,73,72
30060,note_on,,1,0,11,,,,,,,,,,,,,,,,7,,57,72
30089,note_on,,29,0,14,,,,,,,,,,,,,,,,10,,73,0
30089,note_on,,29,0,5,,,,,,,,,,,,,,,,1,,73,0
30089,note_on,,29,0,9,,,,,,,,,,,,,,,,5,,73,0
30090,note_on,,1,0,9,,,,,,,,,,,,,,,,5,,71,72
30090,note_on,,1,0,5,,,,,,,,,,,,,,,,1,,71,72
30090,note_on,,1,0,14,,,,,,,,,,,,,,,,10,,71,72
30119,note_on,,29,0,14,,,,,,,,,,,,,,,,10,,71,0
30119,note_on,,59,0,16,,,,,,,,,,,,,,,,12,,66,0
30119,note_on,,29,0,9,,,,,,,,,,,,,,,,5,,71,0
30119,note_on,,59,0,10,,,,,,,,,,,,,,,,6,,66,0
30119,note_on,,59,0,11,,,,,,,,,,,,,,,,7,,57,0
30119,note_on,,0,0,18,,,,,,,,,,,,,,,,15,,54,0
30119,note_on,,0,0,18,,,,,,,,,,,,,,,,15,,57,0
30119,note_on,,59,0,6,,,,,,,,,,,,,,,,2,,54,0
30119,note_on,,59,0,12,,,,,,,,,,,,,,,,8,,54,0
30119,note_on,,59,0,18,,,,,,,,,,,,,,,,15,,76,0
30119,note_on,,29,0,5,,,,,,,,,,,,,,,,1,,71,0
30119,note_on,,59,0,15,,,,,,,,,,,,,,,,11,,69,0
30119,note_on,,0,0,18,,,,,,,,,,,,,,,,15,,78,0
30119,note_on,,0,0,18,,,,,,,,,,,,,,,,15,,69,0
30119,note_on,,59,0,17,,,,,,,,,,,,,,,,13,,54,0
30120,note_on,,1,0,5,,,,,,,,,,,,,,,,1,,69,72
30120,note_on,,1,0,9,,,,,,,,,,,,,,,,5,,69,72
30120,note_on,,1,0,14,,,,,,,,,,,,,,,,10,,69,72
30179,note_on,,59,0,9,,,,,,,,,,,,,,,,5,,69,0
30179,note_on,,59,0,14,,,,,,,,,,,,,,,,10,,69,0
30179,note_on,,59,0,5,,,,,,,,,,,,,,,,1,,69,0
30180,note_on,,61,0,10,,,,,,,,,,,,,,,,6,,66,72
30180,note_on,,61,0,12,,,,,,,,,,,,,,,,8,,54,72
30180,note_on,,61,0,18,,,,,,,,,,,,,,,,15,,57,72
30180,note_on,,0,0,18,,,,,,,,,,,,,,,,15,,74,72
30180,note_on,,0,0,18,,,,,,,,,,,,,,,,15,,69,72
30180,note_on,,61,0,11,,,,,,,,,,,,,,,,7,,62,72
30180,note_on,,1141,0,8,,,,,,,,,,,,,,,,4,,69,72
30180,note_on,,0,0,18,,,,,,,,,,,,,,,,15,,54,72
30180,note_on,,61,0,16,,,,,,,,,,,,,,,,12,,66,72
30180,note_on,,61,0,17,,,,,,,,,,,,,,,,13,,54,72
30180,note_on,,61,0,6,,,,,,,,,,,,,,,,2,,54,72
30180,note_on,,61,0,15,,,,,,,,,,,,,,,,11,,62,72
30180,note_on,,1,0,5,,,,,,,,,,,,,,,,1,,69,72
30180,note_on,,1141,0,13,,,,,,,,,,,,,,,,14,,50,72
30180,note_on,,1141,0,7,,,,,,,,,,,,,,,,3,,81,72
30180,note_on,,1,0,9,,,,,,,,,,,,,,,,5,,69,72
30180,note_on,,0,0,18,,,,,,,,,,,,,,,,15,,81,72
30180,note_on,,1,0,14,,,,,,,,,,,,,,,,10,,69,72
30239,note_on,,59,0,11,,,,,,,,,,,,,,,,7,,62,0
30239,note_on,,59,0,15,,,,,,,,,,,,,,,,11,,62,0
30239,note_on,,59,0,9,,,,,,,,,,,,,,,,5,,69,0
30239,note_on,,0,0,18,,,,,,,,,,,,,,,,15,,74,0
30239,note_on,,59,0,12,,,,,,,,,,,,,,,,8,,54,0
30239,note_on,,59,0,17,,,,,,,,,,,,,,,,13,,54,0
30239,note_on,,59,0,7,,,,,,,,,,,,,,,,3,,81,0
30239,note_on,,59,0,13,,,,,,,,,,,,,,,,14,,50,0
30239,note_on,,59,0,14,,,,,,,,,,,,,,,,10,,69,0
30239,note_on,,0,0,18,,,,,,,,,,,,,,,,15,,54,0
30239,note_on,,0,0,18,,,,,,,,,,,,,,,,15,,69,0
30239,note_on,,0,0,18,,,,,,,,,,,,,,,,15,,81,0
30239,note_on,,59,0,18,,,,,,,,,,,,,,,,15,,57,0
30239,note_on,,59,0,10,,,,,,,,,,,,,,,,6,,66,0
30239,note_on,,59,0,5,,,,,,,,,,,,,,,,1,,69,0
30239,note_on,,59,0,6,,,,,,,,,,,,,,,,2,,54,0
30239,note_on,,59,0,16,,,,,,,,,,,,,,,,12,,66,0
30239,note_on,,59,0,8,,,,,,,,,,,,,,,,4,,69,0
30240,note_on,,1,0,11,,,,,,,,,,,,,,,,7,,62,72
30240,note_on,,1,0,12,,,,,,,,,,,,,,,,8,,54,72
30240,note_on,,1,0,17,,,,,,,,,,,,,,,,13,,54,72
30240,note_on,,1,0,8,,,,,,,,,,,,,,,,4,,74,72
30240,note_on,,1,0,9,,,,,,,,,,,,,,,,5,,74,72
30240,note_on,,1,0,7,,,,,,,,,,,,,,,,3,,81,72
30240,note_on,,1,0,18,,,,,,,,,,,,,,,,15,,57,72
30240,note_on,,0,0,18,,,,,,,,,,,,,,,,15,,81,72
30240,note_on,,1,0,5,,,,,,,,,,,,,,,,1,,74,72
30240,note_on,,1,0,13,,,,,,,,,,,,,,,,14,,50,72
30240,note_on,,1,0,6,,,,,,,,,,,,,,,,2,,54,72
30240,note_on,,0,0,18,,,,,,,,,,,,,,,,15,,54,72
30240,note_on,,0,0,18,,,,,,,,,,,,,,,,15,,69,72
30240,note_on,,1,0,16,,,,,,,,,,,,,,,,12,,62,72
30240,note_on,,1,0,15,,,,,,,,,,,,,,,,11,,69,72
30240,note_on,,1,0,10,,,,,,,,,,,,,,,,6,,69,72
30240,note_on,,0,0,18,,,,,,,,,,,,,,,,15,,74,72
30240,note_on,,1,0,14,,,,,,,,,,,,,,,,10,,74,72
30269,note_on,,29,0,18,,,,,,,,,,,,,,,,15,,54,0
30269,note_on,,29,0,7,,,,,,,,,,,,,,,,3,,81,0
30269,note_on,,29,0,6,,,,,,,,,,,,,,,,2,,54,0
30269,note_on,,29,0,15,,,,,,,,,,,,,,,,11,,69,0
30269,note_on,,29,0,17,,,,,,,,,,,,,,,,13,,54,0
30269,note_on,,29,0,12,,,,,,,,,,,,,,,,8,,54,0
30269,note_on,,29,0,10,,,,,,,,,,,,,,,,6,,69,0
30270,note_on,,1,0,18,,,,,,,,,,,,,,,,15,,52,72
30270,note_on,,1,0,6,,,,,,,,,,,,,,,,2,,52,72
30270,note_on,,1,0,7,,,,,,,,,,,,,,,,3,,79,72
30270,note_on,,1,0,10,,,,,,,,,,,,,,,,6,,67,72
30270,note_on,,1,0,17,,,,,,,,,,,,,,,,13,,52,72
30270,note_on,,1,0,12,,,,,,,,,,,,,,,,8,,52,72
30270,note_on,,1,0,15,,,,,,,,,,,,,,,,11,,67,72
30299,note_on,,29,0,18,,,,,,,,,,,,,,,,15,,57,0
30299,note_on,,0,0,18,,,,,,,,,,,,,,,,15,,69,0
30299,note_on,,59,0,13,,,,,,,,,,,,,,,,14,,50,0
30299,note_on,,29,0,10,,,,,,,,,,,,,,,,6,,67,0
30299,note_on,,59,0,14,,,,,,,,,,,,,,,,10,,74,0
30299,note_on,,0,0,18,,,,,,,,,,,,,,,,15,,52,0
30299,note_on,,59,0,11,,,,,,,,,,,,,,,,7,,62,0
30299,note_on,,59,0,8,,,,,,,,,,,,,,,,4,,74,0
30299,note_on,,29,0,15,,,,,,,,,,,,,,,,11,,67,0
30299,note_on,,59,0,9,,,,,,,,,,,,,,,,5,,74,0
30299,note_on,,59,0,16,,,,,,,,,,,,,,,,12,,62,0
30299,note_on,,29,0,12,,,,,,,,,,,,,,,,8,,52,0
30299,note_on,,29,0,7,,,,,,,,,,,,,,,,3,,79,0
30299,note_on,,29,0,17,,,,,,,,,,,,,,,,13,,52,0
30299,note_on,,29,0,6,,,,,,,,,,,,,,,,2,,52,0
30299,note_on,,59,0,5,,,,,,,,,,,,,,,,1,,74,0
30299,note_on,,0,0,18,,,,,,,,,,,,,,,,15,,81,0
30299,note_on,,0,0,18,,,,,,,,,,,,,,,,15,,74,0
30300,note_on,,1,0,16,,,,,,,,,,,,,,,,12,,57,72
30300,note_on,,1,0,8,,,,,,,,,,,,,,,,4,,74,72
30300,note_on,,1,0,18,,,,,,,,,,,,,,,,15,,50,72
30300,note_on,,1,0,9,,,,,,,,,,,,,,,,5,,74,72
30300,note_on,,1,0,10,,,,,,,,,,,,,,,,6,,66,72
30300,note_on,,1,0,5,,,,,,,,,,,,,,,,1,,74,72
30300,note_on,,1,0,6,,,,,,,,,,,,,,,,2,,50,72
30300,note_on,,1,0,7,,,,,,,,,,,,,,,,3,,78,72
30300,note_on,,1,0,17,,,,,,,,,,,,,,,,13,,50,72
30300,note_on,,1,0,13,,,,,,,,,,,,,,,,14,,50,72
30300,note_on,,1,0,12,,,,,,,,,,,,,,,,8,,50,72
30300,note_on,,1,0,15,,,,,,,,,,,,,,,,11,,66,72
30300,note_on,,1,0,14,,,,,,,,,,,,,,,,10,,74,72
30300,note_on,,1,0,11,,,,,,,,,,,,,,,,7,,57,72
30329,note_on,,29,0,12,,,,,,,,,,,,,,,,8,,50,0
30329,note_on,,29,0,18,,,,,,,,,,,,,,,,15,,50,0
30329,note_on,,29,0,7,,,,,,,,,,,,,,,,3,,78,0
30329,note_on,,29,0,10,,,,,,,,,,,,,,,,6,,66,0
30329,note_on,,29,0,17,,,,,,,,,,,,,,,,13,,50,0
30329,note_on,,29,0,6,,,,,,,,,,,,,,,,2,,50,0
30329,note_on,,29,0,15,,,,,,,,,,,,,,,,11,,66,0
30330,note_on,,1,0,18,,,,,,,,,,,,,,,,15,,49,72
30330,note_on,,1,0,12,,,,,,,,,,,,,,,,8,,49,72
30330,note_on,,1,0,17,,,,,,,,,,,,,,,,13,,49,72
30330,note_on,,1,0,10,,,,,,,,,,,,,,,,6,,64,72
30330,note_on,,1,0,15,,,,,,,,,,,,,,,,11,,64,72
30330,note_on,,1,0,7,,,,,,,,,,,,,,,,3,,76,72
30330,note_on,,1,0,6,,,,,,,,,,,,,,,,2,,49,72
30359,note_on,,29,0,15,,,,,,,,,,,,,,,,11,,64,0
30359,note_on,,59,0,13,,,,,,,,,,,,,,,,14,,50,0
30359,note_on,,29,0,7,,,,,,,,,,,,,,,,3,,76,0
30359,note_on,,29,0,6,,,,,,,,,,,,,,,,2,,49,0
30359,note_on,,59,0,8,,,,,,,,,,,,,,,,4,,74,0
30359,note_on,,59,0,16,,,,,,,,,,,,,,,,12,,57,0
30359,note_on,,29,0,17,,,,,,,,,,,,,,,,13,,49,0
30359,note_on,,59,0,14,,,,,,,,,,,,,,,,10,,74,0
30359,note_on,,29,0,10,,,,,,,,,,,,,,,,6,,64,0
30359,note_on,,29,0,12,,,,,,,,,,,,,,,,8,,49,0
30359,note_on,,59,0,11,,,,,,,,,,,,,,,,7,,57,0
30359,note_on,,59,0,5,,,,,,,,,,,,,,,,1,,74,0
30359,note_on,,59,0,9,,,,,,,,,,,,,,,,5,,74,0
30359,note_on,,29,0,18,,,,,,,,,,,,,,,,15,,49,0
30360,note_on,,1,0,12,,,,,,,,,,,,,,,,8,,47,72
30360,note_on,,1,0,15,,,,,,,,,,,,,,,,11,,62,72
30360,note_on,,1,0,6,,,,,,,,,,,,,,,,2,,47,72
30360,note_on,,1,0,18,,,,,,,,,,,,,,,,15,,59,72
30360,note_on,,0,0,18,,,,,,,,,,,,,,,,15,,47,72
30360,note_on,,0,0,18,,,,,,,,,,,,,,,,15,,67,72
30360,note_on,,1,0,10,,,,,,,,,,,,,,,,6,,62,72
30360,note_on,,0,0,18,,,,,,,,,,,,,,,,15,,74,72
30360,note_on,,1,0,17,,,,,,,,,,,,,,,,13,,47,72
30360,note_on,,1,0,7,,,,,,,,,,,,,,,,3,,74,72
30419,note_on,,59,0,17,,,,,,,,,,,,,,,,13,,47,0
30419,note_on,,0,0,18,,,,,,,,,,,,,,,,15,,74,0
30419,note_on,,0,0,18,,,,,,,,,,,,,,,,15,,67,0
30419,note_on,,59,0,10,,,,,,,,,,,,,,,,6,,62,0
30419,note_on,,59,0,12,,,,,,,,,,,,,,,,8,,47,0
30419,note_on,,59,0,18,,,,,,,,,,,,,,,,15,,59,0
30419,note_on,,59,0,15,,,,,,,,,,,,,,,,11,,62,0
30419,note_on,,59,0,6,,,,,,,,,,,,,,,,2,,47,0
30419,note_on,,0,0,18,,,,,,,,,,,,,,,,15,,47,0
30419,note_on,,59,0,7,,,,,,,,,,,,,,,,3,,74,0
30420,note_on,,1,0,6,,,,,,,,,,,,,,,,2,,55,72
30420,note_on,,1,0,17,,,,,,,,,,,,,,,,13,,55,72
30420,note_on,,1,0,12,,,,,,,,,,,,,,,,8,,55,72
30420,note_on,,61,0,14,,,,,,,,,,,,,,,,10,,71,72
30420,note_on,,1,0,10,,,,,,,,,,,,,,,,6,,62,72
30420,note_on,,61,0,11,,,,,,,,,,,,,,,,7,,59,72
30420,note_on,,1,0,15,,,,,,,,,,,,,,,,11,,62,72
30420,note_on,,1,0,18,,,,,,,,,,,,,,,,15,,55,72
30420,note_on,,61,0,9,,,,,,,,,,,,,,,,5,,71,72
30420,note_on,,61,0,16,,,,,,,,,,,,,,,,12,,59,72
30420,note_on,,61,0,5,,,,,,,,,,,,,,,,1,,71,72
30420,note_on,,1,0,7,,,,,,,,,,,,,,,,3,,74,72
30479,note_on,,59,0,7,,,,,,,,,,,,,,,,3,,74,0
30479,note_on,,59,0,15,,,,,,,,,,,,,,,,11,,62,0
30479,note_on,,59,0,5,,,,,,,,,,,,,,,,1,,71,0
30479,note_on,,59,0,9,,,,,,,,,,,,,,,,5,,71,0
30479,note_on,,59,0,17,,,,,,,,,,,,,,,,13,,55,0
30479,note_on,,59,0,12,,,,,,,,,,,,,,,,8,,55,0
30479,note_on,,59,0,14,,,,,,,,,,,,,,,,10,,71,0
30479,note_on,,59,0,18,,,,,,,,,,,,,,,,15,,55,0
30479,note_on,,59,0,10,,,,,,,,,,,,,,,,6,,62,0
30479,note_on,,59,0,16,,,,,,,,,,,,,,,,12,,59,0
30479,note_on,,59,0,11,,,,,,,,,,,,,,,,7,,59,0
30479,note_on,,59,0,6,,,,,,,,,,,,,,,,2,,55,0
30480,note_on,,1,0,17,,,,,,,,,,,,,,,,13,,55,72
30480,note_on,,1,0,6,,,,,,,,,,,,,,,,2,,55,72
30480,note_on,,1,0,7,,,,,,,,,,,,,,,,3,,76,72
30480,note_on,,0,0,18,,,,,,,,,,,,,,,,15,,79,72
30480,note_on,,1,0,10,,,,,,,,,,,,,,,,6,,67,72
30480,note_on,,1,0,12,,,,,,,,,,,,,,,,8,,55,72
30480,note_on,,1,0,11,,,,,,,,,,,,,,,,7,,59,72
30480,note_on,,1,0,15,,,,,,,,,,,,,,,,11,,67,72
30480,note_on,,1,0,16,,,,,,,,,,,,,,,,12,,59,72
30480,note_on,,1,0,5,,,,,,,,,,,,,,,,1,,76,72
30480,note_on,,1,0,9,,,,,,,,,,,,,,,,5,,76,72
30480,note_on,,0,0,18,,,,,,,,,,,,,,,,15,,55,72
30480,note_on,,0,0,18,,,,,,,,,,,,,,,,15,,59,72
30480,note_on,,0,0,18,,,,,,,,,,,,,,,,15,,76,72
30480,note_on,,1,0,18,,,,,,,,,,,,,,,,15,,67,72
30480,note_on,,1,0,14,,,,,,,,,,,,,,,,10,,76,72
30509,note_on,,29,0,16,,,,,,,,,,,,,,,,12,,59,0
30509,note_on,,29,0,12,,,,,,,,,,,,,,,,8,,55,0
30509,note_on,,29,0,6,,,,,,,,,,,,,,,,2,,55,0
30509,note_on,,29,0,11,,,,,,,,,,,,,,,,7,,59,0
30509,note_on,,29,0,18,,,,,,,,,,,,,,,,15,,55,0
30509,note_on,,29,0,17,,,,,,,,,,,,,,,,13,,55,0
30510,note_on,,1,0,16,,,,,,,,,,,,,,,,12,,57,72
30510,note_on,,1,0,12,,,,,,,,,,,,,,,,8,,54,72
30510,note_on,,1,0,6,,,,,,,,,,,,,,,,2,,54,72
30510,note_on,,1,0,17,,,,,,,,,,,,,,,,13,,54,72
30510,note_on,,1,0,11,,,,,,,,,,,,,,,,7,,57,72
30510,note_on,,1,0,18,,,,,,,,,,,,,,,,15,,54,72
30539,note_on,,0,0,18,,,,,,,,,,,,,,,,15,,79,0
30539,note_on,,59,0,10,,,,,,,,,,,,,,,,6,,67,0
30539,note_on,,29,0,6,,,,,,,,,,,,,,,,2,,54,0
30539,note_on,,59,0,9,,,,,,,,,,,,,,,,5,,76,0
30539,note_on,,0,0,18,,,,,,,,,,,,,,,,15,,54,0
30539,note_on,,0,0,18,,,,,,,,,,,,,,,,15,,59,0
30539,note_on,,0,0,18,,,,,,,,,,,,,,,,15,,76,0
30539,note_on,,29,0,18,,,,,,,,,,,,,,,,15,,67,0
30539,note_on,,59,0,5,,,,,,,,,,,,,,,,1,,76,0
30539,note_on,,29,0,16,,,,,,,,,,,,,,,,12,,57,0
30539,note_on,,29,0,11,,,,,,,,,,,,,,,,7,,57,0
30539,note_on,,29,0,12,,,,,,,,,,,,,,,,8,,54,0
30539,note_on,,59,0,15,,,,,,,,,,,,,,,,11,,67,0
30539,note_on,,59,0,14,,,,,,,,,,,,,,,,10,,76,0
30539,note_on,,29,0,17,,,,,,,,,,,,,,,,13,,54,0
30539,note_on,,59,0,7,,,,,,,,,,,,,,,,3,,76,0
30540,note_on,,1,0,17,,,,,,,,,,,,,,,,13,,52,72
30540,note_on,,1,0,12,,,,,,,,,,,,,,,,8,,52,72
30540,note_on,,1,0,5,,,,,,,,,,,,,,,,1,,76,72
30540,note_on,,1,0,10,,,,,,,,,,,,,,,,6,,67,72
30540,note_on,,1,0,6,,,,,,,,,,,,,,,,2,,52,72
30540,note_on,,1,0,18,,,,,,,,,,,,,,,,15,,52,72
30540,note_on,,1,0,16,,,,,,,,,,,,,,,,12,,55,72
30540,note_on,,1,0,9,,,,,,,,,,,,,,,,5,,76,72
30540,note_on,,1,0,11,,,,,,,,,,,,,,,,7,,55,72
30540,note_on,,1,0,14,,,,,,,,,,,,,,,,10,,76,72
30540,note_on,,1,0,15,,,,,,,,,,,,,,,,11,,67,72
30540,note_on,,1,0,7,,,,,,,,,,,,,,,,3,,76,72
30569,note_on,,29,0,11,,,,,,,,,,,,,,,,7,,55,0
30569,note_on,,29,0,6,,,,,,,,,,,,,,,,2,,52,0
30569,note_on,,29,0,18,,,,,,,,,,,,,,,,15,,52,0
30569,note_on,,29,0,16,,,,,,,,,,,,,,,,12,,55,0
30569,note_on,,29,0,12,,,,,,,,,,,,,,,,8,,52,0
30569,note_on,,29,0,17,,,,,,,,,,,,,,,,13,,52,0
30570,note_on,,1,0,11,,,,,,,,,,,,,,,,7,,54,72
30570,note_on,,1,0,16,,,,,,,,,,,,,,,,12,,54,72
30570,note_on,,1,0,12,,,,,,,,,,,,,,,,8,,50,72
30570,note_on,,1,0,18,,,,,,,,,,,,,,,,15,,50,72
30570,note_on,,1,0,17,,,,,,,,,,,,,,,,13,,50,72
30570,note_on,,1,0,6,,,,,,,,,,,,,,,,2,,50,72
30599,note_on,,59,0,5,,,,,,,,,,,,,,,,1,,76,0
30599,note_on,,59,0,14,,,,,,,,,,,,,,,,10,,76,0
30599,note_on,,59,0,9,,,,,,,,,,,,,,,,5,,76,0
30599,note_on,,29,0,18,,,,,,,,,,,,,,,,15,,50,0
30599,note_on,,29,0,16,,,,,,,,,,,,,,,,12,,54,0
30599,note_on,,29,0,6,,,,,,,,,,,,,,,,2,,50,0
30599,note_on,,29,0,11,,,,,,,,,,,,,,,,7,,54,0
30599,note_on,,59,0,10,,,,,,,,,,,,,,,,6,,67,0
30599,note_on,,29,0,17,,,,,,,,,,,,,,,,13,,50,0
30599,note_on,,59,0,7,,,,,,,,,,,,,,,,3,,76,0
30599,note_on,,29,0,12,,,,,,,,,,,,,,,,8,,50,0
30599,note_on,,59,0,15,,,,,,,,,,,,,,,,11,,67,0
30600,note_on,,1,0,6,,,,,,,,,,,,,,,,2,,49,72
30600,note_on,,0,0,18,,,,,,,,,,,,,,,,15,,61,72
30600,note_on,,1,0,12,,,,,,,,,,,,,,,,8,,49,72
30600,note_on,,0,0,18,,,,,,,,,,,,,,,,15,,69,72
30600,note_on,,0,0,18,,,,,,,,,,,,,,,,15,,64,72
30600,note_on,,1,0,17,,,,,,,,,,,,,,,,13,,49,72
30600,note_on,,1,0,18,,,,,,,,,,,,,,,,15,,49,72
30600,note_on,,1,0,16,,,,,,,,,,,,,,,,12,,52,72
30600,note_on,,1,0,11,,,,,,,,,,,,,,,,7,,52,72
30659,note_on,,59,0,16,,,,,,,,,,,,,,,,12,,52,0
30659,note_on,,59,0,11,,,,,,,,,,,,,,,,7,,52,0
30659,note_on,,59,0,17,,,,,,,,,,,,,,,,13,,49,0
30659,note_on,,59,0,6,,,,,,,,,,,,,,,,2,,49,0
30659,note_on,,59,0,18,,,,,,,,,,,,,,,,15,,49,0
30659,note_on,,0,0,18,,,,,,,,,,,,,,,,15,,64,0
30659,note_on,,0,0,18,,,,,,,,,,,,,,,,15,,61,0
30659,note_on,,59,0,12,,,,,,,,,,,,,,,,8,,49,0
30659,note_on,,0,0,18,,,,,,,,,,,,,,,,15,,69,0
30660,note_on,,301,0,8,,,,,,,,,,,,,,,,4,,69,72
30660,note_on,,1,0,11,,,,,,,,,,,,,,,,7,,61,72
30660,note_on,,61,0,9,,,,,,,,,,,,,,,,5,,73,72
30660,note_on,,61,0,14,,,,,,,,,,,,,,,,10,,73,72
30660,note_on,,1,0,6,,,,,,,,,,,,,,,,2,,57,72
30660,note_on,,1,0,18,,,,,,,,,,,,,,,,15,,57,72
30660,note_on,,1,0,17,,,,,,,,,,,,,,,,13,,57,72
30660,note_on,,61,0,7,,,,,,,,,,,,,,,,3,,76,72
30660,note_on,,1,0,16,,,,,,,,,,,,,,,,12,,61,72
30660,note_on,,61,0,5,,,,,,,,,,,,,,,,1,,73,72
30660,note_on,,301,0,13,,,,,,,,,,,,,,,,14,,45,72
30660,note_on,,61,0,15,,,,,,,,,,,,,,,,11,,64,72
30660,note_on,,1,0,12,,,,,,,,,,,,,,,,8,,57,72
30660,note_on,,61,0,10,,,,,,,,,,,,,,,,6,,64,72
30719,note_on,,59,0,10,,,,,,,,,,,,,,,,6,,64,0
30719,note_on,,59,0,18,,,,,,,,,,,,,,,,15,,57,0
30719,note_on,,59,0,16,,,,,,,,,,,,,,,,12,,61,0
30719,note_on,,59,0,11,,,,,,,,,,,,,,,,7,,61,0
30719,note_on,,59,0,17,,,,,,,,,,,,,,,,13,,57,0
30719,note_on,,59,0,13,,,,,,,,,,,,,,,,14,,45,0
30719,note_on,,59,0,5,,,,,,,,,,,,,,,,1,,73,0
30719,note_on,,59,0,8,,,,,,,,,,,,,,,,4,,69,0
30719,note_on,,59,0,15,,,,,,,,,,,,,,,,11,,64,0
30719,note_on,,59,0,6,,,,,,,,,,,,,,,,2,,57,0
30719,note_on,,59,0,12,,,,,,,,,,,,,,,,8,,57,0
30719,note_on,,59,0,9,,,,,,,,,,,,,,,,5,,73,0
30719,note_on,,59,0,14,,,,,,,,,,,,,,,,10,,73,0
30719,note_on,,59,0,7,,,,,,,,,,,,,,,,3,,76,0
30720,note_on,,0,0,18,,,,,,,,,,,,,,,,15,,73,72
30720,note_on,,1,0,6,,,,,,,,,,,,,,,,2,,57,72
30720,note_on,,1,0,7,,,,,,,,,,,,,,,,3,,78,72
30720,note_on,,1,0,5,,,,,,,,,,,,,,,,1,,78,72
30720,note_on,,1,0,14,,,,,,,,,,,,,,,,10,,78,72
30720,note_on,,1,0,12,,,,,,,,,,,,,,,,8,,57,72
30720,note_on,,1,0,9,,,,,,,,,,,,,,,,5,,78,72
30720,note_on,,0,0,18,,,,,,,,,,,,,,,,15,,69,72
30720,note_on,,1,0,17,,,,,,,,,,,,,,,,13,,57,72
30720,note_on,,0,0,18,,,,,,,,,,,,,,,,15,,78,72
30720,note_on,,1,0,13,,,,,,,,,,,,,,,,14,,45,72
30720,note_on,,0,0,18,,,,,,,,,,,,,,,,15,,57,72
30720,note_on,,1,0,10,,,,,,,,,,,,,,,,6,,69,72
30720,note_on,,1,0,18,,,,,,,,,,,,,,,,15,,61,72
30720,note_on,,1,0,8,,,,,,,,,,,,,,,,4,,69,72
30720,note_on,,1,0,11,,,,,,,,,,,,,,,,7,,61,72
30720,note_on,,1,0,15,,,,,,,,,,,,,,,,11,,69,72
30720,note_on,,1,0,16,,,,,,,,,,,,,,,,12,,61,72
30749,note_on,,29,0,12,,,,,,,,,,,,,,,,8,,57,0
30749,note_on,,29,0,18,,,,,,,,,,,,,,,,15,,57,0
30749,note_on,,29,0,11,,,,,,,,,,,,,,,,7,,61,0
30749,note_on,,29,0,16,,,,,,,,,,,,,,,,12,,61,0
30749,note_on,,29,0,6,,,,,,,,,,,,,,,,2,,57,0
30749,note_on,,29,0,17,,,,,,,,,,,,,,,,13,,57,0
30750,note_on,,1,0,11,,,,,,,,,,,,,,,,7,,59,72
30750,note_on,,1,0,18,,,,,,,,,,,,,,,,15,,55,72
30750,note_on,,1,0,16,,,,,,,,,,,,,,,,12,,59,72
30750,note_on,,1,0,6,,,,,,,,,,,,,,,,2,,55,72
30750,note_on,,1,0,17,,,,,,,,,,,,,,,,13,,55,72
30750,note_on,,1,0,12,,,,,,,,,,,,,,,,8,,55,72
30779,note_on,,0,0,18,,,,,,,,,,,,,,,,15,,78,0
30779,note_on,,29,0,11,,,,,,,,,,,,,,,,7,,59,0
30779,note_on,,29,0,17,,,,,,,,,,,,,,,,13,,55,0
30779,note_on,,59,0,14,,,,,,,,,,,,,,,,10,,78,0
30779,note_on,,0,0,18,,,,,,,,,,,,,,,,15,,55,0
30779,note_on,,29,0,18,,,,,,,,,,,,,,,,15,,61,0
30779,note_on,,0,0,18,,,,,,,,,,,,,,,,15,,73,0
30779,note_on,,0,0,18,,,,,,,,,,,,,,,,15,,69,0
30779,note_on,,59,0,9,,,,,,,,,,,,,,,,5,,78,0
30779,note_on,,59,0,7,,,,,,,,,,,,,,,,3,,78,0
30779,note_on,,59,0,5,,,,,,,,,,,,,,,,1,,78,0
30779,note_on,,29,0,6,,,,,,,,,,,,,,,,2,,55,0
30779,note_on,,59,0,8,,,,,,,,,,,,,,,,4,,69,0
30779,note_on,,59,0,15,,,,,,,,,,,,,,,,11,,69,0
30779,note_on,,59,0,10,,,,,,,,,,,,,,,,6,,69,0
30779,note_on,,29,0,12,,,,,,,,,,,,,,,,8,,55,0
30779,note_on,,59,0,13,,,,,,,,,,,,,,,,14,,45,0
30779,note_on,,29,0,16,,,,,,,,,,,,,,,,12,,59,0
30780,note_on,,1,0,8,,,,,,,,,,,,,,,,4,,69,72
30780,note_on,,1,0,9,,,,,,,,,,,,,,,,5,,78,72
30780,note_on,,1,0,15,,,,,,,,,,,,,,,,11,,69,72
30780,note_on,,1,0,14,,,,,,,,,,,,,,,,10,,78,72
30780,note_on,,1,0,6,,,,,,,,,,,,,,,,2,,54,72
30780,note_on,,1,0,18,,,,,,,,,,,,,,,,15,,54,72
30780,note_on,,1,0,16,,,,,,,,,,,,,,,,12,,57,72
30780,note_on,,1,0,7,,,,,,,,,,,,,,,,3,,78,72
30780,note_on,,1,0,17,,,,,,,,,,,,,,,,13,,54,72
30780,note_on,,1,0,11,,,,,,,,,,,,,,,,7,,57,72
30780,note_on,,1,0,13,,,,,,,,,,,,,,,,14,,50,72
30780,note_on,,1,0,12,,,,,,,,,,,,,,,,8,,54,72
30780,note_on,,1,0,10,,,,,,,,,,,,,,,,6,,69,72
30780,note_on,,1,0,5,,,,,,,,,,,,,,,,1,,78,72
30809,note_on,,29,0,18,,,,,,,,,,,,,,,,15,,54,0
30809,note_on,,29,0,17,,,,,,,,,,,,,,,,13,,54,0
30809,note_on,,29,0,11,,,,,,,,,,,,,,,,7,,57,0
30809,note_on,,29,0,6,,,,,,,,,,,,,,,,2,,54,0
30809,note_on,,29,0,16,,,,,,,,,,,,,,,,12,,57,0
30809,note_on,,29,0,12,,,,,,,,,,,,,,,,8,,54,0
30810,note_on,,1,0,17,,,,,,,,,,,,,,,,13,,52,72
30810,note_on,,1,0,6,,,,,,,,,,,,,,,,2,,52,72
30810,note_on,,1,0,16,,,,,,,,,,,,,,,,12,,55,72
30810,note_on,,1,0,11,,,,,,,,,,,,,,,,7,,55,72
30810,note_on,,1,0,18,,,,,,,,,,,,,,,,15,,52,72
30810,note_on,,1,0,12,,,,,,,,,,,,,,,,8,,52,72
30839,note_on,,29,0,11,,,,,,,,,,,,,,,,7,,55,0
30839,note_on,,59,0,5,,,,,,,,,,,,,,,,1,,78,0
30839,note_on,,29,0,17,,,,,,,,,,,,,,,,13,,52,0
30839,note_on,,59,0,15,,,,,,,,,,,,,,,,11,,69,0
30839,note_on,,29,0,12,,,,,,,,,,,,,,,,8,,52,0
30839,note_on,,29,0,16,,,,,,,,,,,,,,,,12,,55,0
30839,note_on,,29,0,6,,,,,,,,,,,,,,,,2,,52,0
30839,note_on,,59,0,9,,,,,,,,,,,,,,,,5,,78,0
30839,note_on,,29,0,18,,,,,,,,,,,,,,,,15,,52,0
30839,note_on,,59,0,14,,,,,,,,,,,,,,,,10,,78,0
30839,note_on,,59,0,13,,,,,,,,,,,,,,,,14,,50,0
30839,note_on,,59,0,10,,,,,,,,,,,,,,,,6,,69,0
30839,note_on,,59,0,7,,,,,,,,,,,,,,,,3,,78,0
30839,note_on,,59,0,8,,,,,,,,,,,,,,,,4,,69,0
30840,note_on,,1,0,6,,,,,,,,,,,,,,,,2,,50,72
30840,note_on,,0,0,18,,,,,,,,,,,,,,,,15,,50,72
30840,note_on,,0,0,18,,,,,,,,,,,,,,,,15,,62,72
30840,note_on,,1,0,18,,,,,,,,,,,,,,,,15,,71,72
30840,note_on,,0,0,18,,,,,,,,,,,,,,,,15,,66,72
30840,note_on,,1,0,16,,,,,,,,,,,,,,,,12,,54,72
30840,note_on,,1,0,17,,,,,,,,,,,,,,,,13,,50,72
30840,note_on,,1,0,12,,,,,,,,,,,,,,,,8,,50,72
30840,note_on,,1,0,11,,,,,,,,,,,,,,,,7,,54,72
30899,note_on,,59,0,6,,,,,,,,,,,,,,,,2,,50,0
30899,note_on,,59,0,18,,,,,,,,,,,,,,,,15,,71,0
30899,note_on,,0,0,18,,,,,,,,,,,,,,,,15,,66,0
30899,note_on,,59,0,12,,,,,,,,,,,,,,,,8,,50,0
30899,note_on,,0,0,18,,,,,,,,,,,,,,,,15,,62,0
30899,note_on,,0,0,18,,,,,,,,,,,,,,,,15,,50,0
30899,note_on,,59,0,11,,,,,,,,,,,,,,,,7,,54,0
30899,note_on,,59,0,16,,,,,,,,,,,,,,,,12,,54,0
30899,note_on,,59,0,17,,,,,,,,,,,,,,,,13,,50,0
30900,note_on,,1,0,17,,,,,,,,,,,,,,,,13,,59,72
30900,note_on,,61,0,14,,,,,,,,,,,,,,,,10,,74,72
30900,note_on,,61,0,13,,,,,,,,,,,,,,,,14,,50,72
30900,note_on,,61,0,10,,,,,,,,,,,,,,,,6,,66,72
30900,note_on,,61,0,7,,,,,,,,,,,,,,,,3,,78,72
30900,note_on,,1,0,6,,,,,,,,,,,,,,,,2,,59,72
30900,note_on,,61,0,5,,,,,,,,,,,,,,,,1,,74,72
30900,note_on,,61,0,15,,,,,,,,,,,,,,,,11,,66,72
30900,note_on,,61,0,9,,,,,,,,,,,,,,,,5,,74,72
30900,note_on,,1,0,12,,,,,,,,,,,,,,,,8,,59,72
30900,note_on,,61,0,8,,,,,,,,,,,,,,,,4,,74,72
30900,note_on,,1,0,18,,,,,,,,,,,,,,,,15,,59,72
30900,note_on,,1,0,16,,,,,,,,,,,,,,,,12,,62,72
30900,note_on,,1,0,11,,,,,,,,,,,,,,,,7,,62,72
30959,note_on,,59,0,16,,,,,,,,,,,,,,,,12,,62,0
30959,note_on,,59,0,17,,,,,,,,,,,,,,,,13,,59,0
30959,note_on,,59,0,5,,,,,,,,,,,,,,,,1,,74,0
30959,note_on,,59,0,12,,,,,,,,,,,,,,,,8,,59,0
30959,note_on,,59,0,9,,,,,,,,,,,,,,,,5,,74,0
30959,note_on,,59,0,15,,,,,,,,,,,,,,,,11,,66,0
30959,note_on,,59,0,13,,,,,,,,,,,,,,,,14,,50,0
30959,note_on,,59,0,10,,,,,,,,,,,,,,,,6,,66,0
30959,note_on,,59,0,18,,,,,,,,,,,,,,,,15,,59,0
30959,note_on,,59,0,7,,,,,,,,,,,,,,,,3,,78,0
30959,note_on,,59,0,8,,,,,,,,,,,,,,,,4,,74,0
30959,note_on,,59,0,14,,,,,,,,,,,,,,,,10,,74,0
30959,note_on,,59,0,6,,,,,,,,,,,,,,,,2,,59,0
30959,note_on,,59,0,11,,,,,,,,,,,,,,,,7,,62,0
30960,note_on,,1,0,5,,,,,,,,,,,,,,,,1,,79,72
30960,note_on,,1,0,11,,,,,,,,,,,,,,,,7,,62,72
30960,note_on,,1,0,8,,,,,,,,,,,,,,,,4,,74,72
30960,note_on,,1,0,18,,,,,,,,,,,,,,,,15,,74,72
30960,note_on,,0,0,18,,,,,,,,,,,,,,,,15,,62,72
30960,note_on,,0,0,18,,,,,,,,,,,,,,,,15,,67,72
30960,note_on,,1,0,10,,,,,,,,,,,,,,,,6,,71,72
30960,note_on,,1,0,12,,,,,,,,,,,,,,,,8,,59,72
30960,note_on,,1,0,6,,,,,,,,,,,,,,,,2,,59,72
30960,note_on,,1,0,14,,,,,,,,,,,,,,,,10,,79,72
30960,note_on,,0,0,18,,,,,,,,,,,,,,,,15,,79,72
30960,note_on,,0,0,18,,,,,,,,,,,,,,,,15,,59,72
30960,note_on,,1,0,9,,,,,,,,,,,,,,,,5,,79,72
30960,note_on,,1,0,16,,,,,,,,,,,,,,,,12,,62,72
30960,note_on,,1,0,13,,,,,,,,,,,,,,,,14,,50,72
30960,note_on,,1,0,7,,,,,,,,,,,,,,,,3,,79,72
30960,note_on,,1,0,17,,,,,,,,,,,,,,,,13,,59,72
30960,note_on,,1,0,15,,,,,,,,,,,,,,,,11,,71,72
30989,note_on,,29,0,6,,,,,,,,,,,,,,,,2,,59,0
30989,note_on,,29,0,12,,,,,,,,,,,,,,,,8,,59,0
30989,note_on,,29,0,16,,,,,,,,,,,,,,,,12,,62,0
30989,note_on,,29,0,18,,,,,,,,,,,,,,,,15,,59,0
30989,note_on,,29,0,11,,,,,,,,,,,,,,,,7,,62,0
30989,note_on,,29,0,17,,,,,,,,,,,,,,,,13,,59,0
30990,note_on,,1,0,18,,,,,,,,,,,,,,,,15,,57,72
30990,note_on,,1,0,6,,,,,,,,,,,,,,,,2,,57,72
30990,note_on,,1,0,17,,,,,,,,,,,,,,,,13,,57,72
30990,note_on,,1,0,16,,,,,,,,,,,,,,,,12,,61,72
30990,note_on,,1,0,12,,,,,,,,,,,,,,,,8,,57,72
30990,note_on,,1,0,11,,,,,,,,,,,,,,,,7,,61,72
31019,note_on,,29,0,18,,,,,,,,,,,,,,,,15,,74,0
31019,note_on,,59,0,9,,,,,,,,,,,,,,,,5,,79,0
31019,note_on,,59,0,14,,,,,,,,,,,,,,,,10,,79,0
31019,note_on,,29,0,16,,,,,,,,,,,,,,,,12,,61,0
31019,note_on,,29,0,12,,,,,,,,,,,,,,,,8,,57,0
31019,note_on,,0,0,18,,,,,,,,,,,,,,,,15,,79,0
31019,note_on,,0,0,18,,,,,,,,,,,,,,,,15,,57,0
31019,note_on,,29,0,6,,,,,,,,,,,,,,,,2,,57,0
31019,note_on,,59,0,10,,,,,,,,,,,,,,,,6,,71,0
31019,note_on,,59,0,5,,,,,,,,,,,,,,,,1,,79,0
31019,note_on,,29,0,17,,,,,,,,,,,,,,,,13,,57,0
31019,note_on,,29,0,11,,,,,,,,,,,,,,,,7,,61,0
31019,note_on,,0,0,18,,,,,,,,,,,,,,,,15,,67,0
31019,note_on,,59,0,13,,,,,,,,,,,,,,,,14,,50,0
31019,note_on,,59,0,8,,,,,,,,,,,,,,,,4,,74,0
31019,note_on,,59,0,7,,,,,,,,,,,,,,,,3,,79,0
31019,note_on,,59,0,15,,,,,,,,,,,,,,,,11,,71,0
31019,note_on,,0,0,18,,,,,,,,,,,,,,,,15,,62,0
31020,note_on,,1,0,10,,,,,,,,,,,,,,,,6,,71,72
31020,note_on,,1,0,15,,,,,,,,,,,,,,,,11,,71,72
31020,note_on,,1,0,12,,,,,,,,,,,,,,,,8,,55,72
31020,note_on,,1,0,13,,,,,,,,,,,,,,,,14,,45,72
31020,note_on,,1,0,9,,,,,,,,,,,,,,,,5,,79,72
31020,note_on,,1,0,16,,,,,,,,,,,,,,,,12,,59,72
31020,note_on,,1,0,14,,,,,,,,,,,,,,,,10,,79,72
31020,note_on,,1,0,17,,,,,,,,,,,,,,,,13,,55,72
31020,note_on,,1,0,18,,,,,,,,,,,,,,,,15,,55,72
31020,note_on,,1,0,7,,,,,,,,,,,,,,,,3,,79,72
31020,note_on,,1,0,6,,,,,,,,,,,,,,,,2,,55,72
31020,note_on,,1,0,11,,,,,,,,,,,,,,,,7,,59,72
31020,note_on,,1,0,5,,,,,,,,,,,,,,,,1,,79,72
31020,note_on,,1,0,8,,,,,,,,,,,,,,,,4,,76,72
31049,note_on,,29,0,18,,,,,,,,,,,,,,,,15,,55,0
31049,note_on,,29,0,6,,,,,,,,,,,,,,,,2,,55,0
31049,note_on,,29,0,11,,,,,,,,,,,,,,,,7,,59,0
31049,note_on,,29,0,16,,,,,,,,,,,,,,,,12,,59,0
31049,note_on,,29,0,17,,,,,,,,,,,,,,,,13,,55,0
31049,note_on,,29,0,12,,,,,,,,,,,,,,,,8,,55,0
31050,note_on,,1,0,16,,,,,,,,,,,,,,,,12,,57,72
31050,note_on,,1,0,11,,,,,,,,,,,,,,,,7,,57,72
31050,note_on,,1,0,6,,,,,,,,,,,,,,,,2,,54,72
31050,note_on,,1,0,12,,,,,,,,,,,,,,,,8,,54,72
31050,note_on,,1,0,18,,,,,,,,,,,,,,,,15,,54,72
31050,note_on,,1,0,17,,,,,,,,,,,,,,,,13,,54,72
31079,note_on,,59,0,14,,,,,,,,,,,,,,,,10,,79,0
31079,note_on,,29,0,18,,,,,,,,,,,,,,,,15,,54,0
31079,note_on,,59,0,8,,,,,,,,,,,,,,,,4,,76,0
31079,note_on,,59,0,15,,,,,,,,,,,,,,,,11,,71,0
31079,note_on,,29,0,6,,,,,,,,,,,,,,,,2,,54,0
31079,note_on,,59,0,9,,,,,,,,,,,,,,,,5,,79,0
31079,note_on,,59,0,10,,,,,,,,,,,,,,,,6,,71,0
31079,note_on,,29,0,16,,,,,,,,,,,,,,,,12,,57,0
31079,note_on,,59,0,7,,,,,,,,,,,,,,,,3,,79,0
31079,note_on,,29,0,17,,,,,,,,,,,,,,,,13,,54,0
31079,note_on,,59,0,13,,,,,,,,,,,,,,,,14,,45,0
31079,note_on,,29,0,12,,,,,,,,,,,,,,,,8,,54,0
31079,note_on,,59,0,5,,,,,,,,,,,,,,,,1,,79,0
31079,note_on,,29,0,11,,,,,,,,,,,,,,,,7,,57,0
31080,note_on,,0,0,18,,,,,,,,,,,,,,,,15,,52,72
31080,note_on,,1,0,18,,,,,,,,,,,,,,,,15,,73,72
31080,note_on,,1,0,6,,,,,,,,,,,,,,,,2,,52,72
31080,note_on,,0,0,18,,,,,,,,,,,,,,,,15,,67,72
31080,note_on,,1,0,11,,,,,,,,,,,,,,,,7,,55,72
31080,note_on,,0,0,18,,,,,,,,,,,,,,,,15,,64,72
31080,note_on,,1,0,17,,,,,,,,,,,,,,,,13,,52,72
31080,note_on,,1,0,16,,,,,,,,,,,,,,,,12,,55,72
31080,note_on,,1,0,12,,,,,,,,,,,,,,,,8,,52,72
31139,note_on,,59,0,6,,,,,,,,,,,,,,,,2,,52,0
31139,note_on,,59,0,11,,,,,,,,,,,,,,,,7,,55,0
31139,note_on,,59,0,17,,,,,,,,,,,,,,,,13,,52,0
31139,note_on,,0,0,18,,,,,,,,,,,,,,,,15,,67,0
31139,note_on,,0,0,18,,,,,,,,,,,,,,,,15,,64,0
31139,note_on,,0,0,18,,,,,,,,,,,,,,,,15,,52,0
31139,note_on,,59,0,12,,,,,,,,,,,,,,,,8,,52,0
31139,note_on,,59,0,16,,,,,,,,,,,,,,,,12,,55,0
31139,note_on,,59,0,18,,,,,,,,,,,,,,,,15,,73,0
31140,note_on,,1,0,17,,,,,,,,,,,,,,,,13,,61,72
31140,note_on,,61,0,7,,,,,,,,,,,,,,,,3,,76,72
31140,note_on,,1,0,18,,,,,,,,,,,,,,,,15,,61,72
31140,note_on,,61,0,13,,,,,,,,,,,,,,,,14,,45,72
31140,note_on,,61,0,14,,,,,,,,,,,,,,,,10,,76,72
31140,note_on,,61,0,8,,,,,,,,,,,,,,,,4,,69,72
31140,note_on,,1,0,6,,,,,,,,,,,,,,,,2,,61,72
31140,note_on,,1,0,12,,,,,,,,,,,,,,,,8,,61,72
31140,note_on,,1,0,11,,,,,,,,,,,,,,,,7,,64,72
31140,note_on,,61,0,10,,,,,,,,,,,,,,,,6,,69,72
31140,note_on,,1,0,16,,,,,,,,,,,,,,,,12,,64,72
31140,note_on,,61,0,5,,,,,,,,,,,,,,,,1,,76,72
31140,note_on,,61,0,9,,,,,,,,,,,,,,,,5,,76,72
31140,note_on,,61,0,15,,,,,,,,,,,,,,,,11,,69,72
31199,note_on,,59,0,10,,,,,,,,,,,,,,,,6,,69,0
31199,note_on,,59,0,11,,,,,,,,,,,,,,,,7,,64,0
31199,note_on,,59,0,18,,,,,,,,,,,,,,,,15,,61,0
31199,note_on,,59,0,9,,,,,,,,,,,,,,,,5,,76,0
31199,note_on,,59,0,13,,,,,,,,,,,,,,,,14,,45,0
31199,note_on,,59,0,5,,,,,,,,,,,,,,,,1,,76,0
31199,note_on,,59,0,7,,,,,,,,,,,,,,,,3,,76,0
31199,note_on,,59,0,8,,,,,,,,,,,,,,,,4,,69,0
31199,note_on,,59,0,12,,,,,,,,,,,,,,,,8,,61,0
31199,note_on,,59,0,17,,,,,,,,,,,,,,,,13,,61,0
31199,note_on,,59,0,15,,,,,,,,,,,,,,,,11,,69,0
31199,note_on,,59,0,14,,,,,,,,,,,,,,,,10,,76,0
31199,note_on,,59,0,6,,,,,,,,,,,,,,,,2,,61,0
31199,note_on,,59,0,16,,,,,,,,,,,,,,,,12,,64,0
31200,note_on,,1,0,18,,,,,,,,,,,,,,,,15,,69,72
31200,note_on,,1,0,15,,,,,,,,,,,,,,,,11,,76,72
31200,note_on,,1,0,14,,,,,,,,,,,,,,,,10,,81,72
31200,note_on,,0,0,18,,,,,,,,,,,,,,,,15,,61,72
31200,note_on,,0,0,18,,,,,,,,,,,,,,,,15,,64,72
31200,note_on,,0,0,18,,,,,,,,,,,,,,,,15,,76,72
31200,note_on,,1,0,16,,,,,,,,,,,,,,,,12,,64,72
31200,note_on,,1,0,12,,,,,,,,,,,,,,,,8,,61,72
31200,note_on,,1,0,13,,,,,,,,,,,,,,,,14,,45,72
31200,note_on,,1,0,5,,,,,,,,,,,,,,,,1,,76,72
31200,note_on,,1,0,7,,,,,,,,,,,,,,,,3,,81,72
31200,note_on,,1,0,8,,,,,,,,,,,,,,,,4,,76,72
31200,note_on,,1,0,17,,,,,,,,,,,,,,,,13,,61,72
31200,note_on,,1,0,11,,,,,,,,,,,,,,,,7,,64,72
31200,note_on,,1,0,10,,,,,,,,,,,,,,,,6,,69,72
31200,note_on,,1,0,9,,,,,,,,,,,,,,,,5,,76,72
31200,note_on,,0,0,18,,,,,,,,,,,,,,,,15,,81,72
31200,note_on,,1,0,6,,,,,,,,,,,,,,,,2,,61,72
31229,note_on,,29,0,12,,,,,,,,,,,,,,,,8,,61,0
31229,note_on,,29,0,6,,,,,,,,,,,,,,,,2,,61,0
31229,note_on,,29,0,16,,,,,,,,,,,,,,,,12,,64,0
31229,note_on,,29,0,11,,,,,,,,,,,,,,,,7,,64,0
31229,note_on,,29,0,17,,,,,,,,,,,,,,,,13,,61,0
31229,note_on,,29,0,18,,,,,,,,,,,,,,,,15,,61,0
31230,note_on,,1,0,17,,,,,,,,,,,,,,,,13,,59,72
31230,note_on,,1,0,16,,,,,,,,,,,,,,,,12,,62,72
31230,note_on,,1,0,11,,,,,,,,,,,,,,,,7,,62,72
31230,note_on,,1,0,6,,,,,,,,,,,,,,,,2,,59,72
31230,note_on,,1,0,12,,,,,,,,,,,,,,,,8,,59,72
31230,note_on,,1,0,18,,,,,,,,,,,,,,,,15,,59,72
31259,note_on,,29,0,18,,,,,,,,,,,,,,,,15,,69,0
31259,note_on,,0,0,18,,,,,,,,,,,,,,,,15,,64,0
31259,note_on,,0,0,18,,,,,,,,,,,,,,,,15,,81,0
31259,note_on,,0,0,18,,,,,,,,,,,,,,,,15,,59,0
31259,note_on,,59,0,14,,,,,,,,,,,,,,,,10,,81,0
31259,note_on,,29,0,16,,,,,,,,,,,,,,,,12,,62,0
31259,note_on,,29,0,11,,,,,,,,,,,,,,,,7,,62,0
31259,note_on,,29,0,6,,,,,,,,,,,,,,,,2,,59,0
31259,note_on,,59,0,7,,,,,,,,,,,,,,,,3,,81,0
31259,note_on,,0,0,18,,,,,,,,,,,,,,,,15,,76,0
31259,note_on,,59,0,9,,,,,,,,,,,,,,,,5,,76,0
31259,note_on,,59,0,8,,,,,,,,,,,,,,,,4,,76,0
31259,note_on,,29,0,17,,,,,,,,,,,,,,,,13,,59,0
31259,note_on,,29,0,12,,,,,,,,,,,,,,,,8,,59,0
31259,note_on,,59,0,15,,,,,,,,,,,,,,,,11,,76,0
31259,note_on,,59,0,10,,,,,,,,,,,,,,,,6,,69,0
31259,note_on,,59,0,13,,,,,,,,,,,,,,,,14,,45,0
31259,note_on,,59,0,5,,,,,,,,,,,,,,,,1,,76,0
31260,note_on,,1,0,9,,,,,,,,,,,,,,,,5,,76,72
31260,note_on,,1,0,7,,,,,,,,,,,,,,,,3,,81,72
31260,note_on,,1,0,11,,,,,,,,,,,,,,,,7,,61,72
31260,note_on,,1,0,17,,,,,,,,,,,,,,,,13,,57,72
31260,note_on,,1,0,14,,,,,,,,,,,,,,,,10,,81,72
31260,note_on,,1,0,10,,,,,,,,,,,,,,,,6,,69,72
31260,note_on,,1,0,13,,,,,,,,,,,,,,,,14,,45,72
31260,note_on,,1,0,6,,,,,,,,,,,,,,,,2,,57,72
31260,note_on,,1,0,16,,,,,,,,,,,,,,,,12,,61,72
31260,note_on,,1,0,8,,,,,,,,,,,,,,,,4,,76,72
31260,note_on,,1,0,18,,,,,,,,,,,,,,,,15,,57,72
31260,note_on,,1,0,15,,,,,,,,,,,,,,,,11,,76,72
31260,note_on,,1,0,12,,,,,,,,,,,,,,,,8,,57,72
31260,note_on,,1,0,5,,,,,,,,,,,,,,,,1,,76,72
31289,note_on,,29,0,16,,,,,,,,,,,,,,,,12,,61,0
31289,note_on,,29,0,18,,,,,,,,,,,,,,,,15,,57,0
31289,note_on,,29,0,11,,,,,,,,,,,,,,,,7,,61,0
31289,note_on,,29,0,17,,,,,,,,,,,,,,,,13,,57,0
31289,note_on,,29,0,12,,,,,,,,,,,,,,,,8,,57,0
31289,note_on,,29,0,6,,,,,,,,,,,,,,,,2,,57,0
31290,note_on,,1,0,17,,,,,,,,,,,,,,,,13,,55,72
31290,note_on,,1,0,12,,,,,,,,,,,,,,,,8,,55,72
31290,note_on,,1,0,6,,,,,,,,,,,,,,,,2,,55,72
31290,note_on,,1,0,16,,,,,,,,,,,,,,,,12,,59,72
31290,note_on,,1,0,11,,,,,,,,,,,,,,,,7,,59,72
31290,note_on,,1,0,18,,,,,,,,,,,,,,,,15,,55,72
31319,note_on,,29,0,11,,,,,,,,,,,,,,,,7,,59,0
31319,note_on,,29,0,17,,,,,,,,,,,,,,,,13,,55,0
31319,note_on,,59,0,7,,,,,,,,,,,,,,,,3,,81,0
31319,note_on,,29,0,6,,,,,,,,,,,,,,,,2,,55,0
31319,note_on,,29,0,16,,,,,,,,,,,,,,,,12,,59,0
31319,note_on,,59,0,9,,,,,,,,,,,,,,,,5,,76,0
31319,note_on,,59,0,5,,,,,,,,,,,,,,,,1,,76,0
31319,note_on,,59,0,14,,,,,,,,,,,,,,,,10,,81,0
31319,note_on,,29,0,12,,,,,,,,,,,,,,,,8,,55,0
31319,note_on,,59,0,8,,,,,,,,,,,,,,,,4,,76,0
31319,note_on,,59,0,13,,,,,,,,,,,,,,,,14,,45,0
31319,note_on,,59,0,15,,,,,,,,,,,,,,,,11,,76,0
31319,note_on,,59,0,10,,,,,,,,,,,,,,,,6,,69,0
31319,note_on,,29,0,18,,,,,,,,,,,,,,,,15,,55,0
31320,note_on,,1,0,17,,,,,,,,,,,,,,,,13,,54,72
31320,note_on,,0,0,18,,,,,,,,,,,,,,,,15,,69,72
31320,note_on,,0,0,18,,,,,,,,,,,,,,,,15,,74,72
31320,note_on,,1,0,8,,,,,,,,,,,,,,,,4,,78,72
31320,note_on,,1,0,18,,,,,,,,,,,,,,,,15,,66,72
31320,note_on,,0,0,18,,,,,,,,,,,,,,,,15,,54,72
31320,note_on,,1,0,6,,,,,,,,,,,,,,,,2,,54,72
31320,note_on,,1,0,13,,,,,,,,,,,,,,,,14,,50,72
31320,note_on,,1,0,16,,,,,,,,,,,,,,,,12,,57,72
31320,note_on,,1,0,11,,,,,,,,,,,,,,,,7,,57,72
31320,note_on,,1,0,12,,,,,,,,,,,,,,,,8,,54,72
31379,note_on,,0,0,18,,,,,,,,,,,,,,,,15,,54,0
31379,note_on,,59,0,8,,,,,,,,,,,,,,,,4,,78,0
31379,note_on,,59,0,13,,,,,,,,,,,,,,,,14,,50,0
31379,note_on,,59,0,18,,,,,,,,,,,,,,,,15,,66,0
31379,note_on,,59,0,12,,,,,,,,,,,,,,,,8,,54,0
31379,note_on,,59,0,17,,,,,,,,,,,,,,,,13,,54,0
31379,note_on,,59,0,16,,,,,,,,,,,,,,,,12,,57,0
31379,note_on,,59,0,11,,,,,,,,,,,,,,,,7,,57,0
31379,note_on,,59,0,6,,,,,,,,,,,,,,,,2,,54,0
31379,note_on,,0,0,18,,,,,,,,,,,,,,,,15,,74,0
31379,note_on,,0,0,18,,,,,,,,,,,,,,,,15,,69,0
31380,note_on,,1,0,16,,,,,,,,,,,,,,,,12,,66,72
31380,note_on,,1,0,17,,,,,,,,,,,,,,,,13,,62,72
31380,note_on,,61,0,10,,,,,,,,,,,,,,,,6,,69,72
31380,note_on,,1,0,8,,,,,,,,,,,,,,,,4,,78,72
31380,note_on,,61,0,15,,,,,,,,,,,,,,,,11,,78,72
31380,note_on,,61,0,9,,,,,,,,,,,,,,,,5,,74,72
31380,note_on,,61,0,7,,,,,,,,,,,,,,,,3,,81,72
31380,note_on,,61,0,14,,,,,,,,,,,,,,,,10,,81,72
31380,note_on,,1,0,12,,,,,,,,,,,,,,,,8,,62,72
31380,note_on,,1,0,13,,,,,,,,,,,,,,,,14,,50,72
31380,note_on,,1,0,11,,,,,,,,,,,,,,,,7,,66,72
31380,note_on,,1,0,6,,,,,,,,,,,,,,,,2,,62,72
31380,note_on,,1,0,18,,,,,,,,,,,,,,,,15,,62,72
31380,note_on,,61,0,5,,,,,,,,,,,,,,,,1,,74,72
31439,note_on,,59,0,11,,,,,,,,,,,,,,,,7,,66,0
31439,note_on,,59,0,6,,,,,,,,,,,,,,,,2,,62,0
31439,note_on,,59,0,17,,,,,,,,,,,,,,,,13,,62,0
31439,note_on,,59,0,12,,,,,,,,,,,,,,,,8,,62,0
31439,note_on,,59,0,10,,,,,,,,,,,,,,,,6,,69,0
31439,note_on,,59,0,15,,,,,,,,,,,,,,,,11,,78,0
31439,note_on,,59,0,5,,,,,,,,,,,,,,,,1,,74,0
31439,note_on,,59,0,13,,,,,,,,,,,,,,,,14,,50,0
31439,note_on,,59,0,7,,,,,,,,,,,,,,,,3,,81,0
31439,note_on,,59,0,9,,,,,,,,,,,,,,,,5,,74,0
31439,note_on,,59,0,8,,,,,,,,,,,,,,,,4,,78,0
31439,note_on,,59,0,18,,,,,,,,,,,,,,,,15,,62,0
31439,note_on,,59,0,16,,,,,,,,,,,,,,,,12,,66,0
31439,note_on,,59,0,14,,,,,,,,,,,,,,,,10,,81,0
31440,note_on,,1,0,8,,,,,,,,,,,,,,,,4,,74,72
31440,note_on,,0,0,18,,,,,,,,,,,,,,,,15,,66,72
31440,note_on,,0,0,18,,,,,,,,,,,,,,,,15,,71,72
31440,note_on,,0,0,18,,,,,,,,,,,,,,,,15,,62,72
31440,note_on,,1,0,5,,,,,,,,,,,,,,,,1,,74,72
31440,note_on,,0,0,18,,,,,,,,,,,,,,,,15,,74,72
31440,note_on,,1,0,14,,,,,,,,,,,,,,,,10,,83,72
31440,note_on,,1,0,15,,,,,,,,,,,,,,,,11,,78,72
31440,note_on,,1,0,12,,,,,,,,,,,,,,,,8,,62,72
31440,note_on,,1,0,10,,,,,,,,,,,,,,,,6,,71,72
31440,note_on,,1,0,13,,,,,,,,,,,,,,,,14,,50,72
31440,note_on,,1,0,9,,,,,,,,,,,,,,,,5,,74,72
31440,note_on,,1,0,11,,,,,,,,,,,,,,,,7,,66,72
31440,note_on,,1,0,18,,,,,,,,,,,,,,,,15,,78,72
31440,note_on,,1,0,17,,,,,,,,,,,,,,,,13,,62,72
31440,note_on,,1,0,6,,,,,,,,,,,,,,,,2,,62,72
31440,note_on,,1,0,7,,,,,,,,,,,,,,,,3,,83,72
31440,note_on,,1,0,16,,,,,,,,,,,,,,,,12,,66,72
31469,note_on,,29,0,12,,,,,,,,,,,,,,,,8,,62,0
31469,note_on,,29,0,17,,,,,,,,,,,,,,,,13,,62,0
31469,note_on,,29,0,18,,,,,,,,,,,,,,,,15,,62,0
31469,note_on,,29,0,6,,,,,,,,,,,,,,,,2,,62,0
31469,note_on,,29,0,10,,,,,,,,,,,,,,,,6,,71,0
31469,note_on,,29,0,16,,,,,,,,,,,,,,,,12,,66,0
31469,note_on,,29,0,14,,,,,,,,,,,,,,,,10,,83,0
31470,note_on,,1,0,17,,,,,,,,,,,,,,,,13,,61,72
31470,note_on,,1,0,6,,,,,,,,,,,,,,,,2,,61,72
31470,note_on,,1,0,16,,,,,,,,,,,,,,,,12,,64,72
31470,note_on,,1,0,12,,,,,,,,,,,,,,,,8,,61,72
31470,note_on,,1,0,18,,,,,,,,,,,,,,,,15,,61,72
31470,note_on,,1,0,14,,,,,,,,,,,,,,,,10,,81,72
31470,note_on,,1,0,10,,,,,,,,,,,,,,,,6,,69,72
31499,note_on,,0,0,18,,,,,,,,,,,,,,,,15,,66,0
31499,note_on,,29,0,14,,,,,,,,,,,,,,,,10,,81,0
31499,note_on,,59,0,5,,,,,,,,,,,,,,,,1,,74,0
31499,note_on,,29,0,10,,,,,,,,,,,,,,,,6,,69,0
31499,note_on,,59,0,13,,,,,,,,,,,,,,,,14,,50,0
31499,note_on,,59,0,9,,,,,,,,,,,,,,,,5,,74,0
31499,note_on,,59,0,11,,,,,,,,,,,,,,,,7,,66,0
31499,note_on,,59,0,8,,,,,,,,,,,,,,,,4,,74,0
31499,note_on,,59,0,7,,,,,,,,,,,,,,,,3,,83,0
31499,note_on,,29,0,18,,,,,,,,,,,,,,,,15,,78,0
31499,note_on,,0,0,18,,,,,,,,,,,,,,,,15,,74,0
31499,note_on,,0,0,18,,,,,,,,,,,,,,,,15,,71,0
31499,note_on,,29,0,12,,,,,,,,,,,,,,,,8,,61,0
31499,note_on,,0,0,18,,,,,,,,,,,,,,,,15,,61,0
31499,note_on,,29,0,16,,,,,,,,,,,,,,,,12,,64,0
31499,note_on,,29,0,6,,,,,,,,,,,,,,,,2,,61,0
31499,note_on,,29,0,17,,,,,,,,,,,,,,,,13,,61,0
31499,note_on,,59,0,15,,,,,,,,,,,,,,,,11,,78,0
31500,note_on,,1,0,8,,,,,,,,,,,,,,,,4,,74,72
31500,note_on,,1,0,9,,,,,,,,,,,,,,,,5,,74,72
31500,note_on,,1,0,11,,,,,,,,,,,,,,,,7,,59,72
31500,note_on,,1,0,16,,,,,,,,,,,,,,,,12,,62,72
31500,note_on,,1,0,6,,,,,,,,,,,,,,,,2,,59,72
31500,note_on,,1,0,5,,,,,,,,,,,,,,,,1,,74,72
31500,note_on,,1,0,13,,,,,,,,,,,,,,,,14,,50,72
31500,note_on,,1,0,14,,,,,,,,,,,,,,,,10,,79,72
31500,note_on,,1,0,18,,,,,,,,,,,,,,,,15,,59,72
31500,note_on,,1,0,7,,,,,,,,,,,,,,,,3,,83,72
31500,note_on,,1,0,15,,,,,,,,,,,,,,,,11,,71,72
31500,note_on,,1,0,10,,,,,,,,,,,,,,,,6,,67,72
31500,note_on,,1,0,17,,,,,,,,,,,,,,,,13,,59,72
31500,note_on,,1,0,12,,,,,,,,,,,,,,,,8,,59,72
31529,note_on,,29,0,12,,,,,,,,,,,,,,,,8,,59,0
31529,note_on,,29,0,18,,,,,,,,,,,,,,,,15,,59,0
31529,note_on,,29,0,17,,,,,,,,,,,,,,,,13,,59,0
31529,note_on,,29,0,14,,,,,,,,,,,,,,,,10,,79,0
31529,note_on,,29,0,16,,,,,,,,,,,,,,,,12,,62,0
31529,note_on,,29,0,6,,,,,,,,,,,,,,,,2,,59,0
31529,note_on,,29,0,10,,,,,,,,,,,,,,,,6,,67,0
31530,note_on,,1,0,14,,,,,,,,,,,,,,,,10,,78,72
31530,note_on,,1,0,12,,,,,,,,,,,,,,,,8,,57,72
31530,note_on,,1,0,6,,,,,,,,,,,,,,,,2,,57,72
31530,note_on,,1,0,16,,,,,,,,,,,,,,,,12,,61,72
31530,note_on,,1,0,10,,,,,,,,,,,,,,,,6,,66,72
31530,note_on,,1,0,17,,,,,,,,,,,,,,,,13,,57,72
31530,note_on,,1,0,18,,,,,,,,,,,,,,,,15,,57,72
31559,note_on,,29,0,6,,,,,,,,,,,,,,,,2,,57,0
31559,note_on,,29,0,17,,,,,,,,,,,,,,,,13,,57,0
31559,note_on,,29,0,16,,,,,,,,,,,,,,,,12,,61,0
31559,note_on,,59,0,13,,,,,,,,,,,,,,,,14,,50,0
31559,note_on,,29,0,14,,,,,,,,,,,,,,,,10,,78,0
31559,note_on,,59,0,15,,,,,,,,,,,,,,,,11,,71,0
31559,note_on,,59,0,8,,,,,,,,,,,,,,,,4,,74,0
31559,note_on,,59,0,5,,,,,,,,,,,,,,,,1,,74,0
31559,note_on,,29,0,18,,,,,,,,,,,,,,,,15,,57,0
31559,note_on,,59,0,9,,,,,,,,,,,,,,,,5,,74,0
31559,note_on,,59,0,7,,,,,,,,,,,,,,,,3,,83,0
31559,note_on,,29,0,12,,,,,,,,,,,,,,,,8,,57,0
31559,note_on,,59,0,11,,,,,,,,,,,,,,,,7,,59,0
31559,note_on,,29,0,10,,,,,,,,,,,,,,,,6,,66,0
31560,note_on,,1,0,8,,,,,,,,,,,,,,,,4,,76,72
31560,note_on,,1,0,14,,,,,,,,,,,,,,,,10,,76,72
31560,note_on,,1,0,10,,,,,,,,,,,,,,,,6,,64,72
31560,note_on,,1,0,6,,,,,,,,,,,,,,,,2,,55,72
31560,note_on,,1,0,16,,,,,,,,,,,,,,,,12,,59,72
31560,note_on,,1,0,12,,,,,,,,,,,,,,,,8,,55,72
31560,note_on,,1,0,15,,,,,,,,,,,,,,,,11,,71,72
31560,note_on,,1,0,18,,,,,,,,,,,,,,,,15,,71,72
31560,note_on,,0,0,18,,,,,,,,,,,,,,,,15,,79,72
31560,note_on,,1,0,17,,,,,,,,,,,,,,,,13,,55,72
31560,note_on,,0,0,18,,,,,,,,,,,,,,,,15,,76,72
31560,note_on,,0,0,18,,,,,,,,,,,,,,,,15,,59,72
31560,note_on,,0,0,18,,,,,,,,,,,,,,,,15,,55,72
31589,note_on,,29,0,6,,,,,,,,,,,,,,,,2,,55,0
31589,note_on,,29,0,12,,,,,,,,,,,,,,,,8,,55,0
31589,note_on,,29,0,10,,,,,,,,,,,,,,,,6,,64,0
31589,note_on,,29,0,16,,,,,,,,,,,,,,,,12,,59,0
31589,note_on,,29,0,18,,,,,,,,,,,,,,,,15,,55,0
31589,note_on,,29,0,14,,,,,,,,,,,,,,,,10,,76,0
31589,note_on,,29,0,17,,,,,,,,,,,,,,,,13,,55,0
31590,note_on,,1,0,16,,,,,,,,,,,,,,,,12,,57,72
31590,note_on,,1,0,6,,,,,,,,,,,,,,,,2,,54,72
31590,note_on,,1,0,14,,,,,,,,,,,,,,,,10,,74,72
31590,note_on,,1,0,18,,,,,,,,,,,,,,,,15,,54,72
31590,note_on,,1,0,10,,,,,,,,,,,,,,,,6,,62,72
31590,note_on,,1,0,17,,,,,,,,,,,,,,,,13,,54,72
31590,note_on,,1,0,12,,,,,,,,,,,,,,,,8,,54,72
31619,note_on,,29,0,10,,,,,,,,,,,,,,,,6,,62,0
31619,note_on,,0,0,18,,,,,,,,,,,,,,,,15,,54,0
31619,note_on,,29,0,12,,,,,,,,,,,,,,,,8,,54,0
31619,note_on,,29,0,14,,,,,,,,,,,,,,,,10,,74,0
31619,note_on,,59,0,15,,,,,,,,,,,,,,,,11,,71,0
31619,note_on,,29,0,16,,,,,,,,,,,,,,,,12,,57,0
31619,note_on,,29,0,17,,,,,,,,,,,,,,,,13,,54,0
31619,note_on,,0,0,18,,,,,,,,,,,,,,,,15,,59,0
31619,note_on,,29,0,18,,,,,,,,,,,,,,,,15,,71,0
31619,note_on,,0,0,18,,,,,,,,,,,,,,,,15,,79,0
31619,note_on,,29,0,6,,,,,,,,,,,,,,,,2,,54,0
31619,note_on,,0,0,18,,,,,,,,,,,,,,,,15,,76,0
31619,note_on,,59,0,8,,,,,,,,,,,,,,,,4,,76,0
31620,note_on,,1,0,18,,,,,,,,,,,,,,,,15,,52,72
31620,note_on,,61,0,9,,,,,,,,,,,,,,,,5,,76,72
31620,note_on,,1,0,14,,,,,,,,,,,,,,,,10,,73,72
31620,note_on,,1,0,16,,,,,,,,,,,,,,,,12,,55,72
31620,note_on,,1,0,8,,,,,,,,,,,,,,,,4,,76,72
31620,note_on,,61,0,11,,,,,,,,,,,,,,,,7,,61,72
31620,note_on,,1,0,10,,,,,,,,,,,,,,,,6,,61,72
31620,note_on,,1,0,6,,,,,,,,,,,,,,,,2,,52,72
31620,note_on,,1,0,17,,,,,,,,,,,,,,,,13,,52,72
31620,note_on,,1,0,15,,,,,,,,,,,,,,,,11,,76,72
31620,note_on,,61,0,5,,,,,,,,,,,,,,,,1,,76,72
31620,note_on,,1,0,12,,,,,,,,,,,,,,,,8,,52,72
31620,note_on,,61,0,13,,,,,,,,,,,,,,,,14,,45,72
31620,note_on,,61,0,7,,,,,,,,,,,,,,,,3,,81,72
31649,note_on,,29,0,10,,,,,,,,,,,,,,,,6,,61,0
31649,note_on,,29,0,6,,,,,,,,,,,,,,,,2,,52,0
31649,note_on,,29,0,14,,,,,,,,,,,,,,,,10,,73,0
31649,note_on,,29,0,18,,,,,,,,,,,,,,,,15,,52,0
31649,note_on,,29,0,12,,,,,,,,,,,,,,,,8,,52,0
31649,note_on,,29,0,16,,,,,,,,,,,,,,,,12,,55,0
31649,note_on,,29,0,17,,,,,,,,,,,,,,,,13,,52,0
31650,note_on,,1,0,12,,,,,,,,,,,,,,,,8,,50,72
31650,note_on,,1,0,18,,,,,,,,,,,,,,,,15,,50,72
31650,note_on,,1,0,10,,,,,,,,,,,,,,,,6,,59,72
31650,note_on,,1,0,14,,,,,,,,,,,,,,,,10,,71,72
31650,note_on,,1,0,17,,,,,,,,,,,,,,,,13,,50,72
31650,note_on,,1,0,16,,,,,,,,,,,,,,,,12,,54,72
31650,note_on,,1,0,6,,,,,,,,,,,,,,,,2,,50,72
31679,note_on,,59,0,11,,,,,,,,,,,,,,,,7,,61,0
31679,note_on,,59,0,5,,,,,,,,,,,,,,,,1,,76,0
31679,note_on,,59,0,15,,,,,,,,,,,,,,,,11,,76,0
31679,note_on,,29,0,14,,,,,,,,,,,,,,,,10,,71,0
31679,note_on,,29,0,17,,,,,,,,,,,,,,,,13,,50,0
31679,note_on,,59,0,9,,,,,,,,,,,,,,,,5,,76,0
31679,note_on,,29,0,18,,,,,,,,,,,,,,,,15,,50,0
31679,note_on,,29,0,16,,,,,,,,,,,,,,,,12,,54,0
31679,note_on,,59,0,13,,,,,,,,,,,,,,,,14,,45,0
31679,note_on,,29,0,10,,,,,,,,,,,,,,,,6,,59,0
31679,note_on,,59,0,8,,,,,,,,,,,,,,,,4,,76,0
31679,note_on,,29,0,6,,,,,,,,,,,,,,,,2,,50,0
31679,note_on,,29,0,12,,,,,,,,,,,,,,,,8,,50,0
31679,note_on,,59,0,7,,,,,,,,,,,,,,,,3,,81,0
31680,note_on,,1,0,17,,,,,,,,,,,,,,,,13,,49,72
31680,note_on,,1,0,5,,,,,,,,,,,,,,,,1,,76,72
31680,note_on,,1,0,8,,,,,,,,,,,,,,,,4,,76,72
31680,note_on,,1,0,15,,,,,,,,,,,,,,,,11,,76,72
31680,note_on,,1,0,6,,,,,,,,,,,,,,,,2,,49,72
31680,note_on,,1,0,14,,,,,,,,,,,,,,,,10,,69,72
31680,note_on,,1,0,10,,,,,,,,,,,,,,,,6,,57,72
31680,note_on,,1,0,7,,,,,,,,,,,,,,,,3,,81,72
31680,note_on,,1,0,9,,,,,,,,,,,,,,,,5,,76,72
31680,note_on,,0,0,18,,,,,,,,,,,,,,,,15,,69,72
31680,note_on,,0,0,18,,,,,,,,,,,,,,,,15,,49,72
31680,note_on,,0,0,18,,,,,,,,,,,,,,,,15,,64,72
31680,note_on,,1,0,11,,,,,,,,,,,,,,,,7,,61,72
31680,note_on,,1,0,18,,,,,,,,,,,,,,,,15,,67,72
31680,note_on,,1,0,16,,,,,,,,,,,,,,,,12,,52,72
31680,note_on,,1,0,12,,,,,,,,,,,,,,,,8,,49,72
31680,note_on,,1,0,13,,,,,,,,,,,,,,,,14,,45,72
31680,note_on,,0,0,18,,,,,,,,,,,,,,,,15,,57,72
31709,note_on,,29,0,5,,,,,,,,,,,,,,,,1,,76,0
31709,note_on,,29,0,9,,,,,,,,,,,,,,,,5,,76,0
31709,note_on,,29,0,11,,,,,,,,,,,,,,,,7,,61,0
31709,note_on,,29,0,15,,,,,,,,,,,,,,,,11,,76,0
31710,note_on,,1,0,11,,,,,,,,,,,,,,,,7,,59,72
31710,note_on,,1,0,9,,,,,,,,,,,,,,,,5,,74,72
31710,note_on,,1,0,5,,,,,,,,,,,,,,,,1,,74,72
31710,note_on,,1,0,15,,,,,,,,,,,,,,,,11,,74,72
31739,note_on,,59,0,12,,,,,,,,,,,,,,,,8,,49,0
31739,note_on,,29,0,15,,,,,,,,,,,,,,,,11,,74,0
31739,note_on,,59,0,14,,,,,,,,,,,,,,,,10,,69,0
31739,note_on,,59,0,16,,,,,,,,,,,,,,,,12,,52,0
31739,note_on,,59,0,8,,,,,,,,,,,,,,,,4,,76,0
31739,note_on,,29,0,11,,,,,,,,,,,,,,,,7,,59,0
31739,note_on,,59,0,10,,,,,,,,,,,,,,,,6,,57,0
31739,note_on,,59,0,7,,,,,,,,,,,,,,,,3,,81,0
31739,note_on,,29,0,5,,,,,,,,,,,,,,,,1,,74,0
31739,note_on,,59,0,13,,,,,,,,,,,,,,,,14,,45,0
31739,note_on,,29,0,9,,,,,,,,,,,,,,,,5,,74,0
31740,note_on,,1,0,10,,,,,,,,,,,,,,,,6,,57,72
31740,note_on,,1,0,7,,,,,,,,,,,,,,,,3,,76,72
31740,note_on,,1,0,12,,,,,,,,,,,,,,,,8,,49,72
31740,note_on,,1,0,11,,,,,,,,,,,,,,,,7,,57,72
31740,note_on,,1,0,13,,,,,,,,,,,,,,,,14,,45,72
31740,note_on,,1,0,8,,,,,,,,,,,,,,,,4,,69,72
31740,note_on,,1,0,15,,,,,,,,,,,,,,,,11,,73,72
31740,note_on,,1,0,16,,,,,,,,,,,,,,,,12,,57,72
31740,note_on,,1,0,5,,,,,,,,,,,,,,,,1,,73,72
31740,note_on,,1,0,14,,,,,,,,,,,,,,,,10,,81,72
31740,note_on,,1,0,9,,,,,,,,,,,,,,,,5,,73,72
31769,note_on,,29,0,13,,,,,,,,,,,,,,,,14,,45,0
31769,note_on,,29,0,8,,,,,,,,,,,,,,,,4,,69,0
31769,note_on,,29,0,11,,,,,,,,,,,,,,,,7,,57,0
31769,note_on,,29,0,9,,,,,,,,,,,,,,,,5,,73,0
31769,note_on,,29,0,15,,,,,,,,,,,,,,,,11,,73,0
31769,note_on,,29,0,7,,,,,,,,,,,,,,,,3,,76,0
31769,note_on,,29,0,16,,,,,,,,,,,,,,,,12,,57,0
31769,note_on,,29,0,5,,,,,,,,,,,,,,,,1,,73,0
31770,note_on,,1,0,11,,,,,,,,,,,,,,,,7,,59,72
31770,note_on,,1,0,7,,,,,,,,,,,,,,,,3,,76,72
31770,note_on,,1,0,8,,,,,,,,,,,,,,,,4,,69,72
31770,note_on,,1,0,13,,,,,,,,,,,,,,,,14,,45,72
31770,note_on,,1,0,16,,,,,,,,,,,,,,,,12,,59,72
31770,note_on,,1,0,9,,,,,,,,,,,,,,,,5,,71,72
31770,note_on,,1,0,5,,,,,,,,,,,,,,,,1,,71,72
31770,note_on,,1,0,15,,,,,,,,,,,,,,,,11,,71,72
31799,note_on,,29,0,8,,,,,,,,,,,,,,,,4,,69,0
31799,note_on,,59,0,14,,,,,,,,,,,,,,,,10,,81,0
31799,note_on,,29,0,9,,,,,,,,,,,,,,,,5,,71,0
31799,note_on,,0,0,18,,,,,,,,,,,,,,,,15,,57,0
31799,note_on,,29,0,7,,,,,,,,,,,,,,,,3,,76,0
31799,note_on,,0,0,18,,,,,,,,,,,,,,,,15,,64,0
31799,note_on,,0,0,18,,,,,,,,,,,,,,,,15,,49,0
31799,note_on,,29,0,13,,,,,,,,,,,,,,,,14,,45,0
31799,note_on,,0,0,18,,,,,,,,,,,,,,,,15,,69,0
31799,note_on,,29,0,5,,,,,,,,,,,,,,,,1,,71,0
31799,note_on,,29,0,11,,,,,,,,,,,,,,,,7,,59,0
31799,note_on,,59,0,10,,,,,,,,,,,,,,,,6,,57,0
31799,note_on,,29,0,15,,,,,,,,,,,,,,,,11,,71,0
31799,note_on,,59,0,12,,,,,,,,,,,,,,,,8,,49,0
31799,note_on,,119,0,17,,,,,,,,,,,,,,,,13,,49,0
31799,note_on,,119,0,6,,,,,,,,,,,,,,,,2,,49,0
31799,note_on,,29,0,16,,,,,,,,,,,,,,,,12,,59,0
31799,note_on,,119,0,18,,,,,,,,,,,,,,,,15,,67,0
31800,note_on,,1,0,5,,,,,,,,,,,,,,,,1,,69,72
31800,note_on,,1,0,15,,,,,,,,,,,,,,,,11,,69,72
31800,note_on,,1,0,13,,,,,,,,,,,,,,,,14,,45,72
31800,note_on,,1,0,16,,,,,,,,,,,,,,,,12,,61,72
31800,note_on,,1,0,8,,,,,,,,,,,,,,,,4,,69,72
31800,note_on,,1,0,7,,,,,,,,,,,,,,,,3,,76,72
31800,note_on,,1,0,9,,,,,,,,,,,,,,,,5,,69,72
31800,note_on,,1,0,11,,,,,,,,,,,,,,,,7,,61,72
31829,note_on,,29,0,16,,,,,,,,,,,,,,,,12,,61,0
31830,note_on,,1,0,16,,,,,,,,,,,,,,,,12,,62,72
31859,note_on,,59,0,8,,,,,,,,,,,,,,,,4,,69,0
31859,note_on,,59,0,13,,,,,,,,,,,,,,,,14,,45,0
31859,note_on,,59,0,5,,,,,,,,,,,,,,,,1,,69,0
31859,note_on,,59,0,15,,,,,,,,,,,,,,,,11,,69,0
31859,note_on,,59,0,9,,,,,,,,,,,,,,,,5,,69,0
31859,note_on,,59,0,11,,,,,,,,,,,,,,,,7,,61,0
31859,note_on,,59,0,7,,,,,,,,,,,,,,,,3,,76,0
31859,note_on,,29,0,16,,,,,,,,,,,,,,,,12,,62,0
31860,note_on,,61,0,12,,,,,,,,,,,,,,,,8,,61,72
31860,note_on,,61,0,17,,,,,,,,,,,,,,,,13,,61,72
31860,note_on,,61,0,18,,,,,,,,,,,,,,,,15,,61,72
31860,note_on,,61,0,6,,,,,,,,,,,,,,,,2,,61,72
31860,note_on,,61,0,14,,,,,,,,,,,,,,,,10,,81,72
31860,note_on,,0,0,18,,,,,,,,,,,,,,,,15,,64,72
31860,note_on,,0,0,18,,,,,,,,,,,,,,,,15,,81,72
31860,note_on,,0,0,18,,,,,,,,,,,,,,,,15,,69,72
31860,note_on,,1,0,11,,,,,,,,,,,,,,,,7,,64,72
31860,note_on,,1,0,15,,,,,,,,,,,,,,,,11,,76,72
31860,note_on,,1,0,7,,,,,,,,,,,,,,,,3,,81,72
31860,note_on,,1,0,16,,,,,,,,,,,,,,,,12,,64,72
31860,note_on,,1,0,9,,,,,,,,,,,,,,,,5,,76,72
31860,note_on,,1,0,8,,,,,,,,,,,,,,,,4,,76,72
31860,note_on,,0,0,18,,,,,,,,,,,,,,,,15,,76,72
31860,note_on,,1,0,13,,,,,,,,,,,,,,,,14,,45,72
31860,note_on,,1,0,5,,,,,,,,,,,,,,,,1,,76,72
31860,note_on,,61,0,10,,,,,,,,,,,,,,,,6,,69,72
31889,note_on,,29,0,16,,,,,,,,,,,,,,,,12,,64,0
31890,note_on,,1,0,16,,,,,,,,,,,,,,,,12,,61,72
31919,note_on,,59,0,5,,,,,,,,,,,,,,,,1,,76,0
31919,note_on,,0,0,18,,,,,,,,,,,,,,,,15,,76,0
31919,note_on,,59,0,17,,,,,,,,,,,,,,,,13,,61,0
31919,note_on,,59,0,13,,,,,,,,,,,,,,,,14,,45,0
31919,note_on,,0,0,18,,,,,,,,,,,,,,,,15,,69,0
31919,note_on,,0,0,18,,,,,,,,,,,,,,,,15,,81,0
31919,note_on,,59,0,7,,,,,,,,,,,,,,,,3,,81,0
31919,note_on,,59,0,15,,,,,,,,,,,,,,,,11,,76,0
31919,note_on,,59,0,18,,,,,,,,,,,,,,,,15,,61,0
31919,note_on,,0,0,18,,,,,,,,,,,,,,,,15,,64,0
31919,note_on,,59,0,12,,,,,,,,,,,,,,,,8,,61,0
31919,note_on,,29,0,16,,,,,,,,,,,,,,,,12,,61,0
31919,note_on,,59,0,11,,,,,,,,,,,,,,,,7,,64,0
31919,note_on,,59,0,14,,,,,,,,,,,,,,,,10,,81,0
31919,note_on,,59,0,6,,,,,,,,,,,,,,,,2,,61,0
31919,note_on,,59,0,10,,,,,,,,,,,,,,,,6,,69,0
31919,note_on,,59,0,8,,,,,,,,,,,,,,,,4,,76,0
31919,note_on,,59,0,9,,,,,,,,,,,,,,,,5,,76,0
31920,note_on,,0,0,18,,,,,,,,,,,,,,,,15,,62,72
31920,note_on,,1,0,5,,,,,,,,,,,,,,,,1,,78,72
31920,note_on,,0,0,18,,,,,,,,,,,,,,,,15,,74,72
31920,note_on,,0,0,18,,,,,,,,,,,,,,,,15,,69,72
31920,note_on,,1,0,18,,,,,,,,,,,,,,,,15,,66,72
31920,note_on,,1,0,9,,,,,,,,,,,,,,,,5,,78,72
31920,note_on,,1,0,8,,,,,,,,,,,,,,,,4,,78,72
31920,note_on,,0,0,18,,,,,,,,,,,,,,,,15,,78,72
31920,note_on,,1,0,10,,,,,,,,,,,,,,,,6,,69,72
31920,note_on,,1,0,16,,,,,,,,,,,,,,,,12,,69,72
31920,note_on,,1,0,11,,,,,,,,,,,,,,,,7,,62,72
31920,note_on,,1,0,14,,,,,,,,,,,,,,,,10,,81,72
31920,note_on,,1,0,7,,,,,,,,,,,,,,,,3,,81,72
31920,note_on,,1,0,15,,,,,,,,,,,,,,,,11,,78,72
31920,note_on,,1,0,17,,,,,,,,,,,,,,,,13,,62,72
31920,note_on,,1,0,6,,,,,,,,,,,,,,,,2,,62,72
31920,note_on,,1,0,13,,,,,,,,,,,,,,,,14,,50,72
31920,note_on,,1,0,12,,,,,,,,,,,,,,,,8,,62,72
32039,note_on,,119,0,7,,,,,,,,,,,,,,,,3,,81,0
32039,note_on,,119,0,10,,,,,,,,,,,,,,,,6,,69,0
32039,note_on,,119,0,15,,,,,,,,,,,,,,,,11,,78,0
32039,note_on,,119,0,11,,,,,,,,,,,,,,,,7,,62,0
32039,note_on,,119,0,16,,,,,,,,,,,,,,,,12,,69,0
32039,note_on,,0,0,18,,,,,,,,,,,,,,,,15,,62,0
32039,note_on,,0,0,18,,,,,,,,,,,,,,,,15,,69,0
32039,note_on,,119,0,9,,,,,,,,,,,,,,,,5,,78,0
32039,note_on,,119,0,8,,,,,,,,,,,,,,,,4,,78,0
32039,note_on,,119,0,14,,,,,,,,,,,,,,,,10,,81,0
32039,note_on,,119,0,6,,,,,,,,,,,,,,,,2,,62,0
32039,note_on,,119,0,12,,,,,,,,,,,,,,,,8,,62,0
32039,note_on,,119,0,13,,,,,,,,,,,,,,,,14,,50,0
32039,note_on,,119,0,18,,,,,,,,,,,,,,,,15,,66,0
32039,note_on,,119,0,17,,,,,,,,,,,,,,,,13,,62,0
32039,note_on,,0,0,18,,,,,,,,,,,,,,,,15,,78,0
32039,note_on,,0,0,18,,,,,,,,,,,,,,,,15,,74,0
32039,note_on,,119,0,5,,,,,,,,,,,,,,,,1,,78,0
32040,note_on,,0,0,18,,,,,,,,,,,,,,,,15,,79,72
32040,note_on,,1,0,17,,,,,,,,,,,,,,,,13,,59,72
32040,note_on,,0,0,18,,,,,,,,,,,,,,,,15,,71,72
32040,note_on,,1,0,15,,,,,,,,,,,,,,,,11,,79,72
32040,note_on,,1,0,7,,,,,,,,,,,,,,,,3,,79,72
32040,note_on,,1,0,13,,,,,,,,,,,,,,,,14,,50,72
32040,note_on,,1,0,18,,,,,,,,,,,,,,,,15,,62,72
32040,note_on,,1,0,16,,,,,,,,,,,,,,,,12,,62,72
32040,note_on,,1,0,8,,,,,,,,,,,,,,,,4,,74,72
32040,note_on,,1,0,9,,,,,,,,,,,,,,,,5,,79,72
32040,note_on,,0,0,18,,,,,,,,,,,,,,,,15,,74,72
32040,note_on,,1,0,10,,,,,,,,,,,,,,,,6,,67,72
32040,note_on,,0,0,18,,,,,,,,,,,,,,,,15,,59,72
32040,note_on,,1,0,5,,,,,,,,,,,,,,,,1,,79,72
32040,note_on,,1,0,11,,,,,,,,,,,,,,,,7,,62,72
32040,note_on,,1,0,14,,,,,,,,,,,,,,,,10,,83,72
32040,note_on,,1,0,12,,,,,,,,,,,,,,,,8,,59,72
32040,note_on,,1,0,6,,,,,,,,,,,,,,,,2,,59,72
32099,note_on,,59,0,8,,,,,,,,,,,,,,,,4,,74,0
32099,note_on,,59,0,5,,,,,,,,,,,,,,,,1,,79,0
32099,note_on,,59,0,10,,,,,,,,,,,,,,,,6,,67,0
32099,note_on,,59,0,11,,,,,,,,,,,,,,,,7,,62,0
32099,note_on,,59,0,9,,,,,,,,,,,,,,,,5,,79,0
32099,note_on,,59,0,6,,,,,,,,,,,,,,,,2,,59,0
32099,note_on,,59,0,17,,,,,,,,,,,,,,,,13,,59,0
32099,note_on,,59,0,16,,,,,,,,,,,,,,,,12,,62,0
32099,note_on,,59,0,14,,,,,,,,,,,,,,,,10,,83,0
32099,note_on,,0,0,18,,,,,,,,,,,,,,,,15,,79,0
32099,note_on,,0,0,18,,,,,,,,,,,,,,,,15,,74,0
32099,note_on,,0,0,18,,,,,,,,,,,,,,,,15,,59,0
32099,note_on,,0,0,18,,,,,,,,,,,,,,,,15,,71,0
32099,note_on,,59,0,18,,,,,,,,,,,,,,,,15,,62,0
32099,note_on,,59,0,15,,,,,,,,,,,,,,,,11,,79,0
32099,note_on,,59,0,13,,,,,,,,,,,,,,,,14,,50,0
32099,note_on,,59,0,7,,,,,,,,,,,,,,,,3,,79,0
32099,note_on,,59,0,12,,,,,,,,,,,,,,,,8,,59,0
32100,note_on,,1,0,11,,,,,,,,,,,,,,,,7,,62,72
32100,note_on,,0,0,18,,,,,,,,,,,,,,,,15,,64,72
32100,note_on,,1,0,5,,,,,,,,,,,,,,,,1,,76,72
32100,note_on,,0,0,18,,,,,,,,,,,,,,,,15,,79,72
32100,note_on,,1,0,18,,,,,,,,,,,,,,,,15,,83,72
32100,note_on,,1,0,15,,,,,,,,,,,,,,,,11,,76,72
32100,note_on,,1,0,10,,,,,,,,,,,,,,,,6,,71,72
32100,note_on,,1,0,12,,,,,,,,,,,,,,,,8,,55,72
32100,note_on,,0,0,18,,,,,,,,,,,,,,,,15,,74,72
32100,note_on,,1,0,8,,,,,,,,,,,,,,,,4,,76,72
32100,note_on,,0,0,18,,,,,,,,,,,,,,,,15,,55,72
32100,note_on,,1,0,9,,,,,,,,,,,,,,,,5,,76,72
32100,note_on,,1,0,16,,,,,,,,,,,,,,,,12,,71,72
32100,note_on,,1,0,6,,,,,,,,,,,,,,,,2,,55,72
32100,note_on,,1,0,14,,,,,,,,,,,,,,,,10,,86,72
32100,note_on,,1,0,7,,,,,,,,,,,,,,,,3,,76,72
32100,note_on,,1,0,13,,,,,,,,,,,,,,,,14,,50,72
32100,note_on,,1,0,17,,,,,,,,,,,,,,,,13,,55,72
32159,note_on,,59,0,9,,,,,,,,,,,,,,,,5,,76,0
32159,note_on,,59,0,14,,,,,,,,,,,,,,,,10,,86,0
32159,note_on,,59,0,17,,,,,,,,,,,,,,,,13,,55,0
32159,note_on,,59,0,18,,,,,,,,,,,,,,,,15,,83,0
32159,note_on,,0,0,18,,,,,,,,,,,,,,,,15,,55,0
32159,note_on,,0,0,18,,,,,,,,,,,,,,,,15,,74,0
32159,note_on,,59,0,10,,,,,,,,,,,,,,,,6,,71,0
32159,note_on,,59,0,12,,,,,,,,,,,,,,,,8,,55,0
32159,note_on,,59,0,6,,,,,,,,,,,,,,,,2,,55,0
32159,note_on,,59,0,11,,,,,,,,,,,,,,,,7,,62,0
32159,note_on,,0,0,18,,,,,,,,,,,,,,,,15,,79,0
32159,note_on,,0,0,18,,,,,,,,,,,,,,,,15,,64,0
32159,note_on,,59,0,16,,,,,,,,,,,,,,,,12,,71,0
32159,note_on,,59,0,5,,,,,,,,,,,,,,,,1,,76,0
32159,note_on,,59,0,15,,,,,,,,,,,,,,,,11,,76,0
32159,note_on,,59,0,13,,,,,,,,,,,,,,,,14,,50,0
32159,note_on,,59,0,7,,,,,,,,,,,,,,,,3,,76,0
32159,note_on,,59,0,8,,,,,,,,,,,,,,,,4,,76,0
32160,note_on,,1,0,18,,,,,,,,,,,,,,,,15,,62,72
32160,note_on,,1,0,7,,,,,,,,,,,,,,,,3,,78,72
32160,note_on,,0,0,18,,,,,,,,,,,,,,,,15,,66,72
32160,note_on,,0,0,18,,,,,,,,,,,,,,,,15,,69,72
32160,note_on,,0,0,18,,,,,,,,,,,,,,,,15,,74,72
32160,note_on,,0,0,18,,,,,,,,,,,,,,,,15,,57,72
32160,note_on,,1,0,16,,,,,,,,,,,,,,,,12,,69,72
32160,note_on,,1,0,14,,,,,,,,,,,,,,,,10,,86,72
32160,note_on,,1,0,11,,,,,,,,,,,,,,,,7,,62,72
32160,note_on,,1,0,8,,,,,,,,,,,,,,,,4,,74,72
32160,note_on,,1,0,12,,,,,,,,,,,,,,,,8,,57,72
32160,note_on,,1,0,9,,,,,,,,,,,,,,,,5,,78,72
32160,note_on,,1,0,10,,,,,,,,,,,,,,,,6,,69,72
32160,note_on,,1,0,15,,,,,,,,,,,,,,,,11,,78,72
32160,note_on,,1,0,13,,,,,,,,,,,,,,,,14,,45,72
32160,note_on,,1,0,5,,,,,,,,,,,,,,,,1,,78,72
32160,note_on,,1,0,6,,,,,,,,,,,,,,,,2,,57,72
32160,note_on,,1,0,17,,,,,,,,,,,,,,,,13,,57,72
32279,note_on,,119,0,9,,,,,,,,,,,,,,,,5,,78,0
32279,note_on,,119,0,6,,,,,,,,,,,,,,,,2,,57,0
32279,note_on,,119,0,14,,,,,,,,,,,,,,,,10,,86,0
32279,note_on,,0,0,18,,,,,,,,,,,,,,,,15,,69,0
32279,note_on,,0,0,18,,,,,,,,,,,,,,,,15,,66,0
32279,note_on,,0,0,18,,,,,,,,,,,,,,,,15,,74,0
32279,note_on,,119,0,18,,,,,,,,,,,,,,,,15,,62,0
32279,note_on,,119,0,11,,,,,,,,,,,,,,,,7,,62,0
32279,note_on,,119,0,8,,,,,,,,,,,,,,,,4,,74,0
32279,note_on,,119,0,7,,,,,,,,,,,,,,,,3,,78,0
32279,note_on,,119,0,15,,,,,,,,,,,,,,,,11,,78,0
32279,note_on,,119,0,17,,,,,,,,,,,,,,,,13,,57,0
32279,note_on,,119,0,5,,,,,,,,,,,,,,,,1,,78,0
32279,note_on,,119,0,16,,,,,,,,,,,,,,,,12,,69,0
32279,note_on,,0,0,18,,,,,,,,,,,,,,,,15,,57,0
32279,note_on,,119,0,13,,,,,,,,,,,,,,,,14,,45,0
32280,note_on,,1,0,13,,,,,,,,,,,,,,,,14,,45,72
32280,note_on,,0,0,18,,,,,,,,,,,,,,,,15,,57,72
32280,note_on,,1,0,6,,,,,,,,,,,,,,,,2,,45,72
32280,note_on,,1,0,17,,,,,,,,,,,,,,,,13,,45,72
32280,note_on,,1,0,7,,,,,,,,,,,,,,,,3,,76,72
32280,note_on,,0,0,18,,,,,,,,,,,,,,,,15,,73,72
32280,note_on,,0,0,18,,,,,,,,,,,,,,,,15,,45,72
32280,note_on,,1,0,18,,,,,,,,,,,,,,,,15,,64,72
32280,note_on,,1,0,5,,,,,,,,,,,,,,,,1,,76,72
32280,note_on,,1,0,9,,,,,,,,,,,,,,,,5,,76,72
32280,note_on,,1,0,14,,,,,,,,,,,,,,,,10,,85,72
32280,note_on,,1,0,11,,,,,,,,,,,,,,,,7,,61,72
32280,note_on,,1,0,8,,,,,,,,,,,,,,,,4,,69,72
32280,note_on,,1,0,15,,,,,,,,,,,,,,,,11,,76,72
32280,note_on,,1,0,16,,,,,,,,,,,,,,,,12,,69,72
32280,note_on,,0,0,18,,,,,,,,,,,,,,,,15,,69,72
32369,note_on,,89,0,5,,,,,,,,,,,,,,,,1,,76,0
32369,note_on,,89,0,7,,,,,,,,,,,,,,,,3,,76,0
32369,note_on,,89,0,9,,,,,,,,,,,,,,,,5,,76,0
32369,note_on,,89,0,8,,,,,,,,,,,,,,,,4,,69,0
32369,note_on,,89,0,13,,,,,,,,,,,,,,,,14,,45,0
32370,note_on,,1,0,5,,,,,,,,,,,,,,,,1,,74,72
32370,note_on,,1,0,8,,,,,,,,,,,,,,,,4,,69,72
32370,note_on,,1,0,7,,,,,,,,,,,,,,,,3,,74,72
32370,note_on,,1,0,13,,,,,,,,,,,,,,,,14,,45,72
32370,note_on,,1,0,9,,,,,,,,,,,,,,,,5,,74,72
32399,note_on,,29,0,7,,,,,,,,,,,,,,,,3,,74,0
32399,note_on,,119,0,14,,,,,,,,,,,,,,,,10,,85,0
32399,note_on,,0,0,18,,,,,,,,,,,,,,,,15,,69,0
32399,note_on,,29,0,8,,,,,,,,,,,,,,,,4,,69,0
32399,note_on,,0,0,18,,,,,,,,,,,,,,,,15,,57,0
32399,note_on,,0,0,18,,,,,,,,,,,,,,,,15,,45,0
32399,note_on,,0,0,18,,,,,,,,,,,,,,,,15,,73,0
32399,note_on,,119,0,18,,,,,,,,,,,,,,,,15,,64,0
32399,note_on,,119,0,17,,,,,,,,,,,,,,,,13,,45,0
32399,note_on,,119,0,6,,,,,,,,,,,,,,,,2,,45,0
32399,note_on,,119,0,16,,,,,,,,,,,,,,,,12,,69,0
32399,note_on,,29,0,9,,,,,,,,,,,,,,,,5,,74,0
32399,note_on,,239,0,12,,,,,,,,,,,,,,,,8,,57,0
32399,note_on,,239,0,10,,,,,,,,,,,,,,,,6,,69,0
32399,note_on,,29,0,13,,,,,,,,,,,,,,,,14,,45,0
32399,note_on,,119,0,15,,,,,,,,,,,,,,,,11,,76,0
32399,note_on,,119,0,11,,,,,,,,,,,,,,,,7,,61,0
32399,note_on,,29,0,5,,,,,,,,,,,,,,,,1,,74,0
32400,note_on,,1,0,10,,,,,,,,,,,,,,,,6,,69,72
32400,note_on,,1,0,8,,,,,,,,,,,,,,,,4,,66,72
32400,note_on,,0,0,18,,,,,,,,,,,,,,,,15,,74,72
32400,note_on,,0,0,18,,,,,,,,,,,,,,,,15,,69,72
32400,note_on,,0,0,18,,,,,,,,,,,,,,,,15,,78,72
32400,note_on,,1,0,18,,,,,,,,,,,,,,,,15,,50,72
32400,note_on,,1,0,9,,,,,,,,,,,,,,,,5,,74,72
32400,note_on,,1,0,11,,,,,,,,,,,,,,,,7,,66,72
32400,note_on,,0,0,18,,,,,,,,,,,,,,,,15,,57,72
32400,note_on,,1,0,5,,,,,,,,,,,,,,,,1,,74,72
32400,note_on,,1,0,12,,,,,,,,,,,,,,,,8,,50,72
32400,note_on,,1,0,15,,,,,,,,,,,,,,,,11,,78,72
32400,note_on,,1,0,17,,,,,,,,,,,,,,,,13,,50,72
32400,note_on,,1,0,7,,,,,,,,,,,,,,,,3,,74,72
32400,note_on,,1,0,13,,,,,,,,,,,,,,,,14,,50,72
32400,note_on,,1,0,16,,,,,,,,,,,,,,,,12,,69,72
32400,note_on,,1,0,14,,,,,,,,,,,,,,,,10,,86,72
32400,note_on,,1,0,6,,,,,,,,,,,,,,,,2,,50,72
32519,note_on,,119,0,10,,,,,,,,,,,,,,,,6,,69,0
32519,note_on,,119,0,12,,,,,,,,,,,,,,,,8,,50,0
32519,note_on,,119,0,11,,,,,,,,,,,,,,,,7,,66,0
32519,note_on,,119,0,9,,,,,,,,,,,,,,,,5,,74,0
32519,note_on,,119,0,15,,,,,,,,,,,,,,,,11,,78,0
32519,note_on,,119,0,7,,,,,,,,,,,,,,,,3,,74,0
32519,note_on,,119,0,13,,,,,,,,,,,,,,,,14,,50,0
32519,note_on,,119,0,5,,,,,,,,,,,,,,,,1,,74,0
32519,note_on,,119,0,14,,,,,,,,,,,,,,,,10,,86,0
32519,note_on,,0,0,18,,,,,,,,,,,,,,,,15,,57,0
32519,note_on,,119,0,16,,,,,,,,,,,,,,,,12,,69,0
32519,note_on,,0,0,18,,,,,,,,,,,,,,,,15,,74,0
32519,note_on,,0,0,18,,,,,,,,,,,,,,,,15,,69,0
32519,note_on,,119,0,8,,,,,,,,,,,,,,,,4,,66,0
32519,note_on,,0,0,18,,,,,,,,,,,,,,,,15,,78,0
32519,note_on,,119,0,18,,,,,,,,,,,,,,,,15,,50,0
32519,note_on,,119,0,6,,,,,,,,,,,,,,,,2,,50,0
32519,note_on,,119,0,17,,,,,,,,,,,,,,,,13,,50,0
32520,set_tempo,,21480,1,0,,,,,,,,,1090909,,,,,,,,,,
32580,note_on,,61,0,6,,,,,,,,,,,,,,,,2,,57,72
32580,note_on,,0,0,18,,,,,,,,,,,,,,,,15,,69,72
32580,note_on,,61,0,7,,,,,,,,,,,,,,,,3,,76,72
32580,note_on,,61,0,17,,,,,,,,,,,,,,,,13,,57,72
32580,note_on,,61,0,12,,,,,,,,,,,,,,,,8,,57,72
32580,note_on,,61,0,16,,,,,,,,,,,,,,,,12,,69,72
32580,note_on,,61,0,13,,,,,,,,,,,,,,,,14,,45,72
32580,note_on,,61,0,15,,,,,,,,,,,,,,,,11,,73,72
32580,note_on,,0,0,18,,,,,,,,,,,,,,,,15,,57,72
32580,note_on,,0,0,18,,,,,,,,,,,,,,,,15,,61,72
32580,note_on,,0,0,18,,,,,,,,,,,,,,,,15,,73,72
32580,note_on,,61,0,8,,,,,,,,,,,,,,,,4,,69,72
32580,note_on,,61,0,14,,,,,,,,,,,,,,,,10,,76,72
32580,note_on,,61,0,10,,,,,,,,,,,,,,,,6,,69,72
32580,note_on,,61,0,5,,,,,,,,,,,,,,,,1,,73,72
32580,note_on,,61,0,9,,,,,,,,,,,,,,,,5,,73,72
32580,note_on,,61,0,18,,,,,,,,,,,,,,,,15,,76,72
32580,note_on,,61,0,11,,,,,,,,,,,,,,,,7,,64,72
32639,note_on,,0,0,18,,,,,,,,,,,,,,,,15,,61,0
32639,note_on,,59,0,8,,,,,,,,,,,,,,,,4,,69,0
32639,note_on,,59,0,6,,,,,,,,,,,,,,,,2,,57,0
32639,note_on,,59,0,16,,,,,,,,,,,,,,,,12,,69,0
32639,note_on,,59,0,14,,,,,,,,,,,,,,,,10,,76,0
32639,note_on,,0,0,18,,,,,,,,,,,,,,,,15,,57,0
32639,note_on,,59,0,15,,,,,,,,,,,,,,,,11,,73,0
32639,note_on,,59,0,12,,,,,,,,,,,,,,,,8,,57,0
32639,note_on,,59,0,18,,,,,,,,,,,,,,,,15,,76,0
32639,note_on,,59,0,7,,,,,,,,,,,,,,,,3,,76,0
32639,note_on,,59,0,5,,,,,,,,,,,,,,,,1,,73,0
32639,note_on,,0,0,18,,,,,,,,,,,,,,,,15,,73,0
32639,note_on,,0,0,18,,,,,,,,,,,,,,,,15,,69,0
32639,note_on,,59,0,17,,,,,,,,,,,,,,,,13,,57,0
32639,note_on,,59,0,13,,,,,,,,,,,,,,,,14,,45,0
32639,note_on,,59,0,9,,,,,,,,,,,,,,,,5,,73,0
32639,note_on,,59,0,11,,,,,,,,,,,,,,,,7,,64,0
32639,note_on,,59,0,10,,,,,,,,,,,,,,,,6,,69,0
32640,note_on,,1,0,5,,,,,,,,,,,,,,,,1,,74,72
32640,note_on,,0,0,18,,,,,,,,,,,,,,,,15,,74,72
32640,note_on,,0,0,18,,,,,,,,,,,,,,,,15,,78,72
32640,note_on,,0,0,18,,,,,,,,,,,,,,,,15,,69,72
32640,note_on,,0,0,18,,,,,,,,,,,,,,,,15,,62,72
32640,note_on,,1,0,18,,,,,,,,,,,,,,,,15,,66,72
32640,note_on,,1,0,14,,,,,,,,,,,,,,,,10,,78,72
32640,note_on,,1,0,9,,,,,,,,,,,,,,,,5,,74,72
32640,note_on,,1,0,16,,,,,,,,,,,,,,,,12,,66,72
32640,note_on,,1,0,11,,,,,,,,,,,,,,,,7,,66,72
32640,note_on,,1,0,10,,,,,,,,,,,,,,,,6,,69,72
32640,note_on,,1,0,17,,,,,,,,,,,,,,,,13,,62,72
32640,note_on,,1,0,15,,,,,,,,,,,,,,,,11,,69,72
32640,note_on,,1,0,13,,,,,,,,,,,,,,,,14,,50,72
32640,note_on,,1,0,6,,,,,,,,,,,,,,,,2,,62,72
32640,note_on,,1,0,8,,,,,,,,,,,,,,,,4,,69,72
32640,note_on,,1,0,12,,,,,,,,,,,,,,,,8,,62,72
32640,note_on,,1,0,7,,,,,,,,,,,,,,,,3,,78,72
32879,note_on,,239,0,10,,,,,,,,,,,,,,,,6,,69,0
32879,note_on,,239,0,17,,,,,,,,,,,,,,,,13,,62,0
32879,note_on,,0,0,18,,,,,,,,,,,,,,,,15,,62,0
32879,note_on,,239,0,12,,,,,,,,,,,,,,,,8,,62,0
32879,note_on,,239,0,5,,,,,,,,,,,,,,,,1,,74,0
32879,note_on,,239,0,16,,,,,,,,,,,,,,,,12,,66,0
32879,note_on,,239,0,11,,,,,,,,,,,,,,,,7,,66,0
32879,note_on,,0,0,18,,,,,,,,,,,,,,,,15,,74,0
32879,note_on,,239,0,14,,,,,,,,,,,,,,,,10,,78,0
32879,note_on,,239,0,6,,,,,,,,,,,,,,,,2,,62,0
32879,note_on,,0,0,18,,,,,,,,,,,,,,,,15,,78,0
32879,note_on,,239,0,8,,,,,,,,,,,,,,,,4,,69,0
32879,note_on,,239,0,18,,,,,,,,,,,,,,,,15,,66,0
32879,note_on,,239,0,9,,,,,,,,,,,,,,,,5,,74,0
32879,note_on,,239,0,15,,,,,,,,,,,,,,,,11,,69,0
32879,note_on,,0,0,18,,,,,,,,,,,,,,,,15,,69,0
32879,note_on,,239,0,13,,,,,,,,,,,,,,,,14,,50,0
32879,note_on,,239,0,7,,,,,,,,,,,,,,,,3,,78,0
32880,note_on,,1,0,7,,,,,,,,,,,,,,,,3,,81,72
32880,note_on,,1,0,12,,,,,,,,,,,,,,,,8,,61,72
32880,note_on,,1,0,9,,,,,,,,,,,,,,,,5,,76,72
32880,note_on,,1,0,17,,,,,,,,,,,,,,,,13,,61,72
32880,note_on,,0,0,18,,,,,,,,,,,,,,,,15,,61,72
32880,note_on,,0,0,18,,,,,,,,,,,,,,,,15,,76,72
32880,note_on,,0,0,18,,,,,,,,,,,,,,,,15,,64,72
32880,note_on,,1,0,18,,,,,,,,,,,,,,,,15,,69,72
32880,note_on,,1,0,11,,,,,,,,,,,,,,,,7,,64,72
32880,note_on,,1,0,16,,,,,,,,,,,,,,,,12,,64,72
32880,note_on,,0,0,18,,,,,,,,,,,,,,,,15,,81,72
32880,note_on,,1,0,14,,,,,,,,,,,,,,,,10,,81,72
32880,note_on,,1,0,5,,,,,,,,,,,,,,,,1,,76,72
32880,note_on,,1,0,6,,,,,,,,,,,,,,,,2,,61,72
32880,note_on,,1,0,10,,,,,,,,,,,,,,,,6,,69,72
32880,note_on,,1,0,13,,,,,,,,,,,,,,,,14,,45,72
32880,note_on,,1,0,8,,,,,,,,,,,,,,,,4,,76,72
32880,note_on,,1,0,15,,,,,,,,,,,,,,,,11,,76,72
32999,note_on,,119,0,5,,,,,,,,,,,,,,,,1,,76,0
32999,note_on,,119,0,10,,,,,,,,,,,,,,,,6,,69,0
32999,note_on,,119,0,12,,,,,,,,,,,,,,,,8,,61,0
32999,note_on,,119,0,9,,,,,,,,,,,,,,,,5,,76,0
32999,note_on,,119,0,7,,,,,,,,,,,,,,,,3,,81,0
32999,note_on,,119,0,17,,,,,,,,,,,,,,,,13,,61,0
32999,note_on,,119,0,13,,,,,,,,,,,,,,,,14,,45,0
32999,note_on,,119,0,11,,,,,,,,,,,,,,,,7,,64,0
32999,note_on,,119,0,15,,,,,,,,,,,,,,,,11,,76,0
32999,note_on,,119,0,14,,,,,,,,,,,,,,,,10,,81,0
32999,note_on,,119,0,6,,,,,,,,,,,,,,,,2,,61,0
32999,note_on,,119,0,8,,,,,,,,,,,,,,,,4,,76,0
32999,note_on,,119,0,16,,,,,,,,,,,,,,,,12,,64,0
32999,note_on,,119,0,18,,,,,,,,,,,,,,,,15,,61,0
33000,note_on,,1,0,9,,,,,,,,,,,,,,,,5,,76,72
33000,note_on,,1,0,11,,,,,,,,,,,,,,,,7,,64,72
33000,note_on,,1,0,14,,,,,,,,,,,,,,,,10,,81,72
33000,note_on,,1,0,6,,,,,,,,,,,,,,,,2,,61,72
33000,note_on,,1,0,8,,,,,,,,,,,,,,,,4,,76,72
33000,note_on,,1,0,7,,,,,,,,,,,,,,,,3,,81,72
33000,note_on,,1,0,5,,,,,,,,,,,,,,,,1,,76,72
33000,note_on,,1,0,13,,,,,,,,,,,,,,,,14,,45,72
33000,note_on,,1,0,18,,,,,,,,,,,,,,,,15,,61,72
33000,note_on,,1,0,12,,,,,,,,,,,,,,,,8,,61,72
33000,note_on,,1,0,16,,,,,,,,,,,,,,,,12,,69,72
33000,note_on,,1,0,15,,,,,,,,,,,,,,,,11,,76,72
33000,note_on,,1,0,17,,,,,,,,,,,,,,,,13,,61,72
33000,note_on,,1,0,10,,,,,,,,,,,,,,,,6,,69,72
33119,note_on,,119,0,15,,,,,,,,,,,,,,,,11,,76,0
33119,note_on,,0,0,18,,,,,,,,,,,,,,,,15,,61,0
33119,note_on,,119,0,9,,,,,,,,,,,,,,,,5,,76,0
33119,note_on,,119,0,14,,,,,,,,,,,,,,,,10,,81,0
33119,note_on,,119,0,6,,,,,,,,,,,,,,,,2,,61,0
33119,note_on,,119,0,7,,,,,,,,,,,,,,,,3,,81,0
33119,note_on,,0,0,18,,,,,,,,,,,,,,,,15,,81,0
33119,note_on,,0,0,18,,,,,,,,,,,,,,,,15,,76,0
33119,note_on,,119,0,11,,,,,,,,,,,,,,,,7,,64,0
33119,note_on,,119,0,8,,,,,,,,,,,,,,,,4,,76,0
33119,note_on,,119,0,13,,,,,,,,,,,,,,,,14,,45,0
33119,note_on,,119,0,16,,,,,,,,,,,,,,,,12,,69,0
33119,note_on,,119,0,12,,,,,,,,,,,,,,,,8,,61,0
33119,note_on,,0,0,18,,,,,,,,,,,,,,,,15,,64,0
33119,note_on,,119,0,10,,,,,,,,,,,,,,,,6,,69,0
33119,note_on,,119,0,18,,,,,,,,,,,,,,,,15,,69,0
33119,note_on,,119,0,5,,,,,,,,,,,,,,,,1,,76,0
33119,note_on,,119,0,17,,,,,,,,,,,,,,,,13,,61,0
33120,note_on,,1,0,5,,,,,,,,,,,,,,,,1,,74,72
33120,note_on,,0,0,18,,,,,,,,,,,,,,,,15,,69,72
33120,note_on,,1,0,7,,,,,,,,,,,,,,,,3,,81,72
33120,note_on,,0,0,18,,,,,,,,,,,,,,,,15,,59,72
33120,note_on,,1,0,9,,,,,,,,,,,,,,,,5,,74,72
33120,note_on,,1,0,16,,,,,,,,,,,,,,,,12,,71,72
33120,note_on,,1,0,18,,,,,,,,,,,,,,,,15,,71,72
33120,note_on,,1,0,13,,,,,,,,,,,,,,,,14,,50,72
33120,note_on,,1,0,15,,,,,,,,,,,,,,,,11,,74,72
33120,note_on,,0,0,18,,,,,,,,,,,,,,,,15,,66,72
33120,note_on,,1,0,12,,,,,,,,,,,,,,,,8,,59,72
33120,note_on,,1,0,14,,,,,,,,,,,,,,,,10,,81,72
33120,note_on,,1,0,6,,,,,,,,,,,,,,,,2,,59,72
33120,note_on,,0,0,18,,,,,,,,,,,,,,,,15,,74,72
33120,note_on,,1,0,8,,,,,,,,,,,,,,,,4,,74,72
33120,note_on,,1,0,17,,,,,,,,,,,,,,,,13,,59,72
33120,note_on,,1,0,11,,,,,,,,,,,,,,,,7,,66,72
33120,note_on,,1,0,10,,,,,,,,,,,,,,,,6,,69,72
33359,note_on,,239,0,10,,,,,,,,,,,,,,,,6,,69,0
33359,note_on,,239,0,14,,,,,,,,,,,,,,,,10,,81,0
33359,note_on,,239,0,7,,,,,,,,,,,,,,,,3,,81,0
33359,note_on,,0,0,18,,,,,,,,,,,,,,,,15,,66,0
33359,note_on,,239,0,11,,,,,,,,,,,,,,,,7,,66,0
33359,note_on,,239,0,18,,,,,,,,,,,,,,,,15,,69,0
33360,note_on,,1,0,18,,,,,,,,,,,,,,,,15,,62,72
33360,note_on,,0,0,18,,,,,,,,,,,,,,,,15,,68,72
33360,note_on,,1,0,14,,,,,,,,,,,,,,,,10,,80,72
33360,note_on,,1,0,11,,,,,,,,,,,,,,,,7,,62,72
33360,note_on,,1,0,7,,,,,,,,,,,,,,,,3,,80,72
33360,note_on,,1,0,10,,,,,,,,,,,,,,,,6,,68,72
33479,note_on,,359,0,13,,,,,,,,,,,,,,,,14,,50,0
33480,note_on,,1,0,13,,,,,,,,,,,,,,,,14,,50,72
33599,note_on,,239,0,14,,,,,,,,,,,,,,,,10,,80,0
33599,note_on,,0,0,18,,,,,,,,,,,,,,,,15,,74,0
33599,note_on,,0,0,18,,,,,,,,,,,,,,,,15,,59,0
33599,note_on,,239,0,18,,,,,,,,,,,,,,,,15,,71,0
33599,note_on,,239,0,7,,,,,,,,,,,,,,,,3,,80,0
33599,note_on,,0,0,18,,,,,,,,,,,,,,,,15,,68,0
33599,note_on,,0,0,18,,,,,,,,,,,,,,,,15,,62,0
33599,note_on,,479,0,12,,,,,,,,,,,,,,,,8,,59,0
33599,note_on,,479,0,9,,,,,,,,,,,,,,,,5,,74,0
33599,note_on,,479,0,17,,,,,,,,,,,,,,,,13,,59,0
33599,note_on,,479,0,15,,,,,,,,,,,,,,,,11,,74,0
33599,note_on,,119,0,13,,,,,,,,,,,,,,,,14,,50,0
33599,note_on,,239,0,10,,,,,,,,,,,,,,,,6,,68,0
33599,note_on,,479,0,5,,,,,,,,,,,,,,,,1,,74,0
33599,note_on,,239,0,11,,,,,,,,,,,,,,,,7,,62,0
33599,note_on,,479,0,6,,,,,,,,,,,,,,,,2,,59,0
33599,note_on,,479,0,16,,,,,,,,,,,,,,,,12,,71,0
33599,note_on,,479,0,8,,,,,,,,,,,,,,,,4,,74,0
33600,note_on,,1,0,17,,,,,,,,,,,,,,,,13,,57,72
33600,note_on,,0,0,18,,,,,,,,,,,,,,,,15,,64,72
33600,note_on,,0,0,18,,,,,,,,,,,,,,,,15,,76,72
33600,note_on,,1,0,6,,,,,,,,,,,,,,,,2,,57,72
33600,note_on,,1,0,18,,,,,,,,,,,,,,,,15,,69,72
33600,note_on,,1,0,10,,,,,,,,,,,,,,,,6,,69,72
33600,note_on,,1,0,8,,,,,,,,,,,,,,,,4,,76,72
33600,set_tempo,,1080,1,0,,,,,,,,,480000,,,,,,,,,,
33600,note_on,,1,0,7,,,,,,,,,,,,,,,,3,,81,72
33600,note_on,,1,0,12,,,,,,,,,,,,,,,,8,,57,72
33600,note_on,,1,0,9,,,,,,,,,,,,,,,,5,,73,72
33600,note_on,,1,0,15,,,,,,,,,,,,,,,,11,,73,72
33600,note_on,,1,0,13,,,,,,,,,,,,,,,,14,,45,72
33600,time_signature,,0,1,0,,,,,,,,,,8,4,24,8,,,,,,
33600,note_on,,1,0,5,,,,,,,,,,,,,,,,1,,73,72
33600,note_on,,1,0,11,,,,,,,,,,,,,,,,7,,64,72
33600,note_on,,1,0,14,,,,,,,,,,,,,,,,10,,81,72
33600,note_on,,0,0,18,,,,,,,,,,,,,,,,15,,57,72
33600,note_on,,0,0,18,,,,,,,,,,,,,,,,15,,73,72
33600,note_on,,1,0,16,,,,,,,,,,,,,,,,12,,64,72
33614,note_on,,14,0,13,,,,,,,,,,,,,,,,14,,45,0
33615,note_on,,1,0,13,,,,,,,,,,,,,,,,14,,45,72
33629,note_on,,14,0,13,,,,,,,,,,,,,,,,14,,45,0
33630,note_on,,1,0,13,,,,,,,,,,,,,,,,14,,45,72
33644,note_on,,14,0,13,,,,,,,,,,,,,,,,14,,45,0
33645,note_on,,1,0,13,,,,,,,,,,,,,,,,14,,45,72
33659,note_on,,14,0,13,,,,,,,,,,,,,,,,14,,45,0
33660,note_on,,1,0,13,,,,,,,,,,,,,,,,14,,45,72
33674,note_on,,14,0,13,,,,,,,,,,,,,,,,14,,45,0
33675,note_on,,1,0,13,,,,,,,,,,,,,,,,14,,45,72
33689,note_on,,14,0,13,,,,,,,,,,,,,,,,14,,45,0
33690,note_on,,1,0,13,,,,,,,,,,,,,,,,14,,45,72
33704,note_on,,14,0,13,,,,,,,,,,,,,,,,14,,45,0
33705,note_on,,1,0,13,,,,,,,,,,,,,,,,14,,45,72
33719,note_on,,14,0,13,,,,,,,,,,,,,,,,14,,45,0
33720,note_on,,1,0,13,,,,,,,,,,,,,,,,14,,45,72
33734,note_on,,14,0,13,,,,,,,,,,,,,,,,14,,45,0
33735,note_on,,1,0,13,,,,,,,,,,,,,,,,14,,45,72
33749,note_on,,14,0,13,,,,,,,,,,,,,,,,14,,45,0
33750,note_on,,1,0,13,,,,,,,,,,,,,,,,14,,45,72
33764,note_on,,14,0,13,,,,,,,,,,,,,,,,14,,45,0
33765,note_on,,1,0,13,,,,,,,,,,,,,,,,14,,45,72
33779,note_on,,14,0,13,,,,,,,,,,,,,,,,14,,45,0
33780,note_on,,1,0,13,,,,,,,,,,,,,,,,14,,45,72
33794,note_on,,14,0,13,,,,,,,,,,,,,,,,14,,45,0
33795,note_on,,1,0,13,,,,,,,,,,,,,,,,14,,45,72
33809,note_on,,14,0,13,,,,,,,,,,,,,,,,14,,45,0
33810,note_on,,1,0,13,,,,,,,,,,,,,,,,14,,45,72
33824,note_on,,14,0,13,,,,,,,,,,,,,,,,14,,45,0
33825,note_on,,1,0,13,,,,,,,,,,,,,,,,14,,45,72
33839,note_on,,14,0,13,,,,,,,,,,,,,,,,14,,45,0
33840,note_on,,1,0,13,,,,,,,,,,,,,,,,14,,45,72
33854,note_on,,14,0,13,,,,,,,,,,,,,,,,14,,45,0
33855,note_on,,1,0,13,,,,,,,,,,,,,,,,14,,45,72
33869,note_on,,14,0,13,,,,,,,,,,,,,,,,14,,45,0
33870,note_on,,1,0,13,,,,,,,,,,,,,,,,14,,45,72
33884,note_on,,14,0,13,,,,,,,,,,,,,,,,14,,45,0
33885,note_on,,1,0,13,,,,,,,,,,,,,,,,14,,45,72
33899,note_on,,14,0,13,,,,,,,,,,,,,,,,14,,45,0
33900,note_on,,1,0,13,,,,,,,,,,,,,,,,14,,45,72
33914,note_on,,14,0,13,,,,,,,,,,,,,,,,14,,45,0
33915,note_on,,1,0,13,,,,,,,,,,,,,,,,14,,45,72
33929,note_on,,14,0,13,,,,,,,,,,,,,,,,14,,45,0
33930,note_on,,1,0,13,,,,,,,,,,,,,,,,14,,45,72
33944,note_on,,14,0,13,,,,,,,,,,,,,,,,14,,45,0
33945,note_on,,1,0,13,,,,,,,,,,,,,,,,14,,45,72
33959,note_on,,14,0,13,,,,,,,,,,,,,,,,14,,45,0
33960,note_on,,1,0,13,,,,,,,,,,,,,,,,14,,45,72
33974,note_on,,14,0,13,,,,,,,,,,,,,,,,14,,45,0
33975,note_on,,1,0,13,,,,,,,,,,,,,,,,14,,45,72
33989,note_on,,14,0,13,,,,,,,,,,,,,,,,14,,45,0
33990,note_on,,1,0,13,,,,,,,,,,,,,,,,14,,45,72
34004,note_on,,14,0,13,,,,,,,,,,,,,,,,14,,45,0
34005,note_on,,1,0,13,,,,,,,,,,,,,,,,14,,45,72
34019,note_on,,14,0,13,,,,,,,,,,,,,,,,14,,45,0
34020,note_on,,1,0,13,,,,,,,,,,,,,,,,14,,45,72
34034,note_on,,14,0,13,,,,,,,,,,,,,,,,14,,45,0
34035,note_on,,1,0,13,,,,,,,,,,,,,,,,14,,45,72
34049,note_on,,14,0,13,,,,,,,,,,,,,,,,14,,45,0
34050,note_on,,1,0,13,,,,,,,,,,,,,,,,14,,45,72
34064,note_on,,14,0,13,,,,,,,,,,,,,,,,14,,45,0
34065,note_on,,1,0,13,,,,,,,,,,,,,,,,14,,45,72
34079,note_on,,14,0,13,,,,,,,,,,,,,,,,14,,45,0
34080,note_on,,1,0,13,,,,,,,,,,,,,,,,14,,45,72
34094,note_on,,14,0,13,,,,,,,,,,,,,,,,14,,45,0
34095,note_on,,1,0,13,,,,,,,,,,,,,,,,14,,45,72
34109,note_on,,14,0,13,,,,,,,,,,,,,,,,14,,45,0
34110,note_on,,1,0,13,,,,,,,,,,,,,,,,14,,45,72
34124,note_on,,14,0,13,,,,,,,,,,,,,,,,14,,45,0
34125,note_on,,1,0,13,,,,,,,,,,,,,,,,14,,45,72
34139,note_on,,14,0,13,,,,,,,,,,,,,,,,14,,45,0
34140,note_on,,1,0,13,,,,,,,,,,,,,,,,14,,45,72
34154,note_on,,14,0,13,,,,,,,,,,,,,,,,14,,45,0
34155,note_on,,1,0,13,,,,,,,,,,,,,,,,14,,45,72
34169,note_on,,14,0,13,,,,,,,,,,,,,,,,14,,45,0
34170,note_on,,1,0,13,,,,,,,,,,,,,,,,14,,45,72
34184,note_on,,14,0,13,,,,,,,,,,,,,,,,14,,45,0
34185,note_on,,1,0,13,,,,,,,,,,,,,,,,14,,45,72
34199,note_on,,14,0,13,,,,,,,,,,,,,,,,14,,45,0
34200,note_on,,1,0,13,,,,,,,,,,,,,,,,14,,45,72
34214,note_on,,14,0,13,,,,,,,,,,,,,,,,14,,45,0
34215,note_on,,1,0,13,,,,,,,,,,,,,,,,14,,45,72
34229,note_on,,14,0,13,,,,,,,,,,,,,,,,14,,45,0
34230,note_on,,1,0,13,,,,,,,,,,,,,,,,14,,45,72
34244,note_on,,14,0,13,,,,,,,,,,,,,,,,14,,45,0
34245,note_on,,1,0,13,,,,,,,,,,,,,,,,14,,45,72
34259,note_on,,14,0,13,,,,,,,,,,,,,,,,14,,45,0
34260,note_on,,1,0,13,,,,,,,,,,,,,,,,14,,45,72
34274,note_on,,14,0,13,,,,,,,,,,,,,,,,14,,45,0
34275,note_on,,1,0,13,,,,,,,,,,,,,,,,14,,45,72
34289,note_on,,14,0,13,,,,,,,,,,,,,,,,14,,45,0
34290,note_on,,1,0,13,,,,,,,,,,,,,,,,14,,45,72
34304,note_on,,14,0,13,,,,,,,,,,,,,,,,14,,45,0
34305,note_on,,1,0,13,,,,,,,,,,,,,,,,14,,45,72
34319,note_on,,14,0,13,,,,,,,,,,,,,,,,14,,45,0
34320,note_on,,1,0,13,,,,,,,,,,,,,,,,14,,45,72
34334,note_on,,14,0,13,,,,,,,,,,,,,,,,14,,45,0
34335,note_on,,1,0,13,,,,,,,,,,,,,,,,14,,45,72
34349,note_on,,14,0,13,,,,,,,,,,,,,,,,14,,45,0
34350,note_on,,1,0,13,,,,,,,,,,,,,,,,14,,45,72
34364,note_on,,14,0,13,,,,,,,,,,,,,,,,14,,45,0
34365,note_on,,1,0,13,,,,,,,,,,,,,,,,14,,45,72
34379,note_on,,14,0,13,,,,,,,,,,,,,,,,14,,45,0
34380,note_on,,1,0,13,,,,,,,,,,,,,,,,14,,45,72
34394,note_on,,14,0,13,,,,,,,,,,,,,,,,14,,45,0
34395,note_on,,1,0,13,,,,,,,,,,,,,,,,14,,45,72
34409,note_on,,14,0,13,,,,,,,,,,,,,,,,14,,45,0
34410,note_on,,1,0,13,,,,,,,,,,,,,,,,14,,45,72
34424,note_on,,14,0,13,,,,,,,,,,,,,,,,14,,45,0
34425,note_on,,1,0,13,,,,,,,,,,,,,,,,14,,45,72
34439,note_on,,14,0,13,,,,,,,,,,,,,,,,14,,45,0
34440,note_on,,1,0,13,,,,,,,,,,,,,,,,14,,45,72
34454,note_on,,14,0,13,,,,,,,,,,,,,,,,14,,45,0
34455,note_on,,1,0,13,,,,,,,,,,,,,,,,14,,45,72
34469,note_on,,14,0,13,,,,,,,,,,,,,,,,14,,45,0
34470,note_on,,1,0,13,,,,,,,,,,,,,,,,14,,45,72
34484,note_on,,14,0,13,,,,,,,,,,,,,,,,14,,45,0
34485,note_on,,1,0,13,,,,,,,,,,,,,,,,14,,45,72
34499,note_on,,14,0,13,,,,,,,,,,,,,,,,14,,45,0
34500,note_on,,1,0,13,,,,,,,,,,,,,,,,14,,45,72
34514,note_on,,14,0,13,,,,,,,,,,,,,,,,14,,45,0
34515,note_on,,1,0,13,,,,,,,,,,,,,,,,14,,45,72
34529,note_on,,14,0,13,,,,,,,,,,,,,,,,14,,45,0
34530,note_on,,1,0,13,,,,,,,,,,,,,,,,14,,45,72
34544,note_on,,14,0,13,,,,,,,,,,,,,,,,14,,45,0
34545,note_on,,1,0,13,,,,,,,,,,,,,,,,14,,45,72
34559,note_on,,959,0,8,,,,,,,,,,,,,,,,4,,76,0
34559,note_on,,959,0,7,,,,,,,,,,,,,,,,3,,81,0
34559,note_on,,959,0,18,,,,,,,,,,,,,,,,15,,69,0
34559,note_on,,0,0,18,,,,,,,,,,,,,,,,15,,64,0
34559,note_on,,0,0,18,,,,,,,,,,,,,,,,15,,76,0
34559,note_on,,0,0,18,,,,,,,,,,,,,,,,15,,57,0
34559,note_on,,0,0,18,,,,,,,,,,,,,,,,15,,73,0
34559,note_on,,959,0,16,,,,,,,,,,,,,,,,12,,64,0
34559,note_on,,959,0,14,,,,,,,,,,,,,,,,10,,81,0
34559,note_on,,959,0,6,,,,,,,,,,,,,,,,2,,57,0
34559,note_on,,959,0,11,,,,,,,,,,,,,,,,7,,64,0
34559,note_on,,959,0,9,,,,,,,,,,,,,,,,5,,73,0
34559,note_on,,959,0,17,,,,,,,,,,,,,,,,13,,57,0
34559,note_on,,959,0,5,,,,,,,,,,,,,,,,1,,73,0
34559,note_on,,14,0,13,,,,,,,,,,,,,,,,14,,45,0
34559,note_on,,959,0,12,,,,,,,,,,,,,,,,8,,57,0
34559,note_on,,959,0,15,,,,,,,,,,,,,,,,11,,73,0
34559,note_on,,959,0,10,,,,,,,,,,,,,,,,6,,69,0
34560,note_on,,1,0,12,,,,,,,,,,,,,,,,8,,50,72
34560,note_on,,1,0,17,,,,,,,,,,,,,,,,13,,50,72
34560,note_on,,1,0,18,,,,,,,,,,,,,,,,15,,50,72
34560,set_tempo,,960,1,0,,,,,,,,,600000,,,,,,,,,,
34560,time_signature,,0,1,0,,,,,,,,,,4,4,24,8,,,,,,
34560,note_on,,1,0,6,,,,,,,,,,,,,,,,2,,50,72
34739,note_on,,179,0,12,,,,,,,,,,,,,,,,8,,50,0
34739,note_on,,179,0,18,,,,,,,,,,,,,,,,15,,50,0
34739,note_on,,179,0,17,,,,,,,,,,,,,,,,13,,50,0
34739,note_on,,179,0,6,,,,,,,,,,,,,,,,2,,50,0
34740,note_on,,1,0,18,,,,,,,,,,,,,,,,15,,52,72
34740,note_on,,1,0,17,,,,,,,,,,,,,,,,13,,52,72
34740,note_on,,1,0,12,,,,,,,,,,,,,,,,8,,52,72
34740,note_on,,1,0,6,,,,,,,,,,,,,,,,2,,52,72
34799,note_on,,59,0,6,,,,,,,,,,,,,,,,2,,52,0
34799,note_on,,59,0,12,,,,,,,,,,,,,,,,8,,52,0
34799,note_on,,59,0,17,,,,,,,,,,,,,,,,13,,52,0
34799,note_on,,59,0,18,,,,,,,,,,,,,,,,15,,52,0
34800,note_on,,1,0,6,,,,,,,,,,,,,,,,2,,54,72
34800,note_on,,1,0,12,,,,,,,,,,,,,,,,8,,54,72
34800,note_on,,1,0,18,,,,,,,,,,,,,,,,15,,54,72
34800,note_on,,1,0,17,,,,,,,,,,,,,,,,13,,54,72
34859,note_on,,59,0,18,,,,,,,,,,,,,,,,15,,54,0
34859,note_on,,59,0,12,,,,,,,,,,,,,,,,8,,54,0
34859,note_on,,59,0,6,,,,,,,,,,,,,,,,2,,54,0
34859,note_on,,59,0,17,,,,,,,,,,,,,,,,13,,54,0
34860,note_on,,1,0,18,,,,,,,,,,,,,,,,15,,55,72
34860,note_on,,1,0,6,,,,,,,,,,,,,,,,2,,55,72
34860,note_on,,1,0,12,,,,,,,,,,,,,,,,8,,55,72
34860,note_on,,1,0,17,,,,,,,,,,,,,,,,13,,55,72
34919,note_on,,59,0,12,,,,,,,,,,,,,,,,8,,55,0
34919,note_on,,59,0,17,,,,,,,,,,,,,,,,13,,55,0
34919,note_on,,59,0,18,,,,,,,,,,,,,,,,15,,55,0
34919,note_on,,59,0,6,,,,,,,,,,,,,,,,2,,55,0
34920,note_on,,1,0,17,,,,,,,,,,,,,,,,13,,57,72
34920,note_on,,1,0,18,,,,,,,,,,,,,,,,15,,57,72
34920,note_on,,1,0,12,,,,,,,,,,,,,,,,8,,57,72
34920,note_on,,1,0,6,,,,,,,,,,,,,,,,2,,57,72
34979,note_on,,59,0,18,,,,,,,,,,,,,,,,15,,57,0
34979,note_on,,59,0,6,,,,,,,,,,,,,,,,2,,57,0
34979,note_on,,59,0,17,,,,,,,,,,,,,,,,13,,57,0
34979,note_on,,59,0,12,,,,,,,,,,,,,,,,8,,57,0
34980,note_on,,1,0,18,,,,,,,,,,,,,,,,15,,52,72
34980,note_on,,1,0,17,,,,,,,,,,,,,,,,13,,52,72
34980,note_on,,1,0,12,,,,,,,,,,,,,,,,8,,52,72
34980,note_on,,1,0,6,,,,,,,,,,,,,,,,2,,52,72
35039,note_on,,59,0,18,,,,,,,,,,,,,,,,15,,52,0
35039,note_on,,59,0,17,,,,,,,,,,,,,,,,13,,52,0
35039,note_on,,59,0,6,,,,,,,,,,,,,,,,2,,52,0
35039,note_on,,59,0,12,,,,,,,,,,,,,,,,8,,52,0
35040,note_on,,1,0,6,,,,,,,,,,,,,,,,2,,54,72
35040,note_on,,1,0,12,,,,,,,,,,,,,,,,8,,54,72
35040,note_on,,1,0,18,,,,,,,,,,,,,,,,15,,54,72
35040,note_on,,1,0,17,,,,,,,,,,,,,,,,13,,54,72
35099,note_on,,59,0,12,,,,,,,,,,,,,,,,8,,54,0
35099,note_on,,59,0,6,,,,,,,,,,,,,,,,2,,54,0
35099,note_on,,59,0,18,,,,,,,,,,,,,,,,15,,54,0
35099,note_on,,59,0,17,,,,,,,,,,,,,,,,13,,54,0
35100,note_on,,1,0,17,,,,,,,,,,,,,,,,13,,50,72
35100,note_on,,1,0,18,,,,,,,,,,,,,,,,15,,50,72
35100,note_on,,1,0,12,,,,,,,,,,,,,,,,8,,50,72
35100,note_on,,1,0,6,,,,,,,,,,,,,,,,2,,50,72
35159,note_on,,59,0,17,,,,,,,,,,,,,,,,13,,50,0
35159,note_on,,59,0,18,,,,,,,,,,,,,,,,15,,50,0
35159,note_on,,59,0,6,,,,,,,,,,,,,,,,2,,50,0
35159,note_on,,59,0,12,,,,,,,,,,,,,,,,8,,50,0
35160,note_on,,1,0,6,,,,,,,,,,,,,,,,2,,59,72
35160,note_on,,1,0,17,,,,,,,,,,,,,,,,13,,59,72
35160,note_on,,1,0,18,,,,,,,,,,,,,,,,15,,59,72
35160,note_on,,1,0,12,,,,,,,,,,,,,,,,8,,59,72
35399,note_on,,239,0,17,,,,,,,,,,,,,,,,13,,59,0
35399,note_on,,239,0,18,,,,,,,,,,,,,,,,15,,59,0
35399,note_on,,239,0,6,,,,,,,,,,,,,,,,2,,59,0
35399,note_on,,239,0,12,,,,,,,,,,,,,,,,8,,59,0
35400,note_on,,1,0,18,,,,,,,,,,,,,,,,15,,57,72
35400,note_on,,1,0,17,,,,,,,,,,,,,,,,13,,57,72
35400,note_on,,1,0,12,,,,,,,,,,,,,,,,8,,57,72
35400,note_on,,1,0,6,,,,,,,,,,,,,,,,2,,57,72
35519,note_on,,119,0,6,,,,,,,,,,,,,,,,2,,57,0
35519,note_on,,119,0,17,,,,,,,,,,,,,,,,13,,57,0
35519,note_on,,119,0,18,,,,,,,,,,,,,,,,15,,57,0
35519,note_on,,119,0,12,,,,,,,,,,,,,,,,8,,57,0
35520,note_on,,1,0,17,,,,,,,,,,,,,,,,13,,50,72
35520,note_on,,1,0,6,,,,,,,,,,,,,,,,2,,50,72
35520,note_on,,1,0,18,,,,,,,,,,,,,,,,15,,50,72
35520,note_on,,1,0,12,,,,,,,,,,,,,,,,8,,50,72
35639,note_on,,119,0,6,,,,,,,,,,,,,,,,2,,50,0
35639,note_on,,119,0,17,,,,,,,,,,,,,,,,13,,50,0
35639,note_on,,119,0,12,,,,,,,,,,,,,,,,8,,50,0
35639,note_on,,119,0,18,,,,,,,,,,,,,,,,15,,50,0
35640,note_on,,1,0,18,,,,,,,,,,,,,,,,15,,55,72
35640,note_on,,1,0,12,,,,,,,,,,,,,,,,8,,55,72
35640,note_on,,1,0,17,,,,,,,,,,,,,,,,13,,55,72
35640,note_on,,1,0,6,,,,,,,,,,,,,,,,2,,55,72
35879,note_on,,239,0,18,,,,,,,,,,,,,,,,15,,55,0
35879,note_on,,239,0,12,,,,,,,,,,,,,,,,8,,55,0
35879,note_on,,239,0,17,,,,,,,,,,,,,,,,13,,55,0
35879,note_on,,239,0,6,,,,,,,,,,,,,,,,2,,55,0
35880,note_on,,1,0,17,,,,,,,,,,,,,,,,13,,54,72
35880,note_on,,1,0,12,,,,,,,,,,,,,,,,8,,54,72
35880,note_on,,1,0,18,,,,,,,,,,,,,,,,15,,54,72
35880,note_on,,1,0,6,,,,,,,,,,,,,,,,2,,54,72
35999,note_on,,119,0,18,,,,,,,,,,,,,,,,15,,54,0
35999,note_on,,119,0,12,,,,,,,,,,,,,,,,8,,54,0
35999,note_on,,119,0,17,,,,,,,,,,,,,,,,13,,54,0
35999,note_on,,119,0,6,,,,,,,,,,,,,,,,2,,54,0
36000,note_on,,1,0,18,,,,,,,,,,,,,,,,15,,59,72
36000,note_on,,1,0,12,,,,,,,,,,,,,,,,8,,59,72
36000,note_on,,1,0,17,,,,,,,,,,,,,,,,13,,59,72
36000,note_on,,1,0,6,,,,,,,,,,,,,,,,2,,59,72
36179,note_on,,179,0,18,,,,,,,,,,,,,,,,15,,59,0
36179,note_on,,179,0,12,,,,,,,,,,,,,,,,8,,59,0
36179,note_on,,179,0,6,,,,,,,,,,,,,,,,2,,59,0
36179,note_on,,179,0,17,,,,,,,,,,,,,,,,13,,59,0
36180,note_on,,1,0,18,,,,,,,,,,,,,,,,15,,59,72
36180,note_on,,1,0,17,,,,,,,,,,,,,,,,13,,59,72
36180,note_on,,1,0,6,,,,,,,,,,,,,,,,2,,59,72
36180,note_on,,1,0,12,,,,,,,,,,,,,,,,8,,59,72
36239,note_on,,59,0,12,,,,,,,,,,,,,,,,8,,59,0
36239,note_on,,59,0,17,,,,,,,,,,,,,,,,13,,59,0
36239,note_on,,59,0,18,,,,,,,,,,,,,,,,15,,59,0
36239,note_on,,59,0,6,,,,,,,,,,,,,,,,2,,59,0
36240,note_on,,1,0,6,,,,,,,,,,,,,,,,2,,61,72
36240,note_on,,1,0,12,,,,,,,,,,,,,,,,8,,61,72
36240,note_on,,1,0,18,,,,,,,,,,,,,,,,15,,61,72
36240,note_on,,1,0,17,,,,,,,,,,,,,,,,13,,61,72
36299,note_on,,59,0,6,,,,,,,,,,,,,,,,2,,61,0
36299,note_on,,59,0,18,,,,,,,,,,,,,,,,15,,61,0
36299,note_on,,59,0,17,,,,,,,,,,,,,,,,13,,61,0
36299,note_on,,59,0,12,,,,,,,,,,,,,,,,8,,61,0
36300,note_on,,1,0,12,,,,,,,,,,,,,,,,8,,57,72
36300,note_on,,1,0,17,,,,,,,,,,,,,,,,13,,57,72
36300,note_on,,1,0,18,,,,,,,,,,,,,,,,15,,57,72
36300,note_on,,1,0,6,,,,,,,,,,,,,,,,2,,57,72
36359,note_on,,59,0,6,,,,,,,,,,,,,,,,2,,57,0
36359,note_on,,59,0,18,,,,,,,,,,,,,,,,15,,57,0
36359,note_on,,59,0,12,,,,,,,,,,,,,,,,8,,57,0
36359,note_on,,59,0,17,,,,,,,,,,,,,,,,13,,57,0
36360,note_on,,1,0,12,,,,,,,,,,,,,,,,8,,62,72
36360,note_on,,1,0,17,,,,,,,,,,,,,,,,13,,62,72
36360,note_on,,1,0,6,,,,,,,,,,,,,,,,2,,62,72
36360,note_on,,1,0,18,,,,,,,,,,,,,,,,15,,62,72
36599,note_on,,239,0,12,,,,,,,,,,,,,,,,8,,62,0
36599,note_on,,239,0,17,,,,,,,,,,,,,,,,13,,62,0
36599,note_on,,239,0,18,,,,,,,,,,,,,,,,15,,62,0
36599,note_on,,239,0,6,,,,,,,,,,,,,,,,2,,62,0
36600,note_on,,1,0,18,,,,,,,,,,,,,,,,15,,61,72
36600,note_on,,1,0,17,,,,,,,,,,,,,,,,13,,61,72
36600,note_on,,1,0,6,,,,,,,,,,,,,,,,2,,61,72
36600,note_on,,1,0,12,,,,,,,,,,,,,,,,8,,61,72
36719,note_on,,119,0,6,,,,,,,,,,,,,,,,2,,61,0
36719,note_on,,119,0,12,,,,,,,,,,,,,,,,8,,61,0
36719,note_on,,119,0,18,,,,,,,,,,,,,,,,15,,61,0
36719,note_on,,119,0,17,,,,,,,,,,,,,,,,13,,61,0
36720,note_on,,1,0,12,,,,,,,,,,,,,,,,8,,62,72
36720,note_on,,1,0,17,,,,,,,,,,,,,,,,13,,62,72
36720,note_on,,1,0,6,,,,,,,,,,,,,,,,2,,62,72
36720,note_on,,1,0,18,,,,,,,,,,,,,,,,15,,62,72
36839,note_on,,119,0,18,,,,,,,,,,,,,,,,15,,62,0
36839,note_on,,119,0,12,,,,,,,,,,,,,,,,8,,62,0
36839,note_on,,119,0,17,,,,,,,,,,,,,,,,13,,62,0
36839,note_on,,119,0,6,,,,,,,,,,,,,,,,2,,62,0
36840,note_on,,1,0,18,,,,,,,,,,,,,,,,15,,54,72
36840,note_on,,1,0,6,,,,,,,,,,,,,,,,2,,54,72
36840,note_on,,1,0,17,,,,,,,,,,,,,,,,13,,54,72
36840,note_on,,1,0,12,,,,,,,,,,,,,,,,8,,54,72
36899,note_on,,59,0,12,,,,,,,,,,,,,,,,8,,54,0
36899,note_on,,59,0,6,,,,,,,,,,,,,,,,2,,54,0
36899,note_on,,59,0,17,,,,,,,,,,,,,,,,13,,54,0
36899,note_on,,59,0,18,,,,,,,,,,,,,,,,15,,54,0
36900,note_on,,1,0,6,,,,,,,,,,,,,,,,2,,52,72
36900,note_on,,1,0,17,,,,,,,,,,,,,,,,13,,52,72
36900,note_on,,1,0,18,,,,,,,,,,,,,,,,15,,52,72
36900,note_on,,1,0,12,,,,,,,,,,,,,,,,8,,52,72
36959,note_on,,59,0,12,,,,,,,,,,,,,,,,8,,52,0
36959,note_on,,59,0,6,,,,,,,,,,,,,,,,2,,52,0
36959,note_on,,59,0,17,,,,,,,,,,,,,,,,13,,52,0
36959,note_on,,59,0,18,,,,,,,,,,,,,,,,15,,52,0
36960,note_on,,2401,0,11,,,,,,,,,,,,,,,,7,,57,72
36960,note_on,,1,0,12,,,,,,,,,,,,,,,,8,,50,72
36960,note_on,,1,0,18,,,,,,,,,,,,,,,,15,,50,72
36960,note_on,,1,0,6,,,,,,,,,,,,,,,,2,,50,72
36960,note_on,,1,0,17,,,,,,,,,,,,,,,,13,,50,72
36960,note_on,,0,0,18,,,,,,,,,,,,,,,,15,,57,72
37019,note_on,,59,0,18,,,,,,,,,,,,,,,,15,,50,0
37019,note_on,,59,0,12,,,,,,,,,,,,,,,,8,,50,0
37019,note_on,,59,0,6,,,,,,,,,,,,,,,,2,,50,0
37019,note_on,,59,0,17,,,,,,,,,,,,,,,,13,,50,0
37020,note_on,,1,0,18,,,,,,,,,,,,,,,,15,,52,72
37020,note_on,,1,0,12,,,,,,,,,,,,,,,,8,,52,72
37020,note_on,,1,0,6,,,,,,,,,,,,,,,,2,,52,72
37020,note_on,,1,0,17,,,,,,,,,,,,,,,,13,,52,72
37079,note_on,,59,0,12,,,,,,,,,,,,,,,,8,,52,0
37079,note_on,,59,0,6,,,,,,,,,,,,,,,,2,,52,0
37079,note_on,,59,0,18,,,,,,,,,,,,,,,,15,,52,0
37079,note_on,,59,0,17,,,,,,,,,,,,,,,,13,,52,0
37080,note_on,,1,0,18,,,,,,,,,,,,,,,,15,,54,72
37080,note_on,,1,0,12,,,,,,,,,,,,,,,,8,,54,72
37080,note_on,,1,0,6,,,,,,,,,,,,,,,,2,,54,72
37080,note_on,,1,0,17,,,,,,,,,,,,,,,,13,,54,72
37139,note_on,,59,0,12,,,,,,,,,,,,,,,,8,,54,0
37139,note_on,,0,0,18,,,,,,,,,,,,,,,,15,,54,0
37139,note_on,,59,0,18,,,,,,,,,,,,,,,,15,,57,0
37139,note_on,,59,0,17,,,,,,,,,,,,,,,,13,,54,0
37139,note_on,,179,0,11,,,,,,,,,,,,,,,,7,,57,0
37139,note_on,,59,0,6,,,,,,,,,,,,,,,,2,,54,0
37140,note_on,,0,0,18,,,,,,,,,,,,,,,,15,,59,72
37140,note_on,,1,0,6,,,,,,,,,,,,,,,,2,,56,72
37140,note_on,,1,0,17,,,,,,,,,,,,,,,,13,,56,72
37140,note_on,,1,0,18,,,,,,,,,,,,,,,,15,,56,72
37140,note_on,,1,0,11,,,,,,,,,,,,,,,,7,,59,72
37140,note_on,,1,0,12,,,,,,,,,,,,,,,,8,,56,72
37199,note_on,,59,0,11,,,,,,,,,,,,,,,,7,,59,0
37199,note_on,,0,0,18,,,,,,,,,,,,,,,,15,,59,0
37199,note_on,,59,0,12,,,,,,,,,,,,,,,,8,,56,0
37199,note_on,,59,0,17,,,,,,,,,,,,,,,,13,,56,0
37199,note_on,,59,0,6,,,,,,,,,,,,,,,,2,,56,0
37199,note_on,,59,0,18,,,,,,,,,,,,,,,,15,,56,0
37200,note_on,,1,0,11,,,,,,,,,,,,,,,,7,,61,72
37200,note_on,,1,0,12,,,,,,,,,,,,,,,,8,,57,72
37200,note_on,,0,0,18,,,,,,,,,,,,,,,,15,,61,72
37200,note_on,,1,0,18,,,,,,,,,,,,,,,,15,,57,72
37200,note_on,,1,0,6,,,,,,,,,,,,,,,,2,,57,72
37200,note_on,,1,0,17,,,,,,,,,,,,,,,,13,,57,72
37259,note_on,,59,0,18,,,,,,,,,,,,,,,,15,,61,0
37259,note_on,,59,0,11,,,,,,,,,,,,,,,,7,,61,0
37260,note_on,,1,0,11,,,,,,,,,,,,,,,,7,,62,72
37260,note_on,,1,0,18,,,,,,,,,,,,,,,,15,,62,72
37319,note_on,,59,0,18,,,,,,,,,,,,,,,,15,,57,0
37319,note_on,,0,0,18,,,,,,,,,,,,,,,,15,,62,0
37319,note_on,,59,0,11,,,,,,,,,,,,,,,,7,,62,0
37319,note_on,,119,0,12,,,,,,,,,,,,,,,,8,,57,0
37319,note_on,,119,0,17,,,,,,,,,,,,,,,,13,,57,0
37319,note_on,,119,0,6,,,,,,,,,,,,,,,,2,,57,0
37320,note_on,,0,0,18,,,,,,,,,,,,,,,,15,,64,72
37320,note_on,,1,0,11,,,,,,,,,,,,,,,,7,,64,72
37320,note_on,,1,0,17,,,,,,,,,,,,,,,,13,,45,72
37320,note_on,,1,0,12,,,,,,,,,,,,,,,,8,,45,72
37320,note_on,,1,0,18,,,,,,,,,,,,,,,,15,,45,72
37320,note_on,,1,0,6,,,,,,,,,,,,,,,,2,,45,72
37379,note_on,,59,0,11,,,,,,,,,,,,,,,,7,,64,0
37379,note_on,,59,0,18,,,,,,,,,,,,,,,,15,,64,0
37380,note_on,,1,0,11,,,,,,,,,,,,,,,,7,,59,72
37380,note_on,,1,0,18,,,,,,,,,,,,,,,,15,,59,72
37439,note_on,,119,0,12,,,,,,,,,,,,,,,,8,,45,0
37439,note_on,,119,0,17,,,,,,,,,,,,,,,,13,,45,0
37439,note_on,,59,0,11,,,,,,,,,,,,,,,,7,,59,0
37439,note_on,,119,0,6,,,,,,,,,,,,,,,,2,,45,0
37439,note_on,,59,0,18,,,,,,,,,,,,,,,,15,,45,0
37439,note_on,,0,0,18,,,,,,,,,,,,,,,,15,,59,0
37440,note_on,,1,0,11,,,,,,,,,,,,,,,,7,,61,72
37440,note_on,,1,0,18,,,,,,,,,,,,,,,,15,,61,72
37499,note_on,,59,0,18,,,,,,,,,,,,,,,,15,,61,0
37499,note_on,,59,0,11,,,,,,,,,,,,,,,,7,,61,0
37500,note_on,,1,0,18,,,,,,,,,,,,,,,,15,,57,72
37500,note_on,,1,0,11,,,,,,,,,,,,,,,,7,,59,72
37559,note_on,,59,0,18,,,,,,,,,,,,,,,,15,,57,0
37559,note_on,,59,0,11,,,,,,,,,,,,,,,,7,,59,0
37560,note_on,,1,0,18,,,,,,,,,,,,,,,,15,,45,72
37560,note_on,,0,0,18,,,,,,,,,,,,,,,,15,,54,72
37560,note_on,,0,0,18,,,,,,,,,,,,,,,,15,,61,72
37560,note_on,,1,0,11,,,,,,,,,,,,,,,,7,,66,72
37560,note_on,,121,0,6,,,,,,,,,,,,,,,,2,,45,72
37560,note_on,,121,0,17,,,,,,,,,,,,,,,,13,,45,72
37560,note_on,,121,0,12,,,,,,,,,,,,,,,,8,,57,72
37619,note_on,,59,0,12,,,,,,,,,,,,,,,,8,,57,0
37679,note_on,,119,0,6,,,,,,,,,,,,,,,,2,,45,0
37679,note_on,,119,0,17,,,,,,,,,,,,,,,,13,,45,0
37679,note_on,,0,0,18,,,,,,,,,,,,,,,,15,,54,0
37679,note_on,,0,0,18,,,,,,,,,,,,,,,,15,,61,0
37679,note_on,,119,0,18,,,,,,,,,,,,,,,,15,,45,0
37680,note_on,,1,0,17,,,,,,,,,,,,,,,,13,,44,72
37680,note_on,,0,0,18,,,,,,,,,,,,,,,,15,,56,72
37680,note_on,,0,0,18,,,,,,,,,,,,,,,,15,,59,72
37680,note_on,,1,0,18,,,,,,,,,,,,,,,,15,,44,72
37680,note_on,,61,0,12,,,,,,,,,,,,,,,,8,,56,72
37680,note_on,,1,0,6,,,,,,,,,,,,,,,,2,,44,72
37739,note_on,,59,0,12,,,,,,,,,,,,,,,,8,,56,0
37799,note_on,,119,0,17,,,,,,,,,,,,,,,,13,,44,0
37799,note_on,,239,0,11,,,,,,,,,,,,,,,,7,,66,0
37799,note_on,,119,0,18,,,,,,,,,,,,,,,,15,,44,0
37799,note_on,,119,0,6,,,,,,,,,,,,,,,,2,,44,0
37800,note_on,,1,0,11,,,,,,,,,,,,,,,,7,,64,72
37800,note_on,,1,0,18,,,,,,,,,,,,,,,,15,,49,72
37800,note_on,,1,0,17,,,,,,,,,,,,,,,,13,,49,72
37800,note_on,,1,0,6,,,,,,,,,,,,,,,,2,,49,72
37800,note_on,,61,0,12,,,,,,,,,,,,,,,,8,,61,72
37859,note_on,,59,0,12,,,,,,,,,,,,,,,,8,,61,0
37919,note_on,,119,0,17,,,,,,,,,,,,,,,,13,,49,0
37919,note_on,,119,0,18,,,,,,,,,,,,,,,,15,,59,0
37919,note_on,,0,0,18,,,,,,,,,,,,,,,,15,,56,0
37919,note_on,,119,0,6,,,,,,,,,,,,,,,,2,,49,0
37919,note_on,,0,0,18,,,,,,,,,,,,,,,,15,,49,0
37919,note_on,,119,0,11,,,,,,,,,,,,,,,,7,,64,0
37920,note_on,,1,0,18,,,,,,,,,,,,,,,,15,,57,72
37920,note_on,,1,0,11,,,,,,,,,,,,,,,,7,,57,72
38039,note_on,,119,0,11,,,,,,,,,,,,,,,,7,,57,0
38039,note_on,,119,0,18,,,,,,,,,,,,,,,,15,,57,0
38040,note_on,,181,0,12,,,,,,,,,,,,,,,,8,,54,72
38040,note_on,,121,0,17,,,,,,,,,,,,,,,,13,,54,72
38040,note_on,,1,0,11,,,,,,,,,,,,,,,,7,,62,72
38040,note_on,,1,0,18,,,,,,,,,,,,,,,,15,,54,72
38040,note_on,,0,0,18,,,,,,,,,,,,,,,,15,,62,72
38040,note_on,,121,0,6,,,,,,,,,,,,,,,,2,,54,72
38099,note_on,,59,0,12,,,,,,,,,,,,,,,,8,,54,0
38159,note_on,,119,0,6,,,,,,,,,,,,,,,,2,,54,0
38159,note_on,,119,0,17,,,,,,,,,,,,,,,,13,,54,0
38159,note_on,,119,0,18,,,,,,,,,,,,,,,,15,,54,0
38160,note_on,,1,0,18,,,,,,,,,,,,,,,,15,,52,72
38160,note_on,,1,0,6,,,,,,,,,,,,,,,,2,,52,72
38160,note_on,,61,0,12,,,,,,,,,,,,,,,,8,,52,72
38160,note_on,,1,0,17,,,,,,,,,,,,,,,,13,,52,72
38219,note_on,,59,0,12,,,,,,,,,,,,,,,,8,,52,0
38279,note_on,,119,0,6,,,,,,,,,,,,,,,,2,,52,0
38279,note_on,,119,0,17,,,,,,,,,,,,,,,,13,,52,0
38279,note_on,,0,0,18,,,,,,,,,,,,,,,,15,,52,0
38279,note_on,,239,0,11,,,,,,,,,,,,,,,,7,,62,0
38279,note_on,,119,0,18,,,,,,,,,,,,,,,,15,,62,0
38280,note_on,,1,0,11,,,,,,,,,,,,,,,,7,,61,72
38280,note_on,,1,0,17,,,,,,,,,,,,,,,,13,,57,72
38280,note_on,,61,0,12,,,,,,,,,,,,,,,,8,,57,72
38280,note_on,,0,0,18,,,,,,,,,,,,,,,,15,,61,72
38280,note_on,,1,0,18,,,,,,,,,,,,,,,,15,,57,72
38280,note_on,,1,0,6,,,,,,,,,,,,,,,,2,,57,72
38339,note_on,,59,0,12,,,,,,,,,,,,,,,,8,,57,0
38399,note_on,,119,0,18,,,,,,,,,,,,,,,,15,,57,0
38399,note_on,,119,0,17,,,,,,,,,,,,,,,,13,,57,0
38399,note_on,,0,0,18,,,,,,,,,,,,,,,,15,,61,0
38399,note_on,,119,0,11,,,,,,,,,,,,,,,,7,,61,0
38399,note_on,,119,0,6,,,,,,,,,,,,,,,,2,,57,0
38400,note_on,,1,0,18,,,,,,,,,,,,,,,,15,,54,72
38400,note_on,,1,0,11,,,,,,,,,,,,,,,,7,,54,72
38520,note_on,,181,0,12,,,,,,,,,,,,,,,,8,,50,72
38520,note_on,,120,0,18,,,,,,,,,,,,,,,,15,,50,72
38520,note_on,,121,0,6,,,,,,,,,,,,,,,,2,,50,72
38520,note_on,,121,0,17,,,,,,,,,,,,,,,,13,,50,72
38579,note_on,,179,0,11,,,,,,,,,,,,,,,,7,,54,0
38579,note_on,,59,0,18,,,,,,,,,,,,,,,,15,,54,0
38580,note_on,,1,0,18,,,,,,,,,,,,,,,,15,,54,72
38580,note_on,,1,0,11,,,,,,,,,,,,,,,,7,,54,72
38639,note_on,,59,0,18,,,,,,,,,,,,,,,,15,,54,0
38639,note_on,,59,0,11,,,,,,,,,,,,,,,,7,,54,0
38640,note_on,,1,0,11,,,,,,,,,,,,,,,,7,,56,72
38640,note_on,,1,0,18,,,,,,,,,,,,,,,,15,,56,72
38699,note_on,,59,0,18,,,,,,,,,,,,,,,,15,,56,0
38699,note_on,,59,0,11,,,,,,,,,,,,,,,,7,,56,0
38700,note_on,,1,0,11,,,,,,,,,,,,,,,,7,,52,72
38700,note_on,,1,0,18,,,,,,,,,,,,,,,,15,,52,72
38759,note_on,,239,0,6,,,,,,,,,,,,,,,,2,,50,0
38759,note_on,,0,0,18,,,,,,,,,,,,,,,,15,,52,0
38759,note_on,,59,0,18,,,,,,,,,,,,,,,,15,,50,0
38759,note_on,,59,0,11,,,,,,,,,,,,,,,,7,,52,0
38759,note_on,,239,0,12,,,,,,,,,,,,,,,,8,,50,0
38759,note_on,,239,0,17,,,,,,,,,,,,,,,,13,,50,0
38760,note_on,,1,0,18,,,,,,,,,,,,,,,,15,,49,72
38760,note_on,,0,0,18,,,,,,,,,,,,,,,,15,,57,72
38760,note_on,,1,0,12,,,,,,,,,,,,,,,,8,,49,72
38760,note_on,,1,0,6,,,,,,,,,,,,,,,,2,,49,72
38760,note_on,,1,0,11,,,,,,,,,,,,,,,,7,,57,72
38760,note_on,,1,0,17,,,,,,,,,,,,,,,,13,,49,72
38879,note_on,,119,0,12,,,,,,,,,,,,,,,,8,,49,0
38879,note_on,,119,0,17,,,,,,,,,,,,,,,,13,,49,0
38879,note_on,,119,0,6,,,,,,,,,,,,,,,,2,,49,0
38879,note_on,,119,0,18,,,,,,,,,,,,,,,,15,,49,0
38880,note_on,,1,0,12,,,,,,,,,,,,,,,,8,,47,72
38880,note_on,,1,0,17,,,,,,,,,,,,,,,,13,,47,72
38880,note_on,,1,0,6,,,,,,,,,,,,,,,,2,,47,72
38880,note_on,,1,0,18,,,,,,,,,,,,,,,,15,,47,72
38939,note_on,,59,0,18,,,,,,,,,,,,,,,,15,,57,0
38939,note_on,,179,0,11,,,,,,,,,,,,,,,,7,,57,0
38940,note_on,,1,0,18,,,,,,,,,,,,,,,,15,,56,72
38940,note_on,,1,0,11,,,,,,,,,,,,,,,,7,,56,72
38999,note_on,,59,0,11,,,,,,,,,,,,,,,,7,,56,0
38999,note_on,,59,0,18,,,,,,,,,,,,,,,,15,,56,0
39000,note_on,,1,0,18,,,,,,,,,,,,,,,,15,,57,72
39000,note_on,,1,0,11,,,,,,,,,,,,,,,,7,,57,72
39059,note_on,,59,0,18,,,,,,,,,,,,,,,,15,,57,0
39059,note_on,,59,0,11,,,,,,,,,,,,,,,,7,,57,0
39060,note_on,,1,0,11,,,,,,,,,,,,,,,,7,,59,72
39060,note_on,,1,0,18,,,,,,,,,,,,,,,,15,,59,72
39119,note_on,,59,0,11,,,,,,,,,,,,,,,,7,,59,0
39119,note_on,,239,0,12,,,,,,,,,,,,,,,,8,,47,0
39119,note_on,,239,0,17,,,,,,,,,,,,,,,,13,,47,0
39119,note_on,,0,0,18,,,,,,,,,,,,,,,,15,,59,0
39119,note_on,,239,0,6,,,,,,,,,,,,,,,,2,,47,0
39119,note_on,,59,0,18,,,,,,,,,,,,,,,,15,,47,0
39120,note_on,,1,0,6,,,,,,,,,,,,,,,,2,,45,72
39120,note_on,,1,0,18,,,,,,,,,,,,,,,,15,,45,72
39120,note_on,,0,0,18,,,,,,,,,,,,,,,,15,,61,72
39120,note_on,,1,0,17,,,,,,,,,,,,,,,,13,,45,72
39120,note_on,,1,0,11,,,,,,,,,,,,,,,,7,,61,72
39120,note_on,,1,0,12,,,,,,,,,,,,,,,,8,,45,72
39179,note_on,,59,0,18,,,,,,,,,,,,,,,,15,,61,0
39179,note_on,,59,0,11,,,,,,,,,,,,,,,,7,,61,0
39180,note_on,,1,0,11,,,,,,,,,,,,,,,,7,,62,72
39180,note_on,,1,0,18,,,,,,,,,,,,,,,,15,,62,72
39239,note_on,,119,0,6,,,,,,,,,,,,,,,,2,,45,0
39239,note_on,,119,0,17,,,,,,,,,,,,,,,,13,,45,0
39239,note_on,,59,0,11,,,,,,,,,,,,,,,,7,,62,0
39239,note_on,,119,0,12,,,,,,,,,,,,,,,,8,,45,0
39239,note_on,,0,0,18,,,,,,,,,,,,,,,,15,,62,0
39239,note_on,,59,0,18,,,,,,,,,,,,,,,,15,,45,0
39240,note_on,,1,0,17,,,,,,,,,,,,,,,,13,,64,72
39240,note_on,,1,0,11,,,,,,,,,,,,,,,,7,,64,72
39240,note_on,,1,0,18,,,,,,,,,,,,,,,,15,,64,72
39299,note_on,,59,0,18,,,,,,,,,,,,,,,,15,,64,0
39299,note_on,,59,0,11,,,,,,,,,,,,,,,,7,,64,0
39299,note_on,,59,0,17,,,,,,,,,,,,,,,,13,,64,0
39300,note_on,,1,0,17,,,,,,,,,,,,,,,,13,,55,72
39300,note_on,,1,0,18,,,,,,,,,,,,,,,,15,,55,72
39300,note_on,,1,0,11,,,,,,,,,,,,,,,,7,,55,72
39359,note_on,,59,0,18,,,,,,,,,,,,,,,,15,,55,0
39359,note_on,,59,0,11,,,,,,,,,,,,,,,,7,,55,0
39359,note_on,,59,0,17,,,,,,,,,,,,,,,,13,,55,0
39360,note_on,,4801,0,10,,,,,,,,,,,,,,,,6,,62,72
39360,note_on,,1,0,11,,,,,,,,,,,,,,,,7,,54,72
39360,note_on,,1,0,18,,,,,,,,,,,,,,,,15,,54,72
39360,note_on,,0,0,18,,,,,,,,,,,,,,,,15,,62,72
39360,note_on,,1,0,17,,,,,,,,,,,,,,,,13,,54,72
39419,note_on,,59,0,11,,,,,,,,,,,,,,,,7,,54,0
39419,note_on,,59,0,18,,,,,,,,,,,,,,,,15,,54,0
39419,note_on,,59,0,17,,,,,,,,,,,,,,,,13,,54,0
39420,note_on,,1,0,11,,,,,,,,,,,,,,,,7,,59,72
39420,note_on,,1,0,18,,,,,,,,,,,,,,,,15,,59,72
39420,note_on,,1,0,17,,,,,,,,,,,,,,,,13,,59,72
39479,note_on,,59,0,11,,,,,,,,,,,,,,,,7,,59,0
39479,note_on,,59,0,18,,,,,,,,,,,,,,,,15,,59,0
39479,note_on,,59,0,17,,,,,,,,,,,,,,,,13,,59,0
39480,note_on,,1,0,11,,,,,,,,,,,,,,,,7,,57,72
39480,note_on,,1,0,18,,,,,,,,,,,,,,,,15,,57,72
39480,note_on,,1,0,17,,,,,,,,,,,,,,,,13,,57,72
39539,note_on,,59,0,17,,,,,,,,,,,,,,,,13,,57,0
39539,note_on,,59,0,11,,,,,,,,,,,,,,,,7,,57,0
39539,note_on,,0,0,18,,,,,,,,,,,,,,,,15,,57,0
39539,note_on,,59,0,18,,,,,,,,,,,,,,,,15,,62,0
39539,note_on,,179,0,10,,,,,,,,,,,,,,,,6,,62,0
39540,note_on,,1,0,10,,,,,,,,,,,,,,,,6,,64,72
39540,note_on,,1,0,17,,,,,,,,,,,,,,,,13,,55,72
39540,note_on,,0,0,18,,,,,,,,,,,,,,,,15,,64,72
39540,note_on,,1,0,11,,,,,,,,,,,,,,,,7,,55,72
39540,note_on,,1,0,18,,,,,,,,,,,,,,,,15,,55,72
39599,note_on,,59,0,11,,,,,,,,,,,,,,,,7,,55,0
39599,note_on,,0,0,18,,,,,,,,,,,,,,,,15,,64,0
39599,note_on,,59,0,18,,,,,,,,,,,,,,,,15,,55,0
39599,note_on,,59,0,10,,,,,,,,,,,,,,,,6,,64,0
39599,note_on,,59,0,17,,,,,,,,,,,,,,,,13,,55,0
39600,note_on,,1,0,18,,,,,,,,,,,,,,,,15,,62,72
39600,note_on,,1,0,10,,,,,,,,,,,,,,,,6,,66,72
39600,note_on,,0,0,18,,,,,,,,,,,,,,,,15,,66,72
39600,note_on,,1,0,11,,,,,,,,,,,,,,,,7,,62,72
39600,note_on,,1,0,17,,,,,,,,,,,,,,,,13,,62,72
39659,note_on,,59,0,10,,,,,,,,,,,,,,,,6,,66,0
39659,note_on,,59,0,18,,,,,,,,,,,,,,,,15,,66,0
39660,note_on,,1,0,10,,,,,,,,,,,,,,,,6,,67,72
39660,note_on,,1,0,18,,,,,,,,,,,,,,,,15,,67,72
39719,note_on,,0,0,18,,,,,,,,,,,,,,,,15,,67,0
39719,note_on,,59,0,18,,,,,,,,,,,,,,,,15,,62,0
39719,note_on,,119,0,17,,,,,,,,,,,,,,,,13,,62,0
39719,note_on,,119,0,11,,,,,,,,,,,,,,,,7,,62,0
39719,note_on,,59,0,10,,,,,,,,,,,,,,,,6,,67,0
39720,note_on,,0,0,18,,,,,,,,,,,,,,,,15,,69,72
39720,note_on,,1,0,17,,,,,,,,,,,,,,,,13,,61,72
39720,note_on,,1,0,11,,,,,,,,,,,,,,,,7,,61,72
39720,note_on,,1,0,10,,,,,,,,,,,,,,,,6,,69,72
39720,note_on,,1,0,18,,,,,,,,,,,,,,,,15,,61,72
39779,note_on,,59,0,18,,,,,,,,,,,,,,,,15,,69,0
39779,note_on,,59,0,10,,,,,,,,,,,,,,,,6,,69,0
39780,note_on,,1,0,18,,,,,,,,,,,,,,,,15,,64,72
39780,note_on,,1,0,10,,,,,,,,,,,,,,,,6,,64,72
39839,note_on,,59,0,10,,,,,,,,,,,,,,,,6,,64,0
39839,note_on,,119,0,17,,,,,,,,,,,,,,,,13,,61,0
39839,note_on,,119,0,11,,,,,,,,,,,,,,,,7,,61,0
39839,note_on,,59,0,18,,,,,,,,,,,,,,,,15,,61,0
39839,note_on,,0,0,18,,,,,,,,,,,,,,,,15,,64,0
39840,note_on,,1,0,17,,,,,,,,,,,,,,,,13,,62,72
39840,note_on,,1,0,18,,,,,,,,,,,,,,,,15,,62,72
39840,note_on,,1,0,10,,,,,,,,,,,,,,,,6,,66,72
39840,note_on,,1,0,11,,,,,,,,,,,,,,,,7,,62,72
39840,note_on,,0,0,18,,,,,,,,,,,,,,,,15,,66,72
39899,note_on,,59,0,10,,,,,,,,,,,,,,,,6,,66,0
39900,note_on,,1,0,10,,,,,,,,,,,,,,,,6,,62,72
39959,note_on,,59,0,10,,,,,,,,,,,,,,,,6,,62,0
39959,note_on,,119,0,11,,,,,,,,,,,,,,,,7,,62,0
39959,note_on,,119,0,18,,,,,,,,,,,,,,,,15,,62,0
39959,note_on,,0,0,18,,,,,,,,,,,,,,,,15,,66,0
39959,note_on,,119,0,17,,,,,,,,,,,,,,,,13,,62,0
39960,note_on,,1,0,17,,,,,,,,,,,,,,,,13,,50,72
39960,note_on,,721,0,6,,,,,,,,,,,,,,,,2,,50,72
39960,note_on,,0,0,18,,,,,,,,,,,,,,,,15,,54,72
39960,note_on,,0,0,18,,,,,,,,,,,,,,,,15,,59,72
39960,note_on,,1,0,11,,,,,,,,,,,,,,,,7,,50,72
39960,note_on,,1,0,18,,,,,,,,,,,,,,,,15,,50,72
39960,note_on,,1,0,10,,,,,,,,,,,,,,,,6,,71,72
39960,note_on,,721,0,12,,,,,,,,,,,,,,,,8,,50,72
40079,note_on,,119,0,18,,,,,,,,,,,,,,,,15,,50,0
40079,note_on,,0,0,18,,,,,,,,,,,,,,,,15,,54,0
40079,note_on,,0,0,18,,,,,,,,,,,,,,,,15,,59,0
40079,note_on,,119,0,6,,,,,,,,,,,,,,,,2,,50,0
40079,note_on,,119,0,17,,,,,,,,,,,,,,,,13,,50,0
40079,note_on,,119,0,11,,,,,,,,,,,,,,,,7,,50,0
40079,note_on,,119,0,12,,,,,,,,,,,,,,,,8,,50,0
40080,note_on,,1,0,17,,,,,,,,,,,,,,,,13,,49,72
40080,note_on,,0,0,18,,,,,,,,,,,,,,,,15,,64,72
40080,note_on,,0,0,18,,,,,,,,,,,,,,,,15,,52,72
40080,note_on,,1,0,6,,,,,,,,,,,,,,,,2,,49,72
40080,note_on,,1,0,12,,,,,,,,,,,,,,,,8,,49,72
40080,note_on,,1,0,18,,,,,,,,,,,,,,,,15,,49,72
40199,note_on,,119,0,12,,,,,,,,,,,,,,,,8,,49,0
40199,note_on,,119,0,6,,,,,,,,,,,,,,,,2,,49,0
40199,note_on,,119,0,18,,,,,,,,,,,,,,,,15,,49,0
40199,note_on,,0,0,18,,,,,,,,,,,,,,,,15,,52,0
40199,note_on,,119,0,17,,,,,,,,,,,,,,,,13,,49,0
40199,note_on,,239,0,10,,,,,,,,,,,,,,,,6,,71,0
40200,note_on,,1,0,12,,,,,,,,,,,,,,,,8,,54,72
40200,note_on,,0,0,18,,,,,,,,,,,,,,,,15,,54,72
40200,note_on,,1,0,6,,,,,,,,,,,,,,,,2,,54,72
40200,note_on,,1,0,18,,,,,,,,,,,,,,,,15,,57,72
40200,note_on,,1,0,10,,,,,,,,,,,,,,,,6,,69,72
40200,note_on,,1,0,17,,,,,,,,,,,,,,,,13,,54,72
40319,note_on,,119,0,18,,,,,,,,,,,,,,,,15,,64,0
40319,note_on,,119,0,10,,,,,,,,,,,,,,,,6,,69,0
40319,note_on,,119,0,17,,,,,,,,,,,,,,,,13,,54,0
40319,note_on,,0,0,18,,,,,,,,,,,,,,,,15,,57,0
40319,note_on,,0,0,18,,,,,,,,,,,,,,,,15,,54,0
40319,note_on,,119,0,12,,,,,,,,,,,,,,,,8,,54,0
40319,note_on,,119,0,6,,,,,,,,,,,,,,,,2,,54,0
40320,note_on,,1,0,10,,,,,,,,,,,,,,,,6,,62,72
40320,note_on,,1,0,18,,,,,,,,,,,,,,,,15,,62,72
40439,note_on,,119,0,10,,,,,,,,,,,,,,,,6,,62,0
40439,note_on,,119,0,18,,,,,,,,,,,,,,,,15,,62,0
40440,note_on,,121,0,17,,,,,,,,,,,,,,,,13,,59,72
40440,note_on,,0,0,18,,,,,,,,,,,,,,,,15,,67,72
40440,note_on,,1,0,18,,,,,,,,,,,,,,,,15,,59,72
40440,note_on,,361,0,11,,,,,,,,,,,,,,,,7,,59,72
40440,note_on,,1,0,10,,,,,,,,,,,,,,,,6,,67,72
40499,note_on,,59,0,11,,,,,,,,,,,,,,,,7,,59,0
40559,note_on,,119,0,17,,,,,,,,,,,,,,,,13,,59,0
40559,note_on,,119,0,18,,,,,,,,,,,,,,,,15,,59,0
40560,note_on,,1,0,18,,,,,,,,,,,,,,,,15,,57,72
40560,note_on,,61,0,11,,,,,,,,,,,,,,,,7,,57,72
40560,note_on,,1,0,17,,,,,,,,,,,,,,,,13,,57,72
40619,note_on,,59,0,11,,,,,,,,,,,,,,,,7,,57,0
40679,note_on,,239,0,10,,,,,,,,,,,,,,,,6,,67,0
40679,note_on,,119,0,17,,,,,,,,,,,,,,,,13,,57,0
40679,note_on,,0,0,18,,,,,,,,,,,,,,,,15,,57,0
40679,note_on,,119,0,18,,,,,,,,,,,,,,,,15,,67,0
40680,note_on,,1,0,17,,,,,,,,,,,,,,,,13,,62,72
40680,note_on,,0,0,18,,,,,,,,,,,,,,,,15,,66,72
40680,note_on,,1,0,18,,,,,,,,,,,,,,,,15,,62,72
40680,note_on,,1,0,10,,,,,,,,,,,,,,,,6,,66,72
40680,note_on,,61,0,11,,,,,,,,,,,,,,,,7,,62,72
40799,note_on,,0,0,18,,,,,,,,,,,,,,,,15,,66,0
40799,note_on,,119,0,17,,,,,,,,,,,,,,,,13,,62,0
40799,note_on,,119,0,18,,,,,,,,,,,,,,,,15,,62,0
40799,note_on,,119,0,11,,,,,,,,,,,,,,,,7,,62,0
40799,note_on,,119,0,10,,,,,,,,,,,,,,,,6,,66,0
40800,note_on,,1,0,10,,,,,,,,,,,,,,,,6,,59,72
40800,note_on,,1,0,18,,,,,,,,,,,,,,,,15,,59,72
40920,note_on,,120,0,18,,,,,,,,,,,,,,,,15,,55,72
40920,note_on,,601,0,12,,,,,,,,,,,,,,,,8,,55,72
40920,note_on,,601,0,6,,,,,,,,,,,,,,,,2,,55,72
40920,note_on,,121,0,17,,,,,,,,,,,,,,,,13,,55,72
40979,note_on,,179,0,10,,,,,,,,,,,,,,,,6,,59,0
40980,note_on,,1,0,10,,,,,,,,,,,,,,,,6,,59,72
41039,note_on,,119,0,18,,,,,,,,,,,,,,,,15,,59,0
41039,note_on,,59,0,10,,,,,,,,,,,,,,,,6,,59,0
41040,note_on,,0,0,18,,,,,,,,,,,,,,,,15,,61,72
41040,note_on,,1,0,10,,,,,,,,,,,,,,,,6,,61,72
41040,note_on,,0,0,18,,,,,,,,,,,,,,,,15,,57,72
41040,note_on,,1,0,18,,,,,,,,,,,,,,,,15,,64,72
41099,note_on,,59,0,10,,,,,,,,,,,,,,,,6,,61,0
41100,note_on,,1,0,10,,,,,,,,,,,,,,,,6,,57,72
41159,note_on,,0,0,18,,,,,,,,,,,,,,,,15,,64,0
41159,note_on,,0,0,18,,,,,,,,,,,,,,,,15,,61,0
41159,note_on,,239,0,17,,,,,,,,,,,,,,,,13,,55,0
41159,note_on,,239,0,6,,,,,,,,,,,,,,,,2,,55,0
41159,note_on,,119,0,18,,,,,,,,,,,,,,,,15,,55,0
41159,note_on,,59,0,10,,,,,,,,,,,,,,,,6,,57,0
41159,note_on,,239,0,12,,,,,,,,,,,,,,,,8,,55,0
41160,note_on,,1,0,17,,,,,,,,,,,,,,,,13,,54,72
41160,note_on,,0,0,18,,,,,,,,,,,,,,,,15,,62,72
41160,note_on,,0,0,18,,,,,,,,,,,,,,,,15,,66,72
41160,note_on,,1,0,10,,,,,,,,,,,,,,,,6,,69,72
41160,note_on,,1,0,18,,,,,,,,,,,,,,,,15,,54,72
41160,note_on,,361,0,11,,,,,,,,,,,,,,,,7,,62,72
41160,note_on,,1,0,6,,,,,,,,,,,,,,,,2,,54,72
41160,note_on,,1,0,12,,,,,,,,,,,,,,,,8,,54,72
41279,note_on,,119,0,17,,,,,,,,,,,,,,,,13,,54,0
41279,note_on,,119,0,10,,,,,,,,,,,,,,,,6,,69,0
41279,note_on,,0,0,18,,,,,,,,,,,,,,,,15,,54,0
41279,note_on,,0,0,18,,,,,,,,,,,,,,,,15,,66,0
41279,note_on,,119,0,6,,,,,,,,,,,,,,,,2,,54,0
41279,note_on,,119,0,12,,,,,,,,,,,,,,,,8,,54,0
41279,note_on,,119,0,18,,,,,,,,,,,,,,,,15,,57,0
41280,note_on,,1,0,18,,,,,,,,,,,,,,,,15,,52,72
41280,note_on,,0,0,18,,,,,,,,,,,,,,,,15,,67,72
41280,note_on,,0,0,18,,,,,,,,,,,,,,,,15,,59,72
41280,note_on,,1,0,17,,,,,,,,,,,,,,,,13,,52,72
41280,note_on,,1,0,12,,,,,,,,,,,,,,,,8,,52,72
41280,note_on,,1,0,10,,,,,,,,,,,,,,,,6,,67,72
41280,note_on,,1,0,6,,,,,,,,,,,,,,,,2,,52,72
41399,note_on,,239,0,11,,,,,,,,,,,,,,,,7,,62,0
41399,note_on,,0,0,18,,,,,,,,,,,,,,,,15,,59,0
41399,note_on,,119,0,18,,,,,,,,,,,,,,,,15,,62,0
41400,note_on,,1,0,18,,,,,,,,,,,,,,,,15,,61,72
41400,note_on,,1,0,11,,,,,,,,,,,,,,,,7,,61,72
41400,note_on,,0,0,18,,,,,,,,,,,,,,,,15,,55,72
41519,note_on,,119,0,18,,,,,,,,,,,,,,,,15,,52,0
41519,note_on,,119,0,11,,,,,,,,,,,,,,,,7,,61,0
41519,note_on,,239,0,10,,,,,,,,,,,,,,,,6,,67,0
41519,note_on,,239,0,12,,,,,,,,,,,,,,,,8,,52,0
41519,note_on,,0,0,18,,,,,,,,,,,,,,,,15,,55,0
41519,note_on,,0,0,18,,,,,,,,,,,,,,,,15,,61,0
41519,note_on,,0,0,18,,,,,,,,,,,,,,,,15,,67,0
41519,note_on,,239,0,6,,,,,,,,,,,,,,,,2,,52,0
41519,note_on,,239,0,17,,,,,,,,,,,,,,,,13,,52,0
41520,note_on,,1,0,10,,,,,,,,,,,,,,,,6,,66,72
41520,note_on,,1,0,12,,,,,,,,,,,,,,,,8,,50,72
41520,note_on,,1,0,11,,,,,,,,,,,,,,,,7,,62,72
41520,note_on,,0,0,18,,,,,,,,,,,,,,,,15,,66,72
41520,note_on,,1,0,6,,,,,,,,,,,,,,,,2,,50,72
41520,note_on,,1,0,18,,,,,,,,,,,,,,,,15,,50,72
41520,note_on,,1,0,17,,,,,,,,,,,,,,,,13,,50,72
41520,note_on,,0,0,18,,,,,,,,,,,,,,,,15,,62,72
41520,note_on,,0,0,18,,,,,,,,,,,,,,,,15,,57,72
41639,note_on,,119,0,10,,,,,,,,,,,,,,,,6,,66,0
41639,note_on,,119,0,12,,,,,,,,,,,,,,,,8,,50,0
41640,note_on,,1,0,10,,,,,,,,,,,,,,,,6,,66,72
41640,note_on,,1,0,12,,,,,,,,,,,,,,,,8,,50,72
41699,note_on,,0,0,18,,,,,,,,,,,,,,,,15,,62,0
41699,note_on,,59,0,10,,,,,,,,,,,,,,,,6,,66,0
41699,note_on,,179,0,6,,,,,,,,,,,,,,,,2,,50,0
41699,note_on,,59,0,12,,,,,,,,,,,,,,,,8,,50,0
41699,note_on,,0,0,18,,,,,,,,,,,,,,,,15,,66,0
41699,note_on,,179,0,18,,,,,,,,,,,,,,,,15,,50,0
41699,note_on,,179,0,17,,,,,,,,,,,,,,,,13,,50,0
41699,note_on,,0,0,18,,,,,,,,,,,,,,,,15,,57,0
41700,note_on,,0,0,18,,,,,,,,,,,,,,,,15,,64,72
41700,note_on,,0,0,18,,,,,,,,,,,,,,,,15,,61,72
41700,note_on,,1,0,6,,,,,,,,,,,,,,,,2,,52,72
41700,note_on,,1,0,10,,,,,,,,,,,,,,,,6,,64,72
41700,note_on,,1,0,17,,,,,,,,,,,,,,,,13,,52,72
41700,note_on,,1,0,18,,,,,,,,,,,,,,,,15,,52,72
41700,note_on,,1,0,12,,,,,,,,,,,,,,,,8,,52,72
41700,note_on,,0,0,18,,,,,,,,,,,,,,,,15,,55,72
41759,note_on,,59,0,6,,,,,,,,,,,,,,,,2,,52,0
41759,note_on,,59,0,12,,,,,,,,,,,,,,,,8,,52,0
41759,note_on,,59,0,18,,,,,,,,,,,,,,,,15,,52,0
41759,note_on,,0,0,18,,,,,,,,,,,,,,,,15,,64,0
41759,note_on,,0,0,18,,,,,,,,,,,,,,,,15,,61,0
41759,note_on,,59,0,17,,,,,,,,,,,,,,,,13,,52,0
41759,note_on,,0,0,18,,,,,,,,,,,,,,,,15,,55,0
41759,note_on,,59,0,10,,,,,,,,,,,,,,,,6,,64,0
41759,note_on,,239,0,11,,,,,,,,,,,,,,,,7,,62,0
41760,note_on,,1,0,10,,,,,,,,,,,,,,,,6,,62,72
41760,note_on,,0,0,18,,,,,,,,,,,,,,,,15,,57,72
41760,note_on,,1,0,12,,,,,,,,,,,,,,,,8,,54,72
41760,note_on,,0,0,18,,,,,,,,,,,,,,,,15,,62,72
41760,note_on,,1,0,18,,,,,,,,,,,,,,,,15,,54,72
41760,note_on,,7201,0,5,,,,,,,,,,,,,,,,1,,69,72
41760,note_on,,7201,0,9,,,,,,,,,,,,,,,,5,,69,72
41760,note_on,,1,0,6,,,,,,,,,,,,,,,,2,,54,72
41760,note_on,,1,0,17,,,,,,,,,,,,,,,,13,,54,72
41819,note_on,,59,0,10,,,,,,,,,,,,,,,,6,,62,0
41820,note_on,,1,0,10,,,,,,,,,,,,,,,,6,,64,72
41879,note_on,,119,0,18,,,,,,,,,,,,,,,,15,,54,0
41879,note_on,,59,0,10,,,,,,,,,,,,,,,,6,,64,0
41879,note_on,,119,0,17,,,,,,,,,,,,,,,,13,,54,0
41879,note_on,,119,0,12,,,,,,,,,,,,,,,,8,,54,0
41879,note_on,,119,0,6,,,,,,,,,,,,,,,,2,,54,0
41880,note_on,,1,0,17,,,,,,,,,,,,,,,,13,,50,72
41880,note_on,,1,0,12,,,,,,,,,,,,,,,,8,,50,72
41880,note_on,,1,0,6,,,,,,,,,,,,,,,,2,,50,72
41880,note_on,,0,0,18,,,,,,,,,,,,,,,,15,,66,72
41880,note_on,,1,0,18,,,,,,,,,,,,,,,,15,,50,72
41880,note_on,,1,0,10,,,,,,,,,,,,,,,,6,,66,72
41939,note_on,,179,0,5,,,,,,,,,,,,,,,,1,,69,0
41939,note_on,,179,0,9,,,,,,,,,,,,,,,,5,,69,0
41939,note_on,,59,0,10,,,,,,,,,,,,,,,,6,,66,0
41940,note_on,,1,0,5,,,,,,,,,,,,,,,,1,,71,72
41940,note_on,,1,0,9,,,,,,,,,,,,,,,,5,,71,72
41940,note_on,,1,0,10,,,,,,,,,,,,,,,,6,,67,72
41999,note_on,,59,0,9,,,,,,,,,,,,,,,,5,,71,0
41999,note_on,,119,0,6,,,,,,,,,,,,,,,,2,,50,0
41999,note_on,,0,0,18,,,,,,,,,,,,,,,,15,,66,0
41999,note_on,,0,0,18,,,,,,,,,,,,,,,,15,,50,0
41999,note_on,,0,0,18,,,,,,,,,,,,,,,,15,,57,0
41999,note_on,,119,0,18,,,,,,,,,,,,,,,,15,,62,0
41999,note_on,,59,0,10,,,,,,,,,,,,,,,,6,,67,0
41999,note_on,,119,0,17,,,,,,,,,,,,,,,,13,,50,0
41999,note_on,,119,0,12,,,,,,,,,,,,,,,,8,,50,0
41999,note_on,,59,0,5,,,,,,,,,,,,,,,,1,,71,0
42000,note_on,,1,0,6,,,,,,,,,,,,,,,,2,,57,72
42000,note_on,,1,0,9,,,,,,,,,,,,,,,,5,,73,72
42000,note_on,,1,0,10,,,,,,,,,,,,,,,,6,,64,72
42000,note_on,,1,0,5,,,,,,,,,,,,,,,,1,,73,72
42000,note_on,,1,0,12,,,,,,,,,,,,,,,,8,,57,72
42000,note_on,,1,0,18,,,,,,,,,,,,,,,,15,,57,72
42000,note_on,,0,0,18,,,,,,,,,,,,,,,,15,,64,72
42000,note_on,,1,0,17,,,,,,,,,,,,,,,,13,,57,72
42000,note_on,,0,0,18,,,,,,,,,,,,,,,,15,,61,72
42059,note_on,,59,0,10,,,,,,,,,,,,,,,,6,,64,0
42059,note_on,,59,0,5,,,,,,,,,,,,,,,,1,,73,0
42059,note_on,,59,0,9,,,,,,,,,,,,,,,,5,,73,0
42060,note_on,,1,0,10,,,,,,,,,,,,,,,,6,,62,72
42060,note_on,,1,0,5,,,,,,,,,,,,,,,,1,,74,72
42060,note_on,,1,0,9,,,,,,,,,,,,,,,,5,,74,72
42119,note_on,,59,0,9,,,,,,,,,,,,,,,,5,,74,0
42119,note_on,,119,0,17,,,,,,,,,,,,,,,,13,,57,0
42119,note_on,,59,0,10,,,,,,,,,,,,,,,,6,,62,0
42119,note_on,,119,0,6,,,,,,,,,,,,,,,,2,,57,0
42119,note_on,,59,0,5,,,,,,,,,,,,,,,,1,,74,0
42119,note_on,,119,0,12,,,,,,,,,,,,,,,,8,,57,0
42120,note_on,,1,0,10,,,,,,,,,,,,,,,,6,,61,72
42120,note_on,,1,0,5,,,,,,,,,,,,,,,,1,,76,72
42120,note_on,,1,0,6,,,,,,,,,,,,,,,,2,,45,72
42120,note_on,,1,0,9,,,,,,,,,,,,,,,,5,,76,72
42120,note_on,,120,0,18,,,,,,,,,,,,,,,,15,,45,72
42120,note_on,,1,0,17,,,,,,,,,,,,,,,,13,,45,72
42120,note_on,,1,0,12,,,,,,,,,,,,,,,,8,,45,72
42179,note_on,,59,0,5,,,,,,,,,,,,,,,,1,,76,0
42179,note_on,,59,0,9,,,,,,,,,,,,,,,,5,,76,0
42179,note_on,,59,0,10,,,,,,,,,,,,,,,,6,,61,0
42180,note_on,,1,0,5,,,,,,,,,,,,,,,,1,,71,72
42180,note_on,,1,0,10,,,,,,,,,,,,,,,,6,,62,72
42180,note_on,,1,0,9,,,,,,,,,,,,,,,,5,,71,72
42239,note_on,,59,0,9,,,,,,,,,,,,,,,,5,,71,0
42239,note_on,,0,0,18,,,,,,,,,,,,,,,,15,,64,0
42239,note_on,,119,0,18,,,,,,,,,,,,,,,,15,,57,0
42239,note_on,,119,0,6,,,,,,,,,,,,,,,,2,,45,0
42239,note_on,,119,0,12,,,,,,,,,,,,,,,,8,,45,0
42239,note_on,,0,0,18,,,,,,,,,,,,,,,,15,,45,0
42239,note_on,,0,0,18,,,,,,,,,,,,,,,,15,,61,0
42239,note_on,,59,0,10,,,,,,,,,,,,,,,,6,,62,0
42239,note_on,,59,0,5,,,,,,,,,,,,,,,,1,,71,0
42239,note_on,,119,0,17,,,,,,,,,,,,,,,,13,,45,0
42240,note_on,,1,0,9,,,,,,,,,,,,,,,,5,,73,72
42240,note_on,,0,0,18,,,,,,,,,,,,,,,,15,,64,72
42240,note_on,,1,0,10,,,,,,,,,,,,,,,,6,,64,72
42240,note_on,,1,0,5,,,,,,,,,,,,,,,,1,,73,72
42240,note_on,,1,0,18,,,,,,,,,,,,,,,,15,,73,72
42299,note_on,,59,0,5,,,,,,,,,,,,,,,,1,,73,0
42299,note_on,,59,0,9,,,,,,,,,,,,,,,,5,,73,0
42300,note_on,,1,0,9,,,,,,,,,,,,,,,,5,,69,72
42300,note_on,,1,0,5,,,,,,,,,,,,,,,,1,,69,72
42359,note_on,,119,0,10,,,,,,,,,,,,,,,,6,,64,0
42359,note_on,,119,0,18,,,,,,,,,,,,,,,,15,,73,0
42359,note_on,,59,0,5,,,,,,,,,,,,,,,,1,,69,0
42359,note_on,,59,0,9,,,,,,,,,,,,,,,,5,,69,0
42359,note_on,,0,0,18,,,,,,,,,,,,,,,,15,,64,0
42360,note_on,,0,0,18,,,,,,,,,,,,,,,,15,,61,72
42360,note_on,,1,0,5,,,,,,,,,,,,,,,,1,,78,72
42360,note_on,,601,0,11,,,,,,,,,,,,,,,,7,,57,72
42360,note_on,,1,0,9,,,,,,,,,,,,,,,,5,,78,72
42360,note_on,,1,0,10,,,,,,,,,,,,,,,,6,,61,72
42360,note_on,,1,0,18,,,,,,,,,,,,,,,,15,,57,72
42360,note_on,,121,0,17,,,,,,,,,,,,,,,,13,,57,72
42360,note_on,,0,0,18,,,,,,,,,,,,,,,,15,,66,72
42419,note_on,,59,0,11,,,,,,,,,,,,,,,,7,,57,0
42479,note_on,,119,0,10,,,,,,,,,,,,,,,,6,,61,0
42479,note_on,,119,0,17,,,,,,,,,,,,,,,,13,,57,0
42479,note_on,,0,0,18,,,,,,,,,,,,,,,,15,,66,0
42479,note_on,,0,0,18,,,,,,,,,,,,,,,,15,,61,0
42479,note_on,,119,0,18,,,,,,,,,,,,,,,,15,,57,0
42480,note_on,,0,0,18,,,,,,,,,,,,,,,,15,,59,72
42480,note_on,,1,0,17,,,,,,,,,,,,,,,,13,,56,72
42480,note_on,,61,0,11,,,,,,,,,,,,,,,,7,,56,72
42480,note_on,,1,0,18,,,,,,,,,,,,,,,,15,,56,72
42480,note_on,,0,0,18,,,,,,,,,,,,,,,,15,,71,72
42539,note_on,,59,0,11,,,,,,,,,,,,,,,,7,,56,0
42599,note_on,,239,0,5,,,,,,,,,,,,,,,,1,,78,0
42599,note_on,,239,0,9,,,,,,,,,,,,,,,,5,,78,0
42599,note_on,,0,0,18,,,,,,,,,,,,,,,,15,,59,0
42599,note_on,,119,0,18,,,,,,,,,,,,,,,,15,,56,0
42599,note_on,,119,0,17,,,,,,,,,,,,,,,,13,,56,0
42600,note_on,,1,0,18,,,,,,,,,,,,,,,,15,,61,72
42600,note_on,,61,0,11,,,,,,,,,,,,,,,,7,,61,72
42600,note_on,,1,0,5,,,,,,,,,,,,,,,,1,,76,72
42600,note_on,,0,0,18,,,,,,,,,,,,,,,,15,,64,72
42600,note_on,,1,0,17,,,,,,,,,,,,,,,,13,,61,72
42600,note_on,,1,0,9,,,,,,,,,,,,,,,,5,,76,72
42719,note_on,,119,0,5,,,,,,,,,,,,,,,,1,,76,0
42719,note_on,,119,0,11,,,,,,,,,,,,,,,,7,,61,0
42719,note_on,,119,0,18,,,,,,,,,,,,,,,,15,,71,0
42719,note_on,,0,0,18,,,,,,,,,,,,,,,,15,,61,0
42719,note_on,,0,0,18,,,,,,,,,,,,,,,,15,,64,0
42719,note_on,,119,0,9,,,,,,,,,,,,,,,,5,,76,0
42719,note_on,,119,0,17,,,,,,,,,,,,,,,,13,,61,0
42720,note_on,,1,0,9,,,,,,,,,,,,,,,,5,,69,72
42720,note_on,,1,0,18,,,,,,,,,,,,,,,,15,,69,72
42720,note_on,,1,0,5,,,,,,,,,,,,,,,,1,,69,72
42839,note_on,,119,0,5,,,,,,,,,,,,,,,,1,,69,0
42839,note_on,,119,0,9,,,,,,,,,,,,,,,,5,,69,0
42839,note_on,,119,0,18,,,,,,,,,,,,,,,,15,,69,0
42840,note_on,,1,0,9,,,,,,,,,,,,,,,,5,,74,72
42840,note_on,,361,0,10,,,,,,,,,,,,,,,,6,,66,72
42840,note_on,,121,0,17,,,,,,,,,,,,,,,,13,,66,72
42840,note_on,,0,0,18,,,,,,,,,,,,,,,,15,,74,72
42840,note_on,,1,0,5,,,,,,,,,,,,,,,,1,,74,72
42840,note_on,,1,0,18,,,,,,,,,,,,,,,,15,,66,72
42899,note_on,,59,0,10,,,,,,,,,,,,,,,,6,,66,0
42959,note_on,,119,0,18,,,,,,,,,,,,,,,,15,,66,0
42959,note_on,,119,0,17,,,,,,,,,,,,,,,,13,,66,0
42960,note_on,,1,0,17,,,,,,,,,,,,,,,,13,,64,72
42960,note_on,,61,0,10,,,,,,,,,,,,,,,,6,,64,72
42960,note_on,,1,0,18,,,,,,,,,,,,,,,,15,,64,72
43019,note_on,,59,0,10,,,,,,,,,,,,,,,,6,,64,0
43079,note_on,,239,0,5,,,,,,,,,,,,,,,,1,,74,0
43079,note_on,,119,0,18,,,,,,,,,,,,,,,,15,,74,0
43079,note_on,,119,0,17,,,,,,,,,,,,,,,,13,,64,0
43079,note_on,,239,0,9,,,,,,,,,,,,,,,,5,,74,0
43079,note_on,,0,0,18,,,,,,,,,,,,,,,,15,,64,0
43080,note_on,,1,0,17,,,,,,,,,,,,,,,,13,,69,72
43080,note_on,,1,0,5,,,,,,,,,,,,,,,,1,,73,72
43080,note_on,,61,0,10,,,,,,,,,,,,,,,,6,,69,72
43080,note_on,,1,0,9,,,,,,,,,,,,,,,,5,,73,72
43080,note_on,,1,0,18,,,,,,,,,,,,,,,,15,,69,72
43080,note_on,,0,0,18,,,,,,,,,,,,,,,,15,,73,72
43199,note_on,,119,0,10,,,,,,,,,,,,,,,,6,,69,0
43199,note_on,,119,0,5,,,,,,,,,,,,,,,,1,,73,0
43199,note_on,,119,0,9,,,,,,,,,,,,,,,,5,,73,0
43199,note_on,,0,0,18,,,,,,,,,,,,,,,,15,,73,0
43199,note_on,,119,0,18,,,,,,,,,,,,,,,,15,,69,0
43199,note_on,,119,0,17,,,,,,,,,,,,,,,,13,,69,0
43200,note_on,,1,0,9,,,,,,,,,,,,,,,,5,,78,72
43200,note_on,,1,0,5,,,,,,,,,,,,,,,,1,,78,72
43200,note_on,,1,0,18,,,,,,,,,,,,,,,,15,,66,72
43320,note_on,,120,0,18,,,,,,,,,,,,,,,,15,,50,72
43320,note_on,,1081,0,6,,,,,,,,,,,,,,,,2,,50,72
43320,note_on,,121,0,17,,,,,,,,,,,,,,,,13,,50,72
43320,note_on,,1081,0,12,,,,,,,,,,,,,,,,8,,62,72
43320,note_on,,121,0,10,,,,,,,,,,,,,,,,6,,69,72
43320,note_on,,601,0,11,,,,,,,,,,,,,,,,7,,66,72
43439,note_on,,119,0,10,,,,,,,,,,,,,,,,6,,69,0
43439,note_on,,119,0,18,,,,,,,,,,,,,,,,15,,66,0
43439,note_on,,239,0,9,,,,,,,,,,,,,,,,5,,78,0
43439,note_on,,239,0,5,,,,,,,,,,,,,,,,1,,78,0
43439,note_on,,119,0,11,,,,,,,,,,,,,,,,7,,66,0
43440,note_on,,1,0,9,,,,,,,,,,,,,,,,5,,76,72
43440,note_on,,1,0,11,,,,,,,,,,,,,,,,7,,68,72
43440,note_on,,0,0,18,,,,,,,,,,,,,,,,15,,55,72
43440,note_on,,1,0,18,,,,,,,,,,,,,,,,15,,68,72
43440,note_on,,1,0,10,,,,,,,,,,,,,,,,6,,71,72
43440,note_on,,1,0,5,,,,,,,,,,,,,,,,1,,76,72
43440,note_on,,0,0,18,,,,,,,,,,,,,,,,15,,64,72
43559,note_on,,119,0,18,,,,,,,,,,,,,,,,15,,50,0
43559,note_on,,0,0,18,,,,,,,,,,,,,,,,15,,68,0
43559,note_on,,0,0,18,,,,,,,,,,,,,,,,15,,64,0
43559,note_on,,239,0,12,,,,,,,,,,,,,,,,8,,62,0
43559,note_on,,0,0,18,,,,,,,,,,,,,,,,15,,55,0
43559,note_on,,239,0,17,,,,,,,,,,,,,,,,13,,50,0
43559,note_on,,239,0,6,,,,,,,,,,,,,,,,2,,50,0
43559,note_on,,119,0,11,,,,,,,,,,,,,,,,7,,68,0
43559,note_on,,119,0,10,,,,,,,,,,,,,,,,6,,71,0
43560,note_on,,0,0,18,,,,,,,,,,,,,,,,15,,69,72
43560,note_on,,0,0,18,,,,,,,,,,,,,,,,15,,64,72
43560,note_on,,0,0,18,,,,,,,,,,,,,,,,15,,61,72
43560,note_on,,1,0,18,,,,,,,,,,,,,,,,15,,49,72
43560,note_on,,1,0,11,,,,,,,,,,,,,,,,7,,64,72
43560,note_on,,1,0,10,,,,,,,,,,,,,,,,6,,69,72
43560,note_on,,1,0,17,,,,,,,,,,,,,,,,13,,49,72
43560,note_on,,1,0,6,,,,,,,,,,,,,,,,2,,49,72
43560,note_on,,1,0,12,,,,,,,,,,,,,,,,8,,61,72
43679,note_on,,239,0,9,,,,,,,,,,,,,,,,5,,76,0
43679,note_on,,0,0,18,,,,,,,,,,,,,,,,15,,61,0
43679,note_on,,0,0,18,,,,,,,,,,,,,,,,15,,64,0
43679,note_on,,0,0,18,,,,,,,,,,,,,,,,15,,69,0
43679,note_on,,119,0,18,,,,,,,,,,,,,,,,15,,49,0
43679,note_on,,119,0,6,,,,,,,,,,,,,,,,2,,49,0
43679,note_on,,119,0,17,,,,,,,,,,,,,,,,13,,49,0
43679,note_on,,119,0,11,,,,,,,,,,,,,,,,7,,64,0
43679,note_on,,239,0,5,,,,,,,,,,,,,,,,1,,76,0
43679,note_on,,119,0,10,,,,,,,,,,,,,,,,6,,69,0
43679,note_on,,119,0,12,,,,,,,,,,,,,,,,8,,61,0
43680,note_on,,1,0,10,,,,,,,,,,,,,,,,6,,69,72
43680,note_on,,1,0,12,,,,,,,,,,,,,,,,8,,59,72
43680,note_on,,1,0,6,,,,,,,,,,,,,,,,2,,47,72
43680,note_on,,1,0,17,,,,,,,,,,,,,,,,13,,47,72
43680,note_on,,1,0,11,,,,,,,,,,,,,,,,7,,66,72
43680,note_on,,1,0,5,,,,,,,,,,,,,,,,1,,74,72
43680,note_on,,1,0,18,,,,,,,,,,,,,,,,15,,47,72
43680,note_on,,0,0,18,,,,,,,,,,,,,,,,15,,71,72
43680,note_on,,0,0,18,,,,,,,,,,,,,,,,15,,69,72
43680,note_on,,0,0,18,,,,,,,,,,,,,,,,15,,62,72
43680,note_on,,1,0,9,,,,,,,,,,,,,,,,5,,74,72
43799,note_on,,119,0,18,,,,,,,,,,,,,,,,15,,62,0
43799,note_on,,119,0,11,,,,,,,,,,,,,,,,7,,66,0
43799,note_on,,0,0,18,,,,,,,,,,,,,,,,15,,69,0
43799,note_on,,119,0,10,,,,,,,,,,,,,,,,6,,69,0
43800,note_on,,1,0,18,,,,,,,,,,,,,,,,15,,68,72
43800,note_on,,0,0,18,,,,,,,,,,,,,,,,15,,50,72
43800,note_on,,1,0,10,,,,,,,,,,,,,,,,6,,68,72
43800,note_on,,1,0,11,,,,,,,,,,,,,,,,7,,64,72
43859,note_on,,59,0,11,,,,,,,,,,,,,,,,7,,64,0
43860,note_on,,1,0,11,,,,,,,,,,,,,,,,7,,62,72
43919,note_on,,0,0,18,,,,,,,,,,,,,,,,15,,50,0
43919,note_on,,0,0,18,,,,,,,,,,,,,,,,15,,68,0
43919,note_on,,239,0,5,,,,,,,,,,,,,,,,1,,74,0
43919,note_on,,119,0,10,,,,,,,,,,,,,,,,6,,68,0
43919,note_on,,239,0,6,,,,,,,,,,,,,,,,2,,47,0
43919,note_on,,119,0,18,,,,,,,,,,,,,,,,15,,47,0
43919,note_on,,0,0,18,,,,,,,,,,,,,,,,15,,71,0
43919,note_on,,239,0,9,,,,,,,,,,,,,,,,5,,74,0
43919,note_on,,59,0,11,,,,,,,,,,,,,,,,7,,62,0
43919,note_on,,239,0,17,,,,,,,,,,,,,,,,13,,47,0
43919,note_on,,239,0,12,,,,,,,,,,,,,,,,8,,59,0
43920,note_on,,1,0,9,,,,,,,,,,,,,,,,5,,73,72
43920,note_on,,1,0,11,,,,,,,,,,,,,,,,7,,64,72
43920,note_on,,1,0,17,,,,,,,,,,,,,,,,13,,45,72
43920,note_on,,1,0,5,,,,,,,,,,,,,,,,1,,73,72
43920,note_on,,0,0,18,,,,,,,,,,,,,,,,15,,69,72
43920,note_on,,0,0,18,,,,,,,,,,,,,,,,15,,73,72
43920,note_on,,1,0,10,,,,,,,,,,,,,,,,6,,69,72
43920,note_on,,1,0,6,,,,,,,,,,,,,,,,2,,45,72
43920,note_on,,1,0,12,,,,,,,,,,,,,,,,8,,57,72
43920,note_on,,1,0,18,,,,,,,,,,,,,,,,15,,45,72
43920,note_on,,0,0,18,,,,,,,,,,,,,,,,15,,64,72
43920,note_on,,0,0,18,,,,,,,,,,,,,,,,15,,57,72
44159,note_on,,0,0,18,,,,,,,,,,,,,,,,15,,73,0
44159,note_on,,0,0,18,,,,,,,,,,,,,,,,15,,64,0
44159,note_on,,239,0,10,,,,,,,,,,,,,,,,6,,69,0
44159,note_on,,239,0,5,,,,,,,,,,,,,,,,1,,73,0
44159,note_on,,239,0,6,,,,,,,,,,,,,,,,2,,45,0
44159,note_on,,239,0,17,,,,,,,,,,,,,,,,13,,45,0
44159,note_on,,239,0,11,,,,,,,,,,,,,,,,7,,64,0
44159,note_on,,239,0,18,,,,,,,,,,,,,,,,15,,45,0
44159,note_on,,239,0,9,,,,,,,,,,,,,,,,5,,73,0
44159,note_on,,0,0,18,,,,,,,,,,,,,,,,15,,57,0
44159,note_on,,0,0,18,,,,,,,,,,,,,,,,15,,69,0
44159,note_on,,239,0,12,,,,,,,,,,,,,,,,8,,57,0
44160,note_on,,9601,0,14,,,,,,,,,,,,,,,,10,,74,72
44160,note_on,,1,0,18,,,,,,,,,,,,,,,,15,,74,72
44339,note_on,,179,0,18,,,,,,,,,,,,,,,,15,,74,0
44339,note_on,,179,0,14,,,,,,,,,,,,,,,,10,,74,0
44340,note_on,,1,0,18,,,,,,,,,,,,,,,,15,,76,72
44340,note_on,,1,0,14,,,,,,,,,,,,,,,,10,,76,72
44399,note_on,,59,0,14,,,,,,,,,,,,,,,,10,,76,0
44399,note_on,,59,0,18,,,,,,,,,,,,,,,,15,,76,0
44400,note_on,,1,0,14,,,,,,,,,,,,,,,,10,,78,72
44400,note_on,,1,0,18,,,,,,,,,,,,,,,,15,,78,72
44459,note_on,,59,0,14,,,,,,,,,,,,,,,,10,,78,0
44459,note_on,,59,0,18,,,,,,,,,,,,,,,,15,,78,0
44460,note_on,,1,0,14,,,,,,,,,,,,,,,,10,,79,72
44460,note_on,,1,0,18,,,,,,,,,,,,,,,,15,,79,72
44519,note_on,,59,0,14,,,,,,,,,,,,,,,,10,,79,0
44519,note_on,,59,0,18,,,,,,,,,,,,,,,,15,,79,0
44520,note_on,,1,0,18,,,,,,,,,,,,,,,,15,,81,72
44520,note_on,,1,0,14,,,,,,,,,,,,,,,,10,,81,72
44579,note_on,,59,0,14,,,,,,,,,,,,,,,,10,,81,0
44579,note_on,,59,0,18,,,,,,,,,,,,,,,,15,,81,0
44580,note_on,,1,0,18,,,,,,,,,,,,,,,,15,,76,72
44580,note_on,,1,0,14,,,,,,,,,,,,,,,,10,,76,72
44639,note_on,,59,0,18,,,,,,,,,,,,,,,,15,,76,0
44639,note_on,,59,0,14,,,,,,,,,,,,,,,,10,,76,0
44640,note_on,,1,0,18,,,,,,,,,,,,,,,,15,,78,72
44640,note_on,,1,0,14,,,,,,,,,,,,,,,,10,,78,72
44699,note_on,,59,0,18,,,,,,,,,,,,,,,,15,,78,0
44699,note_on,,59,0,14,,,,,,,,,,,,,,,,10,,78,0
44700,note_on,,1,0,18,,,,,,,,,,,,,,,,15,,74,72
44700,note_on,,1,0,14,,,,,,,,,,,,,,,,10,,74,72
44759,note_on,,59,0,18,,,,,,,,,,,,,,,,15,,74,0
44759,note_on,,59,0,14,,,,,,,,,,,,,,,,10,,74,0
44760,note_on,,1,0,18,,,,,,,,,,,,,,,,15,,83,72
44760,note_on,,1,0,14,,,,,,,,,,,,,,,,10,,83,72
44999,note_on,,239,0,14,,,,,,,,,,,,,,,,10,,83,0
44999,note_on,,239,0,18,,,,,,,,,,,,,,,,15,,83,0
45000,note_on,,1,0,14,,,,,,,,,,,,,,,,10,,81,72
45000,note_on,,1,0,18,,,,,,,,,,,,,,,,15,,81,72
45119,note_on,,119,0,18,,,,,,,,,,,,,,,,15,,81,0
45119,note_on,,119,0,14,,,,,,,,,,,,,,,,10,,81,0
45120,note_on,,1,0,14,,,,,,,,,,,,,,,,10,,74,72
45120,note_on,,1,0,18,,,,,,,,,,,,,,,,15,,74,72
45239,note_on,,119,0,18,,,,,,,,,,,,,,,,15,,74,0
45239,note_on,,119,0,14,,,,,,,,,,,,,,,,10,,74,0
45240,note_on,,1,0,14,,,,,,,,,,,,,,,,10,,79,72
45240,note_on,,1,0,18,,,,,,,,,,,,,,,,15,,79,72
45479,note_on,,239,0,14,,,,,,,,,,,,,,,,10,,79,0
45479,note_on,,239,0,18,,,,,,,,,,,,,,,,15,,79,0
45480,note_on,,1,0,18,,,,,,,,,,,,,,,,15,,78,72
45480,note_on,,1,0,14,,,,,,,,,,,,,,,,10,,78,72
45599,note_on,,119,0,18,,,,,,,,,,,,,,,,15,,78,0
45599,note_on,,119,0,14,,,,,,,,,,,,,,,,10,,78,0
45600,note_on,,1,0,18,,,,,,,,,,,,,,,,15,,83,72
45600,note_on,,1,0,14,,,,,,,,,,,,,,,,10,,83,72
45779,note_on,,179,0,18,,,,,,,,,,,,,,,,15,,83,0
45779,note_on,,179,0,14,,,,,,,,,,,,,,,,10,,83,0
45780,note_on,,1,0,18,,,,,,,,,,,,,,,,15,,85,72
45780,note_on,,1,0,14,,,,,,,,,,,,,,,,10,,85,72
45809,note_on,,29,0,18,,,,,,,,,,,,,,,,15,,85,0
45809,note_on,,29,0,14,,,,,,,,,,,,,,,,10,,85,0
45810,note_on,,1,0,14,,,,,,,,,,,,,,,,10,,83,72
45810,note_on,,1,0,18,,,,,,,,,,,,,,,,15,,83,72
45839,note_on,,29,0,14,,,,,,,,,,,,,,,,10,,83,0
45839,note_on,,29,0,18,,,,,,,,,,,,,,,,15,,83,0
45840,note_on,,1,0,18,,,,,,,,,,,,,,,,15,,85,72
45840,note_on,,1,0,14,,,,,,,,,,,,,,,,10,,85,72
45899,note_on,,59,0,18,,,,,,,,,,,,,,,,15,,85,0
45899,note_on,,59,0,14,,,,,,,,,,,,,,,,10,,85,0
45900,note_on,,1,0,18,,,,,,,,,,,,,,,,15,,81,72
45900,note_on,,1,0,14,,,,,,,,,,,,,,,,10,,81,72
45959,note_on,,59,0,14,,,,,,,,,,,,,,,,10,,81,0
45959,note_on,,59,0,18,,,,,,,,,,,,,,,,15,,81,0
45960,note_on,,1,0,14,,,,,,,,,,,,,,,,10,,86,72
45960,note_on,,1,0,18,,,,,,,,,,,,,,,,15,,86,72
46019,note_on,,59,0,18,,,,,,,,,,,,,,,,15,,86,0
46019,note_on,,59,0,14,,,,,,,,,,,,,,,,10,,86,0
46020,note_on,,1,0,14,,,,,,,,,,,,,,,,10,,78,72
46020,note_on,,1,0,18,,,,,,,,,,,,,,,,15,,78,72
46079,note_on,,59,0,14,,,,,,,,,,,,,,,,10,,78,0
46079,note_on,,59,0,18,,,,,,,,,,,,,,,,15,,78,0
46080,note_on,,1,0,18,,,,,,,,,,,,,,,,15,,79,72
46080,note_on,,1,0,14,,,,,,,,,,,,,,,,10,,79,72
46139,note_on,,59,0,18,,,,,,,,,,,,,,,,15,,79,0
46139,note_on,,59,0,14,,,,,,,,,,,,,,,,10,,79,0
46140,note_on,,1,0,18,,,,,,,,,,,,,,,,15,,78,72
46140,note_on,,1,0,14,,,,,,,,,,,,,,,,10,,76,72
46199,note_on,,59,0,14,,,,,,,,,,,,,,,,10,,76,0
46199,note_on,,59,0,18,,,,,,,,,,,,,,,,15,,78,0
46200,note_on,,1,0,18,,,,,,,,,,,,,,,,15,,81,72
46200,note_on,,1,0,14,,,,,,,,,,,,,,,,10,,81,72
46259,note_on,,59,0,14,,,,,,,,,,,,,,,,10,,81,0
46259,note_on,,59,0,18,,,,,,,,,,,,,,,,15,,81,0
46260,note_on,,1,0,18,,,,,,,,,,,,,,,,15,,79,72
46260,note_on,,1,0,14,,,,,,,,,,,,,,,,10,,79,72
46319,note_on,,59,0,14,,,,,,,,,,,,,,,,10,,79,0
46319,note_on,,59,0,18,,,,,,,,,,,,,,,,15,,79,0
46320,note_on,,1,0,14,,,,,,,,,,,,,,,,10,,78,72
46320,note_on,,1,0,18,,,,,,,,,,,,,,,,15,,78,72
46379,note_on,,59,0,14,,,,,,,,,,,,,,,,10,,78,0
46379,note_on,,59,0,18,,,,,,,,,,,,,,,,15,,78,0
46380,note_on,,1,0,18,,,,,,,,,,,,,,,,15,,74,72
46380,note_on,,1,0,14,,,,,,,,,,,,,,,,10,,74,72
46439,note_on,,59,0,14,,,,,,,,,,,,,,,,10,,74,0
46439,note_on,,59,0,18,,,,,,,,,,,,,,,,15,,74,0
46440,note_on,,1,0,14,,,,,,,,,,,,,,,,10,,78,72
46440,note_on,,1,0,18,,,,,,,,,,,,,,,,15,,78,72
46499,note_on,,59,0,14,,,,,,,,,,,,,,,,10,,78,0
46499,note_on,,59,0,18,,,,,,,,,,,,,,,,15,,78,0
46500,note_on,,1,0,14,,,,,,,,,,,,,,,,10,,80,72
46500,note_on,,1,0,18,,,,,,,,,,,,,,,,15,,80,72
46559,note_on,,59,0,18,,,,,,,,,,,,,,,,15,,80,0
46559,note_on,,59,0,14,,,,,,,,,,,,,,,,10,,80,0
46560,note_on,,0,0,18,,,,,,,,,,,,,,,,15,,69,72
46560,note_on,,1,0,18,,,,,,,,,,,,,,,,15,,81,72
46560,note_on,,1,0,14,,,,,,,,,,,,,,,,10,,81,72
46560,note_on,,12001,0,15,,,,,,,,,,,,,,,,11,,69,72
46619,note_on,,59,0,14,,,,,,,,,,,,,,,,10,,81,0
46619,note_on,,59,0,18,,,,,,,,,,,,,,,,15,,81,0
46620,note_on,,1,0,18,,,,,,,,,,,,,,,,15,,76,72
46620,note_on,,1,0,14,,,,,,,,,,,,,,,,10,,76,72
46679,note_on,,59,0,18,,,,,,,,,,,,,,,,15,,76,0
46679,note_on,,59,0,14,,,,,,,,,,,,,,,,10,,76,0
46680,note_on,,1,0,18,,,,,,,,,,,,,,,,15,,81,72
46680,note_on,,1,0,14,,,,,,,,,,,,,,,,10,,81,72
46739,note_on,,59,0,18,,,,,,,,,,,,,,,,15,,69,0
46739,note_on,,179,0,15,,,,,,,,,,,,,,,,11,,69,0
46740,note_on,,1,0,18,,,,,,,,,,,,,,,,15,,71,72
46740,note_on,,1,0,15,,,,,,,,,,,,,,,,11,,71,72
46799,note_on,,59,0,15,,,,,,,,,,,,,,,,11,,71,0
46799,note_on,,59,0,18,,,,,,,,,,,,,,,,15,,71,0
46800,note_on,,1,0,15,,,,,,,,,,,,,,,,11,,73,72
46800,note_on,,1,0,18,,,,,,,,,,,,,,,,15,,73,72
46859,note_on,,59,0,15,,,,,,,,,,,,,,,,11,,73,0
46859,note_on,,59,0,18,,,,,,,,,,,,,,,,15,,73,0
46860,note_on,,1,0,18,,,,,,,,,,,,,,,,15,,74,72
46860,note_on,,1,0,15,,,,,,,,,,,,,,,,11,,74,72
46919,note_on,,0,0,18,,,,,,,,,,,,,,,,15,,74,0
46919,note_on,,59,0,18,,,,,,,,,,,,,,,,15,,81,0
46919,note_on,,239,0,14,,,,,,,,,,,,,,,,10,,81,0
46919,note_on,,59,0,15,,,,,,,,,,,,,,,,11,,74,0
46920,note_on,,1,0,14,,,,,,,,,,,,,,,,10,,80,72
46920,note_on,,1,0,15,,,,,,,,,,,,,,,,11,,76,72
46920,note_on,,1,0,18,,,,,,,,,,,,,,,,15,,76,72
46920,note_on,,0,0,18,,,,,,,,,,,,,,,,15,,80,72
46979,note_on,,59,0,18,,,,,,,,,,,,,,,,15,,76,0
46979,note_on,,59,0,15,,,,,,,,,,,,,,,,11,,76,0
46980,note_on,,1,0,15,,,,,,,,,,,,,,,,11,,71,72
46980,note_on,,1,0,18,,,,,,,,,,,,,,,,15,,71,72
47039,note_on,,0,0,18,,,,,,,,,,,,,,,,15,,71,0
47039,note_on,,119,0,14,,,,,,,,,,,,,,,,10,,80,0
47039,note_on,,59,0,18,,,,,,,,,,,,,,,,15,,80,0
47039,note_on,,59,0,15,,,,,,,,,,,,,,,,11,,71,0
47040,note_on,,1,0,15,,,,,,,,,,,,,,,,11,,73,72
47040,note_on,,1,0,18,,,,,,,,,,,,,,,,15,,81,72
47040,note_on,,0,0,18,,,,,,,,,,,,,,,,15,,73,72
47040,note_on,,1,0,14,,,,,,,,,,,,,,,,10,,81,72
47099,note_on,,59,0,15,,,,,,,,,,,,,,,,11,,73,0
47099,note_on,,59,0,18,,,,,,,,,,,,,,,,15,,73,0
47100,note_on,,1,0,15,,,,,,,,,,,,,,,,11,,69,72
47100,note_on,,1,0,18,,,,,,,,,,,,,,,,15,,69,72
47159,note_on,,0,0,18,,,,,,,,,,,,,,,,15,,69,0
47159,note_on,,59,0,18,,,,,,,,,,,,,,,,15,,81,0
47159,note_on,,59,0,15,,,,,,,,,,,,,,,,11,,69,0
47159,note_on,,119,0,14,,,,,,,,,,,,,,,,10,,81,0
47160,note_on,,1,0,18,,,,,,,,,,,,,,,,15,,78,72
47160,note_on,,1,0,15,,,,,,,,,,,,,,,,11,,78,72
47220,note_on,,61,0,14,,,,,,,,,,,,,,,,10,,81,72
47220,note_on,,60,0,18,,,,,,,,,,,,,,,,15,,81,72
47279,note_on,,59,0,14,,,,,,,,,,,,,,,,10,,81,0
47279,note_on,,59,0,18,,,,,,,,,,,,,,,,15,,81,0
47280,note_on,,1,0,18,,,,,,,,,,,,,,,,15,,80,72
47280,note_on,,1,0,14,,,,,,,,,,,,,,,,10,,80,72
47369,note_on,,89,0,14,,,,,,,,,,,,,,,,10,,80,0
47399,note_on,,0,0,18,,,,,,,,,,,,,,,,15,,80,0
47399,note_on,,119,0,18,,,,,,,,,,,,,,,,15,,78,0
47399,note_on,,239,0,15,,,,,,,,,,,,,,,,11,,78,0
47400,note_on,,31,0,14,,,,,,,,,,,,,,,,10,,85,72
47400,note_on,,1,0,15,,,,,,,,,,,,,,,,11,,76,72
47400,note_on,,1,0,18,,,,,,,,,,,,,,,,15,,85,72
47400,note_on,,0,0,18,,,,,,,,,,,,,,,,15,,76,72
47489,note_on,,89,0,14,,,,,,,,,,,,,,,,10,,85,0
47519,note_on,,119,0,15,,,,,,,,,,,,,,,,11,,76,0
47519,note_on,,119,0,18,,,,,,,,,,,,,,,,15,,85,0
47519,note_on,,0,0,18,,,,,,,,,,,,,,,,15,,76,0
47520,note_on,,1,0,15,,,,,,,,,,,,,,,,11,,69,72
47520,note_on,,1,0,18,,,,,,,,,,,,,,,,15,,69,72
47580,note_on,,91,0,14,,,,,,,,,,,,,,,,10,,85,72
47580,note_on,,60,0,18,,,,,,,,,,,,,,,,15,,85,72
47639,note_on,,59,0,14,,,,,,,,,,,,,,,,10,,85,0
47639,note_on,,0,0,18,,,,,,,,,,,,,,,,15,,85,0
47639,note_on,,59,0,18,,,,,,,,,,,,,,,,15,,69,0
47639,note_on,,119,0,15,,,,,,,,,,,,,,,,11,,69,0
47640,note_on,,0,0,18,,,,,,,,,,,,,,,,15,,83,72
47640,note_on,,1,0,18,,,,,,,,,,,,,,,,15,,74,72
47640,note_on,,1,0,15,,,,,,,,,,,,,,,,11,,74,72
47640,note_on,,1,0,14,,,,,,,,,,,,,,,,10,,83,72
47699,note_on,,59,0,18,,,,,,,,,,,,,,,,15,,83,0
47699,note_on,,59,0,14,,,,,,,,,,,,,,,,10,,83,0
47700,note_on,,1,0,18,,,,,,,,,,,,,,,,15,,81,72
47700,note_on,,1,0,14,,,,,,,,,,,,,,,,10,,81,72
47759,note_on,,59,0,14,,,,,,,,,,,,,,,,10,,81,0
47759,note_on,,59,0,18,,,,,,,,,,,,,,,,15,,81,0
47760,note_on,,1,0,14,,,,,,,,,,,,,,,,10,,80,72
47760,note_on,,1,0,18,,,,,,,,,,,,,,,,15,,80,72
47819,note_on,,59,0,18,,,,,,,,,,,,,,,,15,,80,0
47819,note_on,,59,0,14,,,,,,,,,,,,,,,,10,,80,0
47820,note_on,,1,0,14,,,,,,,,,,,,,,,,10,,83,72
47820,note_on,,1,0,18,,,,,,,,,,,,,,,,15,,83,72
47879,note_on,,59,0,18,,,,,,,,,,,,,,,,15,,74,0
47879,note_on,,0,0,18,,,,,,,,,,,,,,,,15,,83,0
47879,note_on,,59,0,14,,,,,,,,,,,,,,,,10,,83,0
47879,note_on,,239,0,15,,,,,,,,,,,,,,,,11,,74,0
47880,note_on,,1,0,18,,,,,,,,,,,,,,,,15,,76,72
47880,note_on,,1,0,15,,,,,,,,,,,,,,,,11,,73,72
47880,note_on,,1,0,14,,,,,,,,,,,,,,,,10,,76,72
47880,note_on,,0,0,18,,,,,,,,,,,,,,,,15,,73,72
47999,note_on,,119,0,18,,,,,,,,,,,,,,,,15,,76,0
47999,note_on,,119,0,14,,,,,,,,,,,,,,,,10,,76,0
47999,note_on,,0,0,18,,,,,,,,,,,,,,,,15,,73,0
47999,note_on,,119,0,15,,,,,,,,,,,,,,,,11,,73,0
48000,note_on,,1,0,15,,,,,,,,,,,,,,,,11,,78,72
48000,note_on,,1,0,18,,,,,,,,,,,,,,,,15,,78,72
48060,note_on,,61,0,14,,,,,,,,,,,,,,,,10,,81,72
48060,note_on,,60,0,18,,,,,,,,,,,,,,,,15,,81,72
48119,note_on,,59,0,14,,,,,,,,,,,,,,,,10,,81,0
48119,note_on,,59,0,18,,,,,,,,,,,,,,,,15,,81,0
48120,note_on,,1,0,18,,,,,,,,,,,,,,,,15,,86,72
48120,note_on,,1,0,14,,,,,,,,,,,,,,,,10,,86,72
48179,note_on,,179,0,15,,,,,,,,,,,,,,,,11,,78,0
48179,note_on,,59,0,18,,,,,,,,,,,,,,,,15,,78,0
48180,note_on,,1,0,18,,,,,,,,,,,,,,,,15,,80,72
48180,note_on,,1,0,15,,,,,,,,,,,,,,,,11,,80,72
48209,note_on,,29,0,18,,,,,,,,,,,,,,,,15,,80,0
48209,note_on,,29,0,15,,,,,,,,,,,,,,,,11,,80,0
48210,note_on,,1,0,15,,,,,,,,,,,,,,,,11,,78,72
48210,note_on,,1,0,18,,,,,,,,,,,,,,,,15,,78,72
48239,note_on,,29,0,15,,,,,,,,,,,,,,,,11,,78,0
48239,note_on,,29,0,18,,,,,,,,,,,,,,,,15,,78,0
48240,note_on,,1,0,18,,,,,,,,,,,,,,,,15,,80,72
48240,note_on,,1,0,15,,,,,,,,,,,,,,,,11,,80,72
48299,note_on,,59,0,15,,,,,,,,,,,,,,,,11,,80,0
48299,note_on,,59,0,18,,,,,,,,,,,,,,,,15,,80,0
48300,note_on,,1,0,18,,,,,,,,,,,,,,,,15,,76,72
48300,note_on,,1,0,15,,,,,,,,,,,,,,,,11,,76,72
48359,note_on,,59,0,15,,,,,,,,,,,,,,,,11,,76,0
48359,note_on,,59,0,18,,,,,,,,,,,,,,,,15,,86,0
48359,note_on,,0,0,18,,,,,,,,,,,,,,,,15,,76,0
48359,note_on,,239,0,14,,,,,,,,,,,,,,,,10,,86,0
48360,note_on,,1,0,15,,,,,,,,,,,,,,,,11,,81,72
48360,note_on,,1,0,18,,,,,,,,,,,,,,,,15,,81,72
48360,note_on,,0,0,18,,,,,,,,,,,,,,,,15,,85,72
48360,note_on,,1,0,14,,,,,,,,,,,,,,,,10,,85,72
48479,note_on,,119,0,14,,,,,,,,,,,,,,,,10,,85,0
48479,note_on,,119,0,18,,,,,,,,,,,,,,,,15,,85,0
48480,note_on,,1,0,18,,,,,,,,,,,,,,,,15,,83,72
48480,note_on,,1,0,14,,,,,,,,,,,,,,,,10,,83,72
48539,note_on,,179,0,15,,,,,,,,,,,,,,,,11,,81,0
48539,note_on,,59,0,18,,,,,,,,,,,,,,,,15,,81,0
48540,note_on,,1,0,15,,,,,,,,,,,,,,,,11,,74,72
48540,note_on,,1,0,18,,,,,,,,,,,,,,,,15,,74,72
48599,note_on,,59,0,18,,,,,,,,,,,,,,,,15,,74,0
48599,note_on,,59,0,15,,,,,,,,,,,,,,,,11,,74,0
48600,note_on,,1,0,18,,,,,,,,,,,,,,,,15,,79,72
48600,note_on,,1,0,15,,,,,,,,,,,,,,,,11,,79,72
48719,note_on,,119,0,18,,,,,,,,,,,,,,,,15,,83,0
48719,note_on,,239,0,14,,,,,,,,,,,,,,,,10,,83,0
48720,note_on,,1,0,18,,,,,,,,,,,,,,,,15,,81,72
48720,note_on,,1,0,14,,,,,,,,,,,,,,,,10,,81,72
48779,note_on,,179,0,15,,,,,,,,,,,,,,,,11,,79,0
48779,note_on,,59,0,18,,,,,,,,,,,,,,,,15,,79,0
48780,note_on,,1,0,18,,,,,,,,,,,,,,,,15,,79,72
48780,note_on,,1,0,15,,,,,,,,,,,,,,,,11,,79,72
48839,note_on,,59,0,18,,,,,,,,,,,,,,,,15,,79,0
48839,note_on,,59,0,15,,,,,,,,,,,,,,,,11,,79,0
48840,note_on,,1,0,15,,,,,,,,,,,,,,,,11,,78,72
48840,note_on,,1,0,18,,,,,,,,,,,,,,,,15,,78,72
48899,note_on,,59,0,15,,,,,,,,,,,,,,,,11,,78,0
48899,note_on,,59,0,18,,,,,,,,,,,,,,,,15,,78,0
48900,note_on,,1,0,15,,,,,,,,,,,,,,,,11,,76,72
48900,note_on,,1,0,18,,,,,,,,,,,,,,,,15,,76,72
48959,note_on,,239,0,14,,,,,,,,,,,,,,,,10,,81,0
48959,note_on,,59,0,15,,,,,,,,,,,,,,,,11,,76,0
48959,note_on,,59,0,18,,,,,,,,,,,,,,,,15,,81,0
48959,note_on,,0,0,18,,,,,,,,,,,,,,,,15,,76,0
48960,note_on,,14401,0,7,,,,,,,,,,,,,,,,3,,78,72
48960,note_on,,1,0,14,,,,,,,,,,,,,,,,10,,86,72
48960,note_on,,4801,0,17,,,,,,,,,,,,,,,,13,,50,72
48960,note_on,,1,0,18,,,,,,,,,,,,,,,,15,,50,72
48960,note_on,,4801,0,11,,,,,,,,,,,,,,,,7,,66,72
48960,note_on,,4801,0,5,,,,,,,,,,,,,,,,1,,74,72
48960,note_on,,4801,0,10,,,,,,,,,,,,,,,,6,,69,72
48960,note_on,,4801,0,6,,,,,,,,,,,,,,,,2,,50,72
48960,note_on,,0,0,18,,,,,,,,,,,,,,,,15,,62,72
48960,note_on,,14401,0,8,,,,,,,,,,,,,,,,4,,74,72
48960,note_on,,14401,0,13,,,,,,,,,,,,,,,,14,,50,72
48960,note_on,,0,0,18,,,,,,,,,,,,,,,,15,,78,72
48960,note_on,,4801,0,12,,,,,,,,,,,,,,,,8,,50,72
48960,note_on,,14401,0,16,,,,,,,,,,,,,,,,12,,69,60
48960,note_on,,0,0,18,,,,,,,,,,,,,,,,15,,74,72
48960,note_on,,0,0,18,,,,,,,,,,,,,,,,15,,69,72
48960,note_on,,1,0,15,,,,,,,,,,,,,,,,11,,78,72
48960,note_on,,4801,0,9,,,,,,,,,,,,,,,,5,,74,72
49049,note_on,,89,0,8,,,,,,,,,,,,,,,,4,,74,0
49049,note_on,,89,0,7,,,,,,,,,,,,,,,,3,,78,0
49079,note_on,,119,0,14,,,,,,,,,,,,,,,,10,,86,0
49079,note_on,,119,0,15,,,,,,,,,,,,,,,,11,,78,0
49079,note_on,,119,0,13,,,,,,,,,,,,,,,,14,,50,0
49079,note_on,,119,0,16,,,,,,,,,,,,,,,,12,,69,0
49139,note_on,,179,0,9,,,,,,,,,,,,,,,,5,,74,0
49139,note_on,,179,0,12,,,,,,,,,,,,,,,,8,,50,0
49139,note_on,,179,0,6,,,,,,,,,,,,,,,,2,,50,0
49139,note_on,,179,0,10,,,,,,,,,,,,,,,,6,,69,0
49139,note_on,,0,0,18,,,,,,,,,,,,,,,,15,,74,0
49139,note_on,,179,0,5,,,,,,,,,,,,,,,,1,,74,0
49139,note_on,,0,0,18,,,,,,,,,,,,,,,,15,,69,0
49139,note_on,,0,0,18,,,,,,,,,,,,,,,,15,,62,0
49139,note_on,,179,0,18,,,,,,,,,,,,,,,,15,,50,0
49139,note_on,,0,0,18,,,,,,,,,,,,,,,,15,,78,0
49139,note_on,,179,0,17,,,,,,,,,,,,,,,,13,,50,0
49139,note_on,,179,0,11,,,,,,,,,,,,,,,,7,,66,0
49140,note_on,,1,0,18,,,,,,,,,,,,,,,,15,,52,72
49140,note_on,,1,0,12,,,,,,,,,,,,,,,,8,,52,72
49140,note_on,,0,0,18,,,,,,,,,,,,,,,,15,,76,72
49140,note_on,,0,0,18,,,,,,,,,,,,,,,,15,,73,72
49140,note_on,,0,0,18,,,,,,,,,,,,,,,,15,,67,72
49140,note_on,,1,0,9,,,,,,,,,,,,,,,,5,,73,72
49140,note_on,,0,0,18,,,,,,,,,,,,,,,,15,,55,72
49140,note_on,,91,0,8,,,,,,,,,,,,,,,,4,,76,72
49140,note_on,,61,0,15,,,,,,,,,,,,,,,,11,,79,72
49140,note_on,,61,0,13,,,,,,,,,,,,,,,,14,,45,72
49140,note_on,,1,0,10,,,,,,,,,,,,,,,,6,,67,72
49140,note_on,,61,0,16,,,,,,,,,,,,,,,,12,,67,60
49140,note_on,,1,0,17,,,,,,,,,,,,,,,,13,,52,72
49140,note_on,,1,0,6,,,,,,,,,,,,,,,,2,,52,72
49140,note_on,,91,0,7,,,,,,,,,,,,,,,,3,,79,72
49140,note_on,,1,0,5,,,,,,,,,,,,,,,,1,,73,72
49140,note_on,,61,0,14,,,,,,,,,,,,,,,,10,,85,72
49140,note_on,,1,0,11,,,,,,,,,,,,,,,,7,,64,72
49199,note_on,,59,0,16,,,,,,,,,,,,,,,,12,,67,0
49199,note_on,,59,0,5,,,,,,,,,,,,,,,,1,,73,0
49199,note_on,,59,0,8,,,,,,,,,,,,,,,,4,,76,0
49199,note_on,,59,0,10,,,,,,,,,,,,,,,,6,,67,0
49199,note_on,,59,0,14,,,,,,,,,,,,,,,,10,,85,0
49199,note_on,,59,0,18,,,,,,,,,,,,,,,,15,,52,0
49199,note_on,,0,0,18,,,,,,,,,,,,,,,,15,,73,0
49199,note_on,,0,0,18,,,,,,,,,,,,,,,,15,,67,0
49199,note_on,,0,0,18,,,,,,,,,,,,,,,,15,,55,0
49199,note_on,,59,0,11,,,,,,,,,,,,,,,,7,,64,0
49199,note_on,,59,0,17,,,,,,,,,,,,,,,,13,,52,0
49199,note_on,,59,0,15,,,,,,,,,,,,,,,,11,,79,0
49199,note_on,,0,0,18,,,,,,,,,,,,,,,,15,,76,0
49199,note_on,,59,0,7,,,,,,,,,,,,,,,,3,,79,0
49199,note_on,,59,0,6,,,,,,,,,,,,,,,,2,,52,0
49199,note_on,,59,0,9,,,,,,,,,,,,,,,,5,,73,0
49199,note_on,,59,0,12,,,,,,,,,,,,,,,,8,,52,0
49199,note_on,,59,0,13,,,,,,,,,,,,,,,,14,,45,0
49200,note_on,,1,0,13,,,,,,,,,,,,,,,,14,,50,72
49200,note_on,,1,0,7,,,,,,,,,,,,,,,,3,,81,72
49200,note_on,,1,0,17,,,,,,,,,,,,,,,,13,,54,72
49200,note_on,,1,0,5,,,,,,,,,,,,,,,,1,,74,72
49200,note_on,,1,0,16,,,,,,,,,,,,,,,,12,,66,60
49200,note_on,,1,0,8,,,,,,,,,,,,,,,,4,,78,72
49200,note_on,,1,0,6,,,,,,,,,,,,,,,,2,,54,72
49200,note_on,,1,0,12,,,,,,,,,,,,,,,,8,,54,72
49200,note_on,,0,0,18,,,,,,,,,,,,,,,,15,,57,72
49200,note_on,,0,0,18,,,,,,,,,,,,,,,,15,,74,72
49200,note_on,,0,0,18,,,,,,,,,,,,,,,,15,,66,72
49200,note_on,,1,0,14,,,,,,,,,,,,,,,,10,,86,72
49200,note_on,,1,0,9,,,,,,,,,,,,,,,,5,,74,72
49200,note_on,,1,0,10,,,,,,,,,,,,,,,,6,,69,72
49200,note_on,,1,0,18,,,,,,,,,,,,,,,,15,,54,72
49200,note_on,,1,0,15,,,,,,,,,,,,,,,,11,,81,72
49200,note_on,,0,0,18,,,,,,,,,,,,,,,,15,,69,72
49200,note_on,,1,0,11,,,,,,,,,,,,,,,,7,,62,72
49259,note_on,,59,0,17,,,,,,,,,,,,,,,,13,,54,0
49259,note_on,,59,0,6,,,,,,,,,,,,,,,,2,,54,0
49259,note_on,,59,0,12,,,,,,,,,,,,,,,,8,,54,0
49259,note_on,,0,0,18,,,,,,,,,,,,,,,,15,,57,0
49259,note_on,,59,0,18,,,,,,,,,,,,,,,,15,,54,0
49260,note_on,,1,0,18,,,,,,,,,,,,,,,,15,,55,72
49260,note_on,,1,0,17,,,,,,,,,,,,,,,,13,,55,72
49260,note_on,,1,0,12,,,,,,,,,,,,,,,,8,,55,72
49260,note_on,,1,0,6,,,,,,,,,,,,,,,,2,,55,72
49319,note_on,,59,0,6,,,,,,,,,,,,,,,,2,,55,0
49319,note_on,,119,0,5,,,,,,,,,,,,,,,,1,,74,0
49319,note_on,,59,0,17,,,,,,,,,,,,,,,,13,,55,0
49319,note_on,,119,0,15,,,,,,,,,,,,,,,,11,,81,0
49319,note_on,,119,0,9,,,,,,,,,,,,,,,,5,,74,0
49319,note_on,,119,0,8,,,,,,,,,,,,,,,,4,,78,0
49319,note_on,,119,0,7,,,,,,,,,,,,,,,,3,,81,0
49319,note_on,,119,0,16,,,,,,,,,,,,,,,,12,,66,0
49319,note_on,,119,0,10,,,,,,,,,,,,,,,,6,,69,0
49319,note_on,,119,0,13,,,,,,,,,,,,,,,,14,,50,0
49319,note_on,,59,0,12,,,,,,,,,,,,,,,,8,,55,0
49319,note_on,,119,0,11,,,,,,,,,,,,,,,,7,,62,0
49319,note_on,,0,0,18,,,,,,,,,,,,,,,,15,,66,0
49319,note_on,,59,0,18,,,,,,,,,,,,,,,,15,,74,0
49319,note_on,,0,0,18,,,,,,,,,,,,,,,,15,,69,0
49319,note_on,,0,0,18,,,,,,,,,,,,,,,,15,,55,0
49319,note_on,,119,0,14,,,,,,,,,,,,,,,,10,,86,0
49320,note_on,,1,0,13,,,,,,,,,,,,,,,,14,,45,72
49320,note_on,,1,0,11,,,,,,,,,,,,,,,,7,,61,72
49320,note_on,,0,0,18,,,,,,,,,,,,,,,,15,,64,72
49320,note_on,,1,0,9,,,,,,,,,,,,,,,,5,,69,72
49320,note_on,,0,0,18,,,,,,,,,,,,,,,,15,,57,72
49320,note_on,,1,0,18,,,,,,,,,,,,,,,,15,,69,72
49320,note_on,,1,0,15,,,,,,,,,,,,,,,,11,,73,72
49320,note_on,,1,0,10,,,,,,,,,,,,,,,,6,,64,72
49320,note_on,,0,0,18,,,,,,,,,,,,,,,,15,,73,72
49320,note_on,,1,0,8,,,,,,,,,,,,,,,,4,,76,72
49320,note_on,,1,0,17,,,,,,,,,,,,,,,,13,,57,72
49320,note_on,,1,0,6,,,,,,,,,,,,,,,,2,,57,72
49320,note_on,,1,0,12,,,,,,,,,,,,,,,,8,,57,72
49320,note_on,,1,0,14,,,,,,,,,,,,,,,,10,,81,72
49320,note_on,,1,0,16,,,,,,,,,,,,,,,,12,,64,60
49320,note_on,,1,0,5,,,,,,,,,,,,,,,,1,,69,72
49320,note_on,,1,0,7,,,,,,,,,,,,,,,,3,,81,72
49379,note_on,,59,0,12,,,,,,,,,,,,,,,,8,,57,0
49379,note_on,,59,0,17,,,,,,,,,,,,,,,,13,,57,0
49379,note_on,,59,0,18,,,,,,,,,,,,,,,,15,,57,0
49379,note_on,,59,0,6,,,,,,,,,,,,,,,,2,,57,0
49380,note_on,,1,0,18,,,,,,,,,,,,,,,,15,,52,72
49380,note_on,,1,0,17,,,,,,,,,,,,,,,,13,,52,72
49380,note_on,,1,0,6,,,,,,,,,,,,,,,,2,,52,72
49380,note_on,,1,0,12,,,,,,,,,,,,,,,,8,,52,72
49439,note_on,,119,0,7,,,,,,,,,,,,,,,,3,,81,0
49439,note_on,,119,0,8,,,,,,,,,,,,,,,,4,,76,0
49439,note_on,,119,0,9,,,,,,,,,,,,,,,,5,,69,0
49439,note_on,,59,0,6,,,,,,,,,,,,,,,,2,,52,0
49439,note_on,,119,0,10,,,,,,,,,,,,,,,,6,,64,0
49439,note_on,,119,0,15,,,,,,,,,,,,,,,,11,,73,0
49439,note_on,,59,0,12,,,,,,,,,,,,,,,,8,,52,0
49439,note_on,,59,0,17,,,,,,,,,,,,,,,,13,,52,0
49439,note_on,,119,0,13,,,,,,,,,,,,,,,,14,,45,0
49439,note_on,,119,0,5,,,,,,,,,,,,,,,,1,,69,0
49439,note_on,,59,0,18,,,,,,,,,,,,,,,,15,,69,0
49439,note_on,,0,0,18,,,,,,,,,,,,,,,,15,,73,0
49439,note_on,,0,0,18,,,,,,,,,,,,,,,,15,,64,0
49439,note_on,,0,0,18,,,,,,,,,,,,,,,,15,,52,0
49439,note_on,,119,0,11,,,,,,,,,,,,,,,,7,,61,0
49439,note_on,,119,0,16,,,,,,,,,,,,,,,,12,,64,0
49440,note_on,,0,0,18,,,,,,,,,,,,,,,,15,,74,72
49440,note_on,,1,0,18,,,,,,,,,,,,,,,,15,,54,72
49440,note_on,,1,0,9,,,,,,,,,,,,,,,,5,,74,72
49440,note_on,,1,0,17,,,,,,,,,,,,,,,,13,,54,72
49440,note_on,,0,0,18,,,,,,,,,,,,,,,,15,,62,72
49440,note_on,,0,0,18,,,,,,,,,,,,,,,,15,,69,72
49440,note_on,,1,0,8,,,,,,,,,,,,,,,,4,,78,72
49440,note_on,,1,0,13,,,,,,,,,,,,,,,,14,,50,72
49440,note_on,,1,0,16,,,,,,,,,,,,,,,,12,,62,60
49440,note_on,,1,0,10,,,,,,,,,,,,,,,,6,,69,72
49440,note_on,,1,0,11,,,,,,,,,,,,,,,,7,,62,72
49440,note_on,,1,0,5,,,,,,,,,,,,,,,,1,,74,72
49440,note_on,,1,0,7,,,,,,,,,,,,,,,,3,,81,72
49440,note_on,,1,0,12,,,,,,,,,,,,,,,,8,,54,72
49440,note_on,,1,0,6,,,,,,,,,,,,,,,,2,,54,72
49440,note_on,,1,0,15,,,,,,,,,,,,,,,,11,,74,72
49499,note_on,,59,0,18,,,,,,,,,,,,,,,,15,,54,0
49499,note_on,,179,0,14,,,,,,,,,,,,,,,,10,,81,0
49499,note_on,,59,0,6,,,,,,,,,,,,,,,,2,,54,0
49499,note_on,,59,0,9,,,,,,,,,,,,,,,,5,,74,0
49499,note_on,,59,0,16,,,,,,,,,,,,,,,,12,,62,0
49499,note_on,,59,0,10,,,,,,,,,,,,,,,,6,,69,0
49499,note_on,,59,0,12,,,,,,,,,,,,,,,,8,,54,0
49499,note_on,,59,0,5,,,,,,,,,,,,,,,,1,,74,0
49499,note_on,,59,0,17,,,,,,,,,,,,,,,,13,,54,0
49500,note_on,,1,0,18,,,,,,,,,,,,,,,,15,,50,72
49500,note_on,,1,0,5,,,,,,,,,,,,,,,,1,,69,72
49500,note_on,,1,0,10,,,,,,,,,,,,,,,,6,,66,72
49500,note_on,,1,0,16,,,,,,,,,,,,,,,,12,,69,60
49500,note_on,,1,0,14,,,,,,,,,,,,,,,,10,,78,72
49500,note_on,,1,0,9,,,,,,,,,,,,,,,,5,,69,72
49500,note_on,,1,0,17,,,,,,,,,,,,,,,,13,,50,72
49500,note_on,,1,0,6,,,,,,,,,,,,,,,,2,,50,72
49500,note_on,,1,0,12,,,,,,,,,,,,,,,,8,,50,72
49559,note_on,,59,0,17,,,,,,,,,,,,,,,,13,,50,0
49559,note_on,,119,0,13,,,,,,,,,,,,,,,,14,,50,0
49559,note_on,,59,0,14,,,,,,,,,,,,,,,,10,,78,0
49559,note_on,,59,0,9,,,,,,,,,,,,,,,,5,,69,0
49559,note_on,,0,0,18,,,,,,,,,,,,,,,,15,,50,0
49559,note_on,,0,0,18,,,,,,,,,,,,,,,,15,,62,0
49559,note_on,,59,0,5,,,,,,,,,,,,,,,,1,,69,0
49559,note_on,,0,0,18,,,,,,,,,,,,,,,,15,,69,0
49559,note_on,,59,0,18,,,,,,,,,,,,,,,,15,,74,0
49559,note_on,,59,0,6,,,,,,,,,,,,,,,,2,,50,0
49559,note_on,,119,0,15,,,,,,,,,,,,,,,,11,,74,0
49559,note_on,,119,0,7,,,,,,,,,,,,,,,,3,,81,0
49559,note_on,,119,0,11,,,,,,,,,,,,,,,,7,,62,0
49559,note_on,,59,0,16,,,,,,,,,,,,,,,,12,,69,0
49559,note_on,,59,0,10,,,,,,,,,,,,,,,,6,,66,0
49559,note_on,,119,0,8,,,,,,,,,,,,,,,,4,,78,0
49559,note_on,,59,0,12,,,,,,,,,,,,,,,,8,,50,0
49560,note_on,,1,0,12,,,,,,,,,,,,,,,,8,,59,72
49560,note_on,,1,0,18,,,,,,,,,,,,,,,,15,,59,72
49560,note_on,,0,0,18,,,,,,,,,,,,,,,,15,,66,72
49560,note_on,,0,0,18,,,,,,,,,,,,,,,,15,,62,72
49560,note_on,,1,0,16,,,,,,,,,,,,,,,,12,,66,60
49560,note_on,,1,0,9,,,,,,,,,,,,,,,,5,,74,72
49560,note_on,,1,0,5,,,,,,,,,,,,,,,,1,,74,72
49560,note_on,,1,0,17,,,,,,,,,,,,,,,,13,,59,72
49560,note_on,,1,0,15,,,,,,,,,,,,,,,,11,,78,72
49560,note_on,,1,0,10,,,,,,,,,,,,,,,,6,,71,72
49560,note_on,,1,0,14,,,,,,,,,,,,,,,,10,,86,72
49560,note_on,,1,0,6,,,,,,,,,,,,,,,,2,,59,72
49560,note_on,,1,0,11,,,,,,,,,,,,,,,,7,,66,72
49619,note_on,,59,0,5,,,,,,,,,,,,,,,,1,,74,0
49619,note_on,,59,0,16,,,,,,,,,,,,,,,,12,,66,0
49619,note_on,,59,0,9,,,,,,,,,,,,,,,,5,,74,0
49620,note_on,,1,0,16,,,,,,,,,,,,,,,,12,,62,60
49679,note_on,,119,0,15,,,,,,,,,,,,,,,,11,,78,0
49679,note_on,,119,0,11,,,,,,,,,,,,,,,,7,,66,0
49679,note_on,,59,0,16,,,,,,,,,,,,,,,,12,,62,0
49679,note_on,,0,0,18,,,,,,,,,,,,,,,,15,,62,0
49679,note_on,,119,0,14,,,,,,,,,,,,,,,,10,,86,0
49679,note_on,,119,0,18,,,,,,,,,,,,,,,,15,,66,0
49679,note_on,,119,0,10,,,,,,,,,,,,,,,,6,,71,0
49680,note_on,,1,0,14,,,,,,,,,,,,,,,,10,,85,72
49680,note_on,,0,0,18,,,,,,,,,,,,,,,,15,,67,72
49680,note_on,,61,0,5,,,,,,,,,,,,,,,,1,,73,72
49680,note_on,,1,0,16,,,,,,,,,,,,,,,,12,,67,60
49680,note_on,,1,0,10,,,,,,,,,,,,,,,,6,,64,72
49680,note_on,,1,0,15,,,,,,,,,,,,,,,,11,,76,72
49680,note_on,,0,0,18,,,,,,,,,,,,,,,,15,,64,72
49680,note_on,,61,0,9,,,,,,,,,,,,,,,,5,,73,72
49680,note_on,,1,0,18,,,,,,,,,,,,,,,,15,,73,72
49739,note_on,,59,0,5,,,,,,,,,,,,,,,,1,,73,0
49739,note_on,,59,0,9,,,,,,,,,,,,,,,,5,,73,0
49799,note_on,,119,0,18,,,,,,,,,,,,,,,,15,,59,0
49799,note_on,,0,0,18,,,,,,,,,,,,,,,,15,,67,0
49799,note_on,,0,0,18,,,,,,,,,,,,,,,,15,,64,0
49799,note_on,,119,0,14,,,,,,,,,,,,,,,,10,,85,0
49799,note_on,,239,0,6,,,,,,,,,,,,,,,,2,,59,0
49799,note_on,,119,0,15,,,,,,,,,,,,,,,,11,,76,0
49799,note_on,,119,0,10,,,,,,,,,,,,,,,,6,,64,0
49799,note_on,,119,0,16,,,,,,,,,,,,,,,,12,,67,0
49799,note_on,,239,0,12,,,,,,,,,,,,,,,,8,,59,0
49799,note_on,,239,0,17,,,,,,,,,,,,,,,,13,,59,0
49800,note_on,,1,0,17,,,,,,,,,,,,,,,,13,,57,72
49800,note_on,,61,0,9,,,,,,,,,,,,,,,,5,,78,72
49800,note_on,,1,0,10,,,,,,,,,,,,,,,,6,,73,72
49800,note_on,,241,0,7,,,,,,,,,,,,,,,,3,,78,72
49800,note_on,,1,0,12,,,,,,,,,,,,,,,,8,,57,72
49800,note_on,,241,0,8,,,,,,,,,,,,,,,,4,,66,72
49800,note_on,,1,0,15,,,,,,,,,,,,,,,,11,,69,72
49800,note_on,,1,0,18,,,,,,,,,,,,,,,,15,,57,72
49800,note_on,,1,0,14,,,,,,,,,,,,,,,,10,,78,72
49800,note_on,,0,0,18,,,,,,,,,,,,,,,,15,,69,72
49800,note_on,,0,0,18,,,,,,,,,,,,,,,,15,,66,72
49800,note_on,,61,0,5,,,,,,,,,,,,,,,,1,,78,72
49800,note_on,,241,0,13,,,,,,,,,,,,,,,,14,,45,72
49800,note_on,,1,0,16,,,,,,,,,,,,,,,,12,,61,60
49800,note_on,,121,0,11,,,,,,,,,,,,,,,,7,,61,72
49800,note_on,,1,0,6,,,,,,,,,,,,,,,,2,,57,72
49859,note_on,,59,0,5,,,,,,,,,,,,,,,,1,,78,0
49859,note_on,,59,0,9,,,,,,,,,,,,,,,,5,,78,0
49919,note_on,,119,0,11,,,,,,,,,,,,,,,,7,,61,0
49919,note_on,,119,0,17,,,,,,,,,,,,,,,,13,,57,0
49919,note_on,,119,0,16,,,,,,,,,,,,,,,,12,,61,0
49919,note_on,,119,0,6,,,,,,,,,,,,,,,,2,,57,0
49919,note_on,,119,0,12,,,,,,,,,,,,,,,,8,,57,0
49919,note_on,,119,0,7,,,,,,,,,,,,,,,,3,,78,0
49919,note_on,,119,0,18,,,,,,,,,,,,,,,,15,,73,0
49919,note_on,,119,0,8,,,,,,,,,,,,,,,,4,,66,0
49919,note_on,,119,0,15,,,,,,,,,,,,,,,,11,,69,0
49919,note_on,,119,0,14,,,,,,,,,,,,,,,,10,,78,0
49919,note_on,,119,0,13,,,,,,,,,,,,,,,,14,,45,0
49920,note_on,,1,0,12,,,,,,,,,,,,,,,,8,,50,72
49920,note_on,,1,0,8,,,,,,,,,,,,,,,,4,,66,72
49920,note_on,,1,0,16,,,,,,,,,,,,,,,,12,,62,60
49920,note_on,,0,0,18,,,,,,,,,,,,,,,,15,,78,72
49920,note_on,,1,0,11,,,,,,,,,,,,,,,,7,,54,72
49920,note_on,,1,0,7,,,,,,,,,,,,,,,,3,,74,72
49920,note_on,,1,0,18,,,,,,,,,,,,,,,,15,,50,72
49920,note_on,,1,0,13,,,,,,,,,,,,,,,,14,,50,72
49920,note_on,,1,0,17,,,,,,,,,,,,,,,,13,,50,72
49920,note_on,,1,0,6,,,,,,,,,,,,,,,,2,,50,72
49920,note_on,,1,0,15,,,,,,,,,,,,,,,,11,,66,72
49979,note_on,,59,0,16,,,,,,,,,,,,,,,,12,,62,0
49980,note_on,,1,0,16,,,,,,,,,,,,,,,,12,,61,60
50039,note_on,,119,0,15,,,,,,,,,,,,,,,,11,,66,0
50039,note_on,,239,0,10,,,,,,,,,,,,,,,,6,,73,0
50039,note_on,,119,0,6,,,,,,,,,,,,,,,,2,,50,0
50039,note_on,,119,0,11,,,,,,,,,,,,,,,,7,,54,0
50039,note_on,,119,0,12,,,,,,,,,,,,,,,,8,,50,0
50039,note_on,,119,0,7,,,,,,,,,,,,,,,,3,,74,0
50039,note_on,,119,0,13,,,,,,,,,,,,,,,,14,,50,0
50039,note_on,,0,0,18,,,,,,,,,,,,,,,,15,,66,0
50039,note_on,,59,0,16,,,,,,,,,,,,,,,,12,,61,0
50039,note_on,,0,0,18,,,,,,,,,,,,,,,,15,,50,0
50039,note_on,,119,0,8,,,,,,,,,,,,,,,,4,,66,0
50039,note_on,,119,0,18,,,,,,,,,,,,,,,,15,,57,0
50039,note_on,,119,0,17,,,,,,,,,,,,,,,,13,,50,0
50039,note_on,,0,0,18,,,,,,,,,,,,,,,,15,,69,0
50039,note_on,,0,0,18,,,,,,,,,,,,,,,,15,,78,0
50040,note_on,,1,0,6,,,,,,,,,,,,,,,,2,,55,72
50040,note_on,,181,0,9,,,,,,,,,,,,,,,,5,,76,72
50040,note_on,,1,0,10,,,,,,,,,,,,,,,,6,,71,72
50040,note_on,,1,0,12,,,,,,,,,,,,,,,,8,,55,72
50040,note_on,,1,0,16,,,,,,,,,,,,,,,,12,,59,60
50040,note_on,,1,0,11,,,,,,,,,,,,,,,,7,,59,72
50040,note_on,,0,0,18,,,,,,,,,,,,,,,,15,,71,72
50040,note_on,,181,0,5,,,,,,,,,,,,,,,,1,,76,72
50040,note_on,,1,0,17,,,,,,,,,,,,,,,,13,,55,72
50040,note_on,,121,0,14,,,,,,,,,,,,,,,,10,,76,72
50040,note_on,,0,0,18,,,,,,,,,,,,,,,,15,,67,72
50040,note_on,,0,0,18,,,,,,,,,,,,,,,,15,,64,72
50040,note_on,,0,0,18,,,,,,,,,,,,,,,,15,,59,72
50040,note_on,,1,0,18,,,,,,,,,,,,,,,,15,,55,72
50040,note_on,,1,0,15,,,,,,,,,,,,,,,,11,,71,72
50099,note_on,,59,0,10,,,,,,,,,,,,,,,,6,,71,0
50100,note_on,,1,0,10,,,,,,,,,,,,,,,,6,,69,72
50159,note_on,,119,0,11,,,,,,,,,,,,,,,,7,,59,0
50159,note_on,,119,0,9,,,,,,,,,,,,,,,,5,,76,0
50159,note_on,,119,0,18,,,,,,,,,,,,,,,,15,,59,0
50159,note_on,,0,0,18,,,,,,,,,,,,,,,,15,,71,0
50159,note_on,,0,0,18,,,,,,,,,,,,,,,,15,,67,0
50159,note_on,,0,0,18,,,,,,,,,,,,,,,,15,,64,0
50159,note_on,,119,0,14,,,,,,,,,,,,,,,,10,,76,0
50159,note_on,,59,0,10,,,,,,,,,,,,,,,,6,,69,0
50159,note_on,,119,0,16,,,,,,,,,,,,,,,,12,,59,0
50159,note_on,,119,0,15,,,,,,,,,,,,,,,,11,,71,0
50159,note_on,,119,0,5,,,,,,,,,,,,,,,,1,,76,0
50160,note_on,,0,0,18,,,,,,,,,,,,,,,,15,,69,72
50160,note_on,,1,0,11,,,,,,,,,,,,,,,,7,,61,72
50160,note_on,,1,0,9,,,,,,,,,,,,,,,,5,,69,72
50160,note_on,,1,0,15,,,,,,,,,,,,,,,,11,,61,72
50160,note_on,,1,0,5,,,,,,,,,,,,,,,,1,,69,72
50160,note_on,,1,0,14,,,,,,,,,,,,,,,,10,,69,72
50160,note_on,,1,0,16,,,,,,,,,,,,,,,,12,,64,60
50160,note_on,,1,0,18,,,,,,,,,,,,,,,,15,,57,72
50160,note_on,,0,0,18,,,,,,,,,,,,,,,,15,,64,72
50160,note_on,,1,0,10,,,,,,,,,,,,,,,,6,,67,72
50160,note_on,,0,0,18,,,,,,,,,,,,,,,,15,,73,72
50279,note_on,,119,0,14,,,,,,,,,,,,,,,,10,,69,0
50279,note_on,,119,0,9,,,,,,,,,,,,,,,,5,,69,0
50279,note_on,,0,0,18,,,,,,,,,,,,,,,,15,,64,0
50279,note_on,,239,0,6,,,,,,,,,,,,,,,,2,,55,0
50279,note_on,,119,0,10,,,,,,,,,,,,,,,,6,,67,0
50279,note_on,,239,0,17,,,,,,,,,,,,,,,,13,,55,0
50279,note_on,,119,0,5,,,,,,,,,,,,,,,,1,,69,0
50279,note_on,,239,0,12,,,,,,,,,,,,,,,,8,,55,0
50279,note_on,,119,0,18,,,,,,,,,,,,,,,,15,,55,0
50279,note_on,,119,0,15,,,,,,,,,,,,,,,,11,,61,0
50279,note_on,,0,0,18,,,,,,,,,,,,,,,,15,,69,0
50279,note_on,,119,0,16,,,,,,,,,,,,,,,,12,,64,0
50280,note_on,,1,0,9,,,,,,,,,,,,,,,,5,,81,72
50280,note_on,,1,0,12,,,,,,,,,,,,,,,,8,,54,72
50280,note_on,,1,0,5,,,,,,,,,,,,,,,,1,,81,72
50280,note_on,,1,0,17,,,,,,,,,,,,,,,,13,,54,72
50280,note_on,,1,0,10,,,,,,,,,,,,,,,,6,,69,72
50280,note_on,,0,0,18,,,,,,,,,,,,,,,,15,,69,72
50280,note_on,,241,0,8,,,,,,,,,,,,,,,,4,,69,72
50280,note_on,,241,0,7,,,,,,,,,,,,,,,,3,,81,72
50280,note_on,,1,0,14,,,,,,,,,,,,,,,,10,,81,72
50280,note_on,,1,0,18,,,,,,,,,,,,,,,,15,,54,72
50280,note_on,,1,0,6,,,,,,,,,,,,,,,,2,,54,72
50280,note_on,,1,0,15,,,,,,,,,,,,,,,,11,,73,72
50280,note_on,,241,0,13,,,,,,,,,,,,,,,,14,,45,72
50280,note_on,,1,0,16,,,,,,,,,,,,,,,,12,,66,60
50339,note_on,,179,0,11,,,,,,,,,,,,,,,,7,,61,0
50340,note_on,,1,0,11,,,,,,,,,,,,,,,,7,,61,72
50399,note_on,,119,0,17,,,,,,,,,,,,,,,,13,,54,0
50399,note_on,,119,0,18,,,,,,,,,,,,,,,,15,,57,0
50399,note_on,,0,0,18,,,,,,,,,,,,,,,,15,,54,0
50399,note_on,,119,0,8,,,,,,,,,,,,,,,,4,,69,0
50399,note_on,,119,0,9,,,,,,,,,,,,,,,,5,,81,0
50399,note_on,,119,0,7,,,,,,,,,,,,,,,,3,,81,0
50399,note_on,,119,0,16,,,,,,,,,,,,,,,,12,,66,0
50399,note_on,,119,0,14,,,,,,,,,,,,,,,,10,,81,0
50399,note_on,,119,0,6,,,,,,,,,,,,,,,,2,,54,0
50399,note_on,,119,0,13,,,,,,,,,,,,,,,,14,,45,0
50399,note_on,,119,0,12,,,,,,,,,,,,,,,,8,,54,0
50399,note_on,,119,0,5,,,,,,,,,,,,,,,,1,,81,0
50399,note_on,,59,0,11,,,,,,,,,,,,,,,,7,,61,0
50400,note_on,,1,0,16,,,,,,,,,,,,,,,,12,,66,60
50400,note_on,,1,0,13,,,,,,,,,,,,,,,,14,,50,72
50400,note_on,,1,0,17,,,,,,,,,,,,,,,,13,,59,72
50400,note_on,,1,0,11,,,,,,,,,,,,,,,,7,,62,72
50400,note_on,,1,0,9,,,,,,,,,,,,,,,,5,,74,72
50400,note_on,,0,0,18,,,,,,,,,,,,,,,,15,,62,72
50400,note_on,,1,0,5,,,,,,,,,,,,,,,,1,,74,72
50400,note_on,,0,0,18,,,,,,,,,,,,,,,,15,,74,72
50400,note_on,,1,0,7,,,,,,,,,,,,,,,,3,,81,72
50400,note_on,,1,0,14,,,,,,,,,,,,,,,,10,,74,72
50400,note_on,,1,0,6,,,,,,,,,,,,,,,,2,,59,72
50400,note_on,,1,0,12,,,,,,,,,,,,,,,,8,,59,72
50400,note_on,,1,0,8,,,,,,,,,,,,,,,,4,,66,72
50400,note_on,,1,0,18,,,,,,,,,,,,,,,,15,,59,72
50459,note_on,,59,0,16,,,,,,,,,,,,,,,,12,,66,0
50460,note_on,,1,0,16,,,,,,,,,,,,,,,,12,,64,60
50519,note_on,,239,0,10,,,,,,,,,,,,,,,,6,,69,0
50519,note_on,,239,0,15,,,,,,,,,,,,,,,,11,,73,0
50519,note_on,,119,0,14,,,,,,,,,,,,,,,,10,,74,0
50519,note_on,,119,0,9,,,,,,,,,,,,,,,,5,,74,0
50519,note_on,,59,0,16,,,,,,,,,,,,,,,,12,,64,0
50519,note_on,,119,0,8,,,,,,,,,,,,,,,,4,,66,0
50519,note_on,,119,0,5,,,,,,,,,,,,,,,,1,,74,0
50519,note_on,,0,0,18,,,,,,,,,,,,,,,,15,,69,0
50519,note_on,,119,0,18,,,,,,,,,,,,,,,,15,,73,0
50519,note_on,,119,0,7,,,,,,,,,,,,,,,,3,,81,0
50520,note_on,,1,0,10,,,,,,,,,,,,,,,,6,,67,72
50520,note_on,,1,0,15,,,,,,,,,,,,,,,,11,,71,72
50520,note_on,,1,0,14,,,,,,,,,,,,,,,,10,,79,72
50520,note_on,,0,0,18,,,,,,,,,,,,,,,,15,,67,72
50520,note_on,,1,0,18,,,,,,,,,,,,,,,,15,,71,72
50520,note_on,,1,0,16,,,,,,,,,,,,,,,,12,,62,60
50520,note_on,,1,0,5,,,,,,,,,,,,,,,,1,,79,72
50520,note_on,,1,0,8,,,,,,,,,,,,,,,,4,,62,72
50520,note_on,,1,0,9,,,,,,,,,,,,,,,,5,,79,72
50520,note_on,,1,0,7,,,,,,,,,,,,,,,,3,,79,72
50579,note_on,,179,0,17,,,,,,,,,,,,,,,,13,,59,0
50579,note_on,,179,0,13,,,,,,,,,,,,,,,,14,,50,0
50579,note_on,,179,0,6,,,,,,,,,,,,,,,,2,,59,0
50579,note_on,,179,0,12,,,,,,,,,,,,,,,,8,,59,0
50579,note_on,,0,0,18,,,,,,,,,,,,,,,,15,,62,0
50579,note_on,,59,0,18,,,,,,,,,,,,,,,,15,,59,0
50580,note_on,,1,0,17,,,,,,,,,,,,,,,,13,,59,72
50580,note_on,,1,0,13,,,,,,,,,,,,,,,,14,,50,72
50580,note_on,,1,0,6,,,,,,,,,,,,,,,,2,,59,72
50580,note_on,,1,0,12,,,,,,,,,,,,,,,,8,,59,72
50580,note_on,,0,0,18,,,,,,,,,,,,,,,,15,,62,72
50580,note_on,,1,0,18,,,,,,,,,,,,,,,,15,,59,72
50639,note_on,,0,0,18,,,,,,,,,,,,,,,,15,,67,0
50639,note_on,,0,0,18,,,,,,,,,,,,,,,,15,,59,0
50639,note_on,,0,0,18,,,,,,,,,,,,,,,,15,,62,0
50639,note_on,,59,0,18,,,,,,,,,,,,,,,,15,,74,0
50639,note_on,,119,0,15,,,,,,,,,,,,,,,,11,,71,0
50639,note_on,,59,0,13,,,,,,,,,,,,,,,,14,,50,0
50639,note_on,,119,0,10,,,,,,,,,,,,,,,,6,,67,0
50639,note_on,,0,0,18,,,,,,,,,,,,,,,,15,,71,0
50639,note_on,,119,0,8,,,,,,,,,,,,,,,,4,,62,0
50639,note_on,,59,0,6,,,,,,,,,,,,,,,,2,,59,0
50639,note_on,,59,0,12,,,,,,,,,,,,,,,,8,,59,0
50639,note_on,,239,0,11,,,,,,,,,,,,,,,,7,,62,0
50639,note_on,,119,0,16,,,,,,,,,,,,,,,,12,,62,0
50639,note_on,,59,0,17,,,,,,,,,,,,,,,,13,,59,0
50640,note_on,,1,0,11,,,,,,,,,,,,,,,,7,,64,72
50640,note_on,,1,0,12,,,,,,,,,,,,,,,,8,,61,72
50640,note_on,,1,0,15,,,,,,,,,,,,,,,,11,,81,72
50640,note_on,,1,0,10,,,,,,,,,,,,,,,,6,,69,72
50640,note_on,,0,0,18,,,,,,,,,,,,,,,,15,,69,72
50640,note_on,,0,0,18,,,,,,,,,,,,,,,,15,,76,72
50640,note_on,,0,0,18,,,,,,,,,,,,,,,,15,,81,72
50640,note_on,,0,0,18,,,,,,,,,,,,,,,,15,,64,72
50640,note_on,,1,0,16,,,,,,,,,,,,,,,,12,,64,60
50640,note_on,,1,0,6,,,,,,,,,,,,,,,,2,,61,72
50640,note_on,,1,0,8,,,,,,,,,,,,,,,,4,,69,72
50640,note_on,,1,0,18,,,,,,,,,,,,,,,,15,,61,72
50640,note_on,,1,0,17,,,,,,,,,,,,,,,,13,,61,72
50640,note_on,,1,0,13,,,,,,,,,,,,,,,,14,,45,72
50699,note_on,,59,0,18,,,,,,,,,,,,,,,,15,,61,0
50699,note_on,,59,0,12,,,,,,,,,,,,,,,,8,,61,0
50699,note_on,,59,0,6,,,,,,,,,,,,,,,,2,,61,0
50699,note_on,,59,0,17,,,,,,,,,,,,,,,,13,,61,0
50700,note_on,,1,0,17,,,,,,,,,,,,,,,,13,,57,72
50700,note_on,,1,0,18,,,,,,,,,,,,,,,,15,,57,72
50700,note_on,,1,0,6,,,,,,,,,,,,,,,,2,,57,72
50700,note_on,,1,0,12,,,,,,,,,,,,,,,,8,,57,72
50759,note_on,,0,0,18,,,,,,,,,,,,,,,,15,,69,0
50759,note_on,,0,0,18,,,,,,,,,,,,,,,,15,,81,0
50759,note_on,,59,0,18,,,,,,,,,,,,,,,,15,,64,0
50759,note_on,,119,0,11,,,,,,,,,,,,,,,,7,,64,0
50759,note_on,,59,0,17,,,,,,,,,,,,,,,,13,,57,0
50759,note_on,,59,0,12,,,,,,,,,,,,,,,,8,,57,0
50759,note_on,,239,0,7,,,,,,,,,,,,,,,,3,,79,0
50759,note_on,,0,0,18,,,,,,,,,,,,,,,,15,,57,0
50759,note_on,,0,0,18,,,,,,,,,,,,,,,,15,,76,0
50759,note_on,,119,0,8,,,,,,,,,,,,,,,,4,,69,0
50759,note_on,,239,0,9,,,,,,,,,,,,,,,,5,,79,0
50759,note_on,,119,0,16,,,,,,,,,,,,,,,,12,,64,0
50759,note_on,,119,0,13,,,,,,,,,,,,,,,,14,,45,0
50759,note_on,,59,0,6,,,,,,,,,,,,,,,,2,,57,0
50759,note_on,,239,0,5,,,,,,,,,,,,,,,,1,,79,0
50759,note_on,,239,0,14,,,,,,,,,,,,,,,,10,,79,0
50760,note_on,,1,0,12,,,,,,,,,,,,,,,,8,,62,72
50760,note_on,,1,0,8,,,,,,,,,,,,,,,,4,,81,72
50760,note_on,,1,0,11,,,,,,,,,,,,,,,,7,,66,72
50760,note_on,,1,0,13,,,,,,,,,,,,,,,,14,,50,72
50760,note_on,,0,0,18,,,,,,,,,,,,,,,,15,,79,72
50760,note_on,,0,0,18,,,,,,,,,,,,,,,,15,,66,72
50760,note_on,,0,0,18,,,,,,,,,,,,,,,,15,,62,72
50760,note_on,,1,0,18,,,,,,,,,,,,,,,,15,,74,72
50760,note_on,,1,0,6,,,,,,,,,,,,,,,,2,,62,72
50760,note_on,,0,0,18,,,,,,,,,,,,,,,,15,,69,72
50760,note_on,,1,0,16,,,,,,,,,,,,,,,,12,,66,60
50760,note_on,,1,0,7,,,,,,,,,,,,,,,,3,,78,72
50760,note_on,,1,0,14,,,,,,,,,,,,,,,,10,,78,72
50760,note_on,,1,0,17,,,,,,,,,,,,,,,,13,,62,72
50760,note_on,,1,0,5,,,,,,,,,,,,,,,,1,,78,72
50760,note_on,,1,0,9,,,,,,,,,,,,,,,,5,,78,72
50879,note_on,,0,0,18,,,,,,,,,,,,,,,,15,,69,0
50879,note_on,,239,0,10,,,,,,,,,,,,,,,,6,,69,0
50879,note_on,,119,0,16,,,,,,,,,,,,,,,,12,,66,0
50879,note_on,,119,0,7,,,,,,,,,,,,,,,,3,,78,0
50879,note_on,,119,0,11,,,,,,,,,,,,,,,,7,,66,0
50879,note_on,,119,0,9,,,,,,,,,,,,,,,,5,,78,0
50879,note_on,,0,0,18,,,,,,,,,,,,,,,,15,,66,0
50879,note_on,,119,0,8,,,,,,,,,,,,,,,,4,,81,0
50879,note_on,,119,0,18,,,,,,,,,,,,,,,,15,,74,0
50879,note_on,,119,0,5,,,,,,,,,,,,,,,,1,,78,0
50879,note_on,,119,0,13,,,,,,,,,,,,,,,,14,,50,0
50879,note_on,,119,0,14,,,,,,,,,,,,,,,,10,,78,0
50879,note_on,,0,0,18,,,,,,,,,,,,,,,,15,,79,0
50879,note_on,,239,0,15,,,,,,,,,,,,,,,,11,,81,0
50880,note_on,,1,0,16,,,,,,,,,,,,,,,,12,,71,60
50880,note_on,,1,0,9,,,,,,,,,,,,,,,,5,,76,72
50880,note_on,,1,0,8,,,,,,,,,,,,,,,,4,,79,72
50880,note_on,,1,0,10,,,,,,,,,,,,,,,,6,,71,72
50880,note_on,,1,0,15,,,,,,,,,,,,,,,,11,,79,72
50880,note_on,,1,0,13,,,,,,,,,,,,,,,,14,,50,72
50880,note_on,,0,0,18,,,,,,,,,,,,,,,,15,,64,72
50880,note_on,,0,0,18,,,,,,,,,,,,,,,,15,,71,72
50880,note_on,,1,0,18,,,,,,,,,,,,,,,,15,,76,72
50880,note_on,,1,0,14,,,,,,,,,,,,,,,,10,,76,72
50880,note_on,,1,0,7,,,,,,,,,,,,,,,,3,,76,72
50880,note_on,,0,0,18,,,,,,,,,,,,,,,,15,,79,72
50880,note_on,,1,0,11,,,,,,,,,,,,,,,,7,,67,72
50880,note_on,,1,0,5,,,,,,,,,,,,,,,,1,,76,72
50999,note_on,,0,0,18,,,,,,,,,,,,,,,,15,,79,0
50999,note_on,,0,0,18,,,,,,,,,,,,,,,,15,,71,0
50999,note_on,,119,0,10,,,,,,,,,,,,,,,,6,,71,0
50999,note_on,,239,0,12,,,,,,,,,,,,,,,,8,,62,0
50999,note_on,,119,0,13,,,,,,,,,,,,,,,,14,,50,0
50999,note_on,,239,0,6,,,,,,,,,,,,,,,,2,,62,0
50999,note_on,,119,0,18,,,,,,,,,,,,,,,,15,,62,0
50999,note_on,,239,0,17,,,,,,,,,,,,,,,,13,,62,0
50999,note_on,,119,0,16,,,,,,,,,,,,,,,,12,,71,0
51000,note_on,,0,0,18,,,,,,,,,,,,,,,,15,,69,72
51000,note_on,,1,0,6,,,,,,,,,,,,,,,,2,,61,72
51000,note_on,,1,0,12,,,,,,,,,,,,,,,,8,,61,72
51000,note_on,,1,0,17,,,,,,,,,,,,,,,,13,,61,72
51000,note_on,,0,0,18,,,,,,,,,,,,,,,,15,,81,72
51000,note_on,,1,0,10,,,,,,,,,,,,,,,,6,,69,72
51000,note_on,,1,0,18,,,,,,,,,,,,,,,,15,,61,72
51000,note_on,,1,0,13,,,,,,,,,,,,,,,,14,,45,72
51000,note_on,,1,0,16,,,,,,,,,,,,,,,,12,,69,60
51119,note_on,,0,0,18,,,,,,,,,,,,,,,,15,,61,0
51119,note_on,,119,0,17,,,,,,,,,,,,,,,,13,,61,0
51119,note_on,,119,0,6,,,,,,,,,,,,,,,,2,,61,0
51119,note_on,,239,0,5,,,,,,,,,,,,,,,,1,,76,0
51119,note_on,,239,0,9,,,,,,,,,,,,,,,,5,,76,0
51119,note_on,,239,0,11,,,,,,,,,,,,,,,,7,,67,0
51119,note_on,,119,0,10,,,,,,,,,,,,,,,,6,,69,0
51119,note_on,,239,0,7,,,,,,,,,,,,,,,,3,,76,0
51119,note_on,,239,0,15,,,,,,,,,,,,,,,,11,,79,0
51119,note_on,,119,0,16,,,,,,,,,,,,,,,,12,,69,0
51119,note_on,,239,0,8,,,,,,,,,,,,,,,,4,,79,0
51119,note_on,,0,0,18,,,,,,,,,,,,,,,,15,,64,0
51119,note_on,,119,0,18,,,,,,,,,,,,,,,,15,,76,0
51119,note_on,,119,0,13,,,,,,,,,,,,,,,,14,,45,0
51119,note_on,,0,0,18,,,,,,,,,,,,,,,,15,,81,0
51119,note_on,,239,0,14,,,,,,,,,,,,,,,,10,,76,0
51119,note_on,,119,0,12,,,,,,,,,,,,,,,,8,,61,0
51119,note_on,,0,0,18,,,,,,,,,,,,,,,,15,,69,0
51120,note_on,,1,0,18,,,,,,,,,,,,,,,,15,,62,72
51120,note_on,,1,0,10,,,,,,,,,,,,,,,,6,,69,72
51120,note_on,,0,0,18,,,,,,,,,,,,,,,,15,,69,72
51120,note_on,,0,0,18,,,,,,,,,,,,,,,,15,,66,72
51120,note_on,,1,0,15,,,,,,,,,,,,,,,,11,,78,72
51120,note_on,,1,0,6,,,,,,,,,,,,,,,,2,,62,72
51120,note_on,,1,0,5,,,,,,,,,,,,,,,,1,,74,72
51120,note_on,,1,0,11,,,,,,,,,,,,,,,,7,,66,72
51120,note_on,,0,0,18,,,,,,,,,,,,,,,,15,,78,72
51120,note_on,,1,0,14,,,,,,,,,,,,,,,,10,,69,72
51120,note_on,,1,0,13,,,,,,,,,,,,,,,,14,,50,72
51120,note_on,,0,0,18,,,,,,,,,,,,,,,,15,,74,72
51120,note_on,,1,0,17,,,,,,,,,,,,,,,,13,,62,72
51120,note_on,,1,0,9,,,,,,,,,,,,,,,,5,,74,72
51120,note_on,,1,0,7,,,,,,,,,,,,,,,,3,,74,72
51120,note_on,,1,0,16,,,,,,,,,,,,,,,,12,,74,60
51120,note_on,,1,0,12,,,,,,,,,,,,,,,,8,,62,72
51120,note_on,,1,0,8,,,,,,,,,,,,,,,,4,,78,72
51239,note_on,,119,0,13,,,,,,,,,,,,,,,,14,,50,0
51239,note_on,,119,0,7,,,,,,,,,,,,,,,,3,,74,0
51239,note_on,,119,0,16,,,,,,,,,,,,,,,,12,,74,0
51239,note_on,,119,0,14,,,,,,,,,,,,,,,,10,,69,0
51239,note_on,,119,0,15,,,,,,,,,,,,,,,,11,,78,0
51239,note_on,,119,0,8,,,,,,,,,,,,,,,,4,,78,0
51299,note_on,,179,0,17,,,,,,,,,,,,,,,,13,,62,0
51299,note_on,,0,0,18,,,,,,,,,,,,,,,,15,,66,0
51299,note_on,,179,0,6,,,,,,,,,,,,,,,,2,,62,0
51299,note_on,,179,0,18,,,,,,,,,,,,,,,,15,,62,0
51299,note_on,,0,0,18,,,,,,,,,,,,,,,,15,,69,0
51299,note_on,,0,0,18,,,,,,,,,,,,,,,,15,,78,0
51299,note_on,,0,0,18,,,,,,,,,,,,,,,,15,,74,0
51300,note_on,,61,0,14,,,,,,,,,,,,,,,,10,,78,72
51300,note_on,,1,0,18,,,,,,,,,,,,,,,,15,,78,72
51359,note_on,,239,0,12,,,,,,,,,,,,,,,,8,,62,0
51359,note_on,,239,0,10,,,,,,,,,,,,,,,,6,,69,0
51359,note_on,,239,0,9,,,,,,,,,,,,,,,,5,,74,0
51359,note_on,,59,0,14,,,,,,,,,,,,,,,,10,,78,0
51359,note_on,,59,0,18,,,,,,,,,,,,,,,,15,,78,0
51359,note_on,,239,0,11,,,,,,,,,,,,,,,,7,,66,0
51359,note_on,,239,0,5,,,,,,,,,,,,,,,,1,,74,0
51360,note_on,,1,0,14,,,,,,,,,,,,,,,,10,,79,72
51360,note_on,,1,0,18,,,,,,,,,,,,,,,,15,,79,72
51419,note_on,,59,0,18,,,,,,,,,,,,,,,,15,,79,0
51419,note_on,,59,0,14,,,,,,,,,,,,,,,,10,,79,0
51420,note_on,,1,0,14,,,,,,,,,,,,,,,,10,,76,72
51420,note_on,,1,0,18,,,,,,,,,,,,,,,,15,,76,72
51479,note_on,,59,0,14,,,,,,,,,,,,,,,,10,,76,0
51479,note_on,,59,0,18,,,,,,,,,,,,,,,,15,,76,0
51480,note_on,,1,0,14,,,,,,,,,,,,,,,,10,,81,72
51480,note_on,,1,0,18,,,,,,,,,,,,,,,,15,,81,72
51539,note_on,,59,0,14,,,,,,,,,,,,,,,,10,,81,0
51539,note_on,,59,0,18,,,,,,,,,,,,,,,,15,,81,0
51540,note_on,,1,0,14,,,,,,,,,,,,,,,,10,,79,72
51540,note_on,,1,0,18,,,,,,,,,,,,,,,,15,,79,72
51599,note_on,,59,0,14,,,,,,,,,,,,,,,,10,,79,0
51599,note_on,,59,0,18,,,,,,,,,,,,,,,,15,,79,0
51600,note_on,,1,0,14,,,,,,,,,,,,,,,,10,,78,72
51600,note_on,,1,0,18,,,,,,,,,,,,,,,,15,,78,72
51659,note_on,,59,0,14,,,,,,,,,,,,,,,,10,,78,0
51659,note_on,,59,0,18,,,,,,,,,,,,,,,,15,,78,0
51660,note_on,,1,0,18,,,,,,,,,,,,,,,,15,,74,72
51660,note_on,,1,0,14,,,,,,,,,,,,,,,,10,,74,72
51719,note_on,,59,0,14,,,,,,,,,,,,,,,,10,,74,0
51719,note_on,,59,0,18,,,,,,,,,,,,,,,,15,,74,0
51720,note_on,,1,0,18,,,,,,,,,,,,,,,,15,,81,72
51720,note_on,,1,0,14,,,,,,,,,,,,,,,,10,,81,72
51780,note_on,,541,0,15,,,,,,,,,,,,,,,,11,,73,72
51780,note_on,,60,0,18,,,,,,,,,,,,,,,,15,,73,72
51839,note_on,,59,0,18,,,,,,,,,,,,,,,,15,,73,0
51839,note_on,,59,0,15,,,,,,,,,,,,,,,,11,,73,0
51840,note_on,,1,0,15,,,,,,,,,,,,,,,,11,,74,72
51840,note_on,,1,0,18,,,,,,,,,,,,,,,,15,,74,72
51899,note_on,,59,0,15,,,,,,,,,,,,,,,,11,,74,0
51899,note_on,,59,0,18,,,,,,,,,,,,,,,,15,,74,0
51900,note_on,,1,0,18,,,,,,,,,,,,,,,,15,,71,72
51900,note_on,,1,0,15,,,,,,,,,,,,,,,,11,,71,72
51959,note_on,,239,0,14,,,,,,,,,,,,,,,,10,,81,0
51959,note_on,,0,0,18,,,,,,,,,,,,,,,,15,,71,0
51959,note_on,,59,0,18,,,,,,,,,,,,,,,,15,,81,0
51959,note_on,,59,0,15,,,,,,,,,,,,,,,,11,,71,0
51960,note_on,,1,0,18,,,,,,,,,,,,,,,,15,,76,72
51960,note_on,,0,0,18,,,,,,,,,,,,,,,,15,,80,72
51960,note_on,,1,0,15,,,,,,,,,,,,,,,,11,,76,72
51960,note_on,,1,0,14,,,,,,,,,,,,,,,,10,,80,72
51974,note_on,,14,0,14,,,,,,,,,,,,,,,,10,,80,0
51975,note_on,,1,0,14,,,,,,,,,,,,,,,,10,,81,72
51989,note_on,,14,0,14,,,,,,,,,,,,,,,,10,,81,0
51990,note_on,,1,0,14,,,,,,,,,,,,,,,,10,,80,72
52004,note_on,,14,0,14,,,,,,,,,,,,,,,,10,,80,0
52005,note_on,,1,0,14,,,,,,,,,,,,,,,,10,,81,72
52019,note_on,,59,0,18,,,,,,,,,,,,,,,,15,,76,0
52019,note_on,,59,0,15,,,,,,,,,,,,,,,,11,,76,0
52019,note_on,,14,0,14,,,,,,,,,,,,,,,,10,,81,0
52020,note_on,,1,0,14,,,,,,,,,,,,,,,,10,,80,72
52020,note_on,,1,0,18,,,,,,,,,,,,,,,,15,,74,72
52020,note_on,,1,0,15,,,,,,,,,,,,,,,,11,,74,72
52034,note_on,,14,0,14,,,,,,,,,,,,,,,,10,,80,0
52035,note_on,,1,0,14,,,,,,,,,,,,,,,,10,,81,72
52049,note_on,,14,0,14,,,,,,,,,,,,,,,,10,,81,0
52050,note_on,,1,0,14,,,,,,,,,,,,,,,,10,,78,72
52064,note_on,,14,0,14,,,,,,,,,,,,,,,,10,,78,0
52065,note_on,,1,0,14,,,,,,,,,,,,,,,,10,,80,72
52079,note_on,,0,0,18,,,,,,,,,,,,,,,,15,,74,0
52079,note_on,,14,0,14,,,,,,,,,,,,,,,,10,,80,0
52079,note_on,,59,0,15,,,,,,,,,,,,,,,,11,,74,0
52079,note_on,,59,0,18,,,,,,,,,,,,,,,,15,,80,0
52080,note_on,,1,0,14,,,,,,,,,,,,,,,,10,,81,72
52080,note_on,,0,0,18,,,,,,,,,,,,,,,,15,,81,72
52080,note_on,,1,0,15,,,,,,,,,,,,,,,,11,,73,72
52080,note_on,,1,0,18,,,,,,,,,,,,,,,,15,,73,72
52139,note_on,,59,0,18,,,,,,,,,,,,,,,,15,,73,0
52139,note_on,,0,0,18,,,,,,,,,,,,,,,,15,,81,0
52139,note_on,,59,0,14,,,,,,,,,,,,,,,,10,,81,0
52139,note_on,,59,0,15,,,,,,,,,,,,,,,,11,,73,0
52140,note_on,,1,0,15,,,,,,,,,,,,,,,,11,,69,72
52140,note_on,,1,0,18,,,,,,,,,,,,,,,,15,,69,72
52140,note_on,,0,0,18,,,,,,,,,,,,,,,,15,,85,72
52140,note_on,,1,0,14,,,,,,,,,,,,,,,,10,,85,72
52199,note_on,,59,0,15,,,,,,,,,,,,,,,,11,,69,0
52199,note_on,,59,0,14,,,,,,,,,,,,,,,,10,,85,0
52199,note_on,,59,0,18,,,,,,,,,,,,,,,,15,,69,0
52199,note_on,,0,0,18,,,,,,,,,,,,,,,,15,,85,0
52200,note_on,,1,0,15,,,,,,,,,,,,,,,,11,,78,72
52200,note_on,,1,0,14,,,,,,,,,,,,,,,,10,,86,72
52200,note_on,,0,0,18,,,,,,,,,,,,,,,,15,,86,72
52200,note_on,,1,0,18,,,,,,,,,,,,,,,,15,,78,72
52259,note_on,,59,0,18,,,,,,,,,,,,,,,,15,,78,0
52259,note_on,,59,0,14,,,,,,,,,,,,,,,,10,,86,0
52259,note_on,,59,0,15,,,,,,,,,,,,,,,,11,,78,0
52259,note_on,,0,0,18,,,,,,,,,,,,,,,,15,,86,0
52260,note_on,,1,0,18,,,,,,,,,,,,,,,,15,,79,72
52260,note_on,,1,0,14,,,,,,,,,,,,,,,,10,,83,72
52260,note_on,,1,0,15,,,,,,,,,,,,,,,,11,,80,72
52260,note_on,,0,0,18,,,,,,,,,,,,,,,,15,,83,72
52319,note_on,,0,0,18,,,,,,,,,,,,,,,,15,,83,0
52319,note_on,,59,0,18,,,,,,,,,,,,,,,,15,,79,0
52319,note_on,,59,0,14,,,,,,,,,,,,,,,,10,,83,0
52319,note_on,,59,0,15,,,,,,,,,,,,,,,,11,,80,0
52320,note_on,,961,0,9,,,,,,,,,,,,,,,,5,,76,72
52320,note_on,,1081,0,16,,,,,,,,,,,,,,,,12,,64,60
52320,note_on,,1081,0,7,,,,,,,,,,,,,,,,3,,76,72
52320,note_on,,1,0,14,,,,,,,,,,,,,,,,10,,85,72
52320,note_on,,961,0,5,,,,,,,,,,,,,,,,1,,76,72
52320,note_on,,961,0,12,,,,,,,,,,,,,,,,8,,45,72
52320,note_on,,1081,0,8,,,,,,,,,,,,,,,,4,,69,72
52320,note_on,,0,0,18,,,,,,,,,,,,,,,,15,,81,72
52320,note_on,,1021,0,6,,,,,,,,,,,,,,,,2,,45,72
52320,note_on,,1,0,18,,,,,,,,,,,,,,,,15,,45,72
52320,note_on,,1,0,15,,,,,,,,,,,,,,,,11,,81,72
52320,note_on,,0,0,18,,,,,,,,,,,,,,,,15,,76,72
52320,note_on,,0,0,18,,,,,,,,,,,,,,,,15,,73,72
52320,note_on,,961,0,11,,,,,,,,,,,,,,,,7,,61,72
52320,note_on,,0,0,18,,,,,,,,,,,,,,,,15,,57,72
52320,note_on,,1081,0,13,,,,,,,,,,,,,,,,14,,45,72
52320,note_on,,1021,0,17,,,,,,,,,,,,,,,,13,,45,72
52320,note_on,,961,0,10,,,,,,,,,,,,,,,,6,,69,72
52439,note_on,,119,0,14,,,,,,,,,,,,,,,,10,,85,0
52439,note_on,,119,0,15,,,,,,,,,,,,,,,,11,,81,0
52439,note_on,,119,0,7,,,,,,,,,,,,,,,,3,,76,0
52439,note_on,,119,0,13,,,,,,,,,,,,,,,,14,,45,0
52439,note_on,,119,0,8,,,,,,,,,,,,,,,,4,,69,0
52499,note_on,,179,0,11,,,,,,,,,,,,,,,,7,,61,0
52499,note_on,,179,0,5,,,,,,,,,,,,,,,,1,,76,0
52499,note_on,,179,0,12,,,,,,,,,,,,,,,,8,,45,0
52499,note_on,,179,0,17,,,,,,,,,,,,,,,,13,,45,0
52499,note_on,,179,0,18,,,,,,,,,,,,,,,,15,,45,0
52499,note_on,,179,0,16,,,,,,,,,,,,,,,,12,,64,0
52499,note_on,,179,0,6,,,,,,,,,,,,,,,,2,,45,0
52499,note_on,,179,0,9,,,,,,,,,,,,,,,,5,,76,0
52499,note_on,,179,0,10,,,,,,,,,,,,,,,,6,,69,0
52500,note_on,,1,0,9,,,,,,,,,,,,,,,,5,,74,72
52500,note_on,,1,0,18,,,,,,,,,,,,,,,,15,,47,72
52500,note_on,,61,0,7,,,,,,,,,,,,,,,,3,,76,72
52500,note_on,,61,0,14,,,,,,,,,,,,,,,,10,,83,72
52500,note_on,,1,0,10,,,,,,,,,,,,,,,,6,,68,72
52500,note_on,,1,0,5,,,,,,,,,,,,,,,,1,,74,72
52500,note_on,,61,0,8,,,,,,,,,,,,,,,,4,,69,72
52500,note_on,,61,0,13,,,,,,,,,,,,,,,,14,,45,72
52500,note_on,,1,0,6,,,,,,,,,,,,,,,,2,,47,72
52500,note_on,,1,0,12,,,,,,,,,,,,,,,,8,,47,72
52500,note_on,,61,0,15,,,,,,,,,,,,,,,,11,,80,72
52500,note_on,,1,0,11,,,,,,,,,,,,,,,,7,,62,72
52500,note_on,,1,0,17,,,,,,,,,,,,,,,,13,,47,72
52500,note_on,,1,0,16,,,,,,,,,,,,,,,,12,,62,60
52559,note_on,,59,0,16,,,,,,,,,,,,,,,,12,,62,0
52559,note_on,,59,0,8,,,,,,,,,,,,,,,,4,,69,0
52559,note_on,,59,0,14,,,,,,,,,,,,,,,,10,,83,0
52559,note_on,,59,0,6,,,,,,,,,,,,,,,,2,,47,0
52559,note_on,,59,0,12,,,,,,,,,,,,,,,,8,,47,0
52559,note_on,,0,0,18,,,,,,,,,,,,,,,,15,,47,0
52559,note_on,,59,0,13,,,,,,,,,,,,,,,,14,,45,0
52559,note_on,,59,0,11,,,,,,,,,,,,,,,,7,,62,0
52559,note_on,,59,0,5,,,,,,,,,,,,,,,,1,,74,0
52559,note_on,,59,0,7,,,,,,,,,,,,,,,,3,,76,0
52559,note_on,,59,0,18,,,,,,,,,,,,,,,,15,,81,0
52559,note_on,,59,0,9,,,,,,,,,,,,,,,,5,,74,0
52559,note_on,,59,0,15,,,,,,,,,,,,,,,,11,,80,0
52559,note_on,,0,0,18,,,,,,,,,,,,,,,,15,,76,0
52559,note_on,,0,0,18,,,,,,,,,,,,,,,,15,,73,0
52559,note_on,,0,0,18,,,,,,,,,,,,,,,,15,,57,0
52559,note_on,,59,0,17,,,,,,,,,,,,,,,,13,,47,0
52559,note_on,,59,0,10,,,,,,,,,,,,,,,,6,,68,0
52560,note_on,,1,0,10,,,,,,,,,,,,,,,,6,,69,72
52560,note_on,,1,0,11,,,,,,,,,,,,,,,,7,,64,72
52560,note_on,,1,0,17,,,,,,,,,,,,,,,,13,,49,72
52560,note_on,,0,0,18,,,,,,,,,,,,,,,,15,,69,72
52560,note_on,,0,0,18,,,,,,,,,,,,,,,,15,,73,72
52560,note_on,,1,0,14,,,,,,,,,,,,,,,,10,,81,72
52560,note_on,,1,0,5,,,,,,,,,,,,,,,,1,,73,72
52560,note_on,,1,0,15,,,,,,,,,,,,,,,,11,,81,72
52560,note_on,,1,0,6,,,,,,,,,,,,,,,,2,,49,72
52560,note_on,,1,0,16,,,,,,,,,,,,,,,,12,,64,60
52560,note_on,,1,0,12,,,,,,,,,,,,,,,,8,,49,72
52560,note_on,,0,0,18,,,,,,,,,,,,,,,,15,,57,72
52560,note_on,,1,0,9,,,,,,,,,,,,,,,,5,,73,72
52560,note_on,,1,0,8,,,,,,,,,,,,,,,,4,,76,72
52560,note_on,,1,0,7,,,,,,,,,,,,,,,,3,,81,72
52560,note_on,,1,0,13,,,,,,,,,,,,,,,,14,,45,72
52560,note_on,,1,0,18,,,,,,,,,,,,,,,,15,,49,72
52560,note_on,,0,0,18,,,,,,,,,,,,,,,,15,,76,72
52619,note_on,,59,0,12,,,,,,,,,,,,,,,,8,,49,0
52619,note_on,,59,0,16,,,,,,,,,,,,,,,,12,,64,0
52619,note_on,,59,0,6,,,,,,,,,,,,,,,,2,,49,0
52619,note_on,,59,0,17,,,,,,,,,,,,,,,,13,,49,0
52619,note_on,,59,0,18,,,,,,,,,,,,,,,,15,,49,0
52619,note_on,,59,0,15,,,,,,,,,,,,,,,,11,,81,0
52620,note_on,,1,0,6,,,,,,,,,,,,,,,,2,,50,72
52620,note_on,,1,0,18,,,,,,,,,,,,,,,,15,,50,72
52620,note_on,,1,0,12,,,,,,,,,,,,,,,,8,,50,72
52620,note_on,,1,0,17,,,,,,,,,,,,,,,,13,,50,72
52620,note_on,,1,0,15,,,,,,,,,,,,,,,,11,,78,72
52620,note_on,,1,0,16,,,,,,,,,,,,,,,,12,,71,60
52679,note_on,,119,0,10,,,,,,,,,,,,,,,,6,,69,0
52679,note_on,,59,0,16,,,,,,,,,,,,,,,,12,,71,0
52679,note_on,,59,0,18,,,,,,,,,,,,,,,,15,,57,0
52679,note_on,,119,0,14,,,,,,,,,,,,,,,,10,,81,0
52679,note_on,,119,0,8,,,,,,,,,,,,,,,,4,,76,0
52679,note_on,,119,0,5,,,,,,,,,,,,,,,,1,,73,0
52679,note_on,,119,0,13,,,,,,,,,,,,,,,,14,,45,0
52679,note_on,,119,0,7,,,,,,,,,,,,,,,,3,,81,0
52679,note_on,,119,0,9,,,,,,,,,,,,,,,,5,,73,0
52679,note_on,,59,0,12,,,,,,,,,,,,,,,,8,,50,0
52679,note_on,,0,0,18,,,,,,,,,,,,,,,,15,,73,0
52679,note_on,,0,0,18,,,,,,,,,,,,,,,,15,,69,0
52679,note_on,,0,0,18,,,,,,,,,,,,,,,,15,,50,0
52679,note_on,,59,0,6,,,,,,,,,,,,,,,,2,,50,0
52679,note_on,,59,0,17,,,,,,,,,,,,,,,,13,,50,0
52679,note_on,,59,0,15,,,,,,,,,,,,,,,,11,,78,0
52680,note_on,,1,0,7,,,,,,,,,,,,,,,,3,,80,72
52680,note_on,,1,0,10,,,,,,,,,,,,,,,,6,,68,72
52680,note_on,,1,0,13,,,,,,,,,,,,,,,,14,,50,72
52680,note_on,,1,0,5,,,,,,,,,,,,,,,,1,,71,72
52680,note_on,,0,0,18,,,,,,,,,,,,,,,,15,,64,72
52680,note_on,,1,0,14,,,,,,,,,,,,,,,,10,,80,72
52680,note_on,,1,0,6,,,,,,,,,,,,,,,,2,,52,72
52680,note_on,,1,0,16,,,,,,,,,,,,,,,,12,,71,60
52680,note_on,,1,0,18,,,,,,,,,,,,,,,,15,,52,72
52680,note_on,,1,0,9,,,,,,,,,,,,,,,,5,,71,72
52680,note_on,,1,0,17,,,,,,,,,,,,,,,,13,,52,72
52680,note_on,,1,0,12,,,,,,,,,,,,,,,,8,,52,72
52680,note_on,,1,0,15,,,,,,,,,,,,,,,,11,,76,72
52680,note_on,,0,0,18,,,,,,,,,,,,,,,,15,,68,72
52680,note_on,,1,0,8,,,,,,,,,,,,,,,,4,,76,72
52680,note_on,,0,0,18,,,,,,,,,,,,,,,,15,,71,72
52739,note_on,,179,0,11,,,,,,,,,,,,,,,,7,,64,0
52739,note_on,,59,0,17,,,,,,,,,,,,,,,,13,,52,0
52739,note_on,,59,0,6,,,,,,,,,,,,,,,,2,,52,0
52739,note_on,,59,0,10,,,,,,,,,,,,,,,,6,,68,0
52739,note_on,,59,0,16,,,,,,,,,,,,,,,,12,,71,0
52739,note_on,,59,0,12,,,,,,,,,,,,,,,,8,,52,0
52739,note_on,,59,0,18,,,,,,,,,,,,,,,,15,,52,0
52739,note_on,,59,0,15,,,,,,,,,,,,,,,,11,,76,0
52740,note_on,,1,0,6,,,,,,,,,,,,,,,,2,,47,72
52740,note_on,,1,0,18,,,,,,,,,,,,,,,,15,,47,72
52740,note_on,,1,0,17,,,,,,,,,,,,,,,,13,,47,72
52740,note_on,,1,0,15,,,,,,,,,,,,,,,,11,,74,72
52740,note_on,,1,0,12,,,,,,,,,,,,,,,,8,,47,72
52740,note_on,,1,0,10,,,,,,,,,,,,,,,,6,,66,72
52740,note_on,,1,0,16,,,,,,,,,,,,,,,,12,,71,60
52740,note_on,,1,0,11,,,,,,,,,,,,,,,,7,,62,72
52799,note_on,,0,0,18,,,,,,,,,,,,,,,,15,,64,0
52799,note_on,,59,0,18,,,,,,,,,,,,,,,,15,,76,0
52799,note_on,,0,0,18,,,,,,,,,,,,,,,,15,,68,0
52799,note_on,,59,0,16,,,,,,,,,,,,,,,,12,,71,0
52799,note_on,,0,0,18,,,,,,,,,,,,,,,,15,,71,0
52799,note_on,,0,0,18,,,,,,,,,,,,,,,,15,,47,0
52799,note_on,,59,0,6,,,,,,,,,,,,,,,,2,,47,0
52799,note_on,,119,0,8,,,,,,,,,,,,,,,,4,,76,0
52799,note_on,,119,0,9,,,,,,,,,,,,,,,,5,,71,0
52799,note_on,,59,0,11,,,,,,,,,,,,,,,,7,,62,0
52799,note_on,,59,0,17,,,,,,,,,,,,,,,,13,,47,0
52799,note_on,,59,0,12,,,,,,,,,,,,,,,,8,,47,0
52799,note_on,,119,0,14,,,,,,,,,,,,,,,,10,,80,0
52799,note_on,,59,0,15,,,,,,,,,,,,,,,,11,,74,0
52799,note_on,,119,0,7,,,,,,,,,,,,,,,,3,,80,0
52799,note_on,,59,0,10,,,,,,,,,,,,,,,,6,,66,0
52799,note_on,,119,0,13,,,,,,,,,,,,,,,,14,,50,0
52799,note_on,,119,0,5,,,,,,,,,,,,,,,,1,,71,0
52800,note_on,,1,0,6,,,,,,,,,,,,,,,,2,,49,72
52800,note_on,,1,0,14,,,,,,,,,,,,,,,,10,,81,72
52800,note_on,,1,0,5,,,,,,,,,,,,,,,,1,,69,72
52800,note_on,,1,0,17,,,,,,,,,,,,,,,,13,,49,72
52800,note_on,,1,0,15,,,,,,,,,,,,,,,,11,,73,72
52800,note_on,,1,0,12,,,,,,,,,,,,,,,,8,,49,72
52800,note_on,,1,0,9,,,,,,,,,,,,,,,,5,,69,72
52800,note_on,,1,0,13,,,,,,,,,,,,,,,,14,,45,72
52800,note_on,,1,0,10,,,,,,,,,,,,,,,,6,,64,72
52800,note_on,,1,0,7,,,,,,,,,,,,,,,,3,,81,72
52800,note_on,,0,0,18,,,,,,,,,,,,,,,,15,,69,72
52800,note_on,,1,0,16,,,,,,,,,,,,,,,,12,,64,60
52800,note_on,,1,0,18,,,,,,,,,,,,,,,,15,,49,72
52800,note_on,,0,0,18,,,,,,,,,,,,,,,,15,,64,72
52800,note_on,,1,0,11,,,,,,,,,,,,,,,,7,,64,72
52800,note_on,,0,0,18,,,,,,,,,,,,,,,,15,,76,72
52800,note_on,,1,0,8,,,,,,,,,,,,,,,,4,,76,72
52859,note_on,,59,0,12,,,,,,,,,,,,,,,,8,,49,0
52859,note_on,,59,0,16,,,,,,,,,,,,,,,,12,,64,0
52859,note_on,,59,0,18,,,,,,,,,,,,,,,,15,,49,0
52859,note_on,,59,0,6,,,,,,,,,,,,,,,,2,,49,0
52859,note_on,,59,0,11,,,,,,,,,,,,,,,,7,,64,0
52859,note_on,,59,0,17,,,,,,,,,,,,,,,,13,,49,0
52860,note_on,,1,0,11,,,,,,,,,,,,,,,,7,,61,72
52860,note_on,,1,0,6,,,,,,,,,,,,,,,,2,,45,72
52860,note_on,,1,0,18,,,,,,,,,,,,,,,,15,,45,72
52860,note_on,,1,0,17,,,,,,,,,,,,,,,,13,,45,72
52860,note_on,,1,0,16,,,,,,,,,,,,,,,,12,,61,60
52860,note_on,,1,0,12,,,,,,,,,,,,,,,,8,,45,72
52919,note_on,,59,0,12,,,,,,,,,,,,,,,,8,,45,0
52919,note_on,,119,0,8,,,,,,,,,,,,,,,,4,,76,0
52919,note_on,,119,0,14,,,,,,,,,,,,,,,,10,,81,0
52919,note_on,,119,0,9,,,,,,,,,,,,,,,,5,,69,0
52919,note_on,,119,0,15,,,,,,,,,,,,,,,,11,,73,0
52919,note_on,,0,0,18,,,,,,,,,,,,,,,,15,,69,0
52919,note_on,,0,0,18,,,,,,,,,,,,,,,,15,,45,0
52919,note_on,,119,0,10,,,,,,,,,,,,,,,,6,,64,0
52919,note_on,,59,0,16,,,,,,,,,,,,,,,,12,,61,0
52919,note_on,,119,0,5,,,,,,,,,,,,,,,,1,,69,0
52919,note_on,,0,0,18,,,,,,,,,,,,,,,,15,,76,0
52919,note_on,,119,0,13,,,,,,,,,,,,,,,,14,,45,0
52919,note_on,,59,0,18,,,,,,,,,,,,,,,,15,,64,0
52919,note_on,,59,0,6,,,,,,,,,,,,,,,,2,,45,0
52919,note_on,,119,0,7,,,,,,,,,,,,,,,,3,,81,0
52919,note_on,,59,0,17,,,,,,,,,,,,,,,,13,,45,0
52919,note_on,,59,0,11,,,,,,,,,,,,,,,,7,,61,0
52920,note_on,,1,0,17,,,,,,,,,,,,,,,,13,,54,72
52920,note_on,,1,0,16,,,,,,,,,,,,,,,,12,,61,60
52920,note_on,,1,0,18,,,,,,,,,,,,,,,,15,,54,72
52920,note_on,,1,0,15,,,,,,,,,,,,,,,,11,,69,72
52920,note_on,,0,0,18,,,,,,,,,,,,,,,,15,,61,72
52920,note_on,,0,0,18,,,,,,,,,,,,,,,,15,,57,72
52920,note_on,,0,0,18,,,,,,,,,,,,,,,,15,,66,72
52920,note_on,,1,0,12,,,,,,,,,,,,,,,,8,,54,72
52920,note_on,,0,0,18,,,,,,,,,,,,,,,,15,,69,72
52920,note_on,,1,0,11,,,,,,,,,,,,,,,,7,,57,72
52920,note_on,,1,0,6,,,,,,,,,,,,,,,,2,,54,72
52979,note_on,,59,0,11,,,,,,,,,,,,,,,,7,,57,0
53039,note_on,,0,0,18,,,,,,,,,,,,,,,,15,,69,0
53039,note_on,,119,0,15,,,,,,,,,,,,,,,,11,,69,0
53039,note_on,,0,0,18,,,,,,,,,,,,,,,,15,,66,0
53039,note_on,,0,0,18,,,,,,,,,,,,,,,,15,,61,0
53039,note_on,,119,0,18,,,,,,,,,,,,,,,,15,,57,0
53040,note_on,,61,0,11,,,,,,,,,,,,,,,,7,,56,72
53040,note_on,,0,0,18,,,,,,,,,,,,,,,,15,,68,72
53040,note_on,,1,0,15,,,,,,,,,,,,,,,,11,,68,72
53040,note_on,,0,0,18,,,,,,,,,,,,,,,,15,,61,72
53040,note_on,,1,0,18,,,,,,,,,,,,,,,,15,,73,72
53099,note_on,,59,0,11,,,,,,,,,,,,,,,,7,,56,0
53159,note_on,,119,0,15,,,,,,,,,,,,,,,,11,,68,0
53159,note_on,,239,0,6,,,,,,,,,,,,,,,,2,,54,0
53159,note_on,,239,0,12,,,,,,,,,,,,,,,,8,,54,0
53159,note_on,,239,0,16,,,,,,,,,,,,,,,,12,,61,0
53159,note_on,,119,0,18,,,,,,,,,,,,,,,,15,,54,0
53159,note_on,,239,0,17,,,,,,,,,,,,,,,,13,,54,0
53160,note_on,,1,0,15,,,,,,,,,,,,,,,,11,,73,72
53160,note_on,,1,0,6,,,,,,,,,,,,,,,,2,,52,72
53160,note_on,,61,0,11,,,,,,,,,,,,,,,,7,,61,72
53160,note_on,,1,0,17,,,,,,,,,,,,,,,,13,,52,72
53160,note_on,,241,0,9,,,,,,,,,,,,,,,,5,,68,72
53160,note_on,,241,0,5,,,,,,,,,,,,,,,,1,,68,72
53160,note_on,,1,0,16,,,,,,,,,,,,,,,,12,,73,60
53160,note_on,,1,0,18,,,,,,,,,,,,,,,,15,,52,72
53160,note_on,,1,0,12,,,,,,,,,,,,,,,,8,,52,72
53160,note_on,,241,0,14,,,,,,,,,,,,,,,,10,,80,72
53219,note_on,,59,0,11,,,,,,,,,,,,,,,,7,,61,0
53279,note_on,,119,0,14,,,,,,,,,,,,,,,,10,,80,0
53279,note_on,,119,0,15,,,,,,,,,,,,,,,,11,,73,0
53279,note_on,,0,0,18,,,,,,,,,,,,,,,,15,,52,0
53279,note_on,,119,0,18,,,,,,,,,,,,,,,,15,,68,0
53279,note_on,,119,0,17,,,,,,,,,,,,,,,,13,,52,0
53279,note_on,,119,0,12,,,,,,,,,,,,,,,,8,,52,0
53279,note_on,,119,0,6,,,,,,,,,,,,,,,,2,,52,0
53280,note_on,,1,0,17,,,,,,,,,,,,,,,,13,,45,72
53280,note_on,,1,0,6,,,,,,,,,,,,,,,,2,,45,72
53280,note_on,,1,0,14,,,,,,,,,,,,,,,,10,,78,72
53280,note_on,,61,0,11,,,,,,,,,,,,,,,,7,,61,72
53280,note_on,,1,0,18,,,,,,,,,,,,,,,,15,,45,72
53280,note_on,,0,0,18,,,,,,,,,,,,,,,,15,,57,72
53280,note_on,,0,0,18,,,,,,,,,,,,,,,,15,,66,72
53280,note_on,,1,0,12,,,,,,,,,,,,,,,,8,,45,72
53399,note_on,,119,0,14,,,,,,,,,,,,,,,,10,,78,0
53399,note_on,,239,0,9,,,,,,,,,,,,,,,,5,,68,0
53399,note_on,,239,0,16,,,,,,,,,,,,,,,,12,,73,0
53399,note_on,,0,0,18,,,,,,,,,,,,,,,,15,,61,0
53399,note_on,,0,0,18,,,,,,,,,,,,,,,,15,,45,0
53399,note_on,,0,0,18,,,,,,,,,,,,,,,,15,,57,0
53399,note_on,,0,0,18,,,,,,,,,,,,,,,,15,,66,0
53399,note_on,,119,0,17,,,,,,,,,,,,,,,,13,,45,0
53399,note_on,,119,0,18,,,,,,,,,,,,,,,,15,,73,0
53399,note_on,,119,0,11,,,,,,,,,,,,,,,,7,,61,0
53399,note_on,,119,0,12,,,,,,,,,,,,,,,,8,,45,0
53399,note_on,,119,0,6,,,,,,,,,,,,,,,,2,,45,0
53399,note_on,,239,0,5,,,,,,,,,,,,,,,,1,,68,0
53400,note_on,,1,0,14,,,,,,,,,,,,,,,,10,,83,72
53400,note_on,,1,0,11,,,,,,,,,,,,,,,,7,,59,72
53400,note_on,,121,0,15,,,,,,,,,,,,,,,,11,,66,72
53400,note_on,,1,0,12,,,,,,,,,,,,,,,,8,,50,72
53400,note_on,,481,0,10,,,,,,,,,,,,,,,,6,,66,72
53400,note_on,,1,0,6,,,,,,,,,,,,,,,,2,,50,72
53400,note_on,,1,0,5,,,,,,,,,,,,,,,,1,,71,72
53400,note_on,,1,0,9,,,,,,,,,,,,,,,,5,,71,72
53400,note_on,,0,0,18,,,,,,,,,,,,,,,,15,,66,72
53400,note_on,,1,0,16,,,,,,,,,,,,,,,,12,,71,60
53400,note_on,,1,0,17,,,,,,,,,,,,,,,,13,,50,72
53400,note_on,,1,0,18,,,,,,,,,,,,,,,,15,,50,72
53400,note_on,,0,0,18,,,,,,,,,,,,,,,,15,,59,72
53400,note_on,,0,0,18,,,,,,,,,,,,,,,,15,,71,72
53400,note_on,,0,0,18,,,,,,,,,,,,,,,,15,,62,72
53459,note_on,,59,0,16,,,,,,,,,,,,,,,,12,,71,0
53459,note_on,,59,0,11,,,,,,,,,,,,,,,,7,,59,0
53460,note_on,,1,0,11,,,,,,,,,,,,,,,,7,,57,72
53460,note_on,,1,0,16,,,,,,,,,,,,,,,,12,,69,60
53519,note_on,,119,0,9,,,,,,,,,,,,,,,,5,,71,0
53519,note_on,,59,0,11,,,,,,,,,,,,,,,,7,,57,0
53519,note_on,,119,0,5,,,,,,,,,,,,,,,,1,,71,0
53519,note_on,,119,0,15,,,,,,,,,,,,,,,,11,,66,0
53519,note_on,,59,0,16,,,,,,,,,,,,,,,,12,,69,0
53519,note_on,,119,0,18,,,,,,,,,,,,,,,,15,,59,0
53519,note_on,,0,0,18,,,,,,,,,,,,,,,,15,,71,0
53519,note_on,,119,0,10,,,,,,,,,,,,,,,,6,,66,0
53519,note_on,,0,0,18,,,,,,,,,,,,,,,,15,,62,0
53519,note_on,,119,0,14,,,,,,,,,,,,,,,,10,,83,0
53519,note_on,,0,0,18,,,,,,,,,,,,,,,,15,,66,0
53520,note_on,,0,0,18,,,,,,,,,,,,,,,,15,,71,72
53520,note_on,,0,0,18,,,,,,,,,,,,,,,,15,,76,72
53520,note_on,,1,0,10,,,,,,,,,,,,,,,,6,,64,72
53520,note_on,,1,0,15,,,,,,,,,,,,,,,,11,,64,72
53520,note_on,,0,0,18,,,,,,,,,,,,,,,,15,,68,72
53520,note_on,,1,0,18,,,,,,,,,,,,,,,,15,,52,72
53520,note_on,,1,0,11,,,,,,,,,,,,,,,,7,,56,72
53520,note_on,,1,0,16,,,,,,,,,,,,,,,,12,,68,60
53579,note_on,,59,0,11,,,,,,,,,,,,,,,,7,,56,0
53580,note_on,,1,0,11,,,,,,,,,,,,,,,,7,,54,72
53639,note_on,,119,0,18,,,,,,,,,,,,,,,,15,,50,0
53639,note_on,,59,0,11,,,,,,,,,,,,,,,,7,,54,0
53639,note_on,,0,0,18,,,,,,,,,,,,,,,,15,,71,0
53639,note_on,,239,0,17,,,,,,,,,,,,,,,,13,,50,0
53639,note_on,,119,0,15,,,,,,,,,,,,,,,,11,,64,0
53639,note_on,,119,0,10,,,,,,,,,,,,,,,,6,,64,0
53639,note_on,,239,0,12,,,,,,,,,,,,,,,,8,,50,0
53639,note_on,,239,0,6,,,,,,,,,,,,,,,,2,,50,0
53640,note_on,,1,0,6,,,,,,,,,,,,,,,,2,,49,72
53640,note_on,,121,0,5,,,,,,,,,,,,,,,,1,,76,72
53640,note_on,,1,0,17,,,,,,,,,,,,,,,,13,,49,72
53640,note_on,,1,0,12,,,,,,,,,,,,,,,,8,,49,72
53640,note_on,,121,0,14,,,,,,,,,,,,,,,,10,,76,72
53640,note_on,,0,0,18,,,,,,,,,,,,,,,,15,,73,72
53640,note_on,,1,0,10,,,,,,,,,,,,,,,,6,,68,72
53640,note_on,,1,0,15,,,,,,,,,,,,,,,,11,,68,72
53640,note_on,,121,0,9,,,,,,,,,,,,,,,,5,,76,72
53640,note_on,,1,0,18,,,,,,,,,,,,,,,,15,,49,72
53640,note_on,,1,0,11,,,,,,,,,,,,,,,,7,,52,72
53699,note_on,,179,0,16,,,,,,,,,,,,,,,,12,,68,0
53700,note_on,,1,0,16,,,,,,,,,,,,,,,,12,,61,60
53759,note_on,,0,0,18,,,,,,,,,,,,,,,,15,,68,0
53759,note_on,,119,0,6,,,,,,,,,,,,,,,,2,,49,0
53759,note_on,,59,0,16,,,,,,,,,,,,,,,,12,,61,0
53759,note_on,,119,0,12,,,,,,,,,,,,,,,,8,,49,0
53759,note_on,,119,0,17,,,,,,,,,,,,,,,,13,,49,0
53759,note_on,,119,0,18,,,,,,,,,,,,,,,,15,,52,0
53759,note_on,,119,0,10,,,,,,,,,,,,,,,,6,,68,0
53759,note_on,,119,0,15,,,,,,,,,,,,,,,,11,,68,0
53759,note_on,,119,0,11,,,,,,,,,,,,,,,,7,,52,0
53759,note_on,,0,0,18,,,,,,,,,,,,,,,,15,,49,0
53760,note_on,,1,0,12,,,,,,,,,,,,,,,,8,,54,72
53760,note_on,,1,0,17,,,,,,,,,,,,,,,,13,,54,72
53760,note_on,,0,0,18,,,,,,,,,,,,,,,,15,,69,72
53760,note_on,,1,0,6,,,,,,,,,,,,,,,,2,,54,72
53760,note_on,,1,0,16,,,,,,,,,,,,,,,,12,,61,60
53760,note_on,,1,0,15,,,,,,,,,,,,,,,,11,,69,72
53760,note_on,,1,0,18,,,,,,,,,,,,,,,,15,,54,72
53760,note_on,,0,0,18,,,,,,,,,,,,,,,,15,,57,72
53760,note_on,,1,0,10,,,,,,,,,,,,,,,,6,,69,72
53879,note_on,,119,0,18,,,,,,,,,,,,,,,,15,,76,0
53879,note_on,,239,0,14,,,,,,,,,,,,,,,,10,,76,0
53879,note_on,,0,0,18,,,,,,,,,,,,,,,,15,,73,0
53879,note_on,,239,0,5,,,,,,,,,,,,,,,,1,,76,0
53879,note_on,,239,0,9,,,,,,,,,,,,,,,,5,,76,0
53879,note_on,,119,0,16,,,,,,,,,,,,,,,,12,,61,0
53880,note_on,,1,0,18,,,,,,,,,,,,,,,,15,,74,72
53880,note_on,,1,0,14,,,,,,,,,,,,,,,,10,,74,72
53880,note_on,,121,0,11,,,,,,,,,,,,,,,,7,,57,72
53880,note_on,,1,0,5,,,,,,,,,,,,,,,,1,,74,72
53880,note_on,,1,0,16,,,,,,,,,,,,,,,,12,,62,60
53880,note_on,,1,0,9,,,,,,,,,,,,,,,,5,,74,72
53939,note_on,,59,0,18,,,,,,,,,,,,,,,,15,,54,0
53939,note_on,,0,0,18,,,,,,,,,,,,,,,,15,,57,0
53939,note_on,,179,0,17,,,,,,,,,,,,,,,,13,,54,0
53939,note_on,,179,0,6,,,,,,,,,,,,,,,,2,,54,0
53939,note_on,,179,0,12,,,,,,,,,,,,,,,,8,,54,0
53939,note_on,,179,0,15,,,,,,,,,,,,,,,,11,,69,0
53939,note_on,,179,0,10,,,,,,,,,,,,,,,,6,,69,0
53940,note_on,,1,0,17,,,,,,,,,,,,,,,,13,,54,72
53940,note_on,,1,0,15,,,,,,,,,,,,,,,,11,,69,72
53940,note_on,,1,0,10,,,,,,,,,,,,,,,,6,,68,72
53940,note_on,,1,0,12,,,,,,,,,,,,,,,,8,,54,72
53940,note_on,,1,0,18,,,,,,,,,,,,,,,,15,,54,72
53940,note_on,,1,0,6,,,,,,,,,,,,,,,,2,,54,72
53940,note_on,,0,0,18,,,,,,,,,,,,,,,,15,,57,72
53969,note_on,,29,0,10,,,,,,,,,,,,,,,,6,,68,0
53970,note_on,,1,0,10,,,,,,,,,,,,,,,,6,,66,72
53999,note_on,,59,0,18,,,,,,,,,,,,,,,,15,,69,0
53999,note_on,,119,0,11,,,,,,,,,,,,,,,,7,,57,0
53999,note_on,,29,0,10,,,,,,,,,,,,,,,,6,,66,0
53999,note_on,,119,0,16,,,,,,,,,,,,,,,,12,,62,0
53999,note_on,,59,0,17,,,,,,,,,,,,,,,,13,,54,0
53999,note_on,,0,0,18,,,,,,,,,,,,,,,,15,,57,0
53999,note_on,,59,0,6,,,,,,,,,,,,,,,,2,,54,0
53999,note_on,,0,0,18,,,,,,,,,,,,,,,,15,,54,0
53999,note_on,,59,0,12,,,,,,,,,,,,,,,,8,,54,0
53999,note_on,,59,0,15,,,,,,,,,,,,,,,,11,,69,0
54000,note_on,,1,0,15,,,,,,,,,,,,,,,,11,,76,72
54000,note_on,,1,0,11,,,,,,,,,,,,,,,,7,,59,72
54000,note_on,,1,0,10,,,,,,,,,,,,,,,,6,,64,72
54000,note_on,,1,0,6,,,,,,,,,,,,,,,,2,,56,72
54000,note_on,,1,0,17,,,,,,,,,,,,,,,,13,,56,72
54000,note_on,,1,0,12,,,,,,,,,,,,,,,,8,,56,72
54000,note_on,,0,0,18,,,,,,,,,,,,,,,,15,,64,72
54000,note_on,,0,0,18,,,,,,,,,,,,,,,,15,,71,72
54000,note_on,,0,0,18,,,,,,,,,,,,,,,,15,,59,72
54000,note_on,,1,0,18,,,,,,,,,,,,,,,,15,,56,72
54000,note_on,,1,0,16,,,,,,,,,,,,,,,,12,,71,60
54059,note_on,,59,0,17,,,,,,,,,,,,,,,,13,,56,0
54059,note_on,,59,0,18,,,,,,,,,,,,,,,,15,,56,0
54059,note_on,,59,0,12,,,,,,,,,,,,,,,,8,,56,0
54059,note_on,,59,0,6,,,,,,,,,,,,,,,,2,,56,0
54060,note_on,,1,0,18,,,,,,,,,,,,,,,,15,,52,72
54060,note_on,,1,0,6,,,,,,,,,,,,,,,,2,,52,72
54060,note_on,,1,0,17,,,,,,,,,,,,,,,,13,,52,72
54060,note_on,,1,0,12,,,,,,,,,,,,,,,,8,,52,72
54119,note_on,,119,0,11,,,,,,,,,,,,,,,,7,,59,0
54119,note_on,,59,0,6,,,,,,,,,,,,,,,,2,,52,0
54119,note_on,,239,0,14,,,,,,,,,,,,,,,,10,,74,0
54119,note_on,,0,0,18,,,,,,,,,,,,,,,,15,,71,0
54119,note_on,,0,0,18,,,,,,,,,,,,,,,,15,,52,0
54119,note_on,,59,0,18,,,,,,,,,,,,,,,,15,,74,0
54119,note_on,,0,0,18,,,,,,,,,,,,,,,,15,,64,0
54119,note_on,,59,0,12,,,,,,,,,,,,,,,,8,,52,0
54119,note_on,,119,0,16,,,,,,,,,,,,,,,,12,,71,0
54119,note_on,,239,0,5,,,,,,,,,,,,,,,,1,,74,0
54119,note_on,,59,0,17,,,,,,,,,,,,,,,,13,,52,0
54119,note_on,,239,0,9,,,,,,,,,,,,,,,,5,,74,0
54119,note_on,,0,0,18,,,,,,,,,,,,,,,,15,,59,0
54120,note_on,,1,0,17,,,,,,,,,,,,,,,,13,,57,72
54120,note_on,,1,0,6,,,,,,,,,,,,,,,,2,,57,72
54120,note_on,,0,0,18,,,,,,,,,,,,,,,,15,,64,72
54120,note_on,,0,0,18,,,,,,,,,,,,,,,,15,,69,72
54120,note_on,,0,0,18,,,,,,,,,,,,,,,,15,,73,72
54120,note_on,,0,0,18,,,,,,,,,,,,,,,,15,,61,72
54120,note_on,,1,0,11,,,,,,,,,,,,,,,,7,,61,72
54120,note_on,,1201,0,8,,,,,,,,,,,,,,,,4,,76,72
54120,note_on,,1201,0,7,,,,,,,,,,,,,,,,3,,81,72
54120,note_on,,1,0,14,,,,,,,,,,,,,,,,10,,73,72
54120,note_on,,1201,0,13,,,,,,,,,,,,,,,,14,,45,72
54120,note_on,,1,0,16,,,,,,,,,,,,,,,,12,,69,60
54120,note_on,,1,0,12,,,,,,,,,,,,,,,,8,,57,72
54120,note_on,,1,0,5,,,,,,,,,,,,,,,,1,,73,72
54120,note_on,,1,0,9,,,,,,,,,,,,,,,,5,,73,72
54120,note_on,,1,0,18,,,,,,,,,,,,,,,,15,,57,72
54179,note_on,,179,0,10,,,,,,,,,,,,,,,,6,,64,0
54179,note_on,,179,0,15,,,,,,,,,,,,,,,,11,,76,0
54180,note_on,,1,0,10,,,,,,,,,,,,,,,,6,,64,72
54180,note_on,,1,0,15,,,,,,,,,,,,,,,,11,,76,72
54239,note_on,,119,0,13,,,,,,,,,,,,,,,,14,,45,0
54239,note_on,,119,0,9,,,,,,,,,,,,,,,,5,,73,0
54239,note_on,,119,0,14,,,,,,,,,,,,,,,,10,,73,0
54239,note_on,,119,0,11,,,,,,,,,,,,,,,,7,,61,0
54239,note_on,,119,0,5,,,,,,,,,,,,,,,,1,,73,0
54239,note_on,,59,0,10,,,,,,,,,,,,,,,,6,,64,0
54239,note_on,,59,0,15,,,,,,,,,,,,,,,,11,,76,0
54239,note_on,,119,0,8,,,,,,,,,,,,,,,,4,,76,0
54239,note_on,,119,0,7,,,,,,,,,,,,,,,,3,,81,0
54239,note_on,,119,0,18,,,,,,,,,,,,,,,,15,,61,0
54239,note_on,,0,0,18,,,,,,,,,,,,,,,,15,,73,0
54239,note_on,,0,0,18,,,,,,,,,,,,,,,,15,,69,0
54239,note_on,,0,0,18,,,,,,,,,,,,,,,,15,,64,0
54239,note_on,,119,0,16,,,,,,,,,,,,,,,,12,,69,0
54240,note_on,,1,0,9,,,,,,,,,,,,,,,,5,,71,72
54240,note_on,,1,0,10,,,,,,,,,,,,,,,,6,,66,72
54240,note_on,,1,0,11,,,,,,,,,,,,,,,,7,,62,72
54240,note_on,,1,0,14,,,,,,,,,,,,,,,,10,,71,72
54240,note_on,,1,0,15,,,,,,,,,,,,,,,,11,,74,72
54240,note_on,,1,0,7,,,,,,,,,,,,,,,,3,,83,72
54240,note_on,,1,0,18,,,,,,,,,,,,,,,,15,,74,72
54240,note_on,,0,0,18,,,,,,,,,,,,,,,,15,,71,72
54240,note_on,,0,0,18,,,,,,,,,,,,,,,,15,,59,72
54240,note_on,,1,0,16,,,,,,,,,,,,,,,,12,,66,60
54240,note_on,,0,0,18,,,,,,,,,,,,,,,,15,,66,72
54240,note_on,,1,0,8,,,,,,,,,,,,,,,,4,,74,72
54240,note_on,,1,0,13,,,,,,,,,,,,,,,,14,,50,72
54240,note_on,,1,0,5,,,,,,,,,,,,,,,,1,,71,72
54359,note_on,,119,0,10,,,,,,,,,,,,,,,,6,,66,0
54359,note_on,,239,0,6,,,,,,,,,,,,,,,,2,,57,0
54359,note_on,,239,0,17,,,,,,,,,,,,,,,,13,,57,0
54359,note_on,,119,0,7,,,,,,,,,,,,,,,,3,,83,0
54359,note_on,,119,0,16,,,,,,,,,,,,,,,,12,,66,0
54359,note_on,,0,0,18,,,,,,,,,,,,,,,,15,,71,0
54359,note_on,,119,0,18,,,,,,,,,,,,,,,,15,,57,0
54359,note_on,,0,0,18,,,,,,,,,,,,,,,,15,,74,0
54359,note_on,,239,0,12,,,,,,,,,,,,,,,,8,,57,0
54359,note_on,,0,0,18,,,,,,,,,,,,,,,,15,,66,0
54360,note_on,,1,0,16,,,,,,,,,,,,,,,,12,,64,60
54360,note_on,,1,0,7,,,,,,,,,,,,,,,,3,,76,72
54360,note_on,,0,0,18,,,,,,,,,,,,,,,,15,,64,72
54360,note_on,,1,0,17,,,,,,,,,,,,,,,,13,,56,72
54360,note_on,,1,0,6,,,,,,,,,,,,,,,,2,,56,72
54360,note_on,,1,0,10,,,,,,,,,,,,,,,,6,,64,72
54360,note_on,,1,0,12,,,,,,,,,,,,,,,,8,,56,72
54360,note_on,,0,0,18,,,,,,,,,,,,,,,,15,,71,72
54360,note_on,,0,0,18,,,,,,,,,,,,,,,,15,,76,72
54360,note_on,,1,0,18,,,,,,,,,,,,,,,,15,,56,72
54419,note_on,,179,0,8,,,,,,,,,,,,,,,,4,,74,0
54419,note_on,,179,0,13,,,,,,,,,,,,,,,,14,,50,0
54420,note_on,,1,0,8,,,,,,,,,,,,,,,,4,,62,72
54420,note_on,,1,0,13,,,,,,,,,,,,,,,,14,,50,72
54479,note_on,,59,0,8,,,,,,,,,,,,,,,,4,,62,0
54479,note_on,,119,0,12,,,,,,,,,,,,,,,,8,,56,0
54479,note_on,,119,0,16,,,,,,,,,,,,,,,,12,,64,0
54479,note_on,,239,0,5,,,,,,,,,,,,,,,,1,,71,0
54479,note_on,,239,0,9,,,,,,,,,,,,,,,,5,,71,0
54479,note_on,,239,0,11,,,,,,,,,,,,,,,,7,,62,0
54479,note_on,,239,0,15,,,,,,,,,,,,,,,,11,,74,0
54479,note_on,,119,0,18,,,,,,,,,,,,,,,,15,,59,0
54479,note_on,,119,0,6,,,,,,,,,,,,,,,,2,,56,0
54479,note_on,,0,0,18,,,,,,,,,,,,,,,,15,,56,0
54479,note_on,,0,0,18,,,,,,,,,,,,,,,,15,,76,0
54479,note_on,,239,0,14,,,,,,,,,,,,,,,,10,,71,0
54479,note_on,,0,0,18,,,,,,,,,,,,,,,,15,,71,0
54479,note_on,,119,0,7,,,,,,,,,,,,,,,,3,,76,0
54479,note_on,,119,0,17,,,,,,,,,,,,,,,,13,,56,0
54479,note_on,,119,0,10,,,,,,,,,,,,,,,,6,,64,0
54479,note_on,,59,0,13,,,,,,,,,,,,,,,,14,,50,0
54479,note_on,,0,0,18,,,,,,,,,,,,,,,,15,,64,0
54480,note_on,,0,0,18,,,,,,,,,,,,,,,,15,,61,72
54480,note_on,,1,0,10,,,,,,,,,,,,,,,,6,,64,72
54480,note_on,,1,0,5,,,,,,,,,,,,,,,,1,,69,72
54480,note_on,,0,0,18,,,,,,,,,,,,,,,,15,,73,72
54480,note_on,,1,0,9,,,,,,,,,,,,,,,,5,,69,72
54480,note_on,,1,0,18,,,,,,,,,,,,,,,,15,,57,72
54480,note_on,,1,0,8,,,,,,,,,,,,,,,,4,,69,72
54480,note_on,,0,0,18,,,,,,,,,,,,,,,,15,,69,72
54480,note_on,,1,0,12,,,,,,,,,,,,,,,,8,,57,72
54480,note_on,,0,0,18,,,,,,,,,,,,,,,,15,,64,72
54480,note_on,,1,0,13,,,,,,,,,,,,,,,,14,,45,72
54480,note_on,,1,0,16,,,,,,,,,,,,,,,,12,,64,60
54480,note_on,,1,0,15,,,,,,,,,,,,,,,,11,,73,72
54480,note_on,,1,0,6,,,,,,,,,,,,,,,,2,,57,72
54480,note_on,,1,0,7,,,,,,,,,,,,,,,,3,,76,72
54480,note_on,,1,0,14,,,,,,,,,,,,,,,,10,,69,72
54480,note_on,,1,0,11,,,,,,,,,,,,,,,,7,,61,72
54480,note_on,,1,0,17,,,,,,,,,,,,,,,,13,,57,72
54599,note_on,,119,0,10,,,,,,,,,,,,,,,,6,,64,0
54599,note_on,,119,0,15,,,,,,,,,,,,,,,,11,,73,0
54599,note_on,,119,0,6,,,,,,,,,,,,,,,,2,,57,0
54599,note_on,,119,0,8,,,,,,,,,,,,,,,,4,,69,0
54599,note_on,,119,0,7,,,,,,,,,,,,,,,,3,,76,0
54599,note_on,,119,0,12,,,,,,,,,,,,,,,,8,,57,0
54599,note_on,,119,0,11,,,,,,,,,,,,,,,,7,,61,0
54599,note_on,,119,0,18,,,,,,,,,,,,,,,,15,,57,0
54599,note_on,,0,0,18,,,,,,,,,,,,,,,,15,,61,0
54599,note_on,,119,0,13,,,,,,,,,,,,,,,,14,,45,0
54599,note_on,,119,0,17,,,,,,,,,,,,,,,,13,,57,0
54599,note_on,,119,0,16,,,,,,,,,,,,,,,,12,,64,0
54600,note_on,,1,0,18,,,,,,,,,,,,,,,,15,,57,72
54600,note_on,,1,0,16,,,,,,,,,,,,,,,,12,,57,60
54600,note_on,,1,0,11,,,,,,,,,,,,,,,,7,,57,72
54659,note_on,,179,0,14,,,,,,,,,,,,,,,,10,,69,0
54659,note_on,,179,0,9,,,,,,,,,,,,,,,,5,,69,0
54659,note_on,,179,0,5,,,,,,,,,,,,,,,,1,,69,0
54660,note_on,,1,0,14,,,,,,,,,,,,,,,,10,,71,72
54660,note_on,,1,0,9,,,,,,,,,,,,,,,,5,,71,72
54660,note_on,,1,0,5,,,,,,,,,,,,,,,,1,,71,72
54719,note_on,,59,0,9,,,,,,,,,,,,,,,,5,,71,0
54719,note_on,,59,0,14,,,,,,,,,,,,,,,,10,,71,0
54719,note_on,,59,0,5,,,,,,,,,,,,,,,,1,,71,0
54719,note_on,,119,0,18,,,,,,,,,,,,,,,,15,,73,0
54719,note_on,,0,0,18,,,,,,,,,,,,,,,,15,,69,0
54719,note_on,,0,0,18,,,,,,,,,,,,,,,,15,,64,0
54720,note_on,,121,0,15,,,,,,,,,,,,,,,,11,,64,72
54720,note_on,,121,0,10,,,,,,,,,,,,,,,,6,,64,72
54720,note_on,,1,0,18,,,,,,,,,,,,,,,,15,,64,72
54720,note_on,,1,0,9,,,,,,,,,,,,,,,,5,,73,72
54720,note_on,,1,0,5,,,,,,,,,,,,,,,,1,,73,72
54720,note_on,,1,0,14,,,,,,,,,,,,,,,,10,,73,72
54779,note_on,,179,0,11,,,,,,,,,,,,,,,,7,,57,0
54779,note_on,,59,0,9,,,,,,,,,,,,,,,,5,,73,0
54779,note_on,,59,0,14,,,,,,,,,,,,,,,,10,,73,0
54779,note_on,,59,0,18,,,,,,,,,,,,,,,,15,,57,0
54779,note_on,,179,0,16,,,,,,,,,,,,,,,,12,,57,0
54779,note_on,,59,0,5,,,,,,,,,,,,,,,,1,,73,0
54780,note_on,,1,0,18,,,,,,,,,,,,,,,,15,,59,72
54780,note_on,,1,0,14,,,,,,,,,,,,,,,,10,,74,72
54780,note_on,,1,0,9,,,,,,,,,,,,,,,,5,,74,72
54780,note_on,,1,0,5,,,,,,,,,,,,,,,,1,,74,72
54780,note_on,,1,0,16,,,,,,,,,,,,,,,,12,,59,60
54780,note_on,,1,0,11,,,,,,,,,,,,,,,,7,,59,72
54839,note_on,,59,0,9,,,,,,,,,,,,,,,,5,,74,0
54839,note_on,,59,0,5,,,,,,,,,,,,,,,,1,,74,0
54839,note_on,,59,0,16,,,,,,,,,,,,,,,,12,,59,0
54839,note_on,,59,0,14,,,,,,,,,,,,,,,,10,,74,0
54839,note_on,,59,0,18,,,,,,,,,,,,,,,,15,,59,0
54839,note_on,,59,0,11,,,,,,,,,,,,,,,,7,,59,0
54840,note_on,,241,0,12,,,,,,,,,,,,,,,,8,,52,72
54840,note_on,,1,0,9,,,,,,,,,,,,,,,,5,,76,72
54840,note_on,,1,0,18,,,,,,,,,,,,,,,,15,,52,72
54840,note_on,,1,0,11,,,,,,,,,,,,,,,,7,,61,72
54840,note_on,,1,0,5,,,,,,,,,,,,,,,,1,,76,72
54840,note_on,,1,0,16,,,,,,,,,,,,,,,,12,,61,60
54840,note_on,,241,0,6,,,,,,,,,,,,,,,,2,,52,72
54840,note_on,,241,0,17,,,,,,,,,,,,,,,,13,,52,72
54840,note_on,,1,0,14,,,,,,,,,,,,,,,,10,,76,72
54840,note_on,,0,0,18,,,,,,,,,,,,,,,,15,,61,72
54899,note_on,,59,0,16,,,,,,,,,,,,,,,,12,,61,0
54899,note_on,,59,0,11,,,,,,,,,,,,,,,,7,,61,0
54899,note_on,,59,0,18,,,,,,,,,,,,,,,,15,,64,0
54899,note_on,,179,0,10,,,,,,,,,,,,,,,,6,,64,0
54899,note_on,,179,0,15,,,,,,,,,,,,,,,,11,,64,0
54899,note_on,,0,0,18,,,,,,,,,,,,,,,,15,,61,0
54900,note_on,,1,0,10,,,,,,,,,,,,,,,,6,,66,72
54900,note_on,,0,0,18,,,,,,,,,,,,,,,,15,,66,72
54900,note_on,,1,0,16,,,,,,,,,,,,,,,,12,,62,60
54900,note_on,,1,0,18,,,,,,,,,,,,,,,,15,,62,72
54900,note_on,,1,0,15,,,,,,,,,,,,,,,,11,,66,72
54900,note_on,,1,0,11,,,,,,,,,,,,,,,,7,,62,72
54959,note_on,,59,0,11,,,,,,,,,,,,,,,,7,,62,0
54959,note_on,,59,0,10,,,,,,,,,,,,,,,,6,,66,0
54959,note_on,,59,0,16,,,,,,,,,,,,,,,,12,,62,0
54959,note_on,,59,0,18,,,,,,,,,,,,,,,,15,,62,0
54959,note_on,,0,0,18,,,,,,,,,,,,,,,,15,,66,0
54959,note_on,,59,0,15,,,,,,,,,,,,,,,,11,,66,0
54960,note_on,,1,0,11,,,,,,,,,,,,,,,,7,,64,72
54960,note_on,,1,0,18,,,,,,,,,,,,,,,,15,,67,72
54960,note_on,,0,0,18,,,,,,,,,,,,,,,,15,,64,72
54960,note_on,,1,0,16,,,,,,,,,,,,,,,,12,,64,60
54960,note_on,,1,0,15,,,,,,,,,,,,,,,,11,,67,72
54960,note_on,,0,0,18,,,,,,,,,,,,,,,,15,,59,72
54960,note_on,,1,0,10,,,,,,,,,,,,,,,,6,,67,72
55019,note_on,,179,0,5,,,,,,,,,,,,,,,,1,,76,0
55019,note_on,,179,0,14,,,,,,,,,,,,,,,,10,,76,0
55019,note_on,,59,0,15,,,,,,,,,,,,,,,,11,,67,0
55019,note_on,,59,0,18,,,,,,,,,,,,,,,,15,,52,0
55019,note_on,,59,0,10,,,,,,,,,,,,,,,,6,,67,0
55019,note_on,,179,0,17,,,,,,,,,,,,,,,,13,,52,0
55019,note_on,,179,0,12,,,,,,,,,,,,,,,,8,,52,0
55019,note_on,,179,0,9,,,,,,,,,,,,,,,,5,,76,0
55019,note_on,,179,0,6,,,,,,,,,,,,,,,,2,,52,0
55020,note_on,,1,0,17,,,,,,,,,,,,,,,,13,,54,72
55020,note_on,,1,0,15,,,,,,,,,,,,,,,,11,,69,72
55020,note_on,,1,0,14,,,,,,,,,,,,,,,,10,,74,72
55020,note_on,,1,0,9,,,,,,,,,,,,,,,,5,,74,72
55020,note_on,,1,0,5,,,,,,,,,,,,,,,,1,,74,72
55020,note_on,,1,0,12,,,,,,,,,,,,,,,,8,,54,72
55020,note_on,,1,0,10,,,,,,,,,,,,,,,,6,,69,72
55020,note_on,,1,0,6,,,,,,,,,,,,,,,,2,,54,72
55020,note_on,,1,0,18,,,,,,,,,,,,,,,,15,,54,72
55049,note_on,,29,0,5,,,,,,,,,,,,,,,,1,,74,0
55049,note_on,,29,0,14,,,,,,,,,,,,,,,,10,,74,0
55049,note_on,,29,0,9,,,,,,,,,,,,,,,,5,,74,0
55050,note_on,,1,0,9,,,,,,,,,,,,,,,,5,,73,72
55050,note_on,,1,0,5,,,,,,,,,,,,,,,,1,,73,72
55050,note_on,,1,0,14,,,,,,,,,,,,,,,,10,,73,72
55079,note_on,,29,0,5,,,,,,,,,,,,,,,,1,,73,0
55079,note_on,,0,0,18,,,,,,,,,,,,,,,,15,,64,0
55079,note_on,,0,0,18,,,,,,,,,,,,,,,,15,,54,0
55079,note_on,,29,0,9,,,,,,,,,,,,,,,,5,,73,0
55079,note_on,,59,0,15,,,,,,,,,,,,,,,,11,,69,0
55079,note_on,,59,0,10,,,,,,,,,,,,,,,,6,,69,0
55079,note_on,,0,0,18,,,,,,,,,,,,,,,,15,,59,0
55079,note_on,,59,0,12,,,,,,,,,,,,,,,,8,,54,0
55079,note_on,,59,0,18,,,,,,,,,,,,,,,,15,,67,0
55079,note_on,,59,0,6,,,,,,,,,,,,,,,,2,,54,0
55079,note_on,,29,0,14,,,,,,,,,,,,,,,,10,,73,0
55079,note_on,,59,0,17,,,,,,,,,,,,,,,,13,,54,0
55080,note_on,,1,0,12,,,,,,,,,,,,,,,,8,,55,72
55080,note_on,,1,0,10,,,,,,,,,,,,,,,,6,,71,72
55080,note_on,,1,0,18,,,,,,,,,,,,,,,,15,,55,72
55080,note_on,,0,0,18,,,,,,,,,,,,,,,,15,,76,72
55080,note_on,,0,0,18,,,,,,,,,,,,,,,,15,,71,72
55080,note_on,,0,0,18,,,,,,,,,,,,,,,,15,,64,72
55080,note_on,,1,0,5,,,,,,,,,,,,,,,,1,,71,72
55080,note_on,,1,0,9,,,,,,,,,,,,,,,,5,,71,72
55080,note_on,,1,0,17,,,,,,,,,,,,,,,,13,,55,72
55080,note_on,,1,0,6,,,,,,,,,,,,,,,,2,,55,72
55080,note_on,,1,0,14,,,,,,,,,,,,,,,,10,,71,72
55080,note_on,,1,0,15,,,,,,,,,,,,,,,,11,,71,72
55139,note_on,,59,0,17,,,,,,,,,,,,,,,,13,,55,0
55139,note_on,,59,0,9,,,,,,,,,,,,,,,,5,,71,0
55139,note_on,,59,0,18,,,,,,,,,,,,,,,,15,,55,0
55139,note_on,,179,0,16,,,,,,,,,,,,,,,,12,,64,0
55139,note_on,,59,0,12,,,,,,,,,,,,,,,,8,,55,0
55139,note_on,,59,0,6,,,,,,,,,,,,,,,,2,,55,0
55139,note_on,,59,0,5,,,,,,,,,,,,,,,,1,,71,0
55139,note_on,,179,0,11,,,,,,,,,,,,,,,,7,,64,0
55139,note_on,,59,0,14,,,,,,,,,,,,,,,,10,,71,0
55140,note_on,,1,0,9,,,,,,,,,,,,,,,,5,,73,72
55140,note_on,,1,0,16,,,,,,,,,,,,,,,,12,,62,60
55140,note_on,,1,0,5,,,,,,,,,,,,,,,,1,,73,72
55140,note_on,,1,0,18,,,,,,,,,,,,,,,,15,,57,72
55140,note_on,,1,0,14,,,,,,,,,,,,,,,,10,,73,72
55140,note_on,,1,0,6,,,,,,,,,,,,,,,,2,,57,72
55140,note_on,,1,0,11,,,,,,,,,,,,,,,,7,,62,72
55140,note_on,,1,0,17,,,,,,,,,,,,,,,,13,,57,72
55140,note_on,,1,0,12,,,,,,,,,,,,,,,,8,,57,72
55169,note_on,,29,0,16,,,,,,,,,,,,,,,,12,,62,0
55169,note_on,,29,0,11,,,,,,,,,,,,,,,,7,,62,0
55170,note_on,,1,0,16,,,,,,,,,,,,,,,,12,,61,60
55170,note_on,,1,0,11,,,,,,,,,,,,,,,,7,,61,72
55199,note_on,,29,0,16,,,,,,,,,,,,,,,,12,,61,0
55199,note_on,,29,0,11,,,,,,,,,,,,,,,,7,,61,0
55199,note_on,,59,0,12,,,,,,,,,,,,,,,,8,,57,0
55199,note_on,,59,0,14,,,,,,,,,,,,,,,,10,,73,0
55199,note_on,,59,0,6,,,,,,,,,,,,,,,,2,,57,0
55199,note_on,,59,0,9,,,,,,,,,,,,,,,,5,,73,0
55199,note_on,,0,0,18,,,,,,,,,,,,,,,,15,,57,0
55199,note_on,,0,0,18,,,,,,,,,,,,,,,,15,,64,0
55199,note_on,,0,0,18,,,,,,,,,,,,,,,,15,,71,0
55199,note_on,,59,0,18,,,,,,,,,,,,,,,,15,,76,0
55199,note_on,,59,0,17,,,,,,,,,,,,,,,,13,,57,0
55199,note_on,,59,0,5,,,,,,,,,,,,,,,,1,,73,0
55200,note_on,,1,0,17,,,,,,,,,,,,,,,,13,,59,72
55200,note_on,,1,0,12,,,,,,,,,,,,,,,,8,,59,72
55200,note_on,,1,0,16,,,,,,,,,,,,,,,,12,,59,60
55200,note_on,,1,0,14,,,,,,,,,,,,,,,,10,,74,72
55200,note_on,,1,0,6,,,,,,,,,,,,,,,,2,,59,72
55200,note_on,,1,0,11,,,,,,,,,,,,,,,,7,,59,72
55200,note_on,,0,0,18,,,,,,,,,,,,,,,,15,,66,72
55200,note_on,,0,0,18,,,,,,,,,,,,,,,,15,,62,72
55200,note_on,,0,0,18,,,,,,,,,,,,,,,,15,,71,72
55200,note_on,,1,0,18,,,,,,,,,,,,,,,,15,,59,72
55200,note_on,,1,0,5,,,,,,,,,,,,,,,,1,,74,72
55200,note_on,,1,0,9,,,,,,,,,,,,,,,,5,,74,72
55259,note_on,,59,0,16,,,,,,,,,,,,,,,,12,,59,0
55259,note_on,,59,0,14,,,,,,,,,,,,,,,,10,,74,0
55259,note_on,,59,0,5,,,,,,,,,,,,,,,,1,,74,0
55259,note_on,,179,0,15,,,,,,,,,,,,,,,,11,,71,0
55259,note_on,,59,0,9,,,,,,,,,,,,,,,,5,,74,0
55259,note_on,,179,0,10,,,,,,,,,,,,,,,,6,,71,0
55259,note_on,,59,0,11,,,,,,,,,,,,,,,,7,,59,0
55260,note_on,,1,0,15,,,,,,,,,,,,,,,,11,,69,72
55260,note_on,,1,0,16,,,,,,,,,,,,,,,,12,,61,60
55260,note_on,,1,0,5,,,,,,,,,,,,,,,,1,,76,72
55260,note_on,,1,0,10,,,,,,,,,,,,,,,,6,,69,72
55260,note_on,,1,0,14,,,,,,,,,,,,,,,,10,,76,72
55260,note_on,,1,0,11,,,,,,,,,,,,,,,,7,,61,72
55260,note_on,,1,0,9,,,,,,,,,,,,,,,,5,,76,72
55289,note_on,,29,0,10,,,,,,,,,,,,,,,,6,,69,0
55289,note_on,,29,0,15,,,,,,,,,,,,,,,,11,,69,0
55290,note_on,,1,0,15,,,,,,,,,,,,,,,,11,,67,72
55290,note_on,,1,0,10,,,,,,,,,,,,,,,,6,,67,72
55319,note_on,,29,0,15,,,,,,,,,,,,,,,,11,,67,0
55319,note_on,,59,0,14,,,,,,,,,,,,,,,,10,,76,0
55319,note_on,,59,0,5,,,,,,,,,,,,,,,,1,,76,0
55319,note_on,,59,0,11,,,,,,,,,,,,,,,,7,,61,0
55319,note_on,,59,0,16,,,,,,,,,,,,,,,,12,,61,0
55319,note_on,,59,0,9,,,,,,,,,,,,,,,,5,,76,0
55319,note_on,,29,0,10,,,,,,,,,,,,,,,,6,,67,0
55319,note_on,,0,0,18,,,,,,,,,,,,,,,,15,,66,0
55319,note_on,,0,0,18,,,,,,,,,,,,,,,,15,,62,0
55319,note_on,,119,0,18,,,,,,,,,,,,,,,,15,,71,0
55320,note_on,,1,0,18,,,,,,,,,,,,,,,,15,,74,72
55320,note_on,,0,0,18,,,,,,,,,,,,,,,,15,,71,72
55320,note_on,,1,0,16,,,,,,,,,,,,,,,,12,,62,60
55320,note_on,,1,0,5,,,,,,,,,,,,,,,,1,,78,72
55320,note_on,,1,0,10,,,,,,,,,,,,,,,,6,,66,72
55320,note_on,,0,0,18,,,,,,,,,,,,,,,,15,,66,72
55320,note_on,,1,0,9,,,,,,,,,,,,,,,,5,,78,72
55320,note_on,,1,0,11,,,,,,,,,,,,,,,,7,,62,72
55320,note_on,,1,0,15,,,,,,,,,,,,,,,,11,,66,72
55320,note_on,,1,0,14,,,,,,,,,,,,,,,,10,,78,72
55379,note_on,,179,0,6,,,,,,,,,,,,,,,,2,,59,0
55379,note_on,,179,0,17,,,,,,,,,,,,,,,,13,,59,0
55379,note_on,,179,0,12,,,,,,,,,,,,,,,,8,,59,0
55379,note_on,,59,0,15,,,,,,,,,,,,,,,,11,,66,0
55379,note_on,,59,0,18,,,,,,,,,,,,,,,,15,,59,0
55379,note_on,,59,0,11,,,,,,,,,,,,,,,,7,,62,0
55379,note_on,,59,0,16,,,,,,,,,,,,,,,,12,,62,0
55379,note_on,,59,0,10,,,,,,,,,,,,,,,,6,,66,0
55380,note_on,,1,0,17,,,,,,,,,,,,,,,,13,,57,72
55380,note_on,,1,0,10,,,,,,,,,,,,,,,,6,,67,72
55380,note_on,,1,0,18,,,,,,,,,,,,,,,,15,,57,72
55380,note_on,,1,0,16,,,,,,,,,,,,,,,,12,,64,60
55380,note_on,,1,0,6,,,,,,,,,,,,,,,,2,,57,72
55380,note_on,,1,0,11,,,,,,,,,,,,,,,,7,,64,72
55380,note_on,,1,0,15,,,,,,,,,,,,,,,,11,,67,72
55380,note_on,,1,0,12,,,,,,,,,,,,,,,,8,,57,72
55409,note_on,,29,0,18,,,,,,,,,,,,,,,,15,,57,0
55409,note_on,,29,0,6,,,,,,,,,,,,,,,,2,,57,0
55409,note_on,,29,0,17,,,,,,,,,,,,,,,,13,,57,0
55409,note_on,,29,0,12,,,,,,,,,,,,,,,,8,,57,0
55410,note_on,,1,0,18,,,,,,,,,,,,,,,,15,,55,72
55410,note_on,,1,0,12,,,,,,,,,,,,,,,,8,,55,72
55410,note_on,,1,0,17,,,,,,,,,,,,,,,,13,,55,72
55410,note_on,,1,0,6,,,,,,,,,,,,,,,,2,,55,72
55439,note_on,,29,0,6,,,,,,,,,,,,,,,,2,,55,0
55439,note_on,,59,0,11,,,,,,,,,,,,,,,,7,,64,0
55439,note_on,,0,0,18,,,,,,,,,,,,,,,,15,,55,0
55439,note_on,,0,0,18,,,,,,,,,,,,,,,,15,,71,0
55439,note_on,,29,0,12,,,,,,,,,,,,,,,,8,,55,0
55439,note_on,,29,0,17,,,,,,,,,,,,,,,,13,,55,0
55439,note_on,,59,0,16,,,,,,,,,,,,,,,,12,,64,0
55439,note_on,,59,0,15,,,,,,,,,,,,,,,,11,,67,0
55439,note_on,,29,0,18,,,,,,,,,,,,,,,,15,,74,0
55439,note_on,,59,0,10,,,,,,,,,,,,,,,,6,,67,0
55439,note_on,,0,0,18,,,,,,,,,,,,,,,,15,,66,0
55440,note_on,,1,0,15,,,,,,,,,,,,,,,,11,,69,72
55440,note_on,,1,0,12,,,,,,,,,,,,,,,,8,,54,72
55440,note_on,,1,0,11,,,,,,,,,,,,,,,,7,,66,72
55440,note_on,,1,0,16,,,,,,,,,,,,,,,,12,,66,60
55440,note_on,,1,0,10,,,,,,,,,,,,,,,,6,,69,72
55440,note_on,,1,0,6,,,,,,,,,,,,,,,,2,,54,72
55440,note_on,,1,0,18,,,,,,,,,,,,,,,,15,,54,72
55440,note_on,,0,0,18,,,,,,,,,,,,,,,,15,,78,72
55440,note_on,,0,0,18,,,,,,,,,,,,,,,,15,,73,72
55440,note_on,,0,0,18,,,,,,,,,,,,,,,,15,,69,72
55440,note_on,,1,0,17,,,,,,,,,,,,,,,,13,,54,72
55499,note_on,,59,0,6,,,,,,,,,,,,,,,,2,,54,0
55499,note_on,,179,0,5,,,,,,,,,,,,,,,,1,,78,0
55499,note_on,,59,0,18,,,,,,,,,,,,,,,,15,,54,0
55499,note_on,,179,0,9,,,,,,,,,,,,,,,,5,,78,0
55499,note_on,,59,0,17,,,,,,,,,,,,,,,,13,,54,0
55499,note_on,,59,0,12,,,,,,,,,,,,,,,,8,,54,0
55499,note_on,,179,0,14,,,,,,,,,,,,,,,,10,,78,0
55500,note_on,,1,0,18,,,,,,,,,,,,,,,,15,,55,72
55500,note_on,,1,0,17,,,,,,,,,,,,,,,,13,,55,72
55500,note_on,,1,0,14,,,,,,,,,,,,,,,,10,,76,72
55500,note_on,,1,0,6,,,,,,,,,,,,,,,,2,,55,72
55500,note_on,,1,0,5,,,,,,,,,,,,,,,,1,,76,72
55500,note_on,,1,0,12,,,,,,,,,,,,,,,,8,,55,72
55500,note_on,,1,0,9,,,,,,,,,,,,,,,,5,,76,72
55529,note_on,,29,0,5,,,,,,,,,,,,,,,,1,,76,0
55529,note_on,,29,0,9,,,,,,,,,,,,,,,,5,,76,0
55529,note_on,,29,0,14,,,,,,,,,,,,,,,,10,,76,0
55530,note_on,,1,0,9,,,,,,,,,,,,,,,,5,,74,72
55530,note_on,,1,0,5,,,,,,,,,,,,,,,,1,,74,72
55530,note_on,,1,0,14,,,,,,,,,,,,,,,,10,,74,72
55559,note_on,,59,0,17,,,,,,,,,,,,,,,,13,,55,0
55559,note_on,,59,0,6,,,,,,,,,,,,,,,,2,,55,0
55559,note_on,,59,0,12,,,,,,,,,,,,,,,,8,,55,0
55559,note_on,,0,0,18,,,,,,,,,,,,,,,,15,,55,0
55559,note_on,,29,0,9,,,,,,,,,,,,,,,,5,,74,0
55559,note_on,,0,0,18,,,,,,,,,,,,,,,,15,,69,0
55559,note_on,,29,0,5,,,,,,,,,,,,,,,,1,,74,0
55559,note_on,,29,0,14,,,,,,,,,,,,,,,,10,,74,0
55559,note_on,,0,0,18,,,,,,,,,,,,,,,,15,,73,0
55559,note_on,,59,0,18,,,,,,,,,,,,,,,,15,,78,0
55560,note_on,,1,0,14,,,,,,,,,,,,,,,,10,,73,72
55560,note_on,,1,0,18,,,,,,,,,,,,,,,,15,,57,72
55560,note_on,,0,0,18,,,,,,,,,,,,,,,,15,,69,72
55560,note_on,,1,0,6,,,,,,,,,,,,,,,,2,,57,72
55560,note_on,,1,0,17,,,,,,,,,,,,,,,,13,,57,72
55560,note_on,,1,0,9,,,,,,,,,,,,,,,,5,,73,72
55560,note_on,,1,0,12,,,,,,,,,,,,,,,,8,,57,72
55560,note_on,,1,0,5,,,,,,,,,,,,,,,,1,,73,72
55560,note_on,,0,0,18,,,,,,,,,,,,,,,,15,,73,72
55619,note_on,,59,0,5,,,,,,,,,,,,,,,,1,,73,0
55619,note_on,,179,0,16,,,,,,,,,,,,,,,,12,,66,0
55619,note_on,,179,0,11,,,,,,,,,,,,,,,,7,,66,0
55619,note_on,,59,0,14,,,,,,,,,,,,,,,,10,,73,0
55619,note_on,,59,0,9,,,,,,,,,,,,,,,,5,,73,0
55619,note_on,,59,0,18,,,,,,,,,,,,,,,,15,,73,0
55620,note_on,,1,0,18,,,,,,,,,,,,,,,,15,,71,72
55620,note_on,,0,0,18,,,,,,,,,,,,,,,,15,,74,72
55620,note_on,,1,0,5,,,,,,,,,,,,,,,,1,,74,72
55620,note_on,,1,0,9,,,,,,,,,,,,,,,,5,,74,72
55620,note_on,,1,0,11,,,,,,,,,,,,,,,,7,,64,72
55620,note_on,,1,0,14,,,,,,,,,,,,,,,,10,,74,72
55620,note_on,,1,0,16,,,,,,,,,,,,,,,,12,,64,60
55649,note_on,,29,0,11,,,,,,,,,,,,,,,,7,,64,0
55649,note_on,,29,0,16,,,,,,,,,,,,,,,,12,,64,0
55650,note_on,,1,0,16,,,,,,,,,,,,,,,,12,,62,60
55650,note_on,,1,0,11,,,,,,,,,,,,,,,,7,,62,72
55679,note_on,,29,0,16,,,,,,,,,,,,,,,,12,,62,0
55679,note_on,,59,0,14,,,,,,,,,,,,,,,,10,,74,0
55679,note_on,,0,0,18,,,,,,,,,,,,,,,,15,,74,0
55679,note_on,,29,0,11,,,,,,,,,,,,,,,,7,,62,0
55679,note_on,,59,0,18,,,,,,,,,,,,,,,,15,,71,0
55679,note_on,,59,0,5,,,,,,,,,,,,,,,,1,,74,0
55679,note_on,,59,0,9,,,,,,,,,,,,,,,,5,,74,0
55680,note_on,,1,0,16,,,,,,,,,,,,,,,,12,,61,60
55680,note_on,,1081,0,7,,,,,,,,,,,,,,,,3,,81,72
55680,note_on,,1081,0,8,,,,,,,,,,,,,,,,4,,76,72
55680,note_on,,0,0,18,,,,,,,,,,,,,,,,15,,73,72
55680,note_on,,1,0,18,,,,,,,,,,,,,,,,15,,76,72
55680,note_on,,1081,0,13,,,,,,,,,,,,,,,,14,,45,72
55680,note_on,,1,0,5,,,,,,,,,,,,,,,,1,,76,72
55680,note_on,,1,0,11,,,,,,,,,,,,,,,,7,,61,72
55680,note_on,,1,0,14,,,,,,,,,,,,,,,,10,,76,72
55680,note_on,,1,0,9,,,,,,,,,,,,,,,,5,,76,72
55739,note_on,,59,0,11,,,,,,,,,,,,,,,,7,,61,0
55739,note_on,,59,0,16,,,,,,,,,,,,,,,,12,,61,0
55739,note_on,,59,0,18,,,,,,,,,,,,,,,,15,,57,0
55739,note_on,,179,0,6,,,,,,,,,,,,,,,,2,,57,0
55739,note_on,,179,0,17,,,,,,,,,,,,,,,,13,,57,0
55739,note_on,,179,0,12,,,,,,,,,,,,,,,,8,,57,0
55740,note_on,,1,0,12,,,,,,,,,,,,,,,,8,,59,72
55740,note_on,,1,0,6,,,,,,,,,,,,,,,,2,,59,72
55740,note_on,,1,0,18,,,,,,,,,,,,,,,,15,,59,72
55740,note_on,,1,0,16,,,,,,,,,,,,,,,,12,,62,60
55740,note_on,,1,0,17,,,,,,,,,,,,,,,,13,,59,72
55740,note_on,,1,0,11,,,,,,,,,,,,,,,,7,,62,72
55799,note_on,,119,0,9,,,,,,,,,,,,,,,,5,,76,0
55799,note_on,,119,0,8,,,,,,,,,,,,,,,,4,,76,0
55799,note_on,,119,0,7,,,,,,,,,,,,,,,,3,,81,0
55799,note_on,,59,0,18,,,,,,,,,,,,,,,,15,,69,0
55799,note_on,,119,0,5,,,,,,,,,,,,,,,,1,,76,0
55799,note_on,,59,0,12,,,,,,,,,,,,,,,,8,,59,0
55799,note_on,,59,0,11,,,,,,,,,,,,,,,,7,,62,0
55799,note_on,,59,0,17,,,,,,,,,,,,,,,,13,,59,0
55799,note_on,,119,0,13,,,,,,,,,,,,,,,,14,,45,0
55799,note_on,,59,0,6,,,,,,,,,,,,,,,,2,,59,0
55799,note_on,,119,0,14,,,,,,,,,,,,,,,,10,,76,0
55799,note_on,,59,0,16,,,,,,,,,,,,,,,,12,,62,0
55799,note_on,,0,0,18,,,,,,,,,,,,,,,,15,,76,0
55799,note_on,,0,0,18,,,,,,,,,,,,,,,,15,,73,0
55799,note_on,,0,0,18,,,,,,,,,,,,,,,,15,,59,0
55800,note_on,,0,0,18,,,,,,,,,,,,,,,,15,,69,72
55800,note_on,,1,0,5,,,,,,,,,,,,,,,,1,,69,72
55800,note_on,,0,0,18,,,,,,,,,,,,,,,,15,,76,72
55800,note_on,,0,0,18,,,,,,,,,,,,,,,,15,,81,72
55800,note_on,,0,0,18,,,,,,,,,,,,,,,,15,,64,72
55800,note_on,,1,0,7,,,,,,,,,,,,,,,,3,,76,72
55800,note_on,,1,0,8,,,,,,,,,,,,,,,,4,,69,72
55800,note_on,,1,0,17,,,,,,,,,,,,,,,,13,,61,72
55800,note_on,,1,0,9,,,,,,,,,,,,,,,,5,,69,72
55800,note_on,,1,0,13,,,,,,,,,,,,,,,,14,,45,72
55800,note_on,,1,0,11,,,,,,,,,,,,,,,,7,,64,72
55800,note_on,,1,0,12,,,,,,,,,,,,,,,,8,,61,72
55800,note_on,,1,0,14,,,,,,,,,,,,,,,,10,,69,72
55800,note_on,,1,0,16,,,,,,,,,,,,,,,,12,,64,60
55800,note_on,,1,0,6,,,,,,,,,,,,,,,,2,,61,72
55800,note_on,,1,0,18,,,,,,,,,,,,,,,,15,,61,72
55859,note_on,,419,0,15,,,,,,,,,,,,,,,,11,,69,0
55859,note_on,,419,0,10,,,,,,,,,,,,,,,,6,,69,0
55860,note_on,,1,0,15,,,,,,,,,,,,,,,,11,,67,72
55860,note_on,,1,0,10,,,,,,,,,,,,,,,,6,,67,72
55919,note_on,,59,0,15,,,,,,,,,,,,,,,,11,,67,0
55919,note_on,,0,0,18,,,,,,,,,,,,,,,,15,,69,0
55919,note_on,,0,0,18,,,,,,,,,,,,,,,,15,,76,0
55919,note_on,,0,0,18,,,,,,,,,,,,,,,,15,,81,0
55919,note_on,,0,0,18,,,,,,,,,,,,,,,,15,,64,0
55919,note_on,,119,0,18,,,,,,,,,,,,,,,,15,,61,0
55919,note_on,,59,0,10,,,,,,,,,,,,,,,,6,,67,0
55919,note_on,,119,0,5,,,,,,,,,,,,,,,,1,,69,0
55919,note_on,,119,0,13,,,,,,,,,,,,,,,,14,,45,0
55919,note_on,,119,0,14,,,,,,,,,,,,,,,,10,,69,0
55919,note_on,,119,0,17,,,,,,,,,,,,,,,,13,,61,0
55919,note_on,,119,0,12,,,,,,,,,,,,,,,,8,,61,0
55919,note_on,,119,0,11,,,,,,,,,,,,,,,,7,,64,0
55919,note_on,,119,0,6,,,,,,,,,,,,,,,,2,,61,0
55919,note_on,,119,0,9,,,,,,,,,,,,,,,,5,,69,0
55919,note_on,,119,0,16,,,,,,,,,,,,,,,,12,,64,0
55919,note_on,,119,0,8,,,,,,,,,,,,,,,,4,,69,0
55919,note_on,,119,0,7,,,,,,,,,,,,,,,,3,,76,0
55920,note_on,,0,0,18,,,,,,,,,,,,,,,,15,,78,72
55920,note_on,,0,0,18,,,,,,,,,,,,,,,,15,,66,72
55920,note_on,,1,0,18,,,,,,,,,,,,,,,,15,,62,72
55920,note_on,,1,0,5,,,,,,,,,,,,,,,,1,,62,72
55920,note_on,,1,0,12,,,,,,,,,,,,,,,,8,,62,72
55920,note_on,,1,0,14,,,,,,,,,,,,,,,,10,,74,72
55920,note_on,,1,0,17,,,,,,,,,,,,,,,,13,,62,72
55920,note_on,,1,0,10,,,,,,,,,,,,,,,,6,,66,72
55920,note_on,,1,0,6,,,,,,,,,,,,,,,,2,,62,72
55920,note_on,,0,0,18,,,,,,,,,,,,,,,,15,,74,72
55920,note_on,,1,0,8,,,,,,,,,,,,,,,,4,,62,72
55920,note_on,,1,0,9,,,,,,,,,,,,,,,,5,,62,72
55920,note_on,,1,0,7,,,,,,,,,,,,,,,,3,,78,72
55920,note_on,,1,0,15,,,,,,,,,,,,,,,,11,,66,72
55920,note_on,,0,0,18,,,,,,,,,,,,,,,,15,,69,72
55920,note_on,,1,0,13,,,,,,,,,,,,,,,,14,,50,72
56039,note_on,,0,0,18,,,,,,,,,,,,,,,,15,,69,0
56039,note_on,,119,0,18,,,,,,,,,,,,,,,,15,,62,0
56039,note_on,,0,0,18,,,,,,,,,,,,,,,,15,,66,0
56039,note_on,,0,0,18,,,,,,,,,,,,,,,,15,,78,0
56039,note_on,,0,0,18,,,,,,,,,,,,,,,,15,,74,0
56039,note_on,,119,0,7,,,,,,,,,,,,,,,,3,,78,0
56039,note_on,,119,0,17,,,,,,,,,,,,,,,,13,,62,0
56039,note_on,,119,0,13,,,,,,,,,,,,,,,,14,,50,0
56039,note_on,,119,0,10,,,,,,,,,,,,,,,,6,,66,0
56039,note_on,,119,0,6,,,,,,,,,,,,,,,,2,,62,0
56039,note_on,,119,0,12,,,,,,,,,,,,,,,,8,,62,0
56039,note_on,,119,0,8,,,,,,,,,,,,,,,,4,,62,0
56039,note_on,,119,0,15,,,,,,,,,,,,,,,,11,,66,0
56040,note_on,,121,0,16,,,,,,,,,,,,,,,,12,,62,60
56040,note_on,,121,0,11,,,,,,,,,,,,,,,,7,,50,72
56040,note_on,,1,0,18,,,,,,,,,,,,,,,,15,,50,72
56040,note_on,,1,0,17,,,,,,,,,,,,,,,,13,,50,72
56099,note_on,,179,0,14,,,,,,,,,,,,,,,,10,,74,0
56099,note_on,,179,0,5,,,,,,,,,,,,,,,,1,,62,0
56099,note_on,,179,0,9,,,,,,,,,,,,,,,,5,,62,0
56100,note_on,,1,0,14,,,,,,,,,,,,,,,,10,,76,72
56100,note_on,,1,0,5,,,,,,,,,,,,,,,,1,,64,72
56100,note_on,,1,0,9,,,,,,,,,,,,,,,,5,,64,72
56159,note_on,,59,0,9,,,,,,,,,,,,,,,,5,,64,0
56159,note_on,,59,0,14,,,,,,,,,,,,,,,,10,,76,0
56159,note_on,,59,0,5,,,,,,,,,,,,,,,,1,,64,0
56160,note_on,,1,0,5,,,,,,,,,,,,,,,,1,,66,72
56160,note_on,,121,0,10,,,,,,,,,,,,,,,,6,,57,72
56160,note_on,,1,0,9,,,,,,,,,,,,,,,,5,,66,72
56160,note_on,,120,0,18,,,,,,,,,,,,,,,,15,,57,72
56160,note_on,,121,0,15,,,,,,,,,,,,,,,,11,,69,72
56160,note_on,,1,0,14,,,,,,,,,,,,,,,,10,,78,72
56219,note_on,,59,0,9,,,,,,,,,,,,,,,,5,,66,0
56219,note_on,,59,0,14,,,,,,,,,,,,,,,,10,,78,0
56219,note_on,,179,0,11,,,,,,,,,,,,,,,,7,,50,0
56219,note_on,,179,0,16,,,,,,,,,,,,,,,,12,,62,0
56219,note_on,,59,0,18,,,,,,,,,,,,,,,,15,,50,0
56219,note_on,,179,0,17,,,,,,,,,,,,,,,,13,,50,0
56219,note_on,,59,0,5,,,,,,,,,,,,,,,,1,,66,0
56220,note_on,,1,0,9,,,,,,,,,,,,,,,,5,,67,72
56220,note_on,,1,0,11,,,,,,,,,,,,,,,,7,,52,72
56220,note_on,,1,0,16,,,,,,,,,,,,,,,,12,,64,60
56220,note_on,,1,0,14,,,,,,,,,,,,,,,,10,,79,72
56220,note_on,,1,0,18,,,,,,,,,,,,,,,,15,,52,72
56220,note_on,,1,0,17,,,,,,,,,,,,,,,,13,,52,72
56220,note_on,,1,0,5,,,,,,,,,,,,,,,,1,,67,72
56279,note_on,,59,0,5,,,,,,,,,,,,,,,,1,,67,0
56279,note_on,,59,0,17,,,,,,,,,,,,,,,,13,,52,0
56279,note_on,,59,0,9,,,,,,,,,,,,,,,,5,,67,0
56279,note_on,,59,0,11,,,,,,,,,,,,,,,,7,,52,0
56279,note_on,,59,0,18,,,,,,,,,,,,,,,,15,,52,0
56279,note_on,,59,0,14,,,,,,,,,,,,,,,,10,,79,0
56279,note_on,,59,0,16,,,,,,,,,,,,,,,,12,,64,0
56280,note_on,,1,0,5,,,,,,,,,,,,,,,,1,,69,72
56280,note_on,,1,0,11,,,,,,,,,,,,,,,,7,,54,72
56280,note_on,,0,0,18,,,,,,,,,,,,,,,,15,,54,72
56280,note_on,,1,0,18,,,,,,,,,,,,,,,,15,,45,72
56280,note_on,,1,0,16,,,,,,,,,,,,,,,,12,,66,60
56280,note_on,,241,0,6,,,,,,,,,,,,,,,,2,,45,72
56280,note_on,,241,0,12,,,,,,,,,,,,,,,,8,,45,72
56280,note_on,,1,0,9,,,,,,,,,,,,,,,,5,,69,72
56280,note_on,,1,0,14,,,,,,,,,,,,,,,,10,,81,72
56280,note_on,,1,0,17,,,,,,,,,,,,,,,,13,,45,72
56339,note_on,,179,0,10,,,,,,,,,,,,,,,,6,,57,0
56339,note_on,,59,0,18,,,,,,,,,,,,,,,,15,,57,0
56339,note_on,,59,0,11,,,,,,,,,,,,,,,,7,,54,0
56339,note_on,,59,0,16,,,,,,,,,,,,,,,,12,,66,0
56339,note_on,,0,0,18,,,,,,,,,,,,,,,,15,,54,0
56339,note_on,,179,0,15,,,,,,,,,,,,,,,,11,,69,0
56340,note_on,,1,0,18,,,,,,,,,,,,,,,,15,,55,72
56340,note_on,,1,0,15,,,,,,,,,,,,,,,,11,,71,72
56340,note_on,,0,0,18,,,,,,,,,,,,,,,,15,,59,72
56340,note_on,,1,0,11,,,,,,,,,,,,,,,,7,,55,72
56340,note_on,,1,0,10,,,,,,,,,,,,,,,,6,,59,72
56340,note_on,,1,0,16,,,,,,,,,,,,,,,,12,,67,60
56399,note_on,,59,0,11,,,,,,,,,,,,,,,,7,,55,0
56399,note_on,,59,0,18,,,,,,,,,,,,,,,,15,,55,0
56399,note_on,,59,0,10,,,,,,,,,,,,,,,,6,,59,0
56399,note_on,,59,0,15,,,,,,,,,,,,,,,,11,,71,0
56399,note_on,,0,0,18,,,,,,,,,,,,,,,,15,,59,0
56399,note_on,,59,0,16,,,,,,,,,,,,,,,,12,,67,0
56400,note_on,,1,0,18,,,,,,,,,,,,,,,,15,,61,72
56400,note_on,,1,0,16,,,,,,,,,,,,,,,,12,,69,60
56400,note_on,,1,0,11,,,,,,,,,,,,,,,,7,,57,72
56400,note_on,,0,0,18,,,,,,,,,,,,,,,,15,,57,72
56400,note_on,,1,0,10,,,,,,,,,,,,,,,,6,,61,72
56400,note_on,,1,0,15,,,,,,,,,,,,,,,,11,,73,72
56459,note_on,,179,0,9,,,,,,,,,,,,,,,,5,,69,0
56459,note_on,,179,0,17,,,,,,,,,,,,,,,,13,,45,0
56459,note_on,,179,0,6,,,,,,,,,,,,,,,,2,,45,0
56459,note_on,,59,0,18,,,,,,,,,,,,,,,,15,,45,0
56459,note_on,,59,0,10,,,,,,,,,,,,,,,,6,,61,0
56459,note_on,,179,0,12,,,,,,,,,,,,,,,,8,,45,0
56459,note_on,,59,0,15,,,,,,,,,,,,,,,,11,,73,0
56459,note_on,,179,0,5,,,,,,,,,,,,,,,,1,,69,0
56459,note_on,,179,0,14,,,,,,,,,,,,,,,,10,,81,0
56460,note_on,,1,0,17,,,,,,,,,,,,,,,,13,,47,72
56460,note_on,,1,0,12,,,,,,,,,,,,,,,,8,,47,72
56460,note_on,,1,0,5,,,,,,,,,,,,,,,,1,,67,72
56460,note_on,,1,0,9,,,,,,,,,,,,,,,,5,,67,72
56460,note_on,,1,0,18,,,,,,,,,,,,,,,,15,,47,72
56460,note_on,,1,0,6,,,,,,,,,,,,,,,,2,,47,72
56460,note_on,,1,0,15,,,,,,,,,,,,,,,,11,,74,72
56460,note_on,,1,0,10,,,,,,,,,,,,,,,,6,,62,72
56460,note_on,,1,0,14,,,,,,,,,,,,,,,,10,,79,72
56489,note_on,,29,0,5,,,,,,,,,,,,,,,,1,,67,0
56489,note_on,,29,0,9,,,,,,,,,,,,,,,,5,,67,0
56489,note_on,,29,0,14,,,,,,,,,,,,,,,,10,,79,0
56490,note_on,,1,0,9,,,,,,,,,,,,,,,,5,,66,72
56490,note_on,,1,0,5,,,,,,,,,,,,,,,,1,,66,72
56490,note_on,,1,0,14,,,,,,,,,,,,,,,,10,,78,72
56519,note_on,,59,0,6,,,,,,,,,,,,,,,,2,,47,0
56519,note_on,,59,0,15,,,,,,,,,,,,,,,,11,,74,0
56519,note_on,,59,0,10,,,,,,,,,,,,,,,,6,,62,0
56519,note_on,,0,0,18,,,,,,,,,,,,,,,,15,,57,0
56519,note_on,,59,0,12,,,,,,,,,,,,,,,,8,,47,0
56519,note_on,,29,0,5,,,,,,,,,,,,,,,,1,,66,0
56519,note_on,,0,0,18,,,,,,,,,,,,,,,,15,,47,0
56519,note_on,,29,0,14,,,,,,,,,,,,,,,,10,,78,0
56519,note_on,,29,0,9,,,,,,,,,,,,,,,,5,,66,0
56519,note_on,,59,0,18,,,,,,,,,,,,,,,,15,,61,0
56519,note_on,,59,0,17,,,,,,,,,,,,,,,,13,,47,0
56520,note_on,,1,0,12,,,,,,,,,,,,,,,,8,,49,72
56520,note_on,,0,0,18,,,,,,,,,,,,,,,,15,,69,72
56520,note_on,,1,0,18,,,,,,,,,,,,,,,,15,,49,72
56520,note_on,,0,0,18,,,,,,,,,,,,,,,,15,,64,72
56520,note_on,,0,0,18,,,,,,,,,,,,,,,,15,,57,72
56520,note_on,,1,0,10,,,,,,,,,,,,,,,,6,,64,72
56520,note_on,,1,0,6,,,,,,,,,,,,,,,,2,,49,72
56520,note_on,,1,0,9,,,,,,,,,,,,,,,,5,,64,72
56520,note_on,,1,0,14,,,,,,,,,,,,,,,,10,,76,72
56520,note_on,,1,0,17,,,,,,,,,,,,,,,,13,,49,72
56520,note_on,,1,0,5,,,,,,,,,,,,,,,,1,,64,72
56520,note_on,,1,0,15,,,,,,,,,,,,,,,,11,,76,72
56579,note_on,,59,0,17,,,,,,,,,,,,,,,,13,,49,0
56579,note_on,,59,0,9,,,,,,,,,,,,,,,,5,,64,0
56579,note_on,,179,0,16,,,,,,,,,,,,,,,,12,,69,0
56579,note_on,,179,0,11,,,,,,,,,,,,,,,,7,,57,0
56579,note_on,,59,0,12,,,,,,,,,,,,,,,,8,,49,0
56579,note_on,,59,0,6,,,,,,,,,,,,,,,,2,,49,0
56579,note_on,,59,0,14,,,,,,,,,,,,,,,,10,,76,0
56579,note_on,,59,0,18,,,,,,,,,,,,,,,,15,,49,0
56579,note_on,,59,0,5,,,,,,,,,,,,,,,,1,,64,0
56580,note_on,,1,0,17,,,,,,,,,,,,,,,,13,,50,72
56580,note_on,,1,0,5,,,,,,,,,,,,,,,,1,,66,72
56580,note_on,,1,0,16,,,,,,,,,,,,,,,,12,,67,60
56580,note_on,,1,0,11,,,,,,,,,,,,,,,,7,,55,72
56580,note_on,,1,0,14,,,,,,,,,,,,,,,,10,,78,72
56580,note_on,,1,0,9,,,,,,,,,,,,,,,,5,,66,72
56580,note_on,,1,0,12,,,,,,,,,,,,,,,,8,,50,72
56580,note_on,,1,0,18,,,,,,,,,,,,,,,,15,,50,72
56580,note_on,,1,0,6,,,,,,,,,,,,,,,,2,,50,72
56609,note_on,,29,0,16,,,,,,,,,,,,,,,,12,,67,0
56609,note_on,,29,0,11,,,,,,,,,,,,,,,,7,,55,0
56610,note_on,,1,0,16,,,,,,,,,,,,,,,,12,,66,60
56610,note_on,,1,0,11,,,,,,,,,,,,,,,,7,,54,72
56639,note_on,,59,0,17,,,,,,,,,,,,,,,,13,,50,0
56639,note_on,,59,0,9,,,,,,,,,,,,,,,,5,,66,0
56639,note_on,,29,0,11,,,,,,,,,,,,,,,,7,,54,0
56639,note_on,,29,0,16,,,,,,,,,,,,,,,,12,,66,0
56639,note_on,,0,0,18,,,,,,,,,,,,,,,,15,,57,0
56639,note_on,,59,0,5,,,,,,,,,,,,,,,,1,,66,0
56639,note_on,,0,0,18,,,,,,,,,,,,,,,,15,,64,0
56639,note_on,,59,0,18,,,,,,,,,,,,,,,,15,,69,0
56639,note_on,,59,0,6,,,,,,,,,,,,,,,,2,,50,0
56639,note_on,,59,0,12,,,,,,,,,,,,,,,,8,,50,0
56639,note_on,,0,0,18,,,,,,,,,,,,,,,,15,,50,0
56639,note_on,,59,0,14,,,,,,,,,,,,,,,,10,,78,0
56640,note_on,,0,0,18,,,,,,,,,,,,,,,,15,,59,72
56640,note_on,,1,0,16,,,,,,,,,,,,,,,,12,,64,60
56640,note_on,,1,0,5,,,,,,,,,,,,,,,,1,,67,72
56640,note_on,,0,0,18,,,,,,,,,,,,,,,,15,,55,72
56640,note_on,,1,0,14,,,,,,,,,,,,,,,,10,,79,72
56640,note_on,,1,0,6,,,,,,,,,,,,,,,,2,,52,72
56640,note_on,,1,0,18,,,,,,,,,,,,,,,,15,,52,72
56640,note_on,,1,0,9,,,,,,,,,,,,,,,,5,,67,72
56640,note_on,,1,0,11,,,,,,,,,,,,,,,,7,,52,72
56640,note_on,,0,0,18,,,,,,,,,,,,,,,,15,,64,72
56640,note_on,,1,0,12,,,,,,,,,,,,,,,,8,,52,72
56640,note_on,,1,0,17,,,,,,,,,,,,,,,,13,,52,72
56699,note_on,,179,0,10,,,,,,,,,,,,,,,,6,,64,0
56699,note_on,,59,0,14,,,,,,,,,,,,,,,,10,,79,0
56699,note_on,,59,0,11,,,,,,,,,,,,,,,,7,,52,0
56699,note_on,,59,0,16,,,,,,,,,,,,,,,,12,,64,0
56699,note_on,,59,0,5,,,,,,,,,,,,,,,,1,,67,0
56699,note_on,,59,0,9,,,,,,,,,,,,,,,,5,,67,0
56699,note_on,,179,0,15,,,,,,,,,,,,,,,,11,,76,0
56700,note_on,,1,0,15,,,,,,,,,,,,,,,,11,,74,72
56700,note_on,,1,0,11,,,,,,,,,,,,,,,,7,,54,72
56700,note_on,,1,0,14,,,,,,,,,,,,,,,,10,,81,72
56700,note_on,,1,0,9,,,,,,,,,,,,,,,,5,,69,72
56700,note_on,,1,0,10,,,,,,,,,,,,,,,,6,,62,72
56700,note_on,,1,0,5,,,,,,,,,,,,,,,,1,,69,72
56700,note_on,,1,0,16,,,,,,,,,,,,,,,,12,,66,60
56729,note_on,,29,0,10,,,,,,,,,,,,,,,,6,,62,0
56729,note_on,,29,0,15,,,,,,,,,,,,,,,,11,,74,0
56730,note_on,,1,0,10,,,,,,,,,,,,,,,,6,,61,72
56730,note_on,,1,0,15,,,,,,,,,,,,,,,,11,,73,72
56759,note_on,,0,0,18,,,,,,,,,,,,,,,,15,,59,0
56759,note_on,,0,0,18,,,,,,,,,,,,,,,,15,,55,0
56759,note_on,,29,0,10,,,,,,,,,,,,,,,,6,,61,0
56759,note_on,,59,0,16,,,,,,,,,,,,,,,,12,,66,0
56759,note_on,,29,0,15,,,,,,,,,,,,,,,,11,,73,0
56759,note_on,,59,0,14,,,,,,,,,,,,,,,,10,,81,0
56759,note_on,,59,0,5,,,,,,,,,,,,,,,,1,,69,0
56759,note_on,,59,0,9,,,,,,,,,,,,,,,,5,,69,0
56759,note_on,,119,0,18,,,,,,,,,,,,,,,,15,,64,0
56759,note_on,,59,0,11,,,,,,,,,,,,,,,,7,,54,0
56760,note_on,,1,0,15,,,,,,,,,,,,,,,,11,,71,72
56760,note_on,,1,0,5,,,,,,,,,,,,,,,,1,,71,72
56760,note_on,,1,0,18,,,,,,,,,,,,,,,,15,,71,72
56760,note_on,,1,0,16,,,,,,,,,,,,,,,,12,,67,60
56760,note_on,,0,0,18,,,,,,,,,,,,,,,,15,,64,72
56760,note_on,,0,0,18,,,,,,,,,,,,,,,,15,,67,72
56760,note_on,,1,0,11,,,,,,,,,,,,,,,,7,,55,72
56760,note_on,,1,0,14,,,,,,,,,,,,,,,,10,,83,72
56760,note_on,,1,0,10,,,,,,,,,,,,,,,,6,,59,72
56760,note_on,,1,0,9,,,,,,,,,,,,,,,,5,,71,72
56819,note_on,,179,0,6,,,,,,,,,,,,,,,,2,,52,0
56819,note_on,,59,0,11,,,,,,,,,,,,,,,,7,,55,0
56819,note_on,,59,0,18,,,,,,,,,,,,,,,,15,,52,0
56819,note_on,,179,0,17,,,,,,,,,,,,,,,,13,,52,0
56819,note_on,,59,0,15,,,,,,,,,,,,,,,,11,,71,0
56819,note_on,,59,0,16,,,,,,,,,,,,,,,,12,,67,0
56819,note_on,,179,0,12,,,,,,,,,,,,,,,,8,,52,0
56819,note_on,,59,0,10,,,,,,,,,,,,,,,,6,,59,0
56820,note_on,,1,0,6,,,,,,,,,,,,,,,,2,,50,72
56820,note_on,,1,0,11,,,,,,,,,,,,,,,,7,,57,72
56820,note_on,,1,0,15,,,,,,,,,,,,,,,,11,,73,72
56820,note_on,,1,0,17,,,,,,,,,,,,,,,,13,,50,72
56820,note_on,,1,0,10,,,,,,,,,,,,,,,,6,,61,72
56820,note_on,,1,0,12,,,,,,,,,,,,,,,,8,,50,72
56820,note_on,,1,0,16,,,,,,,,,,,,,,,,12,,69,60
56820,note_on,,1,0,18,,,,,,,,,,,,,,,,15,,50,72
56849,note_on,,29,0,12,,,,,,,,,,,,,,,,8,,50,0
56849,note_on,,29,0,6,,,,,,,,,,,,,,,,2,,50,0
56849,note_on,,29,0,18,,,,,,,,,,,,,,,,15,,50,0
56849,note_on,,29,0,17,,,,,,,,,,,,,,,,13,,50,0
56850,note_on,,1,0,17,,,,,,,,,,,,,,,,13,,49,72
56850,note_on,,1,0,6,,,,,,,,,,,,,,,,2,,49,72
56850,note_on,,1,0,12,,,,,,,,,,,,,,,,8,,49,72
56850,note_on,,1,0,18,,,,,,,,,,,,,,,,15,,49,72
56879,note_on,,59,0,11,,,,,,,,,,,,,,,,7,,57,0
56879,note_on,,29,0,17,,,,,,,,,,,,,,,,13,,49,0
56879,note_on,,29,0,12,,,,,,,,,,,,,,,,8,,49,0
56879,note_on,,59,0,16,,,,,,,,,,,,,,,,12,,69,0
56879,note_on,,0,0,18,,,,,,,,,,,,,,,,15,,64,0
56879,note_on,,59,0,15,,,,,,,,,,,,,,,,11,,73,0
56879,note_on,,59,0,10,,,,,,,,,,,,,,,,6,,61,0
56879,note_on,,29,0,6,,,,,,,,,,,,,,,,2,,49,0
56879,note_on,,0,0,18,,,,,,,,,,,,,,,,15,,67,0
56879,note_on,,0,0,18,,,,,,,,,,,,,,,,15,,49,0
56879,note_on,,29,0,18,,,,,,,,,,,,,,,,15,,71,0
56880,note_on,,1,0,6,,,,,,,,,,,,,,,,2,,47,72
56880,note_on,,1,0,15,,,,,,,,,,,,,,,,11,,74,72
56880,note_on,,1,0,17,,,,,,,,,,,,,,,,13,,47,72
56880,note_on,,1,0,16,,,,,,,,,,,,,,,,12,,71,60
56880,note_on,,1,0,11,,,,,,,,,,,,,,,,7,,59,72
56880,note_on,,1,0,10,,,,,,,,,,,,,,,,6,,62,72
56880,note_on,,1,0,12,,,,,,,,,,,,,,,,8,,47,72
56880,note_on,,1,0,18,,,,,,,,,,,,,,,,15,,47,72
56880,note_on,,0,0,18,,,,,,,,,,,,,,,,15,,74,72
56880,note_on,,0,0,18,,,,,,,,,,,,,,,,15,,71,72
56880,note_on,,0,0,18,,,,,,,,,,,,,,,,15,,66,72
56939,note_on,,179,0,5,,,,,,,,,,,,,,,,1,,71,0
56939,note_on,,59,0,12,,,,,,,,,,,,,,,,8,,47,0
56939,note_on,,179,0,9,,,,,,,,,,,,,,,,5,,71,0
56939,note_on,,179,0,14,,,,,,,,,,,,,,,,10,,83,0
56939,note_on,,59,0,17,,,,,,,,,,,,,,,,13,,47,0
56939,note_on,,59,0,6,,,,,,,,,,,,,,,,2,,47,0
56939,note_on,,59,0,18,,,,,,,,,,,,,,,,15,,47,0
56940,note_on,,1,0,9,,,,,,,,,,,,,,,,5,,69,72
56940,note_on,,1,0,5,,,,,,,,,,,,,,,,1,,69,72
56940,note_on,,1,0,18,,,,,,,,,,,,,,,,15,,49,72
56940,note_on,,1,0,17,,,,,,,,,,,,,,,,13,,49,72
56940,note_on,,1,0,6,,,,,,,,,,,,,,,,2,,49,72
56940,note_on,,1,0,12,,,,,,,,,,,,,,,,8,,49,72
56940,note_on,,1,0,14,,,,,,,,,,,,,,,,10,,81,72
56969,note_on,,29,0,9,,,,,,,,,,,,,,,,5,,69,0
56969,note_on,,29,0,14,,,,,,,,,,,,,,,,10,,81,0
56969,note_on,,29,0,5,,,,,,,,,,,,,,,,1,,69,0
56970,note_on,,1,0,14,,,,,,,,,,,,,,,,10,,79,72
56970,note_on,,1,0,9,,,,,,,,,,,,,,,,5,,67,72
56970,note_on,,1,0,5,,,,,,,,,,,,,,,,1,,67,72
56999,note_on,,29,0,14,,,,,,,,,,,,,,,,10,,79,0
56999,note_on,,0,0,18,,,,,,,,,,,,,,,,15,,66,0
56999,note_on,,0,0,18,,,,,,,,,,,,,,,,15,,49,0
56999,note_on,,29,0,9,,,,,,,,,,,,,,,,5,,67,0
56999,note_on,,59,0,6,,,,,,,,,,,,,,,,2,,49,0
56999,note_on,,29,0,5,,,,,,,,,,,,,,,,1,,67,0
56999,note_on,,59,0,17,,,,,,,,,,,,,,,,13,,49,0
56999,note_on,,59,0,18,,,,,,,,,,,,,,,,15,,74,0
56999,note_on,,0,0,18,,,,,,,,,,,,,,,,15,,71,0
56999,note_on,,59,0,12,,,,,,,,,,,,,,,,8,,49,0
57000,note_on,,1,0,17,,,,,,,,,,,,,,,,13,,50,72
57000,note_on,,0,0,18,,,,,,,,,,,,,,,,15,,62,72
57000,note_on,,1,0,12,,,,,,,,,,,,,,,,8,,50,72
57000,note_on,,0,0,18,,,,,,,,,,,,,,,,15,,71,72
57000,note_on,,1,0,18,,,,,,,,,,,,,,,,15,,50,72
57000,note_on,,1,0,9,,,,,,,,,,,,,,,,5,,66,72
57000,note_on,,0,0,18,,,,,,,,,,,,,,,,15,,66,72
57000,note_on,,1,0,5,,,,,,,,,,,,,,,,1,,66,72
57000,note_on,,1,0,14,,,,,,,,,,,,,,,,10,,78,72
57000,note_on,,1,0,6,,,,,,,,,,,,,,,,2,,50,72
57059,note_on,,59,0,14,,,,,,,,,,,,,,,,10,,78,0
57059,note_on,,179,0,15,,,,,,,,,,,,,,,,11,,74,0
57059,note_on,,179,0,11,,,,,,,,,,,,,,,,7,,59,0
57059,note_on,,59,0,18,,,,,,,,,,,,,,,,15,,50,0
57059,note_on,,59,0,17,,,,,,,,,,,,,,,,13,,50,0
57059,note_on,,59,0,9,,,,,,,,,,,,,,,,5,,66,0
57059,note_on,,179,0,10,,,,,,,,,,,,,,,,6,,62,0
57059,note_on,,59,0,6,,,,,,,,,,,,,,,,2,,50,0
57059,note_on,,59,0,5,,,,,,,,,,,,,,,,1,,66,0
57059,note_on,,59,0,12,,,,,,,,,,,,,,,,8,,50,0
57059,note_on,,179,0,16,,,,,,,,,,,,,,,,12,,71,0
57060,note_on,,1,0,9,,,,,,,,,,,,,,,,5,,67,72
57060,note_on,,1,0,10,,,,,,,,,,,,,,,,6,,62,72
57060,note_on,,1,0,6,,,,,,,,,,,,,,,,2,,52,72
57060,note_on,,1,0,11,,,,,,,,,,,,,,,,7,,59,72
57060,note_on,,1,0,17,,,,,,,,,,,,,,,,13,,52,72
57060,note_on,,1,0,15,,,,,,,,,,,,,,,,11,,74,72
57060,note_on,,1,0,18,,,,,,,,,,,,,,,,15,,52,72
57060,note_on,,1,0,14,,,,,,,,,,,,,,,,10,,79,72
57060,note_on,,1,0,12,,,,,,,,,,,,,,,,8,,52,72
57060,note_on,,1,0,5,,,,,,,,,,,,,,,,1,,67,72
57060,note_on,,1,0,16,,,,,,,,,,,,,,,,12,,71,60
57119,note_on,,59,0,11,,,,,,,,,,,,,,,,7,,59,0
57119,note_on,,59,0,18,,,,,,,,,,,,,,,,15,,71,0
57119,note_on,,0,0,18,,,,,,,,,,,,,,,,15,,66,0
57119,note_on,,0,0,18,,,,,,,,,,,,,,,,15,,62,0
57119,note_on,,0,0,18,,,,,,,,,,,,,,,,15,,52,0
57119,note_on,,59,0,5,,,,,,,,,,,,,,,,1,,67,0
57119,note_on,,59,0,6,,,,,,,,,,,,,,,,2,,52,0
57119,note_on,,59,0,16,,,,,,,,,,,,,,,,12,,71,0
57119,note_on,,59,0,9,,,,,,,,,,,,,,,,5,,67,0
57119,note_on,,59,0,14,,,,,,,,,,,,,,,,10,,79,0
57119,note_on,,59,0,12,,,,,,,,,,,,,,,,8,,52,0
57119,note_on,,59,0,15,,,,,,,,,,,,,,,,11,,74,0
57119,note_on,,59,0,10,,,,,,,,,,,,,,,,6,,62,0
57119,note_on,,59,0,17,,,,,,,,,,,,,,,,13,,52,0
57120,note_on,,1,0,16,,,,,,,,,,,,,,,,12,,69,60
57120,note_on,,1,0,15,,,,,,,,,,,,,,,,11,,73,72
57120,note_on,,1,0,11,,,,,,,,,,,,,,,,7,,57,72
57120,note_on,,1,0,14,,,,,,,,,,,,,,,,10,,81,72
57120,note_on,,1,0,12,,,,,,,,,,,,,,,,8,,54,72
57120,note_on,,1,0,18,,,,,,,,,,,,,,,,15,,54,72
57120,note_on,,0,0,18,,,,,,,,,,,,,,,,15,,69,72
57120,note_on,,1,0,9,,,,,,,,,,,,,,,,5,,69,72
57120,note_on,,1,0,17,,,,,,,,,,,,,,,,13,,54,72
57120,note_on,,0,0,18,,,,,,,,,,,,,,,,15,,66,72
57120,note_on,,1,0,10,,,,,,,,,,,,,,,,6,,61,72
57120,note_on,,1,0,6,,,,,,,,,,,,,,,,2,,54,72
57120,note_on,,0,0,18,,,,,,,,,,,,,,,,15,,61,72
57120,note_on,,1,0,5,,,,,,,,,,,,,,,,1,,69,72
57179,note_on,,59,0,17,,,,,,,,,,,,,,,,13,,54,0
57179,note_on,,59,0,10,,,,,,,,,,,,,,,,6,,61,0
57179,note_on,,59,0,15,,,,,,,,,,,,,,,,11,,73,0
57179,note_on,,59,0,11,,,,,,,,,,,,,,,,7,,57,0
57179,note_on,,59,0,14,,,,,,,,,,,,,,,,10,,81,0
57179,note_on,,59,0,12,,,,,,,,,,,,,,,,8,,54,0
57179,note_on,,59,0,6,,,,,,,,,,,,,,,,2,,54,0
57179,note_on,,59,0,9,,,,,,,,,,,,,,,,5,,69,0
57179,note_on,,59,0,18,,,,,,,,,,,,,,,,15,,54,0
57179,note_on,,59,0,5,,,,,,,,,,,,,,,,1,,69,0
57179,note_on,,59,0,16,,,,,,,,,,,,,,,,12,,69,0
57180,note_on,,1,0,18,,,,,,,,,,,,,,,,15,,52,72
57180,note_on,,1,0,5,,,,,,,,,,,,,,,,1,,71,72
57180,note_on,,1,0,12,,,,,,,,,,,,,,,,8,,52,72
57180,note_on,,1,0,16,,,,,,,,,,,,,,,,12,,67,60
57180,note_on,,1,0,10,,,,,,,,,,,,,,,,6,,62,72
57180,note_on,,1,0,11,,,,,,,,,,,,,,,,7,,55,72
57180,note_on,,1,0,6,,,,,,,,,,,,,,,,2,,52,72
57180,note_on,,1,0,17,,,,,,,,,,,,,,,,13,,52,72
57180,note_on,,1,0,9,,,,,,,,,,,,,,,,5,,71,72
57180,note_on,,1,0,14,,,,,,,,,,,,,,,,10,,83,72
57180,note_on,,1,0,15,,,,,,,,,,,,,,,,11,,74,72
57209,note_on,,29,0,14,,,,,,,,,,,,,,,,10,,83,0
57209,note_on,,29,0,10,,,,,,,,,,,,,,,,6,,62,0
57209,note_on,,29,0,9,,,,,,,,,,,,,,,,5,,71,0
57209,note_on,,29,0,5,,,,,,,,,,,,,,,,1,,71,0
57209,note_on,,29,0,15,,,,,,,,,,,,,,,,11,,74,0
57210,note_on,,1,0,15,,,,,,,,,,,,,,,,11,,76,72
57210,note_on,,1,0,10,,,,,,,,,,,,,,,,6,,64,72
57210,note_on,,1,0,14,,,,,,,,,,,,,,,,10,,85,72
57210,note_on,,1,0,9,,,,,,,,,,,,,,,,5,,73,72
57210,note_on,,1,0,5,,,,,,,,,,,,,,,,1,,73,72
57239,note_on,,29,0,15,,,,,,,,,,,,,,,,11,,76,0
57239,note_on,,59,0,12,,,,,,,,,,,,,,,,8,,52,0
57239,note_on,,29,0,10,,,,,,,,,,,,,,,,6,,64,0
57239,note_on,,59,0,6,,,,,,,,,,,,,,,,2,,52,0
57239,note_on,,0,0,18,,,,,,,,,,,,,,,,15,,52,0
57239,note_on,,0,0,18,,,,,,,,,,,,,,,,15,,61,0
57239,note_on,,59,0,16,,,,,,,,,,,,,,,,12,,67,0
57239,note_on,,59,0,18,,,,,,,,,,,,,,,,15,,69,0
57239,note_on,,59,0,11,,,,,,,,,,,,,,,,7,,55,0
57239,note_on,,29,0,9,,,,,,,,,,,,,,,,5,,73,0
57239,note_on,,29,0,14,,,,,,,,,,,,,,,,10,,85,0
57239,note_on,,59,0,17,,,,,,,,,,,,,,,,13,,52,0
57239,note_on,,0,0,18,,,,,,,,,,,,,,,,15,,66,0
57239,note_on,,29,0,5,,,,,,,,,,,,,,,,1,,73,0
57240,note_on,,1,0,15,,,,,,,,,,,,,,,,11,,78,72
57240,note_on,,1,0,10,,,,,,,,,,,,,,,,6,,66,72
57240,note_on,,1,0,14,,,,,,,,,,,,,,,,10,,86,72
57240,note_on,,1,0,5,,,,,,,,,,,,,,,,1,,74,72
57240,note_on,,1,0,17,,,,,,,,,,,,,,,,13,,50,72
57240,note_on,,1,0,11,,,,,,,,,,,,,,,,7,,54,72
57240,note_on,,1,0,6,,,,,,,,,,,,,,,,2,,50,72
57240,note_on,,1,0,12,,,,,,,,,,,,,,,,8,,50,72
57240,note_on,,1,0,16,,,,,,,,,,,,,,,,12,,66,60
57240,note_on,,1,0,9,,,,,,,,,,,,,,,,5,,74,72
57240,note_on,,1,0,18,,,,,,,,,,,,,,,,15,,50,72
57240,note_on,,0,0,18,,,,,,,,,,,,,,,,15,,78,72
57240,note_on,,0,0,18,,,,,,,,,,,,,,,,15,,74,72
57240,note_on,,0,0,18,,,,,,,,,,,,,,,,15,,69,72
57299,note_on,,59,0,17,,,,,,,,,,,,,,,,13,,50,0
57299,note_on,,59,0,10,,,,,,,,,,,,,,,,6,,66,0
57299,note_on,,59,0,18,,,,,,,,,,,,,,,,15,,50,0
57299,note_on,,59,0,16,,,,,,,,,,,,,,,,12,,66,0
57299,note_on,,59,0,5,,,,,,,,,,,,,,,,1,,74,0
57299,note_on,,59,0,6,,,,,,,,,,,,,,,,2,,50,0
57299,note_on,,59,0,11,,,,,,,,,,,,,,,,7,,54,0
57299,note_on,,59,0,12,,,,,,,,,,,,,,,,8,,50,0
57299,note_on,,59,0,9,,,,,,,,,,,,,,,,5,,74,0
57299,note_on,,59,0,14,,,,,,,,,,,,,,,,10,,86,0
57299,note_on,,59,0,15,,,,,,,,,,,,,,,,11,,78,0
57300,note_on,,1,0,11,,,,,,,,,,,,,,,,7,,55,72
57300,note_on,,1,0,18,,,,,,,,,,,,,,,,15,,52,72
57300,note_on,,1,0,10,,,,,,,,,,,,,,,,6,,64,72
57300,note_on,,1,0,6,,,,,,,,,,,,,,,,2,,52,72
57300,note_on,,1,0,16,,,,,,,,,,,,,,,,12,,67,60
57300,note_on,,1,0,5,,,,,,,,,,,,,,,,1,,73,72
57300,note_on,,1,0,12,,,,,,,,,,,,,,,,8,,52,72
57300,note_on,,1,0,17,,,,,,,,,,,,,,,,13,,52,72
57300,note_on,,1,0,14,,,,,,,,,,,,,,,,10,,85,72
57300,note_on,,1,0,15,,,,,,,,,,,,,,,,11,,76,72
57300,note_on,,1,0,9,,,,,,,,,,,,,,,,5,,73,72
57329,note_on,,29,0,16,,,,,,,,,,,,,,,,12,,67,0
57329,note_on,,29,0,11,,,,,,,,,,,,,,,,7,,55,0
57329,note_on,,29,0,6,,,,,,,,,,,,,,,,2,,52,0
57329,note_on,,29,0,12,,,,,,,,,,,,,,,,8,,52,0
57329,note_on,,29,0,17,,,,,,,,,,,,,,,,13,,52,0
57329,note_on,,29,0,18,,,,,,,,,,,,,,,,15,,52,0
57330,note_on,,1,0,16,,,,,,,,,,,,,,,,12,,69,60
57330,note_on,,1,0,12,,,,,,,,,,,,,,,,8,,54,72
57330,note_on,,1,0,6,,,,,,,,,,,,,,,,2,,54,72
57330,note_on,,1,0,17,,,,,,,,,,,,,,,,13,,54,72
57330,note_on,,1,0,11,,,,,,,,,,,,,,,,7,,57,72
57330,note_on,,1,0,18,,,,,,,,,,,,,,,,15,,54,72
57359,note_on,,59,0,5,,,,,,,,,,,,,,,,1,,73,0
57359,note_on,,29,0,6,,,,,,,,,,,,,,,,2,,54,0
57359,note_on,,0,0,18,,,,,,,,,,,,,,,,15,,54,0
57359,note_on,,29,0,12,,,,,,,,,,,,,,,,8,,54,0
57359,note_on,,0,0,18,,,,,,,,,,,,,,,,15,,69,0
57359,note_on,,0,0,18,,,,,,,,,,,,,,,,15,,74,0
57359,note_on,,29,0,16,,,,,,,,,,,,,,,,12,,69,0
57359,note_on,,29,0,11,,,,,,,,,,,,,,,,7,,57,0
57359,note_on,,59,0,9,,,,,,,,,,,,,,,,5,,73,0
57359,note_on,,29,0,18,,,,,,,,,,,,,,,,15,,78,0
57359,note_on,,59,0,15,,,,,,,,,,,,,,,,11,,76,0
57359,note_on,,29,0,17,,,,,,,,,,,,,,,,13,,54,0
57359,note_on,,59,0,10,,,,,,,,,,,,,,,,6,,64,0
57359,note_on,,59,0,14,,,,,,,,,,,,,,,,10,,85,0
57360,note_on,,1,0,9,,,,,,,,,,,,,,,,5,,71,72
57360,note_on,,0,0,18,,,,,,,,,,,,,,,,15,,67,72
57360,note_on,,1,0,6,,,,,,,,,,,,,,,,2,,55,72
57360,note_on,,1,0,10,,,,,,,,,,,,,,,,6,,62,72
57360,note_on,,1,0,12,,,,,,,,,,,,,,,,8,,55,72
57360,note_on,,1,0,5,,,,,,,,,,,,,,,,1,,71,72
57360,note_on,,1,0,14,,,,,,,,,,,,,,,,10,,83,72
57360,note_on,,0,0,18,,,,,,,,,,,,,,,,15,,71,72
57360,note_on,,1,0,11,,,,,,,,,,,,,,,,7,,59,72
57360,note_on,,1,0,16,,,,,,,,,,,,,,,,12,,71,60
57360,note_on,,1,0,17,,,,,,,,,,,,,,,,13,,55,72
57360,note_on,,1,0,15,,,,,,,,,,,,,,,,11,,74,72
57360,note_on,,1,0,18,,,,,,,,,,,,,,,,15,,55,72
57360,note_on,,0,0,18,,,,,,,,,,,,,,,,15,,62,72
57419,note_on,,59,0,10,,,,,,,,,,,,,,,,6,,62,0
57419,note_on,,59,0,9,,,,,,,,,,,,,,,,5,,71,0
57419,note_on,,59,0,17,,,,,,,,,,,,,,,,13,,55,0
57419,note_on,,59,0,6,,,,,,,,,,,,,,,,2,,55,0
57419,note_on,,59,0,5,,,,,,,,,,,,,,,,1,,71,0
57419,note_on,,59,0,12,,,,,,,,,,,,,,,,8,,55,0
57419,note_on,,59,0,14,,,,,,,,,,,,,,,,10,,83,0
57419,note_on,,59,0,18,,,,,,,,,,,,,,,,15,,55,0
57420,note_on,,1,0,12,,,,,,,,,,,,,,,,8,,54,72
57420,note_on,,1,0,9,,,,,,,,,,,,,,,,5,,73,72
57420,note_on,,1,0,17,,,,,,,,,,,,,,,,13,,54,72
57420,note_on,,1,0,5,,,,,,,,,,,,,,,,1,,73,72
57420,note_on,,1,0,14,,,,,,,,,,,,,,,,10,,81,72
57420,note_on,,1,0,18,,,,,,,,,,,,,,,,15,,54,72
57420,note_on,,1,0,6,,,,,,,,,,,,,,,,2,,54,72
57420,note_on,,1,0,10,,,,,,,,,,,,,,,,6,,64,72
57449,note_on,,29,0,10,,,,,,,,,,,,,,,,6,,64,0
57449,note_on,,29,0,9,,,,,,,,,,,,,,,,5,,73,0
57449,note_on,,29,0,5,,,,,,,,,,,,,,,,1,,73,0
57450,note_on,,1,0,10,,,,,,,,,,,,,,,,6,,66,72
57450,note_on,,1,0,9,,,,,,,,,,,,,,,,5,,74,72
57450,note_on,,1,0,5,,,,,,,,,,,,,,,,1,,74,72
57479,note_on,,29,0,10,,,,,,,,,,,,,,,,6,,66,0
57479,note_on,,59,0,17,,,,,,,,,,,,,,,,13,,54,0
57479,note_on,,59,0,12,,,,,,,,,,,,,,,,8,,54,0
57479,note_on,,29,0,9,,,,,,,,,,,,,,,,5,,74,0
57479,note_on,,119,0,15,,,,,,,,,,,,,,,,11,,74,0
57479,note_on,,59,0,14,,,,,,,,,,,,,,,,10,,81,0
57479,note_on,,29,0,5,,,,,,,,,,,,,,,,1,,74,0
57479,note_on,,59,0,18,,,,,,,,,,,,,,,,15,,71,0
57479,note_on,,0,0,18,,,,,,,,,,,,,,,,15,,67,0
57479,note_on,,0,0,18,,,,,,,,,,,,,,,,15,,62,0
57479,note_on,,0,0,18,,,,,,,,,,,,,,,,15,,54,0
57479,note_on,,59,0,6,,,,,,,,,,,,,,,,2,,54,0
57480,note_on,,1,0,10,,,,,,,,,,,,,,,,6,,67,72
57480,note_on,,0,0,18,,,,,,,,,,,,,,,,15,,76,72
57480,note_on,,0,0,18,,,,,,,,,,,,,,,,15,,71,72
57480,note_on,,1,0,17,,,,,,,,,,,,,,,,13,,52,72
57480,note_on,,1,0,6,,,,,,,,,,,,,,,,2,,52,72
57480,note_on,,1,0,12,,,,,,,,,,,,,,,,8,,52,72
57480,note_on,,1,0,5,,,,,,,,,,,,,,,,1,,76,72
57480,note_on,,0,0,18,,,,,,,,,,,,,,,,15,,79,72
57480,note_on,,1,0,18,,,,,,,,,,,,,,,,15,,52,72
57480,note_on,,1,0,9,,,,,,,,,,,,,,,,5,,76,72
57480,note_on,,1,0,14,,,,,,,,,,,,,,,,10,,79,72
57480,note_on,,1,0,15,,,,,,,,,,,,,,,,11,,76,72
57539,note_on,,179,0,16,,,,,,,,,,,,,,,,12,,71,0
57539,note_on,,59,0,17,,,,,,,,,,,,,,,,13,,52,0
57539,note_on,,59,0,10,,,,,,,,,,,,,,,,6,,67,0
57539,note_on,,59,0,14,,,,,,,,,,,,,,,,10,,79,0
57539,note_on,,59,0,5,,,,,,,,,,,,,,,,1,,76,0
57539,note_on,,59,0,12,,,,,,,,,,,,,,,,8,,52,0
57539,note_on,,59,0,18,,,,,,,,,,,,,,,,15,,52,0
57539,note_on,,59,0,6,,,,,,,,,,,,,,,,2,,52,0
57539,note_on,,59,0,9,,,,,,,,,,,,,,,,5,,76,0
57539,note_on,,179,0,11,,,,,,,,,,,,,,,,7,,59,0
57539,note_on,,59,0,15,,,,,,,,,,,,,,,,11,,76,0
57540,note_on,,1,0,14,,,,,,,,,,,,,,,,10,,78,72
57540,note_on,,1,0,9,,,,,,,,,,,,,,,,5,,74,72
57540,note_on,,1,0,16,,,,,,,,,,,,,,,,12,,71,60
57540,note_on,,1,0,11,,,,,,,,,,,,,,,,7,,59,72
57540,note_on,,1,0,12,,,,,,,,,,,,,,,,8,,54,72
57540,note_on,,1,0,17,,,,,,,,,,,,,,,,13,,54,72
57540,note_on,,1,0,6,,,,,,,,,,,,,,,,2,,54,72
57540,note_on,,1,0,5,,,,,,,,,,,,,,,,1,,74,72
57540,note_on,,1,0,15,,,,,,,,,,,,,,,,11,,74,72
57540,note_on,,1,0,10,,,,,,,,,,,,,,,,6,,66,72
57540,note_on,,1,0,18,,,,,,,,,,,,,,,,15,,54,72
57569,note_on,,29,0,12,,,,,,,,,,,,,,,,8,,54,0
57569,note_on,,29,0,17,,,,,,,,,,,,,,,,13,,54,0
57569,note_on,,29,0,6,,,,,,,,,,,,,,,,2,,54,0
57569,note_on,,29,0,18,,,,,,,,,,,,,,,,15,,54,0
57570,note_on,,1,0,17,,,,,,,,,,,,,,,,13,,55,72
57570,note_on,,1,0,6,,,,,,,,,,,,,,,,2,,55,72
57570,note_on,,1,0,12,,,,,,,,,,,,,,,,8,,55,72
57570,note_on,,1,0,18,,,,,,,,,,,,,,,,15,,55,72
57599,note_on,,59,0,9,,,,,,,,,,,,,,,,5,,74,0
57599,note_on,,0,0,18,,,,,,,,,,,,,,,,15,,55,0
57599,note_on,,29,0,12,,,,,,,,,,,,,,,,8,,55,0
57599,note_on,,29,0,18,,,,,,,,,,,,,,,,15,,79,0
57599,note_on,,29,0,17,,,,,,,,,,,,,,,,13,,55,0
57599,note_on,,0,0,18,,,,,,,,,,,,,,,,15,,76,0
57599,note_on,,0,0,18,,,,,,,,,,,,,,,,15,,71,0
57599,note_on,,59,0,15,,,,,,,,,,,,,,,,11,,74,0
57599,note_on,,59,0,10,,,,,,,,,,,,,,,,6,,66,0
57599,note_on,,59,0,11,,,,,,,,,,,,,,,,7,,59,0
57599,note_on,,29,0,6,,,,,,,,,,,,,,,,2,,55,0
57599,note_on,,59,0,14,,,,,,,,,,,,,,,,10,,78,0
57599,note_on,,59,0,16,,,,,,,,,,,,,,,,12,,71,0
57599,note_on,,59,0,5,,,,,,,,,,,,,,,,1,,74,0
57600,note_on,,0,0,18,,,,,,,,,,,,,,,,15,,73,72
57600,note_on,,1,0,18,,,,,,,,,,,,,,,,15,,57,72
57600,note_on,,1,0,17,,,,,,,,,,,,,,,,13,,57,72
57600,note_on,,1,0,5,,,,,,,,,,,,,,,,1,,73,72
57600,note_on,,1,0,6,,,,,,,,,,,,,,,,2,,57,72
57600,note_on,,0,0,18,,,,,,,,,,,,,,,,15,,64,72
57600,note_on,,1,0,12,,,,,,,,,,,,,,,,8,,57,72
57600,note_on,,1,0,15,,,,,,,,,,,,,,,,11,,73,72
57600,note_on,,0,0,18,,,,,,,,,,,,,,,,15,,69,72
57600,note_on,,1,0,10,,,,,,,,,,,,,,,,6,,64,72
57600,note_on,,1,0,16,,,,,,,,,,,,,,,,12,,73,60
57600,note_on,,1,0,11,,,,,,,,,,,,,,,,7,,61,72
57600,note_on,,1,0,9,,,,,,,,,,,,,,,,5,,73,72
57600,note_on,,1,0,14,,,,,,,,,,,,,,,,10,,76,72
57659,note_on,,59,0,18,,,,,,,,,,,,,,,,15,,57,0
57659,note_on,,59,0,5,,,,,,,,,,,,,,,,1,,73,0
57659,note_on,,59,0,12,,,,,,,,,,,,,,,,8,,57,0
57659,note_on,,59,0,6,,,,,,,,,,,,,,,,2,,57,0
57659,note_on,,59,0,17,,,,,,,,,,,,,,,,13,,57,0
57659,note_on,,59,0,9,,,,,,,,,,,,,,,,5,,73,0
57660,note_on,,1,0,6,,,,,,,,,,,,,,,,2,,55,72
57660,note_on,,1,0,5,,,,,,,,,,,,,,,,1,,71,72
57660,note_on,,1,0,17,,,,,,,,,,,,,,,,13,,55,72
57660,note_on,,1,0,12,,,,,,,,,,,,,,,,8,,55,72
57660,note_on,,1,0,18,,,,,,,,,,,,,,,,15,,55,72
57660,note_on,,1,0,9,,,,,,,,,,,,,,,,5,,71,72
57719,note_on,,119,0,14,,,,,,,,,,,,,,,,10,,76,0
57719,note_on,,59,0,6,,,,,,,,,,,,,,,,2,,55,0
57719,note_on,,0,0,18,,,,,,,,,,,,,,,,15,,55,0
57719,note_on,,0,0,18,,,,,,,,,,,,,,,,15,,64,0
57719,note_on,,59,0,18,,,,,,,,,,,,,,,,15,,69,0
57719,note_on,,59,0,5,,,,,,,,,,,,,,,,1,,71,0
57719,note_on,,119,0,10,,,,,,,,,,,,,,,,6,,64,0
57719,note_on,,59,0,9,,,,,,,,,,,,,,,,5,,71,0
57719,note_on,,59,0,12,,,,,,,,,,,,,,,,8,,55,0
57719,note_on,,119,0,15,,,,,,,,,,,,,,,,11,,73,0
57719,note_on,,59,0,17,,,,,,,,,,,,,,,,13,,55,0
57720,note_on,,1,0,17,,,,,,,,,,,,,,,,13,,54,72
57720,note_on,,1,0,5,,,,,,,,,,,,,,,,1,,69,72
57720,note_on,,0,0,18,,,,,,,,,,,,,,,,15,,66,72
57720,note_on,,1,0,9,,,,,,,,,,,,,,,,5,,69,72
57720,note_on,,1,0,6,,,,,,,,,,,,,,,,2,,54,72
57720,note_on,,1,0,12,,,,,,,,,,,,,,,,8,,54,72
57720,note_on,,1,0,10,,,,,,,,,,,,,,,,6,,69,72
57720,note_on,,1,0,15,,,,,,,,,,,,,,,,11,,81,72
57720,note_on,,1,0,18,,,,,,,,,,,,,,,,15,,54,72
57720,note_on,,0,0,18,,,,,,,,,,,,,,,,15,,69,72
57779,note_on,,179,0,11,,,,,,,,,,,,,,,,7,,61,0
57779,note_on,,59,0,6,,,,,,,,,,,,,,,,2,,54,0
57779,note_on,,59,0,18,,,,,,,,,,,,,,,,15,,54,0
57779,note_on,,179,0,16,,,,,,,,,,,,,,,,12,,73,0
57779,note_on,,59,0,17,,,,,,,,,,,,,,,,13,,54,0
57779,note_on,,59,0,12,,,,,,,,,,,,,,,,8,,54,0
57780,note_on,,1,0,16,,,,,,,,,,,,,,,,12,,74,60
57780,note_on,,1,0,18,,,,,,,,,,,,,,,,15,,52,72
57780,note_on,,1,0,11,,,,,,,,,,,,,,,,7,,62,72
57780,note_on,,1,0,12,,,,,,,,,,,,,,,,8,,52,72
57780,note_on,,1,0,6,,,,,,,,,,,,,,,,2,,52,72
57780,note_on,,1,0,17,,,,,,,,,,,,,,,,13,,52,72
57809,note_on,,29,0,11,,,,,,,,,,,,,,,,7,,62,0
57809,note_on,,29,0,16,,,,,,,,,,,,,,,,12,,74,0
57810,note_on,,1,0,11,,,,,,,,,,,,,,,,7,,61,72
57810,note_on,,1,0,16,,,,,,,,,,,,,,,,12,,73,60
57839,note_on,,29,0,16,,,,,,,,,,,,,,,,12,,73,0
57839,note_on,,119,0,5,,,,,,,,,,,,,,,,1,,69,0
57839,note_on,,119,0,9,,,,,,,,,,,,,,,,5,,69,0
57839,note_on,,0,0,18,,,,,,,,,,,,,,,,15,,52,0
57839,note_on,,59,0,18,,,,,,,,,,,,,,,,15,,73,0
57839,note_on,,59,0,6,,,,,,,,,,,,,,,,2,,52,0
57839,note_on,,59,0,17,,,,,,,,,,,,,,,,13,,52,0
57839,note_on,,59,0,12,,,,,,,,,,,,,,,,8,,52,0
57839,note_on,,29,0,11,,,,,,,,,,,,,,,,7,,61,0
57840,note_on,,1,0,11,,,,,,,,,,,,,,,,7,,59,72
57840,note_on,,0,0,18,,,,,,,,,,,,,,,,15,,78,72
57840,note_on,,1,0,17,,,,,,,,,,,,,,,,13,,50,72
57840,note_on,,1,0,18,,,,,,,,,,,,,,,,15,,50,72
57840,note_on,,1,0,12,,,,,,,,,,,,,,,,8,,50,72
57840,note_on,,1,0,16,,,,,,,,,,,,,,,,12,,71,60
57840,note_on,,1,0,6,,,,,,,,,,,,,,,,2,,50,72
57959,note_on,,119,0,12,,,,,,,,,,,,,,,,8,,50,0
57959,note_on,,0,0,18,,,,,,,,,,,,,,,,15,,66,0
57959,note_on,,0,0,18,,,,,,,,,,,,,,,,15,,78,0
57959,note_on,,239,0,10,,,,,,,,,,,,,,,,6,,69,0
57959,note_on,,119,0,6,,,,,,,,,,,,,,,,2,,50,0
57959,note_on,,0,0,18,,,,,,,,,,,,,,,,15,,50,0
57959,note_on,,119,0,18,,,,,,,,,,,,,,,,15,,69,0
57959,note_on,,239,0,15,,,,,,,,,,,,,,,,11,,81,0
57959,note_on,,119,0,17,,,,,,,,,,,,,,,,13,,50,0
57960,note_on,,1,0,15,,,,,,,,,,,,,,,,11,,79,72
57960,note_on,,0,0,18,,,,,,,,,,,,,,,,15,,64,72
57960,note_on,,0,0,18,,,,,,,,,,,,,,,,15,,71,72
57960,note_on,,1,0,10,,,,,,,,,,,,,,,,6,,67,72
57960,note_on,,1,0,6,,,,,,,,,,,,,,,,2,,52,72
57960,note_on,,1,0,18,,,,,,,,,,,,,,,,15,,52,72
57960,note_on,,1,0,12,,,,,,,,,,,,,,,,8,,52,72
57960,note_on,,0,0,18,,,,,,,,,,,,,,,,15,,67,72
57960,note_on,,1,0,17,,,,,,,,,,,,,,,,13,,52,72
58079,note_on,,119,0,17,,,,,,,,,,,,,,,,13,,52,0
58079,note_on,,119,0,18,,,,,,,,,,,,,,,,15,,52,0
58079,note_on,,119,0,12,,,,,,,,,,,,,,,,8,,52,0
58079,note_on,,0,0,18,,,,,,,,,,,,,,,,15,,71,0
58079,note_on,,239,0,11,,,,,,,,,,,,,,,,7,,59,0
58079,note_on,,239,0,16,,,,,,,,,,,,,,,,12,,71,0
58079,note_on,,119,0,6,,,,,,,,,,,,,,,,2,,52,0
58080,note_on,,1,0,6,,,,,,,,,,,,,,,,2,,45,72
58080,note_on,,1,0,12,,,,,,,,,,,,,,,,8,,45,72
58080,note_on,,1,0,17,,,,,,,,,,,,,,,,13,,45,72
58080,note_on,,1,0,16,,,,,,,,,,,,,,,,12,,73,60
58080,note_on,,1,0,11,,,,,,,,,,,,,,,,7,,61,72
58080,note_on,,1,0,18,,,,,,,,,,,,,,,,15,,45,72
58080,note_on,,0,0,18,,,,,,,,,,,,,,,,15,,73,72
58139,note_on,,59,0,18,,,,,,,,,,,,,,,,15,,45,0
58139,note_on,,59,0,6,,,,,,,,,,,,,,,,2,,45,0
58139,note_on,,59,0,17,,,,,,,,,,,,,,,,13,,45,0
58139,note_on,,59,0,12,,,,,,,,,,,,,,,,8,,45,0
58140,note_on,,1,0,17,,,,,,,,,,,,,,,,13,,57,72
58140,note_on,,1,0,18,,,,,,,,,,,,,,,,15,,57,72
58140,note_on,,1,0,12,,,,,,,,,,,,,,,,8,,57,72
58140,note_on,,1,0,6,,,,,,,,,,,,,,,,2,,57,72
58199,note_on,,0,0,18,,,,,,,,,,,,,,,,15,,73,0
58199,note_on,,0,0,18,,,,,,,,,,,,,,,,15,,57,0
58199,note_on,,59,0,18,,,,,,,,,,,,,,,,15,,67,0
58199,note_on,,0,0,18,,,,,,,,,,,,,,,,15,,64,0
58199,note_on,,59,0,6,,,,,,,,,,,,,,,,2,,57,0
58199,note_on,,119,0,16,,,,,,,,,,,,,,,,12,,73,0
58199,note_on,,239,0,10,,,,,,,,,,,,,,,,6,,67,0
58199,note_on,,119,0,11,,,,,,,,,,,,,,,,7,,61,0
58199,note_on,,239,0,15,,,,,,,,,,,,,,,,11,,79,0
58199,note_on,,59,0,12,,,,,,,,,,,,,,,,8,,57,0
58199,note_on,,59,0,17,,,,,,,,,,,,,,,,13,,57,0
58200,note_on,,1,0,6,,,,,,,,,,,,,,,,2,,59,72
58200,note_on,,0,0,18,,,,,,,,,,,,,,,,15,,66,72
58200,note_on,,1,0,15,,,,,,,,,,,,,,,,11,,78,72
58200,note_on,,1,0,12,,,,,,,,,,,,,,,,8,,59,72
58200,note_on,,1,0,17,,,,,,,,,,,,,,,,13,,59,72
58200,note_on,,1,0,18,,,,,,,,,,,,,,,,15,,59,72
58200,note_on,,0,0,18,,,,,,,,,,,,,,,,15,,74,72
58200,note_on,,1,0,16,,,,,,,,,,,,,,,,12,,74,60
58200,note_on,,0,0,18,,,,,,,,,,,,,,,,15,,62,72
58200,note_on,,1,0,11,,,,,,,,,,,,,,,,7,,62,72
58200,note_on,,1,0,10,,,,,,,,,,,,,,,,6,,66,72
58259,note_on,,59,0,12,,,,,,,,,,,,,,,,8,,59,0
58259,note_on,,59,0,17,,,,,,,,,,,,,,,,13,,59,0
58259,note_on,,59,0,6,,,,,,,,,,,,,,,,2,,59,0
58259,note_on,,59,0,18,,,,,,,,,,,,,,,,15,,59,0
58260,note_on,,1,0,17,,,,,,,,,,,,,,,,13,,57,72
58260,note_on,,1,0,6,,,,,,,,,,,,,,,,2,,57,72
58260,note_on,,1,0,18,,,,,,,,,,,,,,,,15,,57,72
58260,note_on,,1,0,12,,,,,,,,,,,,,,,,8,,57,72
58319,note_on,,59,0,12,,,,,,,,,,,,,,,,8,,57,0
58319,note_on,,59,0,17,,,,,,,,,,,,,,,,13,,57,0
58319,note_on,,59,0,18,,,,,,,,,,,,,,,,15,,66,0
58319,note_on,,0,0,18,,,,,,,,,,,,,,,,15,,57,0
58319,note_on,,119,0,15,,,,,,,,,,,,,,,,11,,78,0
58319,note_on,,59,0,6,,,,,,,,,,,,,,,,2,,57,0
58319,note_on,,119,0,10,,,,,,,,,,,,,,,,6,,66,0
58319,note_on,,0,0,18,,,,,,,,,,,,,,,,15,,62,0
58320,note_on,,1,0,17,,,,,,,,,,,,,,,,13,,55,72
58320,note_on,,1,0,10,,,,,,,,,,,,,,,,6,,64,72
58320,note_on,,1,0,6,,,,,,,,,,,,,,,,2,,55,72
58320,note_on,,1,0,12,,,,,,,,,,,,,,,,8,,55,72
58320,note_on,,1,0,15,,,,,,,,,,,,,,,,11,,76,72
58320,note_on,,0,0,18,,,,,,,,,,,,,,,,15,,64,72
58320,note_on,,0,0,18,,,,,,,,,,,,,,,,15,,71,72
58320,note_on,,1,0,18,,,,,,,,,,,,,,,,15,,55,72
58379,note_on,,59,0,6,,,,,,,,,,,,,,,,2,,55,0
58379,note_on,,59,0,18,,,,,,,,,,,,,,,,15,,55,0
58379,note_on,,59,0,12,,,,,,,,,,,,,,,,8,,55,0
58379,note_on,,59,0,17,,,,,,,,,,,,,,,,13,,55,0
58380,note_on,,1,0,18,,,,,,,,,,,,,,,,15,,52,72
58380,note_on,,1,0,6,,,,,,,,,,,,,,,,2,,52,72
58380,note_on,,1,0,12,,,,,,,,,,,,,,,,8,,52,72
58380,note_on,,1,0,17,,,,,,,,,,,,,,,,13,,52,72
58439,note_on,,239,0,11,,,,,,,,,,,,,,,,7,,62,0
58439,note_on,,0,0,18,,,,,,,,,,,,,,,,15,,71,0
58439,note_on,,0,0,18,,,,,,,,,,,,,,,,15,,52,0
58439,note_on,,59,0,12,,,,,,,,,,,,,,,,8,,52,0
58439,note_on,,59,0,18,,,,,,,,,,,,,,,,15,,74,0
58439,note_on,,0,0,18,,,,,,,,,,,,,,,,15,,64,0
58439,note_on,,239,0,16,,,,,,,,,,,,,,,,12,,74,0
58439,note_on,,59,0,17,,,,,,,,,,,,,,,,13,,52,0
58439,note_on,,59,0,6,,,,,,,,,,,,,,,,2,,52,0
58440,note_on,,1,0,6,,,,,,,,,,,,,,,,2,,57,72
58440,note_on,,0,0,18,,,,,,,,,,,,,,,,15,,73,72
58440,note_on,,1,0,11,,,,,,,,,,,,,,,,7,,61,72
58440,note_on,,1,0,12,,,,,,,,,,,,,,,,8,,57,72
58440,note_on,,1,0,17,,,,,,,,,,,,,,,,13,,57,72
58440,note_on,,1,0,16,,,,,,,,,,,,,,,,12,,73,60
58440,note_on,,1,0,18,,,,,,,,,,,,,,,,15,,57,72
58440,note_on,,0,0,18,,,,,,,,,,,,,,,,15,,69,72
58440,note_on,,0,0,18,,,,,,,,,,,,,,,,15,,64,72
58499,note_on,,59,0,6,,,,,,,,,,,,,,,,2,,57,0
58499,note_on,,59,0,18,,,,,,,,,,,,,,,,15,,57,0
58499,note_on,,59,0,17,,,,,,,,,,,,,,,,13,,57,0
58499,note_on,,59,0,12,,,,,,,,,,,,,,,,8,,57,0
58500,note_on,,1,0,18,,,,,,,,,,,,,,,,15,,55,72
58500,note_on,,1,0,12,,,,,,,,,,,,,,,,8,,55,72
58500,note_on,,1,0,6,,,,,,,,,,,,,,,,2,,55,72
58500,note_on,,1,0,17,,,,,,,,,,,,,,,,13,,55,72
58559,note_on,,239,0,10,,,,,,,,,,,,,,,,6,,64,0
58559,note_on,,59,0,17,,,,,,,,,,,,,,,,13,,55,0
58559,note_on,,59,0,12,,,,,,,,,,,,,,,,8,,55,0
58559,note_on,,119,0,11,,,,,,,,,,,,,,,,7,,61,0
58559,note_on,,239,0,15,,,,,,,,,,,,,,,,11,,76,0
58559,note_on,,59,0,18,,,,,,,,,,,,,,,,15,,73,0
58559,note_on,,59,0,6,,,,,,,,,,,,,,,,2,,55,0
58559,note_on,,0,0,18,,,,,,,,,,,,,,,,15,,69,0
58559,note_on,,0,0,18,,,,,,,,,,,,,,,,15,,64,0
58559,note_on,,0,0,18,,,,,,,,,,,,,,,,15,,55,0
58559,note_on,,119,0,16,,,,,,,,,,,,,,,,12,,73,0
58560,note_on,,841,0,14,,,,,,,,,,,,,,,,10,,74,72
58560,note_on,,1,0,12,,,,,,,,,,,,,,,,8,,54,72
58560,note_on,,1,0,11,,,,,,,,,,,,,,,,7,,62,72
58560,note_on,,1,0,16,,,,,,,,,,,,,,,,12,,74,60
58560,note_on,,721,0,9,,,,,,,,,,,,,,,,5,,74,72
58560,note_on,,0,0,18,,,,,,,,,,,,,,,,15,,74,72
58560,note_on,,1,0,10,,,,,,,,,,,,,,,,6,,57,72
58560,note_on,,0,0,18,,,,,,,,,,,,,,,,15,,69,72
58560,note_on,,1,0,18,,,,,,,,,,,,,,,,15,,62,72
58560,note_on,,1,0,15,,,,,,,,,,,,,,,,11,,69,72
58560,note_on,,0,0,18,,,,,,,,,,,,,,,,15,,54,72
58560,note_on,,1,0,6,,,,,,,,,,,,,,,,2,,54,72
58560,note_on,,1,0,17,,,,,,,,,,,,,,,,13,,54,72
58560,note_on,,721,0,5,,,,,,,,,,,,,,,,1,,74,72
58619,note_on,,59,0,12,,,,,,,,,,,,,,,,8,,54,0
58619,note_on,,59,0,18,,,,,,,,,,,,,,,,15,,54,0
58619,note_on,,59,0,17,,,,,,,,,,,,,,,,13,,54,0
58619,note_on,,59,0,6,,,,,,,,,,,,,,,,2,,54,0
58620,note_on,,1,0,12,,,,,,,,,,,,,,,,8,,52,72
58620,note_on,,1,0,17,,,,,,,,,,,,,,,,13,,52,72
58620,note_on,,1,0,18,,,,,,,,,,,,,,,,15,,52,72
58620,note_on,,1,0,6,,,,,,,,,,,,,,,,2,,52,72
58679,note_on,,119,0,16,,,,,,,,,,,,,,,,12,,74,0
58679,note_on,,59,0,12,,,,,,,,,,,,,,,,8,,52,0
58679,note_on,,119,0,10,,,,,,,,,,,,,,,,6,,57,0
58679,note_on,,59,0,17,,,,,,,,,,,,,,,,13,,52,0
58679,note_on,,119,0,15,,,,,,,,,,,,,,,,11,,69,0
58679,note_on,,119,0,11,,,,,,,,,,,,,,,,7,,62,0
58679,note_on,,59,0,18,,,,,,,,,,,,,,,,15,,52,0
58679,note_on,,59,0,6,,,,,,,,,,,,,,,,2,,52,0
58680,note_on,,1,0,6,,,,,,,,,,,,,,,,2,,50,72
58680,note_on,,1,0,15,,,,,,,,,,,,,,,,11,,62,72
58680,note_on,,1,0,18,,,,,,,,,,,,,,,,15,,50,72
58680,note_on,,1,0,17,,,,,,,,,,,,,,,,13,,50,72
58680,note_on,,1,0,10,,,,,,,,,,,,,,,,6,,62,72
58680,note_on,,1,0,12,,,,,,,,,,,,,,,,8,,50,72
58680,note_on,,1,0,16,,,,,,,,,,,,,,,,12,,66,60
58680,note_on,,1,0,11,,,,,,,,,,,,,,,,7,,57,72
58739,note_on,,179,0,9,,,,,,,,,,,,,,,,5,,74,0
58739,note_on,,179,0,14,,,,,,,,,,,,,,,,10,,74,0
58739,note_on,,179,0,5,,,,,,,,,,,,,,,,1,,74,0
58740,note_on,,1,0,9,,,,,,,,,,,,,,,,5,,76,72
58740,note_on,,1,0,5,,,,,,,,,,,,,,,,1,,76,72
58740,note_on,,1,0,14,,,,,,,,,,,,,,,,10,,76,72
58799,note_on,,119,0,18,,,,,,,,,,,,,,,,15,,62,0
58799,note_on,,119,0,16,,,,,,,,,,,,,,,,12,,66,0
58799,note_on,,119,0,6,,,,,,,,,,,,,,,,2,,50,0
58799,note_on,,119,0,12,,,,,,,,,,,,,,,,8,,50,0
58799,note_on,,59,0,5,,,,,,,,,,,,,,,,1,,76,0
58799,note_on,,0,0,18,,,,,,,,,,,,,,,,15,,50,0
58799,note_on,,59,0,14,,,,,,,,,,,,,,,,10,,76,0
58799,note_on,,119,0,17,,,,,,,,,,,,,,,,13,,50,0
58799,note_on,,59,0,9,,,,,,,,,,,,,,,,5,,76,0
58799,note_on,,0,0,18,,,,,,,,,,,,,,,,15,,74,0
58799,note_on,,0,0,18,,,,,,,,,,,,,,,,15,,69,0
58799,note_on,,119,0,11,,,,,,,,,,,,,,,,7,,57,0
58800,note_on,,1,0,14,,,,,,,,,,,,,,,,10,,78,72
58800,note_on,,1,0,18,,,,,,,,,,,,,,,,15,,62,72
58800,note_on,,1,0,9,,,,,,,,,,,,,,,,5,,78,72
58800,note_on,,1,0,5,,,,,,,,,,,,,,,,1,,78,72
58800,note_on,,1,0,6,,,,,,,,,,,,,,,,2,,62,72
58800,note_on,,1,0,17,,,,,,,,,,,,,,,,13,,62,72
58859,note_on,,59,0,17,,,,,,,,,,,,,,,,13,,62,0
58859,note_on,,59,0,18,,,,,,,,,,,,,,,,15,,62,0
58859,note_on,,59,0,6,,,,,,,,,,,,,,,,2,,62,0
58859,note_on,,179,0,15,,,,,,,,,,,,,,,,11,,62,0
58859,note_on,,59,0,14,,,,,,,,,,,,,,,,10,,78,0
58859,note_on,,179,0,10,,,,,,,,,,,,,,,,6,,62,0
58859,note_on,,59,0,5,,,,,,,,,,,,,,,,1,,78,0
58859,note_on,,59,0,9,,,,,,,,,,,,,,,,5,,78,0
58860,note_on,,1,0,14,,,,,,,,,,,,,,,,10,,79,72
58860,note_on,,1,0,15,,,,,,,,,,,,,,,,11,,64,72
58860,note_on,,1,0,6,,,,,,,,,,,,,,,,2,,64,72
58860,note_on,,1,0,17,,,,,,,,,,,,,,,,13,,64,72
58860,note_on,,1,0,10,,,,,,,,,,,,,,,,6,,64,72
58860,note_on,,1,0,18,,,,,,,,,,,,,,,,15,,64,72
58860,note_on,,1,0,5,,,,,,,,,,,,,,,,1,,79,72
58860,note_on,,1,0,9,,,,,,,,,,,,,,,,5,,79,72
58919,note_on,,59,0,10,,,,,,,,,,,,,,,,6,,64,0
58919,note_on,,59,0,15,,,,,,,,,,,,,,,,11,,64,0
58919,note_on,,59,0,6,,,,,,,,,,,,,,,,2,,64,0
58919,note_on,,59,0,9,,,,,,,,,,,,,,,,5,,79,0
58919,note_on,,59,0,18,,,,,,,,,,,,,,,,15,,64,0
58919,note_on,,59,0,14,,,,,,,,,,,,,,,,10,,79,0
58919,note_on,,59,0,5,,,,,,,,,,,,,,,,1,,79,0
58919,note_on,,59,0,17,,,,,,,,,,,,,,,,13,,64,0
58920,note_on,,1,0,5,,,,,,,,,,,,,,,,1,,81,72
58920,note_on,,1,0,6,,,,,,,,,,,,,,,,2,,66,72
58920,note_on,,1,0,17,,,,,,,,,,,,,,,,13,,66,72
58920,note_on,,1,0,15,,,,,,,,,,,,,,,,11,,66,72
58920,note_on,,1,0,14,,,,,,,,,,,,,,,,10,,81,72
58920,note_on,,1,0,18,,,,,,,,,,,,,,,,15,,66,72
58920,note_on,,1,0,9,,,,,,,,,,,,,,,,5,,81,72
58920,note_on,,1,0,10,,,,,,,,,,,,,,,,6,,66,72
58979,note_on,,59,0,17,,,,,,,,,,,,,,,,13,,66,0
58979,note_on,,59,0,18,,,,,,,,,,,,,,,,15,,66,0
58979,note_on,,59,0,15,,,,,,,,,,,,,,,,11,,66,0
58979,note_on,,59,0,14,,,,,,,,,,,,,,,,10,,81,0
58979,note_on,,59,0,9,,,,,,,,,,,,,,,,5,,81,0
58979,note_on,,59,0,6,,,,,,,,,,,,,,,,2,,66,0
58979,note_on,,59,0,5,,,,,,,,,,,,,,,,1,,81,0
58979,note_on,,59,0,10,,,,,,,,,,,,,,,,6,,66,0
58980,note_on,,1,0,9,,,,,,,,,,,,,,,,5,,76,72
58980,note_on,,1,0,15,,,,,,,,,,,,,,,,11,,67,72
58980,note_on,,1,0,17,,,,,,,,,,,,,,,,13,,67,72
58980,note_on,,1,0,18,,,,,,,,,,,,,,,,15,,67,72
58980,note_on,,1,0,10,,,,,,,,,,,,,,,,6,,67,72
58980,note_on,,1,0,14,,,,,,,,,,,,,,,,10,,76,72
58980,note_on,,1,0,6,,,,,,,,,,,,,,,,2,,67,72
58980,note_on,,1,0,5,,,,,,,,,,,,,,,,1,,76,72
59039,note_on,,59,0,9,,,,,,,,,,,,,,,,5,,76,0
59039,note_on,,59,0,18,,,,,,,,,,,,,,,,15,,67,0
59039,note_on,,59,0,5,,,,,,,,,,,,,,,,1,,76,0
59039,note_on,,59,0,17,,,,,,,,,,,,,,,,13,,67,0
59039,note_on,,59,0,6,,,,,,,,,,,,,,,,2,,67,0
59039,note_on,,59,0,14,,,,,,,,,,,,,,,,10,,76,0
59039,note_on,,59,0,15,,,,,,,,,,,,,,,,11,,67,0
59039,note_on,,59,0,10,,,,,,,,,,,,,,,,6,,67,0
59040,note_on,,241,0,11,,,,,,,,,,,,,,,,7,,50,72
59040,note_on,,1,0,17,,,,,,,,,,,,,,,,13,,50,72
59040,note_on,,1,0,9,,,,,,,,,,,,,,,,5,,78,72
59040,note_on,,1,0,5,,,,,,,,,,,,,,,,1,,78,72
59040,note_on,,1,0,14,,,,,,,,,,,,,,,,10,,78,72
59040,note_on,,1,0,15,,,,,,,,,,,,,,,,11,,69,72
59040,note_on,,0,0,18,,,,,,,,,,,,,,,,15,,66,72
59040,note_on,,241,0,16,,,,,,,,,,,,,,,,12,,50,60
59040,note_on,,1,0,18,,,,,,,,,,,,,,,,15,,50,72
59040,note_on,,1,0,10,,,,,,,,,,,,,,,,6,,69,72
59040,note_on,,0,0,18,,,,,,,,,,,,,,,,15,,62,72
59040,note_on,,0,0,18,,,,,,,,,,,,,,,,15,,69,72
59099,note_on,,59,0,10,,,,,,,,,,,,,,,,6,,69,0
59099,note_on,,59,0,15,,,,,,,,,,,,,,,,11,,69,0
59100,note_on,,1,0,15,,,,,,,,,,,,,,,,11,,66,72
59100,note_on,,1,0,10,,,,,,,,,,,,,,,,6,,66,72
59159,note_on,,119,0,14,,,,,,,,,,,,,,,,10,,78,0
59159,note_on,,59,0,10,,,,,,,,,,,,,,,,6,,66,0
59159,note_on,,59,0,15,,,,,,,,,,,,,,,,11,,66,0
59159,note_on,,119,0,9,,,,,,,,,,,,,,,,5,,78,0
59159,note_on,,119,0,5,,,,,,,,,,,,,,,,1,,78,0
59159,note_on,,0,0,18,,,,,,,,,,,,,,,,15,,62,0
59159,note_on,,0,0,18,,,,,,,,,,,,,,,,15,,66,0
59159,note_on,,119,0,18,,,,,,,,,,,,,,,,15,,69,0
59160,note_on,,1,0,10,,,,,,,,,,,,,,,,6,,71,72
59160,note_on,,1,0,5,,,,,,,,,,,,,,,,1,,66,72
59160,note_on,,1,0,18,,,,,,,,,,,,,,,,15,,74,72
59160,note_on,,0,0,18,,,,,,,,,,,,,,,,15,,66,72
59160,note_on,,0,0,18,,,,,,,,,,,,,,,,15,,71,72
59160,note_on,,1,0,15,,,,,,,,,,,,,,,,11,,71,72
59160,note_on,,1,0,9,,,,,,,,,,,,,,,,5,,66,72
59219,note_on,,59,0,18,,,,,,,,,,,,,,,,15,,50,0
59219,note_on,,179,0,11,,,,,,,,,,,,,,,,7,,50,0
59219,note_on,,179,0,17,,,,,,,,,,,,,,,,13,,50,0
59219,note_on,,179,0,16,,,,,,,,,,,,,,,,12,,50,0
59220,note_on,,1,0,18,,,,,,,,,,,,,,,,15,,52,72
59220,note_on,,1,0,16,,,,,,,,,,,,,,,,12,,52,60
59220,note_on,,1,0,17,,,,,,,,,,,,,,,,13,,52,72
59220,note_on,,1,0,11,,,,,,,,,,,,,,,,7,,52,72
59279,note_on,,59,0,18,,,,,,,,,,,,,,,,15,,74,0
59279,note_on,,119,0,5,,,,,,,,,,,,,,,,1,,66,0
59279,note_on,,59,0,16,,,,,,,,,,,,,,,,12,,52,0
59279,note_on,,119,0,9,,,,,,,,,,,,,,,,5,,66,0
59279,note_on,,0,0,18,,,,,,,,,,,,,,,,15,,66,0
59279,note_on,,59,0,11,,,,,,,,,,,,,,,,7,,52,0
59279,note_on,,59,0,17,,,,,,,,,,,,,,,,13,,52,0
59279,note_on,,0,0,18,,,,,,,,,,,,,,,,15,,52,0
59280,note_on,,1,0,16,,,,,,,,,,,,,,,,12,,54,60
59280,note_on,,1,0,18,,,,,,,,,,,,,,,,15,,54,72
59280,note_on,,0,0,18,,,,,,,,,,,,,,,,15,,66,72
59280,note_on,,1,0,17,,,,,,,,,,,,,,,,13,,54,72
59280,note_on,,1,0,11,,,,,,,,,,,,,,,,7,,54,72
59280,note_on,,0,0,18,,,,,,,,,,,,,,,,15,,73,72
59280,note_on,,0,0,18,,,,,,,,,,,,,,,,15,,61,72
59339,note_on,,59,0,17,,,,,,,,,,,,,,,,13,,54,0
59339,note_on,,59,0,18,,,,,,,,,,,,,,,,15,,54,0
59339,note_on,,59,0,16,,,,,,,,,,,,,,,,12,,54,0
59339,note_on,,59,0,11,,,,,,,,,,,,,,,,7,,54,0
59340,note_on,,1,0,18,,,,,,,,,,,,,,,,15,,55,72
59340,note_on,,1,0,11,,,,,,,,,,,,,,,,7,,55,72
59340,note_on,,1,0,16,,,,,,,,,,,,,,,,12,,55,60
59340,note_on,,1,0,17,,,,,,,,,,,,,,,,13,,55,72
59399,note_on,,239,0,10,,,,,,,,,,,,,,,,6,,71,0
59399,note_on,,59,0,11,,,,,,,,,,,,,,,,7,,55,0
59399,note_on,,59,0,17,,,,,,,,,,,,,,,,13,,55,0
59399,note_on,,59,0,16,,,,,,,,,,,,,,,,12,,55,0
59399,note_on,,0,0,18,,,,,,,,,,,,,,,,15,,55,0
59399,note_on,,239,0,15,,,,,,,,,,,,,,,,11,,71,0
59399,note_on,,59,0,18,,,,,,,,,,,,,,,,15,,71,0
59399,note_on,,0,0,18,,,,,,,,,,,,,,,,15,,66,0
59399,note_on,,0,0,18,,,,,,,,,,,,,,,,15,,61,0
59400,note_on,,1,0,10,,,,,,,,,,,,,,,,6,,69,72
59400,note_on,,1,0,15,,,,,,,,,,,,,,,,11,,69,72
59400,note_on,,1,0,16,,,,,,,,,,,,,,,,12,,57,60
59400,note_on,,1,0,18,,,,,,,,,,,,,,,,15,,57,72
59400,note_on,,0,0,18,,,,,,,,,,,,,,,,15,,69,72
59400,note_on,,1,0,11,,,,,,,,,,,,,,,,7,,57,72
59400,note_on,,0,0,18,,,,,,,,,,,,,,,,15,,66,72
59400,note_on,,1,0,17,,,,,,,,,,,,,,,,13,,57,72
59459,note_on,,59,0,16,,,,,,,,,,,,,,,,12,,57,0
59459,note_on,,59,0,11,,,,,,,,,,,,,,,,7,,57,0
59459,note_on,,59,0,18,,,,,,,,,,,,,,,,15,,57,0
59459,note_on,,59,0,17,,,,,,,,,,,,,,,,13,,57,0
59460,note_on,,1,0,17,,,,,,,,,,,,,,,,13,,54,72
59460,note_on,,1,0,18,,,,,,,,,,,,,,,,15,,54,72
59460,note_on,,1,0,11,,,,,,,,,,,,,,,,7,,54,72
59460,note_on,,1,0,16,,,,,,,,,,,,,,,,12,,54,60
59519,note_on,,0,0,18,,,,,,,,,,,,,,,,15,,54,0
59519,note_on,,119,0,15,,,,,,,,,,,,,,,,11,,69,0
59519,note_on,,59,0,18,,,,,,,,,,,,,,,,15,,73,0
59519,note_on,,59,0,17,,,,,,,,,,,,,,,,13,,54,0
59519,note_on,,59,0,11,,,,,,,,,,,,,,,,7,,54,0
59519,note_on,,0,0,18,,,,,,,,,,,,,,,,15,,66,0
59519,note_on,,59,0,16,,,,,,,,,,,,,,,,12,,54,0
59519,note_on,,119,0,10,,,,,,,,,,,,,,,,6,,69,0
59520,note_on,,0,0,18,,,,,,,,,,,,,,,,15,,71,72
59520,note_on,,1,0,18,,,,,,,,,,,,,,,,15,,59,72
59520,note_on,,1,0,15,,,,,,,,,,,,,,,,11,,62,72
59520,note_on,,1,0,16,,,,,,,,,,,,,,,,12,,59,60
59520,note_on,,1,0,17,,,,,,,,,,,,,,,,13,,59,72
59520,note_on,,0,0,18,,,,,,,,,,,,,,,,15,,62,72
59520,note_on,,1,0,11,,,,,,,,,,,,,,,,7,,59,72
59520,note_on,,1,0,10,,,,,,,,,,,,,,,,6,,62,72
59639,note_on,,119,0,15,,,,,,,,,,,,,,,,11,,62,0
59639,note_on,,119,0,18,,,,,,,,,,,,,,,,15,,69,0
59639,note_on,,119,0,10,,,,,,,,,,,,,,,,6,,62,0
59640,note_on,,1,0,18,,,,,,,,,,,,,,,,15,,67,72
59640,note_on,,1,0,10,,,,,,,,,,,,,,,,6,,67,72
59640,note_on,,1,0,15,,,,,,,,,,,,,,,,11,,67,72
59699,note_on,,59,0,18,,,,,,,,,,,,,,,,15,,59,0
59699,note_on,,179,0,16,,,,,,,,,,,,,,,,12,,59,0
59699,note_on,,179,0,11,,,,,,,,,,,,,,,,7,,59,0
59699,note_on,,179,0,17,,,,,,,,,,,,,,,,13,,59,0
59700,note_on,,1,0,11,,,,,,,,,,,,,,,,7,,61,72
59700,note_on,,1,0,18,,,,,,,,,,,,,,,,15,,61,72
59700,note_on,,1,0,16,,,,,,,,,,,,,,,,12,,61,60
59700,note_on,,1,0,17,,,,,,,,,,,,,,,,13,,61,72
59729,note_on,,29,0,11,,,,,,,,,,,,,,,,7,,61,0
59729,note_on,,29,0,17,,,,,,,,,,,,,,,,13,,61,0
59729,note_on,,29,0,16,,,,,,,,,,,,,,,,12,,61,0
59729,note_on,,29,0,18,,,,,,,,,,,,,,,,15,,61,0
59730,note_on,,1,0,18,,,,,,,,,,,,,,,,15,,59,72
59730,note_on,,1,0,17,,,,,,,,,,,,,,,,13,,59,72
59730,note_on,,1,0,11,,,,,,,,,,,,,,,,7,,59,72
59730,note_on,,1,0,16,,,,,,,,,,,,,,,,12,,59,60
59759,note_on,,29,0,16,,,,,,,,,,,,,,,,12,,59,0
59759,note_on,,29,0,18,,,,,,,,,,,,,,,,15,,71,0
59759,note_on,,29,0,11,,,,,,,,,,,,,,,,7,,59,0
59759,note_on,,0,0,18,,,,,,,,,,,,,,,,15,,62,0
59759,note_on,,0,0,18,,,,,,,,,,,,,,,,15,,59,0
59759,note_on,,29,0,17,,,,,,,,,,,,,,,,13,,59,0
59760,note_on,,1,0,11,,,,,,,,,,,,,,,,7,,61,72
59760,note_on,,1,0,17,,,,,,,,,,,,,,,,13,,61,72
59760,note_on,,1,0,16,,,,,,,,,,,,,,,,12,,61,60
59760,note_on,,1,0,18,,,,,,,,,,,,,,,,15,,61,72
59760,note_on,,0,0,18,,,,,,,,,,,,,,,,15,,64,72
59760,note_on,,0,0,18,,,,,,,,,,,,,,,,15,,69,72
59819,note_on,,59,0,18,,,,,,,,,,,,,,,,15,,61,0
59819,note_on,,59,0,17,,,,,,,,,,,,,,,,13,,61,0
59819,note_on,,59,0,16,,,,,,,,,,,,,,,,12,,61,0
59819,note_on,,59,0,11,,,,,,,,,,,,,,,,7,,61,0
59820,note_on,,1,0,17,,,,,,,,,,,,,,,,13,,57,72
59820,note_on,,1,0,11,,,,,,,,,,,,,,,,7,,57,72
59820,note_on,,1,0,16,,,,,,,,,,,,,,,,12,,57,60
59820,note_on,,1,0,18,,,,,,,,,,,,,,,,15,,57,72
59879,note_on,,59,0,18,,,,,,,,,,,,,,,,15,,67,0
59879,note_on,,59,0,11,,,,,,,,,,,,,,,,7,,57,0
59879,note_on,,0,0,18,,,,,,,,,,,,,,,,15,,57,0
59879,note_on,,59,0,17,,,,,,,,,,,,,,,,13,,57,0
59879,note_on,,239,0,10,,,,,,,,,,,,,,,,6,,67,0
59879,note_on,,59,0,16,,,,,,,,,,,,,,,,12,,57,0
59879,note_on,,0,0,18,,,,,,,,,,,,,,,,15,,64,0
59879,note_on,,239,0,15,,,,,,,,,,,,,,,,11,,67,0
59880,note_on,,601,0,9,,,,,,,,,,,,,,,,5,,78,72
59880,note_on,,1,0,11,,,,,,,,,,,,,,,,7,,62,72
59880,note_on,,1,0,17,,,,,,,,,,,,,,,,13,,62,72
59880,note_on,,1,0,15,,,,,,,,,,,,,,,,11,,66,72
59880,note_on,,1,0,16,,,,,,,,,,,,,,,,12,,62,60
59880,note_on,,601,0,5,,,,,,,,,,,,,,,,1,,78,72
59880,note_on,,1,0,10,,,,,,,,,,,,,,,,6,,66,72
59880,note_on,,1,0,18,,,,,,,,,,,,,,,,15,,62,72
59880,note_on,,721,0,14,,,,,,,,,,,,,,,,10,,78,72
59880,note_on,,0,0,18,,,,,,,,,,,,,,,,15,,66,72
59999,note_on,,119,0,15,,,,,,,,,,,,,,,,11,,66,0
59999,note_on,,119,0,5,,,,,,,,,,,,,,,,1,,78,0
59999,note_on,,119,0,14,,,,,,,,,,,,,,,,10,,78,0
59999,note_on,,119,0,10,,,,,,,,,,,,,,,,6,,66,0
59999,note_on,,0,0,18,,,,,,,,,,,,,,,,15,,66,0
59999,note_on,,119,0,18,,,,,,,,,,,,,,,,15,,69,0
59999,note_on,,119,0,9,,,,,,,,,,,,,,,,5,,78,0
60000,note_on,,1,0,10,,,,,,,,,,,,,,,,6,,68,72
60000,note_on,,1,0,9,,,,,,,,,,,,,,,,5,,71,72
60000,note_on,,1,0,18,,,,,,,,,,,,,,,,15,,76,72
60000,note_on,,1,0,5,,,,,,,,,,,,,,,,1,,71,72
60000,note_on,,0,0,18,,,,,,,,,,,,,,,,15,,68,72
60000,note_on,,1,0,15,,,,,,,,,,,,,,,,11,,68,72
60000,note_on,,0,0,18,,,,,,,,,,,,,,,,15,,71,72
60000,note_on,,1,0,14,,,,,,,,,,,,,,,,10,,71,72
60119,note_on,,0,0,18,,,,,,,,,,,,,,,,15,,71,0
60119,note_on,,119,0,18,,,,,,,,,,,,,,,,15,,62,0
60119,note_on,,0,0,18,,,,,,,,,,,,,,,,15,,68,0
60119,note_on,,239,0,11,,,,,,,,,,,,,,,,7,,62,0
60119,note_on,,119,0,5,,,,,,,,,,,,,,,,1,,71,0
60119,note_on,,119,0,9,,,,,,,,,,,,,,,,5,,71,0
60119,note_on,,239,0,16,,,,,,,,,,,,,,,,12,,62,0
60119,note_on,,119,0,14,,,,,,,,,,,,,,,,10,,71,0
60119,note_on,,239,0,17,,,,,,,,,,,,,,,,13,,62,0
60120,note_on,,1,0,9,,,,,,,,,,,,,,,,5,,76,72
60120,note_on,,1081,0,6,,,,,,,,,,,,,,,,2,,61,72
60120,note_on,,1,0,16,,,,,,,,,,,,,,,,12,,61,60
60120,note_on,,1,0,11,,,,,,,,,,,,,,,,7,,61,72
60120,note_on,,0,0,18,,,,,,,,,,,,,,,,15,,73,72
60120,note_on,,0,0,18,,,,,,,,,,,,,,,,15,,64,72
60120,note_on,,1321,0,12,,,,,,,,,,,,,,,,8,,61,72
60120,note_on,,1,0,14,,,,,,,,,,,,,,,,10,,76,72
60120,note_on,,1,0,18,,,,,,,,,,,,,,,,15,,61,72
60120,note_on,,1,0,5,,,,,,,,,,,,,,,,1,,76,72
60120,note_on,,1,0,17,,,,,,,,,,,,,,,,13,,61,72
60179,note_on,,59,0,12,,,,,,,,,,,,,,,,8,,61,0
60179,note_on,,179,0,10,,,,,,,,,,,,,,,,6,,68,0
60179,note_on,,179,0,15,,,,,,,,,,,,,,,,11,,68,0
60180,note_on,,1,0,15,,,,,,,,,,,,,,,,11,,66,72
60180,note_on,,1,0,10,,,,,,,,,,,,,,,,6,,66,72
60209,note_on,,29,0,10,,,,,,,,,,,,,,,,6,,66,0
60209,note_on,,29,0,15,,,,,,,,,,,,,,,,11,,66,0
60210,note_on,,1,0,10,,,,,,,,,,,,,,,,6,,64,72
60210,note_on,,1,0,15,,,,,,,,,,,,,,,,11,,64,72
60239,note_on,,119,0,18,,,,,,,,,,,,,,,,15,,61,0
60239,note_on,,0,0,18,,,,,,,,,,,,,,,,15,,73,0
60239,note_on,,0,0,18,,,,,,,,,,,,,,,,15,,64,0
60239,note_on,,29,0,10,,,,,,,,,,,,,,,,6,,64,0
60239,note_on,,119,0,17,,,,,,,,,,,,,,,,13,,61,0
60239,note_on,,119,0,6,,,,,,,,,,,,,,,,2,,61,0
60239,note_on,,29,0,15,,,,,,,,,,,,,,,,11,,64,0
60240,note_on,,1,0,6,,,,,,,,,,,,,,,,2,,54,72
60240,note_on,,0,0,18,,,,,,,,,,,,,,,,15,,66,72
60240,note_on,,0,0,18,,,,,,,,,,,,,,,,15,,69,72
60240,note_on,,1,0,10,,,,,,,,,,,,,,,,6,,69,72
60240,note_on,,1,0,15,,,,,,,,,,,,,,,,11,,69,72
60240,note_on,,1,0,18,,,,,,,,,,,,,,,,15,,54,72
60240,note_on,,1,0,17,,,,,,,,,,,,,,,,13,,54,72
60240,note_on,,61,0,12,,,,,,,,,,,,,,,,8,,54,72
60299,note_on,,59,0,12,,,,,,,,,,,,,,,,8,,54,0
60359,note_on,,239,0,11,,,,,,,,,,,,,,,,7,,61,0
60359,note_on,,239,0,9,,,,,,,,,,,,,,,,5,,76,0
60359,note_on,,119,0,6,,,,,,,,,,,,,,,,2,,54,0
60359,note_on,,0,0,18,,,,,,,,,,,,,,,,15,,54,0
60359,note_on,,119,0,18,,,,,,,,,,,,,,,,15,,76,0
60359,note_on,,239,0,14,,,,,,,,,,,,,,,,10,,76,0
60359,note_on,,239,0,5,,,,,,,,,,,,,,,,1,,76,0
60359,note_on,,119,0,17,,,,,,,,,,,,,,,,13,,54,0
60359,note_on,,239,0,16,,,,,,,,,,,,,,,,12,,61,0
60360,note_on,,1,0,17,,,,,,,,,,,,,,,,13,,59,72
60360,note_on,,1,0,18,,,,,,,,,,,,,,,,15,,59,72
60360,note_on,,0,0,18,,,,,,,,,,,,,,,,15,,74,72
60360,note_on,,1,0,6,,,,,,,,,,,,,,,,2,,59,72
60360,note_on,,1,0,11,,,,,,,,,,,,,,,,7,,59,72
60360,note_on,,1,0,5,,,,,,,,,,,,,,,,1,,74,72
60360,note_on,,1,0,9,,,,,,,,,,,,,,,,5,,74,72
60360,note_on,,1,0,14,,,,,,,,,,,,,,,,10,,74,72
60360,note_on,,61,0,12,,,,,,,,,,,,,,,,8,,59,72
60360,note_on,,1,0,16,,,,,,,,,,,,,,,,12,,59,60
60419,note_on,,59,0,12,,,,,,,,,,,,,,,,8,,59,0
60419,note_on,,179,0,15,,,,,,,,,,,,,,,,11,,69,0
60419,note_on,,179,0,10,,,,,,,,,,,,,,,,6,,69,0
60420,note_on,,1,0,15,,,,,,,,,,,,,,,,11,,68,72
60420,note_on,,1,0,10,,,,,,,,,,,,,,,,6,,67,72
60449,note_on,,29,0,10,,,,,,,,,,,,,,,,6,,67,0
60449,note_on,,29,0,15,,,,,,,,,,,,,,,,11,,68,0
60450,note_on,,1,0,10,,,,,,,,,,,,,,,,6,,66,72
60450,note_on,,1,0,15,,,,,,,,,,,,,,,,11,,66,72
60479,note_on,,119,0,18,,,,,,,,,,,,,,,,15,,69,0
60479,note_on,,0,0,18,,,,,,,,,,,,,,,,15,,66,0
60479,note_on,,119,0,17,,,,,,,,,,,,,,,,13,,59,0
60479,note_on,,29,0,15,,,,,,,,,,,,,,,,11,,66,0
60479,note_on,,0,0,18,,,,,,,,,,,,,,,,15,,59,0
60479,note_on,,119,0,6,,,,,,,,,,,,,,,,2,,59,0
60479,note_on,,29,0,10,,,,,,,,,,,,,,,,6,,66,0
60480,note_on,,1,0,18,,,,,,,,,,,,,,,,15,,56,72
60480,note_on,,0,0,18,,,,,,,,,,,,,,,,15,,64,72
60480,note_on,,0,0,18,,,,,,,,,,,,,,,,15,,59,72
60480,note_on,,1,0,17,,,,,,,,,,,,,,,,13,,56,72
60480,note_on,,1,0,6,,,,,,,,,,,,,,,,2,,56,72
60480,note_on,,1,0,15,,,,,,,,,,,,,,,,11,,64,72
60480,note_on,,1,0,10,,,,,,,,,,,,,,,,6,,64,72
60480,note_on,,61,0,12,,,,,,,,,,,,,,,,8,,56,72
60480,note_on,,0,0,18,,,,,,,,,,,,,,,,15,,71,72
60599,note_on,,239,0,9,,,,,,,,,,,,,,,,5,,74,0
60599,note_on,,239,0,16,,,,,,,,,,,,,,,,12,,59,0
60599,note_on,,239,0,14,,,,,,,,,,,,,,,,10,,74,0
60599,note_on,,119,0,12,,,,,,,,,,,,,,,,8,,56,0
60599,note_on,,119,0,17,,,,,,,,,,,,,,,,13,,56,0
60599,note_on,,119,0,6,,,,,,,,,,,,,,,,2,,56,0
60599,note_on,,239,0,5,,,,,,,,,,,,,,,,1,,74,0
60599,note_on,,0,0,18,,,,,,,,,,,,,,,,15,,59,0
60599,note_on,,0,0,18,,,,,,,,,,,,,,,,15,,64,0
60599,note_on,,0,0,18,,,,,,,,,,,,,,,,15,,71,0
60599,note_on,,0,0,18,,,,,,,,,,,,,,,,15,,56,0
60599,note_on,,119,0,18,,,,,,,,,,,,,,,,15,,74,0
60599,note_on,,119,0,10,,,,,,,,,,,,,,,,6,,64,0
60599,note_on,,239,0,11,,,,,,,,,,,,,,,,7,,59,0
60600,note_on,,0,0,18,,,,,,,,,,,,,,,,15,,61,72
60600,note_on,,1,0,17,,,,,,,,,,,,,,,,13,,57,72
60600,note_on,,1,0,16,,,,,,,,,,,,,,,,12,,57,60
60600,note_on,,1,0,5,,,,,,,,,,,,,,,,1,,73,72
60600,note_on,,1,0,11,,,,,,,,,,,,,,,,7,,57,72
60600,note_on,,1,0,6,,,,,,,,,,,,,,,,2,,57,72
60600,note_on,,1,0,12,,,,,,,,,,,,,,,,8,,57,72
60600,note_on,,1,0,14,,,,,,,,,,,,,,,,10,,73,72
60600,note_on,,1,0,18,,,,,,,,,,,,,,,,15,,57,72
60600,note_on,,0,0,18,,,,,,,,,,,,,,,,15,,73,72
60600,note_on,,1,0,9,,,,,,,,,,,,,,,,5,,73,72
60600,note_on,,0,0,18,,,,,,,,,,,,,,,,15,,69,72
60600,note_on,,0,0,18,,,,,,,,,,,,,,,,15,,64,72
60600,note_on,,1,0,10,,,,,,,,,,,,,,,,6,,64,72
60719,note_on,,119,0,6,,,,,,,,,,,,,,,,2,,57,0
60719,note_on,,119,0,10,,,,,,,,,,,,,,,,6,,64,0
60719,note_on,,119,0,9,,,,,,,,,,,,,,,,5,,73,0
60719,note_on,,119,0,18,,,,,,,,,,,,,,,,15,,57,0
60719,note_on,,0,0,18,,,,,,,,,,,,,,,,15,,73,0
60719,note_on,,239,0,15,,,,,,,,,,,,,,,,11,,64,0
60719,note_on,,0,0,18,,,,,,,,,,,,,,,,15,,69,0
60719,note_on,,119,0,17,,,,,,,,,,,,,,,,13,,57,0
60719,note_on,,119,0,14,,,,,,,,,,,,,,,,10,,73,0
60719,note_on,,119,0,12,,,,,,,,,,,,,,,,8,,57,0
60719,note_on,,0,0,18,,,,,,,,,,,,,,,,15,,64,0
60719,note_on,,0,0,18,,,,,,,,,,,,,,,,15,,61,0
60719,note_on,,119,0,5,,,,,,,,,,,,,,,,1,,73,0
60720,note_on,,1,0,12,,,,,,,,,,,,,,,,8,,52,72
60720,note_on,,1,0,17,,,,,,,,,,,,,,,,13,,52,72
60720,note_on,,1,0,18,,,,,,,,,,,,,,,,15,,52,72
60720,note_on,,0,0,18,,,,,,,,,,,,,,,,15,,69,72
60720,note_on,,0,0,18,,,,,,,,,,,,,,,,15,,76,72
60720,note_on,,0,0,18,,,,,,,,,,,,,,,,15,,71,72
60720,note_on,,1,0,9,,,,,,,,,,,,,,,,5,,71,72
60720,note_on,,1,0,6,,,,,,,,,,,,,,,,2,,52,72
60720,note_on,,1,0,14,,,,,,,,,,,,,,,,10,,71,72
60720,note_on,,0,0,18,,,,,,,,,,,,,,,,15,,59,72
60720,note_on,,1,0,5,,,,,,,,,,,,,,,,1,,71,72
60839,note_on,,119,0,18,,,,,,,,,,,,,,,,15,,69,0
60839,note_on,,239,0,16,,,,,,,,,,,,,,,,12,,57,0
60839,note_on,,239,0,11,,,,,,,,,,,,,,,,7,,57,0
60840,note_on,,121,0,15,,,,,,,,,,,,,,,,11,,76,72
60840,note_on,,1,0,16,,,,,,,,,,,,,,,,12,,56,60
60840,note_on,,121,0,10,,,,,,,,,,,,,,,,6,,64,72
60840,note_on,,1,0,18,,,,,,,,,,,,,,,,15,,68,72
60840,note_on,,1,0,11,,,,,,,,,,,,,,,,7,,56,72
60899,note_on,,179,0,17,,,,,,,,,,,,,,,,13,,52,0
60899,note_on,,59,0,18,,,,,,,,,,,,,,,,15,,52,0
60899,note_on,,179,0,12,,,,,,,,,,,,,,,,8,,52,0
60899,note_on,,179,0,6,,,,,,,,,,,,,,,,2,,52,0
60900,note_on,,1,0,17,,,,,,,,,,,,,,,,13,,50,72
60900,note_on,,1,0,12,,,,,,,,,,,,,,,,8,,50,72
60900,note_on,,1,0,18,,,,,,,,,,,,,,,,15,,50,72
60900,note_on,,1,0,6,,,,,,,,,,,,,,,,2,,50,72
60959,note_on,,119,0,11,,,,,,,,,,,,,,,,7,,56,0
60959,note_on,,239,0,5,,,,,,,,,,,,,,,,1,,71,0
60959,note_on,,59,0,18,,,,,,,,,,,,,,,,15,,59,0
60959,note_on,,239,0,9,,,,,,,,,,,,,,,,5,,71,0
60959,note_on,,0,0,18,,,,,,,,,,,,,,,,15,,76,0
60959,note_on,,0,0,18,,,,,,,,,,,,,,,,15,,71,0
60959,note_on,,0,0,18,,,,,,,,,,,,,,,,15,,68,0
60959,note_on,,119,0,16,,,,,,,,,,,,,,,,12,,56,0
60959,note_on,,0,0,18,,,,,,,,,,,,,,,,15,,50,0
60959,note_on,,59,0,6,,,,,,,,,,,,,,,,2,,50,0
60959,note_on,,239,0,14,,,,,,,,,,,,,,,,10,,71,0
60959,note_on,,59,0,17,,,,,,,,,,,,,,,,13,,50,0
60959,note_on,,59,0,12,,,,,,,,,,,,,,,,8,,50,0
60960,note_on,,1,0,12,,,,,,,,,,,,,,,,8,,49,72
60960,note_on,,1,0,11,,,,,,,,,,,,,,,,7,,57,72
60960,note_on,,0,0,18,,,,,,,,,,,,,,,,15,,69,72
60960,note_on,,1,0,9,,,,,,,,,,,,,,,,5,,69,72
60960,note_on,,1,0,5,,,,,,,,,,,,,,,,1,,69,72
60960,note_on,,1,0,17,,,,,,,,,,,,,,,,13,,49,72
60960,note_on,,1,0,16,,,,,,,,,,,,,,,,12,,57,60
60960,note_on,,1,0,6,,,,,,,,,,,,,,,,2,,49,72
60960,note_on,,1,0,14,,,,,,,,,,,,,,,,10,,69,72
60960,note_on,,0,0,18,,,,,,,,,,,,,,,,15,,81,72
60960,note_on,,0,0,18,,,,,,,,,,,,,,,,15,,76,72
60960,note_on,,1,0,18,,,,,,,,,,,,,,,,15,,49,72
60960,note_on,,0,0,18,,,,,,,,,,,,,,,,15,,57,72
61019,note_on,,179,0,10,,,,,,,,,,,,,,,,6,,64,0
61019,note_on,,179,0,15,,,,,,,,,,,,,,,,11,,76,0
61019,note_on,,59,0,18,,,,,,,,,,,,,,,,15,,49,0
61019,note_on,,59,0,6,,,,,,,,,,,,,,,,2,,49,0
61019,note_on,,59,0,12,,,,,,,,,,,,,,,,8,,49,0
61019,note_on,,59,0,17,,,,,,,,,,,,,,,,13,,49,0
61020,note_on,,1,0,17,,,,,,,,,,,,,,,,13,,47,72
61020,note_on,,1,0,12,,,,,,,,,,,,,,,,8,,47,72
61020,note_on,,1,0,10,,,,,,,,,,,,,,,,6,,62,72
61020,note_on,,1,0,18,,,,,,,,,,,,,,,,15,,47,72
61020,note_on,,1,0,15,,,,,,,,,,,,,,,,11,,74,72
61020,note_on,,1,0,6,,,,,,,,,,,,,,,,2,,47,72
61079,note_on,,59,0,17,,,,,,,,,,,,,,,,13,,47,0
61079,note_on,,59,0,10,,,,,,,,,,,,,,,,6,,62,0
61079,note_on,,59,0,12,,,,,,,,,,,,,,,,8,,47,0
61079,note_on,,59,0,15,,,,,,,,,,,,,,,,11,,74,0
61079,note_on,,59,0,6,,,,,,,,,,,,,,,,2,,47,0
61079,note_on,,59,0,18,,,,,,,,,,,,,,,,15,,47,0
61080,note_on,,1,0,12,,,,,,,,,,,,,,,,8,,45,72
61080,note_on,,1,0,17,,,,,,,,,,,,,,,,13,,45,72
61080,note_on,,1,0,6,,,,,,,,,,,,,,,,2,,45,72
61080,note_on,,1,0,10,,,,,,,,,,,,,,,,6,,61,72
61080,note_on,,1,0,15,,,,,,,,,,,,,,,,11,,73,72
61080,note_on,,1,0,18,,,,,,,,,,,,,,,,15,,45,72
61139,note_on,,59,0,10,,,,,,,,,,,,,,,,6,,61,0
61139,note_on,,179,0,11,,,,,,,,,,,,,,,,7,,57,0
61139,note_on,,179,0,16,,,,,,,,,,,,,,,,12,,57,0
61139,note_on,,59,0,15,,,,,,,,,,,,,,,,11,,73,0
61140,note_on,,1,0,16,,,,,,,,,,,,,,,,12,,59,60
61140,note_on,,1,0,10,,,,,,,,,,,,,,,,6,,59,72
61140,note_on,,1,0,15,,,,,,,,,,,,,,,,11,,71,72
61140,note_on,,1,0,11,,,,,,,,,,,,,,,,7,,59,72
61199,note_on,,59,0,10,,,,,,,,,,,,,,,,6,,59,0
61199,note_on,,239,0,9,,,,,,,,,,,,,,,,5,,69,0
61199,note_on,,239,0,14,,,,,,,,,,,,,,,,10,,69,0
61199,note_on,,119,0,17,,,,,,,,,,,,,,,,13,,45,0
61199,note_on,,119,0,12,,,,,,,,,,,,,,,,8,,45,0
61199,note_on,,119,0,6,,,,,,,,,,,,,,,,2,,45,0
61199,note_on,,59,0,16,,,,,,,,,,,,,,,,12,,59,0
61199,note_on,,239,0,5,,,,,,,,,,,,,,,,1,,69,0
61199,note_on,,59,0,11,,,,,,,,,,,,,,,,7,,59,0
61199,note_on,,119,0,18,,,,,,,,,,,,,,,,15,,57,0
61199,note_on,,59,0,15,,,,,,,,,,,,,,,,11,,71,0
61199,note_on,,0,0,18,,,,,,,,,,,,,,,,15,,45,0
61199,note_on,,0,0,18,,,,,,,,,,,,,,,,15,,69,0
61199,note_on,,0,0,18,,,,,,,,,,,,,,,,15,,76,0
61199,note_on,,0,0,18,,,,,,,,,,,,,,,,15,,81,0
61200,note_on,,1,0,17,,,,,,,,,,,,,,,,13,,57,72
61200,note_on,,1,0,6,,,,,,,,,,,,,,,,2,,57,72
61200,note_on,,0,0,18,,,,,,,,,,,,,,,,15,,61,72
61200,note_on,,0,0,18,,,,,,,,,,,,,,,,15,,73,72
61200,note_on,,0,0,18,,,,,,,,,,,,,,,,15,,69,72
61200,note_on,,0,0,18,,,,,,,,,,,,,,,,15,,64,72
61200,note_on,,1,0,15,,,,,,,,,,,,,,,,11,,69,72
61200,note_on,,1,0,18,,,,,,,,,,,,,,,,15,,57,72
61200,note_on,,1,0,10,,,,,,,,,,,,,,,,6,,57,72
61200,note_on,,1,0,16,,,,,,,,,,,,,,,,12,,61,60
61200,note_on,,1,0,11,,,,,,,,,,,,,,,,7,,61,72
61200,note_on,,1,0,12,,,,,,,,,,,,,,,,8,,57,72
61259,note_on,,59,0,16,,,,,,,,,,,,,,,,12,,61,0
61259,note_on,,59,0,11,,,,,,,,,,,,,,,,7,,61,0
61260,note_on,,1,0,16,,,,,,,,,,,,,,,,12,,62,60
61260,note_on,,1,0,11,,,,,,,,,,,,,,,,7,,62,72
61319,note_on,,119,0,10,,,,,,,,,,,,,,,,6,,57,0
61319,note_on,,59,0,16,,,,,,,,,,,,,,,,12,,62,0
61319,note_on,,119,0,15,,,,,,,,,,,,,,,,11,,69,0
61319,note_on,,59,0,11,,,,,,,,,,,,,,,,7,,62,0
61320,note_on,,1,0,16,,,,,,,,,,,,,,,,12,,64,60
61320,note_on,,1,0,11,,,,,,,,,,,,,,,,7,,64,72
61379,note_on,,179,0,17,,,,,,,,,,,,,,,,13,,57,0
61379,note_on,,179,0,6,,,,,,,,,,,,,,,,2,,57,0
61379,note_on,,179,0,12,,,,,,,,,,,,,,,,8,,57,0
61379,note_on,,179,0,18,,,,,,,,,,,,,,,,15,,57,0
61380,note_on,,1,0,6,,,,,,,,,,,,,,,,2,,55,72
61380,note_on,,1,0,18,,,,,,,,,,,,,,,,15,,55,72
61380,note_on,,1,0,17,,,,,,,,,,,,,,,,13,,55,72
61380,note_on,,1,0,12,,,,,,,,,,,,,,,,8,,55,72
61439,note_on,,0,0,18,,,,,,,,,,,,,,,,15,,69,0
61439,note_on,,59,0,17,,,,,,,,,,,,,,,,13,,55,0
61439,note_on,,0,0,18,,,,,,,,,,,,,,,,15,,64,0
61439,note_on,,59,0,18,,,,,,,,,,,,,,,,15,,61,0
61439,note_on,,0,0,18,,,,,,,,,,,,,,,,15,,55,0
61439,note_on,,59,0,12,,,,,,,,,,,,,,,,8,,55,0
61439,note_on,,0,0,18,,,,,,,,,,,,,,,,15,,73,0
61439,note_on,,59,0,6,,,,,,,,,,,,,,,,2,,55,0
61440,note_on,,1,0,17,,,,,,,,,,,,,,,,13,,54,72
61440,note_on,,1,0,12,,,,,,,,,,,,,,,,8,,54,72
61440,note_on,,0,0,18,,,,,,,,,,,,,,,,15,,78,72
61440,note_on,,0,0,18,,,,,,,,,,,,,,,,15,,58,72
61440,note_on,,0,0,18,,,,,,,,,,,,,,,,15,,70,72
61440,note_on,,0,0,18,,,,,,,,,,,,,,,,15,,73,72
61440,note_on,,121,0,15,,,,,,,,,,,,,,,,11,,78,72
61440,note_on,,1,0,18,,,,,,,,,,,,,,,,15,,54,72
61440,note_on,,121,0,10,,,,,,,,,,,,,,,,6,,66,72
61440,note_on,,1,0,6,,,,,,,,,,,,,,,,2,,54,72
61559,note_on,,0,0,18,,,,,,,,,,,,,,,,15,,58,0
61559,note_on,,119,0,18,,,,,,,,,,,,,,,,15,,54,0
61559,note_on,,239,0,16,,,,,,,,,,,,,,,,12,,64,0
61559,note_on,,239,0,11,,,,,,,,,,,,,,,,7,,64,0
61559,note_on,,119,0,17,,,,,,,,,,,,,,,,13,,54,0
61559,note_on,,119,0,12,,,,,,,,,,,,,,,,8,,54,0
61559,note_on,,119,0,6,,,,,,,,,,,,,,,,2,,54,0
61560,note_on,,1,0,12,,,,,,,,,,,,,,,,8,,58,72
61560,note_on,,1,0,11,,,,,,,,,,,,,,,,7,,62,72
61560,note_on,,0,0,18,,,,,,,,,,,,,,,,15,,61,72
61560,note_on,,1,0,17,,,,,,,,,,,,,,,,13,,58,72
61560,note_on,,1,0,16,,,,,,,,,,,,,,,,12,,62,60
61560,note_on,,1,0,6,,,,,,,,,,,,,,,,2,,58,72
61560,note_on,,1,0,18,,,,,,,,,,,,,,,,15,,58,72
61619,note_on,,59,0,16,,,,,,,,,,,,,,,,12,,62,0
61619,note_on,,179,0,15,,,,,,,,,,,,,,,,11,,78,0
61619,note_on,,59,0,11,,,,,,,,,,,,,,,,7,,62,0
61619,note_on,,179,0,10,,,,,,,,,,,,,,,,6,,66,0
61620,note_on,,1,0,15,,,,,,,,,,,,,,,,11,,76,72
61620,note_on,,1,0,11,,,,,,,,,,,,,,,,7,,61,72
61620,note_on,,1,0,10,,,,,,,,,,,,,,,,6,,64,72
61620,note_on,,1,0,16,,,,,,,,,,,,,,,,12,,61,60
61679,note_on,,59,0,15,,,,,,,,,,,,,,,,11,,76,0
61679,note_on,,119,0,6,,,,,,,,,,,,,,,,2,,58,0
61679,note_on,,119,0,18,,,,,,,,,,,,,,,,15,,78,0
61679,note_on,,0,0,18,,,,,,,,,,,,,,,,15,,73,0
61679,note_on,,0,0,18,,,,,,,,,,,,,,,,15,,70,0
61679,note_on,,59,0,16,,,,,,,,,,,,,,,,12,,61,0
61679,note_on,,0,0,18,,,,,,,,,,,,,,,,15,,58,0
61679,note_on,,119,0,17,,,,,,,,,,,,,,,,13,,58,0
61679,note_on,,119,0,12,,,,,,,,,,,,,,,,8,,58,0
61679,note_on,,59,0,10,,,,,,,,,,,,,,,,6,,64,0
61679,note_on,,0,0,18,,,,,,,,,,,,,,,,15,,61,0
61679,note_on,,59,0,11,,,,,,,,,,,,,,,,7,,61,0
61680,note_on,,1,0,6,,,,,,,,,,,,,,,,2,,59,72
61680,note_on,,1,0,18,,,,,,,,,,,,,,,,15,,59,72
61680,note_on,,0,0,18,,,,,,,,,,,,,,,,15,,62,72
61680,note_on,,0,0,18,,,,,,,,,,,,,,,,15,,74,72
61680,note_on,,1,0,11,,,,,,,,,,,,,,,,7,,59,72
61680,note_on,,1,0,12,,,,,,,,,,,,,,,,8,,59,72
61680,note_on,,0,0,18,,,,,,,,,,,,,,,,15,,66,72
61680,note_on,,0,0,18,,,,,,,,,,,,,,,,15,,71,72
61680,note_on,,1,0,15,,,,,,,,,,,,,,,,11,,74,72
61680,note_on,,1,0,10,,,,,,,,,,,,,,,,6,,62,72
61680,note_on,,1,0,17,,,,,,,,,,,,,,,,13,,59,72
61680,note_on,,1,0,16,,,,,,,,,,,,,,,,12,,59,60
61739,note_on,,59,0,15,,,,,,,,,,,,,,,,11,,74,0
61739,note_on,,59,0,10,,,,,,,,,,,,,,,,6,,62,0
61739,note_on,,59,0,16,,,,,,,,,,,,,,,,12,,59,0
61740,note_on,,1,0,15,,,,,,,,,,,,,,,,11,,73,72
61740,note_on,,1,0,10,,,,,,,,,,,,,,,,6,,61,72
61740,note_on,,1,0,16,,,,,,,,,,,,,,,,12,,61,60
61799,note_on,,59,0,10,,,,,,,,,,,,,,,,6,,61,0
61799,note_on,,59,0,16,,,,,,,,,,,,,,,,12,,61,0
61799,note_on,,0,0,18,,,,,,,,,,,,,,,,15,,74,0
61799,note_on,,59,0,15,,,,,,,,,,,,,,,,11,,73,0
61799,note_on,,119,0,11,,,,,,,,,,,,,,,,7,,59,0
61799,note_on,,119,0,18,,,,,,,,,,,,,,,,15,,62,0
61800,note_on,,1,0,18,,,,,,,,,,,,,,,,15,,78,72
61800,note_on,,1,0,16,,,,,,,,,,,,,,,,12,,62,60
61800,note_on,,1,0,10,,,,,,,,,,,,,,,,6,,59,72
61800,note_on,,1,0,11,,,,,,,,,,,,,,,,7,,66,72
61800,note_on,,1,0,15,,,,,,,,,,,,,,,,11,,71,72
61859,note_on,,59,0,15,,,,,,,,,,,,,,,,11,,71,0
61859,note_on,,179,0,6,,,,,,,,,,,,,,,,2,,59,0
61859,note_on,,59,0,18,,,,,,,,,,,,,,,,15,,59,0
61859,note_on,,179,0,17,,,,,,,,,,,,,,,,13,,59,0
61859,note_on,,59,0,16,,,,,,,,,,,,,,,,12,,62,0
61859,note_on,,179,0,12,,,,,,,,,,,,,,,,8,,59,0
61860,note_on,,1,0,12,,,,,,,,,,,,,,,,8,,57,72
61860,note_on,,0,0,18,,,,,,,,,,,,,,,,15,,61,72
61860,note_on,,1,0,17,,,,,,,,,,,,,,,,13,,57,72
61860,note_on,,1,0,6,,,,,,,,,,,,,,,,2,,57,72
61860,note_on,,1,0,16,,,,,,,,,,,,,,,,12,,61,60
61860,note_on,,1,0,18,,,,,,,,,,,,,,,,15,,57,72
61860,note_on,,1,0,15,,,,,,,,,,,,,,,,11,,78,72
61919,note_on,,0,0,18,,,,,,,,,,,,,,,,15,,57,0
61919,note_on,,59,0,6,,,,,,,,,,,,,,,,2,,57,0
61919,note_on,,0,0,18,,,,,,,,,,,,,,,,15,,66,0
61919,note_on,,59,0,16,,,,,,,,,,,,,,,,12,,61,0
61919,note_on,,59,0,18,,,,,,,,,,,,,,,,15,,71,0
61919,note_on,,119,0,10,,,,,,,,,,,,,,,,6,,59,0
61919,note_on,,0,0,18,,,,,,,,,,,,,,,,15,,61,0
61919,note_on,,59,0,17,,,,,,,,,,,,,,,,13,,57,0
61919,note_on,,59,0,12,,,,,,,,,,,,,,,,8,,57,0
61920,note_on,,1,0,6,,,,,,,,,,,,,,,,2,,55,72
61920,note_on,,1,0,18,,,,,,,,,,,,,,,,15,,55,72
61920,note_on,,1,0,10,,,,,,,,,,,,,,,,6,,71,72
61920,note_on,,0,0,18,,,,,,,,,,,,,,,,15,,71,72
61920,note_on,,1,0,12,,,,,,,,,,,,,,,,8,,55,72
61920,note_on,,0,0,18,,,,,,,,,,,,,,,,15,,59,72
61920,note_on,,1,0,16,,,,,,,,,,,,,,,,12,,59,60
61920,note_on,,1,0,17,,,,,,,,,,,,,,,,13,,55,72
62039,note_on,,119,0,18,,,,,,,,,,,,,,,,15,,78,0
62039,note_on,,119,0,16,,,,,,,,,,,,,,,,12,,59,0
62039,note_on,,179,0,15,,,,,,,,,,,,,,,,11,,78,0
62039,note_on,,239,0,11,,,,,,,,,,,,,,,,7,,66,0
62040,note_on,,1,0,16,,,,,,,,,,,,,,,,12,,71,60
62040,note_on,,1,0,18,,,,,,,,,,,,,,,,15,,76,72
62040,note_on,,1,0,15,,,,,,,,,,,,,,,,11,,76,72
62040,note_on,,1,0,11,,,,,,,,,,,,,,,,7,,64,72
62159,note_on,,239,0,17,,,,,,,,,,,,,,,,13,,55,0
62159,note_on,,0,0,18,,,,,,,,,,,,,,,,15,,71,0
62159,note_on,,119,0,15,,,,,,,,,,,,,,,,11,,76,0
62159,note_on,,239,0,12,,,,,,,,,,,,,,,,8,,55,0
62159,note_on,,239,0,6,,,,,,,,,,,,,,,,2,,55,0
62159,note_on,,0,0,18,,,,,,,,,,,,,,,,15,,76,0
62159,note_on,,119,0,18,,,,,,,,,,,,,,,,15,,55,0
62159,note_on,,119,0,11,,,,,,,,,,,,,,,,7,,64,0
62160,note_on,,961,0,14,,,,,,,,,,,,,,,,10,,78,72
62160,note_on,,0,0,18,,,,,,,,,,,,,,,,15,,66,72
62160,note_on,,961,0,9,,,,,,,,,,,,,,,,5,,66,72
62160,note_on,,961,0,5,,,,,,,,,,,,,,,,1,,66,72
62160,note_on,,1,0,15,,,,,,,,,,,,,,,,11,,78,72
62160,note_on,,1,0,18,,,,,,,,,,,,,,,,15,,54,72
62160,note_on,,1,0,12,,,,,,,,,,,,,,,,8,,54,72
62160,note_on,,1,0,6,,,,,,,,,,,,,,,,2,,54,72
62160,note_on,,0,0,18,,,,,,,,,,,,,,,,15,,78,72
62160,note_on,,1,0,17,,,,,,,,,,,,,,,,13,,54,72
62160,note_on,,1,0,11,,,,,,,,,,,,,,,,7,,66,72
62160,note_on,,0,0,18,,,,,,,,,,,,,,,,15,,73,72
62279,note_on,,239,0,16,,,,,,,,,,,,,,,,12,,71,0
62279,note_on,,119,0,11,,,,,,,,,,,,,,,,7,,66,0
62279,note_on,,359,0,10,,,,,,,,,,,,,,,,6,,71,0
62279,note_on,,119,0,18,,,,,,,,,,,,,,,,15,,59,0
62279,note_on,,119,0,12,,,,,,,,,,,,,,,,8,,54,0
62279,note_on,,119,0,15,,,,,,,,,,,,,,,,11,,78,0
62280,note_on,,1,0,18,,,,,,,,,,,,,,,,15,,58,72
62280,note_on,,1,0,11,,,,,,,,,,,,,,,,7,,61,72
62280,note_on,,1,0,15,,,,,,,,,,,,,,,,11,,73,72
62280,note_on,,1,0,16,,,,,,,,,,,,,,,,12,,70,60
62280,note_on,,1,0,10,,,,,,,,,,,,,,,,6,,70,72
62339,note_on,,179,0,9,,,,,,,,,,,,,,,,5,,66,0
62339,note_on,,179,0,5,,,,,,,,,,,,,,,,1,,66,0
62339,note_on,,179,0,14,,,,,,,,,,,,,,,,10,,78,0
62340,note_on,,1,0,5,,,,,,,,,,,,,,,,1,,68,72
62340,note_on,,1,0,14,,,,,,,,,,,,,,,,10,,80,72
62340,note_on,,1,0,9,,,,,,,,,,,,,,,,5,,68,72
62399,note_on,,0,0,18,,,,,,,,,,,,,,,,15,,78,0
62399,note_on,,0,0,18,,,,,,,,,,,,,,,,15,,73,0
62399,note_on,,119,0,18,,,,,,,,,,,,,,,,15,,54,0
62399,note_on,,119,0,10,,,,,,,,,,,,,,,,6,,70,0
62399,note_on,,59,0,5,,,,,,,,,,,,,,,,1,,68,0
62399,note_on,,239,0,17,,,,,,,,,,,,,,,,13,,54,0
62399,note_on,,239,0,6,,,,,,,,,,,,,,,,2,,54,0
62399,note_on,,0,0,18,,,,,,,,,,,,,,,,15,,66,0
62399,note_on,,59,0,14,,,,,,,,,,,,,,,,10,,80,0
62399,note_on,,59,0,9,,,,,,,,,,,,,,,,5,,68,0
62400,note_on,,0,0,18,,,,,,,,,,,,,,,,15,,73,72
62400,note_on,,0,0,18,,,,,,,,,,,,,,,,15,,70,72
62400,note_on,,0,0,18,,,,,,,,,,,,,,,,15,,66,72
62400,note_on,,1,0,9,,,,,,,,,,,,,,,,5,,70,72
62400,note_on,,121,0,12,,,,,,,,,,,,,,,,8,,54,72
62400,note_on,,1,0,14,,,,,,,,,,,,,,,,10,,82,72
62400,note_on,,1,0,17,,,,,,,,,,,,,,,,13,,54,72
62400,note_on,,1,0,18,,,,,,,,,,,,,,,,15,,54,72
62400,note_on,,1,0,5,,,,,,,,,,,,,,,,1,,70,72
62400,note_on,,1,0,6,,,,,,,,,,,,,,,,2,,54,72
62400,note_on,,1,0,10,,,,,,,,,,,,,,,,6,,61,72
62459,note_on,,59,0,5,,,,,,,,,,,,,,,,1,,70,0
62459,note_on,,179,0,15,,,,,,,,,,,,,,,,11,,73,0
62459,note_on,,179,0,11,,,,,,,,,,,,,,,,7,,61,0
62459,note_on,,59,0,9,,,,,,,,,,,,,,,,5,,70,0
62459,note_on,,59,0,14,,,,,,,,,,,,,,,,10,,82,0
62460,note_on,,1,0,11,,,,,,,,,,,,,,,,7,,59,72
62460,note_on,,1,0,9,,,,,,,,,,,,,,,,5,,71,72
62460,note_on,,1,0,14,,,,,,,,,,,,,,,,10,,83,72
62460,note_on,,1,0,5,,,,,,,,,,,,,,,,1,,71,72
62460,note_on,,1,0,15,,,,,,,,,,,,,,,,11,,71,72
62519,note_on,,119,0,18,,,,,,,,,,,,,,,,15,,73,0
62519,note_on,,0,0,18,,,,,,,,,,,,,,,,15,,70,0
62519,note_on,,0,0,18,,,,,,,,,,,,,,,,15,,66,0
62519,note_on,,59,0,14,,,,,,,,,,,,,,,,10,,83,0
62519,note_on,,59,0,5,,,,,,,,,,,,,,,,1,,71,0
62519,note_on,,239,0,16,,,,,,,,,,,,,,,,12,,70,0
62519,note_on,,59,0,11,,,,,,,,,,,,,,,,7,,59,0
62519,note_on,,59,0,15,,,,,,,,,,,,,,,,11,,71,0
62519,note_on,,59,0,9,,,,,,,,,,,,,,,,5,,71,0
62520,note_on,,1,0,15,,,,,,,,,,,,,,,,11,,70,72
62520,note_on,,1,0,16,,,,,,,,,,,,,,,,12,,66,60
62520,note_on,,1,0,9,,,,,,,,,,,,,,,,5,,73,72
62520,note_on,,0,0,18,,,,,,,,,,,,,,,,15,,61,72
62520,note_on,,0,0,18,,,,,,,,,,,,,,,,15,,66,72
62520,note_on,,1,0,18,,,,,,,,,,,,,,,,15,,70,72
62520,note_on,,1,0,14,,,,,,,,,,,,,,,,10,,85,72
62520,note_on,,1,0,11,,,,,,,,,,,,,,,,7,,58,72
62520,note_on,,1,0,5,,,,,,,,,,,,,,,,1,,73,72
62579,note_on,,179,0,6,,,,,,,,,,,,,,,,2,,54,0
62579,note_on,,179,0,17,,,,,,,,,,,,,,,,13,,54,0
62579,note_on,,179,0,12,,,,,,,,,,,,,,,,8,,54,0
62579,note_on,,59,0,11,,,,,,,,,,,,,,,,7,,58,0
62579,note_on,,59,0,18,,,,,,,,,,,,,,,,15,,54,0
62579,note_on,,59,0,15,,,,,,,,,,,,,,,,11,,70,0
62580,note_on,,1,0,15,,,,,,,,,,,,,,,,11,,68,72
62580,note_on,,1,0,17,,,,,,,,,,,,,,,,13,,52,72
62580,note_on,,1,0,11,,,,,,,,,,,,,,,,7,,56,72
62580,note_on,,1,0,12,,,,,,,,,,,,,,,,8,,52,72
62580,note_on,,1,0,6,,,,,,,,,,,,,,,,2,,52,72
62580,note_on,,1,0,18,,,,,,,,,,,,,,,,15,,52,72
62639,note_on,,59,0,6,,,,,,,,,,,,,,,,2,,52,0
62639,note_on,,239,0,10,,,,,,,,,,,,,,,,6,,61,0
62639,note_on,,59,0,11,,,,,,,,,,,,,,,,7,,56,0
62639,note_on,,59,0,15,,,,,,,,,,,,,,,,11,,68,0
62639,note_on,,59,0,18,,,,,,,,,,,,,,,,15,,58,0
62639,note_on,,0,0,18,,,,,,,,,,,,,,,,15,,66,0
62639,note_on,,59,0,17,,,,,,,,,,,,,,,,13,,52,0
62639,note_on,,0,0,18,,,,,,,,,,,,,,,,15,,52,0
62639,note_on,,0,0,18,,,,,,,,,,,,,,,,15,,70,0
62639,note_on,,59,0,12,,,,,,,,,,,,,,,,8,,52,0
62640,note_on,,1,0,18,,,,,,,,,,,,,,,,15,,50,72
62640,note_on,,1,0,15,,,,,,,,,,,,,,,,11,,66,72
62640,note_on,,0,0,18,,,,,,,,,,,,,,,,15,,54,72
62640,note_on,,0,0,18,,,,,,,,,,,,,,,,15,,74,72
62640,note_on,,1,0,11,,,,,,,,,,,,,,,,7,,54,72
62640,note_on,,0,0,18,,,,,,,,,,,,,,,,15,,66,72
62640,note_on,,1,0,10,,,,,,,,,,,,,,,,6,,66,72
62640,note_on,,1,0,17,,,,,,,,,,,,,,,,13,,50,72
62640,note_on,,1,0,6,,,,,,,,,,,,,,,,2,,50,72
62640,note_on,,1,0,12,,,,,,,,,,,,,,,,8,,50,72
62759,note_on,,119,0,18,,,,,,,,,,,,,,,,15,,61,0
62759,note_on,,239,0,14,,,,,,,,,,,,,,,,10,,85,0
62759,note_on,,0,0,18,,,,,,,,,,,,,,,,15,,66,0
62759,note_on,,239,0,16,,,,,,,,,,,,,,,,12,,66,0
62759,note_on,,239,0,9,,,,,,,,,,,,,,,,5,,73,0
62759,note_on,,239,0,5,,,,,,,,,,,,,,,,1,,73,0
62760,note_on,,1,0,18,,,,,,,,,,,,,,,,15,,62,72
62760,note_on,,0,0,18,,,,,,,,,,,,,,,,15,,59,72
62760,note_on,,1,0,16,,,,,,,,,,,,,,,,12,,71,60
62760,note_on,,1,0,9,,,,,,,,,,,,,,,,5,,71,72
62760,note_on,,1,0,14,,,,,,,,,,,,,,,,10,,83,72
62760,note_on,,1,0,5,,,,,,,,,,,,,,,,1,,71,72
62819,note_on,,59,0,16,,,,,,,,,,,,,,,,12,,71,0
62819,note_on,,179,0,15,,,,,,,,,,,,,,,,11,,66,0
62820,note_on,,1,0,16,,,,,,,,,,,,,,,,12,,66,60
62820,note_on,,1,0,15,,,,,,,,,,,,,,,,11,,78,72
62879,note_on,,59,0,15,,,,,,,,,,,,,,,,11,,78,0
62879,note_on,,239,0,6,,,,,,,,,,,,,,,,2,,50,0
62879,note_on,,239,0,17,,,,,,,,,,,,,,,,13,,50,0
62879,note_on,,0,0,18,,,,,,,,,,,,,,,,15,,62,0
62879,note_on,,0,0,18,,,,,,,,,,,,,,,,15,,74,0
62879,note_on,,0,0,18,,,,,,,,,,,,,,,,15,,54,0
62879,note_on,,239,0,11,,,,,,,,,,,,,,,,7,,54,0
62879,note_on,,239,0,10,,,,,,,,,,,,,,,,6,,66,0
62879,note_on,,119,0,18,,,,,,,,,,,,,,,,15,,50,0
62879,note_on,,59,0,16,,,,,,,,,,,,,,,,12,,66,0
62879,note_on,,239,0,12,,,,,,,,,,,,,,,,8,,50,0
62880,note_on,,1,0,11,,,,,,,,,,,,,,,,7,,61,72
62880,note_on,,0,0,18,,,,,,,,,,,,,,,,15,,68,72
62880,note_on,,1,0,18,,,,,,,,,,,,,,,,15,,49,72
62880,note_on,,1,0,10,,,,,,,,,,,,,,,,6,,65,72
62880,note_on,,1,0,16,,,,,,,,,,,,,,,,12,,68,60
62880,note_on,,1,0,6,,,,,,,,,,,,,,,,2,,49,72
62880,note_on,,1,0,17,,,,,,,,,,,,,,,,13,,49,72
62880,note_on,,0,0,18,,,,,,,,,,,,,,,,15,,65,72
62880,note_on,,0,0,18,,,,,,,,,,,,,,,,15,,56,72
62880,note_on,,1,0,15,,,,,,,,,,,,,,,,11,,77,72
62880,note_on,,1,0,12,,,,,,,,,,,,,,,,8,,49,72
62999,note_on,,119,0,12,,,,,,,,,,,,,,,,8,,49,0
62999,note_on,,0,0,18,,,,,,,,,,,,,,,,15,,49,0
62999,note_on,,0,0,18,,,,,,,,,,,,,,,,15,,68,0
62999,note_on,,0,0,18,,,,,,,,,,,,,,,,15,,65,0
62999,note_on,,0,0,18,,,,,,,,,,,,,,,,15,,56,0
62999,note_on,,239,0,9,,,,,,,,,,,,,,,,5,,71,0
62999,note_on,,119,0,18,,,,,,,,,,,,,,,,15,,59,0
62999,note_on,,119,0,6,,,,,,,,,,,,,,,,2,,49,0
62999,note_on,,119,0,17,,,,,,,,,,,,,,,,13,,49,0
62999,note_on,,119,0,11,,,,,,,,,,,,,,,,7,,61,0
62999,note_on,,239,0,14,,,,,,,,,,,,,,,,10,,83,0
62999,note_on,,119,0,10,,,,,,,,,,,,,,,,6,,65,0
62999,note_on,,119,0,16,,,,,,,,,,,,,,,,12,,68,0
62999,note_on,,239,0,5,,,,,,,,,,,,,,,,1,,71,0
62999,note_on,,119,0,15,,,,,,,,,,,,,,,,11,,77,0
63000,note_on,,1,0,17,,,,,,,,,,,,,,,,13,,47,72
63000,note_on,,1,0,14,,,,,,,,,,,,,,,,10,,81,72
63000,note_on,,1,0,6,,,,,,,,,,,,,,,,2,,47,72
63000,note_on,,0,0,18,,,,,,,,,,,,,,,,15,,62,72
63000,note_on,,1,0,18,,,,,,,,,,,,,,,,15,,47,72
63000,note_on,,0,0,18,,,,,,,,,,,,,,,,15,,66,72
63000,note_on,,0,0,18,,,,,,,,,,,,,,,,15,,69,72
63000,note_on,,1,0,5,,,,,,,,,,,,,,,,1,,69,72
63000,note_on,,1,0,15,,,,,,,,,,,,,,,,11,,78,72
63000,note_on,,0,0,18,,,,,,,,,,,,,,,,15,,50,72
63000,note_on,,1,0,10,,,,,,,,,,,,,,,,6,,66,72
63000,note_on,,1,0,9,,,,,,,,,,,,,,,,5,,69,72
63119,note_on,,0,0,18,,,,,,,,,,,,,,,,15,,62,0
63119,note_on,,0,0,18,,,,,,,,,,,,,,,,15,,69,0
63119,note_on,,119,0,5,,,,,,,,,,,,,,,,1,,69,0
63119,note_on,,119,0,14,,,,,,,,,,,,,,,,10,,81,0
63119,note_on,,119,0,6,,,,,,,,,,,,,,,,2,,47,0
63119,note_on,,119,0,9,,,,,,,,,,,,,,,,5,,69,0
63119,note_on,,119,0,18,,,,,,,,,,,,,,,,15,,47,0
63119,note_on,,0,0,18,,,,,,,,,,,,,,,,15,,50,0
63119,note_on,,119,0,17,,,,,,,,,,,,,,,,13,,47,0
63120,note_on,,1,0,5,,,,,,,,,,,,,,,,1,,68,72
63120,note_on,,0,0,18,,,,,,,,,,,,,,,,15,,68,72
63120,note_on,,1,0,18,,,,,,,,,,,,,,,,15,,49,72
63120,note_on,,1,0,17,,,,,,,,,,,,,,,,13,,49,72
63120,note_on,,0,0,18,,,,,,,,,,,,,,,,15,,55,72
63120,note_on,,121,0,16,,,,,,,,,,,,,,,,12,,61,60
63120,note_on,,1,0,9,,,,,,,,,,,,,,,,5,,68,72
63120,note_on,,1,0,6,,,,,,,,,,,,,,,,2,,49,72
63120,note_on,,1,0,14,,,,,,,,,,,,,,,,10,,80,72
63120,note_on,,121,0,12,,,,,,,,,,,,,,,,8,,61,72
63239,note_on,,119,0,18,,,,,,,,,,,,,,,,15,,66,0
63239,note_on,,239,0,10,,,,,,,,,,,,,,,,6,,66,0
63239,note_on,,239,0,15,,,,,,,,,,,,,,,,11,,78,0
63240,note_on,,1,0,18,,,,,,,,,,,,,,,,15,,61,72
63240,note_on,,0,0,18,,,,,,,,,,,,,,,,15,,65,72
63240,note_on,,1,0,15,,,,,,,,,,,,,,,,11,,77,72
63240,note_on,,1,0,10,,,,,,,,,,,,,,,,6,,64,72
63299,note_on,,179,0,16,,,,,,,,,,,,,,,,12,,61,0
63299,note_on,,179,0,12,,,,,,,,,,,,,,,,8,,61,0
63300,note_on,,1,0,16,,,,,,,,,,,,,,,,12,,59,60
63300,note_on,,1,0,12,,,,,,,,,,,,,,,,8,,59,72
63359,note_on,,0,0,18,,,,,,,,,,,,,,,,15,,68,0
63359,note_on,,59,0,12,,,,,,,,,,,,,,,,8,,59,0
63359,note_on,,239,0,17,,,,,,,,,,,,,,,,13,,49,0
63359,note_on,,59,0,16,,,,,,,,,,,,,,,,12,,59,0
63359,note_on,,119,0,15,,,,,,,,,,,,,,,,11,,77,0
63359,note_on,,0,0,18,,,,,,,,,,,,,,,,15,,61,0
63359,note_on,,239,0,14,,,,,,,,,,,,,,,,10,,80,0
63359,note_on,,119,0,10,,,,,,,,,,,,,,,,6,,64,0
63359,note_on,,239,0,9,,,,,,,,,,,,,,,,5,,68,0
63359,note_on,,119,0,18,,,,,,,,,,,,,,,,15,,49,0
63359,note_on,,239,0,6,,,,,,,,,,,,,,,,2,,49,0
63359,note_on,,0,0,18,,,,,,,,,,,,,,,,15,,55,0
63359,note_on,,0,0,18,,,,,,,,,,,,,,,,15,,65,0
63359,note_on,,239,0,5,,,,,,,,,,,,,,,,1,,68,0
63360,note_on,,1,0,9,,,,,,,,,,,,,,,,5,,66,72
63360,note_on,,1,0,18,,,,,,,,,,,,,,,,15,,42,72
63360,note_on,,1,0,6,,,,,,,,,,,,,,,,2,,42,72
63360,note_on,,1,0,15,,,,,,,,,,,,,,,,11,,78,72
63360,note_on,,1,0,10,,,,,,,,,,,,,,,,6,,66,72
63360,note_on,,0,0,18,,,,,,,,,,,,,,,,15,,70,72
63360,note_on,,1,0,16,,,,,,,,,,,,,,,,12,,58,60
63360,note_on,,1,0,17,,,,,,,,,,,,,,,,13,,42,72
63360,note_on,,1,0,12,,,,,,,,,,,,,,,,8,,58,72
63360,note_on,,361,0,11,,,,,,,,,,,,,,,,7,,66,72
63360,note_on,,1,0,14,,,,,,,,,,,,,,,,10,,78,72
63360,note_on,,1,0,5,,,,,,,,,,,,,,,,1,,66,72
63360,note_on,,0,0,18,,,,,,,,,,,,,,,,15,,54,72
63360,note_on,,0,0,18,,,,,,,,,,,,,,,,15,,61,72
63360,note_on,,0,0,18,,,,,,,,,,,,,,,,15,,66,72
63419,note_on,,59,0,16,,,,,,,,,,,,,,,,12,,58,0
63419,note_on,,59,0,12,,,,,,,,,,,,,,,,8,,58,0
63420,note_on,,1,0,16,,,,,,,,,,,,,,,,12,,56,60
63420,note_on,,1,0,12,,,,,,,,,,,,,,,,8,,56,72
63479,note_on,,119,0,17,,,,,,,,,,,,,,,,13,,42,0
63479,note_on,,119,0,6,,,,,,,,,,,,,,,,2,,42,0
63479,note_on,,59,0,16,,,,,,,,,,,,,,,,12,,56,0
63479,note_on,,59,0,12,,,,,,,,,,,,,,,,8,,56,0
63479,note_on,,0,0,18,,,,,,,,,,,,,,,,15,,54,0
63479,note_on,,119,0,18,,,,,,,,,,,,,,,,15,,42,0
63479,note_on,,119,0,15,,,,,,,,,,,,,,,,11,,78,0
63480,note_on,,1,0,17,,,,,,,,,,,,,,,,13,,54,72
63480,note_on,,1,0,16,,,,,,,,,,,,,,,,12,,54,60
63480,note_on,,1,0,12,,,,,,,,,,,,,,,,8,,54,72
63480,note_on,,1,0,18,,,,,,,,,,,,,,,,15,,54,72
63480,note_on,,1,0,6,,,,,,,,,,,,,,,,2,,54,72
63539,note_on,,179,0,14,,,,,,,,,,,,,,,,10,,78,0
63539,note_on,,179,0,11,,,,,,,,,,,,,,,,7,,66,0
63540,note_on,,1,0,14,,,,,,,,,,,,,,,,10,,76,72
63540,note_on,,1,0,11,,,,,,,,,,,,,,,,7,,64,72
63599,note_on,,239,0,9,,,,,,,,,,,,,,,,5,,66,0
63599,note_on,,119,0,12,,,,,,,,,,,,,,,,8,,54,0
63599,note_on,,59,0,11,,,,,,,,,,,,,,,,7,,64,0
63599,note_on,,239,0,5,,,,,,,,,,,,,,,,1,,66,0
63599,note_on,,119,0,17,,,,,,,,,,,,,,,,13,,54,0
63599,note_on,,0,0,18,,,,,,,,,,,,,,,,15,,54,0
63599,note_on,,119,0,6,,,,,,,,,,,,,,,,2,,54,0
63599,note_on,,59,0,14,,,,,,,,,,,,,,,,10,,76,0
63599,note_on,,0,0,18,,,,,,,,,,,,,,,,15,,61,0
63599,note_on,,239,0,10,,,,,,,,,,,,,,,,6,,66,0
63599,note_on,,119,0,16,,,,,,,,,,,,,,,,12,,54,0
63599,note_on,,119,0,18,,,,,,,,,,,,,,,,15,,70,0
63599,note_on,,0,0,18,,,,,,,,,,,,,,,,15,,66,0
63600,note_on,,1,0,11,,,,,,,,,,,,,,,,7,,63,72
63600,note_on,,0,0,18,,,,,,,,,,,,,,,,15,,71,72
63600,note_on,,1,0,6,,,,,,,,,,,,,,,,2,,59,72
63600,note_on,,1,0,12,,,,,,,,,,,,,,,,8,,59,72
63600,note_on,,1,0,18,,,,,,,,,,,,,,,,15,,59,72
63600,note_on,,1,0,17,,,,,,,,,,,,,,,,13,,59,72
63600,note_on,,0,0,18,,,,,,,,,,,,,,,,15,,66,72
63600,note_on,,0,0,18,,,,,,,,,,,,,,,,15,,63,72
63600,note_on,,1,0,14,,,,,,,,,,,,,,,,10,,75,72
63659,note_on,,59,0,14,,,,,,,,,,,,,,,,10,,75,0
63659,note_on,,59,0,11,,,,,,,,,,,,,,,,7,,63,0
63660,note_on,,1,0,11,,,,,,,,,,,,,,,,7,,61,72
63660,note_on,,1,0,14,,,,,,,,,,,,,,,,10,,73,72
63719,note_on,,59,0,11,,,,,,,,,,,,,,,,7,,61,0
63719,note_on,,59,0,14,,,,,,,,,,,,,,,,10,,73,0
63720,note_on,,1,0,14,,,,,,,,,,,,,,,,10,,71,72
63720,note_on,,1,0,11,,,,,,,,,,,,,,,,7,,59,72
63779,note_on,,179,0,17,,,,,,,,,,,,,,,,13,,59,0
63779,note_on,,179,0,6,,,,,,,,,,,,,,,,2,,59,0
63779,note_on,,179,0,12,,,,,,,,,,,,,,,,8,,59,0
63780,note_on,,1,0,17,,,,,,,,,,,,,,,,13,,57,72
63780,note_on,,1,0,12,,,,,,,,,,,,,,,,8,,57,72
63780,note_on,,1,0,6,,,,,,,,,,,,,,,,2,,57,72
63780,note_on,,180,0,18,,,,,,,,,,,,,,,,15,,57,72
63839,note_on,,119,0,11,,,,,,,,,,,,,,,,7,,59,0
63839,note_on,,59,0,18,,,,,,,,,,,,,,,,15,,59,0
63839,note_on,,0,0,18,,,,,,,,,,,,,,,,15,,71,0
63839,note_on,,0,0,18,,,,,,,,,,,,,,,,15,,66,0
63839,note_on,,59,0,6,,,,,,,,,,,,,,,,2,,57,0
63839,note_on,,59,0,17,,,,,,,,,,,,,,,,13,,57,0
63839,note_on,,0,0,18,,,,,,,,,,,,,,,,15,,63,0
63839,note_on,,0,0,18,,,,,,,,,,,,,,,,15,,57,0
63839,note_on,,59,0,12,,,,,,,,,,,,,,,,8,,57,0
63840,note_on,,1,0,12,,,,,,,,,,,,,,,,8,,56,72
63840,note_on,,1,0,11,,,,,,,,,,,,,,,,7,,64,72
63840,note_on,,1,0,18,,,,,,,,,,,,,,,,15,,56,72
63840,note_on,,0,0,18,,,,,,,,,,,,,,,,15,,59,72
63840,note_on,,0,0,18,,,,,,,,,,,,,,,,15,,71,72
63840,note_on,,0,0,18,,,,,,,,,,,,,,,,15,,64,72
63840,note_on,,1,0,17,,,,,,,,,,,,,,,,13,,56,72
63840,note_on,,241,0,16,,,,,,,,,,,,,,,,12,,64,60
63840,note_on,,361,0,15,,,,,,,,,,,,,,,,11,,64,72
63840,note_on,,0,0,18,,,,,,,,,,,,,,,,15,,76,72
63840,note_on,,1,0,6,,,,,,,,,,,,,,,,2,,56,72
63899,note_on,,59,0,18,,,,,,,,,,,,,,,,15,,56,0
63899,note_on,,179,0,14,,,,,,,,,,,,,,,,10,,71,0
63899,note_on,,59,0,6,,,,,,,,,,,,,,,,2,,56,0
63899,note_on,,59,0,17,,,,,,,,,,,,,,,,13,,56,0
63899,note_on,,59,0,12,,,,,,,,,,,,,,,,8,,56,0
63900,note_on,,1,0,14,,,,,,,,,,,,,,,,10,,69,72
63900,note_on,,1,0,6,,,,,,,,,,,,,,,,2,,54,72
63900,note_on,,1,0,12,,,,,,,,,,,,,,,,8,,54,72
63900,note_on,,1,0,18,,,,,,,,,,,,,,,,15,,54,72
63900,note_on,,1,0,17,,,,,,,,,,,,,,,,13,,54,72
63959,note_on,,59,0,17,,,,,,,,,,,,,,,,13,,54,0
63959,note_on,,59,0,18,,,,,,,,,,,,,,,,15,,54,0
63959,note_on,,59,0,6,,,,,,,,,,,,,,,,2,,54,0
63959,note_on,,59,0,12,,,,,,,,,,,,,,,,8,,54,0
63959,note_on,,59,0,14,,,,,,,,,,,,,,,,10,,69,0
63960,note_on,,1,0,6,,,,,,,,,,,,,,,,2,,52,72
63960,note_on,,1,0,17,,,,,,,,,,,,,,,,13,,52,72
63960,note_on,,1,0,14,,,,,,,,,,,,,,,,10,,68,72
63960,note_on,,1,0,18,,,,,,,,,,,,,,,,15,,52,72
63960,note_on,,1,0,12,,,,,,,,,,,,,,,,8,,52,72
64019,note_on,,59,0,14,,,,,,,,,,,,,,,,10,,68,0
64019,note_on,,179,0,15,,,,,,,,,,,,,,,,11,,64,0
64019,note_on,,179,0,11,,,,,,,,,,,,,,,,7,,64,0
64019,note_on,,179,0,16,,,,,,,,,,,,,,,,12,,64,0
64020,note_on,,1,0,15,,,,,,,,,,,,,,,,11,,62,72
64020,note_on,,1,0,16,,,,,,,,,,,,,,,,12,,62,60
64020,note_on,,1,0,14,,,,,,,,,,,,,,,,10,,66,72
64020,note_on,,1,0,11,,,,,,,,,,,,,,,,7,,62,72
64079,note_on,,0,0,18,,,,,,,,,,,,,,,,15,,76,0
64079,note_on,,119,0,17,,,,,,,,,,,,,,,,13,,52,0
64079,note_on,,0,0,18,,,,,,,,,,,,,,,,15,,52,0
64079,note_on,,0,0,18,,,,,,,,,,,,,,,,15,,64,0
64079,note_on,,119,0,6,,,,,,,,,,,,,,,,2,,52,0
64079,note_on,,0,0,18,,,,,,,,,,,,,,,,15,,71,0
64079,note_on,,119,0,12,,,,,,,,,,,,,,,,8,,52,0
64079,note_on,,59,0,16,,,,,,,,,,,,,,,,12,,62,0
64079,note_on,,119,0,18,,,,,,,,,,,,,,,,15,,59,0
64079,note_on,,59,0,14,,,,,,,,,,,,,,,,10,,66,0
64079,note_on,,59,0,11,,,,,,,,,,,,,,,,7,,62,0
64079,note_on,,59,0,15,,,,,,,,,,,,,,,,11,,62,0
64080,note_on,,1,0,17,,,,,,,,,,,,,,,,13,,57,72
64080,note_on,,1,0,15,,,,,,,,,,,,,,,,11,,61,72
64080,note_on,,1,0,16,,,,,,,,,,,,,,,,12,,61,60
64080,note_on,,1,0,12,,,,,,,,,,,,,,,,8,,57,72
64080,note_on,,0,0,18,,,,,,,,,,,,,,,,15,,69,72
64080,note_on,,0,0,18,,,,,,,,,,,,,,,,15,,73,72
64080,note_on,,0,0,18,,,,,,,,,,,,,,,,15,,64,72
64080,note_on,,1,0,14,,,,,,,,,,,,,,,,10,,64,72
64080,note_on,,1,0,6,,,,,,,,,,,,,,,,2,,57,72
64080,note_on,,0,0,18,,,,,,,,,,,,,,,,15,,61,72
64080,note_on,,1,0,18,,,,,,,,,,,,,,,,15,,57,72
64080,note_on,,1,0,11,,,,,,,,,,,,,,,,7,,61,72
64139,note_on,,59,0,14,,,,,,,,,,,,,,,,10,,64,0
64139,note_on,,59,0,15,,,,,,,,,,,,,,,,11,,61,0
64139,note_on,,59,0,16,,,,,,,,,,,,,,,,12,,61,0
64139,note_on,,59,0,11,,,,,,,,,,,,,,,,7,,61,0
64140,note_on,,1,0,15,,,,,,,,,,,,,,,,11,,59,72
64140,note_on,,1,0,16,,,,,,,,,,,,,,,,12,,59,60
64140,note_on,,1,0,11,,,,,,,,,,,,,,,,7,,59,72
64140,note_on,,1,0,14,,,,,,,,,,,,,,,,10,,62,72
64199,note_on,,59,0,15,,,,,,,,,,,,,,,,11,,59,0
64199,note_on,,59,0,11,,,,,,,,,,,,,,,,7,,59,0
64199,note_on,,59,0,14,,,,,,,,,,,,,,,,10,,62,0
64199,note_on,,59,0,16,,,,,,,,,,,,,,,,12,,59,0
64200,note_on,,1,0,11,,,,,,,,,,,,,,,,7,,57,72
64200,note_on,,1,0,15,,,,,,,,,,,,,,,,11,,57,72
64200,note_on,,1,0,14,,,,,,,,,,,,,,,,10,,61,72
64200,note_on,,1,0,16,,,,,,,,,,,,,,,,12,,57,60
64259,note_on,,179,0,12,,,,,,,,,,,,,,,,8,,57,0
64259,note_on,,179,0,6,,,,,,,,,,,,,,,,2,,57,0
64259,note_on,,59,0,14,,,,,,,,,,,,,,,,10,,61,0
64259,note_on,,179,0,17,,,,,,,,,,,,,,,,13,,57,0
64259,note_on,,179,0,18,,,,,,,,,,,,,,,,15,,57,0
64260,note_on,,1,0,6,,,,,,,,,,,,,,,,2,,55,72
64260,note_on,,1,0,18,,,,,,,,,,,,,,,,15,,55,72
64260,note_on,,1,0,14,,,,,,,,,,,,,,,,10,,59,72
64260,note_on,,1,0,17,,,,,,,,,,,,,,,,13,,55,72
64260,note_on,,1,0,12,,,,,,,,,,,,,,,,8,,55,72
64319,note_on,,59,0,14,,,,,,,,,,,,,,,,10,,59,0
64319,note_on,,0,0,18,,,,,,,,,,,,,,,,15,,69,0
64319,note_on,,0,0,18,,,,,,,,,,,,,,,,15,,73,0
64319,note_on,,59,0,18,,,,,,,,,,,,,,,,15,,61,0
64319,note_on,,0,0,18,,,,,,,,,,,,,,,,15,,55,0
64319,note_on,,119,0,16,,,,,,,,,,,,,,,,12,,57,0
64319,note_on,,59,0,17,,,,,,,,,,,,,,,,13,,55,0
64319,note_on,,59,0,12,,,,,,,,,,,,,,,,8,,55,0
64319,note_on,,119,0,15,,,,,,,,,,,,,,,,11,,57,0
64319,note_on,,59,0,6,,,,,,,,,,,,,,,,2,,55,0
64319,note_on,,0,0,18,,,,,,,,,,,,,,,,15,,64,0
64319,note_on,,119,0,11,,,,,,,,,,,,,,,,7,,57,0
64320,note_on,,1,0,17,,,,,,,,,,,,,,,,13,,54,72
64320,note_on,,1,0,12,,,,,,,,,,,,,,,,8,,54,72
64320,note_on,,721,0,10,,,,,,,,,,,,,,,,6,,69,72
64320,note_on,,0,0,18,,,,,,,,,,,,,,,,15,,57,72
64320,note_on,,0,0,18,,,,,,,,,,,,,,,,15,,69,72
64320,note_on,,0,0,18,,,,,,,,,,,,,,,,15,,62,72
64320,note_on,,1,0,18,,,,,,,,,,,,,,,,15,,54,72
64320,note_on,,1,0,15,,,,,,,,,,,,,,,,11,,69,72
64320,note_on,,1,0,6,,,,,,,,,,,,,,,,2,,54,72
64320,note_on,,1,0,14,,,,,,,,,,,,,,,,10,,57,72
64320,note_on,,0,0,18,,,,,,,,,,,,,,,,15,,74,72
64379,note_on,,59,0,18,,,,,,,,,,,,,,,,15,,54,0
64379,note_on,,59,0,17,,,,,,,,,,,,,,,,13,,54,0
64379,note_on,,59,0,6,,,,,,,,,,,,,,,,2,,54,0
64379,note_on,,59,0,12,,,,,,,,,,,,,,,,8,,54,0
64380,note_on,,1,0,12,,,,,,,,,,,,,,,,8,,52,72
64380,note_on,,1,0,6,,,,,,,,,,,,,,,,2,,52,72
64380,note_on,,1,0,17,,,,,,,,,,,,,,,,13,,52,72
64380,note_on,,1,0,18,,,,,,,,,,,,,,,,15,,52,72
64439,note_on,,59,0,6,,,,,,,,,,,,,,,,2,,52,0
64439,note_on,,119,0,14,,,,,,,,,,,,,,,,10,,57,0
64439,note_on,,59,0,12,,,,,,,,,,,,,,,,8,,52,0
64439,note_on,,59,0,18,,,,,,,,,,,,,,,,15,,52,0
64439,note_on,,59,0,17,,,,,,,,,,,,,,,,13,,52,0
64440,note_on,,1,0,6,,,,,,,,,,,,,,,,2,,50,72
64440,note_on,,121,0,16,,,,,,,,,,,,,,,,12,,62,60
64440,note_on,,121,0,11,,,,,,,,,,,,,,,,7,,62,72
64440,note_on,,1,0,18,,,,,,,,,,,,,,,,15,,50,72
64440,note_on,,1,0,12,,,,,,,,,,,,,,,,8,,50,72
64440,note_on,,1,0,17,,,,,,,,,,,,,,,,13,,50,72
64499,note_on,,179,0,10,,,,,,,,,,,,,,,,6,,69,0
64499,note_on,,179,0,15,,,,,,,,,,,,,,,,11,,69,0
64500,note_on,,1,0,10,,,,,,,,,,,,,,,,6,,67,72
64500,note_on,,1,0,15,,,,,,,,,,,,,,,,11,,67,72
64559,note_on,,0,0,18,,,,,,,,,,,,,,,,15,,62,0
64559,note_on,,0,0,18,,,,,,,,,,,,,,,,15,,69,0
64559,note_on,,119,0,17,,,,,,,,,,,,,,,,13,,50,0
64559,note_on,,59,0,10,,,,,,,,,,,,,,,,6,,67,0
64559,note_on,,119,0,18,,,,,,,,,,,,,,,,15,,57,0
64559,note_on,,0,0,18,,,,,,,,,,,,,,,,15,,50,0
64559,note_on,,0,0,18,,,,,,,,,,,,,,,,15,,74,0
64559,note_on,,119,0,6,,,,,,,,,,,,,,,,2,,50,0
64559,note_on,,59,0,15,,,,,,,,,,,,,,,,11,,67,0
64559,note_on,,119,0,12,,,,,,,,,,,,,,,,8,,50,0
64560,note_on,,1,0,15,,,,,,,,,,,,,,,,11,,66,72
64560,note_on,,1,0,17,,,,,,,,,,,,,,,,13,,62,72
64560,note_on,,961,0,9,,,,,,,,,,,,,,,,5,,74,72
64560,note_on,,1,0,10,,,,,,,,,,,,,,,,6,,66,72
64560,note_on,,121,0,14,,,,,,,,,,,,,,,,10,,74,72
64560,note_on,,1,0,18,,,,,,,,,,,,,,,,15,,62,72
64560,note_on,,961,0,5,,,,,,,,,,,,,,,,1,,74,72
64560,note_on,,0,0,18,,,,,,,,,,,,,,,,15,,66,72
64560,note_on,,0,0,18,,,,,,,,,,,,,,,,15,,69,72
64619,note_on,,59,0,18,,,,,,,,,,,,,,,,15,,62,0
64619,note_on,,59,0,17,,,,,,,,,,,,,,,,13,,62,0
64619,note_on,,179,0,11,,,,,,,,,,,,,,,,7,,62,0
64619,note_on,,179,0,16,,,,,,,,,,,,,,,,12,,62,0
64620,note_on,,1,0,17,,,,,,,,,,,,,,,,13,,61,72
64620,note_on,,1,0,16,,,,,,,,,,,,,,,,12,,61,60
64620,note_on,,1,0,18,,,,,,,,,,,,,,,,15,,61,72
64620,note_on,,1,0,11,,,,,,,,,,,,,,,,7,,61,72
64679,note_on,,59,0,17,,,,,,,,,,,,,,,,13,,61,0
64679,note_on,,59,0,16,,,,,,,,,,,,,,,,12,,61,0
64679,note_on,,119,0,10,,,,,,,,,,,,,,,,6,,66,0
64679,note_on,,59,0,11,,,,,,,,,,,,,,,,7,,61,0
64679,note_on,,59,0,18,,,,,,,,,,,,,,,,15,,69,0
64679,note_on,,0,0,18,,,,,,,,,,,,,,,,15,,61,0
64679,note_on,,119,0,15,,,,,,,,,,,,,,,,11,,66,0
64680,note_on,,1,0,10,,,,,,,,,,,,,,,,6,,71,72
64680,note_on,,1,0,15,,,,,,,,,,,,,,,,11,,71,72
64680,note_on,,0,0,18,,,,,,,,,,,,,,,,15,,71,72
64680,note_on,,1,0,18,,,,,,,,,,,,,,,,15,,59,72
64680,note_on,,0,0,18,,,,,,,,,,,,,,,,15,,62,72
64680,note_on,,1,0,11,,,,,,,,,,,,,,,,7,,59,72
64680,note_on,,1,0,16,,,,,,,,,,,,,,,,12,,59,60
64680,note_on,,1,0,17,,,,,,,,,,,,,,,,13,,59,72
64739,note_on,,179,0,9,,,,,,,,,,,,,,,,5,,74,0
64739,note_on,,179,0,14,,,,,,,,,,,,,,,,10,,74,0
64739,note_on,,179,0,5,,,,,,,,,,,,,,,,1,,74,0
64740,note_on,,1,0,9,,,,,,,,,,,,,,,,5,,73,72
64740,note_on,,1,0,14,,,,,,,,,,,,,,,,10,,73,72
64740,note_on,,1,0,5,,,,,,,,,,,,,,,,1,,73,72
64799,note_on,,0,0,18,,,,,,,,,,,,,,,,15,,59,0
64799,note_on,,59,0,9,,,,,,,,,,,,,,,,5,,73,0
64799,note_on,,0,0,18,,,,,,,,,,,,,,,,15,,62,0
64799,note_on,,119,0,17,,,,,,,,,,,,,,,,13,,59,0
64799,note_on,,119,0,16,,,,,,,,,,,,,,,,12,,59,0
64799,note_on,,59,0,14,,,,,,,,,,,,,,,,10,,73,0
64799,note_on,,59,0,5,,,,,,,,,,,,,,,,1,,73,0
64799,note_on,,119,0,18,,,,,,,,,,,,,,,,15,,66,0
64799,note_on,,119,0,11,,,,,,,,,,,,,,,,7,,59,0
64800,note_on,,1,0,17,,,,,,,,,,,,,,,,13,,64,72
64800,note_on,,1,0,16,,,,,,,,,,,,,,,,12,,64,60
64800,note_on,,1,0,9,,,,,,,,,,,,,,,,5,,71,72
64800,note_on,,1,0,11,,,,,,,,,,,,,,,,7,,64,72
64800,note_on,,1,0,5,,,,,,,,,,,,,,,,1,,71,72
64800,note_on,,1,0,18,,,,,,,,,,,,,,,,15,,64,72
64800,note_on,,0,0,18,,,,,,,,,,,,,,,,15,,67,72
64800,note_on,,1,0,14,,,,,,,,,,,,,,,,10,,71,72
64859,note_on,,179,0,10,,,,,,,,,,,,,,,,6,,71,0
64859,note_on,,179,0,15,,,,,,,,,,,,,,,,11,,71,0
64860,note_on,,1,0,10,,,,,,,,,,,,,,,,6,,69,72
64860,note_on,,1,0,15,,,,,,,,,,,,,,,,11,,69,72
64919,note_on,,119,0,14,,,,,,,,,,,,,,,,10,,71,0
64919,note_on,,0,0,18,,,,,,,,,,,,,,,,15,,67,0
64919,note_on,,119,0,5,,,,,,,,,,,,,,,,1,,71,0
64919,note_on,,59,0,10,,,,,,,,,,,,,,,,6,,69,0
64919,note_on,,119,0,9,,,,,,,,,,,,,,,,5,,71,0
64919,note_on,,59,0,15,,,,,,,,,,,,,,,,11,,69,0
64919,note_on,,119,0,18,,,,,,,,,,,,,,,,15,,71,0
64920,note_on,,1,0,9,,,,,,,,,,,,,,,,5,,76,72
64920,note_on,,1,0,5,,,,,,,,,,,,,,,,1,,76,72
64920,note_on,,1,0,15,,,,,,,,,,,,,,,,11,,67,72
64920,note_on,,1,0,18,,,,,,,,,,,,,,,,15,,76,72
64920,note_on,,0,0,18,,,,,,,,,,,,,,,,15,,71,72
64920,note_on,,0,0,18,,,,,,,,,,,,,,,,15,,67,72
64920,note_on,,1,0,10,,,,,,,,,,,,,,,,6,,67,72
64920,note_on,,1,0,14,,,,,,,,,,,,,,,,10,,76,72
64979,note_on,,179,0,11,,,,,,,,,,,,,,,,7,,64,0
64979,note_on,,59,0,15,,,,,,,,,,,,,,,,11,,67,0
64979,note_on,,59,0,18,,,,,,,,,,,,,,,,15,,64,0
64979,note_on,,179,0,17,,,,,,,,,,,,,,,,13,,64,0
64979,note_on,,59,0,10,,,,,,,,,,,,,,,,6,,67,0
64979,note_on,,179,0,16,,,,,,,,,,,,,,,,12,,64,0
64980,note_on,,1,0,16,,,,,,,,,,,,,,,,12,,62,60
64980,note_on,,1,0,11,,,,,,,,,,,,,,,,7,,62,72
64980,note_on,,1,0,15,,,,,,,,,,,,,,,,11,,66,72
64980,note_on,,1,0,17,,,,,,,,,,,,,,,,13,,62,72
64980,note_on,,1,0,18,,,,,,,,,,,,,,,,15,,62,72
64980,note_on,,1,0,10,,,,,,,,,,,,,,,,6,,66,72
65039,note_on,,59,0,17,,,,,,,,,,,,,,,,13,,62,0
65039,note_on,,59,0,10,,,,,,,,,,,,,,,,6,,66,0
65039,note_on,,0,0,18,,,,,,,,,,,,,,,,15,,62,0
65039,note_on,,0,0,18,,,,,,,,,,,,,,,,15,,67,0
65039,note_on,,59,0,18,,,,,,,,,,,,,,,,15,,71,0
65039,note_on,,59,0,15,,,,,,,,,,,,,,,,11,,66,0
65039,note_on,,59,0,16,,,,,,,,,,,,,,,,12,,62,0
65039,note_on,,59,0,11,,,,,,,,,,,,,,,,7,,62,0
65040,note_on,,481,0,12,,,,,,,,,,,,,,,,8,,57,72
65040,note_on,,0,0,18,,,,,,,,,,,,,,,,15,,61,72
65040,note_on,,0,0,18,,,,,,,,,,,,,,,,15,,69,72
65040,note_on,,0,0,18,,,,,,,,,,,,,,,,15,,73,72
65040,note_on,,1,0,18,,,,,,,,,,,,,,,,15,,57,72
65040,note_on,,1,0,11,,,,,,,,,,,,,,,,7,,61,72
65040,note_on,,1,0,17,,,,,,,,,,,,,,,,13,,57,72
65040,note_on,,481,0,6,,,,,,,,,,,,,,,,2,,57,72
65040,note_on,,1,0,16,,,,,,,,,,,,,,,,12,,61,60
65040,note_on,,1,0,15,,,,,,,,,,,,,,,,11,,64,72
65040,note_on,,1,0,10,,,,,,,,,,,,,,,,6,,64,72
65099,note_on,,179,0,5,,,,,,,,,,,,,,,,1,,76,0
65099,note_on,,59,0,16,,,,,,,,,,,,,,,,12,,61,0
65099,note_on,,59,0,11,,,,,,,,,,,,,,,,7,,61,0
65099,note_on,,179,0,9,,,,,,,,,,,,,,,,5,,76,0
65099,note_on,,59,0,15,,,,,,,,,,,,,,,,11,,64,0
65099,note_on,,179,0,14,,,,,,,,,,,,,,,,10,,76,0
65099,note_on,,59,0,10,,,,,,,,,,,,,,,,6,,64,0
65100,note_on,,1,0,15,,,,,,,,,,,,,,,,11,,66,72
65100,note_on,,1,0,9,,,,,,,,,,,,,,,,5,,74,72
65100,note_on,,1,0,5,,,,,,,,,,,,,,,,1,,74,72
65100,note_on,,1,0,11,,,,,,,,,,,,,,,,7,,59,72
65100,note_on,,1,0,16,,,,,,,,,,,,,,,,12,,59,60
65100,note_on,,1,0,14,,,,,,,,,,,,,,,,10,,74,72
65100,note_on,,1,0,10,,,,,,,,,,,,,,,,6,,66,72
65129,note_on,,29,0,15,,,,,,,,,,,,,,,,11,,66,0
65129,note_on,,29,0,10,,,,,,,,,,,,,,,,6,,66,0
65130,note_on,,1,0,15,,,,,,,,,,,,,,,,11,,67,72
65130,note_on,,1,0,10,,,,,,,,,,,,,,,,6,,67,72
65159,note_on,,59,0,11,,,,,,,,,,,,,,,,7,,59,0
65159,note_on,,59,0,5,,,,,,,,,,,,,,,,1,,74,0
65159,note_on,,29,0,10,,,,,,,,,,,,,,,,6,,67,0
65159,note_on,,59,0,14,,,,,,,,,,,,,,,,10,,74,0
65159,note_on,,29,0,15,,,,,,,,,,,,,,,,11,,67,0
65159,note_on,,59,0,9,,,,,,,,,,,,,,,,5,,74,0
65159,note_on,,119,0,18,,,,,,,,,,,,,,,,15,,76,0
65159,note_on,,0,0,18,,,,,,,,,,,,,,,,15,,69,0
65159,note_on,,59,0,16,,,,,,,,,,,,,,,,12,,59,0
65159,note_on,,0,0,18,,,,,,,,,,,,,,,,15,,73,0
65160,note_on,,1,0,11,,,,,,,,,,,,,,,,7,,57,72
65160,note_on,,1,0,14,,,,,,,,,,,,,,,,10,,73,72
65160,note_on,,0,0,18,,,,,,,,,,,,,,,,15,,73,72
65160,note_on,,0,0,18,,,,,,,,,,,,,,,,15,,76,72
65160,note_on,,1,0,18,,,,,,,,,,,,,,,,15,,81,72
65160,note_on,,1,0,5,,,,,,,,,,,,,,,,1,,73,72
65160,note_on,,1,0,16,,,,,,,,,,,,,,,,12,,57,60
65160,note_on,,1,0,15,,,,,,,,,,,,,,,,11,,69,72
65160,note_on,,1,0,10,,,,,,,,,,,,,,,,6,,69,72
65160,note_on,,1,0,9,,,,,,,,,,,,,,,,5,,73,72
65219,note_on,,59,0,11,,,,,,,,,,,,,,,,7,,57,0
65219,note_on,,179,0,12,,,,,,,,,,,,,,,,8,,57,0
65219,note_on,,59,0,14,,,,,,,,,,,,,,,,10,,73,0
65219,note_on,,59,0,16,,,,,,,,,,,,,,,,12,,57,0
65219,note_on,,59,0,9,,,,,,,,,,,,,,,,5,,73,0
65219,note_on,,59,0,5,,,,,,,,,,,,,,,,1,,73,0
65219,note_on,,59,0,18,,,,,,,,,,,,,,,,15,,57,0
65219,note_on,,179,0,6,,,,,,,,,,,,,,,,2,,57,0
65219,note_on,,179,0,17,,,,,,,,,,,,,,,,13,,57,0
65220,note_on,,1,0,5,,,,,,,,,,,,,,,,1,,71,72
65220,note_on,,1,0,14,,,,,,,,,,,,,,,,10,,71,72
65220,note_on,,1,0,16,,,,,,,,,,,,,,,,12,,59,60
65220,note_on,,1,0,6,,,,,,,,,,,,,,,,2,,55,72
65220,note_on,,1,0,17,,,,,,,,,,,,,,,,13,,55,72
65220,note_on,,1,0,12,,,,,,,,,,,,,,,,8,,55,72
65220,note_on,,1,0,18,,,,,,,,,,,,,,,,15,,55,72
65220,note_on,,1,0,11,,,,,,,,,,,,,,,,7,,59,72
65220,note_on,,1,0,9,,,,,,,,,,,,,,,,5,,71,72
65249,note_on,,29,0,11,,,,,,,,,,,,,,,,7,,59,0
65249,note_on,,29,0,16,,,,,,,,,,,,,,,,12,,59,0
65250,note_on,,1,0,16,,,,,,,,,,,,,,,,12,,61,60
65250,note_on,,1,0,11,,,,,,,,,,,,,,,,7,,61,72
65279,note_on,,29,0,11,,,,,,,,,,,,,,,,7,,61,0
65279,note_on,,59,0,6,,,,,,,,,,,,,,,,2,,55,0
65279,note_on,,59,0,17,,,,,,,,,,,,,,,,13,,55,0
65279,note_on,,59,0,5,,,,,,,,,,,,,,,,1,,71,0
65279,note_on,,59,0,18,,,,,,,,,,,,,,,,15,,61,0
65279,note_on,,59,0,9,,,,,,,,,,,,,,,,5,,71,0
65279,note_on,,0,0,18,,,,,,,,,,,,,,,,15,,76,0
65279,note_on,,0,0,18,,,,,,,,,,,,,,,,15,,73,0
65279,note_on,,29,0,16,,,,,,,,,,,,,,,,12,,61,0
65279,note_on,,59,0,14,,,,,,,,,,,,,,,,10,,71,0
65279,note_on,,0,0,18,,,,,,,,,,,,,,,,15,,55,0
65279,note_on,,59,0,12,,,,,,,,,,,,,,,,8,,55,0
65280,note_on,,1,0,18,,,,,,,,,,,,,,,,15,,54,72
65280,note_on,,1,0,9,,,,,,,,,,,,,,,,5,,69,72
65280,note_on,,0,0,18,,,,,,,,,,,,,,,,15,,62,72
65280,note_on,,0,0,18,,,,,,,,,,,,,,,,15,,74,72
65280,note_on,,1,0,17,,,,,,,,,,,,,,,,13,,54,72
65280,note_on,,0,0,18,,,,,,,,,,,,,,,,15,,69,72
65280,note_on,,1,0,12,,,,,,,,,,,,,,,,8,,54,72
65280,note_on,,1,0,14,,,,,,,,,,,,,,,,10,,69,72
65280,note_on,,1,0,16,,,,,,,,,,,,,,,,12,,62,60
65280,note_on,,1,0,6,,,,,,,,,,,,,,,,2,,54,72
65280,note_on,,1,0,5,,,,,,,,,,,,,,,,1,,69,72
65280,note_on,,1,0,11,,,,,,,,,,,,,,,,7,,62,72
65339,note_on,,179,0,10,,,,,,,,,,,,,,,,6,,69,0
65339,note_on,,59,0,14,,,,,,,,,,,,,,,,10,,69,0
65339,note_on,,59,0,5,,,,,,,,,,,,,,,,1,,69,0
65339,note_on,,59,0,9,,,,,,,,,,,,,,,,5,,69,0
65339,note_on,,179,0,15,,,,,,,,,,,,,,,,11,,69,0
65340,note_on,,1,0,5,,,,,,,,,,,,,,,,1,,71,72
65340,note_on,,1,0,9,,,,,,,,,,,,,,,,5,,71,72
65340,note_on,,1,0,15,,,,,,,,,,,,,,,,11,,67,72
65340,note_on,,1,0,10,,,,,,,,,,,,,,,,6,,67,72
65340,note_on,,1,0,14,,,,,,,,,,,,,,,,10,,71,72
65369,note_on,,29,0,14,,,,,,,,,,,,,,,,10,,71,0
65369,note_on,,29,0,9,,,,,,,,,,,,,,,,5,,71,0
65369,note_on,,29,0,5,,,,,,,,,,,,,,,,1,,71,0
65370,note_on,,1,0,9,,,,,,,,,,,,,,,,5,,73,72
65370,note_on,,1,0,5,,,,,,,,,,,,,,,,1,,73,72
65370,note_on,,1,0,14,,,,,,,,,,,,,,,,10,,73,72
65399,note_on,,119,0,17,,,,,,,,,,,,,,,,13,,54,0
65399,note_on,,29,0,9,,,,,,,,,,,,,,,,5,,73,0
65399,note_on,,29,0,14,,,,,,,,,,,,,,,,10,,73,0
65399,note_on,,119,0,6,,,,,,,,,,,,,,,,2,,54,0
65399,note_on,,29,0,5,,,,,,,,,,,,,,,,1,,73,0
65399,note_on,,119,0,18,,,,,,,,,,,,,,,,15,,81,0
65399,note_on,,0,0,18,,,,,,,,,,,,,,,,15,,74,0
65399,note_on,,0,0,18,,,,,,,,,,,,,,,,15,,69,0
65399,note_on,,59,0,15,,,,,,,,,,,,,,,,11,,67,0
65399,note_on,,0,0,18,,,,,,,,,,,,,,,,15,,54,0
65399,note_on,,119,0,12,,,,,,,,,,,,,,,,8,,54,0
65399,note_on,,59,0,10,,,,,,,,,,,,,,,,6,,67,0
65400,note_on,,1,0,15,,,,,,,,,,,,,,,,11,,66,72
65400,note_on,,1,0,12,,,,,,,,,,,,,,,,8,,59,72
65400,note_on,,1,0,18,,,,,,,,,,,,,,,,15,,59,72
65400,note_on,,0,0,18,,,,,,,,,,,,,,,,15,,74,72
65400,note_on,,0,0,18,,,,,,,,,,,,,,,,15,,71,72
65400,note_on,,0,0,18,,,,,,,,,,,,,,,,15,,66,72
65400,note_on,,1,0,10,,,,,,,,,,,,,,,,6,,66,72
65400,note_on,,1,0,17,,,,,,,,,,,,,,,,13,,59,72
65400,note_on,,1,0,6,,,,,,,,,,,,,,,,2,,59,72
65400,note_on,,1,0,14,,,,,,,,,,,,,,,,10,,74,72
65400,note_on,,1,0,9,,,,,,,,,,,,,,,,5,,74,72
65400,note_on,,1,0,5,,,,,,,,,,,,,,,,1,,74,72
65459,note_on,,59,0,15,,,,,,,,,,,,,,,,11,,66,0
65459,note_on,,59,0,10,,,,,,,,,,,,,,,,6,,66,0
65459,note_on,,179,0,16,,,,,,,,,,,,,,,,12,,62,0
65459,note_on,,179,0,11,,,,,,,,,,,,,,,,7,,62,0
65460,note_on,,1,0,16,,,,,,,,,,,,,,,,12,,60,60
65460,note_on,,1,0,11,,,,,,,,,,,,,,,,7,,60,72
65460,note_on,,1,0,15,,,,,,,,,,,,,,,,11,,64,72
65460,note_on,,1,0,10,,,,,,,,,,,,,,,,6,,64,72
65519,note_on,,0,0,18,,,,,,,,,,,,,,,,15,,66,0
65519,note_on,,59,0,10,,,,,,,,,,,,,,,,6,,64,0
65519,note_on,,59,0,11,,,,,,,,,,,,,,,,7,,60,0
65519,note_on,,119,0,18,,,,,,,,,,,,,,,,15,,62,0
65519,note_on,,0,0,18,,,,,,,,,,,,,,,,15,,74,0
65519,note_on,,0,0,18,,,,,,,,,,,,,,,,15,,71,0
65519,note_on,,59,0,15,,,,,,,,,,,,,,,,11,,64,0
65519,note_on,,59,0,16,,,,,,,,,,,,,,,,12,,60,0
65520,note_on,,0,0,18,,,,,,,,,,,,,,,,15,,79,72
65520,note_on,,0,0,18,,,,,,,,,,,,,,,,15,,74,72
65520,note_on,,1,0,16,,,,,,,,,,,,,,,,12,,59,60
65520,note_on,,0,0,18,,,,,,,,,,,,,,,,15,,67,72
65520,note_on,,1,0,11,,,,,,,,,,,,,,,,7,,59,72
65520,note_on,,1,0,10,,,,,,,,,,,,,,,,6,,62,72
65520,note_on,,1,0,18,,,,,,,,,,,,,,,,15,,62,72
65520,note_on,,1,0,15,,,,,,,,,,,,,,,,11,,62,72
65579,note_on,,179,0,9,,,,,,,,,,,,,,,,5,,74,0
65579,note_on,,179,0,14,,,,,,,,,,,,,,,,10,,74,0
65579,note_on,,179,0,6,,,,,,,,,,,,,,,,2,,59,0
65579,note_on,,59,0,18,,,,,,,,,,,,,,,,15,,59,0
65579,note_on,,179,0,12,,,,,,,,,,,,,,,,8,,59,0
65579,note_on,,179,0,5,,,,,,,,,,,,,,,,1,,74,0
65579,note_on,,179,0,17,,,,,,,,,,,,,,,,13,,59,0
65580,note_on,,1,0,5,,,,,,,,,,,,,,,,1,,72,72
65580,note_on,,1,0,9,,,,,,,,,,,,,,,,5,,72,72
65580,note_on,,1,0,18,,,,,,,,,,,,,,,,15,,57,72
65580,note_on,,1,0,17,,,,,,,,,,,,,,,,13,,57,72
65580,note_on,,1,0,6,,,,,,,,,,,,,,,,2,,57,72
65580,note_on,,1,0,12,,,,,,,,,,,,,,,,8,,57,72
65580,note_on,,1,0,14,,,,,,,,,,,,,,,,10,,72,72
65639,note_on,,119,0,11,,,,,,,,,,,,,,,,7,,59,0
65639,note_on,,59,0,9,,,,,,,,,,,,,,,,5,,72,0
65639,note_on,,59,0,12,,,,,,,,,,,,,,,,8,,57,0
65639,note_on,,59,0,5,,,,,,,,,,,,,,,,1,,72,0
65639,note_on,,119,0,16,,,,,,,,,,,,,,,,12,,59,0
65639,note_on,,119,0,10,,,,,,,,,,,,,,,,6,,62,0
65639,note_on,,119,0,15,,,,,,,,,,,,,,,,11,,62,0
65639,note_on,,59,0,14,,,,,,,,,,,,,,,,10,,72,0
65639,note_on,,0,0,18,,,,,,,,,,,,,,,,15,,67,0
65639,note_on,,0,0,18,,,,,,,,,,,,,,,,15,,74,0
65639,note_on,,59,0,18,,,,,,,,,,,,,,,,15,,79,0
65639,note_on,,59,0,17,,,,,,,,,,,,,,,,13,,57,0
65639,note_on,,59,0,6,,,,,,,,,,,,,,,,2,,57,0
65639,note_on,,0,0,18,,,,,,,,,,,,,,,,15,,57,0
65640,note_on,,1,0,14,,,,,,,,,,,,,,,,10,,71,72
65640,note_on,,1,0,10,,,,,,,,,,,,,,,,6,,62,72
65640,note_on,,1,0,9,,,,,,,,,,,,,,,,5,,71,72
65640,note_on,,1,0,6,,,,,,,,,,,,,,,,2,,55,72
65640,note_on,,1,0,5,,,,,,,,,,,,,,,,1,,71,72
65640,note_on,,1,0,11,,,,,,,,,,,,,,,,7,,59,72
65640,note_on,,1,0,12,,,,,,,,,,,,,,,,8,,55,72
65640,note_on,,1,0,15,,,,,,,,,,,,,,,,11,,74,72
65640,note_on,,1,0,18,,,,,,,,,,,,,,,,15,,55,72
65640,note_on,,0,0,18,,,,,,,,,,,,,,,,15,,74,72
65640,note_on,,1,0,17,,,,,,,,,,,,,,,,13,,55,72
65640,note_on,,0,0,18,,,,,,,,,,,,,,,,15,,67,72
65640,note_on,,1,0,16,,,,,,,,,,,,,,,,12,,59,60
65640,note_on,,0,0,18,,,,,,,,,,,,,,,,15,,71,72
65699,note_on,,59,0,18,,,,,,,,,,,,,,,,15,,55,0
65699,note_on,,59,0,14,,,,,,,,,,,,,,,,10,,71,0
65699,note_on,,59,0,5,,,,,,,,,,,,,,,,1,,71,0
65699,note_on,,59,0,6,,,,,,,,,,,,,,,,2,,55,0
65699,note_on,,59,0,9,,,,,,,,,,,,,,,,5,,71,0
65699,note_on,,59,0,17,,,,,,,,,,,,,,,,13,,55,0
65699,note_on,,59,0,12,,,,,,,,,,,,,,,,8,,55,0
65700,note_on,,1,0,9,,,,,,,,,,,,,,,,5,,69,72
65700,note_on,,1,0,5,,,,,,,,,,,,,,,,1,,69,72
65700,note_on,,1,0,17,,,,,,,,,,,,,,,,13,,54,72
65700,note_on,,1,0,18,,,,,,,,,,,,,,,,15,,54,72
65700,note_on,,1,0,6,,,,,,,,,,,,,,,,2,,54,72
65700,note_on,,1,0,14,,,,,,,,,,,,,,,,10,,69,72
65700,note_on,,1,0,12,,,,,,,,,,,,,,,,8,,54,72
65759,note_on,,0,0,18,,,,,,,,,,,,,,,,15,,67,0
65759,note_on,,59,0,18,,,,,,,,,,,,,,,,15,,62,0
65759,note_on,,0,0,18,,,,,,,,,,,,,,,,15,,74,0
65759,note_on,,0,0,18,,,,,,,,,,,,,,,,15,,71,0
65759,note_on,,59,0,9,,,,,,,,,,,,,,,,5,,69,0
65759,note_on,,0,0,18,,,,,,,,,,,,,,,,15,,54,0
65759,note_on,,119,0,15,,,,,,,,,,,,,,,,11,,74,0
65759,note_on,,59,0,6,,,,,,,,,,,,,,,,2,,54,0
65759,note_on,,59,0,5,,,,,,,,,,,,,,,,1,,69,0
65759,note_on,,119,0,11,,,,,,,,,,,,,,,,7,,59,0
65759,note_on,,119,0,16,,,,,,,,,,,,,,,,12,,59,0
65759,note_on,,59,0,12,,,,,,,,,,,,,,,,8,,54,0
65759,note_on,,59,0,14,,,,,,,,,,,,,,,,10,,69,0
65759,note_on,,59,0,17,,,,,,,,,,,,,,,,13,,54,0
65759,note_on,,119,0,10,,,,,,,,,,,,,,,,6,,62,0
65760,note_on,,0,0,18,,,,,,,,,,,,,,,,15,,76,72
65760,note_on,,1,0,18,,,,,,,,,,,,,,,,15,,52,72
65760,note_on,,0,0,18,,,,,,,,,,,,,,,,15,,67,72
65760,note_on,,1,0,15,,,,,,,,,,,,,,,,11,,76,72
65760,note_on,,1,0,14,,,,,,,,,,,,,,,,10,,67,72
65760,note_on,,0,0,18,,,,,,,,,,,,,,,,15,,55,72
65760,note_on,,1,0,16,,,,,,,,,,,,,,,,12,,64,60
65760,note_on,,1,0,6,,,,,,,,,,,,,,,,2,,52,72
65760,note_on,,1,0,11,,,,,,,,,,,,,,,,7,,64,72
65760,note_on,,0,0,18,,,,,,,,,,,,,,,,15,,71,72
65760,note_on,,1,0,5,,,,,,,,,,,,,,,,1,,67,72
65760,note_on,,1,0,10,,,,,,,,,,,,,,,,6,,64,72
65760,note_on,,1,0,12,,,,,,,,,,,,,,,,8,,52,72
65760,note_on,,1,0,17,,,,,,,,,,,,,,,,13,,52,72
65760,note_on,,1,0,9,,,,,,,,,,,,,,,,5,,67,72
65819,note_on,,59,0,14,,,,,,,,,,,,,,,,10,,67,0
65819,note_on,,59,0,5,,,,,,,,,,,,,,,,1,,67,0
65819,note_on,,59,0,9,,,,,,,,,,,,,,,,5,,67,0
65820,note_on,,1,0,14,,,,,,,,,,,,,,,,10,,69,72
65820,note_on,,1,0,5,,,,,,,,,,,,,,,,1,,69,72
65820,note_on,,1,0,9,,,,,,,,,,,,,,,,5,,69,72
65849,note_on,,29,0,9,,,,,,,,,,,,,,,,5,,69,0
65849,note_on,,29,0,5,,,,,,,,,,,,,,,,1,,69,0
65849,note_on,,29,0,14,,,,,,,,,,,,,,,,10,,69,0
65850,note_on,,1,0,5,,,,,,,,,,,,,,,,1,,71,72
65850,note_on,,1,0,14,,,,,,,,,,,,,,,,10,,71,72
65850,note_on,,1,0,9,,,,,,,,,,,,,,,,5,,71,72
65879,note_on,,0,0,18,,,,,,,,,,,,,,,,15,,71,0
65879,note_on,,119,0,18,,,,,,,,,,,,,,,,15,,52,0
65879,note_on,,0,0,18,,,,,,,,,,,,,,,,15,,67,0
65879,note_on,,119,0,17,,,,,,,,,,,,,,,,13,,52,0
65879,note_on,,119,0,12,,,,,,,,,,,,,,,,8,,52,0
65879,note_on,,0,0,18,,,,,,,,,,,,,,,,15,,55,0
65879,note_on,,29,0,5,,,,,,,,,,,,,,,,1,,71,0
65879,note_on,,29,0,9,,,,,,,,,,,,,,,,5,,71,0
65879,note_on,,119,0,6,,,,,,,,,,,,,,,,2,,52,0
65879,note_on,,29,0,14,,,,,,,,,,,,,,,,10,,71,0
65880,note_on,,1,0,5,,,,,,,,,,,,,,,,1,,72,72
65880,note_on,,1,0,14,,,,,,,,,,,,,,,,10,,72,72
65880,note_on,,1,0,17,,,,,,,,,,,,,,,,13,,57,72
65880,note_on,,1,0,6,,,,,,,,,,,,,,,,2,,57,72
65880,note_on,,1,0,9,,,,,,,,,,,,,,,,5,,72,72
65880,note_on,,1,0,18,,,,,,,,,,,,,,,,15,,57,72
65880,note_on,,0,0,18,,,,,,,,,,,,,,,,15,,60,72
65880,note_on,,0,0,18,,,,,,,,,,,,,,,,15,,72,72
65880,note_on,,0,0,18,,,,,,,,,,,,,,,,15,,69,72
65880,note_on,,1,0,12,,,,,,,,,,,,,,,,8,,57,72
65939,note_on,,179,0,16,,,,,,,,,,,,,,,,12,,64,0
65939,note_on,,179,0,10,,,,,,,,,,,,,,,,6,,64,0
65939,note_on,,179,0,11,,,,,,,,,,,,,,,,7,,64,0
65939,note_on,,179,0,15,,,,,,,,,,,,,,,,11,,76,0
65940,note_on,,1,0,16,,,,,,,,,,,,,,,,12,,62,60
65940,note_on,,1,0,15,,,,,,,,,,,,,,,,11,,78,72
65940,note_on,,1,0,10,,,,,,,,,,,,,,,,6,,66,72
65940,note_on,,1,0,11,,,,,,,,,,,,,,,,7,,62,72
65969,note_on,,29,0,10,,,,,,,,,,,,,,,,6,,66,0
65969,note_on,,29,0,15,,,,,,,,,,,,,,,,11,,78,0
65970,note_on,,1,0,10,,,,,,,,,,,,,,,,6,,67,72
65970,note_on,,1,0,15,,,,,,,,,,,,,,,,11,,79,72
65999,note_on,,59,0,16,,,,,,,,,,,,,,,,12,,62,0
65999,note_on,,0,0,18,,,,,,,,,,,,,,,,15,,72,0
65999,note_on,,29,0,10,,,,,,,,,,,,,,,,6,,67,0
65999,note_on,,119,0,18,,,,,,,,,,,,,,,,15,,76,0
65999,note_on,,59,0,11,,,,,,,,,,,,,,,,7,,62,0
65999,note_on,,29,0,15,,,,,,,,,,,,,,,,11,,79,0
65999,note_on,,0,0,18,,,,,,,,,,,,,,,,15,,69,0
66000,note_on,,1,0,18,,,,,,,,,,,,,,,,15,,72,72
66000,note_on,,0,0,18,,,,,,,,,,,,,,,,15,,69,72
66000,note_on,,0,0,18,,,,,,,,,,,,,,,,15,,64,72
66000,note_on,,1,0,10,,,,,,,,,,,,,,,,6,,69,72
66000,note_on,,1,0,11,,,,,,,,,,,,,,,,7,,60,72
66000,note_on,,1,0,16,,,,,,,,,,,,,,,,12,,60,60
66000,note_on,,1,0,15,,,,,,,,,,,,,,,,11,,81,72
66059,note_on,,179,0,6,,,,,,,,,,,,,,,,2,,57,0
66059,note_on,,59,0,18,,,,,,,,,,,,,,,,15,,57,0
66059,note_on,,59,0,11,,,,,,,,,,,,,,,,7,,60,0
66059,note_on,,59,0,16,,,,,,,,,,,,,,,,12,,60,0
66059,note_on,,179,0,17,,,,,,,,,,,,,,,,13,,57,0
66059,note_on,,179,0,12,,,,,,,,,,,,,,,,8,,57,0
66059,note_on,,0,0,18,,,,,,,,,,,,,,,,15,,60,0
66060,note_on,,1,0,6,,,,,,,,,,,,,,,,2,,55,72
66060,note_on,,1,0,16,,,,,,,,,,,,,,,,12,,59,60
66060,note_on,,1,0,17,,,,,,,,,,,,,,,,13,,55,72
66060,note_on,,1,0,18,,,,,,,,,,,,,,,,15,,55,72
66060,note_on,,1,0,11,,,,,,,,,,,,,,,,7,,59,72
66060,note_on,,0,0,18,,,,,,,,,,,,,,,,15,,59,72
66060,note_on,,1,0,12,,,,,,,,,,,,,,,,8,,55,72
66119,note_on,,59,0,11,,,,,,,,,,,,,,,,7,,59,0
66119,note_on,,59,0,6,,,,,,,,,,,,,,,,2,,55,0
66119,note_on,,0,0,18,,,,,,,,,,,,,,,,15,,59,0
66119,note_on,,59,0,16,,,,,,,,,,,,,,,,12,,59,0
66119,note_on,,239,0,9,,,,,,,,,,,,,,,,5,,72,0
66119,note_on,,59,0,12,,,,,,,,,,,,,,,,8,,55,0
66119,note_on,,239,0,5,,,,,,,,,,,,,,,,1,,72,0
66119,note_on,,239,0,14,,,,,,,,,,,,,,,,10,,72,0
66119,note_on,,59,0,18,,,,,,,,,,,,,,,,15,,55,0
66119,note_on,,59,0,17,,,,,,,,,,,,,,,,13,,55,0
66120,note_on,,1,0,16,,,,,,,,,,,,,,,,12,,57,60
66120,note_on,,1,0,5,,,,,,,,,,,,,,,,1,,72,72
66120,note_on,,1,0,11,,,,,,,,,,,,,,,,7,,57,72
66120,note_on,,1,0,18,,,,,,,,,,,,,,,,15,,54,72
66120,note_on,,1,0,9,,,,,,,,,,,,,,,,5,,72,72
66120,note_on,,1,0,12,,,,,,,,,,,,,,,,8,,54,72
66120,note_on,,1,0,6,,,,,,,,,,,,,,,,2,,54,72
66120,note_on,,1,0,17,,,,,,,,,,,,,,,,13,,54,72
66120,note_on,,1,0,14,,,,,,,,,,,,,,,,10,,72,72
66120,note_on,,0,0,18,,,,,,,,,,,,,,,,15,,57,72
66179,note_on,,59,0,12,,,,,,,,,,,,,,,,8,,54,0
66179,note_on,,0,0,18,,,,,,,,,,,,,,,,15,,57,0
66179,note_on,,59,0,6,,,,,,,,,,,,,,,,2,,54,0
66179,note_on,,179,0,15,,,,,,,,,,,,,,,,11,,81,0
66179,note_on,,59,0,17,,,,,,,,,,,,,,,,13,,54,0
66179,note_on,,179,0,10,,,,,,,,,,,,,,,,6,,69,0
66179,note_on,,59,0,18,,,,,,,,,,,,,,,,15,,54,0
66180,note_on,,1,0,15,,,,,,,,,,,,,,,,11,,79,72
66180,note_on,,1,0,10,,,,,,,,,,,,,,,,6,,67,72
66180,note_on,,1,0,6,,,,,,,,,,,,,,,,2,,52,72
66180,note_on,,1,0,17,,,,,,,,,,,,,,,,13,,52,72
66180,note_on,,1,0,18,,,,,,,,,,,,,,,,15,,52,72
66180,note_on,,0,0,18,,,,,,,,,,,,,,,,15,,55,72
66180,note_on,,1,0,12,,,,,,,,,,,,,,,,8,,52,72
66239,note_on,,59,0,15,,,,,,,,,,,,,,,,11,,79,0
66239,note_on,,59,0,6,,,,,,,,,,,,,,,,2,,52,0
66239,note_on,,119,0,5,,,,,,,,,,,,,,,,1,,72,0
66239,note_on,,59,0,17,,,,,,,,,,,,,,,,13,,52,0
66239,note_on,,59,0,10,,,,,,,,,,,,,,,,6,,67,0
66239,note_on,,59,0,12,,,,,,,,,,,,,,,,8,,52,0
66239,note_on,,59,0,18,,,,,,,,,,,,,,,,15,,69,0
66239,note_on,,119,0,9,,,,,,,,,,,,,,,,5,,72,0
66239,note_on,,0,0,18,,,,,,,,,,,,,,,,15,,64,0
66239,note_on,,0,0,18,,,,,,,,,,,,,,,,15,,52,0
66239,note_on,,0,0,18,,,,,,,,,,,,,,,,15,,55,0
66240,note_on,,0,0,18,,,,,,,,,,,,,,,,15,,69,72
66240,note_on,,0,0,18,,,,,,,,,,,,,,,,15,,57,72
66240,note_on,,0,0,18,,,,,,,,,,,,,,,,15,,66,72
66240,note_on,,1,0,12,,,,,,,,,,,,,,,,8,,50,72
66240,note_on,,1,0,10,,,,,,,,,,,,,,,,6,,66,72
66240,note_on,,1,0,6,,,,,,,,,,,,,,,,2,,50,72
66240,note_on,,1,0,18,,,,,,,,,,,,,,,,15,,50,72
66240,note_on,,1,0,15,,,,,,,,,,,,,,,,11,,78,72
66240,note_on,,1,0,17,,,,,,,,,,,,,,,,13,,50,72
66240,note_on,,1,0,9,,,,,,,,,,,,,,,,5,,72,72
66240,note_on,,1,0,5,,,,,,,,,,,,,,,,1,,72,72
66359,note_on,,239,0,16,,,,,,,,,,,,,,,,12,,57,0
66359,note_on,,0,0,18,,,,,,,,,,,,,,,,15,,66,0
66359,note_on,,0,0,18,,,,,,,,,,,,,,,,15,,69,0
66359,note_on,,119,0,10,,,,,,,,,,,,,,,,6,,66,0
66359,note_on,,119,0,18,,,,,,,,,,,,,,,,15,,72,0
66359,note_on,,239,0,11,,,,,,,,,,,,,,,,7,,57,0
66359,note_on,,0,0,18,,,,,,,,,,,,,,,,15,,57,0
66359,note_on,,119,0,5,,,,,,,,,,,,,,,,1,,72,0
66359,note_on,,119,0,15,,,,,,,,,,,,,,,,11,,78,0
66359,note_on,,119,0,9,,,,,,,,,,,,,,,,5,,72,0
66359,note_on,,239,0,14,,,,,,,,,,,,,,,,10,,72,0
66360,note_on,,1,0,14,,,,,,,,,,,,,,,,10,,71,72
66360,note_on,,1,0,5,,,,,,,,,,,,,,,,1,,71,72
66360,note_on,,1,0,15,,,,,,,,,,,,,,,,11,,79,72
66360,note_on,,1,0,9,,,,,,,,,,,,,,,,5,,71,72
66360,note_on,,1,0,18,,,,,,,,,,,,,,,,15,,59,72
66360,note_on,,0,0,18,,,,,,,,,,,,,,,,15,,71,72
66360,note_on,,0,0,18,,,,,,,,,,,,,,,,15,,67,72
66360,note_on,,0,0,18,,,,,,,,,,,,,,,,15,,62,72
66360,note_on,,1,0,11,,,,,,,,,,,,,,,,7,,59,72
66360,note_on,,1,0,16,,,,,,,,,,,,,,,,12,,59,60
66360,note_on,,1,0,10,,,,,,,,,,,,,,,,6,,67,72
66419,note_on,,59,0,11,,,,,,,,,,,,,,,,7,,59,0
66419,note_on,,59,0,16,,,,,,,,,,,,,,,,12,,59,0
66419,note_on,,59,0,18,,,,,,,,,,,,,,,,15,,59,0
66420,note_on,,1,0,18,,,,,,,,,,,,,,,,15,,60,72
66420,note_on,,1,0,16,,,,,,,,,,,,,,,,12,,60,60
66420,note_on,,1,0,11,,,,,,,,,,,,,,,,7,,60,72
66479,note_on,,0,0,18,,,,,,,,,,,,,,,,15,,62,0
66479,note_on,,0,0,18,,,,,,,,,,,,,,,,15,,60,0
66479,note_on,,119,0,5,,,,,,,,,,,,,,,,1,,71,0
66479,note_on,,239,0,17,,,,,,,,,,,,,,,,13,,50,0
66479,note_on,,59,0,11,,,,,,,,,,,,,,,,7,,60,0
66479,note_on,,119,0,14,,,,,,,,,,,,,,,,10,,71,0
66479,note_on,,119,0,10,,,,,,,,,,,,,,,,6,,67,0
66479,note_on,,119,0,9,,,,,,,,,,,,,,,,5,,71,0
66479,note_on,,239,0,6,,,,,,,,,,,,,,,,2,,50,0
66479,note_on,,239,0,12,,,,,,,,,,,,,,,,8,,50,0
66479,note_on,,59,0,18,,,,,,,,,,,,,,,,15,,50,0
66479,note_on,,59,0,16,,,,,,,,,,,,,,,,12,,60,0
66479,note_on,,0,0,18,,,,,,,,,,,,,,,,15,,67,0
66479,note_on,,0,0,18,,,,,,,,,,,,,,,,15,,71,0
66480,note_on,,1,0,16,,,,,,,,,,,,,,,,12,,62,60
66480,note_on,,1,0,14,,,,,,,,,,,,,,,,10,,69,72
66480,note_on,,1,0,5,,,,,,,,,,,,,,,,1,,69,72
66480,note_on,,1,0,9,,,,,,,,,,,,,,,,5,,69,72
66480,note_on,,1,0,6,,,,,,,,,,,,,,,,2,,62,72
66480,note_on,,1,0,17,,,,,,,,,,,,,,,,13,,62,72
66480,note_on,,1,0,10,,,,,,,,,,,,,,,,6,,67,72
66480,note_on,,0,0,18,,,,,,,,,,,,,,,,15,,67,72
66480,note_on,,1,0,12,,,,,,,,,,,,,,,,8,,62,72
66480,note_on,,1,0,11,,,,,,,,,,,,,,,,7,,62,72
66480,note_on,,1,0,18,,,,,,,,,,,,,,,,15,,62,72
66480,note_on,,0,0,18,,,,,,,,,,,,,,,,15,,69,72
66599,note_on,,239,0,15,,,,,,,,,,,,,,,,11,,79,0
66599,note_on,,119,0,10,,,,,,,,,,,,,,,,6,,67,0
66599,note_on,,119,0,18,,,,,,,,,,,,,,,,15,,69,0
66599,note_on,,119,0,11,,,,,,,,,,,,,,,,7,,62,0
66599,note_on,,0,0,18,,,,,,,,,,,,,,,,15,,67,0
66600,note_on,,1,0,18,,,,,,,,,,,,,,,,15,,74,72
66600,note_on,,0,0,18,,,,,,,,,,,,,,,,15,,69,72
66600,note_on,,0,0,18,,,,,,,,,,,,,,,,15,,66,72
66600,note_on,,1,0,10,,,,,,,,,,,,,,,,6,,66,72
66600,note_on,,1,0,15,,,,,,,,,,,,,,,,11,,78,72
66659,note_on,,179,0,6,,,,,,,,,,,,,,,,2,,62,0
66659,note_on,,179,0,12,,,,,,,,,,,,,,,,8,,62,0
66659,note_on,,179,0,17,,,,,,,,,,,,,,,,13,,62,0
66660,note_on,,1,0,17,,,,,,,,,,,,,,,,13,,60,72
66660,note_on,,1,0,6,,,,,,,,,,,,,,,,2,,60,72
66660,note_on,,1,0,12,,,,,,,,,,,,,,,,8,,60,72
66660,note_on,,60,0,18,,,,,,,,,,,,,,,,15,,60,72
66719,note_on,,59,0,6,,,,,,,,,,,,,,,,2,,60,0
66719,note_on,,59,0,17,,,,,,,,,,,,,,,,13,,60,0
66719,note_on,,59,0,12,,,,,,,,,,,,,,,,8,,60,0
66719,note_on,,0,0,18,,,,,,,,,,,,,,,,15,,60,0
66719,note_on,,0,0,18,,,,,,,,,,,,,,,,15,,66,0
66719,note_on,,59,0,18,,,,,,,,,,,,,,,,15,,69,0
66719,note_on,,239,0,5,,,,,,,,,,,,,,,,1,,69,0
66719,note_on,,239,0,9,,,,,,,,,,,,,,,,5,,69,0
66719,note_on,,119,0,15,,,,,,,,,,,,,,,,11,,78,0
66719,note_on,,239,0,16,,,,,,,,,,,,,,,,12,,62,0
66719,note_on,,119,0,10,,,,,,,,,,,,,,,,6,,66,0
66719,note_on,,239,0,14,,,,,,,,,,,,,,,,10,,69,0
66720,note_on,,1,0,9,,,,,,,,,,,,,,,,5,,67,72
66720,note_on,,1,0,12,,,,,,,,,,,,,,,,8,,59,72
66720,note_on,,1,0,6,,,,,,,,,,,,,,,,2,,59,72
66720,note_on,,1,0,16,,,,,,,,,,,,,,,,12,,62,60
66720,note_on,,1,0,10,,,,,,,,,,,,,,,,6,,67,72
66720,note_on,,1,0,14,,,,,,,,,,,,,,,,10,,67,72
66720,note_on,,1,0,15,,,,,,,,,,,,,,,,11,,79,72
66720,note_on,,1,0,17,,,,,,,,,,,,,,,,13,,59,72
66720,note_on,,1,0,5,,,,,,,,,,,,,,,,1,,67,72
66720,note_on,,1,0,18,,,,,,,,,,,,,,,,15,,59,72
66720,note_on,,0,0,18,,,,,,,,,,,,,,,,15,,67,72
66779,note_on,,59,0,18,,,,,,,,,,,,,,,,15,,59,0
66779,note_on,,59,0,17,,,,,,,,,,,,,,,,13,,59,0
66779,note_on,,59,0,12,,,,,,,,,,,,,,,,8,,59,0
66779,note_on,,59,0,6,,,,,,,,,,,,,,,,2,,59,0
66780,note_on,,1,0,17,,,,,,,,,,,,,,,,13,,57,72
66780,note_on,,1,0,12,,,,,,,,,,,,,,,,8,,57,72
66780,note_on,,1,0,18,,,,,,,,,,,,,,,,15,,57,72
66780,note_on,,1,0,6,,,,,,,,,,,,,,,,2,,57,72
66839,note_on,,0,0,18,,,,,,,,,,,,,,,,15,,57,0
66839,note_on,,59,0,12,,,,,,,,,,,,,,,,8,,57,0
66839,note_on,,59,0,6,,,,,,,,,,,,,,,,2,,57,0
66839,note_on,,59,0,17,,,,,,,,,,,,,,,,13,,57,0
66839,note_on,,119,0,16,,,,,,,,,,,,,,,,12,,62,0
66839,note_on,,59,0,18,,,,,,,,,,,,,,,,15,,62,0
66839,note_on,,0,0,18,,,,,,,,,,,,,,,,15,,74,0
66839,note_on,,0,0,18,,,,,,,,,,,,,,,,15,,67,0
66839,note_on,,119,0,15,,,,,,,,,,,,,,,,11,,79,0
66839,note_on,,119,0,10,,,,,,,,,,,,,,,,6,,67,0
66840,note_on,,0,0,18,,,,,,,,,,,,,,,,15,,62,72
66840,note_on,,0,0,18,,,,,,,,,,,,,,,,15,,59,72
66840,note_on,,1,0,17,,,,,,,,,,,,,,,,13,,55,72
66840,note_on,,1,0,18,,,,,,,,,,,,,,,,15,,55,72
66840,note_on,,241,0,11,,,,,,,,,,,,,,,,7,,55,72
66840,note_on,,1,0,12,,,,,,,,,,,,,,,,8,,55,72
66840,note_on,,1,0,16,,,,,,,,,,,,,,,,12,,55,60
66840,note_on,,1,0,6,,,,,,,,,,,,,,,,2,,55,72
66899,note_on,,179,0,5,,,,,,,,,,,,,,,,1,,67,0
66899,note_on,,179,0,9,,,,,,,,,,,,,,,,5,,67,0
66899,note_on,,179,0,14,,,,,,,,,,,,,,,,10,,67,0
66900,note_on,,1,0,14,,,,,,,,,,,,,,,,10,,69,72
66900,note_on,,1,0,5,,,,,,,,,,,,,,,,1,,69,72
66900,note_on,,1,0,9,,,,,,,,,,,,,,,,5,,69,72
66959,note_on,,59,0,5,,,,,,,,,,,,,,,,1,,69,0
66959,note_on,,59,0,9,,,,,,,,,,,,,,,,5,,69,0
66959,note_on,,119,0,12,,,,,,,,,,,,,,,,8,,55,0
66959,note_on,,119,0,18,,,,,,,,,,,,,,,,15,,62,0
66959,note_on,,59,0,14,,,,,,,,,,,,,,,,10,,69,0
66960,note_on,,1,0,14,,,,,,,,,,,,,,,,10,,71,72
66960,note_on,,121,0,10,,,,,,,,,,,,,,,,6,,62,72
66960,note_on,,1,0,5,,,,,,,,,,,,,,,,1,,71,72
66960,note_on,,1,0,18,,,,,,,,,,,,,,,,15,,62,72
66960,note_on,,1,0,9,,,,,,,,,,,,,,,,5,,71,72
66960,note_on,,121,0,15,,,,,,,,,,,,,,,,11,,62,72
66960,note_on,,0,0,18,,,,,,,,,,,,,,,,15,,67,72
67019,note_on,,179,0,11,,,,,,,,,,,,,,,,7,,55,0
67019,note_on,,59,0,14,,,,,,,,,,,,,,,,10,,71,0
67019,note_on,,59,0,9,,,,,,,,,,,,,,,,5,,71,0
67019,note_on,,59,0,5,,,,,,,,,,,,,,,,1,,71,0
67019,note_on,,179,0,16,,,,,,,,,,,,,,,,12,,55,0
67020,note_on,,1,0,9,,,,,,,,,,,,,,,,5,,73,72
67020,note_on,,1,0,11,,,,,,,,,,,,,,,,7,,57,72
67020,note_on,,1,0,5,,,,,,,,,,,,,,,,1,,73,72
67020,note_on,,1,0,16,,,,,,,,,,,,,,,,12,,57,60
67020,note_on,,1,0,14,,,,,,,,,,,,,,,,10,,73,72
67079,note_on,,119,0,18,,,,,,,,,,,,,,,,15,,55,0
67079,note_on,,59,0,16,,,,,,,,,,,,,,,,12,,57,0
67079,note_on,,59,0,5,,,,,,,,,,,,,,,,1,,73,0
67079,note_on,,0,0,18,,,,,,,,,,,,,,,,15,,67,0
67079,note_on,,59,0,9,,,,,,,,,,,,,,,,5,,73,0
67079,note_on,,59,0,11,,,,,,,,,,,,,,,,7,,57,0
67079,note_on,,239,0,17,,,,,,,,,,,,,,,,13,,55,0
67079,note_on,,59,0,14,,,,,,,,,,,,,,,,10,,73,0
67079,note_on,,239,0,6,,,,,,,,,,,,,,,,2,,55,0
67080,note_on,,1,0,14,,,,,,,,,,,,,,,,10,,74,72
67080,note_on,,1,0,17,,,,,,,,,,,,,,,,13,,50,72
67080,note_on,,1,0,5,,,,,,,,,,,,,,,,1,,74,72
67080,note_on,,1,0,6,,,,,,,,,,,,,,,,2,,50,72
67080,note_on,,121,0,12,,,,,,,,,,,,,,,,8,,50,72
67080,note_on,,1,0,18,,,,,,,,,,,,,,,,15,,50,72
67080,note_on,,1,0,16,,,,,,,,,,,,,,,,12,,59,60
67080,note_on,,0,0,18,,,,,,,,,,,,,,,,15,,71,72
67080,note_on,,1,0,9,,,,,,,,,,,,,,,,5,,74,72
67080,note_on,,1,0,11,,,,,,,,,,,,,,,,7,,59,72
67139,note_on,,59,0,16,,,,,,,,,,,,,,,,12,,59,0
67139,note_on,,179,0,10,,,,,,,,,,,,,,,,6,,62,0
67139,note_on,,59,0,11,,,,,,,,,,,,,,,,7,,59,0
67139,note_on,,179,0,15,,,,,,,,,,,,,,,,11,,62,0
67139,note_on,,59,0,18,,,,,,,,,,,,,,,,15,,59,0
67139,note_on,,0,0,18,,,,,,,,,,,,,,,,15,,62,0
67140,note_on,,1,0,15,,,,,,,,,,,,,,,,11,,64,72
67140,note_on,,1,0,10,,,,,,,,,,,,,,,,6,,64,72
67140,note_on,,1,0,16,,,,,,,,,,,,,,,,12,,61,60
67140,note_on,,1,0,11,,,,,,,,,,,,,,,,7,,61,72
67140,note_on,,1,0,18,,,,,,,,,,,,,,,,15,,61,72
67140,note_on,,0,0,18,,,,,,,,,,,,,,,,15,,64,72
67199,note_on,,59,0,10,,,,,,,,,,,,,,,,6,,64,0
67199,note_on,,59,0,16,,,,,,,,,,,,,,,,12,,61,0
67199,note_on,,59,0,11,,,,,,,,,,,,,,,,7,,61,0
67199,note_on,,0,0,18,,,,,,,,,,,,,,,,15,,61,0
67199,note_on,,0,0,18,,,,,,,,,,,,,,,,15,,64,0
67199,note_on,,59,0,15,,,,,,,,,,,,,,,,11,,64,0
67199,note_on,,59,0,18,,,,,,,,,,,,,,,,15,,71,0
67200,note_on,,1,0,18,,,,,,,,,,,,,,,,15,,69,72
67200,note_on,,0,0,18,,,,,,,,,,,,,,,,15,,66,72
67200,note_on,,0,0,18,,,,,,,,,,,,,,,,15,,62,72
67200,note_on,,1,0,10,,,,,,,,,,,,,,,,6,,66,72
67200,note_on,,1,0,15,,,,,,,,,,,,,,,,11,,66,72
67200,note_on,,1,0,11,,,,,,,,,,,,,,,,7,,62,72
67200,note_on,,1,0,16,,,,,,,,,,,,,,,,12,,62,60
67259,note_on,,179,0,5,,,,,,,,,,,,,,,,1,,74,0
67259,note_on,,59,0,10,,,,,,,,,,,,,,,,6,,66,0
67259,note_on,,179,0,9,,,,,,,,,,,,,,,,5,,74,0
67259,note_on,,59,0,15,,,,,,,,,,,,,,,,11,,66,0
67259,note_on,,179,0,17,,,,,,,,,,,,,,,,13,,50,0
67259,note_on,,179,0,6,,,,,,,,,,,,,,,,2,,50,0
67259,note_on,,179,0,14,,,,,,,,,,,,,,,,10,,74,0
67259,note_on,,59,0,18,,,,,,,,,,,,,,,,15,,50,0
67259,note_on,,179,0,12,,,,,,,,,,,,,,,,8,,50,0
67260,note_on,,1,0,17,,,,,,,,,,,,,,,,13,,52,72
67260,note_on,,1,0,5,,,,,,,,,,,,,,,,1,,73,72
67260,note_on,,1,0,10,,,,,,,,,,,,,,,,6,,67,72
67260,note_on,,1,0,9,,,,,,,,,,,,,,,,5,,73,72
67260,note_on,,1,0,12,,,,,,,,,,,,,,,,8,,52,72
67260,note_on,,1,0,15,,,,,,,,,,,,,,,,11,,67,72
67260,note_on,,1,0,18,,,,,,,,,,,,,,,,15,,52,72
67260,note_on,,1,0,14,,,,,,,,,,,,,,,,10,,73,72
67260,note_on,,1,0,6,,,,,,,,,,,,,,,,2,,52,72
67289,note_on,,29,0,9,,,,,,,,,,,,,,,,5,,73,0
67289,note_on,,29,0,5,,,,,,,,,,,,,,,,1,,73,0
67289,note_on,,29,0,14,,,,,,,,,,,,,,,,10,,73,0
67290,note_on,,1,0,9,,,,,,,,,,,,,,,,5,,71,72
67290,note_on,,1,0,14,,,,,,,,,,,,,,,,10,,71,72
67290,note_on,,1,0,5,,,,,,,,,,,,,,,,1,,71,72
67319,note_on,,59,0,15,,,,,,,,,,,,,,,,11,,67,0
67319,note_on,,29,0,14,,,,,,,,,,,,,,,,10,,71,0
67319,note_on,,29,0,9,,,,,,,,,,,,,,,,5,,71,0
67319,note_on,,59,0,10,,,,,,,,,,,,,,,,6,,67,0
67319,note_on,,29,0,5,,,,,,,,,,,,,,,,1,,71,0
67319,note_on,,59,0,18,,,,,,,,,,,,,,,,15,,52,0
67319,note_on,,59,0,12,,,,,,,,,,,,,,,,8,,52,0
67319,note_on,,59,0,6,,,,,,,,,,,,,,,,2,,52,0
67319,note_on,,59,0,17,,,,,,,,,,,,,,,,13,,52,0
67320,note_on,,1,0,6,,,,,,,,,,,,,,,,2,,54,72
67320,note_on,,1,0,9,,,,,,,,,,,,,,,,5,,69,72
67320,note_on,,1,0,18,,,,,,,,,,,,,,,,15,,54,72
67320,note_on,,1,0,12,,,,,,,,,,,,,,,,8,,54,72
67320,note_on,,1,0,5,,,,,,,,,,,,,,,,1,,69,72
67320,note_on,,1,0,14,,,,,,,,,,,,,,,,10,,69,72
67320,note_on,,1,0,10,,,,,,,,,,,,,,,,6,,69,72
67320,note_on,,1,0,15,,,,,,,,,,,,,,,,11,,69,72
67320,note_on,,1,0,17,,,,,,,,,,,,,,,,13,,54,72
67379,note_on,,59,0,17,,,,,,,,,,,,,,,,13,,54,0
67379,note_on,,59,0,9,,,,,,,,,,,,,,,,5,,69,0
67379,note_on,,59,0,6,,,,,,,,,,,,,,,,2,,54,0
67379,note_on,,59,0,5,,,,,,,,,,,,,,,,1,,69,0
67379,note_on,,59,0,18,,,,,,,,,,,,,,,,15,,54,0
67379,note_on,,179,0,16,,,,,,,,,,,,,,,,12,,62,0
67379,note_on,,59,0,14,,,,,,,,,,,,,,,,10,,69,0
67379,note_on,,179,0,11,,,,,,,,,,,,,,,,7,,62,0
67379,note_on,,59,0,12,,,,,,,,,,,,,,,,8,,54,0
67380,note_on,,1,0,14,,,,,,,,,,,,,,,,10,,71,72
67380,note_on,,1,0,11,,,,,,,,,,,,,,,,7,,61,72
67380,note_on,,1,0,12,,,,,,,,,,,,,,,,8,,55,72
67380,note_on,,1,0,9,,,,,,,,,,,,,,,,5,,71,72
67380,note_on,,1,0,16,,,,,,,,,,,,,,,,12,,61,60
67380,note_on,,1,0,17,,,,,,,,,,,,,,,,13,,55,72
67380,note_on,,1,0,5,,,,,,,,,,,,,,,,1,,71,72
67380,note_on,,1,0,6,,,,,,,,,,,,,,,,2,,55,72
67380,note_on,,1,0,18,,,,,,,,,,,,,,,,15,,55,72
67409,note_on,,29,0,16,,,,,,,,,,,,,,,,12,,61,0
67409,note_on,,29,0,11,,,,,,,,,,,,,,,,7,,61,0
67410,note_on,,1,0,11,,,,,,,,,,,,,,,,7,,59,72
67410,note_on,,1,0,16,,,,,,,,,,,,,,,,12,,59,60
67439,note_on,,59,0,12,,,,,,,,,,,,,,,,8,,55,0
67439,note_on,,29,0,16,,,,,,,,,,,,,,,,12,,59,0
67439,note_on,,59,0,5,,,,,,,,,,,,,,,,1,,71,0
67439,note_on,,59,0,9,,,,,,,,,,,,,,,,5,,71,0
67439,note_on,,29,0,11,,,,,,,,,,,,,,,,7,,59,0
67439,note_on,,59,0,17,,,,,,,,,,,,,,,,13,,55,0
67439,note_on,,59,0,18,,,,,,,,,,,,,,,,15,,69,0
67439,note_on,,0,0,18,,,,,,,,,,,,,,,,15,,66,0
67439,note_on,,59,0,14,,,,,,,,,,,,,,,,10,,71,0
67439,note_on,,59,0,6,,,,,,,,,,,,,,,,2,,55,0
67439,note_on,,0,0,18,,,,,,,,,,,,,,,,15,,62,0
67439,note_on,,0,0,18,,,,,,,,,,,,,,,,15,,55,0
67440,note_on,,1,0,12,,,,,,,,,,,,,,,,8,,57,72
67440,note_on,,1,0,16,,,,,,,,,,,,,,,,12,,57,60
67440,note_on,,1,0,5,,,,,,,,,,,,,,,,1,,73,72
67440,note_on,,0,0,18,,,,,,,,,,,,,,,,15,,57,72
67440,note_on,,1,0,18,,,,,,,,,,,,,,,,15,,69,72
67440,note_on,,1,0,11,,,,,,,,,,,,,,,,7,,57,72
67440,note_on,,0,0,18,,,,,,,,,,,,,,,,15,,64,72
67440,note_on,,0,0,18,,,,,,,,,,,,,,,,15,,61,72
67440,note_on,,1,0,6,,,,,,,,,,,,,,,,2,,57,72
67440,note_on,,1,0,14,,,,,,,,,,,,,,,,10,,73,72
67440,note_on,,1,0,9,,,,,,,,,,,,,,,,5,,73,72
67440,note_on,,1,0,17,,,,,,,,,,,,,,,,13,,57,72
67499,note_on,,59,0,14,,,,,,,,,,,,,,,,10,,73,0
67499,note_on,,179,0,10,,,,,,,,,,,,,,,,6,,69,0
67499,note_on,,179,0,15,,,,,,,,,,,,,,,,11,,69,0
67499,note_on,,59,0,16,,,,,,,,,,,,,,,,12,,57,0
67499,note_on,,59,0,11,,,,,,,,,,,,,,,,7,,57,0
67499,note_on,,59,0,9,,,,,,,,,,,,,,,,5,,73,0
67499,note_on,,59,0,5,,,,,,,,,,,,,,,,1,,73,0
67500,note_on,,1,0,16,,,,,,,,,,,,,,,,12,,59,60
67500,note_on,,1,0,10,,,,,,,,,,,,,,,,6,,67,72
67500,note_on,,1,0,11,,,,,,,,,,,,,,,,7,,59,72
67500,note_on,,1,0,5,,,,,,,,,,,,,,,,1,,74,72
67500,note_on,,1,0,15,,,,,,,,,,,,,,,,11,,67,72
67500,note_on,,1,0,14,,,,,,,,,,,,,,,,10,,74,72
67500,note_on,,1,0,9,,,,,,,,,,,,,,,,5,,74,72
67529,note_on,,29,0,10,,,,,,,,,,,,,,,,6,,67,0
67529,note_on,,29,0,15,,,,,,,,,,,,,,,,11,,67,0
67530,note_on,,1,0,10,,,,,,,,,,,,,,,,6,,66,72
67530,note_on,,1,0,15,,,,,,,,,,,,,,,,11,,66,72
67559,note_on,,59,0,9,,,,,,,,,,,,,,,,5,,74,0
67559,note_on,,29,0,10,,,,,,,,,,,,,,,,6,,66,0
67559,note_on,,29,0,15,,,,,,,,,,,,,,,,11,,66,0
67559,note_on,,0,0,18,,,,,,,,,,,,,,,,15,,61,0
67559,note_on,,0,0,18,,,,,,,,,,,,,,,,15,,64,0
67559,note_on,,59,0,16,,,,,,,,,,,,,,,,12,,59,0
67559,note_on,,59,0,5,,,,,,,,,,,,,,,,1,,74,0
67559,note_on,,119,0,18,,,,,,,,,,,,,,,,15,,69,0
67559,note_on,,59,0,14,,,,,,,,,,,,,,,,10,,74,0
67559,note_on,,59,0,11,,,,,,,,,,,,,,,,7,,59,0
67560,note_on,,0,0,18,,,,,,,,,,,,,,,,15,,64,72
67560,note_on,,0,0,18,,,,,,,,,,,,,,,,15,,69,72
67560,note_on,,1,0,18,,,,,,,,,,,,,,,,15,,73,72
67560,note_on,,1,0,14,,,,,,,,,,,,,,,,10,,76,72
67560,note_on,,1,0,9,,,,,,,,,,,,,,,,5,,76,72
67560,note_on,,1,0,11,,,,,,,,,,,,,,,,7,,61,72
67560,note_on,,1,0,10,,,,,,,,,,,,,,,,6,,64,72
67560,note_on,,1,0,5,,,,,,,,,,,,,,,,1,,76,72
67560,note_on,,1,0,16,,,,,,,,,,,,,,,,12,,61,60
67560,note_on,,1,0,15,,,,,,,,,,,,,,,,11,,64,72
67619,note_on,,59,0,16,,,,,,,,,,,,,,,,12,,61,0
67619,note_on,,59,0,15,,,,,,,,,,,,,,,,11,,64,0
67619,note_on,,59,0,10,,,,,,,,,,,,,,,,6,,64,0
67619,note_on,,59,0,18,,,,,,,,,,,,,,,,15,,57,0
67619,note_on,,179,0,12,,,,,,,,,,,,,,,,8,,57,0
67619,note_on,,179,0,6,,,,,,,,,,,,,,,,2,,57,0
67619,note_on,,59,0,11,,,,,,,,,,,,,,,,7,,61,0
67619,note_on,,179,0,17,,,,,,,,,,,,,,,,13,,57,0
67620,note_on,,1,0,18,,,,,,,,,,,,,,,,15,,55,72
67620,note_on,,1,0,10,,,,,,,,,,,,,,,,6,,66,72
67620,note_on,,1,0,11,,,,,,,,,,,,,,,,7,,62,72
67620,note_on,,1,0,15,,,,,,,,,,,,,,,,11,,66,72
67620,note_on,,1,0,6,,,,,,,,,,,,,,,,2,,55,72
67620,note_on,,1,0,16,,,,,,,,,,,,,,,,12,,62,60
67620,note_on,,1,0,17,,,,,,,,,,,,,,,,13,,55,72
67620,note_on,,1,0,12,,,,,,,,,,,,,,,,8,,55,72
67649,note_on,,29,0,12,,,,,,,,,,,,,,,,8,,55,0
67649,note_on,,29,0,18,,,,,,,,,,,,,,,,15,,55,0
67649,note_on,,29,0,6,,,,,,,,,,,,,,,,2,,55,0
67649,note_on,,29,0,17,,,,,,,,,,,,,,,,13,,55,0
67650,note_on,,1,0,12,,,,,,,,,,,,,,,,8,,54,72
67650,note_on,,1,0,18,,,,,,,,,,,,,,,,15,,54,72
67650,note_on,,1,0,17,,,,,,,,,,,,,,,,13,,54,72
67650,note_on,,1,0,6,,,,,,,,,,,,,,,,2,,54,72
67679,note_on,,59,0,15,,,,,,,,,,,,,,,,11,,66,0
67679,note_on,,59,0,11,,,,,,,,,,,,,,,,7,,62,0
67679,note_on,,59,0,16,,,,,,,,,,,,,,,,12,,62,0
67679,note_on,,29,0,17,,,,,,,,,,,,,,,,13,,54,0
67679,note_on,,29,0,18,,,,,,,,,,,,,,,,15,,73,0
67679,note_on,,0,0,18,,,,,,,,,,,,,,,,15,,69,0
67679,note_on,,0,0,18,,,,,,,,,,,,,,,,15,,54,0
67679,note_on,,29,0,12,,,,,,,,,,,,,,,,8,,54,0
67679,note_on,,0,0,18,,,,,,,,,,,,,,,,15,,64,0
67679,note_on,,29,0,6,,,,,,,,,,,,,,,,2,,54,0
67679,note_on,,59,0,10,,,,,,,,,,,,,,,,6,,66,0
67680,note_on,,1,0,12,,,,,,,,,,,,,,,,8,,52,72
67680,note_on,,1,0,15,,,,,,,,,,,,,,,,11,,67,72
67680,note_on,,1,0,11,,,,,,,,,,,,,,,,7,,64,72
67680,note_on,,1,0,6,,,,,,,,,,,,,,,,2,,52,72
67680,note_on,,1,0,16,,,,,,,,,,,,,,,,12,,64,60
67680,note_on,,1,0,17,,,,,,,,,,,,,,,,13,,52,72
67680,note_on,,1,0,18,,,,,,,,,,,,,,,,15,,52,72
67680,note_on,,0,0,18,,,,,,,,,,,,,,,,15,,76,72
67680,note_on,,1,0,10,,,,,,,,,,,,,,,,6,,67,72
67680,note_on,,0,0,18,,,,,,,,,,,,,,,,15,,71,72
67680,note_on,,0,0,18,,,,,,,,,,,,,,,,15,,67,72
67739,note_on,,59,0,10,,,,,,,,,,,,,,,,6,,67,0
67739,note_on,,59,0,12,,,,,,,,,,,,,,,,8,,52,0
67739,note_on,,59,0,15,,,,,,,,,,,,,,,,11,,67,0
67739,note_on,,179,0,14,,,,,,,,,,,,,,,,10,,76,0
67739,note_on,,59,0,17,,,,,,,,,,,,,,,,13,,52,0
67739,note_on,,59,0,6,,,,,,,,,,,,,,,,2,,52,0
67739,note_on,,179,0,5,,,,,,,,,,,,,,,,1,,76,0
67739,note_on,,179,0,9,,,,,,,,,,,,,,,,5,,76,0
67739,note_on,,59,0,18,,,,,,,,,,,,,,,,15,,52,0
67740,note_on,,1,0,18,,,,,,,,,,,,,,,,15,,54,72
67740,note_on,,1,0,5,,,,,,,,,,,,,,,,1,,74,72
67740,note_on,,1,0,10,,,,,,,,,,,,,,,,6,,69,72
67740,note_on,,1,0,9,,,,,,,,,,,,,,,,5,,74,72
67740,note_on,,1,0,15,,,,,,,,,,,,,,,,11,,69,72
67740,note_on,,1,0,14,,,,,,,,,,,,,,,,10,,74,72
67740,note_on,,1,0,6,,,,,,,,,,,,,,,,2,,54,72
67740,note_on,,1,0,12,,,,,,,,,,,,,,,,8,,54,72
67740,note_on,,1,0,17,,,,,,,,,,,,,,,,13,,54,72
67769,note_on,,29,0,14,,,,,,,,,,,,,,,,10,,74,0
67769,note_on,,29,0,9,,,,,,,,,,,,,,,,5,,74,0
67769,note_on,,29,0,5,,,,,,,,,,,,,,,,1,,74,0
67770,note_on,,1,0,9,,,,,,,,,,,,,,,,5,,73,72
67770,note_on,,1,0,5,,,,,,,,,,,,,,,,1,,73,72
67770,note_on,,1,0,14,,,,,,,,,,,,,,,,10,,73,72
67799,note_on,,59,0,12,,,,,,,,,,,,,,,,8,,54,0
67799,note_on,,59,0,17,,,,,,,,,,,,,,,,13,,54,0
67799,note_on,,59,0,18,,,,,,,,,,,,,,,,15,,54,0
67799,note_on,,29,0,14,,,,,,,,,,,,,,,,10,,73,0
67799,note_on,,29,0,5,,,,,,,,,,,,,,,,1,,73,0
67799,note_on,,29,0,9,,,,,,,,,,,,,,,,5,,73,0
67799,note_on,,59,0,10,,,,,,,,,,,,,,,,6,,69,0
67799,note_on,,59,0,15,,,,,,,,,,,,,,,,11,,69,0
67799,note_on,,59,0,6,,,,,,,,,,,,,,,,2,,54,0
67800,note_on,,1,0,12,,,,,,,,,,,,,,,,8,,55,72
67800,note_on,,1,0,14,,,,,,,,,,,,,,,,10,,71,72
67800,note_on,,1,0,18,,,,,,,,,,,,,,,,15,,55,72
67800,note_on,,1,0,10,,,,,,,,,,,,,,,,6,,71,72
67800,note_on,,1,0,6,,,,,,,,,,,,,,,,2,,55,72
67800,note_on,,1,0,5,,,,,,,,,,,,,,,,1,,71,72
67800,note_on,,1,0,9,,,,,,,,,,,,,,,,5,,71,72
67800,note_on,,1,0,15,,,,,,,,,,,,,,,,11,,71,72
67800,note_on,,1,0,17,,,,,,,,,,,,,,,,13,,55,72
67859,note_on,,59,0,18,,,,,,,,,,,,,,,,15,,55,0
67859,note_on,,59,0,5,,,,,,,,,,,,,,,,1,,71,0
67859,note_on,,179,0,11,,,,,,,,,,,,,,,,7,,64,0
67859,note_on,,59,0,9,,,,,,,,,,,,,,,,5,,71,0
67859,note_on,,59,0,12,,,,,,,,,,,,,,,,8,,55,0
67859,note_on,,59,0,6,,,,,,,,,,,,,,,,2,,55,0
67859,note_on,,59,0,17,,,,,,,,,,,,,,,,13,,55,0
67859,note_on,,59,0,14,,,,,,,,,,,,,,,,10,,71,0
67859,note_on,,179,0,16,,,,,,,,,,,,,,,,12,,64,0
67860,note_on,,1,0,18,,,,,,,,,,,,,,,,15,,57,72
67860,note_on,,1,0,12,,,,,,,,,,,,,,,,8,,57,72
67860,note_on,,1,0,17,,,,,,,,,,,,,,,,13,,57,72
67860,note_on,,1,0,14,,,,,,,,,,,,,,,,10,,73,72
67860,note_on,,1,0,9,,,,,,,,,,,,,,,,5,,73,72
67860,note_on,,1,0,6,,,,,,,,,,,,,,,,2,,57,72
67860,note_on,,1,0,5,,,,,,,,,,,,,,,,1,,73,72
67860,note_on,,1,0,11,,,,,,,,,,,,,,,,7,,62,72
67860,note_on,,1,0,16,,,,,,,,,,,,,,,,12,,62,60
67889,note_on,,29,0,16,,,,,,,,,,,,,,,,12,,62,0
67889,note_on,,29,0,11,,,,,,,,,,,,,,,,7,,62,0
67890,note_on,,1,0,16,,,,,,,,,,,,,,,,12,,61,60
67890,note_on,,1,0,11,,,,,,,,,,,,,,,,7,,61,72
67919,note_on,,0,0,18,,,,,,,,,,,,,,,,15,,57,0
67919,note_on,,0,0,18,,,,,,,,,,,,,,,,15,,67,0
67919,note_on,,0,0,18,,,,,,,,,,,,,,,,15,,71,0
67919,note_on,,59,0,18,,,,,,,,,,,,,,,,15,,76,0
67919,note_on,,29,0,16,,,,,,,,,,,,,,,,12,,61,0
67919,note_on,,59,0,6,,,,,,,,,,,,,,,,2,,57,0
67919,note_on,,59,0,17,,,,,,,,,,,,,,,,13,,57,0
67919,note_on,,59,0,12,,,,,,,,,,,,,,,,8,,57,0
67919,note_on,,59,0,9,,,,,,,,,,,,,,,,5,,73,0
67919,note_on,,29,0,11,,,,,,,,,,,,,,,,7,,61,0
67919,note_on,,59,0,5,,,,,,,,,,,,,,,,1,,73,0
67919,note_on,,59,0,14,,,,,,,,,,,,,,,,10,,73,0
67920,note_on,,1,0,17,,,,,,,,,,,,,,,,13,,59,72
67920,note_on,,1,0,16,,,,,,,,,,,,,,,,12,,59,60
67920,note_on,,1,0,11,,,,,,,,,,,,,,,,7,,59,72
67920,note_on,,1,0,5,,,,,,,,,,,,,,,,1,,74,72
67920,note_on,,1,0,6,,,,,,,,,,,,,,,,2,,59,72
67920,note_on,,0,0,18,,,,,,,,,,,,,,,,15,,66,72
67920,note_on,,0,0,18,,,,,,,,,,,,,,,,15,,71,72
67920,note_on,,0,0,18,,,,,,,,,,,,,,,,15,,74,72
67920,note_on,,1,0,18,,,,,,,,,,,,,,,,15,,59,72
67920,note_on,,1,0,9,,,,,,,,,,,,,,,,5,,74,72
67920,note_on,,1,0,12,,,,,,,,,,,,,,,,8,,59,72
67920,note_on,,1,0,14,,,,,,,,,,,,,,,,10,,74,72
67979,note_on,,59,0,14,,,,,,,,,,,,,,,,10,,74,0
67979,note_on,,59,0,5,,,,,,,,,,,,,,,,1,,74,0
67979,note_on,,59,0,6,,,,,,,,,,,,,,,,2,,59,0
67979,note_on,,59,0,17,,,,,,,,,,,,,,,,13,,59,0
67979,note_on,,59,0,12,,,,,,,,,,,,,,,,8,,59,0
67979,note_on,,59,0,18,,,,,,,,,,,,,,,,15,,59,0
67979,note_on,,59,0,9,,,,,,,,,,,,,,,,5,,74,0
67980,note_on,,1,0,17,,,,,,,,,,,,,,,,13,,61,72
67980,note_on,,1,0,12,,,,,,,,,,,,,,,,8,,61,72
67980,note_on,,1,0,18,,,,,,,,,,,,,,,,15,,61,72
67980,note_on,,1,0,6,,,,,,,,,,,,,,,,2,,61,72
67980,note_on,,1,0,9,,,,,,,,,,,,,,,,5,,76,72
67980,note_on,,1,0,14,,,,,,,,,,,,,,,,10,,76,72
67980,note_on,,1,0,5,,,,,,,,,,,,,,,,1,,76,72
68039,note_on,,59,0,5,,,,,,,,,,,,,,,,1,,76,0
68039,note_on,,59,0,12,,,,,,,,,,,,,,,,8,,61,0
68039,note_on,,59,0,17,,,,,,,,,,,,,,,,13,,61,0
68039,note_on,,0,0,18,,,,,,,,,,,,,,,,15,,71,0
68039,note_on,,0,0,18,,,,,,,,,,,,,,,,15,,66,0
68039,note_on,,0,0,18,,,,,,,,,,,,,,,,15,,61,0
68039,note_on,,59,0,18,,,,,,,,,,,,,,,,15,,74,0
68039,note_on,,239,0,10,,,,,,,,,,,,,,,,6,,71,0
68039,note_on,,119,0,11,,,,,,,,,,,,,,,,7,,59,0
68039,note_on,,59,0,6,,,,,,,,,,,,,,,,2,,61,0
68039,note_on,,239,0,15,,,,,,,,,,,,,,,,11,,71,0
68039,note_on,,119,0,16,,,,,,,,,,,,,,,,12,,59,0
68039,note_on,,59,0,14,,,,,,,,,,,,,,,,10,,76,0
68039,note_on,,59,0,9,,,,,,,,,,,,,,,,5,,76,0
68040,note_on,,1,0,14,,,,,,,,,,,,,,,,10,,78,72
68040,note_on,,1,0,17,,,,,,,,,,,,,,,,13,,62,72
68040,note_on,,1,0,16,,,,,,,,,,,,,,,,12,,66,60
68040,note_on,,1,0,9,,,,,,,,,,,,,,,,5,,78,72
68040,note_on,,1,0,12,,,,,,,,,,,,,,,,8,,62,72
68040,note_on,,1,0,5,,,,,,,,,,,,,,,,1,,78,72
68040,note_on,,1,0,15,,,,,,,,,,,,,,,,11,,69,72
68040,note_on,,1,0,11,,,,,,,,,,,,,,,,7,,66,72
68040,note_on,,1,0,18,,,,,,,,,,,,,,,,15,,62,72
68040,note_on,,0,0,18,,,,,,,,,,,,,,,,15,,69,72
68040,note_on,,1,0,6,,,,,,,,,,,,,,,,2,,62,72
68040,note_on,,0,0,18,,,,,,,,,,,,,,,,15,,66,72
68040,note_on,,1,0,10,,,,,,,,,,,,,,,,6,,69,72
68099,note_on,,59,0,5,,,,,,,,,,,,,,,,1,,78,0
68099,note_on,,59,0,14,,,,,,,,,,,,,,,,10,,78,0
68099,note_on,,59,0,9,,,,,,,,,,,,,,,,5,,78,0
68100,note_on,,1,0,5,,,,,,,,,,,,,,,,1,,79,72
68100,note_on,,1,0,14,,,,,,,,,,,,,,,,10,,79,72
68100,note_on,,1,0,9,,,,,,,,,,,,,,,,5,,79,72
68159,note_on,,119,0,11,,,,,,,,,,,,,,,,7,,66,0
68159,note_on,,119,0,16,,,,,,,,,,,,,,,,12,,66,0
68159,note_on,,59,0,9,,,,,,,,,,,,,,,,5,,79,0
68159,note_on,,59,0,14,,,,,,,,,,,,,,,,10,,79,0
68159,note_on,,0,0,18,,,,,,,,,,,,,,,,15,,66,0
68159,note_on,,119,0,18,,,,,,,,,,,,,,,,15,,69,0
68159,note_on,,59,0,5,,,,,,,,,,,,,,,,1,,79,0
68160,note_on,,1,0,16,,,,,,,,,,,,,,,,12,,64,60
68160,note_on,,1,0,11,,,,,,,,,,,,,,,,7,,64,72
68160,note_on,,1,0,9,,,,,,,,,,,,,,,,5,,81,72
68160,note_on,,1,0,5,,,,,,,,,,,,,,,,1,,81,72
68160,note_on,,1,0,18,,,,,,,,,,,,,,,,15,,76,72
68160,note_on,,0,0,18,,,,,,,,,,,,,,,,15,,64,72
68160,note_on,,1,0,14,,,,,,,,,,,,,,,,10,,81,72
68160,note_on,,0,0,18,,,,,,,,,,,,,,,,15,,69,72
68279,note_on,,239,0,6,,,,,,,,,,,,,,,,2,,62,0
68279,note_on,,119,0,18,,,,,,,,,,,,,,,,15,,62,0
68279,note_on,,239,0,10,,,,,,,,,,,,,,,,6,,69,0
68279,note_on,,119,0,5,,,,,,,,,,,,,,,,1,,81,0
68279,note_on,,239,0,12,,,,,,,,,,,,,,,,8,,62,0
68279,note_on,,119,0,9,,,,,,,,,,,,,,,,5,,81,0
68279,note_on,,239,0,17,,,,,,,,,,,,,,,,13,,62,0
68279,note_on,,119,0,14,,,,,,,,,,,,,,,,10,,81,0
68279,note_on,,239,0,15,,,,,,,,,,,,,,,,11,,69,0
68279,note_on,,0,0,18,,,,,,,,,,,,,,,,15,,76,0
68279,note_on,,0,0,18,,,,,,,,,,,,,,,,15,,69,0
68280,note_on,,0,0,18,,,,,,,,,,,,,,,,15,,76,72
68280,note_on,,0,0,18,,,,,,,,,,,,,,,,15,,81,72
68280,note_on,,1,0,6,,,,,,,,,,,,,,,,2,,61,72
68280,note_on,,1,0,10,,,,,,,,,,,,,,,,6,,69,72
68280,note_on,,0,0,18,,,,,,,,,,,,,,,,15,,69,72
68280,note_on,,1,0,17,,,,,,,,,,,,,,,,13,,61,72
68280,note_on,,1,0,9,,,,,,,,,,,,,,,,5,,76,72
68280,note_on,,1,0,5,,,,,,,,,,,,,,,,1,,76,72
68280,note_on,,1,0,12,,,,,,,,,,,,,,,,8,,61,72
68280,note_on,,1,0,14,,,,,,,,,,,,,,,,10,,76,72
68280,note_on,,1,0,15,,,,,,,,,,,,,,,,11,,81,72
68280,note_on,,1,0,18,,,,,,,,,,,,,,,,15,,61,72
68399,note_on,,0,0,18,,,,,,,,,,,,,,,,15,,61,0
68399,note_on,,239,0,11,,,,,,,,,,,,,,,,7,,64,0
68399,note_on,,119,0,18,,,,,,,,,,,,,,,,15,,64,0
68399,note_on,,119,0,9,,,,,,,,,,,,,,,,5,,76,0
68399,note_on,,119,0,14,,,,,,,,,,,,,,,,10,,76,0
68399,note_on,,0,0,18,,,,,,,,,,,,,,,,15,,69,0
68399,note_on,,119,0,17,,,,,,,,,,,,,,,,13,,61,0
68399,note_on,,119,0,6,,,,,,,,,,,,,,,,2,,61,0
68399,note_on,,119,0,12,,,,,,,,,,,,,,,,8,,61,0
68399,note_on,,119,0,10,,,,,,,,,,,,,,,,6,,69,0
68399,note_on,,119,0,5,,,,,,,,,,,,,,,,1,,76,0
68399,note_on,,239,0,16,,,,,,,,,,,,,,,,12,,64,0
68399,note_on,,0,0,18,,,,,,,,,,,,,,,,15,,76,0
68400,note_on,,1,0,12,,,,,,,,,,,,,,,,8,,59,72
68400,note_on,,1,0,5,,,,,,,,,,,,,,,,1,,74,72
68400,note_on,,1,0,9,,,,,,,,,,,,,,,,5,,74,72
68400,note_on,,1,0,17,,,,,,,,,,,,,,,,13,,59,72
68400,note_on,,1,0,18,,,,,,,,,,,,,,,,15,,59,72
68400,note_on,,0,0,18,,,,,,,,,,,,,,,,15,,71,72
68400,note_on,,0,0,18,,,,,,,,,,,,,,,,15,,74,72
68400,note_on,,1,0,10,,,,,,,,,,,,,,,,6,,69,72
68400,note_on,,1,0,6,,,,,,,,,,,,,,,,2,,59,72
68400,note_on,,0,0,18,,,,,,,,,,,,,,,,15,,66,72
68400,note_on,,1,0,14,,,,,,,,,,,,,,,,10,,74,72
68519,note_on,,119,0,18,,,,,,,,,,,,,,,,15,,81,0
68519,note_on,,239,0,15,,,,,,,,,,,,,,,,11,,81,0
68519,note_on,,0,0,18,,,,,,,,,,,,,,,,15,,66,0
68519,note_on,,119,0,10,,,,,,,,,,,,,,,,6,,69,0
68520,note_on,,0,0,18,,,,,,,,,,,,,,,,15,,80,72
68520,note_on,,1,0,15,,,,,,,,,,,,,,,,11,,80,72
68520,note_on,,1,0,10,,,,,,,,,,,,,,,,6,,68,72
68520,note_on,,1,0,18,,,,,,,,,,,,,,,,15,,62,72
68639,note_on,,239,0,17,,,,,,,,,,,,,,,,13,,59,0
68639,note_on,,239,0,6,,,,,,,,,,,,,,,,2,,59,0
68639,note_on,,239,0,12,,,,,,,,,,,,,,,,8,,59,0
68639,note_on,,239,0,14,,,,,,,,,,,,,,,,10,,74,0
68639,note_on,,239,0,5,,,,,,,,,,,,,,,,1,,74,0
68639,note_on,,239,0,9,,,,,,,,,,,,,,,,5,,74,0
68639,note_on,,119,0,18,,,,,,,,,,,,,,,,15,,59,0
68639,note_on,,0,0,18,,,,,,,,,,,,,,,,15,,74,0
68639,note_on,,0,0,18,,,,,,,,,,,,,,,,15,,71,0
68639,note_on,,0,0,18,,,,,,,,,,,,,,,,15,,62,0
68639,note_on,,0,0,18,,,,,,,,,,,,,,,,15,,80,0
68639,note_on,,119,0,15,,,,,,,,,,,,,,,,11,,80,0
68639,note_on,,119,0,10,,,,,,,,,,,,,,,,6,,68,0
68640,note_on,,1,0,17,,,,,,,,,,,,,,,,13,,57,72
68640,note_on,,1,0,5,,,,,,,,,,,,,,,,1,,73,72
68640,note_on,,241,0,16,,,,,,,,,,,,,,,,12,,64,60
68640,note_on,,1,0,6,,,,,,,,,,,,,,,,2,,57,72
68640,note_on,,1,0,15,,,,,,,,,,,,,,,,11,,81,72
68640,note_on,,1,0,9,,,,,,,,,,,,,,,,5,,73,72
68640,note_on,,1,0,10,,,,,,,,,,,,,,,,6,,69,72
68640,note_on,,1,0,12,,,,,,,,,,,,,,,,8,,57,72
68640,note_on,,0,0,18,,,,,,,,,,,,,,,,15,,61,72
68640,note_on,,0,0,18,,,,,,,,,,,,,,,,15,,73,72
68640,note_on,,0,0,18,,,,,,,,,,,,,,,,15,,76,72
68640,note_on,,0,0,18,,,,,,,,,,,,,,,,15,,81,72
68640,note_on,,1,0,18,,,,,,,,,,,,,,,,15,,57,72
68640,note_on,,241,0,11,,,,,,,,,,,,,,,,7,,64,72
68640,note_on,,1,0,14,,,,,,,,,,,,,,,,10,,73,72
68759,note_on,,119,0,10,,,,,,,,,,,,,,,,6,,69,0
68759,note_on,,119,0,12,,,,,,,,,,,,,,,,8,,57,0
68759,note_on,,119,0,9,,,,,,,,,,,,,,,,5,,73,0
68759,note_on,,119,0,5,,,,,,,,,,,,,,,,1,,73,0
68759,note_on,,119,0,15,,,,,,,,,,,,,,,,11,,81,0
68759,note_on,,119,0,14,,,,,,,,,,,,,,,,10,,73,0
68760,note_on,,1,0,14,,,,,,,,,,,,,,,,10,,76,72
68760,note_on,,1,0,5,,,,,,,,,,,,,,,,1,,76,72
68760,note_on,,1,0,9,,,,,,,,,,,,,,,,5,,76,72
68819,note_on,,179,0,16,,,,,,,,,,,,,,,,12,,64,0
68819,note_on,,179,0,11,,,,,,,,,,,,,,,,7,,64,0
68820,note_on,,1,0,11,,,,,,,,,,,,,,,,7,,62,72
68820,note_on,,1,0,16,,,,,,,,,,,,,,,,12,,62,60
68879,note_on,,239,0,18,,,,,,,,,,,,,,,,15,,57,0
68879,note_on,,0,0,18,,,,,,,,,,,,,,,,15,,76,0
68879,note_on,,0,0,18,,,,,,,,,,,,,,,,15,,73,0
68879,note_on,,0,0,18,,,,,,,,,,,,,,,,15,,61,0
68879,note_on,,239,0,6,,,,,,,,,,,,,,,,2,,57,0
68879,note_on,,59,0,11,,,,,,,,,,,,,,,,7,,62,0
68879,note_on,,59,0,16,,,,,,,,,,,,,,,,12,,62,0
68879,note_on,,239,0,17,,,,,,,,,,,,,,,,13,,57,0
68879,note_on,,0,0,18,,,,,,,,,,,,,,,,15,,81,0
68880,note_on,,1,0,17,,,,,,,,,,,,,,,,13,,57,72
68880,note_on,,1,0,18,,,,,,,,,,,,,,,,15,,64,72
68880,note_on,,0,0,18,,,,,,,,,,,,,,,,15,,57,72
68880,note_on,,0,0,18,,,,,,,,,,,,,,,,15,,73,72
68880,note_on,,0,0,18,,,,,,,,,,,,,,,,15,,69,72
68880,note_on,,0,0,18,,,,,,,,,,,,,,,,15,,61,72
68880,note_on,,121,0,12,,,,,,,,,,,,,,,,8,,57,72
68880,note_on,,1,0,16,,,,,,,,,,,,,,,,12,,61,60
68880,note_on,,1,0,6,,,,,,,,,,,,,,,,2,,57,72
68880,note_on,,1,0,11,,,,,,,,,,,,,,,,7,,61,72
68939,note_on,,179,0,14,,,,,,,,,,,,,,,,10,,76,0
68939,note_on,,179,0,9,,,,,,,,,,,,,,,,5,,76,0
68939,note_on,,179,0,5,,,,,,,,,,,,,,,,1,,76,0
68940,note_on,,1,0,14,,,,,,,,,,,,,,,,10,,74,72
68940,note_on,,1,0,9,,,,,,,,,,,,,,,,5,,74,72
68940,note_on,,1,0,5,,,,,,,,,,,,,,,,1,,74,72
68999,note_on,,119,0,11,,,,,,,,,,,,,,,,7,,61,0
68999,note_on,,59,0,14,,,,,,,,,,,,,,,,10,,74,0
68999,note_on,,59,0,5,,,,,,,,,,,,,,,,1,,74,0
68999,note_on,,119,0,16,,,,,,,,,,,,,,,,12,,61,0
68999,note_on,,119,0,18,,,,,,,,,,,,,,,,15,,64,0
68999,note_on,,0,0,18,,,,,,,,,,,,,,,,15,,69,0
68999,note_on,,59,0,9,,,,,,,,,,,,,,,,5,,74,0
69000,note_on,,1,0,5,,,,,,,,,,,,,,,,1,,73,72
69000,note_on,,1,0,14,,,,,,,,,,,,,,,,10,,73,72
69000,note_on,,1,0,9,,,,,,,,,,,,,,,,5,,73,72
69000,note_on,,1,0,11,,,,,,,,,,,,,,,,7,,66,72
69000,note_on,,241,0,15,,,,,,,,,,,,,,,,11,,69,72
69000,note_on,,0,0,18,,,,,,,,,,,,,,,,15,,66,72
69000,note_on,,1,0,18,,,,,,,,,,,,,,,,15,,69,72
69000,note_on,,1,0,16,,,,,,,,,,,,,,,,12,,66,60
69000,note_on,,241,0,10,,,,,,,,,,,,,,,,6,,69,72
69059,note_on,,59,0,18,,,,,,,,,,,,,,,,15,,57,0
69059,note_on,,179,0,12,,,,,,,,,,,,,,,,8,,57,0
69059,note_on,,179,0,6,,,,,,,,,,,,,,,,2,,57,0
69059,note_on,,179,0,17,,,,,,,,,,,,,,,,13,,57,0
69060,note_on,,1,0,12,,,,,,,,,,,,,,,,8,,55,72
69060,note_on,,1,0,17,,,,,,,,,,,,,,,,13,,55,72
69060,note_on,,1,0,18,,,,,,,,,,,,,,,,15,,55,72
69060,note_on,,1,0,6,,,,,,,,,,,,,,,,2,,55,72
69119,note_on,,119,0,14,,,,,,,,,,,,,,,,10,,73,0
69119,note_on,,119,0,9,,,,,,,,,,,,,,,,5,,73,0
69119,note_on,,59,0,12,,,,,,,,,,,,,,,,8,,55,0
69119,note_on,,59,0,6,,,,,,,,,,,,,,,,2,,55,0
69119,note_on,,0,0,18,,,,,,,,,,,,,,,,15,,66,0
69119,note_on,,0,0,18,,,,,,,,,,,,,,,,15,,55,0
69119,note_on,,119,0,5,,,,,,,,,,,,,,,,1,,73,0
69119,note_on,,59,0,17,,,,,,,,,,,,,,,,13,,55,0
69119,note_on,,59,0,18,,,,,,,,,,,,,,,,15,,61,0
69119,note_on,,0,0,18,,,,,,,,,,,,,,,,15,,73,0
69119,note_on,,0,0,18,,,,,,,,,,,,,,,,15,,69,0
69120,note_on,,1,0,12,,,,,,,,,,,,,,,,8,,54,72
69120,note_on,,1,0,14,,,,,,,,,,,,,,,,10,,78,72
69120,note_on,,1,0,6,,,,,,,,,,,,,,,,2,,54,72
69120,note_on,,0,0,18,,,,,,,,,,,,,,,,15,,78,72
69120,note_on,,1,0,5,,,,,,,,,,,,,,,,1,,78,72
69120,note_on,,0,0,18,,,,,,,,,,,,,,,,15,,73,72
69120,note_on,,1,0,9,,,,,,,,,,,,,,,,5,,78,72
69120,note_on,,0,0,18,,,,,,,,,,,,,,,,15,,57,72
69120,note_on,,0,0,18,,,,,,,,,,,,,,,,15,,69,72
69120,note_on,,1,0,18,,,,,,,,,,,,,,,,15,,54,72
69120,note_on,,1,0,17,,,,,,,,,,,,,,,,13,,54,72
69179,note_on,,179,0,11,,,,,,,,,,,,,,,,7,,66,0
69179,note_on,,179,0,15,,,,,,,,,,,,,,,,11,,69,0
69179,note_on,,179,0,16,,,,,,,,,,,,,,,,12,,66,0
69179,note_on,,179,0,10,,,,,,,,,,,,,,,,6,,69,0
69180,note_on,,1,0,16,,,,,,,,,,,,,,,,12,,64,60
69180,note_on,,1,0,15,,,,,,,,,,,,,,,,11,,67,72
69180,note_on,,1,0,11,,,,,,,,,,,,,,,,7,,64,72
69180,note_on,,1,0,10,,,,,,,,,,,,,,,,6,,67,72
69239,note_on,,59,0,16,,,,,,,,,,,,,,,,12,,64,0
69239,note_on,,59,0,15,,,,,,,,,,,,,,,,11,,67,0
69239,note_on,,119,0,12,,,,,,,,,,,,,,,,8,,54,0
69239,note_on,,0,0,18,,,,,,,,,,,,,,,,15,,57,0
69239,note_on,,119,0,6,,,,,,,,,,,,,,,,2,,54,0
69239,note_on,,0,0,18,,,,,,,,,,,,,,,,15,,69,0
69239,note_on,,119,0,18,,,,,,,,,,,,,,,,15,,54,0
69239,note_on,,0,0,18,,,,,,,,,,,,,,,,15,,73,0
69239,note_on,,59,0,11,,,,,,,,,,,,,,,,7,,64,0
69239,note_on,,59,0,10,,,,,,,,,,,,,,,,6,,67,0
69239,note_on,,119,0,17,,,,,,,,,,,,,,,,13,,54,0
69240,note_on,,1,0,16,,,,,,,,,,,,,,,,12,,62,60
69240,note_on,,1,0,10,,,,,,,,,,,,,,,,6,,66,72
69240,note_on,,1,0,15,,,,,,,,,,,,,,,,11,,66,72
69240,note_on,,1,0,17,,,,,,,,,,,,,,,,13,,59,72
69240,note_on,,1,0,12,,,,,,,,,,,,,,,,8,,59,72
69240,note_on,,1,0,6,,,,,,,,,,,,,,,,2,,59,72
69240,note_on,,1,0,11,,,,,,,,,,,,,,,,7,,62,72
69240,note_on,,1,0,18,,,,,,,,,,,,,,,,15,,59,72
69240,note_on,,0,0,18,,,,,,,,,,,,,,,,15,,74,72
69240,note_on,,0,0,18,,,,,,,,,,,,,,,,15,,71,72
69299,note_on,,59,0,11,,,,,,,,,,,,,,,,7,,62,0
69299,note_on,,179,0,14,,,,,,,,,,,,,,,,10,,78,0
69299,note_on,,179,0,5,,,,,,,,,,,,,,,,1,,78,0
69299,note_on,,59,0,16,,,,,,,,,,,,,,,,12,,62,0
69299,note_on,,179,0,9,,,,,,,,,,,,,,,,5,,78,0
69300,note_on,,1,0,5,,,,,,,,,,,,,,,,1,,76,72
69300,note_on,,1,0,9,,,,,,,,,,,,,,,,5,,76,72
69300,note_on,,1,0,11,,,,,,,,,,,,,,,,7,,61,72
69300,note_on,,1,0,16,,,,,,,,,,,,,,,,12,,61,60
69300,note_on,,1,0,14,,,,,,,,,,,,,,,,10,,76,72
69359,note_on,,119,0,10,,,,,,,,,,,,,,,,6,,66,0
69359,note_on,,59,0,5,,,,,,,,,,,,,,,,1,,76,0
69359,note_on,,119,0,18,,,,,,,,,,,,,,,,15,,78,0
69359,note_on,,59,0,11,,,,,,,,,,,,,,,,7,,61,0
69359,note_on,,59,0,16,,,,,,,,,,,,,,,,12,,61,0
69359,note_on,,59,0,9,,,,,,,,,,,,,,,,5,,76,0
69359,note_on,,0,0,18,,,,,,,,,,,,,,,,15,,71,0
69359,note_on,,59,0,14,,,,,,,,,,,,,,,,10,,76,0
69359,note_on,,119,0,15,,,,,,,,,,,,,,,,11,,66,0
69359,note_on,,0,0,18,,,,,,,,,,,,,,,,15,,74,0
69360,note_on,,1,0,9,,,,,,,,,,,,,,,,5,,74,72
69360,note_on,,1,0,15,,,,,,,,,,,,,,,,11,,71,72
69360,note_on,,1,0,16,,,,,,,,,,,,,,,,12,,59,60
69360,note_on,,1,0,5,,,,,,,,,,,,,,,,1,,74,72
69360,note_on,,0,0,18,,,,,,,,,,,,,,,,15,,62,72
69360,note_on,,0,0,18,,,,,,,,,,,,,,,,15,,66,72
69360,note_on,,1,0,14,,,,,,,,,,,,,,,,10,,74,72
69360,note_on,,1,0,10,,,,,,,,,,,,,,,,6,,71,72
69360,note_on,,1,0,11,,,,,,,,,,,,,,,,7,,59,72
69360,note_on,,1,0,18,,,,,,,,,,,,,,,,15,,71,72
69419,note_on,,59,0,5,,,,,,,,,,,,,,,,1,,74,0
69419,note_on,,59,0,18,,,,,,,,,,,,,,,,15,,59,0
69419,note_on,,179,0,6,,,,,,,,,,,,,,,,2,,59,0
69419,note_on,,179,0,17,,,,,,,,,,,,,,,,13,,59,0
69419,note_on,,179,0,12,,,,,,,,,,,,,,,,8,,59,0
69419,note_on,,59,0,9,,,,,,,,,,,,,,,,5,,74,0
69419,note_on,,59,0,14,,,,,,,,,,,,,,,,10,,74,0
69420,note_on,,1,0,18,,,,,,,,,,,,,,,,15,,57,72
69420,note_on,,1,0,12,,,,,,,,,,,,,,,,8,,57,72
69420,note_on,,1,0,17,,,,,,,,,,,,,,,,13,,57,72
69420,note_on,,1,0,5,,,,,,,,,,,,,,,,1,,73,72
69420,note_on,,1,0,6,,,,,,,,,,,,,,,,2,,57,72
69420,note_on,,1,0,9,,,,,,,,,,,,,,,,5,,73,72
69420,note_on,,1,0,14,,,,,,,,,,,,,,,,10,,73,72
69479,note_on,,59,0,9,,,,,,,,,,,,,,,,5,,73,0
69479,note_on,,59,0,18,,,,,,,,,,,,,,,,15,,66,0
69479,note_on,,119,0,16,,,,,,,,,,,,,,,,12,,59,0
69479,note_on,,59,0,5,,,,,,,,,,,,,,,,1,,73,0
69479,note_on,,59,0,14,,,,,,,,,,,,,,,,10,,73,0
69479,note_on,,119,0,11,,,,,,,,,,,,,,,,7,,59,0
69479,note_on,,59,0,6,,,,,,,,,,,,,,,,2,,57,0
69479,note_on,,59,0,17,,,,,,,,,,,,,,,,13,,57,0
69479,note_on,,0,0,18,,,,,,,,,,,,,,,,15,,62,0
69479,note_on,,59,0,12,,,,,,,,,,,,,,,,8,,57,0
69479,note_on,,0,0,18,,,,,,,,,,,,,,,,15,,57,0
69480,note_on,,1,0,14,,,,,,,,,,,,,,,,10,,71,72
69480,note_on,,1,0,12,,,,,,,,,,,,,,,,8,,55,72
69480,note_on,,1,0,11,,,,,,,,,,,,,,,,7,,64,72
69480,note_on,,1,0,18,,,,,,,,,,,,,,,,15,,55,72
69480,note_on,,1,0,17,,,,,,,,,,,,,,,,13,,55,72
69480,note_on,,1,0,5,,,,,,,,,,,,,,,,1,,71,72
69480,note_on,,1,0,16,,,,,,,,,,,,,,,,12,,64,60
69480,note_on,,1,0,9,,,,,,,,,,,,,,,,5,,71,72
69480,note_on,,0,0,18,,,,,,,,,,,,,,,,15,,59,72
69480,note_on,,0,0,18,,,,,,,,,,,,,,,,15,,67,72
69480,note_on,,0,0,18,,,,,,,,,,,,,,,,15,,64,72
69480,note_on,,1,0,6,,,,,,,,,,,,,,,,2,,55,72
69539,note_on,,179,0,15,,,,,,,,,,,,,,,,11,,71,0
69539,note_on,,59,0,5,,,,,,,,,,,,,,,,1,,71,0
69539,note_on,,59,0,18,,,,,,,,,,,,,,,,15,,55,0
69539,note_on,,59,0,9,,,,,,,,,,,,,,,,5,,71,0
69539,note_on,,59,0,6,,,,,,,,,,,,,,,,2,,55,0
69539,note_on,,59,0,14,,,,,,,,,,,,,,,,10,,71,0
69539,note_on,,179,0,10,,,,,,,,,,,,,,,,6,,71,0
69539,note_on,,59,0,12,,,,,,,,,,,,,,,,8,,55,0
69539,note_on,,59,0,17,,,,,,,,,,,,,,,,13,,55,0
69540,note_on,,1,0,14,,,,,,,,,,,,,,,,10,,73,72
69540,note_on,,1,0,10,,,,,,,,,,,,,,,,6,,69,72
69540,note_on,,1,0,5,,,,,,,,,,,,,,,,1,,73,72
69540,note_on,,1,0,18,,,,,,,,,,,,,,,,15,,54,72
69540,note_on,,1,0,15,,,,,,,,,,,,,,,,11,,69,72
69540,note_on,,1,0,6,,,,,,,,,,,,,,,,2,,54,72
69540,note_on,,1,0,9,,,,,,,,,,,,,,,,5,,73,72
69540,note_on,,1,0,12,,,,,,,,,,,,,,,,8,,54,72
69540,note_on,,1,0,17,,,,,,,,,,,,,,,,13,,54,72
69569,note_on,,29,0,5,,,,,,,,,,,,,,,,1,,73,0
69569,note_on,,29,0,14,,,,,,,,,,,,,,,,10,,73,0
69569,note_on,,29,0,9,,,,,,,,,,,,,,,,5,,73,0
69570,note_on,,1,0,5,,,,,,,,,,,,,,,,1,,74,72
69570,note_on,,1,0,14,,,,,,,,,,,,,,,,10,,74,72
69570,note_on,,1,0,9,,,,,,,,,,,,,,,,5,,74,72
69599,note_on,,59,0,12,,,,,,,,,,,,,,,,8,,54,0
69599,note_on,,0,0,18,,,,,,,,,,,,,,,,15,,64,0
69599,note_on,,0,0,18,,,,,,,,,,,,,,,,15,,54,0
69599,note_on,,59,0,17,,,,,,,,,,,,,,,,13,,54,0
69599,note_on,,59,0,6,,,,,,,,,,,,,,,,2,,54,0
69599,note_on,,59,0,10,,,,,,,,,,,,,,,,6,,69,0
69599,note_on,,59,0,15,,,,,,,,,,,,,,,,11,,69,0
69599,note_on,,29,0,9,,,,,,,,,,,,,,,,5,,74,0
69599,note_on,,29,0,14,,,,,,,,,,,,,,,,10,,74,0
69599,note_on,,0,0,18,,,,,,,,,,,,,,,,15,,67,0
69599,note_on,,29,0,5,,,,,,,,,,,,,,,,1,,74,0
69599,note_on,,59,0,18,,,,,,,,,,,,,,,,15,,71,0
69600,note_on,,1,0,5,,,,,,,,,,,,,,,,1,,76,72
69600,note_on,,1,0,18,,,,,,,,,,,,,,,,15,,52,72
69600,note_on,,1,0,17,,,,,,,,,,,,,,,,13,,52,72
69600,note_on,,1,0,6,,,,,,,,,,,,,,,,2,,52,72
69600,note_on,,1,0,10,,,,,,,,,,,,,,,,6,,67,72
69600,note_on,,1,0,12,,,,,,,,,,,,,,,,8,,52,72
69600,note_on,,0,0,18,,,,,,,,,,,,,,,,15,,71,72
69600,note_on,,0,0,18,,,,,,,,,,,,,,,,15,,76,72
69600,note_on,,1,0,9,,,,,,,,,,,,,,,,5,,76,72
69600,note_on,,0,0,18,,,,,,,,,,,,,,,,15,,79,72
69600,note_on,,1,0,15,,,,,,,,,,,,,,,,11,,67,72
69600,note_on,,1,0,14,,,,,,,,,,,,,,,,10,,76,72
69659,note_on,,59,0,15,,,,,,,,,,,,,,,,11,,67,0
69659,note_on,,179,0,16,,,,,,,,,,,,,,,,12,,64,0
69659,note_on,,59,0,6,,,,,,,,,,,,,,,,2,,52,0
69659,note_on,,59,0,17,,,,,,,,,,,,,,,,13,,52,0
69659,note_on,,179,0,11,,,,,,,,,,,,,,,,7,,64,0
69659,note_on,,59,0,18,,,,,,,,,,,,,,,,15,,52,0
69659,note_on,,59,0,10,,,,,,,,,,,,,,,,6,,67,0
69659,note_on,,59,0,12,,,,,,,,,,,,,,,,8,,52,0
69660,note_on,,1,0,15,,,,,,,,,,,,,,,,11,,66,72
69660,note_on,,1,0,17,,,,,,,,,,,,,,,,13,,54,72
69660,note_on,,1,0,18,,,,,,,,,,,,,,,,15,,54,72
69660,note_on,,1,0,12,,,,,,,,,,,,,,,,8,,54,72
69660,note_on,,1,0,10,,,,,,,,,,,,,,,,6,,66,72
69660,note_on,,1,0,6,,,,,,,,,,,,,,,,2,,54,72
69660,note_on,,1,0,11,,,,,,,,,,,,,,,,7,,62,72
69660,note_on,,1,0,16,,,,,,,,,,,,,,,,12,,62,60
69689,note_on,,29,0,18,,,,,,,,,,,,,,,,15,,54,0
69689,note_on,,29,0,6,,,,,,,,,,,,,,,,2,,54,0
69689,note_on,,29,0,17,,,,,,,,,,,,,,,,13,,54,0
69689,note_on,,29,0,12,,,,,,,,,,,,,,,,8,,54,0
69690,note_on,,1,0,12,,,,,,,,,,,,,,,,8,,55,72
69690,note_on,,1,0,6,,,,,,,,,,,,,,,,2,,55,72
69690,note_on,,1,0,18,,,,,,,,,,,,,,,,15,,55,72
69690,note_on,,1,0,17,,,,,,,,,,,,,,,,13,,55,72
69719,note_on,,0,0,18,,,,,,,,,,,,,,,,15,,76,0
69719,note_on,,59,0,16,,,,,,,,,,,,,,,,12,,62,0
69719,note_on,,29,0,12,,,,,,,,,,,,,,,,8,,55,0
69719,note_on,,29,0,17,,,,,,,,,,,,,,,,13,,55,0
69719,note_on,,59,0,11,,,,,,,,,,,,,,,,7,,62,0
69719,note_on,,29,0,18,,,,,,,,,,,,,,,,15,,59,0
69719,note_on,,59,0,10,,,,,,,,,,,,,,,,6,,66,0
69719,note_on,,0,0,18,,,,,,,,,,,,,,,,15,,71,0
69719,note_on,,59,0,15,,,,,,,,,,,,,,,,11,,66,0
69719,note_on,,29,0,6,,,,,,,,,,,,,,,,2,,55,0
69719,note_on,,0,0,18,,,,,,,,,,,,,,,,15,,55,0
69720,note_on,,1,0,12,,,,,,,,,,,,,,,,8,,57,72
69720,note_on,,1,0,11,,,,,,,,,,,,,,,,7,,61,72
69720,note_on,,1,0,18,,,,,,,,,,,,,,,,15,,57,72
69720,note_on,,0,0,18,,,,,,,,,,,,,,,,15,,73,72
69720,note_on,,1,0,16,,,,,,,,,,,,,,,,12,,61,60
69720,note_on,,0,0,18,,,,,,,,,,,,,,,,15,,61,72
69720,note_on,,1,0,6,,,,,,,,,,,,,,,,2,,57,72
69720,note_on,,1,0,10,,,,,,,,,,,,,,,,6,,64,72
69720,note_on,,1,0,15,,,,,,,,,,,,,,,,11,,64,72
69720,note_on,,0,0,18,,,,,,,,,,,,,,,,15,,69,72
69720,note_on,,1,0,17,,,,,,,,,,,,,,,,13,,57,72
69779,note_on,,59,0,10,,,,,,,,,,,,,,,,6,,64,0
69779,note_on,,179,0,14,,,,,,,,,,,,,,,,10,,76,0
69779,note_on,,59,0,15,,,,,,,,,,,,,,,,11,,64,0
69779,note_on,,59,0,11,,,,,,,,,,,,,,,,7,,61,0
69779,note_on,,179,0,5,,,,,,,,,,,,,,,,1,,76,0
69779,note_on,,179,0,9,,,,,,,,,,,,,,,,5,,76,0
69779,note_on,,59,0,16,,,,,,,,,,,,,,,,12,,61,0
69780,note_on,,1,0,14,,,,,,,,,,,,,,,,10,,74,72
69780,note_on,,1,0,9,,,,,,,,,,,,,,,,5,,74,72
69780,note_on,,1,0,16,,,,,,,,,,,,,,,,12,,59,60
69780,note_on,,1,0,10,,,,,,,,,,,,,,,,6,,66,72
69780,note_on,,1,0,5,,,,,,,,,,,,,,,,1,,74,72
69780,note_on,,1,0,11,,,,,,,,,,,,,,,,7,,59,72
69780,note_on,,1,0,15,,,,,,,,,,,,,,,,11,,66,72
69809,note_on,,29,0,15,,,,,,,,,,,,,,,,11,,66,0
69809,note_on,,29,0,10,,,,,,,,,,,,,,,,6,,66,0
69810,note_on,,1,0,10,,,,,,,,,,,,,,,,6,,67,72
69810,note_on,,1,0,15,,,,,,,,,,,,,,,,11,,67,72
69839,note_on,,59,0,14,,,,,,,,,,,,,,,,10,,74,0
69839,note_on,,29,0,15,,,,,,,,,,,,,,,,11,,67,0
69839,note_on,,59,0,9,,,,,,,,,,,,,,,,5,,74,0
69839,note_on,,59,0,16,,,,,,,,,,,,,,,,12,,59,0
69839,note_on,,59,0,5,,,,,,,,,,,,,,,,1,,74,0
69839,note_on,,0,0,18,,,,,,,,,,,,,,,,15,,73,0
69839,note_on,,119,0,18,,,,,,,,,,,,,,,,15,,79,0
69839,note_on,,59,0,11,,,,,,,,,,,,,,,,7,,59,0
69839,note_on,,0,0,18,,,,,,,,,,,,,,,,15,,69,0
69839,note_on,,29,0,10,,,,,,,,,,,,,,,,6,,67,0
69840,note_on,,1,0,10,,,,,,,,,,,,,,,,6,,69,72
69840,note_on,,1,0,9,,,,,,,,,,,,,,,,5,,73,72
69840,note_on,,1,0,16,,,,,,,,,,,,,,,,12,,57,60
69840,note_on,,1,0,18,,,,,,,,,,,,,,,,15,,76,72
69840,note_on,,0,0,18,,,,,,,,,,,,,,,,15,,73,72
69840,note_on,,0,0,18,,,,,,,,,,,,,,,,15,,69,72
69840,note_on,,1,0,5,,,,,,,,,,,,,,,,1,,73,72
69840,note_on,,1,0,15,,,,,,,,,,,,,,,,11,,69,72
69840,note_on,,1,0,14,,,,,,,,,,,,,,,,10,,73,72
69840,note_on,,1,0,11,,,,,,,,,,,,,,,,7,,57,72
69899,note_on,,59,0,16,,,,,,,,,,,,,,,,12,,57,0
69899,note_on,,179,0,17,,,,,,,,,,,,,,,,13,,57,0
69899,note_on,,179,0,12,,,,,,,,,,,,,,,,8,,57,0
69899,note_on,,59,0,9,,,,,,,,,,,,,,,,5,,73,0
69899,note_on,,59,0,14,,,,,,,,,,,,,,,,10,,73,0
69899,note_on,,59,0,18,,,,,,,,,,,,,,,,15,,57,0
69899,note_on,,59,0,5,,,,,,,,,,,,,,,,1,,73,0
69899,note_on,,59,0,11,,,,,,,,,,,,,,,,7,,57,0
69899,note_on,,179,0,6,,,,,,,,,,,,,,,,2,,57,0
69900,note_on,,1,0,12,,,,,,,,,,,,,,,,8,,55,72
69900,note_on,,1,0,16,,,,,,,,,,,,,,,,12,,59,60
69900,note_on,,1,0,9,,,,,,,,,,,,,,,,5,,71,72
69900,note_on,,1,0,18,,,,,,,,,,,,,,,,15,,55,72
69900,note_on,,1,0,5,,,,,,,,,,,,,,,,1,,71,72
69900,note_on,,1,0,11,,,,,,,,,,,,,,,,7,,59,72
69900,note_on,,1,0,17,,,,,,,,,,,,,,,,13,,55,72
69900,note_on,,1,0,14,,,,,,,,,,,,,,,,10,,71,72
69900,note_on,,1,0,6,,,,,,,,,,,,,,,,2,,55,72
69929,note_on,,29,0,11,,,,,,,,,,,,,,,,7,,59,0
69929,note_on,,29,0,16,,,,,,,,,,,,,,,,12,,59,0
69930,note_on,,1,0,11,,,,,,,,,,,,,,,,7,,61,72
69930,note_on,,1,0,16,,,,,,,,,,,,,,,,12,,61,60
69959,note_on,,0,0,18,,,,,,,,,,,,,,,,15,,55,0
69959,note_on,,59,0,6,,,,,,,,,,,,,,,,2,,55,0
69959,note_on,,59,0,12,,,,,,,,,,,,,,,,8,,55,0
69959,note_on,,0,0,18,,,,,,,,,,,,,,,,15,,69,0
69959,note_on,,0,0,18,,,,,,,,,,,,,,,,15,,73,0
69959,note_on,,0,0,18,,,,,,,,,,,,,,,,15,,76,0
69959,note_on,,59,0,18,,,,,,,,,,,,,,,,15,,61,0
69959,note_on,,29,0,16,,,,,,,,,,,,,,,,12,,61,0
69959,note_on,,59,0,17,,,,,,,,,,,,,,,,13,,55,0
69959,note_on,,29,0,11,,,,,,,,,,,,,,,,7,,61,0
69959,note_on,,59,0,9,,,,,,,,,,,,,,,,5,,71,0
69959,note_on,,59,0,5,,,,,,,,,,,,,,,,1,,71,0
69959,note_on,,59,0,14,,,,,,,,,,,,,,,,10,,71,0
69960,note_on,,1,0,12,,,,,,,,,,,,,,,,8,,54,72
69960,note_on,,1,0,14,,,,,,,,,,,,,,,,10,,69,72
69960,note_on,,1,0,16,,,,,,,,,,,,,,,,12,,62,60
69960,note_on,,0,0,18,,,,,,,,,,,,,,,,15,,69,72
69960,note_on,,1,0,9,,,,,,,,,,,,,,,,5,,69,72
69960,note_on,,1,0,5,,,,,,,,,,,,,,,,1,,69,72
69960,note_on,,1,0,18,,,,,,,,,,,,,,,,15,,54,72
69960,note_on,,0,0,18,,,,,,,,,,,,,,,,15,,57,72
69960,note_on,,0,0,18,,,,,,,,,,,,,,,,15,,81,72
69960,note_on,,1,0,11,,,,,,,,,,,,,,,,7,,62,72
69960,note_on,,0,0,18,,,,,,,,,,,,,,,,15,,74,72
69960,note_on,,1,0,17,,,,,,,,,,,,,,,,13,,54,72
69960,note_on,,1,0,6,,,,,,,,,,,,,,,,2,,54,72
70019,note_on,,59,0,6,,,,,,,,,,,,,,,,2,,54,0
70019,note_on,,59,0,9,,,,,,,,,,,,,,,,5,,69,0
70019,note_on,,59,0,12,,,,,,,,,,,,,,,,8,,54,0
70019,note_on,,179,0,15,,,,,,,,,,,,,,,,11,,69,0
70019,note_on,,0,0,18,,,,,,,,,,,,,,,,15,,57,0
70019,note_on,,59,0,14,,,,,,,,,,,,,,,,10,,69,0
70019,note_on,,179,0,10,,,,,,,,,,,,,,,,6,,69,0
70019,note_on,,59,0,17,,,,,,,,,,,,,,,,13,,54,0
70019,note_on,,59,0,5,,,,,,,,,,,,,,,,1,,69,0
70019,note_on,,59,0,18,,,,,,,,,,,,,,,,15,,54,0
70020,note_on,,1,0,18,,,,,,,,,,,,,,,,15,,52,72
70020,note_on,,1,0,6,,,,,,,,,,,,,,,,2,,52,72
70020,note_on,,1,0,10,,,,,,,,,,,,,,,,6,,67,72
70020,note_on,,1,0,9,,,,,,,,,,,,,,,,5,,71,72
70020,note_on,,1,0,17,,,,,,,,,,,,,,,,13,,52,72
70020,note_on,,0,0,18,,,,,,,,,,,,,,,,15,,55,72
70020,note_on,,1,0,15,,,,,,,,,,,,,,,,11,,67,72
70020,note_on,,1,0,12,,,,,,,,,,,,,,,,8,,52,72
70020,note_on,,1,0,5,,,,,,,,,,,,,,,,1,,71,72
70020,note_on,,1,0,14,,,,,,,,,,,,,,,,10,,71,72
70049,note_on,,29,0,9,,,,,,,,,,,,,,,,5,,71,0
70049,note_on,,29,0,5,,,,,,,,,,,,,,,,1,,71,0
70049,note_on,,29,0,14,,,,,,,,,,,,,,,,10,,71,0
70050,note_on,,1,0,9,,,,,,,,,,,,,,,,5,,73,72
70050,note_on,,1,0,5,,,,,,,,,,,,,,,,1,,73,72
70050,note_on,,1,0,14,,,,,,,,,,,,,,,,10,,73,72
70079,note_on,,29,0,9,,,,,,,,,,,,,,,,5,,73,0
70079,note_on,,59,0,18,,,,,,,,,,,,,,,,15,,74,0
70079,note_on,,0,0,18,,,,,,,,,,,,,,,,15,,69,0
70079,note_on,,29,0,14,,,,,,,,,,,,,,,,10,,73,0
70079,note_on,,59,0,17,,,,,,,,,,,,,,,,13,,52,0
70079,note_on,,29,0,5,,,,,,,,,,,,,,,,1,,73,0
70079,note_on,,59,0,15,,,,,,,,,,,,,,,,11,,67,0
70079,note_on,,119,0,16,,,,,,,,,,,,,,,,12,,62,0
70079,note_on,,59,0,6,,,,,,,,,,,,,,,,2,,52,0
70079,note_on,,0,0,18,,,,,,,,,,,,,,,,15,,55,0
70079,note_on,,59,0,12,,,,,,,,,,,,,,,,8,,52,0
70079,note_on,,59,0,10,,,,,,,,,,,,,,,,6,,67,0
70079,note_on,,119,0,11,,,,,,,,,,,,,,,,7,,62,0
70079,note_on,,0,0,18,,,,,,,,,,,,,,,,15,,52,0
70080,note_on,,1,0,15,,,,,,,,,,,,,,,,11,,66,72
70080,note_on,,1,0,17,,,,,,,,,,,,,,,,13,,50,72
70080,note_on,,0,0,18,,,,,,,,,,,,,,,,15,,78,72
70080,note_on,,1,0,16,,,,,,,,,,,,,,,,12,,62,60
70080,note_on,,1,0,11,,,,,,,,,,,,,,,,7,,62,72
70080,note_on,,1,0,18,,,,,,,,,,,,,,,,15,,50,72
70080,note_on,,14041,0,7,,,,,,,,,,,,,,,,3,,74,72
70080,note_on,,1,0,12,,,,,,,,,,,,,,,,8,,50,72
70080,note_on,,1,0,6,,,,,,,,,,,,,,,,2,,50,72
70080,note_on,,1,0,9,,,,,,,,,,,,,,,,5,,74,72
70080,note_on,,1,0,5,,,,,,,,,,,,,,,,1,,74,72
70080,note_on,,1,0,10,,,,,,,,,,,,,,,,6,,66,72
70080,note_on,,0,0,18,,,,,,,,,,,,,,,,15,,57,72
70080,note_on,,0,0,18,,,,,,,,,,,,,,,,15,,74,72
70080,note_on,,14041,0,13,,,,,,,,,,,,,,,,14,,50,72
70080,note_on,,1,0,14,,,,,,,,,,,,,,,,10,,74,72
70080,note_on,,14041,0,8,,,,,,,,,,,,,,,,4,,66,72
70139,note_on,,59,0,6,,,,,,,,,,,,,,,,2,,50,0
70139,note_on,,59,0,17,,,,,,,,,,,,,,,,13,,50,0
70139,note_on,,59,0,12,,,,,,,,,,,,,,,,8,,50,0
70139,note_on,,59,0,18,,,,,,,,,,,,,,,,15,,50,0
70140,note_on,,1,0,17,,,,,,,,,,,,,,,,13,,49,72
70140,note_on,,1,0,6,,,,,,,,,,,,,,,,2,,49,72
70140,note_on,,1,0,18,,,,,,,,,,,,,,,,15,,49,72
70140,note_on,,1,0,12,,,,,,,,,,,,,,,,8,,49,72
70199,note_on,,119,0,15,,,,,,,,,,,,,,,,11,,66,0
70199,note_on,,119,0,8,,,,,,,,,,,,,,,,4,,66,0
70199,note_on,,59,0,17,,,,,,,,,,,,,,,,13,,49,0
70199,note_on,,119,0,13,,,,,,,,,,,,,,,,14,,50,0
70199,note_on,,59,0,6,,,,,,,,,,,,,,,,2,,49,0
70199,note_on,,0,0,18,,,,,,,,,,,,,,,,15,,49,0
70199,note_on,,0,0,18,,,,,,,,,,,,,,,,15,,57,0
70199,note_on,,0,0,18,,,,,,,,,,,,,,,,15,,74,0
70199,note_on,,0,0,18,,,,,,,,,,,,,,,,15,,78,0
70199,note_on,,59,0,18,,,,,,,,,,,,,,,,15,,81,0
70199,note_on,,59,0,12,,,,,,,,,,,,,,,,8,,49,0
70199,note_on,,119,0,10,,,,,,,,,,,,,,,,6,,66,0
70200,note_on,,1,0,18,,,,,,,,,,,,,,,,15,,47,72
70200,note_on,,0,0,18,,,,,,,,,,,,,,,,15,,55,72
70200,note_on,,0,0,18,,,,,,,,,,,,,,,,15,,74,72
70200,note_on,,0,0,18,,,,,,,,,,,,,,,,15,,71,72
70200,note_on,,1,0,12,,,,,,,,,,,,,,,,8,,47,72
70200,note_on,,1,0,10,,,,,,,,,,,,,,,,6,,67,72
70200,note_on,,1,0,8,,,,,,,,,,,,,,,,4,,62,72
70200,note_on,,1,0,6,,,,,,,,,,,,,,,,2,,47,72
70200,note_on,,1,0,15,,,,,,,,,,,,,,,,11,,67,72
70200,note_on,,1,0,17,,,,,,,,,,,,,,,,13,,47,72
70259,note_on,,179,0,14,,,,,,,,,,,,,,,,10,,74,0
70259,note_on,,179,0,9,,,,,,,,,,,,,,,,5,,74,0
70259,note_on,,179,0,5,,,,,,,,,,,,,,,,1,,74,0
70259,note_on,,179,0,7,,,,,,,,,,,,,,,,3,,74,0
70260,note_on,,1,0,14,,,,,,,,,,,,,,,,10,,76,72
70260,note_on,,1,0,7,,,,,,,,,,,,,,,,3,,76,72
70260,note_on,,1,0,5,,,,,,,,,,,,,,,,1,,76,72
70260,note_on,,61,0,13,,,,,,,,,,,,,,,,14,,50,72
70260,note_on,,1,0,9,,,,,,,,,,,,,,,,5,,76,72
70319,note_on,,0,0,18,,,,,,,,,,,,,,,,15,,71,0
70319,note_on,,59,0,7,,,,,,,,,,,,,,,,3,,76,0
70319,note_on,,119,0,6,,,,,,,,,,,,,,,,2,,47,0
70319,note_on,,119,0,15,,,,,,,,,,,,,,,,11,,67,0
70319,note_on,,119,0,10,,,,,,,,,,,,,,,,6,,67,0
70319,note_on,,59,0,13,,,,,,,,,,,,,,,,14,,50,0
70319,note_on,,59,0,14,,,,,,,,,,,,,,,,10,,76,0
70319,note_on,,119,0,12,,,,,,,,,,,,,,,,8,,47,0
70319,note_on,,59,0,5,,,,,,,,,,,,,,,,1,,76,0
70319,note_on,,119,0,17,,,,,,,,,,,,,,,,13,,47,0
70319,note_on,,59,0,9,,,,,,,,,,,,,,,,5,,76,0
70319,note_on,,0,0,18,,,,,,,,,,,,,,,,15,,74,0
70319,note_on,,119,0,18,,,,,,,,,,,,,,,,15,,47,0
70319,note_on,,119,0,8,,,,,,,,,,,,,,,,4,,62,0
70319,note_on,,0,0,18,,,,,,,,,,,,,,,,15,,55,0
70320,note_on,,1,0,7,,,,,,,,,,,,,,,,3,,78,72
70320,note_on,,1,0,17,,,,,,,,,,,,,,,,13,,45,72
70320,note_on,,1,0,9,,,,,,,,,,,,,,,,5,,78,72
70320,note_on,,1,0,18,,,,,,,,,,,,,,,,15,,45,72
70320,note_on,,0,0,18,,,,,,,,,,,,,,,,15,,57,72
70320,note_on,,0,0,18,,,,,,,,,,,,,,,,15,,78,72
70320,note_on,,0,0,18,,,,,,,,,,,,,,,,15,,74,72
70320,note_on,,1,0,5,,,,,,,,,,,,,,,,1,,78,72
70320,note_on,,1,0,10,,,,,,,,,,,,,,,,6,,69,72
70320,note_on,,1,0,8,,,,,,,,,,,,,,,,4,,69,72
70320,note_on,,1,0,6,,,,,,,,,,,,,,,,2,,45,72
70320,note_on,,1,0,12,,,,,,,,,,,,,,,,8,,45,72
70320,note_on,,1,0,14,,,,,,,,,,,,,,,,10,,78,72
70320,note_on,,1,0,15,,,,,,,,,,,,,,,,11,,69,72
70320,note_on,,0,0,18,,,,,,,,,,,,,,,,15,,81,72
70320,note_on,,1,0,13,,,,,,,,,,,,,,,,14,,45,72
70379,note_on,,59,0,14,,,,,,,,,,,,,,,,10,,78,0
70379,note_on,,59,0,5,,,,,,,,,,,,,,,,1,,78,0
70379,note_on,,59,0,7,,,,,,,,,,,,,,,,3,,78,0
70379,note_on,,59,0,9,,,,,,,,,,,,,,,,5,,78,0
70380,note_on,,1,0,5,,,,,,,,,,,,,,,,1,,79,72
70380,note_on,,1,0,9,,,,,,,,,,,,,,,,5,,79,72
70380,note_on,,1,0,7,,,,,,,,,,,,,,,,3,,79,72
70380,note_on,,1,0,14,,,,,,,,,,,,,,,,10,,79,72
70439,note_on,,59,0,5,,,,,,,,,,,,,,,,1,,79,0
70439,note_on,,119,0,8,,,,,,,,,,,,,,,,4,,69,0
70439,note_on,,59,0,7,,,,,,,,,,,,,,,,3,,79,0
70439,note_on,,59,0,9,,,,,,,,,,,,,,,,5,,79,0
70439,note_on,,359,0,16,,,,,,,,,,,,,,,,12,,62,0
70439,note_on,,359,0,11,,,,,,,,,,,,,,,,7,,62,0
70439,note_on,,119,0,18,,,,,,,,,,,,,,,,15,,78,0
70439,note_on,,0,0,18,,,,,,,,,,,,,,,,15,,74,0
70439,note_on,,119,0,13,,,,,,,,,,,,,,,,14,,45,0
70439,note_on,,59,0,14,,,,,,,,,,,,,,,,10,,79,0
70440,note_on,,1,0,9,,,,,,,,,,,,,,,,5,,81,72
70440,note_on,,1,0,5,,,,,,,,,,,,,,,,1,,81,72
70440,note_on,,0,0,18,,,,,,,,,,,,,,,,15,,69,72
70440,note_on,,1,0,7,,,,,,,,,,,,,,,,3,,81,72
70440,note_on,,1,0,16,,,,,,,,,,,,,,,,12,,61,60
70440,note_on,,0,0,18,,,,,,,,,,,,,,,,15,,73,72
70440,note_on,,1,0,18,,,,,,,,,,,,,,,,15,,76,72
70440,note_on,,1,0,11,,,,,,,,,,,,,,,,7,,61,72
70440,note_on,,1,0,14,,,,,,,,,,,,,,,,10,,81,72
70499,note_on,,59,0,14,,,,,,,,,,,,,,,,10,,81,0
70499,note_on,,59,0,7,,,,,,,,,,,,,,,,3,,81,0
70499,note_on,,59,0,5,,,,,,,,,,,,,,,,1,,81,0
70499,note_on,,59,0,9,,,,,,,,,,,,,,,,5,,81,0
70500,note_on,,1,0,14,,,,,,,,,,,,,,,,10,,76,72
70500,note_on,,61,0,8,,,,,,,,,,,,,,,,4,,69,72
70500,note_on,,1,0,5,,,,,,,,,,,,,,,,1,,76,72
70500,note_on,,1,0,9,,,,,,,,,,,,,,,,5,,76,72
70500,note_on,,1,0,7,,,,,,,,,,,,,,,,3,,76,72
70500,note_on,,61,0,13,,,,,,,,,,,,,,,,14,,45,72
70559,note_on,,239,0,17,,,,,,,,,,,,,,,,13,,45,0
70559,note_on,,119,0,11,,,,,,,,,,,,,,,,7,,61,0
70559,note_on,,59,0,9,,,,,,,,,,,,,,,,5,,76,0
70559,note_on,,59,0,13,,,,,,,,,,,,,,,,14,,45,0
70559,note_on,,119,0,16,,,,,,,,,,,,,,,,12,,61,0
70559,note_on,,0,0,18,,,,,,,,,,,,,,,,15,,69,0
70559,note_on,,0,0,18,,,,,,,,,,,,,,,,15,,73,0
70559,note_on,,0,0,18,,,,,,,,,,,,,,,,15,,76,0
70559,note_on,,239,0,12,,,,,,,,,,,,,,,,8,,45,0
70559,note_on,,119,0,18,,,,,,,,,,,,,,,,15,,45,0
70559,note_on,,0,0,18,,,,,,,,,,,,,,,,15,,57,0
70559,note_on,,59,0,14,,,,,,,,,,,,,,,,10,,76,0
70559,note_on,,239,0,6,,,,,,,,,,,,,,,,2,,45,0
70559,note_on,,59,0,8,,,,,,,,,,,,,,,,4,,69,0
70559,note_on,,59,0,7,,,,,,,,,,,,,,,,3,,76,0
70559,note_on,,0,0,18,,,,,,,,,,,,,,,,15,,81,0
70559,note_on,,59,0,5,,,,,,,,,,,,,,,,1,,76,0
70560,note_on,,1,0,8,,,,,,,,,,,,,,,,4,,69,72
70560,note_on,,0,0,18,,,,,,,,,,,,,,,,15,,57,72
70560,note_on,,0,0,18,,,,,,,,,,,,,,,,15,,69,72
70560,note_on,,1,0,11,,,,,,,,,,,,,,,,7,,62,72
70560,note_on,,1,0,13,,,,,,,,,,,,,,,,14,,50,72
70560,note_on,,0,0,18,,,,,,,,,,,,,,,,15,,74,72
70560,note_on,,0,0,18,,,,,,,,,,,,,,,,15,,78,72
70560,note_on,,1,0,18,,,,,,,,,,,,,,,,15,,50,72
70560,note_on,,1,0,14,,,,,,,,,,,,,,,,10,,78,72
70560,note_on,,1,0,7,,,,,,,,,,,,,,,,3,,78,72
70560,note_on,,1,0,12,,,,,,,,,,,,,,,,8,,50,72
70560,note_on,,1,0,16,,,,,,,,,,,,,,,,12,,62,60
70560,note_on,,1,0,5,,,,,,,,,,,,,,,,1,,78,72
70560,note_on,,1,0,17,,,,,,,,,,,,,,,,13,,50,72
70560,note_on,,1,0,9,,,,,,,,,,,,,,,,5,,78,72
70560,note_on,,1,0,6,,,,,,,,,,,,,,,,2,,50,72
70619,note_on,,59,0,17,,,,,,,,,,,,,,,,13,,50,0
70619,note_on,,59,0,18,,,,,,,,,,,,,,,,15,,50,0
70619,note_on,,59,0,6,,,,,,,,,,,,,,,,2,,50,0
70619,note_on,,59,0,12,,,,,,,,,,,,,,,,8,,50,0
70620,note_on,,1,0,18,,,,,,,,,,,,,,,,15,,52,72
70620,note_on,,1,0,12,,,,,,,,,,,,,,,,8,,52,72
70620,note_on,,1,0,17,,,,,,,,,,,,,,,,13,,52,72
70620,note_on,,1,0,6,,,,,,,,,,,,,,,,2,,52,72
70679,note_on,,119,0,13,,,,,,,,,,,,,,,,14,,50,0
70679,note_on,,119,0,8,,,,,,,,,,,,,,,,4,,69,0
70679,note_on,,59,0,12,,,,,,,,,,,,,,,,8,,52,0
70679,note_on,,59,0,17,,,,,,,,,,,,,,,,13,,52,0
70679,note_on,,59,0,18,,,,,,,,,,,,,,,,15,,52,0
70679,note_on,,59,0,6,,,,,,,,,,,,,,,,2,,52,0
70680,note_on,,1,0,13,,,,,,,,,,,,,,,,14,,50,72
70680,note_on,,1,0,17,,,,,,,,,,,,,,,,13,,54,72
70680,note_on,,1,0,18,,,,,,,,,,,,,,,,15,,54,72
70680,note_on,,1,0,12,,,,,,,,,,,,,,,,8,,54,72
70680,note_on,,1,0,8,,,,,,,,,,,,,,,,4,,62,72
70680,note_on,,1,0,6,,,,,,,,,,,,,,,,2,,54,72
70739,note_on,,59,0,17,,,,,,,,,,,,,,,,13,,54,0
70739,note_on,,59,0,12,,,,,,,,,,,,,,,,8,,54,0
70739,note_on,,59,0,18,,,,,,,,,,,,,,,,15,,54,0
70739,note_on,,59,0,6,,,,,,,,,,,,,,,,2,,54,0
70740,note_on,,1,0,6,,,,,,,,,,,,,,,,2,,55,72
70740,note_on,,1,0,12,,,,,,,,,,,,,,,,8,,55,72
70740,note_on,,1,0,18,,,,,,,,,,,,,,,,15,,55,72
70740,note_on,,1,0,17,,,,,,,,,,,,,,,,13,,55,72
70799,note_on,,239,0,9,,,,,,,,,,,,,,,,5,,78,0
70799,note_on,,0,0,18,,,,,,,,,,,,,,,,15,,55,0
70799,note_on,,119,0,13,,,,,,,,,,,,,,,,14,,50,0
70799,note_on,,239,0,16,,,,,,,,,,,,,,,,12,,62,0
70799,note_on,,239,0,11,,,,,,,,,,,,,,,,7,,62,0
70799,note_on,,239,0,7,,,,,,,,,,,,,,,,3,,78,0
70799,note_on,,479,0,10,,,,,,,,,,,,,,,,6,,69,0
70799,note_on,,0,0,18,,,,,,,,,,,,,,,,15,,74,0
70799,note_on,,59,0,6,,,,,,,,,,,,,,,,2,,55,0
70799,note_on,,59,0,18,,,,,,,,,,,,,,,,15,,78,0
70799,note_on,,119,0,8,,,,,,,,,,,,,,,,4,,62,0
70799,note_on,,239,0,5,,,,,,,,,,,,,,,,1,,78,0
70799,note_on,,0,0,18,,,,,,,,,,,,,,,,15,,69,0
70799,note_on,,59,0,12,,,,,,,,,,,,,,,,8,,55,0
70799,note_on,,0,0,18,,,,,,,,,,,,,,,,15,,57,0
70799,note_on,,59,0,17,,,,,,,,,,,,,,,,13,,55,0
70799,note_on,,239,0,14,,,,,,,,,,,,,,,,10,,78,0
70800,note_on,,1,0,6,,,,,,,,,,,,,,,,2,,57,72
70800,note_on,,1,0,18,,,,,,,,,,,,,,,,15,,57,72
70800,note_on,,1,0,12,,,,,,,,,,,,,,,,8,,57,72
70800,note_on,,1,0,17,,,,,,,,,,,,,,,,13,,57,72
70800,note_on,,0,0,18,,,,,,,,,,,,,,,,15,,69,72
70800,note_on,,1,0,16,,,,,,,,,,,,,,,,12,,61,60
70800,note_on,,1,0,14,,,,,,,,,,,,,,,,10,,76,72
70800,note_on,,1,0,11,,,,,,,,,,,,,,,,7,,61,72
70800,note_on,,1,0,5,,,,,,,,,,,,,,,,1,,76,72
70800,note_on,,1,0,10,,,,,,,,,,,,,,,,6,,69,72
70800,note_on,,1,0,7,,,,,,,,,,,,,,,,3,,76,72
70800,note_on,,1,0,8,,,,,,,,,,,,,,,,4,,69,72
70800,note_on,,0,0,18,,,,,,,,,,,,,,,,15,,76,72
70800,note_on,,0,0,18,,,,,,,,,,,,,,,,15,,61,72
70800,note_on,,1,0,13,,,,,,,,,,,,,,,,14,,45,72
70800,note_on,,0,0,18,,,,,,,,,,,,,,,,15,,73,72
70800,note_on,,1,0,9,,,,,,,,,,,,,,,,5,,76,72
70919,note_on,,119,0,9,,,,,,,,,,,,,,,,5,,76,0
70919,note_on,,119,0,14,,,,,,,,,,,,,,,,10,,76,0
70919,note_on,,119,0,8,,,,,,,,,,,,,,,,4,,69,0
70919,note_on,,119,0,5,,,,,,,,,,,,,,,,1,,76,0
70919,note_on,,599,0,15,,,,,,,,,,,,,,,,11,,69,0
70919,note_on,,119,0,7,,,,,,,,,,,,,,,,3,,76,0
70919,note_on,,119,0,13,,,,,,,,,,,,,,,,14,,45,0
70919,note_on,,119,0,11,,,,,,,,,,,,,,,,7,,61,0
70919,note_on,,119,0,16,,,,,,,,,,,,,,,,12,,61,0
70920,note_on,,1,0,15,,,,,,,,,,,,,,,,11,,76,72
70920,note_on,,1,0,11,,,,,,,,,,,,,,,,7,,64,72
70920,note_on,,1,0,7,,,,,,,,,,,,,,,,3,,81,72
70920,note_on,,1,0,16,,,,,,,,,,,,,,,,12,,69,60
70920,note_on,,1,0,8,,,,,,,,,,,,,,,,4,,69,72
71039,note_on,,0,0,18,,,,,,,,,,,,,,,,15,,69,0
71039,note_on,,0,0,18,,,,,,,,,,,,,,,,15,,73,0
71039,note_on,,239,0,10,,,,,,,,,,,,,,,,6,,69,0
71039,note_on,,119,0,7,,,,,,,,,,,,,,,,3,,81,0
71039,note_on,,0,0,18,,,,,,,,,,,,,,,,15,,76,0
71039,note_on,,119,0,8,,,,,,,,,,,,,,,,4,,69,0
71039,note_on,,239,0,18,,,,,,,,,,,,,,,,15,,61,0
71039,note_on,,119,0,16,,,,,,,,,,,,,,,,12,,69,0
71040,note_on,,1,0,7,,,,,,,,,,,,,,,,3,,79,72
71040,note_on,,1,0,16,,,,,,,,,,,,,,,,12,,67,60
71040,note_on,,121,0,13,,,,,,,,,,,,,,,,14,,45,72
71040,note_on,,1,0,18,,,,,,,,,,,,,,,,15,,73,72
71040,note_on,,0,0,18,,,,,,,,,,,,,,,,15,,64,72
71040,note_on,,1,0,8,,,,,,,,,,,,,,,,4,,76,72
71040,note_on,,1,0,10,,,,,,,,,,,,,,,,6,,67,72
71040,note_on,,0,0,18,,,,,,,,,,,,,,,,15,,67,72
71099,note_on,,179,0,15,,,,,,,,,,,,,,,,11,,76,0
71099,note_on,,179,0,11,,,,,,,,,,,,,,,,7,,64,0
71100,note_on,,1,0,11,,,,,,,,,,,,,,,,7,,62,72
71100,note_on,,1,0,15,,,,,,,,,,,,,,,,11,,74,72
71159,note_on,,119,0,13,,,,,,,,,,,,,,,,14,,45,0
71159,note_on,,59,0,15,,,,,,,,,,,,,,,,11,,74,0
71159,note_on,,59,0,11,,,,,,,,,,,,,,,,7,,62,0
71160,note_on,,1,0,15,,,,,,,,,,,,,,,,11,,73,72
71160,note_on,,1,0,11,,,,,,,,,,,,,,,,7,,61,72
71219,note_on,,59,0,15,,,,,,,,,,,,,,,,11,,73,0
71219,note_on,,59,0,11,,,,,,,,,,,,,,,,7,,61,0
71220,note_on,,1,0,11,,,,,,,,,,,,,,,,7,,59,72
71220,note_on,,1,0,15,,,,,,,,,,,,,,,,11,,71,72
71279,note_on,,0,0,18,,,,,,,,,,,,,,,,15,,67,0
71279,note_on,,239,0,16,,,,,,,,,,,,,,,,12,,67,0
71279,note_on,,59,0,11,,,,,,,,,,,,,,,,7,,59,0
71279,note_on,,239,0,18,,,,,,,,,,,,,,,,15,,73,0
71279,note_on,,59,0,15,,,,,,,,,,,,,,,,11,,71,0
71279,note_on,,0,0,18,,,,,,,,,,,,,,,,15,,64,0
71279,note_on,,239,0,8,,,,,,,,,,,,,,,,4,,76,0
71279,note_on,,239,0,7,,,,,,,,,,,,,,,,3,,79,0
71279,note_on,,239,0,10,,,,,,,,,,,,,,,,6,,67,0
71280,note_on,,1,0,11,,,,,,,,,,,,,,,,7,,57,72
71280,note_on,,1,0,15,,,,,,,,,,,,,,,,11,,69,72
71280,note_on,,1,0,7,,,,,,,,,,,,,,,,3,,78,72
71280,note_on,,1,0,10,,,,,,,,,,,,,,,,6,,66,72
71280,note_on,,121,0,13,,,,,,,,,,,,,,,,14,,45,72
71280,note_on,,1,0,8,,,,,,,,,,,,,,,,4,,74,72
71280,note_on,,1,0,18,,,,,,,,,,,,,,,,15,,62,72
71280,note_on,,1,0,16,,,,,,,,,,,,,,,,12,,66,60
71280,note_on,,0,0,18,,,,,,,,,,,,,,,,15,,66,72
71280,note_on,,0,0,18,,,,,,,,,,,,,,,,15,,69,72
71280,note_on,,0,0,18,,,,,,,,,,,,,,,,15,,74,72
71399,note_on,,119,0,11,,,,,,,,,,,,,,,,7,,57,0
71399,note_on,,119,0,13,,,,,,,,,,,,,,,,14,,45,0
71399,note_on,,119,0,15,,,,,,,,,,,,,,,,11,,69,0
71400,note_on,,1,0,11,,,,,,,,,,,,,,,,7,,62,72
71400,note_on,,1,0,15,,,,,,,,,,,,,,,,11,,74,72
71519,note_on,,239,0,8,,,,,,,,,,,,,,,,4,,74,0
71519,note_on,,239,0,18,,,,,,,,,,,,,,,,15,,62,0
71519,note_on,,0,0,18,,,,,,,,,,,,,,,,15,,74,0
71519,note_on,,0,0,18,,,,,,,,,,,,,,,,15,,69,0
71519,note_on,,0,0,18,,,,,,,,,,,,,,,,15,,66,0
71519,note_on,,239,0,7,,,,,,,,,,,,,,,,3,,78,0
71519,note_on,,239,0,16,,,,,,,,,,,,,,,,12,,66,0
71519,note_on,,239,0,10,,,,,,,,,,,,,,,,6,,66,0
71520,note_on,,1,0,18,,,,,,,,,,,,,,,,15,,61,72
71520,note_on,,0,0,18,,,,,,,,,,,,,,,,15,,69,72
71520,note_on,,121,0,13,,,,,,,,,,,,,,,,14,,45,72
71520,note_on,,1,0,8,,,,,,,,,,,,,,,,4,,69,72
71520,note_on,,1,0,7,,,,,,,,,,,,,,,,3,,76,72
71520,note_on,,0,0,18,,,,,,,,,,,,,,,,15,,64,72
71520,note_on,,1,0,16,,,,,,,,,,,,,,,,12,,64,60
71520,note_on,,1,0,10,,,,,,,,,,,,,,,,6,,64,72
71520,note_on,,0,0,18,,,,,,,,,,,,,,,,15,,76,72
71639,note_on,,119,0,7,,,,,,,,,,,,,,,,3,,76,0
71639,note_on,,119,0,13,,,,,,,,,,,,,,,,14,,45,0
71639,note_on,,239,0,15,,,,,,,,,,,,,,,,11,,74,0
71639,note_on,,239,0,11,,,,,,,,,,,,,,,,7,,62,0
71639,note_on,,119,0,8,,,,,,,,,,,,,,,,4,,69,0
71640,note_on,,1,0,15,,,,,,,,,,,,,,,,11,,73,72
71640,note_on,,1,0,11,,,,,,,,,,,,,,,,7,,61,72
71640,note_on,,721,0,14,,,,,,,,,,,,,,,,10,,76,72
71640,note_on,,721,0,5,,,,,,,,,,,,,,,,1,,76,72
71640,note_on,,1,0,8,,,,,,,,,,,,,,,,4,,69,72
71640,note_on,,721,0,9,,,,,,,,,,,,,,,,5,,76,72
71640,note_on,,1,0,7,,,,,,,,,,,,,,,,3,,76,72
71759,note_on,,119,0,15,,,,,,,,,,,,,,,,11,,73,0
71759,note_on,,239,0,18,,,,,,,,,,,,,,,,15,,61,0
71759,note_on,,0,0,18,,,,,,,,,,,,,,,,15,,76,0
71759,note_on,,0,0,18,,,,,,,,,,,,,,,,15,,69,0
71759,note_on,,0,0,18,,,,,,,,,,,,,,,,15,,64,0
71759,note_on,,119,0,14,,,,,,,,,,,,,,,,10,,76,0
71759,note_on,,239,0,16,,,,,,,,,,,,,,,,12,,64,0
71759,note_on,,119,0,9,,,,,,,,,,,,,,,,5,,76,0
71759,note_on,,119,0,7,,,,,,,,,,,,,,,,3,,76,0
71759,note_on,,119,0,8,,,,,,,,,,,,,,,,4,,69,0
71759,note_on,,119,0,11,,,,,,,,,,,,,,,,7,,61,0
71759,note_on,,119,0,5,,,,,,,,,,,,,,,,1,,76,0
71759,note_on,,239,0,10,,,,,,,,,,,,,,,,6,,64,0
71760,note_on,,1,0,18,,,,,,,,,,,,,,,,15,,62,72
71760,note_on,,1,0,7,,,,,,,,,,,,,,,,3,,69,72
71760,note_on,,0,0,18,,,,,,,,,,,,,,,,15,,69,72
71760,note_on,,1,0,9,,,,,,,,,,,,,,,,5,,69,72
71760,note_on,,1,0,5,,,,,,,,,,,,,,,,1,,69,72
71760,note_on,,1,0,15,,,,,,,,,,,,,,,,11,,78,72
71760,note_on,,1,0,16,,,,,,,,,,,,,,,,12,,62,60
71760,note_on,,0,0,18,,,,,,,,,,,,,,,,15,,78,72
71760,note_on,,1,0,14,,,,,,,,,,,,,,,,10,,69,72
71760,note_on,,1,0,11,,,,,,,,,,,,,,,,7,,66,72
71760,note_on,,1,0,8,,,,,,,,,,,,,,,,4,,66,72
71760,note_on,,121,0,13,,,,,,,,,,,,,,,,14,,45,72
71879,note_on,,119,0,9,,,,,,,,,,,,,,,,5,,69,0
71879,note_on,,119,0,5,,,,,,,,,,,,,,,,1,,69,0
71879,note_on,,119,0,7,,,,,,,,,,,,,,,,3,,69,0
71879,note_on,,119,0,8,,,,,,,,,,,,,,,,4,,66,0
71879,note_on,,119,0,13,,,,,,,,,,,,,,,,14,,45,0
71879,note_on,,119,0,14,,,,,,,,,,,,,,,,10,,69,0
71880,note_on,,1,0,9,,,,,,,,,,,,,,,,5,,74,72
71880,note_on,,1,0,5,,,,,,,,,,,,,,,,1,,74,72
71880,note_on,,121,0,10,,,,,,,,,,,,,,,,6,,69,72
71880,note_on,,1,0,7,,,,,,,,,,,,,,,,3,,81,72
71880,note_on,,1,0,8,,,,,,,,,,,,,,,,4,,78,72
71880,note_on,,1,0,14,,,,,,,,,,,,,,,,10,,86,72
71999,note_on,,239,0,18,,,,,,,,,,,,,,,,15,,62,0
71999,note_on,,119,0,9,,,,,,,,,,,,,,,,5,,74,0
71999,note_on,,119,0,5,,,,,,,,,,,,,,,,1,,74,0
71999,note_on,,239,0,15,,,,,,,,,,,,,,,,11,,78,0
71999,note_on,,239,0,16,,,,,,,,,,,,,,,,12,,62,0
71999,note_on,,0,0,18,,,,,,,,,,,,,,,,15,,78,0
71999,note_on,,119,0,14,,,,,,,,,,,,,,,,10,,86,0
71999,note_on,,239,0,11,,,,,,,,,,,,,,,,7,,66,0
71999,note_on,,119,0,7,,,,,,,,,,,,,,,,3,,81,0
71999,note_on,,0,0,18,,,,,,,,,,,,,,,,15,,69,0
71999,note_on,,119,0,10,,,,,,,,,,,,,,,,6,,69,0
71999,note_on,,119,0,8,,,,,,,,,,,,,,,,4,,78,0
72000,note_on,,1,0,16,,,,,,,,,,,,,,,,12,,69,60
72000,note_on,,1,0,10,,,,,,,,,,,,,,,,6,,67,72
72000,note_on,,1,0,15,,,,,,,,,,,,,,,,11,,76,72
72000,note_on,,0,0,18,,,,,,,,,,,,,,,,15,,69,72
72000,note_on,,0,0,18,,,,,,,,,,,,,,,,15,,67,72
72000,note_on,,1,0,7,,,,,,,,,,,,,,,,3,,79,72
72000,note_on,,1,0,14,,,,,,,,,,,,,,,,10,,85,72
72000,note_on,,1,0,5,,,,,,,,,,,,,,,,1,,73,72
72000,note_on,,1,0,18,,,,,,,,,,,,,,,,15,,73,72
72000,note_on,,1,0,9,,,,,,,,,,,,,,,,5,,73,72
72000,note_on,,121,0,13,,,,,,,,,,,,,,,,14,,45,72
72000,note_on,,1,0,11,,,,,,,,,,,,,,,,7,,64,72
72000,note_on,,1,0,8,,,,,,,,,,,,,,,,4,,76,72
72000,note_on,,0,0,18,,,,,,,,,,,,,,,,15,,64,72
72119,note_on,,119,0,10,,,,,,,,,,,,,,,,6,,67,0
72119,note_on,,119,0,5,,,,,,,,,,,,,,,,1,,73,0
72119,note_on,,119,0,15,,,,,,,,,,,,,,,,11,,76,0
72119,note_on,,119,0,9,,,,,,,,,,,,,,,,5,,73,0
72119,note_on,,119,0,13,,,,,,,,,,,,,,,,14,,45,0
72119,note_on,,1319,0,6,,,,,,,,,,,,,,,,2,,57,0
72119,note_on,,119,0,8,,,,,,,,,,,,,,,,4,,76,0
72119,note_on,,0,0,18,,,,,,,,,,,,,,,,15,,67,0
72119,note_on,,119,0,11,,,,,,,,,,,,,,,,7,,64,0
72119,note_on,,1319,0,12,,,,,,,,,,,,,,,,8,,57,0
72119,note_on,,119,0,18,,,,,,,,,,,,,,,,15,,57,0
72119,note_on,,119,0,16,,,,,,,,,,,,,,,,12,,69,0
72119,note_on,,119,0,14,,,,,,,,,,,,,,,,10,,85,0
72119,note_on,,0,0,18,,,,,,,,,,,,,,,,15,,64,0
72119,note_on,,0,0,18,,,,,,,,,,,,,,,,15,,73,0
72119,note_on,,0,0,18,,,,,,,,,,,,,,,,15,,69,0
72119,note_on,,1319,0,17,,,,,,,,,,,,,,,,13,,57,0
72119,note_on,,119,0,7,,,,,,,,,,,,,,,,3,,79,0
72120,note_on,,1,0,5,,,,,,,,,,,,,,,,1,,74,72
72120,note_on,,1,0,7,,,,,,,,,,,,,,,,3,,78,72
72120,note_on,,1,0,13,,,,,,,,,,,,,,,,14,,50,72
72120,note_on,,0,0,18,,,,,,,,,,,,,,,,15,,74,72
72120,note_on,,0,0,18,,,,,,,,,,,,,,,,15,,69,72
72120,note_on,,1,0,12,,,,,,,,,,,,,,,,8,,50,72
72120,note_on,,1,0,11,,,,,,,,,,,,,,,,7,,62,72
72120,note_on,,1,0,17,,,,,,,,,,,,,,,,13,,50,72
72120,note_on,,0,0,18,,,,,,,,,,,,,,,,15,,66,72
72120,note_on,,0,0,18,,,,,,,,,,,,,,,,15,,62,72
72120,note_on,,1,0,6,,,,,,,,,,,,,,,,2,,50,72
72120,note_on,,1,0,18,,,,,,,,,,,,,,,,15,,50,72
72120,note_on,,1,0,9,,,,,,,,,,,,,,,,5,,74,72
72120,note_on,,1,0,15,,,,,,,,,,,,,,,,11,,78,72
72120,note_on,,1,0,10,,,,,,,,,,,,,,,,6,,66,72
72120,note_on,,1,0,16,,,,,,,,,,,,,,,,12,,69,60
72120,note_on,,1,0,8,,,,,,,,,,,,,,,,4,,74,72
72120,note_on,,1,0,14,,,,,,,,,,,,,,,,10,,86,72
72179,note_on,,59,0,10,,,,,,,,,,,,,,,,6,,66,0
72179,note_on,,59,0,7,,,,,,,,,,,,,,,,3,,78,0
72180,note_on,,1,0,10,,,,,,,,,,,,,,,,6,,67,72
72180,note_on,,1,0,7,,,,,,,,,,,,,,,,3,,79,72
72239,note_on,,0,0,18,,,,,,,,,,,,,,,,15,,66,0
72239,note_on,,119,0,11,,,,,,,,,,,,,,,,7,,62,0
72239,note_on,,59,0,7,,,,,,,,,,,,,,,,3,,79,0
72239,note_on,,0,0,18,,,,,,,,,,,,,,,,15,,69,0
72239,note_on,,119,0,6,,,,,,,,,,,,,,,,2,,50,0
72239,note_on,,0,0,18,,,,,,,,,,,,,,,,15,,62,0
72239,note_on,,119,0,15,,,,,,,,,,,,,,,,11,,78,0
72239,note_on,,119,0,17,,,,,,,,,,,,,,,,13,,50,0
72239,note_on,,119,0,8,,,,,,,,,,,,,,,,4,,74,0
72239,note_on,,119,0,16,,,,,,,,,,,,,,,,12,,69,0
72239,note_on,,59,0,10,,,,,,,,,,,,,,,,6,,67,0
72239,note_on,,119,0,13,,,,,,,,,,,,,,,,14,,50,0
72239,note_on,,119,0,18,,,,,,,,,,,,,,,,15,,50,0
72239,note_on,,119,0,12,,,,,,,,,,,,,,,,8,,50,0
72240,note_on,,1,0,15,,,,,,,,,,,,,,,,11,,76,72
72240,note_on,,1,0,7,,,,,,,,,,,,,,,,3,,81,72
72240,note_on,,1,0,10,,,,,,,,,,,,,,,,6,,69,72
72240,note_on,,1,0,11,,,,,,,,,,,,,,,,7,,64,72
72240,note_on,,0,0,18,,,,,,,,,,,,,,,,15,,64,72
72240,note_on,,0,0,18,,,,,,,,,,,,,,,,15,,69,72
72240,note_on,,1,0,18,,,,,,,,,,,,,,,,15,,57,72
72240,note_on,,1,0,8,,,,,,,,,,,,,,,,4,,76,72
72240,note_on,,1,0,16,,,,,,,,,,,,,,,,12,,69,60
72240,note_on,,1,0,17,,,,,,,,,,,,,,,,13,,57,72
72240,note_on,,1,0,13,,,,,,,,,,,,,,,,14,,45,72
72240,note_on,,1,0,12,,,,,,,,,,,,,,,,8,,57,72
72240,note_on,,1,0,6,,,,,,,,,,,,,,,,2,,57,72
72359,note_on,,239,0,14,,,,,,,,,,,,,,,,10,,86,0
72359,note_on,,239,0,5,,,,,,,,,,,,,,,,1,,74,0
72359,note_on,,119,0,18,,,,,,,,,,,,,,,,15,,74,0
72359,note_on,,239,0,9,,,,,,,,,,,,,,,,5,,74,0
72360,note_on,,1,0,5,,,,,,,,,,,,,,,,1,,73,72
72360,note_on,,1,0,14,,,,,,,,,,,,,,,,10,,85,72
72360,note_on,,1,0,9,,,,,,,,,,,,,,,,5,,73,72
72360,note_on,,1,0,18,,,,,,,,,,,,,,,,15,,73,72
72419,note_on,,179,0,7,,,,,,,,,,,,,,,,3,,81,0
72419,note_on,,179,0,13,,,,,,,,,,,,,,,,14,,45,0
72420,note_on,,1,0,13,,,,,,,,,,,,,,,,14,,45,72
72420,note_on,,1,0,7,,,,,,,,,,,,,,,,3,,79,72
72479,note_on,,239,0,16,,,,,,,,,,,,,,,,12,,69,0
72479,note_on,,239,0,8,,,,,,,,,,,,,,,,4,,76,0
72479,note_on,,119,0,9,,,,,,,,,,,,,,,,5,,73,0
72479,note_on,,239,0,12,,,,,,,,,,,,,,,,8,,57,0
72479,note_on,,119,0,18,,,,,,,,,,,,,,,,15,,57,0
72479,note_on,,0,0,18,,,,,,,,,,,,,,,,15,,69,0
72479,note_on,,0,0,18,,,,,,,,,,,,,,,,15,,64,0
72479,note_on,,59,0,7,,,,,,,,,,,,,,,,3,,79,0
72479,note_on,,239,0,17,,,,,,,,,,,,,,,,13,,57,0
72479,note_on,,119,0,14,,,,,,,,,,,,,,,,10,,85,0
72479,note_on,,0,0,18,,,,,,,,,,,,,,,,15,,73,0
72479,note_on,,239,0,10,,,,,,,,,,,,,,,,6,,69,0
72479,note_on,,119,0,5,,,,,,,,,,,,,,,,1,,73,0
72479,note_on,,239,0,15,,,,,,,,,,,,,,,,11,,76,0
72479,note_on,,239,0,6,,,,,,,,,,,,,,,,2,,57,0
72479,note_on,,59,0,13,,,,,,,,,,,,,,,,14,,45,0
72479,note_on,,239,0,11,,,,,,,,,,,,,,,,7,,64,0
72480,note_on,,1,0,7,,,,,,,,,,,,,,,,3,,78,72
72480,note_on,,1,0,16,,,,,,,,,,,,,,,,12,,69,60
72480,note_on,,1,0,5,,,,,,,,,,,,,,,,1,,74,72
72480,note_on,,1,0,9,,,,,,,,,,,,,,,,5,,74,72
72480,note_on,,1,0,17,,,,,,,,,,,,,,,,13,,50,72
72480,note_on,,1,0,6,,,,,,,,,,,,,,,,2,,50,72
72480,note_on,,1,0,8,,,,,,,,,,,,,,,,4,,74,72
72480,note_on,,0,0,18,,,,,,,,,,,,,,,,15,,69,72
72480,note_on,,0,0,18,,,,,,,,,,,,,,,,15,,74,72
72480,note_on,,1,0,12,,,,,,,,,,,,,,,,8,,50,72
72480,note_on,,1,0,18,,,,,,,,,,,,,,,,15,,50,72
72480,note_on,,1,0,13,,,,,,,,,,,,,,,,14,,50,72
72480,note_on,,0,0,18,,,,,,,,,,,,,,,,15,,57,72
72480,note_on,,1,0,10,,,,,,,,,,,,,,,,6,,69,72
72480,note_on,,1,0,15,,,,,,,,,,,,,,,,11,,78,72
72480,note_on,,1,0,11,,,,,,,,,,,,,,,,7,,66,72
72480,note_on,,0,0,18,,,,,,,,,,,,,,,,15,,66,72
72480,note_on,,1,0,14,,,,,,,,,,,,,,,,10,,86,72
72599,note_on,,119,0,13,,,,,,,,,,,,,,,,14,,50,0
72599,note_on,,119,0,7,,,,,,,,,,,,,,,,3,,78,0
72599,note_on,,119,0,14,,,,,,,,,,,,,,,,10,,86,0
72599,note_on,,119,0,16,,,,,,,,,,,,,,,,12,,69,0
72599,note_on,,119,0,9,,,,,,,,,,,,,,,,5,,74,0
72599,note_on,,119,0,5,,,,,,,,,,,,,,,,1,,74,0
72599,note_on,,119,0,8,,,,,,,,,,,,,,,,4,,74,0
72600,note_on,,1,0,14,,,,,,,,,,,,,,,,10,,81,72
72600,note_on,,1,0,5,,,,,,,,,,,,,,,,1,,81,72
72600,note_on,,1,0,7,,,,,,,,,,,,,,,,3,,81,72
72600,note_on,,1,0,9,,,,,,,,,,,,,,,,5,,81,72
72719,note_on,,239,0,10,,,,,,,,,,,,,,,,6,,69,0
72719,note_on,,239,0,15,,,,,,,,,,,,,,,,11,,78,0
72719,note_on,,239,0,11,,,,,,,,,,,,,,,,7,,66,0
72719,note_on,,0,0,18,,,,,,,,,,,,,,,,15,,57,0
72719,note_on,,239,0,12,,,,,,,,,,,,,,,,8,,50,0
72719,note_on,,0,0,18,,,,,,,,,,,,,,,,15,,66,0
72719,note_on,,239,0,18,,,,,,,,,,,,,,,,15,,74,0
72719,note_on,,0,0,18,,,,,,,,,,,,,,,,15,,69,0
72720,note_on,,0,0,18,,,,,,,,,,,,,,,,15,,62,72
72720,note_on,,121,0,16,,,,,,,,,,,,,,,,12,,66,60
72720,note_on,,121,0,13,,,,,,,,,,,,,,,,14,,50,72
72720,note_on,,121,0,8,,,,,,,,,,,,,,,,4,,69,72
72720,note_on,,1,0,15,,,,,,,,,,,,,,,,11,,81,72
72720,note_on,,1,0,12,,,,,,,,,,,,,,,,8,,62,72
72720,note_on,,1,0,18,,,,,,,,,,,,,,,,15,,57,72
72720,note_on,,1,0,10,,,,,,,,,,,,,,,,6,,69,72
72720,note_on,,0,0,18,,,,,,,,,,,,,,,,15,,66,72
72779,note_on,,179,0,5,,,,,,,,,,,,,,,,1,,81,0
72779,note_on,,179,0,7,,,,,,,,,,,,,,,,3,,81,0
72779,note_on,,179,0,14,,,,,,,,,,,,,,,,10,,81,0
72779,note_on,,179,0,9,,,,,,,,,,,,,,,,5,,81,0
72780,note_on,,1,0,7,,,,,,,,,,,,,,,,3,,79,72
72780,note_on,,1,0,9,,,,,,,,,,,,,,,,5,,79,72
72780,note_on,,1,0,14,,,,,,,,,,,,,,,,10,,79,72
72780,note_on,,1,0,5,,,,,,,,,,,,,,,,1,,79,72
72839,note_on,,119,0,13,,,,,,,,,,,,,,,,14,,50,0
72839,note_on,,59,0,7,,,,,,,,,,,,,,,,3,,79,0
72839,note_on,,59,0,5,,,,,,,,,,,,,,,,1,,79,0
72839,note_on,,119,0,16,,,,,,,,,,,,,,,,12,,66,0
72839,note_on,,59,0,14,,,,,,,,,,,,,,,,10,,79,0
72839,note_on,,59,0,9,,,,,,,,,,,,,,,,5,,79,0
72840,note_on,,1,0,14,,,,,,,,,,,,,,,,10,,78,72
72840,note_on,,1,0,5,,,,,,,,,,,,,,,,1,,78,72
72840,note_on,,1,0,9,,,,,,,,,,,,,,,,5,,78,72
72840,note_on,,1,0,7,,,,,,,,,,,,,,,,3,,78,72
72899,note_on,,59,0,7,,,,,,,,,,,,,,,,3,,78,0
72899,note_on,,59,0,9,,,,,,,,,,,,,,,,5,,78,0
72899,note_on,,59,0,5,,,,,,,,,,,,,,,,1,,78,0
72899,note_on,,59,0,14,,,,,,,,,,,,,,,,10,,78,0
72900,note_on,,1,0,14,,,,,,,,,,,,,,,,10,,76,72
72900,note_on,,1,0,9,,,,,,,,,,,,,,,,5,,76,72
72900,note_on,,1,0,7,,,,,,,,,,,,,,,,3,,76,72
72900,note_on,,1,0,5,,,,,,,,,,,,,,,,1,,76,72
72959,note_on,,0,0,18,,,,,,,,,,,,,,,,15,,66,0
72959,note_on,,59,0,5,,,,,,,,,,,,,,,,1,,76,0
72959,note_on,,239,0,18,,,,,,,,,,,,,,,,15,,57,0
72959,note_on,,59,0,7,,,,,,,,,,,,,,,,3,,76,0
72959,note_on,,59,0,9,,,,,,,,,,,,,,,,5,,76,0
72959,note_on,,59,0,14,,,,,,,,,,,,,,,,10,,76,0
72959,note_on,,0,0,18,,,,,,,,,,,,,,,,15,,62,0
72960,note_on,,1,0,7,,,,,,,,,,,,,,,,3,,74,72
72960,note_on,,121,0,16,,,,,,,,,,,,,,,,12,,62,60
72960,note_on,,1,0,5,,,,,,,,,,,,,,,,1,,74,72
72960,note_on,,1,0,9,,,,,,,,,,,,,,,,5,,74,72
72960,note_on,,1,0,18,,,,,,,,,,,,,,,,15,,54,72
72960,note_on,,0,0,18,,,,,,,,,,,,,,,,15,,69,72
72960,note_on,,0,0,18,,,,,,,,,,,,,,,,15,,62,72
72960,note_on,,121,0,13,,,,,,,,,,,,,,,,14,,50,72
72960,note_on,,0,0,18,,,,,,,,,,,,,,,,15,,66,72
72960,note_on,,1,0,14,,,,,,,,,,,,,,,,10,,74,72
73019,note_on,,299,0,10,,,,,,,,,,,,,,,,6,,69,0
73019,note_on,,299,0,8,,,,,,,,,,,,,,,,4,,69,0
73019,note_on,,299,0,15,,,,,,,,,,,,,,,,11,,81,0
73020,note_on,,1,0,8,,,,,,,,,,,,,,,,4,,69,72
73020,note_on,,1,0,15,,,,,,,,,,,,,,,,11,,79,72
73020,note_on,,1,0,10,,,,,,,,,,,,,,,,6,,67,72
73079,note_on,,119,0,5,,,,,,,,,,,,,,,,1,,74,0
73079,note_on,,119,0,16,,,,,,,,,,,,,,,,12,,62,0
73079,note_on,,59,0,10,,,,,,,,,,,,,,,,6,,67,0
73079,note_on,,59,0,8,,,,,,,,,,,,,,,,4,,69,0
73079,note_on,,119,0,9,,,,,,,,,,,,,,,,5,,74,0
73079,note_on,,119,0,7,,,,,,,,,,,,,,,,3,,74,0
73079,note_on,,59,0,15,,,,,,,,,,,,,,,,11,,79,0
73079,note_on,,119,0,13,,,,,,,,,,,,,,,,14,,50,0
73080,note_on,,1,0,15,,,,,,,,,,,,,,,,11,,78,72
73080,note_on,,1,0,10,,,,,,,,,,,,,,,,6,,66,72
73080,note_on,,1,0,16,,,,,,,,,,,,,,,,12,,69,60
73080,note_on,,1,0,7,,,,,,,,,,,,,,,,3,,81,72
73080,note_on,,1,0,5,,,,,,,,,,,,,,,,1,,62,72
73080,note_on,,1,0,8,,,,,,,,,,,,,,,,4,,66,72
73080,note_on,,1,0,9,,,,,,,,,,,,,,,,5,,62,72
73080,note_on,,361,0,11,,,,,,,,,,,,,,,,7,,69,72
73139,note_on,,59,0,15,,,,,,,,,,,,,,,,11,,78,0
73139,note_on,,59,0,10,,,,,,,,,,,,,,,,6,,66,0
73139,note_on,,179,0,14,,,,,,,,,,,,,,,,10,,74,0
73139,note_on,,59,0,5,,,,,,,,,,,,,,,,1,,62,0
73139,note_on,,59,0,8,,,,,,,,,,,,,,,,4,,66,0
73139,note_on,,59,0,9,,,,,,,,,,,,,,,,5,,62,0
73140,note_on,,1,0,14,,,,,,,,,,,,,,,,10,,76,72
73140,note_on,,1,0,5,,,,,,,,,,,,,,,,1,,64,72
73140,note_on,,1,0,8,,,,,,,,,,,,,,,,4,,66,72
73140,note_on,,1,0,15,,,,,,,,,,,,,,,,11,,76,72
73140,note_on,,1,0,10,,,,,,,,,,,,,,,,6,,64,72
73140,note_on,,1,0,9,,,,,,,,,,,,,,,,5,,64,72
73199,note_on,,59,0,8,,,,,,,,,,,,,,,,4,,66,0
73199,note_on,,0,0,18,,,,,,,,,,,,,,,,15,,54,0
73199,note_on,,719,0,6,,,,,,,,,,,,,,,,2,,50,0
73199,note_on,,59,0,14,,,,,,,,,,,,,,,,10,,76,0
73199,note_on,,0,0,18,,,,,,,,,,,,,,,,15,,69,0
73199,note_on,,59,0,15,,,,,,,,,,,,,,,,11,,76,0
73199,note_on,,479,0,12,,,,,,,,,,,,,,,,8,,62,0
73199,note_on,,239,0,18,,,,,,,,,,,,,,,,15,,50,0
73199,note_on,,0,0,18,,,,,,,,,,,,,,,,15,,62,0
73199,note_on,,0,0,18,,,,,,,,,,,,,,,,15,,66,0
73199,note_on,,719,0,17,,,,,,,,,,,,,,,,13,,50,0
73199,note_on,,59,0,10,,,,,,,,,,,,,,,,6,,64,0
73199,note_on,,59,0,5,,,,,,,,,,,,,,,,1,,64,0
73199,note_on,,59,0,9,,,,,,,,,,,,,,,,5,,64,0
73200,note_on,,1,0,17,,,,,,,,,,,,,,,,13,,48,72
73200,note_on,,1,0,14,,,,,,,,,,,,,,,,10,,78,72
73200,note_on,,1,0,15,,,,,,,,,,,,,,,,11,,74,72
73200,note_on,,1,0,5,,,,,,,,,,,,,,,,1,,66,72
73200,note_on,,1,0,9,,,,,,,,,,,,,,,,5,,66,72
73200,note_on,,1,0,6,,,,,,,,,,,,,,,,2,,48,72
73200,note_on,,0,0,18,,,,,,,,,,,,,,,,15,,66,72
73200,note_on,,0,0,18,,,,,,,,,,,,,,,,15,,69,72
73200,note_on,,121,0,13,,,,,,,,,,,,,,,,14,,50,72
73200,note_on,,0,0,18,,,,,,,,,,,,,,,,15,,50,72
73200,note_on,,1,0,12,,,,,,,,,,,,,,,,8,,60,72
73200,note_on,,1,0,10,,,,,,,,,,,,,,,,6,,62,72
73200,note_on,,1,0,18,,,,,,,,,,,,,,,,15,,48,72
73200,note_on,,0,0,18,,,,,,,,,,,,,,,,15,,74,72
73200,note_on,,1,0,8,,,,,,,,,,,,,,,,4,,62,72
73259,note_on,,59,0,14,,,,,,,,,,,,,,,,10,,78,0
73259,note_on,,59,0,5,,,,,,,,,,,,,,,,1,,66,0
73259,note_on,,179,0,16,,,,,,,,,,,,,,,,12,,69,0
73259,note_on,,179,0,7,,,,,,,,,,,,,,,,3,,81,0
73259,note_on,,59,0,9,,,,,,,,,,,,,,,,5,,66,0
73259,note_on,,179,0,11,,,,,,,,,,,,,,,,7,,69,0
73260,note_on,,1,0,7,,,,,,,,,,,,,,,,3,,79,72
73260,note_on,,1,0,9,,,,,,,,,,,,,,,,5,,67,72
73260,note_on,,1,0,14,,,,,,,,,,,,,,,,10,,79,72
73260,note_on,,1,0,11,,,,,,,,,,,,,,,,7,,67,72
73260,note_on,,1,0,16,,,,,,,,,,,,,,,,12,,67,60
73260,note_on,,1,0,5,,,,,,,,,,,,,,,,1,,67,72
73319,note_on,,59,0,14,,,,,,,,,,,,,,,,10,,79,0
73319,note_on,,59,0,9,,,,,,,,,,,,,,,,5,,67,0
73319,note_on,,119,0,15,,,,,,,,,,,,,,,,11,,74,0
73319,note_on,,119,0,13,,,,,,,,,,,,,,,,14,,50,0
73319,note_on,,119,0,8,,,,,,,,,,,,,,,,4,,62,0
73319,note_on,,59,0,16,,,,,,,,,,,,,,,,12,,67,0
73319,note_on,,59,0,5,,,,,,,,,,,,,,,,1,,67,0
73319,note_on,,119,0,10,,,,,,,,,,,,,,,,6,,62,0
73319,note_on,,59,0,11,,,,,,,,,,,,,,,,7,,67,0
73319,note_on,,59,0,7,,,,,,,,,,,,,,,,3,,79,0
73320,note_on,,1,0,9,,,,,,,,,,,,,,,,5,,69,72
73320,note_on,,1,0,11,,,,,,,,,,,,,,,,7,,66,72
73320,note_on,,1,0,5,,,,,,,,,,,,,,,,1,,69,72
73320,note_on,,1,0,15,,,,,,,,,,,,,,,,11,,74,72
73320,note_on,,1,0,10,,,,,,,,,,,,,,,,6,,62,72
73320,note_on,,1,0,7,,,,,,,,,,,,,,,,3,,78,72
73320,note_on,,1,0,16,,,,,,,,,,,,,,,,12,,66,60
73320,note_on,,1,0,14,,,,,,,,,,,,,,,,10,,81,72
73320,note_on,,1,0,8,,,,,,,,,,,,,,,,4,,69,72
73379,note_on,,59,0,7,,,,,,,,,,,,,,,,3,,78,0
73379,note_on,,59,0,11,,,,,,,,,,,,,,,,7,,66,0
73379,note_on,,59,0,16,,,,,,,,,,,,,,,,12,,66,0
73380,note_on,,1,0,11,,,,,,,,,,,,,,,,7,,64,72
73380,note_on,,1,0,16,,,,,,,,,,,,,,,,12,,64,60
73380,note_on,,1,0,7,,,,,,,,,,,,,,,,3,,76,72
73439,note_on,,119,0,8,,,,,,,,,,,,,,,,4,,69,0
73439,note_on,,0,0,18,,,,,,,,,,,,,,,,15,,66,0
73439,note_on,,59,0,11,,,,,,,,,,,,,,,,7,,64,0
73439,note_on,,59,0,16,,,,,,,,,,,,,,,,12,,64,0
73439,note_on,,239,0,12,,,,,,,,,,,,,,,,8,,60,0
73439,note_on,,119,0,14,,,,,,,,,,,,,,,,10,,81,0
73439,note_on,,119,0,9,,,,,,,,,,,,,,,,5,,69,0
73439,note_on,,119,0,5,,,,,,,,,,,,,,,,1,,69,0
73439,note_on,,0,0,18,,,,,,,,,,,,,,,,15,,69,0
73439,note_on,,0,0,18,,,,,,,,,,,,,,,,15,,74,0
73439,note_on,,0,0,18,,,,,,,,,,,,,,,,15,,50,0
73439,note_on,,239,0,18,,,,,,,,,,,,,,,,15,,48,0
73439,note_on,,239,0,6,,,,,,,,,,,,,,,,2,,48,0
73439,note_on,,239,0,17,,,,,,,,,,,,,,,,13,,48,0
73439,note_on,,59,0,7,,,,,,,,,,,,,,,,3,,76,0
73439,note_on,,119,0,15,,,,,,,,,,,,,,,,11,,74,0
73439,note_on,,119,0,10,,,,,,,,,,,,,,,,6,,62,0
73440,note_on,,0,0,18,,,,,,,,,,,,,,,,15,,67,72
73440,note_on,,0,0,18,,,,,,,,,,,,,,,,15,,50,72
73440,note_on,,1,0,9,,,,,,,,,,,,,,,,5,,67,72
73440,note_on,,1,0,12,,,,,,,,,,,,,,,,8,,59,72
73440,note_on,,1,0,6,,,,,,,,,,,,,,,,2,,47,72
73440,note_on,,1,0,5,,,,,,,,,,,,,,,,1,,67,72
73440,note_on,,1,0,7,,,,,,,,,,,,,,,,3,,74,72
73440,note_on,,0,0,18,,,,,,,,,,,,,,,,15,,79,72
73440,note_on,,0,0,18,,,,,,,,,,,,,,,,15,,74,72
73440,note_on,,121,0,13,,,,,,,,,,,,,,,,14,,50,72
73440,note_on,,1,0,15,,,,,,,,,,,,,,,,11,,74,72
73440,note_on,,1,0,14,,,,,,,,,,,,,,,,10,,79,72
73440,note_on,,1,0,17,,,,,,,,,,,,,,,,13,,47,72
73440,note_on,,1,0,8,,,,,,,,,,,,,,,,4,,62,72
73440,note_on,,1,0,16,,,,,,,,,,,,,,,,12,,62,60
73440,note_on,,1,0,11,,,,,,,,,,,,,,,,7,,62,72
73440,note_on,,1,0,18,,,,,,,,,,,,,,,,15,,47,72
73559,note_on,,119,0,16,,,,,,,,,,,,,,,,12,,62,0
73559,note_on,,0,0,18,,,,,,,,,,,,,,,,15,,50,0
73559,note_on,,119,0,7,,,,,,,,,,,,,,,,3,,74,0
73559,note_on,,119,0,15,,,,,,,,,,,,,,,,11,,74,0
73559,note_on,,119,0,17,,,,,,,,,,,,,,,,13,,47,0
73559,note_on,,119,0,18,,,,,,,,,,,,,,,,15,,47,0
73559,note_on,,119,0,6,,,,,,,,,,,,,,,,2,,47,0
73560,note_on,,1,0,17,,,,,,,,,,,,,,,,13,,59,72
73560,note_on,,1,0,7,,,,,,,,,,,,,,,,3,,76,72
73560,note_on,,1,0,6,,,,,,,,,,,,,,,,2,,59,72
73560,note_on,,1,0,16,,,,,,,,,,,,,,,,12,,67,60
73560,note_on,,1,0,18,,,,,,,,,,,,,,,,15,,59,72
73560,note_on,,0,0,18,,,,,,,,,,,,,,,,15,,62,72
73560,note_on,,1,0,15,,,,,,,,,,,,,,,,11,,76,72
73560,note_on,,121,0,10,,,,,,,,,,,,,,,,6,,67,72
73619,note_on,,59,0,15,,,,,,,,,,,,,,,,11,,76,0
73619,note_on,,179,0,14,,,,,,,,,,,,,,,,10,,79,0
73619,note_on,,179,0,9,,,,,,,,,,,,,,,,5,,67,0
73619,note_on,,59,0,7,,,,,,,,,,,,,,,,3,,76,0
73619,note_on,,179,0,13,,,,,,,,,,,,,,,,14,,50,0
73619,note_on,,179,0,5,,,,,,,,,,,,,,,,1,,67,0
73619,note_on,,179,0,8,,,,,,,,,,,,,,,,4,,62,0
73620,note_on,,1,0,14,,,,,,,,,,,,,,,,10,,81,72
73620,note_on,,1,0,7,,,,,,,,,,,,,,,,3,,78,72
73620,note_on,,1,0,9,,,,,,,,,,,,,,,,5,,69,72
73620,note_on,,1,0,13,,,,,,,,,,,,,,,,14,,50,72
73620,note_on,,1,0,8,,,,,,,,,,,,,,,,4,,62,72
73620,note_on,,1,0,15,,,,,,,,,,,,,,,,11,,78,72
73620,note_on,,1,0,5,,,,,,,,,,,,,,,,1,,69,72
73679,note_on,,59,0,7,,,,,,,,,,,,,,,,3,,78,0
73679,note_on,,0,0,18,,,,,,,,,,,,,,,,15,,67,0
73679,note_on,,0,0,18,,,,,,,,,,,,,,,,15,,74,0
73679,note_on,,59,0,9,,,,,,,,,,,,,,,,5,,69,0
73679,note_on,,119,0,18,,,,,,,,,,,,,,,,15,,79,0
73679,note_on,,59,0,5,,,,,,,,,,,,,,,,1,,69,0
73679,note_on,,59,0,8,,,,,,,,,,,,,,,,4,,62,0
73679,note_on,,119,0,16,,,,,,,,,,,,,,,,12,,67,0
73679,note_on,,59,0,15,,,,,,,,,,,,,,,,11,,78,0
73679,note_on,,59,0,14,,,,,,,,,,,,,,,,10,,81,0
73679,note_on,,59,0,13,,,,,,,,,,,,,,,,14,,50,0
73680,note_on,,1,0,15,,,,,,,,,,,,,,,,11,,79,72
73680,note_on,,1,0,13,,,,,,,,,,,,,,,,14,,50,72
73680,note_on,,1,0,16,,,,,,,,,,,,,,,,12,,62,60
73680,note_on,,1,0,7,,,,,,,,,,,,,,,,3,,79,72
73680,note_on,,1,0,9,,,,,,,,,,,,,,,,5,,71,72
73680,note_on,,1,0,8,,,,,,,,,,,,,,,,4,,74,72
73680,note_on,,1,0,14,,,,,,,,,,,,,,,,10,,83,72
73680,note_on,,1,0,5,,,,,,,,,,,,,,,,1,,71,72
73680,note_on,,0,0,18,,,,,,,,,,,,,,,,15,,67,72
73680,note_on,,1,0,18,,,,,,,,,,,,,,,,15,,74,72
73739,note_on,,59,0,9,,,,,,,,,,,,,,,,5,,71,0
73739,note_on,,59,0,14,,,,,,,,,,,,,,,,10,,83,0
73739,note_on,,59,0,5,,,,,,,,,,,,,,,,1,,71,0
73740,note_on,,1,0,9,,,,,,,,,,,,,,,,5,,73,72
73740,note_on,,1,0,14,,,,,,,,,,,,,,,,10,,85,72
73740,note_on,,1,0,5,,,,,,,,,,,,,,,,1,,73,72
73799,note_on,,239,0,6,,,,,,,,,,,,,,,,2,,59,0
73799,note_on,,59,0,5,,,,,,,,,,,,,,,,1,,73,0
73799,note_on,,119,0,8,,,,,,,,,,,,,,,,4,,74,0
73799,note_on,,59,0,9,,,,,,,,,,,,,,,,5,,73,0
73799,note_on,,59,0,14,,,,,,,,,,,,,,,,10,,85,0
73799,note_on,,239,0,10,,,,,,,,,,,,,,,,6,,67,0
73799,note_on,,119,0,16,,,,,,,,,,,,,,,,12,,62,0
73799,note_on,,359,0,12,,,,,,,,,,,,,,,,8,,59,0
73799,note_on,,0,0,18,,,,,,,,,,,,,,,,15,,67,0
73799,note_on,,0,0,18,,,,,,,,,,,,,,,,15,,62,0
73799,note_on,,119,0,18,,,,,,,,,,,,,,,,15,,59,0
73799,note_on,,239,0,17,,,,,,,,,,,,,,,,13,,59,0
73799,note_on,,359,0,11,,,,,,,,,,,,,,,,7,,62,0
73799,note_on,,119,0,13,,,,,,,,,,,,,,,,14,,50,0
73799,note_on,,119,0,7,,,,,,,,,,,,,,,,3,,79,0
73799,note_on,,119,0,15,,,,,,,,,,,,,,,,11,,79,0
73800,note_on,,1,0,6,,,,,,,,,,,,,,,,2,,54,72
73800,note_on,,1,0,10,,,,,,,,,,,,,,,,6,,69,72
73800,note_on,,1,0,17,,,,,,,,,,,,,,,,13,,54,72
73800,note_on,,1,0,7,,,,,,,,,,,,,,,,3,,81,72
73800,note_on,,1,0,16,,,,,,,,,,,,,,,,12,,62,60
73800,note_on,,1,0,8,,,,,,,,,,,,,,,,4,,74,72
73800,note_on,,1,0,9,,,,,,,,,,,,,,,,5,,74,72
73800,note_on,,0,0,18,,,,,,,,,,,,,,,,15,,57,72
73800,note_on,,1,0,15,,,,,,,,,,,,,,,,11,,81,72
73800,note_on,,1,0,13,,,,,,,,,,,,,,,,14,,50,72
73800,note_on,,1,0,18,,,,,,,,,,,,,,,,15,,54,72
73800,note_on,,1,0,5,,,,,,,,,,,,,,,,1,,74,72
73800,note_on,,0,0,18,,,,,,,,,,,,,,,,15,,69,72
73800,note_on,,0,0,18,,,,,,,,,,,,,,,,15,,62,72
73800,note_on,,1,0,14,,,,,,,,,,,,,,,,10,,86,72
73800,note_on,,1,0,12,,,,,,,,,,,,,,,,8,,54,72
73800,note_on,,1,0,11,,,,,,,,,,,,,,,,7,,62,72
73859,note_on,,59,0,9,,,,,,,,,,,,,,,,5,,74,0
73859,note_on,,59,0,14,,,,,,,,,,,,,,,,10,,86,0
73859,note_on,,59,0,5,,,,,,,,,,,,,,,,1,,74,0
73859,note_on,,59,0,15,,,,,,,,,,,,,,,,11,,81,0
73860,note_on,,1,0,9,,,,,,,,,,,,,,,,5,,69,72
73860,note_on,,1,0,14,,,,,,,,,,,,,,,,10,,81,72
73860,note_on,,1,0,5,,,,,,,,,,,,,,,,1,,69,72
73860,note_on,,1,0,15,,,,,,,,,,,,,,,,11,,74,72
73919,note_on,,119,0,6,,,,,,,,,,,,,,,,2,,54,0
73919,note_on,,119,0,17,,,,,,,,,,,,,,,,13,,54,0
73919,note_on,,119,0,11,,,,,,,,,,,,,,,,7,,62,0
73919,note_on,,59,0,9,,,,,,,,,,,,,,,,5,,69,0
73919,note_on,,119,0,16,,,,,,,,,,,,,,,,12,,62,0
73919,note_on,,59,0,15,,,,,,,,,,,,,,,,11,,74,0
73919,note_on,,119,0,13,,,,,,,,,,,,,,,,14,,50,0
73919,note_on,,119,0,8,,,,,,,,,,,,,,,,4,,74,0
73919,note_on,,119,0,10,,,,,,,,,,,,,,,,6,,69,0
73919,note_on,,119,0,18,,,,,,,,,,,,,,,,15,,74,0
73919,note_on,,119,0,7,,,,,,,,,,,,,,,,3,,81,0
73919,note_on,,0,0,18,,,,,,,,,,,,,,,,15,,54,0
73919,note_on,,119,0,12,,,,,,,,,,,,,,,,8,,54,0
73919,note_on,,59,0,14,,,,,,,,,,,,,,,,10,,81,0
73919,note_on,,59,0,5,,,,,,,,,,,,,,,,1,,69,0
73919,note_on,,0,0,18,,,,,,,,,,,,,,,,15,,62,0
73919,note_on,,0,0,18,,,,,,,,,,,,,,,,15,,69,0
73919,note_on,,0,0,18,,,,,,,,,,,,,,,,15,,57,0
73920,note_on,,1,0,9,,,,,,,,,,,,,,,,5,,71,72
73920,note_on,,1,0,8,,,,,,,,,,,,,,,,4,,74,72
73920,note_on,,1,0,11,,,,,,,,,,,,,,,,7,,62,72
73920,note_on,,1,0,18,,,,,,,,,,,,,,,,15,,55,72
73920,note_on,,0,0,18,,,,,,,,,,,,,,,,15,,74,72
73920,note_on,,0,0,18,,,,,,,,,,,,,,,,15,,71,72
73920,note_on,,0,0,18,,,,,,,,,,,,,,,,15,,67,72
73920,note_on,,1,0,7,,,,,,,,,,,,,,,,3,,83,72
73920,note_on,,1,0,10,,,,,,,,,,,,,,,,6,,67,72
73920,note_on,,1,0,13,,,,,,,,,,,,,,,,14,,50,72
73920,note_on,,0,0,18,,,,,,,,,,,,,,,,15,,62,72
73920,note_on,,1,0,5,,,,,,,,,,,,,,,,1,,71,72
73920,note_on,,1,0,17,,,,,,,,,,,,,,,,13,,55,72
73920,note_on,,1,0,16,,,,,,,,,,,,,,,,12,,67,60
73920,note_on,,1,0,6,,,,,,,,,,,,,,,,2,,55,72
73920,note_on,,1,0,14,,,,,,,,,,,,,,,,10,,83,72
73920,note_on,,1,0,12,,,,,,,,,,,,,,,,8,,55,72
73920,note_on,,1,0,15,,,,,,,,,,,,,,,,11,,74,72
73979,note_on,,59,0,14,,,,,,,,,,,,,,,,10,,83,0
73980,note_on,,1,0,14,,,,,,,,,,,,,,,,10,,81,72
74039,note_on,,119,0,10,,,,,,,,,,,,,,,,6,,67,0
74039,note_on,,119,0,16,,,,,,,,,,,,,,,,12,,67,0
74039,note_on,,59,0,14,,,,,,,,,,,,,,,,10,,81,0
74039,note_on,,119,0,9,,,,,,,,,,,,,,,,5,,71,0
74039,note_on,,119,0,11,,,,,,,,,,,,,,,,7,,62,0
74039,note_on,,119,0,5,,,,,,,,,,,,,,,,1,,71,0
74039,note_on,,119,0,15,,,,,,,,,,,,,,,,11,,74,0
74039,note_on,,119,0,8,,,,,,,,,,,,,,,,4,,74,0
74040,note_on,,1,0,15,,,,,,,,,,,,,,,,11,,83,72
74040,note_on,,1,0,10,,,,,,,,,,,,,,,,6,,71,72
74040,note_on,,1,0,16,,,,,,,,,,,,,,,,12,,62,60
74040,note_on,,1,0,14,,,,,,,,,,,,,,,,10,,79,72
74040,note_on,,1,0,9,,,,,,,,,,,,,,,,5,,79,72
74040,note_on,,1,0,5,,,,,,,,,,,,,,,,1,,79,72
74040,note_on,,1,0,8,,,,,,,,,,,,,,,,4,,76,72
74040,note_on,,1,0,11,,,,,,,,,,,,,,,,7,,64,72
74099,note_on,,179,0,13,,,,,,,,,,,,,,,,14,,50,0
74099,note_on,,59,0,14,,,,,,,,,,,,,,,,10,,79,0
74099,note_on,,179,0,7,,,,,,,,,,,,,,,,3,,83,0
74099,note_on,,59,0,15,,,,,,,,,,,,,,,,11,,83,0
74100,note_on,,1,0,15,,,,,,,,,,,,,,,,11,,81,72
74100,note_on,,1,0,14,,,,,,,,,,,,,,,,10,,78,72
74100,note_on,,1,0,13,,,,,,,,,,,,,,,,14,,50,72
74100,note_on,,1,0,7,,,,,,,,,,,,,,,,3,,81,72
74159,note_on,,59,0,14,,,,,,,,,,,,,,,,10,,78,0
74159,note_on,,119,0,16,,,,,,,,,,,,,,,,12,,62,0
74159,note_on,,0,0,18,,,,,,,,,,,,,,,,15,,67,0
74159,note_on,,0,0,18,,,,,,,,,,,,,,,,15,,71,0
74159,note_on,,119,0,8,,,,,,,,,,,,,,,,4,,76,0
74159,note_on,,0,0,18,,,,,,,,,,,,,,,,15,,74,0
74159,note_on,,59,0,15,,,,,,,,,,,,,,,,11,,81,0
74159,note_on,,239,0,18,,,,,,,,,,,,,,,,15,,62,0
74159,note_on,,59,0,13,,,,,,,,,,,,,,,,14,,50,0
74159,note_on,,59,0,7,,,,,,,,,,,,,,,,3,,81,0
74160,note_on,,1,0,13,,,,,,,,,,,,,,,,14,,50,72
74160,note_on,,1,0,7,,,,,,,,,,,,,,,,3,,79,72
74160,note_on,,1,0,18,,,,,,,,,,,,,,,,15,,64,72
74160,note_on,,1,0,16,,,,,,,,,,,,,,,,12,,71,60
74160,note_on,,0,0,18,,,,,,,,,,,,,,,,15,,67,72
74160,note_on,,0,0,18,,,,,,,,,,,,,,,,15,,83,72
74160,note_on,,0,0,18,,,,,,,,,,,,,,,,15,,76,72
74160,note_on,,0,0,18,,,,,,,,,,,,,,,,15,,71,72
74160,note_on,,1,0,15,,,,,,,,,,,,,,,,11,,79,72
74160,note_on,,1,0,14,,,,,,,,,,,,,,,,10,,76,72
74160,note_on,,1,0,8,,,,,,,,,,,,,,,,4,,76,72
74219,note_on,,59,0,15,,,,,,,,,,,,,,,,11,,79,0
74219,note_on,,59,0,14,,,,,,,,,,,,,,,,10,,76,0
74219,note_on,,59,0,7,,,,,,,,,,,,,,,,3,,79,0
74219,note_on,,179,0,9,,,,,,,,,,,,,,,,5,,79,0
74219,note_on,,179,0,5,,,,,,,,,,,,,,,,1,,79,0
74220,note_on,,1,0,14,,,,,,,,,,,,,,,,10,,86,72
74220,note_on,,1,0,5,,,,,,,,,,,,,,,,1,,78,72
74220,note_on,,1,0,15,,,,,,,,,,,,,,,,11,,78,72
74220,note_on,,1,0,7,,,,,,,,,,,,,,,,3,,78,72
74220,note_on,,1,0,9,,,,,,,,,,,,,,,,5,,78,72
74279,note_on,,59,0,15,,,,,,,,,,,,,,,,11,,78,0
74279,note_on,,59,0,5,,,,,,,,,,,,,,,,1,,78,0
74279,note_on,,59,0,9,,,,,,,,,,,,,,,,5,,78,0
74279,note_on,,119,0,13,,,,,,,,,,,,,,,,14,,50,0
74279,note_on,,119,0,16,,,,,,,,,,,,,,,,12,,71,0
74279,note_on,,239,0,11,,,,,,,,,,,,,,,,7,,64,0
74279,note_on,,59,0,14,,,,,,,,,,,,,,,,10,,86,0
74279,note_on,,239,0,10,,,,,,,,,,,,,,,,6,,71,0
74279,note_on,,59,0,7,,,,,,,,,,,,,,,,3,,78,0
74279,note_on,,119,0,8,,,,,,,,,,,,,,,,4,,76,0
74279,note_on,,359,0,12,,,,,,,,,,,,,,,,8,,55,0
74280,note_on,,1,0,15,,,,,,,,,,,,,,,,11,,76,72
74280,note_on,,1,0,16,,,,,,,,,,,,,,,,12,,64,60
74280,note_on,,1,0,11,,,,,,,,,,,,,,,,7,,64,72
74280,note_on,,1,0,14,,,,,,,,,,,,,,,,10,,85,72
74280,note_on,,1,0,10,,,,,,,,,,,,,,,,6,,71,72
74280,note_on,,1,0,13,,,,,,,,,,,,,,,,14,,50,72
74280,note_on,,1,0,7,,,,,,,,,,,,,,,,3,,76,72
74280,note_on,,1,0,5,,,,,,,,,,,,,,,,1,,76,72
74280,note_on,,1,0,12,,,,,,,,,,,,,,,,8,,55,72
74280,note_on,,1,0,9,,,,,,,,,,,,,,,,5,,76,72
74339,note_on,,59,0,15,,,,,,,,,,,,,,,,11,,76,0
74339,note_on,,59,0,7,,,,,,,,,,,,,,,,3,,76,0
74339,note_on,,59,0,5,,,,,,,,,,,,,,,,1,,76,0
74339,note_on,,59,0,9,,,,,,,,,,,,,,,,5,,76,0
74339,note_on,,59,0,14,,,,,,,,,,,,,,,,10,,85,0
74340,note_on,,1,0,5,,,,,,,,,,,,,,,,1,,74,72
74340,note_on,,61,0,8,,,,,,,,,,,,,,,,4,,69,72
74340,note_on,,1,0,15,,,,,,,,,,,,,,,,11,,74,72
74340,note_on,,1,0,14,,,,,,,,,,,,,,,,10,,83,72
74340,note_on,,1,0,7,,,,,,,,,,,,,,,,3,,74,72
74340,note_on,,1,0,9,,,,,,,,,,,,,,,,5,,74,72
74399,note_on,,59,0,14,,,,,,,,,,,,,,,,10,,83,0
74399,note_on,,119,0,13,,,,,,,,,,,,,,,,14,,50,0
74399,note_on,,119,0,16,,,,,,,,,,,,,,,,12,,64,0
74399,note_on,,59,0,9,,,,,,,,,,,,,,,,5,,74,0
74399,note_on,,119,0,10,,,,,,,,,,,,,,,,6,,71,0
74399,note_on,,479,0,6,,,,,,,,,,,,,,,,2,,55,0
74399,note_on,,59,0,15,,,,,,,,,,,,,,,,11,,74,0
74399,note_on,,59,0,7,,,,,,,,,,,,,,,,3,,74,0
74399,note_on,,59,0,8,,,,,,,,,,,,,,,,4,,69,0
74399,note_on,,119,0,12,,,,,,,,,,,,,,,,8,,55,0
74399,note_on,,239,0,18,,,,,,,,,,,,,,,,15,,55,0
74399,note_on,,479,0,17,,,,,,,,,,,,,,,,13,,55,0
74399,note_on,,0,0,18,,,,,,,,,,,,,,,,15,,64,0
74399,note_on,,0,0,18,,,,,,,,,,,,,,,,15,,71,0
74399,note_on,,0,0,18,,,,,,,,,,,,,,,,15,,76,0
74399,note_on,,0,0,18,,,,,,,,,,,,,,,,15,,83,0
74399,note_on,,0,0,18,,,,,,,,,,,,,,,,15,,67,0
74399,note_on,,119,0,11,,,,,,,,,,,,,,,,7,,64,0
74399,note_on,,59,0,5,,,,,,,,,,,,,,,,1,,74,0
74400,note_on,,1,0,8,,,,,,,,,,,,,,,,4,,69,72
74400,note_on,,1,0,12,,,,,,,,,,,,,,,,8,,55,72
74400,note_on,,1,0,14,,,,,,,,,,,,,,,,10,,85,72
74400,note_on,,1,0,7,,,,,,,,,,,,,,,,3,,76,72
74400,note_on,,1,0,17,,,,,,,,,,,,,,,,13,,55,72
74400,note_on,,1,0,6,,,,,,,,,,,,,,,,2,,55,72
74400,note_on,,1,0,18,,,,,,,,,,,,,,,,15,,55,72
74400,note_on,,1,0,5,,,,,,,,,,,,,,,,1,,73,72
74400,note_on,,1,0,16,,,,,,,,,,,,,,,,12,,69,60
74400,note_on,,1,0,11,,,,,,,,,,,,,,,,7,,64,72
74400,note_on,,1,0,9,,,,,,,,,,,,,,,,5,,73,72
74400,note_on,,1,0,15,,,,,,,,,,,,,,,,11,,76,72
74400,note_on,,1,0,13,,,,,,,,,,,,,,,,14,,45,72
74400,note_on,,1,0,10,,,,,,,,,,,,,,,,6,,69,72
74400,note_on,,0,0,18,,,,,,,,,,,,,,,,15,,57,72
74400,note_on,,0,0,18,,,,,,,,,,,,,,,,15,,64,72
74400,note_on,,0,0,18,,,,,,,,,,,,,,,,15,,73,72
74400,note_on,,0,0,18,,,,,,,,,,,,,,,,15,,76,72
74400,note_on,,0,0,18,,,,,,,,,,,,,,,,15,,81,72
74639,note_on,,239,0,8,,,,,,,,,,,,,,,,4,,69,0
74639,note_on,,239,0,9,,,,,,,,,,,,,,,,5,,73,0
74639,note_on,,239,0,5,,,,,,,,,,,,,,,,1,,73,0
74639,note_on,,239,0,7,,,,,,,,,,,,,,,,3,,76,0
74639,note_on,,239,0,12,,,,,,,,,,,,,,,,8,,55,0
74639,note_on,,239,0,14,,,,,,,,,,,,,,,,10,,85,0
74639,note_on,,239,0,15,,,,,,,,,,,,,,,,11,,76,0
74639,note_on,,239,0,11,,,,,,,,,,,,,,,,7,,64,0
74639,note_on,,239,0,13,,,,,,,,,,,,,,,,14,,45,0
74639,note_on,,239,0,10,,,,,,,,,,,,,,,,6,,69,0
74639,note_on,,239,0,16,,,,,,,,,,,,,,,,12,,69,0
74640,note_on,,1,0,10,,,,,,,,,,,,,,,,6,,69,72
74640,note_on,,1,0,7,,,,,,,,,,,,,,,,3,,76,72
74640,note_on,,1,0,15,,,,,,,,,,,,,,,,11,,76,72
74640,note_on,,1,0,8,,,,,,,,,,,,,,,,4,,69,72
74640,note_on,,1,0,13,,,,,,,,,,,,,,,,14,,45,72
74640,note_on,,1,0,9,,,,,,,,,,,,,,,,5,,73,72
74640,note_on,,1,0,14,,,,,,,,,,,,,,,,10,,85,72
74640,note_on,,1,0,11,,,,,,,,,,,,,,,,7,,64,72
74640,note_on,,1,0,5,,,,,,,,,,,,,,,,1,,73,72
74640,note_on,,1,0,12,,,,,,,,,,,,,,,,8,,55,72
74640,note_on,,1,0,16,,,,,,,,,,,,,,,,12,,69,60
74879,note_on,,239,0,5,,,,,,,,,,,,,,,,1,,73,0
74879,note_on,,239,0,14,,,,,,,,,,,,,,,,10,,85,0
74879,note_on,,239,0,11,,,,,,,,,,,,,,,,7,,64,0
74879,note_on,,0,0,18,,,,,,,,,,,,,,,,15,,73,0
74879,note_on,,239,0,15,,,,,,,,,,,,,,,,11,,76,0
74879,note_on,,0,0,18,,,,,,,,,,,,,,,,15,,64,0
74879,note_on,,0,0,18,,,,,,,,,,,,,,,,15,,76,0
74879,note_on,,0,0,18,,,,,,,,,,,,,,,,15,,81,0
74879,note_on,,239,0,8,,,,,,,,,,,,,,,,4,,69,0
74879,note_on,,239,0,12,,,,,,,,,,,,,,,,8,,55,0
74879,note_on,,479,0,17,,,,,,,,,,,,,,,,13,,55,0
74879,note_on,,239,0,13,,,,,,,,,,,,,,,,14,,45,0
74879,note_on,,479,0,6,,,,,,,,,,,,,,,,2,,55,0
74879,note_on,,0,0,18,,,,,,,,,,,,,,,,15,,57,0
74879,note_on,,239,0,10,,,,,,,,,,,,,,,,6,,69,0
74879,note_on,,239,0,9,,,,,,,,,,,,,,,,5,,73,0
74879,note_on,,239,0,7,,,,,,,,,,,,,,,,3,,76,0
74879,note_on,,479,0,18,,,,,,,,,,,,,,,,15,,55,0
74879,note_on,,239,0,16,,,,,,,,,,,,,,,,12,,69,0
75360,note_on,,481,0,18,,,,,,,,,,,,,,,,15,,54,72
75360,note_on,,0,0,18,,,,,,,,,,,,,,,,15,,78,72
75360,note_on,,0,0,18,,,,,,,,,,,,,,,,15,,74,72
75360,note_on,,481,0,15,,,,,,,,,,,,,,,,11,,81,72
75360,note_on,,481,0,11,,,,,,,,,,,,,,,,7,,62,72
75360,note_on,,0,0,18,,,,,,,,,,,,,,,,15,,62,72
75360,note_on,,481,0,17,,,,,,,,,,,,,,,,13,,54,72
75360,note_on,,481,0,6,,,,,,,,,,,,,,,,2,,54,72
75360,note_on,,481,0,10,,,,,,,,,,,,,,,,6,,69,72
75360,note_on,,481,0,7,,,,,,,,,,,,,,,,3,,74,72
75360,note_on,,481,0,9,,,,,,,,,,,,,,,,5,,74,72
75360,set_tempo,,40800,1,0,,,,,,,,,1090909,,,,,,,,,,
75360,note_on,,481,0,16,,,,,,,,,,,,,,,,12,,69,60
75360,note_on,,0,0,18,,,,,,,,,,,,,,,,15,,57,72
75360,note_on,,0,0,18,,,,,,,,,,,,,,,,15,,81,72
75360,note_on,,481,0,8,,,,,,,,,,,,,,,,4,,69,72
75360,note_on,,481,0,5,,,,,,,,,,,,,,,,1,,74,72
75360,note_on,,481,0,12,,,,,,,,,,,,,,,,8,,54,72
75360,note_on,,481,0,13,,,,,,,,,,,,,,,,14,,50,72
75360,note_on,,481,0,14,,,,,,,,,,,,,,,,10,,86,72
75599,note_on,,0,0,18,,,,,,,,,,,,,,,,15,,78,0
75599,note_on,,0,0,18,,,,,,,,,,,,,,,,15,,74,0
75599,note_on,,239,0,8,,,,,,,,,,,,,,,,4,,69,0
75599,note_on,,239,0,6,,,,,,,,,,,,,,,,2,,54,0
75599,note_on,,239,0,15,,,,,,,,,,,,,,,,11,,81,0
75599,note_on,,239,0,9,,,,,,,,,,,,,,,,5,,74,0
75599,note_on,,239,0,11,,,,,,,,,,,,,,,,7,,62,0
75599,note_on,,239,0,10,,,,,,,,,,,,,,,,6,,69,0
75599,note_on,,239,0,17,,,,,,,,,,,,,,,,13,,54,0
75599,note_on,,239,0,5,,,,,,,,,,,,,,,,1,,74,0
75599,note_on,,0,0,18,,,,,,,,,,,,,,,,15,,62,0
75599,note_on,,239,0,7,,,,,,,,,,,,,,,,3,,74,0
75599,note_on,,239,0,16,,,,,,,,,,,,,,,,12,,69,0
75599,note_on,,239,0,13,,,,,,,,,,,,,,,,14,,50,0
75599,note_on,,239,0,12,,,,,,,,,,,,,,,,8,,54,0
75599,note_on,,0,0,18,,,,,,,,,,,,,,,,15,,57,0
75599,note_on,,239,0,14,,,,,,,,,,,,,,,,10,,86,0
75599,note_on,,239,0,18,,,,,,,,,,,,,,,,15,,54,0
75599,note_on,,0,0,18,,,,,,,,,,,,,,,,15,,81,0
75600,note_on,,1,0,17,,,,,,,,,,,,,,,,13,,50,72
75600,note_on,,1,0,9,,,,,,,,,,,,,,,,5,,74,72
75600,note_on,,1,0,7,,,,,,,,,,,,,,,,3,,78,72
75600,note_on,,0,0,18,,,,,,,,,,,,,,,,15,,81,72
75600,note_on,,1,0,6,,,,,,,,,,,,,,,,2,,50,72
75600,note_on,,0,0,18,,,,,,,,,,,,,,,,15,,78,72
75600,note_on,,0,0,18,,,,,,,,,,,,,,,,15,,86,72
75600,note_on,,1,0,10,,,,,,,,,,,,,,,,6,,69,72
75600,note_on,,1,0,12,,,,,,,,,,,,,,,,8,,50,72
75600,note_on,,1,0,18,,,,,,,,,,,,,,,,15,,50,72
75600,note_on,,0,0,18,,,,,,,,,,,,,,,,15,,64,72
75600,note_on,,1,0,11,,,,,,,,,,,,,,,,7,,66,72
75600,note_on,,1,0,5,,,,,,,,,,,,,,,,1,,74,72
75600,note_on,,1,0,15,,,,,,,,,,,,,,,,11,,78,72
75600,note_on,,1,0,8,,,,,,,,,,,,,,,,4,,74,72
75600,note_on,,1,0,13,,,,,,,,,,,,,,,,14,,50,72
75600,note_on,,0,0,18,,,,,,,,,,,,,,,,15,,57,72
75600,note_on,,1,0,14,,,,,,,,,,,,,,,,10,,86,72
75600,note_on,,1,0,16,,,,,,,,,,,,,,,,12,,69,60
75719,note_on,,119,0,8,,,,,,,,,,,,,,,,4,,74,0
75720,note_on,,1,0,8,,,,,,,,,,,,,,,,4,,62,72
75779,note_on,,59,0,8,,,,,,,,,,,,,,,,4,,62,0
75779,note_on,,179,0,7,,,,,,,,,,,,,,,,3,,78,0
75780,note_on,,1,0,8,,,,,,,,,,,,,,,,4,,66,72
75780,note_on,,1,0,7,,,,,,,,,,,,,,,,3,,74,72
75839,note_on,,0,0,18,,,,,,,,,,,,,,,,15,,78,0
75839,note_on,,239,0,18,,,,,,,,,,,,,,,,15,,50,0
75839,note_on,,0,0,18,,,,,,,,,,,,,,,,15,,86,0
75839,note_on,,0,0,18,,,,,,,,,,,,,,,,15,,81,0
75839,note_on,,0,0,18,,,,,,,,,,,,,,,,15,,64,0
75839,note_on,,0,0,18,,,,,,,,,,,,,,,,15,,57,0
75839,note_on,,239,0,16,,,,,,,,,,,,,,,,12,,69,0
75839,note_on,,239,0,14,,,,,,,,,,,,,,,,10,,86,0
75839,note_on,,59,0,8,,,,,,,,,,,,,,,,4,,66,0
75839,note_on,,239,0,15,,,,,,,,,,,,,,,,11,,78,0
75839,note_on,,239,0,9,,,,,,,,,,,,,,,,5,,74,0
75839,note_on,,59,0,7,,,,,,,,,,,,,,,,3,,74,0
75839,note_on,,239,0,10,,,,,,,,,,,,,,,,6,,69,0
75839,note_on,,239,0,6,,,,,,,,,,,,,,,,2,,50,0
75839,note_on,,239,0,17,,,,,,,,,,,,,,,,13,,50,0
75839,note_on,,239,0,5,,,,,,,,,,,,,,,,1,,74,0
75839,note_on,,239,0,12,,,,,,,,,,,,,,,,8,,50,0
75839,note_on,,239,0,11,,,,,,,,,,,,,,,,7,,66,0
75839,note_on,,239,0,13,,,,,,,,,,,,,,,,14,,50,0
75840,note_on,,1,0,7,,,,,,,,,,,,,,,,3,,76,72
75840,note_on,,1,0,18,,,,,,,,,,,,,,,,15,,57,72
75840,note_on,,1,0,8,,,,,,,,,,,,,,,,4,,69,72
75840,note_on,,1,0,16,,,,,,,,,,,,,,,,12,,69,60
75840,note_on,,0,0,18,,,,,,,,,,,,,,,,15,,76,72
75840,note_on,,1,0,13,,,,,,,,,,,,,,,,14,,45,72
75840,note_on,,1,0,11,,,,,,,,,,,,,,,,7,,64,72
75840,note_on,,1,0,9,,,,,,,,,,,,,,,,5,,74,72
75840,note_on,,1,0,14,,,,,,,,,,,,,,,,10,,86,72
75840,note_on,,1,0,12,,,,,,,,,,,,,,,,8,,57,72
75840,note_on,,1,0,10,,,,,,,,,,,,,,,,6,,69,72
75840,note_on,,1,0,15,,,,,,,,,,,,,,,,11,,76,72
75840,note_on,,0,0,18,,,,,,,,,,,,,,,,15,,69,72
75840,note_on,,0,0,18,,,,,,,,,,,,,,,,15,,74,72
75840,note_on,,1,0,6,,,,,,,,,,,,,,,,2,,57,72
75840,note_on,,1,0,5,,,,,,,,,,,,,,,,1,,74,72
75840,note_on,,0,0,18,,,,,,,,,,,,,,,,15,,64,72
75840,note_on,,1,0,17,,,,,,,,,,,,,,,,13,,57,72
76079,note_on,,239,0,18,,,,,,,,,,,,,,,,15,,57,0
76079,note_on,,239,0,5,,,,,,,,,,,,,,,,1,,74,0
76079,note_on,,0,0,18,,,,,,,,,,,,,,,,15,,74,0
76079,note_on,,239,0,6,,,,,,,,,,,,,,,,2,,57,0
76079,note_on,,239,0,14,,,,,,,,,,,,,,,,10,,86,0
76079,note_on,,239,0,9,,,,,,,,,,,,,,,,5,,74,0
76079,note_on,,0,0,18,,,,,,,,,,,,,,,,15,,69,0
76079,note_on,,0,0,18,,,,,,,,,,,,,,,,15,,64,0
76079,note_on,,239,0,17,,,,,,,,,,,,,,,,13,,57,0
76080,note_on,,1,0,9,,,,,,,,,,,,,,,,5,,73,72
76080,note_on,,0,0,18,,,,,,,,,,,,,,,,15,,64,72
76080,note_on,,0,0,18,,,,,,,,,,,,,,,,15,,57,72
76080,note_on,,1,0,6,,,,,,,,,,,,,,,,2,,45,72
76080,note_on,,1,0,14,,,,,,,,,,,,,,,,10,,85,72
76080,note_on,,1,0,5,,,,,,,,,,,,,,,,1,,73,72
76080,note_on,,1,0,17,,,,,,,,,,,,,,,,13,,45,72
76080,note_on,,0,0,18,,,,,,,,,,,,,,,,15,,69,72
76080,note_on,,0,0,18,,,,,,,,,,,,,,,,15,,73,72
76080,note_on,,1,0,18,,,,,,,,,,,,,,,,15,,45,72
76199,note_on,,359,0,8,,,,,,,,,,,,,,,,4,,69,0
76200,note_on,,1,0,8,,,,,,,,,,,,,,,,4,,69,72
76319,note_on,,0,0,18,,,,,,,,,,,,,,,,15,,64,0
76319,note_on,,0,0,18,,,,,,,,,,,,,,,,15,,45,0
76319,note_on,,239,0,17,,,,,,,,,,,,,,,,13,,45,0
76319,note_on,,0,0,18,,,,,,,,,,,,,,,,15,,73,0
76319,note_on,,479,0,11,,,,,,,,,,,,,,,,7,,64,0
76319,note_on,,0,0,18,,,,,,,,,,,,,,,,15,,69,0
76319,note_on,,239,0,14,,,,,,,,,,,,,,,,10,,85,0
76319,note_on,,479,0,7,,,,,,,,,,,,,,,,3,,76,0
76319,note_on,,479,0,16,,,,,,,,,,,,,,,,12,,69,0
76319,note_on,,239,0,5,,,,,,,,,,,,,,,,1,,73,0
76319,note_on,,239,0,9,,,,,,,,,,,,,,,,5,,73,0
76319,note_on,,479,0,10,,,,,,,,,,,,,,,,6,,69,0
76319,note_on,,239,0,6,,,,,,,,,,,,,,,,2,,45,0
76319,note_on,,119,0,8,,,,,,,,,,,,,,,,4,,69,0
76319,note_on,,479,0,15,,,,,,,,,,,,,,,,11,,76,0
76319,note_on,,479,0,13,,,,,,,,,,,,,,,,14,,45,0
76319,note_on,,0,0,18,,,,,,,,,,,,,,,,15,,57,0
76319,note_on,,479,0,12,,,,,,,,,,,,,,,,8,,57,0
76319,note_on,,239,0,18,,,,,,,,,,,,,,,,15,,76,0
76320,note_on,,1,0,12,,,,,,,,,,,,,,,,8,,50,72
76320,note_on,,1,0,7,,,,,,,,,,,,,,,,3,,74,72
76320,note_on,,1,0,13,,,,,,,,,,,,,,,,14,,50,72
76320,note_on,,1,0,5,,,,,,,,,,,,,,,,1,,74,72
76320,note_on,,1,0,11,,,,,,,,,,,,,,,,7,,66,72
76320,note_on,,1,0,10,,,,,,,,,,,,,,,,6,,69,72
76320,note_on,,0,0,18,,,,,,,,,,,,,,,,15,,57,72
76320,note_on,,1,0,16,,,,,,,,,,,,,,,,12,,69,60
76320,note_on,,1,0,15,,,,,,,,,,,,,,,,11,,78,72
76320,note_on,,1,0,8,,,,,,,,,,,,,,,,4,,66,72
76320,note_on,,1,0,6,,,,,,,,,,,,,,,,2,,50,72
76320,note_on,,1,0,9,,,,,,,,,,,,,,,,5,,74,72
76320,set_tempo,,960,1,0,,,,,,,,,480000,,,,,,,,,,
76320,note_on,,0,0,18,,,,,,,,,,,,,,,,15,,78,72
76320,note_on,,0,0,18,,,,,,,,,,,,,,,,15,,74,72
76320,note_on,,0,0,18,,,,,,,,,,,,,,,,15,,69,72
76320,note_on,,1,0,14,,,,,,,,,,,,,,,,10,,86,72
76320,note_on,,1,0,17,,,,,,,,,,,,,,,,13,,50,72
76320,note_on,,0,0,18,,,,,,,,,,,,,,,,15,,62,72
76320,note_on,,1,0,18,,,,,,,,,,,,,,,,15,,50,72
76334,note_on,,14,0,13,,,,,,,,,,,,,,,,14,,50,0
76335,note_on,,1,0,13,,,,,,,,,,,,,,,,14,,50,72
76349,note_on,,14,0,13,,,,,,,,,,,,,,,,14,,50,0
76350,note_on,,1,0,13,,,,,,,,,,,,,,,,14,,50,72
76364,note_on,,14,0,13,,,,,,,,,,,,,,,,14,,50,0
76365,note_on,,1,0,13,,,,,,,,,,,,,,,,14,,50,72
76379,note_on,,14,0,13,,,,,,,,,,,,,,,,14,,50,0
76380,note_on,,1,0,13,,,,,,,,,,,,,,,,14,,50,72
76394,note_on,,14,0,13,,,,,,,,,,,,,,,,14,,50,0
76395,note_on,,1,0,13,,,,,,,,,,,,,,,,14,,50,72
76409,note_on,,14,0,13,,,,,,,,,,,,,,,,14,,50,0
76410,note_on,,1,0,13,,,,,,,,,,,,,,,,14,,50,72
76424,note_on,,14,0,13,,,,,,,,,,,,,,,,14,,50,0
76425,note_on,,1,0,13,,,,,,,,,,,,,,,,14,,50,72
76439,note_on,,14,0,13,,,,,,,,,,,,,,,,14,,50,0
76440,note_on,,1,0,13,,,,,,,,,,,,,,,,14,,50,72
76454,note_on,,14,0,13,,,,,,,,,,,,,,,,14,,50,0
76455,note_on,,1,0,13,,,,,,,,,,,,,,,,14,,50,72
76469,note_on,,14,0,13,,,,,,,,,,,,,,,,14,,50,0
76470,note_on,,1,0,13,,,,,,,,,,,,,,,,14,,50,72
76484,note_on,,14,0,13,,,,,,,,,,,,,,,,14,,50,0
76485,note_on,,1,0,13,,,,,,,,,,,,,,,,14,,50,72
76499,note_on,,14,0,13,,,,,,,,,,,,,,,,14,,50,0
76500,note_on,,1,0,13,,,,,,,,,,,,,,,,14,,50,72
76514,note_on,,14,0,13,,,,,,,,,,,,,,,,14,,50,0
76515,note_on,,1,0,13,,,,,,,,,,,,,,,,14,,50,72
76529,note_on,,14,0,13,,,,,,,,,,,,,,,,14,,50,0
76530,note_on,,1,0,13,,,,,,,,,,,,,,,,14,,50,72
76544,note_on,,14,0,13,,,,,,,,,,,,,,,,14,,50,0
76545,note_on,,1,0,13,,,,,,,,,,,,,,,,14,,50,72
76559,note_on,,14,0,13,,,,,,,,,,,,,,,,14,,50,0
76560,note_on,,1,0,13,,,,,,,,,,,,,,,,14,,50,72
76574,note_on,,14,0,13,,,,,,,,,,,,,,,,14,,50,0
76575,note_on,,1,0,13,,,,,,,,,,,,,,,,14,,50,72
76589,note_on,,14,0,13,,,,,,,,,,,,,,,,14,,50,0
76590,note_on,,1,0,13,,,,,,,,,,,,,,,,14,,50,72
76604,note_on,,14,0,13,,,,,,,,,,,,,,,,14,,50,0
76605,note_on,,1,0,13,,,,,,,,,,,,,,,,14,,50,72
76619,note_on,,14,0,13,,,,,,,,,,,,,,,,14,,50,0
76620,note_on,,1,0,13,,,,,,,,,,,,,,,,14,,50,72
76634,note_on,,14,0,13,,,,,,,,,,,,,,,,14,,50,0
76635,note_on,,1,0,13,,,,,,,,,,,,,,,,14,,50,72
76649,note_on,,14,0,13,,,,,,,,,,,,,,,,14,,50,0
76650,note_on,,1,0,13,,,,,,,,,,,,,,,,14,,50,72
76664,note_on,,14,0,13,,,,,,,,,,,,,,,,14,,50,0
76665,note_on,,1,0,13,,,,,,,,,,,,,,,,14,,50,72
76679,note_on,,14,0,13,,,,,,,,,,,,,,,,14,,50,0
76680,note_on,,1,0,13,,,,,,,,,,,,,,,,14,,50,72
76694,note_on,,14,0,13,,,,,,,,,,,,,,,,14,,50,0
76695,note_on,,1,0,13,,,,,,,,,,,,,,,,14,,50,72
76709,note_on,,14,0,13,,,,,,,,,,,,,,,,14,,50,0
76710,note_on,,1,0,13,,,,,,,,,,,,,,,,14,,50,72
76724,note_on,,14,0,13,,,,,,,,,,,,,,,,14,,50,0
76725,note_on,,1,0,13,,,,,,,,,,,,,,,,14,,50,72
76739,note_on,,14,0,13,,,,,,,,,,,,,,,,14,,50,0
76740,note_on,,1,0,13,,,,,,,,,,,,,,,,14,,50,72
76754,note_on,,14,0,13,,,,,,,,,,,,,,,,14,,50,0
76755,note_on,,1,0,13,,,,,,,,,,,,,,,,14,,50,72
76769,note_on,,14,0,13,,,,,,,,,,,,,,,,14,,50,0
76770,note_on,,1,0,13,,,,,,,,,,,,,,,,14,,50,72
76784,note_on,,14,0,13,,,,,,,,,,,,,,,,14,,50,0
76785,note_on,,1,0,13,,,,,,,,,,,,,,,,14,,50,72
76799,note_on,,14,0,13,,,,,,,,,,,,,,,,14,,50,0
76800,note_on,,1,0,13,,,,,,,,,,,,,,,,14,,50,72
76814,note_on,,14,0,13,,,,,,,,,,,,,,,,14,,50,0
76815,note_on,,1,0,13,,,,,,,,,,,,,,,,14,,50,72
76829,note_on,,14,0,13,,,,,,,,,,,,,,,,14,,50,0
76830,note_on,,1,0,13,,,,,,,,,,,,,,,,14,,50,72
76844,note_on,,14,0,13,,,,,,,,,,,,,,,,14,,50,0
76845,note_on,,1,0,13,,,,,,,,,,,,,,,,14,,50,72
76859,note_on,,14,0,13,,,,,,,,,,,,,,,,14,,50,0
76860,note_on,,1,0,13,,,,,,,,,,,,,,,,14,,50,72
76874,note_on,,14,0,13,,,,,,,,,,,,,,,,14,,50,0
76875,note_on,,1,0,13,,,,,,,,,,,,,,,,14,,50,72
76889,note_on,,14,0,13,,,,,,,,,,,,,,,,14,,50,0
76890,note_on,,1,0,13,,,,,,,,,,,,,,,,14,,50,72
76904,note_on,,14,0,13,,,,,,,,,,,,,,,,14,,50,0
76905,note_on,,1,0,13,,,,,,,,,,,,,,,,14,,50,72
76919,note_on,,14,0,13,,,,,,,,,,,,,,,,14,,50,0
76920,note_on,,1,0,13,,,,,,,,,,,,,,,,14,,50,72
76934,note_on,,14,0,13,,,,,,,,,,,,,,,,14,,50,0
76935,note_on,,1,0,13,,,,,,,,,,,,,,,,14,,50,72
76949,note_on,,14,0,13,,,,,,,,,,,,,,,,14,,50,0
76950,note_on,,1,0,13,,,,,,,,,,,,,,,,14,,50,72
76964,note_on,,14,0,13,,,,,,,,,,,,,,,,14,,50,0
76965,note_on,,1,0,13,,,,,,,,,,,,,,,,14,,50,72
76979,note_on,,14,0,13,,,,,,,,,,,,,,,,14,,50,0
76980,note_on,,1,0,13,,,,,,,,,,,,,,,,14,,50,72
76994,note_on,,14,0,13,,,,,,,,,,,,,,,,14,,50,0
76995,note_on,,1,0,13,,,,,,,,,,,,,,,,14,,50,72
77009,note_on,,14,0,13,,,,,,,,,,,,,,,,14,,50,0
77010,note_on,,1,0,13,,,,,,,,,,,,,,,,14,,50,72
77024,note_on,,14,0,13,,,,,,,,,,,,,,,,14,,50,0
77025,note_on,,1,0,13,,,,,,,,,,,,,,,,14,,50,72
77039,note_on,,14,0,13,,,,,,,,,,,,,,,,14,,50,0
77040,note_on,,1,0,13,,,,,,,,,,,,,,,,14,,50,72
77054,note_on,,14,0,13,,,,,,,,,,,,,,,,14,,50,0
77055,note_on,,1,0,13,,,,,,,,,,,,,,,,14,,50,72
77069,note_on,,14,0,13,,,,,,,,,,,,,,,,14,,50,0
77070,note_on,,1,0,13,,,,,,,,,,,,,,,,14,,50,72
77084,note_on,,14,0,13,,,,,,,,,,,,,,,,14,,50,0
77085,note_on,,1,0,13,,,,,,,,,,,,,,,,14,,50,72
77099,note_on,,14,0,13,,,,,,,,,,,,,,,,14,,50,0
77100,note_on,,1,0,13,,,,,,,,,,,,,,,,14,,50,72
77114,note_on,,14,0,13,,,,,,,,,,,,,,,,14,,50,0
77115,note_on,,1,0,13,,,,,,,,,,,,,,,,14,,50,72
77129,note_on,,14,0,13,,,,,,,,,,,,,,,,14,,50,0
77130,note_on,,1,0,13,,,,,,,,,,,,,,,,14,,50,72
77144,note_on,,14,0,13,,,,,,,,,,,,,,,,14,,50,0
77145,note_on,,1,0,13,,,,,,,,,,,,,,,,14,,50,72
77159,note_on,,14,0,13,,,,,,,,,,,,,,,,14,,50,0
77160,note_on,,1,0,13,,,,,,,,,,,,,,,,14,,50,72
77174,note_on,,14,0,13,,,,,,,,,,,,,,,,14,,50,0
77175,note_on,,1,0,13,,,,,,,,,,,,,,,,14,,50,72
77189,note_on,,14,0,13,,,,,,,,,,,,,,,,14,,50,0
77190,note_on,,1,0,13,,,,,,,,,,,,,,,,14,,50,72
77204,note_on,,14,0,13,,,,,,,,,,,,,,,,14,,50,0
77205,note_on,,1,0,13,,,,,,,,,,,,,,,,14,,50,72
77219,note_on,,14,0,13,,,,,,,,,,,,,,,,14,,50,0
77220,note_on,,1,0,13,,,,,,,,,,,,,,,,14,,50,72
77234,note_on,,14,0,13,,,,,,,,,,,,,,,,14,,50,0
77235,note_on,,1,0,13,,,,,,,,,,,,,,,,14,,50,72
77249,note_on,,14,0,13,,,,,,,,,,,,,,,,14,,50,0
77250,note_on,,1,0,13,,,,,,,,,,,,,,,,14,,50,72
77264,note_on,,14,0,13,,,,,,,,,,,,,,,,14,,50,0
77265,note_on,,1,0,13,,,,,,,,,,,,,,,,14,,50,72
77279,note_on,,14,0,13,,,,,,,,,,,,,,,,14,,50,0
77280,note_on,,1,0,13,,,,,,,,,,,,,,,,14,,50,72
77294,note_on,,14,0,13,,,,,,,,,,,,,,,,14,,50,0
77295,note_on,,1,0,13,,,,,,,,,,,,,,,,14,,50,72
77309,note_on,,14,0,13,,,,,,,,,,,,,,,,14,,50,0
77310,note_on,,1,0,13,,,,,,,,,,,,,,,,14,,50,72
77324,note_on,,14,0,13,,,,,,,,,,,,,,,,14,,50,0
77325,note_on,,1,0,13,,,,,,,,,,,,,,,,14,,50,72
77339,note_on,,14,0,13,,,,,,,,,,,,,,,,14,,50,0
77340,note_on,,1,0,13,,,,,,,,,,,,,,,,14,,50,72
77354,note_on,,14,0,13,,,,,,,,,,,,,,,,14,,50,0
77355,note_on,,1,0,13,,,,,,,,,,,,,,,,14,,50,72
77369,note_on,,14,0,13,,,,,,,,,,,,,,,,14,,50,0
77370,note_on,,1,0,13,,,,,,,,,,,,,,,,14,,50,72
77384,note_on,,14,0,13,,,,,,,,,,,,,,,,14,,50,0
77385,note_on,,1,0,13,,,,,,,,,,,,,,,,14,,50,72
77399,note_on,,14,0,13,,,,,,,,,,,,,,,,14,,50,0
77400,note_on,,1,0,13,,,,,,,,,,,,,,,,14,,50,72
77414,note_on,,14,0,13,,,,,,,,,,,,,,,,14,,50,0
77415,note_on,,1,0,13,,,,,,,,,,,,,,,,14,,50,72
77429,note_on,,14,0,13,,,,,,,,,,,,,,,,14,,50,0
77430,note_on,,1,0,13,,,,,,,,,,,,,,,,14,,50,72
77444,note_on,,14,0,13,,,,,,,,,,,,,,,,14,,50,0
77445,note_on,,1,0,13,,,,,,,,,,,,,,,,14,,50,72
77459,note_on,,14,0,13,,,,,,,,,,,,,,,,14,,50,0
77460,note_on,,1,0,13,,,,,,,,,,,,,,,,14,,50,72
77474,note_on,,14,0,13,,,,,,,,,,,,,,,,14,,50,0
77475,note_on,,1,0,13,,,,,,,,,,,,,,,,14,,50,72
77489,note_on,,14,0,13,,,,,,,,,,,,,,,,14,,50,0
77490,note_on,,1,0,13,,,,,,,,,,,,,,,,14,,50,72
77504,note_on,,14,0,13,,,,,,,,,,,,,,,,14,,50,0
77505,note_on,,1,0,13,,,,,,,,,,,,,,,,14,,50,72
77519,note_on,,14,0,13,,,,,,,,,,,,,,,,14,,50,0
77520,note_on,,1,0,13,,,,,,,,,,,,,,,,14,,50,72
77534,note_on,,14,0,13,,,,,,,,,,,,,,,,14,,50,0
77535,note_on,,1,0,13,,,,,,,,,,,,,,,,14,,50,72
77549,note_on,,14,0,13,,,,,,,,,,,,,,,,14,,50,0
77550,note_on,,1,0,13,,,,,,,,,,,,,,,,14,,50,72
77564,note_on,,14,0,13,,,,,,,,,,,,,,,,14,,50,0
77565,note_on,,1,0,13,,,,,,,,,,,,,,,,14,,50,72
77579,note_on,,14,0,13,,,,,,,,,,,,,,,,14,,50,0
77580,note_on,,1,0,13,,,,,,,,,,,,,,,,14,,50,72
77594,note_on,,14,0,13,,,,,,,,,,,,,,,,14,,50,0
77595,note_on,,1,0,13,,,,,,,,,,,,,,,,14,,50,72
77609,note_on,,14,0,13,,,,,,,,,,,,,,,,14,,50,0
77610,note_on,,1,0,13,,,,,,,,,,,,,,,,14,,50,72
77624,note_on,,14,0,13,,,,,,,,,,,,,,,,14,,50,0
77625,note_on,,1,0,13,,,,,,,,,,,,,,,,14,,50,72
77639,note_on,,14,0,13,,,,,,,,,,,,,,,,14,,50,0
77640,note_on,,1,0,13,,,,,,,,,,,,,,,,14,,50,72
77654,note_on,,14,0,13,,,,,,,,,,,,,,,,14,,50,0
77655,note_on,,1,0,13,,,,,,,,,,,,,,,,14,,50,72
77669,note_on,,14,0,13,,,,,,,,,,,,,,,,14,,50,0
77670,note_on,,1,0,13,,,,,,,,,,,,,,,,14,,50,72
77684,note_on,,14,0,13,,,,,,,,,,,,,,,,14,,50,0
77685,note_on,,1,0,13,,,,,,,,,,,,,,,,14,,50,72
77699,note_on,,14,0,13,,,,,,,,,,,,,,,,14,,50,0
77700,note_on,,1,0,13,,,,,,,,,,,,,,,,14,,50,72
77714,note_on,,14,0,13,,,,,,,,,,,,,,,,14,,50,0
77715,note_on,,1,0,13,,,,,,,,,,,,,,,,14,,50,72
77729,note_on,,14,0,13,,,,,,,,,,,,,,,,14,,50,0
77730,note_on,,1,0,13,,,,,,,,,,,,,,,,14,,50,72
77744,note_on,,14,0,13,,,,,,,,,,,,,,,,14,,50,0
77745,note_on,,1,0,13,,,,,,,,,,,,,,,,14,,50,72
77759,note_on,,0,0,18,,,,,,,,,,,,,,,,15,,69,0
77759,note_on,,0,0,18,,,,,,,,,,,,,,,,15,,62,0
77759,note_on,,0,0,18,,,,,,,,,,,,,,,,15,,74,0
77759,note_on,,0,0,18,,,,,,,,,,,,,,,,15,,78,0
77759,note_on,,1439,0,18,,,,,,,,,,,,,,,,15,,50,0
77759,note_on,,1439,0,11,,,,,,,,,,,,,,,,7,,66,0
77759,end_of_track,,0,1,15,,,,,,,,,,,,,,,,,,,
77759,note_on,,1439,0,12,,,,,,,,,,,,,,,,8,,50,0
77759,end_of_track,,0,1,12,,,,,,,,,,,,,,,,,,,
77759,note_on,,14,0,13,,,,,,,,,,,,,,,,14,,50,0
77759,end_of_track,,0,1,13,,,,,,,,,,,,,,,,,,,
77759,end_of_track,,0,1,10,,,,,,,,,,,,,,,,,,,
77759,note_on,,1439,0,10,,,,,,,,,,,,,,,,6,,69,0
77759,note_on,,0,0,18,,,,,,,,,,,,,,,,15,,57,0
77759,note_on,,1439,0,14,,,,,,,,,,,,,,,,10,,86,0
77759,end_of_track,,0,1,14,,,,,,,,,,,,,,,,,,,
77759,end_of_track,,0,1,9,,,,,,,,,,,,,,,,,,,
77759,note_on,,1439,0,9,,,,,,,,,,,,,,,,5,,74,0
77759,note_on,,1439,0,15,,,,,,,,,,,,,,,,11,,78,0
77759,end_of_track,,0,1,18,,,,,,,,,,,,,,,,,,,
77759,end_of_track,,0,1,16,,,,,,,,,,,,,,,,,,,
77759,end_of_track,,0,1,11,,,,,,,,,,,,,,,,,,,
77759,end_of_track,,0,1,8,,,,,,,,,,,,,,,,,,,
77759,note_on,,1439,0,8,,,,,,,,,,,,,,,,4,,66,0
77759,end_of_track,,0,1,7,,,,,,,,,,,,,,,,,,,
77759,note_on,,1439,0,7,,,,,,,,,,,,,,,,3,,74,0
77759,note_on,,1439,0,17,,,,,,,,,,,,,,,,13,,50,0
77759,end_of_track,,0,1,17,,,,,,,,,,,,,,,,,,,
77759,end_of_track,,0,1,6,,,,,,,,,,,,,,,,,,,
77759,note_on,,1439,0,6,,,,,,,,,,,,,,,,2,,50,0
77759,end_of_track,,0,1,5,,,,,,,,,,,,,,,,,,,
77759,note_on,,1439,0,5,,,,,,,,,,,,,,,,1,,74,0
77759,note_on,,1439,0,16,,,,,,,,,,,,,,,,12,,69,0
77880,set_tempo,,1560,1,0,,,,,,,,,480000,,,,,,,,,,
77880,end_of_track,,0,1,0,,,,,,,,,,,,,,,,,,,
