tick,type,data,time,meta,track,frame_rate,hours,minutes,seconds,frames,sub_frames,port,key,tempo,numerator,denominator,clocks_per_click,notated_32nd_notes_per_beat,control,value,channel,program,note,velocity
0,sequencer_specific,"(0, 0, 91, 35, 1, 0, 5, 4, 35, 0)",0,1,0,,,,,,,,,,,,,,,,,,,
0,control_change,,0,0,10,,,,,,,,,,,,,,10,96,13,,,
0,program_change,,0,0,10,,,,,,,,,,,,,,,,13,48,,
0,note_on,,0,0,10,,,,,,,,,,,,,,,,13,,51,72
0,track_name,,0,1,11,,,,,,,,,,,,,,,,,,,
0,midi_port,,0,1,11,,,,,,,0,,,,,,,,,,,,
0,control_change,,0,0,11,,,,,,,,,,,,,,11,127,15,,,
0,control_change,,0,0,11,,,,,,,,,,,,,,7,96,15,,,
0,control_change,,0,0,11,,,,,,,,,,,,,,10,90,15,,,
0,control_change,,0,0,10,,,,,,,,,,,,,,7,96,13,,,
0,program_change,,0,0,11,,,,,,,,,,,,,,,,15,6,,
0,note_on,,0,0,11,,,,,,,,,,,,,,,,15,,67,64
0,note_on,,0,0,11,,,,,,,,,,,,,,,,15,,63,64
0,note_on,,0,0,11,,,,,,,,,,,,,,,,15,,58,64
0,midi_port,,0,1,7,,,,,,,0,,,,,,,,,,,,
0,program_change,,0,0,6,,,,,,,,,,,,,,,,6,73,,
0,control_change,,0,0,6,,,,,,,,,,,,,,7,96,6,,,
0,control_change,,0,0,6,,,,,,,,,,,,,,10,70,6,,,
0,control_change,,0,0,6,,,,,,,,,,,,,,11,127,6,,,
0,note_on,,0,0,11,,,,,,,,,,,,,,,,15,,51,64
0,midi_port,,0,1,6,,,,,,,0,,,,,,,,,,,,
0,control_change,,0,0,10,,,,,,,,,,,,,,11,127,13,,,
0,track_name,,0,1,10,,,,,,,,,,,,,,,,,,,
0,control_change,,0,0,7,,,,,,,,,,,,,,11,127,10,,,
0,control_change,,0,0,7,,,,,,,,,,,,,,7,96,10,,,
0,control_change,,0,0,7,,,,,,,,,,,,,,10,48,10,,,
0,program_change,,0,0,7,,,,,,,,,,,,,,,,10,48,,
0,track_name,,0,1,8,,,,,,,,,,,,,,,,,,,
0,midi_port,,0,1,8,,,,,,,0,,,,,,,,,,,,
0,control_change,,0,0,8,,,,,,,,,,,,,,11,127,11,,,
0,control_change,,0,0,8,,,,,,,,,,,,,,7,96,11,,,
0,midi_port,,0,1,10,,,,,,,0,,,,,,,,,,,,
0,control_change,,0,0,8,,,,,,,,,,,,,,10,24,11,,,
0,note_on,,0,0,8,,,,,,,,,,,,,,,,11,,55,72
0,track_name,,0,1,9,,,,,,,,,,,,,,,,,,,
0,midi_port,,0,1,9,,,,,,,0,,,,,,,,,,,,
0,control_change,,0,0,9,,,,,,,,,,,,,,11,127,12,,,
0,control_change,,0,0,9,,,,,,,,,,,,,,7,96,12,,,
0,control_change,,0,0,9,,,,,,,,,,,,,,10,80,12,,,
0,program_change,,0,0,9,,,,,,,,,,,,,,,,12,48,,
0,note_on,,0,0,9,,,,,,,,,,,,,,,,12,,58,72
0,program_change,,0,0,8,,,,,,,,,,,,,,,,11,48,,
0,track_name,,0,1,6,,,,,,,,,,,,,,,,,,,
0,track_name,,0,1,7,,,,,,,,,,,,,,,,,,,
0,midi_port,,0,1,4,,,,,,,0,,,,,,,,,,,,
0,track_name,,0,1,5,,,,,,,,,,,,,,,,,,,
0,midi_port,,0,1,5,,,,,,,0,,,,,,,,,,,,
0,control_change,,0,0,5,,,,,,,,,,,,,,11,127,2,,,
0,control_change,,0,0,5,,,,,,,,,,,,,,7,80,2,,,
0,midi_port,,0,1,3,,,,,,,0,,,,,,,,,,,,
0,track_name,,0,1,3,,,,,,,,,,,,,,,,,,,
0,end_of_track,,0,1,2,,,,,,,,,,,,,,,,,,,
0,midi_port,,0,1,2,,,,,,,0,,,,,,,,,,,,
0,track_name,,0,1,2,,,,,,,,,,,,,,,,,,,
0,end_of_track,,0,1,1,,,,,,,,,,,,,,,,,,,
0,midi_port,,0,1,1,,,,,,,0,,,,,,,,,,,,
0,control_change,,0,0,5,,,,,,,,,,,,,,10,65,2,,,
0,program_change,,0,0,5,,,,,,,,,,,,,,,,2,70,,
0,track_name,,0,1,1,,,,,,,,,,,,,,,,,,,
0,end_of_track,,0,1,4,,,,,,,,,,,,,,,,,,,
0,note_on,,0,0,5,,,,,,,,,,,,,,,,2,,51,72
0,end_of_track,,0,1,3,,,,,,,,,,,,,,,,,,,
0,track_name,,0,1,0,,,,,,,,,,,,,,,,,,,
0,instrument_name,,0,1,0,,,,,,,,,,,,,,,,,,,
0,smpte_offset,,0,1,0,25,32,0,3,0,0,,,,,,,,,,,,,
0,time_signature,,0,1,0,,,,,,,,,,4,4,24,8,,,,,,
0,set_tempo,,0,1,0,,,,,,,,,1090909,,,,,,,,,,
0,key_signature,,0,1,0,,,,,,,,Eb,,,,,,,,,,,
0,midi_port,,0,1,0,,,,,,,0,,,,,,,,,,,,
119,note_on,,119,0,10,,,,,,,,,,,,,,,,13,,51,0
119,note_on,,119,0,11,,,,,,,,,,,,,,,,15,,51,0
119,note_on,,119,0,5,,,,,,,,,,,,,,,,2,,51,0
119,note_on,,119,0,9,,,,,,,,,,,,,,,,12,,58,0
119,note_on,,119,0,8,,,,,,,,,,,,,,,,11,,55,0
120,note_on,,1,0,11,,,,,,,,,,,,,,,,15,,39,64
120,note_on,,1,0,10,,,,,,,,,,,,,,,,13,,39,72
120,note_on,,1,0,5,,,,,,,,,,,,,,,,2,,39,72
180,note_on,,180,0,7,,,,,,,,,,,,,,,,10,,58,72
239,note_on,,119,0,5,,,,,,,,,,,,,,,,2,,39,0
239,note_on,,0,0,11,,,,,,,,,,,,,,,,15,,58,0
239,note_on,,119,0,11,,,,,,,,,,,,,,,,15,,67,0
239,note_on,,0,0,11,,,,,,,,,,,,,,,,15,,39,0
239,note_on,,0,0,11,,,,,,,,,,,,,,,,15,,63,0
239,note_on,,119,0,10,,,,,,,,,,,,,,,,13,,39,0
239,note_on,,59,0,7,,,,,,,,,,,,,,,,10,,58,0
240,note_on,,1,0,7,,,,,,,,,,,,,,,,10,,63,72
300,note_on,,181,0,8,,,,,,,,,,,,,,,,11,,58,72
300,note_on,,61,0,5,,,,,,,,,,,,,,,,2,,43,72
300,note_on,,0,0,11,,,,,,,,,,,,,,,,15,,58,64
300,note_on,,61,0,10,,,,,,,,,,,,,,,,13,,43,72
300,note_on,,0,0,11,,,,,,,,,,,,,,,,15,,70,64
300,note_on,,0,0,11,,,,,,,,,,,,,,,,15,,43,64
300,note_on,,61,0,11,,,,,,,,,,,,,,,,15,,63,64
359,note_on,,0,0,11,,,,,,,,,,,,,,,,15,,58,0
359,note_on,,0,0,11,,,,,,,,,,,,,,,,15,,70,0
359,note_on,,59,0,11,,,,,,,,,,,,,,,,15,,63,0
359,note_on,,0,0,11,,,,,,,,,,,,,,,,15,,43,0
359,note_on,,59,0,8,,,,,,,,,,,,,,,,11,,58,0
359,note_on,,59,0,10,,,,,,,,,,,,,,,,13,,43,0
359,note_on,,59,0,5,,,,,,,,,,,,,,,,2,,43,0
360,note_on,,0,0,11,,,,,,,,,,,,,,,,15,,44,64
360,note_on,,1,0,8,,,,,,,,,,,,,,,,11,,65,72
360,note_on,,1,0,10,,,,,,,,,,,,,,,,13,,44,72
360,note_on,,0,0,11,,,,,,,,,,,,,,,,15,,65,64
360,note_on,,1,0,5,,,,,,,,,,,,,,,,2,,44,72
360,note_on,,1,0,11,,,,,,,,,,,,,,,,15,,60,64
360,note_on,,0,0,11,,,,,,,,,,,,,,,,15,,63,64
419,note_on,,0,0,11,,,,,,,,,,,,,,,,15,,63,0
419,note_on,,59,0,11,,,,,,,,,,,,,,,,15,,60,0
419,note_on,,0,0,11,,,,,,,,,,,,,,,,15,,44,0
419,note_on,,59,0,5,,,,,,,,,,,,,,,,2,,44,0
419,note_on,,179,0,7,,,,,,,,,,,,,,,,10,,63,0
419,note_on,,59,0,10,,,,,,,,,,,,,,,,13,,44,0
420,note_on,,1,0,10,,,,,,,,,,,,,,,,13,,46,72
420,note_on,,301,0,9,,,,,,,,,,,,,,,,12,,58,72
420,note_on,,0,0,11,,,,,,,,,,,,,,,,15,,58,64
420,note_on,,1,0,5,,,,,,,,,,,,,,,,2,,46,72
420,note_on,,1,0,11,,,,,,,,,,,,,,,,15,,46,64
420,note_on,,1,0,7,,,,,,,,,,,,,,,,10,,62,72
420,note_on,,0,0,11,,,,,,,,,,,,,,,,15,,62,64
479,note_on,,59,0,11,,,,,,,,,,,,,,,,15,,65,0
479,note_on,,59,0,10,,,,,,,,,,,,,,,,13,,46,0
479,note_on,,0,0,11,,,,,,,,,,,,,,,,15,,62,0
479,note_on,,0,0,11,,,,,,,,,,,,,,,,15,,58,0
479,note_on,,119,0,8,,,,,,,,,,,,,,,,11,,65,0
479,note_on,,59,0,9,,,,,,,,,,,,,,,,12,,58,0
479,note_on,,59,0,7,,,,,,,,,,,,,,,,10,,62,0
479,note_on,,0,0,11,,,,,,,,,,,,,,,,15,,46,0
479,note_on,,59,0,5,,,,,,,,,,,,,,,,2,,46,0
480,note_on,,1,0,8,,,,,,,,,,,,,,,,11,,63,72
480,note_on,,1,0,10,,,,,,,,,,,,,,,,13,,51,72
480,note_on,,0,0,11,,,,,,,,,,,,,,,,15,,63,64
480,note_on,,0,0,11,,,,,,,,,,,,,,,,15,,58,64
480,note_on,,0,0,11,,,,,,,,,,,,,,,,15,,67,64
480,note_on,,1,0,5,,,,,,,,,,,,,,,,2,,51,72
480,note_on,,1,0,7,,,,,,,,,,,,,,,,10,,67,72
480,note_on,,1,0,9,,,,,,,,,,,,,,,,12,,58,72
480,note_on,,1,0,11,,,,,,,,,,,,,,,,15,,51,64
539,note_on,,59,0,10,,,,,,,,,,,,,,,,13,,51,0
539,note_on,,0,0,11,,,,,,,,,,,,,,,,15,,58,0
539,note_on,,59,0,7,,,,,,,,,,,,,,,,10,,67,0
539,note_on,,0,0,11,,,,,,,,,,,,,,,,15,,63,0
539,note_on,,59,0,5,,,,,,,,,,,,,,,,2,,51,0
539,note_on,,59,0,9,,,,,,,,,,,,,,,,12,,58,0
539,note_on,,59,0,8,,,,,,,,,,,,,,,,11,,63,0
539,note_on,,59,0,11,,,,,,,,,,,,,,,,15,,51,0
539,note_on,,0,0,11,,,,,,,,,,,,,,,,15,,67,0
540,note_on,,1,0,8,,,,,,,,,,,,,,,,11,,62,72
540,note_on,,0,0,11,,,,,,,,,,,,,,,,15,,46,64
540,note_on,,0,0,11,,,,,,,,,,,,,,,,15,,65,64
540,note_on,,0,0,11,,,,,,,,,,,,,,,,15,,58,64
540,note_on,,1,0,7,,,,,,,,,,,,,,,,10,,65,72
540,note_on,,1,0,5,,,,,,,,,,,,,,,,2,,46,72
540,note_on,,1,0,11,,,,,,,,,,,,,,,,15,,62,64
540,note_on,,1,0,10,,,,,,,,,,,,,,,,13,,46,72
540,note_on,,1,0,9,,,,,,,,,,,,,,,,12,,58,72
599,note_on,,0,0,11,,,,,,,,,,,,,,,,15,,46,0
599,note_on,,0,0,11,,,,,,,,,,,,,,,,15,,65,0
599,note_on,,0,0,11,,,,,,,,,,,,,,,,15,,58,0
599,note_on,,59,0,10,,,,,,,,,,,,,,,,13,,46,0
599,note_on,,59,0,11,,,,,,,,,,,,,,,,15,,62,0
599,note_on,,59,0,9,,,,,,,,,,,,,,,,12,,58,0
599,note_on,,59,0,7,,,,,,,,,,,,,,,,10,,65,0
599,note_on,,59,0,8,,,,,,,,,,,,,,,,11,,62,0
599,note_on,,59,0,5,,,,,,,,,,,,,,,,2,,46,0
660,note_on,,61,0,7,,,,,,,,,,,,,,,,10,,82,48
660,note_on,,61,0,8,,,,,,,,,,,,,,,,11,,79,48
719,note_on,,59,0,8,,,,,,,,,,,,,,,,11,,79,0
719,note_on,,59,0,7,,,,,,,,,,,,,,,,10,,82,0
720,note_on,,1,0,8,,,,,,,,,,,,,,,,11,,77,48
720,note_on,,1,0,7,,,,,,,,,,,,,,,,10,,80,48
734,note_on,,14,0,7,,,,,,,,,,,,,,,,10,,80,0
734,note_on,,14,0,8,,,,,,,,,,,,,,,,11,,77,0
735,note_on,,1,0,7,,,,,,,,,,,,,,,,10,,82,48
735,note_on,,1,0,8,,,,,,,,,,,,,,,,11,,79,48
749,note_on,,14,0,8,,,,,,,,,,,,,,,,11,,79,0
749,note_on,,14,0,7,,,,,,,,,,,,,,,,10,,82,0
750,note_on,,1,0,8,,,,,,,,,,,,,,,,11,,75,48
750,note_on,,1,0,7,,,,,,,,,,,,,,,,10,,79,48
764,note_on,,14,0,8,,,,,,,,,,,,,,,,11,,75,0
764,note_on,,14,0,7,,,,,,,,,,,,,,,,10,,79,0
765,note_on,,1,0,8,,,,,,,,,,,,,,,,11,,77,48
765,note_on,,1,0,7,,,,,,,,,,,,,,,,10,,80,48
779,note_on,,14,0,8,,,,,,,,,,,,,,,,11,,77,0
779,note_on,,14,0,7,,,,,,,,,,,,,,,,10,,80,0
780,note_on,,1,0,8,,,,,,,,,,,,,,,,11,,75,48
780,note_on,,1,0,7,,,,,,,,,,,,,,,,10,,79,48
839,note_on,,59,0,7,,,,,,,,,,,,,,,,10,,79,0
839,note_on,,59,0,8,,,,,,,,,,,,,,,,11,,75,0
900,note_on,,61,0,8,,,,,,,,,,,,,,,,11,,77,48
900,note_on,,61,0,7,,,,,,,,,,,,,,,,10,,80,48
959,note_on,,59,0,7,,,,,,,,,,,,,,,,10,,80,0
959,note_on,,59,0,8,,,,,,,,,,,,,,,,11,,77,0
960,note_on,,1,0,7,,,,,,,,,,,,,,,,10,,79,48
960,note_on,,1,0,8,,,,,,,,,,,,,,,,11,,75,48
974,note_on,,14,0,7,,,,,,,,,,,,,,,,10,,79,0
974,note_on,,14,0,8,,,,,,,,,,,,,,,,11,,75,0
975,note_on,,1,0,7,,,,,,,,,,,,,,,,10,,80,48
975,note_on,,1,0,8,,,,,,,,,,,,,,,,11,,77,48
989,note_on,,14,0,8,,,,,,,,,,,,,,,,11,,77,0
989,note_on,,14,0,7,,,,,,,,,,,,,,,,10,,80,0
990,note_on,,1,0,7,,,,,,,,,,,,,,,,10,,77,48
990,note_on,,1,0,8,,,,,,,,,,,,,,,,11,,74,48
1004,note_on,,14,0,7,,,,,,,,,,,,,,,,10,,77,0
1004,note_on,,14,0,8,,,,,,,,,,,,,,,,11,,74,0
1005,note_on,,1,0,7,,,,,,,,,,,,,,,,10,,79,48
1005,note_on,,1,0,8,,,,,,,,,,,,,,,,11,,75,48
1019,note_on,,14,0,7,,,,,,,,,,,,,,,,10,,79,0
1019,note_on,,14,0,8,,,,,,,,,,,,,,,,11,,75,0
1020,note_on,,1,0,8,,,,,,,,,,,,,,,,11,,74,48
1020,note_on,,1,0,7,,,,,,,,,,,,,,,,10,,77,48
1079,note_on,,59,0,8,,,,,,,,,,,,,,,,11,,74,0
1079,note_on,,59,0,7,,,,,,,,,,,,,,,,10,,77,0
1140,note_on,,541,0,11,,,,,,,,,,,,,,,,15,,62,64
1140,note_on,,541,0,5,,,,,,,,,,,,,,,,2,,46,72
1140,note_on,,541,0,10,,,,,,,,,,,,,,,,13,,46,72
1140,note_on,,61,0,7,,,,,,,,,,,,,,,,10,,67,72
1140,note_on,,541,0,9,,,,,,,,,,,,,,,,12,,62,72
1140,note_on,,0,0,11,,,,,,,,,,,,,,,,15,,46,64
1140,note_on,,0,0,11,,,,,,,,,,,,,,,,15,,58,64
1140,note_on,,61,0,8,,,,,,,,,,,,,,,,11,,67,72
1199,note_on,,59,0,10,,,,,,,,,,,,,,,,13,,46,0
1199,note_on,,0,0,11,,,,,,,,,,,,,,,,15,,46,0
1199,note_on,,0,0,11,,,,,,,,,,,,,,,,15,,58,0
1199,note_on,,59,0,11,,,,,,,,,,,,,,,,15,,62,0
1199,note_on,,59,0,5,,,,,,,,,,,,,,,,2,,46,0
1199,note_on,,59,0,8,,,,,,,,,,,,,,,,11,,67,0
1199,note_on,,59,0,9,,,,,,,,,,,,,,,,12,,62,0
1199,note_on,,59,0,7,,,,,,,,,,,,,,,,10,,67,0
1200,note_on,,1,0,8,,,,,,,,,,,,,,,,11,,68,72
1200,note_on,,1,0,9,,,,,,,,,,,,,,,,12,,63,72
1200,note_on,,1,0,5,,,,,,,,,,,,,,,,2,,48,72
1200,note_on,,1,0,10,,,,,,,,,,,,,,,,13,,48,72
1200,note_on,,1,0,11,,,,,,,,,,,,,,,,15,,48,64
1200,note_on,,0,0,11,,,,,,,,,,,,,,,,15,,56,64
1200,note_on,,0,0,11,,,,,,,,,,,,,,,,15,,63,64
1200,note_on,,1,0,7,,,,,,,,,,,,,,,,10,,68,72
1259,note_on,,0,0,11,,,,,,,,,,,,,,,,15,,63,0
1259,note_on,,59,0,9,,,,,,,,,,,,,,,,12,,63,0
1259,note_on,,59,0,7,,,,,,,,,,,,,,,,10,,68,0
1259,note_on,,0,0,11,,,,,,,,,,,,,,,,15,,56,0
1259,note_on,,59,0,10,,,,,,,,,,,,,,,,13,,48,0
1259,note_on,,59,0,11,,,,,,,,,,,,,,,,15,,48,0
1259,note_on,,59,0,5,,,,,,,,,,,,,,,,2,,48,0
1259,note_on,,59,0,8,,,,,,,,,,,,,,,,11,,68,0
1260,note_on,,1,0,10,,,,,,,,,,,,,,,,13,,50,72
1260,note_on,,1,0,11,,,,,,,,,,,,,,,,15,,65,64
1260,note_on,,0,0,11,,,,,,,,,,,,,,,,15,,50,64
1260,note_on,,1,0,8,,,,,,,,,,,,,,,,11,,67,72
1260,note_on,,1,0,5,,,,,,,,,,,,,,,,2,,50,72
1260,note_on,,1,0,9,,,,,,,,,,,,,,,,12,,58,72
1260,note_on,,0,0,11,,,,,,,,,,,,,,,,15,,53,64
1260,note_on,,1,0,7,,,,,,,,,,,,,,,,10,,67,72
1289,note_on,,29,0,7,,,,,,,,,,,,,,,,10,,67,0
1289,note_on,,29,0,8,,,,,,,,,,,,,,,,11,,67,0
1290,note_on,,1,0,7,,,,,,,,,,,,,,,,10,,65,72
1290,note_on,,1,0,8,,,,,,,,,,,,,,,,11,,65,72
1319,note_on,,0,0,11,,,,,,,,,,,,,,,,15,,53,0
1319,note_on,,59,0,10,,,,,,,,,,,,,,,,13,,50,0
1319,note_on,,59,0,11,,,,,,,,,,,,,,,,15,,65,0
1319,note_on,,29,0,7,,,,,,,,,,,,,,,,10,,65,0
1319,note_on,,59,0,9,,,,,,,,,,,,,,,,12,,58,0
1319,note_on,,59,0,5,,,,,,,,,,,,,,,,2,,50,0
1319,note_on,,29,0,8,,,,,,,,,,,,,,,,11,,65,0
1319,note_on,,0,0,11,,,,,,,,,,,,,,,,15,,50,0
1320,note_on,,1,0,11,,,,,,,,,,,,,,,,15,,51,64
1320,note_on,,0,0,11,,,,,,,,,,,,,,,,15,,58,64
1320,note_on,,0,0,11,,,,,,,,,,,,,,,,15,,55,64
1320,note_on,,1,0,9,,,,,,,,,,,,,,,,12,,58,72
1320,note_on,,1,0,8,,,,,,,,,,,,,,,,11,,67,72
1320,note_on,,1,0,7,,,,,,,,,,,,,,,,10,,67,72
1320,note_on,,1,0,10,,,,,,,,,,,,,,,,13,,51,72
1320,note_on,,1,0,5,,,,,,,,,,,,,,,,2,,51,72
1379,note_on,,59,0,8,,,,,,,,,,,,,,,,11,,67,0
1379,note_on,,59,0,11,,,,,,,,,,,,,,,,15,,51,0
1379,note_on,,0,0,11,,,,,,,,,,,,,,,,15,,58,0
1379,note_on,,0,0,11,,,,,,,,,,,,,,,,15,,55,0
1379,note_on,,59,0,7,,,,,,,,,,,,,,,,10,,67,0
1379,note_on,,59,0,5,,,,,,,,,,,,,,,,2,,51,0
1379,note_on,,59,0,9,,,,,,,,,,,,,,,,12,,58,0
1379,note_on,,59,0,10,,,,,,,,,,,,,,,,13,,51,0
1380,note_on,,0,0,11,,,,,,,,,,,,,,,,15,,44,64
1380,note_on,,1,0,7,,,,,,,,,,,,,,,,10,,63,72
1380,note_on,,1,0,10,,,,,,,,,,,,,,,,13,,44,72
1380,note_on,,0,0,11,,,,,,,,,,,,,,,,15,,56,64
1380,note_on,,0,0,11,,,,,,,,,,,,,,,,15,,60,64
1380,note_on,,1,0,8,,,,,,,,,,,,,,,,11,,63,72
1380,note_on,,1,0,5,,,,,,,,,,,,,,,,2,,44,72
1380,note_on,,1,0,9,,,,,,,,,,,,,,,,12,,60,72
1380,note_on,,1,0,11,,,,,,,,,,,,,,,,15,,63,64
1439,note_on,,59,0,11,,,,,,,,,,,,,,,,15,,63,0
1439,note_on,,0,0,11,,,,,,,,,,,,,,,,15,,44,0
1439,note_on,,59,0,5,,,,,,,,,,,,,,,,2,,44,0
1439,note_on,,59,0,9,,,,,,,,,,,,,,,,12,,60,0
1439,note_on,,0,0,11,,,,,,,,,,,,,,,,15,,56,0
1439,note_on,,59,0,8,,,,,,,,,,,,,,,,11,,63,0
1439,note_on,,59,0,10,,,,,,,,,,,,,,,,13,,44,0
1439,note_on,,59,0,7,,,,,,,,,,,,,,,,10,,63,0
1439,note_on,,0,0,11,,,,,,,,,,,,,,,,15,,60,0
1440,note_on,,0,0,11,,,,,,,,,,,,,,,,15,,62,64
1440,note_on,,1,0,11,,,,,,,,,,,,,,,,15,,58,64
1440,note_on,,1,0,8,,,,,,,,,,,,,,,,11,,62,72
1440,note_on,,1,0,7,,,,,,,,,,,,,,,,10,,62,72
1440,note_on,,0,0,11,,,,,,,,,,,,,,,,15,,53,64
1440,note_on,,1,0,9,,,,,,,,,,,,,,,,12,,53,72
1440,note_on,,1,0,10,,,,,,,,,,,,,,,,13,,46,72
1440,note_on,,0,0,11,,,,,,,,,,,,,,,,15,,46,64
1440,note_on,,1,0,5,,,,,,,,,,,,,,,,2,,46,72
1499,note_on,,59,0,7,,,,,,,,,,,,,,,,10,,62,0
1499,note_on,,59,0,9,,,,,,,,,,,,,,,,12,,53,0
1499,note_on,,59,0,10,,,,,,,,,,,,,,,,13,,46,0
1499,note_on,,0,0,11,,,,,,,,,,,,,,,,15,,46,0
1499,note_on,,0,0,11,,,,,,,,,,,,,,,,15,,53,0
1499,note_on,,0,0,11,,,,,,,,,,,,,,,,15,,62,0
1499,note_on,,59,0,11,,,,,,,,,,,,,,,,15,,58,0
1499,note_on,,59,0,8,,,,,,,,,,,,,,,,11,,62,0
1499,note_on,,59,0,5,,,,,,,,,,,,,,,,2,,46,0
1500,note_on,,1,0,9,,,,,,,,,,,,,,,,12,,55,72
1500,note_on,,1,0,8,,,,,,,,,,,,,,,,11,,63,72
1500,note_on,,1,0,7,,,,,,,,,,,,,,,,10,,63,72
1500,note_on,,1,0,10,,,,,,,,,,,,,,,,13,,39,72
1500,note_on,,1,0,5,,,,,,,,,,,,,,,,2,,39,72
1500,note_on,,1,0,11,,,,,,,,,,,,,,,,15,,63,64
1500,note_on,,0,0,11,,,,,,,,,,,,,,,,15,,39,64
1500,note_on,,0,0,11,,,,,,,,,,,,,,,,15,,55,64
1500,note_on,,0,0,11,,,,,,,,,,,,,,,,15,,58,64
1559,note_on,,0,0,11,,,,,,,,,,,,,,,,15,,58,0
1559,note_on,,59,0,10,,,,,,,,,,,,,,,,13,,39,0
1559,note_on,,59,0,8,,,,,,,,,,,,,,,,11,,63,0
1559,note_on,,59,0,5,,,,,,,,,,,,,,,,2,,39,0
1559,note_on,,0,0,11,,,,,,,,,,,,,,,,15,,39,0
1559,note_on,,59,0,9,,,,,,,,,,,,,,,,12,,55,0
1559,note_on,,59,0,7,,,,,,,,,,,,,,,,10,,63,0
1559,note_on,,59,0,11,,,,,,,,,,,,,,,,15,,63,0
1559,note_on,,0,0,11,,,,,,,,,,,,,,,,15,,55,0
1620,note_on,,61,0,8,,,,,,,,,,,,,,,,11,,72,48
1620,note_on,,61,0,7,,,,,,,,,,,,,,,,10,,75,48
1679,note_on,,59,0,8,,,,,,,,,,,,,,,,11,,72,0
1679,note_on,,59,0,7,,,,,,,,,,,,,,,,10,,75,0
1680,note_on,,1,0,7,,,,,,,,,,,,,,,,10,,73,48
1680,note_on,,1,0,8,,,,,,,,,,,,,,,,11,,70,48
1694,note_on,,14,0,8,,,,,,,,,,,,,,,,11,,70,0
1694,note_on,,14,0,7,,,,,,,,,,,,,,,,10,,73,0
1695,note_on,,1,0,8,,,,,,,,,,,,,,,,11,,72,48
1695,note_on,,1,0,7,,,,,,,,,,,,,,,,10,,75,48
1709,note_on,,14,0,7,,,,,,,,,,,,,,,,10,,75,0
1709,note_on,,14,0,8,,,,,,,,,,,,,,,,11,,72,0
1710,note_on,,1,0,7,,,,,,,,,,,,,,,,10,,72,48
1710,note_on,,1,0,8,,,,,,,,,,,,,,,,11,,68,48
1724,note_on,,14,0,8,,,,,,,,,,,,,,,,11,,68,0
1724,note_on,,14,0,7,,,,,,,,,,,,,,,,10,,72,0
1725,note_on,,1,0,8,,,,,,,,,,,,,,,,11,,70,48
1725,note_on,,1,0,7,,,,,,,,,,,,,,,,10,,73,48
1739,note_on,,14,0,8,,,,,,,,,,,,,,,,11,,70,0
1739,note_on,,14,0,7,,,,,,,,,,,,,,,,10,,73,0
1740,note_on,,1,0,7,,,,,,,,,,,,,,,,10,,72,48
1740,note_on,,1,0,8,,,,,,,,,,,,,,,,11,,68,48
1799,note_on,,59,0,7,,,,,,,,,,,,,,,,10,,72,0
1799,note_on,,59,0,8,,,,,,,,,,,,,,,,11,,68,0
1860,note_on,,61,0,7,,,,,,,,,,,,,,,,10,,73,48
1860,note_on,,61,0,8,,,,,,,,,,,,,,,,11,,70,48
1919,note_on,,59,0,8,,,,,,,,,,,,,,,,11,,70,0
1919,note_on,,59,0,7,,,,,,,,,,,,,,,,10,,73,0
1920,note_on,,1,0,7,,,,,,,,,,,,,,,,10,,72,48
1920,note_on,,1,0,8,,,,,,,,,,,,,,,,11,,68,48
1934,note_on,,14,0,7,,,,,,,,,,,,,,,,10,,72,0
1934,note_on,,14,0,8,,,,,,,,,,,,,,,,11,,68,0
1935,note_on,,1,0,7,,,,,,,,,,,,,,,,10,,74,48
1935,note_on,,1,0,8,,,,,,,,,,,,,,,,11,,70,48
1949,note_on,,14,0,7,,,,,,,,,,,,,,,,10,,74,0
1949,note_on,,14,0,8,,,,,,,,,,,,,,,,11,,70,0
1950,note_on,,1,0,7,,,,,,,,,,,,,,,,10,,70,48
1950,note_on,,1,0,8,,,,,,,,,,,,,,,,11,,67,48
1964,note_on,,14,0,7,,,,,,,,,,,,,,,,10,,70,0
1964,note_on,,14,0,8,,,,,,,,,,,,,,,,11,,67,0
1965,note_on,,1,0,7,,,,,,,,,,,,,,,,10,,72,48
1965,note_on,,1,0,8,,,,,,,,,,,,,,,,11,,68,48
1979,note_on,,14,0,8,,,,,,,,,,,,,,,,11,,68,0
1979,note_on,,14,0,7,,,,,,,,,,,,,,,,10,,72,0
1980,note_on,,1,0,7,,,,,,,,,,,,,,,,10,,70,48
1980,note_on,,1,0,8,,,,,,,,,,,,,,,,11,,67,48
2039,note_on,,59,0,8,,,,,,,,,,,,,,,,11,,67,0
2039,note_on,,59,0,7,,,,,,,,,,,,,,,,10,,70,0
2100,note_on,,61,0,8,,,,,,,,,,,,,,,,11,,62,72
2100,note_on,,541,0,11,,,,,,,,,,,,,,,,15,,65,64
2100,note_on,,541,0,9,,,,,,,,,,,,,,,,12,,58,72
2100,note_on,,0,0,11,,,,,,,,,,,,,,,,15,,62,64
2100,note_on,,541,0,10,,,,,,,,,,,,,,,,13,,46,72
2100,note_on,,0,0,11,,,,,,,,,,,,,,,,15,,46,64
2100,note_on,,61,0,7,,,,,,,,,,,,,,,,10,,65,72
2100,note_on,,541,0,5,,,,,,,,,,,,,,,,2,,46,72
2100,note_on,,0,0,11,,,,,,,,,,,,,,,,15,,58,64
2159,note_on,,59,0,7,,,,,,,,,,,,,,,,10,,65,0
2159,note_on,,0,0,11,,,,,,,,,,,,,,,,15,,58,0
2159,note_on,,59,0,10,,,,,,,,,,,,,,,,13,,46,0
2159,note_on,,59,0,11,,,,,,,,,,,,,,,,15,,65,0
2159,note_on,,59,0,8,,,,,,,,,,,,,,,,11,,62,0
2159,note_on,,59,0,9,,,,,,,,,,,,,,,,12,,58,0
2159,note_on,,59,0,5,,,,,,,,,,,,,,,,2,,46,0
2159,note_on,,0,0,11,,,,,,,,,,,,,,,,15,,46,0
2159,note_on,,0,0,11,,,,,,,,,,,,,,,,15,,62,0
2160,note_on,,1,0,11,,,,,,,,,,,,,,,,15,,67,64
2160,note_on,,0,0,11,,,,,,,,,,,,,,,,15,,51,64
2160,note_on,,0,0,11,,,,,,,,,,,,,,,,15,,63,64
2160,note_on,,1,0,5,,,,,,,,,,,,,,,,2,,51,72
2160,note_on,,0,0,11,,,,,,,,,,,,,,,,15,,58,64
2160,note_on,,1,0,10,,,,,,,,,,,,,,,,13,,51,72
2160,note_on,,1,0,9,,,,,,,,,,,,,,,,12,,58,72
2160,note_on,,1,0,8,,,,,,,,,,,,,,,,11,,63,72
2160,note_on,,1,0,7,,,,,,,,,,,,,,,,10,,67,72
2219,note_on,,59,0,8,,,,,,,,,,,,,,,,11,,63,0
2219,note_on,,59,0,11,,,,,,,,,,,,,,,,15,,51,0
2219,note_on,,59,0,5,,,,,,,,,,,,,,,,2,,51,0
2219,note_on,,59,0,7,,,,,,,,,,,,,,,,10,,67,0
2219,note_on,,59,0,10,,,,,,,,,,,,,,,,13,,51,0
2219,note_on,,59,0,9,,,,,,,,,,,,,,,,12,,58,0
2220,note_on,,1,0,9,,,,,,,,,,,,,,,,12,,63,72
2220,note_on,,1,0,7,,,,,,,,,,,,,,,,10,,68,72
2220,note_on,,1,0,10,,,,,,,,,,,,,,,,13,,39,72
2220,note_on,,1,0,11,,,,,,,,,,,,,,,,15,,39,64
2220,note_on,,1,0,8,,,,,,,,,,,,,,,,11,,65,72
2220,note_on,,1,0,5,,,,,,,,,,,,,,,,2,,39,72
2249,note_on,,29,0,7,,,,,,,,,,,,,,,,10,,68,0
2249,note_on,,29,0,8,,,,,,,,,,,,,,,,11,,65,0
2250,note_on,,1,0,7,,,,,,,,,,,,,,,,10,,70,72
2250,note_on,,1,0,8,,,,,,,,,,,,,,,,11,,67,72
2279,note_on,,29,0,7,,,,,,,,,,,,,,,,10,,70,0
2279,note_on,,59,0,10,,,,,,,,,,,,,,,,13,,39,0
2279,note_on,,59,0,5,,,,,,,,,,,,,,,,2,,39,0
2279,note_on,,59,0,9,,,,,,,,,,,,,,,,12,,63,0
2279,note_on,,29,0,8,,,,,,,,,,,,,,,,11,,67,0
2279,note_on,,59,0,11,,,,,,,,,,,,,,,,15,,67,0
2279,note_on,,0,0,11,,,,,,,,,,,,,,,,15,,63,0
2279,note_on,,0,0,11,,,,,,,,,,,,,,,,15,,58,0
2279,note_on,,0,0,11,,,,,,,,,,,,,,,,15,,39,0
2280,note_on,,1,0,9,,,,,,,,,,,,,,,,12,,60,72
2280,note_on,,1,0,8,,,,,,,,,,,,,,,,11,,65,72
2280,note_on,,1,0,10,,,,,,,,,,,,,,,,13,,44,72
2280,note_on,,1,0,5,,,,,,,,,,,,,,,,2,,44,72
2280,note_on,,0,0,11,,,,,,,,,,,,,,,,15,,44,64
2280,note_on,,1,0,11,,,,,,,,,,,,,,,,15,,68,64
2280,note_on,,1,0,7,,,,,,,,,,,,,,,,10,,68,72
2280,note_on,,0,0,11,,,,,,,,,,,,,,,,15,,63,64
2280,note_on,,0,0,11,,,,,,,,,,,,,,,,15,,60,64
2339,note_on,,59,0,5,,,,,,,,,,,,,,,,2,,44,0
2339,note_on,,59,0,8,,,,,,,,,,,,,,,,11,,65,0
2339,note_on,,59,0,7,,,,,,,,,,,,,,,,10,,68,0
2339,note_on,,59,0,9,,,,,,,,,,,,,,,,12,,60,0
2339,note_on,,59,0,11,,,,,,,,,,,,,,,,15,,68,0
2339,note_on,,0,0,11,,,,,,,,,,,,,,,,15,,44,0
2339,note_on,,0,0,11,,,,,,,,,,,,,,,,15,,60,0
2339,note_on,,59,0,10,,,,,,,,,,,,,,,,13,,44,0
2340,note_on,,1,0,8,,,,,,,,,,,,,,,,11,,63,72
2340,note_on,,1,0,11,,,,,,,,,,,,,,,,15,,51,64
2340,note_on,,0,0,11,,,,,,,,,,,,,,,,15,,58,64
2340,note_on,,0,0,11,,,,,,,,,,,,,,,,15,,67,64
2340,note_on,,1,0,7,,,,,,,,,,,,,,,,10,,67,72
2340,note_on,,1,0,9,,,,,,,,,,,,,,,,12,,58,72
2340,note_on,,1,0,5,,,,,,,,,,,,,,,,2,,51,72
2340,note_on,,1,0,10,,,,,,,,,,,,,,,,13,,51,72
2399,note_on,,59,0,5,,,,,,,,,,,,,,,,2,,51,0
2399,note_on,,59,0,7,,,,,,,,,,,,,,,,10,,67,0
2399,note_on,,59,0,8,,,,,,,,,,,,,,,,11,,63,0
2399,note_on,,59,0,10,,,,,,,,,,,,,,,,13,,51,0
2399,note_on,,59,0,11,,,,,,,,,,,,,,,,15,,63,0
2399,note_on,,59,0,9,,,,,,,,,,,,,,,,12,,58,0
2399,note_on,,0,0,11,,,,,,,,,,,,,,,,15,,51,0
2399,note_on,,0,0,11,,,,,,,,,,,,,,,,15,,58,0
2399,note_on,,0,0,11,,,,,,,,,,,,,,,,15,,67,0
2400,note_on,,1,0,7,,,,,,,,,,,,,,,,10,,65,72
2400,note_on,,1,0,5,,,,,,,,,,,,,,,,2,,58,72
2400,note_on,,1,0,8,,,,,,,,,,,,,,,,11,,62,72
2400,note_on,,1,0,11,,,,,,,,,,,,,,,,15,,58,64
2400,note_on,,0,0,11,,,,,,,,,,,,,,,,15,,62,64
2400,note_on,,0,0,11,,,,,,,,,,,,,,,,15,,65,64
2400,note_on,,0,0,11,,,,,,,,,,,,,,,,15,,58,64
2400,note_on,,1,0,10,,,,,,,,,,,,,,,,13,,58,72
2400,note_on,,1,0,9,,,,,,,,,,,,,,,,12,,58,72
2459,note_on,,59,0,10,,,,,,,,,,,,,,,,13,,58,0
2459,note_on,,59,0,5,,,,,,,,,,,,,,,,2,,58,0
2459,note_on,,59,0,11,,,,,,,,,,,,,,,,15,,58,0
2460,note_on,,1,0,10,,,,,,,,,,,,,,,,13,,46,72
2460,note_on,,1,0,5,,,,,,,,,,,,,,,,2,,46,72
2460,note_on,,1,0,11,,,,,,,,,,,,,,,,15,,46,64
2519,note_on,,59,0,11,,,,,,,,,,,,,,,,15,,62,0
2519,note_on,,119,0,9,,,,,,,,,,,,,,,,12,,58,0
2519,note_on,,119,0,8,,,,,,,,,,,,,,,,11,,62,0
2519,note_on,,119,0,7,,,,,,,,,,,,,,,,10,,65,0
2519,note_on,,59,0,5,,,,,,,,,,,,,,,,2,,46,0
2519,note_on,,0,0,11,,,,,,,,,,,,,,,,15,,46,0
2519,note_on,,59,0,10,,,,,,,,,,,,,,,,13,,46,0
2519,note_on,,0,0,11,,,,,,,,,,,,,,,,15,,58,0
2519,note_on,,0,0,11,,,,,,,,,,,,,,,,15,,65,0
2520,note_on,,1,0,5,,,,,,,,,,,,,,,,2,,58,48
2520,note_on,,1,0,11,,,,,,,,,,,,,,,,15,,58,48
2520,note_on,,1,0,10,,,,,,,,,,,,,,,,13,,58,48
2580,note_on,,61,0,7,,,,,,,,,,,,,,,,10,,82,48
2580,note_on,,60,0,11,,,,,,,,,,,,,,,,15,,65,48
2580,note_on,,0,0,11,,,,,,,,,,,,,,,,15,,74,48
2580,note_on,,0,0,11,,,,,,,,,,,,,,,,15,,62,48
2639,note_on,,59,0,7,,,,,,,,,,,,,,,,10,,82,0
2639,note_on,,0,0,11,,,,,,,,,,,,,,,,15,,62,0
2639,note_on,,59,0,11,,,,,,,,,,,,,,,,15,,65,0
2640,note_on,,1,0,7,,,,,,,,,,,,,,,,10,,78,48
2640,note_on,,0,0,11,,,,,,,,,,,,,,,,15,,66,48
2640,note_on,,1,0,11,,,,,,,,,,,,,,,,15,,63,48
2699,note_on,,59,0,7,,,,,,,,,,,,,,,,10,,78,0
2699,note_on,,0,0,11,,,,,,,,,,,,,,,,15,,66,0
2699,note_on,,59,0,11,,,,,,,,,,,,,,,,15,,63,0
2700,note_on,,1,0,11,,,,,,,,,,,,,,,,15,,68,48
2700,note_on,,0,0,11,,,,,,,,,,,,,,,,15,,65,48
2700,note_on,,1,0,7,,,,,,,,,,,,,,,,10,,74,48
2759,note_on,,0,0,11,,,,,,,,,,,,,,,,15,,65,0
2759,note_on,,0,0,11,,,,,,,,,,,,,,,,15,,68,0
2759,note_on,,59,0,11,,,,,,,,,,,,,,,,15,,74,0
2759,note_on,,59,0,7,,,,,,,,,,,,,,,,10,,74,0
2760,note_on,,0,0,11,,,,,,,,,,,,,,,,15,,66,48
2760,note_on,,0,0,11,,,,,,,,,,,,,,,,15,,75,48
2760,note_on,,1,0,7,,,,,,,,,,,,,,,,10,,75,48
2760,note_on,,1,0,11,,,,,,,,,,,,,,,,15,,70,48
2819,note_on,,59,0,11,,,,,,,,,,,,,,,,15,,75,0
2819,note_on,,59,0,7,,,,,,,,,,,,,,,,10,,75,0
2819,note_on,,0,0,11,,,,,,,,,,,,,,,,15,,66,0
2820,note_on,,301,0,9,,,,,,,,,,,,,,,,12,,65,72
2820,note_on,,1,0,7,,,,,,,,,,,,,,,,10,,70,72
2820,note_on,,301,0,8,,,,,,,,,,,,,,,,11,,62,72
2820,note_on,,1,0,11,,,,,,,,,,,,,,,,15,,74,48
2820,note_on,,0,0,11,,,,,,,,,,,,,,,,15,,65,48
2879,note_on,,59,0,7,,,,,,,,,,,,,,,,10,,70,0
2879,note_on,,59,0,9,,,,,,,,,,,,,,,,12,,65,0
2879,note_on,,59,0,8,,,,,,,,,,,,,,,,11,,62,0
2879,note_on,,59,0,11,,,,,,,,,,,,,,,,15,,70,0
2879,note_on,,0,0,11,,,,,,,,,,,,,,,,15,,74,0
2879,note_on,,0,0,11,,,,,,,,,,,,,,,,15,,65,0
2880,note_on,,0,0,11,,,,,,,,,,,,,,,,15,,71,72
2880,note_on,,1,0,7,,,,,,,,,,,,,,,,10,,71,72
2880,note_on,,1,0,8,,,,,,,,,,,,,,,,11,,63,72
2880,note_on,,1,0,9,,,,,,,,,,,,,,,,12,,66,72
2880,note_on,,0,0,11,,,,,,,,,,,,,,,,15,,66,72
2880,note_on,,1,0,11,,,,,,,,,,,,,,,,15,,75,72
2939,note_on,,419,0,10,,,,,,,,,,,,,,,,13,,58,0
2939,note_on,,59,0,11,,,,,,,,,,,,,,,,15,,58,0
2939,note_on,,419,0,5,,,,,,,,,,,,,,,,2,,58,0
2939,note_on,,0,0,11,,,,,,,,,,,,,,,,15,,66,0
2940,note_on,,0,0,11,,,,,,,,,,,,,,,,15,,66,72
2940,note_on,,1,0,11,,,,,,,,,,,,,,,,15,,58,72
2940,note_on,,1,0,5,,,,,,,,,,,,,,,,2,,58,72
2940,note_on,,1,0,10,,,,,,,,,,,,,,,,13,,58,72
2999,note_on,,59,0,5,,,,,,,,,,,,,,,,2,,58,0
2999,note_on,,119,0,9,,,,,,,,,,,,,,,,12,,66,0
2999,note_on,,59,0,10,,,,,,,,,,,,,,,,13,,58,0
2999,note_on,,59,0,11,,,,,,,,,,,,,,,,15,,58,0
2999,note_on,,0,0,11,,,,,,,,,,,,,,,,15,,66,0
3000,note_on,,0,0,11,,,,,,,,,,,,,,,,15,,56,72
3000,note_on,,1,0,10,,,,,,,,,,,,,,,,13,,56,72
3000,note_on,,1,0,9,,,,,,,,,,,,,,,,12,,65,72
3000,note_on,,1,0,5,,,,,,,,,,,,,,,,2,,56,72
3000,note_on,,1,0,11,,,,,,,,,,,,,,,,15,,65,72
3059,note_on,,179,0,8,,,,,,,,,,,,,,,,11,,63,0
3060,note_on,,1,0,8,,,,,,,,,,,,,,,,11,,65,72
3089,note_on,,29,0,8,,,,,,,,,,,,,,,,11,,65,0
3090,note_on,,1,0,8,,,,,,,,,,,,,,,,11,,63,72
3119,note_on,,0,0,11,,,,,,,,,,,,,,,,15,,65,0
3119,note_on,,0,0,11,,,,,,,,,,,,,,,,15,,71,0
3119,note_on,,119,0,11,,,,,,,,,,,,,,,,15,,75,0
3119,note_on,,29,0,8,,,,,,,,,,,,,,,,11,,63,0
3119,note_on,,239,0,7,,,,,,,,,,,,,,,,10,,71,0
3120,note_on,,1,0,11,,,,,,,,,,,,,,,,15,,65,72
3120,note_on,,1,0,7,,,,,,,,,,,,,,,,10,,70,72
3120,note_on,,1,0,8,,,,,,,,,,,,,,,,11,,62,72
3135,note_on,,15,0,11,,,,,,,,,,,,,,,,15,,70,72
3150,note_on,,15,0,11,,,,,,,,,,,,,,,,15,,74,72
3165,note_on,,15,0,11,,,,,,,,,,,,,,,,15,,77,72
3179,note_on,,0,0,11,,,,,,,,,,,,,,,,15,,70,0
3179,note_on,,14,0,11,,,,,,,,,,,,,,,,15,,56,0
3179,note_on,,0,0,11,,,,,,,,,,,,,,,,15,,77,0
3179,note_on,,179,0,5,,,,,,,,,,,,,,,,2,,56,0
3179,note_on,,179,0,10,,,,,,,,,,,,,,,,13,,56,0
3179,note_on,,0,0,11,,,,,,,,,,,,,,,,15,,74,0
3180,note_on,,1,0,10,,,,,,,,,,,,,,,,13,,55,72
3180,note_on,,1,0,11,,,,,,,,,,,,,,,,15,,55,72
3180,note_on,,0,0,11,,,,,,,,,,,,,,,,15,,70,72
3180,note_on,,1,0,5,,,,,,,,,,,,,,,,2,,55,72
3209,note_on,,29,0,5,,,,,,,,,,,,,,,,2,,55,0
3209,note_on,,29,0,10,,,,,,,,,,,,,,,,13,,55,0
3209,note_on,,29,0,11,,,,,,,,,,,,,,,,15,,55,0
3210,note_on,,1,0,10,,,,,,,,,,,,,,,,13,,53,72
3210,note_on,,1,0,5,,,,,,,,,,,,,,,,2,,53,72
3210,note_on,,1,0,11,,,,,,,,,,,,,,,,15,,53,72
3239,note_on,,29,0,10,,,,,,,,,,,,,,,,13,,53,0
3239,note_on,,29,0,5,,,,,,,,,,,,,,,,2,,53,0
3239,note_on,,239,0,9,,,,,,,,,,,,,,,,12,,65,0
3239,note_on,,119,0,8,,,,,,,,,,,,,,,,11,,62,0
3239,note_on,,0,0,11,,,,,,,,,,,,,,,,15,,53,0
3239,note_on,,29,0,11,,,,,,,,,,,,,,,,15,,65,0
3240,note_on,,1,0,8,,,,,,,,,,,,,,,,11,,63,72
3240,note_on,,1,0,5,,,,,,,,,,,,,,,,2,,55,72
3240,note_on,,1,0,9,,,,,,,,,,,,,,,,12,,63,72
3240,note_on,,0,0,11,,,,,,,,,,,,,,,,15,,55,72
3240,note_on,,1,0,11,,,,,,,,,,,,,,,,15,,58,72
3240,note_on,,1,0,10,,,,,,,,,,,,,,,,13,,55,72
3240,note_on,,0,0,11,,,,,,,,,,,,,,,,15,,75,72
3299,note_on,,179,0,7,,,,,,,,,,,,,,,,10,,70,0
3299,note_on,,59,0,10,,,,,,,,,,,,,,,,13,,55,0
3299,note_on,,59,0,5,,,,,,,,,,,,,,,,2,,55,0
3299,note_on,,59,0,11,,,,,,,,,,,,,,,,15,,70,0
3299,note_on,,0,0,11,,,,,,,,,,,,,,,,15,,58,0
3299,note_on,,0,0,11,,,,,,,,,,,,,,,,15,,55,0
3299,note_on,,0,0,11,,,,,,,,,,,,,,,,15,,75,0
3300,note_on,,1,0,11,,,,,,,,,,,,,,,,15,,60,72
3300,note_on,,1,0,5,,,,,,,,,,,,,,,,2,,60,72
3300,note_on,,1,0,7,,,,,,,,,,,,,,,,10,,68,72
3300,note_on,,1,0,10,,,,,,,,,,,,,,,,13,,60,72
3300,note_on,,0,0,11,,,,,,,,,,,,,,,,15,,68,72
3300,note_on,,0,0,11,,,,,,,,,,,,,,,,15,,63,72
3359,note_on,,119,0,9,,,,,,,,,,,,,,,,12,,63,0
3359,note_on,,0,0,11,,,,,,,,,,,,,,,,15,,63,0
3359,note_on,,0,0,11,,,,,,,,,,,,,,,,15,,68,0
3359,note_on,,59,0,10,,,,,,,,,,,,,,,,13,,60,0
3359,note_on,,59,0,5,,,,,,,,,,,,,,,,2,,60,0
3359,note_on,,59,0,7,,,,,,,,,,,,,,,,10,,68,0
3359,note_on,,59,0,11,,,,,,,,,,,,,,,,15,,60,0
3360,note_on,,0,0,11,,,,,,,,,,,,,,,,15,,63,72
3360,note_on,,1,0,5,,,,,,,,,,,,,,,,2,,58,72
3360,note_on,,0,0,11,,,,,,,,,,,,,,,,15,,70,72
3360,note_on,,1,0,11,,,,,,,,,,,,,,,,15,,67,72
3360,note_on,,1,0,9,,,,,,,,,,,,,,,,12,,58,72
3360,note_on,,1,0,7,,,,,,,,,,,,,,,,10,,67,72
3360,note_on,,1,0,10,,,,,,,,,,,,,,,,13,,58,72
3360,note_on,,0,0,11,,,,,,,,,,,,,,,,15,,58,72
3419,note_on,,59,0,11,,,,,,,,,,,,,,,,15,,67,0
3420,note_on,,1,0,11,,,,,,,,,,,,,,,,15,,68,72
3479,note_on,,119,0,9,,,,,,,,,,,,,,,,12,,58,0
3479,note_on,,119,0,5,,,,,,,,,,,,,,,,2,,58,0
3479,note_on,,59,0,11,,,,,,,,,,,,,,,,15,,58,0
3479,note_on,,239,0,8,,,,,,,,,,,,,,,,11,,63,0
3479,note_on,,0,0,11,,,,,,,,,,,,,,,,15,,70,0
3479,note_on,,0,0,11,,,,,,,,,,,,,,,,15,,63,0
3479,note_on,,0,0,11,,,,,,,,,,,,,,,,15,,68,0
3479,note_on,,119,0,7,,,,,,,,,,,,,,,,10,,67,0
3479,note_on,,119,0,10,,,,,,,,,,,,,,,,13,,58,0
3480,note_on,,1,0,8,,,,,,,,,,,,,,,,11,,62,72
3480,note_on,,1,0,9,,,,,,,,,,,,,,,,12,,56,72
3480,note_on,,1,0,10,,,,,,,,,,,,,,,,13,,46,72
3480,note_on,,1,0,5,,,,,,,,,,,,,,,,2,,46,72
3480,note_on,,1,0,7,,,,,,,,,,,,,,,,10,,65,72
3480,note_on,,0,0,11,,,,,,,,,,,,,,,,15,,70,72
3480,note_on,,0,0,11,,,,,,,,,,,,,,,,15,,46,72
3480,note_on,,0,0,11,,,,,,,,,,,,,,,,15,,74,72
3480,note_on,,1,0,11,,,,,,,,,,,,,,,,15,,53,72
3494,note_on,,14,0,7,,,,,,,,,,,,,,,,10,,65,0
3495,note_on,,1,0,7,,,,,,,,,,,,,,,,10,,67,72
3509,note_on,,14,0,7,,,,,,,,,,,,,,,,10,,67,0
3510,note_on,,1,0,7,,,,,,,,,,,,,,,,10,,65,72
3524,note_on,,14,0,7,,,,,,,,,,,,,,,,10,,65,0
3525,note_on,,1,0,7,,,,,,,,,,,,,,,,10,,67,72
3539,note_on,,59,0,11,,,,,,,,,,,,,,,,15,,70,0
3539,note_on,,14,0,7,,,,,,,,,,,,,,,,10,,67,0
3540,note_on,,1,0,7,,,,,,,,,,,,,,,,10,,63,72
3540,note_on,,1,0,11,,,,,,,,,,,,,,,,15,,65,72
3554,note_on,,14,0,7,,,,,,,,,,,,,,,,10,,63,0
3555,note_on,,1,0,7,,,,,,,,,,,,,,,,10,,65,72
3569,note_on,,14,0,7,,,,,,,,,,,,,,,,10,,65,0
3569,note_on,,89,0,9,,,,,,,,,,,,,,,,12,,56,0
3570,note_on,,1,0,9,,,,,,,,,,,,,,,,12,,55,72
3570,note_on,,1,0,7,,,,,,,,,,,,,,,,10,,63,72
3599,note_on,,29,0,7,,,,,,,,,,,,,,,,10,,63,0
3599,note_on,,0,0,11,,,,,,,,,,,,,,,,15,,65,0
3599,note_on,,0,0,11,,,,,,,,,,,,,,,,15,,46,0
3599,note_on,,59,0,11,,,,,,,,,,,,,,,,15,,53,0
3599,note_on,,119,0,8,,,,,,,,,,,,,,,,11,,62,0
3599,note_on,,0,0,11,,,,,,,,,,,,,,,,15,,74,0
3599,note_on,,29,0,9,,,,,,,,,,,,,,,,12,,55,0
3599,note_on,,119,0,5,,,,,,,,,,,,,,,,2,,46,0
3599,note_on,,119,0,10,,,,,,,,,,,,,,,,13,,46,0
3600,note_on,,0,0,11,,,,,,,,,,,,,,,,15,,51,72
3600,note_on,,1,0,7,,,,,,,,,,,,,,,,10,,63,72
3600,note_on,,1,0,5,,,,,,,,,,,,,,,,2,,39,72
3600,note_on,,1,0,9,,,,,,,,,,,,,,,,12,,55,72
3600,note_on,,1,0,11,,,,,,,,,,,,,,,,15,,67,72
3600,note_on,,0,0,11,,,,,,,,,,,,,,,,15,,70,72
3600,note_on,,1,0,8,,,,,,,,,,,,,,,,11,,63,72
3600,note_on,,1,0,10,,,,,,,,,,,,,,,,13,,39,72
3600,note_on,,0,0,11,,,,,,,,,,,,,,,,15,,75,72
3600,note_on,,0,0,11,,,,,,,,,,,,,,,,15,,39,72
3719,note_on,,0,0,11,,,,,,,,,,,,,,,,15,,51,0
3719,note_on,,0,0,11,,,,,,,,,,,,,,,,15,,70,0
3719,note_on,,119,0,11,,,,,,,,,,,,,,,,15,,67,0
3719,note_on,,119,0,5,,,,,,,,,,,,,,,,2,,39,0
3719,note_on,,0,0,11,,,,,,,,,,,,,,,,15,,75,0
3719,note_on,,119,0,9,,,,,,,,,,,,,,,,12,,55,0
3719,note_on,,119,0,7,,,,,,,,,,,,,,,,10,,63,0
3719,note_on,,119,0,10,,,,,,,,,,,,,,,,13,,39,0
3719,note_on,,0,0,11,,,,,,,,,,,,,,,,15,,39,0
3719,note_on,,119,0,8,,,,,,,,,,,,,,,,11,,63,0
3780,note_on,,3780,0,6,,,,,,,,,,,,,,,,6,,58,60
3839,note_on,,59,0,6,,,,,,,,,,,,,,,,6,,58,0
3840,note_on,,1,0,6,,,,,,,,,,,,,,,,6,,63,64
3900,note_on,,0,0,11,,,,,,,,,,,,,,,,15,,63,48
3900,note_on,,181,0,11,,,,,,,,,,,,,,,,15,,67,48
3900,note_on,,181,0,10,,,,,,,,,,,,,,,,13,,51,48
3900,note_on,,0,0,11,,,,,,,,,,,,,,,,15,,58,48
3900,note_on,,0,0,11,,,,,,,,,,,,,,,,15,,51,48
3959,note_on,,59,0,11,,,,,,,,,,,,,,,,15,,67,0
3959,note_on,,59,0,10,,,,,,,,,,,,,,,,13,,51,0
3959,note_on,,0,0,11,,,,,,,,,,,,,,,,15,,58,0
3959,note_on,,0,0,11,,,,,,,,,,,,,,,,15,,51,0
3960,note_on,,1,0,10,,,,,,,,,,,,,,,,13,,58,48
3960,note_on,,1,0,11,,,,,,,,,,,,,,,,15,,58,48
3960,note_on,,0,0,11,,,,,,,,,,,,,,,,15,,65,48
4019,note_on,,0,0,11,,,,,,,,,,,,,,,,15,,65,0
4019,note_on,,0,0,11,,,,,,,,,,,,,,,,15,,58,0
4019,note_on,,59,0,10,,,,,,,,,,,,,,,,13,,58,0
4019,note_on,,179,0,6,,,,,,,,,,,,,,,,6,,63,0
4019,note_on,,59,0,11,,,,,,,,,,,,,,,,15,,63,0
4020,note_on,,0,0,11,,,,,,,,,,,,,,,,15,,65,48
4020,note_on,,1,0,10,,,,,,,,,,,,,,,,13,,46,48
4020,note_on,,0,0,11,,,,,,,,,,,,,,,,15,,46,48
4020,note_on,,1,0,6,,,,,,,,,,,,,,,,6,,62,61
4020,note_on,,1,0,11,,,,,,,,,,,,,,,,15,,70,48
4049,note_on,,29,0,6,,,,,,,,,,,,,,,,6,,62,0
4050,note_on,,1,0,6,,,,,,,,,,,,,,,,6,,63,66
4064,note_on,,14,0,6,,,,,,,,,,,,,,,,6,,63,0
4065,note_on,,1,0,6,,,,,,,,,,,,,,,,6,,65,64
4079,note_on,,59,0,11,,,,,,,,,,,,,,,,15,,70,0
4079,note_on,,0,0,11,,,,,,,,,,,,,,,,15,,46,0
4079,note_on,,0,0,11,,,,,,,,,,,,,,,,15,,65,0
4079,note_on,,59,0,10,,,,,,,,,,,,,,,,13,,46,0
4079,note_on,,14,0,6,,,,,,,,,,,,,,,,6,,65,0
4080,note_on,,1,0,11,,,,,,,,,,,,,,,,15,,58,48
4080,note_on,,0,0,11,,,,,,,,,,,,,,,,15,,67,48
4080,note_on,,0,0,11,,,,,,,,,,,,,,,,15,,63,48
4080,note_on,,0,0,11,,,,,,,,,,,,,,,,15,,51,48
4080,note_on,,1,0,6,,,,,,,,,,,,,,,,6,,67,63
4080,note_on,,1,0,10,,,,,,,,,,,,,,,,13,,51,48
4139,note_on,,59,0,10,,,,,,,,,,,,,,,,13,,51,0
4139,note_on,,59,0,6,,,,,,,,,,,,,,,,6,,67,0
4139,note_on,,59,0,11,,,,,,,,,,,,,,,,15,,58,0
4139,note_on,,0,0,11,,,,,,,,,,,,,,,,15,,67,0
4139,note_on,,0,0,11,,,,,,,,,,,,,,,,15,,63,0
4139,note_on,,0,0,11,,,,,,,,,,,,,,,,15,,51,0
4140,note_on,,0,0,11,,,,,,,,,,,,,,,,15,,58,48
4140,note_on,,0,0,11,,,,,,,,,,,,,,,,15,,46,48
4140,note_on,,0,0,11,,,,,,,,,,,,,,,,15,,62,48
4140,note_on,,1,0,11,,,,,,,,,,,,,,,,15,,65,48
4140,note_on,,1,0,6,,,,,,,,,,,,,,,,6,,65,62
4140,note_on,,1,0,10,,,,,,,,,,,,,,,,13,,46,48
4199,note_on,,0,0,11,,,,,,,,,,,,,,,,15,,46,0
4199,note_on,,59,0,11,,,,,,,,,,,,,,,,15,,65,0
4199,note_on,,0,0,11,,,,,,,,,,,,,,,,15,,62,0
4199,note_on,,59,0,10,,,,,,,,,,,,,,,,13,,46,0
4199,note_on,,0,0,11,,,,,,,,,,,,,,,,15,,58,0
4199,note_on,,59,0,6,,,,,,,,,,,,,,,,6,,65,0
4260,note_on,,541,0,8,,,,,,,,,,,,,,,,11,,79,48
4260,note_on,,541,0,7,,,,,,,,,,,,,,,,10,,82,48
4319,note_on,,59,0,8,,,,,,,,,,,,,,,,11,,79,0
4319,note_on,,59,0,7,,,,,,,,,,,,,,,,10,,82,0
4320,note_on,,1,0,7,,,,,,,,,,,,,,,,10,,80,48
4320,note_on,,1,0,8,,,,,,,,,,,,,,,,11,,77,48
4334,note_on,,14,0,8,,,,,,,,,,,,,,,,11,,77,0
4334,note_on,,14,0,7,,,,,,,,,,,,,,,,10,,80,0
4335,note_on,,1,0,8,,,,,,,,,,,,,,,,11,,79,48
4335,note_on,,1,0,7,,,,,,,,,,,,,,,,10,,82,48
4349,note_on,,14,0,7,,,,,,,,,,,,,,,,10,,82,0
4349,note_on,,14,0,8,,,,,,,,,,,,,,,,11,,79,0
4350,note_on,,1,0,8,,,,,,,,,,,,,,,,11,,75,48
4350,note_on,,1,0,7,,,,,,,,,,,,,,,,10,,79,48
4364,note_on,,14,0,8,,,,,,,,,,,,,,,,11,,75,0
4364,note_on,,14,0,7,,,,,,,,,,,,,,,,10,,79,0
4365,note_on,,1,0,7,,,,,,,,,,,,,,,,10,,80,48
4365,note_on,,1,0,8,,,,,,,,,,,,,,,,11,,77,48
4379,note_on,,14,0,8,,,,,,,,,,,,,,,,11,,77,0
4379,note_on,,14,0,7,,,,,,,,,,,,,,,,10,,80,0
4380,note_on,,1,0,8,,,,,,,,,,,,,,,,11,,75,48
4380,note_on,,1,0,7,,,,,,,,,,,,,,,,10,,79,48
4439,note_on,,59,0,8,,,,,,,,,,,,,,,,11,,75,0
4439,note_on,,59,0,7,,,,,,,,,,,,,,,,10,,79,0
4500,note_on,,61,0,7,,,,,,,,,,,,,,,,10,,80,48
4500,note_on,,61,0,8,,,,,,,,,,,,,,,,11,,77,48
4559,note_on,,59,0,7,,,,,,,,,,,,,,,,10,,80,0
4559,note_on,,59,0,8,,,,,,,,,,,,,,,,11,,77,0
4560,note_on,,1,0,7,,,,,,,,,,,,,,,,10,,79,48
4560,note_on,,1,0,8,,,,,,,,,,,,,,,,11,,75,48
4574,note_on,,14,0,8,,,,,,,,,,,,,,,,11,,75,0
4574,note_on,,14,0,7,,,,,,,,,,,,,,,,10,,79,0
4575,note_on,,1,0,7,,,,,,,,,,,,,,,,10,,80,48
4575,note_on,,1,0,8,,,,,,,,,,,,,,,,11,,77,48
4589,note_on,,14,0,8,,,,,,,,,,,,,,,,11,,77,0
4589,note_on,,14,0,7,,,,,,,,,,,,,,,,10,,80,0
4590,note_on,,1,0,7,,,,,,,,,,,,,,,,10,,77,48
4590,note_on,,1,0,8,,,,,,,,,,,,,,,,11,,74,48
4604,note_on,,14,0,7,,,,,,,,,,,,,,,,10,,77,0
4604,note_on,,14,0,8,,,,,,,,,,,,,,,,11,,74,0
4605,note_on,,1,0,7,,,,,,,,,,,,,,,,10,,79,48
4605,note_on,,1,0,8,,,,,,,,,,,,,,,,11,,75,48
4619,note_on,,14,0,8,,,,,,,,,,,,,,,,11,,75,0
4619,note_on,,14,0,7,,,,,,,,,,,,,,,,10,,79,0
4620,note_on,,1,0,8,,,,,,,,,,,,,,,,11,,74,48
4620,note_on,,1,0,7,,,,,,,,,,,,,,,,10,,77,48
4679,note_on,,59,0,7,,,,,,,,,,,,,,,,10,,77,0
4679,note_on,,59,0,8,,,,,,,,,,,,,,,,11,,74,0
4740,note_on,,0,0,11,,,,,,,,,,,,,,,,15,,62,48
4740,note_on,,0,0,11,,,,,,,,,,,,,,,,15,,46,48
4740,note_on,,541,0,11,,,,,,,,,,,,,,,,15,,58,48
4740,note_on,,541,0,10,,,,,,,,,,,,,,,,13,,46,48
4740,note_on,,541,0,6,,,,,,,,,,,,,,,,6,,67,67
4784,note_on,,44,0,6,,,,,,,,,,,,,,,,6,,67,0
4785,note_on,,1,0,6,,,,,,,,,,,,,,,,6,,70,66
4799,note_on,,59,0,11,,,,,,,,,,,,,,,,15,,58,0
4799,note_on,,59,0,10,,,,,,,,,,,,,,,,13,,46,0
4799,note_on,,14,0,6,,,,,,,,,,,,,,,,6,,70,0
4799,note_on,,0,0,11,,,,,,,,,,,,,,,,15,,46,0
4799,note_on,,0,0,11,,,,,,,,,,,,,,,,15,,62,0
4800,note_on,,1,0,10,,,,,,,,,,,,,,,,13,,48,48
4800,note_on,,1,0,6,,,,,,,,,,,,,,,,6,,68,65
4800,note_on,,0,0,11,,,,,,,,,,,,,,,,15,,56,48
4800,note_on,,0,0,11,,,,,,,,,,,,,,,,15,,48,48
4800,note_on,,1,0,11,,,,,,,,,,,,,,,,15,,63,48
4859,note_on,,59,0,11,,,,,,,,,,,,,,,,15,,63,0
4859,note_on,,59,0,10,,,,,,,,,,,,,,,,13,,48,0
4859,note_on,,0,0,11,,,,,,,,,,,,,,,,15,,56,0
4859,note_on,,0,0,11,,,,,,,,,,,,,,,,15,,48,0
4859,note_on,,59,0,6,,,,,,,,,,,,,,,,6,,68,0
4860,note_on,,0,0,11,,,,,,,,,,,,,,,,15,,65,48
4860,note_on,,1,0,10,,,,,,,,,,,,,,,,13,,50,48
4860,note_on,,1,0,11,,,,,,,,,,,,,,,,15,,53,48
4860,note_on,,0,0,11,,,,,,,,,,,,,,,,15,,50,48
4860,note_on,,1,0,6,,,,,,,,,,,,,,,,6,,67,61
4889,note_on,,29,0,6,,,,,,,,,,,,,,,,6,,67,0
4890,note_on,,1,0,6,,,,,,,,,,,,,,,,6,,65,66
4904,note_on,,14,0,6,,,,,,,,,,,,,,,,6,,65,0
4905,note_on,,1,0,6,,,,,,,,,,,,,,,,6,,68,65
4919,note_on,,0,0,11,,,,,,,,,,,,,,,,15,,50,0
4919,note_on,,59,0,11,,,,,,,,,,,,,,,,15,,53,0
4919,note_on,,14,0,6,,,,,,,,,,,,,,,,6,,68,0
4919,note_on,,59,0,10,,,,,,,,,,,,,,,,13,,50,0
4919,note_on,,0,0,11,,,,,,,,,,,,,,,,15,,65,0
4920,note_on,,1,0,6,,,,,,,,,,,,,,,,6,,67,64
4920,note_on,,1,0,11,,,,,,,,,,,,,,,,15,,55,48
4920,note_on,,1,0,10,,,,,,,,,,,,,,,,13,,51,48
4920,note_on,,0,0,11,,,,,,,,,,,,,,,,15,,58,48
4920,note_on,,0,0,11,,,,,,,,,,,,,,,,15,,51,48
4964,note_on,,44,0,6,,,,,,,,,,,,,,,,6,,67,0
4965,note_on,,1,0,6,,,,,,,,,,,,,,,,6,,65,62
4979,note_on,,0,0,11,,,,,,,,,,,,,,,,15,,58,0
4979,note_on,,0,0,11,,,,,,,,,,,,,,,,15,,51,0
4979,note_on,,59,0,11,,,,,,,,,,,,,,,,15,,55,0
4979,note_on,,59,0,10,,,,,,,,,,,,,,,,13,,51,0
4979,note_on,,14,0,6,,,,,,,,,,,,,,,,6,,65,0
4980,note_on,,0,0,11,,,,,,,,,,,,,,,,15,,44,48
4980,note_on,,1,0,11,,,,,,,,,,,,,,,,15,,63,48
4980,note_on,,0,0,11,,,,,,,,,,,,,,,,15,,56,48
4980,note_on,,1,0,10,,,,,,,,,,,,,,,,13,,44,48
4980,note_on,,1,0,6,,,,,,,,,,,,,,,,6,,63,60
4980,note_on,,0,0,11,,,,,,,,,,,,,,,,15,,60,48
5039,note_on,,59,0,10,,,,,,,,,,,,,,,,13,,44,0
5039,note_on,,59,0,11,,,,,,,,,,,,,,,,15,,63,0
5039,note_on,,0,0,11,,,,,,,,,,,,,,,,15,,60,0
5039,note_on,,0,0,11,,,,,,,,,,,,,,,,15,,44,0
5039,note_on,,59,0,6,,,,,,,,,,,,,,,,6,,63,0
5039,note_on,,0,0,11,,,,,,,,,,,,,,,,15,,56,0
5040,note_on,,0,0,11,,,,,,,,,,,,,,,,15,,46,48
5040,note_on,,1,0,10,,,,,,,,,,,,,,,,13,,46,48
5040,note_on,,1,0,6,,,,,,,,,,,,,,,,6,,62,60
5040,note_on,,0,0,11,,,,,,,,,,,,,,,,15,,62,48
5040,note_on,,0,0,11,,,,,,,,,,,,,,,,15,,58,48
5040,note_on,,1,0,11,,,,,,,,,,,,,,,,15,,53,48
5069,note_on,,29,0,6,,,,,,,,,,,,,,,,6,,62,0
5070,note_on,,1,0,6,,,,,,,,,,,,,,,,6,,63,62
5084,note_on,,14,0,6,,,,,,,,,,,,,,,,6,,63,0
5085,note_on,,1,0,6,,,,,,,,,,,,,,,,6,,65,61
5099,note_on,,59,0,10,,,,,,,,,,,,,,,,13,,46,0
5099,note_on,,0,0,11,,,,,,,,,,,,,,,,15,,46,0
5099,note_on,,0,0,11,,,,,,,,,,,,,,,,15,,58,0
5099,note_on,,14,0,6,,,,,,,,,,,,,,,,6,,65,0
5099,note_on,,0,0,11,,,,,,,,,,,,,,,,15,,62,0
5099,note_on,,59,0,11,,,,,,,,,,,,,,,,15,,53,0
5100,note_on,,0,0,11,,,,,,,,,,,,,,,,15,,63,48
5100,note_on,,1,0,10,,,,,,,,,,,,,,,,13,,39,48
5100,note_on,,1,0,11,,,,,,,,,,,,,,,,15,,55,48
5100,note_on,,0,0,11,,,,,,,,,,,,,,,,15,,58,48
5100,note_on,,1,0,6,,,,,,,,,,,,,,,,6,,63,61
5100,note_on,,0,0,11,,,,,,,,,,,,,,,,15,,39,48
5159,note_on,,0,0,11,,,,,,,,,,,,,,,,15,,58,0
5159,note_on,,59,0,11,,,,,,,,,,,,,,,,15,,55,0
5159,note_on,,0,0,11,,,,,,,,,,,,,,,,15,,39,0
5159,note_on,,59,0,10,,,,,,,,,,,,,,,,13,,39,0
5159,note_on,,0,0,11,,,,,,,,,,,,,,,,15,,63,0
5159,note_on,,59,0,6,,,,,,,,,,,,,,,,6,,63,0
5220,note_on,,541,0,7,,,,,,,,,,,,,,,,10,,70,48
5220,note_on,,541,0,8,,,,,,,,,,,,,,,,11,,67,48
5279,note_on,,59,0,8,,,,,,,,,,,,,,,,11,,67,0
5279,note_on,,59,0,7,,,,,,,,,,,,,,,,10,,70,0
5280,note_on,,1,0,8,,,,,,,,,,,,,,,,11,,65,48
5280,note_on,,1,0,7,,,,,,,,,,,,,,,,10,,68,48
5294,note_on,,14,0,7,,,,,,,,,,,,,,,,10,,68,0
5294,note_on,,14,0,8,,,,,,,,,,,,,,,,11,,65,0
5295,note_on,,1,0,8,,,,,,,,,,,,,,,,11,,67,48
5295,note_on,,1,0,7,,,,,,,,,,,,,,,,10,,70,48
5309,note_on,,14,0,8,,,,,,,,,,,,,,,,11,,67,0
5309,note_on,,14,0,7,,,,,,,,,,,,,,,,10,,70,0
5310,note_on,,1,0,8,,,,,,,,,,,,,,,,11,,63,48
5310,note_on,,1,0,7,,,,,,,,,,,,,,,,10,,67,48
5324,note_on,,14,0,8,,,,,,,,,,,,,,,,11,,63,0
5324,note_on,,14,0,7,,,,,,,,,,,,,,,,10,,67,0
5325,note_on,,1,0,7,,,,,,,,,,,,,,,,10,,68,48
5325,note_on,,1,0,8,,,,,,,,,,,,,,,,11,,65,48
5339,note_on,,14,0,7,,,,,,,,,,,,,,,,10,,68,0
5339,note_on,,14,0,8,,,,,,,,,,,,,,,,11,,65,0
5340,note_on,,1,0,7,,,,,,,,,,,,,,,,10,,67,48
5340,note_on,,1,0,8,,,,,,,,,,,,,,,,11,,63,48
5399,note_on,,59,0,8,,,,,,,,,,,,,,,,11,,63,0
5399,note_on,,59,0,7,,,,,,,,,,,,,,,,10,,67,0
5460,note_on,,61,0,8,,,,,,,,,,,,,,,,11,,65,48
5460,note_on,,61,0,7,,,,,,,,,,,,,,,,10,,68,48
5519,note_on,,59,0,8,,,,,,,,,,,,,,,,11,,65,0
5519,note_on,,59,0,7,,,,,,,,,,,,,,,,10,,68,0
5520,note_on,,1,0,7,,,,,,,,,,,,,,,,10,,67,48
5520,note_on,,1,0,8,,,,,,,,,,,,,,,,11,,63,48
5534,note_on,,14,0,7,,,,,,,,,,,,,,,,10,,67,0
5534,note_on,,14,0,8,,,,,,,,,,,,,,,,11,,63,0
5535,note_on,,1,0,7,,,,,,,,,,,,,,,,10,,68,48
5535,note_on,,1,0,8,,,,,,,,,,,,,,,,11,,65,48
5549,note_on,,14,0,7,,,,,,,,,,,,,,,,10,,68,0
5549,note_on,,14,0,8,,,,,,,,,,,,,,,,11,,65,0
5550,note_on,,1,0,7,,,,,,,,,,,,,,,,10,,65,48
5550,note_on,,1,0,8,,,,,,,,,,,,,,,,11,,62,48
5564,note_on,,14,0,7,,,,,,,,,,,,,,,,10,,65,0
5564,note_on,,14,0,8,,,,,,,,,,,,,,,,11,,62,0
5565,note_on,,1,0,7,,,,,,,,,,,,,,,,10,,67,48
5565,note_on,,1,0,8,,,,,,,,,,,,,,,,11,,63,48
5579,note_on,,14,0,8,,,,,,,,,,,,,,,,11,,63,0
5579,note_on,,14,0,7,,,,,,,,,,,,,,,,10,,67,0
5580,note_on,,1,0,7,,,,,,,,,,,,,,,,10,,65,48
5580,note_on,,1,0,8,,,,,,,,,,,,,,,,11,,62,48
5639,note_on,,59,0,8,,,,,,,,,,,,,,,,11,,62,0
5639,note_on,,59,0,7,,,,,,,,,,,,,,,,10,,65,0
5700,note_on,,541,0,6,,,,,,,,,,,,,,,,6,,65,67
5700,note_on,,0,0,11,,,,,,,,,,,,,,,,15,,65,48
5700,note_on,,0,0,11,,,,,,,,,,,,,,,,15,,58,48
5700,note_on,,541,0,11,,,,,,,,,,,,,,,,15,,62,48
5700,note_on,,541,0,10,,,,,,,,,,,,,,,,13,,46,48
5700,note_on,,0,0,11,,,,,,,,,,,,,,,,15,,46,48
5759,note_on,,0,0,11,,,,,,,,,,,,,,,,15,,65,0
5759,note_on,,59,0,10,,,,,,,,,,,,,,,,13,,46,0
5759,note_on,,0,0,11,,,,,,,,,,,,,,,,15,,46,0
5759,note_on,,0,0,11,,,,,,,,,,,,,,,,15,,58,0
5759,note_on,,59,0,11,,,,,,,,,,,,,,,,15,,62,0
5759,note_on,,59,0,6,,,,,,,,,,,,,,,,6,,65,0
5760,note_on,,0,0,11,,,,,,,,,,,,,,,,15,,67,48
5760,note_on,,0,0,11,,,,,,,,,,,,,,,,15,,63,48
5760,note_on,,0,0,11,,,,,,,,,,,,,,,,15,,58,48
5760,note_on,,1,0,11,,,,,,,,,,,,,,,,15,,51,48
5760,note_on,,1,0,10,,,,,,,,,,,,,,,,13,,51,48
5760,note_on,,1,0,6,,,,,,,,,,,,,,,,6,,67,63
5819,note_on,,59,0,6,,,,,,,,,,,,,,,,6,,67,0
5819,note_on,,59,0,10,,,,,,,,,,,,,,,,13,,51,0
5819,note_on,,59,0,11,,,,,,,,,,,,,,,,15,,51,0
5820,note_on,,1,0,10,,,,,,,,,,,,,,,,13,,43,48
5820,note_on,,1,0,6,,,,,,,,,,,,,,,,6,,68,60
5820,note_on,,1,0,11,,,,,,,,,,,,,,,,15,,43,48
5849,note_on,,29,0,6,,,,,,,,,,,,,,,,6,,68,0
5850,note_on,,1,0,6,,,,,,,,,,,,,,,,6,,70,60
5879,note_on,,29,0,6,,,,,,,,,,,,,,,,6,,70,0
5879,note_on,,59,0,10,,,,,,,,,,,,,,,,13,,43,0
5879,note_on,,59,0,11,,,,,,,,,,,,,,,,15,,58,0
5879,note_on,,0,0,11,,,,,,,,,,,,,,,,15,,63,0
5879,note_on,,0,0,11,,,,,,,,,,,,,,,,15,,67,0
5879,note_on,,0,0,11,,,,,,,,,,,,,,,,15,,43,0
5880,note_on,,1,0,10,,,,,,,,,,,,,,,,13,,41,48
5880,note_on,,1,0,11,,,,,,,,,,,,,,,,15,,56,48
5880,note_on,,0,0,11,,,,,,,,,,,,,,,,15,,62,48
5880,note_on,,0,0,11,,,,,,,,,,,,,,,,15,,41,48
5880,note_on,,1,0,6,,,,,,,,,,,,,,,,6,,68,60
5939,note_on,,59,0,11,,,,,,,,,,,,,,,,15,,56,0
5939,note_on,,0,0,11,,,,,,,,,,,,,,,,15,,41,0
5939,note_on,,59,0,6,,,,,,,,,,,,,,,,6,,68,0
5939,note_on,,59,0,10,,,,,,,,,,,,,,,,13,,41,0
5939,note_on,,0,0,11,,,,,,,,,,,,,,,,15,,62,0
5940,note_on,,1,0,11,,,,,,,,,,,,,,,,15,,39,48
5940,note_on,,0,0,11,,,,,,,,,,,,,,,,15,,58,48
5940,note_on,,0,0,11,,,,,,,,,,,,,,,,15,,55,48
5940,note_on,,0,0,11,,,,,,,,,,,,,,,,15,,63,48
5940,note_on,,1,0,10,,,,,,,,,,,,,,,,13,,39,48
5940,note_on,,1,0,6,,,,,,,,,,,,,,,,6,,67,63
5984,note_on,,44,0,6,,,,,,,,,,,,,,,,6,,67,0
5985,note_on,,1,0,6,,,,,,,,,,,,,,,,6,,67,64
5999,note_on,,0,0,11,,,,,,,,,,,,,,,,15,,63,0
5999,note_on,,0,0,11,,,,,,,,,,,,,,,,15,,55,0
5999,note_on,,59,0,10,,,,,,,,,,,,,,,,13,,39,0
5999,note_on,,14,0,6,,,,,,,,,,,,,,,,6,,67,0
5999,note_on,,59,0,11,,,,,,,,,,,,,,,,15,,39,0
5999,note_on,,0,0,11,,,,,,,,,,,,,,,,15,,58,0
6000,note_on,,0,0,11,,,,,,,,,,,,,,,,15,,65,48
6000,note_on,,0,0,11,,,,,,,,,,,,,,,,15,,46,48
6000,note_on,,0,0,11,,,,,,,,,,,,,,,,15,,62,48
6000,note_on,,1,0,11,,,,,,,,,,,,,,,,15,,58,48
6000,note_on,,1,0,10,,,,,,,,,,,,,,,,13,,46,48
6000,note_on,,1,0,6,,,,,,,,,,,,,,,,6,,65,64
6059,note_on,,59,0,10,,,,,,,,,,,,,,,,13,,46,0
6059,note_on,,59,0,11,,,,,,,,,,,,,,,,15,,62,0
6059,note_on,,0,0,11,,,,,,,,,,,,,,,,15,,46,0
6060,note_on,,1,0,11,,,,,,,,,,,,,,,,15,,48,48
6060,note_on,,0,0,11,,,,,,,,,,,,,,,,15,,63,48
6060,note_on,,1,0,10,,,,,,,,,,,,,,,,13,,48,48
6119,note_on,,0,0,11,,,,,,,,,,,,,,,,15,,65,0
6119,note_on,,59,0,11,,,,,,,,,,,,,,,,15,,58,0
6119,note_on,,59,0,10,,,,,,,,,,,,,,,,13,,48,0
6119,note_on,,0,0,11,,,,,,,,,,,,,,,,15,,63,0
6119,note_on,,119,0,6,,,,,,,,,,,,,,,,6,,65,0
6119,note_on,,0,0,11,,,,,,,,,,,,,,,,15,,48,0
6120,note_on,,1,0,10,,,,,,,,,,,,,,,,13,,50,48
6120,note_on,,0,0,11,,,,,,,,,,,,,,,,15,,62,48
6120,note_on,,0,0,11,,,,,,,,,,,,,,,,15,,70,48
6120,note_on,,0,0,11,,,,,,,,,,,,,,,,15,,50,48
6120,note_on,,1,0,11,,,,,,,,,,,,,,,,15,,65,48
6179,note_on,,59,0,11,,,,,,,,,,,,,,,,15,,65,0
6179,note_on,,0,0,11,,,,,,,,,,,,,,,,15,,50,0
6179,note_on,,0,0,11,,,,,,,,,,,,,,,,15,,70,0
6179,note_on,,0,0,11,,,,,,,,,,,,,,,,15,,62,0
6179,note_on,,59,0,10,,,,,,,,,,,,,,,,13,,50,0
6180,note_on,,1,0,11,,,,,,,,,,,,,,,,15,,46,48
6180,note_on,,0,0,11,,,,,,,,,,,,,,,,15,,58,48
6180,note_on,,541,0,8,,,,,,,,,,,,,,,,11,,74,48
6180,note_on,,1,0,10,,,,,,,,,,,,,,,,13,,46,48
6180,note_on,,2461,0,9,,,,,,,,,,,,,,,,12,,70,48
6180,note_on,,0,0,11,,,,,,,,,,,,,,,,15,,65,48
6180,note_on,,0,0,11,,,,,,,,,,,,,,,,15,,62,48
6180,note_on,,541,0,7,,,,,,,,,,,,,,,,10,,77,48
6239,note_on,,59,0,8,,,,,,,,,,,,,,,,11,,74,0
6239,note_on,,0,0,11,,,,,,,,,,,,,,,,15,,62,0
6239,note_on,,0,0,11,,,,,,,,,,,,,,,,15,,65,0
6239,note_on,,59,0,11,,,,,,,,,,,,,,,,15,,46,0
6239,note_on,,59,0,9,,,,,,,,,,,,,,,,12,,70,0
6239,note_on,,59,0,10,,,,,,,,,,,,,,,,13,,46,0
6239,note_on,,0,0,11,,,,,,,,,,,,,,,,15,,58,0
6239,note_on,,59,0,7,,,,,,,,,,,,,,,,10,,77,0
6240,note_on,,1,0,8,,,,,,,,,,,,,,,,11,,75,48
6240,note_on,,1,0,10,,,,,,,,,,,,,,,,13,,51,48
6240,note_on,,1,0,11,,,,,,,,,,,,,,,,15,,63,48
6240,note_on,,0,0,11,,,,,,,,,,,,,,,,15,,58,48
6240,note_on,,0,0,11,,,,,,,,,,,,,,,,15,,51,48
6240,note_on,,0,0,11,,,,,,,,,,,,,,,,15,,67,48
6240,note_on,,1,0,7,,,,,,,,,,,,,,,,10,,79,48
6240,note_on,,1,0,9,,,,,,,,,,,,,,,,12,,70,48
6299,note_on,,59,0,7,,,,,,,,,,,,,,,,10,,79,0
6299,note_on,,59,0,8,,,,,,,,,,,,,,,,11,,75,0
6300,note_on,,1,0,7,,,,,,,,,,,,,,,,10,,80,48
6300,note_on,,1,0,8,,,,,,,,,,,,,,,,11,,77,48
6329,note_on,,29,0,8,,,,,,,,,,,,,,,,11,,77,0
6329,note_on,,29,0,7,,,,,,,,,,,,,,,,10,,80,0
6330,note_on,,1,0,7,,,,,,,,,,,,,,,,10,,82,48
6330,note_on,,1,0,8,,,,,,,,,,,,,,,,11,,79,48
6359,note_on,,29,0,7,,,,,,,,,,,,,,,,10,,82,0
6359,note_on,,0,0,11,,,,,,,,,,,,,,,,15,,67,0
6359,note_on,,0,0,11,,,,,,,,,,,,,,,,15,,51,0
6359,note_on,,0,0,11,,,,,,,,,,,,,,,,15,,58,0
6359,note_on,,119,0,11,,,,,,,,,,,,,,,,15,,63,0
6359,note_on,,119,0,9,,,,,,,,,,,,,,,,12,,70,0
6359,note_on,,119,0,10,,,,,,,,,,,,,,,,13,,51,0
6359,note_on,,29,0,8,,,,,,,,,,,,,,,,11,,79,0
6360,note_on,,0,0,11,,,,,,,,,,,,,,,,15,,72,48
6360,note_on,,0,0,11,,,,,,,,,,,,,,,,15,,63,48
6360,note_on,,0,0,11,,,,,,,,,,,,,,,,15,,56,48
6360,note_on,,1,0,11,,,,,,,,,,,,,,,,15,,44,48
6360,note_on,,1,0,9,,,,,,,,,,,,,,,,12,,72,48
6360,note_on,,1,0,10,,,,,,,,,,,,,,,,13,,44,48
6360,note_on,,1,0,7,,,,,,,,,,,,,,,,10,,80,48
6360,note_on,,1,0,8,,,,,,,,,,,,,,,,11,,77,48
6419,note_on,,59,0,8,,,,,,,,,,,,,,,,11,,77,0
6419,note_on,,59,0,7,,,,,,,,,,,,,,,,10,,80,0
6420,note_on,,1,0,8,,,,,,,,,,,,,,,,11,,75,48
6420,note_on,,1,0,7,,,,,,,,,,,,,,,,10,,79,48
6479,note_on,,59,0,7,,,,,,,,,,,,,,,,10,,79,0
6479,note_on,,119,0,11,,,,,,,,,,,,,,,,15,,44,0
6479,note_on,,0,0,11,,,,,,,,,,,,,,,,15,,72,0
6479,note_on,,0,0,11,,,,,,,,,,,,,,,,15,,63,0
6479,note_on,,0,0,11,,,,,,,,,,,,,,,,15,,56,0
6479,note_on,,59,0,8,,,,,,,,,,,,,,,,11,,75,0
6479,note_on,,119,0,10,,,,,,,,,,,,,,,,13,,44,0
6479,note_on,,119,0,9,,,,,,,,,,,,,,,,12,,72,0
6480,note_on,,1,0,11,,,,,,,,,,,,,,,,15,,65,40
6480,note_on,,1,0,8,,,,,,,,,,,,,,,,11,,74,40
6480,note_on,,1,0,7,,,,,,,,,,,,,,,,10,,77,40
6480,note_on,,0,0,11,,,,,,,,,,,,,,,,15,,53,40
6480,note_on,,1,0,10,,,,,,,,,,,,,,,,13,,46,48
6480,note_on,,1,0,9,,,,,,,,,,,,,,,,12,,70,40
6480,note_on,,0,0,11,,,,,,,,,,,,,,,,15,,46,40
6480,note_on,,0,0,11,,,,,,,,,,,,,,,,15,,62,40
6480,note_on,,0,0,11,,,,,,,,,,,,,,,,15,,58,40
6540,note_on,,421,0,6,,,,,,,,,,,,,,,,6,,65,64
6599,note_on,,59,0,6,,,,,,,,,,,,,,,,6,,65,0
6600,note_on,,1,0,6,,,,,,,,,,,,,,,,6,,70,64
6659,note_on,,59,0,6,,,,,,,,,,,,,,,,6,,70,0
6660,note_on,,1,0,6,,,,,,,,,,,,,,,,6,,68,61
6719,note_on,,0,0,11,,,,,,,,,,,,,,,,15,,62,0
6719,note_on,,239,0,8,,,,,,,,,,,,,,,,11,,74,0
6719,note_on,,239,0,9,,,,,,,,,,,,,,,,12,,70,0
6719,note_on,,0,0,11,,,,,,,,,,,,,,,,15,,58,0
6719,note_on,,0,0,11,,,,,,,,,,,,,,,,15,,53,0
6719,note_on,,59,0,6,,,,,,,,,,,,,,,,6,,68,0
6719,note_on,,239,0,11,,,,,,,,,,,,,,,,15,,65,0
6719,note_on,,239,0,7,,,,,,,,,,,,,,,,10,,77,0
6720,note_on,,1,0,11,,,,,,,,,,,,,,,,15,,51,40
6720,note_on,,1,0,9,,,,,,,,,,,,,,,,12,,58,40
6720,note_on,,1,0,8,,,,,,,,,,,,,,,,11,,67,40
6720,note_on,,1,0,6,,,,,,,,,,,,,,,,6,,67,65
6735,note_on,,15,0,11,,,,,,,,,,,,,,,,15,,58,40
6750,note_on,,15,0,11,,,,,,,,,,,,,,,,15,,63,40
6764,note_on,,44,0,6,,,,,,,,,,,,,,,,6,,67,0
6765,note_on,,1,0,6,,,,,,,,,,,,,,,,6,,70,63
6765,note_on,,15,0,11,,,,,,,,,,,,,,,,15,,67,40
6779,note_on,,14,0,6,,,,,,,,,,,,,,,,6,,70,0
6780,note_on,,1,0,6,,,,,,,,,,,,,,,,6,,68,62
6809,note_on,,29,0,6,,,,,,,,,,,,,,,,6,,68,0
6810,note_on,,1,0,6,,,,,,,,,,,,,,,,6,,67,60
6839,note_on,,29,0,6,,,,,,,,,,,,,,,,6,,67,0
6840,note_on,,1,0,6,,,,,,,,,,,,,,,,6,,65,64
6899,note_on,,59,0,6,,,,,,,,,,,,,,,,6,,65,0
6900,note_on,,1,0,6,,,,,,,,,,,,,,,,6,,63,66
6959,note_on,,59,0,6,,,,,,,,,,,,,,,,6,,63,0
6959,note_on,,194,0,11,,,,,,,,,,,,,,,,15,,51,0
6959,note_on,,0,0,11,,,,,,,,,,,,,,,,15,,58,0
6959,note_on,,239,0,8,,,,,,,,,,,,,,,,11,,67,0
6959,note_on,,0,0,11,,,,,,,,,,,,,,,,15,,67,0
6959,note_on,,239,0,9,,,,,,,,,,,,,,,,12,,58,0
6959,note_on,,0,0,11,,,,,,,,,,,,,,,,15,,63,0
6960,note_on,,1,0,11,,,,,,,,,,,,,,,,15,,50,40
6960,note_on,,1,0,9,,,,,,,,,,,,,,,,12,,65,40
6960,note_on,,1,0,6,,,,,,,,,,,,,,,,6,,62,66
6960,note_on,,1,0,8,,,,,,,,,,,,,,,,11,,74,40
6975,note_on,,15,0,11,,,,,,,,,,,,,,,,15,,58,40
6989,note_on,,29,0,6,,,,,,,,,,,,,,,,6,,62,0
6990,note_on,,1,0,6,,,,,,,,,,,,,,,,6,,60,64
6990,note_on,,15,0,11,,,,,,,,,,,,,,,,15,,65,40
7005,note_on,,15,0,11,,,,,,,,,,,,,,,,15,,70,40
7019,note_on,,29,0,6,,,,,,,,,,,,,,,,6,,60,0
7020,note_on,,301,0,7,,,,,,,,,,,,,,,,10,,70,40
7020,note_on,,1,0,6,,,,,,,,,,,,,,,,6,,58,62
7079,note_on,,59,0,7,,,,,,,,,,,,,,,,10,,70,0
7079,note_on,,59,0,6,,,,,,,,,,,,,,,,6,,58,0
7080,note_on,,1,0,7,,,,,,,,,,,,,,,,10,,82,40
7139,note_on,,59,0,7,,,,,,,,,,,,,,,,10,,82,0
7140,note_on,,1,0,7,,,,,,,,,,,,,,,,10,,80,40
7199,note_on,,0,0,11,,,,,,,,,,,,,,,,15,,70,0
7199,note_on,,0,0,11,,,,,,,,,,,,,,,,15,,65,0
7199,note_on,,719,0,10,,,,,,,,,,,,,,,,13,,46,0
7199,note_on,,194,0,11,,,,,,,,,,,,,,,,15,,46,0
7199,note_on,,0,0,11,,,,,,,,,,,,,,,,15,,58,0
7199,note_on,,0,0,11,,,,,,,,,,,,,,,,15,,50,0
7199,note_on,,239,0,8,,,,,,,,,,,,,,,,11,,74,0
7199,note_on,,239,0,9,,,,,,,,,,,,,,,,12,,65,0
7199,note_on,,59,0,7,,,,,,,,,,,,,,,,10,,80,0
7200,note_on,,0,0,11,,,,,,,,,,,,,,,,15,,46,40
7200,note_on,,1,0,11,,,,,,,,,,,,,,,,15,,51,40
7200,note_on,,1,0,10,,,,,,,,,,,,,,,,13,,46,48
7200,note_on,,1,0,9,,,,,,,,,,,,,,,,12,,63,40
7200,note_on,,1,0,7,,,,,,,,,,,,,,,,10,,79,40
7200,note_on,,1,0,8,,,,,,,,,,,,,,,,11,,70,40
7215,note_on,,15,0,11,,,,,,,,,,,,,,,,15,,58,40
7230,note_on,,15,0,11,,,,,,,,,,,,,,,,15,,63,40
7245,note_on,,15,0,11,,,,,,,,,,,,,,,,15,,67,40
7259,note_on,,59,0,7,,,,,,,,,,,,,,,,10,,79,0
7260,note_on,,15,0,11,,,,,,,,,,,,,,,,15,,70,40
7260,note_on,,1,0,7,,,,,,,,,,,,,,,,10,,80,40
7289,note_on,,29,0,7,,,,,,,,,,,,,,,,10,,80,0
7290,note_on,,1,0,7,,,,,,,,,,,,,,,,10,,79,40
7319,note_on,,119,0,9,,,,,,,,,,,,,,,,12,,63,0
7319,note_on,,29,0,7,,,,,,,,,,,,,,,,10,,79,0
7319,note_on,,119,0,8,,,,,,,,,,,,,,,,11,,70,0
7320,note_on,,1,0,7,,,,,,,,,,,,,,,,10,,77,40
7320,note_on,,1,0,9,,,,,,,,,,,,,,,,12,,65,40
7320,note_on,,1,0,8,,,,,,,,,,,,,,,,11,,68,40
7379,note_on,,59,0,7,,,,,,,,,,,,,,,,10,,77,0
7379,note_on,,59,0,9,,,,,,,,,,,,,,,,12,,65,0
7379,note_on,,59,0,8,,,,,,,,,,,,,,,,11,,68,0
7380,note_on,,1,0,9,,,,,,,,,,,,,,,,12,,58,40
7380,note_on,,1,0,7,,,,,,,,,,,,,,,,10,,75,40
7380,note_on,,1,0,8,,,,,,,,,,,,,,,,11,,67,40
7439,note_on,,179,0,11,,,,,,,,,,,,,,,,15,,51,0
7439,note_on,,0,0,11,,,,,,,,,,,,,,,,15,,58,0
7439,note_on,,0,0,11,,,,,,,,,,,,,,,,15,,63,0
7439,note_on,,59,0,8,,,,,,,,,,,,,,,,11,,67,0
7439,note_on,,59,0,9,,,,,,,,,,,,,,,,12,,58,0
7439,note_on,,0,0,11,,,,,,,,,,,,,,,,15,,67,0
7439,note_on,,0,0,11,,,,,,,,,,,,,,,,15,,70,0
7439,note_on,,59,0,7,,,,,,,,,,,,,,,,10,,75,0
7440,note_on,,1,0,7,,,,,,,,,,,,,,,,10,,74,40
7440,note_on,,1,0,8,,,,,,,,,,,,,,,,11,,65,40
7440,note_on,,1,0,11,,,,,,,,,,,,,,,,15,,50,40
7440,note_on,,1,0,9,,,,,,,,,,,,,,,,12,,58,40
7455,note_on,,15,0,11,,,,,,,,,,,,,,,,15,,58,40
7470,note_on,,15,0,11,,,,,,,,,,,,,,,,15,,65,40
7485,note_on,,15,0,11,,,,,,,,,,,,,,,,15,,70,40
7500,note_on,,15,0,11,,,,,,,,,,,,,,,,15,,74,40
7500,note_on,,421,0,6,,,,,,,,,,,,,,,,6,,65,67
7559,note_on,,59,0,6,,,,,,,,,,,,,,,,6,,65,0
7560,note_on,,1,0,6,,,,,,,,,,,,,,,,6,,70,65
7619,note_on,,59,0,6,,,,,,,,,,,,,,,,6,,70,0
7620,note_on,,1,0,6,,,,,,,,,,,,,,,,6,,68,67
7679,note_on,,0,0,11,,,,,,,,,,,,,,,,15,,50,0
7679,note_on,,0,0,11,,,,,,,,,,,,,,,,15,,58,0
7679,note_on,,0,0,11,,,,,,,,,,,,,,,,15,,65,0
7679,note_on,,0,0,11,,,,,,,,,,,,,,,,15,,70,0
7679,note_on,,0,0,11,,,,,,,,,,,,,,,,15,,74,0
7679,note_on,,479,0,10,,,,,,,,,,,,,,,,13,,46,0
7679,note_on,,239,0,8,,,,,,,,,,,,,,,,11,,65,0
7679,note_on,,179,0,11,,,,,,,,,,,,,,,,15,,46,0
7679,note_on,,239,0,7,,,,,,,,,,,,,,,,10,,74,0
7679,note_on,,239,0,9,,,,,,,,,,,,,,,,12,,58,0
7679,note_on,,59,0,6,,,,,,,,,,,,,,,,6,,68,0
7680,note_on,,1,0,7,,,,,,,,,,,,,,,,10,,70,40
7680,note_on,,1,0,8,,,,,,,,,,,,,,,,11,,67,40
7680,note_on,,1,0,10,,,,,,,,,,,,,,,,13,,46,48
7680,note_on,,1,0,9,,,,,,,,,,,,,,,,12,,63,40
7680,note_on,,0,0,11,,,,,,,,,,,,,,,,15,,55,40
7680,note_on,,1,0,11,,,,,,,,,,,,,,,,15,,46,40
7680,note_on,,1,0,6,,,,,,,,,,,,,,,,6,,67,67
7695,note_on,,15,0,11,,,,,,,,,,,,,,,,15,,58,40
7710,note_on,,15,0,11,,,,,,,,,,,,,,,,15,,63,40
7725,note_on,,15,0,11,,,,,,,,,,,,,,,,15,,70,40
7739,note_on,,59,0,6,,,,,,,,,,,,,,,,6,,67,0
7740,note_on,,15,0,11,,,,,,,,,,,,,,,,15,,75,40
7740,note_on,,1,0,6,,,,,,,,,,,,,,,,6,,68,64
7769,note_on,,29,0,6,,,,,,,,,,,,,,,,6,,68,0
7770,note_on,,1,0,6,,,,,,,,,,,,,,,,6,,67,61
7799,note_on,,29,0,6,,,,,,,,,,,,,,,,6,,67,0
7800,note_on,,1,0,6,,,,,,,,,,,,,,,,6,,65,63
7859,note_on,,59,0,6,,,,,,,,,,,,,,,,6,,65,0
7860,note_on,,1,0,6,,,,,,,,,,,,,,,,6,,63,61
7919,note_on,,239,0,8,,,,,,,,,,,,,,,,11,,67,0
7919,note_on,,59,0,6,,,,,,,,,,,,,,,,6,,63,0
7919,note_on,,0,0,11,,,,,,,,,,,,,,,,15,,55,0
7919,note_on,,179,0,11,,,,,,,,,,,,,,,,15,,46,0
7919,note_on,,239,0,7,,,,,,,,,,,,,,,,10,,70,0
7919,note_on,,0,0,11,,,,,,,,,,,,,,,,15,,58,0
7919,note_on,,0,0,11,,,,,,,,,,,,,,,,15,,75,0
7919,note_on,,0,0,11,,,,,,,,,,,,,,,,15,,70,0
7919,note_on,,0,0,11,,,,,,,,,,,,,,,,15,,63,0
7919,note_on,,239,0,9,,,,,,,,,,,,,,,,12,,63,0
7919,note_on,,239,0,10,,,,,,,,,,,,,,,,13,,46,0
7920,note_on,,1,0,9,,,,,,,,,,,,,,,,12,,65,40
7920,note_on,,1,0,8,,,,,,,,,,,,,,,,11,,70,40
7920,note_on,,0,0,11,,,,,,,,,,,,,,,,15,,46,40
7920,note_on,,0,0,11,,,,,,,,,,,,,,,,15,,58,40
7920,note_on,,1,0,11,,,,,,,,,,,,,,,,15,,53,40
7920,note_on,,1,0,10,,,,,,,,,,,,,,,,13,,46,48
7920,note_on,,1,0,6,,,,,,,,,,,,,,,,6,,62,66
7920,note_on,,1,0,7,,,,,,,,,,,,,,,,10,,74,40
7935,note_on,,15,0,11,,,,,,,,,,,,,,,,15,,62,40
7949,note_on,,29,0,6,,,,,,,,,,,,,,,,6,,62,0
7950,note_on,,1,0,6,,,,,,,,,,,,,,,,6,,60,61
7950,note_on,,15,0,11,,,,,,,,,,,,,,,,15,,70,40
7965,note_on,,15,0,11,,,,,,,,,,,,,,,,15,,77,40
7979,note_on,,29,0,6,,,,,,,,,,,,,,,,6,,60,0
7980,note_on,,1,0,6,,,,,,,,,,,,,,,,6,,58,66
8039,note_on,,59,0,6,,,,,,,,,,,,,,,,6,,58,0
8039,note_on,,119,0,9,,,,,,,,,,,,,,,,12,,65,0
8039,note_on,,119,0,10,,,,,,,,,,,,,,,,13,,46,0
8039,note_on,,119,0,7,,,,,,,,,,,,,,,,10,,74,0
8039,note_on,,0,0,11,,,,,,,,,,,,,,,,15,,70,0
8039,note_on,,119,0,8,,,,,,,,,,,,,,,,11,,70,0
8039,note_on,,0,0,11,,,,,,,,,,,,,,,,15,,77,0
8039,note_on,,74,0,11,,,,,,,,,,,,,,,,15,,53,0
8039,note_on,,0,0,11,,,,,,,,,,,,,,,,15,,58,0
8039,note_on,,0,0,11,,,,,,,,,,,,,,,,15,,46,0
8039,note_on,,0,0,11,,,,,,,,,,,,,,,,15,,62,0
8040,note_on,,1,0,11,,,,,,,,,,,,,,,,15,,65,40
8040,note_on,,0,0,11,,,,,,,,,,,,,,,,15,,70,40
8040,note_on,,1,0,6,,,,,,,,,,,,,,,,6,,65,66
8040,note_on,,0,0,11,,,,,,,,,,,,,,,,15,,58,40
8040,note_on,,0,0,11,,,,,,,,,,,,,,,,15,,50,40
8040,note_on,,1,0,10,,,,,,,,,,,,,,,,13,,50,48
8069,note_on,,29,0,6,,,,,,,,,,,,,,,,6,,65,0
8070,note_on,,1,0,6,,,,,,,,,,,,,,,,6,,67,67
8084,note_on,,14,0,6,,,,,,,,,,,,,,,,6,,67,0
8085,note_on,,1,0,6,,,,,,,,,,,,,,,,6,,69,67
8099,note_on,,0,0,11,,,,,,,,,,,,,,,,15,,50,0
8099,note_on,,14,0,6,,,,,,,,,,,,,,,,6,,69,0
8099,note_on,,59,0,11,,,,,,,,,,,,,,,,15,,65,0
8099,note_on,,0,0,11,,,,,,,,,,,,,,,,15,,70,0
8099,note_on,,59,0,10,,,,,,,,,,,,,,,,13,,50,0
8099,note_on,,0,0,11,,,,,,,,,,,,,,,,15,,58,0
8100,note_on,,1,0,10,,,,,,,,,,,,,,,,13,,46,48
8100,note_on,,0,0,11,,,,,,,,,,,,,,,,15,,58,40
8100,note_on,,0,0,11,,,,,,,,,,,,,,,,15,,70,40
8100,note_on,,0,0,11,,,,,,,,,,,,,,,,15,,46,40
8100,note_on,,1,0,11,,,,,,,,,,,,,,,,15,,65,40
8100,note_on,,1,0,6,,,,,,,,,,,,,,,,6,,70,64
8100,note_on,,0,0,11,,,,,,,,,,,,,,,,15,,74,40
8144,note_on,,44,0,6,,,,,,,,,,,,,,,,6,,70,0
8145,note_on,,1,0,6,,,,,,,,,,,,,,,,6,,70,63
8159,note_on,,59,0,11,,,,,,,,,,,,,,,,15,,65,0
8159,note_on,,0,0,11,,,,,,,,,,,,,,,,15,,74,0
8159,note_on,,0,0,11,,,,,,,,,,,,,,,,15,,46,0
8159,note_on,,0,0,11,,,,,,,,,,,,,,,,15,,58,0
8159,note_on,,0,0,11,,,,,,,,,,,,,,,,15,,70,0
8159,note_on,,59,0,10,,,,,,,,,,,,,,,,13,,46,0
8159,note_on,,14,0,6,,,,,,,,,,,,,,,,6,,70,0
8160,note_on,,1,0,11,,,,,,,,,,,,,,,,15,,69,40
8160,note_on,,1,0,6,,,,,,,,,,,,,,,,6,,69,62
8160,note_on,,0,0,11,,,,,,,,,,,,,,,,15,,72,40
8160,note_on,,0,0,11,,,,,,,,,,,,,,,,15,,65,40
8160,note_on,,1,0,10,,,,,,,,,,,,,,,,13,,53,48
8160,note_on,,0,0,11,,,,,,,,,,,,,,,,15,,60,40
8160,note_on,,0,0,11,,,,,,,,,,,,,,,,15,,53,40
8189,note_on,,29,0,6,,,,,,,,,,,,,,,,6,,69,0
8190,note_on,,1,0,6,,,,,,,,,,,,,,,,6,,67,62
8219,note_on,,29,0,6,,,,,,,,,,,,,,,,6,,67,0
8220,note_on,,1,0,6,,,,,,,,,,,,,,,,6,,65,66
8220,note_on,,181,0,8,,,,,,,,,,,,,,,,11,,69,40
8220,note_on,,181,0,7,,,,,,,,,,,,,,,,10,,77,40
8279,note_on,,59,0,7,,,,,,,,,,,,,,,,10,,77,0
8279,note_on,,119,0,11,,,,,,,,,,,,,,,,15,,69,0
8279,note_on,,0,0,11,,,,,,,,,,,,,,,,15,,72,0
8279,note_on,,0,0,11,,,,,,,,,,,,,,,,15,,65,0
8279,note_on,,0,0,11,,,,,,,,,,,,,,,,15,,60,0
8279,note_on,,59,0,6,,,,,,,,,,,,,,,,6,,65,0
8279,note_on,,59,0,8,,,,,,,,,,,,,,,,11,,69,0
8280,note_on,,1,0,11,,,,,,,,,,,,,,,,15,,70,40
8280,note_on,,0,0,11,,,,,,,,,,,,,,,,15,,65,40
8280,note_on,,0,0,11,,,,,,,,,,,,,,,,15,,61,40
8280,note_on,,1,0,7,,,,,,,,,,,,,,,,10,,73,40
8280,note_on,,1,0,8,,,,,,,,,,,,,,,,11,,70,40
8339,note_on,,59,0,11,,,,,,,,,,,,,,,,15,,70,0
8339,note_on,,0,0,11,,,,,,,,,,,,,,,,15,,61,0
8339,note_on,,59,0,7,,,,,,,,,,,,,,,,10,,73,0
8339,note_on,,59,0,8,,,,,,,,,,,,,,,,11,,70,0
8340,note_on,,0,0,11,,,,,,,,,,,,,,,,15,,69,40
8340,note_on,,1,0,8,,,,,,,,,,,,,,,,11,,65,40
8340,note_on,,1,0,7,,,,,,,,,,,,,,,,10,,69,40
8340,note_on,,301,0,9,,,,,,,,,,,,,,,,12,,60,40
8340,note_on,,61,0,6,,,,,,,,,,,,,,,,6,,65,60
8340,note_on,,1,0,11,,,,,,,,,,,,,,,,15,,60,40
8399,note_on,,59,0,7,,,,,,,,,,,,,,,,10,,69,0
8399,note_on,,59,0,8,,,,,,,,,,,,,,,,11,,65,0
8399,note_on,,59,0,9,,,,,,,,,,,,,,,,12,,60,0
8399,note_on,,59,0,6,,,,,,,,,,,,,,,,6,,65,0
8399,note_on,,0,0,11,,,,,,,,,,,,,,,,15,,69,0
8399,note_on,,0,0,11,,,,,,,,,,,,,,,,15,,60,0
8399,note_on,,59,0,11,,,,,,,,,,,,,,,,15,,65,0
8400,note_on,,1,0,8,,,,,,,,,,,,,,,,11,,66,40
8400,note_on,,1,0,9,,,,,,,,,,,,,,,,12,,61,40
8400,note_on,,1,0,11,,,,,,,,,,,,,,,,15,,66,40
8400,note_on,,0,0,11,,,,,,,,,,,,,,,,15,,61,40
8400,note_on,,1,0,6,,,,,,,,,,,,,,,,6,,66,63
8400,note_on,,0,0,11,,,,,,,,,,,,,,,,15,,70,40
8400,note_on,,1,0,7,,,,,,,,,,,,,,,,10,,70,40
8519,note_on,,119,0,9,,,,,,,,,,,,,,,,12,,61,0
8519,note_on,,119,0,11,,,,,,,,,,,,,,,,15,,53,0
8519,note_on,,359,0,10,,,,,,,,,,,,,,,,13,,53,0
8519,note_on,,0,0,11,,,,,,,,,,,,,,,,15,,61,0
8520,note_on,,1,0,11,,,,,,,,,,,,,,,,15,,51,40
8520,note_on,,0,0,11,,,,,,,,,,,,,,,,15,,60,40
8520,note_on,,1,0,9,,,,,,,,,,,,,,,,12,,60,40
8520,note_on,,1,0,10,,,,,,,,,,,,,,,,13,,51,48
8579,note_on,,179,0,8,,,,,,,,,,,,,,,,11,,66,0
8579,note_on,,179,0,7,,,,,,,,,,,,,,,,10,,70,0
8579,note_on,,179,0,6,,,,,,,,,,,,,,,,6,,66,0
8580,note_on,,1,0,8,,,,,,,,,,,,,,,,11,,68,40
8580,note_on,,1,0,7,,,,,,,,,,,,,,,,10,,72,40
8580,note_on,,1,0,6,,,,,,,,,,,,,,,,6,,68,60
8609,note_on,,29,0,7,,,,,,,,,,,,,,,,10,,72,0
8609,note_on,,29,0,6,,,,,,,,,,,,,,,,6,,68,0
8609,note_on,,29,0,8,,,,,,,,,,,,,,,,11,,68,0
8610,note_on,,1,0,6,,,,,,,,,,,,,,,,6,,66,65
8610,note_on,,1,0,8,,,,,,,,,,,,,,,,11,,66,40
8610,note_on,,1,0,7,,,,,,,,,,,,,,,,10,,70,40
8639,note_on,,29,0,6,,,,,,,,,,,,,,,,6,,66,0
8639,note_on,,29,0,8,,,,,,,,,,,,,,,,11,,66,0
8639,note_on,,0,0,11,,,,,,,,,,,,,,,,15,,70,0
8639,note_on,,119,0,11,,,,,,,,,,,,,,,,15,,66,0
8639,note_on,,29,0,7,,,,,,,,,,,,,,,,10,,70,0
8640,note_on,,1,0,11,,,,,,,,,,,,,,,,15,,69,40
8640,note_on,,1,0,8,,,,,,,,,,,,,,,,11,,65,40
8640,note_on,,1,0,6,,,,,,,,,,,,,,,,6,,65,60
8640,note_on,,0,0,11,,,,,,,,,,,,,,,,15,,65,40
8640,note_on,,1,0,7,,,,,,,,,,,,,,,,10,,69,40
8640,note_on,,0,0,11,,,,,,,,,,,,,,,,15,,72,40
8759,note_on,,239,0,10,,,,,,,,,,,,,,,,13,,51,0
8759,note_on,,0,0,11,,,,,,,,,,,,,,,,15,,69,0
8759,note_on,,0,0,11,,,,,,,,,,,,,,,,15,,65,0
8759,note_on,,0,0,11,,,,,,,,,,,,,,,,15,,72,0
8759,note_on,,0,0,11,,,,,,,,,,,,,,,,15,,60,0
8759,note_on,,119,0,7,,,,,,,,,,,,,,,,10,,69,0
8759,note_on,,239,0,9,,,,,,,,,,,,,,,,12,,60,0
8759,note_on,,119,0,6,,,,,,,,,,,,,,,,6,,65,0
8759,note_on,,119,0,11,,,,,,,,,,,,,,,,15,,51,0
8760,note_on,,1,0,9,,,,,,,,,,,,,,,,12,,58,40
8760,note_on,,1,0,11,,,,,,,,,,,,,,,,15,,74,40
8760,note_on,,0,0,11,,,,,,,,,,,,,,,,15,,50,40
8760,note_on,,0,0,11,,,,,,,,,,,,,,,,15,,65,40
8760,note_on,,0,0,11,,,,,,,,,,,,,,,,15,,70,40
8760,note_on,,0,0,11,,,,,,,,,,,,,,,,15,,58,40
8760,note_on,,1,0,10,,,,,,,,,,,,,,,,13,,50,48
8760,note_on,,1,0,7,,,,,,,,,,,,,,,,10,,70,40
8820,note_on,,61,0,6,,,,,,,,,,,,,,,,6,,65,60
8879,note_on,,239,0,8,,,,,,,,,,,,,,,,11,,65,0
8879,note_on,,119,0,10,,,,,,,,,,,,,,,,13,,50,0
8879,note_on,,0,0,11,,,,,,,,,,,,,,,,15,,58,0
8879,note_on,,0,0,11,,,,,,,,,,,,,,,,15,,65,0
8879,note_on,,59,0,6,,,,,,,,,,,,,,,,6,,65,0
8879,note_on,,119,0,11,,,,,,,,,,,,,,,,15,,74,0
8879,note_on,,119,0,9,,,,,,,,,,,,,,,,12,,58,0
8879,note_on,,0,0,11,,,,,,,,,,,,,,,,15,,70,0
8879,note_on,,0,0,11,,,,,,,,,,,,,,,,15,,50,0
8880,note_on,,1,0,9,,,,,,,,,,,,,,,,12,,63,40
8880,note_on,,0,0,11,,,,,,,,,,,,,,,,15,,67,40
8880,note_on,,0,0,11,,,,,,,,,,,,,,,,15,,48,40
8880,note_on,,0,0,11,,,,,,,,,,,,,,,,15,,75,40
8880,note_on,,0,0,11,,,,,,,,,,,,,,,,15,,51,40
8880,note_on,,1,0,10,,,,,,,,,,,,,,,,13,,48,48
8880,note_on,,1,0,11,,,,,,,,,,,,,,,,15,,70,40
8880,note_on,,1,0,6,,,,,,,,,,,,,,,,6,,65,67
8880,note_on,,1,0,8,,,,,,,,,,,,,,,,11,,60,40
8909,note_on,,29,0,6,,,,,,,,,,,,,,,,6,,65,0
8910,note_on,,1,0,6,,,,,,,,,,,,,,,,6,,63,62
8999,note_on,,0,0,11,,,,,,,,,,,,,,,,15,,67,0
8999,note_on,,119,0,11,,,,,,,,,,,,,,,,15,,70,0
8999,note_on,,119,0,8,,,,,,,,,,,,,,,,11,,60,0
8999,note_on,,239,0,7,,,,,,,,,,,,,,,,10,,70,0
9000,note_on,,1,0,7,,,,,,,,,,,,,,,,10,,69,40
9000,note_on,,0,0,11,,,,,,,,,,,,,,,,15,,63,40
9000,note_on,,1,0,11,,,,,,,,,,,,,,,,15,,69,40
9000,note_on,,1,0,8,,,,,,,,,,,,,,,,11,,63,40
9059,note_on,,149,0,6,,,,,,,,,,,,,,,,6,,63,0
9060,note_on,,1,0,6,,,,,,,,,,,,,,,,6,,63,62
9119,note_on,,59,0,6,,,,,,,,,,,,,,,,6,,63,0
9119,note_on,,119,0,8,,,,,,,,,,,,,,,,11,,63,0
9119,note_on,,0,0,11,,,,,,,,,,,,,,,,15,,63,0
9119,note_on,,119,0,7,,,,,,,,,,,,,,,,10,,69,0
9119,note_on,,119,0,11,,,,,,,,,,,,,,,,15,,51,0
9119,note_on,,0,0,11,,,,,,,,,,,,,,,,15,,69,0
9119,note_on,,0,0,11,,,,,,,,,,,,,,,,15,,48,0
9119,note_on,,0,0,11,,,,,,,,,,,,,,,,15,,75,0
9119,note_on,,239,0,9,,,,,,,,,,,,,,,,12,,63,0
9119,note_on,,239,0,10,,,,,,,,,,,,,,,,13,,48,0
9120,note_on,,1,0,7,,,,,,,,,,,,,,,,10,,70,40
9120,note_on,,1,0,6,,,,,,,,,,,,,,,,6,,70,64
9120,note_on,,1,0,9,,,,,,,,,,,,,,,,12,,65,40
9120,note_on,,1,0,8,,,,,,,,,,,,,,,,11,,62,40
9120,note_on,,1,0,10,,,,,,,,,,,,,,,,13,,46,48
9120,note_on,,1,0,11,,,,,,,,,,,,,,,,15,,65,40
9120,note_on,,0,0,11,,,,,,,,,,,,,,,,15,,74,40
9120,note_on,,0,0,11,,,,,,,,,,,,,,,,15,,46,40
9120,note_on,,0,0,11,,,,,,,,,,,,,,,,15,,70,40
9120,note_on,,0,0,11,,,,,,,,,,,,,,,,15,,58,40
9209,note_on,,89,0,6,,,,,,,,,,,,,,,,6,,70,0
9210,note_on,,1,0,6,,,,,,,,,,,,,,,,6,,69,65
9239,note_on,,0,0,11,,,,,,,,,,,,,,,,15,,74,0
9239,note_on,,0,0,11,,,,,,,,,,,,,,,,15,,46,0
9239,note_on,,0,0,11,,,,,,,,,,,,,,,,15,,70,0
9239,note_on,,0,0,11,,,,,,,,,,,,,,,,15,,58,0
9239,note_on,,119,0,10,,,,,,,,,,,,,,,,13,,46,0
9239,note_on,,119,0,8,,,,,,,,,,,,,,,,11,,62,0
9239,note_on,,119,0,9,,,,,,,,,,,,,,,,12,,65,0
9239,note_on,,29,0,6,,,,,,,,,,,,,,,,6,,69,0
9239,note_on,,119,0,7,,,,,,,,,,,,,,,,10,,70,0
9239,note_on,,119,0,11,,,,,,,,,,,,,,,,15,,65,0
9240,note_on,,1,0,11,,,,,,,,,,,,,,,,15,,51,40
9240,note_on,,1,0,10,,,,,,,,,,,,,,,,13,,51,48
9240,note_on,,0,0,11,,,,,,,,,,,,,,,,15,,67,40
9240,note_on,,0,0,11,,,,,,,,,,,,,,,,15,,55,40
9240,note_on,,0,0,11,,,,,,,,,,,,,,,,15,,70,40
9240,note_on,,1,0,6,,,,,,,,,,,,,,,,6,,67,66
9240,note_on,,0,0,11,,,,,,,,,,,,,,,,15,,75,40
9299,note_on,,59,0,6,,,,,,,,,,,,,,,,6,,67,0
9300,note_on,,1,0,6,,,,,,,,,,,,,,,,6,,65,65
9329,note_on,,29,0,6,,,,,,,,,,,,,,,,6,,65,0
9330,note_on,,1,0,6,,,,,,,,,,,,,,,,6,,63,63
9359,note_on,,29,0,6,,,,,,,,,,,,,,,,6,,63,0
9359,note_on,,0,0,11,,,,,,,,,,,,,,,,15,,55,0
9359,note_on,,0,0,11,,,,,,,,,,,,,,,,15,,70,0
9359,note_on,,0,0,11,,,,,,,,,,,,,,,,15,,75,0
9359,note_on,,0,0,11,,,,,,,,,,,,,,,,15,,67,0
9359,note_on,,119,0,11,,,,,,,,,,,,,,,,15,,51,0
9359,note_on,,119,0,10,,,,,,,,,,,,,,,,13,,51,0
9360,note_on,,1,0,11,,,,,,,,,,,,,,,,15,,70,40
9360,note_on,,0,0,11,,,,,,,,,,,,,,,,15,,65,40
9360,note_on,,1,0,6,,,,,,,,,,,,,,,,6,,62,61
9360,note_on,,1,0,10,,,,,,,,,,,,,,,,13,,53,48
9360,note_on,,0,0,11,,,,,,,,,,,,,,,,15,,62,40
9360,note_on,,0,0,11,,,,,,,,,,,,,,,,15,,53,40
9419,note_on,,59,0,11,,,,,,,,,,,,,,,,15,,62,0
9420,note_on,,1,0,11,,,,,,,,,,,,,,,,15,,63,40
9479,note_on,,59,0,11,,,,,,,,,,,,,,,,15,,65,0
9479,note_on,,0,0,11,,,,,,,,,,,,,,,,15,,63,0
9479,note_on,,119,0,10,,,,,,,,,,,,,,,,13,,53,0
9480,note_on,,0,0,11,,,,,,,,,,,,,,,,15,,65,40
9480,note_on,,1,0,10,,,,,,,,,,,,,,,,13,,41,48
9480,note_on,,1,0,11,,,,,,,,,,,,,,,,15,,41,40
9524,note_on,,164,0,6,,,,,,,,,,,,,,,,6,,62,0
9525,note_on,,1,0,6,,,,,,,,,,,,,,,,6,,62,65
9539,note_on,,14,0,6,,,,,,,,,,,,,,,,6,,62,0
9539,note_on,,59,0,11,,,,,,,,,,,,,,,,15,,70,0
9540,note_on,,1,0,11,,,,,,,,,,,,,,,,15,,69,40
9540,note_on,,0,0,11,,,,,,,,,,,,,,,,15,,60,40
9540,note_on,,1,0,6,,,,,,,,,,,,,,,,6,,60,63
9569,note_on,,29,0,6,,,,,,,,,,,,,,,,6,,60,0
9570,note_on,,1,0,6,,,,,,,,,,,,,,,,6,,58,63
9599,note_on,,59,0,11,,,,,,,,,,,,,,,,15,,53,0
9599,note_on,,29,0,6,,,,,,,,,,,,,,,,6,,58,0
9599,note_on,,0,0,11,,,,,,,,,,,,,,,,15,,60,0
9599,note_on,,0,0,11,,,,,,,,,,,,,,,,15,,69,0
9599,note_on,,0,0,11,,,,,,,,,,,,,,,,15,,41,0
9599,note_on,,0,0,11,,,,,,,,,,,,,,,,15,,65,0
9599,note_on,,119,0,10,,,,,,,,,,,,,,,,13,,41,0
9600,note_on,,1,0,6,,,,,,,,,,,,,,,,6,,58,67
9600,note_on,,1,0,11,,,,,,,,,,,,,,,,15,,70,40
9600,note_on,,0,0,11,,,,,,,,,,,,,,,,15,,65,40
9600,note_on,,0,0,11,,,,,,,,,,,,,,,,15,,62,40
9600,note_on,,0,0,11,,,,,,,,,,,,,,,,15,,46,40
9600,note_on,,0,0,11,,,,,,,,,,,,,,,,15,,53,40
9600,note_on,,1,0,10,,,,,,,,,,,,,,,,13,,46,48
9780,note_on,,541,0,7,,,,,,,,,,,,,,,,10,,77,48
9780,note_on,,541,0,8,,,,,,,,,,,,,,,,11,,74,48
9839,note_on,,0,0,11,,,,,,,,,,,,,,,,15,,53,0
9839,note_on,,239,0,6,,,,,,,,,,,,,,,,6,,58,0
9839,note_on,,0,0,11,,,,,,,,,,,,,,,,15,,65,0
9839,note_on,,239,0,11,,,,,,,,,,,,,,,,15,,70,0
9839,note_on,,239,0,10,,,,,,,,,,,,,,,,13,,46,0
9839,note_on,,0,0,11,,,,,,,,,,,,,,,,15,,62,0
9839,note_on,,59,0,7,,,,,,,,,,,,,,,,10,,77,0
9839,note_on,,0,0,11,,,,,,,,,,,,,,,,15,,46,0
9839,note_on,,59,0,8,,,,,,,,,,,,,,,,11,,74,0
9840,note_on,,1,0,7,,,,,,,,,,,,,,,,10,,75,48
9840,note_on,,1,0,8,,,,,,,,,,,,,,,,11,,72,48
9854,note_on,,14,0,8,,,,,,,,,,,,,,,,11,,72,0
9854,note_on,,14,0,7,,,,,,,,,,,,,,,,10,,75,0
9855,note_on,,1,0,8,,,,,,,,,,,,,,,,11,,74,48
9855,note_on,,1,0,7,,,,,,,,,,,,,,,,10,,77,48
9869,note_on,,14,0,8,,,,,,,,,,,,,,,,11,,74,0
9869,note_on,,14,0,7,,,,,,,,,,,,,,,,10,,77,0
9870,note_on,,1,0,8,,,,,,,,,,,,,,,,11,,70,48
9870,note_on,,1,0,7,,,,,,,,,,,,,,,,10,,74,48
9884,note_on,,14,0,8,,,,,,,,,,,,,,,,11,,70,0
9884,note_on,,14,0,7,,,,,,,,,,,,,,,,10,,74,0
9885,note_on,,1,0,8,,,,,,,,,,,,,,,,11,,72,48
9885,note_on,,1,0,7,,,,,,,,,,,,,,,,10,,75,48
9899,note_on,,14,0,7,,,,,,,,,,,,,,,,10,,75,0
9899,note_on,,14,0,8,,,,,,,,,,,,,,,,11,,72,0
9900,note_on,,1,0,8,,,,,,,,,,,,,,,,11,,70,48
9900,note_on,,1,0,7,,,,,,,,,,,,,,,,10,,74,48
9959,note_on,,59,0,8,,,,,,,,,,,,,,,,11,,70,0
9959,note_on,,59,0,7,,,,,,,,,,,,,,,,10,,74,0
10020,note_on,,61,0,8,,,,,,,,,,,,,,,,11,,72,48
10020,note_on,,61,0,7,,,,,,,,,,,,,,,,10,,75,48
10079,note_on,,59,0,8,,,,,,,,,,,,,,,,11,,72,0
10079,note_on,,59,0,7,,,,,,,,,,,,,,,,10,,75,0
10080,note_on,,1,0,8,,,,,,,,,,,,,,,,11,,70,48
10080,note_on,,1,0,7,,,,,,,,,,,,,,,,10,,74,48
10094,note_on,,14,0,8,,,,,,,,,,,,,,,,11,,70,0
10094,note_on,,14,0,7,,,,,,,,,,,,,,,,10,,74,0
10095,note_on,,1,0,8,,,,,,,,,,,,,,,,11,,72,48
10095,note_on,,1,0,7,,,,,,,,,,,,,,,,10,,75,48
10109,note_on,,14,0,7,,,,,,,,,,,,,,,,10,,75,0
10109,note_on,,14,0,8,,,,,,,,,,,,,,,,11,,72,0
10110,note_on,,1,0,8,,,,,,,,,,,,,,,,11,,69,48
10110,note_on,,1,0,7,,,,,,,,,,,,,,,,10,,72,48
10124,note_on,,14,0,8,,,,,,,,,,,,,,,,11,,69,0
10124,note_on,,14,0,7,,,,,,,,,,,,,,,,10,,72,0
10125,note_on,,1,0,7,,,,,,,,,,,,,,,,10,,74,48
10125,note_on,,1,0,8,,,,,,,,,,,,,,,,11,,70,48
10139,note_on,,14,0,7,,,,,,,,,,,,,,,,10,,74,0
10139,note_on,,14,0,8,,,,,,,,,,,,,,,,11,,70,0
10140,note_on,,1,0,8,,,,,,,,,,,,,,,,11,,69,48
10140,note_on,,0,0,11,,,,,,,,,,,,,,,,15,,65,72
10140,note_on,,901,0,9,,,,,,,,,,,,,,,,12,,65,48
10140,note_on,,6421,0,5,,,,,,,,,,,,,,,,2,,41,72
10140,note_on,,1,0,7,,,,,,,,,,,,,,,,10,,72,48
10140,note_on,,301,0,10,,,,,,,,,,,,,,,,13,,41,72
10140,note_on,,0,0,11,,,,,,,,,,,,,,,,15,,72,72
10140,note_on,,301,0,11,,,,,,,,,,,,,,,,15,,69,72
10140,note_on,,0,0,11,,,,,,,,,,,,,,,,15,,41,72
10199,note_on,,0,0,11,,,,,,,,,,,,,,,,15,,65,0
10199,note_on,,0,0,11,,,,,,,,,,,,,,,,15,,72,0
10199,note_on,,0,0,11,,,,,,,,,,,,,,,,15,,41,0
10199,note_on,,59,0,11,,,,,,,,,,,,,,,,15,,69,0
10199,note_on,,59,0,5,,,,,,,,,,,,,,,,2,,41,0
10199,note_on,,59,0,7,,,,,,,,,,,,,,,,10,,72,0
10199,note_on,,59,0,10,,,,,,,,,,,,,,,,13,,41,0
10199,note_on,,59,0,8,,,,,,,,,,,,,,,,11,,69,0
10199,note_on,,59,0,9,,,,,,,,,,,,,,,,12,,65,0
10200,note_on,,0,0,11,,,,,,,,,,,,,,,,15,,60,72
10200,note_on,,0,0,11,,,,,,,,,,,,,,,,15,,69,72
10200,note_on,,1,0,5,,,,,,,,,,,,,,,,2,,53,72
10200,note_on,,1,0,9,,,,,,,,,,,,,,,,12,,60,48
10200,note_on,,0,0,11,,,,,,,,,,,,,,,,15,,65,72
10200,note_on,,1,0,11,,,,,,,,,,,,,,,,15,,53,72
10200,note_on,,1,0,10,,,,,,,,,,,,,,,,13,,53,72
10259,note_on,,0,0,11,,,,,,,,,,,,,,,,15,,69,0
10259,note_on,,59,0,9,,,,,,,,,,,,,,,,12,,60,0
10259,note_on,,59,0,11,,,,,,,,,,,,,,,,15,,65,0
10259,note_on,,0,0,11,,,,,,,,,,,,,,,,15,,60,0
10260,note_on,,1,0,11,,,,,,,,,,,,,,,,15,,57,72
10260,note_on,,0,0,11,,,,,,,,,,,,,,,,15,,60,72
10260,note_on,,1,0,9,,,,,,,,,,,,,,,,12,,57,48
10260,note_on,,61,0,7,,,,,,,,,,,,,,,,10,,77,72
10260,note_on,,0,0,11,,,,,,,,,,,,,,,,15,,65,72
10319,note_on,,59,0,9,,,,,,,,,,,,,,,,12,,57,0
10319,note_on,,59,0,11,,,,,,,,,,,,,,,,15,,57,0
10319,note_on,,0,0,11,,,,,,,,,,,,,,,,15,,60,0
10319,note_on,,59,0,7,,,,,,,,,,,,,,,,10,,77,0
10320,note_on,,1,0,11,,,,,,,,,,,,,,,,15,,58,72
10320,note_on,,0,0,11,,,,,,,,,,,,,,,,15,,61,72
10320,note_on,,1,0,7,,,,,,,,,,,,,,,,10,,73,72
10320,note_on,,1,0,9,,,,,,,,,,,,,,,,12,,53,48
10379,note_on,,59,0,7,,,,,,,,,,,,,,,,10,,73,0
10379,note_on,,0,0,11,,,,,,,,,,,,,,,,15,,61,0
10379,note_on,,0,0,11,,,,,,,,,,,,,,,,15,,58,0
10379,note_on,,59,0,11,,,,,,,,,,,,,,,,15,,65,0
10380,note_on,,1,0,7,,,,,,,,,,,,,,,,10,,69,72
10380,note_on,,0,0,11,,,,,,,,,,,,,,,,15,,60,72
10380,note_on,,1,0,11,,,,,,,,,,,,,,,,15,,69,72
10439,note_on,,59,0,7,,,,,,,,,,,,,,,,10,,69,0
10439,note_on,,0,0,11,,,,,,,,,,,,,,,,15,,60,0
10439,note_on,,59,0,11,,,,,,,,,,,,,,,,15,,69,0
10440,note_on,,0,0,11,,,,,,,,,,,,,,,,15,,62,72
10440,note_on,,1,0,11,,,,,,,,,,,,,,,,15,,70,72
10440,note_on,,1,0,7,,,,,,,,,,,,,,,,10,,70,72
10440,note_on,,0,0,11,,,,,,,,,,,,,,,,15,,65,72
10499,note_on,,59,0,7,,,,,,,,,,,,,,,,10,,70,0
10499,note_on,,59,0,11,,,,,,,,,,,,,,,,15,,70,0
10499,note_on,,0,0,11,,,,,,,,,,,,,,,,15,,62,0
10499,note_on,,179,0,9,,,,,,,,,,,,,,,,12,,53,0
10500,note_on,,0,0,11,,,,,,,,,,,,,,,,15,,60,72
10500,note_on,,301,0,8,,,,,,,,,,,,,,,,11,,57,72
10500,note_on,,1,0,11,,,,,,,,,,,,,,,,15,,69,72
10500,note_on,,1,0,9,,,,,,,,,,,,,,,,12,,60,72
10500,note_on,,1,0,7,,,,,,,,,,,,,,,,10,,65,72
10559,note_on,,59,0,9,,,,,,,,,,,,,,,,12,,60,0
10559,note_on,,59,0,7,,,,,,,,,,,,,,,,10,,65,0
10559,note_on,,59,0,11,,,,,,,,,,,,,,,,15,,65,0
10559,note_on,,59,0,8,,,,,,,,,,,,,,,,11,,57,0
10559,note_on,,0,0,11,,,,,,,,,,,,,,,,15,,69,0
10559,note_on,,0,0,11,,,,,,,,,,,,,,,,15,,60,0
10560,note_on,,1,0,7,,,,,,,,,,,,,,,,10,,66,72
10560,note_on,,1,0,9,,,,,,,,,,,,,,,,12,,58,72
10560,note_on,,0,0,11,,,,,,,,,,,,,,,,15,,61,72
10560,note_on,,1,0,8,,,,,,,,,,,,,,,,11,,58,72
10560,note_on,,1,0,11,,,,,,,,,,,,,,,,15,,66,72
10560,note_on,,0,0,11,,,,,,,,,,,,,,,,15,,70,72
10619,note_on,,419,0,10,,,,,,,,,,,,,,,,13,,53,0
10619,note_on,,59,0,11,,,,,,,,,,,,,,,,15,,53,0
10619,note_on,,419,0,5,,,,,,,,,,,,,,,,2,,53,0
10620,note_on,,1,0,5,,,,,,,,,,,,,,,,2,,51,72
10620,note_on,,1,0,11,,,,,,,,,,,,,,,,15,,51,72
10620,note_on,,1,0,10,,,,,,,,,,,,,,,,13,,51,72
10649,note_on,,29,0,11,,,,,,,,,,,,,,,,15,,51,0
10649,note_on,,29,0,10,,,,,,,,,,,,,,,,13,,51,0
10649,note_on,,29,0,5,,,,,,,,,,,,,,,,2,,51,0
10650,note_on,,1,0,10,,,,,,,,,,,,,,,,13,,50,72
10650,note_on,,1,0,5,,,,,,,,,,,,,,,,2,,50,72
10650,note_on,,1,0,11,,,,,,,,,,,,,,,,15,,50,72
10679,note_on,,29,0,5,,,,,,,,,,,,,,,,2,,50,0
10679,note_on,,0,0,11,,,,,,,,,,,,,,,,15,,50,0
10679,note_on,,29,0,11,,,,,,,,,,,,,,,,15,,61,0
10679,note_on,,29,0,10,,,,,,,,,,,,,,,,13,,50,0
10679,note_on,,119,0,9,,,,,,,,,,,,,,,,12,,58,0
10680,note_on,,1,0,11,,,,,,,,,,,,,,,,15,,60,72
10680,note_on,,0,0,11,,,,,,,,,,,,,,,,15,,51,72
10680,note_on,,1,0,10,,,,,,,,,,,,,,,,13,,51,72
10680,note_on,,1,0,9,,,,,,,,,,,,,,,,12,,63,72
10680,note_on,,1,0,5,,,,,,,,,,,,,,,,2,,51,72
10739,note_on,,179,0,8,,,,,,,,,,,,,,,,11,,58,0
10740,note_on,,1,0,8,,,,,,,,,,,,,,,,11,,60,72
10769,note_on,,29,0,8,,,,,,,,,,,,,,,,11,,60,0
10770,note_on,,1,0,8,,,,,,,,,,,,,,,,11,,58,72
10799,note_on,,239,0,7,,,,,,,,,,,,,,,,10,,66,0
10799,note_on,,0,0,11,,,,,,,,,,,,,,,,15,,60,0
10799,note_on,,29,0,8,,,,,,,,,,,,,,,,11,,58,0
10799,note_on,,0,0,11,,,,,,,,,,,,,,,,15,,70,0
10799,note_on,,119,0,11,,,,,,,,,,,,,,,,15,,66,0
10799,note_on,,119,0,9,,,,,,,,,,,,,,,,12,,63,0
10800,note_on,,1,0,7,,,,,,,,,,,,,,,,10,,65,72
10800,note_on,,1,0,9,,,,,,,,,,,,,,,,12,,60,72
10800,note_on,,1,0,11,,,,,,,,,,,,,,,,15,,60,72
10800,note_on,,1,0,8,,,,,,,,,,,,,,,,11,,57,72
10815,note_on,,15,0,11,,,,,,,,,,,,,,,,15,,65,72
10830,note_on,,15,0,11,,,,,,,,,,,,,,,,15,,69,72
10845,note_on,,15,0,11,,,,,,,,,,,,,,,,15,,72,72
10859,note_on,,0,0,11,,,,,,,,,,,,,,,,15,,72,0
10859,note_on,,0,0,11,,,,,,,,,,,,,,,,15,,69,0
10859,note_on,,0,0,11,,,,,,,,,,,,,,,,15,,60,0
10859,note_on,,0,0,11,,,,,,,,,,,,,,,,15,,65,0
10859,note_on,,179,0,10,,,,,,,,,,,,,,,,13,,51,0
10859,note_on,,59,0,7,,,,,,,,,,,,,,,,10,,65,0
10859,note_on,,179,0,5,,,,,,,,,,,,,,,,2,,51,0
10859,note_on,,14,0,11,,,,,,,,,,,,,,,,15,,51,0
10860,note_on,,1,0,7,,,,,,,,,,,,,,,,10,,69,72
10860,note_on,,1,0,11,,,,,,,,,,,,,,,,15,,50,72
10860,note_on,,0,0,11,,,,,,,,,,,,,,,,15,,65,72
10860,note_on,,0,0,11,,,,,,,,,,,,,,,,15,,69,72
10860,note_on,,1,0,5,,,,,,,,,,,,,,,,2,,50,72
10860,note_on,,1,0,10,,,,,,,,,,,,,,,,13,,50,72
10889,note_on,,29,0,5,,,,,,,,,,,,,,,,2,,50,0
10889,note_on,,29,0,10,,,,,,,,,,,,,,,,13,,50,0
10889,note_on,,29,0,11,,,,,,,,,,,,,,,,15,,50,0
10890,note_on,,1,0,5,,,,,,,,,,,,,,,,2,,48,72
10890,note_on,,1,0,10,,,,,,,,,,,,,,,,13,,48,72
10890,note_on,,1,0,11,,,,,,,,,,,,,,,,15,,48,72
10919,note_on,,119,0,9,,,,,,,,,,,,,,,,12,,60,0
10919,note_on,,59,0,7,,,,,,,,,,,,,,,,10,,69,0
10919,note_on,,0,0,11,,,,,,,,,,,,,,,,15,,48,0
10919,note_on,,29,0,5,,,,,,,,,,,,,,,,2,,48,0
10919,note_on,,29,0,11,,,,,,,,,,,,,,,,15,,69,0
10919,note_on,,119,0,8,,,,,,,,,,,,,,,,11,,57,0
10919,note_on,,29,0,10,,,,,,,,,,,,,,,,13,,48,0
10920,note_on,,1,0,8,,,,,,,,,,,,,,,,11,,65,72
10920,note_on,,1,0,10,,,,,,,,,,,,,,,,13,,50,72
10920,note_on,,1,0,5,,,,,,,,,,,,,,,,2,,50,72
10920,note_on,,1,0,9,,,,,,,,,,,,,,,,12,,58,72
10920,note_on,,1,0,7,,,,,,,,,,,,,,,,10,,70,72
10920,note_on,,1,0,11,,,,,,,,,,,,,,,,15,,50,72
10920,note_on,,0,0,11,,,,,,,,,,,,,,,,15,,70,72
10979,note_on,,0,0,11,,,,,,,,,,,,,,,,15,,70,0
10979,note_on,,59,0,8,,,,,,,,,,,,,,,,11,,65,0
10979,note_on,,59,0,10,,,,,,,,,,,,,,,,13,,50,0
10979,note_on,,59,0,5,,,,,,,,,,,,,,,,2,,50,0
10979,note_on,,59,0,9,,,,,,,,,,,,,,,,12,,58,0
10979,note_on,,59,0,7,,,,,,,,,,,,,,,,10,,70,0
10979,note_on,,0,0,11,,,,,,,,,,,,,,,,15,,50,0
10979,note_on,,59,0,11,,,,,,,,,,,,,,,,15,,65,0
10980,note_on,,1,0,10,,,,,,,,,,,,,,,,13,,51,72
10980,note_on,,1,0,9,,,,,,,,,,,,,,,,12,,55,72
10980,note_on,,1,0,7,,,,,,,,,,,,,,,,10,,63,72
10980,note_on,,1,0,5,,,,,,,,,,,,,,,,2,,51,72
10980,note_on,,1,0,11,,,,,,,,,,,,,,,,15,,67,72
10980,note_on,,0,0,11,,,,,,,,,,,,,,,,15,,51,72
10980,note_on,,0,0,11,,,,,,,,,,,,,,,,15,,58,72
10980,note_on,,0,0,11,,,,,,,,,,,,,,,,15,,63,72
10980,note_on,,1,0,8,,,,,,,,,,,,,,,,11,,58,72
11039,note_on,,59,0,11,,,,,,,,,,,,,,,,15,,67,0
11039,note_on,,0,0,11,,,,,,,,,,,,,,,,15,,51,0
11039,note_on,,0,0,11,,,,,,,,,,,,,,,,15,,63,0
11039,note_on,,0,0,11,,,,,,,,,,,,,,,,15,,58,0
11039,note_on,,59,0,9,,,,,,,,,,,,,,,,12,,55,0
11039,note_on,,59,0,7,,,,,,,,,,,,,,,,10,,63,0
11039,note_on,,59,0,5,,,,,,,,,,,,,,,,2,,51,0
11039,note_on,,59,0,8,,,,,,,,,,,,,,,,11,,58,0
11039,note_on,,59,0,10,,,,,,,,,,,,,,,,13,,51,0
11040,note_on,,1,0,10,,,,,,,,,,,,,,,,13,,53,72
11040,note_on,,1,0,7,,,,,,,,,,,,,,,,10,,62,72
11040,note_on,,1,0,5,,,,,,,,,,,,,,,,2,,53,72
11040,note_on,,1,0,11,,,,,,,,,,,,,,,,15,,62,72
11040,note_on,,1,0,9,,,,,,,,,,,,,,,,12,,53,72
11040,note_on,,1,0,8,,,,,,,,,,,,,,,,11,,58,72
11040,note_on,,0,0,11,,,,,,,,,,,,,,,,15,,53,72
11040,note_on,,0,0,11,,,,,,,,,,,,,,,,15,,65,72
11040,note_on,,0,0,11,,,,,,,,,,,,,,,,15,,58,72
11099,note_on,,59,0,11,,,,,,,,,,,,,,,,15,,62,0
11100,note_on,,1,0,11,,,,,,,,,,,,,,,,15,,63,72
11159,note_on,,119,0,8,,,,,,,,,,,,,,,,11,,58,0
11159,note_on,,119,0,10,,,,,,,,,,,,,,,,13,,53,0
11159,note_on,,0,0,11,,,,,,,,,,,,,,,,15,,63,0
11159,note_on,,0,0,11,,,,,,,,,,,,,,,,15,,58,0
11159,note_on,,0,0,11,,,,,,,,,,,,,,,,15,,65,0
11159,note_on,,59,0,11,,,,,,,,,,,,,,,,15,,53,0
11159,note_on,,119,0,7,,,,,,,,,,,,,,,,10,,62,0
11159,note_on,,119,0,5,,,,,,,,,,,,,,,,2,,53,0
11160,note_on,,1,0,8,,,,,,,,,,,,,,,,11,,57,72
11160,note_on,,1,0,7,,,,,,,,,,,,,,,,10,,60,72
11160,note_on,,0,0,11,,,,,,,,,,,,,,,,15,,65,72
11160,note_on,,0,0,11,,,,,,,,,,,,,,,,15,,41,72
11160,note_on,,1,0,5,,,,,,,,,,,,,,,,2,,41,72
11160,note_on,,0,0,11,,,,,,,,,,,,,,,,15,,69,72
11160,note_on,,1,0,11,,,,,,,,,,,,,,,,15,,53,72
11160,note_on,,1,0,10,,,,,,,,,,,,,,,,13,,41,72
11174,note_on,,14,0,7,,,,,,,,,,,,,,,,10,,60,0
11175,note_on,,1,0,7,,,,,,,,,,,,,,,,10,,62,72
11189,note_on,,14,0,7,,,,,,,,,,,,,,,,10,,62,0
11190,note_on,,1,0,7,,,,,,,,,,,,,,,,10,,60,72
11204,note_on,,14,0,7,,,,,,,,,,,,,,,,10,,60,0
11205,note_on,,1,0,7,,,,,,,,,,,,,,,,10,,62,72
11219,note_on,,14,0,7,,,,,,,,,,,,,,,,10,,62,0
11219,note_on,,59,0,11,,,,,,,,,,,,,,,,15,,65,0
11219,note_on,,179,0,9,,,,,,,,,,,,,,,,12,,53,0
11220,note_on,,1,0,9,,,,,,,,,,,,,,,,12,,53,72
11220,note_on,,1,0,7,,,,,,,,,,,,,,,,10,,58,72
11220,note_on,,1,0,11,,,,,,,,,,,,,,,,15,,60,72
11234,note_on,,14,0,7,,,,,,,,,,,,,,,,10,,58,0
11235,note_on,,1,0,7,,,,,,,,,,,,,,,,10,,60,72
11249,note_on,,14,0,7,,,,,,,,,,,,,,,,10,,60,0
11249,note_on,,89,0,8,,,,,,,,,,,,,,,,11,,57,0
11250,note_on,,1,0,8,,,,,,,,,,,,,,,,11,,58,72
11250,note_on,,1,0,7,,,,,,,,,,,,,,,,10,,58,72
11279,note_on,,59,0,9,,,,,,,,,,,,,,,,12,,53,0
11279,note_on,,29,0,7,,,,,,,,,,,,,,,,10,,58,0
11279,note_on,,119,0,10,,,,,,,,,,,,,,,,13,,41,0
11279,note_on,,29,0,8,,,,,,,,,,,,,,,,11,,58,0
11279,note_on,,0,0,11,,,,,,,,,,,,,,,,15,,41,0
11279,note_on,,119,0,5,,,,,,,,,,,,,,,,2,,41,0
11279,note_on,,0,0,11,,,,,,,,,,,,,,,,15,,60,0
11279,note_on,,0,0,11,,,,,,,,,,,,,,,,15,,69,0
11279,note_on,,59,0,11,,,,,,,,,,,,,,,,15,,53,0
11280,note_on,,1,0,5,,,,,,,,,,,,,,,,2,,46,72
11280,note_on,,0,0,11,,,,,,,,,,,,,,,,15,,46,72
11280,note_on,,0,0,11,,,,,,,,,,,,,,,,15,,65,72
11280,note_on,,1,0,10,,,,,,,,,,,,,,,,13,,46,72
11280,note_on,,1,0,7,,,,,,,,,,,,,,,,10,,58,72
11280,note_on,,0,0,11,,,,,,,,,,,,,,,,15,,70,72
11280,note_on,,1,0,11,,,,,,,,,,,,,,,,15,,62,72
11280,note_on,,1,0,9,,,,,,,,,,,,,,,,12,,53,72
11280,note_on,,1,0,8,,,,,,,,,,,,,,,,11,,58,72
11339,note_on,,59,0,10,,,,,,,,,,,,,,,,13,,46,0
11339,note_on,,0,0,11,,,,,,,,,,,,,,,,15,,70,0
11339,note_on,,59,0,11,,,,,,,,,,,,,,,,15,,62,0
11339,note_on,,59,0,5,,,,,,,,,,,,,,,,2,,46,0
11339,note_on,,0,0,11,,,,,,,,,,,,,,,,15,,46,0
11339,note_on,,0,0,11,,,,,,,,,,,,,,,,15,,65,0
11340,note_on,,1,0,11,,,,,,,,,,,,,,,,15,,58,48
11340,note_on,,1,0,10,,,,,,,,,,,,,,,,13,,58,48
11370,note_on,,30,0,11,,,,,,,,,,,,,,,,15,,60,48
11399,note_on,,59,0,10,,,,,,,,,,,,,,,,13,,58,0
11399,note_on,,29,0,11,,,,,,,,,,,,,,,,15,,58,0
11399,note_on,,0,0,11,,,,,,,,,,,,,,,,15,,60,0
11399,note_on,,119,0,9,,,,,,,,,,,,,,,,12,,53,0
11399,note_on,,119,0,8,,,,,,,,,,,,,,,,11,,58,0
11399,note_on,,119,0,7,,,,,,,,,,,,,,,,10,,58,0
11400,note_on,,1,0,11,,,,,,,,,,,,,,,,15,,62,48
11400,note_on,,1,0,10,,,,,,,,,,,,,,,,13,,56,48
11400,note_on,,0,0,11,,,,,,,,,,,,,,,,15,,56,48
11459,note_on,,59,0,10,,,,,,,,,,,,,,,,13,,56,0
11459,note_on,,59,0,11,,,,,,,,,,,,,,,,15,,62,0
11459,note_on,,0,0,11,,,,,,,,,,,,,,,,15,,56,0
11460,note_on,,1,0,11,,,,,,,,,,,,,,,,15,,64,48
11460,note_on,,0,0,11,,,,,,,,,,,,,,,,15,,55,48
11460,note_on,,1,0,10,,,,,,,,,,,,,,,,13,,55,48
11460,note_on,,1621,0,6,,,,,,,,,,,,,,,,6,,58,65
11519,note_on,,59,0,10,,,,,,,,,,,,,,,,13,,55,0
11519,note_on,,0,0,11,,,,,,,,,,,,,,,,15,,55,0
11519,note_on,,59,0,6,,,,,,,,,,,,,,,,6,,58,0
11519,note_on,,59,0,11,,,,,,,,,,,,,,,,15,,64,0
11520,note_on,,1,0,11,,,,,,,,,,,,,,,,15,,56,48
11520,note_on,,1,0,6,,,,,,,,,,,,,,,,6,,65,60
11520,note_on,,0,0,11,,,,,,,,,,,,,,,,15,,65,48
11520,note_on,,0,0,11,,,,,,,,,,,,,,,,15,,60,48
11520,note_on,,1,0,10,,,,,,,,,,,,,,,,13,,56,48
11579,note_on,,0,0,11,,,,,,,,,,,,,,,,15,,60,0
11579,note_on,,0,0,11,,,,,,,,,,,,,,,,15,,65,0
11579,note_on,,59,0,10,,,,,,,,,,,,,,,,13,,56,0
11579,note_on,,59,0,11,,,,,,,,,,,,,,,,15,,56,0
11580,note_on,,0,0,11,,,,,,,,,,,,,,,,15,,60,48
11580,note_on,,0,0,11,,,,,,,,,,,,,,,,15,,65,48
11580,note_on,,0,0,11,,,,,,,,,,,,,,,,15,,53,48
11580,note_on,,1,0,11,,,,,,,,,,,,,,,,15,,68,48
11580,note_on,,1,0,10,,,,,,,,,,,,,,,,13,,53,48
11639,note_on,,59,0,10,,,,,,,,,,,,,,,,13,,53,0
11639,note_on,,0,0,11,,,,,,,,,,,,,,,,15,,60,0
11639,note_on,,0,0,11,,,,,,,,,,,,,,,,15,,53,0
11639,note_on,,0,0,11,,,,,,,,,,,,,,,,15,,65,0
11639,note_on,,59,0,11,,,,,,,,,,,,,,,,15,,68,0
11640,note_on,,1,0,10,,,,,,,,,,,,,,,,13,,49,48
11640,note_on,,0,0,11,,,,,,,,,,,,,,,,15,,49,48
11640,note_on,,0,0,11,,,,,,,,,,,,,,,,15,,58,48
11640,note_on,,0,0,11,,,,,,,,,,,,,,,,15,,70,48
11640,note_on,,1,0,11,,,,,,,,,,,,,,,,15,,65,48
11699,note_on,,0,0,11,,,,,,,,,,,,,,,,15,,49,0
11699,note_on,,179,0,6,,,,,,,,,,,,,,,,6,,65,0
11699,note_on,,59,0,10,,,,,,,,,,,,,,,,13,,49,0
11699,note_on,,59,0,11,,,,,,,,,,,,,,,,15,,58,0
11700,note_on,,1,0,11,,,,,,,,,,,,,,,,15,,46,48
11700,note_on,,1,0,6,,,,,,,,,,,,,,,,6,,67,64
11700,note_on,,0,0,11,,,,,,,,,,,,,,,,15,,61,48
11700,note_on,,1,0,10,,,,,,,,,,,,,,,,13,,46,48
11744,note_on,,44,0,6,,,,,,,,,,,,,,,,6,,67,0
11745,note_on,,1,0,6,,,,,,,,,,,,,,,,6,,65,63
11759,note_on,,59,0,10,,,,,,,,,,,,,,,,13,,46,0
11759,note_on,,14,0,6,,,,,,,,,,,,,,,,6,,65,0
11759,note_on,,0,0,11,,,,,,,,,,,,,,,,15,,70,0
11759,note_on,,59,0,11,,,,,,,,,,,,,,,,15,,65,0
11759,note_on,,0,0,11,,,,,,,,,,,,,,,,15,,61,0
11759,note_on,,0,0,11,,,,,,,,,,,,,,,,15,,46,0
11760,note_on,,0,0,11,,,,,,,,,,,,,,,,15,,60,48
11760,note_on,,1,0,11,,,,,,,,,,,,,,,,15,,55,48
11760,note_on,,0,0,11,,,,,,,,,,,,,,,,15,,48,48
11760,note_on,,1,0,10,,,,,,,,,,,,,,,,13,,48,48
11760,note_on,,0,0,11,,,,,,,,,,,,,,,,15,,70,48
11760,note_on,,1,0,6,,,,,,,,,,,,,,,,6,,64,65
11760,note_on,,0,0,11,,,,,,,,,,,,,,,,15,,64,48
11819,note_on,,0,0,11,,,,,,,,,,,,,,,,15,,64,0
11819,note_on,,0,0,11,,,,,,,,,,,,,,,,15,,70,0
11819,note_on,,59,0,11,,,,,,,,,,,,,,,,15,,55,0
11819,note_on,,0,0,11,,,,,,,,,,,,,,,,15,,48,0
11819,note_on,,59,0,10,,,,,,,,,,,,,,,,13,,48,0
11819,note_on,,59,0,6,,,,,,,,,,,,,,,,6,,64,0
11819,note_on,,0,0,11,,,,,,,,,,,,,,,,15,,60,0
11820,note_on,,1,0,6,,,,,,,,,,,,,,,,6,,65,64
11820,note_on,,0,0,11,,,,,,,,,,,,,,,,15,,53,48
11820,note_on,,1,0,10,,,,,,,,,,,,,,,,13,,41,48
11820,note_on,,0,0,11,,,,,,,,,,,,,,,,15,,60,48
11820,note_on,,0,0,11,,,,,,,,,,,,,,,,15,,68,48
11820,note_on,,1,0,11,,,,,,,,,,,,,,,,15,,41,48
11820,note_on,,0,0,11,,,,,,,,,,,,,,,,15,,65,48
11879,note_on,,0,0,11,,,,,,,,,,,,,,,,15,,60,0
11879,note_on,,59,0,6,,,,,,,,,,,,,,,,6,,65,0
11879,note_on,,59,0,11,,,,,,,,,,,,,,,,15,,41,0
11879,note_on,,0,0,11,,,,,,,,,,,,,,,,15,,68,0
11879,note_on,,59,0,10,,,,,,,,,,,,,,,,13,,41,0
11879,note_on,,0,0,11,,,,,,,,,,,,,,,,15,,53,0
11879,note_on,,0,0,11,,,,,,,,,,,,,,,,15,,65,0
11940,note_on,,541,0,7,,,,,,,,,,,,,,,,10,,77,48
11940,note_on,,541,0,9,,,,,,,,,,,,,,,,12,,72,48
11940,note_on,,541,0,8,,,,,,,,,,,,,,,,11,,68,48
11999,note_on,,59,0,8,,,,,,,,,,,,,,,,11,,68,0
11999,note_on,,59,0,7,,,,,,,,,,,,,,,,10,,77,0
11999,note_on,,59,0,9,,,,,,,,,,,,,,,,12,,72,0
12000,note_on,,1,0,8,,,,,,,,,,,,,,,,11,,67,48
12000,note_on,,1,0,9,,,,,,,,,,,,,,,,12,,70,48
12000,note_on,,1,0,7,,,,,,,,,,,,,,,,10,,76,48
12059,note_on,,59,0,8,,,,,,,,,,,,,,,,11,,67,0
12059,note_on,,59,0,9,,,,,,,,,,,,,,,,12,,70,0
12059,note_on,,59,0,7,,,,,,,,,,,,,,,,10,,76,0
12060,note_on,,1,0,9,,,,,,,,,,,,,,,,12,,68,48
12060,note_on,,1,0,7,,,,,,,,,,,,,,,,10,,77,48
12060,note_on,,1,0,8,,,,,,,,,,,,,,,,11,,65,48
12119,note_on,,59,0,9,,,,,,,,,,,,,,,,12,,68,0
12119,note_on,,59,0,7,,,,,,,,,,,,,,,,10,,77,0
12119,note_on,,59,0,8,,,,,,,,,,,,,,,,11,,65,0
12180,note_on,,0,0,11,,,,,,,,,,,,,,,,15,,67,48
12180,note_on,,301,0,6,,,,,,,,,,,,,,,,6,,67,64
12180,note_on,,301,0,10,,,,,,,,,,,,,,,,13,,58,48
12180,note_on,,0,0,11,,,,,,,,,,,,,,,,15,,58,48
12180,note_on,,301,0,11,,,,,,,,,,,,,,,,15,,62,48
12239,note_on,,0,0,11,,,,,,,,,,,,,,,,15,,58,0
12239,note_on,,59,0,11,,,,,,,,,,,,,,,,15,,62,0
12239,note_on,,0,0,11,,,,,,,,,,,,,,,,15,,67,0
12239,note_on,,59,0,10,,,,,,,,,,,,,,,,13,,58,0
12239,note_on,,59,0,6,,,,,,,,,,,,,,,,6,,67,0
12240,note_on,,1,0,10,,,,,,,,,,,,,,,,13,,57,48
12240,note_on,,1,0,11,,,,,,,,,,,,,,,,15,,60,48
12240,note_on,,0,0,11,,,,,,,,,,,,,,,,15,,66,48
12240,note_on,,0,0,11,,,,,,,,,,,,,,,,15,,57,48
12240,note_on,,0,0,11,,,,,,,,,,,,,,,,15,,69,48
12240,note_on,,1,0,6,,,,,,,,,,,,,,,,6,,66,62
12254,note_on,,14,0,6,,,,,,,,,,,,,,,,6,,66,0
12255,note_on,,1,0,6,,,,,,,,,,,,,,,,6,,67,61
12269,note_on,,14,0,6,,,,,,,,,,,,,,,,6,,67,0
12270,note_on,,1,0,6,,,,,,,,,,,,,,,,6,,66,61
12299,note_on,,0,0,11,,,,,,,,,,,,,,,,15,,69,0
12299,note_on,,0,0,11,,,,,,,,,,,,,,,,15,,66,0
12299,note_on,,0,0,11,,,,,,,,,,,,,,,,15,,57,0
12299,note_on,,29,0,6,,,,,,,,,,,,,,,,6,,66,0
12299,note_on,,59,0,11,,,,,,,,,,,,,,,,15,,60,0
12299,note_on,,59,0,10,,,,,,,,,,,,,,,,13,,57,0
12300,note_on,,0,0,11,,,,,,,,,,,,,,,,15,,62,48
12300,note_on,,0,0,11,,,,,,,,,,,,,,,,15,,70,48
12300,note_on,,1,0,6,,,,,,,,,,,,,,,,6,,67,63
12300,note_on,,1,0,10,,,,,,,,,,,,,,,,13,,55,48
12300,note_on,,1,0,11,,,,,,,,,,,,,,,,15,,67,48
12300,note_on,,0,0,11,,,,,,,,,,,,,,,,15,,55,48
12359,note_on,,59,0,11,,,,,,,,,,,,,,,,15,,67,0
12359,note_on,,0,0,11,,,,,,,,,,,,,,,,15,,70,0
12359,note_on,,0,0,11,,,,,,,,,,,,,,,,15,,62,0
12359,note_on,,0,0,11,,,,,,,,,,,,,,,,15,,55,0
12359,note_on,,59,0,6,,,,,,,,,,,,,,,,6,,67,0
12359,note_on,,59,0,10,,,,,,,,,,,,,,,,13,,55,0
12420,note_on,,301,0,8,,,,,,,,,,,,,,,,11,,70,48
12420,note_on,,301,0,7,,,,,,,,,,,,,,,,10,,79,48
12420,note_on,,301,0,9,,,,,,,,,,,,,,,,12,,74,48
12479,note_on,,59,0,9,,,,,,,,,,,,,,,,12,,74,0
12479,note_on,,59,0,7,,,,,,,,,,,,,,,,10,,79,0
12479,note_on,,59,0,8,,,,,,,,,,,,,,,,11,,70,0
12480,note_on,,1,0,8,,,,,,,,,,,,,,,,11,,69,48
12480,note_on,,1,0,7,,,,,,,,,,,,,,,,10,,78,48
12480,note_on,,1,0,9,,,,,,,,,,,,,,,,12,,72,48
12539,note_on,,59,0,8,,,,,,,,,,,,,,,,11,,69,0
12539,note_on,,59,0,7,,,,,,,,,,,,,,,,10,,78,0
12539,note_on,,59,0,9,,,,,,,,,,,,,,,,12,,72,0
12540,note_on,,1,0,8,,,,,,,,,,,,,,,,11,,67,48
12540,note_on,,1,0,9,,,,,,,,,,,,,,,,12,,70,48
12540,note_on,,1,0,7,,,,,,,,,,,,,,,,10,,79,48
12599,note_on,,59,0,8,,,,,,,,,,,,,,,,11,,67,0
12599,note_on,,59,0,9,,,,,,,,,,,,,,,,12,,70,0
12599,note_on,,59,0,7,,,,,,,,,,,,,,,,10,,79,0
12660,note_on,,0,0,11,,,,,,,,,,,,,,,,15,,55,48
12660,note_on,,0,0,11,,,,,,,,,,,,,,,,15,,67,48
12660,note_on,,301,0,6,,,,,,,,,,,,,,,,6,,70,66
12660,note_on,,301,0,10,,,,,,,,,,,,,,,,13,,55,48
12660,note_on,,0,0,11,,,,,,,,,,,,,,,,15,,70,48
12660,note_on,,301,0,11,,,,,,,,,,,,,,,,15,,62,48
12719,note_on,,0,0,11,,,,,,,,,,,,,,,,15,,67,0
12719,note_on,,0,0,11,,,,,,,,,,,,,,,,15,,70,0
12719,note_on,,0,0,11,,,,,,,,,,,,,,,,15,,55,0
12719,note_on,,59,0,11,,,,,,,,,,,,,,,,15,,62,0
12719,note_on,,59,0,10,,,,,,,,,,,,,,,,13,,55,0
12719,note_on,,59,0,6,,,,,,,,,,,,,,,,6,,70,0
12720,note_on,,121,0,7,,,,,,,,,,,,,,,,10,,76,48
12720,note_on,,121,0,8,,,,,,,,,,,,,,,,11,,70,48
12720,note_on,,0,0,11,,,,,,,,,,,,,,,,15,,48,48
12720,note_on,,1,0,6,,,,,,,,,,,,,,,,6,,70,64
12720,note_on,,1,0,11,,,,,,,,,,,,,,,,15,,67,48
12720,note_on,,0,0,11,,,,,,,,,,,,,,,,15,,64,48
12720,note_on,,0,0,11,,,,,,,,,,,,,,,,15,,70,48
12720,note_on,,121,0,9,,,,,,,,,,,,,,,,12,,67,48
12720,note_on,,0,0,11,,,,,,,,,,,,,,,,15,,60,48
12720,note_on,,1,0,10,,,,,,,,,,,,,,,,13,,48,48
12720,note_on,,0,0,11,,,,,,,,,,,,,,,,15,,55,48
12899,note_on,,179,0,6,,,,,,,,,,,,,,,,6,,70,0
12900,note_on,,1,0,6,,,,,,,,,,,,,,,,6,,67,67
12944,note_on,,44,0,6,,,,,,,,,,,,,,,,6,,67,0
12945,note_on,,1,0,6,,,,,,,,,,,,,,,,6,,70,66
12959,note_on,,239,0,10,,,,,,,,,,,,,,,,13,,48,0
12959,note_on,,0,0,11,,,,,,,,,,,,,,,,15,,64,0
12959,note_on,,0,0,11,,,,,,,,,,,,,,,,15,,70,0
12959,note_on,,0,0,11,,,,,,,,,,,,,,,,15,,60,0
12959,note_on,,14,0,6,,,,,,,,,,,,,,,,6,,70,0
12959,note_on,,0,0,11,,,,,,,,,,,,,,,,15,,48,0
12959,note_on,,239,0,11,,,,,,,,,,,,,,,,15,,67,0
12959,note_on,,239,0,8,,,,,,,,,,,,,,,,11,,70,0
12959,note_on,,239,0,7,,,,,,,,,,,,,,,,10,,76,0
12959,note_on,,0,0,11,,,,,,,,,,,,,,,,15,,55,0
12959,note_on,,239,0,9,,,,,,,,,,,,,,,,12,,67,0
12960,note_on,,0,0,11,,,,,,,,,,,,,,,,15,,68,48
12960,note_on,,1,0,8,,,,,,,,,,,,,,,,11,,68,48
12960,note_on,,1,0,10,,,,,,,,,,,,,,,,13,,53,48
12960,note_on,,1,0,9,,,,,,,,,,,,,,,,12,,65,48
12960,note_on,,1,0,11,,,,,,,,,,,,,,,,15,,53,48
12960,note_on,,1,0,6,,,,,,,,,,,,,,,,6,,68,62
12960,note_on,,0,0,11,,,,,,,,,,,,,,,,15,,60,48
12960,note_on,,1,0,7,,,,,,,,,,,,,,,,10,,77,48
12960,note_on,,0,0,11,,,,,,,,,,,,,,,,15,,65,48
12989,note_on,,29,0,6,,,,,,,,,,,,,,,,6,,68,0
12990,note_on,,1,0,6,,,,,,,,,,,,,,,,6,,67,61
13019,note_on,,29,0,6,,,,,,,,,,,,,,,,6,,67,0
13020,note_on,,1,0,6,,,,,,,,,,,,,,,,6,,68,65
13079,note_on,,59,0,6,,,,,,,,,,,,,,,,6,,68,0
13079,note_on,,119,0,11,,,,,,,,,,,,,,,,15,,68,0
13079,note_on,,0,0,11,,,,,,,,,,,,,,,,15,,65,0
13079,note_on,,0,0,11,,,,,,,,,,,,,,,,15,,60,0
13080,note_on,,0,0,11,,,,,,,,,,,,,,,,15,,72,48
13080,note_on,,0,0,11,,,,,,,,,,,,,,,,15,,68,48
13080,note_on,,1,0,11,,,,,,,,,,,,,,,,15,,65,48
13080,note_on,,1,0,6,,,,,,,,,,,,,,,,6,,65,63
13139,note_on,,0,0,11,,,,,,,,,,,,,,,,15,,68,0
13139,note_on,,59,0,6,,,,,,,,,,,,,,,,6,,65,0
13139,note_on,,59,0,11,,,,,,,,,,,,,,,,15,,65,0
13140,note_on,,1,0,11,,,,,,,,,,,,,,,,15,,67,48
13140,note_on,,1,0,6,,,,,,,,,,,,,,,,6,,67,60
13140,note_on,,0,0,11,,,,,,,,,,,,,,,,15,,63,48
13199,note_on,,59,0,6,,,,,,,,,,,,,,,,6,,67,0
13199,note_on,,239,0,7,,,,,,,,,,,,,,,,10,,77,0
13199,note_on,,59,0,11,,,,,,,,,,,,,,,,15,,53,0
13199,note_on,,0,0,11,,,,,,,,,,,,,,,,15,,72,0
13199,note_on,,0,0,11,,,,,,,,,,,,,,,,15,,67,0
13199,note_on,,0,0,11,,,,,,,,,,,,,,,,15,,63,0
13199,note_on,,239,0,10,,,,,,,,,,,,,,,,13,,53,0
13200,note_on,,0,0,11,,,,,,,,,,,,,,,,15,,62,48
13200,note_on,,1,0,11,,,,,,,,,,,,,,,,15,,70,48
13200,note_on,,0,0,11,,,,,,,,,,,,,,,,15,,65,48
13200,note_on,,0,0,11,,,,,,,,,,,,,,,,15,,53,48
13200,note_on,,0,0,11,,,,,,,,,,,,,,,,15,,46,48
13200,note_on,,1,0,6,,,,,,,,,,,,,,,,6,,68,65
13200,note_on,,1,0,7,,,,,,,,,,,,,,,,10,,74,48
13200,note_on,,1,0,10,,,,,,,,,,,,,,,,13,,46,48
13259,note_on,,59,0,11,,,,,,,,,,,,,,,,15,,65,0
13259,note_on,,0,0,11,,,,,,,,,,,,,,,,15,,62,0
13260,note_on,,1,0,11,,,,,,,,,,,,,,,,15,,63,48
13260,note_on,,0,0,11,,,,,,,,,,,,,,,,15,,60,48
13319,note_on,,359,0,9,,,,,,,,,,,,,,,,12,,65,0
13319,note_on,,119,0,6,,,,,,,,,,,,,,,,6,,68,0
13319,note_on,,59,0,11,,,,,,,,,,,,,,,,15,,63,0
13319,note_on,,0,0,11,,,,,,,,,,,,,,,,15,,60,0
13320,note_on,,1,0,6,,,,,,,,,,,,,,,,6,,67,64
13320,note_on,,1,0,9,,,,,,,,,,,,,,,,12,,58,48
13320,note_on,,0,0,11,,,,,,,,,,,,,,,,15,,62,48
13320,note_on,,1,0,11,,,,,,,,,,,,,,,,15,,58,48
13379,note_on,,59,0,6,,,,,,,,,,,,,,,,6,,67,0
13379,note_on,,0,0,11,,,,,,,,,,,,,,,,15,,62,0
13379,note_on,,59,0,11,,,,,,,,,,,,,,,,15,,70,0
13380,note_on,,0,0,11,,,,,,,,,,,,,,,,15,,65,48
13380,note_on,,1,0,11,,,,,,,,,,,,,,,,15,,62,48
13380,note_on,,1,0,6,,,,,,,,,,,,,,,,6,,65,61
13424,note_on,,44,0,6,,,,,,,,,,,,,,,,6,,65,0
13425,note_on,,1,0,6,,,,,,,,,,,,,,,,6,,65,67
13439,note_on,,0,0,11,,,,,,,,,,,,,,,,15,,62,0
13439,note_on,,239,0,10,,,,,,,,,,,,,,,,13,,46,0
13439,note_on,,14,0,6,,,,,,,,,,,,,,,,6,,65,0
13439,note_on,,479,0,8,,,,,,,,,,,,,,,,11,,68,0
13439,note_on,,239,0,7,,,,,,,,,,,,,,,,10,,74,0
13439,note_on,,119,0,9,,,,,,,,,,,,,,,,12,,58,0
13439,note_on,,0,0,11,,,,,,,,,,,,,,,,15,,65,0
13439,note_on,,59,0,11,,,,,,,,,,,,,,,,15,,53,0
13439,note_on,,0,0,11,,,,,,,,,,,,,,,,15,,46,0
13439,note_on,,0,0,11,,,,,,,,,,,,,,,,15,,58,0
13440,note_on,,1,0,6,,,,,,,,,,,,,,,,6,,67,61
13440,note_on,,1,0,9,,,,,,,,,,,,,,,,12,,58,48
13440,note_on,,1,0,7,,,,,,,,,,,,,,,,10,,75,48
13440,note_on,,1,0,8,,,,,,,,,,,,,,,,11,,67,48
13440,note_on,,0,0,11,,,,,,,,,,,,,,,,15,,51,48
13440,note_on,,1,0,10,,,,,,,,,,,,,,,,13,,51,48
13440,note_on,,0,0,11,,,,,,,,,,,,,,,,15,,67,48
13440,note_on,,1,0,11,,,,,,,,,,,,,,,,15,,58,48
13440,note_on,,0,0,11,,,,,,,,,,,,,,,,15,,63,48
13559,note_on,,119,0,6,,,,,,,,,,,,,,,,6,,67,0
13559,note_on,,0,0,11,,,,,,,,,,,,,,,,15,,67,0
13559,note_on,,0,0,11,,,,,,,,,,,,,,,,15,,63,0
13559,note_on,,119,0,11,,,,,,,,,,,,,,,,15,,58,0
13560,note_on,,0,0,11,,,,,,,,,,,,,,,,15,,67,48
13560,note_on,,0,0,11,,,,,,,,,,,,,,,,15,,70,48
13560,note_on,,1,0,11,,,,,,,,,,,,,,,,15,,63,48
13619,note_on,,0,0,11,,,,,,,,,,,,,,,,15,,67,0
13619,note_on,,59,0,11,,,,,,,,,,,,,,,,15,,63,0
13620,note_on,,1,0,11,,,,,,,,,,,,,,,,15,,62,48
13620,note_on,,0,0,11,,,,,,,,,,,,,,,,15,,65,48
13620,note_on,,61,0,6,,,,,,,,,,,,,,,,6,,67,67
13679,note_on,,0,0,11,,,,,,,,,,,,,,,,15,,62,0
13679,note_on,,0,0,11,,,,,,,,,,,,,,,,15,,65,0
13679,note_on,,239,0,10,,,,,,,,,,,,,,,,13,,51,0
13679,note_on,,0,0,11,,,,,,,,,,,,,,,,15,,70,0
13679,note_on,,59,0,6,,,,,,,,,,,,,,,,6,,67,0
13679,note_on,,239,0,7,,,,,,,,,,,,,,,,10,,75,0
13679,note_on,,59,0,11,,,,,,,,,,,,,,,,15,,51,0
13679,note_on,,239,0,9,,,,,,,,,,,,,,,,12,,58,0
13680,note_on,,1,0,11,,,,,,,,,,,,,,,,15,,44,48
13680,note_on,,0,0,11,,,,,,,,,,,,,,,,15,,63,48
13680,note_on,,0,0,11,,,,,,,,,,,,,,,,15,,60,48
13680,note_on,,0,0,11,,,,,,,,,,,,,,,,15,,56,48
13680,note_on,,0,0,11,,,,,,,,,,,,,,,,15,,72,48
13680,note_on,,1,0,10,,,,,,,,,,,,,,,,13,,44,48
13680,note_on,,1,0,7,,,,,,,,,,,,,,,,10,,72,48
13680,note_on,,1,0,9,,,,,,,,,,,,,,,,12,,60,48
13680,note_on,,1,0,6,,,,,,,,,,,,,,,,6,,67,65
13799,note_on,,0,0,11,,,,,,,,,,,,,,,,15,,60,0
13799,note_on,,359,0,8,,,,,,,,,,,,,,,,11,,67,0
13799,note_on,,119,0,6,,,,,,,,,,,,,,,,6,,67,0
13799,note_on,,119,0,11,,,,,,,,,,,,,,,,15,,63,0
13800,note_on,,1,0,6,,,,,,,,,,,,,,,,6,,65,62
13800,note_on,,1,0,8,,,,,,,,,,,,,,,,11,,65,48
13800,note_on,,0,0,11,,,,,,,,,,,,,,,,15,,68,48
13800,note_on,,1,0,11,,,,,,,,,,,,,,,,15,,60,48
13859,note_on,,59,0,6,,,,,,,,,,,,,,,,6,,65,0
13860,note_on,,1,0,6,,,,,,,,,,,,,,,,6,,63,63
13904,note_on,,44,0,6,,,,,,,,,,,,,,,,6,,63,0
13905,note_on,,1,0,6,,,,,,,,,,,,,,,,6,,63,60
13919,note_on,,14,0,6,,,,,,,,,,,,,,,,6,,63,0
13919,note_on,,119,0,8,,,,,,,,,,,,,,,,11,,65,0
13919,note_on,,239,0,9,,,,,,,,,,,,,,,,12,,60,0
13919,note_on,,119,0,11,,,,,,,,,,,,,,,,15,,44,0
13919,note_on,,0,0,11,,,,,,,,,,,,,,,,15,,56,0
13919,note_on,,0,0,11,,,,,,,,,,,,,,,,15,,72,0
13919,note_on,,0,0,11,,,,,,,,,,,,,,,,15,,60,0
13919,note_on,,239,0,7,,,,,,,,,,,,,,,,10,,72,0
13919,note_on,,239,0,10,,,,,,,,,,,,,,,,13,,44,0
13920,note_on,,1,0,11,,,,,,,,,,,,,,,,15,,62,48
13920,note_on,,0,0,11,,,,,,,,,,,,,,,,15,,70,48
13920,note_on,,1,0,8,,,,,,,,,,,,,,,,11,,65,48
13920,note_on,,0,0,11,,,,,,,,,,,,,,,,15,,46,48
13920,note_on,,0,0,11,,,,,,,,,,,,,,,,15,,53,48
13920,note_on,,1,0,10,,,,,,,,,,,,,,,,13,,46,48
13920,note_on,,1,0,9,,,,,,,,,,,,,,,,12,,62,48
13920,note_on,,1,0,6,,,,,,,,,,,,,,,,6,,62,67
13920,note_on,,1,0,7,,,,,,,,,,,,,,,,10,,70,48
13949,note_on,,29,0,6,,,,,,,,,,,,,,,,6,,62,0
13950,note_on,,1,0,6,,,,,,,,,,,,,,,,6,,60,65
13979,note_on,,29,0,6,,,,,,,,,,,,,,,,6,,60,0
13980,note_on,,1,0,6,,,,,,,,,,,,,,,,6,,58,61
14039,note_on,,59,0,6,,,,,,,,,,,,,,,,6,,58,0
14040,note_on,,1,0,6,,,,,,,,,,,,,,,,6,,70,67
14069,note_on,,29,0,6,,,,,,,,,,,,,,,,6,,70,0
14070,note_on,,1,0,6,,,,,,,,,,,,,,,,6,,68,66
14084,note_on,,14,0,6,,,,,,,,,,,,,,,,6,,68,0
14085,note_on,,1,0,6,,,,,,,,,,,,,,,,6,,67,64
14099,note_on,,14,0,6,,,,,,,,,,,,,,,,6,,67,0
14100,note_on,,1,0,6,,,,,,,,,,,,,,,,6,,65,61
14159,note_on,,239,0,8,,,,,,,,,,,,,,,,11,,65,0
14159,note_on,,239,0,9,,,,,,,,,,,,,,,,12,,62,0
14159,note_on,,59,0,6,,,,,,,,,,,,,,,,6,,65,0
14159,note_on,,239,0,11,,,,,,,,,,,,,,,,15,,68,0
14159,note_on,,0,0,11,,,,,,,,,,,,,,,,15,,70,0
14159,note_on,,0,0,11,,,,,,,,,,,,,,,,15,,53,0
14159,note_on,,0,0,11,,,,,,,,,,,,,,,,15,,62,0
14160,note_on,,0,0,11,,,,,,,,,,,,,,,,15,,58,48
14160,note_on,,1,0,8,,,,,,,,,,,,,,,,11,,66,48
14160,note_on,,1,0,11,,,,,,,,,,,,,,,,15,,51,48
14160,note_on,,0,0,11,,,,,,,,,,,,,,,,15,,66,48
14160,note_on,,1,0,6,,,,,,,,,,,,,,,,6,,66,61
14160,note_on,,1,0,9,,,,,,,,,,,,,,,,12,,63,48
14160,note_on,,0,0,11,,,,,,,,,,,,,,,,15,,63,48
14160,note_on,,0,0,11,,,,,,,,,,,,,,,,15,,70,48
14219,note_on,,59,0,6,,,,,,,,,,,,,,,,6,,66,0
14220,note_on,,1,0,6,,,,,,,,,,,,,,,,6,,62,66
14279,note_on,,59,0,6,,,,,,,,,,,,,,,,6,,62,0
14280,note_on,,1,0,6,,,,,,,,,,,,,,,,6,,63,63
14339,note_on,,179,0,11,,,,,,,,,,,,,,,,15,,51,0
14339,note_on,,179,0,8,,,,,,,,,,,,,,,,11,,66,0
14339,note_on,,0,0,11,,,,,,,,,,,,,,,,15,,66,0
14339,note_on,,0,0,11,,,,,,,,,,,,,,,,15,,58,0
14339,note_on,,0,0,11,,,,,,,,,,,,,,,,15,,63,0
14339,note_on,,179,0,9,,,,,,,,,,,,,,,,12,,63,0
14339,note_on,,59,0,6,,,,,,,,,,,,,,,,6,,63,0
14340,note_on,,1,0,8,,,,,,,,,,,,,,,,11,,65,48
14340,note_on,,1,0,6,,,,,,,,,,,,,,,,6,,58,61
14340,note_on,,1,0,11,,,,,,,,,,,,,,,,15,,65,48
14340,note_on,,0,0,11,,,,,,,,,,,,,,,,15,,58,48
14340,note_on,,0,0,11,,,,,,,,,,,,,,,,15,,62,48
14340,note_on,,1,0,9,,,,,,,,,,,,,,,,12,,62,48
14399,note_on,,0,0,11,,,,,,,,,,,,,,,,15,,58,0
14399,note_on,,59,0,8,,,,,,,,,,,,,,,,11,,65,0
14399,note_on,,59,0,9,,,,,,,,,,,,,,,,12,,62,0
14399,note_on,,59,0,6,,,,,,,,,,,,,,,,6,,58,0
14399,note_on,,479,0,7,,,,,,,,,,,,,,,,10,,70,0
14399,note_on,,0,0,11,,,,,,,,,,,,,,,,15,,62,0
14399,note_on,,59,0,11,,,,,,,,,,,,,,,,15,,70,0
14399,note_on,,0,0,11,,,,,,,,,,,,,,,,15,,65,0
14400,note_on,,1,0,6,,,,,,,,,,,,,,,,6,,59,64
14400,note_on,,1,0,11,,,,,,,,,,,,,,,,15,,71,48
14400,note_on,,1,0,8,,,,,,,,,,,,,,,,11,,63,48
14400,note_on,,0,0,11,,,,,,,,,,,,,,,,15,,66,48
14400,note_on,,1,0,9,,,,,,,,,,,,,,,,12,,66,48
14400,note_on,,0,0,11,,,,,,,,,,,,,,,,15,,54,48
14400,note_on,,1,0,7,,,,,,,,,,,,,,,,10,,71,48
14400,note_on,,0,0,11,,,,,,,,,,,,,,,,15,,63,48
14519,note_on,,0,0,11,,,,,,,,,,,,,,,,15,,66,0
14519,note_on,,0,0,11,,,,,,,,,,,,,,,,15,,63,0
14519,note_on,,119,0,11,,,,,,,,,,,,,,,,15,,46,0
14519,note_on,,0,0,11,,,,,,,,,,,,,,,,15,,54,0
14519,note_on,,599,0,10,,,,,,,,,,,,,,,,13,,46,0
14519,note_on,,119,0,9,,,,,,,,,,,,,,,,12,,66,0
14520,note_on,,0,0,11,,,,,,,,,,,,,,,,15,,65,48
14520,note_on,,1,0,11,,,,,,,,,,,,,,,,15,,44,48
14520,note_on,,0,0,11,,,,,,,,,,,,,,,,15,,68,48
14520,note_on,,0,0,11,,,,,,,,,,,,,,,,15,,59,48
14520,note_on,,1,0,10,,,,,,,,,,,,,,,,13,,44,48
14520,note_on,,1,0,9,,,,,,,,,,,,,,,,12,,65,48
14579,note_on,,179,0,6,,,,,,,,,,,,,,,,6,,59,0
14580,note_on,,1,0,6,,,,,,,,,,,,,,,,6,,61,65
14609,note_on,,29,0,6,,,,,,,,,,,,,,,,6,,61,0
14610,note_on,,1,0,6,,,,,,,,,,,,,,,,6,,59,63
14639,note_on,,239,0,7,,,,,,,,,,,,,,,,10,,71,0
14639,note_on,,29,0,6,,,,,,,,,,,,,,,,6,,59,0
14639,note_on,,239,0,8,,,,,,,,,,,,,,,,11,,63,0
14639,note_on,,119,0,11,,,,,,,,,,,,,,,,15,,71,0
14639,note_on,,0,0,11,,,,,,,,,,,,,,,,15,,59,0
14639,note_on,,0,0,11,,,,,,,,,,,,,,,,15,,68,0
14639,note_on,,0,0,11,,,,,,,,,,,,,,,,15,,65,0
14640,note_on,,0,0,11,,,,,,,,,,,,,,,,15,,62,48
14640,note_on,,0,0,11,,,,,,,,,,,,,,,,15,,53,48
14640,note_on,,0,0,11,,,,,,,,,,,,,,,,15,,65,48
14640,note_on,,1,0,11,,,,,,,,,,,,,,,,15,,70,48
14640,note_on,,1,0,6,,,,,,,,,,,,,,,,6,,58,62
14640,note_on,,1,0,8,,,,,,,,,,,,,,,,11,,62,48
14640,note_on,,1,0,7,,,,,,,,,,,,,,,,10,,70,48
14759,note_on,,239,0,10,,,,,,,,,,,,,,,,13,,44,0
14759,note_on,,0,0,11,,,,,,,,,,,,,,,,15,,62,0
14759,note_on,,0,0,11,,,,,,,,,,,,,,,,15,,53,0
14759,note_on,,119,0,6,,,,,,,,,,,,,,,,6,,58,0
14759,note_on,,119,0,11,,,,,,,,,,,,,,,,15,,44,0
14759,note_on,,0,0,11,,,,,,,,,,,,,,,,15,,65,0
14759,note_on,,239,0,9,,,,,,,,,,,,,,,,12,,65,0
14759,note_on,,119,0,8,,,,,,,,,,,,,,,,11,,62,0
14760,note_on,,0,0,11,,,,,,,,,,,,,,,,15,,63,48
14760,note_on,,1,0,8,,,,,,,,,,,,,,,,11,,63,48
14760,note_on,,1,0,10,,,,,,,,,,,,,,,,13,,43,48
14760,note_on,,1,0,9,,,,,,,,,,,,,,,,12,,58,48
14760,note_on,,1,0,11,,,,,,,,,,,,,,,,15,,66,48
14760,note_on,,0,0,11,,,,,,,,,,,,,,,,15,,43,48
14760,note_on,,0,0,11,,,,,,,,,,,,,,,,15,,51,48
14820,note_on,,61,0,6,,,,,,,,,,,,,,,,6,,63,64
14879,note_on,,0,0,11,,,,,,,,,,,,,,,,15,,51,0
14879,note_on,,0,0,11,,,,,,,,,,,,,,,,15,,43,0
14879,note_on,,0,0,11,,,,,,,,,,,,,,,,15,,66,0
14879,note_on,,0,0,11,,,,,,,,,,,,,,,,15,,63,0
14879,note_on,,119,0,9,,,,,,,,,,,,,,,,12,,58,0
14879,note_on,,239,0,7,,,,,,,,,,,,,,,,10,,70,0
14879,note_on,,119,0,10,,,,,,,,,,,,,,,,13,,43,0
14879,note_on,,59,0,6,,,,,,,,,,,,,,,,6,,63,0
14879,note_on,,119,0,11,,,,,,,,,,,,,,,,15,,70,0
14880,note_on,,1,0,9,,,,,,,,,,,,,,,,12,,60,48
14880,note_on,,0,0,11,,,,,,,,,,,,,,,,15,,68,48
14880,note_on,,1,0,6,,,,,,,,,,,,,,,,6,,68,65
14880,note_on,,0,0,11,,,,,,,,,,,,,,,,15,,41,48
14880,note_on,,0,0,11,,,,,,,,,,,,,,,,15,,63,48
14880,note_on,,1,0,11,,,,,,,,,,,,,,,,15,,60,48
14880,note_on,,1,0,10,,,,,,,,,,,,,,,,13,,41,48
14880,note_on,,1,0,7,,,,,,,,,,,,,,,,10,,68,48
14880,note_on,,0,0,11,,,,,,,,,,,,,,,,15,,53,48
14999,note_on,,119,0,9,,,,,,,,,,,,,,,,12,,60,0
14999,note_on,,239,0,8,,,,,,,,,,,,,,,,11,,63,0
14999,note_on,,119,0,10,,,,,,,,,,,,,,,,13,,41,0
14999,note_on,,0,0,11,,,,,,,,,,,,,,,,15,,41,0
14999,note_on,,0,0,11,,,,,,,,,,,,,,,,15,,63,0
14999,note_on,,119,0,11,,,,,,,,,,,,,,,,15,,60,0
14999,note_on,,0,0,11,,,,,,,,,,,,,,,,15,,53,0
15000,note_on,,0,0,11,,,,,,,,,,,,,,,,15,,62,48
15000,note_on,,0,0,11,,,,,,,,,,,,,,,,15,,46,48
15000,note_on,,1,0,10,,,,,,,,,,,,,,,,13,,46,48
15000,note_on,,0,0,11,,,,,,,,,,,,,,,,15,,58,48
15000,note_on,,1,0,11,,,,,,,,,,,,,,,,15,,53,48
15000,note_on,,1,0,9,,,,,,,,,,,,,,,,12,,58,48
15000,note_on,,1,0,8,,,,,,,,,,,,,,,,11,,62,48
15059,note_on,,59,0,11,,,,,,,,,,,,,,,,15,,68,0
15059,note_on,,179,0,6,,,,,,,,,,,,,,,,6,,68,0
15059,note_on,,0,0,11,,,,,,,,,,,,,,,,15,,58,0
15059,note_on,,0,0,11,,,,,,,,,,,,,,,,15,,62,0
15060,note_on,,1,0,11,,,,,,,,,,,,,,,,15,,70,48
15060,note_on,,0,0,11,,,,,,,,,,,,,,,,15,,65,48
15060,note_on,,0,0,11,,,,,,,,,,,,,,,,15,,62,48
15060,note_on,,1,0,6,,,,,,,,,,,,,,,,6,,65,66
15119,note_on,,59,0,11,,,,,,,,,,,,,,,,15,,53,0
15119,note_on,,0,0,11,,,,,,,,,,,,,,,,15,,46,0
15119,note_on,,119,0,10,,,,,,,,,,,,,,,,13,,46,0
15119,note_on,,119,0,9,,,,,,,,,,,,,,,,12,,58,0
15119,note_on,,119,0,8,,,,,,,,,,,,,,,,11,,62,0
15119,note_on,,239,0,7,,,,,,,,,,,,,,,,10,,68,0
15119,note_on,,59,0,6,,,,,,,,,,,,,,,,6,,65,0
15119,note_on,,0,0,11,,,,,,,,,,,,,,,,15,,65,0
15119,note_on,,0,0,11,,,,,,,,,,,,,,,,15,,62,0
15120,note_on,,0,0,11,,,,,,,,,,,,,,,,15,,63,48
15120,note_on,,1,0,9,,,,,,,,,,,,,,,,12,,58,48
15120,note_on,,1,0,8,,,,,,,,,,,,,,,,11,,63,48
15120,note_on,,0,0,11,,,,,,,,,,,,,,,,15,,51,48
15120,note_on,,1,0,7,,,,,,,,,,,,,,,,10,,67,48
15120,note_on,,1,0,10,,,,,,,,,,,,,,,,13,,51,48
15120,note_on,,1,0,6,,,,,,,,,,,,,,,,6,,67,65
15120,note_on,,1,0,11,,,,,,,,,,,,,,,,15,,67,48
15149,note_on,,29,0,6,,,,,,,,,,,,,,,,6,,67,0
15150,note_on,,1,0,6,,,,,,,,,,,,,,,,6,,65,63
15164,note_on,,14,0,6,,,,,,,,,,,,,,,,6,,65,0
15165,note_on,,1,0,6,,,,,,,,,,,,,,,,6,,63,60
15179,note_on,,59,0,11,,,,,,,,,,,,,,,,15,,67,0
15179,note_on,,0,0,11,,,,,,,,,,,,,,,,15,,51,0
15179,note_on,,0,0,11,,,,,,,,,,,,,,,,15,,63,0
15179,note_on,,59,0,10,,,,,,,,,,,,,,,,13,,51,0
15179,note_on,,14,0,6,,,,,,,,,,,,,,,,6,,63,0
15180,note_on,,1,0,10,,,,,,,,,,,,,,,,13,,58,48
15180,note_on,,1,0,6,,,,,,,,,,,,,,,,6,,62,62
15180,note_on,,1,0,11,,,,,,,,,,,,,,,,15,,65,48
15180,note_on,,0,0,11,,,,,,,,,,,,,,,,15,,62,48
15180,note_on,,0,0,11,,,,,,,,,,,,,,,,15,,58,48
15239,note_on,,59,0,6,,,,,,,,,,,,,,,,6,,62,0
15239,note_on,,119,0,8,,,,,,,,,,,,,,,,11,,63,0
15239,note_on,,59,0,11,,,,,,,,,,,,,,,,15,,70,0
15239,note_on,,0,0,11,,,,,,,,,,,,,,,,15,,58,0
15239,note_on,,0,0,11,,,,,,,,,,,,,,,,15,,62,0
15239,note_on,,0,0,11,,,,,,,,,,,,,,,,15,,65,0
15239,note_on,,59,0,10,,,,,,,,,,,,,,,,13,,58,0
15239,note_on,,119,0,9,,,,,,,,,,,,,,,,12,,58,0
15239,note_on,,119,0,7,,,,,,,,,,,,,,,,10,,67,0
15240,note_on,,0,0,11,,,,,,,,,,,,,,,,15,,60,48
15240,note_on,,0,0,11,,,,,,,,,,,,,,,,15,,67,48
15240,note_on,,1,0,6,,,,,,,,,,,,,,,,6,,63,66
15240,note_on,,1,0,10,,,,,,,,,,,,,,,,13,,60,48
15240,note_on,,1,0,11,,,,,,,,,,,,,,,,15,,63,48
15299,note_on,,59,0,6,,,,,,,,,,,,,,,,6,,63,0
15299,note_on,,0,0,11,,,,,,,,,,,,,,,,15,,67,0
15299,note_on,,0,0,11,,,,,,,,,,,,,,,,15,,60,0
15299,note_on,,59,0,11,,,,,,,,,,,,,,,,15,,63,0
15299,note_on,,59,0,10,,,,,,,,,,,,,,,,13,,60,0
15300,note_on,,1,0,11,,,,,,,,,,,,,,,,15,,56,48
15300,note_on,,1,0,10,,,,,,,,,,,,,,,,13,,56,48
15300,note_on,,0,0,11,,,,,,,,,,,,,,,,15,,72,48
15300,note_on,,0,0,11,,,,,,,,,,,,,,,,15,,63,48
15300,note_on,,0,0,11,,,,,,,,,,,,,,,,15,,68,48
15300,note_on,,1,0,6,,,,,,,,,,,,,,,,6,,68,60
15359,note_on,,0,0,11,,,,,,,,,,,,,,,,15,,72,0
15359,note_on,,59,0,6,,,,,,,,,,,,,,,,6,,68,0
15359,note_on,,0,0,11,,,,,,,,,,,,,,,,15,,63,0
15359,note_on,,59,0,11,,,,,,,,,,,,,,,,15,,56,0
15359,note_on,,59,0,10,,,,,,,,,,,,,,,,13,,56,0
15359,note_on,,0,0,11,,,,,,,,,,,,,,,,15,,68,0
15360,note_on,,1,0,10,,,,,,,,,,,,,,,,13,,58,48
15360,note_on,,1,0,6,,,,,,,,,,,,,,,,6,,67,64
15360,note_on,,0,0,11,,,,,,,,,,,,,,,,15,,63,48
15360,note_on,,1,0,11,,,,,,,,,,,,,,,,15,,67,48
15360,note_on,,0,0,11,,,,,,,,,,,,,,,,15,,58,48
15360,note_on,,0,0,11,,,,,,,,,,,,,,,,15,,70,48
15419,note_on,,0,0,11,,,,,,,,,,,,,,,,15,,63,0
15419,note_on,,59,0,11,,,,,,,,,,,,,,,,15,,67,0
15420,note_on,,0,0,11,,,,,,,,,,,,,,,,15,,60,48
15420,note_on,,1,0,11,,,,,,,,,,,,,,,,15,,63,48
15479,note_on,,0,0,11,,,,,,,,,,,,,,,,15,,60,0
15479,note_on,,0,0,11,,,,,,,,,,,,,,,,15,,63,0
15479,note_on,,59,0,11,,,,,,,,,,,,,,,,15,,58,0
15479,note_on,,119,0,10,,,,,,,,,,,,,,,,13,,58,0
15479,note_on,,119,0,6,,,,,,,,,,,,,,,,6,,67,0
15480,note_on,,0,0,11,,,,,,,,,,,,,,,,15,,62,48
15480,note_on,,1,0,11,,,,,,,,,,,,,,,,15,,46,48
15480,note_on,,0,0,11,,,,,,,,,,,,,,,,15,,65,48
15480,note_on,,1,0,10,,,,,,,,,,,,,,,,13,,46,48
15480,note_on,,1,0,6,,,,,,,,,,,,,,,,6,,65,65
15494,note_on,,14,0,6,,,,,,,,,,,,,,,,6,,65,0
15495,note_on,,1,0,6,,,,,,,,,,,,,,,,6,,67,63
15509,note_on,,14,0,6,,,,,,,,,,,,,,,,6,,67,0
15510,note_on,,1,0,6,,,,,,,,,,,,,,,,6,,65,60
15524,note_on,,14,0,6,,,,,,,,,,,,,,,,6,,65,0
15525,note_on,,1,0,6,,,,,,,,,,,,,,,,6,,67,67
15539,note_on,,59,0,11,,,,,,,,,,,,,,,,15,,70,0
15539,note_on,,14,0,6,,,,,,,,,,,,,,,,6,,67,0
15540,note_on,,1,0,6,,,,,,,,,,,,,,,,6,,63,67
15540,note_on,,1,0,11,,,,,,,,,,,,,,,,15,,68,48
15554,note_on,,14,0,6,,,,,,,,,,,,,,,,6,,63,0
15555,note_on,,1,0,6,,,,,,,,,,,,,,,,6,,65,64
15569,note_on,,14,0,6,,,,,,,,,,,,,,,,6,,65,0
15570,note_on,,1,0,6,,,,,,,,,,,,,,,,6,,63,62
15599,note_on,,59,0,11,,,,,,,,,,,,,,,,15,,46,0
15599,note_on,,0,0,11,,,,,,,,,,,,,,,,15,,62,0
15599,note_on,,0,0,11,,,,,,,,,,,,,,,,15,,68,0
15599,note_on,,29,0,6,,,,,,,,,,,,,,,,6,,63,0
15599,note_on,,119,0,10,,,,,,,,,,,,,,,,13,,46,0
15599,note_on,,0,0,11,,,,,,,,,,,,,,,,15,,65,0
15600,note_on,,1,0,11,,,,,,,,,,,,,,,,15,,67,48
15600,note_on,,0,0,11,,,,,,,,,,,,,,,,15,,51,48
15600,note_on,,1,0,10,,,,,,,,,,,,,,,,13,,51,48
15600,note_on,,0,0,11,,,,,,,,,,,,,,,,15,,63,48
15600,note_on,,0,0,11,,,,,,,,,,,,,,,,15,,58,48
15600,note_on,,1,0,6,,,,,,,,,,,,,,,,6,,63,63
15719,note_on,,119,0,11,,,,,,,,,,,,,,,,15,,67,0
15719,note_on,,0,0,11,,,,,,,,,,,,,,,,15,,63,0
15719,note_on,,0,0,11,,,,,,,,,,,,,,,,15,,51,0
15719,note_on,,119,0,10,,,,,,,,,,,,,,,,13,,51,0
15719,note_on,,0,0,11,,,,,,,,,,,,,,,,15,,58,0
15719,note_on,,119,0,6,,,,,,,,,,,,,,,,6,,63,0
15900,note_on,,181,0,6,,,,,,,,,,,,,,,,6,,63,62
15959,note_on,,59,0,6,,,,,,,,,,,,,,,,6,,63,0
15960,note_on,,1,0,6,,,,,,,,,,,,,,,,6,,67,66
15989,note_on,,29,0,6,,,,,,,,,,,,,,,,6,,67,0
15990,note_on,,1,0,6,,,,,,,,,,,,,,,,6,,67,62
16004,note_on,,14,0,6,,,,,,,,,,,,,,,,6,,67,0
16005,note_on,,1,0,6,,,,,,,,,,,,,,,,6,,68,63
16019,note_on,,14,0,6,,,,,,,,,,,,,,,,6,,68,0
16020,note_on,,1,0,6,,,,,,,,,,,,,,,,6,,70,62
16064,note_on,,44,0,6,,,,,,,,,,,,,,,,6,,70,0
16065,note_on,,1,0,6,,,,,,,,,,,,,,,,6,,70,67
16079,note_on,,14,0,6,,,,,,,,,,,,,,,,6,,70,0
16080,note_on,,1,0,6,,,,,,,,,,,,,,,,6,,68,62
16139,note_on,,59,0,6,,,,,,,,,,,,,,,,6,,68,0
16140,note_on,,1,0,6,,,,,,,,,,,,,,,,6,,67,65
16199,note_on,,59,0,6,,,,,,,,,,,,,,,,6,,67,0
16260,note_on,,1021,0,8,,,,,,,,,,,,,,,,11,,79,48
16260,note_on,,1021,0,7,,,,,,,,,,,,,,,,10,,82,48
16319,note_on,,59,0,7,,,,,,,,,,,,,,,,10,,82,0
16319,note_on,,59,0,8,,,,,,,,,,,,,,,,11,,79,0
16320,note_on,,1,0,7,,,,,,,,,,,,,,,,10,,80,48
16320,note_on,,1,0,8,,,,,,,,,,,,,,,,11,,77,48
16379,note_on,,59,0,7,,,,,,,,,,,,,,,,10,,80,0
16379,note_on,,59,0,8,,,,,,,,,,,,,,,,11,,77,0
16380,note_on,,1,0,8,,,,,,,,,,,,,,,,11,,75,48
16380,note_on,,1,0,7,,,,,,,,,,,,,,,,10,,79,48
16439,note_on,,59,0,7,,,,,,,,,,,,,,,,10,,79,0
16439,note_on,,59,0,8,,,,,,,,,,,,,,,,11,,75,0
16470,note_on,,271,0,6,,,,,,,,,,,,,,,,6,,67,64
16484,note_on,,14,0,6,,,,,,,,,,,,,,,,6,,67,0
16485,note_on,,1,0,6,,,,,,,,,,,,,,,,6,,68,61
16499,note_on,,14,0,6,,,,,,,,,,,,,,,,6,,68,0
16500,note_on,,1,0,6,,,,,,,,,,,,,,,,6,,70,66
16544,note_on,,44,0,6,,,,,,,,,,,,,,,,6,,70,0
16545,note_on,,1,0,6,,,,,,,,,,,,,,,,6,,70,66
16559,note_on,,14,0,6,,,,,,,,,,,,,,,,6,,70,0
16560,note_on,,1,0,6,,,,,,,,,,,,,,,,6,,68,63
16619,note_on,,59,0,6,,,,,,,,,,,,,,,,6,,68,0
16620,note_on,,1,0,6,,,,,,,,,,,,,,,,6,,67,64
16679,note_on,,59,0,6,,,,,,,,,,,,,,,,6,,67,0
16740,note_on,,301,0,7,,,,,,,,,,,,,,,,10,,70,48
16740,note_on,,301,0,8,,,,,,,,,,,,,,,,11,,67,48
16799,note_on,,59,0,7,,,,,,,,,,,,,,,,10,,70,0
16799,note_on,,59,0,8,,,,,,,,,,,,,,,,11,,67,0
16800,note_on,,1,0,7,,,,,,,,,,,,,,,,10,,68,48
16800,note_on,,1,0,8,,,,,,,,,,,,,,,,11,,65,48
16859,note_on,,59,0,7,,,,,,,,,,,,,,,,10,,68,0
16859,note_on,,59,0,8,,,,,,,,,,,,,,,,11,,65,0
16860,note_on,,1,0,8,,,,,,,,,,,,,,,,11,,63,48
16860,note_on,,1,0,7,,,,,,,,,,,,,,,,10,,67,48
16919,note_on,,59,0,8,,,,,,,,,,,,,,,,11,,63,0
16919,note_on,,59,0,7,,,,,,,,,,,,,,,,10,,67,0
16980,note_on,,301,0,6,,,,,,,,,,,,,,,,6,,65,67
17039,note_on,,59,0,6,,,,,,,,,,,,,,,,6,,65,0
17040,note_on,,1801,0,9,,,,,,,,,,,,,,,,12,,63,48
17040,note_on,,1,0,6,,,,,,,,,,,,,,,,6,,66,60
17040,note_on,,1321,0,11,,,,,,,,,,,,,,,,15,,45,48
17040,note_on,,121,0,8,,,,,,,,,,,,,,,,11,,66,48
17040,note_on,,121,0,7,,,,,,,,,,,,,,,,10,,72,48
17040,note_on,,1321,0,10,,,,,,,,,,,,,,,,13,,45,48
17055,note_on,,15,0,11,,,,,,,,,,,,,,,,15,,51,48
17070,note_on,,15,0,11,,,,,,,,,,,,,,,,15,,57,48
17085,note_on,,15,0,11,,,,,,,,,,,,,,,,15,,60,48
17099,note_on,,59,0,6,,,,,,,,,,,,,,,,6,,66,0
17100,note_on,,15,0,11,,,,,,,,,,,,,,,,15,,63,48
17100,note_on,,1,0,6,,,,,,,,,,,,,,,,6,,62,67
17115,note_on,,15,0,11,,,,,,,,,,,,,,,,15,,66,48
17130,note_on,,15,0,11,,,,,,,,,,,,,,,,15,,72,48
17159,note_on,,59,0,6,,,,,,,,,,,,,,,,6,,62,0
17160,note_on,,1,0,6,,,,,,,,,,,,,,,,6,,63,64
17219,note_on,,59,0,6,,,,,,,,,,,,,,,,6,,63,0
17220,note_on,,1,0,6,,,,,,,,,,,,,,,,6,,65,60
17279,note_on,,59,0,6,,,,,,,,,,,,,,,,6,,65,0
17280,note_on,,1,0,6,,,,,,,,,,,,,,,,6,,66,64
17339,note_on,,59,0,6,,,,,,,,,,,,,,,,6,,66,0
17340,note_on,,1,0,6,,,,,,,,,,,,,,,,6,,62,61
17399,note_on,,59,0,6,,,,,,,,,,,,,,,,6,,62,0
17400,note_on,,1,0,6,,,,,,,,,,,,,,,,6,,63,66
17459,note_on,,59,0,6,,,,,,,,,,,,,,,,6,,63,0
17460,note_on,,1,0,6,,,,,,,,,,,,,,,,6,,65,65
17519,note_on,,59,0,6,,,,,,,,,,,,,,,,6,,65,0
17520,note_on,,1,0,6,,,,,,,,,,,,,,,,6,,66,65
17624,note_on,,104,0,6,,,,,,,,,,,,,,,,6,,66,0
17625,note_on,,1,0,6,,,,,,,,,,,,,,,,6,,66,61
17639,note_on,,14,0,6,,,,,,,,,,,,,,,,6,,66,0
17640,note_on,,1,0,6,,,,,,,,,,,,,,,,6,,65,66
17684,note_on,,44,0,6,,,,,,,,,,,,,,,,6,,65,0
17685,note_on,,1,0,6,,,,,,,,,,,,,,,,6,,65,60
17699,note_on,,14,0,6,,,,,,,,,,,,,,,,6,,65,0
17700,note_on,,1,0,6,,,,,,,,,,,,,,,,6,,63,60
17744,note_on,,44,0,6,,,,,,,,,,,,,,,,6,,63,0
17745,note_on,,1,0,6,,,,,,,,,,,,,,,,6,,63,65
17759,note_on,,719,0,8,,,,,,,,,,,,,,,,11,,66,0
17759,note_on,,0,0,11,,,,,,,,,,,,,,,,15,,66,0
17759,note_on,,0,0,11,,,,,,,,,,,,,,,,15,,63,0
17759,note_on,,0,0,11,,,,,,,,,,,,,,,,15,,60,0
17759,note_on,,0,0,11,,,,,,,,,,,,,,,,15,,57,0
17759,note_on,,0,0,11,,,,,,,,,,,,,,,,15,,51,0
17759,note_on,,629,0,11,,,,,,,,,,,,,,,,15,,45,0
17759,note_on,,719,0,9,,,,,,,,,,,,,,,,12,,63,0
17759,note_on,,719,0,7,,,,,,,,,,,,,,,,10,,72,0
17759,note_on,,719,0,10,,,,,,,,,,,,,,,,13,,45,0
17759,note_on,,14,0,6,,,,,,,,,,,,,,,,6,,63,0
17759,note_on,,0,0,11,,,,,,,,,,,,,,,,15,,72,0
17760,note_on,,1,0,9,,,,,,,,,,,,,,,,12,,62,48
17760,note_on,,1,0,11,,,,,,,,,,,,,,,,15,,58,48
17760,note_on,,0,0,11,,,,,,,,,,,,,,,,15,,53,48
17760,note_on,,0,0,11,,,,,,,,,,,,,,,,15,,44,48
17760,note_on,,0,0,11,,,,,,,,,,,,,,,,15,,62,48
17760,note_on,,1,0,6,,,,,,,,,,,,,,,,6,,62,62
17760,note_on,,1,0,8,,,,,,,,,,,,,,,,11,,65,48
17760,note_on,,1,0,7,,,,,,,,,,,,,,,,10,,70,48
17760,note_on,,0,0,11,,,,,,,,,,,,,,,,15,,65,48
17760,note_on,,1,0,10,,,,,,,,,,,,,,,,13,,44,48
17879,note_on,,0,0,11,,,,,,,,,,,,,,,,15,,44,0
17879,note_on,,0,0,11,,,,,,,,,,,,,,,,15,,65,0
17879,note_on,,0,0,11,,,,,,,,,,,,,,,,15,,62,0
17879,note_on,,0,0,11,,,,,,,,,,,,,,,,15,,53,0
17879,note_on,,119,0,7,,,,,,,,,,,,,,,,10,,70,0
17879,note_on,,119,0,9,,,,,,,,,,,,,,,,12,,62,0
17879,note_on,,119,0,10,,,,,,,,,,,,,,,,13,,44,0
17879,note_on,,119,0,8,,,,,,,,,,,,,,,,11,,65,0
17879,note_on,,119,0,6,,,,,,,,,,,,,,,,6,,62,0
17879,note_on,,119,0,11,,,,,,,,,,,,,,,,15,,58,0
17880,note_on,,1,0,6,,,,,,,,,,,,,,,,6,,63,67
17880,note_on,,1,0,10,,,,,,,,,,,,,,,,13,,43,48
17880,note_on,,1,0,11,,,,,,,,,,,,,,,,15,,43,48
17880,note_on,,0,0,11,,,,,,,,,,,,,,,,15,,58,48
17880,note_on,,0,0,11,,,,,,,,,,,,,,,,15,,63,48
17880,note_on,,0,0,11,,,,,,,,,,,,,,,,15,,55,48
17939,note_on,,59,0,11,,,,,,,,,,,,,,,,15,,43,0
17939,note_on,,0,0,11,,,,,,,,,,,,,,,,15,,58,0
17939,note_on,,0,0,11,,,,,,,,,,,,,,,,15,,55,0
17939,note_on,,59,0,10,,,,,,,,,,,,,,,,13,,43,0
17939,note_on,,59,0,6,,,,,,,,,,,,,,,,6,,63,0
17940,note_on,,1,0,6,,,,,,,,,,,,,,,,6,,68,62
17940,note_on,,1,0,10,,,,,,,,,,,,,,,,13,,48,48
17940,note_on,,0,0,11,,,,,,,,,,,,,,,,15,,51,48
17940,note_on,,0,0,11,,,,,,,,,,,,,,,,15,,56,48
17940,note_on,,1,0,11,,,,,,,,,,,,,,,,15,,48,48
17999,note_on,,0,0,11,,,,,,,,,,,,,,,,15,,56,0
17999,note_on,,0,0,11,,,,,,,,,,,,,,,,15,,48,0
17999,note_on,,59,0,11,,,,,,,,,,,,,,,,15,,63,0
17999,note_on,,59,0,10,,,,,,,,,,,,,,,,13,,48,0
17999,note_on,,0,0,11,,,,,,,,,,,,,,,,15,,51,0
17999,note_on,,59,0,6,,,,,,,,,,,,,,,,6,,68,0
18000,note_on,,1,0,11,,,,,,,,,,,,,,,,15,,51,48
18000,note_on,,1,0,6,,,,,,,,,,,,,,,,6,,67,62
18000,note_on,,1,0,10,,,,,,,,,,,,,,,,13,,46,48
18000,note_on,,0,0,11,,,,,,,,,,,,,,,,15,,63,48
18000,note_on,,0,0,11,,,,,,,,,,,,,,,,15,,58,48
18000,note_on,,0,0,11,,,,,,,,,,,,,,,,15,,55,48
18000,note_on,,0,0,11,,,,,,,,,,,,,,,,15,,46,48
18059,note_on,,59,0,11,,,,,,,,,,,,,,,,15,,55,0
18060,note_on,,1,0,11,,,,,,,,,,,,,,,,15,,56,48
18119,note_on,,0,0,11,,,,,,,,,,,,,,,,15,,58,0
18119,note_on,,59,0,11,,,,,,,,,,,,,,,,15,,51,0
18119,note_on,,0,0,11,,,,,,,,,,,,,,,,15,,56,0
18119,note_on,,119,0,6,,,,,,,,,,,,,,,,6,,67,0
18120,note_on,,1,0,6,,,,,,,,,,,,,,,,6,,67,61
18120,note_on,,0,0,11,,,,,,,,,,,,,,,,15,,53,48
18120,note_on,,1,0,11,,,,,,,,,,,,,,,,15,,58,48
18134,note_on,,14,0,6,,,,,,,,,,,,,,,,6,,67,0
18135,note_on,,1,0,6,,,,,,,,,,,,,,,,6,,65,65
18149,note_on,,14,0,6,,,,,,,,,,,,,,,,6,,65,0
18150,note_on,,1,0,6,,,,,,,,,,,,,,,,6,,63,66
18164,note_on,,14,0,6,,,,,,,,,,,,,,,,6,,63,0
18165,note_on,,1,0,6,,,,,,,,,,,,,,,,6,,65,65
18179,note_on,,0,0,11,,,,,,,,,,,,,,,,15,,63,0
18179,note_on,,59,0,11,,,,,,,,,,,,,,,,15,,46,0
18179,note_on,,179,0,10,,,,,,,,,,,,,,,,13,,46,0
18180,note_on,,0,0,11,,,,,,,,,,,,,,,,15,,62,48
18180,note_on,,1,0,11,,,,,,,,,,,,,,,,15,,46,48
18180,note_on,,1,0,10,,,,,,,,,,,,,,,,13,,46,48
18209,note_on,,44,0,6,,,,,,,,,,,,,,,,6,,65,0
18210,note_on,,1,0,6,,,,,,,,,,,,,,,,6,,63,64
18239,note_on,,29,0,6,,,,,,,,,,,,,,,,6,,63,0
18239,note_on,,0,0,11,,,,,,,,,,,,,,,,15,,62,0
18239,note_on,,0,0,11,,,,,,,,,,,,,,,,15,,53,0
18239,note_on,,0,0,11,,,,,,,,,,,,,,,,15,,46,0
18239,note_on,,59,0,11,,,,,,,,,,,,,,,,15,,58,0
18239,note_on,,59,0,10,,,,,,,,,,,,,,,,13,,46,0
18240,note_on,,1,0,6,,,,,,,,,,,,,,,,6,,63,65
18240,note_on,,1,0,10,,,,,,,,,,,,,,,,13,,39,48
18240,note_on,,0,0,11,,,,,,,,,,,,,,,,15,,63,48
18240,note_on,,0,0,11,,,,,,,,,,,,,,,,15,,58,48
18240,note_on,,1,0,11,,,,,,,,,,,,,,,,15,,55,48
18240,note_on,,0,0,11,,,,,,,,,,,,,,,,15,,39,48
18359,note_on,,119,0,11,,,,,,,,,,,,,,,,15,,55,0
18359,note_on,,0,0,11,,,,,,,,,,,,,,,,15,,58,0
18360,note_on,,1,0,11,,,,,,,,,,,,,,,,15,,51,48
18360,note_on,,0,0,11,,,,,,,,,,,,,,,,15,,55,48
18419,note_on,,59,0,11,,,,,,,,,,,,,,,,15,,51,0
18419,note_on,,0,0,11,,,,,,,,,,,,,,,,15,,55,0
18420,note_on,,541,0,8,,,,,,,,,,,,,,,,11,,72,48
18420,note_on,,541,0,7,,,,,,,,,,,,,,,,10,,75,48
18420,note_on,,0,0,11,,,,,,,,,,,,,,,,15,,53,48
18420,note_on,,1,0,11,,,,,,,,,,,,,,,,15,,56,48
18479,note_on,,59,0,11,,,,,,,,,,,,,,,,15,,56,0
18479,note_on,,59,0,7,,,,,,,,,,,,,,,,10,,75,0
18479,note_on,,0,0,11,,,,,,,,,,,,,,,,15,,53,0
18479,note_on,,59,0,8,,,,,,,,,,,,,,,,11,,72,0
18480,note_on,,1,0,11,,,,,,,,,,,,,,,,15,,55,48
18480,note_on,,1,0,7,,,,,,,,,,,,,,,,10,,73,48
18480,note_on,,0,0,11,,,,,,,,,,,,,,,,15,,58,48
18480,note_on,,1,0,8,,,,,,,,,,,,,,,,11,,70,48
18494,note_on,,14,0,8,,,,,,,,,,,,,,,,11,,70,0
18494,note_on,,14,0,7,,,,,,,,,,,,,,,,10,,73,0
18495,note_on,,1,0,7,,,,,,,,,,,,,,,,10,,75,48
18495,note_on,,1,0,8,,,,,,,,,,,,,,,,11,,72,48
18509,note_on,,14,0,7,,,,,,,,,,,,,,,,10,,75,0
18509,note_on,,14,0,8,,,,,,,,,,,,,,,,11,,72,0
18510,note_on,,1,0,7,,,,,,,,,,,,,,,,10,,72,48
18510,note_on,,1,0,8,,,,,,,,,,,,,,,,11,,68,48
18524,note_on,,14,0,7,,,,,,,,,,,,,,,,10,,72,0
18524,note_on,,14,0,8,,,,,,,,,,,,,,,,11,,68,0
18525,note_on,,1,0,7,,,,,,,,,,,,,,,,10,,73,48
18525,note_on,,1,0,8,,,,,,,,,,,,,,,,11,,70,48
18539,note_on,,14,0,7,,,,,,,,,,,,,,,,10,,73,0
18539,note_on,,14,0,8,,,,,,,,,,,,,,,,11,,70,0
18539,note_on,,59,0,11,,,,,,,,,,,,,,,,15,,55,0
18539,note_on,,0,0,11,,,,,,,,,,,,,,,,15,,58,0
18540,note_on,,1,0,7,,,,,,,,,,,,,,,,10,,72,48
18540,note_on,,1,0,8,,,,,,,,,,,,,,,,11,,68,48
18540,note_on,,1,0,11,,,,,,,,,,,,,,,,15,,60,48
18540,note_on,,0,0,11,,,,,,,,,,,,,,,,15,,56,48
18599,note_on,,59,0,7,,,,,,,,,,,,,,,,10,,72,0
18599,note_on,,59,0,11,,,,,,,,,,,,,,,,15,,63,0
18599,note_on,,0,0,11,,,,,,,,,,,,,,,,15,,60,0
18599,note_on,,0,0,11,,,,,,,,,,,,,,,,15,,56,0
18599,note_on,,59,0,8,,,,,,,,,,,,,,,,11,,68,0
18660,note_on,,61,0,7,,,,,,,,,,,,,,,,10,,73,48
18660,note_on,,61,0,11,,,,,,,,,,,,,,,,15,,67,48
18660,note_on,,0,0,11,,,,,,,,,,,,,,,,15,,58,48
18660,note_on,,0,0,11,,,,,,,,,,,,,,,,15,,61,48
18660,note_on,,61,0,8,,,,,,,,,,,,,,,,11,,70,48
18719,note_on,,0,0,11,,,,,,,,,,,,,,,,15,,61,0
18719,note_on,,59,0,7,,,,,,,,,,,,,,,,10,,73,0
18719,note_on,,59,0,11,,,,,,,,,,,,,,,,15,,67,0
18719,note_on,,59,0,8,,,,,,,,,,,,,,,,11,,70,0
18719,note_on,,0,0,11,,,,,,,,,,,,,,,,15,,58,0
18720,note_on,,0,0,11,,,,,,,,,,,,,,,,15,,68,48
18720,note_on,,1,0,8,,,,,,,,,,,,,,,,11,,68,48
18720,note_on,,1,0,7,,,,,,,,,,,,,,,,10,,72,48
18720,note_on,,0,0,11,,,,,,,,,,,,,,,,15,,60,48
18720,note_on,,1,0,11,,,,,,,,,,,,,,,,15,,63,48
18734,note_on,,14,0,8,,,,,,,,,,,,,,,,11,,68,0
18734,note_on,,14,0,7,,,,,,,,,,,,,,,,10,,72,0
18735,note_on,,1,0,8,,,,,,,,,,,,,,,,11,,70,48
18735,note_on,,1,0,7,,,,,,,,,,,,,,,,10,,74,48
18749,note_on,,14,0,8,,,,,,,,,,,,,,,,11,,70,0
18749,note_on,,14,0,7,,,,,,,,,,,,,,,,10,,74,0
18750,note_on,,1,0,7,,,,,,,,,,,,,,,,10,,70,48
18750,note_on,,1,0,8,,,,,,,,,,,,,,,,11,,67,48
18764,note_on,,14,0,7,,,,,,,,,,,,,,,,10,,70,0
18764,note_on,,14,0,8,,,,,,,,,,,,,,,,11,,67,0
18765,note_on,,1,0,8,,,,,,,,,,,,,,,,11,,68,48
18765,note_on,,1,0,7,,,,,,,,,,,,,,,,10,,72,48
18779,note_on,,14,0,8,,,,,,,,,,,,,,,,11,,68,0
18779,note_on,,14,0,7,,,,,,,,,,,,,,,,10,,72,0
18779,note_on,,59,0,11,,,,,,,,,,,,,,,,15,,63,0
18779,note_on,,0,0,11,,,,,,,,,,,,,,,,15,,68,0
18779,note_on,,0,0,11,,,,,,,,,,,,,,,,15,,60,0
18780,note_on,,0,0,11,,,,,,,,,,,,,,,,15,,63,48
18780,note_on,,1,0,8,,,,,,,,,,,,,,,,11,,67,48
18780,note_on,,1,0,7,,,,,,,,,,,,,,,,10,,70,48
18780,note_on,,1,0,11,,,,,,,,,,,,,,,,15,,70,48
18780,note_on,,0,0,11,,,,,,,,,,,,,,,,15,,67,48
18839,note_on,,599,0,6,,,,,,,,,,,,,,,,6,,63,0
18839,note_on,,59,0,8,,,,,,,,,,,,,,,,11,,67,0
18839,note_on,,59,0,7,,,,,,,,,,,,,,,,10,,70,0
18839,note_on,,0,0,11,,,,,,,,,,,,,,,,15,,67,0
18839,note_on,,59,0,11,,,,,,,,,,,,,,,,15,,70,0
18839,note_on,,0,0,11,,,,,,,,,,,,,,,,15,,63,0
18899,note_on,,60,0,11,,,,,,,,,,,,,,,,15,,39,0
18899,note_on,,659,0,10,,,,,,,,,,,,,,,,13,,39,0
18900,note_on,,1,0,11,,,,,,,,,,,,,,,,15,,67,48
18900,note_on,,0,0,11,,,,,,,,,,,,,,,,15,,63,48
18900,note_on,,1,0,10,,,,,,,,,,,,,,,,13,,51,48
18900,note_on,,61,0,7,,,,,,,,,,,,,,,,10,,70,48
18900,note_on,,0,0,11,,,,,,,,,,,,,,,,15,,70,48
18900,note_on,,61,0,6,,,,,,,,,,,,,,,,6,,67,62
18900,note_on,,1021,0,9,,,,,,,,,,,,,,,,12,,63,48
18900,note_on,,0,0,11,,,,,,,,,,,,,,,,15,,51,48
18900,note_on,,61,0,8,,,,,,,,,,,,,,,,11,,67,48
18959,note_on,,59,0,10,,,,,,,,,,,,,,,,13,,51,0
18959,note_on,,0,0,11,,,,,,,,,,,,,,,,15,,63,0
18959,note_on,,59,0,9,,,,,,,,,,,,,,,,12,,63,0
18959,note_on,,0,0,11,,,,,,,,,,,,,,,,15,,51,0
18959,note_on,,0,0,11,,,,,,,,,,,,,,,,15,,70,0
18959,note_on,,59,0,6,,,,,,,,,,,,,,,,6,,67,0
18959,note_on,,59,0,8,,,,,,,,,,,,,,,,11,,67,0
18959,note_on,,59,0,11,,,,,,,,,,,,,,,,15,,67,0
18959,note_on,,59,0,7,,,,,,,,,,,,,,,,10,,70,0
18960,note_on,,1,0,11,,,,,,,,,,,,,,,,15,,63,48
18960,note_on,,0,0,11,,,,,,,,,,,,,,,,15,,67,48
18960,note_on,,0,0,11,,,,,,,,,,,,,,,,15,,44,48
18960,note_on,,1,0,10,,,,,,,,,,,,,,,,13,,44,48
18960,note_on,,1,0,8,,,,,,,,,,,,,,,,11,,67,48
18960,note_on,,1,0,7,,,,,,,,,,,,,,,,10,,70,48
18960,note_on,,1,0,6,,,,,,,,,,,,,,,,6,,67,61
18960,note_on,,1,0,9,,,,,,,,,,,,,,,,12,,60,48
18960,note_on,,0,0,11,,,,,,,,,,,,,,,,15,,72,48
19034,note_on,,74,0,6,,,,,,,,,,,,,,,,6,,67,0
19035,note_on,,1,0,6,,,,,,,,,,,,,,,,6,,65,60
19049,note_on,,14,0,6,,,,,,,,,,,,,,,,6,,65,0
19050,note_on,,1,0,6,,,,,,,,,,,,,,,,6,,68,60
19064,note_on,,14,0,6,,,,,,,,,,,,,,,,6,,68,0
19065,note_on,,1,0,6,,,,,,,,,,,,,,,,6,,67,66
19079,note_on,,119,0,8,,,,,,,,,,,,,,,,11,,67,0
19079,note_on,,0,0,11,,,,,,,,,,,,,,,,15,,67,0
19079,note_on,,119,0,11,,,,,,,,,,,,,,,,15,,63,0
19079,note_on,,119,0,7,,,,,,,,,,,,,,,,10,,70,0
19079,note_on,,14,0,6,,,,,,,,,,,,,,,,6,,67,0
19080,note_on,,1,0,6,,,,,,,,,,,,,,,,6,,65,66
19080,note_on,,1,0,7,,,,,,,,,,,,,,,,10,,68,48
19080,note_on,,1,0,8,,,,,,,,,,,,,,,,11,,65,48
19080,note_on,,0,0,11,,,,,,,,,,,,,,,,15,,56,48
19080,note_on,,1,0,11,,,,,,,,,,,,,,,,15,,65,48
19139,note_on,,179,0,9,,,,,,,,,,,,,,,,12,,60,0
19139,note_on,,59,0,11,,,,,,,,,,,,,,,,15,,44,0
19139,note_on,,0,0,11,,,,,,,,,,,,,,,,15,,65,0
19139,note_on,,0,0,11,,,,,,,,,,,,,,,,15,,56,0
19139,note_on,,179,0,10,,,,,,,,,,,,,,,,13,,44,0
19139,note_on,,59,0,6,,,,,,,,,,,,,,,,6,,65,0
19140,note_on,,1,0,6,,,,,,,,,,,,,,,,6,,63,61
19140,note_on,,1,0,11,,,,,,,,,,,,,,,,15,,55,48
19140,note_on,,0,0,11,,,,,,,,,,,,,,,,15,,63,48
19140,note_on,,1,0,9,,,,,,,,,,,,,,,,12,,60,48
19140,note_on,,0,0,11,,,,,,,,,,,,,,,,15,,44,48
19140,note_on,,1,0,10,,,,,,,,,,,,,,,,13,,44,48
19199,note_on,,119,0,8,,,,,,,,,,,,,,,,11,,65,0
19199,note_on,,0,0,11,,,,,,,,,,,,,,,,15,,55,0
19199,note_on,,59,0,6,,,,,,,,,,,,,,,,6,,63,0
19199,note_on,,0,0,11,,,,,,,,,,,,,,,,15,,44,0
19199,note_on,,59,0,9,,,,,,,,,,,,,,,,12,,60,0
19199,note_on,,59,0,10,,,,,,,,,,,,,,,,13,,44,0
19199,note_on,,119,0,7,,,,,,,,,,,,,,,,10,,68,0
19199,note_on,,59,0,11,,,,,,,,,,,,,,,,15,,72,0
19199,note_on,,0,0,11,,,,,,,,,,,,,,,,15,,63,0
19200,note_on,,1,0,7,,,,,,,,,,,,,,,,10,,68,48
19200,note_on,,0,0,11,,,,,,,,,,,,,,,,15,,62,48
19200,note_on,,0,0,11,,,,,,,,,,,,,,,,15,,46,48
19200,note_on,,0,0,11,,,,,,,,,,,,,,,,15,,65,48
19200,note_on,,1,0,11,,,,,,,,,,,,,,,,15,,53,48
19200,note_on,,1,0,8,,,,,,,,,,,,,,,,11,,65,48
19200,note_on,,1,0,6,,,,,,,,,,,,,,,,6,,62,60
19200,note_on,,1,0,9,,,,,,,,,,,,,,,,12,,62,48
19200,note_on,,0,0,11,,,,,,,,,,,,,,,,15,,70,48
19200,note_on,,1,0,10,,,,,,,,,,,,,,,,13,,46,48
19289,note_on,,89,0,6,,,,,,,,,,,,,,,,6,,62,0
19290,note_on,,1,0,6,,,,,,,,,,,,,,,,6,,63,64
19304,note_on,,14,0,6,,,,,,,,,,,,,,,,6,,63,0
19305,note_on,,1,0,6,,,,,,,,,,,,,,,,6,,65,60
19319,note_on,,119,0,9,,,,,,,,,,,,,,,,12,,62,0
19319,note_on,,0,0,11,,,,,,,,,,,,,,,,15,,70,0
19319,note_on,,0,0,11,,,,,,,,,,,,,,,,15,,62,0
19319,note_on,,14,0,6,,,,,,,,,,,,,,,,6,,65,0
19319,note_on,,0,0,11,,,,,,,,,,,,,,,,15,,46,0
19319,note_on,,119,0,8,,,,,,,,,,,,,,,,11,,65,0
19319,note_on,,119,0,11,,,,,,,,,,,,,,,,15,,53,0
19319,note_on,,119,0,7,,,,,,,,,,,,,,,,10,,68,0
19319,note_on,,119,0,10,,,,,,,,,,,,,,,,13,,46,0
19319,note_on,,0,0,11,,,,,,,,,,,,,,,,15,,65,0
19320,note_on,,1,0,6,,,,,,,,,,,,,,,,6,,63,60
19320,note_on,,1,0,9,,,,,,,,,,,,,,,,12,,55,48
19320,note_on,,1,0,8,,,,,,,,,,,,,,,,11,,63,48
19320,note_on,,1,0,7,,,,,,,,,,,,,,,,10,,67,48
19320,note_on,,1,0,10,,,,,,,,,,,,,,,,13,,48,48
19320,note_on,,0,0,11,,,,,,,,,,,,,,,,15,,67,48
19320,note_on,,0,0,11,,,,,,,,,,,,,,,,15,,63,48
19320,note_on,,0,0,11,,,,,,,,,,,,,,,,15,,60,48
19320,note_on,,1,0,11,,,,,,,,,,,,,,,,15,,48,48
19439,note_on,,0,0,11,,,,,,,,,,,,,,,,15,,67,0
19439,note_on,,0,0,11,,,,,,,,,,,,,,,,15,,63,0
19439,note_on,,0,0,11,,,,,,,,,,,,,,,,15,,60,0
19439,note_on,,119,0,7,,,,,,,,,,,,,,,,10,,67,0
19439,note_on,,119,0,11,,,,,,,,,,,,,,,,15,,48,0
19439,note_on,,119,0,8,,,,,,,,,,,,,,,,11,,63,0
19439,note_on,,119,0,6,,,,,,,,,,,,,,,,6,,63,0
19439,note_on,,119,0,10,,,,,,,,,,,,,,,,13,,48,0
19439,note_on,,119,0,9,,,,,,,,,,,,,,,,12,,55,0
19440,note_on,,1,0,11,,,,,,,,,,,,,,,,15,,53,48
19559,note_on,,119,0,11,,,,,,,,,,,,,,,,15,,53,0
19560,note_on,,0,0,11,,,,,,,,,,,,,,,,15,,65,48
19560,note_on,,121,0,6,,,,,,,,,,,,,,,,6,,63,63
19560,note_on,,121,0,10,,,,,,,,,,,,,,,,13,,44,48
19560,note_on,,1,0,11,,,,,,,,,,,,,,,,15,,72,48
19560,note_on,,0,0,11,,,,,,,,,,,,,,,,15,,63,48
19560,note_on,,0,0,11,,,,,,,,,,,,,,,,15,,44,48
19619,note_on,,59,0,6,,,,,,,,,,,,,,,,6,,63,0
19620,note_on,,1,0,6,,,,,,,,,,,,,,,,6,,68,66
19679,note_on,,119,0,10,,,,,,,,,,,,,,,,13,,44,0
19679,note_on,,59,0,6,,,,,,,,,,,,,,,,6,,68,0
19679,note_on,,0,0,11,,,,,,,,,,,,,,,,15,,44,0
19679,note_on,,0,0,11,,,,,,,,,,,,,,,,15,,63,0
19679,note_on,,119,0,11,,,,,,,,,,,,,,,,15,,72,0
19680,note_on,,1,0,6,,,,,,,,,,,,,,,,6,,67,65
19680,note_on,,1,0,10,,,,,,,,,,,,,,,,13,,46,48
19680,note_on,,1,0,11,,,,,,,,,,,,,,,,15,,55,48
19680,note_on,,0,0,11,,,,,,,,,,,,,,,,15,,70,48
19680,note_on,,0,0,11,,,,,,,,,,,,,,,,15,,46,48
19680,note_on,,0,0,11,,,,,,,,,,,,,,,,15,,58,48
19680,note_on,,0,0,11,,,,,,,,,,,,,,,,15,,67,48
19739,note_on,,59,0,11,,,,,,,,,,,,,,,,15,,55,0
19740,note_on,,1,0,11,,,,,,,,,,,,,,,,15,,53,48
19799,note_on,,0,0,11,,,,,,,,,,,,,,,,15,,53,0
19799,note_on,,0,0,11,,,,,,,,,,,,,,,,15,,58,0
19799,note_on,,59,0,11,,,,,,,,,,,,,,,,15,,65,0
19799,note_on,,119,0,6,,,,,,,,,,,,,,,,6,,67,0
19800,note_on,,0,0,11,,,,,,,,,,,,,,,,15,,55,48
19800,note_on,,1,0,11,,,,,,,,,,,,,,,,15,,63,48
19800,note_on,,1,0,6,,,,,,,,,,,,,,,,6,,62,64
19814,note_on,,14,0,6,,,,,,,,,,,,,,,,6,,62,0
19815,note_on,,1,0,6,,,,,,,,,,,,,,,,6,,63,60
19829,note_on,,14,0,6,,,,,,,,,,,,,,,,6,,63,0
19830,note_on,,1,0,6,,,,,,,,,,,,,,,,6,,65,63
19844,note_on,,14,0,6,,,,,,,,,,,,,,,,6,,65,0
19845,note_on,,1,0,6,,,,,,,,,,,,,,,,6,,67,61
19859,note_on,,59,0,11,,,,,,,,,,,,,,,,15,,55,0
19860,note_on,,1,0,11,,,,,,,,,,,,,,,,15,,56,48
19874,note_on,,29,0,6,,,,,,,,,,,,,,,,6,,67,0
19875,note_on,,1,0,6,,,,,,,,,,,,,,,,6,,65,65
19889,note_on,,14,0,6,,,,,,,,,,,,,,,,6,,65,0
19890,note_on,,1,0,6,,,,,,,,,,,,,,,,6,,67,62
19904,note_on,,14,0,6,,,,,,,,,,,,,,,,6,,67,0
19905,note_on,,1,0,6,,,,,,,,,,,,,,,,6,,68,63
19919,note_on,,0,0,11,,,,,,,,,,,,,,,,15,,56,0
19919,note_on,,0,0,11,,,,,,,,,,,,,,,,15,,67,0
19919,note_on,,59,0,11,,,,,,,,,,,,,,,,15,,70,0
19919,note_on,,14,0,6,,,,,,,,,,,,,,,,6,,68,0
19920,note_on,,0,0,11,,,,,,,,,,,,,,,,15,,58,48
19920,note_on,,1,0,11,,,,,,,,,,,,,,,,15,,70,48
19920,note_on,,1,0,6,,,,,,,,,,,,,,,,6,,67,61
19920,note_on,,0,0,11,,,,,,,,,,,,,,,,15,,65,48
19934,note_on,,14,0,6,,,,,,,,,,,,,,,,6,,67,0
19935,note_on,,1,0,6,,,,,,,,,,,,,,,,6,,67,64
19949,note_on,,14,0,6,,,,,,,,,,,,,,,,6,,67,0
19950,note_on,,1,0,6,,,,,,,,,,,,,,,,6,,65,64
19964,note_on,,14,0,6,,,,,,,,,,,,,,,,6,,65,0
19965,note_on,,1,0,6,,,,,,,,,,,,,,,,6,,67,65
19979,note_on,,14,0,6,,,,,,,,,,,,,,,,6,,67,0
19980,note_on,,1,0,6,,,,,,,,,,,,,,,,6,,65,61
19994,note_on,,14,0,6,,,,,,,,,,,,,,,,6,,65,0
19995,note_on,,1,0,6,,,,,,,,,,,,,,,,6,,67,64
20009,note_on,,14,0,6,,,,,,,,,,,,,,,,6,,67,0
20010,note_on,,1,0,6,,,,,,,,,,,,,,,,6,,65,67
20024,note_on,,14,0,6,,,,,,,,,,,,,,,,6,,65,0
20025,note_on,,1,0,6,,,,,,,,,,,,,,,,6,,67,65
20039,note_on,,0,0,11,,,,,,,,,,,,,,,,15,,58,0
20039,note_on,,119,0,11,,,,,,,,,,,,,,,,15,,63,0
20039,note_on,,14,0,6,,,,,,,,,,,,,,,,6,,67,0
20040,note_on,,1,0,6,,,,,,,,,,,,,,,,6,,65,67
20040,note_on,,1,0,11,,,,,,,,,,,,,,,,15,,62,48
20040,note_on,,0,0,11,,,,,,,,,,,,,,,,15,,53,48
20054,note_on,,14,0,6,,,,,,,,,,,,,,,,6,,65,0
20055,note_on,,1,0,6,,,,,,,,,,,,,,,,6,,67,61
20069,note_on,,14,0,6,,,,,,,,,,,,,,,,6,,67,0
20070,note_on,,1,0,6,,,,,,,,,,,,,,,,6,,63,62
20084,note_on,,14,0,6,,,,,,,,,,,,,,,,6,,63,0
20085,note_on,,1,0,6,,,,,,,,,,,,,,,,6,,65,61
20099,note_on,,14,0,6,,,,,,,,,,,,,,,,6,,65,0
20100,note_on,,1,0,6,,,,,,,,,,,,,,,,6,,63,67
20159,note_on,,0,0,11,,,,,,,,,,,,,,,,15,,62,0
20159,note_on,,0,0,11,,,,,,,,,,,,,,,,15,,65,0
20159,note_on,,0,0,11,,,,,,,,,,,,,,,,15,,70,0
20159,note_on,,119,0,11,,,,,,,,,,,,,,,,15,,46,0
20159,note_on,,0,0,11,,,,,,,,,,,,,,,,15,,53,0
20159,note_on,,59,0,6,,,,,,,,,,,,,,,,6,,63,0
20159,note_on,,479,0,10,,,,,,,,,,,,,,,,13,,46,0
20160,note_on,,1,0,11,,,,,,,,,,,,,,,,15,,39,48
20160,note_on,,0,0,11,,,,,,,,,,,,,,,,15,,63,48
20160,note_on,,0,0,11,,,,,,,,,,,,,,,,15,,70,48
20160,note_on,,1,0,10,,,,,,,,,,,,,,,,13,,39,48
20160,note_on,,0,0,11,,,,,,,,,,,,,,,,15,,67,48
20160,note_on,,0,0,11,,,,,,,,,,,,,,,,15,,58,48
20160,note_on,,1,0,6,,,,,,,,,,,,,,,,6,,63,63
20219,note_on,,59,0,10,,,,,,,,,,,,,,,,13,,39,0
20219,note_on,,59,0,11,,,,,,,,,,,,,,,,15,,39,0
20220,note_on,,1,0,11,,,,,,,,,,,,,,,,15,,51,72
20220,note_on,,8881,0,5,,,,,,,,,,,,,,,,2,,51,72
20220,note_on,,1,0,10,,,,,,,,,,,,,,,,13,,51,72
20279,note_on,,0,0,11,,,,,,,,,,,,,,,,15,,58,0
20279,note_on,,59,0,5,,,,,,,,,,,,,,,,2,,51,0
20279,note_on,,0,0,11,,,,,,,,,,,,,,,,15,,51,0
20279,note_on,,59,0,11,,,,,,,,,,,,,,,,15,,63,0
20279,note_on,,59,0,10,,,,,,,,,,,,,,,,13,,51,0
20280,note_on,,1,0,5,,,,,,,,,,,,,,,,2,,55,72
20280,note_on,,1,0,10,,,,,,,,,,,,,,,,13,,55,72
20280,note_on,,1,0,11,,,,,,,,,,,,,,,,15,,63,72
20280,note_on,,0,0,11,,,,,,,,,,,,,,,,15,,55,72
20339,note_on,,59,0,5,,,,,,,,,,,,,,,,2,,55,0
20339,note_on,,59,0,10,,,,,,,,,,,,,,,,13,,55,0
20339,note_on,,59,0,11,,,,,,,,,,,,,,,,15,,55,0
20340,note_on,,1,0,11,,,,,,,,,,,,,,,,15,,51,72
20340,note_on,,1,0,5,,,,,,,,,,,,,,,,2,,51,72
20340,note_on,,901,0,9,,,,,,,,,,,,,,,,12,,67,72
20340,note_on,,1,0,10,,,,,,,,,,,,,,,,13,,51,72
20340,note_on,,901,0,7,,,,,,,,,,,,,,,,10,,70,72
20399,note_on,,59,0,5,,,,,,,,,,,,,,,,2,,51,0
20399,note_on,,59,0,9,,,,,,,,,,,,,,,,12,,67,0
20399,note_on,,0,0,11,,,,,,,,,,,,,,,,15,,51,0
20399,note_on,,0,0,11,,,,,,,,,,,,,,,,15,,67,0
20399,note_on,,59,0,7,,,,,,,,,,,,,,,,10,,70,0
20399,note_on,,239,0,6,,,,,,,,,,,,,,,,6,,63,0
20399,note_on,,59,0,10,,,,,,,,,,,,,,,,13,,51,0
20399,note_on,,59,0,11,,,,,,,,,,,,,,,,15,,70,0
20400,note_on,,1,0,10,,,,,,,,,,,,,,,,13,,60,72
20400,note_on,,1,0,11,,,,,,,,,,,,,,,,15,,60,72
20400,note_on,,1,0,9,,,,,,,,,,,,,,,,12,,67,72
20400,note_on,,0,0,11,,,,,,,,,,,,,,,,15,,68,72
20400,note_on,,1,0,5,,,,,,,,,,,,,,,,2,,60,72
20400,note_on,,1,0,7,,,,,,,,,,,,,,,,10,,75,72
20459,note_on,,59,0,10,,,,,,,,,,,,,,,,13,,60,0
20459,note_on,,59,0,5,,,,,,,,,,,,,,,,2,,60,0
20459,note_on,,59,0,11,,,,,,,,,,,,,,,,15,,60,0
20459,note_on,,0,0,11,,,,,,,,,,,,,,,,15,,68,0
20460,note_on,,1021,0,8,,,,,,,,,,,,,,,,11,,70,72
20460,note_on,,0,0,11,,,,,,,,,,,,,,,,15,,55,72
20460,note_on,,1,0,5,,,,,,,,,,,,,,,,2,,55,72
20460,note_on,,1,0,11,,,,,,,,,,,,,,,,15,,70,72
20460,note_on,,1,0,10,,,,,,,,,,,,,,,,13,,55,72
20519,note_on,,59,0,11,,,,,,,,,,,,,,,,15,,63,0
20519,note_on,,59,0,5,,,,,,,,,,,,,,,,2,,55,0
20519,note_on,,0,0,11,,,,,,,,,,,,,,,,15,,70,0
20519,note_on,,119,0,9,,,,,,,,,,,,,,,,12,,67,0
20519,note_on,,59,0,8,,,,,,,,,,,,,,,,11,,70,0
20519,note_on,,59,0,10,,,,,,,,,,,,,,,,13,,55,0
20519,note_on,,0,0,11,,,,,,,,,,,,,,,,15,,55,0
20520,note_on,,1,0,8,,,,,,,,,,,,,,,,11,,77,72
20520,note_on,,1,0,10,,,,,,,,,,,,,,,,13,,56,72
20520,note_on,,1,0,11,,,,,,,,,,,,,,,,15,,72,72
20520,note_on,,0,0,11,,,,,,,,,,,,,,,,15,,63,72
20520,note_on,,0,0,11,,,,,,,,,,,,,,,,15,,56,72
20520,note_on,,0,0,11,,,,,,,,,,,,,,,,15,,68,72
20520,note_on,,1,0,5,,,,,,,,,,,,,,,,2,,56,72
20520,note_on,,1,0,9,,,,,,,,,,,,,,,,12,,72,72
20579,note_on,,0,0,11,,,,,,,,,,,,,,,,15,,56,0
20579,note_on,,59,0,9,,,,,,,,,,,,,,,,12,,72,0
20579,note_on,,0,0,11,,,,,,,,,,,,,,,,15,,68,0
20579,note_on,,59,0,10,,,,,,,,,,,,,,,,13,,56,0
20579,note_on,,59,0,5,,,,,,,,,,,,,,,,2,,56,0
20579,note_on,,179,0,7,,,,,,,,,,,,,,,,10,,75,0
20579,note_on,,0,0,11,,,,,,,,,,,,,,,,15,,63,0
20579,note_on,,59,0,11,,,,,,,,,,,,,,,,15,,72,0
20580,note_on,,0,0,11,,,,,,,,,,,,,,,,15,,58,72
20580,note_on,,1,0,11,,,,,,,,,,,,,,,,15,,65,72
20580,note_on,,1,0,7,,,,,,,,,,,,,,,,10,,74,72
20580,note_on,,0,0,11,,,,,,,,,,,,,,,,15,,70,72
20580,note_on,,1,0,5,,,,,,,,,,,,,,,,2,,58,72
20580,note_on,,1,0,10,,,,,,,,,,,,,,,,13,,58,72
20580,note_on,,1,0,9,,,,,,,,,,,,,,,,12,,70,72
20580,note_on,,0,0,11,,,,,,,,,,,,,,,,15,,62,72
20639,note_on,,59,0,10,,,,,,,,,,,,,,,,13,,58,0
20639,note_on,,59,0,9,,,,,,,,,,,,,,,,12,,70,0
20639,note_on,,119,0,8,,,,,,,,,,,,,,,,11,,77,0
20639,note_on,,59,0,5,,,,,,,,,,,,,,,,2,,58,0
20639,note_on,,0,0,11,,,,,,,,,,,,,,,,15,,62,0
20639,note_on,,0,0,11,,,,,,,,,,,,,,,,15,,70,0
20639,note_on,,59,0,7,,,,,,,,,,,,,,,,10,,74,0
20639,note_on,,59,0,11,,,,,,,,,,,,,,,,15,,65,0
20639,note_on,,0,0,11,,,,,,,,,,,,,,,,15,,58,0
20640,note_on,,1,0,8,,,,,,,,,,,,,,,,11,,75,72
20640,note_on,,0,0,11,,,,,,,,,,,,,,,,15,,70,72
20640,note_on,,0,0,11,,,,,,,,,,,,,,,,15,,51,72
20640,note_on,,1,0,9,,,,,,,,,,,,,,,,12,,70,72
20640,note_on,,1,0,11,,,,,,,,,,,,,,,,15,,63,72
20640,note_on,,0,0,11,,,,,,,,,,,,,,,,15,,67,72
20640,note_on,,1,0,5,,,,,,,,,,,,,,,,2,,51,72
20640,note_on,,1,0,7,,,,,,,,,,,,,,,,10,,79,72
20640,note_on,,1,0,10,,,,,,,,,,,,,,,,13,,51,72
20699,note_on,,59,0,9,,,,,,,,,,,,,,,,12,,70,0
20699,note_on,,59,0,7,,,,,,,,,,,,,,,,10,,79,0
20699,note_on,,59,0,11,,,,,,,,,,,,,,,,15,,63,0
20699,note_on,,0,0,11,,,,,,,,,,,,,,,,15,,67,0
20699,note_on,,0,0,11,,,,,,,,,,,,,,,,15,,51,0
20699,note_on,,59,0,5,,,,,,,,,,,,,,,,2,,51,0
20699,note_on,,59,0,8,,,,,,,,,,,,,,,,11,,75,0
20699,note_on,,59,0,10,,,,,,,,,,,,,,,,13,,51,0
20700,note_on,,1,0,9,,,,,,,,,,,,,,,,12,,70,72
20700,note_on,,1,0,7,,,,,,,,,,,,,,,,10,,77,72
20700,note_on,,1,0,8,,,,,,,,,,,,,,,,11,,74,72
20700,note_on,,1,0,10,,,,,,,,,,,,,,,,13,,46,72
20700,note_on,,1,0,5,,,,,,,,,,,,,,,,2,,46,72
20700,note_on,,1,0,11,,,,,,,,,,,,,,,,15,,65,72
20700,note_on,,0,0,11,,,,,,,,,,,,,,,,15,,62,72
20700,note_on,,0,0,11,,,,,,,,,,,,,,,,15,,46,72
20759,note_on,,59,0,11,,,,,,,,,,,,,,,,15,,70,0
20759,note_on,,0,0,11,,,,,,,,,,,,,,,,15,,65,0
20759,note_on,,0,0,11,,,,,,,,,,,,,,,,15,,62,0
20759,note_on,,59,0,7,,,,,,,,,,,,,,,,10,,77,0
20759,note_on,,0,0,11,,,,,,,,,,,,,,,,15,,46,0
20759,note_on,,59,0,8,,,,,,,,,,,,,,,,11,,74,0
20759,note_on,,59,0,10,,,,,,,,,,,,,,,,13,,46,0
20759,note_on,,59,0,9,,,,,,,,,,,,,,,,12,,70,0
20759,note_on,,59,0,5,,,,,,,,,,,,,,,,2,,46,0
20820,note_on,,0,0,11,,,,,,,,,,,,,,,,15,,70,72
20820,note_on,,61,0,11,,,,,,,,,,,,,,,,15,,67,72
20820,note_on,,61,0,10,,,,,,,,,,,,,,,,13,,58,72
20820,note_on,,61,0,9,,,,,,,,,,,,,,,,12,,70,72
20820,note_on,,61,0,5,,,,,,,,,,,,,,,,2,,58,72
20820,note_on,,0,0,11,,,,,,,,,,,,,,,,15,,58,72
20820,note_on,,0,0,11,,,,,,,,,,,,,,,,15,,62,72
20820,note_on,,61,0,8,,,,,,,,,,,,,,,,11,,74,72
20820,note_on,,61,0,7,,,,,,,,,,,,,,,,10,,79,72
20879,note_on,,0,0,11,,,,,,,,,,,,,,,,15,,62,0
20879,note_on,,59,0,9,,,,,,,,,,,,,,,,12,,70,0
20879,note_on,,0,0,11,,,,,,,,,,,,,,,,15,,70,0
20879,note_on,,59,0,11,,,,,,,,,,,,,,,,15,,67,0
20879,note_on,,59,0,8,,,,,,,,,,,,,,,,11,,74,0
20879,note_on,,59,0,5,,,,,,,,,,,,,,,,2,,58,0
20879,note_on,,59,0,10,,,,,,,,,,,,,,,,13,,58,0
20879,note_on,,59,0,7,,,,,,,,,,,,,,,,10,,79,0
20879,note_on,,0,0,11,,,,,,,,,,,,,,,,15,,58,0
20880,note_on,,1,0,7,,,,,,,,,,,,,,,,10,,80,72
20880,note_on,,0,0,11,,,,,,,,,,,,,,,,15,,75,72
20880,note_on,,0,0,11,,,,,,,,,,,,,,,,15,,68,72
20880,note_on,,0,0,11,,,,,,,,,,,,,,,,15,,63,72
20880,note_on,,1,0,11,,,,,,,,,,,,,,,,15,,60,72
20880,note_on,,1,0,10,,,,,,,,,,,,,,,,13,,60,72
20880,note_on,,1,0,9,,,,,,,,,,,,,,,,12,,63,72
20880,note_on,,1,0,5,,,,,,,,,,,,,,,,2,,60,72
20880,note_on,,1,0,8,,,,,,,,,,,,,,,,11,,75,72
20939,note_on,,59,0,8,,,,,,,,,,,,,,,,11,,75,0
20939,note_on,,59,0,7,,,,,,,,,,,,,,,,10,,80,0
20939,note_on,,59,0,11,,,,,,,,,,,,,,,,15,,60,0
20939,note_on,,0,0,11,,,,,,,,,,,,,,,,15,,75,0
20939,note_on,,59,0,9,,,,,,,,,,,,,,,,12,,63,0
20939,note_on,,59,0,10,,,,,,,,,,,,,,,,13,,60,0
20939,note_on,,59,0,5,,,,,,,,,,,,,,,,2,,60,0
20939,note_on,,0,0,11,,,,,,,,,,,,,,,,15,,63,0
20940,note_on,,1,0,11,,,,,,,,,,,,,,,,15,,70,72
20940,note_on,,1,0,5,,,,,,,,,,,,,,,,2,,62,72
20940,note_on,,1,0,8,,,,,,,,,,,,,,,,11,,70,72
20940,note_on,,1,0,9,,,,,,,,,,,,,,,,12,,62,72
20940,note_on,,0,0,11,,,,,,,,,,,,,,,,15,,62,72
20940,note_on,,1,0,10,,,,,,,,,,,,,,,,13,,62,72
20940,note_on,,1,0,7,,,,,,,,,,,,,,,,10,,79,72
20969,note_on,,29,0,7,,,,,,,,,,,,,,,,10,,79,0
20970,note_on,,1,0,7,,,,,,,,,,,,,,,,10,,77,72
20999,note_on,,0,0,11,,,,,,,,,,,,,,,,15,,62,0
20999,note_on,,59,0,8,,,,,,,,,,,,,,,,11,,70,0
20999,note_on,,59,0,11,,,,,,,,,,,,,,,,15,,68,0
20999,note_on,,59,0,10,,,,,,,,,,,,,,,,13,,62,0
20999,note_on,,59,0,5,,,,,,,,,,,,,,,,2,,62,0
20999,note_on,,29,0,7,,,,,,,,,,,,,,,,10,,77,0
20999,note_on,,59,0,9,,,,,,,,,,,,,,,,12,,62,0
21000,note_on,,1,0,8,,,,,,,,,,,,,,,,11,,70,72
21000,note_on,,1,0,10,,,,,,,,,,,,,,,,13,,63,72
21000,note_on,,1,0,7,,,,,,,,,,,,,,,,10,,79,72
21000,note_on,,1,0,9,,,,,,,,,,,,,,,,12,,67,72
21000,note_on,,1,0,11,,,,,,,,,,,,,,,,15,,67,72
21000,note_on,,0,0,11,,,,,,,,,,,,,,,,15,,63,72
21000,note_on,,1,0,5,,,,,,,,,,,,,,,,2,,63,72
21059,note_on,,59,0,8,,,,,,,,,,,,,,,,11,,70,0
21059,note_on,,59,0,9,,,,,,,,,,,,,,,,12,,67,0
21059,note_on,,0,0,11,,,,,,,,,,,,,,,,15,,67,0
21059,note_on,,59,0,11,,,,,,,,,,,,,,,,15,,70,0
21059,note_on,,59,0,10,,,,,,,,,,,,,,,,13,,63,0
21059,note_on,,59,0,5,,,,,,,,,,,,,,,,2,,63,0
21059,note_on,,0,0,11,,,,,,,,,,,,,,,,15,,63,0
21059,note_on,,59,0,7,,,,,,,,,,,,,,,,10,,79,0
21060,note_on,,1,0,8,,,,,,,,,,,,,,,,11,,72,72
21060,note_on,,1,0,5,,,,,,,,,,,,,,,,2,,56,72
21060,note_on,,1,0,7,,,,,,,,,,,,,,,,10,,75,72
21060,note_on,,1,0,11,,,,,,,,,,,,,,,,15,,72,72
21060,note_on,,1,0,9,,,,,,,,,,,,,,,,12,,60,72
21060,note_on,,0,0,11,,,,,,,,,,,,,,,,15,,56,72
21060,note_on,,0,0,11,,,,,,,,,,,,,,,,15,,63,72
21060,note_on,,0,0,11,,,,,,,,,,,,,,,,15,,68,72
21060,note_on,,1,0,10,,,,,,,,,,,,,,,,13,,56,72
21119,note_on,,59,0,8,,,,,,,,,,,,,,,,11,,72,0
21119,note_on,,59,0,10,,,,,,,,,,,,,,,,13,,56,0
21119,note_on,,59,0,11,,,,,,,,,,,,,,,,15,,72,0
21119,note_on,,0,0,11,,,,,,,,,,,,,,,,15,,63,0
21119,note_on,,0,0,11,,,,,,,,,,,,,,,,15,,68,0
21119,note_on,,59,0,7,,,,,,,,,,,,,,,,10,,75,0
21119,note_on,,59,0,5,,,,,,,,,,,,,,,,2,,56,0
21119,note_on,,0,0,11,,,,,,,,,,,,,,,,15,,56,0
21119,note_on,,59,0,9,,,,,,,,,,,,,,,,12,,60,0
21120,note_on,,1,0,10,,,,,,,,,,,,,,,,13,,58,72
21120,note_on,,1,0,5,,,,,,,,,,,,,,,,2,,58,72
21120,note_on,,0,0,11,,,,,,,,,,,,,,,,15,,58,72
21120,note_on,,1,0,8,,,,,,,,,,,,,,,,11,,65,72
21120,note_on,,0,0,11,,,,,,,,,,,,,,,,15,,62,72
21120,note_on,,1,0,7,,,,,,,,,,,,,,,,10,,74,72
21120,note_on,,0,0,11,,,,,,,,,,,,,,,,15,,70,72
21120,note_on,,1,0,9,,,,,,,,,,,,,,,,12,,58,72
21120,note_on,,1,0,11,,,,,,,,,,,,,,,,15,,65,72
21179,note_on,,59,0,8,,,,,,,,,,,,,,,,11,,65,0
21179,note_on,,59,0,7,,,,,,,,,,,,,,,,10,,74,0
21179,note_on,,59,0,5,,,,,,,,,,,,,,,,2,,58,0
21179,note_on,,0,0,11,,,,,,,,,,,,,,,,15,,58,0
21179,note_on,,0,0,11,,,,,,,,,,,,,,,,15,,62,0
21179,note_on,,59,0,11,,,,,,,,,,,,,,,,15,,65,0
21179,note_on,,59,0,10,,,,,,,,,,,,,,,,13,,58,0
21179,note_on,,59,0,9,,,,,,,,,,,,,,,,12,,58,0
21180,note_on,,1,0,11,,,,,,,,,,,,,,,,15,,51,72
21180,note_on,,1,0,7,,,,,,,,,,,,,,,,10,,75,72
21180,note_on,,1,0,10,,,,,,,,,,,,,,,,13,,51,72
21180,note_on,,0,0,11,,,,,,,,,,,,,,,,15,,67,72
21180,note_on,,0,0,11,,,,,,,,,,,,,,,,15,,63,72
21180,note_on,,1,0,5,,,,,,,,,,,,,,,,2,,51,72
21180,note_on,,1,0,9,,,,,,,,,,,,,,,,12,,58,72
21180,note_on,,1,0,8,,,,,,,,,,,,,,,,11,,67,72
21239,note_on,,0,0,11,,,,,,,,,,,,,,,,15,,51,0
21239,note_on,,0,0,11,,,,,,,,,,,,,,,,15,,67,0
21239,note_on,,59,0,7,,,,,,,,,,,,,,,,10,,75,0
21239,note_on,,0,0,11,,,,,,,,,,,,,,,,15,,63,0
21239,note_on,,59,0,10,,,,,,,,,,,,,,,,13,,51,0
21239,note_on,,59,0,9,,,,,,,,,,,,,,,,12,,58,0
21239,note_on,,59,0,8,,,,,,,,,,,,,,,,11,,67,0
21239,note_on,,59,0,11,,,,,,,,,,,,,,,,15,,70,0
21239,note_on,,59,0,5,,,,,,,,,,,,,,,,2,,51,0
21240,note_on,,0,0,11,,,,,,,,,,,,,,,,15,,55,72
21240,note_on,,0,0,11,,,,,,,,,,,,,,,,15,,63,72
21240,note_on,,1,0,11,,,,,,,,,,,,,,,,15,,39,72
21240,note_on,,1,0,10,,,,,,,,,,,,,,,,13,,39,72
21240,note_on,,1,0,5,,,,,,,,,,,,,,,,2,,39,72
21299,note_on,,59,0,11,,,,,,,,,,,,,,,,15,,55,0
21299,note_on,,0,0,11,,,,,,,,,,,,,,,,15,,63,0
21300,note_on,,61,0,7,,,,,,,,,,,,,,,,10,,75,72
21300,note_on,,61,0,9,,,,,,,,,,,,,,,,12,,63,72
21300,note_on,,1,0,11,,,,,,,,,,,,,,,,15,,65,72
21300,note_on,,0,0,11,,,,,,,,,,,,,,,,15,,56,72
21300,note_on,,61,0,8,,,,,,,,,,,,,,,,11,,72,72
21359,note_on,,59,0,7,,,,,,,,,,,,,,,,10,,75,0
21359,note_on,,59,0,9,,,,,,,,,,,,,,,,12,,63,0
21359,note_on,,0,0,11,,,,,,,,,,,,,,,,15,,56,0
21359,note_on,,0,0,11,,,,,,,,,,,,,,,,15,,65,0
21359,note_on,,59,0,8,,,,,,,,,,,,,,,,11,,72,0
21359,note_on,,119,0,10,,,,,,,,,,,,,,,,13,,39,0
21359,note_on,,59,0,11,,,,,,,,,,,,,,,,15,,39,0
21359,note_on,,119,0,5,,,,,,,,,,,,,,,,2,,39,0
21360,note_on,,0,0,11,,,,,,,,,,,,,,,,15,,58,72
21360,note_on,,1,0,11,,,,,,,,,,,,,,,,15,,51,72
21360,note_on,,1,0,7,,,,,,,,,,,,,,,,10,,73,72
21360,note_on,,1,0,10,,,,,,,,,,,,,,,,13,,39,72
21360,note_on,,0,0,11,,,,,,,,,,,,,,,,15,,67,72
21360,note_on,,0,0,11,,,,,,,,,,,,,,,,15,,39,72
21360,note_on,,1,0,5,,,,,,,,,,,,,,,,2,,39,72
21360,note_on,,1,0,8,,,,,,,,,,,,,,,,11,,70,72
21360,note_on,,1,0,9,,,,,,,,,,,,,,,,12,,67,72
21374,note_on,,14,0,8,,,,,,,,,,,,,,,,11,,70,0
21374,note_on,,14,0,7,,,,,,,,,,,,,,,,10,,73,0
21375,note_on,,1,0,8,,,,,,,,,,,,,,,,11,,72,72
21375,note_on,,1,0,7,,,,,,,,,,,,,,,,10,,75,72
21389,note_on,,14,0,8,,,,,,,,,,,,,,,,11,,72,0
21389,note_on,,14,0,7,,,,,,,,,,,,,,,,10,,75,0
21390,note_on,,1,0,7,,,,,,,,,,,,,,,,10,,72,72
21390,note_on,,1,0,8,,,,,,,,,,,,,,,,11,,68,72
21404,note_on,,14,0,8,,,,,,,,,,,,,,,,11,,68,0
21404,note_on,,14,0,7,,,,,,,,,,,,,,,,10,,72,0
21405,note_on,,1,0,8,,,,,,,,,,,,,,,,11,,70,72
21405,note_on,,1,0,7,,,,,,,,,,,,,,,,10,,73,72
21419,note_on,,59,0,9,,,,,,,,,,,,,,,,12,,67,0
21419,note_on,,59,0,11,,,,,,,,,,,,,,,,15,,58,0
21419,note_on,,0,0,11,,,,,,,,,,,,,,,,15,,67,0
21419,note_on,,14,0,8,,,,,,,,,,,,,,,,11,,70,0
21419,note_on,,14,0,7,,,,,,,,,,,,,,,,10,,73,0
21420,note_on,,1,0,7,,,,,,,,,,,,,,,,10,,72,72
21420,note_on,,1,0,8,,,,,,,,,,,,,,,,11,,68,72
21420,note_on,,1,0,9,,,,,,,,,,,,,,,,12,,63,72
21420,note_on,,0,0,11,,,,,,,,,,,,,,,,15,,60,72
21420,note_on,,1,0,11,,,,,,,,,,,,,,,,15,,68,72
21479,note_on,,59,0,8,,,,,,,,,,,,,,,,11,,68,0
21479,note_on,,59,0,7,,,,,,,,,,,,,,,,10,,72,0
21479,note_on,,59,0,9,,,,,,,,,,,,,,,,12,,63,0
21479,note_on,,59,0,11,,,,,,,,,,,,,,,,15,,68,0
21479,note_on,,0,0,11,,,,,,,,,,,,,,,,15,,60,0
21540,note_on,,61,0,9,,,,,,,,,,,,,,,,12,,67,72
21540,note_on,,61,0,11,,,,,,,,,,,,,,,,15,,58,72
21540,note_on,,61,0,8,,,,,,,,,,,,,,,,11,,70,72
21540,note_on,,0,0,11,,,,,,,,,,,,,,,,15,,61,72
21540,note_on,,0,0,11,,,,,,,,,,,,,,,,15,,67,72
21540,note_on,,61,0,7,,,,,,,,,,,,,,,,10,,73,72
21599,note_on,,59,0,9,,,,,,,,,,,,,,,,12,,67,0
21599,note_on,,59,0,8,,,,,,,,,,,,,,,,11,,70,0
21599,note_on,,59,0,7,,,,,,,,,,,,,,,,10,,73,0
21599,note_on,,59,0,11,,,,,,,,,,,,,,,,15,,39,0
21599,note_on,,0,0,11,,,,,,,,,,,,,,,,15,,58,0
21599,note_on,,0,0,11,,,,,,,,,,,,,,,,15,,67,0
21599,note_on,,0,0,11,,,,,,,,,,,,,,,,15,,61,0
21599,note_on,,239,0,5,,,,,,,,,,,,,,,,2,,39,0
21599,note_on,,239,0,10,,,,,,,,,,,,,,,,13,,39,0
21600,note_on,,0,0,11,,,,,,,,,,,,,,,,15,,63,72
21600,note_on,,1,0,7,,,,,,,,,,,,,,,,10,,72,72
21600,note_on,,1,0,11,,,,,,,,,,,,,,,,15,,60,72
21600,note_on,,1,0,5,,,,,,,,,,,,,,,,2,,39,72
21600,note_on,,1,0,9,,,,,,,,,,,,,,,,12,,63,72
21600,note_on,,1,0,10,,,,,,,,,,,,,,,,13,,39,72
21600,note_on,,1,0,8,,,,,,,,,,,,,,,,11,,68,72
21600,note_on,,0,0,11,,,,,,,,,,,,,,,,15,,39,72
21600,note_on,,0,0,11,,,,,,,,,,,,,,,,15,,68,72
21614,note_on,,14,0,7,,,,,,,,,,,,,,,,10,,72,0
21614,note_on,,14,0,8,,,,,,,,,,,,,,,,11,,68,0
21615,note_on,,1,0,8,,,,,,,,,,,,,,,,11,,70,72
21615,note_on,,1,0,7,,,,,,,,,,,,,,,,10,,74,72
21629,note_on,,14,0,8,,,,,,,,,,,,,,,,11,,70,0
21629,note_on,,14,0,7,,,,,,,,,,,,,,,,10,,74,0
21630,note_on,,1,0,7,,,,,,,,,,,,,,,,10,,70,72
21630,note_on,,1,0,8,,,,,,,,,,,,,,,,11,,67,72
21644,note_on,,14,0,7,,,,,,,,,,,,,,,,10,,70,0
21644,note_on,,14,0,8,,,,,,,,,,,,,,,,11,,67,0
21645,note_on,,1,0,7,,,,,,,,,,,,,,,,10,,72,72
21645,note_on,,1,0,8,,,,,,,,,,,,,,,,11,,68,72
21659,note_on,,14,0,7,,,,,,,,,,,,,,,,10,,72,0
21659,note_on,,14,0,8,,,,,,,,,,,,,,,,11,,68,0
21659,note_on,,59,0,11,,,,,,,,,,,,,,,,15,,51,0
21659,note_on,,0,0,11,,,,,,,,,,,,,,,,15,,68,0
21659,note_on,,0,0,11,,,,,,,,,,,,,,,,15,,63,0
21659,note_on,,59,0,9,,,,,,,,,,,,,,,,12,,63,0
21659,note_on,,0,0,11,,,,,,,,,,,,,,,,15,,60,0
21660,note_on,,1,0,11,,,,,,,,,,,,,,,,15,,63,72
21660,note_on,,0,0,11,,,,,,,,,,,,,,,,15,,67,72
21660,note_on,,0,0,11,,,,,,,,,,,,,,,,15,,70,72
21660,note_on,,1,0,7,,,,,,,,,,,,,,,,10,,70,72
21660,note_on,,1,0,9,,,,,,,,,,,,,,,,12,,58,72
21660,note_on,,1,0,8,,,,,,,,,,,,,,,,11,,67,72
21719,note_on,,59,0,7,,,,,,,,,,,,,,,,10,,70,0
21719,note_on,,59,0,9,,,,,,,,,,,,,,,,12,,58,0
21719,note_on,,0,0,11,,,,,,,,,,,,,,,,15,,70,0
21719,note_on,,59,0,8,,,,,,,,,,,,,,,,11,,67,0
21719,note_on,,0,0,11,,,,,,,,,,,,,,,,15,,67,0
21719,note_on,,59,0,11,,,,,,,,,,,,,,,,15,,63,0
21720,note_on,,1,0,11,,,,,,,,,,,,,,,,15,,51,72
21780,note_on,,61,0,8,,,,,,,,,,,,,,,,11,,67,72
21780,note_on,,61,0,7,,,,,,,,,,,,,,,,10,,70,72
21780,note_on,,0,0,11,,,,,,,,,,,,,,,,15,,67,72
21780,note_on,,60,0,11,,,,,,,,,,,,,,,,15,,63,72
21780,note_on,,61,0,9,,,,,,,,,,,,,,,,12,,58,72
21839,note_on,,59,0,7,,,,,,,,,,,,,,,,10,,70,0
21839,note_on,,59,0,8,,,,,,,,,,,,,,,,11,,67,0
21839,note_on,,0,0,11,,,,,,,,,,,,,,,,15,,63,0
21839,note_on,,0,0,11,,,,,,,,,,,,,,,,15,,67,0
21839,note_on,,0,0,11,,,,,,,,,,,,,,,,15,,51,0
21839,note_on,,59,0,11,,,,,,,,,,,,,,,,15,,39,0
21839,note_on,,59,0,9,,,,,,,,,,,,,,,,12,,58,0
21839,note_on,,239,0,10,,,,,,,,,,,,,,,,13,,39,0
21839,note_on,,239,0,5,,,,,,,,,,,,,,,,2,,39,0
21840,note_on,,1,0,9,,,,,,,,,,,,,,,,12,,62,72
21840,note_on,,1,0,11,,,,,,,,,,,,,,,,15,,65,72
21840,note_on,,1,0,10,,,,,,,,,,,,,,,,13,,46,72
21840,note_on,,0,0,11,,,,,,,,,,,,,,,,15,,53,72
21840,note_on,,0,0,11,,,,,,,,,,,,,,,,15,,62,72
21840,note_on,,1,0,7,,,,,,,,,,,,,,,,10,,68,72
21840,note_on,,0,0,11,,,,,,,,,,,,,,,,15,,46,72
21840,note_on,,1,0,5,,,,,,,,,,,,,,,,2,,46,72
21840,note_on,,1,0,8,,,,,,,,,,,,,,,,11,,65,72
21854,note_on,,14,0,8,,,,,,,,,,,,,,,,11,,65,0
21854,note_on,,14,0,7,,,,,,,,,,,,,,,,10,,68,0
21855,note_on,,1,0,7,,,,,,,,,,,,,,,,10,,70,72
21855,note_on,,1,0,8,,,,,,,,,,,,,,,,11,,67,72
21869,note_on,,14,0,8,,,,,,,,,,,,,,,,11,,67,0
21869,note_on,,14,0,7,,,,,,,,,,,,,,,,10,,70,0
21870,note_on,,1,0,8,,,,,,,,,,,,,,,,11,,63,72
21870,note_on,,1,0,7,,,,,,,,,,,,,,,,10,,67,72
21884,note_on,,14,0,7,,,,,,,,,,,,,,,,10,,67,0
21884,note_on,,14,0,8,,,,,,,,,,,,,,,,11,,63,0
21885,note_on,,1,0,7,,,,,,,,,,,,,,,,10,,68,72
21885,note_on,,1,0,8,,,,,,,,,,,,,,,,11,,65,72
21899,note_on,,14,0,7,,,,,,,,,,,,,,,,10,,68,0
21899,note_on,,59,0,11,,,,,,,,,,,,,,,,15,,65,0
21899,note_on,,14,0,8,,,,,,,,,,,,,,,,11,,65,0
21899,note_on,,0,0,11,,,,,,,,,,,,,,,,15,,53,0
21899,note_on,,0,0,11,,,,,,,,,,,,,,,,15,,62,0
21899,note_on,,59,0,9,,,,,,,,,,,,,,,,12,,62,0
21900,note_on,,1,0,9,,,,,,,,,,,,,,,,12,,58,72
21900,note_on,,0,0,11,,,,,,,,,,,,,,,,15,,58,72
21900,note_on,,0,0,11,,,,,,,,,,,,,,,,15,,55,72
21900,note_on,,1,0,8,,,,,,,,,,,,,,,,11,,63,72
21900,note_on,,1,0,7,,,,,,,,,,,,,,,,10,,67,72
21900,note_on,,1,0,11,,,,,,,,,,,,,,,,15,,63,72
21959,note_on,,0,0,11,,,,,,,,,,,,,,,,15,,55,0
21959,note_on,,59,0,7,,,,,,,,,,,,,,,,10,,67,0
21959,note_on,,59,0,11,,,,,,,,,,,,,,,,15,,63,0
21959,note_on,,59,0,9,,,,,,,,,,,,,,,,12,,58,0
21959,note_on,,0,0,11,,,,,,,,,,,,,,,,15,,58,0
21959,note_on,,59,0,8,,,,,,,,,,,,,,,,11,,63,0
22020,note_on,,61,0,7,,,,,,,,,,,,,,,,10,,68,72
22020,note_on,,61,0,8,,,,,,,,,,,,,,,,11,,65,72
22020,note_on,,61,0,9,,,,,,,,,,,,,,,,12,,62,72
22020,note_on,,61,0,11,,,,,,,,,,,,,,,,15,,53,72
22020,note_on,,0,0,11,,,,,,,,,,,,,,,,15,,62,72
22020,note_on,,0,0,11,,,,,,,,,,,,,,,,15,,56,72
22079,note_on,,59,0,7,,,,,,,,,,,,,,,,10,,68,0
22079,note_on,,59,0,11,,,,,,,,,,,,,,,,15,,53,0
22079,note_on,,0,0,11,,,,,,,,,,,,,,,,15,,62,0
22079,note_on,,59,0,8,,,,,,,,,,,,,,,,11,,65,0
22079,note_on,,59,0,9,,,,,,,,,,,,,,,,12,,62,0
22079,note_on,,0,0,11,,,,,,,,,,,,,,,,15,,56,0
22080,note_on,,1,0,11,,,,,,,,,,,,,,,,15,,58,72
22080,note_on,,0,0,11,,,,,,,,,,,,,,,,15,,55,72
22080,note_on,,0,0,11,,,,,,,,,,,,,,,,15,,63,72
22080,note_on,,1,0,7,,,,,,,,,,,,,,,,10,,67,72
22080,note_on,,1,0,9,,,,,,,,,,,,,,,,12,,58,72
22080,note_on,,1,0,8,,,,,,,,,,,,,,,,11,,63,72
22094,note_on,,14,0,8,,,,,,,,,,,,,,,,11,,63,0
22094,note_on,,14,0,7,,,,,,,,,,,,,,,,10,,67,0
22095,note_on,,1,0,8,,,,,,,,,,,,,,,,11,,65,72
22095,note_on,,1,0,7,,,,,,,,,,,,,,,,10,,68,72
22109,note_on,,14,0,7,,,,,,,,,,,,,,,,10,,68,0
22109,note_on,,14,0,8,,,,,,,,,,,,,,,,11,,65,0
22110,note_on,,1,0,8,,,,,,,,,,,,,,,,11,,62,72
22110,note_on,,1,0,7,,,,,,,,,,,,,,,,10,,65,72
22124,note_on,,14,0,8,,,,,,,,,,,,,,,,11,,62,0
22124,note_on,,14,0,7,,,,,,,,,,,,,,,,10,,65,0
22125,note_on,,1,0,7,,,,,,,,,,,,,,,,10,,67,72
22125,note_on,,1,0,8,,,,,,,,,,,,,,,,11,,63,72
22139,note_on,,299,0,5,,,,,,,,,,,,,,,,2,,46,0
22139,note_on,,0,0,11,,,,,,,,,,,,,,,,15,,63,0
22139,note_on,,14,0,8,,,,,,,,,,,,,,,,11,,63,0
22139,note_on,,0,0,11,,,,,,,,,,,,,,,,15,,55,0
22139,note_on,,14,0,7,,,,,,,,,,,,,,,,10,,67,0
22139,note_on,,59,0,11,,,,,,,,,,,,,,,,15,,46,0
22139,note_on,,299,0,10,,,,,,,,,,,,,,,,13,,46,0
22139,note_on,,0,0,11,,,,,,,,,,,,,,,,15,,58,0
22140,note_on,,0,0,11,,,,,,,,,,,,,,,,15,,58,72
22140,note_on,,0,0,11,,,,,,,,,,,,,,,,15,,65,72
22140,note_on,,1,0,11,,,,,,,,,,,,,,,,15,,62,72
22140,note_on,,1,0,10,,,,,,,,,,,,,,,,13,,46,72
22140,note_on,,1,0,7,,,,,,,,,,,,,,,,10,,65,72
22140,note_on,,1,0,8,,,,,,,,,,,,,,,,11,,62,72
22140,note_on,,1,0,5,,,,,,,,,,,,,,,,2,,46,72
22140,note_on,,0,0,11,,,,,,,,,,,,,,,,15,,46,72
22199,note_on,,59,0,11,,,,,,,,,,,,,,,,15,,58,0
22199,note_on,,59,0,8,,,,,,,,,,,,,,,,11,,62,0
22199,note_on,,59,0,10,,,,,,,,,,,,,,,,13,,46,0
22199,note_on,,59,0,5,,,,,,,,,,,,,,,,2,,46,0
22199,note_on,,59,0,7,,,,,,,,,,,,,,,,10,,65,0
22199,note_on,,0,0,11,,,,,,,,,,,,,,,,15,,46,0
22199,note_on,,119,0,9,,,,,,,,,,,,,,,,12,,58,0
22200,note_on,,1,0,5,,,,,,,,,,,,,,,,2,,58,72
22200,note_on,,1,0,11,,,,,,,,,,,,,,,,15,,58,72
22200,note_on,,1,0,10,,,,,,,,,,,,,,,,13,,58,72
22259,note_on,,0,0,11,,,,,,,,,,,,,,,,15,,65,0
22259,note_on,,59,0,11,,,,,,,,,,,,,,,,15,,62,0
22260,note_on,,1,0,11,,,,,,,,,,,,,,,,15,,62,72
22260,note_on,,0,0,11,,,,,,,,,,,,,,,,15,,65,72
22260,note_on,,61,0,7,,,,,,,,,,,,,,,,10,,82,72
22260,note_on,,0,0,11,,,,,,,,,,,,,,,,15,,70,72
22319,note_on,,59,0,11,,,,,,,,,,,,,,,,15,,62,0
22319,note_on,,0,0,11,,,,,,,,,,,,,,,,15,,65,0
22319,note_on,,59,0,7,,,,,,,,,,,,,,,,10,,82,0
22320,note_on,,1,0,11,,,,,,,,,,,,,,,,15,,63,72
22320,note_on,,0,0,11,,,,,,,,,,,,,,,,15,,66,72
22320,note_on,,1,0,7,,,,,,,,,,,,,,,,10,,78,72
22379,note_on,,59,0,7,,,,,,,,,,,,,,,,10,,78,0
22379,note_on,,0,0,11,,,,,,,,,,,,,,,,15,,66,0
22379,note_on,,59,0,11,,,,,,,,,,,,,,,,15,,63,0
22380,note_on,,0,0,11,,,,,,,,,,,,,,,,15,,68,72
22380,note_on,,1,0,7,,,,,,,,,,,,,,,,10,,74,72
22380,note_on,,1,0,11,,,,,,,,,,,,,,,,15,,65,72
22439,note_on,,59,0,11,,,,,,,,,,,,,,,,15,,70,0
22439,note_on,,0,0,11,,,,,,,,,,,,,,,,15,,65,0
22439,note_on,,0,0,11,,,,,,,,,,,,,,,,15,,68,0
22439,note_on,,59,0,7,,,,,,,,,,,,,,,,10,,74,0
22440,note_on,,1,0,11,,,,,,,,,,,,,,,,15,,75,72
22440,note_on,,0,0,11,,,,,,,,,,,,,,,,15,,66,72
22440,note_on,,1,0,7,,,,,,,,,,,,,,,,10,,75,72
22440,note_on,,0,0,11,,,,,,,,,,,,,,,,15,,70,72
22499,note_on,,59,0,11,,,,,,,,,,,,,,,,15,,75,0
22499,note_on,,0,0,11,,,,,,,,,,,,,,,,15,,66,0
22499,note_on,,59,0,7,,,,,,,,,,,,,,,,10,,75,0
22500,note_on,,301,0,9,,,,,,,,,,,,,,,,12,,65,72
22500,note_on,,301,0,8,,,,,,,,,,,,,,,,11,,62,72
22500,note_on,,1,0,7,,,,,,,,,,,,,,,,10,,70,72
22500,note_on,,1,0,11,,,,,,,,,,,,,,,,15,,74,72
22500,note_on,,0,0,11,,,,,,,,,,,,,,,,15,,65,72
22559,note_on,,0,0,11,,,,,,,,,,,,,,,,15,,74,0
22559,note_on,,59,0,8,,,,,,,,,,,,,,,,11,,62,0
22559,note_on,,0,0,11,,,,,,,,,,,,,,,,15,,65,0
22559,note_on,,59,0,9,,,,,,,,,,,,,,,,12,,65,0
22559,note_on,,59,0,11,,,,,,,,,,,,,,,,15,,70,0
22559,note_on,,59,0,7,,,,,,,,,,,,,,,,10,,70,0
22560,note_on,,1,0,11,,,,,,,,,,,,,,,,15,,66,72
22560,note_on,,0,0,11,,,,,,,,,,,,,,,,15,,71,72
22560,note_on,,0,0,11,,,,,,,,,,,,,,,,15,,75,72
22560,note_on,,1,0,7,,,,,,,,,,,,,,,,10,,71,72
22560,note_on,,1,0,8,,,,,,,,,,,,,,,,11,,63,72
22560,note_on,,1,0,9,,,,,,,,,,,,,,,,12,,66,72
22619,note_on,,419,0,5,,,,,,,,,,,,,,,,2,,58,0
22619,note_on,,419,0,10,,,,,,,,,,,,,,,,13,,58,0
22619,note_on,,0,0,11,,,,,,,,,,,,,,,,15,,66,0
22619,note_on,,59,0,11,,,,,,,,,,,,,,,,15,,58,0
22620,note_on,,1,0,10,,,,,,,,,,,,,,,,13,,58,72
22620,note_on,,0,0,11,,,,,,,,,,,,,,,,15,,66,72
22620,note_on,,1,0,11,,,,,,,,,,,,,,,,15,,58,72
22620,note_on,,1,0,5,,,,,,,,,,,,,,,,2,,58,72
22679,note_on,,59,0,5,,,,,,,,,,,,,,,,2,,58,0
22679,note_on,,59,0,10,,,,,,,,,,,,,,,,13,,58,0
22679,note_on,,0,0,11,,,,,,,,,,,,,,,,15,,66,0
22679,note_on,,59,0,11,,,,,,,,,,,,,,,,15,,58,0
22679,note_on,,119,0,9,,,,,,,,,,,,,,,,12,,66,0
22680,note_on,,1,0,5,,,,,,,,,,,,,,,,2,,56,72
22680,note_on,,1,0,11,,,,,,,,,,,,,,,,15,,65,72
22680,note_on,,0,0,11,,,,,,,,,,,,,,,,15,,56,72
22680,note_on,,1,0,9,,,,,,,,,,,,,,,,12,,65,72
22680,note_on,,1,0,10,,,,,,,,,,,,,,,,13,,56,72
22739,note_on,,179,0,8,,,,,,,,,,,,,,,,11,,63,0
22740,note_on,,1,0,8,,,,,,,,,,,,,,,,11,,65,72
22769,note_on,,29,0,8,,,,,,,,,,,,,,,,11,,65,0
22770,note_on,,1,0,8,,,,,,,,,,,,,,,,11,,63,72
22799,note_on,,0,0,11,,,,,,,,,,,,,,,,15,,75,0
22799,note_on,,239,0,7,,,,,,,,,,,,,,,,10,,71,0
22799,note_on,,29,0,8,,,,,,,,,,,,,,,,11,,63,0
22799,note_on,,0,0,11,,,,,,,,,,,,,,,,15,,65,0
22799,note_on,,119,0,11,,,,,,,,,,,,,,,,15,,71,0
22800,note_on,,1,0,7,,,,,,,,,,,,,,,,10,,70,72
22800,note_on,,1,0,8,,,,,,,,,,,,,,,,11,,62,72
22800,note_on,,1,0,11,,,,,,,,,,,,,,,,15,,65,72
22815,note_on,,15,0,11,,,,,,,,,,,,,,,,15,,70,72
22830,note_on,,15,0,11,,,,,,,,,,,,,,,,15,,74,72
22845,note_on,,15,0,11,,,,,,,,,,,,,,,,15,,77,72
22859,note_on,,179,0,10,,,,,,,,,,,,,,,,13,,56,0
22859,note_on,,179,0,5,,,,,,,,,,,,,,,,2,,56,0
22859,note_on,,0,0,11,,,,,,,,,,,,,,,,15,,74,0
22859,note_on,,0,0,11,,,,,,,,,,,,,,,,15,,70,0
22859,note_on,,14,0,11,,,,,,,,,,,,,,,,15,,56,0
22859,note_on,,0,0,11,,,,,,,,,,,,,,,,15,,77,0
22860,note_on,,1,0,10,,,,,,,,,,,,,,,,13,,55,72
22860,note_on,,1,0,5,,,,,,,,,,,,,,,,2,,55,72
22860,note_on,,0,0,11,,,,,,,,,,,,,,,,15,,55,72
22860,note_on,,1,0,11,,,,,,,,,,,,,,,,15,,70,72
22889,note_on,,29,0,5,,,,,,,,,,,,,,,,2,,55,0
22889,note_on,,29,0,11,,,,,,,,,,,,,,,,15,,55,0
22889,note_on,,29,0,10,,,,,,,,,,,,,,,,13,,55,0
22890,note_on,,1,0,11,,,,,,,,,,,,,,,,15,,53,72
22890,note_on,,1,0,5,,,,,,,,,,,,,,,,2,,53,72
22890,note_on,,1,0,10,,,,,,,,,,,,,,,,13,,53,72
22919,note_on,,239,0,9,,,,,,,,,,,,,,,,12,,65,0
22919,note_on,,119,0,8,,,,,,,,,,,,,,,,11,,62,0
22919,note_on,,29,0,11,,,,,,,,,,,,,,,,15,,65,0
22919,note_on,,0,0,11,,,,,,,,,,,,,,,,15,,53,0
22919,note_on,,29,0,10,,,,,,,,,,,,,,,,13,,53,0
22919,note_on,,29,0,5,,,,,,,,,,,,,,,,2,,53,0
22920,note_on,,1,0,5,,,,,,,,,,,,,,,,2,,55,72
22920,note_on,,1,0,9,,,,,,,,,,,,,,,,12,,63,72
22920,note_on,,1,0,11,,,,,,,,,,,,,,,,15,,58,72
22920,note_on,,0,0,11,,,,,,,,,,,,,,,,15,,55,72
22920,note_on,,1,0,8,,,,,,,,,,,,,,,,11,,63,72
22920,note_on,,1,0,10,,,,,,,,,,,,,,,,13,,55,72
22979,note_on,,0,0,11,,,,,,,,,,,,,,,,15,,55,0
22979,note_on,,0,0,11,,,,,,,,,,,,,,,,15,,58,0
22979,note_on,,59,0,5,,,,,,,,,,,,,,,,2,,55,0
22979,note_on,,59,0,11,,,,,,,,,,,,,,,,15,,70,0
22979,note_on,,179,0,7,,,,,,,,,,,,,,,,10,,70,0
22979,note_on,,59,0,10,,,,,,,,,,,,,,,,13,,55,0
22980,note_on,,1,0,10,,,,,,,,,,,,,,,,13,,56,72
22980,note_on,,1,0,5,,,,,,,,,,,,,,,,2,,56,72
22980,note_on,,0,0,11,,,,,,,,,,,,,,,,15,,68,72
22980,note_on,,0,0,11,,,,,,,,,,,,,,,,15,,63,72
22980,note_on,,1,0,11,,,,,,,,,,,,,,,,15,,72,72
22980,note_on,,1,0,7,,,,,,,,,,,,,,,,10,,68,72
22980,note_on,,0,0,11,,,,,,,,,,,,,,,,15,,56,72
23039,note_on,,0,0,11,,,,,,,,,,,,,,,,15,,63,0
23039,note_on,,0,0,11,,,,,,,,,,,,,,,,15,,68,0
23039,note_on,,0,0,11,,,,,,,,,,,,,,,,15,,56,0
23039,note_on,,59,0,10,,,,,,,,,,,,,,,,13,,56,0
23039,note_on,,119,0,9,,,,,,,,,,,,,,,,12,,63,0
23039,note_on,,59,0,7,,,,,,,,,,,,,,,,10,,68,0
23039,note_on,,59,0,11,,,,,,,,,,,,,,,,15,,72,0
23039,note_on,,59,0,5,,,,,,,,,,,,,,,,2,,56,0
23040,note_on,,1,0,5,,,,,,,,,,,,,,,,2,,58,72
23040,note_on,,1,0,9,,,,,,,,,,,,,,,,12,,58,72
23040,note_on,,0,0,11,,,,,,,,,,,,,,,,15,,67,72
23040,note_on,,1,0,11,,,,,,,,,,,,,,,,15,,58,72
23040,note_on,,1,0,7,,,,,,,,,,,,,,,,10,,67,72
23040,note_on,,0,0,11,,,,,,,,,,,,,,,,15,,63,72
23040,note_on,,1,0,10,,,,,,,,,,,,,,,,13,,58,72
23159,note_on,,0,0,11,,,,,,,,,,,,,,,,15,,67,0
23159,note_on,,0,0,11,,,,,,,,,,,,,,,,15,,63,0
23159,note_on,,239,0,8,,,,,,,,,,,,,,,,11,,63,0
23159,note_on,,119,0,9,,,,,,,,,,,,,,,,12,,58,0
23159,note_on,,119,0,7,,,,,,,,,,,,,,,,10,,67,0
23159,note_on,,119,0,10,,,,,,,,,,,,,,,,13,,58,0
23159,note_on,,119,0,11,,,,,,,,,,,,,,,,15,,58,0
23159,note_on,,119,0,5,,,,,,,,,,,,,,,,2,,58,0
23160,note_on,,1,0,5,,,,,,,,,,,,,,,,2,,46,72
23160,note_on,,1,0,11,,,,,,,,,,,,,,,,15,,65,72
23160,note_on,,0,0,11,,,,,,,,,,,,,,,,15,,56,72
23160,note_on,,0,0,11,,,,,,,,,,,,,,,,15,,62,72
23160,note_on,,1,0,8,,,,,,,,,,,,,,,,11,,62,72
23160,note_on,,0,0,11,,,,,,,,,,,,,,,,15,,46,72
23160,note_on,,1,0,10,,,,,,,,,,,,,,,,13,,46,72
23160,note_on,,1,0,9,,,,,,,,,,,,,,,,12,,56,72
23160,note_on,,1,0,7,,,,,,,,,,,,,,,,10,,65,72
23249,note_on,,89,0,7,,,,,,,,,,,,,,,,10,,65,0
23249,note_on,,89,0,9,,,,,,,,,,,,,,,,12,,56,0
23250,note_on,,1,0,9,,,,,,,,,,,,,,,,12,,55,72
23250,note_on,,1,0,7,,,,,,,,,,,,,,,,10,,63,72
23279,note_on,,29,0,7,,,,,,,,,,,,,,,,10,,63,0
23279,note_on,,29,0,9,,,,,,,,,,,,,,,,12,,55,0
23279,note_on,,119,0,11,,,,,,,,,,,,,,,,15,,65,0
23279,note_on,,119,0,10,,,,,,,,,,,,,,,,13,,46,0
23279,note_on,,0,0,11,,,,,,,,,,,,,,,,15,,46,0
23279,note_on,,0,0,11,,,,,,,,,,,,,,,,15,,62,0
23279,note_on,,0,0,11,,,,,,,,,,,,,,,,15,,56,0
23279,note_on,,119,0,8,,,,,,,,,,,,,,,,11,,62,0
23279,note_on,,119,0,5,,,,,,,,,,,,,,,,2,,46,0
23280,note_on,,1,0,7,,,,,,,,,,,,,,,,10,,63,72
23280,note_on,,1,0,9,,,,,,,,,,,,,,,,12,,55,72
23280,set_tempo,,23280,1,0,,,,,,,,,2400000,,,,,,,,,,
23280,note_on,,1,0,5,,,,,,,,,,,,,,,,2,,39,72
23280,note_on,,1,0,11,,,,,,,,,,,,,,,,15,,39,72
23280,note_on,,0,0,11,,,,,,,,,,,,,,,,15,,55,72
23280,note_on,,0,0,11,,,,,,,,,,,,,,,,15,,58,72
23280,note_on,,0,0,11,,,,,,,,,,,,,,,,15,,63,72
23280,note_on,,1,0,10,,,,,,,,,,,,,,,,13,,39,72
23280,note_on,,1,0,8,,,,,,,,,,,,,,,,11,,63,72
23399,note_on,,119,0,11,,,,,,,,,,,,,,,,15,,39,0
23399,note_on,,119,0,8,,,,,,,,,,,,,,,,11,,63,0
23399,note_on,,119,0,7,,,,,,,,,,,,,,,,10,,63,0
23399,note_on,,0,0,11,,,,,,,,,,,,,,,,15,,55,0
23399,note_on,,119,0,9,,,,,,,,,,,,,,,,12,,55,0
23399,note_on,,119,0,10,,,,,,,,,,,,,,,,13,,39,0
23399,note_on,,0,0,11,,,,,,,,,,,,,,,,15,,63,0
23399,note_on,,119,0,5,,,,,,,,,,,,,,,,2,,39,0
23399,note_on,,0,0,11,,,,,,,,,,,,,,,,15,,58,0
23400,set_tempo,,120,1,0,,,,,,,,,1090909,,,,,,,,,,
23520,note_on,,121,0,8,,,,,,,,,,,,,,,,11,,63,56
23520,note_on,,121,0,7,,,,,,,,,,,,,,,,10,,67,56
23520,note_on,,0,0,11,,,,,,,,,,,,,,,,15,,63,56
23520,note_on,,121,0,9,,,,,,,,,,,,,,,,12,,60,56
23520,note_on,,0,0,11,,,,,,,,,,,,,,,,15,,55,56
23520,note_on,,0,0,11,,,,,,,,,,,,,,,,15,,60,56
23520,note_on,,121,0,10,,,,,,,,,,,,,,,,13,,48,56
23520,note_on,,121,0,11,,,,,,,,,,,,,,,,15,,48,56
23564,note_on,,44,0,8,,,,,,,,,,,,,,,,11,,63,0
23564,note_on,,44,0,10,,,,,,,,,,,,,,,,13,,48,0
23564,note_on,,44,0,7,,,,,,,,,,,,,,,,10,,67,0
23564,note_on,,44,0,11,,,,,,,,,,,,,,,,15,,48,0
23564,note_on,,44,0,9,,,,,,,,,,,,,,,,12,,60,0
23565,note_on,,1,0,9,,,,,,,,,,,,,,,,12,,60,56
23565,note_on,,1,0,10,,,,,,,,,,,,,,,,13,,48,56
23565,note_on,,1,0,7,,,,,,,,,,,,,,,,10,,67,56
23565,note_on,,1,0,11,,,,,,,,,,,,,,,,15,,48,56
23565,note_on,,1,0,8,,,,,,,,,,,,,,,,11,,63,56
23579,note_on,,14,0,11,,,,,,,,,,,,,,,,15,,48,0
23579,note_on,,14,0,9,,,,,,,,,,,,,,,,12,,60,0
23579,note_on,,14,0,8,,,,,,,,,,,,,,,,11,,63,0
23579,note_on,,14,0,10,,,,,,,,,,,,,,,,13,,48,0
23579,note_on,,14,0,7,,,,,,,,,,,,,,,,10,,67,0
23580,note_on,,1,0,8,,,,,,,,,,,,,,,,11,,63,56
23580,note_on,,1,0,9,,,,,,,,,,,,,,,,12,,60,56
23580,note_on,,1,0,7,,,,,,,,,,,,,,,,10,,67,56
23580,note_on,,1,0,10,,,,,,,,,,,,,,,,13,,48,56
23580,note_on,,1,0,11,,,,,,,,,,,,,,,,15,,48,56
23580,note_on,,3181,0,6,,,,,,,,,,,,,,,,6,,67,67
23624,note_on,,44,0,10,,,,,,,,,,,,,,,,13,,48,0
23624,note_on,,44,0,11,,,,,,,,,,,,,,,,15,,48,0
23624,note_on,,44,0,9,,,,,,,,,,,,,,,,12,,60,0
23624,note_on,,44,0,8,,,,,,,,,,,,,,,,11,,63,0
23624,note_on,,44,0,7,,,,,,,,,,,,,,,,10,,67,0
23624,note_on,,44,0,6,,,,,,,,,,,,,,,,6,,67,0
23625,note_on,,1,0,7,,,,,,,,,,,,,,,,10,,67,56
23625,note_on,,1,0,10,,,,,,,,,,,,,,,,13,,48,56
23625,note_on,,1,0,8,,,,,,,,,,,,,,,,11,,63,56
23625,note_on,,1,0,6,,,,,,,,,,,,,,,,6,,65,60
23625,note_on,,1,0,11,,,,,,,,,,,,,,,,15,,48,56
23625,note_on,,1,0,9,,,,,,,,,,,,,,,,12,,60,56
23639,note_on,,0,0,11,,,,,,,,,,,,,,,,15,,48,0
23639,note_on,,14,0,10,,,,,,,,,,,,,,,,13,,48,0
23639,note_on,,14,0,9,,,,,,,,,,,,,,,,12,,60,0
23639,note_on,,14,0,11,,,,,,,,,,,,,,,,15,,63,0
23639,note_on,,0,0,11,,,,,,,,,,,,,,,,15,,55,0
23639,note_on,,14,0,7,,,,,,,,,,,,,,,,10,,67,0
23639,note_on,,14,0,8,,,,,,,,,,,,,,,,11,,63,0
23639,note_on,,0,0,11,,,,,,,,,,,,,,,,15,,60,0
23639,note_on,,14,0,6,,,,,,,,,,,,,,,,6,,65,0
23640,note_on,,1,0,10,,,,,,,,,,,,,,,,13,,48,56
23640,note_on,,1,0,9,,,,,,,,,,,,,,,,12,,60,56
23640,note_on,,1,0,6,,,,,,,,,,,,,,,,6,,63,65
23640,note_on,,1,0,7,,,,,,,,,,,,,,,,10,,67,56
23640,note_on,,0,0,11,,,,,,,,,,,,,,,,15,,55,56
23640,note_on,,0,0,11,,,,,,,,,,,,,,,,15,,51,56
23640,note_on,,1,0,8,,,,,,,,,,,,,,,,11,,63,56
23640,note_on,,0,0,11,,,,,,,,,,,,,,,,15,,48,56
23640,note_on,,1,0,11,,,,,,,,,,,,,,,,15,,60,56
23684,note_on,,44,0,8,,,,,,,,,,,,,,,,11,,63,0
23684,note_on,,44,0,11,,,,,,,,,,,,,,,,15,,48,0
23684,note_on,,44,0,9,,,,,,,,,,,,,,,,12,,60,0
23684,note_on,,44,0,6,,,,,,,,,,,,,,,,6,,63,0
23684,note_on,,44,0,10,,,,,,,,,,,,,,,,13,,48,0
23684,note_on,,44,0,7,,,,,,,,,,,,,,,,10,,67,0
23685,note_on,,1,0,10,,,,,,,,,,,,,,,,13,,48,56
23685,note_on,,1,0,9,,,,,,,,,,,,,,,,12,,60,56
23685,note_on,,1,0,8,,,,,,,,,,,,,,,,11,,63,56
23685,note_on,,1,0,11,,,,,,,,,,,,,,,,15,,48,56
23685,note_on,,1,0,6,,,,,,,,,,,,,,,,6,,62,60
23685,note_on,,1,0,7,,,,,,,,,,,,,,,,10,,67,56
23699,note_on,,14,0,8,,,,,,,,,,,,,,,,11,,63,0
23699,note_on,,14,0,9,,,,,,,,,,,,,,,,12,,60,0
23699,note_on,,14,0,11,,,,,,,,,,,,,,,,15,,48,0
23699,note_on,,14,0,6,,,,,,,,,,,,,,,,6,,62,0
23699,note_on,,14,0,7,,,,,,,,,,,,,,,,10,,67,0
23699,note_on,,14,0,10,,,,,,,,,,,,,,,,13,,48,0
23700,note_on,,1,0,9,,,,,,,,,,,,,,,,12,,60,56
23700,note_on,,1,0,11,,,,,,,,,,,,,,,,15,,48,56
23700,note_on,,1,0,6,,,,,,,,,,,,,,,,6,,60,63
23700,note_on,,1,0,7,,,,,,,,,,,,,,,,10,,67,56
23700,note_on,,1,0,8,,,,,,,,,,,,,,,,11,,63,56
23700,note_on,,1,0,10,,,,,,,,,,,,,,,,13,,48,56
23744,note_on,,44,0,10,,,,,,,,,,,,,,,,13,,48,0
23744,note_on,,44,0,9,,,,,,,,,,,,,,,,12,,60,0
23744,note_on,,44,0,7,,,,,,,,,,,,,,,,10,,67,0
23744,note_on,,44,0,11,,,,,,,,,,,,,,,,15,,48,0
23744,note_on,,44,0,8,,,,,,,,,,,,,,,,11,,63,0
23745,note_on,,1,0,9,,,,,,,,,,,,,,,,12,,60,56
23745,note_on,,1,0,8,,,,,,,,,,,,,,,,11,,63,56
23745,note_on,,1,0,11,,,,,,,,,,,,,,,,15,,48,56
23745,note_on,,1,0,10,,,,,,,,,,,,,,,,13,,48,56
23745,note_on,,1,0,7,,,,,,,,,,,,,,,,10,,67,56
23759,note_on,,0,0,11,,,,,,,,,,,,,,,,15,,48,0
23759,note_on,,14,0,9,,,,,,,,,,,,,,,,12,,60,0
23759,note_on,,14,0,10,,,,,,,,,,,,,,,,13,,48,0
23759,note_on,,0,0,11,,,,,,,,,,,,,,,,15,,55,0
23759,note_on,,0,0,11,,,,,,,,,,,,,,,,15,,51,0
23759,note_on,,14,0,11,,,,,,,,,,,,,,,,15,,60,0
23759,note_on,,14,0,7,,,,,,,,,,,,,,,,10,,67,0
23759,note_on,,59,0,6,,,,,,,,,,,,,,,,6,,60,0
23759,note_on,,14,0,8,,,,,,,,,,,,,,,,11,,63,0
23760,note_on,,1,0,9,,,,,,,,,,,,,,,,12,,68,56
23760,note_on,,1,0,8,,,,,,,,,,,,,,,,11,,65,56
23760,note_on,,0,0,11,,,,,,,,,,,,,,,,15,,62,56
23760,note_on,,0,0,11,,,,,,,,,,,,,,,,15,,48,56
23760,note_on,,0,0,11,,,,,,,,,,,,,,,,15,,53,56
23760,note_on,,1,0,11,,,,,,,,,,,,,,,,15,,56,56
23760,note_on,,1,0,7,,,,,,,,,,,,,,,,10,,74,56
23760,note_on,,1,0,10,,,,,,,,,,,,,,,,13,,48,56
23760,note_on,,1,0,6,,,,,,,,,,,,,,,,6,,65,67
23804,note_on,,44,0,8,,,,,,,,,,,,,,,,11,,65,0
23804,note_on,,44,0,9,,,,,,,,,,,,,,,,12,,68,0
23804,note_on,,44,0,7,,,,,,,,,,,,,,,,10,,74,0
23804,note_on,,44,0,11,,,,,,,,,,,,,,,,15,,48,0
23804,note_on,,44,0,10,,,,,,,,,,,,,,,,13,,48,0
23805,note_on,,1,0,10,,,,,,,,,,,,,,,,13,,48,56
23805,note_on,,1,0,9,,,,,,,,,,,,,,,,12,,68,56
23805,note_on,,1,0,8,,,,,,,,,,,,,,,,11,,65,56
23805,note_on,,1,0,11,,,,,,,,,,,,,,,,15,,48,56
23805,note_on,,1,0,7,,,,,,,,,,,,,,,,10,,74,56
23819,note_on,,14,0,9,,,,,,,,,,,,,,,,12,,68,0
23819,note_on,,14,0,8,,,,,,,,,,,,,,,,11,,65,0
23819,note_on,,14,0,11,,,,,,,,,,,,,,,,15,,48,0
23819,note_on,,14,0,7,,,,,,,,,,,,,,,,10,,74,0
23819,note_on,,14,0,10,,,,,,,,,,,,,,,,13,,48,0
23820,note_on,,1,0,10,,,,,,,,,,,,,,,,13,,48,56
23820,note_on,,1,0,7,,,,,,,,,,,,,,,,10,,74,56
23820,note_on,,1,0,11,,,,,,,,,,,,,,,,15,,48,56
23820,note_on,,1,0,8,,,,,,,,,,,,,,,,11,,65,56
23820,note_on,,1,0,9,,,,,,,,,,,,,,,,12,,68,56
23864,note_on,,44,0,11,,,,,,,,,,,,,,,,15,,48,0
23864,note_on,,44,0,9,,,,,,,,,,,,,,,,12,,68,0
23864,note_on,,44,0,7,,,,,,,,,,,,,,,,10,,74,0
23864,note_on,,44,0,10,,,,,,,,,,,,,,,,13,,48,0
23864,note_on,,44,0,8,,,,,,,,,,,,,,,,11,,65,0
23865,note_on,,1,0,8,,,,,,,,,,,,,,,,11,,65,56
23865,note_on,,1,0,10,,,,,,,,,,,,,,,,13,,48,56
23865,note_on,,1,0,7,,,,,,,,,,,,,,,,10,,74,56
23865,note_on,,1,0,9,,,,,,,,,,,,,,,,12,,68,56
23865,note_on,,1,0,11,,,,,,,,,,,,,,,,15,,48,56
23879,note_on,,0,0,11,,,,,,,,,,,,,,,,15,,53,0
23879,note_on,,14,0,11,,,,,,,,,,,,,,,,15,,56,0
23879,note_on,,14,0,9,,,,,,,,,,,,,,,,12,,68,0
23879,note_on,,0,0,11,,,,,,,,,,,,,,,,15,,62,0
23879,note_on,,0,0,11,,,,,,,,,,,,,,,,15,,48,0
23879,note_on,,14,0,10,,,,,,,,,,,,,,,,13,,48,0
23879,note_on,,14,0,7,,,,,,,,,,,,,,,,10,,74,0
23879,note_on,,14,0,8,,,,,,,,,,,,,,,,11,,65,0
23879,note_on,,119,0,6,,,,,,,,,,,,,,,,6,,65,0
23880,note_on,,1,0,9,,,,,,,,,,,,,,,,12,,62,56
23880,note_on,,1,0,10,,,,,,,,,,,,,,,,13,,47,56
23880,note_on,,1,0,8,,,,,,,,,,,,,,,,11,,67,56
23880,note_on,,1,0,11,,,,,,,,,,,,,,,,15,,62,56
23880,note_on,,0,0,11,,,,,,,,,,,,,,,,15,,67,56
23880,note_on,,0,0,11,,,,,,,,,,,,,,,,15,,47,56
23880,note_on,,0,0,11,,,,,,,,,,,,,,,,15,,55,56
23880,note_on,,1,0,7,,,,,,,,,,,,,,,,10,,74,56
23924,note_on,,44,0,11,,,,,,,,,,,,,,,,15,,47,0
23924,note_on,,44,0,9,,,,,,,,,,,,,,,,12,,62,0
23924,note_on,,44,0,8,,,,,,,,,,,,,,,,11,,67,0
23924,note_on,,44,0,10,,,,,,,,,,,,,,,,13,,47,0
23924,note_on,,44,0,7,,,,,,,,,,,,,,,,10,,74,0
23925,note_on,,1,0,11,,,,,,,,,,,,,,,,15,,47,56
23925,note_on,,1,0,7,,,,,,,,,,,,,,,,10,,74,56
23925,note_on,,1,0,10,,,,,,,,,,,,,,,,13,,47,56
23925,note_on,,1,0,9,,,,,,,,,,,,,,,,12,,62,56
23925,note_on,,1,0,8,,,,,,,,,,,,,,,,11,,67,56
23939,note_on,,14,0,7,,,,,,,,,,,,,,,,10,,74,0
23939,note_on,,14,0,10,,,,,,,,,,,,,,,,13,,47,0
23939,note_on,,14,0,9,,,,,,,,,,,,,,,,12,,62,0
23939,note_on,,14,0,11,,,,,,,,,,,,,,,,15,,47,0
23939,note_on,,14,0,8,,,,,,,,,,,,,,,,11,,67,0
23940,note_on,,1,0,10,,,,,,,,,,,,,,,,13,,47,56
23940,note_on,,1,0,11,,,,,,,,,,,,,,,,15,,47,56
23940,note_on,,1,0,9,,,,,,,,,,,,,,,,12,,62,56
23940,note_on,,1,0,8,,,,,,,,,,,,,,,,11,,67,56
23940,note_on,,1,0,7,,,,,,,,,,,,,,,,10,,74,56
23940,note_on,,61,0,6,,,,,,,,,,,,,,,,6,,68,60
23954,note_on,,14,0,6,,,,,,,,,,,,,,,,6,,68,0
23955,note_on,,1,0,6,,,,,,,,,,,,,,,,6,,67,67
23969,note_on,,14,0,6,,,,,,,,,,,,,,,,6,,67,0
23970,note_on,,1,0,6,,,,,,,,,,,,,,,,6,,65,62
23984,note_on,,44,0,9,,,,,,,,,,,,,,,,12,,62,0
23984,note_on,,44,0,10,,,,,,,,,,,,,,,,13,,47,0
23984,note_on,,44,0,7,,,,,,,,,,,,,,,,10,,74,0
23984,note_on,,44,0,11,,,,,,,,,,,,,,,,15,,47,0
23984,note_on,,44,0,8,,,,,,,,,,,,,,,,11,,67,0
23985,note_on,,1,0,8,,,,,,,,,,,,,,,,11,,67,56
23985,note_on,,1,0,10,,,,,,,,,,,,,,,,13,,47,56
23985,note_on,,1,0,11,,,,,,,,,,,,,,,,15,,47,56
23985,note_on,,1,0,9,,,,,,,,,,,,,,,,12,,62,56
23985,note_on,,1,0,7,,,,,,,,,,,,,,,,10,,74,56
23999,note_on,,0,0,11,,,,,,,,,,,,,,,,15,,47,0
23999,note_on,,14,0,9,,,,,,,,,,,,,,,,12,,62,0
23999,note_on,,14,0,11,,,,,,,,,,,,,,,,15,,62,0
23999,note_on,,0,0,11,,,,,,,,,,,,,,,,15,,55,0
23999,note_on,,14,0,10,,,,,,,,,,,,,,,,13,,47,0
23999,note_on,,14,0,8,,,,,,,,,,,,,,,,11,,67,0
23999,note_on,,29,0,6,,,,,,,,,,,,,,,,6,,65,0
23999,note_on,,14,0,7,,,,,,,,,,,,,,,,10,,74,0
24000,note_on,,1,0,9,,,,,,,,,,,,,,,,12,,60,56
24000,note_on,,0,0,11,,,,,,,,,,,,,,,,15,,48,56
24000,note_on,,1,0,6,,,,,,,,,,,,,,,,6,,63,61
24000,note_on,,0,0,11,,,,,,,,,,,,,,,,15,,55,56
24000,note_on,,1,0,11,,,,,,,,,,,,,,,,15,,63,56
24000,note_on,,1,0,7,,,,,,,,,,,,,,,,10,,63,56
24000,note_on,,1,0,8,,,,,,,,,,,,,,,,11,,67,56
24000,note_on,,1,0,10,,,,,,,,,,,,,,,,13,,48,56
24000,note_on,,0,0,11,,,,,,,,,,,,,,,,15,,60,56
24029,note_on,,29,0,6,,,,,,,,,,,,,,,,6,,63,0
24030,note_on,,1,0,6,,,,,,,,,,,,,,,,6,,62,66
24044,note_on,,44,0,11,,,,,,,,,,,,,,,,15,,48,0
24044,note_on,,44,0,7,,,,,,,,,,,,,,,,10,,63,0
24044,note_on,,44,0,8,,,,,,,,,,,,,,,,11,,67,0
24044,note_on,,44,0,9,,,,,,,,,,,,,,,,12,,60,0
24044,note_on,,44,0,10,,,,,,,,,,,,,,,,13,,48,0
24045,note_on,,1,0,7,,,,,,,,,,,,,,,,10,,63,56
24045,note_on,,1,0,8,,,,,,,,,,,,,,,,11,,67,56
24045,note_on,,1,0,11,,,,,,,,,,,,,,,,15,,48,56
24045,note_on,,1,0,10,,,,,,,,,,,,,,,,13,,48,56
24045,note_on,,1,0,9,,,,,,,,,,,,,,,,12,,60,56
24059,note_on,,14,0,11,,,,,,,,,,,,,,,,15,,48,0
24059,note_on,,29,0,6,,,,,,,,,,,,,,,,6,,62,0
24059,note_on,,14,0,9,,,,,,,,,,,,,,,,12,,60,0
24059,note_on,,14,0,7,,,,,,,,,,,,,,,,10,,63,0
24059,note_on,,14,0,8,,,,,,,,,,,,,,,,11,,67,0
24059,note_on,,14,0,10,,,,,,,,,,,,,,,,13,,48,0
24060,note_on,,1,0,11,,,,,,,,,,,,,,,,15,,48,56
24060,note_on,,1,0,6,,,,,,,,,,,,,,,,6,,60,63
24060,note_on,,1,0,9,,,,,,,,,,,,,,,,12,,60,56
24060,note_on,,1,0,10,,,,,,,,,,,,,,,,13,,48,56
24060,note_on,,1,0,7,,,,,,,,,,,,,,,,10,,63,56
24060,note_on,,1,0,8,,,,,,,,,,,,,,,,11,,67,56
24104,note_on,,44,0,10,,,,,,,,,,,,,,,,13,,48,0
24104,note_on,,44,0,7,,,,,,,,,,,,,,,,10,,63,0
24104,note_on,,44,0,8,,,,,,,,,,,,,,,,11,,67,0
24104,note_on,,44,0,9,,,,,,,,,,,,,,,,12,,60,0
24104,note_on,,44,0,11,,,,,,,,,,,,,,,,15,,48,0
24105,note_on,,1,0,9,,,,,,,,,,,,,,,,12,,60,56
24105,note_on,,1,0,10,,,,,,,,,,,,,,,,13,,48,56
24105,note_on,,1,0,11,,,,,,,,,,,,,,,,15,,48,56
24105,note_on,,1,0,8,,,,,,,,,,,,,,,,11,,67,56
24105,note_on,,1,0,7,,,,,,,,,,,,,,,,10,,63,56
24119,note_on,,14,0,7,,,,,,,,,,,,,,,,10,,63,0
24119,note_on,,0,0,11,,,,,,,,,,,,,,,,15,,48,0
24119,note_on,,0,0,11,,,,,,,,,,,,,,,,15,,60,0
24119,note_on,,0,0,11,,,,,,,,,,,,,,,,15,,55,0
24119,note_on,,0,0,11,,,,,,,,,,,,,,,,15,,63,0
24119,note_on,,14,0,11,,,,,,,,,,,,,,,,15,,67,0
24119,note_on,,14,0,10,,,,,,,,,,,,,,,,13,,48,0
24119,note_on,,59,0,6,,,,,,,,,,,,,,,,6,,60,0
24119,note_on,,14,0,8,,,,,,,,,,,,,,,,11,,67,0
24119,note_on,,14,0,9,,,,,,,,,,,,,,,,12,,60,0
24120,note_on,,1,0,10,,,,,,,,,,,,,,,,13,,48,56
24120,note_on,,1,0,9,,,,,,,,,,,,,,,,12,,67,56
24120,note_on,,1,0,11,,,,,,,,,,,,,,,,15,,63,56
24120,note_on,,0,0,11,,,,,,,,,,,,,,,,15,,48,56
24120,note_on,,0,0,11,,,,,,,,,,,,,,,,15,,55,56
24120,note_on,,0,0,11,,,,,,,,,,,,,,,,15,,72,56
24120,note_on,,1,0,8,,,,,,,,,,,,,,,,11,,63,56
24120,note_on,,1,0,7,,,,,,,,,,,,,,,,10,,72,56
24164,note_on,,44,0,11,,,,,,,,,,,,,,,,15,,48,0
24164,note_on,,44,0,9,,,,,,,,,,,,,,,,12,,67,0
24164,note_on,,44,0,7,,,,,,,,,,,,,,,,10,,72,0
24164,note_on,,44,0,10,,,,,,,,,,,,,,,,13,,48,0
24164,note_on,,44,0,8,,,,,,,,,,,,,,,,11,,63,0
24165,note_on,,1,0,11,,,,,,,,,,,,,,,,15,,48,56
24165,note_on,,1,0,9,,,,,,,,,,,,,,,,12,,67,56
24165,note_on,,1,0,7,,,,,,,,,,,,,,,,10,,72,56
24165,note_on,,1,0,10,,,,,,,,,,,,,,,,13,,48,56
24165,note_on,,1,0,8,,,,,,,,,,,,,,,,11,,63,56
24179,note_on,,14,0,11,,,,,,,,,,,,,,,,15,,48,0
24179,note_on,,14,0,9,,,,,,,,,,,,,,,,12,,67,0
24179,note_on,,14,0,7,,,,,,,,,,,,,,,,10,,72,0
24179,note_on,,14,0,10,,,,,,,,,,,,,,,,13,,48,0
24179,note_on,,14,0,8,,,,,,,,,,,,,,,,11,,63,0
24180,note_on,,1,0,10,,,,,,,,,,,,,,,,13,,48,56
24180,note_on,,1,0,8,,,,,,,,,,,,,,,,11,,63,56
24180,note_on,,1,0,11,,,,,,,,,,,,,,,,15,,48,56
24180,note_on,,1,0,9,,,,,,,,,,,,,,,,12,,67,56
24180,note_on,,1,0,7,,,,,,,,,,,,,,,,10,,72,56
24224,note_on,,44,0,11,,,,,,,,,,,,,,,,15,,48,0
24224,note_on,,44,0,10,,,,,,,,,,,,,,,,13,,48,0
24224,note_on,,44,0,9,,,,,,,,,,,,,,,,12,,67,0
24224,note_on,,44,0,8,,,,,,,,,,,,,,,,11,,63,0
24224,note_on,,44,0,7,,,,,,,,,,,,,,,,10,,72,0
24225,note_on,,1,0,8,,,,,,,,,,,,,,,,11,,63,56
24225,note_on,,1,0,11,,,,,,,,,,,,,,,,15,,48,56
24225,note_on,,1,0,10,,,,,,,,,,,,,,,,13,,48,56
24225,note_on,,1,0,9,,,,,,,,,,,,,,,,12,,67,56
24225,note_on,,1,0,7,,,,,,,,,,,,,,,,10,,72,56
24239,note_on,,14,0,9,,,,,,,,,,,,,,,,12,,67,0
24239,note_on,,14,0,7,,,,,,,,,,,,,,,,10,,72,0
24239,note_on,,14,0,11,,,,,,,,,,,,,,,,15,,63,0
24239,note_on,,14,0,8,,,,,,,,,,,,,,,,11,,63,0
24239,note_on,,0,0,11,,,,,,,,,,,,,,,,15,,55,0
24239,note_on,,0,0,11,,,,,,,,,,,,,,,,15,,72,0
24239,note_on,,0,0,11,,,,,,,,,,,,,,,,15,,48,0
24239,note_on,,14,0,10,,,,,,,,,,,,,,,,13,,48,0
24240,note_on,,1,0,10,,,,,,,,,,,,,,,,13,,50,56
24240,note_on,,1,0,9,,,,,,,,,,,,,,,,12,,65,56
24240,note_on,,1,0,8,,,,,,,,,,,,,,,,11,,65,56
24240,note_on,,1,0,11,,,,,,,,,,,,,,,,15,,65,56
24240,note_on,,0,0,11,,,,,,,,,,,,,,,,15,,62,56
24240,note_on,,0,0,11,,,,,,,,,,,,,,,,15,,53,56
24240,note_on,,0,0,11,,,,,,,,,,,,,,,,15,,50,56
24240,note_on,,0,0,11,,,,,,,,,,,,,,,,15,,72,56
24240,note_on,,1,0,7,,,,,,,,,,,,,,,,10,,72,56
24284,note_on,,44,0,8,,,,,,,,,,,,,,,,11,,65,0
24284,note_on,,44,0,9,,,,,,,,,,,,,,,,12,,65,0
24284,note_on,,44,0,7,,,,,,,,,,,,,,,,10,,72,0
24284,note_on,,44,0,10,,,,,,,,,,,,,,,,13,,50,0
24284,note_on,,44,0,11,,,,,,,,,,,,,,,,15,,50,0
24285,note_on,,1,0,11,,,,,,,,,,,,,,,,15,,50,56
24285,note_on,,1,0,7,,,,,,,,,,,,,,,,10,,72,56
24285,note_on,,1,0,10,,,,,,,,,,,,,,,,13,,50,56
24285,note_on,,1,0,9,,,,,,,,,,,,,,,,12,,65,56
24285,note_on,,1,0,8,,,,,,,,,,,,,,,,11,,65,56
24299,note_on,,14,0,8,,,,,,,,,,,,,,,,11,,65,0
24299,note_on,,14,0,9,,,,,,,,,,,,,,,,12,,65,0
24299,note_on,,14,0,10,,,,,,,,,,,,,,,,13,,50,0
24299,note_on,,14,0,11,,,,,,,,,,,,,,,,15,,50,0
24299,note_on,,14,0,7,,,,,,,,,,,,,,,,10,,72,0
24300,note_on,,1,0,8,,,,,,,,,,,,,,,,11,,65,56
24300,note_on,,1,0,7,,,,,,,,,,,,,,,,10,,72,56
24300,note_on,,1,0,10,,,,,,,,,,,,,,,,13,,50,56
24300,note_on,,1,0,9,,,,,,,,,,,,,,,,12,,65,56
24300,note_on,,1,0,11,,,,,,,,,,,,,,,,15,,50,56
24344,note_on,,44,0,10,,,,,,,,,,,,,,,,13,,50,0
24344,note_on,,44,0,11,,,,,,,,,,,,,,,,15,,50,0
24344,note_on,,44,0,8,,,,,,,,,,,,,,,,11,,65,0
24344,note_on,,44,0,7,,,,,,,,,,,,,,,,10,,72,0
24344,note_on,,44,0,9,,,,,,,,,,,,,,,,12,,65,0
24345,note_on,,1,0,7,,,,,,,,,,,,,,,,10,,72,56
24345,note_on,,1,0,8,,,,,,,,,,,,,,,,11,,65,56
24345,note_on,,1,0,10,,,,,,,,,,,,,,,,13,,50,56
24345,note_on,,1,0,11,,,,,,,,,,,,,,,,15,,50,56
24345,note_on,,1,0,9,,,,,,,,,,,,,,,,12,,65,56
24359,note_on,,14,0,10,,,,,,,,,,,,,,,,13,,50,0
24359,note_on,,14,0,9,,,,,,,,,,,,,,,,12,,65,0
24359,note_on,,14,0,7,,,,,,,,,,,,,,,,10,,72,0
24359,note_on,,14,0,11,,,,,,,,,,,,,,,,15,,65,0
24359,note_on,,0,0,11,,,,,,,,,,,,,,,,15,,62,0
24359,note_on,,0,0,11,,,,,,,,,,,,,,,,15,,53,0
24359,note_on,,0,0,11,,,,,,,,,,,,,,,,15,,72,0
24359,note_on,,0,0,11,,,,,,,,,,,,,,,,15,,50,0
24359,note_on,,14,0,8,,,,,,,,,,,,,,,,11,,65,0
24360,note_on,,1,0,7,,,,,,,,,,,,,,,,10,,71,56
24360,note_on,,1,0,8,,,,,,,,,,,,,,,,11,,65,56
24360,note_on,,0,0,11,,,,,,,,,,,,,,,,15,,50,56
24360,note_on,,0,0,11,,,,,,,,,,,,,,,,15,,62,56
24360,note_on,,0,0,11,,,,,,,,,,,,,,,,15,,65,56
24360,note_on,,0,0,11,,,,,,,,,,,,,,,,15,,53,56
24360,note_on,,1,0,9,,,,,,,,,,,,,,,,12,,62,56
24360,note_on,,1,0,11,,,,,,,,,,,,,,,,15,,71,56
24360,note_on,,1,0,10,,,,,,,,,,,,,,,,13,,50,56
24404,note_on,,44,0,10,,,,,,,,,,,,,,,,13,,50,0
24404,note_on,,44,0,11,,,,,,,,,,,,,,,,15,,50,0
24404,note_on,,44,0,9,,,,,,,,,,,,,,,,12,,62,0
24404,note_on,,44,0,7,,,,,,,,,,,,,,,,10,,71,0
24404,note_on,,44,0,8,,,,,,,,,,,,,,,,11,,65,0
24405,note_on,,1,0,7,,,,,,,,,,,,,,,,10,,71,56
24405,note_on,,1,0,11,,,,,,,,,,,,,,,,15,,50,56
24405,note_on,,1,0,9,,,,,,,,,,,,,,,,12,,62,56
24405,note_on,,1,0,8,,,,,,,,,,,,,,,,11,,65,56
24405,note_on,,1,0,10,,,,,,,,,,,,,,,,13,,50,56
24419,note_on,,14,0,8,,,,,,,,,,,,,,,,11,,65,0
24419,note_on,,14,0,7,,,,,,,,,,,,,,,,10,,71,0
24419,note_on,,14,0,9,,,,,,,,,,,,,,,,12,,62,0
24419,note_on,,14,0,11,,,,,,,,,,,,,,,,15,,50,0
24419,note_on,,14,0,10,,,,,,,,,,,,,,,,13,,50,0
24420,note_on,,1,0,10,,,,,,,,,,,,,,,,13,,50,56
24420,note_on,,1,0,11,,,,,,,,,,,,,,,,15,,50,56
24420,note_on,,1,0,7,,,,,,,,,,,,,,,,10,,71,56
24420,note_on,,1,0,8,,,,,,,,,,,,,,,,11,,65,56
24420,note_on,,1,0,9,,,,,,,,,,,,,,,,12,,62,56
24464,note_on,,44,0,7,,,,,,,,,,,,,,,,10,,71,0
24464,note_on,,44,0,10,,,,,,,,,,,,,,,,13,,50,0
24464,note_on,,44,0,9,,,,,,,,,,,,,,,,12,,62,0
24464,note_on,,44,0,8,,,,,,,,,,,,,,,,11,,65,0
24464,note_on,,44,0,11,,,,,,,,,,,,,,,,15,,50,0
24465,note_on,,1,0,7,,,,,,,,,,,,,,,,10,,71,56
24465,note_on,,1,0,11,,,,,,,,,,,,,,,,15,,50,56
24465,note_on,,1,0,9,,,,,,,,,,,,,,,,12,,62,56
24465,note_on,,1,0,10,,,,,,,,,,,,,,,,13,,50,56
24465,note_on,,1,0,8,,,,,,,,,,,,,,,,11,,65,56
24479,note_on,,0,0,11,,,,,,,,,,,,,,,,15,,65,0
24479,note_on,,14,0,9,,,,,,,,,,,,,,,,12,,62,0
24479,note_on,,0,0,11,,,,,,,,,,,,,,,,15,,53,0
24479,note_on,,14,0,11,,,,,,,,,,,,,,,,15,,71,0
24479,note_on,,0,0,11,,,,,,,,,,,,,,,,15,,50,0
24479,note_on,,14,0,10,,,,,,,,,,,,,,,,13,,50,0
24479,note_on,,14,0,7,,,,,,,,,,,,,,,,10,,71,0
24479,note_on,,14,0,8,,,,,,,,,,,,,,,,11,,65,0
24479,note_on,,0,0,11,,,,,,,,,,,,,,,,15,,62,0
24480,note_on,,1,0,10,,,,,,,,,,,,,,,,13,,51,56
24480,note_on,,1,0,11,,,,,,,,,,,,,,,,15,,67,56
24480,note_on,,1,0,8,,,,,,,,,,,,,,,,11,,67,56
24480,note_on,,0,0,11,,,,,,,,,,,,,,,,15,,55,56
24480,note_on,,0,0,11,,,,,,,,,,,,,,,,15,,60,56
24480,note_on,,1,0,9,,,,,,,,,,,,,,,,12,,55,56
24480,note_on,,0,0,11,,,,,,,,,,,,,,,,15,,51,56
24480,note_on,,1,0,7,,,,,,,,,,,,,,,,10,,72,56
24480,note_on,,0,0,11,,,,,,,,,,,,,,,,15,,63,56
24524,note_on,,44,0,10,,,,,,,,,,,,,,,,13,,51,0
24524,note_on,,44,0,11,,,,,,,,,,,,,,,,15,,51,0
24524,note_on,,44,0,7,,,,,,,,,,,,,,,,10,,72,0
24524,note_on,,44,0,9,,,,,,,,,,,,,,,,12,,55,0
24524,note_on,,44,0,8,,,,,,,,,,,,,,,,11,,67,0
24525,note_on,,1,0,11,,,,,,,,,,,,,,,,15,,51,56
24525,note_on,,1,0,8,,,,,,,,,,,,,,,,11,,67,56
24525,note_on,,1,0,9,,,,,,,,,,,,,,,,12,,55,56
24525,note_on,,1,0,7,,,,,,,,,,,,,,,,10,,72,56
24525,note_on,,1,0,10,,,,,,,,,,,,,,,,13,,51,56
24539,note_on,,14,0,8,,,,,,,,,,,,,,,,11,,67,0
24539,note_on,,14,0,11,,,,,,,,,,,,,,,,15,,51,0
24539,note_on,,14,0,10,,,,,,,,,,,,,,,,13,,51,0
24539,note_on,,14,0,9,,,,,,,,,,,,,,,,12,,55,0
24539,note_on,,14,0,7,,,,,,,,,,,,,,,,10,,72,0
24540,note_on,,1,0,10,,,,,,,,,,,,,,,,13,,51,56
24540,note_on,,1,0,9,,,,,,,,,,,,,,,,12,,55,56
24540,note_on,,1,0,8,,,,,,,,,,,,,,,,11,,67,56
24540,note_on,,1,0,11,,,,,,,,,,,,,,,,15,,51,56
24540,note_on,,421,0,6,,,,,,,,,,,,,,,,6,,67,61
24540,note_on,,1,0,7,,,,,,,,,,,,,,,,10,,72,56
24584,note_on,,44,0,8,,,,,,,,,,,,,,,,11,,67,0
24584,note_on,,44,0,7,,,,,,,,,,,,,,,,10,,72,0
24584,note_on,,44,0,10,,,,,,,,,,,,,,,,13,,51,0
24584,note_on,,44,0,11,,,,,,,,,,,,,,,,15,,51,0
24584,note_on,,44,0,9,,,,,,,,,,,,,,,,12,,55,0
24585,note_on,,1,0,10,,,,,,,,,,,,,,,,13,,51,56
24585,note_on,,1,0,7,,,,,,,,,,,,,,,,10,,72,56
24585,note_on,,1,0,8,,,,,,,,,,,,,,,,11,,67,56
24585,note_on,,1,0,11,,,,,,,,,,,,,,,,15,,51,56
24585,note_on,,1,0,9,,,,,,,,,,,,,,,,12,,55,56
24599,note_on,,0,0,11,,,,,,,,,,,,,,,,15,,63,0
24599,note_on,,14,0,11,,,,,,,,,,,,,,,,15,,67,0
24599,note_on,,14,0,10,,,,,,,,,,,,,,,,13,,51,0
24599,note_on,,0,0,11,,,,,,,,,,,,,,,,15,,55,0
24599,note_on,,0,0,11,,,,,,,,,,,,,,,,15,,60,0
24599,note_on,,0,0,11,,,,,,,,,,,,,,,,15,,51,0
24599,note_on,,14,0,7,,,,,,,,,,,,,,,,10,,72,0
24599,note_on,,14,0,8,,,,,,,,,,,,,,,,11,,67,0
24599,note_on,,14,0,9,,,,,,,,,,,,,,,,12,,55,0
24599,note_on,,59,0,6,,,,,,,,,,,,,,,,6,,67,0
24600,note_on,,1,0,10,,,,,,,,,,,,,,,,13,,51,56
24600,note_on,,1,0,9,,,,,,,,,,,,,,,,12,,63,56
24600,note_on,,1,0,6,,,,,,,,,,,,,,,,6,,72,65
24600,note_on,,1,0,8,,,,,,,,,,,,,,,,11,,67,56
24600,note_on,,1,0,11,,,,,,,,,,,,,,,,15,,55,56
24600,note_on,,0,0,11,,,,,,,,,,,,,,,,15,,75,56
24600,note_on,,0,0,11,,,,,,,,,,,,,,,,15,,67,56
24600,note_on,,0,0,11,,,,,,,,,,,,,,,,15,,51,56
24600,note_on,,1,0,7,,,,,,,,,,,,,,,,10,,72,56
24600,note_on,,0,0,11,,,,,,,,,,,,,,,,15,,72,56
24644,note_on,,44,0,7,,,,,,,,,,,,,,,,10,,72,0
24644,note_on,,44,0,9,,,,,,,,,,,,,,,,12,,63,0
24644,note_on,,44,0,11,,,,,,,,,,,,,,,,15,,51,0
24644,note_on,,44,0,8,,,,,,,,,,,,,,,,11,,67,0
24644,note_on,,44,0,10,,,,,,,,,,,,,,,,13,,51,0
24645,note_on,,1,0,11,,,,,,,,,,,,,,,,15,,51,56
24645,note_on,,1,0,8,,,,,,,,,,,,,,,,11,,67,56
24645,note_on,,1,0,7,,,,,,,,,,,,,,,,10,,72,56
24645,note_on,,1,0,9,,,,,,,,,,,,,,,,12,,63,56
24645,note_on,,1,0,10,,,,,,,,,,,,,,,,13,,51,56
24659,note_on,,14,0,11,,,,,,,,,,,,,,,,15,,51,0
24659,note_on,,14,0,8,,,,,,,,,,,,,,,,11,,67,0
24659,note_on,,14,0,7,,,,,,,,,,,,,,,,10,,72,0
24659,note_on,,14,0,9,,,,,,,,,,,,,,,,12,,63,0
24659,note_on,,14,0,10,,,,,,,,,,,,,,,,13,,51,0
24659,note_on,,59,0,6,,,,,,,,,,,,,,,,6,,72,0
24660,note_on,,1,0,7,,,,,,,,,,,,,,,,10,,72,56
24660,note_on,,1,0,6,,,,,,,,,,,,,,,,6,,60,64
24660,note_on,,1,0,9,,,,,,,,,,,,,,,,12,,63,56
24660,note_on,,1,0,8,,,,,,,,,,,,,,,,11,,67,56
24660,note_on,,1,0,11,,,,,,,,,,,,,,,,15,,51,56
24660,note_on,,1,0,10,,,,,,,,,,,,,,,,13,,51,56
24704,note_on,,44,0,11,,,,,,,,,,,,,,,,15,,51,0
24704,note_on,,44,0,9,,,,,,,,,,,,,,,,12,,63,0
24704,note_on,,44,0,10,,,,,,,,,,,,,,,,13,,51,0
24704,note_on,,44,0,8,,,,,,,,,,,,,,,,11,,67,0
24704,note_on,,44,0,7,,,,,,,,,,,,,,,,10,,72,0
24705,note_on,,1,0,10,,,,,,,,,,,,,,,,13,,51,56
24705,note_on,,1,0,9,,,,,,,,,,,,,,,,12,,63,56
24705,note_on,,1,0,7,,,,,,,,,,,,,,,,10,,72,56
24705,note_on,,1,0,8,,,,,,,,,,,,,,,,11,,67,56
24705,note_on,,1,0,11,,,,,,,,,,,,,,,,15,,51,56
24719,note_on,,0,0,11,,,,,,,,,,,,,,,,15,,75,0
24719,note_on,,0,0,11,,,,,,,,,,,,,,,,15,,67,0
24719,note_on,,0,0,11,,,,,,,,,,,,,,,,15,,72,0
24719,note_on,,0,0,11,,,,,,,,,,,,,,,,15,,51,0
24719,note_on,,59,0,6,,,,,,,,,,,,,,,,6,,60,0
24719,note_on,,14,0,11,,,,,,,,,,,,,,,,15,,55,0
24719,note_on,,14,0,10,,,,,,,,,,,,,,,,13,,51,0
24719,note_on,,14,0,9,,,,,,,,,,,,,,,,12,,63,0
24719,note_on,,14,0,8,,,,,,,,,,,,,,,,11,,67,0
24719,note_on,,14,0,7,,,,,,,,,,,,,,,,10,,72,0
24720,note_on,,1,0,8,,,,,,,,,,,,,,,,11,,68,56
24720,note_on,,1,0,10,,,,,,,,,,,,,,,,13,,53,56
24720,note_on,,1,0,9,,,,,,,,,,,,,,,,12,,62,56
24720,note_on,,1,0,7,,,,,,,,,,,,,,,,10,,72,56
24720,note_on,,0,0,11,,,,,,,,,,,,,,,,15,,72,56
24720,note_on,,0,0,11,,,,,,,,,,,,,,,,15,,65,56
24720,note_on,,0,0,11,,,,,,,,,,,,,,,,15,,68,56
24720,note_on,,0,0,11,,,,,,,,,,,,,,,,15,,53,56
24720,note_on,,0,0,11,,,,,,,,,,,,,,,,15,,74,56
24720,note_on,,1,0,6,,,,,,,,,,,,,,,,6,,68,63
24720,note_on,,1,0,11,,,,,,,,,,,,,,,,15,,56,56
24764,note_on,,44,0,9,,,,,,,,,,,,,,,,12,,62,0
24764,note_on,,44,0,10,,,,,,,,,,,,,,,,13,,53,0
24764,note_on,,44,0,8,,,,,,,,,,,,,,,,11,,68,0
24764,note_on,,44,0,11,,,,,,,,,,,,,,,,15,,53,0
24764,note_on,,44,0,7,,,,,,,,,,,,,,,,10,,72,0
24765,note_on,,1,0,10,,,,,,,,,,,,,,,,13,,53,56
24765,note_on,,1,0,8,,,,,,,,,,,,,,,,11,,68,56
24765,note_on,,1,0,11,,,,,,,,,,,,,,,,15,,53,56
24765,note_on,,1,0,9,,,,,,,,,,,,,,,,12,,62,56
24765,note_on,,1,0,7,,,,,,,,,,,,,,,,10,,72,56
24779,note_on,,14,0,11,,,,,,,,,,,,,,,,15,,53,0
24779,note_on,,14,0,10,,,,,,,,,,,,,,,,13,,53,0
24779,note_on,,14,0,9,,,,,,,,,,,,,,,,12,,62,0
24779,note_on,,14,0,8,,,,,,,,,,,,,,,,11,,68,0
24779,note_on,,14,0,7,,,,,,,,,,,,,,,,10,,72,0
24780,note_on,,1,0,7,,,,,,,,,,,,,,,,10,,72,56
24780,note_on,,1,0,8,,,,,,,,,,,,,,,,11,,68,56
24780,note_on,,1,0,11,,,,,,,,,,,,,,,,15,,53,56
24780,note_on,,1,0,9,,,,,,,,,,,,,,,,12,,62,56
24780,note_on,,1,0,10,,,,,,,,,,,,,,,,13,,53,56
24824,note_on,,44,0,8,,,,,,,,,,,,,,,,11,,68,0
24824,note_on,,44,0,9,,,,,,,,,,,,,,,,12,,62,0
24824,note_on,,44,0,7,,,,,,,,,,,,,,,,10,,72,0
24824,note_on,,44,0,11,,,,,,,,,,,,,,,,15,,53,0
24824,note_on,,44,0,10,,,,,,,,,,,,,,,,13,,53,0
24825,note_on,,1,0,9,,,,,,,,,,,,,,,,12,,62,56
24825,note_on,,1,0,7,,,,,,,,,,,,,,,,10,,72,56
24825,note_on,,1,0,8,,,,,,,,,,,,,,,,11,,68,56
24825,note_on,,1,0,10,,,,,,,,,,,,,,,,13,,53,56
24825,note_on,,1,0,11,,,,,,,,,,,,,,,,15,,53,56
24839,note_on,,0,0,11,,,,,,,,,,,,,,,,15,,53,0
24839,note_on,,14,0,9,,,,,,,,,,,,,,,,12,,62,0
24839,note_on,,0,0,11,,,,,,,,,,,,,,,,15,,68,0
24839,note_on,,0,0,11,,,,,,,,,,,,,,,,15,,65,0
24839,note_on,,0,0,11,,,,,,,,,,,,,,,,15,,72,0
24839,note_on,,14,0,11,,,,,,,,,,,,,,,,15,,56,0
24839,note_on,,14,0,8,,,,,,,,,,,,,,,,11,,68,0
24839,note_on,,14,0,7,,,,,,,,,,,,,,,,10,,72,0
24839,note_on,,14,0,10,,,,,,,,,,,,,,,,13,,53,0
24839,note_on,,119,0,6,,,,,,,,,,,,,,,,6,,68,0
24840,note_on,,0,0,11,,,,,,,,,,,,,,,,15,,62,56
24840,note_on,,1,0,8,,,,,,,,,,,,,,,,11,,67,56
24840,note_on,,1,0,7,,,,,,,,,,,,,,,,10,,71,56
24840,note_on,,1,0,9,,,,,,,,,,,,,,,,12,,62,56
24840,note_on,,1,0,10,,,,,,,,,,,,,,,,13,,55,56
24840,note_on,,1,0,11,,,,,,,,,,,,,,,,15,,55,56
24840,note_on,,0,0,11,,,,,,,,,,,,,,,,15,,67,56
24840,note_on,,0,0,11,,,,,,,,,,,,,,,,15,,71,56
24884,note_on,,44,0,8,,,,,,,,,,,,,,,,11,,67,0
24884,note_on,,44,0,11,,,,,,,,,,,,,,,,15,,55,0
24884,note_on,,44,0,7,,,,,,,,,,,,,,,,10,,71,0
24884,note_on,,44,0,9,,,,,,,,,,,,,,,,12,,62,0
24884,note_on,,44,0,10,,,,,,,,,,,,,,,,13,,55,0
24885,note_on,,1,0,7,,,,,,,,,,,,,,,,10,,71,56
24885,note_on,,1,0,10,,,,,,,,,,,,,,,,13,,55,56
24885,note_on,,1,0,11,,,,,,,,,,,,,,,,15,,55,56
24885,note_on,,1,0,9,,,,,,,,,,,,,,,,12,,62,56
24885,note_on,,1,0,8,,,,,,,,,,,,,,,,11,,67,56
24899,note_on,,14,0,10,,,,,,,,,,,,,,,,13,,55,0
24899,note_on,,14,0,7,,,,,,,,,,,,,,,,10,,71,0
24899,note_on,,14,0,11,,,,,,,,,,,,,,,,15,,55,0
24899,note_on,,14,0,8,,,,,,,,,,,,,,,,11,,67,0
24899,note_on,,14,0,9,,,,,,,,,,,,,,,,12,,62,0
24900,note_on,,1,0,11,,,,,,,,,,,,,,,,15,,55,56
24900,note_on,,1,0,7,,,,,,,,,,,,,,,,10,,71,56
24900,note_on,,1,0,9,,,,,,,,,,,,,,,,12,,62,56
24900,note_on,,1,0,8,,,,,,,,,,,,,,,,11,,67,56
24900,note_on,,61,0,6,,,,,,,,,,,,,,,,6,,68,63
24900,note_on,,1,0,10,,,,,,,,,,,,,,,,13,,55,56
24914,note_on,,14,0,6,,,,,,,,,,,,,,,,6,,68,0
24915,note_on,,1,0,6,,,,,,,,,,,,,,,,6,,67,64
24929,note_on,,14,0,6,,,,,,,,,,,,,,,,6,,67,0
24930,note_on,,1,0,6,,,,,,,,,,,,,,,,6,,65,65
24944,note_on,,44,0,10,,,,,,,,,,,,,,,,13,,55,0
24944,note_on,,44,0,11,,,,,,,,,,,,,,,,15,,55,0
24944,note_on,,44,0,7,,,,,,,,,,,,,,,,10,,71,0
24944,note_on,,44,0,9,,,,,,,,,,,,,,,,12,,62,0
24944,note_on,,44,0,8,,,,,,,,,,,,,,,,11,,67,0
24945,note_on,,1,0,11,,,,,,,,,,,,,,,,15,,55,56
24945,note_on,,1,0,10,,,,,,,,,,,,,,,,13,,55,56
24945,note_on,,1,0,9,,,,,,,,,,,,,,,,12,,62,56
24945,note_on,,1,0,7,,,,,,,,,,,,,,,,10,,71,56
24945,note_on,,1,0,8,,,,,,,,,,,,,,,,11,,67,56
24959,note_on,,14,0,10,,,,,,,,,,,,,,,,13,,55,0
24959,note_on,,14,0,9,,,,,,,,,,,,,,,,12,,62,0
24959,note_on,,14,0,7,,,,,,,,,,,,,,,,10,,71,0
24959,note_on,,14,0,8,,,,,,,,,,,,,,,,11,,67,0
24959,note_on,,29,0,6,,,,,,,,,,,,,,,,6,,65,0
24959,note_on,,0,0,11,,,,,,,,,,,,,,,,15,,55,0
24959,note_on,,0,0,11,,,,,,,,,,,,,,,,15,,62,0
24959,note_on,,0,0,11,,,,,,,,,,,,,,,,15,,71,0
24959,note_on,,0,0,11,,,,,,,,,,,,,,,,15,,67,0
24959,note_on,,14,0,11,,,,,,,,,,,,,,,,15,,74,0
24960,note_on,,1,0,9,,,,,,,,,,,,,,,,12,,63,56
24960,note_on,,0,0,11,,,,,,,,,,,,,,,,15,,67,56
24960,note_on,,0,0,11,,,,,,,,,,,,,,,,15,,75,56
24960,note_on,,1,0,11,,,,,,,,,,,,,,,,15,,72,56
24960,note_on,,0,0,11,,,,,,,,,,,,,,,,15,,60,56
24960,note_on,,1,0,8,,,,,,,,,,,,,,,,11,,67,56
24960,note_on,,1,0,7,,,,,,,,,,,,,,,,10,,72,56
24960,note_on,,1,0,10,,,,,,,,,,,,,,,,13,,60,56
24960,note_on,,1,0,6,,,,,,,,,,,,,,,,6,,63,66
24989,note_on,,29,0,6,,,,,,,,,,,,,,,,6,,63,0
24990,note_on,,1,0,6,,,,,,,,,,,,,,,,6,,62,66
25004,note_on,,44,0,11,,,,,,,,,,,,,,,,15,,60,0
25004,note_on,,44,0,7,,,,,,,,,,,,,,,,10,,72,0
25004,note_on,,44,0,9,,,,,,,,,,,,,,,,12,,63,0
25004,note_on,,44,0,10,,,,,,,,,,,,,,,,13,,60,0
25004,note_on,,44,0,8,,,,,,,,,,,,,,,,11,,67,0
25005,note_on,,1,0,7,,,,,,,,,,,,,,,,10,,72,56
25005,note_on,,1,0,8,,,,,,,,,,,,,,,,11,,67,56
25005,note_on,,1,0,9,,,,,,,,,,,,,,,,12,,63,56
25005,note_on,,1,0,11,,,,,,,,,,,,,,,,15,,60,56
25005,note_on,,1,0,10,,,,,,,,,,,,,,,,13,,60,56
25019,note_on,,14,0,11,,,,,,,,,,,,,,,,15,,60,0
25019,note_on,,29,0,6,,,,,,,,,,,,,,,,6,,62,0
25019,note_on,,14,0,8,,,,,,,,,,,,,,,,11,,67,0
25019,note_on,,14,0,7,,,,,,,,,,,,,,,,10,,72,0
25019,note_on,,14,0,9,,,,,,,,,,,,,,,,12,,63,0
25019,note_on,,14,0,10,,,,,,,,,,,,,,,,13,,60,0
25020,note_on,,1,0,11,,,,,,,,,,,,,,,,15,,60,56
25020,note_on,,1,0,10,,,,,,,,,,,,,,,,13,,60,56
25020,note_on,,1,0,6,,,,,,,,,,,,,,,,6,,60,64
25020,note_on,,1,0,9,,,,,,,,,,,,,,,,12,,63,56
25020,note_on,,1,0,7,,,,,,,,,,,,,,,,10,,72,56
25020,note_on,,1,0,8,,,,,,,,,,,,,,,,11,,67,56
25064,note_on,,44,0,10,,,,,,,,,,,,,,,,13,,60,0
25064,note_on,,44,0,8,,,,,,,,,,,,,,,,11,,67,0
25064,note_on,,44,0,7,,,,,,,,,,,,,,,,10,,72,0
25064,note_on,,44,0,9,,,,,,,,,,,,,,,,12,,63,0
25064,note_on,,44,0,11,,,,,,,,,,,,,,,,15,,60,0
25065,note_on,,1,0,8,,,,,,,,,,,,,,,,11,,67,56
25065,note_on,,1,0,10,,,,,,,,,,,,,,,,13,,60,56
25065,note_on,,1,0,9,,,,,,,,,,,,,,,,12,,63,56
25065,note_on,,1,0,11,,,,,,,,,,,,,,,,15,,60,56
25065,note_on,,1,0,7,,,,,,,,,,,,,,,,10,,72,56
25079,note_on,,14,0,10,,,,,,,,,,,,,,,,13,,60,0
25079,note_on,,0,0,11,,,,,,,,,,,,,,,,15,,60,0
25079,note_on,,14,0,9,,,,,,,,,,,,,,,,12,,63,0
25079,note_on,,0,0,11,,,,,,,,,,,,,,,,15,,67,0
25079,note_on,,59,0,6,,,,,,,,,,,,,,,,6,,60,0
25079,note_on,,14,0,7,,,,,,,,,,,,,,,,10,,72,0
25079,note_on,,14,0,11,,,,,,,,,,,,,,,,15,,72,0
25079,note_on,,0,0,11,,,,,,,,,,,,,,,,15,,75,0
25079,note_on,,14,0,8,,,,,,,,,,,,,,,,11,,67,0
25080,note_on,,0,0,11,,,,,,,,,,,,,,,,15,,63,56
25080,note_on,,1,0,7,,,,,,,,,,,,,,,,10,,67,56
25080,note_on,,1,0,9,,,,,,,,,,,,,,,,12,,60,56
25080,note_on,,1,0,8,,,,,,,,,,,,,,,,11,,63,56
25080,note_on,,0,0,11,,,,,,,,,,,,,,,,15,,60,56
25080,note_on,,1,0,10,,,,,,,,,,,,,,,,13,,60,56
25080,note_on,,1,0,11,,,,,,,,,,,,,,,,15,,67,56
25124,note_on,,44,0,10,,,,,,,,,,,,,,,,13,,60,0
25124,note_on,,44,0,7,,,,,,,,,,,,,,,,10,,67,0
25124,note_on,,44,0,11,,,,,,,,,,,,,,,,15,,60,0
25124,note_on,,44,0,9,,,,,,,,,,,,,,,,12,,60,0
25124,note_on,,44,0,8,,,,,,,,,,,,,,,,11,,63,0
25125,note_on,,1,0,7,,,,,,,,,,,,,,,,10,,67,56
25125,note_on,,1,0,11,,,,,,,,,,,,,,,,15,,60,56
25125,note_on,,1,0,9,,,,,,,,,,,,,,,,12,,60,56
25125,note_on,,1,0,8,,,,,,,,,,,,,,,,11,,63,56
25125,note_on,,1,0,10,,,,,,,,,,,,,,,,13,,60,56
25139,note_on,,14,0,8,,,,,,,,,,,,,,,,11,,63,0
25139,note_on,,14,0,11,,,,,,,,,,,,,,,,15,,60,0
25139,note_on,,14,0,9,,,,,,,,,,,,,,,,12,,60,0
25139,note_on,,14,0,7,,,,,,,,,,,,,,,,10,,67,0
25139,note_on,,14,0,10,,,,,,,,,,,,,,,,13,,60,0
25140,note_on,,1,0,7,,,,,,,,,,,,,,,,10,,67,56
25140,note_on,,1,0,10,,,,,,,,,,,,,,,,13,,60,56
25140,note_on,,1,0,8,,,,,,,,,,,,,,,,11,,63,56
25140,note_on,,1,0,9,,,,,,,,,,,,,,,,12,,60,56
25140,note_on,,1,0,11,,,,,,,,,,,,,,,,15,,60,56
25184,note_on,,44,0,8,,,,,,,,,,,,,,,,11,,63,0
25184,note_on,,44,0,7,,,,,,,,,,,,,,,,10,,67,0
25184,note_on,,44,0,11,,,,,,,,,,,,,,,,15,,60,0
25184,note_on,,44,0,10,,,,,,,,,,,,,,,,13,,60,0
25184,note_on,,44,0,9,,,,,,,,,,,,,,,,12,,60,0
25185,note_on,,1,0,11,,,,,,,,,,,,,,,,15,,60,56
25185,note_on,,1,0,8,,,,,,,,,,,,,,,,11,,63,56
25185,note_on,,1,0,7,,,,,,,,,,,,,,,,10,,67,56
25185,note_on,,1,0,9,,,,,,,,,,,,,,,,12,,60,56
25185,note_on,,1,0,10,,,,,,,,,,,,,,,,13,,60,56
25199,note_on,,14,0,8,,,,,,,,,,,,,,,,11,,63,0
25199,note_on,,14,0,7,,,,,,,,,,,,,,,,10,,67,0
25199,note_on,,0,0,11,,,,,,,,,,,,,,,,15,,60,0
25199,note_on,,0,0,11,,,,,,,,,,,,,,,,15,,63,0
25199,note_on,,14,0,11,,,,,,,,,,,,,,,,15,,67,0
25199,note_on,,14,0,9,,,,,,,,,,,,,,,,12,,60,0
25199,note_on,,14,0,10,,,,,,,,,,,,,,,,13,,60,0
25200,note_on,,1,0,8,,,,,,,,,,,,,,,,11,,67,56
25200,note_on,,121,0,6,,,,,,,,,,,,,,,,6,,60,65
25200,note_on,,1,0,11,,,,,,,,,,,,,,,,15,,67,56
25200,note_on,,0,0,11,,,,,,,,,,,,,,,,15,,72,56
25200,note_on,,1,0,9,,,,,,,,,,,,,,,,12,,60,56
25200,note_on,,1,0,10,,,,,,,,,,,,,,,,13,,48,56
25200,note_on,,1,0,7,,,,,,,,,,,,,,,,10,,75,56
25200,note_on,,0,0,11,,,,,,,,,,,,,,,,15,,48,56
25200,note_on,,0,0,11,,,,,,,,,,,,,,,,15,,63,56
25244,note_on,,44,0,11,,,,,,,,,,,,,,,,15,,48,0
25244,note_on,,44,0,7,,,,,,,,,,,,,,,,10,,75,0
25244,note_on,,44,0,10,,,,,,,,,,,,,,,,13,,48,0
25244,note_on,,44,0,9,,,,,,,,,,,,,,,,12,,60,0
25244,note_on,,44,0,8,,,,,,,,,,,,,,,,11,,67,0
25245,note_on,,1,0,10,,,,,,,,,,,,,,,,13,,48,56
25245,note_on,,1,0,9,,,,,,,,,,,,,,,,12,,60,56
25245,note_on,,1,0,11,,,,,,,,,,,,,,,,15,,48,56
25245,note_on,,1,0,8,,,,,,,,,,,,,,,,11,,67,56
25245,note_on,,1,0,7,,,,,,,,,,,,,,,,10,,75,56
25259,note_on,,59,0,6,,,,,,,,,,,,,,,,6,,60,0
25259,note_on,,14,0,10,,,,,,,,,,,,,,,,13,,48,0
25259,note_on,,14,0,11,,,,,,,,,,,,,,,,15,,48,0
25259,note_on,,14,0,7,,,,,,,,,,,,,,,,10,,75,0
25259,note_on,,14,0,9,,,,,,,,,,,,,,,,12,,60,0
25259,note_on,,14,0,8,,,,,,,,,,,,,,,,11,,67,0
25260,note_on,,1,0,6,,,,,,,,,,,,,,,,6,,62,64
25260,note_on,,1,0,10,,,,,,,,,,,,,,,,13,,48,56
25260,note_on,,1,0,8,,,,,,,,,,,,,,,,11,,67,56
25260,note_on,,1,0,7,,,,,,,,,,,,,,,,10,,75,56
25260,note_on,,1,0,9,,,,,,,,,,,,,,,,12,,60,56
25260,note_on,,1,0,11,,,,,,,,,,,,,,,,15,,48,56
25304,note_on,,44,0,10,,,,,,,,,,,,,,,,13,,48,0
25304,note_on,,44,0,7,,,,,,,,,,,,,,,,10,,75,0
25304,note_on,,44,0,8,,,,,,,,,,,,,,,,11,,67,0
25304,note_on,,44,0,9,,,,,,,,,,,,,,,,12,,60,0
25304,note_on,,44,0,11,,,,,,,,,,,,,,,,15,,48,0
25305,note_on,,1,0,8,,,,,,,,,,,,,,,,11,,67,56
25305,note_on,,1,0,11,,,,,,,,,,,,,,,,15,,48,56
25305,note_on,,1,0,10,,,,,,,,,,,,,,,,13,,48,56
25305,note_on,,1,0,9,,,,,,,,,,,,,,,,12,,60,56
25305,note_on,,1,0,7,,,,,,,,,,,,,,,,10,,75,56
25319,note_on,,14,0,7,,,,,,,,,,,,,,,,10,,75,0
25319,note_on,,59,0,6,,,,,,,,,,,,,,,,6,,62,0
25319,note_on,,14,0,11,,,,,,,,,,,,,,,,15,,48,0
25319,note_on,,14,0,10,,,,,,,,,,,,,,,,13,,48,0
25319,note_on,,14,0,9,,,,,,,,,,,,,,,,12,,60,0
25319,note_on,,14,0,8,,,,,,,,,,,,,,,,11,,67,0
25320,note_on,,1,0,7,,,,,,,,,,,,,,,,10,,75,56
25320,note_on,,1,0,6,,,,,,,,,,,,,,,,6,,63,63
25320,note_on,,1,0,11,,,,,,,,,,,,,,,,15,,48,56
25320,note_on,,1,0,10,,,,,,,,,,,,,,,,13,,48,56
25320,note_on,,1,0,9,,,,,,,,,,,,,,,,12,,67,56
25320,note_on,,1,0,8,,,,,,,,,,,,,,,,11,,72,56
25364,note_on,,44,0,8,,,,,,,,,,,,,,,,11,,72,0
25364,note_on,,44,0,11,,,,,,,,,,,,,,,,15,,48,0
25364,note_on,,44,0,7,,,,,,,,,,,,,,,,10,,75,0
25364,note_on,,44,0,10,,,,,,,,,,,,,,,,13,,48,0
25364,note_on,,44,0,9,,,,,,,,,,,,,,,,12,,67,0
25365,note_on,,1,0,7,,,,,,,,,,,,,,,,10,,75,56
25365,note_on,,1,0,11,,,,,,,,,,,,,,,,15,,48,56
25365,note_on,,1,0,10,,,,,,,,,,,,,,,,13,,48,56
25365,note_on,,1,0,8,,,,,,,,,,,,,,,,11,,72,56
25365,note_on,,1,0,9,,,,,,,,,,,,,,,,12,,67,56
25379,note_on,,14,0,11,,,,,,,,,,,,,,,,15,,48,0
25379,note_on,,59,0,6,,,,,,,,,,,,,,,,6,,63,0
25379,note_on,,14,0,7,,,,,,,,,,,,,,,,10,,75,0
25379,note_on,,14,0,10,,,,,,,,,,,,,,,,13,,48,0
25379,note_on,,14,0,8,,,,,,,,,,,,,,,,11,,72,0
25379,note_on,,14,0,9,,,,,,,,,,,,,,,,12,,67,0
25380,note_on,,1,0,11,,,,,,,,,,,,,,,,15,,48,56
25380,note_on,,1,0,10,,,,,,,,,,,,,,,,13,,48,56
25380,note_on,,1,0,8,,,,,,,,,,,,,,,,11,,72,56
25380,note_on,,1,0,6,,,,,,,,,,,,,,,,6,,60,61
25380,note_on,,1,0,7,,,,,,,,,,,,,,,,10,,75,56
25380,note_on,,1,0,9,,,,,,,,,,,,,,,,12,,67,56
25424,note_on,,44,0,9,,,,,,,,,,,,,,,,12,,67,0
25424,note_on,,44,0,11,,,,,,,,,,,,,,,,15,,48,0
25424,note_on,,44,0,8,,,,,,,,,,,,,,,,11,,72,0
25424,note_on,,44,0,7,,,,,,,,,,,,,,,,10,,75,0
25424,note_on,,44,0,10,,,,,,,,,,,,,,,,13,,48,0
25425,note_on,,1,0,11,,,,,,,,,,,,,,,,15,,48,56
25425,note_on,,1,0,7,,,,,,,,,,,,,,,,10,,75,56
25425,note_on,,1,0,8,,,,,,,,,,,,,,,,11,,72,56
25425,note_on,,1,0,9,,,,,,,,,,,,,,,,12,,67,56
25425,note_on,,1,0,10,,,,,,,,,,,,,,,,13,,48,56
25439,note_on,,14,0,10,,,,,,,,,,,,,,,,13,,48,0
25439,note_on,,14,0,7,,,,,,,,,,,,,,,,10,,75,0
25439,note_on,,14,0,8,,,,,,,,,,,,,,,,11,,72,0
25439,note_on,,0,0,11,,,,,,,,,,,,,,,,15,,48,0
25439,note_on,,59,0,6,,,,,,,,,,,,,,,,6,,60,0
25439,note_on,,14,0,9,,,,,,,,,,,,,,,,12,,67,0
25439,note_on,,14,0,11,,,,,,,,,,,,,,,,15,,67,0
25439,note_on,,0,0,11,,,,,,,,,,,,,,,,15,,63,0
25439,note_on,,0,0,11,,,,,,,,,,,,,,,,15,,72,0
25440,note_on,,0,0,11,,,,,,,,,,,,,,,,15,,46,56
25440,note_on,,0,0,11,,,,,,,,,,,,,,,,15,,67,56
25440,note_on,,1,0,9,,,,,,,,,,,,,,,,12,,62,56
25440,note_on,,0,0,11,,,,,,,,,,,,,,,,15,,74,56
25440,note_on,,1,0,8,,,,,,,,,,,,,,,,11,,67,56
25440,note_on,,1,0,11,,,,,,,,,,,,,,,,15,,55,56
25440,note_on,,1,0,6,,,,,,,,,,,,,,,,6,,67,65
25440,note_on,,0,0,11,,,,,,,,,,,,,,,,15,,62,56
25440,note_on,,1,0,7,,,,,,,,,,,,,,,,10,,74,56
25440,note_on,,1,0,10,,,,,,,,,,,,,,,,13,,46,56
25484,note_on,,44,0,9,,,,,,,,,,,,,,,,12,,62,0
25484,note_on,,44,0,10,,,,,,,,,,,,,,,,13,,46,0
25484,note_on,,44,0,11,,,,,,,,,,,,,,,,15,,46,0
25484,note_on,,44,0,8,,,,,,,,,,,,,,,,11,,67,0
25484,note_on,,44,0,7,,,,,,,,,,,,,,,,10,,74,0
25485,note_on,,1,0,8,,,,,,,,,,,,,,,,11,,67,56
25485,note_on,,1,0,11,,,,,,,,,,,,,,,,15,,46,56
25485,note_on,,1,0,9,,,,,,,,,,,,,,,,12,,62,56
25485,note_on,,1,0,10,,,,,,,,,,,,,,,,13,,46,56
25485,note_on,,1,0,7,,,,,,,,,,,,,,,,10,,74,56
25499,note_on,,14,0,9,,,,,,,,,,,,,,,,12,,62,0
25499,note_on,,14,0,7,,,,,,,,,,,,,,,,10,,74,0
25499,note_on,,14,0,8,,,,,,,,,,,,,,,,11,,67,0
25499,note_on,,14,0,10,,,,,,,,,,,,,,,,13,,46,0
25499,note_on,,14,0,11,,,,,,,,,,,,,,,,15,,46,0
25500,note_on,,1,0,9,,,,,,,,,,,,,,,,12,,62,56
25500,note_on,,1,0,7,,,,,,,,,,,,,,,,10,,74,56
25500,note_on,,1,0,11,,,,,,,,,,,,,,,,15,,46,56
25500,note_on,,1,0,8,,,,,,,,,,,,,,,,11,,67,56
25500,note_on,,1,0,10,,,,,,,,,,,,,,,,13,,46,56
25544,note_on,,44,0,7,,,,,,,,,,,,,,,,10,,74,0
25544,note_on,,44,0,8,,,,,,,,,,,,,,,,11,,67,0
25544,note_on,,44,0,10,,,,,,,,,,,,,,,,13,,46,0
25544,note_on,,44,0,9,,,,,,,,,,,,,,,,12,,62,0
25544,note_on,,44,0,11,,,,,,,,,,,,,,,,15,,46,0
25545,note_on,,1,0,8,,,,,,,,,,,,,,,,11,,67,56
25545,note_on,,1,0,10,,,,,,,,,,,,,,,,13,,46,56
25545,note_on,,1,0,11,,,,,,,,,,,,,,,,15,,46,56
25545,note_on,,1,0,9,,,,,,,,,,,,,,,,12,,62,56
25545,note_on,,1,0,7,,,,,,,,,,,,,,,,10,,74,56
25559,note_on,,14,0,11,,,,,,,,,,,,,,,,15,,46,0
25559,note_on,,14,0,7,,,,,,,,,,,,,,,,10,,74,0
25559,note_on,,14,0,8,,,,,,,,,,,,,,,,11,,67,0
25559,note_on,,14,0,9,,,,,,,,,,,,,,,,12,,62,0
25559,note_on,,119,0,6,,,,,,,,,,,,,,,,6,,67,0
25559,note_on,,14,0,10,,,,,,,,,,,,,,,,13,,46,0
25560,note_on,,1,0,8,,,,,,,,,,,,,,,,11,,67,56
25560,note_on,,1,0,9,,,,,,,,,,,,,,,,12,,62,56
25560,note_on,,1,0,10,,,,,,,,,,,,,,,,13,,46,56
25560,note_on,,1,0,11,,,,,,,,,,,,,,,,15,,46,56
25560,note_on,,1,0,7,,,,,,,,,,,,,,,,10,,74,56
25604,note_on,,44,0,10,,,,,,,,,,,,,,,,13,,46,0
25604,note_on,,44,0,9,,,,,,,,,,,,,,,,12,,62,0
25604,note_on,,44,0,7,,,,,,,,,,,,,,,,10,,74,0
25604,note_on,,44,0,8,,,,,,,,,,,,,,,,11,,67,0
25604,note_on,,44,0,11,,,,,,,,,,,,,,,,15,,46,0
25605,note_on,,1,0,8,,,,,,,,,,,,,,,,11,,67,56
25605,note_on,,1,0,10,,,,,,,,,,,,,,,,13,,46,56
25605,note_on,,1,0,7,,,,,,,,,,,,,,,,10,,74,56
25605,note_on,,1,0,11,,,,,,,,,,,,,,,,15,,46,56
25605,note_on,,1,0,9,,,,,,,,,,,,,,,,12,,62,56
25619,note_on,,14,0,7,,,,,,,,,,,,,,,,10,,74,0
25619,note_on,,14,0,8,,,,,,,,,,,,,,,,11,,67,0
25619,note_on,,14,0,9,,,,,,,,,,,,,,,,12,,62,0
25619,note_on,,14,0,10,,,,,,,,,,,,,,,,13,,46,0
25619,note_on,,14,0,11,,,,,,,,,,,,,,,,15,,46,0
25620,note_on,,1,0,8,,,,,,,,,,,,,,,,11,,67,56
25620,note_on,,1,0,9,,,,,,,,,,,,,,,,12,,62,56
25620,note_on,,1,0,7,,,,,,,,,,,,,,,,10,,74,56
25620,note_on,,1,0,10,,,,,,,,,,,,,,,,13,,46,56
25620,note_on,,61,0,6,,,,,,,,,,,,,,,,6,,67,64
25620,note_on,,1,0,11,,,,,,,,,,,,,,,,15,,46,56
25664,note_on,,44,0,8,,,,,,,,,,,,,,,,11,,67,0
25664,note_on,,44,0,10,,,,,,,,,,,,,,,,13,,46,0
25664,note_on,,44,0,7,,,,,,,,,,,,,,,,10,,74,0
25664,note_on,,44,0,9,,,,,,,,,,,,,,,,12,,62,0
25664,note_on,,44,0,11,,,,,,,,,,,,,,,,15,,46,0
25665,note_on,,1,0,7,,,,,,,,,,,,,,,,10,,74,56
25665,note_on,,1,0,8,,,,,,,,,,,,,,,,11,,67,56
25665,note_on,,1,0,11,,,,,,,,,,,,,,,,15,,46,56
25665,note_on,,1,0,9,,,,,,,,,,,,,,,,12,,62,56
25665,note_on,,1,0,10,,,,,,,,,,,,,,,,13,,46,56
25679,note_on,,0,0,11,,,,,,,,,,,,,,,,15,,67,0
25679,note_on,,14,0,8,,,,,,,,,,,,,,,,11,,67,0
25679,note_on,,14,0,7,,,,,,,,,,,,,,,,10,,74,0
25679,note_on,,0,0,11,,,,,,,,,,,,,,,,15,,46,0
25679,note_on,,14,0,9,,,,,,,,,,,,,,,,12,,62,0
25679,note_on,,59,0,6,,,,,,,,,,,,,,,,6,,67,0
25679,note_on,,14,0,10,,,,,,,,,,,,,,,,13,,46,0
25679,note_on,,0,0,11,,,,,,,,,,,,,,,,15,,62,0
25679,note_on,,0,0,11,,,,,,,,,,,,,,,,15,,74,0
25679,note_on,,14,0,11,,,,,,,,,,,,,,,,15,,55,0
25680,note_on,,0,0,11,,,,,,,,,,,,,,,,15,,63,56
25680,note_on,,1,0,7,,,,,,,,,,,,,,,,10,,72,56
25680,note_on,,1,0,10,,,,,,,,,,,,,,,,13,,44,56
25680,note_on,,1,0,11,,,,,,,,,,,,,,,,15,,44,56
25680,note_on,,0,0,11,,,,,,,,,,,,,,,,15,,72,56
25680,note_on,,0,0,11,,,,,,,,,,,,,,,,15,,56,56
25680,note_on,,1,0,9,,,,,,,,,,,,,,,,12,,63,56
25680,note_on,,0,0,11,,,,,,,,,,,,,,,,15,,67,56
25680,note_on,,1,0,6,,,,,,,,,,,,,,,,6,,67,67
25680,note_on,,1,0,8,,,,,,,,,,,,,,,,11,,67,56
25724,note_on,,44,0,10,,,,,,,,,,,,,,,,13,,44,0
25724,note_on,,44,0,7,,,,,,,,,,,,,,,,10,,72,0
25724,note_on,,44,0,8,,,,,,,,,,,,,,,,11,,67,0
25724,note_on,,44,0,9,,,,,,,,,,,,,,,,12,,63,0
25724,note_on,,44,0,11,,,,,,,,,,,,,,,,15,,44,0
25725,note_on,,1,0,9,,,,,,,,,,,,,,,,12,,63,56
25725,note_on,,1,0,11,,,,,,,,,,,,,,,,15,,44,56
25725,note_on,,1,0,10,,,,,,,,,,,,,,,,13,,44,56
25725,note_on,,1,0,8,,,,,,,,,,,,,,,,11,,67,56
25725,note_on,,1,0,7,,,,,,,,,,,,,,,,10,,72,56
25739,note_on,,14,0,8,,,,,,,,,,,,,,,,11,,67,0
25739,note_on,,14,0,11,,,,,,,,,,,,,,,,15,,44,0
25739,note_on,,14,0,9,,,,,,,,,,,,,,,,12,,63,0
25739,note_on,,14,0,7,,,,,,,,,,,,,,,,10,,72,0
25739,note_on,,14,0,10,,,,,,,,,,,,,,,,13,,44,0
25739,note_on,,59,0,6,,,,,,,,,,,,,,,,6,,67,0
25740,note_on,,1,0,7,,,,,,,,,,,,,,,,10,,72,56
25740,note_on,,1,0,8,,,,,,,,,,,,,,,,11,,67,56
25740,note_on,,1,0,11,,,,,,,,,,,,,,,,15,,44,56
25740,note_on,,1,0,10,,,,,,,,,,,,,,,,13,,44,56
25740,note_on,,1,0,9,,,,,,,,,,,,,,,,12,,63,56
25740,note_on,,1,0,6,,,,,,,,,,,,,,,,6,,68,61
25784,note_on,,44,0,11,,,,,,,,,,,,,,,,15,,44,0
25784,note_on,,44,0,7,,,,,,,,,,,,,,,,10,,72,0
25784,note_on,,44,0,8,,,,,,,,,,,,,,,,11,,67,0
25784,note_on,,44,0,9,,,,,,,,,,,,,,,,12,,63,0
25784,note_on,,44,0,6,,,,,,,,,,,,,,,,6,,68,0
25784,note_on,,44,0,10,,,,,,,,,,,,,,,,13,,44,0
25785,note_on,,1,0,7,,,,,,,,,,,,,,,,10,,72,56
25785,note_on,,1,0,8,,,,,,,,,,,,,,,,11,,67,56
25785,note_on,,1,0,10,,,,,,,,,,,,,,,,13,,44,56
25785,note_on,,1,0,6,,,,,,,,,,,,,,,,6,,67,61
25785,note_on,,1,0,11,,,,,,,,,,,,,,,,15,,44,56
25785,note_on,,1,0,9,,,,,,,,,,,,,,,,12,,63,56
25799,note_on,,14,0,7,,,,,,,,,,,,,,,,10,,72,0
25799,note_on,,0,0,11,,,,,,,,,,,,,,,,15,,63,0
25799,note_on,,0,0,11,,,,,,,,,,,,,,,,15,,56,0
25799,note_on,,14,0,11,,,,,,,,,,,,,,,,15,,67,0
25799,note_on,,14,0,9,,,,,,,,,,,,,,,,12,,63,0
25799,note_on,,14,0,6,,,,,,,,,,,,,,,,6,,67,0
25799,note_on,,0,0,11,,,,,,,,,,,,,,,,15,,44,0
25799,note_on,,14,0,8,,,,,,,,,,,,,,,,11,,67,0
25799,note_on,,14,0,10,,,,,,,,,,,,,,,,13,,44,0
25800,note_on,,1,0,7,,,,,,,,,,,,,,,,10,,72,56
25800,note_on,,0,0,11,,,,,,,,,,,,,,,,15,,44,56
25800,note_on,,0,0,11,,,,,,,,,,,,,,,,15,,60,56
25800,note_on,,1,0,11,,,,,,,,,,,,,,,,15,,48,56
25800,note_on,,1,0,8,,,,,,,,,,,,,,,,11,,65,56
25800,note_on,,1,0,10,,,,,,,,,,,,,,,,13,,44,56
25800,note_on,,1,0,6,,,,,,,,,,,,,,,,6,,65,64
25800,note_on,,0,0,11,,,,,,,,,,,,,,,,15,,65,56
25800,note_on,,1,0,9,,,,,,,,,,,,,,,,12,,60,56
25814,note_on,,14,0,6,,,,,,,,,,,,,,,,6,,65,0
25815,note_on,,1,0,6,,,,,,,,,,,,,,,,6,,67,65
25829,note_on,,14,0,6,,,,,,,,,,,,,,,,6,,67,0
25830,note_on,,1,0,6,,,,,,,,,,,,,,,,6,,65,64
25844,note_on,,44,0,8,,,,,,,,,,,,,,,,11,,65,0
25844,note_on,,44,0,7,,,,,,,,,,,,,,,,10,,72,0
25844,note_on,,44,0,10,,,,,,,,,,,,,,,,13,,44,0
25844,note_on,,44,0,9,,,,,,,,,,,,,,,,12,,60,0
25844,note_on,,44,0,11,,,,,,,,,,,,,,,,15,,44,0
25844,note_on,,14,0,6,,,,,,,,,,,,,,,,6,,65,0
25845,note_on,,1,0,11,,,,,,,,,,,,,,,,15,,44,56
25845,note_on,,1,0,6,,,,,,,,,,,,,,,,6,,67,62
25845,note_on,,1,0,9,,,,,,,,,,,,,,,,12,,60,56
25845,note_on,,1,0,7,,,,,,,,,,,,,,,,10,,72,56
25845,note_on,,1,0,8,,,,,,,,,,,,,,,,11,,65,56
25845,note_on,,1,0,10,,,,,,,,,,,,,,,,13,,44,56
25859,note_on,,14,0,10,,,,,,,,,,,,,,,,13,,44,0
25859,note_on,,14,0,9,,,,,,,,,,,,,,,,12,,60,0
25859,note_on,,14,0,6,,,,,,,,,,,,,,,,6,,67,0
25859,note_on,,14,0,7,,,,,,,,,,,,,,,,10,,72,0
25859,note_on,,14,0,8,,,,,,,,,,,,,,,,11,,65,0
25859,note_on,,14,0,11,,,,,,,,,,,,,,,,15,,44,0
25860,note_on,,1,0,6,,,,,,,,,,,,,,,,6,,65,63
25860,note_on,,1,0,9,,,,,,,,,,,,,,,,12,,60,56
25860,note_on,,1,0,7,,,,,,,,,,,,,,,,10,,72,56
25860,note_on,,1,0,8,,,,,,,,,,,,,,,,11,,65,56
25860,note_on,,1,0,10,,,,,,,,,,,,,,,,13,,44,56
25860,note_on,,1,0,11,,,,,,,,,,,,,,,,15,,44,56
25889,note_on,,29,0,6,,,,,,,,,,,,,,,,6,,65,0
25890,note_on,,1,0,6,,,,,,,,,,,,,,,,6,,67,60
25904,note_on,,44,0,10,,,,,,,,,,,,,,,,13,,44,0
25904,note_on,,44,0,8,,,,,,,,,,,,,,,,11,,65,0
25904,note_on,,44,0,7,,,,,,,,,,,,,,,,10,,72,0
25904,note_on,,44,0,11,,,,,,,,,,,,,,,,15,,44,0
25904,note_on,,44,0,9,,,,,,,,,,,,,,,,12,,60,0
25905,note_on,,1,0,10,,,,,,,,,,,,,,,,13,,44,56
25905,note_on,,1,0,8,,,,,,,,,,,,,,,,11,,65,56
25905,note_on,,1,0,7,,,,,,,,,,,,,,,,10,,72,56
25905,note_on,,1,0,9,,,,,,,,,,,,,,,,12,,60,56
25905,note_on,,1,0,11,,,,,,,,,,,,,,,,15,,44,56
25919,note_on,,0,0,11,,,,,,,,,,,,,,,,15,,65,0
25919,note_on,,14,0,11,,,,,,,,,,,,,,,,15,,72,0
25919,note_on,,0,0,11,,,,,,,,,,,,,,,,15,,44,0
25919,note_on,,0,0,11,,,,,,,,,,,,,,,,15,,60,0
25919,note_on,,14,0,10,,,,,,,,,,,,,,,,13,,44,0
25919,note_on,,14,0,7,,,,,,,,,,,,,,,,10,,72,0
25919,note_on,,14,0,8,,,,,,,,,,,,,,,,11,,65,0
25919,note_on,,14,0,9,,,,,,,,,,,,,,,,12,,60,0
25919,note_on,,0,0,11,,,,,,,,,,,,,,,,15,,48,0
25919,note_on,,29,0,6,,,,,,,,,,,,,,,,6,,67,0
25920,note_on,,0,0,11,,,,,,,,,,,,,,,,15,,71,56
25920,note_on,,1,0,7,,,,,,,,,,,,,,,,10,,71,56
25920,note_on,,0,0,11,,,,,,,,,,,,,,,,15,,62,56
25920,note_on,,0,0,11,,,,,,,,,,,,,,,,15,,67,56
25920,note_on,,1,0,11,,,,,,,,,,,,,,,,15,,43,56
25920,note_on,,1,0,10,,,,,,,,,,,,,,,,13,,43,56
25920,note_on,,0,0,11,,,,,,,,,,,,,,,,15,,55,56
25920,note_on,,1,0,6,,,,,,,,,,,,,,,,6,,67,65
25920,note_on,,1,0,8,,,,,,,,,,,,,,,,11,,67,56
25920,note_on,,1,0,9,,,,,,,,,,,,,,,,12,,62,56
25964,note_on,,44,0,11,,,,,,,,,,,,,,,,15,,43,0
25964,note_on,,44,0,8,,,,,,,,,,,,,,,,11,,67,0
25964,note_on,,44,0,9,,,,,,,,,,,,,,,,12,,62,0
25964,note_on,,44,0,10,,,,,,,,,,,,,,,,13,,43,0
25964,note_on,,44,0,7,,,,,,,,,,,,,,,,10,,71,0
25965,note_on,,1,0,10,,,,,,,,,,,,,,,,13,,43,56
25965,note_on,,1,0,8,,,,,,,,,,,,,,,,11,,67,56
25965,note_on,,1,0,11,,,,,,,,,,,,,,,,15,,43,56
25965,note_on,,1,0,9,,,,,,,,,,,,,,,,12,,62,56
25965,note_on,,1,0,7,,,,,,,,,,,,,,,,10,,71,56
25979,note_on,,14,0,7,,,,,,,,,,,,,,,,10,,71,0
25979,note_on,,14,0,8,,,,,,,,,,,,,,,,11,,67,0
25979,note_on,,14,0,10,,,,,,,,,,,,,,,,13,,43,0
25979,note_on,,14,0,11,,,,,,,,,,,,,,,,15,,43,0
25979,note_on,,14,0,9,,,,,,,,,,,,,,,,12,,62,0
25980,note_on,,1,0,8,,,,,,,,,,,,,,,,11,,67,56
25980,note_on,,1,0,9,,,,,,,,,,,,,,,,12,,62,56
25980,note_on,,1,0,10,,,,,,,,,,,,,,,,13,,43,56
25980,note_on,,1,0,7,,,,,,,,,,,,,,,,10,,71,56
25980,note_on,,1,0,11,,,,,,,,,,,,,,,,15,,43,56
26024,note_on,,44,0,11,,,,,,,,,,,,,,,,15,,43,0
26024,note_on,,44,0,9,,,,,,,,,,,,,,,,12,,62,0
26024,note_on,,44,0,8,,,,,,,,,,,,,,,,11,,67,0
26024,note_on,,44,0,10,,,,,,,,,,,,,,,,13,,43,0
26024,note_on,,44,0,7,,,,,,,,,,,,,,,,10,,71,0
26025,note_on,,1,0,11,,,,,,,,,,,,,,,,15,,43,56
26025,note_on,,1,0,9,,,,,,,,,,,,,,,,12,,62,56
26025,note_on,,1,0,8,,,,,,,,,,,,,,,,11,,67,56
26025,note_on,,1,0,10,,,,,,,,,,,,,,,,13,,43,56
26025,note_on,,1,0,7,,,,,,,,,,,,,,,,10,,71,56
26039,note_on,,14,0,11,,,,,,,,,,,,,,,,15,,67,0
26039,note_on,,14,0,7,,,,,,,,,,,,,,,,10,,71,0
26039,note_on,,0,0,11,,,,,,,,,,,,,,,,15,,71,0
26039,note_on,,14,0,9,,,,,,,,,,,,,,,,12,,62,0
26039,note_on,,0,0,11,,,,,,,,,,,,,,,,15,,62,0
26039,note_on,,14,0,10,,,,,,,,,,,,,,,,13,,43,0
26039,note_on,,119,0,6,,,,,,,,,,,,,,,,6,,67,0
26039,note_on,,0,0,11,,,,,,,,,,,,,,,,15,,43,0
26039,note_on,,14,0,8,,,,,,,,,,,,,,,,11,,67,0
26040,note_on,,1,0,7,,,,,,,,,,,,,,,,10,,71,56
26040,note_on,,1,0,10,,,,,,,,,,,,,,,,13,,43,56
26040,note_on,,1,0,11,,,,,,,,,,,,,,,,15,,67,56
26040,note_on,,0,0,11,,,,,,,,,,,,,,,,15,,62,56
26040,note_on,,0,0,11,,,,,,,,,,,,,,,,15,,59,56
26040,note_on,,1,0,6,,,,,,,,,,,,,,,,6,,67,64
26040,note_on,,1,0,9,,,,,,,,,,,,,,,,12,,62,56
26040,note_on,,0,0,11,,,,,,,,,,,,,,,,15,,43,56
26040,note_on,,1,0,8,,,,,,,,,,,,,,,,11,,67,56
26084,note_on,,44,0,8,,,,,,,,,,,,,,,,11,,67,0
26084,note_on,,44,0,11,,,,,,,,,,,,,,,,15,,43,0
26084,note_on,,44,0,10,,,,,,,,,,,,,,,,13,,43,0
26084,note_on,,44,0,7,,,,,,,,,,,,,,,,10,,71,0
26084,note_on,,44,0,9,,,,,,,,,,,,,,,,12,,62,0
26085,note_on,,1,0,11,,,,,,,,,,,,,,,,15,,43,56
26085,note_on,,1,0,7,,,,,,,,,,,,,,,,10,,71,56
26085,note_on,,1,0,9,,,,,,,,,,,,,,,,12,,62,56
26085,note_on,,1,0,10,,,,,,,,,,,,,,,,13,,43,56
26085,note_on,,1,0,8,,,,,,,,,,,,,,,,11,,67,56
26099,note_on,,14,0,8,,,,,,,,,,,,,,,,11,,67,0
26099,note_on,,14,0,9,,,,,,,,,,,,,,,,12,,62,0
26099,note_on,,14,0,7,,,,,,,,,,,,,,,,10,,71,0
26099,note_on,,14,0,10,,,,,,,,,,,,,,,,13,,43,0
26099,note_on,,59,0,6,,,,,,,,,,,,,,,,6,,67,0
26099,note_on,,14,0,11,,,,,,,,,,,,,,,,15,,43,0
26100,note_on,,1,0,10,,,,,,,,,,,,,,,,13,,43,56
26100,note_on,,1,0,6,,,,,,,,,,,,,,,,6,,67,64
26100,note_on,,1,0,9,,,,,,,,,,,,,,,,12,,62,56
26100,note_on,,1,0,11,,,,,,,,,,,,,,,,15,,43,56
26100,note_on,,1,0,8,,,,,,,,,,,,,,,,11,,67,56
26100,note_on,,1,0,7,,,,,,,,,,,,,,,,10,,71,56
26144,note_on,,44,0,10,,,,,,,,,,,,,,,,13,,43,0
26144,note_on,,44,0,8,,,,,,,,,,,,,,,,11,,67,0
26144,note_on,,44,0,11,,,,,,,,,,,,,,,,15,,43,0
26144,note_on,,44,0,6,,,,,,,,,,,,,,,,6,,67,0
26144,note_on,,44,0,9,,,,,,,,,,,,,,,,12,,62,0
26144,note_on,,44,0,7,,,,,,,,,,,,,,,,10,,71,0
26145,note_on,,1,0,9,,,,,,,,,,,,,,,,12,,62,56
26145,note_on,,1,0,10,,,,,,,,,,,,,,,,13,,43,56
26145,note_on,,1,0,11,,,,,,,,,,,,,,,,15,,43,56
26145,note_on,,1,0,7,,,,,,,,,,,,,,,,10,,70,56
26145,note_on,,1,0,6,,,,,,,,,,,,,,,,6,,65,65
26145,note_on,,1,0,8,,,,,,,,,,,,,,,,11,,67,56
26159,note_on,,14,0,7,,,,,,,,,,,,,,,,10,,70,0
26159,note_on,,14,0,11,,,,,,,,,,,,,,,,15,,55,0
26159,note_on,,14,0,9,,,,,,,,,,,,,,,,12,,62,0
26159,note_on,,14,0,6,,,,,,,,,,,,,,,,6,,65,0
26159,note_on,,0,0,11,,,,,,,,,,,,,,,,15,,43,0
26159,note_on,,0,0,11,,,,,,,,,,,,,,,,15,,62,0
26159,note_on,,14,0,8,,,,,,,,,,,,,,,,11,,67,0
26159,note_on,,14,0,10,,,,,,,,,,,,,,,,13,,43,0
26159,note_on,,0,0,11,,,,,,,,,,,,,,,,15,,59,0
26159,note_on,,0,0,11,,,,,,,,,,,,,,,,15,,67,0
26160,note_on,,0,0,11,,,,,,,,,,,,,,,,15,,67,56
26160,note_on,,1,0,7,,,,,,,,,,,,,,,,10,,72,56
26160,note_on,,1,0,6,,,,,,,,,,,,,,,,6,,64,66
26160,note_on,,0,0,11,,,,,,,,,,,,,,,,15,,64,56
26160,note_on,,1,0,10,,,,,,,,,,,,,,,,13,,48,56
26160,note_on,,1,0,8,,,,,,,,,,,,,,,,11,,67,56
26160,note_on,,1,0,9,,,,,,,,,,,,,,,,12,,64,56
26160,note_on,,0,0,11,,,,,,,,,,,,,,,,15,,55,56
26160,note_on,,0,0,11,,,,,,,,,,,,,,,,15,,60,56
26160,note_on,,1,0,11,,,,,,,,,,,,,,,,15,,48,56
26204,note_on,,44,0,7,,,,,,,,,,,,,,,,10,,72,0
26204,note_on,,44,0,11,,,,,,,,,,,,,,,,15,,48,0
26204,note_on,,44,0,8,,,,,,,,,,,,,,,,11,,67,0
26204,note_on,,44,0,9,,,,,,,,,,,,,,,,12,,64,0
26204,note_on,,44,0,10,,,,,,,,,,,,,,,,13,,48,0
26205,note_on,,1,0,11,,,,,,,,,,,,,,,,15,,48,56
26205,note_on,,1,0,8,,,,,,,,,,,,,,,,11,,67,56
26205,note_on,,1,0,9,,,,,,,,,,,,,,,,12,,64,56
26205,note_on,,1,0,10,,,,,,,,,,,,,,,,13,,48,56
26205,note_on,,1,0,7,,,,,,,,,,,,,,,,10,,72,56
26219,note_on,,14,0,7,,,,,,,,,,,,,,,,10,,72,0
26219,note_on,,14,0,8,,,,,,,,,,,,,,,,11,,67,0
26219,note_on,,14,0,10,,,,,,,,,,,,,,,,13,,48,0
26219,note_on,,14,0,11,,,,,,,,,,,,,,,,15,,48,0
26219,note_on,,14,0,9,,,,,,,,,,,,,,,,12,,64,0
26220,note_on,,1,0,7,,,,,,,,,,,,,,,,10,,72,56
26220,note_on,,1,0,10,,,,,,,,,,,,,,,,13,,48,56
26220,note_on,,1,0,9,,,,,,,,,,,,,,,,12,,64,56
26220,note_on,,1,0,11,,,,,,,,,,,,,,,,15,,48,56
26220,note_on,,1,0,8,,,,,,,,,,,,,,,,11,,67,56
26264,note_on,,44,0,7,,,,,,,,,,,,,,,,10,,72,0
26264,note_on,,44,0,11,,,,,,,,,,,,,,,,15,,48,0
26264,note_on,,44,0,10,,,,,,,,,,,,,,,,13,,48,0
26264,note_on,,44,0,9,,,,,,,,,,,,,,,,12,,64,0
26264,note_on,,44,0,8,,,,,,,,,,,,,,,,11,,67,0
26265,note_on,,1,0,10,,,,,,,,,,,,,,,,13,,48,56
26265,note_on,,1,0,11,,,,,,,,,,,,,,,,15,,48,56
26265,note_on,,1,0,8,,,,,,,,,,,,,,,,11,,67,56
26265,note_on,,1,0,7,,,,,,,,,,,,,,,,10,,72,56
26265,note_on,,1,0,9,,,,,,,,,,,,,,,,12,,64,56
26279,note_on,,14,0,7,,,,,,,,,,,,,,,,10,,72,0
26279,note_on,,14,0,10,,,,,,,,,,,,,,,,13,,48,0
26279,note_on,,14,0,9,,,,,,,,,,,,,,,,12,,64,0
26279,note_on,,14,0,11,,,,,,,,,,,,,,,,15,,48,0
26279,note_on,,14,0,8,,,,,,,,,,,,,,,,11,,67,0
26279,note_on,,119,0,6,,,,,,,,,,,,,,,,6,,64,0
26280,note_on,,1,0,8,,,,,,,,,,,,,,,,11,,67,56
26280,note_on,,1,0,11,,,,,,,,,,,,,,,,15,,48,56
26280,note_on,,1,0,7,,,,,,,,,,,,,,,,10,,72,56
26280,note_on,,1,0,10,,,,,,,,,,,,,,,,13,,48,56
26280,note_on,,1,0,9,,,,,,,,,,,,,,,,12,,64,56
26324,note_on,,44,0,11,,,,,,,,,,,,,,,,15,,48,0
26324,note_on,,44,0,7,,,,,,,,,,,,,,,,10,,72,0
26324,note_on,,44,0,10,,,,,,,,,,,,,,,,13,,48,0
26324,note_on,,44,0,8,,,,,,,,,,,,,,,,11,,67,0
26324,note_on,,44,0,9,,,,,,,,,,,,,,,,12,,64,0
26325,note_on,,1,0,11,,,,,,,,,,,,,,,,15,,48,56
26325,note_on,,1,0,10,,,,,,,,,,,,,,,,13,,48,56
26325,note_on,,1,0,8,,,,,,,,,,,,,,,,11,,67,56
26325,note_on,,1,0,7,,,,,,,,,,,,,,,,10,,72,56
26325,note_on,,1,0,9,,,,,,,,,,,,,,,,12,,64,56
26339,note_on,,14,0,11,,,,,,,,,,,,,,,,15,,48,0
26339,note_on,,14,0,7,,,,,,,,,,,,,,,,10,,72,0
26339,note_on,,14,0,8,,,,,,,,,,,,,,,,11,,67,0
26339,note_on,,14,0,9,,,,,,,,,,,,,,,,12,,64,0
26339,note_on,,14,0,10,,,,,,,,,,,,,,,,13,,48,0
26340,note_on,,1,0,7,,,,,,,,,,,,,,,,10,,72,56
26340,note_on,,1,0,10,,,,,,,,,,,,,,,,13,,48,56
26340,note_on,,61,0,6,,,,,,,,,,,,,,,,6,,67,61
26340,note_on,,1,0,9,,,,,,,,,,,,,,,,12,,64,56
26340,note_on,,1,0,11,,,,,,,,,,,,,,,,15,,48,56
26340,note_on,,1,0,8,,,,,,,,,,,,,,,,11,,67,56
26384,note_on,,44,0,9,,,,,,,,,,,,,,,,12,,64,0
26384,note_on,,44,0,8,,,,,,,,,,,,,,,,11,,67,0
26384,note_on,,44,0,7,,,,,,,,,,,,,,,,10,,72,0
26384,note_on,,44,0,11,,,,,,,,,,,,,,,,15,,48,0
26384,note_on,,44,0,10,,,,,,,,,,,,,,,,13,,48,0
26384,note_on,,44,0,6,,,,,,,,,,,,,,,,6,,67,0
26385,note_on,,1,0,6,,,,,,,,,,,,,,,,6,,67,64
26385,note_on,,1,0,7,,,,,,,,,,,,,,,,10,,72,56
26385,note_on,,1,0,8,,,,,,,,,,,,,,,,11,,67,56
26385,note_on,,1,0,9,,,,,,,,,,,,,,,,12,,64,56
26385,note_on,,1,0,11,,,,,,,,,,,,,,,,15,,48,56
26385,note_on,,1,0,10,,,,,,,,,,,,,,,,13,,48,56
26399,note_on,,14,0,7,,,,,,,,,,,,,,,,10,,72,0
26399,note_on,,14,0,6,,,,,,,,,,,,,,,,6,,67,0
26399,note_on,,14,0,8,,,,,,,,,,,,,,,,11,,67,0
26399,note_on,,0,0,11,,,,,,,,,,,,,,,,15,,55,0
26399,note_on,,14,0,11,,,,,,,,,,,,,,,,15,,60,0
26399,note_on,,14,0,9,,,,,,,,,,,,,,,,12,,64,0
26399,note_on,,0,0,11,,,,,,,,,,,,,,,,15,,64,0
26399,note_on,,0,0,11,,,,,,,,,,,,,,,,15,,67,0
26399,note_on,,0,0,11,,,,,,,,,,,,,,,,15,,48,0
26399,note_on,,14,0,10,,,,,,,,,,,,,,,,13,,48,0
26400,note_on,,0,0,11,,,,,,,,,,,,,,,,15,,53,56
26400,note_on,,0,0,11,,,,,,,,,,,,,,,,15,,41,56
26400,note_on,,0,0,11,,,,,,,,,,,,,,,,15,,60,56
26400,note_on,,0,0,11,,,,,,,,,,,,,,,,15,,68,56
26400,note_on,,1,0,7,,,,,,,,,,,,,,,,10,,72,56
26400,note_on,,1,0,6,,,,,,,,,,,,,,,,6,,68,66
26400,note_on,,1,0,10,,,,,,,,,,,,,,,,13,,41,56
26400,note_on,,1,0,9,,,,,,,,,,,,,,,,12,,65,56
26400,note_on,,1,0,11,,,,,,,,,,,,,,,,15,,65,56
26400,note_on,,1,0,8,,,,,,,,,,,,,,,,11,,68,56
26444,note_on,,44,0,11,,,,,,,,,,,,,,,,15,,41,0
26444,note_on,,44,0,8,,,,,,,,,,,,,,,,11,,68,0
26444,note_on,,44,0,10,,,,,,,,,,,,,,,,13,,41,0
26444,note_on,,44,0,7,,,,,,,,,,,,,,,,10,,72,0
26444,note_on,,44,0,9,,,,,,,,,,,,,,,,12,,65,0
26445,note_on,,1,0,9,,,,,,,,,,,,,,,,12,,65,56
26445,note_on,,1,0,10,,,,,,,,,,,,,,,,13,,41,56
26445,note_on,,1,0,7,,,,,,,,,,,,,,,,10,,72,56
26445,note_on,,1,0,11,,,,,,,,,,,,,,,,15,,41,56
26445,note_on,,1,0,8,,,,,,,,,,,,,,,,11,,68,56
26459,note_on,,14,0,10,,,,,,,,,,,,,,,,13,,41,0
26459,note_on,,14,0,7,,,,,,,,,,,,,,,,10,,72,0
26459,note_on,,14,0,11,,,,,,,,,,,,,,,,15,,41,0
26459,note_on,,14,0,8,,,,,,,,,,,,,,,,11,,68,0
26459,note_on,,14,0,9,,,,,,,,,,,,,,,,12,,65,0
26460,note_on,,1,0,7,,,,,,,,,,,,,,,,10,,72,56
26460,note_on,,1,0,8,,,,,,,,,,,,,,,,11,,68,56
26460,note_on,,1,0,9,,,,,,,,,,,,,,,,12,,65,56
26460,note_on,,1,0,11,,,,,,,,,,,,,,,,15,,41,56
26460,note_on,,1,0,10,,,,,,,,,,,,,,,,13,,41,56
26504,note_on,,44,0,7,,,,,,,,,,,,,,,,10,,72,0
26504,note_on,,44,0,8,,,,,,,,,,,,,,,,11,,68,0
26504,note_on,,44,0,11,,,,,,,,,,,,,,,,15,,41,0
26504,note_on,,44,0,10,,,,,,,,,,,,,,,,13,,41,0
26504,note_on,,44,0,9,,,,,,,,,,,,,,,,12,,65,0
26505,note_on,,1,0,10,,,,,,,,,,,,,,,,13,,41,56
26505,note_on,,1,0,7,,,,,,,,,,,,,,,,10,,72,56
26505,note_on,,1,0,11,,,,,,,,,,,,,,,,15,,41,56
26505,note_on,,1,0,8,,,,,,,,,,,,,,,,11,,68,56
26505,note_on,,1,0,9,,,,,,,,,,,,,,,,12,,65,56
26519,note_on,,14,0,10,,,,,,,,,,,,,,,,13,,41,0
26519,note_on,,14,0,7,,,,,,,,,,,,,,,,10,,72,0
26519,note_on,,14,0,11,,,,,,,,,,,,,,,,15,,41,0
26519,note_on,,14,0,8,,,,,,,,,,,,,,,,11,,68,0
26519,note_on,,119,0,6,,,,,,,,,,,,,,,,6,,68,0
26519,note_on,,14,0,9,,,,,,,,,,,,,,,,12,,65,0
26520,note_on,,1,0,7,,,,,,,,,,,,,,,,10,,72,56
26520,note_on,,1,0,10,,,,,,,,,,,,,,,,13,,41,56
26520,note_on,,1,0,11,,,,,,,,,,,,,,,,15,,41,56
26520,note_on,,1,0,8,,,,,,,,,,,,,,,,11,,68,56
26520,note_on,,1,0,9,,,,,,,,,,,,,,,,12,,65,56
26564,note_on,,44,0,9,,,,,,,,,,,,,,,,12,,65,0
26564,note_on,,44,0,10,,,,,,,,,,,,,,,,13,,41,0
26564,note_on,,44,0,11,,,,,,,,,,,,,,,,15,,41,0
26564,note_on,,44,0,7,,,,,,,,,,,,,,,,10,,72,0
26564,note_on,,44,0,8,,,,,,,,,,,,,,,,11,,68,0
26565,note_on,,1,0,9,,,,,,,,,,,,,,,,12,,65,56
26565,note_on,,1,0,11,,,,,,,,,,,,,,,,15,,41,56
26565,note_on,,1,0,10,,,,,,,,,,,,,,,,13,,41,56
26565,note_on,,1,0,7,,,,,,,,,,,,,,,,10,,72,56
26565,note_on,,1,0,8,,,,,,,,,,,,,,,,11,,68,56
26579,note_on,,14,0,10,,,,,,,,,,,,,,,,13,,41,0
26579,note_on,,14,0,7,,,,,,,,,,,,,,,,10,,72,0
26579,note_on,,14,0,9,,,,,,,,,,,,,,,,12,,65,0
26579,note_on,,14,0,11,,,,,,,,,,,,,,,,15,,41,0
26579,note_on,,14,0,8,,,,,,,,,,,,,,,,11,,68,0
26580,note_on,,1,0,7,,,,,,,,,,,,,,,,10,,72,56
26580,note_on,,1,0,11,,,,,,,,,,,,,,,,15,,41,56
26580,note_on,,1,0,9,,,,,,,,,,,,,,,,12,,65,56
26580,note_on,,61,0,6,,,,,,,,,,,,,,,,6,,65,67
26580,note_on,,1,0,10,,,,,,,,,,,,,,,,13,,41,56
26580,note_on,,1,0,8,,,,,,,,,,,,,,,,11,,68,56
26624,note_on,,44,0,11,,,,,,,,,,,,,,,,15,,41,0
26624,note_on,,44,0,10,,,,,,,,,,,,,,,,13,,41,0
26624,note_on,,44,0,7,,,,,,,,,,,,,,,,10,,72,0
26624,note_on,,44,0,9,,,,,,,,,,,,,,,,12,,65,0
26624,note_on,,44,0,6,,,,,,,,,,,,,,,,6,,65,0
26624,note_on,,44,0,8,,,,,,,,,,,,,,,,11,,68,0
26625,note_on,,1,0,8,,,,,,,,,,,,,,,,11,,68,56
26625,note_on,,1,0,6,,,,,,,,,,,,,,,,6,,63,64
26625,note_on,,1,0,9,,,,,,,,,,,,,,,,12,,65,56
26625,note_on,,1,0,10,,,,,,,,,,,,,,,,13,,41,56
26625,note_on,,1,0,7,,,,,,,,,,,,,,,,10,,72,56
26625,note_on,,1,0,11,,,,,,,,,,,,,,,,15,,41,56
26639,note_on,,0,0,11,,,,,,,,,,,,,,,,15,,68,0
26639,note_on,,0,0,11,,,,,,,,,,,,,,,,15,,60,0
26639,note_on,,14,0,7,,,,,,,,,,,,,,,,10,,72,0
26639,note_on,,0,0,11,,,,,,,,,,,,,,,,15,,53,0
26639,note_on,,14,0,6,,,,,,,,,,,,,,,,6,,63,0
26639,note_on,,14,0,11,,,,,,,,,,,,,,,,15,,65,0
26639,note_on,,0,0,11,,,,,,,,,,,,,,,,15,,41,0
26639,note_on,,14,0,10,,,,,,,,,,,,,,,,13,,41,0
26639,note_on,,14,0,9,,,,,,,,,,,,,,,,12,,65,0
26639,note_on,,14,0,8,,,,,,,,,,,,,,,,11,,68,0
26640,note_on,,1,0,6,,,,,,,,,,,,,,,,6,,62,65
26640,note_on,,1,0,10,,,,,,,,,,,,,,,,13,,46,56
26640,note_on,,1,0,9,,,,,,,,,,,,,,,,12,,62,56
26640,note_on,,0,0,11,,,,,,,,,,,,,,,,15,,46,56
26640,note_on,,0,0,11,,,,,,,,,,,,,,,,15,,65,56
26640,note_on,,0,0,11,,,,,,,,,,,,,,,,15,,62,56
26640,note_on,,0,0,11,,,,,,,,,,,,,,,,15,,53,56
26640,note_on,,1,0,11,,,,,,,,,,,,,,,,15,,58,56
26640,note_on,,1,0,7,,,,,,,,,,,,,,,,10,,70,56
26640,note_on,,1,0,8,,,,,,,,,,,,,,,,11,,65,56
26684,note_on,,44,0,7,,,,,,,,,,,,,,,,10,,70,0
26684,note_on,,44,0,8,,,,,,,,,,,,,,,,11,,65,0
26684,note_on,,44,0,9,,,,,,,,,,,,,,,,12,,62,0
26684,note_on,,44,0,11,,,,,,,,,,,,,,,,15,,46,0
26684,note_on,,44,0,10,,,,,,,,,,,,,,,,13,,46,0
26685,note_on,,1,0,7,,,,,,,,,,,,,,,,10,,70,56
26685,note_on,,1,0,8,,,,,,,,,,,,,,,,11,,65,56
26685,note_on,,1,0,11,,,,,,,,,,,,,,,,15,,46,56
26685,note_on,,1,0,9,,,,,,,,,,,,,,,,12,,62,56
26685,note_on,,1,0,10,,,,,,,,,,,,,,,,13,,46,56
26699,note_on,,14,0,7,,,,,,,,,,,,,,,,10,,70,0
26699,note_on,,14,0,10,,,,,,,,,,,,,,,,13,,46,0
26699,note_on,,14,0,11,,,,,,,,,,,,,,,,15,,46,0
26699,note_on,,59,0,6,,,,,,,,,,,,,,,,6,,62,0
26699,note_on,,14,0,8,,,,,,,,,,,,,,,,11,,65,0
26699,note_on,,14,0,9,,,,,,,,,,,,,,,,12,,62,0
26700,note_on,,1,0,6,,,,,,,,,,,,,,,,6,,62,60
26700,note_on,,1,0,11,,,,,,,,,,,,,,,,15,,46,56
26700,note_on,,1,0,10,,,,,,,,,,,,,,,,13,,46,56
26700,note_on,,1,0,8,,,,,,,,,,,,,,,,11,,65,56
26700,note_on,,1,0,9,,,,,,,,,,,,,,,,12,,62,56
26700,note_on,,1,0,7,,,,,,,,,,,,,,,,10,,70,56
26744,note_on,,44,0,11,,,,,,,,,,,,,,,,15,,46,0
26744,note_on,,44,0,10,,,,,,,,,,,,,,,,13,,46,0
26744,note_on,,44,0,8,,,,,,,,,,,,,,,,11,,65,0
26744,note_on,,44,0,9,,,,,,,,,,,,,,,,12,,62,0
26744,note_on,,44,0,7,,,,,,,,,,,,,,,,10,,70,0
26745,note_on,,1,0,11,,,,,,,,,,,,,,,,15,,46,56
26745,note_on,,1,0,8,,,,,,,,,,,,,,,,11,,65,56
26745,note_on,,1,0,7,,,,,,,,,,,,,,,,10,,70,56
26745,note_on,,1,0,10,,,,,,,,,,,,,,,,13,,46,56
26745,note_on,,1,0,9,,,,,,,,,,,,,,,,12,,62,56
26759,note_on,,14,0,7,,,,,,,,,,,,,,,,10,,70,0
26759,note_on,,14,0,11,,,,,,,,,,,,,,,,15,,46,0
26759,note_on,,59,0,6,,,,,,,,,,,,,,,,6,,62,0
26759,note_on,,14,0,10,,,,,,,,,,,,,,,,13,,46,0
26759,note_on,,14,0,9,,,,,,,,,,,,,,,,12,,62,0
26759,note_on,,14,0,8,,,,,,,,,,,,,,,,11,,65,0
26760,note_on,,1,0,11,,,,,,,,,,,,,,,,15,,46,56
26760,note_on,,1,0,6,,,,,,,,,,,,,,,,6,,63,65
26760,note_on,,1,0,9,,,,,,,,,,,,,,,,12,,62,56
26760,note_on,,1,0,10,,,,,,,,,,,,,,,,13,,46,56
26760,note_on,,1,0,8,,,,,,,,,,,,,,,,11,,65,56
26760,note_on,,1,0,7,,,,,,,,,,,,,,,,10,,70,56
26804,note_on,,44,0,11,,,,,,,,,,,,,,,,15,,46,0
26804,note_on,,44,0,7,,,,,,,,,,,,,,,,10,,70,0
26804,note_on,,44,0,10,,,,,,,,,,,,,,,,13,,46,0
26804,note_on,,44,0,8,,,,,,,,,,,,,,,,11,,65,0
26804,note_on,,44,0,9,,,,,,,,,,,,,,,,12,,62,0
26805,note_on,,1,0,9,,,,,,,,,,,,,,,,12,,62,56
26805,note_on,,1,0,11,,,,,,,,,,,,,,,,15,,46,56
26805,note_on,,1,0,8,,,,,,,,,,,,,,,,11,,65,56
26805,note_on,,1,0,10,,,,,,,,,,,,,,,,13,,46,56
26805,note_on,,1,0,7,,,,,,,,,,,,,,,,10,,70,56
26819,note_on,,14,0,11,,,,,,,,,,,,,,,,15,,46,0
26819,note_on,,14,0,8,,,,,,,,,,,,,,,,11,,65,0
26819,note_on,,14,0,9,,,,,,,,,,,,,,,,12,,62,0
26819,note_on,,14,0,7,,,,,,,,,,,,,,,,10,,70,0
26819,note_on,,14,0,10,,,,,,,,,,,,,,,,13,,46,0
26819,note_on,,59,0,6,,,,,,,,,,,,,,,,6,,63,0
26820,note_on,,1,0,10,,,,,,,,,,,,,,,,13,,46,56
26820,note_on,,1,0,9,,,,,,,,,,,,,,,,12,,62,56
26820,note_on,,1,0,8,,,,,,,,,,,,,,,,11,,65,56
26820,note_on,,1,0,7,,,,,,,,,,,,,,,,10,,70,56
26820,note_on,,1,0,11,,,,,,,,,,,,,,,,15,,46,56
26820,note_on,,1,0,6,,,,,,,,,,,,,,,,6,,65,67
26864,note_on,,44,0,11,,,,,,,,,,,,,,,,15,,46,0
26864,note_on,,44,0,9,,,,,,,,,,,,,,,,12,,62,0
26864,note_on,,44,0,7,,,,,,,,,,,,,,,,10,,70,0
26864,note_on,,44,0,8,,,,,,,,,,,,,,,,11,,65,0
26864,note_on,,44,0,10,,,,,,,,,,,,,,,,13,,46,0
26865,note_on,,1,0,11,,,,,,,,,,,,,,,,15,,46,56
26865,note_on,,1,0,8,,,,,,,,,,,,,,,,11,,65,56
26865,note_on,,1,0,9,,,,,,,,,,,,,,,,12,,62,56
26865,note_on,,1,0,10,,,,,,,,,,,,,,,,13,,46,56
26865,note_on,,1,0,7,,,,,,,,,,,,,,,,10,,70,56
26879,note_on,,14,0,8,,,,,,,,,,,,,,,,11,,65,0
26879,note_on,,14,0,9,,,,,,,,,,,,,,,,12,,62,0
26879,note_on,,0,0,11,,,,,,,,,,,,,,,,15,,62,0
26879,note_on,,0,0,11,,,,,,,,,,,,,,,,15,,65,0
26879,note_on,,14,0,11,,,,,,,,,,,,,,,,15,,58,0
26879,note_on,,59,0,6,,,,,,,,,,,,,,,,6,,65,0
26879,note_on,,14,0,7,,,,,,,,,,,,,,,,10,,70,0
26879,note_on,,14,0,10,,,,,,,,,,,,,,,,13,,46,0
26879,note_on,,0,0,11,,,,,,,,,,,,,,,,15,,53,0
26879,note_on,,0,0,11,,,,,,,,,,,,,,,,15,,46,0
26880,note_on,,1,0,10,,,,,,,,,,,,,,,,13,,39,56
26880,note_on,,0,0,11,,,,,,,,,,,,,,,,15,,67,56
26880,note_on,,1,0,9,,,,,,,,,,,,,,,,12,,63,56
26880,note_on,,1,0,6,,,,,,,,,,,,,,,,6,,67,62
26880,note_on,,1,0,8,,,,,,,,,,,,,,,,11,,67,56
26880,note_on,,0,0,11,,,,,,,,,,,,,,,,15,,39,56
26880,note_on,,1,0,11,,,,,,,,,,,,,,,,15,,58,56
26880,note_on,,1,0,7,,,,,,,,,,,,,,,,10,,70,56
26880,note_on,,0,0,11,,,,,,,,,,,,,,,,15,,63,56
26880,note_on,,0,0,11,,,,,,,,,,,,,,,,15,,51,56
26924,note_on,,44,0,7,,,,,,,,,,,,,,,,10,,70,0
26924,note_on,,44,0,10,,,,,,,,,,,,,,,,13,,39,0
26924,note_on,,44,0,11,,,,,,,,,,,,,,,,15,,39,0
26924,note_on,,44,0,9,,,,,,,,,,,,,,,,12,,63,0
26924,note_on,,44,0,8,,,,,,,,,,,,,,,,11,,67,0
26925,note_on,,1,0,7,,,,,,,,,,,,,,,,10,,70,56
26925,note_on,,1,0,10,,,,,,,,,,,,,,,,13,,39,56
26925,note_on,,1,0,11,,,,,,,,,,,,,,,,15,,39,56
26925,note_on,,1,0,8,,,,,,,,,,,,,,,,11,,67,56
26925,note_on,,1,0,9,,,,,,,,,,,,,,,,12,,63,56
26939,note_on,,14,0,10,,,,,,,,,,,,,,,,13,,39,0
26939,note_on,,14,0,11,,,,,,,,,,,,,,,,15,,39,0
26939,note_on,,14,0,8,,,,,,,,,,,,,,,,11,,67,0
26939,note_on,,14,0,7,,,,,,,,,,,,,,,,10,,70,0
26939,note_on,,14,0,9,,,,,,,,,,,,,,,,12,,63,0
26940,note_on,,1,0,9,,,,,,,,,,,,,,,,12,,63,56
26940,note_on,,1,0,10,,,,,,,,,,,,,,,,13,,39,56
26940,note_on,,1,0,8,,,,,,,,,,,,,,,,11,,67,56
26940,note_on,,1,0,7,,,,,,,,,,,,,,,,10,,70,56
26940,note_on,,1,0,11,,,,,,,,,,,,,,,,15,,39,56
26984,note_on,,44,0,7,,,,,,,,,,,,,,,,10,,70,0
26984,note_on,,44,0,9,,,,,,,,,,,,,,,,12,,63,0
26984,note_on,,44,0,10,,,,,,,,,,,,,,,,13,,39,0
26984,note_on,,44,0,11,,,,,,,,,,,,,,,,15,,39,0
26984,note_on,,44,0,8,,,,,,,,,,,,,,,,11,,67,0
26985,note_on,,1,0,7,,,,,,,,,,,,,,,,10,,70,56
26985,note_on,,1,0,10,,,,,,,,,,,,,,,,13,,39,56
26985,note_on,,1,0,8,,,,,,,,,,,,,,,,11,,67,56
26985,note_on,,1,0,11,,,,,,,,,,,,,,,,15,,39,56
26985,note_on,,1,0,9,,,,,,,,,,,,,,,,12,,63,56
26999,note_on,,14,0,7,,,,,,,,,,,,,,,,10,,70,0
26999,note_on,,14,0,10,,,,,,,,,,,,,,,,13,,39,0
26999,note_on,,14,0,8,,,,,,,,,,,,,,,,11,,67,0
26999,note_on,,14,0,11,,,,,,,,,,,,,,,,15,,39,0
26999,note_on,,119,0,6,,,,,,,,,,,,,,,,6,,67,0
26999,note_on,,14,0,9,,,,,,,,,,,,,,,,12,,63,0
27000,note_on,,1,0,10,,,,,,,,,,,,,,,,13,,39,56
27000,note_on,,1,0,6,,,,,,,,,,,,,,,,6,,63,64
27000,note_on,,1,0,7,,,,,,,,,,,,,,,,10,,70,56
27000,note_on,,1,0,8,,,,,,,,,,,,,,,,11,,67,56
27000,note_on,,1,0,9,,,,,,,,,,,,,,,,12,,63,56
27000,note_on,,1,0,11,,,,,,,,,,,,,,,,15,,39,56
27044,note_on,,44,0,10,,,,,,,,,,,,,,,,13,,39,0
27044,note_on,,44,0,7,,,,,,,,,,,,,,,,10,,70,0
27044,note_on,,44,0,8,,,,,,,,,,,,,,,,11,,67,0
27044,note_on,,44,0,9,,,,,,,,,,,,,,,,12,,63,0
27044,note_on,,44,0,11,,,,,,,,,,,,,,,,15,,39,0
27045,note_on,,1,0,7,,,,,,,,,,,,,,,,10,,70,56
27045,note_on,,1,0,8,,,,,,,,,,,,,,,,11,,67,56
27045,note_on,,1,0,11,,,,,,,,,,,,,,,,15,,39,56
27045,note_on,,1,0,10,,,,,,,,,,,,,,,,13,,39,56
27045,note_on,,1,0,9,,,,,,,,,,,,,,,,12,,63,56
27059,note_on,,14,0,11,,,,,,,,,,,,,,,,15,,39,0
27059,note_on,,14,0,9,,,,,,,,,,,,,,,,12,,63,0
27059,note_on,,14,0,7,,,,,,,,,,,,,,,,10,,70,0
27059,note_on,,59,0,6,,,,,,,,,,,,,,,,6,,63,0
27059,note_on,,14,0,10,,,,,,,,,,,,,,,,13,,39,0
27059,note_on,,14,0,8,,,,,,,,,,,,,,,,11,,67,0
27060,note_on,,1,0,7,,,,,,,,,,,,,,,,10,,70,56
27060,note_on,,1,0,6,,,,,,,,,,,,,,,,6,,63,62
27060,note_on,,1,0,10,,,,,,,,,,,,,,,,13,,39,56
27060,note_on,,1,0,9,,,,,,,,,,,,,,,,12,,63,56
27060,note_on,,1,0,11,,,,,,,,,,,,,,,,15,,39,56
27060,note_on,,1,0,8,,,,,,,,,,,,,,,,11,,67,56
27104,note_on,,44,0,8,,,,,,,,,,,,,,,,11,,67,0
27104,note_on,,44,0,9,,,,,,,,,,,,,,,,12,,63,0
27104,note_on,,44,0,10,,,,,,,,,,,,,,,,13,,39,0
27104,note_on,,44,0,6,,,,,,,,,,,,,,,,6,,63,0
27104,note_on,,44,0,11,,,,,,,,,,,,,,,,15,,39,0
27104,note_on,,44,0,7,,,,,,,,,,,,,,,,10,,70,0
27105,note_on,,1,0,8,,,,,,,,,,,,,,,,11,,67,56
27105,note_on,,1,0,6,,,,,,,,,,,,,,,,6,,62,61
27105,note_on,,1,0,11,,,,,,,,,,,,,,,,15,,39,56
27105,note_on,,1,0,10,,,,,,,,,,,,,,,,13,,39,56
27105,note_on,,1,0,7,,,,,,,,,,,,,,,,10,,70,56
27105,note_on,,1,0,9,,,,,,,,,,,,,,,,12,,63,56
27119,note_on,,14,0,10,,,,,,,,,,,,,,,,13,,39,0
27119,note_on,,14,0,8,,,,,,,,,,,,,,,,11,,67,0
27119,note_on,,14,0,7,,,,,,,,,,,,,,,,10,,70,0
27119,note_on,,14,0,6,,,,,,,,,,,,,,,,6,,62,0
27119,note_on,,14,0,11,,,,,,,,,,,,,,,,15,,58,0
27119,note_on,,0,0,11,,,,,,,,,,,,,,,,15,,67,0
27119,note_on,,0,0,11,,,,,,,,,,,,,,,,15,,51,0
27119,note_on,,0,0,11,,,,,,,,,,,,,,,,15,,63,0
27119,note_on,,0,0,11,,,,,,,,,,,,,,,,15,,39,0
27119,note_on,,14,0,9,,,,,,,,,,,,,,,,12,,63,0
27120,note_on,,1,0,7,,,,,,,,,,,,,,,,10,,72,56
27120,note_on,,0,0,11,,,,,,,,,,,,,,,,15,,51,56
27120,note_on,,1,0,9,,,,,,,,,,,,,,,,12,,63,56
27120,note_on,,0,0,11,,,,,,,,,,,,,,,,15,,67,56
27120,note_on,,1,0,8,,,,,,,,,,,,,,,,11,,67,56
27120,note_on,,1,0,10,,,,,,,,,,,,,,,,13,,44,56
27120,note_on,,0,0,11,,,,,,,,,,,,,,,,15,,63,56
27120,note_on,,1,0,11,,,,,,,,,,,,,,,,15,,44,56
27120,note_on,,1,0,6,,,,,,,,,,,,,,,,6,,60,60
27120,note_on,,0,0,11,,,,,,,,,,,,,,,,15,,60,56
27164,note_on,,44,0,7,,,,,,,,,,,,,,,,10,,72,0
27164,note_on,,44,0,8,,,,,,,,,,,,,,,,11,,67,0
27164,note_on,,44,0,11,,,,,,,,,,,,,,,,15,,44,0
27164,note_on,,44,0,9,,,,,,,,,,,,,,,,12,,63,0
27164,note_on,,44,0,10,,,,,,,,,,,,,,,,13,,44,0
27165,note_on,,1,0,9,,,,,,,,,,,,,,,,12,,63,56
27165,note_on,,1,0,11,,,,,,,,,,,,,,,,15,,44,56
27165,note_on,,1,0,7,,,,,,,,,,,,,,,,10,,72,56
27165,note_on,,1,0,8,,,,,,,,,,,,,,,,11,,67,56
27165,note_on,,1,0,10,,,,,,,,,,,,,,,,13,,44,56
27179,note_on,,14,0,9,,,,,,,,,,,,,,,,12,,63,0
27179,note_on,,14,0,11,,,,,,,,,,,,,,,,15,,44,0
27179,note_on,,14,0,8,,,,,,,,,,,,,,,,11,,67,0
27179,note_on,,14,0,7,,,,,,,,,,,,,,,,10,,72,0
27179,note_on,,14,0,10,,,,,,,,,,,,,,,,13,,44,0
27180,note_on,,1,0,9,,,,,,,,,,,,,,,,12,,63,56
27180,note_on,,1,0,8,,,,,,,,,,,,,,,,11,,67,56
27180,note_on,,1,0,10,,,,,,,,,,,,,,,,13,,44,56
27180,note_on,,1,0,11,,,,,,,,,,,,,,,,15,,44,56
27180,note_on,,1,0,7,,,,,,,,,,,,,,,,10,,72,56
27224,note_on,,44,0,7,,,,,,,,,,,,,,,,10,,72,0
27224,note_on,,44,0,10,,,,,,,,,,,,,,,,13,,44,0
27224,note_on,,44,0,11,,,,,,,,,,,,,,,,15,,44,0
27224,note_on,,44,0,8,,,,,,,,,,,,,,,,11,,67,0
27224,note_on,,44,0,9,,,,,,,,,,,,,,,,12,,63,0
27225,note_on,,1,0,7,,,,,,,,,,,,,,,,10,,72,56
27225,note_on,,1,0,10,,,,,,,,,,,,,,,,13,,44,56
27225,note_on,,1,0,11,,,,,,,,,,,,,,,,15,,44,56
27225,note_on,,1,0,9,,,,,,,,,,,,,,,,12,,63,56
27225,note_on,,1,0,8,,,,,,,,,,,,,,,,11,,67,56
27239,note_on,,14,0,9,,,,,,,,,,,,,,,,12,,63,0
27239,note_on,,14,0,8,,,,,,,,,,,,,,,,11,,67,0
27239,note_on,,14,0,11,,,,,,,,,,,,,,,,15,,44,0
27239,note_on,,14,0,10,,,,,,,,,,,,,,,,13,,44,0
27239,note_on,,119,0,6,,,,,,,,,,,,,,,,6,,60,0
27239,note_on,,14,0,7,,,,,,,,,,,,,,,,10,,72,0
27240,note_on,,1,0,8,,,,,,,,,,,,,,,,11,,67,56
27240,note_on,,1,0,10,,,,,,,,,,,,,,,,13,,44,56
27240,note_on,,1,0,9,,,,,,,,,,,,,,,,12,,60,56
27240,note_on,,1,0,11,,,,,,,,,,,,,,,,15,,44,56
27240,note_on,,1,0,7,,,,,,,,,,,,,,,,10,,72,56
27284,note_on,,44,0,11,,,,,,,,,,,,,,,,15,,44,0
27284,note_on,,44,0,10,,,,,,,,,,,,,,,,13,,44,0
27284,note_on,,44,0,7,,,,,,,,,,,,,,,,10,,72,0
27284,note_on,,44,0,9,,,,,,,,,,,,,,,,12,,60,0
27284,note_on,,44,0,8,,,,,,,,,,,,,,,,11,,67,0
27285,note_on,,1,0,10,,,,,,,,,,,,,,,,13,,44,56
27285,note_on,,1,0,7,,,,,,,,,,,,,,,,10,,72,56
27285,note_on,,1,0,9,,,,,,,,,,,,,,,,12,,60,56
27285,note_on,,1,0,11,,,,,,,,,,,,,,,,15,,44,56
27285,note_on,,1,0,8,,,,,,,,,,,,,,,,11,,67,56
27299,note_on,,14,0,9,,,,,,,,,,,,,,,,12,,60,0
27299,note_on,,14,0,11,,,,,,,,,,,,,,,,15,,44,0
27299,note_on,,14,0,10,,,,,,,,,,,,,,,,13,,44,0
27299,note_on,,14,0,8,,,,,,,,,,,,,,,,11,,67,0
27299,note_on,,14,0,7,,,,,,,,,,,,,,,,10,,72,0
27300,note_on,,1,0,10,,,,,,,,,,,,,,,,13,,44,56
27300,note_on,,61,0,6,,,,,,,,,,,,,,,,6,,63,66
27300,note_on,,1,0,7,,,,,,,,,,,,,,,,10,,72,56
27300,note_on,,1,0,11,,,,,,,,,,,,,,,,15,,44,56
27300,note_on,,1,0,9,,,,,,,,,,,,,,,,12,,60,56
27300,note_on,,1,0,8,,,,,,,,,,,,,,,,11,,67,56
27344,note_on,,44,0,8,,,,,,,,,,,,,,,,11,,67,0
27344,note_on,,44,0,11,,,,,,,,,,,,,,,,15,,44,0
27344,note_on,,44,0,9,,,,,,,,,,,,,,,,12,,60,0
27344,note_on,,44,0,7,,,,,,,,,,,,,,,,10,,72,0
27344,note_on,,44,0,10,,,,,,,,,,,,,,,,13,,44,0
27345,note_on,,1,0,10,,,,,,,,,,,,,,,,13,,44,56
27345,note_on,,1,0,11,,,,,,,,,,,,,,,,15,,44,56
27345,note_on,,1,0,9,,,,,,,,,,,,,,,,12,,60,56
27345,note_on,,1,0,7,,,,,,,,,,,,,,,,10,,72,56
27345,note_on,,1,0,8,,,,,,,,,,,,,,,,11,,67,56
27359,note_on,,59,0,6,,,,,,,,,,,,,,,,6,,63,0
27359,note_on,,0,0,11,,,,,,,,,,,,,,,,15,,44,0
27359,note_on,,0,0,11,,,,,,,,,,,,,,,,15,,67,0
27359,note_on,,0,0,11,,,,,,,,,,,,,,,,15,,51,0
27359,note_on,,0,0,11,,,,,,,,,,,,,,,,15,,63,0
27359,note_on,,14,0,11,,,,,,,,,,,,,,,,15,,60,0
27359,note_on,,14,0,10,,,,,,,,,,,,,,,,13,,44,0
27359,note_on,,14,0,9,,,,,,,,,,,,,,,,12,,60,0
27359,note_on,,14,0,8,,,,,,,,,,,,,,,,11,,67,0
27359,note_on,,14,0,7,,,,,,,,,,,,,,,,10,,72,0
27360,note_on,,1,0,6,,,,,,,,,,,,,,,,6,,65,66
27360,note_on,,1,0,7,,,,,,,,,,,,,,,,10,,72,56
27360,note_on,,1,0,8,,,,,,,,,,,,,,,,11,,65,56
27360,note_on,,1,0,11,,,,,,,,,,,,,,,,15,,60,56
27360,note_on,,1,0,9,,,,,,,,,,,,,,,,12,,62,56
27360,note_on,,1,0,10,,,,,,,,,,,,,,,,13,,38,56
27360,note_on,,0,0,11,,,,,,,,,,,,,,,,15,,65,56
27360,note_on,,0,0,11,,,,,,,,,,,,,,,,15,,38,56
27360,note_on,,0,0,11,,,,,,,,,,,,,,,,15,,56,56
27360,note_on,,0,0,11,,,,,,,,,,,,,,,,15,,46,56
27404,note_on,,44,0,8,,,,,,,,,,,,,,,,11,,65,0
27404,note_on,,44,0,7,,,,,,,,,,,,,,,,10,,72,0
27404,note_on,,44,0,11,,,,,,,,,,,,,,,,15,,38,0
27404,note_on,,44,0,10,,,,,,,,,,,,,,,,13,,38,0
27404,note_on,,44,0,9,,,,,,,,,,,,,,,,12,,62,0
27405,note_on,,1,0,8,,,,,,,,,,,,,,,,11,,65,56
27405,note_on,,1,0,11,,,,,,,,,,,,,,,,15,,38,56
27405,note_on,,1,0,9,,,,,,,,,,,,,,,,12,,62,56
27405,note_on,,1,0,7,,,,,,,,,,,,,,,,10,,72,56
27405,note_on,,1,0,10,,,,,,,,,,,,,,,,13,,38,56
27419,note_on,,14,0,11,,,,,,,,,,,,,,,,15,,38,0
27419,note_on,,14,0,8,,,,,,,,,,,,,,,,11,,65,0
27419,note_on,,14,0,7,,,,,,,,,,,,,,,,10,,72,0
27419,note_on,,14,0,9,,,,,,,,,,,,,,,,12,,62,0
27419,note_on,,14,0,10,,,,,,,,,,,,,,,,13,,38,0
27420,note_on,,1,0,9,,,,,,,,,,,,,,,,12,,62,56
27420,note_on,,1,0,11,,,,,,,,,,,,,,,,15,,38,56
27420,note_on,,1,0,8,,,,,,,,,,,,,,,,11,,65,56
27420,note_on,,1,0,7,,,,,,,,,,,,,,,,10,,72,56
27420,note_on,,1,0,10,,,,,,,,,,,,,,,,13,,38,56
27464,note_on,,44,0,11,,,,,,,,,,,,,,,,15,,38,0
27464,note_on,,44,0,10,,,,,,,,,,,,,,,,13,,38,0
27464,note_on,,44,0,7,,,,,,,,,,,,,,,,10,,72,0
27464,note_on,,44,0,8,,,,,,,,,,,,,,,,11,,65,0
27464,note_on,,44,0,9,,,,,,,,,,,,,,,,12,,62,0
27465,note_on,,1,0,10,,,,,,,,,,,,,,,,13,,38,56
27465,note_on,,1,0,7,,,,,,,,,,,,,,,,10,,72,56
27465,note_on,,1,0,11,,,,,,,,,,,,,,,,15,,38,56
27465,note_on,,1,0,8,,,,,,,,,,,,,,,,11,,65,56
27465,note_on,,1,0,9,,,,,,,,,,,,,,,,12,,62,56
27479,note_on,,119,0,6,,,,,,,,,,,,,,,,6,,65,0
27479,note_on,,14,0,9,,,,,,,,,,,,,,,,12,,62,0
27479,note_on,,14,0,7,,,,,,,,,,,,,,,,10,,72,0
27479,note_on,,0,0,11,,,,,,,,,,,,,,,,15,,38,0
27479,note_on,,0,0,11,,,,,,,,,,,,,,,,15,,56,0
27479,note_on,,0,0,11,,,,,,,,,,,,,,,,15,,65,0
27479,note_on,,14,0,11,,,,,,,,,,,,,,,,15,,60,0
27479,note_on,,14,0,8,,,,,,,,,,,,,,,,11,,65,0
27479,note_on,,14,0,10,,,,,,,,,,,,,,,,13,,38,0
27480,note_on,,1,0,8,,,,,,,,,,,,,,,,11,,65,56
27480,note_on,,1,0,9,,,,,,,,,,,,,,,,12,,62,56
27480,note_on,,1,0,7,,,,,,,,,,,,,,,,10,,71,56
27480,note_on,,1,0,10,,,,,,,,,,,,,,,,13,,38,56
27480,note_on,,1,0,11,,,,,,,,,,,,,,,,15,,53,56
27480,note_on,,0,0,11,,,,,,,,,,,,,,,,15,,38,56
27495,note_on,,15,0,11,,,,,,,,,,,,,,,,15,,62,56
27510,note_on,,15,0,11,,,,,,,,,,,,,,,,15,,68,56
27524,note_on,,44,0,7,,,,,,,,,,,,,,,,10,,71,0
27524,note_on,,44,0,9,,,,,,,,,,,,,,,,12,,62,0
27524,note_on,,44,0,8,,,,,,,,,,,,,,,,11,,65,0
27524,note_on,,14,0,11,,,,,,,,,,,,,,,,15,,38,0
27524,note_on,,44,0,10,,,,,,,,,,,,,,,,13,,38,0
27525,note_on,,1,0,10,,,,,,,,,,,,,,,,13,,38,56
27525,note_on,,1,0,9,,,,,,,,,,,,,,,,12,,62,56
27525,note_on,,1,0,8,,,,,,,,,,,,,,,,11,,65,56
27525,note_on,,1,0,7,,,,,,,,,,,,,,,,10,,71,56
27525,note_on,,1,0,11,,,,,,,,,,,,,,,,15,,38,56
27539,note_on,,14,0,7,,,,,,,,,,,,,,,,10,,71,0
27539,note_on,,14,0,9,,,,,,,,,,,,,,,,12,,62,0
27539,note_on,,14,0,10,,,,,,,,,,,,,,,,13,,38,0
27539,note_on,,14,0,8,,,,,,,,,,,,,,,,11,,65,0
27539,note_on,,14,0,11,,,,,,,,,,,,,,,,15,,38,0
27540,note_on,,1,0,8,,,,,,,,,,,,,,,,11,,65,56
27540,note_on,,1,0,7,,,,,,,,,,,,,,,,10,,71,56
27540,note_on,,1,0,10,,,,,,,,,,,,,,,,13,,38,56
27540,note_on,,61,0,6,,,,,,,,,,,,,,,,6,,62,65
27540,note_on,,1,0,9,,,,,,,,,,,,,,,,12,,62,56
27540,note_on,,1,0,11,,,,,,,,,,,,,,,,15,,38,56
27584,note_on,,44,0,8,,,,,,,,,,,,,,,,11,,65,0
27584,note_on,,44,0,6,,,,,,,,,,,,,,,,6,,62,0
27584,note_on,,44,0,11,,,,,,,,,,,,,,,,15,,38,0
27584,note_on,,44,0,10,,,,,,,,,,,,,,,,13,,38,0
27584,note_on,,44,0,9,,,,,,,,,,,,,,,,12,,62,0
27584,note_on,,44,0,7,,,,,,,,,,,,,,,,10,,71,0
27585,note_on,,1,0,7,,,,,,,,,,,,,,,,10,,71,56
27585,note_on,,1,0,10,,,,,,,,,,,,,,,,13,,38,56
27585,note_on,,1,0,9,,,,,,,,,,,,,,,,12,,62,56
27585,note_on,,1,0,11,,,,,,,,,,,,,,,,15,,38,56
27585,note_on,,1,0,6,,,,,,,,,,,,,,,,6,,60,61
27585,note_on,,1,0,8,,,,,,,,,,,,,,,,11,,65,56
27599,note_on,,0,0,11,,,,,,,,,,,,,,,,15,,68,0
27599,note_on,,14,0,7,,,,,,,,,,,,,,,,10,,71,0
27599,note_on,,14,0,8,,,,,,,,,,,,,,,,11,,65,0
27599,note_on,,14,0,11,,,,,,,,,,,,,,,,15,,46,0
27599,note_on,,14,0,6,,,,,,,,,,,,,,,,6,,60,0
27599,note_on,,0,0,11,,,,,,,,,,,,,,,,15,,62,0
27599,note_on,,0,0,11,,,,,,,,,,,,,,,,15,,53,0
27599,note_on,,14,0,10,,,,,,,,,,,,,,,,13,,38,0
27599,note_on,,14,0,9,,,,,,,,,,,,,,,,12,,62,0
27599,note_on,,0,0,11,,,,,,,,,,,,,,,,15,,38,0
27600,note_on,,1,0,11,,,,,,,,,,,,,,,,15,,43,56
27600,note_on,,1,0,9,,,,,,,,,,,,,,,,12,,62,56
27600,note_on,,0,0,11,,,,,,,,,,,,,,,,15,,67,56
27600,note_on,,0,0,11,,,,,,,,,,,,,,,,15,,59,56
27600,note_on,,1,0,8,,,,,,,,,,,,,,,,11,,65,56
27600,note_on,,1,0,7,,,,,,,,,,,,,,,,10,,71,56
27600,note_on,,1,0,10,,,,,,,,,,,,,,,,13,,43,56
27600,note_on,,0,0,11,,,,,,,,,,,,,,,,15,,46,56
27600,note_on,,1,0,6,,,,,,,,,,,,,,,,6,,59,62
27644,note_on,,44,0,10,,,,,,,,,,,,,,,,13,,43,0
27644,note_on,,44,0,8,,,,,,,,,,,,,,,,11,,65,0
27644,note_on,,44,0,7,,,,,,,,,,,,,,,,10,,71,0
27644,note_on,,44,0,9,,,,,,,,,,,,,,,,12,,62,0
27644,note_on,,44,0,11,,,,,,,,,,,,,,,,15,,43,0
27645,note_on,,1,0,7,,,,,,,,,,,,,,,,10,,71,56
27645,note_on,,1,0,9,,,,,,,,,,,,,,,,12,,62,56
27645,note_on,,1,0,11,,,,,,,,,,,,,,,,15,,43,56
27645,note_on,,1,0,10,,,,,,,,,,,,,,,,13,,43,56
27645,note_on,,1,0,8,,,,,,,,,,,,,,,,11,,65,56
27659,note_on,,14,0,10,,,,,,,,,,,,,,,,13,,43,0
27659,note_on,,14,0,7,,,,,,,,,,,,,,,,10,,71,0
27659,note_on,,14,0,11,,,,,,,,,,,,,,,,15,,43,0
27659,note_on,,14,0,9,,,,,,,,,,,,,,,,12,,62,0
27659,note_on,,14,0,8,,,,,,,,,,,,,,,,11,,65,0
27659,note_on,,59,0,6,,,,,,,,,,,,,,,,6,,59,0
27660,note_on,,1,0,7,,,,,,,,,,,,,,,,10,,71,56
27660,note_on,,1,0,10,,,,,,,,,,,,,,,,13,,43,56
27660,note_on,,1,0,9,,,,,,,,,,,,,,,,12,,62,56
27660,note_on,,1,0,8,,,,,,,,,,,,,,,,11,,65,56
27660,note_on,,1,0,6,,,,,,,,,,,,,,,,6,,59,60
27660,note_on,,1,0,11,,,,,,,,,,,,,,,,15,,43,56
27704,note_on,,44,0,10,,,,,,,,,,,,,,,,13,,43,0
27704,note_on,,44,0,8,,,,,,,,,,,,,,,,11,,65,0
27704,note_on,,44,0,11,,,,,,,,,,,,,,,,15,,43,0
27704,note_on,,44,0,9,,,,,,,,,,,,,,,,12,,62,0
27704,note_on,,44,0,7,,,,,,,,,,,,,,,,10,,71,0
27705,note_on,,1,0,8,,,,,,,,,,,,,,,,11,,65,56
27705,note_on,,1,0,10,,,,,,,,,,,,,,,,13,,43,56
27705,note_on,,1,0,11,,,,,,,,,,,,,,,,15,,43,56
27705,note_on,,1,0,9,,,,,,,,,,,,,,,,12,,62,56
27705,note_on,,1,0,7,,,,,,,,,,,,,,,,10,,71,56
27719,note_on,,59,0,6,,,,,,,,,,,,,,,,6,,59,0
27719,note_on,,14,0,11,,,,,,,,,,,,,,,,15,,46,0
27719,note_on,,14,0,9,,,,,,,,,,,,,,,,12,,62,0
27719,note_on,,14,0,8,,,,,,,,,,,,,,,,11,,65,0
27719,note_on,,0,0,11,,,,,,,,,,,,,,,,15,,43,0
27719,note_on,,14,0,7,,,,,,,,,,,,,,,,10,,71,0
27719,note_on,,14,0,10,,,,,,,,,,,,,,,,13,,43,0
27720,note_on,,1,0,11,,,,,,,,,,,,,,,,15,,43,56
27720,note_on,,1,0,9,,,,,,,,,,,,,,,,12,,55,56
27720,note_on,,1,0,7,,,,,,,,,,,,,,,,10,,71,56
27720,note_on,,1,0,6,,,,,,,,,,,,,,,,6,,60,60
27720,note_on,,0,0,11,,,,,,,,,,,,,,,,15,,48,56
27720,note_on,,1,0,8,,,,,,,,,,,,,,,,11,,65,56
27720,note_on,,1,0,10,,,,,,,,,,,,,,,,13,,43,56
27764,note_on,,44,0,10,,,,,,,,,,,,,,,,13,,43,0
27764,note_on,,44,0,9,,,,,,,,,,,,,,,,12,,55,0
27764,note_on,,44,0,7,,,,,,,,,,,,,,,,10,,71,0
27764,note_on,,44,0,8,,,,,,,,,,,,,,,,11,,65,0
27764,note_on,,44,0,11,,,,,,,,,,,,,,,,15,,43,0
27765,note_on,,1,0,11,,,,,,,,,,,,,,,,15,,43,56
27765,note_on,,1,0,7,,,,,,,,,,,,,,,,10,,71,56
27765,note_on,,1,0,10,,,,,,,,,,,,,,,,13,,43,56
27765,note_on,,1,0,8,,,,,,,,,,,,,,,,11,,65,56
27765,note_on,,1,0,9,,,,,,,,,,,,,,,,12,,55,56
27779,note_on,,14,0,7,,,,,,,,,,,,,,,,10,,71,0
27779,note_on,,14,0,9,,,,,,,,,,,,,,,,12,,55,0
27779,note_on,,14,0,8,,,,,,,,,,,,,,,,11,,65,0
27779,note_on,,14,0,11,,,,,,,,,,,,,,,,15,,43,0
27779,note_on,,14,0,10,,,,,,,,,,,,,,,,13,,43,0
27779,note_on,,59,0,6,,,,,,,,,,,,,,,,6,,60,0
27780,note_on,,1,0,10,,,,,,,,,,,,,,,,13,,43,56
27780,note_on,,1,0,11,,,,,,,,,,,,,,,,15,,43,56
27780,note_on,,1,0,7,,,,,,,,,,,,,,,,10,,71,56
27780,note_on,,1,0,6,,,,,,,,,,,,,,,,6,,62,65
27780,note_on,,1,0,8,,,,,,,,,,,,,,,,11,,65,56
27780,note_on,,1,0,9,,,,,,,,,,,,,,,,12,,55,56
27824,note_on,,44,0,11,,,,,,,,,,,,,,,,15,,43,0
27824,note_on,,44,0,9,,,,,,,,,,,,,,,,12,,55,0
27824,note_on,,44,0,7,,,,,,,,,,,,,,,,10,,71,0
27824,note_on,,44,0,8,,,,,,,,,,,,,,,,11,,65,0
27824,note_on,,44,0,10,,,,,,,,,,,,,,,,13,,43,0
27825,note_on,,1,0,10,,,,,,,,,,,,,,,,13,,43,56
27825,note_on,,1,0,7,,,,,,,,,,,,,,,,10,,71,56
27825,note_on,,1,0,8,,,,,,,,,,,,,,,,11,,65,56
27825,note_on,,1,0,9,,,,,,,,,,,,,,,,12,,55,56
27825,note_on,,1,0,11,,,,,,,,,,,,,,,,15,,43,56
27839,note_on,,0,0,11,,,,,,,,,,,,,,,,15,,48,0
27839,note_on,,59,0,6,,,,,,,,,,,,,,,,6,,62,0
27839,note_on,,14,0,7,,,,,,,,,,,,,,,,10,,71,0
27839,note_on,,14,0,10,,,,,,,,,,,,,,,,13,,43,0
27839,note_on,,14,0,11,,,,,,,,,,,,,,,,15,,67,0
27839,note_on,,14,0,9,,,,,,,,,,,,,,,,12,,55,0
27839,note_on,,0,0,11,,,,,,,,,,,,,,,,15,,43,0
27839,note_on,,0,0,11,,,,,,,,,,,,,,,,15,,59,0
27839,note_on,,14,0,8,,,,,,,,,,,,,,,,11,,65,0
27840,note_on,,0,0,11,,,,,,,,,,,,,,,,15,,67,56
27840,note_on,,0,0,11,,,,,,,,,,,,,,,,15,,48,56
27840,note_on,,0,0,11,,,,,,,,,,,,,,,,15,,55,56
27840,note_on,,0,0,11,,,,,,,,,,,,,,,,15,,60,56
27840,note_on,,1,0,6,,,,,,,,,,,,,,,,6,,63,66
27840,note_on,,1,0,9,,,,,,,,,,,,,,,,12,,55,56
27840,note_on,,1,0,7,,,,,,,,,,,,,,,,10,,72,56
27840,note_on,,1,0,11,,,,,,,,,,,,,,,,15,,63,56
27840,note_on,,1,0,8,,,,,,,,,,,,,,,,11,,63,56
27840,note_on,,1,0,10,,,,,,,,,,,,,,,,13,,48,56
27884,note_on,,44,0,9,,,,,,,,,,,,,,,,12,,55,0
27884,note_on,,44,0,10,,,,,,,,,,,,,,,,13,,48,0
27884,note_on,,44,0,11,,,,,,,,,,,,,,,,15,,48,0
27884,note_on,,44,0,7,,,,,,,,,,,,,,,,10,,72,0
27884,note_on,,44,0,8,,,,,,,,,,,,,,,,11,,63,0
27885,note_on,,1,0,8,,,,,,,,,,,,,,,,11,,63,56
27885,note_on,,1,0,9,,,,,,,,,,,,,,,,12,,55,56
27885,note_on,,1,0,11,,,,,,,,,,,,,,,,15,,48,56
27885,note_on,,1,0,7,,,,,,,,,,,,,,,,10,,72,56
27885,note_on,,1,0,10,,,,,,,,,,,,,,,,13,,48,56
27899,note_on,,14,0,10,,,,,,,,,,,,,,,,13,,48,0
27899,note_on,,14,0,9,,,,,,,,,,,,,,,,12,,55,0
27899,note_on,,14,0,7,,,,,,,,,,,,,,,,10,,72,0
27899,note_on,,14,0,11,,,,,,,,,,,,,,,,15,,48,0
27899,note_on,,14,0,8,,,,,,,,,,,,,,,,11,,63,0
27900,note_on,,1,0,10,,,,,,,,,,,,,,,,13,,48,56
27900,note_on,,1,0,11,,,,,,,,,,,,,,,,15,,48,56
27900,note_on,,1,0,7,,,,,,,,,,,,,,,,10,,72,56
27900,note_on,,1,0,9,,,,,,,,,,,,,,,,12,,55,56
27900,note_on,,1,0,8,,,,,,,,,,,,,,,,11,,63,56
27944,note_on,,44,0,8,,,,,,,,,,,,,,,,11,,63,0
27944,note_on,,44,0,9,,,,,,,,,,,,,,,,12,,55,0
27944,note_on,,44,0,10,,,,,,,,,,,,,,,,13,,48,0
27944,note_on,,44,0,11,,,,,,,,,,,,,,,,15,,48,0
27944,note_on,,44,0,7,,,,,,,,,,,,,,,,10,,72,0
27945,note_on,,1,0,7,,,,,,,,,,,,,,,,10,,72,56
27945,note_on,,1,0,8,,,,,,,,,,,,,,,,11,,63,56
27945,note_on,,1,0,10,,,,,,,,,,,,,,,,13,,48,56
27945,note_on,,1,0,9,,,,,,,,,,,,,,,,12,,55,56
27945,note_on,,1,0,11,,,,,,,,,,,,,,,,15,,48,56
27959,note_on,,14,0,7,,,,,,,,,,,,,,,,10,,72,0
27959,note_on,,14,0,11,,,,,,,,,,,,,,,,15,,48,0
27959,note_on,,119,0,6,,,,,,,,,,,,,,,,6,,63,0
27959,note_on,,14,0,9,,,,,,,,,,,,,,,,12,,55,0
27959,note_on,,14,0,8,,,,,,,,,,,,,,,,11,,63,0
27959,note_on,,14,0,10,,,,,,,,,,,,,,,,13,,48,0
27960,note_on,,1,0,9,,,,,,,,,,,,,,,,12,,55,56
27960,note_on,,1,0,8,,,,,,,,,,,,,,,,11,,63,56
27960,note_on,,1,0,10,,,,,,,,,,,,,,,,13,,48,56
27960,note_on,,1,0,7,,,,,,,,,,,,,,,,10,,72,56
27960,note_on,,1,0,11,,,,,,,,,,,,,,,,15,,48,56
28004,note_on,,44,0,9,,,,,,,,,,,,,,,,12,,55,0
28004,note_on,,44,0,8,,,,,,,,,,,,,,,,11,,63,0
28004,note_on,,44,0,10,,,,,,,,,,,,,,,,13,,48,0
28004,note_on,,44,0,7,,,,,,,,,,,,,,,,10,,72,0
28004,note_on,,44,0,11,,,,,,,,,,,,,,,,15,,48,0
28005,note_on,,1,0,9,,,,,,,,,,,,,,,,12,,55,56
28005,note_on,,1,0,8,,,,,,,,,,,,,,,,11,,63,56
28005,note_on,,1,0,7,,,,,,,,,,,,,,,,10,,72,56
28005,note_on,,1,0,10,,,,,,,,,,,,,,,,13,,48,56
28005,note_on,,1,0,11,,,,,,,,,,,,,,,,15,,48,56
28019,note_on,,14,0,10,,,,,,,,,,,,,,,,13,,48,0
28019,note_on,,14,0,8,,,,,,,,,,,,,,,,11,,63,0
28019,note_on,,14,0,7,,,,,,,,,,,,,,,,10,,72,0
28019,note_on,,14,0,11,,,,,,,,,,,,,,,,15,,48,0
28019,note_on,,14,0,9,,,,,,,,,,,,,,,,12,,55,0
28020,note_on,,1,0,9,,,,,,,,,,,,,,,,12,,55,56
28020,note_on,,1,0,7,,,,,,,,,,,,,,,,10,,72,56
28020,note_on,,61,0,6,,,,,,,,,,,,,,,,6,,67,64
28020,note_on,,1,0,10,,,,,,,,,,,,,,,,13,,48,56
28020,note_on,,1,0,8,,,,,,,,,,,,,,,,11,,63,56
28020,note_on,,1,0,11,,,,,,,,,,,,,,,,15,,48,56
28064,note_on,,44,0,10,,,,,,,,,,,,,,,,13,,48,0
28064,note_on,,44,0,8,,,,,,,,,,,,,,,,11,,63,0
28064,note_on,,44,0,9,,,,,,,,,,,,,,,,12,,55,0
28064,note_on,,44,0,7,,,,,,,,,,,,,,,,10,,72,0
28064,note_on,,44,0,11,,,,,,,,,,,,,,,,15,,48,0
28064,note_on,,44,0,6,,,,,,,,,,,,,,,,6,,67,0
28065,note_on,,1,0,9,,,,,,,,,,,,,,,,12,,55,56
28065,note_on,,1,0,8,,,,,,,,,,,,,,,,11,,63,56
28065,note_on,,1,0,11,,,,,,,,,,,,,,,,15,,48,56
28065,note_on,,1,0,10,,,,,,,,,,,,,,,,13,,48,56
28065,note_on,,1,0,6,,,,,,,,,,,,,,,,6,,65,63
28065,note_on,,1,0,7,,,,,,,,,,,,,,,,10,,72,56
28079,note_on,,0,0,11,,,,,,,,,,,,,,,,15,,48,0
28079,note_on,,14,0,10,,,,,,,,,,,,,,,,13,,48,0
28079,note_on,,0,0,11,,,,,,,,,,,,,,,,15,,67,0
28079,note_on,,0,0,11,,,,,,,,,,,,,,,,15,,55,0
28079,note_on,,0,0,11,,,,,,,,,,,,,,,,15,,60,0
28079,note_on,,14,0,6,,,,,,,,,,,,,,,,6,,65,0
28079,note_on,,14,0,7,,,,,,,,,,,,,,,,10,,72,0
28079,note_on,,14,0,11,,,,,,,,,,,,,,,,15,,63,0
28079,note_on,,14,0,9,,,,,,,,,,,,,,,,12,,55,0
28079,note_on,,14,0,8,,,,,,,,,,,,,,,,11,,63,0
28080,note_on,,1,0,7,,,,,,,,,,,,,,,,10,,67,56
28080,note_on,,1,0,6,,,,,,,,,,,,,,,,6,,64,63
28080,note_on,,1,0,11,,,,,,,,,,,,,,,,15,,64,56
28080,note_on,,0,0,11,,,,,,,,,,,,,,,,15,,72,56
28080,note_on,,0,0,11,,,,,,,,,,,,,,,,15,,46,56
28080,note_on,,0,0,11,,,,,,,,,,,,,,,,15,,67,56
28080,note_on,,0,0,11,,,,,,,,,,,,,,,,15,,55,56
28080,note_on,,1,0,10,,,,,,,,,,,,,,,,13,,46,56
28080,note_on,,1,0,8,,,,,,,,,,,,,,,,11,,64,56
28080,note_on,,1,0,9,,,,,,,,,,,,,,,,12,,60,56
28080,note_on,,0,0,11,,,,,,,,,,,,,,,,15,,60,56
28124,note_on,,44,0,11,,,,,,,,,,,,,,,,15,,46,0
28124,note_on,,44,0,8,,,,,,,,,,,,,,,,11,,64,0
28124,note_on,,44,0,9,,,,,,,,,,,,,,,,12,,60,0
28124,note_on,,44,0,10,,,,,,,,,,,,,,,,13,,46,0
28124,note_on,,44,0,7,,,,,,,,,,,,,,,,10,,67,0
28125,note_on,,1,0,9,,,,,,,,,,,,,,,,12,,60,56
28125,note_on,,1,0,8,,,,,,,,,,,,,,,,11,,64,56
28125,note_on,,1,0,7,,,,,,,,,,,,,,,,10,,67,56
28125,note_on,,1,0,11,,,,,,,,,,,,,,,,15,,46,56
28125,note_on,,1,0,10,,,,,,,,,,,,,,,,13,,46,56
28139,note_on,,14,0,9,,,,,,,,,,,,,,,,12,,60,0
28139,note_on,,14,0,11,,,,,,,,,,,,,,,,15,,46,0
28139,note_on,,14,0,10,,,,,,,,,,,,,,,,13,,46,0
28139,note_on,,14,0,8,,,,,,,,,,,,,,,,11,,64,0
28139,note_on,,14,0,7,,,,,,,,,,,,,,,,10,,67,0
28140,note_on,,1,0,7,,,,,,,,,,,,,,,,10,,67,56
28140,note_on,,1,0,11,,,,,,,,,,,,,,,,15,,46,56
28140,note_on,,1,0,9,,,,,,,,,,,,,,,,12,,60,56
28140,note_on,,1,0,8,,,,,,,,,,,,,,,,11,,64,56
28140,note_on,,1,0,10,,,,,,,,,,,,,,,,13,,46,56
28184,note_on,,44,0,7,,,,,,,,,,,,,,,,10,,67,0
28184,note_on,,44,0,10,,,,,,,,,,,,,,,,13,,46,0
28184,note_on,,44,0,11,,,,,,,,,,,,,,,,15,,46,0
28184,note_on,,44,0,9,,,,,,,,,,,,,,,,12,,60,0
28184,note_on,,44,0,8,,,,,,,,,,,,,,,,11,,64,0
28185,note_on,,1,0,11,,,,,,,,,,,,,,,,15,,46,56
28185,note_on,,1,0,7,,,,,,,,,,,,,,,,10,,67,56
28185,note_on,,1,0,10,,,,,,,,,,,,,,,,13,,46,56
28185,note_on,,1,0,9,,,,,,,,,,,,,,,,12,,60,56
28185,note_on,,1,0,8,,,,,,,,,,,,,,,,11,,64,56
28199,note_on,,14,0,11,,,,,,,,,,,,,,,,15,,46,0
28199,note_on,,119,0,6,,,,,,,,,,,,,,,,6,,64,0
28199,note_on,,14,0,7,,,,,,,,,,,,,,,,10,,67,0
28199,note_on,,14,0,10,,,,,,,,,,,,,,,,13,,46,0
28199,note_on,,14,0,8,,,,,,,,,,,,,,,,11,,64,0
28199,note_on,,14,0,9,,,,,,,,,,,,,,,,12,,60,0
28200,note_on,,1,0,8,,,,,,,,,,,,,,,,11,,64,56
28200,note_on,,1,0,11,,,,,,,,,,,,,,,,15,,46,56
28200,note_on,,1,0,7,,,,,,,,,,,,,,,,10,,67,56
28200,note_on,,1,0,9,,,,,,,,,,,,,,,,12,,60,56
28200,note_on,,1,0,10,,,,,,,,,,,,,,,,13,,46,56
28200,note_on,,1,0,6,,,,,,,,,,,,,,,,6,,64,62
28244,note_on,,44,0,7,,,,,,,,,,,,,,,,10,,67,0
28244,note_on,,44,0,10,,,,,,,,,,,,,,,,13,,46,0
28244,note_on,,44,0,8,,,,,,,,,,,,,,,,11,,64,0
28244,note_on,,44,0,9,,,,,,,,,,,,,,,,12,,60,0
28244,note_on,,44,0,11,,,,,,,,,,,,,,,,15,,46,0
28245,note_on,,1,0,10,,,,,,,,,,,,,,,,13,,46,56
28245,note_on,,1,0,11,,,,,,,,,,,,,,,,15,,46,56
28245,note_on,,1,0,9,,,,,,,,,,,,,,,,12,,60,56
28245,note_on,,1,0,7,,,,,,,,,,,,,,,,10,,67,56
28245,note_on,,1,0,8,,,,,,,,,,,,,,,,11,,64,56
28259,note_on,,59,0,6,,,,,,,,,,,,,,,,6,,64,0
28259,note_on,,14,0,10,,,,,,,,,,,,,,,,13,,46,0
28259,note_on,,14,0,11,,,,,,,,,,,,,,,,15,,46,0
28259,note_on,,14,0,8,,,,,,,,,,,,,,,,11,,64,0
28259,note_on,,14,0,9,,,,,,,,,,,,,,,,12,,60,0
28259,note_on,,14,0,7,,,,,,,,,,,,,,,,10,,67,0
28260,note_on,,1,0,9,,,,,,,,,,,,,,,,12,,60,56
28260,note_on,,1,0,11,,,,,,,,,,,,,,,,15,,46,56
28260,note_on,,1,0,7,,,,,,,,,,,,,,,,10,,67,56
28260,note_on,,1,0,10,,,,,,,,,,,,,,,,13,,46,56
28260,note_on,,1,0,8,,,,,,,,,,,,,,,,11,,64,56
28260,note_on,,1,0,6,,,,,,,,,,,,,,,,6,,64,63
28304,note_on,,44,0,11,,,,,,,,,,,,,,,,15,,46,0
28304,note_on,,44,0,7,,,,,,,,,,,,,,,,10,,67,0
28304,note_on,,44,0,8,,,,,,,,,,,,,,,,11,,64,0
28304,note_on,,44,0,9,,,,,,,,,,,,,,,,12,,60,0
28304,note_on,,44,0,10,,,,,,,,,,,,,,,,13,,46,0
28305,note_on,,1,0,7,,,,,,,,,,,,,,,,10,,67,56
28305,note_on,,1,0,10,,,,,,,,,,,,,,,,13,,46,56
28305,note_on,,1,0,8,,,,,,,,,,,,,,,,11,,64,56
28305,note_on,,1,0,9,,,,,,,,,,,,,,,,12,,60,56
28305,note_on,,1,0,11,,,,,,,,,,,,,,,,15,,46,56
28319,note_on,,14,0,7,,,,,,,,,,,,,,,,10,,67,0
28319,note_on,,0,0,11,,,,,,,,,,,,,,,,15,,72,0
28319,note_on,,14,0,9,,,,,,,,,,,,,,,,12,,60,0
28319,note_on,,14,0,8,,,,,,,,,,,,,,,,11,,64,0
28319,note_on,,14,0,11,,,,,,,,,,,,,,,,15,,64,0
28319,note_on,,0,0,11,,,,,,,,,,,,,,,,15,,46,0
28319,note_on,,14,0,10,,,,,,,,,,,,,,,,13,,46,0
28319,note_on,,0,0,11,,,,,,,,,,,,,,,,15,,55,0
28319,note_on,,59,0,6,,,,,,,,,,,,,,,,6,,64,0
28319,note_on,,0,0,11,,,,,,,,,,,,,,,,15,,67,0
28319,note_on,,0,0,11,,,,,,,,,,,,,,,,15,,60,0
28320,note_on,,1,0,11,,,,,,,,,,,,,,,,15,,68,56
28320,note_on,,0,0,11,,,,,,,,,,,,,,,,15,,72,56
28320,note_on,,0,0,11,,,,,,,,,,,,,,,,15,,65,56
28320,note_on,,0,0,11,,,,,,,,,,,,,,,,15,,60,56
28320,note_on,,0,0,11,,,,,,,,,,,,,,,,15,,44,56
28320,note_on,,1,0,8,,,,,,,,,,,,,,,,11,,65,56
28320,note_on,,0,0,11,,,,,,,,,,,,,,,,15,,53,56
28320,note_on,,1,0,9,,,,,,,,,,,,,,,,12,,60,56
28320,note_on,,1,0,6,,,,,,,,,,,,,,,,6,,65,64
28320,note_on,,1,0,10,,,,,,,,,,,,,,,,13,,44,56
28320,note_on,,1,0,7,,,,,,,,,,,,,,,,10,,68,56
28364,note_on,,44,0,10,,,,,,,,,,,,,,,,13,,44,0
28364,note_on,,44,0,9,,,,,,,,,,,,,,,,12,,60,0
28364,note_on,,44,0,11,,,,,,,,,,,,,,,,15,,44,0
28364,note_on,,44,0,8,,,,,,,,,,,,,,,,11,,65,0
28364,note_on,,44,0,7,,,,,,,,,,,,,,,,10,,68,0
28365,note_on,,1,0,9,,,,,,,,,,,,,,,,12,,60,56
28365,note_on,,1,0,8,,,,,,,,,,,,,,,,11,,65,56
28365,note_on,,1,0,10,,,,,,,,,,,,,,,,13,,44,56
28365,note_on,,1,0,7,,,,,,,,,,,,,,,,10,,68,56
28365,note_on,,1,0,11,,,,,,,,,,,,,,,,15,,44,56
28379,note_on,,14,0,8,,,,,,,,,,,,,,,,11,,65,0
28379,note_on,,14,0,11,,,,,,,,,,,,,,,,15,,44,0
28379,note_on,,14,0,10,,,,,,,,,,,,,,,,13,,44,0
28379,note_on,,14,0,9,,,,,,,,,,,,,,,,12,,60,0
28379,note_on,,14,0,7,,,,,,,,,,,,,,,,10,,68,0
28380,note_on,,1,0,11,,,,,,,,,,,,,,,,15,,44,56
28380,note_on,,1,0,8,,,,,,,,,,,,,,,,11,,65,56
28380,note_on,,1,0,9,,,,,,,,,,,,,,,,12,,60,56
28380,note_on,,1,0,10,,,,,,,,,,,,,,,,13,,44,56
28380,note_on,,1,0,7,,,,,,,,,,,,,,,,10,,68,56
28424,note_on,,44,0,11,,,,,,,,,,,,,,,,15,,44,0
28424,note_on,,44,0,9,,,,,,,,,,,,,,,,12,,60,0
28424,note_on,,44,0,7,,,,,,,,,,,,,,,,10,,68,0
28424,note_on,,44,0,10,,,,,,,,,,,,,,,,13,,44,0
28424,note_on,,44,0,8,,,,,,,,,,,,,,,,11,,65,0
28425,note_on,,1,0,7,,,,,,,,,,,,,,,,10,,68,56
28425,note_on,,1,0,9,,,,,,,,,,,,,,,,12,,60,56
28425,note_on,,1,0,8,,,,,,,,,,,,,,,,11,,65,56
28425,note_on,,1,0,10,,,,,,,,,,,,,,,,13,,44,56
28425,note_on,,1,0,11,,,,,,,,,,,,,,,,15,,44,56
28439,note_on,,14,0,7,,,,,,,,,,,,,,,,10,,68,0
28439,note_on,,14,0,8,,,,,,,,,,,,,,,,11,,65,0
28439,note_on,,119,0,6,,,,,,,,,,,,,,,,6,,65,0
28439,note_on,,14,0,9,,,,,,,,,,,,,,,,12,,60,0
28439,note_on,,14,0,11,,,,,,,,,,,,,,,,15,,44,0
28439,note_on,,14,0,10,,,,,,,,,,,,,,,,13,,44,0
28440,note_on,,1,0,9,,,,,,,,,,,,,,,,12,,60,56
28440,note_on,,1,0,10,,,,,,,,,,,,,,,,13,,44,56
28440,note_on,,1,0,8,,,,,,,,,,,,,,,,11,,65,56
28440,note_on,,1,0,11,,,,,,,,,,,,,,,,15,,44,56
28440,note_on,,1,0,7,,,,,,,,,,,,,,,,10,,68,56
28484,note_on,,44,0,11,,,,,,,,,,,,,,,,15,,44,0
28484,note_on,,44,0,8,,,,,,,,,,,,,,,,11,,65,0
28484,note_on,,44,0,9,,,,,,,,,,,,,,,,12,,60,0
28484,note_on,,44,0,7,,,,,,,,,,,,,,,,10,,68,0
28484,note_on,,44,0,10,,,,,,,,,,,,,,,,13,,44,0
28485,note_on,,1,0,10,,,,,,,,,,,,,,,,13,,44,56
28485,note_on,,1,0,9,,,,,,,,,,,,,,,,12,,60,56
28485,note_on,,1,0,8,,,,,,,,,,,,,,,,11,,65,56
28485,note_on,,1,0,11,,,,,,,,,,,,,,,,15,,44,56
28485,note_on,,1,0,7,,,,,,,,,,,,,,,,10,,68,56
28499,note_on,,14,0,8,,,,,,,,,,,,,,,,11,,65,0
28499,note_on,,14,0,9,,,,,,,,,,,,,,,,12,,60,0
28499,note_on,,14,0,10,,,,,,,,,,,,,,,,13,,44,0
28499,note_on,,14,0,7,,,,,,,,,,,,,,,,10,,68,0
28499,note_on,,14,0,11,,,,,,,,,,,,,,,,15,,44,0
28500,note_on,,1,0,10,,,,,,,,,,,,,,,,13,,44,56
28500,note_on,,1,0,11,,,,,,,,,,,,,,,,15,,44,56
28500,note_on,,1,0,7,,,,,,,,,,,,,,,,10,,68,56
28500,note_on,,1,0,8,,,,,,,,,,,,,,,,11,,65,56
28500,note_on,,1,0,9,,,,,,,,,,,,,,,,12,,60,56
28500,note_on,,61,0,6,,,,,,,,,,,,,,,,6,,65,61
28544,note_on,,44,0,10,,,,,,,,,,,,,,,,13,,44,0
28544,note_on,,44,0,8,,,,,,,,,,,,,,,,11,,65,0
28544,note_on,,44,0,7,,,,,,,,,,,,,,,,10,,68,0
28544,note_on,,44,0,11,,,,,,,,,,,,,,,,15,,44,0
28544,note_on,,44,0,9,,,,,,,,,,,,,,,,12,,60,0
28545,note_on,,1,0,8,,,,,,,,,,,,,,,,11,,65,56
28545,note_on,,1,0,7,,,,,,,,,,,,,,,,10,,68,56
28545,note_on,,1,0,9,,,,,,,,,,,,,,,,12,,60,56
28545,note_on,,1,0,10,,,,,,,,,,,,,,,,13,,44,56
28545,note_on,,1,0,11,,,,,,,,,,,,,,,,15,,44,56
28559,note_on,,14,0,11,,,,,,,,,,,,,,,,15,,68,0
28559,note_on,,14,0,8,,,,,,,,,,,,,,,,11,,65,0
28559,note_on,,14,0,7,,,,,,,,,,,,,,,,10,,68,0
28559,note_on,,59,0,6,,,,,,,,,,,,,,,,6,,65,0
28559,note_on,,0,0,11,,,,,,,,,,,,,,,,15,,72,0
28559,note_on,,0,0,11,,,,,,,,,,,,,,,,15,,53,0
28559,note_on,,0,0,11,,,,,,,,,,,,,,,,15,,65,0
28559,note_on,,0,0,11,,,,,,,,,,,,,,,,15,,44,0
28559,note_on,,0,0,11,,,,,,,,,,,,,,,,15,,60,0
28559,note_on,,14,0,9,,,,,,,,,,,,,,,,12,,60,0
28559,note_on,,14,0,10,,,,,,,,,,,,,,,,13,,44,0
28560,note_on,,0,0,11,,,,,,,,,,,,,,,,15,,55,56
28560,note_on,,1,0,8,,,,,,,,,,,,,,,,11,,65,56
28560,note_on,,1,0,7,,,,,,,,,,,,,,,,10,,67,56
28560,note_on,,1,0,9,,,,,,,,,,,,,,,,12,,61,56
28560,note_on,,1,0,10,,,,,,,,,,,,,,,,13,,46,56
28560,note_on,,1,0,6,,,,,,,,,,,,,,,,6,,67,62
28560,note_on,,0,0,11,,,,,,,,,,,,,,,,15,,65,56
28560,note_on,,1,0,11,,,,,,,,,,,,,,,,15,,61,56
28560,note_on,,0,0,11,,,,,,,,,,,,,,,,15,,70,56
28560,note_on,,0,0,11,,,,,,,,,,,,,,,,15,,46,56
28560,note_on,,0,0,11,,,,,,,,,,,,,,,,15,,67,56
28604,note_on,,44,0,11,,,,,,,,,,,,,,,,15,,46,0
28604,note_on,,44,0,7,,,,,,,,,,,,,,,,10,,67,0
28604,note_on,,44,0,10,,,,,,,,,,,,,,,,13,,46,0
28604,note_on,,44,0,8,,,,,,,,,,,,,,,,11,,65,0
28604,note_on,,44,0,9,,,,,,,,,,,,,,,,12,,61,0
28605,note_on,,1,0,9,,,,,,,,,,,,,,,,12,,61,56
28605,note_on,,1,0,8,,,,,,,,,,,,,,,,11,,65,56
28605,note_on,,1,0,11,,,,,,,,,,,,,,,,15,,46,56
28605,note_on,,1,0,10,,,,,,,,,,,,,,,,13,,46,56
28605,note_on,,1,0,7,,,,,,,,,,,,,,,,10,,67,56
28619,note_on,,14,0,7,,,,,,,,,,,,,,,,10,,67,0
28619,note_on,,14,0,11,,,,,,,,,,,,,,,,15,,46,0
28619,note_on,,14,0,9,,,,,,,,,,,,,,,,12,,61,0
28619,note_on,,14,0,8,,,,,,,,,,,,,,,,11,,65,0
28619,note_on,,14,0,10,,,,,,,,,,,,,,,,13,,46,0
28620,note_on,,1,0,9,,,,,,,,,,,,,,,,12,,61,56
28620,note_on,,1,0,8,,,,,,,,,,,,,,,,11,,65,56
28620,note_on,,1,0,7,,,,,,,,,,,,,,,,10,,67,56
28620,note_on,,1,0,11,,,,,,,,,,,,,,,,15,,46,56
28620,note_on,,1,0,10,,,,,,,,,,,,,,,,13,,46,56
28664,note_on,,44,0,7,,,,,,,,,,,,,,,,10,,67,0
28664,note_on,,44,0,11,,,,,,,,,,,,,,,,15,,46,0
28664,note_on,,44,0,8,,,,,,,,,,,,,,,,11,,65,0
28664,note_on,,44,0,9,,,,,,,,,,,,,,,,12,,61,0
28664,note_on,,44,0,10,,,,,,,,,,,,,,,,13,,46,0
28665,note_on,,1,0,7,,,,,,,,,,,,,,,,10,,67,56
28665,note_on,,1,0,8,,,,,,,,,,,,,,,,11,,65,56
28665,note_on,,1,0,10,,,,,,,,,,,,,,,,13,,46,56
28665,note_on,,1,0,9,,,,,,,,,,,,,,,,12,,61,56
28665,note_on,,1,0,11,,,,,,,,,,,,,,,,15,,46,56
28679,note_on,,14,0,7,,,,,,,,,,,,,,,,10,,67,0
28679,note_on,,0,0,11,,,,,,,,,,,,,,,,15,,46,0
28679,note_on,,0,0,11,,,,,,,,,,,,,,,,15,,65,0
28679,note_on,,14,0,10,,,,,,,,,,,,,,,,13,,46,0
28679,note_on,,14,0,9,,,,,,,,,,,,,,,,12,,61,0
28679,note_on,,14,0,8,,,,,,,,,,,,,,,,11,,65,0
28679,note_on,,14,0,11,,,,,,,,,,,,,,,,15,,61,0
28679,note_on,,119,0,6,,,,,,,,,,,,,,,,6,,67,0
28680,note_on,,0,0,11,,,,,,,,,,,,,,,,15,,48,56
28680,note_on,,0,0,11,,,,,,,,,,,,,,,,15,,60,56
28680,note_on,,1,0,11,,,,,,,,,,,,,,,,15,,64,56
28680,note_on,,1,0,8,,,,,,,,,,,,,,,,11,,64,56
28680,note_on,,1,0,9,,,,,,,,,,,,,,,,12,,60,56
28680,note_on,,1,0,10,,,,,,,,,,,,,,,,13,,48,56
28680,note_on,,1,0,7,,,,,,,,,,,,,,,,10,,67,56
28724,note_on,,44,0,7,,,,,,,,,,,,,,,,10,,67,0
28724,note_on,,44,0,9,,,,,,,,,,,,,,,,12,,60,0
28724,note_on,,44,0,11,,,,,,,,,,,,,,,,15,,48,0
28724,note_on,,44,0,8,,,,,,,,,,,,,,,,11,,64,0
28724,note_on,,44,0,10,,,,,,,,,,,,,,,,13,,48,0
28725,note_on,,1,0,7,,,,,,,,,,,,,,,,10,,67,56
28725,note_on,,1,0,8,,,,,,,,,,,,,,,,11,,64,56
28725,note_on,,1,0,11,,,,,,,,,,,,,,,,15,,48,56
28725,note_on,,1,0,9,,,,,,,,,,,,,,,,12,,60,56
28725,note_on,,1,0,10,,,,,,,,,,,,,,,,13,,48,56
28739,note_on,,14,0,7,,,,,,,,,,,,,,,,10,,67,0
28739,note_on,,14,0,11,,,,,,,,,,,,,,,,15,,48,0
28739,note_on,,14,0,9,,,,,,,,,,,,,,,,12,,60,0
28739,note_on,,14,0,8,,,,,,,,,,,,,,,,11,,64,0
28739,note_on,,14,0,10,,,,,,,,,,,,,,,,13,,48,0
28740,note_on,,1,0,8,,,,,,,,,,,,,,,,11,,64,56
28740,note_on,,1,0,7,,,,,,,,,,,,,,,,10,,67,56
28740,note_on,,61,0,6,,,,,,,,,,,,,,,,6,,60,65
28740,note_on,,1,0,11,,,,,,,,,,,,,,,,15,,48,56
28740,note_on,,1,0,10,,,,,,,,,,,,,,,,13,,48,56
28740,note_on,,1,0,9,,,,,,,,,,,,,,,,12,,60,56
28784,note_on,,44,0,9,,,,,,,,,,,,,,,,12,,60,0
28784,note_on,,44,0,8,,,,,,,,,,,,,,,,11,,64,0
28784,note_on,,44,0,6,,,,,,,,,,,,,,,,6,,60,0
28784,note_on,,44,0,10,,,,,,,,,,,,,,,,13,,48,0
28784,note_on,,44,0,7,,,,,,,,,,,,,,,,10,,67,0
28784,note_on,,44,0,11,,,,,,,,,,,,,,,,15,,48,0
28785,note_on,,1,0,9,,,,,,,,,,,,,,,,12,,60,56
28785,note_on,,1,0,6,,,,,,,,,,,,,,,,6,,70,62
28785,note_on,,1,0,10,,,,,,,,,,,,,,,,13,,48,56
28785,note_on,,1,0,7,,,,,,,,,,,,,,,,10,,67,56
28785,note_on,,1,0,8,,,,,,,,,,,,,,,,11,,64,56
28785,note_on,,1,0,11,,,,,,,,,,,,,,,,15,,48,56
28799,note_on,,0,0,11,,,,,,,,,,,,,,,,15,,60,0
28799,note_on,,0,0,11,,,,,,,,,,,,,,,,15,,64,0
28799,note_on,,14,0,7,,,,,,,,,,,,,,,,10,,67,0
28799,note_on,,0,0,11,,,,,,,,,,,,,,,,15,,67,0
28799,note_on,,14,0,11,,,,,,,,,,,,,,,,15,,70,0
28799,note_on,,14,0,10,,,,,,,,,,,,,,,,13,,48,0
28799,note_on,,14,0,6,,,,,,,,,,,,,,,,6,,70,0
28799,note_on,,0,0,11,,,,,,,,,,,,,,,,15,,55,0
28799,note_on,,14,0,8,,,,,,,,,,,,,,,,11,,64,0
28799,note_on,,0,0,11,,,,,,,,,,,,,,,,15,,48,0
28799,note_on,,14,0,9,,,,,,,,,,,,,,,,12,,60,0
28800,note_on,,0,0,11,,,,,,,,,,,,,,,,15,,60,56
28800,note_on,,1,0,6,,,,,,,,,,,,,,,,6,,68,66
28800,note_on,,1,0,10,,,,,,,,,,,,,,,,13,,53,56
28800,note_on,,1,0,9,,,,,,,,,,,,,,,,12,,60,56
28800,note_on,,1,0,8,,,,,,,,,,,,,,,,11,,65,56
28800,note_on,,1,0,7,,,,,,,,,,,,,,,,10,,68,56
28800,note_on,,0,0,11,,,,,,,,,,,,,,,,15,,68,56
28800,note_on,,0,0,11,,,,,,,,,,,,,,,,15,,65,56
28800,note_on,,1,0,11,,,,,,,,,,,,,,,,15,,53,56
28829,note_on,,29,0,6,,,,,,,,,,,,,,,,6,,68,0
28830,note_on,,1,0,6,,,,,,,,,,,,,,,,6,,67,67
28844,note_on,,44,0,8,,,,,,,,,,,,,,,,11,,65,0
28844,note_on,,44,0,11,,,,,,,,,,,,,,,,15,,53,0
28844,note_on,,44,0,9,,,,,,,,,,,,,,,,12,,60,0
28844,note_on,,44,0,7,,,,,,,,,,,,,,,,10,,68,0
28844,note_on,,44,0,10,,,,,,,,,,,,,,,,13,,53,0
28845,note_on,,1,0,9,,,,,,,,,,,,,,,,12,,60,56
28845,note_on,,1,0,7,,,,,,,,,,,,,,,,10,,68,56
28845,note_on,,1,0,11,,,,,,,,,,,,,,,,15,,53,56
28845,note_on,,1,0,10,,,,,,,,,,,,,,,,13,,53,56
28845,note_on,,1,0,8,,,,,,,,,,,,,,,,11,,65,56
28859,note_on,,14,0,9,,,,,,,,,,,,,,,,12,,60,0
28859,note_on,,14,0,7,,,,,,,,,,,,,,,,10,,68,0
28859,note_on,,14,0,11,,,,,,,,,,,,,,,,15,,53,0
28859,note_on,,29,0,6,,,,,,,,,,,,,,,,6,,67,0
28859,note_on,,14,0,10,,,,,,,,,,,,,,,,13,,53,0
28859,note_on,,14,0,8,,,,,,,,,,,,,,,,11,,65,0
28860,note_on,,1,0,6,,,,,,,,,,,,,,,,6,,65,66
28860,note_on,,1,0,11,,,,,,,,,,,,,,,,15,,53,56
28860,note_on,,1,0,7,,,,,,,,,,,,,,,,10,,68,56
28860,note_on,,1,0,10,,,,,,,,,,,,,,,,13,,53,56
28860,note_on,,1,0,8,,,,,,,,,,,,,,,,11,,65,56
28860,note_on,,1,0,9,,,,,,,,,,,,,,,,12,,60,56
28904,note_on,,44,0,9,,,,,,,,,,,,,,,,12,,60,0
28904,note_on,,44,0,10,,,,,,,,,,,,,,,,13,,53,0
28904,note_on,,44,0,8,,,,,,,,,,,,,,,,11,,65,0
28904,note_on,,44,0,11,,,,,,,,,,,,,,,,15,,53,0
28904,note_on,,44,0,7,,,,,,,,,,,,,,,,10,,68,0
28905,note_on,,1,0,11,,,,,,,,,,,,,,,,15,,53,56
28905,note_on,,1,0,10,,,,,,,,,,,,,,,,13,,53,56
28905,note_on,,1,0,9,,,,,,,,,,,,,,,,12,,60,56
28905,note_on,,1,0,8,,,,,,,,,,,,,,,,11,,65,56
28905,note_on,,1,0,7,,,,,,,,,,,,,,,,10,,68,56
28919,note_on,,0,0,11,,,,,,,,,,,,,,,,15,,65,0
28919,note_on,,0,0,11,,,,,,,,,,,,,,,,15,,68,0
28919,note_on,,0,0,11,,,,,,,,,,,,,,,,15,,53,0
28919,note_on,,14,0,11,,,,,,,,,,,,,,,,15,,60,0
28919,note_on,,59,0,6,,,,,,,,,,,,,,,,6,,65,0
28919,note_on,,14,0,8,,,,,,,,,,,,,,,,11,,65,0
28919,note_on,,14,0,9,,,,,,,,,,,,,,,,12,,60,0
28919,note_on,,14,0,10,,,,,,,,,,,,,,,,13,,53,0
28919,note_on,,14,0,7,,,,,,,,,,,,,,,,10,,68,0
28920,note_on,,1,0,9,,,,,,,,,,,,,,,,12,,60,56
28920,note_on,,0,0,11,,,,,,,,,,,,,,,,15,,68,56
28920,note_on,,1,0,8,,,,,,,,,,,,,,,,11,,63,56
28920,note_on,,0,0,11,,,,,,,,,,,,,,,,15,,75,56
28920,note_on,,1,0,7,,,,,,,,,,,,,,,,10,,68,56
28920,note_on,,0,0,11,,,,,,,,,,,,,,,,15,,48,56
28920,note_on,,0,0,11,,,,,,,,,,,,,,,,15,,56,56
28920,note_on,,1,0,10,,,,,,,,,,,,,,,,13,,48,56
28920,note_on,,1,0,11,,,,,,,,,,,,,,,,15,,63,56
28964,note_on,,44,0,9,,,,,,,,,,,,,,,,12,,60,0
28964,note_on,,44,0,8,,,,,,,,,,,,,,,,11,,63,0
28964,note_on,,44,0,11,,,,,,,,,,,,,,,,15,,48,0
28964,note_on,,44,0,7,,,,,,,,,,,,,,,,10,,68,0
28964,note_on,,44,0,10,,,,,,,,,,,,,,,,13,,48,0
28965,note_on,,1,0,9,,,,,,,,,,,,,,,,12,,60,56
28965,note_on,,1,0,8,,,,,,,,,,,,,,,,11,,63,56
28965,note_on,,1,0,11,,,,,,,,,,,,,,,,15,,48,56
28965,note_on,,1,0,10,,,,,,,,,,,,,,,,13,,48,56
28965,note_on,,1,0,7,,,,,,,,,,,,,,,,10,,68,56
28979,note_on,,14,0,9,,,,,,,,,,,,,,,,12,,60,0
28979,note_on,,14,0,11,,,,,,,,,,,,,,,,15,,48,0
28979,note_on,,14,0,7,,,,,,,,,,,,,,,,10,,68,0
28979,note_on,,14,0,10,,,,,,,,,,,,,,,,13,,48,0
28979,note_on,,14,0,8,,,,,,,,,,,,,,,,11,,63,0
28980,note_on,,61,0,6,,,,,,,,,,,,,,,,6,,68,65
28980,note_on,,1,0,11,,,,,,,,,,,,,,,,15,,48,56
28980,note_on,,1,0,7,,,,,,,,,,,,,,,,10,,68,56
28980,note_on,,1,0,10,,,,,,,,,,,,,,,,13,,48,56
28980,note_on,,1,0,8,,,,,,,,,,,,,,,,11,,63,56
28980,note_on,,1,0,9,,,,,,,,,,,,,,,,12,,60,56
29009,note_on,,29,0,6,,,,,,,,,,,,,,,,6,,68,0
29010,note_on,,1,0,6,,,,,,,,,,,,,,,,6,,68,62
29024,note_on,,44,0,8,,,,,,,,,,,,,,,,11,,63,0
29024,note_on,,44,0,9,,,,,,,,,,,,,,,,12,,60,0
29024,note_on,,44,0,11,,,,,,,,,,,,,,,,15,,48,0
29024,note_on,,44,0,10,,,,,,,,,,,,,,,,13,,48,0
29024,note_on,,44,0,7,,,,,,,,,,,,,,,,10,,68,0
29025,note_on,,1,0,11,,,,,,,,,,,,,,,,15,,48,56
29025,note_on,,1,0,7,,,,,,,,,,,,,,,,10,,68,56
29025,note_on,,1,0,9,,,,,,,,,,,,,,,,12,,60,56
29025,note_on,,1,0,8,,,,,,,,,,,,,,,,11,,63,56
29025,note_on,,1,0,10,,,,,,,,,,,,,,,,13,,48,56
29039,note_on,,0,0,11,,,,,,,,,,,,,,,,15,,48,0
29039,note_on,,0,0,11,,,,,,,,,,,,,,,,15,,56,0
29039,note_on,,0,0,11,,,,,,,,,,,,,,,,15,,68,0
29039,note_on,,0,0,11,,,,,,,,,,,,,,,,15,,75,0
29039,note_on,,14,0,11,,,,,,,,,,,,,,,,15,,63,0
29039,note_on,,14,0,8,,,,,,,,,,,,,,,,11,,63,0
29039,note_on,,14,0,9,,,,,,,,,,,,,,,,12,,60,0
29039,note_on,,29,0,6,,,,,,,,,,,,,,,,6,,68,0
29039,note_on,,14,0,7,,,,,,,,,,,,,,,,10,,68,0
29039,note_on,,14,0,10,,,,,,,,,,,,,,,,13,,48,0
29040,note_on,,1,0,10,,,,,,,,,,,,,,,,13,,49,56
29040,note_on,,1,0,7,,,,,,,,,,,,,,,,10,,68,56
29040,note_on,,0,0,11,,,,,,,,,,,,,,,,15,,70,56
29040,note_on,,1,0,11,,,,,,,,,,,,,,,,15,,49,56
29040,note_on,,0,0,11,,,,,,,,,,,,,,,,15,,53,56
29040,note_on,,1,0,6,,,,,,,,,,,,,,,,6,,70,67
29040,note_on,,1,0,8,,,,,,,,,,,,,,,,11,,70,56
29040,note_on,,1,0,9,,,,,,,,,,,,,,,,12,,65,56
29040,note_on,,0,0,11,,,,,,,,,,,,,,,,15,,65,56
29040,note_on,,0,0,11,,,,,,,,,,,,,,,,15,,68,56
29084,note_on,,44,0,8,,,,,,,,,,,,,,,,11,,70,0
29084,note_on,,44,0,7,,,,,,,,,,,,,,,,10,,68,0
29084,note_on,,44,0,11,,,,,,,,,,,,,,,,15,,49,0
29084,note_on,,44,0,10,,,,,,,,,,,,,,,,13,,49,0
29084,note_on,,44,0,9,,,,,,,,,,,,,,,,12,,65,0
29085,note_on,,1,0,11,,,,,,,,,,,,,,,,15,,49,56
29085,note_on,,1,0,7,,,,,,,,,,,,,,,,10,,68,56
29085,note_on,,1,0,9,,,,,,,,,,,,,,,,12,,65,56
29085,note_on,,1,0,10,,,,,,,,,,,,,,,,13,,49,56
29085,note_on,,1,0,8,,,,,,,,,,,,,,,,11,,70,56
29099,note_on,,14,0,10,,,,,,,,,,,,,,,,13,,49,0
29099,note_on,,14,0,11,,,,,,,,,,,,,,,,15,,49,0
29099,note_on,,14,0,7,,,,,,,,,,,,,,,,10,,68,0
29099,note_on,,14,0,9,,,,,,,,,,,,,,,,12,,65,0
29099,note_on,,14,0,8,,,,,,,,,,,,,,,,11,,70,0
29100,note_on,,1,0,11,,,,,,,,,,,,,,,,15,,49,56
29100,note_on,,1,0,7,,,,,,,,,,,,,,,,10,,68,56
29100,note_on,,1,0,9,,,,,,,,,,,,,,,,12,,65,56
29100,note_on,,1,0,8,,,,,,,,,,,,,,,,11,,70,56
29100,note_on,,1,0,10,,,,,,,,,,,,,,,,13,,49,56
29144,note_on,,44,0,7,,,,,,,,,,,,,,,,10,,68,0
29144,note_on,,44,0,9,,,,,,,,,,,,,,,,12,,65,0
29144,note_on,,44,0,8,,,,,,,,,,,,,,,,11,,70,0
29144,note_on,,44,0,11,,,,,,,,,,,,,,,,15,,49,0
29144,note_on,,44,0,10,,,,,,,,,,,,,,,,13,,49,0
29145,note_on,,1,0,7,,,,,,,,,,,,,,,,10,,68,56
29145,note_on,,1,0,10,,,,,,,,,,,,,,,,13,,49,56
29145,note_on,,1,0,11,,,,,,,,,,,,,,,,15,,49,56
29145,note_on,,1,0,9,,,,,,,,,,,,,,,,12,,65,56
29145,note_on,,1,0,8,,,,,,,,,,,,,,,,11,,70,56
29159,note_on,,14,0,9,,,,,,,,,,,,,,,,12,,65,0
29159,note_on,,119,0,6,,,,,,,,,,,,,,,,6,,70,0
29159,note_on,,14,0,7,,,,,,,,,,,,,,,,10,,68,0
29159,note_on,,14,0,11,,,,,,,,,,,,,,,,15,,53,0
29159,note_on,,0,0,11,,,,,,,,,,,,,,,,15,,68,0
29159,note_on,,14,0,10,,,,,,,,,,,,,,,,13,,49,0
29159,note_on,,0,0,11,,,,,,,,,,,,,,,,15,,65,0
29159,note_on,,0,0,11,,,,,,,,,,,,,,,,15,,49,0
29159,note_on,,14,0,8,,,,,,,,,,,,,,,,11,,70,0
29160,note_on,,1,0,10,,,,,,,,,,,,,,,,13,,51,56
29160,note_on,,1,0,9,,,,,,,,,,,,,,,,12,,63,56
29160,note_on,,1,0,11,,,,,,,,,,,,,,,,15,,58,56
29160,note_on,,0,0,11,,,,,,,,,,,,,,,,15,,67,56
29160,note_on,,0,0,11,,,,,,,,,,,,,,,,15,,63,56
29160,note_on,,1,0,7,,,,,,,,,,,,,,,,10,,67,56
29160,note_on,,0,0,11,,,,,,,,,,,,,,,,15,,51,56
29160,note_on,,1,0,8,,,,,,,,,,,,,,,,11,,70,56
29204,note_on,,44,0,9,,,,,,,,,,,,,,,,12,,63,0
29204,note_on,,44,0,10,,,,,,,,,,,,,,,,13,,51,0
29204,note_on,,44,0,11,,,,,,,,,,,,,,,,15,,51,0
29204,note_on,,44,0,7,,,,,,,,,,,,,,,,10,,67,0
29204,note_on,,44,0,8,,,,,,,,,,,,,,,,11,,70,0
29205,note_on,,1,0,8,,,,,,,,,,,,,,,,11,,70,56
29205,note_on,,1,0,11,,,,,,,,,,,,,,,,15,,51,56
29205,note_on,,1,0,7,,,,,,,,,,,,,,,,10,,67,56
29205,note_on,,1,0,9,,,,,,,,,,,,,,,,12,,63,56
29205,note_on,,1,0,10,,,,,,,,,,,,,,,,13,,51,56
29219,note_on,,14,0,9,,,,,,,,,,,,,,,,12,,63,0
29219,note_on,,14,0,10,,,,,,,,,,,,,,,,13,,51,0
29219,note_on,,14,0,7,,,,,,,,,,,,,,,,10,,67,0
29219,note_on,,14,0,8,,,,,,,,,,,,,,,,11,,70,0
29219,note_on,,14,0,11,,,,,,,,,,,,,,,,15,,51,0
29220,note_on,,1,0,11,,,,,,,,,,,,,,,,15,,51,56
29220,note_on,,1,0,8,,,,,,,,,,,,,,,,11,,70,56
29220,note_on,,61,0,6,,,,,,,,,,,,,,,,6,,63,61
29220,note_on,,1,0,10,,,,,,,,,,,,,,,,13,,51,56
29220,note_on,,1,0,7,,,,,,,,,,,,,,,,10,,67,56
29220,note_on,,1,0,9,,,,,,,,,,,,,,,,12,,63,56
29264,note_on,,44,0,8,,,,,,,,,,,,,,,,11,,70,0
29264,note_on,,44,0,10,,,,,,,,,,,,,,,,13,,51,0
29264,note_on,,44,0,11,,,,,,,,,,,,,,,,15,,51,0
29264,note_on,,44,0,7,,,,,,,,,,,,,,,,10,,67,0
29264,note_on,,44,0,9,,,,,,,,,,,,,,,,12,,63,0
29265,note_on,,1,0,11,,,,,,,,,,,,,,,,15,,51,56
29265,note_on,,1,0,9,,,,,,,,,,,,,,,,12,,63,56
29265,note_on,,1,0,8,,,,,,,,,,,,,,,,11,,70,56
29265,note_on,,1,0,7,,,,,,,,,,,,,,,,10,,67,56
29265,note_on,,1,0,10,,,,,,,,,,,,,,,,13,,51,56
29279,note_on,,14,0,9,,,,,,,,,,,,,,,,12,,63,0
29279,note_on,,14,0,7,,,,,,,,,,,,,,,,10,,67,0
29279,note_on,,14,0,10,,,,,,,,,,,,,,,,13,,51,0
29279,note_on,,14,0,11,,,,,,,,,,,,,,,,15,,70,0
29279,note_on,,0,0,11,,,,,,,,,,,,,,,,15,,58,0
29279,note_on,,0,0,11,,,,,,,,,,,,,,,,15,,67,0
29279,note_on,,0,0,11,,,,,,,,,,,,,,,,15,,63,0
29279,note_on,,0,0,11,,,,,,,,,,,,,,,,15,,51,0
29279,note_on,,14,0,8,,,,,,,,,,,,,,,,11,,70,0
29279,note_on,,59,0,6,,,,,,,,,,,,,,,,6,,63,0
29280,note_on,,1,0,10,,,,,,,,,,,,,,,,13,,56,56
29280,note_on,,1,0,11,,,,,,,,,,,,,,,,15,,72,56
29280,note_on,,1,0,6,,,,,,,,,,,,,,,,6,,60,60
29280,note_on,,1,0,8,,,,,,,,,,,,,,,,11,,68,56
29280,note_on,,0,0,11,,,,,,,,,,,,,,,,15,,63,56
29280,note_on,,1,0,9,,,,,,,,,,,,,,,,12,,63,56
29280,note_on,,1,0,7,,,,,,,,,,,,,,,,10,,72,56
29280,note_on,,0,0,11,,,,,,,,,,,,,,,,15,,56,56
29280,note_on,,0,0,11,,,,,,,,,,,,,,,,15,,68,56
29324,note_on,,44,0,10,,,,,,,,,,,,,,,,13,,56,0
29324,note_on,,44,0,8,,,,,,,,,,,,,,,,11,,68,0
29324,note_on,,44,0,9,,,,,,,,,,,,,,,,12,,63,0
29324,note_on,,44,0,7,,,,,,,,,,,,,,,,10,,72,0
29324,note_on,,44,0,11,,,,,,,,,,,,,,,,15,,56,0
29325,note_on,,1,0,10,,,,,,,,,,,,,,,,13,,56,56
29325,note_on,,1,0,8,,,,,,,,,,,,,,,,11,,68,56
29325,note_on,,1,0,11,,,,,,,,,,,,,,,,15,,56,56
29325,note_on,,1,0,9,,,,,,,,,,,,,,,,12,,63,56
29325,note_on,,1,0,7,,,,,,,,,,,,,,,,10,,72,56
29339,note_on,,14,0,10,,,,,,,,,,,,,,,,13,,56,0
29339,note_on,,14,0,8,,,,,,,,,,,,,,,,11,,68,0
29339,note_on,,14,0,9,,,,,,,,,,,,,,,,12,,63,0
29339,note_on,,14,0,11,,,,,,,,,,,,,,,,15,,56,0
29339,note_on,,14,0,7,,,,,,,,,,,,,,,,10,,72,0
29340,note_on,,1,0,9,,,,,,,,,,,,,,,,12,,63,56
29340,note_on,,1,0,10,,,,,,,,,,,,,,,,13,,56,56
29340,note_on,,1,0,8,,,,,,,,,,,,,,,,11,,68,56
29340,note_on,,1,0,11,,,,,,,,,,,,,,,,15,,56,56
29340,note_on,,1,0,7,,,,,,,,,,,,,,,,10,,72,56
29384,note_on,,44,0,11,,,,,,,,,,,,,,,,15,,56,0
29384,note_on,,44,0,7,,,,,,,,,,,,,,,,10,,72,0
29384,note_on,,44,0,9,,,,,,,,,,,,,,,,12,,63,0
29384,note_on,,44,0,8,,,,,,,,,,,,,,,,11,,68,0
29384,note_on,,44,0,10,,,,,,,,,,,,,,,,13,,56,0
29385,note_on,,1,0,7,,,,,,,,,,,,,,,,10,,72,56
29385,note_on,,1,0,11,,,,,,,,,,,,,,,,15,,56,56
29385,note_on,,1,0,10,,,,,,,,,,,,,,,,13,,56,56
29385,note_on,,1,0,8,,,,,,,,,,,,,,,,11,,68,56
29385,note_on,,1,0,9,,,,,,,,,,,,,,,,12,,63,56
29399,note_on,,14,0,7,,,,,,,,,,,,,,,,10,,72,0
29399,note_on,,119,0,6,,,,,,,,,,,,,,,,6,,60,0
29399,note_on,,14,0,10,,,,,,,,,,,,,,,,13,,56,0
29399,note_on,,14,0,11,,,,,,,,,,,,,,,,15,,56,0
29399,note_on,,14,0,9,,,,,,,,,,,,,,,,12,,63,0
29399,note_on,,14,0,8,,,,,,,,,,,,,,,,11,,68,0
29400,note_on,,1,0,7,,,,,,,,,,,,,,,,10,,72,56
29400,note_on,,1,0,10,,,,,,,,,,,,,,,,13,,56,56
29400,note_on,,1,0,8,,,,,,,,,,,,,,,,11,,68,56
29400,note_on,,1,0,9,,,,,,,,,,,,,,,,12,,63,56
29400,note_on,,1,0,11,,,,,,,,,,,,,,,,15,,56,56
29444,note_on,,44,0,7,,,,,,,,,,,,,,,,10,,72,0
29444,note_on,,44,0,8,,,,,,,,,,,,,,,,11,,68,0
29444,note_on,,44,0,9,,,,,,,,,,,,,,,,12,,63,0
29444,note_on,,44,0,11,,,,,,,,,,,,,,,,15,,56,0
29444,note_on,,44,0,10,,,,,,,,,,,,,,,,13,,56,0
29445,note_on,,1,0,8,,,,,,,,,,,,,,,,11,,68,56
29445,note_on,,1,0,7,,,,,,,,,,,,,,,,10,,72,56
29445,note_on,,1,0,10,,,,,,,,,,,,,,,,13,,56,56
29445,note_on,,1,0,9,,,,,,,,,,,,,,,,12,,63,56
29445,note_on,,1,0,11,,,,,,,,,,,,,,,,15,,56,56
29459,note_on,,14,0,7,,,,,,,,,,,,,,,,10,,72,0
29459,note_on,,14,0,11,,,,,,,,,,,,,,,,15,,56,0
29459,note_on,,14,0,9,,,,,,,,,,,,,,,,12,,63,0
29459,note_on,,14,0,10,,,,,,,,,,,,,,,,13,,56,0
29459,note_on,,14,0,8,,,,,,,,,,,,,,,,11,,68,0
29460,note_on,,61,0,6,,,,,,,,,,,,,,,,6,,68,66
29460,note_on,,1,0,11,,,,,,,,,,,,,,,,15,,56,56
29460,note_on,,1,0,9,,,,,,,,,,,,,,,,12,,63,56
29460,note_on,,1,0,10,,,,,,,,,,,,,,,,13,,56,56
29460,note_on,,1,0,7,,,,,,,,,,,,,,,,10,,72,56
29460,note_on,,1,0,8,,,,,,,,,,,,,,,,11,,68,56
29504,note_on,,44,0,7,,,,,,,,,,,,,,,,10,,72,0
29504,note_on,,44,0,10,,,,,,,,,,,,,,,,13,,56,0
29504,note_on,,44,0,6,,,,,,,,,,,,,,,,6,,68,0
29504,note_on,,44,0,11,,,,,,,,,,,,,,,,15,,56,0
29504,note_on,,44,0,8,,,,,,,,,,,,,,,,11,,68,0
29504,note_on,,44,0,9,,,,,,,,,,,,,,,,12,,63,0
29505,note_on,,1,0,8,,,,,,,,,,,,,,,,11,,68,56
29505,note_on,,1,0,6,,,,,,,,,,,,,,,,6,,70,64
29505,note_on,,1,0,7,,,,,,,,,,,,,,,,10,,72,56
29505,note_on,,1,0,11,,,,,,,,,,,,,,,,15,,56,56
29505,note_on,,1,0,10,,,,,,,,,,,,,,,,13,,56,56
29505,note_on,,1,0,9,,,,,,,,,,,,,,,,12,,63,56
29519,note_on,,0,0,11,,,,,,,,,,,,,,,,15,,63,0
29519,note_on,,14,0,6,,,,,,,,,,,,,,,,6,,70,0
29519,note_on,,14,0,9,,,,,,,,,,,,,,,,12,,63,0
29519,note_on,,0,0,11,,,,,,,,,,,,,,,,15,,56,0
29519,note_on,,0,0,11,,,,,,,,,,,,,,,,15,,68,0
29519,note_on,,14,0,11,,,,,,,,,,,,,,,,15,,72,0
29519,note_on,,14,0,7,,,,,,,,,,,,,,,,10,,72,0
29519,note_on,,14,0,10,,,,,,,,,,,,,,,,13,,56,0
29519,note_on,,14,0,8,,,,,,,,,,,,,,,,11,,68,0
29520,note_on,,0,0,11,,,,,,,,,,,,,,,,15,,72,56
29520,note_on,,0,0,11,,,,,,,,,,,,,,,,15,,56,56
29520,note_on,,1,0,7,,,,,,,,,,,,,,,,10,,72,56
29520,note_on,,0,0,11,,,,,,,,,,,,,,,,15,,51,56
29520,note_on,,1,0,9,,,,,,,,,,,,,,,,12,,63,56
29520,note_on,,1,0,6,,,,,,,,,,,,,,,,6,,68,64
29520,note_on,,1,0,10,,,,,,,,,,,,,,,,13,,51,56
29520,note_on,,1,0,8,,,,,,,,,,,,,,,,11,,68,56
29520,note_on,,0,0,11,,,,,,,,,,,,,,,,15,,63,56
29520,note_on,,1,0,11,,,,,,,,,,,,,,,,15,,68,56
29564,note_on,,44,0,7,,,,,,,,,,,,,,,,10,,72,0
29564,note_on,,44,0,9,,,,,,,,,,,,,,,,12,,63,0
29564,note_on,,44,0,11,,,,,,,,,,,,,,,,15,,51,0
29564,note_on,,44,0,8,,,,,,,,,,,,,,,,11,,68,0
29564,note_on,,44,0,10,,,,,,,,,,,,,,,,13,,51,0
29565,note_on,,1,0,7,,,,,,,,,,,,,,,,10,,72,56
29565,note_on,,1,0,10,,,,,,,,,,,,,,,,13,,51,56
29565,note_on,,1,0,11,,,,,,,,,,,,,,,,15,,51,56
29565,note_on,,1,0,8,,,,,,,,,,,,,,,,11,,68,56
29565,note_on,,1,0,9,,,,,,,,,,,,,,,,12,,63,56
29579,note_on,,14,0,7,,,,,,,,,,,,,,,,10,,72,0
29579,note_on,,14,0,8,,,,,,,,,,,,,,,,11,,68,0
29579,note_on,,14,0,10,,,,,,,,,,,,,,,,13,,51,0
29579,note_on,,14,0,9,,,,,,,,,,,,,,,,12,,63,0
29579,note_on,,14,0,11,,,,,,,,,,,,,,,,15,,51,0
29580,note_on,,1,0,7,,,,,,,,,,,,,,,,10,,72,56
29580,note_on,,1,0,10,,,,,,,,,,,,,,,,13,,51,56
29580,note_on,,1,0,9,,,,,,,,,,,,,,,,12,,63,56
29580,note_on,,1,0,11,,,,,,,,,,,,,,,,15,,51,56
29580,note_on,,1,0,8,,,,,,,,,,,,,,,,11,,68,56
29624,note_on,,44,0,10,,,,,,,,,,,,,,,,13,,51,0
29624,note_on,,44,0,7,,,,,,,,,,,,,,,,10,,72,0
29624,note_on,,44,0,11,,,,,,,,,,,,,,,,15,,51,0
29624,note_on,,44,0,9,,,,,,,,,,,,,,,,12,,63,0
29624,note_on,,44,0,8,,,,,,,,,,,,,,,,11,,68,0
29625,note_on,,1,0,11,,,,,,,,,,,,,,,,15,,51,56
29625,note_on,,1,0,9,,,,,,,,,,,,,,,,12,,63,56
29625,note_on,,1,0,7,,,,,,,,,,,,,,,,10,,72,56
29625,note_on,,1,0,8,,,,,,,,,,,,,,,,11,,68,56
29625,note_on,,1,0,10,,,,,,,,,,,,,,,,13,,51,56
29639,note_on,,14,0,8,,,,,,,,,,,,,,,,11,,68,0
29639,note_on,,119,0,6,,,,,,,,,,,,,,,,6,,68,0
29639,note_on,,14,0,9,,,,,,,,,,,,,,,,12,,63,0
29639,note_on,,14,0,11,,,,,,,,,,,,,,,,15,,68,0
29639,note_on,,0,0,11,,,,,,,,,,,,,,,,15,,63,0
29639,note_on,,0,0,11,,,,,,,,,,,,,,,,15,,72,0
29639,note_on,,0,0,11,,,,,,,,,,,,,,,,15,,56,0
29639,note_on,,0,0,11,,,,,,,,,,,,,,,,15,,51,0
29639,note_on,,14,0,7,,,,,,,,,,,,,,,,10,,72,0
29639,note_on,,14,0,10,,,,,,,,,,,,,,,,13,,51,0
29640,note_on,,0,0,11,,,,,,,,,,,,,,,,15,,67,56
29640,note_on,,0,0,11,,,,,,,,,,,,,,,,15,,63,56
29640,note_on,,0,0,11,,,,,,,,,,,,,,,,15,,70,56
29640,note_on,,1,0,11,,,,,,,,,,,,,,,,15,,51,56
29640,note_on,,1,0,9,,,,,,,,,,,,,,,,12,,63,56
29640,note_on,,1,0,7,,,,,,,,,,,,,,,,10,,70,56
29640,note_on,,1,0,8,,,,,,,,,,,,,,,,11,,67,56
29640,note_on,,1,0,10,,,,,,,,,,,,,,,,13,,51,56
29640,note_on,,1,0,6,,,,,,,,,,,,,,,,6,,67,67
29640,note_on,,0,0,11,,,,,,,,,,,,,,,,15,,58,56
29684,note_on,,44,0,8,,,,,,,,,,,,,,,,11,,67,0
29684,note_on,,44,0,7,,,,,,,,,,,,,,,,10,,70,0
29684,note_on,,44,0,11,,,,,,,,,,,,,,,,15,,51,0
29684,note_on,,44,0,9,,,,,,,,,,,,,,,,12,,63,0
29684,note_on,,44,0,10,,,,,,,,,,,,,,,,13,,51,0
29685,note_on,,1,0,8,,,,,,,,,,,,,,,,11,,67,56
29685,note_on,,1,0,7,,,,,,,,,,,,,,,,10,,70,56
29685,note_on,,1,0,10,,,,,,,,,,,,,,,,13,,51,56
29685,note_on,,1,0,11,,,,,,,,,,,,,,,,15,,51,56
29685,note_on,,1,0,9,,,,,,,,,,,,,,,,12,,63,56
29699,note_on,,14,0,9,,,,,,,,,,,,,,,,12,,63,0
29699,note_on,,14,0,7,,,,,,,,,,,,,,,,10,,70,0
29699,note_on,,14,0,11,,,,,,,,,,,,,,,,15,,51,0
29699,note_on,,14,0,10,,,,,,,,,,,,,,,,13,,51,0
29699,note_on,,14,0,8,,,,,,,,,,,,,,,,11,,67,0
29700,note_on,,1,0,10,,,,,,,,,,,,,,,,13,,51,56
29700,note_on,,1,0,9,,,,,,,,,,,,,,,,12,,63,56
29700,note_on,,1,0,8,,,,,,,,,,,,,,,,11,,67,56
29700,note_on,,1,0,11,,,,,,,,,,,,,,,,15,,51,56
29700,note_on,,1,0,7,,,,,,,,,,,,,,,,10,,70,56
29744,note_on,,44,0,7,,,,,,,,,,,,,,,,10,,70,0
29744,note_on,,44,0,9,,,,,,,,,,,,,,,,12,,63,0
29744,note_on,,44,0,11,,,,,,,,,,,,,,,,15,,51,0
29744,note_on,,44,0,10,,,,,,,,,,,,,,,,13,,51,0
29744,note_on,,44,0,8,,,,,,,,,,,,,,,,11,,67,0
29745,note_on,,1,0,9,,,,,,,,,,,,,,,,12,,63,56
29745,note_on,,1,0,11,,,,,,,,,,,,,,,,15,,51,56
29745,note_on,,1,0,10,,,,,,,,,,,,,,,,13,,51,56
29745,note_on,,1,0,7,,,,,,,,,,,,,,,,10,,70,56
29745,note_on,,1,0,8,,,,,,,,,,,,,,,,11,,67,56
29759,note_on,,0,0,11,,,,,,,,,,,,,,,,15,,51,0
29759,note_on,,119,0,6,,,,,,,,,,,,,,,,6,,67,0
29759,note_on,,0,0,11,,,,,,,,,,,,,,,,15,,67,0
29759,note_on,,14,0,7,,,,,,,,,,,,,,,,10,,70,0
29759,note_on,,14,0,9,,,,,,,,,,,,,,,,12,,63,0
29759,note_on,,14,0,10,,,,,,,,,,,,,,,,13,,51,0
29759,note_on,,0,0,11,,,,,,,,,,,,,,,,15,,58,0
29759,note_on,,14,0,8,,,,,,,,,,,,,,,,11,,67,0
29759,note_on,,0,0,11,,,,,,,,,,,,,,,,15,,63,0
29759,note_on,,14,0,11,,,,,,,,,,,,,,,,15,,70,0
29760,note_on,,0,0,11,,,,,,,,,,,,,,,,15,,67,56
29760,note_on,,1,0,11,,,,,,,,,,,,,,,,15,,58,56
29760,note_on,,1,0,10,,,,,,,,,,,,,,,,13,,51,56
29760,note_on,,1,0,7,,,,,,,,,,,,,,,,10,,70,56
29760,note_on,,1,0,8,,,,,,,,,,,,,,,,11,,67,56
29760,note_on,,1,0,9,,,,,,,,,,,,,,,,12,,63,56
29760,note_on,,0,0,11,,,,,,,,,,,,,,,,15,,63,56
29760,note_on,,0,0,11,,,,,,,,,,,,,,,,15,,51,56
29804,note_on,,44,0,8,,,,,,,,,,,,,,,,11,,67,0
29804,note_on,,44,0,10,,,,,,,,,,,,,,,,13,,51,0
29804,note_on,,44,0,11,,,,,,,,,,,,,,,,15,,51,0
29804,note_on,,44,0,9,,,,,,,,,,,,,,,,12,,63,0
29804,note_on,,44,0,7,,,,,,,,,,,,,,,,10,,70,0
29805,note_on,,1,0,11,,,,,,,,,,,,,,,,15,,51,56
29805,note_on,,1,0,10,,,,,,,,,,,,,,,,13,,51,56
29805,note_on,,1,0,8,,,,,,,,,,,,,,,,11,,67,56
29805,note_on,,1,0,9,,,,,,,,,,,,,,,,12,,63,56
29805,note_on,,1,0,7,,,,,,,,,,,,,,,,10,,70,56
29819,note_on,,14,0,10,,,,,,,,,,,,,,,,13,,51,0
29819,note_on,,14,0,11,,,,,,,,,,,,,,,,15,,51,0
29819,note_on,,14,0,8,,,,,,,,,,,,,,,,11,,67,0
29819,note_on,,14,0,7,,,,,,,,,,,,,,,,10,,70,0
29819,note_on,,14,0,9,,,,,,,,,,,,,,,,12,,63,0
29820,note_on,,1,0,8,,,,,,,,,,,,,,,,11,,67,56
29820,note_on,,1,0,11,,,,,,,,,,,,,,,,15,,51,56
29820,note_on,,1,0,9,,,,,,,,,,,,,,,,12,,63,56
29820,note_on,,1,0,7,,,,,,,,,,,,,,,,10,,70,56
29820,note_on,,1,0,10,,,,,,,,,,,,,,,,13,,51,56
29864,note_on,,44,0,8,,,,,,,,,,,,,,,,11,,67,0
29864,note_on,,44,0,11,,,,,,,,,,,,,,,,15,,51,0
29864,note_on,,44,0,9,,,,,,,,,,,,,,,,12,,63,0
29864,note_on,,44,0,10,,,,,,,,,,,,,,,,13,,51,0
29864,note_on,,44,0,7,,,,,,,,,,,,,,,,10,,70,0
29865,note_on,,1,0,10,,,,,,,,,,,,,,,,13,,51,56
29865,note_on,,1,0,9,,,,,,,,,,,,,,,,12,,63,56
29865,note_on,,1,0,11,,,,,,,,,,,,,,,,15,,51,56
29865,note_on,,1,0,7,,,,,,,,,,,,,,,,10,,70,56
29865,note_on,,1,0,8,,,,,,,,,,,,,,,,11,,67,56
29879,note_on,,14,0,9,,,,,,,,,,,,,,,,12,,63,0
29879,note_on,,14,0,10,,,,,,,,,,,,,,,,13,,51,0
29879,note_on,,0,0,11,,,,,,,,,,,,,,,,15,,63,0
29879,note_on,,0,0,11,,,,,,,,,,,,,,,,15,,51,0
29879,note_on,,14,0,11,,,,,,,,,,,,,,,,15,,58,0
29879,note_on,,14,0,8,,,,,,,,,,,,,,,,11,,67,0
29879,note_on,,0,0,11,,,,,,,,,,,,,,,,15,,67,0
29879,note_on,,14,0,7,,,,,,,,,,,,,,,,10,,70,0
29880,note_on,,1,0,9,,,,,,,,,,,,,,,,12,,60,56
29880,note_on,,0,0,11,,,,,,,,,,,,,,,,15,,60,56
29880,note_on,,0,0,11,,,,,,,,,,,,,,,,15,,67,56
29880,note_on,,1,0,10,,,,,,,,,,,,,,,,13,,51,56
29880,note_on,,1,0,8,,,,,,,,,,,,,,,,11,,67,56
29880,note_on,,1,0,7,,,,,,,,,,,,,,,,10,,70,56
29880,note_on,,1,0,11,,,,,,,,,,,,,,,,15,,51,56
29880,note_on,,0,0,11,,,,,,,,,,,,,,,,15,,55,56
29924,note_on,,44,0,10,,,,,,,,,,,,,,,,13,,51,0
29924,note_on,,44,0,9,,,,,,,,,,,,,,,,12,,60,0
29924,note_on,,44,0,11,,,,,,,,,,,,,,,,15,,51,0
29924,note_on,,44,0,8,,,,,,,,,,,,,,,,11,,67,0
29924,note_on,,44,0,7,,,,,,,,,,,,,,,,10,,70,0
29925,note_on,,1,0,11,,,,,,,,,,,,,,,,15,,51,56
29925,note_on,,1,0,10,,,,,,,,,,,,,,,,13,,51,56
29925,note_on,,1,0,9,,,,,,,,,,,,,,,,12,,60,56
29925,note_on,,1,0,7,,,,,,,,,,,,,,,,10,,70,56
29925,note_on,,1,0,8,,,,,,,,,,,,,,,,11,,67,56
29939,note_on,,14,0,8,,,,,,,,,,,,,,,,11,,67,0
29939,note_on,,14,0,7,,,,,,,,,,,,,,,,10,,70,0
29939,note_on,,14,0,10,,,,,,,,,,,,,,,,13,,51,0
29939,note_on,,14,0,9,,,,,,,,,,,,,,,,12,,60,0
29939,note_on,,14,0,11,,,,,,,,,,,,,,,,15,,51,0
29940,note_on,,1,0,10,,,,,,,,,,,,,,,,13,,51,56
29940,note_on,,1,0,11,,,,,,,,,,,,,,,,15,,51,56
29940,note_on,,1,0,8,,,,,,,,,,,,,,,,11,,67,56
29940,note_on,,1,0,9,,,,,,,,,,,,,,,,12,,60,56
29940,note_on,,181,0,6,,,,,,,,,,,,,,,,6,,67,60
29940,note_on,,1,0,7,,,,,,,,,,,,,,,,10,,70,56
29984,note_on,,44,0,10,,,,,,,,,,,,,,,,13,,51,0
29984,note_on,,44,0,11,,,,,,,,,,,,,,,,15,,51,0
29984,note_on,,44,0,8,,,,,,,,,,,,,,,,11,,67,0
29984,note_on,,44,0,6,,,,,,,,,,,,,,,,6,,67,0
29984,note_on,,44,0,7,,,,,,,,,,,,,,,,10,,70,0
29984,note_on,,44,0,9,,,,,,,,,,,,,,,,12,,60,0
29985,note_on,,1,0,11,,,,,,,,,,,,,,,,15,,51,56
29985,note_on,,1,0,7,,,,,,,,,,,,,,,,10,,70,56
29985,note_on,,1,0,6,,,,,,,,,,,,,,,,6,,69,67
29985,note_on,,1,0,10,,,,,,,,,,,,,,,,13,,51,56
29985,note_on,,1,0,8,,,,,,,,,,,,,,,,11,,67,56
29985,note_on,,1,0,9,,,,,,,,,,,,,,,,12,,60,56
29999,note_on,,0,0,11,,,,,,,,,,,,,,,,15,,51,0
29999,note_on,,0,0,11,,,,,,,,,,,,,,,,15,,60,0
29999,note_on,,0,0,11,,,,,,,,,,,,,,,,15,,55,0
29999,note_on,,14,0,11,,,,,,,,,,,,,,,,15,,67,0
29999,note_on,,14,0,10,,,,,,,,,,,,,,,,13,,51,0
29999,note_on,,14,0,6,,,,,,,,,,,,,,,,6,,69,0
29999,note_on,,14,0,7,,,,,,,,,,,,,,,,10,,70,0
29999,note_on,,14,0,9,,,,,,,,,,,,,,,,12,,60,0
29999,note_on,,14,0,8,,,,,,,,,,,,,,,,11,,67,0
30000,note_on,,0,0,11,,,,,,,,,,,,,,,,15,,50,56
30000,note_on,,1,0,8,,,,,,,,,,,,,,,,11,,67,56
30000,note_on,,1,0,10,,,,,,,,,,,,,,,,13,,50,56
30000,note_on,,0,0,11,,,,,,,,,,,,,,,,15,,55,56
30000,note_on,,0,0,11,,,,,,,,,,,,,,,,15,,67,56
30000,note_on,,1,0,6,,,,,,,,,,,,,,,,6,,67,65
30000,note_on,,0,0,11,,,,,,,,,,,,,,,,15,,62,56
30000,note_on,,1,0,9,,,,,,,,,,,,,,,,12,,62,56
30000,note_on,,1,0,7,,,,,,,,,,,,,,,,10,,70,56
30000,note_on,,1,0,11,,,,,,,,,,,,,,,,15,,58,56
30044,note_on,,44,0,10,,,,,,,,,,,,,,,,13,,50,0
30044,note_on,,44,0,8,,,,,,,,,,,,,,,,11,,67,0
30044,note_on,,44,0,7,,,,,,,,,,,,,,,,10,,70,0
30044,note_on,,44,0,9,,,,,,,,,,,,,,,,12,,62,0
30044,note_on,,44,0,11,,,,,,,,,,,,,,,,15,,50,0
30045,note_on,,1,0,9,,,,,,,,,,,,,,,,12,,62,56
30045,note_on,,1,0,10,,,,,,,,,,,,,,,,13,,50,56
30045,note_on,,1,0,8,,,,,,,,,,,,,,,,11,,67,56
30045,note_on,,1,0,7,,,,,,,,,,,,,,,,10,,70,56
30045,note_on,,1,0,11,,,,,,,,,,,,,,,,15,,50,56
30059,note_on,,14,0,10,,,,,,,,,,,,,,,,13,,50,0
30059,note_on,,14,0,9,,,,,,,,,,,,,,,,12,,62,0
30059,note_on,,14,0,7,,,,,,,,,,,,,,,,10,,70,0
30059,note_on,,14,0,11,,,,,,,,,,,,,,,,15,,50,0
30059,note_on,,14,0,8,,,,,,,,,,,,,,,,11,,67,0
30060,note_on,,1,0,11,,,,,,,,,,,,,,,,15,,50,56
30060,note_on,,1,0,9,,,,,,,,,,,,,,,,12,,62,56
30060,note_on,,1,0,7,,,,,,,,,,,,,,,,10,,70,56
30060,note_on,,1,0,8,,,,,,,,,,,,,,,,11,,67,56
30060,note_on,,1,0,10,,,,,,,,,,,,,,,,13,,50,56
30104,note_on,,44,0,10,,,,,,,,,,,,,,,,13,,50,0
30104,note_on,,44,0,9,,,,,,,,,,,,,,,,12,,62,0
30104,note_on,,44,0,11,,,,,,,,,,,,,,,,15,,50,0
30104,note_on,,44,0,7,,,,,,,,,,,,,,,,10,,70,0
30104,note_on,,44,0,8,,,,,,,,,,,,,,,,11,,67,0
30105,note_on,,1,0,11,,,,,,,,,,,,,,,,15,,50,56
30105,note_on,,1,0,8,,,,,,,,,,,,,,,,11,,67,56
30105,note_on,,1,0,9,,,,,,,,,,,,,,,,12,,62,56
30105,note_on,,1,0,7,,,,,,,,,,,,,,,,10,,70,56
30105,note_on,,1,0,10,,,,,,,,,,,,,,,,13,,50,56
30119,note_on,,14,0,11,,,,,,,,,,,,,,,,15,,58,0
30119,note_on,,14,0,9,,,,,,,,,,,,,,,,12,,62,0
30119,note_on,,0,0,11,,,,,,,,,,,,,,,,15,,62,0
30119,note_on,,0,0,11,,,,,,,,,,,,,,,,15,,55,0
30119,note_on,,0,0,11,,,,,,,,,,,,,,,,15,,67,0
30119,note_on,,0,0,11,,,,,,,,,,,,,,,,15,,50,0
30119,note_on,,119,0,6,,,,,,,,,,,,,,,,6,,67,0
30119,note_on,,14,0,7,,,,,,,,,,,,,,,,10,,70,0
30119,note_on,,14,0,8,,,,,,,,,,,,,,,,11,,67,0
30119,note_on,,14,0,10,,,,,,,,,,,,,,,,13,,50,0
30120,note_on,,1,0,11,,,,,,,,,,,,,,,,15,,62,56
30120,note_on,,0,0,11,,,,,,,,,,,,,,,,15,,66,56
30120,note_on,,0,0,11,,,,,,,,,,,,,,,,15,,50,56
30120,note_on,,1,0,7,,,,,,,,,,,,,,,,10,,69,56
30120,note_on,,1,0,8,,,,,,,,,,,,,,,,11,,66,56
30120,note_on,,1,0,9,,,,,,,,,,,,,,,,12,,62,56
30120,note_on,,1,0,6,,,,,,,,,,,,,,,,6,,66,62
30120,note_on,,1,0,10,,,,,,,,,,,,,,,,13,,50,56
30120,note_on,,0,0,11,,,,,,,,,,,,,,,,15,,57,56
30164,note_on,,44,0,10,,,,,,,,,,,,,,,,13,,50,0
30164,note_on,,44,0,9,,,,,,,,,,,,,,,,12,,62,0
30164,note_on,,44,0,11,,,,,,,,,,,,,,,,15,,50,0
30164,note_on,,44,0,8,,,,,,,,,,,,,,,,11,,66,0
30164,note_on,,44,0,7,,,,,,,,,,,,,,,,10,,69,0
30165,note_on,,1,0,10,,,,,,,,,,,,,,,,13,,50,56
30165,note_on,,1,0,11,,,,,,,,,,,,,,,,15,,50,56
30165,note_on,,1,0,9,,,,,,,,,,,,,,,,12,,62,56
30165,note_on,,1,0,7,,,,,,,,,,,,,,,,10,,69,56
30165,note_on,,1,0,8,,,,,,,,,,,,,,,,11,,66,56
30179,note_on,,14,0,7,,,,,,,,,,,,,,,,10,,69,0
30179,note_on,,14,0,10,,,,,,,,,,,,,,,,13,,50,0
30179,note_on,,14,0,8,,,,,,,,,,,,,,,,11,,66,0
30179,note_on,,14,0,11,,,,,,,,,,,,,,,,15,,50,0
30179,note_on,,14,0,9,,,,,,,,,,,,,,,,12,,62,0
30180,note_on,,1,0,11,,,,,,,,,,,,,,,,15,,50,56
30180,note_on,,1,0,8,,,,,,,,,,,,,,,,11,,66,56
30180,note_on,,1,0,7,,,,,,,,,,,,,,,,10,,69,56
30180,note_on,,1,0,9,,,,,,,,,,,,,,,,12,,62,56
30180,note_on,,1,0,10,,,,,,,,,,,,,,,,13,,50,56
30224,note_on,,44,0,7,,,,,,,,,,,,,,,,10,,69,0
30224,note_on,,44,0,9,,,,,,,,,,,,,,,,12,,62,0
30224,note_on,,44,0,8,,,,,,,,,,,,,,,,11,,66,0
30224,note_on,,44,0,10,,,,,,,,,,,,,,,,13,,50,0
30224,note_on,,44,0,11,,,,,,,,,,,,,,,,15,,50,0
30225,note_on,,1,0,9,,,,,,,,,,,,,,,,12,,62,56
30225,note_on,,1,0,8,,,,,,,,,,,,,,,,11,,66,56
30225,note_on,,1,0,10,,,,,,,,,,,,,,,,13,,50,56
30225,note_on,,1,0,7,,,,,,,,,,,,,,,,10,,69,56
30225,note_on,,1,0,11,,,,,,,,,,,,,,,,15,,50,56
30239,note_on,,0,0,11,,,,,,,,,,,,,,,,15,,50,0
30239,note_on,,14,0,7,,,,,,,,,,,,,,,,10,,69,0
30239,note_on,,14,0,8,,,,,,,,,,,,,,,,11,,66,0
30239,note_on,,14,0,11,,,,,,,,,,,,,,,,15,,62,0
30239,note_on,,0,0,11,,,,,,,,,,,,,,,,15,,57,0
30239,note_on,,119,0,6,,,,,,,,,,,,,,,,6,,66,0
30239,note_on,,0,0,11,,,,,,,,,,,,,,,,15,,66,0
30239,note_on,,14,0,9,,,,,,,,,,,,,,,,12,,62,0
30239,note_on,,14,0,10,,,,,,,,,,,,,,,,13,,50,0
30240,note_on,,1,0,8,,,,,,,,,,,,,,,,11,,66,56
30240,note_on,,1,0,9,,,,,,,,,,,,,,,,12,,62,56
30240,note_on,,0,0,11,,,,,,,,,,,,,,,,15,,62,56
30240,note_on,,0,0,11,,,,,,,,,,,,,,,,15,,69,56
30240,note_on,,0,0,11,,,,,,,,,,,,,,,,15,,66,56
30240,note_on,,1,0,11,,,,,,,,,,,,,,,,15,,48,56
30240,note_on,,1,0,10,,,,,,,,,,,,,,,,13,,48,56
30240,note_on,,1,0,7,,,,,,,,,,,,,,,,10,,69,56
30240,note_on,,0,0,11,,,,,,,,,,,,,,,,15,,74,56
30284,note_on,,44,0,8,,,,,,,,,,,,,,,,11,,66,0
30284,note_on,,44,0,10,,,,,,,,,,,,,,,,13,,48,0
30284,note_on,,44,0,7,,,,,,,,,,,,,,,,10,,69,0
30284,note_on,,44,0,11,,,,,,,,,,,,,,,,15,,48,0
30284,note_on,,44,0,9,,,,,,,,,,,,,,,,12,,62,0
30285,note_on,,1,0,9,,,,,,,,,,,,,,,,12,,62,56
30285,note_on,,1,0,8,,,,,,,,,,,,,,,,11,,66,56
30285,note_on,,1,0,7,,,,,,,,,,,,,,,,10,,69,56
30285,note_on,,1,0,11,,,,,,,,,,,,,,,,15,,48,56
30285,note_on,,1,0,10,,,,,,,,,,,,,,,,13,,48,56
30299,note_on,,14,0,7,,,,,,,,,,,,,,,,10,,69,0
30299,note_on,,14,0,9,,,,,,,,,,,,,,,,12,,62,0
30299,note_on,,14,0,10,,,,,,,,,,,,,,,,13,,48,0
30299,note_on,,14,0,11,,,,,,,,,,,,,,,,15,,48,0
30299,note_on,,14,0,8,,,,,,,,,,,,,,,,11,,66,0
30300,note_on,,1,0,7,,,,,,,,,,,,,,,,10,,69,56
30300,note_on,,1,0,11,,,,,,,,,,,,,,,,15,,48,56
30300,note_on,,1,0,8,,,,,,,,,,,,,,,,11,,66,56
30300,note_on,,1,0,9,,,,,,,,,,,,,,,,12,,62,56
30300,note_on,,1,0,10,,,,,,,,,,,,,,,,13,,48,56
30344,note_on,,44,0,11,,,,,,,,,,,,,,,,15,,48,0
30344,note_on,,44,0,9,,,,,,,,,,,,,,,,12,,62,0
30344,note_on,,44,0,7,,,,,,,,,,,,,,,,10,,69,0
30344,note_on,,44,0,10,,,,,,,,,,,,,,,,13,,48,0
30344,note_on,,44,0,8,,,,,,,,,,,,,,,,11,,66,0
30345,note_on,,1,0,10,,,,,,,,,,,,,,,,13,,48,56
30345,note_on,,1,0,7,,,,,,,,,,,,,,,,10,,69,56
30345,note_on,,1,0,9,,,,,,,,,,,,,,,,12,,62,56
30345,note_on,,1,0,11,,,,,,,,,,,,,,,,15,,48,56
30345,note_on,,1,0,8,,,,,,,,,,,,,,,,11,,66,56
30359,note_on,,0,0,11,,,,,,,,,,,,,,,,15,,62,0
30359,note_on,,0,0,11,,,,,,,,,,,,,,,,15,,74,0
30359,note_on,,0,0,11,,,,,,,,,,,,,,,,15,,48,0
30359,note_on,,0,0,11,,,,,,,,,,,,,,,,15,,69,0
30359,note_on,,14,0,11,,,,,,,,,,,,,,,,15,,66,0
30359,note_on,,14,0,10,,,,,,,,,,,,,,,,13,,48,0
30359,note_on,,14,0,8,,,,,,,,,,,,,,,,11,,66,0
30359,note_on,,14,0,7,,,,,,,,,,,,,,,,10,,69,0
30359,note_on,,14,0,9,,,,,,,,,,,,,,,,12,,62,0
30360,note_on,,1,0,9,,,,,,,,,,,,,,,,12,,62,56
30360,note_on,,0,0,11,,,,,,,,,,,,,,,,15,,62,56
30360,note_on,,0,0,11,,,,,,,,,,,,,,,,15,,69,56
30360,note_on,,1,0,8,,,,,,,,,,,,,,,,11,,66,56
30360,note_on,,1,0,10,,,,,,,,,,,,,,,,13,,60,56
30360,note_on,,1,0,11,,,,,,,,,,,,,,,,15,,60,56
30360,note_on,,1,0,7,,,,,,,,,,,,,,,,10,,69,56
30360,note_on,,121,0,6,,,,,,,,,,,,,,,,6,,62,60
30360,note_on,,0,0,11,,,,,,,,,,,,,,,,15,,66,56
30404,note_on,,44,0,7,,,,,,,,,,,,,,,,10,,69,0
30404,note_on,,44,0,8,,,,,,,,,,,,,,,,11,,66,0
30404,note_on,,44,0,11,,,,,,,,,,,,,,,,15,,60,0
30404,note_on,,44,0,9,,,,,,,,,,,,,,,,12,,62,0
30404,note_on,,44,0,10,,,,,,,,,,,,,,,,13,,60,0
30405,note_on,,1,0,10,,,,,,,,,,,,,,,,13,,60,56
30405,note_on,,1,0,7,,,,,,,,,,,,,,,,10,,69,56
30405,note_on,,1,0,9,,,,,,,,,,,,,,,,12,,62,56
30405,note_on,,1,0,11,,,,,,,,,,,,,,,,15,,60,56
30405,note_on,,1,0,8,,,,,,,,,,,,,,,,11,,66,56
30419,note_on,,14,0,11,,,,,,,,,,,,,,,,15,,60,0
30419,note_on,,14,0,8,,,,,,,,,,,,,,,,11,,66,0
30419,note_on,,14,0,7,,,,,,,,,,,,,,,,10,,69,0
30419,note_on,,59,0,6,,,,,,,,,,,,,,,,6,,62,0
30419,note_on,,14,0,9,,,,,,,,,,,,,,,,12,,62,0
30419,note_on,,14,0,10,,,,,,,,,,,,,,,,13,,60,0
30420,note_on,,1,0,11,,,,,,,,,,,,,,,,15,,60,56
30420,note_on,,1,0,7,,,,,,,,,,,,,,,,10,,69,56
30420,note_on,,1,0,10,,,,,,,,,,,,,,,,13,,60,56
30420,note_on,,1,0,9,,,,,,,,,,,,,,,,12,,62,56
30420,note_on,,1,0,6,,,,,,,,,,,,,,,,6,,62,64
30420,note_on,,1,0,8,,,,,,,,,,,,,,,,11,,66,56
30464,note_on,,44,0,8,,,,,,,,,,,,,,,,11,,66,0
30464,note_on,,44,0,10,,,,,,,,,,,,,,,,13,,60,0
30464,note_on,,44,0,9,,,,,,,,,,,,,,,,12,,62,0
30464,note_on,,44,0,11,,,,,,,,,,,,,,,,15,,60,0
30464,note_on,,44,0,7,,,,,,,,,,,,,,,,10,,69,0
30465,note_on,,1,0,8,,,,,,,,,,,,,,,,11,,66,56
30465,note_on,,1,0,7,,,,,,,,,,,,,,,,10,,69,56
30465,note_on,,1,0,9,,,,,,,,,,,,,,,,12,,62,56
30465,note_on,,1,0,11,,,,,,,,,,,,,,,,15,,60,56
30465,note_on,,1,0,10,,,,,,,,,,,,,,,,13,,60,56
30479,note_on,,14,0,11,,,,,,,,,,,,,,,,15,,66,0
30479,note_on,,14,0,8,,,,,,,,,,,,,,,,11,,66,0
30479,note_on,,14,0,7,,,,,,,,,,,,,,,,10,,69,0
30479,note_on,,14,0,10,,,,,,,,,,,,,,,,13,,60,0
30479,note_on,,14,0,9,,,,,,,,,,,,,,,,12,,62,0
30479,note_on,,0,0,11,,,,,,,,,,,,,,,,15,,69,0
30479,note_on,,59,0,6,,,,,,,,,,,,,,,,6,,62,0
30479,note_on,,0,0,11,,,,,,,,,,,,,,,,15,,62,0
30479,note_on,,0,0,11,,,,,,,,,,,,,,,,15,,60,0
30480,note_on,,1,0,7,,,,,,,,,,,,,,,,10,,74,56
30480,note_on,,1,0,9,,,,,,,,,,,,,,,,12,,62,56
30480,note_on,,1,0,6,,,,,,,,,,,,,,,,6,,67,61
30480,note_on,,1,0,10,,,,,,,,,,,,,,,,13,,58,56
30480,note_on,,1,0,11,,,,,,,,,,,,,,,,15,,58,56
30480,note_on,,1,0,8,,,,,,,,,,,,,,,,11,,67,56
30480,note_on,,0,0,11,,,,,,,,,,,,,,,,15,,62,56
30480,note_on,,0,0,11,,,,,,,,,,,,,,,,15,,67,56
30480,note_on,,0,0,11,,,,,,,,,,,,,,,,15,,70,56
30524,note_on,,44,0,10,,,,,,,,,,,,,,,,13,,58,0
30524,note_on,,44,0,11,,,,,,,,,,,,,,,,15,,58,0
30524,note_on,,44,0,7,,,,,,,,,,,,,,,,10,,74,0
30524,note_on,,44,0,8,,,,,,,,,,,,,,,,11,,67,0
30524,note_on,,44,0,9,,,,,,,,,,,,,,,,12,,62,0
30525,note_on,,1,0,11,,,,,,,,,,,,,,,,15,,58,56
30525,note_on,,1,0,7,,,,,,,,,,,,,,,,10,,74,56
30525,note_on,,1,0,9,,,,,,,,,,,,,,,,12,,62,56
30525,note_on,,1,0,8,,,,,,,,,,,,,,,,11,,67,56
30525,note_on,,1,0,10,,,,,,,,,,,,,,,,13,,58,56
30539,note_on,,14,0,10,,,,,,,,,,,,,,,,13,,58,0
30539,note_on,,14,0,9,,,,,,,,,,,,,,,,12,,62,0
30539,note_on,,14,0,8,,,,,,,,,,,,,,,,11,,67,0
30539,note_on,,14,0,11,,,,,,,,,,,,,,,,15,,58,0
30539,note_on,,14,0,7,,,,,,,,,,,,,,,,10,,74,0
30540,note_on,,1,0,9,,,,,,,,,,,,,,,,12,,62,56
30540,note_on,,1,0,7,,,,,,,,,,,,,,,,10,,74,56
30540,note_on,,1,0,10,,,,,,,,,,,,,,,,13,,58,56
30540,note_on,,1,0,8,,,,,,,,,,,,,,,,11,,67,56
30540,note_on,,1,0,11,,,,,,,,,,,,,,,,15,,58,56
30584,note_on,,44,0,9,,,,,,,,,,,,,,,,12,,62,0
30584,note_on,,44,0,7,,,,,,,,,,,,,,,,10,,74,0
30584,note_on,,44,0,10,,,,,,,,,,,,,,,,13,,58,0
30584,note_on,,44,0,8,,,,,,,,,,,,,,,,11,,67,0
30584,note_on,,44,0,11,,,,,,,,,,,,,,,,15,,58,0
30585,note_on,,1,0,11,,,,,,,,,,,,,,,,15,,58,56
30585,note_on,,1,0,9,,,,,,,,,,,,,,,,12,,62,56
30585,note_on,,1,0,7,,,,,,,,,,,,,,,,10,,74,56
30585,note_on,,1,0,10,,,,,,,,,,,,,,,,13,,58,56
30585,note_on,,1,0,8,,,,,,,,,,,,,,,,11,,67,56
30599,note_on,,14,0,9,,,,,,,,,,,,,,,,12,,62,0
30599,note_on,,0,0,11,,,,,,,,,,,,,,,,15,,67,0
30599,note_on,,14,0,8,,,,,,,,,,,,,,,,11,,67,0
30599,note_on,,14,0,11,,,,,,,,,,,,,,,,15,,62,0
30599,note_on,,0,0,11,,,,,,,,,,,,,,,,15,,58,0
30599,note_on,,0,0,11,,,,,,,,,,,,,,,,15,,70,0
30599,note_on,,119,0,6,,,,,,,,,,,,,,,,6,,67,0
30599,note_on,,14,0,10,,,,,,,,,,,,,,,,13,,58,0
30599,note_on,,14,0,7,,,,,,,,,,,,,,,,10,,74,0
30600,note_on,,0,0,11,,,,,,,,,,,,,,,,15,,69,56
30600,note_on,,0,0,11,,,,,,,,,,,,,,,,15,,72,56
30600,note_on,,0,0,11,,,,,,,,,,,,,,,,15,,54,56
30600,note_on,,1,0,11,,,,,,,,,,,,,,,,15,,62,56
30600,note_on,,1,0,9,,,,,,,,,,,,,,,,12,,62,56
30600,note_on,,1,0,10,,,,,,,,,,,,,,,,13,,54,56
30600,note_on,,1,0,6,,,,,,,,,,,,,,,,6,,69,62
30600,note_on,,1,0,8,,,,,,,,,,,,,,,,11,,72,56
30600,note_on,,1,0,7,,,,,,,,,,,,,,,,10,,69,56
30644,note_on,,44,0,8,,,,,,,,,,,,,,,,11,,72,0
30644,note_on,,44,0,7,,,,,,,,,,,,,,,,10,,69,0
30644,note_on,,44,0,9,,,,,,,,,,,,,,,,12,,62,0
30644,note_on,,44,0,11,,,,,,,,,,,,,,,,15,,54,0
30644,note_on,,44,0,10,,,,,,,,,,,,,,,,13,,54,0
30645,note_on,,1,0,10,,,,,,,,,,,,,,,,13,,54,56
30645,note_on,,1,0,8,,,,,,,,,,,,,,,,11,,72,56
30645,note_on,,1,0,11,,,,,,,,,,,,,,,,15,,54,56
30645,note_on,,1,0,9,,,,,,,,,,,,,,,,12,,62,56
30645,note_on,,1,0,7,,,,,,,,,,,,,,,,10,,69,56
30659,note_on,,14,0,10,,,,,,,,,,,,,,,,13,,54,0
30659,note_on,,14,0,7,,,,,,,,,,,,,,,,10,,69,0
30659,note_on,,14,0,8,,,,,,,,,,,,,,,,11,,72,0
30659,note_on,,14,0,9,,,,,,,,,,,,,,,,12,,62,0
30659,note_on,,14,0,11,,,,,,,,,,,,,,,,15,,54,0
30660,note_on,,1,0,9,,,,,,,,,,,,,,,,12,,62,56
30660,note_on,,1,0,11,,,,,,,,,,,,,,,,15,,54,56
30660,note_on,,1,0,7,,,,,,,,,,,,,,,,10,,69,56
30660,note_on,,1,0,10,,,,,,,,,,,,,,,,13,,54,56
30660,note_on,,1,0,8,,,,,,,,,,,,,,,,11,,72,56
30704,note_on,,44,0,7,,,,,,,,,,,,,,,,10,,69,0
30704,note_on,,44,0,10,,,,,,,,,,,,,,,,13,,54,0
30704,note_on,,44,0,9,,,,,,,,,,,,,,,,12,,62,0
30704,note_on,,44,0,8,,,,,,,,,,,,,,,,11,,72,0
30704,note_on,,44,0,11,,,,,,,,,,,,,,,,15,,54,0
30705,note_on,,1,0,7,,,,,,,,,,,,,,,,10,,69,56
30705,note_on,,1,0,8,,,,,,,,,,,,,,,,11,,72,56
30705,note_on,,1,0,10,,,,,,,,,,,,,,,,13,,54,56
30705,note_on,,1,0,9,,,,,,,,,,,,,,,,12,,62,56
30705,note_on,,1,0,11,,,,,,,,,,,,,,,,15,,54,56
30719,note_on,,14,0,7,,,,,,,,,,,,,,,,10,,69,0
30719,note_on,,14,0,11,,,,,,,,,,,,,,,,15,,62,0
30719,note_on,,0,0,11,,,,,,,,,,,,,,,,15,,72,0
30719,note_on,,14,0,8,,,,,,,,,,,,,,,,11,,72,0
30719,note_on,,14,0,9,,,,,,,,,,,,,,,,12,,62,0
30719,note_on,,0,0,11,,,,,,,,,,,,,,,,15,,69,0
30719,note_on,,0,0,11,,,,,,,,,,,,,,,,15,,54,0
30719,note_on,,14,0,10,,,,,,,,,,,,,,,,13,,54,0
30719,note_on,,119,0,6,,,,,,,,,,,,,,,,6,,69,0
30720,note_on,,0,0,11,,,,,,,,,,,,,,,,15,,55,56
30720,note_on,,1,0,8,,,,,,,,,,,,,,,,11,,70,56
30720,note_on,,0,0,11,,,,,,,,,,,,,,,,15,,67,56
30720,note_on,,1,0,11,,,,,,,,,,,,,,,,15,,70,56
30720,note_on,,0,0,11,,,,,,,,,,,,,,,,15,,62,56
30720,note_on,,1,0,9,,,,,,,,,,,,,,,,12,,67,56
30720,note_on,,1,0,10,,,,,,,,,,,,,,,,13,,55,56
30720,note_on,,1,0,6,,,,,,,,,,,,,,,,6,,70,67
30720,note_on,,1,0,7,,,,,,,,,,,,,,,,10,,74,56
30764,note_on,,44,0,11,,,,,,,,,,,,,,,,15,,55,0
30764,note_on,,44,0,7,,,,,,,,,,,,,,,,10,,74,0
30764,note_on,,44,0,10,,,,,,,,,,,,,,,,13,,55,0
30764,note_on,,44,0,9,,,,,,,,,,,,,,,,12,,67,0
30764,note_on,,44,0,8,,,,,,,,,,,,,,,,11,,70,0
30765,note_on,,1,0,11,,,,,,,,,,,,,,,,15,,55,56
30765,note_on,,1,0,7,,,,,,,,,,,,,,,,10,,74,56
30765,note_on,,1,0,10,,,,,,,,,,,,,,,,13,,55,56
30765,note_on,,1,0,9,,,,,,,,,,,,,,,,12,,67,56
30765,note_on,,1,0,8,,,,,,,,,,,,,,,,11,,70,56
30779,note_on,,14,0,11,,,,,,,,,,,,,,,,15,,55,0
30779,note_on,,14,0,7,,,,,,,,,,,,,,,,10,,74,0
30779,note_on,,14,0,10,,,,,,,,,,,,,,,,13,,55,0
30779,note_on,,14,0,9,,,,,,,,,,,,,,,,12,,67,0
30779,note_on,,14,0,8,,,,,,,,,,,,,,,,11,,70,0
30780,note_on,,1,0,10,,,,,,,,,,,,,,,,13,,55,56
30780,note_on,,1,0,11,,,,,,,,,,,,,,,,15,,55,56
30780,note_on,,1,0,9,,,,,,,,,,,,,,,,12,,67,56
30780,note_on,,1,0,7,,,,,,,,,,,,,,,,10,,74,56
30780,note_on,,1,0,8,,,,,,,,,,,,,,,,11,,70,56
30824,note_on,,44,0,7,,,,,,,,,,,,,,,,10,,74,0
30824,note_on,,44,0,11,,,,,,,,,,,,,,,,15,,55,0
30824,note_on,,44,0,10,,,,,,,,,,,,,,,,13,,55,0
30824,note_on,,44,0,8,,,,,,,,,,,,,,,,11,,70,0
30824,note_on,,44,0,9,,,,,,,,,,,,,,,,12,,67,0
30825,note_on,,1,0,9,,,,,,,,,,,,,,,,12,,67,56
30825,note_on,,1,0,10,,,,,,,,,,,,,,,,13,,55,56
30825,note_on,,1,0,7,,,,,,,,,,,,,,,,10,,74,56
30825,note_on,,1,0,8,,,,,,,,,,,,,,,,11,,70,56
30825,note_on,,1,0,11,,,,,,,,,,,,,,,,15,,55,56
30839,note_on,,119,0,6,,,,,,,,,,,,,,,,6,,70,0
30839,note_on,,14,0,11,,,,,,,,,,,,,,,,15,,70,0
30839,note_on,,14,0,8,,,,,,,,,,,,,,,,11,,70,0
30839,note_on,,0,0,11,,,,,,,,,,,,,,,,15,,67,0
30839,note_on,,0,0,11,,,,,,,,,,,,,,,,15,,55,0
30839,note_on,,14,0,10,,,,,,,,,,,,,,,,13,,55,0
30839,note_on,,14,0,9,,,,,,,,,,,,,,,,12,,67,0
30839,note_on,,0,0,11,,,,,,,,,,,,,,,,15,,62,0
30839,note_on,,14,0,7,,,,,,,,,,,,,,,,10,,74,0
30840,note_on,,1,0,8,,,,,,,,,,,,,,,,11,,69,56
30840,note_on,,1,0,9,,,,,,,,,,,,,,,,12,,62,56
30840,note_on,,0,0,11,,,,,,,,,,,,,,,,15,,53,56
30840,note_on,,0,0,11,,,,,,,,,,,,,,,,15,,62,56
30840,note_on,,1,0,7,,,,,,,,,,,,,,,,10,,74,56
30840,note_on,,1,0,10,,,,,,,,,,,,,,,,13,,53,56
30840,note_on,,1,0,11,,,,,,,,,,,,,,,,15,,69,56
30840,note_on,,0,0,11,,,,,,,,,,,,,,,,15,,57,56
30884,note_on,,44,0,11,,,,,,,,,,,,,,,,15,,53,0
30884,note_on,,44,0,8,,,,,,,,,,,,,,,,11,,69,0
30884,note_on,,44,0,10,,,,,,,,,,,,,,,,13,,53,0
30884,note_on,,44,0,9,,,,,,,,,,,,,,,,12,,62,0
30884,note_on,,44,0,7,,,,,,,,,,,,,,,,10,,74,0
30885,note_on,,1,0,9,,,,,,,,,,,,,,,,12,,62,56
30885,note_on,,1,0,11,,,,,,,,,,,,,,,,15,,53,56
30885,note_on,,1,0,8,,,,,,,,,,,,,,,,11,,69,56
30885,note_on,,1,0,7,,,,,,,,,,,,,,,,10,,74,56
30885,note_on,,1,0,10,,,,,,,,,,,,,,,,13,,53,56
30899,note_on,,14,0,11,,,,,,,,,,,,,,,,15,,53,0
30899,note_on,,14,0,7,,,,,,,,,,,,,,,,10,,74,0
30899,note_on,,14,0,8,,,,,,,,,,,,,,,,11,,69,0
30899,note_on,,14,0,9,,,,,,,,,,,,,,,,12,,62,0
30899,note_on,,14,0,10,,,,,,,,,,,,,,,,13,,53,0
30900,note_on,,1,0,11,,,,,,,,,,,,,,,,15,,53,56
30900,note_on,,61,0,6,,,,,,,,,,,,,,,,6,,62,64
30900,note_on,,1,0,7,,,,,,,,,,,,,,,,10,,74,56
30900,note_on,,1,0,8,,,,,,,,,,,,,,,,11,,69,56
30900,note_on,,1,0,9,,,,,,,,,,,,,,,,12,,62,56
30900,note_on,,1,0,10,,,,,,,,,,,,,,,,13,,53,56
30944,note_on,,44,0,10,,,,,,,,,,,,,,,,13,,53,0
30944,note_on,,44,0,7,,,,,,,,,,,,,,,,10,,74,0
30944,note_on,,44,0,8,,,,,,,,,,,,,,,,11,,69,0
30944,note_on,,44,0,9,,,,,,,,,,,,,,,,12,,62,0
30944,note_on,,44,0,11,,,,,,,,,,,,,,,,15,,53,0
30945,note_on,,1,0,7,,,,,,,,,,,,,,,,10,,74,56
30945,note_on,,1,0,9,,,,,,,,,,,,,,,,12,,62,56
30945,note_on,,1,0,8,,,,,,,,,,,,,,,,11,,69,56
30945,note_on,,1,0,10,,,,,,,,,,,,,,,,13,,53,56
30945,note_on,,1,0,11,,,,,,,,,,,,,,,,15,,53,56
30959,note_on,,59,0,6,,,,,,,,,,,,,,,,6,,62,0
30959,note_on,,14,0,9,,,,,,,,,,,,,,,,12,,62,0
30959,note_on,,14,0,10,,,,,,,,,,,,,,,,13,,53,0
30959,note_on,,14,0,11,,,,,,,,,,,,,,,,15,,69,0
30959,note_on,,0,0,11,,,,,,,,,,,,,,,,15,,57,0
30959,note_on,,0,0,11,,,,,,,,,,,,,,,,15,,62,0
30959,note_on,,0,0,11,,,,,,,,,,,,,,,,15,,53,0
30959,note_on,,14,0,7,,,,,,,,,,,,,,,,10,,74,0
30959,note_on,,14,0,8,,,,,,,,,,,,,,,,11,,69,0
30960,note_on,,1,0,8,,,,,,,,,,,,,,,,11,,67,56
30960,note_on,,1,0,6,,,,,,,,,,,,,,,,6,,67,65
30960,note_on,,1,0,9,,,,,,,,,,,,,,,,12,,55,56
30960,note_on,,1,0,10,,,,,,,,,,,,,,,,13,,51,56
30960,note_on,,1,0,11,,,,,,,,,,,,,,,,15,,72,56
30960,note_on,,1,0,7,,,,,,,,,,,,,,,,10,,72,56
30960,note_on,,0,0,11,,,,,,,,,,,,,,,,15,,51,56
30960,note_on,,0,0,11,,,,,,,,,,,,,,,,15,,67,56
30960,note_on,,0,0,11,,,,,,,,,,,,,,,,15,,55,56
31004,note_on,,44,0,10,,,,,,,,,,,,,,,,13,,51,0
31004,note_on,,44,0,11,,,,,,,,,,,,,,,,15,,51,0
31004,note_on,,44,0,9,,,,,,,,,,,,,,,,12,,55,0
31004,note_on,,44,0,7,,,,,,,,,,,,,,,,10,,72,0
31004,note_on,,44,0,8,,,,,,,,,,,,,,,,11,,67,0
31005,note_on,,1,0,10,,,,,,,,,,,,,,,,13,,51,56
31005,note_on,,1,0,8,,,,,,,,,,,,,,,,11,,67,56
31005,note_on,,1,0,7,,,,,,,,,,,,,,,,10,,72,56
31005,note_on,,1,0,11,,,,,,,,,,,,,,,,15,,51,56
31005,note_on,,1,0,9,,,,,,,,,,,,,,,,12,,55,56
31019,note_on,,14,0,10,,,,,,,,,,,,,,,,13,,51,0
31019,note_on,,14,0,9,,,,,,,,,,,,,,,,12,,55,0
31019,note_on,,14,0,11,,,,,,,,,,,,,,,,15,,51,0
31019,note_on,,14,0,8,,,,,,,,,,,,,,,,11,,67,0
31019,note_on,,14,0,7,,,,,,,,,,,,,,,,10,,72,0
31020,note_on,,1,0,9,,,,,,,,,,,,,,,,12,,55,56
31020,note_on,,1,0,11,,,,,,,,,,,,,,,,15,,51,56
31020,note_on,,1,0,8,,,,,,,,,,,,,,,,11,,67,56
31020,note_on,,1,0,10,,,,,,,,,,,,,,,,13,,51,56
31020,note_on,,1,0,7,,,,,,,,,,,,,,,,10,,72,56
31064,note_on,,44,0,11,,,,,,,,,,,,,,,,15,,51,0
31064,note_on,,44,0,9,,,,,,,,,,,,,,,,12,,55,0
31064,note_on,,44,0,7,,,,,,,,,,,,,,,,10,,72,0
31064,note_on,,44,0,10,,,,,,,,,,,,,,,,13,,51,0
31064,note_on,,44,0,8,,,,,,,,,,,,,,,,11,,67,0
31065,note_on,,1,0,8,,,,,,,,,,,,,,,,11,,67,56
31065,note_on,,1,0,11,,,,,,,,,,,,,,,,15,,51,56
31065,note_on,,1,0,9,,,,,,,,,,,,,,,,12,,55,56
31065,note_on,,1,0,7,,,,,,,,,,,,,,,,10,,72,56
31065,note_on,,1,0,10,,,,,,,,,,,,,,,,13,,51,56
31079,note_on,,14,0,11,,,,,,,,,,,,,,,,15,,72,0
31079,note_on,,0,0,11,,,,,,,,,,,,,,,,15,,55,0
31079,note_on,,0,0,11,,,,,,,,,,,,,,,,15,,67,0
31079,note_on,,0,0,11,,,,,,,,,,,,,,,,15,,51,0
31079,note_on,,14,0,8,,,,,,,,,,,,,,,,11,,67,0
31079,note_on,,14,0,9,,,,,,,,,,,,,,,,12,,55,0
31079,note_on,,14,0,7,,,,,,,,,,,,,,,,10,,72,0
31079,note_on,,14,0,10,,,,,,,,,,,,,,,,13,,51,0
31080,note_on,,1,0,10,,,,,,,,,,,,,,,,13,,50,56
31080,note_on,,0,0,11,,,,,,,,,,,,,,,,15,,62,56
31080,note_on,,0,0,11,,,,,,,,,,,,,,,,15,,50,56
31080,note_on,,0,0,11,,,,,,,,,,,,,,,,15,,67,56
31080,note_on,,1,0,11,,,,,,,,,,,,,,,,15,,55,56
31080,note_on,,1,0,7,,,,,,,,,,,,,,,,10,,70,56
31080,note_on,,1,0,9,,,,,,,,,,,,,,,,12,,62,56
31080,note_on,,1,0,8,,,,,,,,,,,,,,,,11,,67,56
31080,note_on,,0,0,11,,,,,,,,,,,,,,,,15,,70,56
31124,note_on,,44,0,10,,,,,,,,,,,,,,,,13,,50,0
31124,note_on,,44,0,7,,,,,,,,,,,,,,,,10,,70,0
31124,note_on,,44,0,9,,,,,,,,,,,,,,,,12,,62,0
31124,note_on,,44,0,8,,,,,,,,,,,,,,,,11,,67,0
31124,note_on,,44,0,11,,,,,,,,,,,,,,,,15,,50,0
31125,note_on,,1,0,9,,,,,,,,,,,,,,,,12,,62,56
31125,note_on,,1,0,7,,,,,,,,,,,,,,,,10,,70,56
31125,note_on,,1,0,8,,,,,,,,,,,,,,,,11,,67,56
31125,note_on,,1,0,10,,,,,,,,,,,,,,,,13,,50,56
31125,note_on,,1,0,11,,,,,,,,,,,,,,,,15,,50,56
31139,note_on,,14,0,8,,,,,,,,,,,,,,,,11,,67,0
31139,note_on,,14,0,7,,,,,,,,,,,,,,,,10,,70,0
31139,note_on,,14,0,10,,,,,,,,,,,,,,,,13,,50,0
31139,note_on,,14,0,11,,,,,,,,,,,,,,,,15,,50,0
31139,note_on,,14,0,9,,,,,,,,,,,,,,,,12,,62,0
31140,note_on,,1,0,8,,,,,,,,,,,,,,,,11,,67,56
31140,note_on,,1,0,10,,,,,,,,,,,,,,,,13,,50,56
31140,note_on,,1,0,11,,,,,,,,,,,,,,,,15,,50,56
31140,note_on,,1,0,9,,,,,,,,,,,,,,,,12,,62,56
31140,note_on,,1,0,7,,,,,,,,,,,,,,,,10,,70,56
31184,note_on,,44,0,10,,,,,,,,,,,,,,,,13,,50,0
31184,note_on,,44,0,8,,,,,,,,,,,,,,,,11,,67,0
31184,note_on,,44,0,11,,,,,,,,,,,,,,,,15,,50,0
31184,note_on,,44,0,9,,,,,,,,,,,,,,,,12,,62,0
31184,note_on,,44,0,7,,,,,,,,,,,,,,,,10,,70,0
31185,note_on,,1,0,9,,,,,,,,,,,,,,,,12,,62,56
31185,note_on,,1,0,10,,,,,,,,,,,,,,,,13,,50,56
31185,note_on,,1,0,11,,,,,,,,,,,,,,,,15,,50,56
31185,note_on,,1,0,7,,,,,,,,,,,,,,,,10,,70,56
31185,note_on,,1,0,8,,,,,,,,,,,,,,,,11,,67,56
31199,note_on,,14,0,9,,,,,,,,,,,,,,,,12,,62,0
31199,note_on,,0,0,11,,,,,,,,,,,,,,,,15,,70,0
31199,note_on,,14,0,7,,,,,,,,,,,,,,,,10,,70,0
31199,note_on,,14,0,10,,,,,,,,,,,,,,,,13,,50,0
31199,note_on,,14,0,11,,,,,,,,,,,,,,,,15,,55,0
31199,note_on,,0,0,11,,,,,,,,,,,,,,,,15,,67,0
31199,note_on,,0,0,11,,,,,,,,,,,,,,,,15,,62,0
31199,note_on,,0,0,11,,,,,,,,,,,,,,,,15,,50,0
31199,note_on,,14,0,8,,,,,,,,,,,,,,,,11,,67,0
31200,note_on,,1,0,7,,,,,,,,,,,,,,,,10,,69,56
31200,note_on,,1,0,10,,,,,,,,,,,,,,,,13,,49,56
31200,note_on,,1,0,9,,,,,,,,,,,,,,,,12,,64,56
31200,note_on,,0,0,11,,,,,,,,,,,,,,,,15,,49,56
31200,note_on,,0,0,11,,,,,,,,,,,,,,,,15,,64,56
31200,note_on,,0,0,11,,,,,,,,,,,,,,,,15,,69,56
31200,note_on,,0,0,11,,,,,,,,,,,,,,,,15,,67,56
31200,note_on,,1,0,11,,,,,,,,,,,,,,,,15,,55,56
31200,note_on,,1,0,8,,,,,,,,,,,,,,,,11,,67,56
31319,note_on,,119,0,7,,,,,,,,,,,,,,,,10,,69,0
31319,note_on,,0,0,11,,,,,,,,,,,,,,,,15,,49,0
31319,note_on,,0,0,11,,,,,,,,,,,,,,,,15,,64,0
31319,note_on,,0,0,11,,,,,,,,,,,,,,,,15,,69,0
31319,note_on,,0,0,11,,,,,,,,,,,,,,,,15,,67,0
31319,note_on,,119,0,11,,,,,,,,,,,,,,,,15,,55,0
31319,note_on,,119,0,10,,,,,,,,,,,,,,,,13,,49,0
31319,note_on,,119,0,9,,,,,,,,,,,,,,,,12,,64,0
31319,note_on,,359,0,6,,,,,,,,,,,,,,,,6,,67,0
31319,note_on,,119,0,8,,,,,,,,,,,,,,,,11,,67,0
31500,note_on,,181,0,6,,,,,,,,,,,,,,,,6,,67,60
31559,note_on,,59,0,6,,,,,,,,,,,,,,,,6,,67,0
31560,note_on,,1,0,6,,,,,,,,,,,,,,,,6,,66,63
31649,note_on,,89,0,6,,,,,,,,,,,,,,,,6,,66,0
31650,note_on,,1,0,6,,,,,,,,,,,,,,,,6,,67,63
31679,note_on,,29,0,6,,,,,,,,,,,,,,,,6,,67,0
31680,time_signature,,8280,1,0,,,,,,,,,,5,4,24,8,,,,,,
31680,note_on,,1,0,6,,,,,,,,,,,,,,,,6,,62,63
31739,note_on,,59,0,6,,,,,,,,,,,,,,,,6,,62,0
31740,note_on,,1,0,6,,,,,,,,,,,,,,,,6,,62,66
31799,note_on,,59,0,6,,,,,,,,,,,,,,,,6,,62,0
31800,set_tempo,,120,1,0,,,,,,,,,1714285,,,,,,,,,,
31920,note_on,,601,0,11,,,,,,,,,,,,,,,,15,,66,56
31920,note_on,,0,0,11,,,,,,,,,,,,,,,,15,,69,56
31920,set_tempo,,120,1,0,,,,,,,,,1090909,,,,,,,,,,
31920,note_on,,0,0,11,,,,,,,,,,,,,,,,15,,50,56
31920,note_on,,0,0,11,,,,,,,,,,,,,,,,15,,62,56
31920,note_on,,601,0,9,,,,,,,,,,,,,,,,12,,69,56
31920,note_on,,601,0,10,,,,,,,,,,,,,,,,13,,50,56
31920,note_on,,0,0,11,,,,,,,,,,,,,,,,15,,57,56
31920,note_on,,601,0,8,,,,,,,,,,,,,,,,11,,74,56
31920,note_on,,601,0,7,,,,,,,,,,,,,,,,10,,78,56
32039,note_on,,119,0,9,,,,,,,,,,,,,,,,12,,69,0
32039,note_on,,119,0,11,,,,,,,,,,,,,,,,15,,66,0
32039,note_on,,0,0,11,,,,,,,,,,,,,,,,15,,50,0
32039,note_on,,0,0,11,,,,,,,,,,,,,,,,15,,62,0
32039,note_on,,0,0,11,,,,,,,,,,,,,,,,15,,69,0
32039,note_on,,0,0,11,,,,,,,,,,,,,,,,15,,57,0
32039,note_on,,119,0,10,,,,,,,,,,,,,,,,13,,50,0
32039,note_on,,119,0,8,,,,,,,,,,,,,,,,11,,74,0
32039,note_on,,119,0,7,,,,,,,,,,,,,,,,10,,78,0
32040,note_on,,1,0,9,,,,,,,,,,,,,,,,12,,70,56
32040,note_on,,1,0,7,,,,,,,,,,,,,,,,10,,79,56
32040,note_on,,1,0,8,,,,,,,,,,,,,,,,11,,62,56
32040,note_on,,0,0,11,,,,,,,,,,,,,,,,15,,67,56
32040,note_on,,0,0,11,,,,,,,,,,,,,,,,15,,43,56
32040,note_on,,1,0,11,,,,,,,,,,,,,,,,15,,55,56
32040,note_on,,0,0,11,,,,,,,,,,,,,,,,15,,62,56
32040,note_on,,1,0,10,,,,,,,,,,,,,,,,13,,43,56
32040,note_on,,0,0,11,,,,,,,,,,,,,,,,15,,70,56
32159,note_on,,119,0,10,,,,,,,,,,,,,,,,13,,43,0
32159,note_on,,0,0,11,,,,,,,,,,,,,,,,15,,62,0
32159,note_on,,0,0,11,,,,,,,,,,,,,,,,15,,67,0
32159,note_on,,0,0,11,,,,,,,,,,,,,,,,15,,43,0
32159,note_on,,119,0,8,,,,,,,,,,,,,,,,11,,62,0
32159,note_on,,119,0,7,,,,,,,,,,,,,,,,10,,79,0
32159,note_on,,119,0,9,,,,,,,,,,,,,,,,12,,70,0
32159,note_on,,0,0,11,,,,,,,,,,,,,,,,15,,70,0
32159,note_on,,119,0,11,,,,,,,,,,,,,,,,15,,55,0
32280,note_on,,8881,0,5,,,,,,,,,,,,,,,,2,,51,72
32280,time_signature,,360,1,0,,,,,,,,,,4,4,24,8,,,,,,
32280,note_on,,0,0,11,,,,,,,,,,,,,,,,15,,51,64
32280,note_on,,121,0,11,,,,,,,,,,,,,,,,15,,67,64
32280,note_on,,0,0,11,,,,,,,,,,,,,,,,15,,63,64
32280,note_on,,121,0,8,,,,,,,,,,,,,,,,11,,55,72
32280,note_on,,121,0,9,,,,,,,,,,,,,,,,12,,58,72
32280,program_change,,121,0,7,,,,,,,,,,,,,,,,10,48,,
32280,note_on,,0,0,11,,,,,,,,,,,,,,,,15,,58,64
32280,note_on,,121,0,10,,,,,,,,,,,,,,,,13,,51,72
32399,note_on,,119,0,5,,,,,,,,,,,,,,,,2,,51,0
32399,note_on,,119,0,8,,,,,,,,,,,,,,,,11,,55,0
32399,note_on,,119,0,10,,,,,,,,,,,,,,,,13,,51,0
32399,note_on,,119,0,9,,,,,,,,,,,,,,,,12,,58,0
32399,note_on,,119,0,11,,,,,,,,,,,,,,,,15,,51,0
32400,note_on,,1,0,5,,,,,,,,,,,,,,,,2,,39,72
32400,note_on,,1,0,11,,,,,,,,,,,,,,,,15,,39,64
32400,note_on,,1,0,10,,,,,,,,,,,,,,,,13,,39,72
32460,note_on,,180,0,7,,,,,,,,,,,,,,,,10,,58,72
32519,note_on,,0,0,11,,,,,,,,,,,,,,,,15,,39,0
32519,note_on,,0,0,11,,,,,,,,,,,,,,,,15,,58,0
32519,note_on,,119,0,5,,,,,,,,,,,,,,,,2,,39,0
32519,note_on,,119,0,11,,,,,,,,,,,,,,,,15,,67,0
32519,note_on,,0,0,11,,,,,,,,,,,,,,,,15,,63,0
32519,note_on,,119,0,10,,,,,,,,,,,,,,,,13,,39,0
32519,note_on,,59,0,7,,,,,,,,,,,,,,,,10,,58,0
32520,note_on,,1,0,7,,,,,,,,,,,,,,,,10,,63,72
32580,note_on,,61,0,5,,,,,,,,,,,,,,,,2,,43,72
32580,note_on,,181,0,8,,,,,,,,,,,,,,,,11,,58,72
32580,note_on,,61,0,10,,,,,,,,,,,,,,,,13,,43,72
32580,note_on,,0,0,11,,,,,,,,,,,,,,,,15,,63,64
32580,note_on,,0,0,11,,,,,,,,,,,,,,,,15,,70,64
32580,note_on,,0,0,11,,,,,,,,,,,,,,,,15,,43,64
32580,note_on,,61,0,11,,,,,,,,,,,,,,,,15,,58,64
32639,note_on,,59,0,5,,,,,,,,,,,,,,,,2,,43,0
32639,note_on,,0,0,11,,,,,,,,,,,,,,,,15,,43,0
32639,note_on,,0,0,11,,,,,,,,,,,,,,,,15,,63,0
32639,note_on,,0,0,11,,,,,,,,,,,,,,,,15,,70,0
32639,note_on,,59,0,10,,,,,,,,,,,,,,,,13,,43,0
32639,note_on,,59,0,8,,,,,,,,,,,,,,,,11,,58,0
32639,note_on,,59,0,11,,,,,,,,,,,,,,,,15,,58,0
32640,note_on,,1,0,11,,,,,,,,,,,,,,,,15,,60,64
32640,note_on,,0,0,11,,,,,,,,,,,,,,,,15,,63,64
32640,note_on,,0,0,11,,,,,,,,,,,,,,,,15,,65,64
32640,note_on,,0,0,11,,,,,,,,,,,,,,,,15,,44,64
32640,note_on,,1,0,10,,,,,,,,,,,,,,,,13,,44,72
32640,note_on,,1,0,8,,,,,,,,,,,,,,,,11,,65,72
32640,note_on,,1,0,5,,,,,,,,,,,,,,,,2,,44,72
32699,note_on,,179,0,7,,,,,,,,,,,,,,,,10,,63,0
32699,note_on,,59,0,5,,,,,,,,,,,,,,,,2,,44,0
32699,note_on,,0,0,11,,,,,,,,,,,,,,,,15,,44,0
32699,note_on,,0,0,11,,,,,,,,,,,,,,,,15,,63,0
32699,note_on,,59,0,11,,,,,,,,,,,,,,,,15,,60,0
32699,note_on,,59,0,10,,,,,,,,,,,,,,,,13,,44,0
32700,note_on,,0,0,11,,,,,,,,,,,,,,,,15,,62,64
32700,note_on,,1,0,11,,,,,,,,,,,,,,,,15,,46,64
32700,note_on,,0,0,11,,,,,,,,,,,,,,,,15,,58,64
32700,note_on,,1,0,10,,,,,,,,,,,,,,,,13,,46,72
32700,note_on,,1,0,7,,,,,,,,,,,,,,,,10,,62,72
32700,note_on,,1,0,5,,,,,,,,,,,,,,,,2,,46,72
32700,note_on,,301,0,9,,,,,,,,,,,,,,,,12,,58,72
32759,note_on,,0,0,11,,,,,,,,,,,,,,,,15,,62,0
32759,note_on,,59,0,9,,,,,,,,,,,,,,,,12,,58,0
32759,note_on,,59,0,11,,,,,,,,,,,,,,,,15,,65,0
32759,note_on,,0,0,11,,,,,,,,,,,,,,,,15,,46,0
32759,note_on,,0,0,11,,,,,,,,,,,,,,,,15,,58,0
32759,note_on,,59,0,7,,,,,,,,,,,,,,,,10,,62,0
32759,note_on,,119,0,8,,,,,,,,,,,,,,,,11,,65,0
32759,note_on,,59,0,10,,,,,,,,,,,,,,,,13,,46,0
32759,note_on,,59,0,5,,,,,,,,,,,,,,,,2,,46,0
32760,note_on,,1,0,7,,,,,,,,,,,,,,,,10,,67,72
32760,note_on,,0,0,11,,,,,,,,,,,,,,,,15,,58,64
32760,note_on,,0,0,11,,,,,,,,,,,,,,,,15,,67,64
32760,note_on,,1,0,8,,,,,,,,,,,,,,,,11,,63,72
32760,note_on,,0,0,11,,,,,,,,,,,,,,,,15,,51,64
32760,note_on,,1,0,11,,,,,,,,,,,,,,,,15,,63,64
32760,note_on,,1,0,10,,,,,,,,,,,,,,,,13,,51,72
32760,note_on,,1,0,5,,,,,,,,,,,,,,,,2,,51,72
32760,note_on,,1,0,9,,,,,,,,,,,,,,,,12,,58,72
32819,note_on,,0,0,11,,,,,,,,,,,,,,,,15,,67,0
32819,note_on,,59,0,7,,,,,,,,,,,,,,,,10,,67,0
32819,note_on,,59,0,9,,,,,,,,,,,,,,,,12,,58,0
32819,note_on,,59,0,10,,,,,,,,,,,,,,,,13,,51,0
32819,note_on,,59,0,8,,,,,,,,,,,,,,,,11,,63,0
32819,note_on,,59,0,11,,,,,,,,,,,,,,,,15,,63,0
32819,note_on,,59,0,5,,,,,,,,,,,,,,,,2,,51,0
32819,note_on,,0,0,11,,,,,,,,,,,,,,,,15,,51,0
32819,note_on,,0,0,11,,,,,,,,,,,,,,,,15,,58,0
32820,note_on,,1,0,10,,,,,,,,,,,,,,,,13,,46,72
32820,note_on,,0,0,11,,,,,,,,,,,,,,,,15,,58,64
32820,note_on,,0,0,11,,,,,,,,,,,,,,,,15,,62,64
32820,note_on,,1,0,9,,,,,,,,,,,,,,,,12,,58,72
32820,note_on,,0,0,11,,,,,,,,,,,,,,,,15,,46,64
32820,note_on,,1,0,5,,,,,,,,,,,,,,,,2,,46,72
32820,note_on,,1,0,11,,,,,,,,,,,,,,,,15,,65,64
32820,note_on,,1,0,7,,,,,,,,,,,,,,,,10,,65,72
32820,note_on,,1,0,8,,,,,,,,,,,,,,,,11,,62,72
32879,note_on,,0,0,11,,,,,,,,,,,,,,,,15,,62,0
32879,note_on,,59,0,5,,,,,,,,,,,,,,,,2,,46,0
32879,note_on,,0,0,11,,,,,,,,,,,,,,,,15,,46,0
32879,note_on,,0,0,11,,,,,,,,,,,,,,,,15,,58,0
32879,note_on,,59,0,11,,,,,,,,,,,,,,,,15,,65,0
32879,note_on,,59,0,9,,,,,,,,,,,,,,,,12,,58,0
32879,note_on,,59,0,8,,,,,,,,,,,,,,,,11,,62,0
32879,note_on,,59,0,7,,,,,,,,,,,,,,,,10,,65,0
32879,note_on,,59,0,10,,,,,,,,,,,,,,,,13,,46,0
32940,note_on,,61,0,8,,,,,,,,,,,,,,,,11,,79,48
32940,note_on,,61,0,7,,,,,,,,,,,,,,,,10,,82,48
32999,note_on,,59,0,8,,,,,,,,,,,,,,,,11,,79,0
32999,note_on,,59,0,7,,,,,,,,,,,,,,,,10,,82,0
33000,note_on,,1,0,8,,,,,,,,,,,,,,,,11,,77,48
33000,note_on,,1,0,7,,,,,,,,,,,,,,,,10,,80,48
33014,note_on,,14,0,8,,,,,,,,,,,,,,,,11,,77,0
33014,note_on,,14,0,7,,,,,,,,,,,,,,,,10,,80,0
33015,note_on,,1,0,8,,,,,,,,,,,,,,,,11,,79,48
33015,note_on,,1,0,7,,,,,,,,,,,,,,,,10,,82,48
33029,note_on,,14,0,7,,,,,,,,,,,,,,,,10,,82,0
33029,note_on,,14,0,8,,,,,,,,,,,,,,,,11,,79,0
33030,note_on,,1,0,7,,,,,,,,,,,,,,,,10,,79,48
33030,note_on,,1,0,8,,,,,,,,,,,,,,,,11,,75,48
33044,note_on,,14,0,7,,,,,,,,,,,,,,,,10,,79,0
33044,note_on,,14,0,8,,,,,,,,,,,,,,,,11,,75,0
33045,note_on,,1,0,7,,,,,,,,,,,,,,,,10,,80,48
33045,note_on,,1,0,8,,,,,,,,,,,,,,,,11,,77,48
33059,note_on,,14,0,8,,,,,,,,,,,,,,,,11,,77,0
33059,note_on,,14,0,7,,,,,,,,,,,,,,,,10,,80,0
33060,note_on,,1,0,8,,,,,,,,,,,,,,,,11,,75,48
33060,note_on,,1,0,7,,,,,,,,,,,,,,,,10,,79,48
33119,note_on,,59,0,8,,,,,,,,,,,,,,,,11,,75,0
33119,note_on,,59,0,7,,,,,,,,,,,,,,,,10,,79,0
33180,note_on,,61,0,7,,,,,,,,,,,,,,,,10,,80,48
33180,note_on,,61,0,8,,,,,,,,,,,,,,,,11,,77,48
33239,note_on,,59,0,7,,,,,,,,,,,,,,,,10,,80,0
33239,note_on,,59,0,8,,,,,,,,,,,,,,,,11,,77,0
33240,note_on,,1,0,7,,,,,,,,,,,,,,,,10,,79,48
33240,note_on,,1,0,8,,,,,,,,,,,,,,,,11,,75,48
33254,note_on,,14,0,7,,,,,,,,,,,,,,,,10,,79,0
33254,note_on,,14,0,8,,,,,,,,,,,,,,,,11,,75,0
33255,note_on,,1,0,8,,,,,,,,,,,,,,,,11,,77,48
33255,note_on,,1,0,7,,,,,,,,,,,,,,,,10,,80,48
33269,note_on,,14,0,8,,,,,,,,,,,,,,,,11,,77,0
33269,note_on,,14,0,7,,,,,,,,,,,,,,,,10,,80,0
33270,note_on,,1,0,8,,,,,,,,,,,,,,,,11,,74,48
33270,note_on,,1,0,7,,,,,,,,,,,,,,,,10,,77,48
33284,note_on,,14,0,7,,,,,,,,,,,,,,,,10,,77,0
33284,note_on,,14,0,8,,,,,,,,,,,,,,,,11,,74,0
33285,note_on,,1,0,7,,,,,,,,,,,,,,,,10,,79,48
33285,note_on,,1,0,8,,,,,,,,,,,,,,,,11,,75,48
33299,note_on,,14,0,7,,,,,,,,,,,,,,,,10,,79,0
33299,note_on,,14,0,8,,,,,,,,,,,,,,,,11,,75,0
33300,note_on,,1,0,7,,,,,,,,,,,,,,,,10,,77,48
33300,note_on,,1,0,8,,,,,,,,,,,,,,,,11,,74,48
33359,note_on,,59,0,7,,,,,,,,,,,,,,,,10,,77,0
33359,note_on,,59,0,8,,,,,,,,,,,,,,,,11,,74,0
33420,note_on,,541,0,10,,,,,,,,,,,,,,,,13,,46,72
33420,note_on,,541,0,5,,,,,,,,,,,,,,,,2,,46,72
33420,note_on,,61,0,8,,,,,,,,,,,,,,,,11,,67,72
33420,note_on,,0,0,11,,,,,,,,,,,,,,,,15,,58,64
33420,note_on,,541,0,9,,,,,,,,,,,,,,,,12,,62,72
33420,note_on,,61,0,7,,,,,,,,,,,,,,,,10,,67,72
33420,note_on,,541,0,11,,,,,,,,,,,,,,,,15,,62,64
33420,note_on,,0,0,11,,,,,,,,,,,,,,,,15,,46,64
33479,note_on,,59,0,11,,,,,,,,,,,,,,,,15,,62,0
33479,note_on,,0,0,11,,,,,,,,,,,,,,,,15,,46,0
33479,note_on,,0,0,11,,,,,,,,,,,,,,,,15,,58,0
33479,note_on,,59,0,10,,,,,,,,,,,,,,,,13,,46,0
33479,note_on,,59,0,8,,,,,,,,,,,,,,,,11,,67,0
33479,note_on,,59,0,5,,,,,,,,,,,,,,,,2,,46,0
33479,note_on,,59,0,9,,,,,,,,,,,,,,,,12,,62,0
33479,note_on,,59,0,7,,,,,,,,,,,,,,,,10,,67,0
33480,note_on,,1,0,9,,,,,,,,,,,,,,,,12,,63,72
33480,note_on,,1,0,8,,,,,,,,,,,,,,,,11,,68,72
33480,note_on,,1,0,7,,,,,,,,,,,,,,,,10,,68,72
33480,note_on,,0,0,11,,,,,,,,,,,,,,,,15,,48,64
33480,note_on,,0,0,11,,,,,,,,,,,,,,,,15,,63,64
33480,note_on,,1,0,5,,,,,,,,,,,,,,,,2,,48,72
33480,note_on,,1,0,10,,,,,,,,,,,,,,,,13,,48,72
33480,note_on,,1,0,11,,,,,,,,,,,,,,,,15,,56,64
33539,note_on,,0,0,11,,,,,,,,,,,,,,,,15,,48,0
33539,note_on,,0,0,11,,,,,,,,,,,,,,,,15,,63,0
33539,note_on,,59,0,9,,,,,,,,,,,,,,,,12,,63,0
33539,note_on,,59,0,11,,,,,,,,,,,,,,,,15,,56,0
33539,note_on,,59,0,7,,,,,,,,,,,,,,,,10,,68,0
33539,note_on,,59,0,5,,,,,,,,,,,,,,,,2,,48,0
33539,note_on,,59,0,10,,,,,,,,,,,,,,,,13,,48,0
33539,note_on,,59,0,8,,,,,,,,,,,,,,,,11,,68,0
33540,note_on,,1,0,5,,,,,,,,,,,,,,,,2,,50,72
33540,note_on,,1,0,7,,,,,,,,,,,,,,,,10,,67,72
33540,note_on,,1,0,8,,,,,,,,,,,,,,,,11,,67,72
33540,note_on,,1,0,10,,,,,,,,,,,,,,,,13,,50,72
33540,note_on,,0,0,11,,,,,,,,,,,,,,,,15,,53,64
33540,note_on,,0,0,11,,,,,,,,,,,,,,,,15,,50,64
33540,note_on,,1,0,11,,,,,,,,,,,,,,,,15,,65,64
33540,note_on,,1,0,9,,,,,,,,,,,,,,,,12,,58,72
33569,note_on,,29,0,7,,,,,,,,,,,,,,,,10,,67,0
33569,note_on,,29,0,8,,,,,,,,,,,,,,,,11,,67,0
33570,note_on,,1,0,7,,,,,,,,,,,,,,,,10,,65,72
33570,note_on,,1,0,8,,,,,,,,,,,,,,,,11,,65,72
33599,note_on,,29,0,8,,,,,,,,,,,,,,,,11,,65,0
33599,note_on,,0,0,11,,,,,,,,,,,,,,,,15,,50,0
33599,note_on,,0,0,11,,,,,,,,,,,,,,,,15,,53,0
33599,note_on,,59,0,11,,,,,,,,,,,,,,,,15,,65,0
33599,note_on,,29,0,7,,,,,,,,,,,,,,,,10,,65,0
33599,note_on,,59,0,5,,,,,,,,,,,,,,,,2,,50,0
33599,note_on,,59,0,10,,,,,,,,,,,,,,,,13,,50,0
33599,note_on,,59,0,9,,,,,,,,,,,,,,,,12,,58,0
33600,note_on,,1,0,11,,,,,,,,,,,,,,,,15,,55,64
33600,note_on,,0,0,11,,,,,,,,,,,,,,,,15,,58,64
33600,note_on,,1,0,7,,,,,,,,,,,,,,,,10,,67,72
33600,note_on,,1,0,5,,,,,,,,,,,,,,,,2,,51,72
33600,note_on,,1,0,8,,,,,,,,,,,,,,,,11,,67,72
33600,note_on,,1,0,10,,,,,,,,,,,,,,,,13,,51,72
33600,note_on,,0,0,11,,,,,,,,,,,,,,,,15,,51,64
33600,note_on,,1,0,9,,,,,,,,,,,,,,,,12,,58,72
33659,note_on,,59,0,10,,,,,,,,,,,,,,,,13,,51,0
33659,note_on,,59,0,7,,,,,,,,,,,,,,,,10,,67,0
33659,note_on,,0,0,11,,,,,,,,,,,,,,,,15,,51,0
33659,note_on,,59,0,5,,,,,,,,,,,,,,,,2,,51,0
33659,note_on,,59,0,8,,,,,,,,,,,,,,,,11,,67,0
33659,note_on,,0,0,11,,,,,,,,,,,,,,,,15,,58,0
33659,note_on,,59,0,11,,,,,,,,,,,,,,,,15,,55,0
33659,note_on,,59,0,9,,,,,,,,,,,,,,,,12,,58,0
33660,note_on,,1,0,5,,,,,,,,,,,,,,,,2,,44,72
33660,note_on,,1,0,9,,,,,,,,,,,,,,,,12,,60,72
33660,note_on,,1,0,7,,,,,,,,,,,,,,,,10,,63,72
33660,note_on,,1,0,8,,,,,,,,,,,,,,,,11,,63,72
33660,note_on,,1,0,10,,,,,,,,,,,,,,,,13,,44,72
33660,note_on,,1,0,11,,,,,,,,,,,,,,,,15,,60,64
33660,note_on,,0,0,11,,,,,,,,,,,,,,,,15,,56,64
33660,note_on,,0,0,11,,,,,,,,,,,,,,,,15,,44,64
33660,note_on,,0,0,11,,,,,,,,,,,,,,,,15,,63,64
33719,note_on,,59,0,8,,,,,,,,,,,,,,,,11,,63,0
33719,note_on,,59,0,7,,,,,,,,,,,,,,,,10,,63,0
33719,note_on,,0,0,11,,,,,,,,,,,,,,,,15,,63,0
33719,note_on,,59,0,5,,,,,,,,,,,,,,,,2,,44,0
33719,note_on,,0,0,11,,,,,,,,,,,,,,,,15,,56,0
33719,note_on,,0,0,11,,,,,,,,,,,,,,,,15,,44,0
33719,note_on,,59,0,10,,,,,,,,,,,,,,,,13,,44,0
33719,note_on,,59,0,11,,,,,,,,,,,,,,,,15,,60,0
33719,note_on,,59,0,9,,,,,,,,,,,,,,,,12,,60,0
33720,note_on,,1,0,9,,,,,,,,,,,,,,,,12,,53,72
33720,note_on,,1,0,5,,,,,,,,,,,,,,,,2,,46,72
33720,note_on,,0,0,11,,,,,,,,,,,,,,,,15,,53,64
33720,note_on,,0,0,11,,,,,,,,,,,,,,,,15,,58,64
33720,note_on,,1,0,10,,,,,,,,,,,,,,,,13,,46,72
33720,note_on,,0,0,11,,,,,,,,,,,,,,,,15,,62,64
33720,note_on,,1,0,7,,,,,,,,,,,,,,,,10,,62,72
33720,note_on,,1,0,8,,,,,,,,,,,,,,,,11,,62,72
33720,note_on,,1,0,11,,,,,,,,,,,,,,,,15,,46,64
33779,note_on,,59,0,10,,,,,,,,,,,,,,,,13,,46,0
33779,note_on,,59,0,11,,,,,,,,,,,,,,,,15,,46,0
33779,note_on,,59,0,7,,,,,,,,,,,,,,,,10,,62,0
33779,note_on,,59,0,5,,,,,,,,,,,,,,,,2,,46,0
33779,note_on,,0,0,11,,,,,,,,,,,,,,,,15,,53,0
33779,note_on,,0,0,11,,,,,,,,,,,,,,,,15,,58,0
33779,note_on,,0,0,11,,,,,,,,,,,,,,,,15,,62,0
33779,note_on,,59,0,8,,,,,,,,,,,,,,,,11,,62,0
33779,note_on,,59,0,9,,,,,,,,,,,,,,,,12,,53,0
33780,note_on,,1,0,5,,,,,,,,,,,,,,,,2,,39,72
33780,note_on,,1,0,7,,,,,,,,,,,,,,,,10,,63,72
33780,note_on,,1,0,10,,,,,,,,,,,,,,,,13,,39,72
33780,note_on,,0,0,11,,,,,,,,,,,,,,,,15,,63,64
33780,note_on,,0,0,11,,,,,,,,,,,,,,,,15,,58,64
33780,note_on,,1,0,11,,,,,,,,,,,,,,,,15,,39,64
33780,note_on,,1,0,8,,,,,,,,,,,,,,,,11,,63,72
33780,note_on,,0,0,11,,,,,,,,,,,,,,,,15,,55,64
33780,note_on,,1,0,9,,,,,,,,,,,,,,,,12,,55,72
33839,note_on,,59,0,8,,,,,,,,,,,,,,,,11,,63,0
33839,note_on,,59,0,10,,,,,,,,,,,,,,,,13,,39,0
33839,note_on,,59,0,11,,,,,,,,,,,,,,,,15,,39,0
33839,note_on,,0,0,11,,,,,,,,,,,,,,,,15,,58,0
33839,note_on,,0,0,11,,,,,,,,,,,,,,,,15,,55,0
33839,note_on,,59,0,5,,,,,,,,,,,,,,,,2,,39,0
33839,note_on,,59,0,9,,,,,,,,,,,,,,,,12,,55,0
33839,note_on,,0,0,11,,,,,,,,,,,,,,,,15,,63,0
33839,note_on,,59,0,7,,,,,,,,,,,,,,,,10,,63,0
33900,note_on,,61,0,7,,,,,,,,,,,,,,,,10,,75,48
33900,note_on,,61,0,8,,,,,,,,,,,,,,,,11,,72,48
33959,note_on,,59,0,8,,,,,,,,,,,,,,,,11,,72,0
33959,note_on,,59,0,7,,,,,,,,,,,,,,,,10,,75,0
33960,note_on,,1,0,8,,,,,,,,,,,,,,,,11,,70,48
33960,note_on,,1,0,7,,,,,,,,,,,,,,,,10,,73,48
33974,note_on,,14,0,8,,,,,,,,,,,,,,,,11,,70,0
33974,note_on,,14,0,7,,,,,,,,,,,,,,,,10,,73,0
33975,note_on,,1,0,7,,,,,,,,,,,,,,,,10,,75,48
33975,note_on,,1,0,8,,,,,,,,,,,,,,,,11,,72,48
33989,note_on,,14,0,8,,,,,,,,,,,,,,,,11,,72,0
33989,note_on,,14,0,7,,,,,,,,,,,,,,,,10,,75,0
33990,note_on,,1,0,8,,,,,,,,,,,,,,,,11,,68,48
33990,note_on,,1,0,7,,,,,,,,,,,,,,,,10,,72,48
34004,note_on,,14,0,7,,,,,,,,,,,,,,,,10,,72,0
34004,note_on,,14,0,8,,,,,,,,,,,,,,,,11,,68,0
34005,note_on,,1,0,7,,,,,,,,,,,,,,,,10,,73,48
34005,note_on,,1,0,8,,,,,,,,,,,,,,,,11,,70,48
34019,note_on,,14,0,7,,,,,,,,,,,,,,,,10,,73,0
34019,note_on,,14,0,8,,,,,,,,,,,,,,,,11,,70,0
34020,note_on,,1,0,7,,,,,,,,,,,,,,,,10,,72,48
34020,note_on,,1,0,8,,,,,,,,,,,,,,,,11,,68,48
34079,note_on,,59,0,7,,,,,,,,,,,,,,,,10,,72,0
34079,note_on,,59,0,8,,,,,,,,,,,,,,,,11,,68,0
34140,note_on,,61,0,7,,,,,,,,,,,,,,,,10,,73,48
34140,note_on,,61,0,8,,,,,,,,,,,,,,,,11,,70,48
34199,note_on,,59,0,8,,,,,,,,,,,,,,,,11,,70,0
34199,note_on,,59,0,7,,,,,,,,,,,,,,,,10,,73,0
34200,note_on,,1,0,7,,,,,,,,,,,,,,,,10,,72,48
34200,note_on,,1,0,8,,,,,,,,,,,,,,,,11,,68,48
34214,note_on,,14,0,8,,,,,,,,,,,,,,,,11,,68,0
34214,note_on,,14,0,7,,,,,,,,,,,,,,,,10,,72,0
34215,note_on,,1,0,8,,,,,,,,,,,,,,,,11,,70,48
34215,note_on,,1,0,7,,,,,,,,,,,,,,,,10,,74,48
34229,note_on,,14,0,8,,,,,,,,,,,,,,,,11,,70,0
34229,note_on,,14,0,7,,,,,,,,,,,,,,,,10,,74,0
34230,note_on,,1,0,8,,,,,,,,,,,,,,,,11,,67,48
34230,note_on,,1,0,7,,,,,,,,,,,,,,,,10,,70,48
34244,note_on,,14,0,8,,,,,,,,,,,,,,,,11,,67,0
34244,note_on,,14,0,7,,,,,,,,,,,,,,,,10,,70,0
34245,note_on,,1,0,8,,,,,,,,,,,,,,,,11,,68,48
34245,note_on,,1,0,7,,,,,,,,,,,,,,,,10,,72,48
34259,note_on,,14,0,8,,,,,,,,,,,,,,,,11,,68,0
34259,note_on,,14,0,7,,,,,,,,,,,,,,,,10,,72,0
34260,note_on,,1,0,7,,,,,,,,,,,,,,,,10,,70,48
34260,note_on,,1,0,8,,,,,,,,,,,,,,,,11,,67,48
34319,note_on,,59,0,8,,,,,,,,,,,,,,,,11,,67,0
34319,note_on,,59,0,7,,,,,,,,,,,,,,,,10,,70,0
34380,note_on,,0,0,11,,,,,,,,,,,,,,,,15,,62,64
34380,note_on,,61,0,8,,,,,,,,,,,,,,,,11,,62,72
34380,note_on,,61,0,7,,,,,,,,,,,,,,,,10,,65,72
34380,note_on,,541,0,10,,,,,,,,,,,,,,,,13,,46,72
34380,note_on,,0,0,11,,,,,,,,,,,,,,,,15,,46,64
34380,note_on,,541,0,11,,,,,,,,,,,,,,,,15,,58,64
34380,note_on,,541,0,9,,,,,,,,,,,,,,,,12,,58,72
34380,note_on,,541,0,5,,,,,,,,,,,,,,,,2,,46,72
34380,note_on,,0,0,11,,,,,,,,,,,,,,,,15,,65,64
34439,note_on,,59,0,8,,,,,,,,,,,,,,,,11,,62,0
34439,note_on,,0,0,11,,,,,,,,,,,,,,,,15,,65,0
34439,note_on,,0,0,11,,,,,,,,,,,,,,,,15,,62,0
34439,note_on,,0,0,11,,,,,,,,,,,,,,,,15,,46,0
34439,note_on,,59,0,10,,,,,,,,,,,,,,,,13,,46,0
34439,note_on,,59,0,5,,,,,,,,,,,,,,,,2,,46,0
34439,note_on,,59,0,9,,,,,,,,,,,,,,,,12,,58,0
34439,note_on,,59,0,11,,,,,,,,,,,,,,,,15,,58,0
34439,note_on,,59,0,7,,,,,,,,,,,,,,,,10,,65,0
34440,note_on,,1,0,9,,,,,,,,,,,,,,,,12,,58,72
34440,note_on,,0,0,11,,,,,,,,,,,,,,,,15,,63,64
34440,note_on,,0,0,11,,,,,,,,,,,,,,,,15,,58,64
34440,note_on,,1,0,8,,,,,,,,,,,,,,,,11,,63,72
34440,note_on,,1,0,10,,,,,,,,,,,,,,,,13,,51,72
34440,note_on,,1,0,7,,,,,,,,,,,,,,,,10,,67,72
34440,note_on,,1,0,5,,,,,,,,,,,,,,,,2,,51,72
34440,note_on,,1,0,11,,,,,,,,,,,,,,,,15,,51,64
34440,note_on,,0,0,11,,,,,,,,,,,,,,,,15,,67,64
34499,note_on,,59,0,11,,,,,,,,,,,,,,,,15,,51,0
34499,note_on,,59,0,8,,,,,,,,,,,,,,,,11,,63,0
34499,note_on,,59,0,9,,,,,,,,,,,,,,,,12,,58,0
34499,note_on,,59,0,10,,,,,,,,,,,,,,,,13,,51,0
34499,note_on,,59,0,7,,,,,,,,,,,,,,,,10,,67,0
34499,note_on,,59,0,5,,,,,,,,,,,,,,,,2,,51,0
34500,note_on,,1,0,11,,,,,,,,,,,,,,,,15,,39,64
34500,note_on,,1,0,7,,,,,,,,,,,,,,,,10,,68,72
34500,note_on,,1,0,8,,,,,,,,,,,,,,,,11,,65,72
34500,note_on,,1,0,5,,,,,,,,,,,,,,,,2,,39,72
34500,note_on,,1,0,10,,,,,,,,,,,,,,,,13,,39,72
34500,note_on,,1,0,9,,,,,,,,,,,,,,,,12,,63,72
34529,note_on,,29,0,7,,,,,,,,,,,,,,,,10,,68,0
34529,note_on,,29,0,8,,,,,,,,,,,,,,,,11,,65,0
34530,note_on,,1,0,8,,,,,,,,,,,,,,,,11,,67,72
34530,note_on,,1,0,7,,,,,,,,,,,,,,,,10,,70,72
34559,note_on,,59,0,11,,,,,,,,,,,,,,,,15,,63,0
34559,note_on,,0,0,11,,,,,,,,,,,,,,,,15,,39,0
34559,note_on,,0,0,11,,,,,,,,,,,,,,,,15,,58,0
34559,note_on,,0,0,11,,,,,,,,,,,,,,,,15,,67,0
34559,note_on,,59,0,9,,,,,,,,,,,,,,,,12,,63,0
34559,note_on,,29,0,7,,,,,,,,,,,,,,,,10,,70,0
34559,note_on,,59,0,5,,,,,,,,,,,,,,,,2,,39,0
34559,note_on,,59,0,10,,,,,,,,,,,,,,,,13,,39,0
34559,note_on,,29,0,8,,,,,,,,,,,,,,,,11,,67,0
34560,note_on,,1,0,8,,,,,,,,,,,,,,,,11,,65,72
34560,note_on,,1,0,7,,,,,,,,,,,,,,,,10,,68,72
34560,note_on,,1,0,10,,,,,,,,,,,,,,,,13,,44,72
34560,note_on,,0,0,11,,,,,,,,,,,,,,,,15,,68,64
34560,note_on,,1,0,5,,,,,,,,,,,,,,,,2,,44,72
34560,note_on,,0,0,11,,,,,,,,,,,,,,,,15,,44,64
34560,note_on,,0,0,11,,,,,,,,,,,,,,,,15,,63,64
34560,note_on,,1,0,9,,,,,,,,,,,,,,,,12,,60,72
34560,note_on,,1,0,11,,,,,,,,,,,,,,,,15,,60,64
34619,note_on,,59,0,7,,,,,,,,,,,,,,,,10,,68,0
34619,note_on,,59,0,5,,,,,,,,,,,,,,,,2,,44,0
34619,note_on,,59,0,8,,,,,,,,,,,,,,,,11,,65,0
34619,note_on,,59,0,9,,,,,,,,,,,,,,,,12,,60,0
34619,note_on,,59,0,10,,,,,,,,,,,,,,,,13,,44,0
34619,note_on,,59,0,11,,,,,,,,,,,,,,,,15,,60,0
34619,note_on,,0,0,11,,,,,,,,,,,,,,,,15,,44,0
34619,note_on,,0,0,11,,,,,,,,,,,,,,,,15,,68,0
34620,note_on,,1,0,11,,,,,,,,,,,,,,,,15,,51,64
34620,note_on,,1,0,7,,,,,,,,,,,,,,,,10,,67,72
34620,note_on,,1,0,10,,,,,,,,,,,,,,,,13,,51,72
34620,note_on,,1,0,9,,,,,,,,,,,,,,,,12,,58,72
34620,note_on,,1,0,5,,,,,,,,,,,,,,,,2,,51,72
34620,note_on,,0,0,11,,,,,,,,,,,,,,,,15,,67,64
34620,note_on,,0,0,11,,,,,,,,,,,,,,,,15,,58,64
34620,note_on,,1,0,8,,,,,,,,,,,,,,,,11,,63,72
34679,note_on,,59,0,7,,,,,,,,,,,,,,,,10,,67,0
34679,note_on,,59,0,5,,,,,,,,,,,,,,,,2,,51,0
34679,note_on,,0,0,11,,,,,,,,,,,,,,,,15,,58,0
34679,note_on,,0,0,11,,,,,,,,,,,,,,,,15,,51,0
34679,note_on,,59,0,10,,,,,,,,,,,,,,,,13,,51,0
34679,note_on,,59,0,11,,,,,,,,,,,,,,,,15,,63,0
34679,note_on,,0,0,11,,,,,,,,,,,,,,,,15,,67,0
34679,note_on,,59,0,8,,,,,,,,,,,,,,,,11,,63,0
34679,note_on,,59,0,9,,,,,,,,,,,,,,,,12,,58,0
34680,note_on,,1,0,5,,,,,,,,,,,,,,,,2,,58,72
34680,note_on,,1,0,10,,,,,,,,,,,,,,,,13,,58,72
34680,note_on,,1,0,8,,,,,,,,,,,,,,,,11,,62,72
34680,note_on,,1,0,7,,,,,,,,,,,,,,,,10,,65,72
34680,note_on,,0,0,11,,,,,,,,,,,,,,,,15,,65,64
34680,note_on,,0,0,11,,,,,,,,,,,,,,,,15,,58,64
34680,note_on,,1,0,11,,,,,,,,,,,,,,,,15,,62,64
34680,note_on,,1,0,9,,,,,,,,,,,,,,,,12,,58,72
34680,note_on,,0,0,11,,,,,,,,,,,,,,,,15,,58,64
34739,note_on,,59,0,5,,,,,,,,,,,,,,,,2,,58,0
34739,note_on,,59,0,11,,,,,,,,,,,,,,,,15,,58,0
34739,note_on,,59,0,10,,,,,,,,,,,,,,,,13,,58,0
34740,note_on,,1,0,11,,,,,,,,,,,,,,,,15,,46,64
34740,note_on,,1,0,10,,,,,,,,,,,,,,,,13,,46,72
34740,note_on,,1,0,5,,,,,,,,,,,,,,,,2,,46,72
34799,note_on,,119,0,7,,,,,,,,,,,,,,,,10,,65,0
34799,note_on,,119,0,8,,,,,,,,,,,,,,,,11,,62,0
34799,note_on,,59,0,5,,,,,,,,,,,,,,,,2,,46,0
34799,note_on,,59,0,10,,,,,,,,,,,,,,,,13,,46,0
34799,note_on,,119,0,9,,,,,,,,,,,,,,,,12,,58,0
34799,note_on,,59,0,11,,,,,,,,,,,,,,,,15,,62,0
34799,note_on,,0,0,11,,,,,,,,,,,,,,,,15,,58,0
34799,note_on,,0,0,11,,,,,,,,,,,,,,,,15,,65,0
34799,note_on,,0,0,11,,,,,,,,,,,,,,,,15,,46,0
34800,note_on,,1,0,11,,,,,,,,,,,,,,,,15,,58,48
34800,note_on,,1,0,5,,,,,,,,,,,,,,,,2,,58,48
34800,note_on,,1,0,10,,,,,,,,,,,,,,,,13,,58,48
34860,note_on,,60,0,11,,,,,,,,,,,,,,,,15,,62,48
34860,note_on,,0,0,11,,,,,,,,,,,,,,,,15,,65,48
34860,note_on,,61,0,7,,,,,,,,,,,,,,,,10,,82,48
34860,note_on,,0,0,11,,,,,,,,,,,,,,,,15,,74,48
34919,note_on,,59,0,11,,,,,,,,,,,,,,,,15,,62,0
34919,note_on,,59,0,7,,,,,,,,,,,,,,,,10,,82,0
34919,note_on,,0,0,11,,,,,,,,,,,,,,,,15,,65,0
34920,note_on,,1,0,11,,,,,,,,,,,,,,,,15,,66,48
34920,note_on,,0,0,11,,,,,,,,,,,,,,,,15,,63,48
34920,note_on,,1,0,7,,,,,,,,,,,,,,,,10,,78,48
34979,note_on,,59,0,11,,,,,,,,,,,,,,,,15,,66,0
34979,note_on,,0,0,11,,,,,,,,,,,,,,,,15,,63,0
34979,note_on,,59,0,7,,,,,,,,,,,,,,,,10,,78,0
34980,note_on,,1,0,7,,,,,,,,,,,,,,,,10,,74,48
34980,note_on,,1,0,11,,,,,,,,,,,,,,,,15,,65,48
34980,note_on,,0,0,11,,,,,,,,,,,,,,,,15,,68,48
35039,note_on,,59,0,7,,,,,,,,,,,,,,,,10,,74,0
35039,note_on,,0,0,11,,,,,,,,,,,,,,,,15,,65,0
35039,note_on,,0,0,11,,,,,,,,,,,,,,,,15,,68,0
35039,note_on,,59,0,11,,,,,,,,,,,,,,,,15,,74,0
35040,note_on,,0,0,11,,,,,,,,,,,,,,,,15,,70,48
35040,note_on,,0,0,11,,,,,,,,,,,,,,,,15,,66,48
35040,note_on,,1,0,11,,,,,,,,,,,,,,,,15,,75,48
35040,note_on,,1,0,7,,,,,,,,,,,,,,,,10,,75,48
35099,note_on,,0,0,11,,,,,,,,,,,,,,,,15,,66,0
35099,note_on,,59,0,7,,,,,,,,,,,,,,,,10,,75,0
35099,note_on,,59,0,11,,,,,,,,,,,,,,,,15,,75,0
35100,note_on,,1,0,7,,,,,,,,,,,,,,,,10,,70,72
35100,note_on,,301,0,9,,,,,,,,,,,,,,,,12,,65,72
35100,note_on,,301,0,8,,,,,,,,,,,,,,,,11,,62,72
35100,note_on,,1,0,11,,,,,,,,,,,,,,,,15,,65,48
35100,note_on,,0,0,11,,,,,,,,,,,,,,,,15,,74,48
35159,note_on,,59,0,9,,,,,,,,,,,,,,,,12,,65,0
35159,note_on,,59,0,8,,,,,,,,,,,,,,,,11,,62,0
35159,note_on,,59,0,7,,,,,,,,,,,,,,,,10,,70,0
35159,note_on,,0,0,11,,,,,,,,,,,,,,,,15,,74,0
35159,note_on,,59,0,11,,,,,,,,,,,,,,,,15,,70,0
35159,note_on,,0,0,11,,,,,,,,,,,,,,,,15,,65,0
35160,note_on,,1,0,7,,,,,,,,,,,,,,,,10,,71,72
35160,note_on,,0,0,11,,,,,,,,,,,,,,,,15,,66,72
35160,note_on,,1,0,8,,,,,,,,,,,,,,,,11,,63,72
35160,note_on,,1,0,9,,,,,,,,,,,,,,,,12,,66,72
35160,note_on,,0,0,11,,,,,,,,,,,,,,,,15,,71,72
35160,note_on,,1,0,11,,,,,,,,,,,,,,,,15,,75,72
35219,note_on,,0,0,11,,,,,,,,,,,,,,,,15,,66,0
35219,note_on,,59,0,11,,,,,,,,,,,,,,,,15,,58,0
35219,note_on,,419,0,5,,,,,,,,,,,,,,,,2,,58,0
35219,note_on,,419,0,10,,,,,,,,,,,,,,,,13,,58,0
35220,note_on,,1,0,5,,,,,,,,,,,,,,,,2,,58,72
35220,note_on,,1,0,11,,,,,,,,,,,,,,,,15,,66,72
35220,note_on,,1,0,10,,,,,,,,,,,,,,,,13,,58,72
35220,note_on,,0,0,11,,,,,,,,,,,,,,,,15,,58,72
35279,note_on,,59,0,10,,,,,,,,,,,,,,,,13,,58,0
35279,note_on,,0,0,11,,,,,,,,,,,,,,,,15,,58,0
35279,note_on,,59,0,11,,,,,,,,,,,,,,,,15,,66,0
35279,note_on,,119,0,9,,,,,,,,,,,,,,,,12,,66,0
35279,note_on,,59,0,5,,,,,,,,,,,,,,,,2,,58,0
35280,note_on,,1,0,9,,,,,,,,,,,,,,,,12,,65,72
35280,note_on,,1,0,10,,,,,,,,,,,,,,,,13,,56,72
35280,note_on,,1,0,5,,,,,,,,,,,,,,,,2,,56,72
35280,note_on,,0,0,11,,,,,,,,,,,,,,,,15,,56,72
35280,note_on,,1,0,11,,,,,,,,,,,,,,,,15,,65,72
35339,note_on,,179,0,8,,,,,,,,,,,,,,,,11,,63,0
35340,note_on,,1,0,8,,,,,,,,,,,,,,,,11,,65,72
35369,note_on,,29,0,8,,,,,,,,,,,,,,,,11,,65,0
35370,note_on,,1,0,8,,,,,,,,,,,,,,,,11,,63,72
35399,note_on,,0,0,11,,,,,,,,,,,,,,,,15,,65,0
35399,note_on,,0,0,11,,,,,,,,,,,,,,,,15,,71,0
35399,note_on,,239,0,7,,,,,,,,,,,,,,,,10,,71,0
35399,note_on,,119,0,11,,,,,,,,,,,,,,,,15,,75,0
35399,note_on,,29,0,8,,,,,,,,,,,,,,,,11,,63,0
35400,note_on,,1,0,8,,,,,,,,,,,,,,,,11,,62,72
35400,note_on,,1,0,7,,,,,,,,,,,,,,,,10,,70,72
35400,note_on,,1,0,11,,,,,,,,,,,,,,,,15,,65,72
35415,note_on,,15,0,11,,,,,,,,,,,,,,,,15,,70,72
35430,note_on,,15,0,11,,,,,,,,,,,,,,,,15,,74,72
35445,note_on,,15,0,11,,,,,,,,,,,,,,,,15,,77,72
35459,note_on,,0,0,11,,,,,,,,,,,,,,,,15,,77,0
35459,note_on,,179,0,10,,,,,,,,,,,,,,,,13,,56,0
35459,note_on,,0,0,11,,,,,,,,,,,,,,,,15,,74,0
35459,note_on,,14,0,11,,,,,,,,,,,,,,,,15,,56,0
35459,note_on,,179,0,5,,,,,,,,,,,,,,,,2,,56,0
35459,note_on,,0,0,11,,,,,,,,,,,,,,,,15,,70,0
35460,note_on,,1,0,11,,,,,,,,,,,,,,,,15,,55,72
35460,note_on,,0,0,11,,,,,,,,,,,,,,,,15,,70,72
35460,note_on,,1,0,10,,,,,,,,,,,,,,,,13,,55,72
35460,note_on,,1,0,5,,,,,,,,,,,,,,,,2,,55,72
35489,note_on,,29,0,5,,,,,,,,,,,,,,,,2,,55,0
35489,note_on,,29,0,10,,,,,,,,,,,,,,,,13,,55,0
35489,note_on,,29,0,11,,,,,,,,,,,,,,,,15,,55,0
35490,note_on,,1,0,5,,,,,,,,,,,,,,,,2,,53,72
35490,note_on,,1,0,10,,,,,,,,,,,,,,,,13,,53,72
35490,note_on,,1,0,11,,,,,,,,,,,,,,,,15,,53,72
35519,note_on,,29,0,11,,,,,,,,,,,,,,,,15,,65,0
35519,note_on,,29,0,5,,,,,,,,,,,,,,,,2,,53,0
35519,note_on,,0,0,11,,,,,,,,,,,,,,,,15,,53,0
35519,note_on,,119,0,8,,,,,,,,,,,,,,,,11,,62,0
35519,note_on,,239,0,9,,,,,,,,,,,,,,,,12,,65,0
35519,note_on,,29,0,10,,,,,,,,,,,,,,,,13,,53,0
35520,note_on,,1,0,8,,,,,,,,,,,,,,,,11,,63,72
35520,note_on,,0,0,11,,,,,,,,,,,,,,,,15,,75,72
35520,note_on,,1,0,9,,,,,,,,,,,,,,,,12,,63,72
35520,note_on,,1,0,11,,,,,,,,,,,,,,,,15,,58,72
35520,note_on,,0,0,11,,,,,,,,,,,,,,,,15,,55,72
35520,note_on,,1,0,10,,,,,,,,,,,,,,,,13,,55,72
35520,note_on,,1,0,5,,,,,,,,,,,,,,,,2,,55,72
35579,note_on,,0,0,11,,,,,,,,,,,,,,,,15,,75,0
35579,note_on,,0,0,11,,,,,,,,,,,,,,,,15,,55,0
35579,note_on,,0,0,11,,,,,,,,,,,,,,,,15,,58,0
35579,note_on,,179,0,7,,,,,,,,,,,,,,,,10,,70,0
35579,note_on,,59,0,11,,,,,,,,,,,,,,,,15,,70,0
35579,note_on,,59,0,5,,,,,,,,,,,,,,,,2,,55,0
35579,note_on,,59,0,10,,,,,,,,,,,,,,,,13,,55,0
35580,note_on,,1,0,5,,,,,,,,,,,,,,,,2,,60,72
35580,note_on,,1,0,11,,,,,,,,,,,,,,,,15,,60,72
35580,note_on,,1,0,10,,,,,,,,,,,,,,,,13,,60,72
35580,note_on,,0,0,11,,,,,,,,,,,,,,,,15,,68,72
35580,note_on,,1,0,7,,,,,,,,,,,,,,,,10,,68,72
35580,note_on,,0,0,11,,,,,,,,,,,,,,,,15,,63,72
35639,note_on,,0,0,11,,,,,,,,,,,,,,,,15,,63,0
35639,note_on,,0,0,11,,,,,,,,,,,,,,,,15,,68,0
35639,note_on,,59,0,5,,,,,,,,,,,,,,,,2,,60,0
35639,note_on,,59,0,7,,,,,,,,,,,,,,,,10,,68,0
35639,note_on,,119,0,9,,,,,,,,,,,,,,,,12,,63,0
35639,note_on,,59,0,10,,,,,,,,,,,,,,,,13,,60,0
35639,note_on,,59,0,11,,,,,,,,,,,,,,,,15,,60,0
35640,note_on,,1,0,7,,,,,,,,,,,,,,,,10,,67,72
35640,note_on,,1,0,10,,,,,,,,,,,,,,,,13,,58,72
35640,note_on,,0,0,11,,,,,,,,,,,,,,,,15,,67,72
35640,note_on,,0,0,11,,,,,,,,,,,,,,,,15,,58,72
35640,note_on,,0,0,11,,,,,,,,,,,,,,,,15,,63,72
35640,note_on,,1,0,11,,,,,,,,,,,,,,,,15,,70,72
35640,note_on,,1,0,9,,,,,,,,,,,,,,,,12,,58,72
35640,note_on,,1,0,5,,,,,,,,,,,,,,,,2,,58,72
35699,note_on,,59,0,11,,,,,,,,,,,,,,,,15,,67,0
35700,note_on,,1,0,11,,,,,,,,,,,,,,,,15,,68,72
35759,note_on,,119,0,7,,,,,,,,,,,,,,,,10,,67,0
35759,note_on,,239,0,8,,,,,,,,,,,,,,,,11,,63,0
35759,note_on,,59,0,11,,,,,,,,,,,,,,,,15,,70,0
35759,note_on,,119,0,9,,,,,,,,,,,,,,,,12,,58,0
35759,note_on,,119,0,10,,,,,,,,,,,,,,,,13,,58,0
35759,note_on,,119,0,5,,,,,,,,,,,,,,,,2,,58,0
35759,note_on,,0,0,11,,,,,,,,,,,,,,,,15,,63,0
35759,note_on,,0,0,11,,,,,,,,,,,,,,,,15,,58,0
35759,note_on,,0,0,11,,,,,,,,,,,,,,,,15,,68,0
35760,note_on,,1,0,5,,,,,,,,,,,,,,,,2,,46,72
35760,note_on,,1,0,7,,,,,,,,,,,,,,,,10,,65,72
35760,note_on,,1,0,11,,,,,,,,,,,,,,,,15,,70,72
35760,note_on,,0,0,11,,,,,,,,,,,,,,,,15,,46,72
35760,note_on,,0,0,11,,,,,,,,,,,,,,,,15,,74,72
35760,note_on,,1,0,8,,,,,,,,,,,,,,,,11,,62,72
35760,note_on,,1,0,9,,,,,,,,,,,,,,,,12,,56,72
35760,note_on,,1,0,10,,,,,,,,,,,,,,,,13,,46,72
35760,note_on,,0,0,11,,,,,,,,,,,,,,,,15,,53,72
35774,note_on,,14,0,7,,,,,,,,,,,,,,,,10,,65,0
35775,note_on,,1,0,7,,,,,,,,,,,,,,,,10,,67,72
35789,note_on,,14,0,7,,,,,,,,,,,,,,,,10,,67,0
35790,note_on,,1,0,7,,,,,,,,,,,,,,,,10,,65,72
35804,note_on,,14,0,7,,,,,,,,,,,,,,,,10,,65,0
35805,note_on,,1,0,7,,,,,,,,,,,,,,,,10,,67,72
35819,note_on,,14,0,7,,,,,,,,,,,,,,,,10,,67,0
35819,note_on,,59,0,11,,,,,,,,,,,,,,,,15,,70,0
35820,note_on,,1,0,7,,,,,,,,,,,,,,,,10,,63,72
35820,note_on,,1,0,11,,,,,,,,,,,,,,,,15,,65,72
35834,note_on,,14,0,7,,,,,,,,,,,,,,,,10,,63,0
35835,note_on,,1,0,7,,,,,,,,,,,,,,,,10,,65,72
35849,note_on,,89,0,9,,,,,,,,,,,,,,,,12,,56,0
35849,note_on,,14,0,7,,,,,,,,,,,,,,,,10,,65,0
35850,note_on,,1,0,7,,,,,,,,,,,,,,,,10,,63,72
35850,note_on,,1,0,9,,,,,,,,,,,,,,,,12,,55,72
35879,note_on,,119,0,8,,,,,,,,,,,,,,,,11,,62,0
35879,note_on,,119,0,5,,,,,,,,,,,,,,,,2,,46,0
35879,note_on,,0,0,11,,,,,,,,,,,,,,,,15,,53,0
35879,note_on,,0,0,11,,,,,,,,,,,,,,,,15,,74,0
35879,note_on,,59,0,11,,,,,,,,,,,,,,,,15,,46,0
35879,note_on,,0,0,11,,,,,,,,,,,,,,,,15,,65,0
35879,note_on,,29,0,9,,,,,,,,,,,,,,,,12,,55,0
35879,note_on,,29,0,7,,,,,,,,,,,,,,,,10,,63,0
35879,note_on,,119,0,10,,,,,,,,,,,,,,,,13,,46,0
35880,note_on,,1,0,10,,,,,,,,,,,,,,,,13,,39,72
35880,note_on,,1,0,11,,,,,,,,,,,,,,,,15,,70,72
35880,note_on,,0,0,11,,,,,,,,,,,,,,,,15,,51,72
35880,note_on,,0,0,11,,,,,,,,,,,,,,,,15,,39,72
35880,note_on,,1,0,8,,,,,,,,,,,,,,,,11,,63,72
35880,note_on,,1,0,9,,,,,,,,,,,,,,,,12,,55,72
35880,note_on,,1,0,5,,,,,,,,,,,,,,,,2,,39,72
35880,note_on,,1,0,7,,,,,,,,,,,,,,,,10,,63,72
35880,note_on,,0,0,11,,,,,,,,,,,,,,,,15,,75,72
35880,note_on,,0,0,11,,,,,,,,,,,,,,,,15,,67,72
35999,note_on,,119,0,8,,,,,,,,,,,,,,,,11,,63,0
35999,note_on,,119,0,9,,,,,,,,,,,,,,,,12,,55,0
35999,note_on,,0,0,11,,,,,,,,,,,,,,,,15,,67,0
35999,note_on,,119,0,7,,,,,,,,,,,,,,,,10,,63,0
35999,note_on,,0,0,11,,,,,,,,,,,,,,,,15,,39,0
35999,note_on,,0,0,11,,,,,,,,,,,,,,,,15,,51,0
35999,note_on,,119,0,11,,,,,,,,,,,,,,,,15,,70,0
35999,note_on,,119,0,5,,,,,,,,,,,,,,,,2,,39,0
35999,note_on,,119,0,10,,,,,,,,,,,,,,,,13,,39,0
35999,note_on,,0,0,11,,,,,,,,,,,,,,,,15,,75,0
36060,note_on,,4261,0,6,,,,,,,,,,,,,,,,6,,58,64
36119,note_on,,59,0,6,,,,,,,,,,,,,,,,6,,58,0
36120,note_on,,1,0,6,,,,,,,,,,,,,,,,6,,63,63
36180,note_on,,181,0,10,,,,,,,,,,,,,,,,13,,51,48
36180,note_on,,0,0,11,,,,,,,,,,,,,,,,15,,51,48
36180,note_on,,0,0,11,,,,,,,,,,,,,,,,15,,63,48
36180,note_on,,181,0,11,,,,,,,,,,,,,,,,15,,67,48
36180,note_on,,0,0,11,,,,,,,,,,,,,,,,15,,58,48
36239,note_on,,0,0,11,,,,,,,,,,,,,,,,15,,58,0
36239,note_on,,0,0,11,,,,,,,,,,,,,,,,15,,51,0
36239,note_on,,59,0,11,,,,,,,,,,,,,,,,15,,67,0
36239,note_on,,59,0,10,,,,,,,,,,,,,,,,13,,51,0
36240,note_on,,1,0,10,,,,,,,,,,,,,,,,13,,58,48
36240,note_on,,1,0,11,,,,,,,,,,,,,,,,15,,65,48
36240,note_on,,0,0,11,,,,,,,,,,,,,,,,15,,58,48
36299,note_on,,59,0,10,,,,,,,,,,,,,,,,13,,58,0
36299,note_on,,179,0,6,,,,,,,,,,,,,,,,6,,63,0
36299,note_on,,59,0,11,,,,,,,,,,,,,,,,15,,63,0
36299,note_on,,0,0,11,,,,,,,,,,,,,,,,15,,65,0
36299,note_on,,0,0,11,,,,,,,,,,,,,,,,15,,58,0
36300,note_on,,1,0,6,,,,,,,,,,,,,,,,6,,62,65
36300,note_on,,1,0,11,,,,,,,,,,,,,,,,15,,70,48
36300,note_on,,1,0,10,,,,,,,,,,,,,,,,13,,46,48
36300,note_on,,0,0,11,,,,,,,,,,,,,,,,15,,46,48
36300,note_on,,0,0,11,,,,,,,,,,,,,,,,15,,65,48
36329,note_on,,29,0,6,,,,,,,,,,,,,,,,6,,62,0
36330,note_on,,1,0,6,,,,,,,,,,,,,,,,6,,63,64
36344,note_on,,14,0,6,,,,,,,,,,,,,,,,6,,63,0
36345,note_on,,1,0,6,,,,,,,,,,,,,,,,6,,65,64
36359,note_on,,0,0,11,,,,,,,,,,,,,,,,15,,46,0
36359,note_on,,59,0,10,,,,,,,,,,,,,,,,13,,46,0
36359,note_on,,14,0,6,,,,,,,,,,,,,,,,6,,65,0
36359,note_on,,0,0,11,,,,,,,,,,,,,,,,15,,65,0
36359,note_on,,59,0,11,,,,,,,,,,,,,,,,15,,70,0
36360,note_on,,0,0,11,,,,,,,,,,,,,,,,15,,58,48
36360,note_on,,0,0,11,,,,,,,,,,,,,,,,15,,67,48
36360,note_on,,1,0,6,,,,,,,,,,,,,,,,6,,67,63
36360,note_on,,1,0,11,,,,,,,,,,,,,,,,15,,51,48
36360,note_on,,0,0,11,,,,,,,,,,,,,,,,15,,63,48
36360,note_on,,1,0,10,,,,,,,,,,,,,,,,13,,51,48
36419,note_on,,0,0,11,,,,,,,,,,,,,,,,15,,63,0
36419,note_on,,0,0,11,,,,,,,,,,,,,,,,15,,58,0
36419,note_on,,59,0,11,,,,,,,,,,,,,,,,15,,51,0
36419,note_on,,59,0,10,,,,,,,,,,,,,,,,13,,51,0
36419,note_on,,59,0,6,,,,,,,,,,,,,,,,6,,67,0
36419,note_on,,0,0,11,,,,,,,,,,,,,,,,15,,67,0
36420,note_on,,1,0,10,,,,,,,,,,,,,,,,13,,46,48
36420,note_on,,0,0,11,,,,,,,,,,,,,,,,15,,62,48
36420,note_on,,1,0,6,,,,,,,,,,,,,,,,6,,65,60
36420,note_on,,1,0,11,,,,,,,,,,,,,,,,15,,46,48
36420,note_on,,0,0,11,,,,,,,,,,,,,,,,15,,58,48
36420,note_on,,0,0,11,,,,,,,,,,,,,,,,15,,65,48
36479,note_on,,0,0,11,,,,,,,,,,,,,,,,15,,65,0
36479,note_on,,0,0,11,,,,,,,,,,,,,,,,15,,62,0
36479,note_on,,59,0,6,,,,,,,,,,,,,,,,6,,65,0
36479,note_on,,59,0,10,,,,,,,,,,,,,,,,13,,46,0
36479,note_on,,59,0,11,,,,,,,,,,,,,,,,15,,46,0
36479,note_on,,0,0,11,,,,,,,,,,,,,,,,15,,58,0
36540,note_on,,541,0,8,,,,,,,,,,,,,,,,11,,79,48
36540,note_on,,541,0,7,,,,,,,,,,,,,,,,10,,82,48
36599,note_on,,59,0,7,,,,,,,,,,,,,,,,10,,82,0
36599,note_on,,59,0,8,,,,,,,,,,,,,,,,11,,79,0
36600,note_on,,1,0,8,,,,,,,,,,,,,,,,11,,77,48
36600,note_on,,1,0,7,,,,,,,,,,,,,,,,10,,80,48
36614,note_on,,14,0,8,,,,,,,,,,,,,,,,11,,77,0
36614,note_on,,14,0,7,,,,,,,,,,,,,,,,10,,80,0
36615,note_on,,1,0,7,,,,,,,,,,,,,,,,10,,82,48
36615,note_on,,1,0,8,,,,,,,,,,,,,,,,11,,79,48
36629,note_on,,14,0,7,,,,,,,,,,,,,,,,10,,82,0
36629,note_on,,14,0,8,,,,,,,,,,,,,,,,11,,79,0
36630,note_on,,1,0,7,,,,,,,,,,,,,,,,10,,79,48
36630,note_on,,1,0,8,,,,,,,,,,,,,,,,11,,75,48
36644,note_on,,14,0,8,,,,,,,,,,,,,,,,11,,75,0
36644,note_on,,14,0,7,,,,,,,,,,,,,,,,10,,79,0
36645,note_on,,1,0,7,,,,,,,,,,,,,,,,10,,80,48
36645,note_on,,1,0,8,,,,,,,,,,,,,,,,11,,77,48
36659,note_on,,14,0,7,,,,,,,,,,,,,,,,10,,80,0
36659,note_on,,14,0,8,,,,,,,,,,,,,,,,11,,77,0
36660,note_on,,1,0,8,,,,,,,,,,,,,,,,11,,75,48
36660,note_on,,1,0,7,,,,,,,,,,,,,,,,10,,79,48
36719,note_on,,59,0,8,,,,,,,,,,,,,,,,11,,75,0
36719,note_on,,59,0,7,,,,,,,,,,,,,,,,10,,79,0
36780,note_on,,61,0,8,,,,,,,,,,,,,,,,11,,77,48
36780,note_on,,61,0,7,,,,,,,,,,,,,,,,10,,80,48
36839,note_on,,59,0,8,,,,,,,,,,,,,,,,11,,77,0
36839,note_on,,59,0,7,,,,,,,,,,,,,,,,10,,80,0
36840,note_on,,1,0,8,,,,,,,,,,,,,,,,11,,75,48
36840,note_on,,1,0,7,,,,,,,,,,,,,,,,10,,79,48
36854,note_on,,14,0,7,,,,,,,,,,,,,,,,10,,79,0
36854,note_on,,14,0,8,,,,,,,,,,,,,,,,11,,75,0
36855,note_on,,1,0,7,,,,,,,,,,,,,,,,10,,80,48
36855,note_on,,1,0,8,,,,,,,,,,,,,,,,11,,77,48
36869,note_on,,14,0,7,,,,,,,,,,,,,,,,10,,80,0
36869,note_on,,14,0,8,,,,,,,,,,,,,,,,11,,77,0
36870,note_on,,1,0,7,,,,,,,,,,,,,,,,10,,77,48
36870,note_on,,1,0,8,,,,,,,,,,,,,,,,11,,74,48
36884,note_on,,14,0,8,,,,,,,,,,,,,,,,11,,74,0
36884,note_on,,14,0,7,,,,,,,,,,,,,,,,10,,77,0
36885,note_on,,1,0,8,,,,,,,,,,,,,,,,11,,75,48
36885,note_on,,1,0,7,,,,,,,,,,,,,,,,10,,79,48
36899,note_on,,14,0,8,,,,,,,,,,,,,,,,11,,75,0
36899,note_on,,14,0,7,,,,,,,,,,,,,,,,10,,79,0
36900,note_on,,1,0,8,,,,,,,,,,,,,,,,11,,74,48
36900,note_on,,1,0,7,,,,,,,,,,,,,,,,10,,77,48
36959,note_on,,59,0,8,,,,,,,,,,,,,,,,11,,74,0
36959,note_on,,59,0,7,,,,,,,,,,,,,,,,10,,77,0
37020,note_on,,0,0,11,,,,,,,,,,,,,,,,15,,58,48
37020,note_on,,541,0,10,,,,,,,,,,,,,,,,13,,46,48
37020,note_on,,541,0,11,,,,,,,,,,,,,,,,15,,46,48
37020,note_on,,541,0,6,,,,,,,,,,,,,,,,6,,67,65
37020,note_on,,0,0,11,,,,,,,,,,,,,,,,15,,62,48
37064,note_on,,44,0,6,,,,,,,,,,,,,,,,6,,67,0
37065,note_on,,1,0,6,,,,,,,,,,,,,,,,6,,70,60
37079,note_on,,14,0,6,,,,,,,,,,,,,,,,6,,70,0
37079,note_on,,59,0,10,,,,,,,,,,,,,,,,13,,46,0
37079,note_on,,0,0,11,,,,,,,,,,,,,,,,15,,58,0
37079,note_on,,0,0,11,,,,,,,,,,,,,,,,15,,62,0
37079,note_on,,59,0,11,,,,,,,,,,,,,,,,15,,46,0
37080,note_on,,1,0,11,,,,,,,,,,,,,,,,15,,56,48
37080,note_on,,0,0,11,,,,,,,,,,,,,,,,15,,63,48
37080,note_on,,0,0,11,,,,,,,,,,,,,,,,15,,48,48
37080,note_on,,1,0,6,,,,,,,,,,,,,,,,6,,68,64
37080,note_on,,1,0,10,,,,,,,,,,,,,,,,13,,48,48
37139,note_on,,59,0,10,,,,,,,,,,,,,,,,13,,48,0
37139,note_on,,59,0,6,,,,,,,,,,,,,,,,6,,68,0
37139,note_on,,59,0,11,,,,,,,,,,,,,,,,15,,56,0
37139,note_on,,0,0,11,,,,,,,,,,,,,,,,15,,63,0
37139,note_on,,0,0,11,,,,,,,,,,,,,,,,15,,48,0
37140,note_on,,1,0,10,,,,,,,,,,,,,,,,13,,50,48
37140,note_on,,1,0,6,,,,,,,,,,,,,,,,6,,67,66
37140,note_on,,1,0,11,,,,,,,,,,,,,,,,15,,50,48
37140,note_on,,0,0,11,,,,,,,,,,,,,,,,15,,65,48
37140,note_on,,0,0,11,,,,,,,,,,,,,,,,15,,53,48
37169,note_on,,29,0,6,,,,,,,,,,,,,,,,6,,67,0
37170,note_on,,1,0,6,,,,,,,,,,,,,,,,6,,65,63
37184,note_on,,14,0,6,,,,,,,,,,,,,,,,6,,65,0
37185,note_on,,1,0,6,,,,,,,,,,,,,,,,6,,68,65
37199,note_on,,59,0,11,,,,,,,,,,,,,,,,15,,50,0
37199,note_on,,0,0,11,,,,,,,,,,,,,,,,15,,53,0
37199,note_on,,59,0,10,,,,,,,,,,,,,,,,13,,50,0
37199,note_on,,0,0,11,,,,,,,,,,,,,,,,15,,65,0
37199,note_on,,14,0,6,,,,,,,,,,,,,,,,6,,68,0
37200,note_on,,1,0,10,,,,,,,,,,,,,,,,13,,51,48
37200,note_on,,1,0,11,,,,,,,,,,,,,,,,15,,55,48
37200,note_on,,0,0,11,,,,,,,,,,,,,,,,15,,51,48
37200,note_on,,0,0,11,,,,,,,,,,,,,,,,15,,58,48
37200,note_on,,1,0,6,,,,,,,,,,,,,,,,6,,67,63
37244,note_on,,44,0,6,,,,,,,,,,,,,,,,6,,67,0
37245,note_on,,1,0,6,,,,,,,,,,,,,,,,6,,65,63
37259,note_on,,14,0,6,,,,,,,,,,,,,,,,6,,65,0
37259,note_on,,0,0,11,,,,,,,,,,,,,,,,15,,51,0
37259,note_on,,59,0,11,,,,,,,,,,,,,,,,15,,55,0
37259,note_on,,0,0,11,,,,,,,,,,,,,,,,15,,58,0
37259,note_on,,59,0,10,,,,,,,,,,,,,,,,13,,51,0
37260,note_on,,1,0,6,,,,,,,,,,,,,,,,6,,63,66
37260,note_on,,1,0,11,,,,,,,,,,,,,,,,15,,60,48
37260,note_on,,0,0,11,,,,,,,,,,,,,,,,15,,44,48
37260,note_on,,0,0,11,,,,,,,,,,,,,,,,15,,56,48
37260,note_on,,0,0,11,,,,,,,,,,,,,,,,15,,63,48
37260,note_on,,1,0,10,,,,,,,,,,,,,,,,13,,44,48
37319,note_on,,59,0,11,,,,,,,,,,,,,,,,15,,60,0
37319,note_on,,59,0,6,,,,,,,,,,,,,,,,6,,63,0
37319,note_on,,59,0,10,,,,,,,,,,,,,,,,13,,44,0
37319,note_on,,0,0,11,,,,,,,,,,,,,,,,15,,63,0
37319,note_on,,0,0,11,,,,,,,,,,,,,,,,15,,56,0
37319,note_on,,0,0,11,,,,,,,,,,,,,,,,15,,44,0
37320,note_on,,1,0,10,,,,,,,,,,,,,,,,13,,46,48
37320,note_on,,0,0,11,,,,,,,,,,,,,,,,15,,46,48
37320,note_on,,0,0,11,,,,,,,,,,,,,,,,15,,53,48
37320,note_on,,1,0,11,,,,,,,,,,,,,,,,15,,58,48
37320,note_on,,0,0,11,,,,,,,,,,,,,,,,15,,62,48
37320,note_on,,1,0,6,,,,,,,,,,,,,,,,6,,62,64
37349,note_on,,29,0,6,,,,,,,,,,,,,,,,6,,62,0
37350,note_on,,1,0,6,,,,,,,,,,,,,,,,6,,63,62
37364,note_on,,14,0,6,,,,,,,,,,,,,,,,6,,63,0
37365,note_on,,1,0,6,,,,,,,,,,,,,,,,6,,65,67
37379,note_on,,14,0,6,,,,,,,,,,,,,,,,6,,65,0
37379,note_on,,0,0,11,,,,,,,,,,,,,,,,15,,46,0
37379,note_on,,59,0,10,,,,,,,,,,,,,,,,13,,46,0
37379,note_on,,59,0,11,,,,,,,,,,,,,,,,15,,58,0
37379,note_on,,0,0,11,,,,,,,,,,,,,,,,15,,53,0
37379,note_on,,0,0,11,,,,,,,,,,,,,,,,15,,62,0
37380,note_on,,1,0,11,,,,,,,,,,,,,,,,15,,58,48
37380,note_on,,0,0,11,,,,,,,,,,,,,,,,15,,39,48
37380,note_on,,0,0,11,,,,,,,,,,,,,,,,15,,55,48
37380,note_on,,0,0,11,,,,,,,,,,,,,,,,15,,63,48
37380,note_on,,1,0,6,,,,,,,,,,,,,,,,6,,63,65
37380,note_on,,1,0,10,,,,,,,,,,,,,,,,13,,39,48
37439,note_on,,0,0,11,,,,,,,,,,,,,,,,15,,55,0
37439,note_on,,59,0,6,,,,,,,,,,,,,,,,6,,63,0
37439,note_on,,59,0,11,,,,,,,,,,,,,,,,15,,58,0
37439,note_on,,0,0,11,,,,,,,,,,,,,,,,15,,39,0
37439,note_on,,59,0,10,,,,,,,,,,,,,,,,13,,39,0
37439,note_on,,0,0,11,,,,,,,,,,,,,,,,15,,63,0
37500,note_on,,541,0,8,,,,,,,,,,,,,,,,11,,67,48
37500,note_on,,541,0,7,,,,,,,,,,,,,,,,10,,70,48
37559,note_on,,59,0,8,,,,,,,,,,,,,,,,11,,67,0
37559,note_on,,59,0,7,,,,,,,,,,,,,,,,10,,70,0
37560,note_on,,1,0,8,,,,,,,,,,,,,,,,11,,65,48
37560,note_on,,1,0,7,,,,,,,,,,,,,,,,10,,68,48
37574,note_on,,14,0,7,,,,,,,,,,,,,,,,10,,68,0
37574,note_on,,14,0,8,,,,,,,,,,,,,,,,11,,65,0
37575,note_on,,1,0,8,,,,,,,,,,,,,,,,11,,67,48
37575,note_on,,1,0,7,,,,,,,,,,,,,,,,10,,70,48
37589,note_on,,14,0,8,,,,,,,,,,,,,,,,11,,67,0
37589,note_on,,14,0,7,,,,,,,,,,,,,,,,10,,70,0
37590,note_on,,1,0,8,,,,,,,,,,,,,,,,11,,63,48
37590,note_on,,1,0,7,,,,,,,,,,,,,,,,10,,67,48
37604,note_on,,14,0,8,,,,,,,,,,,,,,,,11,,63,0
37604,note_on,,14,0,7,,,,,,,,,,,,,,,,10,,67,0
37605,note_on,,1,0,8,,,,,,,,,,,,,,,,11,,65,48
37605,note_on,,1,0,7,,,,,,,,,,,,,,,,10,,68,48
37619,note_on,,14,0,7,,,,,,,,,,,,,,,,10,,68,0
37619,note_on,,14,0,8,,,,,,,,,,,,,,,,11,,65,0
37620,note_on,,1,0,7,,,,,,,,,,,,,,,,10,,67,48
37620,note_on,,1,0,8,,,,,,,,,,,,,,,,11,,63,48
37679,note_on,,59,0,7,,,,,,,,,,,,,,,,10,,67,0
37679,note_on,,59,0,8,,,,,,,,,,,,,,,,11,,63,0
37740,note_on,,61,0,8,,,,,,,,,,,,,,,,11,,65,48
37740,note_on,,61,0,7,,,,,,,,,,,,,,,,10,,68,48
37799,note_on,,59,0,8,,,,,,,,,,,,,,,,11,,65,0
37799,note_on,,59,0,7,,,,,,,,,,,,,,,,10,,68,0
37800,note_on,,1,0,8,,,,,,,,,,,,,,,,11,,63,48
37800,note_on,,1,0,7,,,,,,,,,,,,,,,,10,,67,48
37814,note_on,,14,0,7,,,,,,,,,,,,,,,,10,,67,0
37814,note_on,,14,0,8,,,,,,,,,,,,,,,,11,,63,0
37815,note_on,,1,0,7,,,,,,,,,,,,,,,,10,,68,48
37815,note_on,,1,0,8,,,,,,,,,,,,,,,,11,,65,48
37829,note_on,,14,0,7,,,,,,,,,,,,,,,,10,,68,0
37829,note_on,,14,0,8,,,,,,,,,,,,,,,,11,,65,0
37830,note_on,,1,0,7,,,,,,,,,,,,,,,,10,,65,48
37830,note_on,,1,0,8,,,,,,,,,,,,,,,,11,,62,48
37844,note_on,,14,0,7,,,,,,,,,,,,,,,,10,,65,0
37844,note_on,,14,0,8,,,,,,,,,,,,,,,,11,,62,0
37845,note_on,,1,0,7,,,,,,,,,,,,,,,,10,,67,48
37845,note_on,,1,0,8,,,,,,,,,,,,,,,,11,,63,48
37859,note_on,,14,0,8,,,,,,,,,,,,,,,,11,,63,0
37859,note_on,,14,0,7,,,,,,,,,,,,,,,,10,,67,0
37860,note_on,,1,0,8,,,,,,,,,,,,,,,,11,,62,48
37860,note_on,,1,0,7,,,,,,,,,,,,,,,,10,,65,48
37919,note_on,,59,0,8,,,,,,,,,,,,,,,,11,,62,0
37919,note_on,,59,0,7,,,,,,,,,,,,,,,,10,,65,0
37980,note_on,,541,0,6,,,,,,,,,,,,,,,,6,,65,61
37980,note_on,,541,0,10,,,,,,,,,,,,,,,,13,,46,48
37980,note_on,,541,0,11,,,,,,,,,,,,,,,,15,,62,48
37980,note_on,,0,0,11,,,,,,,,,,,,,,,,15,,58,48
37980,note_on,,0,0,11,,,,,,,,,,,,,,,,15,,65,48
37980,note_on,,0,0,11,,,,,,,,,,,,,,,,15,,46,48
38039,note_on,,59,0,11,,,,,,,,,,,,,,,,15,,62,0
38039,note_on,,0,0,11,,,,,,,,,,,,,,,,15,,58,0
38039,note_on,,0,0,11,,,,,,,,,,,,,,,,15,,46,0
38039,note_on,,0,0,11,,,,,,,,,,,,,,,,15,,65,0
38039,note_on,,59,0,10,,,,,,,,,,,,,,,,13,,46,0
38039,note_on,,59,0,6,,,,,,,,,,,,,,,,6,,65,0
38040,note_on,,1,0,6,,,,,,,,,,,,,,,,6,,67,62
38040,note_on,,1,0,11,,,,,,,,,,,,,,,,15,,58,48
38040,note_on,,0,0,11,,,,,,,,,,,,,,,,15,,63,48
38040,note_on,,0,0,11,,,,,,,,,,,,,,,,15,,51,48
38040,note_on,,0,0,11,,,,,,,,,,,,,,,,15,,67,48
38040,note_on,,1,0,10,,,,,,,,,,,,,,,,13,,51,48
38099,note_on,,59,0,6,,,,,,,,,,,,,,,,6,,67,0
38099,note_on,,59,0,10,,,,,,,,,,,,,,,,13,,51,0
38099,note_on,,59,0,11,,,,,,,,,,,,,,,,15,,51,0
38100,note_on,,1,0,11,,,,,,,,,,,,,,,,15,,43,48
38100,note_on,,1,0,6,,,,,,,,,,,,,,,,6,,68,61
38100,note_on,,1,0,10,,,,,,,,,,,,,,,,13,,43,48
38129,note_on,,29,0,6,,,,,,,,,,,,,,,,6,,68,0
38130,note_on,,1,0,6,,,,,,,,,,,,,,,,6,,70,65
38159,note_on,,0,0,11,,,,,,,,,,,,,,,,15,,63,0
38159,note_on,,0,0,11,,,,,,,,,,,,,,,,15,,67,0
38159,note_on,,0,0,11,,,,,,,,,,,,,,,,15,,43,0
38159,note_on,,29,0,6,,,,,,,,,,,,,,,,6,,70,0
38159,note_on,,59,0,11,,,,,,,,,,,,,,,,15,,58,0
38159,note_on,,59,0,10,,,,,,,,,,,,,,,,13,,43,0
38160,note_on,,1,0,11,,,,,,,,,,,,,,,,15,,62,48
38160,note_on,,0,0,11,,,,,,,,,,,,,,,,15,,56,48
38160,note_on,,0,0,11,,,,,,,,,,,,,,,,15,,41,48
38160,note_on,,1,0,10,,,,,,,,,,,,,,,,13,,41,48
38160,note_on,,1,0,6,,,,,,,,,,,,,,,,6,,68,67
38219,note_on,,0,0,11,,,,,,,,,,,,,,,,15,,56,0
38219,note_on,,0,0,11,,,,,,,,,,,,,,,,15,,41,0
38219,note_on,,59,0,10,,,,,,,,,,,,,,,,13,,41,0
38219,note_on,,59,0,11,,,,,,,,,,,,,,,,15,,62,0
38219,note_on,,59,0,6,,,,,,,,,,,,,,,,6,,68,0
38220,note_on,,1,0,6,,,,,,,,,,,,,,,,6,,67,64
38220,note_on,,0,0,11,,,,,,,,,,,,,,,,15,,55,48
38220,note_on,,0,0,11,,,,,,,,,,,,,,,,15,,58,48
38220,note_on,,1,0,10,,,,,,,,,,,,,,,,13,,39,48
38220,note_on,,1,0,11,,,,,,,,,,,,,,,,15,,39,48
38220,note_on,,0,0,11,,,,,,,,,,,,,,,,15,,63,48
38264,note_on,,44,0,6,,,,,,,,,,,,,,,,6,,67,0
38265,note_on,,1,0,6,,,,,,,,,,,,,,,,6,,67,60
38279,note_on,,0,0,11,,,,,,,,,,,,,,,,15,,58,0
38279,note_on,,0,0,11,,,,,,,,,,,,,,,,15,,55,0
38279,note_on,,0,0,11,,,,,,,,,,,,,,,,15,,63,0
38279,note_on,,59,0,11,,,,,,,,,,,,,,,,15,,39,0
38279,note_on,,59,0,10,,,,,,,,,,,,,,,,13,,39,0
38279,note_on,,14,0,6,,,,,,,,,,,,,,,,6,,67,0
38280,note_on,,0,0,11,,,,,,,,,,,,,,,,15,,46,48
38280,note_on,,1,0,11,,,,,,,,,,,,,,,,15,,58,48
38280,note_on,,1,0,10,,,,,,,,,,,,,,,,13,,46,48
38280,note_on,,1,0,6,,,,,,,,,,,,,,,,6,,65,62
38280,note_on,,0,0,11,,,,,,,,,,,,,,,,15,,65,48
38280,note_on,,0,0,11,,,,,,,,,,,,,,,,15,,62,48
38339,note_on,,0,0,11,,,,,,,,,,,,,,,,15,,62,0
38339,note_on,,59,0,10,,,,,,,,,,,,,,,,13,,46,0
38339,note_on,,59,0,11,,,,,,,,,,,,,,,,15,,46,0
38340,note_on,,1,0,11,,,,,,,,,,,,,,,,15,,48,48
38340,note_on,,1,0,10,,,,,,,,,,,,,,,,13,,48,48
38340,note_on,,0,0,11,,,,,,,,,,,,,,,,15,,63,48
38399,note_on,,0,0,11,,,,,,,,,,,,,,,,15,,63,0
38399,note_on,,0,0,11,,,,,,,,,,,,,,,,15,,65,0
38399,note_on,,59,0,11,,,,,,,,,,,,,,,,15,,58,0
38399,note_on,,59,0,10,,,,,,,,,,,,,,,,13,,48,0
38399,note_on,,0,0,11,,,,,,,,,,,,,,,,15,,48,0
38399,note_on,,119,0,6,,,,,,,,,,,,,,,,6,,65,0
38400,note_on,,0,0,11,,,,,,,,,,,,,,,,15,,50,48
38400,note_on,,0,0,11,,,,,,,,,,,,,,,,15,,65,48
38400,note_on,,1,0,11,,,,,,,,,,,,,,,,15,,70,48
38400,note_on,,1,0,10,,,,,,,,,,,,,,,,13,,50,48
38400,note_on,,0,0,11,,,,,,,,,,,,,,,,15,,62,48
38459,note_on,,0,0,11,,,,,,,,,,,,,,,,15,,50,0
38459,note_on,,0,0,11,,,,,,,,,,,,,,,,15,,62,0
38459,note_on,,0,0,11,,,,,,,,,,,,,,,,15,,65,0
38459,note_on,,59,0,11,,,,,,,,,,,,,,,,15,,70,0
38459,note_on,,59,0,10,,,,,,,,,,,,,,,,13,,50,0
38460,note_on,,2461,0,9,,,,,,,,,,,,,,,,12,,70,48
38460,note_on,,1,0,10,,,,,,,,,,,,,,,,13,,46,48
38460,note_on,,541,0,7,,,,,,,,,,,,,,,,10,,77,48
38460,note_on,,541,0,8,,,,,,,,,,,,,,,,11,,74,48
38460,note_on,,1,0,11,,,,,,,,,,,,,,,,15,,62,48
38460,note_on,,0,0,11,,,,,,,,,,,,,,,,15,,65,48
38460,note_on,,0,0,11,,,,,,,,,,,,,,,,15,,46,48
38460,note_on,,0,0,11,,,,,,,,,,,,,,,,15,,58,48
38519,note_on,,59,0,7,,,,,,,,,,,,,,,,10,,77,0
38519,note_on,,59,0,9,,,,,,,,,,,,,,,,12,,70,0
38519,note_on,,0,0,11,,,,,,,,,,,,,,,,15,,65,0
38519,note_on,,0,0,11,,,,,,,,,,,,,,,,15,,46,0
38519,note_on,,59,0,8,,,,,,,,,,,,,,,,11,,74,0
38519,note_on,,59,0,10,,,,,,,,,,,,,,,,13,,46,0
38519,note_on,,0,0,11,,,,,,,,,,,,,,,,15,,58,0
38519,note_on,,59,0,11,,,,,,,,,,,,,,,,15,,62,0
38520,note_on,,1,0,10,,,,,,,,,,,,,,,,13,,51,48
38520,note_on,,1,0,8,,,,,,,,,,,,,,,,11,,75,48
38520,note_on,,1,0,11,,,,,,,,,,,,,,,,15,,67,48
38520,note_on,,0,0,11,,,,,,,,,,,,,,,,15,,63,48
38520,note_on,,1,0,9,,,,,,,,,,,,,,,,12,,70,48
38520,note_on,,1,0,7,,,,,,,,,,,,,,,,10,,79,48
38520,note_on,,0,0,11,,,,,,,,,,,,,,,,15,,58,48
38520,note_on,,0,0,11,,,,,,,,,,,,,,,,15,,51,48
38579,note_on,,59,0,7,,,,,,,,,,,,,,,,10,,79,0
38579,note_on,,59,0,8,,,,,,,,,,,,,,,,11,,75,0
38580,note_on,,1,0,7,,,,,,,,,,,,,,,,10,,80,48
38580,note_on,,1,0,8,,,,,,,,,,,,,,,,11,,77,48
38609,note_on,,29,0,7,,,,,,,,,,,,,,,,10,,80,0
38609,note_on,,29,0,8,,,,,,,,,,,,,,,,11,,77,0
38610,note_on,,1,0,7,,,,,,,,,,,,,,,,10,,82,48
38610,note_on,,1,0,8,,,,,,,,,,,,,,,,11,,79,48
38639,note_on,,0,0,11,,,,,,,,,,,,,,,,15,,63,0
38639,note_on,,29,0,7,,,,,,,,,,,,,,,,10,,82,0
38639,note_on,,0,0,11,,,,,,,,,,,,,,,,15,,51,0
38639,note_on,,0,0,11,,,,,,,,,,,,,,,,15,,58,0
38639,note_on,,29,0,8,,,,,,,,,,,,,,,,11,,79,0
38639,note_on,,119,0,10,,,,,,,,,,,,,,,,13,,51,0
38639,note_on,,119,0,11,,,,,,,,,,,,,,,,15,,67,0
38639,note_on,,119,0,9,,,,,,,,,,,,,,,,12,,70,0
38640,note_on,,1,0,8,,,,,,,,,,,,,,,,11,,77,48
38640,note_on,,1,0,10,,,,,,,,,,,,,,,,13,,44,48
38640,note_on,,1,0,11,,,,,,,,,,,,,,,,15,,72,48
38640,note_on,,0,0,11,,,,,,,,,,,,,,,,15,,44,48
38640,note_on,,1,0,7,,,,,,,,,,,,,,,,10,,80,48
38640,note_on,,0,0,11,,,,,,,,,,,,,,,,15,,56,48
38640,note_on,,0,0,11,,,,,,,,,,,,,,,,15,,63,48
38640,note_on,,1,0,9,,,,,,,,,,,,,,,,12,,72,48
38699,note_on,,59,0,7,,,,,,,,,,,,,,,,10,,80,0
38699,note_on,,59,0,8,,,,,,,,,,,,,,,,11,,77,0
38700,note_on,,1,0,7,,,,,,,,,,,,,,,,10,,79,48
38700,note_on,,1,0,8,,,,,,,,,,,,,,,,11,,75,48
38759,note_on,,119,0,9,,,,,,,,,,,,,,,,12,,72,0
38759,note_on,,59,0,8,,,,,,,,,,,,,,,,11,,75,0
38759,note_on,,0,0,11,,,,,,,,,,,,,,,,15,,44,0
38759,note_on,,0,0,11,,,,,,,,,,,,,,,,15,,56,0
38759,note_on,,0,0,11,,,,,,,,,,,,,,,,15,,63,0
38759,note_on,,119,0,10,,,,,,,,,,,,,,,,13,,44,0
38759,note_on,,59,0,7,,,,,,,,,,,,,,,,10,,79,0
38759,note_on,,119,0,11,,,,,,,,,,,,,,,,15,,72,0
38760,note_on,,1,0,10,,,,,,,,,,,,,,,,13,,46,48
38760,note_on,,1,0,7,,,,,,,,,,,,,,,,10,,77,40
38760,note_on,,1,0,11,,,,,,,,,,,,,,,,15,,53,40
38760,note_on,,1,0,9,,,,,,,,,,,,,,,,12,,70,40
38760,note_on,,1,0,8,,,,,,,,,,,,,,,,11,,74,40
38760,note_on,,0,0,11,,,,,,,,,,,,,,,,15,,46,40
38760,note_on,,0,0,11,,,,,,,,,,,,,,,,15,,58,40
38760,note_on,,0,0,11,,,,,,,,,,,,,,,,15,,65,40
38760,note_on,,0,0,11,,,,,,,,,,,,,,,,15,,62,40
38820,note_on,,421,0,6,,,,,,,,,,,,,,,,6,,65,60
38879,note_on,,59,0,6,,,,,,,,,,,,,,,,6,,65,0
38880,note_on,,1,0,6,,,,,,,,,,,,,,,,6,,70,65
38939,note_on,,59,0,6,,,,,,,,,,,,,,,,6,,70,0
38940,note_on,,1,0,6,,,,,,,,,,,,,,,,6,,68,61
38999,note_on,,59,0,6,,,,,,,,,,,,,,,,6,,68,0
38999,note_on,,239,0,9,,,,,,,,,,,,,,,,12,,70,0
38999,note_on,,0,0,11,,,,,,,,,,,,,,,,15,,58,0
38999,note_on,,239,0,11,,,,,,,,,,,,,,,,15,,53,0
38999,note_on,,239,0,8,,,,,,,,,,,,,,,,11,,74,0
38999,note_on,,239,0,7,,,,,,,,,,,,,,,,10,,77,0
38999,note_on,,0,0,11,,,,,,,,,,,,,,,,15,,62,0
38999,note_on,,0,0,11,,,,,,,,,,,,,,,,15,,65,0
39000,note_on,,1,0,8,,,,,,,,,,,,,,,,11,,67,40
39000,note_on,,1,0,11,,,,,,,,,,,,,,,,15,,51,40
39000,note_on,,1,0,9,,,,,,,,,,,,,,,,12,,58,40
39000,note_on,,1,0,6,,,,,,,,,,,,,,,,6,,67,66
39015,note_on,,15,0,11,,,,,,,,,,,,,,,,15,,58,40
39030,note_on,,15,0,11,,,,,,,,,,,,,,,,15,,63,40
39044,note_on,,44,0,6,,,,,,,,,,,,,,,,6,,67,0
39045,note_on,,1,0,6,,,,,,,,,,,,,,,,6,,70,66
39045,note_on,,15,0,11,,,,,,,,,,,,,,,,15,,67,40
39059,note_on,,14,0,6,,,,,,,,,,,,,,,,6,,70,0
39060,note_on,,1,0,6,,,,,,,,,,,,,,,,6,,68,64
39089,note_on,,29,0,6,,,,,,,,,,,,,,,,6,,68,0
39090,note_on,,1,0,6,,,,,,,,,,,,,,,,6,,67,65
39119,note_on,,29,0,6,,,,,,,,,,,,,,,,6,,67,0
39120,note_on,,1,0,6,,,,,,,,,,,,,,,,6,,65,66
39179,note_on,,59,0,6,,,,,,,,,,,,,,,,6,,65,0
39180,note_on,,1,0,6,,,,,,,,,,,,,,,,6,,63,60
39239,note_on,,0,0,11,,,,,,,,,,,,,,,,15,,58,0
39239,note_on,,0,0,11,,,,,,,,,,,,,,,,15,,67,0
39239,note_on,,239,0,9,,,,,,,,,,,,,,,,12,,58,0
39239,note_on,,0,0,11,,,,,,,,,,,,,,,,15,,63,0
39239,note_on,,59,0,6,,,,,,,,,,,,,,,,6,,63,0
39239,note_on,,239,0,8,,,,,,,,,,,,,,,,11,,67,0
39239,note_on,,194,0,11,,,,,,,,,,,,,,,,15,,51,0
39240,note_on,,1,0,6,,,,,,,,,,,,,,,,6,,62,61
39240,note_on,,1,0,8,,,,,,,,,,,,,,,,11,,74,40
39240,note_on,,1,0,9,,,,,,,,,,,,,,,,12,,65,40
39240,note_on,,1,0,11,,,,,,,,,,,,,,,,15,,50,40
39255,note_on,,15,0,11,,,,,,,,,,,,,,,,15,,58,40
39269,note_on,,29,0,6,,,,,,,,,,,,,,,,6,,62,0
39270,note_on,,15,0,11,,,,,,,,,,,,,,,,15,,65,40
39270,note_on,,1,0,6,,,,,,,,,,,,,,,,6,,60,65
39285,note_on,,15,0,11,,,,,,,,,,,,,,,,15,,70,40
39299,note_on,,29,0,6,,,,,,,,,,,,,,,,6,,60,0
39300,note_on,,301,0,7,,,,,,,,,,,,,,,,10,,70,40
39300,note_on,,1,0,6,,,,,,,,,,,,,,,,6,,58,64
39359,note_on,,59,0,7,,,,,,,,,,,,,,,,10,,70,0
39359,note_on,,59,0,6,,,,,,,,,,,,,,,,6,,58,0
39360,note_on,,1,0,7,,,,,,,,,,,,,,,,10,,82,40
39419,note_on,,59,0,7,,,,,,,,,,,,,,,,10,,82,0
39420,note_on,,1,0,7,,,,,,,,,,,,,,,,10,,80,40
39479,note_on,,239,0,9,,,,,,,,,,,,,,,,12,,65,0
39479,note_on,,239,0,8,,,,,,,,,,,,,,,,11,,74,0
39479,note_on,,0,0,11,,,,,,,,,,,,,,,,15,,50,0
39479,note_on,,0,0,11,,,,,,,,,,,,,,,,15,,58,0
39479,note_on,,0,0,11,,,,,,,,,,,,,,,,15,,65,0
39479,note_on,,194,0,11,,,,,,,,,,,,,,,,15,,46,0
39479,note_on,,0,0,11,,,,,,,,,,,,,,,,15,,70,0
39479,note_on,,719,0,10,,,,,,,,,,,,,,,,13,,46,0
39479,note_on,,59,0,7,,,,,,,,,,,,,,,,10,,80,0
39480,note_on,,1,0,9,,,,,,,,,,,,,,,,12,,63,40
39480,note_on,,0,0,11,,,,,,,,,,,,,,,,15,,51,40
39480,note_on,,1,0,7,,,,,,,,,,,,,,,,10,,79,40
39480,note_on,,1,0,11,,,,,,,,,,,,,,,,15,,46,40
39480,note_on,,1,0,10,,,,,,,,,,,,,,,,13,,46,48
39480,note_on,,1,0,8,,,,,,,,,,,,,,,,11,,70,40
39495,note_on,,15,0,11,,,,,,,,,,,,,,,,15,,58,40
39510,note_on,,15,0,11,,,,,,,,,,,,,,,,15,,63,40
39525,note_on,,15,0,11,,,,,,,,,,,,,,,,15,,67,40
39539,note_on,,59,0,7,,,,,,,,,,,,,,,,10,,79,0
39540,note_on,,1,0,7,,,,,,,,,,,,,,,,10,,80,40
39540,note_on,,15,0,11,,,,,,,,,,,,,,,,15,,70,40
39569,note_on,,29,0,7,,,,,,,,,,,,,,,,10,,80,0
39570,note_on,,1,0,7,,,,,,,,,,,,,,,,10,,79,40
39599,note_on,,119,0,8,,,,,,,,,,,,,,,,11,,70,0
39599,note_on,,119,0,9,,,,,,,,,,,,,,,,12,,63,0
39599,note_on,,29,0,7,,,,,,,,,,,,,,,,10,,79,0
39600,note_on,,1,0,8,,,,,,,,,,,,,,,,11,,68,40
39600,note_on,,1,0,7,,,,,,,,,,,,,,,,10,,77,40
39600,note_on,,1,0,9,,,,,,,,,,,,,,,,12,,65,40
39659,note_on,,59,0,7,,,,,,,,,,,,,,,,10,,77,0
39659,note_on,,59,0,8,,,,,,,,,,,,,,,,11,,68,0
39659,note_on,,59,0,9,,,,,,,,,,,,,,,,12,,65,0
39660,note_on,,1,0,7,,,,,,,,,,,,,,,,10,,75,40
39660,note_on,,1,0,8,,,,,,,,,,,,,,,,11,,67,40
39660,note_on,,1,0,9,,,,,,,,,,,,,,,,12,,58,40
39719,note_on,,0,0,11,,,,,,,,,,,,,,,,15,,63,0
39719,note_on,,0,0,11,,,,,,,,,,,,,,,,15,,67,0
39719,note_on,,0,0,11,,,,,,,,,,,,,,,,15,,70,0
39719,note_on,,59,0,9,,,,,,,,,,,,,,,,12,,58,0
39719,note_on,,0,0,11,,,,,,,,,,,,,,,,15,,58,0
39719,note_on,,59,0,7,,,,,,,,,,,,,,,,10,,75,0
39719,note_on,,179,0,11,,,,,,,,,,,,,,,,15,,51,0
39719,note_on,,59,0,8,,,,,,,,,,,,,,,,11,,67,0
39720,note_on,,1,0,7,,,,,,,,,,,,,,,,10,,74,40
39720,note_on,,1,0,9,,,,,,,,,,,,,,,,12,,58,40
39720,note_on,,1,0,11,,,,,,,,,,,,,,,,15,,50,40
39720,note_on,,1,0,8,,,,,,,,,,,,,,,,11,,65,40
39735,note_on,,15,0,11,,,,,,,,,,,,,,,,15,,58,40
39750,note_on,,15,0,11,,,,,,,,,,,,,,,,15,,65,40
39765,note_on,,15,0,11,,,,,,,,,,,,,,,,15,,70,40
39780,note_on,,15,0,11,,,,,,,,,,,,,,,,15,,74,40
39780,note_on,,421,0,6,,,,,,,,,,,,,,,,6,,65,61
39839,note_on,,59,0,6,,,,,,,,,,,,,,,,6,,65,0
39840,note_on,,1,0,6,,,,,,,,,,,,,,,,6,,70,60
39899,note_on,,59,0,6,,,,,,,,,,,,,,,,6,,70,0
39900,note_on,,1,0,6,,,,,,,,,,,,,,,,6,,68,61
39959,note_on,,239,0,9,,,,,,,,,,,,,,,,12,,58,0
39959,note_on,,0,0,11,,,,,,,,,,,,,,,,15,,70,0
39959,note_on,,0,0,11,,,,,,,,,,,,,,,,15,,50,0
39959,note_on,,0,0,11,,,,,,,,,,,,,,,,15,,74,0
39959,note_on,,0,0,11,,,,,,,,,,,,,,,,15,,58,0
39959,note_on,,179,0,11,,,,,,,,,,,,,,,,15,,46,0
39959,note_on,,59,0,6,,,,,,,,,,,,,,,,6,,68,0
39959,note_on,,239,0,8,,,,,,,,,,,,,,,,11,,65,0
39959,note_on,,0,0,11,,,,,,,,,,,,,,,,15,,65,0
39959,note_on,,239,0,7,,,,,,,,,,,,,,,,10,,74,0
39959,note_on,,479,0,10,,,,,,,,,,,,,,,,13,,46,0
39960,note_on,,1,0,11,,,,,,,,,,,,,,,,15,,46,40
39960,note_on,,0,0,11,,,,,,,,,,,,,,,,15,,55,40
39960,note_on,,1,0,6,,,,,,,,,,,,,,,,6,,67,64
39960,note_on,,1,0,8,,,,,,,,,,,,,,,,11,,67,40
39960,note_on,,1,0,7,,,,,,,,,,,,,,,,10,,70,40
39960,note_on,,1,0,9,,,,,,,,,,,,,,,,12,,63,40
39960,note_on,,1,0,10,,,,,,,,,,,,,,,,13,,46,48
39975,note_on,,15,0,11,,,,,,,,,,,,,,,,15,,58,40
39990,note_on,,15,0,11,,,,,,,,,,,,,,,,15,,63,40
40005,note_on,,15,0,11,,,,,,,,,,,,,,,,15,,70,40
40019,note_on,,59,0,6,,,,,,,,,,,,,,,,6,,67,0
40020,note_on,,15,0,11,,,,,,,,,,,,,,,,15,,75,40
40020,note_on,,1,0,6,,,,,,,,,,,,,,,,6,,68,62
40049,note_on,,29,0,6,,,,,,,,,,,,,,,,6,,68,0
40050,note_on,,1,0,6,,,,,,,,,,,,,,,,6,,67,62
40079,note_on,,29,0,6,,,,,,,,,,,,,,,,6,,67,0
40080,note_on,,1,0,6,,,,,,,,,,,,,,,,6,,65,62
40139,note_on,,59,0,6,,,,,,,,,,,,,,,,6,,65,0
40140,note_on,,1,0,6,,,,,,,,,,,,,,,,6,,63,65
40199,note_on,,239,0,8,,,,,,,,,,,,,,,,11,,67,0
40199,note_on,,179,0,11,,,,,,,,,,,,,,,,15,,46,0
40199,note_on,,0,0,11,,,,,,,,,,,,,,,,15,,55,0
40199,note_on,,239,0,9,,,,,,,,,,,,,,,,12,,63,0
40199,note_on,,239,0,7,,,,,,,,,,,,,,,,10,,70,0
40199,note_on,,239,0,10,,,,,,,,,,,,,,,,13,,46,0
40199,note_on,,0,0,11,,,,,,,,,,,,,,,,15,,75,0
40199,note_on,,0,0,11,,,,,,,,,,,,,,,,15,,58,0
40199,note_on,,0,0,11,,,,,,,,,,,,,,,,15,,70,0
40199,note_on,,59,0,6,,,,,,,,,,,,,,,,6,,63,0
40199,note_on,,0,0,11,,,,,,,,,,,,,,,,15,,63,0
40200,note_on,,1,0,11,,,,,,,,,,,,,,,,15,,53,40
40200,note_on,,0,0,11,,,,,,,,,,,,,,,,15,,46,40
40200,note_on,,1,0,8,,,,,,,,,,,,,,,,11,,70,40
40200,note_on,,1,0,10,,,,,,,,,,,,,,,,13,,46,48
40200,note_on,,0,0,11,,,,,,,,,,,,,,,,15,,58,40
40200,note_on,,1,0,7,,,,,,,,,,,,,,,,10,,74,40
40200,note_on,,1,0,6,,,,,,,,,,,,,,,,6,,62,66
40200,note_on,,1,0,9,,,,,,,,,,,,,,,,12,,65,40
40215,note_on,,15,0,11,,,,,,,,,,,,,,,,15,,62,40
40229,note_on,,29,0,6,,,,,,,,,,,,,,,,6,,62,0
40230,note_on,,15,0,11,,,,,,,,,,,,,,,,15,,70,40
40230,note_on,,1,0,6,,,,,,,,,,,,,,,,6,,60,66
40245,note_on,,15,0,11,,,,,,,,,,,,,,,,15,,77,40
40259,note_on,,29,0,6,,,,,,,,,,,,,,,,6,,60,0
40260,note_on,,1,0,6,,,,,,,,,,,,,,,,6,,58,64
40319,note_on,,0,0,11,,,,,,,,,,,,,,,,15,,77,0
40319,note_on,,0,0,11,,,,,,,,,,,,,,,,15,,70,0
40319,note_on,,0,0,11,,,,,,,,,,,,,,,,15,,58,0
40319,note_on,,0,0,11,,,,,,,,,,,,,,,,15,,46,0
40319,note_on,,119,0,8,,,,,,,,,,,,,,,,11,,70,0
40319,note_on,,74,0,11,,,,,,,,,,,,,,,,15,,53,0
40319,note_on,,0,0,11,,,,,,,,,,,,,,,,15,,62,0
40319,note_on,,119,0,10,,,,,,,,,,,,,,,,13,,46,0
40319,note_on,,119,0,7,,,,,,,,,,,,,,,,10,,74,0
40319,note_on,,59,0,6,,,,,,,,,,,,,,,,6,,58,0
40319,note_on,,119,0,9,,,,,,,,,,,,,,,,12,,65,0
40320,note_on,,1,0,10,,,,,,,,,,,,,,,,13,,50,48
40320,note_on,,1,0,6,,,,,,,,,,,,,,,,6,,65,64
40320,note_on,,1,0,11,,,,,,,,,,,,,,,,15,,50,40
40320,note_on,,0,0,11,,,,,,,,,,,,,,,,15,,70,40
40320,note_on,,0,0,11,,,,,,,,,,,,,,,,15,,58,40
40320,note_on,,0,0,11,,,,,,,,,,,,,,,,15,,65,40
40349,note_on,,29,0,6,,,,,,,,,,,,,,,,6,,65,0
40350,note_on,,1,0,6,,,,,,,,,,,,,,,,6,,67,66
40364,note_on,,14,0,6,,,,,,,,,,,,,,,,6,,67,0
40365,note_on,,1,0,6,,,,,,,,,,,,,,,,6,,69,67
40379,note_on,,0,0,11,,,,,,,,,,,,,,,,15,,65,0
40379,note_on,,14,0,6,,,,,,,,,,,,,,,,6,,69,0
40379,note_on,,59,0,11,,,,,,,,,,,,,,,,15,,50,0
40379,note_on,,0,0,11,,,,,,,,,,,,,,,,15,,70,0
40379,note_on,,59,0,10,,,,,,,,,,,,,,,,13,,50,0
40379,note_on,,0,0,11,,,,,,,,,,,,,,,,15,,58,0
40380,note_on,,1,0,11,,,,,,,,,,,,,,,,15,,65,40
40380,note_on,,0,0,11,,,,,,,,,,,,,,,,15,,46,40
40380,note_on,,1,0,6,,,,,,,,,,,,,,,,6,,70,61
40380,note_on,,1,0,10,,,,,,,,,,,,,,,,13,,46,48
40380,note_on,,0,0,11,,,,,,,,,,,,,,,,15,,58,40
40380,note_on,,0,0,11,,,,,,,,,,,,,,,,15,,74,40
40380,note_on,,0,0,11,,,,,,,,,,,,,,,,15,,70,40
40424,note_on,,44,0,6,,,,,,,,,,,,,,,,6,,70,0
40425,note_on,,1,0,6,,,,,,,,,,,,,,,,6,,70,65
40439,note_on,,0,0,11,,,,,,,,,,,,,,,,15,,70,0
40439,note_on,,59,0,10,,,,,,,,,,,,,,,,13,,46,0
40439,note_on,,0,0,11,,,,,,,,,,,,,,,,15,,46,0
40439,note_on,,0,0,11,,,,,,,,,,,,,,,,15,,58,0
40439,note_on,,0,0,11,,,,,,,,,,,,,,,,15,,74,0
40439,note_on,,14,0,6,,,,,,,,,,,,,,,,6,,70,0
40439,note_on,,59,0,11,,,,,,,,,,,,,,,,15,,65,0
40440,note_on,,1,0,6,,,,,,,,,,,,,,,,6,,69,63
40440,note_on,,0,0,11,,,,,,,,,,,,,,,,15,,69,40
40440,note_on,,0,0,11,,,,,,,,,,,,,,,,15,,60,40
40440,note_on,,1,0,10,,,,,,,,,,,,,,,,13,,53,48
40440,note_on,,1,0,11,,,,,,,,,,,,,,,,15,,65,40
40440,note_on,,0,0,11,,,,,,,,,,,,,,,,15,,72,40
40440,note_on,,0,0,11,,,,,,,,,,,,,,,,15,,53,40
40469,note_on,,29,0,6,,,,,,,,,,,,,,,,6,,69,0
40470,note_on,,1,0,6,,,,,,,,,,,,,,,,6,,67,62
40499,note_on,,29,0,6,,,,,,,,,,,,,,,,6,,67,0
40500,note_on,,1,0,6,,,,,,,,,,,,,,,,6,,65,61
40500,note_on,,181,0,8,,,,,,,,,,,,,,,,11,,69,40
40500,note_on,,181,0,7,,,,,,,,,,,,,,,,10,,77,40
40559,note_on,,0,0,11,,,,,,,,,,,,,,,,15,,60,0
40559,note_on,,0,0,11,,,,,,,,,,,,,,,,15,,69,0
40559,note_on,,0,0,11,,,,,,,,,,,,,,,,15,,72,0
40559,note_on,,59,0,8,,,,,,,,,,,,,,,,11,,69,0
40559,note_on,,59,0,7,,,,,,,,,,,,,,,,10,,77,0
40559,note_on,,59,0,6,,,,,,,,,,,,,,,,6,,65,0
40559,note_on,,119,0,11,,,,,,,,,,,,,,,,15,,65,0
40560,note_on,,0,0,11,,,,,,,,,,,,,,,,15,,65,40
40560,note_on,,1,0,7,,,,,,,,,,,,,,,,10,,73,40
40560,note_on,,1,0,8,,,,,,,,,,,,,,,,11,,70,40
40560,note_on,,0,0,11,,,,,,,,,,,,,,,,15,,70,40
40560,note_on,,1,0,11,,,,,,,,,,,,,,,,15,,61,40
40619,note_on,,59,0,11,,,,,,,,,,,,,,,,15,,61,0
40619,note_on,,59,0,8,,,,,,,,,,,,,,,,11,,70,0
40619,note_on,,0,0,11,,,,,,,,,,,,,,,,15,,70,0
40619,note_on,,59,0,7,,,,,,,,,,,,,,,,10,,73,0
40620,note_on,,0,0,11,,,,,,,,,,,,,,,,15,,69,40
40620,note_on,,1,0,7,,,,,,,,,,,,,,,,10,,69,40
40620,note_on,,301,0,9,,,,,,,,,,,,,,,,12,,60,40
40620,note_on,,61,0,6,,,,,,,,,,,,,,,,6,,65,66
40620,note_on,,1,0,8,,,,,,,,,,,,,,,,11,,65,40
40620,note_on,,1,0,11,,,,,,,,,,,,,,,,15,,60,40
40679,note_on,,59,0,9,,,,,,,,,,,,,,,,12,,60,0
40679,note_on,,59,0,11,,,,,,,,,,,,,,,,15,,65,0
40679,note_on,,0,0,11,,,,,,,,,,,,,,,,15,,69,0
40679,note_on,,0,0,11,,,,,,,,,,,,,,,,15,,60,0
40679,note_on,,59,0,7,,,,,,,,,,,,,,,,10,,69,0
40679,note_on,,59,0,6,,,,,,,,,,,,,,,,6,,65,0
40679,note_on,,59,0,8,,,,,,,,,,,,,,,,11,,65,0
40680,note_on,,1,0,7,,,,,,,,,,,,,,,,10,,70,40
40680,note_on,,1,0,11,,,,,,,,,,,,,,,,15,,61,40
40680,note_on,,0,0,11,,,,,,,,,,,,,,,,15,,70,40
40680,note_on,,0,0,11,,,,,,,,,,,,,,,,15,,66,40
40680,note_on,,1,0,9,,,,,,,,,,,,,,,,12,,61,40
40680,note_on,,1,0,6,,,,,,,,,,,,,,,,6,,66,60
40680,note_on,,1,0,8,,,,,,,,,,,,,,,,11,,66,40
40799,note_on,,119,0,9,,,,,,,,,,,,,,,,12,,61,0
40799,note_on,,119,0,11,,,,,,,,,,,,,,,,15,,53,0
40799,note_on,,0,0,11,,,,,,,,,,,,,,,,15,,61,0
40799,note_on,,359,0,10,,,,,,,,,,,,,,,,13,,53,0
40800,note_on,,1,0,11,,,,,,,,,,,,,,,,15,,60,40
40800,note_on,,1,0,9,,,,,,,,,,,,,,,,12,,60,40
40800,note_on,,1,0,10,,,,,,,,,,,,,,,,13,,51,48
40800,note_on,,0,0,11,,,,,,,,,,,,,,,,15,,51,40
40859,note_on,,179,0,6,,,,,,,,,,,,,,,,6,,66,0
40859,note_on,,179,0,7,,,,,,,,,,,,,,,,10,,70,0
40859,note_on,,179,0,8,,,,,,,,,,,,,,,,11,,66,0
40860,note_on,,1,0,6,,,,,,,,,,,,,,,,6,,68,63
40860,note_on,,1,0,8,,,,,,,,,,,,,,,,11,,68,40
40860,note_on,,1,0,7,,,,,,,,,,,,,,,,10,,72,40
40889,note_on,,29,0,6,,,,,,,,,,,,,,,,6,,68,0
40889,note_on,,29,0,7,,,,,,,,,,,,,,,,10,,72,0
40889,note_on,,29,0,8,,,,,,,,,,,,,,,,11,,68,0
40890,note_on,,1,0,6,,,,,,,,,,,,,,,,6,,66,64
40890,note_on,,1,0,8,,,,,,,,,,,,,,,,11,,66,40
40890,note_on,,1,0,7,,,,,,,,,,,,,,,,10,,70,40
40919,note_on,,119,0,11,,,,,,,,,,,,,,,,15,,70,0
40919,note_on,,0,0,11,,,,,,,,,,,,,,,,15,,66,0
40919,note_on,,29,0,8,,,,,,,,,,,,,,,,11,,66,0
40919,note_on,,29,0,7,,,,,,,,,,,,,,,,10,,70,0
40919,note_on,,29,0,6,,,,,,,,,,,,,,,,6,,66,0
40920,note_on,,0,0,11,,,,,,,,,,,,,,,,15,,69,40
40920,note_on,,1,0,7,,,,,,,,,,,,,,,,10,,69,40
40920,note_on,,1,0,11,,,,,,,,,,,,,,,,15,,72,40
40920,note_on,,1,0,6,,,,,,,,,,,,,,,,6,,65,62
40920,note_on,,0,0,11,,,,,,,,,,,,,,,,15,,65,40
40920,note_on,,1,0,8,,,,,,,,,,,,,,,,11,,65,40
41039,note_on,,239,0,9,,,,,,,,,,,,,,,,12,,60,0
41039,note_on,,119,0,7,,,,,,,,,,,,,,,,10,,69,0
41039,note_on,,119,0,11,,,,,,,,,,,,,,,,15,,60,0
41039,note_on,,0,0,11,,,,,,,,,,,,,,,,15,,51,0
41039,note_on,,0,0,11,,,,,,,,,,,,,,,,15,,72,0
41039,note_on,,0,0,11,,,,,,,,,,,,,,,,15,,65,0
41039,note_on,,0,0,11,,,,,,,,,,,,,,,,15,,69,0
41039,note_on,,119,0,6,,,,,,,,,,,,,,,,6,,65,0
41039,note_on,,239,0,10,,,,,,,,,,,,,,,,13,,51,0
41040,note_on,,1,0,10,,,,,,,,,,,,,,,,13,,50,48
41040,note_on,,1,0,7,,,,,,,,,,,,,,,,10,,70,40
41040,note_on,,1,0,9,,,,,,,,,,,,,,,,12,,58,40
41040,note_on,,0,0,11,,,,,,,,,,,,,,,,15,,74,40
41040,note_on,,0,0,11,,,,,,,,,,,,,,,,15,,65,40
41040,note_on,,0,0,11,,,,,,,,,,,,,,,,15,,70,40
41040,note_on,,1,0,11,,,,,,,,,,,,,,,,15,,50,40
41040,note_on,,0,0,11,,,,,,,,,,,,,,,,15,,58,40
41100,note_on,,61,0,6,,,,,,,,,,,,,,,,6,,65,64
41159,note_on,,119,0,11,,,,,,,,,,,,,,,,15,,50,0
41159,note_on,,239,0,8,,,,,,,,,,,,,,,,11,,65,0
41159,note_on,,119,0,10,,,,,,,,,,,,,,,,13,,50,0
41159,note_on,,59,0,6,,,,,,,,,,,,,,,,6,,65,0
41159,note_on,,119,0,9,,,,,,,,,,,,,,,,12,,58,0
41159,note_on,,0,0,11,,,,,,,,,,,,,,,,15,,58,0
41159,note_on,,0,0,11,,,,,,,,,,,,,,,,15,,65,0
41159,note_on,,0,0,11,,,,,,,,,,,,,,,,15,,70,0
41159,note_on,,0,0,11,,,,,,,,,,,,,,,,15,,74,0
41160,note_on,,0,0,11,,,,,,,,,,,,,,,,15,,75,40
41160,note_on,,0,0,11,,,,,,,,,,,,,,,,15,,51,40
41160,note_on,,1,0,6,,,,,,,,,,,,,,,,6,,65,61
41160,note_on,,0,0,11,,,,,,,,,,,,,,,,15,,70,40
41160,note_on,,0,0,11,,,,,,,,,,,,,,,,15,,48,40
41160,note_on,,1,0,10,,,,,,,,,,,,,,,,13,,48,48
41160,note_on,,1,0,11,,,,,,,,,,,,,,,,15,,67,40
41160,note_on,,1,0,9,,,,,,,,,,,,,,,,12,,63,40
41160,note_on,,1,0,8,,,,,,,,,,,,,,,,11,,60,40
41189,note_on,,29,0,6,,,,,,,,,,,,,,,,6,,65,0
41190,note_on,,1,0,6,,,,,,,,,,,,,,,,6,,63,62
41279,note_on,,119,0,11,,,,,,,,,,,,,,,,15,,67,0
41279,note_on,,0,0,11,,,,,,,,,,,,,,,,15,,70,0
41279,note_on,,119,0,8,,,,,,,,,,,,,,,,11,,60,0
41279,note_on,,239,0,7,,,,,,,,,,,,,,,,10,,70,0
41280,note_on,,1,0,7,,,,,,,,,,,,,,,,10,,69,40
41280,note_on,,1,0,11,,,,,,,,,,,,,,,,15,,63,40
41280,note_on,,1,0,8,,,,,,,,,,,,,,,,11,,63,40
41280,note_on,,0,0,11,,,,,,,,,,,,,,,,15,,69,40
41339,note_on,,149,0,6,,,,,,,,,,,,,,,,6,,63,0
41340,note_on,,1,0,6,,,,,,,,,,,,,,,,6,,63,60
41399,note_on,,119,0,7,,,,,,,,,,,,,,,,10,,69,0
41399,note_on,,239,0,9,,,,,,,,,,,,,,,,12,,63,0
41399,note_on,,119,0,8,,,,,,,,,,,,,,,,11,,63,0
41399,note_on,,59,0,6,,,,,,,,,,,,,,,,6,,63,0
41399,note_on,,119,0,11,,,,,,,,,,,,,,,,15,,48,0
41399,note_on,,0,0,11,,,,,,,,,,,,,,,,15,,75,0
41399,note_on,,0,0,11,,,,,,,,,,,,,,,,15,,51,0
41399,note_on,,0,0,11,,,,,,,,,,,,,,,,15,,63,0
41399,note_on,,0,0,11,,,,,,,,,,,,,,,,15,,69,0
41399,note_on,,239,0,10,,,,,,,,,,,,,,,,13,,48,0
41400,note_on,,1,0,10,,,,,,,,,,,,,,,,13,,46,48
41400,note_on,,0,0,11,,,,,,,,,,,,,,,,15,,65,40
41400,note_on,,1,0,8,,,,,,,,,,,,,,,,11,,62,40
41400,note_on,,1,0,11,,,,,,,,,,,,,,,,15,,70,40
41400,note_on,,0,0,11,,,,,,,,,,,,,,,,15,,46,40
41400,note_on,,0,0,11,,,,,,,,,,,,,,,,15,,58,40
41400,note_on,,0,0,11,,,,,,,,,,,,,,,,15,,74,40
41400,note_on,,1,0,6,,,,,,,,,,,,,,,,6,,70,66
41400,note_on,,1,0,9,,,,,,,,,,,,,,,,12,,65,40
41400,note_on,,1,0,7,,,,,,,,,,,,,,,,10,,70,40
41489,note_on,,89,0,6,,,,,,,,,,,,,,,,6,,70,0
41490,note_on,,1,0,6,,,,,,,,,,,,,,,,6,,69,61
41519,note_on,,0,0,11,,,,,,,,,,,,,,,,15,,58,0
41519,note_on,,0,0,11,,,,,,,,,,,,,,,,15,,65,0
41519,note_on,,0,0,11,,,,,,,,,,,,,,,,15,,46,0
41519,note_on,,0,0,11,,,,,,,,,,,,,,,,15,,74,0
41519,note_on,,119,0,10,,,,,,,,,,,,,,,,13,,46,0
41519,note_on,,119,0,11,,,,,,,,,,,,,,,,15,,70,0
41519,note_on,,29,0,6,,,,,,,,,,,,,,,,6,,69,0
41519,note_on,,119,0,8,,,,,,,,,,,,,,,,11,,62,0
41519,note_on,,119,0,7,,,,,,,,,,,,,,,,10,,70,0
41519,note_on,,119,0,9,,,,,,,,,,,,,,,,12,,65,0
41520,note_on,,1,0,6,,,,,,,,,,,,,,,,6,,67,62
41520,note_on,,1,0,11,,,,,,,,,,,,,,,,15,,51,40
41520,note_on,,0,0,11,,,,,,,,,,,,,,,,15,,75,40
41520,note_on,,0,0,11,,,,,,,,,,,,,,,,15,,55,40
41520,note_on,,0,0,11,,,,,,,,,,,,,,,,15,,70,40
41520,note_on,,1,0,10,,,,,,,,,,,,,,,,13,,51,48
41520,note_on,,0,0,11,,,,,,,,,,,,,,,,15,,67,40
41579,note_on,,59,0,6,,,,,,,,,,,,,,,,6,,67,0
41580,note_on,,1,0,6,,,,,,,,,,,,,,,,6,,65,66
41609,note_on,,29,0,6,,,,,,,,,,,,,,,,6,,65,0
41610,note_on,,1,0,6,,,,,,,,,,,,,,,,6,,63,67
41639,note_on,,29,0,6,,,,,,,,,,,,,,,,6,,63,0
41639,note_on,,119,0,10,,,,,,,,,,,,,,,,13,,51,0
41639,note_on,,119,0,11,,,,,,,,,,,,,,,,15,,51,0
41639,note_on,,0,0,11,,,,,,,,,,,,,,,,15,,67,0
41639,note_on,,0,0,11,,,,,,,,,,,,,,,,15,,75,0
41639,note_on,,0,0,11,,,,,,,,,,,,,,,,15,,55,0
41639,note_on,,0,0,11,,,,,,,,,,,,,,,,15,,70,0
41640,note_on,,1,0,6,,,,,,,,,,,,,,,,6,,62,66
41640,note_on,,0,0,11,,,,,,,,,,,,,,,,15,,53,40
41640,note_on,,1,0,11,,,,,,,,,,,,,,,,15,,65,40
41640,note_on,,0,0,11,,,,,,,,,,,,,,,,15,,70,40
41640,note_on,,0,0,11,,,,,,,,,,,,,,,,15,,62,40
41640,note_on,,1,0,10,,,,,,,,,,,,,,,,13,,53,48
41699,note_on,,59,0,11,,,,,,,,,,,,,,,,15,,62,0
41700,note_on,,1,0,11,,,,,,,,,,,,,,,,15,,63,40
41759,note_on,,0,0,11,,,,,,,,,,,,,,,,15,,63,0
41759,note_on,,59,0,11,,,,,,,,,,,,,,,,15,,65,0
41759,note_on,,119,0,10,,,,,,,,,,,,,,,,13,,53,0
41760,note_on,,1,0,10,,,,,,,,,,,,,,,,13,,41,48
41760,note_on,,0,0,11,,,,,,,,,,,,,,,,15,,65,40
41760,note_on,,1,0,11,,,,,,,,,,,,,,,,15,,41,40
41804,note_on,,164,0,6,,,,,,,,,,,,,,,,6,,62,0
41805,note_on,,1,0,6,,,,,,,,,,,,,,,,6,,62,65
41819,note_on,,59,0,11,,,,,,,,,,,,,,,,15,,70,0
41819,note_on,,14,0,6,,,,,,,,,,,,,,,,6,,62,0
41820,note_on,,1,0,6,,,,,,,,,,,,,,,,6,,60,64
41820,note_on,,1,0,11,,,,,,,,,,,,,,,,15,,69,40
41820,note_on,,0,0,11,,,,,,,,,,,,,,,,15,,60,40
41849,note_on,,29,0,6,,,,,,,,,,,,,,,,6,,60,0
41850,note_on,,1,0,6,,,,,,,,,,,,,,,,6,,58,62
41879,note_on,,119,0,10,,,,,,,,,,,,,,,,13,,41,0
41879,note_on,,59,0,11,,,,,,,,,,,,,,,,15,,53,0
41879,note_on,,29,0,6,,,,,,,,,,,,,,,,6,,58,0
41879,note_on,,0,0,11,,,,,,,,,,,,,,,,15,,69,0
41879,note_on,,0,0,11,,,,,,,,,,,,,,,,15,,65,0
41879,note_on,,0,0,11,,,,,,,,,,,,,,,,15,,41,0
41879,note_on,,0,0,11,,,,,,,,,,,,,,,,15,,60,0
41880,note_on,,1,0,6,,,,,,,,,,,,,,,,6,,58,66
41880,note_on,,1,0,10,,,,,,,,,,,,,,,,13,,46,48
41880,note_on,,1,0,11,,,,,,,,,,,,,,,,15,,65,40
41880,note_on,,0,0,11,,,,,,,,,,,,,,,,15,,70,40
41880,note_on,,0,0,11,,,,,,,,,,,,,,,,15,,53,40
41880,note_on,,0,0,11,,,,,,,,,,,,,,,,15,,62,40
41880,note_on,,0,0,11,,,,,,,,,,,,,,,,15,,46,40
42060,note_on,,541,0,8,,,,,,,,,,,,,,,,11,,74,48
42060,note_on,,541,0,7,,,,,,,,,,,,,,,,10,,77,48
42119,note_on,,0,0,11,,,,,,,,,,,,,,,,15,,53,0
42119,note_on,,0,0,11,,,,,,,,,,,,,,,,15,,62,0
42119,note_on,,0,0,11,,,,,,,,,,,,,,,,15,,46,0
42119,note_on,,239,0,6,,,,,,,,,,,,,,,,6,,58,0
42119,note_on,,239,0,10,,,,,,,,,,,,,,,,13,,46,0
42119,note_on,,59,0,8,,,,,,,,,,,,,,,,11,,74,0
42119,note_on,,59,0,7,,,,,,,,,,,,,,,,10,,77,0
42119,note_on,,239,0,11,,,,,,,,,,,,,,,,15,,65,0
42119,note_on,,0,0,11,,,,,,,,,,,,,,,,15,,70,0
42120,note_on,,1,0,7,,,,,,,,,,,,,,,,10,,75,48
42120,note_on,,1,0,8,,,,,,,,,,,,,,,,11,,72,48
42134,note_on,,14,0,7,,,,,,,,,,,,,,,,10,,75,0
42134,note_on,,14,0,8,,,,,,,,,,,,,,,,11,,72,0
42135,note_on,,1,0,8,,,,,,,,,,,,,,,,11,,74,48
42135,note_on,,1,0,7,,,,,,,,,,,,,,,,10,,77,48
42149,note_on,,14,0,7,,,,,,,,,,,,,,,,10,,77,0
42149,note_on,,14,0,8,,,,,,,,,,,,,,,,11,,74,0
42150,note_on,,1,0,7,,,,,,,,,,,,,,,,10,,74,48
42150,note_on,,1,0,8,,,,,,,,,,,,,,,,11,,70,48
42164,note_on,,14,0,7,,,,,,,,,,,,,,,,10,,74,0
42164,note_on,,14,0,8,,,,,,,,,,,,,,,,11,,70,0
42165,note_on,,1,0,7,,,,,,,,,,,,,,,,10,,75,48
42165,note_on,,1,0,8,,,,,,,,,,,,,,,,11,,72,48
42179,note_on,,14,0,7,,,,,,,,,,,,,,,,10,,75,0
42179,note_on,,14,0,8,,,,,,,,,,,,,,,,11,,72,0
42180,note_on,,1,0,8,,,,,,,,,,,,,,,,11,,70,48
42180,note_on,,1,0,7,,,,,,,,,,,,,,,,10,,74,48
42239,note_on,,59,0,8,,,,,,,,,,,,,,,,11,,70,0
42239,note_on,,59,0,7,,,,,,,,,,,,,,,,10,,74,0
42300,note_on,,61,0,8,,,,,,,,,,,,,,,,11,,72,48
42300,note_on,,61,0,7,,,,,,,,,,,,,,,,10,,75,48
42359,note_on,,59,0,7,,,,,,,,,,,,,,,,10,,75,0
42359,note_on,,59,0,8,,,,,,,,,,,,,,,,11,,72,0
42360,note_on,,1,0,7,,,,,,,,,,,,,,,,10,,74,48
42360,note_on,,1,0,8,,,,,,,,,,,,,,,,11,,70,48
42374,note_on,,14,0,7,,,,,,,,,,,,,,,,10,,74,0
42374,note_on,,14,0,8,,,,,,,,,,,,,,,,11,,70,0
42375,note_on,,1,0,8,,,,,,,,,,,,,,,,11,,72,48
42375,note_on,,1,0,7,,,,,,,,,,,,,,,,10,,75,48
42389,note_on,,14,0,7,,,,,,,,,,,,,,,,10,,75,0
42389,note_on,,14,0,8,,,,,,,,,,,,,,,,11,,72,0
42390,note_on,,1,0,7,,,,,,,,,,,,,,,,10,,72,48
42390,note_on,,1,0,8,,,,,,,,,,,,,,,,11,,69,48
42404,note_on,,14,0,7,,,,,,,,,,,,,,,,10,,72,0
42404,note_on,,14,0,8,,,,,,,,,,,,,,,,11,,69,0
42405,note_on,,1,0,7,,,,,,,,,,,,,,,,10,,74,48
42405,note_on,,1,0,8,,,,,,,,,,,,,,,,11,,70,48
42419,note_on,,14,0,8,,,,,,,,,,,,,,,,11,,70,0
42419,note_on,,14,0,7,,,,,,,,,,,,,,,,10,,74,0
42420,note_on,,1,0,7,,,,,,,,,,,,,,,,10,,72,48
42420,note_on,,0,0,11,,,,,,,,,,,,,,,,15,,65,72
42420,note_on,,901,0,9,,,,,,,,,,,,,,,,12,,65,48
42420,note_on,,6421,0,5,,,,,,,,,,,,,,,,2,,41,72
42420,note_on,,1,0,8,,,,,,,,,,,,,,,,11,,69,48
42420,note_on,,301,0,10,,,,,,,,,,,,,,,,13,,41,72
42420,note_on,,0,0,11,,,,,,,,,,,,,,,,15,,72,72
42420,note_on,,0,0,11,,,,,,,,,,,,,,,,15,,69,72
42420,note_on,,301,0,11,,,,,,,,,,,,,,,,15,,41,72
42479,note_on,,59,0,5,,,,,,,,,,,,,,,,2,,41,0
42479,note_on,,59,0,8,,,,,,,,,,,,,,,,11,,69,0
42479,note_on,,0,0,11,,,,,,,,,,,,,,,,15,,65,0
42479,note_on,,59,0,7,,,,,,,,,,,,,,,,10,,72,0
42479,note_on,,0,0,11,,,,,,,,,,,,,,,,15,,69,0
42479,note_on,,0,0,11,,,,,,,,,,,,,,,,15,,72,0
42479,note_on,,59,0,10,,,,,,,,,,,,,,,,13,,41,0
42479,note_on,,59,0,9,,,,,,,,,,,,,,,,12,,65,0
42479,note_on,,59,0,11,,,,,,,,,,,,,,,,15,,41,0
42480,note_on,,1,0,10,,,,,,,,,,,,,,,,13,,53,72
42480,note_on,,0,0,11,,,,,,,,,,,,,,,,15,,69,72
42480,note_on,,1,0,9,,,,,,,,,,,,,,,,12,,60,48
42480,note_on,,1,0,11,,,,,,,,,,,,,,,,15,,60,72
42480,note_on,,1,0,5,,,,,,,,,,,,,,,,2,,53,72
42480,note_on,,0,0,11,,,,,,,,,,,,,,,,15,,53,72
42480,note_on,,0,0,11,,,,,,,,,,,,,,,,15,,65,72
42539,note_on,,0,0,11,,,,,,,,,,,,,,,,15,,69,0
42539,note_on,,0,0,11,,,,,,,,,,,,,,,,15,,65,0
42539,note_on,,59,0,9,,,,,,,,,,,,,,,,12,,60,0
42539,note_on,,59,0,11,,,,,,,,,,,,,,,,15,,60,0
42540,note_on,,1,0,11,,,,,,,,,,,,,,,,15,,65,72
42540,note_on,,0,0,11,,,,,,,,,,,,,,,,15,,57,72
42540,note_on,,0,0,11,,,,,,,,,,,,,,,,15,,60,72
42540,note_on,,61,0,7,,,,,,,,,,,,,,,,10,,77,72
42540,note_on,,1,0,9,,,,,,,,,,,,,,,,12,,57,48
42599,note_on,,59,0,11,,,,,,,,,,,,,,,,15,,57,0
42599,note_on,,0,0,11,,,,,,,,,,,,,,,,15,,60,0
42599,note_on,,59,0,7,,,,,,,,,,,,,,,,10,,77,0
42599,note_on,,59,0,9,,,,,,,,,,,,,,,,12,,57,0
42600,note_on,,1,0,7,,,,,,,,,,,,,,,,10,,73,72
42600,note_on,,1,0,9,,,,,,,,,,,,,,,,12,,53,48
42600,note_on,,1,0,11,,,,,,,,,,,,,,,,15,,58,72
42600,note_on,,0,0,11,,,,,,,,,,,,,,,,15,,61,72
42659,note_on,,0,0,11,,,,,,,,,,,,,,,,15,,58,0
42659,note_on,,59,0,7,,,,,,,,,,,,,,,,10,,73,0
42659,note_on,,0,0,11,,,,,,,,,,,,,,,,15,,61,0
42659,note_on,,59,0,11,,,,,,,,,,,,,,,,15,,65,0
42660,note_on,,1,0,7,,,,,,,,,,,,,,,,10,,69,72
42660,note_on,,0,0,11,,,,,,,,,,,,,,,,15,,60,72
42660,note_on,,1,0,11,,,,,,,,,,,,,,,,15,,69,72
42719,note_on,,59,0,7,,,,,,,,,,,,,,,,10,,69,0
42719,note_on,,59,0,11,,,,,,,,,,,,,,,,15,,69,0
42719,note_on,,0,0,11,,,,,,,,,,,,,,,,15,,60,0
42720,note_on,,0,0,11,,,,,,,,,,,,,,,,15,,70,72
42720,note_on,,0,0,11,,,,,,,,,,,,,,,,15,,65,72
42720,note_on,,1,0,7,,,,,,,,,,,,,,,,10,,70,72
42720,note_on,,1,0,11,,,,,,,,,,,,,,,,15,,62,72
42779,note_on,,0,0,11,,,,,,,,,,,,,,,,15,,70,0
42779,note_on,,59,0,11,,,,,,,,,,,,,,,,15,,62,0
42779,note_on,,59,0,7,,,,,,,,,,,,,,,,10,,70,0
42779,note_on,,179,0,9,,,,,,,,,,,,,,,,12,,53,0
42780,note_on,,1,0,7,,,,,,,,,,,,,,,,10,,65,72
42780,note_on,,1,0,9,,,,,,,,,,,,,,,,12,,60,72
42780,note_on,,301,0,8,,,,,,,,,,,,,,,,11,,57,72
42780,note_on,,1,0,11,,,,,,,,,,,,,,,,15,,60,72
42780,note_on,,0,0,11,,,,,,,,,,,,,,,,15,,69,72
42839,note_on,,59,0,9,,,,,,,,,,,,,,,,12,,60,0
42839,note_on,,0,0,11,,,,,,,,,,,,,,,,15,,69,0
42839,note_on,,0,0,11,,,,,,,,,,,,,,,,15,,60,0
42839,note_on,,59,0,8,,,,,,,,,,,,,,,,11,,57,0
42839,note_on,,59,0,7,,,,,,,,,,,,,,,,10,,65,0
42839,note_on,,59,0,11,,,,,,,,,,,,,,,,15,,65,0
42840,note_on,,1,0,7,,,,,,,,,,,,,,,,10,,66,72
42840,note_on,,0,0,11,,,,,,,,,,,,,,,,15,,61,72
42840,note_on,,0,0,11,,,,,,,,,,,,,,,,15,,66,72
42840,note_on,,1,0,8,,,,,,,,,,,,,,,,11,,58,72
42840,note_on,,1,0,11,,,,,,,,,,,,,,,,15,,70,72
42840,note_on,,1,0,9,,,,,,,,,,,,,,,,12,,58,72
42899,note_on,,419,0,5,,,,,,,,,,,,,,,,2,,53,0
42899,note_on,,419,0,10,,,,,,,,,,,,,,,,13,,53,0
42899,note_on,,59,0,11,,,,,,,,,,,,,,,,15,,53,0
42900,note_on,,1,0,5,,,,,,,,,,,,,,,,2,,51,72
42900,note_on,,1,0,11,,,,,,,,,,,,,,,,15,,51,72
42900,note_on,,1,0,10,,,,,,,,,,,,,,,,13,,51,72
42929,note_on,,29,0,10,,,,,,,,,,,,,,,,13,,51,0
42929,note_on,,29,0,5,,,,,,,,,,,,,,,,2,,51,0
42929,note_on,,29,0,11,,,,,,,,,,,,,,,,15,,51,0
42930,note_on,,1,0,10,,,,,,,,,,,,,,,,13,,50,72
42930,note_on,,1,0,5,,,,,,,,,,,,,,,,2,,50,72
42930,note_on,,1,0,11,,,,,,,,,,,,,,,,15,,50,72
42959,note_on,,119,0,9,,,,,,,,,,,,,,,,12,,58,0
42959,note_on,,29,0,5,,,,,,,,,,,,,,,,2,,50,0
42959,note_on,,0,0,11,,,,,,,,,,,,,,,,15,,50,0
42959,note_on,,29,0,11,,,,,,,,,,,,,,,,15,,61,0
42959,note_on,,29,0,10,,,,,,,,,,,,,,,,13,,50,0
42960,note_on,,1,0,10,,,,,,,,,,,,,,,,13,,51,72
42960,note_on,,0,0,11,,,,,,,,,,,,,,,,15,,51,72
42960,note_on,,1,0,11,,,,,,,,,,,,,,,,15,,60,72
42960,note_on,,1,0,9,,,,,,,,,,,,,,,,12,,63,72
42960,note_on,,1,0,5,,,,,,,,,,,,,,,,2,,51,72
43019,note_on,,179,0,8,,,,,,,,,,,,,,,,11,,58,0
43020,note_on,,1,0,8,,,,,,,,,,,,,,,,11,,60,72
43049,note_on,,29,0,8,,,,,,,,,,,,,,,,11,,60,0
43050,note_on,,1,0,8,,,,,,,,,,,,,,,,11,,58,72
43079,note_on,,119,0,11,,,,,,,,,,,,,,,,15,,70,0
43079,note_on,,0,0,11,,,,,,,,,,,,,,,,15,,66,0
43079,note_on,,0,0,11,,,,,,,,,,,,,,,,15,,60,0
43079,note_on,,239,0,7,,,,,,,,,,,,,,,,10,,66,0
43079,note_on,,119,0,9,,,,,,,,,,,,,,,,12,,63,0
43079,note_on,,29,0,8,,,,,,,,,,,,,,,,11,,58,0
43080,note_on,,1,0,11,,,,,,,,,,,,,,,,15,,60,72
43080,note_on,,1,0,9,,,,,,,,,,,,,,,,12,,60,72
43080,note_on,,1,0,8,,,,,,,,,,,,,,,,11,,57,72
43080,note_on,,1,0,7,,,,,,,,,,,,,,,,10,,65,72
43095,note_on,,15,0,11,,,,,,,,,,,,,,,,15,,65,72
43110,note_on,,15,0,11,,,,,,,,,,,,,,,,15,,69,72
43125,note_on,,15,0,11,,,,,,,,,,,,,,,,15,,72,72
43139,note_on,,59,0,7,,,,,,,,,,,,,,,,10,,65,0
43139,note_on,,179,0,5,,,,,,,,,,,,,,,,2,,51,0
43139,note_on,,14,0,11,,,,,,,,,,,,,,,,15,,51,0
43139,note_on,,0,0,11,,,,,,,,,,,,,,,,15,,60,0
43139,note_on,,179,0,10,,,,,,,,,,,,,,,,13,,51,0
43139,note_on,,0,0,11,,,,,,,,,,,,,,,,15,,65,0
43139,note_on,,0,0,11,,,,,,,,,,,,,,,,15,,69,0
43139,note_on,,0,0,11,,,,,,,,,,,,,,,,15,,72,0
43140,note_on,,1,0,11,,,,,,,,,,,,,,,,15,,69,72
43140,note_on,,0,0,11,,,,,,,,,,,,,,,,15,,50,72
43140,note_on,,0,0,11,,,,,,,,,,,,,,,,15,,65,72
43140,note_on,,1,0,5,,,,,,,,,,,,,,,,2,,50,72
43140,note_on,,1,0,7,,,,,,,,,,,,,,,,10,,69,72
43140,note_on,,1,0,10,,,,,,,,,,,,,,,,13,,50,72
43169,note_on,,29,0,11,,,,,,,,,,,,,,,,15,,50,0
43169,note_on,,29,0,10,,,,,,,,,,,,,,,,13,,50,0
43169,note_on,,29,0,5,,,,,,,,,,,,,,,,2,,50,0
43170,note_on,,1,0,10,,,,,,,,,,,,,,,,13,,48,72
43170,note_on,,1,0,5,,,,,,,,,,,,,,,,2,,48,72
43170,note_on,,1,0,11,,,,,,,,,,,,,,,,15,,48,72
43199,note_on,,29,0,5,,,,,,,,,,,,,,,,2,,48,0
43199,note_on,,29,0,11,,,,,,,,,,,,,,,,15,,69,0
43199,note_on,,0,0,11,,,,,,,,,,,,,,,,15,,48,0
43199,note_on,,59,0,7,,,,,,,,,,,,,,,,10,,69,0
43199,note_on,,29,0,10,,,,,,,,,,,,,,,,13,,48,0
43199,note_on,,119,0,9,,,,,,,,,,,,,,,,12,,60,0
43199,note_on,,119,0,8,,,,,,,,,,,,,,,,11,,57,0
43200,note_on,,1,0,7,,,,,,,,,,,,,,,,10,,70,72
43200,note_on,,1,0,5,,,,,,,,,,,,,,,,2,,50,72
43200,note_on,,1,0,9,,,,,,,,,,,,,,,,12,,58,72
43200,note_on,,1,0,8,,,,,,,,,,,,,,,,11,,65,72
43200,note_on,,1,0,10,,,,,,,,,,,,,,,,13,,50,72
43200,note_on,,1,0,11,,,,,,,,,,,,,,,,15,,70,72
43200,note_on,,0,0,11,,,,,,,,,,,,,,,,15,,50,72
43259,note_on,,59,0,10,,,,,,,,,,,,,,,,13,,50,0
43259,note_on,,59,0,8,,,,,,,,,,,,,,,,11,,65,0
43259,note_on,,59,0,7,,,,,,,,,,,,,,,,10,,70,0
43259,note_on,,0,0,11,,,,,,,,,,,,,,,,15,,70,0
43259,note_on,,0,0,11,,,,,,,,,,,,,,,,15,,50,0
43259,note_on,,59,0,5,,,,,,,,,,,,,,,,2,,50,0
43259,note_on,,59,0,9,,,,,,,,,,,,,,,,12,,58,0
43259,note_on,,59,0,11,,,,,,,,,,,,,,,,15,,65,0
43260,note_on,,1,0,11,,,,,,,,,,,,,,,,15,,51,72
43260,note_on,,0,0,11,,,,,,,,,,,,,,,,15,,67,72
43260,note_on,,0,0,11,,,,,,,,,,,,,,,,15,,63,72
43260,note_on,,1,0,9,,,,,,,,,,,,,,,,12,,55,72
43260,note_on,,1,0,8,,,,,,,,,,,,,,,,11,,58,72
43260,note_on,,1,0,7,,,,,,,,,,,,,,,,10,,63,72
43260,note_on,,0,0,11,,,,,,,,,,,,,,,,15,,58,72
43260,note_on,,1,0,5,,,,,,,,,,,,,,,,2,,51,72
43260,note_on,,1,0,10,,,,,,,,,,,,,,,,13,,51,72
43319,note_on,,59,0,10,,,,,,,,,,,,,,,,13,,51,0
43319,note_on,,59,0,7,,,,,,,,,,,,,,,,10,,63,0
43319,note_on,,0,0,11,,,,,,,,,,,,,,,,15,,58,0
43319,note_on,,59,0,8,,,,,,,,,,,,,,,,11,,58,0
43319,note_on,,0,0,11,,,,,,,,,,,,,,,,15,,67,0
43319,note_on,,59,0,9,,,,,,,,,,,,,,,,12,,55,0
43319,note_on,,0,0,11,,,,,,,,,,,,,,,,15,,63,0
43319,note_on,,59,0,5,,,,,,,,,,,,,,,,2,,51,0
43319,note_on,,59,0,11,,,,,,,,,,,,,,,,15,,51,0
43320,note_on,,1,0,11,,,,,,,,,,,,,,,,15,,53,72
43320,note_on,,1,0,5,,,,,,,,,,,,,,,,2,,53,72
43320,note_on,,0,0,11,,,,,,,,,,,,,,,,15,,62,72
43320,note_on,,1,0,9,,,,,,,,,,,,,,,,12,,53,72
43320,note_on,,1,0,8,,,,,,,,,,,,,,,,11,,58,72
43320,note_on,,1,0,7,,,,,,,,,,,,,,,,10,,62,72
43320,note_on,,0,0,11,,,,,,,,,,,,,,,,15,,58,72
43320,note_on,,0,0,11,,,,,,,,,,,,,,,,15,,65,72
43320,note_on,,1,0,10,,,,,,,,,,,,,,,,13,,53,72
43379,note_on,,59,0,11,,,,,,,,,,,,,,,,15,,62,0
43380,note_on,,1,0,11,,,,,,,,,,,,,,,,15,,63,72
43439,note_on,,59,0,11,,,,,,,,,,,,,,,,15,,53,0
43439,note_on,,119,0,5,,,,,,,,,,,,,,,,2,,53,0
43439,note_on,,119,0,10,,,,,,,,,,,,,,,,13,,53,0
43439,note_on,,119,0,8,,,,,,,,,,,,,,,,11,,58,0
43439,note_on,,0,0,11,,,,,,,,,,,,,,,,15,,58,0
43439,note_on,,0,0,11,,,,,,,,,,,,,,,,15,,65,0
43439,note_on,,119,0,7,,,,,,,,,,,,,,,,10,,62,0
43439,note_on,,0,0,11,,,,,,,,,,,,,,,,15,,63,0
43440,note_on,,1,0,11,,,,,,,,,,,,,,,,15,,41,72
43440,note_on,,0,0,11,,,,,,,,,,,,,,,,15,,69,72
43440,note_on,,0,0,11,,,,,,,,,,,,,,,,15,,53,72
43440,note_on,,1,0,10,,,,,,,,,,,,,,,,13,,41,72
43440,note_on,,1,0,8,,,,,,,,,,,,,,,,11,,57,72
43440,note_on,,0,0,11,,,,,,,,,,,,,,,,15,,65,72
43440,note_on,,1,0,5,,,,,,,,,,,,,,,,2,,41,72
43440,note_on,,1,0,7,,,,,,,,,,,,,,,,10,,60,72
43454,note_on,,14,0,7,,,,,,,,,,,,,,,,10,,60,0
43455,note_on,,1,0,7,,,,,,,,,,,,,,,,10,,62,72
43469,note_on,,14,0,7,,,,,,,,,,,,,,,,10,,62,0
43470,note_on,,1,0,7,,,,,,,,,,,,,,,,10,,60,72
43484,note_on,,14,0,7,,,,,,,,,,,,,,,,10,,60,0
43485,note_on,,1,0,7,,,,,,,,,,,,,,,,10,,62,72
43499,note_on,,179,0,9,,,,,,,,,,,,,,,,12,,53,0
43499,note_on,,59,0,11,,,,,,,,,,,,,,,,15,,65,0
43499,note_on,,14,0,7,,,,,,,,,,,,,,,,10,,62,0
43500,note_on,,1,0,11,,,,,,,,,,,,,,,,15,,60,72
43500,note_on,,1,0,9,,,,,,,,,,,,,,,,12,,53,72
43500,note_on,,1,0,7,,,,,,,,,,,,,,,,10,,58,72
43514,note_on,,14,0,7,,,,,,,,,,,,,,,,10,,58,0
43515,note_on,,1,0,7,,,,,,,,,,,,,,,,10,,60,72
43529,note_on,,14,0,7,,,,,,,,,,,,,,,,10,,60,0
43529,note_on,,89,0,8,,,,,,,,,,,,,,,,11,,57,0
43530,note_on,,1,0,7,,,,,,,,,,,,,,,,10,,58,72
43530,note_on,,1,0,8,,,,,,,,,,,,,,,,11,,58,72
43559,note_on,,119,0,5,,,,,,,,,,,,,,,,2,,41,0
43559,note_on,,59,0,9,,,,,,,,,,,,,,,,12,,53,0
43559,note_on,,0,0,11,,,,,,,,,,,,,,,,15,,60,0
43559,note_on,,0,0,11,,,,,,,,,,,,,,,,15,,53,0
43559,note_on,,0,0,11,,,,,,,,,,,,,,,,15,,69,0
43559,note_on,,59,0,11,,,,,,,,,,,,,,,,15,,41,0
43559,note_on,,29,0,7,,,,,,,,,,,,,,,,10,,58,0
43559,note_on,,119,0,10,,,,,,,,,,,,,,,,13,,41,0
43559,note_on,,29,0,8,,,,,,,,,,,,,,,,11,,58,0
43560,note_on,,1,0,10,,,,,,,,,,,,,,,,13,,46,72
43560,note_on,,1,0,9,,,,,,,,,,,,,,,,12,,53,72
43560,note_on,,1,0,5,,,,,,,,,,,,,,,,2,,46,72
43560,note_on,,1,0,8,,,,,,,,,,,,,,,,11,,58,72
43560,note_on,,1,0,7,,,,,,,,,,,,,,,,10,,58,72
43560,note_on,,0,0,11,,,,,,,,,,,,,,,,15,,46,72
43560,note_on,,0,0,11,,,,,,,,,,,,,,,,15,,65,72
43560,note_on,,0,0,11,,,,,,,,,,,,,,,,15,,62,72
43560,note_on,,1,0,11,,,,,,,,,,,,,,,,15,,70,72
43619,note_on,,59,0,5,,,,,,,,,,,,,,,,2,,46,0
43619,note_on,,0,0,11,,,,,,,,,,,,,,,,15,,46,0
43619,note_on,,0,0,11,,,,,,,,,,,,,,,,15,,65,0
43619,note_on,,0,0,11,,,,,,,,,,,,,,,,15,,62,0
43619,note_on,,59,0,11,,,,,,,,,,,,,,,,15,,70,0
43619,note_on,,59,0,10,,,,,,,,,,,,,,,,13,,46,0
43620,note_on,,1,0,10,,,,,,,,,,,,,,,,13,,58,48
43620,note_on,,1,0,11,,,,,,,,,,,,,,,,15,,58,48
43650,note_on,,30,0,11,,,,,,,,,,,,,,,,15,,60,48
43679,note_on,,119,0,7,,,,,,,,,,,,,,,,10,,58,0
43679,note_on,,0,0,11,,,,,,,,,,,,,,,,15,,60,0
43679,note_on,,29,0,11,,,,,,,,,,,,,,,,15,,58,0
43679,note_on,,119,0,8,,,,,,,,,,,,,,,,11,,58,0
43679,note_on,,119,0,9,,,,,,,,,,,,,,,,12,,53,0
43679,note_on,,59,0,10,,,,,,,,,,,,,,,,13,,58,0
43680,note_on,,1,0,11,,,,,,,,,,,,,,,,15,,62,48
43680,note_on,,0,0,11,,,,,,,,,,,,,,,,15,,56,48
43680,note_on,,1,0,10,,,,,,,,,,,,,,,,13,,56,48
43739,note_on,,0,0,11,,,,,,,,,,,,,,,,15,,56,0
43739,note_on,,59,0,10,,,,,,,,,,,,,,,,13,,56,0
43739,note_on,,59,0,11,,,,,,,,,,,,,,,,15,,62,0
43740,note_on,,0,0,11,,,,,,,,,,,,,,,,15,,55,48
43740,note_on,,1,0,11,,,,,,,,,,,,,,,,15,,64,48
43740,note_on,,1,0,10,,,,,,,,,,,,,,,,13,,55,48
43740,note_on,,1621,0,6,,,,,,,,,,,,,,,,6,,58,61
43799,note_on,,0,0,11,,,,,,,,,,,,,,,,15,,55,0
43799,note_on,,59,0,11,,,,,,,,,,,,,,,,15,,64,0
43799,note_on,,59,0,10,,,,,,,,,,,,,,,,13,,55,0
43799,note_on,,59,0,6,,,,,,,,,,,,,,,,6,,58,0
43800,note_on,,0,0,11,,,,,,,,,,,,,,,,15,,65,48
43800,note_on,,1,0,6,,,,,,,,,,,,,,,,6,,65,66
43800,note_on,,0,0,11,,,,,,,,,,,,,,,,15,,56,48
43800,note_on,,1,0,11,,,,,,,,,,,,,,,,15,,60,48
43800,note_on,,1,0,10,,,,,,,,,,,,,,,,13,,56,48
43859,note_on,,59,0,10,,,,,,,,,,,,,,,,13,,56,0
43859,note_on,,59,0,11,,,,,,,,,,,,,,,,15,,60,0
43859,note_on,,0,0,11,,,,,,,,,,,,,,,,15,,56,0
43859,note_on,,0,0,11,,,,,,,,,,,,,,,,15,,65,0
43860,note_on,,1,0,10,,,,,,,,,,,,,,,,13,,53,48
43860,note_on,,1,0,11,,,,,,,,,,,,,,,,15,,65,48
43860,note_on,,0,0,11,,,,,,,,,,,,,,,,15,,53,48
43860,note_on,,0,0,11,,,,,,,,,,,,,,,,15,,68,48
43860,note_on,,0,0,11,,,,,,,,,,,,,,,,15,,60,48
43919,note_on,,0,0,11,,,,,,,,,,,,,,,,15,,60,0
43919,note_on,,59,0,10,,,,,,,,,,,,,,,,13,,53,0
43919,note_on,,59,0,11,,,,,,,,,,,,,,,,15,,65,0
43919,note_on,,0,0,11,,,,,,,,,,,,,,,,15,,53,0
43919,note_on,,0,0,11,,,,,,,,,,,,,,,,15,,68,0
43920,note_on,,1,0,10,,,,,,,,,,,,,,,,13,,49,48
43920,note_on,,0,0,11,,,,,,,,,,,,,,,,15,,49,48
43920,note_on,,0,0,11,,,,,,,,,,,,,,,,15,,70,48
43920,note_on,,1,0,11,,,,,,,,,,,,,,,,15,,58,48
43920,note_on,,0,0,11,,,,,,,,,,,,,,,,15,,65,48
43979,note_on,,59,0,11,,,,,,,,,,,,,,,,15,,58,0
43979,note_on,,59,0,10,,,,,,,,,,,,,,,,13,,49,0
43979,note_on,,179,0,6,,,,,,,,,,,,,,,,6,,65,0
43979,note_on,,0,0,11,,,,,,,,,,,,,,,,15,,49,0
43980,note_on,,1,0,10,,,,,,,,,,,,,,,,13,,46,48
43980,note_on,,1,0,6,,,,,,,,,,,,,,,,6,,67,61
43980,note_on,,0,0,11,,,,,,,,,,,,,,,,15,,46,48
43980,note_on,,1,0,11,,,,,,,,,,,,,,,,15,,61,48
44024,note_on,,44,0,6,,,,,,,,,,,,,,,,6,,67,0
44025,note_on,,1,0,6,,,,,,,,,,,,,,,,6,,65,61
44039,note_on,,59,0,10,,,,,,,,,,,,,,,,13,,46,0
44039,note_on,,0,0,11,,,,,,,,,,,,,,,,15,,46,0
44039,note_on,,0,0,11,,,,,,,,,,,,,,,,15,,61,0
44039,note_on,,0,0,11,,,,,,,,,,,,,,,,15,,65,0
44039,note_on,,59,0,11,,,,,,,,,,,,,,,,15,,70,0
44039,note_on,,14,0,6,,,,,,,,,,,,,,,,6,,65,0
44040,note_on,,0,0,11,,,,,,,,,,,,,,,,15,,64,48
44040,note_on,,0,0,11,,,,,,,,,,,,,,,,15,,55,48
44040,note_on,,0,0,11,,,,,,,,,,,,,,,,15,,60,48
44040,note_on,,1,0,10,,,,,,,,,,,,,,,,13,,48,48
44040,note_on,,1,0,11,,,,,,,,,,,,,,,,15,,48,48
44040,note_on,,1,0,6,,,,,,,,,,,,,,,,6,,64,64
44040,note_on,,0,0,11,,,,,,,,,,,,,,,,15,,70,48
44099,note_on,,59,0,11,,,,,,,,,,,,,,,,15,,48,0
44099,note_on,,0,0,11,,,,,,,,,,,,,,,,15,,55,0
44099,note_on,,0,0,11,,,,,,,,,,,,,,,,15,,64,0
44099,note_on,,0,0,11,,,,,,,,,,,,,,,,15,,70,0
44099,note_on,,59,0,6,,,,,,,,,,,,,,,,6,,64,0
44099,note_on,,59,0,10,,,,,,,,,,,,,,,,13,,48,0
44099,note_on,,0,0,11,,,,,,,,,,,,,,,,15,,60,0
44100,note_on,,1,0,11,,,,,,,,,,,,,,,,15,,68,48
44100,note_on,,0,0,11,,,,,,,,,,,,,,,,15,,41,48
44100,note_on,,0,0,11,,,,,,,,,,,,,,,,15,,60,48
44100,note_on,,0,0,11,,,,,,,,,,,,,,,,15,,53,48
44100,note_on,,0,0,11,,,,,,,,,,,,,,,,15,,65,48
44100,note_on,,1,0,6,,,,,,,,,,,,,,,,6,,65,67
44100,note_on,,1,0,10,,,,,,,,,,,,,,,,13,,41,48
44159,note_on,,59,0,10,,,,,,,,,,,,,,,,13,,41,0
44159,note_on,,0,0,11,,,,,,,,,,,,,,,,15,,60,0
44159,note_on,,59,0,11,,,,,,,,,,,,,,,,15,,68,0
44159,note_on,,0,0,11,,,,,,,,,,,,,,,,15,,41,0
44159,note_on,,59,0,6,,,,,,,,,,,,,,,,6,,65,0
44159,note_on,,0,0,11,,,,,,,,,,,,,,,,15,,65,0
44159,note_on,,0,0,11,,,,,,,,,,,,,,,,15,,53,0
44220,note_on,,541,0,9,,,,,,,,,,,,,,,,12,,72,48
44220,note_on,,541,0,8,,,,,,,,,,,,,,,,11,,68,48
44220,note_on,,541,0,7,,,,,,,,,,,,,,,,10,,77,48
44279,note_on,,59,0,7,,,,,,,,,,,,,,,,10,,77,0
44279,note_on,,59,0,8,,,,,,,,,,,,,,,,11,,68,0
44279,note_on,,59,0,9,,,,,,,,,,,,,,,,12,,72,0
44280,note_on,,1,0,7,,,,,,,,,,,,,,,,10,,76,48
44280,note_on,,1,0,8,,,,,,,,,,,,,,,,11,,67,48
44280,note_on,,1,0,9,,,,,,,,,,,,,,,,12,,70,48
44339,note_on,,59,0,7,,,,,,,,,,,,,,,,10,,76,0
44339,note_on,,59,0,8,,,,,,,,,,,,,,,,11,,67,0
44339,note_on,,59,0,9,,,,,,,,,,,,,,,,12,,70,0
44340,note_on,,1,0,7,,,,,,,,,,,,,,,,10,,77,48
44340,note_on,,1,0,8,,,,,,,,,,,,,,,,11,,65,48
44340,note_on,,1,0,9,,,,,,,,,,,,,,,,12,,68,48
44399,note_on,,59,0,9,,,,,,,,,,,,,,,,12,,68,0
44399,note_on,,59,0,7,,,,,,,,,,,,,,,,10,,77,0
44399,note_on,,59,0,8,,,,,,,,,,,,,,,,11,,65,0
44460,note_on,,301,0,11,,,,,,,,,,,,,,,,15,,58,48
44460,note_on,,0,0,11,,,,,,,,,,,,,,,,15,,62,48
44460,note_on,,0,0,11,,,,,,,,,,,,,,,,15,,67,48
44460,note_on,,301,0,10,,,,,,,,,,,,,,,,13,,58,48
44460,note_on,,301,0,6,,,,,,,,,,,,,,,,6,,67,60
44519,note_on,,59,0,10,,,,,,,,,,,,,,,,13,,58,0
44519,note_on,,59,0,11,,,,,,,,,,,,,,,,15,,58,0
44519,note_on,,0,0,11,,,,,,,,,,,,,,,,15,,67,0
44519,note_on,,0,0,11,,,,,,,,,,,,,,,,15,,62,0
44519,note_on,,59,0,6,,,,,,,,,,,,,,,,6,,67,0
44520,note_on,,1,0,10,,,,,,,,,,,,,,,,13,,57,48
44520,note_on,,1,0,11,,,,,,,,,,,,,,,,15,,69,48
44520,note_on,,0,0,11,,,,,,,,,,,,,,,,15,,66,48
44520,note_on,,0,0,11,,,,,,,,,,,,,,,,15,,57,48
44520,note_on,,0,0,11,,,,,,,,,,,,,,,,15,,60,48
44520,note_on,,1,0,6,,,,,,,,,,,,,,,,6,,66,60
44534,note_on,,14,0,6,,,,,,,,,,,,,,,,6,,66,0
44535,note_on,,1,0,6,,,,,,,,,,,,,,,,6,,67,64
44549,note_on,,14,0,6,,,,,,,,,,,,,,,,6,,67,0
44550,note_on,,1,0,6,,,,,,,,,,,,,,,,6,,66,63
44579,note_on,,59,0,10,,,,,,,,,,,,,,,,13,,57,0
44579,note_on,,0,0,11,,,,,,,,,,,,,,,,15,,57,0
44579,note_on,,0,0,11,,,,,,,,,,,,,,,,15,,60,0
44579,note_on,,29,0,6,,,,,,,,,,,,,,,,6,,66,0
44579,note_on,,0,0,11,,,,,,,,,,,,,,,,15,,66,0
44579,note_on,,59,0,11,,,,,,,,,,,,,,,,15,,69,0
44580,note_on,,1,0,6,,,,,,,,,,,,,,,,6,,67,60
44580,note_on,,0,0,11,,,,,,,,,,,,,,,,15,,70,48
44580,note_on,,1,0,10,,,,,,,,,,,,,,,,13,,55,48
44580,note_on,,1,0,11,,,,,,,,,,,,,,,,15,,67,48
44580,note_on,,0,0,11,,,,,,,,,,,,,,,,15,,55,48
44580,note_on,,0,0,11,,,,,,,,,,,,,,,,15,,62,48
44639,note_on,,59,0,10,,,,,,,,,,,,,,,,13,,55,0
44639,note_on,,59,0,6,,,,,,,,,,,,,,,,6,,67,0
44639,note_on,,59,0,11,,,,,,,,,,,,,,,,15,,67,0
44639,note_on,,0,0,11,,,,,,,,,,,,,,,,15,,70,0
44639,note_on,,0,0,11,,,,,,,,,,,,,,,,15,,62,0
44639,note_on,,0,0,11,,,,,,,,,,,,,,,,15,,55,0
44700,note_on,,301,0,9,,,,,,,,,,,,,,,,12,,74,48
44700,note_on,,301,0,8,,,,,,,,,,,,,,,,11,,70,48
44700,note_on,,301,0,7,,,,,,,,,,,,,,,,10,,79,48
44759,note_on,,59,0,9,,,,,,,,,,,,,,,,12,,74,0
44759,note_on,,59,0,8,,,,,,,,,,,,,,,,11,,70,0
44759,note_on,,59,0,7,,,,,,,,,,,,,,,,10,,79,0
44760,note_on,,1,0,8,,,,,,,,,,,,,,,,11,,69,48
44760,note_on,,1,0,7,,,,,,,,,,,,,,,,10,,78,48
44760,note_on,,1,0,9,,,,,,,,,,,,,,,,12,,72,48
44819,note_on,,59,0,7,,,,,,,,,,,,,,,,10,,78,0
44819,note_on,,59,0,8,,,,,,,,,,,,,,,,11,,69,0
44819,note_on,,59,0,9,,,,,,,,,,,,,,,,12,,72,0
44820,note_on,,1,0,8,,,,,,,,,,,,,,,,11,,67,48
44820,note_on,,1,0,9,,,,,,,,,,,,,,,,12,,70,48
44820,note_on,,1,0,7,,,,,,,,,,,,,,,,10,,79,48
44879,note_on,,59,0,8,,,,,,,,,,,,,,,,11,,67,0
44879,note_on,,59,0,9,,,,,,,,,,,,,,,,12,,70,0
44879,note_on,,59,0,7,,,,,,,,,,,,,,,,10,,79,0
44940,note_on,,0,0,11,,,,,,,,,,,,,,,,15,,55,48
44940,note_on,,301,0,6,,,,,,,,,,,,,,,,6,,70,62
44940,note_on,,0,0,11,,,,,,,,,,,,,,,,15,,62,48
44940,note_on,,301,0,10,,,,,,,,,,,,,,,,13,,55,48
44940,note_on,,0,0,11,,,,,,,,,,,,,,,,15,,67,48
44940,note_on,,301,0,11,,,,,,,,,,,,,,,,15,,70,48
44999,note_on,,0,0,11,,,,,,,,,,,,,,,,15,,62,0
44999,note_on,,59,0,10,,,,,,,,,,,,,,,,13,,55,0
44999,note_on,,59,0,6,,,,,,,,,,,,,,,,6,,70,0
44999,note_on,,59,0,11,,,,,,,,,,,,,,,,15,,70,0
44999,note_on,,0,0,11,,,,,,,,,,,,,,,,15,,55,0
44999,note_on,,0,0,11,,,,,,,,,,,,,,,,15,,67,0
45000,note_on,,1,0,10,,,,,,,,,,,,,,,,13,,48,48
45000,note_on,,121,0,7,,,,,,,,,,,,,,,,10,,76,48
45000,note_on,,1,0,6,,,,,,,,,,,,,,,,6,,70,67
45000,note_on,,121,0,8,,,,,,,,,,,,,,,,11,,70,48
45000,note_on,,1,0,11,,,,,,,,,,,,,,,,15,,64,48
45000,note_on,,0,0,11,,,,,,,,,,,,,,,,15,,55,48
45000,note_on,,0,0,11,,,,,,,,,,,,,,,,15,,70,48
45000,note_on,,0,0,11,,,,,,,,,,,,,,,,15,,60,48
45000,note_on,,0,0,11,,,,,,,,,,,,,,,,15,,67,48
45000,note_on,,0,0,11,,,,,,,,,,,,,,,,15,,48,48
45000,note_on,,121,0,9,,,,,,,,,,,,,,,,12,,67,48
45179,note_on,,179,0,6,,,,,,,,,,,,,,,,6,,70,0
45180,note_on,,1,0,6,,,,,,,,,,,,,,,,6,,67,61
45224,note_on,,44,0,6,,,,,,,,,,,,,,,,6,,67,0
45225,note_on,,1,0,6,,,,,,,,,,,,,,,,6,,70,61
45239,note_on,,239,0,11,,,,,,,,,,,,,,,,15,,64,0
45239,note_on,,239,0,7,,,,,,,,,,,,,,,,10,,76,0
45239,note_on,,239,0,9,,,,,,,,,,,,,,,,12,,67,0
45239,note_on,,0,0,11,,,,,,,,,,,,,,,,15,,55,0
45239,note_on,,239,0,8,,,,,,,,,,,,,,,,11,,70,0
45239,note_on,,14,0,6,,,,,,,,,,,,,,,,6,,70,0
45239,note_on,,0,0,11,,,,,,,,,,,,,,,,15,,67,0
45239,note_on,,0,0,11,,,,,,,,,,,,,,,,15,,70,0
45239,note_on,,239,0,10,,,,,,,,,,,,,,,,13,,48,0
45239,note_on,,0,0,11,,,,,,,,,,,,,,,,15,,60,0
45239,note_on,,0,0,11,,,,,,,,,,,,,,,,15,,48,0
45240,note_on,,1,0,6,,,,,,,,,,,,,,,,6,,68,61
45240,note_on,,1,0,10,,,,,,,,,,,,,,,,13,,53,48
45240,note_on,,0,0,11,,,,,,,,,,,,,,,,15,,60,48
45240,note_on,,0,0,11,,,,,,,,,,,,,,,,15,,65,48
45240,note_on,,1,0,7,,,,,,,,,,,,,,,,10,,77,48
45240,note_on,,1,0,8,,,,,,,,,,,,,,,,11,,68,48
45240,note_on,,0,0,11,,,,,,,,,,,,,,,,15,,68,48
45240,note_on,,1,0,11,,,,,,,,,,,,,,,,15,,53,48
45240,note_on,,1,0,9,,,,,,,,,,,,,,,,12,,65,48
45269,note_on,,29,0,6,,,,,,,,,,,,,,,,6,,68,0
45270,note_on,,1,0,6,,,,,,,,,,,,,,,,6,,67,67
45299,note_on,,29,0,6,,,,,,,,,,,,,,,,6,,67,0
45300,note_on,,1,0,6,,,,,,,,,,,,,,,,6,,68,60
45359,note_on,,59,0,6,,,,,,,,,,,,,,,,6,,68,0
45359,note_on,,0,0,11,,,,,,,,,,,,,,,,15,,68,0
45359,note_on,,0,0,11,,,,,,,,,,,,,,,,15,,65,0
45359,note_on,,119,0,11,,,,,,,,,,,,,,,,15,,60,0
45360,note_on,,1,0,6,,,,,,,,,,,,,,,,6,,65,60
45360,note_on,,0,0,11,,,,,,,,,,,,,,,,15,,68,48
45360,note_on,,1,0,11,,,,,,,,,,,,,,,,15,,72,48
45360,note_on,,0,0,11,,,,,,,,,,,,,,,,15,,65,48
45419,note_on,,59,0,6,,,,,,,,,,,,,,,,6,,65,0
45419,note_on,,0,0,11,,,,,,,,,,,,,,,,15,,65,0
45419,note_on,,59,0,11,,,,,,,,,,,,,,,,15,,68,0
45420,note_on,,1,0,6,,,,,,,,,,,,,,,,6,,67,60
45420,note_on,,0,0,11,,,,,,,,,,,,,,,,15,,67,48
45420,note_on,,1,0,11,,,,,,,,,,,,,,,,15,,63,48
45479,note_on,,59,0,6,,,,,,,,,,,,,,,,6,,67,0
45479,note_on,,0,0,11,,,,,,,,,,,,,,,,15,,67,0
45479,note_on,,0,0,11,,,,,,,,,,,,,,,,15,,63,0
45479,note_on,,0,0,11,,,,,,,,,,,,,,,,15,,72,0
45479,note_on,,59,0,11,,,,,,,,,,,,,,,,15,,53,0
45479,note_on,,239,0,10,,,,,,,,,,,,,,,,13,,53,0
45479,note_on,,239,0,7,,,,,,,,,,,,,,,,10,,77,0
45480,note_on,,0,0,11,,,,,,,,,,,,,,,,15,,53,48
45480,note_on,,1,0,7,,,,,,,,,,,,,,,,10,,74,48
45480,note_on,,1,0,10,,,,,,,,,,,,,,,,13,,46,48
45480,note_on,,1,0,6,,,,,,,,,,,,,,,,6,,68,62
45480,note_on,,1,0,11,,,,,,,,,,,,,,,,15,,46,48
45480,note_on,,0,0,11,,,,,,,,,,,,,,,,15,,70,48
45480,note_on,,0,0,11,,,,,,,,,,,,,,,,15,,65,48
45480,note_on,,0,0,11,,,,,,,,,,,,,,,,15,,62,48
45539,note_on,,0,0,11,,,,,,,,,,,,,,,,15,,65,0
45539,note_on,,59,0,11,,,,,,,,,,,,,,,,15,,62,0
45540,note_on,,1,0,11,,,,,,,,,,,,,,,,15,,63,48
45540,note_on,,0,0,11,,,,,,,,,,,,,,,,15,,60,48
45599,note_on,,59,0,11,,,,,,,,,,,,,,,,15,,63,0
45599,note_on,,0,0,11,,,,,,,,,,,,,,,,15,,60,0
45599,note_on,,359,0,9,,,,,,,,,,,,,,,,12,,65,0
45599,note_on,,119,0,6,,,,,,,,,,,,,,,,6,,68,0
45600,note_on,,1,0,6,,,,,,,,,,,,,,,,6,,67,67
45600,note_on,,1,0,9,,,,,,,,,,,,,,,,12,,58,48
45600,note_on,,1,0,11,,,,,,,,,,,,,,,,15,,62,48
45600,note_on,,0,0,11,,,,,,,,,,,,,,,,15,,58,48
45659,note_on,,59,0,11,,,,,,,,,,,,,,,,15,,70,0
45659,note_on,,0,0,11,,,,,,,,,,,,,,,,15,,62,0
45659,note_on,,59,0,6,,,,,,,,,,,,,,,,6,,67,0
45660,note_on,,1,0,6,,,,,,,,,,,,,,,,6,,65,63
45660,note_on,,1,0,11,,,,,,,,,,,,,,,,15,,62,48
45660,note_on,,0,0,11,,,,,,,,,,,,,,,,15,,65,48
45704,note_on,,44,0,6,,,,,,,,,,,,,,,,6,,65,0
45705,note_on,,1,0,6,,,,,,,,,,,,,,,,6,,65,63
45719,note_on,,0,0,11,,,,,,,,,,,,,,,,15,,58,0
45719,note_on,,0,0,11,,,,,,,,,,,,,,,,15,,53,0
45719,note_on,,239,0,7,,,,,,,,,,,,,,,,10,,74,0
45719,note_on,,0,0,11,,,,,,,,,,,,,,,,15,,62,0
45719,note_on,,59,0,11,,,,,,,,,,,,,,,,15,,46,0
45719,note_on,,14,0,6,,,,,,,,,,,,,,,,6,,65,0
45719,note_on,,119,0,9,,,,,,,,,,,,,,,,12,,58,0
45719,note_on,,479,0,8,,,,,,,,,,,,,,,,11,,68,0
45719,note_on,,239,0,10,,,,,,,,,,,,,,,,13,,46,0
45719,note_on,,0,0,11,,,,,,,,,,,,,,,,15,,65,0
45720,note_on,,0,0,11,,,,,,,,,,,,,,,,15,,58,48
45720,note_on,,1,0,8,,,,,,,,,,,,,,,,11,,67,48
45720,note_on,,0,0,11,,,,,,,,,,,,,,,,15,,67,48
45720,note_on,,0,0,11,,,,,,,,,,,,,,,,15,,63,48
45720,note_on,,1,0,9,,,,,,,,,,,,,,,,12,,58,48
45720,note_on,,1,0,6,,,,,,,,,,,,,,,,6,,67,67
45720,note_on,,1,0,11,,,,,,,,,,,,,,,,15,,51,48
45720,note_on,,1,0,10,,,,,,,,,,,,,,,,13,,51,48
45720,note_on,,1,0,7,,,,,,,,,,,,,,,,10,,75,48
45839,note_on,,0,0,11,,,,,,,,,,,,,,,,15,,63,0
45839,note_on,,119,0,6,,,,,,,,,,,,,,,,6,,67,0
45839,note_on,,119,0,11,,,,,,,,,,,,,,,,15,,58,0
45839,note_on,,0,0,11,,,,,,,,,,,,,,,,15,,67,0
45840,note_on,,1,0,11,,,,,,,,,,,,,,,,15,,63,48
45840,note_on,,0,0,11,,,,,,,,,,,,,,,,15,,67,48
45840,note_on,,0,0,11,,,,,,,,,,,,,,,,15,,70,48
45899,note_on,,59,0,11,,,,,,,,,,,,,,,,15,,63,0
45899,note_on,,0,0,11,,,,,,,,,,,,,,,,15,,67,0
45900,note_on,,61,0,6,,,,,,,,,,,,,,,,6,,67,66
45900,note_on,,1,0,11,,,,,,,,,,,,,,,,15,,62,48
45900,note_on,,0,0,11,,,,,,,,,,,,,,,,15,,65,48
45959,note_on,,239,0,9,,,,,,,,,,,,,,,,12,,58,0
45959,note_on,,239,0,7,,,,,,,,,,,,,,,,10,,75,0
45959,note_on,,239,0,10,,,,,,,,,,,,,,,,13,,51,0
45959,note_on,,0,0,11,,,,,,,,,,,,,,,,15,,65,0
45959,note_on,,0,0,11,,,,,,,,,,,,,,,,15,,62,0
45959,note_on,,0,0,11,,,,,,,,,,,,,,,,15,,70,0
45959,note_on,,59,0,11,,,,,,,,,,,,,,,,15,,51,0
45959,note_on,,59,0,6,,,,,,,,,,,,,,,,6,,67,0
45960,note_on,,0,0,11,,,,,,,,,,,,,,,,15,,44,48
45960,note_on,,0,0,11,,,,,,,,,,,,,,,,15,,63,48
45960,note_on,,0,0,11,,,,,,,,,,,,,,,,15,,56,48
45960,note_on,,1,0,10,,,,,,,,,,,,,,,,13,,44,48
45960,note_on,,1,0,11,,,,,,,,,,,,,,,,15,,72,48
45960,note_on,,0,0,11,,,,,,,,,,,,,,,,15,,60,48
45960,note_on,,1,0,6,,,,,,,,,,,,,,,,6,,67,64
45960,note_on,,1,0,9,,,,,,,,,,,,,,,,12,,60,48
45960,note_on,,1,0,7,,,,,,,,,,,,,,,,10,,72,48
46079,note_on,,359,0,8,,,,,,,,,,,,,,,,11,,67,0
46079,note_on,,119,0,6,,,,,,,,,,,,,,,,6,,67,0
46079,note_on,,119,0,11,,,,,,,,,,,,,,,,15,,60,0
46079,note_on,,0,0,11,,,,,,,,,,,,,,,,15,,63,0
46080,note_on,,1,0,11,,,,,,,,,,,,,,,,15,,60,48
46080,note_on,,0,0,11,,,,,,,,,,,,,,,,15,,68,48
46080,note_on,,1,0,8,,,,,,,,,,,,,,,,11,,65,48
46080,note_on,,1,0,6,,,,,,,,,,,,,,,,6,,65,66
46139,note_on,,59,0,6,,,,,,,,,,,,,,,,6,,65,0
46140,note_on,,1,0,6,,,,,,,,,,,,,,,,6,,63,65
46184,note_on,,44,0,6,,,,,,,,,,,,,,,,6,,63,0
46185,note_on,,1,0,6,,,,,,,,,,,,,,,,6,,63,63
46199,note_on,,0,0,11,,,,,,,,,,,,,,,,15,,44,0
46199,note_on,,239,0,10,,,,,,,,,,,,,,,,13,,44,0
46199,note_on,,239,0,7,,,,,,,,,,,,,,,,10,,72,0
46199,note_on,,119,0,8,,,,,,,,,,,,,,,,11,,65,0
46199,note_on,,119,0,11,,,,,,,,,,,,,,,,15,,72,0
46199,note_on,,14,0,6,,,,,,,,,,,,,,,,6,,63,0
46199,note_on,,0,0,11,,,,,,,,,,,,,,,,15,,56,0
46199,note_on,,0,0,11,,,,,,,,,,,,,,,,15,,60,0
46199,note_on,,239,0,9,,,,,,,,,,,,,,,,12,,60,0
46200,note_on,,0,0,11,,,,,,,,,,,,,,,,15,,53,48
46200,note_on,,0,0,11,,,,,,,,,,,,,,,,15,,62,48
46200,note_on,,1,0,9,,,,,,,,,,,,,,,,12,,62,48
46200,note_on,,1,0,6,,,,,,,,,,,,,,,,6,,62,62
46200,note_on,,1,0,11,,,,,,,,,,,,,,,,15,,70,48
46200,note_on,,1,0,10,,,,,,,,,,,,,,,,13,,46,48
46200,note_on,,1,0,8,,,,,,,,,,,,,,,,11,,65,48
46200,note_on,,1,0,7,,,,,,,,,,,,,,,,10,,70,48
46200,note_on,,0,0,11,,,,,,,,,,,,,,,,15,,46,48
46229,note_on,,29,0,6,,,,,,,,,,,,,,,,6,,62,0
46230,note_on,,1,0,6,,,,,,,,,,,,,,,,6,,60,60
46259,note_on,,29,0,6,,,,,,,,,,,,,,,,6,,60,0
46260,note_on,,1,0,6,,,,,,,,,,,,,,,,6,,58,64
46319,note_on,,59,0,6,,,,,,,,,,,,,,,,6,,58,0
46320,note_on,,1,0,6,,,,,,,,,,,,,,,,6,,70,67
46349,note_on,,29,0,6,,,,,,,,,,,,,,,,6,,70,0
46350,note_on,,1,0,6,,,,,,,,,,,,,,,,6,,68,63
46364,note_on,,14,0,6,,,,,,,,,,,,,,,,6,,68,0
46365,note_on,,1,0,6,,,,,,,,,,,,,,,,6,,67,61
46379,note_on,,14,0,6,,,,,,,,,,,,,,,,6,,67,0
46380,note_on,,1,0,6,,,,,,,,,,,,,,,,6,,65,64
46439,note_on,,0,0,11,,,,,,,,,,,,,,,,15,,70,0
46439,note_on,,59,0,6,,,,,,,,,,,,,,,,6,,65,0
46439,note_on,,239,0,11,,,,,,,,,,,,,,,,15,,68,0
46439,note_on,,239,0,9,,,,,,,,,,,,,,,,12,,62,0
46439,note_on,,0,0,11,,,,,,,,,,,,,,,,15,,53,0
46439,note_on,,0,0,11,,,,,,,,,,,,,,,,15,,62,0
46439,note_on,,239,0,8,,,,,,,,,,,,,,,,11,,65,0
46440,note_on,,0,0,11,,,,,,,,,,,,,,,,15,,63,48
46440,note_on,,0,0,11,,,,,,,,,,,,,,,,15,,70,48
46440,note_on,,0,0,11,,,,,,,,,,,,,,,,15,,58,48
46440,note_on,,0,0,11,,,,,,,,,,,,,,,,15,,51,48
46440,note_on,,1,0,11,,,,,,,,,,,,,,,,15,,66,48
46440,note_on,,1,0,6,,,,,,,,,,,,,,,,6,,66,62
46440,note_on,,1,0,8,,,,,,,,,,,,,,,,11,,66,48
46440,note_on,,1,0,9,,,,,,,,,,,,,,,,12,,63,48
46499,note_on,,59,0,6,,,,,,,,,,,,,,,,6,,66,0
46500,note_on,,1,0,6,,,,,,,,,,,,,,,,6,,62,65
46559,note_on,,59,0,6,,,,,,,,,,,,,,,,6,,62,0
46560,note_on,,1,0,6,,,,,,,,,,,,,,,,6,,63,67
46619,note_on,,59,0,6,,,,,,,,,,,,,,,,6,,63,0
46619,note_on,,179,0,9,,,,,,,,,,,,,,,,12,,63,0
46619,note_on,,179,0,8,,,,,,,,,,,,,,,,11,,66,0
46619,note_on,,179,0,11,,,,,,,,,,,,,,,,15,,66,0
46619,note_on,,0,0,11,,,,,,,,,,,,,,,,15,,51,0
46619,note_on,,0,0,11,,,,,,,,,,,,,,,,15,,58,0
46619,note_on,,0,0,11,,,,,,,,,,,,,,,,15,,63,0
46620,note_on,,1,0,6,,,,,,,,,,,,,,,,6,,58,63
46620,note_on,,0,0,11,,,,,,,,,,,,,,,,15,,65,48
46620,note_on,,1,0,9,,,,,,,,,,,,,,,,12,,62,48
46620,note_on,,1,0,8,,,,,,,,,,,,,,,,11,,65,48
46620,note_on,,1,0,11,,,,,,,,,,,,,,,,15,,62,48
46620,note_on,,0,0,11,,,,,,,,,,,,,,,,15,,58,48
46679,note_on,,59,0,8,,,,,,,,,,,,,,,,11,,65,0
46679,note_on,,59,0,11,,,,,,,,,,,,,,,,15,,70,0
46679,note_on,,0,0,11,,,,,,,,,,,,,,,,15,,62,0
46679,note_on,,0,0,11,,,,,,,,,,,,,,,,15,,65,0
46679,note_on,,0,0,11,,,,,,,,,,,,,,,,15,,58,0
46679,note_on,,59,0,9,,,,,,,,,,,,,,,,12,,62,0
46679,note_on,,479,0,7,,,,,,,,,,,,,,,,10,,70,0
46679,note_on,,59,0,6,,,,,,,,,,,,,,,,6,,58,0
46680,note_on,,1,0,8,,,,,,,,,,,,,,,,11,,63,48
46680,note_on,,1,0,7,,,,,,,,,,,,,,,,10,,71,48
46680,note_on,,1,0,6,,,,,,,,,,,,,,,,6,,59,67
46680,note_on,,0,0,11,,,,,,,,,,,,,,,,15,,54,48
46680,note_on,,0,0,11,,,,,,,,,,,,,,,,15,,63,48
46680,note_on,,0,0,11,,,,,,,,,,,,,,,,15,,71,48
46680,note_on,,1,0,9,,,,,,,,,,,,,,,,12,,66,48
46680,note_on,,1,0,11,,,,,,,,,,,,,,,,15,,66,48
46799,note_on,,0,0,11,,,,,,,,,,,,,,,,15,,54,0
46799,note_on,,0,0,11,,,,,,,,,,,,,,,,15,,66,0
46799,note_on,,599,0,10,,,,,,,,,,,,,,,,13,,46,0
46799,note_on,,119,0,11,,,,,,,,,,,,,,,,15,,46,0
46799,note_on,,119,0,9,,,,,,,,,,,,,,,,12,,66,0
46799,note_on,,0,0,11,,,,,,,,,,,,,,,,15,,63,0
46800,note_on,,1,0,10,,,,,,,,,,,,,,,,13,,44,48
46800,note_on,,1,0,9,,,,,,,,,,,,,,,,12,,65,48
46800,note_on,,0,0,11,,,,,,,,,,,,,,,,15,,65,48
46800,note_on,,1,0,11,,,,,,,,,,,,,,,,15,,44,48
46800,note_on,,0,0,11,,,,,,,,,,,,,,,,15,,68,48
46800,note_on,,0,0,11,,,,,,,,,,,,,,,,15,,59,48
46859,note_on,,179,0,6,,,,,,,,,,,,,,,,6,,59,0
46860,note_on,,1,0,6,,,,,,,,,,,,,,,,6,,61,60
46889,note_on,,29,0,6,,,,,,,,,,,,,,,,6,,61,0
46890,note_on,,1,0,6,,,,,,,,,,,,,,,,6,,59,67
46919,note_on,,29,0,6,,,,,,,,,,,,,,,,6,,59,0
46919,note_on,,239,0,7,,,,,,,,,,,,,,,,10,,71,0
46919,note_on,,119,0,11,,,,,,,,,,,,,,,,15,,71,0
46919,note_on,,0,0,11,,,,,,,,,,,,,,,,15,,59,0
46919,note_on,,0,0,11,,,,,,,,,,,,,,,,15,,68,0
46919,note_on,,0,0,11,,,,,,,,,,,,,,,,15,,65,0
46919,note_on,,239,0,8,,,,,,,,,,,,,,,,11,,63,0
46920,note_on,,1,0,11,,,,,,,,,,,,,,,,15,,65,48
46920,note_on,,0,0,11,,,,,,,,,,,,,,,,15,,70,48
46920,note_on,,1,0,7,,,,,,,,,,,,,,,,10,,70,48
46920,note_on,,0,0,11,,,,,,,,,,,,,,,,15,,62,48
46920,note_on,,0,0,11,,,,,,,,,,,,,,,,15,,53,48
46920,note_on,,1,0,6,,,,,,,,,,,,,,,,6,,58,64
46920,note_on,,1,0,8,,,,,,,,,,,,,,,,11,,62,48
47039,note_on,,239,0,10,,,,,,,,,,,,,,,,13,,44,0
47039,note_on,,119,0,6,,,,,,,,,,,,,,,,6,,58,0
47039,note_on,,0,0,11,,,,,,,,,,,,,,,,15,,65,0
47039,note_on,,119,0,8,,,,,,,,,,,,,,,,11,,62,0
47039,note_on,,239,0,9,,,,,,,,,,,,,,,,12,,65,0
47039,note_on,,0,0,11,,,,,,,,,,,,,,,,15,,53,0
47039,note_on,,0,0,11,,,,,,,,,,,,,,,,15,,62,0
47039,note_on,,119,0,11,,,,,,,,,,,,,,,,15,,44,0
47040,note_on,,1,0,9,,,,,,,,,,,,,,,,12,,58,48
47040,note_on,,0,0,11,,,,,,,,,,,,,,,,15,,66,48
47040,note_on,,1,0,11,,,,,,,,,,,,,,,,15,,43,48
47040,note_on,,0,0,11,,,,,,,,,,,,,,,,15,,51,48
47040,note_on,,0,0,11,,,,,,,,,,,,,,,,15,,63,48
47040,note_on,,1,0,10,,,,,,,,,,,,,,,,13,,43,48
47040,note_on,,1,0,8,,,,,,,,,,,,,,,,11,,63,48
47100,note_on,,61,0,6,,,,,,,,,,,,,,,,6,,63,66
47159,note_on,,119,0,11,,,,,,,,,,,,,,,,15,,70,0
47159,note_on,,239,0,7,,,,,,,,,,,,,,,,10,,70,0
47159,note_on,,0,0,11,,,,,,,,,,,,,,,,15,,51,0
47159,note_on,,59,0,6,,,,,,,,,,,,,,,,6,,63,0
47159,note_on,,119,0,10,,,,,,,,,,,,,,,,13,,43,0
47159,note_on,,119,0,9,,,,,,,,,,,,,,,,12,,58,0
47159,note_on,,0,0,11,,,,,,,,,,,,,,,,15,,63,0
47159,note_on,,0,0,11,,,,,,,,,,,,,,,,15,,66,0
47159,note_on,,0,0,11,,,,,,,,,,,,,,,,15,,43,0
47160,note_on,,0,0,11,,,,,,,,,,,,,,,,15,,68,48
47160,note_on,,1,0,6,,,,,,,,,,,,,,,,6,,68,64
47160,note_on,,0,0,11,,,,,,,,,,,,,,,,15,,60,48
47160,note_on,,1,0,9,,,,,,,,,,,,,,,,12,,60,48
47160,note_on,,1,0,7,,,,,,,,,,,,,,,,10,,68,48
47160,note_on,,0,0,11,,,,,,,,,,,,,,,,15,,41,48
47160,note_on,,0,0,11,,,,,,,,,,,,,,,,15,,53,48
47160,note_on,,1,0,11,,,,,,,,,,,,,,,,15,,63,48
47160,note_on,,1,0,10,,,,,,,,,,,,,,,,13,,41,48
47279,note_on,,119,0,10,,,,,,,,,,,,,,,,13,,41,0
47279,note_on,,239,0,8,,,,,,,,,,,,,,,,11,,63,0
47279,note_on,,0,0,11,,,,,,,,,,,,,,,,15,,60,0
47279,note_on,,0,0,11,,,,,,,,,,,,,,,,15,,41,0
47279,note_on,,0,0,11,,,,,,,,,,,,,,,,15,,53,0
47279,note_on,,119,0,11,,,,,,,,,,,,,,,,15,,63,0
47279,note_on,,119,0,9,,,,,,,,,,,,,,,,12,,60,0
47280,note_on,,1,0,9,,,,,,,,,,,,,,,,12,,58,48
47280,note_on,,1,0,10,,,,,,,,,,,,,,,,13,,46,48
47280,note_on,,1,0,8,,,,,,,,,,,,,,,,11,,62,48
47280,note_on,,1,0,11,,,,,,,,,,,,,,,,15,,62,48
47280,note_on,,0,0,11,,,,,,,,,,,,,,,,15,,53,48
47280,note_on,,0,0,11,,,,,,,,,,,,,,,,15,,58,48
47280,note_on,,0,0,11,,,,,,,,,,,,,,,,15,,46,48
47339,note_on,,0,0,11,,,,,,,,,,,,,,,,15,,58,0
47339,note_on,,0,0,11,,,,,,,,,,,,,,,,15,,62,0
47339,note_on,,59,0,11,,,,,,,,,,,,,,,,15,,68,0
47339,note_on,,179,0,6,,,,,,,,,,,,,,,,6,,68,0
47340,note_on,,0,0,11,,,,,,,,,,,,,,,,15,,70,48
47340,note_on,,1,0,11,,,,,,,,,,,,,,,,15,,65,48
47340,note_on,,1,0,6,,,,,,,,,,,,,,,,6,,65,61
47340,note_on,,0,0,11,,,,,,,,,,,,,,,,15,,62,48
47399,note_on,,0,0,11,,,,,,,,,,,,,,,,15,,62,0
47399,note_on,,0,0,11,,,,,,,,,,,,,,,,15,,65,0
47399,note_on,,239,0,7,,,,,,,,,,,,,,,,10,,68,0
47399,note_on,,119,0,8,,,,,,,,,,,,,,,,11,,62,0
47399,note_on,,0,0,11,,,,,,,,,,,,,,,,15,,53,0
47399,note_on,,119,0,9,,,,,,,,,,,,,,,,12,,58,0
47399,note_on,,59,0,6,,,,,,,,,,,,,,,,6,,65,0
47399,note_on,,119,0,10,,,,,,,,,,,,,,,,13,,46,0
47399,note_on,,59,0,11,,,,,,,,,,,,,,,,15,,46,0
47400,note_on,,1,0,9,,,,,,,,,,,,,,,,12,,58,48
47400,note_on,,1,0,6,,,,,,,,,,,,,,,,6,,67,61
47400,note_on,,1,0,10,,,,,,,,,,,,,,,,13,,51,48
47400,note_on,,0,0,11,,,,,,,,,,,,,,,,15,,63,48
47400,note_on,,0,0,11,,,,,,,,,,,,,,,,15,,51,48
47400,note_on,,1,0,11,,,,,,,,,,,,,,,,15,,67,48
47400,note_on,,1,0,7,,,,,,,,,,,,,,,,10,,67,48
47400,note_on,,1,0,8,,,,,,,,,,,,,,,,11,,63,48
47429,note_on,,29,0,6,,,,,,,,,,,,,,,,6,,67,0
47430,note_on,,1,0,6,,,,,,,,,,,,,,,,6,,65,63
47444,note_on,,14,0,6,,,,,,,,,,,,,,,,6,,65,0
47445,note_on,,1,0,6,,,,,,,,,,,,,,,,6,,63,60
47459,note_on,,0,0,11,,,,,,,,,,,,,,,,15,,63,0
47459,note_on,,14,0,6,,,,,,,,,,,,,,,,6,,63,0
47459,note_on,,59,0,11,,,,,,,,,,,,,,,,15,,67,0
47459,note_on,,59,0,10,,,,,,,,,,,,,,,,13,,51,0
47459,note_on,,0,0,11,,,,,,,,,,,,,,,,15,,51,0
47460,note_on,,0,0,11,,,,,,,,,,,,,,,,15,,65,48
47460,note_on,,1,0,6,,,,,,,,,,,,,,,,6,,62,63
47460,note_on,,0,0,11,,,,,,,,,,,,,,,,15,,62,48
47460,note_on,,1,0,10,,,,,,,,,,,,,,,,13,,58,48
47460,note_on,,1,0,11,,,,,,,,,,,,,,,,15,,58,48
47519,note_on,,59,0,11,,,,,,,,,,,,,,,,15,,70,0
47519,note_on,,0,0,11,,,,,,,,,,,,,,,,15,,58,0
47519,note_on,,0,0,11,,,,,,,,,,,,,,,,15,,62,0
47519,note_on,,0,0,11,,,,,,,,,,,,,,,,15,,65,0
47519,note_on,,119,0,7,,,,,,,,,,,,,,,,10,,67,0
47519,note_on,,59,0,6,,,,,,,,,,,,,,,,6,,62,0
47519,note_on,,119,0,8,,,,,,,,,,,,,,,,11,,63,0
47519,note_on,,59,0,10,,,,,,,,,,,,,,,,13,,58,0
47519,note_on,,119,0,9,,,,,,,,,,,,,,,,12,,58,0
47520,note_on,,1,0,6,,,,,,,,,,,,,,,,6,,63,60
47520,note_on,,0,0,11,,,,,,,,,,,,,,,,15,,63,48
47520,note_on,,0,0,11,,,,,,,,,,,,,,,,15,,67,48
47520,note_on,,1,0,10,,,,,,,,,,,,,,,,13,,60,48
47520,note_on,,1,0,11,,,,,,,,,,,,,,,,15,,60,48
47579,note_on,,0,0,11,,,,,,,,,,,,,,,,15,,63,0
47579,note_on,,59,0,10,,,,,,,,,,,,,,,,13,,60,0
47579,note_on,,0,0,11,,,,,,,,,,,,,,,,15,,67,0
47579,note_on,,59,0,6,,,,,,,,,,,,,,,,6,,63,0
47579,note_on,,59,0,11,,,,,,,,,,,,,,,,15,,60,0
47580,note_on,,1,0,10,,,,,,,,,,,,,,,,13,,56,48
47580,note_on,,1,0,11,,,,,,,,,,,,,,,,15,,63,48
47580,note_on,,1,0,6,,,,,,,,,,,,,,,,6,,68,65
47580,note_on,,0,0,11,,,,,,,,,,,,,,,,15,,68,48
47580,note_on,,0,0,11,,,,,,,,,,,,,,,,15,,72,48
47580,note_on,,0,0,11,,,,,,,,,,,,,,,,15,,56,48
47639,note_on,,59,0,6,,,,,,,,,,,,,,,,6,,68,0
47639,note_on,,0,0,11,,,,,,,,,,,,,,,,15,,56,0
47639,note_on,,0,0,11,,,,,,,,,,,,,,,,15,,68,0
47639,note_on,,59,0,10,,,,,,,,,,,,,,,,13,,56,0
47639,note_on,,0,0,11,,,,,,,,,,,,,,,,15,,72,0
47639,note_on,,59,0,11,,,,,,,,,,,,,,,,15,,63,0
47640,note_on,,1,0,10,,,,,,,,,,,,,,,,13,,58,48
47640,note_on,,1,0,11,,,,,,,,,,,,,,,,15,,70,48
47640,note_on,,0,0,11,,,,,,,,,,,,,,,,15,,67,48
47640,note_on,,0,0,11,,,,,,,,,,,,,,,,15,,63,48
47640,note_on,,0,0,11,,,,,,,,,,,,,,,,15,,58,48
47640,note_on,,1,0,6,,,,,,,,,,,,,,,,6,,67,66
47699,note_on,,59,0,11,,,,,,,,,,,,,,,,15,,67,0
47699,note_on,,0,0,11,,,,,,,,,,,,,,,,15,,63,0
47700,note_on,,0,0,11,,,,,,,,,,,,,,,,15,,63,48
47700,note_on,,1,0,11,,,,,,,,,,,,,,,,15,,60,48
47759,note_on,,119,0,6,,,,,,,,,,,,,,,,6,,67,0
47759,note_on,,0,0,11,,,,,,,,,,,,,,,,15,,60,0
47759,note_on,,59,0,11,,,,,,,,,,,,,,,,15,,58,0
47759,note_on,,0,0,11,,,,,,,,,,,,,,,,15,,63,0
47759,note_on,,119,0,10,,,,,,,,,,,,,,,,13,,58,0
47760,note_on,,1,0,6,,,,,,,,,,,,,,,,6,,65,60
47760,note_on,,1,0,11,,,,,,,,,,,,,,,,15,,65,48
47760,note_on,,0,0,11,,,,,,,,,,,,,,,,15,,62,48
47760,note_on,,0,0,11,,,,,,,,,,,,,,,,15,,46,48
47760,note_on,,1,0,10,,,,,,,,,,,,,,,,13,,46,48
47774,note_on,,14,0,6,,,,,,,,,,,,,,,,6,,65,0
47775,note_on,,1,0,6,,,,,,,,,,,,,,,,6,,67,66
47789,note_on,,14,0,6,,,,,,,,,,,,,,,,6,,67,0
47790,note_on,,1,0,6,,,,,,,,,,,,,,,,6,,65,65
47804,note_on,,14,0,6,,,,,,,,,,,,,,,,6,,65,0
47805,note_on,,1,0,6,,,,,,,,,,,,,,,,6,,67,65
47819,note_on,,59,0,11,,,,,,,,,,,,,,,,15,,70,0
47819,note_on,,14,0,6,,,,,,,,,,,,,,,,6,,67,0
47820,note_on,,1,0,11,,,,,,,,,,,,,,,,15,,68,48
47820,note_on,,1,0,6,,,,,,,,,,,,,,,,6,,63,66
47834,note_on,,14,0,6,,,,,,,,,,,,,,,,6,,63,0
47835,note_on,,1,0,6,,,,,,,,,,,,,,,,6,,65,64
47849,note_on,,14,0,6,,,,,,,,,,,,,,,,6,,65,0
47850,note_on,,1,0,6,,,,,,,,,,,,,,,,6,,63,65
47879,note_on,,0,0,11,,,,,,,,,,,,,,,,15,,46,0
47879,note_on,,0,0,11,,,,,,,,,,,,,,,,15,,62,0
47879,note_on,,0,0,11,,,,,,,,,,,,,,,,15,,68,0
47879,note_on,,29,0,6,,,,,,,,,,,,,,,,6,,63,0
47879,note_on,,119,0,10,,,,,,,,,,,,,,,,13,,46,0
47879,note_on,,59,0,11,,,,,,,,,,,,,,,,15,,65,0
47880,note_on,,1,0,11,,,,,,,,,,,,,,,,15,,58,48
47880,note_on,,0,0,11,,,,,,,,,,,,,,,,15,,63,48
47880,note_on,,1,0,10,,,,,,,,,,,,,,,,13,,51,48
47880,note_on,,0,0,11,,,,,,,,,,,,,,,,15,,51,48
47880,note_on,,0,0,11,,,,,,,,,,,,,,,,15,,67,48
47880,note_on,,1,0,6,,,,,,,,,,,,,,,,6,,63,61
47999,note_on,,0,0,11,,,,,,,,,,,,,,,,15,,51,0
47999,note_on,,119,0,11,,,,,,,,,,,,,,,,15,,58,0
47999,note_on,,119,0,6,,,,,,,,,,,,,,,,6,,63,0
47999,note_on,,0,0,11,,,,,,,,,,,,,,,,15,,63,0
47999,note_on,,119,0,10,,,,,,,,,,,,,,,,13,,51,0
47999,note_on,,0,0,11,,,,,,,,,,,,,,,,15,,67,0
48180,note_on,,181,0,6,,,,,,,,,,,,,,,,6,,63,65
48239,note_on,,59,0,6,,,,,,,,,,,,,,,,6,,63,0
48240,note_on,,1,0,6,,,,,,,,,,,,,,,,6,,67,65
48269,note_on,,29,0,6,,,,,,,,,,,,,,,,6,,67,0
48270,note_on,,1,0,6,,,,,,,,,,,,,,,,6,,67,66
48284,note_on,,14,0,6,,,,,,,,,,,,,,,,6,,67,0
48285,note_on,,1,0,6,,,,,,,,,,,,,,,,6,,68,60
48299,note_on,,14,0,6,,,,,,,,,,,,,,,,6,,68,0
48300,note_on,,1,0,6,,,,,,,,,,,,,,,,6,,70,66
48344,note_on,,44,0,6,,,,,,,,,,,,,,,,6,,70,0
48345,note_on,,1,0,6,,,,,,,,,,,,,,,,6,,70,65
48359,note_on,,14,0,6,,,,,,,,,,,,,,,,6,,70,0
48360,note_on,,1,0,6,,,,,,,,,,,,,,,,6,,68,65
48419,note_on,,59,0,6,,,,,,,,,,,,,,,,6,,68,0
48420,note_on,,1,0,6,,,,,,,,,,,,,,,,6,,67,60
48479,note_on,,59,0,6,,,,,,,,,,,,,,,,6,,67,0
48540,note_on,,1021,0,7,,,,,,,,,,,,,,,,10,,82,48
48540,note_on,,1021,0,8,,,,,,,,,,,,,,,,11,,79,48
48599,note_on,,59,0,7,,,,,,,,,,,,,,,,10,,82,0
48599,note_on,,59,0,8,,,,,,,,,,,,,,,,11,,79,0
48600,note_on,,1,0,7,,,,,,,,,,,,,,,,10,,80,48
48600,note_on,,1,0,8,,,,,,,,,,,,,,,,11,,77,48
48659,note_on,,59,0,7,,,,,,,,,,,,,,,,10,,80,0
48659,note_on,,59,0,8,,,,,,,,,,,,,,,,11,,77,0
48660,note_on,,1,0,7,,,,,,,,,,,,,,,,10,,79,48
48660,note_on,,1,0,8,,,,,,,,,,,,,,,,11,,75,48
48719,note_on,,59,0,7,,,,,,,,,,,,,,,,10,,79,0
48719,note_on,,59,0,8,,,,,,,,,,,,,,,,11,,75,0
48750,note_on,,271,0,6,,,,,,,,,,,,,,,,6,,67,64
48764,note_on,,14,0,6,,,,,,,,,,,,,,,,6,,67,0
48765,note_on,,1,0,6,,,,,,,,,,,,,,,,6,,68,67
48779,note_on,,14,0,6,,,,,,,,,,,,,,,,6,,68,0
48780,note_on,,1,0,6,,,,,,,,,,,,,,,,6,,70,60
48824,note_on,,44,0,6,,,,,,,,,,,,,,,,6,,70,0
48825,note_on,,1,0,6,,,,,,,,,,,,,,,,6,,70,62
48839,note_on,,14,0,6,,,,,,,,,,,,,,,,6,,70,0
48840,note_on,,1,0,6,,,,,,,,,,,,,,,,6,,68,61
48899,note_on,,59,0,6,,,,,,,,,,,,,,,,6,,68,0
48900,note_on,,1,0,6,,,,,,,,,,,,,,,,6,,67,67
48959,note_on,,59,0,6,,,,,,,,,,,,,,,,6,,67,0
49020,note_on,,301,0,7,,,,,,,,,,,,,,,,10,,70,48
49020,note_on,,301,0,8,,,,,,,,,,,,,,,,11,,67,48
49079,note_on,,59,0,7,,,,,,,,,,,,,,,,10,,70,0
49079,note_on,,59,0,8,,,,,,,,,,,,,,,,11,,67,0
49080,note_on,,1,0,7,,,,,,,,,,,,,,,,10,,68,48
49080,note_on,,1,0,8,,,,,,,,,,,,,,,,11,,65,48
49139,note_on,,59,0,7,,,,,,,,,,,,,,,,10,,68,0
49139,note_on,,59,0,8,,,,,,,,,,,,,,,,11,,65,0
49140,note_on,,1,0,7,,,,,,,,,,,,,,,,10,,67,48
49140,note_on,,1,0,8,,,,,,,,,,,,,,,,11,,63,48
49199,note_on,,59,0,7,,,,,,,,,,,,,,,,10,,67,0
49199,note_on,,59,0,8,,,,,,,,,,,,,,,,11,,63,0
49260,note_on,,301,0,6,,,,,,,,,,,,,,,,6,,65,64
49319,note_on,,59,0,6,,,,,,,,,,,,,,,,6,,65,0
49320,note_on,,1801,0,9,,,,,,,,,,,,,,,,12,,63,48
49320,note_on,,1321,0,10,,,,,,,,,,,,,,,,13,,45,48
49320,note_on,,1,0,6,,,,,,,,,,,,,,,,6,,66,62
49320,note_on,,121,0,7,,,,,,,,,,,,,,,,10,,72,48
49320,note_on,,121,0,8,,,,,,,,,,,,,,,,11,,66,48
49320,note_on,,1321,0,11,,,,,,,,,,,,,,,,15,,45,48
49335,note_on,,15,0,11,,,,,,,,,,,,,,,,15,,51,48
49350,note_on,,15,0,11,,,,,,,,,,,,,,,,15,,57,48
49365,note_on,,15,0,11,,,,,,,,,,,,,,,,15,,60,48
49379,note_on,,59,0,6,,,,,,,,,,,,,,,,6,,66,0
49380,note_on,,15,0,11,,,,,,,,,,,,,,,,15,,63,48
49380,note_on,,1,0,6,,,,,,,,,,,,,,,,6,,62,67
49395,note_on,,15,0,11,,,,,,,,,,,,,,,,15,,66,48
49410,note_on,,15,0,11,,,,,,,,,,,,,,,,15,,72,48
49439,note_on,,59,0,6,,,,,,,,,,,,,,,,6,,62,0
49440,note_on,,1,0,6,,,,,,,,,,,,,,,,6,,63,62
49499,note_on,,59,0,6,,,,,,,,,,,,,,,,6,,63,0
49500,note_on,,1,0,6,,,,,,,,,,,,,,,,6,,65,65
49559,note_on,,59,0,6,,,,,,,,,,,,,,,,6,,65,0
49560,note_on,,1,0,6,,,,,,,,,,,,,,,,6,,66,61
49619,note_on,,59,0,6,,,,,,,,,,,,,,,,6,,66,0
49620,note_on,,1,0,6,,,,,,,,,,,,,,,,6,,62,61
49679,note_on,,59,0,6,,,,,,,,,,,,,,,,6,,62,0
49680,note_on,,1,0,6,,,,,,,,,,,,,,,,6,,63,61
49739,note_on,,59,0,6,,,,,,,,,,,,,,,,6,,63,0
49740,note_on,,1,0,6,,,,,,,,,,,,,,,,6,,65,64
49799,note_on,,59,0,6,,,,,,,,,,,,,,,,6,,65,0
49800,note_on,,1,0,6,,,,,,,,,,,,,,,,6,,66,67
49904,note_on,,104,0,6,,,,,,,,,,,,,,,,6,,66,0
49905,note_on,,1,0,6,,,,,,,,,,,,,,,,6,,66,60
49919,note_on,,14,0,6,,,,,,,,,,,,,,,,6,,66,0
49920,note_on,,1,0,6,,,,,,,,,,,,,,,,6,,65,67
49964,note_on,,44,0,6,,,,,,,,,,,,,,,,6,,65,0
49965,note_on,,1,0,6,,,,,,,,,,,,,,,,6,,65,63
49979,note_on,,14,0,6,,,,,,,,,,,,,,,,6,,65,0
49980,note_on,,1,0,6,,,,,,,,,,,,,,,,6,,63,60
50024,note_on,,44,0,6,,,,,,,,,,,,,,,,6,,63,0
50025,note_on,,1,0,6,,,,,,,,,,,,,,,,6,,63,66
50039,note_on,,0,0,11,,,,,,,,,,,,,,,,15,,72,0
50039,note_on,,14,0,6,,,,,,,,,,,,,,,,6,,63,0
50039,note_on,,0,0,11,,,,,,,,,,,,,,,,15,,57,0
50039,note_on,,0,0,11,,,,,,,,,,,,,,,,15,,51,0
50039,note_on,,629,0,11,,,,,,,,,,,,,,,,15,,45,0
50039,note_on,,0,0,11,,,,,,,,,,,,,,,,15,,66,0
50039,note_on,,719,0,10,,,,,,,,,,,,,,,,13,,45,0
50039,note_on,,0,0,11,,,,,,,,,,,,,,,,15,,60,0
50039,note_on,,0,0,11,,,,,,,,,,,,,,,,15,,63,0
50039,note_on,,719,0,7,,,,,,,,,,,,,,,,10,,72,0
50039,note_on,,719,0,8,,,,,,,,,,,,,,,,11,,66,0
50039,note_on,,719,0,9,,,,,,,,,,,,,,,,12,,63,0
50040,note_on,,1,0,11,,,,,,,,,,,,,,,,15,,44,48
50040,note_on,,0,0,11,,,,,,,,,,,,,,,,15,,58,48
50040,note_on,,1,0,7,,,,,,,,,,,,,,,,10,,70,48
50040,note_on,,0,0,11,,,,,,,,,,,,,,,,15,,62,48
50040,note_on,,0,0,11,,,,,,,,,,,,,,,,15,,65,48
50040,note_on,,0,0,11,,,,,,,,,,,,,,,,15,,53,48
50040,note_on,,1,0,9,,,,,,,,,,,,,,,,12,,62,48
50040,note_on,,1,0,8,,,,,,,,,,,,,,,,11,,65,48
50040,note_on,,1,0,6,,,,,,,,,,,,,,,,6,,62,61
50040,note_on,,1,0,10,,,,,,,,,,,,,,,,13,,44,48
50159,note_on,,119,0,7,,,,,,,,,,,,,,,,10,,70,0
50159,note_on,,119,0,9,,,,,,,,,,,,,,,,12,,62,0
50159,note_on,,119,0,8,,,,,,,,,,,,,,,,11,,65,0
50159,note_on,,119,0,6,,,,,,,,,,,,,,,,6,,62,0
50159,note_on,,0,0,11,,,,,,,,,,,,,,,,15,,58,0
50159,note_on,,119,0,10,,,,,,,,,,,,,,,,13,,44,0
50159,note_on,,0,0,11,,,,,,,,,,,,,,,,15,,62,0
50159,note_on,,0,0,11,,,,,,,,,,,,,,,,15,,65,0
50159,note_on,,119,0,11,,,,,,,,,,,,,,,,15,,44,0
50159,note_on,,0,0,11,,,,,,,,,,,,,,,,15,,53,0
50160,note_on,,0,0,11,,,,,,,,,,,,,,,,15,,58,48
50160,note_on,,0,0,11,,,,,,,,,,,,,,,,15,,43,48
50160,note_on,,1,0,11,,,,,,,,,,,,,,,,15,,63,48
50160,note_on,,1,0,6,,,,,,,,,,,,,,,,6,,63,67
50160,note_on,,0,0,11,,,,,,,,,,,,,,,,15,,55,48
50160,note_on,,1,0,10,,,,,,,,,,,,,,,,13,,43,48
50219,note_on,,0,0,11,,,,,,,,,,,,,,,,15,,55,0
50219,note_on,,59,0,10,,,,,,,,,,,,,,,,13,,43,0
50219,note_on,,59,0,11,,,,,,,,,,,,,,,,15,,43,0
50219,note_on,,0,0,11,,,,,,,,,,,,,,,,15,,58,0
50219,note_on,,59,0,6,,,,,,,,,,,,,,,,6,,63,0
50220,note_on,,1,0,6,,,,,,,,,,,,,,,,6,,68,66
50220,note_on,,1,0,10,,,,,,,,,,,,,,,,13,,48,48
50220,note_on,,0,0,11,,,,,,,,,,,,,,,,15,,56,48
50220,note_on,,0,0,11,,,,,,,,,,,,,,,,15,,51,48
50220,note_on,,1,0,11,,,,,,,,,,,,,,,,15,,48,48
50279,note_on,,59,0,11,,,,,,,,,,,,,,,,15,,63,0
50279,note_on,,59,0,10,,,,,,,,,,,,,,,,13,,48,0
50279,note_on,,59,0,6,,,,,,,,,,,,,,,,6,,68,0
50279,note_on,,0,0,11,,,,,,,,,,,,,,,,15,,48,0
50279,note_on,,0,0,11,,,,,,,,,,,,,,,,15,,51,0
50279,note_on,,0,0,11,,,,,,,,,,,,,,,,15,,56,0
50280,note_on,,1,0,10,,,,,,,,,,,,,,,,13,,46,48
50280,note_on,,1,0,6,,,,,,,,,,,,,,,,6,,67,66
50280,note_on,,1,0,11,,,,,,,,,,,,,,,,15,,46,48
50280,note_on,,0,0,11,,,,,,,,,,,,,,,,15,,55,48
50280,note_on,,0,0,11,,,,,,,,,,,,,,,,15,,58,48
50280,note_on,,0,0,11,,,,,,,,,,,,,,,,15,,51,48
50280,note_on,,0,0,11,,,,,,,,,,,,,,,,15,,63,48
50339,note_on,,59,0,11,,,,,,,,,,,,,,,,15,,55,0
50340,note_on,,1,0,11,,,,,,,,,,,,,,,,15,,56,48
50399,note_on,,0,0,11,,,,,,,,,,,,,,,,15,,56,0
50399,note_on,,0,0,11,,,,,,,,,,,,,,,,15,,51,0
50399,note_on,,59,0,11,,,,,,,,,,,,,,,,15,,58,0
50399,note_on,,119,0,6,,,,,,,,,,,,,,,,6,,67,0
50400,note_on,,1,0,11,,,,,,,,,,,,,,,,15,,58,48
50400,note_on,,1,0,6,,,,,,,,,,,,,,,,6,,67,61
50400,note_on,,0,0,11,,,,,,,,,,,,,,,,15,,53,48
50414,note_on,,14,0,6,,,,,,,,,,,,,,,,6,,67,0
50415,note_on,,1,0,6,,,,,,,,,,,,,,,,6,,65,63
50429,note_on,,14,0,6,,,,,,,,,,,,,,,,6,,65,0
50430,note_on,,1,0,6,,,,,,,,,,,,,,,,6,,63,60
50444,note_on,,14,0,6,,,,,,,,,,,,,,,,6,,63,0
50445,note_on,,1,0,6,,,,,,,,,,,,,,,,6,,65,66
50459,note_on,,179,0,10,,,,,,,,,,,,,,,,13,,46,0
50459,note_on,,0,0,11,,,,,,,,,,,,,,,,15,,63,0
50459,note_on,,59,0,11,,,,,,,,,,,,,,,,15,,46,0
50460,note_on,,0,0,11,,,,,,,,,,,,,,,,15,,62,48
50460,note_on,,1,0,11,,,,,,,,,,,,,,,,15,,46,48
50460,note_on,,1,0,10,,,,,,,,,,,,,,,,13,,46,48
50489,note_on,,44,0,6,,,,,,,,,,,,,,,,6,,65,0
50490,note_on,,1,0,6,,,,,,,,,,,,,,,,6,,63,60
50519,note_on,,29,0,6,,,,,,,,,,,,,,,,6,,63,0
50519,note_on,,0,0,11,,,,,,,,,,,,,,,,15,,46,0
50519,note_on,,0,0,11,,,,,,,,,,,,,,,,15,,53,0
50519,note_on,,59,0,11,,,,,,,,,,,,,,,,15,,58,0
50519,note_on,,59,0,10,,,,,,,,,,,,,,,,13,,46,0
50519,note_on,,0,0,11,,,,,,,,,,,,,,,,15,,62,0
50520,note_on,,1,0,11,,,,,,,,,,,,,,,,15,,39,48
50520,note_on,,0,0,11,,,,,,,,,,,,,,,,15,,58,48
50520,note_on,,0,0,11,,,,,,,,,,,,,,,,15,,55,48
50520,note_on,,0,0,11,,,,,,,,,,,,,,,,15,,63,48
50520,note_on,,1,0,10,,,,,,,,,,,,,,,,13,,39,48
50520,note_on,,1,0,6,,,,,,,,,,,,,,,,6,,63,63
50639,note_on,,119,0,11,,,,,,,,,,,,,,,,15,,55,0
50639,note_on,,0,0,11,,,,,,,,,,,,,,,,15,,58,0
50640,note_on,,0,0,11,,,,,,,,,,,,,,,,15,,51,48
50640,note_on,,1,0,11,,,,,,,,,,,,,,,,15,,55,48
50699,note_on,,0,0,11,,,,,,,,,,,,,,,,15,,51,0
50699,note_on,,59,0,11,,,,,,,,,,,,,,,,15,,55,0
50700,note_on,,541,0,7,,,,,,,,,,,,,,,,10,,75,48
50700,note_on,,0,0,11,,,,,,,,,,,,,,,,15,,56,48
50700,note_on,,1,0,11,,,,,,,,,,,,,,,,15,,53,48
50700,note_on,,541,0,8,,,,,,,,,,,,,,,,11,,72,48
50759,note_on,,59,0,11,,,,,,,,,,,,,,,,15,,53,0
50759,note_on,,59,0,8,,,,,,,,,,,,,,,,11,,72,0
50759,note_on,,59,0,7,,,,,,,,,,,,,,,,10,,75,0
50759,note_on,,0,0,11,,,,,,,,,,,,,,,,15,,56,0
50760,note_on,,1,0,7,,,,,,,,,,,,,,,,10,,73,48
50760,note_on,,0,0,11,,,,,,,,,,,,,,,,15,,58,48
50760,note_on,,1,0,11,,,,,,,,,,,,,,,,15,,55,48
50760,note_on,,1,0,8,,,,,,,,,,,,,,,,11,,70,48
50774,note_on,,14,0,8,,,,,,,,,,,,,,,,11,,70,0
50774,note_on,,14,0,7,,,,,,,,,,,,,,,,10,,73,0
50775,note_on,,1,0,8,,,,,,,,,,,,,,,,11,,72,48
50775,note_on,,1,0,7,,,,,,,,,,,,,,,,10,,75,48
50789,note_on,,14,0,8,,,,,,,,,,,,,,,,11,,72,0
50789,note_on,,14,0,7,,,,,,,,,,,,,,,,10,,75,0
50790,note_on,,1,0,8,,,,,,,,,,,,,,,,11,,68,48
50790,note_on,,1,0,7,,,,,,,,,,,,,,,,10,,72,48
50804,note_on,,14,0,8,,,,,,,,,,,,,,,,11,,68,0
50804,note_on,,14,0,7,,,,,,,,,,,,,,,,10,,72,0
50805,note_on,,1,0,8,,,,,,,,,,,,,,,,11,,70,48
50805,note_on,,1,0,7,,,,,,,,,,,,,,,,10,,73,48
50819,note_on,,14,0,8,,,,,,,,,,,,,,,,11,,70,0
50819,note_on,,59,0,11,,,,,,,,,,,,,,,,15,,55,0
50819,note_on,,0,0,11,,,,,,,,,,,,,,,,15,,58,0
50819,note_on,,14,0,7,,,,,,,,,,,,,,,,10,,73,0
50820,note_on,,1,0,8,,,,,,,,,,,,,,,,11,,68,48
50820,note_on,,1,0,7,,,,,,,,,,,,,,,,10,,72,48
50820,note_on,,1,0,11,,,,,,,,,,,,,,,,15,,56,48
50820,note_on,,0,0,11,,,,,,,,,,,,,,,,15,,60,48
50879,note_on,,59,0,8,,,,,,,,,,,,,,,,11,,68,0
50879,note_on,,59,0,7,,,,,,,,,,,,,,,,10,,72,0
50879,note_on,,59,0,11,,,,,,,,,,,,,,,,15,,63,0
50879,note_on,,0,0,11,,,,,,,,,,,,,,,,15,,56,0
50879,note_on,,0,0,11,,,,,,,,,,,,,,,,15,,60,0
50940,note_on,,61,0,8,,,,,,,,,,,,,,,,11,,70,48
50940,note_on,,0,0,11,,,,,,,,,,,,,,,,15,,67,48
50940,note_on,,0,0,11,,,,,,,,,,,,,,,,15,,61,48
50940,note_on,,61,0,7,,,,,,,,,,,,,,,,10,,73,48
50940,note_on,,61,0,11,,,,,,,,,,,,,,,,15,,58,48
50999,note_on,,59,0,11,,,,,,,,,,,,,,,,15,,58,0
50999,note_on,,0,0,11,,,,,,,,,,,,,,,,15,,67,0
50999,note_on,,0,0,11,,,,,,,,,,,,,,,,15,,61,0
50999,note_on,,59,0,8,,,,,,,,,,,,,,,,11,,70,0
50999,note_on,,59,0,7,,,,,,,,,,,,,,,,10,,73,0
51000,note_on,,1,0,7,,,,,,,,,,,,,,,,10,,72,48
51000,note_on,,1,0,11,,,,,,,,,,,,,,,,15,,63,48
51000,note_on,,0,0,11,,,,,,,,,,,,,,,,15,,68,48
51000,note_on,,0,0,11,,,,,,,,,,,,,,,,15,,60,48
51000,note_on,,1,0,8,,,,,,,,,,,,,,,,11,,68,48
51014,note_on,,14,0,7,,,,,,,,,,,,,,,,10,,72,0
51014,note_on,,14,0,8,,,,,,,,,,,,,,,,11,,68,0
51015,note_on,,1,0,7,,,,,,,,,,,,,,,,10,,74,48
51015,note_on,,1,0,8,,,,,,,,,,,,,,,,11,,70,48
51029,note_on,,14,0,8,,,,,,,,,,,,,,,,11,,70,0
51029,note_on,,14,0,7,,,,,,,,,,,,,,,,10,,74,0
51030,note_on,,1,0,7,,,,,,,,,,,,,,,,10,,70,48
51030,note_on,,1,0,8,,,,,,,,,,,,,,,,11,,67,48
51044,note_on,,14,0,8,,,,,,,,,,,,,,,,11,,67,0
51044,note_on,,14,0,7,,,,,,,,,,,,,,,,10,,70,0
51045,note_on,,1,0,8,,,,,,,,,,,,,,,,11,,68,48
51045,note_on,,1,0,7,,,,,,,,,,,,,,,,10,,72,48
51059,note_on,,0,0,11,,,,,,,,,,,,,,,,15,,60,0
51059,note_on,,0,0,11,,,,,,,,,,,,,,,,15,,68,0
51059,note_on,,59,0,11,,,,,,,,,,,,,,,,15,,63,0
51059,note_on,,14,0,8,,,,,,,,,,,,,,,,11,,68,0
51059,note_on,,14,0,7,,,,,,,,,,,,,,,,10,,72,0
51060,note_on,,0,0,11,,,,,,,,,,,,,,,,15,,63,48
51060,note_on,,0,0,11,,,,,,,,,,,,,,,,15,,70,48
51060,note_on,,1,0,11,,,,,,,,,,,,,,,,15,,67,48
51060,note_on,,1,0,7,,,,,,,,,,,,,,,,10,,70,48
51060,note_on,,1,0,8,,,,,,,,,,,,,,,,11,,67,48
51119,note_on,,59,0,8,,,,,,,,,,,,,,,,11,,67,0
51119,note_on,,599,0,6,,,,,,,,,,,,,,,,6,,63,0
51119,note_on,,0,0,11,,,,,,,,,,,,,,,,15,,70,0
51119,note_on,,0,0,11,,,,,,,,,,,,,,,,15,,63,0
51119,note_on,,59,0,11,,,,,,,,,,,,,,,,15,,67,0
51119,note_on,,59,0,7,,,,,,,,,,,,,,,,10,,70,0
51179,note_on,,659,0,10,,,,,,,,,,,,,,,,13,,39,0
51179,note_on,,60,0,11,,,,,,,,,,,,,,,,15,,39,0
51180,note_on,,0,0,11,,,,,,,,,,,,,,,,15,,70,48
51180,note_on,,1,0,11,,,,,,,,,,,,,,,,15,,67,48
51180,note_on,,61,0,7,,,,,,,,,,,,,,,,10,,70,48
51180,note_on,,61,0,8,,,,,,,,,,,,,,,,11,,67,48
51180,note_on,,1021,0,9,,,,,,,,,,,,,,,,12,,63,48
51180,note_on,,1,0,10,,,,,,,,,,,,,,,,13,,51,48
51180,note_on,,61,0,6,,,,,,,,,,,,,,,,6,,67,62
51180,note_on,,0,0,11,,,,,,,,,,,,,,,,15,,51,48
51180,note_on,,0,0,11,,,,,,,,,,,,,,,,15,,63,48
51239,note_on,,59,0,8,,,,,,,,,,,,,,,,11,,67,0
51239,note_on,,59,0,6,,,,,,,,,,,,,,,,6,,67,0
51239,note_on,,59,0,10,,,,,,,,,,,,,,,,13,,51,0
51239,note_on,,59,0,7,,,,,,,,,,,,,,,,10,,70,0
51239,note_on,,0,0,11,,,,,,,,,,,,,,,,15,,51,0
51239,note_on,,0,0,11,,,,,,,,,,,,,,,,15,,63,0
51239,note_on,,0,0,11,,,,,,,,,,,,,,,,15,,70,0
51239,note_on,,59,0,11,,,,,,,,,,,,,,,,15,,67,0
51239,note_on,,59,0,9,,,,,,,,,,,,,,,,12,,63,0
51240,note_on,,1,0,8,,,,,,,,,,,,,,,,11,,67,48
51240,note_on,,1,0,10,,,,,,,,,,,,,,,,13,,44,48
51240,note_on,,1,0,7,,,,,,,,,,,,,,,,10,,70,48
51240,note_on,,1,0,9,,,,,,,,,,,,,,,,12,,60,48
51240,note_on,,0,0,11,,,,,,,,,,,,,,,,15,,67,48
51240,note_on,,1,0,11,,,,,,,,,,,,,,,,15,,63,48
51240,note_on,,0,0,11,,,,,,,,,,,,,,,,15,,44,48
51240,note_on,,1,0,6,,,,,,,,,,,,,,,,6,,67,67
51240,note_on,,0,0,11,,,,,,,,,,,,,,,,15,,72,48
51314,note_on,,74,0,6,,,,,,,,,,,,,,,,6,,67,0
51315,note_on,,1,0,6,,,,,,,,,,,,,,,,6,,65,60
51329,note_on,,14,0,6,,,,,,,,,,,,,,,,6,,65,0
51330,note_on,,1,0,6,,,,,,,,,,,,,,,,6,,68,62
51344,note_on,,14,0,6,,,,,,,,,,,,,,,,6,,68,0
51345,note_on,,1,0,6,,,,,,,,,,,,,,,,6,,67,61
51359,note_on,,119,0,8,,,,,,,,,,,,,,,,11,,67,0
51359,note_on,,0,0,11,,,,,,,,,,,,,,,,15,,67,0
51359,note_on,,119,0,7,,,,,,,,,,,,,,,,10,,70,0
51359,note_on,,14,0,6,,,,,,,,,,,,,,,,6,,67,0
51359,note_on,,119,0,11,,,,,,,,,,,,,,,,15,,63,0
51360,note_on,,0,0,11,,,,,,,,,,,,,,,,15,,56,48
51360,note_on,,1,0,8,,,,,,,,,,,,,,,,11,,65,48
51360,note_on,,1,0,11,,,,,,,,,,,,,,,,15,,65,48
51360,note_on,,1,0,7,,,,,,,,,,,,,,,,10,,68,48
51360,note_on,,1,0,6,,,,,,,,,,,,,,,,6,,65,61
51419,note_on,,59,0,11,,,,,,,,,,,,,,,,15,,44,0
51419,note_on,,59,0,6,,,,,,,,,,,,,,,,6,,65,0
51419,note_on,,179,0,10,,,,,,,,,,,,,,,,13,,44,0
51419,note_on,,179,0,9,,,,,,,,,,,,,,,,12,,60,0
51419,note_on,,0,0,11,,,,,,,,,,,,,,,,15,,65,0
51419,note_on,,0,0,11,,,,,,,,,,,,,,,,15,,56,0
51420,note_on,,1,0,6,,,,,,,,,,,,,,,,6,,63,61
51420,note_on,,1,0,9,,,,,,,,,,,,,,,,12,,60,48
51420,note_on,,0,0,11,,,,,,,,,,,,,,,,15,,44,48
51420,note_on,,0,0,11,,,,,,,,,,,,,,,,15,,63,48
51420,note_on,,1,0,11,,,,,,,,,,,,,,,,15,,55,48
51420,note_on,,1,0,10,,,,,,,,,,,,,,,,13,,44,48
51479,note_on,,59,0,6,,,,,,,,,,,,,,,,6,,63,0
51479,note_on,,0,0,11,,,,,,,,,,,,,,,,15,,63,0
51479,note_on,,0,0,11,,,,,,,,,,,,,,,,15,,44,0
51479,note_on,,0,0,11,,,,,,,,,,,,,,,,15,,55,0
51479,note_on,,59,0,9,,,,,,,,,,,,,,,,12,,60,0
51479,note_on,,119,0,7,,,,,,,,,,,,,,,,10,,68,0
51479,note_on,,59,0,11,,,,,,,,,,,,,,,,15,,72,0
51479,note_on,,119,0,8,,,,,,,,,,,,,,,,11,,65,0
51479,note_on,,59,0,10,,,,,,,,,,,,,,,,13,,44,0
51480,note_on,,0,0,11,,,,,,,,,,,,,,,,15,,62,48
51480,note_on,,0,0,11,,,,,,,,,,,,,,,,15,,65,48
51480,note_on,,0,0,11,,,,,,,,,,,,,,,,15,,46,48
51480,note_on,,0,0,11,,,,,,,,,,,,,,,,15,,70,48
51480,note_on,,1,0,10,,,,,,,,,,,,,,,,13,,46,48
51480,note_on,,1,0,8,,,,,,,,,,,,,,,,11,,65,48
51480,note_on,,1,0,11,,,,,,,,,,,,,,,,15,,53,48
51480,note_on,,1,0,6,,,,,,,,,,,,,,,,6,,62,64
51480,note_on,,1,0,9,,,,,,,,,,,,,,,,12,,62,48
51480,note_on,,1,0,7,,,,,,,,,,,,,,,,10,,68,48
51569,note_on,,89,0,6,,,,,,,,,,,,,,,,6,,62,0
51570,note_on,,1,0,6,,,,,,,,,,,,,,,,6,,63,67
51584,note_on,,14,0,6,,,,,,,,,,,,,,,,6,,63,0
51585,note_on,,1,0,6,,,,,,,,,,,,,,,,6,,65,67
51599,note_on,,0,0,11,,,,,,,,,,,,,,,,15,,62,0
51599,note_on,,0,0,11,,,,,,,,,,,,,,,,15,,65,0
51599,note_on,,0,0,11,,,,,,,,,,,,,,,,15,,46,0
51599,note_on,,0,0,11,,,,,,,,,,,,,,,,15,,70,0
51599,note_on,,119,0,10,,,,,,,,,,,,,,,,13,,46,0
51599,note_on,,119,0,8,,,,,,,,,,,,,,,,11,,65,0
51599,note_on,,119,0,11,,,,,,,,,,,,,,,,15,,53,0
51599,note_on,,14,0,6,,,,,,,,,,,,,,,,6,,65,0
51599,note_on,,119,0,7,,,,,,,,,,,,,,,,10,,68,0
51599,note_on,,119,0,9,,,,,,,,,,,,,,,,12,,62,0
51600,note_on,,1,0,6,,,,,,,,,,,,,,,,6,,63,61
51600,note_on,,0,0,11,,,,,,,,,,,,,,,,15,,60,48
51600,note_on,,0,0,11,,,,,,,,,,,,,,,,15,,48,48
51600,note_on,,1,0,11,,,,,,,,,,,,,,,,15,,67,48
51600,note_on,,1,0,9,,,,,,,,,,,,,,,,12,,55,48
51600,note_on,,0,0,11,,,,,,,,,,,,,,,,15,,63,48
51600,note_on,,1,0,7,,,,,,,,,,,,,,,,10,,67,48
51600,note_on,,1,0,10,,,,,,,,,,,,,,,,13,,48,48
51600,note_on,,1,0,8,,,,,,,,,,,,,,,,11,,63,48
51719,note_on,,0,0,11,,,,,,,,,,,,,,,,15,,60,0
51719,note_on,,119,0,10,,,,,,,,,,,,,,,,13,,48,0
51719,note_on,,0,0,11,,,,,,,,,,,,,,,,15,,63,0
51719,note_on,,119,0,11,,,,,,,,,,,,,,,,15,,67,0
51719,note_on,,119,0,6,,,,,,,,,,,,,,,,6,,63,0
51719,note_on,,119,0,7,,,,,,,,,,,,,,,,10,,67,0
51719,note_on,,119,0,8,,,,,,,,,,,,,,,,11,,63,0
51719,note_on,,119,0,9,,,,,,,,,,,,,,,,12,,55,0
51719,note_on,,0,0,11,,,,,,,,,,,,,,,,15,,48,0
51720,note_on,,1,0,11,,,,,,,,,,,,,,,,15,,53,48
51839,note_on,,119,0,11,,,,,,,,,,,,,,,,15,,53,0
51840,note_on,,1,0,11,,,,,,,,,,,,,,,,15,,63,48
51840,note_on,,0,0,11,,,,,,,,,,,,,,,,15,,72,48
51840,note_on,,0,0,11,,,,,,,,,,,,,,,,15,,44,48
51840,note_on,,0,0,11,,,,,,,,,,,,,,,,15,,65,48
51840,note_on,,121,0,10,,,,,,,,,,,,,,,,13,,44,48
51840,note_on,,121,0,6,,,,,,,,,,,,,,,,6,,63,66
51899,note_on,,59,0,6,,,,,,,,,,,,,,,,6,,63,0
51900,note_on,,1,0,6,,,,,,,,,,,,,,,,6,,68,65
51959,note_on,,119,0,10,,,,,,,,,,,,,,,,13,,44,0
51959,note_on,,59,0,6,,,,,,,,,,,,,,,,6,,68,0
51959,note_on,,119,0,11,,,,,,,,,,,,,,,,15,,63,0
51959,note_on,,0,0,11,,,,,,,,,,,,,,,,15,,44,0
51959,note_on,,0,0,11,,,,,,,,,,,,,,,,15,,72,0
51960,note_on,,1,0,10,,,,,,,,,,,,,,,,13,,46,48
51960,note_on,,1,0,6,,,,,,,,,,,,,,,,6,,67,65
51960,note_on,,0,0,11,,,,,,,,,,,,,,,,15,,55,48
51960,note_on,,0,0,11,,,,,,,,,,,,,,,,15,,46,48
51960,note_on,,0,0,11,,,,,,,,,,,,,,,,15,,70,48
51960,note_on,,1,0,11,,,,,,,,,,,,,,,,15,,58,48
51960,note_on,,0,0,11,,,,,,,,,,,,,,,,15,,67,48
52019,note_on,,59,0,11,,,,,,,,,,,,,,,,15,,55,0
52020,note_on,,1,0,11,,,,,,,,,,,,,,,,15,,53,48
52079,note_on,,59,0,11,,,,,,,,,,,,,,,,15,,65,0
52079,note_on,,0,0,11,,,,,,,,,,,,,,,,15,,58,0
52079,note_on,,0,0,11,,,,,,,,,,,,,,,,15,,53,0
52079,note_on,,119,0,6,,,,,,,,,,,,,,,,6,,67,0
52080,note_on,,0,0,11,,,,,,,,,,,,,,,,15,,63,48
52080,note_on,,1,0,11,,,,,,,,,,,,,,,,15,,55,48
52080,note_on,,1,0,6,,,,,,,,,,,,,,,,6,,62,67
52094,note_on,,14,0,6,,,,,,,,,,,,,,,,6,,62,0
52095,note_on,,1,0,6,,,,,,,,,,,,,,,,6,,63,63
52109,note_on,,14,0,6,,,,,,,,,,,,,,,,6,,63,0
52110,note_on,,1,0,6,,,,,,,,,,,,,,,,6,,65,67
52124,note_on,,14,0,6,,,,,,,,,,,,,,,,6,,65,0
52125,note_on,,1,0,6,,,,,,,,,,,,,,,,6,,67,65
52139,note_on,,59,0,11,,,,,,,,,,,,,,,,15,,55,0
52140,note_on,,1,0,11,,,,,,,,,,,,,,,,15,,56,48
52154,note_on,,29,0,6,,,,,,,,,,,,,,,,6,,67,0
52155,note_on,,1,0,6,,,,,,,,,,,,,,,,6,,65,61
52169,note_on,,14,0,6,,,,,,,,,,,,,,,,6,,65,0
52170,note_on,,1,0,6,,,,,,,,,,,,,,,,6,,67,65
52184,note_on,,14,0,6,,,,,,,,,,,,,,,,6,,67,0
52185,note_on,,1,0,6,,,,,,,,,,,,,,,,6,,68,64
52199,note_on,,59,0,11,,,,,,,,,,,,,,,,15,,70,0
52199,note_on,,0,0,11,,,,,,,,,,,,,,,,15,,56,0
52199,note_on,,0,0,11,,,,,,,,,,,,,,,,15,,67,0
52199,note_on,,14,0,6,,,,,,,,,,,,,,,,6,,68,0
52200,note_on,,0,0,11,,,,,,,,,,,,,,,,15,,58,48
52200,note_on,,0,0,11,,,,,,,,,,,,,,,,15,,70,48
52200,note_on,,1,0,11,,,,,,,,,,,,,,,,15,,65,48
52200,note_on,,1,0,6,,,,,,,,,,,,,,,,6,,67,63
52214,note_on,,14,0,6,,,,,,,,,,,,,,,,6,,67,0
52215,note_on,,1,0,6,,,,,,,,,,,,,,,,6,,67,67
52229,note_on,,14,0,6,,,,,,,,,,,,,,,,6,,67,0
52230,note_on,,1,0,6,,,,,,,,,,,,,,,,6,,65,64
52244,note_on,,14,0,6,,,,,,,,,,,,,,,,6,,65,0
52245,note_on,,1,0,6,,,,,,,,,,,,,,,,6,,67,64
52259,note_on,,14,0,6,,,,,,,,,,,,,,,,6,,67,0
52260,note_on,,1,0,6,,,,,,,,,,,,,,,,6,,65,64
52274,note_on,,14,0,6,,,,,,,,,,,,,,,,6,,65,0
52275,note_on,,1,0,6,,,,,,,,,,,,,,,,6,,67,62
52289,note_on,,14,0,6,,,,,,,,,,,,,,,,6,,67,0
52290,note_on,,1,0,6,,,,,,,,,,,,,,,,6,,65,63
52304,note_on,,14,0,6,,,,,,,,,,,,,,,,6,,65,0
52305,note_on,,1,0,6,,,,,,,,,,,,,,,,6,,67,62
52319,note_on,,0,0,11,,,,,,,,,,,,,,,,15,,58,0
52319,note_on,,119,0,11,,,,,,,,,,,,,,,,15,,63,0
52319,note_on,,14,0,6,,,,,,,,,,,,,,,,6,,67,0
52320,note_on,,1,0,11,,,,,,,,,,,,,,,,15,,53,48
52320,note_on,,0,0,11,,,,,,,,,,,,,,,,15,,62,48
52320,note_on,,1,0,6,,,,,,,,,,,,,,,,6,,65,60
52334,note_on,,14,0,6,,,,,,,,,,,,,,,,6,,65,0
52335,note_on,,1,0,6,,,,,,,,,,,,,,,,6,,67,66
52349,note_on,,14,0,6,,,,,,,,,,,,,,,,6,,67,0
52350,note_on,,1,0,6,,,,,,,,,,,,,,,,6,,63,61
52364,note_on,,14,0,6,,,,,,,,,,,,,,,,6,,63,0
52365,note_on,,1,0,6,,,,,,,,,,,,,,,,6,,65,60
52379,note_on,,14,0,6,,,,,,,,,,,,,,,,6,,65,0
52380,note_on,,1,0,6,,,,,,,,,,,,,,,,6,,63,63
52439,note_on,,119,0,11,,,,,,,,,,,,,,,,15,,46,0
52439,note_on,,0,0,11,,,,,,,,,,,,,,,,15,,65,0
52439,note_on,,479,0,10,,,,,,,,,,,,,,,,13,,46,0
52439,note_on,,0,0,11,,,,,,,,,,,,,,,,15,,53,0
52439,note_on,,0,0,11,,,,,,,,,,,,,,,,15,,62,0
52439,note_on,,59,0,6,,,,,,,,,,,,,,,,6,,63,0
52439,note_on,,0,0,11,,,,,,,,,,,,,,,,15,,70,0
52440,note_on,,1,0,10,,,,,,,,,,,,,,,,13,,39,48
52440,note_on,,0,0,11,,,,,,,,,,,,,,,,15,,58,48
52440,note_on,,0,0,11,,,,,,,,,,,,,,,,15,,39,48
52440,note_on,,0,0,11,,,,,,,,,,,,,,,,15,,63,48
52440,note_on,,1,0,6,,,,,,,,,,,,,,,,6,,63,64
52440,note_on,,1,0,11,,,,,,,,,,,,,,,,15,,70,48
52440,note_on,,0,0,11,,,,,,,,,,,,,,,,15,,67,48
52499,note_on,,59,0,11,,,,,,,,,,,,,,,,15,,39,0
52499,note_on,,59,0,10,,,,,,,,,,,,,,,,13,,39,0
52500,note_on,,1,0,10,,,,,,,,,,,,,,,,13,,51,72
52500,note_on,,8881,0,5,,,,,,,,,,,,,,,,2,,51,72
52500,note_on,,1,0,11,,,,,,,,,,,,,,,,15,,51,72
52559,note_on,,59,0,5,,,,,,,,,,,,,,,,2,,51,0
52559,note_on,,59,0,10,,,,,,,,,,,,,,,,13,,51,0
52559,note_on,,0,0,11,,,,,,,,,,,,,,,,15,,51,0
52559,note_on,,0,0,11,,,,,,,,,,,,,,,,15,,63,0
52559,note_on,,59,0,11,,,,,,,,,,,,,,,,15,,58,0
52560,note_on,,1,0,5,,,,,,,,,,,,,,,,2,,55,72
52560,note_on,,1,0,10,,,,,,,,,,,,,,,,13,,55,72
52560,note_on,,0,0,11,,,,,,,,,,,,,,,,15,,63,72
52560,note_on,,1,0,11,,,,,,,,,,,,,,,,15,,55,72
52619,note_on,,59,0,5,,,,,,,,,,,,,,,,2,,55,0
52619,note_on,,59,0,10,,,,,,,,,,,,,,,,13,,55,0
52619,note_on,,59,0,11,,,,,,,,,,,,,,,,15,,55,0
52620,note_on,,1,0,11,,,,,,,,,,,,,,,,15,,51,72
52620,note_on,,901,0,9,,,,,,,,,,,,,,,,12,,67,72
52620,note_on,,1,0,5,,,,,,,,,,,,,,,,2,,51,72
52620,note_on,,901,0,7,,,,,,,,,,,,,,,,10,,70,72
52620,note_on,,1,0,10,,,,,,,,,,,,,,,,13,,51,72
52679,note_on,,59,0,9,,,,,,,,,,,,,,,,12,,67,0
52679,note_on,,59,0,7,,,,,,,,,,,,,,,,10,,70,0
52679,note_on,,59,0,5,,,,,,,,,,,,,,,,2,,51,0
52679,note_on,,59,0,10,,,,,,,,,,,,,,,,13,,51,0
52679,note_on,,59,0,11,,,,,,,,,,,,,,,,15,,70,0
52679,note_on,,0,0,11,,,,,,,,,,,,,,,,15,,67,0
52679,note_on,,0,0,11,,,,,,,,,,,,,,,,15,,51,0
52679,note_on,,239,0,6,,,,,,,,,,,,,,,,6,,63,0
52679,end_of_track,,0,1,6,,,,,,,,,,,,,,,,,,,
52680,note_on,,1,0,11,,,,,,,,,,,,,,,,15,,68,72
52680,note_on,,1,0,5,,,,,,,,,,,,,,,,2,,60,72
52680,note_on,,1,0,10,,,,,,,,,,,,,,,,13,,60,72
52680,note_on,,0,0,11,,,,,,,,,,,,,,,,15,,60,72
52680,note_on,,1,0,9,,,,,,,,,,,,,,,,12,,67,72
52680,note_on,,1,0,7,,,,,,,,,,,,,,,,10,,75,72
52739,note_on,,0,0,11,,,,,,,,,,,,,,,,15,,60,0
52739,note_on,,59,0,10,,,,,,,,,,,,,,,,13,,60,0
52739,note_on,,59,0,11,,,,,,,,,,,,,,,,15,,68,0
52739,note_on,,59,0,5,,,,,,,,,,,,,,,,2,,60,0
52740,note_on,,0,0,11,,,,,,,,,,,,,,,,15,,55,72
52740,note_on,,1,0,5,,,,,,,,,,,,,,,,2,,55,72
52740,note_on,,1021,0,8,,,,,,,,,,,,,,,,11,,70,72
52740,note_on,,1,0,10,,,,,,,,,,,,,,,,13,,55,72
52740,note_on,,1,0,11,,,,,,,,,,,,,,,,15,,70,72
52799,note_on,,0,0,11,,,,,,,,,,,,,,,,15,,70,0
52799,note_on,,0,0,11,,,,,,,,,,,,,,,,15,,55,0
52799,note_on,,59,0,11,,,,,,,,,,,,,,,,15,,63,0
52799,note_on,,59,0,10,,,,,,,,,,,,,,,,13,,55,0
52799,note_on,,119,0,9,,,,,,,,,,,,,,,,12,,67,0
52799,note_on,,59,0,8,,,,,,,,,,,,,,,,11,,70,0
52799,note_on,,59,0,5,,,,,,,,,,,,,,,,2,,55,0
52800,note_on,,1,0,5,,,,,,,,,,,,,,,,2,,56,72
52800,note_on,,1,0,10,,,,,,,,,,,,,,,,13,,56,72
52800,note_on,,1,0,9,,,,,,,,,,,,,,,,12,,72,72
52800,note_on,,1,0,8,,,,,,,,,,,,,,,,11,,77,72
52800,note_on,,1,0,11,,,,,,,,,,,,,,,,15,,63,72
52800,note_on,,0,0,11,,,,,,,,,,,,,,,,15,,68,72
52800,note_on,,0,0,11,,,,,,,,,,,,,,,,15,,56,72
52800,note_on,,0,0,11,,,,,,,,,,,,,,,,15,,72,72
52859,note_on,,0,0,11,,,,,,,,,,,,,,,,15,,72,0
52859,note_on,,59,0,11,,,,,,,,,,,,,,,,15,,63,0
52859,note_on,,0,0,11,,,,,,,,,,,,,,,,15,,68,0
52859,note_on,,0,0,11,,,,,,,,,,,,,,,,15,,56,0
52859,note_on,,59,0,5,,,,,,,,,,,,,,,,2,,56,0
52859,note_on,,59,0,9,,,,,,,,,,,,,,,,12,,72,0
52859,note_on,,179,0,7,,,,,,,,,,,,,,,,10,,75,0
52859,note_on,,59,0,10,,,,,,,,,,,,,,,,13,,56,0
52860,note_on,,0,0,11,,,,,,,,,,,,,,,,15,,70,72
52860,note_on,,1,0,5,,,,,,,,,,,,,,,,2,,58,72
52860,note_on,,0,0,11,,,,,,,,,,,,,,,,15,,65,72
52860,note_on,,0,0,11,,,,,,,,,,,,,,,,15,,58,72
52860,note_on,,1,0,11,,,,,,,,,,,,,,,,15,,62,72
52860,note_on,,1,0,9,,,,,,,,,,,,,,,,12,,70,72
52860,note_on,,1,0,7,,,,,,,,,,,,,,,,10,,74,72
52860,note_on,,1,0,10,,,,,,,,,,,,,,,,13,,58,72
52919,note_on,,59,0,11,,,,,,,,,,,,,,,,15,,62,0
52919,note_on,,0,0,11,,,,,,,,,,,,,,,,15,,70,0
52919,note_on,,119,0,8,,,,,,,,,,,,,,,,11,,77,0
52919,note_on,,59,0,7,,,,,,,,,,,,,,,,10,,74,0
52919,note_on,,0,0,11,,,,,,,,,,,,,,,,15,,58,0
52919,note_on,,59,0,9,,,,,,,,,,,,,,,,12,,70,0
52919,note_on,,59,0,5,,,,,,,,,,,,,,,,2,,58,0
52919,note_on,,59,0,10,,,,,,,,,,,,,,,,13,,58,0
52919,note_on,,0,0,11,,,,,,,,,,,,,,,,15,,65,0
52920,note_on,,1,0,11,,,,,,,,,,,,,,,,15,,63,72
52920,note_on,,0,0,11,,,,,,,,,,,,,,,,15,,51,72
52920,note_on,,0,0,11,,,,,,,,,,,,,,,,15,,67,72
52920,note_on,,0,0,11,,,,,,,,,,,,,,,,15,,70,72
52920,note_on,,1,0,8,,,,,,,,,,,,,,,,11,,75,72
52920,note_on,,1,0,9,,,,,,,,,,,,,,,,12,,70,72
52920,note_on,,1,0,10,,,,,,,,,,,,,,,,13,,51,72
52920,note_on,,1,0,5,,,,,,,,,,,,,,,,2,,51,72
52920,note_on,,1,0,7,,,,,,,,,,,,,,,,10,,79,72
52979,note_on,,59,0,7,,,,,,,,,,,,,,,,10,,79,0
52979,note_on,,0,0,11,,,,,,,,,,,,,,,,15,,67,0
52979,note_on,,0,0,11,,,,,,,,,,,,,,,,15,,51,0
52979,note_on,,59,0,11,,,,,,,,,,,,,,,,15,,63,0
52979,note_on,,59,0,10,,,,,,,,,,,,,,,,13,,51,0
52979,note_on,,59,0,8,,,,,,,,,,,,,,,,11,,75,0
52979,note_on,,59,0,9,,,,,,,,,,,,,,,,12,,70,0
52979,note_on,,59,0,5,,,,,,,,,,,,,,,,2,,51,0
52980,note_on,,1,0,11,,,,,,,,,,,,,,,,15,,46,72
52980,note_on,,0,0,11,,,,,,,,,,,,,,,,15,,62,72
52980,note_on,,0,0,11,,,,,,,,,,,,,,,,15,,65,72
52980,note_on,,1,0,10,,,,,,,,,,,,,,,,13,,46,72
52980,note_on,,1,0,5,,,,,,,,,,,,,,,,2,,46,72
52980,note_on,,1,0,8,,,,,,,,,,,,,,,,11,,74,72
52980,note_on,,1,0,9,,,,,,,,,,,,,,,,12,,70,72
52980,note_on,,1,0,7,,,,,,,,,,,,,,,,10,,77,72
53039,note_on,,59,0,9,,,,,,,,,,,,,,,,12,,70,0
53039,note_on,,0,0,11,,,,,,,,,,,,,,,,15,,62,0
53039,note_on,,0,0,11,,,,,,,,,,,,,,,,15,,46,0
53039,note_on,,59,0,11,,,,,,,,,,,,,,,,15,,70,0
53039,note_on,,59,0,8,,,,,,,,,,,,,,,,11,,74,0
53039,note_on,,59,0,5,,,,,,,,,,,,,,,,2,,46,0
53039,note_on,,59,0,10,,,,,,,,,,,,,,,,13,,46,0
53039,note_on,,0,0,11,,,,,,,,,,,,,,,,15,,65,0
53039,note_on,,59,0,7,,,,,,,,,,,,,,,,10,,77,0
53100,note_on,,61,0,7,,,,,,,,,,,,,,,,10,,79,72
53100,note_on,,0,0,11,,,,,,,,,,,,,,,,15,,62,72
53100,note_on,,0,0,11,,,,,,,,,,,,,,,,15,,58,72
53100,note_on,,0,0,11,,,,,,,,,,,,,,,,15,,70,72
53100,note_on,,61,0,5,,,,,,,,,,,,,,,,2,,58,72
53100,note_on,,61,0,9,,,,,,,,,,,,,,,,12,,70,72
53100,note_on,,61,0,8,,,,,,,,,,,,,,,,11,,74,72
53100,note_on,,61,0,11,,,,,,,,,,,,,,,,15,,67,72
53100,note_on,,61,0,10,,,,,,,,,,,,,,,,13,,58,72
53159,note_on,,59,0,10,,,,,,,,,,,,,,,,13,,58,0
53159,note_on,,59,0,5,,,,,,,,,,,,,,,,2,,58,0
53159,note_on,,0,0,11,,,,,,,,,,,,,,,,15,,62,0
53159,note_on,,0,0,11,,,,,,,,,,,,,,,,15,,58,0
53159,note_on,,59,0,9,,,,,,,,,,,,,,,,12,,70,0
53159,note_on,,0,0,11,,,,,,,,,,,,,,,,15,,70,0
53159,note_on,,59,0,11,,,,,,,,,,,,,,,,15,,67,0
53159,note_on,,59,0,7,,,,,,,,,,,,,,,,10,,79,0
53159,note_on,,59,0,8,,,,,,,,,,,,,,,,11,,74,0
53160,note_on,,0,0,11,,,,,,,,,,,,,,,,15,,68,72
53160,note_on,,1,0,11,,,,,,,,,,,,,,,,15,,60,72
53160,note_on,,1,0,7,,,,,,,,,,,,,,,,10,,80,72
53160,note_on,,1,0,10,,,,,,,,,,,,,,,,13,,60,72
53160,note_on,,0,0,11,,,,,,,,,,,,,,,,15,,75,72
53160,note_on,,0,0,11,,,,,,,,,,,,,,,,15,,63,72
53160,note_on,,1,0,9,,,,,,,,,,,,,,,,12,,63,72
53160,note_on,,1,0,5,,,,,,,,,,,,,,,,2,,60,72
53160,note_on,,1,0,8,,,,,,,,,,,,,,,,11,,75,72
53219,note_on,,0,0,11,,,,,,,,,,,,,,,,15,,63,0
53219,note_on,,0,0,11,,,,,,,,,,,,,,,,15,,75,0
53219,note_on,,59,0,9,,,,,,,,,,,,,,,,12,,63,0
53219,note_on,,59,0,11,,,,,,,,,,,,,,,,15,,60,0
53219,note_on,,59,0,7,,,,,,,,,,,,,,,,10,,80,0
53219,note_on,,59,0,8,,,,,,,,,,,,,,,,11,,75,0
53219,note_on,,59,0,5,,,,,,,,,,,,,,,,2,,60,0
53219,note_on,,59,0,10,,,,,,,,,,,,,,,,13,,60,0
53220,note_on,,1,0,5,,,,,,,,,,,,,,,,2,,62,72
53220,note_on,,1,0,9,,,,,,,,,,,,,,,,12,,62,72
53220,note_on,,1,0,11,,,,,,,,,,,,,,,,15,,70,72
53220,note_on,,0,0,11,,,,,,,,,,,,,,,,15,,62,72
53220,note_on,,1,0,10,,,,,,,,,,,,,,,,13,,62,72
53220,note_on,,1,0,8,,,,,,,,,,,,,,,,11,,70,72
53220,note_on,,1,0,7,,,,,,,,,,,,,,,,10,,79,72
53249,note_on,,29,0,7,,,,,,,,,,,,,,,,10,,79,0
53250,note_on,,1,0,7,,,,,,,,,,,,,,,,10,,77,72
53279,note_on,,59,0,11,,,,,,,,,,,,,,,,15,,68,0
53279,note_on,,59,0,5,,,,,,,,,,,,,,,,2,,62,0
53279,note_on,,29,0,7,,,,,,,,,,,,,,,,10,,77,0
53279,note_on,,59,0,8,,,,,,,,,,,,,,,,11,,70,0
53279,note_on,,59,0,9,,,,,,,,,,,,,,,,12,,62,0
53279,note_on,,0,0,11,,,,,,,,,,,,,,,,15,,62,0
53279,note_on,,59,0,10,,,,,,,,,,,,,,,,13,,62,0
53280,note_on,,1,0,11,,,,,,,,,,,,,,,,15,,63,72
53280,note_on,,1,0,8,,,,,,,,,,,,,,,,11,,70,72
53280,note_on,,0,0,11,,,,,,,,,,,,,,,,15,,67,72
53280,note_on,,1,0,9,,,,,,,,,,,,,,,,12,,67,72
53280,note_on,,1,0,10,,,,,,,,,,,,,,,,13,,63,72
53280,note_on,,1,0,7,,,,,,,,,,,,,,,,10,,79,72
53280,note_on,,1,0,5,,,,,,,,,,,,,,,,2,,63,72
53339,note_on,,59,0,5,,,,,,,,,,,,,,,,2,,63,0
53339,note_on,,59,0,8,,,,,,,,,,,,,,,,11,,70,0
53339,note_on,,59,0,11,,,,,,,,,,,,,,,,15,,70,0
53339,note_on,,59,0,10,,,,,,,,,,,,,,,,13,,63,0
53339,note_on,,59,0,9,,,,,,,,,,,,,,,,12,,67,0
53339,note_on,,59,0,7,,,,,,,,,,,,,,,,10,,79,0
53339,note_on,,0,0,11,,,,,,,,,,,,,,,,15,,67,0
53339,note_on,,0,0,11,,,,,,,,,,,,,,,,15,,63,0
53340,note_on,,1,0,8,,,,,,,,,,,,,,,,11,,72,72
53340,note_on,,1,0,5,,,,,,,,,,,,,,,,2,,56,72
53340,note_on,,0,0,11,,,,,,,,,,,,,,,,15,,56,72
53340,note_on,,1,0,9,,,,,,,,,,,,,,,,12,,60,72
53340,note_on,,0,0,11,,,,,,,,,,,,,,,,15,,63,72
53340,note_on,,0,0,11,,,,,,,,,,,,,,,,15,,68,72
53340,note_on,,1,0,7,,,,,,,,,,,,,,,,10,,75,72
53340,note_on,,1,0,10,,,,,,,,,,,,,,,,13,,56,72
53340,note_on,,1,0,11,,,,,,,,,,,,,,,,15,,72,72
53399,note_on,,59,0,7,,,,,,,,,,,,,,,,10,,75,0
53399,note_on,,59,0,11,,,,,,,,,,,,,,,,15,,72,0
53399,note_on,,59,0,5,,,,,,,,,,,,,,,,2,,56,0
53399,note_on,,0,0,11,,,,,,,,,,,,,,,,15,,56,0
53399,note_on,,0,0,11,,,,,,,,,,,,,,,,15,,63,0
53399,note_on,,0,0,11,,,,,,,,,,,,,,,,15,,68,0
53399,note_on,,59,0,8,,,,,,,,,,,,,,,,11,,72,0
53399,note_on,,59,0,10,,,,,,,,,,,,,,,,13,,56,0
53399,note_on,,59,0,9,,,,,,,,,,,,,,,,12,,60,0
53400,note_on,,1,0,9,,,,,,,,,,,,,,,,12,,58,72
53400,note_on,,1,0,10,,,,,,,,,,,,,,,,13,,58,72
53400,note_on,,1,0,7,,,,,,,,,,,,,,,,10,,74,72
53400,note_on,,0,0,11,,,,,,,,,,,,,,,,15,,58,72
53400,note_on,,0,0,11,,,,,,,,,,,,,,,,15,,65,72
53400,note_on,,1,0,8,,,,,,,,,,,,,,,,11,,65,72
53400,note_on,,0,0,11,,,,,,,,,,,,,,,,15,,70,72
53400,note_on,,1,0,11,,,,,,,,,,,,,,,,15,,62,72
53400,note_on,,1,0,5,,,,,,,,,,,,,,,,2,,58,72
53459,note_on,,59,0,7,,,,,,,,,,,,,,,,10,,74,0
53459,note_on,,59,0,8,,,,,,,,,,,,,,,,11,,65,0
53459,note_on,,59,0,9,,,,,,,,,,,,,,,,12,,58,0
53459,note_on,,0,0,11,,,,,,,,,,,,,,,,15,,58,0
53459,note_on,,59,0,11,,,,,,,,,,,,,,,,15,,62,0
53459,note_on,,59,0,10,,,,,,,,,,,,,,,,13,,58,0
53459,note_on,,59,0,5,,,,,,,,,,,,,,,,2,,58,0
53459,note_on,,0,0,11,,,,,,,,,,,,,,,,15,,65,0
53460,note_on,,1,0,10,,,,,,,,,,,,,,,,13,,51,72
53460,note_on,,1,0,11,,,,,,,,,,,,,,,,15,,63,72
53460,note_on,,0,0,11,,,,,,,,,,,,,,,,15,,51,72
53460,note_on,,0,0,11,,,,,,,,,,,,,,,,15,,67,72
53460,note_on,,1,0,9,,,,,,,,,,,,,,,,12,,58,72
53460,note_on,,1,0,5,,,,,,,,,,,,,,,,2,,51,72
53460,note_on,,1,0,7,,,,,,,,,,,,,,,,10,,75,72
53460,note_on,,1,0,8,,,,,,,,,,,,,,,,11,,67,72
53519,note_on,,0,0,11,,,,,,,,,,,,,,,,15,,51,0
53519,note_on,,0,0,11,,,,,,,,,,,,,,,,15,,67,0
53519,note_on,,59,0,7,,,,,,,,,,,,,,,,10,,75,0
53519,note_on,,59,0,5,,,,,,,,,,,,,,,,2,,51,0
53519,note_on,,59,0,11,,,,,,,,,,,,,,,,15,,70,0
53519,note_on,,0,0,11,,,,,,,,,,,,,,,,15,,63,0
53519,note_on,,59,0,10,,,,,,,,,,,,,,,,13,,51,0
53519,note_on,,59,0,9,,,,,,,,,,,,,,,,12,,58,0
53519,note_on,,59,0,8,,,,,,,,,,,,,,,,11,,67,0
53520,note_on,,1,0,10,,,,,,,,,,,,,,,,13,,39,72
53520,note_on,,0,0,11,,,,,,,,,,,,,,,,15,,63,72
53520,note_on,,1,0,11,,,,,,,,,,,,,,,,15,,55,72
53520,note_on,,0,0,11,,,,,,,,,,,,,,,,15,,39,72
53520,note_on,,1,0,5,,,,,,,,,,,,,,,,2,,39,72
53579,note_on,,59,0,11,,,,,,,,,,,,,,,,15,,55,0
53579,note_on,,0,0,11,,,,,,,,,,,,,,,,15,,63,0
53580,note_on,,61,0,9,,,,,,,,,,,,,,,,12,,63,72
53580,note_on,,1,0,11,,,,,,,,,,,,,,,,15,,56,72
53580,note_on,,0,0,11,,,,,,,,,,,,,,,,15,,65,72
53580,note_on,,61,0,7,,,,,,,,,,,,,,,,10,,75,72
53580,note_on,,61,0,8,,,,,,,,,,,,,,,,11,,72,72
53639,note_on,,119,0,5,,,,,,,,,,,,,,,,2,,39,0
53639,note_on,,59,0,7,,,,,,,,,,,,,,,,10,,75,0
53639,note_on,,59,0,9,,,,,,,,,,,,,,,,12,,63,0
53639,note_on,,59,0,11,,,,,,,,,,,,,,,,15,,39,0
53639,note_on,,59,0,8,,,,,,,,,,,,,,,,11,,72,0
53639,note_on,,0,0,11,,,,,,,,,,,,,,,,15,,65,0
53639,note_on,,0,0,11,,,,,,,,,,,,,,,,15,,56,0
53639,note_on,,119,0,10,,,,,,,,,,,,,,,,13,,39,0
53640,note_on,,0,0,11,,,,,,,,,,,,,,,,15,,39,72
53640,note_on,,1,0,10,,,,,,,,,,,,,,,,13,,39,72
53640,note_on,,1,0,8,,,,,,,,,,,,,,,,11,,70,72
53640,note_on,,0,0,11,,,,,,,,,,,,,,,,15,,51,72
53640,note_on,,1,0,5,,,,,,,,,,,,,,,,2,,39,72
53640,note_on,,1,0,9,,,,,,,,,,,,,,,,12,,67,72
53640,note_on,,1,0,7,,,,,,,,,,,,,,,,10,,73,72
53640,note_on,,0,0,11,,,,,,,,,,,,,,,,15,,58,72
53640,note_on,,1,0,11,,,,,,,,,,,,,,,,15,,67,72
53654,note_on,,14,0,7,,,,,,,,,,,,,,,,10,,73,0
53654,note_on,,14,0,8,,,,,,,,,,,,,,,,11,,70,0
53655,note_on,,1,0,8,,,,,,,,,,,,,,,,11,,72,72
53655,note_on,,1,0,7,,,,,,,,,,,,,,,,10,,75,72
53669,note_on,,14,0,7,,,,,,,,,,,,,,,,10,,75,0
53669,note_on,,14,0,8,,,,,,,,,,,,,,,,11,,72,0
53670,note_on,,1,0,8,,,,,,,,,,,,,,,,11,,68,72
53670,note_on,,1,0,7,,,,,,,,,,,,,,,,10,,72,72
53684,note_on,,14,0,7,,,,,,,,,,,,,,,,10,,72,0
53684,note_on,,14,0,8,,,,,,,,,,,,,,,,11,,68,0
53685,note_on,,1,0,7,,,,,,,,,,,,,,,,10,,73,72
53685,note_on,,1,0,8,,,,,,,,,,,,,,,,11,,70,72
53699,note_on,,59,0,9,,,,,,,,,,,,,,,,12,,67,0
53699,note_on,,59,0,11,,,,,,,,,,,,,,,,15,,67,0
53699,note_on,,0,0,11,,,,,,,,,,,,,,,,15,,58,0
53699,note_on,,14,0,7,,,,,,,,,,,,,,,,10,,73,0
53699,note_on,,14,0,8,,,,,,,,,,,,,,,,11,,70,0
53700,note_on,,0,0,11,,,,,,,,,,,,,,,,15,,60,72
53700,note_on,,1,0,9,,,,,,,,,,,,,,,,12,,63,72
53700,note_on,,1,0,11,,,,,,,,,,,,,,,,15,,68,72
53700,note_on,,1,0,8,,,,,,,,,,,,,,,,11,,68,72
53700,note_on,,1,0,7,,,,,,,,,,,,,,,,10,,72,72
53759,note_on,,59,0,7,,,,,,,,,,,,,,,,10,,72,0
53759,note_on,,59,0,8,,,,,,,,,,,,,,,,11,,68,0
53759,note_on,,59,0,9,,,,,,,,,,,,,,,,12,,63,0
53759,note_on,,59,0,11,,,,,,,,,,,,,,,,15,,68,0
53759,note_on,,0,0,11,,,,,,,,,,,,,,,,15,,60,0
53820,note_on,,61,0,9,,,,,,,,,,,,,,,,12,,67,72
53820,note_on,,0,0,11,,,,,,,,,,,,,,,,15,,58,72
53820,note_on,,0,0,11,,,,,,,,,,,,,,,,15,,61,72
53820,note_on,,61,0,11,,,,,,,,,,,,,,,,15,,67,72
53820,note_on,,61,0,7,,,,,,,,,,,,,,,,10,,73,72
53820,note_on,,61,0,8,,,,,,,,,,,,,,,,11,,70,72
53879,note_on,,0,0,11,,,,,,,,,,,,,,,,15,,61,0
53879,note_on,,59,0,8,,,,,,,,,,,,,,,,11,,70,0
53879,note_on,,0,0,11,,,,,,,,,,,,,,,,15,,67,0
53879,note_on,,59,0,11,,,,,,,,,,,,,,,,15,,39,0
53879,note_on,,239,0,10,,,,,,,,,,,,,,,,13,,39,0
53879,note_on,,0,0,11,,,,,,,,,,,,,,,,15,,58,0
53879,note_on,,59,0,7,,,,,,,,,,,,,,,,10,,73,0
53879,note_on,,59,0,9,,,,,,,,,,,,,,,,12,,67,0
53879,note_on,,239,0,5,,,,,,,,,,,,,,,,2,,39,0
53880,note_on,,0,0,11,,,,,,,,,,,,,,,,15,,60,72
53880,note_on,,0,0,11,,,,,,,,,,,,,,,,15,,63,72
53880,note_on,,1,0,8,,,,,,,,,,,,,,,,11,,68,72
53880,note_on,,1,0,7,,,,,,,,,,,,,,,,10,,72,72
53880,note_on,,1,0,5,,,,,,,,,,,,,,,,2,,39,72
53880,note_on,,1,0,11,,,,,,,,,,,,,,,,15,,68,72
53880,note_on,,1,0,9,,,,,,,,,,,,,,,,12,,63,72
53880,note_on,,1,0,10,,,,,,,,,,,,,,,,13,,39,72
53880,note_on,,0,0,11,,,,,,,,,,,,,,,,15,,39,72
53894,note_on,,14,0,7,,,,,,,,,,,,,,,,10,,72,0
53894,note_on,,14,0,8,,,,,,,,,,,,,,,,11,,68,0
53895,note_on,,1,0,7,,,,,,,,,,,,,,,,10,,74,72
53895,note_on,,1,0,8,,,,,,,,,,,,,,,,11,,70,72
53909,note_on,,14,0,7,,,,,,,,,,,,,,,,10,,74,0
53909,note_on,,14,0,8,,,,,,,,,,,,,,,,11,,70,0
53910,note_on,,1,0,8,,,,,,,,,,,,,,,,11,,67,72
53910,note_on,,1,0,7,,,,,,,,,,,,,,,,10,,70,72
53924,note_on,,14,0,8,,,,,,,,,,,,,,,,11,,67,0
53924,note_on,,14,0,7,,,,,,,,,,,,,,,,10,,70,0
53925,note_on,,1,0,8,,,,,,,,,,,,,,,,11,,68,72
53925,note_on,,1,0,7,,,,,,,,,,,,,,,,10,,72,72
53939,note_on,,14,0,8,,,,,,,,,,,,,,,,11,,68,0
53939,note_on,,59,0,9,,,,,,,,,,,,,,,,12,,63,0
53939,note_on,,59,0,11,,,,,,,,,,,,,,,,15,,51,0
53939,note_on,,0,0,11,,,,,,,,,,,,,,,,15,,68,0
53939,note_on,,0,0,11,,,,,,,,,,,,,,,,15,,60,0
53939,note_on,,14,0,7,,,,,,,,,,,,,,,,10,,72,0
53939,note_on,,0,0,11,,,,,,,,,,,,,,,,15,,63,0
53940,note_on,,1,0,7,,,,,,,,,,,,,,,,10,,70,72
53940,note_on,,1,0,11,,,,,,,,,,,,,,,,15,,70,72
53940,note_on,,0,0,11,,,,,,,,,,,,,,,,15,,63,72
53940,note_on,,1,0,8,,,,,,,,,,,,,,,,11,,67,72
53940,note_on,,1,0,9,,,,,,,,,,,,,,,,12,,58,72
53940,note_on,,0,0,11,,,,,,,,,,,,,,,,15,,67,72
53999,note_on,,59,0,7,,,,,,,,,,,,,,,,10,,70,0
53999,note_on,,59,0,8,,,,,,,,,,,,,,,,11,,67,0
53999,note_on,,59,0,11,,,,,,,,,,,,,,,,15,,70,0
53999,note_on,,0,0,11,,,,,,,,,,,,,,,,15,,63,0
53999,note_on,,59,0,9,,,,,,,,,,,,,,,,12,,58,0
53999,note_on,,0,0,11,,,,,,,,,,,,,,,,15,,67,0
54000,note_on,,1,0,11,,,,,,,,,,,,,,,,15,,51,72
54060,note_on,,0,0,11,,,,,,,,,,,,,,,,15,,63,72
54060,note_on,,60,0,11,,,,,,,,,,,,,,,,15,,67,72
54060,note_on,,61,0,8,,,,,,,,,,,,,,,,11,,67,72
54060,note_on,,61,0,7,,,,,,,,,,,,,,,,10,,70,72
54060,note_on,,61,0,9,,,,,,,,,,,,,,,,12,,58,72
54119,note_on,,59,0,11,,,,,,,,,,,,,,,,15,,39,0
54119,note_on,,0,0,11,,,,,,,,,,,,,,,,15,,63,0
54119,note_on,,59,0,8,,,,,,,,,,,,,,,,11,,67,0
54119,note_on,,0,0,11,,,,,,,,,,,,,,,,15,,67,0
54119,note_on,,239,0,10,,,,,,,,,,,,,,,,13,,39,0
54119,note_on,,239,0,5,,,,,,,,,,,,,,,,2,,39,0
54119,note_on,,59,0,9,,,,,,,,,,,,,,,,12,,58,0
54119,note_on,,59,0,7,,,,,,,,,,,,,,,,10,,70,0
54119,note_on,,0,0,11,,,,,,,,,,,,,,,,15,,51,0
54120,note_on,,1,0,11,,,,,,,,,,,,,,,,15,,53,72
54120,note_on,,1,0,10,,,,,,,,,,,,,,,,13,,46,72
54120,note_on,,1,0,5,,,,,,,,,,,,,,,,2,,46,72
54120,note_on,,0,0,11,,,,,,,,,,,,,,,,15,,62,72
54120,note_on,,0,0,11,,,,,,,,,,,,,,,,15,,65,72
54120,note_on,,0,0,11,,,,,,,,,,,,,,,,15,,46,72
54120,note_on,,1,0,9,,,,,,,,,,,,,,,,12,,62,72
54120,note_on,,1,0,7,,,,,,,,,,,,,,,,10,,68,72
54120,note_on,,1,0,8,,,,,,,,,,,,,,,,11,,65,72
54134,note_on,,14,0,8,,,,,,,,,,,,,,,,11,,65,0
54134,note_on,,14,0,7,,,,,,,,,,,,,,,,10,,68,0
54135,note_on,,1,0,8,,,,,,,,,,,,,,,,11,,67,72
54135,note_on,,1,0,7,,,,,,,,,,,,,,,,10,,70,72
54149,note_on,,14,0,8,,,,,,,,,,,,,,,,11,,67,0
54149,note_on,,14,0,7,,,,,,,,,,,,,,,,10,,70,0
54150,note_on,,1,0,8,,,,,,,,,,,,,,,,11,,63,72
54150,note_on,,1,0,7,,,,,,,,,,,,,,,,10,,67,72
54164,note_on,,14,0,8,,,,,,,,,,,,,,,,11,,63,0
54164,note_on,,14,0,7,,,,,,,,,,,,,,,,10,,67,0
54165,note_on,,1,0,7,,,,,,,,,,,,,,,,10,,68,72
54165,note_on,,1,0,8,,,,,,,,,,,,,,,,11,,65,72
54179,note_on,,14,0,8,,,,,,,,,,,,,,,,11,,65,0
54179,note_on,,14,0,7,,,,,,,,,,,,,,,,10,,68,0
54179,note_on,,59,0,9,,,,,,,,,,,,,,,,12,,62,0
54179,note_on,,59,0,11,,,,,,,,,,,,,,,,15,,53,0
54179,note_on,,0,0,11,,,,,,,,,,,,,,,,15,,65,0
54179,note_on,,0,0,11,,,,,,,,,,,,,,,,15,,62,0
54180,note_on,,1,0,7,,,,,,,,,,,,,,,,10,,67,72
54180,note_on,,0,0,11,,,,,,,,,,,,,,,,15,,55,72
54180,note_on,,1,0,9,,,,,,,,,,,,,,,,12,,58,72
54180,note_on,,1,0,11,,,,,,,,,,,,,,,,15,,58,72
54180,note_on,,1,0,8,,,,,,,,,,,,,,,,11,,63,72
54180,note_on,,0,0,11,,,,,,,,,,,,,,,,15,,63,72
54239,note_on,,59,0,7,,,,,,,,,,,,,,,,10,,67,0
54239,note_on,,59,0,11,,,,,,,,,,,,,,,,15,,58,0
54239,note_on,,59,0,9,,,,,,,,,,,,,,,,12,,58,0
54239,note_on,,0,0,11,,,,,,,,,,,,,,,,15,,55,0
54239,note_on,,59,0,8,,,,,,,,,,,,,,,,11,,63,0
54239,note_on,,0,0,11,,,,,,,,,,,,,,,,15,,63,0
54300,note_on,,61,0,7,,,,,,,,,,,,,,,,10,,68,72
54300,note_on,,0,0,11,,,,,,,,,,,,,,,,15,,53,72
54300,note_on,,0,0,11,,,,,,,,,,,,,,,,15,,62,72
54300,note_on,,61,0,9,,,,,,,,,,,,,,,,12,,62,72
54300,note_on,,61,0,8,,,,,,,,,,,,,,,,11,,65,72
54300,note_on,,61,0,11,,,,,,,,,,,,,,,,15,,56,72
54359,note_on,,59,0,8,,,,,,,,,,,,,,,,11,,65,0
54359,note_on,,59,0,9,,,,,,,,,,,,,,,,12,,62,0
54359,note_on,,0,0,11,,,,,,,,,,,,,,,,15,,53,0
54359,note_on,,0,0,11,,,,,,,,,,,,,,,,15,,62,0
54359,note_on,,59,0,7,,,,,,,,,,,,,,,,10,,68,0
54359,note_on,,59,0,11,,,,,,,,,,,,,,,,15,,56,0
54360,note_on,,0,0,11,,,,,,,,,,,,,,,,15,,55,72
54360,note_on,,1,0,11,,,,,,,,,,,,,,,,15,,58,72
54360,note_on,,1,0,7,,,,,,,,,,,,,,,,10,,67,72
54360,note_on,,0,0,11,,,,,,,,,,,,,,,,15,,63,72
54360,note_on,,1,0,8,,,,,,,,,,,,,,,,11,,63,72
54360,note_on,,1,0,9,,,,,,,,,,,,,,,,12,,58,72
54374,note_on,,14,0,7,,,,,,,,,,,,,,,,10,,67,0
54374,note_on,,14,0,8,,,,,,,,,,,,,,,,11,,63,0
54375,note_on,,1,0,8,,,,,,,,,,,,,,,,11,,65,72
54375,note_on,,1,0,7,,,,,,,,,,,,,,,,10,,68,72
54389,note_on,,14,0,8,,,,,,,,,,,,,,,,11,,65,0
54389,note_on,,14,0,7,,,,,,,,,,,,,,,,10,,68,0
54390,note_on,,1,0,7,,,,,,,,,,,,,,,,10,,65,72
54390,note_on,,1,0,8,,,,,,,,,,,,,,,,11,,62,72
54404,note_on,,14,0,7,,,,,,,,,,,,,,,,10,,65,0
54404,note_on,,14,0,8,,,,,,,,,,,,,,,,11,,62,0
54405,note_on,,1,0,7,,,,,,,,,,,,,,,,10,,67,72
54405,note_on,,1,0,8,,,,,,,,,,,,,,,,11,,63,72
54419,note_on,,0,0,11,,,,,,,,,,,,,,,,15,,63,0
54419,note_on,,59,0,11,,,,,,,,,,,,,,,,15,,46,0
54419,note_on,,14,0,8,,,,,,,,,,,,,,,,11,,63,0
54419,note_on,,299,0,5,,,,,,,,,,,,,,,,2,,46,0
54419,note_on,,299,0,10,,,,,,,,,,,,,,,,13,,46,0
54419,note_on,,0,0,11,,,,,,,,,,,,,,,,15,,55,0
54419,note_on,,0,0,11,,,,,,,,,,,,,,,,15,,58,0
54419,note_on,,14,0,7,,,,,,,,,,,,,,,,10,,67,0
54420,note_on,,0,0,11,,,,,,,,,,,,,,,,15,,65,72
54420,note_on,,0,0,11,,,,,,,,,,,,,,,,15,,58,72
54420,note_on,,1,0,5,,,,,,,,,,,,,,,,2,,46,72
54420,note_on,,1,0,10,,,,,,,,,,,,,,,,13,,46,72
54420,note_on,,1,0,11,,,,,,,,,,,,,,,,15,,46,72
54420,note_on,,0,0,11,,,,,,,,,,,,,,,,15,,62,72
54420,note_on,,1,0,7,,,,,,,,,,,,,,,,10,,65,72
54420,note_on,,1,0,8,,,,,,,,,,,,,,,,11,,62,72
54479,note_on,,59,0,7,,,,,,,,,,,,,,,,10,,65,0
54479,note_on,,0,0,11,,,,,,,,,,,,,,,,15,,58,0
54479,note_on,,59,0,11,,,,,,,,,,,,,,,,15,,46,0
54479,note_on,,119,0,9,,,,,,,,,,,,,,,,12,,58,0
54479,note_on,,59,0,8,,,,,,,,,,,,,,,,11,,62,0
54479,note_on,,59,0,5,,,,,,,,,,,,,,,,2,,46,0
54479,note_on,,59,0,10,,,,,,,,,,,,,,,,13,,46,0
54480,note_on,,1,0,10,,,,,,,,,,,,,,,,13,,58,72
54480,note_on,,1,0,5,,,,,,,,,,,,,,,,2,,58,72
54480,note_on,,1,0,11,,,,,,,,,,,,,,,,15,,58,72
54539,note_on,,0,0,11,,,,,,,,,,,,,,,,15,,62,0
54539,note_on,,59,0,11,,,,,,,,,,,,,,,,15,,65,0
54540,note_on,,0,0,11,,,,,,,,,,,,,,,,15,,65,72
54540,note_on,,0,0,11,,,,,,,,,,,,,,,,15,,62,72
54540,note_on,,61,0,7,,,,,,,,,,,,,,,,10,,82,72
54540,note_on,,1,0,11,,,,,,,,,,,,,,,,15,,70,72
54599,note_on,,0,0,11,,,,,,,,,,,,,,,,15,,65,0
54599,note_on,,59,0,11,,,,,,,,,,,,,,,,15,,62,0
54599,note_on,,59,0,7,,,,,,,,,,,,,,,,10,,82,0
54600,note_on,,1,0,11,,,,,,,,,,,,,,,,15,,66,72
54600,note_on,,0,0,11,,,,,,,,,,,,,,,,15,,63,72
54600,note_on,,1,0,7,,,,,,,,,,,,,,,,10,,78,72
54659,note_on,,0,0,11,,,,,,,,,,,,,,,,15,,63,0
54659,note_on,,59,0,11,,,,,,,,,,,,,,,,15,,66,0
54659,note_on,,59,0,7,,,,,,,,,,,,,,,,10,,78,0
54660,note_on,,0,0,11,,,,,,,,,,,,,,,,15,,68,72
54660,note_on,,1,0,7,,,,,,,,,,,,,,,,10,,74,72
54660,note_on,,1,0,11,,,,,,,,,,,,,,,,15,,65,72
54719,note_on,,0,0,11,,,,,,,,,,,,,,,,15,,65,0
54719,note_on,,59,0,11,,,,,,,,,,,,,,,,15,,70,0
54719,note_on,,0,0,11,,,,,,,,,,,,,,,,15,,68,0
54719,note_on,,59,0,7,,,,,,,,,,,,,,,,10,,74,0
54720,note_on,,1,0,7,,,,,,,,,,,,,,,,10,,75,72
54720,note_on,,1,0,11,,,,,,,,,,,,,,,,15,,66,72
54720,note_on,,0,0,11,,,,,,,,,,,,,,,,15,,75,72
54720,note_on,,0,0,11,,,,,,,,,,,,,,,,15,,70,72
54779,note_on,,59,0,11,,,,,,,,,,,,,,,,15,,66,0
54779,note_on,,59,0,7,,,,,,,,,,,,,,,,10,,75,0
54779,note_on,,0,0,11,,,,,,,,,,,,,,,,15,,75,0
54780,note_on,,1,0,11,,,,,,,,,,,,,,,,15,,65,72
54780,note_on,,301,0,9,,,,,,,,,,,,,,,,12,,65,72
54780,note_on,,0,0,11,,,,,,,,,,,,,,,,15,,74,72
54780,note_on,,301,0,8,,,,,,,,,,,,,,,,11,,62,72
54780,note_on,,1,0,7,,,,,,,,,,,,,,,,10,,70,72
54839,note_on,,0,0,11,,,,,,,,,,,,,,,,15,,65,0
54839,note_on,,59,0,8,,,,,,,,,,,,,,,,11,,62,0
54839,note_on,,59,0,11,,,,,,,,,,,,,,,,15,,70,0
54839,note_on,,0,0,11,,,,,,,,,,,,,,,,15,,74,0
54839,note_on,,59,0,7,,,,,,,,,,,,,,,,10,,70,0
54839,note_on,,59,0,9,,,,,,,,,,,,,,,,12,,65,0
54840,note_on,,1,0,9,,,,,,,,,,,,,,,,12,,66,72
54840,note_on,,0,0,11,,,,,,,,,,,,,,,,15,,75,72
54840,note_on,,0,0,11,,,,,,,,,,,,,,,,15,,71,72
54840,note_on,,1,0,11,,,,,,,,,,,,,,,,15,,66,72
54840,note_on,,1,0,8,,,,,,,,,,,,,,,,11,,63,72
54840,note_on,,1,0,7,,,,,,,,,,,,,,,,10,,71,72
54899,note_on,,59,0,11,,,,,,,,,,,,,,,,15,,58,0
54899,note_on,,419,0,10,,,,,,,,,,,,,,,,13,,58,0
54899,note_on,,0,0,11,,,,,,,,,,,,,,,,15,,66,0
54899,note_on,,419,0,5,,,,,,,,,,,,,,,,2,,58,0
54900,note_on,,1,0,10,,,,,,,,,,,,,,,,13,,58,72
54900,note_on,,0,0,11,,,,,,,,,,,,,,,,15,,58,72
54900,note_on,,1,0,5,,,,,,,,,,,,,,,,2,,58,72
54900,note_on,,1,0,11,,,,,,,,,,,,,,,,15,,66,72
54959,note_on,,0,0,11,,,,,,,,,,,,,,,,15,,58,0
54959,note_on,,119,0,9,,,,,,,,,,,,,,,,12,,66,0
54959,note_on,,59,0,10,,,,,,,,,,,,,,,,13,,58,0
54959,note_on,,59,0,5,,,,,,,,,,,,,,,,2,,58,0
54959,note_on,,59,0,11,,,,,,,,,,,,,,,,15,,66,0
54960,note_on,,0,0,11,,,,,,,,,,,,,,,,15,,65,72
54960,note_on,,1,0,11,,,,,,,,,,,,,,,,15,,56,72
54960,note_on,,1,0,5,,,,,,,,,,,,,,,,2,,56,72
54960,note_on,,1,0,9,,,,,,,,,,,,,,,,12,,65,72
54960,note_on,,1,0,10,,,,,,,,,,,,,,,,13,,56,72
55019,note_on,,179,0,8,,,,,,,,,,,,,,,,11,,63,0
55020,note_on,,1,0,8,,,,,,,,,,,,,,,,11,,65,72
55049,note_on,,29,0,8,,,,,,,,,,,,,,,,11,,65,0
55050,note_on,,1,0,8,,,,,,,,,,,,,,,,11,,63,72
55079,note_on,,119,0,11,,,,,,,,,,,,,,,,15,,71,0
55079,note_on,,0,0,11,,,,,,,,,,,,,,,,15,,65,0
55079,note_on,,239,0,7,,,,,,,,,,,,,,,,10,,71,0
55079,note_on,,0,0,11,,,,,,,,,,,,,,,,15,,75,0
55079,note_on,,29,0,8,,,,,,,,,,,,,,,,11,,63,0
55080,note_on,,1,0,7,,,,,,,,,,,,,,,,10,,70,72
55080,note_on,,1,0,8,,,,,,,,,,,,,,,,11,,62,72
55080,note_on,,1,0,11,,,,,,,,,,,,,,,,15,,65,72
55095,note_on,,15,0,11,,,,,,,,,,,,,,,,15,,70,72
55110,note_on,,15,0,11,,,,,,,,,,,,,,,,15,,74,72
55125,note_on,,15,0,11,,,,,,,,,,,,,,,,15,,77,72
55139,note_on,,179,0,5,,,,,,,,,,,,,,,,2,,56,0
55139,note_on,,0,0,11,,,,,,,,,,,,,,,,15,,77,0
55139,note_on,,0,0,11,,,,,,,,,,,,,,,,15,,70,0
55139,note_on,,0,0,11,,,,,,,,,,,,,,,,15,,74,0
55139,note_on,,179,0,10,,,,,,,,,,,,,,,,13,,56,0
55139,note_on,,14,0,11,,,,,,,,,,,,,,,,15,,56,0
55140,note_on,,1,0,11,,,,,,,,,,,,,,,,15,,70,72
55140,note_on,,1,0,10,,,,,,,,,,,,,,,,13,,55,72
55140,note_on,,1,0,5,,,,,,,,,,,,,,,,2,,55,72
55140,note_on,,0,0,11,,,,,,,,,,,,,,,,15,,55,72
55169,note_on,,29,0,10,,,,,,,,,,,,,,,,13,,55,0
55169,note_on,,29,0,5,,,,,,,,,,,,,,,,2,,55,0
55169,note_on,,29,0,11,,,,,,,,,,,,,,,,15,,55,0
55170,note_on,,1,0,11,,,,,,,,,,,,,,,,15,,53,72
55170,note_on,,1,0,5,,,,,,,,,,,,,,,,2,,53,72
55170,note_on,,1,0,10,,,,,,,,,,,,,,,,13,,53,72
55199,note_on,,29,0,5,,,,,,,,,,,,,,,,2,,53,0
55199,note_on,,29,0,10,,,,,,,,,,,,,,,,13,,53,0
55199,note_on,,29,0,11,,,,,,,,,,,,,,,,15,,65,0
55199,note_on,,0,0,11,,,,,,,,,,,,,,,,15,,53,0
55199,note_on,,239,0,9,,,,,,,,,,,,,,,,12,,65,0
55199,note_on,,119,0,8,,,,,,,,,,,,,,,,11,,62,0
55200,note_on,,1,0,9,,,,,,,,,,,,,,,,12,,63,72
55200,note_on,,1,0,11,,,,,,,,,,,,,,,,15,,58,72
55200,note_on,,0,0,11,,,,,,,,,,,,,,,,15,,55,72
55200,note_on,,1,0,5,,,,,,,,,,,,,,,,2,,55,72
55200,note_on,,1,0,8,,,,,,,,,,,,,,,,11,,63,72
55200,note_on,,1,0,10,,,,,,,,,,,,,,,,13,,55,72
55259,note_on,,0,0,11,,,,,,,,,,,,,,,,15,,58,0
55259,note_on,,59,0,5,,,,,,,,,,,,,,,,2,,55,0
55259,note_on,,0,0,11,,,,,,,,,,,,,,,,15,,55,0
55259,note_on,,179,0,7,,,,,,,,,,,,,,,,10,,70,0
55259,note_on,,59,0,10,,,,,,,,,,,,,,,,13,,55,0
55259,note_on,,59,0,11,,,,,,,,,,,,,,,,15,,70,0
55260,note_on,,0,0,11,,,,,,,,,,,,,,,,15,,56,72
55260,note_on,,0,0,11,,,,,,,,,,,,,,,,15,,63,72
55260,note_on,,0,0,11,,,,,,,,,,,,,,,,15,,68,72
55260,note_on,,1,0,7,,,,,,,,,,,,,,,,10,,68,72
55260,note_on,,1,0,10,,,,,,,,,,,,,,,,13,,56,72
55260,note_on,,1,0,5,,,,,,,,,,,,,,,,2,,56,72
55260,note_on,,1,0,11,,,,,,,,,,,,,,,,15,,72,72
55319,note_on,,59,0,7,,,,,,,,,,,,,,,,10,,68,0
55319,note_on,,59,0,10,,,,,,,,,,,,,,,,13,,56,0
55319,note_on,,0,0,11,,,,,,,,,,,,,,,,15,,63,0
55319,note_on,,0,0,11,,,,,,,,,,,,,,,,15,,68,0
55319,note_on,,0,0,11,,,,,,,,,,,,,,,,15,,56,0
55319,note_on,,59,0,5,,,,,,,,,,,,,,,,2,,56,0
55319,note_on,,59,0,11,,,,,,,,,,,,,,,,15,,72,0
55319,note_on,,119,0,9,,,,,,,,,,,,,,,,12,,63,0
55320,note_on,,1,0,10,,,,,,,,,,,,,,,,13,,58,72
55320,note_on,,1,0,5,,,,,,,,,,,,,,,,2,,58,72
55320,note_on,,1,0,7,,,,,,,,,,,,,,,,10,,67,72
55320,note_on,,1,0,11,,,,,,,,,,,,,,,,15,,67,72
55320,note_on,,0,0,11,,,,,,,,,,,,,,,,15,,63,72
55320,note_on,,0,0,11,,,,,,,,,,,,,,,,15,,58,72
55320,note_on,,1,0,9,,,,,,,,,,,,,,,,12,,58,72
55439,note_on,,119,0,10,,,,,,,,,,,,,,,,13,,58,0
55439,note_on,,119,0,11,,,,,,,,,,,,,,,,15,,67,0
55439,note_on,,119,0,7,,,,,,,,,,,,,,,,10,,67,0
55439,note_on,,119,0,5,,,,,,,,,,,,,,,,2,,58,0
55439,note_on,,0,0,11,,,,,,,,,,,,,,,,15,,58,0
55439,note_on,,119,0,9,,,,,,,,,,,,,,,,12,,58,0
55439,note_on,,239,0,8,,,,,,,,,,,,,,,,11,,63,0
55439,note_on,,0,0,11,,,,,,,,,,,,,,,,15,,63,0
55440,note_on,,0,0,11,,,,,,,,,,,,,,,,15,,56,72
55440,note_on,,1,0,9,,,,,,,,,,,,,,,,12,,56,72
55440,note_on,,1,0,10,,,,,,,,,,,,,,,,13,,46,72
55440,note_on,,1,0,8,,,,,,,,,,,,,,,,11,,62,72
55440,note_on,,0,0,11,,,,,,,,,,,,,,,,15,,65,72
55440,note_on,,0,0,11,,,,,,,,,,,,,,,,15,,62,72
55440,note_on,,1,0,5,,,,,,,,,,,,,,,,2,,46,72
55440,note_on,,1,0,7,,,,,,,,,,,,,,,,10,,65,72
55440,note_on,,1,0,11,,,,,,,,,,,,,,,,15,,46,72
55529,note_on,,89,0,7,,,,,,,,,,,,,,,,10,,65,0
55529,note_on,,89,0,9,,,,,,,,,,,,,,,,12,,56,0
55530,note_on,,1,0,7,,,,,,,,,,,,,,,,10,,63,72
55530,note_on,,1,0,9,,,,,,,,,,,,,,,,12,,55,72
55559,note_on,,119,0,8,,,,,,,,,,,,,,,,11,,62,0
55559,note_on,,29,0,7,,,,,,,,,,,,,,,,10,,63,0
55559,note_on,,0,0,11,,,,,,,,,,,,,,,,15,,62,0
55559,note_on,,119,0,10,,,,,,,,,,,,,,,,13,,46,0
55559,note_on,,0,0,11,,,,,,,,,,,,,,,,15,,65,0
55559,note_on,,0,0,11,,,,,,,,,,,,,,,,15,,56,0
55559,note_on,,119,0,5,,,,,,,,,,,,,,,,2,,46,0
55559,note_on,,119,0,11,,,,,,,,,,,,,,,,15,,46,0
55559,note_on,,29,0,9,,,,,,,,,,,,,,,,12,,55,0
55560,note_on,,1,0,10,,,,,,,,,,,,,,,,13,,39,72
55560,note_on,,0,0,11,,,,,,,,,,,,,,,,15,,58,72
55560,note_on,,0,0,11,,,,,,,,,,,,,,,,15,,63,72
55560,note_on,,1,0,8,,,,,,,,,,,,,,,,11,,63,72
55560,note_on,,1,0,9,,,,,,,,,,,,,,,,12,,55,72
55560,note_on,,1,0,11,,,,,,,,,,,,,,,,15,,39,72
55560,note_on,,1,0,7,,,,,,,,,,,,,,,,10,,63,72
55560,set_tempo,,23280,1,0,,,,,,,,,2400000,,,,,,,,,,
55560,note_on,,1,0,5,,,,,,,,,,,,,,,,2,,39,72
55560,note_on,,0,0,11,,,,,,,,,,,,,,,,15,,55,72
55679,note_on,,0,0,11,,,,,,,,,,,,,,,,15,,63,0
55679,note_on,,119,0,11,,,,,,,,,,,,,,,,15,,39,0
55679,note_on,,0,0,11,,,,,,,,,,,,,,,,15,,55,0
55679,note_on,,119,0,10,,,,,,,,,,,,,,,,13,,39,0
55679,note_on,,119,0,5,,,,,,,,,,,,,,,,2,,39,0
55679,end_of_track,,0,1,5,,,,,,,,,,,,,,,,,,,
55679,end_of_track,,0,1,10,,,,,,,,,,,,,,,,,,,
55679,note_on,,119,0,7,,,,,,,,,,,,,,,,10,,63,0
55679,end_of_track,,0,1,7,,,,,,,,,,,,,,,,,,,
55679,note_on,,119,0,8,,,,,,,,,,,,,,,,11,,63,0
55679,end_of_track,,0,1,8,,,,,,,,,,,,,,,,,,,
55679,note_on,,0,0,11,,,,,,,,,,,,,,,,15,,58,0
55679,note_on,,119,0,9,,,,,,,,,,,,,,,,12,,55,0
55679,end_of_track,,0,1,9,,,,,,,,,,,,,,,,,,,
55679,end_of_track,,0,1,11,,,,,,,,,,,,,,,,,,,
55680,set_tempo,,120,1,0,,,,,,,,,1090909,,,,,,,,,,
56040,set_tempo,,360,1,0,,,,,,,,,500000,,,,,,,,,,
56040,end_of_track,,0,1,0,,,,,,,,,,,,,,,,,,,
