tick,type,data,time,meta,track,frame_rate,hours,minutes,seconds,frames,sub_frames,port,key,tempo,numerator,denominator,clocks_per_click,notated_32nd_notes_per_beat,control,value,channel,program,note,velocity
0,sequencer_specific,"(0, 0, 91, 35, 1, 0, 5, 4, 35, 0)",0,1,0,,,,,,,,,,,,,,,,,,,
0,midi_port,,0,1,4,,,,,,,0,,,,,,,,,,,,
0,end_of_track,,0,1,4,,,,,,,,,,,,,,,,,,,
0,track_name,,0,1,5,,,,,,,,,,,,,,,,,,,
0,midi_port,,0,1,5,,,,,,,0,,,,,,,,,,,,
0,control_change,,0,0,5,,,,,,,,,,,,,,11,127,6,,,
0,control_change,,0,0,5,,,,,,,,,,,,,,7,96,6,,,
0,control_change,,0,0,5,,,,,,,,,,,,,,10,70,6,,,
0,program_change,,0,0,5,,,,,,,,,,,,,,,,6,73,,
0,track_name,,0,1,6,,,,,,,,,,,,,,,,,,,
0,midi_port,,0,1,6,,,,,,,0,,,,,,,,,,,,
0,control_change,,0,0,6,,,,,,,,,,,,,,11,127,15,,,
0,control_change,,0,0,6,,,,,,,,,,,,,,7,96,15,,,
0,program_change,,0,0,6,,,,,,,,,,,,,,,,15,6,,
0,note_on,,0,0,6,,,,,,,,,,,,,,,,15,,46,64
0,note_on,,0,0,6,,,,,,,,,,,,,,,,15,,62,64
0,end_of_track,,0,1,3,,,,,,,,,,,,,,,,,,,
0,midi_port,,0,1,3,,,,,,,0,,,,,,,,,,,,
0,control_change,,0,0,6,,,,,,,,,,,,,,10,90,15,,,
0,end_of_track,,0,1,2,,,,,,,,,,,,,,,,,,,
0,key_signature,,0,1,0,,,,,,,,Bb,,,,,,,,,,,
0,midi_port,,0,1,0,,,,,,,0,,,,,,,,,,,,
0,smpte_offset,,0,1,0,25,32,0,3,0,0,,,,,,,,,,,,,
0,instrument_name,,0,1,0,,,,,,,,,,,,,,,,,,,
0,track_name,,0,1,0,,,,,,,,,,,,,,,,,,,
0,set_tempo,,0,1,0,,,,,,,,,857142,,,,,,,,,,
0,track_name,,0,1,3,,,,,,,,,,,,,,,,,,,
0,time_signature,,0,1,0,,,,,,,,,,4,4,24,8,,,,,,
0,end_of_track,,0,1,1,,,,,,,,,,,,,,,,,,,
0,midi_port,,0,1,2,,,,,,,0,,,,,,,,,,,,
0,track_name,,0,1,1,,,,,,,,,,,,,,,,,,,
0,midi_port,,0,1,1,,,,,,,0,,,,,,,,,,,,
0,track_name,,0,1,2,,,,,,,,,,,,,,,,,,,
15,note_on,,15,0,6,,,,,,,,,,,,,,,,15,,65,64
30,note_on,,15,0,6,,,,,,,,,,,,,,,,15,,70,64
45,note_on,,15,0,6,,,,,,,,,,,,,,,,15,,74,64
180,note_on,,180,0,5,,,,,,,,,,,,,,,,6,,65,64
239,note_on,,59,0,5,,,,,,,,,,,,,,,,6,,65,0
240,note_on,,1,0,5,,,,,,,,,,,,,,,,6,,65,64
299,note_on,,59,0,5,,,,,,,,,,,,,,,,6,,65,0
300,note_on,,1,0,5,,,,,,,,,,,,,,,,6,,65,64
359,note_on,,59,0,5,,,,,,,,,,,,,,,,6,,65,0
360,note_on,,1,0,5,,,,,,,,,,,,,,,,6,,65,64
419,note_on,,59,0,5,,,,,,,,,,,,,,,,6,,65,0
420,note_on,,1,0,5,,,,,,,,,,,,,,,,6,,67,64
479,note_on,,0,0,6,,,,,,,,,,,,,,,,15,,62,0
479,note_on,,0,0,6,,,,,,,,,,,,,,,,15,,74,0
479,note_on,,0,0,6,,,,,,,,,,,,,,,,15,,70,0
479,note_on,,434,0,6,,,,,,,,,,,,,,,,15,,46,0
479,note_on,,0,0,6,,,,,,,,,,,,,,,,15,,65,0
479,note_on,,59,0,5,,,,,,,,,,,,,,,,6,,67,0
480,note_on,,0,0,6,,,,,,,,,,,,,,,,15,,60,64
480,note_on,,0,0,6,,,,,,,,,,,,,,,,15,,63,64
480,note_on,,0,0,6,,,,,,,,,,,,,,,,15,,48,64
480,note_on,,0,0,6,,,,,,,,,,,,,,,,15,,69,64
480,note_on,,1,0,6,,,,,,,,,,,,,,,,15,,75,64
480,note_on,,1,0,5,,,,,,,,,,,,,,,,6,,69,64
599,note_on,,119,0,5,,,,,,,,,,,,,,,,6,,69,0
660,note_on,,61,0,5,,,,,,,,,,,,,,,,6,,63,64
719,note_on,,0,0,6,,,,,,,,,,,,,,,,15,,48,0
719,note_on,,0,0,6,,,,,,,,,,,,,,,,15,,63,0
719,note_on,,0,0,6,,,,,,,,,,,,,,,,15,,69,0
719,note_on,,239,0,6,,,,,,,,,,,,,,,,15,,75,0
719,note_on,,59,0,5,,,,,,,,,,,,,,,,6,,63,0
720,note_on,,0,0,6,,,,,,,,,,,,,,,,15,,63,64
720,note_on,,0,0,6,,,,,,,,,,,,,,,,15,,67,64
720,note_on,,0,0,6,,,,,,,,,,,,,,,,15,,72,64
720,note_on,,1,0,5,,,,,,,,,,,,,,,,6,,67,64
720,note_on,,1,0,6,,,,,,,,,,,,,,,,15,,45,64
779,note_on,,59,0,5,,,,,,,,,,,,,,,,6,,67,0
780,note_on,,1,0,5,,,,,,,,,,,,,,,,6,,67,64
839,note_on,,59,0,5,,,,,,,,,,,,,,,,6,,67,0
840,note_on,,1,0,5,,,,,,,,,,,,,,,,6,,67,64
899,note_on,,59,0,5,,,,,,,,,,,,,,,,6,,67,0
900,note_on,,1,0,5,,,,,,,,,,,,,,,,6,,65,64
959,note_on,,0,0,6,,,,,,,,,,,,,,,,15,,45,0
959,note_on,,0,0,6,,,,,,,,,,,,,,,,15,,72,0
959,note_on,,0,0,6,,,,,,,,,,,,,,,,15,,67,0
959,note_on,,0,0,6,,,,,,,,,,,,,,,,15,,63,0
959,note_on,,59,0,5,,,,,,,,,,,,,,,,6,,65,0
959,note_on,,239,0,6,,,,,,,,,,,,,,,,15,,60,0
960,note_on,,1,0,5,,,,,,,,,,,,,,,,6,,62,64
960,note_on,,1,0,6,,,,,,,,,,,,,,,,15,,65,64
960,note_on,,0,0,6,,,,,,,,,,,,,,,,15,,62,64
960,note_on,,0,0,6,,,,,,,,,,,,,,,,15,,58,64
960,note_on,,0,0,6,,,,,,,,,,,,,,,,15,,46,64
1019,note_on,,59,0,5,,,,,,,,,,,,,,,,6,,62,0
1020,note_on,,1,0,5,,,,,,,,,,,,,,,,6,,62,64
1079,note_on,,59,0,5,,,,,,,,,,,,,,,,6,,62,0
1199,note_on,,239,0,6,,,,,,,,,,,,,,,,15,,65,0
1199,note_on,,0,0,6,,,,,,,,,,,,,,,,15,,58,0
1199,note_on,,0,0,6,,,,,,,,,,,,,,,,15,,46,0
1199,note_on,,0,0,6,,,,,,,,,,,,,,,,15,,62,0
1200,note_on,,1,0,6,,,,,,,,,,,,,,,,15,,70,64
1200,note_on,,0,0,6,,,,,,,,,,,,,,,,15,,65,64
1200,note_on,,0,0,6,,,,,,,,,,,,,,,,15,,53,64
1200,note_on,,0,0,6,,,,,,,,,,,,,,,,15,,44,64
1200,note_on,,121,0,5,,,,,,,,,,,,,,,,6,,62,64
1200,note_on,,0,0,6,,,,,,,,,,,,,,,,15,,62,64
1319,note_on,,119,0,5,,,,,,,,,,,,,,,,6,,62,0
1500,note_on,,181,0,5,,,,,,,,,,,,,,,,6,,65,64
1559,note_on,,59,0,5,,,,,,,,,,,,,,,,6,,65,0
1560,note_on,,1,0,5,,,,,,,,,,,,,,,,6,,63,64
1619,note_on,,59,0,5,,,,,,,,,,,,,,,,6,,63,0
1620,note_on,,1,0,5,,,,,,,,,,,,,,,,6,,62,64
1679,note_on,,0,0,6,,,,,,,,,,,,,,,,15,,62,0
1679,note_on,,0,0,6,,,,,,,,,,,,,,,,15,,53,0
1679,note_on,,0,0,6,,,,,,,,,,,,,,,,15,,44,0
1679,note_on,,0,0,6,,,,,,,,,,,,,,,,15,,65,0
1679,note_on,,479,0,6,,,,,,,,,,,,,,,,15,,70,0
1679,note_on,,59,0,5,,,,,,,,,,,,,,,,6,,62,0
1680,note_on,,0,0,6,,,,,,,,,,,,,,,,15,,51,64
1680,note_on,,0,0,6,,,,,,,,,,,,,,,,15,,58,64
1680,note_on,,0,0,6,,,,,,,,,,,,,,,,15,,63,64
1680,note_on,,0,0,6,,,,,,,,,,,,,,,,15,,67,64
1680,note_on,,1,0,6,,,,,,,,,,,,,,,,15,,70,64
1680,note_on,,0,0,6,,,,,,,,,,,,,,,,15,,39,64
1680,note_on,,1,0,5,,,,,,,,,,,,,,,,6,,67,64
1799,note_on,,119,0,5,,,,,,,,,,,,,,,,6,,67,0
1860,note_on,,61,0,5,,,,,,,,,,,,,,,,6,,70,64
1919,note_on,,59,0,5,,,,,,,,,,,,,,,,6,,70,0
1920,time_signature,,1920,1,0,,,,,,,,,,5,4,24,8,,,,,,
1920,note_on,,1,0,5,,,,,,,,,,,,,,,,6,,70,64
2009,note_on,,89,0,5,,,,,,,,,,,,,,,,6,,70,0
2010,note_on,,1,0,5,,,,,,,,,,,,,,,,6,,65,64
2039,note_on,,0,0,6,,,,,,,,,,,,,,,,15,,67,0
2039,note_on,,29,0,5,,,,,,,,,,,,,,,,6,,65,0
2039,note_on,,0,0,6,,,,,,,,,,,,,,,,15,,51,0
2039,note_on,,0,0,6,,,,,,,,,,,,,,,,15,,58,0
2039,note_on,,0,0,6,,,,,,,,,,,,,,,,15,,63,0
2039,note_on,,0,0,6,,,,,,,,,,,,,,,,15,,39,0
2039,note_on,,359,0,6,,,,,,,,,,,,,,,,15,,70,0
2040,note_on,,1,0,5,,,,,,,,,,,,,,,,6,,65,64
2159,end_of_track,,0,1,5,,,,,,,,,,,,,,,,,,,
2159,note_on,,119,0,5,,,,,,,,,,,,,,,,6,,65,0
2160,note_on,,0,0,6,,,,,,,,,,,,,,,,15,,41,64
2160,note_on,,121,0,6,,,,,,,,,,,,,,,,15,,48,64
2160,note_on,,0,0,6,,,,,,,,,,,,,,,,15,,65,64
2160,note_on,,0,0,6,,,,,,,,,,,,,,,,15,,60,64
2160,note_on,,0,0,6,,,,,,,,,,,,,,,,15,,57,64
2279,note_on,,0,0,6,,,,,,,,,,,,,,,,15,,41,0
2279,note_on,,0,0,6,,,,,,,,,,,,,,,,15,,60,0
2279,note_on,,119,0,6,,,,,,,,,,,,,,,,15,,48,0
2279,note_on,,0,0,6,,,,,,,,,,,,,,,,15,,57,0
2280,note_on,,1,0,6,,,,,,,,,,,,,,,,15,,62,64
2280,note_on,,0,0,6,,,,,,,,,,,,,,,,15,,58,64
2280,note_on,,0,0,6,,,,,,,,,,,,,,,,15,,53,64
2280,note_on,,0,0,6,,,,,,,,,,,,,,,,15,,46,64
2519,note_on,,0,0,6,,,,,,,,,,,,,,,,15,,58,0
2519,note_on,,0,0,6,,,,,,,,,,,,,,,,15,,62,0
2519,note_on,,0,0,6,,,,,,,,,,,,,,,,15,,53,0
2519,end_of_track,,0,1,6,,,,,,,,,,,,,,,,,,,
2519,note_on,,0,0,6,,,,,,,,,,,,,,,,15,,46,0
2519,note_on,,239,0,6,,,,,,,,,,,,,,,,15,,65,0
2520,time_signature,,600,1,0,,,,,,,,,,4,4,24,8,,,,,,
2520,set_tempo,,0,1,0,,,,,,,,,500000,,,,,,,,,,
2520,end_of_track,,0,1,0,,,,,,,,,,,,,,,,,,,
