tick,type,data,time,meta,track,frame_rate,hours,minutes,seconds,frames,sub_frames,port,key,tempo,numerator,denominator,clocks_per_click,notated_32nd_notes_per_beat,control,value,channel,program,note,velocity
0,sequencer_specific,"(0, 0, 91, 35, 1, 0, 5, 4, 35, 0)",0,1,0,,,,,,,,,,,,,,,,,,,
0,program_change,,0,0,11,,,,,,,,,,,,,,,,10,48,,
0,track_name,,0,1,12,,,,,,,,,,,,,,,,,,,
0,midi_port,,0,1,12,,,,,,,0,,,,,,,,,,,,
0,control_change,,0,0,12,,,,,,,,,,,,,,11,127,11,,,
0,control_change,,0,0,12,,,,,,,,,,,,,,10,24,11,,,
0,control_change,,0,0,12,,,,,,,,,,,,,,7,96,11,,,
0,program_change,,0,0,12,,,,,,,,,,,,,,,,11,48,,
0,track_name,,0,1,13,,,,,,,,,,,,,,,,,,,
0,midi_port,,0,1,13,,,,,,,0,,,,,,,,,,,,
0,control_change,,0,0,13,,,,,,,,,,,,,,11,127,12,,,
0,control_change,,0,0,13,,,,,,,,,,,,,,10,80,12,,,
0,control_change,,0,0,13,,,,,,,,,,,,,,7,96,12,,,
0,program_change,,0,0,13,,,,,,,,,,,,,,,,12,48,,
0,track_name,,0,1,14,,,,,,,,,,,,,,,,,,,
0,control_change,,0,0,11,,,,,,,,,,,,,,7,96,10,,,
0,midi_port,,0,1,14,,,,,,,0,,,,,,,,,,,,
0,control_change,,0,0,14,,,,,,,,,,,,,,10,96,13,,,
0,control_change,,0,0,14,,,,,,,,,,,,,,7,96,13,,,
0,program_change,,0,0,14,,,,,,,,,,,,,,,,13,48,,
0,note_on,,0,0,14,,,,,,,,,,,,,,,,13,,41,72
0,midi_port,,0,1,7,,,,,,,0,,,,,,,,,,,,
0,track_name,,0,1,15,,,,,,,,,,,,,,,,,,,
0,midi_port,,0,1,15,,,,,,,0,,,,,,,,,,,,
0,control_change,,0,0,15,,,,,,,,,,,,,,11,127,15,,,
0,control_change,,0,0,15,,,,,,,,,,,,,,10,90,15,,,
0,control_change,,0,0,15,,,,,,,,,,,,,,7,96,15,,,
0,program_change,,0,0,15,,,,,,,,,,,,,,,,15,6,,
0,note_on,,0,0,15,,,,,,,,,,,,,,,,15,,41,72
0,note_on,,0,0,15,,,,,,,,,,,,,,,,15,,72,72
0,note_on,,0,0,15,,,,,,,,,,,,,,,,15,,69,72
0,control_change,,0,0,14,,,,,,,,,,,,,,11,127,13,,,
0,note_on,,0,0,15,,,,,,,,,,,,,,,,15,,65,72
0,control_change,,0,0,11,,,,,,,,,,,,,,10,48,10,,,
0,midi_port,,0,1,11,,,,,,,0,,,,,,,,,,,,
0,control_change,,0,0,7,,,,,,,,,,,,,,11,127,5,,,
0,control_change,,0,0,7,,,,,,,,,,,,,,10,32,5,,,
0,control_change,,0,0,7,,,,,,,,,,,,,,7,96,5,,,
0,program_change,,0,0,7,,,,,,,,,,,,,,,,5,73,,
0,track_name,,0,1,8,,,,,,,,,,,,,,,,,,,
0,midi_port,,0,1,8,,,,,,,0,,,,,,,,,,,,
0,control_change,,0,0,8,,,,,,,,,,,,,,11,127,6,,,
0,control_change,,0,0,8,,,,,,,,,,,,,,7,96,6,,,
0,control_change,,0,0,8,,,,,,,,,,,,,,10,96,6,,,
0,program_change,,0,0,8,,,,,,,,,,,,,,,,6,73,,
0,note_on,,0,0,6,,,,,,,,,,,,,,,,2,,41,72
0,program_change,,0,0,6,,,,,,,,,,,,,,,,2,70,,
0,control_change,,0,0,6,,,,,,,,,,,,,,7,80,2,,,
0,control_change,,0,0,6,,,,,,,,,,,,,,10,65,2,,,
0,control_change,,0,0,11,,,,,,,,,,,,,,11,127,10,,,
0,control_change,,0,0,6,,,,,,,,,,,,,,11,127,2,,,
0,track_name,,0,1,6,,,,,,,,,,,,,,,,,,,
0,track_name,,0,1,9,,,,,,,,,,,,,,,,,,,
0,midi_port,,0,1,9,,,,,,,0,,,,,,,,,,,,
0,control_change,,0,0,9,,,,,,,,,,,,,,11,127,7,,,
0,control_change,,0,0,9,,,,,,,,,,,,,,10,48,7,,,
0,control_change,,0,0,9,,,,,,,,,,,,,,7,96,7,,,
0,program_change,,0,0,9,,,,,,,,,,,,,,,,7,70,,
0,track_name,,0,1,10,,,,,,,,,,,,,,,,,,,
0,midi_port,,0,1,10,,,,,,,0,,,,,,,,,,,,
0,control_change,,0,0,10,,,,,,,,,,,,,,11,127,8,,,
0,control_change,,0,0,10,,,,,,,,,,,,,,7,96,8,,,
0,control_change,,0,0,10,,,,,,,,,,,,,,10,80,8,,,
0,program_change,,0,0,10,,,,,,,,,,,,,,,,8,60,,
0,track_name,,0,1,11,,,,,,,,,,,,,,,,,,,
0,midi_port,,0,1,6,,,,,,,0,,,,,,,,,,,,
0,note_on,,0,0,15,,,,,,,,,,,,,,,,15,,60,72
0,track_name,,0,1,7,,,,,,,,,,,,,,,,,,,
0,end_of_track,,0,1,1,,,,,,,,,,,,,,,,,,,
0,set_tempo,,0,1,0,,,,,,,,,521739,,,,,,,,,,
0,key_signature,,0,1,0,,,,,,,,F,,,,,,,,,,,
0,midi_port,,0,1,1,,,,,,,0,,,,,,,,,,,,
0,track_name,,0,1,1,,,,,,,,,,,,,,,,,,,
0,track_name,,0,1,2,,,,,,,,,,,,,,,,,,,
0,midi_port,,0,1,2,,,,,,,0,,,,,,,,,,,,
0,end_of_track,,0,1,2,,,,,,,,,,,,,,,,,,,
0,time_signature,,0,1,0,,,,,,,,,,4,4,24,8,,,,,,
0,control_change,,0,0,5,,,,,,,,,,,,,,7,72,1,,,
0,control_change,,0,0,5,,,,,,,,,,,,,,10,70,1,,,
0,control_change,,0,0,5,,,,,,,,,,,,,,11,127,1,,,
0,program_change,,0,0,5,,,,,,,,,,,,,,,,1,68,,
0,track_name,,0,1,3,,,,,,,,,,,,,,,,,,,
0,midi_port,,0,1,3,,,,,,,0,,,,,,,,,,,,
0,end_of_track,,0,1,3,,,,,,,,,,,,,,,,,,,
0,midi_port,,0,1,4,,,,,,,0,,,,,,,,,,,,
0,track_name,,0,1,0,,,,,,,,,,,,,,,,,,,
0,end_of_track,,0,1,4,,,,,,,,,,,,,,,,,,,
0,track_name,,0,1,5,,,,,,,,,,,,,,,,,,,
0,instrument_name,,0,1,0,,,,,,,,,,,,,,,,,,,
0,midi_port,,0,1,5,,,,,,,0,,,,,,,,,,,,
0,smpte_offset,,0,1,0,25,32,0,3,0,0,,,,,,,,,,,,,
0,midi_port,,0,1,0,,,,,,,0,,,,,,,,,,,,
59,note_on,,0,0,15,,,,,,,,,,,,,,,,15,,60,0
59,note_on,,59,0,15,,,,,,,,,,,,,,,,15,,41,0
59,note_on,,59,0,6,,,,,,,,,,,,,,,,2,,41,0
59,note_on,,59,0,14,,,,,,,,,,,,,,,,13,,41,0
60,note_on,,1,0,15,,,,,,,,,,,,,,,,15,,53,72
60,note_on,,1,0,14,,,,,,,,,,,,,,,,13,,53,72
60,note_on,,0,0,15,,,,,,,,,,,,,,,,15,,60,72
60,note_on,,1,0,6,,,,,,,,,,,,,,,,2,,53,72
119,note_on,,59,0,14,,,,,,,,,,,,,,,,13,,53,0
119,note_on,,59,0,15,,,,,,,,,,,,,,,,15,,53,0
119,note_on,,0,0,15,,,,,,,,,,,,,,,,15,,60,0
119,note_on,,59,0,6,,,,,,,,,,,,,,,,2,,53,0
120,note_on,,1,0,14,,,,,,,,,,,,,,,,13,,57,72
120,note_on,,1,0,15,,,,,,,,,,,,,,,,15,,57,72
120,note_on,,1,0,6,,,,,,,,,,,,,,,,2,,57,72
120,note_on,,0,0,15,,,,,,,,,,,,,,,,15,,65,72
179,note_on,,0,0,15,,,,,,,,,,,,,,,,15,,65,0
179,note_on,,0,0,15,,,,,,,,,,,,,,,,15,,57,0
179,note_on,,59,0,14,,,,,,,,,,,,,,,,13,,57,0
179,note_on,,59,0,6,,,,,,,,,,,,,,,,2,,57,0
179,note_on,,59,0,15,,,,,,,,,,,,,,,,15,,72,0
179,note_on,,0,0,15,,,,,,,,,,,,,,,,15,,65,0
179,note_on,,0,0,15,,,,,,,,,,,,,,,,15,,69,0
180,note_on,,180,0,5,,,,,,,,,,,,,,,,1,,72,72
180,note_on,,180,0,13,,,,,,,,,,,,,,,,12,,65,72
180,note_on,,1,0,6,,,,,,,,,,,,,,,,2,,53,72
180,note_on,,0,0,15,,,,,,,,,,,,,,,,15,,65,72
180,note_on,,0,0,15,,,,,,,,,,,,,,,,15,,69,72
180,note_on,,1,0,15,,,,,,,,,,,,,,,,15,,53,72
180,note_on,,180,0,10,,,,,,,,,,,,,,,,8,,53,72
180,note_on,,1,0,14,,,,,,,,,,,,,,,,13,,53,72
180,note_on,,180,0,7,,,,,,,,,,,,,,,,5,,72,72
180,note_on,,180,0,9,,,,,,,,,,,,,,,,7,,57,72
180,note_on,,180,0,8,,,,,,,,,,,,,,,,6,,65,72
180,note_on,,0,0,15,,,,,,,,,,,,,,,,15,,60,72
239,note_on,,59,0,7,,,,,,,,,,,,,,,,5,,72,0
239,note_on,,59,0,6,,,,,,,,,,,,,,,,2,,53,0
239,note_on,,59,0,13,,,,,,,,,,,,,,,,12,,65,0
239,note_on,,59,0,9,,,,,,,,,,,,,,,,7,,57,0
239,note_on,,59,0,10,,,,,,,,,,,,,,,,8,,53,0
239,note_on,,0,0,15,,,,,,,,,,,,,,,,15,,69,0
239,note_on,,0,0,15,,,,,,,,,,,,,,,,15,,60,0
239,note_on,,59,0,5,,,,,,,,,,,,,,,,1,,72,0
239,note_on,,59,0,15,,,,,,,,,,,,,,,,15,,53,0
239,note_on,,59,0,14,,,,,,,,,,,,,,,,13,,53,0
239,note_on,,0,0,15,,,,,,,,,,,,,,,,15,,65,0
239,note_on,,59,0,8,,,,,,,,,,,,,,,,6,,65,0
240,note_on,,1,0,9,,,,,,,,,,,,,,,,7,,60,72
240,note_on,,1,0,5,,,,,,,,,,,,,,,,1,,77,72
240,note_on,,1,0,7,,,,,,,,,,,,,,,,5,,77,72
240,note_on,,1,0,14,,,,,,,,,,,,,,,,13,,57,72
240,note_on,,1,0,13,,,,,,,,,,,,,,,,12,,65,72
240,note_on,,1,0,6,,,,,,,,,,,,,,,,2,,57,72
240,note_on,,1,0,15,,,,,,,,,,,,,,,,15,,57,72
240,note_on,,0,0,15,,,,,,,,,,,,,,,,15,,72,72
240,note_on,,0,0,15,,,,,,,,,,,,,,,,15,,65,72
240,note_on,,0,0,15,,,,,,,,,,,,,,,,15,,60,72
240,note_on,,1,0,10,,,,,,,,,,,,,,,,8,,57,72
240,note_on,,1,0,8,,,,,,,,,,,,,,,,6,,65,72
299,note_on,,59,0,6,,,,,,,,,,,,,,,,2,,57,0
299,note_on,,0,0,15,,,,,,,,,,,,,,,,15,,72,0
299,note_on,,59,0,15,,,,,,,,,,,,,,,,15,,57,0
299,note_on,,59,0,14,,,,,,,,,,,,,,,,13,,57,0
300,note_on,,1,0,14,,,,,,,,,,,,,,,,13,,53,72
300,note_on,,1,0,6,,,,,,,,,,,,,,,,2,,53,72
300,note_on,,1,0,15,,,,,,,,,,,,,,,,15,,53,72
300,note_on,,0,0,15,,,,,,,,,,,,,,,,15,,69,72
359,note_on,,59,0,15,,,,,,,,,,,,,,,,15,,65,0
359,note_on,,0,0,15,,,,,,,,,,,,,,,,15,,60,0
359,note_on,,0,0,15,,,,,,,,,,,,,,,,15,,53,0
359,note_on,,0,0,15,,,,,,,,,,,,,,,,15,,69,0
359,note_on,,119,0,9,,,,,,,,,,,,,,,,7,,60,0
359,note_on,,59,0,6,,,,,,,,,,,,,,,,2,,53,0
359,note_on,,119,0,5,,,,,,,,,,,,,,,,1,,77,0
359,note_on,,59,0,14,,,,,,,,,,,,,,,,13,,53,0
359,note_on,,119,0,13,,,,,,,,,,,,,,,,12,,65,0
359,note_on,,119,0,7,,,,,,,,,,,,,,,,5,,77,0
359,note_on,,119,0,8,,,,,,,,,,,,,,,,6,,65,0
359,note_on,,119,0,10,,,,,,,,,,,,,,,,8,,57,0
360,note_on,,1,0,6,,,,,,,,,,,,,,,,2,,58,72
360,note_on,,1,0,14,,,,,,,,,,,,,,,,13,,58,72
360,note_on,,1,0,5,,,,,,,,,,,,,,,,1,,74,72
360,note_on,,1,0,13,,,,,,,,,,,,,,,,12,,65,72
360,note_on,,1,0,7,,,,,,,,,,,,,,,,5,,74,72
360,note_on,,1,0,10,,,,,,,,,,,,,,,,8,,58,72
360,note_on,,1,0,15,,,,,,,,,,,,,,,,15,,58,72
360,note_on,,0,0,15,,,,,,,,,,,,,,,,15,,65,72
360,note_on,,0,0,15,,,,,,,,,,,,,,,,15,,62,72
360,note_on,,1,0,8,,,,,,,,,,,,,,,,6,,65,72
360,note_on,,1,0,9,,,,,,,,,,,,,,,,7,,62,72
419,note_on,,0,0,15,,,,,,,,,,,,,,,,15,,65,0
419,note_on,,59,0,15,,,,,,,,,,,,,,,,15,,58,0
419,note_on,,59,0,14,,,,,,,,,,,,,,,,13,,58,0
419,note_on,,59,0,6,,,,,,,,,,,,,,,,2,,58,0
420,note_on,,1,0,15,,,,,,,,,,,,,,,,15,,53,72
420,note_on,,0,0,15,,,,,,,,,,,,,,,,15,,70,72
420,note_on,,1,0,14,,,,,,,,,,,,,,,,13,,53,72
420,note_on,,1,0,6,,,,,,,,,,,,,,,,2,,53,72
479,note_on,,119,0,7,,,,,,,,,,,,,,,,5,,74,0
479,note_on,,59,0,15,,,,,,,,,,,,,,,,15,,62,0
479,note_on,,119,0,5,,,,,,,,,,,,,,,,1,,74,0
479,note_on,,0,0,15,,,,,,,,,,,,,,,,15,,53,0
479,note_on,,0,0,15,,,,,,,,,,,,,,,,15,,70,0
479,note_on,,119,0,13,,,,,,,,,,,,,,,,12,,65,0
479,note_on,,119,0,8,,,,,,,,,,,,,,,,6,,65,0
479,note_on,,59,0,14,,,,,,,,,,,,,,,,13,,53,0
479,note_on,,59,0,6,,,,,,,,,,,,,,,,2,,53,0
479,note_on,,119,0,9,,,,,,,,,,,,,,,,7,,62,0
479,note_on,,119,0,10,,,,,,,,,,,,,,,,8,,58,0
480,note_on,,1,0,8,,,,,,,,,,,,,,,,6,,69,72
480,note_on,,0,0,15,,,,,,,,,,,,,,,,15,,72,72
480,note_on,,1,0,15,,,,,,,,,,,,,,,,15,,57,72
480,note_on,,1,0,6,,,,,,,,,,,,,,,,2,,57,72
480,note_on,,1,0,9,,,,,,,,,,,,,,,,7,,65,72
480,note_on,,1,0,10,,,,,,,,,,,,,,,,8,,53,72
480,note_on,,0,0,15,,,,,,,,,,,,,,,,15,,65,72
480,note_on,,1,0,7,,,,,,,,,,,,,,,,5,,72,72
480,note_on,,0,0,15,,,,,,,,,,,,,,,,15,,60,72
480,note_on,,1,0,13,,,,,,,,,,,,,,,,12,,65,72
480,note_on,,1,0,14,,,,,,,,,,,,,,,,13,,57,72
480,note_on,,1,0,5,,,,,,,,,,,,,,,,1,,72,72
539,note_on,,0,0,15,,,,,,,,,,,,,,,,15,,65,0
539,note_on,,59,0,14,,,,,,,,,,,,,,,,13,,57,0
539,note_on,,59,0,15,,,,,,,,,,,,,,,,15,,57,0
539,note_on,,59,0,6,,,,,,,,,,,,,,,,2,,57,0
539,note_on,,0,0,15,,,,,,,,,,,,,,,,15,,60,0
540,note_on,,0,0,15,,,,,,,,,,,,,,,,15,,57,72
540,note_on,,0,0,15,,,,,,,,,,,,,,,,15,,60,72
540,note_on,,1,0,14,,,,,,,,,,,,,,,,13,,53,72
540,note_on,,1,0,15,,,,,,,,,,,,,,,,15,,53,72
540,note_on,,1,0,6,,,,,,,,,,,,,,,,2,,53,72
599,note_on,,0,0,15,,,,,,,,,,,,,,,,15,,57,0
599,note_on,,0,0,15,,,,,,,,,,,,,,,,15,,53,0
599,note_on,,0,0,15,,,,,,,,,,,,,,,,15,,60,0
599,note_on,,59,0,15,,,,,,,,,,,,,,,,15,,72,0
599,note_on,,119,0,13,,,,,,,,,,,,,,,,12,,65,0
599,note_on,,119,0,5,,,,,,,,,,,,,,,,1,,72,0
599,note_on,,119,0,8,,,,,,,,,,,,,,,,6,,69,0
599,note_on,,59,0,14,,,,,,,,,,,,,,,,13,,53,0
599,note_on,,119,0,10,,,,,,,,,,,,,,,,8,,53,0
599,note_on,,119,0,9,,,,,,,,,,,,,,,,7,,65,0
599,note_on,,59,0,6,,,,,,,,,,,,,,,,2,,53,0
599,note_on,,119,0,7,,,,,,,,,,,,,,,,5,,72,0
600,note_on,,0,0,15,,,,,,,,,,,,,,,,15,,65,72
600,note_on,,1,0,14,,,,,,,,,,,,,,,,13,,57,72
600,note_on,,1,0,6,,,,,,,,,,,,,,,,2,,57,72
600,note_on,,1,0,15,,,,,,,,,,,,,,,,15,,60,72
600,note_on,,0,0,15,,,,,,,,,,,,,,,,15,,57,72
659,note_on,,59,0,15,,,,,,,,,,,,,,,,15,,57,0
659,note_on,,59,0,14,,,,,,,,,,,,,,,,13,,57,0
659,note_on,,59,0,6,,,,,,,,,,,,,,,,2,,57,0
660,note_on,,1,0,6,,,,,,,,,,,,,,,,2,,53,72
660,note_on,,1,0,14,,,,,,,,,,,,,,,,13,,53,72
660,note_on,,660,0,12,,,,,,,,,,,,,,,,11,,69,72
660,note_on,,660,0,11,,,,,,,,,,,,,,,,10,,72,72
660,note_on,,1,0,15,,,,,,,,,,,,,,,,15,,53,72
660,note_on,,0,0,15,,,,,,,,,,,,,,,,15,,69,72
660,note_on,,61,0,13,,,,,,,,,,,,,,,,12,,60,72
719,note_on,,0,0,15,,,,,,,,,,,,,,,,15,,65,0
719,note_on,,59,0,13,,,,,,,,,,,,,,,,12,,60,0
719,note_on,,59,0,15,,,,,,,,,,,,,,,,15,,60,0
719,note_on,,0,0,15,,,,,,,,,,,,,,,,15,,53,0
719,note_on,,0,0,15,,,,,,,,,,,,,,,,15,,69,0
719,note_on,,59,0,6,,,,,,,,,,,,,,,,2,,53,0
719,note_on,,59,0,14,,,,,,,,,,,,,,,,13,,53,0
719,note_on,,59,0,12,,,,,,,,,,,,,,,,11,,69,0
719,note_on,,59,0,11,,,,,,,,,,,,,,,,10,,72,0
720,note_on,,1,0,12,,,,,,,,,,,,,,,,11,,72,72
720,note_on,,0,0,15,,,,,,,,,,,,,,,,15,,72,72
720,note_on,,1,0,13,,,,,,,,,,,,,,,,12,,57,72
720,note_on,,0,0,15,,,,,,,,,,,,,,,,15,,60,72
720,note_on,,1,0,15,,,,,,,,,,,,,,,,15,,57,72
720,note_on,,1,0,6,,,,,,,,,,,,,,,,2,,57,72
720,note_on,,1,0,11,,,,,,,,,,,,,,,,10,,77,72
720,note_on,,1,0,14,,,,,,,,,,,,,,,,13,,57,72
720,note_on,,0,0,15,,,,,,,,,,,,,,,,15,,65,72
779,note_on,,59,0,14,,,,,,,,,,,,,,,,13,,57,0
779,note_on,,59,0,6,,,,,,,,,,,,,,,,2,,57,0
779,note_on,,59,0,15,,,,,,,,,,,,,,,,15,,57,0
779,note_on,,0,0,15,,,,,,,,,,,,,,,,15,,72,0
780,note_on,,1,0,6,,,,,,,,,,,,,,,,2,,53,72
780,note_on,,1,0,14,,,,,,,,,,,,,,,,13,,53,72
780,note_on,,1,0,15,,,,,,,,,,,,,,,,15,,53,72
780,note_on,,0,0,15,,,,,,,,,,,,,,,,15,,69,72
839,note_on,,119,0,12,,,,,,,,,,,,,,,,11,,72,0
839,note_on,,119,0,11,,,,,,,,,,,,,,,,10,,77,0
839,note_on,,119,0,13,,,,,,,,,,,,,,,,12,,57,0
839,note_on,,59,0,14,,,,,,,,,,,,,,,,13,,53,0
839,note_on,,0,0,15,,,,,,,,,,,,,,,,15,,69,0
839,note_on,,0,0,15,,,,,,,,,,,,,,,,15,,53,0
839,note_on,,0,0,15,,,,,,,,,,,,,,,,15,,65,0
839,note_on,,59,0,15,,,,,,,,,,,,,,,,15,,60,0
839,note_on,,59,0,6,,,,,,,,,,,,,,,,2,,53,0
840,note_on,,1,0,14,,,,,,,,,,,,,,,,13,,58,72
840,note_on,,1,0,15,,,,,,,,,,,,,,,,15,,58,72
840,note_on,,1,0,11,,,,,,,,,,,,,,,,10,,74,72
840,note_on,,0,0,15,,,,,,,,,,,,,,,,15,,62,72
840,note_on,,1,0,12,,,,,,,,,,,,,,,,11,,70,72
840,note_on,,0,0,15,,,,,,,,,,,,,,,,15,,65,72
840,note_on,,1,0,13,,,,,,,,,,,,,,,,12,,53,72
840,note_on,,1,0,6,,,,,,,,,,,,,,,,2,,58,72
899,note_on,,0,0,15,,,,,,,,,,,,,,,,15,,65,0
899,note_on,,59,0,15,,,,,,,,,,,,,,,,15,,58,0
899,note_on,,59,0,6,,,,,,,,,,,,,,,,2,,58,0
899,note_on,,59,0,14,,,,,,,,,,,,,,,,13,,58,0
900,note_on,,0,0,15,,,,,,,,,,,,,,,,15,,70,72
900,note_on,,1,0,6,,,,,,,,,,,,,,,,2,,53,72
900,note_on,,1,0,15,,,,,,,,,,,,,,,,15,,53,72
900,note_on,,1,0,14,,,,,,,,,,,,,,,,13,,53,72
959,note_on,,59,0,6,,,,,,,,,,,,,,,,2,,53,0
959,note_on,,59,0,14,,,,,,,,,,,,,,,,13,,53,0
959,note_on,,119,0,13,,,,,,,,,,,,,,,,12,,53,0
959,note_on,,0,0,15,,,,,,,,,,,,,,,,15,,53,0
959,note_on,,59,0,15,,,,,,,,,,,,,,,,15,,62,0
959,note_on,,119,0,12,,,,,,,,,,,,,,,,11,,70,0
959,note_on,,119,0,11,,,,,,,,,,,,,,,,10,,74,0
959,note_on,,0,0,15,,,,,,,,,,,,,,,,15,,70,0
960,note_on,,1,0,15,,,,,,,,,,,,,,,,15,,57,72
960,note_on,,1,0,14,,,,,,,,,,,,,,,,13,,57,72
960,note_on,,1,0,6,,,,,,,,,,,,,,,,2,,57,72
960,note_on,,1,0,12,,,,,,,,,,,,,,,,11,,69,72
960,note_on,,1,0,11,,,,,,,,,,,,,,,,10,,72,72
960,note_on,,0,0,15,,,,,,,,,,,,,,,,15,,60,72
960,note_on,,0,0,15,,,,,,,,,,,,,,,,15,,65,72
960,note_on,,1,0,13,,,,,,,,,,,,,,,,12,,53,72
960,note_on,,0,0,15,,,,,,,,,,,,,,,,15,,72,72
1019,note_on,,0,0,15,,,,,,,,,,,,,,,,15,,60,0
1019,note_on,,59,0,6,,,,,,,,,,,,,,,,2,,57,0
1019,note_on,,59,0,14,,,,,,,,,,,,,,,,13,,57,0
1019,note_on,,59,0,15,,,,,,,,,,,,,,,,15,,57,0
1020,note_on,,1,0,14,,,,,,,,,,,,,,,,13,,53,72
1020,note_on,,0,0,15,,,,,,,,,,,,,,,,15,,57,72
1020,note_on,,1,0,6,,,,,,,,,,,,,,,,2,,53,72
1020,note_on,,1,0,15,,,,,,,,,,,,,,,,15,,53,72
1079,note_on,,59,0,6,,,,,,,,,,,,,,,,2,,53,0
1079,note_on,,59,0,15,,,,,,,,,,,,,,,,15,,72,0
1079,note_on,,119,0,11,,,,,,,,,,,,,,,,10,,72,0
1079,note_on,,119,0,13,,,,,,,,,,,,,,,,12,,53,0
1079,note_on,,0,0,15,,,,,,,,,,,,,,,,15,,65,0
1079,note_on,,119,0,12,,,,,,,,,,,,,,,,11,,69,0
1079,note_on,,59,0,14,,,,,,,,,,,,,,,,13,,53,0
1079,note_on,,0,0,15,,,,,,,,,,,,,,,,15,,57,0
1079,note_on,,0,0,15,,,,,,,,,,,,,,,,15,,53,0
1080,note_on,,0,0,15,,,,,,,,,,,,,,,,15,,53,72
1080,note_on,,1,0,15,,,,,,,,,,,,,,,,15,,45,72
1080,note_on,,1,0,14,,,,,,,,,,,,,,,,13,,45,72
1080,note_on,,1,0,6,,,,,,,,,,,,,,,,2,,45,72
1139,note_on,,59,0,6,,,,,,,,,,,,,,,,2,,45,0
1139,note_on,,59,0,15,,,,,,,,,,,,,,,,15,,45,0
1139,note_on,,0,0,15,,,,,,,,,,,,,,,,15,,53,0
1139,note_on,,59,0,14,,,,,,,,,,,,,,,,13,,45,0
1140,note_on,,1,0,6,,,,,,,,,,,,,,,,2,,41,72
1140,note_on,,541,0,10,,,,,,,,,,,,,,,,8,,53,72
1140,note_on,,541,0,8,,,,,,,,,,,,,,,,6,,60,72
1140,note_on,,61,0,13,,,,,,,,,,,,,,,,12,,57,72
1140,note_on,,1,0,14,,,,,,,,,,,,,,,,13,,41,72
1140,note_on,,61,0,12,,,,,,,,,,,,,,,,11,,57,72
1140,note_on,,541,0,7,,,,,,,,,,,,,,,,5,,60,72
1140,note_on,,61,0,11,,,,,,,,,,,,,,,,10,,60,72
1140,note_on,,541,0,5,,,,,,,,,,,,,,,,1,,60,72
1140,note_on,,541,0,9,,,,,,,,,,,,,,,,7,,57,72
1140,note_on,,1,0,15,,,,,,,,,,,,,,,,15,,41,72
1140,note_on,,0,0,15,,,,,,,,,,,,,,,,15,,57,72
1140,note_on,,0,0,15,,,,,,,,,,,,,,,,15,,60,72
1140,note_on,,0,0,15,,,,,,,,,,,,,,,,15,,65,72
1199,note_on,,59,0,8,,,,,,,,,,,,,,,,6,,60,0
1199,note_on,,59,0,6,,,,,,,,,,,,,,,,2,,41,0
1199,note_on,,59,0,12,,,,,,,,,,,,,,,,11,,57,0
1199,note_on,,59,0,10,,,,,,,,,,,,,,,,8,,53,0
1199,note_on,,0,0,15,,,,,,,,,,,,,,,,15,,65,0
1199,note_on,,0,0,15,,,,,,,,,,,,,,,,15,,60,0
1199,note_on,,0,0,15,,,,,,,,,,,,,,,,15,,57,0
1199,note_on,,59,0,15,,,,,,,,,,,,,,,,15,,41,0
1199,note_on,,59,0,7,,,,,,,,,,,,,,,,5,,60,0
1199,note_on,,59,0,9,,,,,,,,,,,,,,,,7,,57,0
1199,note_on,,59,0,13,,,,,,,,,,,,,,,,12,,57,0
1199,note_on,,59,0,14,,,,,,,,,,,,,,,,13,,41,0
1199,note_on,,59,0,5,,,,,,,,,,,,,,,,1,,60,0
1199,note_on,,59,0,11,,,,,,,,,,,,,,,,10,,60,0
1200,note_on,,0,0,15,,,,,,,,,,,,,,,,15,,53,72
1200,note_on,,1,0,14,,,,,,,,,,,,,,,,13,,45,72
1200,note_on,,1,0,7,,,,,,,,,,,,,,,,5,,65,72
1200,note_on,,1,0,6,,,,,,,,,,,,,,,,2,,45,72
1200,note_on,,0,0,15,,,,,,,,,,,,,,,,15,,60,72
1200,note_on,,1,0,11,,,,,,,,,,,,,,,,10,,65,72
1200,note_on,,0,0,15,,,,,,,,,,,,,,,,15,,65,72
1200,note_on,,1,0,9,,,,,,,,,,,,,,,,7,,60,72
1200,note_on,,1,0,5,,,,,,,,,,,,,,,,1,,65,72
1200,note_on,,1,0,8,,,,,,,,,,,,,,,,6,,65,72
1200,note_on,,1,0,10,,,,,,,,,,,,,,,,8,,45,72
1200,note_on,,1,0,12,,,,,,,,,,,,,,,,11,,60,72
1200,note_on,,1,0,15,,,,,,,,,,,,,,,,15,,45,72
1200,note_on,,1,0,13,,,,,,,,,,,,,,,,12,,58,72
1259,note_on,,59,0,13,,,,,,,,,,,,,,,,12,,58,0
1259,note_on,,59,0,6,,,,,,,,,,,,,,,,2,,45,0
1259,note_on,,0,0,15,,,,,,,,,,,,,,,,15,,53,0
1259,note_on,,59,0,15,,,,,,,,,,,,,,,,15,,45,0
1259,note_on,,59,0,14,,,,,,,,,,,,,,,,13,,45,0
1260,note_on,,0,0,15,,,,,,,,,,,,,,,,15,,57,72
1260,note_on,,1,0,15,,,,,,,,,,,,,,,,15,,41,72
1260,note_on,,1,0,14,,,,,,,,,,,,,,,,13,,41,72
1260,note_on,,1,0,13,,,,,,,,,,,,,,,,12,,57,72
1260,note_on,,1,0,6,,,,,,,,,,,,,,,,2,,41,72
1319,note_on,,0,0,15,,,,,,,,,,,,,,,,15,,57,0
1319,note_on,,119,0,7,,,,,,,,,,,,,,,,5,,65,0
1319,note_on,,119,0,8,,,,,,,,,,,,,,,,6,,65,0
1319,note_on,,59,0,6,,,,,,,,,,,,,,,,2,,41,0
1319,note_on,,119,0,10,,,,,,,,,,,,,,,,8,,45,0
1319,note_on,,0,0,15,,,,,,,,,,,,,,,,15,,41,0
1319,note_on,,0,0,15,,,,,,,,,,,,,,,,15,,60,0
1319,note_on,,59,0,13,,,,,,,,,,,,,,,,12,,57,0
1319,note_on,,59,0,15,,,,,,,,,,,,,,,,15,,65,0
1319,note_on,,59,0,14,,,,,,,,,,,,,,,,13,,41,0
1319,note_on,,119,0,5,,,,,,,,,,,,,,,,1,,65,0
1319,note_on,,119,0,9,,,,,,,,,,,,,,,,7,,60,0
1319,note_on,,119,0,12,,,,,,,,,,,,,,,,11,,60,0
1319,note_on,,119,0,11,,,,,,,,,,,,,,,,10,,65,0
1320,note_on,,1,0,5,,,,,,,,,,,,,,,,1,,62,72
1320,note_on,,1,0,9,,,,,,,,,,,,,,,,7,,58,72
1320,note_on,,0,0,15,,,,,,,,,,,,,,,,15,,62,72
1320,note_on,,0,0,15,,,,,,,,,,,,,,,,15,,53,72
1320,note_on,,1,0,10,,,,,,,,,,,,,,,,8,,46,72
1320,note_on,,1,0,12,,,,,,,,,,,,,,,,11,,58,72
1320,note_on,,1,0,8,,,,,,,,,,,,,,,,6,,62,72
1320,note_on,,0,0,15,,,,,,,,,,,,,,,,15,,65,72
1320,note_on,,1,0,13,,,,,,,,,,,,,,,,12,,62,72
1320,note_on,,1,0,15,,,,,,,,,,,,,,,,15,,46,72
1320,note_on,,1,0,11,,,,,,,,,,,,,,,,10,,62,72
1320,note_on,,1,0,14,,,,,,,,,,,,,,,,13,,46,72
1320,note_on,,1,0,7,,,,,,,,,,,,,,,,5,,62,72
1320,note_on,,1,0,6,,,,,,,,,,,,,,,,2,,46,72
1379,note_on,,0,0,15,,,,,,,,,,,,,,,,15,,62,0
1379,note_on,,59,0,14,,,,,,,,,,,,,,,,13,,46,0
1379,note_on,,59,0,13,,,,,,,,,,,,,,,,12,,62,0
1379,note_on,,59,0,6,,,,,,,,,,,,,,,,2,,46,0
1379,note_on,,59,0,15,,,,,,,,,,,,,,,,15,,46,0
1380,note_on,,1,0,13,,,,,,,,,,,,,,,,12,,60,72
1380,note_on,,1,0,15,,,,,,,,,,,,,,,,15,,41,72
1380,note_on,,0,0,15,,,,,,,,,,,,,,,,15,,58,72
1380,note_on,,1,0,14,,,,,,,,,,,,,,,,13,,41,72
1380,note_on,,1,0,6,,,,,,,,,,,,,,,,2,,41,72
1439,note_on,,0,0,15,,,,,,,,,,,,,,,,15,,41,0
1439,note_on,,119,0,9,,,,,,,,,,,,,,,,7,,58,0
1439,note_on,,0,0,15,,,,,,,,,,,,,,,,15,,58,0
1439,note_on,,59,0,6,,,,,,,,,,,,,,,,2,,41,0
1439,note_on,,59,0,15,,,,,,,,,,,,,,,,15,,65,0
1439,note_on,,119,0,10,,,,,,,,,,,,,,,,8,,46,0
1439,note_on,,59,0,14,,,,,,,,,,,,,,,,13,,41,0
1439,note_on,,119,0,12,,,,,,,,,,,,,,,,11,,58,0
1439,note_on,,119,0,8,,,,,,,,,,,,,,,,6,,62,0
1439,note_on,,59,0,13,,,,,,,,,,,,,,,,12,,60,0
1439,note_on,,119,0,11,,,,,,,,,,,,,,,,10,,62,0
1439,note_on,,119,0,7,,,,,,,,,,,,,,,,5,,62,0
1439,note_on,,0,0,15,,,,,,,,,,,,,,,,15,,53,0
1439,note_on,,119,0,5,,,,,,,,,,,,,,,,1,,62,0
1440,note_on,,1,0,5,,,,,,,,,,,,,,,,1,,60,72
1440,note_on,,1,0,11,,,,,,,,,,,,,,,,10,,60,72
1440,note_on,,1,0,12,,,,,,,,,,,,,,,,11,,57,72
1440,note_on,,1,0,7,,,,,,,,,,,,,,,,5,,60,72
1440,note_on,,1,0,13,,,,,,,,,,,,,,,,12,,65,72
1440,note_on,,1,0,9,,,,,,,,,,,,,,,,7,,57,72
1440,note_on,,1,0,10,,,,,,,,,,,,,,,,8,,53,72
1440,note_on,,0,0,15,,,,,,,,,,,,,,,,15,,53,72
1440,note_on,,0,0,15,,,,,,,,,,,,,,,,15,,60,72
1440,note_on,,0,0,15,,,,,,,,,,,,,,,,15,,65,72
1440,note_on,,1,0,14,,,,,,,,,,,,,,,,13,,45,72
1440,note_on,,1,0,15,,,,,,,,,,,,,,,,15,,45,72
1440,note_on,,1,0,6,,,,,,,,,,,,,,,,2,,45,72
1440,note_on,,1,0,8,,,,,,,,,,,,,,,,6,,60,72
1499,note_on,,59,0,13,,,,,,,,,,,,,,,,12,,65,0
1499,note_on,,0,0,15,,,,,,,,,,,,,,,,15,,53,0
1499,note_on,,59,0,14,,,,,,,,,,,,,,,,13,,45,0
1499,note_on,,59,0,6,,,,,,,,,,,,,,,,2,,45,0
1499,note_on,,59,0,15,,,,,,,,,,,,,,,,15,,45,0
1500,note_on,,1,0,15,,,,,,,,,,,,,,,,15,,41,72
1500,note_on,,0,0,15,,,,,,,,,,,,,,,,15,,57,72
1500,note_on,,1,0,6,,,,,,,,,,,,,,,,2,,41,72
1500,note_on,,1,0,13,,,,,,,,,,,,,,,,12,,64,72
1500,note_on,,1,0,14,,,,,,,,,,,,,,,,13,,41,72
1559,note_on,,0,0,15,,,,,,,,,,,,,,,,15,,60,0
1559,note_on,,119,0,8,,,,,,,,,,,,,,,,6,,60,0
1559,note_on,,59,0,6,,,,,,,,,,,,,,,,2,,41,0
1559,note_on,,119,0,10,,,,,,,,,,,,,,,,8,,53,0
1559,note_on,,0,0,15,,,,,,,,,,,,,,,,15,,41,0
1559,note_on,,119,0,7,,,,,,,,,,,,,,,,5,,60,0
1559,note_on,,0,0,15,,,,,,,,,,,,,,,,15,,57,0
1559,note_on,,59,0,13,,,,,,,,,,,,,,,,12,,64,0
1559,note_on,,59,0,14,,,,,,,,,,,,,,,,13,,41,0
1559,note_on,,119,0,11,,,,,,,,,,,,,,,,10,,60,0
1559,note_on,,119,0,12,,,,,,,,,,,,,,,,11,,57,0
1559,note_on,,119,0,9,,,,,,,,,,,,,,,,7,,57,0
1559,note_on,,59,0,15,,,,,,,,,,,,,,,,15,,65,0
1559,note_on,,119,0,5,,,,,,,,,,,,,,,,1,,60,0
1560,note_on,,0,0,15,,,,,,,,,,,,,,,,15,,57,72
1560,note_on,,1,0,15,,,,,,,,,,,,,,,,15,,60,72
1560,note_on,,1,0,13,,,,,,,,,,,,,,,,12,,62,72
1619,note_on,,59,0,13,,,,,,,,,,,,,,,,12,,62,0
1620,note_on,,60,0,15,,,,,,,,,,,,,,,,15,,53,72
1620,note_on,,61,0,14,,,,,,,,,,,,,,,,13,,53,72
1620,note_on,,61,0,5,,,,,,,,,,,,,,,,1,,60,72
1620,note_on,,61,0,12,,,,,,,,,,,,,,,,11,,57,72
1620,note_on,,61,0,11,,,,,,,,,,,,,,,,10,,60,72
1620,note_on,,1,0,13,,,,,,,,,,,,,,,,12,,60,72
1620,note_on,,61,0,9,,,,,,,,,,,,,,,,7,,57,72
1620,note_on,,61,0,7,,,,,,,,,,,,,,,,5,,60,72
1679,note_on,,0,0,15,,,,,,,,,,,,,,,,15,,57,0
1679,note_on,,0,0,15,,,,,,,,,,,,,,,,15,,53,0
1679,note_on,,59,0,9,,,,,,,,,,,,,,,,7,,57,0
1679,note_on,,59,0,12,,,,,,,,,,,,,,,,11,,57,0
1679,note_on,,59,0,11,,,,,,,,,,,,,,,,10,,60,0
1679,note_on,,59,0,15,,,,,,,,,,,,,,,,15,,60,0
1679,note_on,,59,0,5,,,,,,,,,,,,,,,,1,,60,0
1679,note_on,,59,0,7,,,,,,,,,,,,,,,,5,,60,0
1679,note_on,,59,0,14,,,,,,,,,,,,,,,,13,,53,0
1679,note_on,,59,0,13,,,,,,,,,,,,,,,,12,,60,0
1680,note_on,,1,0,11,,,,,,,,,,,,,,,,10,,62,72
1680,note_on,,1,0,5,,,,,,,,,,,,,,,,1,,62,72
1680,note_on,,0,0,15,,,,,,,,,,,,,,,,15,,62,72
1680,note_on,,1,0,15,,,,,,,,,,,,,,,,15,,58,72
1680,note_on,,1,0,12,,,,,,,,,,,,,,,,11,,58,72
1680,note_on,,1,0,13,,,,,,,,,,,,,,,,12,,58,72
1680,note_on,,1,0,14,,,,,,,,,,,,,,,,13,,58,72
1680,note_on,,1,0,9,,,,,,,,,,,,,,,,7,,58,72
1680,note_on,,1,0,7,,,,,,,,,,,,,,,,5,,62,72
1739,note_on,,59,0,15,,,,,,,,,,,,,,,,15,,58,0
1739,note_on,,59,0,9,,,,,,,,,,,,,,,,7,,58,0
1739,note_on,,59,0,7,,,,,,,,,,,,,,,,5,,62,0
1739,note_on,,59,0,13,,,,,,,,,,,,,,,,12,,58,0
1739,note_on,,0,0,15,,,,,,,,,,,,,,,,15,,62,0
1739,note_on,,59,0,12,,,,,,,,,,,,,,,,11,,58,0
1739,note_on,,59,0,14,,,,,,,,,,,,,,,,13,,58,0
1739,note_on,,59,0,11,,,,,,,,,,,,,,,,10,,62,0
1739,note_on,,59,0,5,,,,,,,,,,,,,,,,1,,62,0
1740,note_on,,1,0,5,,,,,,,,,,,,,,,,1,,60,72
1740,note_on,,1,0,9,,,,,,,,,,,,,,,,7,,57,72
1740,note_on,,1,0,7,,,,,,,,,,,,,,,,5,,60,72
1740,note_on,,1,0,15,,,,,,,,,,,,,,,,15,,57,72
1740,note_on,,1,0,14,,,,,,,,,,,,,,,,13,,57,72
1740,note_on,,1,0,13,,,,,,,,,,,,,,,,12,,57,72
1740,note_on,,1,0,11,,,,,,,,,,,,,,,,10,,60,72
1740,note_on,,0,0,15,,,,,,,,,,,,,,,,15,,60,72
1740,note_on,,1,0,12,,,,,,,,,,,,,,,,11,,57,72
1799,note_on,,59,0,9,,,,,,,,,,,,,,,,7,,57,0
1799,note_on,,59,0,7,,,,,,,,,,,,,,,,5,,60,0
1799,note_on,,59,0,11,,,,,,,,,,,,,,,,10,,60,0
1799,note_on,,59,0,13,,,,,,,,,,,,,,,,12,,57,0
1799,note_on,,59,0,15,,,,,,,,,,,,,,,,15,,57,0
1799,note_on,,59,0,14,,,,,,,,,,,,,,,,13,,57,0
1799,note_on,,59,0,5,,,,,,,,,,,,,,,,1,,60,0
1799,note_on,,0,0,15,,,,,,,,,,,,,,,,15,,60,0
1799,note_on,,59,0,12,,,,,,,,,,,,,,,,11,,57,0
1800,note_on,,1,0,14,,,,,,,,,,,,,,,,13,,62,72
1800,note_on,,1,0,5,,,,,,,,,,,,,,,,1,,65,72
1800,note_on,,1,0,13,,,,,,,,,,,,,,,,12,,55,72
1800,note_on,,1,0,9,,,,,,,,,,,,,,,,7,,62,72
1800,note_on,,0,0,15,,,,,,,,,,,,,,,,15,,65,72
1800,note_on,,1,0,12,,,,,,,,,,,,,,,,11,,62,72
1800,note_on,,1,0,11,,,,,,,,,,,,,,,,10,,65,72
1800,note_on,,1,0,15,,,,,,,,,,,,,,,,15,,62,72
1800,note_on,,1,0,7,,,,,,,,,,,,,,,,5,,65,72
1859,note_on,,59,0,13,,,,,,,,,,,,,,,,12,,55,0
1859,note_on,,59,0,5,,,,,,,,,,,,,,,,1,,65,0
1859,note_on,,59,0,9,,,,,,,,,,,,,,,,7,,62,0
1859,note_on,,59,0,7,,,,,,,,,,,,,,,,5,,65,0
1859,note_on,,59,0,11,,,,,,,,,,,,,,,,10,,65,0
1859,note_on,,59,0,15,,,,,,,,,,,,,,,,15,,62,0
1859,note_on,,0,0,15,,,,,,,,,,,,,,,,15,,65,0
1859,note_on,,59,0,12,,,,,,,,,,,,,,,,11,,62,0
1859,note_on,,59,0,14,,,,,,,,,,,,,,,,13,,62,0
1860,note_on,,1,0,7,,,,,,,,,,,,,,,,5,,64,72
1860,note_on,,1,0,5,,,,,,,,,,,,,,,,1,,64,72
1860,note_on,,1,0,9,,,,,,,,,,,,,,,,7,,60,72
1860,note_on,,0,0,15,,,,,,,,,,,,,,,,15,,64,72
1860,note_on,,1,0,12,,,,,,,,,,,,,,,,11,,60,72
1860,note_on,,1,0,13,,,,,,,,,,,,,,,,12,,53,72
1860,note_on,,1,0,11,,,,,,,,,,,,,,,,10,,64,72
1860,note_on,,1,0,14,,,,,,,,,,,,,,,,13,,60,72
1860,note_on,,1,0,15,,,,,,,,,,,,,,,,15,,60,72
1919,note_on,,59,0,12,,,,,,,,,,,,,,,,11,,60,0
1919,note_on,,0,0,15,,,,,,,,,,,,,,,,15,,64,0
1919,note_on,,59,0,9,,,,,,,,,,,,,,,,7,,60,0
1919,note_on,,59,0,11,,,,,,,,,,,,,,,,10,,64,0
1919,note_on,,59,0,13,,,,,,,,,,,,,,,,12,,53,0
1919,note_on,,59,0,5,,,,,,,,,,,,,,,,1,,64,0
1919,note_on,,59,0,14,,,,,,,,,,,,,,,,13,,60,0
1919,note_on,,59,0,15,,,,,,,,,,,,,,,,15,,60,0
1919,note_on,,59,0,7,,,,,,,,,,,,,,,,5,,64,0
1920,note_on,,0,0,15,,,,,,,,,,,,,,,,15,,69,72
1920,note_on,,1,0,14,,,,,,,,,,,,,,,,13,,65,72
1920,note_on,,1,0,5,,,,,,,,,,,,,,,,1,,69,72
1920,note_on,,1,0,13,,,,,,,,,,,,,,,,12,,52,72
1920,note_on,,1,0,12,,,,,,,,,,,,,,,,11,,65,72
1920,note_on,,1,0,15,,,,,,,,,,,,,,,,15,,65,72
1920,note_on,,1,0,11,,,,,,,,,,,,,,,,10,,69,72
1920,note_on,,1,0,7,,,,,,,,,,,,,,,,5,,69,72
1920,note_on,,1,0,9,,,,,,,,,,,,,,,,7,,65,72
1979,note_on,,59,0,9,,,,,,,,,,,,,,,,7,,65,0
1979,note_on,,59,0,14,,,,,,,,,,,,,,,,13,,65,0
1979,note_on,,59,0,11,,,,,,,,,,,,,,,,10,,69,0
1979,note_on,,59,0,12,,,,,,,,,,,,,,,,11,,65,0
1979,note_on,,59,0,7,,,,,,,,,,,,,,,,5,,69,0
1979,note_on,,59,0,15,,,,,,,,,,,,,,,,15,,65,0
1979,note_on,,59,0,5,,,,,,,,,,,,,,,,1,,69,0
1979,note_on,,0,0,15,,,,,,,,,,,,,,,,15,,69,0
1980,note_on,,1,0,9,,,,,,,,,,,,,,,,7,,64,72
1980,note_on,,1,0,11,,,,,,,,,,,,,,,,10,,67,72
1980,note_on,,1,0,12,,,,,,,,,,,,,,,,11,,64,72
1980,note_on,,1,0,5,,,,,,,,,,,,,,,,1,,67,72
1980,note_on,,0,0,15,,,,,,,,,,,,,,,,15,,67,72
1980,note_on,,1,0,15,,,,,,,,,,,,,,,,15,,64,72
1980,note_on,,1,0,14,,,,,,,,,,,,,,,,13,,64,72
1980,note_on,,1,0,7,,,,,,,,,,,,,,,,5,,67,72
2039,note_on,,59,0,14,,,,,,,,,,,,,,,,13,,64,0
2039,note_on,,59,0,15,,,,,,,,,,,,,,,,15,,64,0
2039,note_on,,59,0,9,,,,,,,,,,,,,,,,7,,64,0
2039,note_on,,59,0,5,,,,,,,,,,,,,,,,1,,67,0
2039,note_on,,0,0,15,,,,,,,,,,,,,,,,15,,67,0
2039,note_on,,119,0,13,,,,,,,,,,,,,,,,12,,52,0
2039,note_on,,59,0,7,,,,,,,,,,,,,,,,5,,67,0
2039,note_on,,59,0,12,,,,,,,,,,,,,,,,11,,64,0
2039,note_on,,59,0,11,,,,,,,,,,,,,,,,10,,67,0
2040,note_on,,1,0,7,,,,,,,,,,,,,,,,5,,70,72
2040,note_on,,1,0,14,,,,,,,,,,,,,,,,13,,62,72
2040,note_on,,1,0,5,,,,,,,,,,,,,,,,1,,70,72
2040,note_on,,1,0,15,,,,,,,,,,,,,,,,15,,62,72
2040,note_on,,1,0,12,,,,,,,,,,,,,,,,11,,62,72
2040,note_on,,0,0,15,,,,,,,,,,,,,,,,15,,65,72
2040,note_on,,0,0,15,,,,,,,,,,,,,,,,15,,70,72
2040,note_on,,1,0,9,,,,,,,,,,,,,,,,7,,62,72
2040,note_on,,1,0,11,,,,,,,,,,,,,,,,10,,70,72
2099,note_on,,59,0,7,,,,,,,,,,,,,,,,5,,70,0
2099,note_on,,59,0,12,,,,,,,,,,,,,,,,11,,62,0
2099,note_on,,59,0,9,,,,,,,,,,,,,,,,7,,62,0
2099,note_on,,0,0,15,,,,,,,,,,,,,,,,15,,70,0
2099,note_on,,59,0,5,,,,,,,,,,,,,,,,1,,70,0
2099,note_on,,59,0,15,,,,,,,,,,,,,,,,15,,62,0
2099,note_on,,59,0,14,,,,,,,,,,,,,,,,13,,62,0
2099,note_on,,59,0,11,,,,,,,,,,,,,,,,10,,70,0
2100,note_on,,1,0,12,,,,,,,,,,,,,,,,11,,60,72
2100,note_on,,1,0,5,,,,,,,,,,,,,,,,1,,69,72
2100,note_on,,1,0,7,,,,,,,,,,,,,,,,5,,69,72
2100,note_on,,1,0,9,,,,,,,,,,,,,,,,7,,60,72
2100,note_on,,1,0,14,,,,,,,,,,,,,,,,13,,60,72
2100,note_on,,1,0,15,,,,,,,,,,,,,,,,15,,60,72
2100,note_on,,1,0,11,,,,,,,,,,,,,,,,10,,69,72
2100,note_on,,0,0,15,,,,,,,,,,,,,,,,15,,69,72
2159,note_on,,59,0,9,,,,,,,,,,,,,,,,7,,60,0
2159,note_on,,59,0,14,,,,,,,,,,,,,,,,13,,60,0
2159,note_on,,59,0,5,,,,,,,,,,,,,,,,1,,69,0
2159,note_on,,0,0,15,,,,,,,,,,,,,,,,15,,69,0
2159,note_on,,0,0,15,,,,,,,,,,,,,,,,15,,60,0
2159,note_on,,59,0,11,,,,,,,,,,,,,,,,10,,69,0
2159,note_on,,59,0,15,,,,,,,,,,,,,,,,15,,65,0
2159,note_on,,59,0,7,,,,,,,,,,,,,,,,5,,69,0
2159,note_on,,59,0,12,,,,,,,,,,,,,,,,11,,60,0
2160,note_on,,1,0,12,,,,,,,,,,,,,,,,11,,58,72
2160,note_on,,0,0,15,,,,,,,,,,,,,,,,15,,74,72
2160,note_on,,1,0,11,,,,,,,,,,,,,,,,10,,74,72
2160,note_on,,1,0,14,,,,,,,,,,,,,,,,13,,58,72
2160,note_on,,1,0,5,,,,,,,,,,,,,,,,1,,74,72
2160,note_on,,1,0,9,,,,,,,,,,,,,,,,7,,58,72
2160,note_on,,1,0,7,,,,,,,,,,,,,,,,5,,74,72
2160,note_on,,1,0,15,,,,,,,,,,,,,,,,15,,58,72
2160,note_on,,0,0,15,,,,,,,,,,,,,,,,15,,65,72
2219,note_on,,0,0,15,,,,,,,,,,,,,,,,15,,74,0
2219,note_on,,59,0,5,,,,,,,,,,,,,,,,1,,74,0
2219,note_on,,59,0,9,,,,,,,,,,,,,,,,7,,58,0
2219,note_on,,59,0,11,,,,,,,,,,,,,,,,10,,74,0
2219,note_on,,59,0,7,,,,,,,,,,,,,,,,5,,74,0
2219,note_on,,59,0,14,,,,,,,,,,,,,,,,13,,58,0
2219,note_on,,59,0,15,,,,,,,,,,,,,,,,15,,58,0
2219,note_on,,59,0,12,,,,,,,,,,,,,,,,11,,58,0
2220,note_on,,1,0,5,,,,,,,,,,,,,,,,1,,72,72
2220,note_on,,1,0,11,,,,,,,,,,,,,,,,10,,72,72
2220,note_on,,1,0,7,,,,,,,,,,,,,,,,5,,72,72
2220,note_on,,1,0,15,,,,,,,,,,,,,,,,15,,57,72
2220,note_on,,0,0,15,,,,,,,,,,,,,,,,15,,72,72
2220,note_on,,1,0,12,,,,,,,,,,,,,,,,11,,57,72
2220,note_on,,1,0,9,,,,,,,,,,,,,,,,7,,57,72
2220,note_on,,1,0,14,,,,,,,,,,,,,,,,13,,57,72
2279,note_on,,59,0,12,,,,,,,,,,,,,,,,11,,57,0
2279,note_on,,59,0,11,,,,,,,,,,,,,,,,10,,72,0
2279,note_on,,59,0,5,,,,,,,,,,,,,,,,1,,72,0
2279,note_on,,59,0,9,,,,,,,,,,,,,,,,7,,57,0
2279,note_on,,59,0,7,,,,,,,,,,,,,,,,5,,72,0
2279,note_on,,59,0,15,,,,,,,,,,,,,,,,15,,65,0
2279,note_on,,0,0,15,,,,,,,,,,,,,,,,15,,72,0
2279,note_on,,0,0,15,,,,,,,,,,,,,,,,15,,57,0
2279,note_on,,59,0,14,,,,,,,,,,,,,,,,13,,57,0
2280,note_on,,1,0,11,,,,,,,,,,,,,,,,10,,76,72
2280,note_on,,1,0,7,,,,,,,,,,,,,,,,5,,76,72
2280,note_on,,0,0,15,,,,,,,,,,,,,,,,15,,64,72
2280,note_on,,1,0,14,,,,,,,,,,,,,,,,13,,55,72
2280,note_on,,1,0,9,,,,,,,,,,,,,,,,7,,55,72
2280,note_on,,1,0,5,,,,,,,,,,,,,,,,1,,76,72
2280,note_on,,1,0,12,,,,,,,,,,,,,,,,11,,55,72
2280,note_on,,1,0,15,,,,,,,,,,,,,,,,15,,55,72
2280,note_on,,0,0,15,,,,,,,,,,,,,,,,15,,70,72
2280,note_on,,0,0,15,,,,,,,,,,,,,,,,15,,58,72
2339,note_on,,59,0,15,,,,,,,,,,,,,,,,15,,55,0
2339,note_on,,0,0,15,,,,,,,,,,,,,,,,15,,70,0
2339,note_on,,0,0,15,,,,,,,,,,,,,,,,15,,64,0
2339,note_on,,0,0,15,,,,,,,,,,,,,,,,15,,58,0
2339,note_on,,59,0,7,,,,,,,,,,,,,,,,5,,76,0
2339,note_on,,59,0,5,,,,,,,,,,,,,,,,1,,76,0
2339,note_on,,59,0,9,,,,,,,,,,,,,,,,7,,55,0
2339,note_on,,59,0,14,,,,,,,,,,,,,,,,13,,55,0
2339,note_on,,59,0,11,,,,,,,,,,,,,,,,10,,76,0
2339,note_on,,59,0,12,,,,,,,,,,,,,,,,11,,55,0
2340,note_on,,1,0,7,,,,,,,,,,,,,,,,5,,77,72
2340,note_on,,0,0,15,,,,,,,,,,,,,,,,15,,60,72
2340,note_on,,0,0,15,,,,,,,,,,,,,,,,15,,65,72
2340,note_on,,1,0,15,,,,,,,,,,,,,,,,15,,53,72
2340,note_on,,1,0,9,,,,,,,,,,,,,,,,7,,53,72
2340,note_on,,1,0,14,,,,,,,,,,,,,,,,13,,53,72
2340,note_on,,0,0,15,,,,,,,,,,,,,,,,15,,69,72
2340,note_on,,1,0,5,,,,,,,,,,,,,,,,1,,77,72
2340,note_on,,1,0,11,,,,,,,,,,,,,,,,10,,77,72
2340,note_on,,1,0,12,,,,,,,,,,,,,,,,11,,65,72
2399,note_on,,59,0,12,,,,,,,,,,,,,,,,11,,65,0
2399,note_on,,59,0,7,,,,,,,,,,,,,,,,5,,77,0
2399,note_on,,0,0,15,,,,,,,,,,,,,,,,15,,60,0
2399,note_on,,59,0,14,,,,,,,,,,,,,,,,13,,53,0
2399,note_on,,59,0,11,,,,,,,,,,,,,,,,10,,77,0
2399,note_on,,0,0,15,,,,,,,,,,,,,,,,15,,65,0
2399,note_on,,0,0,15,,,,,,,,,,,,,,,,15,,69,0
2399,note_on,,59,0,9,,,,,,,,,,,,,,,,7,,53,0
2399,note_on,,59,0,15,,,,,,,,,,,,,,,,15,,53,0
2399,note_on,,59,0,5,,,,,,,,,,,,,,,,1,,77,0
2400,note_on,,1,0,15,,,,,,,,,,,,,,,,15,,52,72
2400,note_on,,0,0,15,,,,,,,,,,,,,,,,15,,67,72
2400,note_on,,1,0,5,,,,,,,,,,,,,,,,1,,79,72
2400,note_on,,0,0,15,,,,,,,,,,,,,,,,15,,60,72
2400,note_on,,1,0,12,,,,,,,,,,,,,,,,11,,60,72
2400,note_on,,0,0,15,,,,,,,,,,,,,,,,15,,55,72
2400,note_on,,1,0,9,,,,,,,,,,,,,,,,7,,52,72
2400,note_on,,1,0,11,,,,,,,,,,,,,,,,10,,79,72
2400,note_on,,1,0,7,,,,,,,,,,,,,,,,5,,79,72
2400,note_on,,1,0,14,,,,,,,,,,,,,,,,13,,52,72
2459,note_on,,59,0,14,,,,,,,,,,,,,,,,13,,52,0
2459,note_on,,59,0,15,,,,,,,,,,,,,,,,15,,52,0
2459,note_on,,0,0,15,,,,,,,,,,,,,,,,15,,67,0
2460,note_on,,0,0,15,,,,,,,,,,,,,,,,15,,64,72
2460,note_on,,901,0,6,,,,,,,,,,,,,,,,2,,48,72
2460,note_on,,1,0,14,,,,,,,,,,,,,,,,13,,48,72
2460,note_on,,1,0,15,,,,,,,,,,,,,,,,15,,48,72
2519,note_on,,0,0,15,,,,,,,,,,,,,,,,15,,64,0
2519,note_on,,119,0,11,,,,,,,,,,,,,,,,10,,79,0
2519,note_on,,119,0,7,,,,,,,,,,,,,,,,5,,79,0
2519,note_on,,59,0,6,,,,,,,,,,,,,,,,2,,48,0
2519,note_on,,119,0,12,,,,,,,,,,,,,,,,11,,60,0
2519,note_on,,119,0,9,,,,,,,,,,,,,,,,7,,52,0
2519,note_on,,59,0,14,,,,,,,,,,,,,,,,13,,48,0
2519,note_on,,119,0,5,,,,,,,,,,,,,,,,1,,79,0
2519,note_on,,59,0,15,,,,,,,,,,,,,,,,15,,48,0
2520,note_on,,0,0,15,,,,,,,,,,,,,,,,15,,67,72
2520,note_on,,1,0,15,,,,,,,,,,,,,,,,15,,52,72
2520,note_on,,1,0,6,,,,,,,,,,,,,,,,2,,52,72
2520,note_on,,1,0,14,,,,,,,,,,,,,,,,13,,52,72
2579,note_on,,0,0,15,,,,,,,,,,,,,,,,15,,55,0
2579,note_on,,59,0,15,,,,,,,,,,,,,,,,15,,60,0
2579,note_on,,0,0,15,,,,,,,,,,,,,,,,15,,67,0
2579,note_on,,0,0,15,,,,,,,,,,,,,,,,15,,52,0
2579,note_on,,59,0,6,,,,,,,,,,,,,,,,2,,52,0
2579,note_on,,59,0,14,,,,,,,,,,,,,,,,13,,52,0
2580,note_on,,1021,0,10,,,,,,,,,,,,,,,,8,,60,72
2580,note_on,,61,0,7,,,,,,,,,,,,,,,,5,,67,72
2580,note_on,,61,0,9,,,,,,,,,,,,,,,,7,,60,72
2580,note_on,,1021,0,8,,,,,,,,,,,,,,,,6,,64,72
2580,note_on,,0,0,15,,,,,,,,,,,,,,,,15,,67,72
2580,note_on,,1,0,6,,,,,,,,,,,,,,,,2,,48,72
2580,note_on,,1,0,15,,,,,,,,,,,,,,,,15,,48,72
2580,note_on,,1,0,14,,,,,,,,,,,,,,,,13,,48,72
2580,note_on,,0,0,15,,,,,,,,,,,,,,,,15,,64,72
2580,note_on,,61,0,5,,,,,,,,,,,,,,,,1,,67,72
2580,note_on,,0,0,15,,,,,,,,,,,,,,,,15,,72,72
2639,note_on,,59,0,15,,,,,,,,,,,,,,,,15,,48,0
2639,note_on,,0,0,15,,,,,,,,,,,,,,,,15,,72,0
2639,note_on,,0,0,15,,,,,,,,,,,,,,,,15,,67,0
2639,note_on,,0,0,15,,,,,,,,,,,,,,,,15,,64,0
2639,note_on,,59,0,9,,,,,,,,,,,,,,,,7,,60,0
2639,note_on,,59,0,5,,,,,,,,,,,,,,,,1,,67,0
2639,note_on,,59,0,10,,,,,,,,,,,,,,,,8,,60,0
2639,note_on,,59,0,14,,,,,,,,,,,,,,,,13,,48,0
2639,note_on,,59,0,8,,,,,,,,,,,,,,,,6,,64,0
2639,note_on,,59,0,6,,,,,,,,,,,,,,,,2,,48,0
2639,note_on,,59,0,7,,,,,,,,,,,,,,,,5,,67,0
2640,note_on,,1,0,15,,,,,,,,,,,,,,,,15,,57,72
2640,note_on,,1,0,5,,,,,,,,,,,,,,,,1,,72,72
2640,note_on,,0,0,15,,,,,,,,,,,,,,,,15,,65,72
2640,note_on,,0,0,15,,,,,,,,,,,,,,,,15,,60,72
2640,note_on,,0,0,15,,,,,,,,,,,,,,,,15,,72,72
2640,note_on,,1,0,9,,,,,,,,,,,,,,,,7,,60,72
2640,note_on,,1,0,14,,,,,,,,,,,,,,,,13,,57,72
2640,note_on,,1,0,8,,,,,,,,,,,,,,,,6,,65,72
2640,note_on,,1,0,7,,,,,,,,,,,,,,,,5,,72,72
2640,note_on,,1,0,6,,,,,,,,,,,,,,,,2,,57,72
2640,note_on,,1,0,10,,,,,,,,,,,,,,,,8,,57,72
2699,note_on,,59,0,6,,,,,,,,,,,,,,,,2,,57,0
2699,note_on,,59,0,15,,,,,,,,,,,,,,,,15,,57,0
2699,note_on,,0,0,15,,,,,,,,,,,,,,,,15,,65,0
2699,note_on,,59,0,14,,,,,,,,,,,,,,,,13,,57,0
2700,note_on,,1,0,6,,,,,,,,,,,,,,,,2,,53,72
2700,note_on,,0,0,15,,,,,,,,,,,,,,,,15,,69,72
2700,note_on,,1,0,15,,,,,,,,,,,,,,,,15,,53,72
2700,note_on,,1,0,14,,,,,,,,,,,,,,,,13,,53,72
2759,note_on,,0,0,15,,,,,,,,,,,,,,,,15,,69,0
2759,note_on,,0,0,15,,,,,,,,,,,,,,,,15,,53,0
2759,note_on,,119,0,5,,,,,,,,,,,,,,,,1,,72,0
2759,note_on,,59,0,15,,,,,,,,,,,,,,,,15,,72,0
2759,note_on,,59,0,6,,,,,,,,,,,,,,,,2,,53,0
2759,note_on,,119,0,8,,,,,,,,,,,,,,,,6,,65,0
2759,note_on,,0,0,15,,,,,,,,,,,,,,,,15,,60,0
2759,note_on,,119,0,7,,,,,,,,,,,,,,,,5,,72,0
2759,note_on,,59,0,14,,,,,,,,,,,,,,,,13,,53,0
2759,note_on,,119,0,10,,,,,,,,,,,,,,,,8,,57,0
2759,note_on,,119,0,9,,,,,,,,,,,,,,,,7,,60,0
2760,note_on,,1,0,10,,,,,,,,,,,,,,,,8,,53,72
2760,note_on,,1,0,15,,,,,,,,,,,,,,,,15,,57,72
2760,note_on,,0,0,15,,,,,,,,,,,,,,,,15,,72,72
2760,note_on,,0,0,15,,,,,,,,,,,,,,,,15,,60,72
2760,note_on,,1,0,5,,,,,,,,,,,,,,,,1,,69,72
2760,note_on,,1,0,9,,,,,,,,,,,,,,,,7,,60,72
2760,note_on,,0,0,15,,,,,,,,,,,,,,,,15,,65,72
2760,note_on,,1,0,6,,,,,,,,,,,,,,,,2,,57,72
2760,note_on,,1,0,14,,,,,,,,,,,,,,,,13,,57,72
2760,note_on,,1,0,8,,,,,,,,,,,,,,,,6,,65,72
2760,note_on,,1,0,7,,,,,,,,,,,,,,,,5,,69,72
2819,note_on,,59,0,15,,,,,,,,,,,,,,,,15,,57,0
2819,note_on,,59,0,14,,,,,,,,,,,,,,,,13,,57,0
2819,note_on,,0,0,15,,,,,,,,,,,,,,,,15,,65,0
2819,note_on,,59,0,6,,,,,,,,,,,,,,,,2,,57,0
2820,note_on,,1,0,14,,,,,,,,,,,,,,,,13,,53,72
2820,note_on,,0,0,15,,,,,,,,,,,,,,,,15,,69,72
2820,note_on,,1,0,15,,,,,,,,,,,,,,,,15,,53,72
2820,note_on,,1,0,6,,,,,,,,,,,,,,,,2,,53,72
2879,note_on,,0,0,15,,,,,,,,,,,,,,,,15,,69,0
2879,note_on,,0,0,15,,,,,,,,,,,,,,,,15,,53,0
2879,note_on,,0,0,15,,,,,,,,,,,,,,,,15,,60,0
2879,note_on,,59,0,15,,,,,,,,,,,,,,,,15,,72,0
2879,note_on,,59,0,14,,,,,,,,,,,,,,,,13,,53,0
2879,note_on,,119,0,7,,,,,,,,,,,,,,,,5,,69,0
2879,note_on,,119,0,5,,,,,,,,,,,,,,,,1,,69,0
2879,note_on,,59,0,6,,,,,,,,,,,,,,,,2,,53,0
2879,note_on,,119,0,8,,,,,,,,,,,,,,,,6,,65,0
2879,note_on,,119,0,9,,,,,,,,,,,,,,,,7,,60,0
2879,note_on,,119,0,10,,,,,,,,,,,,,,,,8,,53,0
2880,note_on,,1,0,10,,,,,,,,,,,,,,,,8,,60,72
2880,note_on,,1,0,6,,,,,,,,,,,,,,,,2,,60,72
2880,note_on,,1,0,8,,,,,,,,,,,,,,,,6,,64,72
2880,note_on,,1,0,5,,,,,,,,,,,,,,,,1,,67,72
2880,note_on,,1,0,7,,,,,,,,,,,,,,,,5,,67,72
2880,note_on,,1,0,15,,,,,,,,,,,,,,,,15,,60,72
2880,note_on,,0,0,15,,,,,,,,,,,,,,,,15,,72,72
2880,note_on,,0,0,15,,,,,,,,,,,,,,,,15,,64,72
2880,note_on,,0,0,15,,,,,,,,,,,,,,,,15,,67,72
2880,note_on,,1,0,14,,,,,,,,,,,,,,,,13,,60,72
2880,note_on,,1,0,9,,,,,,,,,,,,,,,,7,,60,72
2939,note_on,,0,0,15,,,,,,,,,,,,,,,,15,,64,0
2939,note_on,,59,0,15,,,,,,,,,,,,,,,,15,,60,0
2939,note_on,,59,0,14,,,,,,,,,,,,,,,,13,,60,0
2939,note_on,,59,0,6,,,,,,,,,,,,,,,,2,,60,0
2940,note_on,,0,0,15,,,,,,,,,,,,,,,,15,,64,72
2940,note_on,,1,0,6,,,,,,,,,,,,,,,,2,,48,72
2940,note_on,,1,0,15,,,,,,,,,,,,,,,,15,,48,72
2940,note_on,,1,0,14,,,,,,,,,,,,,,,,13,,48,72
2999,note_on,,119,0,10,,,,,,,,,,,,,,,,8,,60,0
2999,note_on,,119,0,8,,,,,,,,,,,,,,,,6,,64,0
2999,note_on,,59,0,14,,,,,,,,,,,,,,,,13,,48,0
2999,note_on,,119,0,5,,,,,,,,,,,,,,,,1,,67,0
2999,note_on,,59,0,15,,,,,,,,,,,,,,,,15,,48,0
2999,note_on,,119,0,7,,,,,,,,,,,,,,,,5,,67,0
2999,note_on,,119,0,9,,,,,,,,,,,,,,,,7,,60,0
2999,note_on,,59,0,6,,,,,,,,,,,,,,,,2,,48,0
2999,note_on,,0,0,15,,,,,,,,,,,,,,,,15,,64,0
3000,note_on,,1,0,6,,,,,,,,,,,,,,,,2,,52,72
3000,note_on,,0,0,15,,,,,,,,,,,,,,,,15,,67,72
3000,note_on,,1,0,15,,,,,,,,,,,,,,,,15,,52,72
3000,note_on,,1,0,14,,,,,,,,,,,,,,,,13,,52,72
3059,note_on,,0,0,15,,,,,,,,,,,,,,,,15,,52,0
3059,note_on,,0,0,15,,,,,,,,,,,,,,,,15,,67,0
3059,note_on,,59,0,14,,,,,,,,,,,,,,,,13,,52,0
3059,note_on,,0,0,15,,,,,,,,,,,,,,,,15,,67,0
3059,note_on,,59,0,15,,,,,,,,,,,,,,,,15,,72,0
3059,note_on,,59,0,6,,,,,,,,,,,,,,,,2,,52,0
3060,note_on,,541,0,12,,,,,,,,,,,,,,,,11,,76,72
3060,note_on,,1021,0,13,,,,,,,,,,,,,,,,12,,72,72
3060,note_on,,1,0,14,,,,,,,,,,,,,,,,13,,48,72
3060,note_on,,1,0,6,,,,,,,,,,,,,,,,2,,48,72
3060,note_on,,541,0,11,,,,,,,,,,,,,,,,10,,79,72
3060,note_on,,0,0,15,,,,,,,,,,,,,,,,15,,72,72
3060,note_on,,0,0,15,,,,,,,,,,,,,,,,15,,67,72
3060,note_on,,0,0,15,,,,,,,,,,,,,,,,15,,64,72
3060,note_on,,1,0,15,,,,,,,,,,,,,,,,15,,48,72
3119,note_on,,0,0,15,,,,,,,,,,,,,,,,15,,67,0
3119,note_on,,0,0,15,,,,,,,,,,,,,,,,15,,72,0
3119,note_on,,59,0,12,,,,,,,,,,,,,,,,11,,76,0
3119,note_on,,0,0,15,,,,,,,,,,,,,,,,15,,64,0
3119,note_on,,59,0,15,,,,,,,,,,,,,,,,15,,48,0
3119,note_on,,59,0,11,,,,,,,,,,,,,,,,10,,79,0
3119,note_on,,59,0,13,,,,,,,,,,,,,,,,12,,72,0
3119,note_on,,59,0,6,,,,,,,,,,,,,,,,2,,48,0
3119,note_on,,59,0,14,,,,,,,,,,,,,,,,13,,48,0
3120,note_on,,1,0,13,,,,,,,,,,,,,,,,12,,72,72
3120,note_on,,0,0,15,,,,,,,,,,,,,,,,15,,60,72
3120,note_on,,0,0,15,,,,,,,,,,,,,,,,15,,67,72
3120,note_on,,1,0,11,,,,,,,,,,,,,,,,10,,84,72
3120,note_on,,1,0,15,,,,,,,,,,,,,,,,15,,52,72
3120,note_on,,1,0,12,,,,,,,,,,,,,,,,11,,79,72
3120,note_on,,0,0,15,,,,,,,,,,,,,,,,15,,72,72
3120,note_on,,1,0,6,,,,,,,,,,,,,,,,2,,52,72
3120,note_on,,1,0,14,,,,,,,,,,,,,,,,13,,52,72
3179,note_on,,59,0,14,,,,,,,,,,,,,,,,13,,52,0
3179,note_on,,59,0,6,,,,,,,,,,,,,,,,2,,52,0
3179,note_on,,59,0,15,,,,,,,,,,,,,,,,15,,52,0
3179,note_on,,0,0,15,,,,,,,,,,,,,,,,15,,60,0
3180,note_on,,1,0,14,,,,,,,,,,,,,,,,13,,48,72
3180,note_on,,1,0,6,,,,,,,,,,,,,,,,2,,48,72
3180,note_on,,0,0,15,,,,,,,,,,,,,,,,15,,64,72
3180,note_on,,1,0,15,,,,,,,,,,,,,,,,15,,48,72
3239,note_on,,0,0,15,,,,,,,,,,,,,,,,15,,67,0
3239,note_on,,0,0,15,,,,,,,,,,,,,,,,15,,48,0
3239,note_on,,59,0,6,,,,,,,,,,,,,,,,2,,48,0
3239,note_on,,119,0,13,,,,,,,,,,,,,,,,12,,72,0
3239,note_on,,0,0,15,,,,,,,,,,,,,,,,15,,64,0
3239,note_on,,59,0,15,,,,,,,,,,,,,,,,15,,72,0
3239,note_on,,119,0,11,,,,,,,,,,,,,,,,10,,84,0
3239,note_on,,59,0,14,,,,,,,,,,,,,,,,13,,48,0
3239,note_on,,119,0,12,,,,,,,,,,,,,,,,11,,79,0
3240,note_on,,1,0,13,,,,,,,,,,,,,,,,12,,72,72
3240,note_on,,0,0,15,,,,,,,,,,,,,,,,15,,69,72
3240,note_on,,0,0,15,,,,,,,,,,,,,,,,15,,60,72
3240,note_on,,0,0,15,,,,,,,,,,,,,,,,15,,53,72
3240,note_on,,1,0,15,,,,,,,,,,,,,,,,15,,72,72
3240,note_on,,1,0,11,,,,,,,,,,,,,,,,10,,81,72
3240,note_on,,1,0,14,,,,,,,,,,,,,,,,13,,53,72
3240,note_on,,1,0,12,,,,,,,,,,,,,,,,11,,77,72
3240,note_on,,1,0,6,,,,,,,,,,,,,,,,2,,53,72
3299,note_on,,59,0,14,,,,,,,,,,,,,,,,13,,53,0
3299,note_on,,59,0,6,,,,,,,,,,,,,,,,2,,53,0
3299,note_on,,59,0,15,,,,,,,,,,,,,,,,15,,53,0
3299,note_on,,0,0,15,,,,,,,,,,,,,,,,15,,69,0
3300,note_on,,1,0,15,,,,,,,,,,,,,,,,15,,48,72
3300,note_on,,1,0,6,,,,,,,,,,,,,,,,2,,48,72
3300,note_on,,1,0,14,,,,,,,,,,,,,,,,13,,48,72
3300,note_on,,0,0,15,,,,,,,,,,,,,,,,15,,65,72
3359,note_on,,59,0,6,,,,,,,,,,,,,,,,2,,48,0
3359,note_on,,59,0,14,,,,,,,,,,,,,,,,13,,48,0
3359,note_on,,119,0,13,,,,,,,,,,,,,,,,12,,72,0
3359,note_on,,119,0,11,,,,,,,,,,,,,,,,10,,81,0
3359,note_on,,0,0,15,,,,,,,,,,,,,,,,15,,60,0
3359,note_on,,59,0,15,,,,,,,,,,,,,,,,15,,72,0
3359,note_on,,119,0,12,,,,,,,,,,,,,,,,11,,77,0
3359,note_on,,0,0,15,,,,,,,,,,,,,,,,15,,65,0
3359,note_on,,0,0,15,,,,,,,,,,,,,,,,15,,48,0
3360,note_on,,1,0,15,,,,,,,,,,,,,,,,15,,52,72
3360,note_on,,1,0,6,,,,,,,,,,,,,,,,2,,52,72
3360,note_on,,1,0,11,,,,,,,,,,,,,,,,10,,79,72
3360,note_on,,1,0,14,,,,,,,,,,,,,,,,13,,52,72
3360,note_on,,1,0,13,,,,,,,,,,,,,,,,12,,72,72
3360,note_on,,0,0,15,,,,,,,,,,,,,,,,15,,60,72
3360,note_on,,0,0,15,,,,,,,,,,,,,,,,15,,67,72
3360,note_on,,1,0,12,,,,,,,,,,,,,,,,11,,76,72
3360,note_on,,0,0,15,,,,,,,,,,,,,,,,15,,72,72
3419,note_on,,0,0,15,,,,,,,,,,,,,,,,15,,60,0
3419,note_on,,59,0,6,,,,,,,,,,,,,,,,2,,52,0
3419,note_on,,59,0,15,,,,,,,,,,,,,,,,15,,52,0
3419,note_on,,59,0,14,,,,,,,,,,,,,,,,13,,52,0
3420,note_on,,1,0,15,,,,,,,,,,,,,,,,15,,48,72
3420,note_on,,1,0,6,,,,,,,,,,,,,,,,2,,48,72
3420,note_on,,1,0,14,,,,,,,,,,,,,,,,13,,48,72
3420,note_on,,0,0,15,,,,,,,,,,,,,,,,15,,64,72
3479,note_on,,59,0,15,,,,,,,,,,,,,,,,15,,48,0
3479,note_on,,59,0,6,,,,,,,,,,,,,,,,2,,48,0
3479,note_on,,0,0,15,,,,,,,,,,,,,,,,15,,64,0
3479,note_on,,119,0,11,,,,,,,,,,,,,,,,10,,79,0
3479,note_on,,119,0,13,,,,,,,,,,,,,,,,12,,72,0
3479,note_on,,119,0,12,,,,,,,,,,,,,,,,11,,76,0
3479,note_on,,59,0,14,,,,,,,,,,,,,,,,13,,48,0
3480,note_on,,0,0,15,,,,,,,,,,,,,,,,15,,67,72
3480,note_on,,1,0,6,,,,,,,,,,,,,,,,2,,52,72
3480,note_on,,1,0,14,,,,,,,,,,,,,,,,13,,52,72
3480,note_on,,1,0,15,,,,,,,,,,,,,,,,15,,52,72
3539,note_on,,0,0,15,,,,,,,,,,,,,,,,15,,52,0
3539,note_on,,59,0,15,,,,,,,,,,,,,,,,15,,72,0
3539,note_on,,0,0,15,,,,,,,,,,,,,,,,15,,67,0
3539,note_on,,0,0,15,,,,,,,,,,,,,,,,15,,67,0
3539,note_on,,59,0,14,,,,,,,,,,,,,,,,13,,52,0
3539,note_on,,59,0,6,,,,,,,,,,,,,,,,2,,52,0
3540,note_on,,541,0,8,,,,,,,,,,,,,,,,6,,67,72
3540,note_on,,541,0,9,,,,,,,,,,,,,,,,7,,60,72
3540,note_on,,541,0,10,,,,,,,,,,,,,,,,8,,60,72
3540,note_on,,61,0,12,,,,,,,,,,,,,,,,11,,67,72
3540,note_on,,0,0,15,,,,,,,,,,,,,,,,15,,67,72
3540,note_on,,541,0,5,,,,,,,,,,,,,,,,1,,72,72
3540,note_on,,1,0,14,,,,,,,,,,,,,,,,13,,48,72
3540,note_on,,61,0,13,,,,,,,,,,,,,,,,12,,64,72
3540,note_on,,1,0,6,,,,,,,,,,,,,,,,2,,48,72
3540,note_on,,0,0,15,,,,,,,,,,,,,,,,15,,72,72
3540,note_on,,0,0,15,,,,,,,,,,,,,,,,15,,64,72
3540,note_on,,1,0,15,,,,,,,,,,,,,,,,15,,48,72
3540,note_on,,541,0,7,,,,,,,,,,,,,,,,5,,72,72
3540,note_on,,61,0,11,,,,,,,,,,,,,,,,10,,72,72
3599,note_on,,59,0,5,,,,,,,,,,,,,,,,1,,72,0
3599,note_on,,59,0,13,,,,,,,,,,,,,,,,12,,64,0
3599,note_on,,59,0,14,,,,,,,,,,,,,,,,13,,48,0
3599,note_on,,59,0,6,,,,,,,,,,,,,,,,2,,48,0
3599,note_on,,59,0,7,,,,,,,,,,,,,,,,5,,72,0
3599,note_on,,59,0,12,,,,,,,,,,,,,,,,11,,67,0
3599,note_on,,59,0,10,,,,,,,,,,,,,,,,8,,60,0
3599,note_on,,59,0,9,,,,,,,,,,,,,,,,7,,60,0
3599,note_on,,0,0,15,,,,,,,,,,,,,,,,15,,72,0
3599,note_on,,59,0,8,,,,,,,,,,,,,,,,6,,67,0
3599,note_on,,59,0,15,,,,,,,,,,,,,,,,15,,48,0
3599,note_on,,0,0,15,,,,,,,,,,,,,,,,15,,64,0
3599,note_on,,0,0,15,,,,,,,,,,,,,,,,15,,67,0
3599,note_on,,59,0,11,,,,,,,,,,,,,,,,10,,72,0
3600,note_on,,1,0,7,,,,,,,,,,,,,,,,5,,77,72
3600,note_on,,1,0,5,,,,,,,,,,,,,,,,1,,77,72
3600,note_on,,1,0,14,,,,,,,,,,,,,,,,13,,57,72
3600,note_on,,1,0,6,,,,,,,,,,,,,,,,2,,57,72
3600,note_on,,1,0,13,,,,,,,,,,,,,,,,12,,65,72
3600,note_on,,1,0,15,,,,,,,,,,,,,,,,15,,57,72
3600,note_on,,1,0,10,,,,,,,,,,,,,,,,8,,57,72
3600,note_on,,1,0,8,,,,,,,,,,,,,,,,6,,65,72
3600,note_on,,0,0,15,,,,,,,,,,,,,,,,15,,65,72
3600,note_on,,1,0,9,,,,,,,,,,,,,,,,7,,60,72
3600,note_on,,0,0,15,,,,,,,,,,,,,,,,15,,65,72
3600,note_on,,1,0,12,,,,,,,,,,,,,,,,11,,72,72
3600,note_on,,0,0,15,,,,,,,,,,,,,,,,15,,72,72
3600,note_on,,1,0,11,,,,,,,,,,,,,,,,10,,77,72
3659,note_on,,59,0,15,,,,,,,,,,,,,,,,15,,57,0
3659,note_on,,59,0,14,,,,,,,,,,,,,,,,13,,57,0
3659,note_on,,59,0,6,,,,,,,,,,,,,,,,2,,57,0
3659,note_on,,0,0,15,,,,,,,,,,,,,,,,15,,65,0
3660,note_on,,1,0,14,,,,,,,,,,,,,,,,13,,53,72
3660,note_on,,0,0,15,,,,,,,,,,,,,,,,15,,69,72
3660,note_on,,1,0,15,,,,,,,,,,,,,,,,15,,53,72
3660,note_on,,1,0,6,,,,,,,,,,,,,,,,2,,53,72
3719,note_on,,59,0,14,,,,,,,,,,,,,,,,13,,53,0
3719,note_on,,119,0,12,,,,,,,,,,,,,,,,11,,72,0
3719,note_on,,119,0,10,,,,,,,,,,,,,,,,8,,57,0
3719,note_on,,119,0,5,,,,,,,,,,,,,,,,1,,77,0
3719,note_on,,59,0,15,,,,,,,,,,,,,,,,15,,72,0
3719,note_on,,0,0,15,,,,,,,,,,,,,,,,15,,65,0
3719,note_on,,0,0,15,,,,,,,,,,,,,,,,15,,53,0
3719,note_on,,119,0,11,,,,,,,,,,,,,,,,10,,77,0
3719,note_on,,0,0,15,,,,,,,,,,,,,,,,15,,69,0
3719,note_on,,119,0,8,,,,,,,,,,,,,,,,6,,65,0
3719,note_on,,119,0,9,,,,,,,,,,,,,,,,7,,60,0
3719,note_on,,119,0,7,,,,,,,,,,,,,,,,5,,77,0
3719,note_on,,119,0,13,,,,,,,,,,,,,,,,12,,65,0
3719,note_on,,59,0,6,,,,,,,,,,,,,,,,2,,53,0
3720,note_on,,1,0,7,,,,,,,,,,,,,,,,5,,74,72
3720,note_on,,1,0,14,,,,,,,,,,,,,,,,13,,58,72
3720,note_on,,1,0,13,,,,,,,,,,,,,,,,12,,65,72
3720,note_on,,0,0,15,,,,,,,,,,,,,,,,15,,74,72
3720,note_on,,1,0,6,,,,,,,,,,,,,,,,2,,58,72
3720,note_on,,1,0,5,,,,,,,,,,,,,,,,1,,74,72
3720,note_on,,1,0,9,,,,,,,,,,,,,,,,7,,62,72
3720,note_on,,1,0,12,,,,,,,,,,,,,,,,11,,70,72
3720,note_on,,1,0,10,,,,,,,,,,,,,,,,8,,58,72
3720,note_on,,0,0,15,,,,,,,,,,,,,,,,15,,65,72
3720,note_on,,0,0,15,,,,,,,,,,,,,,,,15,,65,72
3720,note_on,,1,0,15,,,,,,,,,,,,,,,,15,,58,72
3720,note_on,,1,0,8,,,,,,,,,,,,,,,,6,,65,72
3720,note_on,,1,0,11,,,,,,,,,,,,,,,,10,,74,72
3779,note_on,,59,0,15,,,,,,,,,,,,,,,,15,,58,0
3779,note_on,,59,0,6,,,,,,,,,,,,,,,,2,,58,0
3779,note_on,,59,0,9,,,,,,,,,,,,,,,,7,,62,0
3779,note_on,,59,0,14,,,,,,,,,,,,,,,,13,,58,0
3779,note_on,,0,0,15,,,,,,,,,,,,,,,,15,,65,0
3780,note_on,,1,0,9,,,,,,,,,,,,,,,,7,,64,72
3780,note_on,,0,0,15,,,,,,,,,,,,,,,,15,,70,72
3780,note_on,,1,0,15,,,,,,,,,,,,,,,,15,,53,72
3780,note_on,,1,0,14,,,,,,,,,,,,,,,,13,,53,72
3780,note_on,,1,0,6,,,,,,,,,,,,,,,,2,,53,72
3839,note_on,,119,0,12,,,,,,,,,,,,,,,,11,,70,0
3839,note_on,,0,0,15,,,,,,,,,,,,,,,,15,,65,0
3839,note_on,,119,0,13,,,,,,,,,,,,,,,,12,,65,0
3839,note_on,,59,0,15,,,,,,,,,,,,,,,,15,,74,0
3839,note_on,,119,0,11,,,,,,,,,,,,,,,,10,,74,0
3839,note_on,,119,0,7,,,,,,,,,,,,,,,,5,,74,0
3839,note_on,,59,0,14,,,,,,,,,,,,,,,,13,,53,0
3839,note_on,,0,0,15,,,,,,,,,,,,,,,,15,,53,0
3839,note_on,,0,0,15,,,,,,,,,,,,,,,,15,,70,0
3839,note_on,,59,0,6,,,,,,,,,,,,,,,,2,,53,0
3839,note_on,,119,0,10,,,,,,,,,,,,,,,,8,,58,0
3839,note_on,,119,0,8,,,,,,,,,,,,,,,,6,,65,0
3839,note_on,,59,0,9,,,,,,,,,,,,,,,,7,,64,0
3839,note_on,,119,0,5,,,,,,,,,,,,,,,,1,,74,0
3840,note_on,,1,0,15,,,,,,,,,,,,,,,,15,,57,72
3840,note_on,,0,0,15,,,,,,,,,,,,,,,,15,,72,72
3840,note_on,,1,0,6,,,,,,,,,,,,,,,,2,,57,72
3840,note_on,,1,0,14,,,,,,,,,,,,,,,,13,,57,72
3840,note_on,,1,0,11,,,,,,,,,,,,,,,,10,,72,72
3840,note_on,,1,0,12,,,,,,,,,,,,,,,,11,,69,72
3840,note_on,,1,0,8,,,,,,,,,,,,,,,,6,,69,72
3840,note_on,,1,0,9,,,,,,,,,,,,,,,,7,,65,72
3840,note_on,,1,0,5,,,,,,,,,,,,,,,,1,,72,72
3840,note_on,,0,0,15,,,,,,,,,,,,,,,,15,,65,72
3840,note_on,,0,0,15,,,,,,,,,,,,,,,,15,,65,72
3840,note_on,,1,0,7,,,,,,,,,,,,,,,,5,,72,72
3840,note_on,,1,0,13,,,,,,,,,,,,,,,,12,,65,72
3840,note_on,,1,0,10,,,,,,,,,,,,,,,,8,,53,72
3899,note_on,,0,0,15,,,,,,,,,,,,,,,,15,,65,0
3899,note_on,,59,0,6,,,,,,,,,,,,,,,,2,,57,0
3899,note_on,,59,0,15,,,,,,,,,,,,,,,,15,,57,0
3899,note_on,,59,0,14,,,,,,,,,,,,,,,,13,,57,0
3900,note_on,,1,0,14,,,,,,,,,,,,,,,,13,,53,72
3900,note_on,,1,0,6,,,,,,,,,,,,,,,,2,,53,72
3900,note_on,,0,0,15,,,,,,,,,,,,,,,,15,,60,72
3900,note_on,,1,0,15,,,,,,,,,,,,,,,,15,,53,72
3959,note_on,,119,0,8,,,,,,,,,,,,,,,,6,,69,0
3959,note_on,,119,0,12,,,,,,,,,,,,,,,,11,,69,0
3959,note_on,,119,0,10,,,,,,,,,,,,,,,,8,,53,0
3959,note_on,,119,0,7,,,,,,,,,,,,,,,,5,,72,0
3959,note_on,,59,0,14,,,,,,,,,,,,,,,,13,,53,0
3959,note_on,,119,0,9,,,,,,,,,,,,,,,,7,,65,0
3959,note_on,,119,0,13,,,,,,,,,,,,,,,,12,,65,0
3959,note_on,,0,0,15,,,,,,,,,,,,,,,,15,,60,0
3959,note_on,,59,0,6,,,,,,,,,,,,,,,,2,,53,0
3959,note_on,,0,0,15,,,,,,,,,,,,,,,,15,,53,0
3959,note_on,,0,0,15,,,,,,,,,,,,,,,,15,,65,0
3959,note_on,,59,0,15,,,,,,,,,,,,,,,,15,,72,0
3959,note_on,,119,0,11,,,,,,,,,,,,,,,,10,,72,0
3959,note_on,,119,0,5,,,,,,,,,,,,,,,,1,,72,0
3960,note_on,,0,0,15,,,,,,,,,,,,,,,,15,,65,72
3960,note_on,,1,0,15,,,,,,,,,,,,,,,,15,,57,72
3960,note_on,,1,0,6,,,,,,,,,,,,,,,,2,,57,72
3960,note_on,,1,0,14,,,,,,,,,,,,,,,,13,,57,72
4019,note_on,,0,0,15,,,,,,,,,,,,,,,,15,,65,0
4019,note_on,,59,0,15,,,,,,,,,,,,,,,,15,,57,0
4019,note_on,,59,0,6,,,,,,,,,,,,,,,,2,,57,0
4019,note_on,,59,0,14,,,,,,,,,,,,,,,,13,,57,0
4020,note_on,,61,0,12,,,,,,,,,,,,,,,,11,,60,72
4020,note_on,,61,0,8,,,,,,,,,,,,,,,,6,,60,72
4020,note_on,,0,0,15,,,,,,,,,,,,,,,,15,,64,72
4020,note_on,,0,0,15,,,,,,,,,,,,,,,,15,,60,72
4020,note_on,,1,0,15,,,,,,,,,,,,,,,,15,,53,72
4020,note_on,,1,0,6,,,,,,,,,,,,,,,,2,,53,72
4020,note_on,,1,0,14,,,,,,,,,,,,,,,,13,,53,72
4020,note_on,,61,0,10,,,,,,,,,,,,,,,,8,,53,72
4079,note_on,,59,0,15,,,,,,,,,,,,,,,,15,,53,0
4079,note_on,,59,0,8,,,,,,,,,,,,,,,,6,,60,0
4079,note_on,,0,0,15,,,,,,,,,,,,,,,,15,,64,0
4079,note_on,,0,0,15,,,,,,,,,,,,,,,,15,,60,0
4079,note_on,,59,0,10,,,,,,,,,,,,,,,,8,,53,0
4079,note_on,,59,0,12,,,,,,,,,,,,,,,,11,,60,0
4079,note_on,,59,0,14,,,,,,,,,,,,,,,,13,,53,0
4079,note_on,,59,0,6,,,,,,,,,,,,,,,,2,,53,0
4080,note_on,,1,0,12,,,,,,,,,,,,,,,,11,,62,72
4080,note_on,,1,0,10,,,,,,,,,,,,,,,,8,,46,72
4080,note_on,,1,0,14,,,,,,,,,,,,,,,,13,,46,72
4080,note_on,,1,0,15,,,,,,,,,,,,,,,,15,,46,72
4080,note_on,,1,0,8,,,,,,,,,,,,,,,,6,,62,72
4080,note_on,,0,0,15,,,,,,,,,,,,,,,,15,,53,72
4080,note_on,,0,0,15,,,,,,,,,,,,,,,,15,,62,72
4080,note_on,,1,0,6,,,,,,,,,,,,,,,,2,,46,72
4139,note_on,,59,0,6,,,,,,,,,,,,,,,,2,,46,0
4139,note_on,,59,0,14,,,,,,,,,,,,,,,,13,,46,0
4139,note_on,,59,0,12,,,,,,,,,,,,,,,,11,,62,0
4139,note_on,,59,0,15,,,,,,,,,,,,,,,,15,,46,0
4139,note_on,,0,0,15,,,,,,,,,,,,,,,,15,,62,0
4139,note_on,,59,0,10,,,,,,,,,,,,,,,,8,,46,0
4139,note_on,,59,0,8,,,,,,,,,,,,,,,,6,,62,0
4140,note_on,,1,0,14,,,,,,,,,,,,,,,,13,,45,72
4140,note_on,,1,0,6,,,,,,,,,,,,,,,,2,,45,72
4140,note_on,,1,0,10,,,,,,,,,,,,,,,,8,,45,72
4140,note_on,,1,0,8,,,,,,,,,,,,,,,,6,,60,72
4140,note_on,,1,0,15,,,,,,,,,,,,,,,,15,,45,72
4140,note_on,,1,0,12,,,,,,,,,,,,,,,,11,,60,72
4140,note_on,,0,0,15,,,,,,,,,,,,,,,,15,,60,72
4199,note_on,,59,0,15,,,,,,,,,,,,,,,,15,,53,0
4199,note_on,,59,0,10,,,,,,,,,,,,,,,,8,,45,0
4199,note_on,,59,0,8,,,,,,,,,,,,,,,,6,,60,0
4199,note_on,,0,0,15,,,,,,,,,,,,,,,,15,,45,0
4199,note_on,,0,0,15,,,,,,,,,,,,,,,,15,,60,0
4199,note_on,,59,0,6,,,,,,,,,,,,,,,,2,,45,0
4199,note_on,,59,0,14,,,,,,,,,,,,,,,,13,,45,0
4199,note_on,,59,0,12,,,,,,,,,,,,,,,,11,,60,0
4200,note_on,,0,0,15,,,,,,,,,,,,,,,,15,,65,72
4200,note_on,,1,0,14,,,,,,,,,,,,,,,,13,,50,72
4200,note_on,,1,0,6,,,,,,,,,,,,,,,,2,,50,72
4200,note_on,,1,0,10,,,,,,,,,,,,,,,,8,,50,72
4200,note_on,,1,0,12,,,,,,,,,,,,,,,,11,,65,72
4200,note_on,,1,0,15,,,,,,,,,,,,,,,,15,,50,72
4200,note_on,,1,0,8,,,,,,,,,,,,,,,,6,,65,72
4259,note_on,,59,0,6,,,,,,,,,,,,,,,,2,,50,0
4259,note_on,,59,0,8,,,,,,,,,,,,,,,,6,,65,0
4259,note_on,,59,0,10,,,,,,,,,,,,,,,,8,,50,0
4259,note_on,,59,0,14,,,,,,,,,,,,,,,,13,,50,0
4259,note_on,,0,0,15,,,,,,,,,,,,,,,,15,,65,0
4259,note_on,,59,0,15,,,,,,,,,,,,,,,,15,,50,0
4259,note_on,,59,0,12,,,,,,,,,,,,,,,,11,,65,0
4260,note_on,,1,0,6,,,,,,,,,,,,,,,,2,,48,72
4260,note_on,,1,0,12,,,,,,,,,,,,,,,,11,,64,72
4260,note_on,,1,0,8,,,,,,,,,,,,,,,,6,,64,72
4260,note_on,,1,0,14,,,,,,,,,,,,,,,,13,,48,72
4260,note_on,,0,0,15,,,,,,,,,,,,,,,,15,,60,72
4260,note_on,,0,0,15,,,,,,,,,,,,,,,,15,,64,72
4260,note_on,,1,0,15,,,,,,,,,,,,,,,,15,,48,72
4260,note_on,,1,0,10,,,,,,,,,,,,,,,,8,,48,72
4319,note_on,,0,0,15,,,,,,,,,,,,,,,,15,,60,0
4319,note_on,,59,0,6,,,,,,,,,,,,,,,,2,,48,0
4319,note_on,,59,0,12,,,,,,,,,,,,,,,,11,,64,0
4319,note_on,,0,0,15,,,,,,,,,,,,,,,,15,,64,0
4319,note_on,,59,0,15,,,,,,,,,,,,,,,,15,,48,0
4319,note_on,,59,0,10,,,,,,,,,,,,,,,,8,,48,0
4319,note_on,,59,0,8,,,,,,,,,,,,,,,,6,,64,0
4319,note_on,,59,0,14,,,,,,,,,,,,,,,,13,,48,0
4320,note_on,,1,0,14,,,,,,,,,,,,,,,,13,,53,72
4320,note_on,,0,0,15,,,,,,,,,,,,,,,,15,,69,72
4320,note_on,,1,0,15,,,,,,,,,,,,,,,,15,,53,72
4320,note_on,,1,0,6,,,,,,,,,,,,,,,,2,,53,72
4320,note_on,,1,0,12,,,,,,,,,,,,,,,,11,,69,72
4320,note_on,,1,0,10,,,,,,,,,,,,,,,,8,,53,72
4320,note_on,,1,0,8,,,,,,,,,,,,,,,,6,,69,72
4320,note_on,,0,0,15,,,,,,,,,,,,,,,,15,,60,72
4379,note_on,,59,0,6,,,,,,,,,,,,,,,,2,,53,0
4379,note_on,,59,0,8,,,,,,,,,,,,,,,,6,,69,0
4379,note_on,,59,0,10,,,,,,,,,,,,,,,,8,,53,0
4379,note_on,,59,0,14,,,,,,,,,,,,,,,,13,,53,0
4379,note_on,,0,0,15,,,,,,,,,,,,,,,,15,,69,0
4379,note_on,,59,0,15,,,,,,,,,,,,,,,,15,,53,0
4379,note_on,,59,0,12,,,,,,,,,,,,,,,,11,,69,0
4380,note_on,,1,0,8,,,,,,,,,,,,,,,,6,,67,72
4380,note_on,,1,0,10,,,,,,,,,,,,,,,,8,,52,72
4380,note_on,,1,0,12,,,,,,,,,,,,,,,,11,,67,72
4380,note_on,,1,0,6,,,,,,,,,,,,,,,,2,,52,72
4380,note_on,,1,0,14,,,,,,,,,,,,,,,,13,,52,72
4380,note_on,,1,0,15,,,,,,,,,,,,,,,,15,,52,72
4380,note_on,,0,0,15,,,,,,,,,,,,,,,,15,,67,72
4439,note_on,,59,0,10,,,,,,,,,,,,,,,,8,,52,0
4439,note_on,,59,0,14,,,,,,,,,,,,,,,,13,,52,0
4439,note_on,,59,0,8,,,,,,,,,,,,,,,,6,,67,0
4439,note_on,,59,0,15,,,,,,,,,,,,,,,,15,,60,0
4439,note_on,,0,0,15,,,,,,,,,,,,,,,,15,,52,0
4439,note_on,,0,0,15,,,,,,,,,,,,,,,,15,,67,0
4439,note_on,,59,0,6,,,,,,,,,,,,,,,,2,,52,0
4439,note_on,,59,0,12,,,,,,,,,,,,,,,,11,,67,0
4440,note_on,,0,0,15,,,,,,,,,,,,,,,,15,,70,72
4440,note_on,,0,0,15,,,,,,,,,,,,,,,,15,,58,72
4440,note_on,,1,0,12,,,,,,,,,,,,,,,,11,,70,72
4440,note_on,,1,0,14,,,,,,,,,,,,,,,,13,,55,72
4440,note_on,,1,0,6,,,,,,,,,,,,,,,,2,,55,72
4440,note_on,,1,0,8,,,,,,,,,,,,,,,,6,,70,72
4440,note_on,,1,0,10,,,,,,,,,,,,,,,,8,,55,72
4440,note_on,,1,0,15,,,,,,,,,,,,,,,,15,,55,72
4499,note_on,,59,0,14,,,,,,,,,,,,,,,,13,,55,0
4499,note_on,,59,0,10,,,,,,,,,,,,,,,,8,,55,0
4499,note_on,,59,0,6,,,,,,,,,,,,,,,,2,,55,0
4499,note_on,,0,0,15,,,,,,,,,,,,,,,,15,,58,0
4499,note_on,,59,0,15,,,,,,,,,,,,,,,,15,,55,0
4499,note_on,,59,0,8,,,,,,,,,,,,,,,,6,,70,0
4499,note_on,,59,0,12,,,,,,,,,,,,,,,,11,,70,0
4499,note_on,,0,0,15,,,,,,,,,,,,,,,,15,,70,0
4500,note_on,,1,0,8,,,,,,,,,,,,,,,,6,,69,72
4500,note_on,,1,0,15,,,,,,,,,,,,,,,,15,,53,72
4500,note_on,,0,0,15,,,,,,,,,,,,,,,,15,,69,72
4500,note_on,,0,0,15,,,,,,,,,,,,,,,,15,,60,72
4500,note_on,,1,0,14,,,,,,,,,,,,,,,,13,,53,72
4500,note_on,,1,0,6,,,,,,,,,,,,,,,,2,,53,72
4500,note_on,,1,0,12,,,,,,,,,,,,,,,,11,,69,72
4500,note_on,,1,0,10,,,,,,,,,,,,,,,,8,,53,72
4559,note_on,,59,0,8,,,,,,,,,,,,,,,,6,,69,0
4559,note_on,,59,0,14,,,,,,,,,,,,,,,,13,,53,0
4559,note_on,,0,0,15,,,,,,,,,,,,,,,,15,,69,0
4559,note_on,,0,0,15,,,,,,,,,,,,,,,,15,,60,0
4559,note_on,,59,0,15,,,,,,,,,,,,,,,,15,,53,0
4559,note_on,,59,0,12,,,,,,,,,,,,,,,,11,,69,0
4559,note_on,,59,0,6,,,,,,,,,,,,,,,,2,,53,0
4559,note_on,,59,0,10,,,,,,,,,,,,,,,,8,,53,0
4560,note_on,,1,0,10,,,,,,,,,,,,,,,,8,,58,72
4560,note_on,,1,0,14,,,,,,,,,,,,,,,,13,,58,72
4560,note_on,,1,0,12,,,,,,,,,,,,,,,,11,,62,72
4560,note_on,,1,0,15,,,,,,,,,,,,,,,,15,,58,72
4560,note_on,,1,0,8,,,,,,,,,,,,,,,,6,,62,72
4560,note_on,,0,0,15,,,,,,,,,,,,,,,,15,,62,72
4560,note_on,,1,0,6,,,,,,,,,,,,,,,,2,,58,72
4619,note_on,,59,0,12,,,,,,,,,,,,,,,,11,,62,0
4619,note_on,,59,0,8,,,,,,,,,,,,,,,,6,,62,0
4619,note_on,,59,0,14,,,,,,,,,,,,,,,,13,,58,0
4619,note_on,,59,0,10,,,,,,,,,,,,,,,,8,,58,0
4619,note_on,,59,0,15,,,,,,,,,,,,,,,,15,,58,0
4619,note_on,,59,0,6,,,,,,,,,,,,,,,,2,,58,0
4619,note_on,,0,0,15,,,,,,,,,,,,,,,,15,,62,0
4620,note_on,,0,0,15,,,,,,,,,,,,,,,,15,,60,72
4620,note_on,,1,0,15,,,,,,,,,,,,,,,,15,,57,72
4620,note_on,,1,0,6,,,,,,,,,,,,,,,,2,,57,72
4620,note_on,,1,0,14,,,,,,,,,,,,,,,,13,,57,72
4620,note_on,,1,0,10,,,,,,,,,,,,,,,,8,,57,72
4620,note_on,,1,0,8,,,,,,,,,,,,,,,,6,,60,72
4620,note_on,,1,0,12,,,,,,,,,,,,,,,,11,,60,72
4679,note_on,,0,0,15,,,,,,,,,,,,,,,,15,,60,0
4679,note_on,,59,0,15,,,,,,,,,,,,,,,,15,,57,0
4679,note_on,,59,0,6,,,,,,,,,,,,,,,,2,,57,0
4679,note_on,,59,0,12,,,,,,,,,,,,,,,,11,,60,0
4679,note_on,,59,0,10,,,,,,,,,,,,,,,,8,,57,0
4679,note_on,,59,0,14,,,,,,,,,,,,,,,,13,,57,0
4679,note_on,,59,0,8,,,,,,,,,,,,,,,,6,,60,0
4680,note_on,,1,0,14,,,,,,,,,,,,,,,,13,,55,72
4680,note_on,,1,0,8,,,,,,,,,,,,,,,,6,,64,72
4680,note_on,,1,0,12,,,,,,,,,,,,,,,,11,,64,72
4680,note_on,,0,0,15,,,,,,,,,,,,,,,,15,,64,72
4680,note_on,,1,0,15,,,,,,,,,,,,,,,,15,,55,72
4680,note_on,,1,0,6,,,,,,,,,,,,,,,,2,,55,72
4680,note_on,,0,0,15,,,,,,,,,,,,,,,,15,,58,72
4680,note_on,,1,0,10,,,,,,,,,,,,,,,,8,,55,72
4739,note_on,,59,0,8,,,,,,,,,,,,,,,,6,,64,0
4739,note_on,,59,0,15,,,,,,,,,,,,,,,,15,,55,0
4739,note_on,,0,0,15,,,,,,,,,,,,,,,,15,,64,0
4739,note_on,,0,0,15,,,,,,,,,,,,,,,,15,,58,0
4739,note_on,,59,0,14,,,,,,,,,,,,,,,,13,,55,0
4739,note_on,,59,0,10,,,,,,,,,,,,,,,,8,,55,0
4739,note_on,,59,0,6,,,,,,,,,,,,,,,,2,,55,0
4739,note_on,,59,0,12,,,,,,,,,,,,,,,,11,,64,0
4740,note_on,,0,0,15,,,,,,,,,,,,,,,,15,,65,72
4740,note_on,,1,0,12,,,,,,,,,,,,,,,,11,,65,72
4740,note_on,,1,0,14,,,,,,,,,,,,,,,,13,,53,72
4740,note_on,,0,0,15,,,,,,,,,,,,,,,,15,,57,72
4740,note_on,,1,0,6,,,,,,,,,,,,,,,,2,,53,72
4740,note_on,,1,0,8,,,,,,,,,,,,,,,,6,,65,72
4740,note_on,,1,0,10,,,,,,,,,,,,,,,,8,,53,72
4740,note_on,,0,0,15,,,,,,,,,,,,,,,,15,,60,72
4740,note_on,,1,0,15,,,,,,,,,,,,,,,,15,,53,72
4799,note_on,,59,0,15,,,,,,,,,,,,,,,,15,,53,0
4799,note_on,,0,0,15,,,,,,,,,,,,,,,,15,,65,0
4799,note_on,,0,0,15,,,,,,,,,,,,,,,,15,,60,0
4799,note_on,,59,0,12,,,,,,,,,,,,,,,,11,,65,0
4799,note_on,,0,0,15,,,,,,,,,,,,,,,,15,,57,0
4799,note_on,,59,0,14,,,,,,,,,,,,,,,,13,,53,0
4799,note_on,,59,0,6,,,,,,,,,,,,,,,,2,,53,0
4799,note_on,,59,0,10,,,,,,,,,,,,,,,,8,,53,0
4799,note_on,,59,0,8,,,,,,,,,,,,,,,,6,,65,0
4800,note_on,,0,0,15,,,,,,,,,,,,,,,,15,,55,72
4800,note_on,,0,0,15,,,,,,,,,,,,,,,,15,,67,72
4800,note_on,,0,0,15,,,,,,,,,,,,,,,,15,,60,72
4800,note_on,,1,0,12,,,,,,,,,,,,,,,,11,,67,72
4800,note_on,,1,0,14,,,,,,,,,,,,,,,,13,,52,72
4800,note_on,,1,0,6,,,,,,,,,,,,,,,,2,,52,72
4800,note_on,,1,0,10,,,,,,,,,,,,,,,,8,,60,72
4800,note_on,,1,0,15,,,,,,,,,,,,,,,,15,,52,72
4800,note_on,,1,0,8,,,,,,,,,,,,,,,,6,,67,72
4859,note_on,,59,0,6,,,,,,,,,,,,,,,,2,,52,0
4859,note_on,,59,0,14,,,,,,,,,,,,,,,,13,,52,0
4859,note_on,,59,0,15,,,,,,,,,,,,,,,,15,,52,0
4859,note_on,,0,0,15,,,,,,,,,,,,,,,,15,,67,0
4860,note_on,,1,0,14,,,,,,,,,,,,,,,,13,,50,72
4860,note_on,,1,0,6,,,,,,,,,,,,,,,,2,,50,72
4860,note_on,,1,0,15,,,,,,,,,,,,,,,,15,,50,72
4860,note_on,,0,0,15,,,,,,,,,,,,,,,,15,,65,72
4919,note_on,,119,0,10,,,,,,,,,,,,,,,,8,,60,0
4919,note_on,,59,0,14,,,,,,,,,,,,,,,,13,,50,0
4919,note_on,,59,0,6,,,,,,,,,,,,,,,,2,,50,0
4919,note_on,,0,0,15,,,,,,,,,,,,,,,,15,,55,0
4919,note_on,,59,0,15,,,,,,,,,,,,,,,,15,,60,0
4919,note_on,,0,0,15,,,,,,,,,,,,,,,,15,,50,0
4919,note_on,,119,0,12,,,,,,,,,,,,,,,,11,,67,0
4919,note_on,,0,0,15,,,,,,,,,,,,,,,,15,,65,0
4919,note_on,,119,0,8,,,,,,,,,,,,,,,,6,,67,0
4920,note_on,,961,0,7,,,,,,,,,,,,,,,,5,,67,72
4920,note_on,,961,0,11,,,,,,,,,,,,,,,,10,,67,72
4920,note_on,,1,0,14,,,,,,,,,,,,,,,,13,,52,72
4920,note_on,,1,0,15,,,,,,,,,,,,,,,,15,,52,72
4920,note_on,,0,0,15,,,,,,,,,,,,,,,,15,,67,72
4920,note_on,,0,0,15,,,,,,,,,,,,,,,,15,,60,72
4920,note_on,,0,0,15,,,,,,,,,,,,,,,,15,,55,72
4920,note_on,,1,0,6,,,,,,,,,,,,,,,,2,,52,72
4920,note_on,,961,0,5,,,,,,,,,,,,,,,,1,,67,72
4979,note_on,,59,0,6,,,,,,,,,,,,,,,,2,,52,0
4979,note_on,,59,0,14,,,,,,,,,,,,,,,,13,,52,0
4979,note_on,,59,0,5,,,,,,,,,,,,,,,,1,,67,0
4979,note_on,,59,0,15,,,,,,,,,,,,,,,,15,,52,0
4979,note_on,,59,0,11,,,,,,,,,,,,,,,,10,,67,0
4979,note_on,,0,0,15,,,,,,,,,,,,,,,,15,,67,0
4979,note_on,,0,0,15,,,,,,,,,,,,,,,,15,,60,0
4979,note_on,,59,0,7,,,,,,,,,,,,,,,,5,,67,0
4979,note_on,,0,0,15,,,,,,,,,,,,,,,,15,,55,0
4980,note_on,,1,0,14,,,,,,,,,,,,,,,,13,,48,72
4980,note_on,,1,0,6,,,,,,,,,,,,,,,,2,,48,72
4980,note_on,,0,0,15,,,,,,,,,,,,,,,,15,,55,72
4980,note_on,,0,0,15,,,,,,,,,,,,,,,,15,,60,72
4980,note_on,,0,0,15,,,,,,,,,,,,,,,,15,,64,72
4980,note_on,,1,0,15,,,,,,,,,,,,,,,,15,,48,72
4980,note_on,,1,0,5,,,,,,,,,,,,,,,,1,,70,72
4980,note_on,,1,0,7,,,,,,,,,,,,,,,,5,,70,72
4980,note_on,,1,0,11,,,,,,,,,,,,,,,,10,,70,72
5039,note_on,,59,0,11,,,,,,,,,,,,,,,,10,,70,0
5039,note_on,,59,0,7,,,,,,,,,,,,,,,,5,,70,0
5039,note_on,,0,0,15,,,,,,,,,,,,,,,,15,,64,0
5039,note_on,,59,0,6,,,,,,,,,,,,,,,,2,,48,0
5039,note_on,,59,0,14,,,,,,,,,,,,,,,,13,,48,0
5039,note_on,,0,0,15,,,,,,,,,,,,,,,,15,,55,0
5039,note_on,,0,0,15,,,,,,,,,,,,,,,,15,,60,0
5039,note_on,,59,0,5,,,,,,,,,,,,,,,,1,,70,0
5039,note_on,,59,0,15,,,,,,,,,,,,,,,,15,,48,0
5040,note_on,,1,0,7,,,,,,,,,,,,,,,,5,,69,72
5040,note_on,,1,0,6,,,,,,,,,,,,,,,,2,,41,72
5040,note_on,,1,0,5,,,,,,,,,,,,,,,,1,,69,72
5040,note_on,,1,0,14,,,,,,,,,,,,,,,,13,,41,72
5040,note_on,,1,0,15,,,,,,,,,,,,,,,,15,,41,72
5040,note_on,,0,0,15,,,,,,,,,,,,,,,,15,,69,72
5040,note_on,,0,0,15,,,,,,,,,,,,,,,,15,,60,72
5040,note_on,,0,0,15,,,,,,,,,,,,,,,,15,,57,72
5040,note_on,,1,0,11,,,,,,,,,,,,,,,,10,,69,72
5069,note_on,,29,0,5,,,,,,,,,,,,,,,,1,,69,0
5069,note_on,,29,0,11,,,,,,,,,,,,,,,,10,,69,0
5069,note_on,,29,0,7,,,,,,,,,,,,,,,,5,,69,0
5070,note_on,,1,0,11,,,,,,,,,,,,,,,,10,,67,72
5070,note_on,,1,0,7,,,,,,,,,,,,,,,,5,,67,72
5070,note_on,,1,0,5,,,,,,,,,,,,,,,,1,,67,72
5099,note_on,,29,0,5,,,,,,,,,,,,,,,,1,,67,0
5099,note_on,,29,0,7,,,,,,,,,,,,,,,,5,,67,0
5099,note_on,,59,0,14,,,,,,,,,,,,,,,,13,,41,0
5099,note_on,,59,0,15,,,,,,,,,,,,,,,,15,,41,0
5099,note_on,,59,0,6,,,,,,,,,,,,,,,,2,,41,0
5099,note_on,,29,0,11,,,,,,,,,,,,,,,,10,,67,0
5100,note_on,,1,0,11,,,,,,,,,,,,,,,,10,,65,72
5100,note_on,,1,0,14,,,,,,,,,,,,,,,,13,,53,72
5100,note_on,,1,0,5,,,,,,,,,,,,,,,,1,,65,72
5100,note_on,,1,0,6,,,,,,,,,,,,,,,,2,,53,72
5100,note_on,,1,0,15,,,,,,,,,,,,,,,,15,,53,72
5100,note_on,,1,0,7,,,,,,,,,,,,,,,,5,,65,72
5129,note_on,,29,0,11,,,,,,,,,,,,,,,,10,,65,0
5129,note_on,,29,0,5,,,,,,,,,,,,,,,,1,,65,0
5129,note_on,,29,0,7,,,,,,,,,,,,,,,,5,,65,0
5130,note_on,,1,0,11,,,,,,,,,,,,,,,,10,,69,72
5130,note_on,,1,0,5,,,,,,,,,,,,,,,,1,,69,72
5130,note_on,,1,0,7,,,,,,,,,,,,,,,,5,,69,72
5159,note_on,,0,0,15,,,,,,,,,,,,,,,,15,,53,0
5159,note_on,,0,0,15,,,,,,,,,,,,,,,,15,,57,0
5159,note_on,,59,0,14,,,,,,,,,,,,,,,,13,,53,0
5159,note_on,,29,0,7,,,,,,,,,,,,,,,,5,,69,0
5159,note_on,,59,0,15,,,,,,,,,,,,,,,,15,,69,0
5159,note_on,,59,0,6,,,,,,,,,,,,,,,,2,,53,0
5159,note_on,,29,0,5,,,,,,,,,,,,,,,,1,,69,0
5159,note_on,,0,0,15,,,,,,,,,,,,,,,,15,,60,0
5159,note_on,,29,0,11,,,,,,,,,,,,,,,,10,,69,0
5160,note_on,,1,0,11,,,,,,,,,,,,,,,,10,,67,72
5160,note_on,,1,0,7,,,,,,,,,,,,,,,,5,,67,72
5160,note_on,,0,0,15,,,,,,,,,,,,,,,,15,,67,72
5160,note_on,,1,0,14,,,,,,,,,,,,,,,,13,,52,72
5160,note_on,,1,0,6,,,,,,,,,,,,,,,,2,,52,72
5160,note_on,,0,0,15,,,,,,,,,,,,,,,,15,,60,72
5160,note_on,,1201,0,9,,,,,,,,,,,,,,,,7,,60,72
5160,note_on,,1,0,5,,,,,,,,,,,,,,,,1,,67,72
5160,note_on,,1,0,15,,,,,,,,,,,,,,,,15,,52,72
5160,note_on,,241,0,12,,,,,,,,,,,,,,,,11,,72,72
5189,note_on,,29,0,5,,,,,,,,,,,,,,,,1,,67,0
5189,note_on,,29,0,7,,,,,,,,,,,,,,,,5,,67,0
5189,note_on,,29,0,11,,,,,,,,,,,,,,,,10,,67,0
5190,note_on,,1,0,5,,,,,,,,,,,,,,,,1,,65,72
5190,note_on,,1,0,7,,,,,,,,,,,,,,,,5,,65,72
5190,note_on,,1,0,11,,,,,,,,,,,,,,,,10,,65,72
5219,note_on,,29,0,7,,,,,,,,,,,,,,,,5,,65,0
5219,note_on,,29,0,11,,,,,,,,,,,,,,,,10,,65,0
5219,note_on,,59,0,12,,,,,,,,,,,,,,,,11,,72,0
5219,note_on,,59,0,9,,,,,,,,,,,,,,,,7,,60,0
5219,note_on,,59,0,14,,,,,,,,,,,,,,,,13,,52,0
5219,note_on,,59,0,6,,,,,,,,,,,,,,,,2,,52,0
5219,note_on,,29,0,5,,,,,,,,,,,,,,,,1,,65,0
5219,note_on,,0,0,15,,,,,,,,,,,,,,,,15,,60,0
5219,note_on,,0,0,15,,,,,,,,,,,,,,,,15,,67,0
5219,note_on,,59,0,15,,,,,,,,,,,,,,,,15,,52,0
5220,note_on,,0,0,15,,,,,,,,,,,,,,,,15,,72,72
5220,note_on,,1,0,6,,,,,,,,,,,,,,,,2,,48,72
5220,note_on,,1,0,12,,,,,,,,,,,,,,,,11,,72,72
5220,note_on,,0,0,15,,,,,,,,,,,,,,,,15,,67,72
5220,note_on,,0,0,15,,,,,,,,,,,,,,,,15,,48,72
5220,note_on,,1,0,9,,,,,,,,,,,,,,,,7,,60,72
5220,note_on,,1,0,15,,,,,,,,,,,,,,,,15,,64,72
5220,note_on,,1,0,11,,,,,,,,,,,,,,,,10,,64,72
5220,note_on,,1,0,5,,,,,,,,,,,,,,,,1,,64,72
5220,note_on,,1,0,7,,,,,,,,,,,,,,,,5,,64,72
5220,note_on,,1,0,14,,,,,,,,,,,,,,,,13,,48,72
5249,note_on,,29,0,11,,,,,,,,,,,,,,,,10,,64,0
5249,note_on,,29,0,5,,,,,,,,,,,,,,,,1,,64,0
5249,note_on,,29,0,7,,,,,,,,,,,,,,,,5,,64,0
5250,note_on,,1,0,11,,,,,,,,,,,,,,,,10,,67,72
5250,note_on,,1,0,5,,,,,,,,,,,,,,,,1,,67,72
5250,note_on,,1,0,7,,,,,,,,,,,,,,,,5,,67,72
5279,note_on,,59,0,9,,,,,,,,,,,,,,,,7,,60,0
5279,note_on,,59,0,6,,,,,,,,,,,,,,,,2,,48,0
5279,note_on,,59,0,15,,,,,,,,,,,,,,,,15,,64,0
5279,note_on,,29,0,11,,,,,,,,,,,,,,,,10,,67,0
5279,note_on,,29,0,7,,,,,,,,,,,,,,,,5,,67,0
5279,note_on,,0,0,15,,,,,,,,,,,,,,,,15,,72,0
5279,note_on,,0,0,15,,,,,,,,,,,,,,,,15,,67,0
5279,note_on,,59,0,14,,,,,,,,,,,,,,,,13,,48,0
5279,note_on,,29,0,5,,,,,,,,,,,,,,,,1,,67,0
5279,note_on,,0,0,15,,,,,,,,,,,,,,,,15,,48,0
5279,note_on,,59,0,12,,,,,,,,,,,,,,,,11,,72,0
5280,note_on,,1,0,14,,,,,,,,,,,,,,,,13,,53,72
5280,note_on,,1,0,6,,,,,,,,,,,,,,,,2,,53,72
5280,note_on,,1,0,7,,,,,,,,,,,,,,,,5,,69,72
5280,note_on,,1,0,5,,,,,,,,,,,,,,,,1,,69,72
5280,note_on,,1,0,9,,,,,,,,,,,,,,,,7,,60,72
5280,note_on,,1,0,12,,,,,,,,,,,,,,,,11,,72,72
5280,note_on,,1,0,15,,,,,,,,,,,,,,,,15,,53,72
5280,note_on,,0,0,15,,,,,,,,,,,,,,,,15,,69,72
5280,note_on,,0,0,15,,,,,,,,,,,,,,,,15,,65,72
5280,note_on,,0,0,15,,,,,,,,,,,,,,,,15,,60,72
5280,note_on,,1,0,11,,,,,,,,,,,,,,,,10,,69,72
5309,note_on,,29,0,5,,,,,,,,,,,,,,,,1,,69,0
5309,note_on,,29,0,11,,,,,,,,,,,,,,,,10,,69,0
5309,note_on,,29,0,7,,,,,,,,,,,,,,,,5,,69,0
5310,note_on,,1,0,11,,,,,,,,,,,,,,,,10,,67,72
5310,note_on,,1,0,7,,,,,,,,,,,,,,,,5,,67,72
5310,note_on,,1,0,5,,,,,,,,,,,,,,,,1,,67,72
5339,note_on,,29,0,11,,,,,,,,,,,,,,,,10,,67,0
5339,note_on,,59,0,15,,,,,,,,,,,,,,,,15,,53,0
5339,note_on,,29,0,7,,,,,,,,,,,,,,,,5,,67,0
5339,note_on,,59,0,14,,,,,,,,,,,,,,,,13,,53,0
5339,note_on,,59,0,6,,,,,,,,,,,,,,,,2,,53,0
5339,note_on,,29,0,5,,,,,,,,,,,,,,,,1,,67,0
5340,note_on,,1,0,7,,,,,,,,,,,,,,,,5,,65,72
5340,note_on,,1,0,5,,,,,,,,,,,,,,,,1,,65,72
5340,note_on,,1,0,11,,,,,,,,,,,,,,,,10,,65,72
5340,note_on,,1,0,15,,,,,,,,,,,,,,,,15,,41,72
5340,note_on,,1,0,14,,,,,,,,,,,,,,,,13,,41,72
5340,note_on,,1,0,6,,,,,,,,,,,,,,,,2,,41,72
5369,note_on,,29,0,7,,,,,,,,,,,,,,,,5,,65,0
5369,note_on,,29,0,11,,,,,,,,,,,,,,,,10,,65,0
5369,note_on,,29,0,5,,,,,,,,,,,,,,,,1,,65,0
5370,note_on,,1,0,7,,,,,,,,,,,,,,,,5,,69,72
5370,note_on,,1,0,5,,,,,,,,,,,,,,,,1,,69,72
5370,note_on,,1,0,11,,,,,,,,,,,,,,,,10,,69,72
5399,note_on,,29,0,11,,,,,,,,,,,,,,,,10,,69,0
5399,note_on,,119,0,12,,,,,,,,,,,,,,,,11,,72,0
5399,note_on,,29,0,7,,,,,,,,,,,,,,,,5,,69,0
5399,note_on,,59,0,14,,,,,,,,,,,,,,,,13,,41,0
5399,note_on,,119,0,9,,,,,,,,,,,,,,,,7,,60,0
5399,note_on,,59,0,15,,,,,,,,,,,,,,,,15,,69,0
5399,note_on,,59,0,6,,,,,,,,,,,,,,,,2,,41,0
5399,note_on,,0,0,15,,,,,,,,,,,,,,,,15,,65,0
5399,note_on,,0,0,15,,,,,,,,,,,,,,,,15,,60,0
5399,note_on,,0,0,15,,,,,,,,,,,,,,,,15,,41,0
5399,note_on,,29,0,5,,,,,,,,,,,,,,,,1,,69,0
5400,note_on,,1,0,12,,,,,,,,,,,,,,,,11,,60,72
5400,note_on,,1,0,5,,,,,,,,,,,,,,,,1,,67,72
5400,note_on,,1,0,6,,,,,,,,,,,,,,,,2,,52,72
5400,note_on,,1,0,9,,,,,,,,,,,,,,,,7,,48,72
5400,note_on,,0,0,15,,,,,,,,,,,,,,,,15,,67,72
5400,note_on,,0,0,15,,,,,,,,,,,,,,,,15,,60,72
5400,note_on,,1,0,15,,,,,,,,,,,,,,,,15,,52,72
5400,note_on,,1,0,14,,,,,,,,,,,,,,,,13,,52,72
5400,note_on,,1,0,11,,,,,,,,,,,,,,,,10,,67,72
5400,note_on,,1,0,7,,,,,,,,,,,,,,,,5,,67,72
5429,note_on,,29,0,5,,,,,,,,,,,,,,,,1,,67,0
5429,note_on,,29,0,7,,,,,,,,,,,,,,,,5,,67,0
5429,note_on,,29,0,11,,,,,,,,,,,,,,,,10,,67,0
5430,note_on,,1,0,5,,,,,,,,,,,,,,,,1,,69,72
5430,note_on,,1,0,7,,,,,,,,,,,,,,,,5,,69,72
5430,note_on,,1,0,11,,,,,,,,,,,,,,,,10,,69,72
5459,note_on,,59,0,6,,,,,,,,,,,,,,,,2,,52,0
5459,note_on,,59,0,15,,,,,,,,,,,,,,,,15,,52,0
5459,note_on,,59,0,14,,,,,,,,,,,,,,,,13,,52,0
5459,note_on,,0,0,15,,,,,,,,,,,,,,,,15,,67,0
5459,note_on,,29,0,11,,,,,,,,,,,,,,,,10,,69,0
5459,note_on,,29,0,5,,,,,,,,,,,,,,,,1,,69,0
5459,note_on,,29,0,7,,,,,,,,,,,,,,,,5,,69,0
5460,note_on,,1,0,11,,,,,,,,,,,,,,,,10,,70,72
5460,note_on,,1,0,6,,,,,,,,,,,,,,,,2,,55,72
5460,note_on,,1,0,7,,,,,,,,,,,,,,,,5,,70,72
5460,note_on,,0,0,15,,,,,,,,,,,,,,,,15,,64,72
5460,note_on,,1,0,15,,,,,,,,,,,,,,,,15,,55,72
5460,note_on,,1,0,5,,,,,,,,,,,,,,,,1,,70,72
5460,note_on,,1,0,14,,,,,,,,,,,,,,,,13,,55,72
5489,note_on,,29,0,11,,,,,,,,,,,,,,,,10,,70,0
5489,note_on,,29,0,5,,,,,,,,,,,,,,,,1,,70,0
5489,note_on,,29,0,7,,,,,,,,,,,,,,,,5,,70,0
5490,note_on,,1,0,5,,,,,,,,,,,,,,,,1,,67,72
5490,note_on,,1,0,11,,,,,,,,,,,,,,,,10,,67,72
5490,note_on,,1,0,7,,,,,,,,,,,,,,,,5,,67,72
5519,note_on,,59,0,14,,,,,,,,,,,,,,,,13,,55,0
5519,note_on,,29,0,11,,,,,,,,,,,,,,,,10,,67,0
5519,note_on,,59,0,6,,,,,,,,,,,,,,,,2,,55,0
5519,note_on,,119,0,9,,,,,,,,,,,,,,,,7,,48,0
5519,note_on,,29,0,5,,,,,,,,,,,,,,,,1,,67,0
5519,note_on,,0,0,15,,,,,,,,,,,,,,,,15,,64,0
5519,note_on,,0,0,15,,,,,,,,,,,,,,,,15,,55,0
5519,note_on,,59,0,15,,,,,,,,,,,,,,,,15,,60,0
5519,note_on,,119,0,12,,,,,,,,,,,,,,,,11,,60,0
5519,note_on,,29,0,7,,,,,,,,,,,,,,,,5,,67,0
5520,note_on,,1,0,5,,,,,,,,,,,,,,,,1,,69,72
5520,note_on,,1,0,14,,,,,,,,,,,,,,,,13,,53,72
5520,note_on,,1,0,6,,,,,,,,,,,,,,,,2,,53,72
5520,note_on,,1,0,7,,,,,,,,,,,,,,,,5,,69,72
5520,note_on,,0,0,15,,,,,,,,,,,,,,,,15,,69,72
5520,note_on,,1,0,11,,,,,,,,,,,,,,,,10,,69,72
5520,note_on,,1,0,15,,,,,,,,,,,,,,,,15,,53,72
5520,note_on,,0,0,15,,,,,,,,,,,,,,,,15,,60,72
5520,note_on,,0,0,15,,,,,,,,,,,,,,,,15,,65,72
5549,note_on,,29,0,7,,,,,,,,,,,,,,,,5,,69,0
5549,note_on,,29,0,5,,,,,,,,,,,,,,,,1,,69,0
5549,note_on,,29,0,11,,,,,,,,,,,,,,,,10,,69,0
5550,note_on,,1,0,5,,,,,,,,,,,,,,,,1,,67,72
5550,note_on,,1,0,7,,,,,,,,,,,,,,,,5,,67,72
5550,note_on,,1,0,11,,,,,,,,,,,,,,,,10,,67,72
5579,note_on,,29,0,7,,,,,,,,,,,,,,,,5,,67,0
5579,note_on,,59,0,6,,,,,,,,,,,,,,,,2,,53,0
5579,note_on,,59,0,15,,,,,,,,,,,,,,,,15,,53,0
5579,note_on,,29,0,11,,,,,,,,,,,,,,,,10,,67,0
5579,note_on,,0,0,15,,,,,,,,,,,,,,,,15,,69,0
5579,note_on,,29,0,5,,,,,,,,,,,,,,,,1,,67,0
5579,note_on,,59,0,14,,,,,,,,,,,,,,,,13,,53,0
5580,note_on,,0,0,15,,,,,,,,,,,,,,,,15,,65,72
5580,note_on,,1,0,6,,,,,,,,,,,,,,,,2,,57,72
5580,note_on,,1,0,15,,,,,,,,,,,,,,,,15,,57,72
5580,note_on,,1,0,14,,,,,,,,,,,,,,,,13,,57,72
5580,note_on,,1,0,7,,,,,,,,,,,,,,,,5,,65,72
5580,note_on,,1,0,5,,,,,,,,,,,,,,,,1,,65,72
5580,note_on,,1,0,11,,,,,,,,,,,,,,,,10,,65,72
5609,note_on,,29,0,7,,,,,,,,,,,,,,,,5,,65,0
5609,note_on,,29,0,5,,,,,,,,,,,,,,,,1,,65,0
5609,note_on,,29,0,11,,,,,,,,,,,,,,,,10,,65,0
5610,note_on,,1,0,5,,,,,,,,,,,,,,,,1,,69,72
5610,note_on,,1,0,7,,,,,,,,,,,,,,,,5,,69,72
5610,note_on,,1,0,11,,,,,,,,,,,,,,,,10,,69,72
5639,note_on,,29,0,7,,,,,,,,,,,,,,,,5,,69,0
5639,note_on,,29,0,5,,,,,,,,,,,,,,,,1,,69,0
5639,note_on,,0,0,15,,,,,,,,,,,,,,,,15,,65,0
5639,note_on,,59,0,15,,,,,,,,,,,,,,,,15,,60,0
5639,note_on,,29,0,11,,,,,,,,,,,,,,,,10,,69,0
5639,note_on,,59,0,6,,,,,,,,,,,,,,,,2,,57,0
5639,note_on,,0,0,15,,,,,,,,,,,,,,,,15,,65,0
5639,note_on,,0,0,15,,,,,,,,,,,,,,,,15,,57,0
5639,note_on,,59,0,14,,,,,,,,,,,,,,,,13,,57,0
5640,note_on,,1,0,15,,,,,,,,,,,,,,,,15,,58,72
5640,note_on,,1,0,7,,,,,,,,,,,,,,,,5,,67,72
5640,note_on,,1,0,5,,,,,,,,,,,,,,,,1,,67,72
5640,note_on,,1,0,6,,,,,,,,,,,,,,,,2,,58,72
5640,note_on,,1,0,14,,,,,,,,,,,,,,,,13,,58,72
5640,note_on,,1,0,11,,,,,,,,,,,,,,,,10,,67,72
5640,note_on,,0,0,15,,,,,,,,,,,,,,,,15,,62,72
5640,note_on,,0,0,15,,,,,,,,,,,,,,,,15,,67,72
5669,note_on,,29,0,11,,,,,,,,,,,,,,,,10,,67,0
5669,note_on,,29,0,7,,,,,,,,,,,,,,,,5,,67,0
5669,note_on,,29,0,5,,,,,,,,,,,,,,,,1,,67,0
5670,note_on,,1,0,11,,,,,,,,,,,,,,,,10,,69,72
5670,note_on,,1,0,5,,,,,,,,,,,,,,,,1,,69,72
5670,note_on,,1,0,7,,,,,,,,,,,,,,,,5,,69,72
5699,note_on,,29,0,11,,,,,,,,,,,,,,,,10,,69,0
5699,note_on,,59,0,14,,,,,,,,,,,,,,,,13,,58,0
5699,note_on,,0,0,15,,,,,,,,,,,,,,,,15,,62,0
5699,note_on,,29,0,5,,,,,,,,,,,,,,,,1,,69,0
5699,note_on,,59,0,6,,,,,,,,,,,,,,,,2,,58,0
5699,note_on,,29,0,7,,,,,,,,,,,,,,,,5,,69,0
5699,note_on,,59,0,15,,,,,,,,,,,,,,,,15,,58,0
5700,note_on,,1,0,5,,,,,,,,,,,,,,,,1,,70,72
5700,note_on,,1,0,7,,,,,,,,,,,,,,,,5,,70,72
5700,note_on,,1,0,6,,,,,,,,,,,,,,,,2,,60,72
5700,note_on,,1,0,15,,,,,,,,,,,,,,,,15,,60,72
5700,note_on,,0,0,15,,,,,,,,,,,,,,,,15,,64,72
5700,note_on,,1,0,11,,,,,,,,,,,,,,,,10,,70,72
5700,note_on,,1,0,14,,,,,,,,,,,,,,,,13,,60,72
5729,note_on,,29,0,7,,,,,,,,,,,,,,,,5,,70,0
5729,note_on,,29,0,5,,,,,,,,,,,,,,,,1,,70,0
5729,note_on,,29,0,11,,,,,,,,,,,,,,,,10,,70,0
5730,note_on,,1,0,7,,,,,,,,,,,,,,,,5,,67,72
5730,note_on,,1,0,5,,,,,,,,,,,,,,,,1,,67,72
5730,note_on,,1,0,11,,,,,,,,,,,,,,,,10,,67,72
5759,note_on,,0,0,15,,,,,,,,,,,,,,,,15,,60,0
5759,note_on,,29,0,7,,,,,,,,,,,,,,,,5,,67,0
5759,note_on,,0,0,15,,,,,,,,,,,,,,,,15,,64,0
5759,note_on,,59,0,14,,,,,,,,,,,,,,,,13,,60,0
5759,note_on,,59,0,15,,,,,,,,,,,,,,,,15,,67,0
5759,note_on,,59,0,6,,,,,,,,,,,,,,,,2,,60,0
5759,note_on,,29,0,5,,,,,,,,,,,,,,,,1,,67,0
5759,note_on,,29,0,11,,,,,,,,,,,,,,,,10,,67,0
5760,note_on,,1,0,5,,,,,,,,,,,,,,,,1,,69,72
5760,note_on,,1,0,11,,,,,,,,,,,,,,,,10,,69,72
5760,note_on,,1,0,7,,,,,,,,,,,,,,,,5,,69,72
5760,note_on,,1,0,15,,,,,,,,,,,,,,,,15,,53,72
5760,note_on,,0,0,15,,,,,,,,,,,,,,,,15,,60,72
5760,note_on,,1,0,6,,,,,,,,,,,,,,,,2,,53,72
5760,note_on,,1,0,14,,,,,,,,,,,,,,,,13,,53,72
5760,note_on,,0,0,15,,,,,,,,,,,,,,,,15,,69,72
5819,note_on,,59,0,11,,,,,,,,,,,,,,,,10,,69,0
5819,note_on,,59,0,6,,,,,,,,,,,,,,,,2,,53,0
5819,note_on,,59,0,5,,,,,,,,,,,,,,,,1,,69,0
5819,note_on,,59,0,7,,,,,,,,,,,,,,,,5,,69,0
5819,note_on,,59,0,15,,,,,,,,,,,,,,,,15,,53,0
5819,note_on,,59,0,14,,,,,,,,,,,,,,,,13,,53,0
5819,note_on,,0,0,15,,,,,,,,,,,,,,,,15,,60,0
5820,note_on,,1,0,7,,,,,,,,,,,,,,,,5,,65,72
5820,note_on,,1,0,6,,,,,,,,,,,,,,,,2,,50,72
5820,note_on,,1,0,14,,,,,,,,,,,,,,,,13,,50,72
5820,note_on,,1,0,15,,,,,,,,,,,,,,,,15,,50,72
5820,note_on,,1,0,11,,,,,,,,,,,,,,,,10,,65,72
5820,note_on,,1,0,5,,,,,,,,,,,,,,,,1,,65,72
5820,note_on,,0,0,15,,,,,,,,,,,,,,,,15,,65,72
5879,note_on,,0,0,15,,,,,,,,,,,,,,,,15,,50,0
5879,note_on,,59,0,15,,,,,,,,,,,,,,,,15,,69,0
5879,note_on,,59,0,11,,,,,,,,,,,,,,,,10,,65,0
5879,note_on,,59,0,14,,,,,,,,,,,,,,,,13,,50,0
5879,note_on,,59,0,5,,,,,,,,,,,,,,,,1,,65,0
5879,note_on,,0,0,15,,,,,,,,,,,,,,,,15,,65,0
5879,note_on,,59,0,7,,,,,,,,,,,,,,,,5,,65,0
5879,note_on,,59,0,6,,,,,,,,,,,,,,,,2,,50,0
5880,note_on,,0,0,15,,,,,,,,,,,,,,,,15,,67,72
5880,note_on,,1,0,14,,,,,,,,,,,,,,,,13,,52,72
5880,note_on,,1,0,5,,,,,,,,,,,,,,,,1,,72,72
5880,note_on,,1,0,7,,,,,,,,,,,,,,,,5,,72,72
5880,note_on,,361,0,12,,,,,,,,,,,,,,,,11,,79,72
5880,note_on,,1,0,6,,,,,,,,,,,,,,,,2,,52,72
5880,note_on,,1,0,11,,,,,,,,,,,,,,,,10,,72,72
5880,note_on,,961,0,8,,,,,,,,,,,,,,,,6,,67,72
5880,note_on,,0,0,15,,,,,,,,,,,,,,,,15,,60,72
5880,note_on,,0,0,15,,,,,,,,,,,,,,,,15,,72,72
5880,note_on,,1,0,15,,,,,,,,,,,,,,,,15,,52,72
5939,note_on,,59,0,6,,,,,,,,,,,,,,,,2,,52,0
5939,note_on,,59,0,5,,,,,,,,,,,,,,,,1,,72,0
5939,note_on,,0,0,15,,,,,,,,,,,,,,,,15,,60,0
5939,note_on,,59,0,15,,,,,,,,,,,,,,,,15,,52,0
5939,note_on,,59,0,8,,,,,,,,,,,,,,,,6,,67,0
5939,note_on,,59,0,7,,,,,,,,,,,,,,,,5,,72,0
5939,note_on,,59,0,12,,,,,,,,,,,,,,,,11,,79,0
5939,note_on,,59,0,11,,,,,,,,,,,,,,,,10,,72,0
5939,note_on,,59,0,14,,,,,,,,,,,,,,,,13,,52,0
5940,note_on,,1,0,15,,,,,,,,,,,,,,,,15,,48,72
5940,note_on,,0,0,15,,,,,,,,,,,,,,,,15,,64,72
5940,note_on,,1,0,6,,,,,,,,,,,,,,,,2,,48,72
5940,note_on,,1,0,12,,,,,,,,,,,,,,,,11,,82,72
5940,note_on,,1,0,5,,,,,,,,,,,,,,,,1,,72,72
5940,note_on,,1,0,8,,,,,,,,,,,,,,,,6,,70,72
5940,note_on,,1,0,11,,,,,,,,,,,,,,,,10,,72,72
5940,note_on,,1,0,14,,,,,,,,,,,,,,,,13,,48,72
5940,note_on,,1,0,7,,,,,,,,,,,,,,,,5,,72,72
5999,note_on,,59,0,14,,,,,,,,,,,,,,,,13,,48,0
5999,note_on,,59,0,8,,,,,,,,,,,,,,,,6,,70,0
5999,note_on,,59,0,6,,,,,,,,,,,,,,,,2,,48,0
5999,note_on,,59,0,12,,,,,,,,,,,,,,,,11,,82,0
5999,note_on,,59,0,7,,,,,,,,,,,,,,,,5,,72,0
5999,note_on,,59,0,11,,,,,,,,,,,,,,,,10,,72,0
5999,note_on,,59,0,5,,,,,,,,,,,,,,,,1,,72,0
5999,note_on,,0,0,15,,,,,,,,,,,,,,,,15,,64,0
5999,note_on,,0,0,15,,,,,,,,,,,,,,,,15,,48,0
5999,note_on,,0,0,15,,,,,,,,,,,,,,,,15,,67,0
5999,note_on,,59,0,15,,,,,,,,,,,,,,,,15,,72,0
6000,note_on,,1,0,5,,,,,,,,,,,,,,,,1,,72,72
6000,note_on,,1,0,7,,,,,,,,,,,,,,,,5,,72,72
6000,note_on,,1,0,14,,,,,,,,,,,,,,,,13,,41,72
6000,note_on,,1,0,8,,,,,,,,,,,,,,,,6,,69,72
6000,note_on,,1,0,11,,,,,,,,,,,,,,,,10,,72,72
6000,note_on,,1,0,12,,,,,,,,,,,,,,,,11,,81,72
6000,note_on,,1,0,6,,,,,,,,,,,,,,,,2,,41,72
6000,note_on,,1,0,15,,,,,,,,,,,,,,,,15,,41,72
6000,note_on,,0,0,15,,,,,,,,,,,,,,,,15,,60,72
6000,note_on,,0,0,15,,,,,,,,,,,,,,,,15,,65,72
6000,note_on,,0,0,15,,,,,,,,,,,,,,,,15,,69,72
6029,note_on,,29,0,12,,,,,,,,,,,,,,,,11,,81,0
6029,note_on,,29,0,8,,,,,,,,,,,,,,,,6,,69,0
6030,note_on,,1,0,8,,,,,,,,,,,,,,,,6,,67,72
6030,note_on,,1,0,12,,,,,,,,,,,,,,,,11,,79,72
6059,note_on,,29,0,12,,,,,,,,,,,,,,,,11,,79,0
6059,note_on,,59,0,14,,,,,,,,,,,,,,,,13,,41,0
6059,note_on,,59,0,6,,,,,,,,,,,,,,,,2,,41,0
6059,note_on,,59,0,15,,,,,,,,,,,,,,,,15,,41,0
6059,note_on,,29,0,8,,,,,,,,,,,,,,,,6,,67,0
6060,note_on,,1,0,15,,,,,,,,,,,,,,,,15,,53,72
6060,note_on,,1,0,6,,,,,,,,,,,,,,,,2,,53,72
6060,note_on,,1,0,14,,,,,,,,,,,,,,,,13,,53,72
6060,note_on,,1,0,12,,,,,,,,,,,,,,,,11,,77,72
6060,note_on,,1,0,8,,,,,,,,,,,,,,,,6,,65,72
6089,note_on,,29,0,12,,,,,,,,,,,,,,,,11,,77,0
6089,note_on,,29,0,8,,,,,,,,,,,,,,,,6,,65,0
6090,note_on,,1,0,8,,,,,,,,,,,,,,,,6,,69,72
6090,note_on,,1,0,12,,,,,,,,,,,,,,,,11,,81,72
6119,note_on,,119,0,5,,,,,,,,,,,,,,,,1,,72,0
6119,note_on,,59,0,15,,,,,,,,,,,,,,,,15,,69,0
6119,note_on,,59,0,6,,,,,,,,,,,,,,,,2,,53,0
6119,note_on,,0,0,15,,,,,,,,,,,,,,,,15,,65,0
6119,note_on,,59,0,14,,,,,,,,,,,,,,,,13,,53,0
6119,note_on,,29,0,8,,,,,,,,,,,,,,,,6,,69,0
6119,note_on,,119,0,11,,,,,,,,,,,,,,,,10,,72,0
6119,note_on,,0,0,15,,,,,,,,,,,,,,,,15,,60,0
6119,note_on,,0,0,15,,,,,,,,,,,,,,,,15,,53,0
6119,note_on,,119,0,7,,,,,,,,,,,,,,,,5,,72,0
6119,note_on,,29,0,12,,,,,,,,,,,,,,,,11,,81,0
6120,note_on,,1,0,11,,,,,,,,,,,,,,,,10,,72,72
6120,note_on,,1,0,15,,,,,,,,,,,,,,,,15,,52,72
6120,note_on,,0,0,15,,,,,,,,,,,,,,,,15,,67,72
6120,note_on,,1,0,7,,,,,,,,,,,,,,,,5,,72,72
6120,note_on,,1,0,8,,,,,,,,,,,,,,,,6,,67,72
6120,note_on,,0,0,15,,,,,,,,,,,,,,,,15,,60,72
6120,note_on,,1,0,6,,,,,,,,,,,,,,,,2,,52,72
6120,note_on,,1,0,5,,,,,,,,,,,,,,,,1,,72,72
6120,note_on,,1,0,12,,,,,,,,,,,,,,,,11,,79,72
6120,note_on,,1,0,14,,,,,,,,,,,,,,,,13,,52,72
6149,note_on,,29,0,8,,,,,,,,,,,,,,,,6,,67,0
6149,note_on,,29,0,12,,,,,,,,,,,,,,,,11,,79,0
6150,note_on,,1,0,8,,,,,,,,,,,,,,,,6,,65,72
6150,note_on,,1,0,12,,,,,,,,,,,,,,,,11,,77,72
6179,note_on,,59,0,6,,,,,,,,,,,,,,,,2,,52,0
6179,note_on,,29,0,12,,,,,,,,,,,,,,,,11,,77,0
6179,note_on,,0,0,15,,,,,,,,,,,,,,,,15,,67,0
6179,note_on,,59,0,14,,,,,,,,,,,,,,,,13,,52,0
6179,note_on,,29,0,8,,,,,,,,,,,,,,,,6,,65,0
6179,note_on,,59,0,15,,,,,,,,,,,,,,,,15,,52,0
6180,note_on,,1,0,6,,,,,,,,,,,,,,,,2,,48,72
6180,note_on,,0,0,15,,,,,,,,,,,,,,,,15,,64,72
6180,note_on,,1,0,8,,,,,,,,,,,,,,,,6,,64,72
6180,note_on,,1,0,12,,,,,,,,,,,,,,,,11,,76,72
6180,note_on,,1,0,15,,,,,,,,,,,,,,,,15,,48,72
6180,note_on,,1,0,14,,,,,,,,,,,,,,,,13,,48,72
6209,note_on,,29,0,8,,,,,,,,,,,,,,,,6,,64,0
6209,note_on,,29,0,12,,,,,,,,,,,,,,,,11,,76,0
6210,note_on,,1,0,8,,,,,,,,,,,,,,,,6,,67,72
6210,note_on,,1,0,12,,,,,,,,,,,,,,,,11,,79,72
6239,note_on,,59,0,6,,,,,,,,,,,,,,,,2,,48,0
6239,note_on,,29,0,8,,,,,,,,,,,,,,,,6,,67,0
6239,note_on,,119,0,11,,,,,,,,,,,,,,,,10,,72,0
6239,note_on,,119,0,7,,,,,,,,,,,,,,,,5,,72,0
6239,note_on,,59,0,14,,,,,,,,,,,,,,,,13,,48,0
6239,note_on,,59,0,15,,,,,,,,,,,,,,,,15,,60,0
6239,note_on,,0,0,15,,,,,,,,,,,,,,,,15,,48,0
6239,note_on,,0,0,15,,,,,,,,,,,,,,,,15,,64,0
6239,note_on,,119,0,5,,,,,,,,,,,,,,,,1,,72,0
6239,note_on,,29,0,12,,,,,,,,,,,,,,,,11,,79,0
6240,note_on,,1,0,15,,,,,,,,,,,,,,,,15,,41,72
6240,note_on,,1,0,5,,,,,,,,,,,,,,,,1,,72,72
6240,note_on,,1,0,14,,,,,,,,,,,,,,,,13,,41,72
6240,note_on,,1,0,11,,,,,,,,,,,,,,,,10,,72,72
6240,note_on,,1,0,12,,,,,,,,,,,,,,,,11,,81,72
6240,note_on,,0,0,15,,,,,,,,,,,,,,,,15,,69,72
6240,note_on,,1,0,7,,,,,,,,,,,,,,,,5,,72,72
6240,note_on,,0,0,15,,,,,,,,,,,,,,,,15,,65,72
6240,note_on,,0,0,15,,,,,,,,,,,,,,,,15,,60,72
6240,note_on,,1,0,6,,,,,,,,,,,,,,,,2,,41,72
6240,note_on,,1,0,8,,,,,,,,,,,,,,,,6,,69,72
6269,note_on,,29,0,12,,,,,,,,,,,,,,,,11,,81,0
6269,note_on,,29,0,8,,,,,,,,,,,,,,,,6,,69,0
6270,note_on,,1,0,12,,,,,,,,,,,,,,,,11,,79,72
6270,note_on,,1,0,8,,,,,,,,,,,,,,,,6,,67,72
6299,note_on,,59,0,15,,,,,,,,,,,,,,,,15,,41,0
6299,note_on,,59,0,14,,,,,,,,,,,,,,,,13,,41,0
6299,note_on,,29,0,12,,,,,,,,,,,,,,,,11,,79,0
6299,note_on,,29,0,8,,,,,,,,,,,,,,,,6,,67,0
6299,note_on,,59,0,6,,,,,,,,,,,,,,,,2,,41,0
6300,note_on,,1,0,12,,,,,,,,,,,,,,,,11,,77,72
6300,note_on,,1,0,14,,,,,,,,,,,,,,,,13,,53,72
6300,note_on,,1,0,15,,,,,,,,,,,,,,,,15,,53,72
6300,note_on,,1,0,8,,,,,,,,,,,,,,,,6,,65,72
6300,note_on,,1,0,6,,,,,,,,,,,,,,,,2,,53,72
6329,note_on,,29,0,8,,,,,,,,,,,,,,,,6,,65,0
6329,note_on,,29,0,12,,,,,,,,,,,,,,,,11,,77,0
6330,note_on,,1,0,8,,,,,,,,,,,,,,,,6,,69,72
6330,note_on,,1,0,12,,,,,,,,,,,,,,,,11,,81,72
6359,note_on,,119,0,11,,,,,,,,,,,,,,,,10,,72,0
6359,note_on,,119,0,5,,,,,,,,,,,,,,,,1,,72,0
6359,note_on,,59,0,6,,,,,,,,,,,,,,,,2,,53,0
6359,note_on,,0,0,15,,,,,,,,,,,,,,,,15,,53,0
6359,note_on,,0,0,15,,,,,,,,,,,,,,,,15,,65,0
6359,note_on,,59,0,15,,,,,,,,,,,,,,,,15,,69,0
6359,note_on,,119,0,7,,,,,,,,,,,,,,,,5,,72,0
6359,note_on,,29,0,12,,,,,,,,,,,,,,,,11,,81,0
6359,note_on,,29,0,8,,,,,,,,,,,,,,,,6,,69,0
6359,note_on,,59,0,14,,,,,,,,,,,,,,,,13,,53,0
6359,note_on,,0,0,15,,,,,,,,,,,,,,,,15,,60,0
6360,note_on,,0,0,15,,,,,,,,,,,,,,,,15,,60,72
6360,note_on,,1,0,5,,,,,,,,,,,,,,,,1,,72,72
6360,note_on,,1,0,7,,,,,,,,,,,,,,,,5,,72,72
6360,note_on,,1,0,12,,,,,,,,,,,,,,,,11,,79,72
6360,note_on,,1,0,15,,,,,,,,,,,,,,,,15,,52,72
6360,note_on,,0,0,15,,,,,,,,,,,,,,,,15,,67,72
6360,note_on,,1,0,11,,,,,,,,,,,,,,,,10,,72,72
6360,note_on,,1,0,6,,,,,,,,,,,,,,,,2,,52,72
6360,note_on,,1,0,8,,,,,,,,,,,,,,,,6,,67,72
6360,note_on,,1,0,14,,,,,,,,,,,,,,,,13,,52,72
6389,note_on,,29,0,8,,,,,,,,,,,,,,,,6,,67,0
6389,note_on,,29,0,12,,,,,,,,,,,,,,,,11,,79,0
6390,note_on,,1,0,8,,,,,,,,,,,,,,,,6,,69,72
6390,note_on,,1,0,12,,,,,,,,,,,,,,,,11,,81,72
6419,note_on,,59,0,14,,,,,,,,,,,,,,,,13,,52,0
6419,note_on,,59,0,6,,,,,,,,,,,,,,,,2,,52,0
6419,note_on,,29,0,12,,,,,,,,,,,,,,,,11,,81,0
6419,note_on,,0,0,15,,,,,,,,,,,,,,,,15,,67,0
6419,note_on,,29,0,8,,,,,,,,,,,,,,,,6,,69,0
6419,note_on,,59,0,15,,,,,,,,,,,,,,,,15,,52,0
6420,note_on,,0,0,15,,,,,,,,,,,,,,,,15,,64,72
6420,note_on,,1,0,15,,,,,,,,,,,,,,,,15,,55,72
6420,note_on,,1,0,8,,,,,,,,,,,,,,,,6,,70,72
6420,note_on,,1,0,6,,,,,,,,,,,,,,,,2,,55,72
6420,note_on,,1,0,14,,,,,,,,,,,,,,,,13,,55,72
6420,note_on,,1,0,12,,,,,,,,,,,,,,,,11,,82,72
6449,note_on,,29,0,12,,,,,,,,,,,,,,,,11,,82,0
6449,note_on,,29,0,8,,,,,,,,,,,,,,,,6,,70,0
6450,note_on,,1,0,12,,,,,,,,,,,,,,,,11,,79,72
6450,note_on,,1,0,8,,,,,,,,,,,,,,,,6,,67,72
6479,note_on,,0,0,15,,,,,,,,,,,,,,,,15,,64,0
6479,note_on,,0,0,15,,,,,,,,,,,,,,,,15,,55,0
6479,note_on,,119,0,11,,,,,,,,,,,,,,,,10,,72,0
6479,note_on,,59,0,15,,,,,,,,,,,,,,,,15,,60,0
6479,note_on,,119,0,5,,,,,,,,,,,,,,,,1,,72,0
6479,note_on,,59,0,6,,,,,,,,,,,,,,,,2,,55,0
6479,note_on,,29,0,8,,,,,,,,,,,,,,,,6,,67,0
6479,note_on,,59,0,14,,,,,,,,,,,,,,,,13,,55,0
6479,note_on,,29,0,12,,,,,,,,,,,,,,,,11,,79,0
6479,note_on,,119,0,7,,,,,,,,,,,,,,,,5,,72,0
6480,note_on,,1,0,12,,,,,,,,,,,,,,,,11,,81,72
6480,note_on,,1,0,14,,,,,,,,,,,,,,,,13,,53,72
6480,note_on,,1,0,15,,,,,,,,,,,,,,,,15,,53,72
6480,note_on,,0,0,15,,,,,,,,,,,,,,,,15,,69,72
6480,note_on,,0,0,15,,,,,,,,,,,,,,,,15,,65,72
6480,note_on,,1,0,7,,,,,,,,,,,,,,,,5,,72,72
6480,note_on,,1,0,5,,,,,,,,,,,,,,,,1,,72,72
6480,note_on,,1,0,6,,,,,,,,,,,,,,,,2,,53,72
6480,note_on,,1,0,11,,,,,,,,,,,,,,,,10,,72,72
6480,note_on,,0,0,15,,,,,,,,,,,,,,,,15,,60,72
6480,note_on,,1,0,8,,,,,,,,,,,,,,,,6,,69,72
6509,note_on,,29,0,8,,,,,,,,,,,,,,,,6,,69,0
6509,note_on,,29,0,12,,,,,,,,,,,,,,,,11,,81,0
6510,note_on,,1,0,12,,,,,,,,,,,,,,,,11,,79,72
6510,note_on,,1,0,8,,,,,,,,,,,,,,,,6,,67,72
6539,note_on,,59,0,6,,,,,,,,,,,,,,,,2,,53,0
6539,note_on,,59,0,14,,,,,,,,,,,,,,,,13,,53,0
6539,note_on,,59,0,15,,,,,,,,,,,,,,,,15,,53,0
6539,note_on,,0,0,15,,,,,,,,,,,,,,,,15,,69,0
6539,note_on,,29,0,12,,,,,,,,,,,,,,,,11,,79,0
6539,note_on,,29,0,8,,,,,,,,,,,,,,,,6,,67,0
6540,note_on,,1,0,8,,,,,,,,,,,,,,,,6,,65,72
6540,note_on,,0,0,15,,,,,,,,,,,,,,,,15,,72,72
6540,note_on,,1,0,15,,,,,,,,,,,,,,,,15,,57,72
6540,note_on,,1,0,14,,,,,,,,,,,,,,,,13,,57,72
6540,note_on,,1,0,6,,,,,,,,,,,,,,,,2,,57,72
6540,note_on,,1,0,12,,,,,,,,,,,,,,,,11,,77,72
6569,note_on,,29,0,8,,,,,,,,,,,,,,,,6,,65,0
6569,note_on,,29,0,12,,,,,,,,,,,,,,,,11,,77,0
6570,note_on,,1,0,12,,,,,,,,,,,,,,,,11,,81,72
6570,note_on,,1,0,8,,,,,,,,,,,,,,,,6,,69,72
6599,note_on,,29,0,12,,,,,,,,,,,,,,,,11,,81,0
6599,note_on,,0,0,15,,,,,,,,,,,,,,,,15,,72,0
6599,note_on,,0,0,15,,,,,,,,,,,,,,,,15,,57,0
6599,note_on,,59,0,14,,,,,,,,,,,,,,,,13,,57,0
6599,note_on,,29,0,8,,,,,,,,,,,,,,,,6,,69,0
6599,note_on,,59,0,6,,,,,,,,,,,,,,,,2,,57,0
6599,note_on,,59,0,15,,,,,,,,,,,,,,,,15,,60,0
6600,note_on,,0,0,15,,,,,,,,,,,,,,,,15,,67,72
6600,note_on,,1,0,8,,,,,,,,,,,,,,,,6,,67,72
6600,note_on,,1,0,12,,,,,,,,,,,,,,,,11,,79,72
6600,note_on,,1,0,6,,,,,,,,,,,,,,,,2,,60,72
6600,note_on,,1,0,14,,,,,,,,,,,,,,,,13,,60,72
6600,note_on,,1,0,15,,,,,,,,,,,,,,,,15,,60,72
6629,note_on,,29,0,8,,,,,,,,,,,,,,,,6,,67,0
6629,note_on,,29,0,12,,,,,,,,,,,,,,,,11,,79,0
6630,note_on,,1,0,12,,,,,,,,,,,,,,,,11,,81,72
6630,note_on,,1,0,8,,,,,,,,,,,,,,,,6,,69,72
6659,note_on,,29,0,8,,,,,,,,,,,,,,,,6,,69,0
6659,note_on,,0,0,15,,,,,,,,,,,,,,,,15,,60,0
6659,note_on,,59,0,6,,,,,,,,,,,,,,,,2,,60,0
6659,note_on,,59,0,15,,,,,,,,,,,,,,,,15,,65,0
6659,note_on,,59,0,14,,,,,,,,,,,,,,,,13,,60,0
6659,note_on,,29,0,12,,,,,,,,,,,,,,,,11,,81,0
6660,note_on,,1,0,14,,,,,,,,,,,,,,,,13,,48,72
6660,note_on,,1,0,12,,,,,,,,,,,,,,,,11,,82,72
6660,note_on,,1,0,15,,,,,,,,,,,,,,,,15,,48,72
6660,note_on,,1,0,6,,,,,,,,,,,,,,,,2,,48,72
6660,note_on,,1,0,8,,,,,,,,,,,,,,,,6,,70,72
6660,note_on,,0,0,15,,,,,,,,,,,,,,,,15,,64,72
6689,note_on,,29,0,8,,,,,,,,,,,,,,,,6,,70,0
6689,note_on,,29,0,12,,,,,,,,,,,,,,,,11,,82,0
6690,note_on,,1,0,8,,,,,,,,,,,,,,,,6,,67,72
6690,note_on,,1,0,12,,,,,,,,,,,,,,,,11,,79,72
6719,note_on,,239,0,7,,,,,,,,,,,,,,,,5,,72,0
6719,note_on,,29,0,12,,,,,,,,,,,,,,,,11,,79,0
6719,note_on,,59,0,6,,,,,,,,,,,,,,,,2,,48,0
6719,note_on,,239,0,11,,,,,,,,,,,,,,,,10,,72,0
6719,note_on,,59,0,14,,,,,,,,,,,,,,,,13,,48,0
6719,note_on,,29,0,8,,,,,,,,,,,,,,,,6,,67,0
6719,note_on,,239,0,5,,,,,,,,,,,,,,,,1,,72,0
6719,note_on,,0,0,15,,,,,,,,,,,,,,,,15,,64,0
6719,note_on,,0,0,15,,,,,,,,,,,,,,,,15,,48,0
6719,note_on,,59,0,15,,,,,,,,,,,,,,,,15,,67,0
6720,note_on,,1,0,14,,,,,,,,,,,,,,,,13,,41,72
6720,note_on,,1,0,8,,,,,,,,,,,,,,,,6,,69,72
6720,note_on,,1,0,12,,,,,,,,,,,,,,,,11,,81,72
6720,note_on,,1,0,15,,,,,,,,,,,,,,,,15,,41,72
6720,note_on,,0,0,15,,,,,,,,,,,,,,,,15,,69,72
6720,note_on,,1,0,6,,,,,,,,,,,,,,,,2,,41,72
6720,note_on,,0,0,15,,,,,,,,,,,,,,,,15,,65,72
6720,note_on,,0,0,15,,,,,,,,,,,,,,,,15,,60,72
6779,note_on,,59,0,8,,,,,,,,,,,,,,,,6,,69,0
6779,note_on,,59,0,15,,,,,,,,,,,,,,,,15,,41,0
6779,note_on,,59,0,12,,,,,,,,,,,,,,,,11,,81,0
6779,note_on,,59,0,14,,,,,,,,,,,,,,,,13,,41,0
6779,note_on,,59,0,6,,,,,,,,,,,,,,,,2,,41,0
6780,note_on,,1,0,14,,,,,,,,,,,,,,,,13,,53,72
6780,note_on,,1,0,15,,,,,,,,,,,,,,,,15,,53,72
6780,note_on,,1,0,8,,,,,,,,,,,,,,,,6,,65,72
6780,note_on,,1,0,6,,,,,,,,,,,,,,,,2,,53,72
6780,note_on,,1,0,12,,,,,,,,,,,,,,,,11,,77,72
6839,note_on,,59,0,6,,,,,,,,,,,,,,,,2,,53,0
6839,note_on,,59,0,14,,,,,,,,,,,,,,,,13,,53,0
6839,note_on,,59,0,12,,,,,,,,,,,,,,,,11,,77,0
6839,note_on,,59,0,8,,,,,,,,,,,,,,,,6,,65,0
6839,note_on,,0,0,15,,,,,,,,,,,,,,,,15,,65,0
6839,note_on,,59,0,15,,,,,,,,,,,,,,,,15,,69,0
6839,note_on,,0,0,15,,,,,,,,,,,,,,,,15,,60,0
6839,note_on,,0,0,15,,,,,,,,,,,,,,,,15,,53,0
6840,note_on,,1,0,15,,,,,,,,,,,,,,,,15,,52,72
6840,note_on,,1321,0,9,,,,,,,,,,,,,,,,7,,60,72
6840,note_on,,1,0,14,,,,,,,,,,,,,,,,13,,52,72
6840,note_on,,1,0,12,,,,,,,,,,,,,,,,11,,72,72
6840,note_on,,0,0,15,,,,,,,,,,,,,,,,15,,67,72
6840,note_on,,121,0,11,,,,,,,,,,,,,,,,10,,72,72
6840,note_on,,1,0,6,,,,,,,,,,,,,,,,2,,52,72
6840,note_on,,1,0,8,,,,,,,,,,,,,,,,6,,60,72
6840,note_on,,0,0,15,,,,,,,,,,,,,,,,15,,60,72
6899,note_on,,59,0,15,,,,,,,,,,,,,,,,15,,52,0
6899,note_on,,59,0,11,,,,,,,,,,,,,,,,10,,72,0
6899,note_on,,59,0,12,,,,,,,,,,,,,,,,11,,72,0
6899,note_on,,59,0,9,,,,,,,,,,,,,,,,7,,60,0
6899,note_on,,59,0,8,,,,,,,,,,,,,,,,6,,60,0
6899,note_on,,0,0,15,,,,,,,,,,,,,,,,15,,67,0
6899,note_on,,59,0,14,,,,,,,,,,,,,,,,13,,52,0
6899,note_on,,0,0,15,,,,,,,,,,,,,,,,15,,60,0
6899,note_on,,59,0,6,,,,,,,,,,,,,,,,2,,52,0
6900,note_on,,1,0,9,,,,,,,,,,,,,,,,7,,60,72
6900,note_on,,0,0,15,,,,,,,,,,,,,,,,15,,62,72
6900,note_on,,1,0,8,,,,,,,,,,,,,,,,6,,62,72
6900,note_on,,1,0,6,,,,,,,,,,,,,,,,2,,50,72
6900,note_on,,0,0,15,,,,,,,,,,,,,,,,15,,65,72
6900,note_on,,0,0,15,,,,,,,,,,,,,,,,15,,71,72
6900,note_on,,1,0,14,,,,,,,,,,,,,,,,13,,50,72
6900,note_on,,1,0,11,,,,,,,,,,,,,,,,10,,74,72
6900,note_on,,1,0,12,,,,,,,,,,,,,,,,11,,72,72
6900,note_on,,1,0,15,,,,,,,,,,,,,,,,15,,50,72
6959,note_on,,0,0,15,,,,,,,,,,,,,,,,15,,62,0
6959,note_on,,59,0,15,,,,,,,,,,,,,,,,15,,50,0
6959,note_on,,0,0,15,,,,,,,,,,,,,,,,15,,71,0
6959,note_on,,59,0,14,,,,,,,,,,,,,,,,13,,50,0
6959,note_on,,59,0,11,,,,,,,,,,,,,,,,10,,74,0
6959,note_on,,59,0,6,,,,,,,,,,,,,,,,2,,50,0
6959,note_on,,59,0,12,,,,,,,,,,,,,,,,11,,72,0
6959,note_on,,59,0,8,,,,,,,,,,,,,,,,6,,62,0
6959,note_on,,59,0,9,,,,,,,,,,,,,,,,7,,60,0
6959,note_on,,0,0,15,,,,,,,,,,,,,,,,15,,65,0
6960,note_on,,1,0,14,,,,,,,,,,,,,,,,13,,48,72
6960,note_on,,1,0,11,,,,,,,,,,,,,,,,10,,76,72
6960,note_on,,1,0,12,,,,,,,,,,,,,,,,11,,72,72
6960,note_on,,0,0,15,,,,,,,,,,,,,,,,15,,72,72
6960,note_on,,1,0,15,,,,,,,,,,,,,,,,15,,48,72
6960,note_on,,0,0,15,,,,,,,,,,,,,,,,15,,67,72
6960,note_on,,0,0,15,,,,,,,,,,,,,,,,15,,64,72
6960,note_on,,1,0,6,,,,,,,,,,,,,,,,2,,48,72
6960,note_on,,1,0,9,,,,,,,,,,,,,,,,7,,60,72
6960,note_on,,1,0,8,,,,,,,,,,,,,,,,6,,64,72
7019,note_on,,59,0,8,,,,,,,,,,,,,,,,6,,64,0
7019,note_on,,59,0,6,,,,,,,,,,,,,,,,2,,48,0
7019,note_on,,59,0,11,,,,,,,,,,,,,,,,10,,76,0
7019,note_on,,59,0,14,,,,,,,,,,,,,,,,13,,48,0
7019,note_on,,0,0,15,,,,,,,,,,,,,,,,15,,64,0
7019,note_on,,0,0,15,,,,,,,,,,,,,,,,15,,67,0
7019,note_on,,0,0,15,,,,,,,,,,,,,,,,15,,72,0
7019,note_on,,59,0,15,,,,,,,,,,,,,,,,15,,48,0
7020,note_on,,1,0,14,,,,,,,,,,,,,,,,13,,46,72
7020,note_on,,0,0,15,,,,,,,,,,,,,,,,15,,55,72
7020,note_on,,0,0,15,,,,,,,,,,,,,,,,15,,60,72
7020,note_on,,1,0,8,,,,,,,,,,,,,,,,6,,60,72
7020,note_on,,1,0,11,,,,,,,,,,,,,,,,10,,72,72
7020,note_on,,0,0,15,,,,,,,,,,,,,,,,15,,64,72
7020,note_on,,1,0,15,,,,,,,,,,,,,,,,15,,46,72
7020,note_on,,1,0,6,,,,,,,,,,,,,,,,2,,46,72
7079,note_on,,59,0,8,,,,,,,,,,,,,,,,6,,60,0
7079,note_on,,59,0,6,,,,,,,,,,,,,,,,2,,46,0
7079,note_on,,0,0,15,,,,,,,,,,,,,,,,15,,60,0
7079,note_on,,0,0,15,,,,,,,,,,,,,,,,15,,55,0
7079,note_on,,59,0,15,,,,,,,,,,,,,,,,15,,46,0
7079,note_on,,119,0,12,,,,,,,,,,,,,,,,11,,72,0
7079,note_on,,119,0,9,,,,,,,,,,,,,,,,7,,60,0
7079,note_on,,59,0,14,,,,,,,,,,,,,,,,13,,46,0
7079,note_on,,59,0,11,,,,,,,,,,,,,,,,10,,72,0
7079,note_on,,0,0,15,,,,,,,,,,,,,,,,15,,64,0
7080,note_on,,1,0,6,,,,,,,,,,,,,,,,2,,45,72
7080,note_on,,1,0,9,,,,,,,,,,,,,,,,7,,60,72
7080,note_on,,1,0,8,,,,,,,,,,,,,,,,6,,65,72
7080,note_on,,1,0,15,,,,,,,,,,,,,,,,15,,45,72
7080,note_on,,1,0,11,,,,,,,,,,,,,,,,10,,77,72
7080,note_on,,0,0,15,,,,,,,,,,,,,,,,15,,57,72
7080,note_on,,0,0,15,,,,,,,,,,,,,,,,15,,60,72
7080,note_on,,0,0,15,,,,,,,,,,,,,,,,15,,65,72
7080,note_on,,1,0,14,,,,,,,,,,,,,,,,13,,45,72
7080,note_on,,1,0,12,,,,,,,,,,,,,,,,11,,72,72
7139,note_on,,59,0,11,,,,,,,,,,,,,,,,10,,77,0
7139,note_on,,59,0,14,,,,,,,,,,,,,,,,13,,45,0
7139,note_on,,59,0,8,,,,,,,,,,,,,,,,6,,65,0
7139,note_on,,0,0,15,,,,,,,,,,,,,,,,15,,60,0
7139,note_on,,59,0,6,,,,,,,,,,,,,,,,2,,45,0
7139,note_on,,59,0,15,,,,,,,,,,,,,,,,15,,45,0
7139,note_on,,0,0,15,,,,,,,,,,,,,,,,15,,65,0
7139,note_on,,0,0,15,,,,,,,,,,,,,,,,15,,57,0
7140,note_on,,1,0,8,,,,,,,,,,,,,,,,6,,67,72
7140,note_on,,1,0,6,,,,,,,,,,,,,,,,2,,43,72
7140,note_on,,1,0,15,,,,,,,,,,,,,,,,15,,43,72
7140,note_on,,1,0,14,,,,,,,,,,,,,,,,13,,43,72
7140,note_on,,0,0,15,,,,,,,,,,,,,,,,15,,58,72
7140,note_on,,1,0,11,,,,,,,,,,,,,,,,10,,79,72
7140,note_on,,0,0,15,,,,,,,,,,,,,,,,15,,67,72
7140,note_on,,0,0,15,,,,,,,,,,,,,,,,15,,64,72
7199,note_on,,59,0,11,,,,,,,,,,,,,,,,10,,79,0
7199,note_on,,119,0,12,,,,,,,,,,,,,,,,11,,72,0
7199,note_on,,59,0,15,,,,,,,,,,,,,,,,15,,43,0
7199,note_on,,119,0,9,,,,,,,,,,,,,,,,7,,60,0
7199,note_on,,0,0,15,,,,,,,,,,,,,,,,15,,64,0
7199,note_on,,0,0,15,,,,,,,,,,,,,,,,15,,58,0
7199,note_on,,59,0,6,,,,,,,,,,,,,,,,2,,43,0
7199,note_on,,59,0,8,,,,,,,,,,,,,,,,6,,67,0
7199,note_on,,0,0,15,,,,,,,,,,,,,,,,15,,67,0
7199,note_on,,59,0,14,,,,,,,,,,,,,,,,13,,43,0
7200,note_on,,1,0,9,,,,,,,,,,,,,,,,7,,60,72
7200,note_on,,1,0,12,,,,,,,,,,,,,,,,11,,72,72
7200,note_on,,1,0,11,,,,,,,,,,,,,,,,10,,81,72
7200,note_on,,1,0,6,,,,,,,,,,,,,,,,2,,41,72
7200,note_on,,1,0,14,,,,,,,,,,,,,,,,13,,41,72
7200,note_on,,1,0,8,,,,,,,,,,,,,,,,6,,69,72
7200,note_on,,1,0,15,,,,,,,,,,,,,,,,15,,41,72
7200,note_on,,0,0,15,,,,,,,,,,,,,,,,15,,69,72
7200,note_on,,0,0,15,,,,,,,,,,,,,,,,15,,65,72
7200,note_on,,0,0,15,,,,,,,,,,,,,,,,15,,60,72
7259,note_on,,59,0,8,,,,,,,,,,,,,,,,6,,69,0
7259,note_on,,59,0,11,,,,,,,,,,,,,,,,10,,81,0
7259,note_on,,59,0,6,,,,,,,,,,,,,,,,2,,41,0
7259,note_on,,59,0,14,,,,,,,,,,,,,,,,13,,41,0
7259,note_on,,0,0,15,,,,,,,,,,,,,,,,15,,69,0
7259,note_on,,0,0,15,,,,,,,,,,,,,,,,15,,65,0
7259,note_on,,0,0,15,,,,,,,,,,,,,,,,15,,60,0
7259,note_on,,59,0,15,,,,,,,,,,,,,,,,15,,41,0
7260,note_on,,1,0,8,,,,,,,,,,,,,,,,6,,64,72
7260,note_on,,0,0,15,,,,,,,,,,,,,,,,15,,64,72
7260,note_on,,0,0,15,,,,,,,,,,,,,,,,15,,67,72
7260,note_on,,0,0,15,,,,,,,,,,,,,,,,15,,60,72
7260,note_on,,1,0,15,,,,,,,,,,,,,,,,15,,48,72
7260,note_on,,1,0,14,,,,,,,,,,,,,,,,13,,48,72
7260,note_on,,1,0,6,,,,,,,,,,,,,,,,2,,48,72
7260,note_on,,1,0,11,,,,,,,,,,,,,,,,10,,76,72
7319,note_on,,119,0,12,,,,,,,,,,,,,,,,11,,72,0
7319,note_on,,59,0,14,,,,,,,,,,,,,,,,13,,48,0
7319,note_on,,59,0,11,,,,,,,,,,,,,,,,10,,76,0
7319,note_on,,119,0,9,,,,,,,,,,,,,,,,7,,60,0
7319,note_on,,59,0,15,,,,,,,,,,,,,,,,15,,48,0
7319,note_on,,0,0,15,,,,,,,,,,,,,,,,15,,60,0
7319,note_on,,59,0,8,,,,,,,,,,,,,,,,6,,64,0
7319,note_on,,0,0,15,,,,,,,,,,,,,,,,15,,67,0
7319,note_on,,59,0,6,,,,,,,,,,,,,,,,2,,48,0
7319,note_on,,0,0,15,,,,,,,,,,,,,,,,15,,64,0
7320,note_on,,1,0,15,,,,,,,,,,,,,,,,15,,50,72
7320,note_on,,0,0,15,,,,,,,,,,,,,,,,15,,65,72
7320,note_on,,1,0,12,,,,,,,,,,,,,,,,11,,72,72
7320,note_on,,1,0,9,,,,,,,,,,,,,,,,7,,60,72
7320,note_on,,0,0,15,,,,,,,,,,,,,,,,15,,57,72
7320,note_on,,1,0,14,,,,,,,,,,,,,,,,13,,50,72
7320,note_on,,1,0,11,,,,,,,,,,,,,,,,10,,77,72
7320,note_on,,1,0,8,,,,,,,,,,,,,,,,6,,65,72
7320,note_on,,1,0,6,,,,,,,,,,,,,,,,2,,50,72
7379,note_on,,59,0,8,,,,,,,,,,,,,,,,6,,65,0
7379,note_on,,59,0,14,,,,,,,,,,,,,,,,13,,50,0
7379,note_on,,0,0,15,,,,,,,,,,,,,,,,15,,57,0
7379,note_on,,59,0,15,,,,,,,,,,,,,,,,15,,50,0
7379,note_on,,0,0,15,,,,,,,,,,,,,,,,15,,65,0
7379,note_on,,59,0,11,,,,,,,,,,,,,,,,10,,77,0
7379,note_on,,59,0,6,,,,,,,,,,,,,,,,2,,50,0
7380,note_on,,1,0,6,,,,,,,,,,,,,,,,2,,52,72
7380,note_on,,1,0,15,,,,,,,,,,,,,,,,15,,52,72
7380,note_on,,0,0,15,,,,,,,,,,,,,,,,15,,55,72
7380,note_on,,0,0,15,,,,,,,,,,,,,,,,15,,60,72
7380,note_on,,1,0,14,,,,,,,,,,,,,,,,13,,52,72
7380,note_on,,1,0,11,,,,,,,,,,,,,,,,10,,79,72
7380,note_on,,1,0,8,,,,,,,,,,,,,,,,6,,67,72
7439,note_on,,59,0,15,,,,,,,,,,,,,,,,15,,52,0
7439,note_on,,59,0,11,,,,,,,,,,,,,,,,10,,79,0
7439,note_on,,0,0,15,,,,,,,,,,,,,,,,15,,55,0
7439,note_on,,119,0,12,,,,,,,,,,,,,,,,11,,72,0
7439,note_on,,59,0,6,,,,,,,,,,,,,,,,2,,52,0
7439,note_on,,59,0,8,,,,,,,,,,,,,,,,6,,67,0
7439,note_on,,59,0,14,,,,,,,,,,,,,,,,13,,52,0
7439,note_on,,119,0,9,,,,,,,,,,,,,,,,7,,60,0
7440,note_on,,1,0,6,,,,,,,,,,,,,,,,2,,53,72
7440,note_on,,1,0,8,,,,,,,,,,,,,,,,6,,69,72
7440,note_on,,1,0,9,,,,,,,,,,,,,,,,7,,60,72
7440,note_on,,1,0,14,,,,,,,,,,,,,,,,13,,53,72
7440,note_on,,1,0,15,,,,,,,,,,,,,,,,15,,53,72
7440,note_on,,0,0,15,,,,,,,,,,,,,,,,15,,57,72
7440,note_on,,1,0,12,,,,,,,,,,,,,,,,11,,72,72
7440,note_on,,1,0,11,,,,,,,,,,,,,,,,10,,81,72
7499,note_on,,59,0,14,,,,,,,,,,,,,,,,13,,53,0
7499,note_on,,59,0,8,,,,,,,,,,,,,,,,6,,69,0
7499,note_on,,0,0,15,,,,,,,,,,,,,,,,15,,53,0
7499,note_on,,59,0,15,,,,,,,,,,,,,,,,15,,60,0
7499,note_on,,59,0,6,,,,,,,,,,,,,,,,2,,53,0
7499,note_on,,59,0,9,,,,,,,,,,,,,,,,7,,60,0
7499,note_on,,59,0,12,,,,,,,,,,,,,,,,11,,72,0
7499,note_on,,59,0,11,,,,,,,,,,,,,,,,10,,81,0
7500,note_on,,1,0,6,,,,,,,,,,,,,,,,2,,45,72
7500,note_on,,1,0,9,,,,,,,,,,,,,,,,7,,62,72
7500,note_on,,1,0,15,,,,,,,,,,,,,,,,15,,45,72
7500,note_on,,0,0,15,,,,,,,,,,,,,,,,15,,65,72
7500,note_on,,1,0,14,,,,,,,,,,,,,,,,13,,45,72
7500,note_on,,1,0,12,,,,,,,,,,,,,,,,11,,74,72
7500,note_on,,1,0,8,,,,,,,,,,,,,,,,6,,70,72
7500,note_on,,1,0,11,,,,,,,,,,,,,,,,10,,82,72
7529,note_on,,29,0,9,,,,,,,,,,,,,,,,7,,62,0
7529,note_on,,29,0,12,,,,,,,,,,,,,,,,11,,74,0
7529,note_on,,29,0,11,,,,,,,,,,,,,,,,10,,82,0
7529,note_on,,29,0,8,,,,,,,,,,,,,,,,6,,70,0
7530,note_on,,1,0,8,,,,,,,,,,,,,,,,6,,69,72
7530,note_on,,1,0,9,,,,,,,,,,,,,,,,7,,60,72
7530,note_on,,1,0,11,,,,,,,,,,,,,,,,10,,81,72
7530,note_on,,1,0,12,,,,,,,,,,,,,,,,11,,72,72
7559,note_on,,29,0,9,,,,,,,,,,,,,,,,7,,60,0
7559,note_on,,59,0,6,,,,,,,,,,,,,,,,2,,45,0
7559,note_on,,29,0,8,,,,,,,,,,,,,,,,6,,69,0
7559,note_on,,59,0,15,,,,,,,,,,,,,,,,15,,57,0
7559,note_on,,29,0,12,,,,,,,,,,,,,,,,11,,72,0
7559,note_on,,59,0,14,,,,,,,,,,,,,,,,13,,45,0
7559,note_on,,29,0,11,,,,,,,,,,,,,,,,10,,81,0
7559,note_on,,0,0,15,,,,,,,,,,,,,,,,15,,45,0
7560,note_on,,1,0,9,,,,,,,,,,,,,,,,7,,58,72
7560,note_on,,1,0,14,,,,,,,,,,,,,,,,13,,46,72
7560,note_on,,1,0,8,,,,,,,,,,,,,,,,6,,67,72
7560,note_on,,1,0,12,,,,,,,,,,,,,,,,11,,70,72
7560,note_on,,1,0,6,,,,,,,,,,,,,,,,2,,46,72
7560,note_on,,1,0,15,,,,,,,,,,,,,,,,15,,46,72
7560,note_on,,1,0,11,,,,,,,,,,,,,,,,10,,79,72
7560,note_on,,0,0,15,,,,,,,,,,,,,,,,15,,62,72
7619,note_on,,59,0,6,,,,,,,,,,,,,,,,2,,46,0
7619,note_on,,59,0,9,,,,,,,,,,,,,,,,7,,58,0
7619,note_on,,59,0,8,,,,,,,,,,,,,,,,6,,67,0
7619,note_on,,0,0,15,,,,,,,,,,,,,,,,15,,62,0
7619,note_on,,0,0,15,,,,,,,,,,,,,,,,15,,46,0
7619,note_on,,59,0,15,,,,,,,,,,,,,,,,15,,65,0
7619,note_on,,59,0,14,,,,,,,,,,,,,,,,13,,46,0
7619,note_on,,59,0,12,,,,,,,,,,,,,,,,11,,70,0
7619,note_on,,59,0,11,,,,,,,,,,,,,,,,10,,79,0
7620,note_on,,1,0,6,,,,,,,,,,,,,,,,2,,41,72
7620,note_on,,0,0,15,,,,,,,,,,,,,,,,15,,57,72
7620,note_on,,0,0,15,,,,,,,,,,,,,,,,15,,60,72
7620,note_on,,1,0,9,,,,,,,,,,,,,,,,7,,57,72
7620,note_on,,1,0,12,,,,,,,,,,,,,,,,11,,69,72
7620,note_on,,1,0,14,,,,,,,,,,,,,,,,13,,41,72
7620,note_on,,1,0,8,,,,,,,,,,,,,,,,6,,65,72
7620,note_on,,1,0,15,,,,,,,,,,,,,,,,15,,41,72
7620,note_on,,0,0,15,,,,,,,,,,,,,,,,15,,65,72
7620,note_on,,1,0,11,,,,,,,,,,,,,,,,10,,77,72
7679,note_on,,59,0,6,,,,,,,,,,,,,,,,2,,41,0
7679,note_on,,59,0,12,,,,,,,,,,,,,,,,11,,69,0
7679,note_on,,59,0,8,,,,,,,,,,,,,,,,6,,65,0
7679,note_on,,59,0,9,,,,,,,,,,,,,,,,7,,57,0
7679,note_on,,59,0,14,,,,,,,,,,,,,,,,13,,41,0
7679,note_on,,59,0,15,,,,,,,,,,,,,,,,15,,41,0
7679,note_on,,0,0,15,,,,,,,,,,,,,,,,15,,65,0
7679,note_on,,0,0,15,,,,,,,,,,,,,,,,15,,60,0
7679,note_on,,0,0,15,,,,,,,,,,,,,,,,15,,57,0
7679,note_on,,59,0,11,,,,,,,,,,,,,,,,10,,77,0
7680,note_on,,1,0,8,,,,,,,,,,,,,,,,6,,64,72
7680,note_on,,1,0,14,,,,,,,,,,,,,,,,13,,48,72
7680,note_on,,1,0,6,,,,,,,,,,,,,,,,2,,48,72
7680,note_on,,0,0,15,,,,,,,,,,,,,,,,15,,64,72
7680,note_on,,1,0,9,,,,,,,,,,,,,,,,7,,55,72
7680,note_on,,0,0,15,,,,,,,,,,,,,,,,15,,55,72
7680,note_on,,0,0,15,,,,,,,,,,,,,,,,15,,60,72
7680,note_on,,1,0,15,,,,,,,,,,,,,,,,15,,48,72
7680,note_on,,1,0,12,,,,,,,,,,,,,,,,11,,67,72
7680,note_on,,1,0,11,,,,,,,,,,,,,,,,10,,76,72
7739,note_on,,59,0,14,,,,,,,,,,,,,,,,13,,48,0
7739,note_on,,59,0,6,,,,,,,,,,,,,,,,2,,48,0
7739,note_on,,59,0,15,,,,,,,,,,,,,,,,15,,48,0
7739,note_on,,0,0,15,,,,,,,,,,,,,,,,15,,55,0
7740,note_on,,1,0,14,,,,,,,,,,,,,,,,13,,48,72
7740,note_on,,1,0,6,,,,,,,,,,,,,,,,2,,48,72
7740,note_on,,1,0,15,,,,,,,,,,,,,,,,15,,48,72
7740,note_on,,0,0,15,,,,,,,,,,,,,,,,15,,55,72
7799,note_on,,59,0,6,,,,,,,,,,,,,,,,2,,48,0
7799,note_on,,119,0,12,,,,,,,,,,,,,,,,11,,67,0
7799,note_on,,0,0,15,,,,,,,,,,,,,,,,15,,55,0
7799,note_on,,119,0,8,,,,,,,,,,,,,,,,6,,64,0
7799,note_on,,59,0,14,,,,,,,,,,,,,,,,13,,48,0
7799,note_on,,59,0,15,,,,,,,,,,,,,,,,15,,48,0
7799,note_on,,119,0,9,,,,,,,,,,,,,,,,7,,55,0
7799,note_on,,119,0,11,,,,,,,,,,,,,,,,10,,76,0
7800,note_on,,1,0,6,,,,,,,,,,,,,,,,2,,52,72
7800,note_on,,1,0,14,,,,,,,,,,,,,,,,13,,52,72
7800,note_on,,0,0,15,,,,,,,,,,,,,,,,15,,60,72
7800,note_on,,1,0,15,,,,,,,,,,,,,,,,15,,52,72
7859,note_on,,59,0,6,,,,,,,,,,,,,,,,2,,52,0
7859,note_on,,0,0,15,,,,,,,,,,,,,,,,15,,52,0
7859,note_on,,0,0,15,,,,,,,,,,,,,,,,15,,60,0
7859,note_on,,59,0,15,,,,,,,,,,,,,,,,15,,64,0
7859,note_on,,59,0,14,,,,,,,,,,,,,,,,13,,52,0
7859,note_on,,0,0,15,,,,,,,,,,,,,,,,15,,60,0
7860,note_on,,1,0,14,,,,,,,,,,,,,,,,13,,48,72
7860,note_on,,1,0,6,,,,,,,,,,,,,,,,2,,48,72
7860,note_on,,61,0,9,,,,,,,,,,,,,,,,7,,60,72
7860,note_on,,61,0,8,,,,,,,,,,,,,,,,6,,64,72
7860,note_on,,1141,0,5,,,,,,,,,,,,,,,,1,,67,72
7860,note_on,,1141,0,7,,,,,,,,,,,,,,,,5,,67,72
7860,note_on,,2941,0,10,,,,,,,,,,,,,,,,8,,48,72
7860,note_on,,1,0,15,,,,,,,,,,,,,,,,15,,48,72
7860,note_on,,0,0,15,,,,,,,,,,,,,,,,15,,55,72
7860,note_on,,0,0,15,,,,,,,,,,,,,,,,15,,60,72
7860,note_on,,0,0,15,,,,,,,,,,,,,,,,15,,64,72
7919,note_on,,59,0,10,,,,,,,,,,,,,,,,8,,48,0
7919,note_on,,59,0,14,,,,,,,,,,,,,,,,13,,48,0
7919,note_on,,59,0,7,,,,,,,,,,,,,,,,5,,67,0
7919,note_on,,59,0,8,,,,,,,,,,,,,,,,6,,64,0
7919,note_on,,0,0,15,,,,,,,,,,,,,,,,15,,64,0
7919,note_on,,0,0,15,,,,,,,,,,,,,,,,15,,60,0
7919,note_on,,59,0,9,,,,,,,,,,,,,,,,7,,60,0
7919,note_on,,59,0,6,,,,,,,,,,,,,,,,2,,48,0
7919,note_on,,59,0,5,,,,,,,,,,,,,,,,1,,67,0
7919,note_on,,0,0,15,,,,,,,,,,,,,,,,15,,55,0
7919,note_on,,59,0,15,,,,,,,,,,,,,,,,15,,48,0
7920,note_on,,1,0,9,,,,,,,,,,,,,,,,7,,60,72
7920,note_on,,1,0,10,,,,,,,,,,,,,,,,8,,52,72
7920,note_on,,1,0,15,,,,,,,,,,,,,,,,15,,52,72
7920,note_on,,1,0,14,,,,,,,,,,,,,,,,13,,52,72
7920,note_on,,0,0,15,,,,,,,,,,,,,,,,15,,60,72
7920,note_on,,0,0,15,,,,,,,,,,,,,,,,15,,60,72
7920,note_on,,1,0,6,,,,,,,,,,,,,,,,2,,52,72
7920,note_on,,1,0,7,,,,,,,,,,,,,,,,5,,72,72
7920,note_on,,0,0,15,,,,,,,,,,,,,,,,15,,67,72
7920,note_on,,1,0,8,,,,,,,,,,,,,,,,6,,67,72
7920,note_on,,1,0,5,,,,,,,,,,,,,,,,1,,72,72
7979,note_on,,59,0,6,,,,,,,,,,,,,,,,2,,52,0
7979,note_on,,0,0,15,,,,,,,,,,,,,,,,15,,60,0
7979,note_on,,59,0,15,,,,,,,,,,,,,,,,15,,52,0
7979,note_on,,59,0,14,,,,,,,,,,,,,,,,13,,52,0
7980,note_on,,0,0,15,,,,,,,,,,,,,,,,15,,64,72
7980,note_on,,1,0,15,,,,,,,,,,,,,,,,15,,48,72
7980,note_on,,1,0,14,,,,,,,,,,,,,,,,13,,48,72
7980,note_on,,1,0,6,,,,,,,,,,,,,,,,2,,48,72
8039,note_on,,59,0,14,,,,,,,,,,,,,,,,13,,48,0
8039,note_on,,119,0,8,,,,,,,,,,,,,,,,6,,67,0
8039,note_on,,119,0,10,,,,,,,,,,,,,,,,8,,52,0
8039,note_on,,119,0,5,,,,,,,,,,,,,,,,1,,72,0
8039,note_on,,59,0,15,,,,,,,,,,,,,,,,15,,67,0
8039,note_on,,0,0,15,,,,,,,,,,,,,,,,15,,60,0
8039,note_on,,119,0,9,,,,,,,,,,,,,,,,7,,60,0
8039,note_on,,0,0,15,,,,,,,,,,,,,,,,15,,64,0
8039,note_on,,0,0,15,,,,,,,,,,,,,,,,15,,48,0
8039,note_on,,119,0,7,,,,,,,,,,,,,,,,5,,72,0
8039,note_on,,59,0,6,,,,,,,,,,,,,,,,2,,48,0
8040,note_on,,1,0,15,,,,,,,,,,,,,,,,15,,53,72
8040,note_on,,1,0,10,,,,,,,,,,,,,,,,8,,53,72
8040,note_on,,1,0,7,,,,,,,,,,,,,,,,5,,69,72
8040,note_on,,1,0,5,,,,,,,,,,,,,,,,1,,69,72
8040,note_on,,1,0,6,,,,,,,,,,,,,,,,2,,53,72
8040,note_on,,1,0,14,,,,,,,,,,,,,,,,13,,53,72
8040,note_on,,0,0,15,,,,,,,,,,,,,,,,15,,60,72
8040,note_on,,1,0,8,,,,,,,,,,,,,,,,6,,65,72
8040,note_on,,0,0,15,,,,,,,,,,,,,,,,15,,69,72
8040,note_on,,1,0,9,,,,,,,,,,,,,,,,7,,60,72
8099,note_on,,59,0,6,,,,,,,,,,,,,,,,2,,53,0
8099,note_on,,0,0,15,,,,,,,,,,,,,,,,15,,60,0
8099,note_on,,59,0,15,,,,,,,,,,,,,,,,15,,53,0
8099,note_on,,59,0,14,,,,,,,,,,,,,,,,13,,53,0
8100,note_on,,1,0,14,,,,,,,,,,,,,,,,13,,48,72
8100,note_on,,1,0,6,,,,,,,,,,,,,,,,2,,48,72
8100,note_on,,0,0,15,,,,,,,,,,,,,,,,15,,65,72
8100,note_on,,1,0,15,,,,,,,,,,,,,,,,15,,48,72
8159,note_on,,0,0,15,,,,,,,,,,,,,,,,15,,65,0
8159,note_on,,0,0,15,,,,,,,,,,,,,,,,15,,48,0
8159,note_on,,59,0,6,,,,,,,,,,,,,,,,2,,48,0
8159,note_on,,59,0,15,,,,,,,,,,,,,,,,15,,69,0
8159,note_on,,119,0,8,,,,,,,,,,,,,,,,6,,65,0
8159,note_on,,119,0,9,,,,,,,,,,,,,,,,7,,60,0
8159,note_on,,59,0,14,,,,,,,,,,,,,,,,13,,48,0
8159,note_on,,119,0,10,,,,,,,,,,,,,,,,8,,53,0
8159,note_on,,119,0,7,,,,,,,,,,,,,,,,5,,69,0
8159,note_on,,119,0,5,,,,,,,,,,,,,,,,1,,69,0
8160,note_on,,1,0,7,,,,,,,,,,,,,,,,5,,67,72
8160,note_on,,0,0,15,,,,,,,,,,,,,,,,15,,60,72
8160,note_on,,1,0,9,,,,,,,,,,,,,,,,7,,60,72
8160,note_on,,1,0,6,,,,,,,,,,,,,,,,2,,52,72
8160,note_on,,1,0,15,,,,,,,,,,,,,,,,15,,52,72
8160,note_on,,1,0,10,,,,,,,,,,,,,,,,8,,48,72
8160,note_on,,0,0,15,,,,,,,,,,,,,,,,15,,67,72
8160,note_on,,1,0,5,,,,,,,,,,,,,,,,1,,67,72
8160,note_on,,1,0,14,,,,,,,,,,,,,,,,13,,52,72
8160,note_on,,0,0,15,,,,,,,,,,,,,,,,15,,55,72
8160,note_on,,1,0,8,,,,,,,,,,,,,,,,6,,64,72
8219,note_on,,59,0,15,,,,,,,,,,,,,,,,15,,52,0
8219,note_on,,0,0,15,,,,,,,,,,,,,,,,15,,60,0
8219,note_on,,59,0,6,,,,,,,,,,,,,,,,2,,52,0
8219,note_on,,59,0,14,,,,,,,,,,,,,,,,13,,52,0
8220,note_on,,1,0,14,,,,,,,,,,,,,,,,13,,48,72
8220,note_on,,1,0,15,,,,,,,,,,,,,,,,15,,48,72
8220,note_on,,0,0,15,,,,,,,,,,,,,,,,15,,64,72
8220,note_on,,1,0,6,,,,,,,,,,,,,,,,2,,48,72
8279,note_on,,0,0,15,,,,,,,,,,,,,,,,15,,64,0
8279,note_on,,119,0,7,,,,,,,,,,,,,,,,5,,67,0
8279,note_on,,59,0,15,,,,,,,,,,,,,,,,15,,48,0
8279,note_on,,119,0,9,,,,,,,,,,,,,,,,7,,60,0
8279,note_on,,59,0,6,,,,,,,,,,,,,,,,2,,48,0
8279,note_on,,119,0,10,,,,,,,,,,,,,,,,8,,48,0
8279,note_on,,119,0,5,,,,,,,,,,,,,,,,1,,67,0
8279,note_on,,59,0,14,,,,,,,,,,,,,,,,13,,48,0
8279,note_on,,119,0,8,,,,,,,,,,,,,,,,6,,64,0
8280,note_on,,1,0,14,,,,,,,,,,,,,,,,13,,52,72
8280,note_on,,0,0,15,,,,,,,,,,,,,,,,15,,60,72
8280,note_on,,1,0,15,,,,,,,,,,,,,,,,15,,52,72
8280,note_on,,1,0,6,,,,,,,,,,,,,,,,2,,52,72
8339,note_on,,0,0,15,,,,,,,,,,,,,,,,15,,52,0
8339,note_on,,0,0,15,,,,,,,,,,,,,,,,15,,60,0
8339,note_on,,0,0,15,,,,,,,,,,,,,,,,15,,55,0
8339,note_on,,59,0,15,,,,,,,,,,,,,,,,15,,67,0
8339,note_on,,59,0,6,,,,,,,,,,,,,,,,2,,52,0
8339,note_on,,59,0,14,,,,,,,,,,,,,,,,13,,52,0
8340,note_on,,0,0,15,,,,,,,,,,,,,,,,15,,64,72
8340,note_on,,0,0,15,,,,,,,,,,,,,,,,15,,67,72
8340,note_on,,1,0,15,,,,,,,,,,,,,,,,15,,48,72
8340,note_on,,0,0,15,,,,,,,,,,,,,,,,15,,60,72
8340,note_on,,541,0,12,,,,,,,,,,,,,,,,11,,76,72
8340,note_on,,541,0,11,,,,,,,,,,,,,,,,10,,79,72
8340,note_on,,1,0,6,,,,,,,,,,,,,,,,2,,48,72
8340,note_on,,4381,0,13,,,,,,,,,,,,,,,,12,,72,72
8340,note_on,,1,0,14,,,,,,,,,,,,,,,,13,,48,72
8399,note_on,,59,0,11,,,,,,,,,,,,,,,,10,,79,0
8399,note_on,,59,0,15,,,,,,,,,,,,,,,,15,,48,0
8399,note_on,,0,0,15,,,,,,,,,,,,,,,,15,,60,0
8399,note_on,,59,0,14,,,,,,,,,,,,,,,,13,,48,0
8399,note_on,,0,0,15,,,,,,,,,,,,,,,,15,,67,0
8399,note_on,,0,0,15,,,,,,,,,,,,,,,,15,,64,0
8399,note_on,,59,0,12,,,,,,,,,,,,,,,,11,,76,0
8399,note_on,,59,0,13,,,,,,,,,,,,,,,,12,,72,0
8399,note_on,,59,0,6,,,,,,,,,,,,,,,,2,,48,0
8400,note_on,,0,0,15,,,,,,,,,,,,,,,,15,,72,72
8400,note_on,,0,0,15,,,,,,,,,,,,,,,,15,,67,72
8400,note_on,,0,0,15,,,,,,,,,,,,,,,,15,,60,72
8400,note_on,,1,0,12,,,,,,,,,,,,,,,,11,,79,72
8400,note_on,,1,0,11,,,,,,,,,,,,,,,,10,,84,72
8400,note_on,,1,0,6,,,,,,,,,,,,,,,,2,,52,72
8400,note_on,,1,0,14,,,,,,,,,,,,,,,,13,,52,72
8400,note_on,,1,0,15,,,,,,,,,,,,,,,,15,,52,72
8400,note_on,,1,0,13,,,,,,,,,,,,,,,,12,,72,72
8459,note_on,,59,0,6,,,,,,,,,,,,,,,,2,,52,0
8459,note_on,,59,0,14,,,,,,,,,,,,,,,,13,,52,0
8459,note_on,,0,0,15,,,,,,,,,,,,,,,,15,,60,0
8459,note_on,,59,0,15,,,,,,,,,,,,,,,,15,,52,0
8460,note_on,,1,0,15,,,,,,,,,,,,,,,,15,,48,72
8460,note_on,,1,0,6,,,,,,,,,,,,,,,,2,,48,72
8460,note_on,,1,0,14,,,,,,,,,,,,,,,,13,,48,72
8460,note_on,,0,0,15,,,,,,,,,,,,,,,,15,,64,72
8519,note_on,,0,0,15,,,,,,,,,,,,,,,,15,,64,0
8519,note_on,,0,0,15,,,,,,,,,,,,,,,,15,,48,0
8519,note_on,,0,0,15,,,,,,,,,,,,,,,,15,,67,0
8519,note_on,,59,0,6,,,,,,,,,,,,,,,,2,,48,0
8519,note_on,,59,0,15,,,,,,,,,,,,,,,,15,,72,0
8519,note_on,,59,0,14,,,,,,,,,,,,,,,,13,,48,0
8519,note_on,,119,0,11,,,,,,,,,,,,,,,,10,,84,0
8519,note_on,,119,0,13,,,,,,,,,,,,,,,,12,,72,0
8519,note_on,,119,0,12,,,,,,,,,,,,,,,,11,,79,0
8520,note_on,,1,0,12,,,,,,,,,,,,,,,,11,,77,72
8520,note_on,,1,0,6,,,,,,,,,,,,,,,,2,,53,72
8520,note_on,,1,0,13,,,,,,,,,,,,,,,,12,,72,72
8520,note_on,,1,0,11,,,,,,,,,,,,,,,,10,,81,72
8520,note_on,,1,0,15,,,,,,,,,,,,,,,,15,,53,72
8520,note_on,,0,0,15,,,,,,,,,,,,,,,,15,,72,72
8520,note_on,,0,0,15,,,,,,,,,,,,,,,,15,,69,72
8520,note_on,,0,0,15,,,,,,,,,,,,,,,,15,,60,72
8520,note_on,,1,0,14,,,,,,,,,,,,,,,,13,,53,72
8579,note_on,,59,0,15,,,,,,,,,,,,,,,,15,,53,0
8579,note_on,,59,0,14,,,,,,,,,,,,,,,,13,,53,0
8579,note_on,,59,0,6,,,,,,,,,,,,,,,,2,,53,0
8579,note_on,,0,0,15,,,,,,,,,,,,,,,,15,,60,0
8580,note_on,,1,0,15,,,,,,,,,,,,,,,,15,,48,72
8580,note_on,,1,0,6,,,,,,,,,,,,,,,,2,,48,72
8580,note_on,,0,0,15,,,,,,,,,,,,,,,,15,,65,72
8580,note_on,,1,0,14,,,,,,,,,,,,,,,,13,,48,72
8639,note_on,,59,0,6,,,,,,,,,,,,,,,,2,,48,0
8639,note_on,,119,0,11,,,,,,,,,,,,,,,,10,,81,0
8639,note_on,,119,0,13,,,,,,,,,,,,,,,,12,,72,0
8639,note_on,,59,0,15,,,,,,,,,,,,,,,,15,,72,0
8639,note_on,,0,0,15,,,,,,,,,,,,,,,,15,,48,0
8639,note_on,,119,0,12,,,,,,,,,,,,,,,,11,,77,0
8639,note_on,,0,0,15,,,,,,,,,,,,,,,,15,,69,0
8639,note_on,,0,0,15,,,,,,,,,,,,,,,,15,,65,0
8639,note_on,,59,0,14,,,,,,,,,,,,,,,,13,,48,0
8640,note_on,,1,0,13,,,,,,,,,,,,,,,,12,,72,72
8640,note_on,,1,0,14,,,,,,,,,,,,,,,,13,,52,72
8640,note_on,,1,0,6,,,,,,,,,,,,,,,,2,,52,72
8640,note_on,,1,0,11,,,,,,,,,,,,,,,,10,,79,72
8640,note_on,,1,0,12,,,,,,,,,,,,,,,,11,,76,72
8640,note_on,,1,0,15,,,,,,,,,,,,,,,,15,,67,72
8640,note_on,,0,0,15,,,,,,,,,,,,,,,,15,,52,72
8640,note_on,,0,0,15,,,,,,,,,,,,,,,,15,,72,72
8640,note_on,,0,0,15,,,,,,,,,,,,,,,,15,,60,72
8699,note_on,,59,0,15,,,,,,,,,,,,,,,,15,,52,0
8699,note_on,,59,0,14,,,,,,,,,,,,,,,,13,,52,0
8699,note_on,,59,0,6,,,,,,,,,,,,,,,,2,,52,0
8699,note_on,,0,0,15,,,,,,,,,,,,,,,,15,,60,0
8700,note_on,,1,0,14,,,,,,,,,,,,,,,,13,,48,72
8700,note_on,,0,0,15,,,,,,,,,,,,,,,,15,,64,72
8700,note_on,,1,0,15,,,,,,,,,,,,,,,,15,,48,72
8700,note_on,,1,0,6,,,,,,,,,,,,,,,,2,,48,72
8759,note_on,,59,0,14,,,,,,,,,,,,,,,,13,,48,0
8759,note_on,,119,0,12,,,,,,,,,,,,,,,,11,,76,0
8759,note_on,,119,0,13,,,,,,,,,,,,,,,,12,,72,0
8759,note_on,,0,0,15,,,,,,,,,,,,,,,,15,,64,0
8759,note_on,,59,0,6,,,,,,,,,,,,,,,,2,,48,0
8759,note_on,,59,0,15,,,,,,,,,,,,,,,,15,,67,0
8759,note_on,,0,0,15,,,,,,,,,,,,,,,,15,,72,0
8759,note_on,,0,0,15,,,,,,,,,,,,,,,,15,,48,0
8759,note_on,,119,0,11,,,,,,,,,,,,,,,,10,,79,0
8760,note_on,,0,0,15,,,,,,,,,,,,,,,,15,,67,72
8760,note_on,,1,0,14,,,,,,,,,,,,,,,,13,,52,72
8760,note_on,,1,0,6,,,,,,,,,,,,,,,,2,,52,72
8760,note_on,,1,0,15,,,,,,,,,,,,,,,,15,,52,72
8819,note_on,,59,0,14,,,,,,,,,,,,,,,,13,,52,0
8819,note_on,,59,0,15,,,,,,,,,,,,,,,,15,,52,0
8819,note_on,,59,0,6,,,,,,,,,,,,,,,,2,,52,0
8819,note_on,,0,0,15,,,,,,,,,,,,,,,,15,,67,0
8820,note_on,,541,0,9,,,,,,,,,,,,,,,,7,,55,72
8820,note_on,,61,0,13,,,,,,,,,,,,,,,,12,,55,72
8820,note_on,,1,0,14,,,,,,,,,,,,,,,,13,,48,72
8820,note_on,,1,0,6,,,,,,,,,,,,,,,,2,,48,72
8820,note_on,,541,0,10,,,,,,,,,,,,,,,,8,,48,72
8820,note_on,,0,0,15,,,,,,,,,,,,,,,,15,,55,72
8820,note_on,,1,0,15,,,,,,,,,,,,,,,,15,,48,72
8879,note_on,,59,0,14,,,,,,,,,,,,,,,,13,,48,0
8879,note_on,,59,0,10,,,,,,,,,,,,,,,,8,,48,0
8879,note_on,,59,0,9,,,,,,,,,,,,,,,,7,,55,0
8879,note_on,,59,0,6,,,,,,,,,,,,,,,,2,,48,0
8879,note_on,,59,0,13,,,,,,,,,,,,,,,,12,,55,0
8879,note_on,,0,0,15,,,,,,,,,,,,,,,,15,,55,0
8879,note_on,,59,0,15,,,,,,,,,,,,,,,,15,,48,0
8880,note_on,,1,0,10,,,,,,,,,,,,,,,,8,,53,72
8880,note_on,,1,0,9,,,,,,,,,,,,,,,,7,,57,72
8880,note_on,,1,0,14,,,,,,,,,,,,,,,,13,,53,72
8880,note_on,,1,0,15,,,,,,,,,,,,,,,,15,,53,72
8880,note_on,,0,0,15,,,,,,,,,,,,,,,,15,,57,72
8880,note_on,,1,0,6,,,,,,,,,,,,,,,,2,,53,72
8880,note_on,,1,0,13,,,,,,,,,,,,,,,,12,,57,72
8939,note_on,,59,0,9,,,,,,,,,,,,,,,,7,,57,0
8939,note_on,,59,0,13,,,,,,,,,,,,,,,,12,,57,0
8939,note_on,,59,0,6,,,,,,,,,,,,,,,,2,,53,0
8939,note_on,,59,0,15,,,,,,,,,,,,,,,,15,,53,0
8939,note_on,,0,0,15,,,,,,,,,,,,,,,,15,,57,0
8939,note_on,,59,0,10,,,,,,,,,,,,,,,,8,,53,0
8939,note_on,,59,0,14,,,,,,,,,,,,,,,,13,,53,0
8940,note_on,,1,0,13,,,,,,,,,,,,,,,,12,,55,72
8940,note_on,,1,0,15,,,,,,,,,,,,,,,,15,,52,72
8940,note_on,,1,0,10,,,,,,,,,,,,,,,,8,,52,72
8940,note_on,,1,0,14,,,,,,,,,,,,,,,,13,,52,72
8940,note_on,,1,0,6,,,,,,,,,,,,,,,,2,,52,72
8940,note_on,,0,0,15,,,,,,,,,,,,,,,,15,,55,72
8940,note_on,,1,0,9,,,,,,,,,,,,,,,,7,,55,72
8999,note_on,,59,0,14,,,,,,,,,,,,,,,,13,,52,0
8999,note_on,,59,0,10,,,,,,,,,,,,,,,,8,,52,0
8999,note_on,,59,0,13,,,,,,,,,,,,,,,,12,,55,0
8999,note_on,,59,0,9,,,,,,,,,,,,,,,,7,,55,0
8999,note_on,,59,0,6,,,,,,,,,,,,,,,,2,,52,0
8999,note_on,,59,0,15,,,,,,,,,,,,,,,,15,,52,0
8999,note_on,,0,0,15,,,,,,,,,,,,,,,,15,,55,0
9000,note_on,,1,0,13,,,,,,,,,,,,,,,,12,,60,72
9000,note_on,,1,0,14,,,,,,,,,,,,,,,,13,,57,72
9000,note_on,,1,0,10,,,,,,,,,,,,,,,,8,,57,72
9000,note_on,,1,0,15,,,,,,,,,,,,,,,,15,,57,72
9000,note_on,,0,0,15,,,,,,,,,,,,,,,,15,,60,72
9000,note_on,,1,0,9,,,,,,,,,,,,,,,,7,,60,72
9000,note_on,,1,0,6,,,,,,,,,,,,,,,,2,,57,72
9059,note_on,,59,0,6,,,,,,,,,,,,,,,,2,,57,0
9059,note_on,,59,0,9,,,,,,,,,,,,,,,,7,,60,0
9059,note_on,,59,0,13,,,,,,,,,,,,,,,,12,,60,0
9059,note_on,,59,0,15,,,,,,,,,,,,,,,,15,,57,0
9059,note_on,,59,0,10,,,,,,,,,,,,,,,,8,,57,0
9059,note_on,,0,0,15,,,,,,,,,,,,,,,,15,,60,0
9059,note_on,,59,0,14,,,,,,,,,,,,,,,,13,,57,0
9060,note_on,,1,0,10,,,,,,,,,,,,,,,,8,,55,72
9060,note_on,,0,0,15,,,,,,,,,,,,,,,,15,,59,72
9060,note_on,,1,0,9,,,,,,,,,,,,,,,,7,,59,72
9060,note_on,,1,0,14,,,,,,,,,,,,,,,,13,,55,72
9060,note_on,,1,0,15,,,,,,,,,,,,,,,,15,,55,72
9060,note_on,,1,0,6,,,,,,,,,,,,,,,,2,,55,72
9060,note_on,,1,0,13,,,,,,,,,,,,,,,,12,,59,72
9119,note_on,,59,0,9,,,,,,,,,,,,,,,,7,,59,0
9119,note_on,,0,0,15,,,,,,,,,,,,,,,,15,,59,0
9119,note_on,,59,0,15,,,,,,,,,,,,,,,,15,,55,0
9119,note_on,,59,0,6,,,,,,,,,,,,,,,,2,,55,0
9119,note_on,,59,0,14,,,,,,,,,,,,,,,,13,,55,0
9119,note_on,,59,0,10,,,,,,,,,,,,,,,,8,,55,0
9119,note_on,,59,0,13,,,,,,,,,,,,,,,,12,,59,0
9120,note_on,,1,0,9,,,,,,,,,,,,,,,,7,,64,72
9120,note_on,,1,0,6,,,,,,,,,,,,,,,,2,,60,72
9120,note_on,,1,0,13,,,,,,,,,,,,,,,,12,,64,72
9120,note_on,,1,0,15,,,,,,,,,,,,,,,,15,,60,72
9120,note_on,,0,0,15,,,,,,,,,,,,,,,,15,,64,72
9120,note_on,,1,0,10,,,,,,,,,,,,,,,,8,,60,72
9120,note_on,,1,0,14,,,,,,,,,,,,,,,,13,,60,72
9179,note_on,,59,0,13,,,,,,,,,,,,,,,,12,,64,0
9179,note_on,,59,0,10,,,,,,,,,,,,,,,,8,,60,0
9179,note_on,,59,0,9,,,,,,,,,,,,,,,,7,,64,0
9179,note_on,,59,0,6,,,,,,,,,,,,,,,,2,,60,0
9179,note_on,,0,0,15,,,,,,,,,,,,,,,,15,,64,0
9179,note_on,,59,0,15,,,,,,,,,,,,,,,,15,,60,0
9179,note_on,,59,0,14,,,,,,,,,,,,,,,,13,,60,0
9180,note_on,,1,0,13,,,,,,,,,,,,,,,,12,,62,72
9180,note_on,,0,0,15,,,,,,,,,,,,,,,,15,,62,72
9180,note_on,,1,0,15,,,,,,,,,,,,,,,,15,,59,72
9180,note_on,,1,0,10,,,,,,,,,,,,,,,,8,,59,72
9180,note_on,,1,0,9,,,,,,,,,,,,,,,,7,,62,72
9180,note_on,,1,0,14,,,,,,,,,,,,,,,,13,,59,72
9180,note_on,,1,0,6,,,,,,,,,,,,,,,,2,,59,72
9239,note_on,,0,0,15,,,,,,,,,,,,,,,,15,,62,0
9239,note_on,,59,0,13,,,,,,,,,,,,,,,,12,,62,0
9239,note_on,,59,0,10,,,,,,,,,,,,,,,,8,,59,0
9239,note_on,,59,0,14,,,,,,,,,,,,,,,,13,,59,0
9239,note_on,,59,0,15,,,,,,,,,,,,,,,,15,,59,0
9239,note_on,,59,0,6,,,,,,,,,,,,,,,,2,,59,0
9239,note_on,,59,0,9,,,,,,,,,,,,,,,,7,,62,0
9240,note_on,,1,0,14,,,,,,,,,,,,,,,,13,,57,72
9240,note_on,,1,0,10,,,,,,,,,,,,,,,,8,,57,72
9240,note_on,,1,0,6,,,,,,,,,,,,,,,,2,,57,72
9240,note_on,,1,0,9,,,,,,,,,,,,,,,,7,,65,72
9240,note_on,,1,0,13,,,,,,,,,,,,,,,,12,,65,72
9240,note_on,,1,0,15,,,,,,,,,,,,,,,,15,,57,72
9240,note_on,,0,0,15,,,,,,,,,,,,,,,,15,,65,72
9299,note_on,,59,0,10,,,,,,,,,,,,,,,,8,,57,0
9299,note_on,,59,0,9,,,,,,,,,,,,,,,,7,,65,0
9299,note_on,,59,0,14,,,,,,,,,,,,,,,,13,,57,0
9299,note_on,,59,0,15,,,,,,,,,,,,,,,,15,,57,0
9299,note_on,,0,0,15,,,,,,,,,,,,,,,,15,,65,0
9299,note_on,,59,0,13,,,,,,,,,,,,,,,,12,,65,0
9299,note_on,,59,0,6,,,,,,,,,,,,,,,,2,,57,0
9300,note_on,,1,0,6,,,,,,,,,,,,,,,,2,,55,72
9300,note_on,,0,0,15,,,,,,,,,,,,,,,,15,,64,72
9300,note_on,,1,0,9,,,,,,,,,,,,,,,,7,,64,72
9300,note_on,,1,0,15,,,,,,,,,,,,,,,,15,,55,72
9300,note_on,,1,0,10,,,,,,,,,,,,,,,,8,,55,72
9300,note_on,,1,0,14,,,,,,,,,,,,,,,,13,,55,72
9300,note_on,,1,0,13,,,,,,,,,,,,,,,,12,,64,72
9359,note_on,,59,0,10,,,,,,,,,,,,,,,,8,,55,0
9359,note_on,,59,0,6,,,,,,,,,,,,,,,,2,,55,0
9359,note_on,,59,0,13,,,,,,,,,,,,,,,,12,,64,0
9359,note_on,,59,0,14,,,,,,,,,,,,,,,,13,,55,0
9359,note_on,,0,0,15,,,,,,,,,,,,,,,,15,,64,0
9359,note_on,,59,0,15,,,,,,,,,,,,,,,,15,,55,0
9359,note_on,,59,0,9,,,,,,,,,,,,,,,,7,,64,0
9360,note_on,,1,0,13,,,,,,,,,,,,,,,,12,,57,72
9360,note_on,,0,0,15,,,,,,,,,,,,,,,,15,,57,72
9360,note_on,,1,0,10,,,,,,,,,,,,,,,,8,,53,72
9360,note_on,,1,0,9,,,,,,,,,,,,,,,,7,,57,72
9360,note_on,,1,0,6,,,,,,,,,,,,,,,,2,,53,72
9360,note_on,,1,0,14,,,,,,,,,,,,,,,,13,,53,72
9360,note_on,,1,0,15,,,,,,,,,,,,,,,,15,,53,72
9419,note_on,,59,0,9,,,,,,,,,,,,,,,,7,,57,0
9419,note_on,,59,0,14,,,,,,,,,,,,,,,,13,,53,0
9419,note_on,,59,0,10,,,,,,,,,,,,,,,,8,,53,0
9419,note_on,,59,0,6,,,,,,,,,,,,,,,,2,,53,0
9419,note_on,,59,0,13,,,,,,,,,,,,,,,,12,,57,0
9419,note_on,,59,0,15,,,,,,,,,,,,,,,,15,,53,0
9419,note_on,,0,0,15,,,,,,,,,,,,,,,,15,,57,0
9420,note_on,,1,0,9,,,,,,,,,,,,,,,,7,,55,72
9420,note_on,,1,0,14,,,,,,,,,,,,,,,,13,,52,72
9420,note_on,,1,0,6,,,,,,,,,,,,,,,,2,,52,72
9420,note_on,,1,0,13,,,,,,,,,,,,,,,,12,,55,72
9420,note_on,,1,0,15,,,,,,,,,,,,,,,,15,,52,72
9420,note_on,,0,0,15,,,,,,,,,,,,,,,,15,,55,72
9420,note_on,,1,0,10,,,,,,,,,,,,,,,,8,,52,72
9479,note_on,,59,0,10,,,,,,,,,,,,,,,,8,,52,0
9479,note_on,,59,0,14,,,,,,,,,,,,,,,,13,,52,0
9479,note_on,,59,0,6,,,,,,,,,,,,,,,,2,,52,0
9479,note_on,,59,0,13,,,,,,,,,,,,,,,,12,,55,0
9479,note_on,,0,0,15,,,,,,,,,,,,,,,,15,,55,0
9479,note_on,,59,0,15,,,,,,,,,,,,,,,,15,,52,0
9479,note_on,,59,0,9,,,,,,,,,,,,,,,,7,,55,0
9480,note_on,,1,0,14,,,,,,,,,,,,,,,,13,,50,72
9480,note_on,,1,0,9,,,,,,,,,,,,,,,,7,,59,72
9480,note_on,,1,0,6,,,,,,,,,,,,,,,,2,,50,72
9480,note_on,,1,0,10,,,,,,,,,,,,,,,,8,,50,72
9480,note_on,,1,0,15,,,,,,,,,,,,,,,,15,,50,72
9480,note_on,,1,0,13,,,,,,,,,,,,,,,,12,,59,72
9480,note_on,,0,0,15,,,,,,,,,,,,,,,,15,,59,72
9480,note_on,,0,0,15,,,,,,,,,,,,,,,,15,,53,72
9539,note_on,,59,0,14,,,,,,,,,,,,,,,,13,,50,0
9539,note_on,,0,0,15,,,,,,,,,,,,,,,,15,,59,0
9539,note_on,,59,0,6,,,,,,,,,,,,,,,,2,,50,0
9539,note_on,,59,0,13,,,,,,,,,,,,,,,,12,,59,0
9539,note_on,,0,0,15,,,,,,,,,,,,,,,,15,,53,0
9539,note_on,,59,0,10,,,,,,,,,,,,,,,,8,,50,0
9539,note_on,,59,0,15,,,,,,,,,,,,,,,,15,,50,0
9539,note_on,,59,0,9,,,,,,,,,,,,,,,,7,,59,0
9540,note_on,,1,0,14,,,,,,,,,,,,,,,,13,,48,72
9540,note_on,,0,0,15,,,,,,,,,,,,,,,,15,,52,72
9540,note_on,,1,0,15,,,,,,,,,,,,,,,,15,,48,72
9540,note_on,,1,0,6,,,,,,,,,,,,,,,,2,,48,72
9540,note_on,,0,0,15,,,,,,,,,,,,,,,,15,,60,72
9540,note_on,,1,0,13,,,,,,,,,,,,,,,,12,,60,72
9540,note_on,,1,0,10,,,,,,,,,,,,,,,,8,,48,72
9540,note_on,,1,0,9,,,,,,,,,,,,,,,,7,,60,72
9599,note_on,,59,0,15,,,,,,,,,,,,,,,,15,,48,0
9599,note_on,,59,0,13,,,,,,,,,,,,,,,,12,,60,0
9599,note_on,,59,0,10,,,,,,,,,,,,,,,,8,,48,0
9599,note_on,,0,0,15,,,,,,,,,,,,,,,,15,,60,0
9599,note_on,,0,0,15,,,,,,,,,,,,,,,,15,,52,0
9599,note_on,,59,0,14,,,,,,,,,,,,,,,,13,,48,0
9599,note_on,,59,0,6,,,,,,,,,,,,,,,,2,,48,0
9599,note_on,,59,0,9,,,,,,,,,,,,,,,,7,,60,0
9600,note_on,,1,0,9,,,,,,,,,,,,,,,,7,,62,72
9600,note_on,,1,0,10,,,,,,,,,,,,,,,,8,,55,72
9600,note_on,,0,0,15,,,,,,,,,,,,,,,,15,,59,72
9600,note_on,,1,0,14,,,,,,,,,,,,,,,,13,,55,72
9600,note_on,,1,0,6,,,,,,,,,,,,,,,,2,,55,72
9600,note_on,,0,0,15,,,,,,,,,,,,,,,,15,,62,72
9600,note_on,,1,0,15,,,,,,,,,,,,,,,,15,,55,72
9600,note_on,,1,0,13,,,,,,,,,,,,,,,,12,,62,72
9659,note_on,,59,0,14,,,,,,,,,,,,,,,,13,,55,0
9659,note_on,,59,0,6,,,,,,,,,,,,,,,,2,,55,0
9659,note_on,,59,0,15,,,,,,,,,,,,,,,,15,,55,0
9660,note_on,,1,0,14,,,,,,,,,,,,,,,,13,,57,72
9660,note_on,,1,0,15,,,,,,,,,,,,,,,,15,,57,72
9660,note_on,,1,0,6,,,,,,,,,,,,,,,,2,,57,72
9660,note_on,,0,0,15,,,,,,,,,,,,,,,,15,,60,72
9719,note_on,,119,0,10,,,,,,,,,,,,,,,,8,,55,0
9719,note_on,,0,0,15,,,,,,,,,,,,,,,,15,,60,0
9719,note_on,,59,0,6,,,,,,,,,,,,,,,,2,,57,0
9719,note_on,,119,0,9,,,,,,,,,,,,,,,,7,,62,0
9719,note_on,,59,0,14,,,,,,,,,,,,,,,,13,,57,0
9719,note_on,,59,0,15,,,,,,,,,,,,,,,,15,,62,0
9719,note_on,,0,0,15,,,,,,,,,,,,,,,,15,,59,0
9719,note_on,,119,0,13,,,,,,,,,,,,,,,,12,,62,0
9719,note_on,,0,0,15,,,,,,,,,,,,,,,,15,,57,0
9720,note_on,,1,0,6,,,,,,,,,,,,,,,,2,,58,72
9720,note_on,,0,0,15,,,,,,,,,,,,,,,,15,,62,72
9720,note_on,,1,0,14,,,,,,,,,,,,,,,,13,,58,72
9720,note_on,,1,0,15,,,,,,,,,,,,,,,,15,,59,72
9779,note_on,,59,0,15,,,,,,,,,,,,,,,,15,,59,0
9779,note_on,,59,0,14,,,,,,,,,,,,,,,,13,,58,0
9779,note_on,,0,0,15,,,,,,,,,,,,,,,,15,,62,0
9779,note_on,,59,0,6,,,,,,,,,,,,,,,,2,,58,0
9780,note_on,,1,0,14,,,,,,,,,,,,,,,,13,,60,72
9780,note_on,,1021,0,11,,,,,,,,,,,,,,,,10,,67,72
9780,note_on,,1501,0,5,,,,,,,,,,,,,,,,1,,67,72
9780,note_on,,1501,0,7,,,,,,,,,,,,,,,,5,,67,72
9780,note_on,,1021,0,12,,,,,,,,,,,,,,,,11,,64,72
9780,note_on,,1501,0,8,,,,,,,,,,,,,,,,6,,64,72
9780,note_on,,1,0,15,,,,,,,,,,,,,,,,15,,60,72
9780,note_on,,1,0,6,,,,,,,,,,,,,,,,2,,60,72
9780,note_on,,0,0,15,,,,,,,,,,,,,,,,15,,64,72
9780,note_on,,0,0,15,,,,,,,,,,,,,,,,15,,67,72
9839,note_on,,59,0,6,,,,,,,,,,,,,,,,2,,60,0
9839,note_on,,59,0,14,,,,,,,,,,,,,,,,13,,60,0
9839,note_on,,59,0,8,,,,,,,,,,,,,,,,6,,64,0
9839,note_on,,59,0,11,,,,,,,,,,,,,,,,10,,67,0
9839,note_on,,59,0,7,,,,,,,,,,,,,,,,5,,67,0
9839,note_on,,59,0,5,,,,,,,,,,,,,,,,1,,67,0
9839,note_on,,0,0,15,,,,,,,,,,,,,,,,15,,64,0
9839,note_on,,59,0,12,,,,,,,,,,,,,,,,11,,64,0
9839,note_on,,0,0,15,,,,,,,,,,,,,,,,15,,67,0
9839,note_on,,59,0,15,,,,,,,,,,,,,,,,15,,60,0
9840,note_on,,1,0,12,,,,,,,,,,,,,,,,11,,65,72
9840,note_on,,0,0,15,,,,,,,,,,,,,,,,15,,69,72
9840,note_on,,1,0,15,,,,,,,,,,,,,,,,15,,65,72
9840,note_on,,1,0,5,,,,,,,,,,,,,,,,1,,69,72
9840,note_on,,1,0,14,,,,,,,,,,,,,,,,13,,65,72
9840,note_on,,1,0,7,,,,,,,,,,,,,,,,5,,69,72
9840,note_on,,1,0,11,,,,,,,,,,,,,,,,10,,69,72
9840,note_on,,1,0,6,,,,,,,,,,,,,,,,2,,65,72
9840,note_on,,1,0,8,,,,,,,,,,,,,,,,6,,65,72
9899,note_on,,59,0,7,,,,,,,,,,,,,,,,5,,69,0
9899,note_on,,59,0,5,,,,,,,,,,,,,,,,1,,69,0
9899,note_on,,59,0,15,,,,,,,,,,,,,,,,15,,65,0
9899,note_on,,59,0,12,,,,,,,,,,,,,,,,11,,65,0
9899,note_on,,0,0,15,,,,,,,,,,,,,,,,15,,69,0
9899,note_on,,59,0,11,,,,,,,,,,,,,,,,10,,69,0
9899,note_on,,59,0,6,,,,,,,,,,,,,,,,2,,65,0
9899,note_on,,59,0,14,,,,,,,,,,,,,,,,13,,65,0
9899,note_on,,59,0,8,,,,,,,,,,,,,,,,6,,65,0
9900,note_on,,1,0,8,,,,,,,,,,,,,,,,6,,64,72
9900,note_on,,1,0,6,,,,,,,,,,,,,,,,2,,64,72
9900,note_on,,1,0,11,,,,,,,,,,,,,,,,10,,67,72
9900,note_on,,1,0,15,,,,,,,,,,,,,,,,15,,64,72
9900,note_on,,0,0,15,,,,,,,,,,,,,,,,15,,67,72
9900,note_on,,1,0,5,,,,,,,,,,,,,,,,1,,67,72
9900,note_on,,1,0,7,,,,,,,,,,,,,,,,5,,67,72
9900,note_on,,1,0,14,,,,,,,,,,,,,,,,13,,64,72
9900,note_on,,1,0,12,,,,,,,,,,,,,,,,11,,64,72
9959,note_on,,59,0,6,,,,,,,,,,,,,,,,2,,64,0
9959,note_on,,59,0,15,,,,,,,,,,,,,,,,15,,64,0
9959,note_on,,0,0,15,,,,,,,,,,,,,,,,15,,67,0
9959,note_on,,59,0,7,,,,,,,,,,,,,,,,5,,67,0
9959,note_on,,59,0,8,,,,,,,,,,,,,,,,6,,64,0
9959,note_on,,59,0,12,,,,,,,,,,,,,,,,11,,64,0
9959,note_on,,59,0,14,,,,,,,,,,,,,,,,13,,64,0
9959,note_on,,59,0,11,,,,,,,,,,,,,,,,10,,67,0
9959,note_on,,59,0,5,,,,,,,,,,,,,,,,1,,67,0
9960,note_on,,1,0,5,,,,,,,,,,,,,,,,1,,72,72
9960,note_on,,1,0,8,,,,,,,,,,,,,,,,6,,69,72
9960,note_on,,1,0,6,,,,,,,,,,,,,,,,2,,69,72
9960,note_on,,1,0,15,,,,,,,,,,,,,,,,15,,69,72
9960,note_on,,1,0,12,,,,,,,,,,,,,,,,11,,69,72
9960,note_on,,1,0,14,,,,,,,,,,,,,,,,13,,69,72
9960,note_on,,1,0,7,,,,,,,,,,,,,,,,5,,72,72
9960,note_on,,0,0,15,,,,,,,,,,,,,,,,15,,72,72
9960,note_on,,1,0,11,,,,,,,,,,,,,,,,10,,72,72
10019,note_on,,59,0,6,,,,,,,,,,,,,,,,2,,69,0
10019,note_on,,59,0,11,,,,,,,,,,,,,,,,10,,72,0
10019,note_on,,59,0,5,,,,,,,,,,,,,,,,1,,72,0
10019,note_on,,59,0,7,,,,,,,,,,,,,,,,5,,72,0
10019,note_on,,59,0,14,,,,,,,,,,,,,,,,13,,69,0
10019,note_on,,59,0,8,,,,,,,,,,,,,,,,6,,69,0
10019,note_on,,0,0,15,,,,,,,,,,,,,,,,15,,72,0
10019,note_on,,59,0,12,,,,,,,,,,,,,,,,11,,69,0
10019,note_on,,59,0,15,,,,,,,,,,,,,,,,15,,69,0
10020,note_on,,1,0,15,,,,,,,,,,,,,,,,15,,67,72
10020,note_on,,1,0,5,,,,,,,,,,,,,,,,1,,71,72
10020,note_on,,1,0,14,,,,,,,,,,,,,,,,13,,67,72
10020,note_on,,1,0,7,,,,,,,,,,,,,,,,5,,71,72
10020,note_on,,1,0,12,,,,,,,,,,,,,,,,11,,67,72
10020,note_on,,0,0,15,,,,,,,,,,,,,,,,15,,71,72
10020,note_on,,1,0,11,,,,,,,,,,,,,,,,10,,71,72
10020,note_on,,1,0,8,,,,,,,,,,,,,,,,6,,67,72
10020,note_on,,1,0,6,,,,,,,,,,,,,,,,2,,67,72
10079,note_on,,59,0,14,,,,,,,,,,,,,,,,13,,67,0
10079,note_on,,0,0,15,,,,,,,,,,,,,,,,15,,71,0
10079,note_on,,59,0,15,,,,,,,,,,,,,,,,15,,67,0
10079,note_on,,59,0,6,,,,,,,,,,,,,,,,2,,67,0
10079,note_on,,59,0,5,,,,,,,,,,,,,,,,1,,71,0
10079,note_on,,59,0,8,,,,,,,,,,,,,,,,6,,67,0
10079,note_on,,59,0,12,,,,,,,,,,,,,,,,11,,67,0
10079,note_on,,59,0,7,,,,,,,,,,,,,,,,5,,71,0
10079,note_on,,59,0,11,,,,,,,,,,,,,,,,10,,71,0
10080,note_on,,1,0,6,,,,,,,,,,,,,,,,2,,60,72
10080,note_on,,1,0,15,,,,,,,,,,,,,,,,15,,60,72
10080,note_on,,1,0,8,,,,,,,,,,,,,,,,6,,60,72
10080,note_on,,1,0,7,,,,,,,,,,,,,,,,5,,76,72
10080,note_on,,1,0,5,,,,,,,,,,,,,,,,1,,76,72
10080,note_on,,0,0,15,,,,,,,,,,,,,,,,15,,76,72
10080,note_on,,1,0,12,,,,,,,,,,,,,,,,11,,60,72
10080,note_on,,1,0,11,,,,,,,,,,,,,,,,10,,76,72
10080,note_on,,1,0,14,,,,,,,,,,,,,,,,13,,60,72
10139,note_on,,59,0,12,,,,,,,,,,,,,,,,11,,60,0
10139,note_on,,59,0,11,,,,,,,,,,,,,,,,10,,76,0
10139,note_on,,59,0,5,,,,,,,,,,,,,,,,1,,76,0
10139,note_on,,59,0,6,,,,,,,,,,,,,,,,2,,60,0
10139,note_on,,59,0,7,,,,,,,,,,,,,,,,5,,76,0
10139,note_on,,59,0,15,,,,,,,,,,,,,,,,15,,60,0
10139,note_on,,59,0,8,,,,,,,,,,,,,,,,6,,60,0
10139,note_on,,0,0,15,,,,,,,,,,,,,,,,15,,76,0
10139,note_on,,59,0,14,,,,,,,,,,,,,,,,13,,60,0
10140,note_on,,1,0,7,,,,,,,,,,,,,,,,5,,74,72
10140,note_on,,1,0,14,,,,,,,,,,,,,,,,13,,59,72
10140,note_on,,1,0,8,,,,,,,,,,,,,,,,6,,59,72
10140,note_on,,1,0,11,,,,,,,,,,,,,,,,10,,74,72
10140,note_on,,1,0,12,,,,,,,,,,,,,,,,11,,59,72
10140,note_on,,1,0,6,,,,,,,,,,,,,,,,2,,59,72
10140,note_on,,1,0,15,,,,,,,,,,,,,,,,15,,59,72
10140,note_on,,1,0,5,,,,,,,,,,,,,,,,1,,74,72
10140,note_on,,0,0,15,,,,,,,,,,,,,,,,15,,74,72
10199,note_on,,59,0,7,,,,,,,,,,,,,,,,5,,74,0
10199,note_on,,59,0,14,,,,,,,,,,,,,,,,13,,59,0
10199,note_on,,59,0,11,,,,,,,,,,,,,,,,10,,74,0
10199,note_on,,59,0,6,,,,,,,,,,,,,,,,2,,59,0
10199,note_on,,59,0,15,,,,,,,,,,,,,,,,15,,59,0
10199,note_on,,59,0,12,,,,,,,,,,,,,,,,11,,59,0
10199,note_on,,0,0,15,,,,,,,,,,,,,,,,15,,74,0
10199,note_on,,59,0,8,,,,,,,,,,,,,,,,6,,59,0
10199,note_on,,59,0,5,,,,,,,,,,,,,,,,1,,74,0
10200,note_on,,1,0,5,,,,,,,,,,,,,,,,1,,77,72
10200,note_on,,1,0,8,,,,,,,,,,,,,,,,6,,62,72
10200,note_on,,1,0,12,,,,,,,,,,,,,,,,11,,62,72
10200,note_on,,1,0,14,,,,,,,,,,,,,,,,13,,62,72
10200,note_on,,0,0,15,,,,,,,,,,,,,,,,15,,77,72
10200,note_on,,1,0,7,,,,,,,,,,,,,,,,5,,77,72
10200,note_on,,1,0,15,,,,,,,,,,,,,,,,15,,62,72
10200,note_on,,1,0,6,,,,,,,,,,,,,,,,2,,62,72
10200,note_on,,1,0,11,,,,,,,,,,,,,,,,10,,77,72
10259,note_on,,59,0,15,,,,,,,,,,,,,,,,15,,62,0
10259,note_on,,59,0,8,,,,,,,,,,,,,,,,6,,62,0
10259,note_on,,59,0,6,,,,,,,,,,,,,,,,2,,62,0
10259,note_on,,59,0,12,,,,,,,,,,,,,,,,11,,62,0
10259,note_on,,59,0,14,,,,,,,,,,,,,,,,13,,62,0
10259,note_on,,0,0,15,,,,,,,,,,,,,,,,15,,77,0
10259,note_on,,59,0,11,,,,,,,,,,,,,,,,10,,77,0
10259,note_on,,59,0,5,,,,,,,,,,,,,,,,1,,77,0
10259,note_on,,59,0,7,,,,,,,,,,,,,,,,5,,77,0
10260,note_on,,1,0,12,,,,,,,,,,,,,,,,11,,60,72
10260,note_on,,1,0,14,,,,,,,,,,,,,,,,13,,60,72
10260,note_on,,1,0,8,,,,,,,,,,,,,,,,6,,60,72
10260,note_on,,1,0,5,,,,,,,,,,,,,,,,1,,76,72
10260,note_on,,1,0,6,,,,,,,,,,,,,,,,2,,60,72
10260,note_on,,1,0,11,,,,,,,,,,,,,,,,10,,76,72
10260,note_on,,1,0,15,,,,,,,,,,,,,,,,15,,60,72
10260,note_on,,1,0,7,,,,,,,,,,,,,,,,5,,76,72
10260,note_on,,0,0,15,,,,,,,,,,,,,,,,15,,76,72
10319,note_on,,59,0,6,,,,,,,,,,,,,,,,2,,60,0
10319,note_on,,59,0,14,,,,,,,,,,,,,,,,13,,60,0
10319,note_on,,59,0,8,,,,,,,,,,,,,,,,6,,60,0
10319,note_on,,59,0,7,,,,,,,,,,,,,,,,5,,76,0
10319,note_on,,59,0,15,,,,,,,,,,,,,,,,15,,60,0
10319,note_on,,59,0,5,,,,,,,,,,,,,,,,1,,76,0
10319,note_on,,59,0,11,,,,,,,,,,,,,,,,10,,76,0
10319,note_on,,59,0,12,,,,,,,,,,,,,,,,11,,60,0
10319,note_on,,0,0,15,,,,,,,,,,,,,,,,15,,76,0
10320,note_on,,1,0,14,,,,,,,,,,,,,,,,13,,65,72
10320,note_on,,1,0,7,,,,,,,,,,,,,,,,5,,81,72
10320,note_on,,1,0,12,,,,,,,,,,,,,,,,11,,65,72
10320,note_on,,1,0,5,,,,,,,,,,,,,,,,1,,81,72
10320,note_on,,1,0,11,,,,,,,,,,,,,,,,10,,81,72
10320,note_on,,0,0,15,,,,,,,,,,,,,,,,15,,72,72
10320,note_on,,1,0,8,,,,,,,,,,,,,,,,6,,65,72
10320,note_on,,0,0,15,,,,,,,,,,,,,,,,15,,81,72
10320,note_on,,1,0,15,,,,,,,,,,,,,,,,15,,65,72
10320,note_on,,1,0,6,,,,,,,,,,,,,,,,2,,65,72
10379,note_on,,0,0,15,,,,,,,,,,,,,,,,15,,81,0
10379,note_on,,59,0,15,,,,,,,,,,,,,,,,15,,65,0
10379,note_on,,59,0,14,,,,,,,,,,,,,,,,13,,65,0
10379,note_on,,59,0,7,,,,,,,,,,,,,,,,5,,81,0
10379,note_on,,59,0,8,,,,,,,,,,,,,,,,6,,65,0
10379,note_on,,59,0,12,,,,,,,,,,,,,,,,11,,65,0
10379,note_on,,59,0,11,,,,,,,,,,,,,,,,10,,81,0
10379,note_on,,59,0,5,,,,,,,,,,,,,,,,1,,81,0
10379,note_on,,59,0,6,,,,,,,,,,,,,,,,2,,65,0
10380,note_on,,1,0,12,,,,,,,,,,,,,,,,11,,64,72
10380,note_on,,1,0,11,,,,,,,,,,,,,,,,10,,79,72
10380,note_on,,1,0,15,,,,,,,,,,,,,,,,15,,64,72
10380,note_on,,0,0,15,,,,,,,,,,,,,,,,15,,79,72
10380,note_on,,1,0,6,,,,,,,,,,,,,,,,2,,64,72
10380,note_on,,1,0,7,,,,,,,,,,,,,,,,5,,79,72
10380,note_on,,1,0,14,,,,,,,,,,,,,,,,13,,64,72
10380,note_on,,1,0,8,,,,,,,,,,,,,,,,6,,64,72
10380,note_on,,1,0,5,,,,,,,,,,,,,,,,1,,79,72
10439,note_on,,59,0,7,,,,,,,,,,,,,,,,5,,79,0
10439,note_on,,0,0,15,,,,,,,,,,,,,,,,15,,79,0
10439,note_on,,0,0,15,,,,,,,,,,,,,,,,15,,64,0
10439,note_on,,59,0,15,,,,,,,,,,,,,,,,15,,72,0
10439,note_on,,59,0,14,,,,,,,,,,,,,,,,13,,64,0
10439,note_on,,59,0,8,,,,,,,,,,,,,,,,6,,64,0
10439,note_on,,59,0,5,,,,,,,,,,,,,,,,1,,79,0
10439,note_on,,59,0,11,,,,,,,,,,,,,,,,10,,79,0
10439,note_on,,59,0,12,,,,,,,,,,,,,,,,11,,64,0
10439,note_on,,59,0,6,,,,,,,,,,,,,,,,2,,64,0
10440,note_on,,1,0,12,,,,,,,,,,,,,,,,11,,62,72
10440,note_on,,1,0,6,,,,,,,,,,,,,,,,2,,62,72
10440,note_on,,1,0,11,,,,,,,,,,,,,,,,10,,71,72
10440,note_on,,1,0,15,,,,,,,,,,,,,,,,15,,62,72
10440,note_on,,0,0,15,,,,,,,,,,,,,,,,15,,71,72
10440,note_on,,0,0,15,,,,,,,,,,,,,,,,15,,65,72
10440,note_on,,1,0,14,,,,,,,,,,,,,,,,13,,62,72
10440,note_on,,1,0,8,,,,,,,,,,,,,,,,6,,62,72
10440,note_on,,1,0,7,,,,,,,,,,,,,,,,5,,71,72
10440,note_on,,1,0,5,,,,,,,,,,,,,,,,1,,71,72
10499,note_on,,59,0,7,,,,,,,,,,,,,,,,5,,71,0
10499,note_on,,59,0,5,,,,,,,,,,,,,,,,1,,71,0
10499,note_on,,59,0,14,,,,,,,,,,,,,,,,13,,62,0
10499,note_on,,0,0,15,,,,,,,,,,,,,,,,15,,65,0
10499,note_on,,0,0,15,,,,,,,,,,,,,,,,15,,71,0
10499,note_on,,59,0,15,,,,,,,,,,,,,,,,15,,62,0
10499,note_on,,59,0,12,,,,,,,,,,,,,,,,11,,62,0
10499,note_on,,59,0,11,,,,,,,,,,,,,,,,10,,71,0
10499,note_on,,59,0,8,,,,,,,,,,,,,,,,6,,62,0
10499,note_on,,59,0,6,,,,,,,,,,,,,,,,2,,62,0
10500,note_on,,1,0,7,,,,,,,,,,,,,,,,5,,72,72
10500,note_on,,1,0,12,,,,,,,,,,,,,,,,11,,60,72
10500,note_on,,1,0,11,,,,,,,,,,,,,,,,10,,72,72
10500,note_on,,1,0,5,,,,,,,,,,,,,,,,1,,72,72
10500,note_on,,1,0,6,,,,,,,,,,,,,,,,2,,60,72
10500,note_on,,1,0,14,,,,,,,,,,,,,,,,13,,60,72
10500,note_on,,1,0,15,,,,,,,,,,,,,,,,15,,60,72
10500,note_on,,0,0,15,,,,,,,,,,,,,,,,15,,72,72
10500,note_on,,0,0,15,,,,,,,,,,,,,,,,15,,64,72
10500,note_on,,1,0,8,,,,,,,,,,,,,,,,6,,60,72
10559,note_on,,59,0,6,,,,,,,,,,,,,,,,2,,60,0
10559,note_on,,59,0,8,,,,,,,,,,,,,,,,6,,60,0
10559,note_on,,59,0,12,,,,,,,,,,,,,,,,11,,60,0
10559,note_on,,59,0,15,,,,,,,,,,,,,,,,15,,60,0
10559,note_on,,0,0,15,,,,,,,,,,,,,,,,15,,72,0
10559,note_on,,59,0,11,,,,,,,,,,,,,,,,10,,72,0
10559,note_on,,59,0,5,,,,,,,,,,,,,,,,1,,72,0
10559,note_on,,59,0,14,,,,,,,,,,,,,,,,13,,60,0
10559,note_on,,59,0,7,,,,,,,,,,,,,,,,5,,72,0
10559,note_on,,0,0,15,,,,,,,,,,,,,,,,15,,64,0
10560,note_on,,1,0,5,,,,,,,,,,,,,,,,1,,74,72
10560,note_on,,1,0,14,,,,,,,,,,,,,,,,13,,55,72
10560,note_on,,1,0,12,,,,,,,,,,,,,,,,11,,59,72
10560,note_on,,1,0,11,,,,,,,,,,,,,,,,10,,74,72
10560,note_on,,1,0,6,,,,,,,,,,,,,,,,2,,55,72
10560,note_on,,1,0,7,,,,,,,,,,,,,,,,5,,74,72
10560,note_on,,1,0,8,,,,,,,,,,,,,,,,6,,59,72
10560,note_on,,0,0,15,,,,,,,,,,,,,,,,15,,67,72
10560,note_on,,0,0,15,,,,,,,,,,,,,,,,15,,71,72
10560,note_on,,0,0,15,,,,,,,,,,,,,,,,15,,74,72
10560,note_on,,1,0,15,,,,,,,,,,,,,,,,15,,55,72
10619,note_on,,59,0,6,,,,,,,,,,,,,,,,2,,55,0
10619,note_on,,59,0,15,,,,,,,,,,,,,,,,15,,55,0
10619,note_on,,59,0,14,,,,,,,,,,,,,,,,13,,55,0
10620,note_on,,1,0,14,,,,,,,,,,,,,,,,13,,43,72
10620,note_on,,1,0,15,,,,,,,,,,,,,,,,15,,43,72
10620,note_on,,1,0,6,,,,,,,,,,,,,,,,2,,43,72
10679,note_on,,59,0,14,,,,,,,,,,,,,,,,13,,43,0
10679,note_on,,59,0,15,,,,,,,,,,,,,,,,15,,74,0
10679,note_on,,0,0,15,,,,,,,,,,,,,,,,15,,71,0
10679,note_on,,0,0,15,,,,,,,,,,,,,,,,15,,67,0
10679,note_on,,0,0,15,,,,,,,,,,,,,,,,15,,43,0
10679,note_on,,119,0,5,,,,,,,,,,,,,,,,1,,74,0
10679,note_on,,59,0,6,,,,,,,,,,,,,,,,2,,43,0
10679,note_on,,119,0,11,,,,,,,,,,,,,,,,10,,74,0
10679,note_on,,119,0,12,,,,,,,,,,,,,,,,11,,59,0
10679,note_on,,119,0,7,,,,,,,,,,,,,,,,5,,74,0
10679,note_on,,119,0,8,,,,,,,,,,,,,,,,6,,59,0
10680,note_on,,961,0,9,,,,,,,,,,,,,,,,7,,62,72
10680,note_on,,1,0,12,,,,,,,,,,,,,,,,11,,62,72
10680,note_on,,0,0,15,,,,,,,,,,,,,,,,15,,67,72
10680,note_on,,0,0,15,,,,,,,,,,,,,,,,15,,62,72
10680,note_on,,1,0,14,,,,,,,,,,,,,,,,13,,47,72
10680,note_on,,0,0,15,,,,,,,,,,,,,,,,15,,55,72
10680,note_on,,961,0,13,,,,,,,,,,,,,,,,12,,67,72
10680,note_on,,1,0,15,,,,,,,,,,,,,,,,15,,47,72
10680,note_on,,1,0,6,,,,,,,,,,,,,,,,2,,47,72
10739,note_on,,59,0,9,,,,,,,,,,,,,,,,7,,62,0
10739,note_on,,0,0,15,,,,,,,,,,,,,,,,15,,55,0
10739,note_on,,59,0,12,,,,,,,,,,,,,,,,11,,62,0
10739,note_on,,59,0,14,,,,,,,,,,,,,,,,13,,47,0
10739,note_on,,0,0,15,,,,,,,,,,,,,,,,15,,62,0
10739,note_on,,59,0,15,,,,,,,,,,,,,,,,15,,47,0
10739,note_on,,59,0,6,,,,,,,,,,,,,,,,2,,47,0
10739,note_on,,0,0,15,,,,,,,,,,,,,,,,15,,67,0
10739,note_on,,59,0,13,,,,,,,,,,,,,,,,12,,67,0
10740,note_on,,0,0,15,,,,,,,,,,,,,,,,15,,59,72
10740,note_on,,1,0,6,,,,,,,,,,,,,,,,2,,43,72
10740,note_on,,0,0,15,,,,,,,,,,,,,,,,15,,62,72
10740,note_on,,1,0,14,,,,,,,,,,,,,,,,13,,43,72
10740,note_on,,1,0,13,,,,,,,,,,,,,,,,12,,67,72
10740,note_on,,1,0,9,,,,,,,,,,,,,,,,7,,65,72
10740,note_on,,1,0,15,,,,,,,,,,,,,,,,15,,43,72
10740,note_on,,1,0,12,,,,,,,,,,,,,,,,11,,65,72
10799,note_on,,0,0,15,,,,,,,,,,,,,,,,15,,62,0
10799,note_on,,59,0,14,,,,,,,,,,,,,,,,13,,43,0
10799,note_on,,59,0,12,,,,,,,,,,,,,,,,11,,65,0
10799,note_on,,59,0,6,,,,,,,,,,,,,,,,2,,43,0
10799,note_on,,59,0,13,,,,,,,,,,,,,,,,12,,67,0
10799,note_on,,59,0,15,,,,,,,,,,,,,,,,15,,43,0
10799,note_on,,0,0,15,,,,,,,,,,,,,,,,15,,59,0
10799,note_on,,59,0,9,,,,,,,,,,,,,,,,7,,65,0
10800,note_on,,1,0,9,,,,,,,,,,,,,,,,7,,64,72
10800,note_on,,1,0,12,,,,,,,,,,,,,,,,11,,64,72
10800,note_on,,1,0,15,,,,,,,,,,,,,,,,15,,48,72
10800,note_on,,0,0,15,,,,,,,,,,,,,,,,15,,64,72
10800,note_on,,1,0,6,,,,,,,,,,,,,,,,2,,48,72
10800,note_on,,0,0,15,,,,,,,,,,,,,,,,15,,60,72
10800,note_on,,0,0,15,,,,,,,,,,,,,,,,15,,55,72
10800,note_on,,1,0,14,,,,,,,,,,,,,,,,13,,48,72
10800,note_on,,1,0,13,,,,,,,,,,,,,,,,12,,67,72
10829,note_on,,29,0,12,,,,,,,,,,,,,,,,11,,64,0
10829,note_on,,29,0,9,,,,,,,,,,,,,,,,7,,64,0
10830,note_on,,1,0,12,,,,,,,,,,,,,,,,11,,62,72
10830,note_on,,1,0,9,,,,,,,,,,,,,,,,7,,62,72
10859,note_on,,59,0,6,,,,,,,,,,,,,,,,2,,48,0
10859,note_on,,29,0,12,,,,,,,,,,,,,,,,11,,62,0
10859,note_on,,59,0,15,,,,,,,,,,,,,,,,15,,48,0
10859,note_on,,29,0,9,,,,,,,,,,,,,,,,7,,62,0
10859,note_on,,59,0,14,,,,,,,,,,,,,,,,13,,48,0
10860,note_on,,1,0,14,,,,,,,,,,,,,,,,13,,52,72
10860,note_on,,1,0,15,,,,,,,,,,,,,,,,15,,52,72
10860,note_on,,1,0,9,,,,,,,,,,,,,,,,7,,60,72
10860,note_on,,1,0,12,,,,,,,,,,,,,,,,11,,60,72
10860,note_on,,1,0,6,,,,,,,,,,,,,,,,2,,52,72
10889,note_on,,29,0,12,,,,,,,,,,,,,,,,11,,60,0
10889,note_on,,29,0,9,,,,,,,,,,,,,,,,7,,60,0
10890,note_on,,1,0,9,,,,,,,,,,,,,,,,7,,64,72
10890,note_on,,1,0,12,,,,,,,,,,,,,,,,11,,64,72
10919,note_on,,59,0,15,,,,,,,,,,,,,,,,15,,64,0
10919,note_on,,119,0,13,,,,,,,,,,,,,,,,12,,67,0
10919,note_on,,0,0,15,,,,,,,,,,,,,,,,15,,60,0
10919,note_on,,0,0,15,,,,,,,,,,,,,,,,15,,55,0
10919,note_on,,0,0,15,,,,,,,,,,,,,,,,15,,52,0
10919,note_on,,59,0,6,,,,,,,,,,,,,,,,2,,52,0
10919,note_on,,59,0,14,,,,,,,,,,,,,,,,13,,52,0
10919,note_on,,29,0,12,,,,,,,,,,,,,,,,11,,64,0
10919,note_on,,29,0,9,,,,,,,,,,,,,,,,7,,64,0
10920,note_on,,1,0,9,,,,,,,,,,,,,,,,7,,62,72
10920,note_on,,0,0,15,,,,,,,,,,,,,,,,15,,62,72
10920,note_on,,1,0,14,,,,,,,,,,,,,,,,13,,55,72
10920,note_on,,1,0,6,,,,,,,,,,,,,,,,2,,55,72
10920,note_on,,0,0,15,,,,,,,,,,,,,,,,15,,58,72
10920,note_on,,241,0,7,,,,,,,,,,,,,,,,5,,79,72
10920,note_on,,241,0,11,,,,,,,,,,,,,,,,10,,79,72
10920,note_on,,241,0,5,,,,,,,,,,,,,,,,1,,79,72
10920,note_on,,1,0,13,,,,,,,,,,,,,,,,12,,55,72
10920,note_on,,1,0,12,,,,,,,,,,,,,,,,11,,62,72
10920,note_on,,1,0,15,,,,,,,,,,,,,,,,15,,55,72
10949,note_on,,29,0,9,,,,,,,,,,,,,,,,7,,62,0
10949,note_on,,29,0,12,,,,,,,,,,,,,,,,11,,62,0
10950,note_on,,1,0,12,,,,,,,,,,,,,,,,11,,60,72
10950,note_on,,1,0,9,,,,,,,,,,,,,,,,7,,60,72
10979,note_on,,0,0,15,,,,,,,,,,,,,,,,15,,62,0
10979,note_on,,59,0,15,,,,,,,,,,,,,,,,15,,55,0
10979,note_on,,0,0,15,,,,,,,,,,,,,,,,15,,58,0
10979,note_on,,59,0,14,,,,,,,,,,,,,,,,13,,55,0
10979,note_on,,29,0,9,,,,,,,,,,,,,,,,7,,60,0
10979,note_on,,59,0,7,,,,,,,,,,,,,,,,5,,79,0
10979,note_on,,59,0,11,,,,,,,,,,,,,,,,10,,79,0
10979,note_on,,59,0,5,,,,,,,,,,,,,,,,1,,79,0
10979,note_on,,29,0,12,,,,,,,,,,,,,,,,11,,60,0
10979,note_on,,59,0,6,,,,,,,,,,,,,,,,2,,55,0
10980,note_on,,1,0,15,,,,,,,,,,,,,,,,15,,43,72
10980,note_on,,1,0,11,,,,,,,,,,,,,,,,10,,79,72
10980,note_on,,0,0,15,,,,,,,,,,,,,,,,15,,67,72
10980,note_on,,0,0,15,,,,,,,,,,,,,,,,15,,62,72
10980,note_on,,0,0,15,,,,,,,,,,,,,,,,15,,58,72
10980,note_on,,1,0,14,,,,,,,,,,,,,,,,13,,43,72
10980,note_on,,1,0,7,,,,,,,,,,,,,,,,5,,79,72
10980,note_on,,1,0,5,,,,,,,,,,,,,,,,1,,79,72
10980,note_on,,1,0,12,,,,,,,,,,,,,,,,11,,59,72
10980,note_on,,1,0,9,,,,,,,,,,,,,,,,7,,59,72
10980,note_on,,1,0,6,,,,,,,,,,,,,,,,2,,43,72
11009,note_on,,29,0,9,,,,,,,,,,,,,,,,7,,59,0
11009,note_on,,29,0,12,,,,,,,,,,,,,,,,11,,59,0
11010,note_on,,1,0,9,,,,,,,,,,,,,,,,7,,62,72
11010,note_on,,1,0,12,,,,,,,,,,,,,,,,11,,62,72
11039,note_on,,29,0,9,,,,,,,,,,,,,,,,7,,62,0
11039,note_on,,119,0,13,,,,,,,,,,,,,,,,12,,55,0
11039,note_on,,59,0,7,,,,,,,,,,,,,,,,5,,79,0
11039,note_on,,59,0,5,,,,,,,,,,,,,,,,1,,79,0
11039,note_on,,59,0,14,,,,,,,,,,,,,,,,13,,43,0
11039,note_on,,59,0,6,,,,,,,,,,,,,,,,2,,43,0
11039,note_on,,59,0,11,,,,,,,,,,,,,,,,10,,79,0
11039,note_on,,0,0,15,,,,,,,,,,,,,,,,15,,62,0
11039,note_on,,0,0,15,,,,,,,,,,,,,,,,15,,67,0
11039,note_on,,59,0,15,,,,,,,,,,,,,,,,15,,43,0
11039,note_on,,29,0,12,,,,,,,,,,,,,,,,11,,62,0
11039,note_on,,0,0,15,,,,,,,,,,,,,,,,15,,58,0
11040,note_on,,1,0,12,,,,,,,,,,,,,,,,11,,64,72
11040,note_on,,0,0,15,,,,,,,,,,,,,,,,15,,67,72
11040,note_on,,1,0,14,,,,,,,,,,,,,,,,13,,48,72
11040,note_on,,1,0,5,,,,,,,,,,,,,,,,1,,79,72
11040,note_on,,0,0,15,,,,,,,,,,,,,,,,15,,64,72
11040,note_on,,1,0,15,,,,,,,,,,,,,,,,15,,48,72
11040,note_on,,1,0,9,,,,,,,,,,,,,,,,7,,64,72
11040,note_on,,1,0,11,,,,,,,,,,,,,,,,10,,79,72
11040,note_on,,1,0,6,,,,,,,,,,,,,,,,2,,48,72
11040,note_on,,1,0,7,,,,,,,,,,,,,,,,5,,79,72
11069,note_on,,29,0,12,,,,,,,,,,,,,,,,11,,64,0
11069,note_on,,29,0,9,,,,,,,,,,,,,,,,7,,64,0
11070,note_on,,1,0,9,,,,,,,,,,,,,,,,7,,62,72
11070,note_on,,1,0,12,,,,,,,,,,,,,,,,11,,62,72
11099,note_on,,59,0,6,,,,,,,,,,,,,,,,2,,48,0
11099,note_on,,59,0,14,,,,,,,,,,,,,,,,13,,48,0
11099,note_on,,29,0,9,,,,,,,,,,,,,,,,7,,62,0
11099,note_on,,29,0,12,,,,,,,,,,,,,,,,11,,62,0
11099,note_on,,59,0,15,,,,,,,,,,,,,,,,15,,48,0
11100,note_on,,1,0,9,,,,,,,,,,,,,,,,7,,60,72
11100,note_on,,1,0,15,,,,,,,,,,,,,,,,15,,60,72
11100,note_on,,1,0,6,,,,,,,,,,,,,,,,2,,60,72
11100,note_on,,1,0,12,,,,,,,,,,,,,,,,11,,60,72
11100,note_on,,1,0,14,,,,,,,,,,,,,,,,13,,60,72
11129,note_on,,29,0,12,,,,,,,,,,,,,,,,11,,60,0
11129,note_on,,29,0,9,,,,,,,,,,,,,,,,7,,60,0
11130,note_on,,1,0,12,,,,,,,,,,,,,,,,11,,64,72
11130,note_on,,1,0,9,,,,,,,,,,,,,,,,7,,64,72
11159,note_on,,119,0,5,,,,,,,,,,,,,,,,1,,79,0
11159,note_on,,119,0,11,,,,,,,,,,,,,,,,10,,79,0
11159,note_on,,29,0,12,,,,,,,,,,,,,,,,11,,64,0
11159,note_on,,59,0,14,,,,,,,,,,,,,,,,13,,60,0
11159,note_on,,119,0,7,,,,,,,,,,,,,,,,5,,79,0
11159,note_on,,29,0,9,,,,,,,,,,,,,,,,7,,64,0
11159,note_on,,59,0,6,,,,,,,,,,,,,,,,2,,60,0
11159,note_on,,0,0,15,,,,,,,,,,,,,,,,15,,60,0
11159,note_on,,0,0,15,,,,,,,,,,,,,,,,15,,67,0
11159,note_on,,59,0,15,,,,,,,,,,,,,,,,15,,64,0
11160,note_on,,0,0,15,,,,,,,,,,,,,,,,15,,59,72
11160,note_on,,1,0,6,,,,,,,,,,,,,,,,2,,59,72
11160,note_on,,1,0,15,,,,,,,,,,,,,,,,15,,74,72
11160,note_on,,1,0,12,,,,,,,,,,,,,,,,11,,62,72
11160,note_on,,1,0,14,,,,,,,,,,,,,,,,13,,59,72
11160,note_on,,1,0,11,,,,,,,,,,,,,,,,10,,67,72
11160,note_on,,121,0,13,,,,,,,,,,,,,,,,12,,67,72
11160,note_on,,1,0,9,,,,,,,,,,,,,,,,7,,62,72
11160,note_on,,1,0,5,,,,,,,,,,,,,,,,1,,67,72
11160,note_on,,0,0,15,,,,,,,,,,,,,,,,15,,67,72
11160,note_on,,1,0,7,,,,,,,,,,,,,,,,5,,67,72
11189,note_on,,29,0,12,,,,,,,,,,,,,,,,11,,62,0
11189,note_on,,29,0,9,,,,,,,,,,,,,,,,7,,62,0
11190,note_on,,1,0,12,,,,,,,,,,,,,,,,11,,64,72
11190,note_on,,1,0,9,,,,,,,,,,,,,,,,7,,64,72
11219,note_on,,29,0,12,,,,,,,,,,,,,,,,11,,64,0
11219,note_on,,59,0,6,,,,,,,,,,,,,,,,2,,59,0
11219,note_on,,0,0,15,,,,,,,,,,,,,,,,15,,59,0
11219,note_on,,29,0,9,,,,,,,,,,,,,,,,7,,64,0
11219,note_on,,59,0,14,,,,,,,,,,,,,,,,13,,59,0
11219,note_on,,59,0,13,,,,,,,,,,,,,,,,12,,67,0
11219,note_on,,59,0,15,,,,,,,,,,,,,,,,15,,74,0
11220,note_on,,1,0,15,,,,,,,,,,,,,,,,15,,62,72
11220,note_on,,0,0,15,,,,,,,,,,,,,,,,15,,71,72
11220,note_on,,1,0,6,,,,,,,,,,,,,,,,2,,62,72
11220,note_on,,1,0,9,,,,,,,,,,,,,,,,7,,65,72
11220,note_on,,1,0,14,,,,,,,,,,,,,,,,13,,62,72
11220,note_on,,1,0,12,,,,,,,,,,,,,,,,11,,65,72
11220,note_on,,1,0,13,,,,,,,,,,,,,,,,12,,67,72
11249,note_on,,29,0,9,,,,,,,,,,,,,,,,7,,65,0
11249,note_on,,29,0,12,,,,,,,,,,,,,,,,11,,65,0
11250,note_on,,1,0,9,,,,,,,,,,,,,,,,7,,62,72
11250,note_on,,1,0,12,,,,,,,,,,,,,,,,11,,62,72
11279,note_on,,29,0,12,,,,,,,,,,,,,,,,11,,62,0
11279,note_on,,59,0,14,,,,,,,,,,,,,,,,13,,62,0
11279,note_on,,29,0,9,,,,,,,,,,,,,,,,7,,62,0
11279,note_on,,119,0,5,,,,,,,,,,,,,,,,1,,67,0
11279,note_on,,119,0,7,,,,,,,,,,,,,,,,5,,67,0
11279,note_on,,59,0,13,,,,,,,,,,,,,,,,12,,67,0
11279,note_on,,59,0,15,,,,,,,,,,,,,,,,15,,62,0
11279,note_on,,0,0,15,,,,,,,,,,,,,,,,15,,71,0
11279,note_on,,119,0,11,,,,,,,,,,,,,,,,10,,67,0
11279,note_on,,59,0,6,,,,,,,,,,,,,,,,2,,62,0
11280,note_on,,0,0,15,,,,,,,,,,,,,,,,15,,76,72
11280,note_on,,1,0,15,,,,,,,,,,,,,,,,15,,60,72
11280,note_on,,1,0,12,,,,,,,,,,,,,,,,11,,64,72
11280,note_on,,1,0,9,,,,,,,,,,,,,,,,7,,64,72
11280,note_on,,1,0,14,,,,,,,,,,,,,,,,13,,60,72
11280,note_on,,1,0,6,,,,,,,,,,,,,,,,2,,60,72
11280,note_on,,1,0,13,,,,,,,,,,,,,,,,12,,67,72
11280,note_on,,0,0,15,,,,,,,,,,,,,,,,15,,72,72
11309,note_on,,29,0,12,,,,,,,,,,,,,,,,11,,64,0
11309,note_on,,29,0,9,,,,,,,,,,,,,,,,7,,64,0
11310,note_on,,1,0,9,,,,,,,,,,,,,,,,7,,62,72
11310,note_on,,1,0,12,,,,,,,,,,,,,,,,11,,62,72
11339,note_on,,29,0,9,,,,,,,,,,,,,,,,7,,62,0
11339,note_on,,59,0,14,,,,,,,,,,,,,,,,13,,60,0
11339,note_on,,59,0,6,,,,,,,,,,,,,,,,2,,60,0
11339,note_on,,0,0,15,,,,,,,,,,,,,,,,15,,60,0
11339,note_on,,59,0,15,,,,,,,,,,,,,,,,15,,67,0
11339,note_on,,29,0,12,,,,,,,,,,,,,,,,11,,62,0
11340,note_on,,1,0,6,,,,,,,,,,,,,,,,2,,52,72
11340,note_on,,1,0,15,,,,,,,,,,,,,,,,15,,52,72
11340,note_on,,0,0,15,,,,,,,,,,,,,,,,15,,67,72
11340,note_on,,1,0,14,,,,,,,,,,,,,,,,13,,52,72
11340,note_on,,1,0,9,,,,,,,,,,,,,,,,7,,60,72
11340,note_on,,1,0,12,,,,,,,,,,,,,,,,11,,60,72
11369,note_on,,29,0,9,,,,,,,,,,,,,,,,7,,60,0
11369,note_on,,29,0,12,,,,,,,,,,,,,,,,11,,60,0
11370,note_on,,1,0,9,,,,,,,,,,,,,,,,7,,64,72
11370,note_on,,1,0,12,,,,,,,,,,,,,,,,11,,64,72
11399,note_on,,59,0,14,,,,,,,,,,,,,,,,13,,52,0
11399,note_on,,29,0,9,,,,,,,,,,,,,,,,7,,64,0
11399,note_on,,119,0,13,,,,,,,,,,,,,,,,12,,67,0
11399,note_on,,0,0,15,,,,,,,,,,,,,,,,15,,52,0
11399,note_on,,59,0,6,,,,,,,,,,,,,,,,2,,52,0
11399,note_on,,0,0,15,,,,,,,,,,,,,,,,15,,72,0
11399,note_on,,59,0,15,,,,,,,,,,,,,,,,15,,76,0
11399,note_on,,29,0,12,,,,,,,,,,,,,,,,11,,64,0
11400,note_on,,1,0,15,,,,,,,,,,,,,,,,15,,55,72
11400,note_on,,1,0,12,,,,,,,,,,,,,,,,11,,62,72
11400,note_on,,1,0,14,,,,,,,,,,,,,,,,13,,55,72
11400,note_on,,0,0,15,,,,,,,,,,,,,,,,15,,74,72
11400,note_on,,1,0,13,,,,,,,,,,,,,,,,12,,55,72
11400,note_on,,1,0,9,,,,,,,,,,,,,,,,7,,62,72
11400,note_on,,1,0,6,,,,,,,,,,,,,,,,2,,55,72
11400,note_on,,0,0,15,,,,,,,,,,,,,,,,15,,71,72
11429,note_on,,29,0,9,,,,,,,,,,,,,,,,7,,62,0
11429,note_on,,29,0,12,,,,,,,,,,,,,,,,11,,62,0
11430,note_on,,1,0,12,,,,,,,,,,,,,,,,11,,64,72
11430,note_on,,1,0,9,,,,,,,,,,,,,,,,7,,64,72
11459,note_on,,59,0,14,,,,,,,,,,,,,,,,13,,55,0
11459,note_on,,29,0,12,,,,,,,,,,,,,,,,11,,64,0
11459,note_on,,29,0,9,,,,,,,,,,,,,,,,7,,64,0
11459,note_on,,0,0,15,,,,,,,,,,,,,,,,15,,55,0
11459,note_on,,0,0,15,,,,,,,,,,,,,,,,15,,74,0
11459,note_on,,0,0,15,,,,,,,,,,,,,,,,15,,71,0
11459,note_on,,59,0,15,,,,,,,,,,,,,,,,15,,67,0
11459,note_on,,59,0,6,,,,,,,,,,,,,,,,2,,55,0
11460,note_on,,1,0,14,,,,,,,,,,,,,,,,13,,59,72
11460,note_on,,1,0,12,,,,,,,,,,,,,,,,11,,65,72
11460,note_on,,1,0,9,,,,,,,,,,,,,,,,7,,65,72
11460,note_on,,1,0,6,,,,,,,,,,,,,,,,2,,59,72
11460,note_on,,0,0,15,,,,,,,,,,,,,,,,15,,67,72
11460,note_on,,1,0,15,,,,,,,,,,,,,,,,15,,59,72
11489,note_on,,29,0,9,,,,,,,,,,,,,,,,7,,65,0
11489,note_on,,29,0,12,,,,,,,,,,,,,,,,11,,65,0
11490,note_on,,1,0,9,,,,,,,,,,,,,,,,7,,62,72
11490,note_on,,1,0,12,,,,,,,,,,,,,,,,11,,62,72
11519,note_on,,29,0,12,,,,,,,,,,,,,,,,11,,62,0
11519,note_on,,59,0,14,,,,,,,,,,,,,,,,13,,59,0
11519,note_on,,29,0,9,,,,,,,,,,,,,,,,7,,62,0
11519,note_on,,59,0,6,,,,,,,,,,,,,,,,2,,59,0
11519,note_on,,119,0,13,,,,,,,,,,,,,,,,12,,55,0
11519,note_on,,59,0,15,,,,,,,,,,,,,,,,15,,59,0
11520,note_on,,1,0,14,,,,,,,,,,,,,,,,13,,60,72
11520,note_on,,1,0,15,,,,,,,,,,,,,,,,15,,60,72
11520,note_on,,0,0,15,,,,,,,,,,,,,,,,15,,64,72
11520,note_on,,1,0,9,,,,,,,,,,,,,,,,7,,64,72
11520,note_on,,1,0,12,,,,,,,,,,,,,,,,11,,64,72
11520,note_on,,1,0,6,,,,,,,,,,,,,,,,2,,60,72
11579,note_on,,59,0,14,,,,,,,,,,,,,,,,13,,60,0
11579,note_on,,59,0,6,,,,,,,,,,,,,,,,2,,60,0
11579,note_on,,0,0,15,,,,,,,,,,,,,,,,15,,64,0
11579,note_on,,59,0,12,,,,,,,,,,,,,,,,11,,64,0
11579,note_on,,59,0,9,,,,,,,,,,,,,,,,7,,64,0
11579,note_on,,0,0,15,,,,,,,,,,,,,,,,15,,60,0
11579,note_on,,59,0,15,,,,,,,,,,,,,,,,15,,67,0
11580,note_on,,1,0,14,,,,,,,,,,,,,,,,13,,48,72
11580,note_on,,1,0,12,,,,,,,,,,,,,,,,11,,60,72
11580,note_on,,0,0,15,,,,,,,,,,,,,,,,15,,76,72
11580,note_on,,1,0,9,,,,,,,,,,,,,,,,7,,60,72
11580,note_on,,1,0,15,,,,,,,,,,,,,,,,15,,48,72
11580,note_on,,1,0,6,,,,,,,,,,,,,,,,2,,48,72
11580,note_on,,0,0,15,,,,,,,,,,,,,,,,15,,67,72
11639,note_on,,59,0,9,,,,,,,,,,,,,,,,7,,60,0
11639,note_on,,59,0,15,,,,,,,,,,,,,,,,15,,48,0
11639,note_on,,59,0,6,,,,,,,,,,,,,,,,2,,48,0
11639,note_on,,0,0,15,,,,,,,,,,,,,,,,15,,76,0
11639,note_on,,59,0,14,,,,,,,,,,,,,,,,13,,48,0
11639,note_on,,59,0,12,,,,,,,,,,,,,,,,11,,60,0
11640,note_on,,361,0,11,,,,,,,,,,,,,,,,10,,74,72
11640,note_on,,1,0,14,,,,,,,,,,,,,,,,13,,47,72
11640,note_on,,1,0,6,,,,,,,,,,,,,,,,2,,47,72
11640,note_on,,1,0,12,,,,,,,,,,,,,,,,11,,67,72
11640,note_on,,1,0,9,,,,,,,,,,,,,,,,7,,55,72
11640,note_on,,361,0,5,,,,,,,,,,,,,,,,1,,74,72
11640,note_on,,361,0,7,,,,,,,,,,,,,,,,5,,74,72
11640,note_on,,1,0,15,,,,,,,,,,,,,,,,15,,47,72
11640,note_on,,0,0,15,,,,,,,,,,,,,,,,15,,74,72
11699,note_on,,59,0,15,,,,,,,,,,,,,,,,15,,47,0
11699,note_on,,59,0,6,,,,,,,,,,,,,,,,2,,47,0
11699,note_on,,59,0,7,,,,,,,,,,,,,,,,5,,74,0
11699,note_on,,59,0,12,,,,,,,,,,,,,,,,11,,67,0
11699,note_on,,59,0,9,,,,,,,,,,,,,,,,7,,55,0
11699,note_on,,59,0,11,,,,,,,,,,,,,,,,10,,74,0
11699,note_on,,59,0,5,,,,,,,,,,,,,,,,1,,74,0
11699,note_on,,59,0,14,,,,,,,,,,,,,,,,13,,47,0
11699,note_on,,0,0,15,,,,,,,,,,,,,,,,15,,74,0
11700,note_on,,1,0,15,,,,,,,,,,,,,,,,15,,43,72
11700,note_on,,0,0,15,,,,,,,,,,,,,,,,15,,71,72
11700,note_on,,1,0,11,,,,,,,,,,,,,,,,10,,77,72
11700,note_on,,1,0,9,,,,,,,,,,,,,,,,7,,55,72
11700,note_on,,1,0,12,,,,,,,,,,,,,,,,11,,67,72
11700,note_on,,1,0,6,,,,,,,,,,,,,,,,2,,43,72
11700,note_on,,1,0,14,,,,,,,,,,,,,,,,13,,43,72
11700,note_on,,1,0,7,,,,,,,,,,,,,,,,5,,77,72
11700,note_on,,1,0,5,,,,,,,,,,,,,,,,1,,77,72
11759,note_on,,59,0,14,,,,,,,,,,,,,,,,13,,43,0
11759,note_on,,59,0,12,,,,,,,,,,,,,,,,11,,67,0
11759,note_on,,59,0,7,,,,,,,,,,,,,,,,5,,77,0
11759,note_on,,59,0,5,,,,,,,,,,,,,,,,1,,77,0
11759,note_on,,59,0,6,,,,,,,,,,,,,,,,2,,43,0
11759,note_on,,0,0,15,,,,,,,,,,,,,,,,15,,43,0
11759,note_on,,0,0,15,,,,,,,,,,,,,,,,15,,71,0
11759,note_on,,59,0,9,,,,,,,,,,,,,,,,7,,55,0
11759,note_on,,59,0,11,,,,,,,,,,,,,,,,10,,77,0
11759,note_on,,59,0,15,,,,,,,,,,,,,,,,15,,67,0
11760,note_on,,1,0,7,,,,,,,,,,,,,,,,5,,76,72
11760,note_on,,1,0,9,,,,,,,,,,,,,,,,7,,55,72
11760,note_on,,1,0,12,,,,,,,,,,,,,,,,11,,67,72
11760,note_on,,1,0,5,,,,,,,,,,,,,,,,1,,76,72
11760,note_on,,1,0,11,,,,,,,,,,,,,,,,10,,76,72
11760,note_on,,0,0,15,,,,,,,,,,,,,,,,15,,64,72
11760,note_on,,0,0,15,,,,,,,,,,,,,,,,15,,67,72
11760,note_on,,0,0,15,,,,,,,,,,,,,,,,15,,72,72
11760,note_on,,1,0,15,,,,,,,,,,,,,,,,15,,48,72
11760,note_on,,1,0,6,,,,,,,,,,,,,,,,2,,48,72
11760,note_on,,1,0,14,,,,,,,,,,,,,,,,13,,48,72
11789,note_on,,29,0,11,,,,,,,,,,,,,,,,10,,76,0
11789,note_on,,29,0,5,,,,,,,,,,,,,,,,1,,76,0
11789,note_on,,29,0,7,,,,,,,,,,,,,,,,5,,76,0
11790,note_on,,1,0,5,,,,,,,,,,,,,,,,1,,74,72
11790,note_on,,1,0,11,,,,,,,,,,,,,,,,10,,74,72
11790,note_on,,1,0,7,,,,,,,,,,,,,,,,5,,74,72
11819,note_on,,59,0,14,,,,,,,,,,,,,,,,13,,48,0
11819,note_on,,29,0,11,,,,,,,,,,,,,,,,10,,74,0
11819,note_on,,59,0,6,,,,,,,,,,,,,,,,2,,48,0
11819,note_on,,29,0,5,,,,,,,,,,,,,,,,1,,74,0
11819,note_on,,59,0,15,,,,,,,,,,,,,,,,15,,48,0
11819,note_on,,29,0,7,,,,,,,,,,,,,,,,5,,74,0
11820,note_on,,1,0,7,,,,,,,,,,,,,,,,5,,72,72
11820,note_on,,1,0,11,,,,,,,,,,,,,,,,10,,72,72
11820,note_on,,1,0,5,,,,,,,,,,,,,,,,1,,72,72
11820,note_on,,1,0,15,,,,,,,,,,,,,,,,15,,52,72
11820,note_on,,1,0,14,,,,,,,,,,,,,,,,13,,52,72
11820,note_on,,1,0,6,,,,,,,,,,,,,,,,2,,52,72
11849,note_on,,29,0,5,,,,,,,,,,,,,,,,1,,72,0
11849,note_on,,29,0,11,,,,,,,,,,,,,,,,10,,72,0
11849,note_on,,29,0,7,,,,,,,,,,,,,,,,5,,72,0
11850,note_on,,1,0,7,,,,,,,,,,,,,,,,5,,76,72
11850,note_on,,1,0,5,,,,,,,,,,,,,,,,1,,76,72
11850,note_on,,1,0,11,,,,,,,,,,,,,,,,10,,76,72
11879,note_on,,29,0,5,,,,,,,,,,,,,,,,1,,76,0
11879,note_on,,29,0,7,,,,,,,,,,,,,,,,5,,76,0
11879,note_on,,59,0,15,,,,,,,,,,,,,,,,15,,72,0
11879,note_on,,0,0,15,,,,,,,,,,,,,,,,15,,67,0
11879,note_on,,0,0,15,,,,,,,,,,,,,,,,15,,64,0
11879,note_on,,0,0,15,,,,,,,,,,,,,,,,15,,52,0
11879,note_on,,59,0,14,,,,,,,,,,,,,,,,13,,52,0
11879,note_on,,59,0,6,,,,,,,,,,,,,,,,2,,52,0
11879,note_on,,119,0,12,,,,,,,,,,,,,,,,11,,67,0
11879,note_on,,119,0,9,,,,,,,,,,,,,,,,7,,55,0
11879,note_on,,29,0,11,,,,,,,,,,,,,,,,10,,76,0
11880,note_on,,1,0,7,,,,,,,,,,,,,,,,5,,74,72
11880,note_on,,1,0,5,,,,,,,,,,,,,,,,1,,74,72
11880,note_on,,1,0,11,,,,,,,,,,,,,,,,10,,74,72
11880,note_on,,1,0,15,,,,,,,,,,,,,,,,15,,55,72
11880,note_on,,0,0,15,,,,,,,,,,,,,,,,15,,71,72
11880,note_on,,0,0,15,,,,,,,,,,,,,,,,15,,67,72
11880,note_on,,0,0,15,,,,,,,,,,,,,,,,15,,62,72
11880,note_on,,1,0,9,,,,,,,,,,,,,,,,7,,55,72
11880,note_on,,1,0,14,,,,,,,,,,,,,,,,13,,55,72
11880,note_on,,1,0,12,,,,,,,,,,,,,,,,11,,67,72
11880,note_on,,1,0,6,,,,,,,,,,,,,,,,2,,55,72
11909,note_on,,29,0,7,,,,,,,,,,,,,,,,5,,74,0
11909,note_on,,29,0,5,,,,,,,,,,,,,,,,1,,74,0
11909,note_on,,29,0,11,,,,,,,,,,,,,,,,10,,74,0
11910,note_on,,1,0,7,,,,,,,,,,,,,,,,5,,72,72
11910,note_on,,1,0,5,,,,,,,,,,,,,,,,1,,72,72
11910,note_on,,1,0,11,,,,,,,,,,,,,,,,10,,72,72
11939,note_on,,59,0,6,,,,,,,,,,,,,,,,2,,55,0
11939,note_on,,29,0,7,,,,,,,,,,,,,,,,5,,72,0
11939,note_on,,29,0,5,,,,,,,,,,,,,,,,1,,72,0
11939,note_on,,59,0,14,,,,,,,,,,,,,,,,13,,55,0
11939,note_on,,29,0,11,,,,,,,,,,,,,,,,10,,72,0
11939,note_on,,59,0,15,,,,,,,,,,,,,,,,15,,55,0
11940,note_on,,1,0,6,,,,,,,,,,,,,,,,2,,43,72
11940,note_on,,1,0,5,,,,,,,,,,,,,,,,1,,71,72
11940,note_on,,1,0,11,,,,,,,,,,,,,,,,10,,71,72
11940,note_on,,1,0,14,,,,,,,,,,,,,,,,13,,43,72
11940,note_on,,1,0,15,,,,,,,,,,,,,,,,15,,43,72
11940,note_on,,1,0,7,,,,,,,,,,,,,,,,5,,71,72
11969,note_on,,29,0,5,,,,,,,,,,,,,,,,1,,71,0
11969,note_on,,29,0,7,,,,,,,,,,,,,,,,5,,71,0
11969,note_on,,29,0,11,,,,,,,,,,,,,,,,10,,71,0
11970,note_on,,1,0,5,,,,,,,,,,,,,,,,1,,74,72
11970,note_on,,1,0,11,,,,,,,,,,,,,,,,10,,74,72
11970,note_on,,1,0,7,,,,,,,,,,,,,,,,5,,74,72
11999,note_on,,29,0,7,,,,,,,,,,,,,,,,5,,74,0
11999,note_on,,29,0,5,,,,,,,,,,,,,,,,1,,74,0
11999,note_on,,119,0,12,,,,,,,,,,,,,,,,11,,67,0
11999,note_on,,29,0,11,,,,,,,,,,,,,,,,10,,74,0
11999,note_on,,59,0,6,,,,,,,,,,,,,,,,2,,43,0
11999,note_on,,59,0,14,,,,,,,,,,,,,,,,13,,43,0
11999,note_on,,119,0,9,,,,,,,,,,,,,,,,7,,55,0
11999,note_on,,59,0,15,,,,,,,,,,,,,,,,15,,71,0
11999,note_on,,0,0,15,,,,,,,,,,,,,,,,15,,67,0
11999,note_on,,0,0,15,,,,,,,,,,,,,,,,15,,62,0
11999,note_on,,0,0,15,,,,,,,,,,,,,,,,15,,43,0
12000,note_on,,1,0,5,,,,,,,,,,,,,,,,1,,76,72
12000,note_on,,0,0,15,,,,,,,,,,,,,,,,15,,64,72
12000,note_on,,0,0,15,,,,,,,,,,,,,,,,15,,67,72
12000,note_on,,0,0,15,,,,,,,,,,,,,,,,15,,72,72
12000,note_on,,1,0,11,,,,,,,,,,,,,,,,10,,76,72
12000,note_on,,1,0,6,,,,,,,,,,,,,,,,2,,48,72
12000,note_on,,1,0,9,,,,,,,,,,,,,,,,7,,55,72
12000,note_on,,1,0,14,,,,,,,,,,,,,,,,13,,48,72
12000,note_on,,1,0,7,,,,,,,,,,,,,,,,5,,76,72
12000,note_on,,1,0,12,,,,,,,,,,,,,,,,11,,67,72
12000,note_on,,1,0,15,,,,,,,,,,,,,,,,15,,48,72
12029,note_on,,29,0,11,,,,,,,,,,,,,,,,10,,76,0
12029,note_on,,29,0,7,,,,,,,,,,,,,,,,5,,76,0
12029,note_on,,29,0,5,,,,,,,,,,,,,,,,1,,76,0
12030,note_on,,1,0,11,,,,,,,,,,,,,,,,10,,74,72
12030,note_on,,1,0,7,,,,,,,,,,,,,,,,5,,74,72
12030,note_on,,1,0,5,,,,,,,,,,,,,,,,1,,74,72
12059,note_on,,29,0,5,,,,,,,,,,,,,,,,1,,74,0
12059,note_on,,59,0,15,,,,,,,,,,,,,,,,15,,48,0
12059,note_on,,59,0,14,,,,,,,,,,,,,,,,13,,48,0
12059,note_on,,29,0,7,,,,,,,,,,,,,,,,5,,74,0
12059,note_on,,29,0,11,,,,,,,,,,,,,,,,10,,74,0
12059,note_on,,59,0,6,,,,,,,,,,,,,,,,2,,48,0
12060,note_on,,1,0,11,,,,,,,,,,,,,,,,10,,72,72
12060,note_on,,1,0,5,,,,,,,,,,,,,,,,1,,72,72
12060,note_on,,1,0,7,,,,,,,,,,,,,,,,5,,72,72
12060,note_on,,1,0,14,,,,,,,,,,,,,,,,13,,40,72
12060,note_on,,1,0,6,,,,,,,,,,,,,,,,2,,40,72
12060,note_on,,1,0,15,,,,,,,,,,,,,,,,15,,40,72
12089,note_on,,29,0,11,,,,,,,,,,,,,,,,10,,72,0
12089,note_on,,29,0,7,,,,,,,,,,,,,,,,5,,72,0
12089,note_on,,29,0,5,,,,,,,,,,,,,,,,1,,72,0
12090,note_on,,1,0,5,,,,,,,,,,,,,,,,1,,76,72
12090,note_on,,1,0,7,,,,,,,,,,,,,,,,5,,76,72
12090,note_on,,1,0,11,,,,,,,,,,,,,,,,10,,76,72
12119,note_on,,59,0,6,,,,,,,,,,,,,,,,2,,40,0
12119,note_on,,59,0,14,,,,,,,,,,,,,,,,13,,40,0
12119,note_on,,119,0,9,,,,,,,,,,,,,,,,7,,55,0
12119,note_on,,29,0,7,,,,,,,,,,,,,,,,5,,76,0
12119,note_on,,29,0,5,,,,,,,,,,,,,,,,1,,76,0
12119,note_on,,59,0,15,,,,,,,,,,,,,,,,15,,72,0
12119,note_on,,29,0,11,,,,,,,,,,,,,,,,10,,76,0
12119,note_on,,0,0,15,,,,,,,,,,,,,,,,15,,64,0
12119,note_on,,0,0,15,,,,,,,,,,,,,,,,15,,40,0
12119,note_on,,119,0,12,,,,,,,,,,,,,,,,11,,67,0
12119,note_on,,0,0,15,,,,,,,,,,,,,,,,15,,67,0
12120,note_on,,1,0,11,,,,,,,,,,,,,,,,10,,74,72
12120,note_on,,1,0,14,,,,,,,,,,,,,,,,13,,43,72
12120,note_on,,1,0,9,,,,,,,,,,,,,,,,7,,55,72
12120,note_on,,1,0,5,,,,,,,,,,,,,,,,1,,74,72
12120,note_on,,1,0,15,,,,,,,,,,,,,,,,15,,43,72
12120,note_on,,0,0,15,,,,,,,,,,,,,,,,15,,74,72
12120,note_on,,0,0,15,,,,,,,,,,,,,,,,15,,62,72
12120,note_on,,0,0,15,,,,,,,,,,,,,,,,15,,71,72
12120,note_on,,1,0,6,,,,,,,,,,,,,,,,2,,43,72
12120,note_on,,1,0,7,,,,,,,,,,,,,,,,5,,74,72
12120,note_on,,1,0,12,,,,,,,,,,,,,,,,11,,67,72
12149,note_on,,29,0,7,,,,,,,,,,,,,,,,5,,74,0
12149,note_on,,29,0,11,,,,,,,,,,,,,,,,10,,74,0
12149,note_on,,29,0,5,,,,,,,,,,,,,,,,1,,74,0
12150,note_on,,1,0,5,,,,,,,,,,,,,,,,1,,76,72
12150,note_on,,1,0,11,,,,,,,,,,,,,,,,10,,76,72
12150,note_on,,1,0,7,,,,,,,,,,,,,,,,5,,76,72
12179,note_on,,29,0,5,,,,,,,,,,,,,,,,1,,76,0
12179,note_on,,59,0,14,,,,,,,,,,,,,,,,13,,43,0
12179,note_on,,0,0,15,,,,,,,,,,,,,,,,15,,71,0
12179,note_on,,59,0,6,,,,,,,,,,,,,,,,2,,43,0
12179,note_on,,59,0,15,,,,,,,,,,,,,,,,15,,43,0
12179,note_on,,29,0,11,,,,,,,,,,,,,,,,10,,76,0
12179,note_on,,29,0,7,,,,,,,,,,,,,,,,5,,76,0
12180,note_on,,1,0,14,,,,,,,,,,,,,,,,13,,47,72
12180,note_on,,1,0,5,,,,,,,,,,,,,,,,1,,77,72
12180,note_on,,0,0,15,,,,,,,,,,,,,,,,15,,67,72
12180,note_on,,1,0,15,,,,,,,,,,,,,,,,15,,47,72
12180,note_on,,1,0,11,,,,,,,,,,,,,,,,10,,77,72
12180,note_on,,1,0,6,,,,,,,,,,,,,,,,2,,47,72
12180,note_on,,1,0,7,,,,,,,,,,,,,,,,5,,77,72
12209,note_on,,29,0,7,,,,,,,,,,,,,,,,5,,77,0
12209,note_on,,29,0,5,,,,,,,,,,,,,,,,1,,77,0
12209,note_on,,29,0,11,,,,,,,,,,,,,,,,10,,77,0
12210,note_on,,1,0,7,,,,,,,,,,,,,,,,5,,74,72
12210,note_on,,1,0,5,,,,,,,,,,,,,,,,1,,74,72
12210,note_on,,1,0,11,,,,,,,,,,,,,,,,10,,74,72
12239,note_on,,119,0,9,,,,,,,,,,,,,,,,7,,55,0
12239,note_on,,0,0,15,,,,,,,,,,,,,,,,15,,67,0
12239,note_on,,0,0,15,,,,,,,,,,,,,,,,15,,47,0
12239,note_on,,0,0,15,,,,,,,,,,,,,,,,15,,62,0
12239,note_on,,59,0,15,,,,,,,,,,,,,,,,15,,74,0
12239,note_on,,29,0,11,,,,,,,,,,,,,,,,10,,74,0
12239,note_on,,59,0,14,,,,,,,,,,,,,,,,13,,47,0
12239,note_on,,119,0,12,,,,,,,,,,,,,,,,11,,67,0
12239,note_on,,29,0,5,,,,,,,,,,,,,,,,1,,74,0
12239,note_on,,59,0,6,,,,,,,,,,,,,,,,2,,47,0
12239,note_on,,29,0,7,,,,,,,,,,,,,,,,5,,74,0
12240,note_on,,1,0,12,,,,,,,,,,,,,,,,11,,67,72
12240,note_on,,1,0,15,,,,,,,,,,,,,,,,15,,48,72
12240,note_on,,0,0,15,,,,,,,,,,,,,,,,15,,76,72
12240,note_on,,0,0,15,,,,,,,,,,,,,,,,15,,67,72
12240,note_on,,1,0,14,,,,,,,,,,,,,,,,13,,48,72
12240,note_on,,1,0,9,,,,,,,,,,,,,,,,7,,55,72
12240,note_on,,1,0,7,,,,,,,,,,,,,,,,5,,76,72
12240,note_on,,1,0,11,,,,,,,,,,,,,,,,10,,76,72
12240,note_on,,1,0,5,,,,,,,,,,,,,,,,1,,76,72
12240,note_on,,0,0,15,,,,,,,,,,,,,,,,15,,60,72
12240,note_on,,1,0,6,,,,,,,,,,,,,,,,2,,48,72
12269,note_on,,29,0,5,,,,,,,,,,,,,,,,1,,76,0
12269,note_on,,29,0,11,,,,,,,,,,,,,,,,10,,76,0
12269,note_on,,29,0,7,,,,,,,,,,,,,,,,5,,76,0
12270,note_on,,1,0,5,,,,,,,,,,,,,,,,1,,74,72
12270,note_on,,1,0,7,,,,,,,,,,,,,,,,5,,74,72
12270,note_on,,1,0,11,,,,,,,,,,,,,,,,10,,74,72
12299,note_on,,29,0,11,,,,,,,,,,,,,,,,10,,74,0
12299,note_on,,29,0,5,,,,,,,,,,,,,,,,1,,74,0
12299,note_on,,59,0,15,,,,,,,,,,,,,,,,15,,48,0
12299,note_on,,59,0,14,,,,,,,,,,,,,,,,13,,48,0
12299,note_on,,59,0,6,,,,,,,,,,,,,,,,2,,48,0
12299,note_on,,29,0,7,,,,,,,,,,,,,,,,5,,74,0
12300,note_on,,1,0,11,,,,,,,,,,,,,,,,10,,72,72
12300,note_on,,1,0,5,,,,,,,,,,,,,,,,1,,72,72
12300,note_on,,1,0,7,,,,,,,,,,,,,,,,5,,72,72
12300,note_on,,1,0,14,,,,,,,,,,,,,,,,13,,52,72
12300,note_on,,1,0,15,,,,,,,,,,,,,,,,15,,52,72
12300,note_on,,1,0,6,,,,,,,,,,,,,,,,2,,52,72
12329,note_on,,29,0,7,,,,,,,,,,,,,,,,5,,72,0
12329,note_on,,29,0,5,,,,,,,,,,,,,,,,1,,72,0
12329,note_on,,29,0,11,,,,,,,,,,,,,,,,10,,72,0
12330,note_on,,1,0,7,,,,,,,,,,,,,,,,5,,76,72
12330,note_on,,1,0,5,,,,,,,,,,,,,,,,1,,76,72
12330,note_on,,1,0,11,,,,,,,,,,,,,,,,10,,76,72
12359,note_on,,59,0,6,,,,,,,,,,,,,,,,2,,52,0
12359,note_on,,59,0,14,,,,,,,,,,,,,,,,13,,52,0
12359,note_on,,59,0,15,,,,,,,,,,,,,,,,15,,76,0
12359,note_on,,0,0,15,,,,,,,,,,,,,,,,15,,67,0
12359,note_on,,0,0,15,,,,,,,,,,,,,,,,15,,60,0
12359,note_on,,29,0,7,,,,,,,,,,,,,,,,5,,76,0
12359,note_on,,29,0,5,,,,,,,,,,,,,,,,1,,76,0
12359,note_on,,29,0,11,,,,,,,,,,,,,,,,10,,76,0
12359,note_on,,0,0,15,,,,,,,,,,,,,,,,15,,52,0
12360,note_on,,0,0,15,,,,,,,,,,,,,,,,15,,59,72
12360,note_on,,0,0,15,,,,,,,,,,,,,,,,15,,74,72
12360,note_on,,0,0,15,,,,,,,,,,,,,,,,15,,67,72
12360,note_on,,1,0,11,,,,,,,,,,,,,,,,10,,74,72
12360,note_on,,1,0,7,,,,,,,,,,,,,,,,5,,74,72
12360,note_on,,1,0,14,,,,,,,,,,,,,,,,13,,55,72
12360,note_on,,1,0,15,,,,,,,,,,,,,,,,15,,55,72
12360,note_on,,1,0,5,,,,,,,,,,,,,,,,1,,74,72
12360,note_on,,1,0,6,,,,,,,,,,,,,,,,2,,55,72
12389,note_on,,29,0,7,,,,,,,,,,,,,,,,5,,74,0
12389,note_on,,29,0,11,,,,,,,,,,,,,,,,10,,74,0
12389,note_on,,29,0,5,,,,,,,,,,,,,,,,1,,74,0
12390,note_on,,1,0,5,,,,,,,,,,,,,,,,1,,76,72
12390,note_on,,1,0,11,,,,,,,,,,,,,,,,10,,76,72
12390,note_on,,1,0,7,,,,,,,,,,,,,,,,5,,76,72
12419,note_on,,0,0,15,,,,,,,,,,,,,,,,15,,67,0
12419,note_on,,29,0,7,,,,,,,,,,,,,,,,5,,76,0
12419,note_on,,59,0,15,,,,,,,,,,,,,,,,15,,55,0
12419,note_on,,29,0,11,,,,,,,,,,,,,,,,10,,76,0
12419,note_on,,0,0,15,,,,,,,,,,,,,,,,15,,74,0
12419,note_on,,29,0,5,,,,,,,,,,,,,,,,1,,76,0
12419,note_on,,59,0,6,,,,,,,,,,,,,,,,2,,55,0
12419,note_on,,59,0,14,,,,,,,,,,,,,,,,13,,55,0
12419,note_on,,0,0,15,,,,,,,,,,,,,,,,15,,59,0
12420,note_on,,1,0,7,,,,,,,,,,,,,,,,5,,77,72
12420,note_on,,1,0,14,,,,,,,,,,,,,,,,13,,43,72
12420,note_on,,1,0,6,,,,,,,,,,,,,,,,2,,43,72
12420,note_on,,1,0,15,,,,,,,,,,,,,,,,15,,43,72
12420,note_on,,0,0,15,,,,,,,,,,,,,,,,15,,79,72
12420,note_on,,1,0,11,,,,,,,,,,,,,,,,10,,77,72
12420,note_on,,1,0,5,,,,,,,,,,,,,,,,1,,77,72
12420,note_on,,0,0,15,,,,,,,,,,,,,,,,15,,71,72
12420,note_on,,0,0,15,,,,,,,,,,,,,,,,15,,74,72
12449,note_on,,29,0,11,,,,,,,,,,,,,,,,10,,77,0
12449,note_on,,29,0,5,,,,,,,,,,,,,,,,1,,77,0
12449,note_on,,29,0,7,,,,,,,,,,,,,,,,5,,77,0
12450,note_on,,1,0,5,,,,,,,,,,,,,,,,1,,74,72
12450,note_on,,1,0,7,,,,,,,,,,,,,,,,5,,74,72
12450,note_on,,1,0,11,,,,,,,,,,,,,,,,10,,74,72
12479,note_on,,239,0,9,,,,,,,,,,,,,,,,7,,55,0
12479,note_on,,59,0,15,,,,,,,,,,,,,,,,15,,43,0
12479,note_on,,0,0,15,,,,,,,,,,,,,,,,15,,79,0
12479,note_on,,59,0,6,,,,,,,,,,,,,,,,2,,43,0
12479,note_on,,29,0,5,,,,,,,,,,,,,,,,1,,74,0
12479,note_on,,59,0,14,,,,,,,,,,,,,,,,13,,43,0
12479,note_on,,0,0,15,,,,,,,,,,,,,,,,15,,71,0
12479,note_on,,29,0,11,,,,,,,,,,,,,,,,10,,74,0
12479,note_on,,29,0,7,,,,,,,,,,,,,,,,5,,74,0
12479,note_on,,239,0,12,,,,,,,,,,,,,,,,11,,67,0
12479,note_on,,0,0,15,,,,,,,,,,,,,,,,15,,74,0
12480,note_on,,1,0,5,,,,,,,,,,,,,,,,1,,76,72
12480,note_on,,0,0,15,,,,,,,,,,,,,,,,15,,67,72
12480,note_on,,1,0,14,,,,,,,,,,,,,,,,13,,48,72
12480,note_on,,0,0,15,,,,,,,,,,,,,,,,15,,72,72
12480,note_on,,1,0,6,,,,,,,,,,,,,,,,2,,48,72
12480,note_on,,1,0,7,,,,,,,,,,,,,,,,5,,76,72
12480,note_on,,0,0,15,,,,,,,,,,,,,,,,15,,76,72
12480,note_on,,1,0,11,,,,,,,,,,,,,,,,10,,76,72
12480,note_on,,1,0,15,,,,,,,,,,,,,,,,15,,48,72
12539,note_on,,59,0,5,,,,,,,,,,,,,,,,1,,76,0
12539,note_on,,59,0,7,,,,,,,,,,,,,,,,5,,76,0
12539,note_on,,59,0,14,,,,,,,,,,,,,,,,13,,48,0
12539,note_on,,59,0,6,,,,,,,,,,,,,,,,2,,48,0
12539,note_on,,59,0,11,,,,,,,,,,,,,,,,10,,76,0
12539,note_on,,59,0,15,,,,,,,,,,,,,,,,15,,48,0
12540,note_on,,1,0,7,,,,,,,,,,,,,,,,5,,72,72
12540,note_on,,1,0,14,,,,,,,,,,,,,,,,13,,52,72
12540,note_on,,1,0,11,,,,,,,,,,,,,,,,10,,72,72
12540,note_on,,1,0,15,,,,,,,,,,,,,,,,15,,52,72
12540,note_on,,1,0,5,,,,,,,,,,,,,,,,1,,72,72
12540,note_on,,1,0,6,,,,,,,,,,,,,,,,2,,52,72
12599,note_on,,59,0,11,,,,,,,,,,,,,,,,10,,72,0
12599,note_on,,0,0,15,,,,,,,,,,,,,,,,15,,52,0
12599,note_on,,59,0,6,,,,,,,,,,,,,,,,2,,52,0
12599,note_on,,59,0,7,,,,,,,,,,,,,,,,5,,72,0
12599,note_on,,59,0,5,,,,,,,,,,,,,,,,1,,72,0
12599,note_on,,59,0,15,,,,,,,,,,,,,,,,15,,76,0
12599,note_on,,59,0,14,,,,,,,,,,,,,,,,13,,52,0
12599,note_on,,0,0,15,,,,,,,,,,,,,,,,15,,67,0
12599,note_on,,0,0,15,,,,,,,,,,,,,,,,15,,72,0
12600,note_on,,1081,0,13,,,,,,,,,,,,,,,,12,,55,72
12600,note_on,,1,0,11,,,,,,,,,,,,,,,,10,,79,72
12600,note_on,,1921,0,8,,,,,,,,,,,,,,,,6,,59,72
12600,note_on,,121,0,12,,,,,,,,,,,,,,,,11,,71,72
12600,note_on,,0,0,15,,,,,,,,,,,,,,,,15,,71,72
12600,note_on,,0,0,15,,,,,,,,,,,,,,,,15,,62,72
12600,note_on,,0,0,15,,,,,,,,,,,,,,,,15,,67,72
12600,note_on,,1,0,14,,,,,,,,,,,,,,,,13,,55,72
12600,note_on,,1,0,15,,,,,,,,,,,,,,,,15,,55,72
12600,note_on,,1,0,6,,,,,,,,,,,,,,,,2,,55,72
12600,note_on,,1,0,5,,,,,,,,,,,,,,,,1,,79,72
12600,note_on,,1,0,7,,,,,,,,,,,,,,,,5,,79,72
12600,note_on,,121,0,9,,,,,,,,,,,,,,,,7,,55,72
12659,note_on,,59,0,12,,,,,,,,,,,,,,,,11,,71,0
12659,note_on,,59,0,13,,,,,,,,,,,,,,,,12,,55,0
12659,note_on,,59,0,6,,,,,,,,,,,,,,,,2,,55,0
12659,note_on,,59,0,9,,,,,,,,,,,,,,,,7,,55,0
12659,note_on,,59,0,15,,,,,,,,,,,,,,,,15,,55,0
12659,note_on,,59,0,11,,,,,,,,,,,,,,,,10,,79,0
12659,note_on,,59,0,5,,,,,,,,,,,,,,,,1,,79,0
12659,note_on,,0,0,15,,,,,,,,,,,,,,,,15,,71,0
12659,note_on,,59,0,8,,,,,,,,,,,,,,,,6,,59,0
12659,note_on,,59,0,7,,,,,,,,,,,,,,,,5,,79,0
12659,note_on,,59,0,14,,,,,,,,,,,,,,,,13,,55,0
12660,note_on,,1,0,15,,,,,,,,,,,,,,,,15,,57,72
12660,note_on,,1,0,9,,,,,,,,,,,,,,,,7,,57,72
12660,note_on,,1,0,5,,,,,,,,,,,,,,,,1,,79,72
12660,note_on,,1,0,14,,,,,,,,,,,,,,,,13,,57,72
12660,note_on,,0,0,15,,,,,,,,,,,,,,,,15,,72,72
12660,note_on,,1,0,7,,,,,,,,,,,,,,,,5,,79,72
12660,note_on,,1,0,11,,,,,,,,,,,,,,,,10,,79,72
12660,note_on,,1,0,8,,,,,,,,,,,,,,,,6,,60,72
12660,note_on,,1,0,12,,,,,,,,,,,,,,,,11,,72,72
12660,note_on,,1,0,13,,,,,,,,,,,,,,,,12,,57,72
12660,note_on,,1,0,6,,,,,,,,,,,,,,,,2,,57,72
12719,note_on,,59,0,8,,,,,,,,,,,,,,,,6,,60,0
12719,note_on,,59,0,12,,,,,,,,,,,,,,,,11,,72,0
12719,note_on,,59,0,14,,,,,,,,,,,,,,,,13,,57,0
12719,note_on,,59,0,5,,,,,,,,,,,,,,,,1,,79,0
12719,note_on,,59,0,15,,,,,,,,,,,,,,,,15,,57,0
12719,note_on,,0,0,15,,,,,,,,,,,,,,,,15,,72,0
12719,note_on,,59,0,11,,,,,,,,,,,,,,,,10,,79,0
12719,note_on,,59,0,7,,,,,,,,,,,,,,,,5,,79,0
12719,note_on,,59,0,9,,,,,,,,,,,,,,,,7,,57,0
12719,note_on,,59,0,13,,,,,,,,,,,,,,,,12,,57,0
12719,note_on,,59,0,6,,,,,,,,,,,,,,,,2,,57,0
12720,note_on,,1,0,8,,,,,,,,,,,,,,,,6,,62,72
12720,note_on,,1,0,13,,,,,,,,,,,,,,,,12,,59,72
12720,note_on,,1,0,5,,,,,,,,,,,,,,,,1,,79,72
12720,note_on,,1,0,11,,,,,,,,,,,,,,,,10,,79,72
12720,note_on,,1,0,6,,,,,,,,,,,,,,,,2,,59,72
12720,note_on,,1,0,15,,,,,,,,,,,,,,,,15,,59,72
12720,note_on,,0,0,15,,,,,,,,,,,,,,,,15,,74,72
12720,note_on,,1,0,7,,,,,,,,,,,,,,,,5,,79,72
12720,note_on,,1,0,9,,,,,,,,,,,,,,,,7,,59,72
12720,note_on,,1,0,14,,,,,,,,,,,,,,,,13,,59,72
12720,note_on,,1,0,12,,,,,,,,,,,,,,,,11,,74,72
12779,note_on,,59,0,9,,,,,,,,,,,,,,,,7,,59,0
12779,note_on,,0,0,15,,,,,,,,,,,,,,,,15,,74,0
12779,note_on,,59,0,15,,,,,,,,,,,,,,,,15,,59,0
12779,note_on,,59,0,13,,,,,,,,,,,,,,,,12,,59,0
12779,note_on,,59,0,8,,,,,,,,,,,,,,,,6,,62,0
12779,note_on,,59,0,12,,,,,,,,,,,,,,,,11,,74,0
12779,note_on,,59,0,6,,,,,,,,,,,,,,,,2,,59,0
12779,note_on,,59,0,14,,,,,,,,,,,,,,,,13,,59,0
12780,note_on,,1,0,14,,,,,,,,,,,,,,,,13,,55,72
12780,note_on,,0,0,15,,,,,,,,,,,,,,,,15,,71,72
12780,note_on,,1,0,15,,,,,,,,,,,,,,,,15,,55,72
12780,note_on,,1,0,13,,,,,,,,,,,,,,,,12,,55,72
12780,note_on,,1,0,9,,,,,,,,,,,,,,,,7,,55,72
12780,note_on,,1,0,12,,,,,,,,,,,,,,,,11,,71,72
12780,note_on,,1,0,6,,,,,,,,,,,,,,,,2,,55,72
12780,note_on,,1,0,8,,,,,,,,,,,,,,,,6,,59,72
12839,note_on,,59,0,8,,,,,,,,,,,,,,,,6,,59,0
12839,note_on,,59,0,9,,,,,,,,,,,,,,,,7,,55,0
12839,note_on,,0,0,15,,,,,,,,,,,,,,,,15,,71,0
12839,note_on,,0,0,15,,,,,,,,,,,,,,,,15,,55,0
12839,note_on,,0,0,15,,,,,,,,,,,,,,,,15,,62,0
12839,note_on,,59,0,15,,,,,,,,,,,,,,,,15,,67,0
12839,note_on,,119,0,11,,,,,,,,,,,,,,,,10,,79,0
12839,note_on,,119,0,7,,,,,,,,,,,,,,,,5,,79,0
12839,note_on,,59,0,14,,,,,,,,,,,,,,,,13,,55,0
12839,note_on,,119,0,5,,,,,,,,,,,,,,,,1,,79,0
12839,note_on,,59,0,12,,,,,,,,,,,,,,,,11,,71,0
12839,note_on,,59,0,13,,,,,,,,,,,,,,,,12,,55,0
12839,note_on,,59,0,6,,,,,,,,,,,,,,,,2,,55,0
12840,note_on,,0,0,15,,,,,,,,,,,,,,,,15,,67,72
12840,note_on,,1,0,7,,,,,,,,,,,,,,,,5,,79,72
12840,note_on,,1,0,14,,,,,,,,,,,,,,,,13,,48,72
12840,note_on,,1,0,12,,,,,,,,,,,,,,,,11,,76,72
12840,note_on,,0,0,15,,,,,,,,,,,,,,,,15,,72,72
12840,note_on,,1,0,11,,,,,,,,,,,,,,,,10,,79,72
12840,note_on,,1,0,9,,,,,,,,,,,,,,,,7,,60,72
12840,note_on,,0,0,15,,,,,,,,,,,,,,,,15,,64,72
12840,note_on,,1,0,5,,,,,,,,,,,,,,,,1,,79,72
12840,note_on,,1,0,6,,,,,,,,,,,,,,,,2,,48,72
12840,note_on,,1,0,13,,,,,,,,,,,,,,,,12,,60,72
12840,note_on,,1,0,15,,,,,,,,,,,,,,,,15,,48,72
12840,note_on,,3121,0,10,,,,,,,,,,,,,,,,8,,48,72
12840,note_on,,1,0,8,,,,,,,,,,,,,,,,6,,64,72
12899,note_on,,59,0,8,,,,,,,,,,,,,,,,6,,64,0
12899,note_on,,59,0,6,,,,,,,,,,,,,,,,2,,48,0
12899,note_on,,59,0,12,,,,,,,,,,,,,,,,11,,76,0
12899,note_on,,59,0,13,,,,,,,,,,,,,,,,12,,60,0
12899,note_on,,59,0,15,,,,,,,,,,,,,,,,15,,48,0
12899,note_on,,59,0,10,,,,,,,,,,,,,,,,8,,48,0
12899,note_on,,59,0,9,,,,,,,,,,,,,,,,7,,60,0
12899,note_on,,0,0,15,,,,,,,,,,,,,,,,15,,64,0
12899,note_on,,59,0,14,,,,,,,,,,,,,,,,13,,48,0
12900,note_on,,1,0,13,,,,,,,,,,,,,,,,12,,59,72
12900,note_on,,1,0,6,,,,,,,,,,,,,,,,2,,50,72
12900,note_on,,1,0,12,,,,,,,,,,,,,,,,11,,77,72
12900,note_on,,1,0,9,,,,,,,,,,,,,,,,7,,59,72
12900,note_on,,0,0,15,,,,,,,,,,,,,,,,15,,65,72
12900,note_on,,1,0,15,,,,,,,,,,,,,,,,15,,50,72
12900,note_on,,1,0,10,,,,,,,,,,,,,,,,8,,50,72
12900,note_on,,1,0,8,,,,,,,,,,,,,,,,6,,65,72
12900,note_on,,1,0,14,,,,,,,,,,,,,,,,13,,50,72
12959,note_on,,0,0,15,,,,,,,,,,,,,,,,15,,65,0
12959,note_on,,0,0,15,,,,,,,,,,,,,,,,15,,50,0
12959,note_on,,59,0,12,,,,,,,,,,,,,,,,11,,77,0
12959,note_on,,59,0,15,,,,,,,,,,,,,,,,15,,67,0
12959,note_on,,59,0,6,,,,,,,,,,,,,,,,2,,50,0
12959,note_on,,59,0,10,,,,,,,,,,,,,,,,8,,50,0
12959,note_on,,119,0,11,,,,,,,,,,,,,,,,10,,79,0
12959,note_on,,59,0,14,,,,,,,,,,,,,,,,13,,50,0
12959,note_on,,119,0,5,,,,,,,,,,,,,,,,1,,79,0
12959,note_on,,119,0,7,,,,,,,,,,,,,,,,5,,79,0
12959,note_on,,59,0,9,,,,,,,,,,,,,,,,7,,59,0
12959,note_on,,59,0,8,,,,,,,,,,,,,,,,6,,65,0
12959,note_on,,59,0,13,,,,,,,,,,,,,,,,12,,59,0
12960,note_on,,1,0,15,,,,,,,,,,,,,,,,15,,52,72
12960,note_on,,0,0,15,,,,,,,,,,,,,,,,15,,67,72
12960,note_on,,1,0,14,,,,,,,,,,,,,,,,13,,52,72
12960,note_on,,1,0,7,,,,,,,,,,,,,,,,5,,79,72
12960,note_on,,1,0,10,,,,,,,,,,,,,,,,8,,52,72
12960,note_on,,1,0,5,,,,,,,,,,,,,,,,1,,79,72
12960,note_on,,1,0,9,,,,,,,,,,,,,,,,7,,60,72
12960,note_on,,1,0,12,,,,,,,,,,,,,,,,11,,79,72
12960,note_on,,1,0,13,,,,,,,,,,,,,,,,12,,60,72
12960,note_on,,1,0,6,,,,,,,,,,,,,,,,2,,52,72
12960,note_on,,1,0,8,,,,,,,,,,,,,,,,6,,67,72
12960,note_on,,1,0,11,,,,,,,,,,,,,,,,10,,79,72
13019,note_on,,59,0,15,,,,,,,,,,,,,,,,15,,52,0
13019,note_on,,59,0,6,,,,,,,,,,,,,,,,2,,52,0
13019,note_on,,59,0,8,,,,,,,,,,,,,,,,6,,67,0
13019,note_on,,59,0,10,,,,,,,,,,,,,,,,8,,52,0
13019,note_on,,59,0,12,,,,,,,,,,,,,,,,11,,79,0
13019,note_on,,59,0,14,,,,,,,,,,,,,,,,13,,52,0
13019,note_on,,59,0,13,,,,,,,,,,,,,,,,12,,60,0
13019,note_on,,0,0,15,,,,,,,,,,,,,,,,15,,67,0
13020,note_on,,1,0,12,,,,,,,,,,,,,,,,11,,76,72
13020,note_on,,1,0,13,,,,,,,,,,,,,,,,12,,72,72
13020,note_on,,1,0,14,,,,,,,,,,,,,,,,13,,48,72
13020,note_on,,1,0,10,,,,,,,,,,,,,,,,8,,48,72
13020,note_on,,1,0,6,,,,,,,,,,,,,,,,2,,48,72
13020,note_on,,1,0,15,,,,,,,,,,,,,,,,15,,48,72
13020,note_on,,1,0,8,,,,,,,,,,,,,,,,6,,64,72
13020,note_on,,0,0,15,,,,,,,,,,,,,,,,15,,64,72
13079,note_on,,119,0,5,,,,,,,,,,,,,,,,1,,79,0
13079,note_on,,59,0,8,,,,,,,,,,,,,,,,6,,64,0
13079,note_on,,59,0,14,,,,,,,,,,,,,,,,13,,48,0
13079,note_on,,119,0,11,,,,,,,,,,,,,,,,10,,79,0
13079,note_on,,59,0,12,,,,,,,,,,,,,,,,11,,76,0
13079,note_on,,59,0,6,,,,,,,,,,,,,,,,2,,48,0
13079,note_on,,119,0,7,,,,,,,,,,,,,,,,5,,79,0
13079,note_on,,0,0,15,,,,,,,,,,,,,,,,15,,64,0
13079,note_on,,59,0,10,,,,,,,,,,,,,,,,8,,48,0
13079,note_on,,59,0,15,,,,,,,,,,,,,,,,15,,48,0
13080,note_on,,1,0,8,,,,,,,,,,,,,,,,6,,67,72
13080,note_on,,1,0,15,,,,,,,,,,,,,,,,15,,52,72
13080,note_on,,1,0,10,,,,,,,,,,,,,,,,8,,52,72
13080,note_on,,1,0,5,,,,,,,,,,,,,,,,1,,79,72
13080,note_on,,1,0,6,,,,,,,,,,,,,,,,2,,52,72
13080,note_on,,1,0,7,,,,,,,,,,,,,,,,5,,79,72
13080,note_on,,0,0,15,,,,,,,,,,,,,,,,15,,67,72
13080,note_on,,1,0,12,,,,,,,,,,,,,,,,11,,79,72
13080,note_on,,1,0,11,,,,,,,,,,,,,,,,10,,79,72
13080,note_on,,1,0,14,,,,,,,,,,,,,,,,13,,52,72
13139,note_on,,59,0,14,,,,,,,,,,,,,,,,13,,52,0
13139,note_on,,59,0,15,,,,,,,,,,,,,,,,15,,52,0
13139,note_on,,59,0,8,,,,,,,,,,,,,,,,6,,67,0
13139,note_on,,179,0,9,,,,,,,,,,,,,,,,7,,60,0
13139,note_on,,0,0,15,,,,,,,,,,,,,,,,15,,67,0
13139,note_on,,59,0,10,,,,,,,,,,,,,,,,8,,52,0
13139,note_on,,59,0,12,,,,,,,,,,,,,,,,11,,79,0
13139,note_on,,119,0,13,,,,,,,,,,,,,,,,12,,72,0
13139,note_on,,59,0,6,,,,,,,,,,,,,,,,2,,52,0
13140,note_on,,1,0,15,,,,,,,,,,,,,,,,15,,53,72
13140,note_on,,0,0,15,,,,,,,,,,,,,,,,15,,69,72
13140,note_on,,1,0,6,,,,,,,,,,,,,,,,2,,53,72
13140,note_on,,1,0,12,,,,,,,,,,,,,,,,11,,81,72
13140,note_on,,1,0,13,,,,,,,,,,,,,,,,12,,71,72
13140,note_on,,1,0,14,,,,,,,,,,,,,,,,13,,53,72
13140,note_on,,1,0,9,,,,,,,,,,,,,,,,7,,59,72
13140,note_on,,1,0,8,,,,,,,,,,,,,,,,6,,69,72
13140,note_on,,1,0,10,,,,,,,,,,,,,,,,8,,53,72
13169,note_on,,29,0,13,,,,,,,,,,,,,,,,12,,71,0
13169,note_on,,29,0,9,,,,,,,,,,,,,,,,7,,59,0
13170,note_on,,1,0,13,,,,,,,,,,,,,,,,12,,69,72
13170,note_on,,1,0,9,,,,,,,,,,,,,,,,7,,57,72
13199,note_on,,59,0,15,,,,,,,,,,,,,,,,15,,72,0
13199,note_on,,59,0,12,,,,,,,,,,,,,,,,11,,81,0
13199,note_on,,59,0,8,,,,,,,,,,,,,,,,6,,69,0
13199,note_on,,0,0,15,,,,,,,,,,,,,,,,15,,53,0
13199,note_on,,29,0,9,,,,,,,,,,,,,,,,7,,57,0
13199,note_on,,0,0,15,,,,,,,,,,,,,,,,15,,69,0
13199,note_on,,29,0,13,,,,,,,,,,,,,,,,12,,69,0
13199,note_on,,119,0,11,,,,,,,,,,,,,,,,10,,79,0
13199,note_on,,119,0,7,,,,,,,,,,,,,,,,5,,79,0
13199,note_on,,59,0,14,,,,,,,,,,,,,,,,13,,53,0
13199,note_on,,59,0,6,,,,,,,,,,,,,,,,2,,53,0
13199,note_on,,119,0,5,,,,,,,,,,,,,,,,1,,79,0
13199,note_on,,59,0,10,,,,,,,,,,,,,,,,8,,53,0
13200,note_on,,1,0,9,,,,,,,,,,,,,,,,7,,59,72
13200,note_on,,1,0,11,,,,,,,,,,,,,,,,10,,79,72
13200,note_on,,1,0,6,,,,,,,,,,,,,,,,2,,55,72
13200,note_on,,1,0,12,,,,,,,,,,,,,,,,11,,83,72
13200,note_on,,0,0,15,,,,,,,,,,,,,,,,15,,71,72
13200,note_on,,1,0,8,,,,,,,,,,,,,,,,6,,62,72
13200,note_on,,1,0,5,,,,,,,,,,,,,,,,1,,79,72
13200,note_on,,1,0,13,,,,,,,,,,,,,,,,12,,62,72
13200,note_on,,1,0,7,,,,,,,,,,,,,,,,5,,79,72
13200,note_on,,1,0,15,,,,,,,,,,,,,,,,15,,55,72
13200,note_on,,0,0,15,,,,,,,,,,,,,,,,15,,62,72
13200,note_on,,1,0,10,,,,,,,,,,,,,,,,8,,55,72
13200,note_on,,1,0,14,,,,,,,,,,,,,,,,13,,55,72
13259,note_on,,0,0,15,,,,,,,,,,,,,,,,15,,71,0
13259,note_on,,59,0,15,,,,,,,,,,,,,,,,15,,55,0
13259,note_on,,59,0,12,,,,,,,,,,,,,,,,11,,83,0
13259,note_on,,59,0,8,,,,,,,,,,,,,,,,6,,62,0
13259,note_on,,59,0,6,,,,,,,,,,,,,,,,2,,55,0
13259,note_on,,59,0,14,,,,,,,,,,,,,,,,13,,55,0
13259,note_on,,59,0,10,,,,,,,,,,,,,,,,8,,55,0
13259,note_on,,59,0,7,,,,,,,,,,,,,,,,5,,79,0
13259,note_on,,59,0,9,,,,,,,,,,,,,,,,7,,59,0
13259,note_on,,59,0,5,,,,,,,,,,,,,,,,1,,79,0
13259,note_on,,59,0,11,,,,,,,,,,,,,,,,10,,79,0
13260,note_on,,1,0,6,,,,,,,,,,,,,,,,2,,59,72
13260,note_on,,1,0,7,,,,,,,,,,,,,,,,5,,77,72
13260,note_on,,1,0,12,,,,,,,,,,,,,,,,11,,79,72
13260,note_on,,1,0,15,,,,,,,,,,,,,,,,15,,59,72
13260,note_on,,0,0,15,,,,,,,,,,,,,,,,15,,67,72
13260,note_on,,1,0,8,,,,,,,,,,,,,,,,6,,67,72
13260,note_on,,1,0,11,,,,,,,,,,,,,,,,10,,77,72
13260,note_on,,1,0,14,,,,,,,,,,,,,,,,13,,59,72
13260,note_on,,1,0,9,,,,,,,,,,,,,,,,7,,62,72
13260,note_on,,1,0,10,,,,,,,,,,,,,,,,8,,59,72
13260,note_on,,1,0,5,,,,,,,,,,,,,,,,1,,77,72
13319,note_on,,59,0,10,,,,,,,,,,,,,,,,8,,59,0
13319,note_on,,59,0,6,,,,,,,,,,,,,,,,2,,59,0
13319,note_on,,59,0,5,,,,,,,,,,,,,,,,1,,77,0
13319,note_on,,119,0,13,,,,,,,,,,,,,,,,12,,62,0
13319,note_on,,59,0,11,,,,,,,,,,,,,,,,10,,77,0
13319,note_on,,59,0,14,,,,,,,,,,,,,,,,13,,59,0
13319,note_on,,0,0,15,,,,,,,,,,,,,,,,15,,59,0
13319,note_on,,59,0,15,,,,,,,,,,,,,,,,15,,62,0
13319,note_on,,59,0,9,,,,,,,,,,,,,,,,7,,62,0
13319,note_on,,59,0,7,,,,,,,,,,,,,,,,5,,77,0
13320,note_on,,1,0,14,,,,,,,,,,,,,,,,13,,60,72
13320,note_on,,0,0,15,,,,,,,,,,,,,,,,15,,64,72
13320,note_on,,1,0,13,,,,,,,,,,,,,,,,12,,60,72
13320,note_on,,1,0,15,,,,,,,,,,,,,,,,15,,60,72
13320,note_on,,1,0,9,,,,,,,,,,,,,,,,7,,64,72
13320,note_on,,1,0,10,,,,,,,,,,,,,,,,8,,60,72
13320,note_on,,1,0,7,,,,,,,,,,,,,,,,5,,76,72
13320,note_on,,1,0,5,,,,,,,,,,,,,,,,1,,76,72
13320,note_on,,1,0,11,,,,,,,,,,,,,,,,10,,76,72
13320,note_on,,1,0,6,,,,,,,,,,,,,,,,2,,60,72
13379,note_on,,59,0,9,,,,,,,,,,,,,,,,7,,64,0
13379,note_on,,119,0,8,,,,,,,,,,,,,,,,6,,67,0
13379,note_on,,59,0,6,,,,,,,,,,,,,,,,2,,60,0
13379,note_on,,59,0,15,,,,,,,,,,,,,,,,15,,67,0
13379,note_on,,59,0,5,,,,,,,,,,,,,,,,1,,76,0
13379,note_on,,59,0,13,,,,,,,,,,,,,,,,12,,60,0
13379,note_on,,0,0,15,,,,,,,,,,,,,,,,15,,64,0
13379,note_on,,59,0,7,,,,,,,,,,,,,,,,5,,76,0
13379,note_on,,59,0,10,,,,,,,,,,,,,,,,8,,60,0
13379,note_on,,59,0,14,,,,,,,,,,,,,,,,13,,60,0
13379,note_on,,119,0,12,,,,,,,,,,,,,,,,11,,79,0
13379,note_on,,0,0,15,,,,,,,,,,,,,,,,15,,60,0
13379,note_on,,59,0,11,,,,,,,,,,,,,,,,10,,76,0
13380,note_on,,1,0,13,,,,,,,,,,,,,,,,12,,72,72
13380,note_on,,1,0,6,,,,,,,,,,,,,,,,2,,53,72
13380,note_on,,1,0,11,,,,,,,,,,,,,,,,10,,84,72
13380,note_on,,1,0,15,,,,,,,,,,,,,,,,15,,53,72
13380,note_on,,0,0,15,,,,,,,,,,,,,,,,15,,72,72
13380,note_on,,0,0,15,,,,,,,,,,,,,,,,15,,69,72
13380,note_on,,1,0,8,,,,,,,,,,,,,,,,6,,69,72
13380,note_on,,1,0,14,,,,,,,,,,,,,,,,13,,53,72
13380,note_on,,1,0,5,,,,,,,,,,,,,,,,1,,74,72
13380,note_on,,1,0,12,,,,,,,,,,,,,,,,11,,81,72
13380,note_on,,1,0,7,,,,,,,,,,,,,,,,5,,74,72
13380,note_on,,1,0,9,,,,,,,,,,,,,,,,7,,65,72
13380,note_on,,1,0,10,,,,,,,,,,,,,,,,8,,53,72
13380,note_on,,0,0,15,,,,,,,,,,,,,,,,15,,65,72
13409,note_on,,29,0,7,,,,,,,,,,,,,,,,5,,74,0
13409,note_on,,29,0,5,,,,,,,,,,,,,,,,1,,74,0
13410,note_on,,1,0,5,,,,,,,,,,,,,,,,1,,72,72
13410,note_on,,1,0,7,,,,,,,,,,,,,,,,5,,72,72
13439,note_on,,59,0,12,,,,,,,,,,,,,,,,11,,81,0
13439,note_on,,59,0,9,,,,,,,,,,,,,,,,7,,65,0
13439,note_on,,59,0,14,,,,,,,,,,,,,,,,13,,53,0
13439,note_on,,59,0,8,,,,,,,,,,,,,,,,6,,69,0
13439,note_on,,59,0,11,,,,,,,,,,,,,,,,10,,84,0
13439,note_on,,29,0,5,,,,,,,,,,,,,,,,1,,72,0
13439,note_on,,0,0,15,,,,,,,,,,,,,,,,15,,65,0
13439,note_on,,0,0,15,,,,,,,,,,,,,,,,15,,69,0
13439,note_on,,0,0,15,,,,,,,,,,,,,,,,15,,72,0
13439,note_on,,29,0,7,,,,,,,,,,,,,,,,5,,72,0
13439,note_on,,59,0,15,,,,,,,,,,,,,,,,15,,53,0
13439,note_on,,59,0,6,,,,,,,,,,,,,,,,2,,53,0
13439,note_on,,59,0,10,,,,,,,,,,,,,,,,8,,53,0
13439,note_on,,59,0,13,,,,,,,,,,,,,,,,12,,72,0
13440,note_on,,1,0,9,,,,,,,,,,,,,,,,7,,62,72
13440,note_on,,0,0,15,,,,,,,,,,,,,,,,15,,67,72
13440,note_on,,0,0,15,,,,,,,,,,,,,,,,15,,62,72
13440,note_on,,1,0,11,,,,,,,,,,,,,,,,10,,83,72
13440,note_on,,1,0,6,,,,,,,,,,,,,,,,2,,55,72
13440,note_on,,0,0,15,,,,,,,,,,,,,,,,15,,71,72
13440,note_on,,1,0,8,,,,,,,,,,,,,,,,6,,67,72
13440,note_on,,1,0,15,,,,,,,,,,,,,,,,15,,55,72
13440,note_on,,1,0,12,,,,,,,,,,,,,,,,11,,74,72
13440,note_on,,1,0,13,,,,,,,,,,,,,,,,12,,67,72
13440,note_on,,1,0,7,,,,,,,,,,,,,,,,5,,71,72
13440,note_on,,1,0,5,,,,,,,,,,,,,,,,1,,71,72
13440,note_on,,1,0,14,,,,,,,,,,,,,,,,13,,55,72
13440,note_on,,1,0,10,,,,,,,,,,,,,,,,8,,55,72
13454,note_on,,14,0,11,,,,,,,,,,,,,,,,10,,83,0
13455,note_on,,1,0,11,,,,,,,,,,,,,,,,10,,84,72
13469,note_on,,14,0,11,,,,,,,,,,,,,,,,10,,84,0
13470,note_on,,1,0,11,,,,,,,,,,,,,,,,10,,83,72
13484,note_on,,14,0,11,,,,,,,,,,,,,,,,10,,83,0
13485,note_on,,1,0,11,,,,,,,,,,,,,,,,10,,84,72
13499,note_on,,59,0,15,,,,,,,,,,,,,,,,15,,55,0
13499,note_on,,59,0,14,,,,,,,,,,,,,,,,13,,55,0
13499,note_on,,59,0,6,,,,,,,,,,,,,,,,2,,55,0
13499,note_on,,14,0,11,,,,,,,,,,,,,,,,10,,84,0
13500,note_on,,1,0,6,,,,,,,,,,,,,,,,2,,53,72
13500,note_on,,1,0,15,,,,,,,,,,,,,,,,15,,53,72
13500,note_on,,1,0,14,,,,,,,,,,,,,,,,13,,53,72
13500,note_on,,1,0,11,,,,,,,,,,,,,,,,10,,83,72
13514,note_on,,14,0,11,,,,,,,,,,,,,,,,10,,83,0
13515,note_on,,1,0,11,,,,,,,,,,,,,,,,10,,84,72
13529,note_on,,14,0,11,,,,,,,,,,,,,,,,10,,84,0
13530,note_on,,1,0,11,,,,,,,,,,,,,,,,10,,83,72
13544,note_on,,14,0,11,,,,,,,,,,,,,,,,10,,83,0
13545,note_on,,1,0,11,,,,,,,,,,,,,,,,10,,84,72
13559,note_on,,59,0,15,,,,,,,,,,,,,,,,15,,53,0
13559,note_on,,59,0,14,,,,,,,,,,,,,,,,13,,53,0
13559,note_on,,14,0,11,,,,,,,,,,,,,,,,10,,84,0
13559,note_on,,59,0,6,,,,,,,,,,,,,,,,2,,53,0
13560,note_on,,1,0,11,,,,,,,,,,,,,,,,10,,83,72
13560,note_on,,1,0,15,,,,,,,,,,,,,,,,15,,55,72
13560,note_on,,1,0,14,,,,,,,,,,,,,,,,13,,55,72
13560,note_on,,1,0,6,,,,,,,,,,,,,,,,2,,55,72
13574,note_on,,14,0,11,,,,,,,,,,,,,,,,10,,83,0
13575,note_on,,1,0,11,,,,,,,,,,,,,,,,10,,84,72
13589,note_on,,14,0,11,,,,,,,,,,,,,,,,10,,84,0
13590,note_on,,1,0,11,,,,,,,,,,,,,,,,10,,81,72
13604,note_on,,14,0,11,,,,,,,,,,,,,,,,10,,81,0
13605,note_on,,1,0,11,,,,,,,,,,,,,,,,10,,83,72
13619,note_on,,59,0,14,,,,,,,,,,,,,,,,13,,55,0
13619,note_on,,14,0,11,,,,,,,,,,,,,,,,10,,83,0
13619,note_on,,179,0,12,,,,,,,,,,,,,,,,11,,74,0
13619,note_on,,179,0,8,,,,,,,,,,,,,,,,6,,67,0
13619,note_on,,179,0,5,,,,,,,,,,,,,,,,1,,71,0
13619,note_on,,0,0,15,,,,,,,,,,,,,,,,15,,55,0
13619,note_on,,0,0,15,,,,,,,,,,,,,,,,15,,62,0
13619,note_on,,59,0,6,,,,,,,,,,,,,,,,2,,55,0
13619,note_on,,59,0,15,,,,,,,,,,,,,,,,15,,71,0
13619,note_on,,179,0,7,,,,,,,,,,,,,,,,5,,71,0
13619,note_on,,179,0,10,,,,,,,,,,,,,,,,8,,55,0
13619,note_on,,179,0,9,,,,,,,,,,,,,,,,7,,62,0
13619,note_on,,179,0,13,,,,,,,,,,,,,,,,12,,67,0
13619,note_on,,0,0,15,,,,,,,,,,,,,,,,15,,67,0
13620,note_on,,1,0,8,,,,,,,,,,,,,,,,6,,67,72
13620,note_on,,1,0,6,,,,,,,,,,,,,,,,2,,43,72
13620,note_on,,1,0,5,,,,,,,,,,,,,,,,1,,71,72
13620,note_on,,1,0,11,,,,,,,,,,,,,,,,10,,83,72
13620,note_on,,1,0,10,,,,,,,,,,,,,,,,8,,55,72
13620,note_on,,1,0,13,,,,,,,,,,,,,,,,12,,67,72
13620,note_on,,1,0,9,,,,,,,,,,,,,,,,7,,62,72
13620,note_on,,1,0,14,,,,,,,,,,,,,,,,13,,43,72
13620,note_on,,1,0,7,,,,,,,,,,,,,,,,5,,71,72
13620,note_on,,0,0,15,,,,,,,,,,,,,,,,15,,67,72
13620,note_on,,0,0,15,,,,,,,,,,,,,,,,15,,71,72
13620,note_on,,1,0,15,,,,,,,,,,,,,,,,15,,43,72
13620,note_on,,1,0,12,,,,,,,,,,,,,,,,11,,74,72
13620,note_on,,0,0,15,,,,,,,,,,,,,,,,15,,62,72
13679,note_on,,59,0,12,,,,,,,,,,,,,,,,11,,74,0
13679,note_on,,59,0,14,,,,,,,,,,,,,,,,13,,43,0
13679,note_on,,59,0,9,,,,,,,,,,,,,,,,7,,62,0
13679,note_on,,59,0,6,,,,,,,,,,,,,,,,2,,43,0
13679,note_on,,59,0,10,,,,,,,,,,,,,,,,8,,55,0
13679,note_on,,59,0,8,,,,,,,,,,,,,,,,6,,67,0
13679,note_on,,59,0,5,,,,,,,,,,,,,,,,1,,71,0
13679,note_on,,59,0,13,,,,,,,,,,,,,,,,12,,67,0
13679,note_on,,0,0,15,,,,,,,,,,,,,,,,15,,62,0
13679,note_on,,0,0,15,,,,,,,,,,,,,,,,15,,67,0
13679,note_on,,0,0,15,,,,,,,,,,,,,,,,15,,71,0
13679,note_on,,59,0,15,,,,,,,,,,,,,,,,15,,43,0
13679,note_on,,59,0,7,,,,,,,,,,,,,,,,5,,71,0
13679,note_on,,59,0,11,,,,,,,,,,,,,,,,10,,83,0
13680,note_on,,1,0,11,,,,,,,,,,,,,,,,10,,84,72
13680,note_on,,1,0,8,,,,,,,,,,,,,,,,6,,67,72
13680,note_on,,1,0,13,,,,,,,,,,,,,,,,12,,67,72
13680,note_on,,1,0,12,,,,,,,,,,,,,,,,11,,76,72
13680,note_on,,1,0,9,,,,,,,,,,,,,,,,7,,64,72
13680,note_on,,1,0,7,,,,,,,,,,,,,,,,5,,72,72
13680,note_on,,1,0,14,,,,,,,,,,,,,,,,13,,48,72
13680,note_on,,1,0,6,,,,,,,,,,,,,,,,2,,48,72
13680,note_on,,0,0,15,,,,,,,,,,,,,,,,15,,64,72
13680,note_on,,0,0,15,,,,,,,,,,,,,,,,15,,67,72
13680,note_on,,0,0,15,,,,,,,,,,,,,,,,15,,72,72
13680,note_on,,1,0,15,,,,,,,,,,,,,,,,15,,48,72
13680,note_on,,1,0,10,,,,,,,,,,,,,,,,8,,48,72
13680,note_on,,1,0,5,,,,,,,,,,,,,,,,1,,72,72
13739,note_on,,59,0,14,,,,,,,,,,,,,,,,13,,48,0
13739,note_on,,59,0,6,,,,,,,,,,,,,,,,2,,48,0
13739,note_on,,59,0,15,,,,,,,,,,,,,,,,15,,48,0
13739,note_on,,0,0,15,,,,,,,,,,,,,,,,15,,64,0
13740,note_on,,1,0,14,,,,,,,,,,,,,,,,13,,50,72
13740,note_on,,1,0,6,,,,,,,,,,,,,,,,2,,50,72
13740,note_on,,0,0,15,,,,,,,,,,,,,,,,15,,65,72
13740,note_on,,1,0,15,,,,,,,,,,,,,,,,15,,50,72
13799,note_on,,119,0,5,,,,,,,,,,,,,,,,1,,72,0
13799,note_on,,119,0,11,,,,,,,,,,,,,,,,10,,84,0
13799,note_on,,59,0,6,,,,,,,,,,,,,,,,2,,50,0
13799,note_on,,59,0,14,,,,,,,,,,,,,,,,13,,50,0
13799,note_on,,119,0,10,,,,,,,,,,,,,,,,8,,48,0
13799,note_on,,119,0,9,,,,,,,,,,,,,,,,7,,64,0
13799,note_on,,119,0,13,,,,,,,,,,,,,,,,12,,67,0
13799,note_on,,59,0,15,,,,,,,,,,,,,,,,15,,72,0
13799,note_on,,0,0,15,,,,,,,,,,,,,,,,15,,67,0
13799,note_on,,0,0,15,,,,,,,,,,,,,,,,15,,50,0
13799,note_on,,119,0,8,,,,,,,,,,,,,,,,6,,67,0
13799,note_on,,0,0,15,,,,,,,,,,,,,,,,15,,65,0
13799,note_on,,119,0,12,,,,,,,,,,,,,,,,11,,76,0
13799,note_on,,119,0,7,,,,,,,,,,,,,,,,5,,72,0
13800,note_on,,1,0,15,,,,,,,,,,,,,,,,15,,52,72
13800,note_on,,0,0,15,,,,,,,,,,,,,,,,15,,55,72
13800,note_on,,1,0,5,,,,,,,,,,,,,,,,1,,72,72
13800,note_on,,0,0,15,,,,,,,,,,,,,,,,15,,67,72
13800,note_on,,1,0,11,,,,,,,,,,,,,,,,10,,72,72
13800,note_on,,1,0,14,,,,,,,,,,,,,,,,13,,52,72
13800,note_on,,1,0,7,,,,,,,,,,,,,,,,5,,72,72
13800,note_on,,0,0,15,,,,,,,,,,,,,,,,15,,60,72
13800,note_on,,1,0,6,,,,,,,,,,,,,,,,2,,52,72
13859,note_on,,59,0,7,,,,,,,,,,,,,,,,5,,72,0
13859,note_on,,59,0,11,,,,,,,,,,,,,,,,10,,72,0
13859,note_on,,59,0,6,,,,,,,,,,,,,,,,2,,52,0
13859,note_on,,59,0,14,,,,,,,,,,,,,,,,13,,52,0
13859,note_on,,59,0,5,,,,,,,,,,,,,,,,1,,72,0
13859,note_on,,59,0,15,,,,,,,,,,,,,,,,15,,52,0
13859,note_on,,0,0,15,,,,,,,,,,,,,,,,15,,60,0
13859,note_on,,0,0,15,,,,,,,,,,,,,,,,15,,55,0
13859,note_on,,0,0,15,,,,,,,,,,,,,,,,15,,67,0
13860,note_on,,0,0,15,,,,,,,,,,,,,,,,15,,64,72
13860,note_on,,0,0,15,,,,,,,,,,,,,,,,15,,60,72
13860,note_on,,1,0,7,,,,,,,,,,,,,,,,5,,72,72
13860,note_on,,1,0,6,,,,,,,,,,,,,,,,2,,48,72
13860,note_on,,1,0,15,,,,,,,,,,,,,,,,15,,48,72
13860,note_on,,1,0,11,,,,,,,,,,,,,,,,10,,72,72
13860,note_on,,1,0,14,,,,,,,,,,,,,,,,13,,48,72
13860,note_on,,1,0,5,,,,,,,,,,,,,,,,1,,72,72
13919,note_on,,59,0,6,,,,,,,,,,,,,,,,2,,48,0
13919,note_on,,59,0,11,,,,,,,,,,,,,,,,10,,72,0
13919,note_on,,59,0,14,,,,,,,,,,,,,,,,13,,48,0
13919,note_on,,59,0,5,,,,,,,,,,,,,,,,1,,72,0
13919,note_on,,59,0,15,,,,,,,,,,,,,,,,15,,48,0
13919,note_on,,0,0,15,,,,,,,,,,,,,,,,15,,60,0
13919,note_on,,59,0,7,,,,,,,,,,,,,,,,5,,72,0
13919,note_on,,0,0,15,,,,,,,,,,,,,,,,15,,64,0
13920,note_on,,1,0,14,,,,,,,,,,,,,,,,13,,53,72
13920,note_on,,0,0,15,,,,,,,,,,,,,,,,15,,60,72
13920,note_on,,1,0,7,,,,,,,,,,,,,,,,5,,72,72
13920,note_on,,1,0,11,,,,,,,,,,,,,,,,10,,72,72
13920,note_on,,0,0,15,,,,,,,,,,,,,,,,15,,69,72
13920,note_on,,1,0,6,,,,,,,,,,,,,,,,2,,53,72
13920,note_on,,1,0,5,,,,,,,,,,,,,,,,1,,72,72
13920,note_on,,1,0,15,,,,,,,,,,,,,,,,15,,53,72
13979,note_on,,59,0,6,,,,,,,,,,,,,,,,2,,53,0
13979,note_on,,0,0,15,,,,,,,,,,,,,,,,15,,69,0
13979,note_on,,59,0,15,,,,,,,,,,,,,,,,15,,53,0
13979,note_on,,59,0,14,,,,,,,,,,,,,,,,13,,53,0
13980,note_on,,1,0,14,,,,,,,,,,,,,,,,13,,55,72
13980,note_on,,1,0,15,,,,,,,,,,,,,,,,15,,55,72
13980,note_on,,1,0,6,,,,,,,,,,,,,,,,2,,55,72
13980,note_on,,0,0,15,,,,,,,,,,,,,,,,15,,70,72
14039,note_on,,59,0,14,,,,,,,,,,,,,,,,13,,55,0
14039,note_on,,119,0,11,,,,,,,,,,,,,,,,10,,72,0
14039,note_on,,0,0,15,,,,,,,,,,,,,,,,15,,70,0
14039,note_on,,59,0,15,,,,,,,,,,,,,,,,15,,60,0
14039,note_on,,59,0,6,,,,,,,,,,,,,,,,2,,55,0
14039,note_on,,119,0,5,,,,,,,,,,,,,,,,1,,72,0
14039,note_on,,0,0,15,,,,,,,,,,,,,,,,15,,55,0
14039,note_on,,119,0,7,,,,,,,,,,,,,,,,5,,72,0
14040,note_on,,241,0,9,,,,,,,,,,,,,,,,7,,60,72
14040,note_on,,1,0,15,,,,,,,,,,,,,,,,15,,57,72
14040,note_on,,1,0,11,,,,,,,,,,,,,,,,10,,60,72
14040,note_on,,1,0,5,,,,,,,,,,,,,,,,1,,60,72
14040,note_on,,1,0,14,,,,,,,,,,,,,,,,13,,57,72
14040,note_on,,0,0,15,,,,,,,,,,,,,,,,15,,65,72
14040,note_on,,1,0,7,,,,,,,,,,,,,,,,5,,60,72
14040,note_on,,0,0,15,,,,,,,,,,,,,,,,15,,72,72
14040,note_on,,241,0,13,,,,,,,,,,,,,,,,12,,72,72
14040,note_on,,1,0,6,,,,,,,,,,,,,,,,2,,57,72
14099,note_on,,59,0,6,,,,,,,,,,,,,,,,2,,57,0
14099,note_on,,59,0,13,,,,,,,,,,,,,,,,12,,72,0
14099,note_on,,59,0,14,,,,,,,,,,,,,,,,13,,57,0
14099,note_on,,59,0,9,,,,,,,,,,,,,,,,7,,60,0
14099,note_on,,59,0,15,,,,,,,,,,,,,,,,15,,57,0
14099,note_on,,0,0,15,,,,,,,,,,,,,,,,15,,72,0
14100,note_on,,1,0,6,,,,,,,,,,,,,,,,2,,53,72
14100,note_on,,1,0,14,,,,,,,,,,,,,,,,13,,53,72
14100,note_on,,1,0,13,,,,,,,,,,,,,,,,12,,72,72
14100,note_on,,1,0,9,,,,,,,,,,,,,,,,7,,60,72
14100,note_on,,1,0,15,,,,,,,,,,,,,,,,15,,53,72
14100,note_on,,0,0,15,,,,,,,,,,,,,,,,15,,69,72
14159,note_on,,59,0,14,,,,,,,,,,,,,,,,13,,53,0
14159,note_on,,0,0,15,,,,,,,,,,,,,,,,15,,69,0
14159,note_on,,0,0,15,,,,,,,,,,,,,,,,15,,53,0
14159,note_on,,119,0,5,,,,,,,,,,,,,,,,1,,60,0
14159,note_on,,59,0,15,,,,,,,,,,,,,,,,15,,65,0
14159,note_on,,59,0,9,,,,,,,,,,,,,,,,7,,60,0
14159,note_on,,59,0,13,,,,,,,,,,,,,,,,12,,72,0
14159,note_on,,119,0,7,,,,,,,,,,,,,,,,5,,60,0
14159,note_on,,59,0,6,,,,,,,,,,,,,,,,2,,53,0
14159,note_on,,119,0,11,,,,,,,,,,,,,,,,10,,60,0
14160,note_on,,1,0,9,,,,,,,,,,,,,,,,7,,60,72
14160,note_on,,1,0,15,,,,,,,,,,,,,,,,15,,60,72
14160,note_on,,0,0,15,,,,,,,,,,,,,,,,15,,67,72
14160,note_on,,1,0,13,,,,,,,,,,,,,,,,12,,72,72
14160,note_on,,0,0,15,,,,,,,,,,,,,,,,15,,64,72
14160,note_on,,1,0,14,,,,,,,,,,,,,,,,13,,60,72
14160,note_on,,1,0,6,,,,,,,,,,,,,,,,2,,60,72
14219,note_on,,59,0,14,,,,,,,,,,,,,,,,13,,60,0
14219,note_on,,59,0,15,,,,,,,,,,,,,,,,15,,60,0
14219,note_on,,0,0,15,,,,,,,,,,,,,,,,15,,64,0
14219,note_on,,59,0,6,,,,,,,,,,,,,,,,2,,60,0
14220,note_on,,1,0,6,,,,,,,,,,,,,,,,2,,48,72
14220,note_on,,1,0,14,,,,,,,,,,,,,,,,13,,48,72
14220,note_on,,1,0,15,,,,,,,,,,,,,,,,15,,48,72
14220,note_on,,0,0,15,,,,,,,,,,,,,,,,15,,64,72
14279,note_on,,59,0,14,,,,,,,,,,,,,,,,13,,48,0
14279,note_on,,59,0,6,,,,,,,,,,,,,,,,2,,48,0
14279,note_on,,0,0,15,,,,,,,,,,,,,,,,15,,64,0
14279,note_on,,0,0,15,,,,,,,,,,,,,,,,15,,48,0
14279,note_on,,59,0,15,,,,,,,,,,,,,,,,15,,67,0
14279,note_on,,119,0,9,,,,,,,,,,,,,,,,7,,60,0
14279,note_on,,119,0,13,,,,,,,,,,,,,,,,12,,72,0
14280,note_on,,1,0,14,,,,,,,,,,,,,,,,13,,52,72
14280,note_on,,1,0,6,,,,,,,,,,,,,,,,2,,52,72
14280,note_on,,1,0,9,,,,,,,,,,,,,,,,7,,48,72
14280,note_on,,1,0,13,,,,,,,,,,,,,,,,12,,60,72
14280,note_on,,481,0,8,,,,,,,,,,,,,,,,6,,72,72
14280,note_on,,481,0,12,,,,,,,,,,,,,,,,11,,84,72
14280,note_on,,1,0,15,,,,,,,,,,,,,,,,15,,52,72
14280,note_on,,0,0,15,,,,,,,,,,,,,,,,15,,72,72
14280,note_on,,0,0,15,,,,,,,,,,,,,,,,15,,67,72
14339,note_on,,59,0,8,,,,,,,,,,,,,,,,6,,72,0
14339,note_on,,59,0,12,,,,,,,,,,,,,,,,11,,84,0
14339,note_on,,59,0,6,,,,,,,,,,,,,,,,2,,52,0
14339,note_on,,59,0,15,,,,,,,,,,,,,,,,15,,52,0
14339,note_on,,0,0,15,,,,,,,,,,,,,,,,15,,67,0
14339,note_on,,59,0,14,,,,,,,,,,,,,,,,13,,52,0
14340,note_on,,1,0,12,,,,,,,,,,,,,,,,11,,84,72
14340,note_on,,1,0,6,,,,,,,,,,,,,,,,2,,48,72
14340,note_on,,1,0,15,,,,,,,,,,,,,,,,15,,48,72
14340,note_on,,0,0,15,,,,,,,,,,,,,,,,15,,64,72
14340,note_on,,1,0,14,,,,,,,,,,,,,,,,13,,48,72
14340,note_on,,1,0,8,,,,,,,,,,,,,,,,6,,72,72
14399,note_on,,59,0,8,,,,,,,,,,,,,,,,6,,72,0
14399,note_on,,59,0,15,,,,,,,,,,,,,,,,15,,72,0
14399,note_on,,59,0,14,,,,,,,,,,,,,,,,13,,48,0
14399,note_on,,0,0,15,,,,,,,,,,,,,,,,15,,48,0
14399,note_on,,0,0,15,,,,,,,,,,,,,,,,15,,64,0
14399,note_on,,59,0,12,,,,,,,,,,,,,,,,11,,84,0
14399,note_on,,119,0,13,,,,,,,,,,,,,,,,12,,60,0
14399,note_on,,119,0,9,,,,,,,,,,,,,,,,7,,48,0
14399,note_on,,59,0,6,,,,,,,,,,,,,,,,2,,48,0
14400,note_on,,1,0,12,,,,,,,,,,,,,,,,11,,84,72
14400,note_on,,1,0,14,,,,,,,,,,,,,,,,13,,53,72
14400,note_on,,1,0,15,,,,,,,,,,,,,,,,15,,53,72
14400,note_on,,0,0,15,,,,,,,,,,,,,,,,15,,69,72
14400,note_on,,1,0,8,,,,,,,,,,,,,,,,6,,72,72
14400,note_on,,1,0,6,,,,,,,,,,,,,,,,2,,53,72
14400,note_on,,0,0,15,,,,,,,,,,,,,,,,15,,60,72
14459,note_on,,0,0,15,,,,,,,,,,,,,,,,15,,60,0
14459,note_on,,59,0,15,,,,,,,,,,,,,,,,15,,53,0
14459,note_on,,59,0,14,,,,,,,,,,,,,,,,13,,53,0
14459,note_on,,59,0,6,,,,,,,,,,,,,,,,2,,53,0
14459,note_on,,0,0,15,,,,,,,,,,,,,,,,15,,69,0
14460,note_on,,1,0,15,,,,,,,,,,,,,,,,15,,55,72
14460,note_on,,1,0,6,,,,,,,,,,,,,,,,2,,55,72
14460,note_on,,1,0,14,,,,,,,,,,,,,,,,13,,55,72
14460,note_on,,0,0,15,,,,,,,,,,,,,,,,15,,58,72
14460,note_on,,0,0,15,,,,,,,,,,,,,,,,15,,64,72
14519,note_on,,59,0,15,,,,,,,,,,,,,,,,15,,55,0
14519,note_on,,119,0,8,,,,,,,,,,,,,,,,6,,72,0
14519,note_on,,59,0,6,,,,,,,,,,,,,,,,2,,55,0
14519,note_on,,59,0,14,,,,,,,,,,,,,,,,13,,55,0
14519,note_on,,119,0,12,,,,,,,,,,,,,,,,11,,84,0
14519,note_on,,0,0,15,,,,,,,,,,,,,,,,15,,58,0
14519,note_on,,0,0,15,,,,,,,,,,,,,,,,15,,64,0
14520,note_on,,0,0,15,,,,,,,,,,,,,,,,15,,65,72
14520,note_on,,1,0,14,,,,,,,,,,,,,,,,13,,57,72
14520,note_on,,1,0,6,,,,,,,,,,,,,,,,2,,57,72
14520,note_on,,0,0,15,,,,,,,,,,,,,,,,15,,60,72
14520,note_on,,721,0,10,,,,,,,,,,,,,,,,8,,60,72
14520,note_on,,121,0,13,,,,,,,,,,,,,,,,12,,60,72
14520,note_on,,1,0,15,,,,,,,,,,,,,,,,15,,57,72
14520,note_on,,1,0,8,,,,,,,,,,,,,,,,6,,60,72
14520,note_on,,1,0,12,,,,,,,,,,,,,,,,11,,72,72
14579,note_on,,59,0,13,,,,,,,,,,,,,,,,12,,60,0
14579,note_on,,59,0,6,,,,,,,,,,,,,,,,2,,57,0
14579,note_on,,59,0,10,,,,,,,,,,,,,,,,8,,60,0
14579,note_on,,59,0,14,,,,,,,,,,,,,,,,13,,57,0
14579,note_on,,0,0,15,,,,,,,,,,,,,,,,15,,60,0
14579,note_on,,59,0,15,,,,,,,,,,,,,,,,15,,57,0
14579,note_on,,0,0,15,,,,,,,,,,,,,,,,15,,65,0
14580,note_on,,1,0,13,,,,,,,,,,,,,,,,12,,60,72
14580,note_on,,1,0,14,,,,,,,,,,,,,,,,13,,53,72
14580,note_on,,0,0,15,,,,,,,,,,,,,,,,15,,65,72
14580,note_on,,1,0,6,,,,,,,,,,,,,,,,2,,53,72
14580,note_on,,0,0,15,,,,,,,,,,,,,,,,15,,69,72
14580,note_on,,1,0,15,,,,,,,,,,,,,,,,15,,53,72
14580,note_on,,1,0,10,,,,,,,,,,,,,,,,8,,60,72
14580,note_on,,0,0,15,,,,,,,,,,,,,,,,15,,60,72
14639,note_on,,59,0,14,,,,,,,,,,,,,,,,13,,53,0
14639,note_on,,59,0,6,,,,,,,,,,,,,,,,2,,53,0
14639,note_on,,119,0,8,,,,,,,,,,,,,,,,6,,60,0
14639,note_on,,119,0,12,,,,,,,,,,,,,,,,11,,72,0
14639,note_on,,59,0,10,,,,,,,,,,,,,,,,8,,60,0
14639,note_on,,59,0,13,,,,,,,,,,,,,,,,12,,60,0
14639,note_on,,0,0,15,,,,,,,,,,,,,,,,15,,60,0
14639,note_on,,0,0,15,,,,,,,,,,,,,,,,15,,65,0
14639,note_on,,0,0,15,,,,,,,,,,,,,,,,15,,69,0
14639,note_on,,59,0,15,,,,,,,,,,,,,,,,15,,53,0
14640,note_on,,1,0,10,,,,,,,,,,,,,,,,8,,60,72
14640,note_on,,1,0,6,,,,,,,,,,,,,,,,2,,52,72
14640,note_on,,1,0,13,,,,,,,,,,,,,,,,12,,60,72
14640,note_on,,0,0,15,,,,,,,,,,,,,,,,15,,60,72
14640,note_on,,1,0,14,,,,,,,,,,,,,,,,13,,52,72
14640,note_on,,0,0,15,,,,,,,,,,,,,,,,15,,67,72
14640,note_on,,1,0,15,,,,,,,,,,,,,,,,15,,52,72
14699,note_on,,59,0,14,,,,,,,,,,,,,,,,13,,52,0
14699,note_on,,59,0,6,,,,,,,,,,,,,,,,2,,52,0
14699,note_on,,0,0,15,,,,,,,,,,,,,,,,15,,60,0
14699,note_on,,59,0,15,,,,,,,,,,,,,,,,15,,52,0
14700,note_on,,1,0,15,,,,,,,,,,,,,,,,15,,48,72
14700,note_on,,0,0,15,,,,,,,,,,,,,,,,15,,64,72
14700,note_on,,1,0,6,,,,,,,,,,,,,,,,2,,48,72
14700,note_on,,1,0,14,,,,,,,,,,,,,,,,13,,48,72
14759,note_on,,59,0,15,,,,,,,,,,,,,,,,15,,67,0
14759,note_on,,59,0,6,,,,,,,,,,,,,,,,2,,48,0
14759,note_on,,0,0,15,,,,,,,,,,,,,,,,15,,64,0
14759,note_on,,119,0,10,,,,,,,,,,,,,,,,8,,60,0
14759,note_on,,119,0,13,,,,,,,,,,,,,,,,12,,60,0
14759,note_on,,0,0,15,,,,,,,,,,,,,,,,15,,48,0
14759,note_on,,59,0,14,,,,,,,,,,,,,,,,13,,48,0
14760,note_on,,1,0,6,,,,,,,,,,,,,,,,2,,45,72
14760,note_on,,1,0,10,,,,,,,,,,,,,,,,8,,48,72
14760,note_on,,601,0,11,,,,,,,,,,,,,,,,10,,77,72
14760,note_on,,1,0,14,,,,,,,,,,,,,,,,13,,45,72
14760,note_on,,0,0,15,,,,,,,,,,,,,,,,15,,72,72
14760,note_on,,601,0,5,,,,,,,,,,,,,,,,1,,77,72
14760,note_on,,121,0,12,,,,,,,,,,,,,,,,11,,65,72
14760,note_on,,121,0,8,,,,,,,,,,,,,,,,6,,65,72
14760,note_on,,1,0,15,,,,,,,,,,,,,,,,15,,45,72
14760,note_on,,0,0,15,,,,,,,,,,,,,,,,15,,65,72
14760,note_on,,1,0,13,,,,,,,,,,,,,,,,12,,48,72
14760,note_on,,0,0,15,,,,,,,,,,,,,,,,15,,60,72
14760,note_on,,601,0,7,,,,,,,,,,,,,,,,5,,77,72
14819,note_on,,59,0,14,,,,,,,,,,,,,,,,13,,45,0
14819,note_on,,59,0,11,,,,,,,,,,,,,,,,10,,77,0
14819,note_on,,0,0,15,,,,,,,,,,,,,,,,15,,65,0
14819,note_on,,0,0,15,,,,,,,,,,,,,,,,15,,72,0
14819,note_on,,0,0,15,,,,,,,,,,,,,,,,15,,60,0
14819,note_on,,59,0,8,,,,,,,,,,,,,,,,6,,65,0
14819,note_on,,59,0,15,,,,,,,,,,,,,,,,15,,45,0
14819,note_on,,59,0,12,,,,,,,,,,,,,,,,11,,65,0
14819,note_on,,59,0,6,,,,,,,,,,,,,,,,2,,45,0
14819,note_on,,59,0,7,,,,,,,,,,,,,,,,5,,77,0
14819,note_on,,59,0,5,,,,,,,,,,,,,,,,1,,77,0
14820,note_on,,0,0,15,,,,,,,,,,,,,,,,15,,65,72
14820,note_on,,1,0,8,,,,,,,,,,,,,,,,6,,69,72
14820,note_on,,0,0,15,,,,,,,,,,,,,,,,15,,69,72
14820,note_on,,1,0,15,,,,,,,,,,,,,,,,15,,41,72
14820,note_on,,1,0,14,,,,,,,,,,,,,,,,13,,41,72
14820,note_on,,1,0,11,,,,,,,,,,,,,,,,10,,76,72
14820,note_on,,1,0,7,,,,,,,,,,,,,,,,5,,76,72
14820,note_on,,1,0,6,,,,,,,,,,,,,,,,2,,41,72
14820,note_on,,1,0,5,,,,,,,,,,,,,,,,1,,76,72
14820,note_on,,1,0,12,,,,,,,,,,,,,,,,11,,69,72
14879,note_on,,119,0,13,,,,,,,,,,,,,,,,12,,48,0
14879,note_on,,59,0,11,,,,,,,,,,,,,,,,10,,76,0
14879,note_on,,59,0,12,,,,,,,,,,,,,,,,11,,69,0
14879,note_on,,59,0,7,,,,,,,,,,,,,,,,5,,76,0
14879,note_on,,59,0,5,,,,,,,,,,,,,,,,1,,76,0
14879,note_on,,59,0,15,,,,,,,,,,,,,,,,15,,41,0
14879,note_on,,0,0,15,,,,,,,,,,,,,,,,15,,65,0
14879,note_on,,59,0,6,,,,,,,,,,,,,,,,2,,41,0
14879,note_on,,119,0,10,,,,,,,,,,,,,,,,8,,48,0
14879,note_on,,59,0,14,,,,,,,,,,,,,,,,13,,41,0
14879,note_on,,59,0,8,,,,,,,,,,,,,,,,6,,69,0
14879,note_on,,0,0,15,,,,,,,,,,,,,,,,15,,69,0
14880,note_on,,1,0,11,,,,,,,,,,,,,,,,10,,74,72
14880,note_on,,1,0,6,,,,,,,,,,,,,,,,2,,46,72
14880,note_on,,1,0,8,,,,,,,,,,,,,,,,6,,70,72
14880,note_on,,1,0,5,,,,,,,,,,,,,,,,1,,74,72
14880,note_on,,1,0,14,,,,,,,,,,,,,,,,13,,46,72
14880,note_on,,1,0,15,,,,,,,,,,,,,,,,15,,46,72
14880,note_on,,1,0,7,,,,,,,,,,,,,,,,5,,74,72
14880,note_on,,1,0,12,,,,,,,,,,,,,,,,11,,70,72
14880,note_on,,0,0,15,,,,,,,,,,,,,,,,15,,62,72
14880,note_on,,0,0,15,,,,,,,,,,,,,,,,15,,70,72
14939,note_on,,59,0,12,,,,,,,,,,,,,,,,11,,70,0
14939,note_on,,59,0,5,,,,,,,,,,,,,,,,1,,74,0
14939,note_on,,59,0,8,,,,,,,,,,,,,,,,6,,70,0
14939,note_on,,59,0,14,,,,,,,,,,,,,,,,13,,46,0
14939,note_on,,0,0,15,,,,,,,,,,,,,,,,15,,62,0
14939,note_on,,59,0,11,,,,,,,,,,,,,,,,10,,74,0
14939,note_on,,59,0,7,,,,,,,,,,,,,,,,5,,74,0
14939,note_on,,59,0,15,,,,,,,,,,,,,,,,15,,46,0
14939,note_on,,0,0,15,,,,,,,,,,,,,,,,15,,70,0
14939,note_on,,59,0,6,,,,,,,,,,,,,,,,2,,46,0
14940,note_on,,1,0,11,,,,,,,,,,,,,,,,10,,72,72
14940,note_on,,1,0,7,,,,,,,,,,,,,,,,5,,72,72
14940,note_on,,1,0,5,,,,,,,,,,,,,,,,1,,72,72
14940,note_on,,1,0,12,,,,,,,,,,,,,,,,11,,69,72
14940,note_on,,0,0,15,,,,,,,,,,,,,,,,15,,53,72
14940,note_on,,1,0,6,,,,,,,,,,,,,,,,2,,53,72
14940,note_on,,1,0,14,,,,,,,,,,,,,,,,13,,53,72
14940,note_on,,1,0,15,,,,,,,,,,,,,,,,15,,60,72
14940,note_on,,0,0,15,,,,,,,,,,,,,,,,15,,69,72
14940,note_on,,1,0,8,,,,,,,,,,,,,,,,6,,69,72
14999,note_on,,59,0,6,,,,,,,,,,,,,,,,2,,53,0
14999,note_on,,59,0,5,,,,,,,,,,,,,,,,1,,72,0
14999,note_on,,59,0,8,,,,,,,,,,,,,,,,6,,69,0
14999,note_on,,59,0,12,,,,,,,,,,,,,,,,11,,69,0
14999,note_on,,59,0,15,,,,,,,,,,,,,,,,15,,60,0
14999,note_on,,59,0,14,,,,,,,,,,,,,,,,13,,53,0
14999,note_on,,59,0,7,,,,,,,,,,,,,,,,5,,72,0
14999,note_on,,0,0,15,,,,,,,,,,,,,,,,15,,53,0
14999,note_on,,59,0,11,,,,,,,,,,,,,,,,10,,72,0
14999,note_on,,0,0,15,,,,,,,,,,,,,,,,15,,69,0
15000,note_on,,1,0,7,,,,,,,,,,,,,,,,5,,70,72
15000,note_on,,1,0,12,,,,,,,,,,,,,,,,11,,67,72
15000,note_on,,1,0,5,,,,,,,,,,,,,,,,1,,70,72
15000,note_on,,1,0,8,,,,,,,,,,,,,,,,6,,67,72
15000,note_on,,1,0,11,,,,,,,,,,,,,,,,10,,70,72
15000,note_on,,1,0,14,,,,,,,,,,,,,,,,13,,58,72
15000,note_on,,1,0,6,,,,,,,,,,,,,,,,2,,58,72
15000,note_on,,1,0,15,,,,,,,,,,,,,,,,15,,58,72
15000,note_on,,0,0,15,,,,,,,,,,,,,,,,15,,67,72
15000,note_on,,0,0,15,,,,,,,,,,,,,,,,15,,62,72
15059,note_on,,59,0,15,,,,,,,,,,,,,,,,15,,58,0
15059,note_on,,0,0,15,,,,,,,,,,,,,,,,15,,67,0
15059,note_on,,59,0,5,,,,,,,,,,,,,,,,1,,70,0
15059,note_on,,59,0,7,,,,,,,,,,,,,,,,5,,70,0
15059,note_on,,59,0,11,,,,,,,,,,,,,,,,10,,70,0
15059,note_on,,59,0,8,,,,,,,,,,,,,,,,6,,67,0
15059,note_on,,59,0,6,,,,,,,,,,,,,,,,2,,58,0
15059,note_on,,59,0,14,,,,,,,,,,,,,,,,13,,58,0
15059,note_on,,59,0,12,,,,,,,,,,,,,,,,11,,67,0
15060,note_on,,1,0,5,,,,,,,,,,,,,,,,1,,69,72
15060,note_on,,1,0,7,,,,,,,,,,,,,,,,5,,69,72
15060,note_on,,1,0,11,,,,,,,,,,,,,,,,10,,69,72
15060,note_on,,0,0,15,,,,,,,,,,,,,,,,15,,65,72
15060,note_on,,1,0,15,,,,,,,,,,,,,,,,15,,46,72
15060,note_on,,1,0,14,,,,,,,,,,,,,,,,13,,46,72
15060,note_on,,1,0,6,,,,,,,,,,,,,,,,2,,46,72
15060,note_on,,1,0,8,,,,,,,,,,,,,,,,6,,65,72
15060,note_on,,1,0,12,,,,,,,,,,,,,,,,11,,65,72
15119,note_on,,59,0,11,,,,,,,,,,,,,,,,10,,69,0
15119,note_on,,59,0,15,,,,,,,,,,,,,,,,15,,62,0
15119,note_on,,59,0,12,,,,,,,,,,,,,,,,11,,65,0
15119,note_on,,59,0,14,,,,,,,,,,,,,,,,13,,46,0
15119,note_on,,59,0,8,,,,,,,,,,,,,,,,6,,65,0
15119,note_on,,59,0,6,,,,,,,,,,,,,,,,2,,46,0
15119,note_on,,0,0,15,,,,,,,,,,,,,,,,15,,46,0
15119,note_on,,59,0,5,,,,,,,,,,,,,,,,1,,69,0
15119,note_on,,0,0,15,,,,,,,,,,,,,,,,15,,65,0
15119,note_on,,59,0,7,,,,,,,,,,,,,,,,5,,69,0
15120,note_on,,1,0,14,,,,,,,,,,,,,,,,13,,48,72
15120,note_on,,1,0,11,,,,,,,,,,,,,,,,10,,67,72
15120,note_on,,1,0,12,,,,,,,,,,,,,,,,11,,64,72
15120,note_on,,1,0,8,,,,,,,,,,,,,,,,6,,64,72
15120,note_on,,1,0,7,,,,,,,,,,,,,,,,5,,67,72
15120,note_on,,1,0,5,,,,,,,,,,,,,,,,1,,67,72
15120,note_on,,0,0,15,,,,,,,,,,,,,,,,15,,64,72
15120,note_on,,1,0,6,,,,,,,,,,,,,,,,2,,48,72
15120,note_on,,0,0,15,,,,,,,,,,,,,,,,15,,55,72
15120,note_on,,1,0,15,,,,,,,,,,,,,,,,15,,48,72
15179,note_on,,59,0,15,,,,,,,,,,,,,,,,15,,48,0
15179,note_on,,59,0,14,,,,,,,,,,,,,,,,13,,48,0
15179,note_on,,59,0,6,,,,,,,,,,,,,,,,2,,48,0
15180,note_on,,1,0,15,,,,,,,,,,,,,,,,15,,46,72
15180,note_on,,1,0,6,,,,,,,,,,,,,,,,2,,46,72
15180,note_on,,1,0,14,,,,,,,,,,,,,,,,13,,46,72
15239,note_on,,119,0,12,,,,,,,,,,,,,,,,11,,64,0
15239,note_on,,119,0,8,,,,,,,,,,,,,,,,6,,64,0
15239,note_on,,119,0,7,,,,,,,,,,,,,,,,5,,67,0
15239,note_on,,59,0,15,,,,,,,,,,,,,,,,15,,55,0
15239,note_on,,0,0,15,,,,,,,,,,,,,,,,15,,46,0
15239,note_on,,119,0,11,,,,,,,,,,,,,,,,10,,67,0
15239,note_on,,59,0,6,,,,,,,,,,,,,,,,2,,46,0
15239,note_on,,59,0,14,,,,,,,,,,,,,,,,13,,46,0
15239,note_on,,119,0,5,,,,,,,,,,,,,,,,1,,67,0
15239,note_on,,0,0,15,,,,,,,,,,,,,,,,15,,64,0
15240,note_on,,361,0,13,,,,,,,,,,,,,,,,12,,65,72
15240,note_on,,1,0,6,,,,,,,,,,,,,,,,2,,45,72
15240,note_on,,841,0,9,,,,,,,,,,,,,,,,7,,65,72
15240,note_on,,0,0,15,,,,,,,,,,,,,,,,15,,65,72
15240,note_on,,0,0,15,,,,,,,,,,,,,,,,15,,60,72
15240,note_on,,1,0,15,,,,,,,,,,,,,,,,15,,45,72
15240,note_on,,361,0,10,,,,,,,,,,,,,,,,8,,57,72
15240,note_on,,1,0,14,,,,,,,,,,,,,,,,13,,45,72
15299,note_on,,0,0,15,,,,,,,,,,,,,,,,15,,65,0
15299,note_on,,59,0,13,,,,,,,,,,,,,,,,12,,65,0
15299,note_on,,59,0,15,,,,,,,,,,,,,,,,15,,45,0
15299,note_on,,59,0,9,,,,,,,,,,,,,,,,7,,65,0
15299,note_on,,59,0,6,,,,,,,,,,,,,,,,2,,45,0
15299,note_on,,59,0,10,,,,,,,,,,,,,,,,8,,57,0
15299,note_on,,59,0,14,,,,,,,,,,,,,,,,13,,45,0
15300,note_on,,1,0,9,,,,,,,,,,,,,,,,7,,64,72
15300,note_on,,1,0,6,,,,,,,,,,,,,,,,2,,41,72
15300,note_on,,1,0,13,,,,,,,,,,,,,,,,12,,64,72
15300,note_on,,1,0,10,,,,,,,,,,,,,,,,8,,53,72
15300,note_on,,1,0,14,,,,,,,,,,,,,,,,13,,41,72
15300,note_on,,0,0,15,,,,,,,,,,,,,,,,15,,69,72
15300,note_on,,1,0,15,,,,,,,,,,,,,,,,15,,41,72
15359,note_on,,59,0,6,,,,,,,,,,,,,,,,2,,41,0
15359,note_on,,59,0,9,,,,,,,,,,,,,,,,7,,64,0
15359,note_on,,59,0,13,,,,,,,,,,,,,,,,12,,64,0
15359,note_on,,59,0,10,,,,,,,,,,,,,,,,8,,53,0
15359,note_on,,59,0,14,,,,,,,,,,,,,,,,13,,41,0
15359,note_on,,59,0,15,,,,,,,,,,,,,,,,15,,60,0
15359,note_on,,0,0,15,,,,,,,,,,,,,,,,15,,69,0
15359,note_on,,0,0,15,,,,,,,,,,,,,,,,15,,41,0
15360,note_on,,1,0,14,,,,,,,,,,,,,,,,13,,46,72
15360,note_on,,1,0,9,,,,,,,,,,,,,,,,7,,62,72
15360,note_on,,1,0,13,,,,,,,,,,,,,,,,12,,62,72
15360,note_on,,1,0,10,,,,,,,,,,,,,,,,8,,58,72
15360,note_on,,1,0,6,,,,,,,,,,,,,,,,2,,46,72
15360,note_on,,0,0,15,,,,,,,,,,,,,,,,15,,62,72
15360,note_on,,1,0,15,,,,,,,,,,,,,,,,15,,46,72
15360,note_on,,0,0,15,,,,,,,,,,,,,,,,15,,67,72
15419,note_on,,59,0,10,,,,,,,,,,,,,,,,8,,58,0
15419,note_on,,0,0,15,,,,,,,,,,,,,,,,15,,67,0
15419,note_on,,59,0,15,,,,,,,,,,,,,,,,15,,46,0
15419,note_on,,0,0,15,,,,,,,,,,,,,,,,15,,62,0
15419,note_on,,59,0,9,,,,,,,,,,,,,,,,7,,62,0
15419,note_on,,59,0,13,,,,,,,,,,,,,,,,12,,62,0
15419,note_on,,59,0,6,,,,,,,,,,,,,,,,2,,46,0
15419,note_on,,59,0,14,,,,,,,,,,,,,,,,13,,46,0
15420,note_on,,1,0,14,,,,,,,,,,,,,,,,13,,45,72
15420,note_on,,1,0,6,,,,,,,,,,,,,,,,2,,45,72
15420,note_on,,0,0,15,,,,,,,,,,,,,,,,15,,65,72
15420,note_on,,1,0,10,,,,,,,,,,,,,,,,8,,57,72
15420,note_on,,0,0,15,,,,,,,,,,,,,,,,15,,60,72
15420,note_on,,1,0,13,,,,,,,,,,,,,,,,12,,60,72
15420,note_on,,1,0,9,,,,,,,,,,,,,,,,7,,60,72
15420,note_on,,1,0,15,,,,,,,,,,,,,,,,15,,45,72
15479,note_on,,0,0,15,,,,,,,,,,,,,,,,15,,60,0
15479,note_on,,59,0,10,,,,,,,,,,,,,,,,8,,57,0
15479,note_on,,59,0,14,,,,,,,,,,,,,,,,13,,45,0
15479,note_on,,0,0,15,,,,,,,,,,,,,,,,15,,65,0
15479,note_on,,59,0,13,,,,,,,,,,,,,,,,12,,60,0
15479,note_on,,59,0,9,,,,,,,,,,,,,,,,7,,60,0
15479,note_on,,59,0,15,,,,,,,,,,,,,,,,15,,45,0
15479,note_on,,59,0,6,,,,,,,,,,,,,,,,2,,45,0
15480,note_on,,1,0,15,,,,,,,,,,,,,,,,15,,43,72
15480,note_on,,1,0,6,,,,,,,,,,,,,,,,2,,43,72
15480,note_on,,0,0,15,,,,,,,,,,,,,,,,15,,64,72
15480,note_on,,1,0,14,,,,,,,,,,,,,,,,13,,43,72
15480,note_on,,1,0,13,,,,,,,,,,,,,,,,12,,58,72
15480,note_on,,1,0,10,,,,,,,,,,,,,,,,8,,55,72
15480,note_on,,0,0,15,,,,,,,,,,,,,,,,15,,58,72
15480,note_on,,1,0,9,,,,,,,,,,,,,,,,7,,58,72
15539,note_on,,59,0,6,,,,,,,,,,,,,,,,2,,43,0
15539,note_on,,0,0,15,,,,,,,,,,,,,,,,15,,58,0
15539,note_on,,0,0,15,,,,,,,,,,,,,,,,15,,64,0
15539,note_on,,59,0,15,,,,,,,,,,,,,,,,15,,43,0
15539,note_on,,59,0,9,,,,,,,,,,,,,,,,7,,58,0
15539,note_on,,59,0,10,,,,,,,,,,,,,,,,8,,55,0
15539,note_on,,59,0,14,,,,,,,,,,,,,,,,13,,43,0
15539,note_on,,59,0,13,,,,,,,,,,,,,,,,12,,58,0
15540,note_on,,1,0,9,,,,,,,,,,,,,,,,7,,57,72
15540,note_on,,0,0,15,,,,,,,,,,,,,,,,15,,57,72
15540,note_on,,1,0,14,,,,,,,,,,,,,,,,13,,41,72
15540,note_on,,1,0,6,,,,,,,,,,,,,,,,2,,41,72
15540,note_on,,1,0,10,,,,,,,,,,,,,,,,8,,53,72
15540,note_on,,1,0,15,,,,,,,,,,,,,,,,15,,41,72
15540,note_on,,1,0,13,,,,,,,,,,,,,,,,12,,57,72
15540,note_on,,0,0,15,,,,,,,,,,,,,,,,15,,65,72
15599,note_on,,59,0,14,,,,,,,,,,,,,,,,13,,41,0
15599,note_on,,59,0,10,,,,,,,,,,,,,,,,8,,53,0
15599,note_on,,59,0,9,,,,,,,,,,,,,,,,7,,57,0
15599,note_on,,59,0,13,,,,,,,,,,,,,,,,12,,57,0
15599,note_on,,59,0,15,,,,,,,,,,,,,,,,15,,41,0
15599,note_on,,59,0,6,,,,,,,,,,,,,,,,2,,41,0
15599,note_on,,0,0,15,,,,,,,,,,,,,,,,15,,65,0
15599,note_on,,0,0,15,,,,,,,,,,,,,,,,15,,57,0
15600,note_on,,1,0,15,,,,,,,,,,,,,,,,15,,48,72
15600,note_on,,1,0,10,,,,,,,,,,,,,,,,8,,48,72
15600,note_on,,0,0,15,,,,,,,,,,,,,,,,15,,67,72
15600,note_on,,1,0,9,,,,,,,,,,,,,,,,7,,55,72
15600,note_on,,1,0,13,,,,,,,,,,,,,,,,12,,55,72
15600,note_on,,1,0,14,,,,,,,,,,,,,,,,13,,48,72
15600,note_on,,0,0,15,,,,,,,,,,,,,,,,15,,64,72
15600,note_on,,0,0,15,,,,,,,,,,,,,,,,15,,60,72
15600,note_on,,1,0,6,,,,,,,,,,,,,,,,2,,48,72
15659,note_on,,59,0,14,,,,,,,,,,,,,,,,13,,48,0
15659,note_on,,59,0,15,,,,,,,,,,,,,,,,15,,48,0
15659,note_on,,0,0,15,,,,,,,,,,,,,,,,15,,67,0
15659,note_on,,0,0,15,,,,,,,,,,,,,,,,15,,64,0
15659,note_on,,59,0,6,,,,,,,,,,,,,,,,2,,48,0
15660,note_on,,1,0,15,,,,,,,,,,,,,,,,15,,48,72
15660,note_on,,0,0,15,,,,,,,,,,,,,,,,15,,64,72
15660,note_on,,1,0,14,,,,,,,,,,,,,,,,13,,48,72
15660,note_on,,1,0,6,,,,,,,,,,,,,,,,2,,48,72
15719,note_on,,59,0,15,,,,,,,,,,,,,,,,15,,48,0
15719,note_on,,0,0,15,,,,,,,,,,,,,,,,15,,64,0
15719,note_on,,119,0,9,,,,,,,,,,,,,,,,7,,55,0
15719,note_on,,59,0,6,,,,,,,,,,,,,,,,2,,48,0
15719,note_on,,119,0,13,,,,,,,,,,,,,,,,12,,55,0
15719,note_on,,59,0,14,,,,,,,,,,,,,,,,13,,48,0
15719,note_on,,119,0,10,,,,,,,,,,,,,,,,8,,48,0
15720,note_on,,1,0,15,,,,,,,,,,,,,,,,15,,52,72
15720,note_on,,1,0,6,,,,,,,,,,,,,,,,2,,52,72
15720,note_on,,0,0,15,,,,,,,,,,,,,,,,15,,67,72
15720,note_on,,1,0,14,,,,,,,,,,,,,,,,13,,52,72
15779,note_on,,59,0,14,,,,,,,,,,,,,,,,13,,52,0
15779,note_on,,0,0,15,,,,,,,,,,,,,,,,15,,67,0
15779,note_on,,59,0,15,,,,,,,,,,,,,,,,15,,52,0
15779,note_on,,59,0,6,,,,,,,,,,,,,,,,2,,52,0
15780,note_on,,0,0,15,,,,,,,,,,,,,,,,15,,64,72
15780,note_on,,541,0,5,,,,,,,,,,,,,,,,1,,67,72
15780,note_on,,1,0,6,,,,,,,,,,,,,,,,2,,48,72
15780,note_on,,1,0,14,,,,,,,,,,,,,,,,13,,48,72
15780,note_on,,1,0,15,,,,,,,,,,,,,,,,15,,48,72
15780,note_on,,541,0,7,,,,,,,,,,,,,,,,5,,67,72
15780,note_on,,61,0,9,,,,,,,,,,,,,,,,7,,60,72
15780,note_on,,541,0,8,,,,,,,,,,,,,,,,6,,64,72
15780,note_on,,61,0,10,,,,,,,,,,,,,,,,8,,48,72
15839,note_on,,59,0,7,,,,,,,,,,,,,,,,5,,67,0
15839,note_on,,0,0,15,,,,,,,,,,,,,,,,15,,64,0
15839,note_on,,59,0,6,,,,,,,,,,,,,,,,2,,48,0
15839,note_on,,59,0,5,,,,,,,,,,,,,,,,1,,67,0
15839,note_on,,59,0,9,,,,,,,,,,,,,,,,7,,60,0
15839,note_on,,0,0,15,,,,,,,,,,,,,,,,15,,48,0
15839,note_on,,59,0,14,,,,,,,,,,,,,,,,13,,48,0
15839,note_on,,59,0,8,,,,,,,,,,,,,,,,6,,64,0
15839,note_on,,59,0,10,,,,,,,,,,,,,,,,8,,48,0
15839,note_on,,59,0,15,,,,,,,,,,,,,,,,15,,60,0
15840,note_on,,0,0,15,,,,,,,,,,,,,,,,15,,65,72
15840,note_on,,1,0,10,,,,,,,,,,,,,,,,8,,57,72
15840,note_on,,1,0,5,,,,,,,,,,,,,,,,1,,72,72
15840,note_on,,1,0,9,,,,,,,,,,,,,,,,7,,60,72
15840,note_on,,0,0,15,,,,,,,,,,,,,,,,15,,60,72
15840,note_on,,1,0,7,,,,,,,,,,,,,,,,5,,72,72
15840,note_on,,1,0,15,,,,,,,,,,,,,,,,15,,45,72
15840,note_on,,1,0,8,,,,,,,,,,,,,,,,6,,65,72
15840,note_on,,1,0,6,,,,,,,,,,,,,,,,2,,45,72
15840,note_on,,1,0,14,,,,,,,,,,,,,,,,13,,45,72
15899,note_on,,59,0,15,,,,,,,,,,,,,,,,15,,45,0
15899,note_on,,0,0,15,,,,,,,,,,,,,,,,15,,60,0
15899,note_on,,59,0,6,,,,,,,,,,,,,,,,2,,45,0
15899,note_on,,59,0,14,,,,,,,,,,,,,,,,13,,45,0
15900,note_on,,1,0,15,,,,,,,,,,,,,,,,15,,41,72
15900,note_on,,0,0,15,,,,,,,,,,,,,,,,15,,57,72
15900,note_on,,1,0,6,,,,,,,,,,,,,,,,2,,41,72
15900,note_on,,1,0,14,,,,,,,,,,,,,,,,13,,41,72
15959,note_on,,119,0,7,,,,,,,,,,,,,,,,5,,72,0
15959,note_on,,119,0,9,,,,,,,,,,,,,,,,7,,60,0
15959,note_on,,59,0,14,,,,,,,,,,,,,,,,13,,41,0
15959,note_on,,119,0,5,,,,,,,,,,,,,,,,1,,72,0
15959,note_on,,119,0,8,,,,,,,,,,,,,,,,6,,65,0
15959,note_on,,0,0,15,,,,,,,,,,,,,,,,15,,57,0
15959,note_on,,59,0,15,,,,,,,,,,,,,,,,15,,41,0
15959,note_on,,119,0,10,,,,,,,,,,,,,,,,8,,57,0
15959,note_on,,59,0,6,,,,,,,,,,,,,,,,2,,41,0
15960,note_on,,1,0,14,,,,,,,,,,,,,,,,13,,45,72
15960,note_on,,1,0,10,,,,,,,,,,,,,,,,8,,53,72
15960,note_on,,1,0,9,,,,,,,,,,,,,,,,7,,60,72
15960,note_on,,1,0,15,,,,,,,,,,,,,,,,15,,45,72
15960,note_on,,1,0,8,,,,,,,,,,,,,,,,6,,65,72
15960,note_on,,1,0,5,,,,,,,,,,,,,,,,1,,69,72
15960,note_on,,0,0,15,,,,,,,,,,,,,,,,15,,60,72
15960,note_on,,1,0,6,,,,,,,,,,,,,,,,2,,45,72
15960,note_on,,1,0,7,,,,,,,,,,,,,,,,5,,69,72
16019,note_on,,0,0,15,,,,,,,,,,,,,,,,15,,60,0
16019,note_on,,59,0,15,,,,,,,,,,,,,,,,15,,65,0
16019,note_on,,59,0,6,,,,,,,,,,,,,,,,2,,45,0
16019,note_on,,0,0,15,,,,,,,,,,,,,,,,15,,45,0
16019,note_on,,59,0,14,,,,,,,,,,,,,,,,13,,45,0
16020,note_on,,1,0,15,,,,,,,,,,,,,,,,15,,41,72
16020,note_on,,1,0,6,,,,,,,,,,,,,,,,2,,41,72
16020,note_on,,0,0,15,,,,,,,,,,,,,,,,15,,69,72
16020,note_on,,0,0,15,,,,,,,,,,,,,,,,15,,60,72
16020,note_on,,1,0,14,,,,,,,,,,,,,,,,13,,41,72
16079,note_on,,0,0,15,,,,,,,,,,,,,,,,15,,60,0
16079,note_on,,0,0,15,,,,,,,,,,,,,,,,15,,69,0
16079,note_on,,119,0,9,,,,,,,,,,,,,,,,7,,60,0
16079,note_on,,119,0,10,,,,,,,,,,,,,,,,8,,53,0
16079,note_on,,119,0,7,,,,,,,,,,,,,,,,5,,69,0
16079,note_on,,119,0,8,,,,,,,,,,,,,,,,6,,65,0
16079,note_on,,119,0,5,,,,,,,,,,,,,,,,1,,69,0
16079,note_on,,59,0,6,,,,,,,,,,,,,,,,2,,41,0
16079,note_on,,59,0,14,,,,,,,,,,,,,,,,13,,41,0
16079,note_on,,59,0,15,,,,,,,,,,,,,,,,15,,41,0
16080,note_on,,1,0,9,,,,,,,,,,,,,,,,7,,60,72
16080,note_on,,1,0,10,,,,,,,,,,,,,,,,8,,48,72
16080,note_on,,0,0,15,,,,,,,,,,,,,,,,15,,67,72
16080,note_on,,1,0,14,,,,,,,,,,,,,,,,13,,48,72
16080,note_on,,0,0,15,,,,,,,,,,,,,,,,15,,64,72
16080,note_on,,0,0,15,,,,,,,,,,,,,,,,15,,60,72
16080,note_on,,1,0,8,,,,,,,,,,,,,,,,6,,64,72
16080,note_on,,1,0,5,,,,,,,,,,,,,,,,1,,67,72
16080,note_on,,1,0,7,,,,,,,,,,,,,,,,5,,67,72
16080,note_on,,1,0,6,,,,,,,,,,,,,,,,2,,48,72
16080,note_on,,1,0,15,,,,,,,,,,,,,,,,15,,48,72
16139,note_on,,59,0,15,,,,,,,,,,,,,,,,15,,48,0
16139,note_on,,0,0,15,,,,,,,,,,,,,,,,15,,67,0
16139,note_on,,59,0,6,,,,,,,,,,,,,,,,2,,48,0
16139,note_on,,0,0,15,,,,,,,,,,,,,,,,15,,64,0
16139,note_on,,59,0,14,,,,,,,,,,,,,,,,13,,48,0
16140,note_on,,1,0,15,,,,,,,,,,,,,,,,15,,48,72
16140,note_on,,0,0,15,,,,,,,,,,,,,,,,15,,64,72
16140,note_on,,1,0,6,,,,,,,,,,,,,,,,2,,48,72
16140,note_on,,1,0,14,,,,,,,,,,,,,,,,13,,48,72
16199,note_on,,119,0,5,,,,,,,,,,,,,,,,1,,67,0
16199,note_on,,119,0,8,,,,,,,,,,,,,,,,6,,64,0
16199,note_on,,119,0,7,,,,,,,,,,,,,,,,5,,67,0
16199,note_on,,59,0,6,,,,,,,,,,,,,,,,2,,48,0
16199,note_on,,0,0,15,,,,,,,,,,,,,,,,15,,64,0
16199,note_on,,119,0,10,,,,,,,,,,,,,,,,8,,48,0
16199,note_on,,59,0,15,,,,,,,,,,,,,,,,15,,48,0
16199,note_on,,59,0,14,,,,,,,,,,,,,,,,13,,48,0
16199,note_on,,119,0,9,,,,,,,,,,,,,,,,7,,60,0
16200,note_on,,1,0,14,,,,,,,,,,,,,,,,13,,52,72
16200,note_on,,1,0,15,,,,,,,,,,,,,,,,15,,52,72
16200,note_on,,1,0,6,,,,,,,,,,,,,,,,2,,52,72
16200,note_on,,0,0,15,,,,,,,,,,,,,,,,15,,67,72
16259,note_on,,0,0,15,,,,,,,,,,,,,,,,15,,52,0
16259,note_on,,0,0,15,,,,,,,,,,,,,,,,15,,67,0
16259,note_on,,59,0,14,,,,,,,,,,,,,,,,13,,52,0
16259,note_on,,59,0,6,,,,,,,,,,,,,,,,2,,52,0
16259,note_on,,59,0,15,,,,,,,,,,,,,,,,15,,60,0
16260,note_on,,1,0,15,,,,,,,,,,,,,,,,15,,48,72
16260,note_on,,0,0,15,,,,,,,,,,,,,,,,15,,72,72
16260,note_on,,0,0,15,,,,,,,,,,,,,,,,15,,67,72
16260,note_on,,541,0,13,,,,,,,,,,,,,,,,12,,72,72
16260,note_on,,0,0,15,,,,,,,,,,,,,,,,15,,64,72
16260,note_on,,1,0,14,,,,,,,,,,,,,,,,13,,48,72
16260,note_on,,1,0,6,,,,,,,,,,,,,,,,2,,48,72
16260,note_on,,1021,0,12,,,,,,,,,,,,,,,,11,,76,72
16260,note_on,,1021,0,11,,,,,,,,,,,,,,,,10,,79,72
16319,note_on,,59,0,13,,,,,,,,,,,,,,,,12,,72,0
16319,note_on,,59,0,11,,,,,,,,,,,,,,,,10,,79,0
16319,note_on,,0,0,15,,,,,,,,,,,,,,,,15,,72,0
16319,note_on,,59,0,12,,,,,,,,,,,,,,,,11,,76,0
16319,note_on,,59,0,14,,,,,,,,,,,,,,,,13,,48,0
16319,note_on,,59,0,6,,,,,,,,,,,,,,,,2,,48,0
16319,note_on,,59,0,15,,,,,,,,,,,,,,,,15,,48,0
16319,note_on,,0,0,15,,,,,,,,,,,,,,,,15,,64,0
16319,note_on,,0,0,15,,,,,,,,,,,,,,,,15,,67,0
16320,note_on,,0,0,15,,,,,,,,,,,,,,,,15,,60,72
16320,note_on,,1,0,15,,,,,,,,,,,,,,,,15,,57,72
16320,note_on,,1,0,6,,,,,,,,,,,,,,,,2,,57,72
16320,note_on,,0,0,15,,,,,,,,,,,,,,,,15,,72,72
16320,note_on,,1,0,12,,,,,,,,,,,,,,,,11,,77,72
16320,note_on,,1,0,14,,,,,,,,,,,,,,,,13,,57,72
16320,note_on,,1,0,11,,,,,,,,,,,,,,,,10,,84,72
16320,note_on,,1,0,13,,,,,,,,,,,,,,,,12,,72,72
16320,note_on,,0,0,15,,,,,,,,,,,,,,,,15,,65,72
16379,note_on,,59,0,15,,,,,,,,,,,,,,,,15,,57,0
16379,note_on,,0,0,15,,,,,,,,,,,,,,,,15,,72,0
16379,note_on,,59,0,6,,,,,,,,,,,,,,,,2,,57,0
16379,note_on,,59,0,14,,,,,,,,,,,,,,,,13,,57,0
16380,note_on,,1,0,6,,,,,,,,,,,,,,,,2,,53,72
16380,note_on,,1,0,14,,,,,,,,,,,,,,,,13,,53,72
16380,note_on,,0,0,15,,,,,,,,,,,,,,,,15,,69,72
16380,note_on,,1,0,15,,,,,,,,,,,,,,,,15,,53,72
16439,note_on,,0,0,15,,,,,,,,,,,,,,,,15,,69,0
16439,note_on,,119,0,13,,,,,,,,,,,,,,,,12,,72,0
16439,note_on,,59,0,14,,,,,,,,,,,,,,,,13,,53,0
16439,note_on,,59,0,6,,,,,,,,,,,,,,,,2,,53,0
16439,note_on,,119,0,12,,,,,,,,,,,,,,,,11,,77,0
16439,note_on,,119,0,11,,,,,,,,,,,,,,,,10,,84,0
16439,note_on,,59,0,15,,,,,,,,,,,,,,,,15,,53,0
16440,note_on,,1,0,11,,,,,,,,,,,,,,,,10,,81,72
16440,note_on,,1,0,14,,,,,,,,,,,,,,,,13,,57,72
16440,note_on,,1,0,15,,,,,,,,,,,,,,,,15,,57,72
16440,note_on,,1,0,13,,,,,,,,,,,,,,,,12,,72,72
16440,note_on,,1,0,12,,,,,,,,,,,,,,,,11,,77,72
16440,note_on,,1,0,6,,,,,,,,,,,,,,,,2,,57,72
16440,note_on,,0,0,15,,,,,,,,,,,,,,,,15,,72,72
16499,note_on,,59,0,14,,,,,,,,,,,,,,,,13,,57,0
16499,note_on,,0,0,15,,,,,,,,,,,,,,,,15,,72,0
16499,note_on,,59,0,15,,,,,,,,,,,,,,,,15,,57,0
16499,note_on,,59,0,6,,,,,,,,,,,,,,,,2,,57,0
16500,note_on,,0,0,15,,,,,,,,,,,,,,,,15,,69,72
16500,note_on,,1,0,14,,,,,,,,,,,,,,,,13,,53,72
16500,note_on,,1,0,6,,,,,,,,,,,,,,,,2,,53,72
16500,note_on,,1,0,15,,,,,,,,,,,,,,,,15,,53,72
16559,note_on,,0,0,15,,,,,,,,,,,,,,,,15,,60,0
16559,note_on,,59,0,15,,,,,,,,,,,,,,,,15,,65,0
16559,note_on,,59,0,14,,,,,,,,,,,,,,,,13,,53,0
16559,note_on,,0,0,15,,,,,,,,,,,,,,,,15,,69,0
16559,note_on,,0,0,15,,,,,,,,,,,,,,,,15,,53,0
16559,note_on,,119,0,12,,,,,,,,,,,,,,,,11,,77,0
16559,note_on,,119,0,11,,,,,,,,,,,,,,,,10,,81,0
16559,note_on,,119,0,13,,,,,,,,,,,,,,,,12,,72,0
16559,note_on,,59,0,6,,,,,,,,,,,,,,,,2,,53,0
16560,note_on,,0,0,15,,,,,,,,,,,,,,,,15,,64,72
16560,note_on,,1,0,6,,,,,,,,,,,,,,,,2,,60,72
16560,note_on,,1,0,12,,,,,,,,,,,,,,,,11,,76,72
16560,note_on,,0,0,15,,,,,,,,,,,,,,,,15,,67,72
16560,note_on,,1,0,15,,,,,,,,,,,,,,,,15,,60,72
16560,note_on,,1,0,13,,,,,,,,,,,,,,,,12,,72,72
16560,note_on,,1,0,11,,,,,,,,,,,,,,,,10,,79,72
16560,note_on,,1,0,14,,,,,,,,,,,,,,,,13,,60,72
16619,note_on,,59,0,14,,,,,,,,,,,,,,,,13,,60,0
16619,note_on,,59,0,15,,,,,,,,,,,,,,,,15,,60,0
16619,note_on,,0,0,15,,,,,,,,,,,,,,,,15,,64,0
16619,note_on,,59,0,6,,,,,,,,,,,,,,,,2,,60,0
16620,note_on,,1,0,6,,,,,,,,,,,,,,,,2,,58,72
16620,note_on,,1,0,15,,,,,,,,,,,,,,,,15,,58,72
16620,note_on,,0,0,15,,,,,,,,,,,,,,,,15,,62,72
16620,note_on,,1,0,14,,,,,,,,,,,,,,,,13,,58,72
16679,note_on,,59,0,6,,,,,,,,,,,,,,,,2,,58,0
16679,note_on,,59,0,14,,,,,,,,,,,,,,,,13,,58,0
16679,note_on,,0,0,15,,,,,,,,,,,,,,,,15,,62,0
16679,note_on,,119,0,11,,,,,,,,,,,,,,,,10,,79,0
16679,note_on,,119,0,13,,,,,,,,,,,,,,,,12,,72,0
16679,note_on,,119,0,12,,,,,,,,,,,,,,,,11,,76,0
16679,note_on,,59,0,15,,,,,,,,,,,,,,,,15,,58,0
16680,note_on,,1,0,14,,,,,,,,,,,,,,,,13,,60,72
16680,note_on,,1,0,6,,,,,,,,,,,,,,,,2,,60,72
16680,note_on,,0,0,15,,,,,,,,,,,,,,,,15,,64,72
16680,note_on,,1,0,15,,,,,,,,,,,,,,,,15,,60,72
16739,note_on,,59,0,6,,,,,,,,,,,,,,,,2,,60,0
16739,note_on,,59,0,15,,,,,,,,,,,,,,,,15,,67,0
16739,note_on,,59,0,14,,,,,,,,,,,,,,,,13,,60,0
16739,note_on,,0,0,15,,,,,,,,,,,,,,,,15,,64,0
16739,note_on,,0,0,15,,,,,,,,,,,,,,,,15,,60,0
16740,note_on,,1,0,14,,,,,,,,,,,,,,,,13,,57,72
16740,note_on,,0,0,15,,,,,,,,,,,,,,,,15,,65,72
16740,note_on,,61,0,12,,,,,,,,,,,,,,,,11,,60,72
16740,note_on,,1,0,15,,,,,,,,,,,,,,,,15,,57,72
16740,note_on,,0,0,15,,,,,,,,,,,,,,,,15,,60,72
16740,note_on,,1,0,6,,,,,,,,,,,,,,,,2,,57,72
16740,note_on,,541,0,8,,,,,,,,,,,,,,,,6,,60,72
16799,note_on,,59,0,8,,,,,,,,,,,,,,,,6,,60,0
16799,note_on,,59,0,12,,,,,,,,,,,,,,,,11,,60,0
16799,note_on,,59,0,6,,,,,,,,,,,,,,,,2,,57,0
16799,note_on,,59,0,14,,,,,,,,,,,,,,,,13,,57,0
16799,note_on,,59,0,15,,,,,,,,,,,,,,,,15,,57,0
16799,note_on,,0,0,15,,,,,,,,,,,,,,,,15,,60,0
16799,note_on,,0,0,15,,,,,,,,,,,,,,,,15,,65,0
16800,note_on,,1,0,12,,,,,,,,,,,,,,,,11,,62,72
16800,note_on,,1,0,6,,,,,,,,,,,,,,,,2,,58,72
16800,note_on,,0,0,15,,,,,,,,,,,,,,,,15,,62,72
16800,note_on,,0,0,15,,,,,,,,,,,,,,,,15,,67,72
16800,note_on,,1,0,15,,,,,,,,,,,,,,,,15,,58,72
16800,note_on,,1,0,14,,,,,,,,,,,,,,,,13,,58,72
16800,note_on,,1,0,8,,,,,,,,,,,,,,,,6,,62,72
16859,note_on,,0,0,15,,,,,,,,,,,,,,,,15,,67,0
16859,note_on,,0,0,15,,,,,,,,,,,,,,,,15,,62,0
16859,note_on,,59,0,12,,,,,,,,,,,,,,,,11,,62,0
16859,note_on,,59,0,15,,,,,,,,,,,,,,,,15,,58,0
16859,note_on,,59,0,8,,,,,,,,,,,,,,,,6,,62,0
16859,note_on,,59,0,14,,,,,,,,,,,,,,,,13,,58,0
16859,note_on,,59,0,6,,,,,,,,,,,,,,,,2,,58,0
16860,note_on,,1,0,15,,,,,,,,,,,,,,,,15,,57,72
16860,note_on,,0,0,15,,,,,,,,,,,,,,,,15,,60,72
16860,note_on,,1,0,6,,,,,,,,,,,,,,,,2,,57,72
16860,note_on,,0,0,15,,,,,,,,,,,,,,,,15,,65,72
16860,note_on,,1,0,8,,,,,,,,,,,,,,,,6,,60,72
16860,note_on,,1,0,12,,,,,,,,,,,,,,,,11,,60,72
16860,note_on,,1,0,14,,,,,,,,,,,,,,,,13,,57,72
16919,note_on,,59,0,12,,,,,,,,,,,,,,,,11,,60,0
16919,note_on,,59,0,15,,,,,,,,,,,,,,,,15,,57,0
16919,note_on,,59,0,6,,,,,,,,,,,,,,,,2,,57,0
16919,note_on,,0,0,15,,,,,,,,,,,,,,,,15,,65,0
16919,note_on,,0,0,15,,,,,,,,,,,,,,,,15,,60,0
16919,note_on,,59,0,8,,,,,,,,,,,,,,,,6,,60,0
16919,note_on,,59,0,14,,,,,,,,,,,,,,,,13,,57,0
16920,note_on,,1,0,12,,,,,,,,,,,,,,,,11,,65,72
16920,note_on,,1,0,8,,,,,,,,,,,,,,,,6,,65,72
16979,note_on,,59,0,8,,,,,,,,,,,,,,,,6,,65,0
16979,note_on,,59,0,12,,,,,,,,,,,,,,,,11,,65,0
16980,note_on,,1,0,12,,,,,,,,,,,,,,,,11,,64,72
16980,note_on,,61,0,15,,,,,,,,,,,,,,,,15,,55,72
16980,note_on,,0,0,15,,,,,,,,,,,,,,,,15,,64,72
16980,note_on,,0,0,15,,,,,,,,,,,,,,,,15,,58,72
16980,note_on,,61,0,14,,,,,,,,,,,,,,,,13,,55,72
16980,note_on,,61,0,6,,,,,,,,,,,,,,,,2,,55,72
16980,note_on,,1,0,8,,,,,,,,,,,,,,,,6,,64,72
17039,note_on,,59,0,14,,,,,,,,,,,,,,,,13,,55,0
17039,note_on,,59,0,15,,,,,,,,,,,,,,,,15,,55,0
17039,note_on,,0,0,15,,,,,,,,,,,,,,,,15,,64,0
17039,note_on,,0,0,15,,,,,,,,,,,,,,,,15,,58,0
17039,note_on,,59,0,8,,,,,,,,,,,,,,,,6,,64,0
17039,note_on,,59,0,12,,,,,,,,,,,,,,,,11,,64,0
17039,note_on,,59,0,6,,,,,,,,,,,,,,,,2,,55,0
17040,note_on,,1,0,14,,,,,,,,,,,,,,,,13,,53,72
17040,note_on,,1,0,6,,,,,,,,,,,,,,,,2,,53,72
17040,note_on,,1,0,8,,,,,,,,,,,,,,,,6,,69,72
17040,note_on,,1,0,12,,,,,,,,,,,,,,,,11,,69,72
17040,note_on,,1,0,15,,,,,,,,,,,,,,,,15,,53,72
17040,note_on,,0,0,15,,,,,,,,,,,,,,,,15,,60,72
17040,note_on,,0,0,15,,,,,,,,,,,,,,,,15,,69,72
17099,note_on,,59,0,6,,,,,,,,,,,,,,,,2,,53,0
17099,note_on,,59,0,12,,,,,,,,,,,,,,,,11,,69,0
17099,note_on,,59,0,14,,,,,,,,,,,,,,,,13,,53,0
17099,note_on,,59,0,8,,,,,,,,,,,,,,,,6,,69,0
17099,note_on,,0,0,15,,,,,,,,,,,,,,,,15,,69,0
17099,note_on,,0,0,15,,,,,,,,,,,,,,,,15,,60,0
17099,note_on,,59,0,15,,,,,,,,,,,,,,,,15,,53,0
17100,note_on,,1,0,12,,,,,,,,,,,,,,,,11,,67,72
17100,note_on,,1,0,14,,,,,,,,,,,,,,,,13,,60,72
17100,note_on,,1,0,6,,,,,,,,,,,,,,,,2,,60,72
17100,note_on,,1,0,8,,,,,,,,,,,,,,,,6,,67,72
17100,note_on,,0,0,15,,,,,,,,,,,,,,,,15,,67,72
17100,note_on,,0,0,15,,,,,,,,,,,,,,,,15,,64,72
17100,note_on,,1,0,15,,,,,,,,,,,,,,,,15,,60,72
17159,note_on,,59,0,12,,,,,,,,,,,,,,,,11,,67,0
17159,note_on,,0,0,15,,,,,,,,,,,,,,,,15,,64,0
17159,note_on,,0,0,15,,,,,,,,,,,,,,,,15,,67,0
17159,note_on,,59,0,15,,,,,,,,,,,,,,,,15,,60,0
17159,note_on,,59,0,8,,,,,,,,,,,,,,,,6,,67,0
17159,note_on,,59,0,6,,,,,,,,,,,,,,,,2,,60,0
17159,note_on,,59,0,14,,,,,,,,,,,,,,,,13,,60,0
17160,note_on,,1,0,15,,,,,,,,,,,,,,,,15,,58,72
17160,note_on,,1,0,6,,,,,,,,,,,,,,,,2,,58,72
17160,note_on,,1,0,14,,,,,,,,,,,,,,,,13,,58,72
17219,note_on,,59,0,14,,,,,,,,,,,,,,,,13,,58,0
17219,note_on,,59,0,6,,,,,,,,,,,,,,,,2,,58,0
17219,note_on,,59,0,15,,,,,,,,,,,,,,,,15,,58,0
17220,note_on,,1,0,14,,,,,,,,,,,,,,,,13,,57,72
17220,note_on,,1,0,6,,,,,,,,,,,,,,,,2,,57,72
17220,note_on,,1,0,15,,,,,,,,,,,,,,,,15,,57,72
17220,note_on,,0,0,15,,,,,,,,,,,,,,,,15,,65,72
17220,note_on,,1021,0,7,,,,,,,,,,,,,,,,5,,65,72
17220,note_on,,541,0,11,,,,,,,,,,,,,,,,10,,65,72
17220,note_on,,1021,0,5,,,,,,,,,,,,,,,,1,,65,72
17279,note_on,,59,0,5,,,,,,,,,,,,,,,,1,,65,0
17279,note_on,,59,0,15,,,,,,,,,,,,,,,,15,,57,0
17279,note_on,,0,0,15,,,,,,,,,,,,,,,,15,,65,0
17279,note_on,,59,0,14,,,,,,,,,,,,,,,,13,,57,0
17279,note_on,,59,0,7,,,,,,,,,,,,,,,,5,,65,0
17279,note_on,,59,0,6,,,,,,,,,,,,,,,,2,,57,0
17279,note_on,,59,0,11,,,,,,,,,,,,,,,,10,,65,0
17280,note_on,,1,0,7,,,,,,,,,,,,,,,,5,,67,72
17280,note_on,,1,0,11,,,,,,,,,,,,,,,,10,,67,72
17280,note_on,,1,0,6,,,,,,,,,,,,,,,,2,,58,72
17280,note_on,,1,0,15,,,,,,,,,,,,,,,,15,,58,72
17280,note_on,,0,0,15,,,,,,,,,,,,,,,,15,,67,72
17280,note_on,,1,0,14,,,,,,,,,,,,,,,,13,,58,72
17280,note_on,,1,0,5,,,,,,,,,,,,,,,,1,,67,72
17280,note_on,,0,0,15,,,,,,,,,,,,,,,,15,,62,72
17339,note_on,,59,0,11,,,,,,,,,,,,,,,,10,,67,0
17339,note_on,,59,0,15,,,,,,,,,,,,,,,,15,,58,0
17339,note_on,,0,0,15,,,,,,,,,,,,,,,,15,,67,0
17339,note_on,,0,0,15,,,,,,,,,,,,,,,,15,,62,0
17339,note_on,,59,0,6,,,,,,,,,,,,,,,,2,,58,0
17339,note_on,,59,0,7,,,,,,,,,,,,,,,,5,,67,0
17339,note_on,,59,0,5,,,,,,,,,,,,,,,,1,,67,0
17339,note_on,,59,0,14,,,,,,,,,,,,,,,,13,,58,0
17340,note_on,,1,0,15,,,,,,,,,,,,,,,,15,,57,72
17340,note_on,,0,0,15,,,,,,,,,,,,,,,,15,,65,72
17340,note_on,,0,0,15,,,,,,,,,,,,,,,,15,,60,72
17340,note_on,,1,0,7,,,,,,,,,,,,,,,,5,,65,72
17340,note_on,,1,0,14,,,,,,,,,,,,,,,,13,,57,72
17340,note_on,,1,0,6,,,,,,,,,,,,,,,,2,,57,72
17340,note_on,,1,0,11,,,,,,,,,,,,,,,,10,,65,72
17340,note_on,,1,0,5,,,,,,,,,,,,,,,,1,,65,72
17399,note_on,,59,0,7,,,,,,,,,,,,,,,,5,,65,0
17399,note_on,,0,0,15,,,,,,,,,,,,,,,,15,,60,0
17399,note_on,,0,0,15,,,,,,,,,,,,,,,,15,,65,0
17399,note_on,,59,0,15,,,,,,,,,,,,,,,,15,,57,0
17399,note_on,,59,0,6,,,,,,,,,,,,,,,,2,,57,0
17399,note_on,,59,0,11,,,,,,,,,,,,,,,,10,,65,0
17399,note_on,,59,0,5,,,,,,,,,,,,,,,,1,,65,0
17399,note_on,,59,0,14,,,,,,,,,,,,,,,,13,,57,0
17400,note_on,,0,0,15,,,,,,,,,,,,,,,,15,,70,72
17400,note_on,,1,0,14,,,,,,,,,,,,,,,,13,,55,72
17400,note_on,,1,0,5,,,,,,,,,,,,,,,,1,,70,72
17400,note_on,,0,0,15,,,,,,,,,,,,,,,,15,,58,72
17400,note_on,,1,0,6,,,,,,,,,,,,,,,,2,,55,72
17400,note_on,,0,0,15,,,,,,,,,,,,,,,,15,,64,72
17400,note_on,,1,0,7,,,,,,,,,,,,,,,,5,,70,72
17400,note_on,,1,0,11,,,,,,,,,,,,,,,,10,,70,72
17400,note_on,,1,0,15,,,,,,,,,,,,,,,,15,,55,72
17459,note_on,,0,0,15,,,,,,,,,,,,,,,,15,,64,0
17459,note_on,,59,0,14,,,,,,,,,,,,,,,,13,,55,0
17459,note_on,,59,0,7,,,,,,,,,,,,,,,,5,,70,0
17459,note_on,,59,0,15,,,,,,,,,,,,,,,,15,,55,0
17459,note_on,,59,0,11,,,,,,,,,,,,,,,,10,,70,0
17459,note_on,,59,0,6,,,,,,,,,,,,,,,,2,,55,0
17459,note_on,,59,0,5,,,,,,,,,,,,,,,,1,,70,0
17459,note_on,,0,0,15,,,,,,,,,,,,,,,,15,,58,0
17459,note_on,,0,0,15,,,,,,,,,,,,,,,,15,,70,0
17460,note_on,,1,0,7,,,,,,,,,,,,,,,,5,,69,72
17460,note_on,,1,0,15,,,,,,,,,,,,,,,,15,,53,72
17460,note_on,,1,0,14,,,,,,,,,,,,,,,,13,,53,72
17460,note_on,,0,0,15,,,,,,,,,,,,,,,,15,,60,72
17460,note_on,,0,0,15,,,,,,,,,,,,,,,,15,,65,72
17460,note_on,,1,0,5,,,,,,,,,,,,,,,,1,,69,72
17460,note_on,,0,0,15,,,,,,,,,,,,,,,,15,,69,72
17460,note_on,,1,0,6,,,,,,,,,,,,,,,,2,,53,72
17460,note_on,,1,0,11,,,,,,,,,,,,,,,,10,,69,72
17519,note_on,,59,0,7,,,,,,,,,,,,,,,,5,,69,0
17519,note_on,,0,0,15,,,,,,,,,,,,,,,,15,,69,0
17519,note_on,,59,0,15,,,,,,,,,,,,,,,,15,,53,0
17519,note_on,,0,0,15,,,,,,,,,,,,,,,,15,,60,0
17519,note_on,,59,0,5,,,,,,,,,,,,,,,,1,,69,0
17519,note_on,,59,0,14,,,,,,,,,,,,,,,,13,,53,0
17519,note_on,,59,0,11,,,,,,,,,,,,,,,,10,,69,0
17519,note_on,,59,0,6,,,,,,,,,,,,,,,,2,,53,0
17519,note_on,,0,0,15,,,,,,,,,,,,,,,,15,,65,0
17520,note_on,,1,0,5,,,,,,,,,,,,,,,,1,,74,72
17520,note_on,,1,0,11,,,,,,,,,,,,,,,,10,,74,72
17520,note_on,,1,0,15,,,,,,,,,,,,,,,,15,,46,72
17520,note_on,,1,0,7,,,,,,,,,,,,,,,,5,,74,72
17520,note_on,,0,0,15,,,,,,,,,,,,,,,,15,,65,72
17520,note_on,,1,0,6,,,,,,,,,,,,,,,,2,,46,72
17520,note_on,,0,0,15,,,,,,,,,,,,,,,,15,,74,72
17520,note_on,,1,0,14,,,,,,,,,,,,,,,,13,,46,72
17520,note_on,,0,0,15,,,,,,,,,,,,,,,,15,,70,72
17579,note_on,,59,0,5,,,,,,,,,,,,,,,,1,,74,0
17579,note_on,,59,0,15,,,,,,,,,,,,,,,,15,,46,0
17579,note_on,,59,0,6,,,,,,,,,,,,,,,,2,,46,0
17579,note_on,,0,0,15,,,,,,,,,,,,,,,,15,,70,0
17579,note_on,,59,0,14,,,,,,,,,,,,,,,,13,,46,0
17579,note_on,,59,0,7,,,,,,,,,,,,,,,,5,,74,0
17579,note_on,,59,0,11,,,,,,,,,,,,,,,,10,,74,0
17579,note_on,,0,0,15,,,,,,,,,,,,,,,,15,,74,0
17580,note_on,,1,0,6,,,,,,,,,,,,,,,,2,,41,72
17580,note_on,,1,0,7,,,,,,,,,,,,,,,,5,,72,72
17580,note_on,,0,0,15,,,,,,,,,,,,,,,,15,,69,72
17580,note_on,,1,0,15,,,,,,,,,,,,,,,,15,,41,72
17580,note_on,,0,0,15,,,,,,,,,,,,,,,,15,,72,72
17580,note_on,,1,0,5,,,,,,,,,,,,,,,,1,,72,72
17580,note_on,,1,0,14,,,,,,,,,,,,,,,,13,,41,72
17580,note_on,,1,0,11,,,,,,,,,,,,,,,,10,,72,72
17639,note_on,,0,0,15,,,,,,,,,,,,,,,,15,,69,0
17639,note_on,,0,0,15,,,,,,,,,,,,,,,,15,,72,0
17639,note_on,,0,0,15,,,,,,,,,,,,,,,,15,,41,0
17639,note_on,,59,0,5,,,,,,,,,,,,,,,,1,,72,0
17639,note_on,,59,0,7,,,,,,,,,,,,,,,,5,,72,0
17639,note_on,,59,0,11,,,,,,,,,,,,,,,,10,,72,0
17639,note_on,,59,0,6,,,,,,,,,,,,,,,,2,,41,0
17639,note_on,,59,0,14,,,,,,,,,,,,,,,,13,,41,0
17639,note_on,,59,0,15,,,,,,,,,,,,,,,,15,,65,0
17640,note_on,,1,0,6,,,,,,,,,,,,,,,,2,,43,72
17640,note_on,,1,0,14,,,,,,,,,,,,,,,,13,,43,72
17640,note_on,,1,0,15,,,,,,,,,,,,,,,,15,,43,72
17699,note_on,,59,0,6,,,,,,,,,,,,,,,,2,,43,0
17699,note_on,,59,0,14,,,,,,,,,,,,,,,,13,,43,0
17699,note_on,,59,0,15,,,,,,,,,,,,,,,,15,,43,0
17700,note_on,,1,0,6,,,,,,,,,,,,,,,,2,,45,72
17700,note_on,,1,0,14,,,,,,,,,,,,,,,,13,,45,72
17700,note_on,,0,0,15,,,,,,,,,,,,,,,,15,,53,72
17700,note_on,,1501,0,9,,,,,,,,,,,,,,,,7,,53,72
17700,note_on,,1021,0,13,,,,,,,,,,,,,,,,12,,53,72
17700,note_on,,1,0,15,,,,,,,,,,,,,,,,15,,45,72
17759,note_on,,59,0,15,,,,,,,,,,,,,,,,15,,45,0
17759,note_on,,0,0,15,,,,,,,,,,,,,,,,15,,53,0
17759,note_on,,59,0,13,,,,,,,,,,,,,,,,12,,53,0
17759,note_on,,59,0,6,,,,,,,,,,,,,,,,2,,45,0
17759,note_on,,59,0,9,,,,,,,,,,,,,,,,7,,53,0
17759,note_on,,59,0,14,,,,,,,,,,,,,,,,13,,45,0
17760,note_on,,1,0,15,,,,,,,,,,,,,,,,15,,46,72
17760,note_on,,1,0,14,,,,,,,,,,,,,,,,13,,46,72
17760,note_on,,0,0,15,,,,,,,,,,,,,,,,15,,55,72
17760,note_on,,1,0,6,,,,,,,,,,,,,,,,2,,46,72
17760,note_on,,1,0,9,,,,,,,,,,,,,,,,7,,55,72
17760,note_on,,1,0,13,,,,,,,,,,,,,,,,12,,55,72
17819,note_on,,59,0,13,,,,,,,,,,,,,,,,12,,55,0
17819,note_on,,59,0,6,,,,,,,,,,,,,,,,2,,46,0
17819,note_on,,59,0,15,,,,,,,,,,,,,,,,15,,46,0
17819,note_on,,59,0,9,,,,,,,,,,,,,,,,7,,55,0
17819,note_on,,59,0,14,,,,,,,,,,,,,,,,13,,46,0
17819,note_on,,0,0,15,,,,,,,,,,,,,,,,15,,55,0
17820,note_on,,1,0,9,,,,,,,,,,,,,,,,7,,53,72
17820,note_on,,1,0,14,,,,,,,,,,,,,,,,13,,45,72
17820,note_on,,0,0,15,,,,,,,,,,,,,,,,15,,53,72
17820,note_on,,1,0,6,,,,,,,,,,,,,,,,2,,45,72
17820,note_on,,1,0,15,,,,,,,,,,,,,,,,15,,45,72
17820,note_on,,1,0,13,,,,,,,,,,,,,,,,12,,53,72
17879,note_on,,0,0,15,,,,,,,,,,,,,,,,15,,53,0
17879,note_on,,59,0,13,,,,,,,,,,,,,,,,12,,53,0
17879,note_on,,59,0,9,,,,,,,,,,,,,,,,7,,53,0
17879,note_on,,59,0,15,,,,,,,,,,,,,,,,15,,45,0
17879,note_on,,59,0,14,,,,,,,,,,,,,,,,13,,45,0
17879,note_on,,59,0,6,,,,,,,,,,,,,,,,2,,45,0
17880,note_on,,1,0,14,,,,,,,,,,,,,,,,13,,43,72
17880,note_on,,1,0,9,,,,,,,,,,,,,,,,7,,58,72
17880,note_on,,1,0,13,,,,,,,,,,,,,,,,12,,58,72
17880,note_on,,1,0,6,,,,,,,,,,,,,,,,2,,43,72
17880,note_on,,1,0,15,,,,,,,,,,,,,,,,15,,43,72
17880,note_on,,0,0,15,,,,,,,,,,,,,,,,15,,58,72
17939,note_on,,59,0,14,,,,,,,,,,,,,,,,13,,43,0
17939,note_on,,59,0,9,,,,,,,,,,,,,,,,7,,58,0
17939,note_on,,59,0,6,,,,,,,,,,,,,,,,2,,43,0
17939,note_on,,59,0,13,,,,,,,,,,,,,,,,12,,58,0
17939,note_on,,0,0,15,,,,,,,,,,,,,,,,15,,58,0
17939,note_on,,59,0,15,,,,,,,,,,,,,,,,15,,43,0
17940,note_on,,1,0,14,,,,,,,,,,,,,,,,13,,41,72
17940,note_on,,1,0,13,,,,,,,,,,,,,,,,12,,57,72
17940,note_on,,0,0,15,,,,,,,,,,,,,,,,15,,57,72
17940,note_on,,1,0,15,,,,,,,,,,,,,,,,15,,41,72
17940,note_on,,1,0,6,,,,,,,,,,,,,,,,2,,41,72
17940,note_on,,1,0,9,,,,,,,,,,,,,,,,7,,57,72
17999,note_on,,59,0,6,,,,,,,,,,,,,,,,2,,41,0
17999,note_on,,59,0,9,,,,,,,,,,,,,,,,7,,57,0
17999,note_on,,59,0,15,,,,,,,,,,,,,,,,15,,41,0
17999,note_on,,0,0,15,,,,,,,,,,,,,,,,15,,57,0
17999,note_on,,59,0,14,,,,,,,,,,,,,,,,13,,41,0
17999,note_on,,59,0,13,,,,,,,,,,,,,,,,12,,57,0
18000,note_on,,1,0,13,,,,,,,,,,,,,,,,12,,62,72
18000,note_on,,1,0,6,,,,,,,,,,,,,,,,2,,46,72
18000,note_on,,0,0,15,,,,,,,,,,,,,,,,15,,53,72
18000,note_on,,1,0,14,,,,,,,,,,,,,,,,13,,46,72
18000,note_on,,0,0,15,,,,,,,,,,,,,,,,15,,62,72
18000,note_on,,1,0,15,,,,,,,,,,,,,,,,15,,46,72
18000,note_on,,1,0,9,,,,,,,,,,,,,,,,7,,62,72
18059,note_on,,59,0,15,,,,,,,,,,,,,,,,15,,46,0
18059,note_on,,59,0,6,,,,,,,,,,,,,,,,2,,46,0
18059,note_on,,59,0,13,,,,,,,,,,,,,,,,12,,62,0
18059,note_on,,59,0,9,,,,,,,,,,,,,,,,7,,62,0
18059,note_on,,59,0,14,,,,,,,,,,,,,,,,13,,46,0
18059,note_on,,0,0,15,,,,,,,,,,,,,,,,15,,62,0
18060,note_on,,1,0,13,,,,,,,,,,,,,,,,12,,60,72
18060,note_on,,0,0,15,,,,,,,,,,,,,,,,15,,60,72
18060,note_on,,1,0,15,,,,,,,,,,,,,,,,15,,45,72
18060,note_on,,1,0,14,,,,,,,,,,,,,,,,13,,45,72
18060,note_on,,1,0,6,,,,,,,,,,,,,,,,2,,45,72
18060,note_on,,1,0,9,,,,,,,,,,,,,,,,7,,60,72
18119,note_on,,59,0,13,,,,,,,,,,,,,,,,12,,60,0
18119,note_on,,0,0,15,,,,,,,,,,,,,,,,15,,45,0
18119,note_on,,59,0,15,,,,,,,,,,,,,,,,15,,53,0
18119,note_on,,59,0,6,,,,,,,,,,,,,,,,2,,45,0
18119,note_on,,59,0,14,,,,,,,,,,,,,,,,13,,45,0
18119,note_on,,59,0,9,,,,,,,,,,,,,,,,7,,60,0
18119,note_on,,0,0,15,,,,,,,,,,,,,,,,15,,60,0
18120,note_on,,1,0,14,,,,,,,,,,,,,,,,13,,43,72
18120,note_on,,1,0,13,,,,,,,,,,,,,,,,12,,63,72
18120,note_on,,1,0,6,,,,,,,,,,,,,,,,2,,43,72
18120,note_on,,1,0,9,,,,,,,,,,,,,,,,7,,63,72
18120,note_on,,0,0,15,,,,,,,,,,,,,,,,15,,63,72
18120,note_on,,1,0,15,,,,,,,,,,,,,,,,15,,43,72
18120,note_on,,0,0,15,,,,,,,,,,,,,,,,15,,58,72
18179,note_on,,59,0,14,,,,,,,,,,,,,,,,13,,43,0
18179,note_on,,0,0,15,,,,,,,,,,,,,,,,15,,58,0
18179,note_on,,0,0,15,,,,,,,,,,,,,,,,15,,63,0
18179,note_on,,59,0,15,,,,,,,,,,,,,,,,15,,43,0
18179,note_on,,59,0,13,,,,,,,,,,,,,,,,12,,63,0
18179,note_on,,59,0,6,,,,,,,,,,,,,,,,2,,43,0
18179,note_on,,59,0,9,,,,,,,,,,,,,,,,7,,63,0
18180,note_on,,1,0,13,,,,,,,,,,,,,,,,12,,62,72
18180,note_on,,1,0,9,,,,,,,,,,,,,,,,7,,62,72
18180,note_on,,0,0,15,,,,,,,,,,,,,,,,15,,57,72
18180,note_on,,0,0,15,,,,,,,,,,,,,,,,15,,62,72
18180,note_on,,1,0,15,,,,,,,,,,,,,,,,15,,41,72
18180,note_on,,1,0,6,,,,,,,,,,,,,,,,2,,41,72
18180,note_on,,1,0,14,,,,,,,,,,,,,,,,13,,41,72
18239,note_on,,59,0,14,,,,,,,,,,,,,,,,13,,41,0
18239,note_on,,59,0,13,,,,,,,,,,,,,,,,12,,62,0
18239,note_on,,0,0,15,,,,,,,,,,,,,,,,15,,62,0
18239,note_on,,59,0,6,,,,,,,,,,,,,,,,2,,41,0
18239,note_on,,0,0,15,,,,,,,,,,,,,,,,15,,57,0
18239,note_on,,59,0,9,,,,,,,,,,,,,,,,7,,62,0
18239,note_on,,59,0,15,,,,,,,,,,,,,,,,15,,41,0
18240,note_on,,0,0,15,,,,,,,,,,,,,,,,15,,55,72
18240,note_on,,1,0,6,,,,,,,,,,,,,,,,2,,51,72
18240,note_on,,1,0,15,,,,,,,,,,,,,,,,15,,51,72
18240,note_on,,1,0,9,,,,,,,,,,,,,,,,7,,67,72
18240,note_on,,1,0,14,,,,,,,,,,,,,,,,13,,51,72
18240,note_on,,1,0,13,,,,,,,,,,,,,,,,12,,67,72
18240,note_on,,0,0,15,,,,,,,,,,,,,,,,15,,67,72
18299,note_on,,0,0,15,,,,,,,,,,,,,,,,15,,55,0
18299,note_on,,0,0,15,,,,,,,,,,,,,,,,15,,67,0
18299,note_on,,59,0,15,,,,,,,,,,,,,,,,15,,51,0
18299,note_on,,59,0,14,,,,,,,,,,,,,,,,13,,51,0
18299,note_on,,59,0,9,,,,,,,,,,,,,,,,7,,67,0
18299,note_on,,59,0,13,,,,,,,,,,,,,,,,12,,67,0
18299,note_on,,59,0,6,,,,,,,,,,,,,,,,2,,51,0
18300,note_on,,1,0,9,,,,,,,,,,,,,,,,7,,65,72
18300,note_on,,1,0,14,,,,,,,,,,,,,,,,13,,50,72
18300,note_on,,1,0,13,,,,,,,,,,,,,,,,12,,65,72
18300,note_on,,1,0,6,,,,,,,,,,,,,,,,2,,50,72
18300,note_on,,1,0,15,,,,,,,,,,,,,,,,15,,50,72
18300,note_on,,0,0,15,,,,,,,,,,,,,,,,15,,65,72
18300,note_on,,0,0,15,,,,,,,,,,,,,,,,15,,58,72
18359,note_on,,59,0,6,,,,,,,,,,,,,,,,2,,50,0
18359,note_on,,0,0,15,,,,,,,,,,,,,,,,15,,65,0
18359,note_on,,59,0,9,,,,,,,,,,,,,,,,7,,65,0
18359,note_on,,0,0,15,,,,,,,,,,,,,,,,15,,58,0
18359,note_on,,59,0,14,,,,,,,,,,,,,,,,13,,50,0
18359,note_on,,59,0,13,,,,,,,,,,,,,,,,12,,65,0
18359,note_on,,59,0,15,,,,,,,,,,,,,,,,15,,50,0
18360,note_on,,1,0,6,,,,,,,,,,,,,,,,2,,48,72
18360,note_on,,1,0,9,,,,,,,,,,,,,,,,7,,57,72
18360,note_on,,1,0,13,,,,,,,,,,,,,,,,12,,57,72
18360,note_on,,1,0,14,,,,,,,,,,,,,,,,13,,48,72
18360,note_on,,0,0,15,,,,,,,,,,,,,,,,15,,57,72
18360,note_on,,1,0,15,,,,,,,,,,,,,,,,15,,48,72
18360,note_on,,0,0,15,,,,,,,,,,,,,,,,15,,63,72
18419,note_on,,59,0,15,,,,,,,,,,,,,,,,15,,48,0
18419,note_on,,59,0,14,,,,,,,,,,,,,,,,13,,48,0
18419,note_on,,0,0,15,,,,,,,,,,,,,,,,15,,57,0
18419,note_on,,0,0,15,,,,,,,,,,,,,,,,15,,63,0
18419,note_on,,59,0,13,,,,,,,,,,,,,,,,12,,57,0
18419,note_on,,59,0,9,,,,,,,,,,,,,,,,7,,57,0
18419,note_on,,59,0,6,,,,,,,,,,,,,,,,2,,48,0
18420,note_on,,1,0,9,,,,,,,,,,,,,,,,7,,58,72
18420,note_on,,1,0,14,,,,,,,,,,,,,,,,13,,46,72
18420,note_on,,1,0,15,,,,,,,,,,,,,,,,15,,46,72
18420,note_on,,1,0,6,,,,,,,,,,,,,,,,2,,46,72
18420,note_on,,0,0,15,,,,,,,,,,,,,,,,15,,58,72
18420,note_on,,1,0,13,,,,,,,,,,,,,,,,12,,58,72
18420,note_on,,0,0,15,,,,,,,,,,,,,,,,15,,62,72
18479,note_on,,59,0,9,,,,,,,,,,,,,,,,7,,58,0
18479,note_on,,59,0,6,,,,,,,,,,,,,,,,2,,46,0
18479,note_on,,0,0,15,,,,,,,,,,,,,,,,15,,62,0
18479,note_on,,59,0,15,,,,,,,,,,,,,,,,15,,46,0
18479,note_on,,59,0,13,,,,,,,,,,,,,,,,12,,58,0
18479,note_on,,59,0,14,,,,,,,,,,,,,,,,13,,46,0
18479,note_on,,0,0,15,,,,,,,,,,,,,,,,15,,58,0
18480,note_on,,1,0,13,,,,,,,,,,,,,,,,12,,60,72
18480,note_on,,1,0,15,,,,,,,,,,,,,,,,15,,53,72
18480,note_on,,1,0,14,,,,,,,,,,,,,,,,13,,53,72
18480,note_on,,0,0,15,,,,,,,,,,,,,,,,15,,57,72
18480,note_on,,0,0,15,,,,,,,,,,,,,,,,15,,60,72
18480,note_on,,1,0,9,,,,,,,,,,,,,,,,7,,60,72
18480,note_on,,1,0,6,,,,,,,,,,,,,,,,2,,53,72
18539,note_on,,59,0,6,,,,,,,,,,,,,,,,2,,53,0
18539,note_on,,0,0,15,,,,,,,,,,,,,,,,15,,57,0
18539,note_on,,59,0,15,,,,,,,,,,,,,,,,15,,53,0
18539,note_on,,59,0,14,,,,,,,,,,,,,,,,13,,53,0
18540,note_on,,1,0,15,,,,,,,,,,,,,,,,15,,55,72
18540,note_on,,0,0,15,,,,,,,,,,,,,,,,15,,58,72
18540,note_on,,1,0,14,,,,,,,,,,,,,,,,13,,55,72
18540,note_on,,1,0,6,,,,,,,,,,,,,,,,2,,55,72
18599,note_on,,59,0,15,,,,,,,,,,,,,,,,15,,60,0
18599,note_on,,119,0,9,,,,,,,,,,,,,,,,7,,60,0
18599,note_on,,0,0,15,,,,,,,,,,,,,,,,15,,58,0
18599,note_on,,119,0,13,,,,,,,,,,,,,,,,12,,60,0
18599,note_on,,0,0,15,,,,,,,,,,,,,,,,15,,55,0
18599,note_on,,59,0,6,,,,,,,,,,,,,,,,2,,55,0
18599,note_on,,59,0,14,,,,,,,,,,,,,,,,13,,55,0
18600,note_on,,1,0,6,,,,,,,,,,,,,,,,2,,57,72
18600,note_on,,1,0,14,,,,,,,,,,,,,,,,13,,57,72
18600,note_on,,0,0,15,,,,,,,,,,,,,,,,15,,60,72
18600,note_on,,1,0,15,,,,,,,,,,,,,,,,15,,57,72
18659,note_on,,0,0,15,,,,,,,,,,,,,,,,15,,60,0
18659,note_on,,59,0,14,,,,,,,,,,,,,,,,13,,57,0
18659,note_on,,59,0,15,,,,,,,,,,,,,,,,15,,57,0
18659,note_on,,59,0,6,,,,,,,,,,,,,,,,2,,57,0
18660,note_on,,1,0,14,,,,,,,,,,,,,,,,13,,58,72
18660,note_on,,1021,0,11,,,,,,,,,,,,,,,,10,,65,72
18660,note_on,,1,0,6,,,,,,,,,,,,,,,,2,,58,72
18660,note_on,,1021,0,5,,,,,,,,,,,,,,,,1,,65,72
18660,note_on,,1021,0,7,,,,,,,,,,,,,,,,5,,65,72
18660,note_on,,2461,0,10,,,,,,,,,,,,,,,,8,,62,72
18660,note_on,,1,0,15,,,,,,,,,,,,,,,,15,,58,72
18660,note_on,,0,0,15,,,,,,,,,,,,,,,,15,,65,72
18660,note_on,,0,0,15,,,,,,,,,,,,,,,,15,,62,72
18719,note_on,,59,0,5,,,,,,,,,,,,,,,,1,,65,0
18719,note_on,,59,0,14,,,,,,,,,,,,,,,,13,,58,0
18719,note_on,,59,0,15,,,,,,,,,,,,,,,,15,,58,0
18719,note_on,,59,0,7,,,,,,,,,,,,,,,,5,,65,0
18719,note_on,,59,0,6,,,,,,,,,,,,,,,,2,,58,0
18719,note_on,,59,0,10,,,,,,,,,,,,,,,,8,,62,0
18719,note_on,,0,0,15,,,,,,,,,,,,,,,,15,,65,0
18719,note_on,,0,0,15,,,,,,,,,,,,,,,,15,,62,0
18719,note_on,,59,0,11,,,,,,,,,,,,,,,,10,,65,0
18720,note_on,,1,0,10,,,,,,,,,,,,,,,,8,,63,72
18720,note_on,,0,0,15,,,,,,,,,,,,,,,,15,,67,72
18720,note_on,,1,0,15,,,,,,,,,,,,,,,,15,,63,72
18720,note_on,,1,0,14,,,,,,,,,,,,,,,,13,,63,72
18720,note_on,,1,0,6,,,,,,,,,,,,,,,,2,,63,72
18720,note_on,,1,0,5,,,,,,,,,,,,,,,,1,,67,72
18720,note_on,,1,0,7,,,,,,,,,,,,,,,,5,,67,72
18720,note_on,,1,0,11,,,,,,,,,,,,,,,,10,,67,72
18779,note_on,,0,0,15,,,,,,,,,,,,,,,,15,,67,0
18779,note_on,,59,0,15,,,,,,,,,,,,,,,,15,,63,0
18779,note_on,,59,0,11,,,,,,,,,,,,,,,,10,,67,0
18779,note_on,,59,0,6,,,,,,,,,,,,,,,,2,,63,0
18779,note_on,,59,0,5,,,,,,,,,,,,,,,,1,,67,0
18779,note_on,,59,0,14,,,,,,,,,,,,,,,,13,,63,0
18779,note_on,,59,0,10,,,,,,,,,,,,,,,,8,,63,0
18779,note_on,,59,0,7,,,,,,,,,,,,,,,,5,,67,0
18780,note_on,,1,0,14,,,,,,,,,,,,,,,,13,,62,72
18780,note_on,,1,0,10,,,,,,,,,,,,,,,,8,,62,72
18780,note_on,,0,0,15,,,,,,,,,,,,,,,,15,,65,72
18780,note_on,,1,0,7,,,,,,,,,,,,,,,,5,,65,72
18780,note_on,,1,0,6,,,,,,,,,,,,,,,,2,,62,72
18780,note_on,,1,0,11,,,,,,,,,,,,,,,,10,,65,72
18780,note_on,,1,0,15,,,,,,,,,,,,,,,,15,,62,72
18780,note_on,,1,0,5,,,,,,,,,,,,,,,,1,,65,72
18839,note_on,,59,0,10,,,,,,,,,,,,,,,,8,,62,0
18839,note_on,,59,0,7,,,,,,,,,,,,,,,,5,,65,0
18839,note_on,,59,0,6,,,,,,,,,,,,,,,,2,,62,0
18839,note_on,,59,0,14,,,,,,,,,,,,,,,,13,,62,0
18839,note_on,,59,0,15,,,,,,,,,,,,,,,,15,,62,0
18839,note_on,,0,0,15,,,,,,,,,,,,,,,,15,,65,0
18839,note_on,,59,0,5,,,,,,,,,,,,,,,,1,,65,0
18839,note_on,,59,0,11,,,,,,,,,,,,,,,,10,,65,0
18840,note_on,,1,0,7,,,,,,,,,,,,,,,,5,,70,72
18840,note_on,,1,0,5,,,,,,,,,,,,,,,,1,,70,72
18840,note_on,,1,0,11,,,,,,,,,,,,,,,,10,,70,72
18899,note_on,,59,0,7,,,,,,,,,,,,,,,,5,,70,0
18899,note_on,,59,0,11,,,,,,,,,,,,,,,,10,,70,0
18899,note_on,,59,0,5,,,,,,,,,,,,,,,,1,,70,0
18900,note_on,,1,0,5,,,,,,,,,,,,,,,,1,,69,72
18900,note_on,,61,0,6,,,,,,,,,,,,,,,,2,,60,72
18900,note_on,,61,0,10,,,,,,,,,,,,,,,,8,,60,72
18900,note_on,,1,0,7,,,,,,,,,,,,,,,,5,,69,72
18900,note_on,,61,0,14,,,,,,,,,,,,,,,,13,,60,72
18900,note_on,,0,0,15,,,,,,,,,,,,,,,,15,,69,72
18900,note_on,,61,0,15,,,,,,,,,,,,,,,,15,,60,72
18900,note_on,,1,0,11,,,,,,,,,,,,,,,,10,,69,72
18900,note_on,,0,0,15,,,,,,,,,,,,,,,,15,,63,72
18959,note_on,,59,0,15,,,,,,,,,,,,,,,,15,,60,0
18959,note_on,,59,0,7,,,,,,,,,,,,,,,,5,,69,0
18959,note_on,,59,0,14,,,,,,,,,,,,,,,,13,,60,0
18959,note_on,,0,0,15,,,,,,,,,,,,,,,,15,,63,0
18959,note_on,,0,0,15,,,,,,,,,,,,,,,,15,,69,0
18959,note_on,,59,0,11,,,,,,,,,,,,,,,,10,,69,0
18959,note_on,,59,0,5,,,,,,,,,,,,,,,,1,,69,0
18959,note_on,,59,0,10,,,,,,,,,,,,,,,,8,,60,0
18959,note_on,,59,0,6,,,,,,,,,,,,,,,,2,,60,0
18960,note_on,,1,0,6,,,,,,,,,,,,,,,,2,,58,72
18960,note_on,,1,0,14,,,,,,,,,,,,,,,,13,,58,72
18960,note_on,,1,0,11,,,,,,,,,,,,,,,,10,,74,72
18960,note_on,,1,0,5,,,,,,,,,,,,,,,,1,,74,72
18960,note_on,,1,0,7,,,,,,,,,,,,,,,,5,,74,72
18960,note_on,,1,0,15,,,,,,,,,,,,,,,,15,,70,72
18960,note_on,,0,0,15,,,,,,,,,,,,,,,,15,,58,72
18960,note_on,,0,0,15,,,,,,,,,,,,,,,,15,,62,72
18960,note_on,,1,0,10,,,,,,,,,,,,,,,,8,,58,72
19019,note_on,,59,0,14,,,,,,,,,,,,,,,,13,,58,0
19019,note_on,,59,0,11,,,,,,,,,,,,,,,,10,,74,0
19019,note_on,,59,0,15,,,,,,,,,,,,,,,,15,,70,0
19019,note_on,,0,0,15,,,,,,,,,,,,,,,,15,,58,0
19019,note_on,,0,0,15,,,,,,,,,,,,,,,,15,,62,0
19019,note_on,,59,0,5,,,,,,,,,,,,,,,,1,,74,0
19019,note_on,,59,0,10,,,,,,,,,,,,,,,,8,,58,0
19019,note_on,,59,0,6,,,,,,,,,,,,,,,,2,,58,0
19019,note_on,,59,0,7,,,,,,,,,,,,,,,,5,,74,0
19020,note_on,,1,0,6,,,,,,,,,,,,,,,,2,,57,72
19020,note_on,,0,0,15,,,,,,,,,,,,,,,,15,,60,72
19020,note_on,,0,0,15,,,,,,,,,,,,,,,,15,,65,72
19020,note_on,,1,0,15,,,,,,,,,,,,,,,,15,,57,72
19020,note_on,,1,0,11,,,,,,,,,,,,,,,,10,,72,72
19020,note_on,,1,0,14,,,,,,,,,,,,,,,,13,,57,72
19020,note_on,,1,0,7,,,,,,,,,,,,,,,,5,,72,72
19020,note_on,,1,0,10,,,,,,,,,,,,,,,,8,,57,72
19020,note_on,,1,0,5,,,,,,,,,,,,,,,,1,,72,72
19079,note_on,,59,0,5,,,,,,,,,,,,,,,,1,,72,0
19079,note_on,,59,0,11,,,,,,,,,,,,,,,,10,,72,0
19079,note_on,,59,0,14,,,,,,,,,,,,,,,,13,,57,0
19079,note_on,,0,0,15,,,,,,,,,,,,,,,,15,,60,0
19079,note_on,,0,0,15,,,,,,,,,,,,,,,,15,,65,0
19079,note_on,,59,0,15,,,,,,,,,,,,,,,,15,,57,0
19079,note_on,,59,0,6,,,,,,,,,,,,,,,,2,,57,0
19079,note_on,,59,0,7,,,,,,,,,,,,,,,,5,,72,0
19079,note_on,,59,0,10,,,,,,,,,,,,,,,,8,,57,0
19080,note_on,,1,0,7,,,,,,,,,,,,,,,,5,,75,72
19080,note_on,,1,0,5,,,,,,,,,,,,,,,,1,,75,72
19080,note_on,,1,0,6,,,,,,,,,,,,,,,,2,,55,72
19080,note_on,,1,0,14,,,,,,,,,,,,,,,,13,,55,72
19080,note_on,,1,0,15,,,,,,,,,,,,,,,,15,,55,72
19080,note_on,,0,0,15,,,,,,,,,,,,,,,,15,,63,72
19080,note_on,,0,0,15,,,,,,,,,,,,,,,,15,,58,72
19080,note_on,,1,0,10,,,,,,,,,,,,,,,,8,,55,72
19080,note_on,,1,0,11,,,,,,,,,,,,,,,,10,,75,72
19139,note_on,,59,0,11,,,,,,,,,,,,,,,,10,,75,0
19139,note_on,,59,0,7,,,,,,,,,,,,,,,,5,,75,0
19139,note_on,,0,0,15,,,,,,,,,,,,,,,,15,,63,0
19139,note_on,,0,0,15,,,,,,,,,,,,,,,,15,,58,0
19139,note_on,,59,0,6,,,,,,,,,,,,,,,,2,,55,0
19139,note_on,,59,0,10,,,,,,,,,,,,,,,,8,,55,0
19139,note_on,,59,0,15,,,,,,,,,,,,,,,,15,,55,0
19139,note_on,,59,0,14,,,,,,,,,,,,,,,,13,,55,0
19139,note_on,,59,0,5,,,,,,,,,,,,,,,,1,,75,0
19140,note_on,,1,0,14,,,,,,,,,,,,,,,,13,,53,72
19140,note_on,,0,0,15,,,,,,,,,,,,,,,,15,,65,72
19140,note_on,,1,0,7,,,,,,,,,,,,,,,,5,,74,72
19140,note_on,,0,0,15,,,,,,,,,,,,,,,,15,,62,72
19140,note_on,,1,0,6,,,,,,,,,,,,,,,,2,,53,72
19140,note_on,,1,0,15,,,,,,,,,,,,,,,,15,,53,72
19140,note_on,,1,0,10,,,,,,,,,,,,,,,,8,,53,72
19140,note_on,,1,0,5,,,,,,,,,,,,,,,,1,,74,72
19140,note_on,,1,0,11,,,,,,,,,,,,,,,,10,,74,72
19199,note_on,,0,0,15,,,,,,,,,,,,,,,,15,,65,0
19199,note_on,,0,0,15,,,,,,,,,,,,,,,,15,,62,0
19199,note_on,,59,0,15,,,,,,,,,,,,,,,,15,,53,0
19199,note_on,,59,0,11,,,,,,,,,,,,,,,,10,,74,0
19199,note_on,,59,0,6,,,,,,,,,,,,,,,,2,,53,0
19199,note_on,,59,0,5,,,,,,,,,,,,,,,,1,,74,0
19199,note_on,,59,0,14,,,,,,,,,,,,,,,,13,,53,0
19199,note_on,,59,0,7,,,,,,,,,,,,,,,,5,,74,0
19199,note_on,,59,0,10,,,,,,,,,,,,,,,,8,,53,0
19200,note_on,,0,0,15,,,,,,,,,,,,,,,,15,,67,72
19200,note_on,,1,0,6,,,,,,,,,,,,,,,,2,,51,72
19200,note_on,,0,0,15,,,,,,,,,,,,,,,,15,,70,72
19200,note_on,,1,0,11,,,,,,,,,,,,,,,,10,,79,72
19200,note_on,,1,0,5,,,,,,,,,,,,,,,,1,,79,72
19200,note_on,,0,0,15,,,,,,,,,,,,,,,,15,,63,72
19200,note_on,,1,0,15,,,,,,,,,,,,,,,,15,,51,72
19200,note_on,,1,0,7,,,,,,,,,,,,,,,,5,,79,72
19200,note_on,,1,0,14,,,,,,,,,,,,,,,,13,,51,72
19200,note_on,,1,0,10,,,,,,,,,,,,,,,,8,,51,72
19259,note_on,,59,0,5,,,,,,,,,,,,,,,,1,,79,0
19259,note_on,,59,0,15,,,,,,,,,,,,,,,,15,,51,0
19259,note_on,,59,0,6,,,,,,,,,,,,,,,,2,,51,0
19259,note_on,,0,0,15,,,,,,,,,,,,,,,,15,,67,0
19259,note_on,,0,0,15,,,,,,,,,,,,,,,,15,,63,0
19259,note_on,,59,0,10,,,,,,,,,,,,,,,,8,,51,0
19259,note_on,,59,0,11,,,,,,,,,,,,,,,,10,,79,0
19259,note_on,,59,0,14,,,,,,,,,,,,,,,,13,,51,0
19259,note_on,,59,0,7,,,,,,,,,,,,,,,,5,,79,0
19260,note_on,,1,0,7,,,,,,,,,,,,,,,,5,,77,72
19260,note_on,,1,0,11,,,,,,,,,,,,,,,,10,,77,72
19260,note_on,,1,0,14,,,,,,,,,,,,,,,,13,,50,72
19260,note_on,,1,0,5,,,,,,,,,,,,,,,,1,,77,72
19260,note_on,,1,0,6,,,,,,,,,,,,,,,,2,,50,72
19260,note_on,,1,0,10,,,,,,,,,,,,,,,,8,,50,72
19260,note_on,,1,0,15,,,,,,,,,,,,,,,,15,,50,72
19260,note_on,,0,0,15,,,,,,,,,,,,,,,,15,,65,72
19319,note_on,,59,0,7,,,,,,,,,,,,,,,,5,,77,0
19319,note_on,,59,0,6,,,,,,,,,,,,,,,,2,,50,0
19319,note_on,,0,0,15,,,,,,,,,,,,,,,,15,,65,0
19319,note_on,,0,0,15,,,,,,,,,,,,,,,,15,,50,0
19319,note_on,,59,0,14,,,,,,,,,,,,,,,,13,,50,0
19319,note_on,,59,0,5,,,,,,,,,,,,,,,,1,,77,0
19319,note_on,,59,0,15,,,,,,,,,,,,,,,,15,,70,0
19319,note_on,,59,0,10,,,,,,,,,,,,,,,,8,,50,0
19319,note_on,,59,0,11,,,,,,,,,,,,,,,,10,,77,0
19320,note_on,,1,0,14,,,,,,,,,,,,,,,,13,,48,72
19320,note_on,,1,0,7,,,,,,,,,,,,,,,,5,,69,72
19320,note_on,,0,0,15,,,,,,,,,,,,,,,,15,,72,72
19320,note_on,,1,0,15,,,,,,,,,,,,,,,,15,,48,72
19320,note_on,,1,0,11,,,,,,,,,,,,,,,,10,,69,72
19320,note_on,,0,0,15,,,,,,,,,,,,,,,,15,,63,72
19320,note_on,,1,0,5,,,,,,,,,,,,,,,,1,,69,72
19320,note_on,,0,0,15,,,,,,,,,,,,,,,,15,,69,72
19320,note_on,,1,0,6,,,,,,,,,,,,,,,,2,,48,72
19320,note_on,,1,0,10,,,,,,,,,,,,,,,,8,,48,72
19379,note_on,,59,0,15,,,,,,,,,,,,,,,,15,,48,0
19379,note_on,,59,0,14,,,,,,,,,,,,,,,,13,,48,0
19379,note_on,,0,0,15,,,,,,,,,,,,,,,,15,,72,0
19379,note_on,,59,0,5,,,,,,,,,,,,,,,,1,,69,0
19379,note_on,,0,0,15,,,,,,,,,,,,,,,,15,,63,0
19379,note_on,,59,0,7,,,,,,,,,,,,,,,,5,,69,0
19379,note_on,,59,0,10,,,,,,,,,,,,,,,,8,,48,0
19379,note_on,,59,0,11,,,,,,,,,,,,,,,,10,,69,0
19379,note_on,,59,0,6,,,,,,,,,,,,,,,,2,,48,0
19379,note_on,,0,0,15,,,,,,,,,,,,,,,,15,,69,0
19380,note_on,,1,0,5,,,,,,,,,,,,,,,,1,,70,72
19380,note_on,,1,0,7,,,,,,,,,,,,,,,,5,,70,72
19380,note_on,,0,0,15,,,,,,,,,,,,,,,,15,,70,72
19380,note_on,,1,0,14,,,,,,,,,,,,,,,,13,,46,72
19380,note_on,,1,0,15,,,,,,,,,,,,,,,,15,,46,72
19380,note_on,,1,0,11,,,,,,,,,,,,,,,,10,,70,72
19380,note_on,,1,0,10,,,,,,,,,,,,,,,,8,,46,72
19380,note_on,,1,0,6,,,,,,,,,,,,,,,,2,,46,72
19380,note_on,,0,0,15,,,,,,,,,,,,,,,,15,,65,72
19380,note_on,,0,0,15,,,,,,,,,,,,,,,,15,,74,72
19439,note_on,,59,0,5,,,,,,,,,,,,,,,,1,,70,0
19439,note_on,,59,0,10,,,,,,,,,,,,,,,,8,,46,0
19439,note_on,,0,0,15,,,,,,,,,,,,,,,,15,,65,0
19439,note_on,,59,0,6,,,,,,,,,,,,,,,,2,,46,0
19439,note_on,,59,0,15,,,,,,,,,,,,,,,,15,,46,0
19439,note_on,,59,0,11,,,,,,,,,,,,,,,,10,,70,0
19439,note_on,,59,0,14,,,,,,,,,,,,,,,,13,,46,0
19439,note_on,,0,0,15,,,,,,,,,,,,,,,,15,,70,0
19439,note_on,,59,0,7,,,,,,,,,,,,,,,,5,,70,0
19439,note_on,,0,0,15,,,,,,,,,,,,,,,,15,,74,0
19440,note_on,,1,0,14,,,,,,,,,,,,,,,,13,,53,72
19440,note_on,,0,0,15,,,,,,,,,,,,,,,,15,,65,72
19440,note_on,,0,0,15,,,,,,,,,,,,,,,,15,,72,72
19440,note_on,,0,0,15,,,,,,,,,,,,,,,,15,,53,72
19440,note_on,,1,0,15,,,,,,,,,,,,,,,,15,,69,72
19440,note_on,,1,0,11,,,,,,,,,,,,,,,,10,,72,72
19440,note_on,,1,0,6,,,,,,,,,,,,,,,,2,,53,72
19440,note_on,,1,0,10,,,,,,,,,,,,,,,,8,,53,72
19440,note_on,,1,0,5,,,,,,,,,,,,,,,,1,,72,72
19440,note_on,,1,0,7,,,,,,,,,,,,,,,,5,,72,72
19499,note_on,,59,0,15,,,,,,,,,,,,,,,,15,,53,0
19499,note_on,,59,0,6,,,,,,,,,,,,,,,,2,,53,0
19499,note_on,,59,0,14,,,,,,,,,,,,,,,,13,,53,0
19500,note_on,,1,0,6,,,,,,,,,,,,,,,,2,,55,72
19500,note_on,,1,0,14,,,,,,,,,,,,,,,,13,,55,72
19500,note_on,,1,0,15,,,,,,,,,,,,,,,,15,,55,72
19559,note_on,,59,0,15,,,,,,,,,,,,,,,,15,,69,0
19559,note_on,,0,0,15,,,,,,,,,,,,,,,,15,,72,0
19559,note_on,,0,0,15,,,,,,,,,,,,,,,,15,,65,0
19559,note_on,,0,0,15,,,,,,,,,,,,,,,,15,,55,0
19559,note_on,,59,0,6,,,,,,,,,,,,,,,,2,,55,0
19559,note_on,,119,0,10,,,,,,,,,,,,,,,,8,,53,0
19559,note_on,,119,0,11,,,,,,,,,,,,,,,,10,,72,0
19559,note_on,,59,0,14,,,,,,,,,,,,,,,,13,,55,0
19559,note_on,,119,0,7,,,,,,,,,,,,,,,,5,,72,0
19559,note_on,,119,0,5,,,,,,,,,,,,,,,,1,,72,0
19560,note_on,,1,0,14,,,,,,,,,,,,,,,,13,,57,72
19560,note_on,,1,0,6,,,,,,,,,,,,,,,,2,,57,72
19560,note_on,,0,0,15,,,,,,,,,,,,,,,,15,,60,72
19560,note_on,,0,0,15,,,,,,,,,,,,,,,,15,,65,72
19560,note_on,,0,0,15,,,,,,,,,,,,,,,,15,,72,72
19560,note_on,,1,0,15,,,,,,,,,,,,,,,,15,,57,72
19560,note_on,,2401,0,12,,,,,,,,,,,,,,,,11,,72,72
19560,note_on,,961,0,9,,,,,,,,,,,,,,,,7,,60,72
19619,note_on,,59,0,12,,,,,,,,,,,,,,,,11,,72,0
19619,note_on,,59,0,14,,,,,,,,,,,,,,,,13,,57,0
19619,note_on,,59,0,6,,,,,,,,,,,,,,,,2,,57,0
19619,note_on,,59,0,9,,,,,,,,,,,,,,,,7,,60,0
19619,note_on,,0,0,15,,,,,,,,,,,,,,,,15,,60,0
19619,note_on,,0,0,15,,,,,,,,,,,,,,,,15,,65,0
19619,note_on,,0,0,15,,,,,,,,,,,,,,,,15,,72,0
19619,note_on,,59,0,15,,,,,,,,,,,,,,,,15,,57,0
19620,note_on,,1,0,9,,,,,,,,,,,,,,,,7,,63,72
19620,note_on,,1,0,14,,,,,,,,,,,,,,,,13,,53,72
19620,note_on,,1,0,15,,,,,,,,,,,,,,,,15,,65,72
19620,note_on,,0,0,15,,,,,,,,,,,,,,,,15,,53,72
19620,note_on,,1,0,6,,,,,,,,,,,,,,,,2,,53,72
19620,note_on,,0,0,15,,,,,,,,,,,,,,,,15,,69,72
19620,note_on,,1,0,12,,,,,,,,,,,,,,,,11,,75,72
19679,note_on,,59,0,14,,,,,,,,,,,,,,,,13,,53,0
19679,note_on,,59,0,15,,,,,,,,,,,,,,,,15,,65,0
19679,note_on,,0,0,15,,,,,,,,,,,,,,,,15,,53,0
19679,note_on,,59,0,12,,,,,,,,,,,,,,,,11,,75,0
19679,note_on,,59,0,9,,,,,,,,,,,,,,,,7,,63,0
19679,note_on,,59,0,6,,,,,,,,,,,,,,,,2,,53,0
19679,note_on,,0,0,15,,,,,,,,,,,,,,,,15,,69,0
19680,note_on,,1,0,15,,,,,,,,,,,,,,,,15,,58,72
19680,note_on,,0,0,15,,,,,,,,,,,,,,,,15,,62,72
19680,note_on,,1,0,12,,,,,,,,,,,,,,,,11,,74,72
19680,note_on,,1,0,9,,,,,,,,,,,,,,,,7,,62,72
19680,note_on,,0,0,15,,,,,,,,,,,,,,,,15,,65,72
19680,note_on,,1,0,6,,,,,,,,,,,,,,,,2,,58,72
19680,note_on,,1,0,14,,,,,,,,,,,,,,,,13,,58,72
19709,note_on,,29,0,12,,,,,,,,,,,,,,,,11,,74,0
19709,note_on,,29,0,9,,,,,,,,,,,,,,,,7,,62,0
19710,note_on,,1,0,12,,,,,,,,,,,,,,,,11,,72,72
19710,note_on,,1,0,9,,,,,,,,,,,,,,,,7,,60,72
19739,note_on,,59,0,6,,,,,,,,,,,,,,,,2,,58,0
19739,note_on,,29,0,9,,,,,,,,,,,,,,,,7,,60,0
19739,note_on,,29,0,12,,,,,,,,,,,,,,,,11,,72,0
19739,note_on,,59,0,14,,,,,,,,,,,,,,,,13,,58,0
19739,note_on,,59,0,15,,,,,,,,,,,,,,,,15,,58,0
19740,note_on,,1,0,6,,,,,,,,,,,,,,,,2,,46,72
19740,note_on,,1,0,12,,,,,,,,,,,,,,,,11,,70,72
19740,note_on,,1,0,15,,,,,,,,,,,,,,,,15,,46,72
19740,note_on,,1,0,14,,,,,,,,,,,,,,,,13,,46,72
19740,note_on,,1,0,9,,,,,,,,,,,,,,,,7,,58,72
19769,note_on,,29,0,9,,,,,,,,,,,,,,,,7,,58,0
19769,note_on,,29,0,12,,,,,,,,,,,,,,,,11,,70,0
19770,note_on,,1,0,9,,,,,,,,,,,,,,,,7,,62,72
19770,note_on,,1,0,12,,,,,,,,,,,,,,,,11,,74,72
19799,note_on,,29,0,12,,,,,,,,,,,,,,,,11,,74,0
19799,note_on,,59,0,14,,,,,,,,,,,,,,,,13,,46,0
19799,note_on,,0,0,15,,,,,,,,,,,,,,,,15,,46,0
19799,note_on,,0,0,15,,,,,,,,,,,,,,,,15,,62,0
19799,note_on,,59,0,6,,,,,,,,,,,,,,,,2,,46,0
19799,note_on,,29,0,9,,,,,,,,,,,,,,,,7,,62,0
19799,note_on,,59,0,15,,,,,,,,,,,,,,,,15,,65,0
19800,note_on,,1,0,9,,,,,,,,,,,,,,,,7,,60,72
19800,note_on,,1,0,15,,,,,,,,,,,,,,,,15,,45,72
19800,note_on,,0,0,15,,,,,,,,,,,,,,,,15,,72,72
19800,note_on,,0,0,15,,,,,,,,,,,,,,,,15,,65,72
19800,note_on,,2641,0,8,,,,,,,,,,,,,,,,6,,65,72
19800,note_on,,1,0,12,,,,,,,,,,,,,,,,11,,72,72
19800,note_on,,1,0,14,,,,,,,,,,,,,,,,13,,45,72
19800,note_on,,1,0,6,,,,,,,,,,,,,,,,2,,45,72
19800,note_on,,241,0,11,,,,,,,,,,,,,,,,10,,77,72
19829,note_on,,29,0,9,,,,,,,,,,,,,,,,7,,60,0
19829,note_on,,29,0,12,,,,,,,,,,,,,,,,11,,72,0
19830,note_on,,1,0,9,,,,,,,,,,,,,,,,7,,58,72
19830,note_on,,1,0,12,,,,,,,,,,,,,,,,11,,70,72
19859,note_on,,29,0,12,,,,,,,,,,,,,,,,11,,70,0
19859,note_on,,59,0,14,,,,,,,,,,,,,,,,13,,45,0
19859,note_on,,29,0,9,,,,,,,,,,,,,,,,7,,58,0
19859,note_on,,59,0,6,,,,,,,,,,,,,,,,2,,45,0
19859,note_on,,59,0,15,,,,,,,,,,,,,,,,15,,45,0
19859,note_on,,0,0,15,,,,,,,,,,,,,,,,15,,65,0
19859,note_on,,59,0,11,,,,,,,,,,,,,,,,10,,77,0
19859,note_on,,59,0,8,,,,,,,,,,,,,,,,6,,65,0
19860,note_on,,1,0,8,,,,,,,,,,,,,,,,6,,65,72
19860,note_on,,0,0,15,,,,,,,,,,,,,,,,15,,69,72
19860,note_on,,1,0,15,,,,,,,,,,,,,,,,15,,41,72
19860,note_on,,1,0,11,,,,,,,,,,,,,,,,10,,77,72
19860,note_on,,1,0,12,,,,,,,,,,,,,,,,11,,69,72
19860,note_on,,1,0,14,,,,,,,,,,,,,,,,13,,41,72
19860,note_on,,1,0,9,,,,,,,,,,,,,,,,7,,57,72
19860,note_on,,1,0,6,,,,,,,,,,,,,,,,2,,41,72
19889,note_on,,29,0,9,,,,,,,,,,,,,,,,7,,57,0
19889,note_on,,29,0,12,,,,,,,,,,,,,,,,11,,69,0
19890,note_on,,1,0,9,,,,,,,,,,,,,,,,7,,60,72
19890,note_on,,1,0,12,,,,,,,,,,,,,,,,11,,72,72
19919,note_on,,29,0,9,,,,,,,,,,,,,,,,7,,60,0
19919,note_on,,59,0,8,,,,,,,,,,,,,,,,6,,65,0
19919,note_on,,59,0,11,,,,,,,,,,,,,,,,10,,77,0
19919,note_on,,59,0,6,,,,,,,,,,,,,,,,2,,41,0
19919,note_on,,29,0,12,,,,,,,,,,,,,,,,11,,72,0
19919,note_on,,59,0,15,,,,,,,,,,,,,,,,15,,72,0
19919,note_on,,0,0,15,,,,,,,,,,,,,,,,15,,41,0
19919,note_on,,0,0,15,,,,,,,,,,,,,,,,15,,69,0
19919,note_on,,59,0,14,,,,,,,,,,,,,,,,13,,41,0
19920,note_on,,1,0,14,,,,,,,,,,,,,,,,13,,46,72
19920,note_on,,1,0,8,,,,,,,,,,,,,,,,6,,65,72
19920,note_on,,1,0,15,,,,,,,,,,,,,,,,15,,46,72
19920,note_on,,1,0,11,,,,,,,,,,,,,,,,10,,77,72
19920,note_on,,1,0,12,,,,,,,,,,,,,,,,11,,74,72
19920,note_on,,0,0,15,,,,,,,,,,,,,,,,15,,74,72
19920,note_on,,1,0,6,,,,,,,,,,,,,,,,2,,46,72
19920,note_on,,0,0,15,,,,,,,,,,,,,,,,15,,65,72
19920,note_on,,0,0,15,,,,,,,,,,,,,,,,15,,70,72
19920,note_on,,1,0,9,,,,,,,,,,,,,,,,7,,62,72
19949,note_on,,29,0,12,,,,,,,,,,,,,,,,11,,74,0
19949,note_on,,29,0,9,,,,,,,,,,,,,,,,7,,62,0
19950,note_on,,1,0,9,,,,,,,,,,,,,,,,7,,60,72
19950,note_on,,1,0,12,,,,,,,,,,,,,,,,11,,72,72
19979,note_on,,29,0,9,,,,,,,,,,,,,,,,7,,60,0
19979,note_on,,29,0,12,,,,,,,,,,,,,,,,11,,72,0
19979,note_on,,59,0,15,,,,,,,,,,,,,,,,15,,46,0
19979,note_on,,59,0,6,,,,,,,,,,,,,,,,2,,46,0
19979,note_on,,59,0,14,,,,,,,,,,,,,,,,13,,46,0
19980,note_on,,1,0,12,,,,,,,,,,,,,,,,11,,70,72
19980,note_on,,1,0,6,,,,,,,,,,,,,,,,2,,58,72
19980,note_on,,1,0,15,,,,,,,,,,,,,,,,15,,58,72
19980,note_on,,1,0,9,,,,,,,,,,,,,,,,7,,58,72
19980,note_on,,1,0,14,,,,,,,,,,,,,,,,13,,58,72
20009,note_on,,29,0,12,,,,,,,,,,,,,,,,11,,70,0
20009,note_on,,29,0,9,,,,,,,,,,,,,,,,7,,58,0
20010,note_on,,1,0,12,,,,,,,,,,,,,,,,11,,74,72
20010,note_on,,1,0,9,,,,,,,,,,,,,,,,7,,62,72
20039,note_on,,59,0,14,,,,,,,,,,,,,,,,13,,58,0
20039,note_on,,59,0,6,,,,,,,,,,,,,,,,2,,58,0
20039,note_on,,119,0,8,,,,,,,,,,,,,,,,6,,65,0
20039,note_on,,59,0,15,,,,,,,,,,,,,,,,15,,74,0
20039,note_on,,0,0,15,,,,,,,,,,,,,,,,15,,70,0
20039,note_on,,0,0,15,,,,,,,,,,,,,,,,15,,65,0
20039,note_on,,0,0,15,,,,,,,,,,,,,,,,15,,58,0
20039,note_on,,29,0,12,,,,,,,,,,,,,,,,11,,74,0
20039,note_on,,119,0,11,,,,,,,,,,,,,,,,10,,77,0
20039,note_on,,29,0,9,,,,,,,,,,,,,,,,7,,62,0
20040,note_on,,1,0,14,,,,,,,,,,,,,,,,13,,57,72
20040,note_on,,1,0,9,,,,,,,,,,,,,,,,7,,60,72
20040,note_on,,1,0,8,,,,,,,,,,,,,,,,6,,65,72
20040,note_on,,1,0,15,,,,,,,,,,,,,,,,15,,57,72
20040,note_on,,0,0,15,,,,,,,,,,,,,,,,15,,65,72
20040,note_on,,0,0,15,,,,,,,,,,,,,,,,15,,72,72
20040,note_on,,1441,0,13,,,,,,,,,,,,,,,,12,,65,72
20040,note_on,,1,0,6,,,,,,,,,,,,,,,,2,,57,72
20040,note_on,,1,0,11,,,,,,,,,,,,,,,,10,,65,72
20040,note_on,,1,0,12,,,,,,,,,,,,,,,,11,,72,72
20069,note_on,,29,0,12,,,,,,,,,,,,,,,,11,,72,0
20069,note_on,,29,0,9,,,,,,,,,,,,,,,,7,,60,0
20070,note_on,,1,0,9,,,,,,,,,,,,,,,,7,,62,72
20070,note_on,,1,0,12,,,,,,,,,,,,,,,,11,,74,72
20099,note_on,,29,0,9,,,,,,,,,,,,,,,,7,,62,0
20099,note_on,,59,0,14,,,,,,,,,,,,,,,,13,,57,0
20099,note_on,,29,0,12,,,,,,,,,,,,,,,,11,,74,0
20099,note_on,,59,0,13,,,,,,,,,,,,,,,,12,,65,0
20099,note_on,,59,0,6,,,,,,,,,,,,,,,,2,,57,0
20099,note_on,,59,0,15,,,,,,,,,,,,,,,,15,,57,0
20099,note_on,,0,0,15,,,,,,,,,,,,,,,,15,,72,0
20100,note_on,,1,0,6,,,,,,,,,,,,,,,,2,,45,72
20100,note_on,,1,0,12,,,,,,,,,,,,,,,,11,,75,72
20100,note_on,,1,0,14,,,,,,,,,,,,,,,,13,,45,72
20100,note_on,,1,0,15,,,,,,,,,,,,,,,,15,,45,72
20100,note_on,,1,0,13,,,,,,,,,,,,,,,,12,,65,72
20100,note_on,,1,0,9,,,,,,,,,,,,,,,,7,,63,72
20100,note_on,,0,0,15,,,,,,,,,,,,,,,,15,,77,72
20129,note_on,,29,0,9,,,,,,,,,,,,,,,,7,,63,0
20129,note_on,,29,0,12,,,,,,,,,,,,,,,,11,,75,0
20130,note_on,,1,0,12,,,,,,,,,,,,,,,,11,,72,72
20130,note_on,,1,0,9,,,,,,,,,,,,,,,,7,,60,72
20159,note_on,,119,0,8,,,,,,,,,,,,,,,,6,,65,0
20159,note_on,,59,0,13,,,,,,,,,,,,,,,,12,,65,0
20159,note_on,,29,0,9,,,,,,,,,,,,,,,,7,,60,0
20159,note_on,,0,0,15,,,,,,,,,,,,,,,,15,,77,0
20159,note_on,,0,0,15,,,,,,,,,,,,,,,,15,,45,0
20159,note_on,,59,0,6,,,,,,,,,,,,,,,,2,,45,0
20159,note_on,,59,0,14,,,,,,,,,,,,,,,,13,,45,0
20159,note_on,,59,0,15,,,,,,,,,,,,,,,,15,,65,0
20159,note_on,,29,0,12,,,,,,,,,,,,,,,,11,,72,0
20159,note_on,,119,0,11,,,,,,,,,,,,,,,,10,,65,0
20160,note_on,,0,0,15,,,,,,,,,,,,,,,,15,,70,72
20160,note_on,,1,0,15,,,,,,,,,,,,,,,,15,,46,72
20160,note_on,,1,0,9,,,,,,,,,,,,,,,,7,,62,72
20160,note_on,,1,0,12,,,,,,,,,,,,,,,,11,,74,72
20160,note_on,,0,0,15,,,,,,,,,,,,,,,,15,,77,72
20160,note_on,,0,0,15,,,,,,,,,,,,,,,,15,,65,72
20160,note_on,,0,0,15,,,,,,,,,,,,,,,,15,,74,72
20160,note_on,,1,0,13,,,,,,,,,,,,,,,,12,,65,72
20160,note_on,,1,0,6,,,,,,,,,,,,,,,,2,,46,72
20160,note_on,,1,0,14,,,,,,,,,,,,,,,,13,,46,72
20189,note_on,,29,0,9,,,,,,,,,,,,,,,,7,,62,0
20189,note_on,,29,0,12,,,,,,,,,,,,,,,,11,,74,0
20190,note_on,,1,0,12,,,,,,,,,,,,,,,,11,,72,72
20190,note_on,,1,0,9,,,,,,,,,,,,,,,,7,,60,72
20219,note_on,,59,0,6,,,,,,,,,,,,,,,,2,,46,0
20219,note_on,,29,0,9,,,,,,,,,,,,,,,,7,,60,0
20219,note_on,,59,0,15,,,,,,,,,,,,,,,,15,,46,0
20219,note_on,,29,0,12,,,,,,,,,,,,,,,,11,,72,0
20219,note_on,,59,0,14,,,,,,,,,,,,,,,,13,,46,0
20220,note_on,,1,0,12,,,,,,,,,,,,,,,,11,,70,72
20220,note_on,,1,0,15,,,,,,,,,,,,,,,,15,,50,72
20220,note_on,,1,0,6,,,,,,,,,,,,,,,,2,,50,72
20220,note_on,,1,0,9,,,,,,,,,,,,,,,,7,,58,72
20220,note_on,,1,0,14,,,,,,,,,,,,,,,,13,,50,72
20249,note_on,,29,0,9,,,,,,,,,,,,,,,,7,,58,0
20249,note_on,,29,0,12,,,,,,,,,,,,,,,,11,,70,0
20250,note_on,,1,0,12,,,,,,,,,,,,,,,,11,,74,72
20250,note_on,,1,0,9,,,,,,,,,,,,,,,,7,,62,72
20279,note_on,,0,0,15,,,,,,,,,,,,,,,,15,,50,0
20279,note_on,,29,0,9,,,,,,,,,,,,,,,,7,,62,0
20279,note_on,,59,0,14,,,,,,,,,,,,,,,,13,,50,0
20279,note_on,,0,0,15,,,,,,,,,,,,,,,,15,,65,0
20279,note_on,,0,0,15,,,,,,,,,,,,,,,,15,,70,0
20279,note_on,,119,0,13,,,,,,,,,,,,,,,,12,,65,0
20279,note_on,,0,0,15,,,,,,,,,,,,,,,,15,,74,0
20279,note_on,,59,0,15,,,,,,,,,,,,,,,,15,,77,0
20279,note_on,,59,0,6,,,,,,,,,,,,,,,,2,,50,0
20279,note_on,,29,0,12,,,,,,,,,,,,,,,,11,,74,0
20280,note_on,,1,0,14,,,,,,,,,,,,,,,,13,,51,72
20280,note_on,,0,0,15,,,,,,,,,,,,,,,,15,,67,72
20280,note_on,,1,0,6,,,,,,,,,,,,,,,,2,,51,72
20280,note_on,,1,0,12,,,,,,,,,,,,,,,,11,,72,72
20280,note_on,,1,0,13,,,,,,,,,,,,,,,,12,,60,72
20280,note_on,,1,0,9,,,,,,,,,,,,,,,,7,,60,72
20280,note_on,,1,0,15,,,,,,,,,,,,,,,,15,,51,72
20280,note_on,,0,0,15,,,,,,,,,,,,,,,,15,,72,72
20309,note_on,,29,0,9,,,,,,,,,,,,,,,,7,,60,0
20309,note_on,,29,0,12,,,,,,,,,,,,,,,,11,,72,0
20310,note_on,,1,0,12,,,,,,,,,,,,,,,,11,,74,72
20310,note_on,,1,0,9,,,,,,,,,,,,,,,,7,,62,72
20339,note_on,,59,0,6,,,,,,,,,,,,,,,,2,,51,0
20339,note_on,,0,0,15,,,,,,,,,,,,,,,,15,,67,0
20339,note_on,,59,0,15,,,,,,,,,,,,,,,,15,,51,0
20339,note_on,,59,0,14,,,,,,,,,,,,,,,,13,,51,0
20339,note_on,,29,0,9,,,,,,,,,,,,,,,,7,,62,0
20339,note_on,,59,0,13,,,,,,,,,,,,,,,,12,,60,0
20339,note_on,,29,0,12,,,,,,,,,,,,,,,,11,,74,0
20340,note_on,,1,0,9,,,,,,,,,,,,,,,,7,,63,72
20340,note_on,,1,0,12,,,,,,,,,,,,,,,,11,,75,72
20340,note_on,,1,0,15,,,,,,,,,,,,,,,,15,,53,72
20340,note_on,,1,0,14,,,,,,,,,,,,,,,,13,,53,72
20340,note_on,,0,0,15,,,,,,,,,,,,,,,,15,,65,72
20340,note_on,,0,0,15,,,,,,,,,,,,,,,,15,,69,72
20340,note_on,,1,0,6,,,,,,,,,,,,,,,,2,,53,72
20340,note_on,,1,0,13,,,,,,,,,,,,,,,,12,,57,72
20369,note_on,,29,0,9,,,,,,,,,,,,,,,,7,,63,0
20369,note_on,,29,0,12,,,,,,,,,,,,,,,,11,,75,0
20370,note_on,,1,0,9,,,,,,,,,,,,,,,,7,,60,72
20370,note_on,,1,0,12,,,,,,,,,,,,,,,,11,,72,72
20399,note_on,,0,0,15,,,,,,,,,,,,,,,,15,,53,0
20399,note_on,,59,0,6,,,,,,,,,,,,,,,,2,,53,0
20399,note_on,,29,0,9,,,,,,,,,,,,,,,,7,,60,0
20399,note_on,,59,0,14,,,,,,,,,,,,,,,,13,,53,0
20399,note_on,,29,0,12,,,,,,,,,,,,,,,,11,,72,0
20399,note_on,,0,0,15,,,,,,,,,,,,,,,,15,,65,0
20399,note_on,,59,0,15,,,,,,,,,,,,,,,,15,,72,0
20399,note_on,,0,0,15,,,,,,,,,,,,,,,,15,,69,0
20399,note_on,,59,0,13,,,,,,,,,,,,,,,,12,,57,0
20400,note_on,,1,0,6,,,,,,,,,,,,,,,,2,,46,72
20400,note_on,,1,0,12,,,,,,,,,,,,,,,,11,,74,72
20400,note_on,,1,0,14,,,,,,,,,,,,,,,,13,,46,72
20400,note_on,,0,0,15,,,,,,,,,,,,,,,,15,,65,72
20400,note_on,,1,0,9,,,,,,,,,,,,,,,,7,,62,72
20400,note_on,,0,0,15,,,,,,,,,,,,,,,,15,,70,72
20400,note_on,,0,0,15,,,,,,,,,,,,,,,,15,,74,72
20400,note_on,,1,0,15,,,,,,,,,,,,,,,,15,,46,72
20400,note_on,,1,0,13,,,,,,,,,,,,,,,,12,,53,72
20459,note_on,,59,0,14,,,,,,,,,,,,,,,,13,,46,0
20459,note_on,,59,0,15,,,,,,,,,,,,,,,,15,,46,0
20459,note_on,,59,0,9,,,,,,,,,,,,,,,,7,,62,0
20459,note_on,,59,0,12,,,,,,,,,,,,,,,,11,,74,0
20459,note_on,,59,0,6,,,,,,,,,,,,,,,,2,,46,0
20460,note_on,,1,0,6,,,,,,,,,,,,,,,,2,,58,72
20460,note_on,,1,0,15,,,,,,,,,,,,,,,,15,,58,72
20460,note_on,,1,0,9,,,,,,,,,,,,,,,,7,,58,72
20460,note_on,,1,0,14,,,,,,,,,,,,,,,,13,,58,72
20460,note_on,,1,0,12,,,,,,,,,,,,,,,,11,,70,72
20519,note_on,,59,0,14,,,,,,,,,,,,,,,,13,,58,0
20519,note_on,,59,0,15,,,,,,,,,,,,,,,,15,,74,0
20519,note_on,,0,0,15,,,,,,,,,,,,,,,,15,,70,0
20519,note_on,,0,0,15,,,,,,,,,,,,,,,,15,,65,0
20519,note_on,,0,0,15,,,,,,,,,,,,,,,,15,,58,0
20519,note_on,,119,0,13,,,,,,,,,,,,,,,,12,,53,0
20519,note_on,,59,0,9,,,,,,,,,,,,,,,,7,,58,0
20519,note_on,,59,0,6,,,,,,,,,,,,,,,,2,,58,0
20519,note_on,,59,0,12,,,,,,,,,,,,,,,,11,,70,0
20520,note_on,,361,0,8,,,,,,,,,,,,,,,,6,,65,72
20520,note_on,,1,0,14,,,,,,,,,,,,,,,,13,,57,72
20520,note_on,,1,0,6,,,,,,,,,,,,,,,,2,,57,72
20520,note_on,,1,0,15,,,,,,,,,,,,,,,,15,,57,72
20520,note_on,,961,0,10,,,,,,,,,,,,,,,,8,,60,72
20520,note_on,,1,0,12,,,,,,,,,,,,,,,,11,,77,72
20520,note_on,,0,0,15,,,,,,,,,,,,,,,,15,,65,72
20520,note_on,,0,0,15,,,,,,,,,,,,,,,,15,,72,72
20520,note_on,,1,0,13,,,,,,,,,,,,,,,,12,,60,72
20579,note_on,,59,0,6,,,,,,,,,,,,,,,,2,,57,0
20579,note_on,,59,0,13,,,,,,,,,,,,,,,,12,,60,0
20579,note_on,,59,0,8,,,,,,,,,,,,,,,,6,,65,0
20579,note_on,,59,0,10,,,,,,,,,,,,,,,,8,,60,0
20579,note_on,,0,0,15,,,,,,,,,,,,,,,,15,,72,0
20579,note_on,,59,0,15,,,,,,,,,,,,,,,,15,,57,0
20579,note_on,,59,0,12,,,,,,,,,,,,,,,,11,,77,0
20579,note_on,,59,0,14,,,,,,,,,,,,,,,,13,,57,0
20580,note_on,,1,0,12,,,,,,,,,,,,,,,,11,,77,72
20580,note_on,,1,0,14,,,,,,,,,,,,,,,,13,,53,72
20580,note_on,,1,0,8,,,,,,,,,,,,,,,,6,,65,72
20580,note_on,,1,0,10,,,,,,,,,,,,,,,,8,,63,72
20580,note_on,,1,0,6,,,,,,,,,,,,,,,,2,,53,72
20580,note_on,,1,0,13,,,,,,,,,,,,,,,,12,,63,72
20580,note_on,,1,0,15,,,,,,,,,,,,,,,,15,,53,72
20580,note_on,,0,0,15,,,,,,,,,,,,,,,,15,,69,72
20639,note_on,,59,0,10,,,,,,,,,,,,,,,,8,,63,0
20639,note_on,,59,0,14,,,,,,,,,,,,,,,,13,,53,0
20639,note_on,,59,0,8,,,,,,,,,,,,,,,,6,,65,0
20639,note_on,,59,0,15,,,,,,,,,,,,,,,,15,,65,0
20639,note_on,,0,0,15,,,,,,,,,,,,,,,,15,,53,0
20639,note_on,,0,0,15,,,,,,,,,,,,,,,,15,,69,0
20639,note_on,,59,0,12,,,,,,,,,,,,,,,,11,,77,0
20639,note_on,,59,0,13,,,,,,,,,,,,,,,,12,,63,0
20639,note_on,,59,0,6,,,,,,,,,,,,,,,,2,,53,0
20640,note_on,,1,0,12,,,,,,,,,,,,,,,,11,,77,72
20640,note_on,,1,0,14,,,,,,,,,,,,,,,,13,,58,72
20640,note_on,,1,0,15,,,,,,,,,,,,,,,,15,,58,72
20640,note_on,,1,0,13,,,,,,,,,,,,,,,,12,,62,72
20640,note_on,,0,0,15,,,,,,,,,,,,,,,,15,,65,72
20640,note_on,,1,0,10,,,,,,,,,,,,,,,,8,,62,72
20640,note_on,,1,0,8,,,,,,,,,,,,,,,,6,,65,72
20640,note_on,,1,0,6,,,,,,,,,,,,,,,,2,,58,72
20640,note_on,,0,0,15,,,,,,,,,,,,,,,,15,,62,72
20669,note_on,,29,0,13,,,,,,,,,,,,,,,,12,,62,0
20669,note_on,,29,0,10,,,,,,,,,,,,,,,,8,,62,0
20670,note_on,,1,0,13,,,,,,,,,,,,,,,,12,,60,72
20670,note_on,,1,0,10,,,,,,,,,,,,,,,,8,,60,72
20699,note_on,,29,0,13,,,,,,,,,,,,,,,,12,,60,0
20699,note_on,,0,0,15,,,,,,,,,,,,,,,,15,,62,0
20699,note_on,,59,0,6,,,,,,,,,,,,,,,,2,,58,0
20699,note_on,,59,0,15,,,,,,,,,,,,,,,,15,,58,0
20699,note_on,,29,0,10,,,,,,,,,,,,,,,,8,,60,0
20699,note_on,,59,0,14,,,,,,,,,,,,,,,,13,,58,0
20699,note_on,,0,0,15,,,,,,,,,,,,,,,,15,,65,0
20700,note_on,,0,0,15,,,,,,,,,,,,,,,,15,,65,72
20700,note_on,,0,0,15,,,,,,,,,,,,,,,,15,,70,72
20700,note_on,,1,0,15,,,,,,,,,,,,,,,,15,,50,72
20700,note_on,,1,0,10,,,,,,,,,,,,,,,,8,,58,72
20700,note_on,,1,0,14,,,,,,,,,,,,,,,,13,,50,72
20700,note_on,,1,0,13,,,,,,,,,,,,,,,,12,,58,72
20700,note_on,,1,0,6,,,,,,,,,,,,,,,,2,,50,72
20729,note_on,,29,0,13,,,,,,,,,,,,,,,,12,,58,0
20729,note_on,,29,0,10,,,,,,,,,,,,,,,,8,,58,0
20730,note_on,,1,0,13,,,,,,,,,,,,,,,,12,,62,72
20730,note_on,,1,0,10,,,,,,,,,,,,,,,,8,,62,72
20759,note_on,,59,0,14,,,,,,,,,,,,,,,,13,,50,0
20759,note_on,,29,0,13,,,,,,,,,,,,,,,,12,,62,0
20759,note_on,,119,0,8,,,,,,,,,,,,,,,,6,,65,0
20759,note_on,,59,0,15,,,,,,,,,,,,,,,,15,,50,0
20759,note_on,,0,0,15,,,,,,,,,,,,,,,,15,,70,0
20759,note_on,,29,0,10,,,,,,,,,,,,,,,,8,,62,0
20759,note_on,,119,0,12,,,,,,,,,,,,,,,,11,,77,0
20759,note_on,,0,0,15,,,,,,,,,,,,,,,,15,,65,0
20759,note_on,,59,0,6,,,,,,,,,,,,,,,,2,,50,0
20760,note_on,,0,0,15,,,,,,,,,,,,,,,,15,,65,72
20760,note_on,,1,0,10,,,,,,,,,,,,,,,,8,,60,72
20760,note_on,,1,0,6,,,,,,,,,,,,,,,,2,,53,72
20760,note_on,,1,0,13,,,,,,,,,,,,,,,,12,,60,72
20760,note_on,,1,0,15,,,,,,,,,,,,,,,,15,,53,72
20760,note_on,,1,0,12,,,,,,,,,,,,,,,,11,,77,72
20760,note_on,,1,0,8,,,,,,,,,,,,,,,,6,,65,72
20760,note_on,,1,0,14,,,,,,,,,,,,,,,,13,,53,72
20760,note_on,,0,0,15,,,,,,,,,,,,,,,,15,,69,72
20760,note_on,,0,0,15,,,,,,,,,,,,,,,,15,,60,72
20789,note_on,,29,0,13,,,,,,,,,,,,,,,,12,,60,0
20789,note_on,,29,0,10,,,,,,,,,,,,,,,,8,,60,0
20790,note_on,,1,0,10,,,,,,,,,,,,,,,,8,,58,72
20790,note_on,,1,0,13,,,,,,,,,,,,,,,,12,,58,72
20819,note_on,,59,0,14,,,,,,,,,,,,,,,,13,,53,0
20819,note_on,,59,0,6,,,,,,,,,,,,,,,,2,,53,0
20819,note_on,,0,0,15,,,,,,,,,,,,,,,,15,,65,0
20819,note_on,,0,0,15,,,,,,,,,,,,,,,,15,,69,0
20819,note_on,,59,0,15,,,,,,,,,,,,,,,,15,,53,0
20819,note_on,,29,0,13,,,,,,,,,,,,,,,,12,,58,0
20819,note_on,,0,0,15,,,,,,,,,,,,,,,,15,,60,0
20819,note_on,,29,0,10,,,,,,,,,,,,,,,,8,,58,0
20820,note_on,,1,0,15,,,,,,,,,,,,,,,,15,,41,72
20820,note_on,,1,0,14,,,,,,,,,,,,,,,,13,,41,72
20820,note_on,,1,0,6,,,,,,,,,,,,,,,,2,,41,72
20820,note_on,,1,0,13,,,,,,,,,,,,,,,,12,,57,72
20820,note_on,,1,0,10,,,,,,,,,,,,,,,,8,,57,72
20820,note_on,,0,0,15,,,,,,,,,,,,,,,,15,,65,72
20820,note_on,,0,0,15,,,,,,,,,,,,,,,,15,,72,72
20820,note_on,,0,0,15,,,,,,,,,,,,,,,,15,,69,72
20849,note_on,,29,0,13,,,,,,,,,,,,,,,,12,,57,0
20849,note_on,,29,0,10,,,,,,,,,,,,,,,,8,,57,0
20850,note_on,,1,0,13,,,,,,,,,,,,,,,,12,,60,72
20850,note_on,,1,0,10,,,,,,,,,,,,,,,,8,,60,72
20879,note_on,,0,0,15,,,,,,,,,,,,,,,,15,,69,0
20879,note_on,,0,0,15,,,,,,,,,,,,,,,,15,,65,0
20879,note_on,,59,0,14,,,,,,,,,,,,,,,,13,,41,0
20879,note_on,,119,0,8,,,,,,,,,,,,,,,,6,,65,0
20879,note_on,,29,0,10,,,,,,,,,,,,,,,,8,,60,0
20879,note_on,,59,0,6,,,,,,,,,,,,,,,,2,,41,0
20879,note_on,,119,0,12,,,,,,,,,,,,,,,,11,,77,0
20879,note_on,,59,0,15,,,,,,,,,,,,,,,,15,,41,0
20879,note_on,,29,0,13,,,,,,,,,,,,,,,,12,,60,0
20879,note_on,,0,0,15,,,,,,,,,,,,,,,,15,,72,0
20880,note_on,,1,0,15,,,,,,,,,,,,,,,,15,,46,72
20880,note_on,,1,0,10,,,,,,,,,,,,,,,,8,,62,72
20880,note_on,,0,0,15,,,,,,,,,,,,,,,,15,,65,72
20880,note_on,,1,0,8,,,,,,,,,,,,,,,,6,,65,72
20880,note_on,,1,0,6,,,,,,,,,,,,,,,,2,,46,72
20880,note_on,,1,0,14,,,,,,,,,,,,,,,,13,,46,72
20880,note_on,,0,0,15,,,,,,,,,,,,,,,,15,,62,72
20880,note_on,,1,0,12,,,,,,,,,,,,,,,,11,,77,72
20880,note_on,,0,0,15,,,,,,,,,,,,,,,,15,,70,72
20880,note_on,,1,0,13,,,,,,,,,,,,,,,,12,,62,72
20909,note_on,,29,0,13,,,,,,,,,,,,,,,,12,,62,0
20909,note_on,,29,0,10,,,,,,,,,,,,,,,,8,,62,0
20910,note_on,,1,0,10,,,,,,,,,,,,,,,,8,,60,72
20910,note_on,,1,0,13,,,,,,,,,,,,,,,,12,,60,72
20939,note_on,,29,0,10,,,,,,,,,,,,,,,,8,,60,0
20939,note_on,,59,0,14,,,,,,,,,,,,,,,,13,,46,0
20939,note_on,,29,0,13,,,,,,,,,,,,,,,,12,,60,0
20939,note_on,,59,0,6,,,,,,,,,,,,,,,,2,,46,0
20939,note_on,,59,0,15,,,,,,,,,,,,,,,,15,,46,0
20940,note_on,,1,0,10,,,,,,,,,,,,,,,,8,,58,72
20940,note_on,,1,0,13,,,,,,,,,,,,,,,,12,,58,72
20940,note_on,,1,0,15,,,,,,,,,,,,,,,,15,,58,72
20940,note_on,,1,0,14,,,,,,,,,,,,,,,,13,,58,72
20940,note_on,,1,0,6,,,,,,,,,,,,,,,,2,,58,72
20969,note_on,,29,0,10,,,,,,,,,,,,,,,,8,,58,0
20969,note_on,,29,0,13,,,,,,,,,,,,,,,,12,,58,0
20970,note_on,,1,0,10,,,,,,,,,,,,,,,,8,,62,72
20970,note_on,,1,0,13,,,,,,,,,,,,,,,,12,,62,72
20999,note_on,,29,0,13,,,,,,,,,,,,,,,,12,,62,0
20999,note_on,,59,0,6,,,,,,,,,,,,,,,,2,,58,0
20999,note_on,,0,0,15,,,,,,,,,,,,,,,,15,,58,0
20999,note_on,,59,0,14,,,,,,,,,,,,,,,,13,,58,0
20999,note_on,,0,0,15,,,,,,,,,,,,,,,,15,,62,0
20999,note_on,,119,0,8,,,,,,,,,,,,,,,,6,,65,0
20999,note_on,,59,0,15,,,,,,,,,,,,,,,,15,,70,0
20999,note_on,,29,0,10,,,,,,,,,,,,,,,,8,,62,0
20999,note_on,,119,0,12,,,,,,,,,,,,,,,,11,,77,0
20999,note_on,,0,0,15,,,,,,,,,,,,,,,,15,,65,0
21000,note_on,,0,0,15,,,,,,,,,,,,,,,,15,,60,72
21000,note_on,,1,0,15,,,,,,,,,,,,,,,,15,,57,72
21000,note_on,,1,0,12,,,,,,,,,,,,,,,,11,,77,72
21000,note_on,,1,0,8,,,,,,,,,,,,,,,,6,,65,72
21000,note_on,,1,0,13,,,,,,,,,,,,,,,,12,,60,72
21000,note_on,,1,0,14,,,,,,,,,,,,,,,,13,,57,72
21000,note_on,,0,0,15,,,,,,,,,,,,,,,,15,,65,72
21000,note_on,,1,0,10,,,,,,,,,,,,,,,,8,,60,72
21000,note_on,,1,0,6,,,,,,,,,,,,,,,,2,,57,72
21029,note_on,,29,0,13,,,,,,,,,,,,,,,,12,,60,0
21029,note_on,,29,0,10,,,,,,,,,,,,,,,,8,,60,0
21030,note_on,,1,0,13,,,,,,,,,,,,,,,,12,,62,72
21030,note_on,,1,0,10,,,,,,,,,,,,,,,,8,,62,72
21059,note_on,,59,0,14,,,,,,,,,,,,,,,,13,,57,0
21059,note_on,,59,0,15,,,,,,,,,,,,,,,,15,,57,0
21059,note_on,,0,0,15,,,,,,,,,,,,,,,,15,,65,0
21059,note_on,,59,0,6,,,,,,,,,,,,,,,,2,,57,0
21059,note_on,,29,0,13,,,,,,,,,,,,,,,,12,,62,0
21059,note_on,,29,0,10,,,,,,,,,,,,,,,,8,,62,0
21060,note_on,,1,0,13,,,,,,,,,,,,,,,,12,,63,72
21060,note_on,,1,0,14,,,,,,,,,,,,,,,,13,,45,72
21060,note_on,,1,0,10,,,,,,,,,,,,,,,,8,,63,72
21060,note_on,,1,0,6,,,,,,,,,,,,,,,,2,,45,72
21060,note_on,,1,0,15,,,,,,,,,,,,,,,,15,,45,72
21060,note_on,,0,0,15,,,,,,,,,,,,,,,,15,,72,72
21089,note_on,,29,0,13,,,,,,,,,,,,,,,,12,,63,0
21089,note_on,,29,0,10,,,,,,,,,,,,,,,,8,,63,0
21090,note_on,,1,0,10,,,,,,,,,,,,,,,,8,,60,72
21090,note_on,,1,0,13,,,,,,,,,,,,,,,,12,,60,72
21119,note_on,,119,0,8,,,,,,,,,,,,,,,,6,,65,0
21119,note_on,,0,0,15,,,,,,,,,,,,,,,,15,,72,0
21119,note_on,,59,0,6,,,,,,,,,,,,,,,,2,,45,0
21119,note_on,,59,0,15,,,,,,,,,,,,,,,,15,,60,0
21119,note_on,,59,0,14,,,,,,,,,,,,,,,,13,,45,0
21119,note_on,,119,0,12,,,,,,,,,,,,,,,,11,,77,0
21119,note_on,,29,0,10,,,,,,,,,,,,,,,,8,,60,0
21119,note_on,,0,0,15,,,,,,,,,,,,,,,,15,,45,0
21119,note_on,,29,0,13,,,,,,,,,,,,,,,,12,,60,0
21120,note_on,,1,0,15,,,,,,,,,,,,,,,,15,,46,72
21120,note_on,,1,0,13,,,,,,,,,,,,,,,,12,,62,72
21120,note_on,,0,0,15,,,,,,,,,,,,,,,,15,,65,72
21120,note_on,,1,0,10,,,,,,,,,,,,,,,,8,,62,72
21120,note_on,,1,0,12,,,,,,,,,,,,,,,,11,,77,72
21120,note_on,,1,0,6,,,,,,,,,,,,,,,,2,,46,72
21120,note_on,,1,0,14,,,,,,,,,,,,,,,,13,,46,72
21120,note_on,,0,0,15,,,,,,,,,,,,,,,,15,,62,72
21120,note_on,,1,0,8,,,,,,,,,,,,,,,,6,,65,72
21149,note_on,,29,0,13,,,,,,,,,,,,,,,,12,,62,0
21149,note_on,,29,0,10,,,,,,,,,,,,,,,,8,,62,0
21150,note_on,,1,0,13,,,,,,,,,,,,,,,,12,,60,72
21150,note_on,,1,0,10,,,,,,,,,,,,,,,,8,,60,72
21179,note_on,,0,0,15,,,,,,,,,,,,,,,,15,,65,0
21179,note_on,,59,0,15,,,,,,,,,,,,,,,,15,,46,0
21179,note_on,,29,0,10,,,,,,,,,,,,,,,,8,,60,0
21179,note_on,,59,0,14,,,,,,,,,,,,,,,,13,,46,0
21179,note_on,,59,0,6,,,,,,,,,,,,,,,,2,,46,0
21179,note_on,,29,0,13,,,,,,,,,,,,,,,,12,,60,0
21180,note_on,,1,0,14,,,,,,,,,,,,,,,,13,,50,72
21180,note_on,,1,0,10,,,,,,,,,,,,,,,,8,,58,72
21180,note_on,,1,0,6,,,,,,,,,,,,,,,,2,,50,72
21180,note_on,,0,0,15,,,,,,,,,,,,,,,,15,,70,72
21180,note_on,,1,0,15,,,,,,,,,,,,,,,,15,,50,72
21180,note_on,,1,0,13,,,,,,,,,,,,,,,,12,,58,72
21209,note_on,,29,0,10,,,,,,,,,,,,,,,,8,,58,0
21209,note_on,,29,0,13,,,,,,,,,,,,,,,,12,,58,0
21210,note_on,,1,0,10,,,,,,,,,,,,,,,,8,,62,72
21210,note_on,,1,0,13,,,,,,,,,,,,,,,,12,,62,72
21239,note_on,,0,0,15,,,,,,,,,,,,,,,,15,,50,0
21239,note_on,,29,0,13,,,,,,,,,,,,,,,,12,,62,0
21239,note_on,,0,0,15,,,,,,,,,,,,,,,,15,,70,0
21239,note_on,,29,0,10,,,,,,,,,,,,,,,,8,,62,0
21239,note_on,,59,0,14,,,,,,,,,,,,,,,,13,,50,0
21239,note_on,,59,0,6,,,,,,,,,,,,,,,,2,,50,0
21239,note_on,,59,0,15,,,,,,,,,,,,,,,,15,,62,0
21240,note_on,,1,0,13,,,,,,,,,,,,,,,,12,,60,72
21240,note_on,,1,0,15,,,,,,,,,,,,,,,,15,,53,72
21240,note_on,,1,0,10,,,,,,,,,,,,,,,,8,,60,72
21240,note_on,,1,0,6,,,,,,,,,,,,,,,,2,,53,72
21240,note_on,,0,0,15,,,,,,,,,,,,,,,,15,,69,72
21240,note_on,,0,0,15,,,,,,,,,,,,,,,,15,,65,72
21240,note_on,,0,0,15,,,,,,,,,,,,,,,,15,,60,72
21240,note_on,,1,0,14,,,,,,,,,,,,,,,,13,,53,72
21269,note_on,,29,0,10,,,,,,,,,,,,,,,,8,,60,0
21269,note_on,,29,0,13,,,,,,,,,,,,,,,,12,,60,0
21270,note_on,,1,0,10,,,,,,,,,,,,,,,,8,,58,72
21270,note_on,,1,0,13,,,,,,,,,,,,,,,,12,,58,72
21299,note_on,,29,0,10,,,,,,,,,,,,,,,,8,,58,0
21299,note_on,,0,0,15,,,,,,,,,,,,,,,,15,,60,0
21299,note_on,,29,0,13,,,,,,,,,,,,,,,,12,,58,0
21299,note_on,,59,0,15,,,,,,,,,,,,,,,,15,,53,0
21299,note_on,,59,0,14,,,,,,,,,,,,,,,,13,,53,0
21299,note_on,,59,0,6,,,,,,,,,,,,,,,,2,,53,0
21299,note_on,,0,0,15,,,,,,,,,,,,,,,,15,,69,0
21300,note_on,,0,0,15,,,,,,,,,,,,,,,,15,,72,72
21300,note_on,,1,0,14,,,,,,,,,,,,,,,,13,,41,72
21300,note_on,,1,0,6,,,,,,,,,,,,,,,,2,,41,72
21300,note_on,,0,0,15,,,,,,,,,,,,,,,,15,,63,72
21300,note_on,,1,0,10,,,,,,,,,,,,,,,,8,,57,72
21300,note_on,,1,0,13,,,,,,,,,,,,,,,,12,,57,72
21300,note_on,,1,0,15,,,,,,,,,,,,,,,,15,,41,72
21329,note_on,,29,0,13,,,,,,,,,,,,,,,,12,,57,0
21329,note_on,,29,0,10,,,,,,,,,,,,,,,,8,,57,0
21330,note_on,,1,0,13,,,,,,,,,,,,,,,,12,,60,72
21330,note_on,,1,0,10,,,,,,,,,,,,,,,,8,,60,72
21359,note_on,,0,0,15,,,,,,,,,,,,,,,,15,,72,0
21359,note_on,,59,0,15,,,,,,,,,,,,,,,,15,,65,0
21359,note_on,,0,0,15,,,,,,,,,,,,,,,,15,,41,0
21359,note_on,,0,0,15,,,,,,,,,,,,,,,,15,,63,0
21359,note_on,,29,0,13,,,,,,,,,,,,,,,,12,,60,0
21359,note_on,,59,0,6,,,,,,,,,,,,,,,,2,,41,0
21359,note_on,,29,0,10,,,,,,,,,,,,,,,,8,,60,0
21359,note_on,,59,0,14,,,,,,,,,,,,,,,,13,,41,0
21360,note_on,,1,0,15,,,,,,,,,,,,,,,,15,,46,72
21360,note_on,,0,0,15,,,,,,,,,,,,,,,,15,,65,72
21360,note_on,,0,0,15,,,,,,,,,,,,,,,,15,,62,72
21360,note_on,,1,0,6,,,,,,,,,,,,,,,,2,,46,72
21360,note_on,,1,0,10,,,,,,,,,,,,,,,,8,,62,72
21360,note_on,,1,0,14,,,,,,,,,,,,,,,,13,,46,72
21360,note_on,,1,0,13,,,,,,,,,,,,,,,,12,,62,72
21360,note_on,,0,0,15,,,,,,,,,,,,,,,,15,,70,72
21419,note_on,,59,0,6,,,,,,,,,,,,,,,,2,,46,0
21419,note_on,,59,0,10,,,,,,,,,,,,,,,,8,,62,0
21419,note_on,,0,0,15,,,,,,,,,,,,,,,,15,,70,0
21419,note_on,,0,0,15,,,,,,,,,,,,,,,,15,,65,0
21419,note_on,,59,0,15,,,,,,,,,,,,,,,,15,,46,0
21419,note_on,,59,0,13,,,,,,,,,,,,,,,,12,,62,0
21419,note_on,,59,0,14,,,,,,,,,,,,,,,,13,,46,0
21419,note_on,,0,0,15,,,,,,,,,,,,,,,,15,,62,0
21420,note_on,,1,0,10,,,,,,,,,,,,,,,,8,,58,72
21420,note_on,,1,0,15,,,,,,,,,,,,,,,,15,,50,72
21420,note_on,,1,0,13,,,,,,,,,,,,,,,,12,,58,72
21420,note_on,,1,0,6,,,,,,,,,,,,,,,,2,,50,72
21420,note_on,,1,0,14,,,,,,,,,,,,,,,,13,,50,72
21420,note_on,,0,0,15,,,,,,,,,,,,,,,,15,,58,72
21479,note_on,,59,0,15,,,,,,,,,,,,,,,,15,,50,0
21479,note_on,,0,0,15,,,,,,,,,,,,,,,,15,,58,0
21479,note_on,,59,0,10,,,,,,,,,,,,,,,,8,,58,0
21479,note_on,,59,0,6,,,,,,,,,,,,,,,,2,,50,0
21479,note_on,,359,0,12,,,,,,,,,,,,,,,,11,,77,0
21479,note_on,,59,0,14,,,,,,,,,,,,,,,,13,,50,0
21479,note_on,,59,0,13,,,,,,,,,,,,,,,,12,,58,0
21480,note_on,,1921,0,7,,,,,,,,,,,,,,,,5,,77,72
21480,note_on,,1,0,14,,,,,,,,,,,,,,,,13,,53,72
21480,note_on,,1,0,13,,,,,,,,,,,,,,,,12,,60,72
21480,note_on,,1921,0,5,,,,,,,,,,,,,,,,1,,77,72
21480,note_on,,1,0,10,,,,,,,,,,,,,,,,8,,53,72
21480,note_on,,1,0,12,,,,,,,,,,,,,,,,11,,69,72
21480,note_on,,1321,0,11,,,,,,,,,,,,,,,,10,,77,72
21480,note_on,,961,0,9,,,,,,,,,,,,,,,,7,,57,72
21480,note_on,,0,0,15,,,,,,,,,,,,,,,,15,,57,72
21480,note_on,,0,0,15,,,,,,,,,,,,,,,,15,,60,72
21480,note_on,,1,0,15,,,,,,,,,,,,,,,,15,,53,72
21480,note_on,,1,0,6,,,,,,,,,,,,,,,,2,,53,72
21539,note_on,,59,0,11,,,,,,,,,,,,,,,,10,,77,0
21539,note_on,,59,0,6,,,,,,,,,,,,,,,,2,,53,0
21539,note_on,,59,0,14,,,,,,,,,,,,,,,,13,,53,0
21539,note_on,,59,0,10,,,,,,,,,,,,,,,,8,,53,0
21539,note_on,,59,0,13,,,,,,,,,,,,,,,,12,,60,0
21539,note_on,,59,0,5,,,,,,,,,,,,,,,,1,,77,0
21539,note_on,,59,0,12,,,,,,,,,,,,,,,,11,,69,0
21539,note_on,,0,0,15,,,,,,,,,,,,,,,,15,,57,0
21539,note_on,,0,0,15,,,,,,,,,,,,,,,,15,,60,0
21539,note_on,,59,0,15,,,,,,,,,,,,,,,,15,,53,0
21539,note_on,,59,0,9,,,,,,,,,,,,,,,,7,,57,0
21539,note_on,,59,0,7,,,,,,,,,,,,,,,,5,,77,0
21540,note_on,,1,0,13,,,,,,,,,,,,,,,,12,,58,72
21540,note_on,,1,0,14,,,,,,,,,,,,,,,,13,,55,72
21540,note_on,,1,0,5,,,,,,,,,,,,,,,,1,,77,72
21540,note_on,,1,0,6,,,,,,,,,,,,,,,,2,,55,72
21540,note_on,,1,0,9,,,,,,,,,,,,,,,,7,,58,72
21540,note_on,,0,0,15,,,,,,,,,,,,,,,,15,,64,72
21540,note_on,,1,0,11,,,,,,,,,,,,,,,,10,,77,72
21540,note_on,,0,0,15,,,,,,,,,,,,,,,,15,,58,72
21540,note_on,,1,0,15,,,,,,,,,,,,,,,,15,,55,72
21540,note_on,,1,0,10,,,,,,,,,,,,,,,,8,,55,72
21540,note_on,,1,0,7,,,,,,,,,,,,,,,,5,,77,72
21540,note_on,,1,0,12,,,,,,,,,,,,,,,,11,,70,72
21599,note_on,,0,0,15,,,,,,,,,,,,,,,,15,,64,0
21599,note_on,,59,0,15,,,,,,,,,,,,,,,,15,,55,0
21599,note_on,,59,0,10,,,,,,,,,,,,,,,,8,,55,0
21599,note_on,,59,0,13,,,,,,,,,,,,,,,,12,,58,0
21599,note_on,,59,0,11,,,,,,,,,,,,,,,,10,,77,0
21599,note_on,,0,0,15,,,,,,,,,,,,,,,,15,,58,0
21599,note_on,,59,0,5,,,,,,,,,,,,,,,,1,,77,0
21599,note_on,,479,0,8,,,,,,,,,,,,,,,,6,,65,0
21599,note_on,,59,0,14,,,,,,,,,,,,,,,,13,,55,0
21599,note_on,,59,0,7,,,,,,,,,,,,,,,,5,,77,0
21599,note_on,,59,0,12,,,,,,,,,,,,,,,,11,,70,0
21599,note_on,,59,0,6,,,,,,,,,,,,,,,,2,,55,0
21599,note_on,,59,0,9,,,,,,,,,,,,,,,,7,,58,0
21600,note_on,,1,0,7,,,,,,,,,,,,,,,,5,,77,72
21600,note_on,,1,0,14,,,,,,,,,,,,,,,,13,,57,72
21600,note_on,,1,0,6,,,,,,,,,,,,,,,,2,,57,72
21600,note_on,,1,0,9,,,,,,,,,,,,,,,,7,,60,72
21600,note_on,,1,0,10,,,,,,,,,,,,,,,,8,,57,72
21600,note_on,,0,0,15,,,,,,,,,,,,,,,,15,,65,72
21600,note_on,,0,0,15,,,,,,,,,,,,,,,,15,,60,72
21600,note_on,,1,0,13,,,,,,,,,,,,,,,,12,,65,72
21600,note_on,,1,0,5,,,,,,,,,,,,,,,,1,,77,72
21600,note_on,,1,0,11,,,,,,,,,,,,,,,,10,,77,72
21600,note_on,,1,0,12,,,,,,,,,,,,,,,,11,,72,72
21600,note_on,,1,0,15,,,,,,,,,,,,,,,,15,,57,72
21659,note_on,,0,0,15,,,,,,,,,,,,,,,,15,,60,0
21659,note_on,,59,0,9,,,,,,,,,,,,,,,,7,,60,0
21659,note_on,,59,0,14,,,,,,,,,,,,,,,,13,,57,0
21659,note_on,,59,0,15,,,,,,,,,,,,,,,,15,,57,0
21659,note_on,,59,0,6,,,,,,,,,,,,,,,,2,,57,0
21659,note_on,,59,0,12,,,,,,,,,,,,,,,,11,,72,0
21659,note_on,,59,0,10,,,,,,,,,,,,,,,,8,,57,0
21659,note_on,,59,0,13,,,,,,,,,,,,,,,,12,,65,0
21660,note_on,,1,0,10,,,,,,,,,,,,,,,,8,,53,72
21660,note_on,,1,0,6,,,,,,,,,,,,,,,,2,,53,72
21660,note_on,,1,0,12,,,,,,,,,,,,,,,,11,,69,72
21660,note_on,,1,0,14,,,,,,,,,,,,,,,,13,,53,72
21660,note_on,,1,0,13,,,,,,,,,,,,,,,,12,,60,72
21660,note_on,,1,0,9,,,,,,,,,,,,,,,,7,,57,72
21660,note_on,,0,0,15,,,,,,,,,,,,,,,,15,,57,72
21660,note_on,,1,0,15,,,,,,,,,,,,,,,,15,,53,72
21719,note_on,,59,0,12,,,,,,,,,,,,,,,,11,,69,0
21719,note_on,,59,0,14,,,,,,,,,,,,,,,,13,,53,0
21719,note_on,,59,0,15,,,,,,,,,,,,,,,,15,,65,0
21719,note_on,,59,0,6,,,,,,,,,,,,,,,,2,,53,0
21719,note_on,,119,0,7,,,,,,,,,,,,,,,,5,,77,0
21719,note_on,,0,0,15,,,,,,,,,,,,,,,,15,,53,0
21719,note_on,,59,0,10,,,,,,,,,,,,,,,,8,,53,0
21719,note_on,,59,0,9,,,,,,,,,,,,,,,,7,,57,0
21719,note_on,,59,0,13,,,,,,,,,,,,,,,,12,,60,0
21719,note_on,,0,0,15,,,,,,,,,,,,,,,,15,,57,0
21719,note_on,,119,0,11,,,,,,,,,,,,,,,,10,,77,0
21719,note_on,,119,0,5,,,,,,,,,,,,,,,,1,,77,0
21720,note_on,,1,0,6,,,,,,,,,,,,,,,,2,,58,72
21720,note_on,,1,0,9,,,,,,,,,,,,,,,,7,,58,72
21720,note_on,,1,0,7,,,,,,,,,,,,,,,,5,,65,72
21720,note_on,,1,0,11,,,,,,,,,,,,,,,,10,,65,72
21720,note_on,,1,0,14,,,,,,,,,,,,,,,,13,,58,72
21720,note_on,,1,0,15,,,,,,,,,,,,,,,,15,,58,72
21720,note_on,,1,0,12,,,,,,,,,,,,,,,,11,,65,72
21720,note_on,,0,0,15,,,,,,,,,,,,,,,,15,,62,72
21720,note_on,,0,0,15,,,,,,,,,,,,,,,,15,,65,72
21720,note_on,,121,0,8,,,,,,,,,,,,,,,,6,,62,72
21720,note_on,,1,0,13,,,,,,,,,,,,,,,,12,,62,72
21720,note_on,,1,0,5,,,,,,,,,,,,,,,,1,,65,72
21779,note_on,,59,0,12,,,,,,,,,,,,,,,,11,,65,0
21779,note_on,,59,0,14,,,,,,,,,,,,,,,,13,,58,0
21779,note_on,,0,0,15,,,,,,,,,,,,,,,,15,,62,0
21779,note_on,,0,0,15,,,,,,,,,,,,,,,,15,,65,0
21779,note_on,,59,0,6,,,,,,,,,,,,,,,,2,,58,0
21779,note_on,,59,0,13,,,,,,,,,,,,,,,,12,,62,0
21779,note_on,,59,0,8,,,,,,,,,,,,,,,,6,,62,0
21779,note_on,,59,0,15,,,,,,,,,,,,,,,,15,,58,0
21779,note_on,,59,0,9,,,,,,,,,,,,,,,,7,,58,0
21780,note_on,,1,0,13,,,,,,,,,,,,,,,,12,,63,72
21780,note_on,,1,0,12,,,,,,,,,,,,,,,,11,,69,72
21780,note_on,,1,0,8,,,,,,,,,,,,,,,,6,,63,72
21780,note_on,,1,0,6,,,,,,,,,,,,,,,,2,,60,72
21780,note_on,,1,0,15,,,,,,,,,,,,,,,,15,,60,72
21780,note_on,,0,0,15,,,,,,,,,,,,,,,,15,,69,72
21780,note_on,,0,0,15,,,,,,,,,,,,,,,,15,,63,72
21780,note_on,,1,0,14,,,,,,,,,,,,,,,,13,,60,72
21780,note_on,,1,0,9,,,,,,,,,,,,,,,,7,,60,72
21839,note_on,,0,0,15,,,,,,,,,,,,,,,,15,,63,0
21839,note_on,,119,0,11,,,,,,,,,,,,,,,,10,,65,0
21839,note_on,,59,0,13,,,,,,,,,,,,,,,,12,,63,0
21839,note_on,,119,0,5,,,,,,,,,,,,,,,,1,,65,0
21839,note_on,,59,0,8,,,,,,,,,,,,,,,,6,,63,0
21839,note_on,,59,0,6,,,,,,,,,,,,,,,,2,,60,0
21839,note_on,,0,0,15,,,,,,,,,,,,,,,,15,,69,0
21839,note_on,,59,0,12,,,,,,,,,,,,,,,,11,,69,0
21839,note_on,,119,0,7,,,,,,,,,,,,,,,,5,,65,0
21839,note_on,,59,0,9,,,,,,,,,,,,,,,,7,,60,0
21839,note_on,,59,0,14,,,,,,,,,,,,,,,,13,,60,0
21839,note_on,,59,0,15,,,,,,,,,,,,,,,,15,,60,0
21840,note_on,,0,0,15,,,,,,,,,,,,,,,,15,,65,72
21840,note_on,,1,0,8,,,,,,,,,,,,,,,,6,,65,72
21840,note_on,,1,0,13,,,,,,,,,,,,,,,,12,,65,72
21840,note_on,,1,0,12,,,,,,,,,,,,,,,,11,,70,72
21840,note_on,,0,0,15,,,,,,,,,,,,,,,,15,,70,72
21840,note_on,,1,0,14,,,,,,,,,,,,,,,,13,,62,72
21840,note_on,,1,0,15,,,,,,,,,,,,,,,,15,,62,72
21840,note_on,,1,0,9,,,,,,,,,,,,,,,,7,,62,72
21840,note_on,,1,0,6,,,,,,,,,,,,,,,,2,,62,72
21899,note_on,,59,0,14,,,,,,,,,,,,,,,,13,,62,0
21899,note_on,,59,0,6,,,,,,,,,,,,,,,,2,,62,0
21899,note_on,,0,0,15,,,,,,,,,,,,,,,,15,,65,0
21899,note_on,,59,0,15,,,,,,,,,,,,,,,,15,,62,0
21900,note_on,,0,0,15,,,,,,,,,,,,,,,,15,,62,72
21900,note_on,,1,0,14,,,,,,,,,,,,,,,,13,,58,72
21900,note_on,,1,0,6,,,,,,,,,,,,,,,,2,,58,72
21900,note_on,,1,0,15,,,,,,,,,,,,,,,,15,,58,72
21959,note_on,,119,0,9,,,,,,,,,,,,,,,,7,,62,0
21959,note_on,,119,0,8,,,,,,,,,,,,,,,,6,,65,0
21959,note_on,,59,0,15,,,,,,,,,,,,,,,,15,,70,0
21959,note_on,,0,0,15,,,,,,,,,,,,,,,,15,,58,0
21959,note_on,,0,0,15,,,,,,,,,,,,,,,,15,,62,0
21959,note_on,,59,0,14,,,,,,,,,,,,,,,,13,,58,0
21959,note_on,,59,0,6,,,,,,,,,,,,,,,,2,,58,0
21959,note_on,,119,0,13,,,,,,,,,,,,,,,,12,,65,0
21959,note_on,,119,0,12,,,,,,,,,,,,,,,,11,,70,0
21960,note_on,,1,0,15,,,,,,,,,,,,,,,,15,,46,72
21960,note_on,,0,0,15,,,,,,,,,,,,,,,,15,,65,72
21960,note_on,,0,0,15,,,,,,,,,,,,,,,,15,,70,72
21960,note_on,,1,0,14,,,,,,,,,,,,,,,,13,,46,72
21960,note_on,,241,0,10,,,,,,,,,,,,,,,,8,,46,72
21960,note_on,,1,0,12,,,,,,,,,,,,,,,,11,,65,72
21960,note_on,,121,0,11,,,,,,,,,,,,,,,,10,,74,72
21960,note_on,,1,0,6,,,,,,,,,,,,,,,,2,,46,72
21960,note_on,,121,0,7,,,,,,,,,,,,,,,,5,,74,72
21960,note_on,,121,0,5,,,,,,,,,,,,,,,,1,,74,72
21960,note_on,,1,0,9,,,,,,,,,,,,,,,,7,,58,72
21960,note_on,,1,0,8,,,,,,,,,,,,,,,,6,,62,72
21960,note_on,,1,0,13,,,,,,,,,,,,,,,,12,,62,72
21960,note_on,,0,0,15,,,,,,,,,,,,,,,,15,,62,72
22019,note_on,,0,0,15,,,,,,,,,,,,,,,,15,,65,0
22019,note_on,,59,0,15,,,,,,,,,,,,,,,,15,,46,0
22019,note_on,,0,0,15,,,,,,,,,,,,,,,,15,,62,0
22019,note_on,,59,0,14,,,,,,,,,,,,,,,,13,,46,0
22019,note_on,,0,0,15,,,,,,,,,,,,,,,,15,,70,0
22019,note_on,,59,0,10,,,,,,,,,,,,,,,,8,,46,0
22019,note_on,,59,0,7,,,,,,,,,,,,,,,,5,,74,0
22019,note_on,,59,0,6,,,,,,,,,,,,,,,,2,,46,0
22019,note_on,,59,0,5,,,,,,,,,,,,,,,,1,,74,0
22019,note_on,,59,0,11,,,,,,,,,,,,,,,,10,,74,0
22020,note_on,,1,0,15,,,,,,,,,,,,,,,,15,,48,72
22020,note_on,,1,0,10,,,,,,,,,,,,,,,,8,,48,72
22020,note_on,,1,0,5,,,,,,,,,,,,,,,,1,,75,72
22020,note_on,,0,0,15,,,,,,,,,,,,,,,,15,,69,72
22020,note_on,,1,0,7,,,,,,,,,,,,,,,,5,,75,72
22020,note_on,,0,0,15,,,,,,,,,,,,,,,,15,,60,72
22020,note_on,,1,0,14,,,,,,,,,,,,,,,,13,,48,72
22020,note_on,,1,0,6,,,,,,,,,,,,,,,,2,,48,72
22020,note_on,,1,0,11,,,,,,,,,,,,,,,,10,,75,72
22020,note_on,,0,0,15,,,,,,,,,,,,,,,,15,,63,72
22079,note_on,,119,0,13,,,,,,,,,,,,,,,,12,,62,0
22079,note_on,,59,0,14,,,,,,,,,,,,,,,,13,,48,0
22079,note_on,,59,0,6,,,,,,,,,,,,,,,,2,,48,0
22079,note_on,,119,0,8,,,,,,,,,,,,,,,,6,,62,0
22079,note_on,,119,0,12,,,,,,,,,,,,,,,,11,,65,0
22079,note_on,,59,0,10,,,,,,,,,,,,,,,,8,,48,0
22079,note_on,,0,0,15,,,,,,,,,,,,,,,,15,,60,0
22079,note_on,,59,0,11,,,,,,,,,,,,,,,,10,,75,0
22079,note_on,,59,0,5,,,,,,,,,,,,,,,,1,,75,0
22079,note_on,,59,0,15,,,,,,,,,,,,,,,,15,,48,0
22079,note_on,,0,0,15,,,,,,,,,,,,,,,,15,,69,0
22079,note_on,,59,0,7,,,,,,,,,,,,,,,,5,,75,0
22079,note_on,,0,0,15,,,,,,,,,,,,,,,,15,,63,0
22079,note_on,,119,0,9,,,,,,,,,,,,,,,,7,,58,0
22080,note_on,,1,0,14,,,,,,,,,,,,,,,,13,,50,72
22080,note_on,,1,0,11,,,,,,,,,,,,,,,,10,,77,72
22080,note_on,,1,0,15,,,,,,,,,,,,,,,,15,,50,72
22080,note_on,,1,0,10,,,,,,,,,,,,,,,,8,,50,72
22080,note_on,,1,0,6,,,,,,,,,,,,,,,,2,,50,72
22080,note_on,,0,0,15,,,,,,,,,,,,,,,,15,,70,72
22080,note_on,,0,0,15,,,,,,,,,,,,,,,,15,,58,72
22080,note_on,,0,0,15,,,,,,,,,,,,,,,,15,,65,72
22080,note_on,,1,0,5,,,,,,,,,,,,,,,,1,,77,72
22080,note_on,,1,0,7,,,,,,,,,,,,,,,,5,,77,72
22139,note_on,,59,0,7,,,,,,,,,,,,,,,,5,,77,0
22139,note_on,,59,0,15,,,,,,,,,,,,,,,,15,,50,0
22139,note_on,,0,0,15,,,,,,,,,,,,,,,,15,,58,0
22139,note_on,,59,0,10,,,,,,,,,,,,,,,,8,,50,0
22139,note_on,,59,0,11,,,,,,,,,,,,,,,,10,,77,0
22139,note_on,,59,0,14,,,,,,,,,,,,,,,,13,,50,0
22139,note_on,,59,0,5,,,,,,,,,,,,,,,,1,,77,0
22139,note_on,,59,0,6,,,,,,,,,,,,,,,,2,,50,0
22140,note_on,,1,0,10,,,,,,,,,,,,,,,,8,,46,72
22140,note_on,,1,0,5,,,,,,,,,,,,,,,,1,,70,72
22140,note_on,,1,0,14,,,,,,,,,,,,,,,,13,,46,72
22140,note_on,,1,0,6,,,,,,,,,,,,,,,,2,,46,72
22140,note_on,,0,0,15,,,,,,,,,,,,,,,,15,,62,72
22140,note_on,,1,0,7,,,,,,,,,,,,,,,,5,,70,72
22140,note_on,,1,0,11,,,,,,,,,,,,,,,,10,,70,72
22140,note_on,,1,0,15,,,,,,,,,,,,,,,,15,,46,72
22199,note_on,,59,0,10,,,,,,,,,,,,,,,,8,,46,0
22199,note_on,,59,0,5,,,,,,,,,,,,,,,,1,,70,0
22199,note_on,,0,0,15,,,,,,,,,,,,,,,,15,,62,0
22199,note_on,,59,0,15,,,,,,,,,,,,,,,,15,,65,0
22199,note_on,,59,0,14,,,,,,,,,,,,,,,,13,,46,0
22199,note_on,,59,0,11,,,,,,,,,,,,,,,,10,,70,0
22199,note_on,,59,0,6,,,,,,,,,,,,,,,,2,,46,0
22199,note_on,,0,0,15,,,,,,,,,,,,,,,,15,,46,0
22199,note_on,,59,0,7,,,,,,,,,,,,,,,,5,,70,0
22200,note_on,,1,0,6,,,,,,,,,,,,,,,,2,,50,72
22200,note_on,,121,0,13,,,,,,,,,,,,,,,,12,,62,72
22200,note_on,,0,0,15,,,,,,,,,,,,,,,,15,,65,72
22200,note_on,,121,0,8,,,,,,,,,,,,,,,,6,,58,72
22200,note_on,,121,0,12,,,,,,,,,,,,,,,,11,,70,72
22200,note_on,,1,0,10,,,,,,,,,,,,,,,,8,,50,72
22200,note_on,,1,0,14,,,,,,,,,,,,,,,,13,,50,72
22200,note_on,,0,0,15,,,,,,,,,,,,,,,,15,,58,72
22200,note_on,,121,0,9,,,,,,,,,,,,,,,,7,,62,72
22200,note_on,,1,0,15,,,,,,,,,,,,,,,,15,,50,72
22200,note_on,,1,0,5,,,,,,,,,,,,,,,,1,,65,72
22200,note_on,,1,0,11,,,,,,,,,,,,,,,,10,,77,72
22200,note_on,,1,0,7,,,,,,,,,,,,,,,,5,,65,72
22259,note_on,,59,0,14,,,,,,,,,,,,,,,,13,,50,0
22259,note_on,,59,0,15,,,,,,,,,,,,,,,,15,,70,0
22259,note_on,,59,0,12,,,,,,,,,,,,,,,,11,,70,0
22259,note_on,,59,0,8,,,,,,,,,,,,,,,,6,,58,0
22259,note_on,,0,0,15,,,,,,,,,,,,,,,,15,,50,0
22259,note_on,,0,0,15,,,,,,,,,,,,,,,,15,,65,0
22259,note_on,,59,0,13,,,,,,,,,,,,,,,,12,,62,0
22259,note_on,,59,0,5,,,,,,,,,,,,,,,,1,,65,0
22259,note_on,,0,0,15,,,,,,,,,,,,,,,,15,,58,0
22259,note_on,,59,0,9,,,,,,,,,,,,,,,,7,,62,0
22259,note_on,,59,0,10,,,,,,,,,,,,,,,,8,,50,0
22259,note_on,,59,0,6,,,,,,,,,,,,,,,,2,,50,0
22259,note_on,,59,0,7,,,,,,,,,,,,,,,,5,,65,0
22259,note_on,,59,0,11,,,,,,,,,,,,,,,,10,,77,0
22260,note_on,,1,0,10,,,,,,,,,,,,,,,,8,,51,72
22260,note_on,,1,0,7,,,,,,,,,,,,,,,,5,,67,72
22260,note_on,,1,0,9,,,,,,,,,,,,,,,,7,,60,72
22260,note_on,,1,0,15,,,,,,,,,,,,,,,,15,,51,72
22260,note_on,,1,0,8,,,,,,,,,,,,,,,,6,,63,72
22260,note_on,,1,0,12,,,,,,,,,,,,,,,,11,,75,72
22260,note_on,,1,0,14,,,,,,,,,,,,,,,,13,,51,72
22260,note_on,,1,0,5,,,,,,,,,,,,,,,,1,,67,72
22260,note_on,,1,0,6,,,,,,,,,,,,,,,,2,,51,72
22260,note_on,,0,0,15,,,,,,,,,,,,,,,,15,,63,72
22260,note_on,,0,0,15,,,,,,,,,,,,,,,,15,,67,72
22260,note_on,,0,0,15,,,,,,,,,,,,,,,,15,,70,72
22260,note_on,,1,0,11,,,,,,,,,,,,,,,,10,,79,72
22260,note_on,,1,0,13,,,,,,,,,,,,,,,,12,,60,72
22319,note_on,,59,0,8,,,,,,,,,,,,,,,,6,,63,0
22319,note_on,,59,0,6,,,,,,,,,,,,,,,,2,,51,0
22319,note_on,,59,0,14,,,,,,,,,,,,,,,,13,,51,0
22319,note_on,,59,0,12,,,,,,,,,,,,,,,,11,,75,0
22319,note_on,,59,0,7,,,,,,,,,,,,,,,,5,,67,0
22319,note_on,,59,0,9,,,,,,,,,,,,,,,,7,,60,0
22319,note_on,,59,0,11,,,,,,,,,,,,,,,,10,,79,0
22319,note_on,,59,0,13,,,,,,,,,,,,,,,,12,,60,0
22319,note_on,,0,0,15,,,,,,,,,,,,,,,,15,,63,0
22319,note_on,,0,0,15,,,,,,,,,,,,,,,,15,,67,0
22319,note_on,,59,0,5,,,,,,,,,,,,,,,,1,,67,0
22319,note_on,,0,0,15,,,,,,,,,,,,,,,,15,,70,0
22319,note_on,,59,0,15,,,,,,,,,,,,,,,,15,,51,0
22319,note_on,,59,0,10,,,,,,,,,,,,,,,,8,,51,0
22320,note_on,,1,0,12,,,,,,,,,,,,,,,,11,,76,72
22320,note_on,,1,0,9,,,,,,,,,,,,,,,,7,,60,72
22320,note_on,,1,0,14,,,,,,,,,,,,,,,,13,,53,72
22320,note_on,,1,0,11,,,,,,,,,,,,,,,,10,,81,72
22320,note_on,,1,0,5,,,,,,,,,,,,,,,,1,,69,72
22320,note_on,,1,0,8,,,,,,,,,,,,,,,,6,,63,72
22320,note_on,,0,0,15,,,,,,,,,,,,,,,,15,,69,72
22320,note_on,,1,0,6,,,,,,,,,,,,,,,,2,,53,72
22320,note_on,,1,0,15,,,,,,,,,,,,,,,,15,,53,72
22320,note_on,,1,0,13,,,,,,,,,,,,,,,,12,,60,72
22320,note_on,,0,0,15,,,,,,,,,,,,,,,,15,,65,72
22320,note_on,,1,0,10,,,,,,,,,,,,,,,,8,,53,72
22320,note_on,,0,0,15,,,,,,,,,,,,,,,,15,,60,72
22320,note_on,,1,0,7,,,,,,,,,,,,,,,,5,,69,72
22379,note_on,,59,0,6,,,,,,,,,,,,,,,,2,,53,0
22379,note_on,,59,0,14,,,,,,,,,,,,,,,,13,,53,0
22379,note_on,,59,0,15,,,,,,,,,,,,,,,,15,,53,0
22380,note_on,,1,0,14,,,,,,,,,,,,,,,,13,,41,72
22380,note_on,,1,0,6,,,,,,,,,,,,,,,,2,,41,72
22380,note_on,,1,0,15,,,,,,,,,,,,,,,,15,,41,72
22409,note_on,,89,0,13,,,,,,,,,,,,,,,,12,,60,0
22409,note_on,,89,0,12,,,,,,,,,,,,,,,,11,,76,0
22409,note_on,,89,0,11,,,,,,,,,,,,,,,,10,,81,0
22439,note_on,,119,0,7,,,,,,,,,,,,,,,,5,,69,0
22439,note_on,,59,0,15,,,,,,,,,,,,,,,,15,,69,0
22439,note_on,,0,0,15,,,,,,,,,,,,,,,,15,,60,0
22439,note_on,,0,0,15,,,,,,,,,,,,,,,,15,,41,0
22439,note_on,,59,0,6,,,,,,,,,,,,,,,,2,,41,0
22439,note_on,,0,0,15,,,,,,,,,,,,,,,,15,,65,0
22439,note_on,,119,0,9,,,,,,,,,,,,,,,,7,,60,0
22439,note_on,,119,0,5,,,,,,,,,,,,,,,,1,,69,0
22439,note_on,,119,0,10,,,,,,,,,,,,,,,,8,,53,0
22439,note_on,,59,0,14,,,,,,,,,,,,,,,,13,,41,0
22439,note_on,,119,0,8,,,,,,,,,,,,,,,,6,,63,0
22440,note_on,,0,0,15,,,,,,,,,,,,,,,,15,,62,72
22440,note_on,,0,0,15,,,,,,,,,,,,,,,,15,,58,72
22440,note_on,,31,0,11,,,,,,,,,,,,,,,,10,,82,72
22440,note_on,,1,0,14,,,,,,,,,,,,,,,,13,,43,72
22440,note_on,,31,0,13,,,,,,,,,,,,,,,,12,,58,72
22440,note_on,,1,0,8,,,,,,,,,,,,,,,,6,,62,72
22440,note_on,,1,0,10,,,,,,,,,,,,,,,,8,,55,72
22440,note_on,,31,0,12,,,,,,,,,,,,,,,,11,,74,72
22440,note_on,,1,0,7,,,,,,,,,,,,,,,,5,,70,72
22440,note_on,,1,0,15,,,,,,,,,,,,,,,,15,,43,72
22440,note_on,,0,0,15,,,,,,,,,,,,,,,,15,,67,72
22440,note_on,,1,0,9,,,,,,,,,,,,,,,,7,,58,72
22440,note_on,,1,0,5,,,,,,,,,,,,,,,,1,,70,72
22440,note_on,,1,0,6,,,,,,,,,,,,,,,,2,,43,72
22499,note_on,,59,0,15,,,,,,,,,,,,,,,,15,,43,0
22499,note_on,,59,0,6,,,,,,,,,,,,,,,,2,,43,0
22499,note_on,,59,0,14,,,,,,,,,,,,,,,,13,,43,0
22500,note_on,,1,0,14,,,,,,,,,,,,,,,,13,,55,72
22500,note_on,,1,0,6,,,,,,,,,,,,,,,,2,,55,72
22500,note_on,,1,0,15,,,,,,,,,,,,,,,,15,,55,72
22529,note_on,,89,0,11,,,,,,,,,,,,,,,,10,,82,0
22529,note_on,,89,0,12,,,,,,,,,,,,,,,,11,,74,0
22529,note_on,,89,0,13,,,,,,,,,,,,,,,,12,,58,0
22559,note_on,,119,0,5,,,,,,,,,,,,,,,,1,,70,0
22559,note_on,,0,0,15,,,,,,,,,,,,,,,,15,,55,0
22559,note_on,,0,0,15,,,,,,,,,,,,,,,,15,,58,0
22559,note_on,,0,0,15,,,,,,,,,,,,,,,,15,,62,0
22559,note_on,,119,0,10,,,,,,,,,,,,,,,,8,,55,0
22559,note_on,,119,0,7,,,,,,,,,,,,,,,,5,,70,0
22559,note_on,,59,0,6,,,,,,,,,,,,,,,,2,,55,0
22559,note_on,,119,0,8,,,,,,,,,,,,,,,,6,,62,0
22559,note_on,,59,0,15,,,,,,,,,,,,,,,,15,,67,0
22559,note_on,,59,0,14,,,,,,,,,,,,,,,,13,,55,0
22559,note_on,,119,0,9,,,,,,,,,,,,,,,,7,,58,0
22560,note_on,,1,0,10,,,,,,,,,,,,,,,,8,,51,72
22560,note_on,,1,0,14,,,,,,,,,,,,,,,,13,,51,72
22560,note_on,,31,0,11,,,,,,,,,,,,,,,,10,,82,72
22560,note_on,,1,0,8,,,,,,,,,,,,,,,,6,,67,72
22560,note_on,,31,0,12,,,,,,,,,,,,,,,,11,,72,72
22560,note_on,,1,0,5,,,,,,,,,,,,,,,,1,,70,72
22560,note_on,,0,0,15,,,,,,,,,,,,,,,,15,,72,72
22560,note_on,,1,0,6,,,,,,,,,,,,,,,,2,,51,72
22560,note_on,,1,0,9,,,,,,,,,,,,,,,,7,,60,72
22560,note_on,,1,0,7,,,,,,,,,,,,,,,,5,,70,72
22560,note_on,,0,0,15,,,,,,,,,,,,,,,,15,,67,72
22560,note_on,,1,0,15,,,,,,,,,,,,,,,,15,,51,72
22560,note_on,,0,0,15,,,,,,,,,,,,,,,,15,,63,72
22560,note_on,,31,0,13,,,,,,,,,,,,,,,,12,,67,72
22619,note_on,,59,0,6,,,,,,,,,,,,,,,,2,,51,0
22619,note_on,,59,0,14,,,,,,,,,,,,,,,,13,,51,0
22619,note_on,,59,0,15,,,,,,,,,,,,,,,,15,,51,0
22620,note_on,,1,0,14,,,,,,,,,,,,,,,,13,,48,72
22620,note_on,,1,0,6,,,,,,,,,,,,,,,,2,,48,72
22620,note_on,,1,0,15,,,,,,,,,,,,,,,,15,,48,72
22649,note_on,,89,0,11,,,,,,,,,,,,,,,,10,,82,0
22649,note_on,,89,0,13,,,,,,,,,,,,,,,,12,,67,0
22649,note_on,,89,0,12,,,,,,,,,,,,,,,,11,,72,0
22679,note_on,,119,0,8,,,,,,,,,,,,,,,,6,,67,0
22679,note_on,,119,0,7,,,,,,,,,,,,,,,,5,,70,0
22679,note_on,,59,0,6,,,,,,,,,,,,,,,,2,,48,0
22679,note_on,,119,0,9,,,,,,,,,,,,,,,,7,,60,0
22679,note_on,,119,0,10,,,,,,,,,,,,,,,,8,,51,0
22679,note_on,,59,0,15,,,,,,,,,,,,,,,,15,,72,0
22679,note_on,,59,0,14,,,,,,,,,,,,,,,,13,,48,0
22679,note_on,,0,0,15,,,,,,,,,,,,,,,,15,,63,0
22679,note_on,,0,0,15,,,,,,,,,,,,,,,,15,,48,0
22679,note_on,,0,0,15,,,,,,,,,,,,,,,,15,,67,0
22679,note_on,,119,0,5,,,,,,,,,,,,,,,,1,,70,0
22680,note_on,,1,0,7,,,,,,,,,,,,,,,,5,,69,72
22680,note_on,,1,0,14,,,,,,,,,,,,,,,,13,,53,72
22680,note_on,,1,0,9,,,,,,,,,,,,,,,,7,,60,72
22680,note_on,,31,0,11,,,,,,,,,,,,,,,,10,,81,72
22680,note_on,,31,0,13,,,,,,,,,,,,,,,,12,,65,72
22680,note_on,,1,0,6,,,,,,,,,,,,,,,,2,,53,72
22680,note_on,,31,0,12,,,,,,,,,,,,,,,,11,,72,72
22680,note_on,,0,0,15,,,,,,,,,,,,,,,,15,,65,72
22680,note_on,,0,0,15,,,,,,,,,,,,,,,,15,,60,72
22680,note_on,,1,0,8,,,,,,,,,,,,,,,,6,,65,72
22680,note_on,,1,0,10,,,,,,,,,,,,,,,,8,,53,72
22680,note_on,,1,0,15,,,,,,,,,,,,,,,,15,,53,72
22680,note_on,,0,0,15,,,,,,,,,,,,,,,,15,,69,72
22680,note_on,,1,0,5,,,,,,,,,,,,,,,,1,,69,72
22739,note_on,,59,0,14,,,,,,,,,,,,,,,,13,,53,0
22739,note_on,,59,0,6,,,,,,,,,,,,,,,,2,,53,0
22739,note_on,,59,0,15,,,,,,,,,,,,,,,,15,,53,0
22740,note_on,,1,0,14,,,,,,,,,,,,,,,,13,,41,72
22740,note_on,,1,0,15,,,,,,,,,,,,,,,,15,,41,72
22740,note_on,,1,0,6,,,,,,,,,,,,,,,,2,,41,72
22769,note_on,,89,0,13,,,,,,,,,,,,,,,,12,,65,0
22769,note_on,,89,0,11,,,,,,,,,,,,,,,,10,,81,0
22769,note_on,,89,0,12,,,,,,,,,,,,,,,,11,,72,0
22799,note_on,,59,0,14,,,,,,,,,,,,,,,,13,,41,0
22799,note_on,,119,0,5,,,,,,,,,,,,,,,,1,,69,0
22799,note_on,,119,0,9,,,,,,,,,,,,,,,,7,,60,0
22799,note_on,,119,0,7,,,,,,,,,,,,,,,,5,,69,0
22799,note_on,,59,0,6,,,,,,,,,,,,,,,,2,,41,0
22799,note_on,,119,0,8,,,,,,,,,,,,,,,,6,,65,0
22799,note_on,,59,0,15,,,,,,,,,,,,,,,,15,,69,0
22799,note_on,,0,0,15,,,,,,,,,,,,,,,,15,,65,0
22799,note_on,,0,0,15,,,,,,,,,,,,,,,,15,,60,0
22799,note_on,,0,0,15,,,,,,,,,,,,,,,,15,,41,0
22799,note_on,,119,0,10,,,,,,,,,,,,,,,,8,,53,0
22800,note_on,,1,0,7,,,,,,,,,,,,,,,,5,,70,72
22800,note_on,,31,0,13,,,,,,,,,,,,,,,,12,,65,72
22800,note_on,,1,0,15,,,,,,,,,,,,,,,,15,,46,72
22800,note_on,,0,0,15,,,,,,,,,,,,,,,,15,,65,72
22800,note_on,,0,0,15,,,,,,,,,,,,,,,,15,,62,72
22800,note_on,,1,0,9,,,,,,,,,,,,,,,,7,,62,72
22800,note_on,,0,0,15,,,,,,,,,,,,,,,,15,,70,72
22800,note_on,,31,0,11,,,,,,,,,,,,,,,,10,,82,72
22800,note_on,,1,0,6,,,,,,,,,,,,,,,,2,,46,72
22800,note_on,,1,0,10,,,,,,,,,,,,,,,,8,,46,72
22800,note_on,,1,0,14,,,,,,,,,,,,,,,,13,,46,72
22800,note_on,,1,0,5,,,,,,,,,,,,,,,,1,,70,72
22800,note_on,,1,0,8,,,,,,,,,,,,,,,,6,,65,72
22800,note_on,,31,0,12,,,,,,,,,,,,,,,,11,,74,72
22859,note_on,,59,0,6,,,,,,,,,,,,,,,,2,,46,0
22859,note_on,,59,0,15,,,,,,,,,,,,,,,,15,,46,0
22859,note_on,,59,0,14,,,,,,,,,,,,,,,,13,,46,0
22860,note_on,,1,0,6,,,,,,,,,,,,,,,,2,,53,72
22860,note_on,,1,0,15,,,,,,,,,,,,,,,,15,,53,72
22860,note_on,,1,0,14,,,,,,,,,,,,,,,,13,,53,72
22889,note_on,,89,0,11,,,,,,,,,,,,,,,,10,,82,0
22889,note_on,,89,0,13,,,,,,,,,,,,,,,,12,,65,0
22889,note_on,,89,0,12,,,,,,,,,,,,,,,,11,,74,0
22919,note_on,,59,0,6,,,,,,,,,,,,,,,,2,,53,0
22919,note_on,,59,0,15,,,,,,,,,,,,,,,,15,,70,0
22919,note_on,,0,0,15,,,,,,,,,,,,,,,,15,,65,0
22919,note_on,,0,0,15,,,,,,,,,,,,,,,,15,,53,0
22919,note_on,,119,0,10,,,,,,,,,,,,,,,,8,,46,0
22919,note_on,,0,0,15,,,,,,,,,,,,,,,,15,,62,0
22919,note_on,,119,0,9,,,,,,,,,,,,,,,,7,,62,0
22919,note_on,,59,0,14,,,,,,,,,,,,,,,,13,,53,0
22919,note_on,,119,0,8,,,,,,,,,,,,,,,,6,,65,0
22919,note_on,,119,0,7,,,,,,,,,,,,,,,,5,,70,0
22919,note_on,,119,0,5,,,,,,,,,,,,,,,,1,,70,0
22920,note_on,,1,0,14,,,,,,,,,,,,,,,,13,,55,72
22920,note_on,,1,0,9,,,,,,,,,,,,,,,,7,,58,72
22920,note_on,,0,0,15,,,,,,,,,,,,,,,,15,,58,72
22920,note_on,,1,0,15,,,,,,,,,,,,,,,,15,,55,72
22920,note_on,,31,0,13,,,,,,,,,,,,,,,,12,,58,72
22920,note_on,,1,0,6,,,,,,,,,,,,,,,,2,,55,72
22979,note_on,,0,0,15,,,,,,,,,,,,,,,,15,,58,0
22979,note_on,,59,0,9,,,,,,,,,,,,,,,,7,,58,0
22979,note_on,,59,0,13,,,,,,,,,,,,,,,,12,,58,0
22979,note_on,,59,0,15,,,,,,,,,,,,,,,,15,,55,0
22979,note_on,,59,0,14,,,,,,,,,,,,,,,,13,,55,0
22979,note_on,,59,0,6,,,,,,,,,,,,,,,,2,,55,0
22980,note_on,,1,0,15,,,,,,,,,,,,,,,,15,,57,72
22980,note_on,,0,0,15,,,,,,,,,,,,,,,,15,,60,72
22980,note_on,,1,0,13,,,,,,,,,,,,,,,,12,,60,72
22980,note_on,,1,0,6,,,,,,,,,,,,,,,,2,,57,72
22980,note_on,,1,0,9,,,,,,,,,,,,,,,,7,,60,72
22980,note_on,,1,0,14,,,,,,,,,,,,,,,,13,,57,72
23039,note_on,,59,0,9,,,,,,,,,,,,,,,,7,,60,0
23039,note_on,,59,0,13,,,,,,,,,,,,,,,,12,,60,0
23039,note_on,,59,0,6,,,,,,,,,,,,,,,,2,,57,0
23039,note_on,,59,0,15,,,,,,,,,,,,,,,,15,,57,0
23039,note_on,,0,0,15,,,,,,,,,,,,,,,,15,,60,0
23039,note_on,,59,0,14,,,,,,,,,,,,,,,,13,,57,0
23040,note_on,,1,0,14,,,,,,,,,,,,,,,,13,,58,72
23040,note_on,,1,0,13,,,,,,,,,,,,,,,,12,,62,72
23040,note_on,,0,0,15,,,,,,,,,,,,,,,,15,,62,72
23040,note_on,,1,0,15,,,,,,,,,,,,,,,,15,,58,72
23040,note_on,,1,0,9,,,,,,,,,,,,,,,,7,,62,72
23040,note_on,,1,0,6,,,,,,,,,,,,,,,,2,,58,72
23099,note_on,,59,0,9,,,,,,,,,,,,,,,,7,,62,0
23099,note_on,,59,0,15,,,,,,,,,,,,,,,,15,,62,0
23099,note_on,,59,0,13,,,,,,,,,,,,,,,,12,,62,0
23100,note_on,,1,0,15,,,,,,,,,,,,,,,,15,,65,72
23100,note_on,,1,0,9,,,,,,,,,,,,,,,,7,,58,72
23100,note_on,,1,0,13,,,,,,,,,,,,,,,,12,,58,72
23159,note_on,,59,0,9,,,,,,,,,,,,,,,,7,,58,0
23159,note_on,,119,0,6,,,,,,,,,,,,,,,,2,,58,0
23159,note_on,,59,0,15,,,,,,,,,,,,,,,,15,,58,0
23159,note_on,,0,0,15,,,,,,,,,,,,,,,,15,,65,0
23159,note_on,,59,0,13,,,,,,,,,,,,,,,,12,,58,0
23159,note_on,,119,0,14,,,,,,,,,,,,,,,,13,,58,0
23160,note_on,,1,0,14,,,,,,,,,,,,,,,,13,,46,72
23160,note_on,,1,0,13,,,,,,,,,,,,,,,,12,,65,72
23160,note_on,,0,0,15,,,,,,,,,,,,,,,,15,,70,72
23160,note_on,,241,0,8,,,,,,,,,,,,,,,,6,,62,72
23160,note_on,,0,0,15,,,,,,,,,,,,,,,,15,,62,72
23160,note_on,,1,0,15,,,,,,,,,,,,,,,,15,,46,72
23160,note_on,,241,0,10,,,,,,,,,,,,,,,,8,,46,72
23160,note_on,,1,0,6,,,,,,,,,,,,,,,,2,,46,72
23160,note_on,,271,0,12,,,,,,,,,,,,,,,,11,,62,72
23160,note_on,,1,0,9,,,,,,,,,,,,,,,,7,,65,72
23160,note_on,,0,0,15,,,,,,,,,,,,,,,,15,,65,72
23219,note_on,,59,0,13,,,,,,,,,,,,,,,,12,,65,0
23219,note_on,,59,0,9,,,,,,,,,,,,,,,,7,,65,0
23219,note_on,,0,0,15,,,,,,,,,,,,,,,,15,,62,0
23219,note_on,,0,0,15,,,,,,,,,,,,,,,,15,,70,0
23219,note_on,,0,0,15,,,,,,,,,,,,,,,,15,,65,0
23219,note_on,,59,0,12,,,,,,,,,,,,,,,,11,,62,0
23219,note_on,,59,0,8,,,,,,,,,,,,,,,,6,,62,0
23219,note_on,,59,0,15,,,,,,,,,,,,,,,,15,,46,0
23219,note_on,,59,0,14,,,,,,,,,,,,,,,,13,,46,0
23219,note_on,,59,0,10,,,,,,,,,,,,,,,,8,,46,0
23219,note_on,,59,0,6,,,,,,,,,,,,,,,,2,,46,0
23220,note_on,,0,0,15,,,,,,,,,,,,,,,,15,,69,72
23220,note_on,,0,0,15,,,,,,,,,,,,,,,,15,,63,72
23220,note_on,,1,0,15,,,,,,,,,,,,,,,,15,,48,72
23220,note_on,,1,0,13,,,,,,,,,,,,,,,,12,,57,72
23220,note_on,,1,0,8,,,,,,,,,,,,,,,,6,,63,72
23220,note_on,,1,0,9,,,,,,,,,,,,,,,,7,,57,72
23220,note_on,,1,0,10,,,,,,,,,,,,,,,,8,,48,72
23220,note_on,,1,0,12,,,,,,,,,,,,,,,,11,,63,72
23220,note_on,,1,0,6,,,,,,,,,,,,,,,,2,,48,72
23220,note_on,,1,0,14,,,,,,,,,,,,,,,,13,,48,72
23279,note_on,,59,0,9,,,,,,,,,,,,,,,,7,,57,0
23279,note_on,,0,0,15,,,,,,,,,,,,,,,,15,,63,0
23279,note_on,,0,0,15,,,,,,,,,,,,,,,,15,,69,0
23279,note_on,,59,0,15,,,,,,,,,,,,,,,,15,,48,0
23279,note_on,,59,0,10,,,,,,,,,,,,,,,,8,,48,0
23279,note_on,,59,0,8,,,,,,,,,,,,,,,,6,,63,0
23279,note_on,,59,0,6,,,,,,,,,,,,,,,,2,,48,0
23279,note_on,,59,0,13,,,,,,,,,,,,,,,,12,,57,0
23279,note_on,,59,0,12,,,,,,,,,,,,,,,,11,,63,0
23279,note_on,,59,0,14,,,,,,,,,,,,,,,,13,,48,0
23280,note_on,,1,0,12,,,,,,,,,,,,,,,,11,,65,72
23280,note_on,,1,0,6,,,,,,,,,,,,,,,,2,,50,72
23280,note_on,,1,0,8,,,,,,,,,,,,,,,,6,,65,72
23280,note_on,,1,0,15,,,,,,,,,,,,,,,,15,,50,72
23280,note_on,,0,0,15,,,,,,,,,,,,,,,,15,,70,72
23280,note_on,,0,0,15,,,,,,,,,,,,,,,,15,,65,72
23280,note_on,,1,0,10,,,,,,,,,,,,,,,,8,,50,72
23280,note_on,,1,0,9,,,,,,,,,,,,,,,,7,,58,72
23280,note_on,,1,0,13,,,,,,,,,,,,,,,,12,,58,72
23280,note_on,,1,0,14,,,,,,,,,,,,,,,,13,,50,72
23339,note_on,,59,0,9,,,,,,,,,,,,,,,,7,,58,0
23339,note_on,,59,0,14,,,,,,,,,,,,,,,,13,,50,0
23339,note_on,,59,0,6,,,,,,,,,,,,,,,,2,,50,0
23339,note_on,,59,0,8,,,,,,,,,,,,,,,,6,,65,0
23339,note_on,,59,0,13,,,,,,,,,,,,,,,,12,,58,0
23339,note_on,,59,0,12,,,,,,,,,,,,,,,,11,,65,0
23339,note_on,,0,0,15,,,,,,,,,,,,,,,,15,,65,0
23339,note_on,,59,0,15,,,,,,,,,,,,,,,,15,,50,0
23339,note_on,,59,0,10,,,,,,,,,,,,,,,,8,,50,0
23340,note_on,,1,0,12,,,,,,,,,,,,,,,,11,,62,72
23340,note_on,,1,0,13,,,,,,,,,,,,,,,,12,,53,72
23340,note_on,,1,0,6,,,,,,,,,,,,,,,,2,,46,72
23340,note_on,,1,0,9,,,,,,,,,,,,,,,,7,,53,72
23340,note_on,,1,0,10,,,,,,,,,,,,,,,,8,,46,72
23340,note_on,,1,0,14,,,,,,,,,,,,,,,,13,,46,72
23340,note_on,,0,0,15,,,,,,,,,,,,,,,,15,,62,72
23340,note_on,,1,0,8,,,,,,,,,,,,,,,,6,,62,72
23340,note_on,,1,0,15,,,,,,,,,,,,,,,,15,,46,72
23399,note_on,,0,0,15,,,,,,,,,,,,,,,,15,,62,0
23399,note_on,,59,0,14,,,,,,,,,,,,,,,,13,,46,0
23399,note_on,,59,0,9,,,,,,,,,,,,,,,,7,,53,0
23399,note_on,,59,0,10,,,,,,,,,,,,,,,,8,,46,0
23399,note_on,,59,0,12,,,,,,,,,,,,,,,,11,,62,0
23399,note_on,,59,0,8,,,,,,,,,,,,,,,,6,,62,0
23399,note_on,,59,0,15,,,,,,,,,,,,,,,,15,,46,0
23399,note_on,,59,0,6,,,,,,,,,,,,,,,,2,,46,0
23399,note_on,,59,0,13,,,,,,,,,,,,,,,,12,,53,0
23400,note_on,,1,0,9,,,,,,,,,,,,,,,,7,,53,72
23400,note_on,,1,0,12,,,,,,,,,,,,,,,,11,,65,72
23400,note_on,,0,0,15,,,,,,,,,,,,,,,,15,,65,72
23400,note_on,,1,0,14,,,,,,,,,,,,,,,,13,,50,72
23400,note_on,,1,0,6,,,,,,,,,,,,,,,,2,,50,72
23400,note_on,,1,0,10,,,,,,,,,,,,,,,,8,,50,72
23400,note_on,,1,0,8,,,,,,,,,,,,,,,,6,,65,72
23400,note_on,,1,0,13,,,,,,,,,,,,,,,,12,,58,72
23400,note_on,,1,0,15,,,,,,,,,,,,,,,,15,,50,72
23459,note_on,,59,0,9,,,,,,,,,,,,,,,,7,,53,0
23459,note_on,,59,0,14,,,,,,,,,,,,,,,,13,,50,0
23459,note_on,,59,0,6,,,,,,,,,,,,,,,,2,,50,0
23459,note_on,,59,0,10,,,,,,,,,,,,,,,,8,,50,0
23459,note_on,,59,0,8,,,,,,,,,,,,,,,,6,,65,0
23459,note_on,,59,0,13,,,,,,,,,,,,,,,,12,,58,0
23459,note_on,,59,0,12,,,,,,,,,,,,,,,,11,,65,0
23459,note_on,,59,0,15,,,,,,,,,,,,,,,,15,,70,0
23459,note_on,,0,0,15,,,,,,,,,,,,,,,,15,,65,0
23459,note_on,,0,0,15,,,,,,,,,,,,,,,,15,,50,0
23460,note_on,,1,0,10,,,,,,,,,,,,,,,,8,,52,72
23460,note_on,,1,0,6,,,,,,,,,,,,,,,,2,,52,72
23460,note_on,,1,0,13,,,,,,,,,,,,,,,,12,,58,72
23460,note_on,,0,0,15,,,,,,,,,,,,,,,,15,,60,72
23460,note_on,,1,0,15,,,,,,,,,,,,,,,,15,,52,72
23460,note_on,,0,0,15,,,,,,,,,,,,,,,,15,,67,72
23460,note_on,,1,0,8,,,,,,,,,,,,,,,,6,,67,72
23460,note_on,,1,0,9,,,,,,,,,,,,,,,,7,,60,72
23460,note_on,,1,0,12,,,,,,,,,,,,,,,,11,,67,72
23460,note_on,,1,0,14,,,,,,,,,,,,,,,,13,,52,72
23519,note_on,,59,0,14,,,,,,,,,,,,,,,,13,,52,0
23519,note_on,,0,0,15,,,,,,,,,,,,,,,,15,,67,0
23519,note_on,,0,0,15,,,,,,,,,,,,,,,,15,,60,0
23519,note_on,,59,0,6,,,,,,,,,,,,,,,,2,,52,0
23519,note_on,,59,0,10,,,,,,,,,,,,,,,,8,,52,0
23519,note_on,,59,0,13,,,,,,,,,,,,,,,,12,,58,0
23519,note_on,,59,0,8,,,,,,,,,,,,,,,,6,,67,0
23519,note_on,,59,0,9,,,,,,,,,,,,,,,,7,,60,0
23519,note_on,,59,0,12,,,,,,,,,,,,,,,,11,,67,0
23519,note_on,,59,0,15,,,,,,,,,,,,,,,,15,,52,0
23520,note_on,,1,0,6,,,,,,,,,,,,,,,,2,,53,72
23520,note_on,,0,0,15,,,,,,,,,,,,,,,,15,,69,72
23520,note_on,,1,0,14,,,,,,,,,,,,,,,,13,,53,72
23520,note_on,,0,0,15,,,,,,,,,,,,,,,,15,,60,72
23520,note_on,,0,0,15,,,,,,,,,,,,,,,,15,,65,72
23520,note_on,,1,0,8,,,,,,,,,,,,,,,,6,,69,72
23520,note_on,,1,0,12,,,,,,,,,,,,,,,,11,,60,72
23520,note_on,,1,0,13,,,,,,,,,,,,,,,,12,,57,72
23520,note_on,,1,0,15,,,,,,,,,,,,,,,,15,,53,72
23520,note_on,,1,0,10,,,,,,,,,,,,,,,,8,,53,72
23520,note_on,,1,0,9,,,,,,,,,,,,,,,,7,,60,72
23579,note_on,,59,0,8,,,,,,,,,,,,,,,,6,,69,0
23580,note_on,,1,0,8,,,,,,,,,,,,,,,,6,,65,72
23639,note_on,,119,0,6,,,,,,,,,,,,,,,,2,,53,0
23639,note_on,,119,0,14,,,,,,,,,,,,,,,,13,,53,0
23639,note_on,,119,0,13,,,,,,,,,,,,,,,,12,,57,0
23639,note_on,,119,0,9,,,,,,,,,,,,,,,,7,,60,0
23639,note_on,,119,0,12,,,,,,,,,,,,,,,,11,,60,0
23639,note_on,,59,0,8,,,,,,,,,,,,,,,,6,,65,0
23639,note_on,,0,0,15,,,,,,,,,,,,,,,,15,,69,0
23639,note_on,,119,0,15,,,,,,,,,,,,,,,,15,,53,0
23639,note_on,,119,0,10,,,,,,,,,,,,,,,,8,,53,0
23639,note_on,,0,0,15,,,,,,,,,,,,,,,,15,,65,0
23639,note_on,,0,0,15,,,,,,,,,,,,,,,,15,,60,0
23640,note_on,,721,0,7,,,,,,,,,,,,,,,,5,,69,72
23640,note_on,,0,0,15,,,,,,,,,,,,,,,,15,,65,72
23640,note_on,,0,0,15,,,,,,,,,,,,,,,,15,,60,72
23640,note_on,,751,0,11,,,,,,,,,,,,,,,,10,,69,72
23640,note_on,,0,0,15,,,,,,,,,,,,,,,,15,,57,72
23640,note_on,,1,0,14,,,,,,,,,,,,,,,,13,,53,72
23640,note_on,,1,0,6,,,,,,,,,,,,,,,,2,,53,72
23640,note_on,,1,0,13,,,,,,,,,,,,,,,,12,,60,72
23640,note_on,,1,0,15,,,,,,,,,,,,,,,,15,,53,72
23640,note_on,,1,0,8,,,,,,,,,,,,,,,,6,,60,72
23640,note_on,,1,0,10,,,,,,,,,,,,,,,,8,,53,72
23640,note_on,,721,0,5,,,,,,,,,,,,,,,,1,,69,72
23699,note_on,,59,0,14,,,,,,,,,,,,,,,,13,,53,0
23699,note_on,,59,0,10,,,,,,,,,,,,,,,,8,,53,0
23699,note_on,,59,0,6,,,,,,,,,,,,,,,,2,,53,0
23699,note_on,,59,0,5,,,,,,,,,,,,,,,,1,,69,0
23699,note_on,,59,0,15,,,,,,,,,,,,,,,,15,,53,0
23699,note_on,,0,0,15,,,,,,,,,,,,,,,,15,,60,0
23699,note_on,,59,0,11,,,,,,,,,,,,,,,,10,,69,0
23699,note_on,,0,0,15,,,,,,,,,,,,,,,,15,,57,0
23699,note_on,,0,0,15,,,,,,,,,,,,,,,,15,,65,0
23699,note_on,,59,0,13,,,,,,,,,,,,,,,,12,,60,0
23699,note_on,,59,0,8,,,,,,,,,,,,,,,,6,,60,0
23699,note_on,,59,0,7,,,,,,,,,,,,,,,,5,,69,0
23700,note_on,,1,0,6,,,,,,,,,,,,,,,,2,,55,72
23700,note_on,,1,0,5,,,,,,,,,,,,,,,,1,,70,72
23700,note_on,,0,0,15,,,,,,,,,,,,,,,,15,,58,72
23700,note_on,,0,0,15,,,,,,,,,,,,,,,,15,,64,72
23700,note_on,,1,0,15,,,,,,,,,,,,,,,,15,,55,72
23700,note_on,,1,0,14,,,,,,,,,,,,,,,,13,,55,72
23700,note_on,,1,0,7,,,,,,,,,,,,,,,,5,,70,72
23700,note_on,,1,0,8,,,,,,,,,,,,,,,,6,,64,72
23700,note_on,,1,0,10,,,,,,,,,,,,,,,,8,,55,72
23700,note_on,,1,0,13,,,,,,,,,,,,,,,,12,,64,72
23700,note_on,,1,0,11,,,,,,,,,,,,,,,,10,,70,72
23759,note_on,,59,0,7,,,,,,,,,,,,,,,,5,,70,0
23759,note_on,,59,0,6,,,,,,,,,,,,,,,,2,,55,0
23759,note_on,,59,0,8,,,,,,,,,,,,,,,,6,,64,0
23759,note_on,,59,0,10,,,,,,,,,,,,,,,,8,,55,0
23759,note_on,,59,0,13,,,,,,,,,,,,,,,,12,,64,0
23759,note_on,,59,0,15,,,,,,,,,,,,,,,,15,,55,0
23759,note_on,,0,0,15,,,,,,,,,,,,,,,,15,,64,0
23759,note_on,,0,0,15,,,,,,,,,,,,,,,,15,,58,0
23759,note_on,,59,0,11,,,,,,,,,,,,,,,,10,,70,0
23759,note_on,,59,0,14,,,,,,,,,,,,,,,,13,,55,0
23759,note_on,,59,0,5,,,,,,,,,,,,,,,,1,,70,0
23760,note_on,,1,0,5,,,,,,,,,,,,,,,,1,,72,72
23760,note_on,,1,0,13,,,,,,,,,,,,,,,,12,,65,72
23760,note_on,,1,0,10,,,,,,,,,,,,,,,,8,,57,72
23760,note_on,,1,0,8,,,,,,,,,,,,,,,,6,,65,72
23760,note_on,,1,0,7,,,,,,,,,,,,,,,,5,,72,72
23760,note_on,,1,0,15,,,,,,,,,,,,,,,,15,,57,72
23760,note_on,,0,0,15,,,,,,,,,,,,,,,,15,,60,72
23760,note_on,,1,0,14,,,,,,,,,,,,,,,,13,,57,72
23760,note_on,,1,0,6,,,,,,,,,,,,,,,,2,,57,72
23760,note_on,,0,0,15,,,,,,,,,,,,,,,,15,,65,72
23760,note_on,,1,0,11,,,,,,,,,,,,,,,,10,,72,72
23819,note_on,,59,0,11,,,,,,,,,,,,,,,,10,,72,0
23819,note_on,,59,0,14,,,,,,,,,,,,,,,,13,,57,0
23819,note_on,,59,0,10,,,,,,,,,,,,,,,,8,,57,0
23819,note_on,,59,0,15,,,,,,,,,,,,,,,,15,,57,0
23819,note_on,,59,0,6,,,,,,,,,,,,,,,,2,,57,0
23819,note_on,,59,0,5,,,,,,,,,,,,,,,,1,,72,0
23819,note_on,,0,0,15,,,,,,,,,,,,,,,,15,,65,0
23819,note_on,,59,0,7,,,,,,,,,,,,,,,,5,,72,0
23820,note_on,,1,0,6,,,,,,,,,,,,,,,,2,,53,72
23820,note_on,,0,0,15,,,,,,,,,,,,,,,,15,,69,72
23820,note_on,,1,0,15,,,,,,,,,,,,,,,,15,,53,72
23820,note_on,,1,0,7,,,,,,,,,,,,,,,,5,,69,72
23820,note_on,,1,0,5,,,,,,,,,,,,,,,,1,,69,72
23820,note_on,,1,0,11,,,,,,,,,,,,,,,,10,,69,72
23820,note_on,,1,0,14,,,,,,,,,,,,,,,,13,,53,72
23820,note_on,,1,0,10,,,,,,,,,,,,,,,,8,,53,72
23879,note_on,,59,0,6,,,,,,,,,,,,,,,,2,,53,0
23879,note_on,,0,0,15,,,,,,,,,,,,,,,,15,,69,0
23879,note_on,,59,0,10,,,,,,,,,,,,,,,,8,,53,0
23879,note_on,,59,0,15,,,,,,,,,,,,,,,,15,,60,0
23879,note_on,,59,0,5,,,,,,,,,,,,,,,,1,,69,0
23879,note_on,,0,0,15,,,,,,,,,,,,,,,,15,,53,0
23879,note_on,,119,0,8,,,,,,,,,,,,,,,,6,,65,0
23879,note_on,,59,0,11,,,,,,,,,,,,,,,,10,,69,0
23879,note_on,,59,0,14,,,,,,,,,,,,,,,,13,,53,0
23879,note_on,,119,0,13,,,,,,,,,,,,,,,,12,,65,0
23879,note_on,,59,0,7,,,,,,,,,,,,,,,,5,,69,0
23880,note_on,,1,0,11,,,,,,,,,,,,,,,,10,,72,72
23880,note_on,,1,0,14,,,,,,,,,,,,,,,,13,,57,72
23880,note_on,,1,0,5,,,,,,,,,,,,,,,,1,,72,72
23880,note_on,,1,0,6,,,,,,,,,,,,,,,,2,,57,72
23880,note_on,,1,0,7,,,,,,,,,,,,,,,,5,,72,72
23880,note_on,,1,0,15,,,,,,,,,,,,,,,,15,,57,72
23880,note_on,,0,0,15,,,,,,,,,,,,,,,,15,,65,72
23880,note_on,,1,0,10,,,,,,,,,,,,,,,,8,,57,72
23880,note_on,,0,0,15,,,,,,,,,,,,,,,,15,,72,72
23939,note_on,,59,0,15,,,,,,,,,,,,,,,,15,,57,0
23939,note_on,,59,0,7,,,,,,,,,,,,,,,,5,,72,0
23939,note_on,,0,0,15,,,,,,,,,,,,,,,,15,,72,0
23939,note_on,,59,0,6,,,,,,,,,,,,,,,,2,,57,0
23939,note_on,,59,0,11,,,,,,,,,,,,,,,,10,,72,0
23939,note_on,,59,0,5,,,,,,,,,,,,,,,,1,,72,0
23939,note_on,,59,0,10,,,,,,,,,,,,,,,,8,,57,0
23939,note_on,,59,0,14,,,,,,,,,,,,,,,,13,,57,0
23940,note_on,,1,0,10,,,,,,,,,,,,,,,,8,,58,72
23940,note_on,,1,0,15,,,,,,,,,,,,,,,,15,,58,72
23940,note_on,,1,0,7,,,,,,,,,,,,,,,,5,,74,72
23940,note_on,,1,0,5,,,,,,,,,,,,,,,,1,,74,72
23940,note_on,,1,0,6,,,,,,,,,,,,,,,,2,,58,72
23940,note_on,,0,0,15,,,,,,,,,,,,,,,,15,,74,72
23940,note_on,,1,0,14,,,,,,,,,,,,,,,,13,,58,72
23940,note_on,,1,0,11,,,,,,,,,,,,,,,,10,,74,72
23999,note_on,,0,0,15,,,,,,,,,,,,,,,,15,,74,0
23999,note_on,,0,0,15,,,,,,,,,,,,,,,,15,,58,0
23999,note_on,,59,0,15,,,,,,,,,,,,,,,,15,,65,0
23999,note_on,,59,0,14,,,,,,,,,,,,,,,,13,,58,0
23999,note_on,,59,0,6,,,,,,,,,,,,,,,,2,,58,0
23999,note_on,,59,0,7,,,,,,,,,,,,,,,,5,,74,0
23999,note_on,,59,0,10,,,,,,,,,,,,,,,,8,,58,0
23999,note_on,,59,0,11,,,,,,,,,,,,,,,,10,,74,0
23999,note_on,,59,0,5,,,,,,,,,,,,,,,,1,,74,0
24000,note_on,,1,0,11,,,,,,,,,,,,,,,,10,,76,72
24000,note_on,,0,0,15,,,,,,,,,,,,,,,,15,,64,72
24000,note_on,,0,0,15,,,,,,,,,,,,,,,,15,,67,72
24000,note_on,,1,0,15,,,,,,,,,,,,,,,,15,,60,72
24000,note_on,,1,0,14,,,,,,,,,,,,,,,,13,,60,72
24000,note_on,,1,0,6,,,,,,,,,,,,,,,,2,,60,72
24000,note_on,,1,0,5,,,,,,,,,,,,,,,,1,,76,72
24000,note_on,,1,0,7,,,,,,,,,,,,,,,,5,,76,72
24000,note_on,,1,0,10,,,,,,,,,,,,,,,,8,,60,72
24059,note_on,,59,0,5,,,,,,,,,,,,,,,,1,,76,0
24059,note_on,,59,0,7,,,,,,,,,,,,,,,,5,,76,0
24059,note_on,,59,0,11,,,,,,,,,,,,,,,,10,,76,0
24060,note_on,,1,0,7,,,,,,,,,,,,,,,,5,,72,72
24060,note_on,,1,0,5,,,,,,,,,,,,,,,,1,,72,72
24060,note_on,,1,0,11,,,,,,,,,,,,,,,,10,,72,72
24119,note_on,,0,0,15,,,,,,,,,,,,,,,,15,,67,0
24119,note_on,,119,0,14,,,,,,,,,,,,,,,,13,,60,0
24119,note_on,,59,0,11,,,,,,,,,,,,,,,,10,,72,0
24119,note_on,,59,0,7,,,,,,,,,,,,,,,,5,,72,0
24119,note_on,,119,0,15,,,,,,,,,,,,,,,,15,,60,0
24119,note_on,,119,0,10,,,,,,,,,,,,,,,,8,,60,0
24119,note_on,,119,0,6,,,,,,,,,,,,,,,,2,,60,0
24119,note_on,,59,0,5,,,,,,,,,,,,,,,,1,,72,0
24119,note_on,,0,0,15,,,,,,,,,,,,,,,,15,,64,0
24120,note_on,,1,0,15,,,,,,,,,,,,,,,,15,,60,72
24120,note_on,,0,0,15,,,,,,,,,,,,,,,,15,,72,72
24120,note_on,,0,0,15,,,,,,,,,,,,,,,,15,,67,72
24120,note_on,,1,0,7,,,,,,,,,,,,,,,,5,,76,72
24120,note_on,,241,0,13,,,,,,,,,,,,,,,,12,,60,72
24120,note_on,,481,0,9,,,,,,,,,,,,,,,,7,,60,72
24120,note_on,,0,0,15,,,,,,,,,,,,,,,,15,,64,72
24120,note_on,,1,0,5,,,,,,,,,,,,,,,,1,,76,72
24120,note_on,,1,0,14,,,,,,,,,,,,,,,,13,,60,72
24120,note_on,,1,0,11,,,,,,,,,,,,,,,,10,,76,72
24179,note_on,,59,0,13,,,,,,,,,,,,,,,,12,,60,0
24179,note_on,,59,0,15,,,,,,,,,,,,,,,,15,,60,0
24179,note_on,,0,0,15,,,,,,,,,,,,,,,,15,,72,0
24179,note_on,,0,0,15,,,,,,,,,,,,,,,,15,,67,0
24179,note_on,,59,0,5,,,,,,,,,,,,,,,,1,,76,0
24179,note_on,,59,0,14,,,,,,,,,,,,,,,,13,,60,0
24179,note_on,,59,0,7,,,,,,,,,,,,,,,,5,,76,0
24179,note_on,,0,0,15,,,,,,,,,,,,,,,,15,,64,0
24179,note_on,,59,0,9,,,,,,,,,,,,,,,,7,,60,0
24179,note_on,,59,0,11,,,,,,,,,,,,,,,,10,,76,0
24180,note_on,,1,0,9,,,,,,,,,,,,,,,,7,,62,72
24180,note_on,,1,0,5,,,,,,,,,,,,,,,,1,,77,72
24180,note_on,,1,0,7,,,,,,,,,,,,,,,,5,,77,72
24180,note_on,,1,0,13,,,,,,,,,,,,,,,,12,,62,72
24180,note_on,,1,0,11,,,,,,,,,,,,,,,,10,,77,72
24180,note_on,,1,0,15,,,,,,,,,,,,,,,,15,,62,72
24180,note_on,,0,0,15,,,,,,,,,,,,,,,,15,,71,72
24180,note_on,,0,0,15,,,,,,,,,,,,,,,,15,,65,72
24180,note_on,,1,0,14,,,,,,,,,,,,,,,,13,,62,72
24239,note_on,,59,0,11,,,,,,,,,,,,,,,,10,,77,0
24239,note_on,,59,0,9,,,,,,,,,,,,,,,,7,,62,0
24239,note_on,,59,0,5,,,,,,,,,,,,,,,,1,,77,0
24239,note_on,,59,0,13,,,,,,,,,,,,,,,,12,,62,0
24239,note_on,,59,0,14,,,,,,,,,,,,,,,,13,,62,0
24239,note_on,,59,0,7,,,,,,,,,,,,,,,,5,,77,0
24239,note_on,,0,0,15,,,,,,,,,,,,,,,,15,,65,0
24239,note_on,,0,0,15,,,,,,,,,,,,,,,,15,,71,0
24239,note_on,,59,0,15,,,,,,,,,,,,,,,,15,,62,0
24240,note_on,,1,0,15,,,,,,,,,,,,,,,,15,,64,72
24240,note_on,,1,0,11,,,,,,,,,,,,,,,,10,,79,72
24240,note_on,,0,0,15,,,,,,,,,,,,,,,,15,,67,72
24240,note_on,,1,0,9,,,,,,,,,,,,,,,,7,,64,72
24240,note_on,,1,0,7,,,,,,,,,,,,,,,,5,,79,72
24240,note_on,,1,0,13,,,,,,,,,,,,,,,,12,,64,72
24240,note_on,,1,0,5,,,,,,,,,,,,,,,,1,,79,72
24240,note_on,,0,0,15,,,,,,,,,,,,,,,,15,,72,72
24240,note_on,,1,0,14,,,,,,,,,,,,,,,,13,,64,72
24299,note_on,,59,0,9,,,,,,,,,,,,,,,,7,,64,0
24299,note_on,,0,0,15,,,,,,,,,,,,,,,,15,,67,0
24299,note_on,,59,0,14,,,,,,,,,,,,,,,,13,,64,0
24299,note_on,,59,0,13,,,,,,,,,,,,,,,,12,,64,0
24299,note_on,,59,0,15,,,,,,,,,,,,,,,,15,,64,0
24300,note_on,,1,0,14,,,,,,,,,,,,,,,,13,,60,72
24300,note_on,,1,0,9,,,,,,,,,,,,,,,,7,,60,72
24300,note_on,,1,0,13,,,,,,,,,,,,,,,,12,,60,72
24300,note_on,,0,0,15,,,,,,,,,,,,,,,,15,,64,72
24300,note_on,,1,0,15,,,,,,,,,,,,,,,,15,,60,72
24359,note_on,,59,0,9,,,,,,,,,,,,,,,,7,,60,0
24359,note_on,,59,0,13,,,,,,,,,,,,,,,,12,,60,0
24359,note_on,,59,0,15,,,,,,,,,,,,,,,,15,,72,0
24359,note_on,,0,0,15,,,,,,,,,,,,,,,,15,,60,0
24359,note_on,,0,0,15,,,,,,,,,,,,,,,,15,,64,0
24359,note_on,,59,0,14,,,,,,,,,,,,,,,,13,,60,0
24360,note_on,,1,0,9,,,,,,,,,,,,,,,,7,,67,72
24360,note_on,,1,0,13,,,,,,,,,,,,,,,,12,,67,72
24360,note_on,,241,0,10,,,,,,,,,,,,,,,,8,,48,72
24360,note_on,,241,0,6,,,,,,,,,,,,,,,,2,,48,72
24360,note_on,,0,0,15,,,,,,,,,,,,,,,,15,,64,72
24360,note_on,,0,0,15,,,,,,,,,,,,,,,,15,,72,72
24360,note_on,,0,0,15,,,,,,,,,,,,,,,,15,,76,72
24360,note_on,,1,0,15,,,,,,,,,,,,,,,,15,,48,72
24360,note_on,,721,0,12,,,,,,,,,,,,,,,,11,,64,72
24360,note_on,,481,0,8,,,,,,,,,,,,,,,,6,,64,72
24360,note_on,,1,0,14,,,,,,,,,,,,,,,,13,,48,72
24419,note_on,,59,0,6,,,,,,,,,,,,,,,,2,,48,0
24419,note_on,,0,0,15,,,,,,,,,,,,,,,,15,,64,0
24419,note_on,,59,0,14,,,,,,,,,,,,,,,,13,,48,0
24419,note_on,,59,0,8,,,,,,,,,,,,,,,,6,,64,0
24419,note_on,,59,0,9,,,,,,,,,,,,,,,,7,,67,0
24419,note_on,,59,0,15,,,,,,,,,,,,,,,,15,,48,0
24419,note_on,,0,0,15,,,,,,,,,,,,,,,,15,,76,0
24419,note_on,,0,0,15,,,,,,,,,,,,,,,,15,,72,0
24419,note_on,,59,0,10,,,,,,,,,,,,,,,,8,,48,0
24419,note_on,,59,0,12,,,,,,,,,,,,,,,,11,,64,0
24419,note_on,,59,0,13,,,,,,,,,,,,,,,,12,,67,0
24420,note_on,,1,0,9,,,,,,,,,,,,,,,,7,,59,72
24420,note_on,,1,0,14,,,,,,,,,,,,,,,,13,,50,72
24420,note_on,,1,0,6,,,,,,,,,,,,,,,,2,,50,72
24420,note_on,,1,0,8,,,,,,,,,,,,,,,,6,,65,72
24420,note_on,,0,0,15,,,,,,,,,,,,,,,,15,,71,72
24420,note_on,,1,0,12,,,,,,,,,,,,,,,,11,,65,72
24420,note_on,,1,0,13,,,,,,,,,,,,,,,,12,,59,72
24420,note_on,,1,0,10,,,,,,,,,,,,,,,,8,,50,72
24420,note_on,,0,0,15,,,,,,,,,,,,,,,,15,,50,72
24420,note_on,,0,0,15,,,,,,,,,,,,,,,,15,,65,72
24420,note_on,,1,0,15,,,,,,,,,,,,,,,,15,,74,72
24479,note_on,,59,0,6,,,,,,,,,,,,,,,,2,,50,0
24479,note_on,,59,0,9,,,,,,,,,,,,,,,,7,,59,0
24479,note_on,,59,0,15,,,,,,,,,,,,,,,,15,,74,0
24479,note_on,,59,0,8,,,,,,,,,,,,,,,,6,,65,0
24479,note_on,,59,0,13,,,,,,,,,,,,,,,,12,,59,0
24479,note_on,,0,0,15,,,,,,,,,,,,,,,,15,,50,0
24479,note_on,,0,0,15,,,,,,,,,,,,,,,,15,,71,0
24479,note_on,,0,0,15,,,,,,,,,,,,,,,,15,,65,0
24479,note_on,,59,0,12,,,,,,,,,,,,,,,,11,,65,0
24479,note_on,,59,0,10,,,,,,,,,,,,,,,,8,,50,0
24479,note_on,,59,0,14,,,,,,,,,,,,,,,,13,,50,0
24480,note_on,,1,0,14,,,,,,,,,,,,,,,,13,,52,72
24480,note_on,,1,0,10,,,,,,,,,,,,,,,,8,,52,72
24480,note_on,,1,0,9,,,,,,,,,,,,,,,,7,,60,72
24480,note_on,,1,0,6,,,,,,,,,,,,,,,,2,,52,72
24480,note_on,,1,0,8,,,,,,,,,,,,,,,,6,,67,72
24480,note_on,,1,0,12,,,,,,,,,,,,,,,,11,,67,72
24480,note_on,,1,0,15,,,,,,,,,,,,,,,,15,,52,72
24480,note_on,,0,0,15,,,,,,,,,,,,,,,,15,,72,72
24480,note_on,,0,0,15,,,,,,,,,,,,,,,,15,,67,72
24480,note_on,,1,0,13,,,,,,,,,,,,,,,,12,,60,72
24539,note_on,,59,0,12,,,,,,,,,,,,,,,,11,,67,0
24539,note_on,,59,0,9,,,,,,,,,,,,,,,,7,,60,0
24539,note_on,,0,0,15,,,,,,,,,,,,,,,,15,,67,0
24539,note_on,,59,0,14,,,,,,,,,,,,,,,,13,,52,0
24539,note_on,,59,0,15,,,,,,,,,,,,,,,,15,,52,0
24539,note_on,,59,0,6,,,,,,,,,,,,,,,,2,,52,0
24539,note_on,,59,0,8,,,,,,,,,,,,,,,,6,,67,0
24539,note_on,,299,0,7,,,,,,,,,,,,,,,,5,,79,0
24539,note_on,,299,0,5,,,,,,,,,,,,,,,,1,,79,0
24539,note_on,,299,0,11,,,,,,,,,,,,,,,,10,,79,0
24539,note_on,,59,0,10,,,,,,,,,,,,,,,,8,,52,0
24539,note_on,,59,0,13,,,,,,,,,,,,,,,,12,,60,0
24540,note_on,,1,0,6,,,,,,,,,,,,,,,,2,,48,72
24540,note_on,,1,0,11,,,,,,,,,,,,,,,,10,,72,72
24540,note_on,,1,0,5,,,,,,,,,,,,,,,,1,,72,72
24540,note_on,,1,0,15,,,,,,,,,,,,,,,,15,,48,72
24540,note_on,,1,0,9,,,,,,,,,,,,,,,,7,,55,72
24540,note_on,,1,0,14,,,,,,,,,,,,,,,,13,,48,72
24540,note_on,,1,0,12,,,,,,,,,,,,,,,,11,,64,72
24540,note_on,,1,0,7,,,,,,,,,,,,,,,,5,,72,72
24540,note_on,,1,0,8,,,,,,,,,,,,,,,,6,,64,72
24540,note_on,,0,0,15,,,,,,,,,,,,,,,,15,,64,72
24540,note_on,,1,0,13,,,,,,,,,,,,,,,,12,,67,72
24540,note_on,,1,0,10,,,,,,,,,,,,,,,,8,,48,72
24599,note_on,,59,0,11,,,,,,,,,,,,,,,,10,,72,0
24599,note_on,,59,0,15,,,,,,,,,,,,,,,,15,,72,0
24599,note_on,,59,0,12,,,,,,,,,,,,,,,,11,,64,0
24599,note_on,,0,0,15,,,,,,,,,,,,,,,,15,,48,0
24599,note_on,,0,0,15,,,,,,,,,,,,,,,,15,,64,0
24599,note_on,,59,0,13,,,,,,,,,,,,,,,,12,,67,0
24599,note_on,,59,0,9,,,,,,,,,,,,,,,,7,,55,0
24599,note_on,,59,0,10,,,,,,,,,,,,,,,,8,,48,0
24599,note_on,,59,0,8,,,,,,,,,,,,,,,,6,,64,0
24599,note_on,,59,0,7,,,,,,,,,,,,,,,,5,,72,0
24599,note_on,,59,0,6,,,,,,,,,,,,,,,,2,,48,0
24599,note_on,,59,0,14,,,,,,,,,,,,,,,,13,,48,0
24599,note_on,,59,0,5,,,,,,,,,,,,,,,,1,,72,0
24600,note_on,,0,0,15,,,,,,,,,,,,,,,,15,,65,72
24600,note_on,,0,0,15,,,,,,,,,,,,,,,,15,,70,72
24600,note_on,,1,0,5,,,,,,,,,,,,,,,,1,,70,72
24600,note_on,,1,0,15,,,,,,,,,,,,,,,,15,,50,72
24600,note_on,,1,0,13,,,,,,,,,,,,,,,,12,,65,72
24600,note_on,,1,0,11,,,,,,,,,,,,,,,,10,,70,72
24600,note_on,,1,0,12,,,,,,,,,,,,,,,,11,,65,72
24600,note_on,,1,0,9,,,,,,,,,,,,,,,,7,,53,72
24600,note_on,,1,0,10,,,,,,,,,,,,,,,,8,,50,72
24600,note_on,,1,0,8,,,,,,,,,,,,,,,,6,,65,72
24600,note_on,,1,0,7,,,,,,,,,,,,,,,,5,,70,72
24600,note_on,,1,0,14,,,,,,,,,,,,,,,,13,,50,72
24600,note_on,,1,0,6,,,,,,,,,,,,,,,,2,,50,72
24659,note_on,,59,0,8,,,,,,,,,,,,,,,,6,,65,0
24659,note_on,,59,0,6,,,,,,,,,,,,,,,,2,,50,0
24659,note_on,,0,0,15,,,,,,,,,,,,,,,,15,,70,0
24659,note_on,,59,0,10,,,,,,,,,,,,,,,,8,,50,0
24659,note_on,,59,0,11,,,,,,,,,,,,,,,,10,,70,0
24659,note_on,,59,0,7,,,,,,,,,,,,,,,,5,,70,0
24659,note_on,,59,0,14,,,,,,,,,,,,,,,,13,,50,0
24659,note_on,,59,0,9,,,,,,,,,,,,,,,,7,,53,0
24659,note_on,,59,0,12,,,,,,,,,,,,,,,,11,,65,0
24659,note_on,,59,0,13,,,,,,,,,,,,,,,,12,,65,0
24659,note_on,,0,0,15,,,,,,,,,,,,,,,,15,,65,0
24659,note_on,,59,0,5,,,,,,,,,,,,,,,,1,,70,0
24659,note_on,,59,0,15,,,,,,,,,,,,,,,,15,,50,0
24660,note_on,,1,0,10,,,,,,,,,,,,,,,,8,,52,72
24660,note_on,,1,0,14,,,,,,,,,,,,,,,,13,,52,72
24660,note_on,,1,0,15,,,,,,,,,,,,,,,,15,,52,72
24660,note_on,,0,0,15,,,,,,,,,,,,,,,,15,,72,72
24660,note_on,,1,0,5,,,,,,,,,,,,,,,,1,,72,72
24660,note_on,,0,0,15,,,,,,,,,,,,,,,,15,,67,72
24660,note_on,,0,0,15,,,,,,,,,,,,,,,,15,,60,72
24660,note_on,,1,0,12,,,,,,,,,,,,,,,,11,,67,72
24660,note_on,,1,0,13,,,,,,,,,,,,,,,,12,,60,72
24660,note_on,,1,0,8,,,,,,,,,,,,,,,,6,,67,72
24660,note_on,,1,0,6,,,,,,,,,,,,,,,,2,,52,72
24660,note_on,,1,0,11,,,,,,,,,,,,,,,,10,,72,72
24660,note_on,,1,0,9,,,,,,,,,,,,,,,,7,,60,72
24660,note_on,,1,0,7,,,,,,,,,,,,,,,,5,,72,72
24719,note_on,,59,0,10,,,,,,,,,,,,,,,,8,,52,0
24719,note_on,,59,0,6,,,,,,,,,,,,,,,,2,,52,0
24719,note_on,,59,0,9,,,,,,,,,,,,,,,,7,,60,0
24719,note_on,,59,0,8,,,,,,,,,,,,,,,,6,,67,0
24719,note_on,,0,0,15,,,,,,,,,,,,,,,,15,,67,0
24719,note_on,,0,0,15,,,,,,,,,,,,,,,,15,,60,0
24719,note_on,,59,0,14,,,,,,,,,,,,,,,,13,,52,0
24719,note_on,,59,0,7,,,,,,,,,,,,,,,,5,,72,0
24719,note_on,,59,0,15,,,,,,,,,,,,,,,,15,,52,0
24719,note_on,,0,0,15,,,,,,,,,,,,,,,,15,,72,0
24719,note_on,,59,0,13,,,,,,,,,,,,,,,,12,,60,0
24719,note_on,,59,0,11,,,,,,,,,,,,,,,,10,,72,0
24719,note_on,,59,0,5,,,,,,,,,,,,,,,,1,,72,0
24719,note_on,,59,0,12,,,,,,,,,,,,,,,,11,,67,0
24720,note_on,,1,0,5,,,,,,,,,,,,,,,,1,,69,72
24720,note_on,,1,0,15,,,,,,,,,,,,,,,,15,,53,72
24720,note_on,,0,0,15,,,,,,,,,,,,,,,,15,,69,72
24720,note_on,,0,0,15,,,,,,,,,,,,,,,,15,,65,72
24720,note_on,,0,0,15,,,,,,,,,,,,,,,,15,,60,72
24720,note_on,,1,0,12,,,,,,,,,,,,,,,,11,,60,72
24720,note_on,,1,0,14,,,,,,,,,,,,,,,,13,,53,72
24720,note_on,,1,0,13,,,,,,,,,,,,,,,,12,,65,72
24720,note_on,,1,0,7,,,,,,,,,,,,,,,,5,,69,72
24720,note_on,,1,0,11,,,,,,,,,,,,,,,,10,,69,72
24720,note_on,,1,0,8,,,,,,,,,,,,,,,,6,,69,72
24720,note_on,,1,0,9,,,,,,,,,,,,,,,,7,,60,72
24720,note_on,,1,0,6,,,,,,,,,,,,,,,,2,,53,72
24720,note_on,,1,0,10,,,,,,,,,,,,,,,,8,,53,72
24779,note_on,,0,0,15,,,,,,,,,,,,,,,,15,,65,0
24779,note_on,,59,0,12,,,,,,,,,,,,,,,,11,,60,0
24779,note_on,,59,0,14,,,,,,,,,,,,,,,,13,,53,0
24779,note_on,,59,0,13,,,,,,,,,,,,,,,,12,,65,0
24779,note_on,,59,0,15,,,,,,,,,,,,,,,,15,,53,0
24779,note_on,,0,0,15,,,,,,,,,,,,,,,,15,,69,0
24779,note_on,,0,0,15,,,,,,,,,,,,,,,,15,,60,0
24779,note_on,,59,0,6,,,,,,,,,,,,,,,,2,,53,0
24779,note_on,,59,0,11,,,,,,,,,,,,,,,,10,,69,0
24780,note_on,,0,0,15,,,,,,,,,,,,,,,,15,,57,72
24780,note_on,,1,0,6,,,,,,,,,,,,,,,,2,,53,72
24780,note_on,,1,0,13,,,,,,,,,,,,,,,,12,,53,72
24780,note_on,,1,0,15,,,,,,,,,,,,,,,,15,,53,72
24780,note_on,,0,0,15,,,,,,,,,,,,,,,,15,,60,72
24780,note_on,,1,0,12,,,,,,,,,,,,,,,,11,,65,72
24780,note_on,,1,0,11,,,,,,,,,,,,,,,,10,,65,72
24780,note_on,,1,0,14,,,,,,,,,,,,,,,,13,,53,72
24839,note_on,,59,0,11,,,,,,,,,,,,,,,,10,,65,0
24839,note_on,,119,0,5,,,,,,,,,,,,,,,,1,,69,0
24839,note_on,,119,0,9,,,,,,,,,,,,,,,,7,,60,0
24839,note_on,,119,0,10,,,,,,,,,,,,,,,,8,,53,0
24839,note_on,,59,0,13,,,,,,,,,,,,,,,,12,,53,0
24839,note_on,,59,0,12,,,,,,,,,,,,,,,,11,,65,0
24839,note_on,,59,0,14,,,,,,,,,,,,,,,,13,,53,0
24839,note_on,,0,0,15,,,,,,,,,,,,,,,,15,,57,0
24839,note_on,,0,0,15,,,,,,,,,,,,,,,,15,,60,0
24839,note_on,,59,0,15,,,,,,,,,,,,,,,,15,,53,0
24839,note_on,,119,0,7,,,,,,,,,,,,,,,,5,,69,0
24839,note_on,,59,0,6,,,,,,,,,,,,,,,,2,,53,0
24839,note_on,,119,0,8,,,,,,,,,,,,,,,,6,,69,0
24840,note_on,,1,0,12,,,,,,,,,,,,,,,,11,,69,72
24840,note_on,,1,0,14,,,,,,,,,,,,,,,,13,,57,72
24840,note_on,,1,0,13,,,,,,,,,,,,,,,,12,,57,72
24840,note_on,,1,0,6,,,,,,,,,,,,,,,,2,,57,72
24840,note_on,,0,0,15,,,,,,,,,,,,,,,,15,,65,72
24840,note_on,,0,0,15,,,,,,,,,,,,,,,,15,,60,72
24840,note_on,,1,0,11,,,,,,,,,,,,,,,,10,,69,72
24840,note_on,,1,0,15,,,,,,,,,,,,,,,,15,,57,72
24899,note_on,,59,0,15,,,,,,,,,,,,,,,,15,,57,0
24899,note_on,,59,0,6,,,,,,,,,,,,,,,,2,,57,0
24899,note_on,,59,0,13,,,,,,,,,,,,,,,,12,,57,0
24899,note_on,,0,0,15,,,,,,,,,,,,,,,,15,,65,0
24899,note_on,,0,0,15,,,,,,,,,,,,,,,,15,,60,0
24899,note_on,,59,0,11,,,,,,,,,,,,,,,,10,,69,0
24899,note_on,,59,0,14,,,,,,,,,,,,,,,,13,,57,0
24899,note_on,,59,0,12,,,,,,,,,,,,,,,,11,,69,0
24900,note_on,,1,0,12,,,,,,,,,,,,,,,,11,,65,72
24900,note_on,,1,0,13,,,,,,,,,,,,,,,,12,,53,72
24900,note_on,,1,0,11,,,,,,,,,,,,,,,,10,,65,72
24900,note_on,,61,0,7,,,,,,,,,,,,,,,,5,,72,72
24900,note_on,,61,0,8,,,,,,,,,,,,,,,,6,,69,72
24900,note_on,,1,0,14,,,,,,,,,,,,,,,,13,,53,72
24900,note_on,,61,0,9,,,,,,,,,,,,,,,,7,,65,72
24900,note_on,,1,0,6,,,,,,,,,,,,,,,,2,,53,72
24900,note_on,,0,0,15,,,,,,,,,,,,,,,,15,,57,72
24900,note_on,,0,0,15,,,,,,,,,,,,,,,,15,,60,72
24900,note_on,,1,0,15,,,,,,,,,,,,,,,,15,,53,72
24900,note_on,,61,0,10,,,,,,,,,,,,,,,,8,,53,72
24900,note_on,,61,0,5,,,,,,,,,,,,,,,,1,,72,72
24959,note_on,,59,0,8,,,,,,,,,,,,,,,,6,,69,0
24959,note_on,,59,0,6,,,,,,,,,,,,,,,,2,,53,0
24959,note_on,,59,0,9,,,,,,,,,,,,,,,,7,,65,0
24959,note_on,,59,0,13,,,,,,,,,,,,,,,,12,,53,0
24959,note_on,,59,0,14,,,,,,,,,,,,,,,,13,,53,0
24959,note_on,,59,0,7,,,,,,,,,,,,,,,,5,,72,0
24959,note_on,,59,0,15,,,,,,,,,,,,,,,,15,,53,0
24959,note_on,,59,0,5,,,,,,,,,,,,,,,,1,,72,0
24959,note_on,,59,0,11,,,,,,,,,,,,,,,,10,,65,0
24959,note_on,,0,0,15,,,,,,,,,,,,,,,,15,,60,0
24959,note_on,,0,0,15,,,,,,,,,,,,,,,,15,,57,0
24959,note_on,,59,0,10,,,,,,,,,,,,,,,,8,,53,0
24959,note_on,,59,0,12,,,,,,,,,,,,,,,,11,,65,0
24960,note_on,,1,0,11,,,,,,,,,,,,,,,,10,,69,72
24960,note_on,,1,0,14,,,,,,,,,,,,,,,,13,,57,72
24960,note_on,,0,0,15,,,,,,,,,,,,,,,,15,,60,72
24960,note_on,,1,0,10,,,,,,,,,,,,,,,,8,,57,72
24960,note_on,,1,0,6,,,,,,,,,,,,,,,,2,,57,72
24960,note_on,,0,0,15,,,,,,,,,,,,,,,,15,,65,72
24960,note_on,,1,0,13,,,,,,,,,,,,,,,,12,,57,72
24960,note_on,,1,0,8,,,,,,,,,,,,,,,,6,,65,72
24960,note_on,,1,0,9,,,,,,,,,,,,,,,,7,,60,72
24960,note_on,,1,0,12,,,,,,,,,,,,,,,,11,,69,72
24960,note_on,,1,0,15,,,,,,,,,,,,,,,,15,,57,72
24960,note_on,,1,0,7,,,,,,,,,,,,,,,,5,,77,72
24960,note_on,,1,0,5,,,,,,,,,,,,,,,,1,,77,72
25019,note_on,,59,0,13,,,,,,,,,,,,,,,,12,,57,0
25019,note_on,,59,0,11,,,,,,,,,,,,,,,,10,,69,0
25019,note_on,,59,0,14,,,,,,,,,,,,,,,,13,,57,0
25019,note_on,,0,0,15,,,,,,,,,,,,,,,,15,,65,0
25019,note_on,,59,0,15,,,,,,,,,,,,,,,,15,,57,0
25019,note_on,,59,0,6,,,,,,,,,,,,,,,,2,,57,0
25019,note_on,,59,0,12,,,,,,,,,,,,,,,,11,,69,0
25019,note_on,,0,0,15,,,,,,,,,,,,,,,,15,,60,0
25020,note_on,,1,0,15,,,,,,,,,,,,,,,,15,,53,72
25020,note_on,,1,0,13,,,,,,,,,,,,,,,,12,,53,72
25020,note_on,,0,0,15,,,,,,,,,,,,,,,,15,,60,72
25020,note_on,,1,0,12,,,,,,,,,,,,,,,,11,,65,72
25020,note_on,,1,0,14,,,,,,,,,,,,,,,,13,,53,72
25020,note_on,,1,0,11,,,,,,,,,,,,,,,,10,,65,72
25020,note_on,,0,0,15,,,,,,,,,,,,,,,,15,,57,72
25020,note_on,,1,0,6,,,,,,,,,,,,,,,,2,,53,72
25079,note_on,,119,0,8,,,,,,,,,,,,,,,,6,,65,0
25079,note_on,,119,0,10,,,,,,,,,,,,,,,,8,,57,0
25079,note_on,,119,0,7,,,,,,,,,,,,,,,,5,,77,0
25079,note_on,,59,0,15,,,,,,,,,,,,,,,,15,,53,0
25079,note_on,,0,0,15,,,,,,,,,,,,,,,,15,,60,0
25079,note_on,,59,0,14,,,,,,,,,,,,,,,,13,,53,0
25079,note_on,,59,0,13,,,,,,,,,,,,,,,,12,,53,0
25079,note_on,,119,0,9,,,,,,,,,,,,,,,,7,,60,0
25079,note_on,,119,0,5,,,,,,,,,,,,,,,,1,,77,0
25079,note_on,,59,0,12,,,,,,,,,,,,,,,,11,,65,0
25079,note_on,,59,0,11,,,,,,,,,,,,,,,,10,,65,0
25079,note_on,,59,0,6,,,,,,,,,,,,,,,,2,,53,0
25079,note_on,,0,0,15,,,,,,,,,,,,,,,,15,,57,0
25080,note_on,,1,0,14,,,,,,,,,,,,,,,,13,,58,72
25080,note_on,,1,0,12,,,,,,,,,,,,,,,,11,,70,72
25080,note_on,,1,0,6,,,,,,,,,,,,,,,,2,,58,72
25080,note_on,,1,0,7,,,,,,,,,,,,,,,,5,,74,72
25080,note_on,,1,0,13,,,,,,,,,,,,,,,,12,,58,72
25080,note_on,,1,0,11,,,,,,,,,,,,,,,,10,,70,72
25080,note_on,,1,0,10,,,,,,,,,,,,,,,,8,,58,72
25080,note_on,,1,0,5,,,,,,,,,,,,,,,,1,,74,72
25080,note_on,,0,0,15,,,,,,,,,,,,,,,,15,,62,72
25080,note_on,,0,0,15,,,,,,,,,,,,,,,,15,,65,72
25080,note_on,,1,0,15,,,,,,,,,,,,,,,,15,,58,72
25080,note_on,,1,0,8,,,,,,,,,,,,,,,,6,,65,72
25080,note_on,,1,0,9,,,,,,,,,,,,,,,,7,,62,72
25139,note_on,,59,0,14,,,,,,,,,,,,,,,,13,,58,0
25139,note_on,,59,0,12,,,,,,,,,,,,,,,,11,,70,0
25139,note_on,,0,0,15,,,,,,,,,,,,,,,,15,,62,0
25139,note_on,,59,0,11,,,,,,,,,,,,,,,,10,,70,0
25139,note_on,,59,0,13,,,,,,,,,,,,,,,,12,,58,0
25139,note_on,,59,0,15,,,,,,,,,,,,,,,,15,,58,0
25139,note_on,,0,0,15,,,,,,,,,,,,,,,,15,,65,0
25139,note_on,,59,0,6,,,,,,,,,,,,,,,,2,,58,0
25140,note_on,,1,0,14,,,,,,,,,,,,,,,,13,,53,72
25140,note_on,,1,0,11,,,,,,,,,,,,,,,,10,,65,72
25140,note_on,,1,0,12,,,,,,,,,,,,,,,,11,,65,72
25140,note_on,,1,0,13,,,,,,,,,,,,,,,,12,,53,72
25140,note_on,,1,0,15,,,,,,,,,,,,,,,,15,,53,72
25140,note_on,,0,0,15,,,,,,,,,,,,,,,,15,,62,72
25140,note_on,,0,0,15,,,,,,,,,,,,,,,,15,,58,72
25140,note_on,,1,0,6,,,,,,,,,,,,,,,,2,,53,72
25199,note_on,,119,0,9,,,,,,,,,,,,,,,,7,,62,0
25199,note_on,,119,0,8,,,,,,,,,,,,,,,,6,,65,0
25199,note_on,,59,0,14,,,,,,,,,,,,,,,,13,,53,0
25199,note_on,,119,0,7,,,,,,,,,,,,,,,,5,,74,0
25199,note_on,,59,0,13,,,,,,,,,,,,,,,,12,,53,0
25199,note_on,,59,0,6,,,,,,,,,,,,,,,,2,,53,0
25199,note_on,,119,0,5,,,,,,,,,,,,,,,,1,,74,0
25199,note_on,,59,0,12,,,,,,,,,,,,,,,,11,,65,0
25199,note_on,,59,0,11,,,,,,,,,,,,,,,,10,,65,0
25199,note_on,,119,0,10,,,,,,,,,,,,,,,,8,,58,0
25199,note_on,,0,0,15,,,,,,,,,,,,,,,,15,,58,0
25199,note_on,,0,0,15,,,,,,,,,,,,,,,,15,,62,0
25199,note_on,,59,0,15,,,,,,,,,,,,,,,,15,,53,0
25200,note_on,,1,0,10,,,,,,,,,,,,,,,,8,,53,72
25200,note_on,,1,0,6,,,,,,,,,,,,,,,,2,,57,72
25200,note_on,,1,0,14,,,,,,,,,,,,,,,,13,,57,72
25200,note_on,,1,0,9,,,,,,,,,,,,,,,,7,,65,72
25200,note_on,,1,0,5,,,,,,,,,,,,,,,,1,,72,72
25200,note_on,,1,0,12,,,,,,,,,,,,,,,,11,,69,72
25200,note_on,,1,0,7,,,,,,,,,,,,,,,,5,,72,72
25200,note_on,,1,0,13,,,,,,,,,,,,,,,,12,,57,72
25200,note_on,,0,0,15,,,,,,,,,,,,,,,,15,,60,72
25200,note_on,,0,0,15,,,,,,,,,,,,,,,,15,,65,72
25200,note_on,,1,0,15,,,,,,,,,,,,,,,,15,,57,72
25200,note_on,,1,0,11,,,,,,,,,,,,,,,,10,,69,72
25200,note_on,,1,0,8,,,,,,,,,,,,,,,,6,,69,72
25259,note_on,,59,0,11,,,,,,,,,,,,,,,,10,,69,0
25259,note_on,,59,0,12,,,,,,,,,,,,,,,,11,,69,0
25259,note_on,,0,0,15,,,,,,,,,,,,,,,,15,,60,0
25259,note_on,,59,0,15,,,,,,,,,,,,,,,,15,,57,0
25259,note_on,,59,0,6,,,,,,,,,,,,,,,,2,,57,0
25259,note_on,,59,0,13,,,,,,,,,,,,,,,,12,,57,0
25259,note_on,,59,0,14,,,,,,,,,,,,,,,,13,,57,0
25260,note_on,,1,0,13,,,,,,,,,,,,,,,,12,,53,72
25260,note_on,,1,0,14,,,,,,,,,,,,,,,,13,,53,72
25260,note_on,,1,0,12,,,,,,,,,,,,,,,,11,,65,72
25260,note_on,,1,0,11,,,,,,,,,,,,,,,,10,,65,72
25260,note_on,,1,0,6,,,,,,,,,,,,,,,,2,,53,72
25260,note_on,,0,0,15,,,,,,,,,,,,,,,,15,,57,72
25260,note_on,,1,0,15,,,,,,,,,,,,,,,,15,,53,72
25319,note_on,,59,0,12,,,,,,,,,,,,,,,,11,,65,0
25319,note_on,,119,0,7,,,,,,,,,,,,,,,,5,,72,0
25319,note_on,,59,0,6,,,,,,,,,,,,,,,,2,,53,0
25319,note_on,,119,0,10,,,,,,,,,,,,,,,,8,,53,0
25319,note_on,,59,0,13,,,,,,,,,,,,,,,,12,,53,0
25319,note_on,,119,0,8,,,,,,,,,,,,,,,,6,,69,0
25319,note_on,,119,0,5,,,,,,,,,,,,,,,,1,,72,0
25319,note_on,,59,0,11,,,,,,,,,,,,,,,,10,,65,0
25319,note_on,,59,0,14,,,,,,,,,,,,,,,,13,,53,0
25319,note_on,,119,0,9,,,,,,,,,,,,,,,,7,,65,0
25319,note_on,,0,0,15,,,,,,,,,,,,,,,,15,,57,0
25319,note_on,,59,0,15,,,,,,,,,,,,,,,,15,,53,0
25320,note_on,,1,0,13,,,,,,,,,,,,,,,,12,,57,72
25320,note_on,,0,0,15,,,,,,,,,,,,,,,,15,,60,72
25320,note_on,,1,0,15,,,,,,,,,,,,,,,,15,,57,72
25320,note_on,,1,0,6,,,,,,,,,,,,,,,,2,,57,72
25320,note_on,,1,0,14,,,,,,,,,,,,,,,,13,,57,72
25320,note_on,,1,0,12,,,,,,,,,,,,,,,,11,,72,72
25379,note_on,,59,0,6,,,,,,,,,,,,,,,,2,,57,0
25379,note_on,,0,0,15,,,,,,,,,,,,,,,,15,,60,0
25379,note_on,,59,0,12,,,,,,,,,,,,,,,,11,,72,0
25379,note_on,,59,0,14,,,,,,,,,,,,,,,,13,,57,0
25379,note_on,,59,0,15,,,,,,,,,,,,,,,,15,,65,0
25379,note_on,,0,0,15,,,,,,,,,,,,,,,,15,,57,0
25379,note_on,,59,0,13,,,,,,,,,,,,,,,,12,,57,0
25380,note_on,,61,0,11,,,,,,,,,,,,,,,,10,,72,72
25380,note_on,,1,0,12,,,,,,,,,,,,,,,,11,,69,72
25380,note_on,,1,0,15,,,,,,,,,,,,,,,,15,,53,72
25380,note_on,,0,0,15,,,,,,,,,,,,,,,,15,,60,72
25380,note_on,,0,0,15,,,,,,,,,,,,,,,,15,,69,72
25380,note_on,,1,0,13,,,,,,,,,,,,,,,,12,,53,72
25380,note_on,,1,0,14,,,,,,,,,,,,,,,,13,,53,72
25380,note_on,,1,0,6,,,,,,,,,,,,,,,,2,,53,72
25380,note_on,,0,0,15,,,,,,,,,,,,,,,,15,,65,72
25439,note_on,,59,0,11,,,,,,,,,,,,,,,,10,,72,0
25439,note_on,,0,0,15,,,,,,,,,,,,,,,,15,,60,0
25439,note_on,,0,0,15,,,,,,,,,,,,,,,,15,,69,0
25439,note_on,,59,0,13,,,,,,,,,,,,,,,,12,,53,0
25439,note_on,,59,0,6,,,,,,,,,,,,,,,,2,,53,0
25439,note_on,,59,0,12,,,,,,,,,,,,,,,,11,,69,0
25439,note_on,,59,0,15,,,,,,,,,,,,,,,,15,,53,0
25439,note_on,,59,0,14,,,,,,,,,,,,,,,,13,,53,0
25439,note_on,,0,0,15,,,,,,,,,,,,,,,,15,,65,0
25440,note_on,,1,0,13,,,,,,,,,,,,,,,,12,,69,72
25440,note_on,,1,0,6,,,,,,,,,,,,,,,,2,,57,72
25440,note_on,,1,0,12,,,,,,,,,,,,,,,,11,,72,72
25440,note_on,,1,0,14,,,,,,,,,,,,,,,,13,,57,72
25440,note_on,,0,0,15,,,,,,,,,,,,,,,,15,,60,72
25440,note_on,,0,0,15,,,,,,,,,,,,,,,,15,,65,72
25440,note_on,,1,0,15,,,,,,,,,,,,,,,,15,,57,72
25440,note_on,,1,0,11,,,,,,,,,,,,,,,,10,,77,72
25499,note_on,,59,0,15,,,,,,,,,,,,,,,,15,,57,0
25499,note_on,,0,0,15,,,,,,,,,,,,,,,,15,,60,0
25499,note_on,,59,0,12,,,,,,,,,,,,,,,,11,,72,0
25499,note_on,,59,0,13,,,,,,,,,,,,,,,,12,,69,0
25499,note_on,,59,0,6,,,,,,,,,,,,,,,,2,,57,0
25499,note_on,,59,0,14,,,,,,,,,,,,,,,,13,,57,0
25500,note_on,,1,0,15,,,,,,,,,,,,,,,,15,,53,72
25500,note_on,,0,0,15,,,,,,,,,,,,,,,,15,,57,72
25500,note_on,,1,0,13,,,,,,,,,,,,,,,,12,,65,72
25500,note_on,,1,0,6,,,,,,,,,,,,,,,,2,,53,72
25500,note_on,,1,0,14,,,,,,,,,,,,,,,,13,,53,72
25500,note_on,,1,0,12,,,,,,,,,,,,,,,,11,,69,72
25559,note_on,,59,0,13,,,,,,,,,,,,,,,,12,,65,0
25559,note_on,,119,0,11,,,,,,,,,,,,,,,,10,,77,0
25559,note_on,,59,0,14,,,,,,,,,,,,,,,,13,,53,0
25559,note_on,,0,0,15,,,,,,,,,,,,,,,,15,,53,0
25559,note_on,,59,0,12,,,,,,,,,,,,,,,,11,,69,0
25559,note_on,,59,0,15,,,,,,,,,,,,,,,,15,,65,0
25559,note_on,,59,0,6,,,,,,,,,,,,,,,,2,,53,0
25559,note_on,,0,0,15,,,,,,,,,,,,,,,,15,,57,0
25560,note_on,,1,0,14,,,,,,,,,,,,,,,,13,,58,72
25560,note_on,,1,0,6,,,,,,,,,,,,,,,,2,,58,72
25560,note_on,,0,0,15,,,,,,,,,,,,,,,,15,,65,72
25560,note_on,,1,0,12,,,,,,,,,,,,,,,,11,,74,72
25560,note_on,,1,0,15,,,,,,,,,,,,,,,,15,,58,72
25560,note_on,,1,0,13,,,,,,,,,,,,,,,,12,,70,72
25560,note_on,,1,0,11,,,,,,,,,,,,,,,,10,,74,72
25560,note_on,,0,0,15,,,,,,,,,,,,,,,,15,,62,72
25619,note_on,,59,0,14,,,,,,,,,,,,,,,,13,,58,0
25619,note_on,,59,0,12,,,,,,,,,,,,,,,,11,,74,0
25619,note_on,,0,0,15,,,,,,,,,,,,,,,,15,,62,0
25619,note_on,,59,0,15,,,,,,,,,,,,,,,,15,,58,0
25619,note_on,,59,0,6,,,,,,,,,,,,,,,,2,,58,0
25619,note_on,,59,0,13,,,,,,,,,,,,,,,,12,,70,0
25620,note_on,,1,0,6,,,,,,,,,,,,,,,,2,,53,72
25620,note_on,,1,0,14,,,,,,,,,,,,,,,,13,,53,72
25620,note_on,,1,0,12,,,,,,,,,,,,,,,,11,,65,72
25620,note_on,,1,0,15,,,,,,,,,,,,,,,,15,,53,72
25620,note_on,,0,0,15,,,,,,,,,,,,,,,,15,,58,72
25620,note_on,,1,0,13,,,,,,,,,,,,,,,,12,,65,72
25679,note_on,,59,0,13,,,,,,,,,,,,,,,,12,,65,0
25679,note_on,,59,0,6,,,,,,,,,,,,,,,,2,,53,0
25679,note_on,,59,0,12,,,,,,,,,,,,,,,,11,,65,0
25679,note_on,,59,0,14,,,,,,,,,,,,,,,,13,,53,0
25679,note_on,,0,0,15,,,,,,,,,,,,,,,,15,,58,0
25679,note_on,,59,0,15,,,,,,,,,,,,,,,,15,,65,0
25679,note_on,,119,0,11,,,,,,,,,,,,,,,,10,,74,0
25679,note_on,,0,0,15,,,,,,,,,,,,,,,,15,,53,0
25680,note_on,,1,0,6,,,,,,,,,,,,,,,,2,,57,72
25680,note_on,,1,0,11,,,,,,,,,,,,,,,,10,,72,72
25680,note_on,,1,0,15,,,,,,,,,,,,,,,,15,,57,72
25680,note_on,,0,0,15,,,,,,,,,,,,,,,,15,,65,72
25680,note_on,,0,0,15,,,,,,,,,,,,,,,,15,,60,72
25680,note_on,,1,0,13,,,,,,,,,,,,,,,,12,,69,72
25680,note_on,,1,0,14,,,,,,,,,,,,,,,,13,,57,72
25680,note_on,,1,0,12,,,,,,,,,,,,,,,,11,,77,72
25739,note_on,,59,0,12,,,,,,,,,,,,,,,,11,,77,0
25739,note_on,,59,0,13,,,,,,,,,,,,,,,,12,,69,0
25739,note_on,,59,0,14,,,,,,,,,,,,,,,,13,,57,0
25739,note_on,,59,0,15,,,,,,,,,,,,,,,,15,,57,0
25739,note_on,,59,0,6,,,,,,,,,,,,,,,,2,,57,0
25739,note_on,,0,0,15,,,,,,,,,,,,,,,,15,,60,0
25740,note_on,,1,0,13,,,,,,,,,,,,,,,,12,,65,72
25740,note_on,,1,0,12,,,,,,,,,,,,,,,,11,,65,72
25740,note_on,,1,0,14,,,,,,,,,,,,,,,,13,,53,72
25740,note_on,,1,0,6,,,,,,,,,,,,,,,,2,,53,72
25740,note_on,,1,0,15,,,,,,,,,,,,,,,,15,,53,72
25740,note_on,,0,0,15,,,,,,,,,,,,,,,,15,,57,72
25799,note_on,,0,0,15,,,,,,,,,,,,,,,,15,,57,0
25799,note_on,,59,0,12,,,,,,,,,,,,,,,,11,,65,0
25799,note_on,,59,0,6,,,,,,,,,,,,,,,,2,,53,0
25799,note_on,,59,0,14,,,,,,,,,,,,,,,,13,,53,0
25799,note_on,,59,0,15,,,,,,,,,,,,,,,,15,,53,0
25799,note_on,,59,0,13,,,,,,,,,,,,,,,,12,,65,0
25799,note_on,,119,0,11,,,,,,,,,,,,,,,,10,,72,0
25800,note_on,,1,0,6,,,,,,,,,,,,,,,,2,,57,72
25800,note_on,,1,0,13,,,,,,,,,,,,,,,,12,,69,72
25800,note_on,,1,0,12,,,,,,,,,,,,,,,,11,,69,72
25800,note_on,,0,0,15,,,,,,,,,,,,,,,,15,,60,72
25800,note_on,,1,0,14,,,,,,,,,,,,,,,,13,,57,72
25800,note_on,,1,0,15,,,,,,,,,,,,,,,,15,,57,72
25859,note_on,,59,0,13,,,,,,,,,,,,,,,,12,,69,0
25859,note_on,,0,0,15,,,,,,,,,,,,,,,,15,,57,0
25859,note_on,,0,0,15,,,,,,,,,,,,,,,,15,,60,0
25859,note_on,,59,0,15,,,,,,,,,,,,,,,,15,,65,0
25859,note_on,,59,0,14,,,,,,,,,,,,,,,,13,,57,0
25859,note_on,,59,0,6,,,,,,,,,,,,,,,,2,,57,0
25859,note_on,,59,0,12,,,,,,,,,,,,,,,,11,,69,0
25860,note_on,,0,0,15,,,,,,,,,,,,,,,,15,,60,72
25860,note_on,,1,0,15,,,,,,,,,,,,,,,,15,,53,72
25860,note_on,,0,0,15,,,,,,,,,,,,,,,,15,,65,72
25860,note_on,,61,0,11,,,,,,,,,,,,,,,,10,,72,72
25860,note_on,,1,0,12,,,,,,,,,,,,,,,,11,,65,72
25860,note_on,,0,0,15,,,,,,,,,,,,,,,,15,,69,72
25860,note_on,,541,0,5,,,,,,,,,,,,,,,,1,,65,72
25860,note_on,,1,0,13,,,,,,,,,,,,,,,,12,,65,72
25860,note_on,,541,0,8,,,,,,,,,,,,,,,,6,,60,72
25860,note_on,,541,0,10,,,,,,,,,,,,,,,,8,,53,72
25860,note_on,,1,0,14,,,,,,,,,,,,,,,,13,,53,72
25860,note_on,,541,0,9,,,,,,,,,,,,,,,,7,,57,72
25860,note_on,,1,0,6,,,,,,,,,,,,,,,,2,,53,72
25860,note_on,,541,0,7,,,,,,,,,,,,,,,,5,,65,72
25919,note_on,,59,0,5,,,,,,,,,,,,,,,,1,,65,0
25919,note_on,,59,0,14,,,,,,,,,,,,,,,,13,,53,0
25919,note_on,,59,0,12,,,,,,,,,,,,,,,,11,,65,0
25919,note_on,,59,0,9,,,,,,,,,,,,,,,,7,,57,0
25919,note_on,,59,0,8,,,,,,,,,,,,,,,,6,,60,0
25919,note_on,,59,0,6,,,,,,,,,,,,,,,,2,,53,0
25919,note_on,,59,0,13,,,,,,,,,,,,,,,,12,,65,0
25919,note_on,,0,0,15,,,,,,,,,,,,,,,,15,,65,0
25919,note_on,,0,0,15,,,,,,,,,,,,,,,,15,,69,0
25919,note_on,,0,0,15,,,,,,,,,,,,,,,,15,,60,0
25919,note_on,,59,0,15,,,,,,,,,,,,,,,,15,,53,0
25919,note_on,,59,0,10,,,,,,,,,,,,,,,,8,,53,0
25919,note_on,,59,0,11,,,,,,,,,,,,,,,,10,,72,0
25919,note_on,,59,0,7,,,,,,,,,,,,,,,,5,,65,0
25920,note_on,,1,0,11,,,,,,,,,,,,,,,,10,,84,72
25920,note_on,,1,0,12,,,,,,,,,,,,,,,,11,,69,72
25920,note_on,,1,0,10,,,,,,,,,,,,,,,,8,,57,72
25920,note_on,,0,0,15,,,,,,,,,,,,,,,,15,,60,72
25920,note_on,,1,0,6,,,,,,,,,,,,,,,,2,,45,72
25920,note_on,,0,0,15,,,,,,,,,,,,,,,,15,,72,72
25920,note_on,,0,0,15,,,,,,,,,,,,,,,,15,,65,72
25920,note_on,,1,0,5,,,,,,,,,,,,,,,,1,,72,72
25920,note_on,,1,0,9,,,,,,,,,,,,,,,,7,,60,72
25920,note_on,,1,0,8,,,,,,,,,,,,,,,,6,,65,72
25920,note_on,,1,0,13,,,,,,,,,,,,,,,,12,,69,72
25920,note_on,,1,0,15,,,,,,,,,,,,,,,,15,,45,72
25920,note_on,,1,0,14,,,,,,,,,,,,,,,,13,,45,72
25920,note_on,,1,0,7,,,,,,,,,,,,,,,,5,,72,72
25979,note_on,,59,0,13,,,,,,,,,,,,,,,,12,,69,0
25979,note_on,,59,0,12,,,,,,,,,,,,,,,,11,,69,0
25979,note_on,,0,0,15,,,,,,,,,,,,,,,,15,,72,0
25979,note_on,,59,0,6,,,,,,,,,,,,,,,,2,,45,0
25979,note_on,,59,0,14,,,,,,,,,,,,,,,,13,,45,0
25979,note_on,,59,0,15,,,,,,,,,,,,,,,,15,,45,0
25980,note_on,,1,0,15,,,,,,,,,,,,,,,,15,,41,72
25980,note_on,,1,0,12,,,,,,,,,,,,,,,,11,,65,72
25980,note_on,,1,0,13,,,,,,,,,,,,,,,,12,,65,72
25980,note_on,,1,0,6,,,,,,,,,,,,,,,,2,,41,72
25980,note_on,,1,0,14,,,,,,,,,,,,,,,,13,,41,72
25980,note_on,,0,0,15,,,,,,,,,,,,,,,,15,,69,72
26039,note_on,,59,0,13,,,,,,,,,,,,,,,,12,,65,0
26039,note_on,,119,0,5,,,,,,,,,,,,,,,,1,,72,0
26039,note_on,,119,0,10,,,,,,,,,,,,,,,,8,,57,0
26039,note_on,,119,0,7,,,,,,,,,,,,,,,,5,,72,0
26039,note_on,,119,0,11,,,,,,,,,,,,,,,,10,,84,0
26039,note_on,,59,0,15,,,,,,,,,,,,,,,,15,,41,0
26039,note_on,,0,0,15,,,,,,,,,,,,,,,,15,,69,0
26039,note_on,,59,0,12,,,,,,,,,,,,,,,,11,,65,0
26039,note_on,,119,0,8,,,,,,,,,,,,,,,,6,,65,0
26039,note_on,,59,0,14,,,,,,,,,,,,,,,,13,,41,0
26039,note_on,,59,0,6,,,,,,,,,,,,,,,,2,,41,0
26039,note_on,,119,0,9,,,,,,,,,,,,,,,,7,,60,0
26040,note_on,,1,0,10,,,,,,,,,,,,,,,,8,,53,72
26040,note_on,,1,0,14,,,,,,,,,,,,,,,,13,,45,72
26040,note_on,,1,0,9,,,,,,,,,,,,,,,,7,,60,72
26040,note_on,,1,0,11,,,,,,,,,,,,,,,,10,,81,72
26040,note_on,,1,0,8,,,,,,,,,,,,,,,,6,,65,72
26040,note_on,,1,0,5,,,,,,,,,,,,,,,,1,,69,72
26040,note_on,,1,0,6,,,,,,,,,,,,,,,,2,,45,72
26040,note_on,,1,0,7,,,,,,,,,,,,,,,,5,,69,72
26040,note_on,,0,0,15,,,,,,,,,,,,,,,,15,,72,72
26040,note_on,,1,0,13,,,,,,,,,,,,,,,,12,,72,72
26040,note_on,,1,0,15,,,,,,,,,,,,,,,,15,,45,72
26040,note_on,,1,0,12,,,,,,,,,,,,,,,,11,,77,72
26099,note_on,,59,0,14,,,,,,,,,,,,,,,,13,,45,0
26099,note_on,,59,0,6,,,,,,,,,,,,,,,,2,,45,0
26099,note_on,,59,0,13,,,,,,,,,,,,,,,,12,,72,0
26099,note_on,,59,0,12,,,,,,,,,,,,,,,,11,,77,0
26099,note_on,,0,0,15,,,,,,,,,,,,,,,,15,,72,0
26099,note_on,,59,0,15,,,,,,,,,,,,,,,,15,,45,0
26100,note_on,,1,0,12,,,,,,,,,,,,,,,,11,,65,72
26100,note_on,,1,0,15,,,,,,,,,,,,,,,,15,,41,72
26100,note_on,,0,0,15,,,,,,,,,,,,,,,,15,,69,72
26100,note_on,,1,0,13,,,,,,,,,,,,,,,,12,,65,72
26100,note_on,,1,0,6,,,,,,,,,,,,,,,,2,,41,72
26100,note_on,,1,0,14,,,,,,,,,,,,,,,,13,,41,72
26159,note_on,,59,0,13,,,,,,,,,,,,,,,,12,,65,0
26159,note_on,,119,0,7,,,,,,,,,,,,,,,,5,,69,0
26159,note_on,,119,0,5,,,,,,,,,,,,,,,,1,,69,0
26159,note_on,,119,0,9,,,,,,,,,,,,,,,,7,,60,0
26159,note_on,,59,0,12,,,,,,,,,,,,,,,,11,,65,0
26159,note_on,,119,0,8,,,,,,,,,,,,,,,,6,,65,0
26159,note_on,,119,0,10,,,,,,,,,,,,,,,,8,,53,0
26159,note_on,,59,0,15,,,,,,,,,,,,,,,,15,,65,0
26159,note_on,,119,0,11,,,,,,,,,,,,,,,,10,,81,0
26159,note_on,,0,0,15,,,,,,,,,,,,,,,,15,,60,0
26159,note_on,,0,0,15,,,,,,,,,,,,,,,,15,,41,0
26159,note_on,,0,0,15,,,,,,,,,,,,,,,,15,,69,0
26159,note_on,,59,0,6,,,,,,,,,,,,,,,,2,,41,0
26159,note_on,,59,0,14,,,,,,,,,,,,,,,,13,,41,0
26160,note_on,,1,0,6,,,,,,,,,,,,,,,,2,,48,72
26160,note_on,,1,0,10,,,,,,,,,,,,,,,,8,,48,72
26160,note_on,,1,0,9,,,,,,,,,,,,,,,,7,,60,72
26160,note_on,,1,0,8,,,,,,,,,,,,,,,,6,,64,72
26160,note_on,,0,0,15,,,,,,,,,,,,,,,,15,,60,72
26160,note_on,,0,0,15,,,,,,,,,,,,,,,,15,,67,72
26160,note_on,,1,0,5,,,,,,,,,,,,,,,,1,,67,72
26160,note_on,,1,0,13,,,,,,,,,,,,,,,,12,,64,72
26160,note_on,,1,0,7,,,,,,,,,,,,,,,,5,,67,72
26160,note_on,,1,0,12,,,,,,,,,,,,,,,,11,,76,72
26160,note_on,,1,0,11,,,,,,,,,,,,,,,,10,,79,72
26160,note_on,,1,0,15,,,,,,,,,,,,,,,,15,,48,72
26160,note_on,,1,0,14,,,,,,,,,,,,,,,,13,,48,72
26160,note_on,,0,0,15,,,,,,,,,,,,,,,,15,,64,72
26219,note_on,,0,0,15,,,,,,,,,,,,,,,,15,,64,0
26219,note_on,,59,0,6,,,,,,,,,,,,,,,,2,,48,0
26219,note_on,,59,0,14,,,,,,,,,,,,,,,,13,,48,0
26219,note_on,,59,0,13,,,,,,,,,,,,,,,,12,,64,0
26219,note_on,,59,0,15,,,,,,,,,,,,,,,,15,,48,0
26220,note_on,,1,0,6,,,,,,,,,,,,,,,,2,,48,72
26220,note_on,,1,0,15,,,,,,,,,,,,,,,,15,,48,72
26220,note_on,,0,0,15,,,,,,,,,,,,,,,,15,,64,72
26220,note_on,,1,0,13,,,,,,,,,,,,,,,,12,,60,72
26220,note_on,,1,0,14,,,,,,,,,,,,,,,,13,,48,72
26279,note_on,,59,0,15,,,,,,,,,,,,,,,,15,,48,0
26279,note_on,,119,0,8,,,,,,,,,,,,,,,,6,,64,0
26279,note_on,,119,0,5,,,,,,,,,,,,,,,,1,,67,0
26279,note_on,,119,0,9,,,,,,,,,,,,,,,,7,,60,0
26279,note_on,,59,0,13,,,,,,,,,,,,,,,,12,,60,0
26279,note_on,,59,0,6,,,,,,,,,,,,,,,,2,,48,0
26279,note_on,,119,0,10,,,,,,,,,,,,,,,,8,,48,0
26279,note_on,,59,0,14,,,,,,,,,,,,,,,,13,,48,0
26279,note_on,,119,0,7,,,,,,,,,,,,,,,,5,,67,0
26279,note_on,,119,0,12,,,,,,,,,,,,,,,,11,,76,0
26279,note_on,,119,0,11,,,,,,,,,,,,,,,,10,,79,0
26279,note_on,,0,0,15,,,,,,,,,,,,,,,,15,,64,0
26280,note_on,,1,0,13,,,,,,,,,,,,,,,,12,,64,72
26280,note_on,,1,0,14,,,,,,,,,,,,,,,,13,,52,72
26280,note_on,,1,0,6,,,,,,,,,,,,,,,,2,,52,72
26280,note_on,,1,0,15,,,,,,,,,,,,,,,,15,,52,72
26280,note_on,,0,0,15,,,,,,,,,,,,,,,,15,,67,72
26339,note_on,,59,0,14,,,,,,,,,,,,,,,,13,,52,0
26339,note_on,,0,0,15,,,,,,,,,,,,,,,,15,,52,0
26339,note_on,,59,0,6,,,,,,,,,,,,,,,,2,,52,0
26339,note_on,,59,0,13,,,,,,,,,,,,,,,,12,,64,0
26339,note_on,,59,0,15,,,,,,,,,,,,,,,,15,,67,0
26340,note_on,,1,0,6,,,,,,,,,,,,,,,,2,,48,72
26340,note_on,,0,0,15,,,,,,,,,,,,,,,,15,,64,72
26340,note_on,,1,0,15,,,,,,,,,,,,,,,,15,,48,72
26340,note_on,,61,0,9,,,,,,,,,,,,,,,,7,,60,72
26340,note_on,,1,0,13,,,,,,,,,,,,,,,,12,,60,72
26340,note_on,,1,0,14,,,,,,,,,,,,,,,,13,,48,72
26399,note_on,,59,0,14,,,,,,,,,,,,,,,,13,,48,0
26399,note_on,,0,0,15,,,,,,,,,,,,,,,,15,,67,0
26399,note_on,,0,0,15,,,,,,,,,,,,,,,,15,,48,0
26399,note_on,,0,0,15,,,,,,,,,,,,,,,,15,,64,0
26399,note_on,,59,0,9,,,,,,,,,,,,,,,,7,,60,0
26399,note_on,,59,0,13,,,,,,,,,,,,,,,,12,,60,0
26399,note_on,,59,0,6,,,,,,,,,,,,,,,,2,,48,0
26399,note_on,,59,0,15,,,,,,,,,,,,,,,,15,,60,0
26400,note_on,,1,0,13,,,,,,,,,,,,,,,,12,,62,72
26400,note_on,,0,0,15,,,,,,,,,,,,,,,,15,,62,72
26400,note_on,,1,0,15,,,,,,,,,,,,,,,,15,,53,72
26400,note_on,,1,0,6,,,,,,,,,,,,,,,,2,,53,72
26400,note_on,,1,0,9,,,,,,,,,,,,,,,,7,,62,72
26400,note_on,,1,0,14,,,,,,,,,,,,,,,,13,,53,72
26459,note_on,,59,0,14,,,,,,,,,,,,,,,,13,,53,0
26459,note_on,,59,0,9,,,,,,,,,,,,,,,,7,,62,0
26459,note_on,,59,0,15,,,,,,,,,,,,,,,,15,,53,0
26459,note_on,,0,0,15,,,,,,,,,,,,,,,,15,,62,0
26459,note_on,,59,0,6,,,,,,,,,,,,,,,,2,,53,0
26459,note_on,,59,0,13,,,,,,,,,,,,,,,,12,,62,0
26460,note_on,,1,0,9,,,,,,,,,,,,,,,,7,,60,72
26460,note_on,,1,0,14,,,,,,,,,,,,,,,,13,,48,72
26460,note_on,,181,0,10,,,,,,,,,,,,,,,,8,,48,72
26460,note_on,,1,0,13,,,,,,,,,,,,,,,,12,,60,72
26460,note_on,,0,0,15,,,,,,,,,,,,,,,,15,,64,72
26460,note_on,,0,0,15,,,,,,,,,,,,,,,,15,,60,72
26460,note_on,,1,0,6,,,,,,,,,,,,,,,,2,,48,72
26460,note_on,,1,0,15,,,,,,,,,,,,,,,,15,,48,72
26519,note_on,,59,0,9,,,,,,,,,,,,,,,,7,,60,0
26519,note_on,,59,0,6,,,,,,,,,,,,,,,,2,,48,0
26519,note_on,,59,0,10,,,,,,,,,,,,,,,,8,,48,0
26519,note_on,,0,0,15,,,,,,,,,,,,,,,,15,,64,0
26519,note_on,,0,0,15,,,,,,,,,,,,,,,,15,,60,0
26519,note_on,,59,0,15,,,,,,,,,,,,,,,,15,,48,0
26519,note_on,,59,0,13,,,,,,,,,,,,,,,,12,,60,0
26519,note_on,,59,0,14,,,,,,,,,,,,,,,,13,,48,0
26520,note_on,,1,0,6,,,,,,,,,,,,,,,,2,,50,72
26520,note_on,,1,0,13,,,,,,,,,,,,,,,,12,,65,72
26520,note_on,,1,0,10,,,,,,,,,,,,,,,,8,,50,72
26520,note_on,,1,0,14,,,,,,,,,,,,,,,,13,,50,72
26520,note_on,,1,0,15,,,,,,,,,,,,,,,,15,,50,72
26520,note_on,,0,0,15,,,,,,,,,,,,,,,,15,,59,72
26520,note_on,,0,0,15,,,,,,,,,,,,,,,,15,,65,72
26520,note_on,,1,0,9,,,,,,,,,,,,,,,,7,,65,72
26579,note_on,,0,0,15,,,,,,,,,,,,,,,,15,,59,0
26579,note_on,,0,0,15,,,,,,,,,,,,,,,,15,,65,0
26579,note_on,,59,0,15,,,,,,,,,,,,,,,,15,,50,0
26579,note_on,,59,0,13,,,,,,,,,,,,,,,,12,,65,0
26579,note_on,,59,0,14,,,,,,,,,,,,,,,,13,,50,0
26579,note_on,,59,0,9,,,,,,,,,,,,,,,,7,,65,0
26579,note_on,,59,0,6,,,,,,,,,,,,,,,,2,,50,0
26579,note_on,,59,0,10,,,,,,,,,,,,,,,,8,,50,0
26580,note_on,,1,0,6,,,,,,,,,,,,,,,,2,,48,72
26580,note_on,,1,0,9,,,,,,,,,,,,,,,,7,,64,72
26580,note_on,,1,0,10,,,,,,,,,,,,,,,,8,,48,72
26580,note_on,,1,0,13,,,,,,,,,,,,,,,,12,,64,72
26580,note_on,,0,0,15,,,,,,,,,,,,,,,,15,,60,72
26580,note_on,,0,0,15,,,,,,,,,,,,,,,,15,,64,72
26580,note_on,,1,0,15,,,,,,,,,,,,,,,,15,,48,72
26580,note_on,,1,0,14,,,,,,,,,,,,,,,,13,,48,72
26639,note_on,,59,0,9,,,,,,,,,,,,,,,,7,,64,0
26639,note_on,,59,0,13,,,,,,,,,,,,,,,,12,,64,0
26639,note_on,,59,0,10,,,,,,,,,,,,,,,,8,,48,0
26639,note_on,,0,0,15,,,,,,,,,,,,,,,,15,,60,0
26639,note_on,,59,0,6,,,,,,,,,,,,,,,,2,,48,0
26639,note_on,,59,0,14,,,,,,,,,,,,,,,,13,,48,0
26639,note_on,,59,0,15,,,,,,,,,,,,,,,,15,,48,0
26639,note_on,,0,0,15,,,,,,,,,,,,,,,,15,,64,0
26640,note_on,,1,0,9,,,,,,,,,,,,,,,,7,,62,72
26640,note_on,,1,0,13,,,,,,,,,,,,,,,,12,,62,72
26640,note_on,,1,0,6,,,,,,,,,,,,,,,,2,,53,72
26640,note_on,,1,0,14,,,,,,,,,,,,,,,,13,,53,72
26640,note_on,,0,0,15,,,,,,,,,,,,,,,,15,,62,72
26640,note_on,,1,0,15,,,,,,,,,,,,,,,,15,,53,72
26640,note_on,,0,0,15,,,,,,,,,,,,,,,,15,,57,72
26640,note_on,,1,0,10,,,,,,,,,,,,,,,,8,,53,72
26699,note_on,,59,0,10,,,,,,,,,,,,,,,,8,,53,0
26699,note_on,,59,0,13,,,,,,,,,,,,,,,,12,,62,0
26699,note_on,,59,0,15,,,,,,,,,,,,,,,,15,,53,0
26699,note_on,,0,0,15,,,,,,,,,,,,,,,,15,,62,0
26699,note_on,,59,0,14,,,,,,,,,,,,,,,,13,,53,0
26699,note_on,,0,0,15,,,,,,,,,,,,,,,,15,,57,0
26699,note_on,,59,0,6,,,,,,,,,,,,,,,,2,,53,0
26699,note_on,,59,0,9,,,,,,,,,,,,,,,,7,,62,0
26700,note_on,,0,0,15,,,,,,,,,,,,,,,,15,,55,72
26700,note_on,,1,0,15,,,,,,,,,,,,,,,,15,,52,72
26700,note_on,,0,0,15,,,,,,,,,,,,,,,,15,,60,72
26700,note_on,,1,0,9,,,,,,,,,,,,,,,,7,,60,72
26700,note_on,,1,0,13,,,,,,,,,,,,,,,,12,,60,72
26700,note_on,,1,0,10,,,,,,,,,,,,,,,,8,,52,72
26700,note_on,,1,0,6,,,,,,,,,,,,,,,,2,,52,72
26700,note_on,,1,0,14,,,,,,,,,,,,,,,,13,,52,72
26759,note_on,,59,0,9,,,,,,,,,,,,,,,,7,,60,0
26759,note_on,,0,0,15,,,,,,,,,,,,,,,,15,,55,0
26759,note_on,,59,0,14,,,,,,,,,,,,,,,,13,,52,0
26759,note_on,,59,0,15,,,,,,,,,,,,,,,,15,,52,0
26759,note_on,,59,0,10,,,,,,,,,,,,,,,,8,,52,0
26759,note_on,,0,0,15,,,,,,,,,,,,,,,,15,,60,0
26759,note_on,,59,0,6,,,,,,,,,,,,,,,,2,,52,0
26759,note_on,,59,0,13,,,,,,,,,,,,,,,,12,,60,0
26760,note_on,,1,0,10,,,,,,,,,,,,,,,,8,,55,72
26760,note_on,,1,0,6,,,,,,,,,,,,,,,,2,,55,72
26760,note_on,,1,0,14,,,,,,,,,,,,,,,,13,,55,72
26760,note_on,,0,0,15,,,,,,,,,,,,,,,,15,,64,72
26760,note_on,,1,0,9,,,,,,,,,,,,,,,,7,,58,72
26760,note_on,,0,0,15,,,,,,,,,,,,,,,,15,,58,72
26760,note_on,,1,0,15,,,,,,,,,,,,,,,,15,,55,72
26760,note_on,,1,0,13,,,,,,,,,,,,,,,,12,,58,72
26819,note_on,,0,0,15,,,,,,,,,,,,,,,,15,,58,0
26819,note_on,,59,0,9,,,,,,,,,,,,,,,,7,,58,0
26819,note_on,,59,0,15,,,,,,,,,,,,,,,,15,,55,0
26819,note_on,,59,0,14,,,,,,,,,,,,,,,,13,,55,0
26819,note_on,,59,0,10,,,,,,,,,,,,,,,,8,,55,0
26819,note_on,,0,0,15,,,,,,,,,,,,,,,,15,,64,0
26819,note_on,,59,0,6,,,,,,,,,,,,,,,,2,,55,0
26819,note_on,,59,0,13,,,,,,,,,,,,,,,,12,,58,0
26820,note_on,,1,0,13,,,,,,,,,,,,,,,,12,,57,72
26820,note_on,,1,0,6,,,,,,,,,,,,,,,,2,,53,72
26820,note_on,,1,0,14,,,,,,,,,,,,,,,,13,,53,72
26820,note_on,,1,0,15,,,,,,,,,,,,,,,,15,,53,72
26820,note_on,,0,0,15,,,,,,,,,,,,,,,,15,,65,72
26820,note_on,,0,0,15,,,,,,,,,,,,,,,,15,,57,72
26820,note_on,,1,0,9,,,,,,,,,,,,,,,,7,,57,72
26820,note_on,,1,0,10,,,,,,,,,,,,,,,,8,,53,72
26879,note_on,,0,0,15,,,,,,,,,,,,,,,,15,,65,0
26879,note_on,,59,0,14,,,,,,,,,,,,,,,,13,,53,0
26879,note_on,,59,0,6,,,,,,,,,,,,,,,,2,,53,0
26879,note_on,,59,0,13,,,,,,,,,,,,,,,,12,,57,0
26879,note_on,,59,0,9,,,,,,,,,,,,,,,,7,,57,0
26879,note_on,,59,0,15,,,,,,,,,,,,,,,,15,,53,0
26879,note_on,,59,0,10,,,,,,,,,,,,,,,,8,,53,0
26879,note_on,,0,0,15,,,,,,,,,,,,,,,,15,,57,0
26880,note_on,,1,0,6,,,,,,,,,,,,,,,,2,,58,72
26880,note_on,,1,0,9,,,,,,,,,,,,,,,,7,,62,72
26880,note_on,,1,0,10,,,,,,,,,,,,,,,,8,,58,72
26880,note_on,,1,0,15,,,,,,,,,,,,,,,,15,,58,72
26880,note_on,,1,0,13,,,,,,,,,,,,,,,,12,,62,72
26880,note_on,,1,0,14,,,,,,,,,,,,,,,,13,,58,72
26880,note_on,,0,0,15,,,,,,,,,,,,,,,,15,,62,72
26880,note_on,,0,0,15,,,,,,,,,,,,,,,,15,,65,72
26939,note_on,,59,0,13,,,,,,,,,,,,,,,,12,,62,0
26939,note_on,,59,0,14,,,,,,,,,,,,,,,,13,,58,0
26939,note_on,,59,0,9,,,,,,,,,,,,,,,,7,,62,0
26939,note_on,,59,0,6,,,,,,,,,,,,,,,,2,,58,0
26939,note_on,,59,0,10,,,,,,,,,,,,,,,,8,,58,0
26939,note_on,,59,0,15,,,,,,,,,,,,,,,,15,,58,0
26939,note_on,,0,0,15,,,,,,,,,,,,,,,,15,,62,0
26940,note_on,,1,0,9,,,,,,,,,,,,,,,,7,,60,72
26940,note_on,,1,0,14,,,,,,,,,,,,,,,,13,,57,72
26940,note_on,,1,0,15,,,,,,,,,,,,,,,,15,,57,72
26940,note_on,,0,0,15,,,,,,,,,,,,,,,,15,,60,72
26940,note_on,,1,0,13,,,,,,,,,,,,,,,,12,,60,72
26940,note_on,,1,0,10,,,,,,,,,,,,,,,,8,,57,72
26940,note_on,,1,0,6,,,,,,,,,,,,,,,,2,,57,72
26999,note_on,,0,0,15,,,,,,,,,,,,,,,,15,,60,0
26999,note_on,,59,0,14,,,,,,,,,,,,,,,,13,,57,0
26999,note_on,,59,0,15,,,,,,,,,,,,,,,,15,,65,0
26999,note_on,,0,0,15,,,,,,,,,,,,,,,,15,,57,0
26999,note_on,,59,0,6,,,,,,,,,,,,,,,,2,,57,0
26999,note_on,,59,0,13,,,,,,,,,,,,,,,,12,,60,0
26999,note_on,,59,0,10,,,,,,,,,,,,,,,,8,,57,0
26999,note_on,,59,0,9,,,,,,,,,,,,,,,,7,,60,0
27000,note_on,,1,0,10,,,,,,,,,,,,,,,,8,,55,72
27000,note_on,,1,0,14,,,,,,,,,,,,,,,,13,,55,72
27000,note_on,,0,0,15,,,,,,,,,,,,,,,,15,,58,72
27000,note_on,,1,0,15,,,,,,,,,,,,,,,,15,,55,72
27000,note_on,,0,0,15,,,,,,,,,,,,,,,,15,,64,72
27000,note_on,,1,0,9,,,,,,,,,,,,,,,,7,,58,72
27000,note_on,,1,0,13,,,,,,,,,,,,,,,,12,,58,72
27000,note_on,,1,0,6,,,,,,,,,,,,,,,,2,,55,72
27059,note_on,,59,0,10,,,,,,,,,,,,,,,,8,,55,0
27059,note_on,,59,0,9,,,,,,,,,,,,,,,,7,,58,0
27059,note_on,,59,0,15,,,,,,,,,,,,,,,,15,,55,0
27059,note_on,,0,0,15,,,,,,,,,,,,,,,,15,,64,0
27059,note_on,,59,0,14,,,,,,,,,,,,,,,,13,,55,0
27059,note_on,,59,0,13,,,,,,,,,,,,,,,,12,,58,0
27059,note_on,,59,0,6,,,,,,,,,,,,,,,,2,,55,0
27059,note_on,,0,0,15,,,,,,,,,,,,,,,,15,,58,0
27060,note_on,,1,0,9,,,,,,,,,,,,,,,,7,,57,72
27060,note_on,,1,0,6,,,,,,,,,,,,,,,,2,,53,72
27060,note_on,,1,0,14,,,,,,,,,,,,,,,,13,,53,72
27060,note_on,,0,0,15,,,,,,,,,,,,,,,,15,,57,72
27060,note_on,,1,0,10,,,,,,,,,,,,,,,,8,,53,72
27060,note_on,,0,0,15,,,,,,,,,,,,,,,,15,,60,72
27060,note_on,,1,0,15,,,,,,,,,,,,,,,,15,,53,72
27060,note_on,,0,0,15,,,,,,,,,,,,,,,,15,,65,72
27060,note_on,,1,0,13,,,,,,,,,,,,,,,,12,,57,72
27119,note_on,,59,0,14,,,,,,,,,,,,,,,,13,,53,0
27119,note_on,,59,0,10,,,,,,,,,,,,,,,,8,,53,0
27119,note_on,,0,0,15,,,,,,,,,,,,,,,,15,,60,0
27119,note_on,,59,0,9,,,,,,,,,,,,,,,,7,,57,0
27119,note_on,,0,0,15,,,,,,,,,,,,,,,,15,,65,0
27119,note_on,,59,0,15,,,,,,,,,,,,,,,,15,,53,0
27119,note_on,,59,0,6,,,,,,,,,,,,,,,,2,,53,0
27119,note_on,,59,0,13,,,,,,,,,,,,,,,,12,,57,0
27119,note_on,,0,0,15,,,,,,,,,,,,,,,,15,,57,0
27120,note_on,,1,0,10,,,,,,,,,,,,,,,,8,,48,72
27120,note_on,,1,0,14,,,,,,,,,,,,,,,,13,,48,72
27120,note_on,,1,0,9,,,,,,,,,,,,,,,,7,,55,72
27120,note_on,,0,0,15,,,,,,,,,,,,,,,,15,,64,72
27120,note_on,,1,0,6,,,,,,,,,,,,,,,,2,,48,72
27120,note_on,,0,0,15,,,,,,,,,,,,,,,,15,,67,72
27120,note_on,,0,0,15,,,,,,,,,,,,,,,,15,,60,72
27120,note_on,,1,0,13,,,,,,,,,,,,,,,,12,,55,72
27120,note_on,,1,0,15,,,,,,,,,,,,,,,,15,,48,72
27179,note_on,,0,0,15,,,,,,,,,,,,,,,,15,,60,0
27179,note_on,,59,0,6,,,,,,,,,,,,,,,,2,,48,0
27179,note_on,,0,0,15,,,,,,,,,,,,,,,,15,,67,0
27179,note_on,,0,0,15,,,,,,,,,,,,,,,,15,,64,0
27179,note_on,,59,0,14,,,,,,,,,,,,,,,,13,,48,0
27179,note_on,,59,0,15,,,,,,,,,,,,,,,,15,,48,0
27180,note_on,,0,0,15,,,,,,,,,,,,,,,,15,,60,72
27180,note_on,,0,0,15,,,,,,,,,,,,,,,,15,,55,72
27180,note_on,,1,0,6,,,,,,,,,,,,,,,,2,,52,72
27180,note_on,,1,0,14,,,,,,,,,,,,,,,,13,,52,72
27180,note_on,,1,0,15,,,,,,,,,,,,,,,,15,,52,72
27239,note_on,,119,0,13,,,,,,,,,,,,,,,,12,,55,0
27239,note_on,,0,0,15,,,,,,,,,,,,,,,,15,,55,0
27239,note_on,,0,0,15,,,,,,,,,,,,,,,,15,,60,0
27239,note_on,,59,0,15,,,,,,,,,,,,,,,,15,,52,0
27239,note_on,,59,0,14,,,,,,,,,,,,,,,,13,,52,0
27239,note_on,,59,0,6,,,,,,,,,,,,,,,,2,,52,0
27239,note_on,,119,0,9,,,,,,,,,,,,,,,,7,,55,0
27239,note_on,,119,0,10,,,,,,,,,,,,,,,,8,,48,0
27240,note_on,,1,0,15,,,,,,,,,,,,,,,,15,,53,72
27240,note_on,,1,0,14,,,,,,,,,,,,,,,,13,,53,72
27240,note_on,,0,0,15,,,,,,,,,,,,,,,,15,,60,72
27240,note_on,,1,0,6,,,,,,,,,,,,,,,,2,,53,72
27240,note_on,,0,0,15,,,,,,,,,,,,,,,,15,,57,72
27299,note_on,,59,0,14,,,,,,,,,,,,,,,,13,,53,0
27299,note_on,,59,0,6,,,,,,,,,,,,,,,,2,,53,0
27299,note_on,,59,0,15,,,,,,,,,,,,,,,,15,,53,0
27299,note_on,,0,0,15,,,,,,,,,,,,,,,,15,,60,0
27299,note_on,,0,0,15,,,,,,,,,,,,,,,,15,,57,0
27300,note_on,,1021,0,11,,,,,,,,,,,,,,,,10,,72,72
27300,note_on,,1,0,15,,,,,,,,,,,,,,,,15,,57,72
27300,note_on,,0,0,15,,,,,,,,,,,,,,,,15,,72,72
27300,note_on,,1021,0,5,,,,,,,,,,,,,,,,1,,72,72
27300,note_on,,1,0,14,,,,,,,,,,,,,,,,13,,57,72
27300,note_on,,1021,0,7,,,,,,,,,,,,,,,,5,,72,72
27300,note_on,,0,0,15,,,,,,,,,,,,,,,,15,,65,72
27300,note_on,,1,0,6,,,,,,,,,,,,,,,,2,,57,72
27359,note_on,,59,0,14,,,,,,,,,,,,,,,,13,,57,0
27359,note_on,,59,0,11,,,,,,,,,,,,,,,,10,,72,0
27359,note_on,,59,0,5,,,,,,,,,,,,,,,,1,,72,0
27359,note_on,,59,0,6,,,,,,,,,,,,,,,,2,,57,0
27359,note_on,,0,0,15,,,,,,,,,,,,,,,,15,,72,0
27359,note_on,,59,0,15,,,,,,,,,,,,,,,,15,,57,0
27359,note_on,,59,0,7,,,,,,,,,,,,,,,,5,,72,0
27360,note_on,,1,0,6,,,,,,,,,,,,,,,,2,,58,72
27360,note_on,,1,0,14,,,,,,,,,,,,,,,,13,,58,72
27360,note_on,,1,0,7,,,,,,,,,,,,,,,,5,,74,72
27360,note_on,,1,0,5,,,,,,,,,,,,,,,,1,,74,72
27360,note_on,,1,0,15,,,,,,,,,,,,,,,,15,,58,72
27360,note_on,,1,0,11,,,,,,,,,,,,,,,,10,,74,72
27360,note_on,,0,0,15,,,,,,,,,,,,,,,,15,,74,72
27419,note_on,,0,0,15,,,,,,,,,,,,,,,,15,,74,0
27419,note_on,,0,0,15,,,,,,,,,,,,,,,,15,,58,0
27419,note_on,,59,0,14,,,,,,,,,,,,,,,,13,,58,0
27419,note_on,,59,0,6,,,,,,,,,,,,,,,,2,,58,0
27419,note_on,,59,0,7,,,,,,,,,,,,,,,,5,,74,0
27419,note_on,,59,0,11,,,,,,,,,,,,,,,,10,,74,0
27419,note_on,,59,0,5,,,,,,,,,,,,,,,,1,,74,0
27419,note_on,,59,0,15,,,,,,,,,,,,,,,,15,,65,0
27420,note_on,,0,0,15,,,,,,,,,,,,,,,,15,,60,72
27420,note_on,,1141,0,12,,,,,,,,,,,,,,,,11,,60,72
27420,note_on,,1,0,14,,,,,,,,,,,,,,,,13,,57,72
27420,note_on,,0,0,15,,,,,,,,,,,,,,,,15,,72,72
27420,note_on,,1,0,6,,,,,,,,,,,,,,,,2,,57,72
27420,note_on,,1,0,7,,,,,,,,,,,,,,,,5,,72,72
27420,note_on,,1141,0,8,,,,,,,,,,,,,,,,6,,60,72
27420,note_on,,1,0,15,,,,,,,,,,,,,,,,15,,57,72
27420,note_on,,1,0,11,,,,,,,,,,,,,,,,10,,72,72
27420,note_on,,1,0,5,,,,,,,,,,,,,,,,1,,72,72
27479,note_on,,59,0,7,,,,,,,,,,,,,,,,5,,72,0
27479,note_on,,0,0,15,,,,,,,,,,,,,,,,15,,60,0
27479,note_on,,0,0,15,,,,,,,,,,,,,,,,15,,72,0
27479,note_on,,59,0,12,,,,,,,,,,,,,,,,11,,60,0
27479,note_on,,59,0,5,,,,,,,,,,,,,,,,1,,72,0
27479,note_on,,59,0,15,,,,,,,,,,,,,,,,15,,57,0
27479,note_on,,59,0,8,,,,,,,,,,,,,,,,6,,60,0
27479,note_on,,59,0,14,,,,,,,,,,,,,,,,13,,57,0
27479,note_on,,59,0,6,,,,,,,,,,,,,,,,2,,57,0
27479,note_on,,59,0,11,,,,,,,,,,,,,,,,10,,72,0
27480,note_on,,1,0,12,,,,,,,,,,,,,,,,11,,62,72
27480,note_on,,1,0,5,,,,,,,,,,,,,,,,1,,77,72
27480,note_on,,1,0,15,,,,,,,,,,,,,,,,15,,62,72
27480,note_on,,0,0,15,,,,,,,,,,,,,,,,15,,77,72
27480,note_on,,1,0,7,,,,,,,,,,,,,,,,5,,77,72
27480,note_on,,1,0,8,,,,,,,,,,,,,,,,6,,62,72
27480,note_on,,1,0,14,,,,,,,,,,,,,,,,13,,62,72
27480,note_on,,1,0,6,,,,,,,,,,,,,,,,2,,62,72
27480,note_on,,1,0,11,,,,,,,,,,,,,,,,10,,77,72
27539,note_on,,59,0,7,,,,,,,,,,,,,,,,5,,77,0
27539,note_on,,59,0,6,,,,,,,,,,,,,,,,2,,62,0
27539,note_on,,59,0,12,,,,,,,,,,,,,,,,11,,62,0
27539,note_on,,59,0,5,,,,,,,,,,,,,,,,1,,77,0
27539,note_on,,59,0,15,,,,,,,,,,,,,,,,15,,62,0
27539,note_on,,0,0,15,,,,,,,,,,,,,,,,15,,77,0
27539,note_on,,59,0,8,,,,,,,,,,,,,,,,6,,62,0
27539,note_on,,59,0,14,,,,,,,,,,,,,,,,13,,62,0
27539,note_on,,59,0,11,,,,,,,,,,,,,,,,10,,77,0
27540,note_on,,0,0,15,,,,,,,,,,,,,,,,15,,76,72
27540,note_on,,1,0,15,,,,,,,,,,,,,,,,15,,60,72
27540,note_on,,1,0,14,,,,,,,,,,,,,,,,13,,60,72
27540,note_on,,1,0,11,,,,,,,,,,,,,,,,10,,76,72
27540,note_on,,1,0,5,,,,,,,,,,,,,,,,1,,76,72
27540,note_on,,1,0,7,,,,,,,,,,,,,,,,5,,76,72
27540,note_on,,1,0,12,,,,,,,,,,,,,,,,11,,60,72
27540,note_on,,1,0,6,,,,,,,,,,,,,,,,2,,60,72
27540,note_on,,1,0,8,,,,,,,,,,,,,,,,6,,60,72
27599,note_on,,59,0,5,,,,,,,,,,,,,,,,1,,76,0
27599,note_on,,59,0,14,,,,,,,,,,,,,,,,13,,60,0
27599,note_on,,0,0,15,,,,,,,,,,,,,,,,15,,76,0
27599,note_on,,59,0,6,,,,,,,,,,,,,,,,2,,60,0
27599,note_on,,59,0,12,,,,,,,,,,,,,,,,11,,60,0
27599,note_on,,59,0,8,,,,,,,,,,,,,,,,6,,60,0
27599,note_on,,59,0,11,,,,,,,,,,,,,,,,10,,76,0
27599,note_on,,59,0,7,,,,,,,,,,,,,,,,5,,76,0
27599,note_on,,59,0,15,,,,,,,,,,,,,,,,15,,60,0
27600,note_on,,1,0,11,,,,,,,,,,,,,,,,10,,74,72
27600,note_on,,1,0,15,,,,,,,,,,,,,,,,15,,65,72
27600,note_on,,0,0,15,,,,,,,,,,,,,,,,15,,74,72
27600,note_on,,1,0,8,,,,,,,,,,,,,,,,6,,65,72
27600,note_on,,1,0,7,,,,,,,,,,,,,,,,5,,74,72
27600,note_on,,1,0,5,,,,,,,,,,,,,,,,1,,74,72
27600,note_on,,1,0,12,,,,,,,,,,,,,,,,11,,65,72
27600,note_on,,1,0,6,,,,,,,,,,,,,,,,2,,65,72
27600,note_on,,1,0,14,,,,,,,,,,,,,,,,13,,65,72
27659,note_on,,59,0,12,,,,,,,,,,,,,,,,11,,65,0
27659,note_on,,59,0,7,,,,,,,,,,,,,,,,5,,74,0
27659,note_on,,59,0,11,,,,,,,,,,,,,,,,10,,74,0
27659,note_on,,59,0,6,,,,,,,,,,,,,,,,2,,65,0
27659,note_on,,0,0,15,,,,,,,,,,,,,,,,15,,74,0
27659,note_on,,59,0,8,,,,,,,,,,,,,,,,6,,65,0
27659,note_on,,59,0,14,,,,,,,,,,,,,,,,13,,65,0
27659,note_on,,59,0,5,,,,,,,,,,,,,,,,1,,74,0
27659,note_on,,59,0,15,,,,,,,,,,,,,,,,15,,65,0
27660,note_on,,1,0,14,,,,,,,,,,,,,,,,13,,64,72
27660,note_on,,1,0,6,,,,,,,,,,,,,,,,2,,64,72
27660,note_on,,1,0,11,,,,,,,,,,,,,,,,10,,72,72
27660,note_on,,1,0,5,,,,,,,,,,,,,,,,1,,72,72
27660,note_on,,1,0,8,,,,,,,,,,,,,,,,6,,64,72
27660,note_on,,1,0,7,,,,,,,,,,,,,,,,5,,72,72
27660,note_on,,1,0,15,,,,,,,,,,,,,,,,15,,64,72
27660,note_on,,1,0,12,,,,,,,,,,,,,,,,11,,64,72
27660,note_on,,0,0,15,,,,,,,,,,,,,,,,15,,72,72
27719,note_on,,59,0,14,,,,,,,,,,,,,,,,13,,64,0
27719,note_on,,0,0,15,,,,,,,,,,,,,,,,15,,72,0
27719,note_on,,59,0,6,,,,,,,,,,,,,,,,2,,64,0
27719,note_on,,59,0,12,,,,,,,,,,,,,,,,11,,64,0
27719,note_on,,59,0,7,,,,,,,,,,,,,,,,5,,72,0
27719,note_on,,59,0,15,,,,,,,,,,,,,,,,15,,64,0
27719,note_on,,59,0,5,,,,,,,,,,,,,,,,1,,72,0
27719,note_on,,59,0,11,,,,,,,,,,,,,,,,10,,72,0
27719,note_on,,59,0,8,,,,,,,,,,,,,,,,6,,64,0
27720,note_on,,1,0,8,,,,,,,,,,,,,,,,6,,67,72
27720,note_on,,1,0,14,,,,,,,,,,,,,,,,13,,67,72
27720,note_on,,0,0,15,,,,,,,,,,,,,,,,15,,70,72
27720,note_on,,1,0,6,,,,,,,,,,,,,,,,2,,67,72
27720,note_on,,1,0,12,,,,,,,,,,,,,,,,11,,67,72
27720,note_on,,1,0,15,,,,,,,,,,,,,,,,15,,67,72
27720,note_on,,1,0,11,,,,,,,,,,,,,,,,10,,70,72
27720,note_on,,1,0,5,,,,,,,,,,,,,,,,1,,70,72
27720,note_on,,1,0,7,,,,,,,,,,,,,,,,5,,70,72
27779,note_on,,59,0,12,,,,,,,,,,,,,,,,11,,67,0
27779,note_on,,59,0,15,,,,,,,,,,,,,,,,15,,67,0
27779,note_on,,59,0,7,,,,,,,,,,,,,,,,5,,70,0
27779,note_on,,59,0,14,,,,,,,,,,,,,,,,13,,67,0
27779,note_on,,59,0,8,,,,,,,,,,,,,,,,6,,67,0
27779,note_on,,59,0,6,,,,,,,,,,,,,,,,2,,67,0
27779,note_on,,59,0,5,,,,,,,,,,,,,,,,1,,70,0
27779,note_on,,59,0,11,,,,,,,,,,,,,,,,10,,70,0
27779,note_on,,0,0,15,,,,,,,,,,,,,,,,15,,70,0
27780,note_on,,1,0,12,,,,,,,,,,,,,,,,11,,65,72
27780,note_on,,1,0,6,,,,,,,,,,,,,,,,2,,65,72
27780,note_on,,1,0,14,,,,,,,,,,,,,,,,13,,65,72
27780,note_on,,1,0,15,,,,,,,,,,,,,,,,15,,65,72
27780,note_on,,1,0,8,,,,,,,,,,,,,,,,6,,65,72
27780,note_on,,1,0,5,,,,,,,,,,,,,,,,1,,69,72
27780,note_on,,0,0,15,,,,,,,,,,,,,,,,15,,69,72
27780,note_on,,1,0,11,,,,,,,,,,,,,,,,10,,69,72
27780,note_on,,1,0,7,,,,,,,,,,,,,,,,5,,69,72
27839,note_on,,59,0,8,,,,,,,,,,,,,,,,6,,65,0
27839,note_on,,0,0,15,,,,,,,,,,,,,,,,15,,69,0
27839,note_on,,59,0,15,,,,,,,,,,,,,,,,15,,65,0
27839,note_on,,59,0,7,,,,,,,,,,,,,,,,5,,69,0
27839,note_on,,59,0,14,,,,,,,,,,,,,,,,13,,65,0
27839,note_on,,59,0,5,,,,,,,,,,,,,,,,1,,69,0
27839,note_on,,59,0,6,,,,,,,,,,,,,,,,2,,65,0
27839,note_on,,59,0,12,,,,,,,,,,,,,,,,11,,65,0
27839,note_on,,59,0,11,,,,,,,,,,,,,,,,10,,69,0
27840,note_on,,1,0,8,,,,,,,,,,,,,,,,6,,70,72
27840,note_on,,1,0,14,,,,,,,,,,,,,,,,13,,70,72
27840,note_on,,0,0,15,,,,,,,,,,,,,,,,15,,74,72
27840,note_on,,1,0,6,,,,,,,,,,,,,,,,2,,70,72
27840,note_on,,1,0,5,,,,,,,,,,,,,,,,1,,74,72
27840,note_on,,1,0,7,,,,,,,,,,,,,,,,5,,74,72
27840,note_on,,1,0,11,,,,,,,,,,,,,,,,10,,74,72
27840,note_on,,1,0,12,,,,,,,,,,,,,,,,11,,70,72
27840,note_on,,1,0,15,,,,,,,,,,,,,,,,15,,70,72
27899,note_on,,59,0,11,,,,,,,,,,,,,,,,10,,74,0
27899,note_on,,59,0,6,,,,,,,,,,,,,,,,2,,70,0
27899,note_on,,59,0,5,,,,,,,,,,,,,,,,1,,74,0
27899,note_on,,59,0,14,,,,,,,,,,,,,,,,13,,70,0
27899,note_on,,59,0,7,,,,,,,,,,,,,,,,5,,74,0
27899,note_on,,59,0,8,,,,,,,,,,,,,,,,6,,70,0
27899,note_on,,0,0,15,,,,,,,,,,,,,,,,15,,74,0
27899,note_on,,59,0,15,,,,,,,,,,,,,,,,15,,70,0
27899,note_on,,59,0,12,,,,,,,,,,,,,,,,11,,70,0
27900,note_on,,1,0,8,,,,,,,,,,,,,,,,6,,69,72
27900,note_on,,1,0,7,,,,,,,,,,,,,,,,5,,72,72
27900,note_on,,1,0,5,,,,,,,,,,,,,,,,1,,72,72
27900,note_on,,0,0,15,,,,,,,,,,,,,,,,15,,72,72
27900,note_on,,1,0,12,,,,,,,,,,,,,,,,11,,69,72
27900,note_on,,1,0,15,,,,,,,,,,,,,,,,15,,69,72
27900,note_on,,1,0,6,,,,,,,,,,,,,,,,2,,69,72
27900,note_on,,1,0,11,,,,,,,,,,,,,,,,10,,72,72
27900,note_on,,1,0,14,,,,,,,,,,,,,,,,13,,69,72
27959,note_on,,59,0,6,,,,,,,,,,,,,,,,2,,69,0
27959,note_on,,59,0,12,,,,,,,,,,,,,,,,11,,69,0
27959,note_on,,59,0,8,,,,,,,,,,,,,,,,6,,69,0
27959,note_on,,59,0,15,,,,,,,,,,,,,,,,15,,69,0
27959,note_on,,0,0,15,,,,,,,,,,,,,,,,15,,72,0
27959,note_on,,59,0,5,,,,,,,,,,,,,,,,1,,72,0
27959,note_on,,59,0,11,,,,,,,,,,,,,,,,10,,72,0
27959,note_on,,59,0,7,,,,,,,,,,,,,,,,5,,72,0
27959,note_on,,59,0,14,,,,,,,,,,,,,,,,13,,69,0
27960,note_on,,1,0,7,,,,,,,,,,,,,,,,5,,70,72
27960,note_on,,1,0,5,,,,,,,,,,,,,,,,1,,70,72
27960,note_on,,1,0,11,,,,,,,,,,,,,,,,10,,70,72
27960,note_on,,1,0,14,,,,,,,,,,,,,,,,13,,67,72
27960,note_on,,1,0,12,,,,,,,,,,,,,,,,11,,67,72
27960,note_on,,1,0,8,,,,,,,,,,,,,,,,6,,67,72
27960,note_on,,1,0,6,,,,,,,,,,,,,,,,2,,67,72
27960,note_on,,0,0,15,,,,,,,,,,,,,,,,15,,70,72
27960,note_on,,1,0,15,,,,,,,,,,,,,,,,15,,67,72
28019,note_on,,59,0,14,,,,,,,,,,,,,,,,13,,67,0
28019,note_on,,59,0,7,,,,,,,,,,,,,,,,5,,70,0
28019,note_on,,59,0,6,,,,,,,,,,,,,,,,2,,67,0
28019,note_on,,59,0,12,,,,,,,,,,,,,,,,11,,67,0
28019,note_on,,59,0,5,,,,,,,,,,,,,,,,1,,70,0
28019,note_on,,59,0,11,,,,,,,,,,,,,,,,10,,70,0
28019,note_on,,59,0,15,,,,,,,,,,,,,,,,15,,67,0
28019,note_on,,0,0,15,,,,,,,,,,,,,,,,15,,70,0
28019,note_on,,59,0,8,,,,,,,,,,,,,,,,6,,67,0
28020,note_on,,1,0,6,,,,,,,,,,,,,,,,2,,65,72
28020,note_on,,1,0,11,,,,,,,,,,,,,,,,10,,69,72
28020,note_on,,1,0,14,,,,,,,,,,,,,,,,13,,65,72
28020,note_on,,1,0,12,,,,,,,,,,,,,,,,11,,65,72
28020,note_on,,1,0,5,,,,,,,,,,,,,,,,1,,69,72
28020,note_on,,1,0,7,,,,,,,,,,,,,,,,5,,69,72
28020,note_on,,0,0,15,,,,,,,,,,,,,,,,15,,69,72
28020,note_on,,1,0,15,,,,,,,,,,,,,,,,15,,65,72
28020,note_on,,1,0,8,,,,,,,,,,,,,,,,6,,65,72
28079,note_on,,59,0,7,,,,,,,,,,,,,,,,5,,69,0
28079,note_on,,59,0,6,,,,,,,,,,,,,,,,2,,65,0
28079,note_on,,59,0,11,,,,,,,,,,,,,,,,10,,69,0
28079,note_on,,0,0,15,,,,,,,,,,,,,,,,15,,69,0
28079,note_on,,59,0,15,,,,,,,,,,,,,,,,15,,65,0
28079,note_on,,59,0,5,,,,,,,,,,,,,,,,1,,69,0
28079,note_on,,59,0,8,,,,,,,,,,,,,,,,6,,65,0
28079,note_on,,59,0,12,,,,,,,,,,,,,,,,11,,65,0
28079,note_on,,59,0,14,,,,,,,,,,,,,,,,13,,65,0
28080,note_on,,1,0,5,,,,,,,,,,,,,,,,1,,67,72
28080,note_on,,1,0,11,,,,,,,,,,,,,,,,10,,79,72
28080,note_on,,1,0,8,,,,,,,,,,,,,,,,6,,64,72
28080,note_on,,1,0,12,,,,,,,,,,,,,,,,11,,76,72
28080,note_on,,1,0,7,,,,,,,,,,,,,,,,5,,67,72
28080,note_on,,0,0,15,,,,,,,,,,,,,,,,15,,67,72
28080,note_on,,1,0,6,,,,,,,,,,,,,,,,2,,60,72
28080,note_on,,0,0,15,,,,,,,,,,,,,,,,15,,64,72
28080,note_on,,1,0,14,,,,,,,,,,,,,,,,13,,60,72
28080,note_on,,1,0,15,,,,,,,,,,,,,,,,15,,60,72
28109,note_on,,29,0,12,,,,,,,,,,,,,,,,11,,76,0
28109,note_on,,29,0,11,,,,,,,,,,,,,,,,10,,79,0
28110,note_on,,1,0,11,,,,,,,,,,,,,,,,10,,77,72
28110,note_on,,1,0,12,,,,,,,,,,,,,,,,11,,74,72
28139,note_on,,59,0,14,,,,,,,,,,,,,,,,13,,60,0
28139,note_on,,0,0,15,,,,,,,,,,,,,,,,15,,64,0
28139,note_on,,29,0,12,,,,,,,,,,,,,,,,11,,74,0
28139,note_on,,0,0,15,,,,,,,,,,,,,,,,15,,67,0
28139,note_on,,59,0,15,,,,,,,,,,,,,,,,15,,60,0
28139,note_on,,59,0,6,,,,,,,,,,,,,,,,2,,60,0
28139,note_on,,29,0,11,,,,,,,,,,,,,,,,10,,77,0
28140,note_on,,0,0,15,,,,,,,,,,,,,,,,15,,60,72
28140,note_on,,1,0,6,,,,,,,,,,,,,,,,2,,55,72
28140,note_on,,1,0,11,,,,,,,,,,,,,,,,10,,76,72
28140,note_on,,1,0,12,,,,,,,,,,,,,,,,11,,72,72
28140,note_on,,1,0,14,,,,,,,,,,,,,,,,13,,55,72
28140,note_on,,0,0,15,,,,,,,,,,,,,,,,15,,64,72
28140,note_on,,1,0,15,,,,,,,,,,,,,,,,15,,55,72
28169,note_on,,29,0,11,,,,,,,,,,,,,,,,10,,76,0
28169,note_on,,29,0,12,,,,,,,,,,,,,,,,11,,72,0
28170,note_on,,1,0,12,,,,,,,,,,,,,,,,11,,74,72
28170,note_on,,1,0,11,,,,,,,,,,,,,,,,10,,77,72
28199,note_on,,119,0,8,,,,,,,,,,,,,,,,6,,64,0
28199,note_on,,119,0,5,,,,,,,,,,,,,,,,1,,67,0
28199,note_on,,0,0,15,,,,,,,,,,,,,,,,15,,60,0
28199,note_on,,59,0,15,,,,,,,,,,,,,,,,15,,55,0
28199,note_on,,0,0,15,,,,,,,,,,,,,,,,15,,64,0
28199,note_on,,59,0,6,,,,,,,,,,,,,,,,2,,55,0
28199,note_on,,59,0,14,,,,,,,,,,,,,,,,13,,55,0
28199,note_on,,29,0,12,,,,,,,,,,,,,,,,11,,74,0
28199,note_on,,29,0,11,,,,,,,,,,,,,,,,10,,77,0
28199,note_on,,119,0,7,,,,,,,,,,,,,,,,5,,67,0
28200,note_on,,961,0,13,,,,,,,,,,,,,,,,12,,72,72
28200,note_on,,1,0,14,,,,,,,,,,,,,,,,13,,52,72
28200,note_on,,1,0,6,,,,,,,,,,,,,,,,2,,52,72
28200,note_on,,1,0,11,,,,,,,,,,,,,,,,10,,79,72
28200,note_on,,961,0,10,,,,,,,,,,,,,,,,8,,57,72
28200,note_on,,1,0,15,,,,,,,,,,,,,,,,15,,52,72
28200,note_on,,0,0,15,,,,,,,,,,,,,,,,15,,67,72
28200,note_on,,1,0,12,,,,,,,,,,,,,,,,11,,76,72
28200,note_on,,0,0,15,,,,,,,,,,,,,,,,15,,64,72
28200,note_on,,0,0,15,,,,,,,,,,,,,,,,15,,60,72
28200,note_on,,0,0,15,,,,,,,,,,,,,,,,15,,55,72
28229,note_on,,29,0,11,,,,,,,,,,,,,,,,10,,79,0
28229,note_on,,29,0,12,,,,,,,,,,,,,,,,11,,76,0
28230,note_on,,1,0,11,,,,,,,,,,,,,,,,10,,81,72
28230,note_on,,1,0,12,,,,,,,,,,,,,,,,11,,77,72
28259,note_on,,29,0,11,,,,,,,,,,,,,,,,10,,81,0
28259,note_on,,59,0,15,,,,,,,,,,,,,,,,15,,52,0
28259,note_on,,0,0,15,,,,,,,,,,,,,,,,15,,67,0
28259,note_on,,59,0,6,,,,,,,,,,,,,,,,2,,52,0
28259,note_on,,0,0,15,,,,,,,,,,,,,,,,15,,64,0
28259,note_on,,59,0,13,,,,,,,,,,,,,,,,12,,72,0
28259,note_on,,59,0,14,,,,,,,,,,,,,,,,13,,52,0
28259,note_on,,59,0,10,,,,,,,,,,,,,,,,8,,57,0
28259,note_on,,0,0,15,,,,,,,,,,,,,,,,15,,60,0
28259,note_on,,0,0,15,,,,,,,,,,,,,,,,15,,55,0
28259,note_on,,29,0,12,,,,,,,,,,,,,,,,11,,77,0
28260,note_on,,1,0,10,,,,,,,,,,,,,,,,8,,57,72
28260,note_on,,1,0,11,,,,,,,,,,,,,,,,10,,82,72
28260,note_on,,1,0,12,,,,,,,,,,,,,,,,11,,79,72
28260,note_on,,1,0,14,,,,,,,,,,,,,,,,13,,48,72
28260,note_on,,0,0,15,,,,,,,,,,,,,,,,15,,55,72
28260,note_on,,0,0,15,,,,,,,,,,,,,,,,15,,72,72
28260,note_on,,1,0,15,,,,,,,,,,,,,,,,15,,48,72
28260,note_on,,1,0,6,,,,,,,,,,,,,,,,2,,48,72
28260,note_on,,1,0,13,,,,,,,,,,,,,,,,12,,72,72
28260,note_on,,0,0,15,,,,,,,,,,,,,,,,15,,67,72
28260,note_on,,0,0,15,,,,,,,,,,,,,,,,15,,64,72
28289,note_on,,29,0,11,,,,,,,,,,,,,,,,10,,82,0
28289,note_on,,29,0,12,,,,,,,,,,,,,,,,11,,79,0
28290,note_on,,1,0,11,,,,,,,,,,,,,,,,10,,79,72
28290,note_on,,1,0,12,,,,,,,,,,,,,,,,11,,76,72
28319,note_on,,0,0,15,,,,,,,,,,,,,,,,15,,67,0
28319,note_on,,59,0,15,,,,,,,,,,,,,,,,15,,48,0
28319,note_on,,29,0,12,,,,,,,,,,,,,,,,11,,76,0
28319,note_on,,0,0,15,,,,,,,,,,,,,,,,15,,72,0
28319,note_on,,0,0,15,,,,,,,,,,,,,,,,15,,55,0
28319,note_on,,59,0,10,,,,,,,,,,,,,,,,8,,57,0
28319,note_on,,59,0,14,,,,,,,,,,,,,,,,13,,48,0
28319,note_on,,59,0,13,,,,,,,,,,,,,,,,12,,72,0
28319,note_on,,0,0,15,,,,,,,,,,,,,,,,15,,64,0
28319,note_on,,29,0,11,,,,,,,,,,,,,,,,10,,79,0
28319,note_on,,59,0,6,,,,,,,,,,,,,,,,2,,48,0
28320,note_on,,1,0,10,,,,,,,,,,,,,,,,8,,57,72
28320,note_on,,1,0,14,,,,,,,,,,,,,,,,13,,53,72
28320,note_on,,1,0,15,,,,,,,,,,,,,,,,15,,53,72
28320,note_on,,1,0,11,,,,,,,,,,,,,,,,10,,81,72
28320,note_on,,1,0,6,,,,,,,,,,,,,,,,2,,53,72
28320,note_on,,1,0,12,,,,,,,,,,,,,,,,11,,72,72
28320,note_on,,1,0,13,,,,,,,,,,,,,,,,12,,72,72
28320,note_on,,0,0,15,,,,,,,,,,,,,,,,15,,69,72
28320,note_on,,0,0,15,,,,,,,,,,,,,,,,15,,65,72
28320,note_on,,0,0,15,,,,,,,,,,,,,,,,15,,57,72
28320,note_on,,0,0,15,,,,,,,,,,,,,,,,15,,60,72
28349,note_on,,29,0,12,,,,,,,,,,,,,,,,11,,72,0
28350,note_on,,1,0,12,,,,,,,,,,,,,,,,11,,70,72
28379,note_on,,59,0,6,,,,,,,,,,,,,,,,2,,53,0
28379,note_on,,59,0,15,,,,,,,,,,,,,,,,15,,53,0
28379,note_on,,59,0,14,,,,,,,,,,,,,,,,13,,53,0
28379,note_on,,0,0,15,,,,,,,,,,,,,,,,15,,57,0
28379,note_on,,29,0,12,,,,,,,,,,,,,,,,11,,70,0
28379,note_on,,59,0,11,,,,,,,,,,,,,,,,10,,81,0
28380,note_on,,1,0,11,,,,,,,,,,,,,,,,10,,72,72
28380,note_on,,1,0,6,,,,,,,,,,,,,,,,2,,41,72
28380,note_on,,1,0,12,,,,,,,,,,,,,,,,11,,69,72
28380,note_on,,1,0,14,,,,,,,,,,,,,,,,13,,41,72
28380,note_on,,1,0,15,,,,,,,,,,,,,,,,15,,41,72
28409,note_on,,29,0,12,,,,,,,,,,,,,,,,11,,69,0
28410,note_on,,1,0,12,,,,,,,,,,,,,,,,11,,70,72
28439,note_on,,59,0,11,,,,,,,,,,,,,,,,10,,72,0
28439,note_on,,119,0,13,,,,,,,,,,,,,,,,12,,72,0
28439,note_on,,0,0,15,,,,,,,,,,,,,,,,15,,41,0
28439,note_on,,0,0,15,,,,,,,,,,,,,,,,15,,60,0
28439,note_on,,0,0,15,,,,,,,,,,,,,,,,15,,65,0
28439,note_on,,59,0,14,,,,,,,,,,,,,,,,13,,41,0
28439,note_on,,29,0,12,,,,,,,,,,,,,,,,11,,70,0
28439,note_on,,59,0,6,,,,,,,,,,,,,,,,2,,41,0
28439,note_on,,119,0,10,,,,,,,,,,,,,,,,8,,57,0
28439,note_on,,59,0,15,,,,,,,,,,,,,,,,15,,69,0
28440,note_on,,1,0,11,,,,,,,,,,,,,,,,10,,77,72
28440,note_on,,1,0,6,,,,,,,,,,,,,,,,2,,45,72
28440,note_on,,1,0,13,,,,,,,,,,,,,,,,12,,60,72
28440,note_on,,1,0,10,,,,,,,,,,,,,,,,8,,48,72
28440,note_on,,241,0,5,,,,,,,,,,,,,,,,1,,77,72
28440,note_on,,1,0,14,,,,,,,,,,,,,,,,13,,45,72
28440,note_on,,1,0,15,,,,,,,,,,,,,,,,15,,45,72
28440,note_on,,241,0,7,,,,,,,,,,,,,,,,5,,77,72
28440,note_on,,1,0,12,,,,,,,,,,,,,,,,11,,72,72
28440,note_on,,0,0,15,,,,,,,,,,,,,,,,15,,60,72
28440,note_on,,0,0,15,,,,,,,,,,,,,,,,15,,65,72
28440,note_on,,0,0,15,,,,,,,,,,,,,,,,15,,72,72
28469,note_on,,29,0,12,,,,,,,,,,,,,,,,11,,72,0
28470,note_on,,1,0,12,,,,,,,,,,,,,,,,11,,74,72
28499,note_on,,59,0,7,,,,,,,,,,,,,,,,5,,77,0
28499,note_on,,59,0,6,,,,,,,,,,,,,,,,2,,45,0
28499,note_on,,0,0,15,,,,,,,,,,,,,,,,15,,60,0
28499,note_on,,59,0,15,,,,,,,,,,,,,,,,15,,45,0
28499,note_on,,59,0,11,,,,,,,,,,,,,,,,10,,77,0
28499,note_on,,59,0,14,,,,,,,,,,,,,,,,13,,45,0
28499,note_on,,59,0,5,,,,,,,,,,,,,,,,1,,77,0
28499,note_on,,29,0,12,,,,,,,,,,,,,,,,11,,74,0
28499,note_on,,0,0,15,,,,,,,,,,,,,,,,15,,65,0
28499,note_on,,0,0,15,,,,,,,,,,,,,,,,15,,72,0
28500,note_on,,0,0,15,,,,,,,,,,,,,,,,15,,72,72
28500,note_on,,0,0,15,,,,,,,,,,,,,,,,15,,69,72
28500,note_on,,0,0,15,,,,,,,,,,,,,,,,15,,65,72
28500,note_on,,1,0,15,,,,,,,,,,,,,,,,15,,41,72
28500,note_on,,1,0,12,,,,,,,,,,,,,,,,11,,75,72
28500,note_on,,1,0,6,,,,,,,,,,,,,,,,2,,41,72
28500,note_on,,1,0,11,,,,,,,,,,,,,,,,10,,77,72
28500,note_on,,1,0,7,,,,,,,,,,,,,,,,5,,77,72
28500,note_on,,1,0,14,,,,,,,,,,,,,,,,13,,41,72
28500,note_on,,1,0,5,,,,,,,,,,,,,,,,1,,77,72
28529,note_on,,29,0,12,,,,,,,,,,,,,,,,11,,75,0
28530,note_on,,1,0,12,,,,,,,,,,,,,,,,11,,72,72
28559,note_on,,59,0,11,,,,,,,,,,,,,,,,10,,77,0
28559,note_on,,59,0,5,,,,,,,,,,,,,,,,1,,77,0
28559,note_on,,29,0,12,,,,,,,,,,,,,,,,11,,72,0
28559,note_on,,0,0,15,,,,,,,,,,,,,,,,15,,69,0
28559,note_on,,119,0,13,,,,,,,,,,,,,,,,12,,60,0
28559,note_on,,0,0,15,,,,,,,,,,,,,,,,15,,65,0
28559,note_on,,59,0,15,,,,,,,,,,,,,,,,15,,41,0
28559,note_on,,59,0,14,,,,,,,,,,,,,,,,13,,41,0
28559,note_on,,119,0,10,,,,,,,,,,,,,,,,8,,48,0
28559,note_on,,59,0,7,,,,,,,,,,,,,,,,5,,77,0
28559,note_on,,59,0,6,,,,,,,,,,,,,,,,2,,41,0
28559,note_on,,0,0,15,,,,,,,,,,,,,,,,15,,72,0
28560,note_on,,0,0,15,,,,,,,,,,,,,,,,15,,46,72
28560,note_on,,1,0,15,,,,,,,,,,,,,,,,15,,74,72
28560,note_on,,0,0,15,,,,,,,,,,,,,,,,15,,70,72
28560,note_on,,1,0,11,,,,,,,,,,,,,,,,10,,77,72
28560,note_on,,0,0,15,,,,,,,,,,,,,,,,15,,65,72
28560,note_on,,1,0,14,,,,,,,,,,,,,,,,13,,46,72
28560,note_on,,1,0,12,,,,,,,,,,,,,,,,11,,74,72
28560,note_on,,1,0,7,,,,,,,,,,,,,,,,5,,77,72
28560,note_on,,1,0,5,,,,,,,,,,,,,,,,1,,77,72
28560,note_on,,1,0,6,,,,,,,,,,,,,,,,2,,46,72
28589,note_on,,29,0,12,,,,,,,,,,,,,,,,11,,74,0
28590,note_on,,1,0,12,,,,,,,,,,,,,,,,11,,72,72
28619,note_on,,29,0,12,,,,,,,,,,,,,,,,11,,72,0
28619,note_on,,59,0,14,,,,,,,,,,,,,,,,13,,46,0
28619,note_on,,59,0,6,,,,,,,,,,,,,,,,2,,46,0
28619,note_on,,59,0,15,,,,,,,,,,,,,,,,15,,46,0
28620,note_on,,1,0,12,,,,,,,,,,,,,,,,11,,70,72
28620,note_on,,1,0,14,,,,,,,,,,,,,,,,13,,58,72
28620,note_on,,1,0,6,,,,,,,,,,,,,,,,2,,58,72
28620,note_on,,1,0,15,,,,,,,,,,,,,,,,15,,58,72
28649,note_on,,29,0,12,,,,,,,,,,,,,,,,11,,70,0
28650,note_on,,1,0,12,,,,,,,,,,,,,,,,11,,72,72
28679,note_on,,59,0,15,,,,,,,,,,,,,,,,15,,74,0
28679,note_on,,29,0,12,,,,,,,,,,,,,,,,11,,72,0
28679,note_on,,59,0,6,,,,,,,,,,,,,,,,2,,58,0
28679,note_on,,0,0,15,,,,,,,,,,,,,,,,15,,70,0
28679,note_on,,119,0,5,,,,,,,,,,,,,,,,1,,77,0
28679,note_on,,0,0,15,,,,,,,,,,,,,,,,15,,58,0
28679,note_on,,119,0,7,,,,,,,,,,,,,,,,5,,77,0
28679,note_on,,0,0,15,,,,,,,,,,,,,,,,15,,65,0
28679,note_on,,119,0,11,,,,,,,,,,,,,,,,10,,77,0
28679,note_on,,59,0,14,,,,,,,,,,,,,,,,13,,58,0
28680,note_on,,1,0,5,,,,,,,,,,,,,,,,1,,65,72
28680,note_on,,1,0,7,,,,,,,,,,,,,,,,5,,65,72
28680,note_on,,121,0,10,,,,,,,,,,,,,,,,8,,62,72
28680,note_on,,121,0,13,,,,,,,,,,,,,,,,12,,74,72
28680,note_on,,1,0,12,,,,,,,,,,,,,,,,11,,74,72
28680,note_on,,1,0,11,,,,,,,,,,,,,,,,10,,65,72
28680,note_on,,0,0,15,,,,,,,,,,,,,,,,15,,70,72
28680,note_on,,0,0,15,,,,,,,,,,,,,,,,15,,74,72
28680,note_on,,1,0,14,,,,,,,,,,,,,,,,13,,58,72
28680,note_on,,1,0,6,,,,,,,,,,,,,,,,2,,58,72
28680,note_on,,0,0,15,,,,,,,,,,,,,,,,15,,62,72
28680,note_on,,1,0,15,,,,,,,,,,,,,,,,15,,58,72
28709,note_on,,29,0,12,,,,,,,,,,,,,,,,11,,74,0
28710,note_on,,1,0,12,,,,,,,,,,,,,,,,11,,76,72
28739,note_on,,59,0,15,,,,,,,,,,,,,,,,15,,58,0
28739,note_on,,59,0,6,,,,,,,,,,,,,,,,2,,58,0
28739,note_on,,59,0,13,,,,,,,,,,,,,,,,12,,74,0
28739,note_on,,29,0,12,,,,,,,,,,,,,,,,11,,76,0
28739,note_on,,0,0,15,,,,,,,,,,,,,,,,15,,62,0
28739,note_on,,0,0,15,,,,,,,,,,,,,,,,15,,70,0
28739,note_on,,0,0,15,,,,,,,,,,,,,,,,15,,74,0
28739,note_on,,59,0,14,,,,,,,,,,,,,,,,13,,58,0
28739,note_on,,59,0,10,,,,,,,,,,,,,,,,8,,62,0
28740,note_on,,0,0,15,,,,,,,,,,,,,,,,15,,65,72
28740,note_on,,1,0,6,,,,,,,,,,,,,,,,2,,57,72
28740,note_on,,1,0,13,,,,,,,,,,,,,,,,12,,74,72
28740,note_on,,0,0,15,,,,,,,,,,,,,,,,15,,62,72
28740,note_on,,1,0,15,,,,,,,,,,,,,,,,15,,57,72
28740,note_on,,1,0,12,,,,,,,,,,,,,,,,11,,77,72
28740,note_on,,1,0,14,,,,,,,,,,,,,,,,13,,57,72
28740,note_on,,1,0,10,,,,,,,,,,,,,,,,8,,62,72
28769,note_on,,29,0,12,,,,,,,,,,,,,,,,11,,77,0
28770,note_on,,1,0,12,,,,,,,,,,,,,,,,11,,74,72
28799,note_on,,119,0,11,,,,,,,,,,,,,,,,10,,65,0
28799,note_on,,59,0,13,,,,,,,,,,,,,,,,12,,74,0
28799,note_on,,59,0,10,,,,,,,,,,,,,,,,8,,62,0
28799,note_on,,119,0,7,,,,,,,,,,,,,,,,5,,65,0
28799,note_on,,59,0,6,,,,,,,,,,,,,,,,2,,57,0
28799,note_on,,119,0,5,,,,,,,,,,,,,,,,1,,65,0
28799,note_on,,0,0,15,,,,,,,,,,,,,,,,15,,62,0
28799,note_on,,59,0,15,,,,,,,,,,,,,,,,15,,57,0
28799,note_on,,29,0,12,,,,,,,,,,,,,,,,11,,74,0
28799,note_on,,0,0,15,,,,,,,,,,,,,,,,15,,65,0
28799,note_on,,59,0,14,,,,,,,,,,,,,,,,13,,57,0
28800,note_on,,1,0,15,,,,,,,,,,,,,,,,15,,55,72
28800,note_on,,0,0,15,,,,,,,,,,,,,,,,15,,70,72
28800,note_on,,0,0,15,,,,,,,,,,,,,,,,15,,67,72
28800,note_on,,0,0,15,,,,,,,,,,,,,,,,15,,62,72
28800,note_on,,1,0,10,,,,,,,,,,,,,,,,8,,62,72
28800,note_on,,1,0,13,,,,,,,,,,,,,,,,12,,74,72
28800,note_on,,1,0,14,,,,,,,,,,,,,,,,13,,55,72
28800,note_on,,1,0,6,,,,,,,,,,,,,,,,2,,55,72
28800,note_on,,1,0,12,,,,,,,,,,,,,,,,11,,79,72
28829,note_on,,29,0,12,,,,,,,,,,,,,,,,11,,79,0
28830,note_on,,1,0,12,,,,,,,,,,,,,,,,11,,81,72
28859,note_on,,59,0,14,,,,,,,,,,,,,,,,13,,55,0
28859,note_on,,59,0,6,,,,,,,,,,,,,,,,2,,55,0
28859,note_on,,29,0,12,,,,,,,,,,,,,,,,11,,81,0
28859,note_on,,59,0,15,,,,,,,,,,,,,,,,15,,55,0
28860,note_on,,1,0,14,,,,,,,,,,,,,,,,13,,43,72
28860,note_on,,1,0,6,,,,,,,,,,,,,,,,2,,43,72
28860,note_on,,1,0,12,,,,,,,,,,,,,,,,11,,82,72
28860,note_on,,1,0,15,,,,,,,,,,,,,,,,15,,43,72
28889,note_on,,29,0,12,,,,,,,,,,,,,,,,11,,82,0
28890,note_on,,1,0,12,,,,,,,,,,,,,,,,11,,81,72
28919,note_on,,59,0,15,,,,,,,,,,,,,,,,15,,70,0
28919,note_on,,0,0,15,,,,,,,,,,,,,,,,15,,67,0
28919,note_on,,0,0,15,,,,,,,,,,,,,,,,15,,62,0
28919,note_on,,59,0,6,,,,,,,,,,,,,,,,2,,43,0
28919,note_on,,119,0,10,,,,,,,,,,,,,,,,8,,62,0
28919,note_on,,0,0,15,,,,,,,,,,,,,,,,15,,43,0
28919,note_on,,59,0,14,,,,,,,,,,,,,,,,13,,43,0
28919,note_on,,29,0,12,,,,,,,,,,,,,,,,11,,81,0
28919,note_on,,119,0,13,,,,,,,,,,,,,,,,12,,74,0
28920,note_on,,1,0,15,,,,,,,,,,,,,,,,15,,46,72
28920,note_on,,121,0,7,,,,,,,,,,,,,,,,5,,79,72
28920,note_on,,0,0,15,,,,,,,,,,,,,,,,15,,74,72
28920,note_on,,0,0,15,,,,,,,,,,,,,,,,15,,67,72
28920,note_on,,0,0,15,,,,,,,,,,,,,,,,15,,62,72
28920,note_on,,121,0,11,,,,,,,,,,,,,,,,10,,79,72
28920,note_on,,1,0,14,,,,,,,,,,,,,,,,13,,46,72
28920,note_on,,1,0,10,,,,,,,,,,,,,,,,8,,50,72
28920,note_on,,121,0,5,,,,,,,,,,,,,,,,1,,79,72
28920,note_on,,1,0,13,,,,,,,,,,,,,,,,12,,62,72
28920,note_on,,1,0,12,,,,,,,,,,,,,,,,11,,79,72
28920,note_on,,1,0,6,,,,,,,,,,,,,,,,2,,46,72
28949,note_on,,29,0,12,,,,,,,,,,,,,,,,11,,79,0
28950,note_on,,1,0,12,,,,,,,,,,,,,,,,11,,77,72
28979,note_on,,59,0,5,,,,,,,,,,,,,,,,1,,79,0
28979,note_on,,29,0,12,,,,,,,,,,,,,,,,11,,77,0
28979,note_on,,59,0,6,,,,,,,,,,,,,,,,2,,46,0
28979,note_on,,59,0,15,,,,,,,,,,,,,,,,15,,46,0
28979,note_on,,0,0,15,,,,,,,,,,,,,,,,15,,74,0
28979,note_on,,0,0,15,,,,,,,,,,,,,,,,15,,67,0
28979,note_on,,0,0,15,,,,,,,,,,,,,,,,15,,62,0
28979,note_on,,59,0,14,,,,,,,,,,,,,,,,13,,46,0
28979,note_on,,59,0,7,,,,,,,,,,,,,,,,5,,79,0
28979,note_on,,59,0,11,,,,,,,,,,,,,,,,10,,79,0
28980,note_on,,1,0,7,,,,,,,,,,,,,,,,5,,79,72
28980,note_on,,1,0,14,,,,,,,,,,,,,,,,13,,43,72
28980,note_on,,1,0,12,,,,,,,,,,,,,,,,11,,76,72
28980,note_on,,1,0,11,,,,,,,,,,,,,,,,10,,79,72
28980,note_on,,1,0,6,,,,,,,,,,,,,,,,2,,43,72
28980,note_on,,1,0,15,,,,,,,,,,,,,,,,15,,43,72
28980,note_on,,0,0,15,,,,,,,,,,,,,,,,15,,70,72
28980,note_on,,0,0,15,,,,,,,,,,,,,,,,15,,67,72
28980,note_on,,0,0,15,,,,,,,,,,,,,,,,15,,62,72
28980,note_on,,1,0,5,,,,,,,,,,,,,,,,1,,79,72
29009,note_on,,29,0,12,,,,,,,,,,,,,,,,11,,76,0
29010,note_on,,1,0,12,,,,,,,,,,,,,,,,11,,74,72
29039,note_on,,0,0,15,,,,,,,,,,,,,,,,15,,70,0
29039,note_on,,59,0,5,,,,,,,,,,,,,,,,1,,79,0
29039,note_on,,29,0,12,,,,,,,,,,,,,,,,11,,74,0
29039,note_on,,59,0,6,,,,,,,,,,,,,,,,2,,43,0
29039,note_on,,59,0,14,,,,,,,,,,,,,,,,13,,43,0
29039,note_on,,59,0,11,,,,,,,,,,,,,,,,10,,79,0
29039,note_on,,0,0,15,,,,,,,,,,,,,,,,15,,67,0
29039,note_on,,59,0,15,,,,,,,,,,,,,,,,15,,43,0
29039,note_on,,119,0,13,,,,,,,,,,,,,,,,12,,62,0
29039,note_on,,0,0,15,,,,,,,,,,,,,,,,15,,62,0
29039,note_on,,119,0,10,,,,,,,,,,,,,,,,8,,50,0
29039,note_on,,59,0,7,,,,,,,,,,,,,,,,5,,79,0
29040,note_on,,1,0,11,,,,,,,,,,,,,,,,10,,79,72
29040,note_on,,0,0,15,,,,,,,,,,,,,,,,15,,60,72
29040,note_on,,0,0,15,,,,,,,,,,,,,,,,15,,64,72
29040,note_on,,1,0,6,,,,,,,,,,,,,,,,2,,48,72
29040,note_on,,1,0,14,,,,,,,,,,,,,,,,13,,48,72
29040,note_on,,1,0,5,,,,,,,,,,,,,,,,1,,79,72
29040,note_on,,1,0,15,,,,,,,,,,,,,,,,15,,48,72
29040,note_on,,0,0,15,,,,,,,,,,,,,,,,15,,67,72
29040,note_on,,1,0,12,,,,,,,,,,,,,,,,11,,76,72
29040,note_on,,1,0,7,,,,,,,,,,,,,,,,5,,79,72
29069,note_on,,29,0,12,,,,,,,,,,,,,,,,11,,76,0
29070,note_on,,1,0,12,,,,,,,,,,,,,,,,11,,74,72
29099,note_on,,59,0,14,,,,,,,,,,,,,,,,13,,48,0
29099,note_on,,59,0,6,,,,,,,,,,,,,,,,2,,48,0
29099,note_on,,59,0,15,,,,,,,,,,,,,,,,15,,48,0
29099,note_on,,29,0,12,,,,,,,,,,,,,,,,11,,74,0
29100,note_on,,1,0,6,,,,,,,,,,,,,,,,2,,60,72
29100,note_on,,1,0,15,,,,,,,,,,,,,,,,15,,60,72
29100,note_on,,1,0,12,,,,,,,,,,,,,,,,11,,72,72
29100,note_on,,1,0,14,,,,,,,,,,,,,,,,13,,60,72
29129,note_on,,29,0,12,,,,,,,,,,,,,,,,11,,72,0
29130,note_on,,1,0,12,,,,,,,,,,,,,,,,11,,74,72
29159,note_on,,59,0,6,,,,,,,,,,,,,,,,2,,60,0
29159,note_on,,29,0,12,,,,,,,,,,,,,,,,11,,74,0
29159,note_on,,59,0,14,,,,,,,,,,,,,,,,13,,60,0
29159,note_on,,119,0,5,,,,,,,,,,,,,,,,1,,79,0
29159,note_on,,0,0,15,,,,,,,,,,,,,,,,15,,60,0
29159,note_on,,59,0,15,,,,,,,,,,,,,,,,15,,67,0
29159,note_on,,0,0,15,,,,,,,,,,,,,,,,15,,64,0
29159,note_on,,0,0,15,,,,,,,,,,,,,,,,15,,60,0
29159,note_on,,119,0,11,,,,,,,,,,,,,,,,10,,79,0
29159,note_on,,119,0,7,,,,,,,,,,,,,,,,5,,79,0
29160,note_on,,1,0,7,,,,,,,,,,,,,,,,5,,67,72
29160,note_on,,1,0,14,,,,,,,,,,,,,,,,13,,60,72
29160,note_on,,1,0,11,,,,,,,,,,,,,,,,10,,67,72
29160,note_on,,121,0,13,,,,,,,,,,,,,,,,12,,64,72
29160,note_on,,1,0,12,,,,,,,,,,,,,,,,11,,76,72
29160,note_on,,1921,0,9,,,,,,,,,,,,,,,,7,,64,72
29160,note_on,,1,0,15,,,,,,,,,,,,,,,,15,,60,72
29160,note_on,,0,0,15,,,,,,,,,,,,,,,,15,,72,72
29160,note_on,,1,0,6,,,,,,,,,,,,,,,,2,,60,72
29160,note_on,,0,0,15,,,,,,,,,,,,,,,,15,,67,72
29160,note_on,,0,0,15,,,,,,,,,,,,,,,,15,,64,72
29160,note_on,,1,0,5,,,,,,,,,,,,,,,,1,,67,72
29189,note_on,,29,0,12,,,,,,,,,,,,,,,,11,,76,0
29190,note_on,,1,0,12,,,,,,,,,,,,,,,,11,,77,72
29219,note_on,,59,0,14,,,,,,,,,,,,,,,,13,,60,0
29219,note_on,,0,0,15,,,,,,,,,,,,,,,,15,,64,0
29219,note_on,,59,0,11,,,,,,,,,,,,,,,,10,,67,0
29219,note_on,,29,0,12,,,,,,,,,,,,,,,,11,,77,0
29219,note_on,,59,0,9,,,,,,,,,,,,,,,,7,,64,0
29219,note_on,,0,0,15,,,,,,,,,,,,,,,,15,,67,0
29219,note_on,,0,0,15,,,,,,,,,,,,,,,,15,,72,0
29219,note_on,,59,0,15,,,,,,,,,,,,,,,,15,,60,0
29219,note_on,,59,0,13,,,,,,,,,,,,,,,,12,,64,0
29219,note_on,,59,0,6,,,,,,,,,,,,,,,,2,,60,0
29220,note_on,,1,0,11,,,,,,,,,,,,,,,,10,,64,72
29220,note_on,,0,0,15,,,,,,,,,,,,,,,,15,,64,72
29220,note_on,,0,0,15,,,,,,,,,,,,,,,,15,,67,72
29220,note_on,,1,0,14,,,,,,,,,,,,,,,,13,,58,72
29220,note_on,,1,0,13,,,,,,,,,,,,,,,,12,,64,72
29220,note_on,,1,0,6,,,,,,,,,,,,,,,,2,,58,72
29220,note_on,,1,0,15,,,,,,,,,,,,,,,,15,,58,72
29220,note_on,,1,0,12,,,,,,,,,,,,,,,,11,,79,72
29220,note_on,,1,0,9,,,,,,,,,,,,,,,,7,,64,72
29220,note_on,,0,0,15,,,,,,,,,,,,,,,,15,,72,72
29249,note_on,,29,0,12,,,,,,,,,,,,,,,,11,,79,0
29250,note_on,,1,0,12,,,,,,,,,,,,,,,,11,,76,72
29279,note_on,,59,0,14,,,,,,,,,,,,,,,,13,,58,0
29279,note_on,,59,0,13,,,,,,,,,,,,,,,,12,,64,0
29279,note_on,,0,0,15,,,,,,,,,,,,,,,,15,,64,0
29279,note_on,,0,0,15,,,,,,,,,,,,,,,,15,,67,0
29279,note_on,,59,0,11,,,,,,,,,,,,,,,,10,,64,0
29279,note_on,,59,0,15,,,,,,,,,,,,,,,,15,,58,0
29279,note_on,,119,0,5,,,,,,,,,,,,,,,,1,,67,0
29279,note_on,,29,0,12,,,,,,,,,,,,,,,,11,,76,0
29279,note_on,,59,0,9,,,,,,,,,,,,,,,,7,,64,0
29279,note_on,,119,0,7,,,,,,,,,,,,,,,,5,,67,0
29279,note_on,,59,0,6,,,,,,,,,,,,,,,,2,,58,0
29279,note_on,,0,0,15,,,,,,,,,,,,,,,,15,,72,0
29280,note_on,,1,0,12,,,,,,,,,,,,,,,,11,,72,72
29280,note_on,,1,0,13,,,,,,,,,,,,,,,,12,,64,72
29280,note_on,,1,0,9,,,,,,,,,,,,,,,,7,,64,72
29280,note_on,,1,0,15,,,,,,,,,,,,,,,,15,,57,72
29280,note_on,,0,0,15,,,,,,,,,,,,,,,,15,,72,72
29280,note_on,,0,0,15,,,,,,,,,,,,,,,,15,,64,72
29280,note_on,,0,0,15,,,,,,,,,,,,,,,,15,,69,72
29280,note_on,,1,0,6,,,,,,,,,,,,,,,,2,,57,72
29280,note_on,,1,0,11,,,,,,,,,,,,,,,,10,,69,72
29280,note_on,,1,0,14,,,,,,,,,,,,,,,,13,,57,72
29309,note_on,,29,0,11,,,,,,,,,,,,,,,,10,,69,0
29310,note_on,,1,0,11,,,,,,,,,,,,,,,,10,,70,72
29339,note_on,,59,0,6,,,,,,,,,,,,,,,,2,,57,0
29339,note_on,,59,0,12,,,,,,,,,,,,,,,,11,,72,0
29339,note_on,,59,0,15,,,,,,,,,,,,,,,,15,,57,0
29339,note_on,,29,0,11,,,,,,,,,,,,,,,,10,,70,0
29339,note_on,,59,0,14,,,,,,,,,,,,,,,,13,,57,0
29340,note_on,,1,0,15,,,,,,,,,,,,,,,,15,,45,72
29340,note_on,,1,0,6,,,,,,,,,,,,,,,,2,,45,72
29340,note_on,,1,0,12,,,,,,,,,,,,,,,,11,,76,72
29340,note_on,,1,0,11,,,,,,,,,,,,,,,,10,,72,72
29340,note_on,,1,0,14,,,,,,,,,,,,,,,,13,,45,72
29369,note_on,,29,0,11,,,,,,,,,,,,,,,,10,,72,0
29370,note_on,,1,0,11,,,,,,,,,,,,,,,,10,,70,72
29399,note_on,,59,0,6,,,,,,,,,,,,,,,,2,,45,0
29399,note_on,,59,0,15,,,,,,,,,,,,,,,,15,,72,0
29399,note_on,,0,0,15,,,,,,,,,,,,,,,,15,,69,0
29399,note_on,,0,0,15,,,,,,,,,,,,,,,,15,,64,0
29399,note_on,,119,0,13,,,,,,,,,,,,,,,,12,,64,0
29399,note_on,,59,0,12,,,,,,,,,,,,,,,,11,,76,0
29399,note_on,,0,0,15,,,,,,,,,,,,,,,,15,,45,0
29399,note_on,,29,0,11,,,,,,,,,,,,,,,,10,,70,0
29399,note_on,,59,0,14,,,,,,,,,,,,,,,,13,,45,0
29399,note_on,,119,0,9,,,,,,,,,,,,,,,,7,,64,0
29400,note_on,,1201,0,8,,,,,,,,,,,,,,,,6,,69,72
29400,note_on,,1,0,6,,,,,,,,,,,,,,,,2,,48,72
29400,note_on,,1,0,12,,,,,,,,,,,,,,,,11,,81,72
29400,note_on,,1,0,11,,,,,,,,,,,,,,,,10,,69,72
29400,note_on,,1,0,14,,,,,,,,,,,,,,,,13,,48,72
29400,note_on,,1,0,15,,,,,,,,,,,,,,,,15,,48,72
29400,note_on,,0,0,15,,,,,,,,,,,,,,,,15,,64,72
29400,note_on,,0,0,15,,,,,,,,,,,,,,,,15,,76,72
29400,note_on,,1,0,13,,,,,,,,,,,,,,,,12,,52,72
29400,note_on,,0,0,15,,,,,,,,,,,,,,,,15,,69,72
29400,note_on,,1,0,9,,,,,,,,,,,,,,,,7,,52,72
29429,note_on,,29,0,11,,,,,,,,,,,,,,,,10,,69,0
29430,note_on,,1,0,11,,,,,,,,,,,,,,,,10,,67,72
29459,note_on,,59,0,12,,,,,,,,,,,,,,,,11,,81,0
29459,note_on,,0,0,15,,,,,,,,,,,,,,,,15,,69,0
29459,note_on,,0,0,15,,,,,,,,,,,,,,,,15,,64,0
29459,note_on,,29,0,11,,,,,,,,,,,,,,,,10,,67,0
29459,note_on,,59,0,6,,,,,,,,,,,,,,,,2,,48,0
29459,note_on,,59,0,8,,,,,,,,,,,,,,,,6,,69,0
29459,note_on,,59,0,15,,,,,,,,,,,,,,,,15,,48,0
29459,note_on,,59,0,14,,,,,,,,,,,,,,,,13,,48,0
29459,note_on,,0,0,15,,,,,,,,,,,,,,,,15,,76,0
29460,note_on,,1,0,11,,,,,,,,,,,,,,,,10,,65,72
29460,note_on,,1,0,12,,,,,,,,,,,,,,,,11,,81,72
29460,note_on,,1,0,8,,,,,,,,,,,,,,,,6,,69,72
29460,note_on,,0,0,15,,,,,,,,,,,,,,,,15,,69,72
29460,note_on,,1,0,15,,,,,,,,,,,,,,,,15,,45,72
29460,note_on,,0,0,15,,,,,,,,,,,,,,,,15,,64,72
29460,note_on,,1,0,14,,,,,,,,,,,,,,,,13,,45,72
29460,note_on,,0,0,15,,,,,,,,,,,,,,,,15,,72,72
29460,note_on,,1,0,6,,,,,,,,,,,,,,,,2,,45,72
29489,note_on,,29,0,11,,,,,,,,,,,,,,,,10,,65,0
29490,note_on,,1,0,11,,,,,,,,,,,,,,,,10,,64,72
29519,note_on,,119,0,9,,,,,,,,,,,,,,,,7,,52,0
29519,note_on,,29,0,11,,,,,,,,,,,,,,,,10,,64,0
29519,note_on,,59,0,14,,,,,,,,,,,,,,,,13,,45,0
29519,note_on,,59,0,6,,,,,,,,,,,,,,,,2,,45,0
29519,note_on,,59,0,12,,,,,,,,,,,,,,,,11,,81,0
29519,note_on,,0,0,15,,,,,,,,,,,,,,,,15,,64,0
29519,note_on,,0,0,15,,,,,,,,,,,,,,,,15,,69,0
29519,note_on,,0,0,15,,,,,,,,,,,,,,,,15,,72,0
29519,note_on,,59,0,15,,,,,,,,,,,,,,,,15,,45,0
29519,note_on,,119,0,13,,,,,,,,,,,,,,,,12,,52,0
29519,note_on,,59,0,8,,,,,,,,,,,,,,,,6,,69,0
29520,note_on,,1,0,14,,,,,,,,,,,,,,,,13,,50,72
29520,note_on,,1,0,11,,,,,,,,,,,,,,,,10,,65,72
29520,note_on,,0,0,15,,,,,,,,,,,,,,,,15,,65,72
29520,note_on,,0,0,15,,,,,,,,,,,,,,,,15,,62,72
29520,note_on,,0,0,15,,,,,,,,,,,,,,,,15,,69,72
29520,note_on,,1,0,15,,,,,,,,,,,,,,,,15,,50,72
29520,note_on,,1,0,8,,,,,,,,,,,,,,,,6,,69,72
29520,note_on,,1,0,12,,,,,,,,,,,,,,,,11,,81,72
29520,note_on,,1,0,6,,,,,,,,,,,,,,,,2,,50,72
29549,note_on,,29,0,11,,,,,,,,,,,,,,,,10,,65,0
29550,note_on,,1,0,11,,,,,,,,,,,,,,,,10,,64,72
29579,note_on,,59,0,6,,,,,,,,,,,,,,,,2,,50,0
29579,note_on,,59,0,14,,,,,,,,,,,,,,,,13,,50,0
29579,note_on,,59,0,15,,,,,,,,,,,,,,,,15,,50,0
29579,note_on,,29,0,11,,,,,,,,,,,,,,,,10,,64,0
29580,note_on,,1,0,11,,,,,,,,,,,,,,,,10,,62,72
29580,note_on,,1,0,6,,,,,,,,,,,,,,,,2,,62,72
29580,note_on,,1,0,15,,,,,,,,,,,,,,,,15,,62,72
29580,note_on,,1,0,14,,,,,,,,,,,,,,,,13,,62,72
29609,note_on,,29,0,11,,,,,,,,,,,,,,,,10,,62,0
29610,note_on,,1,0,11,,,,,,,,,,,,,,,,10,,64,72
29639,note_on,,29,0,11,,,,,,,,,,,,,,,,10,,64,0
29639,note_on,,59,0,14,,,,,,,,,,,,,,,,13,,62,0
29639,note_on,,0,0,15,,,,,,,,,,,,,,,,15,,62,0
29639,note_on,,0,0,15,,,,,,,,,,,,,,,,15,,65,0
29639,note_on,,59,0,15,,,,,,,,,,,,,,,,15,,69,0
29639,note_on,,119,0,12,,,,,,,,,,,,,,,,11,,81,0
29639,note_on,,0,0,15,,,,,,,,,,,,,,,,15,,62,0
29639,note_on,,119,0,8,,,,,,,,,,,,,,,,6,,69,0
29639,note_on,,59,0,6,,,,,,,,,,,,,,,,2,,62,0
29640,note_on,,1,0,11,,,,,,,,,,,,,,,,10,,65,72
29640,note_on,,1,0,15,,,,,,,,,,,,,,,,15,,62,72
29640,note_on,,121,0,9,,,,,,,,,,,,,,,,7,,65,72
29640,note_on,,1,0,12,,,,,,,,,,,,,,,,11,,69,72
29640,note_on,,0,0,15,,,,,,,,,,,,,,,,15,,74,72
29640,note_on,,0,0,15,,,,,,,,,,,,,,,,15,,65,72
29640,note_on,,0,0,15,,,,,,,,,,,,,,,,15,,69,72
29640,note_on,,121,0,13,,,,,,,,,,,,,,,,12,,65,72
29640,note_on,,1,0,6,,,,,,,,,,,,,,,,2,,62,72
29640,note_on,,1,0,8,,,,,,,,,,,,,,,,6,,57,72
29640,note_on,,1,0,14,,,,,,,,,,,,,,,,13,,62,72
29669,note_on,,29,0,11,,,,,,,,,,,,,,,,10,,65,0
29670,note_on,,1,0,11,,,,,,,,,,,,,,,,10,,67,72
29699,note_on,,59,0,9,,,,,,,,,,,,,,,,7,,65,0
29699,note_on,,29,0,11,,,,,,,,,,,,,,,,10,,67,0
29699,note_on,,59,0,14,,,,,,,,,,,,,,,,13,,62,0
29699,note_on,,59,0,6,,,,,,,,,,,,,,,,2,,62,0
29699,note_on,,59,0,13,,,,,,,,,,,,,,,,12,,65,0
29699,note_on,,59,0,15,,,,,,,,,,,,,,,,15,,62,0
29699,note_on,,0,0,15,,,,,,,,,,,,,,,,15,,74,0
29699,note_on,,0,0,15,,,,,,,,,,,,,,,,15,,69,0
29699,note_on,,0,0,15,,,,,,,,,,,,,,,,15,,65,0
29700,note_on,,1,0,11,,,,,,,,,,,,,,,,10,,69,72
29700,note_on,,1,0,15,,,,,,,,,,,,,,,,15,,60,72
29700,note_on,,0,0,15,,,,,,,,,,,,,,,,15,,74,72
29700,note_on,,0,0,15,,,,,,,,,,,,,,,,15,,65,72
29700,note_on,,0,0,15,,,,,,,,,,,,,,,,15,,69,72
29700,note_on,,1,0,14,,,,,,,,,,,,,,,,13,,60,72
29700,note_on,,1,0,6,,,,,,,,,,,,,,,,2,,60,72
29700,note_on,,1,0,9,,,,,,,,,,,,,,,,7,,65,72
29700,note_on,,1,0,13,,,,,,,,,,,,,,,,12,,65,72
29729,note_on,,29,0,11,,,,,,,,,,,,,,,,10,,69,0
29730,note_on,,1,0,11,,,,,,,,,,,,,,,,10,,65,72
29759,note_on,,59,0,14,,,,,,,,,,,,,,,,13,,60,0
29759,note_on,,119,0,8,,,,,,,,,,,,,,,,6,,57,0
29759,note_on,,29,0,11,,,,,,,,,,,,,,,,10,,65,0
29759,note_on,,119,0,12,,,,,,,,,,,,,,,,11,,69,0
29759,note_on,,0,0,15,,,,,,,,,,,,,,,,15,,74,0
29759,note_on,,0,0,15,,,,,,,,,,,,,,,,15,,69,0
29759,note_on,,0,0,15,,,,,,,,,,,,,,,,15,,65,0
29759,note_on,,59,0,9,,,,,,,,,,,,,,,,7,,65,0
29759,note_on,,59,0,15,,,,,,,,,,,,,,,,15,,60,0
29759,note_on,,59,0,6,,,,,,,,,,,,,,,,2,,60,0
29759,note_on,,59,0,13,,,,,,,,,,,,,,,,12,,65,0
29760,note_on,,1,0,15,,,,,,,,,,,,,,,,15,,58,72
29760,note_on,,0,0,15,,,,,,,,,,,,,,,,15,,65,72
29760,note_on,,0,0,15,,,,,,,,,,,,,,,,15,,70,72
29760,note_on,,0,0,15,,,,,,,,,,,,,,,,15,,74,72
29760,note_on,,1,0,9,,,,,,,,,,,,,,,,7,,65,72
29760,note_on,,1,0,6,,,,,,,,,,,,,,,,2,,58,72
29760,note_on,,1,0,14,,,,,,,,,,,,,,,,13,,58,72
29760,note_on,,1,0,11,,,,,,,,,,,,,,,,10,,70,72
29760,note_on,,1,0,13,,,,,,,,,,,,,,,,12,,65,72
29789,note_on,,29,0,11,,,,,,,,,,,,,,,,10,,70,0
29790,note_on,,1,0,11,,,,,,,,,,,,,,,,10,,72,72
29819,note_on,,59,0,15,,,,,,,,,,,,,,,,15,,58,0
29819,note_on,,59,0,6,,,,,,,,,,,,,,,,2,,58,0
29819,note_on,,59,0,14,,,,,,,,,,,,,,,,13,,58,0
29819,note_on,,29,0,11,,,,,,,,,,,,,,,,10,,72,0
29820,note_on,,1,0,6,,,,,,,,,,,,,,,,2,,46,72
29820,note_on,,1,0,11,,,,,,,,,,,,,,,,10,,74,72
29820,note_on,,1,0,15,,,,,,,,,,,,,,,,15,,46,72
29820,note_on,,1,0,14,,,,,,,,,,,,,,,,13,,46,72
29849,note_on,,29,0,11,,,,,,,,,,,,,,,,10,,74,0
29850,note_on,,1,0,11,,,,,,,,,,,,,,,,10,,75,72
29879,note_on,,119,0,9,,,,,,,,,,,,,,,,7,,65,0
29879,note_on,,0,0,15,,,,,,,,,,,,,,,,15,,65,0
29879,note_on,,0,0,15,,,,,,,,,,,,,,,,15,,70,0
29879,note_on,,59,0,15,,,,,,,,,,,,,,,,15,,74,0
29879,note_on,,29,0,11,,,,,,,,,,,,,,,,10,,75,0
29879,note_on,,119,0,13,,,,,,,,,,,,,,,,12,,65,0
29879,note_on,,0,0,15,,,,,,,,,,,,,,,,15,,46,0
29879,note_on,,59,0,6,,,,,,,,,,,,,,,,2,,46,0
29879,note_on,,59,0,14,,,,,,,,,,,,,,,,13,,46,0
29880,note_on,,1,0,15,,,,,,,,,,,,,,,,15,,50,72
29880,note_on,,1,0,6,,,,,,,,,,,,,,,,2,,50,72
29880,note_on,,1,0,9,,,,,,,,,,,,,,,,7,,53,72
29880,note_on,,121,0,8,,,,,,,,,,,,,,,,6,,70,72
29880,note_on,,121,0,12,,,,,,,,,,,,,,,,11,,82,72
29880,note_on,,1,0,14,,,,,,,,,,,,,,,,13,,50,72
29880,note_on,,0,0,15,,,,,,,,,,,,,,,,15,,65,72
29880,note_on,,1,0,13,,,,,,,,,,,,,,,,12,,53,72
29880,note_on,,1,0,11,,,,,,,,,,,,,,,,10,,77,72
29880,note_on,,0,0,15,,,,,,,,,,,,,,,,15,,58,72
29909,note_on,,29,0,11,,,,,,,,,,,,,,,,10,,77,0
29910,note_on,,1,0,11,,,,,,,,,,,,,,,,10,,75,72
29939,note_on,,59,0,12,,,,,,,,,,,,,,,,11,,82,0
29939,note_on,,0,0,15,,,,,,,,,,,,,,,,15,,58,0
29939,note_on,,59,0,8,,,,,,,,,,,,,,,,6,,70,0
29939,note_on,,59,0,15,,,,,,,,,,,,,,,,15,,50,0
29939,note_on,,0,0,15,,,,,,,,,,,,,,,,15,,65,0
29939,note_on,,59,0,6,,,,,,,,,,,,,,,,2,,50,0
29939,note_on,,29,0,11,,,,,,,,,,,,,,,,10,,75,0
29939,note_on,,59,0,14,,,,,,,,,,,,,,,,13,,50,0
29940,note_on,,1,0,11,,,,,,,,,,,,,,,,10,,74,72
29940,note_on,,1,0,8,,,,,,,,,,,,,,,,6,,70,72
29940,note_on,,1,0,14,,,,,,,,,,,,,,,,13,,46,72
29940,note_on,,1,0,12,,,,,,,,,,,,,,,,11,,82,72
29940,note_on,,1,0,15,,,,,,,,,,,,,,,,15,,46,72
29940,note_on,,0,0,15,,,,,,,,,,,,,,,,15,,65,72
29940,note_on,,0,0,15,,,,,,,,,,,,,,,,15,,62,72
29940,note_on,,1,0,6,,,,,,,,,,,,,,,,2,,46,72
29969,note_on,,29,0,11,,,,,,,,,,,,,,,,10,,74,0
29970,note_on,,1,0,11,,,,,,,,,,,,,,,,10,,72,72
29999,note_on,,59,0,8,,,,,,,,,,,,,,,,6,,70,0
29999,note_on,,0,0,15,,,,,,,,,,,,,,,,15,,65,0
29999,note_on,,59,0,12,,,,,,,,,,,,,,,,11,,82,0
29999,note_on,,59,0,6,,,,,,,,,,,,,,,,2,,46,0
29999,note_on,,0,0,15,,,,,,,,,,,,,,,,15,,62,0
29999,note_on,,119,0,9,,,,,,,,,,,,,,,,7,,53,0
29999,note_on,,59,0,14,,,,,,,,,,,,,,,,13,,46,0
29999,note_on,,119,0,13,,,,,,,,,,,,,,,,12,,53,0
29999,note_on,,59,0,15,,,,,,,,,,,,,,,,15,,46,0
29999,note_on,,29,0,11,,,,,,,,,,,,,,,,10,,72,0
30000,note_on,,1,0,12,,,,,,,,,,,,,,,,11,,82,72
30000,note_on,,0,0,15,,,,,,,,,,,,,,,,15,,70,72
30000,note_on,,0,0,15,,,,,,,,,,,,,,,,15,,67,72
30000,note_on,,0,0,15,,,,,,,,,,,,,,,,15,,62,72
30000,note_on,,1,0,14,,,,,,,,,,,,,,,,13,,43,72
30000,note_on,,1,0,11,,,,,,,,,,,,,,,,10,,70,72
30000,note_on,,1,0,6,,,,,,,,,,,,,,,,2,,43,72
30000,note_on,,1,0,8,,,,,,,,,,,,,,,,6,,70,72
30000,note_on,,1,0,15,,,,,,,,,,,,,,,,15,,43,72
30029,note_on,,29,0,11,,,,,,,,,,,,,,,,10,,70,0
30030,note_on,,1,0,11,,,,,,,,,,,,,,,,10,,77,72
30059,note_on,,59,0,6,,,,,,,,,,,,,,,,2,,43,0
30059,note_on,,59,0,14,,,,,,,,,,,,,,,,13,,43,0
30059,note_on,,29,0,11,,,,,,,,,,,,,,,,10,,77,0
30059,note_on,,59,0,15,,,,,,,,,,,,,,,,15,,43,0
30060,note_on,,1,0,11,,,,,,,,,,,,,,,,10,,79,72
30060,note_on,,1,0,6,,,,,,,,,,,,,,,,2,,50,72
30060,note_on,,1,0,14,,,,,,,,,,,,,,,,13,,50,72
30060,note_on,,1,0,15,,,,,,,,,,,,,,,,15,,50,72
30089,note_on,,29,0,11,,,,,,,,,,,,,,,,10,,79,0
30090,note_on,,1,0,11,,,,,,,,,,,,,,,,10,,81,72
30119,note_on,,0,0,15,,,,,,,,,,,,,,,,15,,67,0
30119,note_on,,0,0,15,,,,,,,,,,,,,,,,15,,62,0
30119,note_on,,119,0,12,,,,,,,,,,,,,,,,11,,82,0
30119,note_on,,59,0,6,,,,,,,,,,,,,,,,2,,50,0
30119,note_on,,59,0,14,,,,,,,,,,,,,,,,13,,50,0
30119,note_on,,29,0,11,,,,,,,,,,,,,,,,10,,81,0
30119,note_on,,119,0,8,,,,,,,,,,,,,,,,6,,70,0
30119,note_on,,59,0,15,,,,,,,,,,,,,,,,15,,70,0
30119,note_on,,0,0,15,,,,,,,,,,,,,,,,15,,50,0
30120,note_on,,1,0,6,,,,,,,,,,,,,,,,2,,55,72
30120,note_on,,0,0,15,,,,,,,,,,,,,,,,15,,67,72
30120,note_on,,0,0,15,,,,,,,,,,,,,,,,15,,70,72
30120,note_on,,1,0,15,,,,,,,,,,,,,,,,15,,55,72
30120,note_on,,1,0,11,,,,,,,,,,,,,,,,10,,82,72
30120,note_on,,0,0,15,,,,,,,,,,,,,,,,15,,62,72
30120,note_on,,1,0,12,,,,,,,,,,,,,,,,11,,70,72
30120,note_on,,1,0,8,,,,,,,,,,,,,,,,6,,58,72
30120,note_on,,121,0,13,,,,,,,,,,,,,,,,12,,67,72
30120,note_on,,1,0,14,,,,,,,,,,,,,,,,13,,55,72
30149,note_on,,29,0,11,,,,,,,,,,,,,,,,10,,82,0
30150,note_on,,1,0,11,,,,,,,,,,,,,,,,10,,81,72
30179,note_on,,29,0,11,,,,,,,,,,,,,,,,10,,81,0
30179,note_on,,0,0,15,,,,,,,,,,,,,,,,15,,62,0
30179,note_on,,59,0,14,,,,,,,,,,,,,,,,13,,55,0
30179,note_on,,59,0,13,,,,,,,,,,,,,,,,12,,67,0
30179,note_on,,0,0,15,,,,,,,,,,,,,,,,15,,67,0
30179,note_on,,0,0,15,,,,,,,,,,,,,,,,15,,70,0
30179,note_on,,59,0,15,,,,,,,,,,,,,,,,15,,55,0
30179,note_on,,59,0,6,,,,,,,,,,,,,,,,2,,55,0
30180,note_on,,0,0,15,,,,,,,,,,,,,,,,15,,62,72
30180,note_on,,1,0,11,,,,,,,,,,,,,,,,10,,79,72
30180,note_on,,1,0,14,,,,,,,,,,,,,,,,13,,50,72
30180,note_on,,1,0,6,,,,,,,,,,,,,,,,2,,50,72
30180,note_on,,1,0,13,,,,,,,,,,,,,,,,12,,67,72
30180,note_on,,1,0,15,,,,,,,,,,,,,,,,15,,50,72
30180,note_on,,0,0,15,,,,,,,,,,,,,,,,15,,70,72
30180,note_on,,0,0,15,,,,,,,,,,,,,,,,15,,67,72
30209,note_on,,29,0,11,,,,,,,,,,,,,,,,10,,79,0
30210,note_on,,1,0,11,,,,,,,,,,,,,,,,10,,77,72
30239,note_on,,59,0,13,,,,,,,,,,,,,,,,12,,67,0
30239,note_on,,59,0,14,,,,,,,,,,,,,,,,13,,50,0
30239,note_on,,29,0,11,,,,,,,,,,,,,,,,10,,77,0
30239,note_on,,59,0,6,,,,,,,,,,,,,,,,2,,50,0
30239,note_on,,119,0,8,,,,,,,,,,,,,,,,6,,58,0
30239,note_on,,59,0,15,,,,,,,,,,,,,,,,15,,50,0
30239,note_on,,119,0,12,,,,,,,,,,,,,,,,11,,70,0
30239,note_on,,0,0,15,,,,,,,,,,,,,,,,15,,70,0
30239,note_on,,0,0,15,,,,,,,,,,,,,,,,15,,67,0
30239,note_on,,0,0,15,,,,,,,,,,,,,,,,15,,62,0
30240,note_on,,1,0,14,,,,,,,,,,,,,,,,13,,52,72
30240,note_on,,1,0,11,,,,,,,,,,,,,,,,10,,79,72
30240,note_on,,0,0,15,,,,,,,,,,,,,,,,15,,60,72
30240,note_on,,0,0,15,,,,,,,,,,,,,,,,15,,72,72
30240,note_on,,0,0,15,,,,,,,,,,,,,,,,15,,67,72
30240,note_on,,1,0,6,,,,,,,,,,,,,,,,2,,52,72
30240,note_on,,1,0,13,,,,,,,,,,,,,,,,12,,67,72
30240,note_on,,1,0,15,,,,,,,,,,,,,,,,15,,52,72
30269,note_on,,29,0,11,,,,,,,,,,,,,,,,10,,79,0
30270,note_on,,1,0,11,,,,,,,,,,,,,,,,10,,77,72
30299,note_on,,59,0,14,,,,,,,,,,,,,,,,13,,52,0
30299,note_on,,29,0,11,,,,,,,,,,,,,,,,10,,77,0
30299,note_on,,59,0,6,,,,,,,,,,,,,,,,2,,52,0
30299,note_on,,59,0,15,,,,,,,,,,,,,,,,15,,52,0
30299,note_on,,0,0,15,,,,,,,,,,,,,,,,15,,72,0
30299,note_on,,0,0,15,,,,,,,,,,,,,,,,15,,60,0
30299,note_on,,0,0,15,,,,,,,,,,,,,,,,15,,67,0
30300,note_on,,1,0,14,,,,,,,,,,,,,,,,13,,55,72
30300,note_on,,1,0,15,,,,,,,,,,,,,,,,15,,55,72
30300,note_on,,1,0,11,,,,,,,,,,,,,,,,10,,76,72
30300,note_on,,0,0,15,,,,,,,,,,,,,,,,15,,64,72
30300,note_on,,1,0,6,,,,,,,,,,,,,,,,2,,55,72
30300,note_on,,0,0,15,,,,,,,,,,,,,,,,15,,60,72
30329,note_on,,29,0,11,,,,,,,,,,,,,,,,10,,76,0
30330,note_on,,1,0,11,,,,,,,,,,,,,,,,10,,74,72
30359,note_on,,29,0,11,,,,,,,,,,,,,,,,10,,74,0
30359,note_on,,0,0,15,,,,,,,,,,,,,,,,15,,60,0
30359,note_on,,59,0,14,,,,,,,,,,,,,,,,13,,55,0
30359,note_on,,59,0,15,,,,,,,,,,,,,,,,15,,55,0
30359,note_on,,0,0,15,,,,,,,,,,,,,,,,15,,64,0
30359,note_on,,59,0,6,,,,,,,,,,,,,,,,2,,55,0
30359,note_on,,119,0,13,,,,,,,,,,,,,,,,12,,67,0
30360,note_on,,121,0,12,,,,,,,,,,,,,,,,11,,84,72
30360,note_on,,1,0,6,,,,,,,,,,,,,,,,2,,52,72
30360,note_on,,1081,0,5,,,,,,,,,,,,,,,,1,,72,72
30360,note_on,,0,0,15,,,,,,,,,,,,,,,,15,,60,72
30360,note_on,,0,0,15,,,,,,,,,,,,,,,,15,,64,72
30360,note_on,,0,0,15,,,,,,,,,,,,,,,,15,,67,72
30360,note_on,,1081,0,7,,,,,,,,,,,,,,,,5,,72,72
30360,note_on,,1,0,13,,,,,,,,,,,,,,,,12,,67,72
30360,note_on,,1321,0,10,,,,,,,,,,,,,,,,8,,52,72
30360,note_on,,1,0,15,,,,,,,,,,,,,,,,15,,52,72
30360,note_on,,121,0,8,,,,,,,,,,,,,,,,6,,67,72
30360,note_on,,1,0,11,,,,,,,,,,,,,,,,10,,72,72
30360,note_on,,1,0,14,,,,,,,,,,,,,,,,13,,52,72
30360,note_on,,361,0,9,,,,,,,,,,,,,,,,7,,64,72
30389,note_on,,29,0,11,,,,,,,,,,,,,,,,10,,72,0
30390,note_on,,1,0,11,,,,,,,,,,,,,,,,10,,70,72
30419,note_on,,59,0,8,,,,,,,,,,,,,,,,6,,67,0
30419,note_on,,59,0,9,,,,,,,,,,,,,,,,7,,64,0
30419,note_on,,59,0,15,,,,,,,,,,,,,,,,15,,52,0
30419,note_on,,59,0,10,,,,,,,,,,,,,,,,8,,52,0
30419,note_on,,0,0,15,,,,,,,,,,,,,,,,15,,64,0
30419,note_on,,0,0,15,,,,,,,,,,,,,,,,15,,60,0
30419,note_on,,59,0,13,,,,,,,,,,,,,,,,12,,67,0
30419,note_on,,29,0,11,,,,,,,,,,,,,,,,10,,70,0
30419,note_on,,59,0,5,,,,,,,,,,,,,,,,1,,72,0
30419,note_on,,59,0,12,,,,,,,,,,,,,,,,11,,84,0
30419,note_on,,59,0,7,,,,,,,,,,,,,,,,5,,72,0
30419,note_on,,59,0,14,,,,,,,,,,,,,,,,13,,52,0
30419,note_on,,59,0,6,,,,,,,,,,,,,,,,2,,52,0
30419,note_on,,0,0,15,,,,,,,,,,,,,,,,15,,67,0
30420,note_on,,1,0,7,,,,,,,,,,,,,,,,5,,70,72
30420,note_on,,1,0,10,,,,,,,,,,,,,,,,8,,48,72
30420,note_on,,0,0,15,,,,,,,,,,,,,,,,15,,72,72
30420,note_on,,1,0,12,,,,,,,,,,,,,,,,11,,84,72
30420,note_on,,0,0,15,,,,,,,,,,,,,,,,15,,67,72
30420,note_on,,0,0,15,,,,,,,,,,,,,,,,15,,64,72
30420,note_on,,1,0,15,,,,,,,,,,,,,,,,15,,48,72
30420,note_on,,1,0,9,,,,,,,,,,,,,,,,7,,64,72
30420,note_on,,1,0,11,,,,,,,,,,,,,,,,10,,69,72
30420,note_on,,1,0,5,,,,,,,,,,,,,,,,1,,70,72
30420,note_on,,1,0,8,,,,,,,,,,,,,,,,6,,67,72
30420,note_on,,1,0,13,,,,,,,,,,,,,,,,12,,64,72
30420,note_on,,1,0,14,,,,,,,,,,,,,,,,13,,48,72
30420,note_on,,1,0,6,,,,,,,,,,,,,,,,2,,48,72
30449,note_on,,29,0,11,,,,,,,,,,,,,,,,10,,69,0
30450,note_on,,1,0,11,,,,,,,,,,,,,,,,10,,67,72
30479,note_on,,59,0,10,,,,,,,,,,,,,,,,8,,48,0
30479,note_on,,59,0,6,,,,,,,,,,,,,,,,2,,48,0
30479,note_on,,59,0,12,,,,,,,,,,,,,,,,11,,84,0
30479,note_on,,0,0,15,,,,,,,,,,,,,,,,15,,72,0
30479,note_on,,59,0,9,,,,,,,,,,,,,,,,7,,64,0
30479,note_on,,59,0,14,,,,,,,,,,,,,,,,13,,48,0
30479,note_on,,59,0,15,,,,,,,,,,,,,,,,15,,48,0
30479,note_on,,0,0,15,,,,,,,,,,,,,,,,15,,67,0
30479,note_on,,59,0,13,,,,,,,,,,,,,,,,12,,64,0
30479,note_on,,59,0,5,,,,,,,,,,,,,,,,1,,70,0
30479,note_on,,59,0,8,,,,,,,,,,,,,,,,6,,67,0
30479,note_on,,0,0,15,,,,,,,,,,,,,,,,15,,64,0
30479,note_on,,59,0,7,,,,,,,,,,,,,,,,5,,70,0
30479,note_on,,29,0,11,,,,,,,,,,,,,,,,10,,67,0
30480,note_on,,1,0,7,,,,,,,,,,,,,,,,5,,69,72
30480,note_on,,0,0,15,,,,,,,,,,,,,,,,15,,65,72
30480,note_on,,1,0,12,,,,,,,,,,,,,,,,11,,84,72
30480,note_on,,1,0,15,,,,,,,,,,,,,,,,15,,53,72
30480,note_on,,0,0,15,,,,,,,,,,,,,,,,15,,72,72
30480,note_on,,0,0,15,,,,,,,,,,,,,,,,15,,69,72
30480,note_on,,1,0,14,,,,,,,,,,,,,,,,13,,53,72
30480,note_on,,1,0,5,,,,,,,,,,,,,,,,1,,69,72
30480,note_on,,1,0,9,,,,,,,,,,,,,,,,7,,60,72
30480,note_on,,1,0,13,,,,,,,,,,,,,,,,12,,69,72
30480,note_on,,1,0,8,,,,,,,,,,,,,,,,6,,65,72
30480,note_on,,1,0,11,,,,,,,,,,,,,,,,10,,69,72
30480,note_on,,1,0,10,,,,,,,,,,,,,,,,8,,53,72
30480,note_on,,1,0,6,,,,,,,,,,,,,,,,2,,53,72
30509,note_on,,29,0,11,,,,,,,,,,,,,,,,10,,69,0
30510,note_on,,1,0,11,,,,,,,,,,,,,,,,10,,72,72
30539,note_on,,0,0,15,,,,,,,,,,,,,,,,15,,65,0
30539,note_on,,0,0,15,,,,,,,,,,,,,,,,15,,69,0
30539,note_on,,59,0,5,,,,,,,,,,,,,,,,1,,69,0
30539,note_on,,59,0,8,,,,,,,,,,,,,,,,6,,65,0
30539,note_on,,59,0,7,,,,,,,,,,,,,,,,5,,69,0
30539,note_on,,59,0,14,,,,,,,,,,,,,,,,13,,53,0
30539,note_on,,59,0,15,,,,,,,,,,,,,,,,15,,53,0
30539,note_on,,59,0,9,,,,,,,,,,,,,,,,7,,60,0
30539,note_on,,59,0,10,,,,,,,,,,,,,,,,8,,53,0
30539,note_on,,59,0,13,,,,,,,,,,,,,,,,12,,69,0
30539,note_on,,29,0,11,,,,,,,,,,,,,,,,10,,72,0
30539,note_on,,59,0,6,,,,,,,,,,,,,,,,2,,53,0
30540,note_on,,1,0,7,,,,,,,,,,,,,,,,5,,67,72
30540,note_on,,1,0,9,,,,,,,,,,,,,,,,7,,60,72
30540,note_on,,1,0,5,,,,,,,,,,,,,,,,1,,67,72
30540,note_on,,0,0,15,,,,,,,,,,,,,,,,15,,64,72
30540,note_on,,0,0,15,,,,,,,,,,,,,,,,15,,67,72
30540,note_on,,1,0,15,,,,,,,,,,,,,,,,15,,48,72
30540,note_on,,1,0,6,,,,,,,,,,,,,,,,2,,48,72
30540,note_on,,1,0,8,,,,,,,,,,,,,,,,6,,64,72
30540,note_on,,1,0,13,,,,,,,,,,,,,,,,12,,67,72
30540,note_on,,1,0,10,,,,,,,,,,,,,,,,8,,48,72
30540,note_on,,1,0,14,,,,,,,,,,,,,,,,13,,48,72
30540,note_on,,1,0,11,,,,,,,,,,,,,,,,10,,74,72
30569,note_on,,29,0,11,,,,,,,,,,,,,,,,10,,74,0
30570,note_on,,1,0,11,,,,,,,,,,,,,,,,10,,76,72
30599,note_on,,59,0,10,,,,,,,,,,,,,,,,8,,48,0
30599,note_on,,59,0,5,,,,,,,,,,,,,,,,1,,67,0
30599,note_on,,59,0,9,,,,,,,,,,,,,,,,7,,60,0
30599,note_on,,29,0,11,,,,,,,,,,,,,,,,10,,76,0
30599,note_on,,0,0,15,,,,,,,,,,,,,,,,15,,64,0
30599,note_on,,0,0,15,,,,,,,,,,,,,,,,15,,67,0
30599,note_on,,59,0,15,,,,,,,,,,,,,,,,15,,48,0
30599,note_on,,59,0,8,,,,,,,,,,,,,,,,6,,64,0
30599,note_on,,59,0,14,,,,,,,,,,,,,,,,13,,48,0
30599,note_on,,119,0,12,,,,,,,,,,,,,,,,11,,84,0
30599,note_on,,59,0,6,,,,,,,,,,,,,,,,2,,48,0
30599,note_on,,59,0,13,,,,,,,,,,,,,,,,12,,67,0
30599,note_on,,59,0,7,,,,,,,,,,,,,,,,5,,67,0
30600,note_on,,1,0,15,,,,,,,,,,,,,,,,15,,53,72
30600,note_on,,1,0,13,,,,,,,,,,,,,,,,12,,69,72
30600,note_on,,1,0,12,,,,,,,,,,,,,,,,11,,72,72
30600,note_on,,1,0,11,,,,,,,,,,,,,,,,10,,77,72
30600,note_on,,0,0,15,,,,,,,,,,,,,,,,15,,69,72
30600,note_on,,1,0,14,,,,,,,,,,,,,,,,13,,53,72
30600,note_on,,1,0,6,,,,,,,,,,,,,,,,2,,53,72
30600,note_on,,1,0,9,,,,,,,,,,,,,,,,7,,60,72
30600,note_on,,1,0,5,,,,,,,,,,,,,,,,1,,69,72
30600,note_on,,1,0,10,,,,,,,,,,,,,,,,8,,53,72
30600,note_on,,1,0,7,,,,,,,,,,,,,,,,5,,69,72
30600,note_on,,1,0,8,,,,,,,,,,,,,,,,6,,65,72
30600,note_on,,0,0,15,,,,,,,,,,,,,,,,15,,65,72
30629,note_on,,29,0,11,,,,,,,,,,,,,,,,10,,77,0
30630,note_on,,1,0,11,,,,,,,,,,,,,,,,10,,76,72
30659,note_on,,59,0,9,,,,,,,,,,,,,,,,7,,60,0
30659,note_on,,0,0,15,,,,,,,,,,,,,,,,15,,65,0
30659,note_on,,59,0,10,,,,,,,,,,,,,,,,8,,53,0
30659,note_on,,29,0,11,,,,,,,,,,,,,,,,10,,76,0
30659,note_on,,0,0,15,,,,,,,,,,,,,,,,15,,69,0
30659,note_on,,0,0,15,,,,,,,,,,,,,,,,15,,53,0
30659,note_on,,59,0,6,,,,,,,,,,,,,,,,2,,53,0
30659,note_on,,59,0,15,,,,,,,,,,,,,,,,15,,72,0
30659,note_on,,59,0,14,,,,,,,,,,,,,,,,13,,53,0
30659,note_on,,59,0,8,,,,,,,,,,,,,,,,6,,65,0
30660,note_on,,1,0,8,,,,,,,,,,,,,,,,6,,67,72
30660,note_on,,1,0,11,,,,,,,,,,,,,,,,10,,77,72
30660,note_on,,0,0,15,,,,,,,,,,,,,,,,15,,46,72
30660,note_on,,1,0,14,,,,,,,,,,,,,,,,13,,46,72
30660,note_on,,1,0,9,,,,,,,,,,,,,,,,7,,62,72
30660,note_on,,1,0,6,,,,,,,,,,,,,,,,2,,46,72
30660,note_on,,1,0,15,,,,,,,,,,,,,,,,15,,70,72
30660,note_on,,1,0,10,,,,,,,,,,,,,,,,8,,46,72
30660,note_on,,0,0,15,,,,,,,,,,,,,,,,15,,74,72
30660,note_on,,0,0,15,,,,,,,,,,,,,,,,15,,65,72
30689,note_on,,89,0,5,,,,,,,,,,,,,,,,1,,69,0
30689,note_on,,89,0,7,,,,,,,,,,,,,,,,5,,69,0
30689,note_on,,29,0,11,,,,,,,,,,,,,,,,10,,77,0
30689,note_on,,89,0,13,,,,,,,,,,,,,,,,12,,69,0
30690,note_on,,1,0,7,,,,,,,,,,,,,,,,5,,70,72
30690,note_on,,1,0,11,,,,,,,,,,,,,,,,10,,79,72
30690,note_on,,1,0,13,,,,,,,,,,,,,,,,12,,70,72
30690,note_on,,1,0,5,,,,,,,,,,,,,,,,1,,70,72
30719,note_on,,59,0,14,,,,,,,,,,,,,,,,13,,46,0
30719,note_on,,29,0,7,,,,,,,,,,,,,,,,5,,70,0
30719,note_on,,59,0,10,,,,,,,,,,,,,,,,8,,46,0
30719,note_on,,29,0,13,,,,,,,,,,,,,,,,12,,70,0
30719,note_on,,59,0,8,,,,,,,,,,,,,,,,6,,67,0
30719,note_on,,119,0,12,,,,,,,,,,,,,,,,11,,72,0
30719,note_on,,59,0,15,,,,,,,,,,,,,,,,15,,70,0
30719,note_on,,0,0,15,,,,,,,,,,,,,,,,15,,46,0
30719,note_on,,0,0,15,,,,,,,,,,,,,,,,15,,74,0
30719,note_on,,0,0,15,,,,,,,,,,,,,,,,15,,65,0
30719,note_on,,29,0,11,,,,,,,,,,,,,,,,10,,79,0
30719,note_on,,59,0,9,,,,,,,,,,,,,,,,7,,62,0
30719,note_on,,59,0,6,,,,,,,,,,,,,,,,2,,46,0
30719,note_on,,29,0,5,,,,,,,,,,,,,,,,1,,70,0
30720,note_on,,1,0,8,,,,,,,,,,,,,,,,6,,64,72
30720,note_on,,1,0,10,,,,,,,,,,,,,,,,8,,48,72
30720,note_on,,1,0,9,,,,,,,,,,,,,,,,7,,64,72
30720,note_on,,1,0,5,,,,,,,,,,,,,,,,1,,67,72
30720,note_on,,0,0,15,,,,,,,,,,,,,,,,15,,64,72
30720,note_on,,1,0,14,,,,,,,,,,,,,,,,13,,48,72
30720,note_on,,1,0,13,,,,,,,,,,,,,,,,12,,67,72
30720,note_on,,1,0,6,,,,,,,,,,,,,,,,2,,48,72
30720,note_on,,1,0,7,,,,,,,,,,,,,,,,5,,67,72
30720,note_on,,1,0,11,,,,,,,,,,,,,,,,10,,76,72
30720,note_on,,1,0,15,,,,,,,,,,,,,,,,15,,48,72
30720,note_on,,0,0,15,,,,,,,,,,,,,,,,15,,67,72
30720,note_on,,0,0,15,,,,,,,,,,,,,,,,15,,60,72
30779,note_on,,59,0,14,,,,,,,,,,,,,,,,13,,48,0
30779,note_on,,59,0,6,,,,,,,,,,,,,,,,2,,48,0
30779,note_on,,59,0,15,,,,,,,,,,,,,,,,15,,48,0
30779,note_on,,0,0,15,,,,,,,,,,,,,,,,15,,64,0
30780,note_on,,1,0,15,,,,,,,,,,,,,,,,15,,50,72
30780,note_on,,1,0,6,,,,,,,,,,,,,,,,2,,50,72
30780,note_on,,1,0,14,,,,,,,,,,,,,,,,13,,50,72
30780,note_on,,0,0,15,,,,,,,,,,,,,,,,15,,65,72
30839,note_on,,0,0,15,,,,,,,,,,,,,,,,15,,60,0
30839,note_on,,119,0,9,,,,,,,,,,,,,,,,7,,64,0
30839,note_on,,0,0,15,,,,,,,,,,,,,,,,15,,50,0
30839,note_on,,0,0,15,,,,,,,,,,,,,,,,15,,65,0
30839,note_on,,119,0,11,,,,,,,,,,,,,,,,10,,76,0
30839,note_on,,119,0,7,,,,,,,,,,,,,,,,5,,67,0
30839,note_on,,119,0,8,,,,,,,,,,,,,,,,6,,64,0
30839,note_on,,59,0,15,,,,,,,,,,,,,,,,15,,67,0
30839,note_on,,119,0,10,,,,,,,,,,,,,,,,8,,48,0
30839,note_on,,119,0,5,,,,,,,,,,,,,,,,1,,67,0
30839,note_on,,119,0,13,,,,,,,,,,,,,,,,12,,67,0
30839,note_on,,59,0,14,,,,,,,,,,,,,,,,13,,50,0
30839,note_on,,59,0,6,,,,,,,,,,,,,,,,2,,50,0
30840,note_on,,1,0,13,,,,,,,,,,,,,,,,12,,60,72
30840,note_on,,0,0,15,,,,,,,,,,,,,,,,15,,60,72
30840,note_on,,0,0,15,,,,,,,,,,,,,,,,15,,72,72
30840,note_on,,121,0,12,,,,,,,,,,,,,,,,11,,72,72
30840,note_on,,0,0,15,,,,,,,,,,,,,,,,15,,67,72
30840,note_on,,1,0,10,,,,,,,,,,,,,,,,8,,60,72
30840,note_on,,1,0,6,,,,,,,,,,,,,,,,2,,52,72
30840,note_on,,1,0,14,,,,,,,,,,,,,,,,13,,52,72
30840,note_on,,1,0,15,,,,,,,,,,,,,,,,15,,52,72
30899,note_on,,0,0,15,,,,,,,,,,,,,,,,15,,67,0
30899,note_on,,59,0,13,,,,,,,,,,,,,,,,12,,60,0
30899,note_on,,0,0,15,,,,,,,,,,,,,,,,15,,60,0
30899,note_on,,59,0,6,,,,,,,,,,,,,,,,2,,52,0
30899,note_on,,59,0,10,,,,,,,,,,,,,,,,8,,60,0
30899,note_on,,59,0,15,,,,,,,,,,,,,,,,15,,52,0
30899,note_on,,59,0,14,,,,,,,,,,,,,,,,13,,52,0
30899,note_on,,59,0,12,,,,,,,,,,,,,,,,11,,72,0
30899,note_on,,0,0,15,,,,,,,,,,,,,,,,15,,72,0
30900,note_on,,1,0,15,,,,,,,,,,,,,,,,15,,48,72
30900,note_on,,0,0,15,,,,,,,,,,,,,,,,15,,72,72
30900,note_on,,0,0,15,,,,,,,,,,,,,,,,15,,67,72
30900,note_on,,0,0,15,,,,,,,,,,,,,,,,15,,64,72
30900,note_on,,1,0,12,,,,,,,,,,,,,,,,11,,72,72
30900,note_on,,1,0,10,,,,,,,,,,,,,,,,8,,58,72
30900,note_on,,1,0,14,,,,,,,,,,,,,,,,13,,48,72
30900,note_on,,1,0,13,,,,,,,,,,,,,,,,12,,58,72
30900,note_on,,1,0,6,,,,,,,,,,,,,,,,2,,48,72
30959,note_on,,59,0,10,,,,,,,,,,,,,,,,8,,58,0
30959,note_on,,59,0,14,,,,,,,,,,,,,,,,13,,48,0
30959,note_on,,0,0,15,,,,,,,,,,,,,,,,15,,67,0
30959,note_on,,0,0,15,,,,,,,,,,,,,,,,15,,72,0
30959,note_on,,59,0,15,,,,,,,,,,,,,,,,15,,48,0
30959,note_on,,59,0,13,,,,,,,,,,,,,,,,12,,58,0
30959,note_on,,59,0,12,,,,,,,,,,,,,,,,11,,72,0
30959,note_on,,59,0,6,,,,,,,,,,,,,,,,2,,48,0
30959,note_on,,0,0,15,,,,,,,,,,,,,,,,15,,64,0
30960,note_on,,1,0,12,,,,,,,,,,,,,,,,11,,72,72
30960,note_on,,0,0,15,,,,,,,,,,,,,,,,15,,60,72
30960,note_on,,0,0,15,,,,,,,,,,,,,,,,15,,65,72
30960,note_on,,1,0,15,,,,,,,,,,,,,,,,15,,41,72
30960,note_on,,0,0,15,,,,,,,,,,,,,,,,15,,72,72
30960,note_on,,1,0,14,,,,,,,,,,,,,,,,13,,41,72
30960,note_on,,1,0,13,,,,,,,,,,,,,,,,12,,57,72
30960,note_on,,1,0,10,,,,,,,,,,,,,,,,8,,57,72
30960,note_on,,0,0,15,,,,,,,,,,,,,,,,15,,69,72
30960,note_on,,1,0,6,,,,,,,,,,,,,,,,2,,41,72
30989,note_on,,29,0,13,,,,,,,,,,,,,,,,12,,57,0
30989,note_on,,29,0,10,,,,,,,,,,,,,,,,8,,57,0
30990,note_on,,1,0,13,,,,,,,,,,,,,,,,12,,55,72
30990,note_on,,1,0,10,,,,,,,,,,,,,,,,8,,55,72
31019,note_on,,59,0,15,,,,,,,,,,,,,,,,15,,41,0
31019,note_on,,59,0,6,,,,,,,,,,,,,,,,2,,41,0
31019,note_on,,59,0,14,,,,,,,,,,,,,,,,13,,41,0
31019,note_on,,29,0,13,,,,,,,,,,,,,,,,12,,55,0
31019,note_on,,29,0,10,,,,,,,,,,,,,,,,8,,55,0
31020,note_on,,1,0,6,,,,,,,,,,,,,,,,2,,53,72
31020,note_on,,1,0,15,,,,,,,,,,,,,,,,15,,53,72
31020,note_on,,1,0,10,,,,,,,,,,,,,,,,8,,53,72
31020,note_on,,1,0,13,,,,,,,,,,,,,,,,12,,53,72
31020,note_on,,1,0,14,,,,,,,,,,,,,,,,13,,53,72
31049,note_on,,29,0,13,,,,,,,,,,,,,,,,12,,53,0
31049,note_on,,29,0,10,,,,,,,,,,,,,,,,8,,53,0
31050,note_on,,1,0,10,,,,,,,,,,,,,,,,8,,57,72
31050,note_on,,1,0,13,,,,,,,,,,,,,,,,12,,57,72
31079,note_on,,29,0,10,,,,,,,,,,,,,,,,8,,57,0
31079,note_on,,0,0,15,,,,,,,,,,,,,,,,15,,53,0
31079,note_on,,29,0,13,,,,,,,,,,,,,,,,12,,57,0
31079,note_on,,119,0,12,,,,,,,,,,,,,,,,11,,72,0
31079,note_on,,59,0,15,,,,,,,,,,,,,,,,15,,69,0
31079,note_on,,0,0,15,,,,,,,,,,,,,,,,15,,65,0
31079,note_on,,0,0,15,,,,,,,,,,,,,,,,15,,60,0
31079,note_on,,59,0,6,,,,,,,,,,,,,,,,2,,53,0
31079,note_on,,59,0,14,,,,,,,,,,,,,,,,13,,53,0
31080,note_on,,1,0,15,,,,,,,,,,,,,,,,15,,52,72
31080,note_on,,1,0,10,,,,,,,,,,,,,,,,8,,55,72
31080,note_on,,241,0,11,,,,,,,,,,,,,,,,10,,72,72
31080,note_on,,1,0,6,,,,,,,,,,,,,,,,2,,52,72
31080,note_on,,1,0,13,,,,,,,,,,,,,,,,12,,55,72
31080,note_on,,1,0,12,,,,,,,,,,,,,,,,11,,60,72
31080,note_on,,0,0,15,,,,,,,,,,,,,,,,15,,67,72
31080,note_on,,0,0,8,,,,,,,,,,,,,,,,6,,60,72
31080,note_on,,1,0,14,,,,,,,,,,,,,,,,13,,52,72
31080,note_on,,241,0,8,,,,,,,,,,,,,,,,6,,72,72
31109,note_on,,29,0,10,,,,,,,,,,,,,,,,8,,55,0
31109,note_on,,29,0,13,,,,,,,,,,,,,,,,12,,55,0
31110,note_on,,1,0,10,,,,,,,,,,,,,,,,8,,53,72
31110,note_on,,1,0,13,,,,,,,,,,,,,,,,12,,53,72
31139,note_on,,29,0,13,,,,,,,,,,,,,,,,12,,53,0
31139,note_on,,59,0,6,,,,,,,,,,,,,,,,2,,52,0
31139,note_on,,59,0,8,,,,,,,,,,,,,,,,6,,72,0
31139,note_on,,0,0,8,,,,,,,,,,,,,,,,6,,60,0
31139,note_on,,59,0,15,,,,,,,,,,,,,,,,15,,52,0
31139,note_on,,59,0,14,,,,,,,,,,,,,,,,13,,52,0
31139,note_on,,29,0,10,,,,,,,,,,,,,,,,8,,53,0
31139,note_on,,59,0,11,,,,,,,,,,,,,,,,10,,72,0
31139,note_on,,0,0,15,,,,,,,,,,,,,,,,15,,67,0
31140,note_on,,0,0,8,,,,,,,,,,,,,,,,6,,67,72
31140,note_on,,1,0,10,,,,,,,,,,,,,,,,8,,52,72
31140,note_on,,1,0,14,,,,,,,,,,,,,,,,13,,48,72
31140,note_on,,1,0,13,,,,,,,,,,,,,,,,12,,52,72
31140,note_on,,0,0,15,,,,,,,,,,,,,,,,15,,64,72
31140,note_on,,1,0,15,,,,,,,,,,,,,,,,15,,48,72
31140,note_on,,1,0,8,,,,,,,,,,,,,,,,6,,70,72
31140,note_on,,1,0,6,,,,,,,,,,,,,,,,2,,48,72
31140,note_on,,1,0,11,,,,,,,,,,,,,,,,10,,70,72
31169,note_on,,29,0,10,,,,,,,,,,,,,,,,8,,52,0
31169,note_on,,29,0,13,,,,,,,,,,,,,,,,12,,52,0
31170,note_on,,1,0,13,,,,,,,,,,,,,,,,12,,55,72
31170,note_on,,1,0,10,,,,,,,,,,,,,,,,8,,55,72
31199,note_on,,0,0,15,,,,,,,,,,,,,,,,15,,48,0
31199,note_on,,29,0,13,,,,,,,,,,,,,,,,12,,55,0
31199,note_on,,0,0,15,,,,,,,,,,,,,,,,15,,64,0
31199,note_on,,59,0,15,,,,,,,,,,,,,,,,15,,72,0
31199,note_on,,29,0,10,,,,,,,,,,,,,,,,8,,55,0
31199,note_on,,0,0,8,,,,,,,,,,,,,,,,6,,67,0
31199,note_on,,59,0,11,,,,,,,,,,,,,,,,10,,70,0
31199,note_on,,59,0,8,,,,,,,,,,,,,,,,6,,70,0
31199,note_on,,119,0,12,,,,,,,,,,,,,,,,11,,60,0
31199,note_on,,59,0,14,,,,,,,,,,,,,,,,13,,48,0
31199,note_on,,59,0,6,,,,,,,,,,,,,,,,2,,48,0
31200,note_on,,1,0,10,,,,,,,,,,,,,,,,8,,53,72
31200,note_on,,1,0,14,,,,,,,,,,,,,,,,13,,53,72
31200,note_on,,1,0,11,,,,,,,,,,,,,,,,10,,69,72
31200,note_on,,1,0,15,,,,,,,,,,,,,,,,15,,53,72
31200,note_on,,1,0,13,,,,,,,,,,,,,,,,12,,53,72
31200,note_on,,0,0,15,,,,,,,,,,,,,,,,15,,69,72
31200,note_on,,1,0,8,,,,,,,,,,,,,,,,6,,69,72
31200,note_on,,1,0,6,,,,,,,,,,,,,,,,2,,53,72
31200,note_on,,0,0,15,,,,,,,,,,,,,,,,15,,65,72
31200,note_on,,0,0,15,,,,,,,,,,,,,,,,15,,60,72
31229,note_on,,29,0,8,,,,,,,,,,,,,,,,6,,69,0
31229,note_on,,29,0,11,,,,,,,,,,,,,,,,10,,69,0
31230,note_on,,1,0,8,,,,,,,,,,,,,,,,6,,67,72
31230,note_on,,1,0,11,,,,,,,,,,,,,,,,10,,67,72
31259,note_on,,59,0,13,,,,,,,,,,,,,,,,12,,53,0
31259,note_on,,59,0,15,,,,,,,,,,,,,,,,15,,53,0
31259,note_on,,59,0,14,,,,,,,,,,,,,,,,13,,53,0
31259,note_on,,59,0,6,,,,,,,,,,,,,,,,2,,53,0
31259,note_on,,59,0,10,,,,,,,,,,,,,,,,8,,53,0
31259,note_on,,29,0,11,,,,,,,,,,,,,,,,10,,67,0
31259,note_on,,29,0,8,,,,,,,,,,,,,,,,6,,67,0
31260,note_on,,1,0,15,,,,,,,,,,,,,,,,15,,57,72
31260,note_on,,1,0,10,,,,,,,,,,,,,,,,8,,48,72
31260,note_on,,1,0,11,,,,,,,,,,,,,,,,10,,65,72
31260,note_on,,1,0,6,,,,,,,,,,,,,,,,2,,57,72
31260,note_on,,1,0,8,,,,,,,,,,,,,,,,6,,65,72
31260,note_on,,1,0,14,,,,,,,,,,,,,,,,13,,57,72
31260,note_on,,1,0,13,,,,,,,,,,,,,,,,12,,60,72
31289,note_on,,29,0,11,,,,,,,,,,,,,,,,10,,65,0
31289,note_on,,29,0,8,,,,,,,,,,,,,,,,6,,65,0
31290,note_on,,1,0,11,,,,,,,,,,,,,,,,10,,69,72
31290,note_on,,1,0,8,,,,,,,,,,,,,,,,6,,69,72
31319,note_on,,59,0,13,,,,,,,,,,,,,,,,12,,60,0
31319,note_on,,29,0,11,,,,,,,,,,,,,,,,10,,69,0
31319,note_on,,59,0,10,,,,,,,,,,,,,,,,8,,48,0
31319,note_on,,0,0,15,,,,,,,,,,,,,,,,15,,57,0
31319,note_on,,0,0,15,,,,,,,,,,,,,,,,15,,60,0
31319,note_on,,0,0,15,,,,,,,,,,,,,,,,15,,65,0
31319,note_on,,59,0,15,,,,,,,,,,,,,,,,15,,69,0
31319,note_on,,59,0,6,,,,,,,,,,,,,,,,2,,57,0
31319,note_on,,59,0,14,,,,,,,,,,,,,,,,13,,57,0
31319,note_on,,29,0,8,,,,,,,,,,,,,,,,6,,69,0
31320,note_on,,1,0,11,,,,,,,,,,,,,,,,10,,67,72
31320,note_on,,1,0,13,,,,,,,,,,,,,,,,12,,64,72
31320,note_on,,1,0,8,,,,,,,,,,,,,,,,6,,67,72
31320,note_on,,1,0,10,,,,,,,,,,,,,,,,8,,60,72
31320,note_on,,0,0,15,,,,,,,,,,,,,,,,15,,64,72
31320,note_on,,1,0,6,,,,,,,,,,,,,,,,2,,60,72
31320,note_on,,0,0,15,,,,,,,,,,,,,,,,15,,67,72
31320,note_on,,1,0,15,,,,,,,,,,,,,,,,15,,60,72
31320,note_on,,1,0,14,,,,,,,,,,,,,,,,13,,60,72
31349,note_on,,29,0,11,,,,,,,,,,,,,,,,10,,67,0
31349,note_on,,29,0,8,,,,,,,,,,,,,,,,6,,67,0
31350,note_on,,1,0,8,,,,,,,,,,,,,,,,6,,65,72
31350,note_on,,1,0,11,,,,,,,,,,,,,,,,10,,65,72
31379,note_on,,59,0,13,,,,,,,,,,,,,,,,12,,64,0
31379,note_on,,29,0,8,,,,,,,,,,,,,,,,6,,65,0
31379,note_on,,59,0,6,,,,,,,,,,,,,,,,2,,60,0
31379,note_on,,59,0,14,,,,,,,,,,,,,,,,13,,60,0
31379,note_on,,59,0,10,,,,,,,,,,,,,,,,8,,60,0
31379,note_on,,0,0,15,,,,,,,,,,,,,,,,15,,64,0
31379,note_on,,0,0,15,,,,,,,,,,,,,,,,15,,67,0
31379,note_on,,59,0,15,,,,,,,,,,,,,,,,15,,60,0
31379,note_on,,29,0,11,,,,,,,,,,,,,,,,10,,65,0
31380,note_on,,1,0,14,,,,,,,,,,,,,,,,13,,58,72
31380,note_on,,1,0,10,,,,,,,,,,,,,,,,8,,58,72
31380,note_on,,1,0,8,,,,,,,,,,,,,,,,6,,64,72
31380,note_on,,1,0,13,,,,,,,,,,,,,,,,12,,60,72
31380,note_on,,0,0,15,,,,,,,,,,,,,,,,15,,64,72
31380,note_on,,0,0,15,,,,,,,,,,,,,,,,15,,67,72
31380,note_on,,1,0,6,,,,,,,,,,,,,,,,2,,58,72
31380,note_on,,1,0,11,,,,,,,,,,,,,,,,10,,64,72
31380,note_on,,0,0,15,,,,,,,,,,,,,,,,15,,72,72
31380,note_on,,1,0,15,,,,,,,,,,,,,,,,15,,58,72
31409,note_on,,29,0,8,,,,,,,,,,,,,,,,6,,64,0
31409,note_on,,29,0,11,,,,,,,,,,,,,,,,10,,64,0
31410,note_on,,1,0,8,,,,,,,,,,,,,,,,6,,67,72
31410,note_on,,1,0,11,,,,,,,,,,,,,,,,10,,67,72
31439,note_on,,0,0,15,,,,,,,,,,,,,,,,15,,67,0
31439,note_on,,0,0,15,,,,,,,,,,,,,,,,15,,72,0
31439,note_on,,29,0,8,,,,,,,,,,,,,,,,6,,67,0
31439,note_on,,59,0,10,,,,,,,,,,,,,,,,8,,58,0
31439,note_on,,59,0,13,,,,,,,,,,,,,,,,12,,60,0
31439,note_on,,0,0,15,,,,,,,,,,,,,,,,15,,64,0
31439,note_on,,59,0,15,,,,,,,,,,,,,,,,15,,58,0
31439,note_on,,59,0,14,,,,,,,,,,,,,,,,13,,58,0
31439,note_on,,59,0,6,,,,,,,,,,,,,,,,2,,58,0
31439,note_on,,29,0,11,,,,,,,,,,,,,,,,10,,67,0
31440,note_on,,1,0,11,,,,,,,,,,,,,,,,10,,65,72
31440,note_on,,0,0,15,,,,,,,,,,,,,,,,15,,72,72
31440,note_on,,0,0,15,,,,,,,,,,,,,,,,15,,65,72
31440,note_on,,1,0,15,,,,,,,,,,,,,,,,15,,57,72
31440,note_on,,1,0,6,,,,,,,,,,,,,,,,2,,57,72
31440,note_on,,1,0,14,,,,,,,,,,,,,,,,13,,57,72
31440,note_on,,1,0,13,,,,,,,,,,,,,,,,12,,60,72
31440,note_on,,1,0,10,,,,,,,,,,,,,,,,8,,57,72
31440,note_on,,1,0,8,,,,,,,,,,,,,,,,6,,65,72
31499,note_on,,59,0,11,,,,,,,,,,,,,,,,10,,65,0
31499,note_on,,59,0,15,,,,,,,,,,,,,,,,15,,57,0
31499,note_on,,0,0,15,,,,,,,,,,,,,,,,15,,72,0
31499,note_on,,59,0,14,,,,,,,,,,,,,,,,13,,57,0
31499,note_on,,59,0,8,,,,,,,,,,,,,,,,6,,65,0
31499,note_on,,59,0,6,,,,,,,,,,,,,,,,2,,57,0
31500,note_on,,1,0,6,,,,,,,,,,,,,,,,2,,55,72
31500,note_on,,1,0,8,,,,,,,,,,,,,,,,6,,60,72
31500,note_on,,1,0,11,,,,,,,,,,,,,,,,10,,60,72
31500,note_on,,1,0,15,,,,,,,,,,,,,,,,15,,55,72
31500,note_on,,1,0,14,,,,,,,,,,,,,,,,13,,55,72
31500,note_on,,0,0,15,,,,,,,,,,,,,,,,15,,70,72
31559,note_on,,59,0,11,,,,,,,,,,,,,,,,10,,60,0
31559,note_on,,59,0,15,,,,,,,,,,,,,,,,15,,55,0
31559,note_on,,0,0,15,,,,,,,,,,,,,,,,15,,70,0
31559,note_on,,119,0,13,,,,,,,,,,,,,,,,12,,60,0
31559,note_on,,59,0,8,,,,,,,,,,,,,,,,6,,60,0
31559,note_on,,59,0,6,,,,,,,,,,,,,,,,2,,55,0
31559,note_on,,119,0,10,,,,,,,,,,,,,,,,8,,57,0
31559,note_on,,59,0,14,,,,,,,,,,,,,,,,13,,55,0
31560,note_on,,721,0,7,,,,,,,,,,,,,,,,5,,77,72
31560,note_on,,721,0,5,,,,,,,,,,,,,,,,1,,77,72
31560,note_on,,1,0,6,,,,,,,,,,,,,,,,2,,57,72
31560,note_on,,1,0,8,,,,,,,,,,,,,,,,6,,65,72
31560,note_on,,1,0,13,,,,,,,,,,,,,,,,12,,65,72
31560,note_on,,0,0,15,,,,,,,,,,,,,,,,15,,72,72
31560,note_on,,1,0,15,,,,,,,,,,,,,,,,15,,57,72
31560,note_on,,361,0,12,,,,,,,,,,,,,,,,11,,77,72
31560,note_on,,1,0,10,,,,,,,,,,,,,,,,8,,53,72
31560,note_on,,1,0,14,,,,,,,,,,,,,,,,13,,57,72
31619,note_on,,59,0,8,,,,,,,,,,,,,,,,6,,65,0
31619,note_on,,59,0,14,,,,,,,,,,,,,,,,13,,57,0
31619,note_on,,59,0,7,,,,,,,,,,,,,,,,5,,77,0
31619,note_on,,59,0,5,,,,,,,,,,,,,,,,1,,77,0
31619,note_on,,59,0,13,,,,,,,,,,,,,,,,12,,65,0
31619,note_on,,0,0,15,,,,,,,,,,,,,,,,15,,72,0
31619,note_on,,59,0,15,,,,,,,,,,,,,,,,15,,57,0
31619,note_on,,59,0,6,,,,,,,,,,,,,,,,2,,57,0
31619,note_on,,59,0,12,,,,,,,,,,,,,,,,11,,77,0
31620,note_on,,1,0,8,,,,,,,,,,,,,,,,6,,69,72
31620,note_on,,1,0,15,,,,,,,,,,,,,,,,15,,53,72
31620,note_on,,0,0,15,,,,,,,,,,,,,,,,15,,69,72
31620,note_on,,1,0,6,,,,,,,,,,,,,,,,2,,53,72
31620,note_on,,1,0,14,,,,,,,,,,,,,,,,13,,53,72
31620,note_on,,1,0,7,,,,,,,,,,,,,,,,5,,75,72
31620,note_on,,1,0,12,,,,,,,,,,,,,,,,11,,75,72
31620,note_on,,1,0,13,,,,,,,,,,,,,,,,12,,69,72
31620,note_on,,1,0,5,,,,,,,,,,,,,,,,1,,75,72
31679,note_on,,59,0,6,,,,,,,,,,,,,,,,2,,53,0
31679,note_on,,59,0,14,,,,,,,,,,,,,,,,13,,53,0
31679,note_on,,59,0,13,,,,,,,,,,,,,,,,12,,69,0
31679,note_on,,59,0,5,,,,,,,,,,,,,,,,1,,75,0
31679,note_on,,119,0,10,,,,,,,,,,,,,,,,8,,53,0
31679,note_on,,59,0,12,,,,,,,,,,,,,,,,11,,75,0
31679,note_on,,0,0,15,,,,,,,,,,,,,,,,15,,69,0
31679,note_on,,0,0,15,,,,,,,,,,,,,,,,15,,53,0
31679,note_on,,59,0,15,,,,,,,,,,,,,,,,15,,65,0
31679,note_on,,59,0,7,,,,,,,,,,,,,,,,5,,75,0
31679,note_on,,59,0,8,,,,,,,,,,,,,,,,6,,69,0
31680,note_on,,1,0,12,,,,,,,,,,,,,,,,11,,74,72
31680,note_on,,1,0,7,,,,,,,,,,,,,,,,5,,74,72
31680,note_on,,1,0,6,,,,,,,,,,,,,,,,2,,46,72
31680,note_on,,0,0,15,,,,,,,,,,,,,,,,15,,58,72
31680,note_on,,0,0,15,,,,,,,,,,,,,,,,15,,65,72
31680,note_on,,0,0,15,,,,,,,,,,,,,,,,15,,70,72
31680,note_on,,1,0,15,,,,,,,,,,,,,,,,15,,46,72
31680,note_on,,1,0,8,,,,,,,,,,,,,,,,6,,70,72
31680,note_on,,1,0,5,,,,,,,,,,,,,,,,1,,74,72
31680,note_on,,0,0,15,,,,,,,,,,,,,,,,15,,74,72
31680,note_on,,1,0,13,,,,,,,,,,,,,,,,12,,70,72
31680,note_on,,1,0,14,,,,,,,,,,,,,,,,13,,46,72
31709,note_on,,29,0,5,,,,,,,,,,,,,,,,1,,74,0
31709,note_on,,29,0,12,,,,,,,,,,,,,,,,11,,74,0
31709,note_on,,29,0,7,,,,,,,,,,,,,,,,5,,74,0
31710,note_on,,1,0,5,,,,,,,,,,,,,,,,1,,72,72
31710,note_on,,1,0,12,,,,,,,,,,,,,,,,11,,72,72
31710,note_on,,1,0,7,,,,,,,,,,,,,,,,5,,72,72
31739,note_on,,29,0,7,,,,,,,,,,,,,,,,5,,72,0
31739,note_on,,29,0,5,,,,,,,,,,,,,,,,1,,72,0
31739,note_on,,59,0,14,,,,,,,,,,,,,,,,13,,46,0
31739,note_on,,59,0,15,,,,,,,,,,,,,,,,15,,46,0
31739,note_on,,29,0,12,,,,,,,,,,,,,,,,11,,72,0
31739,note_on,,59,0,6,,,,,,,,,,,,,,,,2,,46,0
31740,note_on,,1,0,14,,,,,,,,,,,,,,,,13,,50,72
31740,note_on,,1,0,5,,,,,,,,,,,,,,,,1,,70,72
31740,note_on,,1,0,12,,,,,,,,,,,,,,,,11,,70,72
31740,note_on,,1,0,15,,,,,,,,,,,,,,,,15,,50,72
31740,note_on,,1,0,7,,,,,,,,,,,,,,,,5,,70,72
31740,note_on,,1,0,6,,,,,,,,,,,,,,,,2,,50,72
31769,note_on,,29,0,5,,,,,,,,,,,,,,,,1,,70,0
31769,note_on,,29,0,7,,,,,,,,,,,,,,,,5,,70,0
31769,note_on,,29,0,12,,,,,,,,,,,,,,,,11,,70,0
31770,note_on,,1,0,7,,,,,,,,,,,,,,,,5,,74,72
31770,note_on,,1,0,5,,,,,,,,,,,,,,,,1,,74,72
31770,note_on,,1,0,12,,,,,,,,,,,,,,,,11,,74,72
31799,note_on,,29,0,12,,,,,,,,,,,,,,,,11,,74,0
31799,note_on,,119,0,13,,,,,,,,,,,,,,,,12,,70,0
31799,note_on,,0,0,15,,,,,,,,,,,,,,,,15,,50,0
31799,note_on,,0,0,15,,,,,,,,,,,,,,,,15,,58,0
31799,note_on,,0,0,15,,,,,,,,,,,,,,,,15,,65,0
31799,note_on,,0,0,15,,,,,,,,,,,,,,,,15,,70,0
31799,note_on,,59,0,15,,,,,,,,,,,,,,,,15,,74,0
31799,note_on,,59,0,6,,,,,,,,,,,,,,,,2,,50,0
31799,note_on,,59,0,14,,,,,,,,,,,,,,,,13,,50,0
31799,note_on,,29,0,5,,,,,,,,,,,,,,,,1,,74,0
31799,note_on,,29,0,7,,,,,,,,,,,,,,,,5,,74,0
31799,note_on,,119,0,8,,,,,,,,,,,,,,,,6,,70,0
31800,note_on,,1,0,8,,,,,,,,,,,,,,,,6,,69,72
31800,note_on,,1,0,7,,,,,,,,,,,,,,,,5,,72,72
31800,note_on,,1,0,13,,,,,,,,,,,,,,,,12,,69,72
31800,note_on,,961,0,9,,,,,,,,,,,,,,,,7,,65,72
31800,note_on,,1,0,12,,,,,,,,,,,,,,,,11,,72,72
31800,note_on,,0,0,15,,,,,,,,,,,,,,,,15,,60,72
31800,note_on,,0,0,15,,,,,,,,,,,,,,,,15,,69,72
31800,note_on,,1,0,15,,,,,,,,,,,,,,,,15,,53,72
31800,note_on,,1,0,14,,,,,,,,,,,,,,,,13,,53,72
31800,note_on,,1,0,5,,,,,,,,,,,,,,,,1,,72,72
31800,note_on,,241,0,11,,,,,,,,,,,,,,,,10,,77,72
31800,note_on,,1,0,6,,,,,,,,,,,,,,,,2,,53,72
31829,note_on,,29,0,5,,,,,,,,,,,,,,,,1,,72,0
31829,note_on,,29,0,7,,,,,,,,,,,,,,,,5,,72,0
31829,note_on,,29,0,12,,,,,,,,,,,,,,,,11,,72,0
31830,note_on,,1,0,12,,,,,,,,,,,,,,,,11,,70,72
31830,note_on,,1,0,5,,,,,,,,,,,,,,,,1,,70,72
31830,note_on,,1,0,7,,,,,,,,,,,,,,,,5,,70,72
31859,note_on,,59,0,9,,,,,,,,,,,,,,,,7,,65,0
31859,note_on,,0,0,15,,,,,,,,,,,,,,,,15,,60,0
31859,note_on,,0,0,15,,,,,,,,,,,,,,,,15,,69,0
31859,note_on,,59,0,11,,,,,,,,,,,,,,,,10,,77,0
31859,note_on,,59,0,15,,,,,,,,,,,,,,,,15,,53,0
31859,note_on,,29,0,7,,,,,,,,,,,,,,,,5,,70,0
31859,note_on,,59,0,6,,,,,,,,,,,,,,,,2,,53,0
31859,note_on,,29,0,12,,,,,,,,,,,,,,,,11,,70,0
31859,note_on,,59,0,14,,,,,,,,,,,,,,,,13,,53,0
31859,note_on,,29,0,5,,,,,,,,,,,,,,,,1,,70,0
31860,note_on,,1,0,6,,,,,,,,,,,,,,,,2,,41,72
31860,note_on,,1,0,9,,,,,,,,,,,,,,,,7,,63,72
31860,note_on,,1,0,7,,,,,,,,,,,,,,,,5,,69,72
31860,note_on,,0,0,15,,,,,,,,,,,,,,,,15,,65,72
31860,note_on,,0,0,15,,,,,,,,,,,,,,,,15,,69,72
31860,note_on,,1,0,14,,,,,,,,,,,,,,,,13,,41,72
31860,note_on,,0,0,15,,,,,,,,,,,,,,,,15,,72,72
31860,note_on,,1,0,15,,,,,,,,,,,,,,,,15,,41,72
31860,note_on,,1,0,11,,,,,,,,,,,,,,,,10,,75,72
31860,note_on,,1,0,5,,,,,,,,,,,,,,,,1,,69,72
31860,note_on,,1,0,12,,,,,,,,,,,,,,,,11,,69,72
31889,note_on,,29,0,7,,,,,,,,,,,,,,,,5,,69,0
31889,note_on,,29,0,12,,,,,,,,,,,,,,,,11,,69,0
31889,note_on,,29,0,5,,,,,,,,,,,,,,,,1,,69,0
31890,note_on,,1,0,12,,,,,,,,,,,,,,,,11,,72,72
31890,note_on,,1,0,7,,,,,,,,,,,,,,,,5,,72,72
31890,note_on,,1,0,5,,,,,,,,,,,,,,,,1,,72,72
31919,note_on,,59,0,6,,,,,,,,,,,,,,,,2,,41,0
31919,note_on,,59,0,11,,,,,,,,,,,,,,,,10,,75,0
31919,note_on,,59,0,9,,,,,,,,,,,,,,,,7,,63,0
31919,note_on,,29,0,7,,,,,,,,,,,,,,,,5,,72,0
31919,note_on,,29,0,12,,,,,,,,,,,,,,,,11,,72,0
31919,note_on,,59,0,14,,,,,,,,,,,,,,,,13,,41,0
31919,note_on,,119,0,13,,,,,,,,,,,,,,,,12,,69,0
31919,note_on,,29,0,5,,,,,,,,,,,,,,,,1,,72,0
31919,note_on,,59,0,15,,,,,,,,,,,,,,,,15,,41,0
31919,note_on,,0,0,15,,,,,,,,,,,,,,,,15,,72,0
31919,note_on,,0,0,15,,,,,,,,,,,,,,,,15,,69,0
31919,note_on,,119,0,8,,,,,,,,,,,,,,,,6,,69,0
31919,note_on,,0,0,15,,,,,,,,,,,,,,,,15,,65,0
31920,note_on,,1,0,7,,,,,,,,,,,,,,,,5,,70,72
31920,note_on,,1,0,14,,,,,,,,,,,,,,,,13,,46,72
31920,note_on,,1,0,9,,,,,,,,,,,,,,,,7,,62,72
31920,note_on,,1,0,15,,,,,,,,,,,,,,,,15,,46,72
31920,note_on,,0,0,15,,,,,,,,,,,,,,,,15,,70,72
31920,note_on,,0,0,15,,,,,,,,,,,,,,,,15,,65,72
31920,note_on,,1,0,5,,,,,,,,,,,,,,,,1,,70,72
31920,note_on,,0,0,15,,,,,,,,,,,,,,,,15,,62,72
31920,note_on,,1,0,6,,,,,,,,,,,,,,,,2,,46,72
31920,note_on,,1,0,13,,,,,,,,,,,,,,,,12,,65,72
31920,note_on,,1,0,12,,,,,,,,,,,,,,,,11,,70,72
31920,note_on,,1,0,11,,,,,,,,,,,,,,,,10,,74,72
31949,note_on,,29,0,9,,,,,,,,,,,,,,,,7,,62,0
31949,note_on,,29,0,11,,,,,,,,,,,,,,,,10,,74,0
31950,note_on,,1,0,9,,,,,,,,,,,,,,,,7,,60,72
31950,note_on,,1,0,11,,,,,,,,,,,,,,,,10,,72,72
31979,note_on,,59,0,6,,,,,,,,,,,,,,,,2,,46,0
31979,note_on,,59,0,14,,,,,,,,,,,,,,,,13,,46,0
31979,note_on,,29,0,9,,,,,,,,,,,,,,,,7,,60,0
31979,note_on,,29,0,11,,,,,,,,,,,,,,,,10,,72,0
31979,note_on,,59,0,15,,,,,,,,,,,,,,,,15,,46,0
31979,note_on,,0,0,15,,,,,,,,,,,,,,,,15,,70,0
31979,note_on,,0,0,15,,,,,,,,,,,,,,,,15,,65,0
31979,note_on,,0,0,15,,,,,,,,,,,,,,,,15,,62,0
31980,note_on,,1,0,11,,,,,,,,,,,,,,,,10,,70,72
31980,note_on,,1,0,6,,,,,,,,,,,,,,,,2,,58,72
31980,note_on,,0,0,15,,,,,,,,,,,,,,,,15,,65,72
31980,note_on,,0,0,15,,,,,,,,,,,,,,,,15,,74,72
31980,note_on,,1,0,14,,,,,,,,,,,,,,,,13,,58,72
31980,note_on,,1,0,15,,,,,,,,,,,,,,,,15,,58,72
31980,note_on,,1,0,9,,,,,,,,,,,,,,,,7,,58,72
31980,note_on,,0,0,15,,,,,,,,,,,,,,,,15,,70,72
31980,note_on,,0,0,15,,,,,,,,,,,,,,,,15,,62,72
32009,note_on,,29,0,9,,,,,,,,,,,,,,,,7,,58,0
32009,note_on,,29,0,11,,,,,,,,,,,,,,,,10,,70,0
32010,note_on,,1,0,11,,,,,,,,,,,,,,,,10,,74,72
32010,note_on,,1,0,9,,,,,,,,,,,,,,,,7,,62,72
32039,note_on,,59,0,14,,,,,,,,,,,,,,,,13,,58,0
32039,note_on,,119,0,12,,,,,,,,,,,,,,,,11,,70,0
32039,note_on,,29,0,11,,,,,,,,,,,,,,,,10,,74,0
32039,note_on,,119,0,13,,,,,,,,,,,,,,,,12,,65,0
32039,note_on,,119,0,5,,,,,,,,,,,,,,,,1,,70,0
32039,note_on,,59,0,6,,,,,,,,,,,,,,,,2,,58,0
32039,note_on,,0,0,15,,,,,,,,,,,,,,,,15,,70,0
32039,note_on,,119,0,7,,,,,,,,,,,,,,,,5,,70,0
32039,note_on,,0,0,15,,,,,,,,,,,,,,,,15,,74,0
32039,note_on,,59,0,15,,,,,,,,,,,,,,,,15,,58,0
32039,note_on,,29,0,9,,,,,,,,,,,,,,,,7,,62,0
32039,note_on,,0,0,15,,,,,,,,,,,,,,,,15,,65,0
32039,note_on,,0,0,15,,,,,,,,,,,,,,,,15,,62,0
32040,note_on,,1,0,12,,,,,,,,,,,,,,,,11,,65,72
32040,note_on,,1,0,9,,,,,,,,,,,,,,,,7,,60,72
32040,note_on,,1,0,13,,,,,,,,,,,,,,,,12,,65,72
32040,note_on,,1,0,11,,,,,,,,,,,,,,,,10,,72,72
32040,note_on,,1,0,6,,,,,,,,,,,,,,,,2,,57,72
32040,note_on,,1,0,14,,,,,,,,,,,,,,,,13,,57,72
32040,note_on,,1,0,15,,,,,,,,,,,,,,,,15,,57,72
32040,note_on,,0,0,15,,,,,,,,,,,,,,,,15,,72,72
32040,note_on,,0,0,15,,,,,,,,,,,,,,,,15,,65,72
32040,note_on,,121,0,8,,,,,,,,,,,,,,,,6,,65,72
32040,note_on,,1,0,7,,,,,,,,,,,,,,,,5,,65,72
32040,note_on,,1,0,5,,,,,,,,,,,,,,,,1,,65,72
32069,note_on,,29,0,9,,,,,,,,,,,,,,,,7,,60,0
32069,note_on,,29,0,11,,,,,,,,,,,,,,,,10,,72,0
32070,note_on,,1,0,9,,,,,,,,,,,,,,,,7,,58,72
32070,note_on,,1,0,11,,,,,,,,,,,,,,,,10,,70,72
32099,note_on,,59,0,6,,,,,,,,,,,,,,,,2,,57,0
32099,note_on,,59,0,14,,,,,,,,,,,,,,,,13,,57,0
32099,note_on,,59,0,12,,,,,,,,,,,,,,,,11,,65,0
32099,note_on,,0,0,15,,,,,,,,,,,,,,,,15,,72,0
32099,note_on,,29,0,9,,,,,,,,,,,,,,,,7,,58,0
32099,note_on,,0,0,15,,,,,,,,,,,,,,,,15,,65,0
32099,note_on,,29,0,11,,,,,,,,,,,,,,,,10,,70,0
32099,note_on,,59,0,8,,,,,,,,,,,,,,,,6,,65,0
32099,note_on,,59,0,15,,,,,,,,,,,,,,,,15,,57,0
32100,note_on,,0,0,15,,,,,,,,,,,,,,,,15,,72,72
32100,note_on,,1,0,8,,,,,,,,,,,,,,,,6,,63,72
32100,note_on,,0,0,15,,,,,,,,,,,,,,,,15,,69,72
32100,note_on,,1,0,14,,,,,,,,,,,,,,,,13,,53,72
32100,note_on,,0,0,15,,,,,,,,,,,,,,,,15,,77,72
32100,note_on,,1,0,9,,,,,,,,,,,,,,,,7,,57,72
32100,note_on,,1,0,6,,,,,,,,,,,,,,,,2,,53,72
32100,note_on,,1,0,15,,,,,,,,,,,,,,,,15,,53,72
32100,note_on,,1,0,11,,,,,,,,,,,,,,,,10,,69,72
32100,note_on,,1,0,12,,,,,,,,,,,,,,,,11,,63,72
32129,note_on,,29,0,11,,,,,,,,,,,,,,,,10,,69,0
32129,note_on,,29,0,9,,,,,,,,,,,,,,,,7,,57,0
32130,note_on,,1,0,11,,,,,,,,,,,,,,,,10,,72,72
32130,note_on,,1,0,9,,,,,,,,,,,,,,,,7,,60,72
32159,note_on,,59,0,6,,,,,,,,,,,,,,,,2,,53,0
32159,note_on,,29,0,11,,,,,,,,,,,,,,,,10,,72,0
32159,note_on,,59,0,8,,,,,,,,,,,,,,,,6,,63,0
32159,note_on,,119,0,5,,,,,,,,,,,,,,,,1,,65,0
32159,note_on,,119,0,13,,,,,,,,,,,,,,,,12,,65,0
32159,note_on,,119,0,7,,,,,,,,,,,,,,,,5,,65,0
32159,note_on,,0,0,15,,,,,,,,,,,,,,,,15,,69,0
32159,note_on,,0,0,15,,,,,,,,,,,,,,,,15,,72,0
32159,note_on,,0,0,15,,,,,,,,,,,,,,,,15,,77,0
32159,note_on,,59,0,15,,,,,,,,,,,,,,,,15,,53,0
32159,note_on,,29,0,9,,,,,,,,,,,,,,,,7,,60,0
32159,note_on,,59,0,14,,,,,,,,,,,,,,,,13,,53,0
32159,note_on,,59,0,12,,,,,,,,,,,,,,,,11,,63,0
32160,note_on,,1,0,14,,,,,,,,,,,,,,,,13,,58,72
32160,note_on,,0,0,15,,,,,,,,,,,,,,,,15,,77,72
32160,note_on,,1,0,11,,,,,,,,,,,,,,,,10,,70,72
32160,note_on,,1,0,15,,,,,,,,,,,,,,,,15,,58,72
32160,note_on,,0,0,15,,,,,,,,,,,,,,,,15,,70,72
32160,note_on,,0,0,15,,,,,,,,,,,,,,,,15,,74,72
32160,note_on,,0,0,15,,,,,,,,,,,,,,,,15,,65,72
32160,note_on,,1,0,8,,,,,,,,,,,,,,,,6,,62,72
32160,note_on,,1,0,12,,,,,,,,,,,,,,,,11,,62,72
32160,note_on,,1,0,9,,,,,,,,,,,,,,,,7,,58,72
32160,note_on,,1,0,13,,,,,,,,,,,,,,,,12,,65,72
32160,note_on,,1,0,6,,,,,,,,,,,,,,,,2,,58,72
32189,note_on,,29,0,8,,,,,,,,,,,,,,,,6,,62,0
32189,note_on,,29,0,12,,,,,,,,,,,,,,,,11,,62,0
32190,note_on,,1,0,8,,,,,,,,,,,,,,,,6,,60,72
32190,note_on,,1,0,12,,,,,,,,,,,,,,,,11,,60,72
32219,note_on,,59,0,15,,,,,,,,,,,,,,,,15,,58,0
32219,note_on,,29,0,12,,,,,,,,,,,,,,,,11,,60,0
32219,note_on,,59,0,14,,,,,,,,,,,,,,,,13,,58,0
32219,note_on,,59,0,6,,,,,,,,,,,,,,,,2,,58,0
32219,note_on,,29,0,8,,,,,,,,,,,,,,,,6,,60,0
32220,note_on,,1,0,6,,,,,,,,,,,,,,,,2,,46,72
32220,note_on,,1,0,14,,,,,,,,,,,,,,,,13,,46,72
32220,note_on,,1,0,12,,,,,,,,,,,,,,,,11,,58,72
32220,note_on,,1,0,15,,,,,,,,,,,,,,,,15,,46,72
32220,note_on,,1,0,8,,,,,,,,,,,,,,,,6,,58,72
32249,note_on,,29,0,12,,,,,,,,,,,,,,,,11,,58,0
32249,note_on,,29,0,8,,,,,,,,,,,,,,,,6,,58,0
32250,note_on,,1,0,12,,,,,,,,,,,,,,,,11,,62,72
32250,note_on,,1,0,8,,,,,,,,,,,,,,,,6,,62,72
32279,note_on,,119,0,9,,,,,,,,,,,,,,,,7,,58,0
32279,note_on,,0,0,15,,,,,,,,,,,,,,,,15,,46,0
32279,note_on,,0,0,15,,,,,,,,,,,,,,,,15,,65,0
32279,note_on,,29,0,12,,,,,,,,,,,,,,,,11,,62,0
32279,note_on,,29,0,8,,,,,,,,,,,,,,,,6,,62,0
32279,note_on,,0,0,15,,,,,,,,,,,,,,,,15,,70,0
32279,note_on,,59,0,6,,,,,,,,,,,,,,,,2,,46,0
32279,note_on,,59,0,15,,,,,,,,,,,,,,,,15,,77,0
32279,note_on,,119,0,11,,,,,,,,,,,,,,,,10,,70,0
32279,note_on,,59,0,14,,,,,,,,,,,,,,,,13,,46,0
32279,note_on,,0,0,15,,,,,,,,,,,,,,,,15,,74,0
32279,note_on,,119,0,13,,,,,,,,,,,,,,,,12,,65,0
32280,note_on,,1,0,13,,,,,,,,,,,,,,,,12,,57,72
32280,note_on,,1,0,12,,,,,,,,,,,,,,,,11,,60,72
32280,note_on,,601,0,10,,,,,,,,,,,,,,,,8,,53,72
32280,note_on,,1,0,8,,,,,,,,,,,,,,,,6,,60,72
32280,note_on,,1,0,6,,,,,,,,,,,,,,,,2,,53,72
32280,note_on,,1,0,15,,,,,,,,,,,,,,,,15,,53,72
32280,note_on,,1,0,14,,,,,,,,,,,,,,,,13,,53,72
32280,note_on,,1,0,9,,,,,,,,,,,,,,,,7,,53,72
32280,note_on,,0,0,15,,,,,,,,,,,,,,,,15,,72,72
32280,note_on,,0,0,15,,,,,,,,,,,,,,,,15,,69,72
32280,note_on,,0,0,15,,,,,,,,,,,,,,,,15,,65,72
32309,note_on,,29,0,12,,,,,,,,,,,,,,,,11,,60,0
32309,note_on,,29,0,8,,,,,,,,,,,,,,,,6,,60,0
32310,note_on,,1,0,12,,,,,,,,,,,,,,,,11,,58,72
32310,note_on,,1,0,8,,,,,,,,,,,,,,,,6,,58,72
32339,note_on,,59,0,14,,,,,,,,,,,,,,,,13,,53,0
32339,note_on,,29,0,8,,,,,,,,,,,,,,,,6,,58,0
32339,note_on,,29,0,12,,,,,,,,,,,,,,,,11,,58,0
32339,note_on,,59,0,13,,,,,,,,,,,,,,,,12,,57,0
32339,note_on,,59,0,6,,,,,,,,,,,,,,,,2,,53,0
32339,note_on,,59,0,15,,,,,,,,,,,,,,,,15,,53,0
32339,note_on,,59,0,10,,,,,,,,,,,,,,,,8,,53,0
32340,note_on,,1,0,14,,,,,,,,,,,,,,,,13,,51,72
32340,note_on,,1,0,13,,,,,,,,,,,,,,,,12,,60,72
32340,note_on,,1,0,6,,,,,,,,,,,,,,,,2,,51,72
32340,note_on,,1,0,8,,,,,,,,,,,,,,,,6,,57,72
32340,note_on,,1,0,12,,,,,,,,,,,,,,,,11,,57,72
32340,note_on,,1,0,15,,,,,,,,,,,,,,,,15,,51,72
32340,note_on,,1,0,10,,,,,,,,,,,,,,,,8,,51,72
32369,note_on,,29,0,12,,,,,,,,,,,,,,,,11,,57,0
32369,note_on,,29,0,8,,,,,,,,,,,,,,,,6,,57,0
32370,note_on,,1,0,8,,,,,,,,,,,,,,,,6,,60,72
32370,note_on,,1,0,12,,,,,,,,,,,,,,,,11,,60,72
32399,note_on,,29,0,12,,,,,,,,,,,,,,,,11,,60,0
32399,note_on,,59,0,6,,,,,,,,,,,,,,,,2,,51,0
32399,note_on,,29,0,8,,,,,,,,,,,,,,,,6,,60,0
32399,note_on,,0,0,15,,,,,,,,,,,,,,,,15,,51,0
32399,note_on,,0,0,15,,,,,,,,,,,,,,,,15,,65,0
32399,note_on,,119,0,9,,,,,,,,,,,,,,,,7,,53,0
32399,note_on,,59,0,13,,,,,,,,,,,,,,,,12,,60,0
32399,note_on,,59,0,10,,,,,,,,,,,,,,,,8,,51,0
32399,note_on,,59,0,15,,,,,,,,,,,,,,,,15,,72,0
32399,note_on,,0,0,15,,,,,,,,,,,,,,,,15,,69,0
32399,note_on,,59,0,14,,,,,,,,,,,,,,,,13,,51,0
32400,note_on,,0,0,15,,,,,,,,,,,,,,,,15,,65,72
32400,note_on,,1,0,8,,,,,,,,,,,,,,,,6,,58,72
32400,note_on,,1,0,12,,,,,,,,,,,,,,,,11,,58,72
32400,note_on,,1,0,10,,,,,,,,,,,,,,,,8,,50,72
32400,note_on,,1,0,14,,,,,,,,,,,,,,,,13,,50,72
32400,note_on,,1,0,6,,,,,,,,,,,,,,,,2,,50,72
32400,note_on,,0,0,15,,,,,,,,,,,,,,,,15,,70,72
32400,note_on,,0,0,15,,,,,,,,,,,,,,,,15,,74,72
32400,note_on,,1,0,15,,,,,,,,,,,,,,,,15,,50,72
32400,note_on,,1,0,13,,,,,,,,,,,,,,,,12,,53,72
32429,note_on,,29,0,10,,,,,,,,,,,,,,,,8,,50,0
32430,note_on,,1,0,10,,,,,,,,,,,,,,,,8,,48,72
32459,note_on,,59,0,15,,,,,,,,,,,,,,,,15,,50,0
32459,note_on,,59,0,12,,,,,,,,,,,,,,,,11,,58,0
32459,note_on,,59,0,14,,,,,,,,,,,,,,,,13,,50,0
32459,note_on,,59,0,8,,,,,,,,,,,,,,,,6,,58,0
32459,note_on,,59,0,6,,,,,,,,,,,,,,,,2,,50,0
32459,note_on,,29,0,10,,,,,,,,,,,,,,,,8,,48,0
32460,note_on,,1,0,15,,,,,,,,,,,,,,,,15,,46,72
32460,note_on,,1,0,12,,,,,,,,,,,,,,,,11,,62,72
32460,note_on,,1,0,8,,,,,,,,,,,,,,,,6,,62,72
32460,note_on,,1,0,10,,,,,,,,,,,,,,,,8,,46,72
32460,note_on,,1,0,14,,,,,,,,,,,,,,,,13,,46,72
32460,note_on,,1,0,6,,,,,,,,,,,,,,,,2,,46,72
32489,note_on,,29,0,10,,,,,,,,,,,,,,,,8,,46,0
32490,note_on,,1,0,10,,,,,,,,,,,,,,,,8,,58,72
32519,note_on,,59,0,6,,,,,,,,,,,,,,,,2,,46,0
32519,note_on,,119,0,13,,,,,,,,,,,,,,,,12,,53,0
32519,note_on,,0,0,15,,,,,,,,,,,,,,,,15,,46,0
32519,note_on,,59,0,8,,,,,,,,,,,,,,,,6,,62,0
32519,note_on,,29,0,10,,,,,,,,,,,,,,,,8,,58,0
32519,note_on,,0,0,15,,,,,,,,,,,,,,,,15,,70,0
32519,note_on,,59,0,15,,,,,,,,,,,,,,,,15,,74,0
32519,note_on,,59,0,14,,,,,,,,,,,,,,,,13,,46,0
32519,note_on,,59,0,12,,,,,,,,,,,,,,,,11,,62,0
32519,note_on,,0,0,15,,,,,,,,,,,,,,,,15,,65,0
32520,note_on,,1,0,8,,,,,,,,,,,,,,,,6,,65,72
32520,note_on,,1,0,12,,,,,,,,,,,,,,,,11,,72,72
32520,note_on,,361,0,7,,,,,,,,,,,,,,,,5,,77,72
32520,note_on,,0,0,15,,,,,,,,,,,,,,,,15,,77,72
32520,note_on,,241,0,11,,,,,,,,,,,,,,,,10,,77,72
32520,note_on,,0,0,15,,,,,,,,,,,,,,,,15,,72,72
32520,note_on,,361,0,5,,,,,,,,,,,,,,,,1,,77,72
32520,note_on,,0,0,15,,,,,,,,,,,,,,,,15,,65,72
32520,note_on,,1,0,6,,,,,,,,,,,,,,,,2,,45,72
32520,note_on,,1,0,14,,,,,,,,,,,,,,,,13,,45,72
32520,note_on,,1,0,13,,,,,,,,,,,,,,,,12,,65,72
32520,note_on,,1,0,15,,,,,,,,,,,,,,,,15,,45,72
32520,note_on,,1,0,10,,,,,,,,,,,,,,,,8,,57,72
32549,note_on,,29,0,10,,,,,,,,,,,,,,,,8,,57,0
32550,note_on,,1,0,10,,,,,,,,,,,,,,,,8,,55,72
32579,note_on,,59,0,15,,,,,,,,,,,,,,,,15,,45,0
32579,note_on,,59,0,13,,,,,,,,,,,,,,,,12,,65,0
32579,note_on,,59,0,11,,,,,,,,,,,,,,,,10,,77,0
32579,note_on,,59,0,7,,,,,,,,,,,,,,,,5,,77,0
32579,note_on,,59,0,5,,,,,,,,,,,,,,,,1,,77,0
32579,note_on,,29,0,10,,,,,,,,,,,,,,,,8,,55,0
32579,note_on,,59,0,6,,,,,,,,,,,,,,,,2,,45,0
32579,note_on,,59,0,14,,,,,,,,,,,,,,,,13,,45,0
32579,note_on,,59,0,8,,,,,,,,,,,,,,,,6,,65,0
32579,note_on,,59,0,12,,,,,,,,,,,,,,,,11,,72,0
32580,note_on,,1,0,7,,,,,,,,,,,,,,,,5,,75,72
32580,note_on,,1,0,8,,,,,,,,,,,,,,,,6,,60,72
32580,note_on,,1,0,6,,,,,,,,,,,,,,,,2,,57,72
32580,note_on,,1,0,12,,,,,,,,,,,,,,,,11,,84,72
32580,note_on,,1,0,14,,,,,,,,,,,,,,,,13,,57,72
32580,note_on,,1,0,5,,,,,,,,,,,,,,,,1,,75,72
32580,note_on,,1,0,15,,,,,,,,,,,,,,,,15,,57,72
32580,note_on,,1,0,11,,,,,,,,,,,,,,,,10,,84,72
32580,note_on,,1,0,13,,,,,,,,,,,,,,,,12,,65,72
32580,note_on,,1,0,10,,,,,,,,,,,,,,,,8,,53,72
32609,note_on,,29,0,10,,,,,,,,,,,,,,,,8,,53,0
32610,note_on,,1,0,10,,,,,,,,,,,,,,,,8,,57,72
32639,note_on,,59,0,11,,,,,,,,,,,,,,,,10,,84,0
32639,note_on,,59,0,14,,,,,,,,,,,,,,,,13,,57,0
32639,note_on,,59,0,13,,,,,,,,,,,,,,,,12,,65,0
32639,note_on,,59,0,8,,,,,,,,,,,,,,,,6,,60,0
32639,note_on,,29,0,10,,,,,,,,,,,,,,,,8,,57,0
32639,note_on,,59,0,5,,,,,,,,,,,,,,,,1,,75,0
32639,note_on,,59,0,12,,,,,,,,,,,,,,,,11,,84,0
32639,note_on,,59,0,7,,,,,,,,,,,,,,,,5,,75,0
32639,note_on,,59,0,6,,,,,,,,,,,,,,,,2,,57,0
32639,note_on,,59,0,15,,,,,,,,,,,,,,,,15,,77,0
32639,note_on,,0,0,15,,,,,,,,,,,,,,,,15,,72,0
32639,note_on,,0,0,15,,,,,,,,,,,,,,,,15,,65,0
32639,note_on,,0,0,15,,,,,,,,,,,,,,,,15,,57,0
32640,note_on,,1,0,5,,,,,,,,,,,,,,,,1,,74,72
32640,note_on,,1,0,7,,,,,,,,,,,,,,,,5,,74,72
32640,note_on,,1,0,13,,,,,,,,,,,,,,,,12,,65,72
32640,note_on,,1,0,11,,,,,,,,,,,,,,,,10,,86,72
32640,note_on,,1,0,8,,,,,,,,,,,,,,,,6,,70,72
32640,note_on,,1,0,6,,,,,,,,,,,,,,,,2,,58,72
32640,note_on,,1,0,15,,,,,,,,,,,,,,,,15,,58,72
32640,note_on,,1,0,14,,,,,,,,,,,,,,,,13,,58,72
32640,note_on,,0,0,15,,,,,,,,,,,,,,,,15,,74,72
32640,note_on,,0,0,15,,,,,,,,,,,,,,,,15,,70,72
32640,note_on,,0,0,15,,,,,,,,,,,,,,,,15,,65,72
32640,note_on,,0,0,15,,,,,,,,,,,,,,,,15,,77,72
32640,note_on,,1,0,12,,,,,,,,,,,,,,,,11,,82,72
32640,note_on,,1,0,10,,,,,,,,,,,,,,,,8,,58,72
32669,note_on,,29,0,11,,,,,,,,,,,,,,,,10,,86,0
32669,note_on,,29,0,7,,,,,,,,,,,,,,,,5,,74,0
32669,note_on,,29,0,5,,,,,,,,,,,,,,,,1,,74,0
32669,note_on,,29,0,8,,,,,,,,,,,,,,,,6,,70,0
32669,note_on,,29,0,12,,,,,,,,,,,,,,,,11,,82,0
32670,note_on,,1,0,12,,,,,,,,,,,,,,,,11,,81,72
32670,note_on,,1,0,7,,,,,,,,,,,,,,,,5,,72,72
32670,note_on,,1,0,5,,,,,,,,,,,,,,,,1,,72,72
32670,note_on,,1,0,8,,,,,,,,,,,,,,,,6,,69,72
32670,note_on,,1,0,11,,,,,,,,,,,,,,,,10,,84,72
32699,note_on,,29,0,7,,,,,,,,,,,,,,,,5,,72,0
32699,note_on,,29,0,12,,,,,,,,,,,,,,,,11,,81,0
32699,note_on,,29,0,11,,,,,,,,,,,,,,,,10,,84,0
32699,note_on,,29,0,5,,,,,,,,,,,,,,,,1,,72,0
32699,note_on,,59,0,14,,,,,,,,,,,,,,,,13,,58,0
32699,note_on,,59,0,6,,,,,,,,,,,,,,,,2,,58,0
32699,note_on,,29,0,8,,,,,,,,,,,,,,,,6,,69,0
32699,note_on,,59,0,15,,,,,,,,,,,,,,,,15,,58,0
32700,note_on,,1,0,8,,,,,,,,,,,,,,,,6,,67,72
32700,note_on,,1,0,12,,,,,,,,,,,,,,,,11,,79,72
32700,note_on,,1,0,5,,,,,,,,,,,,,,,,1,,70,72
32700,note_on,,1,0,14,,,,,,,,,,,,,,,,13,,46,72
32700,note_on,,1,0,11,,,,,,,,,,,,,,,,10,,82,72
32700,note_on,,1,0,6,,,,,,,,,,,,,,,,2,,46,72
32700,note_on,,1,0,15,,,,,,,,,,,,,,,,15,,46,72
32700,note_on,,1,0,7,,,,,,,,,,,,,,,,5,,70,72
32729,note_on,,29,0,11,,,,,,,,,,,,,,,,10,,82,0
32729,note_on,,29,0,5,,,,,,,,,,,,,,,,1,,70,0
32729,note_on,,29,0,8,,,,,,,,,,,,,,,,6,,67,0
32729,note_on,,29,0,7,,,,,,,,,,,,,,,,5,,70,0
32729,note_on,,29,0,12,,,,,,,,,,,,,,,,11,,79,0
32730,note_on,,1,0,7,,,,,,,,,,,,,,,,5,,74,72
32730,note_on,,1,0,11,,,,,,,,,,,,,,,,10,,86,72
32730,note_on,,1,0,5,,,,,,,,,,,,,,,,1,,74,72
32730,note_on,,1,0,8,,,,,,,,,,,,,,,,6,,70,72
32730,note_on,,1,0,12,,,,,,,,,,,,,,,,11,,82,72
32759,note_on,,119,0,10,,,,,,,,,,,,,,,,8,,58,0
32759,note_on,,29,0,11,,,,,,,,,,,,,,,,10,,86,0
32759,note_on,,29,0,12,,,,,,,,,,,,,,,,11,,82,0
32759,note_on,,29,0,8,,,,,,,,,,,,,,,,6,,70,0
32759,note_on,,59,0,14,,,,,,,,,,,,,,,,13,,46,0
32759,note_on,,59,0,6,,,,,,,,,,,,,,,,2,,46,0
32759,note_on,,0,0,15,,,,,,,,,,,,,,,,15,,46,0
32759,note_on,,119,0,13,,,,,,,,,,,,,,,,12,,65,0
32759,note_on,,0,0,15,,,,,,,,,,,,,,,,15,,65,0
32759,note_on,,29,0,5,,,,,,,,,,,,,,,,1,,74,0
32759,note_on,,59,0,15,,,,,,,,,,,,,,,,15,,77,0
32759,note_on,,0,0,15,,,,,,,,,,,,,,,,15,,74,0
32759,note_on,,0,0,15,,,,,,,,,,,,,,,,15,,70,0
32759,note_on,,29,0,7,,,,,,,,,,,,,,,,5,,74,0
32760,note_on,,1,0,7,,,,,,,,,,,,,,,,5,,72,72
32760,note_on,,1,0,6,,,,,,,,,,,,,,,,2,,53,72
32760,note_on,,0,0,15,,,,,,,,,,,,,,,,15,,65,72
32760,note_on,,1,0,14,,,,,,,,,,,,,,,,13,,53,72
32760,note_on,,1,0,8,,,,,,,,,,,,,,,,6,,69,72
32760,note_on,,1,0,13,,,,,,,,,,,,,,,,12,,53,72
32760,note_on,,0,0,15,,,,,,,,,,,,,,,,15,,69,72
32760,note_on,,1,0,12,,,,,,,,,,,,,,,,11,,81,72
32760,note_on,,1,0,10,,,,,,,,,,,,,,,,8,,53,72
32760,note_on,,0,0,15,,,,,,,,,,,,,,,,15,,72,72
32760,note_on,,1,0,15,,,,,,,,,,,,,,,,15,,53,72
32760,note_on,,1,0,11,,,,,,,,,,,,,,,,10,,84,72
32760,note_on,,1,0,5,,,,,,,,,,,,,,,,1,,72,72
32789,note_on,,29,0,7,,,,,,,,,,,,,,,,5,,72,0
32789,note_on,,29,0,8,,,,,,,,,,,,,,,,6,,69,0
32789,note_on,,29,0,5,,,,,,,,,,,,,,,,1,,72,0
32789,note_on,,29,0,11,,,,,,,,,,,,,,,,10,,84,0
32789,note_on,,29,0,12,,,,,,,,,,,,,,,,11,,81,0
32790,note_on,,1,0,12,,,,,,,,,,,,,,,,11,,79,72
32790,note_on,,1,0,5,,,,,,,,,,,,,,,,1,,70,72
32790,note_on,,1,0,8,,,,,,,,,,,,,,,,6,,67,72
32790,note_on,,1,0,11,,,,,,,,,,,,,,,,10,,82,72
32790,note_on,,1,0,7,,,,,,,,,,,,,,,,5,,70,72
32819,note_on,,29,0,8,,,,,,,,,,,,,,,,6,,67,0
32819,note_on,,59,0,13,,,,,,,,,,,,,,,,12,,53,0
32819,note_on,,59,0,15,,,,,,,,,,,,,,,,15,,53,0
32819,note_on,,59,0,6,,,,,,,,,,,,,,,,2,,53,0
32819,note_on,,29,0,12,,,,,,,,,,,,,,,,11,,79,0
32819,note_on,,29,0,5,,,,,,,,,,,,,,,,1,,70,0
32819,note_on,,29,0,7,,,,,,,,,,,,,,,,5,,70,0
32819,note_on,,29,0,11,,,,,,,,,,,,,,,,10,,82,0
32819,note_on,,59,0,14,,,,,,,,,,,,,,,,13,,53,0
32820,note_on,,1,0,14,,,,,,,,,,,,,,,,13,,41,72
32820,note_on,,1,0,7,,,,,,,,,,,,,,,,5,,69,72
32820,note_on,,1,0,5,,,,,,,,,,,,,,,,1,,69,72
32820,note_on,,1,0,6,,,,,,,,,,,,,,,,2,,41,72
32820,note_on,,1,0,11,,,,,,,,,,,,,,,,10,,81,72
32820,note_on,,1,0,13,,,,,,,,,,,,,,,,12,,65,72
32820,note_on,,1,0,15,,,,,,,,,,,,,,,,15,,41,72
32820,note_on,,1,0,8,,,,,,,,,,,,,,,,6,,65,72
32820,note_on,,1,0,12,,,,,,,,,,,,,,,,11,,77,72
32849,note_on,,29,0,8,,,,,,,,,,,,,,,,6,,65,0
32849,note_on,,29,0,5,,,,,,,,,,,,,,,,1,,69,0
32849,note_on,,29,0,7,,,,,,,,,,,,,,,,5,,69,0
32849,note_on,,29,0,11,,,,,,,,,,,,,,,,10,,81,0
32849,note_on,,29,0,12,,,,,,,,,,,,,,,,11,,77,0
32850,note_on,,1,0,12,,,,,,,,,,,,,,,,11,,81,72
32850,note_on,,1,0,11,,,,,,,,,,,,,,,,10,,84,72
32850,note_on,,1,0,5,,,,,,,,,,,,,,,,1,,72,72
32850,note_on,,1,0,7,,,,,,,,,,,,,,,,5,,72,72
32850,note_on,,1,0,8,,,,,,,,,,,,,,,,6,,69,72
32879,note_on,,29,0,8,,,,,,,,,,,,,,,,6,,69,0
32879,note_on,,29,0,5,,,,,,,,,,,,,,,,1,,72,0
32879,note_on,,59,0,15,,,,,,,,,,,,,,,,15,,72,0
32879,note_on,,0,0,15,,,,,,,,,,,,,,,,15,,69,0
32879,note_on,,0,0,15,,,,,,,,,,,,,,,,15,,65,0
32879,note_on,,0,0,15,,,,,,,,,,,,,,,,15,,41,0
32879,note_on,,29,0,7,,,,,,,,,,,,,,,,5,,72,0
32879,note_on,,119,0,10,,,,,,,,,,,,,,,,8,,53,0
32879,note_on,,29,0,12,,,,,,,,,,,,,,,,11,,81,0
32879,note_on,,59,0,14,,,,,,,,,,,,,,,,13,,41,0
32879,note_on,,59,0,13,,,,,,,,,,,,,,,,12,,65,0
32879,note_on,,59,0,6,,,,,,,,,,,,,,,,2,,41,0
32879,note_on,,29,0,11,,,,,,,,,,,,,,,,10,,84,0
32880,note_on,,1,0,5,,,,,,,,,,,,,,,,1,,70,72
32880,note_on,,0,0,15,,,,,,,,,,,,,,,,15,,65,72
32880,note_on,,1,0,13,,,,,,,,,,,,,,,,12,,62,72
32880,note_on,,0,0,15,,,,,,,,,,,,,,,,15,,70,72
32880,note_on,,0,0,15,,,,,,,,,,,,,,,,15,,74,72
32880,note_on,,1,0,15,,,,,,,,,,,,,,,,15,,46,72
32880,note_on,,1,0,11,,,,,,,,,,,,,,,,10,,82,72
32880,note_on,,1,0,14,,,,,,,,,,,,,,,,13,,46,72
32880,note_on,,1,0,7,,,,,,,,,,,,,,,,5,,70,72
32880,note_on,,1,0,8,,,,,,,,,,,,,,,,6,,67,72
32880,note_on,,1,0,6,,,,,,,,,,,,,,,,2,,46,72
32880,note_on,,1,0,12,,,,,,,,,,,,,,,,11,,79,72
32909,note_on,,29,0,8,,,,,,,,,,,,,,,,6,,67,0
32909,note_on,,29,0,5,,,,,,,,,,,,,,,,1,,70,0
32909,note_on,,29,0,12,,,,,,,,,,,,,,,,11,,79,0
32909,note_on,,29,0,11,,,,,,,,,,,,,,,,10,,82,0
32909,note_on,,29,0,7,,,,,,,,,,,,,,,,5,,70,0
32910,note_on,,1,0,8,,,,,,,,,,,,,,,,6,,65,72
32910,note_on,,1,0,12,,,,,,,,,,,,,,,,11,,77,72
32910,note_on,,1,0,11,,,,,,,,,,,,,,,,10,,81,72
32910,note_on,,1,0,7,,,,,,,,,,,,,,,,5,,69,72
32910,note_on,,1,0,5,,,,,,,,,,,,,,,,1,,69,72
32939,note_on,,59,0,6,,,,,,,,,,,,,,,,2,,46,0
32939,note_on,,29,0,12,,,,,,,,,,,,,,,,11,,77,0
32939,note_on,,29,0,11,,,,,,,,,,,,,,,,10,,81,0
32939,note_on,,59,0,13,,,,,,,,,,,,,,,,12,,62,0
32939,note_on,,29,0,7,,,,,,,,,,,,,,,,5,,69,0
32939,note_on,,0,0,15,,,,,,,,,,,,,,,,15,,65,0
32939,note_on,,0,0,15,,,,,,,,,,,,,,,,15,,70,0
32939,note_on,,0,0,15,,,,,,,,,,,,,,,,15,,74,0
32939,note_on,,29,0,8,,,,,,,,,,,,,,,,6,,65,0
32939,note_on,,59,0,14,,,,,,,,,,,,,,,,13,,46,0
32939,note_on,,59,0,15,,,,,,,,,,,,,,,,15,,46,0
32939,note_on,,29,0,5,,,,,,,,,,,,,,,,1,,69,0
32940,note_on,,1,0,15,,,,,,,,,,,,,,,,15,,48,72
32940,note_on,,1,0,8,,,,,,,,,,,,,,,,6,,64,72
32940,note_on,,0,0,15,,,,,,,,,,,,,,,,15,,72,72
32940,note_on,,1,0,12,,,,,,,,,,,,,,,,11,,76,72
32940,note_on,,1,0,11,,,,,,,,,,,,,,,,10,,79,72
32940,note_on,,1,0,7,,,,,,,,,,,,,,,,5,,67,72
32940,note_on,,1,0,6,,,,,,,,,,,,,,,,2,,48,72
32940,note_on,,0,0,15,,,,,,,,,,,,,,,,15,,64,72
32940,note_on,,0,0,15,,,,,,,,,,,,,,,,15,,67,72
32940,note_on,,1,0,14,,,,,,,,,,,,,,,,13,,48,72
32940,note_on,,1,0,5,,,,,,,,,,,,,,,,1,,67,72
32940,note_on,,1,0,13,,,,,,,,,,,,,,,,12,,64,72
32969,note_on,,29,0,5,,,,,,,,,,,,,,,,1,,67,0
32969,note_on,,29,0,11,,,,,,,,,,,,,,,,10,,79,0
32969,note_on,,29,0,7,,,,,,,,,,,,,,,,5,,67,0
32969,note_on,,29,0,8,,,,,,,,,,,,,,,,6,,64,0
32969,note_on,,29,0,12,,,,,,,,,,,,,,,,11,,76,0
32970,note_on,,1,0,5,,,,,,,,,,,,,,,,1,,70,72
32970,note_on,,1,0,11,,,,,,,,,,,,,,,,10,,82,72
32970,note_on,,1,0,12,,,,,,,,,,,,,,,,11,,79,72
32970,note_on,,1,0,7,,,,,,,,,,,,,,,,5,,70,72
32970,note_on,,1,0,8,,,,,,,,,,,,,,,,6,,67,72
32999,note_on,,29,0,11,,,,,,,,,,,,,,,,10,,82,0
32999,note_on,,59,0,6,,,,,,,,,,,,,,,,2,,48,0
32999,note_on,,29,0,7,,,,,,,,,,,,,,,,5,,70,0
32999,note_on,,29,0,8,,,,,,,,,,,,,,,,6,,67,0
32999,note_on,,29,0,5,,,,,,,,,,,,,,,,1,,70,0
32999,note_on,,59,0,15,,,,,,,,,,,,,,,,15,,48,0
32999,note_on,,59,0,13,,,,,,,,,,,,,,,,12,,64,0
32999,note_on,,0,0,15,,,,,,,,,,,,,,,,15,,67,0
32999,note_on,,59,0,14,,,,,,,,,,,,,,,,13,,48,0
32999,note_on,,29,0,12,,,,,,,,,,,,,,,,11,,79,0
32999,note_on,,0,0,15,,,,,,,,,,,,,,,,15,,64,0
32999,note_on,,0,0,15,,,,,,,,,,,,,,,,15,,72,0
33000,note_on,,1,0,7,,,,,,,,,,,,,,,,5,,69,72
33000,note_on,,1,0,15,,,,,,,,,,,,,,,,15,,41,72
33000,note_on,,1,0,5,,,,,,,,,,,,,,,,1,,69,72
33000,note_on,,0,0,15,,,,,,,,,,,,,,,,15,,60,72
33000,note_on,,0,0,15,,,,,,,,,,,,,,,,15,,72,72
33000,note_on,,1,0,6,,,,,,,,,,,,,,,,2,,41,72
33000,note_on,,1,0,14,,,,,,,,,,,,,,,,13,,41,72
33000,note_on,,1,0,13,,,,,,,,,,,,,,,,12,,60,72
33000,note_on,,0,0,15,,,,,,,,,,,,,,,,15,,69,72
33000,note_on,,1,0,12,,,,,,,,,,,,,,,,11,,77,72
33000,note_on,,1,0,11,,,,,,,,,,,,,,,,10,,81,72
33000,note_on,,601,0,9,,,,,,,,,,,,,,,,7,,60,72
33000,note_on,,121,0,10,,,,,,,,,,,,,,,,8,,53,72
33000,note_on,,0,0,15,,,,,,,,,,,,,,,,15,,65,72
33000,note_on,,1,0,8,,,,,,,,,,,,,,,,6,,65,72
33029,note_on,,29,0,12,,,,,,,,,,,,,,,,11,,77,0
33029,note_on,,29,0,5,,,,,,,,,,,,,,,,1,,69,0
33029,note_on,,29,0,8,,,,,,,,,,,,,,,,6,,65,0
33029,note_on,,29,0,11,,,,,,,,,,,,,,,,10,,81,0
33029,note_on,,29,0,7,,,,,,,,,,,,,,,,5,,69,0
33030,note_on,,1,0,5,,,,,,,,,,,,,,,,1,,70,72
33030,note_on,,1,0,11,,,,,,,,,,,,,,,,10,,82,72
33030,note_on,,1,0,7,,,,,,,,,,,,,,,,5,,70,72
33030,note_on,,1,0,8,,,,,,,,,,,,,,,,6,,67,72
33030,note_on,,1,0,12,,,,,,,,,,,,,,,,11,,79,72
33059,note_on,,29,0,8,,,,,,,,,,,,,,,,6,,67,0
33059,note_on,,29,0,11,,,,,,,,,,,,,,,,10,,82,0
33059,note_on,,59,0,6,,,,,,,,,,,,,,,,2,,41,0
33059,note_on,,29,0,5,,,,,,,,,,,,,,,,1,,70,0
33059,note_on,,59,0,15,,,,,,,,,,,,,,,,15,,41,0
33059,note_on,,59,0,14,,,,,,,,,,,,,,,,13,,41,0
33059,note_on,,59,0,10,,,,,,,,,,,,,,,,8,,53,0
33059,note_on,,59,0,9,,,,,,,,,,,,,,,,7,,60,0
33059,note_on,,29,0,12,,,,,,,,,,,,,,,,11,,79,0
33059,note_on,,29,0,7,,,,,,,,,,,,,,,,5,,70,0
33059,note_on,,59,0,13,,,,,,,,,,,,,,,,12,,60,0
33060,note_on,,1,0,6,,,,,,,,,,,,,,,,2,,53,72
33060,note_on,,1,0,10,,,,,,,,,,,,,,,,8,,53,72
33060,note_on,,1,0,8,,,,,,,,,,,,,,,,6,,69,72
33060,note_on,,1,0,15,,,,,,,,,,,,,,,,15,,53,72
33060,note_on,,1,0,9,,,,,,,,,,,,,,,,7,,65,72
33060,note_on,,1,0,11,,,,,,,,,,,,,,,,10,,84,72
33060,note_on,,1,0,7,,,,,,,,,,,,,,,,5,,72,72
33060,note_on,,1,0,13,,,,,,,,,,,,,,,,12,,65,72
33060,note_on,,1,0,12,,,,,,,,,,,,,,,,11,,81,72
33060,note_on,,1,0,5,,,,,,,,,,,,,,,,1,,72,72
33060,note_on,,1,0,14,,,,,,,,,,,,,,,,13,,53,72
33089,note_on,,29,0,11,,,,,,,,,,,,,,,,10,,84,0
33089,note_on,,29,0,12,,,,,,,,,,,,,,,,11,,81,0
33089,note_on,,29,0,5,,,,,,,,,,,,,,,,1,,72,0
33089,note_on,,29,0,7,,,,,,,,,,,,,,,,5,,72,0
33089,note_on,,29,0,8,,,,,,,,,,,,,,,,6,,69,0
33090,note_on,,1,0,12,,,,,,,,,,,,,,,,11,,77,72
33090,note_on,,1,0,7,,,,,,,,,,,,,,,,5,,69,72
33090,note_on,,1,0,11,,,,,,,,,,,,,,,,10,,81,72
33090,note_on,,1,0,5,,,,,,,,,,,,,,,,1,,69,72
33090,note_on,,1,0,8,,,,,,,,,,,,,,,,6,,65,72
33119,note_on,,59,0,10,,,,,,,,,,,,,,,,8,,53,0
33119,note_on,,0,0,15,,,,,,,,,,,,,,,,15,,53,0
33119,note_on,,0,0,15,,,,,,,,,,,,,,,,15,,60,0
33119,note_on,,29,0,7,,,,,,,,,,,,,,,,5,,69,0
33119,note_on,,29,0,11,,,,,,,,,,,,,,,,10,,81,0
33119,note_on,,0,0,15,,,,,,,,,,,,,,,,15,,65,0
33119,note_on,,0,0,15,,,,,,,,,,,,,,,,15,,69,0
33119,note_on,,59,0,15,,,,,,,,,,,,,,,,15,,72,0
33119,note_on,,59,0,9,,,,,,,,,,,,,,,,7,,65,0
33119,note_on,,29,0,12,,,,,,,,,,,,,,,,11,,77,0
33119,note_on,,29,0,8,,,,,,,,,,,,,,,,6,,65,0
33119,note_on,,59,0,13,,,,,,,,,,,,,,,,12,,65,0
33119,note_on,,29,0,5,,,,,,,,,,,,,,,,1,,69,0
33119,note_on,,59,0,6,,,,,,,,,,,,,,,,2,,53,0
33119,note_on,,59,0,14,,,,,,,,,,,,,,,,13,,53,0
33120,note_on,,0,0,15,,,,,,,,,,,,,,,,15,,65,72
33120,note_on,,1,0,12,,,,,,,,,,,,,,,,11,,82,72
33120,note_on,,1,0,9,,,,,,,,,,,,,,,,7,,65,72
33120,note_on,,1,0,7,,,,,,,,,,,,,,,,5,,74,72
33120,note_on,,1,0,13,,,,,,,,,,,,,,,,12,,65,72
33120,note_on,,1,0,10,,,,,,,,,,,,,,,,8,,50,72
33120,note_on,,0,0,15,,,,,,,,,,,,,,,,15,,70,72
33120,note_on,,1,0,15,,,,,,,,,,,,,,,,15,,50,72
33120,note_on,,1,0,14,,,,,,,,,,,,,,,,13,,50,72
33120,note_on,,1,0,8,,,,,,,,,,,,,,,,6,,70,72
33120,note_on,,1,0,11,,,,,,,,,,,,,,,,10,,86,72
33120,note_on,,0,0,15,,,,,,,,,,,,,,,,15,,62,72
33120,note_on,,1,0,6,,,,,,,,,,,,,,,,2,,50,72
33120,note_on,,1,0,5,,,,,,,,,,,,,,,,1,,74,72
33149,note_on,,29,0,12,,,,,,,,,,,,,,,,11,,82,0
33149,note_on,,29,0,8,,,,,,,,,,,,,,,,6,,70,0
33149,note_on,,29,0,11,,,,,,,,,,,,,,,,10,,86,0
33149,note_on,,29,0,7,,,,,,,,,,,,,,,,5,,74,0
33149,note_on,,29,0,5,,,,,,,,,,,,,,,,1,,74,0
33150,note_on,,1,0,12,,,,,,,,,,,,,,,,11,,81,72
33150,note_on,,1,0,8,,,,,,,,,,,,,,,,6,,69,72
33150,note_on,,1,0,11,,,,,,,,,,,,,,,,10,,84,72
33150,note_on,,1,0,5,,,,,,,,,,,,,,,,1,,72,72
33150,note_on,,1,0,7,,,,,,,,,,,,,,,,5,,72,72
33179,note_on,,29,0,7,,,,,,,,,,,,,,,,5,,72,0
33179,note_on,,29,0,8,,,,,,,,,,,,,,,,6,,69,0
33179,note_on,,59,0,13,,,,,,,,,,,,,,,,12,,65,0
33179,note_on,,29,0,12,,,,,,,,,,,,,,,,11,,81,0
33179,note_on,,59,0,15,,,,,,,,,,,,,,,,15,,50,0
33179,note_on,,59,0,10,,,,,,,,,,,,,,,,8,,50,0
33179,note_on,,29,0,5,,,,,,,,,,,,,,,,1,,72,0
33179,note_on,,59,0,14,,,,,,,,,,,,,,,,13,,50,0
33179,note_on,,59,0,9,,,,,,,,,,,,,,,,7,,65,0
33179,note_on,,29,0,11,,,,,,,,,,,,,,,,10,,84,0
33179,note_on,,59,0,6,,,,,,,,,,,,,,,,2,,50,0
33180,note_on,,1,0,12,,,,,,,,,,,,,,,,11,,82,72
33180,note_on,,1,0,10,,,,,,,,,,,,,,,,8,,53,72
33180,note_on,,1,0,15,,,,,,,,,,,,,,,,15,,53,72
33180,note_on,,1,0,11,,,,,,,,,,,,,,,,10,,86,72
33180,note_on,,1,0,14,,,,,,,,,,,,,,,,13,,53,72
33180,note_on,,1,0,9,,,,,,,,,,,,,,,,7,,65,72
33180,note_on,,1,0,8,,,,,,,,,,,,,,,,6,,70,72
33180,note_on,,1,0,13,,,,,,,,,,,,,,,,12,,65,72
33180,note_on,,1,0,5,,,,,,,,,,,,,,,,1,,74,72
33180,note_on,,1,0,7,,,,,,,,,,,,,,,,5,,74,72
33180,note_on,,1,0,6,,,,,,,,,,,,,,,,2,,53,72
33209,note_on,,29,0,7,,,,,,,,,,,,,,,,5,,74,0
33209,note_on,,29,0,12,,,,,,,,,,,,,,,,11,,82,0
33209,note_on,,29,0,8,,,,,,,,,,,,,,,,6,,70,0
33209,note_on,,29,0,5,,,,,,,,,,,,,,,,1,,74,0
33209,note_on,,29,0,11,,,,,,,,,,,,,,,,10,,86,0
33210,note_on,,1,0,11,,,,,,,,,,,,,,,,10,,84,72
33210,note_on,,1,0,8,,,,,,,,,,,,,,,,6,,69,72
33210,note_on,,1,0,7,,,,,,,,,,,,,,,,5,,72,72
33210,note_on,,1,0,5,,,,,,,,,,,,,,,,1,,72,72
33210,note_on,,1,0,12,,,,,,,,,,,,,,,,11,,81,72
33239,note_on,,29,0,5,,,,,,,,,,,,,,,,1,,72,0
33239,note_on,,29,0,11,,,,,,,,,,,,,,,,10,,84,0
33239,note_on,,29,0,8,,,,,,,,,,,,,,,,6,,69,0
33239,note_on,,59,0,13,,,,,,,,,,,,,,,,12,,65,0
33239,note_on,,59,0,14,,,,,,,,,,,,,,,,13,,53,0
33239,note_on,,59,0,9,,,,,,,,,,,,,,,,7,,65,0
33239,note_on,,29,0,7,,,,,,,,,,,,,,,,5,,72,0
33239,note_on,,59,0,15,,,,,,,,,,,,,,,,15,,70,0
33239,note_on,,0,0,15,,,,,,,,,,,,,,,,15,,65,0
33239,note_on,,0,0,15,,,,,,,,,,,,,,,,15,,62,0
33239,note_on,,0,0,15,,,,,,,,,,,,,,,,15,,53,0
33239,note_on,,59,0,10,,,,,,,,,,,,,,,,8,,53,0
33239,note_on,,29,0,12,,,,,,,,,,,,,,,,11,,81,0
33239,note_on,,59,0,6,,,,,,,,,,,,,,,,2,,53,0
33240,note_on,,1,0,11,,,,,,,,,,,,,,,,10,,82,72
33240,note_on,,1,0,6,,,,,,,,,,,,,,,,2,,58,72
33240,note_on,,1,0,12,,,,,,,,,,,,,,,,11,,79,72
33240,note_on,,1,0,9,,,,,,,,,,,,,,,,7,,62,72
33240,note_on,,1,0,15,,,,,,,,,,,,,,,,15,,58,72
33240,note_on,,1,0,14,,,,,,,,,,,,,,,,13,,58,72
33240,note_on,,1,0,13,,,,,,,,,,,,,,,,12,,62,72
33240,note_on,,1,0,10,,,,,,,,,,,,,,,,8,,58,72
33240,note_on,,0,0,15,,,,,,,,,,,,,,,,15,,62,72
33240,note_on,,1,0,8,,,,,,,,,,,,,,,,6,,67,72
33240,note_on,,1,0,7,,,,,,,,,,,,,,,,5,,70,72
33240,note_on,,1,0,5,,,,,,,,,,,,,,,,1,,70,72
33269,note_on,,29,0,12,,,,,,,,,,,,,,,,11,,79,0
33269,note_on,,29,0,8,,,,,,,,,,,,,,,,6,,67,0
33269,note_on,,29,0,5,,,,,,,,,,,,,,,,1,,70,0
33269,note_on,,29,0,7,,,,,,,,,,,,,,,,5,,70,0
33269,note_on,,29,0,11,,,,,,,,,,,,,,,,10,,82,0
33270,note_on,,1,0,8,,,,,,,,,,,,,,,,6,,65,72
33270,note_on,,1,0,12,,,,,,,,,,,,,,,,11,,77,72
33270,note_on,,1,0,7,,,,,,,,,,,,,,,,5,,69,72
33270,note_on,,1,0,5,,,,,,,,,,,,,,,,1,,69,72
33270,note_on,,1,0,11,,,,,,,,,,,,,,,,10,,81,72
33299,note_on,,29,0,11,,,,,,,,,,,,,,,,10,,81,0
33299,note_on,,59,0,9,,,,,,,,,,,,,,,,7,,62,0
33299,note_on,,29,0,7,,,,,,,,,,,,,,,,5,,69,0
33299,note_on,,29,0,5,,,,,,,,,,,,,,,,1,,69,0
33299,note_on,,59,0,15,,,,,,,,,,,,,,,,15,,58,0
33299,note_on,,59,0,14,,,,,,,,,,,,,,,,13,,58,0
33299,note_on,,59,0,10,,,,,,,,,,,,,,,,8,,58,0
33299,note_on,,59,0,6,,,,,,,,,,,,,,,,2,,58,0
33299,note_on,,59,0,13,,,,,,,,,,,,,,,,12,,62,0
33299,note_on,,29,0,8,,,,,,,,,,,,,,,,6,,65,0
33299,note_on,,29,0,12,,,,,,,,,,,,,,,,11,,77,0
33300,note_on,,1,0,14,,,,,,,,,,,,,,,,13,,53,72
33300,note_on,,1,0,8,,,,,,,,,,,,,,,,6,,67,72
33300,note_on,,1,0,7,,,,,,,,,,,,,,,,5,,70,72
33300,note_on,,1,0,9,,,,,,,,,,,,,,,,7,,60,72
33300,note_on,,1,0,5,,,,,,,,,,,,,,,,1,,70,72
33300,note_on,,1,0,15,,,,,,,,,,,,,,,,15,,53,72
33300,note_on,,1,0,13,,,,,,,,,,,,,,,,12,,60,72
33300,note_on,,1,0,12,,,,,,,,,,,,,,,,11,,79,72
33300,note_on,,1,0,6,,,,,,,,,,,,,,,,2,,53,72
33300,note_on,,0,0,15,,,,,,,,,,,,,,,,15,,70,72
33300,note_on,,1,0,10,,,,,,,,,,,,,,,,8,,53,72
33300,note_on,,1,0,11,,,,,,,,,,,,,,,,10,,82,72
33329,note_on,,29,0,8,,,,,,,,,,,,,,,,6,,67,0
33329,note_on,,29,0,5,,,,,,,,,,,,,,,,1,,70,0
33329,note_on,,29,0,7,,,,,,,,,,,,,,,,5,,70,0
33329,note_on,,29,0,15,,,,,,,,,,,,,,,,15,,70,0
33329,note_on,,29,0,11,,,,,,,,,,,,,,,,10,,82,0
33329,note_on,,29,0,12,,,,,,,,,,,,,,,,11,,79,0
33330,note_on,,1,0,11,,,,,,,,,,,,,,,,10,,81,72
33330,note_on,,1,0,12,,,,,,,,,,,,,,,,11,,77,72
33330,note_on,,1,0,7,,,,,,,,,,,,,,,,5,,69,72
33330,note_on,,1,0,5,,,,,,,,,,,,,,,,1,,69,72
33330,note_on,,1,0,8,,,,,,,,,,,,,,,,6,,65,72
33330,note_on,,1,0,15,,,,,,,,,,,,,,,,15,,69,72
33359,note_on,,29,0,7,,,,,,,,,,,,,,,,5,,69,0
33359,note_on,,59,0,6,,,,,,,,,,,,,,,,2,,53,0
33359,note_on,,29,0,12,,,,,,,,,,,,,,,,11,,77,0
33359,note_on,,59,0,10,,,,,,,,,,,,,,,,8,,53,0
33359,note_on,,29,0,5,,,,,,,,,,,,,,,,1,,69,0
33359,note_on,,0,0,15,,,,,,,,,,,,,,,,15,,69,0
33359,note_on,,0,0,15,,,,,,,,,,,,,,,,15,,53,0
33359,note_on,,29,0,15,,,,,,,,,,,,,,,,15,,62,0
33359,note_on,,59,0,14,,,,,,,,,,,,,,,,13,,53,0
33359,note_on,,29,0,8,,,,,,,,,,,,,,,,6,,65,0
33359,note_on,,59,0,9,,,,,,,,,,,,,,,,7,,60,0
33359,note_on,,29,0,11,,,,,,,,,,,,,,,,10,,81,0
33359,note_on,,59,0,13,,,,,,,,,,,,,,,,12,,60,0
33360,note_on,,1,0,12,,,,,,,,,,,,,,,,11,,76,72
33360,note_on,,1,0,15,,,,,,,,,,,,,,,,15,,48,72
33360,note_on,,1,0,6,,,,,,,,,,,,,,,,2,,48,72
33360,note_on,,1,0,8,,,,,,,,,,,,,,,,6,,64,72
33360,note_on,,1,0,11,,,,,,,,,,,,,,,,10,,79,72
33360,note_on,,0,0,15,,,,,,,,,,,,,,,,15,,64,72
33360,note_on,,0,0,15,,,,,,,,,,,,,,,,15,,55,72
33360,note_on,,0,0,15,,,,,,,,,,,,,,,,15,,67,72
33360,note_on,,1,0,14,,,,,,,,,,,,,,,,13,,48,72
33360,note_on,,1,0,5,,,,,,,,,,,,,,,,1,,67,72
33360,note_on,,1,0,7,,,,,,,,,,,,,,,,5,,67,72
33360,note_on,,1,0,13,,,,,,,,,,,,,,,,12,,60,72
33360,note_on,,1,0,10,,,,,,,,,,,,,,,,8,,48,72
33360,note_on,,1,0,9,,,,,,,,,,,,,,,,7,,60,72
33419,note_on,,59,0,5,,,,,,,,,,,,,,,,1,,67,0
33419,note_on,,59,0,8,,,,,,,,,,,,,,,,6,,64,0
33419,note_on,,59,0,6,,,,,,,,,,,,,,,,2,,48,0
33419,note_on,,59,0,15,,,,,,,,,,,,,,,,15,,48,0
33419,note_on,,59,0,12,,,,,,,,,,,,,,,,11,,76,0
33419,note_on,,59,0,7,,,,,,,,,,,,,,,,5,,67,0
33419,note_on,,59,0,14,,,,,,,,,,,,,,,,13,,48,0
33419,note_on,,59,0,11,,,,,,,,,,,,,,,,10,,79,0
33420,note_on,,1,0,15,,,,,,,,,,,,,,,,15,,46,72
33420,note_on,,1,0,7,,,,,,,,,,,,,,,,5,,67,72
33420,note_on,,1,0,6,,,,,,,,,,,,,,,,2,,46,72
33420,note_on,,1,0,8,,,,,,,,,,,,,,,,6,,64,72
33420,note_on,,1,0,12,,,,,,,,,,,,,,,,11,,76,72
33420,note_on,,1,0,5,,,,,,,,,,,,,,,,1,,67,72
33420,note_on,,1,0,14,,,,,,,,,,,,,,,,13,,46,72
33420,note_on,,1,0,11,,,,,,,,,,,,,,,,10,,79,72
33479,note_on,,59,0,14,,,,,,,,,,,,,,,,13,,46,0
33479,note_on,,0,0,15,,,,,,,,,,,,,,,,15,,55,0
33479,note_on,,59,0,6,,,,,,,,,,,,,,,,2,,46,0
33479,note_on,,59,0,5,,,,,,,,,,,,,,,,1,,67,0
33479,note_on,,59,0,7,,,,,,,,,,,,,,,,5,,67,0
33479,note_on,,59,0,11,,,,,,,,,,,,,,,,10,,79,0
33479,note_on,,59,0,15,,,,,,,,,,,,,,,,15,,67,0
33479,note_on,,59,0,12,,,,,,,,,,,,,,,,11,,76,0
33479,note_on,,119,0,9,,,,,,,,,,,,,,,,7,,60,0
33479,note_on,,119,0,13,,,,,,,,,,,,,,,,12,,60,0
33479,note_on,,59,0,8,,,,,,,,,,,,,,,,6,,64,0
33479,note_on,,119,0,10,,,,,,,,,,,,,,,,8,,48,0
33479,note_on,,0,0,15,,,,,,,,,,,,,,,,15,,64,0
33479,note_on,,0,0,15,,,,,,,,,,,,,,,,15,,46,0
33480,note_on,,1,0,13,,,,,,,,,,,,,,,,12,,60,72
33480,note_on,,1,0,6,,,,,,,,,,,,,,,,2,,45,72
33480,note_on,,1,0,12,,,,,,,,,,,,,,,,11,,60,72
33480,note_on,,1,0,14,,,,,,,,,,,,,,,,13,,45,72
33480,note_on,,1,0,15,,,,,,,,,,,,,,,,15,,45,72
33480,note_on,,0,0,15,,,,,,,,,,,,,,,,15,,53,72
33480,note_on,,0,0,15,,,,,,,,,,,,,,,,15,,60,72
33480,note_on,,1,0,9,,,,,,,,,,,,,,,,7,,60,72
33539,note_on,,59,0,13,,,,,,,,,,,,,,,,12,,60,0
33539,note_on,,59,0,12,,,,,,,,,,,,,,,,11,,60,0
33539,note_on,,59,0,14,,,,,,,,,,,,,,,,13,,45,0
33539,note_on,,0,0,15,,,,,,,,,,,,,,,,15,,60,0
33539,note_on,,59,0,15,,,,,,,,,,,,,,,,15,,45,0
33539,note_on,,59,0,9,,,,,,,,,,,,,,,,7,,60,0
33539,note_on,,59,0,6,,,,,,,,,,,,,,,,2,,45,0
33540,note_on,,1,0,12,,,,,,,,,,,,,,,,11,,62,72
33540,note_on,,1,0,9,,,,,,,,,,,,,,,,7,,62,72
33540,note_on,,1,0,15,,,,,,,,,,,,,,,,15,,41,72
33540,note_on,,1,0,14,,,,,,,,,,,,,,,,13,,41,72
33540,note_on,,1,0,6,,,,,,,,,,,,,,,,2,,41,72
33540,note_on,,1,0,13,,,,,,,,,,,,,,,,12,,62,72
33540,note_on,,0,0,15,,,,,,,,,,,,,,,,15,,62,72
33599,note_on,,59,0,9,,,,,,,,,,,,,,,,7,,62,0
33599,note_on,,0,0,15,,,,,,,,,,,,,,,,15,,41,0
33599,note_on,,0,0,15,,,,,,,,,,,,,,,,15,,62,0
33599,note_on,,59,0,15,,,,,,,,,,,,,,,,15,,53,0
33599,note_on,,59,0,13,,,,,,,,,,,,,,,,12,,62,0
33599,note_on,,59,0,12,,,,,,,,,,,,,,,,11,,62,0
33599,note_on,,59,0,6,,,,,,,,,,,,,,,,2,,41,0
33599,note_on,,59,0,14,,,,,,,,,,,,,,,,13,,41,0
33600,note_on,,1,0,13,,,,,,,,,,,,,,,,12,,64,72
33600,note_on,,0,0,15,,,,,,,,,,,,,,,,15,,55,72
33600,note_on,,0,0,15,,,,,,,,,,,,,,,,15,,64,72
33600,note_on,,1,0,15,,,,,,,,,,,,,,,,15,,48,72
33600,note_on,,1,0,6,,,,,,,,,,,,,,,,2,,48,72
33600,note_on,,1,0,14,,,,,,,,,,,,,,,,13,,48,72
33600,note_on,,1,0,9,,,,,,,,,,,,,,,,7,,64,72
33600,note_on,,1,0,12,,,,,,,,,,,,,,,,11,,64,72
33659,note_on,,59,0,13,,,,,,,,,,,,,,,,12,,64,0
33659,note_on,,59,0,9,,,,,,,,,,,,,,,,7,,64,0
33659,note_on,,59,0,14,,,,,,,,,,,,,,,,13,,48,0
33659,note_on,,0,0,15,,,,,,,,,,,,,,,,15,,64,0
33659,note_on,,0,0,15,,,,,,,,,,,,,,,,15,,55,0
33659,note_on,,59,0,12,,,,,,,,,,,,,,,,11,,64,0
33659,note_on,,59,0,6,,,,,,,,,,,,,,,,2,,48,0
33659,note_on,,59,0,15,,,,,,,,,,,,,,,,15,,48,0
33660,note_on,,1,0,6,,,,,,,,,,,,,,,,2,,45,72
33660,note_on,,1,0,13,,,,,,,,,,,,,,,,12,,60,72
33660,note_on,,1,0,12,,,,,,,,,,,,,,,,11,,60,72
33660,note_on,,1,0,14,,,,,,,,,,,,,,,,13,,45,72
33660,note_on,,1,0,9,,,,,,,,,,,,,,,,7,,60,72
33660,note_on,,1,0,15,,,,,,,,,,,,,,,,15,,45,72
33660,note_on,,0,0,15,,,,,,,,,,,,,,,,15,,60,72
33660,note_on,,0,0,15,,,,,,,,,,,,,,,,15,,57,72
33719,note_on,,59,0,12,,,,,,,,,,,,,,,,11,,60,0
33719,note_on,,59,0,6,,,,,,,,,,,,,,,,2,,45,0
33719,note_on,,0,0,15,,,,,,,,,,,,,,,,15,,57,0
33719,note_on,,59,0,15,,,,,,,,,,,,,,,,15,,45,0
33719,note_on,,0,0,15,,,,,,,,,,,,,,,,15,,60,0
33719,note_on,,59,0,9,,,,,,,,,,,,,,,,7,,60,0
33719,note_on,,59,0,13,,,,,,,,,,,,,,,,12,,60,0
33719,note_on,,59,0,14,,,,,,,,,,,,,,,,13,,45,0
33720,note_on,,1,0,14,,,,,,,,,,,,,,,,13,,50,72
33720,note_on,,1,0,15,,,,,,,,,,,,,,,,15,,50,72
33720,note_on,,0,0,15,,,,,,,,,,,,,,,,15,,53,72
33720,note_on,,0,0,15,,,,,,,,,,,,,,,,15,,65,72
33720,note_on,,1,0,6,,,,,,,,,,,,,,,,2,,50,72
33720,note_on,,241,0,8,,,,,,,,,,,,,,,,6,,65,72
33720,note_on,,241,0,11,,,,,,,,,,,,,,,,10,,65,72
33779,note_on,,59,0,11,,,,,,,,,,,,,,,,10,,65,0
33779,note_on,,59,0,15,,,,,,,,,,,,,,,,15,,50,0
33779,note_on,,0,0,15,,,,,,,,,,,,,,,,15,,53,0
33779,note_on,,0,0,15,,,,,,,,,,,,,,,,15,,65,0
33779,note_on,,59,0,14,,,,,,,,,,,,,,,,13,,50,0
33779,note_on,,59,0,6,,,,,,,,,,,,,,,,2,,50,0
33779,note_on,,59,0,8,,,,,,,,,,,,,,,,6,,65,0
33780,note_on,,1,0,14,,,,,,,,,,,,,,,,13,,52,72
33780,note_on,,1,0,15,,,,,,,,,,,,,,,,15,,52,72
33780,note_on,,0,0,15,,,,,,,,,,,,,,,,15,,67,72
33780,note_on,,0,0,15,,,,,,,,,,,,,,,,15,,60,72
33780,note_on,,1,0,8,,,,,,,,,,,,,,,,6,,67,72
33780,note_on,,1,0,6,,,,,,,,,,,,,,,,2,,52,72
33780,note_on,,1,0,11,,,,,,,,,,,,,,,,10,,67,72
33839,note_on,,59,0,8,,,,,,,,,,,,,,,,6,,67,0
33839,note_on,,59,0,14,,,,,,,,,,,,,,,,13,,52,0
33839,note_on,,59,0,6,,,,,,,,,,,,,,,,2,,52,0
33839,note_on,,59,0,11,,,,,,,,,,,,,,,,10,,67,0
33839,note_on,,59,0,15,,,,,,,,,,,,,,,,15,,52,0
33839,note_on,,0,0,15,,,,,,,,,,,,,,,,15,,67,0
33839,note_on,,0,0,15,,,,,,,,,,,,,,,,15,,60,0
33840,note_on,,0,0,15,,,,,,,,,,,,,,,,15,,60,72
33840,note_on,,1,0,14,,,,,,,,,,,,,,,,13,,53,72
33840,note_on,,0,0,15,,,,,,,,,,,,,,,,15,,69,72
33840,note_on,,1,0,6,,,,,,,,,,,,,,,,2,,53,72
33840,note_on,,1,0,11,,,,,,,,,,,,,,,,10,,69,72
33840,note_on,,1,0,8,,,,,,,,,,,,,,,,6,,69,72
33840,note_on,,1,0,15,,,,,,,,,,,,,,,,15,,53,72
33899,note_on,,59,0,11,,,,,,,,,,,,,,,,10,,69,0
33899,note_on,,59,0,14,,,,,,,,,,,,,,,,13,,53,0
33899,note_on,,0,0,15,,,,,,,,,,,,,,,,15,,69,0
33899,note_on,,59,0,6,,,,,,,,,,,,,,,,2,,53,0
33899,note_on,,59,0,15,,,,,,,,,,,,,,,,15,,53,0
33899,note_on,,59,0,8,,,,,,,,,,,,,,,,6,,69,0
33900,note_on,,1,0,14,,,,,,,,,,,,,,,,13,,41,72
33900,note_on,,1,0,15,,,,,,,,,,,,,,,,15,,41,72
33900,note_on,,1,0,11,,,,,,,,,,,,,,,,10,,65,72
33900,note_on,,0,0,15,,,,,,,,,,,,,,,,15,,65,72
33900,note_on,,1,0,6,,,,,,,,,,,,,,,,2,,41,72
33900,note_on,,1,0,8,,,,,,,,,,,,,,,,6,,65,72
33959,note_on,,59,0,8,,,,,,,,,,,,,,,,6,,65,0
33959,note_on,,59,0,14,,,,,,,,,,,,,,,,13,,41,0
33959,note_on,,59,0,6,,,,,,,,,,,,,,,,2,,41,0
33959,note_on,,59,0,11,,,,,,,,,,,,,,,,10,,65,0
33959,note_on,,59,0,15,,,,,,,,,,,,,,,,15,,60,0
33959,note_on,,0,0,15,,,,,,,,,,,,,,,,15,,41,0
33959,note_on,,0,0,15,,,,,,,,,,,,,,,,15,,65,0
33960,note_on,,481,0,10,,,,,,,,,,,,,,,,8,,53,72
33960,note_on,,241,0,13,,,,,,,,,,,,,,,,12,,69,72
33960,note_on,,1,0,14,,,,,,,,,,,,,,,,13,,53,72
33960,note_on,,1,0,6,,,,,,,,,,,,,,,,2,,53,72
33960,note_on,,0,0,15,,,,,,,,,,,,,,,,15,,60,72
33960,note_on,,0,0,15,,,,,,,,,,,,,,,,15,,65,72
33960,note_on,,1,0,15,,,,,,,,,,,,,,,,15,,53,72
33960,note_on,,481,0,7,,,,,,,,,,,,,,,,5,,69,72
33960,note_on,,481,0,5,,,,,,,,,,,,,,,,1,,69,72
33960,note_on,,241,0,12,,,,,,,,,,,,,,,,11,,69,72
33960,note_on,,0,0,15,,,,,,,,,,,,,,,,15,,69,72
34019,note_on,,59,0,5,,,,,,,,,,,,,,,,1,,69,0
34019,note_on,,59,0,14,,,,,,,,,,,,,,,,13,,53,0
34019,note_on,,59,0,12,,,,,,,,,,,,,,,,11,,69,0
34019,note_on,,59,0,10,,,,,,,,,,,,,,,,8,,53,0
34019,note_on,,59,0,6,,,,,,,,,,,,,,,,2,,53,0
34019,note_on,,0,0,15,,,,,,,,,,,,,,,,15,,60,0
34019,note_on,,59,0,7,,,,,,,,,,,,,,,,5,,69,0
34019,note_on,,0,0,15,,,,,,,,,,,,,,,,15,,69,0
34019,note_on,,59,0,15,,,,,,,,,,,,,,,,15,,53,0
34019,note_on,,59,0,13,,,,,,,,,,,,,,,,12,,69,0
34019,note_on,,0,0,15,,,,,,,,,,,,,,,,15,,65,0
34020,note_on,,1,0,15,,,,,,,,,,,,,,,,15,,55,72
34020,note_on,,1,0,10,,,,,,,,,,,,,,,,8,,55,72
34020,note_on,,0,0,15,,,,,,,,,,,,,,,,15,,58,72
34020,note_on,,0,0,15,,,,,,,,,,,,,,,,15,,67,72
34020,note_on,,1,0,14,,,,,,,,,,,,,,,,13,,55,72
34020,note_on,,0,0,15,,,,,,,,,,,,,,,,15,,64,72
34020,note_on,,1,0,13,,,,,,,,,,,,,,,,12,,70,72
34020,note_on,,1,0,12,,,,,,,,,,,,,,,,11,,70,72
34020,note_on,,1,0,5,,,,,,,,,,,,,,,,1,,70,72
34020,note_on,,1,0,6,,,,,,,,,,,,,,,,2,,55,72
34020,note_on,,1,0,7,,,,,,,,,,,,,,,,5,,70,72
34079,note_on,,0,0,15,,,,,,,,,,,,,,,,15,,58,0
34079,note_on,,59,0,13,,,,,,,,,,,,,,,,12,,70,0
34079,note_on,,59,0,15,,,,,,,,,,,,,,,,15,,55,0
34079,note_on,,59,0,6,,,,,,,,,,,,,,,,2,,55,0
34079,note_on,,0,0,15,,,,,,,,,,,,,,,,15,,67,0
34079,note_on,,0,0,15,,,,,,,,,,,,,,,,15,,64,0
34079,note_on,,59,0,7,,,,,,,,,,,,,,,,5,,70,0
34079,note_on,,59,0,10,,,,,,,,,,,,,,,,8,,55,0
34079,note_on,,59,0,12,,,,,,,,,,,,,,,,11,,70,0
34079,note_on,,59,0,5,,,,,,,,,,,,,,,,1,,70,0
34079,note_on,,59,0,14,,,,,,,,,,,,,,,,13,,55,0
34080,note_on,,1,0,6,,,,,,,,,,,,,,,,2,,57,72
34080,note_on,,1,0,10,,,,,,,,,,,,,,,,8,,57,72
34080,note_on,,1,0,7,,,,,,,,,,,,,,,,5,,72,72
34080,note_on,,1,0,14,,,,,,,,,,,,,,,,13,,57,72
34080,note_on,,1,0,5,,,,,,,,,,,,,,,,1,,72,72
34080,note_on,,1,0,15,,,,,,,,,,,,,,,,15,,60,72
34080,note_on,,0,0,15,,,,,,,,,,,,,,,,15,,57,72
34080,note_on,,0,0,15,,,,,,,,,,,,,,,,15,,65,72
34080,note_on,,1,0,12,,,,,,,,,,,,,,,,11,,72,72
34080,note_on,,1,0,13,,,,,,,,,,,,,,,,12,,72,72
34139,note_on,,59,0,7,,,,,,,,,,,,,,,,5,,72,0
34139,note_on,,59,0,13,,,,,,,,,,,,,,,,12,,72,0
34139,note_on,,0,0,15,,,,,,,,,,,,,,,,15,,65,0
34139,note_on,,59,0,14,,,,,,,,,,,,,,,,13,,57,0
34139,note_on,,0,0,15,,,,,,,,,,,,,,,,15,,57,0
34139,note_on,,59,0,15,,,,,,,,,,,,,,,,15,,60,0
34139,note_on,,59,0,12,,,,,,,,,,,,,,,,11,,72,0
34139,note_on,,59,0,5,,,,,,,,,,,,,,,,1,,72,0
34139,note_on,,59,0,10,,,,,,,,,,,,,,,,8,,57,0
34139,note_on,,59,0,6,,,,,,,,,,,,,,,,2,,57,0
34140,note_on,,0,0,15,,,,,,,,,,,,,,,,15,,60,72
34140,note_on,,1,0,14,,,,,,,,,,,,,,,,13,,53,72
34140,note_on,,1,0,6,,,,,,,,,,,,,,,,2,,53,72
34140,note_on,,1,0,5,,,,,,,,,,,,,,,,1,,69,72
34140,note_on,,1,0,15,,,,,,,,,,,,,,,,15,,53,72
34140,note_on,,1,0,13,,,,,,,,,,,,,,,,12,,69,72
34140,note_on,,1,0,7,,,,,,,,,,,,,,,,5,,69,72
34140,note_on,,1,0,10,,,,,,,,,,,,,,,,8,,53,72
34140,note_on,,1,0,12,,,,,,,,,,,,,,,,11,,69,72
34140,note_on,,0,0,15,,,,,,,,,,,,,,,,15,,69,72
34140,note_on,,0,0,15,,,,,,,,,,,,,,,,15,,65,72
34199,note_on,,59,0,6,,,,,,,,,,,,,,,,2,,53,0
34199,note_on,,59,0,12,,,,,,,,,,,,,,,,11,,69,0
34199,note_on,,59,0,10,,,,,,,,,,,,,,,,8,,53,0
34199,note_on,,59,0,7,,,,,,,,,,,,,,,,5,,69,0
34199,note_on,,59,0,14,,,,,,,,,,,,,,,,13,,53,0
34199,note_on,,59,0,13,,,,,,,,,,,,,,,,12,,69,0
34199,note_on,,0,0,15,,,,,,,,,,,,,,,,15,,60,0
34199,note_on,,0,0,15,,,,,,,,,,,,,,,,15,,65,0
34199,note_on,,0,0,15,,,,,,,,,,,,,,,,15,,69,0
34199,note_on,,59,0,15,,,,,,,,,,,,,,,,15,,53,0
34199,note_on,,59,0,5,,,,,,,,,,,,,,,,1,,69,0
34200,note_on,,1,0,5,,,,,,,,,,,,,,,,1,,72,72
34200,note_on,,0,0,15,,,,,,,,,,,,,,,,15,,65,72
34200,note_on,,0,0,15,,,,,,,,,,,,,,,,15,,72,72
34200,note_on,,1,0,15,,,,,,,,,,,,,,,,15,,57,72
34200,note_on,,1,0,12,,,,,,,,,,,,,,,,11,,69,72
34200,note_on,,481,0,9,,,,,,,,,,,,,,,,7,,65,72
34200,note_on,,1,0,7,,,,,,,,,,,,,,,,5,,72,72
34200,note_on,,241,0,11,,,,,,,,,,,,,,,,10,,72,72
34200,note_on,,1,0,10,,,,,,,,,,,,,,,,8,,57,72
34200,note_on,,1,0,14,,,,,,,,,,,,,,,,13,,57,72
34200,note_on,,1,0,13,,,,,,,,,,,,,,,,12,,65,72
34200,note_on,,241,0,8,,,,,,,,,,,,,,,,6,,69,72
34200,note_on,,1,0,6,,,,,,,,,,,,,,,,2,,57,72
34259,note_on,,59,0,5,,,,,,,,,,,,,,,,1,,72,0
34259,note_on,,0,0,15,,,,,,,,,,,,,,,,15,,65,0
34259,note_on,,0,0,15,,,,,,,,,,,,,,,,15,,72,0
34259,note_on,,59,0,15,,,,,,,,,,,,,,,,15,,57,0
34259,note_on,,59,0,14,,,,,,,,,,,,,,,,13,,57,0
34259,note_on,,59,0,6,,,,,,,,,,,,,,,,2,,57,0
34259,note_on,,59,0,12,,,,,,,,,,,,,,,,11,,69,0
34259,note_on,,59,0,8,,,,,,,,,,,,,,,,6,,69,0
34259,note_on,,59,0,7,,,,,,,,,,,,,,,,5,,72,0
34259,note_on,,59,0,11,,,,,,,,,,,,,,,,10,,72,0
34259,note_on,,59,0,13,,,,,,,,,,,,,,,,12,,65,0
34259,note_on,,59,0,9,,,,,,,,,,,,,,,,7,,65,0
34259,note_on,,59,0,10,,,,,,,,,,,,,,,,8,,57,0
34260,note_on,,1,0,8,,,,,,,,,,,,,,,,6,,69,72
34260,note_on,,1,0,9,,,,,,,,,,,,,,,,7,,65,72
34260,note_on,,1,0,13,,,,,,,,,,,,,,,,12,,65,72
34260,note_on,,1,0,5,,,,,,,,,,,,,,,,1,,74,72
34260,note_on,,0,0,15,,,,,,,,,,,,,,,,15,,74,72
34260,note_on,,1,0,10,,,,,,,,,,,,,,,,8,,58,72
34260,note_on,,0,0,15,,,,,,,,,,,,,,,,15,,65,72
34260,note_on,,1,0,11,,,,,,,,,,,,,,,,10,,76,72
34260,note_on,,0,0,15,,,,,,,,,,,,,,,,15,,70,72
34260,note_on,,1,0,12,,,,,,,,,,,,,,,,11,,69,72
34260,note_on,,1,0,6,,,,,,,,,,,,,,,,2,,58,72
34260,note_on,,1,0,7,,,,,,,,,,,,,,,,5,,74,72
34260,note_on,,1,0,15,,,,,,,,,,,,,,,,15,,58,72
34260,note_on,,1,0,14,,,,,,,,,,,,,,,,13,,58,72
34319,note_on,,0,0,15,,,,,,,,,,,,,,,,15,,65,0
34319,note_on,,59,0,9,,,,,,,,,,,,,,,,7,,65,0
34319,note_on,,59,0,8,,,,,,,,,,,,,,,,6,,69,0
34319,note_on,,59,0,6,,,,,,,,,,,,,,,,2,,58,0
34319,note_on,,0,0,15,,,,,,,,,,,,,,,,15,,70,0
34319,note_on,,0,0,15,,,,,,,,,,,,,,,,15,,74,0
34319,note_on,,59,0,7,,,,,,,,,,,,,,,,5,,74,0
34319,note_on,,59,0,12,,,,,,,,,,,,,,,,11,,69,0
34319,note_on,,59,0,14,,,,,,,,,,,,,,,,13,,58,0
34319,note_on,,59,0,15,,,,,,,,,,,,,,,,15,,58,0
34319,note_on,,59,0,13,,,,,,,,,,,,,,,,12,,65,0
34319,note_on,,59,0,11,,,,,,,,,,,,,,,,10,,76,0
34319,note_on,,59,0,10,,,,,,,,,,,,,,,,8,,58,0
34319,note_on,,59,0,5,,,,,,,,,,,,,,,,1,,74,0
34320,note_on,,1,0,13,,,,,,,,,,,,,,,,12,,64,72
34320,note_on,,1,0,11,,,,,,,,,,,,,,,,10,,76,72
34320,note_on,,1,0,9,,,,,,,,,,,,,,,,7,,64,72
34320,note_on,,1,0,5,,,,,,,,,,,,,,,,1,,76,72
34320,note_on,,1,0,12,,,,,,,,,,,,,,,,11,,67,72
34320,note_on,,1,0,7,,,,,,,,,,,,,,,,5,,76,72
34320,note_on,,1,0,6,,,,,,,,,,,,,,,,2,,60,72
34320,note_on,,0,0,15,,,,,,,,,,,,,,,,15,,67,72
34320,note_on,,1,0,15,,,,,,,,,,,,,,,,15,,60,72
34320,note_on,,1,0,14,,,,,,,,,,,,,,,,13,,60,72
34320,note_on,,1,0,10,,,,,,,,,,,,,,,,8,,60,72
34320,note_on,,1,0,8,,,,,,,,,,,,,,,,6,,67,72
34320,note_on,,0,0,15,,,,,,,,,,,,,,,,15,,64,72
34409,note_on,,89,0,11,,,,,,,,,,,,,,,,10,,76,0
34409,note_on,,89,0,12,,,,,,,,,,,,,,,,11,,67,0
34409,note_on,,89,0,13,,,,,,,,,,,,,,,,12,,64,0
34439,note_on,,119,0,15,,,,,,,,,,,,,,,,15,,60,0
34439,note_on,,119,0,7,,,,,,,,,,,,,,,,5,,76,0
34439,note_on,,119,0,6,,,,,,,,,,,,,,,,2,,60,0
34439,note_on,,119,0,9,,,,,,,,,,,,,,,,7,,64,0
34439,note_on,,119,0,14,,,,,,,,,,,,,,,,13,,60,0
34439,note_on,,119,0,8,,,,,,,,,,,,,,,,6,,67,0
34439,note_on,,0,0,15,,,,,,,,,,,,,,,,15,,67,0
34439,note_on,,119,0,10,,,,,,,,,,,,,,,,8,,60,0
34439,note_on,,0,0,15,,,,,,,,,,,,,,,,15,,64,0
34439,note_on,,119,0,5,,,,,,,,,,,,,,,,1,,76,0
34440,note_on,,0,0,15,,,,,,,,,,,,,,,,15,,65,72
34440,note_on,,1,0,8,,,,,,,,,,,,,,,,6,,69,72
34440,note_on,,31,0,12,,,,,,,,,,,,,,,,11,,67,72
34440,note_on,,1,0,7,,,,,,,,,,,,,,,,5,,77,72
34440,note_on,,1,0,15,,,,,,,,,,,,,,,,15,,53,72
34440,note_on,,0,0,15,,,,,,,,,,,,,,,,15,,69,72
34440,note_on,,1,0,10,,,,,,,,,,,,,,,,8,,53,72
34440,note_on,,1,0,9,,,,,,,,,,,,,,,,7,,60,72
34440,note_on,,1,0,5,,,,,,,,,,,,,,,,1,,77,72
34440,note_on,,1,0,14,,,,,,,,,,,,,,,,13,,53,72
34440,note_on,,0,0,15,,,,,,,,,,,,,,,,15,,60,72
34440,note_on,,31,0,13,,,,,,,,,,,,,,,,12,,60,72
34440,note_on,,31,0,11,,,,,,,,,,,,,,,,10,,77,72
34440,note_on,,1,0,6,,,,,,,,,,,,,,,,2,,53,72
34529,note_on,,89,0,13,,,,,,,,,,,,,,,,12,,60,0
34529,note_on,,89,0,12,,,,,,,,,,,,,,,,11,,67,0
34529,note_on,,89,0,11,,,,,,,,,,,,,,,,10,,77,0
34559,note_on,,119,0,5,,,,,,,,,,,,,,,,1,,77,0
34559,note_on,,119,0,7,,,,,,,,,,,,,,,,5,,77,0
34559,note_on,,119,0,8,,,,,,,,,,,,,,,,6,,69,0
34559,note_on,,0,0,15,,,,,,,,,,,,,,,,15,,69,0
34559,note_on,,119,0,9,,,,,,,,,,,,,,,,7,,60,0
34559,note_on,,119,0,10,,,,,,,,,,,,,,,,8,,53,0
34559,note_on,,0,0,15,,,,,,,,,,,,,,,,15,,65,0
34559,note_on,,119,0,15,,,,,,,,,,,,,,,,15,,53,0
34559,note_on,,119,0,6,,,,,,,,,,,,,,,,2,,53,0
34559,note_on,,119,0,14,,,,,,,,,,,,,,,,13,,53,0
34559,note_on,,0,0,15,,,,,,,,,,,,,,,,15,,60,0
34560,note_on,,1,0,8,,,,,,,,,,,,,,,,6,,67,72
34560,note_on,,1,0,6,,,,,,,,,,,,,,,,2,,48,72
34560,note_on,,1,0,14,,,,,,,,,,,,,,,,13,,48,72
34560,note_on,,1,0,7,,,,,,,,,,,,,,,,5,,77,72
34560,note_on,,1,0,15,,,,,,,,,,,,,,,,15,,48,72
34560,note_on,,0,0,15,,,,,,,,,,,,,,,,15,,72,72
34560,note_on,,0,0,15,,,,,,,,,,,,,,,,15,,67,72
34560,note_on,,0,0,15,,,,,,,,,,,,,,,,15,,65,72
34560,note_on,,1,0,10,,,,,,,,,,,,,,,,8,,60,72
34560,note_on,,31,0,12,,,,,,,,,,,,,,,,11,,67,72
34560,note_on,,1,0,5,,,,,,,,,,,,,,,,1,,77,72
34560,note_on,,31,0,13,,,,,,,,,,,,,,,,12,,60,72
34560,note_on,,1,0,9,,,,,,,,,,,,,,,,7,,60,72
34560,note_on,,31,0,11,,,,,,,,,,,,,,,,10,,77,72
34649,note_on,,89,0,11,,,,,,,,,,,,,,,,10,,77,0
34649,note_on,,89,0,13,,,,,,,,,,,,,,,,12,,60,0
34649,note_on,,89,0,12,,,,,,,,,,,,,,,,11,,67,0
34679,note_on,,119,0,5,,,,,,,,,,,,,,,,1,,77,0
34679,note_on,,0,0,15,,,,,,,,,,,,,,,,15,,65,0
34679,note_on,,119,0,10,,,,,,,,,,,,,,,,8,,60,0
34679,note_on,,119,0,7,,,,,,,,,,,,,,,,5,,77,0
34679,note_on,,119,0,15,,,,,,,,,,,,,,,,15,,67,0
34679,note_on,,119,0,9,,,,,,,,,,,,,,,,7,,60,0
34679,note_on,,119,0,8,,,,,,,,,,,,,,,,6,,67,0
34680,note_on,,1,0,7,,,,,,,,,,,,,,,,5,,76,72
34680,note_on,,31,0,12,,,,,,,,,,,,,,,,11,,67,72
34680,note_on,,1,0,5,,,,,,,,,,,,,,,,1,,76,72
34680,note_on,,31,0,11,,,,,,,,,,,,,,,,10,,76,72
34680,note_on,,0,0,15,,,,,,,,,,,,,,,,15,,64,72
34680,note_on,,1,0,9,,,,,,,,,,,,,,,,7,,60,72
34680,note_on,,1,0,10,,,,,,,,,,,,,,,,8,,60,72
34680,note_on,,31,0,13,,,,,,,,,,,,,,,,12,,60,72
34680,note_on,,1,0,8,,,,,,,,,,,,,,,,6,,67,72
34680,note_on,,1,0,15,,,,,,,,,,,,,,,,15,,67,72
34769,note_on,,89,0,13,,,,,,,,,,,,,,,,12,,60,0
34769,note_on,,89,0,12,,,,,,,,,,,,,,,,11,,67,0
34769,note_on,,89,0,11,,,,,,,,,,,,,,,,10,,76,0
34799,note_on,,119,0,9,,,,,,,,,,,,,,,,7,,60,0
34799,note_on,,239,0,6,,,,,,,,,,,,,,,,2,,48,0
34799,note_on,,119,0,15,,,,,,,,,,,,,,,,15,,48,0
34799,note_on,,0,0,15,,,,,,,,,,,,,,,,15,,64,0
34799,note_on,,119,0,5,,,,,,,,,,,,,,,,1,,76,0
34799,note_on,,119,0,10,,,,,,,,,,,,,,,,8,,60,0
34799,note_on,,119,0,8,,,,,,,,,,,,,,,,6,,67,0
34799,note_on,,119,0,7,,,,,,,,,,,,,,,,5,,76,0
34799,note_on,,0,0,15,,,,,,,,,,,,,,,,15,,67,0
34799,note_on,,0,0,15,,,,,,,,,,,,,,,,15,,72,0
34799,note_on,,239,0,14,,,,,,,,,,,,,,,,13,,48,0
34800,note_on,,0,0,15,,,,,,,,,,,,,,,,15,,72,72
34800,note_on,,0,0,15,,,,,,,,,,,,,,,,15,,65,72
34800,note_on,,1,0,14,,,,,,,,,,,,,,,,13,,53,72
34800,note_on,,1,0,10,,,,,,,,,,,,,,,,8,,53,72
34800,note_on,,0,0,15,,,,,,,,,,,,,,,,15,,69,72
34800,note_on,,0,0,15,,,,,,,,,,,,,,,,15,,60,72
34800,note_on,,1,0,9,,,,,,,,,,,,,,,,7,,60,72
34800,note_on,,1,0,15,,,,,,,,,,,,,,,,15,,53,72
34800,note_on,,31,0,12,,,,,,,,,,,,,,,,11,,69,72
34800,note_on,,31,0,13,,,,,,,,,,,,,,,,12,,60,72
34800,note_on,,1,0,7,,,,,,,,,,,,,,,,5,,77,72
34800,note_on,,1,0,5,,,,,,,,,,,,,,,,1,,77,72
34800,note_on,,1,0,6,,,,,,,,,,,,,,,,2,,53,72
34800,note_on,,1,0,8,,,,,,,,,,,,,,,,6,,69,72
34800,note_on,,31,0,11,,,,,,,,,,,,,,,,10,,77,72
34889,note_on,,89,0,11,,,,,,,,,,,,,,,,10,,77,0
34889,note_on,,89,0,13,,,,,,,,,,,,,,,,12,,60,0
34889,note_on,,89,0,12,,,,,,,,,,,,,,,,11,,69,0
34919,note_on,,0,0,15,,,,,,,,,,,,,,,,15,,60,0
34919,note_on,,119,0,9,,,,,,,,,,,,,,,,7,,60,0
34919,note_on,,119,0,10,,,,,,,,,,,,,,,,8,,53,0
34919,note_on,,119,0,6,,,,,,,,,,,,,,,,2,,53,0
34919,note_on,,0,0,15,,,,,,,,,,,,,,,,15,,69,0
34919,note_on,,0,0,15,,,,,,,,,,,,,,,,15,,72,0
34919,note_on,,119,0,15,,,,,,,,,,,,,,,,15,,53,0
34919,note_on,,119,0,8,,,,,,,,,,,,,,,,6,,69,0
34919,note_on,,119,0,5,,,,,,,,,,,,,,,,1,,77,0
34919,note_on,,119,0,7,,,,,,,,,,,,,,,,5,,77,0
34919,note_on,,119,0,14,,,,,,,,,,,,,,,,13,,53,0
34919,note_on,,0,0,15,,,,,,,,,,,,,,,,15,,65,0
34920,note_on,,0,0,15,,,,,,,,,,,,,,,,15,,65,72
34920,note_on,,0,0,15,,,,,,,,,,,,,,,,15,,72,72
34920,note_on,,1,0,15,,,,,,,,,,,,,,,,15,,53,72
34920,note_on,,0,0,15,,,,,,,,,,,,,,,,15,,60,72
34920,note_on,,31,0,12,,,,,,,,,,,,,,,,11,,81,72
34920,note_on,,0,0,15,,,,,,,,,,,,,,,,15,,69,72
34920,note_on,,1,0,9,,,,,,,,,,,,,,,,7,,65,72
34920,note_on,,1,0,5,,,,,,,,,,,,,,,,1,,72,72
34920,note_on,,1,0,14,,,,,,,,,,,,,,,,13,,53,72
34920,note_on,,31,0,13,,,,,,,,,,,,,,,,12,,65,72
34920,note_on,,31,0,11,,,,,,,,,,,,,,,,10,,84,72
34920,note_on,,1,0,8,,,,,,,,,,,,,,,,6,,69,72
34920,note_on,,1,0,7,,,,,,,,,,,,,,,,5,,72,72
34920,note_on,,1,0,6,,,,,,,,,,,,,,,,2,,53,72
34920,note_on,,1,0,10,,,,,,,,,,,,,,,,8,,53,72
34979,note_on,,59,0,5,,,,,,,,,,,,,,,,1,,72,0
34979,note_on,,0,0,15,,,,,,,,,,,,,,,,15,,72,0
34979,note_on,,0,0,15,,,,,,,,,,,,,,,,15,,69,0
34979,note_on,,59,0,11,,,,,,,,,,,,,,,,10,,84,0
34979,note_on,,0,0,15,,,,,,,,,,,,,,,,15,,65,0
34979,note_on,,59,0,14,,,,,,,,,,,,,,,,13,,53,0
34979,note_on,,0,0,15,,,,,,,,,,,,,,,,15,,60,0
34979,note_on,,59,0,6,,,,,,,,,,,,,,,,2,,53,0
34979,note_on,,59,0,15,,,,,,,,,,,,,,,,15,,53,0
34979,note_on,,59,0,13,,,,,,,,,,,,,,,,12,,65,0
34979,note_on,,59,0,10,,,,,,,,,,,,,,,,8,,53,0
34979,note_on,,59,0,12,,,,,,,,,,,,,,,,11,,81,0
34979,note_on,,59,0,7,,,,,,,,,,,,,,,,5,,72,0
34979,note_on,,59,0,8,,,,,,,,,,,,,,,,6,,69,0
34979,note_on,,59,0,9,,,,,,,,,,,,,,,,7,,65,0
34980,note_on,,1,0,10,,,,,,,,,,,,,,,,8,,53,72
34980,note_on,,1,0,5,,,,,,,,,,,,,,,,1,,72,72
34980,note_on,,1,0,12,,,,,,,,,,,,,,,,11,,81,72
34980,note_on,,1,0,13,,,,,,,,,,,,,,,,12,,65,72
34980,note_on,,1,0,8,,,,,,,,,,,,,,,,6,,69,72
34980,note_on,,1,0,11,,,,,,,,,,,,,,,,10,,84,72
34980,note_on,,1,0,15,,,,,,,,,,,,,,,,15,,53,72
34980,note_on,,0,0,15,,,,,,,,,,,,,,,,15,,72,72
34980,note_on,,0,0,15,,,,,,,,,,,,,,,,15,,69,72
34980,note_on,,0,0,15,,,,,,,,,,,,,,,,15,,60,72
34980,note_on,,1,0,14,,,,,,,,,,,,,,,,13,,53,72
34980,note_on,,1,0,7,,,,,,,,,,,,,,,,5,,72,72
34980,note_on,,1,0,6,,,,,,,,,,,,,,,,2,,53,72
34980,note_on,,0,0,15,,,,,,,,,,,,,,,,15,,65,72
34980,note_on,,1,0,9,,,,,,,,,,,,,,,,7,,65,72
35039,note_on,,59,0,15,,,,,,,,,,,,,,,,15,,53,0
35039,note_on,,0,0,15,,,,,,,,,,,,,,,,15,,72,0
35039,note_on,,0,0,15,,,,,,,,,,,,,,,,15,,69,0
35039,note_on,,0,0,15,,,,,,,,,,,,,,,,15,,65,0
35039,note_on,,59,0,13,,,,,,,,,,,,,,,,12,,65,0
35039,note_on,,59,0,9,,,,,,,,,,,,,,,,7,,65,0
35039,note_on,,59,0,12,,,,,,,,,,,,,,,,11,,81,0
35039,note_on,,59,0,5,,,,,,,,,,,,,,,,1,,72,0
35039,note_on,,59,0,10,,,,,,,,,,,,,,,,8,,53,0
35039,note_on,,59,0,11,,,,,,,,,,,,,,,,10,,84,0
35039,note_on,,59,0,8,,,,,,,,,,,,,,,,6,,69,0
35039,note_on,,59,0,14,,,,,,,,,,,,,,,,13,,53,0
35039,note_on,,59,0,7,,,,,,,,,,,,,,,,5,,72,0
35039,note_on,,59,0,6,,,,,,,,,,,,,,,,2,,53,0
35039,note_on,,0,0,15,,,,,,,,,,,,,,,,15,,60,0
35040,note_on,,0,0,15,,,,,,,,,,,,,,,,15,,55,72
35040,note_on,,0,0,15,,,,,,,,,,,,,,,,15,,72,72
35040,note_on,,0,0,15,,,,,,,,,,,,,,,,15,,67,72
35040,note_on,,0,0,15,,,,,,,,,,,,,,,,15,,60,72
35040,note_on,,1,0,14,,,,,,,,,,,,,,,,13,,52,72
35040,note_on,,1,0,15,,,,,,,,,,,,,,,,15,,52,72
35040,note_on,,1,0,6,,,,,,,,,,,,,,,,2,,52,72
35040,note_on,,1,0,10,,,,,,,,,,,,,,,,8,,52,72
35040,note_on,,1,0,8,,,,,,,,,,,,,,,,6,,67,72
35040,note_on,,1,0,11,,,,,,,,,,,,,,,,10,,84,72
35040,note_on,,1,0,9,,,,,,,,,,,,,,,,7,,60,72
35040,note_on,,1,0,13,,,,,,,,,,,,,,,,12,,72,72
35040,note_on,,1,0,7,,,,,,,,,,,,,,,,5,,72,72
35040,note_on,,1,0,12,,,,,,,,,,,,,,,,11,,79,72
35040,note_on,,1,0,5,,,,,,,,,,,,,,,,1,,72,72
35099,note_on,,59,0,7,,,,,,,,,,,,,,,,5,,72,0
35099,note_on,,59,0,8,,,,,,,,,,,,,,,,6,,67,0
35099,note_on,,59,0,10,,,,,,,,,,,,,,,,8,,52,0
35099,note_on,,0,0,15,,,,,,,,,,,,,,,,15,,55,0
35099,note_on,,0,0,15,,,,,,,,,,,,,,,,15,,60,0
35099,note_on,,59,0,11,,,,,,,,,,,,,,,,10,,84,0
35099,note_on,,59,0,6,,,,,,,,,,,,,,,,2,,52,0
35099,note_on,,59,0,9,,,,,,,,,,,,,,,,7,,60,0
35099,note_on,,59,0,13,,,,,,,,,,,,,,,,12,,72,0
35099,note_on,,0,0,15,,,,,,,,,,,,,,,,15,,67,0
35099,note_on,,59,0,12,,,,,,,,,,,,,,,,11,,79,0
35099,note_on,,59,0,15,,,,,,,,,,,,,,,,15,,52,0
35099,note_on,,59,0,14,,,,,,,,,,,,,,,,13,,52,0
35099,note_on,,59,0,5,,,,,,,,,,,,,,,,1,,72,0
35099,note_on,,0,0,15,,,,,,,,,,,,,,,,15,,72,0
35100,note_on,,1,0,7,,,,,,,,,,,,,,,,5,,72,72
35100,note_on,,1,0,9,,,,,,,,,,,,,,,,7,,60,72
35100,note_on,,1,0,8,,,,,,,,,,,,,,,,6,,67,72
35100,note_on,,1,0,13,,,,,,,,,,,,,,,,12,,72,72
35100,note_on,,1,0,15,,,,,,,,,,,,,,,,15,,52,72
35100,note_on,,0,0,15,,,,,,,,,,,,,,,,15,,55,72
35100,note_on,,1,0,11,,,,,,,,,,,,,,,,10,,84,72
35100,note_on,,0,0,15,,,,,,,,,,,,,,,,15,,72,72
35100,note_on,,0,0,15,,,,,,,,,,,,,,,,15,,67,72
35100,note_on,,0,0,15,,,,,,,,,,,,,,,,15,,60,72
35100,note_on,,1,0,12,,,,,,,,,,,,,,,,11,,79,72
35100,note_on,,1,0,14,,,,,,,,,,,,,,,,13,,52,72
35100,note_on,,1,0,5,,,,,,,,,,,,,,,,1,,72,72
35100,note_on,,1,0,6,,,,,,,,,,,,,,,,2,,52,72
35100,note_on,,1,0,10,,,,,,,,,,,,,,,,8,,52,72
35159,note_on,,59,0,15,,,,,,,,,,,,,,,,15,,52,0
35159,note_on,,0,0,15,,,,,,,,,,,,,,,,15,,55,0
35159,note_on,,59,0,14,,,,,,,,,,,,,,,,13,,52,0
35159,note_on,,59,0,6,,,,,,,,,,,,,,,,2,,52,0
35159,note_on,,59,0,7,,,,,,,,,,,,,,,,5,,72,0
35159,note_on,,0,0,15,,,,,,,,,,,,,,,,15,,72,0
35159,note_on,,59,0,8,,,,,,,,,,,,,,,,6,,67,0
35159,note_on,,0,0,15,,,,,,,,,,,,,,,,15,,67,0
35159,note_on,,0,0,15,,,,,,,,,,,,,,,,15,,60,0
35159,note_on,,59,0,13,,,,,,,,,,,,,,,,12,,72,0
35159,note_on,,59,0,9,,,,,,,,,,,,,,,,7,,60,0
35159,note_on,,59,0,5,,,,,,,,,,,,,,,,1,,72,0
35159,note_on,,59,0,10,,,,,,,,,,,,,,,,8,,52,0
35159,note_on,,59,0,12,,,,,,,,,,,,,,,,11,,79,0
35159,note_on,,59,0,11,,,,,,,,,,,,,,,,10,,84,0
35160,note_on,,0,0,15,,,,,,,,,,,,,,,,15,,60,72
35160,note_on,,1,0,6,,,,,,,,,,,,,,,,2,,52,72
35160,note_on,,1,0,5,,,,,,,,,,,,,,,,1,,72,72
35160,note_on,,1,0,14,,,,,,,,,,,,,,,,13,,52,72
35160,note_on,,1,0,12,,,,,,,,,,,,,,,,11,,79,72
35160,note_on,,1,0,11,,,,,,,,,,,,,,,,10,,84,72
35160,note_on,,1,0,8,,,,,,,,,,,,,,,,6,,67,72
35160,note_on,,0,0,15,,,,,,,,,,,,,,,,15,,67,72
35160,note_on,,0,0,15,,,,,,,,,,,,,,,,15,,72,72
35160,note_on,,0,0,15,,,,,,,,,,,,,,,,15,,55,72
35160,note_on,,1,0,15,,,,,,,,,,,,,,,,15,,52,72
35160,note_on,,1,0,10,,,,,,,,,,,,,,,,8,,52,72
35160,note_on,,1,0,9,,,,,,,,,,,,,,,,7,,60,72
35160,note_on,,1,0,13,,,,,,,,,,,,,,,,12,,72,72
35160,note_on,,1,0,7,,,,,,,,,,,,,,,,5,,72,72
35219,note_on,,59,0,11,,,,,,,,,,,,,,,,10,,84,0
35219,note_on,,59,0,14,,,,,,,,,,,,,,,,13,,52,0
35219,note_on,,59,0,10,,,,,,,,,,,,,,,,8,,52,0
35219,note_on,,59,0,12,,,,,,,,,,,,,,,,11,,79,0
35219,note_on,,59,0,9,,,,,,,,,,,,,,,,7,,60,0
35219,note_on,,59,0,6,,,,,,,,,,,,,,,,2,,52,0
35219,note_on,,59,0,13,,,,,,,,,,,,,,,,12,,72,0
35219,note_on,,59,0,7,,,,,,,,,,,,,,,,5,,72,0
35219,note_on,,59,0,8,,,,,,,,,,,,,,,,6,,67,0
35219,note_on,,59,0,15,,,,,,,,,,,,,,,,15,,52,0
35219,note_on,,0,0,15,,,,,,,,,,,,,,,,15,,55,0
35219,note_on,,0,0,15,,,,,,,,,,,,,,,,15,,67,0
35219,note_on,,0,0,15,,,,,,,,,,,,,,,,15,,60,0
35219,note_on,,0,0,15,,,,,,,,,,,,,,,,15,,72,0
35219,note_on,,59,0,5,,,,,,,,,,,,,,,,1,,72,0
35220,note_on,,1,0,14,,,,,,,,,,,,,,,,13,,52,72
35220,note_on,,1,0,13,,,,,,,,,,,,,,,,12,,72,72
35220,note_on,,1,0,9,,,,,,,,,,,,,,,,7,,60,72
35220,note_on,,1,0,15,,,,,,,,,,,,,,,,15,,52,72
35220,note_on,,1,0,12,,,,,,,,,,,,,,,,11,,79,72
35220,note_on,,0,0,15,,,,,,,,,,,,,,,,15,,60,72
35220,note_on,,1,0,11,,,,,,,,,,,,,,,,10,,84,72
35220,note_on,,1,0,7,,,,,,,,,,,,,,,,5,,72,72
35220,note_on,,0,0,15,,,,,,,,,,,,,,,,15,,55,72
35220,note_on,,1,0,8,,,,,,,,,,,,,,,,6,,67,72
35220,note_on,,1,0,10,,,,,,,,,,,,,,,,8,,52,72
35220,note_on,,0,0,15,,,,,,,,,,,,,,,,15,,72,72
35220,note_on,,1,0,5,,,,,,,,,,,,,,,,1,,72,72
35220,note_on,,0,0,15,,,,,,,,,,,,,,,,15,,67,72
35220,note_on,,1,0,6,,,,,,,,,,,,,,,,2,,52,72
35279,note_on,,59,0,15,,,,,,,,,,,,,,,,15,,52,0
35279,note_on,,0,0,15,,,,,,,,,,,,,,,,15,,72,0
35279,note_on,,59,0,14,,,,,,,,,,,,,,,,13,,52,0
35279,note_on,,0,0,15,,,,,,,,,,,,,,,,15,,55,0
35279,note_on,,0,0,15,,,,,,,,,,,,,,,,15,,67,0
35279,note_on,,59,0,11,,,,,,,,,,,,,,,,10,,84,0
35279,note_on,,59,0,6,,,,,,,,,,,,,,,,2,,52,0
35279,note_on,,59,0,7,,,,,,,,,,,,,,,,5,,72,0
35279,note_on,,59,0,5,,,,,,,,,,,,,,,,1,,72,0
35279,note_on,,59,0,10,,,,,,,,,,,,,,,,8,,52,0
35279,note_on,,59,0,8,,,,,,,,,,,,,,,,6,,67,0
35279,note_on,,59,0,9,,,,,,,,,,,,,,,,7,,60,0
35279,note_on,,59,0,13,,,,,,,,,,,,,,,,12,,72,0
35279,note_on,,59,0,12,,,,,,,,,,,,,,,,11,,79,0
35279,note_on,,0,0,15,,,,,,,,,,,,,,,,15,,60,0
35280,note_on,,1,0,6,,,,,,,,,,,,,,,,2,,50,72
35280,note_on,,0,0,15,,,,,,,,,,,,,,,,15,,53,72
35280,note_on,,1,0,5,,,,,,,,,,,,,,,,1,,71,72
35280,note_on,,0,0,15,,,,,,,,,,,,,,,,15,,74,72
35280,note_on,,1,0,14,,,,,,,,,,,,,,,,13,,50,72
35280,note_on,,0,0,15,,,,,,,,,,,,,,,,15,,71,72
35280,note_on,,0,0,15,,,,,,,,,,,,,,,,15,,65,72
35280,note_on,,1,0,13,,,,,,,,,,,,,,,,12,,65,72
35280,note_on,,1,0,9,,,,,,,,,,,,,,,,7,,62,72
35280,note_on,,1,0,11,,,,,,,,,,,,,,,,10,,83,72
35280,note_on,,1,0,10,,,,,,,,,,,,,,,,8,,50,72
35280,note_on,,1,0,8,,,,,,,,,,,,,,,,6,,65,72
35280,note_on,,1,0,7,,,,,,,,,,,,,,,,5,,71,72
35280,note_on,,1,0,15,,,,,,,,,,,,,,,,15,,50,72
35280,note_on,,1,0,12,,,,,,,,,,,,,,,,11,,77,72
35399,note_on,,119,0,7,,,,,,,,,,,,,,,,5,,71,0
35399,note_on,,119,0,5,,,,,,,,,,,,,,,,1,,71,0
35399,note_on,,119,0,8,,,,,,,,,,,,,,,,6,,65,0
35399,note_on,,119,0,9,,,,,,,,,,,,,,,,7,,62,0
35399,note_on,,119,0,13,,,,,,,,,,,,,,,,12,,65,0
35399,note_on,,119,0,6,,,,,,,,,,,,,,,,2,,50,0
35399,note_on,,119,0,10,,,,,,,,,,,,,,,,8,,50,0
35399,note_on,,119,0,12,,,,,,,,,,,,,,,,11,,77,0
35399,note_on,,119,0,11,,,,,,,,,,,,,,,,10,,83,0
35399,note_on,,119,0,14,,,,,,,,,,,,,,,,13,,50,0
35399,note_on,,119,0,15,,,,,,,,,,,,,,,,15,,50,0
35399,note_on,,0,0,15,,,,,,,,,,,,,,,,15,,53,0
35399,note_on,,0,0,15,,,,,,,,,,,,,,,,15,,74,0
35399,note_on,,0,0,15,,,,,,,,,,,,,,,,15,,71,0
35399,note_on,,0,0,15,,,,,,,,,,,,,,,,15,,65,0
35400,note_on,,1,0,11,,,,,,,,,,,,,,,,10,,84,72
35400,note_on,,1,0,9,,,,,,,,,,,,,,,,7,,64,72
35400,note_on,,1,0,10,,,,,,,,,,,,,,,,8,,48,72
35400,note_on,,0,0,15,,,,,,,,,,,,,,,,15,,67,72
35400,note_on,,0,0,15,,,,,,,,,,,,,,,,15,,72,72
35400,note_on,,1,0,8,,,,,,,,,,,,,,,,6,,67,72
35400,note_on,,1,0,6,,,,,,,,,,,,,,,,2,,48,72
35400,note_on,,1,0,7,,,,,,,,,,,,,,,,5,,72,72
35400,note_on,,1,0,15,,,,,,,,,,,,,,,,15,,48,72
35400,note_on,,0,0,15,,,,,,,,,,,,,,,,15,,76,72
35400,note_on,,1,0,5,,,,,,,,,,,,,,,,1,,72,72
35400,note_on,,0,0,15,,,,,,,,,,,,,,,,15,,60,72
35400,note_on,,1,0,14,,,,,,,,,,,,,,,,13,,48,72
35400,note_on,,1,0,12,,,,,,,,,,,,,,,,11,,76,72
35400,note_on,,1,0,13,,,,,,,,,,,,,,,,12,,67,72
35519,note_on,,119,0,9,,,,,,,,,,,,,,,,7,,64,0
35519,note_on,,0,0,15,,,,,,,,,,,,,,,,15,,60,0
35519,note_on,,119,0,15,,,,,,,,,,,,,,,,15,,48,0
35519,note_on,,119,0,10,,,,,,,,,,,,,,,,8,,48,0
35519,note_on,,119,0,5,,,,,,,,,,,,,,,,1,,72,0
35519,note_on,,0,0,15,,,,,,,,,,,,,,,,15,,67,0
35519,note_on,,119,0,12,,,,,,,,,,,,,,,,11,,76,0
35519,note_on,,119,0,13,,,,,,,,,,,,,,,,12,,67,0
35519,note_on,,119,0,8,,,,,,,,,,,,,,,,6,,67,0
35519,note_on,,119,0,14,,,,,,,,,,,,,,,,13,,48,0
35519,note_on,,119,0,11,,,,,,,,,,,,,,,,10,,84,0
35519,note_on,,0,0,15,,,,,,,,,,,,,,,,15,,72,0
35519,note_on,,0,0,15,,,,,,,,,,,,,,,,15,,76,0
35519,note_on,,119,0,6,,,,,,,,,,,,,,,,2,,48,0
35519,note_on,,119,0,7,,,,,,,,,,,,,,,,5,,72,0
35520,note_on,,1,0,7,,,,,,,,,,,,,,,,5,,72,72
35520,note_on,,0,0,15,,,,,,,,,,,,,,,,15,,74,72
35520,note_on,,0,0,15,,,,,,,,,,,,,,,,15,,67,72
35520,note_on,,0,0,15,,,,,,,,,,,,,,,,15,,72,72
35520,note_on,,1,0,8,,,,,,,,,,,,,,,,6,,67,72
35520,note_on,,1,0,11,,,,,,,,,,,,,,,,10,,84,72
35520,note_on,,0,0,15,,,,,,,,,,,,,,,,15,,62,72
35520,note_on,,1,0,5,,,,,,,,,,,,,,,,1,,72,72
35520,note_on,,1,0,9,,,,,,,,,,,,,,,,7,,62,72
35520,note_on,,1,0,13,,,,,,,,,,,,,,,,12,,67,72
35520,note_on,,1,0,12,,,,,,,,,,,,,,,,11,,74,72
35520,note_on,,1,0,6,,,,,,,,,,,,,,,,2,,55,72
35520,note_on,,1,0,15,,,,,,,,,,,,,,,,15,,55,72
35520,note_on,,1,0,10,,,,,,,,,,,,,,,,8,,55,72
35520,note_on,,1,0,14,,,,,,,,,,,,,,,,13,,55,72
35759,note_on,,239,0,10,,,,,,,,,,,,,,,,8,,55,0
35759,note_on,,239,0,9,,,,,,,,,,,,,,,,7,,62,0
35759,note_on,,0,0,15,,,,,,,,,,,,,,,,15,,72,0
35759,note_on,,239,0,14,,,,,,,,,,,,,,,,13,,55,0
35759,note_on,,239,0,12,,,,,,,,,,,,,,,,11,,74,0
35759,note_on,,239,0,8,,,,,,,,,,,,,,,,6,,67,0
35759,note_on,,239,0,5,,,,,,,,,,,,,,,,1,,72,0
35759,note_on,,239,0,6,,,,,,,,,,,,,,,,2,,55,0
35759,note_on,,239,0,7,,,,,,,,,,,,,,,,5,,72,0
35759,note_on,,239,0,11,,,,,,,,,,,,,,,,10,,84,0
35759,note_on,,0,0,15,,,,,,,,,,,,,,,,15,,62,0
35759,note_on,,239,0,13,,,,,,,,,,,,,,,,12,,67,0
35759,note_on,,239,0,15,,,,,,,,,,,,,,,,15,,55,0
35760,note_on,,1,0,7,,,,,,,,,,,,,,,,5,,71,72
35760,note_on,,1,0,13,,,,,,,,,,,,,,,,12,,67,72
35760,note_on,,1,0,14,,,,,,,,,,,,,,,,13,,43,72
35760,note_on,,1,0,8,,,,,,,,,,,,,,,,6,,67,72
35760,note_on,,0,0,15,,,,,,,,,,,,,,,,15,,55,72
35760,note_on,,0,0,15,,,,,,,,,,,,,,,,15,,71,72
35760,note_on,,1,0,11,,,,,,,,,,,,,,,,10,,83,72
35760,note_on,,1,0,5,,,,,,,,,,,,,,,,1,,71,72
35760,note_on,,1,0,6,,,,,,,,,,,,,,,,2,,43,72
35760,note_on,,1,0,9,,,,,,,,,,,,,,,,7,,62,72
35760,note_on,,1,0,10,,,,,,,,,,,,,,,,8,,43,72
35760,note_on,,1,0,12,,,,,,,,,,,,,,,,11,,74,72
35760,note_on,,1,0,15,,,,,,,,,,,,,,,,15,,43,72
35999,note_on,,239,0,13,,,,,,,,,,,,,,,,12,,67,0
35999,note_on,,239,0,12,,,,,,,,,,,,,,,,11,,74,0
35999,note_on,,239,0,5,,,,,,,,,,,,,,,,1,,71,0
35999,note_on,,239,0,10,,,,,,,,,,,,,,,,8,,43,0
35999,note_on,,239,0,9,,,,,,,,,,,,,,,,7,,62,0
35999,note_on,,239,0,14,,,,,,,,,,,,,,,,13,,43,0
35999,note_on,,0,0,15,,,,,,,,,,,,,,,,15,,71,0
35999,note_on,,0,0,15,,,,,,,,,,,,,,,,15,,43,0
35999,note_on,,0,0,15,,,,,,,,,,,,,,,,15,,67,0
35999,note_on,,239,0,15,,,,,,,,,,,,,,,,15,,74,0
35999,note_on,,239,0,11,,,,,,,,,,,,,,,,10,,83,0
35999,note_on,,239,0,7,,,,,,,,,,,,,,,,5,,71,0
35999,note_on,,239,0,6,,,,,,,,,,,,,,,,2,,43,0
35999,note_on,,239,0,8,,,,,,,,,,,,,,,,6,,67,0
35999,note_on,,0,0,15,,,,,,,,,,,,,,,,15,,55,0
36000,note_on,,1,0,10,,,,,,,,,,,,,,,,8,,48,72
36000,note_on,,1,0,7,,,,,,,,,,,,,,,,5,,72,72
36000,note_on,,1,0,9,,,,,,,,,,,,,,,,7,,64,72
36000,note_on,,1,0,12,,,,,,,,,,,,,,,,11,,76,72
36000,note_on,,1,0,13,,,,,,,,,,,,,,,,12,,67,72
36000,note_on,,1,0,5,,,,,,,,,,,,,,,,1,,72,72
36000,note_on,,1,0,11,,,,,,,,,,,,,,,,10,,84,72
36000,note_on,,1,0,15,,,,,,,,,,,,,,,,15,,48,72
36000,note_on,,0,0,15,,,,,,,,,,,,,,,,15,,55,72
36000,note_on,,0,0,15,,,,,,,,,,,,,,,,15,,67,72
36000,note_on,,0,0,15,,,,,,,,,,,,,,,,15,,72,72
36000,note_on,,1,0,6,,,,,,,,,,,,,,,,2,,48,72
36000,note_on,,1,0,14,,,,,,,,,,,,,,,,13,,48,72
36000,note_on,,0,0,15,,,,,,,,,,,,,,,,15,,64,72
36000,note_on,,1,0,8,,,,,,,,,,,,,,,,6,,67,72
36239,note_on,,239,0,8,,,,,,,,,,,,,,,,6,,67,0
36239,note_on,,239,0,14,,,,,,,,,,,,,,,,13,,48,0
36239,note_on,,239,0,5,,,,,,,,,,,,,,,,1,,72,0
36239,note_on,,239,0,6,,,,,,,,,,,,,,,,2,,48,0
36239,note_on,,239,0,9,,,,,,,,,,,,,,,,7,,64,0
36239,note_on,,239,0,10,,,,,,,,,,,,,,,,8,,48,0
36239,note_on,,239,0,13,,,,,,,,,,,,,,,,12,,67,0
36239,note_on,,239,0,15,,,,,,,,,,,,,,,,15,,48,0
36239,note_on,,0,0,15,,,,,,,,,,,,,,,,15,,55,0
36239,note_on,,239,0,7,,,,,,,,,,,,,,,,5,,72,0
36239,note_on,,0,0,15,,,,,,,,,,,,,,,,15,,72,0
36239,note_on,,0,0,15,,,,,,,,,,,,,,,,15,,67,0
36239,note_on,,239,0,12,,,,,,,,,,,,,,,,11,,76,0
36239,note_on,,239,0,11,,,,,,,,,,,,,,,,10,,84,0
36239,note_on,,0,0,15,,,,,,,,,,,,,,,,15,,64,0
36240,note_on,,1,0,6,,,,,,,,,,,,,,,,2,,48,64
36240,note_on,,1,0,15,,,,,,,,,,,,,,,,15,,48,64
36240,note_on,,1,0,14,,,,,,,,,,,,,,,,13,,48,64
36240,set_tempo,,36240,1,0,,,,,,,,,1000000,,,,,,,,,,
36240,note_on,,1,0,10,,,,,,,,,,,,,,,,8,,48,64
36419,note_on,,179,0,6,,,,,,,,,,,,,,,,2,,48,0
36419,note_on,,179,0,14,,,,,,,,,,,,,,,,13,,48,0
36419,note_on,,179,0,15,,,,,,,,,,,,,,,,15,,48,0
36420,note_on,,1,0,14,,,,,,,,,,,,,,,,13,,48,64
36420,note_on,,1,0,6,,,,,,,,,,,,,,,,2,,48,64
36420,note_on,,1,0,15,,,,,,,,,,,,,,,,15,,48,64
36449,note_on,,209,0,10,,,,,,,,,,,,,,,,8,,48,0
36450,note_on,,1,0,10,,,,,,,,,,,,,,,,8,,48,64
36479,note_on,,59,0,15,,,,,,,,,,,,,,,,15,,48,0
36479,note_on,,59,0,6,,,,,,,,,,,,,,,,2,,48,0
36479,note_on,,29,0,10,,,,,,,,,,,,,,,,8,,48,0
36479,note_on,,59,0,14,,,,,,,,,,,,,,,,13,,48,0
36480,note_on,,1,0,6,,,,,,,,,,,,,,,,2,,60,64
36480,note_on,,1,0,10,,,,,,,,,,,,,,,,8,,60,64
36480,note_on,,1,0,14,,,,,,,,,,,,,,,,13,,60,64
36480,note_on,,1,0,15,,,,,,,,,,,,,,,,15,,60,64
36719,note_on,,239,0,6,,,,,,,,,,,,,,,,2,,60,0
36719,note_on,,239,0,10,,,,,,,,,,,,,,,,8,,60,0
36719,note_on,,239,0,14,,,,,,,,,,,,,,,,13,,60,0
36719,note_on,,239,0,15,,,,,,,,,,,,,,,,15,,60,0
36720,note_on,,0,0,15,,,,,,,,,,,,,,,,15,,64,64
36720,note_on,,0,0,15,,,,,,,,,,,,,,,,15,,67,64
36720,note_on,,1,0,15,,,,,,,,,,,,,,,,15,,58,64
36720,note_on,,1,0,14,,,,,,,,,,,,,,,,13,,58,64
36720,note_on,,481,0,11,,,,,,,,,,,,,,,,10,,67,64
36720,note_on,,1,0,6,,,,,,,,,,,,,,,,2,,58,64
36720,note_on,,481,0,7,,,,,,,,,,,,,,,,5,,67,64
36720,note_on,,1,0,10,,,,,,,,,,,,,,,,8,,58,64
36720,note_on,,481,0,5,,,,,,,,,,,,,,,,1,,67,64
36899,note_on,,179,0,15,,,,,,,,,,,,,,,,15,,67,0
36899,note_on,,0,0,15,,,,,,,,,,,,,,,,15,,64,0
36900,note_on,,1,0,15,,,,,,,,,,,,,,,,15,,67,64
36900,note_on,,0,0,15,,,,,,,,,,,,,,,,15,,64,64
36929,note_on,,209,0,5,,,,,,,,,,,,,,,,1,,67,0
36929,note_on,,209,0,7,,,,,,,,,,,,,,,,5,,67,0
36929,note_on,,209,0,11,,,,,,,,,,,,,,,,10,,67,0
36930,note_on,,1,0,7,,,,,,,,,,,,,,,,5,,67,64
36930,note_on,,1,0,11,,,,,,,,,,,,,,,,10,,67,64
36930,note_on,,1,0,5,,,,,,,,,,,,,,,,1,,67,64
36959,note_on,,29,0,7,,,,,,,,,,,,,,,,5,,67,0
36959,note_on,,239,0,14,,,,,,,,,,,,,,,,13,,58,0
36959,note_on,,239,0,10,,,,,,,,,,,,,,,,8,,58,0
36959,note_on,,29,0,5,,,,,,,,,,,,,,,,1,,67,0
36959,note_on,,239,0,6,,,,,,,,,,,,,,,,2,,58,0
36959,note_on,,59,0,15,,,,,,,,,,,,,,,,15,,58,0
36959,note_on,,29,0,11,,,,,,,,,,,,,,,,10,,67,0
36959,note_on,,0,0,15,,,,,,,,,,,,,,,,15,,67,0
36959,note_on,,0,0,15,,,,,,,,,,,,,,,,15,,64,0
36960,note_on,,1,0,5,,,,,,,,,,,,,,,,1,,72,64
36960,note_on,,1,0,10,,,,,,,,,,,,,,,,8,,56,64
36960,note_on,,1,0,11,,,,,,,,,,,,,,,,10,,72,64
36960,note_on,,1,0,15,,,,,,,,,,,,,,,,15,,56,64
36960,note_on,,0,0,15,,,,,,,,,,,,,,,,15,,72,64
36960,note_on,,0,0,15,,,,,,,,,,,,,,,,15,,65,64
36960,note_on,,0,0,15,,,,,,,,,,,,,,,,15,,60,64
36960,note_on,,1,0,6,,,,,,,,,,,,,,,,2,,56,64
36960,note_on,,1,0,14,,,,,,,,,,,,,,,,13,,56,64
36960,note_on,,1,0,7,,,,,,,,,,,,,,,,5,,72,64
37199,note_on,,239,0,11,,,,,,,,,,,,,,,,10,,72,0
37199,note_on,,0,0,15,,,,,,,,,,,,,,,,15,,72,0
37199,note_on,,239,0,6,,,,,,,,,,,,,,,,2,,56,0
37199,note_on,,239,0,14,,,,,,,,,,,,,,,,13,,56,0
37199,note_on,,239,0,5,,,,,,,,,,,,,,,,1,,72,0
37199,note_on,,239,0,7,,,,,,,,,,,,,,,,5,,72,0
37199,note_on,,239,0,10,,,,,,,,,,,,,,,,8,,56,0
37199,note_on,,0,0,15,,,,,,,,,,,,,,,,15,,65,0
37199,note_on,,0,0,15,,,,,,,,,,,,,,,,15,,60,0
37199,note_on,,239,0,15,,,,,,,,,,,,,,,,15,,56,0
37200,note_on,,1,0,5,,,,,,,,,,,,,,,,1,,70,64
37200,note_on,,0,0,15,,,,,,,,,,,,,,,,15,,64,64
37200,note_on,,961,0,13,,,,,,,,,,,,,,,,12,,64,64
37200,note_on,,1,0,6,,,,,,,,,,,,,,,,2,,55,64
37200,note_on,,1,0,14,,,,,,,,,,,,,,,,13,,55,64
37200,note_on,,1,0,7,,,,,,,,,,,,,,,,5,,70,64
37200,note_on,,1,0,11,,,,,,,,,,,,,,,,10,,70,64
37200,note_on,,961,0,9,,,,,,,,,,,,,,,,7,,64,64
37200,note_on,,1,0,10,,,,,,,,,,,,,,,,8,,55,64
37200,note_on,,0,0,15,,,,,,,,,,,,,,,,15,,58,64
37200,note_on,,0,0,15,,,,,,,,,,,,,,,,15,,67,64
37200,note_on,,1,0,15,,,,,,,,,,,,,,,,15,,55,64
37409,note_on,,209,0,13,,,,,,,,,,,,,,,,12,,64,0
37409,note_on,,209,0,9,,,,,,,,,,,,,,,,7,,64,0
37410,note_on,,1,0,13,,,,,,,,,,,,,,,,12,,64,64
37410,note_on,,1,0,9,,,,,,,,,,,,,,,,7,,64,64
37439,note_on,,239,0,14,,,,,,,,,,,,,,,,13,,55,0
37439,note_on,,29,0,9,,,,,,,,,,,,,,,,7,,64,0
37439,note_on,,239,0,5,,,,,,,,,,,,,,,,1,,70,0
37439,note_on,,0,0,15,,,,,,,,,,,,,,,,15,,64,0
37439,note_on,,239,0,11,,,,,,,,,,,,,,,,10,,70,0
37439,note_on,,239,0,6,,,,,,,,,,,,,,,,2,,55,0
37439,note_on,,239,0,10,,,,,,,,,,,,,,,,8,,55,0
37439,note_on,,239,0,7,,,,,,,,,,,,,,,,5,,70,0
37439,note_on,,0,0,15,,,,,,,,,,,,,,,,15,,58,0
37439,note_on,,29,0,13,,,,,,,,,,,,,,,,12,,64,0
37439,note_on,,0,0,15,,,,,,,,,,,,,,,,15,,67,0
37439,note_on,,239,0,15,,,,,,,,,,,,,,,,15,,55,0
37440,note_on,,1,0,10,,,,,,,,,,,,,,,,8,,53,64
37440,note_on,,1,0,11,,,,,,,,,,,,,,,,10,,68,64
37440,note_on,,1,0,9,,,,,,,,,,,,,,,,7,,65,64
37440,note_on,,1,0,5,,,,,,,,,,,,,,,,1,,68,64
37440,note_on,,0,0,15,,,,,,,,,,,,,,,,15,,60,64
37440,note_on,,1,0,15,,,,,,,,,,,,,,,,15,,53,64
37440,note_on,,0,0,15,,,,,,,,,,,,,,,,15,,68,64
37440,note_on,,1,0,14,,,,,,,,,,,,,,,,13,,53,64
37440,note_on,,0,0,15,,,,,,,,,,,,,,,,15,,65,64
37440,note_on,,1,0,7,,,,,,,,,,,,,,,,5,,68,64
37440,note_on,,1,0,13,,,,,,,,,,,,,,,,12,,65,64
37440,note_on,,1,0,6,,,,,,,,,,,,,,,,2,,53,64
37679,note_on,,239,0,7,,,,,,,,,,,,,,,,5,,68,0
37679,note_on,,0,0,15,,,,,,,,,,,,,,,,15,,60,0
37679,note_on,,239,0,15,,,,,,,,,,,,,,,,15,,68,0
37679,note_on,,0,0,15,,,,,,,,,,,,,,,,15,,65,0
37679,note_on,,239,0,11,,,,,,,,,,,,,,,,10,,68,0
37679,note_on,,239,0,9,,,,,,,,,,,,,,,,7,,65,0
37679,note_on,,239,0,13,,,,,,,,,,,,,,,,12,,65,0
37679,note_on,,239,0,5,,,,,,,,,,,,,,,,1,,68,0
37680,note_on,,0,0,15,,,,,,,,,,,,,,,,15,,63,64
37680,note_on,,1441,0,12,,,,,,,,,,,,,,,,11,,60,64
37680,note_on,,0,0,15,,,,,,,,,,,,,,,,15,,69,64
37680,note_on,,1,0,13,,,,,,,,,,,,,,,,12,,63,64
37680,note_on,,1,0,9,,,,,,,,,,,,,,,,7,,63,64
37680,note_on,,1,0,15,,,,,,,,,,,,,,,,15,,72,64
37680,note_on,,1441,0,8,,,,,,,,,,,,,,,,6,,60,64
37680,note_on,,1,0,5,,,,,,,,,,,,,,,,1,,69,64
37680,note_on,,1,0,7,,,,,,,,,,,,,,,,5,,69,64
37680,note_on,,1,0,11,,,,,,,,,,,,,,,,10,,69,64
37889,note_on,,209,0,8,,,,,,,,,,,,,,,,6,,60,0
37889,note_on,,209,0,12,,,,,,,,,,,,,,,,11,,60,0
37890,note_on,,1,0,8,,,,,,,,,,,,,,,,6,,60,64
37890,note_on,,1,0,12,,,,,,,,,,,,,,,,11,,60,64
37919,note_on,,239,0,9,,,,,,,,,,,,,,,,7,,63,0
37919,note_on,,239,0,11,,,,,,,,,,,,,,,,10,,69,0
37919,note_on,,239,0,13,,,,,,,,,,,,,,,,12,,63,0
37919,note_on,,29,0,8,,,,,,,,,,,,,,,,6,,60,0
37919,note_on,,29,0,12,,,,,,,,,,,,,,,,11,,60,0
37919,note_on,,239,0,7,,,,,,,,,,,,,,,,5,,69,0
37919,note_on,,0,0,15,,,,,,,,,,,,,,,,15,,63,0
37919,note_on,,0,0,15,,,,,,,,,,,,,,,,15,,69,0
37919,note_on,,239,0,5,,,,,,,,,,,,,,,,1,,69,0
37919,note_on,,239,0,15,,,,,,,,,,,,,,,,15,,72,0
37920,note_on,,1,0,12,,,,,,,,,,,,,,,,11,,65,64
37920,note_on,,1,0,9,,,,,,,,,,,,,,,,7,,61,64
37920,note_on,,1,0,7,,,,,,,,,,,,,,,,5,,70,64
37920,note_on,,1,0,11,,,,,,,,,,,,,,,,10,,70,64
37920,note_on,,1,0,15,,,,,,,,,,,,,,,,15,,70,64
37920,note_on,,1,0,5,,,,,,,,,,,,,,,,1,,70,64
37920,note_on,,0,0,15,,,,,,,,,,,,,,,,15,,61,64
37920,note_on,,0,0,15,,,,,,,,,,,,,,,,15,,65,64
37920,note_on,,1,0,13,,,,,,,,,,,,,,,,12,,61,64
37920,note_on,,1,0,8,,,,,,,,,,,,,,,,6,,65,64
38159,note_on,,0,0,15,,,,,,,,,,,,,,,,15,,65,0
38159,note_on,,239,0,15,,,,,,,,,,,,,,,,15,,70,0
38159,note_on,,239,0,7,,,,,,,,,,,,,,,,5,,70,0
38159,note_on,,239,0,12,,,,,,,,,,,,,,,,11,,65,0
38159,note_on,,239,0,5,,,,,,,,,,,,,,,,1,,70,0
38159,note_on,,0,0,15,,,,,,,,,,,,,,,,15,,61,0
38159,note_on,,239,0,13,,,,,,,,,,,,,,,,12,,61,0
38159,note_on,,239,0,9,,,,,,,,,,,,,,,,7,,61,0
38159,note_on,,239,0,11,,,,,,,,,,,,,,,,10,,70,0
38159,note_on,,239,0,8,,,,,,,,,,,,,,,,6,,65,0
38160,note_on,,0,0,15,,,,,,,,,,,,,,,,15,,63,64
38160,note_on,,1,0,5,,,,,,,,,,,,,,,,1,,69,64
38160,note_on,,1,0,9,,,,,,,,,,,,,,,,7,,60,64
38160,note_on,,1,0,13,,,,,,,,,,,,,,,,12,,60,64
38160,note_on,,1,0,15,,,,,,,,,,,,,,,,15,,60,64
38160,note_on,,0,0,15,,,,,,,,,,,,,,,,15,,72,64
38160,note_on,,0,0,15,,,,,,,,,,,,,,,,15,,69,64
38160,note_on,,1,0,7,,,,,,,,,,,,,,,,5,,69,64
38160,note_on,,1,0,8,,,,,,,,,,,,,,,,6,,63,64
38160,note_on,,1,0,11,,,,,,,,,,,,,,,,10,,69,64
38160,note_on,,1,0,12,,,,,,,,,,,,,,,,11,,63,64
38369,note_on,,209,0,11,,,,,,,,,,,,,,,,10,,69,0
38369,note_on,,209,0,7,,,,,,,,,,,,,,,,5,,69,0
38369,note_on,,209,0,5,,,,,,,,,,,,,,,,1,,69,0
38370,note_on,,1,0,7,,,,,,,,,,,,,,,,5,,69,64
38370,note_on,,1,0,5,,,,,,,,,,,,,,,,1,,69,64
38370,note_on,,1,0,11,,,,,,,,,,,,,,,,10,,69,64
38399,note_on,,29,0,5,,,,,,,,,,,,,,,,1,,69,0
38399,note_on,,239,0,13,,,,,,,,,,,,,,,,12,,60,0
38399,note_on,,239,0,9,,,,,,,,,,,,,,,,7,,60,0
38399,note_on,,29,0,11,,,,,,,,,,,,,,,,10,,69,0
38399,note_on,,0,0,15,,,,,,,,,,,,,,,,15,,69,0
38399,note_on,,239,0,15,,,,,,,,,,,,,,,,15,,60,0
38399,note_on,,239,0,8,,,,,,,,,,,,,,,,6,,63,0
38399,note_on,,0,0,15,,,,,,,,,,,,,,,,15,,72,0
38399,note_on,,29,0,7,,,,,,,,,,,,,,,,5,,69,0
38399,note_on,,0,0,15,,,,,,,,,,,,,,,,15,,63,0
38399,note_on,,239,0,12,,,,,,,,,,,,,,,,11,,63,0
38400,note_on,,1,0,8,,,,,,,,,,,,,,,,6,,61,64
38400,note_on,,1,0,7,,,,,,,,,,,,,,,,5,,77,64
38400,note_on,,1,0,9,,,,,,,,,,,,,,,,7,,58,64
38400,note_on,,1,0,5,,,,,,,,,,,,,,,,1,,77,64
38400,note_on,,1,0,13,,,,,,,,,,,,,,,,12,,58,64
38400,note_on,,1,0,11,,,,,,,,,,,,,,,,10,,77,64
38400,note_on,,1,0,15,,,,,,,,,,,,,,,,15,,73,64
38400,note_on,,0,0,15,,,,,,,,,,,,,,,,15,,70,64
38400,note_on,,0,0,15,,,,,,,,,,,,,,,,15,,65,64
38400,note_on,,0,0,15,,,,,,,,,,,,,,,,15,,58,64
38400,note_on,,1,0,12,,,,,,,,,,,,,,,,11,,61,64
38639,note_on,,239,0,9,,,,,,,,,,,,,,,,7,,58,0
38639,note_on,,239,0,5,,,,,,,,,,,,,,,,1,,77,0
38639,note_on,,239,0,7,,,,,,,,,,,,,,,,5,,77,0
38639,note_on,,239,0,12,,,,,,,,,,,,,,,,11,,61,0
38639,note_on,,239,0,13,,,,,,,,,,,,,,,,12,,58,0
38639,note_on,,239,0,8,,,,,,,,,,,,,,,,6,,61,0
38639,note_on,,0,0,15,,,,,,,,,,,,,,,,15,,70,0
38639,note_on,,0,0,15,,,,,,,,,,,,,,,,15,,65,0
38639,note_on,,0,0,15,,,,,,,,,,,,,,,,15,,58,0
38639,note_on,,239,0,11,,,,,,,,,,,,,,,,10,,77,0
38639,note_on,,239,0,15,,,,,,,,,,,,,,,,15,,73,0
38640,note_on,,1,0,11,,,,,,,,,,,,,,,,10,,75,64
38640,note_on,,1,0,13,,,,,,,,,,,,,,,,12,,57,64
38640,note_on,,1,0,12,,,,,,,,,,,,,,,,11,,60,64
38640,note_on,,1,0,9,,,,,,,,,,,,,,,,7,,57,64
38640,note_on,,1,0,15,,,,,,,,,,,,,,,,15,,57,64
38640,note_on,,0,0,15,,,,,,,,,,,,,,,,15,,77,64
38640,note_on,,0,0,15,,,,,,,,,,,,,,,,15,,72,64
38640,note_on,,0,0,15,,,,,,,,,,,,,,,,15,,65,64
38640,note_on,,1,0,5,,,,,,,,,,,,,,,,1,,75,64
38640,note_on,,1,0,7,,,,,,,,,,,,,,,,5,,75,64
38640,note_on,,1,0,8,,,,,,,,,,,,,,,,6,,60,64
38879,note_on,,239,0,7,,,,,,,,,,,,,,,,5,,75,0
38879,note_on,,239,0,9,,,,,,,,,,,,,,,,7,,57,0
38879,note_on,,239,0,12,,,,,,,,,,,,,,,,11,,60,0
38879,note_on,,239,0,15,,,,,,,,,,,,,,,,15,,57,0
38879,note_on,,0,0,15,,,,,,,,,,,,,,,,15,,72,0
38879,note_on,,239,0,8,,,,,,,,,,,,,,,,6,,60,0
38879,note_on,,239,0,13,,,,,,,,,,,,,,,,12,,57,0
38879,note_on,,239,0,11,,,,,,,,,,,,,,,,10,,75,0
38879,note_on,,239,0,5,,,,,,,,,,,,,,,,1,,75,0
38880,note_on,,0,0,15,,,,,,,,,,,,,,,,15,,70,64
38880,note_on,,0,0,15,,,,,,,,,,,,,,,,15,,58,64
38880,note_on,,1,0,5,,,,,,,,,,,,,,,,1,,73,64
38880,note_on,,1,0,12,,,,,,,,,,,,,,,,11,,58,64
38880,note_on,,1,0,9,,,,,,,,,,,,,,,,7,,65,64
38880,note_on,,1,0,7,,,,,,,,,,,,,,,,5,,73,64
38880,note_on,,1,0,13,,,,,,,,,,,,,,,,12,,65,64
38880,note_on,,1,0,8,,,,,,,,,,,,,,,,6,,58,64
38880,note_on,,1,0,11,,,,,,,,,,,,,,,,10,,73,64
38880,note_on,,1,0,15,,,,,,,,,,,,,,,,15,,73,64
39119,note_on,,239,0,11,,,,,,,,,,,,,,,,10,,73,0
39119,note_on,,239,0,5,,,,,,,,,,,,,,,,1,,73,0
39119,note_on,,1679,0,6,,,,,,,,,,,,,,,,2,,53,0
39119,note_on,,239,0,7,,,,,,,,,,,,,,,,5,,73,0
39119,note_on,,1679,0,10,,,,,,,,,,,,,,,,8,,53,0
39119,note_on,,0,0,15,,,,,,,,,,,,,,,,15,,77,0
39119,note_on,,1679,0,14,,,,,,,,,,,,,,,,13,,53,0
39119,note_on,,239,0,8,,,,,,,,,,,,,,,,6,,58,0
39119,note_on,,0,0,15,,,,,,,,,,,,,,,,15,,58,0
39119,note_on,,0,0,15,,,,,,,,,,,,,,,,15,,70,0
39119,note_on,,0,0,15,,,,,,,,,,,,,,,,15,,73,0
39119,note_on,,0,0,15,,,,,,,,,,,,,,,,15,,65,0
39119,note_on,,239,0,15,,,,,,,,,,,,,,,,15,,53,0
39119,note_on,,239,0,12,,,,,,,,,,,,,,,,11,,58,0
39120,note_on,,1,0,12,,,,,,,,,,,,,,,,11,,57,64
39120,note_on,,1,0,8,,,,,,,,,,,,,,,,6,,57,64
39120,note_on,,0,0,15,,,,,,,,,,,,,,,,15,,72,64
39120,note_on,,0,0,15,,,,,,,,,,,,,,,,15,,57,64
39120,note_on,,1,0,15,,,,,,,,,,,,,,,,15,,51,64
39120,note_on,,1,0,6,,,,,,,,,,,,,,,,2,,51,64
39120,note_on,,1,0,11,,,,,,,,,,,,,,,,10,,72,64
39120,note_on,,1,0,14,,,,,,,,,,,,,,,,13,,51,64
39120,note_on,,1,0,7,,,,,,,,,,,,,,,,5,,72,64
39120,note_on,,1,0,10,,,,,,,,,,,,,,,,8,,51,64
39120,note_on,,1,0,5,,,,,,,,,,,,,,,,1,,72,64
39120,note_on,,0,0,15,,,,,,,,,,,,,,,,15,,65,64
39359,note_on,,239,0,11,,,,,,,,,,,,,,,,10,,72,0
39359,note_on,,239,0,14,,,,,,,,,,,,,,,,13,,51,0
39359,note_on,,239,0,12,,,,,,,,,,,,,,,,11,,57,0
39359,note_on,,239,0,6,,,,,,,,,,,,,,,,2,,51,0
39359,note_on,,0,0,15,,,,,,,,,,,,,,,,15,,65,0
39359,note_on,,239,0,15,,,,,,,,,,,,,,,,15,,51,0
39359,note_on,,0,0,15,,,,,,,,,,,,,,,,15,,57,0
39359,note_on,,239,0,10,,,,,,,,,,,,,,,,8,,51,0
39359,note_on,,479,0,13,,,,,,,,,,,,,,,,12,,65,0
39359,note_on,,239,0,5,,,,,,,,,,,,,,,,1,,72,0
39359,note_on,,239,0,7,,,,,,,,,,,,,,,,5,,72,0
39359,note_on,,0,0,15,,,,,,,,,,,,,,,,15,,72,0
39359,note_on,,479,0,9,,,,,,,,,,,,,,,,7,,65,0
39359,note_on,,239,0,8,,,,,,,,,,,,,,,,6,,57,0
39360,note_on,,1,0,14,,,,,,,,,,,,,,,,13,,49,64
39360,note_on,,0,0,15,,,,,,,,,,,,,,,,15,,58,64
39360,note_on,,1,0,11,,,,,,,,,,,,,,,,10,,70,64
39360,note_on,,1,0,6,,,,,,,,,,,,,,,,2,,49,64
39360,note_on,,1,0,7,,,,,,,,,,,,,,,,5,,70,64
39360,note_on,,1,0,10,,,,,,,,,,,,,,,,8,,49,64
39360,note_on,,0,0,15,,,,,,,,,,,,,,,,15,,65,64
39360,note_on,,0,0,15,,,,,,,,,,,,,,,,15,,61,64
39360,note_on,,1,0,15,,,,,,,,,,,,,,,,15,,49,64
39360,note_on,,0,0,15,,,,,,,,,,,,,,,,15,,70,64
39360,note_on,,1,0,8,,,,,,,,,,,,,,,,6,,65,64
39360,note_on,,1,0,5,,,,,,,,,,,,,,,,1,,70,64
39360,note_on,,1,0,12,,,,,,,,,,,,,,,,11,,65,64
39599,note_on,,239,0,10,,,,,,,,,,,,,,,,8,,49,0
39599,note_on,,239,0,14,,,,,,,,,,,,,,,,13,,49,0
39599,note_on,,0,0,15,,,,,,,,,,,,,,,,15,,58,0
39599,note_on,,0,0,15,,,,,,,,,,,,,,,,15,,61,0
39599,note_on,,0,0,15,,,,,,,,,,,,,,,,15,,65,0
39599,note_on,,0,0,15,,,,,,,,,,,,,,,,15,,70,0
39599,note_on,,239,0,15,,,,,,,,,,,,,,,,15,,49,0
39599,note_on,,239,0,7,,,,,,,,,,,,,,,,5,,70,0
39599,note_on,,239,0,6,,,,,,,,,,,,,,,,2,,49,0
39599,note_on,,239,0,5,,,,,,,,,,,,,,,,1,,70,0
39599,note_on,,239,0,11,,,,,,,,,,,,,,,,10,,70,0
39600,note_on,,1,0,10,,,,,,,,,,,,,,,,8,,51,64
39600,note_on,,1,0,6,,,,,,,,,,,,,,,,2,,51,64
39600,note_on,,0,0,15,,,,,,,,,,,,,,,,15,,53,64
39600,note_on,,0,0,15,,,,,,,,,,,,,,,,15,,60,64
39600,note_on,,0,0,15,,,,,,,,,,,,,,,,15,,65,64
39600,note_on,,0,0,15,,,,,,,,,,,,,,,,15,,69,64
39600,note_on,,1,0,15,,,,,,,,,,,,,,,,15,,51,64
39600,note_on,,1,0,11,,,,,,,,,,,,,,,,10,,69,64
39600,note_on,,1,0,7,,,,,,,,,,,,,,,,5,,69,64
39600,note_on,,1,0,5,,,,,,,,,,,,,,,,1,,69,64
39600,note_on,,1,0,14,,,,,,,,,,,,,,,,13,,51,64
39839,note_on,,479,0,12,,,,,,,,,,,,,,,,11,,65,0
39839,note_on,,479,0,8,,,,,,,,,,,,,,,,6,,65,0
39839,note_on,,239,0,5,,,,,,,,,,,,,,,,1,,69,0
39839,note_on,,239,0,6,,,,,,,,,,,,,,,,2,,51,0
39839,note_on,,239,0,15,,,,,,,,,,,,,,,,15,,51,0
39839,note_on,,0,0,15,,,,,,,,,,,,,,,,15,,65,0
39839,note_on,,0,0,15,,,,,,,,,,,,,,,,15,,69,0
39839,note_on,,239,0,7,,,,,,,,,,,,,,,,5,,69,0
39839,note_on,,239,0,10,,,,,,,,,,,,,,,,8,,51,0
39839,note_on,,239,0,11,,,,,,,,,,,,,,,,10,,69,0
39839,note_on,,0,0,15,,,,,,,,,,,,,,,,15,,60,0
39839,note_on,,239,0,14,,,,,,,,,,,,,,,,13,,51,0
39840,note_on,,1,0,7,,,,,,,,,,,,,,,,5,,70,64
39840,note_on,,1,0,14,,,,,,,,,,,,,,,,13,,49,64
39840,note_on,,0,0,15,,,,,,,,,,,,,,,,15,,70,64
39840,note_on,,1,0,5,,,,,,,,,,,,,,,,1,,70,64
39840,note_on,,1,0,6,,,,,,,,,,,,,,,,2,,49,64
39840,note_on,,0,0,15,,,,,,,,,,,,,,,,15,,61,64
39840,note_on,,0,0,15,,,,,,,,,,,,,,,,15,,65,64
39840,note_on,,1,0,15,,,,,,,,,,,,,,,,15,,49,64
39840,note_on,,1,0,11,,,,,,,,,,,,,,,,10,,70,64
39840,note_on,,1,0,10,,,,,,,,,,,,,,,,8,,49,64
40079,note_on,,239,0,7,,,,,,,,,,,,,,,,5,,70,0
40079,note_on,,239,0,6,,,,,,,,,,,,,,,,2,,49,0
40079,note_on,,0,0,15,,,,,,,,,,,,,,,,15,,70,0
40079,note_on,,239,0,5,,,,,,,,,,,,,,,,1,,70,0
40079,note_on,,239,0,14,,,,,,,,,,,,,,,,13,,49,0
40079,note_on,,239,0,10,,,,,,,,,,,,,,,,8,,49,0
40079,note_on,,0,0,15,,,,,,,,,,,,,,,,15,,61,0
40079,note_on,,0,0,15,,,,,,,,,,,,,,,,15,,65,0
40079,note_on,,0,0,15,,,,,,,,,,,,,,,,15,,49,0
40079,note_on,,239,0,15,,,,,,,,,,,,,,,,15,,53,0
40079,note_on,,239,0,11,,,,,,,,,,,,,,,,10,,70,0
40080,note_on,,1,0,14,,,,,,,,,,,,,,,,13,,48,64
40080,note_on,,1,0,15,,,,,,,,,,,,,,,,15,,48,64
40080,note_on,,0,0,15,,,,,,,,,,,,,,,,15,,63,64
40080,note_on,,1,0,6,,,,,,,,,,,,,,,,2,,48,64
40080,note_on,,1,0,7,,,,,,,,,,,,,,,,5,,72,64
40080,note_on,,0,0,15,,,,,,,,,,,,,,,,15,,52,64
40080,note_on,,0,0,15,,,,,,,,,,,,,,,,15,,69,64
40080,note_on,,0,0,15,,,,,,,,,,,,,,,,15,,72,64
40080,note_on,,1,0,11,,,,,,,,,,,,,,,,10,,72,64
40080,note_on,,1,0,5,,,,,,,,,,,,,,,,1,,72,64
40080,note_on,,1,0,10,,,,,,,,,,,,,,,,8,,48,64
40319,note_on,,239,0,6,,,,,,,,,,,,,,,,2,,48,0
40319,note_on,,239,0,10,,,,,,,,,,,,,,,,8,,48,0
40319,note_on,,239,0,7,,,,,,,,,,,,,,,,5,,72,0
40319,note_on,,239,0,11,,,,,,,,,,,,,,,,10,,72,0
40319,note_on,,239,0,15,,,,,,,,,,,,,,,,15,,48,0
40319,note_on,,0,0,15,,,,,,,,,,,,,,,,15,,72,0
40319,note_on,,0,0,15,,,,,,,,,,,,,,,,15,,69,0
40319,note_on,,239,0,5,,,,,,,,,,,,,,,,1,,72,0
40319,note_on,,0,0,15,,,,,,,,,,,,,,,,15,,63,0
40319,note_on,,0,0,15,,,,,,,,,,,,,,,,15,,52,0
40319,note_on,,239,0,14,,,,,,,,,,,,,,,,13,,48,0
40320,note_on,,1,0,14,,,,,,,,,,,,,,,,13,,46,64
40320,note_on,,1,0,7,,,,,,,,,,,,,,,,5,,73,64
40320,note_on,,1,0,15,,,,,,,,,,,,,,,,15,,46,64
40320,note_on,,0,0,15,,,,,,,,,,,,,,,,15,,73,64
40320,note_on,,0,0,15,,,,,,,,,,,,,,,,15,,70,64
40320,note_on,,0,0,15,,,,,,,,,,,,,,,,15,,61,64
40320,note_on,,1,0,11,,,,,,,,,,,,,,,,10,,73,64
40320,note_on,,1,0,6,,,,,,,,,,,,,,,,2,,46,64
40320,note_on,,1,0,5,,,,,,,,,,,,,,,,1,,73,64
40320,note_on,,1,0,10,,,,,,,,,,,,,,,,8,,46,64
40320,note_on,,0,0,15,,,,,,,,,,,,,,,,15,,53,64
40559,note_on,,0,0,15,,,,,,,,,,,,,,,,15,,61,0
40559,note_on,,0,0,15,,,,,,,,,,,,,,,,15,,53,0
40559,note_on,,239,0,15,,,,,,,,,,,,,,,,15,,70,0
40560,note_on,,1,0,15,,,,,,,,,,,,,,,,15,,60,64
40560,note_on,,0,0,15,,,,,,,,,,,,,,,,15,,68,64
40560,note_on,,721,0,12,,,,,,,,,,,,,,,,11,,68,64
40560,note_on,,1201,0,13,,,,,,,,,,,,,,,,12,,60,64
40560,note_on,,721,0,8,,,,,,,,,,,,,,,,6,,68,64
40560,note_on,,1201,0,9,,,,,,,,,,,,,,,,7,,60,64
40799,note_on,,239,0,8,,,,,,,,,,,,,,,,6,,68,0
40799,note_on,,0,0,15,,,,,,,,,,,,,,,,15,,68,0
40799,note_on,,0,0,15,,,,,,,,,,,,,,,,15,,60,0
40799,note_on,,239,0,15,,,,,,,,,,,,,,,,15,,73,0
40799,note_on,,239,0,9,,,,,,,,,,,,,,,,7,,60,0
40799,note_on,,239,0,13,,,,,,,,,,,,,,,,12,,60,0
40799,note_on,,239,0,12,,,,,,,,,,,,,,,,11,,68,0
40800,note_on,,1,0,12,,,,,,,,,,,,,,,,11,,67,64
40800,note_on,,1,0,13,,,,,,,,,,,,,,,,12,,58,64
40800,note_on,,1,0,15,,,,,,,,,,,,,,,,15,,73,64
40800,note_on,,1,0,9,,,,,,,,,,,,,,,,7,,58,64
40800,note_on,,0,0,15,,,,,,,,,,,,,,,,15,,58,64
40800,note_on,,1,0,8,,,,,,,,,,,,,,,,6,,67,64
40800,note_on,,0,0,15,,,,,,,,,,,,,,,,15,,67,64
41039,note_on,,719,0,7,,,,,,,,,,,,,,,,5,,73,0
41039,note_on,,239,0,9,,,,,,,,,,,,,,,,7,,58,0
41039,note_on,,239,0,15,,,,,,,,,,,,,,,,15,,67,0
41039,note_on,,0,0,15,,,,,,,,,,,,,,,,15,,58,0
41039,note_on,,719,0,11,,,,,,,,,,,,,,,,10,,73,0
41039,note_on,,239,0,13,,,,,,,,,,,,,,,,12,,58,0
41039,note_on,,239,0,12,,,,,,,,,,,,,,,,11,,67,0
41039,note_on,,239,0,8,,,,,,,,,,,,,,,,6,,67,0
41039,note_on,,719,0,5,,,,,,,,,,,,,,,,1,,73,0
41040,note_on,,0,0,15,,,,,,,,,,,,,,,,15,,56,64
41040,note_on,,1,0,13,,,,,,,,,,,,,,,,12,,56,64
41040,note_on,,1,0,7,,,,,,,,,,,,,,,,5,,73,64
41040,note_on,,1,0,8,,,,,,,,,,,,,,,,6,,65,64
41040,note_on,,1,0,9,,,,,,,,,,,,,,,,7,,56,64
41040,note_on,,1,0,5,,,,,,,,,,,,,,,,1,,73,64
41040,note_on,,1,0,11,,,,,,,,,,,,,,,,10,,73,64
41040,note_on,,1,0,15,,,,,,,,,,,,,,,,15,,65,64
41040,note_on,,1,0,12,,,,,,,,,,,,,,,,11,,65,64
41279,note_on,,239,0,11,,,,,,,,,,,,,,,,10,,73,0
41279,note_on,,239,0,12,,,,,,,,,,,,,,,,11,,65,0
41279,note_on,,239,0,13,,,,,,,,,,,,,,,,12,,56,0
41279,note_on,,239,0,5,,,,,,,,,,,,,,,,1,,73,0
41279,note_on,,239,0,8,,,,,,,,,,,,,,,,6,,65,0
41279,note_on,,239,0,7,,,,,,,,,,,,,,,,5,,73,0
41279,note_on,,239,0,15,,,,,,,,,,,,,,,,15,,73,0
41279,note_on,,0,0,15,,,,,,,,,,,,,,,,15,,65,0
41279,note_on,,0,0,15,,,,,,,,,,,,,,,,15,,56,0
41279,note_on,,239,0,9,,,,,,,,,,,,,,,,7,,56,0
41280,note_on,,1,0,8,,,,,,,,,,,,,,,,6,,64,64
41280,note_on,,1,0,11,,,,,,,,,,,,,,,,10,,72,64
41280,note_on,,1,0,15,,,,,,,,,,,,,,,,15,,72,64
41280,note_on,,1,0,7,,,,,,,,,,,,,,,,5,,72,64
41280,note_on,,0,0,15,,,,,,,,,,,,,,,,15,,55,64
41280,note_on,,0,0,15,,,,,,,,,,,,,,,,15,,64,64
41280,note_on,,0,0,15,,,,,,,,,,,,,,,,15,,67,64
41280,note_on,,1,0,9,,,,,,,,,,,,,,,,7,,55,64
41280,note_on,,1,0,5,,,,,,,,,,,,,,,,1,,72,64
41280,note_on,,1,0,12,,,,,,,,,,,,,,,,11,,64,64
41280,note_on,,1,0,13,,,,,,,,,,,,,,,,12,,55,64
41969,note_on,,689,0,12,,,,,,,,,,,,,,,,11,,64,0
41969,note_on,,689,0,11,,,,,,,,,,,,,,,,10,,72,0
41969,note_on,,689,0,7,,,,,,,,,,,,,,,,5,,72,0
41969,note_on,,1649,0,10,,,,,,,,,,,,,,,,8,,46,0
41969,note_on,,689,0,9,,,,,,,,,,,,,,,,7,,55,0
41969,note_on,,689,0,8,,,,,,,,,,,,,,,,6,,64,0
41969,note_on,,689,0,5,,,,,,,,,,,,,,,,1,,72,0
41969,note_on,,689,0,13,,,,,,,,,,,,,,,,12,,55,0
41999,note_on,,719,0,15,,,,,,,,,,,,,,,,15,,46,0
41999,note_on,,0,0,15,,,,,,,,,,,,,,,,15,,72,0
41999,note_on,,0,0,15,,,,,,,,,,,,,,,,15,,67,0
41999,note_on,,1679,0,14,,,,,,,,,,,,,,,,13,,46,0
41999,note_on,,1679,0,6,,,,,,,,,,,,,,,,2,,46,0
41999,note_on,,0,0,15,,,,,,,,,,,,,,,,15,,55,0
41999,note_on,,0,0,15,,,,,,,,,,,,,,,,15,,64,0
42000,note_on,,31,0,11,,,,,,,,,,,,,,,,10,,72,48
42000,note_on,,0,0,15,,,,,,,,,,,,,,,,15,,72,48
42000,note_on,,0,0,15,,,,,,,,,,,,,,,,15,,67,48
42000,note_on,,0,0,15,,,,,,,,,,,,,,,,15,,64,48
42000,note_on,,31,0,7,,,,,,,,,,,,,,,,5,,72,48
42000,note_on,,31,0,8,,,,,,,,,,,,,,,,6,,64,48
42000,note_on,,31,0,10,,,,,,,,,,,,,,,,8,,46,48
42000,note_on,,31,0,9,,,,,,,,,,,,,,,,7,,55,48
42000,note_on,,31,0,12,,,,,,,,,,,,,,,,11,,64,48
42000,note_on,,1,0,15,,,,,,,,,,,,,,,,15,,46,48
42000,note_on,,0,0,15,,,,,,,,,,,,,,,,15,,55,48
42000,note_on,,1,0,14,,,,,,,,,,,,,,,,13,,46,48
42000,note_on,,31,0,13,,,,,,,,,,,,,,,,12,,55,48
42000,note_on,,31,0,5,,,,,,,,,,,,,,,,1,,72,48
42000,note_on,,1,0,6,,,,,,,,,,,,,,,,2,,46,48
42119,note_on,,119,0,10,,,,,,,,,,,,,,,,8,,46,0
42119,note_on,,119,0,15,,,,,,,,,,,,,,,,15,,46,0
42119,note_on,,119,0,6,,,,,,,,,,,,,,,,2,,46,0
42119,note_on,,119,0,5,,,,,,,,,,,,,,,,1,,72,0
42119,note_on,,119,0,9,,,,,,,,,,,,,,,,7,,55,0
42119,note_on,,119,0,14,,,,,,,,,,,,,,,,13,,46,0
42119,note_on,,119,0,8,,,,,,,,,,,,,,,,6,,64,0
42119,note_on,,119,0,7,,,,,,,,,,,,,,,,5,,72,0
42119,note_on,,119,0,11,,,,,,,,,,,,,,,,10,,72,0
42119,note_on,,119,0,12,,,,,,,,,,,,,,,,11,,64,0
42119,note_on,,119,0,13,,,,,,,,,,,,,,,,12,,55,0
42120,note_on,,1,0,7,,,,,,,,,,,,,,,,5,,72,48
42120,note_on,,1,0,11,,,,,,,,,,,,,,,,10,,72,48
42120,note_on,,1,0,5,,,,,,,,,,,,,,,,1,,72,48
42120,note_on,,1,0,13,,,,,,,,,,,,,,,,12,,55,48
42120,note_on,,1,0,10,,,,,,,,,,,,,,,,8,,46,48
42120,note_on,,1,0,15,,,,,,,,,,,,,,,,15,,46,48
42120,note_on,,1,0,12,,,,,,,,,,,,,,,,11,,64,48
42120,note_on,,1,0,6,,,,,,,,,,,,,,,,2,,46,48
42120,note_on,,1,0,9,,,,,,,,,,,,,,,,7,,55,48
42120,note_on,,1,0,14,,,,,,,,,,,,,,,,13,,46,48
42120,note_on,,1,0,8,,,,,,,,,,,,,,,,6,,64,48
42239,note_on,,0,0,15,,,,,,,,,,,,,,,,15,,64,0
42239,note_on,,0,0,15,,,,,,,,,,,,,,,,15,,55,0
42239,note_on,,119,0,10,,,,,,,,,,,,,,,,8,,46,0
42239,note_on,,119,0,14,,,,,,,,,,,,,,,,13,,46,0
42239,note_on,,119,0,11,,,,,,,,,,,,,,,,10,,72,0
42239,note_on,,119,0,12,,,,,,,,,,,,,,,,11,,64,0
42239,note_on,,119,0,8,,,,,,,,,,,,,,,,6,,64,0
42239,note_on,,119,0,5,,,,,,,,,,,,,,,,1,,72,0
42239,note_on,,119,0,9,,,,,,,,,,,,,,,,7,,55,0
42239,note_on,,119,0,13,,,,,,,,,,,,,,,,12,,55,0
42239,note_on,,0,0,15,,,,,,,,,,,,,,,,15,,46,0
42239,note_on,,119,0,7,,,,,,,,,,,,,,,,5,,72,0
42239,note_on,,0,0,15,,,,,,,,,,,,,,,,15,,67,0
42239,note_on,,119,0,15,,,,,,,,,,,,,,,,15,,72,0
42239,note_on,,119,0,6,,,,,,,,,,,,,,,,2,,46,0
42240,note_on,,0,0,15,,,,,,,,,,,,,,,,15,,56,48
42240,note_on,,1,0,14,,,,,,,,,,,,,,,,13,,44,48
42240,note_on,,0,0,15,,,,,,,,,,,,,,,,15,,60,48
42240,note_on,,0,0,15,,,,,,,,,,,,,,,,15,,65,48
42240,note_on,,1,0,11,,,,,,,,,,,,,,,,10,,72,48
42240,note_on,,1,0,9,,,,,,,,,,,,,,,,7,,60,48
42240,note_on,,1,0,6,,,,,,,,,,,,,,,,2,,44,48
42240,note_on,,1,0,7,,,,,,,,,,,,,,,,5,,72,48
42240,note_on,,0,0,15,,,,,,,,,,,,,,,,15,,72,48
42240,note_on,,1,0,15,,,,,,,,,,,,,,,,15,,44,48
42240,note_on,,1,0,8,,,,,,,,,,,,,,,,6,,65,48
42240,note_on,,1,0,12,,,,,,,,,,,,,,,,11,,65,48
42240,note_on,,1,0,13,,,,,,,,,,,,,,,,12,,60,48
42240,note_on,,1,0,5,,,,,,,,,,,,,,,,1,,72,48
42240,note_on,,1,0,10,,,,,,,,,,,,,,,,8,,44,48
42359,note_on,,119,0,8,,,,,,,,,,,,,,,,6,,65,0
42359,note_on,,119,0,9,,,,,,,,,,,,,,,,7,,60,0
42359,note_on,,119,0,7,,,,,,,,,,,,,,,,5,,72,0
42359,note_on,,119,0,10,,,,,,,,,,,,,,,,8,,44,0
42359,note_on,,119,0,14,,,,,,,,,,,,,,,,13,,44,0
42359,note_on,,119,0,5,,,,,,,,,,,,,,,,1,,72,0
42359,note_on,,119,0,11,,,,,,,,,,,,,,,,10,,72,0
42359,note_on,,119,0,15,,,,,,,,,,,,,,,,15,,44,0
42359,note_on,,119,0,13,,,,,,,,,,,,,,,,12,,60,0
42359,note_on,,119,0,12,,,,,,,,,,,,,,,,11,,65,0
42359,note_on,,119,0,6,,,,,,,,,,,,,,,,2,,44,0
42360,note_on,,1,0,7,,,,,,,,,,,,,,,,5,,72,48
42360,note_on,,1,0,11,,,,,,,,,,,,,,,,10,,72,48
42360,note_on,,1,0,10,,,,,,,,,,,,,,,,8,,44,48
42360,note_on,,1,0,14,,,,,,,,,,,,,,,,13,,44,48
42360,note_on,,1,0,12,,,,,,,,,,,,,,,,11,,65,48
42360,note_on,,1,0,5,,,,,,,,,,,,,,,,1,,72,48
42360,note_on,,1,0,8,,,,,,,,,,,,,,,,6,,65,48
42360,note_on,,1,0,13,,,,,,,,,,,,,,,,12,,60,48
42360,note_on,,1,0,15,,,,,,,,,,,,,,,,15,,44,48
42360,note_on,,1,0,9,,,,,,,,,,,,,,,,7,,60,48
42360,note_on,,1,0,6,,,,,,,,,,,,,,,,2,,44,48
42479,note_on,,119,0,5,,,,,,,,,,,,,,,,1,,72,0
42479,note_on,,119,0,12,,,,,,,,,,,,,,,,11,,65,0
42479,note_on,,119,0,8,,,,,,,,,,,,,,,,6,,65,0
42479,note_on,,119,0,13,,,,,,,,,,,,,,,,12,,60,0
42479,note_on,,119,0,14,,,,,,,,,,,,,,,,13,,44,0
42479,note_on,,119,0,11,,,,,,,,,,,,,,,,10,,72,0
42479,note_on,,119,0,15,,,,,,,,,,,,,,,,15,,72,0
42479,note_on,,0,0,15,,,,,,,,,,,,,,,,15,,65,0
42479,note_on,,0,0,15,,,,,,,,,,,,,,,,15,,60,0
42479,note_on,,0,0,15,,,,,,,,,,,,,,,,15,,56,0
42479,note_on,,119,0,6,,,,,,,,,,,,,,,,2,,44,0
42479,note_on,,0,0,15,,,,,,,,,,,,,,,,15,,44,0
42479,note_on,,119,0,7,,,,,,,,,,,,,,,,5,,72,0
42479,note_on,,119,0,9,,,,,,,,,,,,,,,,7,,60,0
42479,note_on,,119,0,10,,,,,,,,,,,,,,,,8,,44,0
42480,note_on,,1,0,7,,,,,,,,,,,,,,,,5,,70,48
42480,note_on,,1,0,8,,,,,,,,,,,,,,,,6,,65,48
42480,note_on,,0,0,15,,,,,,,,,,,,,,,,15,,58,48
42480,note_on,,1,0,12,,,,,,,,,,,,,,,,11,,65,48
42480,note_on,,1,0,13,,,,,,,,,,,,,,,,12,,61,48
42480,note_on,,1,0,14,,,,,,,,,,,,,,,,13,,46,48
42480,note_on,,0,0,15,,,,,,,,,,,,,,,,15,,61,48
42480,note_on,,1,0,9,,,,,,,,,,,,,,,,7,,61,48
42480,note_on,,1,0,10,,,,,,,,,,,,,,,,8,,46,48
42480,note_on,,1,0,11,,,,,,,,,,,,,,,,10,,70,48
42480,note_on,,1,0,5,,,,,,,,,,,,,,,,1,,70,48
42480,note_on,,1,0,15,,,,,,,,,,,,,,,,15,,46,48
42480,note_on,,1,0,6,,,,,,,,,,,,,,,,2,,46,48
42480,note_on,,0,0,15,,,,,,,,,,,,,,,,15,,53,48
42480,note_on,,0,0,15,,,,,,,,,,,,,,,,15,,65,48
42719,note_on,,239,0,6,,,,,,,,,,,,,,,,2,,46,0
42719,note_on,,239,0,5,,,,,,,,,,,,,,,,1,,70,0
42719,note_on,,239,0,15,,,,,,,,,,,,,,,,15,,46,0
42719,note_on,,0,0,15,,,,,,,,,,,,,,,,15,,53,0
42719,note_on,,239,0,8,,,,,,,,,,,,,,,,6,,65,0
42719,note_on,,0,0,15,,,,,,,,,,,,,,,,15,,65,0
42719,note_on,,0,0,15,,,,,,,,,,,,,,,,15,,61,0
42719,note_on,,239,0,7,,,,,,,,,,,,,,,,5,,70,0
42719,note_on,,0,0,15,,,,,,,,,,,,,,,,15,,58,0
42719,note_on,,239,0,10,,,,,,,,,,,,,,,,8,,46,0
42719,note_on,,239,0,14,,,,,,,,,,,,,,,,13,,46,0
42719,note_on,,239,0,13,,,,,,,,,,,,,,,,12,,61,0
42719,note_on,,239,0,11,,,,,,,,,,,,,,,,10,,70,0
42719,note_on,,239,0,9,,,,,,,,,,,,,,,,7,,61,0
42719,note_on,,239,0,12,,,,,,,,,,,,,,,,11,,65,0
42720,note_on,,1,0,15,,,,,,,,,,,,,,,,15,,48,48
42720,note_on,,0,0,15,,,,,,,,,,,,,,,,15,,65,48
42720,note_on,,0,0,15,,,,,,,,,,,,,,,,15,,56,48
42720,note_on,,0,0,15,,,,,,,,,,,,,,,,15,,60,48
42720,note_on,,1,0,11,,,,,,,,,,,,,,,,10,,68,48
42720,note_on,,1,0,8,,,,,,,,,,,,,,,,6,,65,48
42720,note_on,,1,0,12,,,,,,,,,,,,,,,,11,,65,48
42720,note_on,,1,0,7,,,,,,,,,,,,,,,,5,,68,48
42720,note_on,,1,0,6,,,,,,,,,,,,,,,,2,,48,48
42720,note_on,,1,0,9,,,,,,,,,,,,,,,,7,,60,48
42720,note_on,,1,0,13,,,,,,,,,,,,,,,,12,,60,48
42720,note_on,,1,0,5,,,,,,,,,,,,,,,,1,,68,48
42720,note_on,,0,0,15,,,,,,,,,,,,,,,,15,,53,48
42720,note_on,,1,0,14,,,,,,,,,,,,,,,,13,,48,48
42720,note_on,,1,0,10,,,,,,,,,,,,,,,,8,,48,48
43199,note_on,,0,0,15,,,,,,,,,,,,,,,,15,,56,0
43199,note_on,,0,0,15,,,,,,,,,,,,,,,,15,,60,0
43199,note_on,,479,0,15,,,,,,,,,,,,,,,,15,,65,0
43199,note_on,,479,0,8,,,,,,,,,,,,,,,,6,,65,0
43199,note_on,,0,0,15,,,,,,,,,,,,,,,,15,,53,0
43199,note_on,,479,0,12,,,,,,,,,,,,,,,,11,,65,0
43200,note_on,,0,0,15,,,,,,,,,,,,,,,,15,,64,48
43200,note_on,,1,0,12,,,,,,,,,,,,,,,,11,,64,48
43200,note_on,,1,0,15,,,,,,,,,,,,,,,,15,,55,48
43200,note_on,,0,0,15,,,,,,,,,,,,,,,,15,,60,48
43200,note_on,,1,0,8,,,,,,,,,,,,,,,,6,,64,48
43439,note_on,,719,0,10,,,,,,,,,,,,,,,,8,,48,0
43439,note_on,,719,0,14,,,,,,,,,,,,,,,,13,,48,0
43439,note_on,,719,0,13,,,,,,,,,,,,,,,,12,,60,0
43439,note_on,,719,0,6,,,,,,,,,,,,,,,,2,,48,0
43439,note_on,,719,0,9,,,,,,,,,,,,,,,,7,,60,0
43439,note_on,,239,0,15,,,,,,,,,,,,,,,,15,,48,0
43440,note_on,,1,0,14,,,,,,,,,,,,,,,,13,,48,48
43440,note_on,,1,0,13,,,,,,,,,,,,,,,,12,,60,48
43440,note_on,,1,0,6,,,,,,,,,,,,,,,,2,,48,48
43440,note_on,,1,0,15,,,,,,,,,,,,,,,,15,,48,48
43440,note_on,,1,0,10,,,,,,,,,,,,,,,,8,,48,48
43440,note_on,,1,0,9,,,,,,,,,,,,,,,,7,,60,48
43559,note_on,,839,0,11,,,,,,,,,,,,,,,,10,,68,0
43559,note_on,,839,0,5,,,,,,,,,,,,,,,,1,,68,0
43559,note_on,,839,0,7,,,,,,,,,,,,,,,,5,,68,0
43560,note_on,,1,0,11,,,,,,,,,,,,,,,,10,,65,48
43560,note_on,,1,0,5,,,,,,,,,,,,,,,,1,,65,48
43560,note_on,,1,0,7,,,,,,,,,,,,,,,,5,,65,48
43679,note_on,,239,0,9,,,,,,,,,,,,,,,,7,,60,0
43679,note_on,,0,0,15,,,,,,,,,,,,,,,,15,,48,0
43679,note_on,,0,0,15,,,,,,,,,,,,,,,,15,,60,0
43679,note_on,,479,0,12,,,,,,,,,,,,,,,,11,,64,0
43679,note_on,,119,0,5,,,,,,,,,,,,,,,,1,,65,0
43679,note_on,,239,0,13,,,,,,,,,,,,,,,,12,,60,0
43679,note_on,,479,0,8,,,,,,,,,,,,,,,,6,,64,0
43679,note_on,,239,0,14,,,,,,,,,,,,,,,,13,,48,0
43679,note_on,,239,0,15,,,,,,,,,,,,,,,,15,,55,0
43679,note_on,,0,0,15,,,,,,,,,,,,,,,,15,,64,0
43679,note_on,,239,0,10,,,,,,,,,,,,,,,,8,,48,0
43679,note_on,,119,0,7,,,,,,,,,,,,,,,,5,,65,0
43679,note_on,,119,0,11,,,,,,,,,,,,,,,,10,,65,0
43679,note_on,,239,0,6,,,,,,,,,,,,,,,,2,,48,0
43680,note_on,,1,0,15,,,,,,,,,,,,,,,,15,,41,48
43680,note_on,,1,0,10,,,,,,,,,,,,,,,,8,,53,48
43680,note_on,,1,0,8,,,,,,,,,,,,,,,,6,,65,48
43680,note_on,,1,0,12,,,,,,,,,,,,,,,,11,,65,48
43680,note_on,,1,0,7,,,,,,,,,,,,,,,,5,,65,48
43680,note_on,,1,0,5,,,,,,,,,,,,,,,,1,,65,48
43680,note_on,,0,0,15,,,,,,,,,,,,,,,,15,,56,48
43680,note_on,,1,0,13,,,,,,,,,,,,,,,,12,,56,48
43680,note_on,,1,0,9,,,,,,,,,,,,,,,,7,,56,48
43680,note_on,,1,0,14,,,,,,,,,,,,,,,,13,,41,48
43680,note_on,,0,0,15,,,,,,,,,,,,,,,,15,,60,48
43680,note_on,,1,0,11,,,,,,,,,,,,,,,,10,,65,48
43680,note_on,,1,0,6,,,,,,,,,,,,,,,,2,,41,48
43680,note_on,,0,0,15,,,,,,,,,,,,,,,,15,,53,48
43680,note_on,,0,0,15,,,,,,,,,,,,,,,,15,,65,48
44639,note_on,,0,0,15,,,,,,,,,,,,,,,,15,,56,0
44639,note_on,,0,0,15,,,,,,,,,,,,,,,,15,,60,0
44639,note_on,,0,0,15,,,,,,,,,,,,,,,,15,,65,0
44639,note_on,,959,0,15,,,,,,,,,,,,,,,,15,,41,0
44639,note_on,,959,0,14,,,,,,,,,,,,,,,,13,,41,0
44639,note_on,,959,0,9,,,,,,,,,,,,,,,,7,,56,0
44639,end_of_track,,0,1,13,,,,,,,,,,,,,,,,,,,
44639,note_on,,959,0,13,,,,,,,,,,,,,,,,12,,56,0
44639,end_of_track,,0,1,12,,,,,,,,,,,,,,,,,,,
44639,note_on,,959,0,12,,,,,,,,,,,,,,,,11,,65,0
44639,note_on,,0,0,15,,,,,,,,,,,,,,,,15,,53,0
44639,end_of_track,,0,1,11,,,,,,,,,,,,,,,,,,,
44639,note_on,,959,0,11,,,,,,,,,,,,,,,,10,,65,0
44639,end_of_track,,0,1,10,,,,,,,,,,,,,,,,,,,
44639,note_on,,959,0,10,,,,,,,,,,,,,,,,8,,53,0
44639,end_of_track,,0,1,9,,,,,,,,,,,,,,,,,,,
44639,end_of_track,,0,1,15,,,,,,,,,,,,,,,,,,,
44639,end_of_track,,0,1,8,,,,,,,,,,,,,,,,,,,
44639,note_on,,959,0,8,,,,,,,,,,,,,,,,6,,65,0
44639,end_of_track,,0,1,14,,,,,,,,,,,,,,,,,,,
44639,end_of_track,,0,1,7,,,,,,,,,,,,,,,,,,,
44639,note_on,,959,0,7,,,,,,,,,,,,,,,,5,,65,0
44639,end_of_track,,0,1,6,,,,,,,,,,,,,,,,,,,
44639,note_on,,959,0,6,,,,,,,,,,,,,,,,2,,41,0
44639,end_of_track,,0,1,5,,,,,,,,,,,,,,,,,,,
44639,note_on,,959,0,5,,,,,,,,,,,,,,,,1,,65,0
44640,set_tempo,,8400,1,0,,,,,,,,,800000,,,,,,,,,,
45120,end_of_track,,0,1,0,,,,,,,,,,,,,,,,,,,
45120,set_tempo,,480,1,0,,,,,,,,,500000,,,,,,,,,,
