tick,type,data,time,meta,track,frame_rate,hours,minutes,seconds,frames,sub_frames,port,key,tempo,numerator,denominator,clocks_per_click,notated_32nd_notes_per_beat,control,value,channel,program,note,velocity
0,sequencer_specific,"(0, 0, 91, 35, 1, 0, 5, 4, 35, 0)",0,1,0,,,,,,,,,,,,,,,,,,,
0,control_change,,0,0,11,,,,,,,,,,,,,,10,80,8,,,
0,control_change,,0,0,11,,,,,,,,,,,,,,7,96,8,,,
0,control_change,,0,0,11,,,,,,,,,,,,,,11,127,8,,,
0,midi_port,,0,1,11,,,,,,,0,,,,,,,,,,,,
0,track_name,,0,1,11,,,,,,,,,,,,,,,,,,,
0,track_name,,0,1,15,,,,,,,,,,,,,,,,,,,
0,program_change,,0,0,10,,,,,,,,,,,,,,,,7,70,,
0,control_change,,0,0,10,,,,,,,,,,,,,,7,96,7,,,
0,control_change,,0,0,10,,,,,,,,,,,,,,10,48,7,,,
0,control_change,,0,0,10,,,,,,,,,,,,,,11,127,7,,,
0,midi_port,,0,1,10,,,,,,,0,,,,,,,,,,,,
0,track_name,,0,1,10,,,,,,,,,,,,,,,,,,,
0,note_on,,0,0,16,,,,,,,,,,,,,,,,15,,55,72
0,note_on,,0,0,16,,,,,,,,,,,,,,,,15,,58,72
0,program_change,,0,0,11,,,,,,,,,,,,,,,,8,60,,
0,note_on,,0,0,16,,,,,,,,,,,,,,,,15,,63,72
0,program_change,,0,0,16,,,,,,,,,,,,,,,,15,6,,
0,control_change,,0,0,16,,,,,,,,,,,,,,7,96,15,,,
0,control_change,,0,0,16,,,,,,,,,,,,,,10,90,15,,,
0,control_change,,0,0,16,,,,,,,,,,,,,,11,127,15,,,
0,program_change,,0,0,9,,,,,,,,,,,,,,,,6,73,,
0,control_change,,0,0,9,,,,,,,,,,,,,,10,96,6,,,
0,control_change,,0,0,9,,,,,,,,,,,,,,7,96,6,,,
0,control_change,,0,0,9,,,,,,,,,,,,,,11,127,6,,,
0,midi_port,,0,1,9,,,,,,,0,,,,,,,,,,,,
0,track_name,,0,1,9,,,,,,,,,,,,,,,,,,,
0,track_name,,0,1,8,,,,,,,,,,,,,,,,,,,
0,midi_port,,0,1,8,,,,,,,0,,,,,,,,,,,,
0,control_change,,0,0,8,,,,,,,,,,,,,,11,127,5,,,
0,control_change,,0,0,8,,,,,,,,,,,,,,10,32,5,,,
0,note_on,,0,0,16,,,,,,,,,,,,,,,,15,,51,72
0,control_change,,0,0,8,,,,,,,,,,,,,,7,96,5,,,
0,track_name,,0,1,12,,,,,,,,,,,,,,,,,,,
0,control_change,,0,0,12,,,,,,,,,,,,,,11,127,10,,,
0,control_change,,0,0,15,,,,,,,,,,,,,,11,127,13,,,
0,control_change,,0,0,15,,,,,,,,,,,,,,10,96,13,,,
0,control_change,,0,0,15,,,,,,,,,,,,,,7,96,13,,,
0,program_change,,0,0,15,,,,,,,,,,,,,,,,13,48,,
0,note_on,,0,0,15,,,,,,,,,,,,,,,,13,,51,72
0,note_on,,0,0,14,,,,,,,,,,,,,,,,12,,58,72
0,program_change,,0,0,14,,,,,,,,,,,,,,,,12,48,,
0,control_change,,0,0,14,,,,,,,,,,,,,,7,96,12,,,
0,control_change,,0,0,14,,,,,,,,,,,,,,10,80,12,,,
0,control_change,,0,0,14,,,,,,,,,,,,,,11,127,12,,,
0,midi_port,,0,1,14,,,,,,,0,,,,,,,,,,,,
0,track_name,,0,1,14,,,,,,,,,,,,,,,,,,,
0,note_on,,0,0,13,,,,,,,,,,,,,,,,11,,63,72
0,program_change,,0,0,13,,,,,,,,,,,,,,,,11,48,,
0,midi_port,,0,1,12,,,,,,,0,,,,,,,,,,,,
0,control_change,,0,0,13,,,,,,,,,,,,,,7,96,11,,,
0,control_change,,0,0,13,,,,,,,,,,,,,,11,127,11,,,
0,midi_port,,0,1,13,,,,,,,0,,,,,,,,,,,,
0,track_name,,0,1,13,,,,,,,,,,,,,,,,,,,
0,track_name,,0,1,7,,,,,,,,,,,,,,,,,,,
0,midi_port,,0,1,7,,,,,,,0,,,,,,,,,,,,
0,control_change,,0,0,7,,,,,,,,,,,,,,11,127,2,,,
0,control_change,,0,0,7,,,,,,,,,,,,,,10,65,2,,,
0,control_change,,0,0,7,,,,,,,,,,,,,,7,80,2,,,
0,program_change,,0,0,7,,,,,,,,,,,,,,,,2,70,,
0,note_on,,0,0,7,,,,,,,,,,,,,,,,2,,51,72
0,note_on,,0,0,12,,,,,,,,,,,,,,,,10,,67,72
0,program_change,,0,0,12,,,,,,,,,,,,,,,,10,48,,
0,control_change,,0,0,12,,,,,,,,,,,,,,7,96,10,,,
0,control_change,,0,0,12,,,,,,,,,,,,,,10,48,10,,,
0,control_change,,0,0,13,,,,,,,,,,,,,,10,24,11,,,
0,program_change,,0,0,8,,,,,,,,,,,,,,,,5,73,,
0,midi_port,,0,1,15,,,,,,,0,,,,,,,,,,,,
0,track_name,,0,1,5,,,,,,,,,,,,,,,,,,,
0,midi_port,,0,1,6,,,,,,,0,,,,,,,,,,,,
0,track_name,,0,1,6,,,,,,,,,,,,,,,,,,,
0,time_signature,,0,1,0,,,,,,,,,,4,4,24,8,,,,,,
0,end_of_track,,0,1,1,,,,,,,,,,,,,,,,,,,
0,track_name,,0,1,3,,,,,,,,,,,,,,,,,,,
0,program_change,,0,0,6,,,,,,,,,,,,,,,,1,68,,
0,control_change,,0,0,6,,,,,,,,,,,,,,7,80,1,,,
0,set_tempo,,0,1,0,,,,,,,,,600000,,,,,,,,,,
0,control_change,,0,0,6,,,,,,,,,,,,,,10,75,1,,,
0,control_change,,0,0,6,,,,,,,,,,,,,,11,127,1,,,
0,program_change,,0,0,5,,,,,,,,,,,,,,,,0,68,,
0,control_change,,0,0,5,,,,,,,,,,,,,,11,127,0,,,
0,midi_port,,0,1,5,,,,,,,0,,,,,,,,,,,,
0,track_name,,0,1,1,,,,,,,,,,,,,,,,,,,
0,track_name,,0,1,16,,,,,,,,,,,,,,,,,,,
0,midi_port,,0,1,1,,,,,,,0,,,,,,,,,,,,
0,key_signature,,0,1,0,,,,,,,,Eb,,,,,,,,,,,
0,midi_port,,0,1,0,,,,,,,0,,,,,,,,,,,,
0,smpte_offset,,0,1,0,25,32,0,3,0,0,,,,,,,,,,,,,
0,end_of_track,,0,1,4,,,,,,,,,,,,,,,,,,,
0,midi_port,,0,1,4,,,,,,,0,,,,,,,,,,,,
0,track_name,,0,1,0,,,,,,,,,,,,,,,,,,,
0,end_of_track,,0,1,3,,,,,,,,,,,,,,,,,,,
0,midi_port,,0,1,3,,,,,,,0,,,,,,,,,,,,
0,track_name,,0,1,2,,,,,,,,,,,,,,,,,,,
0,instrument_name,,0,1,0,,,,,,,,,,,,,,,,,,,
0,midi_port,,0,1,16,,,,,,,0,,,,,,,,,,,,
0,control_change,,0,0,5,,,,,,,,,,,,,,7,80,0,,,
0,control_change,,0,0,5,,,,,,,,,,,,,,10,75,0,,,
0,midi_port,,0,1,2,,,,,,,0,,,,,,,,,,,,
0,end_of_track,,0,1,2,,,,,,,,,,,,,,,,,,,
119,note_on,,0,0,16,,,,,,,,,,,,,,,,15,,58,0
119,note_on,,0,0,16,,,,,,,,,,,,,,,,15,,63,0
119,note_on,,0,0,16,,,,,,,,,,,,,,,,15,,55,0
119,note_on,,119,0,13,,,,,,,,,,,,,,,,11,,63,0
119,note_on,,119,0,16,,,,,,,,,,,,,,,,15,,51,0
119,note_on,,119,0,7,,,,,,,,,,,,,,,,2,,51,0
119,note_on,,119,0,15,,,,,,,,,,,,,,,,13,,51,0
119,note_on,,119,0,14,,,,,,,,,,,,,,,,12,,58,0
119,note_on,,119,0,12,,,,,,,,,,,,,,,,10,,67,0
120,note_on,,120,0,8,,,,,,,,,,,,,,,,5,,63,72
120,note_on,,120,0,5,,,,,,,,,,,,,,,,0,,63,72
239,note_on,,119,0,8,,,,,,,,,,,,,,,,5,,63,0
239,note_on,,119,0,5,,,,,,,,,,,,,,,,0,,63,0
240,note_on,,0,0,16,,,,,,,,,,,,,,,,15,,67,72
240,note_on,,121,0,14,,,,,,,,,,,,,,,,12,,63,72
240,note_on,,0,0,16,,,,,,,,,,,,,,,,15,,51,72
240,note_on,,1,0,8,,,,,,,,,,,,,,,,5,,67,72
240,note_on,,0,0,16,,,,,,,,,,,,,,,,15,,63,72
240,note_on,,1,0,5,,,,,,,,,,,,,,,,0,,67,72
240,note_on,,121,0,13,,,,,,,,,,,,,,,,11,,67,72
240,note_on,,121,0,7,,,,,,,,,,,,,,,,2,,51,72
240,note_on,,121,0,15,,,,,,,,,,,,,,,,13,,51,72
240,note_on,,121,0,16,,,,,,,,,,,,,,,,15,,58,72
240,note_on,,121,0,12,,,,,,,,,,,,,,,,10,,70,72
359,note_on,,119,0,5,,,,,,,,,,,,,,,,0,,67,0
359,note_on,,0,0,16,,,,,,,,,,,,,,,,15,,67,0
359,note_on,,0,0,16,,,,,,,,,,,,,,,,15,,63,0
359,note_on,,119,0,8,,,,,,,,,,,,,,,,5,,67,0
359,note_on,,119,0,16,,,,,,,,,,,,,,,,15,,58,0
359,note_on,,0,0,16,,,,,,,,,,,,,,,,15,,51,0
359,note_on,,119,0,7,,,,,,,,,,,,,,,,2,,51,0
359,note_on,,119,0,12,,,,,,,,,,,,,,,,10,,70,0
359,note_on,,119,0,14,,,,,,,,,,,,,,,,12,,63,0
359,note_on,,119,0,15,,,,,,,,,,,,,,,,13,,51,0
359,note_on,,119,0,13,,,,,,,,,,,,,,,,11,,67,0
360,note_on,,1,0,5,,,,,,,,,,,,,,,,0,,65,72
360,note_on,,1,0,8,,,,,,,,,,,,,,,,5,,65,72
419,note_on,,59,0,5,,,,,,,,,,,,,,,,0,,65,0
419,note_on,,59,0,8,,,,,,,,,,,,,,,,5,,65,0
420,note_on,,420,0,9,,,,,,,,,,,,,,,,6,,63,72
420,note_on,,1,0,5,,,,,,,,,,,,,,,,0,,63,72
420,note_on,,1,0,8,,,,,,,,,,,,,,,,5,,63,72
479,note_on,,59,0,9,,,,,,,,,,,,,,,,6,,63,0
479,note_on,,59,0,8,,,,,,,,,,,,,,,,5,,63,0
479,note_on,,59,0,5,,,,,,,,,,,,,,,,0,,63,0
480,note_on,,121,0,12,,,,,,,,,,,,,,,,10,,75,72
480,note_on,,0,0,16,,,,,,,,,,,,,,,,15,,55,72
480,note_on,,121,0,15,,,,,,,,,,,,,,,,13,,51,72
480,note_on,,0,0,16,,,,,,,,,,,,,,,,15,,63,72
480,note_on,,0,0,16,,,,,,,,,,,,,,,,15,,70,72
480,note_on,,121,0,16,,,,,,,,,,,,,,,,15,,51,72
480,note_on,,121,0,14,,,,,,,,,,,,,,,,12,,67,72
480,note_on,,1,0,9,,,,,,,,,,,,,,,,6,,67,72
480,note_on,,121,0,13,,,,,,,,,,,,,,,,11,,70,72
480,note_on,,1,0,8,,,,,,,,,,,,,,,,5,,70,72
480,note_on,,1,0,5,,,,,,,,,,,,,,,,0,,70,72
480,note_on,,121,0,7,,,,,,,,,,,,,,,,2,,51,72
599,note_on,,119,0,15,,,,,,,,,,,,,,,,13,,51,0
599,note_on,,119,0,14,,,,,,,,,,,,,,,,12,,67,0
599,note_on,,119,0,9,,,,,,,,,,,,,,,,6,,67,0
599,note_on,,119,0,12,,,,,,,,,,,,,,,,10,,75,0
599,note_on,,119,0,13,,,,,,,,,,,,,,,,11,,70,0
599,note_on,,0,0,16,,,,,,,,,,,,,,,,15,,55,0
599,note_on,,0,0,16,,,,,,,,,,,,,,,,15,,63,0
599,note_on,,0,0,16,,,,,,,,,,,,,,,,15,,70,0
599,note_on,,119,0,16,,,,,,,,,,,,,,,,15,,51,0
599,note_on,,119,0,7,,,,,,,,,,,,,,,,2,,51,0
600,note_on,,600,0,6,,,,,,,,,,,,,,,,1,,63,72
600,note_on,,1,0,9,,,,,,,,,,,,,,,,6,,65,72
659,note_on,,59,0,9,,,,,,,,,,,,,,,,6,,65,0
660,note_on,,1,0,9,,,,,,,,,,,,,,,,6,,63,72
660,note_on,,660,0,10,,,,,,,,,,,,,,,,7,,51,72
719,note_on,,239,0,8,,,,,,,,,,,,,,,,5,,70,0
719,note_on,,239,0,5,,,,,,,,,,,,,,,,0,,70,0
719,note_on,,59,0,10,,,,,,,,,,,,,,,,7,,51,0
719,note_on,,59,0,9,,,,,,,,,,,,,,,,6,,63,0
719,note_on,,119,0,6,,,,,,,,,,,,,,,,1,,63,0
720,note_on,,0,0,16,,,,,,,,,,,,,,,,15,,58,72
720,note_on,,121,0,15,,,,,,,,,,,,,,,,13,,51,72
720,note_on,,121,0,14,,,,,,,,,,,,,,,,12,,63,72
720,note_on,,121,0,13,,,,,,,,,,,,,,,,11,,79,72
720,note_on,,121,0,7,,,,,,,,,,,,,,,,2,,51,72
720,note_on,,1,0,10,,,,,,,,,,,,,,,,7,,55,72
720,note_on,,0,0,16,,,,,,,,,,,,,,,,15,,70,72
720,note_on,,121,0,12,,,,,,,,,,,,,,,,10,,82,72
720,note_on,,121,0,16,,,,,,,,,,,,,,,,15,,51,72
720,note_on,,0,0,16,,,,,,,,,,,,,,,,15,,79,72
720,note_on,,1,0,9,,,,,,,,,,,,,,,,6,,70,72
720,note_on,,0,0,16,,,,,,,,,,,,,,,,15,,75,72
720,note_on,,1,0,6,,,,,,,,,,,,,,,,1,,67,72
780,note_on,,61,0,5,,,,,,,,,,,,,,,,0,,75,72
780,note_on,,61,0,8,,,,,,,,,,,,,,,,5,,75,72
839,note_on,,59,0,8,,,,,,,,,,,,,,,,5,,75,0
839,note_on,,119,0,12,,,,,,,,,,,,,,,,10,,82,0
839,note_on,,119,0,16,,,,,,,,,,,,,,,,15,,51,0
839,note_on,,0,0,16,,,,,,,,,,,,,,,,15,,79,0
839,note_on,,0,0,16,,,,,,,,,,,,,,,,15,,75,0
839,note_on,,0,0,16,,,,,,,,,,,,,,,,15,,70,0
839,note_on,,0,0,16,,,,,,,,,,,,,,,,15,,58,0
839,note_on,,119,0,6,,,,,,,,,,,,,,,,1,,67,0
839,note_on,,59,0,5,,,,,,,,,,,,,,,,0,,75,0
839,note_on,,119,0,15,,,,,,,,,,,,,,,,13,,51,0
839,note_on,,119,0,10,,,,,,,,,,,,,,,,7,,55,0
839,note_on,,119,0,13,,,,,,,,,,,,,,,,11,,79,0
839,note_on,,119,0,14,,,,,,,,,,,,,,,,12,,63,0
839,note_on,,119,0,7,,,,,,,,,,,,,,,,2,,51,0
840,note_on,,1,0,6,,,,,,,,,,,,,,,,1,,65,72
840,note_on,,1,0,10,,,,,,,,,,,,,,,,7,,53,72
840,note_on,,1,0,5,,,,,,,,,,,,,,,,0,,75,72
840,note_on,,1,0,8,,,,,,,,,,,,,,,,5,,75,72
899,note_on,,59,0,8,,,,,,,,,,,,,,,,5,,75,0
899,note_on,,59,0,5,,,,,,,,,,,,,,,,0,,75,0
899,note_on,,59,0,6,,,,,,,,,,,,,,,,1,,65,0
899,note_on,,59,0,10,,,,,,,,,,,,,,,,7,,53,0
900,note_on,,1,0,8,,,,,,,,,,,,,,,,5,,79,72
900,note_on,,1,0,5,,,,,,,,,,,,,,,,0,,79,72
900,note_on,,61,0,15,,,,,,,,,,,,,,,,13,,51,72
900,note_on,,1,0,10,,,,,,,,,,,,,,,,7,,51,72
900,note_on,,1,0,6,,,,,,,,,,,,,,,,1,,63,72
900,note_on,,61,0,7,,,,,,,,,,,,,,,,2,,51,72
900,note_on,,61,0,16,,,,,,,,,,,,,,,,15,,51,72
900,note_on,,900,0,11,,,,,,,,,,,,,,,,8,,51,72
959,note_on,,59,0,10,,,,,,,,,,,,,,,,7,,51,0
959,note_on,,59,0,7,,,,,,,,,,,,,,,,2,,51,0
959,note_on,,59,0,15,,,,,,,,,,,,,,,,13,,51,0
959,note_on,,59,0,11,,,,,,,,,,,,,,,,8,,51,0
959,note_on,,59,0,6,,,,,,,,,,,,,,,,1,,63,0
959,note_on,,59,0,5,,,,,,,,,,,,,,,,0,,79,0
959,note_on,,239,0,9,,,,,,,,,,,,,,,,6,,70,0
959,note_on,,59,0,8,,,,,,,,,,,,,,,,5,,79,0
959,note_on,,59,0,16,,,,,,,,,,,,,,,,15,,51,0
960,note_on,,121,0,14,,,,,,,,,,,,,,,,12,,63,72
960,note_on,,1,0,8,,,,,,,,,,,,,,,,5,,75,72
960,note_on,,1,0,6,,,,,,,,,,,,,,,,1,,70,72
960,note_on,,1,0,15,,,,,,,,,,,,,,,,13,,55,72
960,note_on,,1,0,16,,,,,,,,,,,,,,,,15,,55,72
960,note_on,,1,0,5,,,,,,,,,,,,,,,,0,,75,72
960,note_on,,0,0,16,,,,,,,,,,,,,,,,15,,75,72
960,note_on,,0,0,16,,,,,,,,,,,,,,,,15,,70,72
960,note_on,,0,0,16,,,,,,,,,,,,,,,,15,,63,72
960,note_on,,0,0,16,,,,,,,,,,,,,,,,15,,58,72
960,note_on,,1,0,7,,,,,,,,,,,,,,,,2,,55,72
960,note_on,,1,0,10,,,,,,,,,,,,,,,,7,,58,72
960,note_on,,121,0,12,,,,,,,,,,,,,,,,10,,70,72
960,note_on,,1,0,11,,,,,,,,,,,,,,,,8,,55,72
960,note_on,,121,0,13,,,,,,,,,,,,,,,,11,,67,72
1020,note_on,,61,0,9,,,,,,,,,,,,,,,,6,,70,72
1079,note_on,,0,0,16,,,,,,,,,,,,,,,,15,,58,0
1079,note_on,,0,0,16,,,,,,,,,,,,,,,,15,,70,0
1079,note_on,,0,0,16,,,,,,,,,,,,,,,,15,,75,0
1079,note_on,,119,0,16,,,,,,,,,,,,,,,,15,,55,0
1079,note_on,,119,0,6,,,,,,,,,,,,,,,,1,,70,0
1079,note_on,,119,0,15,,,,,,,,,,,,,,,,13,,55,0
1079,note_on,,0,0,16,,,,,,,,,,,,,,,,15,,63,0
1079,note_on,,119,0,7,,,,,,,,,,,,,,,,2,,55,0
1079,note_on,,119,0,14,,,,,,,,,,,,,,,,12,,63,0
1079,note_on,,119,0,11,,,,,,,,,,,,,,,,8,,55,0
1079,note_on,,59,0,9,,,,,,,,,,,,,,,,6,,70,0
1079,note_on,,119,0,13,,,,,,,,,,,,,,,,11,,67,0
1079,note_on,,119,0,8,,,,,,,,,,,,,,,,5,,75,0
1079,note_on,,119,0,12,,,,,,,,,,,,,,,,10,,70,0
1079,note_on,,119,0,5,,,,,,,,,,,,,,,,0,,75,0
1080,note_on,,1,0,7,,,,,,,,,,,,,,,,2,,53,72
1080,note_on,,1,0,15,,,,,,,,,,,,,,,,13,,53,72
1080,note_on,,1,0,16,,,,,,,,,,,,,,,,15,,53,72
1080,note_on,,1,0,9,,,,,,,,,,,,,,,,6,,68,72
1080,note_on,,1,0,11,,,,,,,,,,,,,,,,8,,53,72
1080,note_on,,1,0,6,,,,,,,,,,,,,,,,1,,68,72
1139,note_on,,59,0,7,,,,,,,,,,,,,,,,2,,53,0
1139,note_on,,59,0,6,,,,,,,,,,,,,,,,1,,68,0
1139,note_on,,59,0,16,,,,,,,,,,,,,,,,15,,53,0
1139,note_on,,59,0,9,,,,,,,,,,,,,,,,6,,68,0
1139,note_on,,59,0,15,,,,,,,,,,,,,,,,13,,53,0
1139,note_on,,59,0,11,,,,,,,,,,,,,,,,8,,53,0
1140,note_on,,1,0,6,,,,,,,,,,,,,,,,1,,67,72
1140,note_on,,1,0,15,,,,,,,,,,,,,,,,13,,51,72
1140,note_on,,61,0,8,,,,,,,,,,,,,,,,5,,75,72
1140,note_on,,1,0,11,,,,,,,,,,,,,,,,8,,51,72
1140,note_on,,1,0,7,,,,,,,,,,,,,,,,2,,51,72
1140,note_on,,1,0,9,,,,,,,,,,,,,,,,6,,67,72
1140,note_on,,1,0,16,,,,,,,,,,,,,,,,15,,51,72
1140,note_on,,61,0,5,,,,,,,,,,,,,,,,0,,75,72
1199,note_on,,59,0,11,,,,,,,,,,,,,,,,8,,51,0
1199,note_on,,59,0,6,,,,,,,,,,,,,,,,1,,67,0
1199,note_on,,59,0,8,,,,,,,,,,,,,,,,5,,75,0
1199,note_on,,59,0,7,,,,,,,,,,,,,,,,2,,51,0
1199,note_on,,239,0,10,,,,,,,,,,,,,,,,7,,58,0
1199,note_on,,59,0,9,,,,,,,,,,,,,,,,6,,67,0
1199,note_on,,59,0,16,,,,,,,,,,,,,,,,15,,51,0
1199,note_on,,59,0,5,,,,,,,,,,,,,,,,0,,75,0
1199,note_on,,59,0,15,,,,,,,,,,,,,,,,13,,51,0
1200,note_on,,1,0,8,,,,,,,,,,,,,,,,5,,74,72
1200,note_on,,1,0,11,,,,,,,,,,,,,,,,8,,58,72
1200,note_on,,121,0,12,,,,,,,,,,,,,,,,10,,74,72
1200,note_on,,121,0,13,,,,,,,,,,,,,,,,11,,65,72
1200,note_on,,1,0,15,,,,,,,,,,,,,,,,13,,58,72
1200,note_on,,1,0,5,,,,,,,,,,,,,,,,0,,74,72
1200,note_on,,1,0,6,,,,,,,,,,,,,,,,1,,65,72
1200,note_on,,0,0,16,,,,,,,,,,,,,,,,15,,65,72
1200,note_on,,1,0,9,,,,,,,,,,,,,,,,6,,65,72
1200,note_on,,1,0,7,,,,,,,,,,,,,,,,2,,58,72
1200,note_on,,0,0,16,,,,,,,,,,,,,,,,15,,70,72
1200,note_on,,0,0,16,,,,,,,,,,,,,,,,15,,74,72
1200,note_on,,1,0,16,,,,,,,,,,,,,,,,15,,58,72
1200,note_on,,121,0,14,,,,,,,,,,,,,,,,12,,58,72
1319,note_on,,119,0,13,,,,,,,,,,,,,,,,11,,65,0
1319,note_on,,119,0,14,,,,,,,,,,,,,,,,12,,58,0
1319,note_on,,119,0,15,,,,,,,,,,,,,,,,13,,58,0
1319,note_on,,119,0,8,,,,,,,,,,,,,,,,5,,74,0
1319,note_on,,119,0,5,,,,,,,,,,,,,,,,0,,74,0
1319,note_on,,119,0,12,,,,,,,,,,,,,,,,10,,74,0
1319,note_on,,0,0,16,,,,,,,,,,,,,,,,15,,65,0
1319,note_on,,0,0,16,,,,,,,,,,,,,,,,15,,70,0
1319,note_on,,0,0,16,,,,,,,,,,,,,,,,15,,74,0
1319,note_on,,119,0,16,,,,,,,,,,,,,,,,15,,58,0
1319,note_on,,119,0,7,,,,,,,,,,,,,,,,2,,58,0
1320,note_on,,1,0,8,,,,,,,,,,,,,,,,5,,72,72
1320,note_on,,1,0,5,,,,,,,,,,,,,,,,0,,72,72
1379,note_on,,59,0,5,,,,,,,,,,,,,,,,0,,72,0
1379,note_on,,59,0,8,,,,,,,,,,,,,,,,5,,72,0
1379,note_on,,179,0,6,,,,,,,,,,,,,,,,1,,65,0
1380,note_on,,181,0,10,,,,,,,,,,,,,,,,7,,58,72
1380,note_on,,1,0,5,,,,,,,,,,,,,,,,0,,70,72
1380,note_on,,1,0,6,,,,,,,,,,,,,,,,1,,62,72
1380,note_on,,1,0,8,,,,,,,,,,,,,,,,5,,70,72
1439,note_on,,59,0,6,,,,,,,,,,,,,,,,1,,62,0
1439,note_on,,59,0,8,,,,,,,,,,,,,,,,5,,70,0
1439,note_on,,59,0,5,,,,,,,,,,,,,,,,0,,70,0
1439,note_on,,239,0,9,,,,,,,,,,,,,,,,6,,65,0
1439,note_on,,59,0,10,,,,,,,,,,,,,,,,7,,58,0
1440,note_on,,1,0,5,,,,,,,,,,,,,,,,0,,77,72
1440,note_on,,1,0,8,,,,,,,,,,,,,,,,5,,77,72
1440,note_on,,121,0,15,,,,,,,,,,,,,,,,13,,58,72
1440,note_on,,1,0,6,,,,,,,,,,,,,,,,1,,74,72
1440,note_on,,121,0,14,,,,,,,,,,,,,,,,12,,70,72
1440,note_on,,0,0,16,,,,,,,,,,,,,,,,15,,62,72
1440,note_on,,121,0,13,,,,,,,,,,,,,,,,11,,74,72
1440,note_on,,121,0,7,,,,,,,,,,,,,,,,2,,58,72
1440,note_on,,121,0,16,,,,,,,,,,,,,,,,15,,58,72
1440,note_on,,121,0,12,,,,,,,,,,,,,,,,10,,77,72
1440,note_on,,0,0,16,,,,,,,,,,,,,,,,15,,70,72
1440,note_on,,0,0,16,,,,,,,,,,,,,,,,15,,77,72
1499,note_on,,59,0,6,,,,,,,,,,,,,,,,1,,74,0
1500,note_on,,1,0,6,,,,,,,,,,,,,,,,1,,77,72
1500,note_on,,61,0,9,,,,,,,,,,,,,,,,6,,65,72
1500,note_on,,61,0,10,,,,,,,,,,,,,,,,7,,53,72
1559,note_on,,119,0,7,,,,,,,,,,,,,,,,2,,58,0
1559,note_on,,59,0,9,,,,,,,,,,,,,,,,6,,65,0
1559,note_on,,0,0,16,,,,,,,,,,,,,,,,15,,77,0
1559,note_on,,0,0,16,,,,,,,,,,,,,,,,15,,70,0
1559,note_on,,0,0,16,,,,,,,,,,,,,,,,15,,62,0
1559,note_on,,119,0,13,,,,,,,,,,,,,,,,11,,74,0
1559,note_on,,119,0,15,,,,,,,,,,,,,,,,13,,58,0
1559,note_on,,119,0,16,,,,,,,,,,,,,,,,15,,58,0
1559,note_on,,359,0,11,,,,,,,,,,,,,,,,8,,58,0
1559,note_on,,119,0,12,,,,,,,,,,,,,,,,10,,77,0
1559,note_on,,59,0,6,,,,,,,,,,,,,,,,1,,77,0
1559,note_on,,119,0,14,,,,,,,,,,,,,,,,12,,70,0
1559,note_on,,59,0,10,,,,,,,,,,,,,,,,7,,53,0
1560,note_on,,1,0,11,,,,,,,,,,,,,,,,8,,46,72
1560,note_on,,1,0,16,,,,,,,,,,,,,,,,15,,46,72
1560,note_on,,1,0,15,,,,,,,,,,,,,,,,13,,46,72
1560,note_on,,1,0,9,,,,,,,,,,,,,,,,6,,63,72
1560,note_on,,1,0,7,,,,,,,,,,,,,,,,2,,46,72
1560,note_on,,1,0,6,,,,,,,,,,,,,,,,1,,75,72
1560,note_on,,1,0,10,,,,,,,,,,,,,,,,7,,51,72
1619,note_on,,59,0,6,,,,,,,,,,,,,,,,1,,75,0
1619,note_on,,59,0,10,,,,,,,,,,,,,,,,7,,51,0
1619,note_on,,59,0,9,,,,,,,,,,,,,,,,6,,63,0
1620,note_on,,1,0,10,,,,,,,,,,,,,,,,7,,50,72
1620,note_on,,1,0,6,,,,,,,,,,,,,,,,1,,74,72
1620,note_on,,1,0,9,,,,,,,,,,,,,,,,6,,62,72
1679,note_on,,59,0,6,,,,,,,,,,,,,,,,1,,74,0
1679,note_on,,59,0,10,,,,,,,,,,,,,,,,7,,50,0
1679,note_on,,119,0,15,,,,,,,,,,,,,,,,13,,46,0
1679,note_on,,239,0,5,,,,,,,,,,,,,,,,0,,77,0
1679,note_on,,119,0,7,,,,,,,,,,,,,,,,2,,46,0
1679,note_on,,59,0,9,,,,,,,,,,,,,,,,6,,62,0
1679,note_on,,239,0,8,,,,,,,,,,,,,,,,5,,77,0
1679,note_on,,119,0,11,,,,,,,,,,,,,,,,8,,46,0
1679,note_on,,119,0,16,,,,,,,,,,,,,,,,15,,46,0
1680,note_on,,121,0,13,,,,,,,,,,,,,,,,11,,77,72
1680,note_on,,1,0,6,,,,,,,,,,,,,,,,1,,82,72
1680,note_on,,1,0,7,,,,,,,,,,,,,,,,2,,50,72
1680,note_on,,121,0,12,,,,,,,,,,,,,,,,10,,82,72
1680,note_on,,1,0,11,,,,,,,,,,,,,,,,8,,50,72
1680,note_on,,1,0,9,,,,,,,,,,,,,,,,6,,70,72
1680,note_on,,1,0,15,,,,,,,,,,,,,,,,13,,50,72
1680,note_on,,121,0,14,,,,,,,,,,,,,,,,12,,62,72
1680,note_on,,1,0,16,,,,,,,,,,,,,,,,15,,50,72
1680,note_on,,0,0,16,,,,,,,,,,,,,,,,15,,65,72
1680,note_on,,0,0,16,,,,,,,,,,,,,,,,15,,58,72
1680,note_on,,0,0,16,,,,,,,,,,,,,,,,15,,70,72
1740,note_on,,61,0,5,,,,,,,,,,,,,,,,0,,77,72
1740,note_on,,61,0,8,,,,,,,,,,,,,,,,5,,77,72
1799,note_on,,119,0,13,,,,,,,,,,,,,,,,11,,77,0
1799,note_on,,0,0,16,,,,,,,,,,,,,,,,15,,58,0
1799,note_on,,0,0,16,,,,,,,,,,,,,,,,15,,65,0
1799,note_on,,0,0,16,,,,,,,,,,,,,,,,15,,70,0
1799,note_on,,119,0,12,,,,,,,,,,,,,,,,10,,82,0
1799,note_on,,59,0,5,,,,,,,,,,,,,,,,0,,77,0
1799,note_on,,59,0,8,,,,,,,,,,,,,,,,5,,77,0
1799,note_on,,119,0,11,,,,,,,,,,,,,,,,8,,50,0
1799,note_on,,119,0,7,,,,,,,,,,,,,,,,2,,50,0
1799,note_on,,119,0,16,,,,,,,,,,,,,,,,15,,50,0
1799,note_on,,119,0,15,,,,,,,,,,,,,,,,13,,50,0
1799,note_on,,119,0,14,,,,,,,,,,,,,,,,12,,62,0
1800,note_on,,1,0,8,,,,,,,,,,,,,,,,5,,75,72
1800,note_on,,1,0,11,,,,,,,,,,,,,,,,8,,48,72
1800,note_on,,1,0,5,,,,,,,,,,,,,,,,0,,75,72
1800,note_on,,1,0,15,,,,,,,,,,,,,,,,13,,48,72
1800,note_on,,1,0,16,,,,,,,,,,,,,,,,15,,48,72
1800,note_on,,1,0,7,,,,,,,,,,,,,,,,2,,48,72
1859,note_on,,59,0,16,,,,,,,,,,,,,,,,15,,48,0
1859,note_on,,59,0,8,,,,,,,,,,,,,,,,5,,75,0
1859,note_on,,59,0,15,,,,,,,,,,,,,,,,13,,48,0
1859,note_on,,59,0,11,,,,,,,,,,,,,,,,8,,48,0
1859,note_on,,59,0,5,,,,,,,,,,,,,,,,0,,75,0
1859,note_on,,59,0,7,,,,,,,,,,,,,,,,2,,48,0
1860,note_on,,1,0,7,,,,,,,,,,,,,,,,2,,46,72
1860,note_on,,1,0,11,,,,,,,,,,,,,,,,8,,46,72
1860,note_on,,1,0,16,,,,,,,,,,,,,,,,15,,46,72
1860,note_on,,1,0,15,,,,,,,,,,,,,,,,13,,46,72
1860,note_on,,1,0,5,,,,,,,,,,,,,,,,0,,74,72
1860,note_on,,1,0,8,,,,,,,,,,,,,,,,5,,74,72
1919,note_on,,59,0,16,,,,,,,,,,,,,,,,15,,46,0
1919,note_on,,59,0,5,,,,,,,,,,,,,,,,0,,74,0
1919,note_on,,59,0,11,,,,,,,,,,,,,,,,8,,46,0
1919,note_on,,59,0,15,,,,,,,,,,,,,,,,13,,46,0
1919,note_on,,59,0,7,,,,,,,,,,,,,,,,2,,46,0
1919,note_on,,59,0,8,,,,,,,,,,,,,,,,5,,74,0
1920,note_on,,1,0,15,,,,,,,,,,,,,,,,13,,51,72
1920,note_on,,1,0,8,,,,,,,,,,,,,,,,5,,79,72
1920,note_on,,1,0,7,,,,,,,,,,,,,,,,2,,51,72
1920,note_on,,0,0,16,,,,,,,,,,,,,,,,15,,58,72
1920,note_on,,0,0,16,,,,,,,,,,,,,,,,15,,63,72
1920,note_on,,121,0,12,,,,,,,,,,,,,,,,10,,79,72
1920,note_on,,121,0,14,,,,,,,,,,,,,,,,12,,70,72
1920,note_on,,0,0,16,,,,,,,,,,,,,,,,15,,67,72
1920,note_on,,1,0,11,,,,,,,,,,,,,,,,8,,51,72
1920,note_on,,1,0,5,,,,,,,,,,,,,,,,0,,79,72
1920,note_on,,1,0,16,,,,,,,,,,,,,,,,15,,51,72
1920,note_on,,121,0,13,,,,,,,,,,,,,,,,11,,75,72
2039,note_on,,119,0,16,,,,,,,,,,,,,,,,15,,51,0
2039,note_on,,0,0,16,,,,,,,,,,,,,,,,15,,67,0
2039,note_on,,0,0,16,,,,,,,,,,,,,,,,15,,63,0
2039,note_on,,0,0,16,,,,,,,,,,,,,,,,15,,58,0
2039,note_on,,119,0,14,,,,,,,,,,,,,,,,12,,70,0
2039,note_on,,119,0,15,,,,,,,,,,,,,,,,13,,51,0
2039,note_on,,119,0,8,,,,,,,,,,,,,,,,5,,79,0
2039,note_on,,119,0,5,,,,,,,,,,,,,,,,0,,79,0
2039,note_on,,359,0,9,,,,,,,,,,,,,,,,6,,70,0
2039,note_on,,119,0,11,,,,,,,,,,,,,,,,8,,51,0
2039,note_on,,359,0,6,,,,,,,,,,,,,,,,1,,82,0
2039,note_on,,119,0,7,,,,,,,,,,,,,,,,2,,51,0
2039,note_on,,119,0,13,,,,,,,,,,,,,,,,11,,75,0
2039,note_on,,119,0,12,,,,,,,,,,,,,,,,10,,79,0
2040,note_on,,1,0,13,,,,,,,,,,,,,,,,11,,68,72
2040,note_on,,1,0,8,,,,,,,,,,,,,,,,5,,74,72
2040,note_on,,1,0,5,,,,,,,,,,,,,,,,0,,74,72
2040,note_on,,1,0,9,,,,,,,,,,,,,,,,6,,68,72
2040,note_on,,361,0,10,,,,,,,,,,,,,,,,7,,56,72
2040,note_on,,1,0,14,,,,,,,,,,,,,,,,12,,65,72
2040,note_on,,1,0,11,,,,,,,,,,,,,,,,8,,53,72
2040,note_on,,0,0,16,,,,,,,,,,,,,,,,15,,68,72
2040,note_on,,0,0,16,,,,,,,,,,,,,,,,15,,62,72
2040,note_on,,1,0,12,,,,,,,,,,,,,,,,10,,74,72
2040,note_on,,1,0,16,,,,,,,,,,,,,,,,15,,53,72
2040,note_on,,1,0,15,,,,,,,,,,,,,,,,13,,53,72
2040,note_on,,1,0,7,,,,,,,,,,,,,,,,2,,53,72
2040,note_on,,1,0,6,,,,,,,,,,,,,,,,1,,80,72
2159,note_on,,119,0,10,,,,,,,,,,,,,,,,7,,56,0
2159,note_on,,119,0,14,,,,,,,,,,,,,,,,12,,65,0
2159,note_on,,119,0,9,,,,,,,,,,,,,,,,6,,68,0
2159,note_on,,119,0,12,,,,,,,,,,,,,,,,10,,74,0
2159,note_on,,119,0,5,,,,,,,,,,,,,,,,0,,74,0
2159,note_on,,119,0,16,,,,,,,,,,,,,,,,15,,53,0
2159,note_on,,0,0,16,,,,,,,,,,,,,,,,15,,68,0
2159,note_on,,0,0,16,,,,,,,,,,,,,,,,15,,62,0
2159,note_on,,119,0,13,,,,,,,,,,,,,,,,11,,68,0
2159,note_on,,119,0,8,,,,,,,,,,,,,,,,5,,74,0
2159,note_on,,119,0,11,,,,,,,,,,,,,,,,8,,53,0
2159,note_on,,119,0,7,,,,,,,,,,,,,,,,2,,53,0
2159,note_on,,119,0,6,,,,,,,,,,,,,,,,1,,80,0
2159,note_on,,119,0,15,,,,,,,,,,,,,,,,13,,53,0
2160,note_on,,1,0,14,,,,,,,,,,,,,,,,12,,63,72
2160,note_on,,1,0,7,,,,,,,,,,,,,,,,2,,55,72
2160,note_on,,0,0,16,,,,,,,,,,,,,,,,15,,75,72
2160,note_on,,0,0,16,,,,,,,,,,,,,,,,15,,70,72
2160,note_on,,0,0,16,,,,,,,,,,,,,,,,15,,63,72
2160,note_on,,1,0,16,,,,,,,,,,,,,,,,15,,55,72
2160,note_on,,1,0,8,,,,,,,,,,,,,,,,5,,75,72
2160,note_on,,1,0,12,,,,,,,,,,,,,,,,10,,75,72
2160,note_on,,1,0,15,,,,,,,,,,,,,,,,13,,55,72
2160,note_on,,1,0,6,,,,,,,,,,,,,,,,1,,79,72
2160,note_on,,1,0,9,,,,,,,,,,,,,,,,6,,67,72
2160,note_on,,1,0,11,,,,,,,,,,,,,,,,8,,55,72
2160,note_on,,1,0,5,,,,,,,,,,,,,,,,0,,75,72
2160,note_on,,1,0,13,,,,,,,,,,,,,,,,11,,70,72
2160,note_on,,1,0,10,,,,,,,,,,,,,,,,7,,58,72
2279,note_on,,119,0,12,,,,,,,,,,,,,,,,10,,75,0
2279,note_on,,119,0,7,,,,,,,,,,,,,,,,2,,55,0
2279,note_on,,119,0,13,,,,,,,,,,,,,,,,11,,70,0
2279,note_on,,119,0,16,,,,,,,,,,,,,,,,15,,55,0
2279,note_on,,0,0,16,,,,,,,,,,,,,,,,15,,75,0
2279,note_on,,0,0,16,,,,,,,,,,,,,,,,15,,70,0
2279,note_on,,0,0,16,,,,,,,,,,,,,,,,15,,63,0
2279,note_on,,119,0,6,,,,,,,,,,,,,,,,1,,79,0
2279,note_on,,119,0,9,,,,,,,,,,,,,,,,6,,67,0
2279,note_on,,119,0,10,,,,,,,,,,,,,,,,7,,58,0
2279,note_on,,119,0,15,,,,,,,,,,,,,,,,13,,55,0
2279,note_on,,119,0,11,,,,,,,,,,,,,,,,8,,55,0
2279,note_on,,119,0,14,,,,,,,,,,,,,,,,12,,63,0
2280,note_on,,0,0,16,,,,,,,,,,,,,,,,15,,65,72
2280,note_on,,1,0,14,,,,,,,,,,,,,,,,12,,68,72
2280,note_on,,1,0,13,,,,,,,,,,,,,,,,11,,65,72
2280,note_on,,1,0,7,,,,,,,,,,,,,,,,2,,56,72
2280,note_on,,1,0,9,,,,,,,,,,,,,,,,6,,65,72
2280,note_on,,1,0,11,,,,,,,,,,,,,,,,8,,56,72
2280,note_on,,1,0,10,,,,,,,,,,,,,,,,7,,60,72
2280,note_on,,1,0,6,,,,,,,,,,,,,,,,1,,77,72
2280,note_on,,1,0,12,,,,,,,,,,,,,,,,10,,72,72
2280,note_on,,1,0,15,,,,,,,,,,,,,,,,13,,56,72
2280,note_on,,0,0,16,,,,,,,,,,,,,,,,15,,68,72
2280,note_on,,1,0,16,,,,,,,,,,,,,,,,15,,56,72
2280,note_on,,0,0,16,,,,,,,,,,,,,,,,15,,72,72
2339,note_on,,179,0,8,,,,,,,,,,,,,,,,5,,75,0
2339,note_on,,179,0,5,,,,,,,,,,,,,,,,0,,75,0
2340,note_on,,1,0,8,,,,,,,,,,,,,,,,5,,77,72
2340,note_on,,1,0,5,,,,,,,,,,,,,,,,0,,77,72
2399,note_on,,119,0,15,,,,,,,,,,,,,,,,13,,56,0
2399,note_on,,119,0,11,,,,,,,,,,,,,,,,8,,56,0
2399,note_on,,0,0,16,,,,,,,,,,,,,,,,15,,65,0
2399,note_on,,119,0,14,,,,,,,,,,,,,,,,12,,68,0
2399,note_on,,59,0,5,,,,,,,,,,,,,,,,0,,77,0
2399,note_on,,0,0,16,,,,,,,,,,,,,,,,15,,68,0
2399,note_on,,0,0,16,,,,,,,,,,,,,,,,15,,72,0
2399,note_on,,119,0,16,,,,,,,,,,,,,,,,15,,56,0
2399,note_on,,59,0,8,,,,,,,,,,,,,,,,5,,77,0
2399,note_on,,119,0,13,,,,,,,,,,,,,,,,11,,65,0
2399,note_on,,119,0,7,,,,,,,,,,,,,,,,2,,56,0
2399,note_on,,119,0,6,,,,,,,,,,,,,,,,1,,77,0
2399,note_on,,119,0,12,,,,,,,,,,,,,,,,10,,72,0
2399,note_on,,119,0,9,,,,,,,,,,,,,,,,6,,65,0
2399,note_on,,119,0,10,,,,,,,,,,,,,,,,7,,60,0
2400,note_on,,0,0,16,,,,,,,,,,,,,,,,15,,62,72
2400,note_on,,1,0,10,,,,,,,,,,,,,,,,7,,58,72
2400,note_on,,1,0,8,,,,,,,,,,,,,,,,5,,74,72
2400,note_on,,1,0,14,,,,,,,,,,,,,,,,12,,62,72
2400,note_on,,0,0,16,,,,,,,,,,,,,,,,15,,65,72
2400,note_on,,1,0,16,,,,,,,,,,,,,,,,15,,58,72
2400,note_on,,1,0,9,,,,,,,,,,,,,,,,6,,65,72
2400,note_on,,1,0,11,,,,,,,,,,,,,,,,8,,58,72
2400,note_on,,1,0,15,,,,,,,,,,,,,,,,13,,58,72
2400,note_on,,1,0,12,,,,,,,,,,,,,,,,10,,70,72
2400,note_on,,1,0,6,,,,,,,,,,,,,,,,1,,77,72
2400,note_on,,1,0,13,,,,,,,,,,,,,,,,11,,65,72
2400,note_on,,1,0,5,,,,,,,,,,,,,,,,0,,74,72
2400,note_on,,1,0,7,,,,,,,,,,,,,,,,2,,58,72
2519,note_on,,119,0,15,,,,,,,,,,,,,,,,13,,58,0
2519,note_on,,0,0,16,,,,,,,,,,,,,,,,15,,62,0
2519,note_on,,0,0,16,,,,,,,,,,,,,,,,15,,65,0
2519,note_on,,119,0,16,,,,,,,,,,,,,,,,15,,58,0
2519,note_on,,119,0,11,,,,,,,,,,,,,,,,8,,58,0
2519,note_on,,119,0,12,,,,,,,,,,,,,,,,10,,70,0
2519,note_on,,119,0,13,,,,,,,,,,,,,,,,11,,65,0
2519,note_on,,119,0,10,,,,,,,,,,,,,,,,7,,58,0
2519,note_on,,119,0,14,,,,,,,,,,,,,,,,12,,62,0
2519,note_on,,119,0,7,,,,,,,,,,,,,,,,2,,58,0
2520,note_on,,1,0,10,,,,,,,,,,,,,,,,7,,53,72
2520,note_on,,1,0,13,,,,,,,,,,,,,,,,11,,62,72
2520,note_on,,1,0,12,,,,,,,,,,,,,,,,10,,65,72
2520,note_on,,1,0,11,,,,,,,,,,,,,,,,8,,46,72
2520,note_on,,1,0,14,,,,,,,,,,,,,,,,12,,58,72
2520,note_on,,1,0,16,,,,,,,,,,,,,,,,15,,46,72
2520,note_on,,1,0,7,,,,,,,,,,,,,,,,2,,46,72
2520,note_on,,1,0,15,,,,,,,,,,,,,,,,13,,46,72
2639,note_on,,119,0,10,,,,,,,,,,,,,,,,7,,53,0
2639,note_on,,119,0,13,,,,,,,,,,,,,,,,11,,62,0
2639,note_on,,119,0,12,,,,,,,,,,,,,,,,10,,65,0
2639,note_on,,119,0,11,,,,,,,,,,,,,,,,8,,46,0
2639,note_on,,119,0,16,,,,,,,,,,,,,,,,15,,46,0
2639,note_on,,119,0,7,,,,,,,,,,,,,,,,2,,46,0
2639,note_on,,119,0,14,,,,,,,,,,,,,,,,12,,58,0
2639,note_on,,119,0,15,,,,,,,,,,,,,,,,13,,46,0
2640,note_on,,1,0,10,,,,,,,,,,,,,,,,7,,58,72
2640,note_on,,1,0,13,,,,,,,,,,,,,,,,11,,65,72
2640,note_on,,1,0,11,,,,,,,,,,,,,,,,8,,50,72
2640,note_on,,1,0,7,,,,,,,,,,,,,,,,2,,50,72
2640,note_on,,1,0,15,,,,,,,,,,,,,,,,13,,50,72
2640,note_on,,1,0,14,,,,,,,,,,,,,,,,12,,58,72
2640,note_on,,1,0,12,,,,,,,,,,,,,,,,10,,70,72
2640,note_on,,0,0,16,,,,,,,,,,,,,,,,15,,77,72
2640,note_on,,0,0,16,,,,,,,,,,,,,,,,15,,70,72
2640,note_on,,0,0,16,,,,,,,,,,,,,,,,15,,65,72
2640,note_on,,1,0,16,,,,,,,,,,,,,,,,15,,50,72
2759,note_on,,0,0,16,,,,,,,,,,,,,,,,15,,77,0
2759,note_on,,119,0,14,,,,,,,,,,,,,,,,12,,58,0
2759,note_on,,119,0,11,,,,,,,,,,,,,,,,8,,50,0
2759,note_on,,119,0,10,,,,,,,,,,,,,,,,7,,58,0
2759,note_on,,0,0,16,,,,,,,,,,,,,,,,15,,70,0
2759,note_on,,359,0,5,,,,,,,,,,,,,,,,0,,74,0
2759,note_on,,119,0,13,,,,,,,,,,,,,,,,11,,65,0
2759,note_on,,0,0,16,,,,,,,,,,,,,,,,15,,65,0
2759,note_on,,119,0,15,,,,,,,,,,,,,,,,13,,50,0
2759,note_on,,119,0,7,,,,,,,,,,,,,,,,2,,50,0
2759,note_on,,119,0,12,,,,,,,,,,,,,,,,10,,70,0
2759,note_on,,119,0,16,,,,,,,,,,,,,,,,15,,50,0
2759,note_on,,359,0,6,,,,,,,,,,,,,,,,1,,77,0
2760,note_on,,1,0,16,,,,,,,,,,,,,,,,15,,48,72
2760,note_on,,1,0,5,,,,,,,,,,,,,,,,0,,68,72
2760,note_on,,1,0,11,,,,,,,,,,,,,,,,8,,48,72
2760,note_on,,1,0,6,,,,,,,,,,,,,,,,1,,75,72
2760,note_on,,1,0,10,,,,,,,,,,,,,,,,7,,62,72
2760,note_on,,1,0,15,,,,,,,,,,,,,,,,13,,48,72
2760,note_on,,1,0,7,,,,,,,,,,,,,,,,2,,48,72
2819,note_on,,59,0,16,,,,,,,,,,,,,,,,15,,48,0
2819,note_on,,59,0,15,,,,,,,,,,,,,,,,13,,48,0
2819,note_on,,59,0,10,,,,,,,,,,,,,,,,7,,62,0
2819,note_on,,59,0,7,,,,,,,,,,,,,,,,2,,48,0
2819,note_on,,59,0,11,,,,,,,,,,,,,,,,8,,48,0
2820,note_on,,1,0,11,,,,,,,,,,,,,,,,8,,46,72
2820,note_on,,1,0,16,,,,,,,,,,,,,,,,15,,46,72
2820,note_on,,1,0,7,,,,,,,,,,,,,,,,2,,46,72
2820,note_on,,1,0,15,,,,,,,,,,,,,,,,13,,46,72
2820,note_on,,1,0,10,,,,,,,,,,,,,,,,7,,63,72
2879,note_on,,59,0,11,,,,,,,,,,,,,,,,8,,46,0
2879,note_on,,119,0,5,,,,,,,,,,,,,,,,0,,68,0
2879,note_on,,59,0,15,,,,,,,,,,,,,,,,13,,46,0
2879,note_on,,479,0,9,,,,,,,,,,,,,,,,6,,65,0
2879,note_on,,59,0,16,,,,,,,,,,,,,,,,15,,46,0
2879,note_on,,119,0,6,,,,,,,,,,,,,,,,1,,75,0
2879,note_on,,479,0,8,,,,,,,,,,,,,,,,5,,74,0
2879,note_on,,59,0,7,,,,,,,,,,,,,,,,2,,46,0
2879,note_on,,59,0,10,,,,,,,,,,,,,,,,7,,63,0
2880,note_on,,1,0,10,,,,,,,,,,,,,,,,7,,65,72
2880,note_on,,1,0,5,,,,,,,,,,,,,,,,0,,77,72
2880,note_on,,0,0,16,,,,,,,,,,,,,,,,15,,65,72
2880,note_on,,0,0,16,,,,,,,,,,,,,,,,15,,70,72
2880,note_on,,1,0,15,,,,,,,,,,,,,,,,13,,58,72
2880,note_on,,0,0,16,,,,,,,,,,,,,,,,15,,74,72
2880,note_on,,1,0,6,,,,,,,,,,,,,,,,1,,74,72
2880,note_on,,1,0,11,,,,,,,,,,,,,,,,8,,58,72
2880,note_on,,1,0,16,,,,,,,,,,,,,,,,15,,58,72
2880,note_on,,1,0,7,,,,,,,,,,,,,,,,2,,58,72
3000,note_on,,121,0,8,,,,,,,,,,,,,,,,5,,74,72
3000,note_on,,241,0,13,,,,,,,,,,,,,,,,11,,74,72
3000,note_on,,121,0,9,,,,,,,,,,,,,,,,6,,65,72
3000,note_on,,241,0,14,,,,,,,,,,,,,,,,12,,70,72
3000,note_on,,241,0,12,,,,,,,,,,,,,,,,10,,77,72
3119,note_on,,119,0,13,,,,,,,,,,,,,,,,11,,74,0
3119,note_on,,119,0,12,,,,,,,,,,,,,,,,10,,77,0
3119,note_on,,119,0,14,,,,,,,,,,,,,,,,12,,70,0
3119,note_on,,119,0,8,,,,,,,,,,,,,,,,5,,74,0
3119,note_on,,119,0,9,,,,,,,,,,,,,,,,6,,65,0
3120,note_on,,1,0,9,,,,,,,,,,,,,,,,6,,62,72
3120,note_on,,1,0,12,,,,,,,,,,,,,,,,10,,74,72
3120,note_on,,1,0,13,,,,,,,,,,,,,,,,11,,70,72
3120,note_on,,1,0,8,,,,,,,,,,,,,,,,5,,70,72
3120,note_on,,1,0,14,,,,,,,,,,,,,,,,12,,65,72
3239,note_on,,359,0,5,,,,,,,,,,,,,,,,0,,77,0
3239,note_on,,119,0,13,,,,,,,,,,,,,,,,11,,70,0
3239,note_on,,119,0,9,,,,,,,,,,,,,,,,6,,62,0
3239,note_on,,119,0,8,,,,,,,,,,,,,,,,5,,70,0
3239,note_on,,119,0,14,,,,,,,,,,,,,,,,12,,65,0
3239,note_on,,359,0,6,,,,,,,,,,,,,,,,1,,74,0
3239,note_on,,119,0,12,,,,,,,,,,,,,,,,10,,74,0
3240,note_on,,1,0,12,,,,,,,,,,,,,,,,10,,72,72
3240,note_on,,1,0,6,,,,,,,,,,,,,,,,1,,72,72
3240,note_on,,1,0,14,,,,,,,,,,,,,,,,12,,65,72
3240,note_on,,1,0,5,,,,,,,,,,,,,,,,0,,75,72
3240,note_on,,1,0,9,,,,,,,,,,,,,,,,6,,60,72
3240,note_on,,1,0,8,,,,,,,,,,,,,,,,5,,75,72
3240,note_on,,1,0,13,,,,,,,,,,,,,,,,11,,63,72
3299,note_on,,59,0,13,,,,,,,,,,,,,,,,11,,63,0
3299,note_on,,59,0,5,,,,,,,,,,,,,,,,0,,75,0
3299,note_on,,59,0,9,,,,,,,,,,,,,,,,6,,60,0
3299,note_on,,59,0,8,,,,,,,,,,,,,,,,5,,75,0
3299,note_on,,59,0,12,,,,,,,,,,,,,,,,10,,72,0
3299,note_on,,59,0,6,,,,,,,,,,,,,,,,1,,72,0
3300,note_on,,1,0,8,,,,,,,,,,,,,,,,5,,74,72
3300,note_on,,1,0,12,,,,,,,,,,,,,,,,10,,70,72
3300,note_on,,1,0,6,,,,,,,,,,,,,,,,1,,70,72
3300,note_on,,1,0,9,,,,,,,,,,,,,,,,6,,58,72
3300,note_on,,1,0,5,,,,,,,,,,,,,,,,0,,74,72
3300,note_on,,1,0,13,,,,,,,,,,,,,,,,11,,62,72
3359,note_on,,0,0,16,,,,,,,,,,,,,,,,15,,70,0
3359,note_on,,0,0,16,,,,,,,,,,,,,,,,15,,65,0
3359,note_on,,59,0,12,,,,,,,,,,,,,,,,10,,70,0
3359,note_on,,119,0,14,,,,,,,,,,,,,,,,12,,65,0
3359,note_on,,59,0,9,,,,,,,,,,,,,,,,6,,58,0
3359,note_on,,59,0,5,,,,,,,,,,,,,,,,0,,74,0
3359,note_on,,479,0,16,,,,,,,,,,,,,,,,15,,58,0
3359,note_on,,0,0,16,,,,,,,,,,,,,,,,15,,74,0
3359,note_on,,59,0,13,,,,,,,,,,,,,,,,11,,62,0
3359,note_on,,59,0,8,,,,,,,,,,,,,,,,5,,74,0
3359,note_on,,59,0,6,,,,,,,,,,,,,,,,1,,70,0
3360,note_on,,1,0,6,,,,,,,,,,,,,,,,1,,77,72
3360,note_on,,1,0,12,,,,,,,,,,,,,,,,10,,82,72
3360,note_on,,1,0,8,,,,,,,,,,,,,,,,5,,74,72
3360,note_on,,1,0,16,,,,,,,,,,,,,,,,15,,74,72
3360,note_on,,0,0,16,,,,,,,,,,,,,,,,15,,70,72
3360,note_on,,0,0,16,,,,,,,,,,,,,,,,15,,65,72
3360,note_on,,0,0,16,,,,,,,,,,,,,,,,15,,58,72
3360,note_on,,1,0,14,,,,,,,,,,,,,,,,12,,65,72
3360,note_on,,1,0,9,,,,,,,,,,,,,,,,6,,70,72
3360,note_on,,1,0,13,,,,,,,,,,,,,,,,11,,62,72
3360,note_on,,1,0,5,,,,,,,,,,,,,,,,0,,82,72
3479,note_on,,119,0,14,,,,,,,,,,,,,,,,12,,65,0
3479,note_on,,0,0,16,,,,,,,,,,,,,,,,15,,58,0
3479,note_on,,119,0,8,,,,,,,,,,,,,,,,5,,74,0
3479,note_on,,599,0,7,,,,,,,,,,,,,,,,2,,58,0
3479,note_on,,119,0,13,,,,,,,,,,,,,,,,11,,62,0
3479,note_on,,599,0,11,,,,,,,,,,,,,,,,8,,58,0
3479,note_on,,599,0,10,,,,,,,,,,,,,,,,7,,65,0
3479,note_on,,0,0,16,,,,,,,,,,,,,,,,15,,70,0
3479,note_on,,119,0,16,,,,,,,,,,,,,,,,15,,74,0
3479,note_on,,0,0,16,,,,,,,,,,,,,,,,15,,65,0
3479,note_on,,119,0,6,,,,,,,,,,,,,,,,1,,77,0
3479,note_on,,599,0,15,,,,,,,,,,,,,,,,13,,58,0
3480,note_on,,1,0,11,,,,,,,,,,,,,,,,8,,58,72
3480,note_on,,0,0,16,,,,,,,,,,,,,,,,15,,65,72
3480,note_on,,0,0,16,,,,,,,,,,,,,,,,15,,70,72
3480,note_on,,1,0,14,,,,,,,,,,,,,,,,12,,65,72
3480,note_on,,1,0,8,,,,,,,,,,,,,,,,5,,74,72
3480,note_on,,1,0,16,,,,,,,,,,,,,,,,15,,58,72
3480,note_on,,0,0,16,,,,,,,,,,,,,,,,15,,74,72
3480,note_on,,1,0,7,,,,,,,,,,,,,,,,2,,58,72
3480,note_on,,1,0,15,,,,,,,,,,,,,,,,13,,58,72
3480,note_on,,1,0,13,,,,,,,,,,,,,,,,11,,74,72
3480,note_on,,1,0,6,,,,,,,,,,,,,,,,1,,74,72
3480,note_on,,1,0,10,,,,,,,,,,,,,,,,7,,65,72
3599,note_on,,119,0,10,,,,,,,,,,,,,,,,7,,65,0
3599,note_on,,119,0,14,,,,,,,,,,,,,,,,12,,65,0
3599,note_on,,119,0,6,,,,,,,,,,,,,,,,1,,74,0
3599,note_on,,119,0,15,,,,,,,,,,,,,,,,13,,58,0
3599,note_on,,119,0,11,,,,,,,,,,,,,,,,8,,58,0
3599,note_on,,119,0,16,,,,,,,,,,,,,,,,15,,58,0
3599,note_on,,0,0,16,,,,,,,,,,,,,,,,15,,74,0
3599,note_on,,119,0,8,,,,,,,,,,,,,,,,5,,74,0
3599,note_on,,119,0,7,,,,,,,,,,,,,,,,2,,58,0
3599,note_on,,0,0,16,,,,,,,,,,,,,,,,15,,65,0
3599,note_on,,119,0,13,,,,,,,,,,,,,,,,11,,74,0
3600,note_on,,1,0,10,,,,,,,,,,,,,,,,7,,63,72
3600,note_on,,1,0,8,,,,,,,,,,,,,,,,5,,75,72
3600,note_on,,1,0,13,,,,,,,,,,,,,,,,11,,75,72
3600,note_on,,1,0,6,,,,,,,,,,,,,,,,1,,75,72
3600,note_on,,1,0,7,,,,,,,,,,,,,,,,2,,60,72
3600,note_on,,0,0,16,,,,,,,,,,,,,,,,15,,63,72
3600,note_on,,0,0,16,,,,,,,,,,,,,,,,15,,75,72
3600,note_on,,1,0,16,,,,,,,,,,,,,,,,15,,60,72
3600,note_on,,1,0,14,,,,,,,,,,,,,,,,12,,63,72
3600,note_on,,1,0,15,,,,,,,,,,,,,,,,13,,60,72
3600,note_on,,1,0,11,,,,,,,,,,,,,,,,8,,60,72
3719,note_on,,119,0,11,,,,,,,,,,,,,,,,8,,60,0
3719,note_on,,119,0,16,,,,,,,,,,,,,,,,15,,70,0
3719,note_on,,0,0,16,,,,,,,,,,,,,,,,15,,60,0
3719,note_on,,0,0,16,,,,,,,,,,,,,,,,15,,75,0
3719,note_on,,0,0,16,,,,,,,,,,,,,,,,15,,63,0
3719,note_on,,119,0,7,,,,,,,,,,,,,,,,2,,60,0
3719,note_on,,119,0,13,,,,,,,,,,,,,,,,11,,75,0
3719,note_on,,119,0,6,,,,,,,,,,,,,,,,1,,75,0
3719,note_on,,359,0,9,,,,,,,,,,,,,,,,6,,70,0
3719,note_on,,119,0,15,,,,,,,,,,,,,,,,13,,60,0
3719,note_on,,119,0,8,,,,,,,,,,,,,,,,5,,75,0
3719,note_on,,119,0,14,,,,,,,,,,,,,,,,12,,63,0
3719,note_on,,359,0,5,,,,,,,,,,,,,,,,0,,82,0
3719,note_on,,119,0,10,,,,,,,,,,,,,,,,7,,63,0
3719,note_on,,359,0,12,,,,,,,,,,,,,,,,10,,82,0
3720,note_on,,1,0,11,,,,,,,,,,,,,,,,8,,62,72
3720,note_on,,1,0,14,,,,,,,,,,,,,,,,12,,70,72
3720,note_on,,1,0,7,,,,,,,,,,,,,,,,2,,62,72
3720,note_on,,1,0,13,,,,,,,,,,,,,,,,11,,77,72
3720,note_on,,1,0,12,,,,,,,,,,,,,,,,10,,80,72
3720,note_on,,1,0,15,,,,,,,,,,,,,,,,13,,62,72
3720,note_on,,1,0,9,,,,,,,,,,,,,,,,6,,68,72
3720,note_on,,1,0,6,,,,,,,,,,,,,,,,1,,77,72
3720,note_on,,1,0,16,,,,,,,,,,,,,,,,15,,62,72
3720,note_on,,0,0,16,,,,,,,,,,,,,,,,15,,70,72
3720,note_on,,1,0,8,,,,,,,,,,,,,,,,5,,77,72
3720,note_on,,1,0,10,,,,,,,,,,,,,,,,7,,62,72
3720,note_on,,0,0,16,,,,,,,,,,,,,,,,15,,68,72
3720,note_on,,0,0,16,,,,,,,,,,,,,,,,15,,65,72
3720,note_on,,1,0,5,,,,,,,,,,,,,,,,0,,80,72
3779,note_on,,59,0,9,,,,,,,,,,,,,,,,6,,68,0
3780,note_on,,1,0,9,,,,,,,,,,,,,,,,6,,68,72
3809,note_on,,89,0,5,,,,,,,,,,,,,,,,0,,80,0
3809,note_on,,89,0,12,,,,,,,,,,,,,,,,10,,80,0
3810,note_on,,1,0,5,,,,,,,,,,,,,,,,0,,82,72
3810,note_on,,1,0,12,,,,,,,,,,,,,,,,10,,82,72
3839,note_on,,119,0,14,,,,,,,,,,,,,,,,12,,70,0
3839,note_on,,119,0,7,,,,,,,,,,,,,,,,2,,62,0
3839,note_on,,29,0,5,,,,,,,,,,,,,,,,0,,82,0
3839,note_on,,29,0,12,,,,,,,,,,,,,,,,10,,82,0
3839,note_on,,119,0,16,,,,,,,,,,,,,,,,15,,62,0
3839,note_on,,119,0,8,,,,,,,,,,,,,,,,5,,77,0
3839,note_on,,0,0,16,,,,,,,,,,,,,,,,15,,65,0
3839,note_on,,119,0,13,,,,,,,,,,,,,,,,11,,77,0
3839,note_on,,119,0,10,,,,,,,,,,,,,,,,7,,62,0
3839,note_on,,119,0,11,,,,,,,,,,,,,,,,8,,62,0
3839,note_on,,59,0,9,,,,,,,,,,,,,,,,6,,68,0
3839,note_on,,0,0,16,,,,,,,,,,,,,,,,15,,70,0
3839,note_on,,119,0,15,,,,,,,,,,,,,,,,13,,62,0
3839,note_on,,119,0,6,,,,,,,,,,,,,,,,1,,77,0
3839,note_on,,0,0,16,,,,,,,,,,,,,,,,15,,68,0
3840,note_on,,1,0,11,,,,,,,,,,,,,,,,8,,63,72
3840,note_on,,1,0,5,,,,,,,,,,,,,,,,0,,79,72
3840,note_on,,1,0,9,,,,,,,,,,,,,,,,6,,67,72
3840,note_on,,1,0,8,,,,,,,,,,,,,,,,5,,70,72
3840,note_on,,1,0,6,,,,,,,,,,,,,,,,1,,70,72
3840,note_on,,1,0,13,,,,,,,,,,,,,,,,11,,70,72
3840,note_on,,1,0,15,,,,,,,,,,,,,,,,13,,63,72
3840,note_on,,1,0,14,,,,,,,,,,,,,,,,12,,70,72
3840,note_on,,1,0,7,,,,,,,,,,,,,,,,2,,63,72
3840,note_on,,1,0,10,,,,,,,,,,,,,,,,7,,67,72
3840,note_on,,1,0,12,,,,,,,,,,,,,,,,10,,79,72
3840,note_on,,1,0,16,,,,,,,,,,,,,,,,15,,63,72
3840,note_on,,0,0,16,,,,,,,,,,,,,,,,15,,70,72
3840,note_on,,0,0,16,,,,,,,,,,,,,,,,15,,67,72
3959,note_on,,119,0,16,,,,,,,,,,,,,,,,15,,63,0
3959,note_on,,119,0,10,,,,,,,,,,,,,,,,7,,67,0
3959,note_on,,119,0,9,,,,,,,,,,,,,,,,6,,67,0
3959,note_on,,119,0,15,,,,,,,,,,,,,,,,13,,63,0
3959,note_on,,119,0,5,,,,,,,,,,,,,,,,0,,79,0
3959,note_on,,119,0,7,,,,,,,,,,,,,,,,2,,63,0
3959,note_on,,119,0,12,,,,,,,,,,,,,,,,10,,79,0
3959,note_on,,119,0,13,,,,,,,,,,,,,,,,11,,70,0
3959,note_on,,119,0,14,,,,,,,,,,,,,,,,12,,70,0
3959,note_on,,119,0,8,,,,,,,,,,,,,,,,5,,70,0
3959,note_on,,119,0,6,,,,,,,,,,,,,,,,1,,70,0
3960,note_on,,1,0,12,,,,,,,,,,,,,,,,10,,70,72
3960,note_on,,1,0,8,,,,,,,,,,,,,,,,5,,70,72
3960,note_on,,1,0,9,,,,,,,,,,,,,,,,6,,67,72
3960,note_on,,1,0,15,,,,,,,,,,,,,,,,13,,51,72
3960,note_on,,1,0,7,,,,,,,,,,,,,,,,2,,51,72
3960,note_on,,1,0,5,,,,,,,,,,,,,,,,0,,70,72
3960,note_on,,1,0,6,,,,,,,,,,,,,,,,1,,67,72
3960,note_on,,1,0,14,,,,,,,,,,,,,,,,12,,63,72
3960,note_on,,1,0,13,,,,,,,,,,,,,,,,11,,67,72
3960,note_on,,1,0,10,,,,,,,,,,,,,,,,7,,63,72
3960,note_on,,1,0,16,,,,,,,,,,,,,,,,15,,51,72
4079,note_on,,119,0,8,,,,,,,,,,,,,,,,5,,70,0
4079,note_on,,0,0,16,,,,,,,,,,,,,,,,15,,51,0
4079,note_on,,119,0,15,,,,,,,,,,,,,,,,13,,51,0
4079,note_on,,119,0,16,,,,,,,,,,,,,,,,15,,70,0
4079,note_on,,119,0,13,,,,,,,,,,,,,,,,11,,67,0
4079,note_on,,119,0,12,,,,,,,,,,,,,,,,10,,70,0
4079,note_on,,119,0,5,,,,,,,,,,,,,,,,0,,70,0
4079,note_on,,0,0,16,,,,,,,,,,,,,,,,15,,67,0
4079,note_on,,119,0,10,,,,,,,,,,,,,,,,7,,63,0
4079,note_on,,119,0,7,,,,,,,,,,,,,,,,2,,51,0
4079,note_on,,119,0,14,,,,,,,,,,,,,,,,12,,63,0
4079,note_on,,119,0,6,,,,,,,,,,,,,,,,1,,67,0
4079,note_on,,119,0,9,,,,,,,,,,,,,,,,6,,67,0
4080,note_on,,0,0,16,,,,,,,,,,,,,,,,15,,75,72
4080,note_on,,1,0,6,,,,,,,,,,,,,,,,1,,68,72
4080,note_on,,1,0,14,,,,,,,,,,,,,,,,12,,63,72
4080,note_on,,1,0,5,,,,,,,,,,,,,,,,0,,72,72
4080,note_on,,1,0,13,,,,,,,,,,,,,,,,11,,68,72
4080,note_on,,1,0,10,,,,,,,,,,,,,,,,7,,63,72
4080,note_on,,1,0,8,,,,,,,,,,,,,,,,5,,72,72
4080,note_on,,1,0,15,,,,,,,,,,,,,,,,13,,51,72
4080,note_on,,1,0,9,,,,,,,,,,,,,,,,6,,68,72
4080,note_on,,1,0,12,,,,,,,,,,,,,,,,10,,72,72
4080,note_on,,0,0,16,,,,,,,,,,,,,,,,15,,63,72
4080,note_on,,0,0,16,,,,,,,,,,,,,,,,15,,68,72
4080,note_on,,0,0,16,,,,,,,,,,,,,,,,15,,72,72
4080,note_on,,1,0,7,,,,,,,,,,,,,,,,2,,51,72
4080,note_on,,1,0,16,,,,,,,,,,,,,,,,15,,51,72
4199,note_on,,119,0,10,,,,,,,,,,,,,,,,7,,63,0
4199,note_on,,119,0,13,,,,,,,,,,,,,,,,11,,68,0
4199,note_on,,119,0,14,,,,,,,,,,,,,,,,12,,63,0
4199,note_on,,119,0,9,,,,,,,,,,,,,,,,6,,68,0
4199,note_on,,119,0,8,,,,,,,,,,,,,,,,5,,72,0
4199,note_on,,119,0,5,,,,,,,,,,,,,,,,0,,72,0
4199,note_on,,119,0,12,,,,,,,,,,,,,,,,10,,72,0
4199,note_on,,119,0,6,,,,,,,,,,,,,,,,1,,68,0
4200,note_on,,1,0,9,,,,,,,,,,,,,,,,6,,67,72
4200,note_on,,1,0,12,,,,,,,,,,,,,,,,10,,70,72
4200,note_on,,1,0,10,,,,,,,,,,,,,,,,7,,63,72
4200,note_on,,1,0,5,,,,,,,,,,,,,,,,0,,70,72
4200,note_on,,1,0,8,,,,,,,,,,,,,,,,5,,70,72
4200,note_on,,1,0,14,,,,,,,,,,,,,,,,12,,63,72
4200,note_on,,1,0,13,,,,,,,,,,,,,,,,11,,67,72
4200,note_on,,1,0,6,,,,,,,,,,,,,,,,1,,67,72
4259,note_on,,59,0,5,,,,,,,,,,,,,,,,0,,70,0
4259,note_on,,59,0,6,,,,,,,,,,,,,,,,1,,67,0
4259,note_on,,59,0,8,,,,,,,,,,,,,,,,5,,70,0
4259,note_on,,59,0,12,,,,,,,,,,,,,,,,10,,70,0
4259,note_on,,59,0,9,,,,,,,,,,,,,,,,6,,67,0
4259,note_on,,59,0,13,,,,,,,,,,,,,,,,11,,67,0
4260,note_on,,1,0,5,,,,,,,,,,,,,,,,0,,68,72
4260,note_on,,1,0,6,,,,,,,,,,,,,,,,1,,65,72
4260,note_on,,1,0,8,,,,,,,,,,,,,,,,5,,68,72
4260,note_on,,1,0,9,,,,,,,,,,,,,,,,6,,65,72
4260,note_on,,1,0,12,,,,,,,,,,,,,,,,10,,68,72
4260,note_on,,1,0,13,,,,,,,,,,,,,,,,11,,65,72
4319,note_on,,0,0,16,,,,,,,,,,,,,,,,15,,72,0
4319,note_on,,239,0,16,,,,,,,,,,,,,,,,15,,75,0
4319,note_on,,59,0,9,,,,,,,,,,,,,,,,6,,65,0
4319,note_on,,59,0,12,,,,,,,,,,,,,,,,10,,68,0
4319,note_on,,59,0,8,,,,,,,,,,,,,,,,5,,68,0
4319,note_on,,59,0,6,,,,,,,,,,,,,,,,1,,65,0
4319,note_on,,59,0,5,,,,,,,,,,,,,,,,0,,68,0
4319,note_on,,0,0,16,,,,,,,,,,,,,,,,15,,63,0
4319,note_on,,59,0,13,,,,,,,,,,,,,,,,11,,65,0
4319,note_on,,119,0,14,,,,,,,,,,,,,,,,12,,63,0
4319,note_on,,119,0,10,,,,,,,,,,,,,,,,7,,63,0
4319,note_on,,0,0,16,,,,,,,,,,,,,,,,15,,68,0
4320,note_on,,1,0,16,,,,,,,,,,,,,,,,15,,75,72
4320,note_on,,0,0,16,,,,,,,,,,,,,,,,15,,70,72
4320,note_on,,0,0,16,,,,,,,,,,,,,,,,15,,63,72
4320,note_on,,1,0,6,,,,,,,,,,,,,,,,1,,67,72
4320,note_on,,1,0,10,,,,,,,,,,,,,,,,7,,58,72
4320,note_on,,0,0,16,,,,,,,,,,,,,,,,15,,67,72
4320,note_on,,1,0,9,,,,,,,,,,,,,,,,6,,67,72
4320,note_on,,1,0,14,,,,,,,,,,,,,,,,12,,58,72
4320,note_on,,1,0,12,,,,,,,,,,,,,,,,10,,75,72
4320,note_on,,1,0,13,,,,,,,,,,,,,,,,11,,67,72
4320,note_on,,1,0,8,,,,,,,,,,,,,,,,5,,75,72
4320,note_on,,1,0,5,,,,,,,,,,,,,,,,0,,75,72
4439,note_on,,119,0,6,,,,,,,,,,,,,,,,1,,67,0
4439,note_on,,119,0,14,,,,,,,,,,,,,,,,12,,58,0
4439,note_on,,599,0,11,,,,,,,,,,,,,,,,8,,63,0
4439,note_on,,119,0,16,,,,,,,,,,,,,,,,15,,51,0
4439,note_on,,359,0,15,,,,,,,,,,,,,,,,13,,51,0
4439,note_on,,119,0,13,,,,,,,,,,,,,,,,11,,67,0
4439,note_on,,359,0,7,,,,,,,,,,,,,,,,2,,51,0
4440,note_on,,1,0,15,,,,,,,,,,,,,,,,13,,51,72
4440,note_on,,1,0,14,,,,,,,,,,,,,,,,12,,70,72
4440,note_on,,1,0,7,,,,,,,,,,,,,,,,2,,51,72
4440,note_on,,1,0,11,,,,,,,,,,,,,,,,8,,51,72
4440,note_on,,1,0,6,,,,,,,,,,,,,,,,1,,79,72
4440,note_on,,1,0,13,,,,,,,,,,,,,,,,11,,79,72
4440,note_on,,1,0,16,,,,,,,,,,,,,,,,15,,51,72
4559,note_on,,0,0,16,,,,,,,,,,,,,,,,15,,70,0
4559,note_on,,0,0,16,,,,,,,,,,,,,,,,15,,67,0
4559,note_on,,119,0,7,,,,,,,,,,,,,,,,2,,51,0
4559,note_on,,119,0,14,,,,,,,,,,,,,,,,12,,70,0
4559,note_on,,119,0,6,,,,,,,,,,,,,,,,1,,79,0
4559,note_on,,0,0,16,,,,,,,,,,,,,,,,15,,63,0
4559,note_on,,0,0,16,,,,,,,,,,,,,,,,15,,51,0
4559,note_on,,119,0,11,,,,,,,,,,,,,,,,8,,51,0
4559,note_on,,119,0,16,,,,,,,,,,,,,,,,15,,75,0
4559,note_on,,119,0,13,,,,,,,,,,,,,,,,11,,79,0
4559,note_on,,119,0,15,,,,,,,,,,,,,,,,13,,51,0
4560,note_on,,1,0,11,,,,,,,,,,,,,,,,8,,55,72
4560,note_on,,1,0,13,,,,,,,,,,,,,,,,11,,82,72
4560,note_on,,0,0,16,,,,,,,,,,,,,,,,15,,63,72
4560,note_on,,0,0,16,,,,,,,,,,,,,,,,15,,70,72
4560,note_on,,1,0,14,,,,,,,,,,,,,,,,12,,63,72
4560,note_on,,1,0,6,,,,,,,,,,,,,,,,1,,82,72
4560,note_on,,1,0,15,,,,,,,,,,,,,,,,13,,55,72
4560,note_on,,1,0,16,,,,,,,,,,,,,,,,15,,55,72
4560,note_on,,1,0,7,,,,,,,,,,,,,,,,2,,55,72
4679,note_on,,119,0,14,,,,,,,,,,,,,,,,12,,63,0
4679,note_on,,359,0,9,,,,,,,,,,,,,,,,6,,67,0
4679,note_on,,119,0,15,,,,,,,,,,,,,,,,13,,55,0
4679,note_on,,119,0,16,,,,,,,,,,,,,,,,15,,55,0
4679,note_on,,119,0,13,,,,,,,,,,,,,,,,11,,82,0
4679,note_on,,119,0,7,,,,,,,,,,,,,,,,2,,55,0
4679,note_on,,119,0,11,,,,,,,,,,,,,,,,8,,55,0
4679,note_on,,119,0,6,,,,,,,,,,,,,,,,1,,82,0
4680,note_on,,1,0,9,,,,,,,,,,,,,,,,6,,68,72
4680,note_on,,1,0,16,,,,,,,,,,,,,,,,15,,53,72
4680,note_on,,1,0,14,,,,,,,,,,,,,,,,12,,70,72
4680,note_on,,1,0,11,,,,,,,,,,,,,,,,8,,53,72
4680,note_on,,1,0,6,,,,,,,,,,,,,,,,1,,80,72
4680,note_on,,1,0,13,,,,,,,,,,,,,,,,11,,80,72
4680,note_on,,1,0,7,,,,,,,,,,,,,,,,2,,53,72
4680,note_on,,1,0,15,,,,,,,,,,,,,,,,13,,53,72
4739,note_on,,59,0,7,,,,,,,,,,,,,,,,2,,53,0
4739,note_on,,59,0,6,,,,,,,,,,,,,,,,1,,80,0
4739,note_on,,59,0,11,,,,,,,,,,,,,,,,8,,53,0
4739,note_on,,59,0,13,,,,,,,,,,,,,,,,11,,80,0
4739,note_on,,59,0,16,,,,,,,,,,,,,,,,15,,53,0
4739,note_on,,59,0,9,,,,,,,,,,,,,,,,6,,68,0
4739,note_on,,59,0,15,,,,,,,,,,,,,,,,13,,53,0
4740,note_on,,1,0,9,,,,,,,,,,,,,,,,6,,67,72
4740,note_on,,1,0,6,,,,,,,,,,,,,,,,1,,79,72
4740,note_on,,1,0,15,,,,,,,,,,,,,,,,13,,51,72
4740,note_on,,1,0,13,,,,,,,,,,,,,,,,11,,79,72
4740,note_on,,1,0,7,,,,,,,,,,,,,,,,2,,51,72
4740,note_on,,1,0,11,,,,,,,,,,,,,,,,8,,51,72
4740,note_on,,1,0,16,,,,,,,,,,,,,,,,15,,51,72
4799,note_on,,59,0,9,,,,,,,,,,,,,,,,6,,67,0
4799,note_on,,59,0,6,,,,,,,,,,,,,,,,1,,79,0
4799,note_on,,59,0,11,,,,,,,,,,,,,,,,8,,51,0
4799,note_on,,59,0,7,,,,,,,,,,,,,,,,2,,51,0
4799,note_on,,59,0,15,,,,,,,,,,,,,,,,13,,51,0
4799,note_on,,0,0,16,,,,,,,,,,,,,,,,15,,51,0
4799,note_on,,59,0,13,,,,,,,,,,,,,,,,11,,79,0
4799,note_on,,479,0,10,,,,,,,,,,,,,,,,7,,58,0
4799,note_on,,119,0,14,,,,,,,,,,,,,,,,12,,70,0
4799,note_on,,0,0,16,,,,,,,,,,,,,,,,15,,63,0
4799,note_on,,59,0,16,,,,,,,,,,,,,,,,15,,70,0
4800,note_on,,1,0,6,,,,,,,,,,,,,,,,1,,84,72
4800,note_on,,1,0,7,,,,,,,,,,,,,,,,2,,56,72
4800,note_on,,1,0,15,,,,,,,,,,,,,,,,13,,56,72
4800,note_on,,1,0,11,,,,,,,,,,,,,,,,8,,56,72
4800,note_on,,1,0,13,,,,,,,,,,,,,,,,11,,84,72
4800,note_on,,1,0,14,,,,,,,,,,,,,,,,12,,68,72
4800,note_on,,1,0,9,,,,,,,,,,,,,,,,6,,60,72
4800,note_on,,1,0,16,,,,,,,,,,,,,,,,15,,56,72
4800,note_on,,0,0,16,,,,,,,,,,,,,,,,15,,63,72
4800,note_on,,0,0,16,,,,,,,,,,,,,,,,15,,60,72
4919,note_on,,119,0,9,,,,,,,,,,,,,,,,6,,60,0
4919,note_on,,119,0,6,,,,,,,,,,,,,,,,1,,84,0
4919,note_on,,599,0,8,,,,,,,,,,,,,,,,5,,75,0
4919,note_on,,119,0,7,,,,,,,,,,,,,,,,2,,56,0
4919,note_on,,119,0,16,,,,,,,,,,,,,,,,15,,56,0
4919,note_on,,119,0,15,,,,,,,,,,,,,,,,13,,56,0
4919,note_on,,599,0,12,,,,,,,,,,,,,,,,10,,75,0
4919,note_on,,119,0,13,,,,,,,,,,,,,,,,11,,84,0
4919,note_on,,599,0,5,,,,,,,,,,,,,,,,0,,75,0
4919,note_on,,119,0,14,,,,,,,,,,,,,,,,12,,68,0
4920,note_on,,121,0,10,,,,,,,,,,,,,,,,7,,60,72
4920,note_on,,1,0,7,,,,,,,,,,,,,,,,2,,44,72
4920,note_on,,1,0,13,,,,,,,,,,,,,,,,11,,72,72
4920,note_on,,1,0,8,,,,,,,,,,,,,,,,5,,72,72
4920,note_on,,1,0,16,,,,,,,,,,,,,,,,15,,44,72
4920,note_on,,1,0,9,,,,,,,,,,,,,,,,6,,63,72
4920,note_on,,1,0,12,,,,,,,,,,,,,,,,10,,72,72
4920,note_on,,1,0,14,,,,,,,,,,,,,,,,12,,63,72
4920,note_on,,1,0,5,,,,,,,,,,,,,,,,0,,72,72
4920,note_on,,1,0,6,,,,,,,,,,,,,,,,1,,72,72
4920,note_on,,1,0,15,,,,,,,,,,,,,,,,13,,44,72
5039,note_on,,119,0,6,,,,,,,,,,,,,,,,1,,72,0
5039,note_on,,119,0,12,,,,,,,,,,,,,,,,10,,72,0
5039,note_on,,0,0,16,,,,,,,,,,,,,,,,15,,60,0
5039,note_on,,119,0,14,,,,,,,,,,,,,,,,12,,63,0
5039,note_on,,119,0,8,,,,,,,,,,,,,,,,5,,72,0
5039,note_on,,119,0,9,,,,,,,,,,,,,,,,6,,63,0
5039,note_on,,119,0,16,,,,,,,,,,,,,,,,15,,63,0
5039,note_on,,119,0,13,,,,,,,,,,,,,,,,11,,72,0
5039,note_on,,119,0,5,,,,,,,,,,,,,,,,0,,72,0
5039,note_on,,119,0,10,,,,,,,,,,,,,,,,7,,60,0
5040,note_on,,1,0,8,,,,,,,,,,,,,,,,5,,77,72
5040,note_on,,1,0,6,,,,,,,,,,,,,,,,1,,68,72
5040,note_on,,1,0,5,,,,,,,,,,,,,,,,0,,77,72
5040,note_on,,0,0,16,,,,,,,,,,,,,,,,15,,60,72
5040,note_on,,1,0,9,,,,,,,,,,,,,,,,6,,68,72
5040,note_on,,1,0,13,,,,,,,,,,,,,,,,11,,68,72
5040,note_on,,1,0,10,,,,,,,,,,,,,,,,7,,60,72
5040,note_on,,0,0,16,,,,,,,,,,,,,,,,15,,65,72
5040,note_on,,0,0,16,,,,,,,,,,,,,,,,15,,68,72
5040,note_on,,1,0,12,,,,,,,,,,,,,,,,10,,77,72
5040,note_on,,1,0,16,,,,,,,,,,,,,,,,15,,72,72
5040,note_on,,1,0,14,,,,,,,,,,,,,,,,12,,60,72
5099,note_on,,179,0,15,,,,,,,,,,,,,,,,13,,44,0
5099,note_on,,59,0,16,,,,,,,,,,,,,,,,15,,44,0
5099,note_on,,179,0,7,,,,,,,,,,,,,,,,2,,44,0
5099,note_on,,299,0,11,,,,,,,,,,,,,,,,8,,56,0
5100,note_on,,1,0,15,,,,,,,,,,,,,,,,13,,56,72
5100,note_on,,1,0,7,,,,,,,,,,,,,,,,2,,56,72
5100,note_on,,1,0,16,,,,,,,,,,,,,,,,15,,56,72
5100,note_on,,1,0,11,,,,,,,,,,,,,,,,8,,56,72
5159,note_on,,59,0,7,,,,,,,,,,,,,,,,2,,56,0
5159,note_on,,59,0,16,,,,,,,,,,,,,,,,15,,56,0
5159,note_on,,119,0,10,,,,,,,,,,,,,,,,7,,60,0
5159,note_on,,59,0,15,,,,,,,,,,,,,,,,13,,56,0
5159,note_on,,59,0,11,,,,,,,,,,,,,,,,8,,56,0
5160,note_on,,1,0,15,,,,,,,,,,,,,,,,13,,55,72
5160,note_on,,1,0,16,,,,,,,,,,,,,,,,15,,55,72
5160,note_on,,1,0,11,,,,,,,,,,,,,,,,8,,55,72
5160,note_on,,1,0,10,,,,,,,,,,,,,,,,7,,60,72
5160,note_on,,1,0,7,,,,,,,,,,,,,,,,2,,55,72
5219,note_on,,59,0,7,,,,,,,,,,,,,,,,2,,55,0
5219,note_on,,179,0,6,,,,,,,,,,,,,,,,1,,68,0
5219,note_on,,59,0,15,,,,,,,,,,,,,,,,13,,55,0
5219,note_on,,59,0,16,,,,,,,,,,,,,,,,15,,55,0
5219,note_on,,179,0,9,,,,,,,,,,,,,,,,6,,68,0
5219,note_on,,179,0,14,,,,,,,,,,,,,,,,12,,60,0
5219,note_on,,179,0,8,,,,,,,,,,,,,,,,5,,77,0
5219,note_on,,179,0,12,,,,,,,,,,,,,,,,10,,77,0
5219,note_on,,59,0,11,,,,,,,,,,,,,,,,8,,55,0
5219,note_on,,179,0,5,,,,,,,,,,,,,,,,0,,77,0
5219,note_on,,179,0,13,,,,,,,,,,,,,,,,11,,68,0
5220,note_on,,1,0,8,,,,,,,,,,,,,,,,5,,79,72
5220,note_on,,1,0,13,,,,,,,,,,,,,,,,11,,70,72
5220,note_on,,1,0,5,,,,,,,,,,,,,,,,0,,79,72
5220,note_on,,1,0,6,,,,,,,,,,,,,,,,1,,70,72
5220,note_on,,1,0,14,,,,,,,,,,,,,,,,12,,60,72
5220,note_on,,1,0,12,,,,,,,,,,,,,,,,10,,79,72
5220,note_on,,1,0,7,,,,,,,,,,,,,,,,2,,53,72
5220,note_on,,1,0,16,,,,,,,,,,,,,,,,15,,53,72
5220,note_on,,1,0,9,,,,,,,,,,,,,,,,6,,70,72
5220,note_on,,1,0,11,,,,,,,,,,,,,,,,8,,53,72
5220,note_on,,1,0,15,,,,,,,,,,,,,,,,13,,53,72
5279,note_on,,59,0,13,,,,,,,,,,,,,,,,11,,70,0
5279,note_on,,59,0,14,,,,,,,,,,,,,,,,12,,60,0
5279,note_on,,59,0,12,,,,,,,,,,,,,,,,10,,79,0
5279,note_on,,59,0,7,,,,,,,,,,,,,,,,2,,53,0
5279,note_on,,59,0,11,,,,,,,,,,,,,,,,8,,53,0
5279,note_on,,59,0,15,,,,,,,,,,,,,,,,13,,53,0
5279,note_on,,119,0,10,,,,,,,,,,,,,,,,7,,60,0
5279,note_on,,59,0,9,,,,,,,,,,,,,,,,6,,70,0
5279,note_on,,59,0,16,,,,,,,,,,,,,,,,15,,72,0
5279,note_on,,0,0,16,,,,,,,,,,,,,,,,15,,68,0
5279,note_on,,0,0,16,,,,,,,,,,,,,,,,15,,65,0
5279,note_on,,0,0,16,,,,,,,,,,,,,,,,15,,60,0
5279,note_on,,0,0,16,,,,,,,,,,,,,,,,15,,53,0
5279,note_on,,59,0,6,,,,,,,,,,,,,,,,1,,70,0
5279,note_on,,59,0,5,,,,,,,,,,,,,,,,0,,79,0
5279,note_on,,59,0,8,,,,,,,,,,,,,,,,5,,79,0
5280,note_on,,1,0,15,,,,,,,,,,,,,,,,13,,60,72
5280,note_on,,1,0,14,,,,,,,,,,,,,,,,12,,60,72
5280,note_on,,1,0,6,,,,,,,,,,,,,,,,1,,67,72
5280,note_on,,1,0,13,,,,,,,,,,,,,,,,11,,67,72
5280,note_on,,0,0,16,,,,,,,,,,,,,,,,15,,64,72
5280,note_on,,1,0,8,,,,,,,,,,,,,,,,5,,76,72
5280,note_on,,1,0,7,,,,,,,,,,,,,,,,2,,60,72
5280,note_on,,1,0,12,,,,,,,,,,,,,,,,10,,76,72
5280,note_on,,1,0,11,,,,,,,,,,,,,,,,8,,60,72
5280,note_on,,1,0,10,,,,,,,,,,,,,,,,7,,60,72
5280,note_on,,0,0,16,,,,,,,,,,,,,,,,15,,67,72
5280,note_on,,1,0,16,,,,,,,,,,,,,,,,15,,60,72
5280,note_on,,0,0,16,,,,,,,,,,,,,,,,15,,72,72
5280,note_on,,1,0,5,,,,,,,,,,,,,,,,0,,76,72
5280,note_on,,1,0,9,,,,,,,,,,,,,,,,6,,67,72
5339,note_on,,59,0,12,,,,,,,,,,,,,,,,10,,76,0
5339,note_on,,59,0,14,,,,,,,,,,,,,,,,12,,60,0
5339,note_on,,59,0,13,,,,,,,,,,,,,,,,11,,67,0
5340,note_on,,1,0,14,,,,,,,,,,,,,,,,12,,60,72
5340,note_on,,1,0,13,,,,,,,,,,,,,,,,11,,60,72
5340,note_on,,1,0,12,,,,,,,,,,,,,,,,10,,64,72
5399,note_on,,59,0,14,,,,,,,,,,,,,,,,12,,60,0
5399,note_on,,59,0,12,,,,,,,,,,,,,,,,10,,64,0
5399,note_on,,59,0,13,,,,,,,,,,,,,,,,11,,60,0
5400,note_on,,1,0,14,,,,,,,,,,,,,,,,12,,62,72
5400,note_on,,1,0,12,,,,,,,,,,,,,,,,10,,65,72
5400,note_on,,1,0,13,,,,,,,,,,,,,,,,11,,62,72
5459,note_on,,59,0,13,,,,,,,,,,,,,,,,11,,62,0
5459,note_on,,59,0,14,,,,,,,,,,,,,,,,12,,62,0
5459,note_on,,59,0,12,,,,,,,,,,,,,,,,10,,65,0
5460,note_on,,1,0,14,,,,,,,,,,,,,,,,12,,64,72
5460,note_on,,1,0,12,,,,,,,,,,,,,,,,10,,67,72
5460,note_on,,1,0,13,,,,,,,,,,,,,,,,11,,64,72
5519,note_on,,59,0,13,,,,,,,,,,,,,,,,11,,64,0
5519,note_on,,59,0,12,,,,,,,,,,,,,,,,10,,67,0
5519,note_on,,59,0,14,,,,,,,,,,,,,,,,12,,64,0
5520,note_on,,1,0,13,,,,,,,,,,,,,,,,11,,65,72
5520,note_on,,1,0,14,,,,,,,,,,,,,,,,12,,65,72
5520,note_on,,1,0,12,,,,,,,,,,,,,,,,10,,68,72
5579,note_on,,59,0,13,,,,,,,,,,,,,,,,11,,65,0
5579,note_on,,59,0,14,,,,,,,,,,,,,,,,12,,65,0
5579,note_on,,59,0,12,,,,,,,,,,,,,,,,10,,68,0
5580,note_on,,1,0,14,,,,,,,,,,,,,,,,12,,67,72
5580,note_on,,1,0,13,,,,,,,,,,,,,,,,11,,67,72
5580,note_on,,1,0,12,,,,,,,,,,,,,,,,10,,70,72
5639,note_on,,59,0,13,,,,,,,,,,,,,,,,11,,67,0
5639,note_on,,59,0,14,,,,,,,,,,,,,,,,12,,67,0
5639,note_on,,59,0,12,,,,,,,,,,,,,,,,10,,70,0
5640,note_on,,1,0,13,,,,,,,,,,,,,,,,11,,68,72
5640,note_on,,1,0,14,,,,,,,,,,,,,,,,12,,68,72
5640,note_on,,1,0,12,,,,,,,,,,,,,,,,10,,72,72
5699,note_on,,59,0,14,,,,,,,,,,,,,,,,12,,68,0
5699,note_on,,59,0,13,,,,,,,,,,,,,,,,11,,68,0
5699,note_on,,59,0,12,,,,,,,,,,,,,,,,10,,72,0
5700,note_on,,1,0,14,,,,,,,,,,,,,,,,12,,70,72
5700,note_on,,1,0,13,,,,,,,,,,,,,,,,11,,70,72
5700,note_on,,1,0,12,,,,,,,,,,,,,,,,10,,74,72
5759,note_on,,479,0,9,,,,,,,,,,,,,,,,6,,67,0
5759,note_on,,59,0,13,,,,,,,,,,,,,,,,11,,70,0
5759,note_on,,479,0,5,,,,,,,,,,,,,,,,0,,76,0
5759,note_on,,479,0,16,,,,,,,,,,,,,,,,15,,72,0
5759,note_on,,0,0,16,,,,,,,,,,,,,,,,15,,67,0
5759,note_on,,0,0,16,,,,,,,,,,,,,,,,15,,64,0
5759,note_on,,479,0,6,,,,,,,,,,,,,,,,1,,67,0
5759,note_on,,479,0,10,,,,,,,,,,,,,,,,7,,60,0
5759,note_on,,59,0,14,,,,,,,,,,,,,,,,12,,70,0
5759,note_on,,479,0,11,,,,,,,,,,,,,,,,8,,60,0
5759,note_on,,59,0,12,,,,,,,,,,,,,,,,10,,74,0
5759,note_on,,479,0,8,,,,,,,,,,,,,,,,5,,76,0
5760,note_on,,1,0,12,,,,,,,,,,,,,,,,10,,76,72
5760,note_on,,1,0,16,,,,,,,,,,,,,,,,15,,79,72
5760,note_on,,0,0,16,,,,,,,,,,,,,,,,15,,76,72
5760,note_on,,0,0,16,,,,,,,,,,,,,,,,15,,72,72
5760,note_on,,0,0,16,,,,,,,,,,,,,,,,15,,67,72
5760,note_on,,1,0,14,,,,,,,,,,,,,,,,12,,72,72
5760,note_on,,1,0,13,,,,,,,,,,,,,,,,11,,72,72
5819,note_on,,59,0,12,,,,,,,,,,,,,,,,10,,76,0
5819,note_on,,59,0,13,,,,,,,,,,,,,,,,11,,72,0
5820,note_on,,1,0,13,,,,,,,,,,,,,,,,11,,80,72
5820,note_on,,1,0,12,,,,,,,,,,,,,,,,10,,84,72
5879,note_on,,59,0,12,,,,,,,,,,,,,,,,10,,84,0
5879,note_on,,59,0,13,,,,,,,,,,,,,,,,11,,80,0
5880,note_on,,1,0,13,,,,,,,,,,,,,,,,11,,79,72
5880,note_on,,1,0,12,,,,,,,,,,,,,,,,10,,82,72
5939,note_on,,59,0,13,,,,,,,,,,,,,,,,11,,79,0
5939,note_on,,59,0,12,,,,,,,,,,,,,,,,10,,82,0
5940,note_on,,1,0,13,,,,,,,,,,,,,,,,11,,77,72
5940,note_on,,1,0,12,,,,,,,,,,,,,,,,10,,80,72
5999,note_on,,59,0,13,,,,,,,,,,,,,,,,11,,77,0
5999,note_on,,59,0,12,,,,,,,,,,,,,,,,10,,80,0
6000,note_on,,1,0,13,,,,,,,,,,,,,,,,11,,76,72
6000,note_on,,1,0,12,,,,,,,,,,,,,,,,10,,79,72
6059,note_on,,59,0,12,,,,,,,,,,,,,,,,10,,79,0
6059,note_on,,59,0,13,,,,,,,,,,,,,,,,11,,76,0
6060,note_on,,1,0,12,,,,,,,,,,,,,,,,10,,77,72
6060,note_on,,1,0,13,,,,,,,,,,,,,,,,11,,74,72
6119,note_on,,359,0,16,,,,,,,,,,,,,,,,15,,60,0
6119,note_on,,0,0,16,,,,,,,,,,,,,,,,15,,76,0
6119,note_on,,0,0,16,,,,,,,,,,,,,,,,15,,72,0
6119,note_on,,0,0,16,,,,,,,,,,,,,,,,15,,67,0
6119,note_on,,59,0,12,,,,,,,,,,,,,,,,10,,77,0
6119,note_on,,839,0,7,,,,,,,,,,,,,,,,2,,60,0
6119,note_on,,0,0,16,,,,,,,,,,,,,,,,15,,79,0
6119,note_on,,59,0,13,,,,,,,,,,,,,,,,11,,74,0
6119,note_on,,839,0,15,,,,,,,,,,,,,,,,13,,60,0
6119,note_on,,359,0,14,,,,,,,,,,,,,,,,12,,72,0
6120,note_on,,0,0,16,,,,,,,,,,,,,,,,15,,67,72
6120,note_on,,0,0,16,,,,,,,,,,,,,,,,15,,72,72
6120,note_on,,1,0,13,,,,,,,,,,,,,,,,11,,72,72
6120,note_on,,361,0,10,,,,,,,,,,,,,,,,7,,60,72
6120,note_on,,1,0,15,,,,,,,,,,,,,,,,13,,60,72
6120,note_on,,1,0,16,,,,,,,,,,,,,,,,15,,60,72
6120,note_on,,1,0,7,,,,,,,,,,,,,,,,2,,60,72
6120,note_on,,0,0,16,,,,,,,,,,,,,,,,15,,64,72
6120,note_on,,1,0,12,,,,,,,,,,,,,,,,10,,76,72
6120,note_on,,1,0,14,,,,,,,,,,,,,,,,12,,60,72
6179,note_on,,59,0,16,,,,,,,,,,,,,,,,15,,60,0
6179,note_on,,59,0,14,,,,,,,,,,,,,,,,12,,60,0
6179,note_on,,59,0,7,,,,,,,,,,,,,,,,2,,60,0
6179,note_on,,59,0,10,,,,,,,,,,,,,,,,7,,60,0
6179,note_on,,59,0,12,,,,,,,,,,,,,,,,10,,76,0
6179,note_on,,59,0,15,,,,,,,,,,,,,,,,13,,60,0
6180,note_on,,1,0,16,,,,,,,,,,,,,,,,15,,58,72
6180,note_on,,1,0,7,,,,,,,,,,,,,,,,2,,58,72
6180,note_on,,1,0,15,,,,,,,,,,,,,,,,13,,58,72
6180,note_on,,1,0,14,,,,,,,,,,,,,,,,12,,58,72
6180,note_on,,1,0,10,,,,,,,,,,,,,,,,7,,58,72
6180,note_on,,1,0,12,,,,,,,,,,,,,,,,10,,74,72
6239,note_on,,59,0,12,,,,,,,,,,,,,,,,10,,74,0
6239,note_on,,59,0,14,,,,,,,,,,,,,,,,12,,58,0
6239,note_on,,0,0,16,,,,,,,,,,,,,,,,15,,58,0
6239,note_on,,0,0,16,,,,,,,,,,,,,,,,15,,64,0
6239,note_on,,59,0,16,,,,,,,,,,,,,,,,15,,67,0
6239,note_on,,59,0,7,,,,,,,,,,,,,,,,2,,58,0
6239,note_on,,59,0,10,,,,,,,,,,,,,,,,7,,58,0
6239,note_on,,59,0,15,,,,,,,,,,,,,,,,13,,58,0
6240,note_on,,0,0,16,,,,,,,,,,,,,,,,15,,69,72
6240,note_on,,1,0,16,,,,,,,,,,,,,,,,15,,57,72
6240,note_on,,1,0,15,,,,,,,,,,,,,,,,13,,57,72
6240,note_on,,1,0,12,,,,,,,,,,,,,,,,10,,72,72
6240,note_on,,0,0,16,,,,,,,,,,,,,,,,15,,65,72
6240,note_on,,1,0,7,,,,,,,,,,,,,,,,2,,57,72
6240,note_on,,1,0,10,,,,,,,,,,,,,,,,7,,57,72
6240,note_on,,1,0,14,,,,,,,,,,,,,,,,12,,57,72
6299,note_on,,179,0,13,,,,,,,,,,,,,,,,11,,72,0
6299,note_on,,59,0,10,,,,,,,,,,,,,,,,7,,57,0
6299,note_on,,59,0,16,,,,,,,,,,,,,,,,15,,72,0
6299,note_on,,0,0,16,,,,,,,,,,,,,,,,15,,57,0
6299,note_on,,0,0,16,,,,,,,,,,,,,,,,15,,69,0
6299,note_on,,0,0,16,,,,,,,,,,,,,,,,15,,65,0
6299,note_on,,59,0,15,,,,,,,,,,,,,,,,13,,57,0
6299,note_on,,59,0,7,,,,,,,,,,,,,,,,2,,57,0
6299,note_on,,59,0,14,,,,,,,,,,,,,,,,12,,57,0
6300,note_on,,1,0,15,,,,,,,,,,,,,,,,13,,53,72
6300,note_on,,1,0,16,,,,,,,,,,,,,,,,15,,53,72
6300,note_on,,1,0,14,,,,,,,,,,,,,,,,12,,53,72
6300,note_on,,0,0,16,,,,,,,,,,,,,,,,15,,57,72
6300,note_on,,1,0,7,,,,,,,,,,,,,,,,2,,53,72
6300,note_on,,1,0,13,,,,,,,,,,,,,,,,11,,57,72
6300,note_on,,1,0,10,,,,,,,,,,,,,,,,7,,53,72
6359,note_on,,59,0,10,,,,,,,,,,,,,,,,7,,53,0
6359,note_on,,59,0,16,,,,,,,,,,,,,,,,15,,53,0
6359,note_on,,0,0,16,,,,,,,,,,,,,,,,15,,57,0
6359,note_on,,59,0,7,,,,,,,,,,,,,,,,2,,53,0
6359,note_on,,59,0,13,,,,,,,,,,,,,,,,11,,57,0
6359,note_on,,119,0,12,,,,,,,,,,,,,,,,10,,72,0
6359,note_on,,59,0,14,,,,,,,,,,,,,,,,12,,53,0
6359,note_on,,59,0,15,,,,,,,,,,,,,,,,13,,53,0
6360,note_on,,0,0,16,,,,,,,,,,,,,,,,15,,58,72
6360,note_on,,1,0,16,,,,,,,,,,,,,,,,15,,55,72
6360,note_on,,1,0,12,,,,,,,,,,,,,,,,10,,72,72
6360,note_on,,1,0,10,,,,,,,,,,,,,,,,7,,55,72
6360,note_on,,1,0,15,,,,,,,,,,,,,,,,13,,55,72
6360,note_on,,1,0,14,,,,,,,,,,,,,,,,12,,55,72
6360,note_on,,1,0,13,,,,,,,,,,,,,,,,11,,58,72
6360,note_on,,1,0,7,,,,,,,,,,,,,,,,2,,55,72
6419,note_on,,59,0,13,,,,,,,,,,,,,,,,11,,58,0
6419,note_on,,59,0,14,,,,,,,,,,,,,,,,12,,55,0
6419,note_on,,59,0,15,,,,,,,,,,,,,,,,13,,55,0
6419,note_on,,59,0,16,,,,,,,,,,,,,,,,15,,55,0
6419,note_on,,0,0,16,,,,,,,,,,,,,,,,15,,58,0
6419,note_on,,59,0,10,,,,,,,,,,,,,,,,7,,55,0
6419,note_on,,59,0,7,,,,,,,,,,,,,,,,2,,55,0
6420,note_on,,1,0,10,,,,,,,,,,,,,,,,7,,57,72
6420,note_on,,1,0,14,,,,,,,,,,,,,,,,12,,57,72
6420,note_on,,1,0,7,,,,,,,,,,,,,,,,2,,57,72
6420,note_on,,1,0,15,,,,,,,,,,,,,,,,13,,57,72
6420,note_on,,0,0,16,,,,,,,,,,,,,,,,15,,60,72
6420,note_on,,1,0,16,,,,,,,,,,,,,,,,15,,57,72
6420,note_on,,1,0,13,,,,,,,,,,,,,,,,11,,60,72
6479,note_on,,59,0,16,,,,,,,,,,,,,,,,15,,57,0
6479,note_on,,59,0,10,,,,,,,,,,,,,,,,7,,57,0
6479,note_on,,59,0,15,,,,,,,,,,,,,,,,13,,57,0
6479,note_on,,59,0,14,,,,,,,,,,,,,,,,12,,57,0
6479,note_on,,0,0,16,,,,,,,,,,,,,,,,15,,60,0
6479,note_on,,59,0,7,,,,,,,,,,,,,,,,2,,57,0
6479,note_on,,59,0,13,,,,,,,,,,,,,,,,11,,60,0
6480,note_on,,0,0,16,,,,,,,,,,,,,,,,15,,62,72
6480,note_on,,1,0,15,,,,,,,,,,,,,,,,13,,58,72
6480,note_on,,1,0,7,,,,,,,,,,,,,,,,2,,58,72
6480,note_on,,1,0,13,,,,,,,,,,,,,,,,11,,62,72
6480,note_on,,1,0,10,,,,,,,,,,,,,,,,7,,58,72
6480,note_on,,1,0,14,,,,,,,,,,,,,,,,12,,58,72
6480,note_on,,1,0,16,,,,,,,,,,,,,,,,15,,58,72
6539,note_on,,59,0,7,,,,,,,,,,,,,,,,2,,58,0
6539,note_on,,59,0,10,,,,,,,,,,,,,,,,7,,58,0
6539,note_on,,59,0,13,,,,,,,,,,,,,,,,11,,62,0
6539,note_on,,59,0,14,,,,,,,,,,,,,,,,12,,58,0
6539,note_on,,59,0,15,,,,,,,,,,,,,,,,13,,58,0
6539,note_on,,59,0,16,,,,,,,,,,,,,,,,15,,58,0
6539,note_on,,0,0,16,,,,,,,,,,,,,,,,15,,62,0
6540,note_on,,0,0,16,,,,,,,,,,,,,,,,15,,64,72
6540,note_on,,1,0,7,,,,,,,,,,,,,,,,2,,60,72
6540,note_on,,1,0,15,,,,,,,,,,,,,,,,13,,60,72
6540,note_on,,1,0,13,,,,,,,,,,,,,,,,11,,64,72
6540,note_on,,1,0,10,,,,,,,,,,,,,,,,7,,60,72
6540,note_on,,1,0,16,,,,,,,,,,,,,,,,15,,60,72
6540,note_on,,1,0,14,,,,,,,,,,,,,,,,12,,60,72
6599,note_on,,59,0,15,,,,,,,,,,,,,,,,13,,60,0
6599,note_on,,239,0,12,,,,,,,,,,,,,,,,10,,72,0
6599,note_on,,59,0,13,,,,,,,,,,,,,,,,11,,64,0
6599,note_on,,59,0,14,,,,,,,,,,,,,,,,12,,60,0
6599,note_on,,0,0,16,,,,,,,,,,,,,,,,15,,64,0
6599,note_on,,59,0,10,,,,,,,,,,,,,,,,7,,60,0
6599,note_on,,59,0,7,,,,,,,,,,,,,,,,2,,60,0
6599,note_on,,59,0,16,,,,,,,,,,,,,,,,15,,60,0
6600,note_on,,1,0,13,,,,,,,,,,,,,,,,11,,65,72
6600,note_on,,1,0,15,,,,,,,,,,,,,,,,13,,62,72
6600,note_on,,1,0,10,,,,,,,,,,,,,,,,7,,62,72
6600,note_on,,0,0,16,,,,,,,,,,,,,,,,15,,65,72
6600,note_on,,1,0,7,,,,,,,,,,,,,,,,2,,62,72
6600,note_on,,1,0,14,,,,,,,,,,,,,,,,12,,62,72
6600,note_on,,1,0,12,,,,,,,,,,,,,,,,10,,70,72
6600,note_on,,1,0,16,,,,,,,,,,,,,,,,15,,62,72
6659,note_on,,59,0,7,,,,,,,,,,,,,,,,2,,62,0
6659,note_on,,59,0,13,,,,,,,,,,,,,,,,11,,65,0
6659,note_on,,59,0,15,,,,,,,,,,,,,,,,13,,62,0
6659,note_on,,0,0,16,,,,,,,,,,,,,,,,15,,65,0
6659,note_on,,59,0,10,,,,,,,,,,,,,,,,7,,62,0
6659,note_on,,59,0,16,,,,,,,,,,,,,,,,15,,62,0
6659,note_on,,59,0,14,,,,,,,,,,,,,,,,12,,62,0
6660,note_on,,1,0,13,,,,,,,,,,,,,,,,11,,67,72
6660,note_on,,1,0,16,,,,,,,,,,,,,,,,15,,64,72
6660,note_on,,1,0,7,,,,,,,,,,,,,,,,2,,64,72
6660,note_on,,1,0,14,,,,,,,,,,,,,,,,12,,64,72
6660,note_on,,1,0,10,,,,,,,,,,,,,,,,7,,64,72
6660,note_on,,1,0,15,,,,,,,,,,,,,,,,13,,64,72
6660,note_on,,0,0,16,,,,,,,,,,,,,,,,15,,67,72
6719,note_on,,59,0,7,,,,,,,,,,,,,,,,2,,64,0
6719,note_on,,59,0,10,,,,,,,,,,,,,,,,7,,64,0
6719,note_on,,59,0,14,,,,,,,,,,,,,,,,12,,64,0
6719,note_on,,59,0,15,,,,,,,,,,,,,,,,13,,64,0
6719,note_on,,59,0,13,,,,,,,,,,,,,,,,11,,67,0
6719,note_on,,59,0,16,,,,,,,,,,,,,,,,15,,64,0
6719,note_on,,0,0,16,,,,,,,,,,,,,,,,15,,67,0
6719,note_on,,119,0,12,,,,,,,,,,,,,,,,10,,70,0
6720,note_on,,1,0,7,,,,,,,,,,,,,,,,2,,65,72
6720,note_on,,1,0,14,,,,,,,,,,,,,,,,12,,65,72
6720,note_on,,1,0,16,,,,,,,,,,,,,,,,15,,65,72
6720,note_on,,1,0,12,,,,,,,,,,,,,,,,10,,69,72
6720,note_on,,1,0,10,,,,,,,,,,,,,,,,7,,65,72
6720,note_on,,1,0,13,,,,,,,,,,,,,,,,11,,69,72
6720,note_on,,1,0,15,,,,,,,,,,,,,,,,13,,65,72
6720,note_on,,0,0,16,,,,,,,,,,,,,,,,15,,69,72
6839,note_on,,119,0,7,,,,,,,,,,,,,,,,2,,65,0
6839,note_on,,119,0,12,,,,,,,,,,,,,,,,10,,69,0
6839,note_on,,0,0,16,,,,,,,,,,,,,,,,15,,69,0
6839,note_on,,119,0,16,,,,,,,,,,,,,,,,15,,65,0
6839,note_on,,119,0,14,,,,,,,,,,,,,,,,12,,65,0
6839,note_on,,119,0,10,,,,,,,,,,,,,,,,7,,65,0
6839,note_on,,119,0,13,,,,,,,,,,,,,,,,11,,69,0
6839,note_on,,119,0,15,,,,,,,,,,,,,,,,13,,65,0
6840,note_on,,1,0,16,,,,,,,,,,,,,,,,15,,64,72
6840,note_on,,0,0,16,,,,,,,,,,,,,,,,15,,67,72
6840,note_on,,1,0,15,,,,,,,,,,,,,,,,13,,64,72
6840,note_on,,1,0,7,,,,,,,,,,,,,,,,2,,64,72
6840,note_on,,1,0,10,,,,,,,,,,,,,,,,7,,64,72
6840,note_on,,1,0,13,,,,,,,,,,,,,,,,11,,67,72
6840,note_on,,1,0,14,,,,,,,,,,,,,,,,12,,64,72
6899,note_on,,59,0,15,,,,,,,,,,,,,,,,13,,64,0
6899,note_on,,0,0,16,,,,,,,,,,,,,,,,15,,67,0
6899,note_on,,59,0,16,,,,,,,,,,,,,,,,15,,64,0
6899,note_on,,59,0,7,,,,,,,,,,,,,,,,2,,64,0
6899,note_on,,59,0,10,,,,,,,,,,,,,,,,7,,64,0
6899,note_on,,59,0,13,,,,,,,,,,,,,,,,11,,67,0
6899,note_on,,59,0,14,,,,,,,,,,,,,,,,12,,64,0
6900,note_on,,1,0,7,,,,,,,,,,,,,,,,2,,62,72
6900,note_on,,1,0,16,,,,,,,,,,,,,,,,15,,62,72
6900,note_on,,1,0,10,,,,,,,,,,,,,,,,7,,62,72
6900,note_on,,0,0,16,,,,,,,,,,,,,,,,15,,65,72
6900,note_on,,1,0,14,,,,,,,,,,,,,,,,12,,62,72
6900,note_on,,1,0,13,,,,,,,,,,,,,,,,11,,65,72
6900,note_on,,1,0,15,,,,,,,,,,,,,,,,13,,62,72
6959,note_on,,59,0,7,,,,,,,,,,,,,,,,2,,62,0
6959,note_on,,59,0,10,,,,,,,,,,,,,,,,7,,62,0
6959,note_on,,59,0,13,,,,,,,,,,,,,,,,11,,65,0
6959,note_on,,59,0,15,,,,,,,,,,,,,,,,13,,62,0
6959,note_on,,59,0,16,,,,,,,,,,,,,,,,15,,62,0
6959,note_on,,0,0,16,,,,,,,,,,,,,,,,15,,65,0
6959,note_on,,59,0,14,,,,,,,,,,,,,,,,12,,62,0
6960,note_on,,0,0,16,,,,,,,,,,,,,,,,15,,67,72
6960,note_on,,1,0,13,,,,,,,,,,,,,,,,11,,63,72
6960,note_on,,1,0,7,,,,,,,,,,,,,,,,2,,60,72
6960,note_on,,1,0,16,,,,,,,,,,,,,,,,15,,60,72
6960,note_on,,0,0,16,,,,,,,,,,,,,,,,15,,64,72
6960,note_on,,1,0,15,,,,,,,,,,,,,,,,13,,60,72
6960,note_on,,1,0,14,,,,,,,,,,,,,,,,12,,60,72
6960,note_on,,1,0,10,,,,,,,,,,,,,,,,7,,60,72
7019,note_on,,59,0,16,,,,,,,,,,,,,,,,15,,60,0
7019,note_on,,59,0,10,,,,,,,,,,,,,,,,7,,60,0
7019,note_on,,59,0,15,,,,,,,,,,,,,,,,13,,60,0
7019,note_on,,59,0,7,,,,,,,,,,,,,,,,2,,60,0
7019,note_on,,59,0,14,,,,,,,,,,,,,,,,12,,60,0
7020,note_on,,1,0,16,,,,,,,,,,,,,,,,15,,58,72
7020,note_on,,1,0,10,,,,,,,,,,,,,,,,7,,58,72
7020,note_on,,1,0,15,,,,,,,,,,,,,,,,13,,58,72
7020,note_on,,1,0,14,,,,,,,,,,,,,,,,12,,58,72
7020,note_on,,1,0,7,,,,,,,,,,,,,,,,2,,58,72
7079,note_on,,59,0,10,,,,,,,,,,,,,,,,7,,58,0
7079,note_on,,59,0,14,,,,,,,,,,,,,,,,12,,58,0
7079,note_on,,59,0,16,,,,,,,,,,,,,,,,15,,67,0
7079,note_on,,59,0,15,,,,,,,,,,,,,,,,13,,58,0
7079,note_on,,119,0,13,,,,,,,,,,,,,,,,11,,63,0
7079,note_on,,0,0,16,,,,,,,,,,,,,,,,15,,58,0
7079,note_on,,0,0,16,,,,,,,,,,,,,,,,15,,64,0
7079,note_on,,59,0,7,,,,,,,,,,,,,,,,2,,58,0
7080,note_on,,241,0,12,,,,,,,,,,,,,,,,10,,72,72
7080,note_on,,1321,0,5,,,,,,,,,,,,,,,,0,,72,72
7080,note_on,,1,0,13,,,,,,,,,,,,,,,,11,,65,72
7080,note_on,,1,0,16,,,,,,,,,,,,,,,,15,,57,72
7080,note_on,,1,0,14,,,,,,,,,,,,,,,,12,,57,72
7080,note_on,,1,0,7,,,,,,,,,,,,,,,,2,,57,72
7080,note_on,,1321,0,6,,,,,,,,,,,,,,,,1,,72,72
7080,note_on,,0,0,16,,,,,,,,,,,,,,,,15,,65,72
7080,note_on,,0,0,16,,,,,,,,,,,,,,,,15,,62,72
7080,note_on,,1,0,10,,,,,,,,,,,,,,,,7,,57,72
7080,note_on,,1,0,15,,,,,,,,,,,,,,,,13,,57,72
7080,note_on,,1321,0,8,,,,,,,,,,,,,,,,5,,72,72
7139,note_on,,59,0,14,,,,,,,,,,,,,,,,12,,57,0
7139,note_on,,59,0,13,,,,,,,,,,,,,,,,11,,65,0
7139,note_on,,59,0,15,,,,,,,,,,,,,,,,13,,57,0
7139,note_on,,59,0,10,,,,,,,,,,,,,,,,7,,57,0
7139,note_on,,59,0,8,,,,,,,,,,,,,,,,5,,72,0
7139,note_on,,59,0,12,,,,,,,,,,,,,,,,10,,72,0
7139,note_on,,0,0,16,,,,,,,,,,,,,,,,15,,62,0
7139,note_on,,0,0,16,,,,,,,,,,,,,,,,15,,65,0
7139,note_on,,59,0,16,,,,,,,,,,,,,,,,15,,57,0
7139,note_on,,59,0,5,,,,,,,,,,,,,,,,0,,72,0
7139,note_on,,59,0,7,,,,,,,,,,,,,,,,2,,57,0
7139,note_on,,59,0,6,,,,,,,,,,,,,,,,1,,72,0
7140,note_on,,1,0,10,,,,,,,,,,,,,,,,7,,55,72
7140,note_on,,1,0,12,,,,,,,,,,,,,,,,10,,70,72
7140,note_on,,1,0,14,,,,,,,,,,,,,,,,12,,55,72
7140,note_on,,1,0,5,,,,,,,,,,,,,,,,0,,70,72
7140,note_on,,1,0,13,,,,,,,,,,,,,,,,11,,67,72
7140,note_on,,1,0,15,,,,,,,,,,,,,,,,13,,55,72
7140,note_on,,1,0,6,,,,,,,,,,,,,,,,1,,70,72
7140,note_on,,0,0,16,,,,,,,,,,,,,,,,15,,64,72
7140,note_on,,0,0,16,,,,,,,,,,,,,,,,15,,67,72
7140,note_on,,1,0,16,,,,,,,,,,,,,,,,15,,55,72
7140,note_on,,1,0,7,,,,,,,,,,,,,,,,2,,55,72
7140,note_on,,1,0,8,,,,,,,,,,,,,,,,5,,70,72
7199,note_on,,59,0,6,,,,,,,,,,,,,,,,1,,70,0
7199,note_on,,0,0,16,,,,,,,,,,,,,,,,15,,64,0
7199,note_on,,0,0,16,,,,,,,,,,,,,,,,15,,67,0
7199,note_on,,59,0,10,,,,,,,,,,,,,,,,7,,55,0
7199,note_on,,59,0,16,,,,,,,,,,,,,,,,15,,55,0
7199,note_on,,59,0,12,,,,,,,,,,,,,,,,10,,70,0
7199,note_on,,59,0,8,,,,,,,,,,,,,,,,5,,70,0
7199,note_on,,59,0,5,,,,,,,,,,,,,,,,0,,70,0
7199,note_on,,59,0,15,,,,,,,,,,,,,,,,13,,55,0
7199,note_on,,59,0,7,,,,,,,,,,,,,,,,2,,55,0
7199,note_on,,59,0,13,,,,,,,,,,,,,,,,11,,67,0
7199,note_on,,59,0,14,,,,,,,,,,,,,,,,12,,55,0
7200,note_on,,1,0,12,,,,,,,,,,,,,,,,10,,69,72
7200,note_on,,1,0,15,,,,,,,,,,,,,,,,13,,53,72
7200,note_on,,1,0,6,,,,,,,,,,,,,,,,1,,69,72
7200,note_on,,1,0,10,,,,,,,,,,,,,,,,7,,53,72
7200,note_on,,1,0,13,,,,,,,,,,,,,,,,11,,60,72
7200,note_on,,1,0,7,,,,,,,,,,,,,,,,2,,53,72
7200,note_on,,1,0,5,,,,,,,,,,,,,,,,0,,69,72
7200,note_on,,1,0,16,,,,,,,,,,,,,,,,15,,53,72
7200,note_on,,0,0,16,,,,,,,,,,,,,,,,15,,72,72
7200,note_on,,0,0,16,,,,,,,,,,,,,,,,15,,69,72
7200,note_on,,0,0,16,,,,,,,,,,,,,,,,15,,65,72
7200,note_on,,1,0,8,,,,,,,,,,,,,,,,5,,69,72
7200,note_on,,1,0,14,,,,,,,,,,,,,,,,12,,53,72
7259,note_on,,59,0,8,,,,,,,,,,,,,,,,5,,69,0
7259,note_on,,59,0,6,,,,,,,,,,,,,,,,1,,69,0
7259,note_on,,59,0,12,,,,,,,,,,,,,,,,10,,69,0
7259,note_on,,59,0,5,,,,,,,,,,,,,,,,0,,69,0
7260,note_on,,1,0,12,,,,,,,,,,,,,,,,10,,65,72
7260,note_on,,1,0,5,,,,,,,,,,,,,,,,0,,65,72
7260,note_on,,1,0,8,,,,,,,,,,,,,,,,5,,65,72
7260,note_on,,1,0,6,,,,,,,,,,,,,,,,1,,65,72
7319,note_on,,59,0,6,,,,,,,,,,,,,,,,1,,65,0
7319,note_on,,59,0,8,,,,,,,,,,,,,,,,5,,65,0
7319,note_on,,59,0,12,,,,,,,,,,,,,,,,10,,65,0
7319,note_on,,119,0,13,,,,,,,,,,,,,,,,11,,60,0
7319,note_on,,59,0,5,,,,,,,,,,,,,,,,0,,65,0
7320,note_on,,1,0,6,,,,,,,,,,,,,,,,1,,67,72
7320,note_on,,1,0,5,,,,,,,,,,,,,,,,0,,67,72
7320,note_on,,1,0,12,,,,,,,,,,,,,,,,10,,67,72
7320,note_on,,1,0,8,,,,,,,,,,,,,,,,5,,67,72
7320,note_on,,1,0,13,,,,,,,,,,,,,,,,11,,77,72
7379,note_on,,59,0,8,,,,,,,,,,,,,,,,5,,67,0
7379,note_on,,59,0,5,,,,,,,,,,,,,,,,0,,67,0
7379,note_on,,59,0,12,,,,,,,,,,,,,,,,10,,67,0
7379,note_on,,59,0,13,,,,,,,,,,,,,,,,11,,77,0
7379,note_on,,59,0,6,,,,,,,,,,,,,,,,1,,67,0
7380,note_on,,1,0,13,,,,,,,,,,,,,,,,11,,75,72
7380,note_on,,1,0,6,,,,,,,,,,,,,,,,1,,69,72
7380,note_on,,1,0,8,,,,,,,,,,,,,,,,5,,69,72
7380,note_on,,1,0,5,,,,,,,,,,,,,,,,0,,69,72
7380,note_on,,1,0,12,,,,,,,,,,,,,,,,10,,69,72
7439,note_on,,59,0,8,,,,,,,,,,,,,,,,5,,69,0
7439,note_on,,59,0,5,,,,,,,,,,,,,,,,0,,69,0
7439,note_on,,59,0,12,,,,,,,,,,,,,,,,10,,69,0
7439,note_on,,239,0,10,,,,,,,,,,,,,,,,7,,53,0
7439,note_on,,59,0,13,,,,,,,,,,,,,,,,11,,75,0
7439,note_on,,59,0,6,,,,,,,,,,,,,,,,1,,69,0
7439,note_on,,239,0,14,,,,,,,,,,,,,,,,12,,53,0
7440,note_on,,1,0,12,,,,,,,,,,,,,,,,10,,70,72
7440,note_on,,1,0,13,,,,,,,,,,,,,,,,11,,74,72
7440,note_on,,1,0,8,,,,,,,,,,,,,,,,5,,70,72
7440,note_on,,1,0,6,,,,,,,,,,,,,,,,1,,70,72
7440,note_on,,1,0,5,,,,,,,,,,,,,,,,0,,70,72
7499,note_on,,299,0,15,,,,,,,,,,,,,,,,13,,53,0
7499,note_on,,59,0,6,,,,,,,,,,,,,,,,1,,70,0
7499,note_on,,59,0,8,,,,,,,,,,,,,,,,5,,70,0
7499,note_on,,59,0,12,,,,,,,,,,,,,,,,10,,70,0
7499,note_on,,299,0,16,,,,,,,,,,,,,,,,15,,53,0
7499,note_on,,59,0,5,,,,,,,,,,,,,,,,0,,70,0
7499,note_on,,299,0,7,,,,,,,,,,,,,,,,2,,53,0
7500,note_on,,1,0,7,,,,,,,,,,,,,,,,2,,65,72
7500,note_on,,1,0,6,,,,,,,,,,,,,,,,1,,72,72
7500,note_on,,1,0,8,,,,,,,,,,,,,,,,5,,72,72
7500,note_on,,1,0,16,,,,,,,,,,,,,,,,15,,65,72
7500,note_on,,61,0,14,,,,,,,,,,,,,,,,12,,65,72
7500,note_on,,1,0,5,,,,,,,,,,,,,,,,0,,72,72
7500,note_on,,61,0,10,,,,,,,,,,,,,,,,7,,65,72
7500,note_on,,1,0,12,,,,,,,,,,,,,,,,10,,72,72
7500,note_on,,1,0,15,,,,,,,,,,,,,,,,13,,65,72
7559,note_on,,0,0,16,,,,,,,,,,,,,,,,15,,65,0
7559,note_on,,59,0,6,,,,,,,,,,,,,,,,1,,72,0
7559,note_on,,59,0,8,,,,,,,,,,,,,,,,5,,72,0
7559,note_on,,59,0,5,,,,,,,,,,,,,,,,0,,72,0
7559,note_on,,59,0,15,,,,,,,,,,,,,,,,13,,65,0
7559,note_on,,59,0,7,,,,,,,,,,,,,,,,2,,65,0
7559,note_on,,59,0,12,,,,,,,,,,,,,,,,10,,72,0
7559,note_on,,59,0,14,,,,,,,,,,,,,,,,12,,65,0
7559,note_on,,59,0,16,,,,,,,,,,,,,,,,15,,72,0
7559,note_on,,0,0,16,,,,,,,,,,,,,,,,15,,69,0
7559,note_on,,0,0,16,,,,,,,,,,,,,,,,15,,65,0
7559,note_on,,59,0,10,,,,,,,,,,,,,,,,7,,65,0
7560,note_on,,0,0,16,,,,,,,,,,,,,,,,15,,74,72
7560,note_on,,0,0,16,,,,,,,,,,,,,,,,15,,70,72
7560,note_on,,1,0,12,,,,,,,,,,,,,,,,10,,74,72
7560,note_on,,1,0,14,,,,,,,,,,,,,,,,12,,65,72
7560,note_on,,1,0,5,,,,,,,,,,,,,,,,0,,74,72
7560,note_on,,1,0,16,,,,,,,,,,,,,,,,15,,65,72
7560,note_on,,1,0,8,,,,,,,,,,,,,,,,5,,74,72
7560,note_on,,1,0,10,,,,,,,,,,,,,,,,7,,65,72
7560,note_on,,1,0,6,,,,,,,,,,,,,,,,1,,74,72
7560,note_on,,1,0,7,,,,,,,,,,,,,,,,2,,65,72
7560,note_on,,1,0,15,,,,,,,,,,,,,,,,13,,65,72
7619,note_on,,59,0,6,,,,,,,,,,,,,,,,1,,74,0
7619,note_on,,59,0,16,,,,,,,,,,,,,,,,15,,65,0
7619,note_on,,59,0,7,,,,,,,,,,,,,,,,2,,65,0
7619,note_on,,59,0,15,,,,,,,,,,,,,,,,13,,65,0
7619,note_on,,0,0,16,,,,,,,,,,,,,,,,15,,74,0
7619,note_on,,59,0,12,,,,,,,,,,,,,,,,10,,74,0
7619,note_on,,59,0,8,,,,,,,,,,,,,,,,5,,74,0
7619,note_on,,59,0,14,,,,,,,,,,,,,,,,12,,65,0
7619,note_on,,59,0,10,,,,,,,,,,,,,,,,7,,65,0
7619,note_on,,59,0,5,,,,,,,,,,,,,,,,0,,74,0
7619,note_on,,179,0,13,,,,,,,,,,,,,,,,11,,74,0
7619,note_on,,0,0,16,,,,,,,,,,,,,,,,15,,70,0
7620,note_on,,1,0,14,,,,,,,,,,,,,,,,12,,63,72
7620,note_on,,1,0,10,,,,,,,,,,,,,,,,7,,63,72
7620,note_on,,1,0,13,,,,,,,,,,,,,,,,11,,72,72
7620,note_on,,1,0,12,,,,,,,,,,,,,,,,10,,75,72
7620,note_on,,1,0,8,,,,,,,,,,,,,,,,5,,75,72
7620,note_on,,0,0,16,,,,,,,,,,,,,,,,15,,72,72
7620,note_on,,1,0,15,,,,,,,,,,,,,,,,13,,63,72
7620,note_on,,1,0,6,,,,,,,,,,,,,,,,1,,75,72
7620,note_on,,1,0,7,,,,,,,,,,,,,,,,2,,63,72
7620,note_on,,1,0,5,,,,,,,,,,,,,,,,0,,75,72
7620,note_on,,1,0,16,,,,,,,,,,,,,,,,15,,63,72
7620,note_on,,0,0,16,,,,,,,,,,,,,,,,15,,69,72
7679,note_on,,59,0,16,,,,,,,,,,,,,,,,15,,63,0
7679,note_on,,0,0,16,,,,,,,,,,,,,,,,15,,72,0
7679,note_on,,0,0,16,,,,,,,,,,,,,,,,15,,69,0
7679,note_on,,59,0,6,,,,,,,,,,,,,,,,1,,75,0
7679,note_on,,59,0,7,,,,,,,,,,,,,,,,2,,63,0
7679,note_on,,59,0,15,,,,,,,,,,,,,,,,13,,63,0
7679,note_on,,59,0,8,,,,,,,,,,,,,,,,5,,75,0
7679,note_on,,59,0,14,,,,,,,,,,,,,,,,12,,63,0
7679,note_on,,59,0,10,,,,,,,,,,,,,,,,7,,63,0
7679,note_on,,59,0,13,,,,,,,,,,,,,,,,11,,72,0
7679,note_on,,59,0,12,,,,,,,,,,,,,,,,10,,75,0
7679,note_on,,59,0,5,,,,,,,,,,,,,,,,0,,75,0
7680,note_on,,1,0,7,,,,,,,,,,,,,,,,2,,62,72
7680,note_on,,1,0,13,,,,,,,,,,,,,,,,11,,70,72
7680,note_on,,1,0,10,,,,,,,,,,,,,,,,7,,62,72
7680,note_on,,1,0,8,,,,,,,,,,,,,,,,5,,77,72
7680,note_on,,0,0,16,,,,,,,,,,,,,,,,15,,65,72
7680,note_on,,0,0,16,,,,,,,,,,,,,,,,15,,70,72
7680,note_on,,1,0,16,,,,,,,,,,,,,,,,15,,62,72
7680,note_on,,1,0,15,,,,,,,,,,,,,,,,13,,62,72
7680,note_on,,1,0,12,,,,,,,,,,,,,,,,10,,77,72
7680,note_on,,1,0,5,,,,,,,,,,,,,,,,0,,77,72
7680,note_on,,1,0,14,,,,,,,,,,,,,,,,12,,62,72
7680,note_on,,1,0,6,,,,,,,,,,,,,,,,1,,77,72
7799,note_on,,119,0,15,,,,,,,,,,,,,,,,13,,62,0
7799,note_on,,119,0,6,,,,,,,,,,,,,,,,1,,77,0
7799,note_on,,119,0,5,,,,,,,,,,,,,,,,0,,77,0
7799,note_on,,119,0,7,,,,,,,,,,,,,,,,2,,62,0
7799,note_on,,119,0,8,,,,,,,,,,,,,,,,5,,77,0
7799,note_on,,119,0,12,,,,,,,,,,,,,,,,10,,77,0
7799,note_on,,119,0,10,,,,,,,,,,,,,,,,7,,62,0
7799,note_on,,119,0,16,,,,,,,,,,,,,,,,15,,62,0
7799,note_on,,119,0,14,,,,,,,,,,,,,,,,12,,62,0
7799,note_on,,119,0,13,,,,,,,,,,,,,,,,11,,70,0
7800,note_on,,1,0,7,,,,,,,,,,,,,,,,2,,60,72
7800,note_on,,1,0,13,,,,,,,,,,,,,,,,11,,69,72
7800,note_on,,1,0,15,,,,,,,,,,,,,,,,13,,60,72
7800,note_on,,1,0,8,,,,,,,,,,,,,,,,5,,75,72
7800,note_on,,1,0,12,,,,,,,,,,,,,,,,10,,75,72
7800,note_on,,1,0,5,,,,,,,,,,,,,,,,0,,75,72
7800,note_on,,1,0,14,,,,,,,,,,,,,,,,12,,60,72
7800,note_on,,1,0,10,,,,,,,,,,,,,,,,7,,60,72
7800,note_on,,1,0,6,,,,,,,,,,,,,,,,1,,75,72
7800,note_on,,1,0,16,,,,,,,,,,,,,,,,15,,60,72
7859,note_on,,59,0,13,,,,,,,,,,,,,,,,11,,69,0
7859,note_on,,59,0,14,,,,,,,,,,,,,,,,12,,60,0
7859,note_on,,59,0,6,,,,,,,,,,,,,,,,1,,75,0
7859,note_on,,59,0,12,,,,,,,,,,,,,,,,10,,75,0
7859,note_on,,59,0,15,,,,,,,,,,,,,,,,13,,60,0
7859,note_on,,59,0,5,,,,,,,,,,,,,,,,0,,75,0
7859,note_on,,59,0,10,,,,,,,,,,,,,,,,7,,60,0
7859,note_on,,59,0,8,,,,,,,,,,,,,,,,5,,75,0
7859,note_on,,59,0,7,,,,,,,,,,,,,,,,2,,60,0
7859,note_on,,59,0,16,,,,,,,,,,,,,,,,15,,60,0
7860,note_on,,1,0,6,,,,,,,,,,,,,,,,1,,74,72
7860,note_on,,1,0,12,,,,,,,,,,,,,,,,10,,74,72
7860,note_on,,1,0,8,,,,,,,,,,,,,,,,5,,74,72
7860,note_on,,1,0,7,,,,,,,,,,,,,,,,2,,58,72
7860,note_on,,1,0,14,,,,,,,,,,,,,,,,12,,58,72
7860,note_on,,1,0,16,,,,,,,,,,,,,,,,15,,58,72
7860,note_on,,1,0,10,,,,,,,,,,,,,,,,7,,58,72
7860,note_on,,1,0,5,,,,,,,,,,,,,,,,0,,74,72
7860,note_on,,1,0,13,,,,,,,,,,,,,,,,11,,70,72
7860,note_on,,1,0,15,,,,,,,,,,,,,,,,13,,58,72
7919,note_on,,59,0,6,,,,,,,,,,,,,,,,1,,74,0
7919,note_on,,59,0,8,,,,,,,,,,,,,,,,5,,74,0
7919,note_on,,59,0,12,,,,,,,,,,,,,,,,10,,74,0
7919,note_on,,59,0,5,,,,,,,,,,,,,,,,0,,74,0
7919,note_on,,0,0,16,,,,,,,,,,,,,,,,15,,65,0
7919,note_on,,59,0,15,,,,,,,,,,,,,,,,13,,58,0
7919,note_on,,59,0,16,,,,,,,,,,,,,,,,15,,70,0
7919,note_on,,59,0,10,,,,,,,,,,,,,,,,7,,58,0
7919,note_on,,0,0,16,,,,,,,,,,,,,,,,15,,58,0
7919,note_on,,59,0,7,,,,,,,,,,,,,,,,2,,58,0
7919,note_on,,59,0,13,,,,,,,,,,,,,,,,11,,70,0
7919,note_on,,59,0,14,,,,,,,,,,,,,,,,12,,58,0
7920,note_on,,1,0,7,,,,,,,,,,,,,,,,2,,65,72
7920,note_on,,1,0,13,,,,,,,,,,,,,,,,11,,69,72
7920,note_on,,1,0,12,,,,,,,,,,,,,,,,10,,72,72
7920,note_on,,1,0,5,,,,,,,,,,,,,,,,0,,72,72
7920,note_on,,1,0,14,,,,,,,,,,,,,,,,12,,65,72
7920,note_on,,1,0,16,,,,,,,,,,,,,,,,15,,65,72
7920,note_on,,0,0,16,,,,,,,,,,,,,,,,15,,72,72
7920,note_on,,0,0,16,,,,,,,,,,,,,,,,15,,69,72
7920,note_on,,1,0,6,,,,,,,,,,,,,,,,1,,72,72
7920,note_on,,1,0,8,,,,,,,,,,,,,,,,5,,72,72
7920,note_on,,1,0,15,,,,,,,,,,,,,,,,13,,65,72
7920,note_on,,1,0,10,,,,,,,,,,,,,,,,7,,65,72
7979,note_on,,59,0,12,,,,,,,,,,,,,,,,10,,72,0
7979,note_on,,59,0,5,,,,,,,,,,,,,,,,0,,72,0
7979,note_on,,59,0,8,,,,,,,,,,,,,,,,5,,72,0
7979,note_on,,59,0,6,,,,,,,,,,,,,,,,1,,72,0
7980,note_on,,1,0,5,,,,,,,,,,,,,,,,0,,70,72
7980,note_on,,1,0,8,,,,,,,,,,,,,,,,5,,70,72
7980,note_on,,1,0,6,,,,,,,,,,,,,,,,1,,70,72
7980,note_on,,1,0,12,,,,,,,,,,,,,,,,10,,70,72
8039,note_on,,0,0,16,,,,,,,,,,,,,,,,15,,69,0
8039,note_on,,0,0,16,,,,,,,,,,,,,,,,15,,72,0
8039,note_on,,119,0,16,,,,,,,,,,,,,,,,15,,65,0
8039,note_on,,59,0,5,,,,,,,,,,,,,,,,0,,70,0
8039,note_on,,119,0,15,,,,,,,,,,,,,,,,13,,65,0
8039,note_on,,59,0,6,,,,,,,,,,,,,,,,1,,70,0
8039,note_on,,119,0,7,,,,,,,,,,,,,,,,2,,65,0
8039,note_on,,59,0,12,,,,,,,,,,,,,,,,10,,70,0
8039,note_on,,59,0,8,,,,,,,,,,,,,,,,5,,70,0
8040,note_on,,1,0,15,,,,,,,,,,,,,,,,13,,53,72
8040,note_on,,1,0,12,,,,,,,,,,,,,,,,10,,69,72
8040,note_on,,1,0,8,,,,,,,,,,,,,,,,5,,69,72
8040,note_on,,1,0,5,,,,,,,,,,,,,,,,0,,69,72
8040,note_on,,2281,0,11,,,,,,,,,,,,,,,,8,,53,72
8040,note_on,,1,0,6,,,,,,,,,,,,,,,,1,,69,72
8040,note_on,,1,0,16,,,,,,,,,,,,,,,,15,,53,72
8040,note_on,,0,0,16,,,,,,,,,,,,,,,,15,,60,72
8040,note_on,,0,0,16,,,,,,,,,,,,,,,,15,,77,72
8040,note_on,,0,0,16,,,,,,,,,,,,,,,,15,,69,72
8040,note_on,,0,0,16,,,,,,,,,,,,,,,,15,,72,72
8040,note_on,,1,0,7,,,,,,,,,,,,,,,,2,,53,72
8099,note_on,,59,0,11,,,,,,,,,,,,,,,,8,,53,0
8099,note_on,,59,0,5,,,,,,,,,,,,,,,,0,,69,0
8099,note_on,,59,0,6,,,,,,,,,,,,,,,,1,,69,0
8099,note_on,,59,0,16,,,,,,,,,,,,,,,,15,,53,0
8099,note_on,,59,0,8,,,,,,,,,,,,,,,,5,,69,0
8099,note_on,,59,0,12,,,,,,,,,,,,,,,,10,,69,0
8099,note_on,,59,0,15,,,,,,,,,,,,,,,,13,,53,0
8099,note_on,,179,0,13,,,,,,,,,,,,,,,,11,,69,0
8099,note_on,,59,0,7,,,,,,,,,,,,,,,,2,,53,0
8100,note_on,,1,0,6,,,,,,,,,,,,,,,,1,,67,72
8100,note_on,,1,0,7,,,,,,,,,,,,,,,,2,,51,72
8100,note_on,,1,0,5,,,,,,,,,,,,,,,,0,,67,72
8100,note_on,,1,0,13,,,,,,,,,,,,,,,,11,,57,72
8100,note_on,,1,0,11,,,,,,,,,,,,,,,,8,,51,72
8100,note_on,,1,0,8,,,,,,,,,,,,,,,,5,,67,72
8100,note_on,,1,0,16,,,,,,,,,,,,,,,,15,,51,72
8100,note_on,,1,0,12,,,,,,,,,,,,,,,,10,,67,72
8100,note_on,,1,0,15,,,,,,,,,,,,,,,,13,,51,72
8159,note_on,,0,0,16,,,,,,,,,,,,,,,,15,,69,0
8159,note_on,,0,0,16,,,,,,,,,,,,,,,,15,,72,0
8159,note_on,,239,0,14,,,,,,,,,,,,,,,,12,,65,0
8159,note_on,,59,0,12,,,,,,,,,,,,,,,,10,,67,0
8159,note_on,,0,0,16,,,,,,,,,,,,,,,,15,,51,0
8159,note_on,,59,0,5,,,,,,,,,,,,,,,,0,,67,0
8159,note_on,,0,0,16,,,,,,,,,,,,,,,,15,,77,0
8159,note_on,,59,0,11,,,,,,,,,,,,,,,,8,,51,0
8159,note_on,,59,0,15,,,,,,,,,,,,,,,,13,,51,0
8159,note_on,,59,0,6,,,,,,,,,,,,,,,,1,,67,0
8159,note_on,,59,0,13,,,,,,,,,,,,,,,,11,,57,0
8159,note_on,,59,0,16,,,,,,,,,,,,,,,,15,,60,0
8159,note_on,,59,0,8,,,,,,,,,,,,,,,,5,,67,0
8159,note_on,,59,0,7,,,,,,,,,,,,,,,,2,,51,0
8160,note_on,,1,0,12,,,,,,,,,,,,,,,,10,,65,72
8160,note_on,,1,0,6,,,,,,,,,,,,,,,,1,,65,72
8160,note_on,,1,0,13,,,,,,,,,,,,,,,,11,,58,72
8160,note_on,,1,0,8,,,,,,,,,,,,,,,,5,,65,72
8160,note_on,,1,0,11,,,,,,,,,,,,,,,,8,,50,72
8160,note_on,,0,0,16,,,,,,,,,,,,,,,,15,,82,72
8160,note_on,,1,0,7,,,,,,,,,,,,,,,,2,,50,72
8160,note_on,,1,0,5,,,,,,,,,,,,,,,,0,,65,72
8160,note_on,,1,0,14,,,,,,,,,,,,,,,,12,,58,72
8160,note_on,,0,0,16,,,,,,,,,,,,,,,,15,,53,72
8160,note_on,,0,0,16,,,,,,,,,,,,,,,,15,,70,72
8160,note_on,,0,0,16,,,,,,,,,,,,,,,,15,,77,72
8160,note_on,,1,0,16,,,,,,,,,,,,,,,,15,,50,72
8160,note_on,,1,0,15,,,,,,,,,,,,,,,,13,,50,72
8219,note_on,,59,0,16,,,,,,,,,,,,,,,,15,,50,0
8219,note_on,,59,0,11,,,,,,,,,,,,,,,,8,,50,0
8219,note_on,,59,0,7,,,,,,,,,,,,,,,,2,,50,0
8219,note_on,,59,0,15,,,,,,,,,,,,,,,,13,,50,0
8219,note_on,,59,0,12,,,,,,,,,,,,,,,,10,,65,0
8220,note_on,,1,0,11,,,,,,,,,,,,,,,,8,,46,72
8220,note_on,,1,0,7,,,,,,,,,,,,,,,,2,,46,72
8220,note_on,,1,0,12,,,,,,,,,,,,,,,,10,,62,72
8220,note_on,,1,0,15,,,,,,,,,,,,,,,,13,,46,72
8220,note_on,,1,0,16,,,,,,,,,,,,,,,,15,,46,72
8279,note_on,,59,0,11,,,,,,,,,,,,,,,,8,,46,0
8279,note_on,,59,0,7,,,,,,,,,,,,,,,,2,,46,0
8279,note_on,,59,0,12,,,,,,,,,,,,,,,,10,,62,0
8279,note_on,,0,0,16,,,,,,,,,,,,,,,,15,,46,0
8279,note_on,,59,0,15,,,,,,,,,,,,,,,,13,,46,0
8279,note_on,,0,0,16,,,,,,,,,,,,,,,,15,,77,0
8279,note_on,,0,0,16,,,,,,,,,,,,,,,,15,,70,0
8279,note_on,,59,0,16,,,,,,,,,,,,,,,,15,,82,0
8280,note_on,,0,0,16,,,,,,,,,,,,,,,,15,,65,72
8280,note_on,,0,0,16,,,,,,,,,,,,,,,,15,,70,72
8280,note_on,,0,0,16,,,,,,,,,,,,,,,,15,,74,72
8280,note_on,,1,0,16,,,,,,,,,,,,,,,,15,,48,72
8280,note_on,,1,0,11,,,,,,,,,,,,,,,,8,,48,72
8280,note_on,,1,0,15,,,,,,,,,,,,,,,,13,,48,72
8280,note_on,,1,0,12,,,,,,,,,,,,,,,,10,,63,72
8280,note_on,,1,0,7,,,,,,,,,,,,,,,,2,,48,72
8339,note_on,,59,0,7,,,,,,,,,,,,,,,,2,,48,0
8339,note_on,,179,0,5,,,,,,,,,,,,,,,,0,,65,0
8339,note_on,,59,0,12,,,,,,,,,,,,,,,,10,,63,0
8339,note_on,,59,0,11,,,,,,,,,,,,,,,,8,,48,0
8339,note_on,,419,0,10,,,,,,,,,,,,,,,,7,,65,0
8339,note_on,,179,0,8,,,,,,,,,,,,,,,,5,,65,0
8339,note_on,,59,0,16,,,,,,,,,,,,,,,,15,,48,0
8339,note_on,,59,0,15,,,,,,,,,,,,,,,,13,,48,0
8339,note_on,,179,0,6,,,,,,,,,,,,,,,,1,,65,0
8339,note_on,,179,0,13,,,,,,,,,,,,,,,,11,,58,0
8340,note_on,,1,0,8,,,,,,,,,,,,,,,,5,,70,72
8340,note_on,,1,0,7,,,,,,,,,,,,,,,,2,,50,72
8340,note_on,,1,0,5,,,,,,,,,,,,,,,,0,,70,72
8340,note_on,,1,0,6,,,,,,,,,,,,,,,,1,,70,72
8340,note_on,,1,0,16,,,,,,,,,,,,,,,,15,,50,72
8340,note_on,,1,0,12,,,,,,,,,,,,,,,,10,,65,72
8340,note_on,,1,0,10,,,,,,,,,,,,,,,,7,,65,72
8340,note_on,,1,0,15,,,,,,,,,,,,,,,,13,,50,72
8340,note_on,,1,0,13,,,,,,,,,,,,,,,,11,,70,72
8340,note_on,,1,0,11,,,,,,,,,,,,,,,,8,,50,72
8399,note_on,,0,0,16,,,,,,,,,,,,,,,,15,,65,0
8399,note_on,,0,0,16,,,,,,,,,,,,,,,,15,,50,0
8399,note_on,,59,0,7,,,,,,,,,,,,,,,,2,,50,0
8399,note_on,,59,0,12,,,,,,,,,,,,,,,,10,,65,0
8399,note_on,,0,0,16,,,,,,,,,,,,,,,,15,,70,0
8399,note_on,,0,0,16,,,,,,,,,,,,,,,,15,,74,0
8399,note_on,,59,0,6,,,,,,,,,,,,,,,,1,,70,0
8399,note_on,,59,0,10,,,,,,,,,,,,,,,,7,,65,0
8399,note_on,,59,0,16,,,,,,,,,,,,,,,,15,,53,0
8399,note_on,,59,0,15,,,,,,,,,,,,,,,,13,,50,0
8399,note_on,,59,0,13,,,,,,,,,,,,,,,,11,,70,0
8399,note_on,,59,0,5,,,,,,,,,,,,,,,,0,,70,0
8399,note_on,,59,0,11,,,,,,,,,,,,,,,,8,,50,0
8399,note_on,,59,0,8,,,,,,,,,,,,,,,,5,,70,0
8400,note_on,,1,0,11,,,,,,,,,,,,,,,,8,,51,72
8400,note_on,,1,0,10,,,,,,,,,,,,,,,,7,,58,72
8400,note_on,,1,0,15,,,,,,,,,,,,,,,,13,,51,72
8400,note_on,,1,0,13,,,,,,,,,,,,,,,,11,,79,72
8400,note_on,,1,0,12,,,,,,,,,,,,,,,,10,,67,72
8400,note_on,,1,0,5,,,,,,,,,,,,,,,,0,,79,72
8400,note_on,,0,0,16,,,,,,,,,,,,,,,,15,,67,72
8400,note_on,,1,0,16,,,,,,,,,,,,,,,,15,,51,72
8400,note_on,,1,0,7,,,,,,,,,,,,,,,,2,,51,72
8400,note_on,,1,0,8,,,,,,,,,,,,,,,,5,,79,72
8400,note_on,,0,0,16,,,,,,,,,,,,,,,,15,,70,72
8400,note_on,,0,0,16,,,,,,,,,,,,,,,,15,,63,72
8400,note_on,,0,0,16,,,,,,,,,,,,,,,,15,,58,72
8400,note_on,,1,0,6,,,,,,,,,,,,,,,,1,,79,72
8459,note_on,,59,0,11,,,,,,,,,,,,,,,,8,,51,0
8459,note_on,,59,0,15,,,,,,,,,,,,,,,,13,,51,0
8459,note_on,,59,0,7,,,,,,,,,,,,,,,,2,,51,0
8459,note_on,,59,0,12,,,,,,,,,,,,,,,,10,,67,0
8459,note_on,,59,0,16,,,,,,,,,,,,,,,,15,,51,0
8460,note_on,,1,0,15,,,,,,,,,,,,,,,,13,,53,72
8460,note_on,,1,0,11,,,,,,,,,,,,,,,,8,,53,72
8460,note_on,,1,0,16,,,,,,,,,,,,,,,,15,,53,72
8460,note_on,,1,0,7,,,,,,,,,,,,,,,,2,,53,72
8460,note_on,,1,0,12,,,,,,,,,,,,,,,,10,,69,72
8519,note_on,,0,0,16,,,,,,,,,,,,,,,,15,,63,0
8519,note_on,,0,0,16,,,,,,,,,,,,,,,,15,,53,0
8519,note_on,,0,0,16,,,,,,,,,,,,,,,,15,,67,0
8519,note_on,,59,0,16,,,,,,,,,,,,,,,,15,,70,0
8519,note_on,,359,0,14,,,,,,,,,,,,,,,,12,,58,0
8519,note_on,,59,0,7,,,,,,,,,,,,,,,,2,,53,0
8519,note_on,,59,0,11,,,,,,,,,,,,,,,,8,,53,0
8519,note_on,,119,0,6,,,,,,,,,,,,,,,,1,,79,0
8519,note_on,,119,0,8,,,,,,,,,,,,,,,,5,,79,0
8519,note_on,,59,0,12,,,,,,,,,,,,,,,,10,,69,0
8519,note_on,,119,0,5,,,,,,,,,,,,,,,,0,,79,0
8519,note_on,,59,0,15,,,,,,,,,,,,,,,,13,,53,0
8519,note_on,,119,0,13,,,,,,,,,,,,,,,,11,,79,0
8520,note_on,,1,0,7,,,,,,,,,,,,,,,,2,,55,72
8520,note_on,,0,0,16,,,,,,,,,,,,,,,,15,,75,72
8520,note_on,,1,0,16,,,,,,,,,,,,,,,,15,,55,72
8520,note_on,,1,0,13,,,,,,,,,,,,,,,,11,,77,72
8520,note_on,,1,0,15,,,,,,,,,,,,,,,,13,,55,72
8520,note_on,,1,0,11,,,,,,,,,,,,,,,,8,,55,72
8520,note_on,,0,0,16,,,,,,,,,,,,,,,,15,,70,72
8520,note_on,,1,0,8,,,,,,,,,,,,,,,,5,,77,72
8520,note_on,,0,0,16,,,,,,,,,,,,,,,,15,,63,72
8520,note_on,,1,0,12,,,,,,,,,,,,,,,,10,,70,72
8520,note_on,,1,0,14,,,,,,,,,,,,,,,,12,,58,72
8520,note_on,,1,0,6,,,,,,,,,,,,,,,,1,,77,72
8520,note_on,,1,0,5,,,,,,,,,,,,,,,,0,,77,72
8579,note_on,,59,0,7,,,,,,,,,,,,,,,,2,,55,0
8579,note_on,,59,0,11,,,,,,,,,,,,,,,,8,,55,0
8579,note_on,,59,0,6,,,,,,,,,,,,,,,,1,,77,0
8579,note_on,,59,0,16,,,,,,,,,,,,,,,,15,,58,0
8579,note_on,,59,0,13,,,,,,,,,,,,,,,,11,,77,0
8579,note_on,,59,0,15,,,,,,,,,,,,,,,,13,,55,0
8579,note_on,,0,0,16,,,,,,,,,,,,,,,,15,,55,0
8579,note_on,,59,0,8,,,,,,,,,,,,,,,,5,,77,0
8579,note_on,,59,0,12,,,,,,,,,,,,,,,,10,,70,0
8579,note_on,,59,0,5,,,,,,,,,,,,,,,,0,,77,0
8579,note_on,,179,0,10,,,,,,,,,,,,,,,,7,,58,0
8580,note_on,,1,0,8,,,,,,,,,,,,,,,,5,,75,72
8580,note_on,,1,0,11,,,,,,,,,,,,,,,,8,,57,72
8580,note_on,,1,0,10,,,,,,,,,,,,,,,,7,,60,72
8580,note_on,,1,0,7,,,,,,,,,,,,,,,,2,,57,72
8580,note_on,,1,0,6,,,,,,,,,,,,,,,,1,,75,72
8580,note_on,,0,0,16,,,,,,,,,,,,,,,,15,,60,72
8580,note_on,,1,0,16,,,,,,,,,,,,,,,,15,,57,72
8580,note_on,,1,0,13,,,,,,,,,,,,,,,,11,,75,72
8580,note_on,,1,0,12,,,,,,,,,,,,,,,,10,,72,72
8580,note_on,,1,0,15,,,,,,,,,,,,,,,,13,,57,72
8580,note_on,,1,0,5,,,,,,,,,,,,,,,,0,,75,72
8639,note_on,,0,0,16,,,,,,,,,,,,,,,,15,,70,0
8639,note_on,,0,0,16,,,,,,,,,,,,,,,,15,,63,0
8639,note_on,,59,0,16,,,,,,,,,,,,,,,,15,,75,0
8639,note_on,,59,0,15,,,,,,,,,,,,,,,,13,,57,0
8639,note_on,,59,0,5,,,,,,,,,,,,,,,,0,,75,0
8639,note_on,,119,0,14,,,,,,,,,,,,,,,,12,,58,0
8639,note_on,,0,0,16,,,,,,,,,,,,,,,,15,,57,0
8639,note_on,,59,0,13,,,,,,,,,,,,,,,,11,,75,0
8639,note_on,,59,0,12,,,,,,,,,,,,,,,,10,,72,0
8639,note_on,,0,0,16,,,,,,,,,,,,,,,,15,,60,0
8639,note_on,,59,0,8,,,,,,,,,,,,,,,,5,,75,0
8639,note_on,,59,0,11,,,,,,,,,,,,,,,,8,,57,0
8639,note_on,,59,0,10,,,,,,,,,,,,,,,,7,,60,0
8639,note_on,,59,0,7,,,,,,,,,,,,,,,,2,,57,0
8639,note_on,,59,0,6,,,,,,,,,,,,,,,,1,,75,0
8640,note_on,,0,0,16,,,,,,,,,,,,,,,,15,,65,72
8640,note_on,,1,0,6,,,,,,,,,,,,,,,,1,,74,72
8640,note_on,,1,0,14,,,,,,,,,,,,,,,,12,,62,72
8640,note_on,,1,0,8,,,,,,,,,,,,,,,,5,,74,72
8640,note_on,,1,0,15,,,,,,,,,,,,,,,,13,,58,72
8640,note_on,,1,0,5,,,,,,,,,,,,,,,,0,,74,72
8640,note_on,,0,0,16,,,,,,,,,,,,,,,,15,,70,72
8640,note_on,,1,0,11,,,,,,,,,,,,,,,,8,,58,72
8640,note_on,,1,0,10,,,,,,,,,,,,,,,,7,,62,72
8640,note_on,,1,0,12,,,,,,,,,,,,,,,,10,,65,72
8640,note_on,,0,0,16,,,,,,,,,,,,,,,,15,,62,72
8640,note_on,,1,0,16,,,,,,,,,,,,,,,,15,,58,72
8640,note_on,,0,0,16,,,,,,,,,,,,,,,,15,,74,72
8640,note_on,,1,0,7,,,,,,,,,,,,,,,,2,,58,72
8640,note_on,,1,0,13,,,,,,,,,,,,,,,,11,,74,72
8699,note_on,,59,0,10,,,,,,,,,,,,,,,,7,,62,0
8699,note_on,,59,0,14,,,,,,,,,,,,,,,,12,,62,0
8700,note_on,,1,0,10,,,,,,,,,,,,,,,,7,,63,72
8700,note_on,,1,0,14,,,,,,,,,,,,,,,,12,,63,72
8759,note_on,,59,0,10,,,,,,,,,,,,,,,,7,,63,0
8759,note_on,,119,0,6,,,,,,,,,,,,,,,,1,,74,0
8759,note_on,,119,0,12,,,,,,,,,,,,,,,,10,,65,0
8759,note_on,,119,0,7,,,,,,,,,,,,,,,,2,,58,0
8759,note_on,,119,0,16,,,,,,,,,,,,,,,,15,,58,0
8759,note_on,,119,0,8,,,,,,,,,,,,,,,,5,,74,0
8759,note_on,,59,0,14,,,,,,,,,,,,,,,,12,,63,0
8759,note_on,,119,0,15,,,,,,,,,,,,,,,,13,,58,0
8759,note_on,,119,0,13,,,,,,,,,,,,,,,,11,,74,0
8759,note_on,,119,0,11,,,,,,,,,,,,,,,,8,,58,0
8759,note_on,,119,0,5,,,,,,,,,,,,,,,,0,,74,0
8760,note_on,,1,0,10,,,,,,,,,,,,,,,,7,,65,72
8760,note_on,,1,0,16,,,,,,,,,,,,,,,,15,,57,72
8760,note_on,,1,0,14,,,,,,,,,,,,,,,,12,,65,72
8760,note_on,,1,0,15,,,,,,,,,,,,,,,,13,,57,72
8760,note_on,,1,0,8,,,,,,,,,,,,,,,,5,,72,72
8760,note_on,,1,0,7,,,,,,,,,,,,,,,,2,,57,72
8760,note_on,,1,0,13,,,,,,,,,,,,,,,,11,,72,72
8760,note_on,,1,0,6,,,,,,,,,,,,,,,,1,,72,72
8760,note_on,,1,0,11,,,,,,,,,,,,,,,,8,,57,72
8760,note_on,,1,0,5,,,,,,,,,,,,,,,,0,,72,72
8819,note_on,,59,0,5,,,,,,,,,,,,,,,,0,,72,0
8819,note_on,,59,0,6,,,,,,,,,,,,,,,,1,,72,0
8819,note_on,,59,0,10,,,,,,,,,,,,,,,,7,,65,0
8819,note_on,,59,0,11,,,,,,,,,,,,,,,,8,,57,0
8819,note_on,,59,0,7,,,,,,,,,,,,,,,,2,,57,0
8819,note_on,,59,0,14,,,,,,,,,,,,,,,,12,,65,0
8819,note_on,,59,0,13,,,,,,,,,,,,,,,,11,,72,0
8819,note_on,,59,0,16,,,,,,,,,,,,,,,,15,,57,0
8819,note_on,,59,0,8,,,,,,,,,,,,,,,,5,,72,0
8819,note_on,,59,0,15,,,,,,,,,,,,,,,,13,,57,0
8820,note_on,,1,0,11,,,,,,,,,,,,,,,,8,,55,72
8820,note_on,,1,0,7,,,,,,,,,,,,,,,,2,,55,72
8820,note_on,,1,0,8,,,,,,,,,,,,,,,,5,,70,72
8820,note_on,,1,0,6,,,,,,,,,,,,,,,,1,,70,72
8820,note_on,,1,0,14,,,,,,,,,,,,,,,,12,,67,72
8820,note_on,,1,0,10,,,,,,,,,,,,,,,,7,,67,72
8820,note_on,,1,0,13,,,,,,,,,,,,,,,,11,,70,72
8820,note_on,,1,0,5,,,,,,,,,,,,,,,,0,,70,72
8820,note_on,,1,0,16,,,,,,,,,,,,,,,,15,,55,72
8820,note_on,,1,0,15,,,,,,,,,,,,,,,,13,,55,72
8879,note_on,,59,0,5,,,,,,,,,,,,,,,,0,,70,0
8879,note_on,,59,0,8,,,,,,,,,,,,,,,,5,,70,0
8879,note_on,,59,0,6,,,,,,,,,,,,,,,,1,,70,0
8879,note_on,,59,0,10,,,,,,,,,,,,,,,,7,,67,0
8879,note_on,,59,0,13,,,,,,,,,,,,,,,,11,,70,0
8879,note_on,,59,0,14,,,,,,,,,,,,,,,,12,,67,0
8879,note_on,,0,0,16,,,,,,,,,,,,,,,,15,,55,0
8879,note_on,,0,0,16,,,,,,,,,,,,,,,,15,,62,0
8879,note_on,,0,0,16,,,,,,,,,,,,,,,,15,,65,0
8879,note_on,,59,0,16,,,,,,,,,,,,,,,,15,,74,0
8879,note_on,,0,0,16,,,,,,,,,,,,,,,,15,,70,0
8879,note_on,,59,0,7,,,,,,,,,,,,,,,,2,,55,0
8879,note_on,,59,0,11,,,,,,,,,,,,,,,,8,,55,0
8879,note_on,,59,0,15,,,,,,,,,,,,,,,,13,,55,0
8880,note_on,,1,0,5,,,,,,,,,,,,,,,,0,,69,72
8880,note_on,,1,0,6,,,,,,,,,,,,,,,,1,,69,72
8880,note_on,,1,0,13,,,,,,,,,,,,,,,,11,,69,72
8880,note_on,,1,0,14,,,,,,,,,,,,,,,,12,,60,72
8880,note_on,,1,0,11,,,,,,,,,,,,,,,,8,,53,72
8880,note_on,,0,0,16,,,,,,,,,,,,,,,,15,,65,72
8880,note_on,,0,0,16,,,,,,,,,,,,,,,,15,,72,72
8880,note_on,,0,0,16,,,,,,,,,,,,,,,,15,,77,72
8880,note_on,,0,0,16,,,,,,,,,,,,,,,,15,,56,72
8880,note_on,,1,0,15,,,,,,,,,,,,,,,,13,,53,72
8880,note_on,,1,0,8,,,,,,,,,,,,,,,,5,,69,72
8880,note_on,,1,0,7,,,,,,,,,,,,,,,,2,,53,72
8880,note_on,,1,0,16,,,,,,,,,,,,,,,,15,,53,72
8880,note_on,,1,0,10,,,,,,,,,,,,,,,,7,,60,72
8939,note_on,,59,0,11,,,,,,,,,,,,,,,,8,,53,0
8939,note_on,,59,0,15,,,,,,,,,,,,,,,,13,,53,0
8939,note_on,,59,0,16,,,,,,,,,,,,,,,,15,,53,0
8939,note_on,,59,0,7,,,,,,,,,,,,,,,,2,,53,0
8940,note_on,,1,0,11,,,,,,,,,,,,,,,,8,,51,72
8940,note_on,,1,0,15,,,,,,,,,,,,,,,,13,,51,72
8940,note_on,,1,0,7,,,,,,,,,,,,,,,,2,,51,72
8940,note_on,,1,0,16,,,,,,,,,,,,,,,,15,,51,72
8999,note_on,,59,0,11,,,,,,,,,,,,,,,,8,,51,0
8999,note_on,,119,0,10,,,,,,,,,,,,,,,,7,,60,0
8999,note_on,,59,0,15,,,,,,,,,,,,,,,,13,,51,0
8999,note_on,,119,0,13,,,,,,,,,,,,,,,,11,,69,0
8999,note_on,,119,0,8,,,,,,,,,,,,,,,,5,,69,0
8999,note_on,,119,0,14,,,,,,,,,,,,,,,,12,,60,0
8999,note_on,,59,0,16,,,,,,,,,,,,,,,,15,,51,0
8999,note_on,,119,0,5,,,,,,,,,,,,,,,,0,,69,0
8999,note_on,,59,0,7,,,,,,,,,,,,,,,,2,,51,0
8999,note_on,,119,0,6,,,,,,,,,,,,,,,,1,,69,0
9000,note_on,,1,0,5,,,,,,,,,,,,,,,,0,,77,72
9000,note_on,,241,0,12,,,,,,,,,,,,,,,,10,,77,72
9000,note_on,,1,0,15,,,,,,,,,,,,,,,,13,,50,72
9000,note_on,,1,0,16,,,,,,,,,,,,,,,,15,,50,72
9000,note_on,,1,0,13,,,,,,,,,,,,,,,,11,,70,72
9000,note_on,,1,0,11,,,,,,,,,,,,,,,,8,,50,72
9000,note_on,,1,0,7,,,,,,,,,,,,,,,,2,,50,72
9000,note_on,,1,0,6,,,,,,,,,,,,,,,,1,,70,72
9000,note_on,,1,0,14,,,,,,,,,,,,,,,,12,,62,72
9000,note_on,,3241,0,9,,,,,,,,,,,,,,,,6,,65,72
9000,note_on,,1,0,8,,,,,,,,,,,,,,,,5,,70,72
9059,note_on,,59,0,13,,,,,,,,,,,,,,,,11,,70,0
9059,note_on,,59,0,9,,,,,,,,,,,,,,,,6,,65,0
9059,note_on,,59,0,14,,,,,,,,,,,,,,,,12,,62,0
9059,note_on,,59,0,7,,,,,,,,,,,,,,,,2,,50,0
9059,note_on,,59,0,16,,,,,,,,,,,,,,,,15,,50,0
9059,note_on,,59,0,5,,,,,,,,,,,,,,,,0,,77,0
9059,note_on,,59,0,8,,,,,,,,,,,,,,,,5,,70,0
9059,note_on,,59,0,15,,,,,,,,,,,,,,,,13,,50,0
9059,note_on,,59,0,12,,,,,,,,,,,,,,,,10,,77,0
9059,note_on,,59,0,6,,,,,,,,,,,,,,,,1,,70,0
9059,note_on,,59,0,11,,,,,,,,,,,,,,,,8,,50,0
9060,note_on,,1,0,8,,,,,,,,,,,,,,,,5,,72,72
9060,note_on,,1,0,11,,,,,,,,,,,,,,,,8,,48,72
9060,note_on,,1,0,16,,,,,,,,,,,,,,,,15,,48,72
9060,note_on,,1,0,15,,,,,,,,,,,,,,,,13,,48,72
9060,note_on,,1,0,12,,,,,,,,,,,,,,,,10,,75,72
9060,note_on,,1,0,9,,,,,,,,,,,,,,,,6,,63,72
9060,note_on,,1,0,5,,,,,,,,,,,,,,,,0,,75,72
9060,note_on,,1,0,14,,,,,,,,,,,,,,,,12,,63,72
9060,note_on,,1,0,6,,,,,,,,,,,,,,,,1,,72,72
9060,note_on,,1,0,13,,,,,,,,,,,,,,,,11,,72,72
9060,note_on,,1,0,7,,,,,,,,,,,,,,,,2,,48,72
9119,note_on,,59,0,8,,,,,,,,,,,,,,,,5,,72,0
9119,note_on,,59,0,6,,,,,,,,,,,,,,,,1,,72,0
9119,note_on,,59,0,5,,,,,,,,,,,,,,,,0,,75,0
9119,note_on,,59,0,12,,,,,,,,,,,,,,,,10,,75,0
9119,note_on,,59,0,13,,,,,,,,,,,,,,,,11,,72,0
9119,note_on,,59,0,16,,,,,,,,,,,,,,,,15,,77,0
9119,note_on,,59,0,9,,,,,,,,,,,,,,,,6,,63,0
9119,note_on,,59,0,15,,,,,,,,,,,,,,,,13,,48,0
9119,note_on,,59,0,14,,,,,,,,,,,,,,,,12,,63,0
9119,note_on,,0,0,16,,,,,,,,,,,,,,,,15,,72,0
9119,note_on,,0,0,16,,,,,,,,,,,,,,,,15,,56,0
9119,note_on,,0,0,16,,,,,,,,,,,,,,,,15,,48,0
9119,note_on,,59,0,11,,,,,,,,,,,,,,,,8,,48,0
9119,note_on,,59,0,7,,,,,,,,,,,,,,,,2,,48,0
9119,note_on,,0,0,16,,,,,,,,,,,,,,,,15,,65,0
9120,note_on,,1,0,8,,,,,,,,,,,,,,,,5,,65,72
9120,note_on,,0,0,16,,,,,,,,,,,,,,,,15,,58,72
9120,note_on,,1,0,7,,,,,,,,,,,,,,,,2,,46,72
9120,note_on,,1,0,6,,,,,,,,,,,,,,,,1,,65,72
9120,note_on,,1,0,14,,,,,,,,,,,,,,,,12,,65,72
9120,note_on,,1,0,11,,,,,,,,,,,,,,,,8,,46,72
9120,note_on,,1,0,9,,,,,,,,,,,,,,,,6,,62,72
9120,note_on,,0,0,16,,,,,,,,,,,,,,,,15,,65,72
9120,note_on,,1,0,12,,,,,,,,,,,,,,,,10,,74,72
9120,note_on,,1,0,13,,,,,,,,,,,,,,,,11,,65,72
9120,note_on,,0,0,16,,,,,,,,,,,,,,,,15,,77,72
9120,note_on,,1,0,5,,,,,,,,,,,,,,,,0,,74,72
9120,note_on,,1,0,16,,,,,,,,,,,,,,,,15,,46,72
9120,note_on,,1,0,15,,,,,,,,,,,,,,,,13,,46,72
9120,note_on,,0,0,16,,,,,,,,,,,,,,,,15,,74,72
9120,note_on,,0,0,16,,,,,,,,,,,,,,,,15,,70,72
9179,note_on,,59,0,12,,,,,,,,,,,,,,,,10,,74,0
9179,note_on,,59,0,9,,,,,,,,,,,,,,,,6,,62,0
9179,note_on,,59,0,5,,,,,,,,,,,,,,,,0,,74,0
9179,note_on,,59,0,6,,,,,,,,,,,,,,,,1,,65,0
9179,note_on,,59,0,13,,,,,,,,,,,,,,,,11,,65,0
9180,note_on,,1,0,6,,,,,,,,,,,,,,,,1,,62,72
9180,note_on,,1,0,9,,,,,,,,,,,,,,,,6,,58,72
9180,note_on,,1,0,12,,,,,,,,,,,,,,,,10,,70,72
9180,note_on,,1,0,5,,,,,,,,,,,,,,,,0,,70,72
9180,note_on,,1,0,13,,,,,,,,,,,,,,,,11,,62,72
9239,note_on,,119,0,16,,,,,,,,,,,,,,,,15,,46,0
9239,note_on,,59,0,13,,,,,,,,,,,,,,,,11,,62,0
9239,note_on,,119,0,8,,,,,,,,,,,,,,,,5,,65,0
9239,note_on,,59,0,12,,,,,,,,,,,,,,,,10,,70,0
9239,note_on,,119,0,15,,,,,,,,,,,,,,,,13,,46,0
9239,note_on,,119,0,11,,,,,,,,,,,,,,,,8,,46,0
9239,note_on,,59,0,6,,,,,,,,,,,,,,,,1,,62,0
9239,note_on,,59,0,9,,,,,,,,,,,,,,,,6,,58,0
9239,note_on,,59,0,5,,,,,,,,,,,,,,,,0,,70,0
9239,note_on,,119,0,7,,,,,,,,,,,,,,,,2,,46,0
9240,note_on,,1,0,11,,,,,,,,,,,,,,,,8,,58,72
9240,note_on,,1,0,7,,,,,,,,,,,,,,,,2,,58,72
9240,note_on,,1,0,9,,,,,,,,,,,,,,,,6,,60,72
9240,note_on,,1,0,12,,,,,,,,,,,,,,,,10,,72,72
9240,note_on,,1,0,16,,,,,,,,,,,,,,,,15,,58,72
9240,note_on,,1,0,5,,,,,,,,,,,,,,,,0,,72,72
9240,note_on,,1,0,6,,,,,,,,,,,,,,,,1,,63,72
9240,note_on,,1,0,13,,,,,,,,,,,,,,,,11,,63,72
9240,note_on,,1,0,15,,,,,,,,,,,,,,,,13,,58,72
9299,note_on,,179,0,14,,,,,,,,,,,,,,,,12,,65,0
9299,note_on,,59,0,9,,,,,,,,,,,,,,,,6,,60,0
9299,note_on,,59,0,11,,,,,,,,,,,,,,,,8,,58,0
9299,note_on,,59,0,13,,,,,,,,,,,,,,,,11,,63,0
9299,note_on,,59,0,6,,,,,,,,,,,,,,,,1,,63,0
9299,note_on,,59,0,15,,,,,,,,,,,,,,,,13,,58,0
9299,note_on,,59,0,5,,,,,,,,,,,,,,,,0,,72,0
9299,note_on,,59,0,7,,,,,,,,,,,,,,,,2,,58,0
9299,note_on,,59,0,16,,,,,,,,,,,,,,,,15,,58,0
9299,note_on,,59,0,12,,,,,,,,,,,,,,,,10,,72,0
9300,note_on,,1,0,11,,,,,,,,,,,,,,,,8,,57,72
9300,note_on,,1,0,7,,,,,,,,,,,,,,,,2,,57,72
9300,note_on,,1,0,16,,,,,,,,,,,,,,,,15,,57,72
9300,note_on,,1,0,6,,,,,,,,,,,,,,,,1,,65,72
9300,note_on,,1,0,13,,,,,,,,,,,,,,,,11,,65,72
9300,note_on,,1,0,15,,,,,,,,,,,,,,,,13,,57,72
9300,note_on,,1,0,5,,,,,,,,,,,,,,,,0,,74,72
9300,note_on,,1,0,12,,,,,,,,,,,,,,,,10,,74,72
9300,note_on,,1,0,14,,,,,,,,,,,,,,,,12,,65,72
9300,note_on,,1,0,9,,,,,,,,,,,,,,,,6,,62,72
9359,note_on,,59,0,15,,,,,,,,,,,,,,,,13,,57,0
9359,note_on,,59,0,5,,,,,,,,,,,,,,,,0,,74,0
9359,note_on,,59,0,9,,,,,,,,,,,,,,,,6,,62,0
9359,note_on,,59,0,12,,,,,,,,,,,,,,,,10,,74,0
9359,note_on,,59,0,13,,,,,,,,,,,,,,,,11,,65,0
9359,note_on,,0,0,16,,,,,,,,,,,,,,,,15,,57,0
9359,note_on,,0,0,16,,,,,,,,,,,,,,,,15,,58,0
9359,note_on,,59,0,6,,,,,,,,,,,,,,,,1,,65,0
9359,note_on,,0,0,16,,,,,,,,,,,,,,,,15,,65,0
9359,note_on,,59,0,16,,,,,,,,,,,,,,,,15,,77,0
9359,note_on,,0,0,16,,,,,,,,,,,,,,,,15,,74,0
9359,note_on,,0,0,16,,,,,,,,,,,,,,,,15,,70,0
9359,note_on,,59,0,7,,,,,,,,,,,,,,,,2,,57,0
9359,note_on,,59,0,11,,,,,,,,,,,,,,,,8,,57,0
9359,note_on,,59,0,14,,,,,,,,,,,,,,,,12,,65,0
9360,note_on,,1,0,5,,,,,,,,,,,,,,,,0,,75,72
9360,note_on,,1,0,12,,,,,,,,,,,,,,,,10,,75,72
9360,note_on,,1,0,11,,,,,,,,,,,,,,,,8,,55,72
9360,note_on,,1,0,16,,,,,,,,,,,,,,,,15,,55,72
9360,note_on,,1,0,13,,,,,,,,,,,,,,,,11,,67,72
9360,note_on,,1,0,15,,,,,,,,,,,,,,,,13,,55,72
9360,note_on,,1,0,7,,,,,,,,,,,,,,,,2,,55,72
9360,note_on,,0,0,16,,,,,,,,,,,,,,,,15,,58,72
9360,note_on,,1,0,6,,,,,,,,,,,,,,,,1,,67,72
9360,note_on,,1,0,14,,,,,,,,,,,,,,,,12,,58,72
9360,note_on,,0,0,16,,,,,,,,,,,,,,,,15,,75,72
9360,note_on,,1,0,9,,,,,,,,,,,,,,,,6,,63,72
9360,note_on,,0,0,16,,,,,,,,,,,,,,,,15,,70,72
9360,note_on,,0,0,16,,,,,,,,,,,,,,,,15,,67,72
9419,note_on,,59,0,13,,,,,,,,,,,,,,,,11,,67,0
9419,note_on,,59,0,12,,,,,,,,,,,,,,,,10,,75,0
9419,note_on,,59,0,5,,,,,,,,,,,,,,,,0,,75,0
9419,note_on,,59,0,6,,,,,,,,,,,,,,,,1,,67,0
9419,note_on,,59,0,9,,,,,,,,,,,,,,,,6,,63,0
9420,note_on,,1,0,13,,,,,,,,,,,,,,,,11,,69,72
9420,note_on,,1,0,9,,,,,,,,,,,,,,,,6,,65,72
9420,note_on,,1,0,12,,,,,,,,,,,,,,,,10,,77,72
9420,note_on,,1,0,6,,,,,,,,,,,,,,,,1,,69,72
9420,note_on,,1,0,5,,,,,,,,,,,,,,,,0,,77,72
9479,note_on,,119,0,15,,,,,,,,,,,,,,,,13,,55,0
9479,note_on,,119,0,11,,,,,,,,,,,,,,,,8,,55,0
9479,note_on,,59,0,9,,,,,,,,,,,,,,,,6,,65,0
9479,note_on,,59,0,5,,,,,,,,,,,,,,,,0,,77,0
9479,note_on,,0,0,16,,,,,,,,,,,,,,,,15,,67,0
9479,note_on,,59,0,13,,,,,,,,,,,,,,,,11,,69,0
9479,note_on,,59,0,6,,,,,,,,,,,,,,,,1,,69,0
9479,note_on,,119,0,14,,,,,,,,,,,,,,,,12,,58,0
9479,note_on,,119,0,7,,,,,,,,,,,,,,,,2,,55,0
9479,note_on,,0,0,16,,,,,,,,,,,,,,,,15,,70,0
9479,note_on,,0,0,16,,,,,,,,,,,,,,,,15,,75,0
9479,note_on,,59,0,12,,,,,,,,,,,,,,,,10,,77,0
9479,note_on,,119,0,16,,,,,,,,,,,,,,,,15,,55,0
9480,note_on,,1,0,13,,,,,,,,,,,,,,,,11,,70,72
9480,note_on,,1,0,6,,,,,,,,,,,,,,,,1,,70,72
9480,note_on,,1,0,16,,,,,,,,,,,,,,,,15,,53,72
9480,note_on,,1,0,14,,,,,,,,,,,,,,,,12,,62,72
9480,note_on,,1,0,7,,,,,,,,,,,,,,,,2,,53,72
9480,note_on,,1,0,9,,,,,,,,,,,,,,,,6,,67,72
9480,note_on,,1,0,5,,,,,,,,,,,,,,,,0,,79,72
9480,note_on,,0,0,16,,,,,,,,,,,,,,,,15,,63,72
9480,note_on,,1,0,12,,,,,,,,,,,,,,,,10,,79,72
9480,note_on,,1,0,15,,,,,,,,,,,,,,,,13,,53,72
9480,note_on,,1,0,11,,,,,,,,,,,,,,,,8,,53,72
9480,note_on,,0,0,16,,,,,,,,,,,,,,,,15,,67,72
9539,note_on,,59,0,14,,,,,,,,,,,,,,,,12,,62,0
9539,note_on,,59,0,13,,,,,,,,,,,,,,,,11,,70,0
9539,note_on,,59,0,12,,,,,,,,,,,,,,,,10,,79,0
9539,note_on,,59,0,5,,,,,,,,,,,,,,,,0,,79,0
9539,note_on,,59,0,16,,,,,,,,,,,,,,,,15,,53,0
9539,note_on,,59,0,9,,,,,,,,,,,,,,,,6,,67,0
9539,note_on,,59,0,11,,,,,,,,,,,,,,,,8,,53,0
9539,note_on,,59,0,7,,,,,,,,,,,,,,,,2,,53,0
9539,note_on,,59,0,15,,,,,,,,,,,,,,,,13,,53,0
9539,note_on,,59,0,6,,,,,,,,,,,,,,,,1,,70,0
9540,note_on,,1,0,12,,,,,,,,,,,,,,,,10,,81,72
9540,note_on,,1,0,9,,,,,,,,,,,,,,,,6,,69,72
9540,note_on,,1,0,6,,,,,,,,,,,,,,,,1,,72,72
9540,note_on,,1,0,5,,,,,,,,,,,,,,,,0,,81,72
9540,note_on,,1,0,13,,,,,,,,,,,,,,,,11,,72,72
9540,note_on,,1,0,11,,,,,,,,,,,,,,,,8,,51,72
9540,note_on,,1,0,7,,,,,,,,,,,,,,,,2,,51,72
9540,note_on,,1,0,14,,,,,,,,,,,,,,,,12,,63,72
9540,note_on,,1,0,15,,,,,,,,,,,,,,,,13,,51,72
9540,note_on,,1,0,16,,,,,,,,,,,,,,,,15,,51,72
9599,note_on,,59,0,16,,,,,,,,,,,,,,,,15,,58,0
9599,note_on,,59,0,6,,,,,,,,,,,,,,,,1,,72,0
9599,note_on,,59,0,11,,,,,,,,,,,,,,,,8,,51,0
9599,note_on,,59,0,9,,,,,,,,,,,,,,,,6,,69,0
9599,note_on,,59,0,14,,,,,,,,,,,,,,,,12,,63,0
9599,note_on,,59,0,15,,,,,,,,,,,,,,,,13,,51,0
9599,note_on,,0,0,16,,,,,,,,,,,,,,,,15,,51,0
9599,note_on,,59,0,7,,,,,,,,,,,,,,,,2,,51,0
9599,note_on,,0,0,16,,,,,,,,,,,,,,,,15,,63,0
9599,note_on,,0,0,16,,,,,,,,,,,,,,,,15,,67,0
9599,note_on,,59,0,12,,,,,,,,,,,,,,,,10,,81,0
9599,note_on,,59,0,5,,,,,,,,,,,,,,,,0,,81,0
9599,note_on,,59,0,13,,,,,,,,,,,,,,,,11,,72,0
9600,note_on,,1,0,16,,,,,,,,,,,,,,,,15,,50,72
9600,note_on,,0,0,16,,,,,,,,,,,,,,,,15,,58,72
9600,note_on,,1,0,15,,,,,,,,,,,,,,,,13,,50,72
9600,note_on,,1,0,14,,,,,,,,,,,,,,,,12,,65,72
9600,note_on,,1,0,9,,,,,,,,,,,,,,,,6,,70,72
9600,note_on,,1,0,12,,,,,,,,,,,,,,,,10,,82,72
9600,note_on,,0,0,16,,,,,,,,,,,,,,,,15,,70,72
9600,note_on,,1,0,11,,,,,,,,,,,,,,,,8,,50,72
9600,note_on,,1,0,7,,,,,,,,,,,,,,,,2,,50,72
9600,note_on,,1,0,6,,,,,,,,,,,,,,,,1,,65,72
9600,note_on,,1,0,5,,,,,,,,,,,,,,,,0,,82,72
9600,note_on,,1,0,13,,,,,,,,,,,,,,,,11,,65,72
9600,note_on,,0,0,16,,,,,,,,,,,,,,,,15,,65,72
9659,note_on,,59,0,6,,,,,,,,,,,,,,,,1,,65,0
9659,note_on,,59,0,13,,,,,,,,,,,,,,,,11,,65,0
9660,note_on,,1,0,13,,,,,,,,,,,,,,,,11,,74,72
9660,note_on,,661,0,10,,,,,,,,,,,,,,,,7,,62,72
9660,note_on,,1,0,6,,,,,,,,,,,,,,,,1,,74,72
9719,note_on,,119,0,12,,,,,,,,,,,,,,,,10,,82,0
9719,note_on,,59,0,13,,,,,,,,,,,,,,,,11,,74,0
9719,note_on,,59,0,10,,,,,,,,,,,,,,,,7,,62,0
9719,note_on,,119,0,5,,,,,,,,,,,,,,,,0,,82,0
9719,note_on,,119,0,9,,,,,,,,,,,,,,,,6,,70,0
9719,note_on,,59,0,6,,,,,,,,,,,,,,,,1,,74,0
9720,note_on,,1,0,9,,,,,,,,,,,,,,,,6,,69,72
9720,note_on,,1,0,5,,,,,,,,,,,,,,,,0,,81,72
9720,note_on,,1,0,6,,,,,,,,,,,,,,,,1,,72,72
9720,note_on,,1,0,10,,,,,,,,,,,,,,,,7,,60,72
9720,note_on,,1,0,13,,,,,,,,,,,,,,,,11,,72,72
9720,note_on,,1,0,12,,,,,,,,,,,,,,,,10,,81,72
9779,note_on,,59,0,6,,,,,,,,,,,,,,,,1,,72,0
9779,note_on,,59,0,5,,,,,,,,,,,,,,,,0,,81,0
9779,note_on,,179,0,15,,,,,,,,,,,,,,,,13,,50,0
9779,note_on,,59,0,9,,,,,,,,,,,,,,,,6,,69,0
9779,note_on,,179,0,14,,,,,,,,,,,,,,,,12,,65,0
9779,note_on,,59,0,10,,,,,,,,,,,,,,,,7,,60,0
9779,note_on,,0,0,16,,,,,,,,,,,,,,,,15,,58,0
9779,note_on,,179,0,16,,,,,,,,,,,,,,,,15,,50,0
9779,note_on,,179,0,7,,,,,,,,,,,,,,,,2,,50,0
9779,note_on,,59,0,12,,,,,,,,,,,,,,,,10,,81,0
9779,note_on,,59,0,13,,,,,,,,,,,,,,,,11,,72,0
9779,note_on,,179,0,11,,,,,,,,,,,,,,,,8,,50,0
9780,note_on,,1,0,11,,,,,,,,,,,,,,,,8,,51,72
9780,note_on,,1,0,16,,,,,,,,,,,,,,,,15,,51,72
9780,note_on,,1,0,9,,,,,,,,,,,,,,,,6,,67,72
9780,note_on,,1,0,15,,,,,,,,,,,,,,,,13,,51,72
9780,note_on,,0,0,16,,,,,,,,,,,,,,,,15,,55,72
9780,note_on,,1,0,14,,,,,,,,,,,,,,,,12,,67,72
9780,note_on,,1,0,13,,,,,,,,,,,,,,,,11,,70,72
9780,note_on,,1,0,12,,,,,,,,,,,,,,,,10,,79,72
9780,note_on,,1,0,10,,,,,,,,,,,,,,,,7,,58,72
9780,note_on,,1,0,6,,,,,,,,,,,,,,,,1,,70,72
9780,note_on,,1,0,5,,,,,,,,,,,,,,,,0,,79,72
9780,note_on,,1,0,7,,,,,,,,,,,,,,,,2,,51,72
9839,note_on,,59,0,9,,,,,,,,,,,,,,,,6,,67,0
9839,note_on,,59,0,6,,,,,,,,,,,,,,,,1,,70,0
9839,note_on,,59,0,10,,,,,,,,,,,,,,,,7,,58,0
9839,note_on,,59,0,7,,,,,,,,,,,,,,,,2,,51,0
9839,note_on,,59,0,13,,,,,,,,,,,,,,,,11,,70,0
9839,note_on,,59,0,5,,,,,,,,,,,,,,,,0,,79,0
9839,note_on,,59,0,11,,,,,,,,,,,,,,,,8,,51,0
9839,note_on,,59,0,14,,,,,,,,,,,,,,,,12,,67,0
9839,note_on,,0,0,16,,,,,,,,,,,,,,,,15,,55,0
9839,note_on,,0,0,16,,,,,,,,,,,,,,,,15,,51,0
9839,note_on,,0,0,16,,,,,,,,,,,,,,,,15,,65,0
9839,note_on,,59,0,15,,,,,,,,,,,,,,,,13,,51,0
9839,note_on,,59,0,16,,,,,,,,,,,,,,,,15,,70,0
9839,note_on,,59,0,12,,,,,,,,,,,,,,,,10,,79,0
9840,note_on,,1,0,12,,,,,,,,,,,,,,,,10,,77,72
9840,note_on,,1,0,10,,,,,,,,,,,,,,,,7,,57,72
9840,note_on,,1,0,11,,,,,,,,,,,,,,,,8,,53,72
9840,note_on,,1,0,9,,,,,,,,,,,,,,,,6,,65,72
9840,note_on,,1,0,6,,,,,,,,,,,,,,,,1,,69,72
9840,note_on,,1,0,16,,,,,,,,,,,,,,,,15,,53,72
9840,note_on,,1,0,13,,,,,,,,,,,,,,,,11,,69,72
9840,note_on,,1,0,15,,,,,,,,,,,,,,,,13,,53,72
9840,note_on,,0,0,16,,,,,,,,,,,,,,,,15,,57,72
9840,note_on,,0,0,16,,,,,,,,,,,,,,,,15,,69,72
9840,note_on,,0,0,16,,,,,,,,,,,,,,,,15,,65,72
9840,note_on,,1,0,5,,,,,,,,,,,,,,,,0,,77,72
9840,note_on,,0,0,16,,,,,,,,,,,,,,,,15,,60,72
9840,note_on,,1,0,14,,,,,,,,,,,,,,,,12,,60,72
9840,note_on,,1,0,7,,,,,,,,,,,,,,,,2,,53,72
9899,note_on,,59,0,12,,,,,,,,,,,,,,,,10,,77,0
9899,note_on,,59,0,5,,,,,,,,,,,,,,,,0,,77,0
9900,note_on,,1,0,12,,,,,,,,,,,,,,,,10,,75,72
9900,note_on,,661,0,8,,,,,,,,,,,,,,,,5,,75,72
9900,note_on,,1,0,5,,,,,,,,,,,,,,,,0,,75,72
9959,note_on,,119,0,7,,,,,,,,,,,,,,,,2,,53,0
9959,note_on,,119,0,16,,,,,,,,,,,,,,,,15,,53,0
9959,note_on,,0,0,16,,,,,,,,,,,,,,,,15,,57,0
9959,note_on,,0,0,16,,,,,,,,,,,,,,,,15,,60,0
9959,note_on,,0,0,16,,,,,,,,,,,,,,,,15,,65,0
9959,note_on,,59,0,5,,,,,,,,,,,,,,,,0,,75,0
9959,note_on,,119,0,11,,,,,,,,,,,,,,,,8,,53,0
9959,note_on,,0,0,16,,,,,,,,,,,,,,,,15,,69,0
9959,note_on,,119,0,10,,,,,,,,,,,,,,,,7,,57,0
9959,note_on,,119,0,15,,,,,,,,,,,,,,,,13,,53,0
9959,note_on,,119,0,13,,,,,,,,,,,,,,,,11,,69,0
9959,note_on,,59,0,8,,,,,,,,,,,,,,,,5,,75,0
9959,note_on,,119,0,14,,,,,,,,,,,,,,,,12,,60,0
9959,note_on,,59,0,12,,,,,,,,,,,,,,,,10,,75,0
9959,note_on,,119,0,6,,,,,,,,,,,,,,,,1,,69,0
9960,note_on,,1,0,14,,,,,,,,,,,,,,,,12,,67,72
9960,note_on,,1,0,11,,,,,,,,,,,,,,,,8,,55,72
9960,note_on,,1,0,15,,,,,,,,,,,,,,,,13,,55,72
9960,note_on,,1,0,5,,,,,,,,,,,,,,,,0,,74,72
9960,note_on,,1,0,12,,,,,,,,,,,,,,,,10,,74,72
9960,note_on,,1,0,13,,,,,,,,,,,,,,,,11,,70,72
9960,note_on,,1,0,8,,,,,,,,,,,,,,,,5,,74,72
9960,note_on,,1,0,6,,,,,,,,,,,,,,,,1,,70,72
9960,note_on,,0,0,16,,,,,,,,,,,,,,,,15,,65,72
9960,note_on,,0,0,16,,,,,,,,,,,,,,,,15,,77,72
9960,note_on,,0,0,16,,,,,,,,,,,,,,,,15,,58,72
9960,note_on,,1,0,16,,,,,,,,,,,,,,,,15,,55,72
9960,note_on,,1,0,10,,,,,,,,,,,,,,,,7,,58,72
9960,note_on,,1,0,7,,,,,,,,,,,,,,,,2,,55,72
10019,note_on,,59,0,10,,,,,,,,,,,,,,,,7,,58,0
10019,note_on,,59,0,12,,,,,,,,,,,,,,,,10,,74,0
10019,note_on,,59,0,13,,,,,,,,,,,,,,,,11,,70,0
10019,note_on,,59,0,5,,,,,,,,,,,,,,,,0,,74,0
10019,note_on,,59,0,11,,,,,,,,,,,,,,,,8,,55,0
10019,note_on,,59,0,15,,,,,,,,,,,,,,,,13,,55,0
10019,note_on,,0,0,16,,,,,,,,,,,,,,,,15,,58,0
10019,note_on,,59,0,16,,,,,,,,,,,,,,,,15,,55,0
10019,note_on,,59,0,8,,,,,,,,,,,,,,,,5,,74,0
10019,note_on,,179,0,9,,,,,,,,,,,,,,,,6,,65,0
10019,note_on,,59,0,6,,,,,,,,,,,,,,,,1,,70,0
10019,note_on,,59,0,14,,,,,,,,,,,,,,,,12,,67,0
10019,note_on,,59,0,7,,,,,,,,,,,,,,,,2,,55,0
10020,note_on,,1,0,12,,,,,,,,,,,,,,,,10,,72,72
10020,note_on,,1,0,7,,,,,,,,,,,,,,,,2,,57,72
10020,note_on,,1,0,6,,,,,,,,,,,,,,,,1,,63,72
10020,note_on,,1,0,10,,,,,,,,,,,,,,,,7,,63,72
10020,note_on,,1,0,5,,,,,,,,,,,,,,,,0,,72,72
10020,note_on,,1,0,13,,,,,,,,,,,,,,,,11,,63,72
10020,note_on,,1,0,9,,,,,,,,,,,,,,,,6,,65,72
10020,note_on,,1,0,16,,,,,,,,,,,,,,,,15,,57,72
10020,note_on,,1,0,8,,,,,,,,,,,,,,,,5,,72,72
10020,note_on,,1,0,14,,,,,,,,,,,,,,,,12,,72,72
10020,note_on,,0,0,16,,,,,,,,,,,,,,,,15,,60,72
10020,note_on,,1,0,15,,,,,,,,,,,,,,,,13,,57,72
10020,note_on,,1,0,11,,,,,,,,,,,,,,,,8,,57,72
10079,note_on,,0,0,16,,,,,,,,,,,,,,,,15,,57,0
10079,note_on,,0,0,16,,,,,,,,,,,,,,,,15,,60,0
10079,note_on,,59,0,8,,,,,,,,,,,,,,,,5,,72,0
10079,note_on,,59,0,14,,,,,,,,,,,,,,,,12,,72,0
10079,note_on,,59,0,15,,,,,,,,,,,,,,,,13,,57,0
10079,note_on,,59,0,12,,,,,,,,,,,,,,,,10,,72,0
10079,note_on,,59,0,13,,,,,,,,,,,,,,,,11,,63,0
10079,note_on,,59,0,11,,,,,,,,,,,,,,,,8,,57,0
10079,note_on,,0,0,16,,,,,,,,,,,,,,,,15,,65,0
10079,note_on,,59,0,7,,,,,,,,,,,,,,,,2,,57,0
10079,note_on,,59,0,10,,,,,,,,,,,,,,,,7,,63,0
10079,note_on,,59,0,9,,,,,,,,,,,,,,,,6,,65,0
10079,note_on,,59,0,6,,,,,,,,,,,,,,,,1,,63,0
10079,note_on,,59,0,5,,,,,,,,,,,,,,,,0,,72,0
10079,note_on,,59,0,16,,,,,,,,,,,,,,,,15,,77,0
10080,note_on,,1,0,7,,,,,,,,,,,,,,,,2,,58,72
10080,note_on,,1,0,12,,,,,,,,,,,,,,,,10,,70,72
10080,note_on,,1,0,9,,,,,,,,,,,,,,,,6,,65,72
10080,note_on,,1,0,13,,,,,,,,,,,,,,,,11,,62,72
10080,note_on,,1,0,10,,,,,,,,,,,,,,,,7,,62,72
10080,note_on,,1,0,15,,,,,,,,,,,,,,,,13,,58,72
10080,note_on,,1,0,5,,,,,,,,,,,,,,,,0,,70,72
10080,note_on,,1,0,14,,,,,,,,,,,,,,,,12,,65,72
10080,note_on,,1,0,8,,,,,,,,,,,,,,,,5,,70,72
10080,note_on,,1,0,11,,,,,,,,,,,,,,,,8,,58,72
10080,note_on,,1,0,6,,,,,,,,,,,,,,,,1,,62,72
10080,note_on,,0,0,16,,,,,,,,,,,,,,,,15,,62,72
10080,note_on,,0,0,16,,,,,,,,,,,,,,,,15,,65,72
10080,note_on,,0,0,16,,,,,,,,,,,,,,,,15,,74,72
10080,note_on,,1,0,16,,,,,,,,,,,,,,,,15,,58,72
10080,note_on,,0,0,16,,,,,,,,,,,,,,,,15,,70,72
10094,note_on,,14,0,12,,,,,,,,,,,,,,,,10,,70,0
10094,note_on,,14,0,5,,,,,,,,,,,,,,,,0,,70,0
10095,note_on,,1,0,5,,,,,,,,,,,,,,,,0,,72,72
10095,note_on,,1,0,12,,,,,,,,,,,,,,,,10,,72,72
10109,note_on,,14,0,5,,,,,,,,,,,,,,,,0,,72,0
10109,note_on,,14,0,12,,,,,,,,,,,,,,,,10,,72,0
10110,note_on,,1,0,12,,,,,,,,,,,,,,,,10,,70,72
10110,note_on,,1,0,5,,,,,,,,,,,,,,,,0,,70,72
10124,note_on,,14,0,5,,,,,,,,,,,,,,,,0,,70,0
10124,note_on,,14,0,12,,,,,,,,,,,,,,,,10,,70,0
10125,note_on,,1,0,5,,,,,,,,,,,,,,,,0,,72,72
10125,note_on,,1,0,12,,,,,,,,,,,,,,,,10,,72,72
10139,note_on,,59,0,9,,,,,,,,,,,,,,,,6,,65,0
10139,note_on,,14,0,5,,,,,,,,,,,,,,,,0,,72,0
10139,note_on,,14,0,12,,,,,,,,,,,,,,,,10,,72,0
10139,note_on,,59,0,6,,,,,,,,,,,,,,,,1,,62,0
10140,note_on,,1,0,5,,,,,,,,,,,,,,,,0,,69,72
10140,note_on,,1,0,9,,,,,,,,,,,,,,,,6,,65,72
10140,note_on,,1,0,12,,,,,,,,,,,,,,,,10,,69,72
10140,note_on,,1,0,6,,,,,,,,,,,,,,,,1,,65,72
10154,note_on,,14,0,12,,,,,,,,,,,,,,,,10,,69,0
10154,note_on,,14,0,5,,,,,,,,,,,,,,,,0,,69,0
10155,note_on,,1,0,5,,,,,,,,,,,,,,,,0,,70,72
10155,note_on,,1,0,12,,,,,,,,,,,,,,,,10,,70,72
10169,note_on,,14,0,12,,,,,,,,,,,,,,,,10,,70,0
10169,note_on,,14,0,5,,,,,,,,,,,,,,,,0,,70,0
10170,note_on,,1,0,5,,,,,,,,,,,,,,,,0,,69,72
10170,note_on,,1,0,12,,,,,,,,,,,,,,,,10,,69,72
10199,note_on,,0,0,16,,,,,,,,,,,,,,,,15,,62,0
10199,note_on,,119,0,11,,,,,,,,,,,,,,,,8,,58,0
10199,note_on,,119,0,13,,,,,,,,,,,,,,,,11,,62,0
10199,note_on,,119,0,8,,,,,,,,,,,,,,,,5,,70,0
10199,note_on,,29,0,5,,,,,,,,,,,,,,,,0,,69,0
10199,note_on,,59,0,6,,,,,,,,,,,,,,,,1,,65,0
10199,note_on,,119,0,16,,,,,,,,,,,,,,,,15,,58,0
10199,note_on,,29,0,12,,,,,,,,,,,,,,,,10,,69,0
10199,note_on,,0,0,16,,,,,,,,,,,,,,,,15,,70,0
10199,note_on,,59,0,9,,,,,,,,,,,,,,,,6,,65,0
10199,note_on,,0,0,16,,,,,,,,,,,,,,,,15,,65,0
10199,note_on,,119,0,7,,,,,,,,,,,,,,,,2,,58,0
10199,note_on,,119,0,15,,,,,,,,,,,,,,,,13,,58,0
10199,note_on,,0,0,16,,,,,,,,,,,,,,,,15,,74,0
10199,note_on,,119,0,14,,,,,,,,,,,,,,,,12,,65,0
10200,note_on,,0,0,16,,,,,,,,,,,,,,,,15,,75,72
10200,note_on,,0,0,16,,,,,,,,,,,,,,,,15,,58,72
10200,note_on,,0,0,16,,,,,,,,,,,,,,,,15,,70,72
10200,note_on,,1,0,14,,,,,,,,,,,,,,,,12,,67,72
10200,note_on,,0,0,16,,,,,,,,,,,,,,,,15,,67,72
10200,note_on,,1,0,15,,,,,,,,,,,,,,,,13,,51,72
10200,note_on,,1,0,13,,,,,,,,,,,,,,,,11,,70,72
10200,note_on,,1,0,16,,,,,,,,,,,,,,,,15,,51,72
10200,note_on,,1,0,8,,,,,,,,,,,,,,,,5,,70,72
10200,note_on,,1,0,11,,,,,,,,,,,,,,,,8,,51,72
10200,note_on,,1,0,12,,,,,,,,,,,,,,,,10,,70,72
10200,note_on,,1,0,6,,,,,,,,,,,,,,,,1,,67,72
10200,note_on,,1,0,7,,,,,,,,,,,,,,,,2,,51,72
10200,note_on,,1,0,9,,,,,,,,,,,,,,,,6,,67,72
10200,note_on,,1,0,5,,,,,,,,,,,,,,,,0,,70,72
10259,note_on,,59,0,12,,,,,,,,,,,,,,,,10,,70,0
10259,note_on,,179,0,10,,,,,,,,,,,,,,,,7,,62,0
10259,note_on,,59,0,5,,,,,,,,,,,,,,,,0,,70,0
10260,note_on,,1,0,12,,,,,,,,,,,,,,,,10,,72,72
10260,note_on,,1,0,10,,,,,,,,,,,,,,,,7,,63,72
10260,note_on,,1,0,5,,,,,,,,,,,,,,,,0,,72,72
10319,note_on,,59,0,12,,,,,,,,,,,,,,,,10,,72,0
10319,note_on,,119,0,6,,,,,,,,,,,,,,,,1,,67,0
10319,note_on,,119,0,15,,,,,,,,,,,,,,,,13,,51,0
10319,note_on,,119,0,9,,,,,,,,,,,,,,,,6,,67,0
10319,note_on,,119,0,7,,,,,,,,,,,,,,,,2,,51,0
10319,note_on,,119,0,11,,,,,,,,,,,,,,,,8,,51,0
10319,note_on,,119,0,16,,,,,,,,,,,,,,,,15,,51,0
10319,note_on,,0,0,16,,,,,,,,,,,,,,,,15,,58,0
10319,note_on,,0,0,16,,,,,,,,,,,,,,,,15,,75,0
10319,note_on,,0,0,16,,,,,,,,,,,,,,,,15,,70,0
10319,note_on,,0,0,16,,,,,,,,,,,,,,,,15,,67,0
10319,note_on,,59,0,10,,,,,,,,,,,,,,,,7,,63,0
10319,note_on,,119,0,14,,,,,,,,,,,,,,,,12,,67,0
10319,note_on,,59,0,5,,,,,,,,,,,,,,,,0,,72,0
10320,note_on,,0,0,16,,,,,,,,,,,,,,,,15,,70,72
10320,note_on,,0,0,16,,,,,,,,,,,,,,,,15,,72,72
10320,note_on,,1,0,6,,,,,,,,,,,,,,,,1,,65,72
10320,note_on,,1,0,5,,,,,,,,,,,,,,,,0,,72,72
10320,note_on,,1,0,14,,,,,,,,,,,,,,,,12,,65,72
10320,note_on,,0,0,16,,,,,,,,,,,,,,,,15,,60,72
10320,note_on,,1,0,7,,,,,,,,,,,,,,,,2,,53,72
10320,note_on,,1,0,15,,,,,,,,,,,,,,,,13,,53,72
10320,note_on,,1,0,16,,,,,,,,,,,,,,,,15,,53,72
10320,note_on,,1,0,9,,,,,,,,,,,,,,,,6,,65,72
10320,note_on,,1,0,10,,,,,,,,,,,,,,,,7,,60,72
10320,note_on,,1,0,12,,,,,,,,,,,,,,,,10,,72,72
10320,note_on,,1,0,11,,,,,,,,,,,,,,,,8,,53,72
10334,note_on,,14,0,5,,,,,,,,,,,,,,,,0,,72,0
10334,note_on,,14,0,12,,,,,,,,,,,,,,,,10,,72,0
10335,note_on,,1,0,5,,,,,,,,,,,,,,,,0,,74,72
10335,note_on,,1,0,12,,,,,,,,,,,,,,,,10,,74,72
10349,note_on,,14,0,5,,,,,,,,,,,,,,,,0,,74,0
10349,note_on,,14,0,12,,,,,,,,,,,,,,,,10,,74,0
10350,note_on,,1,0,12,,,,,,,,,,,,,,,,10,,72,72
10350,note_on,,1,0,5,,,,,,,,,,,,,,,,0,,72,72
10364,note_on,,14,0,12,,,,,,,,,,,,,,,,10,,72,0
10364,note_on,,14,0,5,,,,,,,,,,,,,,,,0,,72,0
10365,note_on,,1,0,12,,,,,,,,,,,,,,,,10,,74,72
10365,note_on,,1,0,5,,,,,,,,,,,,,,,,0,,74,72
10379,note_on,,14,0,5,,,,,,,,,,,,,,,,0,,74,0
10379,note_on,,14,0,12,,,,,,,,,,,,,,,,10,,74,0
10380,note_on,,1,0,5,,,,,,,,,,,,,,,,0,,72,72
10380,note_on,,1,0,12,,,,,,,,,,,,,,,,10,,72,72
10394,note_on,,14,0,5,,,,,,,,,,,,,,,,0,,72,0
10394,note_on,,14,0,12,,,,,,,,,,,,,,,,10,,72,0
10395,note_on,,1,0,5,,,,,,,,,,,,,,,,0,,74,72
10395,note_on,,1,0,12,,,,,,,,,,,,,,,,10,,74,72
10409,note_on,,14,0,5,,,,,,,,,,,,,,,,0,,74,0
10409,note_on,,14,0,12,,,,,,,,,,,,,,,,10,,74,0
10410,note_on,,1,0,5,,,,,,,,,,,,,,,,0,,72,72
10410,note_on,,1,0,12,,,,,,,,,,,,,,,,10,,72,72
10424,note_on,,14,0,12,,,,,,,,,,,,,,,,10,,72,0
10424,note_on,,14,0,5,,,,,,,,,,,,,,,,0,,72,0
10425,note_on,,1,0,5,,,,,,,,,,,,,,,,0,,74,72
10425,note_on,,1,0,12,,,,,,,,,,,,,,,,10,,74,72
10439,note_on,,0,0,16,,,,,,,,,,,,,,,,15,,72,0
10439,note_on,,119,0,7,,,,,,,,,,,,,,,,2,,53,0
10439,note_on,,14,0,5,,,,,,,,,,,,,,,,0,,74,0
10439,note_on,,119,0,15,,,,,,,,,,,,,,,,13,,53,0
10439,note_on,,14,0,12,,,,,,,,,,,,,,,,10,,74,0
10439,note_on,,239,0,13,,,,,,,,,,,,,,,,11,,70,0
10439,note_on,,119,0,16,,,,,,,,,,,,,,,,15,,53,0
10439,note_on,,239,0,8,,,,,,,,,,,,,,,,5,,70,0
10439,note_on,,0,0,16,,,,,,,,,,,,,,,,15,,70,0
10439,note_on,,0,0,16,,,,,,,,,,,,,,,,15,,60,0
10440,note_on,,1,0,7,,,,,,,,,,,,,,,,2,,41,72
10440,note_on,,0,0,16,,,,,,,,,,,,,,,,15,,53,72
10440,note_on,,0,0,16,,,,,,,,,,,,,,,,15,,69,72
10440,note_on,,1,0,8,,,,,,,,,,,,,,,,5,,69,72
10440,note_on,,0,0,16,,,,,,,,,,,,,,,,15,,77,72
10440,note_on,,1,0,16,,,,,,,,,,,,,,,,15,,41,72
10440,note_on,,1,0,13,,,,,,,,,,,,,,,,11,,69,72
10440,note_on,,1,0,5,,,,,,,,,,,,,,,,0,,72,72
10440,note_on,,1,0,12,,,,,,,,,,,,,,,,10,,72,72
10440,note_on,,0,0,16,,,,,,,,,,,,,,,,15,,72,72
10440,note_on,,1,0,15,,,,,,,,,,,,,,,,13,,41,72
10454,note_on,,14,0,12,,,,,,,,,,,,,,,,10,,72,0
10454,note_on,,14,0,5,,,,,,,,,,,,,,,,0,,72,0
10455,note_on,,1,0,5,,,,,,,,,,,,,,,,0,,74,72
10455,note_on,,1,0,12,,,,,,,,,,,,,,,,10,,74,72
10469,note_on,,14,0,5,,,,,,,,,,,,,,,,0,,74,0
10469,note_on,,14,0,12,,,,,,,,,,,,,,,,10,,74,0
10470,note_on,,1,0,5,,,,,,,,,,,,,,,,0,,70,72
10470,note_on,,1,0,12,,,,,,,,,,,,,,,,10,,70,72
10484,note_on,,14,0,5,,,,,,,,,,,,,,,,0,,70,0
10484,note_on,,14,0,12,,,,,,,,,,,,,,,,10,,70,0
10485,note_on,,1,0,12,,,,,,,,,,,,,,,,10,,72,72
10485,note_on,,1,0,5,,,,,,,,,,,,,,,,0,,72,72
10499,note_on,,179,0,14,,,,,,,,,,,,,,,,12,,65,0
10499,note_on,,14,0,5,,,,,,,,,,,,,,,,0,,72,0
10499,note_on,,179,0,11,,,,,,,,,,,,,,,,8,,53,0
10499,note_on,,179,0,9,,,,,,,,,,,,,,,,6,,65,0
10499,note_on,,179,0,6,,,,,,,,,,,,,,,,1,,65,0
10499,note_on,,14,0,12,,,,,,,,,,,,,,,,10,,72,0
10499,note_on,,179,0,10,,,,,,,,,,,,,,,,7,,60,0
10500,note_on,,1,0,14,,,,,,,,,,,,,,,,12,,65,72
10500,note_on,,1,0,10,,,,,,,,,,,,,,,,7,,60,72
10500,note_on,,1,0,5,,,,,,,,,,,,,,,,0,,70,72
10500,note_on,,1,0,12,,,,,,,,,,,,,,,,10,,70,72
10500,note_on,,1,0,9,,,,,,,,,,,,,,,,6,,65,72
10500,note_on,,1,0,11,,,,,,,,,,,,,,,,8,,53,72
10500,note_on,,1,0,6,,,,,,,,,,,,,,,,1,,65,72
10529,note_on,,89,0,13,,,,,,,,,,,,,,,,11,,69,0
10530,note_on,,1,0,13,,,,,,,,,,,,,,,,11,,63,72
10559,note_on,,119,0,16,,,,,,,,,,,,,,,,15,,41,0
10559,note_on,,0,0,16,,,,,,,,,,,,,,,,15,,72,0
10559,note_on,,119,0,8,,,,,,,,,,,,,,,,5,,69,0
10559,note_on,,59,0,12,,,,,,,,,,,,,,,,10,,70,0
10559,note_on,,29,0,13,,,,,,,,,,,,,,,,11,,63,0
10559,note_on,,0,0,16,,,,,,,,,,,,,,,,15,,77,0
10559,note_on,,0,0,16,,,,,,,,,,,,,,,,15,,53,0
10559,note_on,,0,0,16,,,,,,,,,,,,,,,,15,,69,0
10559,note_on,,59,0,11,,,,,,,,,,,,,,,,8,,53,0
10559,note_on,,59,0,10,,,,,,,,,,,,,,,,7,,60,0
10559,note_on,,59,0,5,,,,,,,,,,,,,,,,0,,70,0
10559,note_on,,119,0,15,,,,,,,,,,,,,,,,13,,41,0
10559,note_on,,59,0,9,,,,,,,,,,,,,,,,6,,65,0
10559,note_on,,59,0,6,,,,,,,,,,,,,,,,1,,65,0
10559,note_on,,119,0,7,,,,,,,,,,,,,,,,2,,41,0
10559,note_on,,59,0,14,,,,,,,,,,,,,,,,12,,65,0
10560,note_on,,0,0,16,,,,,,,,,,,,,,,,15,,70,72
10560,note_on,,1,0,11,,,,,,,,,,,,,,,,8,,46,72
10560,note_on,,1,0,15,,,,,,,,,,,,,,,,13,,46,72
10560,note_on,,1,0,16,,,,,,,,,,,,,,,,15,,46,72
10560,note_on,,1,0,9,,,,,,,,,,,,,,,,6,,65,72
10560,note_on,,0,0,16,,,,,,,,,,,,,,,,15,,74,72
10560,note_on,,0,0,16,,,,,,,,,,,,,,,,15,,65,72
10560,note_on,,1,0,8,,,,,,,,,,,,,,,,5,,70,72
10560,note_on,,1,0,14,,,,,,,,,,,,,,,,12,,65,72
10560,note_on,,1,0,7,,,,,,,,,,,,,,,,2,,46,72
10560,note_on,,1,0,13,,,,,,,,,,,,,,,,11,,62,72
10560,note_on,,1,0,6,,,,,,,,,,,,,,,,1,,65,72
10560,note_on,,1,0,5,,,,,,,,,,,,,,,,0,,70,72
10560,note_on,,1,0,12,,,,,,,,,,,,,,,,10,,70,72
10560,note_on,,1,0,10,,,,,,,,,,,,,,,,7,,62,72
10560,note_on,,0,0,16,,,,,,,,,,,,,,,,15,,53,72
10679,note_on,,119,0,6,,,,,,,,,,,,,,,,1,,65,0
10679,note_on,,119,0,5,,,,,,,,,,,,,,,,0,,70,0
10679,note_on,,119,0,10,,,,,,,,,,,,,,,,7,,62,0
10679,note_on,,119,0,8,,,,,,,,,,,,,,,,5,,70,0
10679,note_on,,119,0,9,,,,,,,,,,,,,,,,6,,65,0
10679,note_on,,119,0,13,,,,,,,,,,,,,,,,11,,62,0
10679,note_on,,119,0,12,,,,,,,,,,,,,,,,10,,70,0
10679,note_on,,119,0,14,,,,,,,,,,,,,,,,12,,65,0
10680,note_on,,1,0,10,,,,,,,,,,,,,,,,7,,62,72
10680,note_on,,1,0,8,,,,,,,,,,,,,,,,5,,70,72
10680,note_on,,1,0,5,,,,,,,,,,,,,,,,0,,74,72
10680,note_on,,1,0,9,,,,,,,,,,,,,,,,6,,65,72
10680,note_on,,1,0,6,,,,,,,,,,,,,,,,1,,70,72
10799,note_on,,119,0,5,,,,,,,,,,,,,,,,0,,74,0
10799,note_on,,119,0,6,,,,,,,,,,,,,,,,1,,70,0
10799,note_on,,119,0,9,,,,,,,,,,,,,,,,6,,65,0
10799,note_on,,119,0,10,,,,,,,,,,,,,,,,7,,62,0
10799,note_on,,119,0,8,,,,,,,,,,,,,,,,5,,70,0
10799,note_on,,239,0,11,,,,,,,,,,,,,,,,8,,46,0
10800,note_on,,1,0,6,,,,,,,,,,,,,,,,1,,74,72
10800,note_on,,1,0,8,,,,,,,,,,,,,,,,5,,74,72
10800,note_on,,1,0,9,,,,,,,,,,,,,,,,6,,70,72
10800,note_on,,1,0,5,,,,,,,,,,,,,,,,0,,77,72
10800,note_on,,1,0,10,,,,,,,,,,,,,,,,7,,65,72
10919,note_on,,119,0,5,,,,,,,,,,,,,,,,0,,77,0
10919,note_on,,0,0,16,,,,,,,,,,,,,,,,15,,65,0
10919,note_on,,0,0,16,,,,,,,,,,,,,,,,15,,70,0
10919,note_on,,359,0,15,,,,,,,,,,,,,,,,13,,46,0
10919,note_on,,119,0,9,,,,,,,,,,,,,,,,6,,70,0
10919,note_on,,359,0,16,,,,,,,,,,,,,,,,15,,46,0
10919,note_on,,0,0,16,,,,,,,,,,,,,,,,15,,74,0
10919,note_on,,119,0,8,,,,,,,,,,,,,,,,5,,74,0
10919,note_on,,119,0,6,,,,,,,,,,,,,,,,1,,74,0
10919,note_on,,359,0,7,,,,,,,,,,,,,,,,2,,46,0
10919,note_on,,0,0,16,,,,,,,,,,,,,,,,15,,53,0
10919,note_on,,119,0,10,,,,,,,,,,,,,,,,7,,65,0
10920,note_on,,1,0,5,,,,,,,,,,,,,,,,0,,75,72
10920,note_on,,1,0,6,,,,,,,,,,,,,,,,1,,72,72
10920,note_on,,1,0,10,,,,,,,,,,,,,,,,7,,63,72
10920,note_on,,1,0,7,,,,,,,,,,,,,,,,2,,58,72
10920,note_on,,1,0,9,,,,,,,,,,,,,,,,6,,65,72
10920,note_on,,1,0,8,,,,,,,,,,,,,,,,5,,72,72
10920,note_on,,1,0,15,,,,,,,,,,,,,,,,13,,58,72
10920,note_on,,1,0,16,,,,,,,,,,,,,,,,15,,58,72
10920,note_on,,0,0,16,,,,,,,,,,,,,,,,15,,65,72
10920,note_on,,0,0,16,,,,,,,,,,,,,,,,15,,62,72
10979,note_on,,59,0,5,,,,,,,,,,,,,,,,0,,75,0
10979,note_on,,59,0,9,,,,,,,,,,,,,,,,6,,65,0
10979,note_on,,59,0,10,,,,,,,,,,,,,,,,7,,63,0
10979,note_on,,59,0,6,,,,,,,,,,,,,,,,1,,72,0
10979,note_on,,59,0,8,,,,,,,,,,,,,,,,5,,72,0
10980,note_on,,1,0,10,,,,,,,,,,,,,,,,7,,62,72
10980,note_on,,1,0,9,,,,,,,,,,,,,,,,6,,65,72
10980,note_on,,1,0,6,,,,,,,,,,,,,,,,1,,70,72
10980,note_on,,1,0,5,,,,,,,,,,,,,,,,0,,74,72
10980,note_on,,1,0,8,,,,,,,,,,,,,,,,5,,70,72
11039,note_on,,59,0,9,,,,,,,,,,,,,,,,6,,65,0
11039,note_on,,0,0,16,,,,,,,,,,,,,,,,15,,65,0
11039,note_on,,0,0,16,,,,,,,,,,,,,,,,15,,62,0
11039,note_on,,59,0,6,,,,,,,,,,,,,,,,1,,70,0
11039,note_on,,119,0,7,,,,,,,,,,,,,,,,2,,58,0
11039,note_on,,59,0,5,,,,,,,,,,,,,,,,0,,74,0
11039,note_on,,119,0,15,,,,,,,,,,,,,,,,13,,58,0
11039,note_on,,119,0,16,,,,,,,,,,,,,,,,15,,58,0
11039,note_on,,59,0,8,,,,,,,,,,,,,,,,5,,70,0
11039,note_on,,59,0,10,,,,,,,,,,,,,,,,7,,62,0
11040,note_on,,1,0,10,,,,,,,,,,,,,,,,7,,67,72
11040,note_on,,1,0,5,,,,,,,,,,,,,,,,0,,79,72
11040,note_on,,1,0,9,,,,,,,,,,,,,,,,6,,70,72
11040,note_on,,1,0,8,,,,,,,,,,,,,,,,5,,75,72
11040,note_on,,1,0,16,,,,,,,,,,,,,,,,15,,55,72
11040,note_on,,0,0,16,,,,,,,,,,,,,,,,15,,70,72
11040,note_on,,0,0,16,,,,,,,,,,,,,,,,15,,63,72
11040,note_on,,0,0,16,,,,,,,,,,,,,,,,15,,58,72
11040,note_on,,1,0,15,,,,,,,,,,,,,,,,13,,55,72
11040,note_on,,1,0,6,,,,,,,,,,,,,,,,1,,75,72
11040,note_on,,1,0,7,,,,,,,,,,,,,,,,2,,55,72
11159,note_on,,119,0,16,,,,,,,,,,,,,,,,15,,55,0
11159,note_on,,119,0,7,,,,,,,,,,,,,,,,2,,55,0
11159,note_on,,119,0,15,,,,,,,,,,,,,,,,13,,55,0
11160,note_on,,481,0,12,,,,,,,,,,,,,,,,10,,79,72
11160,note_on,,1,0,7,,,,,,,,,,,,,,,,2,,51,72
11160,note_on,,361,0,11,,,,,,,,,,,,,,,,8,,51,72
11160,note_on,,481,0,14,,,,,,,,,,,,,,,,12,,63,72
11160,note_on,,1,0,15,,,,,,,,,,,,,,,,13,,51,72
11160,note_on,,1,0,16,,,,,,,,,,,,,,,,15,,51,72
11160,note_on,,481,0,13,,,,,,,,,,,,,,,,11,,70,72
11279,note_on,,0,0,16,,,,,,,,,,,,,,,,15,,58,0
11279,note_on,,239,0,10,,,,,,,,,,,,,,,,7,,67,0
11279,note_on,,119,0,15,,,,,,,,,,,,,,,,13,,51,0
11279,note_on,,119,0,7,,,,,,,,,,,,,,,,2,,51,0
11279,note_on,,239,0,6,,,,,,,,,,,,,,,,1,,75,0
11279,note_on,,119,0,12,,,,,,,,,,,,,,,,10,,79,0
11279,note_on,,0,0,16,,,,,,,,,,,,,,,,15,,51,0
11279,note_on,,119,0,16,,,,,,,,,,,,,,,,15,,70,0
11279,note_on,,119,0,14,,,,,,,,,,,,,,,,12,,63,0
11279,note_on,,0,0,16,,,,,,,,,,,,,,,,15,,63,0
11279,note_on,,119,0,11,,,,,,,,,,,,,,,,8,,51,0
11279,note_on,,239,0,5,,,,,,,,,,,,,,,,0,,79,0
11279,note_on,,119,0,13,,,,,,,,,,,,,,,,11,,70,0
11280,note_on,,0,0,16,,,,,,,,,,,,,,,,15,,75,72
11280,note_on,,0,0,16,,,,,,,,,,,,,,,,15,,70,72
11280,note_on,,1,0,16,,,,,,,,,,,,,,,,15,,55,72
11280,note_on,,0,0,16,,,,,,,,,,,,,,,,15,,63,72
11280,note_on,,1,0,15,,,,,,,,,,,,,,,,13,,55,72
11280,note_on,,0,0,16,,,,,,,,,,,,,,,,15,,58,72
11280,note_on,,1,0,7,,,,,,,,,,,,,,,,2,,55,72
11280,note_on,,1,0,11,,,,,,,,,,,,,,,,8,,55,72
11280,note_on,,1,0,14,,,,,,,,,,,,,,,,12,,63,72
11280,note_on,,1,0,12,,,,,,,,,,,,,,,,10,,82,72
11280,note_on,,1,0,13,,,,,,,,,,,,,,,,11,,75,72
11399,note_on,,119,0,13,,,,,,,,,,,,,,,,11,,75,0
11399,note_on,,119,0,14,,,,,,,,,,,,,,,,12,,63,0
11399,note_on,,119,0,7,,,,,,,,,,,,,,,,2,,55,0
11399,note_on,,119,0,16,,,,,,,,,,,,,,,,15,,55,0
11399,note_on,,359,0,9,,,,,,,,,,,,,,,,6,,70,0
11399,note_on,,119,0,15,,,,,,,,,,,,,,,,13,,55,0
11399,note_on,,119,0,12,,,,,,,,,,,,,,,,10,,82,0
11399,note_on,,119,0,11,,,,,,,,,,,,,,,,8,,55,0
11399,note_on,,359,0,8,,,,,,,,,,,,,,,,5,,75,0
11400,note_on,,1,0,12,,,,,,,,,,,,,,,,10,,80,72
11400,note_on,,1,0,8,,,,,,,,,,,,,,,,5,,74,72
11400,note_on,,1,0,9,,,,,,,,,,,,,,,,6,,68,72
11400,note_on,,1,0,16,,,,,,,,,,,,,,,,15,,53,72
11400,note_on,,1,0,7,,,,,,,,,,,,,,,,2,,53,72
11400,note_on,,1,0,15,,,,,,,,,,,,,,,,13,,53,72
11400,note_on,,1,0,13,,,,,,,,,,,,,,,,11,,74,72
11400,note_on,,1,0,14,,,,,,,,,,,,,,,,12,,70,72
11400,note_on,,1,0,11,,,,,,,,,,,,,,,,8,,53,72
11459,note_on,,59,0,15,,,,,,,,,,,,,,,,13,,53,0
11459,note_on,,59,0,12,,,,,,,,,,,,,,,,10,,80,0
11459,note_on,,59,0,13,,,,,,,,,,,,,,,,11,,74,0
11459,note_on,,59,0,9,,,,,,,,,,,,,,,,6,,68,0
11459,note_on,,59,0,11,,,,,,,,,,,,,,,,8,,53,0
11459,note_on,,59,0,16,,,,,,,,,,,,,,,,15,,53,0
11459,note_on,,59,0,8,,,,,,,,,,,,,,,,5,,74,0
11459,note_on,,59,0,7,,,,,,,,,,,,,,,,2,,53,0
11460,note_on,,1,0,11,,,,,,,,,,,,,,,,8,,51,72
11460,note_on,,1,0,15,,,,,,,,,,,,,,,,13,,51,72
11460,note_on,,1,0,8,,,,,,,,,,,,,,,,5,,75,72
11460,note_on,,1,0,7,,,,,,,,,,,,,,,,2,,51,72
11460,note_on,,1,0,12,,,,,,,,,,,,,,,,10,,79,72
11460,note_on,,1,0,13,,,,,,,,,,,,,,,,11,,75,72
11460,note_on,,1,0,9,,,,,,,,,,,,,,,,6,,67,72
11460,note_on,,1,0,16,,,,,,,,,,,,,,,,15,,51,72
11519,note_on,,59,0,16,,,,,,,,,,,,,,,,15,,58,0
11519,note_on,,59,0,15,,,,,,,,,,,,,,,,13,,51,0
11519,note_on,,59,0,12,,,,,,,,,,,,,,,,10,,79,0
11519,note_on,,59,0,7,,,,,,,,,,,,,,,,2,,51,0
11519,note_on,,59,0,13,,,,,,,,,,,,,,,,11,,75,0
11519,note_on,,59,0,11,,,,,,,,,,,,,,,,8,,51,0
11519,note_on,,59,0,9,,,,,,,,,,,,,,,,6,,67,0
11519,note_on,,119,0,14,,,,,,,,,,,,,,,,12,,70,0
11519,note_on,,0,0,16,,,,,,,,,,,,,,,,15,,51,0
11519,note_on,,0,0,16,,,,,,,,,,,,,,,,15,,63,0
11519,note_on,,0,0,16,,,,,,,,,,,,,,,,15,,70,0
11519,note_on,,0,0,16,,,,,,,,,,,,,,,,15,,75,0
11519,note_on,,59,0,8,,,,,,,,,,,,,,,,5,,75,0
11520,note_on,,1,0,14,,,,,,,,,,,,,,,,12,,70,72
11520,note_on,,1,0,8,,,,,,,,,,,,,,,,5,,74,72
11520,note_on,,1,0,15,,,,,,,,,,,,,,,,13,,58,72
11520,note_on,,1,0,11,,,,,,,,,,,,,,,,8,,58,72
11520,note_on,,1,0,12,,,,,,,,,,,,,,,,10,,77,72
11520,note_on,,1,0,13,,,,,,,,,,,,,,,,11,,74,72
11520,note_on,,1,0,16,,,,,,,,,,,,,,,,15,,58,72
11520,note_on,,0,0,16,,,,,,,,,,,,,,,,15,,74,72
11520,note_on,,1,0,7,,,,,,,,,,,,,,,,2,,58,72
11520,note_on,,0,0,16,,,,,,,,,,,,,,,,15,,65,72
11520,note_on,,0,0,16,,,,,,,,,,,,,,,,15,,70,72
11520,note_on,,1,0,9,,,,,,,,,,,,,,,,6,,65,72
11639,note_on,,119,0,9,,,,,,,,,,,,,,,,6,,65,0
11639,note_on,,119,0,11,,,,,,,,,,,,,,,,8,,58,0
11639,note_on,,119,0,16,,,,,,,,,,,,,,,,15,,58,0
11639,note_on,,119,0,14,,,,,,,,,,,,,,,,12,,70,0
11639,note_on,,119,0,8,,,,,,,,,,,,,,,,5,,74,0
11639,note_on,,119,0,15,,,,,,,,,,,,,,,,13,,58,0
11639,note_on,,119,0,7,,,,,,,,,,,,,,,,2,,58,0
11639,note_on,,119,0,13,,,,,,,,,,,,,,,,11,,74,0
11639,note_on,,119,0,12,,,,,,,,,,,,,,,,10,,77,0
11640,note_on,,1,0,13,,,,,,,,,,,,,,,,11,,74,72
11640,note_on,,1,0,14,,,,,,,,,,,,,,,,12,,65,72
11640,note_on,,1,0,11,,,,,,,,,,,,,,,,8,,58,72
11640,note_on,,1,0,15,,,,,,,,,,,,,,,,13,,58,72
11640,note_on,,361,0,6,,,,,,,,,,,,,,,,1,,70,72
11640,note_on,,361,0,10,,,,,,,,,,,,,,,,7,,65,72
11640,note_on,,1,0,8,,,,,,,,,,,,,,,,5,,74,72
11640,note_on,,1,0,7,,,,,,,,,,,,,,,,2,,58,72
11640,note_on,,1,0,9,,,,,,,,,,,,,,,,6,,70,72
11640,note_on,,361,0,5,,,,,,,,,,,,,,,,0,,74,72
11640,note_on,,1,0,12,,,,,,,,,,,,,,,,10,,82,72
11640,note_on,,1,0,16,,,,,,,,,,,,,,,,15,,58,72
11759,note_on,,119,0,9,,,,,,,,,,,,,,,,6,,70,0
11759,note_on,,119,0,14,,,,,,,,,,,,,,,,12,,65,0
11759,note_on,,119,0,7,,,,,,,,,,,,,,,,2,,58,0
11759,note_on,,0,0,16,,,,,,,,,,,,,,,,15,,58,0
11759,note_on,,0,0,16,,,,,,,,,,,,,,,,15,,65,0
11759,note_on,,119,0,11,,,,,,,,,,,,,,,,8,,58,0
11759,note_on,,119,0,5,,,,,,,,,,,,,,,,0,,74,0
11759,note_on,,119,0,16,,,,,,,,,,,,,,,,15,,74,0
11759,note_on,,119,0,8,,,,,,,,,,,,,,,,5,,74,0
11759,note_on,,119,0,10,,,,,,,,,,,,,,,,7,,65,0
11759,note_on,,119,0,13,,,,,,,,,,,,,,,,11,,74,0
11759,note_on,,119,0,15,,,,,,,,,,,,,,,,13,,58,0
11760,note_on,,1,0,15,,,,,,,,,,,,,,,,13,,60,72
11760,note_on,,1,0,13,,,,,,,,,,,,,,,,11,,75,72
11760,note_on,,0,0,16,,,,,,,,,,,,,,,,15,,63,72
11760,note_on,,1,0,10,,,,,,,,,,,,,,,,7,,63,72
11760,note_on,,1,0,16,,,,,,,,,,,,,,,,15,,60,72
11760,note_on,,1,0,7,,,,,,,,,,,,,,,,2,,60,72
11760,note_on,,0,0,16,,,,,,,,,,,,,,,,15,,75,72
11760,note_on,,1,0,11,,,,,,,,,,,,,,,,8,,60,72
11760,note_on,,1,0,9,,,,,,,,,,,,,,,,6,,70,72
11760,note_on,,1,0,5,,,,,,,,,,,,,,,,0,,75,72
11760,note_on,,1,0,8,,,,,,,,,,,,,,,,5,,75,72
11760,note_on,,1,0,14,,,,,,,,,,,,,,,,12,,63,72
11879,note_on,,0,0,16,,,,,,,,,,,,,,,,15,,60,0
11879,note_on,,0,0,16,,,,,,,,,,,,,,,,15,,75,0
11879,note_on,,0,0,16,,,,,,,,,,,,,,,,15,,63,0
11879,note_on,,239,0,6,,,,,,,,,,,,,,,,1,,70,0
11879,note_on,,119,0,14,,,,,,,,,,,,,,,,12,,63,0
11879,note_on,,119,0,9,,,,,,,,,,,,,,,,6,,70,0
11879,note_on,,239,0,12,,,,,,,,,,,,,,,,10,,82,0
11879,note_on,,119,0,13,,,,,,,,,,,,,,,,11,,75,0
11879,note_on,,119,0,7,,,,,,,,,,,,,,,,2,,60,0
11879,note_on,,119,0,11,,,,,,,,,,,,,,,,8,,60,0
11879,note_on,,119,0,5,,,,,,,,,,,,,,,,0,,75,0
11879,note_on,,119,0,15,,,,,,,,,,,,,,,,13,,60,0
11879,note_on,,119,0,8,,,,,,,,,,,,,,,,5,,75,0
11879,note_on,,119,0,10,,,,,,,,,,,,,,,,7,,63,0
11879,note_on,,119,0,16,,,,,,,,,,,,,,,,15,,70,0
11880,note_on,,1,0,12,,,,,,,,,,,,,,,,10,,80,72
11880,note_on,,1,0,5,,,,,,,,,,,,,,,,0,,77,72
11880,note_on,,1,0,8,,,,,,,,,,,,,,,,5,,77,72
11880,note_on,,1,0,15,,,,,,,,,,,,,,,,13,,62,72
11880,note_on,,1,0,6,,,,,,,,,,,,,,,,1,,68,72
11880,note_on,,0,0,16,,,,,,,,,,,,,,,,15,,65,72
11880,note_on,,1,0,14,,,,,,,,,,,,,,,,12,,70,72
11880,note_on,,0,0,16,,,,,,,,,,,,,,,,15,,68,72
11880,note_on,,1,0,10,,,,,,,,,,,,,,,,7,,62,72
11880,note_on,,1,0,16,,,,,,,,,,,,,,,,15,,62,72
11880,note_on,,0,0,16,,,,,,,,,,,,,,,,15,,70,72
11880,note_on,,1,0,11,,,,,,,,,,,,,,,,8,,62,72
11880,note_on,,1,0,13,,,,,,,,,,,,,,,,11,,77,72
11880,note_on,,1,0,9,,,,,,,,,,,,,,,,6,,68,72
11880,note_on,,1,0,7,,,,,,,,,,,,,,,,2,,62,72
11999,note_on,,119,0,7,,,,,,,,,,,,,,,,2,,62,0
11999,note_on,,119,0,14,,,,,,,,,,,,,,,,12,,70,0
11999,note_on,,119,0,9,,,,,,,,,,,,,,,,6,,68,0
11999,note_on,,119,0,15,,,,,,,,,,,,,,,,13,,62,0
11999,note_on,,119,0,13,,,,,,,,,,,,,,,,11,,77,0
11999,note_on,,119,0,8,,,,,,,,,,,,,,,,5,,77,0
11999,note_on,,119,0,12,,,,,,,,,,,,,,,,10,,80,0
11999,note_on,,119,0,10,,,,,,,,,,,,,,,,7,,62,0
11999,note_on,,119,0,5,,,,,,,,,,,,,,,,0,,77,0
11999,note_on,,119,0,11,,,,,,,,,,,,,,,,8,,62,0
11999,note_on,,119,0,16,,,,,,,,,,,,,,,,15,,62,0
11999,note_on,,119,0,6,,,,,,,,,,,,,,,,1,,68,0
11999,note_on,,0,0,16,,,,,,,,,,,,,,,,15,,70,0
11999,note_on,,0,0,16,,,,,,,,,,,,,,,,15,,65,0
11999,note_on,,0,0,16,,,,,,,,,,,,,,,,15,,68,0
12000,note_on,,1,0,6,,,,,,,,,,,,,,,,1,,67,72
12000,note_on,,1,0,12,,,,,,,,,,,,,,,,10,,79,72
12000,note_on,,1,0,9,,,,,,,,,,,,,,,,6,,67,72
12000,note_on,,1,0,5,,,,,,,,,,,,,,,,0,,70,72
12000,note_on,,0,0,16,,,,,,,,,,,,,,,,15,,67,72
12000,note_on,,0,0,16,,,,,,,,,,,,,,,,15,,70,72
12000,note_on,,1,0,16,,,,,,,,,,,,,,,,15,,63,72
12000,note_on,,1,0,14,,,,,,,,,,,,,,,,12,,70,72
12000,note_on,,1,0,7,,,,,,,,,,,,,,,,2,,63,72
12000,note_on,,1,0,8,,,,,,,,,,,,,,,,5,,70,72
12000,note_on,,1,0,11,,,,,,,,,,,,,,,,8,,63,72
12000,note_on,,1,0,15,,,,,,,,,,,,,,,,13,,63,72
12000,note_on,,1,0,13,,,,,,,,,,,,,,,,11,,70,72
12000,note_on,,1,0,10,,,,,,,,,,,,,,,,7,,67,72
12119,note_on,,119,0,10,,,,,,,,,,,,,,,,7,,67,0
12119,note_on,,119,0,7,,,,,,,,,,,,,,,,2,,63,0
12119,note_on,,119,0,13,,,,,,,,,,,,,,,,11,,70,0
12119,note_on,,119,0,15,,,,,,,,,,,,,,,,13,,63,0
12119,note_on,,119,0,12,,,,,,,,,,,,,,,,10,,79,0
12119,note_on,,119,0,14,,,,,,,,,,,,,,,,12,,70,0
12119,note_on,,119,0,9,,,,,,,,,,,,,,,,6,,67,0
12120,note_on,,1,0,14,,,,,,,,,,,,,,,,12,,63,72
12120,note_on,,1,0,10,,,,,,,,,,,,,,,,7,,67,72
12120,note_on,,1,0,9,,,,,,,,,,,,,,,,6,,70,72
12120,note_on,,1,0,7,,,,,,,,,,,,,,,,2,,51,72
12120,note_on,,120,0,16,,,,,,,,,,,,,,,,15,,51,72
12120,note_on,,1,0,13,,,,,,,,,,,,,,,,11,,67,72
12120,note_on,,1,0,12,,,,,,,,,,,,,,,,10,,70,72
12120,note_on,,1,0,15,,,,,,,,,,,,,,,,13,,51,72
12179,note_on,,59,0,10,,,,,,,,,,,,,,,,7,,67,0
12179,note_on,,59,0,9,,,,,,,,,,,,,,,,6,,70,0
12179,note_on,,59,0,12,,,,,,,,,,,,,,,,10,,70,0
12179,note_on,,59,0,13,,,,,,,,,,,,,,,,11,,67,0
12180,note_on,,1,0,12,,,,,,,,,,,,,,,,10,,68,72
12180,note_on,,1,0,9,,,,,,,,,,,,,,,,6,,68,72
12180,note_on,,1,0,13,,,,,,,,,,,,,,,,11,,65,72
12180,note_on,,1,0,10,,,,,,,,,,,,,,,,7,,65,72
12239,note_on,,59,0,13,,,,,,,,,,,,,,,,11,,65,0
12239,note_on,,59,0,12,,,,,,,,,,,,,,,,10,,68,0
12239,note_on,,59,0,9,,,,,,,,,,,,,,,,6,,68,0
12239,note_on,,239,0,11,,,,,,,,,,,,,,,,8,,63,0
12239,note_on,,59,0,10,,,,,,,,,,,,,,,,7,,65,0
12240,note_on,,1,0,10,,,,,,,,,,,,,,,,7,,63,72
12240,note_on,,1,0,13,,,,,,,,,,,,,,,,11,,63,72
12240,note_on,,1,0,12,,,,,,,,,,,,,,,,10,,67,72
12240,note_on,,1,0,9,,,,,,,,,,,,,,,,6,,67,72
12359,note_on,,359,0,5,,,,,,,,,,,,,,,,0,,70,0
12359,note_on,,0,0,16,,,,,,,,,,,,,,,,15,,67,0
12359,note_on,,359,0,6,,,,,,,,,,,,,,,,1,,67,0
12359,note_on,,0,0,16,,,,,,,,,,,,,,,,15,,70,0
12359,note_on,,239,0,16,,,,,,,,,,,,,,,,15,,63,0
12359,note_on,,239,0,14,,,,,,,,,,,,,,,,12,,63,0
12359,note_on,,119,0,12,,,,,,,,,,,,,,,,10,,67,0
12359,note_on,,239,0,7,,,,,,,,,,,,,,,,2,,51,0
12359,note_on,,239,0,15,,,,,,,,,,,,,,,,13,,51,0
12359,note_on,,119,0,10,,,,,,,,,,,,,,,,7,,63,0
12359,note_on,,119,0,13,,,,,,,,,,,,,,,,11,,63,0
12359,note_on,,0,0,16,,,,,,,,,,,,,,,,15,,51,0
12359,note_on,,359,0,8,,,,,,,,,,,,,,,,5,,70,0
12360,note_on,,1,0,15,,,,,,,,,,,,,,,,13,,63,72
12360,note_on,,1,0,6,,,,,,,,,,,,,,,,1,,67,72
12360,note_on,,1,0,10,,,,,,,,,,,,,,,,7,,63,72
12360,note_on,,1,0,14,,,,,,,,,,,,,,,,12,,63,72
12360,note_on,,0,0,16,,,,,,,,,,,,,,,,15,,70,72
12360,note_on,,1,0,16,,,,,,,,,,,,,,,,15,,63,72
12360,note_on,,0,0,16,,,,,,,,,,,,,,,,15,,67,72
12360,note_on,,1,0,5,,,,,,,,,,,,,,,,0,,79,72
12360,note_on,,1,0,7,,,,,,,,,,,,,,,,2,,63,72
12360,note_on,,1,0,8,,,,,,,,,,,,,,,,5,,79,72
12419,note_on,,179,0,9,,,,,,,,,,,,,,,,6,,67,0
12419,note_on,,59,0,5,,,,,,,,,,,,,,,,0,,79,0
12419,note_on,,59,0,14,,,,,,,,,,,,,,,,12,,63,0
12419,note_on,,59,0,8,,,,,,,,,,,,,,,,5,,79,0
12419,note_on,,59,0,15,,,,,,,,,,,,,,,,13,,63,0
12419,note_on,,59,0,10,,,,,,,,,,,,,,,,7,,63,0
12419,note_on,,59,0,7,,,,,,,,,,,,,,,,2,,63,0
12419,note_on,,59,0,16,,,,,,,,,,,,,,,,15,,63,0
12420,note_on,,1,0,16,,,,,,,,,,,,,,,,15,,61,72
12420,note_on,,1,0,15,,,,,,,,,,,,,,,,13,,61,72
12420,note_on,,1,0,9,,,,,,,,,,,,,,,,6,,67,72
12420,note_on,,1,0,7,,,,,,,,,,,,,,,,2,,61,72
12420,note_on,,1,0,8,,,,,,,,,,,,,,,,5,,77,72
12420,note_on,,1,0,10,,,,,,,,,,,,,,,,7,,61,72
12420,note_on,,1,0,5,,,,,,,,,,,,,,,,0,,77,72
12420,note_on,,1,0,14,,,,,,,,,,,,,,,,12,,61,72
12479,note_on,,59,0,16,,,,,,,,,,,,,,,,15,,70,0
12479,note_on,,59,0,10,,,,,,,,,,,,,,,,7,,61,0
12479,note_on,,59,0,15,,,,,,,,,,,,,,,,13,,61,0
12479,note_on,,0,0,16,,,,,,,,,,,,,,,,15,,61,0
12479,note_on,,59,0,5,,,,,,,,,,,,,,,,0,,77,0
12479,note_on,,59,0,7,,,,,,,,,,,,,,,,2,,61,0
12479,note_on,,0,0,16,,,,,,,,,,,,,,,,15,,67,0
12479,note_on,,119,0,6,,,,,,,,,,,,,,,,1,,67,0
12479,note_on,,59,0,9,,,,,,,,,,,,,,,,6,,67,0
12479,note_on,,59,0,14,,,,,,,,,,,,,,,,12,,61,0
12479,note_on,,59,0,8,,,,,,,,,,,,,,,,5,,77,0
12480,note_on,,1,0,9,,,,,,,,,,,,,,,,6,,68,72
12480,note_on,,0,0,16,,,,,,,,,,,,,,,,15,,72,72
12480,note_on,,1,0,15,,,,,,,,,,,,,,,,13,,60,72
12480,note_on,,1,0,14,,,,,,,,,,,,,,,,12,,60,72
12480,note_on,,0,0,16,,,,,,,,,,,,,,,,15,,68,72
12480,note_on,,0,0,16,,,,,,,,,,,,,,,,15,,63,72
12480,note_on,,1,0,8,,,,,,,,,,,,,,,,5,,75,72
12480,note_on,,1,0,7,,,,,,,,,,,,,,,,2,,60,72
12480,note_on,,1,0,10,,,,,,,,,,,,,,,,7,,60,72
12480,note_on,,1,0,5,,,,,,,,,,,,,,,,0,,75,72
12480,note_on,,1,0,16,,,,,,,,,,,,,,,,15,,60,72
12480,note_on,,1,0,6,,,,,,,,,,,,,,,,1,,68,72
12539,note_on,,59,0,15,,,,,,,,,,,,,,,,13,,60,0
12539,note_on,,59,0,10,,,,,,,,,,,,,,,,7,,60,0
12539,note_on,,59,0,14,,,,,,,,,,,,,,,,12,,60,0
12539,note_on,,59,0,16,,,,,,,,,,,,,,,,15,,60,0
12539,note_on,,0,0,16,,,,,,,,,,,,,,,,15,,63,0
12539,note_on,,0,0,16,,,,,,,,,,,,,,,,15,,68,0
12539,note_on,,59,0,5,,,,,,,,,,,,,,,,0,,75,0
12539,note_on,,0,0,16,,,,,,,,,,,,,,,,15,,72,0
12539,note_on,,59,0,7,,,,,,,,,,,,,,,,2,,60,0
12539,note_on,,59,0,8,,,,,,,,,,,,,,,,5,,75,0
12540,note_on,,1,0,15,,,,,,,,,,,,,,,,13,,56,72
12540,note_on,,1,0,14,,,,,,,,,,,,,,,,12,,56,72
12540,note_on,,1,0,7,,,,,,,,,,,,,,,,2,,56,72
12540,note_on,,1,0,16,,,,,,,,,,,,,,,,15,,56,72
12540,note_on,,0,0,16,,,,,,,,,,,,,,,,15,,60,72
12540,note_on,,1,0,5,,,,,,,,,,,,,,,,0,,72,72
12540,note_on,,1,0,10,,,,,,,,,,,,,,,,7,,56,72
12540,note_on,,1,0,8,,,,,,,,,,,,,,,,5,,72,72
12599,note_on,,59,0,16,,,,,,,,,,,,,,,,15,,56,0
12599,note_on,,59,0,5,,,,,,,,,,,,,,,,0,,72,0
12599,note_on,,59,0,15,,,,,,,,,,,,,,,,13,,56,0
12599,note_on,,0,0,16,,,,,,,,,,,,,,,,15,,60,0
12599,note_on,,59,0,8,,,,,,,,,,,,,,,,5,,72,0
12599,note_on,,59,0,10,,,,,,,,,,,,,,,,7,,56,0
12599,note_on,,59,0,7,,,,,,,,,,,,,,,,2,,56,0
12599,note_on,,59,0,14,,,,,,,,,,,,,,,,12,,56,0
12600,note_on,,1,0,16,,,,,,,,,,,,,,,,15,,58,72
12600,note_on,,1,0,8,,,,,,,,,,,,,,,,5,,70,72
12600,note_on,,0,0,16,,,,,,,,,,,,,,,,15,,61,72
12600,note_on,,1,0,5,,,,,,,,,,,,,,,,0,,70,72
12600,note_on,,1,0,7,,,,,,,,,,,,,,,,2,,58,72
12600,note_on,,1,0,14,,,,,,,,,,,,,,,,12,,58,72
12600,note_on,,1,0,15,,,,,,,,,,,,,,,,13,,58,72
12600,note_on,,1,0,10,,,,,,,,,,,,,,,,7,,58,72
12659,note_on,,59,0,14,,,,,,,,,,,,,,,,12,,58,0
12659,note_on,,179,0,9,,,,,,,,,,,,,,,,6,,68,0
12659,note_on,,59,0,15,,,,,,,,,,,,,,,,13,,58,0
12659,note_on,,0,0,16,,,,,,,,,,,,,,,,15,,61,0
12659,note_on,,179,0,6,,,,,,,,,,,,,,,,1,,68,0
12659,note_on,,59,0,16,,,,,,,,,,,,,,,,15,,58,0
12659,note_on,,59,0,10,,,,,,,,,,,,,,,,7,,58,0
12659,note_on,,59,0,5,,,,,,,,,,,,,,,,0,,70,0
12659,note_on,,59,0,8,,,,,,,,,,,,,,,,5,,70,0
12659,note_on,,59,0,7,,,,,,,,,,,,,,,,2,,58,0
12660,note_on,,1,0,7,,,,,,,,,,,,,,,,2,,60,72
12660,note_on,,1,0,5,,,,,,,,,,,,,,,,0,,68,72
12660,note_on,,0,0,16,,,,,,,,,,,,,,,,15,,63,72
12660,note_on,,1,0,15,,,,,,,,,,,,,,,,13,,60,72
12660,note_on,,1,0,8,,,,,,,,,,,,,,,,5,,68,72
12660,note_on,,1,0,6,,,,,,,,,,,,,,,,1,,75,72
12660,note_on,,1,0,14,,,,,,,,,,,,,,,,12,,60,72
12660,note_on,,1,0,10,,,,,,,,,,,,,,,,7,,60,72
12660,note_on,,1,0,9,,,,,,,,,,,,,,,,6,,63,72
12660,note_on,,1,0,16,,,,,,,,,,,,,,,,15,,60,72
12719,note_on,,59,0,6,,,,,,,,,,,,,,,,1,,75,0
12719,note_on,,59,0,8,,,,,,,,,,,,,,,,5,,68,0
12719,note_on,,59,0,9,,,,,,,,,,,,,,,,6,,63,0
12719,note_on,,59,0,14,,,,,,,,,,,,,,,,12,,60,0
12719,note_on,,59,0,15,,,,,,,,,,,,,,,,13,,60,0
12719,note_on,,59,0,7,,,,,,,,,,,,,,,,2,,60,0
12719,note_on,,59,0,5,,,,,,,,,,,,,,,,0,,68,0
12719,note_on,,59,0,10,,,,,,,,,,,,,,,,7,,60,0
12719,note_on,,59,0,16,,,,,,,,,,,,,,,,15,,60,0
12719,note_on,,0,0,16,,,,,,,,,,,,,,,,15,,63,0
12720,note_on,,1,0,6,,,,,,,,,,,,,,,,1,,68,72
12720,note_on,,1,0,8,,,,,,,,,,,,,,,,5,,68,72
12720,note_on,,1,0,7,,,,,,,,,,,,,,,,2,,61,72
12720,note_on,,0,0,16,,,,,,,,,,,,,,,,15,,65,72
12720,note_on,,0,0,16,,,,,,,,,,,,,,,,15,,68,72
12720,note_on,,1,0,16,,,,,,,,,,,,,,,,15,,61,72
12720,note_on,,1,0,14,,,,,,,,,,,,,,,,12,,61,72
12720,note_on,,1,0,9,,,,,,,,,,,,,,,,6,,65,72
12720,note_on,,1,0,5,,,,,,,,,,,,,,,,0,,77,72
12720,note_on,,1,0,10,,,,,,,,,,,,,,,,7,,61,72
12720,note_on,,1,0,15,,,,,,,,,,,,,,,,13,,61,72
12839,note_on,,119,0,8,,,,,,,,,,,,,,,,5,,68,0
12839,note_on,,119,0,9,,,,,,,,,,,,,,,,6,,65,0
12839,note_on,,119,0,15,,,,,,,,,,,,,,,,13,,61,0
12839,note_on,,119,0,14,,,,,,,,,,,,,,,,12,,61,0
12839,note_on,,119,0,5,,,,,,,,,,,,,,,,0,,77,0
12839,note_on,,119,0,10,,,,,,,,,,,,,,,,7,,61,0
12839,note_on,,119,0,16,,,,,,,,,,,,,,,,15,,61,0
12839,note_on,,0,0,16,,,,,,,,,,,,,,,,15,,68,0
12839,note_on,,0,0,16,,,,,,,,,,,,,,,,15,,65,0
12839,note_on,,119,0,6,,,,,,,,,,,,,,,,1,,68,0
12839,note_on,,119,0,7,,,,,,,,,,,,,,,,2,,61,0
12840,note_on,,1,0,9,,,,,,,,,,,,,,,,6,,67,72
12840,note_on,,1,0,6,,,,,,,,,,,,,,,,1,,70,72
12840,note_on,,1,0,15,,,,,,,,,,,,,,,,13,,51,72
12840,note_on,,1,0,7,,,,,,,,,,,,,,,,2,,51,72
12840,note_on,,601,0,11,,,,,,,,,,,,,,,,8,,51,72
12840,note_on,,1,0,10,,,,,,,,,,,,,,,,7,,60,72
12840,note_on,,1,0,8,,,,,,,,,,,,,,,,5,,70,72
12840,note_on,,481,0,12,,,,,,,,,,,,,,,,10,,82,72
12840,note_on,,0,0,16,,,,,,,,,,,,,,,,15,,58,72
12840,note_on,,0,0,16,,,,,,,,,,,,,,,,15,,67,72
12840,note_on,,0,0,16,,,,,,,,,,,,,,,,15,,75,72
12840,note_on,,481,0,13,,,,,,,,,,,,,,,,11,,79,72
12840,note_on,,1,0,16,,,,,,,,,,,,,,,,15,,70,72
12840,note_on,,1,0,14,,,,,,,,,,,,,,,,12,,60,72
12840,note_on,,0,0,16,,,,,,,,,,,,,,,,15,,51,72
12840,note_on,,1,0,5,,,,,,,,,,,,,,,,0,,75,72
12899,note_on,,59,0,16,,,,,,,,,,,,,,,,15,,51,0
12899,note_on,,59,0,6,,,,,,,,,,,,,,,,1,,70,0
12899,note_on,,59,0,14,,,,,,,,,,,,,,,,12,,60,0
12899,note_on,,59,0,8,,,,,,,,,,,,,,,,5,,70,0
12899,note_on,,59,0,12,,,,,,,,,,,,,,,,10,,82,0
12899,note_on,,59,0,10,,,,,,,,,,,,,,,,7,,60,0
12899,note_on,,59,0,7,,,,,,,,,,,,,,,,2,,51,0
12899,note_on,,59,0,15,,,,,,,,,,,,,,,,13,,51,0
12899,note_on,,59,0,11,,,,,,,,,,,,,,,,8,,51,0
12899,note_on,,59,0,13,,,,,,,,,,,,,,,,11,,79,0
12899,note_on,,59,0,9,,,,,,,,,,,,,,,,6,,67,0
12899,note_on,,59,0,5,,,,,,,,,,,,,,,,0,,75,0
12900,note_on,,1,0,11,,,,,,,,,,,,,,,,8,,49,72
12900,note_on,,1,0,9,,,,,,,,,,,,,,,,6,,67,72
12900,note_on,,1,0,8,,,,,,,,,,,,,,,,5,,70,72
12900,note_on,,1,0,7,,,,,,,,,,,,,,,,2,,49,72
12900,note_on,,1,0,16,,,,,,,,,,,,,,,,15,,49,72
12900,note_on,,1,0,13,,,,,,,,,,,,,,,,11,,79,72
12900,note_on,,1,0,5,,,,,,,,,,,,,,,,0,,75,72
12900,note_on,,1,0,6,,,,,,,,,,,,,,,,1,,70,72
12900,note_on,,1,0,15,,,,,,,,,,,,,,,,13,,49,72
12900,note_on,,1,0,10,,,,,,,,,,,,,,,,7,,58,72
12900,note_on,,1,0,12,,,,,,,,,,,,,,,,10,,82,72
12900,note_on,,1,0,14,,,,,,,,,,,,,,,,12,,58,72
12959,note_on,,0,0,16,,,,,,,,,,,,,,,,15,,67,0
12959,note_on,,59,0,16,,,,,,,,,,,,,,,,15,,70,0
12959,note_on,,0,0,16,,,,,,,,,,,,,,,,15,,58,0
12959,note_on,,0,0,16,,,,,,,,,,,,,,,,15,,49,0
12959,note_on,,0,0,16,,,,,,,,,,,,,,,,15,,75,0
12959,note_on,,59,0,8,,,,,,,,,,,,,,,,5,,70,0
12959,note_on,,59,0,14,,,,,,,,,,,,,,,,12,,58,0
12959,note_on,,59,0,9,,,,,,,,,,,,,,,,6,,67,0
12959,note_on,,59,0,7,,,,,,,,,,,,,,,,2,,49,0
12959,note_on,,59,0,11,,,,,,,,,,,,,,,,8,,49,0
12959,note_on,,59,0,13,,,,,,,,,,,,,,,,11,,79,0
12959,note_on,,59,0,15,,,,,,,,,,,,,,,,13,,49,0
12959,note_on,,59,0,10,,,,,,,,,,,,,,,,7,,58,0
12959,note_on,,59,0,12,,,,,,,,,,,,,,,,10,,82,0
12959,note_on,,59,0,6,,,,,,,,,,,,,,,,1,,70,0
12959,note_on,,59,0,5,,,,,,,,,,,,,,,,0,,75,0
12960,note_on,,1,0,14,,,,,,,,,,,,,,,,12,,63,72
12960,note_on,,0,0,16,,,,,,,,,,,,,,,,15,,75,72
12960,note_on,,1,0,11,,,,,,,,,,,,,,,,8,,48,72
12960,note_on,,1,0,13,,,,,,,,,,,,,,,,11,,80,72
12960,note_on,,1,0,6,,,,,,,,,,,,,,,,1,,68,72
12960,note_on,,1,0,12,,,,,,,,,,,,,,,,10,,84,72
12960,note_on,,0,0,16,,,,,,,,,,,,,,,,15,,68,72
12960,note_on,,1,0,8,,,,,,,,,,,,,,,,5,,72,72
12960,note_on,,1,0,15,,,,,,,,,,,,,,,,13,,48,72
12960,note_on,,1,0,10,,,,,,,,,,,,,,,,7,,63,72
12960,note_on,,1,0,7,,,,,,,,,,,,,,,,2,,48,72
12960,note_on,,1,0,5,,,,,,,,,,,,,,,,0,,75,72
12960,note_on,,1,0,9,,,,,,,,,,,,,,,,6,,68,72
12960,note_on,,0,0,16,,,,,,,,,,,,,,,,15,,80,72
12960,note_on,,1,0,16,,,,,,,,,,,,,,,,15,,48,72
12960,note_on,,0,0,16,,,,,,,,,,,,,,,,15,,51,72
13019,note_on,,59,0,12,,,,,,,,,,,,,,,,10,,84,0
13019,note_on,,59,0,11,,,,,,,,,,,,,,,,8,,48,0
13019,note_on,,59,0,7,,,,,,,,,,,,,,,,2,,48,0
13019,note_on,,59,0,16,,,,,,,,,,,,,,,,15,,48,0
13019,note_on,,59,0,15,,,,,,,,,,,,,,,,13,,48,0
13020,note_on,,1,0,11,,,,,,,,,,,,,,,,8,,44,72
13020,note_on,,1,0,15,,,,,,,,,,,,,,,,13,,44,72
13020,note_on,,1,0,7,,,,,,,,,,,,,,,,2,,44,72
13020,note_on,,1,0,16,,,,,,,,,,,,,,,,15,,44,72
13020,note_on,,1,0,12,,,,,,,,,,,,,,,,10,,72,72
13079,note_on,,119,0,13,,,,,,,,,,,,,,,,11,,80,0
13079,note_on,,59,0,15,,,,,,,,,,,,,,,,13,,44,0
13079,note_on,,59,0,12,,,,,,,,,,,,,,,,10,,72,0
13079,note_on,,59,0,7,,,,,,,,,,,,,,,,2,,44,0
13079,note_on,,59,0,16,,,,,,,,,,,,,,,,15,,44,0
13079,note_on,,119,0,8,,,,,,,,,,,,,,,,5,,72,0
13079,note_on,,59,0,11,,,,,,,,,,,,,,,,8,,44,0
13080,note_on,,1,0,7,,,,,,,,,,,,,,,,2,,46,72
13080,note_on,,1,0,12,,,,,,,,,,,,,,,,10,,73,72
13080,note_on,,1,0,11,,,,,,,,,,,,,,,,8,,46,72
13080,note_on,,1,0,16,,,,,,,,,,,,,,,,15,,46,72
13080,note_on,,1,0,13,,,,,,,,,,,,,,,,11,,68,72
13080,note_on,,1,0,8,,,,,,,,,,,,,,,,5,,73,72
13080,note_on,,1,0,15,,,,,,,,,,,,,,,,13,,46,72
13139,note_on,,179,0,6,,,,,,,,,,,,,,,,1,,68,0
13139,note_on,,59,0,15,,,,,,,,,,,,,,,,13,,46,0
13139,note_on,,59,0,16,,,,,,,,,,,,,,,,15,,46,0
13139,note_on,,59,0,11,,,,,,,,,,,,,,,,8,,46,0
13139,note_on,,59,0,7,,,,,,,,,,,,,,,,2,,46,0
13139,note_on,,179,0,5,,,,,,,,,,,,,,,,0,,75,0
13139,note_on,,59,0,8,,,,,,,,,,,,,,,,5,,73,0
13139,note_on,,59,0,12,,,,,,,,,,,,,,,,10,,73,0
13140,note_on,,1,0,6,,,,,,,,,,,,,,,,1,,68,72
13140,note_on,,1,0,12,,,,,,,,,,,,,,,,10,,75,72
13140,note_on,,1,0,5,,,,,,,,,,,,,,,,0,,75,72
13140,note_on,,1,0,8,,,,,,,,,,,,,,,,5,,75,72
13140,note_on,,1,0,16,,,,,,,,,,,,,,,,15,,48,72
13140,note_on,,1,0,15,,,,,,,,,,,,,,,,13,,48,72
13140,note_on,,1,0,7,,,,,,,,,,,,,,,,2,,48,72
13140,note_on,,1,0,11,,,,,,,,,,,,,,,,8,,48,72
13199,note_on,,239,0,10,,,,,,,,,,,,,,,,7,,63,0
13199,note_on,,59,0,8,,,,,,,,,,,,,,,,5,,75,0
13199,note_on,,59,0,12,,,,,,,,,,,,,,,,10,,75,0
13199,note_on,,59,0,7,,,,,,,,,,,,,,,,2,,48,0
13199,note_on,,59,0,11,,,,,,,,,,,,,,,,8,,48,0
13199,note_on,,59,0,15,,,,,,,,,,,,,,,,13,,48,0
13199,note_on,,239,0,14,,,,,,,,,,,,,,,,12,,63,0
13199,note_on,,0,0,16,,,,,,,,,,,,,,,,15,,48,0
13199,note_on,,59,0,16,,,,,,,,,,,,,,,,15,,80,0
13199,note_on,,0,0,16,,,,,,,,,,,,,,,,15,,75,0
13199,note_on,,0,0,16,,,,,,,,,,,,,,,,15,,51,0
13199,note_on,,59,0,6,,,,,,,,,,,,,,,,1,,68,0
13199,note_on,,0,0,16,,,,,,,,,,,,,,,,15,,68,0
13199,note_on,,59,0,5,,,,,,,,,,,,,,,,0,,75,0
13200,note_on,,1,0,5,,,,,,,,,,,,,,,,0,,77,72
13200,note_on,,1,0,14,,,,,,,,,,,,,,,,12,,61,72
13200,note_on,,1,0,11,,,,,,,,,,,,,,,,8,,49,72
13200,note_on,,1,0,10,,,,,,,,,,,,,,,,7,,61,72
13200,note_on,,1,0,6,,,,,,,,,,,,,,,,1,,68,72
13200,note_on,,1,0,8,,,,,,,,,,,,,,,,5,,77,72
13200,note_on,,1,0,7,,,,,,,,,,,,,,,,2,,49,72
13200,note_on,,0,0,16,,,,,,,,,,,,,,,,15,,68,72
13200,note_on,,0,0,16,,,,,,,,,,,,,,,,15,,73,72
13200,note_on,,0,0,16,,,,,,,,,,,,,,,,15,,77,72
13200,note_on,,0,0,16,,,,,,,,,,,,,,,,15,,56,72
13200,note_on,,1,0,12,,,,,,,,,,,,,,,,10,,77,72
13200,note_on,,1,0,16,,,,,,,,,,,,,,,,15,,49,72
13200,note_on,,1,0,15,,,,,,,,,,,,,,,,13,,49,72
13259,note_on,,59,0,12,,,,,,,,,,,,,,,,10,,77,0
13259,note_on,,59,0,11,,,,,,,,,,,,,,,,8,,49,0
13259,note_on,,179,0,13,,,,,,,,,,,,,,,,11,,68,0
13259,note_on,,59,0,7,,,,,,,,,,,,,,,,2,,49,0
13259,note_on,,59,0,6,,,,,,,,,,,,,,,,1,,68,0
13259,note_on,,59,0,15,,,,,,,,,,,,,,,,13,,49,0
13259,note_on,,59,0,16,,,,,,,,,,,,,,,,15,,49,0
13259,note_on,,59,0,5,,,,,,,,,,,,,,,,0,,77,0
13259,note_on,,59,0,8,,,,,,,,,,,,,,,,5,,77,0
13259,note_on,,299,0,9,,,,,,,,,,,,,,,,6,,68,0
13260,note_on,,1,0,5,,,,,,,,,,,,,,,,0,,75,72
13260,note_on,,1,0,6,,,,,,,,,,,,,,,,1,,67,72
13260,note_on,,1,0,8,,,,,,,,,,,,,,,,5,,75,72
13260,note_on,,1,0,12,,,,,,,,,,,,,,,,10,,75,72
13260,note_on,,1,0,16,,,,,,,,,,,,,,,,15,,51,72
13260,note_on,,1,0,13,,,,,,,,,,,,,,,,11,,67,72
13260,note_on,,1,0,9,,,,,,,,,,,,,,,,6,,67,72
13260,note_on,,1,0,11,,,,,,,,,,,,,,,,8,,51,72
13260,note_on,,1,0,15,,,,,,,,,,,,,,,,13,,51,72
13260,note_on,,1,0,7,,,,,,,,,,,,,,,,2,,51,72
13319,note_on,,59,0,9,,,,,,,,,,,,,,,,6,,67,0
13319,note_on,,59,0,16,,,,,,,,,,,,,,,,15,,56,0
13319,note_on,,0,0,16,,,,,,,,,,,,,,,,15,,51,0
13319,note_on,,59,0,7,,,,,,,,,,,,,,,,2,,51,0
13319,note_on,,59,0,13,,,,,,,,,,,,,,,,11,,67,0
13319,note_on,,59,0,11,,,,,,,,,,,,,,,,8,,51,0
13319,note_on,,59,0,12,,,,,,,,,,,,,,,,10,,75,0
13319,note_on,,59,0,15,,,,,,,,,,,,,,,,13,,51,0
13319,note_on,,59,0,6,,,,,,,,,,,,,,,,1,,67,0
13319,note_on,,59,0,8,,,,,,,,,,,,,,,,5,,75,0
13319,note_on,,59,0,5,,,,,,,,,,,,,,,,0,,75,0
13320,note_on,,1,0,5,,,,,,,,,,,,,,,,0,,73,72
13320,note_on,,1,0,11,,,,,,,,,,,,,,,,8,,53,72
13320,note_on,,1,0,12,,,,,,,,,,,,,,,,10,,73,72
13320,note_on,,0,0,16,,,,,,,,,,,,,,,,15,,56,72
13320,note_on,,1,0,16,,,,,,,,,,,,,,,,15,,53,72
13320,note_on,,1,0,7,,,,,,,,,,,,,,,,2,,53,72
13320,note_on,,1,0,15,,,,,,,,,,,,,,,,13,,53,72
13320,note_on,,1,0,9,,,,,,,,,,,,,,,,6,,68,72
13320,note_on,,1,0,6,,,,,,,,,,,,,,,,1,,68,72
13320,note_on,,1,0,13,,,,,,,,,,,,,,,,11,,68,72
13320,note_on,,1,0,8,,,,,,,,,,,,,,,,5,,73,72
13379,note_on,,0,0,16,,,,,,,,,,,,,,,,15,,56,0
13379,note_on,,59,0,16,,,,,,,,,,,,,,,,15,,53,0
13379,note_on,,59,0,11,,,,,,,,,,,,,,,,8,,53,0
13379,note_on,,179,0,10,,,,,,,,,,,,,,,,7,,61,0
13379,note_on,,59,0,8,,,,,,,,,,,,,,,,5,,73,0
13379,note_on,,59,0,13,,,,,,,,,,,,,,,,11,,68,0
13379,note_on,,59,0,15,,,,,,,,,,,,,,,,13,,53,0
13379,note_on,,59,0,7,,,,,,,,,,,,,,,,2,,53,0
13379,note_on,,59,0,12,,,,,,,,,,,,,,,,10,,73,0
13379,note_on,,179,0,14,,,,,,,,,,,,,,,,12,,61,0
13379,note_on,,59,0,5,,,,,,,,,,,,,,,,0,,73,0
13379,note_on,,59,0,6,,,,,,,,,,,,,,,,1,,68,0
13379,note_on,,59,0,9,,,,,,,,,,,,,,,,6,,68,0
13380,note_on,,1,0,9,,,,,,,,,,,,,,,,6,,70,72
13380,note_on,,1,0,10,,,,,,,,,,,,,,,,7,,58,72
13380,note_on,,1,0,6,,,,,,,,,,,,,,,,1,,70,72
13380,note_on,,1,0,16,,,,,,,,,,,,,,,,15,,55,72
13380,note_on,,1,0,14,,,,,,,,,,,,,,,,12,,58,72
13380,note_on,,1,0,15,,,,,,,,,,,,,,,,13,,55,72
13380,note_on,,1,0,7,,,,,,,,,,,,,,,,2,,55,72
13380,note_on,,1,0,13,,,,,,,,,,,,,,,,11,,70,72
13380,note_on,,1,0,11,,,,,,,,,,,,,,,,8,,55,72
13380,note_on,,0,0,16,,,,,,,,,,,,,,,,15,,58,72
13380,note_on,,1,0,8,,,,,,,,,,,,,,,,5,,75,72
13380,note_on,,1,0,5,,,,,,,,,,,,,,,,0,,75,72
13380,note_on,,1,0,12,,,,,,,,,,,,,,,,10,,75,72
13439,note_on,,0,0,16,,,,,,,,,,,,,,,,15,,68,0
13439,note_on,,59,0,15,,,,,,,,,,,,,,,,13,,55,0
13439,note_on,,59,0,13,,,,,,,,,,,,,,,,11,,70,0
13439,note_on,,59,0,8,,,,,,,,,,,,,,,,5,,75,0
13439,note_on,,59,0,6,,,,,,,,,,,,,,,,1,,70,0
13439,note_on,,59,0,9,,,,,,,,,,,,,,,,6,,70,0
13439,note_on,,59,0,5,,,,,,,,,,,,,,,,0,,75,0
13439,note_on,,59,0,10,,,,,,,,,,,,,,,,7,,58,0
13439,note_on,,0,0,16,,,,,,,,,,,,,,,,15,,55,0
13439,note_on,,59,0,14,,,,,,,,,,,,,,,,12,,58,0
13439,note_on,,59,0,7,,,,,,,,,,,,,,,,2,,55,0
13439,note_on,,0,0,16,,,,,,,,,,,,,,,,15,,73,0
13439,note_on,,59,0,16,,,,,,,,,,,,,,,,15,,77,0
13439,note_on,,0,0,16,,,,,,,,,,,,,,,,15,,58,0
13439,note_on,,59,0,12,,,,,,,,,,,,,,,,10,,75,0
13439,note_on,,59,0,11,,,,,,,,,,,,,,,,8,,55,0
13440,note_on,,0,0,16,,,,,,,,,,,,,,,,15,,75,72
13440,note_on,,1,0,15,,,,,,,,,,,,,,,,13,,56,72
13440,note_on,,1,0,7,,,,,,,,,,,,,,,,2,,56,72
13440,note_on,,1,0,13,,,,,,,,,,,,,,,,11,,63,72
13440,note_on,,1,0,8,,,,,,,,,,,,,,,,5,,72,72
13440,note_on,,1,0,16,,,,,,,,,,,,,,,,15,,72,72
13440,note_on,,1,0,6,,,,,,,,,,,,,,,,1,,63,72
13440,note_on,,1,0,5,,,,,,,,,,,,,,,,0,,72,72
13440,note_on,,1,0,9,,,,,,,,,,,,,,,,6,,68,72
13440,note_on,,1,0,12,,,,,,,,,,,,,,,,10,,72,72
13440,note_on,,0,0,16,,,,,,,,,,,,,,,,15,,56,72
13440,note_on,,1,0,10,,,,,,,,,,,,,,,,7,,63,72
13440,note_on,,1,0,14,,,,,,,,,,,,,,,,12,,63,72
13440,note_on,,0,0,16,,,,,,,,,,,,,,,,15,,68,72
13440,note_on,,0,0,16,,,,,,,,,,,,,,,,15,,60,72
13440,note_on,,1,0,11,,,,,,,,,,,,,,,,8,,56,72
13499,note_on,,59,0,5,,,,,,,,,,,,,,,,0,,72,0
13499,note_on,,59,0,14,,,,,,,,,,,,,,,,12,,63,0
13499,note_on,,59,0,10,,,,,,,,,,,,,,,,7,,63,0
13500,note_on,,1,0,5,,,,,,,,,,,,,,,,0,,72,72
13500,note_on,,1,0,10,,,,,,,,,,,,,,,,7,,60,72
13500,note_on,,1,0,14,,,,,,,,,,,,,,,,12,,60,72
13559,note_on,,119,0,12,,,,,,,,,,,,,,,,10,,72,0
13559,note_on,,59,0,10,,,,,,,,,,,,,,,,7,,60,0
13559,note_on,,119,0,13,,,,,,,,,,,,,,,,11,,63,0
13559,note_on,,59,0,14,,,,,,,,,,,,,,,,12,,60,0
13559,note_on,,59,0,5,,,,,,,,,,,,,,,,0,,72,0
13560,note_on,,1,0,14,,,,,,,,,,,,,,,,12,,61,72
13560,note_on,,1,0,13,,,,,,,,,,,,,,,,11,,75,72
13560,note_on,,1,0,12,,,,,,,,,,,,,,,,10,,84,72
13560,note_on,,1,0,5,,,,,,,,,,,,,,,,0,,73,72
13560,note_on,,1,0,10,,,,,,,,,,,,,,,,7,,61,72
13619,note_on,,59,0,5,,,,,,,,,,,,,,,,0,,73,0
13619,note_on,,59,0,12,,,,,,,,,,,,,,,,10,,84,0
13619,note_on,,59,0,10,,,,,,,,,,,,,,,,7,,61,0
13619,note_on,,59,0,13,,,,,,,,,,,,,,,,11,,75,0
13619,note_on,,59,0,14,,,,,,,,,,,,,,,,12,,61,0
13619,note_on,,179,0,6,,,,,,,,,,,,,,,,1,,63,0
13620,note_on,,1,0,6,,,,,,,,,,,,,,,,1,,73,72
13620,note_on,,1,0,5,,,,,,,,,,,,,,,,0,,75,72
13620,note_on,,1,0,13,,,,,,,,,,,,,,,,11,,73,72
13620,note_on,,1,0,14,,,,,,,,,,,,,,,,12,,63,72
13620,note_on,,1,0,10,,,,,,,,,,,,,,,,7,,63,72
13620,note_on,,1,0,12,,,,,,,,,,,,,,,,10,,82,72
13679,note_on,,0,0,16,,,,,,,,,,,,,,,,15,,75,0
13679,note_on,,59,0,10,,,,,,,,,,,,,,,,7,,63,0
13679,note_on,,59,0,6,,,,,,,,,,,,,,,,1,,73,0
13679,note_on,,59,0,13,,,,,,,,,,,,,,,,11,,73,0
13679,note_on,,59,0,5,,,,,,,,,,,,,,,,0,,75,0
13679,note_on,,239,0,16,,,,,,,,,,,,,,,,15,,72,0
13679,note_on,,0,0,16,,,,,,,,,,,,,,,,15,,68,0
13679,note_on,,0,0,16,,,,,,,,,,,,,,,,15,,60,0
13679,note_on,,59,0,12,,,,,,,,,,,,,,,,10,,82,0
13679,note_on,,59,0,14,,,,,,,,,,,,,,,,12,,63,0
13680,note_on,,1,0,12,,,,,,,,,,,,,,,,10,,80,72
13680,note_on,,1,0,5,,,,,,,,,,,,,,,,0,,77,72
13680,note_on,,1,0,14,,,,,,,,,,,,,,,,12,,65,72
13680,note_on,,1,0,13,,,,,,,,,,,,,,,,11,,72,72
13680,note_on,,0,0,16,,,,,,,,,,,,,,,,15,,72,72
13680,note_on,,0,0,16,,,,,,,,,,,,,,,,15,,68,72
13680,note_on,,1,0,16,,,,,,,,,,,,,,,,15,,65,72
13680,note_on,,1,0,10,,,,,,,,,,,,,,,,7,,65,72
13680,note_on,,1,0,6,,,,,,,,,,,,,,,,1,,72,72
13739,note_on,,59,0,13,,,,,,,,,,,,,,,,11,,72,0
13739,note_on,,59,0,12,,,,,,,,,,,,,,,,10,,80,0
13739,note_on,,59,0,6,,,,,,,,,,,,,,,,1,,72,0
13740,note_on,,1,0,12,,,,,,,,,,,,,,,,10,,79,72
13740,note_on,,1,0,13,,,,,,,,,,,,,,,,11,,70,72
13740,note_on,,1,0,6,,,,,,,,,,,,,,,,1,,70,72
13799,note_on,,359,0,9,,,,,,,,,,,,,,,,6,,68,0
13799,note_on,,59,0,12,,,,,,,,,,,,,,,,10,,79,0
13799,note_on,,119,0,14,,,,,,,,,,,,,,,,12,,65,0
13799,note_on,,359,0,8,,,,,,,,,,,,,,,,5,,72,0
13799,note_on,,119,0,10,,,,,,,,,,,,,,,,7,,65,0
13799,note_on,,59,0,6,,,,,,,,,,,,,,,,1,,70,0
13799,note_on,,59,0,13,,,,,,,,,,,,,,,,11,,70,0
13800,note_on,,1,0,13,,,,,,,,,,,,,,,,11,,68,72
13800,note_on,,1,0,12,,,,,,,,,,,,,,,,10,,77,72
13800,note_on,,1,0,14,,,,,,,,,,,,,,,,12,,56,72
13800,note_on,,1,0,9,,,,,,,,,,,,,,,,6,,65,72
13800,note_on,,1,0,8,,,,,,,,,,,,,,,,5,,68,72
13800,note_on,,1,0,10,,,,,,,,,,,,,,,,7,,56,72
13800,note_on,,1,0,6,,,,,,,,,,,,,,,,1,,68,72
13859,note_on,,59,0,8,,,,,,,,,,,,,,,,5,,68,0
13859,note_on,,59,0,6,,,,,,,,,,,,,,,,1,,68,0
13859,note_on,,59,0,9,,,,,,,,,,,,,,,,6,,65,0
13859,note_on,,59,0,10,,,,,,,,,,,,,,,,7,,56,0
13859,note_on,,59,0,12,,,,,,,,,,,,,,,,10,,77,0
13859,note_on,,59,0,14,,,,,,,,,,,,,,,,12,,56,0
13859,note_on,,59,0,13,,,,,,,,,,,,,,,,11,,68,0
13859,note_on,,179,0,5,,,,,,,,,,,,,,,,0,,77,0
13860,note_on,,1,0,13,,,,,,,,,,,,,,,,11,,67,72
13860,note_on,,1,0,10,,,,,,,,,,,,,,,,7,,56,72
13860,note_on,,1,0,6,,,,,,,,,,,,,,,,1,,67,72
13860,note_on,,1,0,14,,,,,,,,,,,,,,,,12,,56,72
13860,note_on,,1,0,9,,,,,,,,,,,,,,,,6,,63,72
13860,note_on,,1,0,5,,,,,,,,,,,,,,,,0,,75,72
13860,note_on,,1,0,12,,,,,,,,,,,,,,,,10,,75,72
13860,note_on,,1,0,8,,,,,,,,,,,,,,,,5,,67,72
13919,note_on,,59,0,13,,,,,,,,,,,,,,,,11,,67,0
13919,note_on,,59,0,10,,,,,,,,,,,,,,,,7,,56,0
13919,note_on,,59,0,5,,,,,,,,,,,,,,,,0,,75,0
13919,note_on,,59,0,9,,,,,,,,,,,,,,,,6,,63,0
13919,note_on,,59,0,14,,,,,,,,,,,,,,,,12,,56,0
13919,note_on,,59,0,6,,,,,,,,,,,,,,,,1,,67,0
13919,note_on,,59,0,8,,,,,,,,,,,,,,,,5,,67,0
13919,note_on,,239,0,16,,,,,,,,,,,,,,,,15,,65,0
13919,note_on,,0,0,16,,,,,,,,,,,,,,,,15,,68,0
13919,note_on,,0,0,16,,,,,,,,,,,,,,,,15,,72,0
13919,note_on,,59,0,12,,,,,,,,,,,,,,,,10,,75,0
13920,note_on,,1,0,8,,,,,,,,,,,,,,,,5,,65,72
13920,note_on,,1,0,13,,,,,,,,,,,,,,,,11,,65,72
13920,note_on,,1,0,9,,,,,,,,,,,,,,,,6,,62,72
13920,note_on,,0,0,16,,,,,,,,,,,,,,,,15,,58,72
13920,note_on,,1,0,12,,,,,,,,,,,,,,,,10,,74,72
13920,note_on,,1,0,5,,,,,,,,,,,,,,,,0,,74,72
13920,note_on,,0,0,16,,,,,,,,,,,,,,,,15,,65,72
13920,note_on,,0,0,16,,,,,,,,,,,,,,,,15,,70,72
13920,note_on,,1,0,10,,,,,,,,,,,,,,,,7,,58,72
13920,note_on,,0,0,16,,,,,,,,,,,,,,,,15,,74,72
13920,note_on,,1,0,14,,,,,,,,,,,,,,,,12,,58,72
13920,note_on,,1,0,6,,,,,,,,,,,,,,,,1,,65,72
13920,note_on,,1,0,16,,,,,,,,,,,,,,,,15,,77,72
13979,note_on,,59,0,9,,,,,,,,,,,,,,,,6,,62,0
13979,note_on,,59,0,6,,,,,,,,,,,,,,,,1,,65,0
13979,note_on,,59,0,12,,,,,,,,,,,,,,,,10,,74,0
13979,note_on,,59,0,8,,,,,,,,,,,,,,,,5,,65,0
13979,note_on,,59,0,13,,,,,,,,,,,,,,,,11,,65,0
13979,note_on,,59,0,5,,,,,,,,,,,,,,,,0,,74,0
13980,note_on,,1,0,6,,,,,,,,,,,,,,,,1,,74,72
13980,note_on,,1,0,8,,,,,,,,,,,,,,,,5,,74,72
13980,note_on,,1,0,5,,,,,,,,,,,,,,,,0,,70,72
13980,note_on,,1,0,9,,,,,,,,,,,,,,,,6,,58,72
13980,note_on,,1,0,12,,,,,,,,,,,,,,,,10,,70,72
13980,note_on,,1,0,13,,,,,,,,,,,,,,,,11,,62,72
14039,note_on,,59,0,12,,,,,,,,,,,,,,,,10,,70,0
14039,note_on,,119,0,14,,,,,,,,,,,,,,,,12,,58,0
14039,note_on,,59,0,9,,,,,,,,,,,,,,,,6,,58,0
14039,note_on,,59,0,8,,,,,,,,,,,,,,,,5,,74,0
14039,note_on,,59,0,6,,,,,,,,,,,,,,,,1,,74,0
14039,note_on,,59,0,5,,,,,,,,,,,,,,,,0,,70,0
14039,note_on,,59,0,13,,,,,,,,,,,,,,,,11,,62,0
14040,note_on,,1,0,13,,,,,,,,,,,,,,,,11,,63,72
14040,note_on,,1,0,5,,,,,,,,,,,,,,,,0,,72,72
14040,note_on,,1,0,9,,,,,,,,,,,,,,,,6,,60,72
14040,note_on,,1,0,8,,,,,,,,,,,,,,,,5,,75,72
14040,note_on,,1,0,12,,,,,,,,,,,,,,,,10,,72,72
14040,note_on,,1,0,6,,,,,,,,,,,,,,,,1,,75,72
14099,note_on,,59,0,6,,,,,,,,,,,,,,,,1,,75,0
14099,note_on,,59,0,12,,,,,,,,,,,,,,,,10,,72,0
14099,note_on,,59,0,9,,,,,,,,,,,,,,,,6,,60,0
14099,note_on,,59,0,13,,,,,,,,,,,,,,,,11,,63,0
14099,note_on,,59,0,5,,,,,,,,,,,,,,,,0,,72,0
14099,note_on,,59,0,8,,,,,,,,,,,,,,,,5,,75,0
14100,note_on,,1,0,5,,,,,,,,,,,,,,,,0,,74,72
14100,note_on,,1,0,9,,,,,,,,,,,,,,,,6,,62,72
14100,note_on,,1,0,13,,,,,,,,,,,,,,,,11,,65,72
14100,note_on,,1,0,8,,,,,,,,,,,,,,,,5,,77,72
14100,note_on,,1,0,6,,,,,,,,,,,,,,,,1,,77,72
14100,note_on,,1,0,12,,,,,,,,,,,,,,,,10,,74,72
14159,note_on,,59,0,5,,,,,,,,,,,,,,,,0,,74,0
14159,note_on,,59,0,9,,,,,,,,,,,,,,,,6,,62,0
14159,note_on,,0,0,16,,,,,,,,,,,,,,,,15,,74,0
14159,note_on,,0,0,16,,,,,,,,,,,,,,,,15,,70,0
14159,note_on,,0,0,16,,,,,,,,,,,,,,,,15,,65,0
14159,note_on,,0,0,16,,,,,,,,,,,,,,,,15,,58,0
14159,note_on,,239,0,10,,,,,,,,,,,,,,,,7,,58,0
14159,note_on,,59,0,12,,,,,,,,,,,,,,,,10,,74,0
14159,note_on,,0,0,16,,,,,,,,,,,,,,,,15,,77,0
14159,note_on,,239,0,16,,,,,,,,,,,,,,,,15,,56,0
14159,note_on,,719,0,7,,,,,,,,,,,,,,,,2,,56,0
14159,note_on,,59,0,6,,,,,,,,,,,,,,,,1,,77,0
14159,note_on,,59,0,13,,,,,,,,,,,,,,,,11,,65,0
14159,note_on,,719,0,15,,,,,,,,,,,,,,,,13,,56,0
14159,note_on,,719,0,11,,,,,,,,,,,,,,,,8,,56,0
14159,note_on,,59,0,8,,,,,,,,,,,,,,,,5,,77,0
14160,note_on,,1,0,16,,,,,,,,,,,,,,,,15,,55,72
14160,note_on,,1,0,6,,,,,,,,,,,,,,,,1,,70,72
14160,note_on,,0,0,16,,,,,,,,,,,,,,,,15,,67,72
14160,note_on,,0,0,16,,,,,,,,,,,,,,,,15,,58,72
14160,note_on,,1,0,8,,,,,,,,,,,,,,,,5,,70,72
14160,note_on,,1,0,5,,,,,,,,,,,,,,,,0,,75,72
14160,note_on,,0,0,16,,,,,,,,,,,,,,,,15,,75,72
14160,note_on,,1,0,9,,,,,,,,,,,,,,,,6,,63,72
14160,note_on,,1,0,13,,,,,,,,,,,,,,,,11,,58,72
14160,note_on,,1,0,15,,,,,,,,,,,,,,,,13,,55,72
14160,note_on,,1,0,7,,,,,,,,,,,,,,,,2,,55,72
14160,note_on,,1,0,12,,,,,,,,,,,,,,,,10,,75,72
14160,note_on,,1,0,11,,,,,,,,,,,,,,,,8,,55,72
14160,note_on,,0,0,16,,,,,,,,,,,,,,,,15,,70,72
14219,note_on,,59,0,5,,,,,,,,,,,,,,,,0,,75,0
14219,note_on,,59,0,9,,,,,,,,,,,,,,,,6,,63,0
14220,note_on,,1,0,9,,,,,,,,,,,,,,,,6,,65,72
14220,note_on,,1,0,5,,,,,,,,,,,,,,,,0,,77,72
14279,note_on,,119,0,13,,,,,,,,,,,,,,,,11,,58,0
14279,note_on,,119,0,12,,,,,,,,,,,,,,,,10,,75,0
14279,note_on,,59,0,5,,,,,,,,,,,,,,,,0,,77,0
14279,note_on,,59,0,9,,,,,,,,,,,,,,,,6,,65,0
14279,note_on,,119,0,8,,,,,,,,,,,,,,,,5,,70,0
14279,note_on,,119,0,6,,,,,,,,,,,,,,,,1,,70,0
14280,note_on,,241,0,14,,,,,,,,,,,,,,,,12,,70,72
14280,note_on,,1,0,12,,,,,,,,,,,,,,,,10,,79,72
14280,note_on,,121,0,10,,,,,,,,,,,,,,,,7,,58,72
14280,note_on,,1,0,8,,,,,,,,,,,,,,,,5,,75,72
14280,note_on,,1,0,9,,,,,,,,,,,,,,,,6,,67,72
14280,note_on,,1,0,5,,,,,,,,,,,,,,,,0,,79,72
14280,note_on,,1,0,13,,,,,,,,,,,,,,,,11,,75,72
14280,note_on,,1,0,6,,,,,,,,,,,,,,,,1,,75,72
14339,note_on,,179,0,16,,,,,,,,,,,,,,,,15,,55,0
14339,note_on,,59,0,9,,,,,,,,,,,,,,,,6,,67,0
14339,note_on,,179,0,11,,,,,,,,,,,,,,,,8,,55,0
14339,note_on,,179,0,15,,,,,,,,,,,,,,,,13,,55,0
14339,note_on,,0,0,16,,,,,,,,,,,,,,,,15,,58,0
14339,note_on,,59,0,12,,,,,,,,,,,,,,,,10,,79,0
14339,note_on,,59,0,6,,,,,,,,,,,,,,,,1,,75,0
14339,note_on,,59,0,8,,,,,,,,,,,,,,,,5,,75,0
14339,note_on,,59,0,10,,,,,,,,,,,,,,,,7,,58,0
14339,note_on,,59,0,5,,,,,,,,,,,,,,,,0,,79,0
14339,note_on,,179,0,7,,,,,,,,,,,,,,,,2,,55,0
14339,note_on,,59,0,13,,,,,,,,,,,,,,,,11,,75,0
14339,note_on,,59,0,14,,,,,,,,,,,,,,,,12,,70,0
14340,note_on,,1,0,12,,,,,,,,,,,,,,,,10,,80,72
14340,note_on,,1,0,15,,,,,,,,,,,,,,,,13,,53,72
14340,note_on,,1,0,7,,,,,,,,,,,,,,,,2,,53,72
14340,note_on,,1,0,9,,,,,,,,,,,,,,,,6,,68,72
14340,note_on,,1,0,6,,,,,,,,,,,,,,,,1,,74,72
14340,note_on,,0,0,16,,,,,,,,,,,,,,,,15,,56,72
14340,note_on,,1,0,16,,,,,,,,,,,,,,,,15,,53,72
14340,note_on,,1,0,14,,,,,,,,,,,,,,,,12,,68,72
14340,note_on,,1,0,11,,,,,,,,,,,,,,,,8,,53,72
14340,note_on,,1,0,8,,,,,,,,,,,,,,,,5,,74,72
14340,note_on,,1,0,10,,,,,,,,,,,,,,,,7,,56,72
14340,note_on,,1,0,5,,,,,,,,,,,,,,,,0,,80,72
14340,note_on,,1,0,13,,,,,,,,,,,,,,,,11,,74,72
14399,note_on,,0,0,16,,,,,,,,,,,,,,,,15,,56,0
14399,note_on,,59,0,15,,,,,,,,,,,,,,,,13,,53,0
14399,note_on,,59,0,11,,,,,,,,,,,,,,,,8,,53,0
14399,note_on,,59,0,6,,,,,,,,,,,,,,,,1,,74,0
14399,note_on,,0,0,16,,,,,,,,,,,,,,,,15,,53,0
14399,note_on,,59,0,13,,,,,,,,,,,,,,,,11,,74,0
14399,note_on,,0,0,16,,,,,,,,,,,,,,,,15,,70,0
14399,note_on,,59,0,8,,,,,,,,,,,,,,,,5,,74,0
14399,note_on,,59,0,10,,,,,,,,,,,,,,,,7,,56,0
14399,note_on,,59,0,14,,,,,,,,,,,,,,,,12,,68,0
14399,note_on,,0,0,16,,,,,,,,,,,,,,,,15,,67,0
14399,note_on,,59,0,5,,,,,,,,,,,,,,,,0,,80,0
14399,note_on,,59,0,12,,,,,,,,,,,,,,,,10,,80,0
14399,note_on,,59,0,7,,,,,,,,,,,,,,,,2,,53,0
14399,note_on,,59,0,16,,,,,,,,,,,,,,,,15,,75,0
14399,note_on,,59,0,9,,,,,,,,,,,,,,,,6,,68,0
14400,note_on,,1,0,6,,,,,,,,,,,,,,,,1,,75,72
14400,note_on,,1,0,13,,,,,,,,,,,,,,,,11,,75,72
14400,note_on,,1,0,12,,,,,,,,,,,,,,,,10,,82,72
14400,note_on,,1,0,16,,,,,,,,,,,,,,,,15,,55,72
14400,note_on,,1,0,11,,,,,,,,,,,,,,,,8,,55,72
14400,note_on,,1,0,10,,,,,,,,,,,,,,,,7,,55,72
14400,note_on,,0,0,16,,,,,,,,,,,,,,,,15,,58,72
14400,note_on,,1,0,5,,,,,,,,,,,,,,,,0,,82,72
14400,note_on,,1,0,15,,,,,,,,,,,,,,,,13,,55,72
14400,note_on,,0,0,16,,,,,,,,,,,,,,,,15,,70,72
14400,note_on,,0,0,16,,,,,,,,,,,,,,,,15,,63,72
14400,note_on,,1,0,14,,,,,,,,,,,,,,,,12,,67,72
14400,note_on,,1,0,9,,,,,,,,,,,,,,,,6,,70,72
14400,note_on,,1,0,7,,,,,,,,,,,,,,,,2,,55,72
14400,note_on,,1,0,8,,,,,,,,,,,,,,,,5,,75,72
14459,note_on,,59,0,10,,,,,,,,,,,,,,,,7,,55,0
14459,note_on,,59,0,7,,,,,,,,,,,,,,,,2,,55,0
14459,note_on,,59,0,15,,,,,,,,,,,,,,,,13,,55,0
14459,note_on,,59,0,14,,,,,,,,,,,,,,,,12,,67,0
14459,note_on,,59,0,11,,,,,,,,,,,,,,,,8,,55,0
14459,note_on,,59,0,16,,,,,,,,,,,,,,,,15,,55,0
14459,note_on,,59,0,6,,,,,,,,,,,,,,,,1,,75,0
14460,note_on,,1,0,16,,,,,,,,,,,,,,,,15,,51,72
14460,note_on,,1,0,10,,,,,,,,,,,,,,,,7,,55,72
14460,note_on,,1,0,6,,,,,,,,,,,,,,,,1,,67,72
14460,note_on,,1,0,15,,,,,,,,,,,,,,,,13,,51,72
14460,note_on,,1,0,7,,,,,,,,,,,,,,,,2,,51,72
14460,note_on,,1,0,11,,,,,,,,,,,,,,,,8,,51,72
14460,note_on,,1,0,14,,,,,,,,,,,,,,,,12,,67,72
14519,note_on,,59,0,6,,,,,,,,,,,,,,,,1,,67,0
14519,note_on,,59,0,10,,,,,,,,,,,,,,,,7,,55,0
14519,note_on,,59,0,15,,,,,,,,,,,,,,,,13,,51,0
14519,note_on,,59,0,16,,,,,,,,,,,,,,,,15,,51,0
14519,note_on,,59,0,11,,,,,,,,,,,,,,,,8,,51,0
14519,note_on,,119,0,9,,,,,,,,,,,,,,,,6,,70,0
14519,note_on,,59,0,14,,,,,,,,,,,,,,,,12,,67,0
14519,note_on,,119,0,5,,,,,,,,,,,,,,,,0,,82,0
14519,note_on,,119,0,12,,,,,,,,,,,,,,,,10,,82,0
14519,note_on,,59,0,7,,,,,,,,,,,,,,,,2,,51,0
14520,note_on,,1,0,12,,,,,,,,,,,,,,,,10,,80,72
14520,note_on,,1,0,7,,,,,,,,,,,,,,,,2,,53,72
14520,note_on,,1,0,14,,,,,,,,,,,,,,,,12,,68,72
14520,note_on,,1,0,10,,,,,,,,,,,,,,,,7,,56,72
14520,note_on,,1,0,5,,,,,,,,,,,,,,,,0,,80,72
14520,note_on,,1,0,9,,,,,,,,,,,,,,,,6,,68,72
14520,note_on,,1,0,15,,,,,,,,,,,,,,,,13,,53,72
14520,note_on,,1,0,11,,,,,,,,,,,,,,,,8,,53,72
14520,note_on,,1,0,16,,,,,,,,,,,,,,,,15,,53,72
14520,note_on,,1,0,6,,,,,,,,,,,,,,,,1,,68,72
14579,note_on,,59,0,9,,,,,,,,,,,,,,,,6,,68,0
14579,note_on,,59,0,16,,,,,,,,,,,,,,,,15,,53,0
14579,note_on,,59,0,10,,,,,,,,,,,,,,,,7,,56,0
14579,note_on,,179,0,13,,,,,,,,,,,,,,,,11,,75,0
14579,note_on,,59,0,12,,,,,,,,,,,,,,,,10,,80,0
14579,note_on,,59,0,14,,,,,,,,,,,,,,,,12,,68,0
14579,note_on,,59,0,11,,,,,,,,,,,,,,,,8,,53,0
14579,note_on,,59,0,6,,,,,,,,,,,,,,,,1,,68,0
14579,note_on,,59,0,15,,,,,,,,,,,,,,,,13,,53,0
14579,note_on,,59,0,7,,,,,,,,,,,,,,,,2,,53,0
14579,note_on,,59,0,5,,,,,,,,,,,,,,,,0,,80,0
14580,note_on,,1,0,11,,,,,,,,,,,,,,,,8,,55,72
14580,note_on,,1,0,15,,,,,,,,,,,,,,,,13,,55,72
14580,note_on,,1,0,6,,,,,,,,,,,,,,,,1,,70,72
14580,note_on,,1,0,9,,,,,,,,,,,,,,,,6,,67,72
14580,note_on,,1,0,5,,,,,,,,,,,,,,,,0,,79,72
14580,note_on,,1,0,14,,,,,,,,,,,,,,,,12,,70,72
14580,note_on,,1,0,10,,,,,,,,,,,,,,,,7,,58,72
14580,note_on,,1,0,13,,,,,,,,,,,,,,,,11,,63,72
14580,note_on,,1,0,12,,,,,,,,,,,,,,,,10,,79,72
14580,note_on,,1,0,7,,,,,,,,,,,,,,,,2,,55,72
14580,note_on,,1,0,16,,,,,,,,,,,,,,,,15,,55,72
14639,note_on,,0,0,16,,,,,,,,,,,,,,,,15,,63,0
14639,note_on,,59,0,10,,,,,,,,,,,,,,,,7,,58,0
14639,note_on,,59,0,14,,,,,,,,,,,,,,,,12,,70,0
14639,note_on,,59,0,6,,,,,,,,,,,,,,,,1,,70,0
14639,note_on,,239,0,8,,,,,,,,,,,,,,,,5,,75,0
14639,note_on,,0,0,16,,,,,,,,,,,,,,,,15,,55,0
14639,note_on,,59,0,16,,,,,,,,,,,,,,,,15,,70,0
14639,note_on,,59,0,7,,,,,,,,,,,,,,,,2,,55,0
14639,note_on,,0,0,16,,,,,,,,,,,,,,,,15,,58,0
14639,note_on,,59,0,5,,,,,,,,,,,,,,,,0,,79,0
14639,note_on,,59,0,9,,,,,,,,,,,,,,,,6,,67,0
14639,note_on,,59,0,13,,,,,,,,,,,,,,,,11,,63,0
14639,note_on,,59,0,12,,,,,,,,,,,,,,,,10,,79,0
14639,note_on,,59,0,11,,,,,,,,,,,,,,,,8,,55,0
14639,note_on,,59,0,15,,,,,,,,,,,,,,,,13,,55,0
14640,note_on,,1,0,7,,,,,,,,,,,,,,,,2,,56,72
14640,note_on,,1,0,5,,,,,,,,,,,,,,,,0,,77,72
14640,note_on,,1,0,10,,,,,,,,,,,,,,,,7,,60,72
14640,note_on,,1,0,13,,,,,,,,,,,,,,,,11,,65,72
14640,note_on,,1,0,12,,,,,,,,,,,,,,,,10,,77,72
14640,note_on,,1,0,14,,,,,,,,,,,,,,,,12,,60,72
14640,note_on,,0,0,16,,,,,,,,,,,,,,,,15,,60,72
14640,note_on,,1,0,16,,,,,,,,,,,,,,,,15,,56,72
14640,note_on,,1,0,8,,,,,,,,,,,,,,,,5,,77,72
14640,note_on,,1,0,6,,,,,,,,,,,,,,,,1,,68,72
14640,note_on,,1,0,9,,,,,,,,,,,,,,,,6,,65,72
14640,note_on,,1,0,11,,,,,,,,,,,,,,,,8,,56,72
14640,note_on,,0,0,16,,,,,,,,,,,,,,,,15,,65,72
14640,note_on,,0,0,16,,,,,,,,,,,,,,,,15,,68,72
14640,note_on,,1,0,15,,,,,,,,,,,,,,,,13,,56,72
14699,note_on,,59,0,14,,,,,,,,,,,,,,,,12,,60,0
14699,note_on,,59,0,16,,,,,,,,,,,,,,,,15,,56,0
14699,note_on,,59,0,7,,,,,,,,,,,,,,,,2,,56,0
14699,note_on,,59,0,15,,,,,,,,,,,,,,,,13,,56,0
14699,note_on,,59,0,11,,,,,,,,,,,,,,,,8,,56,0
14699,note_on,,59,0,5,,,,,,,,,,,,,,,,0,,77,0
14699,note_on,,59,0,9,,,,,,,,,,,,,,,,6,,65,0
14699,note_on,,59,0,12,,,,,,,,,,,,,,,,10,,77,0
14700,note_on,,1,0,14,,,,,,,,,,,,,,,,12,,72,72
14700,note_on,,1,0,11,,,,,,,,,,,,,,,,8,,53,72
14700,note_on,,1,0,16,,,,,,,,,,,,,,,,15,,53,72
14700,note_on,,1,0,5,,,,,,,,,,,,,,,,0,,75,72
14700,note_on,,1,0,15,,,,,,,,,,,,,,,,13,,53,72
14700,note_on,,1,0,7,,,,,,,,,,,,,,,,2,,53,72
14700,note_on,,1,0,9,,,,,,,,,,,,,,,,6,,63,72
14700,note_on,,1,0,12,,,,,,,,,,,,,,,,10,,75,72
14759,note_on,,59,0,7,,,,,,,,,,,,,,,,2,,53,0
14759,note_on,,59,0,9,,,,,,,,,,,,,,,,6,,63,0
14759,note_on,,59,0,11,,,,,,,,,,,,,,,,8,,53,0
14759,note_on,,59,0,14,,,,,,,,,,,,,,,,12,,72,0
14759,note_on,,59,0,15,,,,,,,,,,,,,,,,13,,53,0
14759,note_on,,59,0,12,,,,,,,,,,,,,,,,10,,75,0
14759,note_on,,59,0,16,,,,,,,,,,,,,,,,15,,53,0
14759,note_on,,119,0,10,,,,,,,,,,,,,,,,7,,60,0
14759,note_on,,59,0,5,,,,,,,,,,,,,,,,0,,75,0
14760,note_on,,1,0,15,,,,,,,,,,,,,,,,13,,55,72
14760,note_on,,1,0,11,,,,,,,,,,,,,,,,8,,55,72
14760,note_on,,1,0,10,,,,,,,,,,,,,,,,7,,58,72
14760,note_on,,1,0,5,,,,,,,,,,,,,,,,0,,74,72
14760,note_on,,1,0,16,,,,,,,,,,,,,,,,15,,55,72
14760,note_on,,1,0,9,,,,,,,,,,,,,,,,6,,62,72
14760,note_on,,1,0,14,,,,,,,,,,,,,,,,12,,70,72
14760,note_on,,1,0,7,,,,,,,,,,,,,,,,2,,55,72
14760,note_on,,1,0,12,,,,,,,,,,,,,,,,10,,74,72
14819,note_on,,59,0,15,,,,,,,,,,,,,,,,13,,55,0
14819,note_on,,59,0,5,,,,,,,,,,,,,,,,0,,74,0
14819,note_on,,59,0,9,,,,,,,,,,,,,,,,6,,62,0
14819,note_on,,179,0,13,,,,,,,,,,,,,,,,11,,65,0
14819,note_on,,59,0,11,,,,,,,,,,,,,,,,8,,55,0
14819,note_on,,59,0,12,,,,,,,,,,,,,,,,10,,74,0
14819,note_on,,59,0,14,,,,,,,,,,,,,,,,12,,70,0
14819,note_on,,179,0,6,,,,,,,,,,,,,,,,1,,68,0
14819,note_on,,59,0,16,,,,,,,,,,,,,,,,15,,55,0
14819,note_on,,59,0,10,,,,,,,,,,,,,,,,7,,58,0
14819,note_on,,179,0,8,,,,,,,,,,,,,,,,5,,77,0
14819,note_on,,59,0,7,,,,,,,,,,,,,,,,2,,55,0
14820,note_on,,1,0,11,,,,,,,,,,,,,,,,8,,56,72
14820,note_on,,1,0,14,,,,,,,,,,,,,,,,12,,65,72
14820,note_on,,1,0,5,,,,,,,,,,,,,,,,0,,72,72
14820,note_on,,1,0,6,,,,,,,,,,,,,,,,1,,67,72
14820,note_on,,1,0,10,,,,,,,,,,,,,,,,7,,65,72
14820,note_on,,1,0,15,,,,,,,,,,,,,,,,13,,56,72
14820,note_on,,1,0,13,,,,,,,,,,,,,,,,11,,63,72
14820,note_on,,1,0,8,,,,,,,,,,,,,,,,5,,75,72
14820,note_on,,1,0,7,,,,,,,,,,,,,,,,2,,56,72
14820,note_on,,1,0,9,,,,,,,,,,,,,,,,6,,60,72
14820,note_on,,1,0,16,,,,,,,,,,,,,,,,15,,56,72
14820,note_on,,1,0,12,,,,,,,,,,,,,,,,10,,72,72
14849,note_on,,29,0,6,,,,,,,,,,,,,,,,1,,67,0
14850,note_on,,1,0,6,,,,,,,,,,,,,,,,1,,65,72
14879,note_on,,0,0,16,,,,,,,,,,,,,,,,15,,56,0
14879,note_on,,0,0,16,,,,,,,,,,,,,,,,15,,65,0
14879,note_on,,0,0,16,,,,,,,,,,,,,,,,15,,68,0
14879,note_on,,59,0,8,,,,,,,,,,,,,,,,5,,75,0
14879,note_on,,59,0,16,,,,,,,,,,,,,,,,15,,60,0
14879,note_on,,59,0,10,,,,,,,,,,,,,,,,7,,65,0
14879,note_on,,29,0,6,,,,,,,,,,,,,,,,1,,65,0
14879,note_on,,59,0,12,,,,,,,,,,,,,,,,10,,72,0
14879,note_on,,59,0,13,,,,,,,,,,,,,,,,11,,63,0
14879,note_on,,59,0,7,,,,,,,,,,,,,,,,2,,56,0
14879,note_on,,59,0,5,,,,,,,,,,,,,,,,0,,72,0
14879,note_on,,59,0,15,,,,,,,,,,,,,,,,13,,56,0
14879,note_on,,59,0,11,,,,,,,,,,,,,,,,8,,56,0
14879,note_on,,59,0,14,,,,,,,,,,,,,,,,12,,65,0
14879,note_on,,59,0,9,,,,,,,,,,,,,,,,6,,60,0
14880,note_on,,1,0,8,,,,,,,,,,,,,,,,5,,74,72
14880,note_on,,1,0,7,,,,,,,,,,,,,,,,2,,58,72
14880,note_on,,1,0,5,,,,,,,,,,,,,,,,0,,70,72
14880,note_on,,1,0,6,,,,,,,,,,,,,,,,1,,65,72
14880,note_on,,1,0,10,,,,,,,,,,,,,,,,7,,65,72
14880,note_on,,1,0,13,,,,,,,,,,,,,,,,11,,62,72
14880,note_on,,1,0,11,,,,,,,,,,,,,,,,8,,58,72
14880,note_on,,1,0,14,,,,,,,,,,,,,,,,12,,65,72
14880,note_on,,1,0,12,,,,,,,,,,,,,,,,10,,70,72
14880,note_on,,1,0,9,,,,,,,,,,,,,,,,6,,58,72
14880,note_on,,1,0,15,,,,,,,,,,,,,,,,13,,58,72
14880,note_on,,1,0,16,,,,,,,,,,,,,,,,15,,58,72
14880,note_on,,0,0,16,,,,,,,,,,,,,,,,15,,62,72
14880,note_on,,0,0,16,,,,,,,,,,,,,,,,15,,65,72
14939,note_on,,59,0,13,,,,,,,,,,,,,,,,11,,62,0
14939,note_on,,59,0,8,,,,,,,,,,,,,,,,5,,74,0
14939,note_on,,59,0,5,,,,,,,,,,,,,,,,0,,70,0
14939,note_on,,59,0,6,,,,,,,,,,,,,,,,1,,65,0
14940,note_on,,1,0,13,,,,,,,,,,,,,,,,11,,74,72
14940,note_on,,1,0,5,,,,,,,,,,,,,,,,0,,74,72
14940,note_on,,1,0,6,,,,,,,,,,,,,,,,1,,77,72
14940,note_on,,1,0,8,,,,,,,,,,,,,,,,5,,77,72
14999,note_on,,119,0,12,,,,,,,,,,,,,,,,10,,70,0
14999,note_on,,59,0,6,,,,,,,,,,,,,,,,1,,77,0
14999,note_on,,119,0,16,,,,,,,,,,,,,,,,15,,58,0
14999,note_on,,119,0,15,,,,,,,,,,,,,,,,13,,58,0
14999,note_on,,59,0,5,,,,,,,,,,,,,,,,0,,74,0
14999,note_on,,59,0,8,,,,,,,,,,,,,,,,5,,77,0
14999,note_on,,0,0,16,,,,,,,,,,,,,,,,15,,62,0
14999,note_on,,0,0,16,,,,,,,,,,,,,,,,15,,65,0
14999,note_on,,119,0,7,,,,,,,,,,,,,,,,2,,58,0
14999,note_on,,59,0,13,,,,,,,,,,,,,,,,11,,74,0
15000,note_on,,1,0,5,,,,,,,,,,,,,,,,0,,77,72
15000,note_on,,1,0,7,,,,,,,,,,,,,,,,2,,46,72
15000,note_on,,1,0,15,,,,,,,,,,,,,,,,13,,46,72
15000,note_on,,1,0,13,,,,,,,,,,,,,,,,11,,77,72
15000,note_on,,1,0,12,,,,,,,,,,,,,,,,10,,68,72
15000,note_on,,1,0,8,,,,,,,,,,,,,,,,5,,80,72
15000,note_on,,1,0,6,,,,,,,,,,,,,,,,1,,80,72
15000,note_on,,0,0,16,,,,,,,,,,,,,,,,15,,58,72
15000,note_on,,0,0,16,,,,,,,,,,,,,,,,15,,65,72
15000,note_on,,0,0,16,,,,,,,,,,,,,,,,15,,70,72
15000,note_on,,0,0,16,,,,,,,,,,,,,,,,15,,74,72
15000,note_on,,1,0,16,,,,,,,,,,,,,,,,15,,46,72
15059,note_on,,59,0,8,,,,,,,,,,,,,,,,5,,80,0
15059,note_on,,59,0,5,,,,,,,,,,,,,,,,0,,77,0
15059,note_on,,179,0,10,,,,,,,,,,,,,,,,7,,65,0
15059,note_on,,59,0,6,,,,,,,,,,,,,,,,1,,80,0
15059,note_on,,179,0,14,,,,,,,,,,,,,,,,12,,65,0
15059,note_on,,59,0,13,,,,,,,,,,,,,,,,11,,77,0
15059,note_on,,59,0,12,,,,,,,,,,,,,,,,10,,68,0
15060,note_on,,1,0,5,,,,,,,,,,,,,,,,0,,75,72
15060,note_on,,1,0,8,,,,,,,,,,,,,,,,5,,79,72
15060,note_on,,1,0,6,,,,,,,,,,,,,,,,1,,79,72
15060,note_on,,1,0,13,,,,,,,,,,,,,,,,11,,75,72
15060,note_on,,1,0,10,,,,,,,,,,,,,,,,7,,63,72
15060,note_on,,1,0,12,,,,,,,,,,,,,,,,10,,67,72
15060,note_on,,1,0,14,,,,,,,,,,,,,,,,12,,58,72
15119,note_on,,59,0,12,,,,,,,,,,,,,,,,10,,67,0
15119,note_on,,59,0,10,,,,,,,,,,,,,,,,7,,63,0
15119,note_on,,59,0,5,,,,,,,,,,,,,,,,0,,75,0
15119,note_on,,239,0,9,,,,,,,,,,,,,,,,6,,58,0
15119,note_on,,59,0,14,,,,,,,,,,,,,,,,12,,58,0
15119,note_on,,59,0,13,,,,,,,,,,,,,,,,11,,75,0
15119,note_on,,59,0,8,,,,,,,,,,,,,,,,5,,79,0
15119,note_on,,59,0,6,,,,,,,,,,,,,,,,1,,79,0
15120,note_on,,1,0,6,,,,,,,,,,,,,,,,1,,77,72
15120,note_on,,1,0,14,,,,,,,,,,,,,,,,12,,70,72
15120,note_on,,1,0,10,,,,,,,,,,,,,,,,7,,62,72
15120,note_on,,1,0,13,,,,,,,,,,,,,,,,11,,74,72
15120,note_on,,1,0,5,,,,,,,,,,,,,,,,0,,74,72
15120,note_on,,1,0,12,,,,,,,,,,,,,,,,10,,65,72
15120,note_on,,1,0,8,,,,,,,,,,,,,,,,5,,77,72
15179,note_on,,59,0,10,,,,,,,,,,,,,,,,7,,62,0
15179,note_on,,59,0,8,,,,,,,,,,,,,,,,5,,77,0
15179,note_on,,59,0,5,,,,,,,,,,,,,,,,0,,74,0
15179,note_on,,59,0,12,,,,,,,,,,,,,,,,10,,65,0
15179,note_on,,59,0,13,,,,,,,,,,,,,,,,11,,74,0
15179,note_on,,59,0,6,,,,,,,,,,,,,,,,1,,77,0
15180,note_on,,1,0,13,,,,,,,,,,,,,,,,11,,72,72
15180,note_on,,1,0,12,,,,,,,,,,,,,,,,10,,63,72
15180,note_on,,1,0,5,,,,,,,,,,,,,,,,0,,72,72
15180,note_on,,1,0,8,,,,,,,,,,,,,,,,5,,75,72
15180,note_on,,1,0,10,,,,,,,,,,,,,,,,7,,60,72
15180,note_on,,1,0,6,,,,,,,,,,,,,,,,1,,75,72
15239,note_on,,59,0,5,,,,,,,,,,,,,,,,0,,72,0
15239,note_on,,0,0,16,,,,,,,,,,,,,,,,15,,65,0
15239,note_on,,59,0,13,,,,,,,,,,,,,,,,11,,72,0
15239,note_on,,59,0,12,,,,,,,,,,,,,,,,10,,63,0
15239,note_on,,359,0,11,,,,,,,,,,,,,,,,8,,58,0
15239,note_on,,0,0,16,,,,,,,,,,,,,,,,15,,58,0
15239,note_on,,59,0,10,,,,,,,,,,,,,,,,7,,60,0
15239,note_on,,119,0,14,,,,,,,,,,,,,,,,12,,70,0
15239,note_on,,239,0,7,,,,,,,,,,,,,,,,2,,46,0
15239,note_on,,239,0,16,,,,,,,,,,,,,,,,15,,46,0
15239,note_on,,239,0,15,,,,,,,,,,,,,,,,13,,46,0
15239,note_on,,0,0,16,,,,,,,,,,,,,,,,15,,70,0
15239,note_on,,0,0,16,,,,,,,,,,,,,,,,15,,74,0
15239,note_on,,59,0,8,,,,,,,,,,,,,,,,5,,75,0
15239,note_on,,59,0,6,,,,,,,,,,,,,,,,1,,75,0
15240,note_on,,0,0,16,,,,,,,,,,,,,,,,15,,70,72
15240,note_on,,121,0,9,,,,,,,,,,,,,,,,6,,65,72
15240,note_on,,1,0,14,,,,,,,,,,,,,,,,12,,65,72
15240,note_on,,1,0,11,,,,,,,,,,,,,,,,8,,58,72
15240,note_on,,1,0,12,,,,,,,,,,,,,,,,10,,62,72
15240,note_on,,1,0,16,,,,,,,,,,,,,,,,15,,58,72
15240,note_on,,1,0,8,,,,,,,,,,,,,,,,5,,74,72
15240,note_on,,1,0,6,,,,,,,,,,,,,,,,1,,74,72
15240,note_on,,1,0,13,,,,,,,,,,,,,,,,11,,70,72
15240,note_on,,1,0,15,,,,,,,,,,,,,,,,13,,58,72
15240,note_on,,1,0,5,,,,,,,,,,,,,,,,0,,70,72
15240,note_on,,0,0,16,,,,,,,,,,,,,,,,15,,62,72
15240,note_on,,0,0,16,,,,,,,,,,,,,,,,15,,65,72
15240,note_on,,1,0,10,,,,,,,,,,,,,,,,7,,58,72
15240,note_on,,1,0,7,,,,,,,,,,,,,,,,2,,58,72
15299,note_on,,59,0,8,,,,,,,,,,,,,,,,5,,74,0
15299,note_on,,59,0,12,,,,,,,,,,,,,,,,10,,62,0
15299,note_on,,59,0,11,,,,,,,,,,,,,,,,8,,58,0
15299,note_on,,59,0,5,,,,,,,,,,,,,,,,0,,70,0
15299,note_on,,59,0,15,,,,,,,,,,,,,,,,13,,58,0
15299,note_on,,59,0,9,,,,,,,,,,,,,,,,6,,65,0
15299,note_on,,59,0,7,,,,,,,,,,,,,,,,2,,58,0
15299,note_on,,59,0,13,,,,,,,,,,,,,,,,11,,70,0
15299,note_on,,59,0,14,,,,,,,,,,,,,,,,12,,65,0
15299,note_on,,59,0,6,,,,,,,,,,,,,,,,1,,74,0
15299,note_on,,59,0,10,,,,,,,,,,,,,,,,7,,58,0
15300,note_on,,1,0,7,,,,,,,,,,,,,,,,2,,56,72
15300,note_on,,1,0,9,,,,,,,,,,,,,,,,6,,65,72
15300,note_on,,1,0,11,,,,,,,,,,,,,,,,8,,56,72
15300,note_on,,1,0,14,,,,,,,,,,,,,,,,12,,65,72
15300,note_on,,1,0,5,,,,,,,,,,,,,,,,0,,74,72
15300,note_on,,1,0,8,,,,,,,,,,,,,,,,5,,72,72
15300,note_on,,1,0,13,,,,,,,,,,,,,,,,11,,74,72
15300,note_on,,1,0,15,,,,,,,,,,,,,,,,13,,56,72
15300,note_on,,60,0,16,,,,,,,,,,,,,,,,15,,56,72
15300,note_on,,1,0,10,,,,,,,,,,,,,,,,7,,62,72
15300,note_on,,1,0,12,,,,,,,,,,,,,,,,10,,60,72
15300,note_on,,1,0,6,,,,,,,,,,,,,,,,1,,77,72
15359,note_on,,59,0,13,,,,,,,,,,,,,,,,11,,74,0
15359,note_on,,59,0,12,,,,,,,,,,,,,,,,10,,60,0
15359,note_on,,59,0,8,,,,,,,,,,,,,,,,5,,72,0
15359,note_on,,59,0,14,,,,,,,,,,,,,,,,12,,65,0
15359,note_on,,59,0,6,,,,,,,,,,,,,,,,1,,77,0
15359,note_on,,0,0,16,,,,,,,,,,,,,,,,15,,56,0
15359,note_on,,59,0,11,,,,,,,,,,,,,,,,8,,56,0
15359,note_on,,59,0,15,,,,,,,,,,,,,,,,13,,56,0
15359,note_on,,59,0,9,,,,,,,,,,,,,,,,6,,65,0
15359,note_on,,0,0,16,,,,,,,,,,,,,,,,15,,65,0
15359,note_on,,0,0,16,,,,,,,,,,,,,,,,15,,62,0
15359,note_on,,59,0,5,,,,,,,,,,,,,,,,0,,74,0
15359,note_on,,59,0,10,,,,,,,,,,,,,,,,7,,62,0
15359,note_on,,59,0,16,,,,,,,,,,,,,,,,15,,58,0
15359,note_on,,59,0,7,,,,,,,,,,,,,,,,2,,56,0
15359,note_on,,0,0,16,,,,,,,,,,,,,,,,15,,70,0
15360,note_on,,1,0,10,,,,,,,,,,,,,,,,7,,63,72
15360,note_on,,1,0,8,,,,,,,,,,,,,,,,5,,70,72
15360,note_on,,0,0,16,,,,,,,,,,,,,,,,15,,58,72
15360,note_on,,1,0,14,,,,,,,,,,,,,,,,12,,67,72
15360,note_on,,1,0,12,,,,,,,,,,,,,,,,10,,58,72
15360,note_on,,1,0,6,,,,,,,,,,,,,,,,1,,79,72
15360,note_on,,0,0,16,,,,,,,,,,,,,,,,15,,63,72
15360,note_on,,0,0,16,,,,,,,,,,,,,,,,15,,75,72
15360,note_on,,1,0,7,,,,,,,,,,,,,,,,2,,55,72
15360,note_on,,1,0,16,,,,,,,,,,,,,,,,15,,70,72
15360,note_on,,1,0,9,,,,,,,,,,,,,,,,6,,67,72
15360,note_on,,0,0,16,,,,,,,,,,,,,,,,15,,55,72
15360,note_on,,1,0,15,,,,,,,,,,,,,,,,13,,55,72
15360,note_on,,1,0,11,,,,,,,,,,,,,,,,8,,55,72
15360,note_on,,1,0,5,,,,,,,,,,,,,,,,0,,75,72
15360,note_on,,1,0,13,,,,,,,,,,,,,,,,11,,75,72
15419,note_on,,59,0,12,,,,,,,,,,,,,,,,10,,58,0
15419,note_on,,59,0,11,,,,,,,,,,,,,,,,8,,55,0
15419,note_on,,59,0,15,,,,,,,,,,,,,,,,13,,55,0
15419,note_on,,59,0,13,,,,,,,,,,,,,,,,11,,75,0
15419,note_on,,59,0,8,,,,,,,,,,,,,,,,5,,70,0
15419,note_on,,59,0,7,,,,,,,,,,,,,,,,2,,55,0
15419,note_on,,59,0,5,,,,,,,,,,,,,,,,0,,75,0
15419,note_on,,59,0,16,,,,,,,,,,,,,,,,15,,55,0
15420,note_on,,1,0,7,,,,,,,,,,,,,,,,2,,51,72
15420,note_on,,1,0,5,,,,,,,,,,,,,,,,0,,67,72
15420,note_on,,1,0,16,,,,,,,,,,,,,,,,15,,51,72
15420,note_on,,1,0,8,,,,,,,,,,,,,,,,5,,67,72
15420,note_on,,1,0,11,,,,,,,,,,,,,,,,8,,51,72
15420,note_on,,1,0,12,,,,,,,,,,,,,,,,10,,67,72
15420,note_on,,1,0,13,,,,,,,,,,,,,,,,11,,70,72
15420,note_on,,1,0,15,,,,,,,,,,,,,,,,13,,51,72
15479,note_on,,59,0,11,,,,,,,,,,,,,,,,8,,51,0
15479,note_on,,59,0,8,,,,,,,,,,,,,,,,5,,67,0
15479,note_on,,59,0,13,,,,,,,,,,,,,,,,11,,70,0
15479,note_on,,59,0,7,,,,,,,,,,,,,,,,2,,51,0
15479,note_on,,59,0,15,,,,,,,,,,,,,,,,13,,51,0
15479,note_on,,59,0,5,,,,,,,,,,,,,,,,0,,67,0
15479,note_on,,59,0,16,,,,,,,,,,,,,,,,15,,51,0
15479,note_on,,59,0,12,,,,,,,,,,,,,,,,10,,67,0
15480,note_on,,1,0,5,,,,,,,,,,,,,,,,0,,68,72
15480,note_on,,1,0,16,,,,,,,,,,,,,,,,15,,53,72
15480,note_on,,1,0,7,,,,,,,,,,,,,,,,2,,53,72
15480,note_on,,1,0,15,,,,,,,,,,,,,,,,13,,53,72
15480,note_on,,1,0,12,,,,,,,,,,,,,,,,10,,68,72
15480,note_on,,1,0,8,,,,,,,,,,,,,,,,5,,68,72
15480,note_on,,1,0,13,,,,,,,,,,,,,,,,11,,68,72
15480,note_on,,1,0,11,,,,,,,,,,,,,,,,8,,53,72
15539,note_on,,179,0,9,,,,,,,,,,,,,,,,6,,67,0
15539,note_on,,59,0,15,,,,,,,,,,,,,,,,13,,53,0
15539,note_on,,59,0,13,,,,,,,,,,,,,,,,11,,68,0
15539,note_on,,59,0,7,,,,,,,,,,,,,,,,2,,53,0
15539,note_on,,59,0,11,,,,,,,,,,,,,,,,8,,53,0
15539,note_on,,59,0,8,,,,,,,,,,,,,,,,5,,68,0
15539,note_on,,59,0,12,,,,,,,,,,,,,,,,10,,68,0
15539,note_on,,179,0,14,,,,,,,,,,,,,,,,12,,67,0
15539,note_on,,59,0,5,,,,,,,,,,,,,,,,0,,68,0
15539,note_on,,59,0,16,,,,,,,,,,,,,,,,15,,53,0
15539,note_on,,179,0,6,,,,,,,,,,,,,,,,1,,79,0
15540,note_on,,1,0,7,,,,,,,,,,,,,,,,2,,55,72
15540,note_on,,1,0,13,,,,,,,,,,,,,,,,11,,67,72
15540,note_on,,1,0,8,,,,,,,,,,,,,,,,5,,70,72
15540,note_on,,1,0,9,,,,,,,,,,,,,,,,6,,65,72
15540,note_on,,1,0,11,,,,,,,,,,,,,,,,8,,55,72
15540,note_on,,1,0,14,,,,,,,,,,,,,,,,12,,67,72
15540,note_on,,1,0,5,,,,,,,,,,,,,,,,0,,70,72
15540,note_on,,1,0,12,,,,,,,,,,,,,,,,10,,70,72
15540,note_on,,1,0,6,,,,,,,,,,,,,,,,1,,77,72
15540,note_on,,1,0,16,,,,,,,,,,,,,,,,15,,55,72
15540,note_on,,1,0,15,,,,,,,,,,,,,,,,13,,55,72
15569,note_on,,29,0,13,,,,,,,,,,,,,,,,11,,67,0
15570,note_on,,1,0,13,,,,,,,,,,,,,,,,11,,65,72
15599,note_on,,59,0,15,,,,,,,,,,,,,,,,13,,55,0
15599,note_on,,0,0,16,,,,,,,,,,,,,,,,15,,55,0
15599,note_on,,29,0,13,,,,,,,,,,,,,,,,11,,65,0
15599,note_on,,0,0,16,,,,,,,,,,,,,,,,15,,58,0
15599,note_on,,0,0,16,,,,,,,,,,,,,,,,15,,63,0
15599,note_on,,59,0,8,,,,,,,,,,,,,,,,5,,70,0
15599,note_on,,59,0,16,,,,,,,,,,,,,,,,15,,70,0
15599,note_on,,59,0,14,,,,,,,,,,,,,,,,12,,67,0
15599,note_on,,59,0,7,,,,,,,,,,,,,,,,2,,55,0
15599,note_on,,59,0,6,,,,,,,,,,,,,,,,1,,77,0
15599,note_on,,239,0,10,,,,,,,,,,,,,,,,7,,63,0
15599,note_on,,59,0,12,,,,,,,,,,,,,,,,10,,70,0
15599,note_on,,59,0,5,,,,,,,,,,,,,,,,0,,70,0
15599,note_on,,59,0,11,,,,,,,,,,,,,,,,8,,55,0
15599,note_on,,0,0,16,,,,,,,,,,,,,,,,15,,75,0
15599,note_on,,59,0,9,,,,,,,,,,,,,,,,6,,65,0
15600,note_on,,1,0,11,,,,,,,,,,,,,,,,8,,56,72
15600,note_on,,1,0,8,,,,,,,,,,,,,,,,5,,72,72
15600,note_on,,1,0,9,,,,,,,,,,,,,,,,6,,63,72
15600,note_on,,1,0,6,,,,,,,,,,,,,,,,1,,75,72
15600,note_on,,1,0,5,,,,,,,,,,,,,,,,0,,72,72
15600,note_on,,1,0,16,,,,,,,,,,,,,,,,15,,56,72
15600,note_on,,0,0,16,,,,,,,,,,,,,,,,15,,60,72
15600,note_on,,0,0,16,,,,,,,,,,,,,,,,15,,63,72
15600,note_on,,0,0,16,,,,,,,,,,,,,,,,15,,72,72
15600,note_on,,1,0,15,,,,,,,,,,,,,,,,13,,56,72
15600,note_on,,1,0,13,,,,,,,,,,,,,,,,11,,63,72
15600,note_on,,1,0,12,,,,,,,,,,,,,,,,10,,72,72
15600,note_on,,0,0,16,,,,,,,,,,,,,,,,15,,68,72
15600,note_on,,1,0,7,,,,,,,,,,,,,,,,2,,56,72
15600,note_on,,1,0,14,,,,,,,,,,,,,,,,12,,60,72
15659,note_on,,59,0,5,,,,,,,,,,,,,,,,0,,72,0
15659,note_on,,59,0,7,,,,,,,,,,,,,,,,2,,56,0
15659,note_on,,59,0,12,,,,,,,,,,,,,,,,10,,72,0
15659,note_on,,59,0,15,,,,,,,,,,,,,,,,13,,56,0
15659,note_on,,59,0,11,,,,,,,,,,,,,,,,8,,56,0
15659,note_on,,59,0,8,,,,,,,,,,,,,,,,5,,72,0
15659,note_on,,59,0,16,,,,,,,,,,,,,,,,15,,56,0
15660,note_on,,1,0,7,,,,,,,,,,,,,,,,2,,58,72
15660,note_on,,1,0,8,,,,,,,,,,,,,,,,5,,74,72
15660,note_on,,1,0,11,,,,,,,,,,,,,,,,8,,58,72
15660,note_on,,1,0,12,,,,,,,,,,,,,,,,10,,74,72
15660,note_on,,1,0,15,,,,,,,,,,,,,,,,13,,58,72
15660,note_on,,1,0,16,,,,,,,,,,,,,,,,15,,58,72
15660,note_on,,1,0,5,,,,,,,,,,,,,,,,0,,74,72
15719,note_on,,0,0,16,,,,,,,,,,,,,,,,15,,63,0
15719,note_on,,119,0,6,,,,,,,,,,,,,,,,1,,75,0
15719,note_on,,59,0,15,,,,,,,,,,,,,,,,13,,58,0
15719,note_on,,119,0,13,,,,,,,,,,,,,,,,11,,63,0
15719,note_on,,119,0,9,,,,,,,,,,,,,,,,6,,63,0
15719,note_on,,59,0,16,,,,,,,,,,,,,,,,15,,60,0
15719,note_on,,0,0,16,,,,,,,,,,,,,,,,15,,58,0
15719,note_on,,119,0,14,,,,,,,,,,,,,,,,12,,60,0
15719,note_on,,59,0,7,,,,,,,,,,,,,,,,2,,58,0
15719,note_on,,59,0,12,,,,,,,,,,,,,,,,10,,74,0
15719,note_on,,59,0,8,,,,,,,,,,,,,,,,5,,74,0
15719,note_on,,59,0,5,,,,,,,,,,,,,,,,0,,74,0
15719,note_on,,59,0,11,,,,,,,,,,,,,,,,8,,58,0
15720,note_on,,1,0,14,,,,,,,,,,,,,,,,12,,72,72
15720,note_on,,1,0,5,,,,,,,,,,,,,,,,0,,75,72
15720,note_on,,1,0,6,,,,,,,,,,,,,,,,1,,68,72
15720,note_on,,1,0,12,,,,,,,,,,,,,,,,10,,75,72
15720,note_on,,1,0,13,,,,,,,,,,,,,,,,11,,68,72
15720,note_on,,0,0,16,,,,,,,,,,,,,,,,15,,63,72
15720,note_on,,1,0,16,,,,,,,,,,,,,,,,15,,60,72
15720,note_on,,1,0,15,,,,,,,,,,,,,,,,13,,60,72
15720,note_on,,1,0,8,,,,,,,,,,,,,,,,5,,75,72
15720,note_on,,1,0,11,,,,,,,,,,,,,,,,8,,60,72
15720,note_on,,1,0,9,,,,,,,,,,,,,,,,6,,68,72
15720,note_on,,1,0,7,,,,,,,,,,,,,,,,2,,60,72
15779,note_on,,59,0,12,,,,,,,,,,,,,,,,10,,75,0
15779,note_on,,59,0,15,,,,,,,,,,,,,,,,13,,60,0
15779,note_on,,59,0,11,,,,,,,,,,,,,,,,8,,60,0
15779,note_on,,59,0,7,,,,,,,,,,,,,,,,2,,60,0
15779,note_on,,59,0,8,,,,,,,,,,,,,,,,5,,75,0
15779,note_on,,59,0,16,,,,,,,,,,,,,,,,15,,60,0
15779,note_on,,59,0,5,,,,,,,,,,,,,,,,0,,75,0
15779,note_on,,0,0,16,,,,,,,,,,,,,,,,15,,63,0
15780,note_on,,1,0,7,,,,,,,,,,,,,,,,2,,62,72
15780,note_on,,1,0,8,,,,,,,,,,,,,,,,5,,77,72
15780,note_on,,1,0,15,,,,,,,,,,,,,,,,13,,62,72
15780,note_on,,1,0,16,,,,,,,,,,,,,,,,15,,62,72
15780,note_on,,1,0,12,,,,,,,,,,,,,,,,10,,77,72
15780,note_on,,0,0,16,,,,,,,,,,,,,,,,15,,65,72
15780,note_on,,1,0,11,,,,,,,,,,,,,,,,8,,62,72
15780,note_on,,1,0,5,,,,,,,,,,,,,,,,0,,77,72
15839,note_on,,59,0,15,,,,,,,,,,,,,,,,13,,62,0
15839,note_on,,119,0,13,,,,,,,,,,,,,,,,11,,68,0
15839,note_on,,119,0,9,,,,,,,,,,,,,,,,6,,68,0
15839,note_on,,59,0,5,,,,,,,,,,,,,,,,0,,77,0
15839,note_on,,59,0,11,,,,,,,,,,,,,,,,8,,62,0
15839,note_on,,59,0,16,,,,,,,,,,,,,,,,15,,72,0
15839,note_on,,0,0,16,,,,,,,,,,,,,,,,15,,68,0
15839,note_on,,0,0,16,,,,,,,,,,,,,,,,15,,62,0
15839,note_on,,0,0,16,,,,,,,,,,,,,,,,15,,65,0
15839,note_on,,59,0,12,,,,,,,,,,,,,,,,10,,77,0
15839,note_on,,119,0,14,,,,,,,,,,,,,,,,12,,72,0
15839,note_on,,59,0,7,,,,,,,,,,,,,,,,2,,62,0
15839,note_on,,59,0,8,,,,,,,,,,,,,,,,5,,77,0
15839,note_on,,119,0,6,,,,,,,,,,,,,,,,1,,68,0
15840,note_on,,0,0,16,,,,,,,,,,,,,,,,15,,70,72
15840,note_on,,1,0,16,,,,,,,,,,,,,,,,15,,63,72
15840,note_on,,1,0,15,,,,,,,,,,,,,,,,13,,63,72
15840,note_on,,1,0,7,,,,,,,,,,,,,,,,2,,63,72
15840,note_on,,1,0,5,,,,,,,,,,,,,,,,0,,79,72
15840,note_on,,1,0,8,,,,,,,,,,,,,,,,5,,79,72
15840,note_on,,1,0,9,,,,,,,,,,,,,,,,6,,67,72
15840,note_on,,1,0,13,,,,,,,,,,,,,,,,11,,67,72
15840,note_on,,1,0,11,,,,,,,,,,,,,,,,8,,63,72
15840,note_on,,0,0,16,,,,,,,,,,,,,,,,15,,67,72
15840,note_on,,1,0,14,,,,,,,,,,,,,,,,12,,70,72
15840,note_on,,1,0,6,,,,,,,,,,,,,,,,1,,67,72
15840,note_on,,1,0,12,,,,,,,,,,,,,,,,10,,79,72
15899,note_on,,59,0,13,,,,,,,,,,,,,,,,11,,67,0
15899,note_on,,59,0,6,,,,,,,,,,,,,,,,1,,67,0
15899,note_on,,59,0,9,,,,,,,,,,,,,,,,6,,67,0
15900,note_on,,1,0,6,,,,,,,,,,,,,,,,1,,68,72
15900,note_on,,1,0,13,,,,,,,,,,,,,,,,11,,68,72
15900,note_on,,1,0,9,,,,,,,,,,,,,,,,6,,68,72
15959,note_on,,119,0,8,,,,,,,,,,,,,,,,5,,79,0
15959,note_on,,119,0,11,,,,,,,,,,,,,,,,8,,63,0
15959,note_on,,119,0,15,,,,,,,,,,,,,,,,13,,63,0
15959,note_on,,59,0,13,,,,,,,,,,,,,,,,11,,68,0
15959,note_on,,59,0,6,,,,,,,,,,,,,,,,1,,68,0
15959,note_on,,119,0,12,,,,,,,,,,,,,,,,10,,79,0
15959,note_on,,119,0,16,,,,,,,,,,,,,,,,15,,63,0
15959,note_on,,119,0,7,,,,,,,,,,,,,,,,2,,63,0
15959,note_on,,119,0,5,,,,,,,,,,,,,,,,0,,79,0
15959,note_on,,59,0,9,,,,,,,,,,,,,,,,6,,68,0
15960,note_on,,1,0,9,,,,,,,,,,,,,,,,6,,70,72
15960,note_on,,1,0,13,,,,,,,,,,,,,,,,11,,70,72
15960,note_on,,1,0,12,,,,,,,,,,,,,,,,10,,77,72
15960,note_on,,1,0,16,,,,,,,,,,,,,,,,15,,62,72
15960,note_on,,1,0,6,,,,,,,,,,,,,,,,1,,70,72
15960,note_on,,1,0,15,,,,,,,,,,,,,,,,13,,62,72
15960,note_on,,1,0,8,,,,,,,,,,,,,,,,5,,77,72
15960,note_on,,1,0,7,,,,,,,,,,,,,,,,2,,62,72
15960,note_on,,1,0,5,,,,,,,,,,,,,,,,0,,77,72
15960,note_on,,1,0,11,,,,,,,,,,,,,,,,8,,62,72
16019,note_on,,59,0,11,,,,,,,,,,,,,,,,8,,62,0
16019,note_on,,59,0,15,,,,,,,,,,,,,,,,13,,62,0
16019,note_on,,59,0,5,,,,,,,,,,,,,,,,0,,77,0
16019,note_on,,59,0,12,,,,,,,,,,,,,,,,10,,77,0
16019,note_on,,179,0,14,,,,,,,,,,,,,,,,12,,70,0
16019,note_on,,59,0,16,,,,,,,,,,,,,,,,15,,62,0
16019,note_on,,59,0,7,,,,,,,,,,,,,,,,2,,62,0
16019,note_on,,59,0,8,,,,,,,,,,,,,,,,5,,77,0
16020,note_on,,1,0,16,,,,,,,,,,,,,,,,15,,60,72
16020,note_on,,1,0,15,,,,,,,,,,,,,,,,13,,60,72
16020,note_on,,1,0,5,,,,,,,,,,,,,,,,0,,75,72
16020,note_on,,1,0,12,,,,,,,,,,,,,,,,10,,75,72
16020,note_on,,1,0,11,,,,,,,,,,,,,,,,8,,60,72
16020,note_on,,1,0,7,,,,,,,,,,,,,,,,2,,60,72
16020,note_on,,1,0,14,,,,,,,,,,,,,,,,12,,63,72
16020,note_on,,1,0,8,,,,,,,,,,,,,,,,5,,75,72
16079,note_on,,59,0,12,,,,,,,,,,,,,,,,10,,75,0
16079,note_on,,59,0,16,,,,,,,,,,,,,,,,15,,70,0
16079,note_on,,59,0,5,,,,,,,,,,,,,,,,0,,75,0
16079,note_on,,0,0,16,,,,,,,,,,,,,,,,15,,67,0
16079,note_on,,0,0,16,,,,,,,,,,,,,,,,15,,60,0
16079,note_on,,59,0,14,,,,,,,,,,,,,,,,12,,63,0
16079,note_on,,59,0,11,,,,,,,,,,,,,,,,8,,60,0
16079,note_on,,59,0,7,,,,,,,,,,,,,,,,2,,60,0
16079,note_on,,59,0,15,,,,,,,,,,,,,,,,13,,60,0
16079,note_on,,59,0,8,,,,,,,,,,,,,,,,5,,75,0
16080,note_on,,1,0,12,,,,,,,,,,,,,,,,10,,74,72
16080,note_on,,1,0,15,,,,,,,,,,,,,,,,13,,58,72
16080,note_on,,1,0,5,,,,,,,,,,,,,,,,0,,74,72
16080,note_on,,0,0,16,,,,,,,,,,,,,,,,15,,65,72
16080,note_on,,1,0,7,,,,,,,,,,,,,,,,2,,58,72
16080,note_on,,1,0,14,,,,,,,,,,,,,,,,12,,65,72
16080,note_on,,1,0,11,,,,,,,,,,,,,,,,8,,58,72
16080,note_on,,1,0,8,,,,,,,,,,,,,,,,5,,74,72
16080,note_on,,1,0,16,,,,,,,,,,,,,,,,15,,58,72
16080,note_on,,0,0,16,,,,,,,,,,,,,,,,15,,62,72
16080,note_on,,0,0,16,,,,,,,,,,,,,,,,15,,74,72
16080,note_on,,0,0,16,,,,,,,,,,,,,,,,15,,70,72
16139,note_on,,59,0,11,,,,,,,,,,,,,,,,8,,58,0
16139,note_on,,59,0,5,,,,,,,,,,,,,,,,0,,74,0
16139,note_on,,59,0,15,,,,,,,,,,,,,,,,13,,58,0
16139,note_on,,59,0,8,,,,,,,,,,,,,,,,5,,74,0
16139,note_on,,59,0,12,,,,,,,,,,,,,,,,10,,74,0
16139,note_on,,59,0,16,,,,,,,,,,,,,,,,15,,58,0
16139,note_on,,59,0,7,,,,,,,,,,,,,,,,2,,58,0
16140,note_on,,1,0,7,,,,,,,,,,,,,,,,2,,56,72
16140,note_on,,1,0,5,,,,,,,,,,,,,,,,0,,72,72
16140,note_on,,1,0,8,,,,,,,,,,,,,,,,5,,72,72
16140,note_on,,1,0,11,,,,,,,,,,,,,,,,8,,56,72
16140,note_on,,1,0,12,,,,,,,,,,,,,,,,10,,72,72
16140,note_on,,1,0,16,,,,,,,,,,,,,,,,15,,56,72
16140,note_on,,1,0,15,,,,,,,,,,,,,,,,13,,56,72
16199,note_on,,59,0,7,,,,,,,,,,,,,,,,2,,56,0
16199,note_on,,239,0,6,,,,,,,,,,,,,,,,1,,70,0
16199,note_on,,119,0,14,,,,,,,,,,,,,,,,12,,65,0
16199,note_on,,59,0,5,,,,,,,,,,,,,,,,0,,72,0
16199,note_on,,59,0,12,,,,,,,,,,,,,,,,10,,72,0
16199,note_on,,59,0,8,,,,,,,,,,,,,,,,5,,72,0
16199,note_on,,59,0,16,,,,,,,,,,,,,,,,15,,56,0
16199,note_on,,59,0,15,,,,,,,,,,,,,,,,13,,56,0
16199,note_on,,239,0,9,,,,,,,,,,,,,,,,6,,70,0
16199,note_on,,239,0,13,,,,,,,,,,,,,,,,11,,70,0
16199,note_on,,59,0,11,,,,,,,,,,,,,,,,8,,56,0
16200,note_on,,1,0,5,,,,,,,,,,,,,,,,0,,70,72
16200,note_on,,1,0,16,,,,,,,,,,,,,,,,15,,55,72
16200,note_on,,1,0,8,,,,,,,,,,,,,,,,5,,70,72
16200,note_on,,1,0,11,,,,,,,,,,,,,,,,8,,55,72
16200,note_on,,1,0,15,,,,,,,,,,,,,,,,13,,55,72
16200,note_on,,1,0,14,,,,,,,,,,,,,,,,12,,55,72
16200,note_on,,1,0,13,,,,,,,,,,,,,,,,11,,62,72
16200,note_on,,1,0,7,,,,,,,,,,,,,,,,2,,55,72
16200,note_on,,1,0,12,,,,,,,,,,,,,,,,10,,70,72
16200,note_on,,1,0,6,,,,,,,,,,,,,,,,1,,62,72
16200,note_on,,601,0,10,,,,,,,,,,,,,,,,7,,55,72
16200,note_on,,1,0,9,,,,,,,,,,,,,,,,6,,62,72
16259,note_on,,59,0,5,,,,,,,,,,,,,,,,0,,70,0
16259,note_on,,59,0,14,,,,,,,,,,,,,,,,12,,55,0
16259,note_on,,59,0,7,,,,,,,,,,,,,,,,2,,55,0
16259,note_on,,59,0,16,,,,,,,,,,,,,,,,15,,55,0
16259,note_on,,59,0,11,,,,,,,,,,,,,,,,8,,55,0
16259,note_on,,59,0,12,,,,,,,,,,,,,,,,10,,70,0
16259,note_on,,59,0,15,,,,,,,,,,,,,,,,13,,55,0
16259,note_on,,59,0,10,,,,,,,,,,,,,,,,7,,55,0
16259,note_on,,59,0,8,,,,,,,,,,,,,,,,5,,70,0
16260,note_on,,1,0,14,,,,,,,,,,,,,,,,12,,56,72
16260,note_on,,1,0,11,,,,,,,,,,,,,,,,8,,53,72
16260,note_on,,1,0,10,,,,,,,,,,,,,,,,7,,56,72
16260,note_on,,1,0,16,,,,,,,,,,,,,,,,15,,53,72
16260,note_on,,1,0,12,,,,,,,,,,,,,,,,10,,68,72
16260,note_on,,1,0,7,,,,,,,,,,,,,,,,2,,53,72
16260,note_on,,1,0,5,,,,,,,,,,,,,,,,0,,68,72
16260,note_on,,1,0,8,,,,,,,,,,,,,,,,5,,68,72
16260,note_on,,1,0,15,,,,,,,,,,,,,,,,13,,53,72
16319,note_on,,59,0,16,,,,,,,,,,,,,,,,15,,62,0
16319,note_on,,59,0,14,,,,,,,,,,,,,,,,12,,56,0
16319,note_on,,59,0,8,,,,,,,,,,,,,,,,5,,68,0
16319,note_on,,119,0,6,,,,,,,,,,,,,,,,1,,62,0
16319,note_on,,59,0,7,,,,,,,,,,,,,,,,2,,53,0
16319,note_on,,59,0,15,,,,,,,,,,,,,,,,13,,53,0
16319,note_on,,119,0,9,,,,,,,,,,,,,,,,6,,62,0
16319,note_on,,59,0,12,,,,,,,,,,,,,,,,10,,68,0
16319,note_on,,0,0,16,,,,,,,,,,,,,,,,15,,74,0
16319,note_on,,59,0,5,,,,,,,,,,,,,,,,0,,68,0
16319,note_on,,119,0,13,,,,,,,,,,,,,,,,11,,62,0
16319,note_on,,0,0,16,,,,,,,,,,,,,,,,15,,53,0
16319,note_on,,0,0,16,,,,,,,,,,,,,,,,15,,65,0
16319,note_on,,0,0,16,,,,,,,,,,,,,,,,15,,70,0
16319,note_on,,59,0,10,,,,,,,,,,,,,,,,7,,56,0
16319,note_on,,59,0,11,,,,,,,,,,,,,,,,8,,53,0
16320,note_on,,0,0,16,,,,,,,,,,,,,,,,15,,75,72
16320,note_on,,1,0,16,,,,,,,,,,,,,,,,15,,51,72
16320,note_on,,0,0,16,,,,,,,,,,,,,,,,15,,70,72
16320,note_on,,0,0,16,,,,,,,,,,,,,,,,15,,67,72
16320,note_on,,0,0,16,,,,,,,,,,,,,,,,15,,55,72
16320,note_on,,1,0,7,,,,,,,,,,,,,,,,2,,51,72
16320,note_on,,1,0,5,,,,,,,,,,,,,,,,0,,67,72
16320,note_on,,1,0,9,,,,,,,,,,,,,,,,6,,63,72
16320,note_on,,1,0,13,,,,,,,,,,,,,,,,11,,63,72
16320,note_on,,1,0,14,,,,,,,,,,,,,,,,12,,58,72
16320,note_on,,1,0,15,,,,,,,,,,,,,,,,13,,51,72
16320,note_on,,1,0,8,,,,,,,,,,,,,,,,5,,67,72
16320,note_on,,1,0,6,,,,,,,,,,,,,,,,1,,63,72
16320,note_on,,1,0,12,,,,,,,,,,,,,,,,10,,67,72
16320,note_on,,1,0,10,,,,,,,,,,,,,,,,7,,58,72
16320,note_on,,1,0,11,,,,,,,,,,,,,,,,8,,51,72
16379,note_on,,59,0,13,,,,,,,,,,,,,,,,11,,63,0
16379,note_on,,59,0,8,,,,,,,,,,,,,,,,5,,67,0
16379,note_on,,59,0,12,,,,,,,,,,,,,,,,10,,67,0
16379,note_on,,59,0,5,,,,,,,,,,,,,,,,0,,67,0
16379,note_on,,59,0,6,,,,,,,,,,,,,,,,1,,63,0
16379,note_on,,59,0,10,,,,,,,,,,,,,,,,7,,58,0
16380,note_on,,1,0,10,,,,,,,,,,,,,,,,7,,55,72
16380,note_on,,1,0,8,,,,,,,,,,,,,,,,5,,63,72
16380,note_on,,1,0,13,,,,,,,,,,,,,,,,11,,67,72
16380,note_on,,1,0,6,,,,,,,,,,,,,,,,1,,67,72
16380,note_on,,1,0,12,,,,,,,,,,,,,,,,10,,75,72
16380,note_on,,1,0,5,,,,,,,,,,,,,,,,0,,63,72
16439,note_on,,59,0,8,,,,,,,,,,,,,,,,5,,63,0
16439,note_on,,59,0,12,,,,,,,,,,,,,,,,10,,75,0
16439,note_on,,59,0,10,,,,,,,,,,,,,,,,7,,55,0
16439,note_on,,59,0,6,,,,,,,,,,,,,,,,1,,67,0
16439,note_on,,59,0,13,,,,,,,,,,,,,,,,11,,67,0
16439,note_on,,59,0,5,,,,,,,,,,,,,,,,0,,63,0
16440,note_on,,1,0,13,,,,,,,,,,,,,,,,11,,68,72
16440,note_on,,1,0,6,,,,,,,,,,,,,,,,1,,68,72
16440,note_on,,1,0,12,,,,,,,,,,,,,,,,10,,77,72
16440,note_on,,1,0,10,,,,,,,,,,,,,,,,7,,56,72
16440,note_on,,1,0,8,,,,,,,,,,,,,,,,5,,65,72
16440,note_on,,1,0,5,,,,,,,,,,,,,,,,0,,65,72
16499,note_on,,59,0,8,,,,,,,,,,,,,,,,5,,65,0
16499,note_on,,179,0,7,,,,,,,,,,,,,,,,2,,51,0
16499,note_on,,59,0,5,,,,,,,,,,,,,,,,0,,65,0
16499,note_on,,59,0,10,,,,,,,,,,,,,,,,7,,56,0
16499,note_on,,59,0,6,,,,,,,,,,,,,,,,1,,68,0
16499,note_on,,179,0,15,,,,,,,,,,,,,,,,13,,51,0
16499,note_on,,179,0,16,,,,,,,,,,,,,,,,15,,51,0
16499,note_on,,179,0,14,,,,,,,,,,,,,,,,12,,58,0
16499,note_on,,179,0,11,,,,,,,,,,,,,,,,8,,51,0
16499,note_on,,59,0,12,,,,,,,,,,,,,,,,10,,77,0
16499,note_on,,59,0,13,,,,,,,,,,,,,,,,11,,68,0
16500,note_on,,1,0,11,,,,,,,,,,,,,,,,8,,50,72
16500,note_on,,1,0,16,,,,,,,,,,,,,,,,15,,50,72
16500,note_on,,1,0,7,,,,,,,,,,,,,,,,2,,50,72
16500,note_on,,1,0,13,,,,,,,,,,,,,,,,11,,70,72
16500,note_on,,1,0,14,,,,,,,,,,,,,,,,12,,63,72
16500,note_on,,1,0,10,,,,,,,,,,,,,,,,7,,58,72
16500,note_on,,1,0,8,,,,,,,,,,,,,,,,5,,67,72
16500,note_on,,1,0,12,,,,,,,,,,,,,,,,10,,79,72
16500,note_on,,1,0,15,,,,,,,,,,,,,,,,13,,50,72
16500,note_on,,1,0,5,,,,,,,,,,,,,,,,0,,67,72
16500,note_on,,1,0,6,,,,,,,,,,,,,,,,1,,70,72
16559,note_on,,59,0,8,,,,,,,,,,,,,,,,5,,67,0
16559,note_on,,59,0,11,,,,,,,,,,,,,,,,8,,50,0
16559,note_on,,59,0,5,,,,,,,,,,,,,,,,0,,67,0
16559,note_on,,59,0,14,,,,,,,,,,,,,,,,12,,63,0
16559,note_on,,59,0,7,,,,,,,,,,,,,,,,2,,50,0
16559,note_on,,59,0,13,,,,,,,,,,,,,,,,11,,70,0
16559,note_on,,0,0,16,,,,,,,,,,,,,,,,15,,50,0
16559,note_on,,59,0,15,,,,,,,,,,,,,,,,13,,50,0
16559,note_on,,0,0,16,,,,,,,,,,,,,,,,15,,55,0
16559,note_on,,59,0,10,,,,,,,,,,,,,,,,7,,58,0
16559,note_on,,59,0,12,,,,,,,,,,,,,,,,10,,79,0
16559,note_on,,59,0,6,,,,,,,,,,,,,,,,1,,70,0
16559,note_on,,59,0,16,,,,,,,,,,,,,,,,15,,75,0
16559,note_on,,0,0,16,,,,,,,,,,,,,,,,15,,70,0
16559,note_on,,0,0,16,,,,,,,,,,,,,,,,15,,67,0
16560,note_on,,1,0,8,,,,,,,,,,,,,,,,5,,68,72
16560,note_on,,1,0,6,,,,,,,,,,,,,,,,1,,72,72
16560,note_on,,1,0,15,,,,,,,,,,,,,,,,13,,48,72
16560,note_on,,1,0,10,,,,,,,,,,,,,,,,7,,60,72
16560,note_on,,1,0,12,,,,,,,,,,,,,,,,10,,80,72
16560,note_on,,0,0,16,,,,,,,,,,,,,,,,15,,63,72
16560,note_on,,0,0,16,,,,,,,,,,,,,,,,15,,68,72
16560,note_on,,1,0,13,,,,,,,,,,,,,,,,11,,72,72
16560,note_on,,0,0,16,,,,,,,,,,,,,,,,15,,75,72
16560,note_on,,1,0,16,,,,,,,,,,,,,,,,15,,48,72
16560,note_on,,1,0,7,,,,,,,,,,,,,,,,2,,48,72
16560,note_on,,0,0,16,,,,,,,,,,,,,,,,15,,56,72
16560,note_on,,1,0,5,,,,,,,,,,,,,,,,0,,68,72
16560,note_on,,1,0,14,,,,,,,,,,,,,,,,12,,63,72
16560,note_on,,1,0,11,,,,,,,,,,,,,,,,8,,48,72
16619,note_on,,59,0,12,,,,,,,,,,,,,,,,10,,80,0
16619,note_on,,59,0,10,,,,,,,,,,,,,,,,7,,60,0
16619,note_on,,59,0,6,,,,,,,,,,,,,,,,1,,72,0
16619,note_on,,59,0,13,,,,,,,,,,,,,,,,11,,72,0
16619,note_on,,59,0,5,,,,,,,,,,,,,,,,0,,68,0
16619,note_on,,59,0,8,,,,,,,,,,,,,,,,5,,68,0
16620,note_on,,1,0,8,,,,,,,,,,,,,,,,5,,70,72
16620,note_on,,1,0,12,,,,,,,,,,,,,,,,10,,82,72
16620,note_on,,1,0,10,,,,,,,,,,,,,,,,7,,62,72
16620,note_on,,1,0,13,,,,,,,,,,,,,,,,11,,74,72
16620,note_on,,1,0,5,,,,,,,,,,,,,,,,0,,70,72
16620,note_on,,1,0,6,,,,,,,,,,,,,,,,1,,74,72
16679,note_on,,59,0,13,,,,,,,,,,,,,,,,11,,74,0
16679,note_on,,119,0,7,,,,,,,,,,,,,,,,2,,48,0
16679,note_on,,59,0,12,,,,,,,,,,,,,,,,10,,82,0
16679,note_on,,119,0,15,,,,,,,,,,,,,,,,13,,48,0
16679,note_on,,59,0,6,,,,,,,,,,,,,,,,1,,74,0
16679,note_on,,119,0,16,,,,,,,,,,,,,,,,15,,48,0
16679,note_on,,119,0,11,,,,,,,,,,,,,,,,8,,48,0
16679,note_on,,59,0,5,,,,,,,,,,,,,,,,0,,70,0
16679,note_on,,59,0,10,,,,,,,,,,,,,,,,7,,62,0
16679,note_on,,359,0,9,,,,,,,,,,,,,,,,6,,63,0
16679,note_on,,59,0,8,,,,,,,,,,,,,,,,5,,70,0
16680,note_on,,1,0,5,,,,,,,,,,,,,,,,0,,72,72
16680,note_on,,1,0,10,,,,,,,,,,,,,,,,7,,63,72
16680,note_on,,1,0,8,,,,,,,,,,,,,,,,5,,72,72
16680,note_on,,1,0,15,,,,,,,,,,,,,,,,13,,46,72
16680,note_on,,1,0,7,,,,,,,,,,,,,,,,2,,46,72
16680,note_on,,1,0,12,,,,,,,,,,,,,,,,10,,84,72
16680,note_on,,1,0,9,,,,,,,,,,,,,,,,6,,62,72
16680,note_on,,1,0,11,,,,,,,,,,,,,,,,8,,46,72
16680,note_on,,1,0,6,,,,,,,,,,,,,,,,1,,75,72
16680,note_on,,1,0,13,,,,,,,,,,,,,,,,11,,75,72
16680,note_on,,1,0,16,,,,,,,,,,,,,,,,15,,46,72
16739,note_on,,59,0,16,,,,,,,,,,,,,,,,15,,46,0
16739,note_on,,59,0,11,,,,,,,,,,,,,,,,8,,46,0
16739,note_on,,59,0,8,,,,,,,,,,,,,,,,5,,72,0
16739,note_on,,59,0,9,,,,,,,,,,,,,,,,6,,62,0
16739,note_on,,59,0,5,,,,,,,,,,,,,,,,0,,72,0
16739,note_on,,59,0,10,,,,,,,,,,,,,,,,7,,63,0
16739,note_on,,179,0,14,,,,,,,,,,,,,,,,12,,63,0
16739,note_on,,59,0,13,,,,,,,,,,,,,,,,11,,75,0
16739,note_on,,59,0,15,,,,,,,,,,,,,,,,13,,46,0
16739,note_on,,59,0,7,,,,,,,,,,,,,,,,2,,46,0
16739,note_on,,59,0,12,,,,,,,,,,,,,,,,10,,84,0
16739,note_on,,59,0,6,,,,,,,,,,,,,,,,1,,75,0
16740,note_on,,1,0,9,,,,,,,,,,,,,,,,6,,60,72
16740,note_on,,1,0,10,,,,,,,,,,,,,,,,7,,65,72
16740,note_on,,1,0,11,,,,,,,,,,,,,,,,8,,44,72
16740,note_on,,1,0,8,,,,,,,,,,,,,,,,5,,74,72
16740,note_on,,1,0,15,,,,,,,,,,,,,,,,13,,44,72
16740,note_on,,1,0,13,,,,,,,,,,,,,,,,11,,77,72
16740,note_on,,1,0,14,,,,,,,,,,,,,,,,12,,68,72
16740,note_on,,1,0,5,,,,,,,,,,,,,,,,0,,74,72
16740,note_on,,1,0,16,,,,,,,,,,,,,,,,15,,44,72
16740,note_on,,1,0,6,,,,,,,,,,,,,,,,1,,77,72
16740,note_on,,1,0,7,,,,,,,,,,,,,,,,2,,44,72
16740,note_on,,1,0,12,,,,,,,,,,,,,,,,10,,86,72
16769,note_on,,29,0,12,,,,,,,,,,,,,,,,10,,86,0
16770,note_on,,1,0,12,,,,,,,,,,,,,,,,10,,84,72
16799,note_on,,59,0,6,,,,,,,,,,,,,,,,1,,77,0
16799,note_on,,0,0,16,,,,,,,,,,,,,,,,15,,44,0
16799,note_on,,0,0,16,,,,,,,,,,,,,,,,15,,56,0
16799,note_on,,59,0,11,,,,,,,,,,,,,,,,8,,44,0
16799,note_on,,29,0,12,,,,,,,,,,,,,,,,10,,84,0
16799,note_on,,0,0,16,,,,,,,,,,,,,,,,15,,63,0
16799,note_on,,0,0,16,,,,,,,,,,,,,,,,15,,68,0
16799,note_on,,59,0,16,,,,,,,,,,,,,,,,15,,75,0
16799,note_on,,59,0,8,,,,,,,,,,,,,,,,5,,74,0
16799,note_on,,59,0,5,,,,,,,,,,,,,,,,0,,74,0
16799,note_on,,59,0,15,,,,,,,,,,,,,,,,13,,44,0
16799,note_on,,59,0,13,,,,,,,,,,,,,,,,11,,77,0
16799,note_on,,59,0,14,,,,,,,,,,,,,,,,12,,68,0
16799,note_on,,59,0,10,,,,,,,,,,,,,,,,7,,65,0
16799,note_on,,59,0,7,,,,,,,,,,,,,,,,2,,44,0
16799,note_on,,59,0,9,,,,,,,,,,,,,,,,6,,60,0
16800,note_on,,1,0,15,,,,,,,,,,,,,,,,13,,43,72
16800,note_on,,0,0,16,,,,,,,,,,,,,,,,15,,70,72
16800,note_on,,0,0,16,,,,,,,,,,,,,,,,15,,75,72
16800,note_on,,1,0,16,,,,,,,,,,,,,,,,15,,43,72
16800,note_on,,1,0,6,,,,,,,,,,,,,,,,1,,79,72
16800,note_on,,1,0,11,,,,,,,,,,,,,,,,8,,43,72
16800,note_on,,1,0,12,,,,,,,,,,,,,,,,10,,82,72
16800,note_on,,1,0,7,,,,,,,,,,,,,,,,2,,43,72
16800,note_on,,1,0,8,,,,,,,,,,,,,,,,5,,75,72
16800,note_on,,1,0,10,,,,,,,,,,,,,,,,7,,67,72
16800,note_on,,0,0,16,,,,,,,,,,,,,,,,15,,51,72
16800,note_on,,1,0,13,,,,,,,,,,,,,,,,11,,79,72
16800,note_on,,0,0,16,,,,,,,,,,,,,,,,15,,63,72
16800,note_on,,1,0,14,,,,,,,,,,,,,,,,12,,63,72
16800,note_on,,1,0,9,,,,,,,,,,,,,,,,6,,58,72
16800,note_on,,1,0,5,,,,,,,,,,,,,,,,0,,75,72
16949,note_on,,149,0,13,,,,,,,,,,,,,,,,11,,79,0
16950,note_on,,1,0,13,,,,,,,,,,,,,,,,11,,70,72
16979,note_on,,29,0,13,,,,,,,,,,,,,,,,11,,70,0
16979,note_on,,179,0,6,,,,,,,,,,,,,,,,1,,79,0
16979,note_on,,179,0,11,,,,,,,,,,,,,,,,8,,43,0
16979,note_on,,179,0,14,,,,,,,,,,,,,,,,12,,63,0
16979,note_on,,179,0,9,,,,,,,,,,,,,,,,6,,58,0
16979,note_on,,179,0,5,,,,,,,,,,,,,,,,0,,75,0
16979,note_on,,179,0,8,,,,,,,,,,,,,,,,5,,75,0
16980,note_on,,1,0,6,,,,,,,,,,,,,,,,1,,80,72
16980,note_on,,1,0,11,,,,,,,,,,,,,,,,8,,55,72
16980,note_on,,1,0,5,,,,,,,,,,,,,,,,0,,74,72
16980,note_on,,1,0,13,,,,,,,,,,,,,,,,11,,72,72
16980,note_on,,1,0,8,,,,,,,,,,,,,,,,5,,74,72
16980,note_on,,1,0,9,,,,,,,,,,,,,,,,6,,60,72
16980,note_on,,1,0,14,,,,,,,,,,,,,,,,12,,62,72
17009,note_on,,29,0,9,,,,,,,,,,,,,,,,6,,60,0
17009,note_on,,29,0,13,,,,,,,,,,,,,,,,11,,72,0
17009,note_on,,29,0,14,,,,,,,,,,,,,,,,12,,62,0
17009,note_on,,29,0,5,,,,,,,,,,,,,,,,0,,74,0
17009,note_on,,29,0,8,,,,,,,,,,,,,,,,5,,74,0
17010,note_on,,1,0,13,,,,,,,,,,,,,,,,11,,74,72
17010,note_on,,1,0,9,,,,,,,,,,,,,,,,6,,62,72
17010,note_on,,1,0,5,,,,,,,,,,,,,,,,0,,72,72
17010,note_on,,1,0,14,,,,,,,,,,,,,,,,12,,60,72
17010,note_on,,1,0,8,,,,,,,,,,,,,,,,5,,72,72
17039,note_on,,29,0,14,,,,,,,,,,,,,,,,12,,60,0
17039,note_on,,239,0,10,,,,,,,,,,,,,,,,7,,67,0
17039,note_on,,29,0,13,,,,,,,,,,,,,,,,11,,74,0
17039,note_on,,59,0,6,,,,,,,,,,,,,,,,1,,80,0
17039,note_on,,29,0,5,,,,,,,,,,,,,,,,0,,72,0
17039,note_on,,29,0,9,,,,,,,,,,,,,,,,6,,62,0
17039,note_on,,59,0,11,,,,,,,,,,,,,,,,8,,55,0
17039,note_on,,29,0,8,,,,,,,,,,,,,,,,5,,72,0
17040,note_on,,1,0,14,,,,,,,,,,,,,,,,12,,58,72
17040,note_on,,1,0,8,,,,,,,,,,,,,,,,5,,70,72
17040,note_on,,1,0,6,,,,,,,,,,,,,,,,1,,82,72
17040,note_on,,1,0,13,,,,,,,,,,,,,,,,11,,75,72
17040,note_on,,1,0,5,,,,,,,,,,,,,,,,0,,70,72
17040,note_on,,1,0,9,,,,,,,,,,,,,,,,6,,63,72
17040,note_on,,1,0,11,,,,,,,,,,,,,,,,8,,55,72
17100,note_on,,61,0,10,,,,,,,,,,,,,,,,7,,63,72
17159,note_on,,0,0,16,,,,,,,,,,,,,,,,15,,75,0
17159,note_on,,359,0,15,,,,,,,,,,,,,,,,13,,43,0
17159,note_on,,119,0,8,,,,,,,,,,,,,,,,5,,70,0
17159,note_on,,359,0,12,,,,,,,,,,,,,,,,10,,82,0
17159,note_on,,0,0,16,,,,,,,,,,,,,,,,15,,63,0
17159,note_on,,0,0,16,,,,,,,,,,,,,,,,15,,70,0
17159,note_on,,359,0,16,,,,,,,,,,,,,,,,15,,43,0
17159,note_on,,59,0,10,,,,,,,,,,,,,,,,7,,63,0
17159,note_on,,119,0,11,,,,,,,,,,,,,,,,8,,55,0
17159,note_on,,119,0,5,,,,,,,,,,,,,,,,0,,70,0
17159,note_on,,0,0,16,,,,,,,,,,,,,,,,15,,51,0
17159,note_on,,119,0,13,,,,,,,,,,,,,,,,11,,75,0
17159,note_on,,119,0,6,,,,,,,,,,,,,,,,1,,82,0
17159,note_on,,119,0,14,,,,,,,,,,,,,,,,12,,58,0
17159,note_on,,359,0,7,,,,,,,,,,,,,,,,2,,43,0
17159,note_on,,119,0,9,,,,,,,,,,,,,,,,6,,63,0
17160,note_on,,0,0,16,,,,,,,,,,,,,,,,15,,63,72
17160,note_on,,1,0,15,,,,,,,,,,,,,,,,13,,44,72
17160,note_on,,1,0,5,,,,,,,,,,,,,,,,0,,75,72
17160,note_on,,1,0,14,,,,,,,,,,,,,,,,12,,65,72
17160,note_on,,1,0,12,,,,,,,,,,,,,,,,10,,75,72
17160,note_on,,1,0,7,,,,,,,,,,,,,,,,2,,44,72
17160,note_on,,1,0,9,,,,,,,,,,,,,,,,6,,65,72
17160,note_on,,1,0,8,,,,,,,,,,,,,,,,5,,75,72
17160,note_on,,1,0,10,,,,,,,,,,,,,,,,7,,62,72
17160,note_on,,1,0,6,,,,,,,,,,,,,,,,1,,72,72
17160,note_on,,1,0,13,,,,,,,,,,,,,,,,11,,72,72
17160,note_on,,0,0,16,,,,,,,,,,,,,,,,15,,72,72
17160,note_on,,1,0,16,,,,,,,,,,,,,,,,15,,44,72
17160,note_on,,1,0,11,,,,,,,,,,,,,,,,8,,56,72
17160,note_on,,0,0,16,,,,,,,,,,,,,,,,15,,51,72
17160,note_on,,0,0,16,,,,,,,,,,,,,,,,15,,68,72
17219,note_on,,59,0,10,,,,,,,,,,,,,,,,7,,62,0
17220,note_on,,1,0,10,,,,,,,,,,,,,,,,7,,60,72
17279,note_on,,119,0,7,,,,,,,,,,,,,,,,2,,44,0
17279,note_on,,119,0,13,,,,,,,,,,,,,,,,11,,72,0
17279,note_on,,119,0,8,,,,,,,,,,,,,,,,5,,75,0
17279,note_on,,119,0,12,,,,,,,,,,,,,,,,10,,75,0
17279,note_on,,59,0,10,,,,,,,,,,,,,,,,7,,60,0
17279,note_on,,119,0,9,,,,,,,,,,,,,,,,6,,65,0
17279,note_on,,119,0,6,,,,,,,,,,,,,,,,1,,72,0
17279,note_on,,119,0,15,,,,,,,,,,,,,,,,13,,44,0
17279,note_on,,0,0,16,,,,,,,,,,,,,,,,15,,72,0
17279,note_on,,0,0,16,,,,,,,,,,,,,,,,15,,68,0
17279,note_on,,0,0,16,,,,,,,,,,,,,,,,15,,63,0
17279,note_on,,119,0,14,,,,,,,,,,,,,,,,12,,65,0
17279,note_on,,0,0,16,,,,,,,,,,,,,,,,15,,51,0
17279,note_on,,119,0,5,,,,,,,,,,,,,,,,0,,75,0
17279,note_on,,119,0,16,,,,,,,,,,,,,,,,15,,44,0
17279,note_on,,119,0,11,,,,,,,,,,,,,,,,8,,56,0
17280,note_on,,1,0,6,,,,,,,,,,,,,,,,1,,68,72
17280,note_on,,1,0,11,,,,,,,,,,,,,,,,8,,58,72
17280,note_on,,1,0,9,,,,,,,,,,,,,,,,6,,65,72
17280,note_on,,1,0,14,,,,,,,,,,,,,,,,12,,65,72
17280,note_on,,1,0,13,,,,,,,,,,,,,,,,11,,70,72
17280,note_on,,1,0,7,,,,,,,,,,,,,,,,2,,46,72
17280,note_on,,1,0,16,,,,,,,,,,,,,,,,15,,46,72
17280,note_on,,0,0,16,,,,,,,,,,,,,,,,15,,63,72
17280,note_on,,0,0,16,,,,,,,,,,,,,,,,15,,58,72
17280,note_on,,0,0,16,,,,,,,,,,,,,,,,15,,70,72
17280,note_on,,1,0,10,,,,,,,,,,,,,,,,7,,58,72
17280,note_on,,1,0,5,,,,,,,,,,,,,,,,0,,75,72
17280,note_on,,0,0,16,,,,,,,,,,,,,,,,15,,65,72
17280,note_on,,1,0,15,,,,,,,,,,,,,,,,13,,46,72
17280,note_on,,1,0,8,,,,,,,,,,,,,,,,5,,75,72
17280,note_on,,1,0,12,,,,,,,,,,,,,,,,10,,75,72
17519,note_on,,239,0,8,,,,,,,,,,,,,,,,5,,75,0
17519,note_on,,0,0,16,,,,,,,,,,,,,,,,15,,58,0
17519,note_on,,239,0,10,,,,,,,,,,,,,,,,7,,58,0
17519,note_on,,239,0,6,,,,,,,,,,,,,,,,1,,68,0
17519,note_on,,239,0,16,,,,,,,,,,,,,,,,15,,63,0
17519,note_on,,239,0,12,,,,,,,,,,,,,,,,10,,75,0
17519,note_on,,239,0,11,,,,,,,,,,,,,,,,8,,58,0
17519,note_on,,239,0,9,,,,,,,,,,,,,,,,6,,65,0
17519,note_on,,239,0,5,,,,,,,,,,,,,,,,0,,75,0
17520,note_on,,1,0,12,,,,,,,,,,,,,,,,10,,74,72
17520,note_on,,1,0,10,,,,,,,,,,,,,,,,7,,58,72
17520,note_on,,1,0,8,,,,,,,,,,,,,,,,5,,74,72
17520,note_on,,1,0,11,,,,,,,,,,,,,,,,8,,46,72
17520,note_on,,1,0,9,,,,,,,,,,,,,,,,6,,65,72
17520,note_on,,1,0,6,,,,,,,,,,,,,,,,1,,68,72
17520,note_on,,1,0,16,,,,,,,,,,,,,,,,15,,62,72
17520,note_on,,0,0,16,,,,,,,,,,,,,,,,15,,53,72
17520,note_on,,1,0,5,,,,,,,,,,,,,,,,0,,74,72
17639,note_on,,119,0,16,,,,,,,,,,,,,,,,15,,46,0
17639,note_on,,359,0,14,,,,,,,,,,,,,,,,12,,65,0
17639,note_on,,359,0,7,,,,,,,,,,,,,,,,2,,46,0
17639,note_on,,359,0,13,,,,,,,,,,,,,,,,11,,70,0
17639,note_on,,359,0,15,,,,,,,,,,,,,,,,13,,46,0
17640,note_on,,1,0,7,,,,,,,,,,,,,,,,2,,46,72
17640,note_on,,1,0,13,,,,,,,,,,,,,,,,11,,70,72
17640,note_on,,1,0,16,,,,,,,,,,,,,,,,15,,46,72
17640,note_on,,1,0,15,,,,,,,,,,,,,,,,13,,46,72
17640,note_on,,1,0,14,,,,,,,,,,,,,,,,12,,65,72
17699,note_on,,179,0,11,,,,,,,,,,,,,,,,8,,46,0
17699,note_on,,179,0,6,,,,,,,,,,,,,,,,1,,68,0
17699,note_on,,179,0,9,,,,,,,,,,,,,,,,6,,65,0
17699,note_on,,179,0,8,,,,,,,,,,,,,,,,5,,74,0
17699,note_on,,179,0,10,,,,,,,,,,,,,,,,7,,58,0
17700,note_on,,1,0,6,,,,,,,,,,,,,,,,1,,67,72
17700,note_on,,1,0,9,,,,,,,,,,,,,,,,6,,65,72
17700,note_on,,1,0,8,,,,,,,,,,,,,,,,5,,74,72
17700,note_on,,1,0,11,,,,,,,,,,,,,,,,8,,46,72
17700,note_on,,1,0,10,,,,,,,,,,,,,,,,7,,58,72
17759,note_on,,119,0,7,,,,,,,,,,,,,,,,2,,46,0
17759,note_on,,239,0,12,,,,,,,,,,,,,,,,10,,74,0
17759,note_on,,239,0,5,,,,,,,,,,,,,,,,0,,74,0
17759,note_on,,0,0,16,,,,,,,,,,,,,,,,15,,46,0
17759,note_on,,59,0,6,,,,,,,,,,,,,,,,1,,67,0
17759,note_on,,0,0,16,,,,,,,,,,,,,,,,15,,53,0
17759,note_on,,59,0,10,,,,,,,,,,,,,,,,7,,58,0
17759,note_on,,0,0,16,,,,,,,,,,,,,,,,15,,65,0
17759,note_on,,0,0,16,,,,,,,,,,,,,,,,15,,62,0
17759,note_on,,59,0,9,,,,,,,,,,,,,,,,6,,65,0
17759,note_on,,119,0,15,,,,,,,,,,,,,,,,13,,46,0
17759,note_on,,119,0,13,,,,,,,,,,,,,,,,11,,70,0
17759,note_on,,59,0,8,,,,,,,,,,,,,,,,5,,74,0
17759,note_on,,119,0,14,,,,,,,,,,,,,,,,12,,65,0
17759,note_on,,119,0,16,,,,,,,,,,,,,,,,15,,70,0
17759,note_on,,59,0,11,,,,,,,,,,,,,,,,8,,46,0
17760,note_on,,0,0,16,,,,,,,,,,,,,,,,15,,63,72
17760,note_on,,1,0,9,,,,,,,,,,,,,,,,6,,67,72
17760,note_on,,1,0,10,,,,,,,,,,,,,,,,7,,58,72
17760,note_on,,0,0,16,,,,,,,,,,,,,,,,15,,51,72
17760,note_on,,1,0,8,,,,,,,,,,,,,,,,5,,75,72
17760,note_on,,1,0,5,,,,,,,,,,,,,,,,0,,75,72
17760,note_on,,0,0,16,,,,,,,,,,,,,,,,15,,67,72
17760,note_on,,1,0,16,,,,,,,,,,,,,,,,15,,39,72
17760,note_on,,1,0,6,,,,,,,,,,,,,,,,1,,67,72
17760,note_on,,1,0,7,,,,,,,,,,,,,,,,2,,39,72
17760,note_on,,1,0,12,,,,,,,,,,,,,,,,10,,75,72
17760,note_on,,1,0,15,,,,,,,,,,,,,,,,13,,39,72
17760,note_on,,1,0,13,,,,,,,,,,,,,,,,11,,75,72
17760,note_on,,1,0,14,,,,,,,,,,,,,,,,12,,67,72
17760,note_on,,1,0,11,,,,,,,,,,,,,,,,8,,51,72
17760,note_on,,0,0,16,,,,,,,,,,,,,,,,15,,70,72
18719,note_on,,959,0,16,,,,,,,,,,,,,,,,15,,39,0
18719,note_on,,0,0,16,,,,,,,,,,,,,,,,15,,70,0
18719,note_on,,0,0,16,,,,,,,,,,,,,,,,15,,63,0
18719,note_on,,0,0,16,,,,,,,,,,,,,,,,15,,67,0
18719,note_on,,959,0,7,,,,,,,,,,,,,,,,2,,39,0
18719,note_on,,0,0,16,,,,,,,,,,,,,,,,15,,51,0
18719,note_on,,959,0,8,,,,,,,,,,,,,,,,5,,75,0
18719,end_of_track,,0,1,8,,,,,,,,,,,,,,,,,,,
18719,note_on,,959,0,9,,,,,,,,,,,,,,,,6,,67,0
18719,end_of_track,,0,1,9,,,,,,,,,,,,,,,,,,,
18719,note_on,,959,0,10,,,,,,,,,,,,,,,,7,,58,0
18719,end_of_track,,0,1,10,,,,,,,,,,,,,,,,,,,
18719,note_on,,959,0,11,,,,,,,,,,,,,,,,8,,51,0
18719,end_of_track,,0,1,11,,,,,,,,,,,,,,,,,,,
18719,end_of_track,,0,1,6,,,,,,,,,,,,,,,,,,,
18719,note_on,,959,0,6,,,,,,,,,,,,,,,,1,,67,0
18719,end_of_track,,0,1,16,,,,,,,,,,,,,,,,,,,
18719,end_of_track,,0,1,12,,,,,,,,,,,,,,,,,,,
18719,end_of_track,,0,1,7,,,,,,,,,,,,,,,,,,,
18719,note_on,,959,0,13,,,,,,,,,,,,,,,,11,,75,0
18719,end_of_track,,0,1,13,,,,,,,,,,,,,,,,,,,
18719,note_on,,959,0,14,,,,,,,,,,,,,,,,12,,67,0
18719,end_of_track,,0,1,14,,,,,,,,,,,,,,,,,,,
18719,end_of_track,,0,1,5,,,,,,,,,,,,,,,,,,,
18719,note_on,,959,0,5,,,,,,,,,,,,,,,,0,,75,0
18719,note_on,,959,0,15,,,,,,,,,,,,,,,,13,,39,0
18719,end_of_track,,0,1,15,,,,,,,,,,,,,,,,,,,
18719,note_on,,959,0,12,,,,,,,,,,,,,,,,10,,75,0
19200,set_tempo,,19200,1,0,,,,,,,,,500000,,,,,,,,,,
19200,end_of_track,,0,1,0,,,,,,,,,,,,,,,,,,,
