tick,type,data,time,meta,track,frame_rate,hours,minutes,seconds,frames,sub_frames,port,key,tempo,numerator,denominator,clocks_per_click,notated_32nd_notes_per_beat,control,value,channel,program,note,velocity
0,sequencer_specific,"(0, 0, 91, 35, 1, 0, 5, 4, 35, 0)",0,1,0,,,,,,,,,,,,,,,,,,,
0,midi_port,,0,1,6,,,,,,,0,,,,,,,,,,,,
0,control_change,,0,0,6,,,,,,,,,,,,,,11,127,5,,,
0,control_change,,0,0,6,,,,,,,,,,,,,,10,70,5,,,
0,control_change,,0,0,6,,,,,,,,,,,,,,7,96,5,,,
0,program_change,,0,0,6,,,,,,,,,,,,,,,,5,73,,
0,track_name,,0,1,7,,,,,,,,,,,,,,,,,,,
0,midi_port,,0,1,7,,,,,,,0,,,,,,,,,,,,
0,control_change,,0,0,7,,,,,,,,,,,,,,11,127,10,,,
0,control_change,,0,0,7,,,,,,,,,,,,,,7,96,10,,,
0,control_change,,0,0,7,,,,,,,,,,,,,,10,32,10,,,
0,program_change,,0,0,7,,,,,,,,,,,,,,,,10,48,,
0,note_on,,0,0,7,,,,,,,,,,,,,,,,10,,74,72
0,track_name,,0,1,8,,,,,,,,,,,,,,,,,,,
0,midi_port,,0,1,8,,,,,,,0,,,,,,,,,,,,
0,control_change,,0,0,8,,,,,,,,,,,,,,11,127,13,,,
0,control_change,,0,0,8,,,,,,,,,,,,,,7,96,13,,,
0,control_change,,0,0,8,,,,,,,,,,,,,,10,96,13,,,
0,program_change,,0,0,8,,,,,,,,,,,,,,,,13,48,,
0,track_name,,0,1,9,,,,,,,,,,,,,,,,,,,
0,midi_port,,0,1,9,,,,,,,0,,,,,,,,,,,,
0,control_change,,0,0,9,,,,,,,,,,,,,,11,127,15,,,
0,control_change,,0,0,9,,,,,,,,,,,,,,7,96,15,,,
0,program_change,,0,0,9,,,,,,,,,,,,,,,,15,6,,
0,track_name,,0,1,6,,,,,,,,,,,,,,,,,,,
0,program_change,,0,0,5,,,,,,,,,,,,,,,,2,70,,
0,control_change,,0,0,9,,,,,,,,,,,,,,10,64,15,,,
0,control_change,,0,0,5,,,,,,,,,,,,,,7,80,2,,,
0,set_tempo,,0,1,0,,,,,,,,,923076,,,,,,,,,,
0,key_signature,,0,1,0,,,,,,,,Gm,,,,,,,,,,,
0,midi_port,,0,1,0,,,,,,,0,,,,,,,,,,,,
0,smpte_offset,,0,1,0,25,32,0,3,0,0,,,,,,,,,,,,,
0,instrument_name,,0,1,0,,,,,,,,,,,,,,,,,,,
0,track_name,,0,1,0,,,,,,,,,,,,,,,,,,,
0,time_signature,,0,1,0,,,,,,,,,,13,8,12,8,,,,,,
0,track_name,,0,1,1,,,,,,,,,,,,,,,,,,,
0,midi_port,,0,1,1,,,,,,,0,,,,,,,,,,,,
0,track_name,,0,1,2,,,,,,,,,,,,,,,,,,,
0,end_of_track,,0,1,1,,,,,,,,,,,,,,,,,,,
0,end_of_track,,0,1,2,,,,,,,,,,,,,,,,,,,
0,track_name,,0,1,3,,,,,,,,,,,,,,,,,,,
0,midi_port,,0,1,3,,,,,,,0,,,,,,,,,,,,
0,end_of_track,,0,1,3,,,,,,,,,,,,,,,,,,,
0,control_change,,0,0,5,,,,,,,,,,,,,,10,65,2,,,
0,midi_port,,0,1,4,,,,,,,0,,,,,,,,,,,,
0,end_of_track,,0,1,4,,,,,,,,,,,,,,,,,,,
0,track_name,,0,1,5,,,,,,,,,,,,,,,,,,,
0,midi_port,,0,1,5,,,,,,,0,,,,,,,,,,,,
0,midi_port,,0,1,2,,,,,,,0,,,,,,,,,,,,
0,control_change,,0,0,5,,,,,,,,,,,,,,11,127,2,,,
59,note_on,,59,0,7,,,,,,,,,,,,,,,,10,,74,0
60,note_on,,60,0,8,,,,,,,,,,,,,,,,13,,55,72
60,note_on,,1,0,7,,,,,,,,,,,,,,,,10,,70,72
60,note_on,,60,0,5,,,,,,,,,,,,,,,,2,,55,72
60,note_on,,60,0,9,,,,,,,,,,,,,,,,15,,55,72
60,note_on,,0,0,9,,,,,,,,,,,,,,,,15,,70,72
60,note_on,,0,0,9,,,,,,,,,,,,,,,,15,,67,72
60,note_on,,0,0,9,,,,,,,,,,,,,,,,15,,62,72
149,note_on,,89,0,7,,,,,,,,,,,,,,,,10,,70,0
150,note_on,,1,0,7,,,,,,,,,,,,,,,,10,,69,72
179,note_on,,119,0,9,,,,,,,,,,,,,,,,15,,55,0
179,note_on,,119,0,5,,,,,,,,,,,,,,,,2,,55,0
179,note_on,,119,0,8,,,,,,,,,,,,,,,,13,,55,0
179,note_on,,29,0,7,,,,,,,,,,,,,,,,10,,69,0
180,note_on,,1,0,7,,,,,,,,,,,,,,,,10,,67,72
180,note_on,,1,0,5,,,,,,,,,,,,,,,,2,,58,72
180,note_on,,1,0,8,,,,,,,,,,,,,,,,13,,58,72
180,note_on,,1,0,9,,,,,,,,,,,,,,,,15,,58,72
239,note_on,,59,0,5,,,,,,,,,,,,,,,,2,,58,0
239,note_on,,0,0,9,,,,,,,,,,,,,,,,15,,62,0
239,note_on,,0,0,9,,,,,,,,,,,,,,,,15,,58,0
239,note_on,,59,0,9,,,,,,,,,,,,,,,,15,,70,0
239,note_on,,59,0,7,,,,,,,,,,,,,,,,10,,67,0
239,note_on,,0,0,9,,,,,,,,,,,,,,,,15,,67,0
239,note_on,,59,0,8,,,,,,,,,,,,,,,,13,,58,0
240,note_on,,1,0,9,,,,,,,,,,,,,,,,15,,57,72
240,note_on,,0,0,9,,,,,,,,,,,,,,,,15,,60,72
240,note_on,,0,0,9,,,,,,,,,,,,,,,,15,,69,72
240,note_on,,1,0,7,,,,,,,,,,,,,,,,10,,67,72
240,note_on,,1,0,8,,,,,,,,,,,,,,,,13,,57,72
240,note_on,,0,0,9,,,,,,,,,,,,,,,,15,,72,72
240,note_on,,1,0,5,,,,,,,,,,,,,,,,2,,57,72
359,note_on,,119,0,7,,,,,,,,,,,,,,,,10,,67,0
359,note_on,,0,0,9,,,,,,,,,,,,,,,,15,,60,0
359,note_on,,119,0,9,,,,,,,,,,,,,,,,15,,57,0
359,note_on,,119,0,5,,,,,,,,,,,,,,,,2,,57,0
359,note_on,,119,0,8,,,,,,,,,,,,,,,,13,,57,0
360,note_on,,1,0,7,,,,,,,,,,,,,,,,10,,66,72
360,note_on,,0,0,9,,,,,,,,,,,,,,,,15,,63,72
360,note_on,,1,0,9,,,,,,,,,,,,,,,,15,,60,72
360,note_on,,1,0,8,,,,,,,,,,,,,,,,13,,60,72
360,note_on,,1,0,5,,,,,,,,,,,,,,,,2,,60,72
419,note_on,,0,0,9,,,,,,,,,,,,,,,,15,,60,0
419,note_on,,0,0,9,,,,,,,,,,,,,,,,15,,63,0
419,note_on,,0,0,9,,,,,,,,,,,,,,,,15,,69,0
419,note_on,,59,0,9,,,,,,,,,,,,,,,,15,,72,0
419,note_on,,59,0,5,,,,,,,,,,,,,,,,2,,60,0
419,note_on,,59,0,7,,,,,,,,,,,,,,,,10,,66,0
419,note_on,,59,0,8,,,,,,,,,,,,,,,,13,,60,0
420,note_on,,0,0,9,,,,,,,,,,,,,,,,15,,67,72
420,note_on,,0,0,9,,,,,,,,,,,,,,,,15,,74,72
420,note_on,,0,0,9,,,,,,,,,,,,,,,,15,,62,72
420,note_on,,1,0,9,,,,,,,,,,,,,,,,15,,58,72
420,note_on,,1,0,7,,,,,,,,,,,,,,,,10,,67,72
420,note_on,,1,0,8,,,,,,,,,,,,,,,,13,,58,72
420,note_on,,1,0,5,,,,,,,,,,,,,,,,2,,58,72
509,note_on,,89,0,7,,,,,,,,,,,,,,,,10,,67,0
510,note_on,,1,0,7,,,,,,,,,,,,,,,,10,,69,72
539,note_on,,119,0,9,,,,,,,,,,,,,,,,15,,58,0
539,note_on,,29,0,7,,,,,,,,,,,,,,,,10,,69,0
539,note_on,,119,0,8,,,,,,,,,,,,,,,,13,,58,0
539,note_on,,119,0,5,,,,,,,,,,,,,,,,2,,58,0
540,note_on,,1,0,8,,,,,,,,,,,,,,,,13,,55,72
540,note_on,,1,0,7,,,,,,,,,,,,,,,,10,,70,72
540,note_on,,1,0,5,,,,,,,,,,,,,,,,2,,55,72
540,note_on,,1,0,9,,,,,,,,,,,,,,,,15,,55,72
599,note_on,,59,0,7,,,,,,,,,,,,,,,,10,,70,0
599,note_on,,59,0,5,,,,,,,,,,,,,,,,2,,55,0
599,note_on,,0,0,9,,,,,,,,,,,,,,,,15,,55,0
599,note_on,,59,0,8,,,,,,,,,,,,,,,,13,,55,0
599,note_on,,0,0,9,,,,,,,,,,,,,,,,15,,67,0
599,note_on,,59,0,9,,,,,,,,,,,,,,,,15,,62,0
599,note_on,,0,0,9,,,,,,,,,,,,,,,,15,,74,0
600,note_on,,0,0,9,,,,,,,,,,,,,,,,15,,63,72
600,note_on,,0,0,9,,,,,,,,,,,,,,,,15,,69,72
600,note_on,,0,0,9,,,,,,,,,,,,,,,,15,,72,72
600,note_on,,1,0,9,,,,,,,,,,,,,,,,15,,55,72
600,note_on,,1,0,7,,,,,,,,,,,,,,,,10,,69,72
600,note_on,,1,0,8,,,,,,,,,,,,,,,,13,,55,72
600,note_on,,1,0,5,,,,,,,,,,,,,,,,2,,55,72
719,note_on,,119,0,8,,,,,,,,,,,,,,,,13,,55,0
719,note_on,,119,0,5,,,,,,,,,,,,,,,,2,,55,0
719,note_on,,0,0,9,,,,,,,,,,,,,,,,15,,72,0
719,note_on,,119,0,9,,,,,,,,,,,,,,,,15,,55,0
719,note_on,,119,0,7,,,,,,,,,,,,,,,,10,,69,0
719,note_on,,0,0,9,,,,,,,,,,,,,,,,15,,69,0
719,note_on,,0,0,9,,,,,,,,,,,,,,,,15,,63,0
720,note_on,,0,0,9,,,,,,,,,,,,,,,,15,,69,72
720,note_on,,1,0,7,,,,,,,,,,,,,,,,10,,69,72
720,note_on,,1,0,8,,,,,,,,,,,,,,,,13,,54,72
720,note_on,,1,0,9,,,,,,,,,,,,,,,,15,,54,72
720,note_on,,0,0,9,,,,,,,,,,,,,,,,15,,74,72
720,note_on,,1,0,5,,,,,,,,,,,,,,,,2,,54,72
720,note_on,,0,0,9,,,,,,,,,,,,,,,,15,,62,72
779,note_on,,59,0,7,,,,,,,,,,,,,,,,10,,69,0
779,note_on,,59,0,8,,,,,,,,,,,,,,,,13,,54,0
779,note_on,,59,0,9,,,,,,,,,,,,,,,,15,,54,0
779,note_on,,0,0,9,,,,,,,,,,,,,,,,15,,69,0
779,note_on,,0,0,9,,,,,,,,,,,,,,,,15,,62,0
779,note_on,,0,0,9,,,,,,,,,,,,,,,,15,,74,0
779,note_on,,59,0,5,,,,,,,,,,,,,,,,2,,54,0
780,note_on,,1,0,9,,,,,,,,,,,,,,,,15,,55,72
780,note_on,,0,0,9,,,,,,,,,,,,,,,,15,,70,72
780,note_on,,0,0,9,,,,,,,,,,,,,,,,15,,67,72
780,note_on,,0,0,9,,,,,,,,,,,,,,,,15,,62,72
780,note_on,,1,0,7,,,,,,,,,,,,,,,,10,,70,72
780,note_on,,1,0,8,,,,,,,,,,,,,,,,13,,55,72
780,note_on,,1,0,5,,,,,,,,,,,,,,,,2,,55,72
780,end_of_track,,0,1,0,,,,,,,,,,,,,,,,,,,
780,time_signature,,780,1,0,,,,,,,,,,12,8,24,8,,,,,,
869,note_on,,89,0,7,,,,,,,,,,,,,,,,10,,70,0
870,note_on,,1,0,7,,,,,,,,,,,,,,,,10,,72,72
899,note_on,,119,0,5,,,,,,,,,,,,,,,,2,,55,0
899,note_on,,119,0,9,,,,,,,,,,,,,,,,15,,55,0
899,note_on,,119,0,8,,,,,,,,,,,,,,,,13,,55,0
899,note_on,,29,0,7,,,,,,,,,,,,,,,,10,,72,0
900,note_on,,1,0,9,,,,,,,,,,,,,,,,15,,53,72
900,note_on,,1,0,8,,,,,,,,,,,,,,,,13,,53,72
900,note_on,,1,0,5,,,,,,,,,,,,,,,,2,,53,72
900,note_on,,1,0,7,,,,,,,,,,,,,,,,10,,70,72
959,note_on,,0,0,9,,,,,,,,,,,,,,,,15,,53,0
959,note_on,,0,0,9,,,,,,,,,,,,,,,,15,,62,0
959,note_on,,0,0,9,,,,,,,,,,,,,,,,15,,67,0
959,note_on,,59,0,9,,,,,,,,,,,,,,,,15,,70,0
959,note_on,,59,0,5,,,,,,,,,,,,,,,,2,,53,0
959,note_on,,59,0,7,,,,,,,,,,,,,,,,10,,70,0
959,note_on,,59,0,8,,,,,,,,,,,,,,,,13,,53,0
960,note_on,,1,0,5,,,,,,,,,,,,,,,,2,,52,72
960,note_on,,0,0,9,,,,,,,,,,,,,,,,15,,67,72
960,note_on,,0,0,9,,,,,,,,,,,,,,,,15,,60,72
960,note_on,,1,0,8,,,,,,,,,,,,,,,,13,,52,72
960,note_on,,1,0,9,,,,,,,,,,,,,,,,15,,52,72
960,note_on,,0,0,9,,,,,,,,,,,,,,,,15,,72,72
960,note_on,,1,0,7,,,,,,,,,,,,,,,,10,,79,72
1079,note_on,,119,0,8,,,,,,,,,,,,,,,,13,,52,0
1079,note_on,,119,0,5,,,,,,,,,,,,,,,,2,,52,0
1079,note_on,,119,0,9,,,,,,,,,,,,,,,,15,,52,0
1079,note_on,,0,0,9,,,,,,,,,,,,,,,,15,,60,0
1079,note_on,,119,0,7,,,,,,,,,,,,,,,,10,,79,0
1080,note_on,,1,0,5,,,,,,,,,,,,,,,,2,,48,72
1080,note_on,,0,0,9,,,,,,,,,,,,,,,,15,,64,72
1080,note_on,,1,0,9,,,,,,,,,,,,,,,,15,,48,72
1080,note_on,,1,0,7,,,,,,,,,,,,,,,,10,,70,72
1080,note_on,,1,0,8,,,,,,,,,,,,,,,,13,,48,72
1139,note_on,,59,0,5,,,,,,,,,,,,,,,,2,,48,0
1139,note_on,,0,0,9,,,,,,,,,,,,,,,,15,,64,0
1139,note_on,,59,0,7,,,,,,,,,,,,,,,,10,,70,0
1139,note_on,,0,0,9,,,,,,,,,,,,,,,,15,,67,0
1139,note_on,,59,0,9,,,,,,,,,,,,,,,,15,,72,0
1139,note_on,,59,0,8,,,,,,,,,,,,,,,,13,,48,0
1139,note_on,,0,0,9,,,,,,,,,,,,,,,,15,,48,0
1140,note_on,,1,0,7,,,,,,,,,,,,,,,,10,,69,72
1140,note_on,,1,0,5,,,,,,,,,,,,,,,,2,,53,72
1140,note_on,,1,0,8,,,,,,,,,,,,,,,,13,,53,72
1140,note_on,,0,0,9,,,,,,,,,,,,,,,,15,,69,72
1140,note_on,,0,0,9,,,,,,,,,,,,,,,,15,,65,72
1140,note_on,,0,0,9,,,,,,,,,,,,,,,,15,,60,72
1140,note_on,,1,0,9,,,,,,,,,,,,,,,,15,,53,72
1229,note_on,,89,0,7,,,,,,,,,,,,,,,,10,,69,0
1230,note_on,,1,0,7,,,,,,,,,,,,,,,,10,,70,72
1259,note_on,,119,0,5,,,,,,,,,,,,,,,,2,,53,0
1259,note_on,,119,0,8,,,,,,,,,,,,,,,,13,,53,0
1259,note_on,,29,0,7,,,,,,,,,,,,,,,,10,,70,0
1259,note_on,,119,0,9,,,,,,,,,,,,,,,,15,,53,0
1260,note_on,,1,0,7,,,,,,,,,,,,,,,,10,,69,72
1260,note_on,,1,0,9,,,,,,,,,,,,,,,,15,,51,72
1260,note_on,,1,0,8,,,,,,,,,,,,,,,,13,,51,72
1260,note_on,,1,0,5,,,,,,,,,,,,,,,,2,,51,72
1319,note_on,,0,0,9,,,,,,,,,,,,,,,,15,,60,0
1319,note_on,,0,0,9,,,,,,,,,,,,,,,,15,,65,0
1319,note_on,,59,0,9,,,,,,,,,,,,,,,,15,,69,0
1319,note_on,,59,0,7,,,,,,,,,,,,,,,,10,,69,0
1319,note_on,,59,0,5,,,,,,,,,,,,,,,,2,,51,0
1319,note_on,,0,0,9,,,,,,,,,,,,,,,,15,,51,0
1319,note_on,,59,0,8,,,,,,,,,,,,,,,,13,,51,0
1320,note_on,,1,0,8,,,,,,,,,,,,,,,,13,,50,72
1320,note_on,,1,0,7,,,,,,,,,,,,,,,,10,,77,72
1320,note_on,,1,0,5,,,,,,,,,,,,,,,,2,,50,72
1320,note_on,,1,0,9,,,,,,,,,,,,,,,,15,,50,72
1320,note_on,,0,0,9,,,,,,,,,,,,,,,,15,,70,72
1320,note_on,,0,0,9,,,,,,,,,,,,,,,,15,,65,72
1320,note_on,,0,0,9,,,,,,,,,,,,,,,,15,,58,72
1439,note_on,,119,0,8,,,,,,,,,,,,,,,,13,,50,0
1439,note_on,,119,0,5,,,,,,,,,,,,,,,,2,,50,0
1439,note_on,,119,0,7,,,,,,,,,,,,,,,,10,,77,0
1439,note_on,,119,0,9,,,,,,,,,,,,,,,,15,,50,0
1439,note_on,,0,0,9,,,,,,,,,,,,,,,,15,,58,0
1440,note_on,,0,0,9,,,,,,,,,,,,,,,,15,,62,72
1440,note_on,,1,0,5,,,,,,,,,,,,,,,,2,,46,72
1440,note_on,,1,0,8,,,,,,,,,,,,,,,,13,,46,72
1440,note_on,,1,0,7,,,,,,,,,,,,,,,,10,,68,72
1440,note_on,,1,0,9,,,,,,,,,,,,,,,,15,,46,72
1499,note_on,,59,0,9,,,,,,,,,,,,,,,,15,,70,0
1499,note_on,,59,0,5,,,,,,,,,,,,,,,,2,,46,0
1499,note_on,,0,0,9,,,,,,,,,,,,,,,,15,,62,0
1499,note_on,,59,0,8,,,,,,,,,,,,,,,,13,,46,0
1499,note_on,,0,0,9,,,,,,,,,,,,,,,,15,,46,0
1499,note_on,,0,0,9,,,,,,,,,,,,,,,,15,,65,0
1499,note_on,,59,0,7,,,,,,,,,,,,,,,,10,,68,0
1500,note_on,,1,0,8,,,,,,,,,,,,,,,,13,,51,72
1500,note_on,,1,0,5,,,,,,,,,,,,,,,,2,,51,72
1500,note_on,,1,0,9,,,,,,,,,,,,,,,,15,,51,72
1500,note_on,,0,0,9,,,,,,,,,,,,,,,,15,,67,72
1500,note_on,,0,0,9,,,,,,,,,,,,,,,,15,,63,72
1500,note_on,,0,0,9,,,,,,,,,,,,,,,,15,,58,72
1500,note_on,,1,0,7,,,,,,,,,,,,,,,,10,,67,72
1589,note_on,,89,0,7,,,,,,,,,,,,,,,,10,,67,0
1590,note_on,,1,0,7,,,,,,,,,,,,,,,,10,,66,72
1619,note_on,,119,0,8,,,,,,,,,,,,,,,,13,,51,0
1619,note_on,,119,0,9,,,,,,,,,,,,,,,,15,,51,0
1619,note_on,,29,0,7,,,,,,,,,,,,,,,,10,,66,0
1619,note_on,,119,0,5,,,,,,,,,,,,,,,,2,,51,0
1620,note_on,,1,0,5,,,,,,,,,,,,,,,,2,,50,72
1620,note_on,,1,0,7,,,,,,,,,,,,,,,,10,,67,72
1620,note_on,,1,0,8,,,,,,,,,,,,,,,,13,,50,72
1620,note_on,,1,0,9,,,,,,,,,,,,,,,,15,,50,72
1679,note_on,,59,0,8,,,,,,,,,,,,,,,,13,,50,0
1679,note_on,,59,0,5,,,,,,,,,,,,,,,,2,,50,0
1679,note_on,,59,0,9,,,,,,,,,,,,,,,,15,,67,0
1679,note_on,,0,0,9,,,,,,,,,,,,,,,,15,,63,0
1679,note_on,,0,0,9,,,,,,,,,,,,,,,,15,,58,0
1679,note_on,,0,0,9,,,,,,,,,,,,,,,,15,,50,0
1679,note_on,,59,0,7,,,,,,,,,,,,,,,,10,,67,0
1680,note_on,,1,0,5,,,,,,,,,,,,,,,,2,,48,72
1680,note_on,,1,0,9,,,,,,,,,,,,,,,,15,,48,72
1680,note_on,,0,0,9,,,,,,,,,,,,,,,,15,,72,72
1680,note_on,,0,0,9,,,,,,,,,,,,,,,,15,,69,72
1680,note_on,,0,0,9,,,,,,,,,,,,,,,,15,,63,72
1680,note_on,,1,0,7,,,,,,,,,,,,,,,,10,,75,72
1680,note_on,,1,0,8,,,,,,,,,,,,,,,,13,,48,72
1799,note_on,,119,0,5,,,,,,,,,,,,,,,,2,,48,0
1799,note_on,,119,0,8,,,,,,,,,,,,,,,,13,,48,0
1799,note_on,,119,0,9,,,,,,,,,,,,,,,,15,,48,0
1799,note_on,,119,0,7,,,,,,,,,,,,,,,,10,,75,0
1799,note_on,,0,0,9,,,,,,,,,,,,,,,,15,,63,0
1800,note_on,,0,0,9,,,,,,,,,,,,,,,,15,,60,72
1800,note_on,,1,0,7,,,,,,,,,,,,,,,,10,,67,72
1800,note_on,,1,0,9,,,,,,,,,,,,,,,,15,,51,72
1800,note_on,,1,0,5,,,,,,,,,,,,,,,,2,,51,72
1800,note_on,,1,0,8,,,,,,,,,,,,,,,,13,,51,72
1859,note_on,,59,0,8,,,,,,,,,,,,,,,,13,,51,0
1859,note_on,,0,0,9,,,,,,,,,,,,,,,,15,,60,0
1859,note_on,,0,0,9,,,,,,,,,,,,,,,,15,,51,0
1859,note_on,,0,0,9,,,,,,,,,,,,,,,,15,,69,0
1859,note_on,,59,0,9,,,,,,,,,,,,,,,,15,,72,0
1859,note_on,,59,0,5,,,,,,,,,,,,,,,,2,,51,0
1859,note_on,,59,0,7,,,,,,,,,,,,,,,,10,,67,0
1860,note_on,,0,0,9,,,,,,,,,,,,,,,,15,,66,72
1860,note_on,,0,0,9,,,,,,,,,,,,,,,,15,,69,72
1860,note_on,,0,0,9,,,,,,,,,,,,,,,,15,,57,72
1860,note_on,,1,0,9,,,,,,,,,,,,,,,,15,,50,72
1860,note_on,,1,0,7,,,,,,,,,,,,,,,,10,,66,72
1860,note_on,,0,0,9,,,,,,,,,,,,,,,,15,,62,72
1860,note_on,,1,0,8,,,,,,,,,,,,,,,,13,,50,72
1860,note_on,,1,0,5,,,,,,,,,,,,,,,,2,,50,72
1979,note_on,,119,0,7,,,,,,,,,,,,,,,,10,,66,0
1979,note_on,,119,0,9,,,,,,,,,,,,,,,,15,,57,0
1980,note_on,,1,0,7,,,,,,,,,,,,,,,,10,,75,72
2039,note_on,,179,0,8,,,,,,,,,,,,,,,,13,,50,0
2039,note_on,,0,0,9,,,,,,,,,,,,,,,,15,,69,0
2039,note_on,,60,0,9,,,,,,,,,,,,,,,,15,,50,0
2039,note_on,,0,0,9,,,,,,,,,,,,,,,,15,,62,0
2039,note_on,,0,0,9,,,,,,,,,,,,,,,,15,,66,0
2039,note_on,,59,0,7,,,,,,,,,,,,,,,,10,,75,0
2039,note_on,,179,0,5,,,,,,,,,,,,,,,,2,,50,0
2040,note_on,,1,0,7,,,,,,,,,,,,,,,,10,,74,72
2160,note_on,,121,0,5,,,,,,,,,,,,,,,,2,,60,72
2160,note_on,,0,0,9,,,,,,,,,,,,,,,,15,,66,72
2160,note_on,,0,0,9,,,,,,,,,,,,,,,,15,,62,72
2160,note_on,,121,0,8,,,,,,,,,,,,,,,,13,,60,72
2160,note_on,,121,0,9,,,,,,,,,,,,,,,,15,,60,72
2219,note_on,,59,0,9,,,,,,,,,,,,,,,,15,,60,0
2219,note_on,,0,0,9,,,,,,,,,,,,,,,,15,,66,0
2219,note_on,,0,0,9,,,,,,,,,,,,,,,,15,,62,0
2219,note_on,,59,0,5,,,,,,,,,,,,,,,,2,,60,0
2219,note_on,,59,0,8,,,,,,,,,,,,,,,,13,,60,0
2220,note_on,,0,0,9,,,,,,,,,,,,,,,,15,,67,72
2220,note_on,,0,0,9,,,,,,,,,,,,,,,,15,,62,72
2220,note_on,,1,0,5,,,,,,,,,,,,,,,,2,,58,72
2220,note_on,,1,0,8,,,,,,,,,,,,,,,,13,,58,72
2220,note_on,,1,0,9,,,,,,,,,,,,,,,,15,,58,72
2309,note_on,,89,0,9,,,,,,,,,,,,,,,,15,,58,0
2309,note_on,,89,0,5,,,,,,,,,,,,,,,,2,,58,0
2309,note_on,,0,0,9,,,,,,,,,,,,,,,,15,,62,0
2309,note_on,,0,0,9,,,,,,,,,,,,,,,,15,,67,0
2309,note_on,,89,0,8,,,,,,,,,,,,,,,,13,,58,0
2309,note_on,,269,0,7,,,,,,,,,,,,,,,,10,,74,0
2310,note_on,,1,0,5,,,,,,,,,,,,,,,,2,,57,72
2310,note_on,,1,0,8,,,,,,,,,,,,,,,,13,,57,72
2310,note_on,,1,0,7,,,,,,,,,,,,,,,,10,,72,72
2310,note_on,,1,0,9,,,,,,,,,,,,,,,,15,,57,72
2310,note_on,,0,0,9,,,,,,,,,,,,,,,,15,,69,72
2310,note_on,,0,0,9,,,,,,,,,,,,,,,,15,,66,72
2310,note_on,,0,0,9,,,,,,,,,,,,,,,,15,,60,72
2339,note_on,,29,0,7,,,,,,,,,,,,,,,,10,,72,0
2339,note_on,,29,0,8,,,,,,,,,,,,,,,,13,,57,0
2339,note_on,,0,0,9,,,,,,,,,,,,,,,,15,,60,0
2339,note_on,,0,0,9,,,,,,,,,,,,,,,,15,,66,0
2339,note_on,,0,0,9,,,,,,,,,,,,,,,,15,,69,0
2339,note_on,,29,0,9,,,,,,,,,,,,,,,,15,,57,0
2339,note_on,,29,0,5,,,,,,,,,,,,,,,,2,,57,0
2340,note_on,,1,0,9,,,,,,,,,,,,,,,,15,,55,72
2340,note_on,,0,0,9,,,,,,,,,,,,,,,,15,,70,72
2340,note_on,,0,0,9,,,,,,,,,,,,,,,,15,,62,72
2340,note_on,,1,0,5,,,,,,,,,,,,,,,,2,,55,72
2340,note_on,,1,0,7,,,,,,,,,,,,,,,,10,,70,72
2340,note_on,,1,0,8,,,,,,,,,,,,,,,,13,,55,72
2399,note_on,,59,0,5,,,,,,,,,,,,,,,,2,,55,0
2399,note_on,,0,0,9,,,,,,,,,,,,,,,,15,,70,0
2399,note_on,,0,0,9,,,,,,,,,,,,,,,,15,,62,0
2399,note_on,,59,0,9,,,,,,,,,,,,,,,,15,,55,0
2399,note_on,,59,0,7,,,,,,,,,,,,,,,,10,,70,0
2399,note_on,,59,0,8,,,,,,,,,,,,,,,,13,,55,0
2400,note_on,,0,0,9,,,,,,,,,,,,,,,,15,,62,72
2400,note_on,,0,0,9,,,,,,,,,,,,,,,,15,,67,72
2400,note_on,,1,0,9,,,,,,,,,,,,,,,,15,,50,72
2400,note_on,,1,0,8,,,,,,,,,,,,,,,,13,,50,72
2400,note_on,,0,0,9,,,,,,,,,,,,,,,,15,,58,72
2400,note_on,,1,0,5,,,,,,,,,,,,,,,,2,,50,72
2400,note_on,,1,0,7,,,,,,,,,,,,,,,,10,,70,72
2519,note_on,,0,0,9,,,,,,,,,,,,,,,,15,,67,0
2519,note_on,,119,0,5,,,,,,,,,,,,,,,,2,,50,0
2519,note_on,,119,0,8,,,,,,,,,,,,,,,,13,,50,0
2519,note_on,,119,0,7,,,,,,,,,,,,,,,,10,,70,0
2519,note_on,,0,0,9,,,,,,,,,,,,,,,,15,,58,0
2519,note_on,,0,0,9,,,,,,,,,,,,,,,,15,,62,0
2519,note_on,,119,0,9,,,,,,,,,,,,,,,,15,,50,0
2520,note_on,,0,0,9,,,,,,,,,,,,,,,,15,,62,72
2520,note_on,,1,0,7,,,,,,,,,,,,,,,,10,,69,72
2520,note_on,,1,0,8,,,,,,,,,,,,,,,,13,,38,72
2520,note_on,,1,0,9,,,,,,,,,,,,,,,,15,,38,72
2520,note_on,,0,0,9,,,,,,,,,,,,,,,,15,,50,72
2520,note_on,,1,0,5,,,,,,,,,,,,,,,,2,,38,72
2520,note_on,,0,0,9,,,,,,,,,,,,,,,,15,,57,72
2520,note_on,,0,0,9,,,,,,,,,,,,,,,,15,,66,72
2579,note_on,,59,0,5,,,,,,,,,,,,,,,,2,,38,0
2579,note_on,,59,0,7,,,,,,,,,,,,,,,,10,,69,0
2579,note_on,,59,0,8,,,,,,,,,,,,,,,,13,,38,0
2579,note_on,,0,0,9,,,,,,,,,,,,,,,,15,,57,0
2579,note_on,,0,0,9,,,,,,,,,,,,,,,,15,,62,0
2579,note_on,,0,0,9,,,,,,,,,,,,,,,,15,,66,0
2579,note_on,,0,0,9,,,,,,,,,,,,,,,,15,,50,0
2579,note_on,,59,0,9,,,,,,,,,,,,,,,,15,,38,0
2580,note_on,,1,0,7,,,,,,,,,,,,,,,,10,,67,72
2580,note_on,,0,0,9,,,,,,,,,,,,,,,,15,,62,72
2580,note_on,,0,0,9,,,,,,,,,,,,,,,,15,,67,72
2580,note_on,,0,0,9,,,,,,,,,,,,,,,,15,,50,72
2580,note_on,,1,0,8,,,,,,,,,,,,,,,,13,,43,72
2580,note_on,,0,0,9,,,,,,,,,,,,,,,,15,,58,72
2580,note_on,,1,0,9,,,,,,,,,,,,,,,,15,,43,72
2580,note_on,,1,0,5,,,,,,,,,,,,,,,,2,,43,72
2699,note_on,,119,0,7,,,,,,,,,,,,,,,,10,,67,0
2700,note_on,,1,0,7,,,,,,,,,,,,,,,,10,,62,72
2759,note_on,,0,0,9,,,,,,,,,,,,,,,,15,,50,0
2759,note_on,,59,0,7,,,,,,,,,,,,,,,,10,,62,0
2759,note_on,,179,0,5,,,,,,,,,,,,,,,,2,,43,0
2759,note_on,,179,0,9,,,,,,,,,,,,,,,,15,,43,0
2759,note_on,,179,0,8,,,,,,,,,,,,,,,,13,,43,0
2759,note_on,,0,0,9,,,,,,,,,,,,,,,,15,,58,0
2759,note_on,,0,0,9,,,,,,,,,,,,,,,,15,,62,0
2759,note_on,,0,0,9,,,,,,,,,,,,,,,,15,,67,0
2760,note_on,,1,0,7,,,,,,,,,,,,,,,,10,,55,72
2879,note_on,,119,0,7,,,,,,,,,,,,,,,,10,,55,0
2880,note_on,,2880,0,6,,,,,,,,,,,,,,,,5,,74,64
2939,note_on,,59,0,6,,,,,,,,,,,,,,,,5,,74,0
2940,note_on,,1,0,6,,,,,,,,,,,,,,,,5,,70,64
3029,note_on,,89,0,6,,,,,,,,,,,,,,,,5,,70,0
3030,note_on,,1,0,6,,,,,,,,,,,,,,,,5,,69,64
3059,note_on,,29,0,6,,,,,,,,,,,,,,,,5,,69,0
3060,note_on,,0,0,9,,,,,,,,,,,,,,,,15,,62,48
3060,note_on,,1,0,6,,,,,,,,,,,,,,,,5,,67,64
3060,note_on,,301,0,9,,,,,,,,,,,,,,,,15,,58,48
3060,note_on,,0,0,9,,,,,,,,,,,,,,,,15,,67,48
3060,note_on,,301,0,8,,,,,,,,,,,,,,,,13,,58,48
3119,note_on,,0,0,9,,,,,,,,,,,,,,,,15,,62,0
3119,note_on,,59,0,6,,,,,,,,,,,,,,,,5,,67,0
3119,note_on,,0,0,9,,,,,,,,,,,,,,,,15,,67,0
3119,note_on,,59,0,8,,,,,,,,,,,,,,,,13,,58,0
3119,note_on,,59,0,9,,,,,,,,,,,,,,,,15,,58,0
3120,note_on,,0,0,9,,,,,,,,,,,,,,,,15,,72,48
3120,note_on,,1,0,8,,,,,,,,,,,,,,,,13,,57,48
3120,note_on,,0,0,9,,,,,,,,,,,,,,,,15,,60,48
3120,note_on,,0,0,9,,,,,,,,,,,,,,,,15,,69,48
3120,note_on,,1,0,9,,,,,,,,,,,,,,,,15,,57,48
3120,note_on,,1,0,6,,,,,,,,,,,,,,,,5,,67,64
3239,note_on,,119,0,8,,,,,,,,,,,,,,,,13,,57,0
3239,note_on,,119,0,6,,,,,,,,,,,,,,,,5,,67,0
3239,note_on,,0,0,9,,,,,,,,,,,,,,,,15,,60,0
3239,note_on,,119,0,9,,,,,,,,,,,,,,,,15,,57,0
3240,note_on,,0,0,9,,,,,,,,,,,,,,,,15,,63,48
3240,note_on,,1,0,6,,,,,,,,,,,,,,,,5,,66,64
3240,note_on,,1,0,8,,,,,,,,,,,,,,,,13,,60,48
3240,note_on,,1,0,9,,,,,,,,,,,,,,,,15,,60,48
3299,note_on,,59,0,9,,,,,,,,,,,,,,,,15,,72,0
3299,note_on,,0,0,9,,,,,,,,,,,,,,,,15,,60,0
3299,note_on,,59,0,6,,,,,,,,,,,,,,,,5,,66,0
3299,note_on,,59,0,8,,,,,,,,,,,,,,,,13,,60,0
3299,note_on,,0,0,9,,,,,,,,,,,,,,,,15,,63,0
3299,note_on,,0,0,9,,,,,,,,,,,,,,,,15,,69,0
3300,note_on,,1,0,9,,,,,,,,,,,,,,,,15,,58,48
3300,note_on,,0,0,9,,,,,,,,,,,,,,,,15,,62,48
3300,note_on,,0,0,9,,,,,,,,,,,,,,,,15,,74,48
3300,note_on,,0,0,9,,,,,,,,,,,,,,,,15,,67,48
3300,note_on,,1,0,6,,,,,,,,,,,,,,,,5,,67,64
3300,note_on,,1,0,8,,,,,,,,,,,,,,,,13,,58,48
3389,note_on,,89,0,6,,,,,,,,,,,,,,,,5,,67,0
3390,note_on,,1,0,6,,,,,,,,,,,,,,,,5,,69,64
3419,note_on,,29,0,6,,,,,,,,,,,,,,,,5,,69,0
3419,note_on,,119,0,9,,,,,,,,,,,,,,,,15,,58,0
3419,note_on,,119,0,8,,,,,,,,,,,,,,,,13,,58,0
3420,note_on,,1,0,6,,,,,,,,,,,,,,,,5,,70,64
3420,note_on,,1,0,9,,,,,,,,,,,,,,,,15,,55,48
3420,note_on,,1,0,8,,,,,,,,,,,,,,,,13,,55,48
3479,note_on,,59,0,9,,,,,,,,,,,,,,,,15,,62,0
3479,note_on,,59,0,8,,,,,,,,,,,,,,,,13,,55,0
3479,note_on,,0,0,9,,,,,,,,,,,,,,,,15,,67,0
3479,note_on,,0,0,9,,,,,,,,,,,,,,,,15,,74,0
3479,note_on,,59,0,6,,,,,,,,,,,,,,,,5,,70,0
3479,note_on,,0,0,9,,,,,,,,,,,,,,,,15,,55,0
3480,note_on,,0,0,9,,,,,,,,,,,,,,,,15,,69,48
3480,note_on,,0,0,9,,,,,,,,,,,,,,,,15,,63,48
3480,note_on,,1,0,8,,,,,,,,,,,,,,,,13,,55,48
3480,note_on,,1,0,9,,,,,,,,,,,,,,,,15,,55,48
3480,note_on,,0,0,9,,,,,,,,,,,,,,,,15,,72,48
3480,note_on,,1,0,6,,,,,,,,,,,,,,,,5,,69,64
3599,note_on,,0,0,9,,,,,,,,,,,,,,,,15,,69,0
3599,note_on,,119,0,6,,,,,,,,,,,,,,,,5,,69,0
3599,note_on,,119,0,9,,,,,,,,,,,,,,,,15,,55,0
3599,note_on,,0,0,9,,,,,,,,,,,,,,,,15,,72,0
3599,note_on,,119,0,8,,,,,,,,,,,,,,,,13,,55,0
3599,note_on,,0,0,9,,,,,,,,,,,,,,,,15,,63,0
3600,note_on,,0,0,9,,,,,,,,,,,,,,,,15,,74,48
3600,note_on,,1,0,9,,,,,,,,,,,,,,,,15,,54,48
3600,note_on,,1,0,8,,,,,,,,,,,,,,,,13,,54,48
3600,note_on,,0,0,9,,,,,,,,,,,,,,,,15,,69,48
3600,note_on,,1,0,6,,,,,,,,,,,,,,,,5,,69,64
3600,note_on,,0,0,9,,,,,,,,,,,,,,,,15,,62,48
3659,note_on,,0,0,9,,,,,,,,,,,,,,,,15,,74,0
3659,note_on,,59,0,9,,,,,,,,,,,,,,,,15,,54,0
3659,note_on,,0,0,9,,,,,,,,,,,,,,,,15,,62,0
3659,note_on,,0,0,9,,,,,,,,,,,,,,,,15,,69,0
3659,note_on,,59,0,6,,,,,,,,,,,,,,,,5,,69,0
3659,note_on,,59,0,8,,,,,,,,,,,,,,,,13,,54,0
3660,note_on,,1,0,8,,,,,,,,,,,,,,,,13,,55,48
3660,note_on,,0,0,9,,,,,,,,,,,,,,,,15,,70,48
3660,note_on,,1,0,9,,,,,,,,,,,,,,,,15,,55,48
3660,note_on,,1,0,6,,,,,,,,,,,,,,,,5,,70,64
3660,note_on,,0,0,9,,,,,,,,,,,,,,,,15,,62,48
3660,note_on,,0,0,9,,,,,,,,,,,,,,,,15,,67,48
3749,note_on,,89,0,6,,,,,,,,,,,,,,,,5,,70,0
3750,note_on,,1,0,6,,,,,,,,,,,,,,,,5,,72,64
3779,note_on,,29,0,6,,,,,,,,,,,,,,,,5,,72,0
3779,note_on,,119,0,9,,,,,,,,,,,,,,,,15,,55,0
3779,note_on,,0,0,9,,,,,,,,,,,,,,,,15,,70,0
3779,note_on,,0,0,9,,,,,,,,,,,,,,,,15,,67,0
3779,note_on,,119,0,8,,,,,,,,,,,,,,,,13,,55,0
3779,note_on,,0,0,9,,,,,,,,,,,,,,,,15,,62,0
3780,note_on,,1,0,6,,,,,,,,,,,,,,,,5,,70,64
3839,note_on,,59,0,6,,,,,,,,,,,,,,,,5,,70,0
3840,note_on,,61,0,9,,,,,,,,,,,,,,,,15,,52,48
3840,note_on,,61,0,8,,,,,,,,,,,,,,,,13,,52,48
3840,note_on,,0,0,9,,,,,,,,,,,,,,,,15,,55,48
3840,note_on,,0,0,9,,,,,,,,,,,,,,,,15,,70,48
3840,note_on,,1,0,6,,,,,,,,,,,,,,,,5,,74,64
3840,note_on,,0,0,9,,,,,,,,,,,,,,,,15,,67,48
3929,note_on,,89,0,6,,,,,,,,,,,,,,,,5,,74,0
3930,note_on,,1,0,6,,,,,,,,,,,,,,,,5,,72,64
3959,note_on,,119,0,9,,,,,,,,,,,,,,,,15,,52,0
3959,note_on,,29,0,6,,,,,,,,,,,,,,,,5,,72,0
3959,note_on,,0,0,9,,,,,,,,,,,,,,,,15,,55,0
3959,note_on,,119,0,8,,,,,,,,,,,,,,,,13,,52,0
3959,note_on,,0,0,9,,,,,,,,,,,,,,,,15,,67,0
3959,note_on,,0,0,9,,,,,,,,,,,,,,,,15,,70,0
3960,note_on,,1,0,6,,,,,,,,,,,,,,,,5,,70,64
4019,note_on,,59,0,6,,,,,,,,,,,,,,,,5,,70,0
4020,note_on,,61,0,9,,,,,,,,,,,,,,,,15,,53,48
4020,note_on,,61,0,8,,,,,,,,,,,,,,,,13,,53,48
4020,note_on,,0,0,9,,,,,,,,,,,,,,,,15,,65,48
4020,note_on,,0,0,9,,,,,,,,,,,,,,,,15,,60,48
4020,note_on,,1,0,6,,,,,,,,,,,,,,,,5,,70,64
4139,note_on,,119,0,9,,,,,,,,,,,,,,,,15,,53,0
4139,note_on,,0,0,9,,,,,,,,,,,,,,,,15,,60,0
4139,note_on,,119,0,8,,,,,,,,,,,,,,,,13,,53,0
4139,note_on,,119,0,6,,,,,,,,,,,,,,,,5,,70,0
4139,note_on,,0,0,9,,,,,,,,,,,,,,,,15,,65,0
4140,note_on,,1,0,6,,,,,,,,,,,,,,,,5,,69,64
4140,note_on,,1261,0,7,,,,,,,,,,,,,,,,10,,77,48
4199,note_on,,59,0,6,,,,,,,,,,,,,,,,5,,69,0
4199,note_on,,59,0,7,,,,,,,,,,,,,,,,10,,77,0
4200,note_on,,1,0,7,,,,,,,,,,,,,,,,10,,84,48
4320,note_on,,121,0,6,,,,,,,,,,,,,,,,5,,65,64
4379,note_on,,59,0,6,,,,,,,,,,,,,,,,5,,65,0
4380,note_on,,241,0,9,,,,,,,,,,,,,,,,15,,45,48
4380,note_on,,0,0,9,,,,,,,,,,,,,,,,15,,72,48
4380,note_on,,0,0,9,,,,,,,,,,,,,,,,15,,53,48
4380,note_on,,0,0,9,,,,,,,,,,,,,,,,15,,60,48
4380,note_on,,0,0,9,,,,,,,,,,,,,,,,15,,65,48
4380,note_on,,241,0,8,,,,,,,,,,,,,,,,13,,45,48
4380,note_on,,1,0,6,,,,,,,,,,,,,,,,5,,75,64
4469,note_on,,89,0,6,,,,,,,,,,,,,,,,5,,75,0
4470,note_on,,1,0,6,,,,,,,,,,,,,,,,5,,77,64
4499,note_on,,0,0,9,,,,,,,,,,,,,,,,15,,53,0
4499,note_on,,119,0,8,,,,,,,,,,,,,,,,13,,45,0
4499,note_on,,0,0,9,,,,,,,,,,,,,,,,15,,60,0
4499,note_on,,119,0,9,,,,,,,,,,,,,,,,15,,45,0
4499,note_on,,0,0,9,,,,,,,,,,,,,,,,15,,72,0
4499,note_on,,0,0,9,,,,,,,,,,,,,,,,15,,65,0
4499,note_on,,29,0,6,,,,,,,,,,,,,,,,5,,77,0
4500,note_on,,1,0,6,,,,,,,,,,,,,,,,5,,75,64
4559,note_on,,59,0,6,,,,,,,,,,,,,,,,5,,75,0
4560,note_on,,0,0,9,,,,,,,,,,,,,,,,15,,69,48
4560,note_on,,0,0,9,,,,,,,,,,,,,,,,15,,65,48
4560,note_on,,0,0,9,,,,,,,,,,,,,,,,15,,57,48
4560,note_on,,61,0,9,,,,,,,,,,,,,,,,15,,53,48
4560,note_on,,61,0,8,,,,,,,,,,,,,,,,13,,53,48
4560,note_on,,1,0,6,,,,,,,,,,,,,,,,5,,74,64
4679,note_on,,119,0,9,,,,,,,,,,,,,,,,15,,53,0
4679,note_on,,0,0,9,,,,,,,,,,,,,,,,15,,65,0
4679,note_on,,0,0,9,,,,,,,,,,,,,,,,15,,57,0
4679,note_on,,119,0,6,,,,,,,,,,,,,,,,5,,74,0
4679,note_on,,0,0,9,,,,,,,,,,,,,,,,15,,69,0
4679,note_on,,119,0,8,,,,,,,,,,,,,,,,13,,53,0
4680,note_on,,1,0,6,,,,,,,,,,,,,,,,5,,72,64
4739,note_on,,59,0,6,,,,,,,,,,,,,,,,5,,72,0
4740,note_on,,61,0,8,,,,,,,,,,,,,,,,13,,58,48
4740,note_on,,1,0,6,,,,,,,,,,,,,,,,5,,74,64
4740,note_on,,61,0,9,,,,,,,,,,,,,,,,15,,58,48
4740,note_on,,0,0,9,,,,,,,,,,,,,,,,15,,65,48
4859,note_on,,119,0,9,,,,,,,,,,,,,,,,15,,58,0
4859,note_on,,0,0,9,,,,,,,,,,,,,,,,15,,65,0
4859,note_on,,659,0,7,,,,,,,,,,,,,,,,10,,84,0
4859,note_on,,119,0,8,,,,,,,,,,,,,,,,13,,58,0
4860,note_on,,1,0,7,,,,,,,,,,,,,,,,10,,82,48
4919,note_on,,59,0,7,,,,,,,,,,,,,,,,10,,82,0
4919,note_on,,179,0,6,,,,,,,,,,,,,,,,5,,74,0
4920,note_on,,1,0,7,,,,,,,,,,,,,,,,10,,86,48
5040,note_on,,121,0,6,,,,,,,,,,,,,,,,5,,74,64
5099,note_on,,59,0,6,,,,,,,,,,,,,,,,5,,74,0
5100,note_on,,241,0,8,,,,,,,,,,,,,,,,13,,59,48
5100,note_on,,1,0,6,,,,,,,,,,,,,,,,5,,77,64
5100,note_on,,0,0,9,,,,,,,,,,,,,,,,15,,74,48
5100,note_on,,0,0,9,,,,,,,,,,,,,,,,15,,67,48
5100,note_on,,0,0,9,,,,,,,,,,,,,,,,15,,62,48
5100,note_on,,241,0,9,,,,,,,,,,,,,,,,15,,59,48
5189,note_on,,89,0,6,,,,,,,,,,,,,,,,5,,77,0
5190,note_on,,1,0,6,,,,,,,,,,,,,,,,5,,79,64
5219,note_on,,29,0,6,,,,,,,,,,,,,,,,5,,79,0
5219,note_on,,119,0,8,,,,,,,,,,,,,,,,13,,59,0
5219,note_on,,119,0,9,,,,,,,,,,,,,,,,15,,59,0
5219,note_on,,0,0,9,,,,,,,,,,,,,,,,15,,74,0
5219,note_on,,0,0,9,,,,,,,,,,,,,,,,15,,67,0
5219,note_on,,0,0,9,,,,,,,,,,,,,,,,15,,62,0
5220,note_on,,1,0,6,,,,,,,,,,,,,,,,5,,77,64
5279,note_on,,59,0,6,,,,,,,,,,,,,,,,5,,77,0
5280,note_on,,61,0,9,,,,,,,,,,,,,,,,15,,55,48
5280,note_on,,61,0,8,,,,,,,,,,,,,,,,13,,55,48
5280,note_on,,1,0,6,,,,,,,,,,,,,,,,5,,75,64
5280,note_on,,0,0,9,,,,,,,,,,,,,,,,15,,71,48
5280,note_on,,0,0,9,,,,,,,,,,,,,,,,15,,62,48
5280,note_on,,0,0,9,,,,,,,,,,,,,,,,15,,67,48
5399,note_on,,119,0,6,,,,,,,,,,,,,,,,5,,75,0
5399,note_on,,0,0,9,,,,,,,,,,,,,,,,15,,62,0
5399,note_on,,0,0,9,,,,,,,,,,,,,,,,15,,67,0
5399,note_on,,0,0,9,,,,,,,,,,,,,,,,15,,71,0
5399,note_on,,119,0,9,,,,,,,,,,,,,,,,15,,55,0
5399,note_on,,119,0,8,,,,,,,,,,,,,,,,13,,55,0
5400,note_on,,1,0,6,,,,,,,,,,,,,,,,5,,74,64
5459,note_on,,59,0,6,,,,,,,,,,,,,,,,5,,74,0
5460,note_on,,0,0,9,,,,,,,,,,,,,,,,15,,67,48
5460,note_on,,61,0,9,,,,,,,,,,,,,,,,15,,60,48
5460,note_on,,1,0,6,,,,,,,,,,,,,,,,5,,75,64
5460,note_on,,61,0,8,,,,,,,,,,,,,,,,13,,60,48
5519,note_on,,59,0,6,,,,,,,,,,,,,,,,5,,75,0
5520,note_on,,1,0,6,,,,,,,,,,,,,,,,5,,74,64
5579,note_on,,119,0,8,,,,,,,,,,,,,,,,13,,60,0
5579,note_on,,59,0,6,,,,,,,,,,,,,,,,5,,74,0
5579,note_on,,119,0,9,,,,,,,,,,,,,,,,15,,60,0
5579,note_on,,659,0,7,,,,,,,,,,,,,,,,10,,86,0
5580,note_on,,1,0,7,,,,,,,,,,,,,,,,10,,79,48
5580,note_on,,1,0,9,,,,,,,,,,,,,,,,15,,58,48
5580,note_on,,1,0,8,,,,,,,,,,,,,,,,13,,58,48
5580,note_on,,1,0,6,,,,,,,,,,,,,,,,5,,75,64
5639,note_on,,59,0,7,,,,,,,,,,,,,,,,10,,79,0
5639,note_on,,59,0,8,,,,,,,,,,,,,,,,13,,58,0
5639,note_on,,0,0,9,,,,,,,,,,,,,,,,15,,58,0
5639,note_on,,59,0,9,,,,,,,,,,,,,,,,15,,67,0
5639,note_on,,59,0,6,,,,,,,,,,,,,,,,5,,75,0
5640,note_on,,1,0,6,,,,,,,,,,,,,,,,5,,77,64
5640,note_on,,1,0,7,,,,,,,,,,,,,,,,10,,84,48
5640,note_on,,1,0,8,,,,,,,,,,,,,,,,13,,57,48
5640,note_on,,0,0,9,,,,,,,,,,,,,,,,15,,72,48
5640,note_on,,0,0,9,,,,,,,,,,,,,,,,15,,65,48
5640,note_on,,1,0,9,,,,,,,,,,,,,,,,15,,57,48
5640,note_on,,0,0,9,,,,,,,,,,,,,,,,15,,60,48
5759,note_on,,119,0,6,,,,,,,,,,,,,,,,5,,77,0
5760,note_on,,1,0,6,,,,,,,,,,,,,,,,5,,75,64
5819,note_on,,179,0,9,,,,,,,,,,,,,,,,15,,57,0
5819,note_on,,59,0,6,,,,,,,,,,,,,,,,5,,75,0
5819,note_on,,179,0,8,,,,,,,,,,,,,,,,13,,57,0
5819,note_on,,179,0,7,,,,,,,,,,,,,,,,10,,84,0
5819,note_on,,0,0,9,,,,,,,,,,,,,,,,15,,65,0
5819,note_on,,0,0,9,,,,,,,,,,,,,,,,15,,72,0
5819,note_on,,0,0,9,,,,,,,,,,,,,,,,15,,60,0
5820,note_on,,0,0,9,,,,,,,,,,,,,,,,15,,70,48
5820,note_on,,1,0,7,,,,,,,,,,,,,,,,10,,77,48
5820,note_on,,0,0,9,,,,,,,,,,,,,,,,15,,74,48
5820,note_on,,1,0,9,,,,,,,,,,,,,,,,15,,58,48
5820,note_on,,1,0,8,,,,,,,,,,,,,,,,13,,58,48
5820,note_on,,0,0,9,,,,,,,,,,,,,,,,15,,65,48
5820,note_on,,1,0,6,,,,,,,,,,,,,,,,5,,74,64
5909,note_on,,89,0,7,,,,,,,,,,,,,,,,10,,77,0
5909,note_on,,89,0,6,,,,,,,,,,,,,,,,5,,74,0
5910,note_on,,1,0,6,,,,,,,,,,,,,,,,5,,72,64
5910,note_on,,1,0,7,,,,,,,,,,,,,,,,10,,75,48
5939,note_on,,119,0,8,,,,,,,,,,,,,,,,13,,58,0
5939,note_on,,29,0,7,,,,,,,,,,,,,,,,10,,75,0
5939,note_on,,29,0,6,,,,,,,,,,,,,,,,5,,72,0
5939,note_on,,0,0,9,,,,,,,,,,,,,,,,15,,65,0
5939,note_on,,0,0,9,,,,,,,,,,,,,,,,15,,70,0
5939,note_on,,119,0,9,,,,,,,,,,,,,,,,15,,58,0
5939,note_on,,0,0,9,,,,,,,,,,,,,,,,15,,74,0
5940,note_on,,1,0,6,,,,,,,,,,,,,,,,5,,70,64
5940,note_on,,1,0,9,,,,,,,,,,,,,,,,15,,51,48
5940,note_on,,0,0,9,,,,,,,,,,,,,,,,15,,67,48
5940,note_on,,1,0,8,,,,,,,,,,,,,,,,13,,51,48
5940,note_on,,1,0,7,,,,,,,,,,,,,,,,10,,74,48
5999,note_on,,59,0,8,,,,,,,,,,,,,,,,13,,51,0
5999,note_on,,59,0,6,,,,,,,,,,,,,,,,5,,70,0
5999,note_on,,0,0,9,,,,,,,,,,,,,,,,15,,67,0
5999,note_on,,59,0,9,,,,,,,,,,,,,,,,15,,51,0
5999,note_on,,59,0,7,,,,,,,,,,,,,,,,10,,74,0
6000,note_on,,0,0,9,,,,,,,,,,,,,,,,15,,70,48
6000,note_on,,0,0,9,,,,,,,,,,,,,,,,15,,65,48
6000,note_on,,0,0,9,,,,,,,,,,,,,,,,15,,62,48
6000,note_on,,1,0,8,,,,,,,,,,,,,,,,13,,53,48
6000,note_on,,1,0,7,,,,,,,,,,,,,,,,10,,74,48
6000,note_on,,1,0,6,,,,,,,,,,,,,,,,5,,70,64
6000,note_on,,1,0,9,,,,,,,,,,,,,,,,15,,53,48
6089,note_on,,89,0,6,,,,,,,,,,,,,,,,5,,70,0
6090,note_on,,1,0,6,,,,,,,,,,,,,,,,5,,72,64
6119,note_on,,119,0,7,,,,,,,,,,,,,,,,10,,74,0
6119,note_on,,119,0,8,,,,,,,,,,,,,,,,13,,53,0
6119,note_on,,0,0,9,,,,,,,,,,,,,,,,15,,70,0
6119,note_on,,119,0,9,,,,,,,,,,,,,,,,15,,53,0
6119,note_on,,0,0,9,,,,,,,,,,,,,,,,15,,62,0
6119,note_on,,0,0,9,,,,,,,,,,,,,,,,15,,65,0
6119,note_on,,29,0,6,,,,,,,,,,,,,,,,5,,72,0
6120,note_on,,1,0,8,,,,,,,,,,,,,,,,13,,41,48
6120,note_on,,1,0,9,,,,,,,,,,,,,,,,15,,41,48
6120,note_on,,0,0,9,,,,,,,,,,,,,,,,15,,53,48
6120,note_on,,1,0,7,,,,,,,,,,,,,,,,10,,72,48
6120,note_on,,1,0,6,,,,,,,,,,,,,,,,5,,69,64
6120,note_on,,0,0,9,,,,,,,,,,,,,,,,15,,69,48
6120,note_on,,0,0,9,,,,,,,,,,,,,,,,15,,65,48
6120,note_on,,0,0,9,,,,,,,,,,,,,,,,15,,60,48
6179,note_on,,59,0,6,,,,,,,,,,,,,,,,5,,69,0
6179,note_on,,0,0,9,,,,,,,,,,,,,,,,15,,53,0
6179,note_on,,59,0,9,,,,,,,,,,,,,,,,15,,41,0
6179,note_on,,0,0,9,,,,,,,,,,,,,,,,15,,69,0
6179,note_on,,59,0,8,,,,,,,,,,,,,,,,13,,41,0
6179,note_on,,59,0,7,,,,,,,,,,,,,,,,10,,72,0
6179,note_on,,0,0,9,,,,,,,,,,,,,,,,15,,65,0
6179,note_on,,0,0,9,,,,,,,,,,,,,,,,15,,60,0
6180,note_on,,0,0,9,,,,,,,,,,,,,,,,15,,62,48
6180,note_on,,0,0,9,,,,,,,,,,,,,,,,15,,65,48
6180,note_on,,0,0,9,,,,,,,,,,,,,,,,15,,53,48
6180,note_on,,1,0,9,,,,,,,,,,,,,,,,15,,46,48
6180,note_on,,1,0,7,,,,,,,,,,,,,,,,10,,70,48
6180,note_on,,1,0,6,,,,,,,,,,,,,,,,5,,70,64
6180,note_on,,1,0,8,,,,,,,,,,,,,,,,13,,46,48
6180,note_on,,0,0,9,,,,,,,,,,,,,,,,15,,70,48
6359,note_on,,179,0,6,,,,,,,,,,,,,,,,5,,70,0
6359,note_on,,0,0,9,,,,,,,,,,,,,,,,15,,65,0
6359,note_on,,179,0,8,,,,,,,,,,,,,,,,13,,46,0
6359,note_on,,179,0,9,,,,,,,,,,,,,,,,15,,46,0
6359,note_on,,0,0,9,,,,,,,,,,,,,,,,15,,53,0
6359,note_on,,0,0,9,,,,,,,,,,,,,,,,15,,70,0
6359,note_on,,179,0,7,,,,,,,,,,,,,,,,10,,70,0
6359,note_on,,0,0,9,,,,,,,,,,,,,,,,15,,62,0
6480,note_on,,121,0,7,,,,,,,,,,,,,,,,10,,77,72
6539,note_on,,59,0,7,,,,,,,,,,,,,,,,10,,77,0
6540,note_on,,0,0,9,,,,,,,,,,,,,,,,15,,77,72
6540,note_on,,0,0,9,,,,,,,,,,,,,,,,15,,74,72
6540,note_on,,0,0,9,,,,,,,,,,,,,,,,15,,65,72
6540,note_on,,0,0,9,,,,,,,,,,,,,,,,15,,62,72
6540,note_on,,1,0,7,,,,,,,,,,,,,,,,10,,74,72
6540,note_on,,181,0,8,,,,,,,,,,,,,,,,13,,58,72
6540,note_on,,3781,0,5,,,,,,,,,,,,,,,,2,,58,72
6540,note_on,,181,0,9,,,,,,,,,,,,,,,,15,,58,72
6629,note_on,,89,0,7,,,,,,,,,,,,,,,,10,,74,0
6630,note_on,,1,0,7,,,,,,,,,,,,,,,,10,,72,72
6659,note_on,,29,0,7,,,,,,,,,,,,,,,,10,,72,0
6660,note_on,,1,0,7,,,,,,,,,,,,,,,,10,,70,72
6719,note_on,,179,0,8,,,,,,,,,,,,,,,,13,,58,0
6719,note_on,,0,0,9,,,,,,,,,,,,,,,,15,,77,0
6719,note_on,,179,0,9,,,,,,,,,,,,,,,,15,,58,0
6719,note_on,,0,0,9,,,,,,,,,,,,,,,,15,,62,0
6719,note_on,,0,0,9,,,,,,,,,,,,,,,,15,,65,0
6719,note_on,,179,0,5,,,,,,,,,,,,,,,,2,,58,0
6719,note_on,,59,0,7,,,,,,,,,,,,,,,,10,,70,0
6719,note_on,,0,0,9,,,,,,,,,,,,,,,,15,,74,0
6720,note_on,,1,0,5,,,,,,,,,,,,,,,,2,,60,72
6720,note_on,,1,0,8,,,,,,,,,,,,,,,,13,,60,72
6720,note_on,,1,0,7,,,,,,,,,,,,,,,,10,,70,72
6720,note_on,,1,0,9,,,,,,,,,,,,,,,,15,,60,72
6720,note_on,,0,0,9,,,,,,,,,,,,,,,,15,,75,72
6720,note_on,,0,0,9,,,,,,,,,,,,,,,,15,,72,72
6720,note_on,,0,0,9,,,,,,,,,,,,,,,,15,,63,72
6839,note_on,,119,0,7,,,,,,,,,,,,,,,,10,,70,0
6840,note_on,,1,0,7,,,,,,,,,,,,,,,,10,,69,72
6899,note_on,,179,0,8,,,,,,,,,,,,,,,,13,,60,0
6899,note_on,,0,0,9,,,,,,,,,,,,,,,,15,,63,0
6899,note_on,,179,0,5,,,,,,,,,,,,,,,,2,,60,0
6899,note_on,,0,0,9,,,,,,,,,,,,,,,,15,,72,0
6899,note_on,,179,0,9,,,,,,,,,,,,,,,,15,,60,0
6899,note_on,,59,0,7,,,,,,,,,,,,,,,,10,,69,0
6899,note_on,,0,0,9,,,,,,,,,,,,,,,,15,,75,0
6900,note_on,,1,0,9,,,,,,,,,,,,,,,,15,,62,72
6900,note_on,,0,0,9,,,,,,,,,,,,,,,,15,,77,72
6900,note_on,,0,0,9,,,,,,,,,,,,,,,,15,,70,72
6900,note_on,,0,0,9,,,,,,,,,,,,,,,,15,,65,72
6900,note_on,,1,0,8,,,,,,,,,,,,,,,,13,,62,72
6900,note_on,,1,0,7,,,,,,,,,,,,,,,,10,,70,72
6900,note_on,,1,0,5,,,,,,,,,,,,,,,,2,,62,72
6989,note_on,,89,0,7,,,,,,,,,,,,,,,,10,,70,0
6990,note_on,,1,0,7,,,,,,,,,,,,,,,,10,,72,72
7019,note_on,,119,0,5,,,,,,,,,,,,,,,,2,,62,0
7019,note_on,,29,0,7,,,,,,,,,,,,,,,,10,,72,0
7019,note_on,,119,0,8,,,,,,,,,,,,,,,,13,,62,0
7019,note_on,,119,0,9,,,,,,,,,,,,,,,,15,,62,0
7020,note_on,,0,0,9,,,,,,,,,,,,,,,,15,,62,72
7020,note_on,,1,0,5,,,,,,,,,,,,,,,,2,,58,72
7020,note_on,,1,0,9,,,,,,,,,,,,,,,,15,,58,72
7020,note_on,,1,0,7,,,,,,,,,,,,,,,,10,,74,72
7020,note_on,,1,0,8,,,,,,,,,,,,,,,,13,,58,72
7079,note_on,,0,0,9,,,,,,,,,,,,,,,,15,,65,0
7079,note_on,,59,0,5,,,,,,,,,,,,,,,,2,,58,0
7079,note_on,,0,0,9,,,,,,,,,,,,,,,,15,,70,0
7079,note_on,,59,0,9,,,,,,,,,,,,,,,,15,,77,0
7079,note_on,,59,0,7,,,,,,,,,,,,,,,,10,,74,0
7079,note_on,,0,0,9,,,,,,,,,,,,,,,,15,,58,0
7079,note_on,,0,0,9,,,,,,,,,,,,,,,,15,,62,0
7079,note_on,,59,0,8,,,,,,,,,,,,,,,,13,,58,0
7080,note_on,,1,0,5,,,,,,,,,,,,,,,,2,,53,72
7080,note_on,,1,0,8,,,,,,,,,,,,,,,,13,,53,72
7080,note_on,,0,0,9,,,,,,,,,,,,,,,,15,,69,72
7080,note_on,,1,0,7,,,,,,,,,,,,,,,,10,,72,72
7080,note_on,,0,0,9,,,,,,,,,,,,,,,,15,,72,72
7080,note_on,,0,0,9,,,,,,,,,,,,,,,,15,,77,72
7080,note_on,,0,0,9,,,,,,,,,,,,,,,,15,,60,72
7080,note_on,,1,0,9,,,,,,,,,,,,,,,,15,,53,72
7199,note_on,,119,0,9,,,,,,,,,,,,,,,,15,,53,0
7199,note_on,,0,0,9,,,,,,,,,,,,,,,,15,,77,0
7199,note_on,,0,0,9,,,,,,,,,,,,,,,,15,,69,0
7199,note_on,,0,0,9,,,,,,,,,,,,,,,,15,,60,0
7199,note_on,,0,0,9,,,,,,,,,,,,,,,,15,,72,0
7199,note_on,,119,0,7,,,,,,,,,,,,,,,,10,,72,0
7199,note_on,,119,0,5,,,,,,,,,,,,,,,,2,,53,0
7199,note_on,,119,0,8,,,,,,,,,,,,,,,,13,,53,0
7200,note_on,,1,0,8,,,,,,,,,,,,,,,,13,,47,48
7200,note_on,,0,0,9,,,,,,,,,,,,,,,,15,,62,48
7200,note_on,,0,0,9,,,,,,,,,,,,,,,,15,,67,48
7200,note_on,,0,0,9,,,,,,,,,,,,,,,,15,,74,48
7200,note_on,,1,0,9,,,,,,,,,,,,,,,,15,,47,48
7200,note_on,,841,0,6,,,,,,,,,,,,,,,,5,,79,64
7259,note_on,,59,0,8,,,,,,,,,,,,,,,,13,,47,0
7259,note_on,,0,0,9,,,,,,,,,,,,,,,,15,,62,0
7259,note_on,,0,0,9,,,,,,,,,,,,,,,,15,,67,0
7259,note_on,,0,0,9,,,,,,,,,,,,,,,,15,,74,0
7259,note_on,,59,0,9,,,,,,,,,,,,,,,,15,,47,0
7259,note_on,,59,0,6,,,,,,,,,,,,,,,,5,,79,0
7260,note_on,,0,0,9,,,,,,,,,,,,,,,,15,,63,48
7260,note_on,,1,0,8,,,,,,,,,,,,,,,,13,,48,48
7260,note_on,,1,0,9,,,,,,,,,,,,,,,,15,,48,48
7260,note_on,,0,0,9,,,,,,,,,,,,,,,,15,,67,48
7260,note_on,,1,0,6,,,,,,,,,,,,,,,,5,,75,64
7260,note_on,,0,0,9,,,,,,,,,,,,,,,,15,,60,48
7349,note_on,,89,0,6,,,,,,,,,,,,,,,,5,,75,0
7350,note_on,,1,0,6,,,,,,,,,,,,,,,,5,,74,64
7379,note_on,,29,0,6,,,,,,,,,,,,,,,,5,,74,0
7379,note_on,,119,0,8,,,,,,,,,,,,,,,,13,,48,0
7379,note_on,,0,0,9,,,,,,,,,,,,,,,,15,,67,0
7379,note_on,,0,0,9,,,,,,,,,,,,,,,,15,,63,0
7379,note_on,,0,0,9,,,,,,,,,,,,,,,,15,,60,0
7379,note_on,,119,0,9,,,,,,,,,,,,,,,,15,,48,0
7380,note_on,,1,0,6,,,,,,,,,,,,,,,,5,,72,64
7439,note_on,,59,0,6,,,,,,,,,,,,,,,,5,,72,0
7440,note_on,,0,0,9,,,,,,,,,,,,,,,,15,,65,48
7440,note_on,,61,0,9,,,,,,,,,,,,,,,,15,,50,48
7440,note_on,,1,0,6,,,,,,,,,,,,,,,,5,,72,64
7440,note_on,,61,0,8,,,,,,,,,,,,,,,,13,,50,48
7440,note_on,,0,0,9,,,,,,,,,,,,,,,,15,,53,48
7559,note_on,,119,0,9,,,,,,,,,,,,,,,,15,,50,0
7559,note_on,,0,0,9,,,,,,,,,,,,,,,,15,,65,0
7559,note_on,,119,0,6,,,,,,,,,,,,,,,,5,,72,0
7559,note_on,,119,0,8,,,,,,,,,,,,,,,,13,,50,0
7559,note_on,,0,0,9,,,,,,,,,,,,,,,,15,,53,0
7560,note_on,,1,0,6,,,,,,,,,,,,,,,,5,,71,64
7619,note_on,,59,0,6,,,,,,,,,,,,,,,,5,,71,0
7620,note_on,,1,0,6,,,,,,,,,,,,,,,,5,,72,64
7620,note_on,,0,0,9,,,,,,,,,,,,,,,,15,,55,48
7620,note_on,,0,0,9,,,,,,,,,,,,,,,,15,,60,48
7620,note_on,,61,0,9,,,,,,,,,,,,,,,,15,,51,48
7620,note_on,,61,0,8,,,,,,,,,,,,,,,,13,,51,48
7709,note_on,,89,0,6,,,,,,,,,,,,,,,,5,,72,0
7710,note_on,,1,0,6,,,,,,,,,,,,,,,,5,,74,64
7739,note_on,,119,0,9,,,,,,,,,,,,,,,,15,,51,0
7739,note_on,,29,0,6,,,,,,,,,,,,,,,,5,,74,0
7739,note_on,,119,0,8,,,,,,,,,,,,,,,,13,,51,0
7740,note_on,,1,0,9,,,,,,,,,,,,,,,,15,,48,48
7740,note_on,,1,0,8,,,,,,,,,,,,,,,,13,,48,48
7740,note_on,,1,0,6,,,,,,,,,,,,,,,,5,,75,64
7799,note_on,,59,0,8,,,,,,,,,,,,,,,,13,,48,0
7799,note_on,,59,0,6,,,,,,,,,,,,,,,,5,,75,0
7799,note_on,,59,0,9,,,,,,,,,,,,,,,,15,,60,0
7799,note_on,,0,0,9,,,,,,,,,,,,,,,,15,,55,0
7799,note_on,,0,0,9,,,,,,,,,,,,,,,,15,,48,0
7800,note_on,,1,0,9,,,,,,,,,,,,,,,,15,,54,48
7800,note_on,,0,0,9,,,,,,,,,,,,,,,,15,,69,48
7800,note_on,,0,0,9,,,,,,,,,,,,,,,,15,,62,48
7800,note_on,,0,0,9,,,,,,,,,,,,,,,,15,,57,48
7800,note_on,,1,0,6,,,,,,,,,,,,,,,,5,,74,64
7800,note_on,,1,0,8,,,,,,,,,,,,,,,,13,,54,48
7919,note_on,,119,0,9,,,,,,,,,,,,,,,,15,,54,0
7919,note_on,,0,0,9,,,,,,,,,,,,,,,,15,,69,0
7919,note_on,,0,0,9,,,,,,,,,,,,,,,,15,,62,0
7919,note_on,,0,0,9,,,,,,,,,,,,,,,,15,,57,0
7919,note_on,,119,0,6,,,,,,,,,,,,,,,,5,,74,0
7919,note_on,,119,0,8,,,,,,,,,,,,,,,,13,,54,0
7920,note_on,,1,0,6,,,,,,,,,,,,,,,,5,,72,64
7979,note_on,,59,0,6,,,,,,,,,,,,,,,,5,,72,0
7980,note_on,,1,0,6,,,,,,,,,,,,,,,,5,,70,64
7980,note_on,,61,0,9,,,,,,,,,,,,,,,,15,,55,48
7980,note_on,,0,0,9,,,,,,,,,,,,,,,,15,,67,48
7980,note_on,,0,0,9,,,,,,,,,,,,,,,,15,,62,48
7980,note_on,,0,0,9,,,,,,,,,,,,,,,,15,,58,48
7980,note_on,,61,0,8,,,,,,,,,,,,,,,,13,,55,48
8039,note_on,,59,0,6,,,,,,,,,,,,,,,,5,,70,0
8040,note_on,,1,0,6,,,,,,,,,,,,,,,,5,,69,64
8099,note_on,,119,0,8,,,,,,,,,,,,,,,,13,,55,0
8099,note_on,,59,0,6,,,,,,,,,,,,,,,,5,,69,0
8099,note_on,,119,0,9,,,,,,,,,,,,,,,,15,,55,0
8100,note_on,,1,0,9,,,,,,,,,,,,,,,,15,,46,48
8100,note_on,,1,0,8,,,,,,,,,,,,,,,,13,,46,48
8100,note_on,,1,0,6,,,,,,,,,,,,,,,,5,,67,64
8159,note_on,,59,0,8,,,,,,,,,,,,,,,,13,,46,0
8159,note_on,,59,0,6,,,,,,,,,,,,,,,,5,,67,0
8159,note_on,,59,0,9,,,,,,,,,,,,,,,,15,,67,0
8159,note_on,,0,0,9,,,,,,,,,,,,,,,,15,,62,0
8159,note_on,,0,0,9,,,,,,,,,,,,,,,,15,,58,0
8159,note_on,,0,0,9,,,,,,,,,,,,,,,,15,,46,0
8160,note_on,,1,0,6,,,,,,,,,,,,,,,,5,,75,64
8160,note_on,,1,0,8,,,,,,,,,,,,,,,,13,,48,48
8160,note_on,,1,0,9,,,,,,,,,,,,,,,,15,,48,48
8160,note_on,,0,0,9,,,,,,,,,,,,,,,,15,,67,48
8160,note_on,,0,0,9,,,,,,,,,,,,,,,,15,,63,48
8160,note_on,,0,0,9,,,,,,,,,,,,,,,,15,,57,48
8219,note_on,,59,0,6,,,,,,,,,,,,,,,,5,,75,0
8220,note_on,,1,0,6,,,,,,,,,,,,,,,,5,,72,64
8279,note_on,,59,0,6,,,,,,,,,,,,,,,,5,,72,0
8279,note_on,,0,0,9,,,,,,,,,,,,,,,,15,,57,0
8279,note_on,,0,0,9,,,,,,,,,,,,,,,,15,,67,0
8279,note_on,,0,0,9,,,,,,,,,,,,,,,,15,,63,0
8279,note_on,,119,0,9,,,,,,,,,,,,,,,,15,,48,0
8279,note_on,,119,0,8,,,,,,,,,,,,,,,,13,,48,0
8280,note_on,,1,0,6,,,,,,,,,,,,,,,,5,,69,64
8339,note_on,,59,0,6,,,,,,,,,,,,,,,,5,,69,0
8340,note_on,,1,0,6,,,,,,,,,,,,,,,,5,,66,64
8340,note_on,,0,0,9,,,,,,,,,,,,,,,,15,,66,48
8340,note_on,,0,0,9,,,,,,,,,,,,,,,,15,,62,48
8340,note_on,,61,0,8,,,,,,,,,,,,,,,,13,,50,48
8340,note_on,,0,0,9,,,,,,,,,,,,,,,,15,,57,48
8340,note_on,,61,0,9,,,,,,,,,,,,,,,,15,,50,48
8459,note_on,,119,0,9,,,,,,,,,,,,,,,,15,,50,0
8459,note_on,,119,0,6,,,,,,,,,,,,,,,,5,,66,0
8459,note_on,,0,0,9,,,,,,,,,,,,,,,,15,,66,0
8459,note_on,,0,0,9,,,,,,,,,,,,,,,,15,,62,0
8459,note_on,,119,0,8,,,,,,,,,,,,,,,,13,,50,0
8459,note_on,,0,0,9,,,,,,,,,,,,,,,,15,,57,0
8460,note_on,,1261,0,7,,,,,,,,,,,,,,,,10,,74,48
8519,note_on,,59,0,7,,,,,,,,,,,,,,,,10,,74,0
8520,note_on,,1,0,7,,,,,,,,,,,,,,,,10,,82,48
8640,note_on,,0,0,9,,,,,,,,,,,,,,,,15,,62,48
8640,note_on,,181,0,9,,,,,,,,,,,,,,,,15,,55,48
8640,note_on,,181,0,8,,,,,,,,,,,,,,,,13,,55,48
8640,note_on,,181,0,6,,,,,,,,,,,,,,,,5,,67,64
8640,note_on,,0,0,9,,,,,,,,,,,,,,,,15,,58,48
8699,note_on,,59,0,8,,,,,,,,,,,,,,,,13,,55,0
8699,note_on,,59,0,9,,,,,,,,,,,,,,,,15,,55,0
8699,note_on,,0,0,9,,,,,,,,,,,,,,,,15,,62,0
8699,note_on,,0,0,9,,,,,,,,,,,,,,,,15,,58,0
8699,note_on,,59,0,6,,,,,,,,,,,,,,,,5,,67,0
8700,note_on,,1,0,6,,,,,,,,,,,,,,,,5,,72,64
8700,note_on,,1,0,8,,,,,,,,,,,,,,,,13,,52,48
8700,note_on,,1,0,9,,,,,,,,,,,,,,,,15,,52,48
8700,note_on,,0,0,9,,,,,,,,,,,,,,,,15,,67,48
8700,note_on,,0,0,9,,,,,,,,,,,,,,,,15,,55,48
8819,note_on,,119,0,8,,,,,,,,,,,,,,,,13,,52,0
8819,note_on,,119,0,9,,,,,,,,,,,,,,,,15,,52,0
8819,note_on,,0,0,9,,,,,,,,,,,,,,,,15,,67,0
8819,note_on,,0,0,9,,,,,,,,,,,,,,,,15,,55,0
8819,note_on,,119,0,6,,,,,,,,,,,,,,,,5,,72,0
8820,note_on,,1,0,6,,,,,,,,,,,,,,,,5,,72,64
8879,note_on,,59,0,6,,,,,,,,,,,,,,,,5,,72,0
8879,note_on,,359,0,7,,,,,,,,,,,,,,,,10,,82,0
8880,note_on,,0,0,9,,,,,,,,,,,,,,,,15,,69,48
8880,note_on,,61,0,8,,,,,,,,,,,,,,,,13,,54,48
8880,note_on,,1,0,6,,,,,,,,,,,,,,,,5,,72,64
8880,note_on,,1,0,7,,,,,,,,,,,,,,,,10,,81,48
8880,note_on,,61,0,9,,,,,,,,,,,,,,,,15,,54,48
8880,note_on,,0,0,9,,,,,,,,,,,,,,,,15,,62,48
8969,note_on,,89,0,6,,,,,,,,,,,,,,,,5,,72,0
8970,note_on,,1,0,6,,,,,,,,,,,,,,,,5,,74,64
8999,note_on,,119,0,8,,,,,,,,,,,,,,,,13,,54,0
8999,note_on,,119,0,9,,,,,,,,,,,,,,,,15,,54,0
8999,note_on,,0,0,9,,,,,,,,,,,,,,,,15,,69,0
8999,note_on,,0,0,9,,,,,,,,,,,,,,,,15,,62,0
8999,note_on,,29,0,6,,,,,,,,,,,,,,,,5,,74,0
9000,note_on,,1,0,6,,,,,,,,,,,,,,,,5,,72,64
9059,note_on,,59,0,6,,,,,,,,,,,,,,,,5,,72,0
9060,note_on,,1,0,6,,,,,,,,,,,,,,,,5,,72,64
9060,note_on,,61,0,8,,,,,,,,,,,,,,,,13,,55,48
9060,note_on,,61,0,9,,,,,,,,,,,,,,,,15,,55,48
9060,note_on,,0,0,9,,,,,,,,,,,,,,,,15,,67,48
9060,note_on,,0,0,9,,,,,,,,,,,,,,,,15,,62,48
9179,note_on,,299,0,7,,,,,,,,,,,,,,,,10,,81,0
9179,note_on,,119,0,9,,,,,,,,,,,,,,,,15,,55,0
9179,note_on,,0,0,9,,,,,,,,,,,,,,,,15,,62,0
9179,note_on,,119,0,6,,,,,,,,,,,,,,,,5,,72,0
9179,note_on,,119,0,8,,,,,,,,,,,,,,,,13,,55,0
9180,note_on,,1,0,6,,,,,,,,,,,,,,,,5,,70,64
9180,note_on,,1,0,7,,,,,,,,,,,,,,,,10,,79,48
9239,note_on,,59,0,6,,,,,,,,,,,,,,,,5,,70,0
9239,note_on,,59,0,7,,,,,,,,,,,,,,,,10,,79,0
9240,note_on,,61,0,9,,,,,,,,,,,,,,,,15,,57,48
9240,note_on,,0,0,9,,,,,,,,,,,,,,,,15,,60,48
9240,note_on,,61,0,8,,,,,,,,,,,,,,,,13,,57,48
9240,note_on,,1,0,7,,,,,,,,,,,,,,,,10,,84,48
9359,note_on,,119,0,9,,,,,,,,,,,,,,,,15,,57,0
9359,note_on,,0,0,9,,,,,,,,,,,,,,,,15,,60,0
9359,note_on,,119,0,8,,,,,,,,,,,,,,,,13,,57,0
9360,note_on,,121,0,6,,,,,,,,,,,,,,,,5,,69,64
9419,note_on,,60,0,9,,,,,,,,,,,,,,,,15,,67,0
9419,note_on,,59,0,6,,,,,,,,,,,,,,,,5,,69,0
9420,note_on,,61,0,8,,,,,,,,,,,,,,,,13,,54,48
9420,note_on,,0,0,9,,,,,,,,,,,,,,,,15,,69,48
9420,note_on,,0,0,9,,,,,,,,,,,,,,,,15,,57,48
9420,note_on,,1,0,9,,,,,,,,,,,,,,,,15,,54,48
9420,note_on,,1,0,6,,,,,,,,,,,,,,,,5,,74,64
9539,note_on,,119,0,9,,,,,,,,,,,,,,,,15,,54,0
9539,note_on,,119,0,6,,,,,,,,,,,,,,,,5,,74,0
9539,note_on,,0,0,9,,,,,,,,,,,,,,,,15,,69,0
9539,note_on,,0,0,9,,,,,,,,,,,,,,,,15,,57,0
9539,note_on,,119,0,8,,,,,,,,,,,,,,,,13,,54,0
9540,note_on,,1,0,6,,,,,,,,,,,,,,,,5,,74,64
9599,note_on,,59,0,6,,,,,,,,,,,,,,,,5,,74,0
9599,note_on,,359,0,7,,,,,,,,,,,,,,,,10,,84,0
9600,note_on,,1,0,6,,,,,,,,,,,,,,,,5,,74,64
9600,note_on,,0,0,9,,,,,,,,,,,,,,,,15,,58,48
9600,note_on,,61,0,8,,,,,,,,,,,,,,,,13,,55,48
9600,note_on,,0,0,9,,,,,,,,,,,,,,,,15,,55,48
9600,note_on,,1,0,7,,,,,,,,,,,,,,,,10,,82,48
9600,note_on,,61,0,9,,,,,,,,,,,,,,,,15,,62,48
9689,note_on,,89,0,6,,,,,,,,,,,,,,,,5,,74,0
9690,note_on,,1,0,6,,,,,,,,,,,,,,,,5,,75,64
9719,note_on,,119,0,8,,,,,,,,,,,,,,,,13,,55,0
9719,note_on,,0,0,9,,,,,,,,,,,,,,,,15,,58,0
9719,note_on,,0,0,9,,,,,,,,,,,,,,,,15,,55,0
9719,note_on,,119,0,9,,,,,,,,,,,,,,,,15,,62,0
9719,note_on,,29,0,6,,,,,,,,,,,,,,,,5,,75,0
9720,note_on,,1,0,6,,,,,,,,,,,,,,,,5,,74,64
9779,note_on,,59,0,6,,,,,,,,,,,,,,,,5,,74,0
9780,note_on,,0,0,9,,,,,,,,,,,,,,,,15,,63,48
9780,note_on,,61,0,9,,,,,,,,,,,,,,,,15,,48,48
9780,note_on,,0,0,9,,,,,,,,,,,,,,,,15,,67,48
9780,note_on,,0,0,9,,,,,,,,,,,,,,,,15,,55,48
9780,note_on,,61,0,8,,,,,,,,,,,,,,,,13,,48,48
9780,note_on,,1,0,6,,,,,,,,,,,,,,,,5,,75,64
9899,note_on,,0,0,9,,,,,,,,,,,,,,,,15,,67,0
9899,note_on,,119,0,8,,,,,,,,,,,,,,,,13,,48,0
9899,note_on,,119,0,9,,,,,,,,,,,,,,,,15,,48,0
9899,note_on,,0,0,9,,,,,,,,,,,,,,,,15,,55,0
9899,note_on,,0,0,9,,,,,,,,,,,,,,,,15,,63,0
9959,note_on,,359,0,7,,,,,,,,,,,,,,,,10,,82,0
9959,note_on,,179,0,6,,,,,,,,,,,,,,,,5,,75,0
9960,note_on,,1,0,7,,,,,,,,,,,,,,,,10,,80,48
9960,note_on,,61,0,8,,,,,,,,,,,,,,,,13,,60,48
9960,note_on,,61,0,9,,,,,,,,,,,,,,,,15,,60,48
9960,note_on,,0,0,9,,,,,,,,,,,,,,,,15,,72,48
9960,note_on,,0,0,9,,,,,,,,,,,,,,,,15,,63,48
9960,note_on,,1,0,6,,,,,,,,,,,,,,,,5,,75,64
10079,note_on,,119,0,9,,,,,,,,,,,,,,,,15,,60,0
10079,note_on,,119,0,7,,,,,,,,,,,,,,,,10,,80,0
10079,note_on,,0,0,9,,,,,,,,,,,,,,,,15,,63,0
10079,note_on,,119,0,8,,,,,,,,,,,,,,,,13,,60,0
10079,note_on,,119,0,6,,,,,,,,,,,,,,,,5,,75,0
10079,note_on,,0,0,9,,,,,,,,,,,,,,,,15,,72,0
10080,note_on,,1,0,6,,,,,,,,,,,,,,,,5,,75,64
10080,note_on,,1,0,7,,,,,,,,,,,,,,,,10,,79,48
10139,note_on,,59,0,6,,,,,,,,,,,,,,,,5,,75,0
10139,note_on,,59,0,7,,,,,,,,,,,,,,,,10,,79,0
10140,note_on,,0,0,9,,,,,,,,,,,,,,,,15,,66,48
10140,note_on,,0,0,9,,,,,,,,,,,,,,,,15,,62,48
10140,note_on,,1,0,6,,,,,,,,,,,,,,,,5,,74,64
10140,note_on,,1,0,7,,,,,,,,,,,,,,,,10,,78,48
10140,note_on,,61,0,9,,,,,,,,,,,,,,,,15,,50,48
10140,note_on,,0,0,9,,,,,,,,,,,,,,,,15,,72,48
10140,note_on,,61,0,8,,,,,,,,,,,,,,,,13,,50,48
10199,note_on,,59,0,6,,,,,,,,,,,,,,,,5,,74,0
10200,note_on,,1,0,6,,,,,,,,,,,,,,,,5,,72,64
10259,note_on,,59,0,6,,,,,,,,,,,,,,,,5,,72,0
10259,note_on,,119,0,9,,,,,,,,,,,,,,,,15,,50,0
10259,note_on,,0,0,9,,,,,,,,,,,,,,,,15,,72,0
10259,note_on,,0,0,9,,,,,,,,,,,,,,,,15,,66,0
10259,note_on,,0,0,9,,,,,,,,,,,,,,,,15,,62,0
10259,note_on,,119,0,8,,,,,,,,,,,,,,,,13,,50,0
10259,note_on,,119,0,7,,,,,,,,,,,,,,,,10,,78,0
10260,note_on,,0,0,9,,,,,,,,,,,,,,,,15,,70,48
10260,note_on,,0,0,9,,,,,,,,,,,,,,,,15,,62,48
10260,note_on,,1,0,8,,,,,,,,,,,,,,,,13,,43,48
10260,note_on,,1,0,9,,,,,,,,,,,,,,,,15,,43,48
10260,note_on,,1,0,6,,,,,,,,,,,,,,,,5,,70,64
10260,note_on,,1,0,7,,,,,,,,,,,,,,,,10,,79,48
10319,note_on,,59,0,7,,,,,,,,,,,,,,,,10,,79,0
10319,note_on,,59,0,6,,,,,,,,,,,,,,,,5,,70,0
10319,note_on,,0,0,9,,,,,,,,,,,,,,,,15,,62,0
10319,note_on,,59,0,8,,,,,,,,,,,,,,,,13,,43,0
10319,note_on,,0,0,9,,,,,,,,,,,,,,,,15,,70,0
10319,note_on,,59,0,9,,,,,,,,,,,,,,,,15,,43,0
10320,note_on,,0,0,9,,,,,,,,,,,,,,,,15,,58,48
10320,note_on,,0,0,9,,,,,,,,,,,,,,,,15,,62,48
10320,note_on,,0,0,9,,,,,,,,,,,,,,,,15,,67,48
10320,note_on,,1,0,9,,,,,,,,,,,,,,,,15,,50,48
10320,note_on,,1,0,8,,,,,,,,,,,,,,,,13,,50,48
10320,note_on,,1,0,6,,,,,,,,,,,,,,,,5,,70,64
10320,note_on,,1,0,7,,,,,,,,,,,,,,,,10,,67,48
10439,note_on,,119,0,8,,,,,,,,,,,,,,,,13,,50,0
10439,note_on,,0,0,9,,,,,,,,,,,,,,,,15,,58,0
10439,note_on,,0,0,9,,,,,,,,,,,,,,,,15,,62,0
10439,note_on,,119,0,6,,,,,,,,,,,,,,,,5,,70,0
10439,note_on,,0,0,9,,,,,,,,,,,,,,,,15,,67,0
10439,note_on,,119,0,9,,,,,,,,,,,,,,,,15,,50,0
10439,note_on,,119,0,7,,,,,,,,,,,,,,,,10,,67,0
10440,note_on,,1,0,8,,,,,,,,,,,,,,,,13,,38,48
10440,note_on,,1,0,9,,,,,,,,,,,,,,,,15,,38,48
10440,note_on,,0,0,9,,,,,,,,,,,,,,,,15,,65,48
10440,note_on,,0,0,9,,,,,,,,,,,,,,,,15,,62,48
10440,note_on,,0,0,9,,,,,,,,,,,,,,,,15,,57,48
10440,note_on,,1,0,6,,,,,,,,,,,,,,,,5,,69,64
10440,note_on,,1,0,7,,,,,,,,,,,,,,,,10,,65,48
10499,note_on,,59,0,6,,,,,,,,,,,,,,,,5,,69,0
10499,note_on,,59,0,8,,,,,,,,,,,,,,,,13,,38,0
10499,note_on,,0,0,9,,,,,,,,,,,,,,,,15,,57,0
10499,note_on,,0,0,9,,,,,,,,,,,,,,,,15,,62,0
10499,note_on,,0,0,9,,,,,,,,,,,,,,,,15,,65,0
10499,note_on,,59,0,9,,,,,,,,,,,,,,,,15,,38,0
10499,note_on,,59,0,7,,,,,,,,,,,,,,,,10,,65,0
10500,note_on,,0,0,9,,,,,,,,,,,,,,,,15,,67,48
10500,note_on,,0,0,9,,,,,,,,,,,,,,,,15,,62,48
10500,note_on,,0,0,9,,,,,,,,,,,,,,,,15,,58,48
10500,note_on,,1,0,6,,,,,,,,,,,,,,,,5,,67,64
10500,note_on,,1,0,9,,,,,,,,,,,,,,,,15,,43,48
10500,note_on,,1,0,8,,,,,,,,,,,,,,,,13,,43,48
10500,note_on,,1,0,7,,,,,,,,,,,,,,,,10,,67,48
10619,note_on,,119,0,7,,,,,,,,,,,,,,,,10,,67,0
10619,note_on,,0,0,9,,,,,,,,,,,,,,,,15,,58,0
10619,note_on,,119,0,8,,,,,,,,,,,,,,,,13,,43,0
10619,note_on,,119,0,9,,,,,,,,,,,,,,,,15,,43,0
10619,note_on,,119,0,6,,,,,,,,,,,,,,,,5,,67,0
10619,note_on,,0,0,9,,,,,,,,,,,,,,,,15,,62,0
10619,note_on,,0,0,9,,,,,,,,,,,,,,,,15,,67,0
10620,note_on,,1,0,7,,,,,,,,,,,,,,,,10,,69,48
10679,note_on,,59,0,7,,,,,,,,,,,,,,,,10,,69,0
10680,note_on,,1,0,7,,,,,,,,,,,,,,,,10,,70,48
10800,note_on,,181,0,9,,,,,,,,,,,,,,,,15,,50,48
10800,note_on,,181,0,8,,,,,,,,,,,,,,,,13,,50,48
10800,note_on,,0,0,9,,,,,,,,,,,,,,,,15,,65,48
10800,note_on,,0,0,9,,,,,,,,,,,,,,,,15,,70,48
10800,note_on,,181,0,6,,,,,,,,,,,,,,,,5,,77,64
10859,note_on,,59,0,9,,,,,,,,,,,,,,,,15,,50,0
10859,note_on,,0,0,9,,,,,,,,,,,,,,,,15,,70,0
10859,note_on,,59,0,6,,,,,,,,,,,,,,,,5,,77,0
10859,note_on,,59,0,8,,,,,,,,,,,,,,,,13,,50,0
10859,note_on,,0,0,9,,,,,,,,,,,,,,,,15,,65,0
10860,note_on,,1,0,8,,,,,,,,,,,,,,,,13,,51,48
10860,note_on,,0,0,9,,,,,,,,,,,,,,,,15,,60,48
10860,note_on,,0,0,9,,,,,,,,,,,,,,,,15,,67,48
10860,note_on,,1,0,9,,,,,,,,,,,,,,,,15,,51,48
10860,note_on,,1,0,6,,,,,,,,,,,,,,,,5,,79,64
10860,note_on,,0,0,9,,,,,,,,,,,,,,,,15,,70,48
10979,note_on,,0,0,9,,,,,,,,,,,,,,,,15,,60,0
10979,note_on,,119,0,8,,,,,,,,,,,,,,,,13,,51,0
10979,note_on,,119,0,6,,,,,,,,,,,,,,,,5,,79,0
10979,note_on,,119,0,9,,,,,,,,,,,,,,,,15,,51,0
10979,note_on,,0,0,9,,,,,,,,,,,,,,,,15,,70,0
10979,note_on,,0,0,9,,,,,,,,,,,,,,,,15,,67,0
10980,note_on,,1,0,6,,,,,,,,,,,,,,,,5,,75,64
11039,note_on,,59,0,6,,,,,,,,,,,,,,,,5,,75,0
11039,note_on,,359,0,7,,,,,,,,,,,,,,,,10,,70,0
11040,note_on,,1,0,7,,,,,,,,,,,,,,,,10,,69,48
11040,note_on,,1,0,6,,,,,,,,,,,,,,,,5,,72,64
11040,note_on,,61,0,9,,,,,,,,,,,,,,,,15,,53,48
11040,note_on,,0,0,9,,,,,,,,,,,,,,,,15,,60,48
11040,note_on,,0,0,9,,,,,,,,,,,,,,,,15,,65,48
11040,note_on,,61,0,8,,,,,,,,,,,,,,,,13,,53,48
11040,note_on,,0,0,9,,,,,,,,,,,,,,,,15,,69,48
11129,note_on,,89,0,6,,,,,,,,,,,,,,,,5,,72,0
11130,note_on,,1,0,6,,,,,,,,,,,,,,,,5,,77,64
11159,note_on,,0,0,9,,,,,,,,,,,,,,,,15,,60,0
11159,note_on,,0,0,9,,,,,,,,,,,,,,,,15,,65,0
11159,note_on,,0,0,9,,,,,,,,,,,,,,,,15,,69,0
11159,note_on,,119,0,9,,,,,,,,,,,,,,,,15,,53,0
11159,note_on,,29,0,6,,,,,,,,,,,,,,,,5,,77,0
11159,note_on,,119,0,8,,,,,,,,,,,,,,,,13,,53,0
11160,note_on,,1,0,6,,,,,,,,,,,,,,,,5,,75,64
11219,note_on,,59,0,6,,,,,,,,,,,,,,,,5,,75,0
11220,note_on,,61,0,8,,,,,,,,,,,,,,,,13,,46,48
11220,note_on,,1,0,6,,,,,,,,,,,,,,,,5,,74,64
11220,note_on,,0,0,9,,,,,,,,,,,,,,,,15,,62,48
11220,note_on,,0,0,9,,,,,,,,,,,,,,,,15,,58,48
11220,note_on,,61,0,9,,,,,,,,,,,,,,,,15,,46,48
11220,note_on,,0,0,9,,,,,,,,,,,,,,,,15,,70,48
11279,note_on,,59,0,6,,,,,,,,,,,,,,,,5,,74,0
11280,note_on,,1,0,6,,,,,,,,,,,,,,,,5,,72,64
11339,note_on,,59,0,6,,,,,,,,,,,,,,,,5,,72,0
11339,note_on,,119,0,9,,,,,,,,,,,,,,,,15,,46,0
11339,note_on,,0,0,9,,,,,,,,,,,,,,,,15,,70,0
11339,note_on,,0,0,9,,,,,,,,,,,,,,,,15,,62,0
11339,note_on,,299,0,7,,,,,,,,,,,,,,,,10,,69,0
11339,note_on,,0,0,9,,,,,,,,,,,,,,,,15,,58,0
11339,note_on,,119,0,8,,,,,,,,,,,,,,,,13,,46,0
11340,note_on,,1,0,7,,,,,,,,,,,,,,,,10,,67,48
11340,note_on,,1,0,6,,,,,,,,,,,,,,,,5,,70,64
11399,note_on,,59,0,6,,,,,,,,,,,,,,,,5,,70,0
11399,note_on,,59,0,7,,,,,,,,,,,,,,,,10,,67,0
11400,note_on,,1,0,7,,,,,,,,,,,,,,,,10,,79,48
11400,note_on,,61,0,9,,,,,,,,,,,,,,,,15,,58,48
11400,note_on,,61,0,8,,,,,,,,,,,,,,,,13,,58,48
11400,note_on,,0,0,9,,,,,,,,,,,,,,,,15,,67,48
11400,note_on,,0,0,9,,,,,,,,,,,,,,,,15,,62,48
11519,note_on,,119,0,8,,,,,,,,,,,,,,,,13,,58,0
11519,note_on,,119,0,9,,,,,,,,,,,,,,,,15,,58,0
11519,note_on,,0,0,9,,,,,,,,,,,,,,,,15,,62,0
11519,note_on,,0,0,9,,,,,,,,,,,,,,,,15,,67,0
11520,note_on,,121,0,6,,,,,,,,,,,,,,,,5,,74,64
11579,note_on,,59,0,6,,,,,,,,,,,,,,,,5,,74,0
11580,note_on,,1,0,6,,,,,,,,,,,,,,,,5,,75,64
11580,note_on,,61,0,8,,,,,,,,,,,,,,,,13,,60,48
11580,note_on,,61,0,9,,,,,,,,,,,,,,,,15,,60,48
11580,note_on,,0,0,9,,,,,,,,,,,,,,,,15,,75,48
11580,note_on,,0,0,9,,,,,,,,,,,,,,,,15,,72,48
11580,note_on,,0,0,9,,,,,,,,,,,,,,,,15,,69,48
11580,note_on,,0,0,9,,,,,,,,,,,,,,,,15,,67,48
11699,note_on,,119,0,8,,,,,,,,,,,,,,,,13,,60,0
11699,note_on,,119,0,9,,,,,,,,,,,,,,,,15,,60,0
11699,note_on,,0,0,9,,,,,,,,,,,,,,,,15,,75,0
11699,note_on,,0,0,9,,,,,,,,,,,,,,,,15,,69,0
11699,note_on,,0,0,9,,,,,,,,,,,,,,,,15,,67,0
11699,note_on,,0,0,9,,,,,,,,,,,,,,,,15,,72,0
11699,note_on,,119,0,6,,,,,,,,,,,,,,,,5,,75,0
11700,note_on,,1,0,6,,,,,,,,,,,,,,,,5,,72,64
11759,note_on,,59,0,6,,,,,,,,,,,,,,,,5,,72,0
11759,note_on,,359,0,7,,,,,,,,,,,,,,,,10,,79,0
11760,note_on,,1,0,7,,,,,,,,,,,,,,,,10,,78,48
11760,note_on,,61,0,8,,,,,,,,,,,,,,,,13,,62,48
11760,note_on,,1,0,6,,,,,,,,,,,,,,,,5,,69,64
11760,note_on,,0,0,9,,,,,,,,,,,,,,,,15,,69,48
11760,note_on,,0,0,9,,,,,,,,,,,,,,,,15,,66,48
11760,note_on,,0,0,9,,,,,,,,,,,,,,,,15,,74,48
11760,note_on,,61,0,9,,,,,,,,,,,,,,,,15,,62,48
11879,note_on,,0,0,9,,,,,,,,,,,,,,,,15,,66,0
11879,note_on,,0,0,9,,,,,,,,,,,,,,,,15,,69,0
11879,note_on,,0,0,9,,,,,,,,,,,,,,,,15,,74,0
11879,note_on,,119,0,9,,,,,,,,,,,,,,,,15,,62,0
11879,note_on,,119,0,8,,,,,,,,,,,,,,,,13,,62,0
11879,note_on,,119,0,6,,,,,,,,,,,,,,,,5,,69,0
11880,note_on,,1,0,6,,,,,,,,,,,,,,,,5,,74,64
11939,note_on,,179,0,7,,,,,,,,,,,,,,,,10,,78,0
11939,note_on,,59,0,6,,,,,,,,,,,,,,,,5,,74,0
11940,note_on,,1,0,6,,,,,,,,,,,,,,,,5,,70,64
11940,note_on,,0,0,9,,,,,,,,,,,,,,,,15,,74,48
11940,note_on,,0,0,9,,,,,,,,,,,,,,,,15,,67,48
11940,note_on,,61,0,9,,,,,,,,,,,,,,,,15,,55,48
11940,note_on,,0,0,9,,,,,,,,,,,,,,,,15,,62,48
11940,note_on,,0,0,9,,,,,,,,,,,,,,,,15,,70,48
11940,note_on,,61,0,8,,,,,,,,,,,,,,,,13,,55,48
11940,note_on,,1,0,7,,,,,,,,,,,,,,,,10,,79,48
12059,note_on,,119,0,7,,,,,,,,,,,,,,,,10,,79,0
12059,note_on,,0,0,9,,,,,,,,,,,,,,,,15,,67,0
12059,note_on,,119,0,8,,,,,,,,,,,,,,,,13,,55,0
12059,note_on,,119,0,6,,,,,,,,,,,,,,,,5,,70,0
12059,note_on,,0,0,9,,,,,,,,,,,,,,,,15,,70,0
12059,note_on,,119,0,9,,,,,,,,,,,,,,,,15,,55,0
12059,note_on,,0,0,9,,,,,,,,,,,,,,,,15,,62,0
12059,note_on,,0,0,9,,,,,,,,,,,,,,,,15,,74,0
12060,note_on,,1,0,6,,,,,,,,,,,,,,,,5,,67,64
12119,note_on,,59,0,6,,,,,,,,,,,,,,,,5,,67,0
12120,note_on,,61,0,8,,,,,,,,,,,,,,,,13,,50,48
12120,note_on,,0,0,9,,,,,,,,,,,,,,,,15,,58,48
12120,note_on,,61,0,9,,,,,,,,,,,,,,,,15,,50,48
12120,note_on,,0,0,9,,,,,,,,,,,,,,,,15,,74,48
12120,note_on,,0,0,9,,,,,,,,,,,,,,,,15,,70,48
12120,note_on,,0,0,9,,,,,,,,,,,,,,,,15,,65,48
12120,note_on,,1,0,6,,,,,,,,,,,,,,,,5,,70,64
12239,note_on,,119,0,8,,,,,,,,,,,,,,,,13,,50,0
12239,note_on,,0,0,9,,,,,,,,,,,,,,,,15,,74,0
12239,note_on,,0,0,9,,,,,,,,,,,,,,,,15,,70,0
12239,note_on,,119,0,9,,,,,,,,,,,,,,,,15,,50,0
12239,note_on,,0,0,9,,,,,,,,,,,,,,,,15,,65,0
12239,note_on,,0,0,9,,,,,,,,,,,,,,,,15,,58,0
12240,note_on,,181,0,7,,,,,,,,,,,,,,,,10,,77,48
12299,note_on,,59,0,7,,,,,,,,,,,,,,,,10,,77,0
12300,note_on,,61,0,9,,,,,,,,,,,,,,,,15,,51,48
12300,note_on,,0,0,9,,,,,,,,,,,,,,,,15,,55,48
12300,note_on,,61,0,8,,,,,,,,,,,,,,,,13,,51,48
12300,note_on,,1,0,7,,,,,,,,,,,,,,,,10,,79,48
12300,note_on,,0,0,9,,,,,,,,,,,,,,,,15,,70,48
12300,note_on,,0,0,9,,,,,,,,,,,,,,,,15,,72,48
12300,note_on,,0,0,9,,,,,,,,,,,,,,,,15,,67,48
12419,note_on,,119,0,8,,,,,,,,,,,,,,,,13,,51,0
12419,note_on,,0,0,9,,,,,,,,,,,,,,,,15,,55,0
12419,note_on,,119,0,9,,,,,,,,,,,,,,,,15,,51,0
12419,note_on,,119,0,7,,,,,,,,,,,,,,,,10,,79,0
12419,note_on,,0,0,9,,,,,,,,,,,,,,,,15,,70,0
12419,note_on,,0,0,9,,,,,,,,,,,,,,,,15,,67,0
12419,note_on,,0,0,9,,,,,,,,,,,,,,,,15,,72,0
12420,note_on,,1,0,7,,,,,,,,,,,,,,,,10,,75,48
12479,note_on,,59,0,7,,,,,,,,,,,,,,,,10,,75,0
12480,note_on,,61,0,9,,,,,,,,,,,,,,,,15,,53,48
12480,note_on,,0,0,9,,,,,,,,,,,,,,,,15,,69,48
12480,note_on,,0,0,9,,,,,,,,,,,,,,,,15,,72,48
12480,note_on,,0,0,9,,,,,,,,,,,,,,,,15,,60,48
12480,note_on,,0,0,9,,,,,,,,,,,,,,,,15,,65,48
12480,note_on,,1,0,7,,,,,,,,,,,,,,,,10,,72,48
12480,note_on,,61,0,8,,,,,,,,,,,,,,,,13,,53,48
12599,note_on,,479,0,6,,,,,,,,,,,,,,,,5,,70,0
12599,note_on,,119,0,9,,,,,,,,,,,,,,,,15,,53,0
12599,note_on,,0,0,9,,,,,,,,,,,,,,,,15,,60,0
12599,note_on,,0,0,9,,,,,,,,,,,,,,,,15,,65,0
12599,note_on,,119,0,8,,,,,,,,,,,,,,,,13,,53,0
12599,note_on,,0,0,9,,,,,,,,,,,,,,,,15,,69,0
12599,note_on,,119,0,7,,,,,,,,,,,,,,,,10,,72,0
12599,note_on,,0,0,9,,,,,,,,,,,,,,,,15,,72,0
12600,note_on,,1,0,7,,,,,,,,,,,,,,,,10,,77,48
12600,note_on,,1,0,6,,,,,,,,,,,,,,,,5,,69,64
12659,note_on,,59,0,7,,,,,,,,,,,,,,,,10,,77,0
12659,note_on,,59,0,6,,,,,,,,,,,,,,,,5,,69,0
12660,note_on,,0,0,9,,,,,,,,,,,,,,,,15,,62,48
12660,note_on,,1,0,7,,,,,,,,,,,,,,,,10,,74,48
12660,note_on,,1,0,6,,,,,,,,,,,,,,,,5,,69,64
12660,note_on,,0,0,9,,,,,,,,,,,,,,,,15,,70,48
12660,note_on,,0,0,9,,,,,,,,,,,,,,,,15,,74,48
12660,note_on,,61,0,8,,,,,,,,,,,,,,,,13,,46,48
12660,note_on,,0,0,9,,,,,,,,,,,,,,,,15,,58,48
12660,note_on,,61,0,9,,,,,,,,,,,,,,,,15,,46,48
12779,note_on,,119,0,6,,,,,,,,,,,,,,,,5,,69,0
12780,note_on,,1,0,6,,,,,,,,,,,,,,,,5,,67,64
12839,note_on,,59,0,6,,,,,,,,,,,,,,,,5,,67,0
12839,note_on,,0,0,9,,,,,,,,,,,,,,,,15,,58,0
12839,note_on,,179,0,9,,,,,,,,,,,,,,,,15,,46,0
12839,note_on,,0,0,9,,,,,,,,,,,,,,,,15,,70,0
12839,note_on,,0,0,9,,,,,,,,,,,,,,,,15,,74,0
12839,note_on,,179,0,8,,,,,,,,,,,,,,,,13,,46,0
12839,note_on,,0,0,9,,,,,,,,,,,,,,,,15,,62,0
12840,note_on,,0,0,9,,,,,,,,,,,,,,,,15,,67,48
12840,note_on,,0,0,9,,,,,,,,,,,,,,,,15,,62,48
12840,note_on,,1,0,8,,,,,,,,,,,,,,,,13,,58,48
12840,note_on,,1,0,9,,,,,,,,,,,,,,,,15,,70,48
12840,note_on,,0,0,9,,,,,,,,,,,,,,,,15,,58,48
12959,note_on,,299,0,7,,,,,,,,,,,,,,,,10,,74,0
12959,note_on,,119,0,9,,,,,,,,,,,,,,,,15,,70,0
12959,note_on,,0,0,9,,,,,,,,,,,,,,,,15,,58,0
12959,note_on,,0,0,9,,,,,,,,,,,,,,,,15,,67,0
12959,note_on,,0,0,9,,,,,,,,,,,,,,,,15,,62,0
12959,note_on,,119,0,8,,,,,,,,,,,,,,,,13,,58,0
12960,note_on,,1,0,7,,,,,,,,,,,,,,,,10,,74,48
12960,note_on,,1,0,9,,,,,,,,,,,,,,,,15,,46,48
12960,note_on,,0,0,9,,,,,,,,,,,,,,,,15,,74,48
12960,note_on,,0,0,9,,,,,,,,,,,,,,,,15,,70,48
12960,note_on,,0,0,9,,,,,,,,,,,,,,,,15,,67,48
12960,note_on,,1,0,8,,,,,,,,,,,,,,,,13,,46,48
12960,note_on,,121,0,6,,,,,,,,,,,,,,,,5,,79,64
13019,note_on,,59,0,7,,,,,,,,,,,,,,,,10,,74,0
13019,note_on,,59,0,8,,,,,,,,,,,,,,,,13,,46,0
13019,note_on,,59,0,6,,,,,,,,,,,,,,,,5,,79,0
13019,note_on,,0,0,9,,,,,,,,,,,,,,,,15,,74,0
13019,note_on,,0,0,9,,,,,,,,,,,,,,,,15,,67,0
13019,note_on,,0,0,9,,,,,,,,,,,,,,,,15,,70,0
13019,note_on,,59,0,9,,,,,,,,,,,,,,,,15,,46,0
13020,note_on,,0,0,9,,,,,,,,,,,,,,,,15,,72,48
13020,note_on,,0,0,9,,,,,,,,,,,,,,,,15,,69,48
13020,note_on,,0,0,9,,,,,,,,,,,,,,,,15,,63,48
13020,note_on,,1,0,7,,,,,,,,,,,,,,,,10,,67,48
13020,note_on,,1,0,6,,,,,,,,,,,,,,,,5,,75,64
13020,note_on,,1,0,9,,,,,,,,,,,,,,,,15,,48,48
13020,note_on,,1,0,8,,,,,,,,,,,,,,,,13,,48,48
13079,note_on,,59,0,8,,,,,,,,,,,,,,,,13,,48,0
13079,note_on,,59,0,6,,,,,,,,,,,,,,,,5,,75,0
13079,note_on,,59,0,9,,,,,,,,,,,,,,,,15,,48,0
13080,note_on,,1,0,6,,,,,,,,,,,,,,,,5,,74,64
13080,note_on,,1,0,8,,,,,,,,,,,,,,,,13,,50,48
13080,note_on,,1,0,9,,,,,,,,,,,,,,,,15,,50,48
13139,note_on,,59,0,6,,,,,,,,,,,,,,,,5,,74,0
13139,note_on,,0,0,9,,,,,,,,,,,,,,,,15,,50,0
13139,note_on,,59,0,8,,,,,,,,,,,,,,,,13,,50,0
13139,note_on,,59,0,9,,,,,,,,,,,,,,,,15,,72,0
13139,note_on,,0,0,9,,,,,,,,,,,,,,,,15,,69,0
13139,note_on,,0,0,9,,,,,,,,,,,,,,,,15,,63,0
13140,note_on,,1,0,8,,,,,,,,,,,,,,,,13,,51,48
13140,note_on,,0,0,9,,,,,,,,,,,,,,,,15,,57,48
13140,note_on,,0,0,9,,,,,,,,,,,,,,,,15,,60,48
13140,note_on,,0,0,9,,,,,,,,,,,,,,,,15,,51,48
13140,note_on,,1,0,9,,,,,,,,,,,,,,,,15,,55,48
13140,note_on,,1,0,6,,,,,,,,,,,,,,,,5,,72,64
13199,note_on,,59,0,9,,,,,,,,,,,,,,,,15,,55,0
13199,note_on,,0,0,9,,,,,,,,,,,,,,,,15,,57,0
13199,note_on,,0,0,9,,,,,,,,,,,,,,,,15,,51,0
13199,note_on,,0,0,9,,,,,,,,,,,,,,,,15,,60,0
13199,note_on,,59,0,6,,,,,,,,,,,,,,,,5,,72,0
13199,note_on,,59,0,8,,,,,,,,,,,,,,,,13,,51,0
13200,note_on,,0,0,9,,,,,,,,,,,,,,,,15,,58,48
13200,note_on,,1,0,9,,,,,,,,,,,,,,,,15,,50,48
13200,note_on,,1,0,6,,,,,,,,,,,,,,,,5,,70,64
13200,note_on,,1,0,8,,,,,,,,,,,,,,,,13,,50,48
13200,note_on,,0,0,9,,,,,,,,,,,,,,,,15,,62,48
13200,note_on,,0,0,9,,,,,,,,,,,,,,,,15,,67,48
13259,note_on,,239,0,7,,,,,,,,,,,,,,,,10,,67,0
13259,note_on,,59,0,6,,,,,,,,,,,,,,,,5,,70,0
13260,note_on,,1,0,7,,,,,,,,,,,,,,,,10,,69,48
13260,note_on,,1,0,6,,,,,,,,,,,,,,,,5,,72,64
13319,note_on,,119,0,9,,,,,,,,,,,,,,,,15,,50,0
13319,note_on,,0,0,9,,,,,,,,,,,,,,,,15,,67,0
13319,note_on,,59,0,7,,,,,,,,,,,,,,,,10,,69,0
13319,note_on,,0,0,9,,,,,,,,,,,,,,,,15,,62,0
13319,note_on,,0,0,9,,,,,,,,,,,,,,,,15,,58,0
13319,note_on,,119,0,8,,,,,,,,,,,,,,,,13,,50,0
13319,note_on,,59,0,6,,,,,,,,,,,,,,,,5,,72,0
13320,note_on,,1,0,7,,,,,,,,,,,,,,,,10,,66,48
13320,note_on,,1,0,9,,,,,,,,,,,,,,,,15,,50,48
13320,note_on,,0,0,9,,,,,,,,,,,,,,,,15,,57,48
13320,note_on,,0,0,9,,,,,,,,,,,,,,,,15,,66,48
13320,note_on,,1,0,8,,,,,,,,,,,,,,,,13,,50,48
13320,note_on,,0,0,9,,,,,,,,,,,,,,,,15,,74,48
13320,note_on,,1,0,6,,,,,,,,,,,,,,,,5,,69,64
13379,note_on,,59,0,6,,,,,,,,,,,,,,,,5,,69,0
13379,note_on,,59,0,8,,,,,,,,,,,,,,,,13,,50,0
13379,note_on,,59,0,9,,,,,,,,,,,,,,,,15,,50,0
13379,note_on,,59,0,7,,,,,,,,,,,,,,,,10,,66,0
13379,note_on,,0,0,9,,,,,,,,,,,,,,,,15,,66,0
13379,note_on,,0,0,9,,,,,,,,,,,,,,,,15,,57,0
13379,note_on,,0,0,9,,,,,,,,,,,,,,,,15,,74,0
13380,note_on,,0,0,9,,,,,,,,,,,,,,,,15,,74,48
13380,note_on,,1,0,9,,,,,,,,,,,,,,,,15,,51,48
13380,note_on,,0,0,9,,,,,,,,,,,,,,,,15,,55,48
13380,note_on,,1,0,8,,,,,,,,,,,,,,,,13,,51,48
13380,note_on,,1,0,6,,,,,,,,,,,,,,,,5,,67,64
13380,note_on,,0,0,9,,,,,,,,,,,,,,,,15,,67,48
13380,note_on,,1,0,7,,,,,,,,,,,,,,,,10,,70,48
13499,note_on,,119,0,9,,,,,,,,,,,,,,,,15,,51,0
13499,note_on,,0,0,9,,,,,,,,,,,,,,,,15,,74,0
13499,note_on,,0,0,9,,,,,,,,,,,,,,,,15,,67,0
13499,note_on,,0,0,9,,,,,,,,,,,,,,,,15,,55,0
13499,note_on,,119,0,6,,,,,,,,,,,,,,,,5,,67,0
13499,note_on,,119,0,8,,,,,,,,,,,,,,,,13,,51,0
13500,note_on,,1,0,9,,,,,,,,,,,,,,,,15,,51,48
13500,note_on,,0,0,9,,,,,,,,,,,,,,,,15,,72,48
13500,note_on,,0,0,9,,,,,,,,,,,,,,,,15,,67,48
13500,note_on,,1,0,8,,,,,,,,,,,,,,,,13,,51,48
13500,note_on,,0,0,9,,,,,,,,,,,,,,,,15,,55,48
13500,note_on,,1,0,6,,,,,,,,,,,,,,,,5,,79,64
13559,note_on,,59,0,8,,,,,,,,,,,,,,,,13,,51,0
13559,note_on,,179,0,7,,,,,,,,,,,,,,,,10,,70,0
13559,note_on,,0,0,9,,,,,,,,,,,,,,,,15,,55,0
13559,note_on,,0,0,9,,,,,,,,,,,,,,,,15,,67,0
13559,note_on,,0,0,9,,,,,,,,,,,,,,,,15,,72,0
13559,note_on,,59,0,9,,,,,,,,,,,,,,,,15,,51,0
13559,note_on,,59,0,6,,,,,,,,,,,,,,,,5,,79,0
13560,note_on,,1,0,6,,,,,,,,,,,,,,,,5,,78,64
13560,note_on,,0,0,9,,,,,,,,,,,,,,,,15,,69,48
13560,note_on,,0,0,9,,,,,,,,,,,,,,,,15,,74,48
13560,note_on,,1,0,9,,,,,,,,,,,,,,,,15,,50,48
13560,note_on,,1,0,8,,,,,,,,,,,,,,,,13,,50,48
13560,note_on,,0,0,9,,,,,,,,,,,,,,,,15,,62,48
13679,note_on,,119,0,8,,,,,,,,,,,,,,,,13,,50,0
13679,note_on,,119,0,9,,,,,,,,,,,,,,,,15,,50,0
13679,note_on,,0,0,9,,,,,,,,,,,,,,,,15,,74,0
13679,note_on,,0,0,9,,,,,,,,,,,,,,,,15,,69,0
13679,note_on,,0,0,9,,,,,,,,,,,,,,,,15,,62,0
13679,note_on,,119,0,6,,,,,,,,,,,,,,,,5,,78,0
13680,note_on,,1,0,9,,,,,,,,,,,,,,,,15,,48,48
13680,note_on,,0,0,9,,,,,,,,,,,,,,,,15,,75,48
13680,note_on,,0,0,9,,,,,,,,,,,,,,,,15,,70,48
13680,note_on,,0,0,9,,,,,,,,,,,,,,,,15,,67,48
13680,note_on,,1,0,6,,,,,,,,,,,,,,,,5,,79,64
13680,note_on,,1,0,8,,,,,,,,,,,,,,,,13,,48,48
13739,note_on,,59,0,9,,,,,,,,,,,,,,,,15,,48,0
13739,note_on,,0,0,9,,,,,,,,,,,,,,,,15,,75,0
13739,note_on,,0,0,9,,,,,,,,,,,,,,,,15,,70,0
13739,note_on,,0,0,9,,,,,,,,,,,,,,,,15,,67,0
13739,note_on,,59,0,6,,,,,,,,,,,,,,,,5,,79,0
13739,note_on,,59,0,8,,,,,,,,,,,,,,,,13,,48,0
13740,note_on,,1,0,9,,,,,,,,,,,,,,,,15,,50,48
13740,note_on,,0,0,9,,,,,,,,,,,,,,,,15,,58,48
13740,note_on,,0,0,9,,,,,,,,,,,,,,,,15,,62,48
13740,note_on,,0,0,9,,,,,,,,,,,,,,,,15,,67,48
13740,note_on,,1,0,8,,,,,,,,,,,,,,,,13,,50,48
13740,note_on,,1,0,6,,,,,,,,,,,,,,,,5,,70,64
13919,note_on,,179,0,6,,,,,,,,,,,,,,,,5,,70,0
13919,note_on,,179,0,9,,,,,,,,,,,,,,,,15,,50,0
13919,note_on,,0,0,9,,,,,,,,,,,,,,,,15,,62,0
13919,note_on,,0,0,9,,,,,,,,,,,,,,,,15,,67,0
13919,note_on,,0,0,9,,,,,,,,,,,,,,,,15,,58,0
13919,note_on,,179,0,8,,,,,,,,,,,,,,,,13,,50,0
13920,note_on,,0,0,9,,,,,,,,,,,,,,,,15,,66,48
13920,note_on,,0,0,9,,,,,,,,,,,,,,,,15,,50,48
13920,note_on,,1,0,9,,,,,,,,,,,,,,,,15,,38,48
13920,note_on,,1,0,6,,,,,,,,,,,,,,,,5,,69,64
13920,note_on,,0,0,9,,,,,,,,,,,,,,,,15,,62,48
13920,note_on,,0,0,9,,,,,,,,,,,,,,,,15,,57,48
13920,note_on,,1,0,8,,,,,,,,,,,,,,,,13,,38,48
13934,note_on,,14,0,6,,,,,,,,,,,,,,,,5,,69,0
13935,note_on,,1,0,6,,,,,,,,,,,,,,,,5,,70,64
13949,note_on,,14,0,6,,,,,,,,,,,,,,,,5,,70,0
13950,note_on,,1,0,6,,,,,,,,,,,,,,,,5,,69,64
13964,note_on,,14,0,6,,,,,,,,,,,,,,,,5,,69,0
13965,note_on,,1,0,6,,,,,,,,,,,,,,,,5,,70,64
13979,note_on,,14,0,6,,,,,,,,,,,,,,,,5,,70,0
13980,note_on,,1,0,6,,,,,,,,,,,,,,,,5,,69,64
13994,note_on,,14,0,6,,,,,,,,,,,,,,,,5,,69,0
13995,note_on,,1,0,6,,,,,,,,,,,,,,,,5,,70,64
14009,note_on,,14,0,6,,,,,,,,,,,,,,,,5,,70,0
14010,note_on,,1,0,6,,,,,,,,,,,,,,,,5,,69,64
14024,note_on,,14,0,6,,,,,,,,,,,,,,,,5,,69,0
14025,note_on,,1,0,6,,,,,,,,,,,,,,,,5,,70,64
14039,note_on,,14,0,6,,,,,,,,,,,,,,,,5,,70,0
14040,note_on,,1,0,6,,,,,,,,,,,,,,,,5,,67,64
14099,note_on,,0,0,9,,,,,,,,,,,,,,,,15,,57,0
14099,note_on,,179,0,8,,,,,,,,,,,,,,,,13,,38,0
14099,note_on,,59,0,6,,,,,,,,,,,,,,,,5,,67,0
14099,note_on,,179,0,9,,,,,,,,,,,,,,,,15,,38,0
14099,note_on,,0,0,9,,,,,,,,,,,,,,,,15,,50,0
14099,note_on,,0,0,9,,,,,,,,,,,,,,,,15,,62,0
14099,note_on,,0,0,9,,,,,,,,,,,,,,,,15,,66,0
14100,note_on,,1,0,8,,,,,,,,,,,,,,,,13,,43,48
14100,note_on,,1,0,6,,,,,,,,,,,,,,,,5,,67,64
14100,note_on,,0,0,9,,,,,,,,,,,,,,,,15,,58,48
14100,note_on,,0,0,9,,,,,,,,,,,,,,,,15,,62,48
14100,note_on,,0,0,9,,,,,,,,,,,,,,,,15,,67,48
14100,note_on,,0,0,9,,,,,,,,,,,,,,,,15,,50,48
14100,note_on,,1,0,9,,,,,,,,,,,,,,,,15,,43,48
14219,note_on,,119,0,8,,,,,,,,,,,,,,,,13,,43,0
14219,note_on,,119,0,9,,,,,,,,,,,,,,,,15,,43,0
14219,note_on,,0,0,9,,,,,,,,,,,,,,,,15,,50,0
14220,note_on,,7021,0,5,,,,,,,,,,,,,,,,2,,55,72
14220,note_on,,1,0,9,,,,,,,,,,,,,,,,15,,55,72
14220,note_on,,1,0,8,,,,,,,,,,,,,,,,13,,55,72
14279,note_on,,59,0,9,,,,,,,,,,,,,,,,15,,67,0
14279,note_on,,179,0,6,,,,,,,,,,,,,,,,5,,67,0
14279,end_of_track,,0,1,6,,,,,,,,,,,,,,,,,,,
14279,note_on,,0,0,9,,,,,,,,,,,,,,,,15,,62,0
14279,note_on,,0,0,9,,,,,,,,,,,,,,,,15,,58,0
14279,note_on,,0,0,9,,,,,,,,,,,,,,,,15,,55,0
14279,note_on,,59,0,8,,,,,,,,,,,,,,,,13,,55,0
14279,note_on,,59,0,5,,,,,,,,,,,,,,,,2,,55,0
14280,note_on,,1,0,8,,,,,,,,,,,,,,,,13,,58,72
14280,note_on,,0,0,9,,,,,,,,,,,,,,,,15,,62,72
14280,note_on,,0,0,9,,,,,,,,,,,,,,,,15,,67,72
14280,note_on,,0,0,9,,,,,,,,,,,,,,,,15,,74,72
14280,note_on,,1,0,9,,,,,,,,,,,,,,,,15,,58,72
14280,note_on,,1,0,5,,,,,,,,,,,,,,,,2,,58,72
14399,note_on,,119,0,5,,,,,,,,,,,,,,,,2,,58,0
14399,note_on,,119,0,8,,,,,,,,,,,,,,,,13,,58,0
14399,note_on,,0,0,9,,,,,,,,,,,,,,,,15,,62,0
14399,note_on,,0,0,9,,,,,,,,,,,,,,,,15,,67,0
14399,note_on,,119,0,9,,,,,,,,,,,,,,,,15,,58,0
14400,note_on,,1,0,8,,,,,,,,,,,,,,,,13,,54,72
14400,note_on,,841,0,7,,,,,,,,,,,,,,,,10,,86,72
14400,note_on,,1,0,5,,,,,,,,,,,,,,,,2,,54,72
14400,note_on,,1,0,9,,,,,,,,,,,,,,,,15,,54,72
14400,note_on,,0,0,9,,,,,,,,,,,,,,,,15,,69,72
14400,note_on,,0,0,9,,,,,,,,,,,,,,,,15,,62,72
14459,note_on,,59,0,5,,,,,,,,,,,,,,,,2,,54,0
14459,note_on,,59,0,7,,,,,,,,,,,,,,,,10,,86,0
14459,note_on,,0,0,9,,,,,,,,,,,,,,,,15,,62,0
14459,note_on,,59,0,9,,,,,,,,,,,,,,,,15,,74,0
14459,note_on,,0,0,9,,,,,,,,,,,,,,,,15,,54,0
14459,note_on,,0,0,9,,,,,,,,,,,,,,,,15,,69,0
14459,note_on,,59,0,8,,,,,,,,,,,,,,,,13,,54,0
14460,note_on,,1,0,5,,,,,,,,,,,,,,,,2,,55,72
14460,note_on,,1,0,7,,,,,,,,,,,,,,,,10,,82,72
14460,note_on,,0,0,9,,,,,,,,,,,,,,,,15,,74,72
14460,note_on,,0,0,9,,,,,,,,,,,,,,,,15,,70,72
14460,note_on,,0,0,9,,,,,,,,,,,,,,,,15,,67,72
14460,note_on,,1,0,8,,,,,,,,,,,,,,,,13,,55,72
14460,note_on,,1,0,9,,,,,,,,,,,,,,,,15,,55,72
14549,note_on,,89,0,7,,,,,,,,,,,,,,,,10,,82,0
14550,note_on,,1,0,7,,,,,,,,,,,,,,,,10,,81,72
14579,note_on,,119,0,5,,,,,,,,,,,,,,,,2,,55,0
14579,note_on,,119,0,8,,,,,,,,,,,,,,,,13,,55,0
14579,note_on,,0,0,9,,,,,,,,,,,,,,,,15,,67,0
14579,note_on,,0,0,9,,,,,,,,,,,,,,,,15,,70,0
14579,note_on,,29,0,7,,,,,,,,,,,,,,,,10,,81,0
14579,note_on,,0,0,9,,,,,,,,,,,,,,,,15,,74,0
14579,note_on,,119,0,9,,,,,,,,,,,,,,,,15,,55,0
14580,note_on,,0,0,9,,,,,,,,,,,,,,,,15,,70,72
14580,note_on,,1,0,8,,,,,,,,,,,,,,,,13,,58,72
14580,note_on,,0,0,9,,,,,,,,,,,,,,,,15,,62,72
14580,note_on,,1,0,9,,,,,,,,,,,,,,,,15,,58,72
14580,note_on,,0,0,9,,,,,,,,,,,,,,,,15,,67,72
14580,note_on,,1,0,5,,,,,,,,,,,,,,,,2,,58,72
14580,note_on,,1,0,7,,,,,,,,,,,,,,,,10,,79,72
14639,note_on,,59,0,7,,,,,,,,,,,,,,,,10,,79,0
14639,note_on,,59,0,5,,,,,,,,,,,,,,,,2,,58,0
14639,note_on,,59,0,8,,,,,,,,,,,,,,,,13,,58,0
14639,note_on,,0,0,9,,,,,,,,,,,,,,,,15,,62,0
14639,note_on,,0,0,9,,,,,,,,,,,,,,,,15,,67,0
14639,note_on,,59,0,9,,,,,,,,,,,,,,,,15,,58,0
14639,note_on,,0,0,9,,,,,,,,,,,,,,,,15,,70,0
14640,note_on,,0,0,9,,,,,,,,,,,,,,,,15,,72,72
14640,note_on,,1,0,7,,,,,,,,,,,,,,,,10,,79,72
14640,note_on,,1,0,9,,,,,,,,,,,,,,,,15,,57,72
14640,note_on,,0,0,9,,,,,,,,,,,,,,,,15,,60,72
14640,note_on,,0,0,9,,,,,,,,,,,,,,,,15,,69,72
14640,note_on,,1,0,8,,,,,,,,,,,,,,,,13,,57,72
14640,note_on,,1,0,5,,,,,,,,,,,,,,,,2,,57,72
14759,note_on,,0,0,9,,,,,,,,,,,,,,,,15,,60,0
14759,note_on,,119,0,8,,,,,,,,,,,,,,,,13,,57,0
14759,note_on,,119,0,7,,,,,,,,,,,,,,,,10,,79,0
14759,note_on,,119,0,5,,,,,,,,,,,,,,,,2,,57,0
14759,note_on,,119,0,9,,,,,,,,,,,,,,,,15,,57,0
14760,note_on,,1,0,8,,,,,,,,,,,,,,,,13,,60,72
14760,note_on,,1,0,5,,,,,,,,,,,,,,,,2,,60,72
14760,note_on,,1,0,7,,,,,,,,,,,,,,,,10,,78,72
14760,note_on,,1,0,9,,,,,,,,,,,,,,,,15,,60,72
14760,note_on,,0,0,9,,,,,,,,,,,,,,,,15,,63,72
14819,note_on,,0,0,9,,,,,,,,,,,,,,,,15,,60,0
14819,note_on,,59,0,5,,,,,,,,,,,,,,,,2,,60,0
14819,note_on,,59,0,7,,,,,,,,,,,,,,,,10,,78,0
14819,note_on,,59,0,9,,,,,,,,,,,,,,,,15,,72,0
14819,note_on,,0,0,9,,,,,,,,,,,,,,,,15,,63,0
14819,note_on,,0,0,9,,,,,,,,,,,,,,,,15,,69,0
14819,note_on,,59,0,8,,,,,,,,,,,,,,,,13,,60,0
14820,note_on,,0,0,9,,,,,,,,,,,,,,,,15,,62,72
14820,note_on,,1,0,8,,,,,,,,,,,,,,,,13,,58,72
14820,note_on,,1,0,7,,,,,,,,,,,,,,,,10,,79,72
14820,note_on,,1,0,9,,,,,,,,,,,,,,,,15,,58,72
14820,note_on,,0,0,9,,,,,,,,,,,,,,,,15,,74,72
14820,note_on,,1,0,5,,,,,,,,,,,,,,,,2,,58,72
14820,note_on,,0,0,9,,,,,,,,,,,,,,,,15,,67,72
14909,note_on,,89,0,7,,,,,,,,,,,,,,,,10,,79,0
14910,note_on,,1,0,7,,,,,,,,,,,,,,,,10,,81,72
14939,note_on,,119,0,8,,,,,,,,,,,,,,,,13,,58,0
14939,note_on,,119,0,5,,,,,,,,,,,,,,,,2,,58,0
14939,note_on,,29,0,7,,,,,,,,,,,,,,,,10,,81,0
14939,note_on,,119,0,9,,,,,,,,,,,,,,,,15,,58,0
14940,note_on,,1,0,9,,,,,,,,,,,,,,,,15,,55,72
14940,note_on,,1,0,5,,,,,,,,,,,,,,,,2,,55,72
14940,note_on,,1,0,8,,,,,,,,,,,,,,,,13,,55,72
14940,note_on,,1,0,7,,,,,,,,,,,,,,,,10,,82,72
14999,note_on,,59,0,5,,,,,,,,,,,,,,,,2,,55,0
14999,note_on,,59,0,7,,,,,,,,,,,,,,,,10,,82,0
14999,note_on,,59,0,8,,,,,,,,,,,,,,,,13,,55,0
14999,note_on,,0,0,9,,,,,,,,,,,,,,,,15,,55,0
14999,note_on,,0,0,9,,,,,,,,,,,,,,,,15,,62,0
14999,note_on,,0,0,9,,,,,,,,,,,,,,,,15,,67,0
14999,note_on,,59,0,9,,,,,,,,,,,,,,,,15,,74,0
15000,note_on,,1,0,5,,,,,,,,,,,,,,,,2,,55,72
15000,note_on,,0,0,9,,,,,,,,,,,,,,,,15,,63,72
15000,note_on,,0,0,9,,,,,,,,,,,,,,,,15,,57,72
15000,note_on,,1,0,9,,,,,,,,,,,,,,,,15,,55,72
15000,note_on,,0,0,9,,,,,,,,,,,,,,,,15,,69,72
15000,note_on,,0,0,9,,,,,,,,,,,,,,,,15,,72,72
15000,note_on,,1,0,8,,,,,,,,,,,,,,,,13,,55,72
15000,note_on,,1,0,7,,,,,,,,,,,,,,,,10,,81,72
15119,note_on,,119,0,5,,,,,,,,,,,,,,,,2,,55,0
15119,note_on,,119,0,7,,,,,,,,,,,,,,,,10,,81,0
15119,note_on,,0,0,9,,,,,,,,,,,,,,,,15,,69,0
15119,note_on,,0,0,9,,,,,,,,,,,,,,,,15,,63,0
15119,note_on,,119,0,9,,,,,,,,,,,,,,,,15,,55,0
15119,note_on,,119,0,8,,,,,,,,,,,,,,,,13,,55,0
15119,note_on,,0,0,9,,,,,,,,,,,,,,,,15,,72,0
15120,note_on,,1,0,9,,,,,,,,,,,,,,,,15,,54,72
15120,note_on,,1,0,5,,,,,,,,,,,,,,,,2,,54,72
15120,note_on,,0,0,9,,,,,,,,,,,,,,,,15,,62,72
15120,note_on,,1,0,8,,,,,,,,,,,,,,,,13,,54,72
15120,note_on,,0,0,9,,,,,,,,,,,,,,,,15,,69,72
15120,note_on,,0,0,9,,,,,,,,,,,,,,,,15,,74,72
15120,note_on,,1,0,7,,,,,,,,,,,,,,,,10,,74,72
15179,note_on,,59,0,9,,,,,,,,,,,,,,,,15,,57,0
15179,note_on,,0,0,9,,,,,,,,,,,,,,,,15,,54,0
15179,note_on,,59,0,5,,,,,,,,,,,,,,,,2,,54,0
15179,note_on,,0,0,9,,,,,,,,,,,,,,,,15,,74,0
15179,note_on,,59,0,8,,,,,,,,,,,,,,,,13,,54,0
15179,note_on,,0,0,9,,,,,,,,,,,,,,,,15,,62,0
15179,note_on,,59,0,7,,,,,,,,,,,,,,,,10,,74,0
15179,note_on,,0,0,9,,,,,,,,,,,,,,,,15,,69,0
15180,note_on,,0,0,9,,,,,,,,,,,,,,,,15,,62,72
15180,note_on,,0,0,9,,,,,,,,,,,,,,,,15,,58,72
15180,note_on,,0,0,9,,,,,,,,,,,,,,,,15,,67,72
15180,note_on,,0,0,9,,,,,,,,,,,,,,,,15,,74,72
15180,note_on,,1,0,9,,,,,,,,,,,,,,,,15,,55,72
15180,note_on,,1,0,8,,,,,,,,,,,,,,,,13,,55,72
15180,note_on,,1,0,5,,,,,,,,,,,,,,,,2,,55,72
15180,note_on,,1,0,7,,,,,,,,,,,,,,,,10,,82,72
15269,note_on,,89,0,7,,,,,,,,,,,,,,,,10,,82,0
15270,note_on,,1,0,7,,,,,,,,,,,,,,,,10,,84,72
15299,note_on,,119,0,9,,,,,,,,,,,,,,,,15,,55,0
15299,note_on,,29,0,7,,,,,,,,,,,,,,,,10,,84,0
15299,note_on,,119,0,5,,,,,,,,,,,,,,,,2,,55,0
15299,note_on,,119,0,8,,,,,,,,,,,,,,,,13,,55,0
15300,note_on,,1,0,9,,,,,,,,,,,,,,,,15,,53,72
15300,note_on,,1,0,5,,,,,,,,,,,,,,,,2,,53,72
15300,note_on,,1,0,7,,,,,,,,,,,,,,,,10,,82,72
15300,note_on,,1,0,8,,,,,,,,,,,,,,,,13,,53,72
15359,note_on,,0,0,9,,,,,,,,,,,,,,,,15,,53,0
15359,note_on,,59,0,5,,,,,,,,,,,,,,,,2,,53,0
15359,note_on,,59,0,7,,,,,,,,,,,,,,,,10,,82,0
15359,note_on,,59,0,9,,,,,,,,,,,,,,,,15,,74,0
15359,note_on,,59,0,8,,,,,,,,,,,,,,,,13,,53,0
15359,note_on,,0,0,9,,,,,,,,,,,,,,,,15,,58,0
15359,note_on,,0,0,9,,,,,,,,,,,,,,,,15,,62,0
15359,note_on,,0,0,9,,,,,,,,,,,,,,,,15,,67,0
15360,note_on,,0,0,9,,,,,,,,,,,,,,,,15,,67,72
15360,note_on,,0,0,9,,,,,,,,,,,,,,,,15,,55,72
15360,note_on,,1,0,9,,,,,,,,,,,,,,,,15,,52,72
15360,note_on,,1,0,8,,,,,,,,,,,,,,,,13,,52,72
15360,note_on,,0,0,9,,,,,,,,,,,,,,,,15,,72,72
15360,note_on,,1,0,5,,,,,,,,,,,,,,,,2,,52,72
15360,note_on,,1,0,7,,,,,,,,,,,,,,,,10,,72,72
15479,note_on,,119,0,5,,,,,,,,,,,,,,,,2,,52,0
15479,note_on,,119,0,8,,,,,,,,,,,,,,,,13,,52,0
15479,note_on,,0,0,9,,,,,,,,,,,,,,,,15,,55,0
15479,note_on,,119,0,9,,,,,,,,,,,,,,,,15,,52,0
15479,note_on,,119,0,7,,,,,,,,,,,,,,,,10,,72,0
15480,note_on,,1,0,9,,,,,,,,,,,,,,,,15,,48,72
15480,note_on,,1,0,5,,,,,,,,,,,,,,,,2,,48,72
15480,note_on,,1,0,7,,,,,,,,,,,,,,,,10,,82,72
15480,note_on,,1,0,8,,,,,,,,,,,,,,,,13,,48,72
15480,note_on,,0,0,9,,,,,,,,,,,,,,,,15,,51,72
15539,note_on,,59,0,7,,,,,,,,,,,,,,,,10,,82,0
15539,note_on,,59,0,9,,,,,,,,,,,,,,,,15,,72,0
15539,note_on,,0,0,9,,,,,,,,,,,,,,,,15,,67,0
15539,note_on,,0,0,9,,,,,,,,,,,,,,,,15,,48,0
15539,note_on,,59,0,5,,,,,,,,,,,,,,,,2,,48,0
15539,note_on,,0,0,9,,,,,,,,,,,,,,,,15,,51,0
15539,note_on,,59,0,8,,,,,,,,,,,,,,,,13,,48,0
15540,note_on,,1,0,9,,,,,,,,,,,,,,,,15,,53,72
15540,note_on,,0,0,9,,,,,,,,,,,,,,,,15,,72,72
15540,note_on,,0,0,9,,,,,,,,,,,,,,,,15,,65,72
15540,note_on,,0,0,9,,,,,,,,,,,,,,,,15,,60,72
15540,note_on,,1,0,5,,,,,,,,,,,,,,,,2,,53,72
15540,note_on,,1,0,7,,,,,,,,,,,,,,,,10,,82,72
15540,note_on,,1,0,8,,,,,,,,,,,,,,,,13,,53,72
15659,note_on,,119,0,7,,,,,,,,,,,,,,,,10,,82,0
15660,note_on,,1,0,7,,,,,,,,,,,,,,,,10,,81,72
15719,note_on,,0,0,9,,,,,,,,,,,,,,,,15,,65,0
15719,note_on,,0,0,9,,,,,,,,,,,,,,,,15,,72,0
15719,note_on,,179,0,9,,,,,,,,,,,,,,,,15,,53,0
15719,note_on,,179,0,5,,,,,,,,,,,,,,,,2,,53,0
15719,note_on,,179,0,8,,,,,,,,,,,,,,,,13,,53,0
15719,note_on,,0,0,9,,,,,,,,,,,,,,,,15,,60,0
15719,note_on,,59,0,7,,,,,,,,,,,,,,,,10,,81,0
15720,note_on,,1,0,7,,,,,,,,,,,,,,,,10,,84,72
15840,note_on,,0,0,9,,,,,,,,,,,,,,,,15,,55,72
15840,note_on,,121,0,5,,,,,,,,,,,,,,,,2,,51,72
15840,note_on,,121,0,8,,,,,,,,,,,,,,,,13,,51,72
15840,note_on,,121,0,9,,,,,,,,,,,,,,,,15,,51,72
15840,note_on,,0,0,9,,,,,,,,,,,,,,,,15,,79,72
15840,note_on,,0,0,9,,,,,,,,,,,,,,,,15,,67,72
15899,note_on,,59,0,5,,,,,,,,,,,,,,,,2,,51,0
15899,note_on,,59,0,8,,,,,,,,,,,,,,,,13,,51,0
15899,note_on,,0,0,9,,,,,,,,,,,,,,,,15,,79,0
15899,note_on,,0,0,9,,,,,,,,,,,,,,,,15,,67,0
15899,note_on,,0,0,9,,,,,,,,,,,,,,,,15,,55,0
15899,note_on,,59,0,9,,,,,,,,,,,,,,,,15,,51,0
15900,note_on,,0,0,9,,,,,,,,,,,,,,,,15,,69,72
15900,note_on,,0,0,9,,,,,,,,,,,,,,,,15,,78,72
15900,note_on,,1,0,9,,,,,,,,,,,,,,,,15,,50,72
15900,note_on,,0,0,9,,,,,,,,,,,,,,,,15,,62,72
15900,note_on,,1,0,5,,,,,,,,,,,,,,,,2,,50,72
15900,note_on,,1,0,8,,,,,,,,,,,,,,,,13,,50,72
15989,note_on,,269,0,7,,,,,,,,,,,,,,,,10,,84,0
15990,note_on,,1,0,7,,,,,,,,,,,,,,,,10,,86,72
16019,note_on,,29,0,7,,,,,,,,,,,,,,,,10,,86,0
16019,note_on,,0,0,9,,,,,,,,,,,,,,,,15,,62,0
16019,note_on,,0,0,9,,,,,,,,,,,,,,,,15,,69,0
16019,note_on,,0,0,9,,,,,,,,,,,,,,,,15,,78,0
16019,note_on,,119,0,9,,,,,,,,,,,,,,,,15,,50,0
16019,note_on,,119,0,5,,,,,,,,,,,,,,,,2,,50,0
16019,note_on,,119,0,8,,,,,,,,,,,,,,,,13,,50,0
16020,note_on,,1,0,7,,,,,,,,,,,,,,,,10,,84,72
16079,note_on,,59,0,7,,,,,,,,,,,,,,,,10,,84,0
16080,note_on,,61,0,8,,,,,,,,,,,,,,,,13,,54,72
16080,note_on,,0,0,9,,,,,,,,,,,,,,,,15,,69,72
16080,note_on,,0,0,9,,,,,,,,,,,,,,,,15,,74,72
16080,note_on,,0,0,9,,,,,,,,,,,,,,,,15,,62,72
16080,note_on,,61,0,9,,,,,,,,,,,,,,,,15,,54,72
16080,note_on,,61,0,5,,,,,,,,,,,,,,,,2,,54,72
16080,note_on,,1,0,7,,,,,,,,,,,,,,,,10,,74,72
16199,note_on,,0,0,9,,,,,,,,,,,,,,,,15,,62,0
16199,note_on,,0,0,9,,,,,,,,,,,,,,,,15,,74,0
16199,note_on,,0,0,9,,,,,,,,,,,,,,,,15,,69,0
16199,note_on,,119,0,9,,,,,,,,,,,,,,,,15,,54,0
16199,note_on,,119,0,5,,,,,,,,,,,,,,,,2,,54,0
16199,note_on,,119,0,7,,,,,,,,,,,,,,,,10,,74,0
16199,note_on,,119,0,8,,,,,,,,,,,,,,,,13,,54,0
16200,note_on,,1,0,7,,,,,,,,,,,,,,,,10,,84,72
16259,note_on,,59,0,7,,,,,,,,,,,,,,,,10,,84,0
16260,note_on,,0,0,9,,,,,,,,,,,,,,,,15,,67,72
16260,note_on,,61,0,5,,,,,,,,,,,,,,,,2,,55,72
16260,note_on,,1,0,7,,,,,,,,,,,,,,,,10,,84,72
16260,note_on,,61,0,9,,,,,,,,,,,,,,,,15,,55,72
16260,note_on,,0,0,9,,,,,,,,,,,,,,,,15,,74,72
16260,note_on,,0,0,9,,,,,,,,,,,,,,,,15,,62,72
16260,note_on,,61,0,8,,,,,,,,,,,,,,,,13,,55,72
16379,note_on,,119,0,7,,,,,,,,,,,,,,,,10,,84,0
16380,note_on,,1,0,7,,,,,,,,,,,,,,,,10,,82,72
16439,note_on,,0,0,9,,,,,,,,,,,,,,,,15,,62,0
16439,note_on,,179,0,5,,,,,,,,,,,,,,,,2,,55,0
16439,note_on,,0,0,9,,,,,,,,,,,,,,,,15,,67,0
16439,note_on,,0,0,9,,,,,,,,,,,,,,,,15,,74,0
16439,note_on,,179,0,8,,,,,,,,,,,,,,,,13,,55,0
16439,note_on,,179,0,9,,,,,,,,,,,,,,,,15,,55,0
16439,note_on,,59,0,7,,,,,,,,,,,,,,,,10,,82,0
16440,note_on,,1,0,7,,,,,,,,,,,,,,,,10,,75,72
16560,note_on,,0,0,9,,,,,,,,,,,,,,,,15,,63,72
16560,note_on,,121,0,5,,,,,,,,,,,,,,,,2,,60,72
16560,note_on,,0,0,9,,,,,,,,,,,,,,,,15,,72,72
16560,note_on,,121,0,9,,,,,,,,,,,,,,,,15,,60,72
16560,note_on,,0,0,9,,,,,,,,,,,,,,,,15,,67,72
16560,note_on,,121,0,8,,,,,,,,,,,,,,,,13,,60,72
16619,note_on,,179,0,7,,,,,,,,,,,,,,,,10,,75,0
16619,note_on,,59,0,5,,,,,,,,,,,,,,,,2,,60,0
16619,note_on,,59,0,8,,,,,,,,,,,,,,,,13,,60,0
16619,note_on,,59,0,9,,,,,,,,,,,,,,,,15,,60,0
16619,note_on,,0,0,9,,,,,,,,,,,,,,,,15,,72,0
16619,note_on,,0,0,9,,,,,,,,,,,,,,,,15,,67,0
16619,note_on,,0,0,9,,,,,,,,,,,,,,,,15,,63,0
16620,note_on,,1,0,8,,,,,,,,,,,,,,,,13,,54,72
16620,note_on,,0,0,9,,,,,,,,,,,,,,,,15,,62,72
16620,note_on,,0,0,9,,,,,,,,,,,,,,,,15,,69,72
16620,note_on,,0,0,9,,,,,,,,,,,,,,,,15,,74,72
16620,note_on,,1,0,5,,,,,,,,,,,,,,,,2,,54,72
16620,note_on,,1,0,7,,,,,,,,,,,,,,,,10,,74,72
16620,note_on,,1,0,9,,,,,,,,,,,,,,,,15,,54,72
16709,note_on,,89,0,7,,,,,,,,,,,,,,,,10,,74,0
16710,note_on,,1,0,7,,,,,,,,,,,,,,,,10,,72,72
16739,note_on,,119,0,5,,,,,,,,,,,,,,,,2,,54,0
16739,note_on,,119,0,9,,,,,,,,,,,,,,,,15,,54,0
16739,note_on,,0,0,9,,,,,,,,,,,,,,,,15,,74,0
16739,note_on,,0,0,9,,,,,,,,,,,,,,,,15,,69,0
16739,note_on,,0,0,9,,,,,,,,,,,,,,,,15,,62,0
16739,note_on,,29,0,7,,,,,,,,,,,,,,,,10,,72,0
16739,note_on,,119,0,8,,,,,,,,,,,,,,,,13,,54,0
16740,note_on,,0,0,9,,,,,,,,,,,,,,,,15,,70,72
16740,note_on,,1,0,9,,,,,,,,,,,,,,,,15,,55,72
16740,note_on,,0,0,9,,,,,,,,,,,,,,,,15,,67,72
16740,note_on,,0,0,9,,,,,,,,,,,,,,,,15,,62,72
16740,note_on,,1,0,5,,,,,,,,,,,,,,,,2,,55,72
16740,note_on,,1,0,7,,,,,,,,,,,,,,,,10,,70,72
16740,note_on,,1,0,8,,,,,,,,,,,,,,,,13,,55,72
16799,note_on,,59,0,7,,,,,,,,,,,,,,,,10,,70,0
16799,note_on,,59,0,9,,,,,,,,,,,,,,,,15,,55,0
16799,note_on,,0,0,9,,,,,,,,,,,,,,,,15,,70,0
16799,note_on,,0,0,9,,,,,,,,,,,,,,,,15,,67,0
16799,note_on,,0,0,9,,,,,,,,,,,,,,,,15,,62,0
16799,note_on,,59,0,5,,,,,,,,,,,,,,,,2,,55,0
16799,note_on,,59,0,8,,,,,,,,,,,,,,,,13,,55,0
16800,note_on,,0,0,9,,,,,,,,,,,,,,,,15,,58,72
16800,note_on,,1,0,5,,,,,,,,,,,,,,,,2,,50,72
16800,note_on,,1,0,8,,,,,,,,,,,,,,,,13,,50,72
16800,note_on,,0,0,9,,,,,,,,,,,,,,,,15,,50,72
16800,note_on,,1,0,9,,,,,,,,,,,,,,,,15,,62,72
16800,note_on,,1,0,7,,,,,,,,,,,,,,,,10,,70,72
16800,note_on,,0,0,9,,,,,,,,,,,,,,,,15,,67,72
16919,note_on,,119,0,8,,,,,,,,,,,,,,,,13,,50,0
16919,note_on,,119,0,5,,,,,,,,,,,,,,,,2,,50,0
16919,note_on,,119,0,9,,,,,,,,,,,,,,,,15,,62,0
16919,note_on,,0,0,9,,,,,,,,,,,,,,,,15,,50,0
16919,note_on,,0,0,9,,,,,,,,,,,,,,,,15,,67,0
16919,note_on,,0,0,9,,,,,,,,,,,,,,,,15,,58,0
16919,note_on,,119,0,7,,,,,,,,,,,,,,,,10,,70,0
16920,note_on,,1,0,9,,,,,,,,,,,,,,,,15,,38,72
16920,note_on,,0,0,9,,,,,,,,,,,,,,,,15,,50,72
16920,note_on,,0,0,9,,,,,,,,,,,,,,,,15,,66,72
16920,note_on,,0,0,9,,,,,,,,,,,,,,,,15,,62,72
16920,note_on,,0,0,9,,,,,,,,,,,,,,,,15,,57,72
16920,note_on,,1,0,8,,,,,,,,,,,,,,,,13,,38,72
16920,note_on,,1,0,5,,,,,,,,,,,,,,,,2,,38,72
16920,note_on,,1,0,7,,,,,,,,,,,,,,,,10,,69,72
16979,note_on,,59,0,7,,,,,,,,,,,,,,,,10,,69,0
16979,note_on,,0,0,9,,,,,,,,,,,,,,,,15,,57,0
16979,note_on,,0,0,9,,,,,,,,,,,,,,,,15,,62,0
16979,note_on,,59,0,5,,,,,,,,,,,,,,,,2,,38,0
16979,note_on,,0,0,9,,,,,,,,,,,,,,,,15,,66,0
16979,note_on,,0,0,9,,,,,,,,,,,,,,,,15,,50,0
16979,note_on,,59,0,9,,,,,,,,,,,,,,,,15,,38,0
16979,note_on,,59,0,8,,,,,,,,,,,,,,,,13,,38,0
16980,note_on,,0,0,9,,,,,,,,,,,,,,,,15,,50,72
16980,note_on,,0,0,9,,,,,,,,,,,,,,,,15,,58,72
16980,note_on,,0,0,9,,,,,,,,,,,,,,,,15,,62,72
16980,note_on,,0,0,9,,,,,,,,,,,,,,,,15,,67,72
16980,note_on,,1,0,9,,,,,,,,,,,,,,,,15,,43,72
16980,note_on,,1,0,8,,,,,,,,,,,,,,,,13,,43,72
16980,note_on,,1,0,5,,,,,,,,,,,,,,,,2,,43,72
16980,note_on,,1,0,7,,,,,,,,,,,,,,,,10,,67,72
17099,note_on,,119,0,7,,,,,,,,,,,,,,,,10,,67,0
17100,note_on,,1,0,7,,,,,,,,,,,,,,,,10,,62,72
17159,end_of_track,,0,1,8,,,,,,,,,,,,,,,,,,,
17159,note_on,,0,0,9,,,,,,,,,,,,,,,,15,,58,0
17159,note_on,,0,0,9,,,,,,,,,,,,,,,,15,,62,0
17159,note_on,,0,0,9,,,,,,,,,,,,,,,,15,,67,0
17159,note_on,,179,0,9,,,,,,,,,,,,,,,,15,,43,0
17159,note_on,,59,0,7,,,,,,,,,,,,,,,,10,,62,0
17159,note_on,,179,0,5,,,,,,,,,,,,,,,,2,,43,0
17159,end_of_track,,0,1,5,,,,,,,,,,,,,,,,,,,
17159,note_on,,0,0,9,,,,,,,,,,,,,,,,15,,50,0
17159,note_on,,179,0,8,,,,,,,,,,,,,,,,13,,43,0
17159,end_of_track,,0,1,9,,,,,,,,,,,,,,,,,,,
17160,note_on,,1,0,7,,,,,,,,,,,,,,,,10,,55,72
17339,note_on,,179,0,7,,,,,,,,,,,,,,,,10,,55,0
17339,end_of_track,,0,1,7,,,,,,,,,,,,,,,,,,,
