tick,type,data,time,meta,track,frame_rate,hours,minutes,seconds,frames,sub_frames,port,key,tempo,numerator,denominator,clocks_per_click,notated_32nd_notes_per_beat,control,value,channel,program,note,velocity
0,sequencer_specific,"(0, 0, 91, 35, 1, 0, 5, 4, 35, 0)",0,1,0,,,,,,,,,,,,,,,,,,,
0,control_change,,0,0,9,,,,,,,,,,,,,,11,127,12,,,
0,note_on,,0,0,9,,,,,,,,,,,,,,,,12,,68,72
0,track_name,,0,1,10,,,,,,,,,,,,,,,,,,,
0,midi_port,,0,1,10,,,,,,,0,,,,,,,,,,,,
0,program_change,,0,0,10,,,,,,,,,,,,,,,,13,48,,
0,control_change,,0,0,10,,,,,,,,,,,,,,7,96,13,,,
0,control_change,,0,0,10,,,,,,,,,,,,,,10,96,13,,,
0,control_change,,0,0,10,,,,,,,,,,,,,,11,127,13,,,
0,note_on,,0,0,10,,,,,,,,,,,,,,,,13,,52,72
0,midi_port,,0,1,7,,,,,,,0,,,,,,,,,,,,
0,track_name,,0,1,11,,,,,,,,,,,,,,,,,,,
0,midi_port,,0,1,11,,,,,,,0,,,,,,,,,,,,
0,control_change,,0,0,11,,,,,,,,,,,,,,7,96,15,,,
0,control_change,,0,0,11,,,,,,,,,,,,,,10,90,15,,,
0,control_change,,0,0,11,,,,,,,,,,,,,,11,127,15,,,
0,program_change,,0,0,11,,,,,,,,,,,,,,,,15,6,,
0,note_on,,0,0,11,,,,,,,,,,,,,,,,15,,52,72
0,control_change,,0,0,9,,,,,,,,,,,,,,10,80,12,,,
0,control_change,,0,0,9,,,,,,,,,,,,,,7,96,12,,,
0,program_change,,0,0,9,,,,,,,,,,,,,,,,12,48,,
0,midi_port,,0,1,9,,,,,,,0,,,,,,,,,,,,
0,program_change,,0,0,7,,,,,,,,,,,,,,,,10,48,,
0,control_change,,0,0,7,,,,,,,,,,,,,,10,48,10,,,
0,control_change,,0,0,7,,,,,,,,,,,,,,11,127,10,,,
0,control_change,,0,0,7,,,,,,,,,,,,,,7,96,10,,,
0,note_on,,0,0,7,,,,,,,,,,,,,,,,10,,76,72
0,track_name,,0,1,8,,,,,,,,,,,,,,,,,,,
0,midi_port,,0,1,8,,,,,,,0,,,,,,,,,,,,
0,program_change,,0,0,8,,,,,,,,,,,,,,,,11,48,,
0,note_on,,0,0,11,,,,,,,,,,,,,,,,15,,68,72
0,control_change,,0,0,8,,,,,,,,,,,,,,7,96,11,,,
0,control_change,,0,0,8,,,,,,,,,,,,,,11,127,11,,,
0,note_on,,0,0,8,,,,,,,,,,,,,,,,11,,71,72
0,program_change,,0,0,6,,,,,,,,,,,,,,,,7,70,,
0,control_change,,0,0,6,,,,,,,,,,,,,,10,75,7,,,
0,control_change,,0,0,6,,,,,,,,,,,,,,11,127,7,,,
0,midi_port,,0,1,6,,,,,,,0,,,,,,,,,,,,
0,track_name,,0,1,6,,,,,,,,,,,,,,,,,,,
0,track_name,,0,1,9,,,,,,,,,,,,,,,,,,,
0,control_change,,0,0,8,,,,,,,,,,,,,,10,24,11,,,
0,note_on,,0,0,11,,,,,,,,,,,,,,,,15,,59,72
0,track_name,,0,1,7,,,,,,,,,,,,,,,,,,,
0,program_change,,0,0,5,,,,,,,,,,,,,,,,2,70,,
0,end_of_track,,0,1,1,,,,,,,,,,,,,,,,,,,
0,track_name,,0,1,2,,,,,,,,,,,,,,,,,,,
0,midi_port,,0,1,2,,,,,,,0,,,,,,,,,,,,
0,end_of_track,,0,1,2,,,,,,,,,,,,,,,,,,,
0,track_name,,0,1,3,,,,,,,,,,,,,,,,,,,
0,midi_port,,0,1,3,,,,,,,0,,,,,,,,,,,,
0,midi_port,,0,1,1,,,,,,,0,,,,,,,,,,,,
0,end_of_track,,0,1,3,,,,,,,,,,,,,,,,,,,
0,end_of_track,,0,1,4,,,,,,,,,,,,,,,,,,,
0,track_name,,0,1,5,,,,,,,,,,,,,,,,,,,
0,midi_port,,0,1,5,,,,,,,0,,,,,,,,,,,,
0,control_change,,0,0,5,,,,,,,,,,,,,,7,96,2,,,
0,control_change,,0,0,5,,,,,,,,,,,,,,10,65,2,,,
0,note_on,,0,0,5,,,,,,,,,,,,,,,,2,,52,72
0,midi_port,,0,1,4,,,,,,,0,,,,,,,,,,,,
0,track_name,,0,1,1,,,,,,,,,,,,,,,,,,,
0,control_change,,0,0,5,,,,,,,,,,,,,,11,127,2,,,
0,instrument_name,,0,1,0,,,,,,,,,,,,,,,,,,,
0,smpte_offset,,0,1,0,25,32,0,3,0,0,,,,,,,,,,,,,
0,time_signature,,0,1,0,,,,,,,,,,4,4,24,8,,,,,,
0,track_name,,0,1,0,,,,,,,,,,,,,,,,,,,
0,set_tempo,,0,1,0,,,,,,,,,600000,,,,,,,,,,
0,key_signature,,0,1,0,,,,,,,,E,,,,,,,,,,,
0,midi_port,,0,1,0,,,,,,,0,,,,,,,,,,,,
59,note_on,,0,0,11,,,,,,,,,,,,,,,,15,,59,0
59,note_on,,59,0,8,,,,,,,,,,,,,,,,11,,71,0
59,note_on,,59,0,9,,,,,,,,,,,,,,,,12,,68,0
59,note_on,,59,0,11,,,,,,,,,,,,,,,,15,,52,0
59,note_on,,59,0,10,,,,,,,,,,,,,,,,13,,52,0
59,note_on,,59,0,5,,,,,,,,,,,,,,,,2,,52,0
60,note_on,,0,0,11,,,,,,,,,,,,,,,,15,,64,72
60,note_on,,1,0,11,,,,,,,,,,,,,,,,15,,56,72
60,note_on,,1,0,10,,,,,,,,,,,,,,,,13,,56,72
60,note_on,,1,0,5,,,,,,,,,,,,,,,,2,,56,72
60,note_on,,1,0,8,,,,,,,,,,,,,,,,11,,76,72
60,note_on,,1,0,9,,,,,,,,,,,,,,,,12,,71,72
119,note_on,,59,0,10,,,,,,,,,,,,,,,,13,,56,0
119,note_on,,0,0,11,,,,,,,,,,,,,,,,15,,56,0
119,note_on,,59,0,11,,,,,,,,,,,,,,,,15,,68,0
119,note_on,,119,0,7,,,,,,,,,,,,,,,,10,,76,0
119,note_on,,59,0,5,,,,,,,,,,,,,,,,2,,56,0
119,note_on,,59,0,9,,,,,,,,,,,,,,,,12,,71,0
120,note_on,,1,0,9,,,,,,,,,,,,,,,,12,,73,72
120,note_on,,1,0,10,,,,,,,,,,,,,,,,13,,57,72
120,note_on,,1,0,5,,,,,,,,,,,,,,,,2,,57,72
120,note_on,,0,0,11,,,,,,,,,,,,,,,,15,,66,72
120,note_on,,1,0,11,,,,,,,,,,,,,,,,15,,57,72
120,note_on,,1,0,7,,,,,,,,,,,,,,,,10,,78,72
179,note_on,,59,0,10,,,,,,,,,,,,,,,,13,,57,0
179,note_on,,59,0,5,,,,,,,,,,,,,,,,2,,57,0
179,note_on,,0,0,11,,,,,,,,,,,,,,,,15,,57,0
179,note_on,,59,0,11,,,,,,,,,,,,,,,,15,,64,0
179,note_on,,119,0,8,,,,,,,,,,,,,,,,11,,76,0
179,note_on,,59,0,9,,,,,,,,,,,,,,,,12,,73,0
180,note_on,,1,0,5,,,,,,,,,,,,,,,,2,,59,72
180,note_on,,1,0,8,,,,,,,,,,,,,,,,11,,75,72
180,note_on,,1,0,9,,,,,,,,,,,,,,,,12,,71,72
180,note_on,,1,0,10,,,,,,,,,,,,,,,,13,,59,72
180,note_on,,0,0,11,,,,,,,,,,,,,,,,15,,63,72
180,note_on,,1,0,11,,,,,,,,,,,,,,,,15,,59,72
239,note_on,,59,0,5,,,,,,,,,,,,,,,,2,,59,0
239,note_on,,0,0,11,,,,,,,,,,,,,,,,15,,63,0
239,note_on,,119,0,7,,,,,,,,,,,,,,,,10,,78,0
239,note_on,,59,0,11,,,,,,,,,,,,,,,,15,,66,0
239,note_on,,59,0,10,,,,,,,,,,,,,,,,13,,59,0
239,note_on,,0,0,11,,,,,,,,,,,,,,,,15,,59,0
239,note_on,,59,0,9,,,,,,,,,,,,,,,,12,,71,0
239,note_on,,59,0,8,,,,,,,,,,,,,,,,11,,75,0
240,note_on,,0,0,11,,,,,,,,,,,,,,,,15,,64,72
240,note_on,,0,0,11,,,,,,,,,,,,,,,,15,,59,72
240,note_on,,1,0,5,,,,,,,,,,,,,,,,2,,52,72
240,note_on,,1,0,11,,,,,,,,,,,,,,,,15,,52,72
240,note_on,,0,0,11,,,,,,,,,,,,,,,,15,,68,72
240,note_on,,1,0,7,,,,,,,,,,,,,,,,10,,80,72
240,note_on,,1,0,10,,,,,,,,,,,,,,,,13,,52,72
240,note_on,,1,0,9,,,,,,,,,,,,,,,,12,,71,72
240,note_on,,1,0,8,,,,,,,,,,,,,,,,11,,76,72
329,note_on,,89,0,7,,,,,,,,,,,,,,,,10,,80,0
329,note_on,,89,0,8,,,,,,,,,,,,,,,,11,,76,0
330,note_on,,1,0,8,,,,,,,,,,,,,,,,11,,80,72
330,note_on,,1,0,7,,,,,,,,,,,,,,,,10,,83,72
359,note_on,,0,0,11,,,,,,,,,,,,,,,,15,,64,0
359,note_on,,119,0,11,,,,,,,,,,,,,,,,15,,52,0
359,note_on,,0,0,11,,,,,,,,,,,,,,,,15,,68,0
359,note_on,,0,0,11,,,,,,,,,,,,,,,,15,,59,0
359,note_on,,29,0,8,,,,,,,,,,,,,,,,11,,80,0
359,note_on,,119,0,5,,,,,,,,,,,,,,,,2,,52,0
359,note_on,,119,0,9,,,,,,,,,,,,,,,,12,,71,0
359,note_on,,119,0,10,,,,,,,,,,,,,,,,13,,52,0
359,note_on,,29,0,7,,,,,,,,,,,,,,,,10,,83,0
360,note_on,,1,0,8,,,,,,,,,,,,,,,,11,,80,72
360,note_on,,1,0,7,,,,,,,,,,,,,,,,10,,83,72
420,note_on,,61,0,9,,,,,,,,,,,,,,,,12,,63,72
420,note_on,,61,0,10,,,,,,,,,,,,,,,,13,,54,72
420,note_on,,0,0,11,,,,,,,,,,,,,,,,15,,63,72
420,note_on,,61,0,11,,,,,,,,,,,,,,,,15,,54,72
420,note_on,,0,0,11,,,,,,,,,,,,,,,,15,,57,72
420,note_on,,61,0,5,,,,,,,,,,,,,,,,2,,54,72
479,note_on,,59,0,10,,,,,,,,,,,,,,,,13,,54,0
479,note_on,,0,0,11,,,,,,,,,,,,,,,,15,,57,0
479,note_on,,0,0,11,,,,,,,,,,,,,,,,15,,63,0
479,note_on,,59,0,11,,,,,,,,,,,,,,,,15,,54,0
479,note_on,,59,0,9,,,,,,,,,,,,,,,,12,,63,0
479,note_on,,59,0,5,,,,,,,,,,,,,,,,2,,54,0
480,note_on,,1,0,9,,,,,,,,,,,,,,,,12,,64,72
480,note_on,,1,0,10,,,,,,,,,,,,,,,,13,,56,72
480,note_on,,1,0,5,,,,,,,,,,,,,,,,2,,56,72
480,note_on,,0,0,11,,,,,,,,,,,,,,,,15,,56,72
480,note_on,,0,0,11,,,,,,,,,,,,,,,,15,,59,72
480,note_on,,1,0,11,,,,,,,,,,,,,,,,15,,64,72
539,note_on,,59,0,5,,,,,,,,,,,,,,,,2,,56,0
539,note_on,,59,0,10,,,,,,,,,,,,,,,,13,,56,0
539,note_on,,179,0,8,,,,,,,,,,,,,,,,11,,80,0
539,note_on,,179,0,7,,,,,,,,,,,,,,,,10,,83,0
539,note_on,,59,0,11,,,,,,,,,,,,,,,,15,,56,0
539,note_on,,59,0,9,,,,,,,,,,,,,,,,12,,64,0
540,note_on,,1,0,9,,,,,,,,,,,,,,,,12,,68,72
540,note_on,,1,0,7,,,,,,,,,,,,,,,,10,,81,72
540,note_on,,1,0,11,,,,,,,,,,,,,,,,15,,52,72
540,note_on,,1,0,5,,,,,,,,,,,,,,,,2,,52,72
540,note_on,,1,0,10,,,,,,,,,,,,,,,,13,,52,72
540,note_on,,1,0,8,,,,,,,,,,,,,,,,11,,71,72
569,note_on,,29,0,7,,,,,,,,,,,,,,,,10,,81,0
570,note_on,,1,0,7,,,,,,,,,,,,,,,,10,,80,72
599,note_on,,59,0,8,,,,,,,,,,,,,,,,11,,71,0
599,note_on,,59,0,9,,,,,,,,,,,,,,,,12,,68,0
599,note_on,,29,0,7,,,,,,,,,,,,,,,,10,,80,0
599,note_on,,59,0,10,,,,,,,,,,,,,,,,13,,52,0
599,note_on,,59,0,11,,,,,,,,,,,,,,,,15,,64,0
599,note_on,,59,0,5,,,,,,,,,,,,,,,,2,,52,0
599,note_on,,0,0,11,,,,,,,,,,,,,,,,15,,52,0
599,note_on,,0,0,11,,,,,,,,,,,,,,,,15,,59,0
600,note_on,,1,0,11,,,,,,,,,,,,,,,,15,,57,72
600,note_on,,1,0,8,,,,,,,,,,,,,,,,11,,73,72
600,note_on,,0,0,11,,,,,,,,,,,,,,,,15,,66,72
600,note_on,,1,0,5,,,,,,,,,,,,,,,,2,,57,72
600,note_on,,1,0,7,,,,,,,,,,,,,,,,10,,78,72
600,note_on,,0,0,11,,,,,,,,,,,,,,,,15,,61,72
600,note_on,,1,0,9,,,,,,,,,,,,,,,,12,,69,72
600,note_on,,1,0,10,,,,,,,,,,,,,,,,13,,57,72
659,note_on,,59,0,8,,,,,,,,,,,,,,,,11,,73,0
659,note_on,,0,0,11,,,,,,,,,,,,,,,,15,,66,0
659,note_on,,59,0,9,,,,,,,,,,,,,,,,12,,69,0
659,note_on,,59,0,11,,,,,,,,,,,,,,,,15,,57,0
659,note_on,,0,0,11,,,,,,,,,,,,,,,,15,,61,0
659,note_on,,59,0,7,,,,,,,,,,,,,,,,10,,78,0
659,note_on,,59,0,5,,,,,,,,,,,,,,,,2,,57,0
659,note_on,,59,0,10,,,,,,,,,,,,,,,,13,,57,0
660,note_on,,1,0,11,,,,,,,,,,,,,,,,15,,61,72
660,note_on,,1,0,8,,,,,,,,,,,,,,,,11,,76,72
660,note_on,,0,0,11,,,,,,,,,,,,,,,,15,,64,72
660,note_on,,1,0,9,,,,,,,,,,,,,,,,12,,68,72
660,note_on,,1,0,10,,,,,,,,,,,,,,,,13,,61,72
660,note_on,,1,0,7,,,,,,,,,,,,,,,,10,,76,72
660,note_on,,1,0,5,,,,,,,,,,,,,,,,2,,61,72
719,note_on,,59,0,11,,,,,,,,,,,,,,,,15,,61,0
719,note_on,,59,0,10,,,,,,,,,,,,,,,,13,,61,0
719,note_on,,59,0,8,,,,,,,,,,,,,,,,11,,76,0
719,note_on,,59,0,9,,,,,,,,,,,,,,,,12,,68,0
719,note_on,,59,0,5,,,,,,,,,,,,,,,,2,,61,0
719,note_on,,0,0,11,,,,,,,,,,,,,,,,15,,64,0
719,note_on,,59,0,7,,,,,,,,,,,,,,,,10,,76,0
720,note_on,,1,0,8,,,,,,,,,,,,,,,,11,,66,72
720,note_on,,1,0,5,,,,,,,,,,,,,,,,2,,59,72
720,note_on,,1,0,7,,,,,,,,,,,,,,,,10,,75,72
720,note_on,,0,0,11,,,,,,,,,,,,,,,,15,,63,72
720,note_on,,0,0,11,,,,,,,,,,,,,,,,15,,66,72
720,note_on,,1,0,11,,,,,,,,,,,,,,,,15,,59,72
720,note_on,,1,0,9,,,,,,,,,,,,,,,,12,,71,72
720,note_on,,1,0,10,,,,,,,,,,,,,,,,13,,59,72
809,note_on,,89,0,8,,,,,,,,,,,,,,,,11,,66,0
809,note_on,,89,0,7,,,,,,,,,,,,,,,,10,,75,0
810,note_on,,1,0,7,,,,,,,,,,,,,,,,10,,83,72
810,note_on,,1,0,8,,,,,,,,,,,,,,,,11,,75,72
839,note_on,,29,0,8,,,,,,,,,,,,,,,,11,,75,0
839,note_on,,119,0,5,,,,,,,,,,,,,,,,2,,59,0
839,note_on,,29,0,7,,,,,,,,,,,,,,,,10,,83,0
839,note_on,,119,0,9,,,,,,,,,,,,,,,,12,,71,0
839,note_on,,119,0,10,,,,,,,,,,,,,,,,13,,59,0
839,note_on,,119,0,11,,,,,,,,,,,,,,,,15,,59,0
839,note_on,,0,0,11,,,,,,,,,,,,,,,,15,,66,0
839,note_on,,0,0,11,,,,,,,,,,,,,,,,15,,63,0
840,note_on,,1,0,7,,,,,,,,,,,,,,,,10,,83,72
840,note_on,,1,0,8,,,,,,,,,,,,,,,,11,,75,72
899,note_on,,59,0,8,,,,,,,,,,,,,,,,11,,75,0
900,note_on,,61,0,5,,,,,,,,,,,,,,,,2,,57,72
900,note_on,,61,0,9,,,,,,,,,,,,,,,,12,,63,72
900,note_on,,61,0,10,,,,,,,,,,,,,,,,13,,57,72
900,note_on,,61,0,11,,,,,,,,,,,,,,,,15,,57,72
900,note_on,,0,0,11,,,,,,,,,,,,,,,,15,,71,72
900,note_on,,0,0,11,,,,,,,,,,,,,,,,15,,63,72
900,note_on,,1,0,8,,,,,,,,,,,,,,,,11,,78,72
900,note_on,,0,0,11,,,,,,,,,,,,,,,,15,,66,72
959,note_on,,0,0,11,,,,,,,,,,,,,,,,15,,66,0
959,note_on,,59,0,11,,,,,,,,,,,,,,,,15,,57,0
959,note_on,,59,0,8,,,,,,,,,,,,,,,,11,,78,0
959,note_on,,59,0,5,,,,,,,,,,,,,,,,2,,57,0
959,note_on,,0,0,11,,,,,,,,,,,,,,,,15,,63,0
959,note_on,,59,0,10,,,,,,,,,,,,,,,,13,,57,0
959,note_on,,59,0,9,,,,,,,,,,,,,,,,12,,63,0
960,note_on,,1,0,10,,,,,,,,,,,,,,,,13,,56,72
960,note_on,,0,0,11,,,,,,,,,,,,,,,,15,,64,72
960,note_on,,1,0,9,,,,,,,,,,,,,,,,12,,64,72
960,note_on,,1,0,8,,,,,,,,,,,,,,,,11,,71,72
960,note_on,,1,0,5,,,,,,,,,,,,,,,,2,,56,72
960,note_on,,1,0,11,,,,,,,,,,,,,,,,15,,56,72
1019,note_on,,59,0,9,,,,,,,,,,,,,,,,12,,64,0
1019,note_on,,59,0,5,,,,,,,,,,,,,,,,2,,56,0
1019,note_on,,179,0,7,,,,,,,,,,,,,,,,10,,83,0
1019,note_on,,59,0,8,,,,,,,,,,,,,,,,11,,71,0
1019,note_on,,59,0,10,,,,,,,,,,,,,,,,13,,56,0
1019,note_on,,59,0,11,,,,,,,,,,,,,,,,15,,56,0
1020,note_on,,1,0,8,,,,,,,,,,,,,,,,11,,73,72
1020,note_on,,1,0,11,,,,,,,,,,,,,,,,15,,52,72
1020,note_on,,1,0,7,,,,,,,,,,,,,,,,10,,81,72
1020,note_on,,1,0,5,,,,,,,,,,,,,,,,2,,52,72
1020,note_on,,1,0,10,,,,,,,,,,,,,,,,13,,52,72
1020,note_on,,1,0,9,,,,,,,,,,,,,,,,12,,64,72
1049,note_on,,29,0,7,,,,,,,,,,,,,,,,10,,81,0
1049,note_on,,29,0,8,,,,,,,,,,,,,,,,11,,73,0
1050,note_on,,1,0,7,,,,,,,,,,,,,,,,10,,80,72
1050,note_on,,1,0,8,,,,,,,,,,,,,,,,11,,71,72
1079,note_on,,59,0,9,,,,,,,,,,,,,,,,12,,64,0
1079,note_on,,0,0,11,,,,,,,,,,,,,,,,15,,52,0
1079,note_on,,0,0,11,,,,,,,,,,,,,,,,15,,64,0
1079,note_on,,59,0,11,,,,,,,,,,,,,,,,15,,71,0
1079,note_on,,29,0,7,,,,,,,,,,,,,,,,10,,80,0
1079,note_on,,29,0,8,,,,,,,,,,,,,,,,11,,71,0
1079,note_on,,59,0,5,,,,,,,,,,,,,,,,2,,52,0
1079,note_on,,59,0,10,,,,,,,,,,,,,,,,13,,52,0
1080,note_on,,1,0,5,,,,,,,,,,,,,,,,2,,57,72
1080,note_on,,0,0,11,,,,,,,,,,,,,,,,15,,73,72
1080,note_on,,1,0,11,,,,,,,,,,,,,,,,15,,57,72
1080,note_on,,1,0,8,,,,,,,,,,,,,,,,11,,69,72
1080,note_on,,1,0,10,,,,,,,,,,,,,,,,13,,57,72
1080,note_on,,1,0,9,,,,,,,,,,,,,,,,12,,66,72
1080,note_on,,1,0,7,,,,,,,,,,,,,,,,10,,78,72
1080,note_on,,0,0,11,,,,,,,,,,,,,,,,15,,61,72
1139,note_on,,59,0,8,,,,,,,,,,,,,,,,11,,69,0
1139,note_on,,59,0,10,,,,,,,,,,,,,,,,13,,57,0
1139,note_on,,59,0,5,,,,,,,,,,,,,,,,2,,57,0
1139,note_on,,59,0,9,,,,,,,,,,,,,,,,12,,66,0
1139,note_on,,59,0,11,,,,,,,,,,,,,,,,15,,57,0
1140,note_on,,1,0,10,,,,,,,,,,,,,,,,13,,45,72
1140,note_on,,1,0,5,,,,,,,,,,,,,,,,2,,45,72
1140,note_on,,1,0,9,,,,,,,,,,,,,,,,12,,73,72
1140,note_on,,1,0,8,,,,,,,,,,,,,,,,11,,68,72
1140,note_on,,1,0,11,,,,,,,,,,,,,,,,15,,45,72
1169,note_on,,89,0,7,,,,,,,,,,,,,,,,10,,78,0
1170,note_on,,1,0,7,,,,,,,,,,,,,,,,10,,76,72
1199,note_on,,59,0,8,,,,,,,,,,,,,,,,11,,68,0
1199,note_on,,59,0,10,,,,,,,,,,,,,,,,13,,45,0
1199,note_on,,59,0,9,,,,,,,,,,,,,,,,12,,73,0
1199,note_on,,0,0,11,,,,,,,,,,,,,,,,15,,45,0
1199,note_on,,59,0,11,,,,,,,,,,,,,,,,15,,73,0
1199,note_on,,29,0,7,,,,,,,,,,,,,,,,10,,76,0
1199,note_on,,59,0,5,,,,,,,,,,,,,,,,2,,45,0
1199,note_on,,0,0,11,,,,,,,,,,,,,,,,15,,61,0
1200,note_on,,1,0,8,,,,,,,,,,,,,,,,11,,66,72
1200,note_on,,0,0,11,,,,,,,,,,,,,,,,15,,59,72
1200,note_on,,0,0,11,,,,,,,,,,,,,,,,15,,63,72
1200,note_on,,1,0,9,,,,,,,,,,,,,,,,12,,71,72
1200,note_on,,1,0,10,,,,,,,,,,,,,,,,13,,47,72
1200,note_on,,0,0,11,,,,,,,,,,,,,,,,15,,66,72
1200,note_on,,1,0,11,,,,,,,,,,,,,,,,15,,47,72
1200,note_on,,1,0,5,,,,,,,,,,,,,,,,2,,47,72
1200,note_on,,1,0,7,,,,,,,,,,,,,,,,10,,75,72
1229,note_on,,29,0,7,,,,,,,,,,,,,,,,10,,75,0
1230,note_on,,1,0,7,,,,,,,,,,,,,,,,10,,73,72
1259,note_on,,59,0,9,,,,,,,,,,,,,,,,12,,71,0
1259,note_on,,29,0,7,,,,,,,,,,,,,,,,10,,73,0
1260,note_on,,1,0,9,,,,,,,,,,,,,,,,12,,63,72
1260,note_on,,1,0,7,,,,,,,,,,,,,,,,10,,71,72
1319,note_on,,59,0,7,,,,,,,,,,,,,,,,10,,71,0
1319,note_on,,119,0,8,,,,,,,,,,,,,,,,11,,66,0
1319,note_on,,0,0,11,,,,,,,,,,,,,,,,15,,63,0
1319,note_on,,0,0,11,,,,,,,,,,,,,,,,15,,59,0
1319,note_on,,0,0,11,,,,,,,,,,,,,,,,15,,66,0
1319,note_on,,119,0,10,,,,,,,,,,,,,,,,13,,47,0
1319,note_on,,119,0,5,,,,,,,,,,,,,,,,2,,47,0
1319,note_on,,59,0,9,,,,,,,,,,,,,,,,12,,63,0
1319,note_on,,119,0,11,,,,,,,,,,,,,,,,15,,47,0
1380,note_on,,61,0,10,,,,,,,,,,,,,,,,13,,56,72
1380,note_on,,61,0,5,,,,,,,,,,,,,,,,2,,56,72
1380,note_on,,0,0,11,,,,,,,,,,,,,,,,15,,59,72
1380,note_on,,61,0,9,,,,,,,,,,,,,,,,12,,64,72
1380,note_on,,61,0,8,,,,,,,,,,,,,,,,11,,71,72
1380,note_on,,0,0,11,,,,,,,,,,,,,,,,15,,64,72
1380,note_on,,61,0,11,,,,,,,,,,,,,,,,15,,56,72
1380,note_on,,61,0,7,,,,,,,,,,,,,,,,10,,76,72
1439,note_on,,59,0,7,,,,,,,,,,,,,,,,10,,76,0
1439,note_on,,0,0,11,,,,,,,,,,,,,,,,15,,59,0
1439,note_on,,0,0,11,,,,,,,,,,,,,,,,15,,64,0
1439,note_on,,59,0,5,,,,,,,,,,,,,,,,2,,56,0
1439,note_on,,59,0,9,,,,,,,,,,,,,,,,12,,64,0
1439,note_on,,59,0,11,,,,,,,,,,,,,,,,15,,56,0
1439,note_on,,59,0,8,,,,,,,,,,,,,,,,11,,71,0
1439,note_on,,59,0,10,,,,,,,,,,,,,,,,13,,56,0
1440,note_on,,1,0,10,,,,,,,,,,,,,,,,13,,57,72
1440,note_on,,1,0,5,,,,,,,,,,,,,,,,2,,57,72
1440,note_on,,0,0,11,,,,,,,,,,,,,,,,15,,66,72
1440,note_on,,1,0,9,,,,,,,,,,,,,,,,12,,61,72
1440,note_on,,1,0,11,,,,,,,,,,,,,,,,15,,57,72
1440,note_on,,1,0,7,,,,,,,,,,,,,,,,10,,78,72
1440,note_on,,0,0,11,,,,,,,,,,,,,,,,15,,61,72
1440,note_on,,1,0,8,,,,,,,,,,,,,,,,11,,73,72
1454,note_on,,14,0,7,,,,,,,,,,,,,,,,10,,78,0
1455,note_on,,1,0,7,,,,,,,,,,,,,,,,10,,80,72
1469,note_on,,14,0,7,,,,,,,,,,,,,,,,10,,80,0
1470,note_on,,1,0,7,,,,,,,,,,,,,,,,10,,76,72
1484,note_on,,14,0,7,,,,,,,,,,,,,,,,10,,76,0
1485,note_on,,1,0,7,,,,,,,,,,,,,,,,10,,78,72
1499,note_on,,14,0,7,,,,,,,,,,,,,,,,10,,78,0
1499,note_on,,59,0,9,,,,,,,,,,,,,,,,12,,61,0
1499,note_on,,59,0,8,,,,,,,,,,,,,,,,11,,73,0
1499,note_on,,59,0,11,,,,,,,,,,,,,,,,15,,57,0
1499,note_on,,59,0,10,,,,,,,,,,,,,,,,13,,57,0
1499,note_on,,0,0,11,,,,,,,,,,,,,,,,15,,61,0
1499,note_on,,0,0,11,,,,,,,,,,,,,,,,15,,66,0
1499,note_on,,59,0,5,,,,,,,,,,,,,,,,2,,57,0
1500,note_on,,1,0,5,,,,,,,,,,,,,,,,2,,56,72
1500,note_on,,1,0,9,,,,,,,,,,,,,,,,12,,64,72
1500,note_on,,1,0,7,,,,,,,,,,,,,,,,10,,76,72
1500,note_on,,1,0,11,,,,,,,,,,,,,,,,15,,56,72
1500,note_on,,0,0,11,,,,,,,,,,,,,,,,15,,64,72
1500,note_on,,0,0,11,,,,,,,,,,,,,,,,15,,59,72
1500,note_on,,1,0,8,,,,,,,,,,,,,,,,11,,71,72
1500,note_on,,1,0,10,,,,,,,,,,,,,,,,13,,56,72
1559,note_on,,59,0,9,,,,,,,,,,,,,,,,12,,64,0
1559,note_on,,59,0,8,,,,,,,,,,,,,,,,11,,71,0
1559,note_on,,59,0,10,,,,,,,,,,,,,,,,13,,56,0
1559,note_on,,59,0,11,,,,,,,,,,,,,,,,15,,56,0
1559,note_on,,0,0,11,,,,,,,,,,,,,,,,15,,59,0
1559,note_on,,0,0,11,,,,,,,,,,,,,,,,15,,64,0
1559,note_on,,59,0,7,,,,,,,,,,,,,,,,10,,76,0
1559,note_on,,59,0,5,,,,,,,,,,,,,,,,2,,56,0
1560,note_on,,1,0,11,,,,,,,,,,,,,,,,15,,57,72
1560,note_on,,1,0,10,,,,,,,,,,,,,,,,13,,57,72
1560,note_on,,0,0,11,,,,,,,,,,,,,,,,15,,66,72
1560,note_on,,1,0,7,,,,,,,,,,,,,,,,10,,78,72
1560,note_on,,1,0,8,,,,,,,,,,,,,,,,11,,73,72
1560,note_on,,0,0,11,,,,,,,,,,,,,,,,15,,61,72
1560,note_on,,1,0,5,,,,,,,,,,,,,,,,2,,57,72
1574,note_on,,14,0,7,,,,,,,,,,,,,,,,10,,78,0
1575,note_on,,1,0,7,,,,,,,,,,,,,,,,10,,80,72
1589,note_on,,14,0,7,,,,,,,,,,,,,,,,10,,80,0
1590,note_on,,1,0,7,,,,,,,,,,,,,,,,10,,76,72
1604,note_on,,14,0,7,,,,,,,,,,,,,,,,10,,76,0
1605,note_on,,1,0,7,,,,,,,,,,,,,,,,10,,78,72
1619,note_on,,59,0,11,,,,,,,,,,,,,,,,15,,57,0
1619,note_on,,14,0,7,,,,,,,,,,,,,,,,10,,78,0
1619,note_on,,59,0,10,,,,,,,,,,,,,,,,13,,57,0
1619,note_on,,0,0,11,,,,,,,,,,,,,,,,15,,66,0
1619,note_on,,59,0,8,,,,,,,,,,,,,,,,11,,73,0
1619,note_on,,0,0,11,,,,,,,,,,,,,,,,15,,61,0
1619,note_on,,59,0,5,,,,,,,,,,,,,,,,2,,57,0
1620,note_on,,1,0,7,,,,,,,,,,,,,,,,10,,76,72
1620,note_on,,1,0,11,,,,,,,,,,,,,,,,15,,56,72
1620,note_on,,1,0,5,,,,,,,,,,,,,,,,2,,56,72
1620,note_on,,0,0,11,,,,,,,,,,,,,,,,15,,59,72
1620,note_on,,0,0,11,,,,,,,,,,,,,,,,15,,64,72
1620,note_on,,1,0,10,,,,,,,,,,,,,,,,13,,56,72
1620,note_on,,1,0,8,,,,,,,,,,,,,,,,11,,71,72
1620,note_on,,61,0,9,,,,,,,,,,,,,,,,12,,64,72
1679,note_on,,0,0,11,,,,,,,,,,,,,,,,15,,59,0
1679,note_on,,59,0,11,,,,,,,,,,,,,,,,15,,56,0
1679,note_on,,59,0,10,,,,,,,,,,,,,,,,13,,56,0
1679,note_on,,0,0,11,,,,,,,,,,,,,,,,15,,64,0
1679,note_on,,59,0,7,,,,,,,,,,,,,,,,10,,76,0
1679,note_on,,59,0,9,,,,,,,,,,,,,,,,12,,64,0
1679,note_on,,59,0,5,,,,,,,,,,,,,,,,2,,56,0
1679,note_on,,59,0,8,,,,,,,,,,,,,,,,11,,71,0
1680,note_on,,0,0,11,,,,,,,,,,,,,,,,15,,66,72
1680,note_on,,1,0,11,,,,,,,,,,,,,,,,15,,57,72
1680,note_on,,1,0,5,,,,,,,,,,,,,,,,2,,57,72
1680,note_on,,1,0,8,,,,,,,,,,,,,,,,11,,73,72
1680,note_on,,1,0,9,,,,,,,,,,,,,,,,12,,61,72
1680,note_on,,0,0,11,,,,,,,,,,,,,,,,15,,61,72
1680,note_on,,1,0,7,,,,,,,,,,,,,,,,10,,78,72
1680,note_on,,1,0,10,,,,,,,,,,,,,,,,13,,57,72
1694,note_on,,14,0,7,,,,,,,,,,,,,,,,10,,78,0
1695,note_on,,1,0,7,,,,,,,,,,,,,,,,10,,80,72
1709,note_on,,14,0,7,,,,,,,,,,,,,,,,10,,80,0
1710,note_on,,1,0,7,,,,,,,,,,,,,,,,10,,76,72
1724,note_on,,14,0,7,,,,,,,,,,,,,,,,10,,76,0
1725,note_on,,1,0,7,,,,,,,,,,,,,,,,10,,78,72
1739,note_on,,59,0,10,,,,,,,,,,,,,,,,13,,57,0
1739,note_on,,59,0,5,,,,,,,,,,,,,,,,2,,57,0
1739,note_on,,59,0,8,,,,,,,,,,,,,,,,11,,73,0
1739,note_on,,59,0,11,,,,,,,,,,,,,,,,15,,57,0
1739,note_on,,59,0,9,,,,,,,,,,,,,,,,12,,61,0
1739,note_on,,0,0,11,,,,,,,,,,,,,,,,15,,61,0
1739,note_on,,14,0,7,,,,,,,,,,,,,,,,10,,78,0
1739,note_on,,0,0,11,,,,,,,,,,,,,,,,15,,66,0
1740,note_on,,1,0,11,,,,,,,,,,,,,,,,15,,56,72
1740,note_on,,1,0,8,,,,,,,,,,,,,,,,11,,71,72
1740,note_on,,1,0,9,,,,,,,,,,,,,,,,12,,64,72
1740,note_on,,0,0,11,,,,,,,,,,,,,,,,15,,59,72
1740,note_on,,0,0,11,,,,,,,,,,,,,,,,15,,64,72
1740,note_on,,1,0,10,,,,,,,,,,,,,,,,13,,56,72
1740,note_on,,1,0,7,,,,,,,,,,,,,,,,10,,76,72
1740,note_on,,1,0,5,,,,,,,,,,,,,,,,2,,56,72
1799,note_on,,59,0,9,,,,,,,,,,,,,,,,12,,64,0
1799,note_on,,59,0,5,,,,,,,,,,,,,,,,2,,56,0
1799,note_on,,59,0,8,,,,,,,,,,,,,,,,11,,71,0
1799,note_on,,59,0,7,,,,,,,,,,,,,,,,10,,76,0
1799,note_on,,59,0,10,,,,,,,,,,,,,,,,13,,56,0
1799,note_on,,0,0,11,,,,,,,,,,,,,,,,15,,64,0
1799,note_on,,59,0,11,,,,,,,,,,,,,,,,15,,56,0
1799,note_on,,0,0,11,,,,,,,,,,,,,,,,15,,59,0
1860,note_on,,61,0,11,,,,,,,,,,,,,,,,15,,52,72
1860,note_on,,0,0,11,,,,,,,,,,,,,,,,15,,68,72
1860,note_on,,0,0,11,,,,,,,,,,,,,,,,15,,64,72
1860,note_on,,61,0,8,,,,,,,,,,,,,,,,11,,76,72
1860,note_on,,61,0,5,,,,,,,,,,,,,,,,2,,52,72
1860,note_on,,61,0,9,,,,,,,,,,,,,,,,12,,71,72
1860,note_on,,61,0,10,,,,,,,,,,,,,,,,13,,52,72
1860,note_on,,61,0,7,,,,,,,,,,,,,,,,10,,80,72
1860,note_on,,0,0,11,,,,,,,,,,,,,,,,15,,59,72
1919,note_on,,59,0,8,,,,,,,,,,,,,,,,11,,76,0
1919,note_on,,59,0,5,,,,,,,,,,,,,,,,2,,52,0
1919,note_on,,59,0,9,,,,,,,,,,,,,,,,12,,71,0
1919,note_on,,59,0,7,,,,,,,,,,,,,,,,10,,80,0
1919,note_on,,59,0,10,,,,,,,,,,,,,,,,13,,52,0
1919,note_on,,59,0,11,,,,,,,,,,,,,,,,15,,52,0
1919,note_on,,0,0,11,,,,,,,,,,,,,,,,15,,59,0
1919,note_on,,0,0,11,,,,,,,,,,,,,,,,15,,64,0
1919,note_on,,0,0,11,,,,,,,,,,,,,,,,15,,68,0
1920,note_on,,0,0,11,,,,,,,,,,,,,,,,15,,69,72
1920,note_on,,1,0,9,,,,,,,,,,,,,,,,12,,69,72
1920,note_on,,1,0,5,,,,,,,,,,,,,,,,2,,54,72
1920,note_on,,1,0,7,,,,,,,,,,,,,,,,10,,81,72
1920,note_on,,1,0,8,,,,,,,,,,,,,,,,11,,75,72
1920,note_on,,1,0,11,,,,,,,,,,,,,,,,15,,54,72
1920,note_on,,1,0,10,,,,,,,,,,,,,,,,13,,54,72
1920,note_on,,0,0,11,,,,,,,,,,,,,,,,15,,63,72
1934,note_on,,14,0,7,,,,,,,,,,,,,,,,10,,81,0
1935,note_on,,1,0,7,,,,,,,,,,,,,,,,10,,83,72
1949,note_on,,14,0,7,,,,,,,,,,,,,,,,10,,83,0
1950,note_on,,1,0,7,,,,,,,,,,,,,,,,10,,80,72
1964,note_on,,14,0,7,,,,,,,,,,,,,,,,10,,80,0
1965,note_on,,1,0,7,,,,,,,,,,,,,,,,10,,81,72
1979,note_on,,14,0,7,,,,,,,,,,,,,,,,10,,81,0
1979,note_on,,59,0,9,,,,,,,,,,,,,,,,12,,69,0
1979,note_on,,59,0,8,,,,,,,,,,,,,,,,11,,75,0
1979,note_on,,0,0,11,,,,,,,,,,,,,,,,15,,69,0
1979,note_on,,0,0,11,,,,,,,,,,,,,,,,15,,63,0
1979,note_on,,59,0,10,,,,,,,,,,,,,,,,13,,54,0
1979,note_on,,59,0,11,,,,,,,,,,,,,,,,15,,54,0
1979,note_on,,59,0,5,,,,,,,,,,,,,,,,2,,54,0
1980,note_on,,0,0,11,,,,,,,,,,,,,,,,15,,64,72
1980,note_on,,1,0,7,,,,,,,,,,,,,,,,10,,80,72
1980,note_on,,1,0,9,,,,,,,,,,,,,,,,12,,71,72
1980,note_on,,0,0,11,,,,,,,,,,,,,,,,15,,68,72
1980,note_on,,1,0,11,,,,,,,,,,,,,,,,15,,52,72
1980,note_on,,1,0,10,,,,,,,,,,,,,,,,13,,52,72
1980,note_on,,1,0,5,,,,,,,,,,,,,,,,2,,52,72
1980,note_on,,1,0,8,,,,,,,,,,,,,,,,11,,76,72
2039,note_on,,59,0,7,,,,,,,,,,,,,,,,10,,80,0
2039,note_on,,59,0,9,,,,,,,,,,,,,,,,12,,71,0
2039,note_on,,59,0,10,,,,,,,,,,,,,,,,13,,52,0
2039,note_on,,59,0,8,,,,,,,,,,,,,,,,11,,76,0
2039,note_on,,0,0,11,,,,,,,,,,,,,,,,15,,68,0
2039,note_on,,59,0,11,,,,,,,,,,,,,,,,15,,52,0
2039,note_on,,59,0,5,,,,,,,,,,,,,,,,2,,52,0
2039,note_on,,0,0,11,,,,,,,,,,,,,,,,15,,64,0
2040,note_on,,1,0,11,,,,,,,,,,,,,,,,15,,54,72
2040,note_on,,0,0,11,,,,,,,,,,,,,,,,15,,63,72
2040,note_on,,1,0,5,,,,,,,,,,,,,,,,2,,54,72
2040,note_on,,1,0,9,,,,,,,,,,,,,,,,12,,69,72
2040,note_on,,0,0,11,,,,,,,,,,,,,,,,15,,69,72
2040,note_on,,1,0,10,,,,,,,,,,,,,,,,13,,54,72
2040,note_on,,1,0,7,,,,,,,,,,,,,,,,10,,81,72
2040,note_on,,1,0,8,,,,,,,,,,,,,,,,11,,75,72
2054,note_on,,14,0,7,,,,,,,,,,,,,,,,10,,81,0
2055,note_on,,1,0,7,,,,,,,,,,,,,,,,10,,83,72
2069,note_on,,14,0,7,,,,,,,,,,,,,,,,10,,83,0
2070,note_on,,1,0,7,,,,,,,,,,,,,,,,10,,80,72
2084,note_on,,14,0,7,,,,,,,,,,,,,,,,10,,80,0
2085,note_on,,1,0,7,,,,,,,,,,,,,,,,10,,81,72
2099,note_on,,59,0,10,,,,,,,,,,,,,,,,13,,54,0
2099,note_on,,14,0,7,,,,,,,,,,,,,,,,10,,81,0
2099,note_on,,59,0,8,,,,,,,,,,,,,,,,11,,75,0
2099,note_on,,0,0,11,,,,,,,,,,,,,,,,15,,63,0
2099,note_on,,0,0,11,,,,,,,,,,,,,,,,15,,69,0
2099,note_on,,59,0,9,,,,,,,,,,,,,,,,12,,69,0
2099,note_on,,59,0,5,,,,,,,,,,,,,,,,2,,54,0
2099,note_on,,59,0,11,,,,,,,,,,,,,,,,15,,54,0
2100,note_on,,1,0,9,,,,,,,,,,,,,,,,12,,71,72
2100,note_on,,1,0,5,,,,,,,,,,,,,,,,2,,52,72
2100,note_on,,1,0,7,,,,,,,,,,,,,,,,10,,80,72
2100,note_on,,1,0,10,,,,,,,,,,,,,,,,13,,52,72
2100,note_on,,1,0,8,,,,,,,,,,,,,,,,11,,76,72
2100,note_on,,0,0,11,,,,,,,,,,,,,,,,15,,64,72
2100,note_on,,0,0,11,,,,,,,,,,,,,,,,15,,68,72
2100,note_on,,1,0,11,,,,,,,,,,,,,,,,15,,52,72
2159,note_on,,0,0,11,,,,,,,,,,,,,,,,15,,68,0
2159,note_on,,59,0,5,,,,,,,,,,,,,,,,2,,52,0
2159,note_on,,59,0,9,,,,,,,,,,,,,,,,12,,71,0
2159,note_on,,59,0,11,,,,,,,,,,,,,,,,15,,52,0
2159,note_on,,59,0,7,,,,,,,,,,,,,,,,10,,80,0
2159,note_on,,59,0,8,,,,,,,,,,,,,,,,11,,76,0
2159,note_on,,59,0,10,,,,,,,,,,,,,,,,13,,52,0
2159,note_on,,0,0,11,,,,,,,,,,,,,,,,15,,64,0
2160,note_on,,0,0,11,,,,,,,,,,,,,,,,15,,69,72
2160,note_on,,0,0,11,,,,,,,,,,,,,,,,15,,63,72
2160,note_on,,1,0,9,,,,,,,,,,,,,,,,12,,69,72
2160,note_on,,1,0,7,,,,,,,,,,,,,,,,10,,81,72
2160,note_on,,1,0,8,,,,,,,,,,,,,,,,11,,75,72
2160,note_on,,1,0,10,,,,,,,,,,,,,,,,13,,54,72
2160,note_on,,1,0,5,,,,,,,,,,,,,,,,2,,54,72
2160,note_on,,1,0,11,,,,,,,,,,,,,,,,15,,54,72
2174,note_on,,14,0,7,,,,,,,,,,,,,,,,10,,81,0
2175,note_on,,1,0,7,,,,,,,,,,,,,,,,10,,83,72
2189,note_on,,14,0,7,,,,,,,,,,,,,,,,10,,83,0
2190,note_on,,1,0,7,,,,,,,,,,,,,,,,10,,80,72
2204,note_on,,14,0,7,,,,,,,,,,,,,,,,10,,80,0
2205,note_on,,1,0,7,,,,,,,,,,,,,,,,10,,81,72
2219,note_on,,59,0,11,,,,,,,,,,,,,,,,15,,54,0
2219,note_on,,0,0,11,,,,,,,,,,,,,,,,15,,69,0
2219,note_on,,0,0,11,,,,,,,,,,,,,,,,15,,63,0
2219,note_on,,14,0,7,,,,,,,,,,,,,,,,10,,81,0
2219,note_on,,59,0,9,,,,,,,,,,,,,,,,12,,69,0
2219,note_on,,59,0,5,,,,,,,,,,,,,,,,2,,54,0
2219,note_on,,59,0,10,,,,,,,,,,,,,,,,13,,54,0
2219,note_on,,59,0,8,,,,,,,,,,,,,,,,11,,75,0
2220,note_on,,1,0,7,,,,,,,,,,,,,,,,10,,80,72
2220,note_on,,1,0,5,,,,,,,,,,,,,,,,2,,52,72
2220,note_on,,1,0,10,,,,,,,,,,,,,,,,13,,52,72
2220,note_on,,1,0,8,,,,,,,,,,,,,,,,11,,76,72
2220,note_on,,0,0,11,,,,,,,,,,,,,,,,15,,64,72
2220,note_on,,0,0,11,,,,,,,,,,,,,,,,15,,68,72
2220,note_on,,1,0,9,,,,,,,,,,,,,,,,12,,71,72
2220,note_on,,1,0,11,,,,,,,,,,,,,,,,15,,52,72
2279,note_on,,0,0,11,,,,,,,,,,,,,,,,15,,68,0
2279,note_on,,59,0,11,,,,,,,,,,,,,,,,15,,52,0
2279,note_on,,59,0,10,,,,,,,,,,,,,,,,13,,52,0
2279,note_on,,59,0,8,,,,,,,,,,,,,,,,11,,76,0
2279,note_on,,59,0,5,,,,,,,,,,,,,,,,2,,52,0
2279,note_on,,59,0,7,,,,,,,,,,,,,,,,10,,80,0
2279,note_on,,0,0,11,,,,,,,,,,,,,,,,15,,64,0
2279,note_on,,59,0,9,,,,,,,,,,,,,,,,12,,71,0
2340,note_on,,61,0,7,,,,,,,,,,,,,,,,10,,83,48
2340,note_on,,61,0,8,,,,,,,,,,,,,,,,11,,80,48
2399,note_on,,59,0,7,,,,,,,,,,,,,,,,10,,83,0
2399,note_on,,59,0,8,,,,,,,,,,,,,,,,11,,80,0
2400,note_on,,1,0,7,,,,,,,,,,,,,,,,10,,85,48
2400,note_on,,1,0,8,,,,,,,,,,,,,,,,11,,81,48
2414,note_on,,14,0,7,,,,,,,,,,,,,,,,10,,85,0
2415,note_on,,1,0,7,,,,,,,,,,,,,,,,10,,87,48
2429,note_on,,14,0,7,,,,,,,,,,,,,,,,10,,87,0
2430,note_on,,1,0,7,,,,,,,,,,,,,,,,10,,83,48
2444,note_on,,14,0,7,,,,,,,,,,,,,,,,10,,83,0
2445,note_on,,1,0,7,,,,,,,,,,,,,,,,10,,85,48
2459,note_on,,14,0,7,,,,,,,,,,,,,,,,10,,85,0
2459,note_on,,59,0,8,,,,,,,,,,,,,,,,11,,81,0
2460,note_on,,1,0,7,,,,,,,,,,,,,,,,10,,83,48
2460,note_on,,1,0,8,,,,,,,,,,,,,,,,11,,80,48
2519,note_on,,59,0,7,,,,,,,,,,,,,,,,10,,83,0
2519,note_on,,59,0,8,,,,,,,,,,,,,,,,11,,80,0
2520,note_on,,1,0,8,,,,,,,,,,,,,,,,11,,81,48
2520,note_on,,1,0,7,,,,,,,,,,,,,,,,10,,85,48
2534,note_on,,14,0,7,,,,,,,,,,,,,,,,10,,85,0
2535,note_on,,1,0,7,,,,,,,,,,,,,,,,10,,87,48
2549,note_on,,14,0,7,,,,,,,,,,,,,,,,10,,87,0
2550,note_on,,1,0,7,,,,,,,,,,,,,,,,10,,83,48
2564,note_on,,14,0,7,,,,,,,,,,,,,,,,10,,83,0
2565,note_on,,1,0,7,,,,,,,,,,,,,,,,10,,85,48
2579,note_on,,14,0,7,,,,,,,,,,,,,,,,10,,85,0
2579,note_on,,59,0,8,,,,,,,,,,,,,,,,11,,81,0
2580,note_on,,1,0,7,,,,,,,,,,,,,,,,10,,83,48
2580,note_on,,1,0,8,,,,,,,,,,,,,,,,11,,80,48
2639,note_on,,59,0,8,,,,,,,,,,,,,,,,11,,80,0
2639,note_on,,59,0,7,,,,,,,,,,,,,,,,10,,83,0
2640,note_on,,1,0,8,,,,,,,,,,,,,,,,11,,81,48
2640,note_on,,1,0,7,,,,,,,,,,,,,,,,10,,85,48
2654,note_on,,14,0,7,,,,,,,,,,,,,,,,10,,85,0
2655,note_on,,1,0,7,,,,,,,,,,,,,,,,10,,87,48
2669,note_on,,14,0,7,,,,,,,,,,,,,,,,10,,87,0
2670,note_on,,1,0,7,,,,,,,,,,,,,,,,10,,83,48
2684,note_on,,14,0,7,,,,,,,,,,,,,,,,10,,83,0
2685,note_on,,1,0,7,,,,,,,,,,,,,,,,10,,85,48
2699,note_on,,14,0,7,,,,,,,,,,,,,,,,10,,85,0
2699,note_on,,59,0,8,,,,,,,,,,,,,,,,11,,81,0
2700,note_on,,1,0,8,,,,,,,,,,,,,,,,11,,80,48
2700,note_on,,1,0,7,,,,,,,,,,,,,,,,10,,83,48
2759,note_on,,59,0,7,,,,,,,,,,,,,,,,10,,83,0
2759,note_on,,59,0,8,,,,,,,,,,,,,,,,11,,80,0
2760,note_on,,1,0,7,,,,,,,,,,,,,,,,10,,85,48
2760,note_on,,1,0,8,,,,,,,,,,,,,,,,11,,81,48
2819,note_on,,59,0,8,,,,,,,,,,,,,,,,11,,81,0
2819,note_on,,59,0,7,,,,,,,,,,,,,,,,10,,85,0
2820,note_on,,541,0,9,,,,,,,,,,,,,,,,12,,71,72
2820,note_on,,0,0,11,,,,,,,,,,,,,,,,15,,71,72
2820,note_on,,0,0,11,,,,,,,,,,,,,,,,15,,66,72
2820,note_on,,541,0,5,,,,,,,,,,,,,,,,2,,59,72
2820,note_on,,1,0,8,,,,,,,,,,,,,,,,11,,75,72
2820,note_on,,0,0,11,,,,,,,,,,,,,,,,15,,63,72
2820,note_on,,541,0,10,,,,,,,,,,,,,,,,13,,59,72
2820,note_on,,541,0,11,,,,,,,,,,,,,,,,15,,59,72
2820,note_on,,1,0,7,,,,,,,,,,,,,,,,10,,78,72
2879,note_on,,0,0,11,,,,,,,,,,,,,,,,15,,66,0
2879,note_on,,59,0,10,,,,,,,,,,,,,,,,13,,59,0
2879,note_on,,0,0,11,,,,,,,,,,,,,,,,15,,63,0
2879,note_on,,59,0,8,,,,,,,,,,,,,,,,11,,75,0
2879,note_on,,59,0,5,,,,,,,,,,,,,,,,2,,59,0
2879,note_on,,59,0,11,,,,,,,,,,,,,,,,15,,59,0
2879,note_on,,59,0,9,,,,,,,,,,,,,,,,12,,71,0
2879,note_on,,59,0,7,,,,,,,,,,,,,,,,10,,78,0
2880,note_on,,1,0,8,,,,,,,,,,,,,,,,11,,76,72
2880,note_on,,1,0,11,,,,,,,,,,,,,,,,15,,64,72
2880,note_on,,0,0,11,,,,,,,,,,,,,,,,15,,68,72
2880,note_on,,1,0,5,,,,,,,,,,,,,,,,2,,64,72
2880,note_on,,1,0,10,,,,,,,,,,,,,,,,13,,64,72
2880,note_on,,1,0,9,,,,,,,,,,,,,,,,12,,71,72
2880,note_on,,1,0,7,,,,,,,,,,,,,,,,10,,80,72
2939,note_on,,59,0,11,,,,,,,,,,,,,,,,15,,71,0
2939,note_on,,0,0,11,,,,,,,,,,,,,,,,15,,64,0
2939,note_on,,59,0,8,,,,,,,,,,,,,,,,11,,76,0
2939,note_on,,59,0,9,,,,,,,,,,,,,,,,12,,71,0
2939,note_on,,59,0,5,,,,,,,,,,,,,,,,2,,64,0
2939,note_on,,59,0,10,,,,,,,,,,,,,,,,13,,64,0
2939,note_on,,0,0,11,,,,,,,,,,,,,,,,15,,68,0
2940,note_on,,1,0,10,,,,,,,,,,,,,,,,13,,57,72
2940,note_on,,1,0,8,,,,,,,,,,,,,,,,11,,76,72
2940,note_on,,1,0,9,,,,,,,,,,,,,,,,12,,73,72
2940,note_on,,1,0,5,,,,,,,,,,,,,,,,2,,57,72
2940,note_on,,0,0,11,,,,,,,,,,,,,,,,15,,64,72
2940,note_on,,0,0,11,,,,,,,,,,,,,,,,15,,73,72
2940,note_on,,1,0,11,,,,,,,,,,,,,,,,15,,57,72
2969,note_on,,89,0,7,,,,,,,,,,,,,,,,10,,80,0
2970,note_on,,1,0,7,,,,,,,,,,,,,,,,10,,81,72
2999,note_on,,29,0,7,,,,,,,,,,,,,,,,10,,81,0
2999,note_on,,0,0,11,,,,,,,,,,,,,,,,15,,73,0
2999,note_on,,59,0,11,,,,,,,,,,,,,,,,15,,57,0
2999,note_on,,59,0,5,,,,,,,,,,,,,,,,2,,57,0
2999,note_on,,59,0,9,,,,,,,,,,,,,,,,12,,73,0
2999,note_on,,59,0,10,,,,,,,,,,,,,,,,13,,57,0
3000,note_on,,1,0,11,,,,,,,,,,,,,,,,15,,59,72
3000,note_on,,1,0,5,,,,,,,,,,,,,,,,2,,59,72
3000,note_on,,1,0,9,,,,,,,,,,,,,,,,12,,66,72
3000,note_on,,1,0,10,,,,,,,,,,,,,,,,13,,59,72
3000,note_on,,0,0,11,,,,,,,,,,,,,,,,15,,66,72
3000,note_on,,1,0,7,,,,,,,,,,,,,,,,10,,78,72
3014,note_on,,14,0,7,,,,,,,,,,,,,,,,10,,78,0
3015,note_on,,1,0,7,,,,,,,,,,,,,,,,10,,80,72
3029,note_on,,14,0,7,,,,,,,,,,,,,,,,10,,80,0
3030,note_on,,1,0,7,,,,,,,,,,,,,,,,10,,78,72
3044,note_on,,14,0,7,,,,,,,,,,,,,,,,10,,78,0
3045,note_on,,1,0,7,,,,,,,,,,,,,,,,10,,80,72
3059,note_on,,59,0,10,,,,,,,,,,,,,,,,13,,59,0
3059,note_on,,14,0,7,,,,,,,,,,,,,,,,10,,80,0
3059,note_on,,59,0,11,,,,,,,,,,,,,,,,15,,64,0
3059,note_on,,59,0,9,,,,,,,,,,,,,,,,12,,66,0
3059,note_on,,59,0,5,,,,,,,,,,,,,,,,2,,59,0
3059,note_on,,119,0,8,,,,,,,,,,,,,,,,11,,76,0
3059,note_on,,0,0,11,,,,,,,,,,,,,,,,15,,59,0
3060,note_on,,1,0,5,,,,,,,,,,,,,,,,2,,47,72
3060,note_on,,1,0,8,,,,,,,,,,,,,,,,11,,75,72
3060,note_on,,0,0,11,,,,,,,,,,,,,,,,15,,63,72
3060,note_on,,1,0,11,,,,,,,,,,,,,,,,15,,47,72
3060,note_on,,1,0,7,,,,,,,,,,,,,,,,10,,78,72
3060,note_on,,1,0,10,,,,,,,,,,,,,,,,13,,47,72
3060,note_on,,1,0,9,,,,,,,,,,,,,,,,12,,71,72
3074,note_on,,14,0,7,,,,,,,,,,,,,,,,10,,78,0
3075,note_on,,1,0,7,,,,,,,,,,,,,,,,10,,80,72
3089,note_on,,14,0,7,,,,,,,,,,,,,,,,10,,80,0
3090,note_on,,1,0,7,,,,,,,,,,,,,,,,10,,76,72
3104,note_on,,14,0,7,,,,,,,,,,,,,,,,10,,76,0
3105,note_on,,1,0,7,,,,,,,,,,,,,,,,10,,78,72
3119,note_on,,0,0,11,,,,,,,,,,,,,,,,15,,63,0
3119,note_on,,59,0,5,,,,,,,,,,,,,,,,2,,47,0
3119,note_on,,59,0,10,,,,,,,,,,,,,,,,13,,47,0
3119,note_on,,59,0,8,,,,,,,,,,,,,,,,11,,75,0
3119,note_on,,59,0,9,,,,,,,,,,,,,,,,12,,71,0
3119,note_on,,59,0,11,,,,,,,,,,,,,,,,15,,66,0
3119,note_on,,0,0,11,,,,,,,,,,,,,,,,15,,47,0
3119,note_on,,14,0,7,,,,,,,,,,,,,,,,10,,78,0
3120,note_on,,1,0,8,,,,,,,,,,,,,,,,11,,76,72
3120,note_on,,1,0,9,,,,,,,,,,,,,,,,12,,68,72
3120,note_on,,0,0,11,,,,,,,,,,,,,,,,15,,59,72
3120,note_on,,0,0,11,,,,,,,,,,,,,,,,15,,64,72
3120,note_on,,1,0,11,,,,,,,,,,,,,,,,15,,52,72
3120,note_on,,1,0,10,,,,,,,,,,,,,,,,13,,52,72
3120,note_on,,1,0,5,,,,,,,,,,,,,,,,2,,52,72
3120,note_on,,0,0,11,,,,,,,,,,,,,,,,15,,68,72
3120,note_on,,1,0,7,,,,,,,,,,,,,,,,10,,76,72
3239,note_on,,119,0,8,,,,,,,,,,,,,,,,11,,76,0
3239,note_on,,119,0,7,,,,,,,,,,,,,,,,10,,76,0
3239,note_on,,119,0,9,,,,,,,,,,,,,,,,12,,68,0
3239,note_on,,0,0,11,,,,,,,,,,,,,,,,15,,59,0
3239,note_on,,0,0,11,,,,,,,,,,,,,,,,15,,68,0
3239,note_on,,0,0,11,,,,,,,,,,,,,,,,15,,64,0
3239,note_on,,119,0,11,,,,,,,,,,,,,,,,15,,52,0
3239,note_on,,119,0,10,,,,,,,,,,,,,,,,13,,52,0
3239,note_on,,119,0,5,,,,,,,,,,,,,,,,2,,52,0
3300,note_on,,61,0,7,,,,,,,,,,,,,,,,10,,71,48
3300,note_on,,61,0,8,,,,,,,,,,,,,,,,11,,68,48
3359,note_on,,59,0,7,,,,,,,,,,,,,,,,10,,71,0
3359,note_on,,59,0,8,,,,,,,,,,,,,,,,11,,68,0
3360,note_on,,1,0,7,,,,,,,,,,,,,,,,10,,73,48
3360,note_on,,1,0,8,,,,,,,,,,,,,,,,11,,69,48
3374,note_on,,14,0,7,,,,,,,,,,,,,,,,10,,73,0
3375,note_on,,1,0,7,,,,,,,,,,,,,,,,10,,75,48
3389,note_on,,14,0,7,,,,,,,,,,,,,,,,10,,75,0
3390,note_on,,1,0,7,,,,,,,,,,,,,,,,10,,71,48
3404,note_on,,14,0,7,,,,,,,,,,,,,,,,10,,71,0
3405,note_on,,1,0,7,,,,,,,,,,,,,,,,10,,73,48
3419,note_on,,59,0,8,,,,,,,,,,,,,,,,11,,69,0
3419,note_on,,14,0,7,,,,,,,,,,,,,,,,10,,73,0
3420,note_on,,1,0,7,,,,,,,,,,,,,,,,10,,71,48
3420,note_on,,1,0,8,,,,,,,,,,,,,,,,11,,68,48
3479,note_on,,59,0,7,,,,,,,,,,,,,,,,10,,71,0
3479,note_on,,59,0,8,,,,,,,,,,,,,,,,11,,68,0
3480,note_on,,1,0,8,,,,,,,,,,,,,,,,11,,69,48
3480,note_on,,1,0,7,,,,,,,,,,,,,,,,10,,73,48
3494,note_on,,14,0,7,,,,,,,,,,,,,,,,10,,73,0
3495,note_on,,1,0,7,,,,,,,,,,,,,,,,10,,75,48
3509,note_on,,14,0,7,,,,,,,,,,,,,,,,10,,75,0
3510,note_on,,1,0,7,,,,,,,,,,,,,,,,10,,71,48
3524,note_on,,14,0,7,,,,,,,,,,,,,,,,10,,71,0
3525,note_on,,1,0,7,,,,,,,,,,,,,,,,10,,73,48
3539,note_on,,14,0,7,,,,,,,,,,,,,,,,10,,73,0
3539,note_on,,59,0,8,,,,,,,,,,,,,,,,11,,69,0
3540,note_on,,1,0,7,,,,,,,,,,,,,,,,10,,71,48
3540,note_on,,1,0,8,,,,,,,,,,,,,,,,11,,68,48
3599,note_on,,59,0,8,,,,,,,,,,,,,,,,11,,68,0
3599,note_on,,59,0,7,,,,,,,,,,,,,,,,10,,71,0
3600,note_on,,1,0,8,,,,,,,,,,,,,,,,11,,69,48
3600,note_on,,1,0,7,,,,,,,,,,,,,,,,10,,73,48
3614,note_on,,14,0,7,,,,,,,,,,,,,,,,10,,73,0
3615,note_on,,1,0,7,,,,,,,,,,,,,,,,10,,75,48
3629,note_on,,14,0,7,,,,,,,,,,,,,,,,10,,75,0
3630,note_on,,1,0,7,,,,,,,,,,,,,,,,10,,71,48
3644,note_on,,14,0,7,,,,,,,,,,,,,,,,10,,71,0
3645,note_on,,1,0,7,,,,,,,,,,,,,,,,10,,73,48
3659,note_on,,59,0,8,,,,,,,,,,,,,,,,11,,69,0
3659,note_on,,14,0,7,,,,,,,,,,,,,,,,10,,73,0
3660,note_on,,1,0,8,,,,,,,,,,,,,,,,11,,68,48
3660,note_on,,1,0,7,,,,,,,,,,,,,,,,10,,71,48
3719,note_on,,59,0,8,,,,,,,,,,,,,,,,11,,68,0
3719,note_on,,59,0,7,,,,,,,,,,,,,,,,10,,71,0
3720,note_on,,1,0,7,,,,,,,,,,,,,,,,10,,73,48
3720,note_on,,1,0,8,,,,,,,,,,,,,,,,11,,69,48
3779,note_on,,59,0,7,,,,,,,,,,,,,,,,10,,73,0
3779,note_on,,59,0,8,,,,,,,,,,,,,,,,11,,69,0
3780,note_on,,541,0,9,,,,,,,,,,,,,,,,12,,59,72
3780,note_on,,541,0,10,,,,,,,,,,,,,,,,13,,47,72
3780,note_on,,1,0,8,,,,,,,,,,,,,,,,11,,63,72
3780,note_on,,1,0,7,,,,,,,,,,,,,,,,10,,66,72
3780,note_on,,541,0,11,,,,,,,,,,,,,,,,15,,47,72
3780,note_on,,0,0,11,,,,,,,,,,,,,,,,15,,66,72
3780,note_on,,0,0,11,,,,,,,,,,,,,,,,15,,63,72
3780,note_on,,0,0,11,,,,,,,,,,,,,,,,15,,59,72
3780,note_on,,541,0,5,,,,,,,,,,,,,,,,2,,47,72
3839,note_on,,59,0,11,,,,,,,,,,,,,,,,15,,47,0
3839,note_on,,59,0,5,,,,,,,,,,,,,,,,2,,47,0
3839,note_on,,0,0,11,,,,,,,,,,,,,,,,15,,66,0
3839,note_on,,0,0,11,,,,,,,,,,,,,,,,15,,63,0
3839,note_on,,0,0,11,,,,,,,,,,,,,,,,15,,59,0
3839,note_on,,59,0,7,,,,,,,,,,,,,,,,10,,66,0
3839,note_on,,59,0,10,,,,,,,,,,,,,,,,13,,47,0
3839,note_on,,59,0,8,,,,,,,,,,,,,,,,11,,63,0
3839,note_on,,59,0,9,,,,,,,,,,,,,,,,12,,59,0
3840,note_on,,0,0,11,,,,,,,,,,,,,,,,15,,64,72
3840,note_on,,1,0,7,,,,,,,,,,,,,,,,10,,68,72
3840,note_on,,1,0,10,,,,,,,,,,,,,,,,13,,52,72
3840,note_on,,1,0,8,,,,,,,,,,,,,,,,11,,64,72
3840,note_on,,1,0,9,,,,,,,,,,,,,,,,12,,59,72
3840,note_on,,0,0,11,,,,,,,,,,,,,,,,15,,59,72
3840,note_on,,1,0,11,,,,,,,,,,,,,,,,15,,52,72
3840,note_on,,0,0,11,,,,,,,,,,,,,,,,15,,56,72
3840,note_on,,1,0,5,,,,,,,,,,,,,,,,2,,52,72
3899,note_on,,59,0,11,,,,,,,,,,,,,,,,15,,52,0
3899,note_on,,59,0,10,,,,,,,,,,,,,,,,13,,52,0
3899,note_on,,0,0,11,,,,,,,,,,,,,,,,15,,59,0
3899,note_on,,59,0,9,,,,,,,,,,,,,,,,12,,59,0
3899,note_on,,59,0,8,,,,,,,,,,,,,,,,11,,64,0
3899,note_on,,59,0,5,,,,,,,,,,,,,,,,2,,52,0
3899,note_on,,0,0,11,,,,,,,,,,,,,,,,15,,56,0
3900,note_on,,1,0,5,,,,,,,,,,,,,,,,2,,45,72
3900,note_on,,1,0,10,,,,,,,,,,,,,,,,13,,45,72
3900,note_on,,1,0,8,,,,,,,,,,,,,,,,11,,64,72
3900,note_on,,0,0,11,,,,,,,,,,,,,,,,15,,57,72
3900,note_on,,0,0,11,,,,,,,,,,,,,,,,15,,61,72
3900,note_on,,1,0,9,,,,,,,,,,,,,,,,12,,61,72
3900,note_on,,1,0,11,,,,,,,,,,,,,,,,15,,45,72
3929,note_on,,89,0,7,,,,,,,,,,,,,,,,10,,68,0
3930,note_on,,1,0,7,,,,,,,,,,,,,,,,10,,69,72
3959,note_on,,0,0,11,,,,,,,,,,,,,,,,15,,57,0
3959,note_on,,0,0,11,,,,,,,,,,,,,,,,15,,61,0
3959,note_on,,59,0,10,,,,,,,,,,,,,,,,13,,45,0
3959,note_on,,59,0,9,,,,,,,,,,,,,,,,12,,61,0
3959,note_on,,59,0,5,,,,,,,,,,,,,,,,2,,45,0
3959,note_on,,29,0,7,,,,,,,,,,,,,,,,10,,69,0
3959,note_on,,59,0,11,,,,,,,,,,,,,,,,15,,45,0
3960,note_on,,1,0,9,,,,,,,,,,,,,,,,12,,54,72
3960,note_on,,1,0,5,,,,,,,,,,,,,,,,2,,47,72
3960,note_on,,1,0,11,,,,,,,,,,,,,,,,15,,47,72
3960,note_on,,0,0,11,,,,,,,,,,,,,,,,15,,59,72
3960,note_on,,1,0,7,,,,,,,,,,,,,,,,10,,66,72
3960,note_on,,1,0,10,,,,,,,,,,,,,,,,13,,47,72
3974,note_on,,14,0,7,,,,,,,,,,,,,,,,10,,66,0
3975,note_on,,1,0,7,,,,,,,,,,,,,,,,10,,68,72
3989,note_on,,14,0,7,,,,,,,,,,,,,,,,10,,68,0
3990,note_on,,1,0,7,,,,,,,,,,,,,,,,10,,66,72
4004,note_on,,14,0,7,,,,,,,,,,,,,,,,10,,66,0
4005,note_on,,1,0,7,,,,,,,,,,,,,,,,10,,68,72
4019,note_on,,14,0,7,,,,,,,,,,,,,,,,10,,68,0
4019,note_on,,59,0,9,,,,,,,,,,,,,,,,12,,54,0
4019,note_on,,59,0,11,,,,,,,,,,,,,,,,15,,64,0
4019,note_on,,119,0,8,,,,,,,,,,,,,,,,11,,64,0
4020,note_on,,1,0,11,,,,,,,,,,,,,,,,15,,63,72
4020,note_on,,1,0,7,,,,,,,,,,,,,,,,10,,66,72
4020,note_on,,1,0,9,,,,,,,,,,,,,,,,12,,59,72
4020,note_on,,1,0,8,,,,,,,,,,,,,,,,11,,63,72
4034,note_on,,14,0,7,,,,,,,,,,,,,,,,10,,66,0
4035,note_on,,1,0,7,,,,,,,,,,,,,,,,10,,68,72
4049,note_on,,14,0,7,,,,,,,,,,,,,,,,10,,68,0
4050,note_on,,1,0,7,,,,,,,,,,,,,,,,10,,64,72
4064,note_on,,14,0,7,,,,,,,,,,,,,,,,10,,64,0
4065,note_on,,1,0,7,,,,,,,,,,,,,,,,10,,66,72
4079,note_on,,59,0,9,,,,,,,,,,,,,,,,12,,59,0
4079,note_on,,119,0,5,,,,,,,,,,,,,,,,2,,47,0
4079,note_on,,59,0,11,,,,,,,,,,,,,,,,15,,47,0
4079,note_on,,0,0,11,,,,,,,,,,,,,,,,15,,59,0
4079,note_on,,0,0,11,,,,,,,,,,,,,,,,15,,63,0
4079,note_on,,14,0,7,,,,,,,,,,,,,,,,10,,66,0
4079,note_on,,59,0,8,,,,,,,,,,,,,,,,11,,63,0
4079,note_on,,119,0,10,,,,,,,,,,,,,,,,13,,47,0
4080,note_on,,1,0,5,,,,,,,,,,,,,,,,2,,40,72
4080,note_on,,1,0,7,,,,,,,,,,,,,,,,10,,64,72
4080,note_on,,0,0,11,,,,,,,,,,,,,,,,15,,64,72
4080,note_on,,0,0,11,,,,,,,,,,,,,,,,15,,59,72
4080,note_on,,1,0,9,,,,,,,,,,,,,,,,12,,56,72
4080,note_on,,1,0,11,,,,,,,,,,,,,,,,15,,40,72
4080,note_on,,1,0,8,,,,,,,,,,,,,,,,11,,64,72
4080,note_on,,1,0,10,,,,,,,,,,,,,,,,13,,40,72
4080,note_on,,0,0,11,,,,,,,,,,,,,,,,15,,56,72
4199,note_on,,119,0,7,,,,,,,,,,,,,,,,10,,64,0
4199,note_on,,119,0,10,,,,,,,,,,,,,,,,13,,40,0
4199,note_on,,0,0,11,,,,,,,,,,,,,,,,15,,64,0
4199,note_on,,119,0,5,,,,,,,,,,,,,,,,2,,40,0
4199,note_on,,0,0,11,,,,,,,,,,,,,,,,15,,56,0
4199,note_on,,0,0,11,,,,,,,,,,,,,,,,15,,59,0
4199,note_on,,119,0,8,,,,,,,,,,,,,,,,11,,64,0
4199,note_on,,119,0,9,,,,,,,,,,,,,,,,12,,56,0
4199,note_on,,119,0,11,,,,,,,,,,,,,,,,15,,40,0
4320,note_on,,0,0,6,,,,,,,,,,,,,,,,7,,52,64
4320,control_change,,4320,0,6,,,,,,,,,,,,,,7,96,7,,,
4439,note_on,,119,0,6,,,,,,,,,,,,,,,,7,,52,0
4440,note_on,,1,0,6,,,,,,,,,,,,,,,,7,,54,64
4559,note_on,,119,0,6,,,,,,,,,,,,,,,,7,,54,0
4560,note_on,,1,0,6,,,,,,,,,,,,,,,,7,,56,62
4649,note_on,,89,0,6,,,,,,,,,,,,,,,,7,,56,0
4650,note_on,,1,0,6,,,,,,,,,,,,,,,,7,,59,66
4679,note_on,,29,0,6,,,,,,,,,,,,,,,,7,,59,0
4680,note_on,,1,0,6,,,,,,,,,,,,,,,,7,,59,59
4799,note_on,,119,0,6,,,,,,,,,,,,,,,,7,,59,0
4800,note_on,,601,0,7,,,,,,,,,,,,,,,,10,,76,72
4800,note_on,,601,0,5,,,,,,,,,,,,,,,,2,,52,72
4800,note_on,,0,0,11,,,,,,,,,,,,,,,,15,,68,72
4800,note_on,,0,0,11,,,,,,,,,,,,,,,,15,,59,72
4800,note_on,,601,0,10,,,,,,,,,,,,,,,,13,,52,72
4800,note_on,,601,0,9,,,,,,,,,,,,,,,,12,,68,72
4800,note_on,,601,0,11,,,,,,,,,,,,,,,,15,,52,72
4800,note_on,,601,0,8,,,,,,,,,,,,,,,,11,,71,72
4859,note_on,,59,0,9,,,,,,,,,,,,,,,,12,,68,0
4859,note_on,,59,0,8,,,,,,,,,,,,,,,,11,,71,0
4859,note_on,,59,0,5,,,,,,,,,,,,,,,,2,,52,0
4859,note_on,,0,0,11,,,,,,,,,,,,,,,,15,,59,0
4859,note_on,,59,0,11,,,,,,,,,,,,,,,,15,,52,0
4859,note_on,,59,0,10,,,,,,,,,,,,,,,,13,,52,0
4860,note_on,,1,0,9,,,,,,,,,,,,,,,,12,,69,72
4860,note_on,,1,0,10,,,,,,,,,,,,,,,,13,,56,72
4860,note_on,,0,0,11,,,,,,,,,,,,,,,,15,,64,72
4860,note_on,,1,0,8,,,,,,,,,,,,,,,,11,,76,72
4860,note_on,,1,0,11,,,,,,,,,,,,,,,,15,,56,72
4860,note_on,,1,0,5,,,,,,,,,,,,,,,,2,,56,72
4919,note_on,,0,0,11,,,,,,,,,,,,,,,,15,,56,0
4919,note_on,,59,0,10,,,,,,,,,,,,,,,,13,,56,0
4919,note_on,,59,0,11,,,,,,,,,,,,,,,,15,,68,0
4919,note_on,,119,0,7,,,,,,,,,,,,,,,,10,,76,0
4919,note_on,,59,0,5,,,,,,,,,,,,,,,,2,,56,0
4919,note_on,,59,0,9,,,,,,,,,,,,,,,,12,,69,0
4920,note_on,,1,0,5,,,,,,,,,,,,,,,,2,,57,72
4920,note_on,,1,0,11,,,,,,,,,,,,,,,,15,,57,72
4920,note_on,,1,0,7,,,,,,,,,,,,,,,,10,,78,72
4920,note_on,,1,0,10,,,,,,,,,,,,,,,,13,,57,72
4920,note_on,,1,0,9,,,,,,,,,,,,,,,,12,,73,72
4920,note_on,,0,0,11,,,,,,,,,,,,,,,,15,,66,72
4979,note_on,,119,0,8,,,,,,,,,,,,,,,,11,,76,0
4979,note_on,,59,0,10,,,,,,,,,,,,,,,,13,,57,0
4979,note_on,,0,0,11,,,,,,,,,,,,,,,,15,,57,0
4979,note_on,,59,0,11,,,,,,,,,,,,,,,,15,,64,0
4979,note_on,,59,0,9,,,,,,,,,,,,,,,,12,,73,0
4979,note_on,,59,0,5,,,,,,,,,,,,,,,,2,,57,0
4980,note_on,,1,0,11,,,,,,,,,,,,,,,,15,,59,72
4980,note_on,,0,0,11,,,,,,,,,,,,,,,,15,,63,72
4980,note_on,,1,0,8,,,,,,,,,,,,,,,,11,,75,72
4980,note_on,,1,0,9,,,,,,,,,,,,,,,,12,,71,72
4980,note_on,,1,0,10,,,,,,,,,,,,,,,,13,,59,72
4980,note_on,,1,0,5,,,,,,,,,,,,,,,,2,,59,72
5039,note_on,,59,0,5,,,,,,,,,,,,,,,,2,,59,0
5039,note_on,,59,0,8,,,,,,,,,,,,,,,,11,,75,0
5039,note_on,,59,0,10,,,,,,,,,,,,,,,,13,,59,0
5039,note_on,,59,0,9,,,,,,,,,,,,,,,,12,,71,0
5039,note_on,,0,0,11,,,,,,,,,,,,,,,,15,,63,0
5039,note_on,,0,0,11,,,,,,,,,,,,,,,,15,,59,0
5039,note_on,,59,0,11,,,,,,,,,,,,,,,,15,,66,0
5039,note_on,,119,0,7,,,,,,,,,,,,,,,,10,,78,0
5040,note_on,,1,0,9,,,,,,,,,,,,,,,,12,,71,72
5040,note_on,,1,0,8,,,,,,,,,,,,,,,,11,,76,72
5040,note_on,,1,0,5,,,,,,,,,,,,,,,,2,,52,72
5040,note_on,,0,0,11,,,,,,,,,,,,,,,,15,,59,72
5040,note_on,,0,0,11,,,,,,,,,,,,,,,,15,,64,72
5040,note_on,,0,0,11,,,,,,,,,,,,,,,,15,,68,72
5040,note_on,,1,0,11,,,,,,,,,,,,,,,,15,,52,72
5040,note_on,,1,0,10,,,,,,,,,,,,,,,,13,,52,72
5040,note_on,,1,0,7,,,,,,,,,,,,,,,,10,,80,72
5129,note_on,,89,0,8,,,,,,,,,,,,,,,,11,,76,0
5129,note_on,,89,0,7,,,,,,,,,,,,,,,,10,,80,0
5129,note_on,,89,0,9,,,,,,,,,,,,,,,,12,,71,0
5130,note_on,,1,0,8,,,,,,,,,,,,,,,,11,,80,72
5130,note_on,,1,0,9,,,,,,,,,,,,,,,,12,,76,72
5130,note_on,,1,0,7,,,,,,,,,,,,,,,,10,,83,72
5159,note_on,,29,0,7,,,,,,,,,,,,,,,,10,,83,0
5159,note_on,,0,0,11,,,,,,,,,,,,,,,,15,,59,0
5159,note_on,,0,0,11,,,,,,,,,,,,,,,,15,,64,0
5159,note_on,,0,0,11,,,,,,,,,,,,,,,,15,,68,0
5159,note_on,,29,0,8,,,,,,,,,,,,,,,,11,,80,0
5159,note_on,,119,0,10,,,,,,,,,,,,,,,,13,,52,0
5159,note_on,,119,0,11,,,,,,,,,,,,,,,,15,,52,0
5159,note_on,,119,0,5,,,,,,,,,,,,,,,,2,,52,0
5159,note_on,,29,0,9,,,,,,,,,,,,,,,,12,,76,0
5160,note_on,,1,0,7,,,,,,,,,,,,,,,,10,,83,72
5160,note_on,,1,0,9,,,,,,,,,,,,,,,,12,,76,72
5160,note_on,,1,0,8,,,,,,,,,,,,,,,,11,,80,72
5279,note_on,,119,0,7,,,,,,,,,,,,,,,,10,,83,0
5279,note_on,,119,0,8,,,,,,,,,,,,,,,,11,,80,0
5279,note_on,,119,0,9,,,,,,,,,,,,,,,,12,,76,0
5280,note_on,,481,0,6,,,,,,,,,,,,,,,,7,,56,58
5280,note_on,,121,0,11,,,,,,,,,,,,,,,,15,,52,48
5280,note_on,,121,0,10,,,,,,,,,,,,,,,,13,,52,48
5280,note_on,,0,0,11,,,,,,,,,,,,,,,,15,,76,48
5280,note_on,,0,0,11,,,,,,,,,,,,,,,,15,,71,48
5280,note_on,,0,0,11,,,,,,,,,,,,,,,,15,,68,48
5399,note_on,,119,0,10,,,,,,,,,,,,,,,,13,,52,0
5399,note_on,,119,0,6,,,,,,,,,,,,,,,,7,,56,0
5399,note_on,,119,0,11,,,,,,,,,,,,,,,,15,,52,0
5399,note_on,,0,0,11,,,,,,,,,,,,,,,,15,,76,0
5399,note_on,,0,0,11,,,,,,,,,,,,,,,,15,,71,0
5399,note_on,,0,0,11,,,,,,,,,,,,,,,,15,,68,0
5400,note_on,,0,0,11,,,,,,,,,,,,,,,,15,,75,48
5400,note_on,,1,0,6,,,,,,,,,,,,,,,,7,,57,59
5400,note_on,,0,0,11,,,,,,,,,,,,,,,,15,,69,48
5400,note_on,,1,0,10,,,,,,,,,,,,,,,,13,,54,48
5400,note_on,,1,0,11,,,,,,,,,,,,,,,,15,,54,48
5400,note_on,,0,0,11,,,,,,,,,,,,,,,,15,,66,48
5519,note_on,,119,0,10,,,,,,,,,,,,,,,,13,,54,0
5519,note_on,,119,0,6,,,,,,,,,,,,,,,,7,,57,0
5519,note_on,,119,0,11,,,,,,,,,,,,,,,,15,,54,0
5519,note_on,,0,0,11,,,,,,,,,,,,,,,,15,,75,0
5519,note_on,,0,0,11,,,,,,,,,,,,,,,,15,,69,0
5519,note_on,,0,0,11,,,,,,,,,,,,,,,,15,,66,0
5520,note_on,,1,0,10,,,,,,,,,,,,,,,,13,,56,48
5520,note_on,,0,0,11,,,,,,,,,,,,,,,,15,,64,48
5520,note_on,,1,0,6,,,,,,,,,,,,,,,,7,,59,58
5520,note_on,,0,0,11,,,,,,,,,,,,,,,,15,,76,48
5520,note_on,,1,0,11,,,,,,,,,,,,,,,,15,,56,48
5520,note_on,,0,0,11,,,,,,,,,,,,,,,,15,,68,48
5609,note_on,,89,0,6,,,,,,,,,,,,,,,,7,,59,0
5610,note_on,,1,0,6,,,,,,,,,,,,,,,,7,,64,60
5639,note_on,,29,0,6,,,,,,,,,,,,,,,,7,,64,0
5639,note_on,,0,0,11,,,,,,,,,,,,,,,,15,,68,0
5639,note_on,,0,0,11,,,,,,,,,,,,,,,,15,,64,0
5639,note_on,,0,0,11,,,,,,,,,,,,,,,,15,,76,0
5639,note_on,,119,0,10,,,,,,,,,,,,,,,,13,,56,0
5639,note_on,,119,0,11,,,,,,,,,,,,,,,,15,,56,0
5640,note_on,,1,0,6,,,,,,,,,,,,,,,,7,,64,60
5700,note_on,,0,0,11,,,,,,,,,,,,,,,,15,,52,48
5700,note_on,,61,0,10,,,,,,,,,,,,,,,,13,,44,48
5700,note_on,,0,0,11,,,,,,,,,,,,,,,,15,,64,48
5700,note_on,,0,0,11,,,,,,,,,,,,,,,,15,,71,48
5700,note_on,,61,0,11,,,,,,,,,,,,,,,,15,,44,48
5759,note_on,,59,0,10,,,,,,,,,,,,,,,,13,,44,0
5759,note_on,,59,0,11,,,,,,,,,,,,,,,,15,,44,0
5759,note_on,,0,0,11,,,,,,,,,,,,,,,,15,,71,0
5759,note_on,,0,0,11,,,,,,,,,,,,,,,,15,,64,0
5760,note_on,,1,0,10,,,,,,,,,,,,,,,,13,,45,48
5760,note_on,,1,0,11,,,,,,,,,,,,,,,,15,,45,48
5760,note_on,,0,0,11,,,,,,,,,,,,,,,,15,,73,48
5760,note_on,,0,0,11,,,,,,,,,,,,,,,,15,,64,48
5819,note_on,,179,0,6,,,,,,,,,,,,,,,,7,,64,0
5820,note_on,,1,0,6,,,,,,,,,,,,,,,,7,,63,62
5849,note_on,,29,0,6,,,,,,,,,,,,,,,,7,,63,0
5850,note_on,,1,0,6,,,,,,,,,,,,,,,,7,,61,65
5879,note_on,,29,0,6,,,,,,,,,,,,,,,,7,,61,0
5879,note_on,,0,0,11,,,,,,,,,,,,,,,,15,,64,0
5879,note_on,,0,0,11,,,,,,,,,,,,,,,,15,,73,0
5879,note_on,,0,0,11,,,,,,,,,,,,,,,,15,,45,0
5879,note_on,,119,0,11,,,,,,,,,,,,,,,,15,,52,0
5879,note_on,,119,0,10,,,,,,,,,,,,,,,,13,,45,0
5880,note_on,,0,0,11,,,,,,,,,,,,,,,,15,,59,48
5880,note_on,,1,0,11,,,,,,,,,,,,,,,,15,,47,48
5880,note_on,,0,0,11,,,,,,,,,,,,,,,,15,,63,48
5880,note_on,,1,0,6,,,,,,,,,,,,,,,,7,,59,62
5880,note_on,,1,0,10,,,,,,,,,,,,,,,,13,,47,48
5880,note_on,,0,0,11,,,,,,,,,,,,,,,,15,,66,48
5939,note_on,,59,0,6,,,,,,,,,,,,,,,,7,,59,0
5940,note_on,,1,0,6,,,,,,,,,,,,,,,,7,,57,59
5999,note_on,,0,0,11,,,,,,,,,,,,,,,,15,,66,0
5999,note_on,,119,0,10,,,,,,,,,,,,,,,,13,,47,0
5999,note_on,,59,0,6,,,,,,,,,,,,,,,,7,,57,0
5999,note_on,,0,0,11,,,,,,,,,,,,,,,,15,,59,0
5999,note_on,,0,0,11,,,,,,,,,,,,,,,,15,,63,0
5999,note_on,,119,0,11,,,,,,,,,,,,,,,,15,,47,0
6000,note_on,,0,0,11,,,,,,,,,,,,,,,,15,,59,48
6000,note_on,,0,0,11,,,,,,,,,,,,,,,,15,,64,48
6000,note_on,,0,0,11,,,,,,,,,,,,,,,,15,,68,48
6000,note_on,,1,0,11,,,,,,,,,,,,,,,,15,,52,48
6000,note_on,,1,0,10,,,,,,,,,,,,,,,,13,,52,48
6000,note_on,,1,0,6,,,,,,,,,,,,,,,,7,,56,64
6029,note_on,,29,0,6,,,,,,,,,,,,,,,,7,,56,0
6030,note_on,,1,0,6,,,,,,,,,,,,,,,,7,,54,66
6059,note_on,,29,0,6,,,,,,,,,,,,,,,,7,,54,0
6060,note_on,,1,0,6,,,,,,,,,,,,,,,,7,,52,66
6060,note_on,,781,0,7,,,,,,,,,,,,,,,,10,,75,48
6119,note_on,,119,0,10,,,,,,,,,,,,,,,,13,,52,0
6119,note_on,,0,0,11,,,,,,,,,,,,,,,,15,,59,0
6119,note_on,,0,0,11,,,,,,,,,,,,,,,,15,,64,0
6119,note_on,,0,0,11,,,,,,,,,,,,,,,,15,,68,0
6119,note_on,,119,0,11,,,,,,,,,,,,,,,,15,,52,0
6119,note_on,,59,0,7,,,,,,,,,,,,,,,,10,,75,0
6119,note_on,,59,0,6,,,,,,,,,,,,,,,,7,,52,0
6120,note_on,,1,0,7,,,,,,,,,,,,,,,,10,,76,48
6180,note_on,,901,0,8,,,,,,,,,,,,,,,,11,,71,48
6180,note_on,,61,0,10,,,,,,,,,,,,,,,,13,,56,48
6180,note_on,,901,0,9,,,,,,,,,,,,,,,,12,,68,48
6180,note_on,,61,0,11,,,,,,,,,,,,,,,,15,,56,48
6180,note_on,,0,0,11,,,,,,,,,,,,,,,,15,,71,48
6180,note_on,,0,0,11,,,,,,,,,,,,,,,,15,,64,48
6239,note_on,,59,0,11,,,,,,,,,,,,,,,,15,,56,0
6239,note_on,,0,0,11,,,,,,,,,,,,,,,,15,,71,0
6239,note_on,,59,0,8,,,,,,,,,,,,,,,,11,,71,0
6239,note_on,,59,0,10,,,,,,,,,,,,,,,,13,,56,0
6239,note_on,,59,0,9,,,,,,,,,,,,,,,,12,,68,0
6240,note_on,,1,0,9,,,,,,,,,,,,,,,,12,,73,48
6240,note_on,,1,0,10,,,,,,,,,,,,,,,,13,,57,48
6240,note_on,,1,0,11,,,,,,,,,,,,,,,,15,,57,48
6240,note_on,,1,0,8,,,,,,,,,,,,,,,,11,,78,48
6240,note_on,,0,0,11,,,,,,,,,,,,,,,,15,,73,48
6299,note_on,,59,0,11,,,,,,,,,,,,,,,,15,,57,0
6299,note_on,,179,0,7,,,,,,,,,,,,,,,,10,,76,0
6299,note_on,,59,0,9,,,,,,,,,,,,,,,,12,,73,0
6299,note_on,,59,0,10,,,,,,,,,,,,,,,,13,,57,0
6300,note_on,,1,0,10,,,,,,,,,,,,,,,,13,,45,48
6300,note_on,,1,0,7,,,,,,,,,,,,,,,,10,,75,48
6300,note_on,,1,0,9,,,,,,,,,,,,,,,,12,,61,48
6300,note_on,,1,0,11,,,,,,,,,,,,,,,,15,,45,48
6329,note_on,,29,0,7,,,,,,,,,,,,,,,,10,,75,0
6330,note_on,,1,0,7,,,,,,,,,,,,,,,,10,,73,48
6359,note_on,,29,0,7,,,,,,,,,,,,,,,,10,,73,0
6359,note_on,,59,0,9,,,,,,,,,,,,,,,,12,,61,0
6359,note_on,,59,0,10,,,,,,,,,,,,,,,,13,,45,0
6359,note_on,,59,0,11,,,,,,,,,,,,,,,,15,,64,0
6359,note_on,,0,0,11,,,,,,,,,,,,,,,,15,,73,0
6359,note_on,,0,0,11,,,,,,,,,,,,,,,,15,,45,0
6360,note_on,,1,0,10,,,,,,,,,,,,,,,,13,,47,48
6360,note_on,,1,0,7,,,,,,,,,,,,,,,,10,,71,48
6360,note_on,,1,0,11,,,,,,,,,,,,,,,,15,,47,48
6360,note_on,,0,0,11,,,,,,,,,,,,,,,,15,,66,48
6360,note_on,,1,0,9,,,,,,,,,,,,,,,,12,,63,48
6360,note_on,,0,0,11,,,,,,,,,,,,,,,,15,,63,48
6419,note_on,,179,0,8,,,,,,,,,,,,,,,,11,,78,0
6419,note_on,,59,0,11,,,,,,,,,,,,,,,,15,,47,0
6419,note_on,,59,0,9,,,,,,,,,,,,,,,,12,,63,0
6419,note_on,,59,0,7,,,,,,,,,,,,,,,,10,,71,0
6419,note_on,,59,0,10,,,,,,,,,,,,,,,,13,,47,0
6420,note_on,,1,0,7,,,,,,,,,,,,,,,,10,,78,48
6420,note_on,,1,0,9,,,,,,,,,,,,,,,,12,,71,48
6420,note_on,,1,0,8,,,,,,,,,,,,,,,,11,,76,48
6420,note_on,,1,0,11,,,,,,,,,,,,,,,,15,,59,48
6420,note_on,,1,0,10,,,,,,,,,,,,,,,,13,,59,48
6449,note_on,,29,0,8,,,,,,,,,,,,,,,,11,,76,0
6450,note_on,,1,0,8,,,,,,,,,,,,,,,,11,,75,48
6479,note_on,,29,0,8,,,,,,,,,,,,,,,,11,,75,0
6479,note_on,,0,0,11,,,,,,,,,,,,,,,,15,,59,0
6479,note_on,,59,0,9,,,,,,,,,,,,,,,,12,,71,0
6479,note_on,,59,0,7,,,,,,,,,,,,,,,,10,,78,0
6479,note_on,,0,0,11,,,,,,,,,,,,,,,,15,,63,0
6479,note_on,,59,0,11,,,,,,,,,,,,,,,,15,,66,0
6479,note_on,,59,0,10,,,,,,,,,,,,,,,,13,,59,0
6480,note_on,,1,0,9,,,,,,,,,,,,,,,,12,,71,48
6480,note_on,,0,0,11,,,,,,,,,,,,,,,,15,,59,48
6480,note_on,,0,0,11,,,,,,,,,,,,,,,,15,,68,48
6480,note_on,,1,0,8,,,,,,,,,,,,,,,,11,,76,48
6480,note_on,,1,0,7,,,,,,,,,,,,,,,,10,,80,48
6480,note_on,,1,0,11,,,,,,,,,,,,,,,,15,,52,48
6480,note_on,,1,0,10,,,,,,,,,,,,,,,,13,,52,48
6480,note_on,,0,0,11,,,,,,,,,,,,,,,,15,,64,48
6509,note_on,,29,0,9,,,,,,,,,,,,,,,,12,,71,0
6509,note_on,,29,0,7,,,,,,,,,,,,,,,,10,,80,0
6510,note_on,,1,0,9,,,,,,,,,,,,,,,,12,,69,48
6510,note_on,,1,0,7,,,,,,,,,,,,,,,,10,,78,48
6539,note_on,,29,0,7,,,,,,,,,,,,,,,,10,,78,0
6539,note_on,,29,0,9,,,,,,,,,,,,,,,,12,,69,0
6539,note_on,,59,0,8,,,,,,,,,,,,,,,,11,,76,0
6540,note_on,,1,0,7,,,,,,,,,,,,,,,,10,,76,48
6540,note_on,,1,0,8,,,,,,,,,,,,,,,,11,,71,48
6540,note_on,,1,0,9,,,,,,,,,,,,,,,,12,,68,48
6540,note_on,,421,0,6,,,,,,,,,,,,,,,,7,,59,60
6599,note_on,,59,0,7,,,,,,,,,,,,,,,,10,,76,0
6599,note_on,,119,0,11,,,,,,,,,,,,,,,,15,,52,0
6599,note_on,,59,0,9,,,,,,,,,,,,,,,,12,,68,0
6599,note_on,,0,0,11,,,,,,,,,,,,,,,,15,,68,0
6599,note_on,,59,0,8,,,,,,,,,,,,,,,,11,,71,0
6599,note_on,,119,0,10,,,,,,,,,,,,,,,,13,,52,0
6599,note_on,,0,0,11,,,,,,,,,,,,,,,,15,,64,0
6599,note_on,,0,0,11,,,,,,,,,,,,,,,,15,,59,0
6599,note_on,,59,0,6,,,,,,,,,,,,,,,,7,,59,0
6600,note_on,,1,0,6,,,,,,,,,,,,,,,,7,,64,67
6660,note_on,,61,0,10,,,,,,,,,,,,,,,,13,,56,48
6660,note_on,,61,0,11,,,,,,,,,,,,,,,,15,,56,48
6660,note_on,,0,0,11,,,,,,,,,,,,,,,,15,,64,48
6660,note_on,,0,0,11,,,,,,,,,,,,,,,,15,,59,48
6719,note_on,,59,0,10,,,,,,,,,,,,,,,,13,,56,0
6719,note_on,,59,0,11,,,,,,,,,,,,,,,,15,,56,0
6719,note_on,,0,0,11,,,,,,,,,,,,,,,,15,,59,0
6720,note_on,,0,0,11,,,,,,,,,,,,,,,,15,,61,48
6720,note_on,,1,0,10,,,,,,,,,,,,,,,,13,,57,48
6720,note_on,,1,0,11,,,,,,,,,,,,,,,,15,,57,48
6779,note_on,,59,0,10,,,,,,,,,,,,,,,,13,,57,0
6779,note_on,,179,0,6,,,,,,,,,,,,,,,,7,,64,0
6779,note_on,,59,0,11,,,,,,,,,,,,,,,,15,,57,0
6780,note_on,,1,0,6,,,,,,,,,,,,,,,,7,,63,61
6780,note_on,,1,0,10,,,,,,,,,,,,,,,,13,,45,48
6780,note_on,,1,0,11,,,,,,,,,,,,,,,,15,,45,48
6809,note_on,,29,0,6,,,,,,,,,,,,,,,,7,,63,0
6810,note_on,,1,0,6,,,,,,,,,,,,,,,,7,,61,59
6839,note_on,,29,0,6,,,,,,,,,,,,,,,,7,,61,0
6839,note_on,,59,0,10,,,,,,,,,,,,,,,,13,,45,0
6839,note_on,,0,0,11,,,,,,,,,,,,,,,,15,,45,0
6839,note_on,,59,0,11,,,,,,,,,,,,,,,,15,,64,0
6839,note_on,,0,0,11,,,,,,,,,,,,,,,,15,,61,0
6840,note_on,,1,0,10,,,,,,,,,,,,,,,,13,,47,48
6840,note_on,,0,0,11,,,,,,,,,,,,,,,,15,,63,48
6840,note_on,,0,0,11,,,,,,,,,,,,,,,,15,,59,48
6840,note_on,,1,0,6,,,,,,,,,,,,,,,,7,,59,64
6840,note_on,,1,0,11,,,,,,,,,,,,,,,,15,,47,48
6840,note_on,,0,0,11,,,,,,,,,,,,,,,,15,,54,48
6899,note_on,,59,0,6,,,,,,,,,,,,,,,,7,,59,0
6899,note_on,,59,0,11,,,,,,,,,,,,,,,,15,,47,0
6899,note_on,,59,0,10,,,,,,,,,,,,,,,,13,,47,0
6900,note_on,,1,0,6,,,,,,,,,,,,,,,,7,,57,58
6900,note_on,,1,0,11,,,,,,,,,,,,,,,,15,,51,48
6900,note_on,,1,0,10,,,,,,,,,,,,,,,,13,,51,48
6959,note_on,,59,0,6,,,,,,,,,,,,,,,,7,,57,0
6959,note_on,,0,0,11,,,,,,,,,,,,,,,,15,,51,0
6959,note_on,,0,0,11,,,,,,,,,,,,,,,,15,,54,0
6959,note_on,,59,0,11,,,,,,,,,,,,,,,,15,,63,0
6959,note_on,,59,0,10,,,,,,,,,,,,,,,,13,,51,0
6959,note_on,,0,0,11,,,,,,,,,,,,,,,,15,,59,0
6960,note_on,,1,0,11,,,,,,,,,,,,,,,,15,,52,48
6960,note_on,,1,0,6,,,,,,,,,,,,,,,,7,,56,67
6960,note_on,,0,0,11,,,,,,,,,,,,,,,,15,,61,48
6960,note_on,,0,0,11,,,,,,,,,,,,,,,,15,,56,48
6960,note_on,,1,0,10,,,,,,,,,,,,,,,,13,,52,48
6989,note_on,,29,0,6,,,,,,,,,,,,,,,,7,,56,0
6990,note_on,,1,0,6,,,,,,,,,,,,,,,,7,,54,64
7019,note_on,,29,0,6,,,,,,,,,,,,,,,,7,,54,0
7020,note_on,,1,0,6,,,,,,,,,,,,,,,,7,,52,61
7020,note_on,,421,0,7,,,,,,,,,,,,,,,,10,,75,48
7020,note_on,,421,0,9,,,,,,,,,,,,,,,,12,,64,48
7020,note_on,,421,0,8,,,,,,,,,,,,,,,,11,,68,48
7079,note_on,,0,0,11,,,,,,,,,,,,,,,,15,,61,0
7079,note_on,,59,0,9,,,,,,,,,,,,,,,,12,,64,0
7079,note_on,,59,0,8,,,,,,,,,,,,,,,,11,,68,0
7079,note_on,,0,0,11,,,,,,,,,,,,,,,,15,,56,0
7079,note_on,,119,0,10,,,,,,,,,,,,,,,,13,,52,0
7079,note_on,,119,0,11,,,,,,,,,,,,,,,,15,,52,0
7079,note_on,,59,0,7,,,,,,,,,,,,,,,,10,,75,0
7080,note_on,,1,0,8,,,,,,,,,,,,,,,,11,,71,48
7080,note_on,,1,0,7,,,,,,,,,,,,,,,,10,,76,48
7080,note_on,,1,0,9,,,,,,,,,,,,,,,,12,,68,48
7109,note_on,,89,0,6,,,,,,,,,,,,,,,,7,,52,0
7110,note_on,,1,0,6,,,,,,,,,,,,,,,,7,,56,58
7139,note_on,,29,0,6,,,,,,,,,,,,,,,,7,,56,0
7140,note_on,,0,0,11,,,,,,,,,,,,,,,,15,,64,48
7140,note_on,,1,0,6,,,,,,,,,,,,,,,,7,,54,60
7140,note_on,,61,0,10,,,,,,,,,,,,,,,,13,,52,48
7140,note_on,,0,0,11,,,,,,,,,,,,,,,,15,,59,48
7140,note_on,,0,0,11,,,,,,,,,,,,,,,,15,,68,48
7140,note_on,,61,0,11,,,,,,,,,,,,,,,,15,,52,48
7169,note_on,,29,0,6,,,,,,,,,,,,,,,,7,,54,0
7170,note_on,,1,0,6,,,,,,,,,,,,,,,,7,,56,66
7199,note_on,,29,0,6,,,,,,,,,,,,,,,,7,,56,0
7199,note_on,,119,0,9,,,,,,,,,,,,,,,,12,,68,0
7199,note_on,,59,0,10,,,,,,,,,,,,,,,,13,,52,0
7199,note_on,,59,0,11,,,,,,,,,,,,,,,,15,,52,0
7199,note_on,,0,0,11,,,,,,,,,,,,,,,,15,,68,0
7199,note_on,,119,0,7,,,,,,,,,,,,,,,,10,,76,0
7199,note_on,,119,0,8,,,,,,,,,,,,,,,,11,,71,0
7199,note_on,,0,0,11,,,,,,,,,,,,,,,,15,,64,0
7199,note_on,,0,0,11,,,,,,,,,,,,,,,,15,,59,0
7200,note_on,,1,0,10,,,,,,,,,,,,,,,,13,,54,48
7200,note_on,,0,0,11,,,,,,,,,,,,,,,,15,,57,48
7200,note_on,,0,0,11,,,,,,,,,,,,,,,,15,,63,48
7200,note_on,,0,0,11,,,,,,,,,,,,,,,,15,,69,48
7200,note_on,,1,0,11,,,,,,,,,,,,,,,,15,,54,48
7200,note_on,,1,0,6,,,,,,,,,,,,,,,,7,,57,64
7229,note_on,,29,0,6,,,,,,,,,,,,,,,,7,,57,0
7230,note_on,,1,0,6,,,,,,,,,,,,,,,,7,,56,59
7259,note_on,,29,0,6,,,,,,,,,,,,,,,,7,,56,0
7260,note_on,,61,0,7,,,,,,,,,,,,,,,,10,,75,48
7260,note_on,,61,0,8,,,,,,,,,,,,,,,,11,,69,48
7260,note_on,,1,0,6,,,,,,,,,,,,,,,,7,,54,58
7260,note_on,,61,0,9,,,,,,,,,,,,,,,,12,,66,48
7319,note_on,,59,0,9,,,,,,,,,,,,,,,,12,,66,0
7319,note_on,,59,0,7,,,,,,,,,,,,,,,,10,,75,0
7319,note_on,,0,0,11,,,,,,,,,,,,,,,,15,,63,0
7319,note_on,,0,0,11,,,,,,,,,,,,,,,,15,,69,0
7319,note_on,,119,0,11,,,,,,,,,,,,,,,,15,,54,0
7319,note_on,,119,0,10,,,,,,,,,,,,,,,,13,,54,0
7319,note_on,,0,0,11,,,,,,,,,,,,,,,,15,,57,0
7319,note_on,,59,0,8,,,,,,,,,,,,,,,,11,,69,0
7320,note_on,,1,0,9,,,,,,,,,,,,,,,,12,,69,48
7320,note_on,,1,0,7,,,,,,,,,,,,,,,,10,,78,48
7320,note_on,,1,0,8,,,,,,,,,,,,,,,,11,,75,48
7349,note_on,,89,0,6,,,,,,,,,,,,,,,,7,,54,0
7350,note_on,,1,0,6,,,,,,,,,,,,,,,,7,,57,64
7379,note_on,,29,0,6,,,,,,,,,,,,,,,,7,,57,0
7380,note_on,,61,0,11,,,,,,,,,,,,,,,,15,,54,48
7380,note_on,,0,0,11,,,,,,,,,,,,,,,,15,,57,48
7380,note_on,,61,0,10,,,,,,,,,,,,,,,,13,,54,48
7380,note_on,,1,0,6,,,,,,,,,,,,,,,,7,,56,67
7380,note_on,,0,0,11,,,,,,,,,,,,,,,,15,,63,48
7409,note_on,,29,0,6,,,,,,,,,,,,,,,,7,,56,0
7410,note_on,,1,0,6,,,,,,,,,,,,,,,,7,,57,64
7439,note_on,,29,0,6,,,,,,,,,,,,,,,,7,,57,0
7439,note_on,,59,0,11,,,,,,,,,,,,,,,,15,,54,0
7439,note_on,,0,0,11,,,,,,,,,,,,,,,,15,,63,0
7439,note_on,,0,0,11,,,,,,,,,,,,,,,,15,,57,0
7439,note_on,,119,0,9,,,,,,,,,,,,,,,,12,,69,0
7439,note_on,,119,0,8,,,,,,,,,,,,,,,,11,,75,0
7439,note_on,,59,0,10,,,,,,,,,,,,,,,,13,,54,0
7439,note_on,,119,0,7,,,,,,,,,,,,,,,,10,,78,0
7440,note_on,,1,0,6,,,,,,,,,,,,,,,,7,,59,60
7440,note_on,,1,0,11,,,,,,,,,,,,,,,,15,,56,48
7440,note_on,,0,0,11,,,,,,,,,,,,,,,,15,,59,48
7440,note_on,,0,0,11,,,,,,,,,,,,,,,,15,,64,48
7440,note_on,,1,0,10,,,,,,,,,,,,,,,,13,,56,48
7469,note_on,,29,0,6,,,,,,,,,,,,,,,,7,,59,0
7470,note_on,,1,0,6,,,,,,,,,,,,,,,,7,,57,62
7499,note_on,,29,0,6,,,,,,,,,,,,,,,,7,,57,0
7500,note_on,,61,0,9,,,,,,,,,,,,,,,,12,,68,48
7500,note_on,,61,0,8,,,,,,,,,,,,,,,,11,,71,48
7500,note_on,,1,0,6,,,,,,,,,,,,,,,,7,,56,67
7500,note_on,,61,0,7,,,,,,,,,,,,,,,,10,,76,48
7559,note_on,,119,0,11,,,,,,,,,,,,,,,,15,,56,0
7559,note_on,,0,0,11,,,,,,,,,,,,,,,,15,,64,0
7559,note_on,,0,0,11,,,,,,,,,,,,,,,,15,,59,0
7559,note_on,,59,0,9,,,,,,,,,,,,,,,,12,,68,0
7559,note_on,,59,0,8,,,,,,,,,,,,,,,,11,,71,0
7559,note_on,,59,0,7,,,,,,,,,,,,,,,,10,,76,0
7559,note_on,,119,0,10,,,,,,,,,,,,,,,,13,,56,0
7560,note_on,,1,0,9,,,,,,,,,,,,,,,,12,,71,48
7560,note_on,,1,0,8,,,,,,,,,,,,,,,,11,,76,48
7560,note_on,,1,0,7,,,,,,,,,,,,,,,,10,,80,48
7589,note_on,,89,0,6,,,,,,,,,,,,,,,,7,,56,0
7590,note_on,,1,0,6,,,,,,,,,,,,,,,,7,,59,58
7619,note_on,,29,0,6,,,,,,,,,,,,,,,,7,,59,0
7620,note_on,,0,0,11,,,,,,,,,,,,,,,,15,,71,48
7620,note_on,,61,0,10,,,,,,,,,,,,,,,,13,,56,48
7620,note_on,,0,0,11,,,,,,,,,,,,,,,,15,,64,48
7620,note_on,,61,0,11,,,,,,,,,,,,,,,,15,,56,48
7620,note_on,,1,0,6,,,,,,,,,,,,,,,,7,,57,61
7649,note_on,,29,0,6,,,,,,,,,,,,,,,,7,,57,0
7650,note_on,,1,0,6,,,,,,,,,,,,,,,,7,,59,64
7679,note_on,,0,0,11,,,,,,,,,,,,,,,,15,,64,0
7679,note_on,,29,0,6,,,,,,,,,,,,,,,,7,,59,0
7679,note_on,,119,0,7,,,,,,,,,,,,,,,,10,,80,0
7679,note_on,,59,0,11,,,,,,,,,,,,,,,,15,,56,0
7679,note_on,,0,0,11,,,,,,,,,,,,,,,,15,,71,0
7679,note_on,,119,0,8,,,,,,,,,,,,,,,,11,,76,0
7679,note_on,,59,0,10,,,,,,,,,,,,,,,,13,,56,0
7679,note_on,,119,0,9,,,,,,,,,,,,,,,,12,,71,0
7680,note_on,,1,0,11,,,,,,,,,,,,,,,,15,,57,48
7680,note_on,,0,0,11,,,,,,,,,,,,,,,,15,,73,48
7680,note_on,,0,0,11,,,,,,,,,,,,,,,,15,,69,48
7680,note_on,,0,0,11,,,,,,,,,,,,,,,,15,,61,48
7680,note_on,,1,0,10,,,,,,,,,,,,,,,,13,,57,48
7680,note_on,,1,0,6,,,,,,,,,,,,,,,,7,,61,61
7709,note_on,,29,0,6,,,,,,,,,,,,,,,,7,,61,0
7710,note_on,,1,0,6,,,,,,,,,,,,,,,,7,,59,61
7739,note_on,,29,0,6,,,,,,,,,,,,,,,,7,,59,0
7740,note_on,,61,0,7,,,,,,,,,,,,,,,,10,,78,48
7740,note_on,,61,0,9,,,,,,,,,,,,,,,,12,,69,48
7740,note_on,,1,0,6,,,,,,,,,,,,,,,,7,,57,64
7740,note_on,,61,0,8,,,,,,,,,,,,,,,,11,,73,48
7799,note_on,,59,0,8,,,,,,,,,,,,,,,,11,,73,0
7799,note_on,,59,0,7,,,,,,,,,,,,,,,,10,,78,0
7799,note_on,,119,0,10,,,,,,,,,,,,,,,,13,,57,0
7799,note_on,,59,0,9,,,,,,,,,,,,,,,,12,,69,0
7799,note_on,,0,0,11,,,,,,,,,,,,,,,,15,,61,0
7799,note_on,,119,0,11,,,,,,,,,,,,,,,,15,,57,0
7799,note_on,,0,0,11,,,,,,,,,,,,,,,,15,,69,0
7799,note_on,,0,0,11,,,,,,,,,,,,,,,,15,,73,0
7800,note_on,,1,0,9,,,,,,,,,,,,,,,,12,,73,48
7800,note_on,,1,0,8,,,,,,,,,,,,,,,,11,,78,48
7800,note_on,,1,0,7,,,,,,,,,,,,,,,,10,,81,48
7829,note_on,,89,0,6,,,,,,,,,,,,,,,,7,,57,0
7830,note_on,,1,0,6,,,,,,,,,,,,,,,,7,,61,60
7859,note_on,,29,0,6,,,,,,,,,,,,,,,,7,,61,0
7860,note_on,,0,0,11,,,,,,,,,,,,,,,,15,,69,48
7860,note_on,,0,0,11,,,,,,,,,,,,,,,,15,,64,48
7860,note_on,,61,0,11,,,,,,,,,,,,,,,,15,,57,48
7860,note_on,,1,0,6,,,,,,,,,,,,,,,,7,,59,60
7860,note_on,,0,0,11,,,,,,,,,,,,,,,,15,,61,48
7860,note_on,,61,0,10,,,,,,,,,,,,,,,,13,,57,48
7889,note_on,,29,0,6,,,,,,,,,,,,,,,,7,,59,0
7890,note_on,,1,0,6,,,,,,,,,,,,,,,,7,,61,64
7919,note_on,,119,0,9,,,,,,,,,,,,,,,,12,,73,0
7919,note_on,,59,0,10,,,,,,,,,,,,,,,,13,,57,0
7919,note_on,,29,0,6,,,,,,,,,,,,,,,,7,,61,0
7919,note_on,,59,0,11,,,,,,,,,,,,,,,,15,,57,0
7919,note_on,,0,0,11,,,,,,,,,,,,,,,,15,,69,0
7919,note_on,,119,0,8,,,,,,,,,,,,,,,,11,,78,0
7919,note_on,,0,0,11,,,,,,,,,,,,,,,,15,,64,0
7919,note_on,,0,0,11,,,,,,,,,,,,,,,,15,,61,0
7919,note_on,,119,0,7,,,,,,,,,,,,,,,,10,,81,0
7920,note_on,,1,0,10,,,,,,,,,,,,,,,,13,,59,48
7920,note_on,,0,0,11,,,,,,,,,,,,,,,,15,,63,48
7920,note_on,,1,0,6,,,,,,,,,,,,,,,,7,,63,66
7920,note_on,,1,0,11,,,,,,,,,,,,,,,,15,,59,48
7920,note_on,,0,0,11,,,,,,,,,,,,,,,,15,,66,48
7949,note_on,,29,0,6,,,,,,,,,,,,,,,,7,,63,0
7950,note_on,,1,0,6,,,,,,,,,,,,,,,,7,,61,62
7979,note_on,,29,0,6,,,,,,,,,,,,,,,,7,,61,0
7980,note_on,,61,0,7,,,,,,,,,,,,,,,,10,,78,48
7980,note_on,,61,0,9,,,,,,,,,,,,,,,,12,,71,48
7980,note_on,,1,0,6,,,,,,,,,,,,,,,,7,,59,61
7980,note_on,,61,0,8,,,,,,,,,,,,,,,,11,,75,48
8039,note_on,,119,0,11,,,,,,,,,,,,,,,,15,,59,0
8039,note_on,,0,0,11,,,,,,,,,,,,,,,,15,,66,0
8039,note_on,,0,0,11,,,,,,,,,,,,,,,,15,,63,0
8039,note_on,,59,0,9,,,,,,,,,,,,,,,,12,,71,0
8039,note_on,,59,0,7,,,,,,,,,,,,,,,,10,,78,0
8039,note_on,,119,0,10,,,,,,,,,,,,,,,,13,,59,0
8039,note_on,,59,0,8,,,,,,,,,,,,,,,,11,,75,0
8040,note_on,,1,0,9,,,,,,,,,,,,,,,,12,,63,48
8040,note_on,,1,0,7,,,,,,,,,,,,,,,,10,,83,48
8040,note_on,,1,0,8,,,,,,,,,,,,,,,,11,,78,48
8069,note_on,,89,0,6,,,,,,,,,,,,,,,,7,,59,0
8070,note_on,,1,0,6,,,,,,,,,,,,,,,,7,,63,64
8099,note_on,,29,0,6,,,,,,,,,,,,,,,,7,,63,0
8100,note_on,,61,0,10,,,,,,,,,,,,,,,,13,,59,48
8100,note_on,,1,0,6,,,,,,,,,,,,,,,,7,,61,62
8100,note_on,,61,0,11,,,,,,,,,,,,,,,,15,,59,48
8100,note_on,,0,0,11,,,,,,,,,,,,,,,,15,,63,48
8100,note_on,,0,0,11,,,,,,,,,,,,,,,,15,,71,48
8129,note_on,,29,0,6,,,,,,,,,,,,,,,,7,,61,0
8130,note_on,,1,0,6,,,,,,,,,,,,,,,,7,,63,64
8159,note_on,,59,0,11,,,,,,,,,,,,,,,,15,,59,0
8159,note_on,,119,0,9,,,,,,,,,,,,,,,,12,,63,0
8159,note_on,,119,0,8,,,,,,,,,,,,,,,,11,,78,0
8159,note_on,,0,0,11,,,,,,,,,,,,,,,,15,,63,0
8159,note_on,,59,0,10,,,,,,,,,,,,,,,,13,,59,0
8159,note_on,,29,0,6,,,,,,,,,,,,,,,,7,,63,0
8159,note_on,,119,0,7,,,,,,,,,,,,,,,,10,,83,0
8160,note_on,,1,0,10,,,,,,,,,,,,,,,,13,,61,48
8160,note_on,,0,0,11,,,,,,,,,,,,,,,,15,,64,48
8160,note_on,,1,0,11,,,,,,,,,,,,,,,,15,,61,48
8160,note_on,,1,0,6,,,,,,,,,,,,,,,,7,,64,62
8189,note_on,,29,0,6,,,,,,,,,,,,,,,,7,,64,0
8190,note_on,,1,0,6,,,,,,,,,,,,,,,,7,,63,67
8219,note_on,,29,0,6,,,,,,,,,,,,,,,,7,,63,0
8220,note_on,,61,0,7,,,,,,,,,,,,,,,,10,,71,48
8220,note_on,,61,0,8,,,,,,,,,,,,,,,,11,,68,48
8220,note_on,,1,0,6,,,,,,,,,,,,,,,,7,,61,59
8220,note_on,,61,0,9,,,,,,,,,,,,,,,,12,,64,48
8279,note_on,,119,0,11,,,,,,,,,,,,,,,,15,,71,0
8279,note_on,,119,0,10,,,,,,,,,,,,,,,,13,,61,0
8279,note_on,,59,0,8,,,,,,,,,,,,,,,,11,,68,0
8279,note_on,,0,0,11,,,,,,,,,,,,,,,,15,,61,0
8279,note_on,,0,0,11,,,,,,,,,,,,,,,,15,,64,0
8279,note_on,,59,0,7,,,,,,,,,,,,,,,,10,,71,0
8279,note_on,,59,0,9,,,,,,,,,,,,,,,,12,,64,0
8280,note_on,,1,0,8,,,,,,,,,,,,,,,,11,,64,48
8280,note_on,,1,0,7,,,,,,,,,,,,,,,,10,,69,48
8280,note_on,,1,0,9,,,,,,,,,,,,,,,,12,,61,48
8309,note_on,,89,0,6,,,,,,,,,,,,,,,,7,,61,0
8310,note_on,,1,0,6,,,,,,,,,,,,,,,,7,,64,64
8339,note_on,,29,0,6,,,,,,,,,,,,,,,,7,,64,0
8340,note_on,,61,0,11,,,,,,,,,,,,,,,,15,,49,48
8340,note_on,,0,0,11,,,,,,,,,,,,,,,,15,,69,48
8340,note_on,,61,0,10,,,,,,,,,,,,,,,,13,,49,48
8340,note_on,,0,0,11,,,,,,,,,,,,,,,,15,,64,48
8340,note_on,,1,0,6,,,,,,,,,,,,,,,,7,,63,59
8369,note_on,,29,0,6,,,,,,,,,,,,,,,,7,,63,0
8370,note_on,,1,0,6,,,,,,,,,,,,,,,,7,,64,60
8399,note_on,,119,0,8,,,,,,,,,,,,,,,,11,,64,0
8399,note_on,,59,0,11,,,,,,,,,,,,,,,,15,,49,0
8399,note_on,,119,0,7,,,,,,,,,,,,,,,,10,,69,0
8399,note_on,,0,0,11,,,,,,,,,,,,,,,,15,,64,0
8399,note_on,,119,0,9,,,,,,,,,,,,,,,,12,,61,0
8399,note_on,,59,0,10,,,,,,,,,,,,,,,,13,,49,0
8399,note_on,,29,0,6,,,,,,,,,,,,,,,,7,,64,0
8400,note_on,,1,0,6,,,,,,,,,,,,,,,,7,,66,59
8400,note_on,,1,0,10,,,,,,,,,,,,,,,,13,,51,48
8400,note_on,,0,0,11,,,,,,,,,,,,,,,,15,,59,48
8400,note_on,,0,0,11,,,,,,,,,,,,,,,,15,,66,48
8400,note_on,,1,0,11,,,,,,,,,,,,,,,,15,,51,48
8429,note_on,,29,0,6,,,,,,,,,,,,,,,,7,,66,0
8430,note_on,,1,0,6,,,,,,,,,,,,,,,,7,,64,59
8459,note_on,,29,0,6,,,,,,,,,,,,,,,,7,,64,0
8460,note_on,,61,0,8,,,,,,,,,,,,,,,,11,,66,48
8460,note_on,,61,0,7,,,,,,,,,,,,,,,,10,,71,48
8460,note_on,,1,0,6,,,,,,,,,,,,,,,,7,,63,64
8460,note_on,,61,0,9,,,,,,,,,,,,,,,,12,,63,48
8489,note_on,,29,0,6,,,,,,,,,,,,,,,,7,,63,0
8490,note_on,,1,0,6,,,,,,,,,,,,,,,,7,,61,66
8519,note_on,,0,0,11,,,,,,,,,,,,,,,,15,,51,0
8519,note_on,,59,0,7,,,,,,,,,,,,,,,,10,,71,0
8519,note_on,,59,0,9,,,,,,,,,,,,,,,,12,,63,0
8519,note_on,,119,0,10,,,,,,,,,,,,,,,,13,,51,0
8519,note_on,,59,0,8,,,,,,,,,,,,,,,,11,,66,0
8519,note_on,,0,0,11,,,,,,,,,,,,,,,,15,,66,0
8519,note_on,,0,0,11,,,,,,,,,,,,,,,,15,,59,0
8519,note_on,,119,0,11,,,,,,,,,,,,,,,,15,,69,0
8519,note_on,,29,0,6,,,,,,,,,,,,,,,,7,,61,0
8520,note_on,,1,0,8,,,,,,,,,,,,,,,,11,,71,48
8520,note_on,,1,0,9,,,,,,,,,,,,,,,,12,,63,48
8520,note_on,,1,0,6,,,,,,,,,,,,,,,,7,,59,62
8520,note_on,,1,0,7,,,,,,,,,,,,,,,,10,,78,48
8549,note_on,,29,0,6,,,,,,,,,,,,,,,,7,,59,0
8550,note_on,,1,0,6,,,,,,,,,,,,,,,,7,,66,62
8579,note_on,,29,0,6,,,,,,,,,,,,,,,,7,,66,0
8580,note_on,,61,0,10,,,,,,,,,,,,,,,,13,,51,48
8580,note_on,,0,0,11,,,,,,,,,,,,,,,,15,,59,48
8580,note_on,,0,0,11,,,,,,,,,,,,,,,,15,,66,48
8580,note_on,,61,0,11,,,,,,,,,,,,,,,,15,,51,48
8580,note_on,,1,0,6,,,,,,,,,,,,,,,,7,,64,64
8609,note_on,,29,0,6,,,,,,,,,,,,,,,,7,,64,0
8610,note_on,,1,0,6,,,,,,,,,,,,,,,,7,,66,62
8639,note_on,,119,0,9,,,,,,,,,,,,,,,,12,,63,0
8639,note_on,,59,0,11,,,,,,,,,,,,,,,,15,,51,0
8639,note_on,,0,0,11,,,,,,,,,,,,,,,,15,,66,0
8639,note_on,,59,0,10,,,,,,,,,,,,,,,,13,,51,0
8639,note_on,,119,0,8,,,,,,,,,,,,,,,,11,,71,0
8639,note_on,,29,0,6,,,,,,,,,,,,,,,,7,,66,0
8639,note_on,,119,0,7,,,,,,,,,,,,,,,,10,,78,0
8640,note_on,,1,0,11,,,,,,,,,,,,,,,,15,,52,48
8640,note_on,,0,0,11,,,,,,,,,,,,,,,,15,,68,48
8640,note_on,,1,0,10,,,,,,,,,,,,,,,,13,,52,48
8640,note_on,,1,0,6,,,,,,,,,,,,,,,,7,,68,64
8640,note_on,,1,0,9,,,,,,,,,,,,,,,,12,,68,48
8640,note_on,,1,0,7,,,,,,,,,,,,,,,,10,,76,48
8640,note_on,,1,0,8,,,,,,,,,,,,,,,,11,,71,48
8669,note_on,,29,0,6,,,,,,,,,,,,,,,,7,,68,0
8670,note_on,,1,0,6,,,,,,,,,,,,,,,,7,,66,58
8699,note_on,,29,0,6,,,,,,,,,,,,,,,,7,,66,0
8699,note_on,,59,0,9,,,,,,,,,,,,,,,,12,,68,0
8699,note_on,,59,0,11,,,,,,,,,,,,,,,,15,,59,0
8699,note_on,,0,0,11,,,,,,,,,,,,,,,,15,,52,0
8699,note_on,,59,0,10,,,,,,,,,,,,,,,,13,,52,0
8699,note_on,,59,0,8,,,,,,,,,,,,,,,,11,,71,0
8700,note_on,,1,0,10,,,,,,,,,,,,,,,,13,,56,48
8700,note_on,,1,0,6,,,,,,,,,,,,,,,,7,,64,66
8700,note_on,,1,0,9,,,,,,,,,,,,,,,,12,,71,48
8700,note_on,,1,0,8,,,,,,,,,,,,,,,,11,,76,48
8700,note_on,,0,0,11,,,,,,,,,,,,,,,,15,,64,48
8700,note_on,,1,0,11,,,,,,,,,,,,,,,,15,,56,48
8759,note_on,,119,0,7,,,,,,,,,,,,,,,,10,,76,0
8759,note_on,,59,0,6,,,,,,,,,,,,,,,,7,,64,0
8759,note_on,,59,0,10,,,,,,,,,,,,,,,,13,,56,0
8759,note_on,,59,0,9,,,,,,,,,,,,,,,,12,,71,0
8759,note_on,,0,0,11,,,,,,,,,,,,,,,,15,,56,0
8759,note_on,,59,0,11,,,,,,,,,,,,,,,,15,,68,0
8760,note_on,,1,0,10,,,,,,,,,,,,,,,,13,,57,48
8760,note_on,,1,0,9,,,,,,,,,,,,,,,,12,,73,48
8760,note_on,,1,0,11,,,,,,,,,,,,,,,,15,,57,48
8760,note_on,,0,0,11,,,,,,,,,,,,,,,,15,,66,48
8760,note_on,,1,0,7,,,,,,,,,,,,,,,,10,,78,48
8819,note_on,,59,0,9,,,,,,,,,,,,,,,,12,,73,0
8819,note_on,,59,0,11,,,,,,,,,,,,,,,,15,,64,0
8819,note_on,,0,0,11,,,,,,,,,,,,,,,,15,,57,0
8819,note_on,,59,0,10,,,,,,,,,,,,,,,,13,,57,0
8819,note_on,,119,0,8,,,,,,,,,,,,,,,,11,,76,0
8820,note_on,,1,0,9,,,,,,,,,,,,,,,,12,,71,48
8820,note_on,,1,0,11,,,,,,,,,,,,,,,,15,,59,48
8820,note_on,,0,0,11,,,,,,,,,,,,,,,,15,,63,48
8820,note_on,,1,0,10,,,,,,,,,,,,,,,,13,,59,48
8820,note_on,,1,0,8,,,,,,,,,,,,,,,,11,,75,48
8865,note_on,,45,0,11,,,,,,,,,,,,,,,,15,,59,48
8879,note_on,,59,0,10,,,,,,,,,,,,,,,,13,,59,0
8879,note_on,,59,0,9,,,,,,,,,,,,,,,,12,,71,0
8879,note_on,,119,0,7,,,,,,,,,,,,,,,,10,,78,0
8879,note_on,,0,0,11,,,,,,,,,,,,,,,,15,,59,0
8879,note_on,,14,0,11,,,,,,,,,,,,,,,,15,,66,0
8879,note_on,,59,0,8,,,,,,,,,,,,,,,,11,,75,0
8879,note_on,,0,0,11,,,,,,,,,,,,,,,,15,,63,0
8880,note_on,,0,0,11,,,,,,,,,,,,,,,,15,,68,48
8880,note_on,,0,0,11,,,,,,,,,,,,,,,,15,,64,48
8880,note_on,,1,0,8,,,,,,,,,,,,,,,,11,,76,48
8880,note_on,,1,0,10,,,,,,,,,,,,,,,,13,,52,48
8880,note_on,,1,0,7,,,,,,,,,,,,,,,,10,,80,48
8880,note_on,,1,0,9,,,,,,,,,,,,,,,,12,,71,48
8880,note_on,,1,0,11,,,,,,,,,,,,,,,,15,,52,48
8940,note_on,,181,0,6,,,,,,,,,,,,,,,,7,,52,61
8969,note_on,,89,0,8,,,,,,,,,,,,,,,,11,,76,0
8969,note_on,,89,0,7,,,,,,,,,,,,,,,,10,,80,0
8970,note_on,,1,0,8,,,,,,,,,,,,,,,,11,,80,48
8970,note_on,,1,0,7,,,,,,,,,,,,,,,,10,,83,48
8984,note_on,,104,0,11,,,,,,,,,,,,,,,,15,,59,0
8999,note_on,,29,0,7,,,,,,,,,,,,,,,,10,,83,0
8999,note_on,,119,0,9,,,,,,,,,,,,,,,,12,,71,0
8999,note_on,,119,0,10,,,,,,,,,,,,,,,,13,,52,0
8999,note_on,,59,0,6,,,,,,,,,,,,,,,,7,,52,0
8999,note_on,,29,0,8,,,,,,,,,,,,,,,,11,,80,0
8999,note_on,,0,0,11,,,,,,,,,,,,,,,,15,,64,0
8999,note_on,,0,0,11,,,,,,,,,,,,,,,,15,,68,0
8999,note_on,,15,0,11,,,,,,,,,,,,,,,,15,,52,0
9000,note_on,,1,0,6,,,,,,,,,,,,,,,,7,,56,66
9000,note_on,,1,0,8,,,,,,,,,,,,,,,,11,,80,48
9000,note_on,,1,0,7,,,,,,,,,,,,,,,,10,,83,48
9059,note_on,,59,0,6,,,,,,,,,,,,,,,,7,,56,0
9060,note_on,,1,0,6,,,,,,,,,,,,,,,,7,,59,64
9119,note_on,,59,0,6,,,,,,,,,,,,,,,,7,,59,0
9119,note_on,,119,0,7,,,,,,,,,,,,,,,,10,,83,0
9119,note_on,,119,0,8,,,,,,,,,,,,,,,,11,,80,0
9120,note_on,,1,0,6,,,,,,,,,,,,,,,,7,,64,67
9180,note_on,,0,0,11,,,,,,,,,,,,,,,,15,,61,48
9180,note_on,,181,0,10,,,,,,,,,,,,,,,,13,,61,48
9180,note_on,,0,0,11,,,,,,,,,,,,,,,,15,,70,48
9180,note_on,,181,0,11,,,,,,,,,,,,,,,,15,,64,48
9239,note_on,,59,0,11,,,,,,,,,,,,,,,,15,,61,0
9239,note_on,,0,0,11,,,,,,,,,,,,,,,,15,,70,0
9239,note_on,,59,0,10,,,,,,,,,,,,,,,,13,,61,0
9240,note_on,,1,0,10,,,,,,,,,,,,,,,,13,,58,48
9240,note_on,,0,0,11,,,,,,,,,,,,,,,,15,,73,48
9240,note_on,,1,0,11,,,,,,,,,,,,,,,,15,,58,48
9299,note_on,,0,0,11,,,,,,,,,,,,,,,,15,,73,0
9299,note_on,,59,0,11,,,,,,,,,,,,,,,,15,,64,0
9299,note_on,,59,0,10,,,,,,,,,,,,,,,,13,,58,0
9299,note_on,,179,0,6,,,,,,,,,,,,,,,,7,,64,0
9299,note_on,,0,0,11,,,,,,,,,,,,,,,,15,,58,0
9300,note_on,,1,0,11,,,,,,,,,,,,,,,,15,,54,48
9300,note_on,,1,0,10,,,,,,,,,,,,,,,,13,,54,48
9300,note_on,,1,0,6,,,,,,,,,,,,,,,,7,,66,61
9300,note_on,,0,0,11,,,,,,,,,,,,,,,,15,,70,48
9329,note_on,,29,0,6,,,,,,,,,,,,,,,,7,,66,0
9330,note_on,,1,0,6,,,,,,,,,,,,,,,,7,,64,65
9359,note_on,,59,0,11,,,,,,,,,,,,,,,,15,,54,0
9359,note_on,,0,0,11,,,,,,,,,,,,,,,,15,,70,0
9359,note_on,,59,0,10,,,,,,,,,,,,,,,,13,,54,0
9359,note_on,,29,0,6,,,,,,,,,,,,,,,,7,,64,0
9360,note_on,,1,0,10,,,,,,,,,,,,,,,,13,,59,48
9360,note_on,,1,0,11,,,,,,,,,,,,,,,,15,,59,48
9360,note_on,,0,0,11,,,,,,,,,,,,,,,,15,,66,48
9360,note_on,,0,0,11,,,,,,,,,,,,,,,,15,,63,48
9360,note_on,,1,0,6,,,,,,,,,,,,,,,,7,,63,64
9389,note_on,,29,0,6,,,,,,,,,,,,,,,,7,,63,0
9390,note_on,,1,0,6,,,,,,,,,,,,,,,,7,,61,61
9419,note_on,,59,0,10,,,,,,,,,,,,,,,,13,,59,0
9419,note_on,,59,0,11,,,,,,,,,,,,,,,,15,,59,0
9419,note_on,,29,0,6,,,,,,,,,,,,,,,,7,,61,0
9420,note_on,,301,0,7,,,,,,,,,,,,,,,,10,,78,48
9420,note_on,,301,0,8,,,,,,,,,,,,,,,,11,,75,48
9420,note_on,,1,0,6,,,,,,,,,,,,,,,,7,,59,66
9420,note_on,,1,0,10,,,,,,,,,,,,,,,,13,,47,48
9420,note_on,,1,0,11,,,,,,,,,,,,,,,,15,,47,48
9420,note_on,,421,0,9,,,,,,,,,,,,,,,,12,,71,48
9479,note_on,,59,0,9,,,,,,,,,,,,,,,,12,,71,0
9479,note_on,,59,0,11,,,,,,,,,,,,,,,,15,,66,0
9479,note_on,,0,0,11,,,,,,,,,,,,,,,,15,,63,0
9479,note_on,,59,0,7,,,,,,,,,,,,,,,,10,,78,0
9479,note_on,,0,0,11,,,,,,,,,,,,,,,,15,,47,0
9479,note_on,,59,0,8,,,,,,,,,,,,,,,,11,,75,0
9479,note_on,,59,0,10,,,,,,,,,,,,,,,,13,,47,0
9479,note_on,,59,0,6,,,,,,,,,,,,,,,,7,,59,0
9480,note_on,,1,0,9,,,,,,,,,,,,,,,,12,,71,48
9480,note_on,,1,0,7,,,,,,,,,,,,,,,,10,,80,48
9480,note_on,,1,0,8,,,,,,,,,,,,,,,,11,,76,48
9539,note_on,,59,0,9,,,,,,,,,,,,,,,,12,,71,0
9539,note_on,,59,0,8,,,,,,,,,,,,,,,,11,,76,0
9539,note_on,,59,0,7,,,,,,,,,,,,,,,,10,,80,0
9540,note_on,,1,0,8,,,,,,,,,,,,,,,,11,,75,48
9540,note_on,,1,0,9,,,,,,,,,,,,,,,,12,,71,48
9540,note_on,,1,0,7,,,,,,,,,,,,,,,,10,,78,48
9599,note_on,,59,0,9,,,,,,,,,,,,,,,,12,,71,0
9599,note_on,,59,0,8,,,,,,,,,,,,,,,,11,,75,0
9599,note_on,,59,0,7,,,,,,,,,,,,,,,,10,,78,0
9600,note_on,,1,0,7,,,,,,,,,,,,,,,,10,,80,48
9600,note_on,,1,0,9,,,,,,,,,,,,,,,,12,,71,48
9600,note_on,,1,0,8,,,,,,,,,,,,,,,,11,,76,48
9659,note_on,,59,0,9,,,,,,,,,,,,,,,,12,,71,0
9659,note_on,,59,0,8,,,,,,,,,,,,,,,,11,,76,0
9659,note_on,,59,0,7,,,,,,,,,,,,,,,,10,,80,0
9660,note_on,,0,0,11,,,,,,,,,,,,,,,,15,,63,48
9660,note_on,,1,0,7,,,,,,,,,,,,,,,,10,,78,48
9660,note_on,,181,0,10,,,,,,,,,,,,,,,,13,,47,48
9660,note_on,,181,0,6,,,,,,,,,,,,,,,,7,,54,66
9660,note_on,,181,0,11,,,,,,,,,,,,,,,,15,,47,48
9660,note_on,,0,0,11,,,,,,,,,,,,,,,,15,,71,48
9660,note_on,,1,0,8,,,,,,,,,,,,,,,,11,,75,48
9660,note_on,,1,0,9,,,,,,,,,,,,,,,,12,,59,48
9719,note_on,,59,0,9,,,,,,,,,,,,,,,,12,,59,0
9719,note_on,,59,0,8,,,,,,,,,,,,,,,,11,,75,0
9719,note_on,,59,0,11,,,,,,,,,,,,,,,,15,,47,0
9719,note_on,,59,0,7,,,,,,,,,,,,,,,,10,,78,0
9719,note_on,,0,0,11,,,,,,,,,,,,,,,,15,,63,0
9719,note_on,,59,0,10,,,,,,,,,,,,,,,,13,,47,0
9719,note_on,,59,0,6,,,,,,,,,,,,,,,,7,,54,0
9720,note_on,,1,0,6,,,,,,,,,,,,,,,,7,,59,58
9720,note_on,,0,0,11,,,,,,,,,,,,,,,,15,,66,48
9720,note_on,,1,0,10,,,,,,,,,,,,,,,,13,,51,48
9720,note_on,,1,0,11,,,,,,,,,,,,,,,,15,,51,48
9779,note_on,,59,0,11,,,,,,,,,,,,,,,,15,,51,0
9779,note_on,,0,0,11,,,,,,,,,,,,,,,,15,,66,0
9779,note_on,,59,0,10,,,,,,,,,,,,,,,,13,,51,0
9779,note_on,,59,0,6,,,,,,,,,,,,,,,,7,,59,0
9780,note_on,,0,0,11,,,,,,,,,,,,,,,,15,,63,48
9780,note_on,,1,0,6,,,,,,,,,,,,,,,,7,,54,65
9780,note_on,,1,0,10,,,,,,,,,,,,,,,,13,,47,48
9780,note_on,,1,0,11,,,,,,,,,,,,,,,,15,,47,48
9839,note_on,,0,0,11,,,,,,,,,,,,,,,,15,,47,0
9839,note_on,,59,0,11,,,,,,,,,,,,,,,,15,,71,0
9839,note_on,,59,0,6,,,,,,,,,,,,,,,,7,,54,0
9839,note_on,,59,0,10,,,,,,,,,,,,,,,,13,,47,0
9839,note_on,,0,0,11,,,,,,,,,,,,,,,,15,,63,0
9840,note_on,,1,0,6,,,,,,,,,,,,,,,,7,,56,61
9840,note_on,,0,0,11,,,,,,,,,,,,,,,,15,,59,48
9840,note_on,,0,0,11,,,,,,,,,,,,,,,,15,,71,48
9840,note_on,,0,0,11,,,,,,,,,,,,,,,,15,,68,48
9840,note_on,,1,0,10,,,,,,,,,,,,,,,,13,,52,48
9840,note_on,,1,0,11,,,,,,,,,,,,,,,,15,,52,48
9869,note_on,,29,0,6,,,,,,,,,,,,,,,,7,,56,0
9870,note_on,,1,0,6,,,,,,,,,,,,,,,,7,,54,60
9899,note_on,,29,0,6,,,,,,,,,,,,,,,,7,,54,0
9900,note_on,,181,0,9,,,,,,,,,,,,,,,,12,,59,48
9900,note_on,,181,0,8,,,,,,,,,,,,,,,,11,,64,48
9900,note_on,,1,0,6,,,,,,,,,,,,,,,,7,,52,66
9900,note_on,,181,0,7,,,,,,,,,,,,,,,,10,,68,48
9959,note_on,,0,0,11,,,,,,,,,,,,,,,,15,,59,0
9959,note_on,,59,0,8,,,,,,,,,,,,,,,,11,,64,0
9959,note_on,,119,0,10,,,,,,,,,,,,,,,,13,,52,0
9959,note_on,,59,0,9,,,,,,,,,,,,,,,,12,,59,0
9959,note_on,,59,0,7,,,,,,,,,,,,,,,,10,,68,0
9959,note_on,,119,0,11,,,,,,,,,,,,,,,,15,,52,0
9959,note_on,,0,0,11,,,,,,,,,,,,,,,,15,,71,0
9959,note_on,,0,0,11,,,,,,,,,,,,,,,,15,,68,0
9960,note_on,,1,0,9,,,,,,,,,,,,,,,,12,,64,48
9960,note_on,,1,0,7,,,,,,,,,,,,,,,,10,,73,48
9960,note_on,,1,0,8,,,,,,,,,,,,,,,,11,,68,48
9989,note_on,,89,0,6,,,,,,,,,,,,,,,,7,,52,0
9990,note_on,,1,0,6,,,,,,,,,,,,,,,,7,,56,65
10019,note_on,,29,0,6,,,,,,,,,,,,,,,,7,,56,0
10020,note_on,,61,0,11,,,,,,,,,,,,,,,,15,,52,48
10020,note_on,,0,0,11,,,,,,,,,,,,,,,,15,,73,48
10020,note_on,,0,0,11,,,,,,,,,,,,,,,,15,,68,48
10020,note_on,,0,0,11,,,,,,,,,,,,,,,,15,,64,48
10020,note_on,,1,0,6,,,,,,,,,,,,,,,,7,,58,60
10020,note_on,,61,0,10,,,,,,,,,,,,,,,,13,,52,48
10049,note_on,,29,0,6,,,,,,,,,,,,,,,,7,,58,0
10050,note_on,,1,0,6,,,,,,,,,,,,,,,,7,,59,64
10079,note_on,,119,0,7,,,,,,,,,,,,,,,,10,,73,0
10079,note_on,,119,0,8,,,,,,,,,,,,,,,,11,,68,0
10079,note_on,,119,0,9,,,,,,,,,,,,,,,,12,,64,0
10079,note_on,,59,0,11,,,,,,,,,,,,,,,,15,,52,0
10079,note_on,,0,0,11,,,,,,,,,,,,,,,,15,,68,0
10079,note_on,,29,0,6,,,,,,,,,,,,,,,,7,,59,0
10079,note_on,,59,0,10,,,,,,,,,,,,,,,,13,,52,0
10079,note_on,,0,0,11,,,,,,,,,,,,,,,,15,,64,0
10080,note_on,,1,0,11,,,,,,,,,,,,,,,,15,,54,48
10080,note_on,,0,0,11,,,,,,,,,,,,,,,,15,,70,48
10080,note_on,,0,0,11,,,,,,,,,,,,,,,,15,,61,48
10080,note_on,,1,0,6,,,,,,,,,,,,,,,,7,,58,59
10080,note_on,,1,0,10,,,,,,,,,,,,,,,,13,,54,48
10109,note_on,,29,0,6,,,,,,,,,,,,,,,,7,,58,0
10110,note_on,,1,0,6,,,,,,,,,,,,,,,,7,,56,59
10139,note_on,,29,0,6,,,,,,,,,,,,,,,,7,,56,0
10140,note_on,,1,0,6,,,,,,,,,,,,,,,,7,,54,65
10140,note_on,,61,0,8,,,,,,,,,,,,,,,,11,,70,48
10140,note_on,,61,0,9,,,,,,,,,,,,,,,,12,,66,48
10140,note_on,,61,0,7,,,,,,,,,,,,,,,,10,,73,48
10199,note_on,,59,0,9,,,,,,,,,,,,,,,,12,,66,0
10199,note_on,,59,0,7,,,,,,,,,,,,,,,,10,,73,0
10199,note_on,,119,0,10,,,,,,,,,,,,,,,,13,,54,0
10199,note_on,,59,0,8,,,,,,,,,,,,,,,,11,,70,0
10199,note_on,,0,0,11,,,,,,,,,,,,,,,,15,,61,0
10199,note_on,,119,0,11,,,,,,,,,,,,,,,,15,,73,0
10199,note_on,,0,0,11,,,,,,,,,,,,,,,,15,,54,0
10199,note_on,,0,0,11,,,,,,,,,,,,,,,,15,,70,0
10200,note_on,,1,0,9,,,,,,,,,,,,,,,,12,,70,48
10200,note_on,,1,0,8,,,,,,,,,,,,,,,,11,,66,48
10200,note_on,,1,0,7,,,,,,,,,,,,,,,,10,,75,48
10229,note_on,,89,0,6,,,,,,,,,,,,,,,,7,,54,0
10230,note_on,,1,0,6,,,,,,,,,,,,,,,,7,,58,62
10259,note_on,,29,0,6,,,,,,,,,,,,,,,,7,,58,0
10260,note_on,,61,0,10,,,,,,,,,,,,,,,,13,,54,48
10260,note_on,,1,0,6,,,,,,,,,,,,,,,,7,,59,60
10260,note_on,,61,0,11,,,,,,,,,,,,,,,,15,,54,48
10260,note_on,,0,0,11,,,,,,,,,,,,,,,,15,,66,48
10260,note_on,,0,0,11,,,,,,,,,,,,,,,,15,,75,48
10260,note_on,,0,0,11,,,,,,,,,,,,,,,,15,,70,48
10289,note_on,,29,0,6,,,,,,,,,,,,,,,,7,,59,0
10290,note_on,,1,0,6,,,,,,,,,,,,,,,,7,,61,59
10319,note_on,,0,0,11,,,,,,,,,,,,,,,,15,,70,0
10319,note_on,,0,0,11,,,,,,,,,,,,,,,,15,,66,0
10319,note_on,,119,0,7,,,,,,,,,,,,,,,,10,,75,0
10319,note_on,,29,0,6,,,,,,,,,,,,,,,,7,,61,0
10319,note_on,,59,0,10,,,,,,,,,,,,,,,,13,,54,0
10319,note_on,,119,0,8,,,,,,,,,,,,,,,,11,,66,0
10319,note_on,,119,0,9,,,,,,,,,,,,,,,,12,,70,0
10319,note_on,,59,0,11,,,,,,,,,,,,,,,,15,,54,0
10320,note_on,,1,0,10,,,,,,,,,,,,,,,,13,,56,48
10320,note_on,,0,0,11,,,,,,,,,,,,,,,,15,,63,48
10320,note_on,,0,0,11,,,,,,,,,,,,,,,,15,,71,48
10320,note_on,,1,0,11,,,,,,,,,,,,,,,,15,,56,48
10320,note_on,,1,0,6,,,,,,,,,,,,,,,,7,,59,64
10349,note_on,,29,0,6,,,,,,,,,,,,,,,,7,,59,0
10350,note_on,,1,0,6,,,,,,,,,,,,,,,,7,,58,60
10379,note_on,,29,0,6,,,,,,,,,,,,,,,,7,,58,0
10380,note_on,,1,0,6,,,,,,,,,,,,,,,,7,,56,61
10380,note_on,,61,0,9,,,,,,,,,,,,,,,,12,,71,48
10380,note_on,,61,0,7,,,,,,,,,,,,,,,,10,,75,48
10380,note_on,,61,0,8,,,,,,,,,,,,,,,,11,,71,48
10439,note_on,,0,0,11,,,,,,,,,,,,,,,,15,,71,0
10439,note_on,,0,0,11,,,,,,,,,,,,,,,,15,,56,0
10439,note_on,,119,0,11,,,,,,,,,,,,,,,,15,,75,0
10439,note_on,,59,0,7,,,,,,,,,,,,,,,,10,,75,0
10439,note_on,,119,0,10,,,,,,,,,,,,,,,,13,,56,0
10439,note_on,,0,0,11,,,,,,,,,,,,,,,,15,,63,0
10439,note_on,,59,0,8,,,,,,,,,,,,,,,,11,,71,0
10439,note_on,,59,0,9,,,,,,,,,,,,,,,,12,,71,0
10440,note_on,,1,0,8,,,,,,,,,,,,,,,,11,,68,48
10440,note_on,,1,0,7,,,,,,,,,,,,,,,,10,,76,48
10440,note_on,,1,0,9,,,,,,,,,,,,,,,,12,,59,48
10469,note_on,,89,0,6,,,,,,,,,,,,,,,,7,,56,0
10470,note_on,,1,0,6,,,,,,,,,,,,,,,,7,,59,60
10499,note_on,,29,0,6,,,,,,,,,,,,,,,,7,,59,0
10500,note_on,,61,0,10,,,,,,,,,,,,,,,,13,,56,48
10500,note_on,,0,0,11,,,,,,,,,,,,,,,,15,,71,48
10500,note_on,,61,0,11,,,,,,,,,,,,,,,,15,,56,48
10500,note_on,,0,0,11,,,,,,,,,,,,,,,,15,,63,48
10500,note_on,,1,0,6,,,,,,,,,,,,,,,,7,,61,64
10529,note_on,,29,0,6,,,,,,,,,,,,,,,,7,,61,0
10530,note_on,,1,0,6,,,,,,,,,,,,,,,,7,,63,64
10559,note_on,,119,0,9,,,,,,,,,,,,,,,,12,,59,0
10559,note_on,,29,0,6,,,,,,,,,,,,,,,,7,,63,0
10559,note_on,,119,0,8,,,,,,,,,,,,,,,,11,,68,0
10559,note_on,,0,0,11,,,,,,,,,,,,,,,,15,,71,0
10559,note_on,,119,0,7,,,,,,,,,,,,,,,,10,,76,0
10559,note_on,,59,0,10,,,,,,,,,,,,,,,,13,,56,0
10559,note_on,,59,0,11,,,,,,,,,,,,,,,,15,,56,0
10559,note_on,,0,0,11,,,,,,,,,,,,,,,,15,,63,0
10560,note_on,,1,0,6,,,,,,,,,,,,,,,,7,,61,64
10560,note_on,,1,0,11,,,,,,,,,,,,,,,,15,,58,48
10560,note_on,,1,0,10,,,,,,,,,,,,,,,,13,,58,48
10560,note_on,,0,0,11,,,,,,,,,,,,,,,,15,,61,48
10560,note_on,,0,0,11,,,,,,,,,,,,,,,,15,,66,48
10589,note_on,,29,0,6,,,,,,,,,,,,,,,,7,,61,0
10590,note_on,,1,0,6,,,,,,,,,,,,,,,,7,,59,64
10619,note_on,,29,0,6,,,,,,,,,,,,,,,,7,,59,0
10620,note_on,,61,0,9,,,,,,,,,,,,,,,,12,,66,48
10620,note_on,,61,0,8,,,,,,,,,,,,,,,,11,,73,48
10620,note_on,,61,0,7,,,,,,,,,,,,,,,,10,,73,48
10620,note_on,,1,0,6,,,,,,,,,,,,,,,,7,,58,58
10679,note_on,,119,0,11,,,,,,,,,,,,,,,,15,,58,0
10679,note_on,,0,0,11,,,,,,,,,,,,,,,,15,,66,0
10679,note_on,,0,0,11,,,,,,,,,,,,,,,,15,,61,0
10679,note_on,,59,0,8,,,,,,,,,,,,,,,,11,,73,0
10679,note_on,,59,0,7,,,,,,,,,,,,,,,,10,,73,0
10679,note_on,,119,0,10,,,,,,,,,,,,,,,,13,,58,0
10679,note_on,,59,0,9,,,,,,,,,,,,,,,,12,,66,0
10680,note_on,,1,0,7,,,,,,,,,,,,,,,,10,,78,48
10680,note_on,,1,0,8,,,,,,,,,,,,,,,,11,,70,48
10680,note_on,,1,0,9,,,,,,,,,,,,,,,,12,,73,48
10709,note_on,,89,0,6,,,,,,,,,,,,,,,,7,,58,0
10710,note_on,,1,0,6,,,,,,,,,,,,,,,,7,,61,61
10739,note_on,,29,0,6,,,,,,,,,,,,,,,,7,,61,0
10740,note_on,,0,0,11,,,,,,,,,,,,,,,,15,,61,48
10740,note_on,,1,0,6,,,,,,,,,,,,,,,,7,,63,67
10740,note_on,,0,0,11,,,,,,,,,,,,,,,,15,,66,48
10740,note_on,,61,0,11,,,,,,,,,,,,,,,,15,,58,48
10740,note_on,,61,0,10,,,,,,,,,,,,,,,,13,,58,48
10769,note_on,,29,0,6,,,,,,,,,,,,,,,,7,,63,0
10770,note_on,,1,0,6,,,,,,,,,,,,,,,,7,,64,61
10799,note_on,,29,0,6,,,,,,,,,,,,,,,,7,,64,0
10799,note_on,,59,0,10,,,,,,,,,,,,,,,,13,,58,0
10799,note_on,,119,0,7,,,,,,,,,,,,,,,,10,,78,0
10799,note_on,,119,0,8,,,,,,,,,,,,,,,,11,,70,0
10799,note_on,,59,0,11,,,,,,,,,,,,,,,,15,,58,0
10799,note_on,,0,0,11,,,,,,,,,,,,,,,,15,,61,0
10799,note_on,,119,0,9,,,,,,,,,,,,,,,,12,,73,0
10800,note_on,,1,0,6,,,,,,,,,,,,,,,,7,,63,61
10800,note_on,,0,0,11,,,,,,,,,,,,,,,,15,,63,48
10800,note_on,,1,0,11,,,,,,,,,,,,,,,,15,,59,48
10800,note_on,,1,0,10,,,,,,,,,,,,,,,,13,,59,48
10829,note_on,,29,0,6,,,,,,,,,,,,,,,,7,,63,0
10830,note_on,,1,0,6,,,,,,,,,,,,,,,,7,,61,59
10859,note_on,,59,0,10,,,,,,,,,,,,,,,,13,,59,0
10859,note_on,,59,0,11,,,,,,,,,,,,,,,,15,,59,0
10859,note_on,,29,0,6,,,,,,,,,,,,,,,,7,,61,0
10860,note_on,,1,0,6,,,,,,,,,,,,,,,,7,,59,61
10860,note_on,,1,0,10,,,,,,,,,,,,,,,,13,,51,48
10860,note_on,,1,0,11,,,,,,,,,,,,,,,,15,,51,48
10889,note_on,,29,0,6,,,,,,,,,,,,,,,,7,,59,0
10890,note_on,,1,0,6,,,,,,,,,,,,,,,,7,,63,60
10919,note_on,,59,0,11,,,,,,,,,,,,,,,,15,,66,0
10919,note_on,,0,0,11,,,,,,,,,,,,,,,,15,,51,0
10919,note_on,,29,0,6,,,,,,,,,,,,,,,,7,,63,0
10919,note_on,,0,0,11,,,,,,,,,,,,,,,,15,,63,0
10919,note_on,,59,0,10,,,,,,,,,,,,,,,,13,,51,0
10920,note_on,,0,0,11,,,,,,,,,,,,,,,,15,,64,48
10920,note_on,,0,0,11,,,,,,,,,,,,,,,,15,,70,48
10920,note_on,,1,0,11,,,,,,,,,,,,,,,,15,,49,48
10920,note_on,,1,0,10,,,,,,,,,,,,,,,,13,,49,48
10920,note_on,,1,0,6,,,,,,,,,,,,,,,,7,,64,67
10949,note_on,,29,0,6,,,,,,,,,,,,,,,,7,,64,0
10950,note_on,,1,0,6,,,,,,,,,,,,,,,,7,,63,60
10979,note_on,,29,0,6,,,,,,,,,,,,,,,,7,,63,0
10979,note_on,,59,0,10,,,,,,,,,,,,,,,,13,,49,0
10979,note_on,,59,0,11,,,,,,,,,,,,,,,,15,,49,0
10980,note_on,,1,0,11,,,,,,,,,,,,,,,,15,,54,48
10980,note_on,,1,0,10,,,,,,,,,,,,,,,,13,,54,48
10980,note_on,,1,0,6,,,,,,,,,,,,,,,,7,,61,60
11009,note_on,,29,0,6,,,,,,,,,,,,,,,,7,,61,0
11010,note_on,,1,0,6,,,,,,,,,,,,,,,,7,,64,64
11039,note_on,,59,0,11,,,,,,,,,,,,,,,,15,,70,0
11039,note_on,,0,0,11,,,,,,,,,,,,,,,,15,,64,0
11039,note_on,,59,0,10,,,,,,,,,,,,,,,,13,,54,0
11039,note_on,,0,0,11,,,,,,,,,,,,,,,,15,,54,0
11039,note_on,,29,0,6,,,,,,,,,,,,,,,,7,,64,0
11040,note_on,,241,0,9,,,,,,,,,,,,,,,,12,,66,48
11040,note_on,,1,0,10,,,,,,,,,,,,,,,,13,,51,48
11040,note_on,,1,0,11,,,,,,,,,,,,,,,,15,,51,48
11040,note_on,,241,0,7,,,,,,,,,,,,,,,,10,,71,48
11040,note_on,,0,0,11,,,,,,,,,,,,,,,,15,,71,48
11040,note_on,,1,0,6,,,,,,,,,,,,,,,,7,,66,65
11040,note_on,,241,0,8,,,,,,,,,,,,,,,,11,,59,48
11040,note_on,,0,0,11,,,,,,,,,,,,,,,,15,,66,48
11040,note_on,,0,0,11,,,,,,,,,,,,,,,,15,,59,48
11099,note_on,,59,0,6,,,,,,,,,,,,,,,,7,,66,0
11099,note_on,,59,0,8,,,,,,,,,,,,,,,,11,,59,0
11100,note_on,,1,0,6,,,,,,,,,,,,,,,,7,,59,64
11100,note_on,,1,0,8,,,,,,,,,,,,,,,,11,,71,48
11159,note_on,,59,0,6,,,,,,,,,,,,,,,,7,,59,0
11159,note_on,,0,0,11,,,,,,,,,,,,,,,,15,,71,0
11159,note_on,,0,0,11,,,,,,,,,,,,,,,,15,,66,0
11159,note_on,,119,0,9,,,,,,,,,,,,,,,,12,,66,0
11159,note_on,,119,0,7,,,,,,,,,,,,,,,,10,,71,0
11159,note_on,,119,0,10,,,,,,,,,,,,,,,,13,,51,0
11159,note_on,,119,0,11,,,,,,,,,,,,,,,,15,,51,0
11159,note_on,,0,0,11,,,,,,,,,,,,,,,,15,,59,0
11160,note_on,,1,0,9,,,,,,,,,,,,,,,,12,,68,48
11160,note_on,,0,0,11,,,,,,,,,,,,,,,,15,,64,48
11160,note_on,,1,0,10,,,,,,,,,,,,,,,,13,,52,48
11160,note_on,,1,0,7,,,,,,,,,,,,,,,,10,,73,48
11160,note_on,,1,0,11,,,,,,,,,,,,,,,,15,,52,48
11160,note_on,,0,0,11,,,,,,,,,,,,,,,,15,,68,48
11160,note_on,,0,0,11,,,,,,,,,,,,,,,,15,,59,48
11219,note_on,,59,0,9,,,,,,,,,,,,,,,,12,,68,0
11219,note_on,,0,0,11,,,,,,,,,,,,,,,,15,,59,0
11219,note_on,,59,0,10,,,,,,,,,,,,,,,,13,,52,0
11219,note_on,,0,0,11,,,,,,,,,,,,,,,,15,,64,0
11219,note_on,,59,0,11,,,,,,,,,,,,,,,,15,,52,0
11219,note_on,,0,0,11,,,,,,,,,,,,,,,,15,,68,0
11219,note_on,,119,0,8,,,,,,,,,,,,,,,,11,,71,0
11220,note_on,,1,0,11,,,,,,,,,,,,,,,,15,,54,48
11220,note_on,,0,0,11,,,,,,,,,,,,,,,,15,,61,48
11220,note_on,,0,0,11,,,,,,,,,,,,,,,,15,,66,48
11220,note_on,,1,0,10,,,,,,,,,,,,,,,,13,,54,48
11220,note_on,,0,0,11,,,,,,,,,,,,,,,,15,,58,48
11220,note_on,,1,0,8,,,,,,,,,,,,,,,,11,,70,48
11220,note_on,,1,0,9,,,,,,,,,,,,,,,,12,,66,48
11279,note_on,,59,0,10,,,,,,,,,,,,,,,,13,,54,0
11279,note_on,,59,0,11,,,,,,,,,,,,,,,,15,,54,0
11279,note_on,,0,0,11,,,,,,,,,,,,,,,,15,,58,0
11279,note_on,,0,0,11,,,,,,,,,,,,,,,,15,,61,0
11279,note_on,,59,0,8,,,,,,,,,,,,,,,,11,,70,0
11279,note_on,,0,0,11,,,,,,,,,,,,,,,,15,,66,0
11279,note_on,,119,0,7,,,,,,,,,,,,,,,,10,,73,0
11279,note_on,,59,0,9,,,,,,,,,,,,,,,,12,,66,0
11280,note_on,,0,0,11,,,,,,,,,,,,,,,,15,,66,48
11280,note_on,,1,0,11,,,,,,,,,,,,,,,,15,,47,48
11280,note_on,,1,0,9,,,,,,,,,,,,,,,,12,,66,48
11280,note_on,,1,0,8,,,,,,,,,,,,,,,,11,,71,48
11280,note_on,,1,0,7,,,,,,,,,,,,,,,,10,,75,48
11280,note_on,,1,0,10,,,,,,,,,,,,,,,,13,,47,48
11280,note_on,,0,0,11,,,,,,,,,,,,,,,,15,,59,48
11280,note_on,,0,0,11,,,,,,,,,,,,,,,,15,,63,48
11340,note_on,,181,0,6,,,,,,,,,,,,,,,,7,,54,60
11369,note_on,,89,0,7,,,,,,,,,,,,,,,,10,,75,0
11369,note_on,,89,0,8,,,,,,,,,,,,,,,,11,,71,0
11370,note_on,,1,0,7,,,,,,,,,,,,,,,,10,,78,48
11370,note_on,,1,0,8,,,,,,,,,,,,,,,,11,,75,48
11399,note_on,,119,0,9,,,,,,,,,,,,,,,,12,,66,0
11399,note_on,,29,0,7,,,,,,,,,,,,,,,,10,,78,0
11399,note_on,,59,0,6,,,,,,,,,,,,,,,,7,,54,0
11399,note_on,,119,0,11,,,,,,,,,,,,,,,,15,,47,0
11399,note_on,,0,0,11,,,,,,,,,,,,,,,,15,,66,0
11399,note_on,,119,0,10,,,,,,,,,,,,,,,,13,,47,0
11399,note_on,,0,0,11,,,,,,,,,,,,,,,,15,,63,0
11399,note_on,,0,0,11,,,,,,,,,,,,,,,,15,,59,0
11399,note_on,,29,0,8,,,,,,,,,,,,,,,,11,,75,0
11400,note_on,,1,0,8,,,,,,,,,,,,,,,,11,,75,48
11400,note_on,,1,0,6,,,,,,,,,,,,,,,,7,,59,65
11400,note_on,,1,0,7,,,,,,,,,,,,,,,,10,,78,48
11459,note_on,,59,0,6,,,,,,,,,,,,,,,,7,,59,0
11460,note_on,,1,0,6,,,,,,,,,,,,,,,,7,,63,61
11460,note_on,,0,0,11,,,,,,,,,,,,,,,,15,,66,48
11460,note_on,,0,0,11,,,,,,,,,,,,,,,,15,,63,48
11460,note_on,,61,0,10,,,,,,,,,,,,,,,,13,,59,48
11460,note_on,,61,0,11,,,,,,,,,,,,,,,,15,,59,48
11519,note_on,,59,0,10,,,,,,,,,,,,,,,,13,,59,0
11519,note_on,,59,0,6,,,,,,,,,,,,,,,,7,,63,0
11519,note_on,,0,0,11,,,,,,,,,,,,,,,,15,,63,0
11519,note_on,,119,0,8,,,,,,,,,,,,,,,,11,,75,0
11519,note_on,,59,0,11,,,,,,,,,,,,,,,,15,,59,0
11519,note_on,,119,0,7,,,,,,,,,,,,,,,,10,,78,0
11520,note_on,,1,0,10,,,,,,,,,,,,,,,,13,,58,48
11520,note_on,,1,0,11,,,,,,,,,,,,,,,,15,,61,48
11520,note_on,,1,0,6,,,,,,,,,,,,,,,,7,,66,65
11520,note_on,,0,0,11,,,,,,,,,,,,,,,,15,,58,48
11579,note_on,,59,0,11,,,,,,,,,,,,,,,,15,,61,0
11579,note_on,,59,0,10,,,,,,,,,,,,,,,,13,,58,0
11579,note_on,,0,0,11,,,,,,,,,,,,,,,,15,,58,0
11580,note_on,,0,0,11,,,,,,,,,,,,,,,,15,,59,48
11580,note_on,,1,0,11,,,,,,,,,,,,,,,,15,,56,48
11580,note_on,,1,0,10,,,,,,,,,,,,,,,,13,,56,48
11639,note_on,,59,0,10,,,,,,,,,,,,,,,,13,,56,0
11639,note_on,,0,0,11,,,,,,,,,,,,,,,,15,,59,0
11639,note_on,,59,0,11,,,,,,,,,,,,,,,,15,,56,0
11639,note_on,,119,0,6,,,,,,,,,,,,,,,,7,,66,0
11640,note_on,,0,0,11,,,,,,,,,,,,,,,,15,,61,48
11640,note_on,,1,0,6,,,,,,,,,,,,,,,,7,,54,58
11640,note_on,,1,0,10,,,,,,,,,,,,,,,,13,,58,48
11640,note_on,,1,0,11,,,,,,,,,,,,,,,,15,,58,48
11699,note_on,,0,0,11,,,,,,,,,,,,,,,,15,,61,0
11699,note_on,,0,0,11,,,,,,,,,,,,,,,,15,,58,0
11699,note_on,,59,0,11,,,,,,,,,,,,,,,,15,,66,0
11699,note_on,,59,0,6,,,,,,,,,,,,,,,,7,,54,0
11699,note_on,,59,0,10,,,,,,,,,,,,,,,,13,,58,0
11700,note_on,,1,0,10,,,,,,,,,,,,,,,,13,,54,48
11700,note_on,,0,0,11,,,,,,,,,,,,,,,,15,,70,48
11700,note_on,,0,0,11,,,,,,,,,,,,,,,,15,,61,48
11700,note_on,,1,0,6,,,,,,,,,,,,,,,,7,,64,65
11700,note_on,,1,0,11,,,,,,,,,,,,,,,,15,,54,48
11759,note_on,,0,0,11,,,,,,,,,,,,,,,,15,,70,0
11759,note_on,,0,0,11,,,,,,,,,,,,,,,,15,,61,0
11759,note_on,,59,0,11,,,,,,,,,,,,,,,,15,,54,0
11759,note_on,,59,0,10,,,,,,,,,,,,,,,,13,,54,0
11759,note_on,,59,0,6,,,,,,,,,,,,,,,,7,,64,0
11760,note_on,,1,0,10,,,,,,,,,,,,,,,,13,,59,48
11760,note_on,,1,0,6,,,,,,,,,,,,,,,,7,,63,64
11760,note_on,,1,0,11,,,,,,,,,,,,,,,,15,,59,48
11760,note_on,,0,0,11,,,,,,,,,,,,,,,,15,,71,48
11760,note_on,,0,0,11,,,,,,,,,,,,,,,,15,,63,48
11819,note_on,,59,0,10,,,,,,,,,,,,,,,,13,,59,0
11819,note_on,,59,0,6,,,,,,,,,,,,,,,,7,,63,0
11819,note_on,,59,0,11,,,,,,,,,,,,,,,,15,,59,0
11820,note_on,,1,0,10,,,,,,,,,,,,,,,,13,,47,48
11820,note_on,,1,0,6,,,,,,,,,,,,,,,,7,,64,59
11820,note_on,,1,0,11,,,,,,,,,,,,,,,,15,,47,48
11849,note_on,,29,0,6,,,,,,,,,,,,,,,,7,,64,0
11850,note_on,,1,0,6,,,,,,,,,,,,,,,,7,,63,65
11879,note_on,,0,0,11,,,,,,,,,,,,,,,,15,,47,0
11879,note_on,,59,0,11,,,,,,,,,,,,,,,,15,,63,0
11879,note_on,,29,0,6,,,,,,,,,,,,,,,,7,,63,0
11879,note_on,,59,0,10,,,,,,,,,,,,,,,,13,,47,0
11880,note_on,,0,0,11,,,,,,,,,,,,,,,,15,,64,48
11880,note_on,,1,0,11,,,,,,,,,,,,,,,,15,,49,48
11880,note_on,,1,0,10,,,,,,,,,,,,,,,,13,,49,48
11880,note_on,,1,0,6,,,,,,,,,,,,,,,,7,,61,61
11939,note_on,,59,0,10,,,,,,,,,,,,,,,,13,,49,0
11939,note_on,,59,0,6,,,,,,,,,,,,,,,,7,,61,0
11939,note_on,,59,0,11,,,,,,,,,,,,,,,,15,,49,0
11939,note_on,,0,0,11,,,,,,,,,,,,,,,,15,,64,0
11940,note_on,,1,0,6,,,,,,,,,,,,,,,,7,,59,64
11940,note_on,,0,0,11,,,,,,,,,,,,,,,,15,,68,48
11940,note_on,,1,0,10,,,,,,,,,,,,,,,,13,,52,48
11940,note_on,,1,0,11,,,,,,,,,,,,,,,,15,,52,48
11999,note_on,,0,0,11,,,,,,,,,,,,,,,,15,,68,0
11999,note_on,,0,0,11,,,,,,,,,,,,,,,,15,,52,0
11999,note_on,,59,0,11,,,,,,,,,,,,,,,,15,,71,0
11999,note_on,,59,0,10,,,,,,,,,,,,,,,,13,,52,0
11999,note_on,,59,0,6,,,,,,,,,,,,,,,,7,,59,0
12000,note_on,,1,0,6,,,,,,,,,,,,,,,,7,,54,66
12000,note_on,,1,0,10,,,,,,,,,,,,,,,,13,,42,48
12000,note_on,,1,0,11,,,,,,,,,,,,,,,,15,,42,48
12000,note_on,,0,0,11,,,,,,,,,,,,,,,,15,,70,48
12000,note_on,,0,0,11,,,,,,,,,,,,,,,,15,,66,48
12000,note_on,,0,0,11,,,,,,,,,,,,,,,,15,,61,48
12060,note_on,,661,0,9,,,,,,,,,,,,,,,,12,,66,48
12060,note_on,,541,0,7,,,,,,,,,,,,,,,,10,,73,48
12060,note_on,,541,0,8,,,,,,,,,,,,,,,,11,,70,48
12119,note_on,,59,0,8,,,,,,,,,,,,,,,,11,,70,0
12119,note_on,,59,0,7,,,,,,,,,,,,,,,,10,,73,0
12119,note_on,,59,0,9,,,,,,,,,,,,,,,,12,,66,0
12120,note_on,,1,0,8,,,,,,,,,,,,,,,,11,,71,48
12120,note_on,,1,0,7,,,,,,,,,,,,,,,,10,,75,48
12120,note_on,,1,0,9,,,,,,,,,,,,,,,,12,,66,48
12179,note_on,,59,0,7,,,,,,,,,,,,,,,,10,,75,0
12179,note_on,,59,0,8,,,,,,,,,,,,,,,,11,,71,0
12179,note_on,,59,0,9,,,,,,,,,,,,,,,,12,,66,0
12180,note_on,,1,0,9,,,,,,,,,,,,,,,,12,,66,48
12180,note_on,,1,0,7,,,,,,,,,,,,,,,,10,,73,48
12180,note_on,,1,0,8,,,,,,,,,,,,,,,,11,,70,48
12239,note_on,,59,0,7,,,,,,,,,,,,,,,,10,,73,0
12239,note_on,,59,0,8,,,,,,,,,,,,,,,,11,,70,0
12239,note_on,,0,0,11,,,,,,,,,,,,,,,,15,,61,0
12239,note_on,,0,0,11,,,,,,,,,,,,,,,,15,,66,0
12239,note_on,,239,0,11,,,,,,,,,,,,,,,,15,,42,0
12239,note_on,,59,0,9,,,,,,,,,,,,,,,,12,,66,0
12239,note_on,,239,0,10,,,,,,,,,,,,,,,,13,,42,0
12239,note_on,,239,0,6,,,,,,,,,,,,,,,,7,,54,0
12239,note_on,,0,0,11,,,,,,,,,,,,,,,,15,,70,0
12240,note_on,,1,0,7,,,,,,,,,,,,,,,,10,,75,48
12240,note_on,,1,0,9,,,,,,,,,,,,,,,,12,,66,48
12240,note_on,,1,0,8,,,,,,,,,,,,,,,,11,,71,48
12299,note_on,,59,0,7,,,,,,,,,,,,,,,,10,,75,0
12299,note_on,,59,0,9,,,,,,,,,,,,,,,,12,,66,0
12299,note_on,,59,0,8,,,,,,,,,,,,,,,,11,,71,0
12300,note_on,,1,0,7,,,,,,,,,,,,,,,,10,,73,48
12300,note_on,,1,0,8,,,,,,,,,,,,,,,,11,,70,48
12300,note_on,,1,0,9,,,,,,,,,,,,,,,,12,,66,48
12359,note_on,,59,0,8,,,,,,,,,,,,,,,,11,,70,0
12359,note_on,,59,0,7,,,,,,,,,,,,,,,,10,,73,0
12359,note_on,,59,0,9,,,,,,,,,,,,,,,,12,,66,0
12360,note_on,,1,0,7,,,,,,,,,,,,,,,,10,,75,48
12360,note_on,,1,0,8,,,,,,,,,,,,,,,,11,,71,48
12360,note_on,,1,0,9,,,,,,,,,,,,,,,,12,,66,48
12419,note_on,,59,0,7,,,,,,,,,,,,,,,,10,,75,0
12419,note_on,,59,0,8,,,,,,,,,,,,,,,,11,,71,0
12419,note_on,,59,0,9,,,,,,,,,,,,,,,,12,,66,0
12420,note_on,,1,0,9,,,,,,,,,,,,,,,,12,,66,48
12420,note_on,,1,0,8,,,,,,,,,,,,,,,,11,,70,48
12420,note_on,,1,0,7,,,,,,,,,,,,,,,,10,,73,48
12479,note_on,,59,0,9,,,,,,,,,,,,,,,,12,,66,0
12479,note_on,,59,0,8,,,,,,,,,,,,,,,,11,,70,0
12479,note_on,,59,0,7,,,,,,,,,,,,,,,,10,,73,0
12480,note_on,,1,0,8,,,,,,,,,,,,,,,,11,,71,48
12480,note_on,,1,0,7,,,,,,,,,,,,,,,,10,,75,48
12480,note_on,,1,0,9,,,,,,,,,,,,,,,,12,,66,48
12539,note_on,,59,0,7,,,,,,,,,,,,,,,,10,,75,0
12539,note_on,,59,0,8,,,,,,,,,,,,,,,,11,,71,0
12539,note_on,,59,0,9,,,,,,,,,,,,,,,,12,,66,0
12540,note_on,,1,0,8,,,,,,,,,,,,,,,,11,,70,48
12540,note_on,,1,0,9,,,,,,,,,,,,,,,,12,,66,48
12540,note_on,,1,0,7,,,,,,,,,,,,,,,,10,,73,48
12599,note_on,,59,0,8,,,,,,,,,,,,,,,,11,,70,0
12599,note_on,,59,0,9,,,,,,,,,,,,,,,,12,,66,0
12599,note_on,,59,0,7,,,,,,,,,,,,,,,,10,,73,0
12660,note_on,,421,0,10,,,,,,,,,,,,,,,,13,,51,48
12660,note_on,,421,0,6,,,,,,,,,,,,,,,,7,,59,64
12660,note_on,,421,0,11,,,,,,,,,,,,,,,,15,,51,48
12660,note_on,,0,0,11,,,,,,,,,,,,,,,,15,,59,48
12660,note_on,,0,0,11,,,,,,,,,,,,,,,,15,,54,48
12719,note_on,,59,0,10,,,,,,,,,,,,,,,,13,,51,0
12719,note_on,,59,0,11,,,,,,,,,,,,,,,,15,,51,0
12719,note_on,,59,0,6,,,,,,,,,,,,,,,,7,,59,0
12719,note_on,,0,0,11,,,,,,,,,,,,,,,,15,,54,0
12719,note_on,,0,0,11,,,,,,,,,,,,,,,,15,,59,0
12720,note_on,,0,0,11,,,,,,,,,,,,,,,,15,,61,48
12720,note_on,,0,0,11,,,,,,,,,,,,,,,,15,,56,48
12720,note_on,,1,0,11,,,,,,,,,,,,,,,,15,,52,48
12720,note_on,,1,0,6,,,,,,,,,,,,,,,,7,,61,62
12720,note_on,,1,0,10,,,,,,,,,,,,,,,,13,,52,48
12779,note_on,,59,0,6,,,,,,,,,,,,,,,,7,,61,0
12779,note_on,,59,0,10,,,,,,,,,,,,,,,,13,,52,0
12779,note_on,,59,0,11,,,,,,,,,,,,,,,,15,,52,0
12779,note_on,,0,0,11,,,,,,,,,,,,,,,,15,,61,0
12779,note_on,,0,0,11,,,,,,,,,,,,,,,,15,,56,0
12780,note_on,,0,0,11,,,,,,,,,,,,,,,,15,,59,48
12780,note_on,,0,0,11,,,,,,,,,,,,,,,,15,,54,48
12780,note_on,,1,0,10,,,,,,,,,,,,,,,,13,,51,48
12780,note_on,,1,0,11,,,,,,,,,,,,,,,,15,,51,48
12780,note_on,,1,0,6,,,,,,,,,,,,,,,,7,,59,58
12839,note_on,,59,0,10,,,,,,,,,,,,,,,,13,,51,0
12839,note_on,,59,0,6,,,,,,,,,,,,,,,,7,,59,0
12839,note_on,,59,0,11,,,,,,,,,,,,,,,,15,,51,0
12839,note_on,,0,0,11,,,,,,,,,,,,,,,,15,,59,0
12839,note_on,,0,0,11,,,,,,,,,,,,,,,,15,,54,0
12840,note_on,,0,0,11,,,,,,,,,,,,,,,,15,,61,48
12840,note_on,,1,0,10,,,,,,,,,,,,,,,,13,,52,48
12840,note_on,,1,0,11,,,,,,,,,,,,,,,,15,,52,48
12840,note_on,,1,0,6,,,,,,,,,,,,,,,,7,,61,64
12840,note_on,,0,0,11,,,,,,,,,,,,,,,,15,,56,48
12899,note_on,,0,0,11,,,,,,,,,,,,,,,,15,,56,0
12899,note_on,,0,0,11,,,,,,,,,,,,,,,,15,,61,0
12899,note_on,,59,0,11,,,,,,,,,,,,,,,,15,,52,0
12899,note_on,,59,0,10,,,,,,,,,,,,,,,,13,,52,0
12899,note_on,,59,0,6,,,,,,,,,,,,,,,,7,,61,0
12900,note_on,,1,0,6,,,,,,,,,,,,,,,,7,,59,64
12900,note_on,,1,0,11,,,,,,,,,,,,,,,,15,,51,48
12900,note_on,,0,0,11,,,,,,,,,,,,,,,,15,,59,48
12900,note_on,,0,0,11,,,,,,,,,,,,,,,,15,,54,48
12900,note_on,,1,0,10,,,,,,,,,,,,,,,,13,,51,48
12959,note_on,,59,0,10,,,,,,,,,,,,,,,,13,,51,0
12959,note_on,,59,0,6,,,,,,,,,,,,,,,,7,,59,0
12959,note_on,,0,0,11,,,,,,,,,,,,,,,,15,,59,0
12959,note_on,,0,0,11,,,,,,,,,,,,,,,,15,,54,0
12959,note_on,,59,0,11,,,,,,,,,,,,,,,,15,,51,0
12960,note_on,,1,0,11,,,,,,,,,,,,,,,,15,,59,48
12960,note_on,,0,0,11,,,,,,,,,,,,,,,,15,,52,48
12960,note_on,,0,0,11,,,,,,,,,,,,,,,,15,,56,48
12960,note_on,,1,0,10,,,,,,,,,,,,,,,,13,,52,48
12960,note_on,,1,0,6,,,,,,,,,,,,,,,,7,,59,61
13019,note_on,,59,0,10,,,,,,,,,,,,,,,,13,,52,0
13019,note_on,,59,0,11,,,,,,,,,,,,,,,,15,,52,0
13019,note_on,,0,0,11,,,,,,,,,,,,,,,,15,,56,0
13020,note_on,,0,0,11,,,,,,,,,,,,,,,,15,,54,48
13020,note_on,,1,0,10,,,,,,,,,,,,,,,,13,,51,48
13020,note_on,,1,0,11,,,,,,,,,,,,,,,,15,,51,48
13079,note_on,,59,0,10,,,,,,,,,,,,,,,,13,,51,0
13079,note_on,,0,0,11,,,,,,,,,,,,,,,,15,,51,0
13079,note_on,,59,0,11,,,,,,,,,,,,,,,,15,,59,0
13079,note_on,,0,0,11,,,,,,,,,,,,,,,,15,,54,0
13140,note_on,,541,0,7,,,,,,,,,,,,,,,,10,,83,48
13140,note_on,,541,0,8,,,,,,,,,,,,,,,,11,,75,48
13199,note_on,,59,0,8,,,,,,,,,,,,,,,,11,,75,0
13199,note_on,,59,0,7,,,,,,,,,,,,,,,,10,,83,0
13199,note_on,,239,0,6,,,,,,,,,,,,,,,,7,,59,0
13200,note_on,,1,0,8,,,,,,,,,,,,,,,,11,,76,48
13200,note_on,,1,0,7,,,,,,,,,,,,,,,,10,,85,48
13259,note_on,,59,0,7,,,,,,,,,,,,,,,,10,,85,0
13259,note_on,,59,0,8,,,,,,,,,,,,,,,,11,,76,0
13260,note_on,,1,0,8,,,,,,,,,,,,,,,,11,,75,48
13260,note_on,,1,0,7,,,,,,,,,,,,,,,,10,,83,48
13319,note_on,,59,0,7,,,,,,,,,,,,,,,,10,,83,0
13319,note_on,,59,0,8,,,,,,,,,,,,,,,,11,,75,0
13320,note_on,,1,0,7,,,,,,,,,,,,,,,,10,,85,48
13320,note_on,,1,0,8,,,,,,,,,,,,,,,,11,,76,48
13379,note_on,,59,0,7,,,,,,,,,,,,,,,,10,,85,0
13379,note_on,,59,0,8,,,,,,,,,,,,,,,,11,,76,0
13380,note_on,,1,0,7,,,,,,,,,,,,,,,,10,,83,48
13380,note_on,,1,0,8,,,,,,,,,,,,,,,,11,,75,48
13380,note_on,,781,0,9,,,,,,,,,,,,,,,,12,,59,48
13439,note_on,,59,0,7,,,,,,,,,,,,,,,,10,,83,0
13439,note_on,,59,0,8,,,,,,,,,,,,,,,,11,,75,0
13439,note_on,,59,0,9,,,,,,,,,,,,,,,,12,,59,0
13440,note_on,,1,0,9,,,,,,,,,,,,,,,,12,,64,48
13440,note_on,,1,0,7,,,,,,,,,,,,,,,,10,,83,48
13440,note_on,,1,0,8,,,,,,,,,,,,,,,,11,,80,48
13499,note_on,,59,0,9,,,,,,,,,,,,,,,,12,,64,0
13499,note_on,,59,0,8,,,,,,,,,,,,,,,,11,,80,0
13500,note_on,,1,0,9,,,,,,,,,,,,,,,,12,,63,48
13500,note_on,,1,0,8,,,,,,,,,,,,,,,,11,,78,48
13559,note_on,,59,0,9,,,,,,,,,,,,,,,,12,,63,0
13559,note_on,,59,0,8,,,,,,,,,,,,,,,,11,,78,0
13560,note_on,,361,0,6,,,,,,,,,,,,,,,,7,,59,64
13619,note_on,,179,0,7,,,,,,,,,,,,,,,,10,,83,0
13619,note_on,,59,0,6,,,,,,,,,,,,,,,,7,,59,0
13620,note_on,,61,0,9,,,,,,,,,,,,,,,,12,,71,48
13620,note_on,,61,0,8,,,,,,,,,,,,,,,,11,,75,48
13620,note_on,,1,0,6,,,,,,,,,,,,,,,,7,,59,65
13620,note_on,,541,0,11,,,,,,,,,,,,,,,,15,,47,48
13620,note_on,,0,0,11,,,,,,,,,,,,,,,,15,,66,48
13620,note_on,,1,0,7,,,,,,,,,,,,,,,,10,,78,48
13620,note_on,,541,0,10,,,,,,,,,,,,,,,,13,,47,48
13620,note_on,,0,0,11,,,,,,,,,,,,,,,,15,,59,48
13620,note_on,,0,0,11,,,,,,,,,,,,,,,,15,,63,48
13679,note_on,,59,0,6,,,,,,,,,,,,,,,,7,,59,0
13679,note_on,,59,0,9,,,,,,,,,,,,,,,,12,,71,0
13679,note_on,,0,0,11,,,,,,,,,,,,,,,,15,,59,0
13679,note_on,,59,0,8,,,,,,,,,,,,,,,,11,,75,0
13679,note_on,,0,0,11,,,,,,,,,,,,,,,,15,,63,0
13679,note_on,,0,0,11,,,,,,,,,,,,,,,,15,,66,0
13679,note_on,,59,0,11,,,,,,,,,,,,,,,,15,,47,0
13679,note_on,,59,0,10,,,,,,,,,,,,,,,,13,,47,0
13679,note_on,,59,0,7,,,,,,,,,,,,,,,,10,,78,0
13680,note_on,,1,0,10,,,,,,,,,,,,,,,,13,,52,48
13680,note_on,,1,0,8,,,,,,,,,,,,,,,,11,,76,48
13680,note_on,,0,0,11,,,,,,,,,,,,,,,,15,,59,48
13680,note_on,,1,0,9,,,,,,,,,,,,,,,,12,,71,48
13680,note_on,,1,0,11,,,,,,,,,,,,,,,,15,,52,48
13680,note_on,,1,0,6,,,,,,,,,,,,,,,,7,,59,58
13680,note_on,,0,0,11,,,,,,,,,,,,,,,,15,,64,48
13680,note_on,,0,0,11,,,,,,,,,,,,,,,,15,,68,48
13680,note_on,,1,0,7,,,,,,,,,,,,,,,,10,,80,48
13739,note_on,,59,0,11,,,,,,,,,,,,,,,,15,,52,0
13739,note_on,,59,0,10,,,,,,,,,,,,,,,,13,,52,0
13739,note_on,,59,0,9,,,,,,,,,,,,,,,,12,,71,0
13739,note_on,,59,0,7,,,,,,,,,,,,,,,,10,,80,0
13739,note_on,,0,0,11,,,,,,,,,,,,,,,,15,,64,0
13739,note_on,,59,0,8,,,,,,,,,,,,,,,,11,,76,0
13739,note_on,,0,0,11,,,,,,,,,,,,,,,,15,,68,0
13740,note_on,,1,0,9,,,,,,,,,,,,,,,,12,,71,48
13740,note_on,,1,0,11,,,,,,,,,,,,,,,,15,,47,48
13740,note_on,,0,0,11,,,,,,,,,,,,,,,,15,,66,48
13740,note_on,,1,0,8,,,,,,,,,,,,,,,,11,,75,48
13740,note_on,,1,0,7,,,,,,,,,,,,,,,,10,,78,48
13740,note_on,,1,0,10,,,,,,,,,,,,,,,,13,,47,48
13740,note_on,,0,0,11,,,,,,,,,,,,,,,,15,,63,48
13799,note_on,,59,0,10,,,,,,,,,,,,,,,,13,,47,0
13799,note_on,,59,0,7,,,,,,,,,,,,,,,,10,,78,0
13799,note_on,,0,0,11,,,,,,,,,,,,,,,,15,,63,0
13799,note_on,,0,0,11,,,,,,,,,,,,,,,,15,,66,0
13799,note_on,,59,0,11,,,,,,,,,,,,,,,,15,,47,0
13799,note_on,,59,0,9,,,,,,,,,,,,,,,,12,,71,0
13799,note_on,,59,0,8,,,,,,,,,,,,,,,,11,,75,0
13799,note_on,,119,0,6,,,,,,,,,,,,,,,,7,,59,0
13800,note_on,,1,0,9,,,,,,,,,,,,,,,,12,,71,48
13800,note_on,,1,0,11,,,,,,,,,,,,,,,,15,,52,48
13800,note_on,,0,0,11,,,,,,,,,,,,,,,,15,,68,48
13800,note_on,,1,0,7,,,,,,,,,,,,,,,,10,,80,48
13800,note_on,,1,0,8,,,,,,,,,,,,,,,,11,,76,48
13800,note_on,,1,0,10,,,,,,,,,,,,,,,,13,,52,48
13800,note_on,,1,0,6,,,,,,,,,,,,,,,,7,,59,58
13800,note_on,,0,0,11,,,,,,,,,,,,,,,,15,,64,48
13859,note_on,,59,0,7,,,,,,,,,,,,,,,,10,,80,0
13859,note_on,,59,0,10,,,,,,,,,,,,,,,,13,,52,0
13859,note_on,,59,0,8,,,,,,,,,,,,,,,,11,,76,0
13859,note_on,,0,0,11,,,,,,,,,,,,,,,,15,,68,0
13859,note_on,,0,0,11,,,,,,,,,,,,,,,,15,,64,0
13859,note_on,,59,0,11,,,,,,,,,,,,,,,,15,,52,0
13859,note_on,,59,0,6,,,,,,,,,,,,,,,,7,,59,0
13859,note_on,,59,0,9,,,,,,,,,,,,,,,,12,,71,0
13860,note_on,,1,0,8,,,,,,,,,,,,,,,,11,,75,48
13860,note_on,,0,0,11,,,,,,,,,,,,,,,,15,,63,48
13860,note_on,,0,0,11,,,,,,,,,,,,,,,,15,,66,48
13860,note_on,,1,0,11,,,,,,,,,,,,,,,,15,,47,48
13860,note_on,,1,0,6,,,,,,,,,,,,,,,,7,,59,64
13860,note_on,,1,0,9,,,,,,,,,,,,,,,,12,,71,48
13860,note_on,,1,0,7,,,,,,,,,,,,,,,,10,,78,48
13860,note_on,,1,0,10,,,,,,,,,,,,,,,,13,,47,48
13919,note_on,,0,0,11,,,,,,,,,,,,,,,,15,,63,0
13919,note_on,,59,0,8,,,,,,,,,,,,,,,,11,,75,0
13919,note_on,,59,0,6,,,,,,,,,,,,,,,,7,,59,0
13919,note_on,,59,0,9,,,,,,,,,,,,,,,,12,,71,0
13919,note_on,,59,0,7,,,,,,,,,,,,,,,,10,,78,0
13919,note_on,,59,0,10,,,,,,,,,,,,,,,,13,,47,0
13919,note_on,,0,0,11,,,,,,,,,,,,,,,,15,,66,0
13919,note_on,,0,0,11,,,,,,,,,,,,,,,,15,,47,0
13919,note_on,,59,0,11,,,,,,,,,,,,,,,,15,,59,0
13920,note_on,,1,0,6,,,,,,,,,,,,,,,,7,,59,65
13920,note_on,,0,0,11,,,,,,,,,,,,,,,,15,,59,48
13920,note_on,,1,0,10,,,,,,,,,,,,,,,,13,,52,48
13920,note_on,,1,0,8,,,,,,,,,,,,,,,,11,,76,48
13920,note_on,,0,0,11,,,,,,,,,,,,,,,,15,,68,48
13920,note_on,,0,0,11,,,,,,,,,,,,,,,,15,,64,48
13920,note_on,,1,0,9,,,,,,,,,,,,,,,,12,,71,48
13920,note_on,,1,0,7,,,,,,,,,,,,,,,,10,,80,48
13920,note_on,,1,0,11,,,,,,,,,,,,,,,,15,,52,48
13979,note_on,,59,0,9,,,,,,,,,,,,,,,,12,,71,0
13979,note_on,,0,0,11,,,,,,,,,,,,,,,,15,,68,0
13979,note_on,,59,0,7,,,,,,,,,,,,,,,,10,,80,0
13979,note_on,,59,0,8,,,,,,,,,,,,,,,,11,,76,0
13979,note_on,,0,0,11,,,,,,,,,,,,,,,,15,,64,0
13979,note_on,,59,0,10,,,,,,,,,,,,,,,,13,,52,0
13979,note_on,,59,0,11,,,,,,,,,,,,,,,,15,,52,0
13980,note_on,,1,0,10,,,,,,,,,,,,,,,,13,,47,48
13980,note_on,,1,0,8,,,,,,,,,,,,,,,,11,,75,48
13980,note_on,,1,0,7,,,,,,,,,,,,,,,,10,,78,48
13980,note_on,,1,0,11,,,,,,,,,,,,,,,,15,,47,48
13980,note_on,,1,0,9,,,,,,,,,,,,,,,,12,,71,48
13980,note_on,,0,0,11,,,,,,,,,,,,,,,,15,,66,48
13980,note_on,,0,0,11,,,,,,,,,,,,,,,,15,,63,48
14039,note_on,,59,0,7,,,,,,,,,,,,,,,,10,,78,0
14039,note_on,,59,0,8,,,,,,,,,,,,,,,,11,,75,0
14039,note_on,,59,0,11,,,,,,,,,,,,,,,,15,,59,0
14039,note_on,,0,0,11,,,,,,,,,,,,,,,,15,,66,0
14039,note_on,,0,0,11,,,,,,,,,,,,,,,,15,,47,0
14039,note_on,,59,0,9,,,,,,,,,,,,,,,,12,,71,0
14039,note_on,,59,0,10,,,,,,,,,,,,,,,,13,,47,0
14039,note_on,,0,0,11,,,,,,,,,,,,,,,,15,,63,0
14040,note_on,,1,0,7,,,,,,,,,,,,,,,,10,,80,48
14040,note_on,,1,0,8,,,,,,,,,,,,,,,,11,,76,48
14099,note_on,,59,0,8,,,,,,,,,,,,,,,,11,,76,0
14099,note_on,,59,0,7,,,,,,,,,,,,,,,,10,,80,0
14100,note_on,,0,0,11,,,,,,,,,,,,,,,,15,,63,48
14100,note_on,,0,0,11,,,,,,,,,,,,,,,,15,,66,48
14100,note_on,,61,0,10,,,,,,,,,,,,,,,,13,,47,48
14100,note_on,,1,0,7,,,,,,,,,,,,,,,,10,,78,48
14100,note_on,,1,0,8,,,,,,,,,,,,,,,,11,,75,48
14100,note_on,,61,0,9,,,,,,,,,,,,,,,,12,,71,48
14100,note_on,,61,0,11,,,,,,,,,,,,,,,,15,,47,48
14100,note_on,,0,0,11,,,,,,,,,,,,,,,,15,,71,48
14159,note_on,,59,0,7,,,,,,,,,,,,,,,,10,,78,0
14159,note_on,,59,0,9,,,,,,,,,,,,,,,,12,,71,0
14159,note_on,,59,0,8,,,,,,,,,,,,,,,,11,,75,0
14159,note_on,,0,0,11,,,,,,,,,,,,,,,,15,,63,0
14159,note_on,,0,0,11,,,,,,,,,,,,,,,,15,,66,0
14159,note_on,,0,0,11,,,,,,,,,,,,,,,,15,,71,0
14159,note_on,,239,0,6,,,,,,,,,,,,,,,,7,,59,0
14159,note_on,,59,0,10,,,,,,,,,,,,,,,,13,,47,0
14159,note_on,,59,0,11,,,,,,,,,,,,,,,,15,,47,0
14160,note_on,,1,0,9,,,,,,,,,,,,,,,,12,,68,48
14160,note_on,,1,0,6,,,,,,,,,,,,,,,,7,,64,60
14160,note_on,,1,0,7,,,,,,,,,,,,,,,,10,,76,48
14160,note_on,,1,0,8,,,,,,,,,,,,,,,,11,,73,48
14160,note_on,,1,0,10,,,,,,,,,,,,,,,,13,,49,48
14160,note_on,,1,0,11,,,,,,,,,,,,,,,,15,,49,48
14160,note_on,,0,0,11,,,,,,,,,,,,,,,,15,,68,48
14160,note_on,,0,0,11,,,,,,,,,,,,,,,,15,,64,48
14219,note_on,,59,0,7,,,,,,,,,,,,,,,,10,,76,0
14219,note_on,,59,0,10,,,,,,,,,,,,,,,,13,,49,0
14219,note_on,,59,0,9,,,,,,,,,,,,,,,,12,,68,0
14219,note_on,,59,0,8,,,,,,,,,,,,,,,,11,,73,0
14219,note_on,,0,0,11,,,,,,,,,,,,,,,,15,,64,0
14219,note_on,,59,0,11,,,,,,,,,,,,,,,,15,,49,0
14220,note_on,,1,0,11,,,,,,,,,,,,,,,,15,,44,48
14220,note_on,,1,0,7,,,,,,,,,,,,,,,,10,,75,48
14220,note_on,,1,0,9,,,,,,,,,,,,,,,,12,,68,48
14220,note_on,,0,0,11,,,,,,,,,,,,,,,,15,,63,48
14220,note_on,,1,0,10,,,,,,,,,,,,,,,,13,,44,48
14220,note_on,,1,0,8,,,,,,,,,,,,,,,,11,,71,48
14279,note_on,,59,0,7,,,,,,,,,,,,,,,,10,,75,0
14279,note_on,,59,0,10,,,,,,,,,,,,,,,,13,,44,0
14279,note_on,,0,0,11,,,,,,,,,,,,,,,,15,,63,0
14279,note_on,,59,0,8,,,,,,,,,,,,,,,,11,,71,0
14279,note_on,,59,0,9,,,,,,,,,,,,,,,,12,,68,0
14279,note_on,,59,0,11,,,,,,,,,,,,,,,,15,,44,0
14280,note_on,,1,0,7,,,,,,,,,,,,,,,,10,,76,48
14280,note_on,,1,0,9,,,,,,,,,,,,,,,,12,,68,48
14280,note_on,,1,0,10,,,,,,,,,,,,,,,,13,,49,48
14280,note_on,,1,0,11,,,,,,,,,,,,,,,,15,,49,48
14280,note_on,,0,0,11,,,,,,,,,,,,,,,,15,,64,48
14280,note_on,,1,0,8,,,,,,,,,,,,,,,,11,,73,48
14339,note_on,,59,0,11,,,,,,,,,,,,,,,,15,,49,0
14339,note_on,,59,0,10,,,,,,,,,,,,,,,,13,,49,0
14339,note_on,,59,0,8,,,,,,,,,,,,,,,,11,,73,0
14339,note_on,,59,0,7,,,,,,,,,,,,,,,,10,,76,0
14339,note_on,,59,0,9,,,,,,,,,,,,,,,,12,,68,0
14340,note_on,,1,0,8,,,,,,,,,,,,,,,,11,,71,48
14340,note_on,,1,0,9,,,,,,,,,,,,,,,,12,,68,48
14340,note_on,,1,0,10,,,,,,,,,,,,,,,,13,,52,48
14340,note_on,,1,0,7,,,,,,,,,,,,,,,,10,,75,48
14340,note_on,,1,0,11,,,,,,,,,,,,,,,,15,,52,48
14399,note_on,,0,0,11,,,,,,,,,,,,,,,,15,,64,0
14399,note_on,,59,0,8,,,,,,,,,,,,,,,,11,,71,0
14399,note_on,,59,0,9,,,,,,,,,,,,,,,,12,,68,0
14399,note_on,,59,0,11,,,,,,,,,,,,,,,,15,,68,0
14399,note_on,,59,0,7,,,,,,,,,,,,,,,,10,,75,0
14399,note_on,,0,0,11,,,,,,,,,,,,,,,,15,,52,0
14399,note_on,,59,0,10,,,,,,,,,,,,,,,,13,,52,0
14400,note_on,,1,0,10,,,,,,,,,,,,,,,,13,,54,48
14400,note_on,,1,0,9,,,,,,,,,,,,,,,,12,,61,48
14400,note_on,,1,0,11,,,,,,,,,,,,,,,,15,,54,48
14400,note_on,,0,0,11,,,,,,,,,,,,,,,,15,,70,48
14400,note_on,,0,0,11,,,,,,,,,,,,,,,,15,,61,48
14400,note_on,,1,0,8,,,,,,,,,,,,,,,,11,,70,48
14400,note_on,,0,0,11,,,,,,,,,,,,,,,,15,,73,48
14400,note_on,,1,0,7,,,,,,,,,,,,,,,,10,,73,48
14459,note_on,,299,0,6,,,,,,,,,,,,,,,,7,,64,0
14460,note_on,,1,0,6,,,,,,,,,,,,,,,,7,,63,65
14519,note_on,,119,0,9,,,,,,,,,,,,,,,,12,,61,0
14519,note_on,,119,0,8,,,,,,,,,,,,,,,,11,,70,0
14519,note_on,,119,0,10,,,,,,,,,,,,,,,,13,,54,0
14519,note_on,,59,0,6,,,,,,,,,,,,,,,,7,,63,0
14519,note_on,,0,0,11,,,,,,,,,,,,,,,,15,,61,0
14519,note_on,,0,0,11,,,,,,,,,,,,,,,,15,,70,0
14519,note_on,,0,0,11,,,,,,,,,,,,,,,,15,,73,0
14519,note_on,,119,0,11,,,,,,,,,,,,,,,,15,,54,0
14519,note_on,,119,0,7,,,,,,,,,,,,,,,,10,,73,0
14520,note_on,,1,0,6,,,,,,,,,,,,,,,,7,,64,66
14579,note_on,,59,0,6,,,,,,,,,,,,,,,,7,,64,0
14580,note_on,,1,0,6,,,,,,,,,,,,,,,,7,,63,65
14639,note_on,,59,0,6,,,,,,,,,,,,,,,,7,,63,0
14640,note_on,,0,0,11,,,,,,,,,,,,,,,,15,,61,48
14640,note_on,,121,0,10,,,,,,,,,,,,,,,,13,,54,48
14640,note_on,,121,0,8,,,,,,,,,,,,,,,,11,,73,48
14640,note_on,,1,0,6,,,,,,,,,,,,,,,,7,,64,60
14640,note_on,,0,0,11,,,,,,,,,,,,,,,,15,,70,48
14640,note_on,,121,0,11,,,,,,,,,,,,,,,,15,,54,48
14640,note_on,,0,0,11,,,,,,,,,,,,,,,,15,,73,48
14640,note_on,,121,0,7,,,,,,,,,,,,,,,,10,,82,48
14640,note_on,,121,0,9,,,,,,,,,,,,,,,,12,,64,48
14699,note_on,,59,0,7,,,,,,,,,,,,,,,,10,,82,0
14699,note_on,,0,0,11,,,,,,,,,,,,,,,,15,,70,0
14699,note_on,,59,0,8,,,,,,,,,,,,,,,,11,,73,0
14699,note_on,,59,0,10,,,,,,,,,,,,,,,,13,,54,0
14699,note_on,,59,0,9,,,,,,,,,,,,,,,,12,,64,0
14699,note_on,,59,0,11,,,,,,,,,,,,,,,,15,,54,0
14700,note_on,,0,0,11,,,,,,,,,,,,,,,,15,,68,48
14700,note_on,,1,0,10,,,,,,,,,,,,,,,,13,,56,48
14700,note_on,,1,0,7,,,,,,,,,,,,,,,,10,,83,48
14700,note_on,,1,0,9,,,,,,,,,,,,,,,,12,,64,48
14700,note_on,,1,0,11,,,,,,,,,,,,,,,,15,,56,48
14700,note_on,,1,0,8,,,,,,,,,,,,,,,,11,,71,48
14759,note_on,,59,0,11,,,,,,,,,,,,,,,,15,,56,0
14759,note_on,,0,0,11,,,,,,,,,,,,,,,,15,,68,0
14759,note_on,,59,0,10,,,,,,,,,,,,,,,,13,,56,0
14759,note_on,,59,0,9,,,,,,,,,,,,,,,,12,,64,0
14759,note_on,,59,0,8,,,,,,,,,,,,,,,,11,,71,0
14759,note_on,,59,0,7,,,,,,,,,,,,,,,,10,,83,0
14760,note_on,,1,0,7,,,,,,,,,,,,,,,,10,,85,48
14760,note_on,,1,0,10,,,,,,,,,,,,,,,,13,,58,48
14760,note_on,,1,0,8,,,,,,,,,,,,,,,,11,,70,48
14760,note_on,,1,0,11,,,,,,,,,,,,,,,,15,,58,48
14760,note_on,,0,0,11,,,,,,,,,,,,,,,,15,,66,48
14760,note_on,,1,0,9,,,,,,,,,,,,,,,,12,,64,48
14819,note_on,,59,0,10,,,,,,,,,,,,,,,,13,,58,0
14819,note_on,,59,0,9,,,,,,,,,,,,,,,,12,,64,0
14819,note_on,,59,0,11,,,,,,,,,,,,,,,,15,,58,0
14819,note_on,,59,0,8,,,,,,,,,,,,,,,,11,,70,0
14819,note_on,,0,0,11,,,,,,,,,,,,,,,,15,,66,0
14819,note_on,,59,0,7,,,,,,,,,,,,,,,,10,,85,0
14820,note_on,,1,0,7,,,,,,,,,,,,,,,,10,,83,48
14820,note_on,,1,0,8,,,,,,,,,,,,,,,,11,,71,48
14820,note_on,,1,0,11,,,,,,,,,,,,,,,,15,,56,48
14820,note_on,,0,0,11,,,,,,,,,,,,,,,,15,,68,48
14820,note_on,,1,0,9,,,,,,,,,,,,,,,,12,,64,48
14820,note_on,,1,0,10,,,,,,,,,,,,,,,,13,,56,48
14879,note_on,,59,0,7,,,,,,,,,,,,,,,,10,,83,0
14879,note_on,,59,0,11,,,,,,,,,,,,,,,,15,,61,0
14879,note_on,,59,0,9,,,,,,,,,,,,,,,,12,,64,0
14879,note_on,,59,0,8,,,,,,,,,,,,,,,,11,,71,0
14879,note_on,,0,0,11,,,,,,,,,,,,,,,,15,,68,0
14879,note_on,,0,0,11,,,,,,,,,,,,,,,,15,,56,0
14879,note_on,,59,0,10,,,,,,,,,,,,,,,,13,,56,0
14880,note_on,,1,0,10,,,,,,,,,,,,,,,,13,,54,48
14880,note_on,,0,0,11,,,,,,,,,,,,,,,,15,,61,48
14880,note_on,,0,0,11,,,,,,,,,,,,,,,,15,,70,48
14880,note_on,,1,0,8,,,,,,,,,,,,,,,,11,,73,48
14880,note_on,,1,0,11,,,,,,,,,,,,,,,,15,,54,48
14880,note_on,,1,0,7,,,,,,,,,,,,,,,,10,,82,48
14880,note_on,,1,0,9,,,,,,,,,,,,,,,,12,,64,48
14939,note_on,,299,0,6,,,,,,,,,,,,,,,,7,,64,0
14940,note_on,,1,0,6,,,,,,,,,,,,,,,,7,,63,64
14999,note_on,,119,0,9,,,,,,,,,,,,,,,,12,,64,0
14999,note_on,,119,0,7,,,,,,,,,,,,,,,,10,,82,0
14999,note_on,,59,0,6,,,,,,,,,,,,,,,,7,,63,0
14999,note_on,,119,0,10,,,,,,,,,,,,,,,,13,,54,0
14999,note_on,,0,0,11,,,,,,,,,,,,,,,,15,,61,0
14999,note_on,,0,0,11,,,,,,,,,,,,,,,,15,,70,0
14999,note_on,,0,0,11,,,,,,,,,,,,,,,,15,,54,0
14999,note_on,,119,0,11,,,,,,,,,,,,,,,,15,,73,0
14999,note_on,,119,0,8,,,,,,,,,,,,,,,,11,,73,0
15000,note_on,,1,0,6,,,,,,,,,,,,,,,,7,,64,62
15059,note_on,,59,0,6,,,,,,,,,,,,,,,,7,,64,0
15060,note_on,,1,0,6,,,,,,,,,,,,,,,,7,,63,59
15119,note_on,,59,0,6,,,,,,,,,,,,,,,,7,,63,0
15120,note_on,,121,0,9,,,,,,,,,,,,,,,,12,,64,48
15120,note_on,,1,0,6,,,,,,,,,,,,,,,,7,,64,61
15120,note_on,,121,0,10,,,,,,,,,,,,,,,,13,,54,48
15120,note_on,,121,0,7,,,,,,,,,,,,,,,,10,,70,48
15120,note_on,,0,0,11,,,,,,,,,,,,,,,,15,,70,48
15120,note_on,,0,0,11,,,,,,,,,,,,,,,,15,,61,48
15120,note_on,,0,0,11,,,,,,,,,,,,,,,,15,,73,48
15120,note_on,,121,0,11,,,,,,,,,,,,,,,,15,,54,48
15120,note_on,,121,0,8,,,,,,,,,,,,,,,,11,,61,48
15179,note_on,,59,0,10,,,,,,,,,,,,,,,,13,,54,0
15179,note_on,,59,0,7,,,,,,,,,,,,,,,,10,,70,0
15179,note_on,,59,0,9,,,,,,,,,,,,,,,,12,,64,0
15179,note_on,,0,0,11,,,,,,,,,,,,,,,,15,,70,0
15179,note_on,,59,0,8,,,,,,,,,,,,,,,,11,,61,0
15179,note_on,,59,0,11,,,,,,,,,,,,,,,,15,,54,0
15180,note_on,,1,0,9,,,,,,,,,,,,,,,,12,,64,48
15180,note_on,,0,0,11,,,,,,,,,,,,,,,,15,,68,48
15180,note_on,,1,0,11,,,,,,,,,,,,,,,,15,,56,48
15180,note_on,,1,0,7,,,,,,,,,,,,,,,,10,,71,48
15180,note_on,,1,0,8,,,,,,,,,,,,,,,,11,,59,48
15180,note_on,,1,0,10,,,,,,,,,,,,,,,,13,,56,48
15239,note_on,,59,0,11,,,,,,,,,,,,,,,,15,,56,0
15239,note_on,,59,0,9,,,,,,,,,,,,,,,,12,,64,0
15239,note_on,,59,0,7,,,,,,,,,,,,,,,,10,,71,0
15239,note_on,,59,0,8,,,,,,,,,,,,,,,,11,,59,0
15239,note_on,,0,0,11,,,,,,,,,,,,,,,,15,,68,0
15239,note_on,,59,0,10,,,,,,,,,,,,,,,,13,,56,0
15240,note_on,,1,0,8,,,,,,,,,,,,,,,,11,,58,48
15240,note_on,,1,0,11,,,,,,,,,,,,,,,,15,,66,48
15240,note_on,,1,0,9,,,,,,,,,,,,,,,,12,,64,48
15240,note_on,,0,0,11,,,,,,,,,,,,,,,,15,,58,48
15240,note_on,,1,0,10,,,,,,,,,,,,,,,,13,,58,48
15240,note_on,,1,0,7,,,,,,,,,,,,,,,,10,,73,48
15299,note_on,,59,0,8,,,,,,,,,,,,,,,,11,,58,0
15299,note_on,,59,0,9,,,,,,,,,,,,,,,,12,,64,0
15299,note_on,,59,0,10,,,,,,,,,,,,,,,,13,,58,0
15299,note_on,,0,0,11,,,,,,,,,,,,,,,,15,,58,0
15299,note_on,,59,0,7,,,,,,,,,,,,,,,,10,,73,0
15299,note_on,,59,0,11,,,,,,,,,,,,,,,,15,,66,0
15300,note_on,,1,0,7,,,,,,,,,,,,,,,,10,,71,48
15300,note_on,,1,0,9,,,,,,,,,,,,,,,,12,,64,48
15300,note_on,,1,0,8,,,,,,,,,,,,,,,,11,,59,48
15300,note_on,,0,0,11,,,,,,,,,,,,,,,,15,,68,48
15300,note_on,,1,0,10,,,,,,,,,,,,,,,,13,,56,48
15300,note_on,,1,0,11,,,,,,,,,,,,,,,,15,,56,48
15359,note_on,,59,0,8,,,,,,,,,,,,,,,,11,,59,0
15359,note_on,,59,0,11,,,,,,,,,,,,,,,,15,,73,0
15359,note_on,,0,0,11,,,,,,,,,,,,,,,,15,,56,0
15359,note_on,,59,0,10,,,,,,,,,,,,,,,,13,,56,0
15359,note_on,,59,0,9,,,,,,,,,,,,,,,,12,,64,0
15359,note_on,,59,0,7,,,,,,,,,,,,,,,,10,,71,0
15359,note_on,,0,0,11,,,,,,,,,,,,,,,,15,,61,0
15359,note_on,,0,0,11,,,,,,,,,,,,,,,,15,,68,0
15360,note_on,,1,0,8,,,,,,,,,,,,,,,,11,,61,48
15360,note_on,,1,0,7,,,,,,,,,,,,,,,,10,,70,48
15360,note_on,,0,0,11,,,,,,,,,,,,,,,,15,,61,48
15360,note_on,,1,0,10,,,,,,,,,,,,,,,,13,,54,48
15360,note_on,,1,0,9,,,,,,,,,,,,,,,,12,,64,48
15360,note_on,,0,0,11,,,,,,,,,,,,,,,,15,,70,48
15360,note_on,,1,0,11,,,,,,,,,,,,,,,,15,,54,48
15360,note_on,,0,0,11,,,,,,,,,,,,,,,,15,,73,48
15419,note_on,,59,0,11,,,,,,,,,,,,,,,,15,,54,0
15419,note_on,,0,0,11,,,,,,,,,,,,,,,,15,,70,0
15419,note_on,,59,0,8,,,,,,,,,,,,,,,,11,,61,0
15419,note_on,,59,0,9,,,,,,,,,,,,,,,,12,,64,0
15419,note_on,,59,0,7,,,,,,,,,,,,,,,,10,,70,0
15419,note_on,,59,0,10,,,,,,,,,,,,,,,,13,,54,0
15420,note_on,,1,0,8,,,,,,,,,,,,,,,,11,,59,48
15420,note_on,,1,0,7,,,,,,,,,,,,,,,,10,,71,48
15420,note_on,,0,0,11,,,,,,,,,,,,,,,,15,,68,48
15420,note_on,,1,0,11,,,,,,,,,,,,,,,,15,,56,48
15420,note_on,,1,0,9,,,,,,,,,,,,,,,,12,,64,48
15420,note_on,,1,0,10,,,,,,,,,,,,,,,,13,,56,48
15479,note_on,,59,0,8,,,,,,,,,,,,,,,,11,,59,0
15479,note_on,,0,0,11,,,,,,,,,,,,,,,,15,,68,0
15479,note_on,,59,0,11,,,,,,,,,,,,,,,,15,,56,0
15479,note_on,,59,0,7,,,,,,,,,,,,,,,,10,,71,0
15479,note_on,,59,0,9,,,,,,,,,,,,,,,,12,,64,0
15479,note_on,,59,0,10,,,,,,,,,,,,,,,,13,,56,0
15479,note_on,,359,0,6,,,,,,,,,,,,,,,,7,,64,0
15480,note_on,,1,0,9,,,,,,,,,,,,,,,,12,,64,48
15480,note_on,,0,0,11,,,,,,,,,,,,,,,,15,,66,48
15480,note_on,,1,0,11,,,,,,,,,,,,,,,,15,,58,48
15480,note_on,,1,0,7,,,,,,,,,,,,,,,,10,,73,48
15480,note_on,,1,0,10,,,,,,,,,,,,,,,,13,,58,48
15480,note_on,,1,0,8,,,,,,,,,,,,,,,,11,,66,48
15539,note_on,,59,0,9,,,,,,,,,,,,,,,,12,,64,0
15539,note_on,,59,0,11,,,,,,,,,,,,,,,,15,,73,0
15539,note_on,,0,0,11,,,,,,,,,,,,,,,,15,,61,0
15539,note_on,,0,0,11,,,,,,,,,,,,,,,,15,,58,0
15539,note_on,,59,0,7,,,,,,,,,,,,,,,,10,,73,0
15539,note_on,,0,0,11,,,,,,,,,,,,,,,,15,,66,0
15539,note_on,,59,0,8,,,,,,,,,,,,,,,,11,,66,0
15539,note_on,,59,0,10,,,,,,,,,,,,,,,,13,,58,0
15540,note_on,,1,0,7,,,,,,,,,,,,,,,,10,,66,48
15540,note_on,,1,0,9,,,,,,,,,,,,,,,,12,,61,48
15540,note_on,,61,0,6,,,,,,,,,,,,,,,,7,,61,58
15540,note_on,,1,0,8,,,,,,,,,,,,,,,,11,,66,48
15540,note_on,,1,0,11,,,,,,,,,,,,,,,,15,,46,48
15540,note_on,,0,0,11,,,,,,,,,,,,,,,,15,,66,48
15540,note_on,,0,0,11,,,,,,,,,,,,,,,,15,,73,48
15540,note_on,,1,0,10,,,,,,,,,,,,,,,,13,,46,48
15599,note_on,,0,0,11,,,,,,,,,,,,,,,,15,,73,0
15599,note_on,,59,0,8,,,,,,,,,,,,,,,,11,,66,0
15599,note_on,,59,0,9,,,,,,,,,,,,,,,,12,,61,0
15599,note_on,,59,0,10,,,,,,,,,,,,,,,,13,,46,0
15599,note_on,,59,0,6,,,,,,,,,,,,,,,,7,,61,0
15599,note_on,,59,0,7,,,,,,,,,,,,,,,,10,,66,0
15599,note_on,,59,0,11,,,,,,,,,,,,,,,,15,,46,0
15599,note_on,,0,0,11,,,,,,,,,,,,,,,,15,,66,0
15600,note_on,,1,0,6,,,,,,,,,,,,,,,,7,,63,64
15600,note_on,,1,0,11,,,,,,,,,,,,,,,,15,,47,48
15600,note_on,,0,0,11,,,,,,,,,,,,,,,,15,,66,48
15600,note_on,,0,0,11,,,,,,,,,,,,,,,,15,,75,48
15600,note_on,,0,0,11,,,,,,,,,,,,,,,,15,,71,48
15600,note_on,,1,0,9,,,,,,,,,,,,,,,,12,,59,48
15600,note_on,,1,0,8,,,,,,,,,,,,,,,,11,,66,48
15600,note_on,,1,0,7,,,,,,,,,,,,,,,,10,,63,48
15600,note_on,,1,0,10,,,,,,,,,,,,,,,,13,,47,48
15659,note_on,,0,0,11,,,,,,,,,,,,,,,,15,,71,0
15659,note_on,,0,0,11,,,,,,,,,,,,,,,,15,,66,0
15659,note_on,,59,0,10,,,,,,,,,,,,,,,,13,,47,0
15659,note_on,,59,0,11,,,,,,,,,,,,,,,,15,,47,0
15659,note_on,,59,0,6,,,,,,,,,,,,,,,,7,,63,0
15659,note_on,,0,0,11,,,,,,,,,,,,,,,,15,,75,0
15660,note_on,,1,0,10,,,,,,,,,,,,,,,,13,,52,48
15660,note_on,,1,0,11,,,,,,,,,,,,,,,,15,,52,48
15660,note_on,,1,0,6,,,,,,,,,,,,,,,,7,,68,59
15660,note_on,,0,0,11,,,,,,,,,,,,,,,,15,,68,48
15660,note_on,,0,0,11,,,,,,,,,,,,,,,,15,,71,48
15719,note_on,,59,0,10,,,,,,,,,,,,,,,,13,,52,0
15719,note_on,,59,0,6,,,,,,,,,,,,,,,,7,,68,0
15719,note_on,,119,0,8,,,,,,,,,,,,,,,,11,,66,0
15719,note_on,,59,0,11,,,,,,,,,,,,,,,,15,,52,0
15719,note_on,,0,0,11,,,,,,,,,,,,,,,,15,,68,0
15719,note_on,,119,0,7,,,,,,,,,,,,,,,,10,,63,0
15719,note_on,,119,0,9,,,,,,,,,,,,,,,,12,,59,0
15720,note_on,,1,0,10,,,,,,,,,,,,,,,,13,,51,48
15720,note_on,,1,0,6,,,,,,,,,,,,,,,,7,,66,64
15720,note_on,,0,0,11,,,,,,,,,,,,,,,,15,,66,48
15720,note_on,,1,0,11,,,,,,,,,,,,,,,,15,,51,48
15779,note_on,,0,0,11,,,,,,,,,,,,,,,,15,,66,0
15779,note_on,,59,0,6,,,,,,,,,,,,,,,,7,,66,0
15779,note_on,,59,0,10,,,,,,,,,,,,,,,,13,,51,0
15779,note_on,,59,0,11,,,,,,,,,,,,,,,,15,,71,0
15779,note_on,,0,0,11,,,,,,,,,,,,,,,,15,,51,0
15780,note_on,,1,0,6,,,,,,,,,,,,,,,,7,,58,64
15780,note_on,,0,0,11,,,,,,,,,,,,,,,,15,,70,48
15780,note_on,,61,0,7,,,,,,,,,,,,,,,,10,,73,48
15780,note_on,,0,0,11,,,,,,,,,,,,,,,,15,,66,48
15780,note_on,,1,0,11,,,,,,,,,,,,,,,,15,,54,48
15780,note_on,,61,0,8,,,,,,,,,,,,,,,,11,,70,48
15780,note_on,,1,0,10,,,,,,,,,,,,,,,,13,,54,48
15780,note_on,,0,0,11,,,,,,,,,,,,,,,,15,,73,48
15780,note_on,,61,0,9,,,,,,,,,,,,,,,,12,,61,48
15839,note_on,,59,0,8,,,,,,,,,,,,,,,,11,,70,0
15839,note_on,,59,0,7,,,,,,,,,,,,,,,,10,,73,0
15839,note_on,,59,0,10,,,,,,,,,,,,,,,,13,,54,0
15839,note_on,,0,0,11,,,,,,,,,,,,,,,,15,,70,0
15839,note_on,,0,0,11,,,,,,,,,,,,,,,,15,,73,0
15839,note_on,,0,0,11,,,,,,,,,,,,,,,,15,,66,0
15839,note_on,,59,0,11,,,,,,,,,,,,,,,,15,,54,0
15839,note_on,,59,0,9,,,,,,,,,,,,,,,,12,,61,0
15839,note_on,,59,0,6,,,,,,,,,,,,,,,,7,,58,0
15840,note_on,,1,0,6,,,,,,,,,,,,,,,,7,,59,65
15840,note_on,,1,0,10,,,,,,,,,,,,,,,,13,,47,48
15840,note_on,,0,0,11,,,,,,,,,,,,,,,,15,,75,48
15840,note_on,,1,0,8,,,,,,,,,,,,,,,,11,,66,48
15840,note_on,,1,0,9,,,,,,,,,,,,,,,,12,,59,48
15840,note_on,,0,0,11,,,,,,,,,,,,,,,,15,,71,48
15840,note_on,,0,0,11,,,,,,,,,,,,,,,,15,,66,48
15840,note_on,,1,0,7,,,,,,,,,,,,,,,,10,,75,48
15840,note_on,,1,0,11,,,,,,,,,,,,,,,,15,,47,48
15899,note_on,,0,0,11,,,,,,,,,,,,,,,,15,,66,0
15899,note_on,,59,0,10,,,,,,,,,,,,,,,,13,,47,0
15899,note_on,,59,0,8,,,,,,,,,,,,,,,,11,,66,0
15899,note_on,,59,0,11,,,,,,,,,,,,,,,,15,,47,0
15899,note_on,,0,0,11,,,,,,,,,,,,,,,,15,,75,0
15899,note_on,,0,0,11,,,,,,,,,,,,,,,,15,,71,0
15899,note_on,,59,0,7,,,,,,,,,,,,,,,,10,,75,0
15900,note_on,,1,0,8,,,,,,,,,,,,,,,,11,,64,48
15900,note_on,,0,0,11,,,,,,,,,,,,,,,,15,,68,48
15900,note_on,,1,0,7,,,,,,,,,,,,,,,,10,,80,48
15900,note_on,,1,0,11,,,,,,,,,,,,,,,,15,,52,48
15900,note_on,,1,0,10,,,,,,,,,,,,,,,,13,,52,48
15900,note_on,,0,0,11,,,,,,,,,,,,,,,,15,,71,48
15959,note_on,,59,0,11,,,,,,,,,,,,,,,,15,,52,0
15959,note_on,,59,0,8,,,,,,,,,,,,,,,,11,,64,0
15959,note_on,,119,0,6,,,,,,,,,,,,,,,,7,,59,0
15959,note_on,,0,0,11,,,,,,,,,,,,,,,,15,,68,0
15959,note_on,,59,0,10,,,,,,,,,,,,,,,,13,,52,0
15959,note_on,,59,0,7,,,,,,,,,,,,,,,,10,,80,0
15960,note_on,,1,0,11,,,,,,,,,,,,,,,,15,,51,48
15960,note_on,,0,0,11,,,,,,,,,,,,,,,,15,,66,48
15960,note_on,,1,0,7,,,,,,,,,,,,,,,,10,,78,48
15960,note_on,,1,0,10,,,,,,,,,,,,,,,,13,,51,48
15960,note_on,,1,0,8,,,,,,,,,,,,,,,,11,,71,48
16019,note_on,,0,0,11,,,,,,,,,,,,,,,,15,,51,0
16019,note_on,,59,0,10,,,,,,,,,,,,,,,,13,,51,0
16019,note_on,,59,0,11,,,,,,,,,,,,,,,,15,,71,0
16019,note_on,,0,0,11,,,,,,,,,,,,,,,,15,,66,0
16019,note_on,,179,0,9,,,,,,,,,,,,,,,,12,,59,0
16019,note_on,,59,0,8,,,,,,,,,,,,,,,,11,,71,0
16019,note_on,,59,0,7,,,,,,,,,,,,,,,,10,,78,0
16020,note_on,,61,0,6,,,,,,,,,,,,,,,,7,,61,66
16020,note_on,,1,0,9,,,,,,,,,,,,,,,,12,,66,48
16020,note_on,,0,0,11,,,,,,,,,,,,,,,,15,,70,48
16020,note_on,,0,0,11,,,,,,,,,,,,,,,,15,,66,48
16020,note_on,,1,0,11,,,,,,,,,,,,,,,,15,,54,48
16020,note_on,,1,0,8,,,,,,,,,,,,,,,,11,,61,48
16020,note_on,,1,0,7,,,,,,,,,,,,,,,,10,,70,48
16020,note_on,,0,0,11,,,,,,,,,,,,,,,,15,,73,48
16020,note_on,,1,0,10,,,,,,,,,,,,,,,,13,,54,48
16079,note_on,,0,0,11,,,,,,,,,,,,,,,,15,,66,0
16079,note_on,,59,0,9,,,,,,,,,,,,,,,,12,,66,0
16079,note_on,,0,0,11,,,,,,,,,,,,,,,,15,,70,0
16079,note_on,,59,0,7,,,,,,,,,,,,,,,,10,,70,0
16079,note_on,,0,0,11,,,,,,,,,,,,,,,,15,,73,0
16079,note_on,,59,0,11,,,,,,,,,,,,,,,,15,,54,0
16079,note_on,,59,0,10,,,,,,,,,,,,,,,,13,,54,0
16079,note_on,,59,0,6,,,,,,,,,,,,,,,,7,,61,0
16079,note_on,,59,0,8,,,,,,,,,,,,,,,,11,,61,0
16080,note_on,,0,0,11,,,,,,,,,,,,,,,,15,,66,48
16080,note_on,,1,0,6,,,,,,,,,,,,,,,,7,,63,65
16080,note_on,,1,0,9,,,,,,,,,,,,,,,,12,,66,48
16080,note_on,,0,0,11,,,,,,,,,,,,,,,,15,,71,48
16080,note_on,,0,0,11,,,,,,,,,,,,,,,,15,,75,48
16080,note_on,,1,0,11,,,,,,,,,,,,,,,,15,,47,48
16080,note_on,,1,0,7,,,,,,,,,,,,,,,,10,,71,48
16080,note_on,,1,0,10,,,,,,,,,,,,,,,,13,,47,48
16080,note_on,,1,0,8,,,,,,,,,,,,,,,,11,,63,48
16139,note_on,,59,0,8,,,,,,,,,,,,,,,,11,,63,0
16139,note_on,,59,0,6,,,,,,,,,,,,,,,,7,,63,0
16139,note_on,,0,0,11,,,,,,,,,,,,,,,,15,,71,0
16139,note_on,,0,0,11,,,,,,,,,,,,,,,,15,,75,0
16139,note_on,,0,0,11,,,,,,,,,,,,,,,,15,,66,0
16139,note_on,,59,0,10,,,,,,,,,,,,,,,,13,,47,0
16139,note_on,,59,0,11,,,,,,,,,,,,,,,,15,,47,0
16140,note_on,,1,0,6,,,,,,,,,,,,,,,,7,,68,64
16140,note_on,,1,0,11,,,,,,,,,,,,,,,,15,,52,48
16140,note_on,,0,0,11,,,,,,,,,,,,,,,,15,,68,48
16140,note_on,,0,0,11,,,,,,,,,,,,,,,,15,,71,48
16140,note_on,,1,0,10,,,,,,,,,,,,,,,,13,,52,48
16140,note_on,,1,0,8,,,,,,,,,,,,,,,,11,,68,48
16199,note_on,,59,0,10,,,,,,,,,,,,,,,,13,,52,0
16199,note_on,,119,0,9,,,,,,,,,,,,,,,,12,,66,0
16199,note_on,,59,0,6,,,,,,,,,,,,,,,,7,,68,0
16199,note_on,,59,0,11,,,,,,,,,,,,,,,,15,,52,0
16199,note_on,,119,0,7,,,,,,,,,,,,,,,,10,,71,0
16199,note_on,,59,0,8,,,,,,,,,,,,,,,,11,,68,0
16199,note_on,,0,0,11,,,,,,,,,,,,,,,,15,,68,0
16200,note_on,,1,0,10,,,,,,,,,,,,,,,,13,,51,48
16200,note_on,,1,0,8,,,,,,,,,,,,,,,,11,,66,48
16200,note_on,,1,0,11,,,,,,,,,,,,,,,,15,,51,48
16200,note_on,,0,0,11,,,,,,,,,,,,,,,,15,,66,48
16200,note_on,,1,0,6,,,,,,,,,,,,,,,,7,,66,60
16259,note_on,,59,0,10,,,,,,,,,,,,,,,,13,,51,0
16259,note_on,,59,0,6,,,,,,,,,,,,,,,,7,,66,0
16259,note_on,,59,0,8,,,,,,,,,,,,,,,,11,,66,0
16259,note_on,,0,0,11,,,,,,,,,,,,,,,,15,,51,0
16259,note_on,,59,0,11,,,,,,,,,,,,,,,,15,,71,0
16259,note_on,,0,0,11,,,,,,,,,,,,,,,,15,,66,0
16260,note_on,,61,0,7,,,,,,,,,,,,,,,,10,,61,48
16260,note_on,,1,0,8,,,,,,,,,,,,,,,,11,,58,48
16260,note_on,,61,0,9,,,,,,,,,,,,,,,,12,,54,48
16260,note_on,,1,0,10,,,,,,,,,,,,,,,,13,,54,48
16260,note_on,,1,0,11,,,,,,,,,,,,,,,,15,,54,48
16260,note_on,,0,0,11,,,,,,,,,,,,,,,,15,,61,48
16260,note_on,,0,0,11,,,,,,,,,,,,,,,,15,,70,48
16260,note_on,,0,0,11,,,,,,,,,,,,,,,,15,,66,48
16260,note_on,,1,0,6,,,,,,,,,,,,,,,,7,,58,59
16319,note_on,,59,0,8,,,,,,,,,,,,,,,,11,,58,0
16319,note_on,,59,0,9,,,,,,,,,,,,,,,,12,,54,0
16319,note_on,,0,0,11,,,,,,,,,,,,,,,,15,,70,0
16319,note_on,,0,0,11,,,,,,,,,,,,,,,,15,,66,0
16319,note_on,,59,0,11,,,,,,,,,,,,,,,,15,,54,0
16319,note_on,,0,0,11,,,,,,,,,,,,,,,,15,,61,0
16319,note_on,,59,0,10,,,,,,,,,,,,,,,,13,,54,0
16319,note_on,,59,0,7,,,,,,,,,,,,,,,,10,,61,0
16319,note_on,,59,0,6,,,,,,,,,,,,,,,,7,,58,0
16320,note_on,,1,0,9,,,,,,,,,,,,,,,,12,,54,48
16320,note_on,,1,0,8,,,,,,,,,,,,,,,,11,,59,48
16320,note_on,,1,0,10,,,,,,,,,,,,,,,,13,,44,48
16320,note_on,,1,0,7,,,,,,,,,,,,,,,,10,,59,48
16320,note_on,,1,0,11,,,,,,,,,,,,,,,,15,,44,48
16320,note_on,,1,0,6,,,,,,,,,,,,,,,,7,,59,60
16320,note_on,,0,0,11,,,,,,,,,,,,,,,,15,,59,48
16320,note_on,,0,0,11,,,,,,,,,,,,,,,,15,,68,48
16320,note_on,,0,0,11,,,,,,,,,,,,,,,,15,,71,48
16379,note_on,,59,0,11,,,,,,,,,,,,,,,,15,,68,0
16379,note_on,,59,0,9,,,,,,,,,,,,,,,,12,,54,0
16379,note_on,,59,0,6,,,,,,,,,,,,,,,,7,,59,0
16379,note_on,,59,0,8,,,,,,,,,,,,,,,,11,,59,0
16380,note_on,,1,0,6,,,,,,,,,,,,,,,,7,,52,65
16380,note_on,,1,0,11,,,,,,,,,,,,,,,,15,,64,48
16380,note_on,,1,0,8,,,,,,,,,,,,,,,,11,,64,48
16380,note_on,,1,0,9,,,,,,,,,,,,,,,,12,,52,48
16439,note_on,,119,0,7,,,,,,,,,,,,,,,,10,,59,0
16439,note_on,,59,0,9,,,,,,,,,,,,,,,,12,,52,0
16439,note_on,,119,0,10,,,,,,,,,,,,,,,,13,,44,0
16439,note_on,,59,0,11,,,,,,,,,,,,,,,,15,,44,0
16439,note_on,,0,0,11,,,,,,,,,,,,,,,,15,,64,0
16439,note_on,,59,0,8,,,,,,,,,,,,,,,,11,,64,0
16439,note_on,,59,0,6,,,,,,,,,,,,,,,,7,,52,0
16440,note_on,,1,0,10,,,,,,,,,,,,,,,,13,,42,48
16440,note_on,,1,0,11,,,,,,,,,,,,,,,,15,,42,48
16440,note_on,,0,0,11,,,,,,,,,,,,,,,,15,,66,48
16440,note_on,,1,0,6,,,,,,,,,,,,,,,,7,,51,67
16440,note_on,,1,0,7,,,,,,,,,,,,,,,,10,,71,48
16440,note_on,,1,0,8,,,,,,,,,,,,,,,,11,,63,48
16440,note_on,,1,0,9,,,,,,,,,,,,,,,,12,,59,48
16499,note_on,,59,0,6,,,,,,,,,,,,,,,,7,,51,0
16499,note_on,,59,0,10,,,,,,,,,,,,,,,,13,,42,0
16499,note_on,,59,0,8,,,,,,,,,,,,,,,,11,,63,0
16499,note_on,,59,0,11,,,,,,,,,,,,,,,,15,,71,0
16499,note_on,,0,0,11,,,,,,,,,,,,,,,,15,,42,0
16499,note_on,,0,0,11,,,,,,,,,,,,,,,,15,,59,0
16499,note_on,,0,0,11,,,,,,,,,,,,,,,,15,,66,0
16500,note_on,,1,0,11,,,,,,,,,,,,,,,,15,,40,48
16500,note_on,,0,0,11,,,,,,,,,,,,,,,,15,,68,48
16500,note_on,,0,0,11,,,,,,,,,,,,,,,,15,,71,48
16500,note_on,,1,0,8,,,,,,,,,,,,,,,,11,,68,48
16500,note_on,,0,0,11,,,,,,,,,,,,,,,,15,,59,48
16500,note_on,,1,0,10,,,,,,,,,,,,,,,,13,,40,48
16500,note_on,,1,0,6,,,,,,,,,,,,,,,,7,,56,62
16559,note_on,,59,0,6,,,,,,,,,,,,,,,,7,,56,0
16559,note_on,,0,0,11,,,,,,,,,,,,,,,,15,,68,0
16559,note_on,,59,0,8,,,,,,,,,,,,,,,,11,,68,0
16559,note_on,,0,0,11,,,,,,,,,,,,,,,,15,,59,0
16559,note_on,,59,0,10,,,,,,,,,,,,,,,,13,,40,0
16559,note_on,,59,0,11,,,,,,,,,,,,,,,,15,,40,0
16559,note_on,,0,0,11,,,,,,,,,,,,,,,,15,,71,0
16560,note_on,,0,0,11,,,,,,,,,,,,,,,,15,,59,48
16560,note_on,,1,0,8,,,,,,,,,,,,,,,,11,,66,48
16560,note_on,,1,0,6,,,,,,,,,,,,,,,,7,,54,60
16560,note_on,,1,0,11,,,,,,,,,,,,,,,,15,,39,48
16560,note_on,,1,0,10,,,,,,,,,,,,,,,,13,,39,48
16560,note_on,,0,0,11,,,,,,,,,,,,,,,,15,,66,48
16619,note_on,,59,0,8,,,,,,,,,,,,,,,,11,,66,0
16619,note_on,,179,0,7,,,,,,,,,,,,,,,,10,,71,0
16619,note_on,,59,0,10,,,,,,,,,,,,,,,,13,,39,0
16619,note_on,,59,0,11,,,,,,,,,,,,,,,,15,,39,0
16619,note_on,,179,0,9,,,,,,,,,,,,,,,,12,,59,0
16619,note_on,,59,0,6,,,,,,,,,,,,,,,,7,,54,0
16620,note_on,,1,0,10,,,,,,,,,,,,,,,,13,,51,48
16620,note_on,,1,0,6,,,,,,,,,,,,,,,,7,,59,66
16620,note_on,,1,0,8,,,,,,,,,,,,,,,,11,,66,48
16620,note_on,,1,0,9,,,,,,,,,,,,,,,,12,,59,48
16620,note_on,,1,0,11,,,,,,,,,,,,,,,,15,,51,48
16620,note_on,,1,0,7,,,,,,,,,,,,,,,,10,,71,48
16679,note_on,,0,0,11,,,,,,,,,,,,,,,,15,,51,0
16679,note_on,,59,0,8,,,,,,,,,,,,,,,,11,,66,0
16679,note_on,,59,0,11,,,,,,,,,,,,,,,,15,,66,0
16679,note_on,,0,0,11,,,,,,,,,,,,,,,,15,,59,0
16679,note_on,,59,0,7,,,,,,,,,,,,,,,,10,,71,0
16679,note_on,,59,0,10,,,,,,,,,,,,,,,,13,,51,0
16679,note_on,,59,0,9,,,,,,,,,,,,,,,,12,,59,0
16679,note_on,,59,0,6,,,,,,,,,,,,,,,,7,,59,0
16680,note_on,,1,0,11,,,,,,,,,,,,,,,,15,,49,48
16680,note_on,,0,0,11,,,,,,,,,,,,,,,,15,,73,48
16680,note_on,,0,0,11,,,,,,,,,,,,,,,,15,,70,48
16680,note_on,,1,0,6,,,,,,,,,,,,,,,,7,,58,64
16680,note_on,,1,0,8,,,,,,,,,,,,,,,,11,,64,48
16680,note_on,,1,0,9,,,,,,,,,,,,,,,,12,,61,48
16680,note_on,,1,0,10,,,,,,,,,,,,,,,,13,,49,48
16680,note_on,,0,0,11,,,,,,,,,,,,,,,,15,,64,48
16680,note_on,,1,0,7,,,,,,,,,,,,,,,,10,,70,48
16739,note_on,,59,0,9,,,,,,,,,,,,,,,,12,,61,0
16739,note_on,,59,0,10,,,,,,,,,,,,,,,,13,,49,0
16739,note_on,,59,0,6,,,,,,,,,,,,,,,,7,,58,0
16739,note_on,,59,0,7,,,,,,,,,,,,,,,,10,,70,0
16739,note_on,,59,0,11,,,,,,,,,,,,,,,,15,,49,0
16739,note_on,,59,0,8,,,,,,,,,,,,,,,,11,,64,0
16740,note_on,,1,0,9,,,,,,,,,,,,,,,,12,,61,48
16740,note_on,,1,0,10,,,,,,,,,,,,,,,,13,,49,48
16740,note_on,,1,0,8,,,,,,,,,,,,,,,,11,,70,48
16740,note_on,,1,0,11,,,,,,,,,,,,,,,,15,,49,48
16740,note_on,,1,0,7,,,,,,,,,,,,,,,,10,,76,48
16740,note_on,,1,0,6,,,,,,,,,,,,,,,,7,,64,61
16799,note_on,,59,0,8,,,,,,,,,,,,,,,,11,,70,0
16799,note_on,,59,0,6,,,,,,,,,,,,,,,,7,,64,0
16799,note_on,,59,0,7,,,,,,,,,,,,,,,,10,,76,0
16799,note_on,,59,0,9,,,,,,,,,,,,,,,,12,,61,0
16799,note_on,,59,0,10,,,,,,,,,,,,,,,,13,,49,0
16799,note_on,,59,0,11,,,,,,,,,,,,,,,,15,,73,0
16799,note_on,,0,0,11,,,,,,,,,,,,,,,,15,,70,0
16799,note_on,,0,0,11,,,,,,,,,,,,,,,,15,,64,0
16799,note_on,,0,0,11,,,,,,,,,,,,,,,,15,,49,0
16800,note_on,,1,0,8,,,,,,,,,,,,,,,,11,,71,48
16800,note_on,,0,0,11,,,,,,,,,,,,,,,,15,,75,48
16800,note_on,,1,0,10,,,,,,,,,,,,,,,,13,,47,48
16800,note_on,,1,0,6,,,,,,,,,,,,,,,,7,,63,62
16800,note_on,,1,0,11,,,,,,,,,,,,,,,,15,,47,48
16800,note_on,,0,0,11,,,,,,,,,,,,,,,,15,,66,48
16800,note_on,,0,0,11,,,,,,,,,,,,,,,,15,,71,48
16800,note_on,,1,0,9,,,,,,,,,,,,,,,,12,,66,48
16800,note_on,,1,0,7,,,,,,,,,,,,,,,,10,,75,48
16859,note_on,,59,0,8,,,,,,,,,,,,,,,,11,,71,0
16859,note_on,,59,0,9,,,,,,,,,,,,,,,,12,,66,0
16859,note_on,,59,0,10,,,,,,,,,,,,,,,,13,,47,0
16859,note_on,,59,0,11,,,,,,,,,,,,,,,,15,,47,0
16859,note_on,,59,0,7,,,,,,,,,,,,,,,,10,,75,0
16860,note_on,,1,0,8,,,,,,,,,,,,,,,,11,,71,48
16860,note_on,,1,0,9,,,,,,,,,,,,,,,,12,,66,48
16860,note_on,,1,0,7,,,,,,,,,,,,,,,,10,,75,48
16860,note_on,,1,0,10,,,,,,,,,,,,,,,,13,,47,48
16860,note_on,,1,0,11,,,,,,,,,,,,,,,,15,,47,48
16919,note_on,,59,0,8,,,,,,,,,,,,,,,,11,,71,0
16919,note_on,,59,0,9,,,,,,,,,,,,,,,,12,,66,0
16919,note_on,,59,0,11,,,,,,,,,,,,,,,,15,,47,0
16919,note_on,,59,0,7,,,,,,,,,,,,,,,,10,,75,0
16919,note_on,,59,0,10,,,,,,,,,,,,,,,,13,,47,0
16920,note_on,,1,0,7,,,,,,,,,,,,,,,,10,,75,48
16920,note_on,,1,0,11,,,,,,,,,,,,,,,,15,,47,48
16920,note_on,,1,0,8,,,,,,,,,,,,,,,,11,,66,48
16920,note_on,,1,0,9,,,,,,,,,,,,,,,,12,,66,48
16920,note_on,,1,0,10,,,,,,,,,,,,,,,,13,,47,48
16979,note_on,,59,0,10,,,,,,,,,,,,,,,,13,,47,0
16979,note_on,,59,0,9,,,,,,,,,,,,,,,,12,,66,0
16979,note_on,,59,0,11,,,,,,,,,,,,,,,,15,,47,0
16979,note_on,,59,0,7,,,,,,,,,,,,,,,,10,,75,0
16979,note_on,,59,0,8,,,,,,,,,,,,,,,,11,,66,0
16980,note_on,,1,0,10,,,,,,,,,,,,,,,,13,,47,48
16980,note_on,,1,0,9,,,,,,,,,,,,,,,,12,,66,48
16980,note_on,,1,0,11,,,,,,,,,,,,,,,,15,,47,48
16980,note_on,,1,0,7,,,,,,,,,,,,,,,,10,,75,48
16980,note_on,,1,0,8,,,,,,,,,,,,,,,,11,,66,48
17039,note_on,,59,0,8,,,,,,,,,,,,,,,,11,,66,0
17039,note_on,,0,0,11,,,,,,,,,,,,,,,,15,,71,0
17039,note_on,,0,0,11,,,,,,,,,,,,,,,,15,,66,0
17039,note_on,,59,0,10,,,,,,,,,,,,,,,,13,,47,0
17039,note_on,,59,0,9,,,,,,,,,,,,,,,,12,,66,0
17039,note_on,,0,0,11,,,,,,,,,,,,,,,,15,,47,0
17039,note_on,,59,0,11,,,,,,,,,,,,,,,,15,,75,0
17039,note_on,,59,0,7,,,,,,,,,,,,,,,,10,,75,0
17040,note_on,,0,0,11,,,,,,,,,,,,,,,,15,,68,48
17040,note_on,,0,0,11,,,,,,,,,,,,,,,,15,,63,48
17040,note_on,,1,0,8,,,,,,,,,,,,,,,,11,,68,48
17040,note_on,,0,0,11,,,,,,,,,,,,,,,,15,,71,48
17040,note_on,,1,0,11,,,,,,,,,,,,,,,,15,,59,48
17040,note_on,,1,0,10,,,,,,,,,,,,,,,,13,,59,48
17040,note_on,,1,0,7,,,,,,,,,,,,,,,,10,,80,48
17040,note_on,,1,0,9,,,,,,,,,,,,,,,,12,,63,48
17099,note_on,,59,0,9,,,,,,,,,,,,,,,,12,,63,0
17099,note_on,,59,0,7,,,,,,,,,,,,,,,,10,,80,0
17099,note_on,,59,0,10,,,,,,,,,,,,,,,,13,,59,0
17099,note_on,,59,0,8,,,,,,,,,,,,,,,,11,,68,0
17099,note_on,,59,0,11,,,,,,,,,,,,,,,,15,,59,0
17100,note_on,,1,0,10,,,,,,,,,,,,,,,,13,,59,48
17100,note_on,,1,0,9,,,,,,,,,,,,,,,,12,,63,48
17100,note_on,,1,0,7,,,,,,,,,,,,,,,,10,,80,48
17100,note_on,,1,0,8,,,,,,,,,,,,,,,,11,,68,48
17100,note_on,,1,0,11,,,,,,,,,,,,,,,,15,,59,48
17159,note_on,,59,0,10,,,,,,,,,,,,,,,,13,,59,0
17159,note_on,,59,0,9,,,,,,,,,,,,,,,,12,,63,0
17159,note_on,,59,0,7,,,,,,,,,,,,,,,,10,,80,0
17159,note_on,,59,0,8,,,,,,,,,,,,,,,,11,,68,0
17159,note_on,,59,0,11,,,,,,,,,,,,,,,,15,,59,0
17160,note_on,,1,0,10,,,,,,,,,,,,,,,,13,,59,48
17160,note_on,,1,0,11,,,,,,,,,,,,,,,,15,,59,48
17160,note_on,,1,0,8,,,,,,,,,,,,,,,,11,,68,48
17160,note_on,,1,0,9,,,,,,,,,,,,,,,,12,,63,48
17160,note_on,,1,0,7,,,,,,,,,,,,,,,,10,,80,48
17219,note_on,,419,0,6,,,,,,,,,,,,,,,,7,,63,0
17219,note_on,,59,0,8,,,,,,,,,,,,,,,,11,,68,0
17219,note_on,,59,0,9,,,,,,,,,,,,,,,,12,,63,0
17219,note_on,,59,0,10,,,,,,,,,,,,,,,,13,,59,0
17219,note_on,,59,0,11,,,,,,,,,,,,,,,,15,,59,0
17219,note_on,,59,0,7,,,,,,,,,,,,,,,,10,,80,0
17220,note_on,,1,0,7,,,,,,,,,,,,,,,,10,,80,48
17220,note_on,,1,0,8,,,,,,,,,,,,,,,,11,,68,48
17220,note_on,,1,0,6,,,,,,,,,,,,,,,,7,,64,67
17220,note_on,,1,0,9,,,,,,,,,,,,,,,,12,,63,48
17220,note_on,,1,0,10,,,,,,,,,,,,,,,,13,,59,48
17220,note_on,,1,0,11,,,,,,,,,,,,,,,,15,,59,48
17249,note_on,,29,0,6,,,,,,,,,,,,,,,,7,,64,0
17250,note_on,,1,0,6,,,,,,,,,,,,,,,,7,,63,61
17279,note_on,,59,0,7,,,,,,,,,,,,,,,,10,,80,0
17279,note_on,,0,0,11,,,,,,,,,,,,,,,,15,,59,0
17279,note_on,,0,0,11,,,,,,,,,,,,,,,,15,,63,0
17279,note_on,,0,0,11,,,,,,,,,,,,,,,,15,,68,0
17279,note_on,,59,0,11,,,,,,,,,,,,,,,,15,,71,0
17279,note_on,,59,0,10,,,,,,,,,,,,,,,,13,,59,0
17279,note_on,,59,0,8,,,,,,,,,,,,,,,,11,,68,0
17279,note_on,,59,0,9,,,,,,,,,,,,,,,,12,,63,0
17279,note_on,,29,0,6,,,,,,,,,,,,,,,,7,,63,0
17280,note_on,,1,0,9,,,,,,,,,,,,,,,,12,,58,48
17280,note_on,,1,0,8,,,,,,,,,,,,,,,,11,,73,48
17280,note_on,,1,0,6,,,,,,,,,,,,,,,,7,,61,67
17280,note_on,,0,0,11,,,,,,,,,,,,,,,,15,,73,48
17280,note_on,,0,0,11,,,,,,,,,,,,,,,,15,,70,48
17280,note_on,,1,0,11,,,,,,,,,,,,,,,,15,,58,48
17280,note_on,,1,0,10,,,,,,,,,,,,,,,,13,,58,48
17280,note_on,,1,0,7,,,,,,,,,,,,,,,,10,,80,48
17280,note_on,,0,0,11,,,,,,,,,,,,,,,,15,,61,48
17339,note_on,,59,0,11,,,,,,,,,,,,,,,,15,,58,0
17339,note_on,,59,0,7,,,,,,,,,,,,,,,,10,,80,0
17339,note_on,,59,0,10,,,,,,,,,,,,,,,,13,,58,0
17339,note_on,,59,0,9,,,,,,,,,,,,,,,,12,,58,0
17339,note_on,,59,0,8,,,,,,,,,,,,,,,,11,,73,0
17340,note_on,,1,0,11,,,,,,,,,,,,,,,,15,,58,48
17340,note_on,,1,0,7,,,,,,,,,,,,,,,,10,,80,48
17340,note_on,,1,0,10,,,,,,,,,,,,,,,,13,,58,48
17340,note_on,,1,0,9,,,,,,,,,,,,,,,,12,,58,48
17340,note_on,,1,0,8,,,,,,,,,,,,,,,,11,,73,48
17399,note_on,,59,0,7,,,,,,,,,,,,,,,,10,,80,0
17399,note_on,,59,0,10,,,,,,,,,,,,,,,,13,,58,0
17399,note_on,,59,0,9,,,,,,,,,,,,,,,,12,,58,0
17399,note_on,,59,0,11,,,,,,,,,,,,,,,,15,,58,0
17399,note_on,,59,0,8,,,,,,,,,,,,,,,,11,,73,0
17400,note_on,,1,0,9,,,,,,,,,,,,,,,,12,,58,48
17400,note_on,,1,0,10,,,,,,,,,,,,,,,,13,,58,48
17400,note_on,,1,0,11,,,,,,,,,,,,,,,,15,,58,48
17400,note_on,,1,0,8,,,,,,,,,,,,,,,,11,,73,48
17400,note_on,,1,0,7,,,,,,,,,,,,,,,,10,,80,48
17459,note_on,,59,0,8,,,,,,,,,,,,,,,,11,,73,0
17459,note_on,,59,0,9,,,,,,,,,,,,,,,,12,,58,0
17459,note_on,,59,0,11,,,,,,,,,,,,,,,,15,,58,0
17459,note_on,,59,0,7,,,,,,,,,,,,,,,,10,,80,0
17459,note_on,,59,0,10,,,,,,,,,,,,,,,,13,,58,0
17460,note_on,,1,0,7,,,,,,,,,,,,,,,,10,,80,48
17460,note_on,,1,0,8,,,,,,,,,,,,,,,,11,,73,48
17460,note_on,,1,0,11,,,,,,,,,,,,,,,,15,,58,48
17460,note_on,,1,0,9,,,,,,,,,,,,,,,,12,,58,48
17460,note_on,,1,0,10,,,,,,,,,,,,,,,,13,,58,48
17519,note_on,,59,0,7,,,,,,,,,,,,,,,,10,,80,0
17519,note_on,,59,0,8,,,,,,,,,,,,,,,,11,,73,0
17519,note_on,,59,0,9,,,,,,,,,,,,,,,,12,,58,0
17519,note_on,,59,0,10,,,,,,,,,,,,,,,,13,,58,0
17519,note_on,,59,0,11,,,,,,,,,,,,,,,,15,,73,0
17519,note_on,,0,0,11,,,,,,,,,,,,,,,,15,,61,0
17519,note_on,,0,0,11,,,,,,,,,,,,,,,,15,,58,0
17519,note_on,,0,0,11,,,,,,,,,,,,,,,,15,,70,0
17520,note_on,,1,0,7,,,,,,,,,,,,,,,,10,,78,48
17520,note_on,,1,0,10,,,,,,,,,,,,,,,,13,,58,48
17520,note_on,,1,0,11,,,,,,,,,,,,,,,,15,,58,48
17520,note_on,,0,0,11,,,,,,,,,,,,,,,,15,,61,48
17520,note_on,,1,0,8,,,,,,,,,,,,,,,,11,,73,48
17520,note_on,,0,0,11,,,,,,,,,,,,,,,,15,,66,48
17520,note_on,,0,0,11,,,,,,,,,,,,,,,,15,,73,48
17520,note_on,,1,0,9,,,,,,,,,,,,,,,,12,,61,48
17520,note_on,,0,0,11,,,,,,,,,,,,,,,,15,,78,48
17579,note_on,,59,0,8,,,,,,,,,,,,,,,,11,,73,0
17579,note_on,,59,0,9,,,,,,,,,,,,,,,,12,,61,0
17579,note_on,,59,0,11,,,,,,,,,,,,,,,,15,,58,0
17579,note_on,,59,0,10,,,,,,,,,,,,,,,,13,,58,0
17579,note_on,,59,0,7,,,,,,,,,,,,,,,,10,,78,0
17580,note_on,,1,0,8,,,,,,,,,,,,,,,,11,,73,48
17580,note_on,,1,0,9,,,,,,,,,,,,,,,,12,,61,48
17580,note_on,,1,0,7,,,,,,,,,,,,,,,,10,,78,48
17580,note_on,,1,0,11,,,,,,,,,,,,,,,,15,,58,48
17580,note_on,,1,0,10,,,,,,,,,,,,,,,,13,,58,48
17639,note_on,,59,0,9,,,,,,,,,,,,,,,,12,,61,0
17639,note_on,,59,0,10,,,,,,,,,,,,,,,,13,,58,0
17639,note_on,,59,0,7,,,,,,,,,,,,,,,,10,,78,0
17639,note_on,,59,0,8,,,,,,,,,,,,,,,,11,,73,0
17639,note_on,,59,0,11,,,,,,,,,,,,,,,,15,,58,0
17640,note_on,,1,0,10,,,,,,,,,,,,,,,,13,,58,48
17640,note_on,,1,0,11,,,,,,,,,,,,,,,,15,,58,48
17640,note_on,,1,0,9,,,,,,,,,,,,,,,,12,,61,48
17640,note_on,,1,0,7,,,,,,,,,,,,,,,,10,,78,48
17640,note_on,,1,0,8,,,,,,,,,,,,,,,,11,,66,48
17699,note_on,,59,0,7,,,,,,,,,,,,,,,,10,,78,0
17699,note_on,,59,0,10,,,,,,,,,,,,,,,,13,,58,0
17699,note_on,,59,0,11,,,,,,,,,,,,,,,,15,,58,0
17699,note_on,,419,0,6,,,,,,,,,,,,,,,,7,,61,0
17699,note_on,,59,0,8,,,,,,,,,,,,,,,,11,,66,0
17699,note_on,,59,0,9,,,,,,,,,,,,,,,,12,,61,0
17700,note_on,,1,0,11,,,,,,,,,,,,,,,,15,,58,48
17700,note_on,,1,0,8,,,,,,,,,,,,,,,,11,,66,48
17700,note_on,,1,0,9,,,,,,,,,,,,,,,,12,,61,48
17700,note_on,,1,0,6,,,,,,,,,,,,,,,,7,,63,60
17700,note_on,,1,0,7,,,,,,,,,,,,,,,,10,,78,48
17700,note_on,,1,0,10,,,,,,,,,,,,,,,,13,,58,48
17729,note_on,,29,0,6,,,,,,,,,,,,,,,,7,,63,0
17730,note_on,,1,0,6,,,,,,,,,,,,,,,,7,,61,64
17759,note_on,,59,0,7,,,,,,,,,,,,,,,,10,,78,0
17759,note_on,,59,0,9,,,,,,,,,,,,,,,,12,,61,0
17759,note_on,,0,0,11,,,,,,,,,,,,,,,,15,,58,0
17759,note_on,,0,0,11,,,,,,,,,,,,,,,,15,,61,0
17759,note_on,,59,0,10,,,,,,,,,,,,,,,,13,,58,0
17759,note_on,,29,0,6,,,,,,,,,,,,,,,,7,,61,0
17759,note_on,,0,0,11,,,,,,,,,,,,,,,,15,,66,0
17759,note_on,,0,0,11,,,,,,,,,,,,,,,,15,,73,0
17759,note_on,,59,0,8,,,,,,,,,,,,,,,,11,,66,0
17759,note_on,,59,0,11,,,,,,,,,,,,,,,,15,,78,0
17760,note_on,,1,0,6,,,,,,,,,,,,,,,,7,,59,64
17760,note_on,,0,0,11,,,,,,,,,,,,,,,,15,,56,48
17760,note_on,,0,0,11,,,,,,,,,,,,,,,,15,,75,48
17760,note_on,,1,0,11,,,,,,,,,,,,,,,,15,,71,48
17760,note_on,,1,0,7,,,,,,,,,,,,,,,,10,,78,48
17760,note_on,,1,0,9,,,,,,,,,,,,,,,,12,,63,48
17760,note_on,,1,0,10,,,,,,,,,,,,,,,,13,,56,48
17760,note_on,,1,0,8,,,,,,,,,,,,,,,,11,,71,48
17760,note_on,,0,0,11,,,,,,,,,,,,,,,,15,,59,48
17819,note_on,,59,0,11,,,,,,,,,,,,,,,,15,,56,0
17819,note_on,,59,0,9,,,,,,,,,,,,,,,,12,,63,0
17819,note_on,,59,0,7,,,,,,,,,,,,,,,,10,,78,0
17819,note_on,,59,0,10,,,,,,,,,,,,,,,,13,,56,0
17819,note_on,,59,0,8,,,,,,,,,,,,,,,,11,,71,0
17820,note_on,,1,0,11,,,,,,,,,,,,,,,,15,,56,48
17820,note_on,,1,0,9,,,,,,,,,,,,,,,,12,,63,48
17820,note_on,,1,0,10,,,,,,,,,,,,,,,,13,,56,48
17820,note_on,,1,0,8,,,,,,,,,,,,,,,,11,,71,48
17820,note_on,,1,0,7,,,,,,,,,,,,,,,,10,,78,48
17879,note_on,,59,0,10,,,,,,,,,,,,,,,,13,,56,0
17879,note_on,,59,0,11,,,,,,,,,,,,,,,,15,,56,0
17879,note_on,,59,0,9,,,,,,,,,,,,,,,,12,,63,0
17879,note_on,,59,0,8,,,,,,,,,,,,,,,,11,,71,0
17879,note_on,,59,0,7,,,,,,,,,,,,,,,,10,,78,0
17880,note_on,,1,0,7,,,,,,,,,,,,,,,,10,,78,48
17880,note_on,,1,0,9,,,,,,,,,,,,,,,,12,,63,48
17880,note_on,,1,0,8,,,,,,,,,,,,,,,,11,,71,48
17880,note_on,,1,0,11,,,,,,,,,,,,,,,,15,,56,48
17880,note_on,,1,0,10,,,,,,,,,,,,,,,,13,,56,48
17939,note_on,,59,0,11,,,,,,,,,,,,,,,,15,,56,0
17939,note_on,,59,0,9,,,,,,,,,,,,,,,,12,,63,0
17939,note_on,,59,0,8,,,,,,,,,,,,,,,,11,,71,0
17939,note_on,,59,0,10,,,,,,,,,,,,,,,,13,,56,0
17939,note_on,,59,0,7,,,,,,,,,,,,,,,,10,,78,0
17940,note_on,,1,0,9,,,,,,,,,,,,,,,,12,,63,48
17940,note_on,,1,0,11,,,,,,,,,,,,,,,,15,,56,48
17940,note_on,,1,0,10,,,,,,,,,,,,,,,,13,,56,48
17940,note_on,,1,0,7,,,,,,,,,,,,,,,,10,,78,48
17940,note_on,,1,0,8,,,,,,,,,,,,,,,,11,,71,48
17999,note_on,,0,0,11,,,,,,,,,,,,,,,,15,,75,0
17999,note_on,,59,0,11,,,,,,,,,,,,,,,,15,,71,0
17999,note_on,,59,0,7,,,,,,,,,,,,,,,,10,,78,0
17999,note_on,,0,0,11,,,,,,,,,,,,,,,,15,,59,0
17999,note_on,,59,0,10,,,,,,,,,,,,,,,,13,,56,0
17999,note_on,,0,0,11,,,,,,,,,,,,,,,,15,,56,0
17999,note_on,,59,0,9,,,,,,,,,,,,,,,,12,,63,0
17999,note_on,,59,0,8,,,,,,,,,,,,,,,,11,,71,0
18000,note_on,,1,0,8,,,,,,,,,,,,,,,,11,,71,48
18000,note_on,,1,0,10,,,,,,,,,,,,,,,,13,,56,48
18000,note_on,,0,0,11,,,,,,,,,,,,,,,,15,,64,48
18000,note_on,,0,0,11,,,,,,,,,,,,,,,,15,,59,48
18000,note_on,,0,0,11,,,,,,,,,,,,,,,,15,,76,48
18000,note_on,,0,0,11,,,,,,,,,,,,,,,,15,,71,48
18000,note_on,,1,0,11,,,,,,,,,,,,,,,,15,,56,48
18000,note_on,,1,0,9,,,,,,,,,,,,,,,,12,,59,48
18000,note_on,,1,0,7,,,,,,,,,,,,,,,,10,,76,48
18059,note_on,,59,0,9,,,,,,,,,,,,,,,,12,,59,0
18059,note_on,,59,0,11,,,,,,,,,,,,,,,,15,,56,0
18059,note_on,,59,0,10,,,,,,,,,,,,,,,,13,,56,0
18059,note_on,,59,0,8,,,,,,,,,,,,,,,,11,,71,0
18059,note_on,,59,0,7,,,,,,,,,,,,,,,,10,,76,0
18060,note_on,,1,0,10,,,,,,,,,,,,,,,,13,,56,48
18060,note_on,,1,0,9,,,,,,,,,,,,,,,,12,,59,48
18060,note_on,,1,0,7,,,,,,,,,,,,,,,,10,,76,48
18060,note_on,,1,0,8,,,,,,,,,,,,,,,,11,,71,48
18060,note_on,,1,0,11,,,,,,,,,,,,,,,,15,,56,48
18119,note_on,,0,0,11,,,,,,,,,,,,,,,,15,,64,0
18119,note_on,,59,0,9,,,,,,,,,,,,,,,,12,,59,0
18119,note_on,,59,0,8,,,,,,,,,,,,,,,,11,,71,0
18119,note_on,,0,0,11,,,,,,,,,,,,,,,,15,,56,0
18119,note_on,,0,0,11,,,,,,,,,,,,,,,,15,,71,0
18119,note_on,,59,0,11,,,,,,,,,,,,,,,,15,,76,0
18119,note_on,,59,0,7,,,,,,,,,,,,,,,,10,,76,0
18119,note_on,,59,0,10,,,,,,,,,,,,,,,,13,,56,0
18120,note_on,,1,0,10,,,,,,,,,,,,,,,,13,,56,48
18120,note_on,,1,0,7,,,,,,,,,,,,,,,,10,,76,48
18120,note_on,,1,0,8,,,,,,,,,,,,,,,,11,,71,48
18120,note_on,,1,0,9,,,,,,,,,,,,,,,,12,,68,48
18120,note_on,,1,0,11,,,,,,,,,,,,,,,,15,,56,48
18120,note_on,,0,0,11,,,,,,,,,,,,,,,,15,,64,48
18179,note_on,,59,0,7,,,,,,,,,,,,,,,,10,,76,0
18179,note_on,,59,0,10,,,,,,,,,,,,,,,,13,,56,0
18179,note_on,,59,0,11,,,,,,,,,,,,,,,,15,,56,0
18179,note_on,,59,0,9,,,,,,,,,,,,,,,,12,,68,0
18179,note_on,,59,0,8,,,,,,,,,,,,,,,,11,,71,0
18179,note_on,,419,0,6,,,,,,,,,,,,,,,,7,,59,0
18180,note_on,,1,0,9,,,,,,,,,,,,,,,,12,,68,48
18180,note_on,,1,0,10,,,,,,,,,,,,,,,,13,,56,48
18180,note_on,,1,0,11,,,,,,,,,,,,,,,,15,,56,48
18180,note_on,,1,0,8,,,,,,,,,,,,,,,,11,,71,48
18180,note_on,,1,0,7,,,,,,,,,,,,,,,,10,,76,48
18180,note_on,,1,0,6,,,,,,,,,,,,,,,,7,,61,59
18209,note_on,,29,0,6,,,,,,,,,,,,,,,,7,,61,0
18210,note_on,,1,0,6,,,,,,,,,,,,,,,,7,,59,67
18239,note_on,,29,0,6,,,,,,,,,,,,,,,,7,,59,0
18239,note_on,,59,0,11,,,,,,,,,,,,,,,,15,,59,0
18239,note_on,,59,0,9,,,,,,,,,,,,,,,,12,,68,0
18239,note_on,,59,0,10,,,,,,,,,,,,,,,,13,,56,0
18239,note_on,,59,0,7,,,,,,,,,,,,,,,,10,,76,0
18239,note_on,,0,0,11,,,,,,,,,,,,,,,,15,,56,0
18239,note_on,,59,0,8,,,,,,,,,,,,,,,,11,,71,0
18239,note_on,,0,0,11,,,,,,,,,,,,,,,,15,,64,0
18240,note_on,,1,0,6,,,,,,,,,,,,,,,,7,,58,62
18240,note_on,,1,0,7,,,,,,,,,,,,,,,,10,,76,48
18240,note_on,,1,0,10,,,,,,,,,,,,,,,,13,,54,48
18240,note_on,,1,0,8,,,,,,,,,,,,,,,,11,,73,48
18240,note_on,,0,0,11,,,,,,,,,,,,,,,,15,,58,48
18240,note_on,,0,0,11,,,,,,,,,,,,,,,,15,,64,48
18240,note_on,,1,0,11,,,,,,,,,,,,,,,,15,,54,48
18240,note_on,,1,0,9,,,,,,,,,,,,,,,,12,,70,48
18299,note_on,,59,0,6,,,,,,,,,,,,,,,,7,,58,0
18299,note_on,,59,0,10,,,,,,,,,,,,,,,,13,,54,0
18299,note_on,,59,0,11,,,,,,,,,,,,,,,,15,,54,0
18299,note_on,,59,0,9,,,,,,,,,,,,,,,,12,,70,0
18299,note_on,,0,0,11,,,,,,,,,,,,,,,,15,,58,0
18299,note_on,,59,0,8,,,,,,,,,,,,,,,,11,,73,0
18299,note_on,,59,0,7,,,,,,,,,,,,,,,,10,,76,0
18300,note_on,,1,0,9,,,,,,,,,,,,,,,,12,,68,48
18300,note_on,,1,0,10,,,,,,,,,,,,,,,,13,,56,48
18300,note_on,,0,0,11,,,,,,,,,,,,,,,,15,,59,48
18300,note_on,,1,0,6,,,,,,,,,,,,,,,,7,,59,64
18300,note_on,,1,0,11,,,,,,,,,,,,,,,,15,,56,48
18300,note_on,,1,0,8,,,,,,,,,,,,,,,,11,,71,48
18300,note_on,,1,0,7,,,,,,,,,,,,,,,,10,,76,48
18359,note_on,,59,0,7,,,,,,,,,,,,,,,,10,,76,0
18359,note_on,,59,0,8,,,,,,,,,,,,,,,,11,,71,0
18359,note_on,,59,0,11,,,,,,,,,,,,,,,,15,,56,0
18359,note_on,,0,0,11,,,,,,,,,,,,,,,,15,,59,0
18359,note_on,,59,0,9,,,,,,,,,,,,,,,,12,,68,0
18359,note_on,,59,0,10,,,,,,,,,,,,,,,,13,,56,0
18359,note_on,,59,0,6,,,,,,,,,,,,,,,,7,,59,0
18360,note_on,,1,0,10,,,,,,,,,,,,,,,,13,,58,48
18360,note_on,,1,0,11,,,,,,,,,,,,,,,,15,,58,48
18360,note_on,,0,0,11,,,,,,,,,,,,,,,,15,,61,48
18360,note_on,,1,0,6,,,,,,,,,,,,,,,,7,,61,58
18360,note_on,,1,0,8,,,,,,,,,,,,,,,,11,,70,48
18360,note_on,,1,0,9,,,,,,,,,,,,,,,,12,,66,48
18360,note_on,,1,0,7,,,,,,,,,,,,,,,,10,,76,48
18419,note_on,,59,0,6,,,,,,,,,,,,,,,,7,,61,0
18419,note_on,,59,0,7,,,,,,,,,,,,,,,,10,,76,0
18419,note_on,,0,0,11,,,,,,,,,,,,,,,,15,,61,0
18419,note_on,,59,0,10,,,,,,,,,,,,,,,,13,,58,0
18419,note_on,,59,0,11,,,,,,,,,,,,,,,,15,,58,0
18419,note_on,,59,0,9,,,,,,,,,,,,,,,,12,,66,0
18419,note_on,,59,0,8,,,,,,,,,,,,,,,,11,,70,0
18420,note_on,,0,0,11,,,,,,,,,,,,,,,,15,,59,48
18420,note_on,,1,0,11,,,,,,,,,,,,,,,,15,,56,48
18420,note_on,,1,0,7,,,,,,,,,,,,,,,,10,,76,48
18420,note_on,,1,0,6,,,,,,,,,,,,,,,,7,,59,64
18420,note_on,,1,0,9,,,,,,,,,,,,,,,,12,,68,48
18420,note_on,,1,0,8,,,,,,,,,,,,,,,,11,,71,48
18420,note_on,,1,0,10,,,,,,,,,,,,,,,,13,,56,48
18479,note_on,,0,0,11,,,,,,,,,,,,,,,,15,,59,0
18479,note_on,,59,0,11,,,,,,,,,,,,,,,,15,,56,0
18479,note_on,,59,0,6,,,,,,,,,,,,,,,,7,,59,0
18479,note_on,,59,0,8,,,,,,,,,,,,,,,,11,,71,0
18479,note_on,,59,0,7,,,,,,,,,,,,,,,,10,,76,0
18479,note_on,,59,0,10,,,,,,,,,,,,,,,,13,,56,0
18479,note_on,,59,0,9,,,,,,,,,,,,,,,,12,,68,0
18480,note_on,,1,0,8,,,,,,,,,,,,,,,,11,,73,48
18480,note_on,,1,0,7,,,,,,,,,,,,,,,,10,,76,48
18480,note_on,,1,0,11,,,,,,,,,,,,,,,,15,,54,48
18480,note_on,,0,0,11,,,,,,,,,,,,,,,,15,,58,48
18480,note_on,,1,0,9,,,,,,,,,,,,,,,,12,,70,48
18480,note_on,,1,0,6,,,,,,,,,,,,,,,,7,,58,65
18480,note_on,,1,0,10,,,,,,,,,,,,,,,,13,,54,48
18539,note_on,,59,0,8,,,,,,,,,,,,,,,,11,,73,0
18539,note_on,,59,0,9,,,,,,,,,,,,,,,,12,,70,0
18539,note_on,,59,0,6,,,,,,,,,,,,,,,,7,,58,0
18539,note_on,,59,0,7,,,,,,,,,,,,,,,,10,,76,0
18539,note_on,,0,0,11,,,,,,,,,,,,,,,,15,,58,0
18539,note_on,,59,0,11,,,,,,,,,,,,,,,,15,,54,0
18539,note_on,,59,0,10,,,,,,,,,,,,,,,,13,,54,0
18540,note_on,,1,0,7,,,,,,,,,,,,,,,,10,,76,48
18540,note_on,,1,0,9,,,,,,,,,,,,,,,,12,,68,48
18540,note_on,,0,0,11,,,,,,,,,,,,,,,,15,,59,48
18540,note_on,,1,0,11,,,,,,,,,,,,,,,,15,,56,48
18540,note_on,,1,0,6,,,,,,,,,,,,,,,,7,,59,58
18540,note_on,,1,0,10,,,,,,,,,,,,,,,,13,,56,48
18540,note_on,,1,0,8,,,,,,,,,,,,,,,,11,,71,48
18599,note_on,,59,0,8,,,,,,,,,,,,,,,,11,,71,0
18599,note_on,,0,0,11,,,,,,,,,,,,,,,,15,,59,0
18599,note_on,,59,0,11,,,,,,,,,,,,,,,,15,,56,0
18599,note_on,,59,0,9,,,,,,,,,,,,,,,,12,,68,0
18599,note_on,,59,0,6,,,,,,,,,,,,,,,,7,,59,0
18599,note_on,,59,0,10,,,,,,,,,,,,,,,,13,,56,0
18599,note_on,,59,0,7,,,,,,,,,,,,,,,,10,,76,0
18600,note_on,,0,0,11,,,,,,,,,,,,,,,,15,,61,48
18600,note_on,,1,0,11,,,,,,,,,,,,,,,,15,,58,48
18600,note_on,,1,0,10,,,,,,,,,,,,,,,,13,,58,48
18600,note_on,,1,0,7,,,,,,,,,,,,,,,,10,,76,48
18600,note_on,,1,0,6,,,,,,,,,,,,,,,,7,,61,64
18600,note_on,,1,0,8,,,,,,,,,,,,,,,,11,,70,48
18600,note_on,,1,0,9,,,,,,,,,,,,,,,,12,,66,48
18659,note_on,,59,0,7,,,,,,,,,,,,,,,,10,,76,0
18659,note_on,,59,0,11,,,,,,,,,,,,,,,,15,,58,0
18659,note_on,,59,0,8,,,,,,,,,,,,,,,,11,,70,0
18659,note_on,,59,0,6,,,,,,,,,,,,,,,,7,,61,0
18659,note_on,,59,0,9,,,,,,,,,,,,,,,,12,,66,0
18659,note_on,,59,0,10,,,,,,,,,,,,,,,,13,,58,0
18659,note_on,,0,0,11,,,,,,,,,,,,,,,,15,,61,0
18660,note_on,,1,0,7,,,,,,,,,,,,,,,,10,,76,48
18660,note_on,,1,0,10,,,,,,,,,,,,,,,,13,,56,48
18660,note_on,,1,0,9,,,,,,,,,,,,,,,,12,,68,48
18660,note_on,,0,0,11,,,,,,,,,,,,,,,,15,,59,48
18660,note_on,,1,0,11,,,,,,,,,,,,,,,,15,,56,48
18660,note_on,,1,0,8,,,,,,,,,,,,,,,,11,,71,48
18660,note_on,,1,0,6,,,,,,,,,,,,,,,,7,,59,59
18719,note_on,,59,0,10,,,,,,,,,,,,,,,,13,,56,0
18719,note_on,,59,0,7,,,,,,,,,,,,,,,,10,,76,0
18719,note_on,,0,0,11,,,,,,,,,,,,,,,,15,,59,0
18719,note_on,,0,0,11,,,,,,,,,,,,,,,,15,,56,0
18719,note_on,,59,0,8,,,,,,,,,,,,,,,,11,,71,0
18719,note_on,,59,0,6,,,,,,,,,,,,,,,,7,,59,0
18719,note_on,,59,0,11,,,,,,,,,,,,,,,,15,,64,0
18719,note_on,,59,0,9,,,,,,,,,,,,,,,,12,,68,0
18720,note_on,,0,0,11,,,,,,,,,,,,,,,,15,,64,48
18720,note_on,,1,0,11,,,,,,,,,,,,,,,,15,,54,48
18720,note_on,,1,0,6,,,,,,,,,,,,,,,,7,,58,60
18720,note_on,,1,0,7,,,,,,,,,,,,,,,,10,,76,48
18720,note_on,,1,0,9,,,,,,,,,,,,,,,,12,,70,48
18720,note_on,,1,0,10,,,,,,,,,,,,,,,,13,,54,48
18720,note_on,,1,0,8,,,,,,,,,,,,,,,,11,,73,48
18720,note_on,,0,0,11,,,,,,,,,,,,,,,,15,,58,48
18839,note_on,,0,0,11,,,,,,,,,,,,,,,,15,,64,0
18839,note_on,,119,0,9,,,,,,,,,,,,,,,,12,,70,0
18839,note_on,,119,0,10,,,,,,,,,,,,,,,,13,,54,0
18839,note_on,,0,0,11,,,,,,,,,,,,,,,,15,,58,0
18839,note_on,,119,0,11,,,,,,,,,,,,,,,,15,,54,0
18839,note_on,,119,0,8,,,,,,,,,,,,,,,,11,,73,0
18839,note_on,,119,0,7,,,,,,,,,,,,,,,,10,,76,0
18839,note_on,,119,0,6,,,,,,,,,,,,,,,,7,,58,0
18840,note_on,,0,0,11,,,,,,,,,,,,,,,,15,,59,48
18840,note_on,,1,0,11,,,,,,,,,,,,,,,,15,,56,48
18840,note_on,,1,0,7,,,,,,,,,,,,,,,,10,,75,48
18840,note_on,,1,0,8,,,,,,,,,,,,,,,,11,,71,48
18840,note_on,,1,0,10,,,,,,,,,,,,,,,,13,,56,48
18840,note_on,,1,0,9,,,,,,,,,,,,,,,,12,,71,48
18840,note_on,,1,0,6,,,,,,,,,,,,,,,,7,,59,65
18840,note_on,,0,0,11,,,,,,,,,,,,,,,,15,,71,48
18840,note_on,,0,0,11,,,,,,,,,,,,,,,,15,,63,48
18899,note_on,,59,0,6,,,,,,,,,,,,,,,,7,,59,0
18900,note_on,,1,0,6,,,,,,,,,,,,,,,,7,,64,67
18959,note_on,,119,0,8,,,,,,,,,,,,,,,,11,,71,0
18959,note_on,,119,0,7,,,,,,,,,,,,,,,,10,,75,0
18959,note_on,,59,0,6,,,,,,,,,,,,,,,,7,,64,0
18959,note_on,,119,0,10,,,,,,,,,,,,,,,,13,,56,0
18959,note_on,,119,0,9,,,,,,,,,,,,,,,,12,,71,0
18959,note_on,,119,0,11,,,,,,,,,,,,,,,,15,,56,0
18959,note_on,,0,0,11,,,,,,,,,,,,,,,,15,,59,0
18959,note_on,,0,0,11,,,,,,,,,,,,,,,,15,,71,0
18959,note_on,,0,0,11,,,,,,,,,,,,,,,,15,,63,0
18960,note_on,,0,0,11,,,,,,,,,,,,,,,,15,,59,48
18960,note_on,,0,0,11,,,,,,,,,,,,,,,,15,,63,48
18960,note_on,,0,0,11,,,,,,,,,,,,,,,,15,,71,48
18960,note_on,,1,0,6,,,,,,,,,,,,,,,,7,,63,65
18960,note_on,,1,0,10,,,,,,,,,,,,,,,,13,,54,48
18960,note_on,,0,0,11,,,,,,,,,,,,,,,,15,,66,48
18960,note_on,,1,0,11,,,,,,,,,,,,,,,,15,,54,48
19079,note_on,,119,0,10,,,,,,,,,,,,,,,,13,,54,0
19079,note_on,,0,0,11,,,,,,,,,,,,,,,,15,,66,0
19079,note_on,,0,0,11,,,,,,,,,,,,,,,,15,,59,0
19079,note_on,,0,0,11,,,,,,,,,,,,,,,,15,,71,0
19079,note_on,,119,0,11,,,,,,,,,,,,,,,,15,,54,0
19079,note_on,,0,0,11,,,,,,,,,,,,,,,,15,,63,0
19079,note_on,,119,0,6,,,,,,,,,,,,,,,,7,,63,0
19080,note_on,,0,0,11,,,,,,,,,,,,,,,,15,,66,48
19080,note_on,,1,0,11,,,,,,,,,,,,,,,,15,,42,48
19080,note_on,,0,0,11,,,,,,,,,,,,,,,,15,,70,48
19080,note_on,,1,0,6,,,,,,,,,,,,,,,,7,,61,66
19080,note_on,,0,0,11,,,,,,,,,,,,,,,,15,,61,48
19080,note_on,,0,0,11,,,,,,,,,,,,,,,,15,,54,48
19080,note_on,,1,0,10,,,,,,,,,,,,,,,,13,,42,48
19094,note_on,,14,0,6,,,,,,,,,,,,,,,,7,,61,0
19095,note_on,,1,0,6,,,,,,,,,,,,,,,,7,,63,64
19109,note_on,,14,0,6,,,,,,,,,,,,,,,,7,,63,0
19110,note_on,,1,0,6,,,,,,,,,,,,,,,,7,,61,66
19124,note_on,,14,0,6,,,,,,,,,,,,,,,,7,,61,0
19125,note_on,,1,0,6,,,,,,,,,,,,,,,,7,,63,66
19139,note_on,,14,0,6,,,,,,,,,,,,,,,,7,,63,0
19140,note_on,,1,0,6,,,,,,,,,,,,,,,,7,,59,64
19199,note_on,,0,0,11,,,,,,,,,,,,,,,,15,,70,0
19199,note_on,,0,0,11,,,,,,,,,,,,,,,,15,,66,0
19199,note_on,,0,0,11,,,,,,,,,,,,,,,,15,,61,0
19199,note_on,,0,0,11,,,,,,,,,,,,,,,,15,,54,0
19199,note_on,,119,0,10,,,,,,,,,,,,,,,,13,,42,0
19199,note_on,,119,0,11,,,,,,,,,,,,,,,,15,,42,0
19199,note_on,,59,0,6,,,,,,,,,,,,,,,,7,,59,0
19200,note_on,,1,0,6,,,,,,,,,,,,,,,,7,,59,65
19200,note_on,,0,0,11,,,,,,,,,,,,,,,,15,,54,48
19200,note_on,,0,0,11,,,,,,,,,,,,,,,,15,,63,48
19200,note_on,,0,0,11,,,,,,,,,,,,,,,,15,,66,48
19200,note_on,,0,0,11,,,,,,,,,,,,,,,,15,,71,48
19200,note_on,,1,0,10,,,,,,,,,,,,,,,,13,,47,48
19200,note_on,,1,0,11,,,,,,,,,,,,,,,,15,,47,48
19260,note_on,,301,0,9,,,,,,,,,,,,,,,,12,,59,48
19260,note_on,,301,0,8,,,,,,,,,,,,,,,,11,,63,48
19260,note_on,,301,0,7,,,,,,,,,,,,,,,,10,,66,48
19319,note_on,,59,0,9,,,,,,,,,,,,,,,,12,,59,0
19319,note_on,,59,0,7,,,,,,,,,,,,,,,,10,,66,0
19319,note_on,,59,0,8,,,,,,,,,,,,,,,,11,,63,0
19320,note_on,,1,0,9,,,,,,,,,,,,,,,,12,,59,48
19320,note_on,,1,0,7,,,,,,,,,,,,,,,,10,,68,48
19320,note_on,,1,0,8,,,,,,,,,,,,,,,,11,,64,48
19334,note_on,,14,0,7,,,,,,,,,,,,,,,,10,,68,0
19335,note_on,,1,0,7,,,,,,,,,,,,,,,,10,,69,48
19349,note_on,,14,0,7,,,,,,,,,,,,,,,,10,,69,0
19350,note_on,,1,0,7,,,,,,,,,,,,,,,,10,,66,48
19364,note_on,,14,0,7,,,,,,,,,,,,,,,,10,,66,0
19365,note_on,,1,0,7,,,,,,,,,,,,,,,,10,,68,48
19379,note_on,,14,0,7,,,,,,,,,,,,,,,,10,,68,0
19379,note_on,,59,0,8,,,,,,,,,,,,,,,,11,,64,0
19379,note_on,,59,0,9,,,,,,,,,,,,,,,,12,,59,0
19380,note_on,,1,0,7,,,,,,,,,,,,,,,,10,,66,48
19380,note_on,,1,0,8,,,,,,,,,,,,,,,,11,,63,48
19380,note_on,,1,0,9,,,,,,,,,,,,,,,,12,,59,48
19439,note_on,,59,0,7,,,,,,,,,,,,,,,,10,,66,0
19439,note_on,,59,0,8,,,,,,,,,,,,,,,,11,,63,0
19439,note_on,,59,0,9,,,,,,,,,,,,,,,,12,,59,0
19440,note_on,,1,0,9,,,,,,,,,,,,,,,,12,,59,48
19440,note_on,,1,0,8,,,,,,,,,,,,,,,,11,,64,48
19440,note_on,,1,0,7,,,,,,,,,,,,,,,,10,,68,48
19454,note_on,,14,0,7,,,,,,,,,,,,,,,,10,,68,0
19455,note_on,,1,0,7,,,,,,,,,,,,,,,,10,,69,48
19469,note_on,,14,0,7,,,,,,,,,,,,,,,,10,,69,0
19470,note_on,,1,0,7,,,,,,,,,,,,,,,,10,,66,48
19484,note_on,,14,0,7,,,,,,,,,,,,,,,,10,,66,0
19485,note_on,,1,0,7,,,,,,,,,,,,,,,,10,,68,48
19499,note_on,,59,0,9,,,,,,,,,,,,,,,,12,,59,0
19499,note_on,,14,0,7,,,,,,,,,,,,,,,,10,,68,0
19499,note_on,,59,0,8,,,,,,,,,,,,,,,,11,,64,0
19500,note_on,,1,0,7,,,,,,,,,,,,,,,,10,,66,48
19500,note_on,,1,0,9,,,,,,,,,,,,,,,,12,,59,48
19500,note_on,,1,0,8,,,,,,,,,,,,,,,,11,,63,48
19559,note_on,,59,0,8,,,,,,,,,,,,,,,,11,,63,0
19559,note_on,,59,0,7,,,,,,,,,,,,,,,,10,,66,0
19559,note_on,,59,0,9,,,,,,,,,,,,,,,,12,,59,0
19560,note_on,,1,0,7,,,,,,,,,,,,,,,,10,,68,48
19560,note_on,,1,0,8,,,,,,,,,,,,,,,,11,,64,48
19560,note_on,,1,0,9,,,,,,,,,,,,,,,,12,,59,48
19574,note_on,,14,0,7,,,,,,,,,,,,,,,,10,,68,0
19575,note_on,,1,0,7,,,,,,,,,,,,,,,,10,,69,48
19589,note_on,,14,0,7,,,,,,,,,,,,,,,,10,,69,0
19590,note_on,,1,0,7,,,,,,,,,,,,,,,,10,,66,48
19604,note_on,,14,0,7,,,,,,,,,,,,,,,,10,,66,0
19605,note_on,,1,0,7,,,,,,,,,,,,,,,,10,,68,48
19619,note_on,,14,0,7,,,,,,,,,,,,,,,,10,,68,0
19619,note_on,,59,0,8,,,,,,,,,,,,,,,,11,,64,0
19619,note_on,,59,0,9,,,,,,,,,,,,,,,,12,,59,0
19620,note_on,,1,0,9,,,,,,,,,,,,,,,,12,,59,72
19620,note_on,,1,0,8,,,,,,,,,,,,,,,,11,,63,48
19620,note_on,,1,0,7,,,,,,,,,,,,,,,,10,,66,48
19679,note_on,,479,0,10,,,,,,,,,,,,,,,,13,,47,0
19679,note_on,,59,0,9,,,,,,,,,,,,,,,,12,,59,0
19679,note_on,,0,0,11,,,,,,,,,,,,,,,,15,,54,0
19679,note_on,,0,0,11,,,,,,,,,,,,,,,,15,,63,0
19679,note_on,,0,0,11,,,,,,,,,,,,,,,,15,,66,0
19679,note_on,,59,0,7,,,,,,,,,,,,,,,,10,,66,0
19679,note_on,,479,0,11,,,,,,,,,,,,,,,,15,,47,0
19679,note_on,,0,0,11,,,,,,,,,,,,,,,,15,,71,0
19679,note_on,,479,0,6,,,,,,,,,,,,,,,,7,,59,0
19679,note_on,,59,0,8,,,,,,,,,,,,,,,,11,,63,0
19680,note_on,,1,0,9,,,,,,,,,,,,,,,,12,,59,72
19680,note_on,,1,0,8,,,,,,,,,,,,,,,,11,,76,48
19680,note_on,,1,0,7,,,,,,,,,,,,,,,,10,,80,48
19694,note_on,,14,0,7,,,,,,,,,,,,,,,,10,,80,0
19695,note_on,,1,0,7,,,,,,,,,,,,,,,,10,,81,48
19709,note_on,,14,0,7,,,,,,,,,,,,,,,,10,,81,0
19710,note_on,,1,0,7,,,,,,,,,,,,,,,,10,,78,48
19724,note_on,,14,0,7,,,,,,,,,,,,,,,,10,,78,0
19725,note_on,,1,0,7,,,,,,,,,,,,,,,,10,,80,48
19739,note_on,,59,0,8,,,,,,,,,,,,,,,,11,,76,0
19739,note_on,,14,0,7,,,,,,,,,,,,,,,,10,,80,0
19740,note_on,,1,0,8,,,,,,,,,,,,,,,,11,,75,48
19740,note_on,,1,0,7,,,,,,,,,,,,,,,,10,,78,48
19799,note_on,,59,0,8,,,,,,,,,,,,,,,,11,,75,0
19799,note_on,,59,0,7,,,,,,,,,,,,,,,,10,,78,0
19799,note_on,,119,0,9,,,,,,,,,,,,,,,,12,,59,0
19800,note_on,,1,0,8,,,,,,,,,,,,,,,,11,,76,48
19800,note_on,,1,0,7,,,,,,,,,,,,,,,,10,,80,48
19814,note_on,,14,0,7,,,,,,,,,,,,,,,,10,,80,0
19815,note_on,,1,0,7,,,,,,,,,,,,,,,,10,,81,48
19829,note_on,,14,0,7,,,,,,,,,,,,,,,,10,,81,0
19830,note_on,,1,0,7,,,,,,,,,,,,,,,,10,,78,48
19844,note_on,,14,0,7,,,,,,,,,,,,,,,,10,,78,0
19845,note_on,,1,0,7,,,,,,,,,,,,,,,,10,,80,48
19859,note_on,,59,0,8,,,,,,,,,,,,,,,,11,,76,0
19859,note_on,,14,0,7,,,,,,,,,,,,,,,,10,,80,0
19860,note_on,,1,0,7,,,,,,,,,,,,,,,,10,,78,48
19860,note_on,,1,0,8,,,,,,,,,,,,,,,,11,,75,48
19919,note_on,,59,0,7,,,,,,,,,,,,,,,,10,,78,0
19919,note_on,,59,0,8,,,,,,,,,,,,,,,,11,,75,0
19920,note_on,,1,0,7,,,,,,,,,,,,,,,,10,,80,48
19920,note_on,,1,0,8,,,,,,,,,,,,,,,,11,,76,48
19934,note_on,,14,0,7,,,,,,,,,,,,,,,,10,,80,0
19935,note_on,,1,0,7,,,,,,,,,,,,,,,,10,,81,48
19949,note_on,,14,0,7,,,,,,,,,,,,,,,,10,,81,0
19950,note_on,,1,0,7,,,,,,,,,,,,,,,,10,,78,48
19964,note_on,,14,0,7,,,,,,,,,,,,,,,,10,,78,0
19965,note_on,,1,0,7,,,,,,,,,,,,,,,,10,,80,48
19979,note_on,,59,0,8,,,,,,,,,,,,,,,,11,,76,0
19979,note_on,,14,0,7,,,,,,,,,,,,,,,,10,,80,0
19980,note_on,,1,0,8,,,,,,,,,,,,,,,,11,,75,48
19980,note_on,,1,0,7,,,,,,,,,,,,,,,,10,,78,48
20039,note_on,,59,0,8,,,,,,,,,,,,,,,,11,,75,0
20039,note_on,,59,0,7,,,,,,,,,,,,,,,,10,,78,0
20040,note_on,,1,0,8,,,,,,,,,,,,,,,,11,,76,48
20040,note_on,,1,0,7,,,,,,,,,,,,,,,,10,,80,48
20099,note_on,,59,0,8,,,,,,,,,,,,,,,,11,,76,0
20099,note_on,,59,0,7,,,,,,,,,,,,,,,,10,,80,0
20100,note_on,,14941,0,5,,,,,,,,,,,,,,,,2,,54,72
20100,note_on,,421,0,11,,,,,,,,,,,,,,,,15,,54,72
20100,note_on,,0,0,11,,,,,,,,,,,,,,,,15,,70,72
20100,note_on,,421,0,10,,,,,,,,,,,,,,,,13,,54,72
20100,note_on,,0,0,11,,,,,,,,,,,,,,,,15,,66,72
20100,note_on,,0,0,11,,,,,,,,,,,,,,,,15,,61,72
20100,note_on,,1,0,8,,,,,,,,,,,,,,,,11,,70,72
20100,note_on,,1,0,7,,,,,,,,,,,,,,,,10,,73,72
20100,note_on,,301,0,9,,,,,,,,,,,,,,,,12,,66,72
20159,note_on,,59,0,11,,,,,,,,,,,,,,,,15,,54,0
20159,note_on,,0,0,11,,,,,,,,,,,,,,,,15,,70,0
20159,note_on,,59,0,9,,,,,,,,,,,,,,,,12,,66,0
20159,note_on,,59,0,7,,,,,,,,,,,,,,,,10,,73,0
20159,note_on,,59,0,8,,,,,,,,,,,,,,,,11,,70,0
20159,note_on,,0,0,11,,,,,,,,,,,,,,,,15,,66,0
20159,note_on,,59,0,10,,,,,,,,,,,,,,,,13,,54,0
20159,note_on,,0,0,11,,,,,,,,,,,,,,,,15,,61,0
20159,note_on,,59,0,5,,,,,,,,,,,,,,,,2,,54,0
20160,note_on,,1,0,9,,,,,,,,,,,,,,,,12,,66,72
20160,note_on,,1,0,8,,,,,,,,,,,,,,,,11,,71,72
20160,note_on,,1,0,10,,,,,,,,,,,,,,,,13,,59,72
20160,note_on,,1,0,11,,,,,,,,,,,,,,,,15,,59,72
20160,note_on,,0,0,11,,,,,,,,,,,,,,,,15,,66,72
20160,note_on,,1,0,5,,,,,,,,,,,,,,,,2,,59,72
20160,note_on,,0,0,11,,,,,,,,,,,,,,,,15,,71,72
20160,note_on,,1,0,7,,,,,,,,,,,,,,,,10,,75,72
20160,note_on,,0,0,11,,,,,,,,,,,,,,,,15,,63,72
20219,note_on,,0,0,11,,,,,,,,,,,,,,,,15,,63,0
20219,note_on,,0,0,11,,,,,,,,,,,,,,,,15,,66,0
20219,note_on,,59,0,10,,,,,,,,,,,,,,,,13,,59,0
20219,note_on,,59,0,11,,,,,,,,,,,,,,,,15,,59,0
20219,note_on,,59,0,8,,,,,,,,,,,,,,,,11,,71,0
20219,note_on,,59,0,9,,,,,,,,,,,,,,,,12,,66,0
20219,note_on,,59,0,5,,,,,,,,,,,,,,,,2,,59,0
20220,note_on,,1,0,11,,,,,,,,,,,,,,,,15,,52,72
20220,note_on,,0,0,11,,,,,,,,,,,,,,,,15,,68,72
20220,note_on,,0,0,11,,,,,,,,,,,,,,,,15,,64,72
20220,note_on,,1,0,10,,,,,,,,,,,,,,,,13,,52,72
20220,note_on,,1,0,8,,,,,,,,,,,,,,,,11,,71,72
20220,note_on,,1,0,9,,,,,,,,,,,,,,,,12,,68,72
20220,note_on,,1,0,5,,,,,,,,,,,,,,,,2,,52,72
20249,note_on,,89,0,7,,,,,,,,,,,,,,,,10,,75,0
20250,note_on,,1,0,7,,,,,,,,,,,,,,,,10,,76,72
20279,note_on,,59,0,11,,,,,,,,,,,,,,,,15,,52,0
20279,note_on,,0,0,11,,,,,,,,,,,,,,,,15,,68,0
20279,note_on,,29,0,7,,,,,,,,,,,,,,,,10,,76,0
20279,note_on,,59,0,5,,,,,,,,,,,,,,,,2,,52,0
20279,note_on,,0,0,11,,,,,,,,,,,,,,,,15,,64,0
20279,note_on,,59,0,9,,,,,,,,,,,,,,,,12,,68,0
20279,note_on,,59,0,10,,,,,,,,,,,,,,,,13,,52,0
20280,note_on,,1,0,9,,,,,,,,,,,,,,,,12,,61,72
20280,note_on,,0,0,11,,,,,,,,,,,,,,,,15,,66,72
20280,note_on,,0,0,11,,,,,,,,,,,,,,,,15,,61,72
20280,note_on,,1,0,7,,,,,,,,,,,,,,,,10,,73,72
20280,note_on,,1,0,10,,,,,,,,,,,,,,,,13,,54,72
20280,note_on,,1,0,11,,,,,,,,,,,,,,,,15,,54,72
20280,note_on,,1,0,5,,,,,,,,,,,,,,,,2,,54,72
20294,note_on,,14,0,7,,,,,,,,,,,,,,,,10,,73,0
20295,note_on,,1,0,7,,,,,,,,,,,,,,,,10,,75,72
20309,note_on,,14,0,7,,,,,,,,,,,,,,,,10,,75,0
20310,note_on,,1,0,7,,,,,,,,,,,,,,,,10,,73,72
20324,note_on,,14,0,7,,,,,,,,,,,,,,,,10,,73,0
20325,note_on,,1,0,7,,,,,,,,,,,,,,,,10,,75,72
20339,note_on,,59,0,11,,,,,,,,,,,,,,,,15,,71,0
20339,note_on,,0,0,11,,,,,,,,,,,,,,,,15,,54,0
20339,note_on,,119,0,8,,,,,,,,,,,,,,,,11,,71,0
20339,note_on,,59,0,10,,,,,,,,,,,,,,,,13,,54,0
20339,note_on,,59,0,9,,,,,,,,,,,,,,,,12,,61,0
20339,note_on,,59,0,5,,,,,,,,,,,,,,,,2,,54,0
20339,note_on,,14,0,7,,,,,,,,,,,,,,,,10,,75,0
20340,note_on,,1,0,7,,,,,,,,,,,,,,,,10,,73,72
20340,note_on,,1,0,11,,,,,,,,,,,,,,,,15,,42,72
20340,note_on,,1,0,9,,,,,,,,,,,,,,,,12,,66,72
20340,note_on,,1,0,10,,,,,,,,,,,,,,,,13,,42,72
20340,note_on,,1,0,5,,,,,,,,,,,,,,,,2,,42,72
20340,note_on,,1,0,8,,,,,,,,,,,,,,,,11,,70,72
20340,note_on,,0,0,11,,,,,,,,,,,,,,,,15,,70,72
20354,note_on,,14,0,7,,,,,,,,,,,,,,,,10,,73,0
20355,note_on,,1,0,7,,,,,,,,,,,,,,,,10,,75,72
20369,note_on,,14,0,7,,,,,,,,,,,,,,,,10,,75,0
20370,note_on,,1,0,7,,,,,,,,,,,,,,,,10,,71,72
20384,note_on,,14,0,7,,,,,,,,,,,,,,,,10,,71,0
20385,note_on,,1,0,7,,,,,,,,,,,,,,,,10,,73,72
20399,note_on,,59,0,11,,,,,,,,,,,,,,,,15,,66,0
20399,note_on,,0,0,11,,,,,,,,,,,,,,,,15,,61,0
20399,note_on,,0,0,11,,,,,,,,,,,,,,,,15,,42,0
20399,note_on,,0,0,11,,,,,,,,,,,,,,,,15,,70,0
20399,note_on,,59,0,9,,,,,,,,,,,,,,,,12,,66,0
20399,note_on,,59,0,10,,,,,,,,,,,,,,,,13,,42,0
20399,note_on,,14,0,7,,,,,,,,,,,,,,,,10,,73,0
20399,note_on,,59,0,5,,,,,,,,,,,,,,,,2,,42,0
20399,note_on,,59,0,8,,,,,,,,,,,,,,,,11,,70,0
20400,note_on,,1,0,9,,,,,,,,,,,,,,,,12,,63,72
20400,note_on,,1,0,10,,,,,,,,,,,,,,,,13,,47,72
20400,note_on,,1,0,7,,,,,,,,,,,,,,,,10,,71,72
20400,note_on,,1,0,5,,,,,,,,,,,,,,,,2,,47,72
20400,note_on,,0,0,11,,,,,,,,,,,,,,,,15,,63,72
20400,note_on,,0,0,11,,,,,,,,,,,,,,,,15,,66,72
20400,note_on,,0,0,11,,,,,,,,,,,,,,,,15,,71,72
20400,note_on,,1,0,8,,,,,,,,,,,,,,,,11,,71,72
20400,note_on,,1,0,11,,,,,,,,,,,,,,,,15,,47,72
20519,note_on,,0,0,11,,,,,,,,,,,,,,,,15,,63,0
20519,note_on,,0,0,11,,,,,,,,,,,,,,,,15,,66,0
20519,note_on,,0,0,11,,,,,,,,,,,,,,,,15,,71,0
20519,note_on,,119,0,11,,,,,,,,,,,,,,,,15,,47,0
20519,note_on,,119,0,10,,,,,,,,,,,,,,,,13,,47,0
20519,note_on,,119,0,9,,,,,,,,,,,,,,,,12,,63,0
20519,note_on,,119,0,8,,,,,,,,,,,,,,,,11,,71,0
20519,note_on,,119,0,5,,,,,,,,,,,,,,,,2,,47,0
20519,note_on,,119,0,7,,,,,,,,,,,,,,,,10,,71,0
20640,note_on,,121,0,5,,,,,,,,,,,,,,,,2,,59,48
20640,note_on,,961,0,6,,,,,,,,,,,,,,,,7,,59,65
20640,note_on,,0,0,11,,,,,,,,,,,,,,,,15,,66,48
20640,note_on,,0,0,11,,,,,,,,,,,,,,,,15,,63,48
20640,note_on,,121,0,11,,,,,,,,,,,,,,,,15,,59,48
20640,note_on,,121,0,10,,,,,,,,,,,,,,,,13,,59,48
20759,note_on,,119,0,6,,,,,,,,,,,,,,,,7,,59,0
20759,note_on,,0,0,11,,,,,,,,,,,,,,,,15,,63,0
20759,note_on,,0,0,11,,,,,,,,,,,,,,,,15,,66,0
20759,note_on,,119,0,11,,,,,,,,,,,,,,,,15,,59,0
20759,note_on,,119,0,5,,,,,,,,,,,,,,,,2,,59,0
20759,note_on,,119,0,10,,,,,,,,,,,,,,,,13,,59,0
20760,note_on,,1,0,10,,,,,,,,,,,,,,,,13,,57,48
20760,note_on,,1,0,6,,,,,,,,,,,,,,,,7,,63,59
20760,note_on,,1,0,5,,,,,,,,,,,,,,,,2,,57,48
20760,note_on,,0,0,11,,,,,,,,,,,,,,,,15,,63,48
20760,note_on,,0,0,11,,,,,,,,,,,,,,,,15,,66,48
20760,note_on,,0,0,11,,,,,,,,,,,,,,,,15,,71,48
20760,note_on,,1,0,11,,,,,,,,,,,,,,,,15,,57,48
20879,note_on,,119,0,10,,,,,,,,,,,,,,,,13,,57,0
20879,note_on,,0,0,11,,,,,,,,,,,,,,,,15,,63,0
20879,note_on,,119,0,11,,,,,,,,,,,,,,,,15,,57,0
20879,note_on,,119,0,6,,,,,,,,,,,,,,,,7,,63,0
20879,note_on,,0,0,11,,,,,,,,,,,,,,,,15,,71,0
20879,note_on,,0,0,11,,,,,,,,,,,,,,,,15,,66,0
20879,note_on,,119,0,5,,,,,,,,,,,,,,,,2,,57,0
20880,note_on,,0,0,11,,,,,,,,,,,,,,,,15,,71,48
20880,note_on,,1,0,10,,,,,,,,,,,,,,,,13,,56,48
20880,note_on,,1,0,5,,,,,,,,,,,,,,,,2,,56,48
20880,note_on,,1,0,6,,,,,,,,,,,,,,,,7,,64,65
20880,note_on,,0,0,11,,,,,,,,,,,,,,,,15,,59,48
20880,note_on,,0,0,11,,,,,,,,,,,,,,,,15,,64,48
20880,note_on,,1,0,11,,,,,,,,,,,,,,,,15,,56,48
20999,note_on,,119,0,5,,,,,,,,,,,,,,,,2,,56,0
20999,note_on,,119,0,6,,,,,,,,,,,,,,,,7,,64,0
20999,note_on,,0,0,11,,,,,,,,,,,,,,,,15,,59,0
20999,note_on,,0,0,11,,,,,,,,,,,,,,,,15,,71,0
20999,note_on,,119,0,10,,,,,,,,,,,,,,,,13,,56,0
20999,note_on,,119,0,11,,,,,,,,,,,,,,,,15,,56,0
20999,note_on,,0,0,11,,,,,,,,,,,,,,,,15,,64,0
21000,note_on,,1,0,6,,,,,,,,,,,,,,,,7,,52,59
21119,note_on,,119,0,6,,,,,,,,,,,,,,,,7,,52,0
21120,note_on,,0,0,11,,,,,,,,,,,,,,,,15,,64,48
21120,note_on,,0,0,11,,,,,,,,,,,,,,,,15,,68,48
21120,note_on,,601,0,8,,,,,,,,,,,,,,,,11,,68,72
21120,note_on,,121,0,11,,,,,,,,,,,,,,,,15,,52,48
21120,note_on,,0,0,11,,,,,,,,,,,,,,,,15,,59,48
21120,note_on,,121,0,5,,,,,,,,,,,,,,,,2,,52,48
21120,note_on,,601,0,7,,,,,,,,,,,,,,,,10,,76,72
21120,note_on,,121,0,10,,,,,,,,,,,,,,,,13,,52,48
21120,note_on,,601,0,9,,,,,,,,,,,,,,,,12,,59,72
21239,note_on,,119,0,10,,,,,,,,,,,,,,,,13,,52,0
21239,note_on,,119,0,9,,,,,,,,,,,,,,,,12,,59,0
21239,note_on,,119,0,11,,,,,,,,,,,,,,,,15,,52,0
21239,note_on,,119,0,5,,,,,,,,,,,,,,,,2,,52,0
21239,note_on,,0,0,11,,,,,,,,,,,,,,,,15,,64,0
21239,note_on,,0,0,11,,,,,,,,,,,,,,,,15,,68,0
21239,note_on,,119,0,7,,,,,,,,,,,,,,,,10,,76,0
21239,note_on,,119,0,8,,,,,,,,,,,,,,,,11,,68,0
21239,note_on,,0,0,11,,,,,,,,,,,,,,,,15,,59,0
21240,note_on,,1,0,7,,,,,,,,,,,,,,,,10,,80,72
21240,note_on,,0,0,11,,,,,,,,,,,,,,,,15,,64,48
21240,note_on,,1,0,9,,,,,,,,,,,,,,,,12,,64,72
21240,note_on,,1,0,11,,,,,,,,,,,,,,,,15,,50,48
21240,note_on,,0,0,11,,,,,,,,,,,,,,,,15,,56,48
21240,note_on,,1,0,5,,,,,,,,,,,,,,,,2,,50,48
21240,note_on,,0,0,11,,,,,,,,,,,,,,,,15,,71,48
21240,note_on,,1,0,8,,,,,,,,,,,,,,,,11,,71,72
21240,note_on,,1,0,10,,,,,,,,,,,,,,,,13,,50,48
21254,note_on,,14,0,7,,,,,,,,,,,,,,,,10,,80,0
21255,note_on,,1,0,7,,,,,,,,,,,,,,,,10,,81,72
21269,note_on,,14,0,7,,,,,,,,,,,,,,,,10,,81,0
21270,note_on,,1,0,7,,,,,,,,,,,,,,,,10,,80,72
21284,note_on,,14,0,7,,,,,,,,,,,,,,,,10,,80,0
21285,note_on,,1,0,7,,,,,,,,,,,,,,,,10,,81,72
21299,note_on,,14,0,7,,,,,,,,,,,,,,,,10,,81,0
21300,note_on,,1,0,7,,,,,,,,,,,,,,,,10,,80,72
21314,note_on,,14,0,7,,,,,,,,,,,,,,,,10,,80,0
21315,note_on,,1,0,7,,,,,,,,,,,,,,,,10,,81,72
21329,note_on,,14,0,7,,,,,,,,,,,,,,,,10,,81,0
21330,note_on,,1,0,7,,,,,,,,,,,,,,,,10,,78,72
21344,note_on,,14,0,7,,,,,,,,,,,,,,,,10,,78,0
21345,note_on,,1,0,7,,,,,,,,,,,,,,,,10,,80,72
21359,note_on,,119,0,8,,,,,,,,,,,,,,,,11,,71,0
21359,note_on,,14,0,7,,,,,,,,,,,,,,,,10,,80,0
21359,note_on,,119,0,11,,,,,,,,,,,,,,,,15,,50,0
21359,note_on,,0,0,11,,,,,,,,,,,,,,,,15,,71,0
21359,note_on,,0,0,11,,,,,,,,,,,,,,,,15,,56,0
21359,note_on,,119,0,5,,,,,,,,,,,,,,,,2,,50,0
21359,note_on,,0,0,11,,,,,,,,,,,,,,,,15,,64,0
21359,note_on,,119,0,9,,,,,,,,,,,,,,,,12,,64,0
21359,note_on,,119,0,10,,,,,,,,,,,,,,,,13,,50,0
21360,note_on,,1,0,8,,,,,,,,,,,,,,,,11,,76,72
21360,note_on,,0,0,11,,,,,,,,,,,,,,,,15,,57,48
21360,note_on,,0,0,11,,,,,,,,,,,,,,,,15,,64,48
21360,note_on,,1,0,7,,,,,,,,,,,,,,,,10,,81,72
21360,note_on,,0,0,11,,,,,,,,,,,,,,,,15,,69,48
21360,note_on,,1,0,10,,,,,,,,,,,,,,,,13,,49,48
21360,note_on,,0,0,11,,,,,,,,,,,,,,,,15,,76,48
21360,note_on,,1,0,11,,,,,,,,,,,,,,,,15,,49,48
21360,note_on,,1,0,9,,,,,,,,,,,,,,,,12,,64,72
21360,note_on,,1,0,5,,,,,,,,,,,,,,,,2,,49,48
21479,note_on,,0,0,11,,,,,,,,,,,,,,,,15,,57,0
21479,note_on,,0,0,11,,,,,,,,,,,,,,,,15,,64,0
21479,note_on,,0,0,11,,,,,,,,,,,,,,,,15,,69,0
21479,note_on,,0,0,11,,,,,,,,,,,,,,,,15,,76,0
21479,note_on,,119,0,11,,,,,,,,,,,,,,,,15,,49,0
21479,note_on,,119,0,10,,,,,,,,,,,,,,,,13,,49,0
21479,note_on,,119,0,8,,,,,,,,,,,,,,,,11,,76,0
21479,note_on,,119,0,9,,,,,,,,,,,,,,,,12,,64,0
21479,note_on,,119,0,7,,,,,,,,,,,,,,,,10,,81,0
21479,note_on,,119,0,5,,,,,,,,,,,,,,,,2,,49,0
21480,note_on,,1,0,7,,,,,,,,,,,,,,,,10,,69,72
21599,note_on,,119,0,7,,,,,,,,,,,,,,,,10,,69,0
21600,note_on,,121,0,10,,,,,,,,,,,,,,,,13,,49,48
21600,note_on,,121,0,11,,,,,,,,,,,,,,,,15,,49,48
21600,note_on,,0,0,11,,,,,,,,,,,,,,,,15,,69,48
21600,note_on,,0,0,11,,,,,,,,,,,,,,,,15,,64,48
21600,note_on,,0,0,11,,,,,,,,,,,,,,,,15,,57,48
21600,note_on,,481,0,6,,,,,,,,,,,,,,,,7,,57,62
21719,note_on,,119,0,10,,,,,,,,,,,,,,,,13,,49,0
21719,note_on,,119,0,6,,,,,,,,,,,,,,,,7,,57,0
21719,note_on,,0,0,11,,,,,,,,,,,,,,,,15,,57,0
21719,note_on,,119,0,11,,,,,,,,,,,,,,,,15,,49,0
21719,note_on,,0,0,11,,,,,,,,,,,,,,,,15,,64,0
21719,note_on,,0,0,11,,,,,,,,,,,,,,,,15,,69,0
21720,note_on,,1,0,6,,,,,,,,,,,,,,,,7,,59,64
21720,note_on,,1,0,10,,,,,,,,,,,,,,,,13,,52,48
21720,note_on,,0,0,11,,,,,,,,,,,,,,,,15,,64,48
21720,note_on,,0,0,11,,,,,,,,,,,,,,,,15,,71,48
21720,note_on,,0,0,11,,,,,,,,,,,,,,,,15,,56,48
21720,note_on,,1,0,11,,,,,,,,,,,,,,,,15,,52,48
21839,note_on,,0,0,11,,,,,,,,,,,,,,,,15,,64,0
21839,note_on,,119,0,10,,,,,,,,,,,,,,,,13,,52,0
21839,note_on,,119,0,11,,,,,,,,,,,,,,,,15,,52,0
21839,note_on,,0,0,11,,,,,,,,,,,,,,,,15,,56,0
21839,note_on,,0,0,11,,,,,,,,,,,,,,,,15,,71,0
21839,note_on,,119,0,6,,,,,,,,,,,,,,,,7,,59,0
21840,note_on,,0,0,11,,,,,,,,,,,,,,,,15,,69,48
21840,note_on,,0,0,11,,,,,,,,,,,,,,,,15,,64,48
21840,note_on,,0,0,11,,,,,,,,,,,,,,,,15,,73,48
21840,note_on,,1,0,6,,,,,,,,,,,,,,,,7,,61,65
21840,note_on,,1,0,11,,,,,,,,,,,,,,,,15,,57,48
21840,note_on,,1,0,10,,,,,,,,,,,,,,,,13,,57,48
21929,note_on,,89,0,6,,,,,,,,,,,,,,,,7,,61,0
21930,note_on,,1,0,6,,,,,,,,,,,,,,,,7,,64,66
21959,note_on,,29,0,6,,,,,,,,,,,,,,,,7,,64,0
21959,note_on,,119,0,10,,,,,,,,,,,,,,,,13,,57,0
21959,note_on,,0,0,11,,,,,,,,,,,,,,,,15,,73,0
21959,note_on,,0,0,11,,,,,,,,,,,,,,,,15,,69,0
21959,note_on,,0,0,11,,,,,,,,,,,,,,,,15,,64,0
21959,note_on,,119,0,11,,,,,,,,,,,,,,,,15,,57,0
21960,note_on,,1,0,6,,,,,,,,,,,,,,,,7,,64,66
22020,note_on,,61,0,11,,,,,,,,,,,,,,,,15,,47,48
22020,note_on,,0,0,11,,,,,,,,,,,,,,,,15,,62,48
22020,note_on,,61,0,10,,,,,,,,,,,,,,,,13,,47,48
22020,note_on,,0,0,11,,,,,,,,,,,,,,,,15,,68,48
22020,note_on,,541,0,9,,,,,,,,,,,,,,,,12,,71,72
22020,note_on,,541,0,8,,,,,,,,,,,,,,,,11,,74,72
22020,note_on,,421,0,7,,,,,,,,,,,,,,,,10,,80,72
22079,note_on,,59,0,10,,,,,,,,,,,,,,,,13,,47,0
22079,note_on,,59,0,9,,,,,,,,,,,,,,,,12,,71,0
22079,note_on,,59,0,11,,,,,,,,,,,,,,,,15,,47,0
22079,note_on,,0,0,11,,,,,,,,,,,,,,,,15,,68,0
22079,note_on,,0,0,11,,,,,,,,,,,,,,,,15,,62,0
22079,note_on,,59,0,7,,,,,,,,,,,,,,,,10,,80,0
22079,note_on,,59,0,8,,,,,,,,,,,,,,,,11,,74,0
22080,note_on,,1,0,10,,,,,,,,,,,,,,,,13,,49,48
22080,note_on,,1,0,7,,,,,,,,,,,,,,,,10,,81,72
22080,note_on,,1,0,8,,,,,,,,,,,,,,,,11,,76,72
22080,note_on,,0,0,11,,,,,,,,,,,,,,,,15,,69,48
22080,note_on,,1,0,11,,,,,,,,,,,,,,,,15,,49,48
22080,note_on,,1,0,9,,,,,,,,,,,,,,,,12,,69,72
22080,note_on,,0,0,11,,,,,,,,,,,,,,,,15,,64,48
22139,note_on,,179,0,6,,,,,,,,,,,,,,,,7,,64,0
22140,note_on,,1,0,6,,,,,,,,,,,,,,,,7,,62,58
22169,note_on,,29,0,6,,,,,,,,,,,,,,,,7,,62,0
22170,note_on,,1,0,6,,,,,,,,,,,,,,,,7,,61,61
22199,note_on,,119,0,11,,,,,,,,,,,,,,,,15,,49,0
22199,note_on,,119,0,8,,,,,,,,,,,,,,,,11,,76,0
22199,note_on,,0,0,11,,,,,,,,,,,,,,,,15,,64,0
22199,note_on,,119,0,10,,,,,,,,,,,,,,,,13,,49,0
22199,note_on,,119,0,7,,,,,,,,,,,,,,,,10,,81,0
22199,note_on,,119,0,9,,,,,,,,,,,,,,,,12,,69,0
22199,note_on,,29,0,6,,,,,,,,,,,,,,,,7,,61,0
22200,note_on,,1,0,10,,,,,,,,,,,,,,,,13,,50,48
22200,note_on,,1,0,11,,,,,,,,,,,,,,,,15,,66,48
22200,note_on,,0,0,11,,,,,,,,,,,,,,,,15,,50,48
22200,note_on,,1,0,6,,,,,,,,,,,,,,,,7,,59,64
22259,note_on,,59,0,6,,,,,,,,,,,,,,,,7,,59,0
22260,note_on,,1,0,6,,,,,,,,,,,,,,,,7,,57,62
22319,note_on,,0,0,11,,,,,,,,,,,,,,,,15,,50,0
22319,note_on,,0,0,11,,,,,,,,,,,,,,,,15,,66,0
22319,note_on,,119,0,11,,,,,,,,,,,,,,,,15,,69,0
22319,note_on,,59,0,6,,,,,,,,,,,,,,,,7,,57,0
22319,note_on,,119,0,10,,,,,,,,,,,,,,,,13,,50,0
22320,note_on,,0,0,11,,,,,,,,,,,,,,,,15,,64,48
22320,note_on,,1,0,11,,,,,,,,,,,,,,,,15,,52,48
22320,note_on,,0,0,11,,,,,,,,,,,,,,,,15,,59,48
22320,note_on,,1,0,6,,,,,,,,,,,,,,,,7,,56,62
22320,note_on,,0,0,11,,,,,,,,,,,,,,,,15,,68,48
22320,note_on,,1,0,10,,,,,,,,,,,,,,,,13,,52,48
22379,note_on,,59,0,6,,,,,,,,,,,,,,,,7,,56,0
22380,note_on,,1,0,6,,,,,,,,,,,,,,,,7,,64,65
22439,note_on,,119,0,11,,,,,,,,,,,,,,,,15,,52,0
22439,note_on,,0,0,11,,,,,,,,,,,,,,,,15,,68,0
22439,note_on,,0,0,11,,,,,,,,,,,,,,,,15,,64,0
22439,note_on,,0,0,11,,,,,,,,,,,,,,,,15,,59,0
22439,note_on,,59,0,6,,,,,,,,,,,,,,,,7,,64,0
22439,note_on,,119,0,10,,,,,,,,,,,,,,,,13,,52,0
22440,note_on,,1,0,6,,,,,,,,,,,,,,,,7,,64,64
22500,note_on,,0,0,11,,,,,,,,,,,,,,,,15,,71,48
22500,note_on,,301,0,8,,,,,,,,,,,,,,,,11,,71,72
22500,note_on,,61,0,10,,,,,,,,,,,,,,,,13,,50,48
22500,note_on,,301,0,9,,,,,,,,,,,,,,,,12,,64,72
22500,note_on,,301,0,7,,,,,,,,,,,,,,,,10,,80,72
22500,note_on,,61,0,11,,,,,,,,,,,,,,,,15,,50,48
22500,note_on,,0,0,11,,,,,,,,,,,,,,,,15,,68,48
22500,note_on,,0,0,11,,,,,,,,,,,,,,,,15,,64,48
22559,note_on,,59,0,10,,,,,,,,,,,,,,,,13,,50,0
22559,note_on,,59,0,7,,,,,,,,,,,,,,,,10,,80,0
22559,note_on,,59,0,8,,,,,,,,,,,,,,,,11,,71,0
22559,note_on,,0,0,11,,,,,,,,,,,,,,,,15,,71,0
22559,note_on,,0,0,11,,,,,,,,,,,,,,,,15,,68,0
22559,note_on,,0,0,11,,,,,,,,,,,,,,,,15,,64,0
22559,note_on,,59,0,9,,,,,,,,,,,,,,,,12,,64,0
22559,note_on,,59,0,11,,,,,,,,,,,,,,,,15,,50,0
22560,note_on,,1,0,9,,,,,,,,,,,,,,,,12,,64,72
22560,note_on,,0,0,11,,,,,,,,,,,,,,,,15,,64,48
22560,note_on,,1,0,10,,,,,,,,,,,,,,,,13,,49,48
22560,note_on,,0,0,11,,,,,,,,,,,,,,,,15,,69,48
22560,note_on,,1,0,11,,,,,,,,,,,,,,,,15,,49,48
22560,note_on,,1,0,8,,,,,,,,,,,,,,,,11,,73,72
22560,note_on,,0,0,11,,,,,,,,,,,,,,,,15,,73,48
22560,note_on,,1,0,7,,,,,,,,,,,,,,,,10,,81,72
22619,note_on,,179,0,6,,,,,,,,,,,,,,,,7,,64,0
22620,note_on,,1,0,6,,,,,,,,,,,,,,,,7,,66,61
22649,note_on,,29,0,6,,,,,,,,,,,,,,,,7,,66,0
22650,note_on,,1,0,6,,,,,,,,,,,,,,,,7,,64,64
22679,note_on,,29,0,6,,,,,,,,,,,,,,,,7,,64,0
22679,note_on,,119,0,10,,,,,,,,,,,,,,,,13,,49,0
22679,note_on,,119,0,7,,,,,,,,,,,,,,,,10,,81,0
22679,note_on,,119,0,11,,,,,,,,,,,,,,,,15,,49,0
22679,note_on,,0,0,11,,,,,,,,,,,,,,,,15,,73,0
22679,note_on,,0,0,11,,,,,,,,,,,,,,,,15,,69,0
22679,note_on,,0,0,11,,,,,,,,,,,,,,,,15,,64,0
22679,note_on,,119,0,8,,,,,,,,,,,,,,,,11,,73,0
22679,note_on,,119,0,9,,,,,,,,,,,,,,,,12,,64,0
22680,note_on,,1,0,11,,,,,,,,,,,,,,,,15,,50,48
22680,note_on,,0,0,11,,,,,,,,,,,,,,,,15,,71,48
22680,note_on,,1,0,10,,,,,,,,,,,,,,,,13,,50,48
22680,note_on,,0,0,11,,,,,,,,,,,,,,,,15,,66,48
22680,note_on,,1,0,6,,,,,,,,,,,,,,,,7,,62,61
22680,note_on,,0,0,11,,,,,,,,,,,,,,,,15,,62,48
22709,note_on,,29,0,6,,,,,,,,,,,,,,,,7,,62,0
22710,note_on,,1,0,6,,,,,,,,,,,,,,,,7,,61,65
22739,note_on,,29,0,6,,,,,,,,,,,,,,,,7,,61,0
22740,note_on,,1,0,6,,,,,,,,,,,,,,,,7,,59,58
22769,note_on,,29,0,6,,,,,,,,,,,,,,,,7,,59,0
22770,note_on,,1,0,6,,,,,,,,,,,,,,,,7,,57,58
22799,note_on,,29,0,6,,,,,,,,,,,,,,,,7,,57,0
22799,note_on,,119,0,10,,,,,,,,,,,,,,,,13,,50,0
22799,note_on,,0,0,11,,,,,,,,,,,,,,,,15,,62,0
22799,note_on,,119,0,11,,,,,,,,,,,,,,,,15,,50,0
22799,note_on,,0,0,11,,,,,,,,,,,,,,,,15,,66,0
22800,note_on,,0,0,11,,,,,,,,,,,,,,,,15,,68,48
22800,note_on,,1,0,11,,,,,,,,,,,,,,,,15,,52,48
22800,note_on,,0,0,11,,,,,,,,,,,,,,,,15,,59,48
22800,note_on,,1,0,10,,,,,,,,,,,,,,,,13,,52,48
22800,note_on,,0,0,11,,,,,,,,,,,,,,,,15,,64,48
22800,note_on,,1,0,6,,,,,,,,,,,,,,,,7,,56,67
22859,note_on,,59,0,6,,,,,,,,,,,,,,,,7,,56,0
22860,note_on,,1,0,6,,,,,,,,,,,,,,,,7,,64,58
22919,note_on,,119,0,11,,,,,,,,,,,,,,,,15,,71,0
22919,note_on,,119,0,10,,,,,,,,,,,,,,,,13,,52,0
22919,note_on,,59,0,6,,,,,,,,,,,,,,,,7,,64,0
22919,note_on,,0,0,11,,,,,,,,,,,,,,,,15,,52,0
22919,note_on,,0,0,11,,,,,,,,,,,,,,,,15,,68,0
22919,note_on,,0,0,11,,,,,,,,,,,,,,,,15,,64,0
22919,note_on,,0,0,11,,,,,,,,,,,,,,,,15,,59,0
22920,note_on,,1,0,6,,,,,,,,,,,,,,,,7,,64,61
22980,note_on,,301,0,9,,,,,,,,,,,,,,,,12,,64,72
22980,note_on,,0,0,11,,,,,,,,,,,,,,,,15,,71,48
22980,note_on,,0,0,11,,,,,,,,,,,,,,,,15,,68,48
22980,note_on,,301,0,8,,,,,,,,,,,,,,,,11,,71,72
22980,note_on,,301,0,7,,,,,,,,,,,,,,,,10,,80,72
22980,note_on,,61,0,10,,,,,,,,,,,,,,,,13,,50,48
22980,note_on,,61,0,11,,,,,,,,,,,,,,,,15,,50,48
22980,note_on,,0,0,11,,,,,,,,,,,,,,,,15,,64,48
23039,note_on,,0,0,11,,,,,,,,,,,,,,,,15,,71,0
23039,note_on,,0,0,11,,,,,,,,,,,,,,,,15,,68,0
23039,note_on,,59,0,10,,,,,,,,,,,,,,,,13,,50,0
23039,note_on,,59,0,8,,,,,,,,,,,,,,,,11,,71,0
23039,note_on,,59,0,9,,,,,,,,,,,,,,,,12,,64,0
23039,note_on,,59,0,11,,,,,,,,,,,,,,,,15,,50,0
23039,note_on,,59,0,7,,,,,,,,,,,,,,,,10,,80,0
23039,note_on,,0,0,11,,,,,,,,,,,,,,,,15,,64,0
23040,note_on,,0,0,11,,,,,,,,,,,,,,,,15,,64,48
23040,note_on,,1,0,10,,,,,,,,,,,,,,,,13,,49,48
23040,note_on,,1,0,11,,,,,,,,,,,,,,,,15,,49,48
23040,note_on,,1,0,8,,,,,,,,,,,,,,,,11,,73,72
23040,note_on,,0,0,11,,,,,,,,,,,,,,,,15,,73,48
23040,note_on,,0,0,11,,,,,,,,,,,,,,,,15,,69,48
23040,note_on,,1,0,9,,,,,,,,,,,,,,,,12,,64,72
23040,note_on,,1,0,7,,,,,,,,,,,,,,,,10,,81,72
23099,note_on,,179,0,6,,,,,,,,,,,,,,,,7,,64,0
23100,note_on,,1,0,6,,,,,,,,,,,,,,,,7,,66,59
23129,note_on,,29,0,6,,,,,,,,,,,,,,,,7,,66,0
23130,note_on,,1,0,6,,,,,,,,,,,,,,,,7,,64,62
23159,note_on,,119,0,7,,,,,,,,,,,,,,,,10,,81,0
23159,note_on,,119,0,11,,,,,,,,,,,,,,,,15,,49,0
23159,note_on,,119,0,9,,,,,,,,,,,,,,,,12,,64,0
23159,note_on,,119,0,10,,,,,,,,,,,,,,,,13,,49,0
23159,note_on,,0,0,11,,,,,,,,,,,,,,,,15,,73,0
23159,note_on,,119,0,8,,,,,,,,,,,,,,,,11,,73,0
23159,note_on,,0,0,11,,,,,,,,,,,,,,,,15,,69,0
23159,note_on,,29,0,6,,,,,,,,,,,,,,,,7,,64,0
23159,note_on,,0,0,11,,,,,,,,,,,,,,,,15,,64,0
23160,note_on,,1,0,6,,,,,,,,,,,,,,,,7,,62,62
23160,note_on,,1,0,10,,,,,,,,,,,,,,,,13,,50,48
23160,note_on,,1,0,11,,,,,,,,,,,,,,,,15,,50,48
23160,note_on,,0,0,11,,,,,,,,,,,,,,,,15,,57,48
23160,note_on,,0,0,11,,,,,,,,,,,,,,,,15,,69,48
23160,note_on,,0,0,11,,,,,,,,,,,,,,,,15,,78,48
23189,note_on,,29,0,6,,,,,,,,,,,,,,,,7,,62,0
23190,note_on,,1,0,6,,,,,,,,,,,,,,,,7,,61,60
23219,note_on,,29,0,6,,,,,,,,,,,,,,,,7,,61,0
23220,note_on,,1,0,6,,,,,,,,,,,,,,,,7,,59,62
23249,note_on,,29,0,6,,,,,,,,,,,,,,,,7,,59,0
23250,note_on,,1,0,6,,,,,,,,,,,,,,,,7,,57,60
23279,note_on,,29,0,6,,,,,,,,,,,,,,,,7,,57,0
23279,note_on,,119,0,10,,,,,,,,,,,,,,,,13,,50,0
23279,note_on,,119,0,11,,,,,,,,,,,,,,,,15,,50,0
23279,note_on,,0,0,11,,,,,,,,,,,,,,,,15,,78,0
23279,note_on,,0,0,11,,,,,,,,,,,,,,,,15,,69,0
23279,note_on,,0,0,11,,,,,,,,,,,,,,,,15,,57,0
23280,note_on,,1,0,11,,,,,,,,,,,,,,,,15,,52,48
23280,note_on,,0,0,11,,,,,,,,,,,,,,,,15,,71,48
23280,note_on,,1,0,10,,,,,,,,,,,,,,,,13,,52,48
23280,note_on,,0,0,11,,,,,,,,,,,,,,,,15,,64,48
23280,note_on,,1,0,6,,,,,,,,,,,,,,,,7,,56,60
23280,note_on,,0,0,11,,,,,,,,,,,,,,,,15,,68,48
23309,note_on,,29,0,6,,,,,,,,,,,,,,,,7,,56,0
23310,note_on,,1,0,6,,,,,,,,,,,,,,,,7,,54,64
23339,note_on,,29,0,6,,,,,,,,,,,,,,,,7,,54,0
23340,note_on,,181,0,8,,,,,,,,,,,,,,,,11,,68,72
23340,note_on,,1,0,6,,,,,,,,,,,,,,,,7,,52,66
23340,note_on,,181,0,7,,,,,,,,,,,,,,,,10,,71,72
23340,note_on,,181,0,9,,,,,,,,,,,,,,,,12,,64,72
23399,note_on,,59,0,7,,,,,,,,,,,,,,,,10,,71,0
23399,note_on,,59,0,9,,,,,,,,,,,,,,,,12,,64,0
23399,note_on,,119,0,11,,,,,,,,,,,,,,,,15,,52,0
23399,note_on,,0,0,11,,,,,,,,,,,,,,,,15,,71,0
23399,note_on,,0,0,11,,,,,,,,,,,,,,,,15,,64,0
23399,note_on,,59,0,8,,,,,,,,,,,,,,,,11,,68,0
23399,note_on,,119,0,10,,,,,,,,,,,,,,,,13,,52,0
23399,note_on,,0,0,11,,,,,,,,,,,,,,,,15,,68,0
23400,note_on,,1,0,8,,,,,,,,,,,,,,,,11,,71,72
23400,note_on,,1,0,9,,,,,,,,,,,,,,,,12,,68,72
23400,note_on,,1,0,7,,,,,,,,,,,,,,,,10,,76,72
23429,note_on,,89,0,6,,,,,,,,,,,,,,,,7,,52,0
23430,note_on,,1,0,6,,,,,,,,,,,,,,,,7,,56,66
23459,note_on,,29,0,6,,,,,,,,,,,,,,,,7,,56,0
23460,note_on,,61,0,11,,,,,,,,,,,,,,,,15,,52,48
23460,note_on,,0,0,11,,,,,,,,,,,,,,,,15,,59,48
23460,note_on,,61,0,10,,,,,,,,,,,,,,,,13,,52,48
23460,note_on,,0,0,11,,,,,,,,,,,,,,,,15,,68,48
23460,note_on,,0,0,11,,,,,,,,,,,,,,,,15,,64,48
23460,note_on,,1,0,6,,,,,,,,,,,,,,,,7,,57,62
23489,note_on,,29,0,6,,,,,,,,,,,,,,,,7,,57,0
23490,note_on,,1,0,6,,,,,,,,,,,,,,,,7,,59,62
23519,note_on,,119,0,7,,,,,,,,,,,,,,,,10,,76,0
23519,note_on,,59,0,11,,,,,,,,,,,,,,,,15,,52,0
23519,note_on,,119,0,9,,,,,,,,,,,,,,,,12,,68,0
23519,note_on,,29,0,6,,,,,,,,,,,,,,,,7,,59,0
23519,note_on,,0,0,11,,,,,,,,,,,,,,,,15,,59,0
23519,note_on,,0,0,11,,,,,,,,,,,,,,,,15,,64,0
23519,note_on,,0,0,11,,,,,,,,,,,,,,,,15,,68,0
23519,note_on,,119,0,8,,,,,,,,,,,,,,,,11,,71,0
23519,note_on,,59,0,10,,,,,,,,,,,,,,,,13,,52,0
23520,note_on,,1,0,6,,,,,,,,,,,,,,,,7,,57,60
23520,note_on,,0,0,11,,,,,,,,,,,,,,,,15,,62,48
23520,note_on,,0,0,11,,,,,,,,,,,,,,,,15,,57,48
23520,note_on,,1,0,11,,,,,,,,,,,,,,,,15,,54,48
23520,note_on,,0,0,11,,,,,,,,,,,,,,,,15,,69,48
23520,note_on,,1,0,10,,,,,,,,,,,,,,,,13,,54,48
23549,note_on,,29,0,6,,,,,,,,,,,,,,,,7,,57,0
23550,note_on,,1,0,6,,,,,,,,,,,,,,,,7,,56,67
23579,note_on,,29,0,6,,,,,,,,,,,,,,,,7,,56,0
23580,note_on,,61,0,8,,,,,,,,,,,,,,,,11,,62,72
23580,note_on,,1,0,6,,,,,,,,,,,,,,,,7,,54,65
23580,note_on,,61,0,9,,,,,,,,,,,,,,,,12,,66,72
23580,note_on,,61,0,7,,,,,,,,,,,,,,,,10,,69,72
23639,note_on,,0,0,11,,,,,,,,,,,,,,,,15,,62,0
23639,note_on,,0,0,11,,,,,,,,,,,,,,,,15,,57,0
23639,note_on,,0,0,11,,,,,,,,,,,,,,,,15,,69,0
23639,note_on,,119,0,11,,,,,,,,,,,,,,,,15,,54,0
23639,note_on,,59,0,7,,,,,,,,,,,,,,,,10,,69,0
23639,note_on,,119,0,10,,,,,,,,,,,,,,,,13,,54,0
23639,note_on,,59,0,9,,,,,,,,,,,,,,,,12,,66,0
23639,note_on,,59,0,8,,,,,,,,,,,,,,,,11,,62,0
23640,note_on,,1,0,9,,,,,,,,,,,,,,,,12,,69,72
23640,note_on,,1,0,8,,,,,,,,,,,,,,,,11,,66,72
23640,note_on,,1,0,7,,,,,,,,,,,,,,,,10,,74,72
23669,note_on,,89,0,6,,,,,,,,,,,,,,,,7,,54,0
23670,note_on,,1,0,6,,,,,,,,,,,,,,,,7,,57,61
23699,note_on,,29,0,6,,,,,,,,,,,,,,,,7,,57,0
23700,note_on,,0,0,11,,,,,,,,,,,,,,,,15,,74,48
23700,note_on,,61,0,11,,,,,,,,,,,,,,,,15,,54,48
23700,note_on,,61,0,10,,,,,,,,,,,,,,,,13,,54,48
23700,note_on,,0,0,11,,,,,,,,,,,,,,,,15,,57,48
23700,note_on,,0,0,11,,,,,,,,,,,,,,,,15,,69,48
23700,note_on,,1,0,6,,,,,,,,,,,,,,,,7,,59,65
23729,note_on,,29,0,6,,,,,,,,,,,,,,,,7,,59,0
23730,note_on,,1,0,6,,,,,,,,,,,,,,,,7,,61,64
23759,note_on,,0,0,11,,,,,,,,,,,,,,,,15,,57,0
23759,note_on,,29,0,6,,,,,,,,,,,,,,,,7,,61,0
23759,note_on,,0,0,11,,,,,,,,,,,,,,,,15,,74,0
23759,note_on,,0,0,11,,,,,,,,,,,,,,,,15,,69,0
23759,note_on,,119,0,7,,,,,,,,,,,,,,,,10,,74,0
23759,note_on,,59,0,10,,,,,,,,,,,,,,,,13,,54,0
23759,note_on,,119,0,8,,,,,,,,,,,,,,,,11,,66,0
23759,note_on,,119,0,9,,,,,,,,,,,,,,,,12,,69,0
23759,note_on,,59,0,11,,,,,,,,,,,,,,,,15,,54,0
23760,note_on,,1,0,11,,,,,,,,,,,,,,,,15,,56,48
23760,note_on,,0,0,11,,,,,,,,,,,,,,,,15,,71,48
23760,note_on,,0,0,11,,,,,,,,,,,,,,,,15,,64,48
23760,note_on,,0,0,11,,,,,,,,,,,,,,,,15,,59,48
23760,note_on,,1,0,10,,,,,,,,,,,,,,,,13,,56,48
23760,note_on,,1,0,6,,,,,,,,,,,,,,,,7,,59,64
23789,note_on,,29,0,6,,,,,,,,,,,,,,,,7,,59,0
23790,note_on,,1,0,6,,,,,,,,,,,,,,,,7,,57,66
23819,note_on,,29,0,6,,,,,,,,,,,,,,,,7,,57,0
23820,note_on,,61,0,9,,,,,,,,,,,,,,,,12,,68,72
23820,note_on,,1,0,6,,,,,,,,,,,,,,,,7,,56,64
23820,note_on,,61,0,8,,,,,,,,,,,,,,,,11,,64,72
23820,note_on,,61,0,7,,,,,,,,,,,,,,,,10,,71,72
23879,note_on,,0,0,11,,,,,,,,,,,,,,,,15,,64,0
23879,note_on,,0,0,11,,,,,,,,,,,,,,,,15,,71,0
23879,note_on,,119,0,11,,,,,,,,,,,,,,,,15,,56,0
23879,note_on,,59,0,9,,,,,,,,,,,,,,,,12,,68,0
23879,note_on,,59,0,8,,,,,,,,,,,,,,,,11,,64,0
23879,note_on,,0,0,11,,,,,,,,,,,,,,,,15,,59,0
23879,note_on,,59,0,7,,,,,,,,,,,,,,,,10,,71,0
23879,note_on,,119,0,10,,,,,,,,,,,,,,,,13,,56,0
23880,note_on,,1,0,8,,,,,,,,,,,,,,,,11,,68,72
23880,note_on,,1,0,9,,,,,,,,,,,,,,,,12,,71,72
23880,note_on,,1,0,7,,,,,,,,,,,,,,,,10,,76,72
23909,note_on,,89,0,6,,,,,,,,,,,,,,,,7,,56,0
23910,note_on,,1,0,6,,,,,,,,,,,,,,,,7,,59,60
23939,note_on,,29,0,6,,,,,,,,,,,,,,,,7,,59,0
23940,note_on,,61,0,11,,,,,,,,,,,,,,,,15,,56,48
23940,note_on,,0,0,11,,,,,,,,,,,,,,,,15,,64,48
23940,note_on,,0,0,11,,,,,,,,,,,,,,,,15,,59,48
23940,note_on,,0,0,11,,,,,,,,,,,,,,,,15,,71,48
23940,note_on,,1,0,6,,,,,,,,,,,,,,,,7,,61,59
23940,note_on,,61,0,10,,,,,,,,,,,,,,,,13,,56,48
23969,note_on,,29,0,6,,,,,,,,,,,,,,,,7,,61,0
23970,note_on,,1,0,6,,,,,,,,,,,,,,,,7,,62,64
23999,note_on,,119,0,7,,,,,,,,,,,,,,,,10,,76,0
23999,note_on,,59,0,10,,,,,,,,,,,,,,,,13,,56,0
23999,note_on,,0,0,11,,,,,,,,,,,,,,,,15,,59,0
23999,note_on,,0,0,11,,,,,,,,,,,,,,,,15,,64,0
23999,note_on,,0,0,11,,,,,,,,,,,,,,,,15,,71,0
23999,note_on,,59,0,11,,,,,,,,,,,,,,,,15,,56,0
23999,note_on,,119,0,9,,,,,,,,,,,,,,,,12,,71,0
23999,note_on,,119,0,8,,,,,,,,,,,,,,,,11,,68,0
23999,note_on,,29,0,6,,,,,,,,,,,,,,,,7,,62,0
24000,note_on,,0,0,11,,,,,,,,,,,,,,,,15,,69,48
24000,note_on,,1,0,11,,,,,,,,,,,,,,,,15,,57,48
24000,note_on,,0,0,11,,,,,,,,,,,,,,,,15,,73,48
24000,note_on,,0,0,11,,,,,,,,,,,,,,,,15,,64,48
24000,note_on,,1,0,10,,,,,,,,,,,,,,,,13,,57,48
24000,note_on,,1,0,6,,,,,,,,,,,,,,,,7,,61,65
24029,note_on,,29,0,6,,,,,,,,,,,,,,,,7,,61,0
24030,note_on,,1,0,6,,,,,,,,,,,,,,,,7,,59,64
24059,note_on,,29,0,6,,,,,,,,,,,,,,,,7,,59,0
24060,note_on,,1,0,6,,,,,,,,,,,,,,,,7,,57,58
24089,note_on,,29,0,6,,,,,,,,,,,,,,,,7,,57,0
24090,note_on,,1,0,6,,,,,,,,,,,,,,,,7,,61,64
24119,note_on,,0,0,11,,,,,,,,,,,,,,,,15,,73,0
24119,note_on,,0,0,11,,,,,,,,,,,,,,,,15,,69,0
24119,note_on,,0,0,11,,,,,,,,,,,,,,,,15,,64,0
24119,note_on,,119,0,10,,,,,,,,,,,,,,,,13,,57,0
24119,note_on,,29,0,6,,,,,,,,,,,,,,,,7,,61,0
24119,note_on,,119,0,11,,,,,,,,,,,,,,,,15,,57,0
24120,note_on,,1,0,11,,,,,,,,,,,,,,,,15,,59,48
24120,note_on,,0,0,11,,,,,,,,,,,,,,,,15,,62,48
24120,note_on,,0,0,11,,,,,,,,,,,,,,,,15,,71,48
24120,note_on,,0,0,11,,,,,,,,,,,,,,,,15,,68,48
24120,note_on,,1,0,10,,,,,,,,,,,,,,,,13,,59,48
24120,note_on,,1,0,6,,,,,,,,,,,,,,,,7,,62,62
24149,note_on,,29,0,6,,,,,,,,,,,,,,,,7,,62,0
24150,note_on,,1,0,6,,,,,,,,,,,,,,,,7,,61,67
24179,note_on,,29,0,6,,,,,,,,,,,,,,,,7,,61,0
24180,note_on,,1,0,6,,,,,,,,,,,,,,,,7,,59,66
24209,note_on,,29,0,6,,,,,,,,,,,,,,,,7,,59,0
24210,note_on,,1,0,6,,,,,,,,,,,,,,,,7,,62,65
24239,note_on,,0,0,11,,,,,,,,,,,,,,,,15,,62,0
24239,note_on,,119,0,10,,,,,,,,,,,,,,,,13,,59,0
24239,note_on,,0,0,11,,,,,,,,,,,,,,,,15,,71,0
24239,note_on,,0,0,11,,,,,,,,,,,,,,,,15,,68,0
24239,note_on,,29,0,6,,,,,,,,,,,,,,,,7,,62,0
24239,note_on,,119,0,11,,,,,,,,,,,,,,,,15,,59,0
24240,note_on,,1,0,10,,,,,,,,,,,,,,,,13,,61,48
24240,note_on,,0,0,11,,,,,,,,,,,,,,,,15,,69,48
24240,note_on,,0,0,11,,,,,,,,,,,,,,,,15,,76,48
24240,note_on,,1,0,11,,,,,,,,,,,,,,,,15,,61,48
24240,note_on,,1,0,6,,,,,,,,,,,,,,,,7,,64,60
24240,note_on,,0,0,11,,,,,,,,,,,,,,,,15,,64,48
24359,note_on,,119,0,10,,,,,,,,,,,,,,,,13,,61,0
24359,note_on,,119,0,11,,,,,,,,,,,,,,,,15,,61,0
24359,note_on,,0,0,11,,,,,,,,,,,,,,,,15,,64,0
24359,note_on,,0,0,11,,,,,,,,,,,,,,,,15,,69,0
24359,note_on,,0,0,11,,,,,,,,,,,,,,,,15,,76,0
24359,note_on,,119,0,6,,,,,,,,,,,,,,,,7,,64,0
24360,note_on,,1,0,6,,,,,,,,,,,,,,,,7,,57,59
24479,note_on,,119,0,6,,,,,,,,,,,,,,,,7,,57,0
24480,note_on,,121,0,10,,,,,,,,,,,,,,,,13,,49,72
24480,note_on,,481,0,9,,,,,,,,,,,,,,,,12,,64,72
24480,note_on,,481,0,8,,,,,,,,,,,,,,,,11,,64,72
24480,note_on,,3001,0,5,,,,,,,,,,,,,,,,2,,49,72
24480,note_on,,481,0,7,,,,,,,,,,,,,,,,10,,69,72
24480,note_on,,0,0,11,,,,,,,,,,,,,,,,15,,52,72
24480,note_on,,0,0,11,,,,,,,,,,,,,,,,15,,64,72
24480,note_on,,0,0,11,,,,,,,,,,,,,,,,15,,69,72
24480,note_on,,121,0,11,,,,,,,,,,,,,,,,15,,49,72
24539,note_on,,59,0,8,,,,,,,,,,,,,,,,11,,64,0
24540,note_on,,1,0,8,,,,,,,,,,,,,,,,11,,69,72
24599,note_on,,119,0,5,,,,,,,,,,,,,,,,2,,49,0
24599,note_on,,0,0,11,,,,,,,,,,,,,,,,15,,52,0
24599,note_on,,0,0,11,,,,,,,,,,,,,,,,15,,64,0
24599,note_on,,0,0,11,,,,,,,,,,,,,,,,15,,69,0
24599,note_on,,119,0,11,,,,,,,,,,,,,,,,15,,49,0
24599,note_on,,119,0,10,,,,,,,,,,,,,,,,13,,49,0
24599,note_on,,119,0,7,,,,,,,,,,,,,,,,10,,69,0
24599,note_on,,119,0,9,,,,,,,,,,,,,,,,12,,64,0
24600,note_on,,1,0,10,,,,,,,,,,,,,,,,13,,52,72
24600,note_on,,0,0,11,,,,,,,,,,,,,,,,15,,69,72
24600,note_on,,1,0,5,,,,,,,,,,,,,,,,2,,52,72
24600,note_on,,1,0,9,,,,,,,,,,,,,,,,12,,64,72
24600,note_on,,0,0,11,,,,,,,,,,,,,,,,15,,59,72
24600,note_on,,0,0,11,,,,,,,,,,,,,,,,15,,64,72
24600,note_on,,1,0,7,,,,,,,,,,,,,,,,10,,71,72
24600,note_on,,1,0,11,,,,,,,,,,,,,,,,15,,52,72
24600,note_on,,0,0,11,,,,,,,,,,,,,,,,15,,71,72
24659,note_on,,59,0,11,,,,,,,,,,,,,,,,15,,69,0
24659,note_on,,119,0,8,,,,,,,,,,,,,,,,11,,69,0
24660,note_on,,1,0,8,,,,,,,,,,,,,,,,11,,68,72
24660,note_on,,1,0,11,,,,,,,,,,,,,,,,15,,68,72
24719,note_on,,59,0,11,,,,,,,,,,,,,,,,15,,52,0
24719,note_on,,0,0,11,,,,,,,,,,,,,,,,15,,71,0
24719,note_on,,59,0,8,,,,,,,,,,,,,,,,11,,68,0
24719,note_on,,119,0,9,,,,,,,,,,,,,,,,12,,64,0
24719,note_on,,0,0,11,,,,,,,,,,,,,,,,15,,64,0
24719,note_on,,119,0,10,,,,,,,,,,,,,,,,13,,52,0
24719,note_on,,0,0,11,,,,,,,,,,,,,,,,15,,59,0
24719,note_on,,0,0,11,,,,,,,,,,,,,,,,15,,68,0
24719,note_on,,119,0,5,,,,,,,,,,,,,,,,2,,52,0
24719,note_on,,119,0,7,,,,,,,,,,,,,,,,10,,71,0
24720,note_on,,0,0,11,,,,,,,,,,,,,,,,15,,69,72
24720,note_on,,1,0,5,,,,,,,,,,,,,,,,2,,45,72
24720,note_on,,1,0,9,,,,,,,,,,,,,,,,12,,64,72
24720,note_on,,1,0,10,,,,,,,,,,,,,,,,13,,45,72
24720,note_on,,1,0,8,,,,,,,,,,,,,,,,11,,69,72
24720,note_on,,1,0,7,,,,,,,,,,,,,,,,10,,73,72
24720,note_on,,0,0,11,,,,,,,,,,,,,,,,15,,57,72
24720,note_on,,1,0,11,,,,,,,,,,,,,,,,15,,45,72
24720,note_on,,0,0,11,,,,,,,,,,,,,,,,15,,73,72
24720,note_on,,0,0,11,,,,,,,,,,,,,,,,15,,64,72
24809,note_on,,89,0,8,,,,,,,,,,,,,,,,11,,69,0
24809,note_on,,89,0,9,,,,,,,,,,,,,,,,12,,64,0
24809,note_on,,89,0,7,,,,,,,,,,,,,,,,10,,73,0
24810,note_on,,1,0,7,,,,,,,,,,,,,,,,10,,76,72
24810,note_on,,1,0,8,,,,,,,,,,,,,,,,11,,73,72
24810,note_on,,1,0,9,,,,,,,,,,,,,,,,12,,69,72
24839,note_on,,0,0,11,,,,,,,,,,,,,,,,15,,73,0
24839,note_on,,0,0,11,,,,,,,,,,,,,,,,15,,57,0
24839,note_on,,29,0,7,,,,,,,,,,,,,,,,10,,76,0
24839,note_on,,29,0,9,,,,,,,,,,,,,,,,12,,69,0
24839,note_on,,119,0,10,,,,,,,,,,,,,,,,13,,45,0
24839,note_on,,119,0,5,,,,,,,,,,,,,,,,2,,45,0
24839,note_on,,119,0,11,,,,,,,,,,,,,,,,15,,45,0
24839,note_on,,0,0,11,,,,,,,,,,,,,,,,15,,69,0
24839,note_on,,29,0,8,,,,,,,,,,,,,,,,11,,73,0
24839,note_on,,0,0,11,,,,,,,,,,,,,,,,15,,64,0
24840,note_on,,1,0,9,,,,,,,,,,,,,,,,12,,69,72
24840,note_on,,1,0,7,,,,,,,,,,,,,,,,10,,76,72
24840,note_on,,1,0,8,,,,,,,,,,,,,,,,11,,73,72
24959,note_on,,119,0,9,,,,,,,,,,,,,,,,12,,69,0
24959,note_on,,119,0,7,,,,,,,,,,,,,,,,10,,76,0
24959,note_on,,119,0,8,,,,,,,,,,,,,,,,11,,73,0
24960,note_on,,0,0,11,,,,,,,,,,,,,,,,15,,52,48
24960,note_on,,481,0,6,,,,,,,,,,,,,,,,7,,52,60
24960,note_on,,121,0,10,,,,,,,,,,,,,,,,13,,44,48
24960,note_on,,0,0,11,,,,,,,,,,,,,,,,15,,64,48
24960,note_on,,121,0,11,,,,,,,,,,,,,,,,15,,44,48
24960,note_on,,0,0,11,,,,,,,,,,,,,,,,15,,59,48
25079,note_on,,119,0,10,,,,,,,,,,,,,,,,13,,44,0
25079,note_on,,0,0,11,,,,,,,,,,,,,,,,15,,59,0
25079,note_on,,119,0,11,,,,,,,,,,,,,,,,15,,44,0
25079,note_on,,0,0,11,,,,,,,,,,,,,,,,15,,52,0
25079,note_on,,119,0,6,,,,,,,,,,,,,,,,7,,52,0
25080,note_on,,0,0,11,,,,,,,,,,,,,,,,15,,54,48
25080,note_on,,1,0,10,,,,,,,,,,,,,,,,13,,47,48
25080,note_on,,1,0,11,,,,,,,,,,,,,,,,15,,47,48
25080,note_on,,0,0,11,,,,,,,,,,,,,,,,15,,59,48
25080,note_on,,1,0,6,,,,,,,,,,,,,,,,7,,54,62
25139,note_on,,59,0,11,,,,,,,,,,,,,,,,15,,64,0
25140,note_on,,1,0,11,,,,,,,,,,,,,,,,15,,63,48
25199,note_on,,0,0,11,,,,,,,,,,,,,,,,15,,63,0
25199,note_on,,119,0,6,,,,,,,,,,,,,,,,7,,54,0
25199,note_on,,0,0,11,,,,,,,,,,,,,,,,15,,59,0
25199,note_on,,119,0,10,,,,,,,,,,,,,,,,13,,47,0
25199,note_on,,0,0,11,,,,,,,,,,,,,,,,15,,54,0
25199,note_on,,59,0,11,,,,,,,,,,,,,,,,15,,47,0
25200,note_on,,1,0,10,,,,,,,,,,,,,,,,13,,52,48
25200,note_on,,0,0,11,,,,,,,,,,,,,,,,15,,64,48
25200,note_on,,1,0,6,,,,,,,,,,,,,,,,7,,56,64
25200,note_on,,1,0,11,,,,,,,,,,,,,,,,15,,52,48
25200,note_on,,0,0,11,,,,,,,,,,,,,,,,15,,56,48
25200,note_on,,0,0,11,,,,,,,,,,,,,,,,15,,59,48
25289,note_on,,89,0,6,,,,,,,,,,,,,,,,7,,56,0
25290,note_on,,1,0,6,,,,,,,,,,,,,,,,7,,59,58
25319,note_on,,29,0,6,,,,,,,,,,,,,,,,7,,59,0
25319,note_on,,119,0,11,,,,,,,,,,,,,,,,15,,52,0
25319,note_on,,0,0,11,,,,,,,,,,,,,,,,15,,56,0
25319,note_on,,0,0,11,,,,,,,,,,,,,,,,15,,64,0
25319,note_on,,119,0,10,,,,,,,,,,,,,,,,13,,52,0
25319,note_on,,0,0,11,,,,,,,,,,,,,,,,15,,59,0
25320,note_on,,1,0,6,,,,,,,,,,,,,,,,7,,59,61
25439,note_on,,119,0,6,,,,,,,,,,,,,,,,7,,59,0
25440,note_on,,121,0,11,,,,,,,,,,,,,,,,15,,56,48
25440,note_on,,0,0,11,,,,,,,,,,,,,,,,15,,71,48
25440,note_on,,481,0,7,,,,,,,,,,,,,,,,10,,76,72
25440,note_on,,601,0,5,,,,,,,,,,,,,,,,2,,56,48
25440,note_on,,481,0,8,,,,,,,,,,,,,,,,11,,71,72
25440,note_on,,481,0,9,,,,,,,,,,,,,,,,12,,56,72
25440,note_on,,0,0,11,,,,,,,,,,,,,,,,15,,64,48
25440,note_on,,121,0,10,,,,,,,,,,,,,,,,13,,56,48
25559,note_on,,0,0,11,,,,,,,,,,,,,,,,15,,64,0
25559,note_on,,0,0,11,,,,,,,,,,,,,,,,15,,71,0
25559,note_on,,119,0,11,,,,,,,,,,,,,,,,15,,56,0
25559,note_on,,119,0,10,,,,,,,,,,,,,,,,13,,56,0
25559,note_on,,119,0,5,,,,,,,,,,,,,,,,2,,56,0
25559,note_on,,119,0,9,,,,,,,,,,,,,,,,12,,56,0
25559,note_on,,119,0,8,,,,,,,,,,,,,,,,11,,71,0
25559,note_on,,119,0,7,,,,,,,,,,,,,,,,10,,76,0
25560,note_on,,1,0,9,,,,,,,,,,,,,,,,12,,59,72
25560,note_on,,0,0,11,,,,,,,,,,,,,,,,15,,66,48
25560,note_on,,1,0,8,,,,,,,,,,,,,,,,11,,75,72
25560,note_on,,1,0,7,,,,,,,,,,,,,,,,10,,78,72
25560,note_on,,1,0,11,,,,,,,,,,,,,,,,15,,59,48
25560,note_on,,0,0,11,,,,,,,,,,,,,,,,15,,75,48
25560,note_on,,0,0,11,,,,,,,,,,,,,,,,15,,71,48
25560,note_on,,1,0,10,,,,,,,,,,,,,,,,13,,59,48
25560,note_on,,1,0,5,,,,,,,,,,,,,,,,2,,59,48
25679,note_on,,119,0,7,,,,,,,,,,,,,,,,10,,78,0
25679,note_on,,119,0,11,,,,,,,,,,,,,,,,15,,59,0
25679,note_on,,119,0,10,,,,,,,,,,,,,,,,13,,59,0
25679,note_on,,119,0,9,,,,,,,,,,,,,,,,12,,59,0
25679,note_on,,0,0,11,,,,,,,,,,,,,,,,15,,75,0
25679,note_on,,0,0,11,,,,,,,,,,,,,,,,15,,71,0
25679,note_on,,0,0,11,,,,,,,,,,,,,,,,15,,66,0
25679,note_on,,119,0,5,,,,,,,,,,,,,,,,2,,59,0
25679,note_on,,119,0,8,,,,,,,,,,,,,,,,11,,75,0
25680,note_on,,0,0,11,,,,,,,,,,,,,,,,15,,68,48
25680,note_on,,1,0,7,,,,,,,,,,,,,,,,10,,80,72
25680,note_on,,0,0,11,,,,,,,,,,,,,,,,15,,71,48
25680,note_on,,0,0,11,,,,,,,,,,,,,,,,15,,76,48
25680,note_on,,1,0,11,,,,,,,,,,,,,,,,15,,64,48
25680,note_on,,1,0,9,,,,,,,,,,,,,,,,12,,64,72
25680,note_on,,1,0,5,,,,,,,,,,,,,,,,2,,64,48
25680,note_on,,1,0,10,,,,,,,,,,,,,,,,13,,64,48
25680,note_on,,1,0,8,,,,,,,,,,,,,,,,11,,76,72
25769,note_on,,89,0,8,,,,,,,,,,,,,,,,11,,76,0
25769,note_on,,89,0,7,,,,,,,,,,,,,,,,10,,80,0
25770,note_on,,1,0,8,,,,,,,,,,,,,,,,11,,80,72
25770,note_on,,1,0,7,,,,,,,,,,,,,,,,10,,83,72
25799,note_on,,29,0,7,,,,,,,,,,,,,,,,10,,83,0
25799,note_on,,119,0,11,,,,,,,,,,,,,,,,15,,64,0
25799,note_on,,0,0,11,,,,,,,,,,,,,,,,15,,76,0
25799,note_on,,0,0,11,,,,,,,,,,,,,,,,15,,71,0
25799,note_on,,0,0,11,,,,,,,,,,,,,,,,15,,68,0
25799,note_on,,119,0,5,,,,,,,,,,,,,,,,2,,64,0
25799,note_on,,119,0,9,,,,,,,,,,,,,,,,12,,64,0
25799,note_on,,119,0,10,,,,,,,,,,,,,,,,13,,64,0
25799,note_on,,29,0,8,,,,,,,,,,,,,,,,11,,80,0
25800,note_on,,1,0,7,,,,,,,,,,,,,,,,10,,83,72
25800,note_on,,1,0,8,,,,,,,,,,,,,,,,11,,80,72
25919,note_on,,119,0,7,,,,,,,,,,,,,,,,10,,83,0
25919,note_on,,119,0,8,,,,,,,,,,,,,,,,11,,80,0
25920,note_on,,0,0,11,,,,,,,,,,,,,,,,15,,76,48
25920,note_on,,0,0,11,,,,,,,,,,,,,,,,15,,64,48
25920,note_on,,121,0,11,,,,,,,,,,,,,,,,15,,56,48
25920,note_on,,0,0,11,,,,,,,,,,,,,,,,15,,71,48
25920,note_on,,481,0,6,,,,,,,,,,,,,,,,7,,59,59
25920,note_on,,121,0,10,,,,,,,,,,,,,,,,13,,56,48
25979,note_on,,59,0,11,,,,,,,,,,,,,,,,15,,56,0
25979,note_on,,59,0,10,,,,,,,,,,,,,,,,13,,56,0
25980,note_on,,1,0,11,,,,,,,,,,,,,,,,15,,52,48
25980,note_on,,1,0,10,,,,,,,,,,,,,,,,13,,52,48
26039,note_on,,0,0,11,,,,,,,,,,,,,,,,15,,52,0
26039,note_on,,119,0,6,,,,,,,,,,,,,,,,7,,59,0
26039,note_on,,59,0,11,,,,,,,,,,,,,,,,15,,76,0
26039,note_on,,0,0,11,,,,,,,,,,,,,,,,15,,71,0
26039,note_on,,0,0,11,,,,,,,,,,,,,,,,15,,64,0
26039,note_on,,59,0,10,,,,,,,,,,,,,,,,13,,52,0
26040,note_on,,1,0,10,,,,,,,,,,,,,,,,13,,57,48
26040,note_on,,1,0,11,,,,,,,,,,,,,,,,15,,57,48
26040,note_on,,0,0,11,,,,,,,,,,,,,,,,15,,73,48
26040,note_on,,0,0,11,,,,,,,,,,,,,,,,15,,69,48
26040,note_on,,0,0,11,,,,,,,,,,,,,,,,15,,64,48
26040,note_on,,1,0,6,,,,,,,,,,,,,,,,7,,61,67
26099,note_on,,59,0,11,,,,,,,,,,,,,,,,15,,57,0
26099,note_on,,59,0,10,,,,,,,,,,,,,,,,13,,57,0
26100,note_on,,1,0,11,,,,,,,,,,,,,,,,15,,54,48
26100,note_on,,1,0,10,,,,,,,,,,,,,,,,13,,54,48
26159,note_on,,0,0,11,,,,,,,,,,,,,,,,15,,64,0
26159,note_on,,0,0,11,,,,,,,,,,,,,,,,15,,54,0
26159,note_on,,59,0,10,,,,,,,,,,,,,,,,13,,54,0
26159,note_on,,119,0,6,,,,,,,,,,,,,,,,7,,61,0
26159,note_on,,0,0,11,,,,,,,,,,,,,,,,15,,69,0
26159,note_on,,59,0,11,,,,,,,,,,,,,,,,15,,73,0
26160,note_on,,1,0,11,,,,,,,,,,,,,,,,15,,59,48
26160,note_on,,0,0,11,,,,,,,,,,,,,,,,15,,63,48
26160,note_on,,0,0,11,,,,,,,,,,,,,,,,15,,66,48
26160,note_on,,1,0,6,,,,,,,,,,,,,,,,7,,63,65
26160,note_on,,1,0,10,,,,,,,,,,,,,,,,13,,59,48
26249,note_on,,89,0,6,,,,,,,,,,,,,,,,7,,63,0
26250,note_on,,1,0,6,,,,,,,,,,,,,,,,7,,66,58
26279,note_on,,29,0,6,,,,,,,,,,,,,,,,7,,66,0
26279,note_on,,0,0,11,,,,,,,,,,,,,,,,15,,63,0
26279,note_on,,119,0,11,,,,,,,,,,,,,,,,15,,59,0
26279,note_on,,119,0,10,,,,,,,,,,,,,,,,13,,59,0
26279,note_on,,0,0,11,,,,,,,,,,,,,,,,15,,66,0
26280,note_on,,1,0,11,,,,,,,,,,,,,,,,15,,47,48
26280,note_on,,0,0,11,,,,,,,,,,,,,,,,15,,71,48
26280,note_on,,1,0,10,,,,,,,,,,,,,,,,13,,47,48
26280,note_on,,0,0,11,,,,,,,,,,,,,,,,15,,66,48
26280,note_on,,1,0,6,,,,,,,,,,,,,,,,7,,66,58
26280,note_on,,0,0,11,,,,,,,,,,,,,,,,15,,63,48
26339,note_on,,0,0,11,,,,,,,,,,,,,,,,15,,63,0
26339,note_on,,59,0,10,,,,,,,,,,,,,,,,13,,47,0
26339,note_on,,59,0,11,,,,,,,,,,,,,,,,15,,47,0
26340,note_on,,1,0,10,,,,,,,,,,,,,,,,13,,49,48
26340,note_on,,1,0,11,,,,,,,,,,,,,,,,15,,49,48
26340,note_on,,0,0,11,,,,,,,,,,,,,,,,15,,64,48
26399,note_on,,59,0,11,,,,,,,,,,,,,,,,15,,66,0
26399,note_on,,0,0,11,,,,,,,,,,,,,,,,15,,49,0
26399,note_on,,0,0,11,,,,,,,,,,,,,,,,15,,64,0
26399,note_on,,59,0,10,,,,,,,,,,,,,,,,13,,49,0
26400,note_on,,1,0,11,,,,,,,,,,,,,,,,15,,51,48
26400,note_on,,0,0,11,,,,,,,,,,,,,,,,15,,66,48
26400,note_on,,0,0,11,,,,,,,,,,,,,,,,15,,59,48
26400,note_on,,601,0,9,,,,,,,,,,,,,,,,12,,59,72
26400,note_on,,481,0,7,,,,,,,,,,,,,,,,10,,71,72
26400,note_on,,1,0,10,,,,,,,,,,,,,,,,13,,51,48
26400,note_on,,481,0,8,,,,,,,,,,,,,,,,11,,66,72
26429,note_on,,149,0,6,,,,,,,,,,,,,,,,7,,66,0
26430,note_on,,1,0,6,,,,,,,,,,,,,,,,7,,64,64
26459,note_on,,29,0,6,,,,,,,,,,,,,,,,7,,64,0
26460,note_on,,1,0,6,,,,,,,,,,,,,,,,7,,63,67
26489,note_on,,29,0,6,,,,,,,,,,,,,,,,7,,63,0
26490,note_on,,1,0,6,,,,,,,,,,,,,,,,7,,61,65
26519,note_on,,119,0,8,,,,,,,,,,,,,,,,11,,66,0
26519,note_on,,119,0,10,,,,,,,,,,,,,,,,13,,51,0
26519,note_on,,119,0,7,,,,,,,,,,,,,,,,10,,71,0
26519,note_on,,119,0,9,,,,,,,,,,,,,,,,12,,59,0
26519,note_on,,0,0,11,,,,,,,,,,,,,,,,15,,59,0
26519,note_on,,0,0,11,,,,,,,,,,,,,,,,15,,66,0
26519,note_on,,0,0,11,,,,,,,,,,,,,,,,15,,51,0
26519,note_on,,29,0,6,,,,,,,,,,,,,,,,7,,61,0
26519,note_on,,119,0,11,,,,,,,,,,,,,,,,15,,71,0
26520,note_on,,1,0,6,,,,,,,,,,,,,,,,7,,59,65
26579,note_on,,59,0,6,,,,,,,,,,,,,,,,7,,59,0
26580,note_on,,1,0,6,,,,,,,,,,,,,,,,7,,57,59
26639,note_on,,59,0,6,,,,,,,,,,,,,,,,7,,57,0
26640,note_on,,121,0,10,,,,,,,,,,,,,,,,13,,52,48
26640,note_on,,1,0,6,,,,,,,,,,,,,,,,7,,56,64
26640,note_on,,121,0,9,,,,,,,,,,,,,,,,12,,68,72
26640,note_on,,121,0,11,,,,,,,,,,,,,,,,15,,52,48
26640,note_on,,0,0,11,,,,,,,,,,,,,,,,15,,71,48
26640,note_on,,121,0,7,,,,,,,,,,,,,,,,10,,76,72
26640,note_on,,0,0,11,,,,,,,,,,,,,,,,15,,68,48
26640,note_on,,0,0,11,,,,,,,,,,,,,,,,15,,64,48
26640,note_on,,0,0,11,,,,,,,,,,,,,,,,15,,56,48
26640,note_on,,121,0,8,,,,,,,,,,,,,,,,11,,71,72
26669,note_on,,29,0,6,,,,,,,,,,,,,,,,7,,56,0
26670,note_on,,1,0,6,,,,,,,,,,,,,,,,7,,54,64
26699,note_on,,29,0,6,,,,,,,,,,,,,,,,7,,54,0
26700,note_on,,1,0,6,,,,,,,,,,,,,,,,7,,52,64
26759,note_on,,0,0,11,,,,,,,,,,,,,,,,15,,56,0
26759,note_on,,119,0,11,,,,,,,,,,,,,,,,15,,52,0
26759,note_on,,0,0,11,,,,,,,,,,,,,,,,15,,68,0
26759,note_on,,0,0,11,,,,,,,,,,,,,,,,15,,71,0
26759,note_on,,119,0,9,,,,,,,,,,,,,,,,12,,68,0
26759,note_on,,0,0,11,,,,,,,,,,,,,,,,15,,64,0
26759,note_on,,59,0,6,,,,,,,,,,,,,,,,7,,52,0
26759,note_on,,119,0,10,,,,,,,,,,,,,,,,13,,52,0
26759,note_on,,119,0,8,,,,,,,,,,,,,,,,11,,71,0
26759,note_on,,119,0,7,,,,,,,,,,,,,,,,10,,76,0
26760,note_on,,1,0,6,,,,,,,,,,,,,,,,7,,64,67
26879,note_on,,119,0,6,,,,,,,,,,,,,,,,7,,64,0
26880,note_on,,1,0,6,,,,,,,,,,,,,,,,7,,57,58
26880,note_on,,121,0,11,,,,,,,,,,,,,,,,15,,54,48
26880,note_on,,0,0,11,,,,,,,,,,,,,,,,15,,69,48
26880,note_on,,0,0,11,,,,,,,,,,,,,,,,15,,68,48
26880,note_on,,0,0,11,,,,,,,,,,,,,,,,15,,66,48
26880,note_on,,0,0,11,,,,,,,,,,,,,,,,15,,57,48
26880,note_on,,121,0,10,,,,,,,,,,,,,,,,13,,54,48
26909,note_on,,29,0,6,,,,,,,,,,,,,,,,7,,57,0
26910,note_on,,1,0,6,,,,,,,,,,,,,,,,7,,56,67
26939,note_on,,29,0,6,,,,,,,,,,,,,,,,7,,56,0
26940,note_on,,1,0,6,,,,,,,,,,,,,,,,7,,54,66
26999,note_on,,0,0,11,,,,,,,,,,,,,,,,15,,66,0
26999,note_on,,59,0,6,,,,,,,,,,,,,,,,7,,54,0
26999,note_on,,119,0,10,,,,,,,,,,,,,,,,13,,54,0
26999,note_on,,119,0,11,,,,,,,,,,,,,,,,15,,54,0
26999,note_on,,0,0,11,,,,,,,,,,,,,,,,15,,69,0
26999,note_on,,0,0,11,,,,,,,,,,,,,,,,15,,68,0
26999,note_on,,0,0,11,,,,,,,,,,,,,,,,15,,57,0
27000,note_on,,1,0,6,,,,,,,,,,,,,,,,7,,64,64
27119,note_on,,119,0,6,,,,,,,,,,,,,,,,7,,64,0
27120,note_on,,1,0,6,,,,,,,,,,,,,,,,7,,59,66
27120,note_on,,0,0,11,,,,,,,,,,,,,,,,15,,64,48
27120,note_on,,121,0,11,,,,,,,,,,,,,,,,15,,76,48
27120,note_on,,0,0,11,,,,,,,,,,,,,,,,15,,56,48
27120,note_on,,0,0,11,,,,,,,,,,,,,,,,15,,71,48
27120,note_on,,0,0,11,,,,,,,,,,,,,,,,15,,59,48
27120,note_on,,121,0,10,,,,,,,,,,,,,,,,13,,56,48
27149,note_on,,29,0,6,,,,,,,,,,,,,,,,7,,59,0
27150,note_on,,1,0,6,,,,,,,,,,,,,,,,7,,57,64
27179,note_on,,29,0,6,,,,,,,,,,,,,,,,7,,57,0
27180,note_on,,1,0,6,,,,,,,,,,,,,,,,7,,56,59
27239,note_on,,119,0,11,,,,,,,,,,,,,,,,15,,76,0
27239,note_on,,0,0,11,,,,,,,,,,,,,,,,15,,59,0
27239,note_on,,0,0,11,,,,,,,,,,,,,,,,15,,56,0
27239,note_on,,0,0,11,,,,,,,,,,,,,,,,15,,64,0
27239,note_on,,59,0,6,,,,,,,,,,,,,,,,7,,56,0
27239,note_on,,119,0,10,,,,,,,,,,,,,,,,13,,56,0
27239,note_on,,0,0,11,,,,,,,,,,,,,,,,15,,71,0
27240,note_on,,1,0,6,,,,,,,,,,,,,,,,7,,64,66
27360,note_on,,121,0,11,,,,,,,,,,,,,,,,15,,58,48
27360,note_on,,121,0,10,,,,,,,,,,,,,,,,13,,58,48
27360,note_on,,601,0,8,,,,,,,,,,,,,,,,11,,66,72
27360,note_on,,0,0,11,,,,,,,,,,,,,,,,15,,66,48
27360,note_on,,0,0,11,,,,,,,,,,,,,,,,15,,61,48
27360,note_on,,0,0,11,,,,,,,,,,,,,,,,15,,64,48
27360,note_on,,0,0,11,,,,,,,,,,,,,,,,15,,73,48
27360,note_on,,601,0,9,,,,,,,,,,,,,,,,12,,61,72
27360,note_on,,601,0,7,,,,,,,,,,,,,,,,10,,73,72
27389,note_on,,149,0,6,,,,,,,,,,,,,,,,7,,64,0
27390,note_on,,1,0,6,,,,,,,,,,,,,,,,7,,63,64
27419,note_on,,29,0,6,,,,,,,,,,,,,,,,7,,63,0
27420,note_on,,1,0,6,,,,,,,,,,,,,,,,7,,61,60
27479,note_on,,0,0,11,,,,,,,,,,,,,,,,15,,73,0
27479,note_on,,0,0,11,,,,,,,,,,,,,,,,15,,66,0
27479,note_on,,0,0,11,,,,,,,,,,,,,,,,15,,64,0
27479,note_on,,0,0,11,,,,,,,,,,,,,,,,15,,61,0
27479,note_on,,119,0,11,,,,,,,,,,,,,,,,15,,58,0
27479,note_on,,119,0,8,,,,,,,,,,,,,,,,11,,66,0
27479,note_on,,119,0,7,,,,,,,,,,,,,,,,10,,73,0
27479,note_on,,59,0,6,,,,,,,,,,,,,,,,7,,61,0
27479,note_on,,119,0,10,,,,,,,,,,,,,,,,13,,58,0
27479,note_on,,119,0,9,,,,,,,,,,,,,,,,12,,61,0
27480,note_on,,1,0,6,,,,,,,,,,,,,,,,7,,66,59
27539,note_on,,59,0,6,,,,,,,,,,,,,,,,7,,66,0
27540,note_on,,1,0,6,,,,,,,,,,,,,,,,7,,64,64
27599,note_on,,59,0,6,,,,,,,,,,,,,,,,7,,64,0
27600,note_on,,1,0,6,,,,,,,,,,,,,,,,7,,63,66
27600,note_on,,121,0,10,,,,,,,,,,,,,,,,13,,59,48
27600,note_on,,0,0,11,,,,,,,,,,,,,,,,15,,66,48
27600,note_on,,121,0,11,,,,,,,,,,,,,,,,15,,59,48
27600,note_on,,0,0,11,,,,,,,,,,,,,,,,15,,63,48
27659,note_on,,59,0,10,,,,,,,,,,,,,,,,13,,59,0
27660,note_on,,60,0,11,,,,,,,,,,,,,,,,15,,47,48
27660,note_on,,1,0,10,,,,,,,,,,,,,,,,13,,47,48
27660,note_on,,181,0,7,,,,,,,,,,,,,,,,10,,78,72
27660,note_on,,181,0,9,,,,,,,,,,,,,,,,12,,59,72
27660,note_on,,181,0,8,,,,,,,,,,,,,,,,11,,75,72
27689,note_on,,89,0,6,,,,,,,,,,,,,,,,7,,63,0
27690,note_on,,1,0,6,,,,,,,,,,,,,,,,7,,61,64
27719,note_on,,59,0,9,,,,,,,,,,,,,,,,12,,59,0
27719,note_on,,59,0,10,,,,,,,,,,,,,,,,13,,47,0
27719,note_on,,29,0,6,,,,,,,,,,,,,,,,7,,61,0
27719,note_on,,59,0,11,,,,,,,,,,,,,,,,15,,47,0
27719,note_on,,59,0,7,,,,,,,,,,,,,,,,10,,78,0
27719,note_on,,59,0,8,,,,,,,,,,,,,,,,11,,75,0
27720,note_on,,1,0,11,,,,,,,,,,,,,,,,15,,47,48
27720,note_on,,1,0,9,,,,,,,,,,,,,,,,12,,59,72
27720,note_on,,1,0,8,,,,,,,,,,,,,,,,11,,78,72
27720,note_on,,1,0,6,,,,,,,,,,,,,,,,7,,59,66
27720,note_on,,1,0,10,,,,,,,,,,,,,,,,13,,47,48
27720,note_on,,1,0,7,,,,,,,,,,,,,,,,10,,83,72
27779,note_on,,59,0,8,,,,,,,,,,,,,,,,11,,78,0
27779,note_on,,59,0,9,,,,,,,,,,,,,,,,12,,59,0
27779,note_on,,59,0,10,,,,,,,,,,,,,,,,13,,47,0
27779,note_on,,59,0,7,,,,,,,,,,,,,,,,10,,83,0
27779,note_on,,59,0,11,,,,,,,,,,,,,,,,15,,47,0
27780,note_on,,1,0,8,,,,,,,,,,,,,,,,11,,71,72
27780,note_on,,1,0,7,,,,,,,,,,,,,,,,10,,75,72
27780,note_on,,1,0,10,,,,,,,,,,,,,,,,13,,47,48
27780,note_on,,1,0,9,,,,,,,,,,,,,,,,12,,66,72
27780,note_on,,1,0,11,,,,,,,,,,,,,,,,15,,47,48
27839,note_on,,0,0,11,,,,,,,,,,,,,,,,15,,47,0
27839,note_on,,59,0,10,,,,,,,,,,,,,,,,13,,47,0
27839,note_on,,119,0,6,,,,,,,,,,,,,,,,7,,59,0
27839,note_on,,59,0,8,,,,,,,,,,,,,,,,11,,71,0
27839,note_on,,59,0,9,,,,,,,,,,,,,,,,12,,66,0
27839,note_on,,59,0,11,,,,,,,,,,,,,,,,15,,59,0
27839,note_on,,0,0,11,,,,,,,,,,,,,,,,15,,63,0
27839,note_on,,0,0,11,,,,,,,,,,,,,,,,15,,66,0
27839,note_on,,59,0,7,,,,,,,,,,,,,,,,10,,75,0
27840,note_on,,0,0,11,,,,,,,,,,,,,,,,15,,64,48
27840,note_on,,0,0,11,,,,,,,,,,,,,,,,15,,70,48
27840,note_on,,1,0,10,,,,,,,,,,,,,,,,13,,49,48
27840,note_on,,0,0,11,,,,,,,,,,,,,,,,15,,52,48
27840,note_on,,1,0,11,,,,,,,,,,,,,,,,15,,49,48
27840,note_on,,1,0,8,,,,,,,,,,,,,,,,11,,70,72
27840,note_on,,1,0,9,,,,,,,,,,,,,,,,12,,64,72
27840,note_on,,1,0,7,,,,,,,,,,,,,,,,10,,76,72
27899,note_on,,59,0,11,,,,,,,,,,,,,,,,15,,49,0
27899,note_on,,59,0,10,,,,,,,,,,,,,,,,13,,49,0
27900,note_on,,61,0,6,,,,,,,,,,,,,,,,7,,58,62
27900,note_on,,1,0,11,,,,,,,,,,,,,,,,15,,49,48
27900,note_on,,1,0,10,,,,,,,,,,,,,,,,13,,49,48
27959,note_on,,59,0,11,,,,,,,,,,,,,,,,15,,49,0
27959,note_on,,59,0,10,,,,,,,,,,,,,,,,13,,49,0
27959,note_on,,119,0,8,,,,,,,,,,,,,,,,11,,70,0
27959,note_on,,119,0,7,,,,,,,,,,,,,,,,10,,76,0
27959,note_on,,119,0,9,,,,,,,,,,,,,,,,12,,64,0
27959,note_on,,59,0,6,,,,,,,,,,,,,,,,7,,58,0
27960,note_on,,1,0,6,,,,,,,,,,,,,,,,7,,58,67
27960,note_on,,1,0,8,,,,,,,,,,,,,,,,11,,70,72
27960,note_on,,1,0,10,,,,,,,,,,,,,,,,13,,49,48
27960,note_on,,1,0,7,,,,,,,,,,,,,,,,10,,63,72
27960,note_on,,1,0,11,,,,,,,,,,,,,,,,15,,49,48
27960,note_on,,1,0,9,,,,,,,,,,,,,,,,12,,61,72
28019,note_on,,59,0,6,,,,,,,,,,,,,,,,7,,58,0
28019,note_on,,59,0,10,,,,,,,,,,,,,,,,13,,49,0
28019,note_on,,59,0,11,,,,,,,,,,,,,,,,15,,49,0
28020,note_on,,1,0,11,,,,,,,,,,,,,,,,15,,49,48
28020,note_on,,1,0,6,,,,,,,,,,,,,,,,7,,58,64
28020,note_on,,1,0,10,,,,,,,,,,,,,,,,13,,49,48
28079,note_on,,59,0,6,,,,,,,,,,,,,,,,7,,58,0
28079,note_on,,119,0,7,,,,,,,,,,,,,,,,10,,63,0
28079,note_on,,119,0,8,,,,,,,,,,,,,,,,11,,70,0
28079,note_on,,119,0,9,,,,,,,,,,,,,,,,12,,61,0
28079,note_on,,59,0,11,,,,,,,,,,,,,,,,15,,52,0
28079,note_on,,59,0,10,,,,,,,,,,,,,,,,13,,49,0
28079,note_on,,0,0,11,,,,,,,,,,,,,,,,15,,49,0
28079,note_on,,0,0,11,,,,,,,,,,,,,,,,15,,64,0
28079,note_on,,0,0,11,,,,,,,,,,,,,,,,15,,70,0
28080,note_on,,0,0,11,,,,,,,,,,,,,,,,15,,66,48
28080,note_on,,1,0,11,,,,,,,,,,,,,,,,15,,51,48
28080,note_on,,1,0,7,,,,,,,,,,,,,,,,10,,78,72
28080,note_on,,0,0,11,,,,,,,,,,,,,,,,15,,71,48
28080,note_on,,1,0,8,,,,,,,,,,,,,,,,11,,75,72
28080,note_on,,0,0,11,,,,,,,,,,,,,,,,15,,59,48
28080,note_on,,1,0,9,,,,,,,,,,,,,,,,12,,71,72
28080,note_on,,1,0,10,,,,,,,,,,,,,,,,13,,51,48
28080,note_on,,1,0,6,,,,,,,,,,,,,,,,7,,59,65
28139,note_on,,59,0,11,,,,,,,,,,,,,,,,15,,51,0
28139,note_on,,59,0,10,,,,,,,,,,,,,,,,13,,51,0
28140,note_on,,1,0,11,,,,,,,,,,,,,,,,15,,51,48
28140,note_on,,1,0,10,,,,,,,,,,,,,,,,13,,51,48
28199,note_on,,0,0,11,,,,,,,,,,,,,,,,15,,51,0
28199,note_on,,0,0,11,,,,,,,,,,,,,,,,15,,59,0
28199,note_on,,119,0,7,,,,,,,,,,,,,,,,10,,78,0
28199,note_on,,119,0,9,,,,,,,,,,,,,,,,12,,71,0
28199,note_on,,119,0,6,,,,,,,,,,,,,,,,7,,59,0
28199,note_on,,59,0,10,,,,,,,,,,,,,,,,13,,51,0
28199,note_on,,59,0,11,,,,,,,,,,,,,,,,15,,66,0
28199,note_on,,119,0,8,,,,,,,,,,,,,,,,11,,75,0
28200,note_on,,1,0,11,,,,,,,,,,,,,,,,15,,51,48
28200,note_on,,1,0,10,,,,,,,,,,,,,,,,13,,51,48
28200,note_on,,0,0,11,,,,,,,,,,,,,,,,15,,54,48
28200,note_on,,1,0,7,,,,,,,,,,,,,,,,10,,71,72
28200,note_on,,1,0,6,,,,,,,,,,,,,,,,7,,54,58
28200,note_on,,0,0,11,,,,,,,,,,,,,,,,15,,59,48
28200,note_on,,1,0,9,,,,,,,,,,,,,,,,12,,59,72
28200,note_on,,1,0,8,,,,,,,,,,,,,,,,11,,66,72
28259,note_on,,59,0,6,,,,,,,,,,,,,,,,7,,54,0
28259,note_on,,59,0,10,,,,,,,,,,,,,,,,13,,51,0
28259,note_on,,0,0,11,,,,,,,,,,,,,,,,15,,54,0
28259,note_on,,59,0,11,,,,,,,,,,,,,,,,15,,51,0
28260,note_on,,1,0,10,,,,,,,,,,,,,,,,13,,52,48
28260,note_on,,1,0,6,,,,,,,,,,,,,,,,7,,56,66
28260,note_on,,1,0,11,,,,,,,,,,,,,,,,15,,52,48
28260,note_on,,0,0,11,,,,,,,,,,,,,,,,15,,56,48
28319,note_on,,119,0,7,,,,,,,,,,,,,,,,10,,71,0
28319,note_on,,0,0,11,,,,,,,,,,,,,,,,15,,59,0
28319,note_on,,0,0,11,,,,,,,,,,,,,,,,15,,52,0
28319,note_on,,0,0,11,,,,,,,,,,,,,,,,15,,56,0
28319,note_on,,119,0,9,,,,,,,,,,,,,,,,12,,59,0
28319,note_on,,59,0,11,,,,,,,,,,,,,,,,15,,71,0
28319,note_on,,59,0,6,,,,,,,,,,,,,,,,7,,56,0
28319,note_on,,119,0,8,,,,,,,,,,,,,,,,11,,66,0
28319,note_on,,59,0,10,,,,,,,,,,,,,,,,13,,52,0
28320,note_on,,0,0,11,,,,,,,,,,,,,,,,15,,57,48
28320,note_on,,0,0,11,,,,,,,,,,,,,,,,15,,63,48
28320,note_on,,0,0,11,,,,,,,,,,,,,,,,15,,66,48
28320,note_on,,1,0,10,,,,,,,,,,,,,,,,13,,54,48
28320,note_on,,1,0,11,,,,,,,,,,,,,,,,15,,54,48
28320,note_on,,1,0,6,,,,,,,,,,,,,,,,7,,57,65
28439,note_on,,119,0,11,,,,,,,,,,,,,,,,15,,54,0
28439,note_on,,119,0,10,,,,,,,,,,,,,,,,13,,54,0
28440,note_on,,1,0,11,,,,,,,,,,,,,,,,15,,47,48
28440,note_on,,1,0,10,,,,,,,,,,,,,,,,13,,47,48
28499,note_on,,179,0,6,,,,,,,,,,,,,,,,7,,57,0
28500,note_on,,1,0,6,,,,,,,,,,,,,,,,7,,56,67
28559,note_on,,0,0,11,,,,,,,,,,,,,,,,15,,63,0
28559,note_on,,0,0,11,,,,,,,,,,,,,,,,15,,47,0
28559,note_on,,0,0,11,,,,,,,,,,,,,,,,15,,57,0
28559,note_on,,119,0,11,,,,,,,,,,,,,,,,15,,66,0
28559,note_on,,59,0,6,,,,,,,,,,,,,,,,7,,56,0
28559,note_on,,119,0,10,,,,,,,,,,,,,,,,13,,47,0
28560,note_on,,1,0,10,,,,,,,,,,,,,,,,13,,52,48
28560,note_on,,1,0,11,,,,,,,,,,,,,,,,15,,52,48
28560,note_on,,1,0,6,,,,,,,,,,,,,,,,7,,56,66
28560,note_on,,0,0,11,,,,,,,,,,,,,,,,15,,59,48
28560,note_on,,0,0,11,,,,,,,,,,,,,,,,15,,64,48
28560,note_on,,0,0,11,,,,,,,,,,,,,,,,15,,68,48
28679,note_on,,119,0,10,,,,,,,,,,,,,,,,13,,52,0
28679,note_on,,119,0,6,,,,,,,,,,,,,,,,7,,56,0
28679,note_on,,0,0,11,,,,,,,,,,,,,,,,15,,68,0
28679,note_on,,0,0,11,,,,,,,,,,,,,,,,15,,64,0
28679,note_on,,0,0,11,,,,,,,,,,,,,,,,15,,59,0
28679,note_on,,119,0,11,,,,,,,,,,,,,,,,15,,52,0
28740,note_on,,421,0,9,,,,,,,,,,,,,,,,12,,64,48
28740,note_on,,421,0,8,,,,,,,,,,,,,,,,11,,68,48
28740,note_on,,421,0,7,,,,,,,,,,,,,,,,10,,71,48
28799,note_on,,59,0,9,,,,,,,,,,,,,,,,12,,64,0
28799,note_on,,59,0,8,,,,,,,,,,,,,,,,11,,68,0
28799,note_on,,59,0,7,,,,,,,,,,,,,,,,10,,71,0
28800,note_on,,1,0,7,,,,,,,,,,,,,,,,10,,73,48
28800,note_on,,1,0,9,,,,,,,,,,,,,,,,12,,64,48
28800,note_on,,1,0,8,,,,,,,,,,,,,,,,11,,69,48
28814,note_on,,14,0,7,,,,,,,,,,,,,,,,10,,73,0
28815,note_on,,1,0,7,,,,,,,,,,,,,,,,10,,75,48
28829,note_on,,14,0,7,,,,,,,,,,,,,,,,10,,75,0
28830,note_on,,1,0,7,,,,,,,,,,,,,,,,10,,71,48
28844,note_on,,14,0,7,,,,,,,,,,,,,,,,10,,71,0
28845,note_on,,1,0,7,,,,,,,,,,,,,,,,10,,73,48
28859,note_on,,59,0,8,,,,,,,,,,,,,,,,11,,69,0
28859,note_on,,14,0,7,,,,,,,,,,,,,,,,10,,73,0
28859,note_on,,59,0,9,,,,,,,,,,,,,,,,12,,64,0
28860,note_on,,1,0,8,,,,,,,,,,,,,,,,11,,68,48
28860,note_on,,1,0,7,,,,,,,,,,,,,,,,10,,71,48
28860,note_on,,1,0,9,,,,,,,,,,,,,,,,12,,64,48
28919,note_on,,59,0,7,,,,,,,,,,,,,,,,10,,71,0
28919,note_on,,59,0,9,,,,,,,,,,,,,,,,12,,64,0
28919,note_on,,59,0,8,,,,,,,,,,,,,,,,11,,68,0
28920,note_on,,1,0,7,,,,,,,,,,,,,,,,10,,73,48
28920,note_on,,1,0,9,,,,,,,,,,,,,,,,12,,64,48
28920,note_on,,1,0,8,,,,,,,,,,,,,,,,11,,69,48
28934,note_on,,14,0,7,,,,,,,,,,,,,,,,10,,73,0
28935,note_on,,1,0,7,,,,,,,,,,,,,,,,10,,75,48
28949,note_on,,14,0,7,,,,,,,,,,,,,,,,10,,75,0
28950,note_on,,1,0,7,,,,,,,,,,,,,,,,10,,71,48
28964,note_on,,14,0,7,,,,,,,,,,,,,,,,10,,71,0
28965,note_on,,1,0,7,,,,,,,,,,,,,,,,10,,73,48
28979,note_on,,59,0,9,,,,,,,,,,,,,,,,12,,64,0
28979,note_on,,14,0,7,,,,,,,,,,,,,,,,10,,73,0
28979,note_on,,59,0,8,,,,,,,,,,,,,,,,11,,69,0
28980,note_on,,1,0,9,,,,,,,,,,,,,,,,12,,64,48
28980,note_on,,1,0,7,,,,,,,,,,,,,,,,10,,71,48
28980,note_on,,1,0,8,,,,,,,,,,,,,,,,11,,68,48
29039,note_on,,59,0,8,,,,,,,,,,,,,,,,11,,68,0
29039,note_on,,59,0,7,,,,,,,,,,,,,,,,10,,71,0
29039,note_on,,59,0,9,,,,,,,,,,,,,,,,12,,64,0
29040,note_on,,1,0,9,,,,,,,,,,,,,,,,12,,64,48
29040,note_on,,1,0,8,,,,,,,,,,,,,,,,11,,69,48
29040,note_on,,1,0,7,,,,,,,,,,,,,,,,10,,73,48
29054,note_on,,14,0,7,,,,,,,,,,,,,,,,10,,73,0
29055,note_on,,1,0,7,,,,,,,,,,,,,,,,10,,75,48
29069,note_on,,14,0,7,,,,,,,,,,,,,,,,10,,75,0
29070,note_on,,1,0,7,,,,,,,,,,,,,,,,10,,71,48
29084,note_on,,14,0,7,,,,,,,,,,,,,,,,10,,71,0
29085,note_on,,1,0,7,,,,,,,,,,,,,,,,10,,73,48
29099,note_on,,14,0,7,,,,,,,,,,,,,,,,10,,73,0
29099,note_on,,59,0,8,,,,,,,,,,,,,,,,11,,69,0
29100,note_on,,1,0,7,,,,,,,,,,,,,,,,10,,71,48
29100,note_on,,1,0,8,,,,,,,,,,,,,,,,11,,68,48
29159,note_on,,59,0,8,,,,,,,,,,,,,,,,11,,68,0
29159,note_on,,119,0,9,,,,,,,,,,,,,,,,12,,64,0
29159,note_on,,59,0,7,,,,,,,,,,,,,,,,10,,71,0
29220,note_on,,0,0,11,,,,,,,,,,,,,,,,15,,59,48
29220,note_on,,541,0,10,,,,,,,,,,,,,,,,13,,56,48
29220,note_on,,541,0,6,,,,,,,,,,,,,,,,7,,64,61
29220,note_on,,0,0,11,,,,,,,,,,,,,,,,15,,64,48
29220,note_on,,541,0,11,,,,,,,,,,,,,,,,15,,56,48
29279,note_on,,0,0,11,,,,,,,,,,,,,,,,15,,64,0
29279,note_on,,0,0,11,,,,,,,,,,,,,,,,15,,59,0
29279,note_on,,59,0,10,,,,,,,,,,,,,,,,13,,56,0
29279,note_on,,59,0,6,,,,,,,,,,,,,,,,7,,64,0
29279,note_on,,59,0,11,,,,,,,,,,,,,,,,15,,56,0
29280,note_on,,1,0,11,,,,,,,,,,,,,,,,15,,57,48
29280,note_on,,0,0,11,,,,,,,,,,,,,,,,15,,61,48
29280,note_on,,0,0,11,,,,,,,,,,,,,,,,15,,66,48
29280,note_on,,1,0,10,,,,,,,,,,,,,,,,13,,57,48
29280,note_on,,1,0,6,,,,,,,,,,,,,,,,7,,66,59
29339,note_on,,0,0,11,,,,,,,,,,,,,,,,15,,66,0
29339,note_on,,0,0,11,,,,,,,,,,,,,,,,15,,61,0
29339,note_on,,59,0,10,,,,,,,,,,,,,,,,13,,57,0
29339,note_on,,59,0,6,,,,,,,,,,,,,,,,7,,66,0
29339,note_on,,59,0,11,,,,,,,,,,,,,,,,15,,57,0
29340,note_on,,0,0,11,,,,,,,,,,,,,,,,15,,64,48
29340,note_on,,0,0,11,,,,,,,,,,,,,,,,15,,59,48
29340,note_on,,1,0,11,,,,,,,,,,,,,,,,15,,56,48
29340,note_on,,1,0,10,,,,,,,,,,,,,,,,13,,56,48
29340,note_on,,1,0,6,,,,,,,,,,,,,,,,7,,64,60
29399,note_on,,0,0,11,,,,,,,,,,,,,,,,15,,64,0
29399,note_on,,0,0,11,,,,,,,,,,,,,,,,15,,59,0
29399,note_on,,59,0,11,,,,,,,,,,,,,,,,15,,56,0
29399,note_on,,59,0,6,,,,,,,,,,,,,,,,7,,64,0
29399,note_on,,59,0,10,,,,,,,,,,,,,,,,13,,56,0
29400,note_on,,1,0,6,,,,,,,,,,,,,,,,7,,66,60
29400,note_on,,1,0,10,,,,,,,,,,,,,,,,13,,57,48
29400,note_on,,1,0,11,,,,,,,,,,,,,,,,15,,57,48
29400,note_on,,0,0,11,,,,,,,,,,,,,,,,15,,61,48
29400,note_on,,0,0,11,,,,,,,,,,,,,,,,15,,66,48
29459,note_on,,59,0,10,,,,,,,,,,,,,,,,13,,57,0
29459,note_on,,0,0,11,,,,,,,,,,,,,,,,15,,66,0
29459,note_on,,59,0,11,,,,,,,,,,,,,,,,15,,57,0
29459,note_on,,59,0,6,,,,,,,,,,,,,,,,7,,66,0
29459,note_on,,0,0,11,,,,,,,,,,,,,,,,15,,61,0
29460,note_on,,1,0,10,,,,,,,,,,,,,,,,13,,56,48
29460,note_on,,1,0,6,,,,,,,,,,,,,,,,7,,64,67
29460,note_on,,0,0,11,,,,,,,,,,,,,,,,15,,59,48
29460,note_on,,0,0,11,,,,,,,,,,,,,,,,15,,64,48
29460,note_on,,1,0,11,,,,,,,,,,,,,,,,15,,56,48
29519,note_on,,59,0,11,,,,,,,,,,,,,,,,15,,56,0
29519,note_on,,0,0,11,,,,,,,,,,,,,,,,15,,59,0
29519,note_on,,0,0,11,,,,,,,,,,,,,,,,15,,64,0
29519,note_on,,59,0,6,,,,,,,,,,,,,,,,7,,64,0
29519,note_on,,59,0,10,,,,,,,,,,,,,,,,13,,56,0
29520,note_on,,1,0,11,,,,,,,,,,,,,,,,15,,57,48
29520,note_on,,0,0,11,,,,,,,,,,,,,,,,15,,64,48
29520,note_on,,0,0,11,,,,,,,,,,,,,,,,15,,61,48
29520,note_on,,1,0,6,,,,,,,,,,,,,,,,7,,64,66
29520,note_on,,1,0,10,,,,,,,,,,,,,,,,13,,57,48
29579,note_on,,0,0,11,,,,,,,,,,,,,,,,15,,61,0
29579,note_on,,59,0,10,,,,,,,,,,,,,,,,13,,57,0
29579,note_on,,59,0,11,,,,,,,,,,,,,,,,15,,57,0
29580,note_on,,1,0,10,,,,,,,,,,,,,,,,13,,56,48
29580,note_on,,1,0,11,,,,,,,,,,,,,,,,15,,56,48
29580,note_on,,0,0,11,,,,,,,,,,,,,,,,15,,59,48
29639,note_on,,59,0,10,,,,,,,,,,,,,,,,13,,56,0
29639,note_on,,59,0,11,,,,,,,,,,,,,,,,15,,56,0
29639,note_on,,0,0,11,,,,,,,,,,,,,,,,15,,59,0
29640,note_on,,0,0,11,,,,,,,,,,,,,,,,15,,61,48
29640,note_on,,1,0,10,,,,,,,,,,,,,,,,13,,57,48
29640,note_on,,1,0,11,,,,,,,,,,,,,,,,15,,57,48
29699,note_on,,0,0,11,,,,,,,,,,,,,,,,15,,57,0
29699,note_on,,59,0,11,,,,,,,,,,,,,,,,15,,64,0
29699,note_on,,59,0,10,,,,,,,,,,,,,,,,13,,57,0
29699,note_on,,0,0,11,,,,,,,,,,,,,,,,15,,61,0
29700,note_on,,0,0,11,,,,,,,,,,,,,,,,15,,59,48
29700,note_on,,541,0,9,,,,,,,,,,,,,,,,12,,59,48
29700,note_on,,541,0,7,,,,,,,,,,,,,,,,10,,76,48
29700,note_on,,541,0,8,,,,,,,,,,,,,,,,11,,71,48
29700,note_on,,1,0,10,,,,,,,,,,,,,,,,13,,56,48
29700,note_on,,1,0,11,,,,,,,,,,,,,,,,15,,56,48
29700,note_on,,0,0,11,,,,,,,,,,,,,,,,15,,64,48
29759,note_on,,59,0,10,,,,,,,,,,,,,,,,13,,56,0
29759,note_on,,0,0,11,,,,,,,,,,,,,,,,15,,59,0
29759,note_on,,0,0,11,,,,,,,,,,,,,,,,15,,64,0
29759,note_on,,59,0,7,,,,,,,,,,,,,,,,10,,76,0
29759,note_on,,239,0,6,,,,,,,,,,,,,,,,7,,64,0
29759,note_on,,59,0,8,,,,,,,,,,,,,,,,11,,71,0
29759,note_on,,59,0,9,,,,,,,,,,,,,,,,12,,59,0
29759,note_on,,59,0,11,,,,,,,,,,,,,,,,15,,56,0
29760,note_on,,0,0,11,,,,,,,,,,,,,,,,15,,61,48
29760,note_on,,1,0,10,,,,,,,,,,,,,,,,13,,57,48
29760,note_on,,1,0,9,,,,,,,,,,,,,,,,12,,57,48
29760,note_on,,1,0,7,,,,,,,,,,,,,,,,10,,78,48
29760,note_on,,0,0,11,,,,,,,,,,,,,,,,15,,66,48
29760,note_on,,1,0,11,,,,,,,,,,,,,,,,15,,57,48
29760,note_on,,1,0,8,,,,,,,,,,,,,,,,11,,73,48
29774,note_on,,14,0,7,,,,,,,,,,,,,,,,10,,78,0
29775,note_on,,1,0,7,,,,,,,,,,,,,,,,10,,80,48
29789,note_on,,14,0,7,,,,,,,,,,,,,,,,10,,80,0
29790,note_on,,1,0,7,,,,,,,,,,,,,,,,10,,76,48
29804,note_on,,14,0,7,,,,,,,,,,,,,,,,10,,76,0
29805,note_on,,1,0,7,,,,,,,,,,,,,,,,10,,78,48
29819,note_on,,59,0,11,,,,,,,,,,,,,,,,15,,57,0
29819,note_on,,0,0,11,,,,,,,,,,,,,,,,15,,66,0
29819,note_on,,14,0,7,,,,,,,,,,,,,,,,10,,78,0
29819,note_on,,59,0,10,,,,,,,,,,,,,,,,13,,57,0
29819,note_on,,59,0,8,,,,,,,,,,,,,,,,11,,73,0
29819,note_on,,59,0,9,,,,,,,,,,,,,,,,12,,57,0
29819,note_on,,0,0,11,,,,,,,,,,,,,,,,15,,61,0
29820,note_on,,1,0,10,,,,,,,,,,,,,,,,13,,56,48
29820,note_on,,1,0,11,,,,,,,,,,,,,,,,15,,56,48
29820,note_on,,1,0,8,,,,,,,,,,,,,,,,11,,71,48
29820,note_on,,0,0,11,,,,,,,,,,,,,,,,15,,59,48
29820,note_on,,0,0,11,,,,,,,,,,,,,,,,15,,64,48
29820,note_on,,1,0,7,,,,,,,,,,,,,,,,10,,76,48
29820,note_on,,1,0,9,,,,,,,,,,,,,,,,12,,59,48
29879,note_on,,59,0,8,,,,,,,,,,,,,,,,11,,71,0
29879,note_on,,59,0,11,,,,,,,,,,,,,,,,15,,56,0
29879,note_on,,0,0,11,,,,,,,,,,,,,,,,15,,59,0
29879,note_on,,0,0,11,,,,,,,,,,,,,,,,15,,64,0
29879,note_on,,59,0,10,,,,,,,,,,,,,,,,13,,56,0
29879,note_on,,59,0,9,,,,,,,,,,,,,,,,12,,59,0
29879,note_on,,59,0,7,,,,,,,,,,,,,,,,10,,76,0
29880,note_on,,0,0,11,,,,,,,,,,,,,,,,15,,66,48
29880,note_on,,1,0,7,,,,,,,,,,,,,,,,10,,78,48
29880,note_on,,1,0,10,,,,,,,,,,,,,,,,13,,57,48
29880,note_on,,1,0,9,,,,,,,,,,,,,,,,12,,57,48
29880,note_on,,1,0,8,,,,,,,,,,,,,,,,11,,73,48
29880,note_on,,0,0,11,,,,,,,,,,,,,,,,15,,61,48
29880,note_on,,1,0,11,,,,,,,,,,,,,,,,15,,57,48
29894,note_on,,14,0,7,,,,,,,,,,,,,,,,10,,78,0
29895,note_on,,1,0,7,,,,,,,,,,,,,,,,10,,80,48
29909,note_on,,14,0,7,,,,,,,,,,,,,,,,10,,80,0
29910,note_on,,1,0,7,,,,,,,,,,,,,,,,10,,76,48
29924,note_on,,14,0,7,,,,,,,,,,,,,,,,10,,76,0
29925,note_on,,1,0,7,,,,,,,,,,,,,,,,10,,78,48
29939,note_on,,0,0,11,,,,,,,,,,,,,,,,15,,61,0
29939,note_on,,59,0,8,,,,,,,,,,,,,,,,11,,73,0
29939,note_on,,14,0,7,,,,,,,,,,,,,,,,10,,78,0
29939,note_on,,59,0,10,,,,,,,,,,,,,,,,13,,57,0
29939,note_on,,0,0,11,,,,,,,,,,,,,,,,15,,66,0
29939,note_on,,59,0,11,,,,,,,,,,,,,,,,15,,57,0
29939,note_on,,59,0,9,,,,,,,,,,,,,,,,12,,57,0
29940,note_on,,1,0,8,,,,,,,,,,,,,,,,11,,71,48
29940,note_on,,0,0,11,,,,,,,,,,,,,,,,15,,64,48
29940,note_on,,0,0,11,,,,,,,,,,,,,,,,15,,59,48
29940,note_on,,1,0,11,,,,,,,,,,,,,,,,15,,56,48
29940,note_on,,1,0,9,,,,,,,,,,,,,,,,12,,59,48
29940,note_on,,1,0,10,,,,,,,,,,,,,,,,13,,56,48
29940,note_on,,1,0,7,,,,,,,,,,,,,,,,10,,76,48
29999,note_on,,59,0,8,,,,,,,,,,,,,,,,11,,71,0
29999,note_on,,59,0,11,,,,,,,,,,,,,,,,15,,56,0
29999,note_on,,0,0,11,,,,,,,,,,,,,,,,15,,59,0
29999,note_on,,0,0,11,,,,,,,,,,,,,,,,15,,64,0
29999,note_on,,59,0,7,,,,,,,,,,,,,,,,10,,76,0
29999,note_on,,59,0,9,,,,,,,,,,,,,,,,12,,59,0
29999,note_on,,59,0,10,,,,,,,,,,,,,,,,13,,56,0
30000,note_on,,1,0,11,,,,,,,,,,,,,,,,15,,57,48
30000,note_on,,0,0,11,,,,,,,,,,,,,,,,15,,64,48
30000,note_on,,0,0,11,,,,,,,,,,,,,,,,15,,61,48
30000,note_on,,1,0,8,,,,,,,,,,,,,,,,11,,73,48
30000,note_on,,1,0,7,,,,,,,,,,,,,,,,10,,76,48
30000,note_on,,1,0,10,,,,,,,,,,,,,,,,13,,57,48
30000,note_on,,1,0,9,,,,,,,,,,,,,,,,12,,57,48
30059,note_on,,59,0,10,,,,,,,,,,,,,,,,13,,57,0
30059,note_on,,59,0,8,,,,,,,,,,,,,,,,11,,73,0
30059,note_on,,59,0,11,,,,,,,,,,,,,,,,15,,57,0
30059,note_on,,0,0,11,,,,,,,,,,,,,,,,15,,61,0
30059,note_on,,59,0,9,,,,,,,,,,,,,,,,12,,57,0
30060,note_on,,1,0,11,,,,,,,,,,,,,,,,15,,56,48
30060,note_on,,1,0,10,,,,,,,,,,,,,,,,13,,56,48
30060,note_on,,0,0,11,,,,,,,,,,,,,,,,15,,59,48
30060,note_on,,1,0,8,,,,,,,,,,,,,,,,11,,71,48
30060,note_on,,1,0,9,,,,,,,,,,,,,,,,12,,64,48
30119,note_on,,59,0,8,,,,,,,,,,,,,,,,11,,71,0
30119,note_on,,59,0,9,,,,,,,,,,,,,,,,12,,64,0
30119,note_on,,59,0,11,,,,,,,,,,,,,,,,15,,56,0
30119,note_on,,0,0,11,,,,,,,,,,,,,,,,15,,59,0
30119,note_on,,59,0,10,,,,,,,,,,,,,,,,13,,56,0
30120,note_on,,1,0,8,,,,,,,,,,,,,,,,11,,73,48
30120,note_on,,1,0,9,,,,,,,,,,,,,,,,12,,57,48
30120,note_on,,1,0,11,,,,,,,,,,,,,,,,15,,57,48
30120,note_on,,0,0,11,,,,,,,,,,,,,,,,15,,61,48
30120,note_on,,1,0,10,,,,,,,,,,,,,,,,13,,57,48
30179,note_on,,0,0,11,,,,,,,,,,,,,,,,15,,57,0
30179,note_on,,0,0,11,,,,,,,,,,,,,,,,15,,61,0
30179,note_on,,59,0,11,,,,,,,,,,,,,,,,15,,64,0
30179,note_on,,59,0,9,,,,,,,,,,,,,,,,12,,57,0
30179,note_on,,59,0,10,,,,,,,,,,,,,,,,13,,57,0
30179,note_on,,59,0,8,,,,,,,,,,,,,,,,11,,73,0
30180,note_on,,1,0,10,,,,,,,,,,,,,,,,13,,56,48
30180,note_on,,421,0,6,,,,,,,,,,,,,,,,7,,59,60
30180,note_on,,1,0,9,,,,,,,,,,,,,,,,12,,64,48
30180,note_on,,0,0,11,,,,,,,,,,,,,,,,15,,59,48
30180,note_on,,1,0,8,,,,,,,,,,,,,,,,11,,71,48
30180,note_on,,0,0,11,,,,,,,,,,,,,,,,15,,64,48
30180,note_on,,1,0,11,,,,,,,,,,,,,,,,15,,56,48
30239,note_on,,59,0,8,,,,,,,,,,,,,,,,11,,71,0
30239,note_on,,59,0,6,,,,,,,,,,,,,,,,7,,59,0
30239,note_on,,0,0,11,,,,,,,,,,,,,,,,15,,59,0
30239,note_on,,0,0,11,,,,,,,,,,,,,,,,15,,64,0
30239,note_on,,59,0,11,,,,,,,,,,,,,,,,15,,56,0
30239,note_on,,59,0,9,,,,,,,,,,,,,,,,12,,64,0
30239,note_on,,59,0,10,,,,,,,,,,,,,,,,13,,56,0
30240,note_on,,1,0,11,,,,,,,,,,,,,,,,15,,57,48
30240,note_on,,0,0,11,,,,,,,,,,,,,,,,15,,64,48
30240,note_on,,0,0,11,,,,,,,,,,,,,,,,15,,61,48
30240,note_on,,1,0,9,,,,,,,,,,,,,,,,12,,61,48
30240,note_on,,1,0,10,,,,,,,,,,,,,,,,13,,57,48
30240,note_on,,1,0,6,,,,,,,,,,,,,,,,7,,61,60
30240,note_on,,1,0,8,,,,,,,,,,,,,,,,11,,73,48
30299,note_on,,59,0,6,,,,,,,,,,,,,,,,7,,61,0
30299,note_on,,59,0,8,,,,,,,,,,,,,,,,11,,73,0
30300,note_on,,1,0,6,,,,,,,,,,,,,,,,7,,64,66
30300,note_on,,1,0,8,,,,,,,,,,,,,,,,11,,76,48
30359,note_on,,59,0,8,,,,,,,,,,,,,,,,11,,76,0
30359,note_on,,119,0,10,,,,,,,,,,,,,,,,13,,57,0
30359,note_on,,59,0,6,,,,,,,,,,,,,,,,7,,64,0
30359,note_on,,119,0,11,,,,,,,,,,,,,,,,15,,57,0
30359,note_on,,0,0,11,,,,,,,,,,,,,,,,15,,64,0
30360,note_on,,1,0,8,,,,,,,,,,,,,,,,11,,66,48
30360,note_on,,0,0,11,,,,,,,,,,,,,,,,15,,66,48
30360,note_on,,1,0,11,,,,,,,,,,,,,,,,15,,45,48
30360,note_on,,1,0,10,,,,,,,,,,,,,,,,13,,45,48
30360,note_on,,1,0,6,,,,,,,,,,,,,,,,7,,54,62
30419,note_on,,179,0,9,,,,,,,,,,,,,,,,12,,61,0
30419,note_on,,419,0,7,,,,,,,,,,,,,,,,10,,76,0
30420,note_on,,1,0,7,,,,,,,,,,,,,,,,10,,76,48
30420,note_on,,1,0,9,,,,,,,,,,,,,,,,12,,61,48
30479,note_on,,59,0,7,,,,,,,,,,,,,,,,10,,76,0
30479,note_on,,59,0,9,,,,,,,,,,,,,,,,12,,61,0
30479,note_on,,119,0,6,,,,,,,,,,,,,,,,7,,54,0
30479,note_on,,119,0,11,,,,,,,,,,,,,,,,15,,61,0
30479,note_on,,0,0,11,,,,,,,,,,,,,,,,15,,45,0
30479,note_on,,119,0,10,,,,,,,,,,,,,,,,13,,45,0
30479,note_on,,119,0,8,,,,,,,,,,,,,,,,11,,66,0
30479,note_on,,0,0,11,,,,,,,,,,,,,,,,15,,66,0
30480,note_on,,1,0,8,,,,,,,,,,,,,,,,11,,66,48
30480,note_on,,1,0,10,,,,,,,,,,,,,,,,13,,47,48
30480,note_on,,1,0,7,,,,,,,,,,,,,,,,10,,75,48
30480,note_on,,0,0,11,,,,,,,,,,,,,,,,15,,54,48
30480,note_on,,0,0,11,,,,,,,,,,,,,,,,15,,59,48
30480,note_on,,0,0,11,,,,,,,,,,,,,,,,15,,63,48
30480,note_on,,0,0,11,,,,,,,,,,,,,,,,15,,66,48
30480,note_on,,1,0,11,,,,,,,,,,,,,,,,15,,47,48
30480,note_on,,1,0,6,,,,,,,,,,,,,,,,7,,54,60
30480,note_on,,1,0,9,,,,,,,,,,,,,,,,12,,59,48
30539,note_on,,59,0,7,,,,,,,,,,,,,,,,10,,75,0
30540,note_on,,1,0,7,,,,,,,,,,,,,,,,10,,78,48
30599,note_on,,119,0,8,,,,,,,,,,,,,,,,11,,66,0
30599,note_on,,119,0,10,,,,,,,,,,,,,,,,13,,47,0
30599,note_on,,119,0,9,,,,,,,,,,,,,,,,12,,59,0
30599,note_on,,59,0,7,,,,,,,,,,,,,,,,10,,78,0
30599,note_on,,119,0,11,,,,,,,,,,,,,,,,15,,47,0
30599,note_on,,119,0,6,,,,,,,,,,,,,,,,7,,54,0
30599,note_on,,0,0,11,,,,,,,,,,,,,,,,15,,66,0
30599,note_on,,0,0,11,,,,,,,,,,,,,,,,15,,63,0
30599,note_on,,0,0,11,,,,,,,,,,,,,,,,15,,59,0
30599,note_on,,0,0,11,,,,,,,,,,,,,,,,15,,54,0
30600,note_on,,1,0,7,,,,,,,,,,,,,,,,10,,69,48
30660,note_on,,61,0,6,,,,,,,,,,,,,,,,7,,63,67
30660,note_on,,61,0,9,,,,,,,,,,,,,,,,12,,66,48
30660,note_on,,61,0,8,,,,,,,,,,,,,,,,11,,75,48
30660,note_on,,0,0,11,,,,,,,,,,,,,,,,15,,59,48
30660,note_on,,0,0,11,,,,,,,,,,,,,,,,15,,63,48
30660,note_on,,0,0,11,,,,,,,,,,,,,,,,15,,66,48
30660,note_on,,61,0,10,,,,,,,,,,,,,,,,13,,47,48
30660,note_on,,61,0,11,,,,,,,,,,,,,,,,15,,47,48
30719,note_on,,59,0,10,,,,,,,,,,,,,,,,13,,47,0
30719,note_on,,59,0,9,,,,,,,,,,,,,,,,12,,66,0
30719,note_on,,119,0,7,,,,,,,,,,,,,,,,10,,69,0
30719,note_on,,59,0,8,,,,,,,,,,,,,,,,11,,75,0
30719,note_on,,59,0,11,,,,,,,,,,,,,,,,15,,47,0
30719,note_on,,0,0,11,,,,,,,,,,,,,,,,15,,59,0
30719,note_on,,0,0,11,,,,,,,,,,,,,,,,15,,66,0
30719,note_on,,59,0,6,,,,,,,,,,,,,,,,7,,63,0
30719,note_on,,0,0,11,,,,,,,,,,,,,,,,15,,63,0
30720,note_on,,1,0,7,,,,,,,,,,,,,,,,10,,68,48
30720,note_on,,1,0,8,,,,,,,,,,,,,,,,11,,76,48
30720,note_on,,1,0,9,,,,,,,,,,,,,,,,12,,64,48
30720,note_on,,0,0,11,,,,,,,,,,,,,,,,15,,64,48
30720,note_on,,1,0,10,,,,,,,,,,,,,,,,13,,52,48
30720,note_on,,1,0,11,,,,,,,,,,,,,,,,15,,52,48
30720,note_on,,0,0,11,,,,,,,,,,,,,,,,15,,68,48
30720,note_on,,0,0,11,,,,,,,,,,,,,,,,15,,59,48
30720,note_on,,1,0,6,,,,,,,,,,,,,,,,7,,64,65
30779,note_on,,59,0,9,,,,,,,,,,,,,,,,12,,64,0
30779,note_on,,59,0,8,,,,,,,,,,,,,,,,11,,76,0
30779,note_on,,59,0,6,,,,,,,,,,,,,,,,7,,64,0
30780,note_on,,1,0,9,,,,,,,,,,,,,,,,12,,59,48
30780,note_on,,1,0,8,,,,,,,,,,,,,,,,11,,80,48
30780,note_on,,1,0,6,,,,,,,,,,,,,,,,7,,68,61
30839,note_on,,119,0,10,,,,,,,,,,,,,,,,13,,52,0
30839,note_on,,119,0,11,,,,,,,,,,,,,,,,15,,52,0
30839,note_on,,0,0,11,,,,,,,,,,,,,,,,15,,68,0
30839,note_on,,0,0,11,,,,,,,,,,,,,,,,15,,64,0
30839,note_on,,59,0,9,,,,,,,,,,,,,,,,12,,59,0
30839,note_on,,59,0,8,,,,,,,,,,,,,,,,11,,80,0
30839,note_on,,59,0,6,,,,,,,,,,,,,,,,7,,68,0
30839,note_on,,0,0,11,,,,,,,,,,,,,,,,15,,59,0
30839,note_on,,119,0,7,,,,,,,,,,,,,,,,10,,68,0
30840,note_on,,1,0,7,,,,,,,,,,,,,,,,10,,68,48
30840,note_on,,1,0,10,,,,,,,,,,,,,,,,13,,56,48
30840,note_on,,1,0,11,,,,,,,,,,,,,,,,15,,56,48
30840,note_on,,0,0,11,,,,,,,,,,,,,,,,15,,59,48
30840,note_on,,1,0,9,,,,,,,,,,,,,,,,12,,64,48
30840,note_on,,0,0,11,,,,,,,,,,,,,,,,15,,64,48
30840,note_on,,1,0,6,,,,,,,,,,,,,,,,7,,59,61
30840,note_on,,1,0,8,,,,,,,,,,,,,,,,11,,71,48
30959,note_on,,119,0,8,,,,,,,,,,,,,,,,11,,71,0
30959,note_on,,119,0,6,,,,,,,,,,,,,,,,7,,59,0
30959,note_on,,0,0,11,,,,,,,,,,,,,,,,15,,64,0
30959,note_on,,0,0,11,,,,,,,,,,,,,,,,15,,59,0
30959,note_on,,119,0,9,,,,,,,,,,,,,,,,12,,64,0
30959,note_on,,119,0,10,,,,,,,,,,,,,,,,13,,56,0
30959,note_on,,119,0,11,,,,,,,,,,,,,,,,15,,56,0
30960,note_on,,1,0,9,,,,,,,,,,,,,,,,12,,61,48
30960,note_on,,1,0,10,,,,,,,,,,,,,,,,13,,54,48
30960,note_on,,1,0,8,,,,,,,,,,,,,,,,11,,69,48
30960,note_on,,0,0,11,,,,,,,,,,,,,,,,15,,57,48
30960,note_on,,0,0,11,,,,,,,,,,,,,,,,15,,61,48
30960,note_on,,0,0,11,,,,,,,,,,,,,,,,15,,69,48
30960,note_on,,1,0,11,,,,,,,,,,,,,,,,15,,54,48
30960,note_on,,1,0,6,,,,,,,,,,,,,,,,7,,57,64
31079,note_on,,119,0,9,,,,,,,,,,,,,,,,12,,61,0
31079,note_on,,0,0,11,,,,,,,,,,,,,,,,15,,61,0
31079,note_on,,0,0,11,,,,,,,,,,,,,,,,15,,69,0
31079,note_on,,119,0,11,,,,,,,,,,,,,,,,15,,54,0
31079,note_on,,239,0,7,,,,,,,,,,,,,,,,10,,68,0
31079,note_on,,119,0,10,,,,,,,,,,,,,,,,13,,54,0
31079,note_on,,119,0,6,,,,,,,,,,,,,,,,7,,57,0
31079,note_on,,0,0,11,,,,,,,,,,,,,,,,15,,57,0
31080,note_on,,1,0,6,,,,,,,,,,,,,,,,7,,57,64
31080,note_on,,1,0,7,,,,,,,,,,,,,,,,10,,66,48
31139,note_on,,59,0,6,,,,,,,,,,,,,,,,7,,57,0
31139,note_on,,59,0,7,,,,,,,,,,,,,,,,10,,66,0
31139,note_on,,179,0,8,,,,,,,,,,,,,,,,11,,69,0
31140,note_on,,61,0,10,,,,,,,,,,,,,,,,13,,49,48
31140,note_on,,1,0,6,,,,,,,,,,,,,,,,7,,57,67
31140,note_on,,61,0,9,,,,,,,,,,,,,,,,12,,61,48
31140,note_on,,1,0,7,,,,,,,,,,,,,,,,10,,64,48
31140,note_on,,61,0,11,,,,,,,,,,,,,,,,15,,49,48
31140,note_on,,1,0,8,,,,,,,,,,,,,,,,11,,69,48
31140,note_on,,0,0,11,,,,,,,,,,,,,,,,15,,64,48
31140,note_on,,0,0,11,,,,,,,,,,,,,,,,15,,69,48
31199,note_on,,59,0,10,,,,,,,,,,,,,,,,13,,49,0
31199,note_on,,59,0,8,,,,,,,,,,,,,,,,11,,69,0
31199,note_on,,59,0,9,,,,,,,,,,,,,,,,12,,61,0
31199,note_on,,59,0,6,,,,,,,,,,,,,,,,7,,57,0
31199,note_on,,0,0,11,,,,,,,,,,,,,,,,15,,69,0
31199,note_on,,59,0,11,,,,,,,,,,,,,,,,15,,49,0
31199,note_on,,59,0,7,,,,,,,,,,,,,,,,10,,64,0
31199,note_on,,0,0,11,,,,,,,,,,,,,,,,15,,64,0
31200,note_on,,1,0,6,,,,,,,,,,,,,,,,7,,57,65
31200,note_on,,1,0,8,,,,,,,,,,,,,,,,11,,69,48
31200,note_on,,1,0,11,,,,,,,,,,,,,,,,15,,54,48
31200,note_on,,0,0,11,,,,,,,,,,,,,,,,15,,69,48
31200,note_on,,0,0,11,,,,,,,,,,,,,,,,15,,63,48
31200,note_on,,1,0,7,,,,,,,,,,,,,,,,10,,66,48
31200,note_on,,1,0,10,,,,,,,,,,,,,,,,13,,54,48
31200,note_on,,1,0,9,,,,,,,,,,,,,,,,12,,63,48
31259,note_on,,59,0,10,,,,,,,,,,,,,,,,13,,54,0
31259,note_on,,59,0,9,,,,,,,,,,,,,,,,12,,63,0
31259,note_on,,0,0,11,,,,,,,,,,,,,,,,15,,63,0
31259,note_on,,59,0,11,,,,,,,,,,,,,,,,15,,54,0
31259,note_on,,59,0,7,,,,,,,,,,,,,,,,10,,66,0
31260,note_on,,0,0,11,,,,,,,,,,,,,,,,15,,64,48
31260,note_on,,1,0,11,,,,,,,,,,,,,,,,15,,52,48
31260,note_on,,1,0,9,,,,,,,,,,,,,,,,12,,64,48
31260,note_on,,1,0,10,,,,,,,,,,,,,,,,13,,52,48
31260,note_on,,1,0,7,,,,,,,,,,,,,,,,10,,80,48
31319,note_on,,119,0,6,,,,,,,,,,,,,,,,7,,57,0
31319,note_on,,59,0,9,,,,,,,,,,,,,,,,12,,64,0
31319,note_on,,0,0,11,,,,,,,,,,,,,,,,15,,64,0
31319,note_on,,59,0,10,,,,,,,,,,,,,,,,13,,52,0
31319,note_on,,59,0,11,,,,,,,,,,,,,,,,15,,52,0
31319,note_on,,59,0,7,,,,,,,,,,,,,,,,10,,80,0
31320,note_on,,1,0,7,,,,,,,,,,,,,,,,10,,78,48
31320,note_on,,0,0,11,,,,,,,,,,,,,,,,15,,66,48
31320,note_on,,1,0,9,,,,,,,,,,,,,,,,12,,66,48
31320,note_on,,1,0,6,,,,,,,,,,,,,,,,7,,57,65
31320,note_on,,1,0,11,,,,,,,,,,,,,,,,15,,51,48
31320,note_on,,1,0,10,,,,,,,,,,,,,,,,13,,51,48
31379,note_on,,59,0,6,,,,,,,,,,,,,,,,7,,57,0
31379,note_on,,179,0,8,,,,,,,,,,,,,,,,11,,69,0
31379,note_on,,59,0,11,,,,,,,,,,,,,,,,15,,51,0
31379,note_on,,59,0,7,,,,,,,,,,,,,,,,10,,78,0
31379,note_on,,59,0,9,,,,,,,,,,,,,,,,12,,66,0
31379,note_on,,0,0,11,,,,,,,,,,,,,,,,15,,66,0
31379,note_on,,59,0,10,,,,,,,,,,,,,,,,13,,51,0
31380,note_on,,1,0,9,,,,,,,,,,,,,,,,12,,61,48
31380,note_on,,1,0,8,,,,,,,,,,,,,,,,11,,69,48
31380,note_on,,0,0,11,,,,,,,,,,,,,,,,15,,64,48
31380,note_on,,1,0,11,,,,,,,,,,,,,,,,15,,49,48
31380,note_on,,1,0,7,,,,,,,,,,,,,,,,10,,76,48
31380,note_on,,1,0,6,,,,,,,,,,,,,,,,7,,57,61
31380,note_on,,1,0,10,,,,,,,,,,,,,,,,13,,49,48
31439,note_on,,0,0,11,,,,,,,,,,,,,,,,15,,49,0
31439,note_on,,59,0,6,,,,,,,,,,,,,,,,7,,57,0
31439,note_on,,0,0,11,,,,,,,,,,,,,,,,15,,64,0
31439,note_on,,59,0,7,,,,,,,,,,,,,,,,10,,76,0
31439,note_on,,59,0,10,,,,,,,,,,,,,,,,13,,49,0
31439,note_on,,59,0,8,,,,,,,,,,,,,,,,11,,69,0
31439,note_on,,59,0,9,,,,,,,,,,,,,,,,12,,61,0
31439,note_on,,59,0,11,,,,,,,,,,,,,,,,15,,69,0
31440,note_on,,1,0,8,,,,,,,,,,,,,,,,11,,69,48
31440,note_on,,1,0,7,,,,,,,,,,,,,,,,10,,75,48
31440,note_on,,1,0,6,,,,,,,,,,,,,,,,7,,57,64
31440,note_on,,1,0,11,,,,,,,,,,,,,,,,15,,47,48
31440,note_on,,0,0,11,,,,,,,,,,,,,,,,15,,69,48
31440,note_on,,0,0,11,,,,,,,,,,,,,,,,15,,63,48
31440,note_on,,1,0,10,,,,,,,,,,,,,,,,13,,47,48
31440,note_on,,1,0,9,,,,,,,,,,,,,,,,12,,66,48
31499,note_on,,0,0,11,,,,,,,,,,,,,,,,15,,63,0
31499,note_on,,59,0,11,,,,,,,,,,,,,,,,15,,47,0
31499,note_on,,59,0,9,,,,,,,,,,,,,,,,12,,66,0
31499,note_on,,59,0,7,,,,,,,,,,,,,,,,10,,75,0
31499,note_on,,59,0,10,,,,,,,,,,,,,,,,13,,47,0
31499,note_on,,59,0,8,,,,,,,,,,,,,,,,11,,69,0
31500,note_on,,1,0,8,,,,,,,,,,,,,,,,11,,68,48
31500,note_on,,1,0,7,,,,,,,,,,,,,,,,10,,76,48
31500,note_on,,1,0,9,,,,,,,,,,,,,,,,12,,64,48
31500,note_on,,1,0,10,,,,,,,,,,,,,,,,13,,49,48
31500,note_on,,1,0,11,,,,,,,,,,,,,,,,15,,49,48
31500,note_on,,0,0,11,,,,,,,,,,,,,,,,15,,64,48
31559,note_on,,59,0,11,,,,,,,,,,,,,,,,15,,49,0
31559,note_on,,59,0,7,,,,,,,,,,,,,,,,10,,76,0
31559,note_on,,59,0,9,,,,,,,,,,,,,,,,12,,64,0
31559,note_on,,0,0,11,,,,,,,,,,,,,,,,15,,64,0
31559,note_on,,59,0,8,,,,,,,,,,,,,,,,11,,68,0
31559,note_on,,59,0,10,,,,,,,,,,,,,,,,13,,49,0
31560,note_on,,1,0,10,,,,,,,,,,,,,,,,13,,51,48
31560,note_on,,1,0,9,,,,,,,,,,,,,,,,12,,59,48
31560,note_on,,1,0,7,,,,,,,,,,,,,,,,10,,78,48
31560,note_on,,1,0,11,,,,,,,,,,,,,,,,15,,51,48
31560,note_on,,0,0,11,,,,,,,,,,,,,,,,15,,66,48
31560,note_on,,1,0,8,,,,,,,,,,,,,,,,11,,66,48
31619,note_on,,59,0,9,,,,,,,,,,,,,,,,12,,59,0
31619,note_on,,59,0,7,,,,,,,,,,,,,,,,10,,78,0
31619,note_on,,59,0,10,,,,,,,,,,,,,,,,13,,51,0
31619,note_on,,59,0,8,,,,,,,,,,,,,,,,11,,66,0
31619,note_on,,59,0,11,,,,,,,,,,,,,,,,15,,51,0
31619,note_on,,0,0,11,,,,,,,,,,,,,,,,15,,66,0
31620,note_on,,0,0,11,,,,,,,,,,,,,,,,15,,64,48
31620,note_on,,1,0,11,,,,,,,,,,,,,,,,15,,49,48
31620,note_on,,1,0,9,,,,,,,,,,,,,,,,12,,64,48
31620,note_on,,1,0,10,,,,,,,,,,,,,,,,13,,49,48
31620,note_on,,1,0,7,,,,,,,,,,,,,,,,10,,76,48
31620,note_on,,1,0,8,,,,,,,,,,,,,,,,11,,68,48
31679,note_on,,59,0,9,,,,,,,,,,,,,,,,12,,64,0
31679,note_on,,59,0,10,,,,,,,,,,,,,,,,13,,49,0
31679,note_on,,59,0,7,,,,,,,,,,,,,,,,10,,76,0
31679,note_on,,59,0,11,,,,,,,,,,,,,,,,15,,49,0
31679,note_on,,0,0,11,,,,,,,,,,,,,,,,15,,64,0
31679,note_on,,59,0,8,,,,,,,,,,,,,,,,11,,68,0
31680,note_on,,1,0,8,,,,,,,,,,,,,,,,11,,69,48
31680,note_on,,1,0,9,,,,,,,,,,,,,,,,12,,66,48
31680,note_on,,1,0,7,,,,,,,,,,,,,,,,10,,75,48
31680,note_on,,1,0,10,,,,,,,,,,,,,,,,13,,47,48
31680,note_on,,1,0,11,,,,,,,,,,,,,,,,15,,47,48
31680,note_on,,0,0,11,,,,,,,,,,,,,,,,15,,63,48
31739,note_on,,59,0,10,,,,,,,,,,,,,,,,13,,47,0
31739,note_on,,59,0,9,,,,,,,,,,,,,,,,12,,66,0
31739,note_on,,59,0,8,,,,,,,,,,,,,,,,11,,69,0
31739,note_on,,59,0,11,,,,,,,,,,,,,,,,15,,47,0
31739,note_on,,0,0,11,,,,,,,,,,,,,,,,15,,63,0
31739,note_on,,59,0,7,,,,,,,,,,,,,,,,10,,75,0
31740,note_on,,1,0,10,,,,,,,,,,,,,,,,13,,49,48
31740,note_on,,0,0,11,,,,,,,,,,,,,,,,15,,64,48
31740,note_on,,1,0,7,,,,,,,,,,,,,,,,10,,76,48
31740,note_on,,1,0,9,,,,,,,,,,,,,,,,12,,64,48
31740,note_on,,1,0,8,,,,,,,,,,,,,,,,11,,68,48
31740,note_on,,1,0,11,,,,,,,,,,,,,,,,15,,49,48
31799,note_on,,59,0,9,,,,,,,,,,,,,,,,12,,64,0
31799,note_on,,59,0,7,,,,,,,,,,,,,,,,10,,76,0
31799,note_on,,59,0,8,,,,,,,,,,,,,,,,11,,68,0
31799,note_on,,0,0,11,,,,,,,,,,,,,,,,15,,64,0
31799,note_on,,59,0,10,,,,,,,,,,,,,,,,13,,49,0
31799,note_on,,59,0,11,,,,,,,,,,,,,,,,15,,49,0
31800,note_on,,0,0,11,,,,,,,,,,,,,,,,15,,66,48
31800,note_on,,1,0,10,,,,,,,,,,,,,,,,13,,51,48
31800,note_on,,1,0,9,,,,,,,,,,,,,,,,12,,59,48
31800,note_on,,1,0,7,,,,,,,,,,,,,,,,10,,78,48
31800,note_on,,1,0,8,,,,,,,,,,,,,,,,11,,66,48
31800,note_on,,1,0,11,,,,,,,,,,,,,,,,15,,51,48
31859,note_on,,59,0,10,,,,,,,,,,,,,,,,13,,51,0
31859,note_on,,0,0,11,,,,,,,,,,,,,,,,15,,66,0
31859,note_on,,59,0,7,,,,,,,,,,,,,,,,10,,78,0
31859,note_on,,59,0,9,,,,,,,,,,,,,,,,12,,59,0
31859,note_on,,59,0,8,,,,,,,,,,,,,,,,11,,66,0
31859,note_on,,59,0,11,,,,,,,,,,,,,,,,15,,51,0
31860,note_on,,1,0,11,,,,,,,,,,,,,,,,15,,49,48
31860,note_on,,0,0,11,,,,,,,,,,,,,,,,15,,64,48
31860,note_on,,1,0,8,,,,,,,,,,,,,,,,11,,68,48
31860,note_on,,1,0,9,,,,,,,,,,,,,,,,12,,64,48
31860,note_on,,1,0,10,,,,,,,,,,,,,,,,13,,49,48
31860,note_on,,1,0,7,,,,,,,,,,,,,,,,10,,76,48
31919,note_on,,59,0,10,,,,,,,,,,,,,,,,13,,49,0
31919,note_on,,59,0,7,,,,,,,,,,,,,,,,10,,76,0
31919,note_on,,59,0,11,,,,,,,,,,,,,,,,15,,49,0
31919,note_on,,0,0,11,,,,,,,,,,,,,,,,15,,64,0
31919,note_on,,59,0,9,,,,,,,,,,,,,,,,12,,64,0
31919,note_on,,59,0,8,,,,,,,,,,,,,,,,11,,68,0
31920,note_on,,0,0,11,,,,,,,,,,,,,,,,15,,63,48
31920,note_on,,1,0,11,,,,,,,,,,,,,,,,15,,47,48
31920,note_on,,1,0,10,,,,,,,,,,,,,,,,13,,47,48
31920,note_on,,1,0,9,,,,,,,,,,,,,,,,12,,66,48
31920,note_on,,1,0,7,,,,,,,,,,,,,,,,10,,75,48
31920,note_on,,1,0,8,,,,,,,,,,,,,,,,11,,69,48
31979,note_on,,59,0,7,,,,,,,,,,,,,,,,10,,75,0
31979,note_on,,59,0,10,,,,,,,,,,,,,,,,13,,47,0
31979,note_on,,0,0,11,,,,,,,,,,,,,,,,15,,63,0
31979,note_on,,59,0,11,,,,,,,,,,,,,,,,15,,47,0
31979,note_on,,59,0,9,,,,,,,,,,,,,,,,12,,66,0
31979,note_on,,59,0,8,,,,,,,,,,,,,,,,11,,69,0
31980,note_on,,0,0,11,,,,,,,,,,,,,,,,15,,64,48
31980,note_on,,1,0,7,,,,,,,,,,,,,,,,10,,76,48
31980,note_on,,1,0,9,,,,,,,,,,,,,,,,12,,64,48
31980,note_on,,1,0,8,,,,,,,,,,,,,,,,11,,68,48
31980,note_on,,1,0,10,,,,,,,,,,,,,,,,13,,49,48
31980,note_on,,1,0,11,,,,,,,,,,,,,,,,15,,49,48
32039,note_on,,59,0,9,,,,,,,,,,,,,,,,12,,64,0
32039,note_on,,59,0,8,,,,,,,,,,,,,,,,11,,68,0
32039,note_on,,59,0,10,,,,,,,,,,,,,,,,13,,49,0
32039,note_on,,59,0,11,,,,,,,,,,,,,,,,15,,49,0
32039,note_on,,0,0,11,,,,,,,,,,,,,,,,15,,64,0
32039,note_on,,59,0,7,,,,,,,,,,,,,,,,10,,76,0
32040,note_on,,1,0,9,,,,,,,,,,,,,,,,12,,59,48
32040,note_on,,1,0,7,,,,,,,,,,,,,,,,10,,78,48
32040,note_on,,1,0,10,,,,,,,,,,,,,,,,13,,51,48
32040,note_on,,1,0,8,,,,,,,,,,,,,,,,11,,66,48
32040,note_on,,1,0,11,,,,,,,,,,,,,,,,15,,51,48
32040,note_on,,0,0,11,,,,,,,,,,,,,,,,15,,66,48
32099,note_on,,59,0,11,,,,,,,,,,,,,,,,15,,51,0
32099,note_on,,59,0,10,,,,,,,,,,,,,,,,13,,51,0
32099,note_on,,59,0,7,,,,,,,,,,,,,,,,10,,78,0
32099,note_on,,59,0,9,,,,,,,,,,,,,,,,12,,59,0
32099,note_on,,0,0,11,,,,,,,,,,,,,,,,15,,66,0
32099,note_on,,59,0,8,,,,,,,,,,,,,,,,11,,66,0
32100,note_on,,1,0,8,,,,,,,,,,,,,,,,11,,68,48
32100,note_on,,1,0,9,,,,,,,,,,,,,,,,12,,64,48
32100,note_on,,1,0,11,,,,,,,,,,,,,,,,15,,49,48
32100,note_on,,0,0,11,,,,,,,,,,,,,,,,15,,64,48
32100,note_on,,1,0,7,,,,,,,,,,,,,,,,10,,76,48
32100,note_on,,1,0,10,,,,,,,,,,,,,,,,13,,49,48
32159,note_on,,59,0,9,,,,,,,,,,,,,,,,12,,64,0
32159,note_on,,59,0,7,,,,,,,,,,,,,,,,10,,76,0
32159,note_on,,59,0,8,,,,,,,,,,,,,,,,11,,68,0
32159,note_on,,59,0,11,,,,,,,,,,,,,,,,15,,49,0
32159,note_on,,0,0,11,,,,,,,,,,,,,,,,15,,64,0
32159,note_on,,59,0,10,,,,,,,,,,,,,,,,13,,49,0
32160,note_on,,1,0,8,,,,,,,,,,,,,,,,11,,69,48
32160,note_on,,1,0,10,,,,,,,,,,,,,,,,13,,47,48
32160,note_on,,1,0,9,,,,,,,,,,,,,,,,12,,66,48
32160,note_on,,1,0,7,,,,,,,,,,,,,,,,10,,75,48
32160,note_on,,0,0,11,,,,,,,,,,,,,,,,15,,63,48
32160,note_on,,1,0,11,,,,,,,,,,,,,,,,15,,47,48
32279,note_on,,119,0,11,,,,,,,,,,,,,,,,15,,69,0
32279,note_on,,119,0,10,,,,,,,,,,,,,,,,13,,47,0
32279,note_on,,119,0,8,,,,,,,,,,,,,,,,11,,69,0
32279,note_on,,119,0,7,,,,,,,,,,,,,,,,10,,75,0
32279,note_on,,0,0,11,,,,,,,,,,,,,,,,15,,63,0
32279,note_on,,839,0,6,,,,,,,,,,,,,,,,7,,57,0
32279,note_on,,119,0,9,,,,,,,,,,,,,,,,12,,66,0
32279,note_on,,0,0,11,,,,,,,,,,,,,,,,15,,47,0
32280,note_on,,1,0,11,,,,,,,,,,,,,,,,15,,52,48
32280,note_on,,1,0,6,,,,,,,,,,,,,,,,7,,56,67
32280,note_on,,1,0,10,,,,,,,,,,,,,,,,13,,52,48
32280,note_on,,1,0,8,,,,,,,,,,,,,,,,11,,71,48
32280,note_on,,0,0,11,,,,,,,,,,,,,,,,15,,59,48
32280,note_on,,0,0,11,,,,,,,,,,,,,,,,15,,68,48
32280,note_on,,1,0,9,,,,,,,,,,,,,,,,12,,68,48
32280,note_on,,0,0,11,,,,,,,,,,,,,,,,15,,64,48
32280,note_on,,1,0,7,,,,,,,,,,,,,,,,10,,76,48
32339,note_on,,59,0,6,,,,,,,,,,,,,,,,7,,56,0
32339,note_on,,59,0,11,,,,,,,,,,,,,,,,15,,52,0
32339,note_on,,59,0,10,,,,,,,,,,,,,,,,13,,52,0
32339,note_on,,0,0,11,,,,,,,,,,,,,,,,15,,59,0
32339,note_on,,0,0,11,,,,,,,,,,,,,,,,15,,68,0
32340,note_on,,1,0,11,,,,,,,,,,,,,,,,15,,45,48
32340,note_on,,0,0,11,,,,,,,,,,,,,,,,15,,66,48
32340,note_on,,1,0,6,,,,,,,,,,,,,,,,7,,54,64
32340,note_on,,1,0,10,,,,,,,,,,,,,,,,13,,45,48
32340,note_on,,0,0,11,,,,,,,,,,,,,,,,15,,61,48
32399,note_on,,119,0,9,,,,,,,,,,,,,,,,12,,68,0
32399,note_on,,119,0,8,,,,,,,,,,,,,,,,11,,71,0
32399,note_on,,59,0,6,,,,,,,,,,,,,,,,7,,54,0
32399,note_on,,119,0,7,,,,,,,,,,,,,,,,10,,76,0
32399,note_on,,0,0,11,,,,,,,,,,,,,,,,15,,61,0
32399,note_on,,0,0,11,,,,,,,,,,,,,,,,15,,66,0
32399,note_on,,0,0,11,,,,,,,,,,,,,,,,15,,45,0
32399,note_on,,59,0,11,,,,,,,,,,,,,,,,15,,64,0
32399,note_on,,59,0,10,,,,,,,,,,,,,,,,13,,45,0
32400,note_on,,1,0,10,,,,,,,,,,,,,,,,13,,47,48
32400,note_on,,0,0,11,,,,,,,,,,,,,,,,15,,56,48
32400,note_on,,0,0,11,,,,,,,,,,,,,,,,15,,59,48
32400,note_on,,0,0,11,,,,,,,,,,,,,,,,15,,64,48
32400,note_on,,1,0,11,,,,,,,,,,,,,,,,15,,47,48
32400,note_on,,1,0,6,,,,,,,,,,,,,,,,7,,56,61
32519,note_on,,0,0,11,,,,,,,,,,,,,,,,15,,59,0
32519,note_on,,119,0,11,,,,,,,,,,,,,,,,15,,64,0
32519,note_on,,119,0,6,,,,,,,,,,,,,,,,7,,56,0
32519,note_on,,0,0,11,,,,,,,,,,,,,,,,15,,56,0
32520,note_on,,1,0,6,,,,,,,,,,,,,,,,7,,54,62
32520,note_on,,0,0,11,,,,,,,,,,,,,,,,15,,54,48
32520,note_on,,0,0,11,,,,,,,,,,,,,,,,15,,59,48
32520,note_on,,1,0,11,,,,,,,,,,,,,,,,15,,63,48
32579,note_on,,59,0,6,,,,,,,,,,,,,,,,7,,54,0
32580,note_on,,1,0,6,,,,,,,,,,,,,,,,7,,52,64
32639,note_on,,59,0,6,,,,,,,,,,,,,,,,7,,52,0
32639,note_on,,239,0,10,,,,,,,,,,,,,,,,13,,47,0
32639,note_on,,0,0,11,,,,,,,,,,,,,,,,15,,54,0
32639,note_on,,0,0,11,,,,,,,,,,,,,,,,15,,59,0
32639,note_on,,0,0,11,,,,,,,,,,,,,,,,15,,63,0
32639,note_on,,119,0,11,,,,,,,,,,,,,,,,15,,47,0
32640,note_on,,1,0,10,,,,,,,,,,,,,,,,13,,52,48
32640,note_on,,0,0,11,,,,,,,,,,,,,,,,15,,56,48
32640,note_on,,0,0,11,,,,,,,,,,,,,,,,15,,59,48
32640,note_on,,0,0,11,,,,,,,,,,,,,,,,15,,64,48
32640,note_on,,1,0,11,,,,,,,,,,,,,,,,15,,52,48
32640,note_on,,1,0,6,,,,,,,,,,,,,,,,7,,52,64
32699,note_on,,59,0,11,,,,,,,,,,,,,,,,15,,52,0
32699,note_on,,59,0,10,,,,,,,,,,,,,,,,13,,52,0
32700,note_on,,1,0,11,,,,,,,,,,,,,,,,15,,54,48
32700,note_on,,1,0,10,,,,,,,,,,,,,,,,13,,54,48
32759,note_on,,0,0,11,,,,,,,,,,,,,,,,15,,56,0
32759,note_on,,0,0,11,,,,,,,,,,,,,,,,15,,54,0
32759,note_on,,0,0,11,,,,,,,,,,,,,,,,15,,59,0
32759,note_on,,119,0,6,,,,,,,,,,,,,,,,7,,52,0
32759,note_on,,59,0,11,,,,,,,,,,,,,,,,15,,64,0
32759,note_on,,59,0,10,,,,,,,,,,,,,,,,13,,54,0
32760,note_on,,0,0,11,,,,,,,,,,,,,,,,15,,76,48
32760,note_on,,0,0,11,,,,,,,,,,,,,,,,15,,64,48
32760,note_on,,0,0,11,,,,,,,,,,,,,,,,15,,71,48
32760,note_on,,1,0,11,,,,,,,,,,,,,,,,15,,56,48
32760,note_on,,1,0,6,,,,,,,,,,,,,,,,7,,59,62
32760,note_on,,1,0,10,,,,,,,,,,,,,,,,13,,56,48
32819,note_on,,59,0,11,,,,,,,,,,,,,,,,15,,56,0
32819,note_on,,59,0,6,,,,,,,,,,,,,,,,7,,59,0
32819,note_on,,59,0,10,,,,,,,,,,,,,,,,13,,56,0
32820,note_on,,1,0,11,,,,,,,,,,,,,,,,15,,52,48
32820,note_on,,1,0,10,,,,,,,,,,,,,,,,13,,52,48
32820,note_on,,1,0,6,,,,,,,,,,,,,,,,7,,56,64
32879,note_on,,59,0,10,,,,,,,,,,,,,,,,13,,52,0
32879,note_on,,59,0,11,,,,,,,,,,,,,,,,15,,76,0
32879,note_on,,0,0,11,,,,,,,,,,,,,,,,15,,52,0
32879,note_on,,59,0,6,,,,,,,,,,,,,,,,7,,56,0
32879,note_on,,0,0,11,,,,,,,,,,,,,,,,15,,64,0
32879,note_on,,0,0,11,,,,,,,,,,,,,,,,15,,71,0
32880,note_on,,1,0,11,,,,,,,,,,,,,,,,15,,57,48
32880,note_on,,1,0,6,,,,,,,,,,,,,,,,7,,61,60
32880,note_on,,0,0,11,,,,,,,,,,,,,,,,15,,73,48
32880,note_on,,0,0,11,,,,,,,,,,,,,,,,15,,69,48
32880,note_on,,0,0,11,,,,,,,,,,,,,,,,15,,64,48
32880,note_on,,1,0,10,,,,,,,,,,,,,,,,13,,57,48
32939,note_on,,59,0,10,,,,,,,,,,,,,,,,13,,57,0
32939,note_on,,59,0,11,,,,,,,,,,,,,,,,15,,57,0
32940,note_on,,1,0,11,,,,,,,,,,,,,,,,15,,54,48
32940,note_on,,1,0,10,,,,,,,,,,,,,,,,13,,54,48
32999,note_on,,0,0,11,,,,,,,,,,,,,,,,15,,69,0
32999,note_on,,119,0,6,,,,,,,,,,,,,,,,7,,61,0
32999,note_on,,0,0,11,,,,,,,,,,,,,,,,15,,64,0
32999,note_on,,0,0,11,,,,,,,,,,,,,,,,15,,54,0
32999,note_on,,59,0,10,,,,,,,,,,,,,,,,13,,54,0
32999,note_on,,59,0,11,,,,,,,,,,,,,,,,15,,73,0
33000,note_on,,0,0,11,,,,,,,,,,,,,,,,15,,66,48
33000,note_on,,1,0,11,,,,,,,,,,,,,,,,15,,59,48
33000,note_on,,1,0,6,,,,,,,,,,,,,,,,7,,63,59
33000,note_on,,1,0,10,,,,,,,,,,,,,,,,13,,59,48
33000,note_on,,0,0,11,,,,,,,,,,,,,,,,15,,63,48
33059,note_on,,59,0,11,,,,,,,,,,,,,,,,15,,59,0
33059,note_on,,59,0,10,,,,,,,,,,,,,,,,13,,59,0
33059,note_on,,59,0,6,,,,,,,,,,,,,,,,7,,63,0
33060,note_on,,1,0,10,,,,,,,,,,,,,,,,13,,57,48
33060,note_on,,1,0,11,,,,,,,,,,,,,,,,15,,57,48
33060,note_on,,1,0,6,,,,,,,,,,,,,,,,7,,63,58
33119,note_on,,0,0,11,,,,,,,,,,,,,,,,15,,57,0
33119,note_on,,0,0,11,,,,,,,,,,,,,,,,15,,63,0
33119,note_on,,59,0,11,,,,,,,,,,,,,,,,15,,66,0
33119,note_on,,59,0,10,,,,,,,,,,,,,,,,13,,57,0
33119,note_on,,59,0,6,,,,,,,,,,,,,,,,7,,63,0
33120,note_on,,1,0,10,,,,,,,,,,,,,,,,13,,56,48
33120,note_on,,1,0,6,,,,,,,,,,,,,,,,7,,64,59
33120,note_on,,1,0,11,,,,,,,,,,,,,,,,15,,56,48
33120,note_on,,0,0,11,,,,,,,,,,,,,,,,15,,59,48
33120,note_on,,0,0,11,,,,,,,,,,,,,,,,15,,64,48
33120,note_on,,0,0,11,,,,,,,,,,,,,,,,15,,71,48
33179,note_on,,59,0,11,,,,,,,,,,,,,,,,15,,56,0
33179,note_on,,59,0,10,,,,,,,,,,,,,,,,13,,56,0
33180,note_on,,1,0,10,,,,,,,,,,,,,,,,13,,52,48
33180,note_on,,781,0,7,,,,,,,,,,,,,,,,10,,83,48
33180,note_on,,781,0,8,,,,,,,,,,,,,,,,11,,80,48
33180,note_on,,1,0,11,,,,,,,,,,,,,,,,15,,52,48
33239,note_on,,59,0,8,,,,,,,,,,,,,,,,11,,80,0
33239,note_on,,59,0,10,,,,,,,,,,,,,,,,13,,52,0
33239,note_on,,0,0,11,,,,,,,,,,,,,,,,15,,64,0
33239,note_on,,0,0,11,,,,,,,,,,,,,,,,15,,59,0
33239,note_on,,0,0,11,,,,,,,,,,,,,,,,15,,52,0
33239,note_on,,59,0,11,,,,,,,,,,,,,,,,15,,71,0
33239,note_on,,59,0,7,,,,,,,,,,,,,,,,10,,83,0
33240,note_on,,1,0,8,,,,,,,,,,,,,,,,11,,81,48
33240,note_on,,1,0,7,,,,,,,,,,,,,,,,10,,85,48
33254,note_on,,14,0,7,,,,,,,,,,,,,,,,10,,85,0
33255,note_on,,1,0,7,,,,,,,,,,,,,,,,10,,87,48
33269,note_on,,14,0,7,,,,,,,,,,,,,,,,10,,87,0
33270,note_on,,1,0,7,,,,,,,,,,,,,,,,10,,83,48
33284,note_on,,14,0,7,,,,,,,,,,,,,,,,10,,83,0
33285,note_on,,1,0,7,,,,,,,,,,,,,,,,10,,85,48
33299,note_on,,14,0,7,,,,,,,,,,,,,,,,10,,85,0
33299,note_on,,59,0,8,,,,,,,,,,,,,,,,11,,81,0
33300,note_on,,1,0,7,,,,,,,,,,,,,,,,10,,83,48
33300,note_on,,1,0,8,,,,,,,,,,,,,,,,11,,80,48
33359,note_on,,59,0,7,,,,,,,,,,,,,,,,10,,83,0
33359,note_on,,59,0,8,,,,,,,,,,,,,,,,11,,80,0
33360,note_on,,1,0,8,,,,,,,,,,,,,,,,11,,81,48
33360,note_on,,1,0,7,,,,,,,,,,,,,,,,10,,85,48
33374,note_on,,14,0,7,,,,,,,,,,,,,,,,10,,85,0
33375,note_on,,1,0,7,,,,,,,,,,,,,,,,10,,87,48
33389,note_on,,14,0,7,,,,,,,,,,,,,,,,10,,87,0
33390,note_on,,1,0,7,,,,,,,,,,,,,,,,10,,83,48
33404,note_on,,14,0,7,,,,,,,,,,,,,,,,10,,83,0
33405,note_on,,1,0,7,,,,,,,,,,,,,,,,10,,85,48
33419,note_on,,59,0,8,,,,,,,,,,,,,,,,11,,81,0
33419,note_on,,14,0,7,,,,,,,,,,,,,,,,10,,85,0
33420,note_on,,1,0,8,,,,,,,,,,,,,,,,11,,80,48
33420,note_on,,1,0,7,,,,,,,,,,,,,,,,10,,83,48
33479,note_on,,59,0,8,,,,,,,,,,,,,,,,11,,80,0
33479,note_on,,59,0,7,,,,,,,,,,,,,,,,10,,83,0
33480,note_on,,1,0,8,,,,,,,,,,,,,,,,11,,81,48
33480,note_on,,1,0,7,,,,,,,,,,,,,,,,10,,85,48
33494,note_on,,14,0,7,,,,,,,,,,,,,,,,10,,85,0
33495,note_on,,1,0,7,,,,,,,,,,,,,,,,10,,87,48
33509,note_on,,14,0,7,,,,,,,,,,,,,,,,10,,87,0
33510,note_on,,1,0,7,,,,,,,,,,,,,,,,10,,83,48
33524,note_on,,14,0,7,,,,,,,,,,,,,,,,10,,83,0
33525,note_on,,1,0,7,,,,,,,,,,,,,,,,10,,85,48
33539,note_on,,14,0,7,,,,,,,,,,,,,,,,10,,85,0
33539,note_on,,59,0,8,,,,,,,,,,,,,,,,11,,81,0
33540,note_on,,1,0,7,,,,,,,,,,,,,,,,10,,83,48
33540,note_on,,1,0,8,,,,,,,,,,,,,,,,11,,80,48
33599,note_on,,59,0,7,,,,,,,,,,,,,,,,10,,83,0
33599,note_on,,59,0,8,,,,,,,,,,,,,,,,11,,80,0
33600,note_on,,1,0,7,,,,,,,,,,,,,,,,10,,85,48
33600,note_on,,1,0,8,,,,,,,,,,,,,,,,11,,81,48
33614,note_on,,14,0,7,,,,,,,,,,,,,,,,10,,85,0
33615,note_on,,1,0,7,,,,,,,,,,,,,,,,10,,87,48
33629,note_on,,14,0,7,,,,,,,,,,,,,,,,10,,87,0
33630,note_on,,1,0,7,,,,,,,,,,,,,,,,10,,83,48
33644,note_on,,14,0,7,,,,,,,,,,,,,,,,10,,83,0
33645,note_on,,1,0,7,,,,,,,,,,,,,,,,10,,85,48
33659,note_on,,14,0,7,,,,,,,,,,,,,,,,10,,85,0
33659,note_on,,59,0,8,,,,,,,,,,,,,,,,11,,81,0
33660,note_on,,1,0,8,,,,,,,,,,,,,,,,11,,80,48
33660,note_on,,1,0,7,,,,,,,,,,,,,,,,10,,83,48
33719,note_on,,59,0,8,,,,,,,,,,,,,,,,11,,80,0
33719,note_on,,59,0,7,,,,,,,,,,,,,,,,10,,83,0
33720,note_on,,1,0,8,,,,,,,,,,,,,,,,11,,81,48
33720,note_on,,1,0,7,,,,,,,,,,,,,,,,10,,85,48
33734,note_on,,14,0,7,,,,,,,,,,,,,,,,10,,85,0
33735,note_on,,1,0,7,,,,,,,,,,,,,,,,10,,87,48
33749,note_on,,14,0,7,,,,,,,,,,,,,,,,10,,87,0
33750,note_on,,1,0,7,,,,,,,,,,,,,,,,10,,83,48
33764,note_on,,14,0,7,,,,,,,,,,,,,,,,10,,83,0
33765,note_on,,1,0,7,,,,,,,,,,,,,,,,10,,85,48
33779,note_on,,14,0,7,,,,,,,,,,,,,,,,10,,85,0
33779,note_on,,59,0,8,,,,,,,,,,,,,,,,11,,81,0
33780,note_on,,1,0,7,,,,,,,,,,,,,,,,10,,83,48
33780,note_on,,1,0,8,,,,,,,,,,,,,,,,11,,80,48
33839,note_on,,719,0,6,,,,,,,,,,,,,,,,7,,64,0
33839,note_on,,59,0,7,,,,,,,,,,,,,,,,10,,83,0
33839,note_on,,59,0,8,,,,,,,,,,,,,,,,11,,80,0
33840,note_on,,1,0,7,,,,,,,,,,,,,,,,10,,85,48
33840,note_on,,1,0,8,,,,,,,,,,,,,,,,11,,81,48
33854,note_on,,14,0,7,,,,,,,,,,,,,,,,10,,85,0
33855,note_on,,1,0,7,,,,,,,,,,,,,,,,10,,87,48
33869,note_on,,14,0,7,,,,,,,,,,,,,,,,10,,87,0
33870,note_on,,1,0,7,,,,,,,,,,,,,,,,10,,83,48
33884,note_on,,14,0,7,,,,,,,,,,,,,,,,10,,83,0
33885,note_on,,1,0,7,,,,,,,,,,,,,,,,10,,85,48
33899,note_on,,59,0,8,,,,,,,,,,,,,,,,11,,81,0
33899,note_on,,14,0,7,,,,,,,,,,,,,,,,10,,85,0
33900,note_on,,1,0,8,,,,,,,,,,,,,,,,11,,80,48
33900,note_on,,1,0,7,,,,,,,,,,,,,,,,10,,83,48
33959,note_on,,59,0,7,,,,,,,,,,,,,,,,10,,83,0
33959,note_on,,59,0,8,,,,,,,,,,,,,,,,11,,80,0
33960,note_on,,1,0,7,,,,,,,,,,,,,,,,10,,85,48
33960,note_on,,1,0,8,,,,,,,,,,,,,,,,11,,81,48
34019,note_on,,59,0,7,,,,,,,,,,,,,,,,10,,85,0
34019,note_on,,59,0,8,,,,,,,,,,,,,,,,11,,81,0
34020,note_on,,0,0,11,,,,,,,,,,,,,,,,15,,66,72
34020,note_on,,781,0,10,,,,,,,,,,,,,,,,13,,59,72
34020,note_on,,0,0,11,,,,,,,,,,,,,,,,15,,63,72
34020,note_on,,781,0,11,,,,,,,,,,,,,,,,15,,59,72
34020,note_on,,0,0,11,,,,,,,,,,,,,,,,15,,71,72
34020,note_on,,1,0,8,,,,,,,,,,,,,,,,11,,75,72
34020,note_on,,8221,0,5,,,,,,,,,,,,,,,,2,,59,72
34020,note_on,,1,0,7,,,,,,,,,,,,,,,,10,,78,72
34020,note_on,,1621,0,9,,,,,,,,,,,,,,,,12,,71,72
34079,note_on,,0,0,11,,,,,,,,,,,,,,,,15,,71,0
34079,note_on,,0,0,11,,,,,,,,,,,,,,,,15,,63,0
34079,note_on,,59,0,11,,,,,,,,,,,,,,,,15,,59,0
34079,note_on,,0,0,11,,,,,,,,,,,,,,,,15,,66,0
34079,note_on,,59,0,10,,,,,,,,,,,,,,,,13,,59,0
34079,note_on,,59,0,9,,,,,,,,,,,,,,,,12,,71,0
34079,note_on,,59,0,8,,,,,,,,,,,,,,,,11,,75,0
34079,note_on,,59,0,7,,,,,,,,,,,,,,,,10,,78,0
34079,note_on,,59,0,5,,,,,,,,,,,,,,,,2,,59,0
34080,note_on,,0,0,11,,,,,,,,,,,,,,,,15,,71,72
34080,note_on,,1,0,10,,,,,,,,,,,,,,,,13,,64,72
34080,note_on,,1,0,8,,,,,,,,,,,,,,,,11,,76,72
34080,note_on,,0,0,11,,,,,,,,,,,,,,,,15,,68,72
34080,note_on,,1,0,11,,,,,,,,,,,,,,,,15,,64,72
34080,note_on,,1,0,5,,,,,,,,,,,,,,,,2,,64,72
34080,note_on,,1,0,9,,,,,,,,,,,,,,,,12,,71,72
34080,note_on,,1,0,7,,,,,,,,,,,,,,,,10,,80,72
34139,note_on,,59,0,8,,,,,,,,,,,,,,,,11,,76,0
34139,note_on,,59,0,5,,,,,,,,,,,,,,,,2,,64,0
34139,note_on,,59,0,9,,,,,,,,,,,,,,,,12,,71,0
34139,note_on,,59,0,10,,,,,,,,,,,,,,,,13,,64,0
34139,note_on,,59,0,11,,,,,,,,,,,,,,,,15,,64,0
34139,note_on,,0,0,11,,,,,,,,,,,,,,,,15,,71,0
34139,note_on,,0,0,11,,,,,,,,,,,,,,,,15,,68,0
34140,note_on,,0,0,11,,,,,,,,,,,,,,,,15,,64,72
34140,note_on,,1,0,9,,,,,,,,,,,,,,,,12,,73,72
34140,note_on,,1,0,8,,,,,,,,,,,,,,,,11,,76,72
34140,note_on,,1,0,5,,,,,,,,,,,,,,,,2,,57,72
34140,note_on,,0,0,11,,,,,,,,,,,,,,,,15,,73,72
34140,note_on,,1,0,10,,,,,,,,,,,,,,,,13,,57,72
34140,note_on,,1,0,11,,,,,,,,,,,,,,,,15,,57,72
34169,note_on,,89,0,7,,,,,,,,,,,,,,,,10,,80,0
34170,note_on,,1,0,7,,,,,,,,,,,,,,,,10,,81,72
34199,note_on,,59,0,10,,,,,,,,,,,,,,,,13,,57,0
34199,note_on,,29,0,7,,,,,,,,,,,,,,,,10,,81,0
34199,note_on,,59,0,9,,,,,,,,,,,,,,,,12,,73,0
34199,note_on,,0,0,11,,,,,,,,,,,,,,,,15,,73,0
34199,note_on,,59,0,11,,,,,,,,,,,,,,,,15,,57,0
34199,note_on,,59,0,5,,,,,,,,,,,,,,,,2,,57,0
34200,note_on,,1,0,9,,,,,,,,,,,,,,,,12,,66,72
34200,note_on,,1,0,5,,,,,,,,,,,,,,,,2,,59,72
34200,note_on,,1,0,7,,,,,,,,,,,,,,,,10,,78,72
34200,note_on,,0,0,11,,,,,,,,,,,,,,,,15,,66,72
34200,note_on,,1,0,11,,,,,,,,,,,,,,,,15,,59,72
34200,note_on,,1,0,10,,,,,,,,,,,,,,,,13,,59,72
34214,note_on,,14,0,7,,,,,,,,,,,,,,,,10,,78,0
34215,note_on,,1,0,7,,,,,,,,,,,,,,,,10,,80,72
34229,note_on,,14,0,7,,,,,,,,,,,,,,,,10,,80,0
34230,note_on,,1,0,7,,,,,,,,,,,,,,,,10,,78,72
34244,note_on,,14,0,7,,,,,,,,,,,,,,,,10,,78,0
34245,note_on,,1,0,7,,,,,,,,,,,,,,,,10,,80,72
34259,note_on,,59,0,10,,,,,,,,,,,,,,,,13,,59,0
34259,note_on,,59,0,5,,,,,,,,,,,,,,,,2,,59,0
34259,note_on,,14,0,7,,,,,,,,,,,,,,,,10,,80,0
34259,note_on,,119,0,8,,,,,,,,,,,,,,,,11,,76,0
34259,note_on,,0,0,11,,,,,,,,,,,,,,,,15,,59,0
34259,note_on,,59,0,11,,,,,,,,,,,,,,,,15,,64,0
34259,note_on,,59,0,9,,,,,,,,,,,,,,,,12,,66,0
34260,note_on,,1,0,9,,,,,,,,,,,,,,,,12,,71,72
34260,note_on,,1,0,11,,,,,,,,,,,,,,,,15,,47,72
34260,note_on,,1,0,5,,,,,,,,,,,,,,,,2,,47,72
34260,note_on,,1,0,8,,,,,,,,,,,,,,,,11,,75,72
34260,note_on,,1,0,7,,,,,,,,,,,,,,,,10,,78,72
34260,note_on,,1,0,10,,,,,,,,,,,,,,,,13,,47,72
34274,note_on,,14,0,7,,,,,,,,,,,,,,,,10,,78,0
34275,note_on,,1,0,7,,,,,,,,,,,,,,,,10,,80,72
34289,note_on,,14,0,7,,,,,,,,,,,,,,,,10,,80,0
34290,note_on,,1,0,7,,,,,,,,,,,,,,,,10,,76,72
34304,note_on,,14,0,7,,,,,,,,,,,,,,,,10,,76,0
34305,note_on,,1,0,7,,,,,,,,,,,,,,,,10,,78,72
34319,note_on,,14,0,7,,,,,,,,,,,,,,,,10,,78,0
34319,note_on,,59,0,11,,,,,,,,,,,,,,,,15,,66,0
34319,note_on,,59,0,5,,,,,,,,,,,,,,,,2,,47,0
34319,note_on,,59,0,9,,,,,,,,,,,,,,,,12,,71,0
34319,note_on,,0,0,11,,,,,,,,,,,,,,,,15,,47,0
34319,note_on,,59,0,10,,,,,,,,,,,,,,,,13,,47,0
34319,note_on,,59,0,8,,,,,,,,,,,,,,,,11,,75,0
34320,note_on,,0,0,11,,,,,,,,,,,,,,,,15,,56,72
34320,note_on,,1,0,9,,,,,,,,,,,,,,,,12,,68,72
34320,note_on,,0,0,11,,,,,,,,,,,,,,,,15,,61,72
34320,note_on,,0,0,11,,,,,,,,,,,,,,,,15,,64,72
34320,note_on,,1,0,10,,,,,,,,,,,,,,,,13,,49,72
34320,note_on,,1,0,8,,,,,,,,,,,,,,,,11,,76,72
34320,note_on,,1,0,5,,,,,,,,,,,,,,,,2,,49,72
34320,note_on,,1,0,7,,,,,,,,,,,,,,,,10,,76,72
34320,note_on,,1,0,11,,,,,,,,,,,,,,,,15,,49,72
34439,note_on,,0,0,11,,,,,,,,,,,,,,,,15,,56,0
34439,note_on,,119,0,9,,,,,,,,,,,,,,,,12,,68,0
34439,note_on,,119,0,5,,,,,,,,,,,,,,,,2,,49,0
34439,note_on,,119,0,8,,,,,,,,,,,,,,,,11,,76,0
34439,note_on,,119,0,11,,,,,,,,,,,,,,,,15,,49,0
34439,note_on,,0,0,11,,,,,,,,,,,,,,,,15,,61,0
34439,note_on,,119,0,10,,,,,,,,,,,,,,,,13,,49,0
34439,note_on,,119,0,7,,,,,,,,,,,,,,,,10,,76,0
34439,note_on,,0,0,11,,,,,,,,,,,,,,,,15,,64,0
34440,set_tempo,,34440,1,0,,,,,,,,,857142,,,,,,,,,,
34500,note_on,,661,0,6,,,,,,,,,,,,,,,,7,,52,62
34559,note_on,,59,0,6,,,,,,,,,,,,,,,,7,,52,0
34560,note_on,,0,0,11,,,,,,,,,,,,,,,,15,,64,72
34560,note_on,,1,0,6,,,,,,,,,,,,,,,,7,,64,59
34560,note_on,,121,0,10,,,,,,,,,,,,,,,,13,,61,72
34560,note_on,,121,0,11,,,,,,,,,,,,,,,,15,,61,72
34560,note_on,,0,0,11,,,,,,,,,,,,,,,,15,,73,72
34560,note_on,,121,0,8,,,,,,,,,,,,,,,,11,,76,72
34560,note_on,,121,0,7,,,,,,,,,,,,,,,,10,,82,72
34560,note_on,,121,0,9,,,,,,,,,,,,,,,,12,,73,72
34560,note_on,,0,0,11,,,,,,,,,,,,,,,,15,,70,72
34679,note_on,,0,0,11,,,,,,,,,,,,,,,,15,,73,0
34679,note_on,,0,0,11,,,,,,,,,,,,,,,,15,,70,0
34679,note_on,,0,0,11,,,,,,,,,,,,,,,,15,,64,0
34679,note_on,,119,0,7,,,,,,,,,,,,,,,,10,,82,0
34679,note_on,,119,0,10,,,,,,,,,,,,,,,,13,,61,0
34679,note_on,,119,0,9,,,,,,,,,,,,,,,,12,,73,0
34679,note_on,,119,0,11,,,,,,,,,,,,,,,,15,,61,0
34679,note_on,,119,0,6,,,,,,,,,,,,,,,,7,,64,0
34679,note_on,,119,0,8,,,,,,,,,,,,,,,,11,,76,0
34680,note_on,,1,0,6,,,,,,,,,,,,,,,,7,,58,64
34799,note_on,,119,0,6,,,,,,,,,,,,,,,,7,,58,0
34800,note_on,,121,0,10,,,,,,,,,,,,,,,,13,,51,72
34800,note_on,,1,0,6,,,,,,,,,,,,,,,,7,,59,66
34800,note_on,,0,0,11,,,,,,,,,,,,,,,,15,,59,72
34800,note_on,,0,0,11,,,,,,,,,,,,,,,,15,,66,72
34800,note_on,,0,0,11,,,,,,,,,,,,,,,,15,,71,72
34800,note_on,,121,0,11,,,,,,,,,,,,,,,,15,,51,72
34800,set_tempo,,360,1,0,,,,,,,,,2400000,,,,,,,,,,
34800,note_on,,121,0,9,,,,,,,,,,,,,,,,12,,71,72
34800,note_on,,121,0,7,,,,,,,,,,,,,,,,10,,78,72
34800,note_on,,121,0,8,,,,,,,,,,,,,,,,11,,75,72
34919,note_on,,119,0,8,,,,,,,,,,,,,,,,11,,75,0
34919,note_on,,119,0,10,,,,,,,,,,,,,,,,13,,51,0
34919,note_on,,119,0,6,,,,,,,,,,,,,,,,7,,59,0
34919,note_on,,0,0,11,,,,,,,,,,,,,,,,15,,66,0
34919,note_on,,0,0,11,,,,,,,,,,,,,,,,15,,71,0
34919,note_on,,119,0,11,,,,,,,,,,,,,,,,15,,51,0
34919,note_on,,119,0,7,,,,,,,,,,,,,,,,10,,78,0
34919,note_on,,0,0,11,,,,,,,,,,,,,,,,15,,59,0
34919,note_on,,119,0,9,,,,,,,,,,,,,,,,12,,71,0
34920,set_tempo,,120,1,0,,,,,,,,,857142,,,,,,,,,,
35040,note_on,,121,0,10,,,,,,,,,,,,,,,,13,,52,48
35040,note_on,,0,0,11,,,,,,,,,,,,,,,,15,,68,48
35040,note_on,,0,0,11,,,,,,,,,,,,,,,,15,,64,48
35040,note_on,,121,0,11,,,,,,,,,,,,,,,,15,,52,48
35040,note_on,,0,0,11,,,,,,,,,,,,,,,,15,,59,48
35160,note_on,,241,0,6,,,,,,,,,,,,,,,,7,,59,60
35279,note_on,,0,0,11,,,,,,,,,,,,,,,,15,,68,0
35279,note_on,,239,0,11,,,,,,,,,,,,,,,,15,,52,0
35279,note_on,,239,0,10,,,,,,,,,,,,,,,,13,,52,0
35279,note_on,,0,0,11,,,,,,,,,,,,,,,,15,,64,0
35279,note_on,,0,0,11,,,,,,,,,,,,,,,,15,,59,0
35279,note_on,,119,0,6,,,,,,,,,,,,,,,,7,,59,0
35280,note_on,,1,0,10,,,,,,,,,,,,,,,,13,,45,48
35280,note_on,,1,0,11,,,,,,,,,,,,,,,,15,,45,48
35280,note_on,,0,0,11,,,,,,,,,,,,,,,,15,,73,48
35280,note_on,,0,0,11,,,,,,,,,,,,,,,,15,,69,48
35280,note_on,,1,0,6,,,,,,,,,,,,,,,,7,,61,66
35280,note_on,,0,0,11,,,,,,,,,,,,,,,,15,,64,48
35399,note_on,,119,0,6,,,,,,,,,,,,,,,,7,,61,0
35400,note_on,,1,0,6,,,,,,,,,,,,,,,,7,,64,64
35519,note_on,,239,0,11,,,,,,,,,,,,,,,,15,,45,0
35519,note_on,,0,0,11,,,,,,,,,,,,,,,,15,,73,0
35519,note_on,,0,0,11,,,,,,,,,,,,,,,,15,,69,0
35519,note_on,,0,0,11,,,,,,,,,,,,,,,,15,,64,0
35519,note_on,,239,0,10,,,,,,,,,,,,,,,,13,,45,0
35519,note_on,,119,0,6,,,,,,,,,,,,,,,,7,,64,0
35520,note_on,,1,0,10,,,,,,,,,,,,,,,,13,,47,48
35520,note_on,,1,0,6,,,,,,,,,,,,,,,,7,,64,67
35520,note_on,,1,0,11,,,,,,,,,,,,,,,,15,,59,48
35520,note_on,,0,0,11,,,,,,,,,,,,,,,,15,,47,48
35520,note_on,,0,0,11,,,,,,,,,,,,,,,,15,,64,48
35520,note_on,,0,0,11,,,,,,,,,,,,,,,,15,,56,48
35520,note_on,,0,0,11,,,,,,,,,,,,,,,,15,,52,48
35609,note_on,,89,0,6,,,,,,,,,,,,,,,,7,,64,0
35610,note_on,,1,0,6,,,,,,,,,,,,,,,,7,,59,59
35639,note_on,,29,0,6,,,,,,,,,,,,,,,,7,,59,0
35640,note_on,,1,0,6,,,,,,,,,,,,,,,,7,,56,60
35669,note_on,,29,0,6,,,,,,,,,,,,,,,,7,,56,0
35670,note_on,,1,0,6,,,,,,,,,,,,,,,,7,,57,62
35699,note_on,,29,0,6,,,,,,,,,,,,,,,,7,,57,0
35700,note_on,,1,0,6,,,,,,,,,,,,,,,,7,,59,65
35759,note_on,,0,0,11,,,,,,,,,,,,,,,,15,,56,0
35759,note_on,,0,0,11,,,,,,,,,,,,,,,,15,,64,0
35759,note_on,,0,0,11,,,,,,,,,,,,,,,,15,,52,0
35759,note_on,,239,0,11,,,,,,,,,,,,,,,,15,,59,0
35760,note_on,,0,0,11,,,,,,,,,,,,,,,,15,,63,48
35760,note_on,,0,0,11,,,,,,,,,,,,,,,,15,,59,48
35760,note_on,,1,0,11,,,,,,,,,,,,,,,,15,,54,48
35789,note_on,,89,0,6,,,,,,,,,,,,,,,,7,,59,0
35790,note_on,,1,0,6,,,,,,,,,,,,,,,,7,,52,65
35819,note_on,,29,0,6,,,,,,,,,,,,,,,,7,,52,0
35820,note_on,,1,0,6,,,,,,,,,,,,,,,,7,,54,59
35849,note_on,,29,0,6,,,,,,,,,,,,,,,,7,,54,0
35850,note_on,,1,0,6,,,,,,,,,,,,,,,,7,,56,61
35879,note_on,,29,0,6,,,,,,,,,,,,,,,,7,,56,0
35880,note_on,,1,0,6,,,,,,,,,,,,,,,,7,,56,62
35909,note_on,,29,0,6,,,,,,,,,,,,,,,,7,,56,0
35910,note_on,,1,0,6,,,,,,,,,,,,,,,,7,,54,67
35939,note_on,,29,0,6,,,,,,,,,,,,,,,,7,,54,0
35940,note_on,,1,0,6,,,,,,,,,,,,,,,,7,,52,58
35999,note_on,,239,0,11,,,,,,,,,,,,,,,,15,,47,0
35999,note_on,,59,0,6,,,,,,,,,,,,,,,,7,,52,0
35999,note_on,,479,0,10,,,,,,,,,,,,,,,,13,,47,0
35999,note_on,,0,0,11,,,,,,,,,,,,,,,,15,,59,0
35999,note_on,,0,0,11,,,,,,,,,,,,,,,,15,,63,0
35999,note_on,,0,0,11,,,,,,,,,,,,,,,,15,,54,0
36000,note_on,,1081,0,9,,,,,,,,,,,,,,,,12,,68,72
36000,note_on,,0,0,11,,,,,,,,,,,,,,,,15,,64,72
36000,note_on,,0,0,11,,,,,,,,,,,,,,,,15,,59,72
36000,note_on,,1081,0,7,,,,,,,,,,,,,,,,10,,76,72
36000,set_tempo,,1080,1,0,,,,,,,,,600000,,,,,,,,,,
36000,note_on,,1081,0,8,,,,,,,,,,,,,,,,11,,71,72
36000,note_on,,1561,0,5,,,,,,,,,,,,,,,,2,,52,72
36000,note_on,,1,0,10,,,,,,,,,,,,,,,,13,,52,72
36000,note_on,,1,0,11,,,,,,,,,,,,,,,,15,,52,72
36000,note_on,,1,0,6,,,,,,,,,,,,,,,,7,,52,62
36000,note_on,,0,0,11,,,,,,,,,,,,,,,,15,,56,72
36059,note_on,,59,0,9,,,,,,,,,,,,,,,,12,,68,0
36059,note_on,,59,0,11,,,,,,,,,,,,,,,,15,,52,0
36059,note_on,,0,0,11,,,,,,,,,,,,,,,,15,,56,0
36059,note_on,,59,0,8,,,,,,,,,,,,,,,,11,,71,0
36059,note_on,,59,0,10,,,,,,,,,,,,,,,,13,,52,0
36059,note_on,,59,0,5,,,,,,,,,,,,,,,,2,,52,0
36060,note_on,,1,0,9,,,,,,,,,,,,,,,,12,,71,72
36060,note_on,,1,0,5,,,,,,,,,,,,,,,,2,,56,72
36060,note_on,,1,0,10,,,,,,,,,,,,,,,,13,,56,72
36060,note_on,,1,0,11,,,,,,,,,,,,,,,,15,,56,72
36060,note_on,,1,0,8,,,,,,,,,,,,,,,,11,,76,72
36119,note_on,,59,0,11,,,,,,,,,,,,,,,,15,,64,0
36119,note_on,,119,0,7,,,,,,,,,,,,,,,,10,,76,0
36119,note_on,,59,0,10,,,,,,,,,,,,,,,,13,,56,0
36119,note_on,,59,0,5,,,,,,,,,,,,,,,,2,,56,0
36119,note_on,,59,0,9,,,,,,,,,,,,,,,,12,,71,0
36119,note_on,,0,0,11,,,,,,,,,,,,,,,,15,,59,0
36119,note_on,,0,0,11,,,,,,,,,,,,,,,,15,,56,0
36120,note_on,,1,0,11,,,,,,,,,,,,,,,,15,,57,72
36120,note_on,,1,0,7,,,,,,,,,,,,,,,,10,,78,72
36120,note_on,,1,0,9,,,,,,,,,,,,,,,,12,,73,72
36120,note_on,,1,0,5,,,,,,,,,,,,,,,,2,,57,72
36120,note_on,,0,0,11,,,,,,,,,,,,,,,,15,,64,72
36120,note_on,,0,0,11,,,,,,,,,,,,,,,,15,,61,72
36120,note_on,,0,0,11,,,,,,,,,,,,,,,,15,,66,72
36120,note_on,,1,0,10,,,,,,,,,,,,,,,,13,,57,72
36179,note_on,,59,0,10,,,,,,,,,,,,,,,,13,,57,0
36179,note_on,,59,0,11,,,,,,,,,,,,,,,,15,,57,0
36179,note_on,,0,0,11,,,,,,,,,,,,,,,,15,,64,0
36179,note_on,,0,0,11,,,,,,,,,,,,,,,,15,,61,0
36179,note_on,,59,0,9,,,,,,,,,,,,,,,,12,,73,0
36179,note_on,,59,0,5,,,,,,,,,,,,,,,,2,,57,0
36179,note_on,,119,0,8,,,,,,,,,,,,,,,,11,,76,0
36180,note_on,,1,0,11,,,,,,,,,,,,,,,,15,,59,72
36180,note_on,,1,0,10,,,,,,,,,,,,,,,,13,,59,72
36180,note_on,,0,0,11,,,,,,,,,,,,,,,,15,,63,72
36180,note_on,,1,0,5,,,,,,,,,,,,,,,,2,,59,72
36180,note_on,,1,0,8,,,,,,,,,,,,,,,,11,,75,72
36180,note_on,,1,0,9,,,,,,,,,,,,,,,,12,,71,72
36239,end_of_track,,0,1,6,,,,,,,,,,,,,,,,,,,
36239,note_on,,0,0,11,,,,,,,,,,,,,,,,15,,63,0
36239,note_on,,59,0,9,,,,,,,,,,,,,,,,12,,71,0
36239,note_on,,119,0,7,,,,,,,,,,,,,,,,10,,78,0
36239,note_on,,59,0,10,,,,,,,,,,,,,,,,13,,59,0
36239,note_on,,59,0,11,,,,,,,,,,,,,,,,15,,66,0
36239,note_on,,0,0,11,,,,,,,,,,,,,,,,15,,59,0
36239,note_on,,59,0,5,,,,,,,,,,,,,,,,2,,59,0
36239,note_on,,59,0,8,,,,,,,,,,,,,,,,11,,75,0
36239,note_on,,239,0,6,,,,,,,,,,,,,,,,7,,52,0
36240,note_on,,1,0,5,,,,,,,,,,,,,,,,2,,52,72
36240,note_on,,1,0,8,,,,,,,,,,,,,,,,11,,76,72
36240,note_on,,1,0,7,,,,,,,,,,,,,,,,10,,80,72
36240,note_on,,1,0,9,,,,,,,,,,,,,,,,12,,71,72
36240,note_on,,1,0,11,,,,,,,,,,,,,,,,15,,52,72
36240,note_on,,1,0,10,,,,,,,,,,,,,,,,13,,52,72
36240,note_on,,0,0,11,,,,,,,,,,,,,,,,15,,64,72
36240,note_on,,0,0,11,,,,,,,,,,,,,,,,15,,59,72
36240,note_on,,0,0,11,,,,,,,,,,,,,,,,15,,68,72
36329,note_on,,89,0,8,,,,,,,,,,,,,,,,11,,76,0
36329,note_on,,89,0,7,,,,,,,,,,,,,,,,10,,80,0
36330,note_on,,1,0,8,,,,,,,,,,,,,,,,11,,80,72
36330,note_on,,1,0,7,,,,,,,,,,,,,,,,10,,83,72
36359,note_on,,119,0,9,,,,,,,,,,,,,,,,12,,71,0
36359,note_on,,119,0,10,,,,,,,,,,,,,,,,13,,52,0
36359,note_on,,0,0,11,,,,,,,,,,,,,,,,15,,59,0
36359,note_on,,119,0,11,,,,,,,,,,,,,,,,15,,52,0
36359,note_on,,0,0,11,,,,,,,,,,,,,,,,15,,64,0
36359,note_on,,0,0,11,,,,,,,,,,,,,,,,15,,68,0
36359,note_on,,119,0,5,,,,,,,,,,,,,,,,2,,52,0
36359,note_on,,29,0,7,,,,,,,,,,,,,,,,10,,83,0
36359,note_on,,29,0,8,,,,,,,,,,,,,,,,11,,80,0
36360,note_on,,1,0,8,,,,,,,,,,,,,,,,11,,80,72
36360,note_on,,1,0,7,,,,,,,,,,,,,,,,10,,83,72
36420,note_on,,61,0,5,,,,,,,,,,,,,,,,2,,54,72
36420,note_on,,61,0,9,,,,,,,,,,,,,,,,12,,63,72
36420,note_on,,61,0,10,,,,,,,,,,,,,,,,13,,54,72
36420,note_on,,0,0,11,,,,,,,,,,,,,,,,15,,63,72
36420,note_on,,0,0,11,,,,,,,,,,,,,,,,15,,57,72
36420,note_on,,61,0,11,,,,,,,,,,,,,,,,15,,54,72
36479,note_on,,59,0,11,,,,,,,,,,,,,,,,15,,54,0
36479,note_on,,59,0,10,,,,,,,,,,,,,,,,13,,54,0
36479,note_on,,0,0,11,,,,,,,,,,,,,,,,15,,57,0
36479,note_on,,59,0,9,,,,,,,,,,,,,,,,12,,63,0
36479,note_on,,0,0,11,,,,,,,,,,,,,,,,15,,63,0
36479,note_on,,59,0,5,,,,,,,,,,,,,,,,2,,54,0
36480,note_on,,0,0,11,,,,,,,,,,,,,,,,15,,59,72
36480,note_on,,1,0,10,,,,,,,,,,,,,,,,13,,56,72
36480,note_on,,1,0,5,,,,,,,,,,,,,,,,2,,56,72
36480,note_on,,1,0,11,,,,,,,,,,,,,,,,15,,56,72
36480,note_on,,0,0,11,,,,,,,,,,,,,,,,15,,64,72
36480,note_on,,1,0,9,,,,,,,,,,,,,,,,12,,64,72
36539,note_on,,59,0,11,,,,,,,,,,,,,,,,15,,56,0
36539,note_on,,59,0,10,,,,,,,,,,,,,,,,13,,56,0
36539,note_on,,179,0,7,,,,,,,,,,,,,,,,10,,83,0
36539,note_on,,59,0,5,,,,,,,,,,,,,,,,2,,56,0
36539,note_on,,179,0,8,,,,,,,,,,,,,,,,11,,80,0
36539,note_on,,59,0,9,,,,,,,,,,,,,,,,12,,64,0
36540,note_on,,1,0,10,,,,,,,,,,,,,,,,13,,52,72
36540,note_on,,1,0,8,,,,,,,,,,,,,,,,11,,71,72
36540,note_on,,1,0,7,,,,,,,,,,,,,,,,10,,81,72
36540,note_on,,1,0,5,,,,,,,,,,,,,,,,2,,52,72
36540,note_on,,1,0,11,,,,,,,,,,,,,,,,15,,52,72
36540,note_on,,1,0,9,,,,,,,,,,,,,,,,12,,68,72
36569,note_on,,29,0,7,,,,,,,,,,,,,,,,10,,81,0
36570,note_on,,1,0,7,,,,,,,,,,,,,,,,10,,80,72
36599,note_on,,59,0,10,,,,,,,,,,,,,,,,13,,52,0
36599,note_on,,59,0,11,,,,,,,,,,,,,,,,15,,64,0
36599,note_on,,0,0,11,,,,,,,,,,,,,,,,15,,59,0
36599,note_on,,0,0,11,,,,,,,,,,,,,,,,15,,52,0
36599,note_on,,59,0,9,,,,,,,,,,,,,,,,12,,68,0
36599,note_on,,29,0,7,,,,,,,,,,,,,,,,10,,80,0
36599,note_on,,59,0,5,,,,,,,,,,,,,,,,2,,52,0
36599,note_on,,59,0,8,,,,,,,,,,,,,,,,11,,71,0
36600,note_on,,1,0,5,,,,,,,,,,,,,,,,2,,57,72
36600,note_on,,1,0,9,,,,,,,,,,,,,,,,12,,69,72
36600,note_on,,1,0,10,,,,,,,,,,,,,,,,13,,57,72
36600,note_on,,1,0,8,,,,,,,,,,,,,,,,11,,73,72
36600,note_on,,1,0,7,,,,,,,,,,,,,,,,10,,78,72
36600,note_on,,0,0,11,,,,,,,,,,,,,,,,15,,61,72
36600,note_on,,0,0,11,,,,,,,,,,,,,,,,15,,66,72
36600,note_on,,1,0,11,,,,,,,,,,,,,,,,15,,57,72
36659,note_on,,59,0,7,,,,,,,,,,,,,,,,10,,78,0
36659,note_on,,59,0,10,,,,,,,,,,,,,,,,13,,57,0
36659,note_on,,59,0,9,,,,,,,,,,,,,,,,12,,69,0
36659,note_on,,0,0,11,,,,,,,,,,,,,,,,15,,66,0
36659,note_on,,0,0,11,,,,,,,,,,,,,,,,15,,61,0
36659,note_on,,59,0,8,,,,,,,,,,,,,,,,11,,73,0
36659,note_on,,59,0,5,,,,,,,,,,,,,,,,2,,57,0
36659,note_on,,59,0,11,,,,,,,,,,,,,,,,15,,57,0
36660,note_on,,1,0,11,,,,,,,,,,,,,,,,15,,61,72
36660,note_on,,0,0,11,,,,,,,,,,,,,,,,15,,64,72
36660,note_on,,1,0,9,,,,,,,,,,,,,,,,12,,68,72
36660,note_on,,1,0,7,,,,,,,,,,,,,,,,10,,76,72
36660,note_on,,1,0,10,,,,,,,,,,,,,,,,13,,61,72
36660,note_on,,1,0,8,,,,,,,,,,,,,,,,11,,76,72
36660,note_on,,1,0,5,,,,,,,,,,,,,,,,2,,61,72
36719,note_on,,59,0,10,,,,,,,,,,,,,,,,13,,61,0
36719,note_on,,59,0,7,,,,,,,,,,,,,,,,10,,76,0
36719,note_on,,59,0,8,,,,,,,,,,,,,,,,11,,76,0
36719,note_on,,59,0,9,,,,,,,,,,,,,,,,12,,68,0
36719,note_on,,59,0,5,,,,,,,,,,,,,,,,2,,61,0
36719,note_on,,59,0,11,,,,,,,,,,,,,,,,15,,61,0
36719,note_on,,0,0,11,,,,,,,,,,,,,,,,15,,64,0
36720,note_on,,1,0,7,,,,,,,,,,,,,,,,10,,75,72
36720,note_on,,1,0,8,,,,,,,,,,,,,,,,11,,66,72
36720,note_on,,1,0,11,,,,,,,,,,,,,,,,15,,59,72
36720,note_on,,0,0,11,,,,,,,,,,,,,,,,15,,66,72
36720,note_on,,0,0,11,,,,,,,,,,,,,,,,15,,63,72
36720,note_on,,1,0,10,,,,,,,,,,,,,,,,13,,59,72
36720,note_on,,1,0,5,,,,,,,,,,,,,,,,2,,59,72
36720,note_on,,1,0,9,,,,,,,,,,,,,,,,12,,71,72
36809,note_on,,89,0,7,,,,,,,,,,,,,,,,10,,75,0
36809,note_on,,89,0,8,,,,,,,,,,,,,,,,11,,66,0
36810,note_on,,1,0,7,,,,,,,,,,,,,,,,10,,83,72
36810,note_on,,1,0,8,,,,,,,,,,,,,,,,11,,75,72
36839,note_on,,119,0,11,,,,,,,,,,,,,,,,15,,59,0
36839,note_on,,0,0,11,,,,,,,,,,,,,,,,15,,66,0
36839,note_on,,0,0,11,,,,,,,,,,,,,,,,15,,63,0
36839,note_on,,119,0,5,,,,,,,,,,,,,,,,2,,59,0
36839,note_on,,119,0,10,,,,,,,,,,,,,,,,13,,59,0
36839,note_on,,29,0,7,,,,,,,,,,,,,,,,10,,83,0
36839,note_on,,29,0,8,,,,,,,,,,,,,,,,11,,75,0
36839,note_on,,119,0,9,,,,,,,,,,,,,,,,12,,71,0
36840,note_on,,1,0,8,,,,,,,,,,,,,,,,11,,75,72
36840,note_on,,1,0,7,,,,,,,,,,,,,,,,10,,83,72
36899,note_on,,59,0,8,,,,,,,,,,,,,,,,11,,75,0
36900,note_on,,61,0,9,,,,,,,,,,,,,,,,12,,63,72
36900,note_on,,61,0,5,,,,,,,,,,,,,,,,2,,57,72
36900,note_on,,0,0,11,,,,,,,,,,,,,,,,15,,71,72
36900,note_on,,0,0,11,,,,,,,,,,,,,,,,15,,66,72
36900,note_on,,0,0,11,,,,,,,,,,,,,,,,15,,63,72
36900,note_on,,61,0,10,,,,,,,,,,,,,,,,13,,57,72
36900,note_on,,61,0,11,,,,,,,,,,,,,,,,15,,57,72
36900,note_on,,1,0,8,,,,,,,,,,,,,,,,11,,78,72
36959,note_on,,59,0,8,,,,,,,,,,,,,,,,11,,78,0
36959,note_on,,59,0,9,,,,,,,,,,,,,,,,12,,63,0
36959,note_on,,59,0,5,,,,,,,,,,,,,,,,2,,57,0
36959,note_on,,59,0,11,,,,,,,,,,,,,,,,15,,57,0
36959,note_on,,0,0,11,,,,,,,,,,,,,,,,15,,66,0
36959,note_on,,0,0,11,,,,,,,,,,,,,,,,15,,63,0
36959,note_on,,59,0,10,,,,,,,,,,,,,,,,13,,57,0
36960,note_on,,1,0,9,,,,,,,,,,,,,,,,12,,64,72
36960,note_on,,1,0,8,,,,,,,,,,,,,,,,11,,71,72
36960,note_on,,1,0,10,,,,,,,,,,,,,,,,13,,56,72
36960,note_on,,1,0,11,,,,,,,,,,,,,,,,15,,56,72
36960,note_on,,0,0,11,,,,,,,,,,,,,,,,15,,64,72
36960,note_on,,1,0,5,,,,,,,,,,,,,,,,2,,56,72
37019,note_on,,59,0,10,,,,,,,,,,,,,,,,13,,56,0
37019,note_on,,59,0,8,,,,,,,,,,,,,,,,11,,71,0
37019,note_on,,59,0,5,,,,,,,,,,,,,,,,2,,56,0
37019,note_on,,59,0,11,,,,,,,,,,,,,,,,15,,56,0
37019,note_on,,59,0,9,,,,,,,,,,,,,,,,12,,64,0
37019,note_on,,179,0,7,,,,,,,,,,,,,,,,10,,83,0
37020,note_on,,1,0,11,,,,,,,,,,,,,,,,15,,52,72
37020,note_on,,1,0,7,,,,,,,,,,,,,,,,10,,81,72
37020,note_on,,1,0,10,,,,,,,,,,,,,,,,13,,52,72
37020,note_on,,1,0,8,,,,,,,,,,,,,,,,11,,73,72
37020,note_on,,1,0,5,,,,,,,,,,,,,,,,2,,52,72
37020,note_on,,1,0,9,,,,,,,,,,,,,,,,12,,64,72
37049,note_on,,29,0,8,,,,,,,,,,,,,,,,11,,73,0
37049,note_on,,29,0,7,,,,,,,,,,,,,,,,10,,81,0
37050,note_on,,1,0,8,,,,,,,,,,,,,,,,11,,71,72
37050,note_on,,1,0,7,,,,,,,,,,,,,,,,10,,80,72
37079,note_on,,59,0,10,,,,,,,,,,,,,,,,13,,52,0
37079,note_on,,29,0,7,,,,,,,,,,,,,,,,10,,80,0
37079,note_on,,59,0,5,,,,,,,,,,,,,,,,2,,52,0
37079,note_on,,0,0,11,,,,,,,,,,,,,,,,15,,52,0
37079,note_on,,0,0,11,,,,,,,,,,,,,,,,15,,64,0
37079,note_on,,29,0,8,,,,,,,,,,,,,,,,11,,71,0
37079,note_on,,59,0,11,,,,,,,,,,,,,,,,15,,71,0
37079,note_on,,59,0,9,,,,,,,,,,,,,,,,12,,64,0
37080,note_on,,1,0,9,,,,,,,,,,,,,,,,12,,66,72
37080,note_on,,1,0,7,,,,,,,,,,,,,,,,10,,78,72
37080,note_on,,1,0,11,,,,,,,,,,,,,,,,15,,57,72
37080,note_on,,1,0,8,,,,,,,,,,,,,,,,11,,69,72
37080,note_on,,1,0,10,,,,,,,,,,,,,,,,13,,57,72
37080,note_on,,0,0,11,,,,,,,,,,,,,,,,15,,73,72
37080,note_on,,0,0,11,,,,,,,,,,,,,,,,15,,61,72
37080,note_on,,1,0,5,,,,,,,,,,,,,,,,2,,57,72
37139,note_on,,59,0,11,,,,,,,,,,,,,,,,15,,57,0
37139,note_on,,59,0,9,,,,,,,,,,,,,,,,12,,66,0
37139,note_on,,59,0,5,,,,,,,,,,,,,,,,2,,57,0
37139,note_on,,59,0,8,,,,,,,,,,,,,,,,11,,69,0
37139,note_on,,59,0,10,,,,,,,,,,,,,,,,13,,57,0
37140,note_on,,1,0,8,,,,,,,,,,,,,,,,11,,68,72
37140,note_on,,1,0,5,,,,,,,,,,,,,,,,2,,45,72
37140,note_on,,1,0,11,,,,,,,,,,,,,,,,15,,45,72
37140,note_on,,1,0,9,,,,,,,,,,,,,,,,12,,73,72
37140,note_on,,1,0,10,,,,,,,,,,,,,,,,13,,45,72
37169,note_on,,89,0,7,,,,,,,,,,,,,,,,10,,78,0
37170,note_on,,1,0,7,,,,,,,,,,,,,,,,10,,76,72
37199,note_on,,59,0,9,,,,,,,,,,,,,,,,12,,73,0
37199,note_on,,59,0,5,,,,,,,,,,,,,,,,2,,45,0
37199,note_on,,59,0,10,,,,,,,,,,,,,,,,13,,45,0
37199,note_on,,0,0,11,,,,,,,,,,,,,,,,15,,61,0
37199,note_on,,0,0,11,,,,,,,,,,,,,,,,15,,45,0
37199,note_on,,29,0,7,,,,,,,,,,,,,,,,10,,76,0
37199,note_on,,59,0,8,,,,,,,,,,,,,,,,11,,68,0
37199,note_on,,59,0,11,,,,,,,,,,,,,,,,15,,73,0
37200,note_on,,1,0,7,,,,,,,,,,,,,,,,10,,75,72
37200,note_on,,1,0,9,,,,,,,,,,,,,,,,12,,71,72
37200,note_on,,1,0,10,,,,,,,,,,,,,,,,13,,47,72
37200,note_on,,1,0,8,,,,,,,,,,,,,,,,11,,66,72
37200,note_on,,1,0,5,,,,,,,,,,,,,,,,2,,47,72
37200,note_on,,1,0,11,,,,,,,,,,,,,,,,15,,59,72
37200,note_on,,0,0,11,,,,,,,,,,,,,,,,15,,47,72
37200,note_on,,0,0,11,,,,,,,,,,,,,,,,15,,66,72
37200,note_on,,0,0,11,,,,,,,,,,,,,,,,15,,63,72
37229,note_on,,29,0,7,,,,,,,,,,,,,,,,10,,75,0
37230,note_on,,1,0,7,,,,,,,,,,,,,,,,10,,73,72
37259,note_on,,29,0,7,,,,,,,,,,,,,,,,10,,73,0
37259,note_on,,59,0,9,,,,,,,,,,,,,,,,12,,71,0
37260,note_on,,1,0,9,,,,,,,,,,,,,,,,12,,63,72
37260,note_on,,1,0,7,,,,,,,,,,,,,,,,10,,71,72
37319,note_on,,119,0,10,,,,,,,,,,,,,,,,13,,47,0
37319,note_on,,119,0,8,,,,,,,,,,,,,,,,11,,66,0
37319,note_on,,0,0,11,,,,,,,,,,,,,,,,15,,63,0
37319,note_on,,0,0,11,,,,,,,,,,,,,,,,15,,47,0
37319,note_on,,0,0,11,,,,,,,,,,,,,,,,15,,66,0
37319,note_on,,119,0,5,,,,,,,,,,,,,,,,2,,47,0
37319,note_on,,59,0,9,,,,,,,,,,,,,,,,12,,63,0
37319,note_on,,59,0,7,,,,,,,,,,,,,,,,10,,71,0
37319,note_on,,119,0,11,,,,,,,,,,,,,,,,15,,59,0
37380,note_on,,61,0,10,,,,,,,,,,,,,,,,13,,56,72
37380,note_on,,61,0,5,,,,,,,,,,,,,,,,2,,56,72
37380,note_on,,61,0,8,,,,,,,,,,,,,,,,11,,71,72
37380,note_on,,61,0,9,,,,,,,,,,,,,,,,12,,64,72
37380,note_on,,0,0,11,,,,,,,,,,,,,,,,15,,64,72
37380,note_on,,61,0,11,,,,,,,,,,,,,,,,15,,56,72
37380,note_on,,61,0,7,,,,,,,,,,,,,,,,10,,76,72
37380,note_on,,0,0,11,,,,,,,,,,,,,,,,15,,59,72
37439,note_on,,59,0,7,,,,,,,,,,,,,,,,10,,76,0
37439,note_on,,59,0,10,,,,,,,,,,,,,,,,13,,56,0
37439,note_on,,59,0,11,,,,,,,,,,,,,,,,15,,56,0
37439,note_on,,0,0,11,,,,,,,,,,,,,,,,15,,64,0
37439,note_on,,0,0,11,,,,,,,,,,,,,,,,15,,59,0
37439,note_on,,59,0,9,,,,,,,,,,,,,,,,12,,64,0
37439,note_on,,59,0,5,,,,,,,,,,,,,,,,2,,56,0
37439,note_on,,59,0,8,,,,,,,,,,,,,,,,11,,71,0
37440,note_on,,1,0,9,,,,,,,,,,,,,,,,12,,61,72
37440,note_on,,1,0,5,,,,,,,,,,,,,,,,2,,57,72
37440,note_on,,1,0,10,,,,,,,,,,,,,,,,13,,57,72
37440,note_on,,0,0,11,,,,,,,,,,,,,,,,15,,61,72
37440,note_on,,1,0,11,,,,,,,,,,,,,,,,15,,57,72
37440,note_on,,0,0,11,,,,,,,,,,,,,,,,15,,66,72
37440,note_on,,1,0,7,,,,,,,,,,,,,,,,10,,78,72
37440,note_on,,1,0,8,,,,,,,,,,,,,,,,11,,73,72
37454,note_on,,14,0,7,,,,,,,,,,,,,,,,10,,78,0
37455,note_on,,1,0,7,,,,,,,,,,,,,,,,10,,80,72
37469,note_on,,14,0,7,,,,,,,,,,,,,,,,10,,80,0
37470,note_on,,1,0,7,,,,,,,,,,,,,,,,10,,76,72
37484,note_on,,14,0,7,,,,,,,,,,,,,,,,10,,76,0
37485,note_on,,1,0,7,,,,,,,,,,,,,,,,10,,78,72
37499,note_on,,14,0,7,,,,,,,,,,,,,,,,10,,78,0
37499,note_on,,59,0,5,,,,,,,,,,,,,,,,2,,57,0
37499,note_on,,59,0,8,,,,,,,,,,,,,,,,11,,73,0
37499,note_on,,59,0,9,,,,,,,,,,,,,,,,12,,61,0
37499,note_on,,0,0,11,,,,,,,,,,,,,,,,15,,61,0
37499,note_on,,0,0,11,,,,,,,,,,,,,,,,15,,66,0
37499,note_on,,59,0,10,,,,,,,,,,,,,,,,13,,57,0
37499,note_on,,59,0,11,,,,,,,,,,,,,,,,15,,57,0
37500,note_on,,1,0,8,,,,,,,,,,,,,,,,11,,71,72
37500,note_on,,1,0,7,,,,,,,,,,,,,,,,10,,76,72
37500,note_on,,1,0,11,,,,,,,,,,,,,,,,15,,56,72
37500,note_on,,0,0,11,,,,,,,,,,,,,,,,15,,64,72
37500,note_on,,0,0,11,,,,,,,,,,,,,,,,15,,59,72
37500,note_on,,1,0,9,,,,,,,,,,,,,,,,12,,64,72
37500,note_on,,1,0,10,,,,,,,,,,,,,,,,13,,56,72
37500,note_on,,1,0,5,,,,,,,,,,,,,,,,2,,56,72
37559,note_on,,0,0,11,,,,,,,,,,,,,,,,15,,64,0
37559,note_on,,0,0,11,,,,,,,,,,,,,,,,15,,59,0
37559,note_on,,59,0,5,,,,,,,,,,,,,,,,2,,56,0
37559,note_on,,59,0,11,,,,,,,,,,,,,,,,15,,56,0
37559,note_on,,59,0,9,,,,,,,,,,,,,,,,12,,64,0
37559,note_on,,59,0,7,,,,,,,,,,,,,,,,10,,76,0
37559,note_on,,59,0,10,,,,,,,,,,,,,,,,13,,56,0
37559,note_on,,59,0,8,,,,,,,,,,,,,,,,11,,71,0
37560,note_on,,1,0,7,,,,,,,,,,,,,,,,10,,78,72
37560,note_on,,1,0,5,,,,,,,,,,,,,,,,2,,57,72
37560,note_on,,0,0,11,,,,,,,,,,,,,,,,15,,61,72
37560,note_on,,0,0,11,,,,,,,,,,,,,,,,15,,66,72
37560,note_on,,1,0,11,,,,,,,,,,,,,,,,15,,57,72
37560,note_on,,1,0,10,,,,,,,,,,,,,,,,13,,57,72
37560,note_on,,1,0,8,,,,,,,,,,,,,,,,11,,73,72
37574,note_on,,14,0,7,,,,,,,,,,,,,,,,10,,78,0
37575,note_on,,1,0,7,,,,,,,,,,,,,,,,10,,80,72
37589,note_on,,14,0,7,,,,,,,,,,,,,,,,10,,80,0
37590,note_on,,1,0,7,,,,,,,,,,,,,,,,10,,76,72
37604,note_on,,14,0,7,,,,,,,,,,,,,,,,10,,76,0
37605,note_on,,1,0,7,,,,,,,,,,,,,,,,10,,78,72
37619,note_on,,14,0,7,,,,,,,,,,,,,,,,10,,78,0
37619,note_on,,59,0,8,,,,,,,,,,,,,,,,11,,73,0
37619,note_on,,59,0,10,,,,,,,,,,,,,,,,13,,57,0
37619,note_on,,59,0,5,,,,,,,,,,,,,,,,2,,57,0
37619,note_on,,59,0,11,,,,,,,,,,,,,,,,15,,57,0
37619,note_on,,0,0,11,,,,,,,,,,,,,,,,15,,66,0
37619,note_on,,0,0,11,,,,,,,,,,,,,,,,15,,61,0
37620,note_on,,1,0,8,,,,,,,,,,,,,,,,11,,71,72
37620,note_on,,1,0,7,,,,,,,,,,,,,,,,10,,76,72
37620,note_on,,0,0,11,,,,,,,,,,,,,,,,15,,64,72
37620,note_on,,1,0,11,,,,,,,,,,,,,,,,15,,56,72
37620,note_on,,1,0,10,,,,,,,,,,,,,,,,13,,56,72
37620,note_on,,61,0,9,,,,,,,,,,,,,,,,12,,64,72
37620,note_on,,1,0,5,,,,,,,,,,,,,,,,2,,56,72
37620,note_on,,0,0,11,,,,,,,,,,,,,,,,15,,59,72
37679,note_on,,59,0,9,,,,,,,,,,,,,,,,12,,64,0
37679,note_on,,59,0,5,,,,,,,,,,,,,,,,2,,56,0
37679,note_on,,0,0,11,,,,,,,,,,,,,,,,15,,64,0
37679,note_on,,0,0,11,,,,,,,,,,,,,,,,15,,59,0
37679,note_on,,59,0,11,,,,,,,,,,,,,,,,15,,56,0
37679,note_on,,59,0,8,,,,,,,,,,,,,,,,11,,71,0
37679,note_on,,59,0,10,,,,,,,,,,,,,,,,13,,56,0
37679,note_on,,59,0,7,,,,,,,,,,,,,,,,10,,76,0
37680,note_on,,0,0,11,,,,,,,,,,,,,,,,15,,61,72
37680,note_on,,1,0,7,,,,,,,,,,,,,,,,10,,78,72
37680,note_on,,0,0,11,,,,,,,,,,,,,,,,15,,66,72
37680,note_on,,1,0,8,,,,,,,,,,,,,,,,11,,73,72
37680,note_on,,1,0,11,,,,,,,,,,,,,,,,15,,57,72
37680,note_on,,1,0,9,,,,,,,,,,,,,,,,12,,61,72
37680,note_on,,1,0,5,,,,,,,,,,,,,,,,2,,57,72
37680,note_on,,1,0,10,,,,,,,,,,,,,,,,13,,57,72
37694,note_on,,14,0,7,,,,,,,,,,,,,,,,10,,78,0
37695,note_on,,1,0,7,,,,,,,,,,,,,,,,10,,80,72
37709,note_on,,14,0,7,,,,,,,,,,,,,,,,10,,80,0
37710,note_on,,1,0,7,,,,,,,,,,,,,,,,10,,76,72
37724,note_on,,14,0,7,,,,,,,,,,,,,,,,10,,76,0
37725,note_on,,1,0,7,,,,,,,,,,,,,,,,10,,78,72
37739,note_on,,14,0,7,,,,,,,,,,,,,,,,10,,78,0
37739,note_on,,59,0,10,,,,,,,,,,,,,,,,13,,57,0
37739,note_on,,59,0,11,,,,,,,,,,,,,,,,15,,57,0
37739,note_on,,0,0,11,,,,,,,,,,,,,,,,15,,66,0
37739,note_on,,59,0,5,,,,,,,,,,,,,,,,2,,57,0
37739,note_on,,59,0,9,,,,,,,,,,,,,,,,12,,61,0
37739,note_on,,0,0,11,,,,,,,,,,,,,,,,15,,61,0
37739,note_on,,59,0,8,,,,,,,,,,,,,,,,11,,73,0
37740,note_on,,1,0,8,,,,,,,,,,,,,,,,11,,71,72
37740,note_on,,1,0,7,,,,,,,,,,,,,,,,10,,76,72
37740,note_on,,0,0,11,,,,,,,,,,,,,,,,15,,64,72
37740,note_on,,0,0,11,,,,,,,,,,,,,,,,15,,59,72
37740,note_on,,1,0,11,,,,,,,,,,,,,,,,15,,56,72
37740,note_on,,1,0,5,,,,,,,,,,,,,,,,2,,56,72
37740,note_on,,1,0,10,,,,,,,,,,,,,,,,13,,56,72
37740,note_on,,1,0,9,,,,,,,,,,,,,,,,12,,64,72
37799,note_on,,59,0,11,,,,,,,,,,,,,,,,15,,56,0
37799,note_on,,0,0,11,,,,,,,,,,,,,,,,15,,59,0
37799,note_on,,0,0,11,,,,,,,,,,,,,,,,15,,64,0
37799,note_on,,59,0,5,,,,,,,,,,,,,,,,2,,56,0
37799,note_on,,59,0,7,,,,,,,,,,,,,,,,10,,76,0
37799,note_on,,59,0,8,,,,,,,,,,,,,,,,11,,71,0
37799,note_on,,59,0,9,,,,,,,,,,,,,,,,12,,64,0
37799,note_on,,59,0,10,,,,,,,,,,,,,,,,13,,56,0
37860,note_on,,61,0,11,,,,,,,,,,,,,,,,15,,52,72
37860,note_on,,61,0,5,,,,,,,,,,,,,,,,2,,52,72
37860,note_on,,0,0,11,,,,,,,,,,,,,,,,15,,64,72
37860,note_on,,0,0,11,,,,,,,,,,,,,,,,15,,68,72
37860,note_on,,61,0,8,,,,,,,,,,,,,,,,11,,76,72
37860,note_on,,61,0,10,,,,,,,,,,,,,,,,13,,52,72
37860,note_on,,0,0,11,,,,,,,,,,,,,,,,15,,59,72
37860,note_on,,61,0,7,,,,,,,,,,,,,,,,10,,80,72
37860,note_on,,61,0,9,,,,,,,,,,,,,,,,12,,71,72
37919,note_on,,59,0,10,,,,,,,,,,,,,,,,13,,52,0
37919,note_on,,0,0,11,,,,,,,,,,,,,,,,15,,68,0
37919,note_on,,59,0,9,,,,,,,,,,,,,,,,12,,71,0
37919,note_on,,0,0,11,,,,,,,,,,,,,,,,15,,64,0
37919,note_on,,59,0,11,,,,,,,,,,,,,,,,15,,52,0
37919,note_on,,0,0,11,,,,,,,,,,,,,,,,15,,59,0
37919,note_on,,59,0,8,,,,,,,,,,,,,,,,11,,76,0
37919,note_on,,59,0,7,,,,,,,,,,,,,,,,10,,80,0
37919,note_on,,59,0,5,,,,,,,,,,,,,,,,2,,52,0
37920,note_on,,1,0,11,,,,,,,,,,,,,,,,15,,54,72
37920,note_on,,0,0,11,,,,,,,,,,,,,,,,15,,69,72
37920,note_on,,0,0,11,,,,,,,,,,,,,,,,15,,63,72
37920,note_on,,1,0,7,,,,,,,,,,,,,,,,10,,81,72
37920,note_on,,1,0,5,,,,,,,,,,,,,,,,2,,54,72
37920,note_on,,1,0,8,,,,,,,,,,,,,,,,11,,75,72
37920,note_on,,1,0,9,,,,,,,,,,,,,,,,12,,69,72
37920,note_on,,1,0,10,,,,,,,,,,,,,,,,13,,54,72
37934,note_on,,14,0,7,,,,,,,,,,,,,,,,10,,81,0
37935,note_on,,1,0,7,,,,,,,,,,,,,,,,10,,83,72
37949,note_on,,14,0,7,,,,,,,,,,,,,,,,10,,83,0
37950,note_on,,1,0,7,,,,,,,,,,,,,,,,10,,80,72
37964,note_on,,14,0,7,,,,,,,,,,,,,,,,10,,80,0
37965,note_on,,1,0,7,,,,,,,,,,,,,,,,10,,81,72
37979,note_on,,59,0,5,,,,,,,,,,,,,,,,2,,54,0
37979,note_on,,59,0,9,,,,,,,,,,,,,,,,12,,69,0
37979,note_on,,0,0,11,,,,,,,,,,,,,,,,15,,69,0
37979,note_on,,59,0,10,,,,,,,,,,,,,,,,13,,54,0
37979,note_on,,59,0,8,,,,,,,,,,,,,,,,11,,75,0
37979,note_on,,0,0,11,,,,,,,,,,,,,,,,15,,63,0
37979,note_on,,59,0,11,,,,,,,,,,,,,,,,15,,54,0
37979,note_on,,14,0,7,,,,,,,,,,,,,,,,10,,81,0
37980,note_on,,1,0,10,,,,,,,,,,,,,,,,13,,52,72
37980,note_on,,0,0,11,,,,,,,,,,,,,,,,15,,68,72
37980,note_on,,1,0,11,,,,,,,,,,,,,,,,15,,52,72
37980,note_on,,1,0,5,,,,,,,,,,,,,,,,2,,52,72
37980,note_on,,1,0,8,,,,,,,,,,,,,,,,11,,76,72
37980,note_on,,1,0,9,,,,,,,,,,,,,,,,12,,71,72
37980,note_on,,0,0,11,,,,,,,,,,,,,,,,15,,64,72
37980,note_on,,1,0,7,,,,,,,,,,,,,,,,10,,80,72
38039,note_on,,59,0,8,,,,,,,,,,,,,,,,11,,76,0
38039,note_on,,0,0,11,,,,,,,,,,,,,,,,15,,68,0
38039,note_on,,59,0,5,,,,,,,,,,,,,,,,2,,52,0
38039,note_on,,59,0,11,,,,,,,,,,,,,,,,15,,52,0
38039,note_on,,0,0,11,,,,,,,,,,,,,,,,15,,64,0
38039,note_on,,59,0,9,,,,,,,,,,,,,,,,12,,71,0
38039,note_on,,59,0,7,,,,,,,,,,,,,,,,10,,80,0
38039,note_on,,59,0,10,,,,,,,,,,,,,,,,13,,52,0
38040,note_on,,1,0,11,,,,,,,,,,,,,,,,15,,54,72
38040,note_on,,0,0,11,,,,,,,,,,,,,,,,15,,69,72
38040,note_on,,0,0,11,,,,,,,,,,,,,,,,15,,63,72
38040,note_on,,1,0,7,,,,,,,,,,,,,,,,10,,81,72
38040,note_on,,1,0,10,,,,,,,,,,,,,,,,13,,54,72
38040,note_on,,1,0,5,,,,,,,,,,,,,,,,2,,54,72
38040,note_on,,1,0,8,,,,,,,,,,,,,,,,11,,75,72
38040,note_on,,1,0,9,,,,,,,,,,,,,,,,12,,69,72
38054,note_on,,14,0,7,,,,,,,,,,,,,,,,10,,81,0
38055,note_on,,1,0,7,,,,,,,,,,,,,,,,10,,83,72
38069,note_on,,14,0,7,,,,,,,,,,,,,,,,10,,83,0
38070,note_on,,1,0,7,,,,,,,,,,,,,,,,10,,80,72
38084,note_on,,14,0,7,,,,,,,,,,,,,,,,10,,80,0
38085,note_on,,1,0,7,,,,,,,,,,,,,,,,10,,81,72
38099,note_on,,0,0,11,,,,,,,,,,,,,,,,15,,69,0
38099,note_on,,14,0,7,,,,,,,,,,,,,,,,10,,81,0
38099,note_on,,59,0,10,,,,,,,,,,,,,,,,13,,54,0
38099,note_on,,59,0,11,,,,,,,,,,,,,,,,15,,54,0
38099,note_on,,59,0,8,,,,,,,,,,,,,,,,11,,75,0
38099,note_on,,59,0,5,,,,,,,,,,,,,,,,2,,54,0
38099,note_on,,59,0,9,,,,,,,,,,,,,,,,12,,69,0
38099,note_on,,0,0,11,,,,,,,,,,,,,,,,15,,63,0
38100,note_on,,1,0,5,,,,,,,,,,,,,,,,2,,52,72
38100,note_on,,1,0,11,,,,,,,,,,,,,,,,15,,52,72
38100,note_on,,1,0,7,,,,,,,,,,,,,,,,10,,80,72
38100,note_on,,0,0,11,,,,,,,,,,,,,,,,15,,64,72
38100,note_on,,1,0,9,,,,,,,,,,,,,,,,12,,71,72
38100,note_on,,1,0,8,,,,,,,,,,,,,,,,11,,76,72
38100,note_on,,1,0,10,,,,,,,,,,,,,,,,13,,52,72
38100,note_on,,0,0,11,,,,,,,,,,,,,,,,15,,68,72
38159,note_on,,59,0,11,,,,,,,,,,,,,,,,15,,52,0
38159,note_on,,59,0,7,,,,,,,,,,,,,,,,10,,80,0
38159,note_on,,0,0,11,,,,,,,,,,,,,,,,15,,64,0
38159,note_on,,59,0,8,,,,,,,,,,,,,,,,11,,76,0
38159,note_on,,59,0,5,,,,,,,,,,,,,,,,2,,52,0
38159,note_on,,0,0,11,,,,,,,,,,,,,,,,15,,68,0
38159,note_on,,59,0,10,,,,,,,,,,,,,,,,13,,52,0
38159,note_on,,59,0,9,,,,,,,,,,,,,,,,12,,71,0
38160,note_on,,1,0,11,,,,,,,,,,,,,,,,15,,54,72
38160,note_on,,1,0,9,,,,,,,,,,,,,,,,12,,69,72
38160,note_on,,1,0,5,,,,,,,,,,,,,,,,2,,54,72
38160,note_on,,1,0,8,,,,,,,,,,,,,,,,11,,75,72
38160,note_on,,0,0,11,,,,,,,,,,,,,,,,15,,63,72
38160,note_on,,1,0,7,,,,,,,,,,,,,,,,10,,81,72
38160,note_on,,1,0,10,,,,,,,,,,,,,,,,13,,54,72
38160,note_on,,0,0,11,,,,,,,,,,,,,,,,15,,69,72
38174,note_on,,14,0,7,,,,,,,,,,,,,,,,10,,81,0
38175,note_on,,1,0,7,,,,,,,,,,,,,,,,10,,83,72
38189,note_on,,14,0,7,,,,,,,,,,,,,,,,10,,83,0
38190,note_on,,1,0,7,,,,,,,,,,,,,,,,10,,80,72
38204,note_on,,14,0,7,,,,,,,,,,,,,,,,10,,80,0
38205,note_on,,1,0,7,,,,,,,,,,,,,,,,10,,81,72
38219,note_on,,59,0,11,,,,,,,,,,,,,,,,15,,54,0
38219,note_on,,0,0,11,,,,,,,,,,,,,,,,15,,69,0
38219,note_on,,0,0,11,,,,,,,,,,,,,,,,15,,63,0
38219,note_on,,14,0,7,,,,,,,,,,,,,,,,10,,81,0
38219,note_on,,59,0,10,,,,,,,,,,,,,,,,13,,54,0
38219,note_on,,59,0,5,,,,,,,,,,,,,,,,2,,54,0
38219,note_on,,59,0,9,,,,,,,,,,,,,,,,12,,69,0
38219,note_on,,59,0,8,,,,,,,,,,,,,,,,11,,75,0
38220,note_on,,1,0,7,,,,,,,,,,,,,,,,10,,80,72
38220,note_on,,1,0,8,,,,,,,,,,,,,,,,11,,76,72
38220,note_on,,1,0,10,,,,,,,,,,,,,,,,13,,52,72
38220,note_on,,1,0,5,,,,,,,,,,,,,,,,2,,52,72
38220,note_on,,1,0,9,,,,,,,,,,,,,,,,12,,71,72
38220,note_on,,0,0,11,,,,,,,,,,,,,,,,15,,64,72
38220,note_on,,0,0,11,,,,,,,,,,,,,,,,15,,68,72
38220,note_on,,1,0,11,,,,,,,,,,,,,,,,15,,52,72
38279,note_on,,0,0,11,,,,,,,,,,,,,,,,15,,64,0
38279,note_on,,0,0,11,,,,,,,,,,,,,,,,15,,68,0
38279,note_on,,59,0,5,,,,,,,,,,,,,,,,2,,52,0
38279,note_on,,59,0,11,,,,,,,,,,,,,,,,15,,52,0
38279,note_on,,59,0,10,,,,,,,,,,,,,,,,13,,52,0
38279,note_on,,59,0,8,,,,,,,,,,,,,,,,11,,76,0
38279,note_on,,59,0,9,,,,,,,,,,,,,,,,12,,71,0
38279,note_on,,59,0,7,,,,,,,,,,,,,,,,10,,80,0
38340,note_on,,61,0,7,,,,,,,,,,,,,,,,10,,83,48
38340,note_on,,61,0,8,,,,,,,,,,,,,,,,11,,80,48
38399,note_on,,59,0,7,,,,,,,,,,,,,,,,10,,83,0
38399,note_on,,59,0,8,,,,,,,,,,,,,,,,11,,80,0
38400,note_on,,1,0,8,,,,,,,,,,,,,,,,11,,81,48
38400,note_on,,1,0,7,,,,,,,,,,,,,,,,10,,85,48
38414,note_on,,14,0,7,,,,,,,,,,,,,,,,10,,85,0
38415,note_on,,1,0,7,,,,,,,,,,,,,,,,10,,87,48
38429,note_on,,14,0,7,,,,,,,,,,,,,,,,10,,87,0
38430,note_on,,1,0,7,,,,,,,,,,,,,,,,10,,83,48
38444,note_on,,14,0,7,,,,,,,,,,,,,,,,10,,83,0
38445,note_on,,1,0,7,,,,,,,,,,,,,,,,10,,85,48
38459,note_on,,59,0,8,,,,,,,,,,,,,,,,11,,81,0
38459,note_on,,14,0,7,,,,,,,,,,,,,,,,10,,85,0
38460,note_on,,1,0,7,,,,,,,,,,,,,,,,10,,83,48
38460,note_on,,1,0,8,,,,,,,,,,,,,,,,11,,80,48
38519,note_on,,59,0,8,,,,,,,,,,,,,,,,11,,80,0
38519,note_on,,59,0,7,,,,,,,,,,,,,,,,10,,83,0
38520,note_on,,1,0,7,,,,,,,,,,,,,,,,10,,85,48
38520,note_on,,1,0,8,,,,,,,,,,,,,,,,11,,81,48
38534,note_on,,14,0,7,,,,,,,,,,,,,,,,10,,85,0
38535,note_on,,1,0,7,,,,,,,,,,,,,,,,10,,87,48
38549,note_on,,14,0,7,,,,,,,,,,,,,,,,10,,87,0
38550,note_on,,1,0,7,,,,,,,,,,,,,,,,10,,83,48
38564,note_on,,14,0,7,,,,,,,,,,,,,,,,10,,83,0
38565,note_on,,1,0,7,,,,,,,,,,,,,,,,10,,85,48
38579,note_on,,14,0,7,,,,,,,,,,,,,,,,10,,85,0
38579,note_on,,59,0,8,,,,,,,,,,,,,,,,11,,81,0
38580,note_on,,1,0,7,,,,,,,,,,,,,,,,10,,83,48
38580,note_on,,1,0,8,,,,,,,,,,,,,,,,11,,80,48
38639,note_on,,59,0,8,,,,,,,,,,,,,,,,11,,80,0
38639,note_on,,59,0,7,,,,,,,,,,,,,,,,10,,83,0
38640,note_on,,1,0,7,,,,,,,,,,,,,,,,10,,85,48
38640,note_on,,1,0,8,,,,,,,,,,,,,,,,11,,81,48
38654,note_on,,14,0,7,,,,,,,,,,,,,,,,10,,85,0
38655,note_on,,1,0,7,,,,,,,,,,,,,,,,10,,87,48
38669,note_on,,14,0,7,,,,,,,,,,,,,,,,10,,87,0
38670,note_on,,1,0,7,,,,,,,,,,,,,,,,10,,83,48
38684,note_on,,14,0,7,,,,,,,,,,,,,,,,10,,83,0
38685,note_on,,1,0,7,,,,,,,,,,,,,,,,10,,85,48
38699,note_on,,14,0,7,,,,,,,,,,,,,,,,10,,85,0
38699,note_on,,59,0,8,,,,,,,,,,,,,,,,11,,81,0
38700,note_on,,1,0,7,,,,,,,,,,,,,,,,10,,83,48
38700,note_on,,1,0,8,,,,,,,,,,,,,,,,11,,80,48
38759,note_on,,59,0,7,,,,,,,,,,,,,,,,10,,83,0
38759,note_on,,59,0,8,,,,,,,,,,,,,,,,11,,80,0
38760,note_on,,1,0,8,,,,,,,,,,,,,,,,11,,81,48
38760,note_on,,1,0,7,,,,,,,,,,,,,,,,10,,85,48
38819,note_on,,59,0,8,,,,,,,,,,,,,,,,11,,81,0
38819,note_on,,59,0,7,,,,,,,,,,,,,,,,10,,85,0
38820,note_on,,541,0,11,,,,,,,,,,,,,,,,15,,59,72
38820,note_on,,541,0,10,,,,,,,,,,,,,,,,13,,59,72
38820,note_on,,0,0,11,,,,,,,,,,,,,,,,15,,71,72
38820,note_on,,541,0,9,,,,,,,,,,,,,,,,12,,71,72
38820,note_on,,1,0,7,,,,,,,,,,,,,,,,10,,78,72
38820,note_on,,0,0,11,,,,,,,,,,,,,,,,15,,63,72
38820,note_on,,1,0,8,,,,,,,,,,,,,,,,11,,75,72
38820,note_on,,0,0,11,,,,,,,,,,,,,,,,15,,66,72
38820,note_on,,541,0,5,,,,,,,,,,,,,,,,2,,59,72
38879,note_on,,0,0,11,,,,,,,,,,,,,,,,15,,63,0
38879,note_on,,0,0,11,,,,,,,,,,,,,,,,15,,66,0
38879,note_on,,59,0,9,,,,,,,,,,,,,,,,12,,71,0
38879,note_on,,59,0,11,,,,,,,,,,,,,,,,15,,59,0
38879,note_on,,59,0,8,,,,,,,,,,,,,,,,11,,75,0
38879,note_on,,59,0,5,,,,,,,,,,,,,,,,2,,59,0
38879,note_on,,59,0,10,,,,,,,,,,,,,,,,13,,59,0
38879,note_on,,59,0,7,,,,,,,,,,,,,,,,10,,78,0
38880,note_on,,1,0,10,,,,,,,,,,,,,,,,13,,64,72
38880,note_on,,1,0,7,,,,,,,,,,,,,,,,10,,80,72
38880,note_on,,1,0,9,,,,,,,,,,,,,,,,12,,71,72
38880,note_on,,1,0,5,,,,,,,,,,,,,,,,2,,64,72
38880,note_on,,1,0,8,,,,,,,,,,,,,,,,11,,76,72
38880,note_on,,0,0,11,,,,,,,,,,,,,,,,15,,68,72
38880,note_on,,1,0,11,,,,,,,,,,,,,,,,15,,64,72
38939,note_on,,59,0,5,,,,,,,,,,,,,,,,2,,64,0
38939,note_on,,59,0,8,,,,,,,,,,,,,,,,11,,76,0
38939,note_on,,59,0,11,,,,,,,,,,,,,,,,15,,71,0
38939,note_on,,0,0,11,,,,,,,,,,,,,,,,15,,64,0
38939,note_on,,59,0,10,,,,,,,,,,,,,,,,13,,64,0
38939,note_on,,0,0,11,,,,,,,,,,,,,,,,15,,68,0
38939,note_on,,59,0,9,,,,,,,,,,,,,,,,12,,71,0
38940,note_on,,1,0,5,,,,,,,,,,,,,,,,2,,57,72
38940,note_on,,0,0,11,,,,,,,,,,,,,,,,15,,73,72
38940,note_on,,1,0,9,,,,,,,,,,,,,,,,12,,73,72
38940,note_on,,1,0,10,,,,,,,,,,,,,,,,13,,57,72
38940,note_on,,1,0,8,,,,,,,,,,,,,,,,11,,76,72
38940,note_on,,1,0,11,,,,,,,,,,,,,,,,15,,57,72
38940,note_on,,0,0,11,,,,,,,,,,,,,,,,15,,64,72
38969,note_on,,89,0,7,,,,,,,,,,,,,,,,10,,80,0
38970,note_on,,1,0,7,,,,,,,,,,,,,,,,10,,81,72
38999,note_on,,0,0,11,,,,,,,,,,,,,,,,15,,73,0
38999,note_on,,59,0,10,,,,,,,,,,,,,,,,13,,57,0
38999,note_on,,59,0,11,,,,,,,,,,,,,,,,15,,57,0
38999,note_on,,59,0,9,,,,,,,,,,,,,,,,12,,73,0
38999,note_on,,59,0,5,,,,,,,,,,,,,,,,2,,57,0
38999,note_on,,29,0,7,,,,,,,,,,,,,,,,10,,81,0
39000,note_on,,1,0,7,,,,,,,,,,,,,,,,10,,78,72
39000,note_on,,1,0,11,,,,,,,,,,,,,,,,15,,59,72
39000,note_on,,1,0,10,,,,,,,,,,,,,,,,13,,59,72
39000,note_on,,1,0,5,,,,,,,,,,,,,,,,2,,59,72
39000,note_on,,0,0,11,,,,,,,,,,,,,,,,15,,66,72
39000,note_on,,1,0,9,,,,,,,,,,,,,,,,12,,66,72
39014,note_on,,14,0,7,,,,,,,,,,,,,,,,10,,78,0
39015,note_on,,1,0,7,,,,,,,,,,,,,,,,10,,80,72
39029,note_on,,14,0,7,,,,,,,,,,,,,,,,10,,80,0
39030,note_on,,1,0,7,,,,,,,,,,,,,,,,10,,78,72
39044,note_on,,14,0,7,,,,,,,,,,,,,,,,10,,78,0
39045,note_on,,1,0,7,,,,,,,,,,,,,,,,10,,80,72
39059,note_on,,59,0,11,,,,,,,,,,,,,,,,15,,64,0
39059,note_on,,0,0,11,,,,,,,,,,,,,,,,15,,59,0
39059,note_on,,59,0,9,,,,,,,,,,,,,,,,12,,66,0
39059,note_on,,14,0,7,,,,,,,,,,,,,,,,10,,80,0
39059,note_on,,119,0,8,,,,,,,,,,,,,,,,11,,76,0
39059,note_on,,59,0,10,,,,,,,,,,,,,,,,13,,59,0
39059,note_on,,59,0,5,,,,,,,,,,,,,,,,2,,59,0
39060,note_on,,1,0,11,,,,,,,,,,,,,,,,15,,47,72
39060,note_on,,1,0,9,,,,,,,,,,,,,,,,12,,71,72
39060,note_on,,1,0,10,,,,,,,,,,,,,,,,13,,47,72
39060,note_on,,0,0,11,,,,,,,,,,,,,,,,15,,63,72
39060,note_on,,1,0,8,,,,,,,,,,,,,,,,11,,75,72
39060,note_on,,1,0,5,,,,,,,,,,,,,,,,2,,47,72
39060,note_on,,1,0,7,,,,,,,,,,,,,,,,10,,78,72
39074,note_on,,14,0,7,,,,,,,,,,,,,,,,10,,78,0
39075,note_on,,1,0,7,,,,,,,,,,,,,,,,10,,80,72
39089,note_on,,14,0,7,,,,,,,,,,,,,,,,10,,80,0
39090,note_on,,1,0,7,,,,,,,,,,,,,,,,10,,76,72
39104,note_on,,14,0,7,,,,,,,,,,,,,,,,10,,76,0
39105,note_on,,1,0,7,,,,,,,,,,,,,,,,10,,78,72
39119,note_on,,59,0,11,,,,,,,,,,,,,,,,15,,66,0
39119,note_on,,0,0,11,,,,,,,,,,,,,,,,15,,63,0
39119,note_on,,0,0,11,,,,,,,,,,,,,,,,15,,47,0
39119,note_on,,59,0,9,,,,,,,,,,,,,,,,12,,71,0
39119,note_on,,59,0,10,,,,,,,,,,,,,,,,13,,47,0
39119,note_on,,14,0,7,,,,,,,,,,,,,,,,10,,78,0
39119,note_on,,59,0,5,,,,,,,,,,,,,,,,2,,47,0
39119,note_on,,59,0,8,,,,,,,,,,,,,,,,11,,75,0
39120,note_on,,0,0,11,,,,,,,,,,,,,,,,15,,68,72
39120,note_on,,1,0,11,,,,,,,,,,,,,,,,15,,52,72
39120,note_on,,0,0,11,,,,,,,,,,,,,,,,15,,59,72
39120,note_on,,0,0,11,,,,,,,,,,,,,,,,15,,64,72
39120,note_on,,1,0,8,,,,,,,,,,,,,,,,11,,76,72
39120,note_on,,1,0,7,,,,,,,,,,,,,,,,10,,76,72
39120,note_on,,1,0,9,,,,,,,,,,,,,,,,12,,68,72
39120,note_on,,1,0,5,,,,,,,,,,,,,,,,2,,52,72
39120,note_on,,1,0,10,,,,,,,,,,,,,,,,13,,52,72
39239,note_on,,0,0,11,,,,,,,,,,,,,,,,15,,64,0
39239,note_on,,119,0,7,,,,,,,,,,,,,,,,10,,76,0
39239,note_on,,119,0,8,,,,,,,,,,,,,,,,11,,76,0
39239,note_on,,0,0,11,,,,,,,,,,,,,,,,15,,59,0
39239,note_on,,119,0,5,,,,,,,,,,,,,,,,2,,52,0
39239,note_on,,0,0,11,,,,,,,,,,,,,,,,15,,68,0
39239,note_on,,119,0,9,,,,,,,,,,,,,,,,12,,68,0
39239,note_on,,119,0,10,,,,,,,,,,,,,,,,13,,52,0
39239,note_on,,119,0,11,,,,,,,,,,,,,,,,15,,52,0
39300,note_on,,61,0,8,,,,,,,,,,,,,,,,11,,68,48
39300,note_on,,61,0,7,,,,,,,,,,,,,,,,10,,71,48
39359,note_on,,59,0,8,,,,,,,,,,,,,,,,11,,68,0
39359,note_on,,59,0,7,,,,,,,,,,,,,,,,10,,71,0
39360,note_on,,1,0,8,,,,,,,,,,,,,,,,11,,69,48
39360,note_on,,1,0,7,,,,,,,,,,,,,,,,10,,73,48
39419,note_on,,59,0,8,,,,,,,,,,,,,,,,11,,69,0
39419,note_on,,59,0,7,,,,,,,,,,,,,,,,10,,73,0
39420,note_on,,1,0,8,,,,,,,,,,,,,,,,11,,68,48
39420,note_on,,1,0,7,,,,,,,,,,,,,,,,10,,71,48
39479,note_on,,59,0,8,,,,,,,,,,,,,,,,11,,68,0
39479,note_on,,59,0,7,,,,,,,,,,,,,,,,10,,71,0
39480,note_on,,1,0,7,,,,,,,,,,,,,,,,10,,73,48
39480,note_on,,1,0,8,,,,,,,,,,,,,,,,11,,69,48
39539,note_on,,59,0,7,,,,,,,,,,,,,,,,10,,73,0
39539,note_on,,59,0,8,,,,,,,,,,,,,,,,11,,69,0
39540,note_on,,1,0,8,,,,,,,,,,,,,,,,11,,68,48
39540,note_on,,1,0,7,,,,,,,,,,,,,,,,10,,71,48
39599,note_on,,59,0,8,,,,,,,,,,,,,,,,11,,68,0
39599,note_on,,59,0,7,,,,,,,,,,,,,,,,10,,71,0
39600,note_on,,1,0,8,,,,,,,,,,,,,,,,11,,69,48
39600,note_on,,1,0,7,,,,,,,,,,,,,,,,10,,73,48
39659,note_on,,59,0,8,,,,,,,,,,,,,,,,11,,69,0
39659,note_on,,59,0,7,,,,,,,,,,,,,,,,10,,73,0
39660,note_on,,1,0,7,,,,,,,,,,,,,,,,10,,71,48
39660,note_on,,1,0,8,,,,,,,,,,,,,,,,11,,68,48
39719,note_on,,59,0,8,,,,,,,,,,,,,,,,11,,68,0
39719,note_on,,59,0,7,,,,,,,,,,,,,,,,10,,71,0
39720,note_on,,1,0,8,,,,,,,,,,,,,,,,11,,69,48
39720,note_on,,1,0,7,,,,,,,,,,,,,,,,10,,73,48
39779,note_on,,59,0,7,,,,,,,,,,,,,,,,10,,73,0
39779,note_on,,59,0,8,,,,,,,,,,,,,,,,11,,69,0
39780,note_on,,0,0,11,,,,,,,,,,,,,,,,15,,66,72
39780,note_on,,541,0,10,,,,,,,,,,,,,,,,13,,47,72
39780,note_on,,541,0,5,,,,,,,,,,,,,,,,2,,47,72
39780,note_on,,541,0,11,,,,,,,,,,,,,,,,15,,47,72
39780,note_on,,0,0,11,,,,,,,,,,,,,,,,15,,75,72
39780,note_on,,0,0,11,,,,,,,,,,,,,,,,15,,71,72
39780,note_on,,1,0,7,,,,,,,,,,,,,,,,10,,66,72
39780,note_on,,541,0,9,,,,,,,,,,,,,,,,12,,59,72
39780,note_on,,1,0,8,,,,,,,,,,,,,,,,11,,63,72
39839,note_on,,59,0,7,,,,,,,,,,,,,,,,10,,66,0
39839,note_on,,0,0,11,,,,,,,,,,,,,,,,15,,66,0
39839,note_on,,59,0,9,,,,,,,,,,,,,,,,12,,59,0
39839,note_on,,0,0,11,,,,,,,,,,,,,,,,15,,71,0
39839,note_on,,0,0,11,,,,,,,,,,,,,,,,15,,75,0
39839,note_on,,59,0,11,,,,,,,,,,,,,,,,15,,47,0
39839,note_on,,59,0,5,,,,,,,,,,,,,,,,2,,47,0
39839,note_on,,59,0,10,,,,,,,,,,,,,,,,13,,47,0
39839,note_on,,59,0,8,,,,,,,,,,,,,,,,11,,63,0
39840,note_on,,1,0,11,,,,,,,,,,,,,,,,15,,52,72
39840,note_on,,0,0,11,,,,,,,,,,,,,,,,15,,76,72
39840,note_on,,1,0,10,,,,,,,,,,,,,,,,13,,52,72
39840,note_on,,1,0,8,,,,,,,,,,,,,,,,11,,64,72
39840,note_on,,0,0,11,,,,,,,,,,,,,,,,15,,68,72
39840,note_on,,0,0,11,,,,,,,,,,,,,,,,15,,71,72
39840,note_on,,1,0,7,,,,,,,,,,,,,,,,10,,68,72
39840,note_on,,1,0,5,,,,,,,,,,,,,,,,2,,52,72
39840,note_on,,1,0,9,,,,,,,,,,,,,,,,12,,59,72
39899,note_on,,59,0,9,,,,,,,,,,,,,,,,12,,59,0
39899,note_on,,59,0,8,,,,,,,,,,,,,,,,11,,64,0
39899,note_on,,0,0,11,,,,,,,,,,,,,,,,15,,68,0
39899,note_on,,59,0,10,,,,,,,,,,,,,,,,13,,52,0
39899,note_on,,0,0,11,,,,,,,,,,,,,,,,15,,71,0
39899,note_on,,59,0,5,,,,,,,,,,,,,,,,2,,52,0
39899,note_on,,59,0,11,,,,,,,,,,,,,,,,15,,52,0
39900,note_on,,1,0,8,,,,,,,,,,,,,,,,11,,64,72
39900,note_on,,0,0,11,,,,,,,,,,,,,,,,15,,69,72
39900,note_on,,0,0,11,,,,,,,,,,,,,,,,15,,73,72
39900,note_on,,1,0,11,,,,,,,,,,,,,,,,15,,45,72
39900,note_on,,1,0,9,,,,,,,,,,,,,,,,12,,61,72
39900,note_on,,1,0,5,,,,,,,,,,,,,,,,2,,45,72
39900,note_on,,1,0,10,,,,,,,,,,,,,,,,13,,45,72
39929,note_on,,89,0,7,,,,,,,,,,,,,,,,10,,68,0
39930,note_on,,1,0,7,,,,,,,,,,,,,,,,10,,69,72
39959,note_on,,59,0,10,,,,,,,,,,,,,,,,13,,45,0
39959,note_on,,29,0,7,,,,,,,,,,,,,,,,10,,69,0
39959,note_on,,0,0,11,,,,,,,,,,,,,,,,15,,69,0
39959,note_on,,59,0,9,,,,,,,,,,,,,,,,12,,61,0
39959,note_on,,59,0,5,,,,,,,,,,,,,,,,2,,45,0
39959,note_on,,0,0,11,,,,,,,,,,,,,,,,15,,73,0
39959,note_on,,59,0,11,,,,,,,,,,,,,,,,15,,45,0
39960,note_on,,1,0,9,,,,,,,,,,,,,,,,12,,54,72
39960,note_on,,1,0,11,,,,,,,,,,,,,,,,15,,47,72
39960,note_on,,0,0,11,,,,,,,,,,,,,,,,15,,71,72
39960,note_on,,1,0,7,,,,,,,,,,,,,,,,10,,66,72
39960,note_on,,1,0,5,,,,,,,,,,,,,,,,2,,47,72
39960,note_on,,1,0,10,,,,,,,,,,,,,,,,13,,47,72
39960,note_on,,0,0,11,,,,,,,,,,,,,,,,15,,66,72
39974,note_on,,14,0,7,,,,,,,,,,,,,,,,10,,66,0
39975,note_on,,1,0,7,,,,,,,,,,,,,,,,10,,68,72
39989,note_on,,14,0,7,,,,,,,,,,,,,,,,10,,68,0
39990,note_on,,1,0,7,,,,,,,,,,,,,,,,10,,66,72
40004,note_on,,14,0,7,,,,,,,,,,,,,,,,10,,66,0
40005,note_on,,1,0,7,,,,,,,,,,,,,,,,10,,68,72
40019,note_on,,59,0,11,,,,,,,,,,,,,,,,15,,76,0
40019,note_on,,59,0,9,,,,,,,,,,,,,,,,12,,54,0
40019,note_on,,14,0,7,,,,,,,,,,,,,,,,10,,68,0
40019,note_on,,119,0,8,,,,,,,,,,,,,,,,11,,64,0
40020,note_on,,1,0,8,,,,,,,,,,,,,,,,11,,63,72
40020,note_on,,1,0,11,,,,,,,,,,,,,,,,15,,75,72
40020,note_on,,1,0,9,,,,,,,,,,,,,,,,12,,59,72
40020,note_on,,1,0,7,,,,,,,,,,,,,,,,10,,66,72
40034,note_on,,14,0,7,,,,,,,,,,,,,,,,10,,66,0
40035,note_on,,1,0,7,,,,,,,,,,,,,,,,10,,68,72
40049,note_on,,14,0,7,,,,,,,,,,,,,,,,10,,68,0
40050,note_on,,1,0,7,,,,,,,,,,,,,,,,10,,64,72
40064,note_on,,14,0,7,,,,,,,,,,,,,,,,10,,64,0
40065,note_on,,1,0,7,,,,,,,,,,,,,,,,10,,66,72
40079,note_on,,119,0,10,,,,,,,,,,,,,,,,13,,47,0
40079,note_on,,59,0,8,,,,,,,,,,,,,,,,11,,63,0
40079,note_on,,14,0,7,,,,,,,,,,,,,,,,10,,66,0
40079,note_on,,59,0,11,,,,,,,,,,,,,,,,15,,47,0
40079,note_on,,119,0,5,,,,,,,,,,,,,,,,2,,47,0
40079,note_on,,0,0,11,,,,,,,,,,,,,,,,15,,75,0
40079,note_on,,0,0,11,,,,,,,,,,,,,,,,15,,71,0
40079,note_on,,0,0,11,,,,,,,,,,,,,,,,15,,66,0
40079,note_on,,59,0,9,,,,,,,,,,,,,,,,12,,59,0
40080,note_on,,1,0,5,,,,,,,,,,,,,,,,2,,40,72
40080,note_on,,1,0,11,,,,,,,,,,,,,,,,15,,40,72
40080,note_on,,1,0,8,,,,,,,,,,,,,,,,11,,64,72
40080,note_on,,0,0,11,,,,,,,,,,,,,,,,15,,76,72
40080,note_on,,1,0,10,,,,,,,,,,,,,,,,13,,40,72
40080,note_on,,0,0,11,,,,,,,,,,,,,,,,15,,68,72
40080,note_on,,1,0,7,,,,,,,,,,,,,,,,10,,64,72
40080,note_on,,1,0,9,,,,,,,,,,,,,,,,12,,56,72
40080,note_on,,0,0,11,,,,,,,,,,,,,,,,15,,71,72
40199,note_on,,0,0,11,,,,,,,,,,,,,,,,15,,76,0
40199,note_on,,0,0,11,,,,,,,,,,,,,,,,15,,71,0
40199,note_on,,119,0,11,,,,,,,,,,,,,,,,15,,40,0
40199,note_on,,119,0,10,,,,,,,,,,,,,,,,13,,40,0
40199,note_on,,119,0,5,,,,,,,,,,,,,,,,2,,40,0
40199,end_of_track,,0,1,5,,,,,,,,,,,,,,,,,,,
40199,end_of_track,,0,1,10,,,,,,,,,,,,,,,,,,,
40199,note_on,,119,0,7,,,,,,,,,,,,,,,,10,,64,0
40199,end_of_track,,0,1,7,,,,,,,,,,,,,,,,,,,
40199,note_on,,119,0,8,,,,,,,,,,,,,,,,11,,64,0
40199,end_of_track,,0,1,8,,,,,,,,,,,,,,,,,,,
40199,note_on,,0,0,11,,,,,,,,,,,,,,,,15,,68,0
40199,note_on,,119,0,9,,,,,,,,,,,,,,,,12,,56,0
40199,end_of_track,,0,1,9,,,,,,,,,,,,,,,,,,,
40199,end_of_track,,0,1,11,,,,,,,,,,,,,,,,,,,
41040,end_of_track,,0,1,0,,,,,,,,,,,,,,,,,,,
41040,set_tempo,,5040,1,0,,,,,,,,,600000,,,,,,,,,,
