tick,type,data,time,meta,track,frame_rate,hours,minutes,seconds,frames,sub_frames,port,key,tempo,numerator,denominator,clocks_per_click,notated_32nd_notes_per_beat,control,value,channel,program,note,velocity
0,sequencer_specific,"(0, 0, 91, 35, 1, 0, 5, 4, 35, 0)",0,1,0,,,,,,,,,,,,,,,,,,,
0,note_on,,0,0,6,,,,,,,,,,,,,,,,1,,50,72
0,program_change,,0,0,11,,,,,,,,,,,,,,,,6,73,,
0,control_change,,0,0,11,,,,,,,,,,,,,,10,96,6,,,
0,control_change,,0,0,11,,,,,,,,,,,,,,7,96,6,,,
0,control_change,,0,0,11,,,,,,,,,,,,,,11,127,6,,,
0,midi_port,,0,1,11,,,,,,,0,,,,,,,,,,,,
0,track_name,,0,1,11,,,,,,,,,,,,,,,,,,,
0,track_name,,0,1,16,,,,,,,,,,,,,,,,,,,
0,midi_port,,0,1,16,,,,,,,0,,,,,,,,,,,,
0,control_change,,0,0,16,,,,,,,,,,,,,,11,127,12,,,
0,control_change,,0,0,16,,,,,,,,,,,,,,10,80,12,,,
0,control_change,,0,0,16,,,,,,,,,,,,,,7,96,12,,,
0,program_change,,0,0,6,,,,,,,,,,,,,,,,1,70,,
0,program_change,,0,0,16,,,,,,,,,,,,,,,,12,48,,
0,program_change,,0,0,10,,,,,,,,,,,,,,,,5,73,,
0,control_change,,0,0,10,,,,,,,,,,,,,,7,96,5,,,
0,control_change,,0,0,10,,,,,,,,,,,,,,10,32,5,,,
0,control_change,,0,0,10,,,,,,,,,,,,,,11,127,5,,,
0,track_name,,0,1,7,,,,,,,,,,,,,,,,,,,
0,midi_port,,0,1,7,,,,,,,0,,,,,,,,,,,,
0,control_change,,0,0,7,,,,,,,,,,,,,,11,127,2,,,
0,control_change,,0,0,7,,,,,,,,,,,,,,10,55,2,,,
0,control_change,,0,0,7,,,,,,,,,,,,,,7,104,2,,,
0,program_change,,0,0,7,,,,,,,,,,,,,,,,2,56,,
0,midi_port,,0,1,10,,,,,,,0,,,,,,,,,,,,
0,control_change,,0,0,13,,,,,,,,,,,,,,10,80,8,,,
0,note_on,,0,0,16,,,,,,,,,,,,,,,,12,,66,72
0,track_name,,0,1,17,,,,,,,,,,,,,,,,,,,
0,control_change,,0,0,6,,,,,,,,,,,,,,7,80,1,,,
0,control_change,,0,0,6,,,,,,,,,,,,,,11,127,1,,,
0,control_change,,0,0,13,,,,,,,,,,,,,,7,96,8,,,
0,control_change,,0,0,13,,,,,,,,,,,,,,11,127,8,,,
0,midi_port,,0,1,13,,,,,,,0,,,,,,,,,,,,
0,track_name,,0,1,13,,,,,,,,,,,,,,,,,,,
0,track_name,,0,1,14,,,,,,,,,,,,,,,,,,,
0,midi_port,,0,1,14,,,,,,,0,,,,,,,,,,,,
0,control_change,,0,0,14,,,,,,,,,,,,,,11,127,10,,,
0,control_change,,0,0,14,,,,,,,,,,,,,,10,48,10,,,
0,control_change,,0,0,14,,,,,,,,,,,,,,7,96,10,,,
0,program_change,,0,0,14,,,,,,,,,,,,,,,,10,48,,
0,note_on,,0,0,14,,,,,,,,,,,,,,,,10,,74,72
0,program_change,,0,0,12,,,,,,,,,,,,,,,,7,70,,
0,control_change,,0,0,6,,,,,,,,,,,,,,10,65,1,,,
0,control_change,,0,0,12,,,,,,,,,,,,,,7,96,7,,,
0,control_change,,0,0,12,,,,,,,,,,,,,,11,127,7,,,
0,midi_port,,0,1,12,,,,,,,0,,,,,,,,,,,,
0,track_name,,0,1,12,,,,,,,,,,,,,,,,,,,
0,track_name,,0,1,15,,,,,,,,,,,,,,,,,,,
0,midi_port,,0,1,15,,,,,,,0,,,,,,,,,,,,
0,control_change,,0,0,15,,,,,,,,,,,,,,11,127,11,,,
0,control_change,,0,0,15,,,,,,,,,,,,,,10,24,11,,,
0,control_change,,0,0,15,,,,,,,,,,,,,,7,96,11,,,
0,program_change,,0,0,15,,,,,,,,,,,,,,,,11,48,,
0,note_on,,0,0,15,,,,,,,,,,,,,,,,11,,69,72
0,track_name,,0,1,6,,,,,,,,,,,,,,,,,,,
0,midi_port,,0,1,6,,,,,,,0,,,,,,,,,,,,
0,control_change,,0,0,12,,,,,,,,,,,,,,10,48,7,,,
0,midi_port,,0,1,17,,,,,,,0,,,,,,,,,,,,
0,track_name,,0,1,10,,,,,,,,,,,,,,,,,,,
0,control_change,,0,0,17,,,,,,,,,,,,,,10,96,13,,,
0,note_on,,0,0,18,,,,,,,,,,,,,,,,15,,62,72
0,note_on,,0,0,18,,,,,,,,,,,,,,,,15,,57,72
0,program_change,,0,0,5,,,,,,,,,,,,,,,,0,68,,
0,control_change,,0,0,5,,,,,,,,,,,,,,7,72,0,,,
0,control_change,,0,0,5,,,,,,,,,,,,,,10,70,0,,,
0,control_change,,0,0,5,,,,,,,,,,,,,,11,127,0,,,
0,midi_port,,0,1,5,,,,,,,0,,,,,,,,,,,,
0,track_name,,0,1,5,,,,,,,,,,,,,,,,,,,
0,end_of_track,,0,1,4,,,,,,,,,,,,,,,,,,,
0,midi_port,,0,1,4,,,,,,,0,,,,,,,,,,,,
0,end_of_track,,0,1,3,,,,,,,,,,,,,,,,,,,
0,midi_port,,0,1,3,,,,,,,0,,,,,,,,,,,,
0,control_change,,0,0,17,,,,,,,,,,,,,,11,127,13,,,
0,track_name,,0,1,3,,,,,,,,,,,,,,,,,,,
0,midi_port,,0,1,2,,,,,,,0,,,,,,,,,,,,
0,track_name,,0,1,2,,,,,,,,,,,,,,,,,,,
0,end_of_track,,0,1,1,,,,,,,,,,,,,,,,,,,
0,midi_port,,0,1,1,,,,,,,0,,,,,,,,,,,,
0,track_name,,0,1,1,,,,,,,,,,,,,,,,,,,
0,time_signature,,0,1,0,,,,,,,,,,4,4,24,8,,,,,,
0,set_tempo,,0,1,0,,,,,,,,,545454,,,,,,,,,,
0,key_signature,,0,1,0,,,,,,,,D,,,,,,,,,,,
0,midi_port,,0,1,0,,,,,,,0,,,,,,,,,,,,
0,smpte_offset,,0,1,0,25,32,0,3,0,0,,,,,,,,,,,,,
0,instrument_name,,0,1,0,,,,,,,,,,,,,,,,,,,
0,track_name,,0,1,0,,,,,,,,,,,,,,,,,,,
0,end_of_track,,0,1,2,,,,,,,,,,,,,,,,,,,
0,note_on,,0,0,18,,,,,,,,,,,,,,,,15,,66,72
0,program_change,,0,0,13,,,,,,,,,,,,,,,,8,60,,
0,control_change,,0,0,9,,,,,,,,,,,,,,11,127,4,,,
0,midi_port,,0,1,8,,,,,,,0,,,,,,,,,,,,
0,control_change,,0,0,8,,,,,,,,,,,,,,11,127,3,,,
0,control_change,,0,0,8,,,,,,,,,,,,,,10,73,3,,,
0,control_change,,0,0,8,,,,,,,,,,,,,,7,104,3,,,
0,program_change,,0,0,8,,,,,,,,,,,,,,,,3,56,,
0,program_change,,0,0,9,,,,,,,,,,,,,,,,4,47,,
0,note_on,,0,0,17,,,,,,,,,,,,,,,,13,,50,72
0,note_on,,0,0,18,,,,,,,,,,,,,,,,15,,50,72
0,control_change,,0,0,9,,,,,,,,,,,,,,7,104,4,,,
0,control_change,,0,0,9,,,,,,,,,,,,,,10,25,4,,,
0,midi_port,,0,1,9,,,,,,,0,,,,,,,,,,,,
0,track_name,,0,1,8,,,,,,,,,,,,,,,,,,,
0,track_name,,0,1,18,,,,,,,,,,,,,,,,,,,
0,midi_port,,0,1,18,,,,,,,0,,,,,,,,,,,,
0,control_change,,0,0,18,,,,,,,,,,,,,,11,127,15,,,
0,program_change,,0,0,17,,,,,,,,,,,,,,,,13,48,,
0,control_change,,0,0,18,,,,,,,,,,,,,,10,90,15,,,
0,control_change,,0,0,18,,,,,,,,,,,,,,7,96,15,,,
0,program_change,,0,0,18,,,,,,,,,,,,,,,,15,6,,
0,control_change,,0,0,17,,,,,,,,,,,,,,7,96,13,,,
0,track_name,,0,1,9,,,,,,,,,,,,,,,,,,,
59,note_on,,59,0,16,,,,,,,,,,,,,,,,12,,66,0
59,note_on,,0,0,18,,,,,,,,,,,,,,,,15,,66,0
59,note_on,,59,0,18,,,,,,,,,,,,,,,,15,,50,0
59,note_on,,59,0,17,,,,,,,,,,,,,,,,13,,50,0
59,note_on,,59,0,6,,,,,,,,,,,,,,,,1,,50,0
60,note_on,,1,0,17,,,,,,,,,,,,,,,,13,,52,72
60,note_on,,1,0,16,,,,,,,,,,,,,,,,12,,67,72
60,note_on,,0,0,18,,,,,,,,,,,,,,,,15,,67,72
60,note_on,,1,0,18,,,,,,,,,,,,,,,,15,,52,72
60,note_on,,1,0,6,,,,,,,,,,,,,,,,1,,52,72
119,note_on,,59,0,18,,,,,,,,,,,,,,,,15,,52,0
119,note_on,,59,0,16,,,,,,,,,,,,,,,,12,,67,0
119,note_on,,59,0,17,,,,,,,,,,,,,,,,13,,52,0
119,note_on,,59,0,6,,,,,,,,,,,,,,,,1,,52,0
119,note_on,,0,0,18,,,,,,,,,,,,,,,,15,,67,0
120,note_on,,1,0,18,,,,,,,,,,,,,,,,15,,54,72
120,note_on,,0,0,18,,,,,,,,,,,,,,,,15,,69,72
120,note_on,,1,0,16,,,,,,,,,,,,,,,,12,,69,72
120,note_on,,1,0,6,,,,,,,,,,,,,,,,1,,54,72
120,note_on,,1,0,17,,,,,,,,,,,,,,,,13,,54,72
179,note_on,,59,0,18,,,,,,,,,,,,,,,,15,,62,0
179,note_on,,0,0,18,,,,,,,,,,,,,,,,15,,57,0
179,note_on,,0,0,18,,,,,,,,,,,,,,,,15,,54,0
179,note_on,,0,0,18,,,,,,,,,,,,,,,,15,,69,0
179,note_on,,59,0,16,,,,,,,,,,,,,,,,12,,69,0
179,note_on,,179,0,15,,,,,,,,,,,,,,,,11,,69,0
179,note_on,,59,0,6,,,,,,,,,,,,,,,,1,,54,0
179,note_on,,59,0,17,,,,,,,,,,,,,,,,13,,54,0
179,note_on,,179,0,14,,,,,,,,,,,,,,,,10,,74,0
180,note_on,,1,0,15,,,,,,,,,,,,,,,,11,,78,72
180,note_on,,1,0,6,,,,,,,,,,,,,,,,1,,50,72
180,note_on,,1,0,14,,,,,,,,,,,,,,,,10,,81,72
180,note_on,,1,0,16,,,,,,,,,,,,,,,,12,,62,72
180,note_on,,1,0,17,,,,,,,,,,,,,,,,13,,50,72
180,note_on,,0,0,18,,,,,,,,,,,,,,,,15,,66,72
180,note_on,,1,0,18,,,,,,,,,,,,,,,,15,,50,72
180,note_on,,0,0,18,,,,,,,,,,,,,,,,15,,74,72
180,note_on,,0,0,18,,,,,,,,,,,,,,,,15,,69,72
180,note_on,,0,0,18,,,,,,,,,,,,,,,,15,,54,72
239,note_on,,0,0,18,,,,,,,,,,,,,,,,15,,69,0
239,note_on,,0,0,18,,,,,,,,,,,,,,,,15,,74,0
239,note_on,,59,0,15,,,,,,,,,,,,,,,,11,,78,0
239,note_on,,0,0,18,,,,,,,,,,,,,,,,15,,54,0
239,note_on,,59,0,18,,,,,,,,,,,,,,,,15,,50,0
239,note_on,,59,0,16,,,,,,,,,,,,,,,,12,,62,0
239,note_on,,59,0,17,,,,,,,,,,,,,,,,13,,50,0
239,note_on,,59,0,6,,,,,,,,,,,,,,,,1,,50,0
239,note_on,,0,0,18,,,,,,,,,,,,,,,,15,,66,0
239,note_on,,59,0,14,,,,,,,,,,,,,,,,10,,81,0
240,note_on,,1,0,16,,,,,,,,,,,,,,,,12,,74,72
240,note_on,,1,0,6,,,,,,,,,,,,,,,,1,,55,72
240,note_on,,0,0,18,,,,,,,,,,,,,,,,15,,62,72
240,note_on,,1,0,17,,,,,,,,,,,,,,,,13,,55,72
240,note_on,,0,0,18,,,,,,,,,,,,,,,,15,,67,72
240,note_on,,1,0,15,,,,,,,,,,,,,,,,11,,79,72
240,note_on,,1,0,14,,,,,,,,,,,,,,,,10,,83,72
240,note_on,,1,0,18,,,,,,,,,,,,,,,,15,,55,72
240,note_on,,0,0,18,,,,,,,,,,,,,,,,15,,59,72
240,note_on,,0,0,18,,,,,,,,,,,,,,,,15,,74,72
299,note_on,,59,0,18,,,,,,,,,,,,,,,,15,,55,0
299,note_on,,0,0,18,,,,,,,,,,,,,,,,15,,59,0
299,note_on,,0,0,18,,,,,,,,,,,,,,,,15,,67,0
299,note_on,,59,0,6,,,,,,,,,,,,,,,,1,,55,0
299,note_on,,59,0,14,,,,,,,,,,,,,,,,10,,83,0
299,note_on,,59,0,16,,,,,,,,,,,,,,,,12,,74,0
299,note_on,,59,0,15,,,,,,,,,,,,,,,,11,,79,0
299,note_on,,59,0,17,,,,,,,,,,,,,,,,13,,55,0
300,note_on,,1,0,16,,,,,,,,,,,,,,,,12,,62,72
300,note_on,,1,0,15,,,,,,,,,,,,,,,,11,,78,72
300,note_on,,1,0,14,,,,,,,,,,,,,,,,10,,81,72
300,note_on,,1,0,17,,,,,,,,,,,,,,,,13,,50,72
300,note_on,,1,0,18,,,,,,,,,,,,,,,,15,,50,72
300,note_on,,0,0,18,,,,,,,,,,,,,,,,15,,57,72
300,note_on,,0,0,18,,,,,,,,,,,,,,,,15,,66,72
300,note_on,,1,0,6,,,,,,,,,,,,,,,,1,,50,72
359,note_on,,59,0,6,,,,,,,,,,,,,,,,1,,50,0
359,note_on,,59,0,17,,,,,,,,,,,,,,,,13,,50,0
359,note_on,,59,0,16,,,,,,,,,,,,,,,,12,,62,0
359,note_on,,59,0,18,,,,,,,,,,,,,,,,15,,74,0
359,note_on,,59,0,14,,,,,,,,,,,,,,,,10,,81,0
359,note_on,,0,0,18,,,,,,,,,,,,,,,,15,,50,0
359,note_on,,0,0,18,,,,,,,,,,,,,,,,15,,66,0
359,note_on,,59,0,15,,,,,,,,,,,,,,,,11,,78,0
360,note_on,,1,0,17,,,,,,,,,,,,,,,,13,,54,72
360,note_on,,1,0,18,,,,,,,,,,,,,,,,15,,54,72
360,note_on,,0,0,18,,,,,,,,,,,,,,,,15,,69,72
360,note_on,,1,0,6,,,,,,,,,,,,,,,,1,,54,72
419,note_on,,0,0,18,,,,,,,,,,,,,,,,15,,69,0
419,note_on,,59,0,6,,,,,,,,,,,,,,,,1,,54,0
419,note_on,,59,0,17,,,,,,,,,,,,,,,,13,,54,0
419,note_on,,0,0,18,,,,,,,,,,,,,,,,15,,54,0
419,note_on,,0,0,18,,,,,,,,,,,,,,,,15,,57,0
419,note_on,,59,0,18,,,,,,,,,,,,,,,,15,,62,0
420,note_on,,0,0,18,,,,,,,,,,,,,,,,15,,73,72
420,note_on,,0,0,18,,,,,,,,,,,,,,,,15,,69,72
420,note_on,,0,0,18,,,,,,,,,,,,,,,,15,,64,72
420,note_on,,1,0,6,,,,,,,,,,,,,,,,1,,57,72
420,note_on,,1,0,17,,,,,,,,,,,,,,,,13,,57,72
420,note_on,,1,0,18,,,,,,,,,,,,,,,,15,,57,72
479,note_on,,59,0,6,,,,,,,,,,,,,,,,1,,57,0
479,note_on,,59,0,18,,,,,,,,,,,,,,,,15,,57,0
479,note_on,,0,0,18,,,,,,,,,,,,,,,,15,,69,0
479,note_on,,59,0,17,,,,,,,,,,,,,,,,13,,57,0
479,note_on,,0,0,18,,,,,,,,,,,,,,,,15,,64,0
479,note_on,,0,0,18,,,,,,,,,,,,,,,,15,,73,0
480,note_on,,121,0,15,,,,,,,,,,,,,,,,11,,78,72
480,note_on,,121,0,14,,,,,,,,,,,,,,,,10,,86,72
480,note_on,,0,0,18,,,,,,,,,,,,,,,,15,,66,72
480,note_on,,121,0,16,,,,,,,,,,,,,,,,12,,69,72
480,note_on,,1,0,18,,,,,,,,,,,,,,,,15,,50,72
480,note_on,,1,0,6,,,,,,,,,,,,,,,,1,,50,72
480,note_on,,1,0,17,,,,,,,,,,,,,,,,13,,50,72
480,note_on,,0,0,18,,,,,,,,,,,,,,,,15,,57,72
480,note_on,,0,0,18,,,,,,,,,,,,,,,,15,,69,72
480,note_on,,0,0,18,,,,,,,,,,,,,,,,15,,74,72
539,note_on,,0,0,18,,,,,,,,,,,,,,,,15,,66,0
539,note_on,,59,0,6,,,,,,,,,,,,,,,,1,,50,0
539,note_on,,59,0,18,,,,,,,,,,,,,,,,15,,50,0
539,note_on,,59,0,17,,,,,,,,,,,,,,,,13,,50,0
540,note_on,,0,0,18,,,,,,,,,,,,,,,,15,,67,72
540,note_on,,1,0,18,,,,,,,,,,,,,,,,15,,52,72
540,note_on,,1,0,6,,,,,,,,,,,,,,,,1,,52,72
540,note_on,,1,0,17,,,,,,,,,,,,,,,,13,,52,72
599,note_on,,0,0,18,,,,,,,,,,,,,,,,15,,52,0
599,note_on,,0,0,18,,,,,,,,,,,,,,,,15,,69,0
599,note_on,,59,0,18,,,,,,,,,,,,,,,,15,,74,0
599,note_on,,59,0,6,,,,,,,,,,,,,,,,1,,52,0
599,note_on,,59,0,17,,,,,,,,,,,,,,,,13,,52,0
599,note_on,,0,0,18,,,,,,,,,,,,,,,,15,,67,0
599,note_on,,119,0,15,,,,,,,,,,,,,,,,11,,78,0
600,note_on,,0,0,18,,,,,,,,,,,,,,,,15,,62,72
600,note_on,,1,0,15,,,,,,,,,,,,,,,,11,,69,72
600,note_on,,1,0,18,,,,,,,,,,,,,,,,15,,54,72
600,note_on,,1,0,17,,,,,,,,,,,,,,,,13,,54,72
600,note_on,,0,0,18,,,,,,,,,,,,,,,,15,,69,72
600,note_on,,1,0,6,,,,,,,,,,,,,,,,1,,54,72
659,note_on,,59,0,18,,,,,,,,,,,,,,,,15,,57,0
659,note_on,,59,0,15,,,,,,,,,,,,,,,,11,,69,0
659,note_on,,59,0,17,,,,,,,,,,,,,,,,13,,54,0
659,note_on,,59,0,6,,,,,,,,,,,,,,,,1,,54,0
659,note_on,,0,0,18,,,,,,,,,,,,,,,,15,,54,0
659,note_on,,0,0,18,,,,,,,,,,,,,,,,15,,69,0
659,note_on,,0,0,18,,,,,,,,,,,,,,,,15,,62,0
659,note_on,,179,0,16,,,,,,,,,,,,,,,,12,,69,0
659,note_on,,179,0,14,,,,,,,,,,,,,,,,10,,86,0
660,note_on,,1,0,14,,,,,,,,,,,,,,,,10,,78,72
660,note_on,,1,0,17,,,,,,,,,,,,,,,,13,,50,72
660,note_on,,1,0,15,,,,,,,,,,,,,,,,11,,74,72
660,note_on,,1,0,18,,,,,,,,,,,,,,,,15,,50,72
660,note_on,,0,0,18,,,,,,,,,,,,,,,,15,,57,72
660,note_on,,0,0,18,,,,,,,,,,,,,,,,15,,74,72
660,note_on,,1,0,16,,,,,,,,,,,,,,,,12,,69,72
660,note_on,,1,0,6,,,,,,,,,,,,,,,,1,,50,72
660,note_on,,0,0,18,,,,,,,,,,,,,,,,15,,66,72
719,note_on,,59,0,16,,,,,,,,,,,,,,,,12,,69,0
719,note_on,,59,0,17,,,,,,,,,,,,,,,,13,,50,0
719,note_on,,0,0,18,,,,,,,,,,,,,,,,15,,66,0
719,note_on,,0,0,18,,,,,,,,,,,,,,,,15,,74,0
719,note_on,,0,0,18,,,,,,,,,,,,,,,,15,,57,0
719,note_on,,59,0,18,,,,,,,,,,,,,,,,15,,50,0
719,note_on,,59,0,14,,,,,,,,,,,,,,,,10,,78,0
719,note_on,,59,0,15,,,,,,,,,,,,,,,,11,,74,0
719,note_on,,59,0,6,,,,,,,,,,,,,,,,1,,50,0
720,note_on,,1,0,16,,,,,,,,,,,,,,,,12,,67,72
720,note_on,,0,0,18,,,,,,,,,,,,,,,,15,,73,72
720,note_on,,0,0,18,,,,,,,,,,,,,,,,15,,55,72
720,note_on,,1,0,18,,,,,,,,,,,,,,,,15,,52,72
720,note_on,,1,0,14,,,,,,,,,,,,,,,,10,,79,72
720,note_on,,0,0,18,,,,,,,,,,,,,,,,15,,67,72
720,note_on,,1,0,6,,,,,,,,,,,,,,,,1,,52,72
720,note_on,,1,0,15,,,,,,,,,,,,,,,,11,,73,72
720,note_on,,1,0,17,,,,,,,,,,,,,,,,13,,52,72
779,note_on,,0,0,18,,,,,,,,,,,,,,,,15,,55,0
779,note_on,,59,0,16,,,,,,,,,,,,,,,,12,,67,0
779,note_on,,0,0,18,,,,,,,,,,,,,,,,15,,73,0
779,note_on,,59,0,6,,,,,,,,,,,,,,,,1,,52,0
779,note_on,,59,0,15,,,,,,,,,,,,,,,,11,,73,0
779,note_on,,59,0,18,,,,,,,,,,,,,,,,15,,52,0
779,note_on,,0,0,18,,,,,,,,,,,,,,,,15,,67,0
779,note_on,,59,0,17,,,,,,,,,,,,,,,,13,,52,0
779,note_on,,59,0,14,,,,,,,,,,,,,,,,10,,79,0
780,note_on,,0,0,18,,,,,,,,,,,,,,,,15,,57,72
780,note_on,,1,0,18,,,,,,,,,,,,,,,,15,,50,72
780,note_on,,0,0,18,,,,,,,,,,,,,,,,15,,66,72
780,note_on,,1,0,14,,,,,,,,,,,,,,,,10,,78,72
780,note_on,,0,0,18,,,,,,,,,,,,,,,,15,,74,72
780,note_on,,1,0,16,,,,,,,,,,,,,,,,12,,69,72
780,note_on,,1,0,15,,,,,,,,,,,,,,,,11,,74,72
780,note_on,,1,0,17,,,,,,,,,,,,,,,,13,,50,72
780,note_on,,1,0,6,,,,,,,,,,,,,,,,1,,50,72
839,note_on,,59,0,16,,,,,,,,,,,,,,,,12,,69,0
839,note_on,,0,0,18,,,,,,,,,,,,,,,,15,,66,0
839,note_on,,0,0,18,,,,,,,,,,,,,,,,15,,74,0
839,note_on,,0,0,18,,,,,,,,,,,,,,,,15,,57,0
839,note_on,,59,0,18,,,,,,,,,,,,,,,,15,,50,0
839,note_on,,59,0,6,,,,,,,,,,,,,,,,1,,50,0
839,note_on,,59,0,17,,,,,,,,,,,,,,,,13,,50,0
839,note_on,,59,0,14,,,,,,,,,,,,,,,,10,,78,0
839,note_on,,59,0,15,,,,,,,,,,,,,,,,11,,74,0
900,note_on,,61,0,16,,,,,,,,,,,,,,,,12,,62,72
900,note_on,,61,0,17,,,,,,,,,,,,,,,,13,,54,72
900,note_on,,61,0,6,,,,,,,,,,,,,,,,1,,54,72
900,note_on,,61,0,15,,,,,,,,,,,,,,,,11,,69,72
900,note_on,,0,0,18,,,,,,,,,,,,,,,,15,,62,72
900,note_on,,61,0,18,,,,,,,,,,,,,,,,15,,54,72
900,note_on,,0,0,18,,,,,,,,,,,,,,,,15,,69,72
900,note_on,,61,0,14,,,,,,,,,,,,,,,,10,,81,72
900,note_on,,0,0,18,,,,,,,,,,,,,,,,15,,57,72
959,note_on,,59,0,18,,,,,,,,,,,,,,,,15,,54,0
959,note_on,,59,0,6,,,,,,,,,,,,,,,,1,,54,0
959,note_on,,59,0,15,,,,,,,,,,,,,,,,11,,69,0
959,note_on,,59,0,17,,,,,,,,,,,,,,,,13,,54,0
959,note_on,,0,0,18,,,,,,,,,,,,,,,,15,,57,0
959,note_on,,0,0,18,,,,,,,,,,,,,,,,15,,69,0
959,note_on,,0,0,18,,,,,,,,,,,,,,,,15,,62,0
959,note_on,,59,0,16,,,,,,,,,,,,,,,,12,,62,0
959,note_on,,59,0,14,,,,,,,,,,,,,,,,10,,81,0
960,note_on,,1,0,16,,,,,,,,,,,,,,,,12,,67,72
960,note_on,,1,0,15,,,,,,,,,,,,,,,,11,,73,72
960,note_on,,1,0,14,,,,,,,,,,,,,,,,10,,79,72
960,note_on,,1,0,6,,,,,,,,,,,,,,,,1,,52,72
960,note_on,,1,0,18,,,,,,,,,,,,,,,,15,,52,72
960,note_on,,0,0,18,,,,,,,,,,,,,,,,15,,73,72
960,note_on,,0,0,18,,,,,,,,,,,,,,,,15,,67,72
960,note_on,,1,0,17,,,,,,,,,,,,,,,,13,,52,72
960,note_on,,0,0,18,,,,,,,,,,,,,,,,15,,55,72
960,note_on,,0,0,18,,,,,,,,,,,,,,,,15,,64,72
1019,note_on,,0,0,18,,,,,,,,,,,,,,,,15,,67,0
1019,note_on,,59,0,16,,,,,,,,,,,,,,,,12,,67,0
1019,note_on,,59,0,17,,,,,,,,,,,,,,,,13,,52,0
1019,note_on,,0,0,18,,,,,,,,,,,,,,,,15,,64,0
1019,note_on,,0,0,18,,,,,,,,,,,,,,,,15,,73,0
1019,note_on,,59,0,14,,,,,,,,,,,,,,,,10,,79,0
1019,note_on,,59,0,15,,,,,,,,,,,,,,,,11,,73,0
1019,note_on,,0,0,18,,,,,,,,,,,,,,,,15,,55,0
1019,note_on,,59,0,6,,,,,,,,,,,,,,,,1,,52,0
1019,note_on,,59,0,18,,,,,,,,,,,,,,,,15,,52,0
1020,note_on,,1,0,6,,,,,,,,,,,,,,,,1,,50,72
1020,note_on,,1,0,17,,,,,,,,,,,,,,,,13,,50,72
1020,note_on,,1,0,16,,,,,,,,,,,,,,,,12,,69,72
1020,note_on,,1,0,15,,,,,,,,,,,,,,,,11,,74,72
1020,note_on,,0,0,18,,,,,,,,,,,,,,,,15,,50,72
1020,note_on,,1,0,18,,,,,,,,,,,,,,,,15,,69,72
1020,note_on,,0,0,18,,,,,,,,,,,,,,,,15,,74,72
1020,note_on,,0,0,18,,,,,,,,,,,,,,,,15,,66,72
1020,note_on,,0,0,18,,,,,,,,,,,,,,,,15,,54,72
1020,note_on,,1,0,14,,,,,,,,,,,,,,,,10,,78,72
1079,note_on,,59,0,14,,,,,,,,,,,,,,,,10,,78,0
1079,note_on,,59,0,6,,,,,,,,,,,,,,,,1,,50,0
1079,note_on,,59,0,16,,,,,,,,,,,,,,,,12,,69,0
1079,note_on,,59,0,17,,,,,,,,,,,,,,,,13,,50,0
1079,note_on,,59,0,18,,,,,,,,,,,,,,,,15,,69,0
1079,note_on,,0,0,18,,,,,,,,,,,,,,,,15,,54,0
1079,note_on,,0,0,18,,,,,,,,,,,,,,,,15,,50,0
1079,note_on,,0,0,18,,,,,,,,,,,,,,,,15,,66,0
1080,note_on,,1,0,16,,,,,,,,,,,,,,,,12,,69,72
1080,note_on,,0,0,18,,,,,,,,,,,,,,,,15,,69,72
1080,note_on,,0,0,18,,,,,,,,,,,,,,,,15,,64,72
1080,note_on,,1,0,17,,,,,,,,,,,,,,,,13,,57,72
1080,note_on,,1,0,14,,,,,,,,,,,,,,,,10,,76,72
1080,note_on,,1,0,18,,,,,,,,,,,,,,,,15,,57,72
1080,note_on,,1,0,6,,,,,,,,,,,,,,,,1,,57,72
1139,note_on,,59,0,18,,,,,,,,,,,,,,,,15,,74,0
1139,note_on,,59,0,17,,,,,,,,,,,,,,,,13,,57,0
1139,note_on,,119,0,15,,,,,,,,,,,,,,,,11,,74,0
1139,note_on,,59,0,16,,,,,,,,,,,,,,,,12,,69,0
1139,note_on,,59,0,6,,,,,,,,,,,,,,,,1,,57,0
1140,note_on,,1,0,17,,,,,,,,,,,,,,,,13,,45,72
1140,note_on,,1,0,16,,,,,,,,,,,,,,,,12,,64,72
1140,note_on,,1,0,15,,,,,,,,,,,,,,,,11,,73,72
1140,note_on,,1,0,6,,,,,,,,,,,,,,,,1,,45,72
1140,note_on,,0,0,18,,,,,,,,,,,,,,,,15,,73,72
1140,note_on,,1,0,18,,,,,,,,,,,,,,,,15,,45,72
1199,note_on,,59,0,17,,,,,,,,,,,,,,,,13,,45,0
1199,note_on,,119,0,14,,,,,,,,,,,,,,,,10,,76,0
1199,note_on,,59,0,6,,,,,,,,,,,,,,,,1,,45,0
1199,note_on,,59,0,18,,,,,,,,,,,,,,,,15,,57,0
1199,note_on,,0,0,18,,,,,,,,,,,,,,,,15,,64,0
1199,note_on,,0,0,18,,,,,,,,,,,,,,,,15,,45,0
1199,note_on,,0,0,18,,,,,,,,,,,,,,,,15,,73,0
1199,note_on,,59,0,15,,,,,,,,,,,,,,,,11,,73,0
1199,note_on,,59,0,16,,,,,,,,,,,,,,,,12,,64,0
1199,note_on,,0,0,18,,,,,,,,,,,,,,,,15,,69,0
1200,note_on,,1,0,17,,,,,,,,,,,,,,,,13,,50,72
1200,note_on,,1,0,6,,,,,,,,,,,,,,,,1,,50,72
1200,note_on,,0,0,18,,,,,,,,,,,,,,,,15,,74,72
1200,note_on,,0,0,18,,,,,,,,,,,,,,,,15,,66,72
1200,note_on,,0,0,18,,,,,,,,,,,,,,,,15,,69,72
1200,note_on,,0,0,18,,,,,,,,,,,,,,,,15,,57,72
1200,note_on,,1,0,18,,,,,,,,,,,,,,,,15,,50,72
1200,note_on,,1,0,15,,,,,,,,,,,,,,,,11,,74,72
1200,note_on,,1,0,16,,,,,,,,,,,,,,,,12,,66,72
1200,note_on,,1,0,14,,,,,,,,,,,,,,,,10,,74,72
1259,note_on,,59,0,15,,,,,,,,,,,,,,,,11,,74,0
1259,note_on,,59,0,14,,,,,,,,,,,,,,,,10,,74,0
1260,note_on,,1,0,15,,,,,,,,,,,,,,,,11,,66,72
1260,note_on,,1,0,14,,,,,,,,,,,,,,,,10,,69,72
1319,note_on,,0,0,18,,,,,,,,,,,,,,,,15,,69,0
1319,note_on,,119,0,16,,,,,,,,,,,,,,,,12,,66,0
1319,note_on,,119,0,18,,,,,,,,,,,,,,,,15,,50,0
1319,note_on,,0,0,18,,,,,,,,,,,,,,,,15,,57,0
1319,note_on,,0,0,18,,,,,,,,,,,,,,,,15,,74,0
1319,note_on,,59,0,14,,,,,,,,,,,,,,,,10,,69,0
1319,note_on,,59,0,15,,,,,,,,,,,,,,,,11,,66,0
1319,note_on,,0,0,18,,,,,,,,,,,,,,,,15,,66,0
1319,note_on,,119,0,17,,,,,,,,,,,,,,,,13,,50,0
1319,note_on,,119,0,6,,,,,,,,,,,,,,,,1,,50,0
1320,note_on,,1,0,15,,,,,,,,,,,,,,,,11,,67,72
1320,note_on,,1,0,14,,,,,,,,,,,,,,,,10,,71,72
1379,note_on,,59,0,14,,,,,,,,,,,,,,,,10,,71,0
1379,note_on,,59,0,15,,,,,,,,,,,,,,,,11,,67,0
1380,note_on,,1,0,14,,,,,,,,,,,,,,,,10,,73,72
1380,note_on,,1,0,15,,,,,,,,,,,,,,,,11,,64,72
1439,note_on,,59,0,14,,,,,,,,,,,,,,,,10,,73,0
1439,note_on,,59,0,15,,,,,,,,,,,,,,,,11,,64,0
1440,note_on,,121,0,18,,,,,,,,,,,,,,,,15,,50,72
1440,note_on,,1440,0,5,,,,,,,,,,,,,,,,0,,74,72
1440,note_on,,0,0,18,,,,,,,,,,,,,,,,15,,62,72
1440,note_on,,121,0,6,,,,,,,,,,,,,,,,1,,50,72
1440,note_on,,121,0,17,,,,,,,,,,,,,,,,13,,50,72
1440,note_on,,0,0,18,,,,,,,,,,,,,,,,15,,66,72
1440,note_on,,1440,0,12,,,,,,,,,,,,,,,,7,,66,72
1440,note_on,,1440,0,11,,,,,,,,,,,,,,,,6,,69,72
1440,note_on,,1440,0,13,,,,,,,,,,,,,,,,8,,50,72
1440,note_on,,0,0,18,,,,,,,,,,,,,,,,15,,57,72
1440,note_on,,1,0,14,,,,,,,,,,,,,,,,10,,74,72
1440,note_on,,1440,0,10,,,,,,,,,,,,,,,,5,,74,72
1440,note_on,,1,0,15,,,,,,,,,,,,,,,,11,,66,72
1499,note_on,,59,0,6,,,,,,,,,,,,,,,,1,,50,0
1499,note_on,,59,0,17,,,,,,,,,,,,,,,,13,,50,0
1499,note_on,,59,0,18,,,,,,,,,,,,,,,,15,,50,0
1499,note_on,,0,0,18,,,,,,,,,,,,,,,,15,,66,0
1500,note_on,,1,0,6,,,,,,,,,,,,,,,,1,,50,72
1500,note_on,,0,0,18,,,,,,,,,,,,,,,,15,,66,72
1500,note_on,,1,0,17,,,,,,,,,,,,,,,,13,,50,72
1500,note_on,,1,0,18,,,,,,,,,,,,,,,,15,,50,72
1559,note_on,,59,0,18,,,,,,,,,,,,,,,,15,,50,0
1559,note_on,,0,0,18,,,,,,,,,,,,,,,,15,,66,0
1559,note_on,,59,0,6,,,,,,,,,,,,,,,,1,,50,0
1559,note_on,,59,0,17,,,,,,,,,,,,,,,,13,,50,0
1559,note_on,,119,0,15,,,,,,,,,,,,,,,,11,,66,0
1559,note_on,,119,0,14,,,,,,,,,,,,,,,,10,,74,0
1560,note_on,,1,0,18,,,,,,,,,,,,,,,,15,,52,72
1560,note_on,,1,0,6,,,,,,,,,,,,,,,,1,,52,72
1560,note_on,,0,0,18,,,,,,,,,,,,,,,,15,,67,72
1560,note_on,,1,0,17,,,,,,,,,,,,,,,,13,,52,72
1619,note_on,,59,0,6,,,,,,,,,,,,,,,,1,,52,0
1619,note_on,,179,0,11,,,,,,,,,,,,,,,,6,,69,0
1619,note_on,,179,0,13,,,,,,,,,,,,,,,,8,,50,0
1619,note_on,,179,0,5,,,,,,,,,,,,,,,,0,,74,0
1619,note_on,,179,0,10,,,,,,,,,,,,,,,,5,,74,0
1619,note_on,,179,0,12,,,,,,,,,,,,,,,,7,,66,0
1619,note_on,,59,0,17,,,,,,,,,,,,,,,,13,,52,0
1619,note_on,,0,0,18,,,,,,,,,,,,,,,,15,,67,0
1619,note_on,,59,0,18,,,,,,,,,,,,,,,,15,,62,0
1619,note_on,,0,0,18,,,,,,,,,,,,,,,,15,,52,0
1619,note_on,,0,0,18,,,,,,,,,,,,,,,,15,,57,0
1620,note_on,,0,0,18,,,,,,,,,,,,,,,,15,,69,72
1620,note_on,,1,0,18,,,,,,,,,,,,,,,,15,,54,72
1620,note_on,,1,0,10,,,,,,,,,,,,,,,,5,,69,72
1620,note_on,,1,0,12,,,,,,,,,,,,,,,,7,,62,72
1620,note_on,,1,0,13,,,,,,,,,,,,,,,,8,,54,72
1620,note_on,,0,0,18,,,,,,,,,,,,,,,,15,,62,72
1620,note_on,,0,0,18,,,,,,,,,,,,,,,,15,,57,72
1620,note_on,,1,0,11,,,,,,,,,,,,,,,,6,,69,72
1620,note_on,,1,0,6,,,,,,,,,,,,,,,,1,,54,72
1620,note_on,,1,0,5,,,,,,,,,,,,,,,,0,,69,72
1620,note_on,,1,0,17,,,,,,,,,,,,,,,,13,,54,72
1679,note_on,,59,0,10,,,,,,,,,,,,,,,,5,,69,0
1679,note_on,,59,0,17,,,,,,,,,,,,,,,,13,,54,0
1679,note_on,,0,0,18,,,,,,,,,,,,,,,,15,,57,0
1679,note_on,,0,0,18,,,,,,,,,,,,,,,,15,,62,0
1679,note_on,,59,0,6,,,,,,,,,,,,,,,,1,,54,0
1679,note_on,,59,0,5,,,,,,,,,,,,,,,,0,,69,0
1679,note_on,,59,0,13,,,,,,,,,,,,,,,,8,,54,0
1679,note_on,,59,0,11,,,,,,,,,,,,,,,,6,,69,0
1679,note_on,,59,0,12,,,,,,,,,,,,,,,,7,,62,0
1679,note_on,,0,0,18,,,,,,,,,,,,,,,,15,,69,0
1679,note_on,,59,0,18,,,,,,,,,,,,,,,,15,,54,0
1680,note_on,,0,0,18,,,,,,,,,,,,,,,,15,,62,72
1680,note_on,,121,0,15,,,,,,,,,,,,,,,,11,,62,72
1680,note_on,,1,0,12,,,,,,,,,,,,,,,,7,,62,72
1680,note_on,,1,0,13,,,,,,,,,,,,,,,,8,,55,72
1680,note_on,,0,0,18,,,,,,,,,,,,,,,,15,,59,72
1680,note_on,,0,0,18,,,,,,,,,,,,,,,,15,,67,72
1680,note_on,,361,0,16,,,,,,,,,,,,,,,,12,,62,72
1680,note_on,,1,0,5,,,,,,,,,,,,,,,,0,,71,72
1680,note_on,,1,0,18,,,,,,,,,,,,,,,,15,,55,72
1680,note_on,,121,0,14,,,,,,,,,,,,,,,,10,,74,72
1680,note_on,,1,0,17,,,,,,,,,,,,,,,,13,,55,72
1680,note_on,,1,0,11,,,,,,,,,,,,,,,,6,,67,72
1680,note_on,,1,0,10,,,,,,,,,,,,,,,,5,,71,72
1680,note_on,,1,0,6,,,,,,,,,,,,,,,,1,,55,72
1739,note_on,,59,0,12,,,,,,,,,,,,,,,,7,,62,0
1739,note_on,,0,0,18,,,,,,,,,,,,,,,,15,,62,0
1739,note_on,,0,0,18,,,,,,,,,,,,,,,,15,,59,0
1739,note_on,,59,0,11,,,,,,,,,,,,,,,,6,,67,0
1739,note_on,,59,0,13,,,,,,,,,,,,,,,,8,,55,0
1739,note_on,,59,0,10,,,,,,,,,,,,,,,,5,,71,0
1739,note_on,,59,0,6,,,,,,,,,,,,,,,,1,,55,0
1739,note_on,,59,0,17,,,,,,,,,,,,,,,,13,,55,0
1739,note_on,,59,0,18,,,,,,,,,,,,,,,,15,,55,0
1739,note_on,,0,0,18,,,,,,,,,,,,,,,,15,,67,0
1739,note_on,,59,0,5,,,,,,,,,,,,,,,,0,,71,0
1740,note_on,,1,0,6,,,,,,,,,,,,,,,,1,,50,72
1740,note_on,,1,0,17,,,,,,,,,,,,,,,,13,,50,72
1740,note_on,,1,0,13,,,,,,,,,,,,,,,,8,,50,72
1740,note_on,,1,0,5,,,,,,,,,,,,,,,,0,,69,72
1740,note_on,,1,0,12,,,,,,,,,,,,,,,,7,,62,72
1740,note_on,,0,0,18,,,,,,,,,,,,,,,,15,,57,72
1740,note_on,,0,0,18,,,,,,,,,,,,,,,,15,,62,72
1740,note_on,,0,0,18,,,,,,,,,,,,,,,,15,,66,72
1740,note_on,,1,0,18,,,,,,,,,,,,,,,,15,,50,72
1740,note_on,,1,0,11,,,,,,,,,,,,,,,,6,,66,72
1740,note_on,,1,0,10,,,,,,,,,,,,,,,,5,,69,72
1799,note_on,,59,0,11,,,,,,,,,,,,,,,,6,,66,0
1799,note_on,,59,0,12,,,,,,,,,,,,,,,,7,,62,0
1799,note_on,,59,0,5,,,,,,,,,,,,,,,,0,,69,0
1799,note_on,,59,0,13,,,,,,,,,,,,,,,,8,,50,0
1799,note_on,,59,0,10,,,,,,,,,,,,,,,,5,,69,0
1799,note_on,,0,0,18,,,,,,,,,,,,,,,,15,,57,0
1799,note_on,,0,0,18,,,,,,,,,,,,,,,,15,,62,0
1799,note_on,,0,0,18,,,,,,,,,,,,,,,,15,,66,0
1799,note_on,,59,0,6,,,,,,,,,,,,,,,,1,,50,0
1799,note_on,,59,0,18,,,,,,,,,,,,,,,,15,,50,0
1799,note_on,,59,0,17,,,,,,,,,,,,,,,,13,,50,0
1859,note_on,,179,0,16,,,,,,,,,,,,,,,,12,,62,0
1859,note_on,,179,0,15,,,,,,,,,,,,,,,,11,,62,0
1859,note_on,,179,0,14,,,,,,,,,,,,,,,,10,,74,0
1860,note_on,,1,0,15,,,,,,,,,,,,,,,,11,,66,72
1860,note_on,,1,0,14,,,,,,,,,,,,,,,,10,,69,72
1860,note_on,,1,0,16,,,,,,,,,,,,,,,,12,,62,72
1919,note_on,,59,0,15,,,,,,,,,,,,,,,,11,,66,0
1919,note_on,,59,0,16,,,,,,,,,,,,,,,,12,,62,0
1919,note_on,,59,0,14,,,,,,,,,,,,,,,,10,,69,0
1920,note_on,,121,0,17,,,,,,,,,,,,,,,,13,,50,72
1920,note_on,,121,0,12,,,,,,,,,,,,,,,,7,,66,72
1920,note_on,,121,0,6,,,,,,,,,,,,,,,,1,,50,72
1920,note_on,,1,0,15,,,,,,,,,,,,,,,,11,,62,72
1920,note_on,,0,0,18,,,,,,,,,,,,,,,,15,,62,72
1920,note_on,,0,0,18,,,,,,,,,,,,,,,,15,,66,72
1920,note_on,,1,0,14,,,,,,,,,,,,,,,,10,,66,72
1920,note_on,,121,0,5,,,,,,,,,,,,,,,,0,,74,72
1920,note_on,,121,0,18,,,,,,,,,,,,,,,,15,,50,72
1920,note_on,,0,0,18,,,,,,,,,,,,,,,,15,,57,72
1920,note_on,,1,0,16,,,,,,,,,,,,,,,,12,,57,72
1920,note_on,,121,0,11,,,,,,,,,,,,,,,,6,,69,72
1920,note_on,,121,0,10,,,,,,,,,,,,,,,,5,,74,72
1920,note_on,,0,0,18,,,,,,,,,,,,,,,,15,,69,72
1920,note_on,,121,0,13,,,,,,,,,,,,,,,,8,,50,72
1979,note_on,,59,0,18,,,,,,,,,,,,,,,,15,,50,0
1979,note_on,,59,0,15,,,,,,,,,,,,,,,,11,,62,0
1979,note_on,,59,0,6,,,,,,,,,,,,,,,,1,,50,0
1979,note_on,,59,0,17,,,,,,,,,,,,,,,,13,,50,0
1979,note_on,,59,0,14,,,,,,,,,,,,,,,,10,,66,0
1979,note_on,,0,0,18,,,,,,,,,,,,,,,,15,,66,0
1979,note_on,,59,0,16,,,,,,,,,,,,,,,,12,,57,0
1980,note_on,,1,0,18,,,,,,,,,,,,,,,,15,,50,72
1980,note_on,,0,0,18,,,,,,,,,,,,,,,,15,,66,72
1980,note_on,,1,0,16,,,,,,,,,,,,,,,,12,,54,72
1980,note_on,,1,0,15,,,,,,,,,,,,,,,,11,,57,72
1980,note_on,,1,0,6,,,,,,,,,,,,,,,,1,,50,72
1980,note_on,,1,0,17,,,,,,,,,,,,,,,,13,,50,72
1980,note_on,,1,0,14,,,,,,,,,,,,,,,,10,,62,72
2039,note_on,,59,0,17,,,,,,,,,,,,,,,,13,,50,0
2039,note_on,,59,0,18,,,,,,,,,,,,,,,,15,,50,0
2039,note_on,,0,0,18,,,,,,,,,,,,,,,,15,,66,0
2039,note_on,,59,0,6,,,,,,,,,,,,,,,,1,,50,0
2039,note_on,,59,0,15,,,,,,,,,,,,,,,,11,,57,0
2039,note_on,,59,0,16,,,,,,,,,,,,,,,,12,,54,0
2039,note_on,,59,0,14,,,,,,,,,,,,,,,,10,,62,0
2040,note_on,,0,0,18,,,,,,,,,,,,,,,,15,,67,72
2040,note_on,,1,0,18,,,,,,,,,,,,,,,,15,,52,72
2040,note_on,,1,0,17,,,,,,,,,,,,,,,,13,,52,72
2040,note_on,,1,0,6,,,,,,,,,,,,,,,,1,,52,72
2099,note_on,,59,0,18,,,,,,,,,,,,,,,,15,,69,0
2099,note_on,,0,0,18,,,,,,,,,,,,,,,,15,,57,0
2099,note_on,,0,0,18,,,,,,,,,,,,,,,,15,,62,0
2099,note_on,,59,0,17,,,,,,,,,,,,,,,,13,,52,0
2099,note_on,,59,0,6,,,,,,,,,,,,,,,,1,,52,0
2099,note_on,,179,0,10,,,,,,,,,,,,,,,,5,,74,0
2099,note_on,,0,0,18,,,,,,,,,,,,,,,,15,,67,0
2099,note_on,,0,0,18,,,,,,,,,,,,,,,,15,,52,0
2099,note_on,,179,0,5,,,,,,,,,,,,,,,,0,,74,0
2099,note_on,,179,0,12,,,,,,,,,,,,,,,,7,,66,0
2099,note_on,,179,0,13,,,,,,,,,,,,,,,,8,,50,0
2099,note_on,,179,0,11,,,,,,,,,,,,,,,,6,,69,0
2100,note_on,,0,0,18,,,,,,,,,,,,,,,,15,,54,72
2100,note_on,,0,0,18,,,,,,,,,,,,,,,,15,,74,72
2100,note_on,,1,0,6,,,,,,,,,,,,,,,,1,,54,72
2100,note_on,,1,0,17,,,,,,,,,,,,,,,,13,,54,72
2100,note_on,,1,0,18,,,,,,,,,,,,,,,,15,,62,72
2100,note_on,,0,0,18,,,,,,,,,,,,,,,,15,,69,72
2100,note_on,,0,0,18,,,,,,,,,,,,,,,,15,,57,72
2100,note_on,,1,0,13,,,,,,,,,,,,,,,,8,,54,72
2100,note_on,,1,0,10,,,,,,,,,,,,,,,,5,,69,72
2100,note_on,,1,0,5,,,,,,,,,,,,,,,,0,,69,72
2100,note_on,,1,0,11,,,,,,,,,,,,,,,,6,,69,72
2100,note_on,,1,0,12,,,,,,,,,,,,,,,,7,,66,72
2159,note_on,,59,0,10,,,,,,,,,,,,,,,,5,,69,0
2159,note_on,,0,0,18,,,,,,,,,,,,,,,,15,,74,0
2159,note_on,,59,0,5,,,,,,,,,,,,,,,,0,,69,0
2159,note_on,,59,0,18,,,,,,,,,,,,,,,,15,,62,0
2159,note_on,,0,0,18,,,,,,,,,,,,,,,,15,,54,0
2159,note_on,,59,0,11,,,,,,,,,,,,,,,,6,,69,0
2159,note_on,,59,0,17,,,,,,,,,,,,,,,,13,,54,0
2159,note_on,,59,0,6,,,,,,,,,,,,,,,,1,,54,0
2159,note_on,,59,0,12,,,,,,,,,,,,,,,,7,,66,0
2159,note_on,,0,0,18,,,,,,,,,,,,,,,,15,,57,0
2159,note_on,,0,0,18,,,,,,,,,,,,,,,,15,,69,0
2159,note_on,,59,0,13,,,,,,,,,,,,,,,,8,,54,0
2160,note_on,,0,0,18,,,,,,,,,,,,,,,,15,,62,72
2160,note_on,,0,0,18,,,,,,,,,,,,,,,,15,,67,72
2160,note_on,,1,0,13,,,,,,,,,,,,,,,,8,,55,72
2160,note_on,,121,0,14,,,,,,,,,,,,,,,,10,,86,72
2160,note_on,,1,0,5,,,,,,,,,,,,,,,,0,,71,72
2160,note_on,,121,0,15,,,,,,,,,,,,,,,,11,,74,72
2160,note_on,,0,0,18,,,,,,,,,,,,,,,,15,,74,72
2160,note_on,,1,0,6,,,,,,,,,,,,,,,,1,,55,72
2160,note_on,,1,0,18,,,,,,,,,,,,,,,,15,,55,72
2160,note_on,,1,0,17,,,,,,,,,,,,,,,,13,,55,72
2160,note_on,,1,0,12,,,,,,,,,,,,,,,,7,,62,72
2160,note_on,,1,0,10,,,,,,,,,,,,,,,,5,,71,72
2160,note_on,,1,0,11,,,,,,,,,,,,,,,,6,,67,72
2160,note_on,,121,0,16,,,,,,,,,,,,,,,,12,,62,72
2160,note_on,,0,0,18,,,,,,,,,,,,,,,,15,,59,72
2219,note_on,,0,0,18,,,,,,,,,,,,,,,,15,,67,0
2219,note_on,,0,0,18,,,,,,,,,,,,,,,,15,,62,0
2219,note_on,,59,0,5,,,,,,,,,,,,,,,,0,,71,0
2219,note_on,,0,0,18,,,,,,,,,,,,,,,,15,,59,0
2219,note_on,,59,0,18,,,,,,,,,,,,,,,,15,,55,0
2219,note_on,,0,0,18,,,,,,,,,,,,,,,,15,,74,0
2219,note_on,,59,0,10,,,,,,,,,,,,,,,,5,,71,0
2219,note_on,,59,0,17,,,,,,,,,,,,,,,,13,,55,0
2219,note_on,,59,0,13,,,,,,,,,,,,,,,,8,,55,0
2219,note_on,,59,0,11,,,,,,,,,,,,,,,,6,,67,0
2219,note_on,,59,0,12,,,,,,,,,,,,,,,,7,,62,0
2219,note_on,,59,0,6,,,,,,,,,,,,,,,,1,,55,0
2220,note_on,,1,0,10,,,,,,,,,,,,,,,,5,,69,72
2220,note_on,,1,0,13,,,,,,,,,,,,,,,,8,,50,72
2220,note_on,,1,0,5,,,,,,,,,,,,,,,,0,,69,72
2220,note_on,,1,0,17,,,,,,,,,,,,,,,,13,,50,72
2220,note_on,,1,0,6,,,,,,,,,,,,,,,,1,,50,72
2220,note_on,,1,0,18,,,,,,,,,,,,,,,,15,,50,72
2220,note_on,,0,0,18,,,,,,,,,,,,,,,,15,,57,72
2220,note_on,,0,0,18,,,,,,,,,,,,,,,,15,,74,72
2220,note_on,,0,0,18,,,,,,,,,,,,,,,,15,,66,72
2220,note_on,,0,0,18,,,,,,,,,,,,,,,,15,,62,72
2220,note_on,,1,0,11,,,,,,,,,,,,,,,,6,,66,72
2220,note_on,,1,0,12,,,,,,,,,,,,,,,,7,,62,72
2279,note_on,,59,0,12,,,,,,,,,,,,,,,,7,,62,0
2279,note_on,,59,0,11,,,,,,,,,,,,,,,,6,,66,0
2279,note_on,,59,0,10,,,,,,,,,,,,,,,,5,,69,0
2279,note_on,,0,0,18,,,,,,,,,,,,,,,,15,,62,0
2279,note_on,,59,0,17,,,,,,,,,,,,,,,,13,,50,0
2279,note_on,,59,0,13,,,,,,,,,,,,,,,,8,,50,0
2279,note_on,,59,0,5,,,,,,,,,,,,,,,,0,,69,0
2279,note_on,,59,0,6,,,,,,,,,,,,,,,,1,,50,0
2279,note_on,,59,0,18,,,,,,,,,,,,,,,,15,,50,0
2279,note_on,,0,0,18,,,,,,,,,,,,,,,,15,,57,0
2279,note_on,,0,0,18,,,,,,,,,,,,,,,,15,,74,0
2279,note_on,,0,0,18,,,,,,,,,,,,,,,,15,,66,0
2339,note_on,,179,0,16,,,,,,,,,,,,,,,,12,,62,0
2339,note_on,,179,0,15,,,,,,,,,,,,,,,,11,,74,0
2339,note_on,,179,0,14,,,,,,,,,,,,,,,,10,,86,0
2340,note_on,,61,0,5,,,,,,,,,,,,,,,,0,,74,72
2340,note_on,,61,0,6,,,,,,,,,,,,,,,,1,,54,72
2340,note_on,,61,0,10,,,,,,,,,,,,,,,,5,,74,72
2340,note_on,,61,0,13,,,,,,,,,,,,,,,,8,,54,72
2340,note_on,,61,0,17,,,,,,,,,,,,,,,,13,,54,72
2340,note_on,,0,0,18,,,,,,,,,,,,,,,,15,,74,72
2340,note_on,,0,0,18,,,,,,,,,,,,,,,,15,,62,72
2340,note_on,,0,0,18,,,,,,,,,,,,,,,,15,,69,72
2340,note_on,,1,0,14,,,,,,,,,,,,,,,,10,,81,72
2340,note_on,,0,0,18,,,,,,,,,,,,,,,,15,,57,72
2340,note_on,,61,0,18,,,,,,,,,,,,,,,,15,,54,72
2340,note_on,,1,0,16,,,,,,,,,,,,,,,,12,,62,72
2340,note_on,,1,0,15,,,,,,,,,,,,,,,,11,,74,72
2340,note_on,,61,0,12,,,,,,,,,,,,,,,,7,,62,72
2340,note_on,,61,0,11,,,,,,,,,,,,,,,,6,,69,72
2369,note_on,,0,0,18,,,,,,,,,,,,,,,,15,,62,0
2369,note_on,,0,0,18,,,,,,,,,,,,,,,,15,,69,0
2369,note_on,,0,0,18,,,,,,,,,,,,,,,,15,,74,0
2369,note_on,,0,0,18,,,,,,,,,,,,,,,,15,,57,0
2369,note_on,,29,0,18,,,,,,,,,,,,,,,,15,,54,0
2369,note_on,,29,0,11,,,,,,,,,,,,,,,,6,,69,0
2369,note_on,,29,0,17,,,,,,,,,,,,,,,,13,,54,0
2369,note_on,,29,0,13,,,,,,,,,,,,,,,,8,,54,0
2369,note_on,,29,0,6,,,,,,,,,,,,,,,,1,,54,0
2369,note_on,,29,0,5,,,,,,,,,,,,,,,,0,,74,0
2369,note_on,,29,0,12,,,,,,,,,,,,,,,,7,,62,0
2369,note_on,,29,0,10,,,,,,,,,,,,,,,,5,,74,0
2370,note_on,,1,0,5,,,,,,,,,,,,,,,,0,,74,72
2370,note_on,,1,0,6,,,,,,,,,,,,,,,,1,,54,72
2370,note_on,,1,0,12,,,,,,,,,,,,,,,,7,,62,72
2370,note_on,,1,0,17,,,,,,,,,,,,,,,,13,,54,72
2370,note_on,,1,0,10,,,,,,,,,,,,,,,,5,,74,72
2370,note_on,,1,0,18,,,,,,,,,,,,,,,,15,,54,72
2370,note_on,,0,0,18,,,,,,,,,,,,,,,,15,,57,72
2370,note_on,,0,0,18,,,,,,,,,,,,,,,,15,,74,72
2370,note_on,,0,0,18,,,,,,,,,,,,,,,,15,,69,72
2370,note_on,,0,0,18,,,,,,,,,,,,,,,,15,,62,72
2370,note_on,,1,0,13,,,,,,,,,,,,,,,,8,,54,72
2370,note_on,,1,0,11,,,,,,,,,,,,,,,,6,,69,72
2399,note_on,,59,0,16,,,,,,,,,,,,,,,,12,,62,0
2399,note_on,,59,0,14,,,,,,,,,,,,,,,,10,,81,0
2399,note_on,,29,0,12,,,,,,,,,,,,,,,,7,,62,0
2399,note_on,,29,0,10,,,,,,,,,,,,,,,,5,,74,0
2399,note_on,,29,0,11,,,,,,,,,,,,,,,,6,,69,0
2399,note_on,,29,0,5,,,,,,,,,,,,,,,,0,,74,0
2399,note_on,,0,0,18,,,,,,,,,,,,,,,,15,,62,0
2399,note_on,,29,0,6,,,,,,,,,,,,,,,,1,,54,0
2399,note_on,,29,0,17,,,,,,,,,,,,,,,,13,,54,0
2399,note_on,,59,0,15,,,,,,,,,,,,,,,,11,,74,0
2399,note_on,,29,0,18,,,,,,,,,,,,,,,,15,,54,0
2399,note_on,,0,0,18,,,,,,,,,,,,,,,,15,,57,0
2399,note_on,,0,0,18,,,,,,,,,,,,,,,,15,,74,0
2399,note_on,,0,0,18,,,,,,,,,,,,,,,,15,,69,0
2399,note_on,,29,0,13,,,,,,,,,,,,,,,,8,,54,0
2400,note_on,,1,0,6,,,,,,,,,,,,,,,,1,,55,72
2400,note_on,,1,0,17,,,,,,,,,,,,,,,,13,,55,72
2400,note_on,,1,0,12,,,,,,,,,,,,,,,,7,,67,72
2400,note_on,,1,0,5,,,,,,,,,,,,,,,,0,,74,72
2400,note_on,,1,0,13,,,,,,,,,,,,,,,,8,,55,72
2400,note_on,,1,0,16,,,,,,,,,,,,,,,,12,,62,72
2400,note_on,,1,0,14,,,,,,,,,,,,,,,,10,,74,72
2400,note_on,,1,0,11,,,,,,,,,,,,,,,,6,,71,72
2400,note_on,,0,0,18,,,,,,,,,,,,,,,,15,,59,72
2400,note_on,,0,0,18,,,,,,,,,,,,,,,,15,,62,72
2400,note_on,,0,0,18,,,,,,,,,,,,,,,,15,,67,72
2400,note_on,,0,0,18,,,,,,,,,,,,,,,,15,,74,72
2400,note_on,,1,0,18,,,,,,,,,,,,,,,,15,,55,72
2400,note_on,,1,0,15,,,,,,,,,,,,,,,,11,,71,72
2400,note_on,,1,0,10,,,,,,,,,,,,,,,,5,,74,72
2459,note_on,,59,0,14,,,,,,,,,,,,,,,,10,,74,0
2459,note_on,,59,0,11,,,,,,,,,,,,,,,,6,,71,0
2459,note_on,,59,0,12,,,,,,,,,,,,,,,,7,,67,0
2459,note_on,,59,0,10,,,,,,,,,,,,,,,,5,,74,0
2459,note_on,,59,0,5,,,,,,,,,,,,,,,,0,,74,0
2459,note_on,,59,0,17,,,,,,,,,,,,,,,,13,,55,0
2459,note_on,,59,0,6,,,,,,,,,,,,,,,,1,,55,0
2459,note_on,,59,0,16,,,,,,,,,,,,,,,,12,,62,0
2459,note_on,,0,0,18,,,,,,,,,,,,,,,,15,,59,0
2459,note_on,,0,0,18,,,,,,,,,,,,,,,,15,,62,0
2459,note_on,,0,0,18,,,,,,,,,,,,,,,,15,,67,0
2459,note_on,,0,0,18,,,,,,,,,,,,,,,,15,,74,0
2459,note_on,,59,0,18,,,,,,,,,,,,,,,,15,,55,0
2459,note_on,,59,0,13,,,,,,,,,,,,,,,,8,,55,0
2459,note_on,,59,0,15,,,,,,,,,,,,,,,,11,,71,0
2460,note_on,,1,0,15,,,,,,,,,,,,,,,,11,,69,72
2460,note_on,,1,0,11,,,,,,,,,,,,,,,,6,,69,72
2460,note_on,,0,0,18,,,,,,,,,,,,,,,,15,,62,72
2460,note_on,,0,0,18,,,,,,,,,,,,,,,,15,,66,72
2460,note_on,,0,0,18,,,,,,,,,,,,,,,,15,,57,72
2460,note_on,,1,0,6,,,,,,,,,,,,,,,,1,,50,72
2460,note_on,,1,0,17,,,,,,,,,,,,,,,,13,,50,72
2460,note_on,,1,0,16,,,,,,,,,,,,,,,,12,,62,72
2460,note_on,,0,0,18,,,,,,,,,,,,,,,,15,,74,72
2460,note_on,,1,0,13,,,,,,,,,,,,,,,,8,,50,72
2460,note_on,,1,0,14,,,,,,,,,,,,,,,,10,,78,72
2460,note_on,,1,0,18,,,,,,,,,,,,,,,,15,,50,72
2460,note_on,,1,0,12,,,,,,,,,,,,,,,,7,,66,72
2460,note_on,,1,0,5,,,,,,,,,,,,,,,,0,,74,72
2460,note_on,,1,0,10,,,,,,,,,,,,,,,,5,,74,72
2489,note_on,,29,0,15,,,,,,,,,,,,,,,,11,,69,0
2489,note_on,,29,0,14,,,,,,,,,,,,,,,,10,,78,0
2489,note_on,,29,0,16,,,,,,,,,,,,,,,,12,,62,0
2490,note_on,,1,0,14,,,,,,,,,,,,,,,,10,,78,72
2490,note_on,,1,0,15,,,,,,,,,,,,,,,,11,,69,72
2490,note_on,,1,0,16,,,,,,,,,,,,,,,,12,,62,72
2519,note_on,,29,0,16,,,,,,,,,,,,,,,,12,,62,0
2519,note_on,,59,0,17,,,,,,,,,,,,,,,,13,,50,0
2519,note_on,,59,0,12,,,,,,,,,,,,,,,,7,,66,0
2519,note_on,,29,0,15,,,,,,,,,,,,,,,,11,,69,0
2519,note_on,,59,0,6,,,,,,,,,,,,,,,,1,,50,0
2519,note_on,,59,0,18,,,,,,,,,,,,,,,,15,,50,0
2519,note_on,,0,0,18,,,,,,,,,,,,,,,,15,,74,0
2519,note_on,,0,0,18,,,,,,,,,,,,,,,,15,,66,0
2519,note_on,,59,0,11,,,,,,,,,,,,,,,,6,,69,0
2519,note_on,,0,0,18,,,,,,,,,,,,,,,,15,,57,0
2519,note_on,,0,0,18,,,,,,,,,,,,,,,,15,,62,0
2519,note_on,,29,0,14,,,,,,,,,,,,,,,,10,,78,0
2519,note_on,,59,0,13,,,,,,,,,,,,,,,,8,,50,0
2519,note_on,,59,0,5,,,,,,,,,,,,,,,,0,,74,0
2519,note_on,,59,0,10,,,,,,,,,,,,,,,,5,,74,0
2520,note_on,,1,0,15,,,,,,,,,,,,,,,,11,,71,72
2520,note_on,,1,0,14,,,,,,,,,,,,,,,,10,,79,72
2520,note_on,,1,0,16,,,,,,,,,,,,,,,,12,,62,72
2579,note_on,,59,0,14,,,,,,,,,,,,,,,,10,,79,0
2579,note_on,,59,0,15,,,,,,,,,,,,,,,,11,,71,0
2579,note_on,,59,0,16,,,,,,,,,,,,,,,,12,,62,0
2580,note_on,,61,0,18,,,,,,,,,,,,,,,,15,,54,72
2580,note_on,,1,0,14,,,,,,,,,,,,,,,,10,,78,72
2580,note_on,,61,0,10,,,,,,,,,,,,,,,,5,,74,72
2580,note_on,,61,0,12,,,,,,,,,,,,,,,,7,,62,72
2580,note_on,,0,0,18,,,,,,,,,,,,,,,,15,,57,72
2580,note_on,,61,0,11,,,,,,,,,,,,,,,,6,,69,72
2580,note_on,,61,0,13,,,,,,,,,,,,,,,,8,,54,72
2580,note_on,,0,0,18,,,,,,,,,,,,,,,,15,,62,72
2580,note_on,,0,0,18,,,,,,,,,,,,,,,,15,,69,72
2580,note_on,,61,0,6,,,,,,,,,,,,,,,,1,,54,72
2580,note_on,,1,0,15,,,,,,,,,,,,,,,,11,,69,72
2580,note_on,,1,0,16,,,,,,,,,,,,,,,,12,,62,72
2580,note_on,,0,0,18,,,,,,,,,,,,,,,,15,,74,72
2580,note_on,,61,0,17,,,,,,,,,,,,,,,,13,,54,72
2580,note_on,,61,0,5,,,,,,,,,,,,,,,,0,,74,72
2609,note_on,,0,0,18,,,,,,,,,,,,,,,,15,,62,0
2609,note_on,,29,0,12,,,,,,,,,,,,,,,,7,,62,0
2609,note_on,,0,0,18,,,,,,,,,,,,,,,,15,,74,0
2609,note_on,,0,0,18,,,,,,,,,,,,,,,,15,,57,0
2609,note_on,,0,0,18,,,,,,,,,,,,,,,,15,,69,0
2609,note_on,,29,0,17,,,,,,,,,,,,,,,,13,,54,0
2609,note_on,,29,0,18,,,,,,,,,,,,,,,,15,,54,0
2609,note_on,,29,0,6,,,,,,,,,,,,,,,,1,,54,0
2609,note_on,,29,0,11,,,,,,,,,,,,,,,,6,,69,0
2609,note_on,,29,0,5,,,,,,,,,,,,,,,,0,,74,0
2609,note_on,,29,0,13,,,,,,,,,,,,,,,,8,,54,0
2609,note_on,,29,0,10,,,,,,,,,,,,,,,,5,,74,0
2610,note_on,,1,0,5,,,,,,,,,,,,,,,,0,,74,72
2610,note_on,,1,0,13,,,,,,,,,,,,,,,,8,,54,72
2610,note_on,,1,0,10,,,,,,,,,,,,,,,,5,,74,72
2610,note_on,,1,0,11,,,,,,,,,,,,,,,,6,,69,72
2610,note_on,,1,0,6,,,,,,,,,,,,,,,,1,,54,72
2610,note_on,,0,0,18,,,,,,,,,,,,,,,,15,,74,72
2610,note_on,,1,0,17,,,,,,,,,,,,,,,,13,,54,72
2610,note_on,,1,0,12,,,,,,,,,,,,,,,,7,,62,72
2610,note_on,,1,0,18,,,,,,,,,,,,,,,,15,,54,72
2610,note_on,,0,0,18,,,,,,,,,,,,,,,,15,,57,72
2610,note_on,,0,0,18,,,,,,,,,,,,,,,,15,,62,72
2610,note_on,,0,0,18,,,,,,,,,,,,,,,,15,,69,72
2639,note_on,,29,0,17,,,,,,,,,,,,,,,,13,,54,0
2639,note_on,,59,0,16,,,,,,,,,,,,,,,,12,,62,0
2639,note_on,,29,0,6,,,,,,,,,,,,,,,,1,,54,0
2639,note_on,,0,0,18,,,,,,,,,,,,,,,,15,,57,0
2639,note_on,,29,0,11,,,,,,,,,,,,,,,,6,,69,0
2639,note_on,,59,0,14,,,,,,,,,,,,,,,,10,,78,0
2639,note_on,,29,0,10,,,,,,,,,,,,,,,,5,,74,0
2639,note_on,,29,0,5,,,,,,,,,,,,,,,,0,,74,0
2639,note_on,,59,0,15,,,,,,,,,,,,,,,,11,,69,0
2639,note_on,,29,0,12,,,,,,,,,,,,,,,,7,,62,0
2639,note_on,,29,0,18,,,,,,,,,,,,,,,,15,,54,0
2639,note_on,,29,0,13,,,,,,,,,,,,,,,,8,,54,0
2639,note_on,,0,0,18,,,,,,,,,,,,,,,,15,,74,0
2639,note_on,,0,0,18,,,,,,,,,,,,,,,,15,,69,0
2639,note_on,,0,0,18,,,,,,,,,,,,,,,,15,,62,0
2640,note_on,,0,0,18,,,,,,,,,,,,,,,,15,,59,72
2640,note_on,,0,0,18,,,,,,,,,,,,,,,,15,,62,72
2640,note_on,,1,0,10,,,,,,,,,,,,,,,,5,,74,72
2640,note_on,,1,0,5,,,,,,,,,,,,,,,,0,,74,72
2640,note_on,,1,0,6,,,,,,,,,,,,,,,,1,,55,72
2640,note_on,,1,0,13,,,,,,,,,,,,,,,,8,,55,72
2640,note_on,,1,0,17,,,,,,,,,,,,,,,,13,,55,72
2640,note_on,,0,0,18,,,,,,,,,,,,,,,,15,,74,72
2640,note_on,,0,0,18,,,,,,,,,,,,,,,,15,,67,72
2640,note_on,,1,0,18,,,,,,,,,,,,,,,,15,,55,72
2640,note_on,,1,0,12,,,,,,,,,,,,,,,,7,,67,72
2640,note_on,,1,0,11,,,,,,,,,,,,,,,,6,,71,72
2699,note_on,,59,0,18,,,,,,,,,,,,,,,,15,,55,0
2699,note_on,,59,0,13,,,,,,,,,,,,,,,,8,,55,0
2699,note_on,,59,0,12,,,,,,,,,,,,,,,,7,,67,0
2699,note_on,,0,0,18,,,,,,,,,,,,,,,,15,,74,0
2699,note_on,,0,0,18,,,,,,,,,,,,,,,,15,,67,0
2699,note_on,,0,0,18,,,,,,,,,,,,,,,,15,,62,0
2699,note_on,,59,0,5,,,,,,,,,,,,,,,,0,,74,0
2699,note_on,,0,0,18,,,,,,,,,,,,,,,,15,,59,0
2699,note_on,,59,0,6,,,,,,,,,,,,,,,,1,,55,0
2699,note_on,,59,0,10,,,,,,,,,,,,,,,,5,,74,0
2699,note_on,,59,0,11,,,,,,,,,,,,,,,,6,,71,0
2699,note_on,,59,0,17,,,,,,,,,,,,,,,,13,,55,0
2700,note_on,,61,0,14,,,,,,,,,,,,,,,,10,,81,72
2700,note_on,,1,0,5,,,,,,,,,,,,,,,,0,,74,72
2700,note_on,,1,0,17,,,,,,,,,,,,,,,,13,,50,72
2700,note_on,,0,0,18,,,,,,,,,,,,,,,,15,,62,72
2700,note_on,,1,0,18,,,,,,,,,,,,,,,,15,,50,72
2700,note_on,,61,0,15,,,,,,,,,,,,,,,,11,,78,72
2700,note_on,,1,0,13,,,,,,,,,,,,,,,,8,,50,72
2700,note_on,,1,0,10,,,,,,,,,,,,,,,,5,,74,72
2700,note_on,,1,0,11,,,,,,,,,,,,,,,,6,,69,72
2700,note_on,,0,0,18,,,,,,,,,,,,,,,,15,,57,72
2700,note_on,,1,0,6,,,,,,,,,,,,,,,,1,,50,72
2700,note_on,,61,0,16,,,,,,,,,,,,,,,,12,,62,72
2700,note_on,,0,0,18,,,,,,,,,,,,,,,,15,,74,72
2700,note_on,,0,0,18,,,,,,,,,,,,,,,,15,,66,72
2700,note_on,,1,0,12,,,,,,,,,,,,,,,,7,,66,72
2729,note_on,,29,0,16,,,,,,,,,,,,,,,,12,,62,0
2729,note_on,,29,0,14,,,,,,,,,,,,,,,,10,,81,0
2729,note_on,,29,0,15,,,,,,,,,,,,,,,,11,,78,0
2730,note_on,,1,0,15,,,,,,,,,,,,,,,,11,,78,72
2730,note_on,,1,0,14,,,,,,,,,,,,,,,,10,,81,72
2730,note_on,,1,0,16,,,,,,,,,,,,,,,,12,,62,72
2759,note_on,,59,0,6,,,,,,,,,,,,,,,,1,,50,0
2759,note_on,,59,0,5,,,,,,,,,,,,,,,,0,,74,0
2759,note_on,,29,0,14,,,,,,,,,,,,,,,,10,,81,0
2759,note_on,,59,0,11,,,,,,,,,,,,,,,,6,,69,0
2759,note_on,,29,0,16,,,,,,,,,,,,,,,,12,,62,0
2759,note_on,,59,0,10,,,,,,,,,,,,,,,,5,,74,0
2759,note_on,,59,0,13,,,,,,,,,,,,,,,,8,,50,0
2759,note_on,,59,0,18,,,,,,,,,,,,,,,,15,,50,0
2759,note_on,,0,0,18,,,,,,,,,,,,,,,,15,,57,0
2759,note_on,,59,0,12,,,,,,,,,,,,,,,,7,,66,0
2759,note_on,,29,0,15,,,,,,,,,,,,,,,,11,,78,0
2759,note_on,,0,0,18,,,,,,,,,,,,,,,,15,,62,0
2759,note_on,,59,0,17,,,,,,,,,,,,,,,,13,,50,0
2759,note_on,,0,0,18,,,,,,,,,,,,,,,,15,,74,0
2759,note_on,,0,0,18,,,,,,,,,,,,,,,,15,,66,0
2760,note_on,,1,0,14,,,,,,,,,,,,,,,,10,,83,72
2760,note_on,,1,0,15,,,,,,,,,,,,,,,,11,,79,72
2760,note_on,,1,0,16,,,,,,,,,,,,,,,,12,,62,72
2819,note_on,,59,0,14,,,,,,,,,,,,,,,,10,,83,0
2819,note_on,,59,0,16,,,,,,,,,,,,,,,,12,,62,0
2819,note_on,,59,0,15,,,,,,,,,,,,,,,,11,,79,0
2820,note_on,,61,0,11,,,,,,,,,,,,,,,,6,,69,72
2820,note_on,,61,0,12,,,,,,,,,,,,,,,,7,,62,72
2820,note_on,,1,0,15,,,,,,,,,,,,,,,,11,,74,72
2820,note_on,,61,0,13,,,,,,,,,,,,,,,,8,,54,72
2820,note_on,,61,0,17,,,,,,,,,,,,,,,,13,,54,72
2820,note_on,,0,0,18,,,,,,,,,,,,,,,,15,,62,72
2820,note_on,,0,0,18,,,,,,,,,,,,,,,,15,,74,72
2820,note_on,,0,0,18,,,,,,,,,,,,,,,,15,,66,72
2820,note_on,,1,0,16,,,,,,,,,,,,,,,,12,,62,72
2820,note_on,,0,0,18,,,,,,,,,,,,,,,,15,,57,72
2820,note_on,,1,0,14,,,,,,,,,,,,,,,,10,,81,72
2820,note_on,,61,0,10,,,,,,,,,,,,,,,,5,,74,72
2820,note_on,,61,0,6,,,,,,,,,,,,,,,,1,,54,72
2820,note_on,,61,0,18,,,,,,,,,,,,,,,,15,,54,72
2820,note_on,,61,0,5,,,,,,,,,,,,,,,,0,,74,72
2879,note_on,,59,0,12,,,,,,,,,,,,,,,,7,,62,0
2879,note_on,,59,0,16,,,,,,,,,,,,,,,,12,,62,0
2879,note_on,,59,0,17,,,,,,,,,,,,,,,,13,,54,0
2879,note_on,,59,0,13,,,,,,,,,,,,,,,,8,,54,0
2879,note_on,,59,0,14,,,,,,,,,,,,,,,,10,,81,0
2879,note_on,,59,0,5,,,,,,,,,,,,,,,,0,,74,0
2879,note_on,,59,0,10,,,,,,,,,,,,,,,,5,,74,0
2879,note_on,,0,0,18,,,,,,,,,,,,,,,,15,,57,0
2879,note_on,,0,0,18,,,,,,,,,,,,,,,,15,,62,0
2879,note_on,,0,0,18,,,,,,,,,,,,,,,,15,,66,0
2879,note_on,,0,0,18,,,,,,,,,,,,,,,,15,,74,0
2879,note_on,,59,0,18,,,,,,,,,,,,,,,,15,,54,0
2879,note_on,,59,0,15,,,,,,,,,,,,,,,,11,,74,0
2879,note_on,,59,0,11,,,,,,,,,,,,,,,,6,,69,0
2879,note_on,,59,0,6,,,,,,,,,,,,,,,,1,,54,0
2880,note_on,,1,0,10,,,,,,,,,,,,,,,,5,,73,72
2880,note_on,,1,0,12,,,,,,,,,,,,,,,,7,,64,72
2880,note_on,,1,0,11,,,,,,,,,,,,,,,,6,,67,72
2880,note_on,,1,0,6,,,,,,,,,,,,,,,,1,,52,72
2880,note_on,,1,0,18,,,,,,,,,,,,,,,,15,,52,72
2880,note_on,,0,0,18,,,,,,,,,,,,,,,,15,,73,72
2880,note_on,,0,0,18,,,,,,,,,,,,,,,,15,,67,72
2880,note_on,,0,0,18,,,,,,,,,,,,,,,,15,,64,72
2880,note_on,,0,0,18,,,,,,,,,,,,,,,,15,,55,72
2880,note_on,,1,0,17,,,,,,,,,,,,,,,,13,,52,72
2880,note_on,,1,0,13,,,,,,,,,,,,,,,,8,,52,72
2880,note_on,,1,0,5,,,,,,,,,,,,,,,,0,,73,72
2939,note_on,,0,0,18,,,,,,,,,,,,,,,,15,,67,0
2939,note_on,,59,0,11,,,,,,,,,,,,,,,,6,,67,0
2939,note_on,,59,0,10,,,,,,,,,,,,,,,,5,,73,0
2939,note_on,,0,0,18,,,,,,,,,,,,,,,,15,,73,0
2939,note_on,,59,0,17,,,,,,,,,,,,,,,,13,,52,0
2939,note_on,,59,0,5,,,,,,,,,,,,,,,,0,,73,0
2939,note_on,,59,0,12,,,,,,,,,,,,,,,,7,,64,0
2939,note_on,,0,0,18,,,,,,,,,,,,,,,,15,,55,0
2939,note_on,,0,0,18,,,,,,,,,,,,,,,,15,,64,0
2939,note_on,,59,0,18,,,,,,,,,,,,,,,,15,,52,0
2939,note_on,,59,0,13,,,,,,,,,,,,,,,,8,,52,0
2939,note_on,,59,0,6,,,,,,,,,,,,,,,,1,,52,0
2940,note_on,,1,0,12,,,,,,,,,,,,,,,,7,,57,72
2940,note_on,,1,0,10,,,,,,,,,,,,,,,,5,,74,72
2940,note_on,,1,0,6,,,,,,,,,,,,,,,,1,,50,72
2940,note_on,,1,0,11,,,,,,,,,,,,,,,,6,,66,72
2940,note_on,,1,0,17,,,,,,,,,,,,,,,,13,,50,72
2940,note_on,,1,0,18,,,,,,,,,,,,,,,,15,,50,72
2940,note_on,,1,0,5,,,,,,,,,,,,,,,,0,,74,72
2940,note_on,,0,0,18,,,,,,,,,,,,,,,,15,,74,72
2940,note_on,,0,0,18,,,,,,,,,,,,,,,,15,,69,72
2940,note_on,,0,0,18,,,,,,,,,,,,,,,,15,,66,72
2940,note_on,,1,0,13,,,,,,,,,,,,,,,,8,,50,72
2940,note_on,,0,0,18,,,,,,,,,,,,,,,,15,,54,72
2999,note_on,,59,0,17,,,,,,,,,,,,,,,,13,,50,0
2999,note_on,,0,0,18,,,,,,,,,,,,,,,,15,,69,0
2999,note_on,,0,0,18,,,,,,,,,,,,,,,,15,,54,0
2999,note_on,,0,0,18,,,,,,,,,,,,,,,,15,,66,0
2999,note_on,,59,0,18,,,,,,,,,,,,,,,,15,,50,0
2999,note_on,,59,0,11,,,,,,,,,,,,,,,,6,,66,0
2999,note_on,,59,0,13,,,,,,,,,,,,,,,,8,,50,0
2999,note_on,,59,0,6,,,,,,,,,,,,,,,,1,,50,0
3000,note_on,,1,0,13,,,,,,,,,,,,,,,,8,,57,72
3000,note_on,,1,0,18,,,,,,,,,,,,,,,,15,,57,72
3000,note_on,,0,0,18,,,,,,,,,,,,,,,,15,,69,72
3000,note_on,,1,0,6,,,,,,,,,,,,,,,,1,,57,72
3000,note_on,,1,0,11,,,,,,,,,,,,,,,,6,,64,72
3000,note_on,,0,0,18,,,,,,,,,,,,,,,,15,,66,72
3000,note_on,,1,0,17,,,,,,,,,,,,,,,,13,,57,72
3059,note_on,,59,0,18,,,,,,,,,,,,,,,,15,,74,0
3059,note_on,,119,0,10,,,,,,,,,,,,,,,,5,,74,0
3059,note_on,,59,0,13,,,,,,,,,,,,,,,,8,,57,0
3059,note_on,,59,0,17,,,,,,,,,,,,,,,,13,,57,0
3059,note_on,,59,0,11,,,,,,,,,,,,,,,,6,,64,0
3059,note_on,,119,0,12,,,,,,,,,,,,,,,,7,,57,0
3059,note_on,,119,0,5,,,,,,,,,,,,,,,,0,,74,0
3059,note_on,,59,0,6,,,,,,,,,,,,,,,,1,,57,0
3060,note_on,,1,0,6,,,,,,,,,,,,,,,,1,,45,72
3060,note_on,,1,0,10,,,,,,,,,,,,,,,,5,,73,72
3060,note_on,,1,0,11,,,,,,,,,,,,,,,,6,,64,72
3060,note_on,,181,0,15,,,,,,,,,,,,,,,,11,,73,72
3060,note_on,,1,0,18,,,,,,,,,,,,,,,,15,,45,72
3060,note_on,,0,0,18,,,,,,,,,,,,,,,,15,,73,72
3060,note_on,,181,0,14,,,,,,,,,,,,,,,,10,,73,72
3060,note_on,,1,0,5,,,,,,,,,,,,,,,,0,,73,72
3060,note_on,,1,0,17,,,,,,,,,,,,,,,,13,,45,72
3060,note_on,,1,0,12,,,,,,,,,,,,,,,,7,,57,72
3060,note_on,,181,0,16,,,,,,,,,,,,,,,,12,,69,72
3060,note_on,,1,0,13,,,,,,,,,,,,,,,,8,,57,72
3119,note_on,,59,0,14,,,,,,,,,,,,,,,,10,,73,0
3119,note_on,,59,0,16,,,,,,,,,,,,,,,,12,,69,0
3119,note_on,,59,0,17,,,,,,,,,,,,,,,,13,,45,0
3119,note_on,,0,0,18,,,,,,,,,,,,,,,,15,,45,0
3119,note_on,,0,0,18,,,,,,,,,,,,,,,,15,,66,0
3119,note_on,,0,0,18,,,,,,,,,,,,,,,,15,,69,0
3119,note_on,,59,0,18,,,,,,,,,,,,,,,,15,,57,0
3119,note_on,,59,0,12,,,,,,,,,,,,,,,,7,,57,0
3119,note_on,,59,0,13,,,,,,,,,,,,,,,,8,,57,0
3119,note_on,,59,0,11,,,,,,,,,,,,,,,,6,,64,0
3119,note_on,,0,0,18,,,,,,,,,,,,,,,,15,,73,0
3119,note_on,,59,0,5,,,,,,,,,,,,,,,,0,,73,0
3119,note_on,,59,0,10,,,,,,,,,,,,,,,,5,,73,0
3119,note_on,,59,0,15,,,,,,,,,,,,,,,,11,,73,0
3119,note_on,,59,0,6,,,,,,,,,,,,,,,,1,,45,0
3120,note_on,,1,0,5,,,,,,,,,,,,,,,,0,,74,72
3120,note_on,,1,0,12,,,,,,,,,,,,,,,,7,,57,72
3120,note_on,,0,0,18,,,,,,,,,,,,,,,,15,,69,72
3120,note_on,,0,0,18,,,,,,,,,,,,,,,,15,,74,72
3120,note_on,,0,0,18,,,,,,,,,,,,,,,,15,,57,72
3120,note_on,,0,0,18,,,,,,,,,,,,,,,,15,,50,72
3120,note_on,,1,0,18,,,,,,,,,,,,,,,,15,,66,72
3120,note_on,,1,0,13,,,,,,,,,,,,,,,,8,,50,72
3120,note_on,,1,0,6,,,,,,,,,,,,,,,,1,,50,72
3120,note_on,,1,0,10,,,,,,,,,,,,,,,,5,,74,72
3120,note_on,,1,0,11,,,,,,,,,,,,,,,,6,,66,72
3120,note_on,,1,0,17,,,,,,,,,,,,,,,,13,,50,72
3120,note_on,,1,0,15,,,,,,,,,,,,,,,,11,,74,72
3120,note_on,,1,0,14,,,,,,,,,,,,,,,,10,,78,72
3120,note_on,,1,0,16,,,,,,,,,,,,,,,,12,,69,72
3179,note_on,,59,0,17,,,,,,,,,,,,,,,,13,,50,0
3179,note_on,,59,0,15,,,,,,,,,,,,,,,,11,,74,0
3179,note_on,,59,0,16,,,,,,,,,,,,,,,,12,,69,0
3179,note_on,,59,0,6,,,,,,,,,,,,,,,,1,,50,0
3179,note_on,,59,0,18,,,,,,,,,,,,,,,,15,,66,0
3179,note_on,,0,0,18,,,,,,,,,,,,,,,,15,,50,0
3179,note_on,,0,0,18,,,,,,,,,,,,,,,,15,,69,0
3179,note_on,,59,0,14,,,,,,,,,,,,,,,,10,,78,0
3180,note_on,,1,0,15,,,,,,,,,,,,,,,,11,,74,72
3180,note_on,,0,0,18,,,,,,,,,,,,,,,,15,,62,72
3180,note_on,,1,0,6,,,,,,,,,,,,,,,,1,,54,72
3180,note_on,,1,0,16,,,,,,,,,,,,,,,,12,,69,72
3180,note_on,,1,0,18,,,,,,,,,,,,,,,,15,,54,72
3180,note_on,,1,0,14,,,,,,,,,,,,,,,,10,,81,72
3180,note_on,,0,0,18,,,,,,,,,,,,,,,,15,,66,72
3180,note_on,,1,0,17,,,,,,,,,,,,,,,,13,,54,72
3239,note_on,,59,0,17,,,,,,,,,,,,,,,,13,,54,0
3239,note_on,,59,0,18,,,,,,,,,,,,,,,,15,,57,0
3239,note_on,,0,0,18,,,,,,,,,,,,,,,,15,,74,0
3239,note_on,,0,0,18,,,,,,,,,,,,,,,,15,,54,0
3239,note_on,,0,0,18,,,,,,,,,,,,,,,,15,,66,0
3239,note_on,,0,0,18,,,,,,,,,,,,,,,,15,,62,0
3239,note_on,,59,0,16,,,,,,,,,,,,,,,,12,,69,0
3239,note_on,,59,0,15,,,,,,,,,,,,,,,,11,,74,0
3239,note_on,,119,0,13,,,,,,,,,,,,,,,,8,,50,0
3239,note_on,,119,0,12,,,,,,,,,,,,,,,,7,,57,0
3239,note_on,,119,0,10,,,,,,,,,,,,,,,,5,,74,0
3239,note_on,,119,0,5,,,,,,,,,,,,,,,,0,,74,0
3239,note_on,,59,0,6,,,,,,,,,,,,,,,,1,,54,0
3239,note_on,,119,0,11,,,,,,,,,,,,,,,,6,,66,0
3239,note_on,,59,0,14,,,,,,,,,,,,,,,,10,,81,0
3240,note_on,,0,0,18,,,,,,,,,,,,,,,,15,,55,72
3240,note_on,,1,0,6,,,,,,,,,,,,,,,,1,,52,72
3240,note_on,,1,0,16,,,,,,,,,,,,,,,,12,,64,72
3240,note_on,,0,0,18,,,,,,,,,,,,,,,,15,,67,72
3240,note_on,,1,0,18,,,,,,,,,,,,,,,,15,,52,72
3240,note_on,,1,0,17,,,,,,,,,,,,,,,,13,,52,72
3240,note_on,,0,0,18,,,,,,,,,,,,,,,,15,,64,72
3240,note_on,,1,0,15,,,,,,,,,,,,,,,,11,,73,72
3240,note_on,,0,0,18,,,,,,,,,,,,,,,,15,,73,72
3240,note_on,,1,0,14,,,,,,,,,,,,,,,,10,,79,72
3299,note_on,,59,0,16,,,,,,,,,,,,,,,,12,,64,0
3299,note_on,,59,0,14,,,,,,,,,,,,,,,,10,,79,0
3299,note_on,,59,0,6,,,,,,,,,,,,,,,,1,,52,0
3299,note_on,,0,0,18,,,,,,,,,,,,,,,,15,,64,0
3299,note_on,,0,0,18,,,,,,,,,,,,,,,,15,,67,0
3299,note_on,,59,0,15,,,,,,,,,,,,,,,,11,,73,0
3299,note_on,,0,0,18,,,,,,,,,,,,,,,,15,,73,0
3299,note_on,,59,0,17,,,,,,,,,,,,,,,,13,,52,0
3299,note_on,,0,0,18,,,,,,,,,,,,,,,,15,,55,0
3299,note_on,,59,0,18,,,,,,,,,,,,,,,,15,,52,0
3300,note_on,,1,0,18,,,,,,,,,,,,,,,,15,,50,72
3300,note_on,,1,0,14,,,,,,,,,,,,,,,,10,,78,72
3300,note_on,,0,0,18,,,,,,,,,,,,,,,,15,,54,72
3300,note_on,,0,0,18,,,,,,,,,,,,,,,,15,,69,72
3300,note_on,,0,0,18,,,,,,,,,,,,,,,,15,,66,72
3300,note_on,,1,0,16,,,,,,,,,,,,,,,,12,,69,72
3300,note_on,,1,0,17,,,,,,,,,,,,,,,,13,,50,72
3300,note_on,,1,0,15,,,,,,,,,,,,,,,,11,,74,72
3300,note_on,,0,0,18,,,,,,,,,,,,,,,,15,,74,72
3300,note_on,,1,0,6,,,,,,,,,,,,,,,,1,,50,72
3359,note_on,,59,0,6,,,,,,,,,,,,,,,,1,,50,0
3359,note_on,,59,0,15,,,,,,,,,,,,,,,,11,,74,0
3359,note_on,,59,0,18,,,,,,,,,,,,,,,,15,,50,0
3359,note_on,,0,0,18,,,,,,,,,,,,,,,,15,,54,0
3359,note_on,,59,0,17,,,,,,,,,,,,,,,,13,,50,0
3359,note_on,,0,0,18,,,,,,,,,,,,,,,,15,,74,0
3359,note_on,,59,0,14,,,,,,,,,,,,,,,,10,,78,0
3359,note_on,,59,0,16,,,,,,,,,,,,,,,,12,,69,0
3359,note_on,,0,0,18,,,,,,,,,,,,,,,,15,,66,0
3359,note_on,,0,0,18,,,,,,,,,,,,,,,,15,,69,0
3360,note_on,,0,0,18,,,,,,,,,,,,,,,,15,,69,72
3360,note_on,,0,0,18,,,,,,,,,,,,,,,,15,,73,72
3360,note_on,,1,0,16,,,,,,,,,,,,,,,,12,,69,72
3360,note_on,,0,0,18,,,,,,,,,,,,,,,,15,,76,72
3360,note_on,,1,0,18,,,,,,,,,,,,,,,,15,,57,72
3360,note_on,,121,0,10,,,,,,,,,,,,,,,,5,,76,72
3360,note_on,,1,0,15,,,,,,,,,,,,,,,,11,,73,72
3360,note_on,,0,0,18,,,,,,,,,,,,,,,,15,,64,72
3360,note_on,,1,0,14,,,,,,,,,,,,,,,,10,,76,72
3360,note_on,,121,0,5,,,,,,,,,,,,,,,,0,,76,72
3360,note_on,,121,0,13,,,,,,,,,,,,,,,,8,,57,72
3360,note_on,,1,0,17,,,,,,,,,,,,,,,,13,,57,72
3360,note_on,,121,0,11,,,,,,,,,,,,,,,,6,,69,72
3360,note_on,,1,0,6,,,,,,,,,,,,,,,,1,,57,72
3360,note_on,,121,0,12,,,,,,,,,,,,,,,,7,,61,72
3479,note_on,,119,0,16,,,,,,,,,,,,,,,,12,,69,0
3479,note_on,,119,0,15,,,,,,,,,,,,,,,,11,,73,0
3479,note_on,,119,0,14,,,,,,,,,,,,,,,,10,,76,0
3539,note_on,,179,0,17,,,,,,,,,,,,,,,,13,,57,0
3539,note_on,,0,0,18,,,,,,,,,,,,,,,,15,,64,0
3539,note_on,,0,0,18,,,,,,,,,,,,,,,,15,,69,0
3539,note_on,,0,0,18,,,,,,,,,,,,,,,,15,,73,0
3539,note_on,,179,0,18,,,,,,,,,,,,,,,,15,,57,0
3539,note_on,,179,0,12,,,,,,,,,,,,,,,,7,,61,0
3539,note_on,,179,0,13,,,,,,,,,,,,,,,,8,,57,0
3539,note_on,,0,0,18,,,,,,,,,,,,,,,,15,,76,0
3539,note_on,,179,0,5,,,,,,,,,,,,,,,,0,,76,0
3539,note_on,,179,0,6,,,,,,,,,,,,,,,,1,,57,0
3539,note_on,,179,0,11,,,,,,,,,,,,,,,,6,,69,0
3539,note_on,,179,0,10,,,,,,,,,,,,,,,,5,,76,0
3540,note_on,,1,0,13,,,,,,,,,,,,,,,,8,,61,72
3540,note_on,,1,0,11,,,,,,,,,,,,,,,,6,,69,72
3540,note_on,,1,0,17,,,,,,,,,,,,,,,,13,,61,72
3540,note_on,,1,0,5,,,,,,,,,,,,,,,,0,,69,72
3540,note_on,,1,0,12,,,,,,,,,,,,,,,,7,,64,72
3540,note_on,,0,0,18,,,,,,,,,,,,,,,,15,,69,72
3540,note_on,,0,0,18,,,,,,,,,,,,,,,,15,,76,72
3540,note_on,,1,0,18,,,,,,,,,,,,,,,,15,,61,72
3540,note_on,,1,0,10,,,,,,,,,,,,,,,,5,,69,72
3540,note_on,,1,0,6,,,,,,,,,,,,,,,,1,,61,72
3540,note_on,,0,0,18,,,,,,,,,,,,,,,,15,,64,72
3599,note_on,,0,0,18,,,,,,,,,,,,,,,,15,,76,0
3599,note_on,,0,0,18,,,,,,,,,,,,,,,,15,,69,0
3599,note_on,,0,0,18,,,,,,,,,,,,,,,,15,,64,0
3599,note_on,,59,0,12,,,,,,,,,,,,,,,,7,,64,0
3599,note_on,,59,0,6,,,,,,,,,,,,,,,,1,,61,0
3599,note_on,,59,0,18,,,,,,,,,,,,,,,,15,,61,0
3599,note_on,,59,0,11,,,,,,,,,,,,,,,,6,,69,0
3599,note_on,,59,0,5,,,,,,,,,,,,,,,,0,,69,0
3599,note_on,,59,0,13,,,,,,,,,,,,,,,,8,,61,0
3599,note_on,,59,0,17,,,,,,,,,,,,,,,,13,,61,0
3599,note_on,,59,0,10,,,,,,,,,,,,,,,,5,,69,0
3600,note_on,,1,0,12,,,,,,,,,,,,,,,,7,,62,72
3600,note_on,,1,0,10,,,,,,,,,,,,,,,,5,,78,72
3600,note_on,,1,0,6,,,,,,,,,,,,,,,,1,,62,72
3600,note_on,,1,0,11,,,,,,,,,,,,,,,,6,,69,72
3600,note_on,,1,0,17,,,,,,,,,,,,,,,,13,,62,72
3600,note_on,,1,0,18,,,,,,,,,,,,,,,,15,,62,72
3600,note_on,,0,0,18,,,,,,,,,,,,,,,,15,,69,72
3600,note_on,,0,0,18,,,,,,,,,,,,,,,,15,,66,72
3600,note_on,,121,0,15,,,,,,,,,,,,,,,,11,,69,72
3600,note_on,,1,0,13,,,,,,,,,,,,,,,,8,,62,72
3600,note_on,,121,0,14,,,,,,,,,,,,,,,,10,,81,72
3600,note_on,,121,0,16,,,,,,,,,,,,,,,,12,,69,72
3600,note_on,,0,0,18,,,,,,,,,,,,,,,,15,,74,72
3600,note_on,,1,0,5,,,,,,,,,,,,,,,,0,,78,72
3659,note_on,,59,0,13,,,,,,,,,,,,,,,,8,,62,0
3659,note_on,,59,0,11,,,,,,,,,,,,,,,,6,,69,0
3659,note_on,,59,0,6,,,,,,,,,,,,,,,,1,,62,0
3659,note_on,,59,0,12,,,,,,,,,,,,,,,,7,,62,0
3659,note_on,,0,0,18,,,,,,,,,,,,,,,,15,,66,0
3659,note_on,,0,0,18,,,,,,,,,,,,,,,,15,,69,0
3659,note_on,,0,0,18,,,,,,,,,,,,,,,,15,,74,0
3659,note_on,,59,0,10,,,,,,,,,,,,,,,,5,,78,0
3659,note_on,,59,0,18,,,,,,,,,,,,,,,,15,,62,0
3659,note_on,,59,0,17,,,,,,,,,,,,,,,,13,,62,0
3659,note_on,,59,0,5,,,,,,,,,,,,,,,,0,,78,0
3660,note_on,,0,0,18,,,,,,,,,,,,,,,,15,,69,72
3660,note_on,,1,0,5,,,,,,,,,,,,,,,,0,,76,72
3660,note_on,,1,0,10,,,,,,,,,,,,,,,,5,,76,72
3660,note_on,,1,0,11,,,,,,,,,,,,,,,,6,,69,72
3660,note_on,,1,0,18,,,,,,,,,,,,,,,,15,,57,72
3660,note_on,,0,0,18,,,,,,,,,,,,,,,,15,,73,72
3660,note_on,,1,0,17,,,,,,,,,,,,,,,,13,,57,72
3660,note_on,,1,0,6,,,,,,,,,,,,,,,,1,,57,72
3660,note_on,,1,0,12,,,,,,,,,,,,,,,,7,,61,72
3660,note_on,,0,0,18,,,,,,,,,,,,,,,,15,,64,72
3660,note_on,,1,0,13,,,,,,,,,,,,,,,,8,,57,72
3719,note_on,,59,0,10,,,,,,,,,,,,,,,,5,,76,0
3719,note_on,,59,0,13,,,,,,,,,,,,,,,,8,,57,0
3719,note_on,,0,0,18,,,,,,,,,,,,,,,,15,,73,0
3719,note_on,,59,0,6,,,,,,,,,,,,,,,,1,,57,0
3719,note_on,,59,0,11,,,,,,,,,,,,,,,,6,,69,0
3719,note_on,,59,0,12,,,,,,,,,,,,,,,,7,,61,0
3719,note_on,,59,0,5,,,,,,,,,,,,,,,,0,,76,0
3719,note_on,,59,0,17,,,,,,,,,,,,,,,,13,,57,0
3719,note_on,,0,0,18,,,,,,,,,,,,,,,,15,,64,0
3719,note_on,,0,0,18,,,,,,,,,,,,,,,,15,,69,0
3719,note_on,,59,0,18,,,,,,,,,,,,,,,,15,,57,0
3779,note_on,,179,0,14,,,,,,,,,,,,,,,,10,,81,0
3779,note_on,,179,0,15,,,,,,,,,,,,,,,,11,,69,0
3779,note_on,,179,0,16,,,,,,,,,,,,,,,,12,,69,0
3780,note_on,,1,0,15,,,,,,,,,,,,,,,,11,,73,72
3780,note_on,,1,0,16,,,,,,,,,,,,,,,,12,,69,72
3780,note_on,,1,0,14,,,,,,,,,,,,,,,,10,,76,72
3839,note_on,,59,0,15,,,,,,,,,,,,,,,,11,,73,0
3839,note_on,,59,0,14,,,,,,,,,,,,,,,,10,,76,0
3839,note_on,,59,0,16,,,,,,,,,,,,,,,,12,,69,0
3840,note_on,,1,0,16,,,,,,,,,,,,,,,,12,,64,72
3840,note_on,,121,0,17,,,,,,,,,,,,,,,,13,,57,72
3840,note_on,,121,0,5,,,,,,,,,,,,,,,,0,,76,72
3840,note_on,,121,0,6,,,,,,,,,,,,,,,,1,,57,72
3840,note_on,,121,0,12,,,,,,,,,,,,,,,,7,,61,72
3840,note_on,,1,0,14,,,,,,,,,,,,,,,,10,,73,72
3840,note_on,,0,0,18,,,,,,,,,,,,,,,,15,,64,72
3840,note_on,,0,0,18,,,,,,,,,,,,,,,,15,,69,72
3840,note_on,,0,0,18,,,,,,,,,,,,,,,,15,,73,72
3840,note_on,,121,0,18,,,,,,,,,,,,,,,,15,,57,72
3840,note_on,,121,0,10,,,,,,,,,,,,,,,,5,,76,72
3840,note_on,,121,0,11,,,,,,,,,,,,,,,,6,,69,72
3840,note_on,,1,0,15,,,,,,,,,,,,,,,,11,,69,72
3840,note_on,,121,0,13,,,,,,,,,,,,,,,,8,,57,72
3959,note_on,,119,0,14,,,,,,,,,,,,,,,,10,,73,0
3959,note_on,,119,0,15,,,,,,,,,,,,,,,,11,,69,0
3959,note_on,,119,0,16,,,,,,,,,,,,,,,,12,,64,0
4019,note_on,,179,0,6,,,,,,,,,,,,,,,,1,,57,0
4019,note_on,,179,0,10,,,,,,,,,,,,,,,,5,,76,0
4019,note_on,,0,0,18,,,,,,,,,,,,,,,,15,,69,0
4019,note_on,,0,0,18,,,,,,,,,,,,,,,,15,,64,0
4019,note_on,,179,0,12,,,,,,,,,,,,,,,,7,,61,0
4019,note_on,,179,0,13,,,,,,,,,,,,,,,,8,,57,0
4019,note_on,,179,0,5,,,,,,,,,,,,,,,,0,,76,0
4019,note_on,,179,0,18,,,,,,,,,,,,,,,,15,,57,0
4019,note_on,,179,0,11,,,,,,,,,,,,,,,,6,,69,0
4019,note_on,,179,0,17,,,,,,,,,,,,,,,,13,,57,0
4019,note_on,,0,0,18,,,,,,,,,,,,,,,,15,,73,0
4020,note_on,,0,0,18,,,,,,,,,,,,,,,,15,,64,72
4020,note_on,,1,0,18,,,,,,,,,,,,,,,,15,,61,72
4020,note_on,,0,0,18,,,,,,,,,,,,,,,,15,,69,72
4020,note_on,,1,0,17,,,,,,,,,,,,,,,,13,,61,72
4020,note_on,,0,0,18,,,,,,,,,,,,,,,,15,,76,72
4020,note_on,,1,0,10,,,,,,,,,,,,,,,,5,,69,72
4020,note_on,,1,0,6,,,,,,,,,,,,,,,,1,,61,72
4020,note_on,,1,0,12,,,,,,,,,,,,,,,,7,,64,72
4020,note_on,,1,0,13,,,,,,,,,,,,,,,,8,,61,72
4020,note_on,,1,0,11,,,,,,,,,,,,,,,,6,,69,72
4020,note_on,,1,0,5,,,,,,,,,,,,,,,,0,,69,72
4079,note_on,,59,0,5,,,,,,,,,,,,,,,,0,,69,0
4079,note_on,,59,0,12,,,,,,,,,,,,,,,,7,,64,0
4079,note_on,,59,0,11,,,,,,,,,,,,,,,,6,,69,0
4079,note_on,,0,0,18,,,,,,,,,,,,,,,,15,,69,0
4079,note_on,,0,0,18,,,,,,,,,,,,,,,,15,,64,0
4079,note_on,,59,0,17,,,,,,,,,,,,,,,,13,,61,0
4079,note_on,,0,0,18,,,,,,,,,,,,,,,,15,,76,0
4079,note_on,,59,0,18,,,,,,,,,,,,,,,,15,,61,0
4079,note_on,,59,0,13,,,,,,,,,,,,,,,,8,,61,0
4079,note_on,,59,0,10,,,,,,,,,,,,,,,,5,,69,0
4079,note_on,,59,0,6,,,,,,,,,,,,,,,,1,,61,0
4080,note_on,,1,0,10,,,,,,,,,,,,,,,,5,,78,72
4080,note_on,,1,0,11,,,,,,,,,,,,,,,,6,,69,72
4080,note_on,,1,0,18,,,,,,,,,,,,,,,,15,,62,72
4080,note_on,,0,0,18,,,,,,,,,,,,,,,,15,,74,72
4080,note_on,,1,0,13,,,,,,,,,,,,,,,,8,,62,72
4080,note_on,,1,0,5,,,,,,,,,,,,,,,,0,,78,72
4080,note_on,,0,0,18,,,,,,,,,,,,,,,,15,,66,72
4080,note_on,,1,0,17,,,,,,,,,,,,,,,,13,,62,72
4080,note_on,,1,0,12,,,,,,,,,,,,,,,,7,,62,72
4080,note_on,,1,0,6,,,,,,,,,,,,,,,,1,,62,72
4080,note_on,,0,0,18,,,,,,,,,,,,,,,,15,,69,72
4139,note_on,,59,0,10,,,,,,,,,,,,,,,,5,,78,0
4139,note_on,,59,0,18,,,,,,,,,,,,,,,,15,,62,0
4139,note_on,,59,0,17,,,,,,,,,,,,,,,,13,,62,0
4139,note_on,,59,0,11,,,,,,,,,,,,,,,,6,,69,0
4139,note_on,,0,0,18,,,,,,,,,,,,,,,,15,,74,0
4139,note_on,,59,0,5,,,,,,,,,,,,,,,,0,,78,0
4139,note_on,,0,0,18,,,,,,,,,,,,,,,,15,,69,0
4139,note_on,,0,0,18,,,,,,,,,,,,,,,,15,,66,0
4139,note_on,,59,0,6,,,,,,,,,,,,,,,,1,,62,0
4139,note_on,,59,0,13,,,,,,,,,,,,,,,,8,,62,0
4139,note_on,,59,0,12,,,,,,,,,,,,,,,,7,,62,0
4140,note_on,,181,0,15,,,,,,,,,,,,,,,,11,,73,72
4140,note_on,,1,0,6,,,,,,,,,,,,,,,,1,,57,72
4140,note_on,,1,0,10,,,,,,,,,,,,,,,,5,,76,72
4140,note_on,,1,0,12,,,,,,,,,,,,,,,,7,,61,72
4140,note_on,,181,0,14,,,,,,,,,,,,,,,,10,,76,72
4140,note_on,,181,0,16,,,,,,,,,,,,,,,,12,,69,72
4140,note_on,,1,0,13,,,,,,,,,,,,,,,,8,,57,72
4140,note_on,,1,0,11,,,,,,,,,,,,,,,,6,,69,72
4140,note_on,,0,0,18,,,,,,,,,,,,,,,,15,,73,72
4140,note_on,,0,0,18,,,,,,,,,,,,,,,,15,,69,72
4140,note_on,,1,0,18,,,,,,,,,,,,,,,,15,,57,72
4140,note_on,,1,0,17,,,,,,,,,,,,,,,,13,,57,72
4140,note_on,,1,0,5,,,,,,,,,,,,,,,,0,,76,72
4140,note_on,,0,0,18,,,,,,,,,,,,,,,,15,,64,72
4169,note_on,,29,0,15,,,,,,,,,,,,,,,,11,,73,0
4169,note_on,,29,0,16,,,,,,,,,,,,,,,,12,,69,0
4169,note_on,,29,0,14,,,,,,,,,,,,,,,,10,,76,0
4170,note_on,,1,0,15,,,,,,,,,,,,,,,,11,,73,72
4170,note_on,,1,0,16,,,,,,,,,,,,,,,,12,,69,72
4170,note_on,,1,0,14,,,,,,,,,,,,,,,,10,,76,72
4199,note_on,,59,0,18,,,,,,,,,,,,,,,,15,,57,0
4199,note_on,,0,0,18,,,,,,,,,,,,,,,,15,,73,0
4199,note_on,,0,0,18,,,,,,,,,,,,,,,,15,,69,0
4199,note_on,,59,0,17,,,,,,,,,,,,,,,,13,,57,0
4199,note_on,,0,0,18,,,,,,,,,,,,,,,,15,,64,0
4199,note_on,,29,0,16,,,,,,,,,,,,,,,,12,,69,0
4199,note_on,,59,0,12,,,,,,,,,,,,,,,,7,,61,0
4199,note_on,,59,0,5,,,,,,,,,,,,,,,,0,,76,0
4199,note_on,,59,0,6,,,,,,,,,,,,,,,,1,,57,0
4199,note_on,,29,0,14,,,,,,,,,,,,,,,,10,,76,0
4199,note_on,,59,0,13,,,,,,,,,,,,,,,,8,,57,0
4199,note_on,,59,0,11,,,,,,,,,,,,,,,,6,,69,0
4199,note_on,,29,0,15,,,,,,,,,,,,,,,,11,,73,0
4199,note_on,,59,0,10,,,,,,,,,,,,,,,,5,,76,0
4200,note_on,,1,0,14,,,,,,,,,,,,,,,,10,,78,72
4200,note_on,,1,0,16,,,,,,,,,,,,,,,,12,,69,72
4200,note_on,,1,0,15,,,,,,,,,,,,,,,,11,,74,72
4259,note_on,,59,0,16,,,,,,,,,,,,,,,,12,,69,0
4259,note_on,,59,0,14,,,,,,,,,,,,,,,,10,,78,0
4259,note_on,,59,0,15,,,,,,,,,,,,,,,,11,,74,0
4260,note_on,,61,0,10,,,,,,,,,,,,,,,,5,,76,72
4260,note_on,,61,0,18,,,,,,,,,,,,,,,,15,,61,72
4260,note_on,,0,0,18,,,,,,,,,,,,,,,,15,,69,72
4260,note_on,,0,0,18,,,,,,,,,,,,,,,,15,,64,72
4260,note_on,,61,0,12,,,,,,,,,,,,,,,,7,,64,72
4260,note_on,,61,0,6,,,,,,,,,,,,,,,,1,,61,72
4260,note_on,,1,0,15,,,,,,,,,,,,,,,,11,,73,72
4260,note_on,,1,0,14,,,,,,,,,,,,,,,,10,,76,72
4260,note_on,,61,0,13,,,,,,,,,,,,,,,,8,,61,72
4260,note_on,,1,0,16,,,,,,,,,,,,,,,,12,,69,72
4260,note_on,,61,0,5,,,,,,,,,,,,,,,,0,,76,72
4260,note_on,,61,0,11,,,,,,,,,,,,,,,,6,,69,72
4260,note_on,,61,0,17,,,,,,,,,,,,,,,,13,,61,72
4289,note_on,,29,0,12,,,,,,,,,,,,,,,,7,,64,0
4289,note_on,,29,0,10,,,,,,,,,,,,,,,,5,,76,0
4289,note_on,,0,0,18,,,,,,,,,,,,,,,,15,,64,0
4289,note_on,,0,0,18,,,,,,,,,,,,,,,,15,,69,0
4289,note_on,,29,0,18,,,,,,,,,,,,,,,,15,,61,0
4289,note_on,,29,0,11,,,,,,,,,,,,,,,,6,,69,0
4289,note_on,,29,0,6,,,,,,,,,,,,,,,,1,,61,0
4289,note_on,,29,0,13,,,,,,,,,,,,,,,,8,,61,0
4289,note_on,,29,0,5,,,,,,,,,,,,,,,,0,,76,0
4289,note_on,,29,0,17,,,,,,,,,,,,,,,,13,,61,0
4290,note_on,,1,0,5,,,,,,,,,,,,,,,,0,,76,72
4290,note_on,,1,0,6,,,,,,,,,,,,,,,,1,,61,72
4290,note_on,,1,0,11,,,,,,,,,,,,,,,,6,,69,72
4290,note_on,,1,0,12,,,,,,,,,,,,,,,,7,,64,72
4290,note_on,,1,0,17,,,,,,,,,,,,,,,,13,,61,72
4290,note_on,,1,0,18,,,,,,,,,,,,,,,,15,,61,72
4290,note_on,,0,0,18,,,,,,,,,,,,,,,,15,,69,72
4290,note_on,,0,0,18,,,,,,,,,,,,,,,,15,,64,72
4290,note_on,,1,0,10,,,,,,,,,,,,,,,,5,,76,72
4290,note_on,,1,0,13,,,,,,,,,,,,,,,,8,,61,72
4319,note_on,,29,0,18,,,,,,,,,,,,,,,,15,,61,0
4319,note_on,,0,0,18,,,,,,,,,,,,,,,,15,,69,0
4319,note_on,,29,0,12,,,,,,,,,,,,,,,,7,,64,0
4319,note_on,,59,0,14,,,,,,,,,,,,,,,,10,,76,0
4319,note_on,,0,0,18,,,,,,,,,,,,,,,,15,,64,0
4319,note_on,,59,0,15,,,,,,,,,,,,,,,,11,,73,0
4319,note_on,,29,0,6,,,,,,,,,,,,,,,,1,,61,0
4319,note_on,,29,0,11,,,,,,,,,,,,,,,,6,,69,0
4319,note_on,,29,0,17,,,,,,,,,,,,,,,,13,,61,0
4319,note_on,,59,0,16,,,,,,,,,,,,,,,,12,,69,0
4319,note_on,,29,0,10,,,,,,,,,,,,,,,,5,,76,0
4319,note_on,,29,0,5,,,,,,,,,,,,,,,,0,,76,0
4319,note_on,,29,0,13,,,,,,,,,,,,,,,,8,,61,0
4320,note_on,,1,0,11,,,,,,,,,,,,,,,,6,,69,72
4320,note_on,,1,0,17,,,,,,,,,,,,,,,,13,,62,72
4320,note_on,,0,0,18,,,,,,,,,,,,,,,,15,,66,72
4320,note_on,,1,0,10,,,,,,,,,,,,,,,,5,,78,72
4320,note_on,,1,0,12,,,,,,,,,,,,,,,,7,,62,72
4320,note_on,,1,0,6,,,,,,,,,,,,,,,,1,,62,72
4320,note_on,,1,0,18,,,,,,,,,,,,,,,,15,,62,72
4320,note_on,,1,0,5,,,,,,,,,,,,,,,,0,,78,72
4320,note_on,,1,0,13,,,,,,,,,,,,,,,,8,,62,72
4320,note_on,,0,0,18,,,,,,,,,,,,,,,,15,,69,72
4379,note_on,,59,0,10,,,,,,,,,,,,,,,,5,,78,0
4379,note_on,,59,0,13,,,,,,,,,,,,,,,,8,,62,0
4379,note_on,,59,0,11,,,,,,,,,,,,,,,,6,,69,0
4379,note_on,,59,0,6,,,,,,,,,,,,,,,,1,,62,0
4379,note_on,,0,0,18,,,,,,,,,,,,,,,,15,,66,0
4379,note_on,,59,0,12,,,,,,,,,,,,,,,,7,,62,0
4379,note_on,,59,0,5,,,,,,,,,,,,,,,,0,,78,0
4379,note_on,,59,0,17,,,,,,,,,,,,,,,,13,,62,0
4379,note_on,,0,0,18,,,,,,,,,,,,,,,,15,,69,0
4379,note_on,,59,0,18,,,,,,,,,,,,,,,,15,,62,0
4380,note_on,,1,0,5,,,,,,,,,,,,,,,,0,,76,72
4380,note_on,,0,0,18,,,,,,,,,,,,,,,,15,,69,72
4380,note_on,,0,0,18,,,,,,,,,,,,,,,,15,,64,72
4380,note_on,,0,0,18,,,,,,,,,,,,,,,,15,,61,72
4380,note_on,,1,0,11,,,,,,,,,,,,,,,,6,,69,72
4380,note_on,,1,0,10,,,,,,,,,,,,,,,,5,,76,72
4380,note_on,,1,0,13,,,,,,,,,,,,,,,,8,,57,72
4380,note_on,,61,0,15,,,,,,,,,,,,,,,,11,,76,72
4380,note_on,,1,0,17,,,,,,,,,,,,,,,,13,,57,72
4380,note_on,,61,0,14,,,,,,,,,,,,,,,,10,,85,72
4380,note_on,,1,0,6,,,,,,,,,,,,,,,,1,,57,72
4380,note_on,,1,0,12,,,,,,,,,,,,,,,,7,,61,72
4380,note_on,,61,0,16,,,,,,,,,,,,,,,,12,,69,72
4380,note_on,,1,0,18,,,,,,,,,,,,,,,,15,,57,72
4409,note_on,,29,0,15,,,,,,,,,,,,,,,,11,,76,0
4409,note_on,,29,0,14,,,,,,,,,,,,,,,,10,,85,0
4409,note_on,,29,0,16,,,,,,,,,,,,,,,,12,,69,0
4410,note_on,,1,0,15,,,,,,,,,,,,,,,,11,,76,72
4410,note_on,,1,0,14,,,,,,,,,,,,,,,,10,,85,72
4410,note_on,,1,0,16,,,,,,,,,,,,,,,,12,,69,72
4439,note_on,,59,0,10,,,,,,,,,,,,,,,,5,,76,0
4439,note_on,,59,0,13,,,,,,,,,,,,,,,,8,,57,0
4439,note_on,,29,0,16,,,,,,,,,,,,,,,,12,,69,0
4439,note_on,,59,0,17,,,,,,,,,,,,,,,,13,,57,0
4439,note_on,,0,0,18,,,,,,,,,,,,,,,,15,,64,0
4439,note_on,,0,0,18,,,,,,,,,,,,,,,,15,,69,0
4439,note_on,,59,0,11,,,,,,,,,,,,,,,,6,,69,0
4439,note_on,,0,0,18,,,,,,,,,,,,,,,,15,,61,0
4439,note_on,,29,0,15,,,,,,,,,,,,,,,,11,,76,0
4439,note_on,,59,0,12,,,,,,,,,,,,,,,,7,,61,0
4439,note_on,,59,0,6,,,,,,,,,,,,,,,,1,,57,0
4439,note_on,,59,0,5,,,,,,,,,,,,,,,,0,,76,0
4439,note_on,,29,0,14,,,,,,,,,,,,,,,,10,,85,0
4439,note_on,,59,0,18,,,,,,,,,,,,,,,,15,,57,0
4440,note_on,,1,0,15,,,,,,,,,,,,,,,,11,,78,72
4440,note_on,,1,0,16,,,,,,,,,,,,,,,,12,,69,72
4440,note_on,,1,0,14,,,,,,,,,,,,,,,,10,,86,72
4499,note_on,,59,0,14,,,,,,,,,,,,,,,,10,,86,0
4499,note_on,,59,0,16,,,,,,,,,,,,,,,,12,,69,0
4499,note_on,,59,0,15,,,,,,,,,,,,,,,,11,,78,0
4500,note_on,,1,0,16,,,,,,,,,,,,,,,,12,,69,72
4500,note_on,,0,0,18,,,,,,,,,,,,,,,,15,,64,72
4500,note_on,,61,0,17,,,,,,,,,,,,,,,,13,,61,72
4500,note_on,,1,0,14,,,,,,,,,,,,,,,,10,,85,72
4500,note_on,,61,0,11,,,,,,,,,,,,,,,,6,,69,72
4500,note_on,,0,0,18,,,,,,,,,,,,,,,,15,,69,72
4500,note_on,,61,0,10,,,,,,,,,,,,,,,,5,,76,72
4500,note_on,,1,0,15,,,,,,,,,,,,,,,,11,,76,72
4500,note_on,,61,0,12,,,,,,,,,,,,,,,,7,,64,72
4500,note_on,,61,0,5,,,,,,,,,,,,,,,,0,,76,72
4500,note_on,,61,0,6,,,,,,,,,,,,,,,,1,,61,72
4500,note_on,,61,0,13,,,,,,,,,,,,,,,,8,,61,72
4500,note_on,,61,0,18,,,,,,,,,,,,,,,,15,,61,72
4529,note_on,,29,0,12,,,,,,,,,,,,,,,,7,,64,0
4529,note_on,,29,0,11,,,,,,,,,,,,,,,,6,,69,0
4529,note_on,,29,0,5,,,,,,,,,,,,,,,,0,,76,0
4529,note_on,,0,0,18,,,,,,,,,,,,,,,,15,,69,0
4529,note_on,,29,0,18,,,,,,,,,,,,,,,,15,,61,0
4529,note_on,,29,0,6,,,,,,,,,,,,,,,,1,,61,0
4529,note_on,,0,0,18,,,,,,,,,,,,,,,,15,,64,0
4529,note_on,,29,0,17,,,,,,,,,,,,,,,,13,,61,0
4529,note_on,,29,0,13,,,,,,,,,,,,,,,,8,,61,0
4529,note_on,,29,0,10,,,,,,,,,,,,,,,,5,,76,0
4530,note_on,,0,0,18,,,,,,,,,,,,,,,,15,,69,72
4530,note_on,,0,0,18,,,,,,,,,,,,,,,,15,,64,72
4530,note_on,,1,0,12,,,,,,,,,,,,,,,,7,,64,72
4530,note_on,,1,0,18,,,,,,,,,,,,,,,,15,,61,72
4530,note_on,,1,0,10,,,,,,,,,,,,,,,,5,,76,72
4530,note_on,,1,0,11,,,,,,,,,,,,,,,,6,,69,72
4530,note_on,,1,0,5,,,,,,,,,,,,,,,,0,,76,72
4530,note_on,,1,0,13,,,,,,,,,,,,,,,,8,,61,72
4530,note_on,,1,0,17,,,,,,,,,,,,,,,,13,,61,72
4530,note_on,,1,0,6,,,,,,,,,,,,,,,,1,,61,72
4559,note_on,,59,0,16,,,,,,,,,,,,,,,,12,,69,0
4559,note_on,,29,0,6,,,,,,,,,,,,,,,,1,,61,0
4559,note_on,,29,0,13,,,,,,,,,,,,,,,,8,,61,0
4559,note_on,,0,0,18,,,,,,,,,,,,,,,,15,,64,0
4559,note_on,,59,0,15,,,,,,,,,,,,,,,,11,,76,0
4559,note_on,,29,0,18,,,,,,,,,,,,,,,,15,,61,0
4559,note_on,,29,0,5,,,,,,,,,,,,,,,,0,,76,0
4559,note_on,,29,0,11,,,,,,,,,,,,,,,,6,,69,0
4559,note_on,,29,0,10,,,,,,,,,,,,,,,,5,,76,0
4559,note_on,,59,0,14,,,,,,,,,,,,,,,,10,,85,0
4559,note_on,,29,0,17,,,,,,,,,,,,,,,,13,,61,0
4559,note_on,,0,0,18,,,,,,,,,,,,,,,,15,,69,0
4559,note_on,,29,0,12,,,,,,,,,,,,,,,,7,,64,0
4560,note_on,,1,0,5,,,,,,,,,,,,,,,,0,,78,72
4560,note_on,,1,0,18,,,,,,,,,,,,,,,,15,,62,72
4560,note_on,,1,0,6,,,,,,,,,,,,,,,,1,,62,72
4560,note_on,,1,0,17,,,,,,,,,,,,,,,,13,,62,72
4560,note_on,,0,0,18,,,,,,,,,,,,,,,,15,,66,72
4560,note_on,,0,0,18,,,,,,,,,,,,,,,,15,,69,72
4560,note_on,,1,0,11,,,,,,,,,,,,,,,,6,,69,72
4560,note_on,,1,0,10,,,,,,,,,,,,,,,,5,,78,72
4560,note_on,,1,0,12,,,,,,,,,,,,,,,,7,,62,72
4560,note_on,,1,0,13,,,,,,,,,,,,,,,,8,,62,72
4619,note_on,,59,0,6,,,,,,,,,,,,,,,,1,,62,0
4619,note_on,,59,0,17,,,,,,,,,,,,,,,,13,,62,0
4619,note_on,,59,0,12,,,,,,,,,,,,,,,,7,,62,0
4619,note_on,,0,0,18,,,,,,,,,,,,,,,,15,,66,0
4619,note_on,,0,0,18,,,,,,,,,,,,,,,,15,,69,0
4619,note_on,,59,0,10,,,,,,,,,,,,,,,,5,,78,0
4619,note_on,,59,0,13,,,,,,,,,,,,,,,,8,,62,0
4619,note_on,,59,0,18,,,,,,,,,,,,,,,,15,,62,0
4619,note_on,,59,0,5,,,,,,,,,,,,,,,,0,,78,0
4619,note_on,,59,0,11,,,,,,,,,,,,,,,,6,,69,0
4620,note_on,,61,0,15,,,,,,,,,,,,,,,,11,,76,72
4620,note_on,,1,0,6,,,,,,,,,,,,,,,,1,,57,72
4620,note_on,,1,0,5,,,,,,,,,,,,,,,,0,,76,72
4620,note_on,,1,0,12,,,,,,,,,,,,,,,,7,,61,72
4620,note_on,,0,0,18,,,,,,,,,,,,,,,,15,,61,72
4620,note_on,,0,0,18,,,,,,,,,,,,,,,,15,,64,72
4620,note_on,,0,0,18,,,,,,,,,,,,,,,,15,,69,72
4620,note_on,,1,0,18,,,,,,,,,,,,,,,,15,,57,72
4620,note_on,,1,0,17,,,,,,,,,,,,,,,,13,,57,72
4620,note_on,,61,0,14,,,,,,,,,,,,,,,,10,,85,72
4620,note_on,,1,0,11,,,,,,,,,,,,,,,,6,,69,72
4620,note_on,,61,0,16,,,,,,,,,,,,,,,,12,,69,72
4620,note_on,,1,0,13,,,,,,,,,,,,,,,,8,,57,72
4620,note_on,,1,0,10,,,,,,,,,,,,,,,,5,,76,72
4649,note_on,,29,0,16,,,,,,,,,,,,,,,,12,,69,0
4649,note_on,,29,0,15,,,,,,,,,,,,,,,,11,,76,0
4649,note_on,,29,0,14,,,,,,,,,,,,,,,,10,,85,0
4650,note_on,,1,0,15,,,,,,,,,,,,,,,,11,,76,72
4650,note_on,,1,0,14,,,,,,,,,,,,,,,,10,,85,72
4650,note_on,,1,0,16,,,,,,,,,,,,,,,,12,,69,72
4679,note_on,,0,0,18,,,,,,,,,,,,,,,,15,,69,0
4679,note_on,,0,0,18,,,,,,,,,,,,,,,,15,,64,0
4679,note_on,,0,0,18,,,,,,,,,,,,,,,,15,,61,0
4679,note_on,,59,0,6,,,,,,,,,,,,,,,,1,,57,0
4679,note_on,,59,0,13,,,,,,,,,,,,,,,,8,,57,0
4679,note_on,,59,0,5,,,,,,,,,,,,,,,,0,,76,0
4679,note_on,,29,0,15,,,,,,,,,,,,,,,,11,,76,0
4679,note_on,,59,0,12,,,,,,,,,,,,,,,,7,,61,0
4679,note_on,,59,0,18,,,,,,,,,,,,,,,,15,,57,0
4679,note_on,,59,0,10,,,,,,,,,,,,,,,,5,,76,0
4679,note_on,,59,0,11,,,,,,,,,,,,,,,,6,,69,0
4679,note_on,,59,0,17,,,,,,,,,,,,,,,,13,,57,0
4679,note_on,,29,0,14,,,,,,,,,,,,,,,,10,,85,0
4679,note_on,,29,0,16,,,,,,,,,,,,,,,,12,,69,0
4680,note_on,,1,0,16,,,,,,,,,,,,,,,,12,,69,72
4680,note_on,,1,0,15,,,,,,,,,,,,,,,,11,,78,72
4680,note_on,,1,0,14,,,,,,,,,,,,,,,,10,,86,72
4739,note_on,,59,0,15,,,,,,,,,,,,,,,,11,,78,0
4739,note_on,,59,0,16,,,,,,,,,,,,,,,,12,,69,0
4739,note_on,,59,0,14,,,,,,,,,,,,,,,,10,,86,0
4740,note_on,,61,0,10,,,,,,,,,,,,,,,,5,,76,72
4740,note_on,,1,0,16,,,,,,,,,,,,,,,,12,,69,72
4740,note_on,,61,0,13,,,,,,,,,,,,,,,,8,,61,72
4740,note_on,,61,0,6,,,,,,,,,,,,,,,,1,,61,72
4740,note_on,,61,0,17,,,,,,,,,,,,,,,,13,,61,72
4740,note_on,,61,0,5,,,,,,,,,,,,,,,,0,,76,72
4740,note_on,,61,0,11,,,,,,,,,,,,,,,,6,,69,72
4740,note_on,,1,0,14,,,,,,,,,,,,,,,,10,,85,72
4740,note_on,,1,0,15,,,,,,,,,,,,,,,,11,,76,72
4740,note_on,,61,0,12,,,,,,,,,,,,,,,,7,,64,72
4740,note_on,,0,0,18,,,,,,,,,,,,,,,,15,,69,72
4740,note_on,,61,0,18,,,,,,,,,,,,,,,,15,,61,72
4740,note_on,,0,0,18,,,,,,,,,,,,,,,,15,,64,72
4799,note_on,,0,0,18,,,,,,,,,,,,,,,,15,,64,0
4799,note_on,,59,0,5,,,,,,,,,,,,,,,,0,,76,0
4799,note_on,,59,0,10,,,,,,,,,,,,,,,,5,,76,0
4799,note_on,,59,0,16,,,,,,,,,,,,,,,,12,,69,0
4799,note_on,,0,0,18,,,,,,,,,,,,,,,,15,,69,0
4799,note_on,,59,0,11,,,,,,,,,,,,,,,,6,,69,0
4799,note_on,,59,0,18,,,,,,,,,,,,,,,,15,,61,0
4799,note_on,,59,0,6,,,,,,,,,,,,,,,,1,,61,0
4799,note_on,,59,0,12,,,,,,,,,,,,,,,,7,,64,0
4799,note_on,,59,0,17,,,,,,,,,,,,,,,,13,,61,0
4799,note_on,,59,0,13,,,,,,,,,,,,,,,,8,,61,0
4799,note_on,,59,0,14,,,,,,,,,,,,,,,,10,,85,0
4799,note_on,,59,0,15,,,,,,,,,,,,,,,,11,,76,0
4800,note_on,,0,0,18,,,,,,,,,,,,,,,,15,,69,72
4800,note_on,,1,0,14,,,,,,,,,,,,,,,,10,,78,72
4800,note_on,,0,0,18,,,,,,,,,,,,,,,,15,,66,72
4800,note_on,,1,0,5,,,,,,,,,,,,,,,,0,,78,72
4800,note_on,,1,0,12,,,,,,,,,,,,,,,,7,,62,72
4800,note_on,,1,0,15,,,,,,,,,,,,,,,,11,,69,72
4800,note_on,,1,0,16,,,,,,,,,,,,,,,,12,,74,72
4800,note_on,,1,0,11,,,,,,,,,,,,,,,,6,,69,72
4800,note_on,,1,0,13,,,,,,,,,,,,,,,,8,,62,72
4800,note_on,,1,0,10,,,,,,,,,,,,,,,,5,,78,72
4800,note_on,,1,0,6,,,,,,,,,,,,,,,,1,,62,72
4800,note_on,,1,0,17,,,,,,,,,,,,,,,,13,,62,72
4800,note_on,,1,0,18,,,,,,,,,,,,,,,,15,,62,72
4859,note_on,,59,0,16,,,,,,,,,,,,,,,,12,,74,0
4859,note_on,,59,0,5,,,,,,,,,,,,,,,,0,,78,0
4859,note_on,,59,0,10,,,,,,,,,,,,,,,,5,,78,0
4859,note_on,,59,0,6,,,,,,,,,,,,,,,,1,,62,0
4859,note_on,,59,0,14,,,,,,,,,,,,,,,,10,,78,0
4859,note_on,,59,0,18,,,,,,,,,,,,,,,,15,,62,0
4859,note_on,,59,0,17,,,,,,,,,,,,,,,,13,,62,0
4859,note_on,,59,0,13,,,,,,,,,,,,,,,,8,,62,0
4859,note_on,,59,0,12,,,,,,,,,,,,,,,,7,,62,0
4859,note_on,,59,0,15,,,,,,,,,,,,,,,,11,,69,0
4859,note_on,,0,0,18,,,,,,,,,,,,,,,,15,,66,0
4860,note_on,,1,0,15,,,,,,,,,,,,,,,,11,,76,72
4860,note_on,,1,0,10,,,,,,,,,,,,,,,,5,,76,72
4860,note_on,,1,0,13,,,,,,,,,,,,,,,,8,,61,72
4860,note_on,,1,0,14,,,,,,,,,,,,,,,,10,,81,72
4860,note_on,,0,0,18,,,,,,,,,,,,,,,,15,,61,72
4860,note_on,,1,0,18,,,,,,,,,,,,,,,,15,,64,72
4860,note_on,,1,0,17,,,,,,,,,,,,,,,,13,,61,72
4860,note_on,,1,0,16,,,,,,,,,,,,,,,,12,,69,72
4860,note_on,,1,0,6,,,,,,,,,,,,,,,,1,,61,72
4860,note_on,,1,0,5,,,,,,,,,,,,,,,,0,,76,72
4860,note_on,,1,0,12,,,,,,,,,,,,,,,,7,,64,72
4919,note_on,,59,0,15,,,,,,,,,,,,,,,,11,,76,0
4919,note_on,,59,0,6,,,,,,,,,,,,,,,,1,,61,0
4919,note_on,,59,0,13,,,,,,,,,,,,,,,,8,,61,0
4919,note_on,,0,0,18,,,,,,,,,,,,,,,,15,,61,0
4919,note_on,,59,0,18,,,,,,,,,,,,,,,,15,,64,0
4919,note_on,,59,0,17,,,,,,,,,,,,,,,,13,,61,0
4919,note_on,,59,0,5,,,,,,,,,,,,,,,,0,,76,0
4919,note_on,,59,0,16,,,,,,,,,,,,,,,,12,,69,0
4919,note_on,,59,0,10,,,,,,,,,,,,,,,,5,,76,0
4919,note_on,,59,0,12,,,,,,,,,,,,,,,,7,,64,0
4920,note_on,,1,0,10,,,,,,,,,,,,,,,,5,,74,72
4920,note_on,,1,0,17,,,,,,,,,,,,,,,,13,,59,72
4920,note_on,,1,0,5,,,,,,,,,,,,,,,,0,,74,72
4920,note_on,,1,0,15,,,,,,,,,,,,,,,,11,,74,72
4920,note_on,,1,0,12,,,,,,,,,,,,,,,,7,,66,72
4920,note_on,,1,0,13,,,,,,,,,,,,,,,,8,,59,72
4920,note_on,,1,0,18,,,,,,,,,,,,,,,,15,,59,72
4920,note_on,,0,0,18,,,,,,,,,,,,,,,,15,,71,72
4920,note_on,,0,0,18,,,,,,,,,,,,,,,,15,,62,72
4920,note_on,,1,0,6,,,,,,,,,,,,,,,,1,,59,72
4920,note_on,,1,0,16,,,,,,,,,,,,,,,,12,,71,72
4979,note_on,,59,0,12,,,,,,,,,,,,,,,,7,,66,0
4979,note_on,,59,0,18,,,,,,,,,,,,,,,,15,,69,0
4979,note_on,,119,0,14,,,,,,,,,,,,,,,,10,,81,0
4979,note_on,,179,0,11,,,,,,,,,,,,,,,,6,,69,0
4980,note_on,,1,0,12,,,,,,,,,,,,,,,,7,,62,72
4980,note_on,,1,0,14,,,,,,,,,,,,,,,,10,,80,72
4980,note_on,,1,0,11,,,,,,,,,,,,,,,,6,,68,72
4980,note_on,,1,0,18,,,,,,,,,,,,,,,,15,,68,72
5039,note_on,,0,0,18,,,,,,,,,,,,,,,,15,,62,0
5039,note_on,,0,0,18,,,,,,,,,,,,,,,,15,,68,0
5039,note_on,,119,0,15,,,,,,,,,,,,,,,,11,,74,0
5039,note_on,,59,0,14,,,,,,,,,,,,,,,,10,,80,0
5039,note_on,,119,0,16,,,,,,,,,,,,,,,,12,,71,0
5039,note_on,,59,0,12,,,,,,,,,,,,,,,,7,,62,0
5039,note_on,,0,0,18,,,,,,,,,,,,,,,,15,,71,0
5039,note_on,,119,0,17,,,,,,,,,,,,,,,,13,,59,0
5039,note_on,,119,0,5,,,,,,,,,,,,,,,,0,,74,0
5039,note_on,,119,0,10,,,,,,,,,,,,,,,,5,,74,0
5039,note_on,,59,0,11,,,,,,,,,,,,,,,,6,,68,0
5039,note_on,,119,0,13,,,,,,,,,,,,,,,,8,,59,0
5039,note_on,,59,0,18,,,,,,,,,,,,,,,,15,,59,0
5039,note_on,,119,0,6,,,,,,,,,,,,,,,,1,,59,0
5040,note_on,,1,0,12,,,,,,,,,,,,,,,,7,,64,72
5040,note_on,,1,0,5,,,,,,,,,,,,,,,,0,,73,72
5040,note_on,,1,0,15,,,,,,,,,,,,,,,,11,,73,72
5040,note_on,,1,0,14,,,,,,,,,,,,,,,,10,,81,72
5040,note_on,,1,0,16,,,,,,,,,,,,,,,,12,,64,72
5040,note_on,,1,0,6,,,,,,,,,,,,,,,,1,,57,72
5040,note_on,,1,0,18,,,,,,,,,,,,,,,,15,,57,72
5040,note_on,,0,0,18,,,,,,,,,,,,,,,,15,,73,72
5040,note_on,,0,0,18,,,,,,,,,,,,,,,,15,,69,72
5040,note_on,,1,0,13,,,,,,,,,,,,,,,,8,,57,72
5040,note_on,,0,0,18,,,,,,,,,,,,,,,,15,,64,72
5040,note_on,,1,0,11,,,,,,,,,,,,,,,,6,,69,72
5040,note_on,,1,0,17,,,,,,,,,,,,,,,,13,,57,72
5040,note_on,,1,0,10,,,,,,,,,,,,,,,,5,,73,72
5099,note_on,,59,0,14,,,,,,,,,,,,,,,,10,,81,0
5099,note_on,,59,0,15,,,,,,,,,,,,,,,,11,,73,0
5099,note_on,,59,0,16,,,,,,,,,,,,,,,,12,,64,0
5100,note_on,,1,0,16,,,,,,,,,,,,,,,,12,,69,72
5100,note_on,,1,0,14,,,,,,,,,,,,,,,,10,,76,72
5100,note_on,,1,0,15,,,,,,,,,,,,,,,,11,,73,72
5129,note_on,,29,0,16,,,,,,,,,,,,,,,,12,,69,0
5129,note_on,,29,0,15,,,,,,,,,,,,,,,,11,,73,0
5129,note_on,,29,0,14,,,,,,,,,,,,,,,,10,,76,0
5130,note_on,,1,0,15,,,,,,,,,,,,,,,,11,,73,72
5130,note_on,,1,0,16,,,,,,,,,,,,,,,,12,,69,72
5130,note_on,,1,0,14,,,,,,,,,,,,,,,,10,,76,72
5159,note_on,,29,0,14,,,,,,,,,,,,,,,,10,,76,0
5159,note_on,,119,0,17,,,,,,,,,,,,,,,,13,,57,0
5159,note_on,,29,0,15,,,,,,,,,,,,,,,,11,,73,0
5159,note_on,,0,0,18,,,,,,,,,,,,,,,,15,,64,0
5159,note_on,,0,0,18,,,,,,,,,,,,,,,,15,,69,0
5159,note_on,,0,0,18,,,,,,,,,,,,,,,,15,,73,0
5159,note_on,,119,0,18,,,,,,,,,,,,,,,,15,,57,0
5159,note_on,,119,0,11,,,,,,,,,,,,,,,,6,,69,0
5159,note_on,,119,0,10,,,,,,,,,,,,,,,,5,,73,0
5159,note_on,,119,0,12,,,,,,,,,,,,,,,,7,,64,0
5159,note_on,,119,0,13,,,,,,,,,,,,,,,,8,,57,0
5159,note_on,,119,0,6,,,,,,,,,,,,,,,,1,,57,0
5159,note_on,,119,0,5,,,,,,,,,,,,,,,,0,,73,0
5159,note_on,,29,0,16,,,,,,,,,,,,,,,,12,,69,0
5160,note_on,,1,0,15,,,,,,,,,,,,,,,,11,,74,72
5160,note_on,,1,0,16,,,,,,,,,,,,,,,,12,,69,72
5160,note_on,,1,0,14,,,,,,,,,,,,,,,,10,,78,72
5219,note_on,,59,0,14,,,,,,,,,,,,,,,,10,,78,0
5219,note_on,,59,0,16,,,,,,,,,,,,,,,,12,,69,0
5219,note_on,,59,0,15,,,,,,,,,,,,,,,,11,,74,0
5220,note_on,,1,0,16,,,,,,,,,,,,,,,,12,,69,72
5220,note_on,,1,0,14,,,,,,,,,,,,,,,,10,,76,72
5220,note_on,,1,0,15,,,,,,,,,,,,,,,,11,,73,72
5279,note_on,,59,0,16,,,,,,,,,,,,,,,,12,,69,0
5279,note_on,,59,0,14,,,,,,,,,,,,,,,,10,,76,0
5279,note_on,,59,0,15,,,,,,,,,,,,,,,,11,,73,0
5280,note_on,,1,0,16,,,,,,,,,,,,,,,,12,,69,72
5280,note_on,,121,0,13,,,,,,,,,,,,,,,,8,,57,72
5280,note_on,,121,0,6,,,,,,,,,,,,,,,,1,,57,72
5280,note_on,,121,0,12,,,,,,,,,,,,,,,,7,,57,72
5280,note_on,,121,0,10,,,,,,,,,,,,,,,,5,,69,72
5280,note_on,,121,0,11,,,,,,,,,,,,,,,,6,,69,72
5280,note_on,,121,0,17,,,,,,,,,,,,,,,,13,,57,72
5280,note_on,,121,0,5,,,,,,,,,,,,,,,,0,,69,72
5280,note_on,,121,0,18,,,,,,,,,,,,,,,,15,,57,72
5280,note_on,,0,0,18,,,,,,,,,,,,,,,,15,,69,72
5280,note_on,,1,0,15,,,,,,,,,,,,,,,,11,,69,72
5280,note_on,,1,0,14,,,,,,,,,,,,,,,,10,,69,72
5519,note_on,,239,0,15,,,,,,,,,,,,,,,,11,,69,0
5519,note_on,,239,0,17,,,,,,,,,,,,,,,,13,,57,0
5519,note_on,,239,0,5,,,,,,,,,,,,,,,,0,,69,0
5519,note_on,,0,0,18,,,,,,,,,,,,,,,,15,,69,0
5519,note_on,,239,0,16,,,,,,,,,,,,,,,,12,,69,0
5519,note_on,,239,0,6,,,,,,,,,,,,,,,,1,,57,0
5519,note_on,,239,0,18,,,,,,,,,,,,,,,,15,,57,0
5519,note_on,,239,0,12,,,,,,,,,,,,,,,,7,,57,0
5519,note_on,,239,0,10,,,,,,,,,,,,,,,,5,,69,0
5519,note_on,,239,0,11,,,,,,,,,,,,,,,,6,,69,0
5519,note_on,,239,0,14,,,,,,,,,,,,,,,,10,,69,0
5519,note_on,,239,0,13,,,,,,,,,,,,,,,,8,,57,0
5520,note_on,,1,0,12,,,,,,,,,,,,,,,,7,,59,72
5520,note_on,,1,0,13,,,,,,,,,,,,,,,,8,,59,72
5520,note_on,,1,0,14,,,,,,,,,,,,,,,,10,,71,72
5520,note_on,,1,0,10,,,,,,,,,,,,,,,,5,,71,72
5520,note_on,,1,0,11,,,,,,,,,,,,,,,,6,,59,72
5520,note_on,,1,0,6,,,,,,,,,,,,,,,,1,,59,72
5520,note_on,,1,0,15,,,,,,,,,,,,,,,,11,,71,72
5520,note_on,,1,0,5,,,,,,,,,,,,,,,,0,,71,72
5520,note_on,,1,0,17,,,,,,,,,,,,,,,,13,,59,72
5520,note_on,,0,0,18,,,,,,,,,,,,,,,,15,,71,72
5520,note_on,,1,0,18,,,,,,,,,,,,,,,,15,,59,72
5520,note_on,,1,0,16,,,,,,,,,,,,,,,,12,,71,72
5639,note_on,,119,0,6,,,,,,,,,,,,,,,,1,,59,0
5639,note_on,,119,0,5,,,,,,,,,,,,,,,,0,,71,0
5639,note_on,,119,0,12,,,,,,,,,,,,,,,,7,,59,0
5639,note_on,,119,0,14,,,,,,,,,,,,,,,,10,,71,0
5639,note_on,,119,0,10,,,,,,,,,,,,,,,,5,,71,0
5639,note_on,,119,0,16,,,,,,,,,,,,,,,,12,,71,0
5639,note_on,,119,0,17,,,,,,,,,,,,,,,,13,,59,0
5639,note_on,,119,0,11,,,,,,,,,,,,,,,,6,,59,0
5639,note_on,,119,0,18,,,,,,,,,,,,,,,,15,,59,0
5639,note_on,,0,0,18,,,,,,,,,,,,,,,,15,,71,0
5639,note_on,,119,0,13,,,,,,,,,,,,,,,,8,,59,0
5639,note_on,,119,0,15,,,,,,,,,,,,,,,,11,,71,0
5640,note_on,,1,0,5,,,,,,,,,,,,,,,,0,,73,72
5640,note_on,,1,0,14,,,,,,,,,,,,,,,,10,,73,72
5640,note_on,,1,0,12,,,,,,,,,,,,,,,,7,,61,72
5640,note_on,,1,0,13,,,,,,,,,,,,,,,,8,,61,72
5640,note_on,,1,0,18,,,,,,,,,,,,,,,,15,,61,72
5640,note_on,,0,0,18,,,,,,,,,,,,,,,,15,,73,72
5640,note_on,,1,0,17,,,,,,,,,,,,,,,,13,,61,72
5640,note_on,,1,0,11,,,,,,,,,,,,,,,,6,,61,72
5640,note_on,,1,0,10,,,,,,,,,,,,,,,,5,,73,72
5640,note_on,,1,0,6,,,,,,,,,,,,,,,,1,,61,72
5640,note_on,,1,0,15,,,,,,,,,,,,,,,,11,,73,72
5640,note_on,,1,0,16,,,,,,,,,,,,,,,,12,,73,72
5759,note_on,,119,0,11,,,,,,,,,,,,,,,,6,,61,0
5759,note_on,,119,0,18,,,,,,,,,,,,,,,,15,,61,0
5759,note_on,,119,0,6,,,,,,,,,,,,,,,,1,,61,0
5759,note_on,,119,0,14,,,,,,,,,,,,,,,,10,,73,0
5759,note_on,,119,0,5,,,,,,,,,,,,,,,,0,,73,0
5759,note_on,,119,0,17,,,,,,,,,,,,,,,,13,,61,0
5759,note_on,,119,0,16,,,,,,,,,,,,,,,,12,,73,0
5759,note_on,,119,0,10,,,,,,,,,,,,,,,,5,,73,0
5759,note_on,,119,0,15,,,,,,,,,,,,,,,,11,,73,0
5759,note_on,,119,0,13,,,,,,,,,,,,,,,,8,,61,0
5759,note_on,,119,0,12,,,,,,,,,,,,,,,,7,,61,0
5759,note_on,,0,0,18,,,,,,,,,,,,,,,,15,,73,0
5760,note_on,,1,0,18,,,,,,,,,,,,,,,,15,,62,72
5760,note_on,,1,0,17,,,,,,,,,,,,,,,,13,,62,72
5760,note_on,,1,0,10,,,,,,,,,,,,,,,,5,,74,72
5760,note_on,,1,0,13,,,,,,,,,,,,,,,,8,,62,72
5760,note_on,,0,0,18,,,,,,,,,,,,,,,,15,,74,72
5760,note_on,,1,0,12,,,,,,,,,,,,,,,,7,,62,72
5760,note_on,,1,0,6,,,,,,,,,,,,,,,,1,,62,72
5760,note_on,,1,0,14,,,,,,,,,,,,,,,,10,,74,72
5760,note_on,,1,0,15,,,,,,,,,,,,,,,,11,,74,72
5760,note_on,,1,0,5,,,,,,,,,,,,,,,,0,,74,72
5760,note_on,,1,0,16,,,,,,,,,,,,,,,,12,,74,72
5760,note_on,,1,0,11,,,,,,,,,,,,,,,,6,,62,72
5819,note_on,,59,0,6,,,,,,,,,,,,,,,,1,,62,0
5819,note_on,,59,0,5,,,,,,,,,,,,,,,,0,,74,0
5819,note_on,,0,0,18,,,,,,,,,,,,,,,,15,,74,0
5819,note_on,,59,0,17,,,,,,,,,,,,,,,,13,,62,0
5819,note_on,,59,0,13,,,,,,,,,,,,,,,,8,,62,0
5819,note_on,,59,0,11,,,,,,,,,,,,,,,,6,,62,0
5819,note_on,,59,0,15,,,,,,,,,,,,,,,,11,,74,0
5819,note_on,,59,0,16,,,,,,,,,,,,,,,,12,,74,0
5819,note_on,,59,0,18,,,,,,,,,,,,,,,,15,,62,0
5819,note_on,,59,0,14,,,,,,,,,,,,,,,,10,,74,0
5819,note_on,,59,0,12,,,,,,,,,,,,,,,,7,,62,0
5819,note_on,,59,0,10,,,,,,,,,,,,,,,,5,,74,0
5820,note_on,,1,0,18,,,,,,,,,,,,,,,,15,,50,72
5820,note_on,,1,0,14,,,,,,,,,,,,,,,,10,,62,72
5820,note_on,,1,0,15,,,,,,,,,,,,,,,,11,,62,72
5820,note_on,,0,0,18,,,,,,,,,,,,,,,,15,,62,72
5820,note_on,,1,0,16,,,,,,,,,,,,,,,,12,,62,72
5820,note_on,,1,0,6,,,,,,,,,,,,,,,,1,,50,72
5820,note_on,,1,0,13,,,,,,,,,,,,,,,,8,,50,72
5820,note_on,,1,0,5,,,,,,,,,,,,,,,,0,,62,72
5820,note_on,,1,0,10,,,,,,,,,,,,,,,,5,,62,72
5820,note_on,,1,0,17,,,,,,,,,,,,,,,,13,,50,72
5820,note_on,,1,0,11,,,,,,,,,,,,,,,,6,,62,72
5820,note_on,,1,0,12,,,,,,,,,,,,,,,,7,,50,72
5879,note_on,,59,0,13,,,,,,,,,,,,,,,,8,,50,0
5879,note_on,,59,0,11,,,,,,,,,,,,,,,,6,,62,0
5879,note_on,,59,0,14,,,,,,,,,,,,,,,,10,,62,0
5879,note_on,,59,0,15,,,,,,,,,,,,,,,,11,,62,0
5879,note_on,,59,0,17,,,,,,,,,,,,,,,,13,,50,0
5879,note_on,,59,0,12,,,,,,,,,,,,,,,,7,,50,0
5879,note_on,,59,0,18,,,,,,,,,,,,,,,,15,,50,0
5879,note_on,,59,0,16,,,,,,,,,,,,,,,,12,,62,0
5879,note_on,,0,0,18,,,,,,,,,,,,,,,,15,,62,0
5879,note_on,,59,0,10,,,,,,,,,,,,,,,,5,,62,0
5879,note_on,,59,0,5,,,,,,,,,,,,,,,,0,,62,0
5879,note_on,,59,0,6,,,,,,,,,,,,,,,,1,,50,0
5880,note_on,,1,0,14,,,,,,,,,,,,,,,,10,,74,72
5880,note_on,,1,0,5,,,,,,,,,,,,,,,,0,,74,72
5880,note_on,,1,0,6,,,,,,,,,,,,,,,,1,,62,72
5880,note_on,,1,0,11,,,,,,,,,,,,,,,,6,,62,72
5880,note_on,,1,0,12,,,,,,,,,,,,,,,,7,,62,72
5880,note_on,,1,0,16,,,,,,,,,,,,,,,,12,,74,72
5880,note_on,,1,0,15,,,,,,,,,,,,,,,,11,,74,72
5880,note_on,,1,0,17,,,,,,,,,,,,,,,,13,,62,72
5880,note_on,,1,0,13,,,,,,,,,,,,,,,,8,,62,72
5880,note_on,,1,0,18,,,,,,,,,,,,,,,,15,,62,72
5880,note_on,,0,0,18,,,,,,,,,,,,,,,,15,,74,72
5880,note_on,,1,0,10,,,,,,,,,,,,,,,,5,,74,72
6059,note_on,,179,0,11,,,,,,,,,,,,,,,,6,,62,0
6059,note_on,,179,0,5,,,,,,,,,,,,,,,,0,,74,0
6059,note_on,,179,0,13,,,,,,,,,,,,,,,,8,,62,0
6059,note_on,,179,0,12,,,,,,,,,,,,,,,,7,,62,0
6059,note_on,,179,0,10,,,,,,,,,,,,,,,,5,,74,0
6060,note_on,,1,0,11,,,,,,,,,,,,,,,,6,,62,72
6060,note_on,,1,0,12,,,,,,,,,,,,,,,,7,,62,72
6060,note_on,,1,0,10,,,,,,,,,,,,,,,,5,,74,72
6060,note_on,,1,0,13,,,,,,,,,,,,,,,,8,,62,72
6060,note_on,,1,0,5,,,,,,,,,,,,,,,,0,,74,72
6119,note_on,,239,0,15,,,,,,,,,,,,,,,,11,,74,0
6119,note_on,,59,0,11,,,,,,,,,,,,,,,,6,,62,0
6119,note_on,,59,0,13,,,,,,,,,,,,,,,,8,,62,0
6119,note_on,,59,0,12,,,,,,,,,,,,,,,,7,,62,0
6119,note_on,,239,0,6,,,,,,,,,,,,,,,,1,,62,0
6119,note_on,,59,0,10,,,,,,,,,,,,,,,,5,,74,0
6119,note_on,,239,0,18,,,,,,,,,,,,,,,,15,,62,0
6119,note_on,,239,0,14,,,,,,,,,,,,,,,,10,,74,0
6119,note_on,,239,0,16,,,,,,,,,,,,,,,,12,,74,0
6119,note_on,,0,0,18,,,,,,,,,,,,,,,,15,,74,0
6119,note_on,,59,0,5,,,,,,,,,,,,,,,,0,,74,0
6119,note_on,,239,0,17,,,,,,,,,,,,,,,,13,,62,0
6120,note_on,,1,0,11,,,,,,,,,,,,,,,,6,,61,72
6120,note_on,,1,0,12,,,,,,,,,,,,,,,,7,,61,72
6120,note_on,,1,0,15,,,,,,,,,,,,,,,,11,,73,72
6120,note_on,,1,0,16,,,,,,,,,,,,,,,,12,,73,72
6120,note_on,,1,0,18,,,,,,,,,,,,,,,,15,,61,72
6120,note_on,,1,0,17,,,,,,,,,,,,,,,,13,,61,72
6120,note_on,,1,0,5,,,,,,,,,,,,,,,,0,,73,72
6120,note_on,,0,0,18,,,,,,,,,,,,,,,,15,,73,72
6120,note_on,,1,0,6,,,,,,,,,,,,,,,,1,,61,72
6120,note_on,,1,0,13,,,,,,,,,,,,,,,,8,,61,72
6120,note_on,,1,0,14,,,,,,,,,,,,,,,,10,,73,72
6120,note_on,,1,0,10,,,,,,,,,,,,,,,,5,,73,72
6239,note_on,,119,0,13,,,,,,,,,,,,,,,,8,,61,0
6239,note_on,,0,0,18,,,,,,,,,,,,,,,,15,,73,0
6239,note_on,,119,0,12,,,,,,,,,,,,,,,,7,,61,0
6239,note_on,,119,0,15,,,,,,,,,,,,,,,,11,,73,0
6239,note_on,,119,0,5,,,,,,,,,,,,,,,,0,,73,0
6239,note_on,,119,0,16,,,,,,,,,,,,,,,,12,,73,0
6239,note_on,,119,0,11,,,,,,,,,,,,,,,,6,,61,0
6239,note_on,,119,0,10,,,,,,,,,,,,,,,,5,,73,0
6239,note_on,,119,0,6,,,,,,,,,,,,,,,,1,,61,0
6239,note_on,,119,0,14,,,,,,,,,,,,,,,,10,,73,0
6239,note_on,,119,0,17,,,,,,,,,,,,,,,,13,,61,0
6239,note_on,,119,0,18,,,,,,,,,,,,,,,,15,,61,0
6240,note_on,,1,0,17,,,,,,,,,,,,,,,,13,,59,72
6240,note_on,,1,0,5,,,,,,,,,,,,,,,,0,,71,72
6240,note_on,,1,0,12,,,,,,,,,,,,,,,,7,,59,72
6240,note_on,,1,0,11,,,,,,,,,,,,,,,,6,,59,72
6240,note_on,,1,0,16,,,,,,,,,,,,,,,,12,,71,72
6240,note_on,,1,0,10,,,,,,,,,,,,,,,,5,,71,72
6240,note_on,,1,0,13,,,,,,,,,,,,,,,,8,,59,72
6240,note_on,,1,0,14,,,,,,,,,,,,,,,,10,,71,72
6240,note_on,,1,0,15,,,,,,,,,,,,,,,,11,,71,72
6240,note_on,,1,0,6,,,,,,,,,,,,,,,,1,,59,72
6240,note_on,,0,0,18,,,,,,,,,,,,,,,,15,,71,72
6240,note_on,,1,0,18,,,,,,,,,,,,,,,,15,,59,72
6479,note_on,,239,0,11,,,,,,,,,,,,,,,,6,,59,0
6479,note_on,,239,0,12,,,,,,,,,,,,,,,,7,,59,0
6479,note_on,,0,0,18,,,,,,,,,,,,,,,,15,,71,0
6479,note_on,,239,0,14,,,,,,,,,,,,,,,,10,,71,0
6479,note_on,,239,0,16,,,,,,,,,,,,,,,,12,,71,0
6479,note_on,,239,0,18,,,,,,,,,,,,,,,,15,,59,0
6479,note_on,,239,0,6,,,,,,,,,,,,,,,,1,,59,0
6479,note_on,,239,0,13,,,,,,,,,,,,,,,,8,,59,0
6479,note_on,,239,0,5,,,,,,,,,,,,,,,,0,,71,0
6479,note_on,,239,0,10,,,,,,,,,,,,,,,,5,,71,0
6479,note_on,,239,0,15,,,,,,,,,,,,,,,,11,,71,0
6479,note_on,,239,0,17,,,,,,,,,,,,,,,,13,,59,0
6480,note_on,,1,0,18,,,,,,,,,,,,,,,,15,,57,72
6480,note_on,,1,0,5,,,,,,,,,,,,,,,,0,,69,72
6480,note_on,,1,0,16,,,,,,,,,,,,,,,,12,,69,72
6480,note_on,,1,0,15,,,,,,,,,,,,,,,,11,,69,72
6480,note_on,,0,0,18,,,,,,,,,,,,,,,,15,,69,72
6480,note_on,,1,0,6,,,,,,,,,,,,,,,,1,,57,72
6480,note_on,,1,0,11,,,,,,,,,,,,,,,,6,,57,72
6480,note_on,,1,0,10,,,,,,,,,,,,,,,,5,,69,72
6480,note_on,,1,0,14,,,,,,,,,,,,,,,,10,,69,72
6480,note_on,,1,0,12,,,,,,,,,,,,,,,,7,,57,72
6480,note_on,,1,0,13,,,,,,,,,,,,,,,,8,,57,72
6480,note_on,,1,0,17,,,,,,,,,,,,,,,,13,,57,72
6599,note_on,,119,0,17,,,,,,,,,,,,,,,,13,,57,0
6599,note_on,,119,0,10,,,,,,,,,,,,,,,,5,,69,0
6599,note_on,,119,0,16,,,,,,,,,,,,,,,,12,,69,0
6599,note_on,,119,0,12,,,,,,,,,,,,,,,,7,,57,0
6599,note_on,,119,0,15,,,,,,,,,,,,,,,,11,,69,0
6599,note_on,,119,0,6,,,,,,,,,,,,,,,,1,,57,0
6599,note_on,,119,0,14,,,,,,,,,,,,,,,,10,,69,0
6599,note_on,,119,0,18,,,,,,,,,,,,,,,,15,,57,0
6599,note_on,,0,0,18,,,,,,,,,,,,,,,,15,,69,0
6599,note_on,,119,0,13,,,,,,,,,,,,,,,,8,,57,0
6599,note_on,,119,0,5,,,,,,,,,,,,,,,,0,,69,0
6599,note_on,,119,0,11,,,,,,,,,,,,,,,,6,,57,0
6660,note_on,,61,0,13,,,,,,,,,,,,,,,,8,,61,72
6660,note_on,,61,0,12,,,,,,,,,,,,,,,,7,,57,72
6660,note_on,,6660,0,9,,,,,,,,,,,,,,,,4,,45,72
6660,note_on,,61,0,18,,,,,,,,,,,,,,,,15,,61,72
6660,note_on,,61,0,5,,,,,,,,,,,,,,,,0,,76,72
6660,note_on,,61,0,16,,,,,,,,,,,,,,,,12,,69,72
6660,note_on,,0,0,18,,,,,,,,,,,,,,,,15,,76,72
6660,note_on,,0,0,18,,,,,,,,,,,,,,,,15,,69,72
6660,note_on,,0,0,18,,,,,,,,,,,,,,,,15,,64,72
6660,note_on,,6660,0,7,,,,,,,,,,,,,,,,2,,76,72
6660,note_on,,61,0,14,,,,,,,,,,,,,,,,10,,81,72
6660,note_on,,61,0,11,,,,,,,,,,,,,,,,6,,69,72
6660,note_on,,61,0,6,,,,,,,,,,,,,,,,1,,61,72
6660,note_on,,6660,0,8,,,,,,,,,,,,,,,,3,,69,72
6660,note_on,,61,0,15,,,,,,,,,,,,,,,,11,,76,72
6660,note_on,,61,0,10,,,,,,,,,,,,,,,,5,,76,72
6660,note_on,,61,0,17,,,,,,,,,,,,,,,,13,,61,72
6689,note_on,,29,0,6,,,,,,,,,,,,,,,,1,,61,0
6689,note_on,,29,0,15,,,,,,,,,,,,,,,,11,,76,0
6689,note_on,,29,0,13,,,,,,,,,,,,,,,,8,,61,0
6689,note_on,,29,0,12,,,,,,,,,,,,,,,,7,,57,0
6689,note_on,,29,0,10,,,,,,,,,,,,,,,,5,,76,0
6689,note_on,,29,0,7,,,,,,,,,,,,,,,,2,,76,0
6689,note_on,,29,0,9,,,,,,,,,,,,,,,,4,,45,0
6689,note_on,,29,0,11,,,,,,,,,,,,,,,,6,,69,0
6689,note_on,,29,0,17,,,,,,,,,,,,,,,,13,,61,0
6689,note_on,,0,0,18,,,,,,,,,,,,,,,,15,,76,0
6689,note_on,,0,0,18,,,,,,,,,,,,,,,,15,,69,0
6689,note_on,,29,0,14,,,,,,,,,,,,,,,,10,,81,0
6689,note_on,,29,0,5,,,,,,,,,,,,,,,,0,,76,0
6689,note_on,,29,0,18,,,,,,,,,,,,,,,,15,,61,0
6689,note_on,,29,0,8,,,,,,,,,,,,,,,,3,,69,0
6689,note_on,,29,0,16,,,,,,,,,,,,,,,,12,,69,0
6689,note_on,,0,0,18,,,,,,,,,,,,,,,,15,,64,0
6690,note_on,,1,0,15,,,,,,,,,,,,,,,,11,,76,72
6690,note_on,,1,0,13,,,,,,,,,,,,,,,,8,,61,72
6690,note_on,,1,0,5,,,,,,,,,,,,,,,,0,,76,72
6690,note_on,,1,0,10,,,,,,,,,,,,,,,,5,,76,72
6690,note_on,,1,0,17,,,,,,,,,,,,,,,,13,,61,72
6690,note_on,,1,0,8,,,,,,,,,,,,,,,,3,,69,72
6690,note_on,,1,0,7,,,,,,,,,,,,,,,,2,,76,72
6690,note_on,,1,0,18,,,,,,,,,,,,,,,,15,,61,72
6690,note_on,,1,0,14,,,,,,,,,,,,,,,,10,,81,72
6690,note_on,,1,0,6,,,,,,,,,,,,,,,,1,,61,72
6690,note_on,,1,0,12,,,,,,,,,,,,,,,,7,,57,72
6690,note_on,,1,0,11,,,,,,,,,,,,,,,,6,,69,72
6690,note_on,,0,0,18,,,,,,,,,,,,,,,,15,,76,72
6690,note_on,,0,0,18,,,,,,,,,,,,,,,,15,,69,72
6690,note_on,,0,0,18,,,,,,,,,,,,,,,,15,,64,72
6690,note_on,,1,0,16,,,,,,,,,,,,,,,,12,,69,72
6690,note_on,,1,0,9,,,,,,,,,,,,,,,,4,,45,72
6719,note_on,,0,0,18,,,,,,,,,,,,,,,,15,,69,0
6719,note_on,,29,0,6,,,,,,,,,,,,,,,,1,,61,0
6719,note_on,,29,0,8,,,,,,,,,,,,,,,,3,,69,0
6719,note_on,,29,0,14,,,,,,,,,,,,,,,,10,,81,0
6719,note_on,,29,0,5,,,,,,,,,,,,,,,,0,,76,0
6719,note_on,,29,0,16,,,,,,,,,,,,,,,,12,,69,0
6719,note_on,,29,0,17,,,,,,,,,,,,,,,,13,,61,0
6719,note_on,,0,0,18,,,,,,,,,,,,,,,,15,,64,0
6719,note_on,,29,0,7,,,,,,,,,,,,,,,,2,,76,0
6719,note_on,,29,0,13,,,,,,,,,,,,,,,,8,,61,0
6719,note_on,,29,0,9,,,,,,,,,,,,,,,,4,,45,0
6719,note_on,,29,0,15,,,,,,,,,,,,,,,,11,,76,0
6719,note_on,,29,0,18,,,,,,,,,,,,,,,,15,,61,0
6719,note_on,,0,0,18,,,,,,,,,,,,,,,,15,,76,0
6719,note_on,,29,0,10,,,,,,,,,,,,,,,,5,,76,0
6719,note_on,,29,0,11,,,,,,,,,,,,,,,,6,,69,0
6719,note_on,,29,0,12,,,,,,,,,,,,,,,,7,,57,0
6720,note_on,,0,0,18,,,,,,,,,,,,,,,,15,,69,72
6720,note_on,,0,0,18,,,,,,,,,,,,,,,,15,,74,72
6720,note_on,,1,0,11,,,,,,,,,,,,,,,,6,,69,72
6720,note_on,,1,0,17,,,,,,,,,,,,,,,,13,,62,72
6720,note_on,,1,0,6,,,,,,,,,,,,,,,,1,,62,72
6720,note_on,,1,0,14,,,,,,,,,,,,,,,,10,,86,72
6720,note_on,,1,0,18,,,,,,,,,,,,,,,,15,,62,72
6720,note_on,,1,0,10,,,,,,,,,,,,,,,,5,,74,72
6720,note_on,,1,0,13,,,,,,,,,,,,,,,,8,,62,72
6720,note_on,,0,0,18,,,,,,,,,,,,,,,,15,,66,72
6720,note_on,,1,0,15,,,,,,,,,,,,,,,,11,,78,72
6720,note_on,,1,0,8,,,,,,,,,,,,,,,,3,,69,72
6720,note_on,,1,0,16,,,,,,,,,,,,,,,,12,,69,72
6720,note_on,,1,0,12,,,,,,,,,,,,,,,,7,,66,72
6720,note_on,,1,0,9,,,,,,,,,,,,,,,,4,,50,72
6720,note_on,,1,0,7,,,,,,,,,,,,,,,,2,,78,72
6720,note_on,,1,0,5,,,,,,,,,,,,,,,,0,,74,72
6779,note_on,,59,0,12,,,,,,,,,,,,,,,,7,,66,0
6779,note_on,,59,0,14,,,,,,,,,,,,,,,,10,,86,0
6779,note_on,,59,0,11,,,,,,,,,,,,,,,,6,,69,0
6779,note_on,,59,0,9,,,,,,,,,,,,,,,,4,,50,0
6779,note_on,,59,0,10,,,,,,,,,,,,,,,,5,,74,0
6779,note_on,,59,0,7,,,,,,,,,,,,,,,,2,,78,0
6779,note_on,,59,0,16,,,,,,,,,,,,,,,,12,,69,0
6779,note_on,,59,0,17,,,,,,,,,,,,,,,,13,,62,0
6779,note_on,,59,0,6,,,,,,,,,,,,,,,,1,,62,0
6779,note_on,,59,0,18,,,,,,,,,,,,,,,,15,,62,0
6779,note_on,,0,0,18,,,,,,,,,,,,,,,,15,,74,0
6779,note_on,,59,0,15,,,,,,,,,,,,,,,,11,,78,0
6779,note_on,,59,0,13,,,,,,,,,,,,,,,,8,,62,0
6779,note_on,,59,0,8,,,,,,,,,,,,,,,,3,,69,0
6779,note_on,,59,0,5,,,,,,,,,,,,,,,,0,,74,0
6779,note_on,,0,0,18,,,,,,,,,,,,,,,,15,,69,0
6779,note_on,,0,0,18,,,,,,,,,,,,,,,,15,,66,0
6780,note_on,,1,0,10,,,,,,,,,,,,,,,,5,,73,72
6780,note_on,,0,0,18,,,,,,,,,,,,,,,,15,,64,72
6780,note_on,,1,0,15,,,,,,,,,,,,,,,,11,,76,72
6780,note_on,,1,0,14,,,,,,,,,,,,,,,,10,,85,72
6780,note_on,,0,0,18,,,,,,,,,,,,,,,,15,,73,72
6780,note_on,,1,0,18,,,,,,,,,,,,,,,,15,,57,72
6780,note_on,,1,0,7,,,,,,,,,,,,,,,,2,,76,72
6780,note_on,,1,0,13,,,,,,,,,,,,,,,,8,,57,72
6780,note_on,,1,0,16,,,,,,,,,,,,,,,,12,,69,72
6780,note_on,,0,0,18,,,,,,,,,,,,,,,,15,,69,72
6780,note_on,,1,0,11,,,,,,,,,,,,,,,,6,,69,72
6780,note_on,,1,0,17,,,,,,,,,,,,,,,,13,,57,72
6780,note_on,,1,0,6,,,,,,,,,,,,,,,,1,,57,72
6780,note_on,,1,0,12,,,,,,,,,,,,,,,,7,,64,72
6780,note_on,,1,0,9,,,,,,,,,,,,,,,,4,,45,72
6780,note_on,,1,0,8,,,,,,,,,,,,,,,,3,,69,72
6780,note_on,,1,0,5,,,,,,,,,,,,,,,,0,,73,72
6839,note_on,,59,0,11,,,,,,,,,,,,,,,,6,,69,0
6839,note_on,,59,0,12,,,,,,,,,,,,,,,,7,,64,0
6839,note_on,,59,0,9,,,,,,,,,,,,,,,,4,,45,0
6839,note_on,,59,0,15,,,,,,,,,,,,,,,,11,,76,0
6839,note_on,,59,0,13,,,,,,,,,,,,,,,,8,,57,0
6839,note_on,,59,0,5,,,,,,,,,,,,,,,,0,,73,0
6839,note_on,,59,0,10,,,,,,,,,,,,,,,,5,,73,0
6839,note_on,,59,0,8,,,,,,,,,,,,,,,,3,,69,0
6839,note_on,,59,0,16,,,,,,,,,,,,,,,,12,,69,0
6839,note_on,,59,0,7,,,,,,,,,,,,,,,,2,,76,0
6839,note_on,,0,0,18,,,,,,,,,,,,,,,,15,,73,0
6839,note_on,,0,0,18,,,,,,,,,,,,,,,,15,,64,0
6839,note_on,,59,0,6,,,,,,,,,,,,,,,,1,,57,0
6839,note_on,,0,0,18,,,,,,,,,,,,,,,,15,,69,0
6839,note_on,,59,0,17,,,,,,,,,,,,,,,,13,,57,0
6839,note_on,,59,0,14,,,,,,,,,,,,,,,,10,,85,0
6839,note_on,,59,0,18,,,,,,,,,,,,,,,,15,,57,0
6900,note_on,,61,0,15,,,,,,,,,,,,,,,,11,,76,72
6900,note_on,,61,0,11,,,,,,,,,,,,,,,,6,,69,72
6900,note_on,,61,0,17,,,,,,,,,,,,,,,,13,,61,72
6900,note_on,,61,0,9,,,,,,,,,,,,,,,,4,,45,72
6900,note_on,,61,0,13,,,,,,,,,,,,,,,,8,,61,72
6900,note_on,,61,0,16,,,,,,,,,,,,,,,,12,,69,72
6900,note_on,,61,0,14,,,,,,,,,,,,,,,,10,,81,72
6900,note_on,,61,0,7,,,,,,,,,,,,,,,,2,,76,72
6900,note_on,,61,0,18,,,,,,,,,,,,,,,,15,,61,72
6900,note_on,,0,0,18,,,,,,,,,,,,,,,,15,,76,72
6900,note_on,,0,0,18,,,,,,,,,,,,,,,,15,,69,72
6900,note_on,,0,0,18,,,,,,,,,,,,,,,,15,,64,72
6900,note_on,,61,0,12,,,,,,,,,,,,,,,,7,,64,72
6900,note_on,,61,0,5,,,,,,,,,,,,,,,,0,,76,72
6900,note_on,,61,0,6,,,,,,,,,,,,,,,,1,,61,72
6900,note_on,,61,0,10,,,,,,,,,,,,,,,,5,,76,72
6900,note_on,,61,0,8,,,,,,,,,,,,,,,,3,,69,72
6929,note_on,,29,0,10,,,,,,,,,,,,,,,,5,,76,0
6929,note_on,,29,0,13,,,,,,,,,,,,,,,,8,,61,0
6929,note_on,,29,0,8,,,,,,,,,,,,,,,,3,,69,0
6929,note_on,,29,0,12,,,,,,,,,,,,,,,,7,,64,0
6929,note_on,,29,0,7,,,,,,,,,,,,,,,,2,,76,0
6929,note_on,,29,0,15,,,,,,,,,,,,,,,,11,,76,0
6929,note_on,,29,0,18,,,,,,,,,,,,,,,,15,,61,0
6929,note_on,,0,0,18,,,,,,,,,,,,,,,,15,,76,0
6929,note_on,,29,0,14,,,,,,,,,,,,,,,,10,,81,0
6929,note_on,,0,0,18,,,,,,,,,,,,,,,,15,,69,0
6929,note_on,,29,0,5,,,,,,,,,,,,,,,,0,,76,0
6929,note_on,,0,0,18,,,,,,,,,,,,,,,,15,,64,0
6929,note_on,,29,0,9,,,,,,,,,,,,,,,,4,,45,0
6929,note_on,,29,0,6,,,,,,,,,,,,,,,,1,,61,0
6929,note_on,,29,0,11,,,,,,,,,,,,,,,,6,,69,0
6929,note_on,,29,0,16,,,,,,,,,,,,,,,,12,,69,0
6929,note_on,,29,0,17,,,,,,,,,,,,,,,,13,,61,0
6930,note_on,,1,0,18,,,,,,,,,,,,,,,,15,,61,72
6930,note_on,,1,0,9,,,,,,,,,,,,,,,,4,,45,72
6930,note_on,,1,0,10,,,,,,,,,,,,,,,,5,,76,72
6930,note_on,,0,0,18,,,,,,,,,,,,,,,,15,,76,72
6930,note_on,,1,0,12,,,,,,,,,,,,,,,,7,,64,72
6930,note_on,,0,0,18,,,,,,,,,,,,,,,,15,,69,72
6930,note_on,,0,0,18,,,,,,,,,,,,,,,,15,,64,72
6930,note_on,,1,0,15,,,,,,,,,,,,,,,,11,,76,72
6930,note_on,,1,0,5,,,,,,,,,,,,,,,,0,,76,72
6930,note_on,,1,0,16,,,,,,,,,,,,,,,,12,,69,72
6930,note_on,,1,0,14,,,,,,,,,,,,,,,,10,,81,72
6930,note_on,,1,0,13,,,,,,,,,,,,,,,,8,,61,72
6930,note_on,,1,0,8,,,,,,,,,,,,,,,,3,,69,72
6930,note_on,,1,0,7,,,,,,,,,,,,,,,,2,,76,72
6930,note_on,,1,0,11,,,,,,,,,,,,,,,,6,,69,72
6930,note_on,,1,0,6,,,,,,,,,,,,,,,,1,,61,72
6930,note_on,,1,0,17,,,,,,,,,,,,,,,,13,,61,72
6959,note_on,,0,0,18,,,,,,,,,,,,,,,,15,,64,0
6959,note_on,,0,0,18,,,,,,,,,,,,,,,,15,,69,0
6959,note_on,,0,0,18,,,,,,,,,,,,,,,,15,,76,0
6959,note_on,,29,0,18,,,,,,,,,,,,,,,,15,,61,0
6959,note_on,,29,0,11,,,,,,,,,,,,,,,,6,,69,0
6959,note_on,,29,0,6,,,,,,,,,,,,,,,,1,,61,0
6959,note_on,,29,0,14,,,,,,,,,,,,,,,,10,,81,0
6959,note_on,,29,0,16,,,,,,,,,,,,,,,,12,,69,0
6959,note_on,,29,0,10,,,,,,,,,,,,,,,,5,,76,0
6959,note_on,,29,0,17,,,,,,,,,,,,,,,,13,,61,0
6959,note_on,,29,0,7,,,,,,,,,,,,,,,,2,,76,0
6959,note_on,,29,0,12,,,,,,,,,,,,,,,,7,,64,0
6959,note_on,,29,0,8,,,,,,,,,,,,,,,,3,,69,0
6959,note_on,,29,0,15,,,,,,,,,,,,,,,,11,,76,0
6959,note_on,,29,0,13,,,,,,,,,,,,,,,,8,,61,0
6959,note_on,,29,0,9,,,,,,,,,,,,,,,,4,,45,0
6959,note_on,,29,0,5,,,,,,,,,,,,,,,,0,,76,0
6960,note_on,,1,0,14,,,,,,,,,,,,,,,,10,,86,72
6960,note_on,,1,0,7,,,,,,,,,,,,,,,,2,,78,72
6960,note_on,,1,0,11,,,,,,,,,,,,,,,,6,,69,72
6960,note_on,,1,0,10,,,,,,,,,,,,,,,,5,,74,72
6960,note_on,,1,0,13,,,,,,,,,,,,,,,,8,,62,72
6960,note_on,,0,0,18,,,,,,,,,,,,,,,,15,,74,72
6960,note_on,,1,0,17,,,,,,,,,,,,,,,,13,,62,72
6960,note_on,,1,0,5,,,,,,,,,,,,,,,,0,,74,72
6960,note_on,,1,0,12,,,,,,,,,,,,,,,,7,,66,72
6960,note_on,,1,0,8,,,,,,,,,,,,,,,,3,,69,72
6960,note_on,,1,0,18,,,,,,,,,,,,,,,,15,,62,72
6960,note_on,,1,0,15,,,,,,,,,,,,,,,,11,,78,72
6960,note_on,,1,0,6,,,,,,,,,,,,,,,,1,,62,72
6960,note_on,,1,0,16,,,,,,,,,,,,,,,,12,,69,72
6960,note_on,,0,0,18,,,,,,,,,,,,,,,,15,,66,72
6960,note_on,,0,0,18,,,,,,,,,,,,,,,,15,,69,72
6960,note_on,,1,0,9,,,,,,,,,,,,,,,,4,,50,72
7019,note_on,,59,0,14,,,,,,,,,,,,,,,,10,,86,0
7019,note_on,,59,0,8,,,,,,,,,,,,,,,,3,,69,0
7019,note_on,,59,0,6,,,,,,,,,,,,,,,,1,,62,0
7019,note_on,,59,0,7,,,,,,,,,,,,,,,,2,,78,0
7019,note_on,,59,0,17,,,,,,,,,,,,,,,,13,,62,0
7019,note_on,,59,0,16,,,,,,,,,,,,,,,,12,,69,0
7019,note_on,,0,0,18,,,,,,,,,,,,,,,,15,,66,0
7019,note_on,,59,0,11,,,,,,,,,,,,,,,,6,,69,0
7019,note_on,,59,0,10,,,,,,,,,,,,,,,,5,,74,0
7019,note_on,,59,0,5,,,,,,,,,,,,,,,,0,,74,0
7019,note_on,,59,0,12,,,,,,,,,,,,,,,,7,,66,0
7019,note_on,,59,0,13,,,,,,,,,,,,,,,,8,,62,0
7019,note_on,,59,0,9,,,,,,,,,,,,,,,,4,,50,0
7019,note_on,,0,0,18,,,,,,,,,,,,,,,,15,,69,0
7019,note_on,,0,0,18,,,,,,,,,,,,,,,,15,,74,0
7019,note_on,,59,0,18,,,,,,,,,,,,,,,,15,,62,0
7019,note_on,,59,0,15,,,,,,,,,,,,,,,,11,,78,0
7020,note_on,,1,0,12,,,,,,,,,,,,,,,,7,,64,72
7020,note_on,,1,0,14,,,,,,,,,,,,,,,,10,,85,72
7020,note_on,,1,0,6,,,,,,,,,,,,,,,,1,,57,72
7020,note_on,,1,0,15,,,,,,,,,,,,,,,,11,,76,72
7020,note_on,,1,0,16,,,,,,,,,,,,,,,,12,,69,72
7020,note_on,,1,0,18,,,,,,,,,,,,,,,,15,,57,72
7020,note_on,,1,0,17,,,,,,,,,,,,,,,,13,,57,72
7020,note_on,,0,0,18,,,,,,,,,,,,,,,,15,,64,72
7020,note_on,,0,0,18,,,,,,,,,,,,,,,,15,,69,72
7020,note_on,,1,0,13,,,,,,,,,,,,,,,,8,,57,72
7020,note_on,,0,0,18,,,,,,,,,,,,,,,,15,,73,72
7020,note_on,,1,0,7,,,,,,,,,,,,,,,,2,,76,72
7020,note_on,,1,0,10,,,,,,,,,,,,,,,,5,,73,72
7020,note_on,,1,0,8,,,,,,,,,,,,,,,,3,,69,72
7020,note_on,,1,0,9,,,,,,,,,,,,,,,,4,,45,72
7020,note_on,,1,0,11,,,,,,,,,,,,,,,,6,,69,72
7020,note_on,,1,0,5,,,,,,,,,,,,,,,,0,,73,72
7079,note_on,,59,0,17,,,,,,,,,,,,,,,,13,,57,0
7079,note_on,,59,0,13,,,,,,,,,,,,,,,,8,,57,0
7079,note_on,,59,0,8,,,,,,,,,,,,,,,,3,,69,0
7079,note_on,,59,0,11,,,,,,,,,,,,,,,,6,,69,0
7079,note_on,,59,0,16,,,,,,,,,,,,,,,,12,,69,0
7079,note_on,,59,0,6,,,,,,,,,,,,,,,,1,,57,0
7079,note_on,,59,0,5,,,,,,,,,,,,,,,,0,,73,0
7079,note_on,,0,0,18,,,,,,,,,,,,,,,,15,,64,0
7079,note_on,,0,0,18,,,,,,,,,,,,,,,,15,,69,0
7079,note_on,,59,0,14,,,,,,,,,,,,,,,,10,,85,0
7079,note_on,,59,0,9,,,,,,,,,,,,,,,,4,,45,0
7079,note_on,,59,0,7,,,,,,,,,,,,,,,,2,,76,0
7079,note_on,,59,0,15,,,,,,,,,,,,,,,,11,,76,0
7079,note_on,,59,0,12,,,,,,,,,,,,,,,,7,,64,0
7079,note_on,,59,0,10,,,,,,,,,,,,,,,,5,,73,0
7079,note_on,,59,0,18,,,,,,,,,,,,,,,,15,,57,0
7079,note_on,,0,0,18,,,,,,,,,,,,,,,,15,,73,0
7140,note_on,,0,0,18,,,,,,,,,,,,,,,,15,,64,72
7140,note_on,,0,0,18,,,,,,,,,,,,,,,,15,,76,72
7140,note_on,,0,0,18,,,,,,,,,,,,,,,,15,,81,72
7140,note_on,,61,0,18,,,,,,,,,,,,,,,,15,,61,72
7140,note_on,,61,0,7,,,,,,,,,,,,,,,,2,,81,72
7140,note_on,,61,0,8,,,,,,,,,,,,,,,,3,,76,72
7140,note_on,,61,0,5,,,,,,,,,,,,,,,,0,,76,72
7140,note_on,,61,0,14,,,,,,,,,,,,,,,,10,,81,72
7140,note_on,,61,0,6,,,,,,,,,,,,,,,,1,,61,72
7140,note_on,,0,0,18,,,,,,,,,,,,,,,,15,,69,72
7140,note_on,,61,0,12,,,,,,,,,,,,,,,,7,,64,72
7140,note_on,,61,0,11,,,,,,,,,,,,,,,,6,,69,72
7140,note_on,,61,0,15,,,,,,,,,,,,,,,,11,,76,72
7140,note_on,,61,0,9,,,,,,,,,,,,,,,,4,,45,72
7140,note_on,,61,0,10,,,,,,,,,,,,,,,,5,,76,72
7140,note_on,,61,0,16,,,,,,,,,,,,,,,,12,,69,72
7140,note_on,,61,0,13,,,,,,,,,,,,,,,,8,,61,72
7140,note_on,,61,0,17,,,,,,,,,,,,,,,,13,,61,72
7169,note_on,,0,0,18,,,,,,,,,,,,,,,,15,,69,0
7169,note_on,,0,0,18,,,,,,,,,,,,,,,,15,,76,0
7169,note_on,,29,0,18,,,,,,,,,,,,,,,,15,,61,0
7169,note_on,,29,0,16,,,,,,,,,,,,,,,,12,,69,0
7169,note_on,,0,0,18,,,,,,,,,,,,,,,,15,,81,0
7169,note_on,,29,0,17,,,,,,,,,,,,,,,,13,,61,0
7169,note_on,,29,0,12,,,,,,,,,,,,,,,,7,,64,0
7169,note_on,,29,0,9,,,,,,,,,,,,,,,,4,,45,0
7169,note_on,,29,0,7,,,,,,,,,,,,,,,,2,,81,0
7169,note_on,,29,0,11,,,,,,,,,,,,,,,,6,,69,0
7169,note_on,,29,0,15,,,,,,,,,,,,,,,,11,,76,0
7169,note_on,,0,0,18,,,,,,,,,,,,,,,,15,,64,0
7169,note_on,,29,0,14,,,,,,,,,,,,,,,,10,,81,0
7169,note_on,,29,0,5,,,,,,,,,,,,,,,,0,,76,0
7169,note_on,,29,0,10,,,,,,,,,,,,,,,,5,,76,0
7169,note_on,,29,0,6,,,,,,,,,,,,,,,,1,,61,0
7169,note_on,,29,0,13,,,,,,,,,,,,,,,,8,,61,0
7169,note_on,,29,0,8,,,,,,,,,,,,,,,,3,,76,0
7170,note_on,,1,0,17,,,,,,,,,,,,,,,,13,,61,72
7170,note_on,,1,0,5,,,,,,,,,,,,,,,,0,,76,72
7170,note_on,,1,0,9,,,,,,,,,,,,,,,,4,,45,72
7170,note_on,,1,0,15,,,,,,,,,,,,,,,,11,,76,72
7170,note_on,,1,0,10,,,,,,,,,,,,,,,,5,,76,72
7170,note_on,,1,0,14,,,,,,,,,,,,,,,,10,,81,72
7170,note_on,,1,0,8,,,,,,,,,,,,,,,,3,,76,72
7170,note_on,,1,0,16,,,,,,,,,,,,,,,,12,,69,72
7170,note_on,,1,0,7,,,,,,,,,,,,,,,,2,,81,72
7170,note_on,,1,0,13,,,,,,,,,,,,,,,,8,,61,72
7170,note_on,,1,0,11,,,,,,,,,,,,,,,,6,,69,72
7170,note_on,,1,0,18,,,,,,,,,,,,,,,,15,,61,72
7170,note_on,,0,0,18,,,,,,,,,,,,,,,,15,,81,72
7170,note_on,,0,0,18,,,,,,,,,,,,,,,,15,,76,72
7170,note_on,,0,0,18,,,,,,,,,,,,,,,,15,,69,72
7170,note_on,,0,0,18,,,,,,,,,,,,,,,,15,,64,72
7170,note_on,,1,0,6,,,,,,,,,,,,,,,,1,,61,72
7170,note_on,,1,0,12,,,,,,,,,,,,,,,,7,,64,72
7199,note_on,,29,0,7,,,,,,,,,,,,,,,,2,,81,0
7199,note_on,,29,0,11,,,,,,,,,,,,,,,,6,,69,0
7199,note_on,,29,0,14,,,,,,,,,,,,,,,,10,,81,0
7199,note_on,,29,0,9,,,,,,,,,,,,,,,,4,,45,0
7199,note_on,,29,0,12,,,,,,,,,,,,,,,,7,,64,0
7199,note_on,,0,0,18,,,,,,,,,,,,,,,,15,,76,0
7199,note_on,,29,0,17,,,,,,,,,,,,,,,,13,,61,0
7199,note_on,,29,0,15,,,,,,,,,,,,,,,,11,,76,0
7199,note_on,,0,0,18,,,,,,,,,,,,,,,,15,,69,0
7199,note_on,,29,0,10,,,,,,,,,,,,,,,,5,,76,0
7199,note_on,,29,0,8,,,,,,,,,,,,,,,,3,,76,0
7199,note_on,,29,0,16,,,,,,,,,,,,,,,,12,,69,0
7199,note_on,,29,0,13,,,,,,,,,,,,,,,,8,,61,0
7199,note_on,,0,0,18,,,,,,,,,,,,,,,,15,,64,0
7199,note_on,,29,0,18,,,,,,,,,,,,,,,,15,,61,0
7199,note_on,,0,0,18,,,,,,,,,,,,,,,,15,,81,0
7199,note_on,,29,0,5,,,,,,,,,,,,,,,,0,,76,0
7199,note_on,,29,0,6,,,,,,,,,,,,,,,,1,,61,0
7200,note_on,,1,0,5,,,,,,,,,,,,,,,,0,,78,72
7200,note_on,,1,0,9,,,,,,,,,,,,,,,,4,,50,72
7200,note_on,,1,0,16,,,,,,,,,,,,,,,,12,,69,72
7200,note_on,,1,0,8,,,,,,,,,,,,,,,,3,,78,72
7200,note_on,,1,0,11,,,,,,,,,,,,,,,,6,,69,72
7200,note_on,,1,0,17,,,,,,,,,,,,,,,,13,,62,72
7200,note_on,,1,0,15,,,,,,,,,,,,,,,,11,,78,72
7200,note_on,,1,0,13,,,,,,,,,,,,,,,,8,,62,72
7200,note_on,,1,0,12,,,,,,,,,,,,,,,,7,,62,72
7200,note_on,,1,0,6,,,,,,,,,,,,,,,,1,,62,72
7200,note_on,,0,0,18,,,,,,,,,,,,,,,,15,,69,72
7200,note_on,,0,0,18,,,,,,,,,,,,,,,,15,,74,72
7200,note_on,,0,0,18,,,,,,,,,,,,,,,,15,,81,72
7200,note_on,,1,0,18,,,,,,,,,,,,,,,,15,,62,72
7200,note_on,,1,0,7,,,,,,,,,,,,,,,,2,,81,72
7200,note_on,,1,0,14,,,,,,,,,,,,,,,,10,,86,72
7200,note_on,,0,0,18,,,,,,,,,,,,,,,,15,,66,72
7200,note_on,,1,0,10,,,,,,,,,,,,,,,,5,,78,72
7259,note_on,,59,0,5,,,,,,,,,,,,,,,,0,,78,0
7259,note_on,,59,0,16,,,,,,,,,,,,,,,,12,,69,0
7259,note_on,,59,0,10,,,,,,,,,,,,,,,,5,,78,0
7259,note_on,,0,0,18,,,,,,,,,,,,,,,,15,,74,0
7259,note_on,,0,0,18,,,,,,,,,,,,,,,,15,,66,0
7259,note_on,,0,0,18,,,,,,,,,,,,,,,,15,,69,0
7259,note_on,,0,0,18,,,,,,,,,,,,,,,,15,,81,0
7259,note_on,,59,0,18,,,,,,,,,,,,,,,,15,,62,0
7259,note_on,,59,0,7,,,,,,,,,,,,,,,,2,,81,0
7259,note_on,,59,0,8,,,,,,,,,,,,,,,,3,,78,0
7259,note_on,,59,0,17,,,,,,,,,,,,,,,,13,,62,0
7259,note_on,,59,0,14,,,,,,,,,,,,,,,,10,,86,0
7259,note_on,,59,0,6,,,,,,,,,,,,,,,,1,,62,0
7259,note_on,,59,0,15,,,,,,,,,,,,,,,,11,,78,0
7259,note_on,,59,0,9,,,,,,,,,,,,,,,,4,,50,0
7259,note_on,,59,0,13,,,,,,,,,,,,,,,,8,,62,0
7259,note_on,,59,0,11,,,,,,,,,,,,,,,,6,,69,0
7259,note_on,,59,0,12,,,,,,,,,,,,,,,,7,,62,0
7260,note_on,,0,0,18,,,,,,,,,,,,,,,,15,,73,72
7260,note_on,,0,0,18,,,,,,,,,,,,,,,,15,,81,72
7260,note_on,,1,0,18,,,,,,,,,,,,,,,,15,,57,72
7260,note_on,,1,0,15,,,,,,,,,,,,,,,,11,,76,72
7260,note_on,,1,0,11,,,,,,,,,,,,,,,,6,,69,72
7260,note_on,,1,0,5,,,,,,,,,,,,,,,,0,,76,72
7260,note_on,,1,0,10,,,,,,,,,,,,,,,,5,,76,72
7260,note_on,,1,0,8,,,,,,,,,,,,,,,,3,,76,72
7260,note_on,,0,0,18,,,,,,,,,,,,,,,,15,,64,72
7260,note_on,,1,0,12,,,,,,,,,,,,,,,,7,,61,72
7260,note_on,,1,0,16,,,,,,,,,,,,,,,,12,,69,72
7260,note_on,,1,0,9,,,,,,,,,,,,,,,,4,,45,72
7260,note_on,,1,0,17,,,,,,,,,,,,,,,,13,,57,72
7260,note_on,,1,0,14,,,,,,,,,,,,,,,,10,,85,72
7260,note_on,,1,0,13,,,,,,,,,,,,,,,,8,,57,72
7260,note_on,,1,0,7,,,,,,,,,,,,,,,,2,,81,72
7260,note_on,,1,0,6,,,,,,,,,,,,,,,,1,,57,72
7260,note_on,,0,0,18,,,,,,,,,,,,,,,,15,,69,72
7289,note_on,,29,0,14,,,,,,,,,,,,,,,,10,,85,0
7289,note_on,,29,0,15,,,,,,,,,,,,,,,,11,,76,0
7289,note_on,,29,0,7,,,,,,,,,,,,,,,,2,,81,0
7289,note_on,,29,0,16,,,,,,,,,,,,,,,,12,,69,0
7289,note_on,,29,0,9,,,,,,,,,,,,,,,,4,,45,0
7289,note_on,,29,0,8,,,,,,,,,,,,,,,,3,,76,0
7290,note_on,,1,0,7,,,,,,,,,,,,,,,,2,,81,72
7290,note_on,,1,0,14,,,,,,,,,,,,,,,,10,,85,72
7290,note_on,,1,0,15,,,,,,,,,,,,,,,,11,,76,72
7290,note_on,,1,0,16,,,,,,,,,,,,,,,,12,,69,72
7290,note_on,,1,0,9,,,,,,,,,,,,,,,,4,,45,72
7290,note_on,,1,0,8,,,,,,,,,,,,,,,,3,,76,72
7319,note_on,,59,0,10,,,,,,,,,,,,,,,,5,,76,0
7319,note_on,,59,0,12,,,,,,,,,,,,,,,,7,,61,0
7319,note_on,,29,0,14,,,,,,,,,,,,,,,,10,,85,0
7319,note_on,,59,0,11,,,,,,,,,,,,,,,,6,,69,0
7319,note_on,,59,0,17,,,,,,,,,,,,,,,,13,,57,0
7319,note_on,,29,0,9,,,,,,,,,,,,,,,,4,,45,0
7319,note_on,,29,0,16,,,,,,,,,,,,,,,,12,,69,0
7319,note_on,,29,0,15,,,,,,,,,,,,,,,,11,,76,0
7319,note_on,,59,0,13,,,,,,,,,,,,,,,,8,,57,0
7319,note_on,,0,0,18,,,,,,,,,,,,,,,,15,,81,0
7319,note_on,,59,0,5,,,,,,,,,,,,,,,,0,,76,0
7319,note_on,,29,0,8,,,,,,,,,,,,,,,,3,,76,0
7319,note_on,,29,0,7,,,,,,,,,,,,,,,,2,,81,0
7319,note_on,,0,0,18,,,,,,,,,,,,,,,,15,,64,0
7319,note_on,,0,0,18,,,,,,,,,,,,,,,,15,,69,0
7319,note_on,,0,0,18,,,,,,,,,,,,,,,,15,,73,0
7319,note_on,,59,0,6,,,,,,,,,,,,,,,,1,,57,0
7319,note_on,,59,0,18,,,,,,,,,,,,,,,,15,,57,0
7320,note_on,,1,0,15,,,,,,,,,,,,,,,,11,,76,72
7320,note_on,,1,0,16,,,,,,,,,,,,,,,,12,,69,72
7320,note_on,,1,0,7,,,,,,,,,,,,,,,,2,,81,72
7320,note_on,,1,0,14,,,,,,,,,,,,,,,,10,,85,72
7320,note_on,,1,0,9,,,,,,,,,,,,,,,,4,,45,72
7320,note_on,,1,0,8,,,,,,,,,,,,,,,,3,,76,72
7379,note_on,,59,0,7,,,,,,,,,,,,,,,,2,,81,0
7379,note_on,,59,0,8,,,,,,,,,,,,,,,,3,,76,0
7379,note_on,,59,0,16,,,,,,,,,,,,,,,,12,,69,0
7379,note_on,,59,0,9,,,,,,,,,,,,,,,,4,,45,0
7379,note_on,,59,0,15,,,,,,,,,,,,,,,,11,,76,0
7379,note_on,,59,0,14,,,,,,,,,,,,,,,,10,,85,0
7380,note_on,,1,0,8,,,,,,,,,,,,,,,,3,,69,72
7380,note_on,,1,0,14,,,,,,,,,,,,,,,,10,,81,72
7380,note_on,,1,0,16,,,,,,,,,,,,,,,,12,,73,72
7380,note_on,,61,0,11,,,,,,,,,,,,,,,,6,,69,72
7380,note_on,,61,0,17,,,,,,,,,,,,,,,,13,,61,72
7380,note_on,,61,0,10,,,,,,,,,,,,,,,,5,,76,72
7380,note_on,,1,0,7,,,,,,,,,,,,,,,,2,,76,72
7380,note_on,,1,0,15,,,,,,,,,,,,,,,,11,,76,72
7380,note_on,,61,0,13,,,,,,,,,,,,,,,,8,,61,72
7380,note_on,,0,0,18,,,,,,,,,,,,,,,,15,,64,72
7380,note_on,,0,0,18,,,,,,,,,,,,,,,,15,,69,72
7380,note_on,,0,0,18,,,,,,,,,,,,,,,,15,,76,72
7380,note_on,,0,0,18,,,,,,,,,,,,,,,,15,,81,72
7380,note_on,,61,0,18,,,,,,,,,,,,,,,,15,,61,72
7380,note_on,,61,0,5,,,,,,,,,,,,,,,,0,,76,72
7380,note_on,,61,0,12,,,,,,,,,,,,,,,,7,,64,72
7380,note_on,,61,0,6,,,,,,,,,,,,,,,,1,,61,72
7380,note_on,,1,0,9,,,,,,,,,,,,,,,,4,,45,72
7409,note_on,,29,0,15,,,,,,,,,,,,,,,,11,,76,0
7409,note_on,,0,0,18,,,,,,,,,,,,,,,,15,,76,0
7409,note_on,,0,0,18,,,,,,,,,,,,,,,,15,,69,0
7409,note_on,,0,0,18,,,,,,,,,,,,,,,,15,,64,0
7409,note_on,,29,0,9,,,,,,,,,,,,,,,,4,,45,0
7409,note_on,,29,0,12,,,,,,,,,,,,,,,,7,,64,0
7409,note_on,,29,0,7,,,,,,,,,,,,,,,,2,,76,0
7409,note_on,,29,0,14,,,,,,,,,,,,,,,,10,,81,0
7409,note_on,,29,0,11,,,,,,,,,,,,,,,,6,,69,0
7409,note_on,,0,0,18,,,,,,,,,,,,,,,,15,,81,0
7409,note_on,,29,0,6,,,,,,,,,,,,,,,,1,,61,0
7409,note_on,,29,0,18,,,,,,,,,,,,,,,,15,,61,0
7409,note_on,,29,0,16,,,,,,,,,,,,,,,,12,,73,0
7409,note_on,,29,0,13,,,,,,,,,,,,,,,,8,,61,0
7409,note_on,,29,0,17,,,,,,,,,,,,,,,,13,,61,0
7409,note_on,,29,0,10,,,,,,,,,,,,,,,,5,,76,0
7409,note_on,,29,0,8,,,,,,,,,,,,,,,,3,,69,0
7409,note_on,,29,0,5,,,,,,,,,,,,,,,,0,,76,0
7410,note_on,,1,0,11,,,,,,,,,,,,,,,,6,,69,72
7410,note_on,,1,0,12,,,,,,,,,,,,,,,,7,,64,72
7410,note_on,,1,0,7,,,,,,,,,,,,,,,,2,,76,72
7410,note_on,,1,0,6,,,,,,,,,,,,,,,,1,,61,72
7410,note_on,,1,0,10,,,,,,,,,,,,,,,,5,,76,72
7410,note_on,,1,0,16,,,,,,,,,,,,,,,,12,,73,72
7410,note_on,,1,0,5,,,,,,,,,,,,,,,,0,,76,72
7410,note_on,,1,0,9,,,,,,,,,,,,,,,,4,,45,72
7410,note_on,,1,0,14,,,,,,,,,,,,,,,,10,,81,72
7410,note_on,,1,0,15,,,,,,,,,,,,,,,,11,,76,72
7410,note_on,,0,0,18,,,,,,,,,,,,,,,,15,,76,72
7410,note_on,,0,0,18,,,,,,,,,,,,,,,,15,,81,72
7410,note_on,,1,0,18,,,,,,,,,,,,,,,,15,,61,72
7410,note_on,,1,0,8,,,,,,,,,,,,,,,,3,,69,72
7410,note_on,,0,0,18,,,,,,,,,,,,,,,,15,,64,72
7410,note_on,,0,0,18,,,,,,,,,,,,,,,,15,,69,72
7410,note_on,,1,0,13,,,,,,,,,,,,,,,,8,,61,72
7410,note_on,,1,0,17,,,,,,,,,,,,,,,,13,,61,72
7439,note_on,,29,0,11,,,,,,,,,,,,,,,,6,,69,0
7439,note_on,,29,0,7,,,,,,,,,,,,,,,,2,,76,0
7439,note_on,,29,0,14,,,,,,,,,,,,,,,,10,,81,0
7439,note_on,,0,0,18,,,,,,,,,,,,,,,,15,,81,0
7439,note_on,,0,0,18,,,,,,,,,,,,,,,,15,,76,0
7439,note_on,,0,0,18,,,,,,,,,,,,,,,,15,,69,0
7439,note_on,,0,0,18,,,,,,,,,,,,,,,,15,,64,0
7439,note_on,,29,0,18,,,,,,,,,,,,,,,,15,,61,0
7439,note_on,,29,0,17,,,,,,,,,,,,,,,,13,,61,0
7439,note_on,,29,0,10,,,,,,,,,,,,,,,,5,,76,0
7439,note_on,,29,0,6,,,,,,,,,,,,,,,,1,,61,0
7439,note_on,,29,0,15,,,,,,,,,,,,,,,,11,,76,0
7439,note_on,,29,0,16,,,,,,,,,,,,,,,,12,,73,0
7439,note_on,,29,0,5,,,,,,,,,,,,,,,,0,,76,0
7439,note_on,,29,0,8,,,,,,,,,,,,,,,,3,,69,0
7439,note_on,,29,0,9,,,,,,,,,,,,,,,,4,,45,0
7439,note_on,,29,0,13,,,,,,,,,,,,,,,,8,,61,0
7439,note_on,,29,0,12,,,,,,,,,,,,,,,,7,,64,0
7440,note_on,,0,0,18,,,,,,,,,,,,,,,,15,,66,72
7440,note_on,,0,0,18,,,,,,,,,,,,,,,,15,,69,72
7440,note_on,,0,0,18,,,,,,,,,,,,,,,,15,,74,72
7440,note_on,,1,0,12,,,,,,,,,,,,,,,,7,,62,72
7440,note_on,,1,0,13,,,,,,,,,,,,,,,,8,,62,72
7440,note_on,,1,0,15,,,,,,,,,,,,,,,,11,,78,72
7440,note_on,,1,0,7,,,,,,,,,,,,,,,,2,,78,72
7440,note_on,,0,0,18,,,,,,,,,,,,,,,,15,,81,72
7440,note_on,,1,0,17,,,,,,,,,,,,,,,,13,,62,72
7440,note_on,,1,0,9,,,,,,,,,,,,,,,,4,,50,72
7440,note_on,,1,0,14,,,,,,,,,,,,,,,,10,,86,72
7440,note_on,,1,0,5,,,,,,,,,,,,,,,,0,,78,72
7440,note_on,,1,0,16,,,,,,,,,,,,,,,,12,,69,72
7440,note_on,,1,0,6,,,,,,,,,,,,,,,,1,,62,72
7440,note_on,,1,0,8,,,,,,,,,,,,,,,,3,,69,72
7440,note_on,,1,0,10,,,,,,,,,,,,,,,,5,,78,72
7440,note_on,,1,0,11,,,,,,,,,,,,,,,,6,,69,72
7440,note_on,,1,0,18,,,,,,,,,,,,,,,,15,,62,72
7499,note_on,,59,0,18,,,,,,,,,,,,,,,,15,,62,0
7499,note_on,,0,0,18,,,,,,,,,,,,,,,,15,,69,0
7499,note_on,,59,0,6,,,,,,,,,,,,,,,,1,,62,0
7499,note_on,,59,0,12,,,,,,,,,,,,,,,,7,,62,0
7499,note_on,,59,0,5,,,,,,,,,,,,,,,,0,,78,0
7499,note_on,,59,0,8,,,,,,,,,,,,,,,,3,,69,0
7499,note_on,,0,0,18,,,,,,,,,,,,,,,,15,,74,0
7499,note_on,,0,0,18,,,,,,,,,,,,,,,,15,,81,0
7499,note_on,,0,0,18,,,,,,,,,,,,,,,,15,,66,0
7499,note_on,,59,0,17,,,,,,,,,,,,,,,,13,,62,0
7499,note_on,,59,0,14,,,,,,,,,,,,,,,,10,,86,0
7499,note_on,,59,0,16,,,,,,,,,,,,,,,,12,,69,0
7499,note_on,,59,0,9,,,,,,,,,,,,,,,,4,,50,0
7499,note_on,,59,0,10,,,,,,,,,,,,,,,,5,,78,0
7499,note_on,,59,0,11,,,,,,,,,,,,,,,,6,,69,0
7499,note_on,,59,0,15,,,,,,,,,,,,,,,,11,,78,0
7499,note_on,,59,0,7,,,,,,,,,,,,,,,,2,,78,0
7499,note_on,,59,0,13,,,,,,,,,,,,,,,,8,,62,0
7500,note_on,,0,0,18,,,,,,,,,,,,,,,,15,,64,72
7500,note_on,,1,0,14,,,,,,,,,,,,,,,,10,,85,72
7500,note_on,,1,0,16,,,,,,,,,,,,,,,,12,,69,72
7500,note_on,,1,0,10,,,,,,,,,,,,,,,,5,,76,72
7500,note_on,,1,0,11,,,,,,,,,,,,,,,,6,,69,72
7500,note_on,,1,0,5,,,,,,,,,,,,,,,,0,,76,72
7500,note_on,,1,0,8,,,,,,,,,,,,,,,,3,,69,72
7500,note_on,,1,0,13,,,,,,,,,,,,,,,,8,,57,72
7500,note_on,,1,0,9,,,,,,,,,,,,,,,,4,,45,72
7500,note_on,,1,0,12,,,,,,,,,,,,,,,,7,,61,72
7500,note_on,,0,0,18,,,,,,,,,,,,,,,,15,,69,72
7500,note_on,,0,0,18,,,,,,,,,,,,,,,,15,,73,72
7500,note_on,,1,0,6,,,,,,,,,,,,,,,,1,,57,72
7500,note_on,,0,0,18,,,,,,,,,,,,,,,,15,,81,72
7500,note_on,,1,0,17,,,,,,,,,,,,,,,,13,,57,72
7500,note_on,,1,0,18,,,,,,,,,,,,,,,,15,,57,72
7500,note_on,,1,0,15,,,,,,,,,,,,,,,,11,,76,72
7500,note_on,,1,0,7,,,,,,,,,,,,,,,,2,,76,72
7559,note_on,,0,0,18,,,,,,,,,,,,,,,,15,,69,0
7559,note_on,,0,0,18,,,,,,,,,,,,,,,,15,,73,0
7559,note_on,,59,0,8,,,,,,,,,,,,,,,,3,,69,0
7559,note_on,,59,0,6,,,,,,,,,,,,,,,,1,,57,0
7559,note_on,,59,0,16,,,,,,,,,,,,,,,,12,,69,0
7559,note_on,,59,0,17,,,,,,,,,,,,,,,,13,,57,0
7559,note_on,,59,0,11,,,,,,,,,,,,,,,,6,,69,0
7559,note_on,,59,0,18,,,,,,,,,,,,,,,,15,,57,0
7559,note_on,,59,0,10,,,,,,,,,,,,,,,,5,,76,0
7559,note_on,,0,0,18,,,,,,,,,,,,,,,,15,,64,0
7559,note_on,,59,0,15,,,,,,,,,,,,,,,,11,,76,0
7559,note_on,,0,0,18,,,,,,,,,,,,,,,,15,,81,0
7559,note_on,,59,0,12,,,,,,,,,,,,,,,,7,,61,0
7559,note_on,,59,0,7,,,,,,,,,,,,,,,,2,,76,0
7559,note_on,,59,0,13,,,,,,,,,,,,,,,,8,,57,0
7559,note_on,,59,0,14,,,,,,,,,,,,,,,,10,,85,0
7559,note_on,,59,0,5,,,,,,,,,,,,,,,,0,,76,0
7559,note_on,,59,0,9,,,,,,,,,,,,,,,,4,,45,0
7680,note_on,,121,0,16,,,,,,,,,,,,,,,,12,,62,72
7680,note_on,,121,0,15,,,,,,,,,,,,,,,,11,,62,72
7680,note_on,,121,0,13,,,,,,,,,,,,,,,,8,,50,72
7680,note_on,,0,0,18,,,,,,,,,,,,,,,,15,,62,72
7680,note_on,,121,0,18,,,,,,,,,,,,,,,,15,,50,72
7680,note_on,,121,0,17,,,,,,,,,,,,,,,,13,,50,72
7680,note_on,,121,0,11,,,,,,,,,,,,,,,,6,,62,72
7680,note_on,,121,0,14,,,,,,,,,,,,,,,,10,,62,72
7680,note_on,,121,0,6,,,,,,,,,,,,,,,,1,,50,72
7680,note_on,,121,0,12,,,,,,,,,,,,,,,,7,,62,72
7919,note_on,,239,0,6,,,,,,,,,,,,,,,,1,,50,0
7919,note_on,,239,0,17,,,,,,,,,,,,,,,,13,,50,0
7919,note_on,,239,0,12,,,,,,,,,,,,,,,,7,,62,0
7919,note_on,,239,0,11,,,,,,,,,,,,,,,,6,,62,0
7919,note_on,,239,0,14,,,,,,,,,,,,,,,,10,,62,0
7919,note_on,,239,0,15,,,,,,,,,,,,,,,,11,,62,0
7919,note_on,,239,0,18,,,,,,,,,,,,,,,,15,,50,0
7919,note_on,,239,0,13,,,,,,,,,,,,,,,,8,,50,0
7919,note_on,,239,0,16,,,,,,,,,,,,,,,,12,,62,0
7919,note_on,,0,0,18,,,,,,,,,,,,,,,,15,,62,0
7920,note_on,,0,0,18,,,,,,,,,,,,,,,,15,,64,72
7920,note_on,,1,0,12,,,,,,,,,,,,,,,,7,,64,72
7920,note_on,,1,0,13,,,,,,,,,,,,,,,,8,,52,72
7920,note_on,,1,0,6,,,,,,,,,,,,,,,,1,,52,72
7920,note_on,,1,0,14,,,,,,,,,,,,,,,,10,,64,72
7920,note_on,,1,0,17,,,,,,,,,,,,,,,,13,,52,72
7920,note_on,,1,0,15,,,,,,,,,,,,,,,,11,,64,72
7920,note_on,,1,0,16,,,,,,,,,,,,,,,,12,,64,72
7920,note_on,,1,0,18,,,,,,,,,,,,,,,,15,,52,72
7920,note_on,,1,0,11,,,,,,,,,,,,,,,,6,,64,72
8039,note_on,,119,0,6,,,,,,,,,,,,,,,,1,,52,0
8039,note_on,,119,0,11,,,,,,,,,,,,,,,,6,,64,0
8039,note_on,,119,0,13,,,,,,,,,,,,,,,,8,,52,0
8039,note_on,,119,0,16,,,,,,,,,,,,,,,,12,,64,0
8039,note_on,,119,0,12,,,,,,,,,,,,,,,,7,,64,0
8039,note_on,,0,0,18,,,,,,,,,,,,,,,,15,,64,0
8039,note_on,,119,0,18,,,,,,,,,,,,,,,,15,,52,0
8039,note_on,,119,0,15,,,,,,,,,,,,,,,,11,,64,0
8039,note_on,,119,0,17,,,,,,,,,,,,,,,,13,,52,0
8039,note_on,,119,0,14,,,,,,,,,,,,,,,,10,,64,0
8040,note_on,,1,0,13,,,,,,,,,,,,,,,,8,,54,72
8040,note_on,,1,0,15,,,,,,,,,,,,,,,,11,,66,72
8040,note_on,,1,0,12,,,,,,,,,,,,,,,,7,,66,72
8040,note_on,,0,0,18,,,,,,,,,,,,,,,,15,,66,72
8040,note_on,,1,0,14,,,,,,,,,,,,,,,,10,,66,72
8040,note_on,,1,0,11,,,,,,,,,,,,,,,,6,,66,72
8040,note_on,,1,0,17,,,,,,,,,,,,,,,,13,,54,72
8040,note_on,,1,0,16,,,,,,,,,,,,,,,,12,,66,72
8040,note_on,,1,0,6,,,,,,,,,,,,,,,,1,,54,72
8040,note_on,,1,0,18,,,,,,,,,,,,,,,,15,,54,72
8159,note_on,,0,0,18,,,,,,,,,,,,,,,,15,,66,0
8159,note_on,,119,0,14,,,,,,,,,,,,,,,,10,,66,0
8159,note_on,,119,0,17,,,,,,,,,,,,,,,,13,,54,0
8159,note_on,,119,0,16,,,,,,,,,,,,,,,,12,,66,0
8159,note_on,,119,0,11,,,,,,,,,,,,,,,,6,,66,0
8159,note_on,,119,0,18,,,,,,,,,,,,,,,,15,,54,0
8159,note_on,,119,0,13,,,,,,,,,,,,,,,,8,,54,0
8159,note_on,,119,0,15,,,,,,,,,,,,,,,,11,,66,0
8159,note_on,,119,0,6,,,,,,,,,,,,,,,,1,,54,0
8159,note_on,,119,0,12,,,,,,,,,,,,,,,,7,,66,0
8160,note_on,,1,0,12,,,,,,,,,,,,,,,,7,,67,72
8160,note_on,,0,0,18,,,,,,,,,,,,,,,,15,,67,72
8160,note_on,,1,0,17,,,,,,,,,,,,,,,,13,,55,72
8160,note_on,,1,0,18,,,,,,,,,,,,,,,,15,,55,72
8160,note_on,,1,0,6,,,,,,,,,,,,,,,,1,,55,72
8160,note_on,,1,0,13,,,,,,,,,,,,,,,,8,,55,72
8160,note_on,,1,0,15,,,,,,,,,,,,,,,,11,,67,72
8160,note_on,,1,0,16,,,,,,,,,,,,,,,,12,,67,72
8160,note_on,,1,0,11,,,,,,,,,,,,,,,,6,,67,72
8160,note_on,,1,0,14,,,,,,,,,,,,,,,,10,,67,72
8219,note_on,,59,0,18,,,,,,,,,,,,,,,,15,,55,0
8219,note_on,,59,0,16,,,,,,,,,,,,,,,,12,,67,0
8219,note_on,,0,0,18,,,,,,,,,,,,,,,,15,,67,0
8219,note_on,,59,0,12,,,,,,,,,,,,,,,,7,,67,0
8219,note_on,,59,0,13,,,,,,,,,,,,,,,,8,,55,0
8219,note_on,,59,0,15,,,,,,,,,,,,,,,,11,,67,0
8219,note_on,,59,0,14,,,,,,,,,,,,,,,,10,,67,0
8219,note_on,,59,0,17,,,,,,,,,,,,,,,,13,,55,0
8219,note_on,,59,0,6,,,,,,,,,,,,,,,,1,,55,0
8219,note_on,,59,0,11,,,,,,,,,,,,,,,,6,,67,0
8220,note_on,,1,0,11,,,,,,,,,,,,,,,,6,,55,72
8220,note_on,,1,0,15,,,,,,,,,,,,,,,,11,,55,72
8220,note_on,,1,0,13,,,,,,,,,,,,,,,,8,,43,72
8220,note_on,,1,0,6,,,,,,,,,,,,,,,,1,,43,72
8220,note_on,,1,0,18,,,,,,,,,,,,,,,,15,,43,72
8220,note_on,,1,0,12,,,,,,,,,,,,,,,,7,,55,72
8220,note_on,,1,0,16,,,,,,,,,,,,,,,,12,,55,72
8220,note_on,,1,0,17,,,,,,,,,,,,,,,,13,,43,72
8220,note_on,,0,0,18,,,,,,,,,,,,,,,,15,,55,72
8220,note_on,,1,0,14,,,,,,,,,,,,,,,,10,,55,72
8279,note_on,,59,0,11,,,,,,,,,,,,,,,,6,,55,0
8279,note_on,,59,0,13,,,,,,,,,,,,,,,,8,,43,0
8279,note_on,,59,0,12,,,,,,,,,,,,,,,,7,,55,0
8279,note_on,,59,0,15,,,,,,,,,,,,,,,,11,,55,0
8279,note_on,,0,0,18,,,,,,,,,,,,,,,,15,,55,0
8279,note_on,,59,0,17,,,,,,,,,,,,,,,,13,,43,0
8279,note_on,,59,0,6,,,,,,,,,,,,,,,,1,,43,0
8279,note_on,,59,0,18,,,,,,,,,,,,,,,,15,,43,0
8279,note_on,,59,0,16,,,,,,,,,,,,,,,,12,,55,0
8279,note_on,,59,0,14,,,,,,,,,,,,,,,,10,,55,0
8280,note_on,,1,0,6,,,,,,,,,,,,,,,,1,,55,72
8280,note_on,,1,0,15,,,,,,,,,,,,,,,,11,,67,72
8280,note_on,,1,0,14,,,,,,,,,,,,,,,,10,,67,72
8280,note_on,,0,0,18,,,,,,,,,,,,,,,,15,,67,72
8280,note_on,,1,0,12,,,,,,,,,,,,,,,,7,,55,72
8280,note_on,,1,0,16,,,,,,,,,,,,,,,,12,,67,72
8280,note_on,,1,0,17,,,,,,,,,,,,,,,,13,,55,72
8280,note_on,,1,0,18,,,,,,,,,,,,,,,,15,,55,72
8280,note_on,,1,0,11,,,,,,,,,,,,,,,,6,,67,72
8280,note_on,,1,0,13,,,,,,,,,,,,,,,,8,,55,72
8459,note_on,,179,0,11,,,,,,,,,,,,,,,,6,,67,0
8459,note_on,,179,0,12,,,,,,,,,,,,,,,,7,,55,0
8459,note_on,,179,0,13,,,,,,,,,,,,,,,,8,,55,0
8460,note_on,,1,0,11,,,,,,,,,,,,,,,,6,,67,72
8460,note_on,,1,0,13,,,,,,,,,,,,,,,,8,,55,72
8460,note_on,,1,0,12,,,,,,,,,,,,,,,,7,,55,72
8519,note_on,,59,0,11,,,,,,,,,,,,,,,,6,,67,0
8519,note_on,,239,0,14,,,,,,,,,,,,,,,,10,,67,0
8519,note_on,,59,0,13,,,,,,,,,,,,,,,,8,,55,0
8519,note_on,,239,0,18,,,,,,,,,,,,,,,,15,,55,0
8519,note_on,,0,0,18,,,,,,,,,,,,,,,,15,,67,0
8519,note_on,,239,0,15,,,,,,,,,,,,,,,,11,,67,0
8519,note_on,,239,0,17,,,,,,,,,,,,,,,,13,,55,0
8519,note_on,,239,0,6,,,,,,,,,,,,,,,,1,,55,0
8519,note_on,,239,0,16,,,,,,,,,,,,,,,,12,,67,0
8519,note_on,,59,0,12,,,,,,,,,,,,,,,,7,,55,0
8520,note_on,,1,0,17,,,,,,,,,,,,,,,,13,,54,72
8520,note_on,,1,0,15,,,,,,,,,,,,,,,,11,,66,72
8520,note_on,,1,0,12,,,,,,,,,,,,,,,,7,,54,72
8520,note_on,,1,0,14,,,,,,,,,,,,,,,,10,,66,72
8520,note_on,,1,0,16,,,,,,,,,,,,,,,,12,,66,72
8520,note_on,,0,0,18,,,,,,,,,,,,,,,,15,,66,72
8520,note_on,,1,0,18,,,,,,,,,,,,,,,,15,,54,72
8520,note_on,,1,0,6,,,,,,,,,,,,,,,,1,,54,72
8520,note_on,,1,0,11,,,,,,,,,,,,,,,,6,,66,72
8520,note_on,,1,0,13,,,,,,,,,,,,,,,,8,,54,72
8639,note_on,,119,0,11,,,,,,,,,,,,,,,,6,,66,0
8639,note_on,,0,0,18,,,,,,,,,,,,,,,,15,,66,0
8639,note_on,,119,0,6,,,,,,,,,,,,,,,,1,,54,0
8639,note_on,,119,0,16,,,,,,,,,,,,,,,,12,,66,0
8639,note_on,,119,0,12,,,,,,,,,,,,,,,,7,,54,0
8639,note_on,,119,0,13,,,,,,,,,,,,,,,,8,,54,0
8639,note_on,,119,0,15,,,,,,,,,,,,,,,,11,,66,0
8639,note_on,,119,0,14,,,,,,,,,,,,,,,,10,,66,0
8639,note_on,,119,0,18,,,,,,,,,,,,,,,,15,,54,0
8639,note_on,,119,0,17,,,,,,,,,,,,,,,,13,,54,0
8640,note_on,,0,0,18,,,,,,,,,,,,,,,,15,,64,72
8640,note_on,,1,0,13,,,,,,,,,,,,,,,,8,,52,72
8640,note_on,,1,0,15,,,,,,,,,,,,,,,,11,,64,72
8640,note_on,,1,0,18,,,,,,,,,,,,,,,,15,,52,72
8640,note_on,,1,0,11,,,,,,,,,,,,,,,,6,,64,72
8640,note_on,,1,0,12,,,,,,,,,,,,,,,,7,,52,72
8640,note_on,,1,0,14,,,,,,,,,,,,,,,,10,,64,72
8640,note_on,,1,0,16,,,,,,,,,,,,,,,,12,,64,72
8640,note_on,,1,0,6,,,,,,,,,,,,,,,,1,,52,72
8640,note_on,,1,0,17,,,,,,,,,,,,,,,,13,,52,72
8879,note_on,,239,0,13,,,,,,,,,,,,,,,,8,,52,0
8879,note_on,,239,0,16,,,,,,,,,,,,,,,,12,,64,0
8879,note_on,,239,0,14,,,,,,,,,,,,,,,,10,,64,0
8879,note_on,,239,0,6,,,,,,,,,,,,,,,,1,,52,0
8879,note_on,,239,0,12,,,,,,,,,,,,,,,,7,,52,0
8879,note_on,,239,0,15,,,,,,,,,,,,,,,,11,,64,0
8879,note_on,,0,0,18,,,,,,,,,,,,,,,,15,,64,0
8879,note_on,,239,0,18,,,,,,,,,,,,,,,,15,,52,0
8879,note_on,,239,0,17,,,,,,,,,,,,,,,,13,,52,0
8879,note_on,,239,0,11,,,,,,,,,,,,,,,,6,,64,0
8880,note_on,,1,0,12,,,,,,,,,,,,,,,,7,,50,72
8880,note_on,,1,0,15,,,,,,,,,,,,,,,,11,,62,72
8880,note_on,,1,0,13,,,,,,,,,,,,,,,,8,,50,72
8880,note_on,,1,0,16,,,,,,,,,,,,,,,,12,,62,72
8880,note_on,,1,0,6,,,,,,,,,,,,,,,,1,,50,72
8880,note_on,,1,0,17,,,,,,,,,,,,,,,,13,,50,72
8880,note_on,,1,0,14,,,,,,,,,,,,,,,,10,,62,72
8880,note_on,,1,0,18,,,,,,,,,,,,,,,,15,,50,72
8880,note_on,,0,0,18,,,,,,,,,,,,,,,,15,,62,72
8880,note_on,,1,0,11,,,,,,,,,,,,,,,,6,,62,72
8999,note_on,,119,0,16,,,,,,,,,,,,,,,,12,,62,0
8999,note_on,,119,0,14,,,,,,,,,,,,,,,,10,,62,0
8999,note_on,,119,0,15,,,,,,,,,,,,,,,,11,,62,0
8999,note_on,,119,0,13,,,,,,,,,,,,,,,,8,,50,0
8999,note_on,,119,0,18,,,,,,,,,,,,,,,,15,,50,0
8999,note_on,,119,0,12,,,,,,,,,,,,,,,,7,,50,0
8999,note_on,,0,0,18,,,,,,,,,,,,,,,,15,,62,0
8999,note_on,,119,0,17,,,,,,,,,,,,,,,,13,,50,0
8999,note_on,,119,0,6,,,,,,,,,,,,,,,,1,,50,0
8999,note_on,,119,0,11,,,,,,,,,,,,,,,,6,,62,0
9060,note_on,,1501,0,8,,,,,,,,,,,,,,,,3,,74,72
9060,note_on,,0,0,18,,,,,,,,,,,,,,,,15,,57,72
9060,note_on,,1501,0,10,,,,,,,,,,,,,,,,5,,74,72
9060,note_on,,0,0,18,,,,,,,,,,,,,,,,15,,62,72
9060,note_on,,1501,0,5,,,,,,,,,,,,,,,,0,,74,72
9060,note_on,,0,0,18,,,,,,,,,,,,,,,,15,,69,72
9060,note_on,,1501,0,9,,,,,,,,,,,,,,,,4,,50,72
9060,note_on,,61,0,16,,,,,,,,,,,,,,,,12,,62,72
9060,note_on,,61,0,6,,,,,,,,,,,,,,,,1,,54,72
9060,note_on,,61,0,12,,,,,,,,,,,,,,,,7,,62,72
9060,note_on,,1501,0,7,,,,,,,,,,,,,,,,2,,81,72
9060,note_on,,61,0,15,,,,,,,,,,,,,,,,11,,74,72
9060,note_on,,61,0,11,,,,,,,,,,,,,,,,6,,69,72
9060,note_on,,61,0,18,,,,,,,,,,,,,,,,15,,54,72
9060,note_on,,0,0,18,,,,,,,,,,,,,,,,15,,74,72
9060,note_on,,61,0,17,,,,,,,,,,,,,,,,13,,54,72
9060,note_on,,61,0,14,,,,,,,,,,,,,,,,10,,81,72
9060,note_on,,61,0,13,,,,,,,,,,,,,,,,8,,54,72
9089,note_on,,0,0,18,,,,,,,,,,,,,,,,15,,69,0
9089,note_on,,29,0,8,,,,,,,,,,,,,,,,3,,74,0
9089,note_on,,29,0,7,,,,,,,,,,,,,,,,2,,81,0
9089,note_on,,0,0,18,,,,,,,,,,,,,,,,15,,74,0
9089,note_on,,29,0,14,,,,,,,,,,,,,,,,10,,81,0
9089,note_on,,29,0,5,,,,,,,,,,,,,,,,0,,74,0
9089,note_on,,29,0,15,,,,,,,,,,,,,,,,11,,74,0
9089,note_on,,29,0,11,,,,,,,,,,,,,,,,6,,69,0
9089,note_on,,29,0,10,,,,,,,,,,,,,,,,5,,74,0
9089,note_on,,0,0,18,,,,,,,,,,,,,,,,15,,62,0
9089,note_on,,29,0,16,,,,,,,,,,,,,,,,12,,62,0
9089,note_on,,0,0,18,,,,,,,,,,,,,,,,15,,57,0
9089,note_on,,29,0,6,,,,,,,,,,,,,,,,1,,54,0
9089,note_on,,29,0,17,,,,,,,,,,,,,,,,13,,54,0
9089,note_on,,29,0,13,,,,,,,,,,,,,,,,8,,54,0
9089,note_on,,29,0,9,,,,,,,,,,,,,,,,4,,50,0
9089,note_on,,29,0,12,,,,,,,,,,,,,,,,7,,62,0
9089,note_on,,29,0,18,,,,,,,,,,,,,,,,15,,54,0
9090,note_on,,0,0,18,,,,,,,,,,,,,,,,15,,62,72
9090,note_on,,0,0,18,,,,,,,,,,,,,,,,15,,69,72
9090,note_on,,1,0,18,,,,,,,,,,,,,,,,15,,54,72
9090,note_on,,0,0,18,,,,,,,,,,,,,,,,15,,74,72
9090,note_on,,0,0,18,,,,,,,,,,,,,,,,15,,57,72
9090,note_on,,1,0,7,,,,,,,,,,,,,,,,2,,81,72
9090,note_on,,1,0,8,,,,,,,,,,,,,,,,3,,74,72
9090,note_on,,1,0,11,,,,,,,,,,,,,,,,6,,69,72
9090,note_on,,1,0,15,,,,,,,,,,,,,,,,11,,74,72
9090,note_on,,1,0,14,,,,,,,,,,,,,,,,10,,81,72
9090,note_on,,1,0,16,,,,,,,,,,,,,,,,12,,62,72
9090,note_on,,1,0,6,,,,,,,,,,,,,,,,1,,54,72
9090,note_on,,1,0,13,,,,,,,,,,,,,,,,8,,54,72
9090,note_on,,1,0,17,,,,,,,,,,,,,,,,13,,54,72
9090,note_on,,1,0,10,,,,,,,,,,,,,,,,5,,74,72
9090,note_on,,1,0,12,,,,,,,,,,,,,,,,7,,62,72
9090,note_on,,1,0,9,,,,,,,,,,,,,,,,4,,50,72
9090,note_on,,1,0,5,,,,,,,,,,,,,,,,0,,74,72
9119,note_on,,0,0,18,,,,,,,,,,,,,,,,15,,62,0
9119,note_on,,0,0,18,,,,,,,,,,,,,,,,15,,69,0
9119,note_on,,29,0,7,,,,,,,,,,,,,,,,2,,81,0
9119,note_on,,29,0,12,,,,,,,,,,,,,,,,7,,62,0
9119,note_on,,0,0,18,,,,,,,,,,,,,,,,15,,74,0
9119,note_on,,29,0,18,,,,,,,,,,,,,,,,15,,54,0
9119,note_on,,29,0,9,,,,,,,,,,,,,,,,4,,50,0
9119,note_on,,0,0,18,,,,,,,,,,,,,,,,15,,57,0
9119,note_on,,29,0,6,,,,,,,,,,,,,,,,1,,54,0
9119,note_on,,29,0,11,,,,,,,,,,,,,,,,6,,69,0
9119,note_on,,29,0,17,,,,,,,,,,,,,,,,13,,54,0
9119,note_on,,29,0,14,,,,,,,,,,,,,,,,10,,81,0
9119,note_on,,29,0,15,,,,,,,,,,,,,,,,11,,74,0
9119,note_on,,29,0,16,,,,,,,,,,,,,,,,12,,62,0
9119,note_on,,29,0,10,,,,,,,,,,,,,,,,5,,74,0
9119,note_on,,29,0,13,,,,,,,,,,,,,,,,8,,54,0
9119,note_on,,29,0,8,,,,,,,,,,,,,,,,3,,74,0
9119,note_on,,29,0,5,,,,,,,,,,,,,,,,0,,74,0
9120,note_on,,0,0,18,,,,,,,,,,,,,,,,15,,67,72
9120,note_on,,0,0,18,,,,,,,,,,,,,,,,15,,74,72
9120,note_on,,1,0,18,,,,,,,,,,,,,,,,15,,55,72
9120,note_on,,0,0,18,,,,,,,,,,,,,,,,15,,62,72
9120,note_on,,1,0,6,,,,,,,,,,,,,,,,1,,55,72
9120,note_on,,1,0,16,,,,,,,,,,,,,,,,12,,74,72
9120,note_on,,1,0,15,,,,,,,,,,,,,,,,11,,79,72
9120,note_on,,1,0,17,,,,,,,,,,,,,,,,13,,55,72
9120,note_on,,0,0,18,,,,,,,,,,,,,,,,15,,59,72
9120,note_on,,1,0,8,,,,,,,,,,,,,,,,3,,79,72
9120,note_on,,1,0,10,,,,,,,,,,,,,,,,5,,74,72
9120,note_on,,1,0,13,,,,,,,,,,,,,,,,8,,55,72
9120,note_on,,1,0,12,,,,,,,,,,,,,,,,7,,67,72
9120,note_on,,1,0,7,,,,,,,,,,,,,,,,2,,83,72
9120,note_on,,1,0,9,,,,,,,,,,,,,,,,4,,50,72
9120,note_on,,1,0,14,,,,,,,,,,,,,,,,10,,83,72
9120,note_on,,1,0,11,,,,,,,,,,,,,,,,6,,71,72
9120,note_on,,1,0,5,,,,,,,,,,,,,,,,0,,74,72
9179,note_on,,59,0,17,,,,,,,,,,,,,,,,13,,55,0
9179,note_on,,59,0,5,,,,,,,,,,,,,,,,0,,74,0
9179,note_on,,59,0,13,,,,,,,,,,,,,,,,8,,55,0
9179,note_on,,59,0,8,,,,,,,,,,,,,,,,3,,79,0
9179,note_on,,59,0,10,,,,,,,,,,,,,,,,5,,74,0
9179,note_on,,59,0,11,,,,,,,,,,,,,,,,6,,71,0
9179,note_on,,59,0,16,,,,,,,,,,,,,,,,12,,74,0
9179,note_on,,59,0,15,,,,,,,,,,,,,,,,11,,79,0
9179,note_on,,0,0,18,,,,,,,,,,,,,,,,15,,74,0
9179,note_on,,0,0,18,,,,,,,,,,,,,,,,15,,59,0
9179,note_on,,59,0,6,,,,,,,,,,,,,,,,1,,55,0
9179,note_on,,59,0,14,,,,,,,,,,,,,,,,10,,83,0
9179,note_on,,59,0,12,,,,,,,,,,,,,,,,7,,67,0
9179,note_on,,59,0,7,,,,,,,,,,,,,,,,2,,83,0
9179,note_on,,59,0,9,,,,,,,,,,,,,,,,4,,50,0
9179,note_on,,0,0,18,,,,,,,,,,,,,,,,15,,62,0
9179,note_on,,59,0,18,,,,,,,,,,,,,,,,15,,55,0
9179,note_on,,0,0,18,,,,,,,,,,,,,,,,15,,67,0
9180,note_on,,1,0,13,,,,,,,,,,,,,,,,8,,50,72
9180,note_on,,1,0,14,,,,,,,,,,,,,,,,10,,81,72
9180,note_on,,1,0,12,,,,,,,,,,,,,,,,7,,66,72
9180,note_on,,1,0,5,,,,,,,,,,,,,,,,0,,74,72
9180,note_on,,1,0,7,,,,,,,,,,,,,,,,2,,81,72
9180,note_on,,1,0,9,,,,,,,,,,,,,,,,4,,50,72
9180,note_on,,1,0,15,,,,,,,,,,,,,,,,11,,78,72
9180,note_on,,1,0,6,,,,,,,,,,,,,,,,1,,50,72
9180,note_on,,1,0,11,,,,,,,,,,,,,,,,6,,69,72
9180,note_on,,0,0,18,,,,,,,,,,,,,,,,15,,62,72
9180,note_on,,1,0,16,,,,,,,,,,,,,,,,12,,74,72
9180,note_on,,1,0,17,,,,,,,,,,,,,,,,13,,50,72
9180,note_on,,0,0,18,,,,,,,,,,,,,,,,15,,57,72
9180,note_on,,0,0,18,,,,,,,,,,,,,,,,15,,66,72
9180,note_on,,0,0,18,,,,,,,,,,,,,,,,15,,74,72
9180,note_on,,1,0,10,,,,,,,,,,,,,,,,5,,74,72
9180,note_on,,1,0,8,,,,,,,,,,,,,,,,3,,78,72
9180,note_on,,1,0,18,,,,,,,,,,,,,,,,15,,50,72
9239,note_on,,59,0,12,,,,,,,,,,,,,,,,7,,66,0
9239,note_on,,59,0,18,,,,,,,,,,,,,,,,15,,50,0
9239,note_on,,59,0,16,,,,,,,,,,,,,,,,12,,74,0
9239,note_on,,59,0,8,,,,,,,,,,,,,,,,3,,78,0
9239,note_on,,59,0,15,,,,,,,,,,,,,,,,11,,78,0
9239,note_on,,59,0,10,,,,,,,,,,,,,,,,5,,74,0
9239,note_on,,59,0,7,,,,,,,,,,,,,,,,2,,81,0
9239,note_on,,59,0,9,,,,,,,,,,,,,,,,4,,50,0
9239,note_on,,0,0,18,,,,,,,,,,,,,,,,15,,66,0
9239,note_on,,0,0,18,,,,,,,,,,,,,,,,15,,62,0
9239,note_on,,0,0,18,,,,,,,,,,,,,,,,15,,57,0
9239,note_on,,59,0,14,,,,,,,,,,,,,,,,10,,81,0
9239,note_on,,59,0,11,,,,,,,,,,,,,,,,6,,69,0
9239,note_on,,59,0,17,,,,,,,,,,,,,,,,13,,50,0
9239,note_on,,59,0,6,,,,,,,,,,,,,,,,1,,50,0
9239,note_on,,59,0,13,,,,,,,,,,,,,,,,8,,50,0
9239,note_on,,59,0,5,,,,,,,,,,,,,,,,0,,74,0
9239,note_on,,0,0,18,,,,,,,,,,,,,,,,15,,74,0
9300,note_on,,61,0,13,,,,,,,,,,,,,,,,8,,54,72
9300,note_on,,61,0,18,,,,,,,,,,,,,,,,15,,54,72
9300,note_on,,0,0,18,,,,,,,,,,,,,,,,15,,74,72
9300,note_on,,0,0,18,,,,,,,,,,,,,,,,15,,69,72
9300,note_on,,0,0,18,,,,,,,,,,,,,,,,15,,62,72
9300,note_on,,61,0,12,,,,,,,,,,,,,,,,7,,62,72
9300,note_on,,0,0,18,,,,,,,,,,,,,,,,15,,57,72
9300,note_on,,61,0,7,,,,,,,,,,,,,,,,2,,81,72
9300,note_on,,61,0,9,,,,,,,,,,,,,,,,4,,50,72
9300,note_on,,61,0,14,,,,,,,,,,,,,,,,10,,86,72
9300,note_on,,61,0,8,,,,,,,,,,,,,,,,3,,74,72
9300,note_on,,61,0,10,,,,,,,,,,,,,,,,5,,74,72
9300,note_on,,61,0,6,,,,,,,,,,,,,,,,1,,54,72
9300,note_on,,61,0,16,,,,,,,,,,,,,,,,12,,62,72
9300,note_on,,61,0,5,,,,,,,,,,,,,,,,0,,74,72
9300,note_on,,61,0,15,,,,,,,,,,,,,,,,11,,81,72
9300,note_on,,61,0,17,,,,,,,,,,,,,,,,13,,54,72
9300,note_on,,61,0,11,,,,,,,,,,,,,,,,6,,69,72
9329,note_on,,29,0,9,,,,,,,,,,,,,,,,4,,50,0
9329,note_on,,29,0,8,,,,,,,,,,,,,,,,3,,74,0
9329,note_on,,29,0,18,,,,,,,,,,,,,,,,15,,54,0
9329,note_on,,0,0,18,,,,,,,,,,,,,,,,15,,74,0
9329,note_on,,29,0,12,,,,,,,,,,,,,,,,7,,62,0
9329,note_on,,29,0,17,,,,,,,,,,,,,,,,13,,54,0
9329,note_on,,29,0,11,,,,,,,,,,,,,,,,6,,69,0
9329,note_on,,29,0,5,,,,,,,,,,,,,,,,0,,74,0
9329,note_on,,0,0,18,,,,,,,,,,,,,,,,15,,57,0
9329,note_on,,29,0,15,,,,,,,,,,,,,,,,11,,81,0
9329,note_on,,0,0,18,,,,,,,,,,,,,,,,15,,69,0
9329,note_on,,0,0,18,,,,,,,,,,,,,,,,15,,62,0
9329,note_on,,29,0,16,,,,,,,,,,,,,,,,12,,62,0
9329,note_on,,29,0,6,,,,,,,,,,,,,,,,1,,54,0
9329,note_on,,29,0,14,,,,,,,,,,,,,,,,10,,86,0
9329,note_on,,29,0,13,,,,,,,,,,,,,,,,8,,54,0
9329,note_on,,29,0,10,,,,,,,,,,,,,,,,5,,74,0
9329,note_on,,29,0,7,,,,,,,,,,,,,,,,2,,81,0
9330,note_on,,1,0,13,,,,,,,,,,,,,,,,8,,54,72
9330,note_on,,1,0,18,,,,,,,,,,,,,,,,15,,54,72
9330,note_on,,1,0,8,,,,,,,,,,,,,,,,3,,74,72
9330,note_on,,1,0,5,,,,,,,,,,,,,,,,0,,74,72
9330,note_on,,0,0,18,,,,,,,,,,,,,,,,15,,69,72
9330,note_on,,1,0,15,,,,,,,,,,,,,,,,11,,74,72
9330,note_on,,1,0,14,,,,,,,,,,,,,,,,10,,81,72
9330,note_on,,1,0,6,,,,,,,,,,,,,,,,1,,54,72
9330,note_on,,1,0,16,,,,,,,,,,,,,,,,12,,66,72
9330,note_on,,1,0,17,,,,,,,,,,,,,,,,13,,54,72
9330,note_on,,1,0,10,,,,,,,,,,,,,,,,5,,74,72
9330,note_on,,1,0,11,,,,,,,,,,,,,,,,6,,69,72
9330,note_on,,0,0,18,,,,,,,,,,,,,,,,15,,57,72
9330,note_on,,1,0,7,,,,,,,,,,,,,,,,2,,81,72
9330,note_on,,0,0,18,,,,,,,,,,,,,,,,15,,74,72
9330,note_on,,1,0,12,,,,,,,,,,,,,,,,7,,62,72
9330,note_on,,0,0,18,,,,,,,,,,,,,,,,15,,62,72
9330,note_on,,1,0,9,,,,,,,,,,,,,,,,4,,50,72
9359,note_on,,0,0,18,,,,,,,,,,,,,,,,15,,74,0
9359,note_on,,0,0,18,,,,,,,,,,,,,,,,15,,69,0
9359,note_on,,0,0,18,,,,,,,,,,,,,,,,15,,62,0
9359,note_on,,29,0,18,,,,,,,,,,,,,,,,15,,54,0
9359,note_on,,29,0,14,,,,,,,,,,,,,,,,10,,81,0
9359,note_on,,29,0,5,,,,,,,,,,,,,,,,0,,74,0
9359,note_on,,29,0,15,,,,,,,,,,,,,,,,11,,74,0
9359,note_on,,29,0,6,,,,,,,,,,,,,,,,1,,54,0
9359,note_on,,29,0,16,,,,,,,,,,,,,,,,12,,66,0
9359,note_on,,29,0,10,,,,,,,,,,,,,,,,5,,74,0
9359,note_on,,29,0,13,,,,,,,,,,,,,,,,8,,54,0
9359,note_on,,29,0,12,,,,,,,,,,,,,,,,7,,62,0
9359,note_on,,29,0,11,,,,,,,,,,,,,,,,6,,69,0
9359,note_on,,0,0,18,,,,,,,,,,,,,,,,15,,57,0
9359,note_on,,29,0,17,,,,,,,,,,,,,,,,13,,54,0
9359,note_on,,29,0,9,,,,,,,,,,,,,,,,4,,50,0
9359,note_on,,29,0,7,,,,,,,,,,,,,,,,2,,81,0
9359,note_on,,29,0,8,,,,,,,,,,,,,,,,3,,74,0
9360,note_on,,1,0,15,,,,,,,,,,,,,,,,11,,79,72
9360,note_on,,1,0,17,,,,,,,,,,,,,,,,13,,55,72
9360,note_on,,1,0,7,,,,,,,,,,,,,,,,2,,83,72
9360,note_on,,1,0,13,,,,,,,,,,,,,,,,8,,55,72
9360,note_on,,1,0,18,,,,,,,,,,,,,,,,15,,55,72
9360,note_on,,0,0,18,,,,,,,,,,,,,,,,15,,74,72
9360,note_on,,0,0,18,,,,,,,,,,,,,,,,15,,67,72
9360,note_on,,0,0,18,,,,,,,,,,,,,,,,15,,59,72
9360,note_on,,1,0,11,,,,,,,,,,,,,,,,6,,71,72
9360,note_on,,1,0,8,,,,,,,,,,,,,,,,3,,79,72
9360,note_on,,1,0,9,,,,,,,,,,,,,,,,4,,50,72
9360,note_on,,1,0,10,,,,,,,,,,,,,,,,5,,74,72
9360,note_on,,1,0,14,,,,,,,,,,,,,,,,10,,83,72
9360,note_on,,1,0,6,,,,,,,,,,,,,,,,1,,55,72
9360,note_on,,0,0,18,,,,,,,,,,,,,,,,15,,62,72
9360,note_on,,1,0,5,,,,,,,,,,,,,,,,0,,74,72
9360,note_on,,1,0,12,,,,,,,,,,,,,,,,7,,67,72
9360,note_on,,1,0,16,,,,,,,,,,,,,,,,12,,74,72
9419,note_on,,59,0,9,,,,,,,,,,,,,,,,4,,50,0
9419,note_on,,0,0,18,,,,,,,,,,,,,,,,15,,74,0
9419,note_on,,59,0,11,,,,,,,,,,,,,,,,6,,71,0
9419,note_on,,59,0,16,,,,,,,,,,,,,,,,12,,74,0
9419,note_on,,59,0,13,,,,,,,,,,,,,,,,8,,55,0
9419,note_on,,59,0,8,,,,,,,,,,,,,,,,3,,79,0
9419,note_on,,0,0,18,,,,,,,,,,,,,,,,15,,59,0
9419,note_on,,0,0,18,,,,,,,,,,,,,,,,15,,67,0
9419,note_on,,59,0,7,,,,,,,,,,,,,,,,2,,83,0
9419,note_on,,59,0,18,,,,,,,,,,,,,,,,15,,55,0
9419,note_on,,0,0,18,,,,,,,,,,,,,,,,15,,62,0
9419,note_on,,59,0,12,,,,,,,,,,,,,,,,7,,67,0
9419,note_on,,59,0,10,,,,,,,,,,,,,,,,5,,74,0
9419,note_on,,59,0,17,,,,,,,,,,,,,,,,13,,55,0
9419,note_on,,59,0,5,,,,,,,,,,,,,,,,0,,74,0
9419,note_on,,59,0,14,,,,,,,,,,,,,,,,10,,83,0
9419,note_on,,59,0,15,,,,,,,,,,,,,,,,11,,79,0
9419,note_on,,59,0,6,,,,,,,,,,,,,,,,1,,55,0
9420,note_on,,1,0,5,,,,,,,,,,,,,,,,0,,74,72
9420,note_on,,1,0,8,,,,,,,,,,,,,,,,3,,78,72
9420,note_on,,0,0,18,,,,,,,,,,,,,,,,15,,57,72
9420,note_on,,1,0,11,,,,,,,,,,,,,,,,6,,69,72
9420,note_on,,1,0,9,,,,,,,,,,,,,,,,4,,50,72
9420,note_on,,1,0,12,,,,,,,,,,,,,,,,7,,66,72
9420,note_on,,0,0,18,,,,,,,,,,,,,,,,15,,62,72
9420,note_on,,0,0,18,,,,,,,,,,,,,,,,15,,74,72
9420,note_on,,0,0,18,,,,,,,,,,,,,,,,15,,66,72
9420,note_on,,1,0,10,,,,,,,,,,,,,,,,5,,74,72
9420,note_on,,1,0,6,,,,,,,,,,,,,,,,1,,50,72
9420,note_on,,1,0,17,,,,,,,,,,,,,,,,13,,50,72
9420,note_on,,1,0,15,,,,,,,,,,,,,,,,11,,78,72
9420,note_on,,1,0,14,,,,,,,,,,,,,,,,10,,81,72
9420,note_on,,1,0,7,,,,,,,,,,,,,,,,2,,81,72
9420,note_on,,1,0,13,,,,,,,,,,,,,,,,8,,50,72
9420,note_on,,1,0,18,,,,,,,,,,,,,,,,15,,50,72
9420,note_on,,1,0,16,,,,,,,,,,,,,,,,12,,74,72
9479,note_on,,59,0,17,,,,,,,,,,,,,,,,13,,50,0
9479,note_on,,59,0,15,,,,,,,,,,,,,,,,11,,78,0
9479,note_on,,59,0,9,,,,,,,,,,,,,,,,4,,50,0
9479,note_on,,59,0,8,,,,,,,,,,,,,,,,3,,78,0
9479,note_on,,59,0,13,,,,,,,,,,,,,,,,8,,50,0
9479,note_on,,59,0,12,,,,,,,,,,,,,,,,7,,66,0
9479,note_on,,59,0,5,,,,,,,,,,,,,,,,0,,74,0
9479,note_on,,59,0,11,,,,,,,,,,,,,,,,6,,69,0
9479,note_on,,0,0,18,,,,,,,,,,,,,,,,15,,57,0
9479,note_on,,0,0,18,,,,,,,,,,,,,,,,15,,62,0
9479,note_on,,0,0,18,,,,,,,,,,,,,,,,15,,66,0
9479,note_on,,0,0,18,,,,,,,,,,,,,,,,15,,74,0
9479,note_on,,59,0,7,,,,,,,,,,,,,,,,2,,81,0
9479,note_on,,59,0,14,,,,,,,,,,,,,,,,10,,81,0
9479,note_on,,59,0,18,,,,,,,,,,,,,,,,15,,50,0
9479,note_on,,59,0,10,,,,,,,,,,,,,,,,5,,74,0
9479,note_on,,59,0,16,,,,,,,,,,,,,,,,12,,74,0
9479,note_on,,59,0,6,,,,,,,,,,,,,,,,1,,50,0
9540,note_on,,61,0,6,,,,,,,,,,,,,,,,1,,54,72
9540,note_on,,61,0,9,,,,,,,,,,,,,,,,4,,50,72
9540,note_on,,61,0,11,,,,,,,,,,,,,,,,6,,69,72
9540,note_on,,61,0,7,,,,,,,,,,,,,,,,2,,74,72
9540,note_on,,61,0,8,,,,,,,,,,,,,,,,3,,66,72
9540,note_on,,61,0,15,,,,,,,,,,,,,,,,11,,81,72
9540,note_on,,0,0,18,,,,,,,,,,,,,,,,15,,74,72
9540,note_on,,0,0,18,,,,,,,,,,,,,,,,15,,69,72
9540,note_on,,0,0,18,,,,,,,,,,,,,,,,15,,62,72
9540,note_on,,0,0,18,,,,,,,,,,,,,,,,15,,57,72
9540,note_on,,61,0,14,,,,,,,,,,,,,,,,10,,86,72
9540,note_on,,61,0,13,,,,,,,,,,,,,,,,8,,54,72
9540,note_on,,61,0,10,,,,,,,,,,,,,,,,5,,74,72
9540,note_on,,61,0,18,,,,,,,,,,,,,,,,15,,54,72
9540,note_on,,61,0,5,,,,,,,,,,,,,,,,0,,74,72
9540,note_on,,61,0,16,,,,,,,,,,,,,,,,12,,62,72
9540,note_on,,61,0,12,,,,,,,,,,,,,,,,7,,62,72
9540,note_on,,61,0,17,,,,,,,,,,,,,,,,13,,54,72
9569,note_on,,29,0,17,,,,,,,,,,,,,,,,13,,54,0
9569,note_on,,29,0,5,,,,,,,,,,,,,,,,0,,74,0
9569,note_on,,29,0,13,,,,,,,,,,,,,,,,8,,54,0
9569,note_on,,29,0,14,,,,,,,,,,,,,,,,10,,86,0
9569,note_on,,29,0,7,,,,,,,,,,,,,,,,2,,74,0
9569,note_on,,29,0,16,,,,,,,,,,,,,,,,12,,62,0
9569,note_on,,29,0,12,,,,,,,,,,,,,,,,7,,62,0
9569,note_on,,29,0,15,,,,,,,,,,,,,,,,11,,81,0
9569,note_on,,29,0,10,,,,,,,,,,,,,,,,5,,74,0
9569,note_on,,29,0,6,,,,,,,,,,,,,,,,1,,54,0
9569,note_on,,29,0,8,,,,,,,,,,,,,,,,3,,66,0
9569,note_on,,0,0,18,,,,,,,,,,,,,,,,15,,57,0
9569,note_on,,29,0,9,,,,,,,,,,,,,,,,4,,50,0
9569,note_on,,0,0,18,,,,,,,,,,,,,,,,15,,62,0
9569,note_on,,29,0,11,,,,,,,,,,,,,,,,6,,69,0
9569,note_on,,0,0,18,,,,,,,,,,,,,,,,15,,74,0
9569,note_on,,29,0,18,,,,,,,,,,,,,,,,15,,54,0
9569,note_on,,0,0,18,,,,,,,,,,,,,,,,15,,69,0
9570,note_on,,1,0,13,,,,,,,,,,,,,,,,8,,54,72
9570,note_on,,1,0,17,,,,,,,,,,,,,,,,13,,54,72
9570,note_on,,1,0,14,,,,,,,,,,,,,,,,10,,81,72
9570,note_on,,1,0,7,,,,,,,,,,,,,,,,2,,74,72
9570,note_on,,1,0,18,,,,,,,,,,,,,,,,15,,54,72
9570,note_on,,0,0,18,,,,,,,,,,,,,,,,15,,74,72
9570,note_on,,0,0,18,,,,,,,,,,,,,,,,15,,69,72
9570,note_on,,0,0,18,,,,,,,,,,,,,,,,15,,62,72
9570,note_on,,0,0,18,,,,,,,,,,,,,,,,15,,57,72
9570,note_on,,1,0,10,,,,,,,,,,,,,,,,5,,74,72
9570,note_on,,1,0,11,,,,,,,,,,,,,,,,6,,69,72
9570,note_on,,1,0,8,,,,,,,,,,,,,,,,3,,66,72
9570,note_on,,1,0,15,,,,,,,,,,,,,,,,11,,74,72
9570,note_on,,1,0,16,,,,,,,,,,,,,,,,12,,66,72
9570,note_on,,1,0,5,,,,,,,,,,,,,,,,0,,74,72
9570,note_on,,1,0,9,,,,,,,,,,,,,,,,4,,50,72
9570,note_on,,1,0,12,,,,,,,,,,,,,,,,7,,62,72
9570,note_on,,1,0,6,,,,,,,,,,,,,,,,1,,54,72
9599,note_on,,29,0,12,,,,,,,,,,,,,,,,7,,62,0
9599,note_on,,29,0,7,,,,,,,,,,,,,,,,2,,74,0
9599,note_on,,29,0,17,,,,,,,,,,,,,,,,13,,54,0
9599,note_on,,29,0,13,,,,,,,,,,,,,,,,8,,54,0
9599,note_on,,29,0,14,,,,,,,,,,,,,,,,10,,81,0
9599,note_on,,29,0,18,,,,,,,,,,,,,,,,15,,54,0
9599,note_on,,0,0,18,,,,,,,,,,,,,,,,15,,74,0
9599,note_on,,29,0,15,,,,,,,,,,,,,,,,11,,74,0
9599,note_on,,0,0,18,,,,,,,,,,,,,,,,15,,69,0
9599,note_on,,0,0,18,,,,,,,,,,,,,,,,15,,62,0
9599,note_on,,29,0,5,,,,,,,,,,,,,,,,0,,74,0
9599,note_on,,29,0,6,,,,,,,,,,,,,,,,1,,54,0
9599,note_on,,29,0,8,,,,,,,,,,,,,,,,3,,66,0
9599,note_on,,29,0,10,,,,,,,,,,,,,,,,5,,74,0
9599,note_on,,29,0,16,,,,,,,,,,,,,,,,12,,66,0
9599,note_on,,29,0,9,,,,,,,,,,,,,,,,4,,50,0
9599,note_on,,0,0,18,,,,,,,,,,,,,,,,15,,57,0
9599,note_on,,29,0,11,,,,,,,,,,,,,,,,6,,69,0
9600,note_on,,0,0,18,,,,,,,,,,,,,,,,15,,74,72
9600,note_on,,0,0,18,,,,,,,,,,,,,,,,15,,67,72
9600,note_on,,0,0,18,,,,,,,,,,,,,,,,15,,62,72
9600,note_on,,1,0,14,,,,,,,,,,,,,,,,10,,83,72
9600,note_on,,1,0,8,,,,,,,,,,,,,,,,3,,62,72
9600,note_on,,1,0,13,,,,,,,,,,,,,,,,8,,55,72
9600,note_on,,1,0,17,,,,,,,,,,,,,,,,13,,55,72
9600,note_on,,0,0,18,,,,,,,,,,,,,,,,15,,59,72
9600,note_on,,1,0,7,,,,,,,,,,,,,,,,2,,79,72
9600,note_on,,1,0,11,,,,,,,,,,,,,,,,6,,71,72
9600,note_on,,1,0,5,,,,,,,,,,,,,,,,0,,74,72
9600,note_on,,1,0,10,,,,,,,,,,,,,,,,5,,74,72
9600,note_on,,1,0,9,,,,,,,,,,,,,,,,4,,50,72
9600,note_on,,1,0,18,,,,,,,,,,,,,,,,15,,55,72
9600,note_on,,1,0,6,,,,,,,,,,,,,,,,1,,55,72
9600,note_on,,1,0,16,,,,,,,,,,,,,,,,12,,74,72
9600,note_on,,1,0,12,,,,,,,,,,,,,,,,7,,67,72
9600,note_on,,1,0,15,,,,,,,,,,,,,,,,11,,79,72
9659,note_on,,59,0,17,,,,,,,,,,,,,,,,13,,55,0
9659,note_on,,59,0,16,,,,,,,,,,,,,,,,12,,74,0
9659,note_on,,59,0,9,,,,,,,,,,,,,,,,4,,50,0
9659,note_on,,59,0,18,,,,,,,,,,,,,,,,15,,55,0
9659,note_on,,0,0,18,,,,,,,,,,,,,,,,15,,74,0
9659,note_on,,59,0,13,,,,,,,,,,,,,,,,8,,55,0
9659,note_on,,0,0,18,,,,,,,,,,,,,,,,15,,67,0
9659,note_on,,0,0,18,,,,,,,,,,,,,,,,15,,62,0
9659,note_on,,0,0,18,,,,,,,,,,,,,,,,15,,59,0
9659,note_on,,59,0,8,,,,,,,,,,,,,,,,3,,62,0
9659,note_on,,59,0,7,,,,,,,,,,,,,,,,2,,79,0
9659,note_on,,59,0,11,,,,,,,,,,,,,,,,6,,71,0
9659,note_on,,59,0,6,,,,,,,,,,,,,,,,1,,55,0
9659,note_on,,59,0,10,,,,,,,,,,,,,,,,5,,74,0
9659,note_on,,59,0,5,,,,,,,,,,,,,,,,0,,74,0
9659,note_on,,59,0,12,,,,,,,,,,,,,,,,7,,67,0
9659,note_on,,59,0,15,,,,,,,,,,,,,,,,11,,79,0
9659,note_on,,59,0,14,,,,,,,,,,,,,,,,10,,83,0
9660,note_on,,1,0,15,,,,,,,,,,,,,,,,11,,78,72
9660,note_on,,1,0,14,,,,,,,,,,,,,,,,10,,86,72
9660,note_on,,1,0,9,,,,,,,,,,,,,,,,4,,50,72
9660,note_on,,0,0,18,,,,,,,,,,,,,,,,15,,62,72
9660,note_on,,1,0,13,,,,,,,,,,,,,,,,8,,50,72
9660,note_on,,1,0,11,,,,,,,,,,,,,,,,6,,69,72
9660,note_on,,1,0,16,,,,,,,,,,,,,,,,12,,74,72
9660,note_on,,0,0,18,,,,,,,,,,,,,,,,15,,57,72
9660,note_on,,1,0,12,,,,,,,,,,,,,,,,7,,66,72
9660,note_on,,1,0,17,,,,,,,,,,,,,,,,13,,54,72
9660,note_on,,0,0,18,,,,,,,,,,,,,,,,15,,66,72
9660,note_on,,0,0,18,,,,,,,,,,,,,,,,15,,74,72
9660,note_on,,1,0,7,,,,,,,,,,,,,,,,2,,78,72
9660,note_on,,1,0,8,,,,,,,,,,,,,,,,3,,62,72
9660,note_on,,1,0,5,,,,,,,,,,,,,,,,0,,74,72
9660,note_on,,1,0,18,,,,,,,,,,,,,,,,15,,54,72
9660,note_on,,1,0,6,,,,,,,,,,,,,,,,1,,54,72
9660,note_on,,1,0,10,,,,,,,,,,,,,,,,5,,74,72
9689,note_on,,29,0,16,,,,,,,,,,,,,,,,12,,74,0
9689,note_on,,29,0,14,,,,,,,,,,,,,,,,10,,86,0
9689,note_on,,29,0,7,,,,,,,,,,,,,,,,2,,78,0
9689,note_on,,29,0,8,,,,,,,,,,,,,,,,3,,62,0
9689,note_on,,29,0,9,,,,,,,,,,,,,,,,4,,50,0
9689,note_on,,29,0,15,,,,,,,,,,,,,,,,11,,78,0
9690,note_on,,1,0,9,,,,,,,,,,,,,,,,4,,50,72
9690,note_on,,1,0,7,,,,,,,,,,,,,,,,2,,78,72
9690,note_on,,1,0,14,,,,,,,,,,,,,,,,10,,86,72
9690,note_on,,1,0,15,,,,,,,,,,,,,,,,11,,78,72
9690,note_on,,1,0,16,,,,,,,,,,,,,,,,12,,69,72
9690,note_on,,1,0,8,,,,,,,,,,,,,,,,3,,62,72
9719,note_on,,0,0,18,,,,,,,,,,,,,,,,15,,66,0
9719,note_on,,0,0,18,,,,,,,,,,,,,,,,15,,74,0
9719,note_on,,59,0,18,,,,,,,,,,,,,,,,15,,54,0
9719,note_on,,59,0,6,,,,,,,,,,,,,,,,1,,54,0
9719,note_on,,29,0,8,,,,,,,,,,,,,,,,3,,62,0
9719,note_on,,29,0,9,,,,,,,,,,,,,,,,4,,50,0
9719,note_on,,29,0,16,,,,,,,,,,,,,,,,12,,69,0
9719,note_on,,59,0,11,,,,,,,,,,,,,,,,6,,69,0
9719,note_on,,59,0,10,,,,,,,,,,,,,,,,5,,74,0
9719,note_on,,0,0,18,,,,,,,,,,,,,,,,15,,62,0
9719,note_on,,0,0,18,,,,,,,,,,,,,,,,15,,57,0
9719,note_on,,59,0,12,,,,,,,,,,,,,,,,7,,66,0
9719,note_on,,29,0,15,,,,,,,,,,,,,,,,11,,78,0
9719,note_on,,29,0,7,,,,,,,,,,,,,,,,2,,78,0
9719,note_on,,59,0,17,,,,,,,,,,,,,,,,13,,54,0
9719,note_on,,29,0,14,,,,,,,,,,,,,,,,10,,86,0
9719,note_on,,59,0,5,,,,,,,,,,,,,,,,0,,74,0
9719,note_on,,59,0,13,,,,,,,,,,,,,,,,8,,50,0
9720,note_on,,1,0,8,,,,,,,,,,,,,,,,3,,69,72
9720,note_on,,1,0,7,,,,,,,,,,,,,,,,2,,78,72
9720,note_on,,1,0,15,,,,,,,,,,,,,,,,11,,78,72
9720,note_on,,1,0,14,,,,,,,,,,,,,,,,10,,86,72
9720,note_on,,1,0,9,,,,,,,,,,,,,,,,4,,50,72
9720,note_on,,1,0,16,,,,,,,,,,,,,,,,12,,62,72
9779,note_on,,59,0,7,,,,,,,,,,,,,,,,2,,78,0
9779,note_on,,59,0,14,,,,,,,,,,,,,,,,10,,86,0
9779,note_on,,59,0,16,,,,,,,,,,,,,,,,12,,62,0
9779,note_on,,59,0,9,,,,,,,,,,,,,,,,4,,50,0
9779,note_on,,59,0,8,,,,,,,,,,,,,,,,3,,69,0
9779,note_on,,59,0,15,,,,,,,,,,,,,,,,11,,78,0
9780,note_on,,1,0,16,,,,,,,,,,,,,,,,12,,62,72
9780,note_on,,1,0,7,,,,,,,,,,,,,,,,2,,74,72
9780,note_on,,61,0,13,,,,,,,,,,,,,,,,8,,54,72
9780,note_on,,61,0,10,,,,,,,,,,,,,,,,5,,74,72
9780,note_on,,0,0,18,,,,,,,,,,,,,,,,15,,57,72
9780,note_on,,0,0,18,,,,,,,,,,,,,,,,15,,62,72
9780,note_on,,0,0,18,,,,,,,,,,,,,,,,15,,69,72
9780,note_on,,1,0,8,,,,,,,,,,,,,,,,3,,66,72
9780,note_on,,61,0,6,,,,,,,,,,,,,,,,1,,54,72
9780,note_on,,1,0,9,,,,,,,,,,,,,,,,4,,50,72
9780,note_on,,1,0,14,,,,,,,,,,,,,,,,10,,86,72
9780,note_on,,0,0,18,,,,,,,,,,,,,,,,15,,74,72
9780,note_on,,61,0,18,,,,,,,,,,,,,,,,15,,54,72
9780,note_on,,1,0,15,,,,,,,,,,,,,,,,11,,81,72
9780,note_on,,61,0,11,,,,,,,,,,,,,,,,6,,69,72
9780,note_on,,61,0,12,,,,,,,,,,,,,,,,7,,62,72
9780,note_on,,61,0,17,,,,,,,,,,,,,,,,13,,54,72
9780,note_on,,61,0,5,,,,,,,,,,,,,,,,0,,74,72
9809,note_on,,29,0,17,,,,,,,,,,,,,,,,13,,54,0
9809,note_on,,29,0,5,,,,,,,,,,,,,,,,0,,74,0
9809,note_on,,29,0,6,,,,,,,,,,,,,,,,1,,54,0
9809,note_on,,29,0,13,,,,,,,,,,,,,,,,8,,54,0
9809,note_on,,29,0,18,,,,,,,,,,,,,,,,15,,54,0
9809,note_on,,29,0,12,,,,,,,,,,,,,,,,7,,62,0
9809,note_on,,29,0,10,,,,,,,,,,,,,,,,5,,74,0
9809,note_on,,0,0,18,,,,,,,,,,,,,,,,15,,57,0
9809,note_on,,0,0,18,,,,,,,,,,,,,,,,15,,62,0
9809,note_on,,0,0,18,,,,,,,,,,,,,,,,15,,69,0
9809,note_on,,0,0,18,,,,,,,,,,,,,,,,15,,74,0
9809,note_on,,29,0,7,,,,,,,,,,,,,,,,2,,74,0
9809,note_on,,29,0,8,,,,,,,,,,,,,,,,3,,66,0
9809,note_on,,29,0,11,,,,,,,,,,,,,,,,6,,69,0
9809,note_on,,29,0,15,,,,,,,,,,,,,,,,11,,81,0
9809,note_on,,29,0,14,,,,,,,,,,,,,,,,10,,86,0
9809,note_on,,29,0,9,,,,,,,,,,,,,,,,4,,50,0
9809,note_on,,29,0,16,,,,,,,,,,,,,,,,12,,62,0
9810,note_on,,1,0,9,,,,,,,,,,,,,,,,4,,50,72
9810,note_on,,1,0,7,,,,,,,,,,,,,,,,2,,74,72
9810,note_on,,1,0,10,,,,,,,,,,,,,,,,5,,74,72
9810,note_on,,1,0,15,,,,,,,,,,,,,,,,11,,74,72
9810,note_on,,0,0,18,,,,,,,,,,,,,,,,15,,69,72
9810,note_on,,1,0,5,,,,,,,,,,,,,,,,0,,74,72
9810,note_on,,0,0,18,,,,,,,,,,,,,,,,15,,74,72
9810,note_on,,1,0,18,,,,,,,,,,,,,,,,15,,54,72
9810,note_on,,0,0,18,,,,,,,,,,,,,,,,15,,57,72
9810,note_on,,1,0,16,,,,,,,,,,,,,,,,12,,62,72
9810,note_on,,1,0,11,,,,,,,,,,,,,,,,6,,69,72
9810,note_on,,1,0,8,,,,,,,,,,,,,,,,3,,66,72
9810,note_on,,1,0,14,,,,,,,,,,,,,,,,10,,86,72
9810,note_on,,1,0,17,,,,,,,,,,,,,,,,13,,54,72
9810,note_on,,0,0,18,,,,,,,,,,,,,,,,15,,62,72
9810,note_on,,1,0,13,,,,,,,,,,,,,,,,8,,54,72
9810,note_on,,1,0,6,,,,,,,,,,,,,,,,1,,54,72
9810,note_on,,1,0,12,,,,,,,,,,,,,,,,7,,62,72
9839,note_on,,29,0,12,,,,,,,,,,,,,,,,7,,62,0
9839,note_on,,29,0,17,,,,,,,,,,,,,,,,13,,54,0
9839,note_on,,29,0,14,,,,,,,,,,,,,,,,10,,86,0
9839,note_on,,29,0,16,,,,,,,,,,,,,,,,12,,62,0
9839,note_on,,29,0,13,,,,,,,,,,,,,,,,8,,54,0
9839,note_on,,29,0,5,,,,,,,,,,,,,,,,0,,74,0
9839,note_on,,29,0,11,,,,,,,,,,,,,,,,6,,69,0
9839,note_on,,29,0,9,,,,,,,,,,,,,,,,4,,50,0
9839,note_on,,29,0,6,,,,,,,,,,,,,,,,1,,54,0
9839,note_on,,29,0,18,,,,,,,,,,,,,,,,15,,54,0
9839,note_on,,0,0,18,,,,,,,,,,,,,,,,15,,74,0
9839,note_on,,0,0,18,,,,,,,,,,,,,,,,15,,57,0
9839,note_on,,29,0,10,,,,,,,,,,,,,,,,5,,74,0
9839,note_on,,0,0,18,,,,,,,,,,,,,,,,15,,62,0
9839,note_on,,0,0,18,,,,,,,,,,,,,,,,15,,69,0
9839,note_on,,29,0,15,,,,,,,,,,,,,,,,11,,74,0
9839,note_on,,29,0,7,,,,,,,,,,,,,,,,2,,74,0
9839,note_on,,29,0,8,,,,,,,,,,,,,,,,3,,66,0
9840,note_on,,1,0,7,,,,,,,,,,,,,,,,2,,74,72
9840,note_on,,0,0,18,,,,,,,,,,,,,,,,15,,67,72
9840,note_on,,1,0,10,,,,,,,,,,,,,,,,5,,74,72
9840,note_on,,1,0,17,,,,,,,,,,,,,,,,13,,55,72
9840,note_on,,1,0,12,,,,,,,,,,,,,,,,7,,67,72
9840,note_on,,1,0,18,,,,,,,,,,,,,,,,15,,55,72
9840,note_on,,0,0,18,,,,,,,,,,,,,,,,15,,59,72
9840,note_on,,0,0,18,,,,,,,,,,,,,,,,15,,74,72
9840,note_on,,1,0,5,,,,,,,,,,,,,,,,0,,74,72
9840,note_on,,1,0,14,,,,,,,,,,,,,,,,10,,83,72
9840,note_on,,1,0,13,,,,,,,,,,,,,,,,8,,55,72
9840,note_on,,1,0,11,,,,,,,,,,,,,,,,6,,71,72
9840,note_on,,1,0,6,,,,,,,,,,,,,,,,1,,55,72
9840,note_on,,1,0,16,,,,,,,,,,,,,,,,12,,74,72
9840,note_on,,1,0,15,,,,,,,,,,,,,,,,11,,79,72
9840,note_on,,1,0,8,,,,,,,,,,,,,,,,3,,62,72
9840,note_on,,0,0,18,,,,,,,,,,,,,,,,15,,62,72
9840,note_on,,1,0,9,,,,,,,,,,,,,,,,4,,50,72
9899,note_on,,59,0,15,,,,,,,,,,,,,,,,11,,79,0
9899,note_on,,0,0,18,,,,,,,,,,,,,,,,15,,67,0
9899,note_on,,0,0,18,,,,,,,,,,,,,,,,15,,62,0
9899,note_on,,59,0,12,,,,,,,,,,,,,,,,7,,67,0
9899,note_on,,59,0,18,,,,,,,,,,,,,,,,15,,55,0
9899,note_on,,59,0,14,,,,,,,,,,,,,,,,10,,83,0
9899,note_on,,59,0,11,,,,,,,,,,,,,,,,6,,71,0
9899,note_on,,59,0,10,,,,,,,,,,,,,,,,5,,74,0
9899,note_on,,0,0,18,,,,,,,,,,,,,,,,15,,74,0
9899,note_on,,59,0,17,,,,,,,,,,,,,,,,13,,55,0
9899,note_on,,59,0,16,,,,,,,,,,,,,,,,12,,74,0
9899,note_on,,59,0,9,,,,,,,,,,,,,,,,4,,50,0
9899,note_on,,59,0,5,,,,,,,,,,,,,,,,0,,74,0
9899,note_on,,59,0,6,,,,,,,,,,,,,,,,1,,55,0
9899,note_on,,59,0,7,,,,,,,,,,,,,,,,2,,74,0
9899,note_on,,59,0,13,,,,,,,,,,,,,,,,8,,55,0
9899,note_on,,59,0,8,,,,,,,,,,,,,,,,3,,62,0
9899,note_on,,0,0,18,,,,,,,,,,,,,,,,15,,59,0
9900,note_on,,1,0,16,,,,,,,,,,,,,,,,12,,74,72
9900,note_on,,1,0,9,,,,,,,,,,,,,,,,4,,50,72
9900,note_on,,1,0,6,,,,,,,,,,,,,,,,1,,50,72
9900,note_on,,1,0,13,,,,,,,,,,,,,,,,8,,50,72
9900,note_on,,1,0,18,,,,,,,,,,,,,,,,15,,50,72
9900,note_on,,0,0,18,,,,,,,,,,,,,,,,15,,57,72
9900,note_on,,1,0,17,,,,,,,,,,,,,,,,13,,50,72
9900,note_on,,0,0,18,,,,,,,,,,,,,,,,15,,62,72
9900,note_on,,0,0,18,,,,,,,,,,,,,,,,15,,66,72
9900,note_on,,1,0,5,,,,,,,,,,,,,,,,0,,74,72
9900,note_on,,1,0,8,,,,,,,,,,,,,,,,3,,66,72
9900,note_on,,1,0,15,,,,,,,,,,,,,,,,11,,78,72
9900,note_on,,1,0,7,,,,,,,,,,,,,,,,2,,69,72
9900,note_on,,0,0,18,,,,,,,,,,,,,,,,15,,74,72
9900,note_on,,1,0,10,,,,,,,,,,,,,,,,5,,74,72
9900,note_on,,1,0,11,,,,,,,,,,,,,,,,6,,69,72
9900,note_on,,1,0,12,,,,,,,,,,,,,,,,7,,66,72
9900,note_on,,1,0,14,,,,,,,,,,,,,,,,10,,81,72
9929,note_on,,29,0,7,,,,,,,,,,,,,,,,2,,69,0
9929,note_on,,29,0,8,,,,,,,,,,,,,,,,3,,66,0
9929,note_on,,29,0,9,,,,,,,,,,,,,,,,4,,50,0
9930,note_on,,1,0,7,,,,,,,,,,,,,,,,2,,69,72
9930,note_on,,1,0,9,,,,,,,,,,,,,,,,4,,50,72
9930,note_on,,1,0,8,,,,,,,,,,,,,,,,3,,66,72
9959,note_on,,29,0,7,,,,,,,,,,,,,,,,2,,69,0
9959,note_on,,0,0,18,,,,,,,,,,,,,,,,15,,62,0
9959,note_on,,59,0,11,,,,,,,,,,,,,,,,6,,69,0
9959,note_on,,59,0,17,,,,,,,,,,,,,,,,13,,50,0
9959,note_on,,59,0,15,,,,,,,,,,,,,,,,11,,78,0
9959,note_on,,0,0,18,,,,,,,,,,,,,,,,15,,57,0
9959,note_on,,0,0,18,,,,,,,,,,,,,,,,15,,74,0
9959,note_on,,59,0,13,,,,,,,,,,,,,,,,8,,50,0
9959,note_on,,59,0,14,,,,,,,,,,,,,,,,10,,81,0
9959,note_on,,59,0,5,,,,,,,,,,,,,,,,0,,74,0
9959,note_on,,29,0,8,,,,,,,,,,,,,,,,3,,66,0
9959,note_on,,0,0,18,,,,,,,,,,,,,,,,15,,66,0
9959,note_on,,29,0,9,,,,,,,,,,,,,,,,4,,50,0
9959,note_on,,59,0,16,,,,,,,,,,,,,,,,12,,74,0
9959,note_on,,59,0,12,,,,,,,,,,,,,,,,7,,66,0
9959,note_on,,59,0,6,,,,,,,,,,,,,,,,1,,50,0
9959,note_on,,59,0,10,,,,,,,,,,,,,,,,5,,74,0
9959,note_on,,59,0,18,,,,,,,,,,,,,,,,15,,50,0
9960,note_on,,1,0,8,,,,,,,,,,,,,,,,3,,66,72
9960,note_on,,1,0,9,,,,,,,,,,,,,,,,4,,50,72
9960,note_on,,1,0,7,,,,,,,,,,,,,,,,2,,69,72
10019,note_on,,59,0,8,,,,,,,,,,,,,,,,3,,66,0
10019,note_on,,59,0,7,,,,,,,,,,,,,,,,2,,69,0
10019,note_on,,59,0,9,,,,,,,,,,,,,,,,4,,50,0
10020,note_on,,1,0,9,,,,,,,,,,,,,,,,4,,50,72
10020,note_on,,1,0,8,,,,,,,,,,,,,,,,3,,66,72
10020,note_on,,1,0,7,,,,,,,,,,,,,,,,2,,69,72
10049,note_on,,29,0,8,,,,,,,,,,,,,,,,3,,66,0
10049,note_on,,29,0,7,,,,,,,,,,,,,,,,2,,69,0
10049,note_on,,29,0,9,,,,,,,,,,,,,,,,4,,50,0
10050,note_on,,1,0,8,,,,,,,,,,,,,,,,3,,66,72
10050,note_on,,1,0,7,,,,,,,,,,,,,,,,2,,69,72
10050,note_on,,1,0,9,,,,,,,,,,,,,,,,4,,50,72
10079,note_on,,29,0,8,,,,,,,,,,,,,,,,3,,66,0
10079,note_on,,29,0,7,,,,,,,,,,,,,,,,2,,69,0
10079,note_on,,29,0,9,,,,,,,,,,,,,,,,4,,50,0
10080,note_on,,1,0,9,,,,,,,,,,,,,,,,4,,50,72
10080,note_on,,1,0,8,,,,,,,,,,,,,,,,3,,62,72
10080,note_on,,121,0,14,,,,,,,,,,,,,,,,10,,74,72
10080,note_on,,121,0,5,,,,,,,,,,,,,,,,0,,74,72
10080,note_on,,121,0,18,,,,,,,,,,,,,,,,15,,74,72
10080,note_on,,121,0,10,,,,,,,,,,,,,,,,5,,74,72
10080,note_on,,1,0,7,,,,,,,,,,,,,,,,2,,66,72
10199,note_on,,119,0,9,,,,,,,,,,,,,,,,4,,50,0
10199,note_on,,119,0,8,,,,,,,,,,,,,,,,3,,62,0
10199,note_on,,119,0,7,,,,,,,,,,,,,,,,2,,66,0
10259,note_on,,179,0,18,,,,,,,,,,,,,,,,15,,74,0
10260,note_on,,0,0,18,,,,,,,,,,,,,,,,15,,69,72
10260,note_on,,1,0,18,,,,,,,,,,,,,,,,15,,62,72
10260,note_on,,301,0,16,,,,,,,,,,,,,,,,12,,62,72
10260,note_on,,301,0,12,,,,,,,,,,,,,,,,7,,62,72
10260,note_on,,0,0,18,,,,,,,,,,,,,,,,15,,66,72
10260,note_on,,301,0,17,,,,,,,,,,,,,,,,13,,62,72
10289,note_on,,29,0,12,,,,,,,,,,,,,,,,7,,62,0
10289,note_on,,0,0,18,,,,,,,,,,,,,,,,15,,69,0
10289,note_on,,29,0,16,,,,,,,,,,,,,,,,12,,62,0
10289,note_on,,29,0,17,,,,,,,,,,,,,,,,13,,62,0
10289,note_on,,29,0,18,,,,,,,,,,,,,,,,15,,62,0
10289,note_on,,0,0,18,,,,,,,,,,,,,,,,15,,66,0
10290,note_on,,1,0,16,,,,,,,,,,,,,,,,12,,62,72
10290,note_on,,1,0,17,,,,,,,,,,,,,,,,13,,62,72
10290,note_on,,1,0,12,,,,,,,,,,,,,,,,7,,62,72
10290,note_on,,0,0,18,,,,,,,,,,,,,,,,15,,69,72
10290,note_on,,0,0,18,,,,,,,,,,,,,,,,15,,66,72
10290,note_on,,1,0,18,,,,,,,,,,,,,,,,15,,62,72
10319,note_on,,29,0,17,,,,,,,,,,,,,,,,13,,62,0
10319,note_on,,239,0,14,,,,,,,,,,,,,,,,10,,74,0
10319,note_on,,29,0,16,,,,,,,,,,,,,,,,12,,62,0
10319,note_on,,0,0,18,,,,,,,,,,,,,,,,15,,66,0
10319,note_on,,29,0,18,,,,,,,,,,,,,,,,15,,62,0
10319,note_on,,29,0,12,,,,,,,,,,,,,,,,7,,62,0
10319,note_on,,239,0,10,,,,,,,,,,,,,,,,5,,74,0
10319,note_on,,239,0,5,,,,,,,,,,,,,,,,0,,74,0
10319,note_on,,0,0,18,,,,,,,,,,,,,,,,15,,69,0
10320,note_on,,1,0,16,,,,,,,,,,,,,,,,12,,61,72
10320,note_on,,1,0,18,,,,,,,,,,,,,,,,15,,61,72
10320,note_on,,1,0,10,,,,,,,,,,,,,,,,5,,76,72
10320,note_on,,1,0,14,,,,,,,,,,,,,,,,10,,76,72
10320,note_on,,0,0,18,,,,,,,,,,,,,,,,15,,69,72
10320,note_on,,1,0,12,,,,,,,,,,,,,,,,7,,61,72
10320,note_on,,1,0,17,,,,,,,,,,,,,,,,13,,61,72
10320,note_on,,1,0,5,,,,,,,,,,,,,,,,0,,76,72
10320,note_on,,0,0,18,,,,,,,,,,,,,,,,15,,64,72
10379,note_on,,59,0,12,,,,,,,,,,,,,,,,7,,61,0
10379,note_on,,59,0,16,,,,,,,,,,,,,,,,12,,61,0
10379,note_on,,59,0,17,,,,,,,,,,,,,,,,13,,61,0
10379,note_on,,0,0,18,,,,,,,,,,,,,,,,15,,64,0
10379,note_on,,0,0,18,,,,,,,,,,,,,,,,15,,69,0
10379,note_on,,59,0,18,,,,,,,,,,,,,,,,15,,61,0
10380,note_on,,1,0,18,,,,,,,,,,,,,,,,15,,57,72
10380,note_on,,0,0,18,,,,,,,,,,,,,,,,15,,73,72
10380,note_on,,0,0,18,,,,,,,,,,,,,,,,15,,64,72
10380,note_on,,1,0,12,,,,,,,,,,,,,,,,7,,57,72
10380,note_on,,1,0,17,,,,,,,,,,,,,,,,13,,57,72
10380,note_on,,421,0,15,,,,,,,,,,,,,,,,11,,69,72
10380,note_on,,0,0,18,,,,,,,,,,,,,,,,15,,69,72
10380,note_on,,1,0,16,,,,,,,,,,,,,,,,12,,57,72
10409,note_on,,29,0,15,,,,,,,,,,,,,,,,11,,69,0
10410,note_on,,1,0,15,,,,,,,,,,,,,,,,11,,69,72
10439,note_on,,59,0,17,,,,,,,,,,,,,,,,13,,57,0
10439,note_on,,0,0,18,,,,,,,,,,,,,,,,15,,64,0
10439,note_on,,119,0,14,,,,,,,,,,,,,,,,10,,76,0
10439,note_on,,119,0,10,,,,,,,,,,,,,,,,5,,76,0
10439,note_on,,119,0,5,,,,,,,,,,,,,,,,0,,76,0
10439,note_on,,59,0,16,,,,,,,,,,,,,,,,12,,57,0
10439,note_on,,59,0,18,,,,,,,,,,,,,,,,15,,57,0
10439,note_on,,0,0,18,,,,,,,,,,,,,,,,15,,69,0
10439,note_on,,0,0,18,,,,,,,,,,,,,,,,15,,73,0
10439,note_on,,29,0,15,,,,,,,,,,,,,,,,11,,69,0
10439,note_on,,59,0,12,,,,,,,,,,,,,,,,7,,57,0
10440,note_on,,1,0,14,,,,,,,,,,,,,,,,10,,78,72
10440,note_on,,1,0,10,,,,,,,,,,,,,,,,5,,78,72
10440,note_on,,1,0,15,,,,,,,,,,,,,,,,11,,66,72
10440,note_on,,1,0,5,,,,,,,,,,,,,,,,0,,78,72
10499,note_on,,59,0,15,,,,,,,,,,,,,,,,11,,66,0
10500,note_on,,61,0,18,,,,,,,,,,,,,,,,15,,62,72
10500,note_on,,61,0,17,,,,,,,,,,,,,,,,13,,62,72
10500,note_on,,61,0,16,,,,,,,,,,,,,,,,12,,62,72
10500,note_on,,1,0,15,,,,,,,,,,,,,,,,11,,62,72
10500,note_on,,61,0,12,,,,,,,,,,,,,,,,7,,62,72
10500,note_on,,0,0,18,,,,,,,,,,,,,,,,15,,74,72
10500,note_on,,0,0,18,,,,,,,,,,,,,,,,15,,69,72
10500,note_on,,0,0,18,,,,,,,,,,,,,,,,15,,66,72
10529,note_on,,29,0,17,,,,,,,,,,,,,,,,13,,62,0
10529,note_on,,29,0,12,,,,,,,,,,,,,,,,7,,62,0
10529,note_on,,29,0,18,,,,,,,,,,,,,,,,15,,62,0
10529,note_on,,0,0,18,,,,,,,,,,,,,,,,15,,74,0
10529,note_on,,29,0,16,,,,,,,,,,,,,,,,12,,62,0
10529,note_on,,0,0,18,,,,,,,,,,,,,,,,15,,66,0
10529,note_on,,0,0,18,,,,,,,,,,,,,,,,15,,69,0
10530,note_on,,1,0,18,,,,,,,,,,,,,,,,15,,62,72
10530,note_on,,0,0,18,,,,,,,,,,,,,,,,15,,74,72
10530,note_on,,0,0,18,,,,,,,,,,,,,,,,15,,69,72
10530,note_on,,0,0,18,,,,,,,,,,,,,,,,15,,66,72
10530,note_on,,1,0,16,,,,,,,,,,,,,,,,12,,62,72
10530,note_on,,1,0,17,,,,,,,,,,,,,,,,13,,62,72
10530,note_on,,1,0,12,,,,,,,,,,,,,,,,7,,62,72
10559,note_on,,29,0,16,,,,,,,,,,,,,,,,12,,62,0
10559,note_on,,29,0,17,,,,,,,,,,,,,,,,13,,62,0
10559,note_on,,119,0,10,,,,,,,,,,,,,,,,5,,78,0
10559,note_on,,59,0,15,,,,,,,,,,,,,,,,11,,62,0
10559,note_on,,0,0,18,,,,,,,,,,,,,,,,15,,66,0
10559,note_on,,119,0,14,,,,,,,,,,,,,,,,10,,78,0
10559,note_on,,0,0,18,,,,,,,,,,,,,,,,15,,69,0
10559,note_on,,0,0,18,,,,,,,,,,,,,,,,15,,74,0
10559,note_on,,119,0,5,,,,,,,,,,,,,,,,0,,78,0
10559,note_on,,29,0,18,,,,,,,,,,,,,,,,15,,62,0
10559,note_on,,29,0,12,,,,,,,,,,,,,,,,7,,62,0
10560,note_on,,1,0,18,,,,,,,,,,,,,,,,15,,59,72
10560,note_on,,0,0,18,,,,,,,,,,,,,,,,15,,74,72
10560,note_on,,0,0,18,,,,,,,,,,,,,,,,15,,67,72
10560,note_on,,0,0,18,,,,,,,,,,,,,,,,15,,62,72
10560,note_on,,1,0,17,,,,,,,,,,,,,,,,13,,59,72
10560,note_on,,1,0,5,,,,,,,,,,,,,,,,0,,79,72
10560,note_on,,1,0,14,,,,,,,,,,,,,,,,10,,79,72
10560,note_on,,1,0,12,,,,,,,,,,,,,,,,7,,59,72
10560,note_on,,1,0,10,,,,,,,,,,,,,,,,5,,79,72
10560,note_on,,1,0,16,,,,,,,,,,,,,,,,12,,59,72
10619,note_on,,59,0,5,,,,,,,,,,,,,,,,0,,79,0
10619,note_on,,0,0,18,,,,,,,,,,,,,,,,15,,62,0
10619,note_on,,0,0,18,,,,,,,,,,,,,,,,15,,67,0
10619,note_on,,0,0,18,,,,,,,,,,,,,,,,15,,74,0
10619,note_on,,59,0,18,,,,,,,,,,,,,,,,15,,59,0
10619,note_on,,59,0,16,,,,,,,,,,,,,,,,12,,59,0
10619,note_on,,59,0,12,,,,,,,,,,,,,,,,7,,59,0
10619,note_on,,59,0,14,,,,,,,,,,,,,,,,10,,79,0
10619,note_on,,59,0,17,,,,,,,,,,,,,,,,13,,59,0
10619,note_on,,59,0,10,,,,,,,,,,,,,,,,5,,79,0
10620,note_on,,0,0,18,,,,,,,,,,,,,,,,15,,62,72
10620,note_on,,1,0,5,,,,,,,,,,,,,,,,0,,67,72
10620,note_on,,1,0,12,,,,,,,,,,,,,,,,7,,59,72
10620,note_on,,1,0,17,,,,,,,,,,,,,,,,13,,59,72
10620,note_on,,1,0,10,,,,,,,,,,,,,,,,5,,67,72
10620,note_on,,61,0,15,,,,,,,,,,,,,,,,11,,62,72
10620,note_on,,1,0,16,,,,,,,,,,,,,,,,12,,59,72
10620,note_on,,1,0,18,,,,,,,,,,,,,,,,15,,59,72
10620,note_on,,0,0,18,,,,,,,,,,,,,,,,15,,79,72
10620,note_on,,0,0,18,,,,,,,,,,,,,,,,15,,74,72
10620,note_on,,1,0,14,,,,,,,,,,,,,,,,10,,67,72
10620,note_on,,0,0,18,,,,,,,,,,,,,,,,15,,67,72
10649,note_on,,29,0,15,,,,,,,,,,,,,,,,11,,62,0
10650,note_on,,1,0,15,,,,,,,,,,,,,,,,11,,62,72
10679,note_on,,59,0,17,,,,,,,,,,,,,,,,13,,59,0
10679,note_on,,59,0,12,,,,,,,,,,,,,,,,7,,59,0
10679,note_on,,59,0,10,,,,,,,,,,,,,,,,5,,67,0
10679,note_on,,59,0,5,,,,,,,,,,,,,,,,0,,67,0
10679,note_on,,0,0,18,,,,,,,,,,,,,,,,15,,79,0
10679,note_on,,0,0,18,,,,,,,,,,,,,,,,15,,67,0
10679,note_on,,59,0,14,,,,,,,,,,,,,,,,10,,67,0
10679,note_on,,59,0,16,,,,,,,,,,,,,,,,12,,59,0
10679,note_on,,29,0,15,,,,,,,,,,,,,,,,11,,62,0
10679,note_on,,0,0,18,,,,,,,,,,,,,,,,15,,62,0
10679,note_on,,59,0,18,,,,,,,,,,,,,,,,15,,59,0
10679,note_on,,0,0,18,,,,,,,,,,,,,,,,15,,74,0
10680,note_on,,1,0,14,,,,,,,,,,,,,,,,10,,79,72
10680,note_on,,1,0,10,,,,,,,,,,,,,,,,5,,79,72
10680,note_on,,1,0,5,,,,,,,,,,,,,,,,0,,79,72
10680,note_on,,1,0,15,,,,,,,,,,,,,,,,11,,71,72
10739,note_on,,59,0,15,,,,,,,,,,,,,,,,11,,71,0
10740,note_on,,61,0,12,,,,,,,,,,,,,,,,7,,64,72
10740,note_on,,0,0,18,,,,,,,,,,,,,,,,15,,71,72
10740,note_on,,0,0,18,,,,,,,,,,,,,,,,15,,67,72
10740,note_on,,61,0,18,,,,,,,,,,,,,,,,15,,64,72
10740,note_on,,61,0,17,,,,,,,,,,,,,,,,13,,64,72
10740,note_on,,1,0,15,,,,,,,,,,,,,,,,11,,71,72
10740,note_on,,61,0,16,,,,,,,,,,,,,,,,12,,64,72
10769,note_on,,0,0,18,,,,,,,,,,,,,,,,15,,71,0
10769,note_on,,0,0,18,,,,,,,,,,,,,,,,15,,67,0
10769,note_on,,29,0,12,,,,,,,,,,,,,,,,7,,64,0
10769,note_on,,29,0,17,,,,,,,,,,,,,,,,13,,64,0
10769,note_on,,29,0,18,,,,,,,,,,,,,,,,15,,64,0
10769,note_on,,29,0,16,,,,,,,,,,,,,,,,12,,64,0
10770,note_on,,1,0,12,,,,,,,,,,,,,,,,7,,64,72
10770,note_on,,1,0,16,,,,,,,,,,,,,,,,12,,64,72
10770,note_on,,0,0,18,,,,,,,,,,,,,,,,15,,67,72
10770,note_on,,1,0,18,,,,,,,,,,,,,,,,15,,64,72
10770,note_on,,0,0,18,,,,,,,,,,,,,,,,15,,71,72
10770,note_on,,1,0,17,,,,,,,,,,,,,,,,13,,64,72
10799,note_on,,29,0,18,,,,,,,,,,,,,,,,15,,64,0
10799,note_on,,0,0,18,,,,,,,,,,,,,,,,15,,71,0
10799,note_on,,0,0,18,,,,,,,,,,,,,,,,15,,67,0
10799,note_on,,29,0,17,,,,,,,,,,,,,,,,13,,64,0
10799,note_on,,29,0,12,,,,,,,,,,,,,,,,7,,64,0
10799,note_on,,29,0,16,,,,,,,,,,,,,,,,12,,64,0
10799,note_on,,59,0,15,,,,,,,,,,,,,,,,11,,71,0
10800,note_on,,1,0,12,,,,,,,,,,,,,,,,7,,61,72
10800,note_on,,0,0,18,,,,,,,,,,,,,,,,15,,69,72
10800,note_on,,0,0,18,,,,,,,,,,,,,,,,15,,67,72
10800,note_on,,1,0,17,,,,,,,,,,,,,,,,13,,61,72
10800,note_on,,0,0,18,,,,,,,,,,,,,,,,15,,64,72
10800,note_on,,1,0,15,,,,,,,,,,,,,,,,11,,64,72
10800,note_on,,1,0,18,,,,,,,,,,,,,,,,15,,61,72
10800,note_on,,1,0,16,,,,,,,,,,,,,,,,12,,61,72
10859,note_on,,59,0,16,,,,,,,,,,,,,,,,12,,61,0
10859,note_on,,179,0,5,,,,,,,,,,,,,,,,0,,79,0
10859,note_on,,59,0,12,,,,,,,,,,,,,,,,7,,61,0
10859,note_on,,0,0,18,,,,,,,,,,,,,,,,15,,64,0
10859,note_on,,0,0,18,,,,,,,,,,,,,,,,15,,67,0
10859,note_on,,0,0,18,,,,,,,,,,,,,,,,15,,69,0
10859,note_on,,59,0,18,,,,,,,,,,,,,,,,15,,61,0
10859,note_on,,59,0,17,,,,,,,,,,,,,,,,13,,61,0
10859,note_on,,179,0,10,,,,,,,,,,,,,,,,5,,79,0
10859,note_on,,59,0,15,,,,,,,,,,,,,,,,11,,64,0
10860,note_on,,1,0,5,,,,,,,,,,,,,,,,0,,79,72
10860,note_on,,1,0,16,,,,,,,,,,,,,,,,12,,57,72
10860,note_on,,1,0,12,,,,,,,,,,,,,,,,7,,57,72
10860,note_on,,0,0,18,,,,,,,,,,,,,,,,15,,64,72
10860,note_on,,0,0,18,,,,,,,,,,,,,,,,15,,73,72
10860,note_on,,1,0,17,,,,,,,,,,,,,,,,13,,57,72
10860,note_on,,1,0,10,,,,,,,,,,,,,,,,5,,79,72
10860,note_on,,0,0,18,,,,,,,,,,,,,,,,15,,69,72
10860,note_on,,1,0,15,,,,,,,,,,,,,,,,11,,69,72
10860,note_on,,1,0,18,,,,,,,,,,,,,,,,15,,57,72
10919,note_on,,59,0,10,,,,,,,,,,,,,,,,5,,79,0
10919,note_on,,59,0,5,,,,,,,,,,,,,,,,0,,79,0
10919,note_on,,59,0,12,,,,,,,,,,,,,,,,7,,57,0
10919,note_on,,239,0,14,,,,,,,,,,,,,,,,10,,79,0
10919,note_on,,59,0,17,,,,,,,,,,,,,,,,13,,57,0
10919,note_on,,59,0,15,,,,,,,,,,,,,,,,11,,69,0
10919,note_on,,59,0,16,,,,,,,,,,,,,,,,12,,57,0
10919,note_on,,0,0,18,,,,,,,,,,,,,,,,15,,64,0
10919,note_on,,0,0,18,,,,,,,,,,,,,,,,15,,69,0
10919,note_on,,0,0,18,,,,,,,,,,,,,,,,15,,73,0
10919,note_on,,59,0,18,,,,,,,,,,,,,,,,15,,57,0
10920,note_on,,0,0,18,,,,,,,,,,,,,,,,15,,66,72
10920,note_on,,0,0,18,,,,,,,,,,,,,,,,15,,69,72
10920,note_on,,1,0,14,,,,,,,,,,,,,,,,10,,78,72
10920,note_on,,0,0,18,,,,,,,,,,,,,,,,15,,74,72
10920,note_on,,1,0,18,,,,,,,,,,,,,,,,15,,62,72
10920,note_on,,1,0,5,,,,,,,,,,,,,,,,0,,78,72
10920,note_on,,1,0,16,,,,,,,,,,,,,,,,12,,62,72
10920,note_on,,1,0,17,,,,,,,,,,,,,,,,13,,62,72
10920,note_on,,1,0,10,,,,,,,,,,,,,,,,5,,78,72
10920,note_on,,1,0,12,,,,,,,,,,,,,,,,7,,62,72
10980,note_on,,1021,0,11,,,,,,,,,,,,,,,,6,,69,72
10980,note_on,,61,0,15,,,,,,,,,,,,,,,,11,,69,72
11009,note_on,,29,0,11,,,,,,,,,,,,,,,,6,,69,0
11009,note_on,,29,0,15,,,,,,,,,,,,,,,,11,,69,0
11010,note_on,,1,0,15,,,,,,,,,,,,,,,,11,,69,72
11010,note_on,,1,0,11,,,,,,,,,,,,,,,,6,,69,72
11039,note_on,,119,0,18,,,,,,,,,,,,,,,,15,,74,0
11039,note_on,,119,0,14,,,,,,,,,,,,,,,,10,,78,0
11039,note_on,,119,0,10,,,,,,,,,,,,,,,,5,,78,0
11039,note_on,,29,0,15,,,,,,,,,,,,,,,,11,,69,0
11039,note_on,,0,0,18,,,,,,,,,,,,,,,,15,,66,0
11039,note_on,,119,0,5,,,,,,,,,,,,,,,,0,,78,0
11039,note_on,,29,0,11,,,,,,,,,,,,,,,,6,,69,0
11039,note_on,,0,0,18,,,,,,,,,,,,,,,,15,,69,0
11040,note_on,,0,0,18,,,,,,,,,,,,,,,,15,,64,72
11040,note_on,,1,0,10,,,,,,,,,,,,,,,,5,,76,72
11040,note_on,,1,0,14,,,,,,,,,,,,,,,,10,,76,72
11040,note_on,,1,0,5,,,,,,,,,,,,,,,,0,,76,72
11040,note_on,,1,0,11,,,,,,,,,,,,,,,,6,,67,72
11040,note_on,,1,0,18,,,,,,,,,,,,,,,,15,,71,72
11040,note_on,,0,0,18,,,,,,,,,,,,,,,,15,,67,72
11040,note_on,,1,0,15,,,,,,,,,,,,,,,,11,,67,72
11099,note_on,,59,0,15,,,,,,,,,,,,,,,,11,,67,0
11099,note_on,,59,0,11,,,,,,,,,,,,,,,,6,,67,0
11100,note_on,,1,0,11,,,,,,,,,,,,,,,,6,,64,72
11100,note_on,,1,0,15,,,,,,,,,,,,,,,,11,,64,72
11159,note_on,,59,0,15,,,,,,,,,,,,,,,,11,,64,0
11159,note_on,,239,0,16,,,,,,,,,,,,,,,,12,,62,0
11159,note_on,,239,0,12,,,,,,,,,,,,,,,,7,,62,0
11159,note_on,,0,0,18,,,,,,,,,,,,,,,,15,,64,0
11159,note_on,,0,0,18,,,,,,,,,,,,,,,,15,,67,0
11159,note_on,,0,0,18,,,,,,,,,,,,,,,,15,,71,0
11159,note_on,,119,0,18,,,,,,,,,,,,,,,,15,,62,0
11159,note_on,,239,0,17,,,,,,,,,,,,,,,,13,,62,0
11159,note_on,,59,0,11,,,,,,,,,,,,,,,,6,,64,0
11160,note_on,,1,0,15,,,,,,,,,,,,,,,,11,,69,72
11160,note_on,,1,0,17,,,,,,,,,,,,,,,,13,,61,72
11160,note_on,,1,0,16,,,,,,,,,,,,,,,,12,,61,72
11160,note_on,,0,0,18,,,,,,,,,,,,,,,,15,,69,72
11160,note_on,,0,0,18,,,,,,,,,,,,,,,,15,,64,72
11160,note_on,,1,0,11,,,,,,,,,,,,,,,,6,,69,72
11160,note_on,,1,0,12,,,,,,,,,,,,,,,,7,,61,72
11160,note_on,,1,0,18,,,,,,,,,,,,,,,,15,,61,72
11219,note_on,,59,0,11,,,,,,,,,,,,,,,,6,,69,0
11219,note_on,,59,0,17,,,,,,,,,,,,,,,,13,,61,0
11219,note_on,,59,0,18,,,,,,,,,,,,,,,,15,,61,0
11219,note_on,,0,0,18,,,,,,,,,,,,,,,,15,,69,0
11219,note_on,,59,0,15,,,,,,,,,,,,,,,,11,,69,0
11219,note_on,,0,0,18,,,,,,,,,,,,,,,,15,,64,0
11220,note_on,,0,0,18,,,,,,,,,,,,,,,,15,,73,72
11220,note_on,,1261,0,13,,,,,,,,,,,,,,,,8,,57,72
11220,note_on,,1,0,11,,,,,,,,,,,,,,,,6,,69,72
11220,note_on,,1,0,15,,,,,,,,,,,,,,,,11,,69,72
11220,note_on,,1,0,18,,,,,,,,,,,,,,,,15,,57,72
11220,note_on,,1,0,17,,,,,,,,,,,,,,,,13,,57,72
11220,note_on,,0,0,18,,,,,,,,,,,,,,,,15,,69,72
11220,note_on,,0,0,18,,,,,,,,,,,,,,,,15,,64,72
11249,note_on,,0,0,18,,,,,,,,,,,,,,,,15,,69,0
11249,note_on,,0,0,18,,,,,,,,,,,,,,,,15,,73,0
11249,note_on,,29,0,18,,,,,,,,,,,,,,,,15,,57,0
11249,note_on,,0,0,18,,,,,,,,,,,,,,,,15,,64,0
11249,note_on,,29,0,17,,,,,,,,,,,,,,,,13,,57,0
11249,note_on,,29,0,13,,,,,,,,,,,,,,,,8,,57,0
11250,note_on,,1,0,18,,,,,,,,,,,,,,,,15,,57,72
11250,note_on,,0,0,18,,,,,,,,,,,,,,,,15,,73,72
11250,note_on,,0,0,18,,,,,,,,,,,,,,,,15,,69,72
11250,note_on,,0,0,18,,,,,,,,,,,,,,,,15,,64,72
11250,note_on,,1,0,13,,,,,,,,,,,,,,,,8,,57,72
11250,note_on,,1,0,17,,,,,,,,,,,,,,,,13,,57,72
11279,note_on,,29,0,17,,,,,,,,,,,,,,,,13,,57,0
11279,note_on,,239,0,14,,,,,,,,,,,,,,,,10,,76,0
11279,note_on,,29,0,13,,,,,,,,,,,,,,,,8,,57,0
11279,note_on,,119,0,12,,,,,,,,,,,,,,,,7,,61,0
11279,note_on,,239,0,5,,,,,,,,,,,,,,,,0,,76,0
11279,note_on,,59,0,15,,,,,,,,,,,,,,,,11,,69,0
11279,note_on,,59,0,11,,,,,,,,,,,,,,,,6,,69,0
11279,note_on,,119,0,16,,,,,,,,,,,,,,,,12,,61,0
11279,note_on,,239,0,10,,,,,,,,,,,,,,,,5,,76,0
11279,note_on,,29,0,18,,,,,,,,,,,,,,,,15,,57,0
11279,note_on,,0,0,18,,,,,,,,,,,,,,,,15,,73,0
11279,note_on,,0,0,18,,,,,,,,,,,,,,,,15,,64,0
11279,note_on,,0,0,18,,,,,,,,,,,,,,,,15,,69,0
11280,note_on,,1,0,14,,,,,,,,,,,,,,,,10,,74,72
11280,note_on,,1,0,5,,,,,,,,,,,,,,,,0,,74,72
11280,note_on,,1321,0,6,,,,,,,,,,,,,,,,1,,54,72
11280,note_on,,1,0,11,,,,,,,,,,,,,,,,6,,69,72
11280,note_on,,1,0,15,,,,,,,,,,,,,,,,11,,69,72
11280,note_on,,1,0,13,,,,,,,,,,,,,,,,8,,54,72
11280,note_on,,1,0,16,,,,,,,,,,,,,,,,12,,62,72
11280,note_on,,1,0,10,,,,,,,,,,,,,,,,5,,74,72
11280,note_on,,1,0,17,,,,,,,,,,,,,,,,13,,54,72
11280,note_on,,1,0,12,,,,,,,,,,,,,,,,7,,62,72
11280,note_on,,0,0,18,,,,,,,,,,,,,,,,15,,57,72
11280,note_on,,0,0,18,,,,,,,,,,,,,,,,15,,69,72
11280,note_on,,0,0,18,,,,,,,,,,,,,,,,15,,74,72
11280,note_on,,1,0,18,,,,,,,,,,,,,,,,15,,54,72
11280,note_on,,0,0,18,,,,,,,,,,,,,,,,15,,62,72
11339,note_on,,59,0,12,,,,,,,,,,,,,,,,7,,62,0
11339,note_on,,59,0,13,,,,,,,,,,,,,,,,8,,54,0
11339,note_on,,59,0,16,,,,,,,,,,,,,,,,12,,62,0
11339,note_on,,0,0,18,,,,,,,,,,,,,,,,15,,62,0
11339,note_on,,0,0,18,,,,,,,,,,,,,,,,15,,57,0
11339,note_on,,59,0,17,,,,,,,,,,,,,,,,13,,54,0
11339,note_on,,59,0,11,,,,,,,,,,,,,,,,6,,69,0
11339,note_on,,59,0,15,,,,,,,,,,,,,,,,11,,69,0
11339,note_on,,59,0,18,,,,,,,,,,,,,,,,15,,54,0
11339,note_on,,59,0,6,,,,,,,,,,,,,,,,1,,54,0
11340,note_on,,1,0,11,,,,,,,,,,,,,,,,6,,69,72
11340,note_on,,0,0,18,,,,,,,,,,,,,,,,15,,62,72
11340,note_on,,1,0,13,,,,,,,,,,,,,,,,8,,50,72
11340,note_on,,1,0,6,,,,,,,,,,,,,,,,1,,50,72
11340,note_on,,1,0,16,,,,,,,,,,,,,,,,12,,66,72
11340,note_on,,1,0,18,,,,,,,,,,,,,,,,15,,50,72
11340,note_on,,1,0,17,,,,,,,,,,,,,,,,13,,50,72
11340,note_on,,0,0,18,,,,,,,,,,,,,,,,15,,66,72
11340,note_on,,1,0,15,,,,,,,,,,,,,,,,11,,81,72
11340,note_on,,1,0,12,,,,,,,,,,,,,,,,7,,66,72
11369,note_on,,29,0,11,,,,,,,,,,,,,,,,6,,69,0
11369,note_on,,29,0,15,,,,,,,,,,,,,,,,11,,81,0
11369,note_on,,29,0,12,,,,,,,,,,,,,,,,7,,66,0
11369,note_on,,29,0,16,,,,,,,,,,,,,,,,12,,66,0
11370,note_on,,1,0,15,,,,,,,,,,,,,,,,11,,81,72
11370,note_on,,1,0,11,,,,,,,,,,,,,,,,6,,69,72
11370,note_on,,1,0,16,,,,,,,,,,,,,,,,12,,66,72
11370,note_on,,1,0,12,,,,,,,,,,,,,,,,7,,66,72
11399,note_on,,29,0,16,,,,,,,,,,,,,,,,12,,66,0
11399,note_on,,0,0,18,,,,,,,,,,,,,,,,15,,66,0
11399,note_on,,0,0,18,,,,,,,,,,,,,,,,15,,50,0
11399,note_on,,0,0,18,,,,,,,,,,,,,,,,15,,69,0
11399,note_on,,0,0,18,,,,,,,,,,,,,,,,15,,62,0
11399,note_on,,59,0,18,,,,,,,,,,,,,,,,15,,74,0
11399,note_on,,59,0,6,,,,,,,,,,,,,,,,1,,50,0
11399,note_on,,119,0,10,,,,,,,,,,,,,,,,5,,74,0
11399,note_on,,59,0,13,,,,,,,,,,,,,,,,8,,50,0
11399,note_on,,59,0,17,,,,,,,,,,,,,,,,13,,50,0
11399,note_on,,119,0,14,,,,,,,,,,,,,,,,10,,74,0
11399,note_on,,29,0,11,,,,,,,,,,,,,,,,6,,69,0
11399,note_on,,119,0,5,,,,,,,,,,,,,,,,0,,74,0
11399,note_on,,29,0,15,,,,,,,,,,,,,,,,11,,81,0
11399,note_on,,29,0,12,,,,,,,,,,,,,,,,7,,66,0
11400,note_on,,0,0,18,,,,,,,,,,,,,,,,15,,69,72
11400,note_on,,0,0,18,,,,,,,,,,,,,,,,15,,74,72
11400,note_on,,1,0,11,,,,,,,,,,,,,,,,6,,66,72
11400,note_on,,0,0,18,,,,,,,,,,,,,,,,15,,78,72
11400,note_on,,1,0,18,,,,,,,,,,,,,,,,15,,62,72
11400,note_on,,1,0,6,,,,,,,,,,,,,,,,1,,62,72
11400,note_on,,1,0,15,,,,,,,,,,,,,,,,11,,78,72
11400,note_on,,1,0,17,,,,,,,,,,,,,,,,13,,62,72
11400,note_on,,1,0,12,,,,,,,,,,,,,,,,7,,69,72
11400,note_on,,1,0,16,,,,,,,,,,,,,,,,12,,69,72
11459,note_on,,59,0,11,,,,,,,,,,,,,,,,6,,66,0
11459,note_on,,59,0,17,,,,,,,,,,,,,,,,13,,62,0
11459,note_on,,59,0,15,,,,,,,,,,,,,,,,11,,78,0
11459,note_on,,59,0,12,,,,,,,,,,,,,,,,7,,69,0
11459,note_on,,59,0,6,,,,,,,,,,,,,,,,1,,62,0
11459,note_on,,59,0,16,,,,,,,,,,,,,,,,12,,69,0
11459,note_on,,59,0,18,,,,,,,,,,,,,,,,15,,62,0
11460,note_on,,61,0,10,,,,,,,,,,,,,,,,5,,74,72
11460,note_on,,1,0,12,,,,,,,,,,,,,,,,7,,66,72
11460,note_on,,61,0,5,,,,,,,,,,,,,,,,0,,74,72
11460,note_on,,1,0,15,,,,,,,,,,,,,,,,11,,74,72
11460,note_on,,1,0,18,,,,,,,,,,,,,,,,15,,54,72
11460,note_on,,1,0,11,,,,,,,,,,,,,,,,6,,62,72
11460,note_on,,61,0,14,,,,,,,,,,,,,,,,10,,86,72
11460,note_on,,1,0,16,,,,,,,,,,,,,,,,12,,66,72
11460,note_on,,1,0,6,,,,,,,,,,,,,,,,1,,54,72
11460,note_on,,1,0,17,,,,,,,,,,,,,,,,13,,54,72
11489,note_on,,29,0,10,,,,,,,,,,,,,,,,5,,74,0
11489,note_on,,29,0,14,,,,,,,,,,,,,,,,10,,86,0
11489,note_on,,29,0,5,,,,,,,,,,,,,,,,0,,74,0
11490,note_on,,1,0,10,,,,,,,,,,,,,,,,5,,74,72
11490,note_on,,1,0,14,,,,,,,,,,,,,,,,10,,86,72
11490,note_on,,1,0,5,,,,,,,,,,,,,,,,0,,74,72
11519,note_on,,59,0,11,,,,,,,,,,,,,,,,6,,62,0
11519,note_on,,59,0,17,,,,,,,,,,,,,,,,13,,54,0
11519,note_on,,59,0,6,,,,,,,,,,,,,,,,1,,54,0
11519,note_on,,29,0,14,,,,,,,,,,,,,,,,10,,86,0
11519,note_on,,0,0,18,,,,,,,,,,,,,,,,15,,54,0
11519,note_on,,59,0,12,,,,,,,,,,,,,,,,7,,66,0
11519,note_on,,0,0,18,,,,,,,,,,,,,,,,15,,74,0
11519,note_on,,29,0,5,,,,,,,,,,,,,,,,0,,74,0
11519,note_on,,59,0,18,,,,,,,,,,,,,,,,15,,78,0
11519,note_on,,59,0,16,,,,,,,,,,,,,,,,12,,66,0
11519,note_on,,59,0,15,,,,,,,,,,,,,,,,11,,74,0
11519,note_on,,0,0,18,,,,,,,,,,,,,,,,15,,69,0
11519,note_on,,29,0,10,,,,,,,,,,,,,,,,5,,74,0
11520,note_on,,1,0,18,,,,,,,,,,,,,,,,15,,57,72
11520,note_on,,0,0,18,,,,,,,,,,,,,,,,15,,73,72
11520,note_on,,0,0,18,,,,,,,,,,,,,,,,15,,69,72
11520,note_on,,1,0,14,,,,,,,,,,,,,,,,10,,85,72
11520,note_on,,1,0,12,,,,,,,,,,,,,,,,7,,57,72
11520,note_on,,1,0,10,,,,,,,,,,,,,,,,5,,73,72
11520,note_on,,0,0,18,,,,,,,,,,,,,,,,15,,61,72
11520,note_on,,1,0,5,,,,,,,,,,,,,,,,0,,73,72
11520,note_on,,1,0,6,,,,,,,,,,,,,,,,1,,57,72
11520,note_on,,121,0,13,,,,,,,,,,,,,,,,8,,57,72
11520,note_on,,1,0,17,,,,,,,,,,,,,,,,13,,57,72
11520,note_on,,0,0,18,,,,,,,,,,,,,,,,15,,64,72
11579,note_on,,59,0,14,,,,,,,,,,,,,,,,10,,85,0
11579,note_on,,59,0,10,,,,,,,,,,,,,,,,5,,73,0
11579,note_on,,59,0,5,,,,,,,,,,,,,,,,0,,73,0
11580,note_on,,1,0,10,,,,,,,,,,,,,,,,5,,69,72
11580,note_on,,1381,0,9,,,,,,,,,,,,,,,,4,,45,72
11580,note_on,,1,0,5,,,,,,,,,,,,,,,,0,,69,72
11580,note_on,,1381,0,7,,,,,,,,,,,,,,,,2,,76,72
11580,note_on,,61,0,16,,,,,,,,,,,,,,,,12,,73,72
11580,note_on,,61,0,11,,,,,,,,,,,,,,,,6,,64,72
11580,note_on,,1,0,14,,,,,,,,,,,,,,,,10,,81,72
11580,note_on,,1381,0,8,,,,,,,,,,,,,,,,3,,69,72
11580,note_on,,61,0,15,,,,,,,,,,,,,,,,11,,76,72
11609,note_on,,29,0,7,,,,,,,,,,,,,,,,2,,76,0
11609,note_on,,29,0,16,,,,,,,,,,,,,,,,12,,73,0
11609,note_on,,29,0,8,,,,,,,,,,,,,,,,3,,69,0
11609,note_on,,29,0,15,,,,,,,,,,,,,,,,11,,76,0
11609,note_on,,29,0,11,,,,,,,,,,,,,,,,6,,64,0
11609,note_on,,29,0,9,,,,,,,,,,,,,,,,4,,45,0
11610,note_on,,1,0,8,,,,,,,,,,,,,,,,3,,69,72
11610,note_on,,1,0,11,,,,,,,,,,,,,,,,6,,64,72
11610,note_on,,1,0,7,,,,,,,,,,,,,,,,2,,76,72
11610,note_on,,1,0,15,,,,,,,,,,,,,,,,11,,76,72
11610,note_on,,1,0,16,,,,,,,,,,,,,,,,12,,73,72
11610,note_on,,1,0,9,,,,,,,,,,,,,,,,4,,45,72
11639,note_on,,29,0,15,,,,,,,,,,,,,,,,11,,76,0
11639,note_on,,29,0,11,,,,,,,,,,,,,,,,6,,64,0
11639,note_on,,59,0,10,,,,,,,,,,,,,,,,5,,69,0
11639,note_on,,29,0,9,,,,,,,,,,,,,,,,4,,45,0
11639,note_on,,59,0,5,,,,,,,,,,,,,,,,0,,69,0
11639,note_on,,29,0,8,,,,,,,,,,,,,,,,3,,69,0
11639,note_on,,29,0,16,,,,,,,,,,,,,,,,12,,73,0
11639,note_on,,59,0,14,,,,,,,,,,,,,,,,10,,81,0
11639,note_on,,29,0,7,,,,,,,,,,,,,,,,2,,76,0
11640,note_on,,1,0,15,,,,,,,,,,,,,,,,11,,73,72
11640,note_on,,1,0,16,,,,,,,,,,,,,,,,12,,69,72
11640,note_on,,1,0,8,,,,,,,,,,,,,,,,3,,69,72
11640,note_on,,1,0,7,,,,,,,,,,,,,,,,2,,76,72
11640,note_on,,1,0,9,,,,,,,,,,,,,,,,4,,45,72
11640,note_on,,1,0,11,,,,,,,,,,,,,,,,6,,61,72
11699,note_on,,59,0,9,,,,,,,,,,,,,,,,4,,45,0
11699,note_on,,59,0,16,,,,,,,,,,,,,,,,12,,69,0
11699,note_on,,59,0,7,,,,,,,,,,,,,,,,2,,76,0
11699,note_on,,59,0,15,,,,,,,,,,,,,,,,11,,73,0
11699,note_on,,59,0,8,,,,,,,,,,,,,,,,3,,69,0
11699,note_on,,59,0,11,,,,,,,,,,,,,,,,6,,61,0
11700,note_on,,1,0,11,,,,,,,,,,,,,,,,6,,57,72
11700,note_on,,1,0,7,,,,,,,,,,,,,,,,2,,78,72
11700,note_on,,1,0,15,,,,,,,,,,,,,,,,11,,85,72
11700,note_on,,61,0,10,,,,,,,,,,,,,,,,5,,73,72
11700,note_on,,61,0,14,,,,,,,,,,,,,,,,10,,78,72
11700,note_on,,61,0,5,,,,,,,,,,,,,,,,0,,73,72
11700,note_on,,1,0,8,,,,,,,,,,,,,,,,3,,69,72
11700,note_on,,1,0,16,,,,,,,,,,,,,,,,12,,73,72
11700,note_on,,1,0,9,,,,,,,,,,,,,,,,4,,45,72
11729,note_on,,29,0,16,,,,,,,,,,,,,,,,12,,73,0
11729,note_on,,29,0,14,,,,,,,,,,,,,,,,10,,78,0
11729,note_on,,29,0,7,,,,,,,,,,,,,,,,2,,78,0
11729,note_on,,29,0,5,,,,,,,,,,,,,,,,0,,73,0
11729,note_on,,29,0,10,,,,,,,,,,,,,,,,5,,73,0
11729,note_on,,29,0,15,,,,,,,,,,,,,,,,11,,85,0
11730,note_on,,1,0,7,,,,,,,,,,,,,,,,2,,76,72
11730,note_on,,1,0,10,,,,,,,,,,,,,,,,5,,73,72
11730,note_on,,1,0,5,,,,,,,,,,,,,,,,0,,73,72
11730,note_on,,1,0,14,,,,,,,,,,,,,,,,10,,76,72
11730,note_on,,1,0,16,,,,,,,,,,,,,,,,12,,69,72
11730,note_on,,1,0,15,,,,,,,,,,,,,,,,11,,85,72
11759,note_on,,29,0,16,,,,,,,,,,,,,,,,12,,69,0
11759,note_on,,29,0,7,,,,,,,,,,,,,,,,2,,76,0
11759,note_on,,0,0,18,,,,,,,,,,,,,,,,15,,69,0
11759,note_on,,0,0,18,,,,,,,,,,,,,,,,15,,73,0
11759,note_on,,239,0,18,,,,,,,,,,,,,,,,15,,57,0
11759,note_on,,0,0,18,,,,,,,,,,,,,,,,15,,64,0
11759,note_on,,0,0,18,,,,,,,,,,,,,,,,15,,61,0
11759,note_on,,59,0,11,,,,,,,,,,,,,,,,6,,57,0
11759,note_on,,29,0,15,,,,,,,,,,,,,,,,11,,85,0
11759,note_on,,29,0,14,,,,,,,,,,,,,,,,10,,76,0
11759,note_on,,239,0,12,,,,,,,,,,,,,,,,7,,57,0
11759,note_on,,239,0,17,,,,,,,,,,,,,,,,13,,57,0
11759,note_on,,239,0,13,,,,,,,,,,,,,,,,8,,57,0
11759,note_on,,239,0,6,,,,,,,,,,,,,,,,1,,57,0
11759,note_on,,59,0,8,,,,,,,,,,,,,,,,3,,69,0
11759,note_on,,29,0,10,,,,,,,,,,,,,,,,5,,73,0
11759,note_on,,59,0,9,,,,,,,,,,,,,,,,4,,45,0
11759,note_on,,29,0,5,,,,,,,,,,,,,,,,0,,73,0
11760,note_on,,0,0,18,,,,,,,,,,,,,,,,15,,74,72
11760,note_on,,1,0,10,,,,,,,,,,,,,,,,5,,74,72
11760,note_on,,1,0,17,,,,,,,,,,,,,,,,13,,59,72
11760,note_on,,1,0,12,,,,,,,,,,,,,,,,7,,59,72
11760,note_on,,1,0,14,,,,,,,,,,,,,,,,10,,74,72
11760,note_on,,1,0,15,,,,,,,,,,,,,,,,11,,86,72
11760,note_on,,0,0,18,,,,,,,,,,,,,,,,15,,62,72
11760,note_on,,0,0,18,,,,,,,,,,,,,,,,15,,67,72
11760,note_on,,1,0,18,,,,,,,,,,,,,,,,15,,59,72
11760,note_on,,1,0,9,,,,,,,,,,,,,,,,4,,50,72
11760,note_on,,1,0,8,,,,,,,,,,,,,,,,3,,66,72
11760,note_on,,1,0,7,,,,,,,,,,,,,,,,2,,74,72
11760,note_on,,1,0,13,,,,,,,,,,,,,,,,8,,59,72
11760,note_on,,1,0,5,,,,,,,,,,,,,,,,0,,74,72
11760,note_on,,1,0,6,,,,,,,,,,,,,,,,1,,59,72
11760,note_on,,1,0,16,,,,,,,,,,,,,,,,12,,66,72
11819,note_on,,59,0,8,,,,,,,,,,,,,,,,3,,66,0
11819,note_on,,59,0,7,,,,,,,,,,,,,,,,2,,74,0
11819,note_on,,59,0,5,,,,,,,,,,,,,,,,0,,74,0
11819,note_on,,59,0,10,,,,,,,,,,,,,,,,5,,74,0
11819,note_on,,59,0,14,,,,,,,,,,,,,,,,10,,74,0
11819,note_on,,59,0,16,,,,,,,,,,,,,,,,12,,66,0
11819,note_on,,59,0,9,,,,,,,,,,,,,,,,4,,50,0
11819,note_on,,59,0,15,,,,,,,,,,,,,,,,11,,86,0
11820,note_on,,1,0,15,,,,,,,,,,,,,,,,11,,74,72
11820,note_on,,1,0,9,,,,,,,,,,,,,,,,4,,50,72
11820,note_on,,1,0,14,,,,,,,,,,,,,,,,10,,79,72
11820,note_on,,1,0,16,,,,,,,,,,,,,,,,12,,62,72
11820,note_on,,1,0,10,,,,,,,,,,,,,,,,5,,74,72
11820,note_on,,61,0,11,,,,,,,,,,,,,,,,6,,67,72
11820,note_on,,1,0,7,,,,,,,,,,,,,,,,2,,79,72
11820,note_on,,1,0,5,,,,,,,,,,,,,,,,0,,74,72
11820,note_on,,1,0,8,,,,,,,,,,,,,,,,3,,62,72
11849,note_on,,29,0,8,,,,,,,,,,,,,,,,3,,62,0
11849,note_on,,29,0,11,,,,,,,,,,,,,,,,6,,67,0
11849,note_on,,29,0,9,,,,,,,,,,,,,,,,4,,50,0
11849,note_on,,29,0,15,,,,,,,,,,,,,,,,11,,74,0
11849,note_on,,29,0,5,,,,,,,,,,,,,,,,0,,74,0
11849,note_on,,29,0,16,,,,,,,,,,,,,,,,12,,62,0
11849,note_on,,29,0,7,,,,,,,,,,,,,,,,2,,79,0
11849,note_on,,29,0,14,,,,,,,,,,,,,,,,10,,79,0
11849,note_on,,29,0,10,,,,,,,,,,,,,,,,5,,74,0
11850,note_on,,1,0,11,,,,,,,,,,,,,,,,6,,66,72
11850,note_on,,1,0,7,,,,,,,,,,,,,,,,2,,78,72
11850,note_on,,1,0,5,,,,,,,,,,,,,,,,0,,74,72
11850,note_on,,1,0,16,,,,,,,,,,,,,,,,12,,62,72
11850,note_on,,1,0,8,,,,,,,,,,,,,,,,3,,62,72
11850,note_on,,1,0,9,,,,,,,,,,,,,,,,4,,50,72
11850,note_on,,1,0,14,,,,,,,,,,,,,,,,10,,78,72
11850,note_on,,1,0,15,,,,,,,,,,,,,,,,11,,74,72
11850,note_on,,1,0,10,,,,,,,,,,,,,,,,5,,74,72
11879,note_on,,0,0,18,,,,,,,,,,,,,,,,15,,62,0
11879,note_on,,119,0,17,,,,,,,,,,,,,,,,13,,59,0
11879,note_on,,29,0,5,,,,,,,,,,,,,,,,0,,74,0
11879,note_on,,29,0,14,,,,,,,,,,,,,,,,10,,78,0
11879,note_on,,29,0,15,,,,,,,,,,,,,,,,11,,74,0
11879,note_on,,29,0,10,,,,,,,,,,,,,,,,5,,74,0
11879,note_on,,119,0,12,,,,,,,,,,,,,,,,7,,59,0
11879,note_on,,0,0,18,,,,,,,,,,,,,,,,15,,67,0
11879,note_on,,29,0,9,,,,,,,,,,,,,,,,4,,50,0
11879,note_on,,119,0,18,,,,,,,,,,,,,,,,15,,59,0
11879,note_on,,29,0,7,,,,,,,,,,,,,,,,2,,78,0
11879,note_on,,29,0,16,,,,,,,,,,,,,,,,12,,62,0
11879,note_on,,119,0,6,,,,,,,,,,,,,,,,1,,59,0
11879,note_on,,119,0,13,,,,,,,,,,,,,,,,8,,59,0
11879,note_on,,29,0,11,,,,,,,,,,,,,,,,6,,66,0
11879,note_on,,0,0,18,,,,,,,,,,,,,,,,15,,74,0
11879,note_on,,29,0,8,,,,,,,,,,,,,,,,3,,62,0
11880,note_on,,1,0,7,,,,,,,,,,,,,,,,2,,76,72
11880,note_on,,1,0,5,,,,,,,,,,,,,,,,0,,76,72
11880,note_on,,1,0,9,,,,,,,,,,,,,,,,4,,45,72
11880,note_on,,1,0,16,,,,,,,,,,,,,,,,12,,73,72
11880,note_on,,1,0,6,,,,,,,,,,,,,,,,1,,61,72
11880,note_on,,1,0,13,,,,,,,,,,,,,,,,8,,61,72
11880,note_on,,1,0,14,,,,,,,,,,,,,,,,10,,76,72
11880,note_on,,1,0,15,,,,,,,,,,,,,,,,11,,69,72
11880,note_on,,1,0,11,,,,,,,,,,,,,,,,6,,64,72
11880,note_on,,1,0,8,,,,,,,,,,,,,,,,3,,69,72
11880,note_on,,0,0,18,,,,,,,,,,,,,,,,15,,67,72
11880,note_on,,0,0,18,,,,,,,,,,,,,,,,15,,64,72
11880,note_on,,1,0,12,,,,,,,,,,,,,,,,7,,61,72
11880,note_on,,1,0,17,,,,,,,,,,,,,,,,13,,61,72
11880,note_on,,1,0,18,,,,,,,,,,,,,,,,15,,61,72
11880,note_on,,1,0,10,,,,,,,,,,,,,,,,5,,76,72
11880,note_on,,0,0,18,,,,,,,,,,,,,,,,15,,69,72
11939,note_on,,59,0,16,,,,,,,,,,,,,,,,12,,73,0
11939,note_on,,59,0,10,,,,,,,,,,,,,,,,5,,76,0
11939,note_on,,59,0,9,,,,,,,,,,,,,,,,4,,45,0
11939,note_on,,59,0,14,,,,,,,,,,,,,,,,10,,76,0
11939,note_on,,59,0,11,,,,,,,,,,,,,,,,6,,64,0
11939,note_on,,59,0,8,,,,,,,,,,,,,,,,3,,69,0
11939,note_on,,59,0,15,,,,,,,,,,,,,,,,11,,69,0
11939,note_on,,59,0,5,,,,,,,,,,,,,,,,0,,76,0
11939,note_on,,59,0,7,,,,,,,,,,,,,,,,2,,76,0
11940,note_on,,1,0,5,,,,,,,,,,,,,,,,0,,76,72
11940,note_on,,1,0,16,,,,,,,,,,,,,,,,12,,73,72
11940,note_on,,1,0,9,,,,,,,,,,,,,,,,4,,45,72
11940,note_on,,1,0,14,,,,,,,,,,,,,,,,10,,81,72
11940,note_on,,1,0,7,,,,,,,,,,,,,,,,2,,81,72
11940,note_on,,1,0,15,,,,,,,,,,,,,,,,11,,76,72
11940,note_on,,1,0,8,,,,,,,,,,,,,,,,3,,69,72
11940,note_on,,1,0,11,,,,,,,,,,,,,,,,6,,69,72
11940,note_on,,1,0,10,,,,,,,,,,,,,,,,5,,76,72
11969,note_on,,29,0,8,,,,,,,,,,,,,,,,3,,69,0
11969,note_on,,29,0,16,,,,,,,,,,,,,,,,12,,73,0
11969,note_on,,29,0,7,,,,,,,,,,,,,,,,2,,81,0
11969,note_on,,29,0,11,,,,,,,,,,,,,,,,6,,69,0
11969,note_on,,29,0,15,,,,,,,,,,,,,,,,11,,76,0
11969,note_on,,29,0,9,,,,,,,,,,,,,,,,4,,45,0
11969,note_on,,29,0,14,,,,,,,,,,,,,,,,10,,81,0
11970,note_on,,1,0,16,,,,,,,,,,,,,,,,12,,73,72
11970,note_on,,1,0,15,,,,,,,,,,,,,,,,11,,76,72
11970,note_on,,1,0,7,,,,,,,,,,,,,,,,2,,79,72
11970,note_on,,1,0,9,,,,,,,,,,,,,,,,4,,45,72
11970,note_on,,1,0,11,,,,,,,,,,,,,,,,6,,67,72
11970,note_on,,1,0,8,,,,,,,,,,,,,,,,3,,69,72
11970,note_on,,1,0,14,,,,,,,,,,,,,,,,10,,79,72
11999,note_on,,119,0,6,,,,,,,,,,,,,,,,1,,61,0
11999,note_on,,29,0,11,,,,,,,,,,,,,,,,6,,67,0
11999,note_on,,59,0,5,,,,,,,,,,,,,,,,0,,76,0
11999,note_on,,0,0,18,,,,,,,,,,,,,,,,15,,69,0
11999,note_on,,119,0,13,,,,,,,,,,,,,,,,8,,61,0
11999,note_on,,119,0,18,,,,,,,,,,,,,,,,15,,61,0
11999,note_on,,119,0,17,,,,,,,,,,,,,,,,13,,61,0
11999,note_on,,29,0,7,,,,,,,,,,,,,,,,2,,79,0
11999,note_on,,29,0,8,,,,,,,,,,,,,,,,3,,69,0
11999,note_on,,0,0,18,,,,,,,,,,,,,,,,15,,67,0
11999,note_on,,0,0,18,,,,,,,,,,,,,,,,15,,64,0
11999,note_on,,29,0,9,,,,,,,,,,,,,,,,4,,45,0
11999,note_on,,59,0,10,,,,,,,,,,,,,,,,5,,76,0
11999,note_on,,29,0,16,,,,,,,,,,,,,,,,12,,73,0
11999,note_on,,29,0,14,,,,,,,,,,,,,,,,10,,79,0
11999,note_on,,29,0,15,,,,,,,,,,,,,,,,11,,76,0
11999,note_on,,119,0,12,,,,,,,,,,,,,,,,7,,61,0
12000,note_on,,1,0,11,,,,,,,,,,,,,,,,6,,66,72
12000,note_on,,1,0,5,,,,,,,,,,,,,,,,0,,69,72
12000,note_on,,0,0,18,,,,,,,,,,,,,,,,15,,69,72
12000,note_on,,1,0,7,,,,,,,,,,,,,,,,2,,78,72
12000,note_on,,1,0,16,,,,,,,,,,,,,,,,12,,66,72
12000,note_on,,1,0,17,,,,,,,,,,,,,,,,13,,62,72
12000,note_on,,1,0,13,,,,,,,,,,,,,,,,8,,62,72
12000,note_on,,1,0,12,,,,,,,,,,,,,,,,7,,62,72
12000,note_on,,0,0,18,,,,,,,,,,,,,,,,15,,66,72
12000,note_on,,1,0,8,,,,,,,,,,,,,,,,3,,69,72
12000,note_on,,1,0,10,,,,,,,,,,,,,,,,5,,69,72
12000,note_on,,1,0,14,,,,,,,,,,,,,,,,10,,78,72
12000,note_on,,1,0,6,,,,,,,,,,,,,,,,1,,62,72
12000,note_on,,1,0,9,,,,,,,,,,,,,,,,4,,50,72
12000,note_on,,1,0,18,,,,,,,,,,,,,,,,15,,62,72
12000,note_on,,1,0,15,,,,,,,,,,,,,,,,11,,69,72
12059,note_on,,59,0,17,,,,,,,,,,,,,,,,13,,62,0
12059,note_on,,59,0,6,,,,,,,,,,,,,,,,1,,62,0
12059,note_on,,59,0,13,,,,,,,,,,,,,,,,8,,62,0
12059,note_on,,59,0,16,,,,,,,,,,,,,,,,12,,66,0
12059,note_on,,59,0,15,,,,,,,,,,,,,,,,11,,69,0
12059,note_on,,59,0,12,,,,,,,,,,,,,,,,7,,62,0
12059,note_on,,59,0,9,,,,,,,,,,,,,,,,4,,50,0
12060,note_on,,1,0,15,,,,,,,,,,,,,,,,11,,81,72
12060,note_on,,1,0,13,,,,,,,,,,,,,,,,8,,50,72
12060,note_on,,1,0,12,,,,,,,,,,,,,,,,7,,50,72
12060,note_on,,60,0,18,,,,,,,,,,,,,,,,15,,50,72
12060,note_on,,1,0,6,,,,,,,,,,,,,,,,1,,50,72
12060,note_on,,1,0,17,,,,,,,,,,,,,,,,13,,50,72
12060,note_on,,1,0,16,,,,,,,,,,,,,,,,12,,66,72
12060,note_on,,1,0,9,,,,,,,,,,,,,,,,4,,45,72
12089,note_on,,29,0,15,,,,,,,,,,,,,,,,11,,81,0
12089,note_on,,29,0,16,,,,,,,,,,,,,,,,12,,66,0
12090,note_on,,1,0,15,,,,,,,,,,,,,,,,11,,79,72
12090,note_on,,1,0,16,,,,,,,,,,,,,,,,12,,64,72
12119,note_on,,29,0,15,,,,,,,,,,,,,,,,11,,79,0
12119,note_on,,0,0,18,,,,,,,,,,,,,,,,15,,50,0
12119,note_on,,0,0,18,,,,,,,,,,,,,,,,15,,66,0
12119,note_on,,119,0,11,,,,,,,,,,,,,,,,6,,66,0
12119,note_on,,119,0,5,,,,,,,,,,,,,,,,0,,69,0
12119,note_on,,59,0,18,,,,,,,,,,,,,,,,15,,62,0
12119,note_on,,119,0,8,,,,,,,,,,,,,,,,3,,69,0
12119,note_on,,119,0,10,,,,,,,,,,,,,,,,5,,69,0
12119,note_on,,119,0,14,,,,,,,,,,,,,,,,10,,78,0
12119,note_on,,59,0,17,,,,,,,,,,,,,,,,13,,50,0
12119,note_on,,119,0,7,,,,,,,,,,,,,,,,2,,78,0
12119,note_on,,59,0,6,,,,,,,,,,,,,,,,1,,50,0
12119,note_on,,0,0,18,,,,,,,,,,,,,,,,15,,69,0
12119,note_on,,29,0,16,,,,,,,,,,,,,,,,12,,64,0
12119,note_on,,59,0,9,,,,,,,,,,,,,,,,4,,45,0
12119,note_on,,59,0,12,,,,,,,,,,,,,,,,7,,50,0
12119,note_on,,59,0,13,,,,,,,,,,,,,,,,8,,50,0
12120,note_on,,1,0,6,,,,,,,,,,,,,,,,1,,62,72
12120,note_on,,1,0,9,,,,,,,,,,,,,,,,4,,50,72
12120,note_on,,1,0,17,,,,,,,,,,,,,,,,13,,62,72
12120,note_on,,1,0,18,,,,,,,,,,,,,,,,15,,62,72
12120,note_on,,1,0,15,,,,,,,,,,,,,,,,11,,78,72
12120,note_on,,1,0,16,,,,,,,,,,,,,,,,12,,62,72
12120,note_on,,0,0,18,,,,,,,,,,,,,,,,15,,66,72
12120,note_on,,0,0,18,,,,,,,,,,,,,,,,15,,69,72
12120,note_on,,0,0,18,,,,,,,,,,,,,,,,15,,74,72
12120,note_on,,0,0,18,,,,,,,,,,,,,,,,15,,78,72
12120,note_on,,1,0,13,,,,,,,,,,,,,,,,8,,62,72
12120,note_on,,1,0,12,,,,,,,,,,,,,,,,7,,62,72
12179,note_on,,59,0,16,,,,,,,,,,,,,,,,12,,62,0
12179,note_on,,59,0,15,,,,,,,,,,,,,,,,11,,78,0
12180,note_on,,61,0,7,,,,,,,,,,,,,,,,2,,78,72
12180,note_on,,1,0,16,,,,,,,,,,,,,,,,12,,66,72
12180,note_on,,61,0,5,,,,,,,,,,,,,,,,0,,74,72
12180,note_on,,61,0,11,,,,,,,,,,,,,,,,6,,71,72
12180,note_on,,61,0,10,,,,,,,,,,,,,,,,5,,74,72
12180,note_on,,61,0,8,,,,,,,,,,,,,,,,3,,74,72
12180,note_on,,1,0,15,,,,,,,,,,,,,,,,11,,83,72
12180,note_on,,61,0,14,,,,,,,,,,,,,,,,10,,86,72
12209,note_on,,29,0,11,,,,,,,,,,,,,,,,6,,71,0
12209,note_on,,29,0,5,,,,,,,,,,,,,,,,0,,74,0
12209,note_on,,29,0,15,,,,,,,,,,,,,,,,11,,83,0
12209,note_on,,29,0,14,,,,,,,,,,,,,,,,10,,86,0
12209,note_on,,29,0,10,,,,,,,,,,,,,,,,5,,74,0
12210,note_on,,1,0,5,,,,,,,,,,,,,,,,0,,73,72
12210,note_on,,1,0,15,,,,,,,,,,,,,,,,11,,81,72
12210,note_on,,1,0,10,,,,,,,,,,,,,,,,5,,73,72
12210,note_on,,1,0,11,,,,,,,,,,,,,,,,6,,69,72
12210,note_on,,1,0,14,,,,,,,,,,,,,,,,10,,86,72
12239,note_on,,0,0,18,,,,,,,,,,,,,,,,15,,74,0
12239,note_on,,119,0,18,,,,,,,,,,,,,,,,15,,78,0
12239,note_on,,59,0,7,,,,,,,,,,,,,,,,2,,78,0
12239,note_on,,29,0,5,,,,,,,,,,,,,,,,0,,73,0
12239,note_on,,29,0,11,,,,,,,,,,,,,,,,6,,69,0
12239,note_on,,0,0,18,,,,,,,,,,,,,,,,15,,69,0
12239,note_on,,0,0,18,,,,,,,,,,,,,,,,15,,66,0
12239,note_on,,59,0,16,,,,,,,,,,,,,,,,12,,66,0
12239,note_on,,29,0,15,,,,,,,,,,,,,,,,11,,81,0
12239,note_on,,29,0,14,,,,,,,,,,,,,,,,10,,86,0
12239,note_on,,29,0,10,,,,,,,,,,,,,,,,5,,73,0
12239,note_on,,59,0,8,,,,,,,,,,,,,,,,3,,74,0
12240,note_on,,1,0,11,,,,,,,,,,,,,,,,6,,68,72
12240,note_on,,1,0,5,,,,,,,,,,,,,,,,0,,71,72
12240,note_on,,1,0,14,,,,,,,,,,,,,,,,10,,83,72
12240,note_on,,1,0,8,,,,,,,,,,,,,,,,3,,76,72
12240,note_on,,0,0,18,,,,,,,,,,,,,,,,15,,64,72
12240,note_on,,1,0,16,,,,,,,,,,,,,,,,12,,71,72
12240,note_on,,1,0,18,,,,,,,,,,,,,,,,15,,71,72
12240,note_on,,1,0,15,,,,,,,,,,,,,,,,11,,80,72
12240,note_on,,0,0,18,,,,,,,,,,,,,,,,15,,68,72
12240,note_on,,1,0,7,,,,,,,,,,,,,,,,2,,80,72
12240,note_on,,1,0,10,,,,,,,,,,,,,,,,5,,71,72
12299,note_on,,179,0,13,,,,,,,,,,,,,,,,8,,62,0
12299,note_on,,179,0,12,,,,,,,,,,,,,,,,7,,62,0
12299,note_on,,59,0,10,,,,,,,,,,,,,,,,5,,71,0
12299,note_on,,59,0,15,,,,,,,,,,,,,,,,11,,80,0
12299,note_on,,59,0,11,,,,,,,,,,,,,,,,6,,68,0
12299,note_on,,179,0,9,,,,,,,,,,,,,,,,4,,50,0
12299,note_on,,59,0,16,,,,,,,,,,,,,,,,12,,71,0
12299,note_on,,59,0,5,,,,,,,,,,,,,,,,0,,71,0
12299,note_on,,59,0,14,,,,,,,,,,,,,,,,10,,83,0
12300,note_on,,1,0,15,,,,,,,,,,,,,,,,11,,76,72
12300,note_on,,1,0,10,,,,,,,,,,,,,,,,5,,71,72
12300,note_on,,1,0,14,,,,,,,,,,,,,,,,10,,80,72
12300,note_on,,1,0,9,,,,,,,,,,,,,,,,4,,50,72
12300,note_on,,1,0,13,,,,,,,,,,,,,,,,8,,62,72
12300,note_on,,1,0,5,,,,,,,,,,,,,,,,0,,71,72
12300,note_on,,1,0,12,,,,,,,,,,,,,,,,7,,62,72
12300,note_on,,1,0,16,,,,,,,,,,,,,,,,12,,71,72
12300,note_on,,1,0,11,,,,,,,,,,,,,,,,6,,64,72
12329,note_on,,29,0,14,,,,,,,,,,,,,,,,10,,80,0
12330,note_on,,1,0,14,,,,,,,,,,,,,,,,10,,78,72
12359,note_on,,0,0,18,,,,,,,,,,,,,,,,15,,71,0
12359,note_on,,239,0,6,,,,,,,,,,,,,,,,1,,62,0
12359,note_on,,59,0,12,,,,,,,,,,,,,,,,7,,62,0
12359,note_on,,59,0,10,,,,,,,,,,,,,,,,5,,71,0
12359,note_on,,59,0,11,,,,,,,,,,,,,,,,6,,64,0
12359,note_on,,119,0,18,,,,,,,,,,,,,,,,15,,62,0
12359,note_on,,0,0,18,,,,,,,,,,,,,,,,15,,68,0
12359,note_on,,119,0,7,,,,,,,,,,,,,,,,2,,80,0
12359,note_on,,59,0,9,,,,,,,,,,,,,,,,4,,50,0
12359,note_on,,59,0,15,,,,,,,,,,,,,,,,11,,76,0
12359,note_on,,59,0,16,,,,,,,,,,,,,,,,12,,71,0
12359,note_on,,239,0,17,,,,,,,,,,,,,,,,13,,62,0
12359,note_on,,29,0,14,,,,,,,,,,,,,,,,10,,78,0
12359,note_on,,59,0,13,,,,,,,,,,,,,,,,8,,62,0
12359,note_on,,59,0,5,,,,,,,,,,,,,,,,0,,71,0
12359,note_on,,0,0,18,,,,,,,,,,,,,,,,15,,64,0
12360,note_on,,1,0,9,,,,,,,,,,,,,,,,4,,45,72
12360,note_on,,1,0,14,,,,,,,,,,,,,,,,10,,76,72
12360,note_on,,1,0,11,,,,,,,,,,,,,,,,6,,69,72
12360,note_on,,1,0,6,,,,,,,,,,,,,,,,1,,61,72
12360,note_on,,0,0,18,,,,,,,,,,,,,,,,15,,69,72
12360,note_on,,1,0,18,,,,,,,,,,,,,,,,15,,61,72
12360,note_on,,1,0,7,,,,,,,,,,,,,,,,2,,81,72
12360,note_on,,1,0,15,,,,,,,,,,,,,,,,11,,81,72
12360,note_on,,0,0,18,,,,,,,,,,,,,,,,15,,76,72
12360,note_on,,1,0,17,,,,,,,,,,,,,,,,13,,61,72
12360,note_on,,1,0,13,,,,,,,,,,,,,,,,8,,61,72
12360,note_on,,1,0,16,,,,,,,,,,,,,,,,12,,73,72
12360,note_on,,1,0,12,,,,,,,,,,,,,,,,7,,61,72
12419,note_on,,59,0,16,,,,,,,,,,,,,,,,12,,73,0
12419,note_on,,59,0,14,,,,,,,,,,,,,,,,10,,76,0
12419,note_on,,179,0,8,,,,,,,,,,,,,,,,3,,76,0
12420,note_on,,1,0,14,,,,,,,,,,,,,,,,10,,78,72
12420,note_on,,61,0,5,,,,,,,,,,,,,,,,0,,76,72
12420,note_on,,1,0,8,,,,,,,,,,,,,,,,3,,76,72
12420,note_on,,61,0,10,,,,,,,,,,,,,,,,5,,76,72
12420,note_on,,1,0,16,,,,,,,,,,,,,,,,12,,73,72
12449,note_on,,29,0,14,,,,,,,,,,,,,,,,10,,78,0
12450,note_on,,1,0,14,,,,,,,,,,,,,,,,10,,76,72
12479,note_on,,59,0,16,,,,,,,,,,,,,,,,12,,73,0
12479,note_on,,119,0,18,,,,,,,,,,,,,,,,15,,61,0
12479,note_on,,119,0,9,,,,,,,,,,,,,,,,4,,45,0
12479,note_on,,59,0,10,,,,,,,,,,,,,,,,5,,76,0
12479,note_on,,119,0,6,,,,,,,,,,,,,,,,1,,61,0
12479,note_on,,29,0,14,,,,,,,,,,,,,,,,10,,76,0
12479,note_on,,119,0,12,,,,,,,,,,,,,,,,7,,61,0
12479,note_on,,119,0,17,,,,,,,,,,,,,,,,13,,61,0
12479,note_on,,59,0,8,,,,,,,,,,,,,,,,3,,76,0
12479,note_on,,59,0,5,,,,,,,,,,,,,,,,0,,76,0
12479,note_on,,119,0,13,,,,,,,,,,,,,,,,8,,61,0
12479,note_on,,0,0,18,,,,,,,,,,,,,,,,15,,69,0
12479,note_on,,0,0,18,,,,,,,,,,,,,,,,15,,76,0
12480,note_on,,1,0,17,,,,,,,,,,,,,,,,13,,59,72
12480,note_on,,1,0,18,,,,,,,,,,,,,,,,15,,59,72
12480,note_on,,0,0,18,,,,,,,,,,,,,,,,15,,69,72
12480,note_on,,0,0,18,,,,,,,,,,,,,,,,15,,66,72
12480,note_on,,1,0,12,,,,,,,,,,,,,,,,7,,59,72
12480,note_on,,1,0,10,,,,,,,,,,,,,,,,5,,74,72
12480,note_on,,0,0,18,,,,,,,,,,,,,,,,15,,74,72
12480,note_on,,1,0,6,,,,,,,,,,,,,,,,1,,59,72
12480,note_on,,1,0,16,,,,,,,,,,,,,,,,12,,66,72
12480,note_on,,1,0,14,,,,,,,,,,,,,,,,10,,74,72
12480,note_on,,1,0,13,,,,,,,,,,,,,,,,8,,59,72
12480,note_on,,1,0,5,,,,,,,,,,,,,,,,0,,74,72
12480,note_on,,1,0,8,,,,,,,,,,,,,,,,3,,74,72
12539,note_on,,179,0,7,,,,,,,,,,,,,,,,2,,81,0
12539,note_on,,59,0,5,,,,,,,,,,,,,,,,0,,74,0
12539,note_on,,59,0,16,,,,,,,,,,,,,,,,12,,66,0
12539,note_on,,59,0,8,,,,,,,,,,,,,,,,3,,74,0
12539,note_on,,59,0,10,,,,,,,,,,,,,,,,5,,74,0
12539,note_on,,59,0,14,,,,,,,,,,,,,,,,10,,74,0
12540,note_on,,1,0,14,,,,,,,,,,,,,,,,10,,73,72
12540,note_on,,61,0,9,,,,,,,,,,,,,,,,4,,50,72
12540,note_on,,1,0,8,,,,,,,,,,,,,,,,3,,69,72
12540,note_on,,1,0,5,,,,,,,,,,,,,,,,0,,73,72
12540,note_on,,1,0,16,,,,,,,,,,,,,,,,12,,66,72
12540,note_on,,1,0,7,,,,,,,,,,,,,,,,2,,81,72
12540,note_on,,1,0,10,,,,,,,,,,,,,,,,5,,73,72
12599,note_on,,59,0,10,,,,,,,,,,,,,,,,5,,73,0
12599,note_on,,59,0,9,,,,,,,,,,,,,,,,4,,50,0
12599,note_on,,59,0,16,,,,,,,,,,,,,,,,12,,66,0
12599,note_on,,0,0,18,,,,,,,,,,,,,,,,15,,69,0
12599,note_on,,119,0,18,,,,,,,,,,,,,,,,15,,74,0
12599,note_on,,59,0,5,,,,,,,,,,,,,,,,0,,73,0
12599,note_on,,59,0,14,,,,,,,,,,,,,,,,10,,73,0
12599,note_on,,0,0,18,,,,,,,,,,,,,,,,15,,66,0
12599,note_on,,59,0,7,,,,,,,,,,,,,,,,2,,81,0
12599,note_on,,239,0,11,,,,,,,,,,,,,,,,6,,69,0
12599,note_on,,59,0,8,,,,,,,,,,,,,,,,3,,69,0
12599,note_on,,239,0,15,,,,,,,,,,,,,,,,11,,81,0
12600,note_on,,1,0,16,,,,,,,,,,,,,,,,12,,62,72
12600,note_on,,1,0,9,,,,,,,,,,,,,,,,4,,50,72
12600,note_on,,0,0,18,,,,,,,,,,,,,,,,15,,62,72
12600,note_on,,0,0,18,,,,,,,,,,,,,,,,15,,68,72
12600,note_on,,1,0,10,,,,,,,,,,,,,,,,5,,74,72
12600,note_on,,1,0,8,,,,,,,,,,,,,,,,3,,74,72
12600,note_on,,1,0,14,,,,,,,,,,,,,,,,10,,74,72
12600,note_on,,1,0,5,,,,,,,,,,,,,,,,0,,74,72
12600,note_on,,1,0,11,,,,,,,,,,,,,,,,6,,68,72
12600,note_on,,1,0,7,,,,,,,,,,,,,,,,2,,80,72
12600,note_on,,1,0,18,,,,,,,,,,,,,,,,15,,71,72
12600,note_on,,1,0,15,,,,,,,,,,,,,,,,11,,80,72
12659,note_on,,59,0,5,,,,,,,,,,,,,,,,0,,74,0
12659,note_on,,59,0,16,,,,,,,,,,,,,,,,12,,62,0
12659,note_on,,59,0,10,,,,,,,,,,,,,,,,5,,74,0
12659,note_on,,59,0,14,,,,,,,,,,,,,,,,10,,74,0
12659,note_on,,59,0,8,,,,,,,,,,,,,,,,3,,74,0
12660,note_on,,1,0,16,,,,,,,,,,,,,,,,12,,62,72
12660,note_on,,1,0,10,,,,,,,,,,,,,,,,5,,76,72
12660,note_on,,1,0,14,,,,,,,,,,,,,,,,10,,76,72
12660,note_on,,1,0,8,,,,,,,,,,,,,,,,3,,76,72
12660,note_on,,1,0,5,,,,,,,,,,,,,,,,0,,76,72
12689,note_on,,89,0,9,,,,,,,,,,,,,,,,4,,50,0
12689,note_on,,29,0,8,,,,,,,,,,,,,,,,3,,76,0
12689,note_on,,29,0,10,,,,,,,,,,,,,,,,5,,76,0
12689,note_on,,29,0,5,,,,,,,,,,,,,,,,0,,76,0
12689,note_on,,29,0,14,,,,,,,,,,,,,,,,10,,76,0
12690,note_on,,1,0,9,,,,,,,,,,,,,,,,4,,50,72
12690,note_on,,1,0,5,,,,,,,,,,,,,,,,0,,74,72
12690,note_on,,1,0,8,,,,,,,,,,,,,,,,3,,74,72
12690,note_on,,1,0,10,,,,,,,,,,,,,,,,5,,74,72
12690,note_on,,1,0,14,,,,,,,,,,,,,,,,10,,74,72
12719,note_on,,0,0,18,,,,,,,,,,,,,,,,15,,62,0
12719,note_on,,119,0,15,,,,,,,,,,,,,,,,11,,80,0
12719,note_on,,119,0,11,,,,,,,,,,,,,,,,6,,68,0
12719,note_on,,119,0,7,,,,,,,,,,,,,,,,2,,80,0
12719,note_on,,29,0,9,,,,,,,,,,,,,,,,4,,50,0
12719,note_on,,0,0,18,,,,,,,,,,,,,,,,15,,68,0
12719,note_on,,29,0,14,,,,,,,,,,,,,,,,10,,74,0
12719,note_on,,239,0,12,,,,,,,,,,,,,,,,7,,59,0
12719,note_on,,29,0,8,,,,,,,,,,,,,,,,3,,74,0
12719,note_on,,239,0,6,,,,,,,,,,,,,,,,1,,59,0
12719,note_on,,239,0,13,,,,,,,,,,,,,,,,8,,59,0
12719,note_on,,239,0,17,,,,,,,,,,,,,,,,13,,59,0
12719,note_on,,59,0,16,,,,,,,,,,,,,,,,12,,62,0
12719,note_on,,0,0,18,,,,,,,,,,,,,,,,15,,71,0
12719,note_on,,29,0,10,,,,,,,,,,,,,,,,5,,74,0
12719,note_on,,119,0,18,,,,,,,,,,,,,,,,15,,59,0
12719,note_on,,29,0,5,,,,,,,,,,,,,,,,0,,74,0
12720,note_on,,1,0,7,,,,,,,,,,,,,,,,2,,81,72
12720,note_on,,1,0,5,,,,,,,,,,,,,,,,0,,73,72
12720,note_on,,1,0,8,,,,,,,,,,,,,,,,3,,76,72
12720,note_on,,1,0,10,,,,,,,,,,,,,,,,5,,73,72
12720,note_on,,1,0,14,,,,,,,,,,,,,,,,10,,73,72
12720,note_on,,1,0,6,,,,,,,,,,,,,,,,1,,57,72
12720,note_on,,1,0,9,,,,,,,,,,,,,,,,4,,45,72
12720,note_on,,1,0,13,,,,,,,,,,,,,,,,8,,57,72
12720,note_on,,1,0,11,,,,,,,,,,,,,,,,6,,69,72
12720,note_on,,1,0,16,,,,,,,,,,,,,,,,12,,64,72
12720,note_on,,1,0,12,,,,,,,,,,,,,,,,7,,57,72
12720,note_on,,0,0,18,,,,,,,,,,,,,,,,15,,73,72
12720,note_on,,1,0,17,,,,,,,,,,,,,,,,13,,57,72
12720,note_on,,0,0,18,,,,,,,,,,,,,,,,15,,69,72
12720,note_on,,0,0,18,,,,,,,,,,,,,,,,15,,64,72
12720,note_on,,1,0,15,,,,,,,,,,,,,,,,11,,81,72
12720,note_on,,1,0,18,,,,,,,,,,,,,,,,15,,57,72
12779,note_on,,59,0,16,,,,,,,,,,,,,,,,12,,64,0
12779,note_on,,59,0,10,,,,,,,,,,,,,,,,5,,73,0
12779,note_on,,59,0,5,,,,,,,,,,,,,,,,0,,73,0
12779,note_on,,59,0,15,,,,,,,,,,,,,,,,11,,81,0
12779,note_on,,59,0,12,,,,,,,,,,,,,,,,7,,57,0
12779,note_on,,59,0,14,,,,,,,,,,,,,,,,10,,73,0
12780,note_on,,1,0,14,,,,,,,,,,,,,,,,10,,76,72
12780,note_on,,1,0,5,,,,,,,,,,,,,,,,0,,73,72
12780,note_on,,1,0,12,,,,,,,,,,,,,,,,7,,64,72
12780,note_on,,1,0,16,,,,,,,,,,,,,,,,12,,69,72
12780,note_on,,1,0,15,,,,,,,,,,,,,,,,11,,73,72
12780,note_on,,1,0,10,,,,,,,,,,,,,,,,5,,73,72
12809,note_on,,29,0,10,,,,,,,,,,,,,,,,5,,73,0
12809,note_on,,29,0,14,,,,,,,,,,,,,,,,10,,76,0
12809,note_on,,29,0,15,,,,,,,,,,,,,,,,11,,73,0
12809,note_on,,29,0,12,,,,,,,,,,,,,,,,7,,64,0
12809,note_on,,29,0,16,,,,,,,,,,,,,,,,12,,69,0
12809,note_on,,29,0,5,,,,,,,,,,,,,,,,0,,73,0
12810,note_on,,1,0,16,,,,,,,,,,,,,,,,12,,69,72
12810,note_on,,1,0,14,,,,,,,,,,,,,,,,10,,76,72
12810,note_on,,1,0,10,,,,,,,,,,,,,,,,5,,73,72
12810,note_on,,1,0,12,,,,,,,,,,,,,,,,7,,64,72
12810,note_on,,1,0,15,,,,,,,,,,,,,,,,11,,73,72
12810,note_on,,1,0,5,,,,,,,,,,,,,,,,0,,73,72
12839,note_on,,29,0,12,,,,,,,,,,,,,,,,7,,64,0
12839,note_on,,29,0,16,,,,,,,,,,,,,,,,12,,69,0
12839,note_on,,119,0,7,,,,,,,,,,,,,,,,2,,81,0
12839,note_on,,119,0,17,,,,,,,,,,,,,,,,13,,57,0
12839,note_on,,119,0,11,,,,,,,,,,,,,,,,6,,69,0
12839,note_on,,119,0,13,,,,,,,,,,,,,,,,8,,57,0
12839,note_on,,29,0,14,,,,,,,,,,,,,,,,10,,76,0
12839,note_on,,119,0,8,,,,,,,,,,,,,,,,3,,76,0
12839,note_on,,119,0,6,,,,,,,,,,,,,,,,1,,57,0
12839,note_on,,29,0,10,,,,,,,,,,,,,,,,5,,73,0
12839,note_on,,29,0,15,,,,,,,,,,,,,,,,11,,73,0
12839,note_on,,119,0,9,,,,,,,,,,,,,,,,4,,45,0
12839,note_on,,29,0,5,,,,,,,,,,,,,,,,0,,73,0
12839,note_on,,119,0,18,,,,,,,,,,,,,,,,15,,57,0
12839,note_on,,0,0,18,,,,,,,,,,,,,,,,15,,73,0
12839,note_on,,0,0,18,,,,,,,,,,,,,,,,15,,69,0
12839,note_on,,0,0,18,,,,,,,,,,,,,,,,15,,64,0
12840,note_on,,1,0,10,,,,,,,,,,,,,,,,5,,76,72
12840,note_on,,1,0,5,,,,,,,,,,,,,,,,0,,76,72
12840,note_on,,1,0,14,,,,,,,,,,,,,,,,10,,81,72
12840,note_on,,1,0,15,,,,,,,,,,,,,,,,11,,76,72
12840,note_on,,1,0,12,,,,,,,,,,,,,,,,7,,61,72
12840,note_on,,1,0,16,,,,,,,,,,,,,,,,12,,73,72
12899,note_on,,59,0,16,,,,,,,,,,,,,,,,12,,73,0
12899,note_on,,59,0,15,,,,,,,,,,,,,,,,11,,76,0
12899,note_on,,59,0,12,,,,,,,,,,,,,,,,7,,61,0
12899,note_on,,59,0,5,,,,,,,,,,,,,,,,0,,76,0
12899,note_on,,59,0,10,,,,,,,,,,,,,,,,5,,76,0
12899,note_on,,59,0,14,,,,,,,,,,,,,,,,10,,81,0
12900,note_on,,61,0,18,,,,,,,,,,,,,,,,15,,57,72
12900,note_on,,0,0,18,,,,,,,,,,,,,,,,15,,64,72
12900,note_on,,1,0,15,,,,,,,,,,,,,,,,11,,73,72
12900,note_on,,1,0,12,,,,,,,,,,,,,,,,7,,57,72
12900,note_on,,1,0,14,,,,,,,,,,,,,,,,10,,73,72
12900,note_on,,0,0,18,,,,,,,,,,,,,,,,15,,69,72
12900,note_on,,0,0,18,,,,,,,,,,,,,,,,15,,73,72
12900,note_on,,61,0,17,,,,,,,,,,,,,,,,13,,57,72
12900,note_on,,61,0,11,,,,,,,,,,,,,,,,6,,64,72
12900,note_on,,1,0,10,,,,,,,,,,,,,,,,5,,73,72
12900,note_on,,1,0,5,,,,,,,,,,,,,,,,0,,73,72
12900,note_on,,61,0,8,,,,,,,,,,,,,,,,3,,76,72
12900,note_on,,61,0,9,,,,,,,,,,,,,,,,4,,45,72
12900,note_on,,61,0,6,,,,,,,,,,,,,,,,1,,57,72
12900,note_on,,61,0,13,,,,,,,,,,,,,,,,8,,57,72
12900,note_on,,1,0,16,,,,,,,,,,,,,,,,12,,69,72
12900,note_on,,61,0,7,,,,,,,,,,,,,,,,2,,81,72
12929,note_on,,29,0,6,,,,,,,,,,,,,,,,1,,57,0
12929,note_on,,29,0,18,,,,,,,,,,,,,,,,15,,57,0
12929,note_on,,0,0,18,,,,,,,,,,,,,,,,15,,73,0
12929,note_on,,0,0,18,,,,,,,,,,,,,,,,15,,69,0
12929,note_on,,29,0,9,,,,,,,,,,,,,,,,4,,45,0
12929,note_on,,0,0,18,,,,,,,,,,,,,,,,15,,64,0
12929,note_on,,29,0,11,,,,,,,,,,,,,,,,6,,64,0
12929,note_on,,29,0,13,,,,,,,,,,,,,,,,8,,57,0
12929,note_on,,29,0,8,,,,,,,,,,,,,,,,3,,76,0
12929,note_on,,29,0,7,,,,,,,,,,,,,,,,2,,81,0
12929,note_on,,29,0,17,,,,,,,,,,,,,,,,13,,57,0
12930,note_on,,0,0,18,,,,,,,,,,,,,,,,15,,73,72
12930,note_on,,0,0,18,,,,,,,,,,,,,,,,15,,69,72
12930,note_on,,0,0,18,,,,,,,,,,,,,,,,15,,64,72
12930,note_on,,1,0,8,,,,,,,,,,,,,,,,3,,76,72
12930,note_on,,1,0,18,,,,,,,,,,,,,,,,15,,57,72
12930,note_on,,1,0,17,,,,,,,,,,,,,,,,13,,57,72
12930,note_on,,1,0,11,,,,,,,,,,,,,,,,6,,64,72
12930,note_on,,1,0,7,,,,,,,,,,,,,,,,2,,81,72
12930,note_on,,1,0,9,,,,,,,,,,,,,,,,4,,45,72
12930,note_on,,1,0,6,,,,,,,,,,,,,,,,1,,57,72
12930,note_on,,1,0,13,,,,,,,,,,,,,,,,8,,57,72
12959,note_on,,59,0,14,,,,,,,,,,,,,,,,10,,73,0
12959,note_on,,29,0,7,,,,,,,,,,,,,,,,2,,81,0
12959,note_on,,29,0,11,,,,,,,,,,,,,,,,6,,64,0
12959,note_on,,59,0,15,,,,,,,,,,,,,,,,11,,73,0
12959,note_on,,59,0,10,,,,,,,,,,,,,,,,5,,73,0
12959,note_on,,0,0,18,,,,,,,,,,,,,,,,15,,64,0
12959,note_on,,0,0,18,,,,,,,,,,,,,,,,15,,69,0
12959,note_on,,0,0,18,,,,,,,,,,,,,,,,15,,73,0
12959,note_on,,59,0,5,,,,,,,,,,,,,,,,0,,73,0
12959,note_on,,29,0,18,,,,,,,,,,,,,,,,15,,57,0
12959,note_on,,29,0,8,,,,,,,,,,,,,,,,3,,76,0
12959,note_on,,29,0,6,,,,,,,,,,,,,,,,1,,57,0
12959,note_on,,29,0,17,,,,,,,,,,,,,,,,13,,57,0
12959,note_on,,29,0,9,,,,,,,,,,,,,,,,4,,45,0
12959,note_on,,59,0,12,,,,,,,,,,,,,,,,7,,57,0
12959,note_on,,59,0,16,,,,,,,,,,,,,,,,12,,69,0
12959,note_on,,29,0,13,,,,,,,,,,,,,,,,8,,57,0
12960,note_on,,1,0,8,,,,,,,,,,,,,,,,3,,74,72
12960,note_on,,1,0,13,,,,,,,,,,,,,,,,8,,54,72
12960,note_on,,1,0,17,,,,,,,,,,,,,,,,13,,54,72
12960,note_on,,1,0,7,,,,,,,,,,,,,,,,2,,81,72
12960,note_on,,1,0,11,,,,,,,,,,,,,,,,6,,69,72
12960,note_on,,1,0,6,,,,,,,,,,,,,,,,1,,54,72
12960,note_on,,0,0,18,,,,,,,,,,,,,,,,15,,57,72
12960,note_on,,1,0,9,,,,,,,,,,,,,,,,4,,50,72
12960,note_on,,0,0,18,,,,,,,,,,,,,,,,15,,69,72
12960,note_on,,0,0,18,,,,,,,,,,,,,,,,15,,74,72
12960,note_on,,1,0,18,,,,,,,,,,,,,,,,15,,54,72
12960,note_on,,0,0,18,,,,,,,,,,,,,,,,15,,66,72
13019,note_on,,59,0,6,,,,,,,,,,,,,,,,1,,54,0
13019,note_on,,59,0,18,,,,,,,,,,,,,,,,15,,54,0
13019,note_on,,0,0,18,,,,,,,,,,,,,,,,15,,74,0
13019,note_on,,59,0,9,,,,,,,,,,,,,,,,4,,50,0
13019,note_on,,0,0,18,,,,,,,,,,,,,,,,15,,66,0
13019,note_on,,0,0,18,,,,,,,,,,,,,,,,15,,57,0
13019,note_on,,59,0,17,,,,,,,,,,,,,,,,13,,54,0
13019,note_on,,59,0,11,,,,,,,,,,,,,,,,6,,69,0
13019,note_on,,59,0,13,,,,,,,,,,,,,,,,8,,54,0
13019,note_on,,59,0,8,,,,,,,,,,,,,,,,3,,74,0
13019,note_on,,59,0,7,,,,,,,,,,,,,,,,2,,81,0
13019,note_on,,0,0,18,,,,,,,,,,,,,,,,15,,69,0
13020,note_on,,1,0,18,,,,,,,,,,,,,,,,15,,50,72
13020,note_on,,0,0,18,,,,,,,,,,,,,,,,15,,74,72
13020,note_on,,0,0,18,,,,,,,,,,,,,,,,15,,78,72
13020,note_on,,0,0,18,,,,,,,,,,,,,,,,15,,57,72
13020,note_on,,1,0,8,,,,,,,,,,,,,,,,3,,69,72
13020,note_on,,0,0,18,,,,,,,,,,,,,,,,15,,69,72
13020,note_on,,61,0,10,,,,,,,,,,,,,,,,5,,69,72
13020,note_on,,61,0,14,,,,,,,,,,,,,,,,10,,81,72
13020,note_on,,1,0,6,,,,,,,,,,,,,,,,1,,50,72
13020,note_on,,61,0,16,,,,,,,,,,,,,,,,12,,69,72
13020,note_on,,1,0,9,,,,,,,,,,,,,,,,4,,50,72
13020,note_on,,61,0,5,,,,,,,,,,,,,,,,0,,69,72
13020,note_on,,1,0,17,,,,,,,,,,,,,,,,13,,50,72
13020,note_on,,1,0,13,,,,,,,,,,,,,,,,8,,50,72
13020,note_on,,61,0,15,,,,,,,,,,,,,,,,11,,78,72
13020,note_on,,61,0,12,,,,,,,,,,,,,,,,7,,62,72
13020,note_on,,1,0,11,,,,,,,,,,,,,,,,6,,66,72
13020,note_on,,1,0,7,,,,,,,,,,,,,,,,2,,78,72
13049,note_on,,29,0,12,,,,,,,,,,,,,,,,7,,62,0
13049,note_on,,29,0,15,,,,,,,,,,,,,,,,11,,78,0
13049,note_on,,29,0,16,,,,,,,,,,,,,,,,12,,69,0
13049,note_on,,29,0,14,,,,,,,,,,,,,,,,10,,81,0
13049,note_on,,29,0,5,,,,,,,,,,,,,,,,0,,69,0
13049,note_on,,29,0,10,,,,,,,,,,,,,,,,5,,69,0
13050,note_on,,1,0,14,,,,,,,,,,,,,,,,10,,81,72
13050,note_on,,1,0,10,,,,,,,,,,,,,,,,5,,69,72
13050,note_on,,1,0,12,,,,,,,,,,,,,,,,7,,62,72
13050,note_on,,1,0,5,,,,,,,,,,,,,,,,0,,69,72
13050,note_on,,1,0,15,,,,,,,,,,,,,,,,11,,78,72
13050,note_on,,1,0,16,,,,,,,,,,,,,,,,12,,69,72
13079,note_on,,59,0,8,,,,,,,,,,,,,,,,3,,69,0
13079,note_on,,59,0,6,,,,,,,,,,,,,,,,1,,50,0
13079,note_on,,29,0,12,,,,,,,,,,,,,,,,7,,62,0
13079,note_on,,0,0,18,,,,,,,,,,,,,,,,15,,69,0
13079,note_on,,59,0,18,,,,,,,,,,,,,,,,15,,50,0
13079,note_on,,0,0,18,,,,,,,,,,,,,,,,15,,57,0
13079,note_on,,29,0,10,,,,,,,,,,,,,,,,5,,69,0
13079,note_on,,29,0,5,,,,,,,,,,,,,,,,0,,69,0
13079,note_on,,59,0,13,,,,,,,,,,,,,,,,8,,50,0
13079,note_on,,0,0,18,,,,,,,,,,,,,,,,15,,74,0
13079,note_on,,59,0,11,,,,,,,,,,,,,,,,6,,66,0
13079,note_on,,0,0,18,,,,,,,,,,,,,,,,15,,78,0
13079,note_on,,59,0,17,,,,,,,,,,,,,,,,13,,50,0
13079,note_on,,29,0,14,,,,,,,,,,,,,,,,10,,81,0
13079,note_on,,59,0,9,,,,,,,,,,,,,,,,4,,50,0
13079,note_on,,29,0,16,,,,,,,,,,,,,,,,12,,69,0
13079,note_on,,29,0,15,,,,,,,,,,,,,,,,11,,78,0
13079,note_on,,59,0,7,,,,,,,,,,,,,,,,2,,78,0
13080,note_on,,1,0,14,,,,,,,,,,,,,,,,10,,86,72
13080,note_on,,1,0,16,,,,,,,,,,,,,,,,12,,66,72
13080,note_on,,1,0,15,,,,,,,,,,,,,,,,11,,81,72
13080,note_on,,1,0,10,,,,,,,,,,,,,,,,5,,74,72
13080,note_on,,1,0,5,,,,,,,,,,,,,,,,0,,74,72
13080,note_on,,1,0,12,,,,,,,,,,,,,,,,7,,66,72
13139,note_on,,59,0,5,,,,,,,,,,,,,,,,0,,74,0
13139,note_on,,59,0,14,,,,,,,,,,,,,,,,10,,86,0
13139,note_on,,59,0,16,,,,,,,,,,,,,,,,12,,66,0
13139,note_on,,59,0,12,,,,,,,,,,,,,,,,7,,66,0
13139,note_on,,59,0,15,,,,,,,,,,,,,,,,11,,81,0
13139,note_on,,59,0,10,,,,,,,,,,,,,,,,5,,74,0
13140,note_on,,0,0,18,,,,,,,,,,,,,,,,15,,66,72
13140,note_on,,61,0,7,,,,,,,,,,,,,,,,2,,78,72
13140,note_on,,61,0,18,,,,,,,,,,,,,,,,15,,62,72
13140,note_on,,1,0,12,,,,,,,,,,,,,,,,7,,62,72
13140,note_on,,1,0,15,,,,,,,,,,,,,,,,11,,78,72
13140,note_on,,61,0,11,,,,,,,,,,,,,,,,6,,66,72
13140,note_on,,61,0,8,,,,,,,,,,,,,,,,3,,66,72
13140,note_on,,61,0,9,,,,,,,,,,,,,,,,4,,50,72
13140,note_on,,0,0,18,,,,,,,,,,,,,,,,15,,69,72
13140,note_on,,61,0,17,,,,,,,,,,,,,,,,13,,62,72
13140,note_on,,61,0,13,,,,,,,,,,,,,,,,8,,62,72
13140,note_on,,1,0,5,,,,,,,,,,,,,,,,0,,69,72
13140,note_on,,1,0,14,,,,,,,,,,,,,,,,10,,81,72
13140,note_on,,1,0,10,,,,,,,,,,,,,,,,5,,69,72
13140,note_on,,61,0,6,,,,,,,,,,,,,,,,1,,62,72
13140,note_on,,1,0,16,,,,,,,,,,,,,,,,12,,62,72
13169,note_on,,29,0,7,,,,,,,,,,,,,,,,2,,78,0
13169,note_on,,29,0,17,,,,,,,,,,,,,,,,13,,62,0
13169,note_on,,29,0,9,,,,,,,,,,,,,,,,4,,50,0
13169,note_on,,29,0,13,,,,,,,,,,,,,,,,8,,62,0
13169,note_on,,29,0,6,,,,,,,,,,,,,,,,1,,62,0
13169,note_on,,29,0,11,,,,,,,,,,,,,,,,6,,66,0
13169,note_on,,29,0,8,,,,,,,,,,,,,,,,3,,66,0
13169,note_on,,0,0,18,,,,,,,,,,,,,,,,15,,69,0
13169,note_on,,29,0,18,,,,,,,,,,,,,,,,15,,62,0
13169,note_on,,0,0,18,,,,,,,,,,,,,,,,15,,66,0
13170,note_on,,1,0,13,,,,,,,,,,,,,,,,8,,62,72
13170,note_on,,1,0,11,,,,,,,,,,,,,,,,6,,66,72
13170,note_on,,1,0,18,,,,,,,,,,,,,,,,15,,62,72
13170,note_on,,0,0,18,,,,,,,,,,,,,,,,15,,69,72
13170,note_on,,1,0,9,,,,,,,,,,,,,,,,4,,50,72
13170,note_on,,1,0,8,,,,,,,,,,,,,,,,3,,66,72
13170,note_on,,0,0,18,,,,,,,,,,,,,,,,15,,66,72
13170,note_on,,1,0,6,,,,,,,,,,,,,,,,1,,62,72
13170,note_on,,1,0,17,,,,,,,,,,,,,,,,13,,62,72
13170,note_on,,1,0,7,,,,,,,,,,,,,,,,2,,78,72
13199,note_on,,29,0,9,,,,,,,,,,,,,,,,4,,50,0
13199,note_on,,29,0,13,,,,,,,,,,,,,,,,8,,62,0
13199,note_on,,29,0,17,,,,,,,,,,,,,,,,13,,62,0
13199,note_on,,29,0,6,,,,,,,,,,,,,,,,1,,62,0
13199,note_on,,29,0,11,,,,,,,,,,,,,,,,6,,66,0
13199,note_on,,59,0,5,,,,,,,,,,,,,,,,0,,69,0
13199,note_on,,59,0,10,,,,,,,,,,,,,,,,5,,69,0
13199,note_on,,59,0,15,,,,,,,,,,,,,,,,11,,78,0
13199,note_on,,29,0,8,,,,,,,,,,,,,,,,3,,66,0
13199,note_on,,59,0,14,,,,,,,,,,,,,,,,10,,81,0
13199,note_on,,29,0,18,,,,,,,,,,,,,,,,15,,62,0
13199,note_on,,0,0,18,,,,,,,,,,,,,,,,15,,69,0
13199,note_on,,0,0,18,,,,,,,,,,,,,,,,15,,66,0
13199,note_on,,59,0,16,,,,,,,,,,,,,,,,12,,62,0
13199,note_on,,59,0,12,,,,,,,,,,,,,,,,7,,62,0
13199,note_on,,29,0,7,,,,,,,,,,,,,,,,2,,78,0
13200,note_on,,1,0,13,,,,,,,,,,,,,,,,8,,61,72
13200,note_on,,1,0,6,,,,,,,,,,,,,,,,1,,61,72
13200,note_on,,1,0,11,,,,,,,,,,,,,,,,6,,64,72
13200,note_on,,1,0,17,,,,,,,,,,,,,,,,13,,61,72
13200,note_on,,1,0,18,,,,,,,,,,,,,,,,15,,61,72
13200,note_on,,0,0,18,,,,,,,,,,,,,,,,15,,69,72
13200,note_on,,0,0,18,,,,,,,,,,,,,,,,15,,64,72
13200,note_on,,1,0,9,,,,,,,,,,,,,,,,4,,45,72
13200,note_on,,1,0,8,,,,,,,,,,,,,,,,3,,69,72
13200,note_on,,1,0,7,,,,,,,,,,,,,,,,2,,76,72
13259,note_on,,59,0,18,,,,,,,,,,,,,,,,15,,61,0
13259,note_on,,0,0,18,,,,,,,,,,,,,,,,15,,64,0
13259,note_on,,59,0,11,,,,,,,,,,,,,,,,6,,64,0
13259,note_on,,59,0,7,,,,,,,,,,,,,,,,2,,76,0
13259,note_on,,59,0,6,,,,,,,,,,,,,,,,1,,61,0
13259,note_on,,59,0,9,,,,,,,,,,,,,,,,4,,45,0
13259,note_on,,59,0,13,,,,,,,,,,,,,,,,8,,61,0
13259,note_on,,59,0,17,,,,,,,,,,,,,,,,13,,61,0
13259,note_on,,59,0,8,,,,,,,,,,,,,,,,3,,69,0
13260,note_on,,61,0,5,,,,,,,,,,,,,,,,0,,73,72
13260,note_on,,1,0,13,,,,,,,,,,,,,,,,8,,57,72
13260,note_on,,1,0,17,,,,,,,,,,,,,,,,13,,57,72
13260,note_on,,61,0,12,,,,,,,,,,,,,,,,7,,64,72
13260,note_on,,1,0,8,,,,,,,,,,,,,,,,3,,69,72
13260,note_on,,1,0,6,,,,,,,,,,,,,,,,1,,57,72
13260,note_on,,61,0,16,,,,,,,,,,,,,,,,12,,64,72
13260,note_on,,1,0,7,,,,,,,,,,,,,,,,2,,76,72
13260,note_on,,1,0,9,,,,,,,,,,,,,,,,4,,45,72
13260,note_on,,61,0,10,,,,,,,,,,,,,,,,5,,73,72
13260,note_on,,61,0,15,,,,,,,,,,,,,,,,11,,73,72
13260,note_on,,1,0,11,,,,,,,,,,,,,,,,6,,61,72
13260,note_on,,0,0,18,,,,,,,,,,,,,,,,15,,61,72
13260,note_on,,1,0,18,,,,,,,,,,,,,,,,15,,57,72
13260,note_on,,61,0,14,,,,,,,,,,,,,,,,10,,81,72
13289,note_on,,29,0,12,,,,,,,,,,,,,,,,7,,64,0
13289,note_on,,29,0,5,,,,,,,,,,,,,,,,0,,73,0
13289,note_on,,29,0,14,,,,,,,,,,,,,,,,10,,81,0
13289,note_on,,29,0,10,,,,,,,,,,,,,,,,5,,73,0
13289,note_on,,29,0,16,,,,,,,,,,,,,,,,12,,64,0
13289,note_on,,29,0,15,,,,,,,,,,,,,,,,11,,73,0
13290,note_on,,1,0,10,,,,,,,,,,,,,,,,5,,73,72
13290,note_on,,1,0,12,,,,,,,,,,,,,,,,7,,64,72
13290,note_on,,1,0,14,,,,,,,,,,,,,,,,10,,81,72
13290,note_on,,1,0,16,,,,,,,,,,,,,,,,12,,64,72
13290,note_on,,1,0,15,,,,,,,,,,,,,,,,11,,73,72
13290,note_on,,1,0,5,,,,,,,,,,,,,,,,0,,73,72
13319,note_on,,29,0,5,,,,,,,,,,,,,,,,0,,73,0
13319,note_on,,59,0,17,,,,,,,,,,,,,,,,13,,57,0
13319,note_on,,29,0,10,,,,,,,,,,,,,,,,5,,73,0
13319,note_on,,29,0,14,,,,,,,,,,,,,,,,10,,81,0
13319,note_on,,0,0,18,,,,,,,,,,,,,,,,15,,61,0
13319,note_on,,0,0,18,,,,,,,,,,,,,,,,15,,57,0
13319,note_on,,59,0,18,,,,,,,,,,,,,,,,15,,69,0
13319,note_on,,59,0,13,,,,,,,,,,,,,,,,8,,57,0
13319,note_on,,59,0,7,,,,,,,,,,,,,,,,2,,76,0
13319,note_on,,29,0,15,,,,,,,,,,,,,,,,11,,73,0
13319,note_on,,29,0,12,,,,,,,,,,,,,,,,7,,64,0
13319,note_on,,29,0,16,,,,,,,,,,,,,,,,12,,64,0
13319,note_on,,59,0,9,,,,,,,,,,,,,,,,4,,45,0
13319,note_on,,59,0,6,,,,,,,,,,,,,,,,1,,57,0
13319,note_on,,59,0,8,,,,,,,,,,,,,,,,3,,69,0
13319,note_on,,59,0,11,,,,,,,,,,,,,,,,6,,61,0
13320,note_on,,1,0,6,,,,,,,,,,,,,,,,1,,61,72
13320,note_on,,1,0,15,,,,,,,,,,,,,,,,11,,76,72
13320,note_on,,1,0,18,,,,,,,,,,,,,,,,15,,61,72
13320,note_on,,0,0,18,,,,,,,,,,,,,,,,15,,76,72
13320,note_on,,0,0,18,,,,,,,,,,,,,,,,15,,69,72
13320,note_on,,0,0,18,,,,,,,,,,,,,,,,15,,64,72
13320,note_on,,1,0,14,,,,,,,,,,,,,,,,10,,81,72
13320,note_on,,1,0,5,,,,,,,,,,,,,,,,0,,76,72
13320,note_on,,1,0,16,,,,,,,,,,,,,,,,12,,61,72
13320,note_on,,1,0,17,,,,,,,,,,,,,,,,13,,61,72
13320,note_on,,1,0,10,,,,,,,,,,,,,,,,5,,76,72
13320,note_on,,1,0,12,,,,,,,,,,,,,,,,7,,61,72
13379,note_on,,59,0,5,,,,,,,,,,,,,,,,0,,76,0
13379,note_on,,59,0,14,,,,,,,,,,,,,,,,10,,81,0
13379,note_on,,59,0,10,,,,,,,,,,,,,,,,5,,76,0
13379,note_on,,0,0,18,,,,,,,,,,,,,,,,15,,64,0
13379,note_on,,0,0,18,,,,,,,,,,,,,,,,15,,69,0
13379,note_on,,59,0,18,,,,,,,,,,,,,,,,15,,61,0
13379,note_on,,59,0,17,,,,,,,,,,,,,,,,13,,61,0
13379,note_on,,59,0,12,,,,,,,,,,,,,,,,7,,61,0
13379,note_on,,59,0,16,,,,,,,,,,,,,,,,12,,61,0
13379,note_on,,59,0,15,,,,,,,,,,,,,,,,11,,76,0
13379,note_on,,59,0,6,,,,,,,,,,,,,,,,1,,61,0
13380,note_on,,1,0,15,,,,,,,,,,,,,,,,11,,73,72
13380,note_on,,1,0,12,,,,,,,,,,,,,,,,7,,57,72
13380,note_on,,1,0,16,,,,,,,,,,,,,,,,12,,57,72
13380,note_on,,1,0,10,,,,,,,,,,,,,,,,5,,73,72
13380,note_on,,1,0,6,,,,,,,,,,,,,,,,1,,57,72
13380,note_on,,1,0,14,,,,,,,,,,,,,,,,10,,76,72
13380,note_on,,1,0,17,,,,,,,,,,,,,,,,13,,57,72
13380,note_on,,0,0,18,,,,,,,,,,,,,,,,15,,57,72
13380,note_on,,0,0,18,,,,,,,,,,,,,,,,15,,69,72
13380,note_on,,1,0,18,,,,,,,,,,,,,,,,15,,73,72
13380,note_on,,1,0,5,,,,,,,,,,,,,,,,0,,73,72
13439,note_on,,59,0,17,,,,,,,,,,,,,,,,13,,57,0
13439,note_on,,59,0,10,,,,,,,,,,,,,,,,5,,73,0
13439,note_on,,59,0,6,,,,,,,,,,,,,,,,1,,57,0
13439,note_on,,59,0,12,,,,,,,,,,,,,,,,7,,57,0
13439,note_on,,59,0,16,,,,,,,,,,,,,,,,12,,57,0
13439,note_on,,0,0,18,,,,,,,,,,,,,,,,15,,69,0
13439,note_on,,0,0,18,,,,,,,,,,,,,,,,15,,57,0
13439,note_on,,0,0,18,,,,,,,,,,,,,,,,15,,73,0
13439,note_on,,59,0,15,,,,,,,,,,,,,,,,11,,73,0
13439,note_on,,59,0,5,,,,,,,,,,,,,,,,0,,73,0
13439,note_on,,59,0,18,,,,,,,,,,,,,,,,15,,76,0
13439,note_on,,59,0,14,,,,,,,,,,,,,,,,10,,76,0
13440,note_on,,121,0,11,,,,,,,,,,,,,,,,6,,62,72
13440,note_on,,1,0,17,,,,,,,,,,,,,,,,13,,62,72
13440,note_on,,0,0,18,,,,,,,,,,,,,,,,15,,69,72
13440,note_on,,121,0,7,,,,,,,,,,,,,,,,2,,74,72
13440,note_on,,1,0,6,,,,,,,,,,,,,,,,1,,62,72
13440,note_on,,1,0,12,,,,,,,,,,,,,,,,7,,62,72
13440,note_on,,1,0,18,,,,,,,,,,,,,,,,15,,62,72
13440,note_on,,0,0,18,,,,,,,,,,,,,,,,15,,78,72
13440,note_on,,0,0,18,,,,,,,,,,,,,,,,15,,74,72
13500,note_on,,61,0,14,,,,,,,,,,,,,,,,10,,69,72
13500,note_on,,61,0,10,,,,,,,,,,,,,,,,5,,69,72
13500,note_on,,61,0,5,,,,,,,,,,,,,,,,0,,69,72
13500,note_on,,61,0,16,,,,,,,,,,,,,,,,12,,62,72
13500,note_on,,61,0,15,,,,,,,,,,,,,,,,11,,66,72
13529,note_on,,29,0,14,,,,,,,,,,,,,,,,10,,69,0
13529,note_on,,29,0,5,,,,,,,,,,,,,,,,0,,69,0
13529,note_on,,29,0,16,,,,,,,,,,,,,,,,12,,62,0
13529,note_on,,29,0,10,,,,,,,,,,,,,,,,5,,69,0
13529,note_on,,29,0,15,,,,,,,,,,,,,,,,11,,66,0
13530,note_on,,1,0,14,,,,,,,,,,,,,,,,10,,69,72
13530,note_on,,1,0,5,,,,,,,,,,,,,,,,0,,69,72
13530,note_on,,1,0,15,,,,,,,,,,,,,,,,11,,66,72
13530,note_on,,1,0,16,,,,,,,,,,,,,,,,12,,62,72
13530,note_on,,1,0,10,,,,,,,,,,,,,,,,5,,69,72
13559,note_on,,29,0,5,,,,,,,,,,,,,,,,0,,69,0
13559,note_on,,29,0,15,,,,,,,,,,,,,,,,11,,66,0
13559,note_on,,29,0,16,,,,,,,,,,,,,,,,12,,62,0
13559,note_on,,29,0,10,,,,,,,,,,,,,,,,5,,69,0
13559,note_on,,29,0,14,,,,,,,,,,,,,,,,10,,69,0
13560,note_on,,1,0,5,,,,,,,,,,,,,,,,0,,78,72
13560,note_on,,1,0,10,,,,,,,,,,,,,,,,5,,78,72
13560,note_on,,1,0,15,,,,,,,,,,,,,,,,11,,69,72
13560,note_on,,1,0,16,,,,,,,,,,,,,,,,12,,74,72
13560,note_on,,1,0,14,,,,,,,,,,,,,,,,10,,78,72
13619,note_on,,59,0,10,,,,,,,,,,,,,,,,5,,78,0
13619,note_on,,59,0,5,,,,,,,,,,,,,,,,0,,78,0
13619,note_on,,59,0,14,,,,,,,,,,,,,,,,10,,78,0
13619,note_on,,59,0,15,,,,,,,,,,,,,,,,11,,69,0
13619,note_on,,179,0,6,,,,,,,,,,,,,,,,1,,62,0
13619,note_on,,179,0,17,,,,,,,,,,,,,,,,13,,62,0
13619,note_on,,179,0,18,,,,,,,,,,,,,,,,15,,62,0
13619,note_on,,59,0,16,,,,,,,,,,,,,,,,12,,74,0
13619,note_on,,0,0,18,,,,,,,,,,,,,,,,15,,74,0
13619,note_on,,0,0,18,,,,,,,,,,,,,,,,15,,78,0
13619,note_on,,0,0,18,,,,,,,,,,,,,,,,15,,69,0
13620,note_on,,1,0,6,,,,,,,,,,,,,,,,1,,62,72
13620,note_on,,1,0,18,,,,,,,,,,,,,,,,15,,62,72
13620,note_on,,0,0,18,,,,,,,,,,,,,,,,15,,69,72
13620,note_on,,1,0,14,,,,,,,,,,,,,,,,10,,74,72
13620,note_on,,1,0,15,,,,,,,,,,,,,,,,11,,78,72
13620,note_on,,1,0,10,,,,,,,,,,,,,,,,5,,74,72
13620,note_on,,1,0,17,,,,,,,,,,,,,,,,13,,62,72
13620,note_on,,0,0,18,,,,,,,,,,,,,,,,15,,66,72
13620,note_on,,301,0,13,,,,,,,,,,,,,,,,8,,62,72
13620,note_on,,1,0,5,,,,,,,,,,,,,,,,0,,74,72
13620,note_on,,1,0,16,,,,,,,,,,,,,,,,12,,69,72
13649,note_on,,29,0,17,,,,,,,,,,,,,,,,13,,62,0
13649,note_on,,29,0,13,,,,,,,,,,,,,,,,8,,62,0
13649,note_on,,29,0,16,,,,,,,,,,,,,,,,12,,69,0
13649,note_on,,29,0,6,,,,,,,,,,,,,,,,1,,62,0
13649,note_on,,29,0,18,,,,,,,,,,,,,,,,15,,62,0
13649,note_on,,0,0,18,,,,,,,,,,,,,,,,15,,69,0
13649,note_on,,0,0,18,,,,,,,,,,,,,,,,15,,66,0
13649,note_on,,29,0,15,,,,,,,,,,,,,,,,11,,78,0
13650,note_on,,0,0,18,,,,,,,,,,,,,,,,15,,69,72
13650,note_on,,1,0,18,,,,,,,,,,,,,,,,15,,62,72
13650,note_on,,1,0,6,,,,,,,,,,,,,,,,1,,62,72
13650,note_on,,1,0,17,,,,,,,,,,,,,,,,13,,62,72
13650,note_on,,1,0,15,,,,,,,,,,,,,,,,11,,78,72
13650,note_on,,1,0,16,,,,,,,,,,,,,,,,12,,69,72
13650,note_on,,1,0,13,,,,,,,,,,,,,,,,8,,62,72
13650,note_on,,0,0,18,,,,,,,,,,,,,,,,15,,66,72
13679,note_on,,59,0,14,,,,,,,,,,,,,,,,10,,74,0
13679,note_on,,59,0,10,,,,,,,,,,,,,,,,5,,74,0
13679,note_on,,29,0,16,,,,,,,,,,,,,,,,12,,69,0
13679,note_on,,239,0,11,,,,,,,,,,,,,,,,6,,62,0
13679,note_on,,29,0,15,,,,,,,,,,,,,,,,11,,78,0
13679,note_on,,29,0,6,,,,,,,,,,,,,,,,1,,62,0
13679,note_on,,0,0,18,,,,,,,,,,,,,,,,15,,69,0
13679,note_on,,29,0,18,,,,,,,,,,,,,,,,15,,62,0
13679,note_on,,59,0,5,,,,,,,,,,,,,,,,0,,74,0
13679,note_on,,29,0,17,,,,,,,,,,,,,,,,13,,62,0
13679,note_on,,29,0,13,,,,,,,,,,,,,,,,8,,62,0
13679,note_on,,0,0,18,,,,,,,,,,,,,,,,15,,66,0
13679,note_on,,239,0,7,,,,,,,,,,,,,,,,2,,74,0
13679,note_on,,239,0,12,,,,,,,,,,,,,,,,7,,62,0
13680,note_on,,1,0,11,,,,,,,,,,,,,,,,6,,64,72
13680,note_on,,1,0,13,,,,,,,,,,,,,,,,8,,61,72
13680,note_on,,1,0,17,,,,,,,,,,,,,,,,13,,61,72
13680,note_on,,0,0,18,,,,,,,,,,,,,,,,15,,64,72
13680,note_on,,0,0,18,,,,,,,,,,,,,,,,15,,69,72
13680,note_on,,1,0,18,,,,,,,,,,,,,,,,15,,61,72
13680,note_on,,1,0,12,,,,,,,,,,,,,,,,7,,64,72
13680,note_on,,1,0,7,,,,,,,,,,,,,,,,2,,76,72
13680,note_on,,1,0,16,,,,,,,,,,,,,,,,12,,64,72
13680,note_on,,1,0,6,,,,,,,,,,,,,,,,1,,61,72
13680,note_on,,1,0,15,,,,,,,,,,,,,,,,11,,81,72
13739,note_on,,0,0,18,,,,,,,,,,,,,,,,15,,69,0
13739,note_on,,59,0,6,,,,,,,,,,,,,,,,1,,61,0
13739,note_on,,59,0,17,,,,,,,,,,,,,,,,13,,61,0
13739,note_on,,0,0,18,,,,,,,,,,,,,,,,15,,64,0
13739,note_on,,59,0,13,,,,,,,,,,,,,,,,8,,61,0
13739,note_on,,59,0,15,,,,,,,,,,,,,,,,11,,81,0
13739,note_on,,59,0,18,,,,,,,,,,,,,,,,15,,61,0
13739,note_on,,59,0,16,,,,,,,,,,,,,,,,12,,64,0
13740,note_on,,1,0,13,,,,,,,,,,,,,,,,8,,57,72
13740,note_on,,1,0,15,,,,,,,,,,,,,,,,11,,76,72
13740,note_on,,1,0,6,,,,,,,,,,,,,,,,1,,57,72
13740,note_on,,61,0,5,,,,,,,,,,,,,,,,0,,73,72
13740,note_on,,61,0,14,,,,,,,,,,,,,,,,10,,85,72
13740,note_on,,61,0,10,,,,,,,,,,,,,,,,5,,73,72
13740,note_on,,0,0,18,,,,,,,,,,,,,,,,15,,73,72
13740,note_on,,0,0,18,,,,,,,,,,,,,,,,15,,64,72
13740,note_on,,0,0,18,,,,,,,,,,,,,,,,15,,69,72
13740,note_on,,1,0,16,,,,,,,,,,,,,,,,12,,69,72
13740,note_on,,1,0,17,,,,,,,,,,,,,,,,13,,57,72
13740,note_on,,1,0,18,,,,,,,,,,,,,,,,15,,57,72
13769,note_on,,29,0,16,,,,,,,,,,,,,,,,12,,69,0
13769,note_on,,29,0,10,,,,,,,,,,,,,,,,5,,73,0
13769,note_on,,29,0,14,,,,,,,,,,,,,,,,10,,85,0
13769,note_on,,29,0,15,,,,,,,,,,,,,,,,11,,76,0
13769,note_on,,29,0,5,,,,,,,,,,,,,,,,0,,73,0
13770,note_on,,1,0,16,,,,,,,,,,,,,,,,12,,69,72
13770,note_on,,1,0,5,,,,,,,,,,,,,,,,0,,73,72
13770,note_on,,1,0,10,,,,,,,,,,,,,,,,5,,73,72
13770,note_on,,1,0,15,,,,,,,,,,,,,,,,11,,76,72
13770,note_on,,1,0,14,,,,,,,,,,,,,,,,10,,85,72
13799,note_on,,29,0,5,,,,,,,,,,,,,,,,0,,73,0
13799,note_on,,29,0,10,,,,,,,,,,,,,,,,5,,73,0
13799,note_on,,119,0,11,,,,,,,,,,,,,,,,6,,64,0
13799,note_on,,59,0,17,,,,,,,,,,,,,,,,13,,57,0
13799,note_on,,59,0,13,,,,,,,,,,,,,,,,8,,57,0
13799,note_on,,119,0,7,,,,,,,,,,,,,,,,2,,76,0
13799,note_on,,59,0,18,,,,,,,,,,,,,,,,15,,57,0
13799,note_on,,0,0,18,,,,,,,,,,,,,,,,15,,73,0
13799,note_on,,29,0,15,,,,,,,,,,,,,,,,11,,76,0
13799,note_on,,29,0,14,,,,,,,,,,,,,,,,10,,85,0
13799,note_on,,59,0,6,,,,,,,,,,,,,,,,1,,57,0
13799,note_on,,0,0,18,,,,,,,,,,,,,,,,15,,64,0
13799,note_on,,0,0,18,,,,,,,,,,,,,,,,15,,69,0
13799,note_on,,119,0,12,,,,,,,,,,,,,,,,7,,64,0
13799,note_on,,29,0,16,,,,,,,,,,,,,,,,12,,69,0
13800,note_on,,1,0,15,,,,,,,,,,,,,,,,11,,69,72
13800,note_on,,1,0,14,,,,,,,,,,,,,,,,10,,86,72
13800,note_on,,1,0,12,,,,,,,,,,,,,,,,7,,66,72
13800,note_on,,1,0,7,,,,,,,,,,,,,,,,2,,78,72
13800,note_on,,1,0,11,,,,,,,,,,,,,,,,6,,66,72
13800,note_on,,1,0,5,,,,,,,,,,,,,,,,0,,74,72
13800,note_on,,1,0,10,,,,,,,,,,,,,,,,5,,74,72
13800,note_on,,1,0,16,,,,,,,,,,,,,,,,12,,66,72
13859,note_on,,59,0,15,,,,,,,,,,,,,,,,11,,69,0
13859,note_on,,59,0,14,,,,,,,,,,,,,,,,10,,86,0
13859,note_on,,59,0,16,,,,,,,,,,,,,,,,12,,66,0
13859,note_on,,59,0,10,,,,,,,,,,,,,,,,5,,74,0
13859,note_on,,59,0,5,,,,,,,,,,,,,,,,0,,74,0
13860,note_on,,0,0,18,,,,,,,,,,,,,,,,15,,74,72
13860,note_on,,1,0,16,,,,,,,,,,,,,,,,12,,66,72
13860,note_on,,1,0,15,,,,,,,,,,,,,,,,11,,74,72
13860,note_on,,61,0,6,,,,,,,,,,,,,,,,1,,62,72
13860,note_on,,1,0,14,,,,,,,,,,,,,,,,10,,81,72
13860,note_on,,61,0,18,,,,,,,,,,,,,,,,15,,62,72
13860,note_on,,61,0,13,,,,,,,,,,,,,,,,8,,62,72
13860,note_on,,1,0,10,,,,,,,,,,,,,,,,5,,69,72
13860,note_on,,0,0,18,,,,,,,,,,,,,,,,15,,66,72
13860,note_on,,1,0,5,,,,,,,,,,,,,,,,0,,69,72
13860,note_on,,0,0,18,,,,,,,,,,,,,,,,15,,69,72
13860,note_on,,61,0,17,,,,,,,,,,,,,,,,13,,62,72
13889,note_on,,29,0,17,,,,,,,,,,,,,,,,13,,62,0
13889,note_on,,29,0,13,,,,,,,,,,,,,,,,8,,62,0
13889,note_on,,0,0,18,,,,,,,,,,,,,,,,15,,69,0
13889,note_on,,0,0,18,,,,,,,,,,,,,,,,15,,74,0
13889,note_on,,29,0,16,,,,,,,,,,,,,,,,12,,66,0
13889,note_on,,0,0,18,,,,,,,,,,,,,,,,15,,66,0
13889,note_on,,29,0,15,,,,,,,,,,,,,,,,11,,74,0
13889,note_on,,29,0,6,,,,,,,,,,,,,,,,1,,62,0
13889,note_on,,29,0,18,,,,,,,,,,,,,,,,15,,62,0
13890,note_on,,1,0,6,,,,,,,,,,,,,,,,1,,62,72
13890,note_on,,0,0,18,,,,,,,,,,,,,,,,15,,74,72
13890,note_on,,0,0,18,,,,,,,,,,,,,,,,15,,69,72
13890,note_on,,1,0,16,,,,,,,,,,,,,,,,12,,66,72
13890,note_on,,1,0,13,,,,,,,,,,,,,,,,8,,62,72
13890,note_on,,0,0,18,,,,,,,,,,,,,,,,15,,66,72
13890,note_on,,1,0,17,,,,,,,,,,,,,,,,13,,62,72
13890,note_on,,1,0,15,,,,,,,,,,,,,,,,11,,74,72
13890,note_on,,1,0,18,,,,,,,,,,,,,,,,15,,62,72
13919,note_on,,29,0,13,,,,,,,,,,,,,,,,8,,62,0
13919,note_on,,59,0,10,,,,,,,,,,,,,,,,5,,69,0
13919,note_on,,29,0,6,,,,,,,,,,,,,,,,1,,62,0
13919,note_on,,29,0,15,,,,,,,,,,,,,,,,11,,74,0
13919,note_on,,59,0,5,,,,,,,,,,,,,,,,0,,69,0
13919,note_on,,29,0,18,,,,,,,,,,,,,,,,15,,62,0
13919,note_on,,59,0,14,,,,,,,,,,,,,,,,10,,81,0
13919,note_on,,0,0,18,,,,,,,,,,,,,,,,15,,74,0
13919,note_on,,0,0,18,,,,,,,,,,,,,,,,15,,66,0
13919,note_on,,29,0,16,,,,,,,,,,,,,,,,12,,66,0
13919,note_on,,119,0,11,,,,,,,,,,,,,,,,6,,66,0
13919,note_on,,119,0,7,,,,,,,,,,,,,,,,2,,78,0
13919,note_on,,29,0,17,,,,,,,,,,,,,,,,13,,62,0
13919,note_on,,119,0,12,,,,,,,,,,,,,,,,7,,66,0
13919,note_on,,0,0,18,,,,,,,,,,,,,,,,15,,69,0
13920,note_on,,0,0,18,,,,,,,,,,,,,,,,15,,74,72
13920,note_on,,1,0,13,,,,,,,,,,,,,,,,8,,59,72
13920,note_on,,0,0,18,,,,,,,,,,,,,,,,15,,67,72
13920,note_on,,1,0,17,,,,,,,,,,,,,,,,13,,59,72
13920,note_on,,1,0,15,,,,,,,,,,,,,,,,11,,79,72
13920,note_on,,0,0,18,,,,,,,,,,,,,,,,15,,62,72
13920,note_on,,1,0,14,,,,,,,,,,,,,,,,10,,74,72
13920,note_on,,1,0,18,,,,,,,,,,,,,,,,15,,59,72
13920,note_on,,1,0,7,,,,,,,,,,,,,,,,2,,79,72
13920,note_on,,1,0,11,,,,,,,,,,,,,,,,6,,67,72
13920,note_on,,1,0,6,,,,,,,,,,,,,,,,1,,59,72
13920,note_on,,1,0,12,,,,,,,,,,,,,,,,7,,67,72
13920,note_on,,1,0,16,,,,,,,,,,,,,,,,12,,62,72
13979,note_on,,0,0,18,,,,,,,,,,,,,,,,15,,74,0
13979,note_on,,59,0,17,,,,,,,,,,,,,,,,13,,59,0
13979,note_on,,59,0,13,,,,,,,,,,,,,,,,8,,59,0
13979,note_on,,59,0,14,,,,,,,,,,,,,,,,10,,74,0
13979,note_on,,59,0,11,,,,,,,,,,,,,,,,6,,67,0
13979,note_on,,59,0,6,,,,,,,,,,,,,,,,1,,59,0
13979,note_on,,59,0,16,,,,,,,,,,,,,,,,12,,62,0
13979,note_on,,0,0,18,,,,,,,,,,,,,,,,15,,62,0
13979,note_on,,0,0,18,,,,,,,,,,,,,,,,15,,67,0
13979,note_on,,59,0,15,,,,,,,,,,,,,,,,11,,79,0
13979,note_on,,59,0,12,,,,,,,,,,,,,,,,7,,67,0
13979,note_on,,59,0,18,,,,,,,,,,,,,,,,15,,59,0
13980,note_on,,0,0,18,,,,,,,,,,,,,,,,15,,79,72
13980,note_on,,0,0,18,,,,,,,,,,,,,,,,15,,59,72
13980,note_on,,1,0,18,,,,,,,,,,,,,,,,15,,55,72
13980,note_on,,0,0,18,,,,,,,,,,,,,,,,15,,74,72
13980,note_on,,0,0,18,,,,,,,,,,,,,,,,15,,71,72
13980,note_on,,1,0,17,,,,,,,,,,,,,,,,13,,55,72
13980,note_on,,1,0,13,,,,,,,,,,,,,,,,8,,55,72
13980,note_on,,1,0,11,,,,,,,,,,,,,,,,6,,55,72
13980,note_on,,1,0,6,,,,,,,,,,,,,,,,1,,55,72
13980,note_on,,1,0,15,,,,,,,,,,,,,,,,11,,74,72
13980,note_on,,61,0,5,,,,,,,,,,,,,,,,0,,71,72
13980,note_on,,1,0,14,,,,,,,,,,,,,,,,10,,71,72
13980,note_on,,1,0,12,,,,,,,,,,,,,,,,7,,55,72
13980,note_on,,1,0,16,,,,,,,,,,,,,,,,12,,62,72
13980,note_on,,61,0,10,,,,,,,,,,,,,,,,5,,71,72
14009,note_on,,29,0,15,,,,,,,,,,,,,,,,11,,74,0
14009,note_on,,29,0,16,,,,,,,,,,,,,,,,12,,62,0
14009,note_on,,29,0,5,,,,,,,,,,,,,,,,0,,71,0
14009,note_on,,29,0,14,,,,,,,,,,,,,,,,10,,71,0
14009,note_on,,29,0,10,,,,,,,,,,,,,,,,5,,71,0
14010,note_on,,1,0,5,,,,,,,,,,,,,,,,0,,71,72
14010,note_on,,1,0,10,,,,,,,,,,,,,,,,5,,71,72
14010,note_on,,1,0,15,,,,,,,,,,,,,,,,11,,74,72
14010,note_on,,1,0,14,,,,,,,,,,,,,,,,10,,71,72
14010,note_on,,1,0,16,,,,,,,,,,,,,,,,12,,62,72
14039,note_on,,0,0,18,,,,,,,,,,,,,,,,15,,59,0
14039,note_on,,0,0,18,,,,,,,,,,,,,,,,15,,79,0
14039,note_on,,0,0,18,,,,,,,,,,,,,,,,15,,74,0
14039,note_on,,0,0,18,,,,,,,,,,,,,,,,15,,71,0
14039,note_on,,59,0,12,,,,,,,,,,,,,,,,7,,55,0
14039,note_on,,59,0,18,,,,,,,,,,,,,,,,15,,55,0
14039,note_on,,59,0,11,,,,,,,,,,,,,,,,6,,55,0
14039,note_on,,29,0,16,,,,,,,,,,,,,,,,12,,62,0
14039,note_on,,29,0,15,,,,,,,,,,,,,,,,11,,74,0
14039,note_on,,59,0,17,,,,,,,,,,,,,,,,13,,55,0
14039,note_on,,59,0,6,,,,,,,,,,,,,,,,1,,55,0
14039,note_on,,29,0,10,,,,,,,,,,,,,,,,5,,71,0
14039,note_on,,29,0,5,,,,,,,,,,,,,,,,0,,71,0
14039,note_on,,29,0,14,,,,,,,,,,,,,,,,10,,71,0
14039,note_on,,59,0,13,,,,,,,,,,,,,,,,8,,55,0
14039,note_on,,119,0,7,,,,,,,,,,,,,,,,2,,79,0
14040,note_on,,1,0,7,,,,,,,,,,,,,,,,2,,79,72
14040,note_on,,1,0,12,,,,,,,,,,,,,,,,7,,67,72
14040,note_on,,1,0,15,,,,,,,,,,,,,,,,11,,71,72
14040,note_on,,1,0,5,,,,,,,,,,,,,,,,0,,76,72
14040,note_on,,1,0,10,,,,,,,,,,,,,,,,5,,76,72
14040,note_on,,1,0,11,,,,,,,,,,,,,,,,6,,67,72
14040,note_on,,1,0,16,,,,,,,,,,,,,,,,12,,67,72
14040,note_on,,1,0,14,,,,,,,,,,,,,,,,10,,76,72
14099,note_on,,59,0,14,,,,,,,,,,,,,,,,10,,76,0
14099,note_on,,59,0,5,,,,,,,,,,,,,,,,0,,76,0
14099,note_on,,59,0,15,,,,,,,,,,,,,,,,11,,71,0
14099,note_on,,59,0,16,,,,,,,,,,,,,,,,12,,67,0
14099,note_on,,59,0,10,,,,,,,,,,,,,,,,5,,76,0
14100,note_on,,1,0,5,,,,,,,,,,,,,,,,0,,76,72
14100,note_on,,1,0,14,,,,,,,,,,,,,,,,10,,76,72
14100,note_on,,61,0,6,,,,,,,,,,,,,,,,1,,52,72
14100,note_on,,61,0,17,,,,,,,,,,,,,,,,13,,52,72
14100,note_on,,61,0,18,,,,,,,,,,,,,,,,15,,52,72
14100,note_on,,61,0,13,,,,,,,,,,,,,,,,8,,52,72
14100,note_on,,0,0,18,,,,,,,,,,,,,,,,15,,74,72
14100,note_on,,0,0,18,,,,,,,,,,,,,,,,15,,71,72
14100,note_on,,1,0,10,,,,,,,,,,,,,,,,5,,76,72
14100,note_on,,0,0,18,,,,,,,,,,,,,,,,15,,79,72
14100,note_on,,1,0,16,,,,,,,,,,,,,,,,12,,67,72
14100,note_on,,1,0,15,,,,,,,,,,,,,,,,11,,67,72
14100,note_on,,0,0,18,,,,,,,,,,,,,,,,15,,59,72
14129,note_on,,29,0,17,,,,,,,,,,,,,,,,13,,52,0
14129,note_on,,29,0,6,,,,,,,,,,,,,,,,1,,52,0
14129,note_on,,0,0,18,,,,,,,,,,,,,,,,15,,59,0
14129,note_on,,29,0,18,,,,,,,,,,,,,,,,15,,52,0
14129,note_on,,29,0,15,,,,,,,,,,,,,,,,11,,67,0
14129,note_on,,29,0,13,,,,,,,,,,,,,,,,8,,52,0
14129,note_on,,29,0,16,,,,,,,,,,,,,,,,12,,67,0
14130,note_on,,1,0,16,,,,,,,,,,,,,,,,12,,67,72
14130,note_on,,1,0,13,,,,,,,,,,,,,,,,8,,52,72
14130,note_on,,1,0,15,,,,,,,,,,,,,,,,11,,67,72
14130,note_on,,0,0,18,,,,,,,,,,,,,,,,15,,59,72
14130,note_on,,1,0,17,,,,,,,,,,,,,,,,13,,52,72
14130,note_on,,1,0,6,,,,,,,,,,,,,,,,1,,52,72
14130,note_on,,1,0,18,,,,,,,,,,,,,,,,15,,52,72
14159,note_on,,29,0,15,,,,,,,,,,,,,,,,11,,67,0
14159,note_on,,29,0,16,,,,,,,,,,,,,,,,12,,67,0
14159,note_on,,29,0,17,,,,,,,,,,,,,,,,13,,52,0
14159,note_on,,29,0,6,,,,,,,,,,,,,,,,1,,52,0
14159,note_on,,59,0,14,,,,,,,,,,,,,,,,10,,76,0
14159,note_on,,59,0,10,,,,,,,,,,,,,,,,5,,76,0
14159,note_on,,0,0,18,,,,,,,,,,,,,,,,15,,59,0
14159,note_on,,59,0,5,,,,,,,,,,,,,,,,0,,76,0
14159,note_on,,29,0,18,,,,,,,,,,,,,,,,15,,74,0
14159,note_on,,0,0,18,,,,,,,,,,,,,,,,15,,71,0
14159,note_on,,29,0,13,,,,,,,,,,,,,,,,8,,52,0
14159,note_on,,0,0,18,,,,,,,,,,,,,,,,15,,52,0
14160,note_on,,0,0,18,,,,,,,,,,,,,,,,15,,76,72
14160,note_on,,1,0,17,,,,,,,,,,,,,,,,13,,57,72
14160,note_on,,0,0,18,,,,,,,,,,,,,,,,15,,61,72
14160,note_on,,1,0,18,,,,,,,,,,,,,,,,15,,57,72
14160,note_on,,1,0,6,,,,,,,,,,,,,,,,1,,57,72
14160,note_on,,1,0,15,,,,,,,,,,,,,,,,11,,64,72
14160,note_on,,1,0,16,,,,,,,,,,,,,,,,12,,61,72
14160,note_on,,1,0,13,,,,,,,,,,,,,,,,8,,57,72
14160,note_on,,0,0,18,,,,,,,,,,,,,,,,15,,69,72
14219,note_on,,179,0,11,,,,,,,,,,,,,,,,6,,67,0
14219,note_on,,59,0,17,,,,,,,,,,,,,,,,13,,57,0
14219,note_on,,179,0,12,,,,,,,,,,,,,,,,7,,67,0
14219,note_on,,59,0,16,,,,,,,,,,,,,,,,12,,61,0
14219,note_on,,0,0,18,,,,,,,,,,,,,,,,15,,69,0
14219,note_on,,59,0,15,,,,,,,,,,,,,,,,11,,64,0
14219,note_on,,59,0,13,,,,,,,,,,,,,,,,8,,57,0
14219,note_on,,59,0,18,,,,,,,,,,,,,,,,15,,79,0
14219,note_on,,0,0,18,,,,,,,,,,,,,,,,15,,61,0
14219,note_on,,0,0,18,,,,,,,,,,,,,,,,15,,76,0
14219,note_on,,0,0,18,,,,,,,,,,,,,,,,15,,57,0
14219,note_on,,59,0,6,,,,,,,,,,,,,,,,1,,57,0
14220,note_on,,1,0,16,,,,,,,,,,,,,,,,12,,69,72
14220,note_on,,61,0,14,,,,,,,,,,,,,,,,10,,85,72
14220,note_on,,1,0,12,,,,,,,,,,,,,,,,7,,67,72
14220,note_on,,1,0,6,,,,,,,,,,,,,,,,1,,57,72
14220,note_on,,61,0,10,,,,,,,,,,,,,,,,5,,73,72
14220,note_on,,1,0,18,,,,,,,,,,,,,,,,15,,57,72
14220,note_on,,1,0,11,,,,,,,,,,,,,,,,6,,67,72
14220,note_on,,0,0,18,,,,,,,,,,,,,,,,15,,61,72
14220,note_on,,0,0,18,,,,,,,,,,,,,,,,15,,69,72
14220,note_on,,61,0,5,,,,,,,,,,,,,,,,0,,73,72
14220,note_on,,1,0,15,,,,,,,,,,,,,,,,11,,76,72
14220,note_on,,1,0,17,,,,,,,,,,,,,,,,13,,57,72
14220,note_on,,0,0,18,,,,,,,,,,,,,,,,15,,76,72
14220,note_on,,1,0,13,,,,,,,,,,,,,,,,8,,57,72
14249,note_on,,29,0,16,,,,,,,,,,,,,,,,12,,69,0
14249,note_on,,29,0,15,,,,,,,,,,,,,,,,11,,76,0
14249,note_on,,29,0,14,,,,,,,,,,,,,,,,10,,85,0
14249,note_on,,29,0,5,,,,,,,,,,,,,,,,0,,73,0
14249,note_on,,29,0,10,,,,,,,,,,,,,,,,5,,73,0
14250,note_on,,1,0,10,,,,,,,,,,,,,,,,5,,73,72
14250,note_on,,1,0,16,,,,,,,,,,,,,,,,12,,69,72
14250,note_on,,1,0,15,,,,,,,,,,,,,,,,11,,76,72
14250,note_on,,1,0,5,,,,,,,,,,,,,,,,0,,73,72
14250,note_on,,1,0,14,,,,,,,,,,,,,,,,10,,85,72
14279,note_on,,29,0,10,,,,,,,,,,,,,,,,5,,73,0
14279,note_on,,29,0,5,,,,,,,,,,,,,,,,0,,73,0
14279,note_on,,59,0,13,,,,,,,,,,,,,,,,8,,57,0
14279,note_on,,59,0,6,,,,,,,,,,,,,,,,1,,57,0
14279,note_on,,0,0,18,,,,,,,,,,,,,,,,15,,69,0
14279,note_on,,0,0,18,,,,,,,,,,,,,,,,15,,61,0
14279,note_on,,29,0,14,,,,,,,,,,,,,,,,10,,85,0
14279,note_on,,59,0,18,,,,,,,,,,,,,,,,15,,57,0
14279,note_on,,59,0,17,,,,,,,,,,,,,,,,13,,57,0
14279,note_on,,29,0,15,,,,,,,,,,,,,,,,11,,76,0
14279,note_on,,239,0,7,,,,,,,,,,,,,,,,2,,79,0
14279,note_on,,59,0,11,,,,,,,,,,,,,,,,6,,67,0
14279,note_on,,29,0,16,,,,,,,,,,,,,,,,12,,69,0
14279,note_on,,59,0,12,,,,,,,,,,,,,,,,7,,67,0
14279,note_on,,0,0,18,,,,,,,,,,,,,,,,15,,76,0
14280,note_on,,1,0,5,,,,,,,,,,,,,,,,0,,74,72
14280,note_on,,1,0,15,,,,,,,,,,,,,,,,11,,78,72
14280,note_on,,1,0,7,,,,,,,,,,,,,,,,2,,78,72
14280,note_on,,1,0,11,,,,,,,,,,,,,,,,6,,66,72
14280,note_on,,1,0,16,,,,,,,,,,,,,,,,12,,74,72
14280,note_on,,1,0,10,,,,,,,,,,,,,,,,5,,74,72
14280,note_on,,1,0,14,,,,,,,,,,,,,,,,10,,86,72
14280,note_on,,1,0,12,,,,,,,,,,,,,,,,7,,66,72
14339,note_on,,59,0,16,,,,,,,,,,,,,,,,12,,74,0
14339,note_on,,59,0,10,,,,,,,,,,,,,,,,5,,74,0
14339,note_on,,59,0,15,,,,,,,,,,,,,,,,11,,78,0
14339,note_on,,59,0,5,,,,,,,,,,,,,,,,0,,74,0
14339,note_on,,59,0,14,,,,,,,,,,,,,,,,10,,86,0
14340,note_on,,61,0,6,,,,,,,,,,,,,,,,1,,59,72
14340,note_on,,1,0,16,,,,,,,,,,,,,,,,12,,66,72
14340,note_on,,1,0,14,,,,,,,,,,,,,,,,10,,86,72
14340,note_on,,61,0,13,,,,,,,,,,,,,,,,8,,59,72
14340,note_on,,61,0,17,,,,,,,,,,,,,,,,13,,59,72
14340,note_on,,1,0,15,,,,,,,,,,,,,,,,11,,74,72
14340,note_on,,0,0,18,,,,,,,,,,,,,,,,15,,62,72
14340,note_on,,0,0,18,,,,,,,,,,,,,,,,15,,74,72
14340,note_on,,61,0,18,,,,,,,,,,,,,,,,15,,59,72
14340,note_on,,1,0,10,,,,,,,,,,,,,,,,5,,74,72
14340,note_on,,0,0,18,,,,,,,,,,,,,,,,15,,71,72
14340,note_on,,1,0,5,,,,,,,,,,,,,,,,0,,74,72
14340,note_on,,0,0,18,,,,,,,,,,,,,,,,15,,66,72
14369,note_on,,29,0,6,,,,,,,,,,,,,,,,1,,59,0
14369,note_on,,29,0,16,,,,,,,,,,,,,,,,12,,66,0
14369,note_on,,29,0,18,,,,,,,,,,,,,,,,15,,59,0
14369,note_on,,0,0,18,,,,,,,,,,,,,,,,15,,62,0
14369,note_on,,29,0,17,,,,,,,,,,,,,,,,13,,59,0
14369,note_on,,29,0,13,,,,,,,,,,,,,,,,8,,59,0
14369,note_on,,29,0,15,,,,,,,,,,,,,,,,11,,74,0
14370,note_on,,1,0,6,,,,,,,,,,,,,,,,1,,59,72
14370,note_on,,1,0,18,,,,,,,,,,,,,,,,15,,59,72
14370,note_on,,1,0,15,,,,,,,,,,,,,,,,11,,74,72
14370,note_on,,0,0,18,,,,,,,,,,,,,,,,15,,62,72
14370,note_on,,1,0,13,,,,,,,,,,,,,,,,8,,59,72
14370,note_on,,1,0,16,,,,,,,,,,,,,,,,12,,62,72
14370,note_on,,1,0,17,,,,,,,,,,,,,,,,13,,59,72
14399,note_on,,29,0,17,,,,,,,,,,,,,,,,13,,59,0
14399,note_on,,59,0,14,,,,,,,,,,,,,,,,10,,86,0
14399,note_on,,29,0,16,,,,,,,,,,,,,,,,12,,62,0
14399,note_on,,59,0,10,,,,,,,,,,,,,,,,5,,74,0
14399,note_on,,119,0,11,,,,,,,,,,,,,,,,6,,66,0
14399,note_on,,0,0,18,,,,,,,,,,,,,,,,15,,59,0
14399,note_on,,0,0,18,,,,,,,,,,,,,,,,15,,66,0
14399,note_on,,0,0,18,,,,,,,,,,,,,,,,15,,71,0
14399,note_on,,119,0,12,,,,,,,,,,,,,,,,7,,66,0
14399,note_on,,29,0,18,,,,,,,,,,,,,,,,15,,74,0
14399,note_on,,29,0,13,,,,,,,,,,,,,,,,8,,59,0
14399,note_on,,29,0,6,,,,,,,,,,,,,,,,1,,59,0
14399,note_on,,119,0,7,,,,,,,,,,,,,,,,2,,78,0
14399,note_on,,59,0,5,,,,,,,,,,,,,,,,0,,74,0
14399,note_on,,29,0,15,,,,,,,,,,,,,,,,11,,74,0
14399,note_on,,0,0,18,,,,,,,,,,,,,,,,15,,62,0
14400,note_on,,1,0,10,,,,,,,,,,,,,,,,5,,74,72
14400,note_on,,1,0,17,,,,,,,,,,,,,,,,13,,55,72
14400,note_on,,1,0,7,,,,,,,,,,,,,,,,2,,76,72
14400,note_on,,1,0,13,,,,,,,,,,,,,,,,8,,55,72
14400,note_on,,1,0,18,,,,,,,,,,,,,,,,15,,55,72
14400,note_on,,1,0,16,,,,,,,,,,,,,,,,12,,64,72
14400,note_on,,1,0,14,,,,,,,,,,,,,,,,10,,86,72
14400,note_on,,0,0,18,,,,,,,,,,,,,,,,15,,59,72
14400,note_on,,0,0,18,,,,,,,,,,,,,,,,15,,67,72
14400,note_on,,1,0,12,,,,,,,,,,,,,,,,7,,64,72
14400,note_on,,0,0,18,,,,,,,,,,,,,,,,15,,71,72
14400,note_on,,1,0,11,,,,,,,,,,,,,,,,6,,64,72
14400,note_on,,0,0,18,,,,,,,,,,,,,,,,15,,74,72
14400,note_on,,1,0,6,,,,,,,,,,,,,,,,1,,55,72
14400,note_on,,1,0,5,,,,,,,,,,,,,,,,0,,74,72
14400,note_on,,1,0,15,,,,,,,,,,,,,,,,11,,83,72
14459,note_on,,59,0,18,,,,,,,,,,,,,,,,15,,55,0
14459,note_on,,59,0,15,,,,,,,,,,,,,,,,11,,83,0
14459,note_on,,59,0,17,,,,,,,,,,,,,,,,13,,55,0
14459,note_on,,59,0,16,,,,,,,,,,,,,,,,12,,64,0
14459,note_on,,59,0,14,,,,,,,,,,,,,,,,10,,86,0
14459,note_on,,59,0,13,,,,,,,,,,,,,,,,8,,55,0
14459,note_on,,59,0,6,,,,,,,,,,,,,,,,1,,55,0
14460,note_on,,1,0,15,,,,,,,,,,,,,,,,11,,79,72
14460,note_on,,1,0,16,,,,,,,,,,,,,,,,12,,71,72
14460,note_on,,1,0,14,,,,,,,,,,,,,,,,10,,86,72
14460,note_on,,1,0,18,,,,,,,,,,,,,,,,15,,52,72
14460,note_on,,1,0,17,,,,,,,,,,,,,,,,13,,52,72
14460,note_on,,1,0,6,,,,,,,,,,,,,,,,1,,52,72
14460,note_on,,1,0,13,,,,,,,,,,,,,,,,8,,52,72
14519,note_on,,59,0,6,,,,,,,,,,,,,,,,1,,52,0
14519,note_on,,59,0,16,,,,,,,,,,,,,,,,12,,71,0
14519,note_on,,59,0,18,,,,,,,,,,,,,,,,15,,74,0
14519,note_on,,0,0,18,,,,,,,,,,,,,,,,15,,71,0
14519,note_on,,0,0,18,,,,,,,,,,,,,,,,15,,67,0
14519,note_on,,0,0,18,,,,,,,,,,,,,,,,15,,59,0
14519,note_on,,59,0,15,,,,,,,,,,,,,,,,11,,79,0
14519,note_on,,0,0,18,,,,,,,,,,,,,,,,15,,52,0
14519,note_on,,119,0,10,,,,,,,,,,,,,,,,5,,74,0
14519,note_on,,59,0,14,,,,,,,,,,,,,,,,10,,86,0
14519,note_on,,59,0,17,,,,,,,,,,,,,,,,13,,52,0
14519,note_on,,119,0,5,,,,,,,,,,,,,,,,0,,74,0
14519,note_on,,59,0,13,,,,,,,,,,,,,,,,8,,52,0
14520,note_on,,1,0,18,,,,,,,,,,,,,,,,15,,57,72
14520,note_on,,1,0,6,,,,,,,,,,,,,,,,1,,57,72
14520,note_on,,1,0,17,,,,,,,,,,,,,,,,13,,57,72
14520,note_on,,1,0,5,,,,,,,,,,,,,,,,0,,73,72
14520,note_on,,0,0,18,,,,,,,,,,,,,,,,15,,69,72
14520,note_on,,0,0,18,,,,,,,,,,,,,,,,15,,64,72
14520,note_on,,0,0,18,,,,,,,,,,,,,,,,15,,73,72
14520,note_on,,0,0,18,,,,,,,,,,,,,,,,15,,61,72
14520,note_on,,1,0,10,,,,,,,,,,,,,,,,5,,73,72
14520,note_on,,1,0,13,,,,,,,,,,,,,,,,8,,57,72
14520,note_on,,1,0,14,,,,,,,,,,,,,,,,10,,85,72
14520,note_on,,1,0,16,,,,,,,,,,,,,,,,12,,61,72
14520,note_on,,1,0,15,,,,,,,,,,,,,,,,11,,76,72
14579,note_on,,59,0,16,,,,,,,,,,,,,,,,12,,61,0
14580,note_on,,1,0,16,,,,,,,,,,,,,,,,12,,69,72
14609,note_on,,89,0,18,,,,,,,,,,,,,,,,15,,57,0
14609,note_on,,89,0,15,,,,,,,,,,,,,,,,11,,76,0
14609,note_on,,89,0,14,,,,,,,,,,,,,,,,10,,85,0
14609,note_on,,89,0,17,,,,,,,,,,,,,,,,13,,57,0
14609,note_on,,89,0,13,,,,,,,,,,,,,,,,8,,57,0
14609,note_on,,89,0,6,,,,,,,,,,,,,,,,1,,57,0
14610,note_on,,1,0,14,,,,,,,,,,,,,,,,10,,85,72
14610,note_on,,1,0,18,,,,,,,,,,,,,,,,15,,55,72
14610,note_on,,1,0,6,,,,,,,,,,,,,,,,1,,55,72
14610,note_on,,1,0,17,,,,,,,,,,,,,,,,13,,55,72
14610,note_on,,1,0,13,,,,,,,,,,,,,,,,8,,55,72
14610,note_on,,1,0,15,,,,,,,,,,,,,,,,11,,76,72
14639,note_on,,0,0,18,,,,,,,,,,,,,,,,15,,73,0
14639,note_on,,0,0,18,,,,,,,,,,,,,,,,15,,69,0
14639,note_on,,29,0,18,,,,,,,,,,,,,,,,15,,61,0
14639,note_on,,239,0,7,,,,,,,,,,,,,,,,2,,76,0
14639,note_on,,0,0,18,,,,,,,,,,,,,,,,15,,64,0
14639,note_on,,29,0,6,,,,,,,,,,,,,,,,1,,55,0
14639,note_on,,59,0,16,,,,,,,,,,,,,,,,12,,69,0
14639,note_on,,239,0,11,,,,,,,,,,,,,,,,6,,64,0
14639,note_on,,239,0,12,,,,,,,,,,,,,,,,7,,64,0
14639,note_on,,29,0,13,,,,,,,,,,,,,,,,8,,55,0
14639,note_on,,29,0,14,,,,,,,,,,,,,,,,10,,85,0
14639,note_on,,29,0,17,,,,,,,,,,,,,,,,13,,55,0
14639,note_on,,0,0,18,,,,,,,,,,,,,,,,15,,55,0
14639,note_on,,119,0,5,,,,,,,,,,,,,,,,0,,73,0
14639,note_on,,119,0,10,,,,,,,,,,,,,,,,5,,73,0
14639,note_on,,29,0,15,,,,,,,,,,,,,,,,11,,76,0
14640,note_on,,1,0,12,,,,,,,,,,,,,,,,7,,62,72
14640,note_on,,1,0,6,,,,,,,,,,,,,,,,1,,54,72
14640,note_on,,1,0,17,,,,,,,,,,,,,,,,13,,54,72
14640,note_on,,1,0,10,,,,,,,,,,,,,,,,5,,74,72
14640,note_on,,1,0,13,,,,,,,,,,,,,,,,8,,54,72
14640,note_on,,1,0,14,,,,,,,,,,,,,,,,10,,86,72
14640,note_on,,1,0,15,,,,,,,,,,,,,,,,11,,81,72
14640,note_on,,1,0,5,,,,,,,,,,,,,,,,0,,74,72
14640,note_on,,1,0,18,,,,,,,,,,,,,,,,15,,54,72
14640,note_on,,0,0,18,,,,,,,,,,,,,,,,15,,57,72
14640,note_on,,0,0,18,,,,,,,,,,,,,,,,15,,74,72
14640,note_on,,0,0,18,,,,,,,,,,,,,,,,15,,69,72
14640,note_on,,0,0,18,,,,,,,,,,,,,,,,15,,62,72
14640,note_on,,1,0,7,,,,,,,,,,,,,,,,2,,74,72
14640,note_on,,1,0,11,,,,,,,,,,,,,,,,6,,62,72
14640,note_on,,1,0,16,,,,,,,,,,,,,,,,12,,69,72
14699,note_on,,59,0,11,,,,,,,,,,,,,,,,6,,62,0
14699,note_on,,59,0,16,,,,,,,,,,,,,,,,12,,69,0
14699,note_on,,59,0,15,,,,,,,,,,,,,,,,11,,81,0
14699,note_on,,59,0,14,,,,,,,,,,,,,,,,10,,86,0
14700,note_on,,1,0,16,,,,,,,,,,,,,,,,12,,66,72
14700,note_on,,1,0,14,,,,,,,,,,,,,,,,10,,81,72
14700,note_on,,1,0,15,,,,,,,,,,,,,,,,11,,74,72
14700,note_on,,1,0,11,,,,,,,,,,,,,,,,6,,69,72
14729,note_on,,29,0,11,,,,,,,,,,,,,,,,6,,69,0
14729,note_on,,29,0,15,,,,,,,,,,,,,,,,11,,74,0
14729,note_on,,29,0,14,,,,,,,,,,,,,,,,10,,81,0
14729,note_on,,29,0,16,,,,,,,,,,,,,,,,12,,66,0
14730,note_on,,1,0,16,,,,,,,,,,,,,,,,12,,66,72
14730,note_on,,1,0,14,,,,,,,,,,,,,,,,10,,81,72
14730,note_on,,1,0,15,,,,,,,,,,,,,,,,11,,74,72
14730,note_on,,1,0,11,,,,,,,,,,,,,,,,6,,69,72
14759,note_on,,119,0,5,,,,,,,,,,,,,,,,0,,74,0
14759,note_on,,119,0,6,,,,,,,,,,,,,,,,1,,54,0
14759,note_on,,0,0,18,,,,,,,,,,,,,,,,15,,62,0
14759,note_on,,29,0,14,,,,,,,,,,,,,,,,10,,81,0
14759,note_on,,0,0,18,,,,,,,,,,,,,,,,15,,74,0
14759,note_on,,29,0,11,,,,,,,,,,,,,,,,6,,69,0
14759,note_on,,119,0,17,,,,,,,,,,,,,,,,13,,54,0
14759,note_on,,0,0,18,,,,,,,,,,,,,,,,15,,57,0
14759,note_on,,119,0,10,,,,,,,,,,,,,,,,5,,74,0
14759,note_on,,0,0,18,,,,,,,,,,,,,,,,15,,69,0
14759,note_on,,29,0,16,,,,,,,,,,,,,,,,12,,66,0
14759,note_on,,119,0,13,,,,,,,,,,,,,,,,8,,54,0
14759,note_on,,119,0,18,,,,,,,,,,,,,,,,15,,54,0
14759,note_on,,29,0,15,,,,,,,,,,,,,,,,11,,74,0
14760,note_on,,1,0,10,,,,,,,,,,,,,,,,5,,74,72
14760,note_on,,1,0,16,,,,,,,,,,,,,,,,12,,62,72
14760,note_on,,1,0,15,,,,,,,,,,,,,,,,11,,69,72
14760,note_on,,1,0,14,,,,,,,,,,,,,,,,10,,78,72
14760,note_on,,1,0,11,,,,,,,,,,,,,,,,6,,66,72
14760,note_on,,1,0,5,,,,,,,,,,,,,,,,0,,74,72
14819,note_on,,179,0,12,,,,,,,,,,,,,,,,7,,62,0
14819,note_on,,59,0,11,,,,,,,,,,,,,,,,6,,66,0
14819,note_on,,59,0,14,,,,,,,,,,,,,,,,10,,78,0
14819,note_on,,59,0,16,,,,,,,,,,,,,,,,12,,62,0
14819,note_on,,59,0,15,,,,,,,,,,,,,,,,11,,69,0
14820,note_on,,61,0,13,,,,,,,,,,,,,,,,8,,62,72
14820,note_on,,61,0,6,,,,,,,,,,,,,,,,1,,62,72
14820,note_on,,1,0,12,,,,,,,,,,,,,,,,7,,66,72
14820,note_on,,1,0,15,,,,,,,,,,,,,,,,11,,78,72
14820,note_on,,0,0,18,,,,,,,,,,,,,,,,15,,66,72
14820,note_on,,61,0,18,,,,,,,,,,,,,,,,15,,62,72
14820,note_on,,0,0,18,,,,,,,,,,,,,,,,15,,69,72
14820,note_on,,1,0,11,,,,,,,,,,,,,,,,6,,62,72
14820,note_on,,1,0,14,,,,,,,,,,,,,,,,10,,74,72
14820,note_on,,61,0,17,,,,,,,,,,,,,,,,13,,62,72
14820,note_on,,1,0,16,,,,,,,,,,,,,,,,12,,69,72
14849,note_on,,0,0,18,,,,,,,,,,,,,,,,15,,66,0
14849,note_on,,29,0,15,,,,,,,,,,,,,,,,11,,78,0
14849,note_on,,29,0,18,,,,,,,,,,,,,,,,15,,62,0
14849,note_on,,29,0,17,,,,,,,,,,,,,,,,13,,62,0
14849,note_on,,29,0,16,,,,,,,,,,,,,,,,12,,69,0
14849,note_on,,29,0,6,,,,,,,,,,,,,,,,1,,62,0
14849,note_on,,29,0,13,,,,,,,,,,,,,,,,8,,62,0
14849,note_on,,0,0,18,,,,,,,,,,,,,,,,15,,69,0
14850,note_on,,1,0,15,,,,,,,,,,,,,,,,11,,78,72
14850,note_on,,1,0,16,,,,,,,,,,,,,,,,12,,69,72
14850,note_on,,1,0,6,,,,,,,,,,,,,,,,1,,62,72
14850,note_on,,1,0,13,,,,,,,,,,,,,,,,8,,62,72
14850,note_on,,1,0,17,,,,,,,,,,,,,,,,13,,62,72
14850,note_on,,1,0,18,,,,,,,,,,,,,,,,15,,62,72
14850,note_on,,0,0,18,,,,,,,,,,,,,,,,15,,69,72
14850,note_on,,0,0,18,,,,,,,,,,,,,,,,15,,66,72
14879,note_on,,29,0,13,,,,,,,,,,,,,,,,8,,62,0
14879,note_on,,29,0,17,,,,,,,,,,,,,,,,13,,62,0
14879,note_on,,119,0,10,,,,,,,,,,,,,,,,5,,74,0
14879,note_on,,59,0,14,,,,,,,,,,,,,,,,10,,74,0
14879,note_on,,59,0,11,,,,,,,,,,,,,,,,6,,62,0
14879,note_on,,119,0,5,,,,,,,,,,,,,,,,0,,74,0
14879,note_on,,29,0,16,,,,,,,,,,,,,,,,12,,69,0
14879,note_on,,29,0,15,,,,,,,,,,,,,,,,11,,78,0
14879,note_on,,0,0,18,,,,,,,,,,,,,,,,15,,69,0
14879,note_on,,0,0,18,,,,,,,,,,,,,,,,15,,66,0
14879,note_on,,59,0,12,,,,,,,,,,,,,,,,7,,66,0
14879,note_on,,29,0,6,,,,,,,,,,,,,,,,1,,62,0
14879,note_on,,29,0,18,,,,,,,,,,,,,,,,15,,62,0
14880,note_on,,1,0,17,,,,,,,,,,,,,,,,13,,59,72
14880,note_on,,1,0,18,,,,,,,,,,,,,,,,15,,59,72
14880,note_on,,0,0,18,,,,,,,,,,,,,,,,15,,71,72
14880,note_on,,1,0,5,,,,,,,,,,,,,,,,0,,74,72
14880,note_on,,0,0,18,,,,,,,,,,,,,,,,15,,67,72
14880,note_on,,1,0,10,,,,,,,,,,,,,,,,5,,74,72
14880,note_on,,0,0,18,,,,,,,,,,,,,,,,15,,62,72
14880,note_on,,1,0,6,,,,,,,,,,,,,,,,1,,59,72
14880,note_on,,1,0,16,,,,,,,,,,,,,,,,12,,62,72
14880,note_on,,1,0,12,,,,,,,,,,,,,,,,7,,67,72
14880,note_on,,1,0,13,,,,,,,,,,,,,,,,8,,59,72
14880,note_on,,1,0,15,,,,,,,,,,,,,,,,11,,79,72
14939,note_on,,59,0,16,,,,,,,,,,,,,,,,12,,62,0
14939,note_on,,0,0,18,,,,,,,,,,,,,,,,15,,62,0
14939,note_on,,59,0,18,,,,,,,,,,,,,,,,15,,59,0
14939,note_on,,59,0,6,,,,,,,,,,,,,,,,1,,59,0
14939,note_on,,59,0,15,,,,,,,,,,,,,,,,11,,79,0
14939,note_on,,59,0,13,,,,,,,,,,,,,,,,8,,59,0
14939,note_on,,59,0,17,,,,,,,,,,,,,,,,13,,59,0
14940,note_on,,61,0,14,,,,,,,,,,,,,,,,10,,83,72
14940,note_on,,1,0,13,,,,,,,,,,,,,,,,8,,55,72
14940,note_on,,1,0,15,,,,,,,,,,,,,,,,11,,79,72
14940,note_on,,1,0,17,,,,,,,,,,,,,,,,13,,55,72
14940,note_on,,1,0,6,,,,,,,,,,,,,,,,1,,55,72
14940,note_on,,1,0,16,,,,,,,,,,,,,,,,12,,62,72
14940,note_on,,1,0,18,,,,,,,,,,,,,,,,15,,55,72
14940,note_on,,0,0,18,,,,,,,,,,,,,,,,15,,59,72
14940,note_on,,61,0,11,,,,,,,,,,,,,,,,6,,71,72
14969,note_on,,29,0,16,,,,,,,,,,,,,,,,12,,62,0
14970,note_on,,1,0,16,,,,,,,,,,,,,,,,12,,62,72
14999,note_on,,59,0,11,,,,,,,,,,,,,,,,6,,71,0
14999,note_on,,119,0,5,,,,,,,,,,,,,,,,0,,74,0
14999,note_on,,59,0,17,,,,,,,,,,,,,,,,13,,55,0
14999,note_on,,59,0,14,,,,,,,,,,,,,,,,10,,83,0
14999,note_on,,59,0,18,,,,,,,,,,,,,,,,15,,55,0
14999,note_on,,59,0,13,,,,,,,,,,,,,,,,8,,55,0
14999,note_on,,119,0,10,,,,,,,,,,,,,,,,5,,74,0
14999,note_on,,0,0,18,,,,,,,,,,,,,,,,15,,59,0
14999,note_on,,29,0,16,,,,,,,,,,,,,,,,12,,62,0
14999,note_on,,59,0,15,,,,,,,,,,,,,,,,11,,79,0
14999,note_on,,59,0,6,,,,,,,,,,,,,,,,1,,55,0
15000,note_on,,1,0,18,,,,,,,,,,,,,,,,15,,59,72
15000,note_on,,0,0,18,,,,,,,,,,,,,,,,15,,62,72
15000,note_on,,1,0,5,,,,,,,,,,,,,,,,0,,74,72
15000,note_on,,1,0,10,,,,,,,,,,,,,,,,5,,74,72
15000,note_on,,1,0,17,,,,,,,,,,,,,,,,13,,59,72
15000,note_on,,1,0,15,,,,,,,,,,,,,,,,11,,79,72
15000,note_on,,1,0,14,,,,,,,,,,,,,,,,10,,83,72
15000,note_on,,1,0,13,,,,,,,,,,,,,,,,8,,59,72
15000,note_on,,1,0,6,,,,,,,,,,,,,,,,1,,59,72
15000,note_on,,1,0,16,,,,,,,,,,,,,,,,12,,62,72
15000,note_on,,1,0,11,,,,,,,,,,,,,,,,6,,71,72
15059,note_on,,59,0,6,,,,,,,,,,,,,,,,1,,59,0
15059,note_on,,59,0,16,,,,,,,,,,,,,,,,12,,62,0
15059,note_on,,59,0,18,,,,,,,,,,,,,,,,15,,59,0
15059,note_on,,0,0,18,,,,,,,,,,,,,,,,15,,62,0
15059,note_on,,179,0,12,,,,,,,,,,,,,,,,7,,67,0
15059,note_on,,59,0,11,,,,,,,,,,,,,,,,6,,71,0
15059,note_on,,59,0,15,,,,,,,,,,,,,,,,11,,79,0
15059,note_on,,59,0,13,,,,,,,,,,,,,,,,8,,59,0
15059,note_on,,59,0,17,,,,,,,,,,,,,,,,13,,59,0
15059,note_on,,59,0,14,,,,,,,,,,,,,,,,10,,83,0
15060,note_on,,0,0,18,,,,,,,,,,,,,,,,15,,64,72
15060,note_on,,1,0,18,,,,,,,,,,,,,,,,15,,61,72
15060,note_on,,1,0,17,,,,,,,,,,,,,,,,13,,61,72
15060,note_on,,1,0,12,,,,,,,,,,,,,,,,7,,67,72
15060,note_on,,1,0,6,,,,,,,,,,,,,,,,1,,61,72
15060,note_on,,1,0,16,,,,,,,,,,,,,,,,12,,64,72
15060,note_on,,1,0,14,,,,,,,,,,,,,,,,10,,83,72
15060,note_on,,1,0,11,,,,,,,,,,,,,,,,6,,71,72
15060,note_on,,1,0,13,,,,,,,,,,,,,,,,8,,61,72
15060,note_on,,1,0,15,,,,,,,,,,,,,,,,11,,79,72
15119,note_on,,59,0,16,,,,,,,,,,,,,,,,12,,64,0
15119,note_on,,59,0,6,,,,,,,,,,,,,,,,1,,61,0
15119,note_on,,0,0,18,,,,,,,,,,,,,,,,15,,67,0
15119,note_on,,0,0,18,,,,,,,,,,,,,,,,15,,61,0
15119,note_on,,59,0,18,,,,,,,,,,,,,,,,15,,71,0
15119,note_on,,119,0,5,,,,,,,,,,,,,,,,0,,74,0
15119,note_on,,0,0,18,,,,,,,,,,,,,,,,15,,64,0
15119,note_on,,119,0,10,,,,,,,,,,,,,,,,5,,74,0
15119,note_on,,59,0,12,,,,,,,,,,,,,,,,7,,67,0
15119,note_on,,479,0,7,,,,,,,,,,,,,,,,2,,74,0
15119,note_on,,59,0,17,,,,,,,,,,,,,,,,13,,61,0
15119,note_on,,59,0,14,,,,,,,,,,,,,,,,10,,83,0
15119,note_on,,59,0,15,,,,,,,,,,,,,,,,11,,79,0
15119,note_on,,59,0,11,,,,,,,,,,,,,,,,6,,71,0
15119,note_on,,59,0,13,,,,,,,,,,,,,,,,8,,61,0
15120,note_on,,0,0,18,,,,,,,,,,,,,,,,15,,69,72
15120,note_on,,1,0,17,,,,,,,,,,,,,,,,13,,62,72
15120,note_on,,1,0,14,,,,,,,,,,,,,,,,10,,81,72
15120,note_on,,1,0,15,,,,,,,,,,,,,,,,11,,78,72
15120,note_on,,1,0,13,,,,,,,,,,,,,,,,8,,62,72
15120,note_on,,1,0,16,,,,,,,,,,,,,,,,12,,66,72
15120,note_on,,1,0,18,,,,,,,,,,,,,,,,15,,62,72
15120,note_on,,1,0,5,,,,,,,,,,,,,,,,0,,74,72
15120,note_on,,1,0,10,,,,,,,,,,,,,,,,5,,74,72
15120,note_on,,1,0,12,,,,,,,,,,,,,,,,7,,66,72
15120,note_on,,1,0,11,,,,,,,,,,,,,,,,6,,69,72
15120,note_on,,1,0,6,,,,,,,,,,,,,,,,1,,62,72
15179,note_on,,59,0,16,,,,,,,,,,,,,,,,12,,66,0
15179,note_on,,59,0,18,,,,,,,,,,,,,,,,15,,62,0
15179,note_on,,59,0,17,,,,,,,,,,,,,,,,13,,62,0
15179,note_on,,59,0,14,,,,,,,,,,,,,,,,10,,81,0
15179,note_on,,59,0,6,,,,,,,,,,,,,,,,1,,62,0
15179,note_on,,59,0,15,,,,,,,,,,,,,,,,11,,78,0
15180,note_on,,0,0,18,,,,,,,,,,,,,,,,15,,57,72
15180,note_on,,1,0,18,,,,,,,,,,,,,,,,15,,50,72
15180,note_on,,1,0,6,,,,,,,,,,,,,,,,1,,50,72
15180,note_on,,1,0,16,,,,,,,,,,,,,,,,12,,66,72
15180,note_on,,61,0,7,,,,,,,,,,,,,,,,2,,78,72
15180,note_on,,1,0,14,,,,,,,,,,,,,,,,10,,81,72
15180,note_on,,1,0,15,,,,,,,,,,,,,,,,11,,78,72
15180,note_on,,1861,0,9,,,,,,,,,,,,,,,,4,,50,72
15180,note_on,,1861,0,8,,,,,,,,,,,,,,,,3,,69,72
15180,note_on,,1,0,17,,,,,,,,,,,,,,,,13,,50,72
15209,note_on,,0,0,18,,,,,,,,,,,,,,,,15,,57,0
15209,note_on,,29,0,8,,,,,,,,,,,,,,,,3,,69,0
15209,note_on,,29,0,15,,,,,,,,,,,,,,,,11,,78,0
15209,note_on,,29,0,9,,,,,,,,,,,,,,,,4,,50,0
15209,note_on,,29,0,6,,,,,,,,,,,,,,,,1,,50,0
15209,note_on,,29,0,14,,,,,,,,,,,,,,,,10,,81,0
15209,note_on,,29,0,16,,,,,,,,,,,,,,,,12,,66,0
15209,note_on,,29,0,7,,,,,,,,,,,,,,,,2,,78,0
15209,note_on,,29,0,17,,,,,,,,,,,,,,,,13,,50,0
15209,note_on,,29,0,18,,,,,,,,,,,,,,,,15,,50,0
15210,note_on,,1,0,6,,,,,,,,,,,,,,,,1,,50,72
15210,note_on,,1,0,17,,,,,,,,,,,,,,,,13,,50,72
15210,note_on,,1,0,15,,,,,,,,,,,,,,,,11,,78,72
15210,note_on,,1,0,16,,,,,,,,,,,,,,,,12,,66,72
15210,note_on,,1,0,9,,,,,,,,,,,,,,,,4,,50,72
15210,note_on,,1,0,18,,,,,,,,,,,,,,,,15,,50,72
15210,note_on,,0,0,18,,,,,,,,,,,,,,,,15,,57,72
15210,note_on,,1,0,7,,,,,,,,,,,,,,,,2,,78,72
15210,note_on,,1,0,14,,,,,,,,,,,,,,,,10,,81,72
15210,note_on,,1,0,8,,,,,,,,,,,,,,,,3,,69,72
15239,note_on,,29,0,7,,,,,,,,,,,,,,,,2,,78,0
15239,note_on,,29,0,15,,,,,,,,,,,,,,,,11,,78,0
15239,note_on,,29,0,16,,,,,,,,,,,,,,,,12,,66,0
15239,note_on,,29,0,8,,,,,,,,,,,,,,,,3,,69,0
15239,note_on,,29,0,14,,,,,,,,,,,,,,,,10,,81,0
15239,note_on,,29,0,9,,,,,,,,,,,,,,,,4,,50,0
15239,note_on,,0,0,18,,,,,,,,,,,,,,,,15,,57,0
15239,note_on,,0,0,18,,,,,,,,,,,,,,,,15,,50,0
15239,note_on,,29,0,18,,,,,,,,,,,,,,,,15,,69,0
15239,note_on,,29,0,6,,,,,,,,,,,,,,,,1,,50,0
15239,note_on,,29,0,17,,,,,,,,,,,,,,,,13,,50,0
15240,note_on,,1,0,6,,,,,,,,,,,,,,,,1,,50,72
15240,note_on,,1,0,16,,,,,,,,,,,,,,,,12,,69,72
15240,note_on,,1,0,9,,,,,,,,,,,,,,,,4,,50,72
15240,note_on,,1,0,17,,,,,,,,,,,,,,,,13,,50,72
15240,note_on,,1,0,15,,,,,,,,,,,,,,,,11,,74,72
15240,note_on,,1,0,7,,,,,,,,,,,,,,,,2,,78,72
15240,note_on,,0,0,18,,,,,,,,,,,,,,,,15,,57,72
15240,note_on,,0,0,18,,,,,,,,,,,,,,,,15,,69,72
15240,note_on,,0,0,18,,,,,,,,,,,,,,,,15,,74,72
15240,note_on,,1,0,18,,,,,,,,,,,,,,,,15,,50,72
15240,note_on,,1,0,14,,,,,,,,,,,,,,,,10,,78,72
15240,note_on,,1,0,8,,,,,,,,,,,,,,,,3,,69,72
15240,note_on,,0,0,18,,,,,,,,,,,,,,,,15,,66,72
15299,note_on,,59,0,8,,,,,,,,,,,,,,,,3,,69,0
15299,note_on,,59,0,17,,,,,,,,,,,,,,,,13,,50,0
15299,note_on,,59,0,15,,,,,,,,,,,,,,,,11,,74,0
15299,note_on,,0,0,18,,,,,,,,,,,,,,,,15,,57,0
15299,note_on,,59,0,18,,,,,,,,,,,,,,,,15,,50,0
15299,note_on,,59,0,9,,,,,,,,,,,,,,,,4,,50,0
15299,note_on,,59,0,14,,,,,,,,,,,,,,,,10,,78,0
15299,note_on,,59,0,7,,,,,,,,,,,,,,,,2,,78,0
15299,note_on,,59,0,16,,,,,,,,,,,,,,,,12,,69,0
15299,note_on,,59,0,6,,,,,,,,,,,,,,,,1,,50,0
15300,note_on,,1,0,6,,,,,,,,,,,,,,,,1,,50,72
15300,note_on,,1,0,17,,,,,,,,,,,,,,,,13,,50,72
15300,note_on,,1,0,16,,,,,,,,,,,,,,,,12,,66,72
15300,note_on,,1,0,9,,,,,,,,,,,,,,,,4,,50,72
15300,note_on,,0,0,18,,,,,,,,,,,,,,,,15,,57,72
15300,note_on,,1,0,18,,,,,,,,,,,,,,,,15,,50,72
15300,note_on,,1,0,7,,,,,,,,,,,,,,,,2,,78,72
15300,note_on,,1,0,14,,,,,,,,,,,,,,,,10,,74,72
15300,note_on,,1,0,8,,,,,,,,,,,,,,,,3,,69,72
15300,note_on,,1,0,15,,,,,,,,,,,,,,,,11,,69,72
15359,note_on,,59,0,9,,,,,,,,,,,,,,,,4,,50,0
15359,note_on,,239,0,5,,,,,,,,,,,,,,,,0,,74,0
15359,note_on,,239,0,12,,,,,,,,,,,,,,,,7,,66,0
15359,note_on,,59,0,16,,,,,,,,,,,,,,,,12,,66,0
15359,note_on,,59,0,17,,,,,,,,,,,,,,,,13,,50,0
15359,note_on,,239,0,11,,,,,,,,,,,,,,,,6,,69,0
15359,note_on,,59,0,7,,,,,,,,,,,,,,,,2,,78,0
15359,note_on,,59,0,8,,,,,,,,,,,,,,,,3,,69,0
15359,note_on,,59,0,14,,,,,,,,,,,,,,,,10,,74,0
15359,note_on,,59,0,15,,,,,,,,,,,,,,,,11,,69,0
15359,note_on,,59,0,6,,,,,,,,,,,,,,,,1,,50,0
15359,note_on,,239,0,13,,,,,,,,,,,,,,,,8,,62,0
15359,note_on,,0,0,18,,,,,,,,,,,,,,,,15,,57,0
15359,note_on,,239,0,10,,,,,,,,,,,,,,,,5,,74,0
15359,note_on,,0,0,18,,,,,,,,,,,,,,,,15,,50,0
15359,note_on,,59,0,18,,,,,,,,,,,,,,,,15,,74,0
15359,note_on,,0,0,18,,,,,,,,,,,,,,,,15,,66,0
15359,note_on,,0,0,18,,,,,,,,,,,,,,,,15,,69,0
15360,note_on,,1,0,14,,,,,,,,,,,,,,,,10,,79,72
15360,note_on,,1,0,18,,,,,,,,,,,,,,,,15,,47,72
15360,note_on,,1,0,9,,,,,,,,,,,,,,,,4,,50,72
15360,note_on,,1,0,7,,,,,,,,,,,,,,,,2,,79,72
15360,note_on,,1,0,8,,,,,,,,,,,,,,,,3,,74,72
15360,note_on,,1,0,16,,,,,,,,,,,,,,,,12,,67,72
15360,note_on,,0,0,18,,,,,,,,,,,,,,,,15,,74,72
15360,note_on,,0,0,18,,,,,,,,,,,,,,,,15,,67,72
15360,note_on,,1,0,17,,,,,,,,,,,,,,,,13,,47,72
15360,note_on,,1,0,6,,,,,,,,,,,,,,,,1,,47,72
15360,note_on,,0,0,18,,,,,,,,,,,,,,,,15,,62,72
15360,note_on,,1,0,15,,,,,,,,,,,,,,,,11,,74,72
15360,note_on,,0,0,18,,,,,,,,,,,,,,,,15,,55,72
15419,note_on,,59,0,7,,,,,,,,,,,,,,,,2,,79,0
15419,note_on,,59,0,16,,,,,,,,,,,,,,,,12,,67,0
15419,note_on,,59,0,17,,,,,,,,,,,,,,,,13,,47,0
15419,note_on,,59,0,9,,,,,,,,,,,,,,,,4,,50,0
15419,note_on,,59,0,18,,,,,,,,,,,,,,,,15,,47,0
15419,note_on,,59,0,14,,,,,,,,,,,,,,,,10,,79,0
15419,note_on,,59,0,8,,,,,,,,,,,,,,,,3,,74,0
15419,note_on,,0,0,18,,,,,,,,,,,,,,,,15,,55,0
15419,note_on,,59,0,6,,,,,,,,,,,,,,,,1,,47,0
15419,note_on,,59,0,15,,,,,,,,,,,,,,,,11,,74,0
15420,note_on,,1,0,7,,,,,,,,,,,,,,,,2,,74,72
15420,note_on,,1,0,8,,,,,,,,,,,,,,,,3,,62,72
15420,note_on,,1,0,6,,,,,,,,,,,,,,,,1,,47,72
15420,note_on,,1,0,14,,,,,,,,,,,,,,,,10,,79,72
15420,note_on,,0,0,18,,,,,,,,,,,,,,,,15,,55,72
15420,note_on,,1,0,16,,,,,,,,,,,,,,,,12,,67,72
15420,note_on,,1,0,9,,,,,,,,,,,,,,,,4,,50,72
15420,note_on,,1,0,18,,,,,,,,,,,,,,,,15,,47,72
15420,note_on,,1,0,17,,,,,,,,,,,,,,,,13,,47,72
15420,note_on,,1,0,15,,,,,,,,,,,,,,,,11,,74,72
15449,note_on,,29,0,17,,,,,,,,,,,,,,,,13,,47,0
15449,note_on,,29,0,9,,,,,,,,,,,,,,,,4,,50,0
15449,note_on,,29,0,6,,,,,,,,,,,,,,,,1,,47,0
15449,note_on,,29,0,8,,,,,,,,,,,,,,,,3,,62,0
15449,note_on,,29,0,14,,,,,,,,,,,,,,,,10,,79,0
15449,note_on,,29,0,16,,,,,,,,,,,,,,,,12,,67,0
15449,note_on,,0,0,18,,,,,,,,,,,,,,,,15,,55,0
15449,note_on,,29,0,18,,,,,,,,,,,,,,,,15,,47,0
15449,note_on,,29,0,7,,,,,,,,,,,,,,,,2,,74,0
15449,note_on,,29,0,15,,,,,,,,,,,,,,,,11,,74,0
15450,note_on,,1,0,14,,,,,,,,,,,,,,,,10,,79,72
15450,note_on,,0,0,18,,,,,,,,,,,,,,,,15,,55,72
15450,note_on,,1,0,18,,,,,,,,,,,,,,,,15,,47,72
15450,note_on,,1,0,16,,,,,,,,,,,,,,,,12,,67,72
15450,note_on,,1,0,7,,,,,,,,,,,,,,,,2,,74,72
15450,note_on,,1,0,9,,,,,,,,,,,,,,,,4,,50,72
15450,note_on,,1,0,8,,,,,,,,,,,,,,,,3,,62,72
15450,note_on,,1,0,15,,,,,,,,,,,,,,,,11,,74,72
15450,note_on,,1,0,17,,,,,,,,,,,,,,,,13,,47,72
15450,note_on,,1,0,6,,,,,,,,,,,,,,,,1,,47,72
15479,note_on,,29,0,14,,,,,,,,,,,,,,,,10,,79,0
15479,note_on,,29,0,15,,,,,,,,,,,,,,,,11,,74,0
15479,note_on,,29,0,8,,,,,,,,,,,,,,,,3,,62,0
15479,note_on,,29,0,17,,,,,,,,,,,,,,,,13,,47,0
15479,note_on,,29,0,6,,,,,,,,,,,,,,,,1,,47,0
15479,note_on,,29,0,7,,,,,,,,,,,,,,,,2,,74,0
15479,note_on,,29,0,18,,,,,,,,,,,,,,,,15,,74,0
15479,note_on,,0,0,18,,,,,,,,,,,,,,,,15,,67,0
15479,note_on,,0,0,18,,,,,,,,,,,,,,,,15,,62,0
15479,note_on,,0,0,18,,,,,,,,,,,,,,,,15,,47,0
15479,note_on,,0,0,18,,,,,,,,,,,,,,,,15,,55,0
15479,note_on,,29,0,16,,,,,,,,,,,,,,,,12,,67,0
15479,note_on,,29,0,9,,,,,,,,,,,,,,,,4,,50,0
15480,note_on,,1,0,6,,,,,,,,,,,,,,,,1,,43,72
15480,note_on,,0,0,18,,,,,,,,,,,,,,,,15,,79,72
15480,note_on,,1,0,15,,,,,,,,,,,,,,,,11,,79,72
15480,note_on,,1,0,14,,,,,,,,,,,,,,,,10,,83,72
15480,note_on,,0,0,18,,,,,,,,,,,,,,,,15,,55,72
15480,note_on,,0,0,18,,,,,,,,,,,,,,,,15,,71,72
15480,note_on,,1,0,7,,,,,,,,,,,,,,,,2,,74,72
15480,note_on,,1,0,18,,,,,,,,,,,,,,,,15,,43,72
15480,note_on,,1,0,9,,,,,,,,,,,,,,,,4,,50,72
15480,note_on,,1,0,8,,,,,,,,,,,,,,,,3,,62,72
15480,note_on,,0,0,18,,,,,,,,,,,,,,,,15,,74,72
15480,note_on,,1,0,16,,,,,,,,,,,,,,,,12,,62,72
15480,note_on,,1,0,17,,,,,,,,,,,,,,,,13,,43,72
15539,note_on,,59,0,6,,,,,,,,,,,,,,,,1,,43,0
15539,note_on,,59,0,7,,,,,,,,,,,,,,,,2,,74,0
15539,note_on,,59,0,16,,,,,,,,,,,,,,,,12,,62,0
15539,note_on,,59,0,14,,,,,,,,,,,,,,,,10,,83,0
15539,note_on,,59,0,8,,,,,,,,,,,,,,,,3,,62,0
15539,note_on,,59,0,17,,,,,,,,,,,,,,,,13,,43,0
15539,note_on,,59,0,15,,,,,,,,,,,,,,,,11,,79,0
15539,note_on,,59,0,18,,,,,,,,,,,,,,,,15,,43,0
15539,note_on,,0,0,18,,,,,,,,,,,,,,,,15,,55,0
15539,note_on,,59,0,9,,,,,,,,,,,,,,,,4,,50,0
15540,note_on,,1,0,16,,,,,,,,,,,,,,,,12,,62,72
15540,note_on,,1,0,9,,,,,,,,,,,,,,,,4,,50,72
15540,note_on,,1,0,14,,,,,,,,,,,,,,,,10,,83,72
15540,note_on,,0,0,18,,,,,,,,,,,,,,,,15,,55,72
15540,note_on,,1,0,8,,,,,,,,,,,,,,,,3,,62,72
15540,note_on,,1,0,6,,,,,,,,,,,,,,,,1,,43,72
15540,note_on,,1,0,18,,,,,,,,,,,,,,,,15,,43,72
15540,note_on,,1,0,15,,,,,,,,,,,,,,,,11,,79,72
15540,note_on,,1,0,7,,,,,,,,,,,,,,,,2,,74,72
15540,note_on,,1,0,17,,,,,,,,,,,,,,,,13,,43,72
15599,note_on,,59,0,16,,,,,,,,,,,,,,,,12,,62,0
15599,note_on,,59,0,17,,,,,,,,,,,,,,,,13,,43,0
15599,note_on,,0,0,18,,,,,,,,,,,,,,,,15,,71,0
15599,note_on,,59,0,7,,,,,,,,,,,,,,,,2,,74,0
15599,note_on,,59,0,6,,,,,,,,,,,,,,,,1,,43,0
15599,note_on,,59,0,9,,,,,,,,,,,,,,,,4,,50,0
15599,note_on,,59,0,18,,,,,,,,,,,,,,,,15,,79,0
15599,note_on,,0,0,18,,,,,,,,,,,,,,,,15,,55,0
15599,note_on,,0,0,18,,,,,,,,,,,,,,,,15,,43,0
15599,note_on,,59,0,15,,,,,,,,,,,,,,,,11,,79,0
15599,note_on,,59,0,8,,,,,,,,,,,,,,,,3,,62,0
15599,note_on,,59,0,14,,,,,,,,,,,,,,,,10,,83,0
15599,note_on,,0,0,18,,,,,,,,,,,,,,,,15,,74,0
15600,note_on,,1,0,14,,,,,,,,,,,,,,,,10,,81,72
15600,note_on,,1,0,7,,,,,,,,,,,,,,,,2,,69,72
15600,note_on,,1,0,8,,,,,,,,,,,,,,,,3,,66,72
15600,note_on,,1,0,15,,,,,,,,,,,,,,,,11,,78,72
15600,note_on,,0,0,18,,,,,,,,,,,,,,,,15,,69,72
15600,note_on,,1,0,17,,,,,,,,,,,,,,,,13,,50,72
15600,note_on,,1,0,18,,,,,,,,,,,,,,,,15,,50,72
15600,note_on,,1,0,16,,,,,,,,,,,,,,,,12,,62,72
15600,note_on,,0,0,18,,,,,,,,,,,,,,,,15,,74,72
15600,note_on,,0,0,18,,,,,,,,,,,,,,,,15,,57,72
15600,note_on,,0,0,18,,,,,,,,,,,,,,,,15,,78,72
15600,note_on,,1,0,9,,,,,,,,,,,,,,,,4,,50,72
15600,note_on,,1,0,6,,,,,,,,,,,,,,,,1,,50,72
15719,note_on,,119,0,17,,,,,,,,,,,,,,,,13,,50,0
15719,note_on,,0,0,18,,,,,,,,,,,,,,,,15,,57,0
15719,note_on,,119,0,7,,,,,,,,,,,,,,,,2,,69,0
15719,note_on,,119,0,14,,,,,,,,,,,,,,,,10,,81,0
15719,note_on,,0,0,18,,,,,,,,,,,,,,,,15,,69,0
15719,note_on,,119,0,16,,,,,,,,,,,,,,,,12,,62,0
15719,note_on,,119,0,9,,,,,,,,,,,,,,,,4,,50,0
15719,note_on,,119,0,15,,,,,,,,,,,,,,,,11,,78,0
15719,note_on,,119,0,6,,,,,,,,,,,,,,,,1,,50,0
15719,note_on,,0,0,18,,,,,,,,,,,,,,,,15,,78,0
15719,note_on,,119,0,18,,,,,,,,,,,,,,,,15,,50,0
15719,note_on,,119,0,8,,,,,,,,,,,,,,,,3,,66,0
15719,note_on,,0,0,18,,,,,,,,,,,,,,,,15,,74,0
15720,note_on,,0,0,18,,,,,,,,,,,,,,,,15,,62,48
15720,note_on,,0,0,18,,,,,,,,,,,,,,,,15,,66,48
15720,note_on,,361,0,13,,,,,,,,,,,,,,,,8,,50,48
15720,note_on,,1,0,17,,,,,,,,,,,,,,,,13,,50,48
15720,note_on,,361,0,5,,,,,,,,,,,,,,,,0,,69,48
15720,note_on,,1,0,14,,,,,,,,,,,,,,,,10,,69,48
15720,note_on,,361,0,11,,,,,,,,,,,,,,,,6,,66,48
15720,note_on,,1,0,15,,,,,,,,,,,,,,,,11,,66,48
15720,note_on,,1,0,6,,,,,,,,,,,,,,,,1,,50,48
15720,note_on,,0,0,18,,,,,,,,,,,,,,,,15,,57,48
15720,note_on,,361,0,12,,,,,,,,,,,,,,,,7,,62,48
15720,note_on,,0,0,18,,,,,,,,,,,,,,,,15,,69,48
15720,note_on,,361,0,10,,,,,,,,,,,,,,,,5,,69,48
15720,note_on,,1,0,18,,,,,,,,,,,,,,,,15,,50,48
15720,note_on,,1,0,16,,,,,,,,,,,,,,,,12,,62,48
15839,note_on,,119,0,5,,,,,,,,,,,,,,,,0,,69,0
15839,note_on,,0,0,18,,,,,,,,,,,,,,,,15,,62,0
15839,note_on,,0,0,18,,,,,,,,,,,,,,,,15,,66,0
15839,note_on,,119,0,13,,,,,,,,,,,,,,,,8,,50,0
15839,note_on,,119,0,18,,,,,,,,,,,,,,,,15,,50,0
15839,note_on,,119,0,17,,,,,,,,,,,,,,,,13,,50,0
15839,note_on,,119,0,16,,,,,,,,,,,,,,,,12,,62,0
15839,note_on,,0,0,18,,,,,,,,,,,,,,,,15,,57,0
15839,note_on,,0,0,18,,,,,,,,,,,,,,,,15,,69,0
15839,note_on,,119,0,11,,,,,,,,,,,,,,,,6,,66,0
15839,note_on,,119,0,12,,,,,,,,,,,,,,,,7,,62,0
15839,note_on,,119,0,10,,,,,,,,,,,,,,,,5,,69,0
15839,note_on,,119,0,14,,,,,,,,,,,,,,,,10,,69,0
15839,note_on,,119,0,15,,,,,,,,,,,,,,,,11,,66,0
15839,note_on,,119,0,6,,,,,,,,,,,,,,,,1,,50,0
15840,note_on,,1,0,18,,,,,,,,,,,,,,,,15,,49,48
15840,note_on,,0,0,18,,,,,,,,,,,,,,,,15,,69,48
15840,note_on,,0,0,18,,,,,,,,,,,,,,,,15,,64,48
15840,note_on,,1,0,12,,,,,,,,,,,,,,,,7,,57,48
15840,note_on,,0,0,18,,,,,,,,,,,,,,,,15,,57,48
15840,note_on,,1,0,11,,,,,,,,,,,,,,,,6,,64,48
15840,note_on,,1,0,13,,,,,,,,,,,,,,,,8,,49,48
15840,note_on,,1,0,10,,,,,,,,,,,,,,,,5,,69,48
15840,note_on,,1,0,5,,,,,,,,,,,,,,,,0,,69,48
15840,note_on,,1,0,14,,,,,,,,,,,,,,,,10,,69,48
15840,note_on,,1,0,16,,,,,,,,,,,,,,,,12,,57,48
15840,note_on,,1,0,17,,,,,,,,,,,,,,,,13,,49,48
15840,note_on,,1,0,15,,,,,,,,,,,,,,,,11,,64,48
15840,note_on,,1,0,6,,,,,,,,,,,,,,,,1,,49,48
15959,note_on,,119,0,5,,,,,,,,,,,,,,,,0,,69,0
15959,note_on,,119,0,15,,,,,,,,,,,,,,,,11,,64,0
15959,note_on,,119,0,11,,,,,,,,,,,,,,,,6,,64,0
15959,note_on,,0,0,18,,,,,,,,,,,,,,,,15,,57,0
15959,note_on,,0,0,18,,,,,,,,,,,,,,,,15,,64,0
15959,note_on,,0,0,18,,,,,,,,,,,,,,,,15,,69,0
15959,note_on,,119,0,18,,,,,,,,,,,,,,,,15,,49,0
15959,note_on,,119,0,10,,,,,,,,,,,,,,,,5,,69,0
15959,note_on,,119,0,6,,,,,,,,,,,,,,,,1,,49,0
15959,note_on,,119,0,12,,,,,,,,,,,,,,,,7,,57,0
15959,note_on,,119,0,13,,,,,,,,,,,,,,,,8,,49,0
15959,note_on,,119,0,14,,,,,,,,,,,,,,,,10,,69,0
15959,note_on,,119,0,17,,,,,,,,,,,,,,,,13,,49,0
15959,note_on,,119,0,16,,,,,,,,,,,,,,,,12,,57,0
15960,note_on,,0,0,18,,,,,,,,,,,,,,,,15,,67,48
15960,note_on,,1,0,12,,,,,,,,,,,,,,,,7,,50,48
15960,note_on,,1,0,5,,,,,,,,,,,,,,,,0,,67,48
15960,note_on,,1,0,15,,,,,,,,,,,,,,,,11,,62,48
15960,note_on,,1,0,14,,,,,,,,,,,,,,,,10,,67,48
15960,note_on,,1,0,11,,,,,,,,,,,,,,,,6,,62,48
15960,note_on,,1,0,16,,,,,,,,,,,,,,,,12,,62,48
15960,note_on,,1,0,6,,,,,,,,,,,,,,,,1,,47,48
15960,note_on,,1,0,17,,,,,,,,,,,,,,,,13,,47,48
15960,note_on,,1,0,13,,,,,,,,,,,,,,,,8,,47,48
15960,note_on,,1,0,10,,,,,,,,,,,,,,,,5,,67,48
15960,note_on,,0,0,18,,,,,,,,,,,,,,,,15,,62,48
15960,note_on,,1,0,18,,,,,,,,,,,,,,,,15,,59,48
15960,note_on,,0,0,18,,,,,,,,,,,,,,,,15,,47,48
16079,note_on,,119,0,16,,,,,,,,,,,,,,,,12,,62,0
16079,note_on,,119,0,10,,,,,,,,,,,,,,,,5,,67,0
16079,note_on,,0,0,18,,,,,,,,,,,,,,,,15,,67,0
16079,note_on,,119,0,5,,,,,,,,,,,,,,,,0,,67,0
16079,note_on,,0,0,18,,,,,,,,,,,,,,,,15,,62,0
16079,note_on,,0,0,18,,,,,,,,,,,,,,,,15,,47,0
16079,note_on,,119,0,6,,,,,,,,,,,,,,,,1,,47,0
16079,note_on,,119,0,18,,,,,,,,,,,,,,,,15,,59,0
16079,note_on,,119,0,12,,,,,,,,,,,,,,,,7,,50,0
16079,note_on,,119,0,13,,,,,,,,,,,,,,,,8,,47,0
16079,note_on,,119,0,11,,,,,,,,,,,,,,,,6,,62,0
16079,note_on,,119,0,17,,,,,,,,,,,,,,,,13,,47,0
16079,note_on,,119,0,14,,,,,,,,,,,,,,,,10,,67,0
16080,note_on,,1,0,11,,,,,,,,,,,,,,,,6,,62,48
16080,note_on,,0,0,18,,,,,,,,,,,,,,,,15,,66,48
16080,note_on,,0,0,18,,,,,,,,,,,,,,,,15,,50,48
16080,note_on,,1,0,18,,,,,,,,,,,,,,,,15,,45,48
16080,note_on,,1,0,12,,,,,,,,,,,,,,,,7,,57,48
16080,note_on,,1,0,14,,,,,,,,,,,,,,,,10,,66,48
16080,note_on,,1,0,16,,,,,,,,,,,,,,,,12,,57,48
16080,note_on,,1,0,17,,,,,,,,,,,,,,,,13,,45,48
16080,note_on,,1,0,13,,,,,,,,,,,,,,,,8,,45,48
16080,note_on,,1,0,6,,,,,,,,,,,,,,,,1,,45,48
16080,note_on,,1,0,10,,,,,,,,,,,,,,,,5,,66,48
16080,note_on,,1,0,5,,,,,,,,,,,,,,,,0,,66,48
16080,note_on,,0,0,18,,,,,,,,,,,,,,,,15,,62,48
16199,note_on,,119,0,16,,,,,,,,,,,,,,,,12,,57,0
16199,note_on,,119,0,14,,,,,,,,,,,,,,,,10,,66,0
16199,note_on,,119,0,17,,,,,,,,,,,,,,,,13,,45,0
16199,note_on,,0,0,18,,,,,,,,,,,,,,,,15,,62,0
16199,note_on,,0,0,18,,,,,,,,,,,,,,,,15,,66,0
16199,note_on,,119,0,6,,,,,,,,,,,,,,,,1,,45,0
16199,note_on,,119,0,10,,,,,,,,,,,,,,,,5,,66,0
16199,note_on,,239,0,15,,,,,,,,,,,,,,,,11,,62,0
16199,note_on,,119,0,5,,,,,,,,,,,,,,,,0,,66,0
16199,note_on,,0,0,18,,,,,,,,,,,,,,,,15,,50,0
16199,note_on,,119,0,13,,,,,,,,,,,,,,,,8,,45,0
16199,note_on,,119,0,11,,,,,,,,,,,,,,,,6,,62,0
16199,note_on,,119,0,18,,,,,,,,,,,,,,,,15,,45,0
16200,note_on,,1,0,6,,,,,,,,,,,,,,,,1,,55,48
16200,note_on,,1,0,15,,,,,,,,,,,,,,,,11,,61,48
16200,note_on,,1,0,18,,,,,,,,,,,,,,,,15,,55,48
16200,note_on,,0,0,18,,,,,,,,,,,,,,,,15,,57,48
16200,note_on,,0,0,18,,,,,,,,,,,,,,,,15,,64,48
16200,note_on,,0,0,18,,,,,,,,,,,,,,,,15,,61,48
16200,note_on,,1,0,17,,,,,,,,,,,,,,,,13,,55,48
16200,note_on,,1,0,13,,,,,,,,,,,,,,,,8,,55,48
16200,note_on,,1,0,16,,,,,,,,,,,,,,,,12,,61,48
16200,note_on,,1,0,11,,,,,,,,,,,,,,,,6,,61,48
16200,note_on,,1,0,14,,,,,,,,,,,,,,,,10,,64,48
16200,note_on,,1,0,5,,,,,,,,,,,,,,,,0,,64,48
16200,note_on,,1,0,10,,,,,,,,,,,,,,,,5,,64,48
16259,note_on,,179,0,12,,,,,,,,,,,,,,,,7,,57,0
16260,note_on,,1,0,12,,,,,,,,,,,,,,,,7,,57,48
16289,note_on,,89,0,10,,,,,,,,,,,,,,,,5,,64,0
16289,note_on,,89,0,13,,,,,,,,,,,,,,,,8,,55,0
16289,note_on,,89,0,14,,,,,,,,,,,,,,,,10,,64,0
16289,note_on,,89,0,5,,,,,,,,,,,,,,,,0,,64,0
16290,note_on,,1,0,10,,,,,,,,,,,,,,,,5,,62,48
16290,note_on,,1,0,13,,,,,,,,,,,,,,,,8,,54,48
16290,note_on,,1,0,14,,,,,,,,,,,,,,,,10,,62,48
16290,note_on,,1,0,5,,,,,,,,,,,,,,,,0,,62,48
16319,note_on,,29,0,10,,,,,,,,,,,,,,,,5,,62,0
16319,note_on,,29,0,13,,,,,,,,,,,,,,,,8,,54,0
16319,note_on,,119,0,16,,,,,,,,,,,,,,,,12,,61,0
16319,note_on,,119,0,17,,,,,,,,,,,,,,,,13,,55,0
16319,note_on,,0,0,18,,,,,,,,,,,,,,,,15,,61,0
16319,note_on,,119,0,15,,,,,,,,,,,,,,,,11,,61,0
16319,note_on,,0,0,18,,,,,,,,,,,,,,,,15,,64,0
16319,note_on,,119,0,18,,,,,,,,,,,,,,,,15,,55,0
16319,note_on,,0,0,18,,,,,,,,,,,,,,,,15,,57,0
16319,note_on,,29,0,5,,,,,,,,,,,,,,,,0,,62,0
16319,note_on,,29,0,14,,,,,,,,,,,,,,,,10,,62,0
16319,note_on,,119,0,6,,,,,,,,,,,,,,,,1,,55,0
16319,note_on,,119,0,11,,,,,,,,,,,,,,,,6,,61,0
16319,note_on,,59,0,12,,,,,,,,,,,,,,,,7,,57,0
16320,note_on,,1,0,13,,,,,,,,,,,,,,,,8,,54,48
16320,note_on,,0,0,18,,,,,,,,,,,,,,,,15,,57,48
16320,note_on,,1,0,5,,,,,,,,,,,,,,,,0,,62,48
16320,note_on,,1,0,6,,,,,,,,,,,,,,,,1,,54,48
16320,note_on,,1,0,10,,,,,,,,,,,,,,,,5,,62,48
16320,note_on,,1,0,12,,,,,,,,,,,,,,,,7,,57,48
16320,note_on,,0,0,18,,,,,,,,,,,,,,,,15,,62,48
16320,note_on,,1,0,18,,,,,,,,,,,,,,,,15,,54,48
16320,note_on,,1,0,14,,,,,,,,,,,,,,,,10,,62,48
16320,note_on,,1,0,11,,,,,,,,,,,,,,,,6,,62,48
16320,note_on,,1,0,15,,,,,,,,,,,,,,,,11,,62,48
16320,note_on,,1,0,17,,,,,,,,,,,,,,,,13,,54,48
16320,note_on,,1,0,16,,,,,,,,,,,,,,,,12,,57,48
16679,note_on,,359,0,17,,,,,,,,,,,,,,,,13,,54,0
16679,note_on,,0,0,18,,,,,,,,,,,,,,,,15,,57,0
16679,note_on,,359,0,18,,,,,,,,,,,,,,,,15,,54,0
16679,note_on,,359,0,6,,,,,,,,,,,,,,,,1,,54,0
16679,note_on,,359,0,14,,,,,,,,,,,,,,,,10,,62,0
16679,note_on,,0,0,18,,,,,,,,,,,,,,,,15,,62,0
16679,note_on,,359,0,15,,,,,,,,,,,,,,,,11,,62,0
16679,note_on,,359,0,16,,,,,,,,,,,,,,,,12,,57,0
16680,note_on,,1,0,16,,,,,,,,,,,,,,,,12,,62,48
16680,note_on,,0,0,18,,,,,,,,,,,,,,,,15,,57,48
16680,note_on,,1,0,14,,,,,,,,,,,,,,,,10,,69,48
16680,note_on,,1,0,17,,,,,,,,,,,,,,,,13,,50,48
16680,note_on,,1,0,6,,,,,,,,,,,,,,,,1,,50,48
16680,note_on,,0,0,18,,,,,,,,,,,,,,,,15,,62,48
16680,note_on,,0,0,18,,,,,,,,,,,,,,,,15,,66,48
16680,note_on,,1,0,18,,,,,,,,,,,,,,,,15,,50,48
16680,note_on,,1,0,15,,,,,,,,,,,,,,,,11,,66,48
16799,note_on,,479,0,13,,,,,,,,,,,,,,,,8,,54,0
16799,note_on,,119,0,18,,,,,,,,,,,,,,,,15,,50,0
16799,note_on,,479,0,11,,,,,,,,,,,,,,,,6,,62,0
16799,note_on,,119,0,16,,,,,,,,,,,,,,,,12,,62,0
16799,note_on,,479,0,10,,,,,,,,,,,,,,,,5,,62,0
16799,note_on,,0,0,18,,,,,,,,,,,,,,,,15,,66,0
16799,note_on,,0,0,18,,,,,,,,,,,,,,,,15,,62,0
16799,note_on,,0,0,18,,,,,,,,,,,,,,,,15,,57,0
16799,note_on,,119,0,15,,,,,,,,,,,,,,,,11,,66,0
16799,note_on,,119,0,14,,,,,,,,,,,,,,,,10,,69,0
16799,note_on,,479,0,12,,,,,,,,,,,,,,,,7,,57,0
16799,note_on,,479,0,5,,,,,,,,,,,,,,,,0,,62,0
16799,note_on,,119,0,17,,,,,,,,,,,,,,,,13,,50,0
16799,note_on,,119,0,6,,,,,,,,,,,,,,,,1,,50,0
16800,note_on,,1,0,18,,,,,,,,,,,,,,,,15,,49,48
16800,note_on,,0,0,18,,,,,,,,,,,,,,,,15,,64,48
16800,note_on,,0,0,18,,,,,,,,,,,,,,,,15,,57,48
16800,note_on,,1,0,15,,,,,,,,,,,,,,,,11,,64,48
16800,note_on,,1,0,16,,,,,,,,,,,,,,,,12,,57,48
16800,note_on,,1,0,17,,,,,,,,,,,,,,,,13,,49,48
16800,note_on,,1,0,6,,,,,,,,,,,,,,,,1,,49,48
16800,note_on,,1,0,14,,,,,,,,,,,,,,,,10,,69,48
16919,note_on,,119,0,6,,,,,,,,,,,,,,,,1,,49,0
16919,note_on,,0,0,18,,,,,,,,,,,,,,,,15,,57,0
16919,note_on,,119,0,17,,,,,,,,,,,,,,,,13,,49,0
16919,note_on,,0,0,18,,,,,,,,,,,,,,,,15,,64,0
16919,note_on,,119,0,14,,,,,,,,,,,,,,,,10,,69,0
16919,note_on,,119,0,15,,,,,,,,,,,,,,,,11,,64,0
16919,note_on,,119,0,18,,,,,,,,,,,,,,,,15,,49,0
16919,note_on,,119,0,16,,,,,,,,,,,,,,,,12,,57,0
16920,note_on,,121,0,11,,,,,,,,,,,,,,,,6,,62,48
16920,note_on,,1,0,17,,,,,,,,,,,,,,,,13,,47,48
16920,note_on,,0,0,18,,,,,,,,,,,,,,,,15,,62,48
16920,note_on,,1,0,15,,,,,,,,,,,,,,,,11,,62,48
16920,note_on,,0,0,18,,,,,,,,,,,,,,,,15,,59,48
16920,note_on,,0,0,18,,,,,,,,,,,,,,,,15,,50,48
16920,note_on,,1,0,18,,,,,,,,,,,,,,,,15,,47,48
16920,note_on,,1,0,14,,,,,,,,,,,,,,,,10,,67,48
16920,note_on,,1,0,6,,,,,,,,,,,,,,,,1,,47,48
16920,note_on,,1,0,16,,,,,,,,,,,,,,,,12,,50,48
17039,note_on,,0,0,18,,,,,,,,,,,,,,,,15,,59,0
17039,note_on,,119,0,17,,,,,,,,,,,,,,,,13,,47,0
17039,note_on,,119,0,16,,,,,,,,,,,,,,,,12,,50,0
17039,note_on,,119,0,14,,,,,,,,,,,,,,,,10,,67,0
17039,note_on,,119,0,6,,,,,,,,,,,,,,,,1,,47,0
17039,note_on,,119,0,18,,,,,,,,,,,,,,,,15,,47,0
17040,note_on,,241,0,5,,,,,,,,,,,,,,,,0,,66,48
17040,note_on,,1,0,16,,,,,,,,,,,,,,,,12,,57,48
17040,note_on,,1,0,14,,,,,,,,,,,,,,,,10,,66,48
17040,note_on,,0,0,18,,,,,,,,,,,,,,,,15,,54,48
17040,note_on,,1,0,18,,,,,,,,,,,,,,,,15,,45,48
17040,note_on,,1,0,6,,,,,,,,,,,,,,,,1,,45,48
17040,note_on,,241,0,13,,,,,,,,,,,,,,,,8,,45,48
17040,note_on,,241,0,10,,,,,,,,,,,,,,,,5,,66,48
17040,note_on,,1,0,17,,,,,,,,,,,,,,,,13,,45,48
17040,note_on,,241,0,12,,,,,,,,,,,,,,,,7,,57,48
17159,note_on,,239,0,15,,,,,,,,,,,,,,,,11,,62,0
17159,note_on,,239,0,11,,,,,,,,,,,,,,,,6,,62,0
17159,note_on,,119,0,14,,,,,,,,,,,,,,,,10,,66,0
17159,note_on,,119,0,18,,,,,,,,,,,,,,,,15,,50,0
17159,note_on,,119,0,16,,,,,,,,,,,,,,,,12,,57,0
17159,note_on,,0,0,18,,,,,,,,,,,,,,,,15,,62,0
17159,note_on,,119,0,12,,,,,,,,,,,,,,,,7,,57,0
17159,note_on,,119,0,5,,,,,,,,,,,,,,,,0,,66,0
17159,note_on,,119,0,10,,,,,,,,,,,,,,,,5,,66,0
17159,note_on,,0,0,18,,,,,,,,,,,,,,,,15,,54,0
17160,note_on,,1,0,18,,,,,,,,,,,,,,,,15,,61,48
17160,note_on,,0,0,18,,,,,,,,,,,,,,,,15,,52,48
17160,note_on,,1,0,14,,,,,,,,,,,,,,,,10,,64,48
17160,note_on,,0,0,18,,,,,,,,,,,,,,,,15,,57,48
17160,note_on,,1,0,11,,,,,,,,,,,,,,,,6,,61,48
17160,note_on,,1,0,16,,,,,,,,,,,,,,,,12,,55,48
17160,note_on,,1,0,12,,,,,,,,,,,,,,,,7,,55,48
17160,note_on,,1,0,5,,,,,,,,,,,,,,,,0,,64,48
17160,note_on,,1,0,15,,,,,,,,,,,,,,,,11,,61,48
17160,note_on,,1,0,10,,,,,,,,,,,,,,,,5,,64,48
17219,note_on,,179,0,17,,,,,,,,,,,,,,,,13,,45,0
17219,note_on,,59,0,18,,,,,,,,,,,,,,,,15,,45,0
17219,note_on,,179,0,13,,,,,,,,,,,,,,,,8,,45,0
17219,note_on,,179,0,6,,,,,,,,,,,,,,,,1,,45,0
17220,note_on,,1,0,18,,,,,,,,,,,,,,,,15,,45,48
17220,note_on,,1,0,6,,,,,,,,,,,,,,,,1,,45,48
17220,note_on,,1,0,17,,,,,,,,,,,,,,,,13,,45,48
17220,note_on,,1,0,13,,,,,,,,,,,,,,,,8,,45,48
17249,note_on,,89,0,14,,,,,,,,,,,,,,,,10,,64,0
17249,note_on,,89,0,5,,,,,,,,,,,,,,,,0,,64,0
17249,note_on,,89,0,12,,,,,,,,,,,,,,,,7,,55,0
17249,note_on,,89,0,16,,,,,,,,,,,,,,,,12,,55,0
17249,note_on,,89,0,10,,,,,,,,,,,,,,,,5,,64,0
17249,note_on,,89,0,15,,,,,,,,,,,,,,,,11,,61,0
17250,note_on,,1,0,15,,,,,,,,,,,,,,,,11,,62,48
17250,note_on,,1,0,10,,,,,,,,,,,,,,,,5,,62,48
17250,note_on,,1,0,16,,,,,,,,,,,,,,,,12,,54,48
17250,note_on,,1,0,5,,,,,,,,,,,,,,,,0,,62,48
17250,note_on,,1,0,12,,,,,,,,,,,,,,,,7,,54,48
17250,note_on,,1,0,14,,,,,,,,,,,,,,,,10,,62,48
17279,note_on,,59,0,6,,,,,,,,,,,,,,,,1,,45,0
17279,note_on,,29,0,16,,,,,,,,,,,,,,,,12,,54,0
17279,note_on,,29,0,5,,,,,,,,,,,,,,,,0,,62,0
17279,note_on,,119,0,11,,,,,,,,,,,,,,,,6,,61,0
17279,note_on,,29,0,10,,,,,,,,,,,,,,,,5,,62,0
17279,note_on,,59,0,17,,,,,,,,,,,,,,,,13,,45,0
17279,note_on,,0,0,18,,,,,,,,,,,,,,,,15,,45,0
17279,note_on,,0,0,18,,,,,,,,,,,,,,,,15,,52,0
17279,note_on,,0,0,18,,,,,,,,,,,,,,,,15,,57,0
17279,note_on,,59,0,18,,,,,,,,,,,,,,,,15,,61,0
17279,note_on,,29,0,15,,,,,,,,,,,,,,,,11,,62,0
17279,note_on,,29,0,14,,,,,,,,,,,,,,,,10,,62,0
17279,note_on,,29,0,12,,,,,,,,,,,,,,,,7,,54,0
17279,note_on,,59,0,13,,,,,,,,,,,,,,,,8,,45,0
17280,note_on,,0,0,18,,,,,,,,,,,,,,,,15,,62,48
17280,note_on,,1,0,17,,,,,,,,,,,,,,,,13,,50,48
17280,note_on,,1,0,14,,,,,,,,,,,,,,,,10,,62,48
17280,note_on,,1,0,11,,,,,,,,,,,,,,,,6,,62,48
17280,note_on,,1,0,18,,,,,,,,,,,,,,,,15,,50,48
17280,note_on,,1,0,15,,,,,,,,,,,,,,,,11,,57,48
17280,note_on,,0,0,18,,,,,,,,,,,,,,,,15,,54,48
17280,note_on,,0,0,18,,,,,,,,,,,,,,,,15,,57,48
17280,note_on,,1,0,16,,,,,,,,,,,,,,,,12,,54,48
17280,note_on,,1,0,12,,,,,,,,,,,,,,,,7,,54,48
17280,note_on,,1,0,10,,,,,,,,,,,,,,,,5,,62,48
17280,note_on,,1,0,13,,,,,,,,,,,,,,,,8,,50,48
17280,note_on,,1,0,5,,,,,,,,,,,,,,,,0,,62,48
17280,note_on,,1,0,6,,,,,,,,,,,,,,,,1,,50,48
17639,note_on,,359,0,5,,,,,,,,,,,,,,,,0,,62,0
17639,note_on,,359,0,15,,,,,,,,,,,,,,,,11,,57,0
17639,note_on,,359,0,11,,,,,,,,,,,,,,,,6,,62,0
17639,note_on,,359,0,17,,,,,,,,,,,,,,,,13,,50,0
17639,note_on,,359,0,12,,,,,,,,,,,,,,,,7,,54,0
17639,note_on,,359,0,16,,,,,,,,,,,,,,,,12,,54,0
17639,note_on,,359,0,13,,,,,,,,,,,,,,,,8,,50,0
17639,note_on,,359,0,10,,,,,,,,,,,,,,,,5,,62,0
17639,note_on,,359,0,6,,,,,,,,,,,,,,,,1,,50,0
17639,note_on,,0,0,18,,,,,,,,,,,,,,,,15,,62,0
17639,note_on,,0,0,18,,,,,,,,,,,,,,,,15,,57,0
17639,note_on,,0,0,18,,,,,,,,,,,,,,,,15,,54,0
17639,note_on,,359,0,18,,,,,,,,,,,,,,,,15,,50,0
17639,note_on,,359,0,14,,,,,,,,,,,,,,,,10,,62,0
17640,note_on,,0,0,18,,,,,,,,,,,,,,,,15,,69,72
17640,note_on,,1,0,10,,,,,,,,,,,,,,,,5,,78,72
17640,note_on,,1,0,5,,,,,,,,,,,,,,,,0,,78,72
17640,note_on,,1,0,15,,,,,,,,,,,,,,,,11,,78,72
17640,note_on,,1,0,11,,,,,,,,,,,,,,,,6,,69,72
17640,note_on,,1,0,17,,,,,,,,,,,,,,,,13,,62,72
17640,note_on,,0,0,18,,,,,,,,,,,,,,,,15,,66,72
17640,note_on,,1,0,12,,,,,,,,,,,,,,,,7,,62,72
17640,note_on,,1921,0,7,,,,,,,,,,,,,,,,2,,81,72
17640,note_on,,1,0,16,,,,,,,,,,,,,,,,12,,74,72
17640,note_on,,1921,0,8,,,,,,,,,,,,,,,,3,,78,72
17640,note_on,,1,0,14,,,,,,,,,,,,,,,,10,,81,72
17640,note_on,,1,0,13,,,,,,,,,,,,,,,,8,,62,72
17640,note_on,,0,0,18,,,,,,,,,,,,,,,,15,,78,72
17640,note_on,,1,0,6,,,,,,,,,,,,,,,,1,,62,72
17640,note_on,,0,0,18,,,,,,,,,,,,,,,,15,,74,72
17640,note_on,,1,0,18,,,,,,,,,,,,,,,,15,,62,72
17640,note_on,,1921,0,9,,,,,,,,,,,,,,,,4,,50,72
17759,note_on,,119,0,18,,,,,,,,,,,,,,,,15,,62,0
17759,note_on,,119,0,5,,,,,,,,,,,,,,,,0,,78,0
17759,note_on,,119,0,11,,,,,,,,,,,,,,,,6,,69,0
17759,note_on,,0,0,18,,,,,,,,,,,,,,,,15,,78,0
17759,note_on,,119,0,6,,,,,,,,,,,,,,,,1,,62,0
17759,note_on,,119,0,17,,,,,,,,,,,,,,,,13,,62,0
17759,note_on,,0,0,18,,,,,,,,,,,,,,,,15,,74,0
17759,note_on,,119,0,8,,,,,,,,,,,,,,,,3,,78,0
17759,note_on,,119,0,14,,,,,,,,,,,,,,,,10,,81,0
17759,note_on,,119,0,13,,,,,,,,,,,,,,,,8,,62,0
17759,note_on,,119,0,10,,,,,,,,,,,,,,,,5,,78,0
17759,note_on,,119,0,12,,,,,,,,,,,,,,,,7,,62,0
17759,note_on,,119,0,9,,,,,,,,,,,,,,,,4,,50,0
17759,note_on,,119,0,7,,,,,,,,,,,,,,,,2,,81,0
17759,note_on,,0,0,18,,,,,,,,,,,,,,,,15,,69,0
17759,note_on,,119,0,16,,,,,,,,,,,,,,,,12,,74,0
17759,note_on,,0,0,18,,,,,,,,,,,,,,,,15,,66,0
17759,note_on,,119,0,15,,,,,,,,,,,,,,,,11,,78,0
17760,note_on,,0,0,18,,,,,,,,,,,,,,,,15,,69,72
17760,note_on,,1,0,5,,,,,,,,,,,,,,,,0,,76,72
17760,note_on,,1,0,6,,,,,,,,,,,,,,,,1,,61,72
17760,note_on,,1,0,15,,,,,,,,,,,,,,,,11,,76,72
17760,note_on,,0,0,18,,,,,,,,,,,,,,,,15,,64,72
17760,note_on,,1,0,11,,,,,,,,,,,,,,,,6,,69,72
17760,note_on,,1,0,17,,,,,,,,,,,,,,,,13,,61,72
17760,note_on,,1,0,13,,,,,,,,,,,,,,,,8,,61,72
17760,note_on,,1,0,9,,,,,,,,,,,,,,,,4,,45,72
17760,note_on,,1,0,18,,,,,,,,,,,,,,,,15,,61,72
17760,note_on,,0,0,18,,,,,,,,,,,,,,,,15,,76,72
17760,note_on,,1,0,8,,,,,,,,,,,,,,,,3,,76,72
17760,note_on,,0,0,18,,,,,,,,,,,,,,,,15,,81,72
17760,note_on,,1,0,14,,,,,,,,,,,,,,,,10,,81,72
17760,note_on,,1,0,10,,,,,,,,,,,,,,,,5,,76,72
17760,note_on,,1,0,12,,,,,,,,,,,,,,,,7,,64,72
17760,note_on,,1,0,16,,,,,,,,,,,,,,,,12,,69,72
17760,note_on,,1,0,7,,,,,,,,,,,,,,,,2,,81,72
17879,note_on,,119,0,10,,,,,,,,,,,,,,,,5,,76,0
17879,note_on,,119,0,13,,,,,,,,,,,,,,,,8,,61,0
17879,note_on,,119,0,12,,,,,,,,,,,,,,,,7,,64,0
17879,note_on,,119,0,16,,,,,,,,,,,,,,,,12,,69,0
17879,note_on,,119,0,6,,,,,,,,,,,,,,,,1,,61,0
17879,note_on,,119,0,9,,,,,,,,,,,,,,,,4,,45,0
17879,note_on,,119,0,7,,,,,,,,,,,,,,,,2,,81,0
17879,note_on,,119,0,8,,,,,,,,,,,,,,,,3,,76,0
17879,note_on,,0,0,18,,,,,,,,,,,,,,,,15,,64,0
17879,note_on,,0,0,18,,,,,,,,,,,,,,,,15,,69,0
17879,note_on,,0,0,18,,,,,,,,,,,,,,,,15,,76,0
17879,note_on,,0,0,18,,,,,,,,,,,,,,,,15,,81,0
17879,note_on,,119,0,18,,,,,,,,,,,,,,,,15,,61,0
17879,note_on,,119,0,14,,,,,,,,,,,,,,,,10,,81,0
17879,note_on,,119,0,17,,,,,,,,,,,,,,,,13,,61,0
17879,note_on,,119,0,11,,,,,,,,,,,,,,,,6,,69,0
17879,note_on,,119,0,15,,,,,,,,,,,,,,,,11,,76,0
17879,note_on,,119,0,5,,,,,,,,,,,,,,,,0,,76,0
17880,note_on,,1,0,13,,,,,,,,,,,,,,,,8,,59,72
17880,note_on,,1,0,9,,,,,,,,,,,,,,,,4,,50,72
17880,note_on,,1,0,15,,,,,,,,,,,,,,,,11,,74,72
17880,note_on,,1,0,17,,,,,,,,,,,,,,,,13,,59,72
17880,note_on,,1,0,7,,,,,,,,,,,,,,,,2,,79,72
17880,note_on,,1,0,5,,,,,,,,,,,,,,,,0,,74,72
17880,note_on,,1,0,6,,,,,,,,,,,,,,,,1,,59,72
17880,note_on,,1,0,8,,,,,,,,,,,,,,,,3,,74,72
17880,note_on,,1,0,14,,,,,,,,,,,,,,,,10,,79,72
17880,note_on,,1,0,12,,,,,,,,,,,,,,,,7,,67,72
17880,note_on,,0,0,18,,,,,,,,,,,,,,,,15,,62,72
17880,note_on,,0,0,18,,,,,,,,,,,,,,,,15,,67,72
17880,note_on,,0,0,18,,,,,,,,,,,,,,,,15,,71,72
17880,note_on,,0,0,18,,,,,,,,,,,,,,,,15,,74,72
17880,note_on,,1,0,18,,,,,,,,,,,,,,,,15,,59,72
17880,note_on,,1,0,10,,,,,,,,,,,,,,,,5,,74,72
17880,note_on,,1,0,16,,,,,,,,,,,,,,,,12,,62,72
17880,note_on,,1,0,11,,,,,,,,,,,,,,,,6,,62,72
17999,note_on,,119,0,6,,,,,,,,,,,,,,,,1,,59,0
17999,note_on,,0,0,18,,,,,,,,,,,,,,,,15,,62,0
17999,note_on,,119,0,17,,,,,,,,,,,,,,,,13,,59,0
17999,note_on,,119,0,12,,,,,,,,,,,,,,,,7,,67,0
17999,note_on,,119,0,16,,,,,,,,,,,,,,,,12,,62,0
17999,note_on,,119,0,5,,,,,,,,,,,,,,,,0,,74,0
17999,note_on,,119,0,9,,,,,,,,,,,,,,,,4,,50,0
17999,note_on,,0,0,18,,,,,,,,,,,,,,,,15,,74,0
17999,note_on,,0,0,18,,,,,,,,,,,,,,,,15,,67,0
17999,note_on,,0,0,18,,,,,,,,,,,,,,,,15,,71,0
17999,note_on,,119,0,10,,,,,,,,,,,,,,,,5,,74,0
17999,note_on,,119,0,8,,,,,,,,,,,,,,,,3,,74,0
17999,note_on,,119,0,13,,,,,,,,,,,,,,,,8,,59,0
17999,note_on,,119,0,18,,,,,,,,,,,,,,,,15,,59,0
17999,note_on,,119,0,14,,,,,,,,,,,,,,,,10,,79,0
17999,note_on,,119,0,11,,,,,,,,,,,,,,,,6,,62,0
17999,note_on,,119,0,7,,,,,,,,,,,,,,,,2,,79,0
17999,note_on,,119,0,15,,,,,,,,,,,,,,,,11,,74,0
18000,note_on,,1,0,8,,,,,,,,,,,,,,,,3,,74,72
18000,note_on,,1,0,10,,,,,,,,,,,,,,,,5,,74,72
18000,note_on,,1,0,7,,,,,,,,,,,,,,,,2,,78,72
18000,note_on,,1,0,16,,,,,,,,,,,,,,,,12,,69,72
18000,note_on,,1,0,14,,,,,,,,,,,,,,,,10,,78,72
18000,note_on,,1,0,9,,,,,,,,,,,,,,,,4,,45,72
18000,note_on,,0,0,18,,,,,,,,,,,,,,,,15,,62,72
18000,note_on,,1,0,18,,,,,,,,,,,,,,,,15,,57,72
18000,note_on,,1,0,5,,,,,,,,,,,,,,,,0,,74,72
18000,note_on,,1,0,13,,,,,,,,,,,,,,,,8,,57,72
18000,note_on,,1,0,6,,,,,,,,,,,,,,,,1,,57,72
18000,note_on,,1,0,11,,,,,,,,,,,,,,,,6,,66,72
18000,note_on,,1,0,15,,,,,,,,,,,,,,,,11,,74,72
18000,note_on,,1,0,12,,,,,,,,,,,,,,,,7,,57,72
18000,note_on,,0,0,18,,,,,,,,,,,,,,,,15,,78,72
18000,note_on,,0,0,18,,,,,,,,,,,,,,,,15,,74,72
18000,note_on,,0,0,18,,,,,,,,,,,,,,,,15,,69,72
18000,note_on,,1,0,17,,,,,,,,,,,,,,,,13,,57,72
18119,note_on,,0,0,18,,,,,,,,,,,,,,,,15,,69,0
18119,note_on,,119,0,7,,,,,,,,,,,,,,,,2,,78,0
18119,note_on,,119,0,10,,,,,,,,,,,,,,,,5,,74,0
18119,note_on,,119,0,15,,,,,,,,,,,,,,,,11,,74,0
18119,note_on,,119,0,11,,,,,,,,,,,,,,,,6,,66,0
18119,note_on,,119,0,8,,,,,,,,,,,,,,,,3,,74,0
18119,note_on,,119,0,14,,,,,,,,,,,,,,,,10,,78,0
18119,note_on,,119,0,17,,,,,,,,,,,,,,,,13,,57,0
18119,note_on,,119,0,16,,,,,,,,,,,,,,,,12,,69,0
18119,note_on,,119,0,13,,,,,,,,,,,,,,,,8,,57,0
18119,note_on,,119,0,5,,,,,,,,,,,,,,,,0,,74,0
18119,note_on,,0,0,18,,,,,,,,,,,,,,,,15,,74,0
18119,note_on,,0,0,18,,,,,,,,,,,,,,,,15,,78,0
18119,note_on,,119,0,18,,,,,,,,,,,,,,,,15,,57,0
18119,note_on,,0,0,18,,,,,,,,,,,,,,,,15,,62,0
18119,note_on,,119,0,6,,,,,,,,,,,,,,,,1,,57,0
18120,note_on,,1,0,18,,,,,,,,,,,,,,,,15,,55,72
18120,note_on,,1,0,10,,,,,,,,,,,,,,,,5,,73,72
18120,note_on,,1,0,7,,,,,,,,,,,,,,,,2,,76,72
18120,note_on,,1,0,13,,,,,,,,,,,,,,,,8,,55,72
18120,note_on,,0,0,18,,,,,,,,,,,,,,,,15,,57,72
18120,note_on,,0,0,18,,,,,,,,,,,,,,,,15,,73,72
18120,note_on,,1,0,15,,,,,,,,,,,,,,,,11,,73,72
18120,note_on,,0,0,18,,,,,,,,,,,,,,,,15,,69,72
18120,note_on,,1,0,8,,,,,,,,,,,,,,,,3,,69,72
18120,note_on,,1,0,5,,,,,,,,,,,,,,,,0,,73,72
18120,note_on,,1,0,16,,,,,,,,,,,,,,,,12,,64,72
18120,note_on,,1,0,17,,,,,,,,,,,,,,,,13,,55,72
18120,note_on,,1,0,6,,,,,,,,,,,,,,,,1,,55,72
18120,note_on,,0,0,18,,,,,,,,,,,,,,,,15,,76,72
18120,note_on,,1,0,11,,,,,,,,,,,,,,,,6,,64,72
18120,note_on,,1,0,14,,,,,,,,,,,,,,,,10,,76,72
18179,note_on,,179,0,9,,,,,,,,,,,,,,,,4,,45,0
18179,note_on,,179,0,12,,,,,,,,,,,,,,,,7,,57,0
18180,note_on,,1,0,9,,,,,,,,,,,,,,,,4,,45,72
18180,note_on,,1,0,12,,,,,,,,,,,,,,,,7,,57,72
18209,note_on,,89,0,11,,,,,,,,,,,,,,,,6,,64,0
18209,note_on,,89,0,7,,,,,,,,,,,,,,,,2,,76,0
18209,note_on,,89,0,13,,,,,,,,,,,,,,,,8,,55,0
18209,note_on,,89,0,14,,,,,,,,,,,,,,,,10,,76,0
18210,note_on,,1,0,14,,,,,,,,,,,,,,,,10,,74,72
18210,note_on,,1,0,7,,,,,,,,,,,,,,,,2,,74,72
18210,note_on,,1,0,13,,,,,,,,,,,,,,,,8,,54,72
18210,note_on,,1,0,11,,,,,,,,,,,,,,,,6,,62,72
18239,note_on,,119,0,16,,,,,,,,,,,,,,,,12,,64,0
18239,note_on,,119,0,18,,,,,,,,,,,,,,,,15,,55,0
18239,note_on,,119,0,8,,,,,,,,,,,,,,,,3,,69,0
18239,note_on,,29,0,14,,,,,,,,,,,,,,,,10,,74,0
18239,note_on,,29,0,11,,,,,,,,,,,,,,,,6,,62,0
18239,note_on,,119,0,17,,,,,,,,,,,,,,,,13,,55,0
18239,note_on,,29,0,13,,,,,,,,,,,,,,,,8,,54,0
18239,note_on,,59,0,12,,,,,,,,,,,,,,,,7,,57,0
18239,note_on,,119,0,15,,,,,,,,,,,,,,,,11,,73,0
18239,note_on,,0,0,18,,,,,,,,,,,,,,,,15,,57,0
18239,note_on,,59,0,9,,,,,,,,,,,,,,,,4,,45,0
18239,note_on,,0,0,18,,,,,,,,,,,,,,,,15,,76,0
18239,note_on,,0,0,18,,,,,,,,,,,,,,,,15,,73,0
18239,note_on,,0,0,18,,,,,,,,,,,,,,,,15,,69,0
18239,note_on,,29,0,7,,,,,,,,,,,,,,,,2,,74,0
18239,note_on,,119,0,10,,,,,,,,,,,,,,,,5,,73,0
18239,note_on,,119,0,6,,,,,,,,,,,,,,,,1,,55,0
18239,note_on,,119,0,5,,,,,,,,,,,,,,,,0,,73,0
18240,note_on,,1,0,13,,,,,,,,,,,,,,,,8,,54,72
18240,note_on,,1,0,18,,,,,,,,,,,,,,,,15,,54,72
18240,note_on,,1,0,11,,,,,,,,,,,,,,,,6,,62,72
18240,note_on,,1,0,14,,,,,,,,,,,,,,,,10,,74,72
18240,note_on,,1,0,17,,,,,,,,,,,,,,,,13,,54,72
18240,note_on,,1,0,12,,,,,,,,,,,,,,,,7,,57,72
18240,note_on,,1,0,9,,,,,,,,,,,,,,,,4,,50,72
18240,note_on,,0,0,18,,,,,,,,,,,,,,,,15,,57,72
18240,note_on,,0,0,18,,,,,,,,,,,,,,,,15,,62,72
18240,note_on,,0,0,18,,,,,,,,,,,,,,,,15,,74,72
18240,note_on,,1,0,16,,,,,,,,,,,,,,,,12,,66,72
18240,note_on,,0,0,18,,,,,,,,,,,,,,,,15,,69,72
18240,note_on,,1,0,6,,,,,,,,,,,,,,,,1,,54,72
18240,note_on,,1,0,10,,,,,,,,,,,,,,,,5,,74,72
18240,note_on,,1,0,7,,,,,,,,,,,,,,,,2,,74,72
18240,note_on,,1,0,15,,,,,,,,,,,,,,,,11,,69,72
18240,note_on,,1,0,5,,,,,,,,,,,,,,,,0,,74,72
18240,note_on,,1,0,8,,,,,,,,,,,,,,,,3,,69,72
18419,note_on,,179,0,18,,,,,,,,,,,,,,,,15,,54,0
18419,note_on,,0,0,18,,,,,,,,,,,,,,,,15,,69,0
18419,note_on,,0,0,18,,,,,,,,,,,,,,,,15,,62,0
18419,note_on,,179,0,10,,,,,,,,,,,,,,,,5,,74,0
18419,note_on,,179,0,13,,,,,,,,,,,,,,,,8,,54,0
18419,note_on,,179,0,14,,,,,,,,,,,,,,,,10,,74,0
18419,note_on,,179,0,17,,,,,,,,,,,,,,,,13,,54,0
18419,note_on,,0,0,18,,,,,,,,,,,,,,,,15,,57,0
18419,note_on,,179,0,6,,,,,,,,,,,,,,,,1,,54,0
18419,note_on,,179,0,8,,,,,,,,,,,,,,,,3,,69,0
18419,note_on,,179,0,16,,,,,,,,,,,,,,,,12,,66,0
18419,note_on,,179,0,9,,,,,,,,,,,,,,,,4,,50,0
18419,note_on,,179,0,5,,,,,,,,,,,,,,,,0,,74,0
18419,note_on,,179,0,12,,,,,,,,,,,,,,,,7,,57,0
18419,note_on,,179,0,7,,,,,,,,,,,,,,,,2,,74,0
18419,note_on,,179,0,15,,,,,,,,,,,,,,,,11,,69,0
18419,note_on,,179,0,11,,,,,,,,,,,,,,,,6,,62,0
18419,note_on,,0,0,18,,,,,,,,,,,,,,,,15,,74,0
18420,note_on,,1,0,9,,,,,,,,,,,,,,,,4,,45,72
18420,note_on,,0,0,18,,,,,,,,,,,,,,,,15,,73,72
18420,note_on,,0,0,18,,,,,,,,,,,,,,,,15,,76,72
18420,note_on,,1,0,14,,,,,,,,,,,,,,,,10,,76,72
18420,note_on,,1,0,12,,,,,,,,,,,,,,,,7,,55,72
18420,note_on,,1,0,13,,,,,,,,,,,,,,,,8,,52,72
18420,note_on,,1,0,6,,,,,,,,,,,,,,,,1,,52,72
18420,note_on,,1,0,18,,,,,,,,,,,,,,,,15,,52,72
18420,note_on,,0,0,18,,,,,,,,,,,,,,,,15,,67,72
18420,note_on,,0,0,18,,,,,,,,,,,,,,,,15,,55,72
18420,note_on,,1,0,10,,,,,,,,,,,,,,,,5,,73,72
18420,note_on,,1,0,17,,,,,,,,,,,,,,,,13,,52,72
18420,note_on,,1,0,5,,,,,,,,,,,,,,,,0,,73,72
18420,note_on,,1,0,11,,,,,,,,,,,,,,,,6,,64,72
18420,note_on,,1,0,7,,,,,,,,,,,,,,,,2,,76,72
18420,note_on,,1,0,8,,,,,,,,,,,,,,,,3,,69,72
18420,note_on,,1,0,16,,,,,,,,,,,,,,,,12,,67,72
18420,note_on,,1,0,15,,,,,,,,,,,,,,,,11,,73,72
18479,note_on,,0,0,18,,,,,,,,,,,,,,,,15,,55,0
18479,note_on,,0,0,18,,,,,,,,,,,,,,,,15,,73,0
18479,note_on,,0,0,18,,,,,,,,,,,,,,,,15,,67,0
18479,note_on,,0,0,18,,,,,,,,,,,,,,,,15,,76,0
18479,note_on,,59,0,18,,,,,,,,,,,,,,,,15,,52,0
18479,note_on,,59,0,6,,,,,,,,,,,,,,,,1,,52,0
18479,note_on,,59,0,12,,,,,,,,,,,,,,,,7,,55,0
18479,note_on,,59,0,11,,,,,,,,,,,,,,,,6,,64,0
18479,note_on,,59,0,14,,,,,,,,,,,,,,,,10,,76,0
18479,note_on,,59,0,15,,,,,,,,,,,,,,,,11,,73,0
18479,note_on,,59,0,8,,,,,,,,,,,,,,,,3,,69,0
18479,note_on,,59,0,17,,,,,,,,,,,,,,,,13,,52,0
18479,note_on,,59,0,10,,,,,,,,,,,,,,,,5,,73,0
18479,note_on,,59,0,16,,,,,,,,,,,,,,,,12,,67,0
18479,note_on,,59,0,7,,,,,,,,,,,,,,,,2,,76,0
18479,note_on,,59,0,9,,,,,,,,,,,,,,,,4,,45,0
18479,note_on,,59,0,13,,,,,,,,,,,,,,,,8,,52,0
18479,note_on,,59,0,5,,,,,,,,,,,,,,,,0,,73,0
18480,note_on,,1,0,13,,,,,,,,,,,,,,,,8,,50,72
18480,note_on,,1,0,6,,,,,,,,,,,,,,,,1,,50,72
18480,note_on,,1,0,12,,,,,,,,,,,,,,,,7,,57,72
18480,note_on,,1,0,10,,,,,,,,,,,,,,,,5,,74,72
18480,note_on,,1,0,17,,,,,,,,,,,,,,,,13,,50,72
18480,note_on,,1,0,11,,,,,,,,,,,,,,,,6,,66,72
18480,note_on,,1,0,18,,,,,,,,,,,,,,,,15,,50,72
18480,note_on,,0,0,18,,,,,,,,,,,,,,,,15,,78,72
18480,note_on,,0,0,18,,,,,,,,,,,,,,,,15,,74,72
18480,note_on,,0,0,18,,,,,,,,,,,,,,,,15,,66,72
18480,note_on,,1,0,15,,,,,,,,,,,,,,,,11,,74,72
18480,note_on,,1,0,5,,,,,,,,,,,,,,,,0,,74,72
18480,note_on,,0,0,18,,,,,,,,,,,,,,,,15,,57,72
18480,note_on,,1,0,7,,,,,,,,,,,,,,,,2,,78,72
18480,note_on,,1,0,8,,,,,,,,,,,,,,,,3,,69,72
18480,note_on,,1,0,16,,,,,,,,,,,,,,,,12,,69,72
18480,note_on,,1,0,9,,,,,,,,,,,,,,,,4,,50,72
18480,note_on,,1,0,14,,,,,,,,,,,,,,,,10,,78,72
18599,note_on,,119,0,10,,,,,,,,,,,,,,,,5,,74,0
18599,note_on,,119,0,16,,,,,,,,,,,,,,,,12,,69,0
18599,note_on,,119,0,17,,,,,,,,,,,,,,,,13,,50,0
18599,note_on,,119,0,9,,,,,,,,,,,,,,,,4,,50,0
18599,note_on,,119,0,13,,,,,,,,,,,,,,,,8,,50,0
18599,note_on,,119,0,14,,,,,,,,,,,,,,,,10,,78,0
18599,note_on,,119,0,12,,,,,,,,,,,,,,,,7,,57,0
18599,note_on,,119,0,8,,,,,,,,,,,,,,,,3,,69,0
18599,note_on,,119,0,6,,,,,,,,,,,,,,,,1,,50,0
18599,note_on,,119,0,11,,,,,,,,,,,,,,,,6,,66,0
18599,note_on,,119,0,7,,,,,,,,,,,,,,,,2,,78,0
18599,note_on,,119,0,5,,,,,,,,,,,,,,,,0,,74,0
18599,note_on,,119,0,15,,,,,,,,,,,,,,,,11,,74,0
18599,note_on,,0,0,18,,,,,,,,,,,,,,,,15,,57,0
18599,note_on,,0,0,18,,,,,,,,,,,,,,,,15,,66,0
18599,note_on,,0,0,18,,,,,,,,,,,,,,,,15,,74,0
18599,note_on,,119,0,18,,,,,,,,,,,,,,,,15,,50,0
18599,note_on,,0,0,18,,,,,,,,,,,,,,,,15,,78,0
18600,note_on,,1,0,5,,,,,,,,,,,,,,,,0,,74,72
18600,note_on,,0,0,18,,,,,,,,,,,,,,,,15,,74,72
18600,note_on,,1,0,13,,,,,,,,,,,,,,,,8,,59,72
18600,note_on,,1,0,12,,,,,,,,,,,,,,,,7,,62,72
18600,note_on,,0,0,18,,,,,,,,,,,,,,,,15,,71,72
18600,note_on,,1,0,14,,,,,,,,,,,,,,,,10,,80,72
18600,note_on,,0,0,18,,,,,,,,,,,,,,,,15,,68,72
18600,note_on,,1,0,8,,,,,,,,,,,,,,,,3,,74,72
18600,note_on,,1,0,10,,,,,,,,,,,,,,,,5,,74,72
18600,note_on,,1,0,18,,,,,,,,,,,,,,,,15,,59,72
18600,note_on,,1,0,9,,,,,,,,,,,,,,,,4,,50,72
18600,note_on,,1,0,15,,,,,,,,,,,,,,,,11,,74,72
18600,note_on,,1,0,6,,,,,,,,,,,,,,,,1,,59,72
18600,note_on,,0,0,18,,,,,,,,,,,,,,,,15,,62,72
18600,note_on,,1,0,11,,,,,,,,,,,,,,,,6,,68,72
18600,note_on,,1,0,16,,,,,,,,,,,,,,,,12,,71,72
18600,note_on,,1,0,7,,,,,,,,,,,,,,,,2,,80,72
18600,note_on,,1,0,17,,,,,,,,,,,,,,,,13,,59,72
18719,note_on,,119,0,9,,,,,,,,,,,,,,,,4,,50,0
18719,note_on,,119,0,7,,,,,,,,,,,,,,,,2,,80,0
18719,note_on,,119,0,13,,,,,,,,,,,,,,,,8,,59,0
18719,note_on,,119,0,16,,,,,,,,,,,,,,,,12,,71,0
18719,note_on,,0,0,18,,,,,,,,,,,,,,,,15,,71,0
18719,note_on,,119,0,17,,,,,,,,,,,,,,,,13,,59,0
18719,note_on,,0,0,18,,,,,,,,,,,,,,,,15,,68,0
18719,note_on,,0,0,18,,,,,,,,,,,,,,,,15,,62,0
18719,note_on,,119,0,8,,,,,,,,,,,,,,,,3,,74,0
18719,note_on,,119,0,18,,,,,,,,,,,,,,,,15,,59,0
18719,note_on,,119,0,5,,,,,,,,,,,,,,,,0,,74,0
18719,note_on,,119,0,6,,,,,,,,,,,,,,,,1,,59,0
18719,note_on,,119,0,11,,,,,,,,,,,,,,,,6,,68,0
18719,note_on,,119,0,10,,,,,,,,,,,,,,,,5,,74,0
18719,note_on,,119,0,15,,,,,,,,,,,,,,,,11,,74,0
18719,note_on,,119,0,14,,,,,,,,,,,,,,,,10,,80,0
18719,note_on,,0,0,18,,,,,,,,,,,,,,,,15,,74,0
18719,note_on,,119,0,12,,,,,,,,,,,,,,,,7,,62,0
18720,note_on,,1,0,13,,,,,,,,,,,,,,,,8,,57,72
18720,note_on,,1,0,8,,,,,,,,,,,,,,,,3,,76,72
18720,note_on,,1,0,17,,,,,,,,,,,,,,,,13,,57,72
18720,note_on,,1,0,11,,,,,,,,,,,,,,,,6,,69,72
18720,note_on,,1,0,15,,,,,,,,,,,,,,,,11,,73,72
18720,note_on,,1,0,16,,,,,,,,,,,,,,,,12,,64,72
18720,note_on,,1,0,5,,,,,,,,,,,,,,,,0,,73,72
18720,note_on,,1,0,6,,,,,,,,,,,,,,,,1,,57,72
18720,note_on,,1,0,18,,,,,,,,,,,,,,,,15,,57,72
18720,note_on,,0,0,18,,,,,,,,,,,,,,,,15,,76,72
18720,note_on,,0,0,18,,,,,,,,,,,,,,,,15,,73,72
18720,note_on,,0,0,18,,,,,,,,,,,,,,,,15,,64,72
18720,note_on,,1,0,10,,,,,,,,,,,,,,,,5,,73,72
18720,note_on,,0,0,18,,,,,,,,,,,,,,,,15,,61,72
18720,note_on,,1,0,14,,,,,,,,,,,,,,,,10,,81,72
18720,note_on,,1,0,12,,,,,,,,,,,,,,,,7,,64,72
18720,note_on,,1,0,7,,,,,,,,,,,,,,,,2,,81,72
18720,note_on,,1,0,9,,,,,,,,,,,,,,,,4,,45,72
18899,note_on,,179,0,15,,,,,,,,,,,,,,,,11,,73,0
18899,note_on,,179,0,11,,,,,,,,,,,,,,,,6,,69,0
18899,note_on,,179,0,10,,,,,,,,,,,,,,,,5,,73,0
18899,note_on,,179,0,16,,,,,,,,,,,,,,,,12,,64,0
18899,note_on,,179,0,14,,,,,,,,,,,,,,,,10,,81,0
18899,note_on,,179,0,12,,,,,,,,,,,,,,,,7,,64,0
18899,note_on,,0,0,18,,,,,,,,,,,,,,,,15,,61,0
18899,note_on,,0,0,18,,,,,,,,,,,,,,,,15,,64,0
18899,note_on,,179,0,13,,,,,,,,,,,,,,,,8,,57,0
18899,note_on,,0,0,18,,,,,,,,,,,,,,,,15,,73,0
18899,note_on,,179,0,18,,,,,,,,,,,,,,,,15,,57,0
18899,note_on,,179,0,7,,,,,,,,,,,,,,,,2,,81,0
18899,note_on,,0,0,18,,,,,,,,,,,,,,,,15,,76,0
18899,note_on,,179,0,5,,,,,,,,,,,,,,,,0,,73,0
18899,note_on,,179,0,17,,,,,,,,,,,,,,,,13,,57,0
18899,note_on,,179,0,6,,,,,,,,,,,,,,,,1,,57,0
18899,note_on,,179,0,8,,,,,,,,,,,,,,,,3,,76,0
18899,note_on,,179,0,9,,,,,,,,,,,,,,,,4,,45,0
18900,note_on,,1,0,15,,,,,,,,,,,,,,,,11,,74,72
18900,note_on,,1,0,17,,,,,,,,,,,,,,,,13,,54,72
18900,note_on,,1,0,8,,,,,,,,,,,,,,,,3,,78,72
18900,note_on,,0,0,18,,,,,,,,,,,,,,,,15,,74,72
18900,note_on,,1,0,18,,,,,,,,,,,,,,,,15,,54,72
18900,note_on,,0,0,18,,,,,,,,,,,,,,,,15,,62,72
18900,note_on,,0,0,18,,,,,,,,,,,,,,,,15,,66,72
18900,note_on,,0,0,18,,,,,,,,,,,,,,,,15,,69,72
18900,note_on,,1,0,9,,,,,,,,,,,,,,,,4,,50,72
18900,note_on,,1,0,16,,,,,,,,,,,,,,,,12,,66,72
18900,note_on,,1,0,5,,,,,,,,,,,,,,,,0,,69,72
18900,note_on,,1,0,6,,,,,,,,,,,,,,,,1,,54,72
18900,note_on,,1,0,13,,,,,,,,,,,,,,,,8,,54,72
18900,note_on,,1,0,7,,,,,,,,,,,,,,,,2,,81,72
18900,note_on,,1,0,14,,,,,,,,,,,,,,,,10,,81,72
18900,note_on,,1,0,12,,,,,,,,,,,,,,,,7,,62,72
18900,note_on,,1,0,11,,,,,,,,,,,,,,,,6,,69,72
18900,note_on,,1,0,10,,,,,,,,,,,,,,,,5,,69,72
18959,note_on,,59,0,15,,,,,,,,,,,,,,,,11,,74,0
18959,note_on,,59,0,5,,,,,,,,,,,,,,,,0,,69,0
18959,note_on,,59,0,6,,,,,,,,,,,,,,,,1,,54,0
18959,note_on,,59,0,10,,,,,,,,,,,,,,,,5,,69,0
18959,note_on,,59,0,12,,,,,,,,,,,,,,,,7,,62,0
18959,note_on,,59,0,18,,,,,,,,,,,,,,,,15,,54,0
18959,note_on,,59,0,7,,,,,,,,,,,,,,,,2,,81,0
18959,note_on,,59,0,9,,,,,,,,,,,,,,,,4,,50,0
18959,note_on,,59,0,17,,,,,,,,,,,,,,,,13,,54,0
18959,note_on,,0,0,18,,,,,,,,,,,,,,,,15,,69,0
18959,note_on,,59,0,14,,,,,,,,,,,,,,,,10,,81,0
18959,note_on,,0,0,18,,,,,,,,,,,,,,,,15,,66,0
18959,note_on,,0,0,18,,,,,,,,,,,,,,,,15,,74,0
18959,note_on,,59,0,16,,,,,,,,,,,,,,,,12,,66,0
18959,note_on,,59,0,13,,,,,,,,,,,,,,,,8,,54,0
18959,note_on,,59,0,11,,,,,,,,,,,,,,,,6,,69,0
18959,note_on,,59,0,8,,,,,,,,,,,,,,,,3,,78,0
18959,note_on,,0,0,18,,,,,,,,,,,,,,,,15,,62,0
18960,note_on,,0,0,18,,,,,,,,,,,,,,,,15,,74,72
18960,note_on,,0,0,18,,,,,,,,,,,,,,,,15,,67,72
18960,note_on,,1,0,6,,,,,,,,,,,,,,,,1,,55,72
18960,note_on,,1,0,9,,,,,,,,,,,,,,,,4,,50,72
18960,note_on,,1,0,11,,,,,,,,,,,,,,,,6,,67,72
18960,note_on,,1,0,7,,,,,,,,,,,,,,,,2,,74,72
18960,note_on,,1,0,18,,,,,,,,,,,,,,,,15,,55,72
18960,note_on,,1,0,17,,,,,,,,,,,,,,,,13,,55,72
18960,note_on,,1,0,12,,,,,,,,,,,,,,,,7,,62,72
18960,note_on,,1,0,10,,,,,,,,,,,,,,,,5,,71,72
18960,note_on,,1,0,14,,,,,,,,,,,,,,,,10,,83,72
18960,note_on,,1,0,16,,,,,,,,,,,,,,,,12,,67,72
18960,note_on,,1,0,13,,,,,,,,,,,,,,,,8,,55,72
18960,note_on,,0,0,18,,,,,,,,,,,,,,,,15,,62,72
18960,note_on,,1,0,5,,,,,,,,,,,,,,,,0,,71,72
18960,note_on,,1,0,8,,,,,,,,,,,,,,,,3,,74,72
18960,note_on,,0,0,18,,,,,,,,,,,,,,,,15,,59,72
18960,note_on,,1,0,15,,,,,,,,,,,,,,,,11,,74,72
19079,note_on,,119,0,15,,,,,,,,,,,,,,,,11,,74,0
19079,note_on,,119,0,7,,,,,,,,,,,,,,,,2,,74,0
19079,note_on,,119,0,8,,,,,,,,,,,,,,,,3,,74,0
19079,note_on,,119,0,14,,,,,,,,,,,,,,,,10,,83,0
19079,note_on,,119,0,17,,,,,,,,,,,,,,,,13,,55,0
19079,note_on,,119,0,5,,,,,,,,,,,,,,,,0,,71,0
19079,note_on,,119,0,12,,,,,,,,,,,,,,,,7,,62,0
19079,note_on,,119,0,16,,,,,,,,,,,,,,,,12,,67,0
19079,note_on,,119,0,13,,,,,,,,,,,,,,,,8,,55,0
19079,note_on,,119,0,10,,,,,,,,,,,,,,,,5,,71,0
19079,note_on,,119,0,9,,,,,,,,,,,,,,,,4,,50,0
19079,note_on,,119,0,6,,,,,,,,,,,,,,,,1,,55,0
19079,note_on,,0,0,18,,,,,,,,,,,,,,,,15,,59,0
19079,note_on,,0,0,18,,,,,,,,,,,,,,,,15,,62,0
19079,note_on,,0,0,18,,,,,,,,,,,,,,,,15,,67,0
19079,note_on,,0,0,18,,,,,,,,,,,,,,,,15,,74,0
19079,note_on,,119,0,18,,,,,,,,,,,,,,,,15,,55,0
19079,note_on,,119,0,11,,,,,,,,,,,,,,,,6,,67,0
19080,note_on,,1,0,16,,,,,,,,,,,,,,,,12,,67,72
19080,note_on,,1,0,10,,,,,,,,,,,,,,,,5,,73,72
19080,note_on,,1,0,6,,,,,,,,,,,,,,,,1,,52,72
19080,note_on,,1,0,14,,,,,,,,,,,,,,,,10,,85,72
19080,note_on,,1,0,8,,,,,,,,,,,,,,,,3,,76,72
19080,note_on,,1,0,15,,,,,,,,,,,,,,,,11,,79,72
19080,note_on,,1,0,11,,,,,,,,,,,,,,,,6,,67,72
19080,note_on,,1,0,7,,,,,,,,,,,,,,,,2,,79,72
19080,note_on,,1,0,13,,,,,,,,,,,,,,,,8,,52,72
19080,note_on,,1,0,18,,,,,,,,,,,,,,,,15,,52,72
19080,note_on,,0,0,18,,,,,,,,,,,,,,,,15,,76,72
19080,note_on,,0,0,18,,,,,,,,,,,,,,,,15,,73,72
19080,note_on,,0,0,18,,,,,,,,,,,,,,,,15,,67,72
19080,note_on,,0,0,18,,,,,,,,,,,,,,,,15,,61,72
19080,note_on,,1,0,5,,,,,,,,,,,,,,,,0,,73,72
19080,note_on,,1,0,12,,,,,,,,,,,,,,,,7,,64,72
19080,note_on,,1,0,9,,,,,,,,,,,,,,,,4,,45,72
19080,note_on,,1,0,17,,,,,,,,,,,,,,,,13,,52,72
19199,note_on,,119,0,7,,,,,,,,,,,,,,,,2,,79,0
19199,note_on,,119,0,5,,,,,,,,,,,,,,,,0,,73,0
19199,note_on,,119,0,16,,,,,,,,,,,,,,,,12,,67,0
19199,note_on,,119,0,6,,,,,,,,,,,,,,,,1,,52,0
19199,note_on,,119,0,14,,,,,,,,,,,,,,,,10,,85,0
19199,note_on,,119,0,9,,,,,,,,,,,,,,,,4,,45,0
19199,note_on,,119,0,13,,,,,,,,,,,,,,,,8,,52,0
19199,note_on,,119,0,8,,,,,,,,,,,,,,,,3,,76,0
19199,note_on,,0,0,18,,,,,,,,,,,,,,,,15,,73,0
19199,note_on,,119,0,18,,,,,,,,,,,,,,,,15,,52,0
19199,note_on,,0,0,18,,,,,,,,,,,,,,,,15,,67,0
19199,note_on,,119,0,10,,,,,,,,,,,,,,,,5,,73,0
19199,note_on,,0,0,18,,,,,,,,,,,,,,,,15,,76,0
19199,note_on,,119,0,17,,,,,,,,,,,,,,,,13,,52,0
19199,note_on,,119,0,12,,,,,,,,,,,,,,,,7,,64,0
19199,note_on,,119,0,11,,,,,,,,,,,,,,,,6,,67,0
19199,note_on,,0,0,18,,,,,,,,,,,,,,,,15,,61,0
19199,note_on,,119,0,15,,,,,,,,,,,,,,,,11,,79,0
19200,note_on,,0,0,18,,,,,,,,,,,,,,,,15,,69,72
19200,note_on,,1,0,7,,,,,,,,,,,,,,,,2,,78,72
19200,note_on,,1,0,10,,,,,,,,,,,,,,,,5,,74,72
19200,note_on,,1,0,9,,,,,,,,,,,,,,,,4,,50,72
19200,note_on,,1,0,12,,,,,,,,,,,,,,,,7,,66,72
19200,note_on,,1,0,13,,,,,,,,,,,,,,,,8,,50,72
19200,note_on,,0,0,18,,,,,,,,,,,,,,,,15,,78,72
19200,note_on,,0,0,18,,,,,,,,,,,,,,,,15,,57,72
19200,note_on,,1,0,18,,,,,,,,,,,,,,,,15,,50,72
19200,note_on,,1,0,15,,,,,,,,,,,,,,,,11,,78,72
19200,note_on,,0,0,18,,,,,,,,,,,,,,,,15,,74,72
19200,note_on,,1,0,6,,,,,,,,,,,,,,,,1,,50,72
19200,note_on,,1,0,14,,,,,,,,,,,,,,,,10,,86,72
19200,note_on,,1,0,8,,,,,,,,,,,,,,,,3,,69,72
19200,note_on,,1,0,11,,,,,,,,,,,,,,,,6,,69,72
19200,note_on,,1,0,17,,,,,,,,,,,,,,,,13,,50,72
19200,note_on,,1,0,5,,,,,,,,,,,,,,,,0,,74,72
19200,note_on,,1,0,16,,,,,,,,,,,,,,,,12,,69,72
19319,note_on,,119,0,18,,,,,,,,,,,,,,,,15,,57,0
19379,note_on,,179,0,17,,,,,,,,,,,,,,,,13,,50,0
19379,note_on,,60,0,18,,,,,,,,,,,,,,,,15,,50,0
19379,note_on,,179,0,13,,,,,,,,,,,,,,,,8,,50,0
19379,note_on,,179,0,6,,,,,,,,,,,,,,,,1,,50,0
19380,note_on,,1,0,6,,,,,,,,,,,,,,,,1,,57,72
19380,note_on,,1,0,17,,,,,,,,,,,,,,,,13,,57,72
19380,note_on,,1,0,13,,,,,,,,,,,,,,,,8,,57,72
19380,note_on,,1,0,18,,,,,,,,,,,,,,,,15,,57,72
19439,note_on,,59,0,18,,,,,,,,,,,,,,,,15,,78,0
19439,note_on,,239,0,8,,,,,,,,,,,,,,,,3,,69,0
19439,note_on,,239,0,15,,,,,,,,,,,,,,,,11,,78,0
19439,note_on,,239,0,11,,,,,,,,,,,,,,,,6,,69,0
19439,note_on,,239,0,5,,,,,,,,,,,,,,,,0,,74,0
19439,note_on,,239,0,7,,,,,,,,,,,,,,,,2,,78,0
19439,note_on,,239,0,14,,,,,,,,,,,,,,,,10,,86,0
19439,note_on,,239,0,16,,,,,,,,,,,,,,,,12,,69,0
19439,note_on,,239,0,10,,,,,,,,,,,,,,,,5,,74,0
19439,note_on,,239,0,12,,,,,,,,,,,,,,,,7,,66,0
19439,note_on,,59,0,13,,,,,,,,,,,,,,,,8,,57,0
19439,note_on,,239,0,9,,,,,,,,,,,,,,,,4,,50,0
19439,note_on,,0,0,18,,,,,,,,,,,,,,,,15,,69,0
19439,note_on,,0,0,18,,,,,,,,,,,,,,,,15,,74,0
19439,note_on,,59,0,17,,,,,,,,,,,,,,,,13,,57,0
19439,note_on,,0,0,18,,,,,,,,,,,,,,,,15,,57,0
19439,note_on,,59,0,6,,,,,,,,,,,,,,,,1,,57,0
19440,note_on,,1,0,17,,,,,,,,,,,,,,,,13,,62,72
19440,note_on,,1,0,13,,,,,,,,,,,,,,,,8,,62,72
19440,note_on,,1,0,18,,,,,,,,,,,,,,,,15,,62,72
19440,note_on,,1,0,6,,,,,,,,,,,,,,,,1,,62,72
19559,note_on,,119,0,13,,,,,,,,,,,,,,,,8,,62,0
19559,note_on,,119,0,17,,,,,,,,,,,,,,,,13,,62,0
19559,note_on,,119,0,18,,,,,,,,,,,,,,,,15,,62,0
19559,note_on,,119,0,6,,,,,,,,,,,,,,,,1,,62,0
19560,note_on,,1,0,13,,,,,,,,,,,,,,,,8,,54,72
19560,note_on,,1,0,18,,,,,,,,,,,,,,,,15,,54,72
19560,note_on,,1,0,17,,,,,,,,,,,,,,,,13,,54,72
19560,note_on,,1,0,6,,,,,,,,,,,,,,,,1,,54,72
19679,note_on,,119,0,6,,,,,,,,,,,,,,,,1,,54,0
19679,note_on,,119,0,13,,,,,,,,,,,,,,,,8,,54,0
19679,note_on,,119,0,18,,,,,,,,,,,,,,,,15,,54,0
19679,note_on,,119,0,17,,,,,,,,,,,,,,,,13,,54,0
19680,note_on,,1,0,13,,,,,,,,,,,,,,,,8,,59,72
19680,note_on,,1,0,17,,,,,,,,,,,,,,,,13,,59,72
19680,note_on,,1,0,6,,,,,,,,,,,,,,,,1,,59,72
19680,note_on,,1,0,18,,,,,,,,,,,,,,,,15,,59,72
19799,note_on,,119,0,13,,,,,,,,,,,,,,,,8,,59,0
19799,note_on,,119,0,18,,,,,,,,,,,,,,,,15,,59,0
19799,note_on,,119,0,6,,,,,,,,,,,,,,,,1,,59,0
19799,note_on,,119,0,17,,,,,,,,,,,,,,,,13,,59,0
19800,note_on,,1,0,6,,,,,,,,,,,,,,,,1,,50,72
19800,note_on,,1,0,18,,,,,,,,,,,,,,,,15,,50,72
19800,note_on,,1,0,17,,,,,,,,,,,,,,,,13,,50,72
19800,note_on,,1,0,13,,,,,,,,,,,,,,,,8,,50,72
19919,note_on,,119,0,13,,,,,,,,,,,,,,,,8,,50,0
19919,note_on,,119,0,18,,,,,,,,,,,,,,,,15,,50,0
19919,note_on,,119,0,17,,,,,,,,,,,,,,,,13,,50,0
19919,note_on,,119,0,6,,,,,,,,,,,,,,,,1,,50,0
19920,note_on,,1,0,13,,,,,,,,,,,,,,,,8,,55,72
19920,note_on,,1,0,6,,,,,,,,,,,,,,,,1,,55,72
19920,note_on,,1,0,17,,,,,,,,,,,,,,,,13,,55,72
19920,note_on,,1,0,18,,,,,,,,,,,,,,,,15,,55,72
20039,note_on,,119,0,18,,,,,,,,,,,,,,,,15,,55,0
20039,note_on,,119,0,17,,,,,,,,,,,,,,,,13,,55,0
20039,note_on,,119,0,13,,,,,,,,,,,,,,,,8,,55,0
20039,note_on,,119,0,6,,,,,,,,,,,,,,,,1,,55,0
20040,note_on,,1,0,13,,,,,,,,,,,,,,,,8,,54,72
20040,note_on,,1,0,6,,,,,,,,,,,,,,,,1,,54,72
20040,note_on,,1,0,17,,,,,,,,,,,,,,,,13,,54,72
20040,note_on,,1,0,18,,,,,,,,,,,,,,,,15,,54,72
20099,note_on,,59,0,18,,,,,,,,,,,,,,,,15,,54,0
20099,note_on,,59,0,6,,,,,,,,,,,,,,,,1,,54,0
20099,note_on,,59,0,17,,,,,,,,,,,,,,,,13,,54,0
20099,note_on,,59,0,13,,,,,,,,,,,,,,,,8,,54,0
20100,note_on,,1,0,17,,,,,,,,,,,,,,,,13,,52,72
20100,note_on,,1,0,13,,,,,,,,,,,,,,,,8,,52,72
20100,note_on,,1,0,18,,,,,,,,,,,,,,,,15,,52,72
20100,note_on,,1,0,6,,,,,,,,,,,,,,,,1,,52,72
20159,note_on,,59,0,13,,,,,,,,,,,,,,,,8,,52,0
20159,note_on,,59,0,18,,,,,,,,,,,,,,,,15,,52,0
20159,note_on,,59,0,6,,,,,,,,,,,,,,,,1,,52,0
20159,note_on,,59,0,17,,,,,,,,,,,,,,,,13,,52,0
20160,note_on,,1,0,13,,,,,,,,,,,,,,,,8,,52,72
20160,note_on,,1,0,18,,,,,,,,,,,,,,,,15,,52,72
20160,note_on,,1,0,6,,,,,,,,,,,,,,,,1,,52,72
20160,note_on,,1,0,17,,,,,,,,,,,,,,,,13,,52,72
20174,note_on,,14,0,13,,,,,,,,,,,,,,,,8,,52,0
20175,note_on,,1,0,13,,,,,,,,,,,,,,,,8,,54,72
20189,note_on,,14,0,13,,,,,,,,,,,,,,,,8,,54,0
20190,note_on,,1,0,13,,,,,,,,,,,,,,,,8,,52,72
20204,note_on,,14,0,13,,,,,,,,,,,,,,,,8,,52,0
20205,note_on,,1,0,13,,,,,,,,,,,,,,,,8,,54,72
20219,note_on,,14,0,13,,,,,,,,,,,,,,,,8,,54,0
20220,note_on,,1,0,13,,,,,,,,,,,,,,,,8,,52,72
20234,note_on,,14,0,13,,,,,,,,,,,,,,,,8,,52,0
20235,note_on,,1,0,13,,,,,,,,,,,,,,,,8,,54,72
20249,note_on,,14,0,13,,,,,,,,,,,,,,,,8,,54,0
20250,note_on,,1,0,13,,,,,,,,,,,,,,,,8,,52,72
20264,note_on,,14,0,13,,,,,,,,,,,,,,,,8,,52,0
20265,note_on,,1,0,13,,,,,,,,,,,,,,,,8,,54,72
20279,note_on,,14,0,13,,,,,,,,,,,,,,,,8,,54,0
20280,note_on,,1,0,13,,,,,,,,,,,,,,,,8,,52,72
20294,note_on,,14,0,13,,,,,,,,,,,,,,,,8,,52,0
20295,note_on,,1,0,13,,,,,,,,,,,,,,,,8,,54,72
20309,note_on,,14,0,13,,,,,,,,,,,,,,,,8,,54,0
20310,note_on,,1,0,13,,,,,,,,,,,,,,,,8,,52,72
20324,note_on,,14,0,13,,,,,,,,,,,,,,,,8,,52,0
20325,note_on,,1,0,13,,,,,,,,,,,,,,,,8,,54,72
20339,note_on,,14,0,13,,,,,,,,,,,,,,,,8,,54,0
20340,note_on,,1,0,13,,,,,,,,,,,,,,,,8,,52,72
20354,note_on,,14,0,13,,,,,,,,,,,,,,,,8,,52,0
20355,note_on,,1,0,13,,,,,,,,,,,,,,,,8,,54,72
20369,note_on,,14,0,13,,,,,,,,,,,,,,,,8,,54,0
20370,note_on,,1,0,13,,,,,,,,,,,,,,,,8,,52,72
20384,note_on,,14,0,13,,,,,,,,,,,,,,,,8,,52,0
20385,note_on,,1,0,13,,,,,,,,,,,,,,,,8,,54,72
20399,note_on,,14,0,13,,,,,,,,,,,,,,,,8,,54,0
20399,note_on,,239,0,18,,,,,,,,,,,,,,,,15,,52,0
20399,note_on,,239,0,17,,,,,,,,,,,,,,,,13,,52,0
20399,note_on,,239,0,6,,,,,,,,,,,,,,,,1,,52,0
20400,note_on,,1,0,18,,,,,,,,,,,,,,,,15,,50,72
20400,note_on,,1,0,13,,,,,,,,,,,,,,,,8,,50,72
20400,note_on,,1,0,6,,,,,,,,,,,,,,,,1,,50,72
20400,note_on,,1,0,17,,,,,,,,,,,,,,,,13,,50,72
20519,note_on,,119,0,13,,,,,,,,,,,,,,,,8,,50,0
20519,note_on,,119,0,6,,,,,,,,,,,,,,,,1,,50,0
20519,note_on,,119,0,17,,,,,,,,,,,,,,,,13,,50,0
20519,note_on,,119,0,18,,,,,,,,,,,,,,,,15,,50,0
20520,note_on,,1,0,18,,,,,,,,,,,,,,,,15,,62,72
20520,note_on,,1081,0,14,,,,,,,,,,,,,,,,10,,62,72
20520,note_on,,1081,0,12,,,,,,,,,,,,,,,,7,,62,72
20520,note_on,,1081,0,16,,,,,,,,,,,,,,,,12,,62,72
20639,note_on,,119,0,14,,,,,,,,,,,,,,,,10,,62,0
20639,note_on,,119,0,12,,,,,,,,,,,,,,,,7,,62,0
20639,note_on,,119,0,16,,,,,,,,,,,,,,,,12,,62,0
20639,note_on,,119,0,18,,,,,,,,,,,,,,,,15,,62,0
20640,note_on,,1,0,12,,,,,,,,,,,,,,,,7,,69,72
20640,note_on,,121,0,17,,,,,,,,,,,,,,,,13,,69,72
20640,note_on,,1,0,18,,,,,,,,,,,,,,,,15,,69,72
20640,note_on,,1,0,14,,,,,,,,,,,,,,,,10,,69,72
20640,note_on,,1,0,16,,,,,,,,,,,,,,,,12,,69,72
20640,note_on,,121,0,6,,,,,,,,,,,,,,,,1,,69,72
20759,note_on,,119,0,6,,,,,,,,,,,,,,,,1,,69,0
20759,note_on,,119,0,18,,,,,,,,,,,,,,,,15,,69,0
20759,note_on,,119,0,14,,,,,,,,,,,,,,,,10,,69,0
20759,note_on,,119,0,17,,,,,,,,,,,,,,,,13,,69,0
20759,note_on,,119,0,12,,,,,,,,,,,,,,,,7,,69,0
20759,note_on,,119,0,16,,,,,,,,,,,,,,,,12,,69,0
20760,note_on,,1,0,16,,,,,,,,,,,,,,,,12,,61,72
20760,note_on,,1,0,12,,,,,,,,,,,,,,,,7,,61,72
20760,note_on,,1,0,6,,,,,,,,,,,,,,,,1,,61,72
20760,note_on,,1,0,17,,,,,,,,,,,,,,,,13,,61,72
20760,note_on,,1,0,18,,,,,,,,,,,,,,,,15,,61,72
20760,note_on,,1,0,14,,,,,,,,,,,,,,,,10,,61,72
20819,note_on,,59,0,17,,,,,,,,,,,,,,,,13,,61,0
20819,note_on,,59,0,18,,,,,,,,,,,,,,,,15,,61,0
20819,note_on,,59,0,6,,,,,,,,,,,,,,,,1,,61,0
20820,note_on,,1,0,6,,,,,,,,,,,,,,,,1,,57,72
20820,note_on,,0,0,18,,,,,,,,,,,,,,,,15,,73,72
20820,note_on,,1,0,17,,,,,,,,,,,,,,,,13,,57,72
20820,note_on,,1,0,18,,,,,,,,,,,,,,,,15,,57,72
20820,note_on,,0,0,18,,,,,,,,,,,,,,,,15,,69,72
20820,note_on,,0,0,18,,,,,,,,,,,,,,,,15,,64,72
20820,note_on,,301,0,13,,,,,,,,,,,,,,,,8,,57,72
20879,note_on,,59,0,17,,,,,,,,,,,,,,,,13,,57,0
20879,note_on,,0,0,18,,,,,,,,,,,,,,,,15,,73,0
20879,note_on,,119,0,12,,,,,,,,,,,,,,,,7,,61,0
20879,note_on,,0,0,18,,,,,,,,,,,,,,,,15,,69,0
20879,note_on,,0,0,18,,,,,,,,,,,,,,,,15,,64,0
20879,note_on,,59,0,18,,,,,,,,,,,,,,,,15,,57,0
20879,note_on,,119,0,16,,,,,,,,,,,,,,,,12,,61,0
20879,note_on,,59,0,6,,,,,,,,,,,,,,,,1,,57,0
20879,note_on,,59,0,13,,,,,,,,,,,,,,,,8,,57,0
20879,note_on,,119,0,14,,,,,,,,,,,,,,,,10,,61,0
20880,note_on,,1,0,16,,,,,,,,,,,,,,,,12,,66,72
20880,note_on,,1,0,12,,,,,,,,,,,,,,,,7,,66,72
20880,note_on,,1,0,13,,,,,,,,,,,,,,,,8,,62,72
20880,note_on,,0,0,18,,,,,,,,,,,,,,,,15,,66,72
20880,note_on,,1,0,14,,,,,,,,,,,,,,,,10,,66,72
20880,note_on,,1,0,6,,,,,,,,,,,,,,,,1,,62,72
20880,note_on,,1,0,18,,,,,,,,,,,,,,,,15,,62,72
20880,note_on,,0,0,18,,,,,,,,,,,,,,,,15,,74,72
20880,note_on,,0,0,18,,,,,,,,,,,,,,,,15,,69,72
20880,note_on,,1,0,17,,,,,,,,,,,,,,,,13,,62,72
20939,note_on,,59,0,18,,,,,,,,,,,,,,,,15,,62,0
20939,note_on,,59,0,6,,,,,,,,,,,,,,,,1,,62,0
20939,note_on,,59,0,17,,,,,,,,,,,,,,,,13,,62,0
20939,note_on,,59,0,13,,,,,,,,,,,,,,,,8,,62,0
20940,note_on,,1,0,17,,,,,,,,,,,,,,,,13,,50,72
20940,note_on,,1,0,18,,,,,,,,,,,,,,,,15,,50,72
20940,note_on,,1,0,13,,,,,,,,,,,,,,,,8,,50,72
20940,note_on,,1,0,6,,,,,,,,,,,,,,,,1,,50,72
20999,note_on,,0,0,18,,,,,,,,,,,,,,,,15,,69,0
20999,note_on,,59,0,18,,,,,,,,,,,,,,,,15,,74,0
20999,note_on,,59,0,17,,,,,,,,,,,,,,,,13,,50,0
20999,note_on,,0,0,18,,,,,,,,,,,,,,,,15,,50,0
20999,note_on,,119,0,12,,,,,,,,,,,,,,,,7,,66,0
20999,note_on,,119,0,14,,,,,,,,,,,,,,,,10,,66,0
20999,note_on,,59,0,13,,,,,,,,,,,,,,,,8,,50,0
20999,note_on,,119,0,16,,,,,,,,,,,,,,,,12,,66,0
20999,note_on,,59,0,6,,,,,,,,,,,,,,,,1,,50,0
20999,note_on,,0,0,18,,,,,,,,,,,,,,,,15,,66,0
21000,note_on,,1,0,14,,,,,,,,,,,,,,,,10,,57,72
21000,note_on,,1,0,12,,,,,,,,,,,,,,,,7,,57,72
21000,note_on,,1,0,16,,,,,,,,,,,,,,,,12,,57,72
21060,note_on,,61,0,17,,,,,,,,,,,,,,,,13,,54,72
21060,note_on,,61,0,13,,,,,,,,,,,,,,,,8,,54,72
21060,note_on,,61,0,6,,,,,,,,,,,,,,,,1,,54,72
21060,note_on,,0,0,18,,,,,,,,,,,,,,,,15,,62,72
21060,note_on,,0,0,18,,,,,,,,,,,,,,,,15,,66,72
21060,note_on,,0,0,18,,,,,,,,,,,,,,,,15,,69,72
21060,note_on,,61,0,18,,,,,,,,,,,,,,,,15,,54,72
21119,note_on,,119,0,12,,,,,,,,,,,,,,,,7,,57,0
21119,note_on,,59,0,18,,,,,,,,,,,,,,,,15,,54,0
21119,note_on,,0,0,18,,,,,,,,,,,,,,,,15,,69,0
21119,note_on,,59,0,13,,,,,,,,,,,,,,,,8,,54,0
21119,note_on,,0,0,18,,,,,,,,,,,,,,,,15,,66,0
21119,note_on,,59,0,17,,,,,,,,,,,,,,,,13,,54,0
21119,note_on,,119,0,14,,,,,,,,,,,,,,,,10,,57,0
21119,note_on,,119,0,16,,,,,,,,,,,,,,,,12,,57,0
21119,note_on,,59,0,6,,,,,,,,,,,,,,,,1,,54,0
21120,note_on,,1,0,12,,,,,,,,,,,,,,,,7,,62,72
21120,note_on,,1,0,18,,,,,,,,,,,,,,,,15,,59,72
21120,note_on,,0,0,18,,,,,,,,,,,,,,,,15,,68,72
21120,note_on,,1,0,17,,,,,,,,,,,,,,,,13,,59,72
21120,note_on,,1,0,14,,,,,,,,,,,,,,,,10,,62,72
21120,note_on,,1,0,6,,,,,,,,,,,,,,,,1,,59,72
21120,note_on,,1,0,16,,,,,,,,,,,,,,,,12,,62,72
21120,note_on,,1,0,13,,,,,,,,,,,,,,,,8,,59,72
21179,note_on,,59,0,6,,,,,,,,,,,,,,,,1,,59,0
21179,note_on,,59,0,13,,,,,,,,,,,,,,,,8,,59,0
21179,note_on,,0,0,18,,,,,,,,,,,,,,,,15,,68,0
21179,note_on,,59,0,18,,,,,,,,,,,,,,,,15,,59,0
21179,note_on,,59,0,17,,,,,,,,,,,,,,,,13,,59,0
21180,note_on,,0,0,18,,,,,,,,,,,,,,,,15,,71,72
21180,note_on,,1,0,18,,,,,,,,,,,,,,,,15,,56,72
21180,note_on,,1,0,6,,,,,,,,,,,,,,,,1,,56,72
21180,note_on,,1,0,17,,,,,,,,,,,,,,,,13,,56,72
21180,note_on,,1,0,13,,,,,,,,,,,,,,,,8,,56,72
21239,note_on,,59,0,17,,,,,,,,,,,,,,,,13,,56,0
21239,note_on,,59,0,13,,,,,,,,,,,,,,,,8,,56,0
21239,note_on,,0,0,18,,,,,,,,,,,,,,,,15,,56,0
21239,note_on,,0,0,18,,,,,,,,,,,,,,,,15,,71,0
21239,note_on,,59,0,18,,,,,,,,,,,,,,,,15,,62,0
21239,note_on,,119,0,16,,,,,,,,,,,,,,,,12,,62,0
21239,note_on,,119,0,12,,,,,,,,,,,,,,,,7,,62,0
21239,note_on,,59,0,6,,,,,,,,,,,,,,,,1,,56,0
21239,note_on,,119,0,14,,,,,,,,,,,,,,,,10,,62,0
21240,note_on,,0,0,18,,,,,,,,,,,,,,,,15,,64,72
21240,note_on,,1,0,13,,,,,,,,,,,,,,,,8,,57,72
21240,note_on,,1,0,16,,,,,,,,,,,,,,,,12,,61,72
21240,note_on,,1,0,14,,,,,,,,,,,,,,,,10,,61,72
21240,note_on,,0,0,18,,,,,,,,,,,,,,,,15,,61,72
21240,note_on,,1,0,18,,,,,,,,,,,,,,,,15,,57,72
21240,note_on,,1,0,6,,,,,,,,,,,,,,,,1,,57,72
21240,note_on,,1,0,12,,,,,,,,,,,,,,,,7,,61,72
21240,note_on,,1,0,17,,,,,,,,,,,,,,,,13,,57,72
21299,note_on,,59,0,18,,,,,,,,,,,,,,,,15,,61,0
21299,note_on,,59,0,14,,,,,,,,,,,,,,,,10,,61,0
21299,note_on,,59,0,12,,,,,,,,,,,,,,,,7,,61,0
21299,note_on,,59,0,16,,,,,,,,,,,,,,,,12,,61,0
21300,note_on,,1,0,16,,,,,,,,,,,,,,,,12,,59,72
21300,note_on,,1,0,18,,,,,,,,,,,,,,,,15,,59,72
21300,note_on,,1,0,14,,,,,,,,,,,,,,,,10,,59,72
21300,note_on,,1,0,12,,,,,,,,,,,,,,,,7,,59,72
21359,note_on,,119,0,17,,,,,,,,,,,,,,,,13,,57,0
21359,note_on,,119,0,6,,,,,,,,,,,,,,,,1,,57,0
21359,note_on,,59,0,16,,,,,,,,,,,,,,,,12,,59,0
21359,note_on,,119,0,13,,,,,,,,,,,,,,,,8,,57,0
21359,note_on,,59,0,12,,,,,,,,,,,,,,,,7,,59,0
21359,note_on,,0,0,18,,,,,,,,,,,,,,,,15,,59,0
21359,note_on,,59,0,18,,,,,,,,,,,,,,,,15,,57,0
21359,note_on,,59,0,14,,,,,,,,,,,,,,,,10,,59,0
21360,note_on,,1,0,16,,,,,,,,,,,,,,,,12,,61,72
21360,note_on,,1,0,12,,,,,,,,,,,,,,,,7,,61,72
21360,note_on,,1,0,18,,,,,,,,,,,,,,,,15,,61,72
21360,note_on,,1,0,14,,,,,,,,,,,,,,,,10,,61,72
21420,note_on,,61,0,17,,,,,,,,,,,,,,,,13,,52,72
21420,note_on,,61,0,13,,,,,,,,,,,,,,,,8,,52,72
21420,note_on,,60,0,18,,,,,,,,,,,,,,,,15,,52,72
21420,note_on,,61,0,6,,,,,,,,,,,,,,,,1,,52,72
21479,note_on,,59,0,6,,,,,,,,,,,,,,,,1,,52,0
21479,note_on,,119,0,12,,,,,,,,,,,,,,,,7,,61,0
21479,note_on,,59,0,17,,,,,,,,,,,,,,,,13,,52,0
21479,note_on,,59,0,18,,,,,,,,,,,,,,,,15,,64,0
21479,note_on,,0,0,18,,,,,,,,,,,,,,,,15,,52,0
21479,note_on,,0,0,18,,,,,,,,,,,,,,,,15,,61,0
21479,note_on,,119,0,16,,,,,,,,,,,,,,,,12,,61,0
21479,note_on,,119,0,14,,,,,,,,,,,,,,,,10,,61,0
21479,note_on,,59,0,13,,,,,,,,,,,,,,,,8,,52,0
21480,note_on,,0,0,18,,,,,,,,,,,,,,,,15,,59,72
21480,note_on,,1,0,18,,,,,,,,,,,,,,,,15,,50,72
21480,note_on,,1,0,13,,,,,,,,,,,,,,,,8,,50,72
21480,note_on,,1,0,12,,,,,,,,,,,,,,,,7,,59,72
21480,note_on,,0,0,18,,,,,,,,,,,,,,,,15,,64,72
21480,note_on,,0,0,18,,,,,,,,,,,,,,,,15,,68,72
21480,note_on,,1,0,16,,,,,,,,,,,,,,,,12,,59,72
21480,note_on,,1,0,6,,,,,,,,,,,,,,,,1,,50,72
21480,note_on,,1,0,17,,,,,,,,,,,,,,,,13,,50,72
21480,note_on,,1,0,14,,,,,,,,,,,,,,,,10,,59,72
21539,note_on,,59,0,17,,,,,,,,,,,,,,,,13,,50,0
21539,note_on,,59,0,13,,,,,,,,,,,,,,,,8,,50,0
21539,note_on,,59,0,6,,,,,,,,,,,,,,,,1,,50,0
21539,note_on,,59,0,18,,,,,,,,,,,,,,,,15,,50,0
21540,note_on,,1,0,17,,,,,,,,,,,,,,,,13,,52,72
21540,note_on,,1,0,6,,,,,,,,,,,,,,,,1,,52,72
21540,note_on,,1,0,13,,,,,,,,,,,,,,,,8,,52,72
21540,note_on,,1,0,18,,,,,,,,,,,,,,,,15,,52,72
21569,note_on,,89,0,14,,,,,,,,,,,,,,,,10,,59,0
21569,note_on,,89,0,16,,,,,,,,,,,,,,,,12,,59,0
21569,note_on,,89,0,12,,,,,,,,,,,,,,,,7,,59,0
21570,note_on,,1,0,16,,,,,,,,,,,,,,,,12,,57,72
21570,note_on,,1,0,14,,,,,,,,,,,,,,,,10,,57,72
21570,note_on,,1,0,12,,,,,,,,,,,,,,,,7,,57,72
21599,note_on,,59,0,13,,,,,,,,,,,,,,,,8,,52,0
21599,note_on,,59,0,18,,,,,,,,,,,,,,,,15,,68,0
21599,note_on,,0,0,18,,,,,,,,,,,,,,,,15,,64,0
21599,note_on,,29,0,16,,,,,,,,,,,,,,,,12,,57,0
21599,note_on,,29,0,12,,,,,,,,,,,,,,,,7,,57,0
21599,note_on,,0,0,18,,,,,,,,,,,,,,,,15,,59,0
21599,note_on,,0,0,18,,,,,,,,,,,,,,,,15,,52,0
21599,note_on,,29,0,14,,,,,,,,,,,,,,,,10,,57,0
21599,note_on,,59,0,17,,,,,,,,,,,,,,,,13,,52,0
21599,note_on,,59,0,6,,,,,,,,,,,,,,,,1,,52,0
21600,note_on,,1,0,18,,,,,,,,,,,,,,,,15,,49,72
21600,note_on,,0,0,18,,,,,,,,,,,,,,,,15,,69,72
21600,note_on,,0,0,18,,,,,,,,,,,,,,,,15,,64,72
21600,note_on,,0,0,18,,,,,,,,,,,,,,,,15,,57,72
21600,note_on,,1,0,6,,,,,,,,,,,,,,,,1,,49,72
21600,note_on,,1,0,17,,,,,,,,,,,,,,,,13,,49,72
21600,note_on,,1,0,12,,,,,,,,,,,,,,,,7,,57,72
21600,note_on,,1,0,14,,,,,,,,,,,,,,,,10,,57,72
21600,note_on,,1,0,13,,,,,,,,,,,,,,,,8,,49,72
21600,note_on,,1,0,16,,,,,,,,,,,,,,,,12,,57,72
21659,note_on,,59,0,6,,,,,,,,,,,,,,,,1,,49,0
21659,note_on,,59,0,13,,,,,,,,,,,,,,,,8,,49,0
21659,note_on,,59,0,17,,,,,,,,,,,,,,,,13,,49,0
21659,note_on,,59,0,18,,,,,,,,,,,,,,,,15,,49,0
21660,note_on,,1,0,6,,,,,,,,,,,,,,,,1,,57,72
21660,note_on,,1,0,13,,,,,,,,,,,,,,,,8,,57,72
21660,note_on,,1,0,17,,,,,,,,,,,,,,,,13,,57,72
21719,note_on,,59,0,6,,,,,,,,,,,,,,,,1,,57,0
21719,note_on,,0,0,18,,,,,,,,,,,,,,,,15,,57,0
21719,note_on,,119,0,14,,,,,,,,,,,,,,,,10,,57,0
21719,note_on,,60,0,18,,,,,,,,,,,,,,,,15,,69,0
21719,note_on,,0,0,18,,,,,,,,,,,,,,,,15,,64,0
21719,note_on,,119,0,16,,,,,,,,,,,,,,,,12,,57,0
21719,note_on,,59,0,17,,,,,,,,,,,,,,,,13,,57,0
21719,note_on,,59,0,13,,,,,,,,,,,,,,,,8,,57,0
21719,note_on,,119,0,12,,,,,,,,,,,,,,,,7,,57,0
21720,note_on,,1,0,6,,,,,,,,,,,,,,,,1,,55,72
21720,note_on,,1,0,17,,,,,,,,,,,,,,,,13,,55,72
21720,note_on,,2281,0,11,,,,,,,,,,,,,,,,6,,69,72
21720,note_on,,1,0,18,,,,,,,,,,,,,,,,15,,55,72
21720,note_on,,0,0,18,,,,,,,,,,,,,,,,15,,73,72
21720,note_on,,1,0,13,,,,,,,,,,,,,,,,8,,55,72
21720,note_on,,0,0,18,,,,,,,,,,,,,,,,15,,64,72
21720,note_on,,0,0,18,,,,,,,,,,,,,,,,15,,69,72
21720,note_on,,2281,0,15,,,,,,,,,,,,,,,,11,,69,72
21720,note_on,,1,0,16,,,,,,,,,,,,,,,,12,,69,72
21779,note_on,,59,0,6,,,,,,,,,,,,,,,,1,,55,0
21779,note_on,,59,0,17,,,,,,,,,,,,,,,,13,,55,0
21779,note_on,,59,0,18,,,,,,,,,,,,,,,,15,,55,0
21779,note_on,,59,0,13,,,,,,,,,,,,,,,,8,,55,0
21780,note_on,,1,0,18,,,,,,,,,,,,,,,,15,,57,72
21780,note_on,,1,0,13,,,,,,,,,,,,,,,,8,,57,72
21780,note_on,,1,0,6,,,,,,,,,,,,,,,,1,,57,72
21780,note_on,,1,0,17,,,,,,,,,,,,,,,,13,,57,72
21839,note_on,,119,0,15,,,,,,,,,,,,,,,,11,,69,0
21839,note_on,,59,0,17,,,,,,,,,,,,,,,,13,,57,0
21839,note_on,,59,0,13,,,,,,,,,,,,,,,,8,,57,0
21839,note_on,,119,0,11,,,,,,,,,,,,,,,,6,,69,0
21839,note_on,,59,0,18,,,,,,,,,,,,,,,,15,,73,0
21839,note_on,,0,0,18,,,,,,,,,,,,,,,,15,,69,0
21839,note_on,,0,0,18,,,,,,,,,,,,,,,,15,,64,0
21839,note_on,,0,0,18,,,,,,,,,,,,,,,,15,,57,0
21839,note_on,,119,0,16,,,,,,,,,,,,,,,,12,,69,0
21839,note_on,,59,0,6,,,,,,,,,,,,,,,,1,,57,0
21840,note_on,,1,0,6,,,,,,,,,,,,,,,,1,,54,72
21840,note_on,,1,0,13,,,,,,,,,,,,,,,,8,,54,72
21840,note_on,,1,0,15,,,,,,,,,,,,,,,,11,,74,72
21840,note_on,,1,0,17,,,,,,,,,,,,,,,,13,,54,72
21840,note_on,,1,0,16,,,,,,,,,,,,,,,,12,,74,72
21840,note_on,,0,0,18,,,,,,,,,,,,,,,,15,,62,72
21840,note_on,,0,0,18,,,,,,,,,,,,,,,,15,,57,72
21840,note_on,,0,0,18,,,,,,,,,,,,,,,,15,,69,72
21840,note_on,,0,0,18,,,,,,,,,,,,,,,,15,,74,72
21840,note_on,,1,0,18,,,,,,,,,,,,,,,,15,,54,72
21840,note_on,,1,0,11,,,,,,,,,,,,,,,,6,,62,72
21900,note_on,,181,0,14,,,,,,,,,,,,,,,,10,,57,72
21900,note_on,,181,0,12,,,,,,,,,,,,,,,,7,,57,72
21959,note_on,,59,0,12,,,,,,,,,,,,,,,,7,,57,0
21959,note_on,,0,0,18,,,,,,,,,,,,,,,,15,,69,0
21959,note_on,,0,0,18,,,,,,,,,,,,,,,,15,,62,0
21959,note_on,,119,0,18,,,,,,,,,,,,,,,,15,,54,0
21959,note_on,,119,0,11,,,,,,,,,,,,,,,,6,,62,0
21959,note_on,,59,0,14,,,,,,,,,,,,,,,,10,,57,0
21959,note_on,,119,0,15,,,,,,,,,,,,,,,,11,,74,0
21959,note_on,,0,0,18,,,,,,,,,,,,,,,,15,,74,0
21959,note_on,,119,0,17,,,,,,,,,,,,,,,,13,,54,0
21959,note_on,,119,0,13,,,,,,,,,,,,,,,,8,,54,0
21959,note_on,,0,0,18,,,,,,,,,,,,,,,,15,,57,0
21959,note_on,,119,0,16,,,,,,,,,,,,,,,,12,,74,0
21959,note_on,,119,0,6,,,,,,,,,,,,,,,,1,,54,0
21960,note_on,,1,0,12,,,,,,,,,,,,,,,,7,,62,72
21960,note_on,,1,0,15,,,,,,,,,,,,,,,,11,,66,72
21960,note_on,,1,0,14,,,,,,,,,,,,,,,,10,,62,72
21960,note_on,,1,0,11,,,,,,,,,,,,,,,,6,,66,72
21960,note_on,,1,0,16,,,,,,,,,,,,,,,,12,,66,72
22019,note_on,,59,0,14,,,,,,,,,,,,,,,,10,,62,0
22019,note_on,,59,0,12,,,,,,,,,,,,,,,,7,,62,0
22020,note_on,,1,0,12,,,,,,,,,,,,,,,,7,,62,72
22020,note_on,,1,0,14,,,,,,,,,,,,,,,,10,,62,72
22020,note_on,,61,0,18,,,,,,,,,,,,,,,,15,,54,72
22020,note_on,,0,0,18,,,,,,,,,,,,,,,,15,,69,72
22020,note_on,,61,0,13,,,,,,,,,,,,,,,,8,,54,72
22020,note_on,,61,0,6,,,,,,,,,,,,,,,,1,,54,72
22020,note_on,,61,0,17,,,,,,,,,,,,,,,,13,,54,72
22020,note_on,,0,0,18,,,,,,,,,,,,,,,,15,,62,72
22020,note_on,,0,0,18,,,,,,,,,,,,,,,,15,,57,72
22079,note_on,,59,0,13,,,,,,,,,,,,,,,,8,,54,0
22079,note_on,,59,0,12,,,,,,,,,,,,,,,,7,,62,0
22079,note_on,,59,0,17,,,,,,,,,,,,,,,,13,,54,0
22079,note_on,,59,0,6,,,,,,,,,,,,,,,,1,,54,0
22079,note_on,,119,0,11,,,,,,,,,,,,,,,,6,,66,0
22079,note_on,,59,0,14,,,,,,,,,,,,,,,,10,,62,0
22079,note_on,,59,0,18,,,,,,,,,,,,,,,,15,,54,0
22079,note_on,,119,0,15,,,,,,,,,,,,,,,,11,,66,0
22079,note_on,,119,0,16,,,,,,,,,,,,,,,,12,,66,0
22079,note_on,,0,0,18,,,,,,,,,,,,,,,,15,,62,0
22079,note_on,,0,0,18,,,,,,,,,,,,,,,,15,,57,0
22079,note_on,,0,0,18,,,,,,,,,,,,,,,,15,,69,0
22080,note_on,,1,0,16,,,,,,,,,,,,,,,,12,,71,72
22080,note_on,,1,0,12,,,,,,,,,,,,,,,,7,,62,72
22080,note_on,,1,0,13,,,,,,,,,,,,,,,,8,,55,72
22080,note_on,,1,0,17,,,,,,,,,,,,,,,,13,,55,72
22080,note_on,,1,0,6,,,,,,,,,,,,,,,,1,,55,72
22080,note_on,,1,0,14,,,,,,,,,,,,,,,,10,,62,72
22080,note_on,,0,0,18,,,,,,,,,,,,,,,,15,,71,72
22080,note_on,,1,0,11,,,,,,,,,,,,,,,,6,,71,72
22080,note_on,,1,0,18,,,,,,,,,,,,,,,,15,,55,72
22080,note_on,,1,0,15,,,,,,,,,,,,,,,,11,,71,72
22080,note_on,,0,0,18,,,,,,,,,,,,,,,,15,,62,72
22139,note_on,,59,0,13,,,,,,,,,,,,,,,,8,,55,0
22139,note_on,,59,0,6,,,,,,,,,,,,,,,,1,,55,0
22139,note_on,,0,0,18,,,,,,,,,,,,,,,,15,,71,0
22139,note_on,,59,0,17,,,,,,,,,,,,,,,,13,,55,0
22139,note_on,,59,0,18,,,,,,,,,,,,,,,,15,,55,0
22140,note_on,,1,0,6,,,,,,,,,,,,,,,,1,,50,72
22140,note_on,,0,0,18,,,,,,,,,,,,,,,,15,,74,72
22140,note_on,,1,0,13,,,,,,,,,,,,,,,,8,,50,72
22140,note_on,,1,0,18,,,,,,,,,,,,,,,,15,,50,72
22140,note_on,,1,0,17,,,,,,,,,,,,,,,,13,,50,72
22199,note_on,,59,0,6,,,,,,,,,,,,,,,,1,,50,0
22199,note_on,,119,0,16,,,,,,,,,,,,,,,,12,,71,0
22199,note_on,,119,0,15,,,,,,,,,,,,,,,,11,,71,0
22199,note_on,,119,0,11,,,,,,,,,,,,,,,,6,,71,0
22199,note_on,,119,0,12,,,,,,,,,,,,,,,,7,,62,0
22199,note_on,,59,0,17,,,,,,,,,,,,,,,,13,,50,0
22199,note_on,,119,0,14,,,,,,,,,,,,,,,,10,,62,0
22199,note_on,,0,0,18,,,,,,,,,,,,,,,,15,,50,0
22199,note_on,,0,0,18,,,,,,,,,,,,,,,,15,,74,0
22199,note_on,,59,0,13,,,,,,,,,,,,,,,,8,,50,0
22199,note_on,,59,0,18,,,,,,,,,,,,,,,,15,,62,0
22200,note_on,,1,0,18,,,,,,,,,,,,,,,,15,,62,72
22200,note_on,,1,0,16,,,,,,,,,,,,,,,,12,,62,72
22200,note_on,,1,0,15,,,,,,,,,,,,,,,,11,,62,72
22200,note_on,,1,0,11,,,,,,,,,,,,,,,,6,,62,72
22260,note_on,,61,0,6,,,,,,,,,,,,,,,,1,,59,72
22260,note_on,,0,0,18,,,,,,,,,,,,,,,,15,,71,72
22260,note_on,,60,0,18,,,,,,,,,,,,,,,,15,,59,72
22260,note_on,,61,0,14,,,,,,,,,,,,,,,,10,,59,72
22260,note_on,,61,0,12,,,,,,,,,,,,,,,,7,,59,72
22260,note_on,,61,0,17,,,,,,,,,,,,,,,,13,,59,72
22260,note_on,,0,0,18,,,,,,,,,,,,,,,,15,,67,72
22319,note_on,,119,0,15,,,,,,,,,,,,,,,,11,,62,0
22319,note_on,,0,0,18,,,,,,,,,,,,,,,,15,,67,0
22319,note_on,,59,0,6,,,,,,,,,,,,,,,,1,,59,0
22319,note_on,,59,0,14,,,,,,,,,,,,,,,,10,,59,0
22319,note_on,,59,0,12,,,,,,,,,,,,,,,,7,,59,0
22319,note_on,,119,0,11,,,,,,,,,,,,,,,,6,,62,0
22319,note_on,,59,0,18,,,,,,,,,,,,,,,,15,,62,0
22319,note_on,,119,0,16,,,,,,,,,,,,,,,,12,,62,0
22319,note_on,,0,0,18,,,,,,,,,,,,,,,,15,,59,0
22319,note_on,,59,0,17,,,,,,,,,,,,,,,,13,,59,0
22320,note_on,,1,0,18,,,,,,,,,,,,,,,,15,,64,72
22320,note_on,,1,0,14,,,,,,,,,,,,,,,,10,,64,72
22320,note_on,,0,0,18,,,,,,,,,,,,,,,,15,,67,72
22320,note_on,,1,0,17,,,,,,,,,,,,,,,,13,,64,72
22320,note_on,,1,0,15,,,,,,,,,,,,,,,,11,,67,72
22320,note_on,,1,0,11,,,,,,,,,,,,,,,,6,,67,72
22320,note_on,,1,0,6,,,,,,,,,,,,,,,,1,,64,72
22320,note_on,,1,0,16,,,,,,,,,,,,,,,,12,,67,72
22320,note_on,,1,0,12,,,,,,,,,,,,,,,,7,,64,72
22379,note_on,,59,0,6,,,,,,,,,,,,,,,,1,,64,0
22379,note_on,,59,0,18,,,,,,,,,,,,,,,,15,,71,0
22379,note_on,,0,0,18,,,,,,,,,,,,,,,,15,,64,0
22379,note_on,,59,0,14,,,,,,,,,,,,,,,,10,,64,0
22379,note_on,,59,0,17,,,,,,,,,,,,,,,,13,,64,0
22379,note_on,,59,0,12,,,,,,,,,,,,,,,,7,,64,0
22380,note_on,,1,0,14,,,,,,,,,,,,,,,,10,,61,72
22380,note_on,,1,0,12,,,,,,,,,,,,,,,,7,,61,72
22380,note_on,,1,0,18,,,,,,,,,,,,,,,,15,,61,72
22380,note_on,,0,0,18,,,,,,,,,,,,,,,,15,,76,72
22380,note_on,,1,0,17,,,,,,,,,,,,,,,,13,,61,72
22380,note_on,,1,0,6,,,,,,,,,,,,,,,,1,,61,72
22439,note_on,,119,0,15,,,,,,,,,,,,,,,,11,,67,0
22439,note_on,,59,0,12,,,,,,,,,,,,,,,,7,,61,0
22439,note_on,,59,0,17,,,,,,,,,,,,,,,,13,,61,0
22439,note_on,,119,0,16,,,,,,,,,,,,,,,,12,,67,0
22439,note_on,,59,0,14,,,,,,,,,,,,,,,,10,,61,0
22439,note_on,,119,0,11,,,,,,,,,,,,,,,,6,,67,0
22439,note_on,,59,0,18,,,,,,,,,,,,,,,,15,,67,0
22439,note_on,,59,0,6,,,,,,,,,,,,,,,,1,,61,0
22439,note_on,,0,0,18,,,,,,,,,,,,,,,,15,,76,0
22439,note_on,,0,0,18,,,,,,,,,,,,,,,,15,,61,0
22440,note_on,,1,0,6,,,,,,,,,,,,,,,,1,,62,72
22440,note_on,,1,0,16,,,,,,,,,,,,,,,,12,,66,72
22440,note_on,,1,0,15,,,,,,,,,,,,,,,,11,,66,72
22440,note_on,,1,0,18,,,,,,,,,,,,,,,,15,,62,72
22440,note_on,,1,0,11,,,,,,,,,,,,,,,,6,,66,72
22440,note_on,,0,0,18,,,,,,,,,,,,,,,,15,,69,72
22440,note_on,,1,0,14,,,,,,,,,,,,,,,,10,,62,72
22440,note_on,,1,0,12,,,,,,,,,,,,,,,,7,,62,72
22440,note_on,,0,0,18,,,,,,,,,,,,,,,,15,,66,72
22440,note_on,,1,0,17,,,,,,,,,,,,,,,,13,,62,72
22499,note_on,,59,0,15,,,,,,,,,,,,,,,,11,,66,0
22499,note_on,,59,0,16,,,,,,,,,,,,,,,,12,,66,0
22499,note_on,,59,0,18,,,,,,,,,,,,,,,,15,,62,0
22499,note_on,,0,0,18,,,,,,,,,,,,,,,,15,,66,0
22499,note_on,,59,0,17,,,,,,,,,,,,,,,,13,,62,0
22499,note_on,,0,0,18,,,,,,,,,,,,,,,,15,,69,0
22499,note_on,,59,0,12,,,,,,,,,,,,,,,,7,,62,0
22499,note_on,,59,0,11,,,,,,,,,,,,,,,,6,,66,0
22499,note_on,,59,0,6,,,,,,,,,,,,,,,,1,,62,0
22500,note_on,,1,0,11,,,,,,,,,,,,,,,,6,,64,72
22500,note_on,,0,0,18,,,,,,,,,,,,,,,,15,,67,72
22500,note_on,,1,0,15,,,,,,,,,,,,,,,,11,,64,72
22500,note_on,,0,0,18,,,,,,,,,,,,,,,,15,,62,72
22500,note_on,,1,0,16,,,,,,,,,,,,,,,,12,,64,72
22500,note_on,,0,0,18,,,,,,,,,,,,,,,,15,,71,72
22500,note_on,,1,0,18,,,,,,,,,,,,,,,,15,,55,72
22500,note_on,,301,0,13,,,,,,,,,,,,,,,,8,,55,72
22500,note_on,,1,0,6,,,,,,,,,,,,,,,,1,,55,72
22500,note_on,,1,0,12,,,,,,,,,,,,,,,,7,,62,72
22500,note_on,,1,0,17,,,,,,,,,,,,,,,,13,,55,72
22559,note_on,,59,0,18,,,,,,,,,,,,,,,,15,,55,0
22559,note_on,,59,0,16,,,,,,,,,,,,,,,,12,,64,0
22559,note_on,,59,0,17,,,,,,,,,,,,,,,,13,,55,0
22559,note_on,,59,0,13,,,,,,,,,,,,,,,,8,,55,0
22559,note_on,,59,0,15,,,,,,,,,,,,,,,,11,,64,0
22559,note_on,,0,0,18,,,,,,,,,,,,,,,,15,,67,0
22559,note_on,,0,0,18,,,,,,,,,,,,,,,,15,,62,0
22559,note_on,,0,0,18,,,,,,,,,,,,,,,,15,,71,0
22559,note_on,,59,0,12,,,,,,,,,,,,,,,,7,,62,0
22559,note_on,,59,0,11,,,,,,,,,,,,,,,,6,,64,0
22559,note_on,,59,0,6,,,,,,,,,,,,,,,,1,,55,0
22559,note_on,,119,0,14,,,,,,,,,,,,,,,,10,,62,0
22560,note_on,,1,0,18,,,,,,,,,,,,,,,,15,,57,72
22560,note_on,,0,0,18,,,,,,,,,,,,,,,,15,,69,72
22560,note_on,,0,0,18,,,,,,,,,,,,,,,,15,,66,72
22560,note_on,,0,0,18,,,,,,,,,,,,,,,,15,,62,72
22560,note_on,,1,0,14,,,,,,,,,,,,,,,,10,,62,72
22560,note_on,,1,0,13,,,,,,,,,,,,,,,,8,,57,72
22560,note_on,,1,0,16,,,,,,,,,,,,,,,,12,,66,72
22560,note_on,,1,0,17,,,,,,,,,,,,,,,,13,,57,72
22560,note_on,,1,0,15,,,,,,,,,,,,,,,,11,,66,72
22560,note_on,,1,0,12,,,,,,,,,,,,,,,,7,,62,72
22560,note_on,,1,0,11,,,,,,,,,,,,,,,,6,,66,72
22560,note_on,,1,0,6,,,,,,,,,,,,,,,,1,,57,72
22619,note_on,,59,0,13,,,,,,,,,,,,,,,,8,,57,0
22619,note_on,,59,0,6,,,,,,,,,,,,,,,,1,,57,0
22619,note_on,,59,0,17,,,,,,,,,,,,,,,,13,,57,0
22620,note_on,,1,0,17,,,,,,,,,,,,,,,,13,,45,72
22620,note_on,,1,0,13,,,,,,,,,,,,,,,,8,,45,72
22620,note_on,,1,0,6,,,,,,,,,,,,,,,,1,,45,72
22620,note_on,,60,0,18,,,,,,,,,,,,,,,,15,,45,72
22679,note_on,,59,0,6,,,,,,,,,,,,,,,,1,,45,0
22679,note_on,,119,0,16,,,,,,,,,,,,,,,,12,,66,0
22679,note_on,,59,0,17,,,,,,,,,,,,,,,,13,,45,0
22679,note_on,,0,0,18,,,,,,,,,,,,,,,,15,,69,0
22679,note_on,,119,0,14,,,,,,,,,,,,,,,,10,,62,0
22679,note_on,,119,0,11,,,,,,,,,,,,,,,,6,,66,0
22679,note_on,,59,0,13,,,,,,,,,,,,,,,,8,,45,0
22679,note_on,,0,0,18,,,,,,,,,,,,,,,,15,,66,0
22679,note_on,,119,0,12,,,,,,,,,,,,,,,,7,,62,0
22679,note_on,,0,0,18,,,,,,,,,,,,,,,,15,,62,0
22679,note_on,,0,0,18,,,,,,,,,,,,,,,,15,,45,0
22679,note_on,,59,0,18,,,,,,,,,,,,,,,,15,,57,0
22679,note_on,,119,0,15,,,,,,,,,,,,,,,,11,,66,0
22680,note_on,,1,0,16,,,,,,,,,,,,,,,,12,,64,72
22680,note_on,,0,0,18,,,,,,,,,,,,,,,,15,,64,72
22680,note_on,,1,0,11,,,,,,,,,,,,,,,,6,,64,72
22680,note_on,,1,0,12,,,,,,,,,,,,,,,,7,,61,72
22680,note_on,,0,0,18,,,,,,,,,,,,,,,,15,,69,72
22680,note_on,,1,0,15,,,,,,,,,,,,,,,,11,,64,72
22680,note_on,,1,0,14,,,,,,,,,,,,,,,,10,,61,72
22680,note_on,,1,0,18,,,,,,,,,,,,,,,,15,,73,72
22740,note_on,,61,0,6,,,,,,,,,,,,,,,,1,,57,72
22740,note_on,,61,0,17,,,,,,,,,,,,,,,,13,,57,72
22740,note_on,,61,0,13,,,,,,,,,,,,,,,,8,,57,72
22740,note_on,,60,0,18,,,,,,,,,,,,,,,,15,,57,72
22769,note_on,,89,0,15,,,,,,,,,,,,,,,,11,,64,0
22769,note_on,,89,0,16,,,,,,,,,,,,,,,,12,,64,0
22769,note_on,,89,0,11,,,,,,,,,,,,,,,,6,,64,0
22770,note_on,,1,0,11,,,,,,,,,,,,,,,,6,,62,72
22770,note_on,,1,0,16,,,,,,,,,,,,,,,,12,,62,72
22770,note_on,,1,0,15,,,,,,,,,,,,,,,,11,,62,72
22799,note_on,,59,0,13,,,,,,,,,,,,,,,,8,,57,0
22799,note_on,,29,0,11,,,,,,,,,,,,,,,,6,,62,0
22799,note_on,,0,0,18,,,,,,,,,,,,,,,,15,,64,0
22799,note_on,,119,0,12,,,,,,,,,,,,,,,,7,,61,0
22799,note_on,,59,0,6,,,,,,,,,,,,,,,,1,,57,0
22799,note_on,,29,0,15,,,,,,,,,,,,,,,,11,,62,0
22799,note_on,,0,0,18,,,,,,,,,,,,,,,,15,,57,0
22799,note_on,,0,0,18,,,,,,,,,,,,,,,,15,,69,0
22799,note_on,,119,0,14,,,,,,,,,,,,,,,,10,,61,0
22799,note_on,,29,0,16,,,,,,,,,,,,,,,,12,,62,0
22799,note_on,,59,0,17,,,,,,,,,,,,,,,,13,,57,0
22799,note_on,,59,0,18,,,,,,,,,,,,,,,,15,,73,0
22800,note_on,,1,0,18,,,,,,,,,,,,,,,,15,,54,72
22800,note_on,,0,0,18,,,,,,,,,,,,,,,,15,,62,72
22800,note_on,,0,0,18,,,,,,,,,,,,,,,,15,,57,72
22800,note_on,,1,0,6,,,,,,,,,,,,,,,,1,,54,72
22800,note_on,,1,0,12,,,,,,,,,,,,,,,,7,,62,72
22800,note_on,,1,0,15,,,,,,,,,,,,,,,,11,,62,72
22800,note_on,,1,0,14,,,,,,,,,,,,,,,,10,,62,72
22800,note_on,,1,0,16,,,,,,,,,,,,,,,,12,,62,72
22800,note_on,,0,0,18,,,,,,,,,,,,,,,,15,,74,72
22800,note_on,,1,0,11,,,,,,,,,,,,,,,,6,,62,72
22800,note_on,,0,0,18,,,,,,,,,,,,,,,,15,,69,72
22800,note_on,,1,0,17,,,,,,,,,,,,,,,,13,,54,72
22800,note_on,,1,0,13,,,,,,,,,,,,,,,,8,,54,72
22859,note_on,,0,0,18,,,,,,,,,,,,,,,,15,,69,0
22859,note_on,,59,0,15,,,,,,,,,,,,,,,,11,,62,0
22859,note_on,,59,0,17,,,,,,,,,,,,,,,,13,,54,0
22859,note_on,,0,0,18,,,,,,,,,,,,,,,,15,,74,0
22859,note_on,,59,0,18,,,,,,,,,,,,,,,,15,,54,0
22859,note_on,,59,0,11,,,,,,,,,,,,,,,,6,,62,0
22859,note_on,,59,0,13,,,,,,,,,,,,,,,,8,,54,0
22859,note_on,,59,0,6,,,,,,,,,,,,,,,,1,,54,0
22860,note_on,,1,0,11,,,,,,,,,,,,,,,,6,,69,72
22860,note_on,,1,0,18,,,,,,,,,,,,,,,,15,,50,72
22860,note_on,,1,0,13,,,,,,,,,,,,,,,,8,,50,72
22860,note_on,,0,0,18,,,,,,,,,,,,,,,,15,,69,72
22860,note_on,,1,0,17,,,,,,,,,,,,,,,,13,,50,72
22860,note_on,,1,0,15,,,,,,,,,,,,,,,,11,,69,72
22860,note_on,,1,0,6,,,,,,,,,,,,,,,,1,,50,72
22860,note_on,,0,0,18,,,,,,,,,,,,,,,,15,,66,72
22919,note_on,,0,0,18,,,,,,,,,,,,,,,,15,,57,0
22919,note_on,,0,0,18,,,,,,,,,,,,,,,,15,,50,0
22919,note_on,,0,0,18,,,,,,,,,,,,,,,,15,,69,0
22919,note_on,,0,0,18,,,,,,,,,,,,,,,,15,,66,0
22919,note_on,,59,0,11,,,,,,,,,,,,,,,,6,,69,0
22919,note_on,,119,0,12,,,,,,,,,,,,,,,,7,,62,0
22919,note_on,,59,0,17,,,,,,,,,,,,,,,,13,,50,0
22919,note_on,,59,0,15,,,,,,,,,,,,,,,,11,,69,0
22919,note_on,,59,0,13,,,,,,,,,,,,,,,,8,,50,0
22919,note_on,,119,0,14,,,,,,,,,,,,,,,,10,,62,0
22919,note_on,,59,0,18,,,,,,,,,,,,,,,,15,,62,0
22919,note_on,,119,0,16,,,,,,,,,,,,,,,,12,,62,0
22919,note_on,,59,0,6,,,,,,,,,,,,,,,,1,,50,0
22920,note_on,,1,0,15,,,,,,,,,,,,,,,,11,,66,72
22920,note_on,,3481,0,5,,,,,,,,,,,,,,,,0,,74,72
22920,note_on,,1,0,14,,,,,,,,,,,,,,,,10,,74,72
22920,note_on,,1,0,11,,,,,,,,,,,,,,,,6,,66,72
22920,note_on,,3481,0,10,,,,,,,,,,,,,,,,5,,74,72
22979,note_on,,59,0,15,,,,,,,,,,,,,,,,11,,66,0
22979,note_on,,59,0,11,,,,,,,,,,,,,,,,6,,66,0
22980,note_on,,1,0,11,,,,,,,,,,,,,,,,6,,62,72
22980,note_on,,0,0,18,,,,,,,,,,,,,,,,15,,78,72
22980,note_on,,61,0,18,,,,,,,,,,,,,,,,15,,62,72
22980,note_on,,61,0,17,,,,,,,,,,,,,,,,13,,62,72
22980,note_on,,0,0,18,,,,,,,,,,,,,,,,15,,74,72
22980,note_on,,61,0,13,,,,,,,,,,,,,,,,8,,62,72
22980,note_on,,61,0,6,,,,,,,,,,,,,,,,1,,62,72
22980,note_on,,1,0,15,,,,,,,,,,,,,,,,11,,62,72
22980,note_on,,61,0,16,,,,,,,,,,,,,,,,12,,66,72
22980,note_on,,0,0,18,,,,,,,,,,,,,,,,15,,69,72
23039,note_on,,59,0,17,,,,,,,,,,,,,,,,13,,62,0
23039,note_on,,59,0,13,,,,,,,,,,,,,,,,8,,62,0
23039,note_on,,119,0,14,,,,,,,,,,,,,,,,10,,74,0
23039,note_on,,0,0,18,,,,,,,,,,,,,,,,15,,78,0
23039,note_on,,0,0,18,,,,,,,,,,,,,,,,15,,74,0
23039,note_on,,0,0,18,,,,,,,,,,,,,,,,15,,69,0
23039,note_on,,59,0,16,,,,,,,,,,,,,,,,12,,66,0
23039,note_on,,59,0,11,,,,,,,,,,,,,,,,6,,62,0
23039,note_on,,59,0,6,,,,,,,,,,,,,,,,1,,62,0
23039,note_on,,119,0,5,,,,,,,,,,,,,,,,0,,74,0
23039,note_on,,59,0,15,,,,,,,,,,,,,,,,11,,62,0
23039,note_on,,59,0,18,,,,,,,,,,,,,,,,15,,62,0
23039,note_on,,119,0,10,,,,,,,,,,,,,,,,5,,74,0
23040,note_on,,1,0,13,,,,,,,,,,,,,,,,8,,61,72
23040,note_on,,1,0,6,,,,,,,,,,,,,,,,1,,61,72
23040,note_on,,1,0,14,,,,,,,,,,,,,,,,10,,81,72
23040,note_on,,1,0,16,,,,,,,,,,,,,,,,12,,64,72
23040,note_on,,1,0,17,,,,,,,,,,,,,,,,13,,61,72
23040,note_on,,1,0,5,,,,,,,,,,,,,,,,0,,81,72
23040,note_on,,1,0,18,,,,,,,,,,,,,,,,15,,61,72
23040,note_on,,0,0,18,,,,,,,,,,,,,,,,15,,76,72
23040,note_on,,0,0,18,,,,,,,,,,,,,,,,15,,69,72
23040,note_on,,0,0,18,,,,,,,,,,,,,,,,15,,64,72
23040,note_on,,1,0,10,,,,,,,,,,,,,,,,5,,81,72
23099,note_on,,59,0,17,,,,,,,,,,,,,,,,13,,61,0
23099,note_on,,59,0,13,,,,,,,,,,,,,,,,8,,61,0
23099,note_on,,59,0,18,,,,,,,,,,,,,,,,15,,61,0
23099,note_on,,0,0,18,,,,,,,,,,,,,,,,15,,76,0
23099,note_on,,59,0,6,,,,,,,,,,,,,,,,1,,61,0
23099,note_on,,59,0,16,,,,,,,,,,,,,,,,12,,64,0
23100,note_on,,1,0,17,,,,,,,,,,,,,,,,13,,57,72
23100,note_on,,1,0,6,,,,,,,,,,,,,,,,1,,57,72
23100,note_on,,61,0,11,,,,,,,,,,,,,,,,6,,64,72
23100,note_on,,61,0,15,,,,,,,,,,,,,,,,11,,64,72
23100,note_on,,0,0,18,,,,,,,,,,,,,,,,15,,73,72
23100,note_on,,1,0,18,,,,,,,,,,,,,,,,15,,57,72
23100,note_on,,1,0,13,,,,,,,,,,,,,,,,8,,57,72
23100,note_on,,1,0,16,,,,,,,,,,,,,,,,12,,61,72
23159,note_on,,0,0,18,,,,,,,,,,,,,,,,15,,73,0
23159,note_on,,0,0,18,,,,,,,,,,,,,,,,15,,57,0
23159,note_on,,0,0,18,,,,,,,,,,,,,,,,15,,64,0
23159,note_on,,59,0,18,,,,,,,,,,,,,,,,15,,69,0
23159,note_on,,119,0,10,,,,,,,,,,,,,,,,5,,81,0
23159,note_on,,119,0,14,,,,,,,,,,,,,,,,10,,81,0
23159,note_on,,59,0,6,,,,,,,,,,,,,,,,1,,57,0
23159,note_on,,59,0,17,,,,,,,,,,,,,,,,13,,57,0
23159,note_on,,59,0,15,,,,,,,,,,,,,,,,11,,64,0
23159,note_on,,59,0,13,,,,,,,,,,,,,,,,8,,57,0
23159,note_on,,59,0,16,,,,,,,,,,,,,,,,12,,61,0
23159,note_on,,59,0,11,,,,,,,,,,,,,,,,6,,64,0
23159,note_on,,119,0,5,,,,,,,,,,,,,,,,0,,81,0
23160,note_on,,1,0,14,,,,,,,,,,,,,,,,10,,73,72
23160,note_on,,1,0,11,,,,,,,,,,,,,,,,6,,69,72
23160,note_on,,1,0,10,,,,,,,,,,,,,,,,5,,73,72
23160,note_on,,1,0,15,,,,,,,,,,,,,,,,11,,69,72
23160,note_on,,1,0,5,,,,,,,,,,,,,,,,0,,73,72
23219,note_on,,59,0,11,,,,,,,,,,,,,,,,6,,69,0
23219,note_on,,59,0,15,,,,,,,,,,,,,,,,11,,69,0
23220,note_on,,61,0,17,,,,,,,,,,,,,,,,13,,61,72
23220,note_on,,0,0,18,,,,,,,,,,,,,,,,15,,64,72
23220,note_on,,0,0,18,,,,,,,,,,,,,,,,15,,69,72
23220,note_on,,0,0,18,,,,,,,,,,,,,,,,15,,76,72
23220,note_on,,1,0,11,,,,,,,,,,,,,,,,6,,64,72
23220,note_on,,1,0,15,,,,,,,,,,,,,,,,11,,64,72
23220,note_on,,61,0,16,,,,,,,,,,,,,,,,12,,69,72
23220,note_on,,61,0,13,,,,,,,,,,,,,,,,8,,61,72
23220,note_on,,61,0,18,,,,,,,,,,,,,,,,15,,61,72
23220,note_on,,61,0,6,,,,,,,,,,,,,,,,1,,61,72
23279,note_on,,119,0,14,,,,,,,,,,,,,,,,10,,73,0
23279,note_on,,59,0,13,,,,,,,,,,,,,,,,8,,61,0
23279,note_on,,59,0,17,,,,,,,,,,,,,,,,13,,61,0
23279,note_on,,119,0,5,,,,,,,,,,,,,,,,0,,73,0
23279,note_on,,59,0,11,,,,,,,,,,,,,,,,6,,64,0
23279,note_on,,59,0,18,,,,,,,,,,,,,,,,15,,61,0
23279,note_on,,0,0,18,,,,,,,,,,,,,,,,15,,76,0
23279,note_on,,0,0,18,,,,,,,,,,,,,,,,15,,69,0
23279,note_on,,0,0,18,,,,,,,,,,,,,,,,15,,64,0
23279,note_on,,59,0,6,,,,,,,,,,,,,,,,1,,61,0
23279,note_on,,59,0,16,,,,,,,,,,,,,,,,12,,69,0
23279,note_on,,59,0,15,,,,,,,,,,,,,,,,11,,64,0
23279,note_on,,119,0,10,,,,,,,,,,,,,,,,5,,73,0
23280,note_on,,1,0,6,,,,,,,,,,,,,,,,1,,62,72
23280,note_on,,1,0,16,,,,,,,,,,,,,,,,12,,69,72
23280,note_on,,1,0,14,,,,,,,,,,,,,,,,10,,78,72
23280,note_on,,1,0,17,,,,,,,,,,,,,,,,13,,62,72
23280,note_on,,1,0,10,,,,,,,,,,,,,,,,5,,78,72
23280,note_on,,0,0,18,,,,,,,,,,,,,,,,15,,66,72
23280,note_on,,1,0,5,,,,,,,,,,,,,,,,0,,78,72
23280,note_on,,0,0,18,,,,,,,,,,,,,,,,15,,69,72
23280,note_on,,1,0,13,,,,,,,,,,,,,,,,8,,62,72
23280,note_on,,1,0,18,,,,,,,,,,,,,,,,15,,62,72
23339,note_on,,59,0,16,,,,,,,,,,,,,,,,12,,69,0
23339,note_on,,59,0,6,,,,,,,,,,,,,,,,1,,62,0
23339,note_on,,59,0,18,,,,,,,,,,,,,,,,15,,62,0
23339,note_on,,0,0,18,,,,,,,,,,,,,,,,15,,69,0
23339,note_on,,0,0,18,,,,,,,,,,,,,,,,15,,66,0
23339,note_on,,59,0,13,,,,,,,,,,,,,,,,8,,62,0
23339,note_on,,59,0,17,,,,,,,,,,,,,,,,13,,62,0
23340,note_on,,1,0,6,,,,,,,,,,,,,,,,1,,50,72
23340,note_on,,1,0,18,,,,,,,,,,,,,,,,15,,50,72
23340,note_on,,1,0,17,,,,,,,,,,,,,,,,13,,50,72
23340,note_on,,1,0,16,,,,,,,,,,,,,,,,12,,62,72
23340,note_on,,61,0,15,,,,,,,,,,,,,,,,11,,62,72
23340,note_on,,1,0,13,,,,,,,,,,,,,,,,8,,50,72
23340,note_on,,0,0,18,,,,,,,,,,,,,,,,15,,66,72
23340,note_on,,0,0,18,,,,,,,,,,,,,,,,15,,57,72
23340,note_on,,421,0,12,,,,,,,,,,,,,,,,7,,62,72
23340,note_on,,0,0,18,,,,,,,,,,,,,,,,15,,74,72
23399,note_on,,59,0,16,,,,,,,,,,,,,,,,12,,62,0
23399,note_on,,59,0,18,,,,,,,,,,,,,,,,15,,50,0
23399,note_on,,0,0,18,,,,,,,,,,,,,,,,15,,74,0
23399,note_on,,59,0,6,,,,,,,,,,,,,,,,1,,50,0
23399,note_on,,0,0,18,,,,,,,,,,,,,,,,15,,66,0
23399,note_on,,59,0,15,,,,,,,,,,,,,,,,11,,62,0
23399,note_on,,0,0,18,,,,,,,,,,,,,,,,15,,57,0
23399,note_on,,119,0,14,,,,,,,,,,,,,,,,10,,78,0
23399,note_on,,119,0,10,,,,,,,,,,,,,,,,5,,78,0
23399,note_on,,59,0,12,,,,,,,,,,,,,,,,7,,62,0
23399,note_on,,119,0,5,,,,,,,,,,,,,,,,0,,78,0
23399,note_on,,59,0,13,,,,,,,,,,,,,,,,8,,50,0
23399,note_on,,59,0,17,,,,,,,,,,,,,,,,13,,50,0
23400,note_on,,1,0,14,,,,,,,,,,,,,,,,10,,69,72
23400,note_on,,1,0,12,,,,,,,,,,,,,,,,7,,61,72
23400,note_on,,1,0,15,,,,,,,,,,,,,,,,11,,61,72
23400,note_on,,1,0,5,,,,,,,,,,,,,,,,0,,69,72
23400,note_on,,1,0,10,,,,,,,,,,,,,,,,5,,69,72
23459,note_on,,59,0,15,,,,,,,,,,,,,,,,11,,61,0
23459,note_on,,59,0,12,,,,,,,,,,,,,,,,7,,61,0
23460,note_on,,1,0,15,,,,,,,,,,,,,,,,11,,57,72
23460,note_on,,0,0,18,,,,,,,,,,,,,,,,15,,66,72
23460,note_on,,0,0,18,,,,,,,,,,,,,,,,15,,62,72
23460,note_on,,0,0,18,,,,,,,,,,,,,,,,15,,69,72
23460,note_on,,61,0,18,,,,,,,,,,,,,,,,15,,54,72
23460,note_on,,181,0,11,,,,,,,,,,,,,,,,6,,61,72
23460,note_on,,61,0,16,,,,,,,,,,,,,,,,12,,69,72
23460,note_on,,61,0,13,,,,,,,,,,,,,,,,8,,54,72
23460,note_on,,61,0,6,,,,,,,,,,,,,,,,1,,54,72
23460,note_on,,61,0,17,,,,,,,,,,,,,,,,13,,54,72
23460,note_on,,1,0,12,,,,,,,,,,,,,,,,7,,57,72
23519,note_on,,59,0,12,,,,,,,,,,,,,,,,7,,57,0
23519,note_on,,119,0,10,,,,,,,,,,,,,,,,5,,69,0
23519,note_on,,0,0,18,,,,,,,,,,,,,,,,15,,62,0
23519,note_on,,0,0,18,,,,,,,,,,,,,,,,15,,66,0
23519,note_on,,0,0,18,,,,,,,,,,,,,,,,15,,69,0
23519,note_on,,59,0,18,,,,,,,,,,,,,,,,15,,54,0
23519,note_on,,59,0,6,,,,,,,,,,,,,,,,1,,54,0
23519,note_on,,59,0,15,,,,,,,,,,,,,,,,11,,57,0
23519,note_on,,59,0,11,,,,,,,,,,,,,,,,6,,61,0
23519,note_on,,59,0,17,,,,,,,,,,,,,,,,13,,54,0
23519,note_on,,119,0,14,,,,,,,,,,,,,,,,10,,69,0
23519,note_on,,59,0,16,,,,,,,,,,,,,,,,12,,69,0
23519,note_on,,59,0,13,,,,,,,,,,,,,,,,8,,54,0
23519,note_on,,119,0,5,,,,,,,,,,,,,,,,0,,69,0
23520,note_on,,1,0,15,,,,,,,,,,,,,,,,11,,62,72
23520,note_on,,1,0,5,,,,,,,,,,,,,,,,0,,74,72
23520,note_on,,1,0,16,,,,,,,,,,,,,,,,12,,66,72
23520,note_on,,1,0,14,,,,,,,,,,,,,,,,10,,74,72
23520,note_on,,1,0,11,,,,,,,,,,,,,,,,6,,62,72
23520,note_on,,1,0,12,,,,,,,,,,,,,,,,7,,66,72
23520,note_on,,0,0,18,,,,,,,,,,,,,,,,15,,68,72
23520,note_on,,0,0,18,,,,,,,,,,,,,,,,15,,62,72
23520,note_on,,1,0,18,,,,,,,,,,,,,,,,15,,59,72
23520,note_on,,1,0,13,,,,,,,,,,,,,,,,8,,59,72
23520,note_on,,1,0,10,,,,,,,,,,,,,,,,5,,74,72
23520,note_on,,1,0,17,,,,,,,,,,,,,,,,13,,59,72
23520,note_on,,1,0,6,,,,,,,,,,,,,,,,1,,59,72
23579,note_on,,59,0,16,,,,,,,,,,,,,,,,12,,66,0
23579,note_on,,59,0,13,,,,,,,,,,,,,,,,8,,59,0
23579,note_on,,59,0,18,,,,,,,,,,,,,,,,15,,59,0
23579,note_on,,59,0,11,,,,,,,,,,,,,,,,6,,62,0
23579,note_on,,59,0,15,,,,,,,,,,,,,,,,11,,62,0
23579,note_on,,59,0,12,,,,,,,,,,,,,,,,7,,66,0
23579,note_on,,59,0,17,,,,,,,,,,,,,,,,13,,59,0
23579,note_on,,0,0,18,,,,,,,,,,,,,,,,15,,68,0
23579,note_on,,59,0,6,,,,,,,,,,,,,,,,1,,59,0
23580,note_on,,1,0,17,,,,,,,,,,,,,,,,13,,56,72
23580,note_on,,1,0,12,,,,,,,,,,,,,,,,7,,64,72
23580,note_on,,1,0,6,,,,,,,,,,,,,,,,1,,56,72
23580,note_on,,1,0,11,,,,,,,,,,,,,,,,6,,71,72
23580,note_on,,1,0,16,,,,,,,,,,,,,,,,12,,64,72
23580,note_on,,0,0,18,,,,,,,,,,,,,,,,15,,71,72
23580,note_on,,1,0,18,,,,,,,,,,,,,,,,15,,56,72
23580,note_on,,1,0,13,,,,,,,,,,,,,,,,8,,56,72
23580,note_on,,1,0,15,,,,,,,,,,,,,,,,11,,71,72
23639,note_on,,119,0,14,,,,,,,,,,,,,,,,10,,74,0
23639,note_on,,59,0,16,,,,,,,,,,,,,,,,12,,64,0
23639,note_on,,59,0,17,,,,,,,,,,,,,,,,13,,56,0
23639,note_on,,119,0,10,,,,,,,,,,,,,,,,5,,74,0
23639,note_on,,59,0,13,,,,,,,,,,,,,,,,8,,56,0
23639,note_on,,59,0,6,,,,,,,,,,,,,,,,1,,56,0
23639,note_on,,119,0,5,,,,,,,,,,,,,,,,0,,74,0
23639,note_on,,59,0,15,,,,,,,,,,,,,,,,11,,71,0
23639,note_on,,0,0,18,,,,,,,,,,,,,,,,15,,71,0
23639,note_on,,0,0,18,,,,,,,,,,,,,,,,15,,56,0
23639,note_on,,59,0,18,,,,,,,,,,,,,,,,15,,62,0
23639,note_on,,59,0,11,,,,,,,,,,,,,,,,6,,71,0
23640,note_on,,1,0,14,,,,,,,,,,,,,,,,10,,73,72
23640,note_on,,1,0,5,,,,,,,,,,,,,,,,0,,73,72
23640,note_on,,1,0,11,,,,,,,,,,,,,,,,6,,69,72
23640,note_on,,0,0,18,,,,,,,,,,,,,,,,15,,61,72
23640,note_on,,0,0,18,,,,,,,,,,,,,,,,15,,64,72
23640,note_on,,1,0,18,,,,,,,,,,,,,,,,15,,57,72
23640,note_on,,1,0,13,,,,,,,,,,,,,,,,8,,57,72
23640,note_on,,1,0,6,,,,,,,,,,,,,,,,1,,57,72
23640,note_on,,1,0,17,,,,,,,,,,,,,,,,13,,57,72
23640,note_on,,1,0,10,,,,,,,,,,,,,,,,5,,73,72
23640,note_on,,1,0,16,,,,,,,,,,,,,,,,12,,64,72
23640,note_on,,1,0,15,,,,,,,,,,,,,,,,11,,69,72
23699,note_on,,59,0,13,,,,,,,,,,,,,,,,8,,57,0
23699,note_on,,119,0,12,,,,,,,,,,,,,,,,7,,64,0
23699,note_on,,59,0,14,,,,,,,,,,,,,,,,10,,73,0
23699,note_on,,0,0,18,,,,,,,,,,,,,,,,15,,61,0
23699,note_on,,0,0,18,,,,,,,,,,,,,,,,15,,64,0
23699,note_on,,59,0,18,,,,,,,,,,,,,,,,15,,57,0
23699,note_on,,59,0,17,,,,,,,,,,,,,,,,13,,57,0
23699,note_on,,59,0,10,,,,,,,,,,,,,,,,5,,73,0
23699,note_on,,59,0,6,,,,,,,,,,,,,,,,1,,57,0
23699,note_on,,59,0,5,,,,,,,,,,,,,,,,0,,73,0
23699,note_on,,59,0,16,,,,,,,,,,,,,,,,12,,64,0
23700,note_on,,1,0,5,,,,,,,,,,,,,,,,0,,71,72
23700,note_on,,1,0,14,,,,,,,,,,,,,,,,10,,71,72
23700,note_on,,1,0,12,,,,,,,,,,,,,,,,7,,66,72
23700,note_on,,1,0,16,,,,,,,,,,,,,,,,12,,66,72
23700,note_on,,1,0,13,,,,,,,,,,,,,,,,8,,50,72
23700,note_on,,0,0,18,,,,,,,,,,,,,,,,15,,57,72
23700,note_on,,0,0,18,,,,,,,,,,,,,,,,15,,66,72
23700,note_on,,1,0,18,,,,,,,,,,,,,,,,15,,50,72
23700,note_on,,1,0,10,,,,,,,,,,,,,,,,5,,71,72
23700,note_on,,1,0,6,,,,,,,,,,,,,,,,1,,50,72
23700,note_on,,1,0,17,,,,,,,,,,,,,,,,13,,50,72
23700,note_on,,0,0,18,,,,,,,,,,,,,,,,15,,62,72
23759,note_on,,59,0,13,,,,,,,,,,,,,,,,8,,50,0
23759,note_on,,59,0,5,,,,,,,,,,,,,,,,0,,71,0
23759,note_on,,59,0,12,,,,,,,,,,,,,,,,7,,66,0
23759,note_on,,59,0,17,,,,,,,,,,,,,,,,13,,50,0
23759,note_on,,59,0,16,,,,,,,,,,,,,,,,12,,66,0
23759,note_on,,0,0,18,,,,,,,,,,,,,,,,15,,62,0
23759,note_on,,59,0,14,,,,,,,,,,,,,,,,10,,71,0
23759,note_on,,59,0,6,,,,,,,,,,,,,,,,1,,50,0
23759,note_on,,59,0,10,,,,,,,,,,,,,,,,5,,71,0
23759,note_on,,0,0,18,,,,,,,,,,,,,,,,15,,57,0
23759,note_on,,0,0,18,,,,,,,,,,,,,,,,15,,66,0
23759,note_on,,59,0,18,,,,,,,,,,,,,,,,15,,50,0
23760,note_on,,1,0,6,,,,,,,,,,,,,,,,1,,52,72
23760,note_on,,1,0,16,,,,,,,,,,,,,,,,12,,64,72
23760,note_on,,1,0,10,,,,,,,,,,,,,,,,5,,73,72
23760,note_on,,1,0,14,,,,,,,,,,,,,,,,10,,73,72
23760,note_on,,0,0,18,,,,,,,,,,,,,,,,15,,61,72
23760,note_on,,0,0,18,,,,,,,,,,,,,,,,15,,57,72
23760,note_on,,1,0,5,,,,,,,,,,,,,,,,0,,73,72
23760,note_on,,1,0,17,,,,,,,,,,,,,,,,13,,52,72
23760,note_on,,1,0,12,,,,,,,,,,,,,,,,7,,64,72
23760,note_on,,1,0,18,,,,,,,,,,,,,,,,15,,52,72
23760,note_on,,0,0,18,,,,,,,,,,,,,,,,15,,64,72
23760,note_on,,1,0,13,,,,,,,,,,,,,,,,8,,52,72
23819,note_on,,59,0,12,,,,,,,,,,,,,,,,7,,64,0
23819,note_on,,59,0,13,,,,,,,,,,,,,,,,8,,52,0
23819,note_on,,59,0,6,,,,,,,,,,,,,,,,1,,52,0
23819,note_on,,59,0,17,,,,,,,,,,,,,,,,13,,52,0
23820,note_on,,1,0,6,,,,,,,,,,,,,,,,1,,40,72
23820,note_on,,60,0,18,,,,,,,,,,,,,,,,15,,40,72
23820,note_on,,1,0,13,,,,,,,,,,,,,,,,8,,52,72
23820,note_on,,1,0,17,,,,,,,,,,,,,,,,13,,40,72
23820,note_on,,1,0,12,,,,,,,,,,,,,,,,7,,64,72
23879,note_on,,59,0,17,,,,,,,,,,,,,,,,13,,40,0
23879,note_on,,0,0,18,,,,,,,,,,,,,,,,15,,57,0
23879,note_on,,0,0,18,,,,,,,,,,,,,,,,15,,40,0
23879,note_on,,59,0,12,,,,,,,,,,,,,,,,7,,64,0
23879,note_on,,119,0,16,,,,,,,,,,,,,,,,12,,64,0
23879,note_on,,0,0,18,,,,,,,,,,,,,,,,15,,64,0
23879,note_on,,59,0,18,,,,,,,,,,,,,,,,15,,52,0
23879,note_on,,119,0,14,,,,,,,,,,,,,,,,10,,73,0
23879,note_on,,239,0,11,,,,,,,,,,,,,,,,6,,69,0
23879,note_on,,239,0,15,,,,,,,,,,,,,,,,11,,69,0
23879,note_on,,59,0,6,,,,,,,,,,,,,,,,1,,40,0
23879,note_on,,0,0,18,,,,,,,,,,,,,,,,15,,61,0
23879,note_on,,119,0,5,,,,,,,,,,,,,,,,0,,73,0
23879,note_on,,119,0,10,,,,,,,,,,,,,,,,5,,73,0
23879,note_on,,59,0,13,,,,,,,,,,,,,,,,8,,52,0
23880,note_on,,1,0,18,,,,,,,,,,,,,,,,15,,68,72
23880,note_on,,1,0,15,,,,,,,,,,,,,,,,11,,68,72
23880,note_on,,1,0,16,,,,,,,,,,,,,,,,12,,64,72
23880,note_on,,1,0,14,,,,,,,,,,,,,,,,10,,71,72
23880,note_on,,1,0,10,,,,,,,,,,,,,,,,5,,71,72
23880,note_on,,0,0,18,,,,,,,,,,,,,,,,15,,64,72
23880,note_on,,0,0,18,,,,,,,,,,,,,,,,15,,59,72
23880,note_on,,1,0,11,,,,,,,,,,,,,,,,6,,68,72
23880,note_on,,1,0,5,,,,,,,,,,,,,,,,0,,71,72
23940,note_on,,61,0,17,,,,,,,,,,,,,,,,13,,52,72
23940,note_on,,61,0,6,,,,,,,,,,,,,,,,1,,52,72
23940,note_on,,61,0,12,,,,,,,,,,,,,,,,7,,64,72
23940,note_on,,61,0,13,,,,,,,,,,,,,,,,8,,52,72
23940,note_on,,60,0,18,,,,,,,,,,,,,,,,15,,52,72
23969,note_on,,89,0,5,,,,,,,,,,,,,,,,0,,71,0
23969,note_on,,89,0,14,,,,,,,,,,,,,,,,10,,71,0
23969,note_on,,89,0,10,,,,,,,,,,,,,,,,5,,71,0
23970,note_on,,1,0,14,,,,,,,,,,,,,,,,10,,69,72
23970,note_on,,1,0,10,,,,,,,,,,,,,,,,5,,69,72
23970,note_on,,1,0,5,,,,,,,,,,,,,,,,0,,69,72
23999,note_on,,29,0,14,,,,,,,,,,,,,,,,10,,69,0
23999,note_on,,119,0,11,,,,,,,,,,,,,,,,6,,68,0
23999,note_on,,29,0,5,,,,,,,,,,,,,,,,0,,69,0
23999,note_on,,59,0,12,,,,,,,,,,,,,,,,7,,64,0
23999,note_on,,0,0,18,,,,,,,,,,,,,,,,15,,64,0
23999,note_on,,59,0,17,,,,,,,,,,,,,,,,13,,52,0
23999,note_on,,59,0,18,,,,,,,,,,,,,,,,15,,68,0
23999,note_on,,119,0,15,,,,,,,,,,,,,,,,11,,68,0
23999,note_on,,59,0,6,,,,,,,,,,,,,,,,1,,52,0
23999,note_on,,0,0,18,,,,,,,,,,,,,,,,15,,59,0
23999,note_on,,119,0,16,,,,,,,,,,,,,,,,12,,64,0
23999,note_on,,59,0,13,,,,,,,,,,,,,,,,8,,52,0
23999,note_on,,29,0,10,,,,,,,,,,,,,,,,5,,69,0
23999,note_on,,0,0,18,,,,,,,,,,,,,,,,15,,52,0
24000,note_on,,1,0,15,,,,,,,,,,,,,,,,11,,69,72
24000,note_on,,1,0,6,,,,,,,,,,,,,,,,1,,49,72
24000,note_on,,1,0,12,,,,,,,,,,,,,,,,7,,64,72
24000,note_on,,1,0,5,,,,,,,,,,,,,,,,0,,69,72
24000,note_on,,1,0,16,,,,,,,,,,,,,,,,12,,64,72
24000,note_on,,1,0,14,,,,,,,,,,,,,,,,10,,69,72
24000,note_on,,0,0,18,,,,,,,,,,,,,,,,15,,57,72
24000,note_on,,1,0,11,,,,,,,,,,,,,,,,6,,69,72
24000,note_on,,1,0,13,,,,,,,,,,,,,,,,8,,49,72
24000,note_on,,1,0,18,,,,,,,,,,,,,,,,15,,49,72
24000,note_on,,0,0,18,,,,,,,,,,,,,,,,15,,69,72
24000,note_on,,1,0,17,,,,,,,,,,,,,,,,13,,49,72
24000,note_on,,0,0,18,,,,,,,,,,,,,,,,15,,52,72
24000,note_on,,0,0,18,,,,,,,,,,,,,,,,15,,64,72
24000,note_on,,1,0,10,,,,,,,,,,,,,,,,5,,69,72
24119,note_on,,119,0,6,,,,,,,,,,,,,,,,1,,49,0
24119,note_on,,0,0,18,,,,,,,,,,,,,,,,15,,69,0
24119,note_on,,0,0,18,,,,,,,,,,,,,,,,15,,52,0
24119,note_on,,0,0,18,,,,,,,,,,,,,,,,15,,57,0
24119,note_on,,119,0,18,,,,,,,,,,,,,,,,15,,49,0
24119,note_on,,119,0,12,,,,,,,,,,,,,,,,7,,64,0
24119,note_on,,119,0,17,,,,,,,,,,,,,,,,13,,49,0
24119,note_on,,119,0,15,,,,,,,,,,,,,,,,11,,69,0
24119,note_on,,0,0,18,,,,,,,,,,,,,,,,15,,64,0
24119,note_on,,119,0,13,,,,,,,,,,,,,,,,8,,49,0
24119,note_on,,119,0,11,,,,,,,,,,,,,,,,6,,69,0
24119,note_on,,119,0,16,,,,,,,,,,,,,,,,12,,64,0
24120,note_on,,1,0,15,,,,,,,,,,,,,,,,11,,64,72
24120,note_on,,1,0,13,,,,,,,,,,,,,,,,8,,45,72
24120,note_on,,1,0,6,,,,,,,,,,,,,,,,1,,45,72
24120,note_on,,1,0,12,,,,,,,,,,,,,,,,7,,61,72
24120,note_on,,0,0,18,,,,,,,,,,,,,,,,15,,57,72
24120,note_on,,0,0,18,,,,,,,,,,,,,,,,15,,61,72
24120,note_on,,1,0,16,,,,,,,,,,,,,,,,12,,61,72
24120,note_on,,0,0,18,,,,,,,,,,,,,,,,15,,64,72
24120,note_on,,0,0,18,,,,,,,,,,,,,,,,15,,52,72
24120,note_on,,1,0,18,,,,,,,,,,,,,,,,15,,45,72
24120,note_on,,1,0,17,,,,,,,,,,,,,,,,13,,45,72
24120,note_on,,1,0,11,,,,,,,,,,,,,,,,6,,64,72
24239,note_on,,119,0,11,,,,,,,,,,,,,,,,6,,64,0
24239,note_on,,0,0,18,,,,,,,,,,,,,,,,15,,61,0
24239,note_on,,0,0,18,,,,,,,,,,,,,,,,15,,64,0
24239,note_on,,119,0,13,,,,,,,,,,,,,,,,8,,45,0
24239,note_on,,239,0,14,,,,,,,,,,,,,,,,10,,69,0
24239,note_on,,239,0,5,,,,,,,,,,,,,,,,0,,69,0
24239,note_on,,119,0,12,,,,,,,,,,,,,,,,7,,61,0
24239,note_on,,119,0,15,,,,,,,,,,,,,,,,11,,64,0
24239,note_on,,119,0,18,,,,,,,,,,,,,,,,15,,45,0
24239,note_on,,119,0,6,,,,,,,,,,,,,,,,1,,45,0
24239,note_on,,0,0,18,,,,,,,,,,,,,,,,15,,57,0
24239,note_on,,239,0,10,,,,,,,,,,,,,,,,5,,69,0
24239,note_on,,119,0,17,,,,,,,,,,,,,,,,13,,45,0
24239,note_on,,0,0,18,,,,,,,,,,,,,,,,15,,52,0
24239,note_on,,119,0,16,,,,,,,,,,,,,,,,12,,61,0
24240,note_on,,1,0,10,,,,,,,,,,,,,,,,5,,69,72
24240,note_on,,1,0,5,,,,,,,,,,,,,,,,0,,69,72
24240,note_on,,1,0,11,,,,,,,,,,,,,,,,6,,69,72
24359,note_on,,119,0,10,,,,,,,,,,,,,,,,5,,69,0
24359,note_on,,119,0,5,,,,,,,,,,,,,,,,0,,69,0
24359,note_on,,119,0,11,,,,,,,,,,,,,,,,6,,69,0
24360,note_on,,1,0,10,,,,,,,,,,,,,,,,5,,69,72
24360,note_on,,1,0,11,,,,,,,,,,,,,,,,6,,69,72
24360,note_on,,1,0,5,,,,,,,,,,,,,,,,0,,69,72
24479,note_on,,119,0,10,,,,,,,,,,,,,,,,5,,69,0
24479,note_on,,119,0,11,,,,,,,,,,,,,,,,6,,69,0
24479,note_on,,119,0,5,,,,,,,,,,,,,,,,0,,69,0
24480,note_on,,1,0,10,,,,,,,,,,,,,,,,5,,69,72
24480,note_on,,1,0,5,,,,,,,,,,,,,,,,0,,69,72
24480,note_on,,1,0,11,,,,,,,,,,,,,,,,6,,69,72
24660,note_on,,5221,0,9,,,,,,,,,,,,,,,,4,,45,72
24660,note_on,,421,0,18,,,,,,,,,,,,,,,,15,,61,72
24660,note_on,,5221,0,7,,,,,,,,,,,,,,,,2,,76,72
24660,note_on,,421,0,14,,,,,,,,,,,,,,,,10,,81,72
24660,note_on,,421,0,6,,,,,,,,,,,,,,,,1,,61,72
24660,note_on,,5221,0,8,,,,,,,,,,,,,,,,3,,69,72
24660,note_on,,421,0,13,,,,,,,,,,,,,,,,8,,61,72
24660,note_on,,0,0,18,,,,,,,,,,,,,,,,15,,69,72
24660,note_on,,0,0,18,,,,,,,,,,,,,,,,15,,76,72
24660,note_on,,421,0,17,,,,,,,,,,,,,,,,13,,61,72
24660,note_on,,421,0,16,,,,,,,,,,,,,,,,12,,69,72
24660,note_on,,421,0,15,,,,,,,,,,,,,,,,11,,76,72
24660,note_on,,421,0,12,,,,,,,,,,,,,,,,7,,64,72
24660,note_on,,0,0,18,,,,,,,,,,,,,,,,15,,64,72
24719,note_on,,59,0,18,,,,,,,,,,,,,,,,15,,61,0
24719,note_on,,59,0,17,,,,,,,,,,,,,,,,13,,61,0
24719,note_on,,59,0,8,,,,,,,,,,,,,,,,3,,69,0
24719,note_on,,59,0,16,,,,,,,,,,,,,,,,12,,69,0
24719,note_on,,59,0,6,,,,,,,,,,,,,,,,1,,61,0
24719,note_on,,59,0,14,,,,,,,,,,,,,,,,10,,81,0
24719,note_on,,59,0,9,,,,,,,,,,,,,,,,4,,45,0
24719,note_on,,59,0,13,,,,,,,,,,,,,,,,8,,61,0
24719,note_on,,59,0,7,,,,,,,,,,,,,,,,2,,76,0
24719,note_on,,59,0,12,,,,,,,,,,,,,,,,7,,64,0
24719,note_on,,0,0,18,,,,,,,,,,,,,,,,15,,64,0
24719,note_on,,0,0,18,,,,,,,,,,,,,,,,15,,76,0
24719,note_on,,0,0,18,,,,,,,,,,,,,,,,15,,69,0
24719,note_on,,59,0,15,,,,,,,,,,,,,,,,11,,76,0
24720,note_on,,0,0,18,,,,,,,,,,,,,,,,15,,66,72
24720,note_on,,1,0,6,,,,,,,,,,,,,,,,1,,62,72
24720,note_on,,0,0,18,,,,,,,,,,,,,,,,15,,69,72
24720,note_on,,1,0,14,,,,,,,,,,,,,,,,10,,86,72
24720,note_on,,1,0,9,,,,,,,,,,,,,,,,4,,50,72
24720,note_on,,1,0,16,,,,,,,,,,,,,,,,12,,69,72
24720,note_on,,1,0,18,,,,,,,,,,,,,,,,15,,62,72
24720,note_on,,1,0,8,,,,,,,,,,,,,,,,3,,69,72
24720,note_on,,1,0,17,,,,,,,,,,,,,,,,13,,62,72
24720,note_on,,1,0,15,,,,,,,,,,,,,,,,11,,78,72
24720,note_on,,1,0,13,,,,,,,,,,,,,,,,8,,62,72
24720,note_on,,0,0,18,,,,,,,,,,,,,,,,15,,74,72
24720,note_on,,1,0,7,,,,,,,,,,,,,,,,2,,78,72
24720,note_on,,1,0,12,,,,,,,,,,,,,,,,7,,66,72
24779,note_on,,59,0,12,,,,,,,,,,,,,,,,7,,66,0
24779,note_on,,59,0,14,,,,,,,,,,,,,,,,10,,86,0
24779,note_on,,59,0,6,,,,,,,,,,,,,,,,1,,62,0
24779,note_on,,59,0,17,,,,,,,,,,,,,,,,13,,62,0
24779,note_on,,59,0,8,,,,,,,,,,,,,,,,3,,69,0
24779,note_on,,0,0,18,,,,,,,,,,,,,,,,15,,66,0
24779,note_on,,0,0,18,,,,,,,,,,,,,,,,15,,69,0
24779,note_on,,0,0,18,,,,,,,,,,,,,,,,15,,74,0
24779,note_on,,59,0,9,,,,,,,,,,,,,,,,4,,50,0
24779,note_on,,59,0,7,,,,,,,,,,,,,,,,2,,78,0
24779,note_on,,59,0,18,,,,,,,,,,,,,,,,15,,62,0
24779,note_on,,59,0,15,,,,,,,,,,,,,,,,11,,78,0
24779,note_on,,59,0,13,,,,,,,,,,,,,,,,8,,62,0
24779,note_on,,59,0,16,,,,,,,,,,,,,,,,12,,69,0
24780,note_on,,1,0,7,,,,,,,,,,,,,,,,2,,76,72
24780,note_on,,1,0,15,,,,,,,,,,,,,,,,11,,76,72
24780,note_on,,1,0,17,,,,,,,,,,,,,,,,13,,57,72
24780,note_on,,1,0,16,,,,,,,,,,,,,,,,12,,69,72
24780,note_on,,1,0,9,,,,,,,,,,,,,,,,4,,45,72
24780,note_on,,1,0,13,,,,,,,,,,,,,,,,8,,57,72
24780,note_on,,1,0,8,,,,,,,,,,,,,,,,3,,69,72
24780,note_on,,1,0,12,,,,,,,,,,,,,,,,7,,64,72
24780,note_on,,1,0,18,,,,,,,,,,,,,,,,15,,57,72
24780,note_on,,0,0,18,,,,,,,,,,,,,,,,15,,73,72
24780,note_on,,0,0,18,,,,,,,,,,,,,,,,15,,69,72
24780,note_on,,0,0,18,,,,,,,,,,,,,,,,15,,64,72
24780,note_on,,1,0,6,,,,,,,,,,,,,,,,1,,57,72
24780,note_on,,1,0,14,,,,,,,,,,,,,,,,10,,85,72
24839,note_on,,59,0,18,,,,,,,,,,,,,,,,15,,57,0
24839,note_on,,59,0,13,,,,,,,,,,,,,,,,8,,57,0
24839,note_on,,0,0,18,,,,,,,,,,,,,,,,15,,73,0
24839,note_on,,0,0,18,,,,,,,,,,,,,,,,15,,69,0
24839,note_on,,59,0,16,,,,,,,,,,,,,,,,12,,69,0
24839,note_on,,0,0,18,,,,,,,,,,,,,,,,15,,64,0
24839,note_on,,59,0,12,,,,,,,,,,,,,,,,7,,64,0
24839,note_on,,59,0,17,,,,,,,,,,,,,,,,13,,57,0
24839,note_on,,59,0,15,,,,,,,,,,,,,,,,11,,76,0
24839,note_on,,59,0,8,,,,,,,,,,,,,,,,3,,69,0
24839,note_on,,59,0,6,,,,,,,,,,,,,,,,1,,57,0
24839,note_on,,59,0,14,,,,,,,,,,,,,,,,10,,85,0
24839,note_on,,59,0,7,,,,,,,,,,,,,,,,2,,76,0
24839,note_on,,59,0,9,,,,,,,,,,,,,,,,4,,45,0
24900,note_on,,61,0,15,,,,,,,,,,,,,,,,11,,76,72
24900,note_on,,61,0,6,,,,,,,,,,,,,,,,1,,61,72
24900,note_on,,61,0,14,,,,,,,,,,,,,,,,10,,81,72
24900,note_on,,0,0,18,,,,,,,,,,,,,,,,15,,69,72
24900,note_on,,61,0,17,,,,,,,,,,,,,,,,13,,61,72
24900,note_on,,61,0,9,,,,,,,,,,,,,,,,4,,45,72
24900,note_on,,61,0,16,,,,,,,,,,,,,,,,12,,69,72
24900,note_on,,0,0,18,,,,,,,,,,,,,,,,15,,64,72
24900,note_on,,61,0,12,,,,,,,,,,,,,,,,7,,64,72
24900,note_on,,61,0,7,,,,,,,,,,,,,,,,2,,76,72
24900,note_on,,61,0,13,,,,,,,,,,,,,,,,8,,61,72
24900,note_on,,61,0,8,,,,,,,,,,,,,,,,3,,69,72
24900,note_on,,0,0,18,,,,,,,,,,,,,,,,15,,76,72
24900,note_on,,61,0,18,,,,,,,,,,,,,,,,15,,61,72
24959,note_on,,59,0,18,,,,,,,,,,,,,,,,15,,61,0
24959,note_on,,0,0,18,,,,,,,,,,,,,,,,15,,76,0
24959,note_on,,59,0,14,,,,,,,,,,,,,,,,10,,81,0
24959,note_on,,59,0,15,,,,,,,,,,,,,,,,11,,76,0
24959,note_on,,59,0,16,,,,,,,,,,,,,,,,12,,69,0
24959,note_on,,59,0,9,,,,,,,,,,,,,,,,4,,45,0
24959,note_on,,59,0,7,,,,,,,,,,,,,,,,2,,76,0
24959,note_on,,59,0,13,,,,,,,,,,,,,,,,8,,61,0
24959,note_on,,59,0,6,,,,,,,,,,,,,,,,1,,61,0
24959,note_on,,59,0,17,,,,,,,,,,,,,,,,13,,61,0
24959,note_on,,0,0,18,,,,,,,,,,,,,,,,15,,69,0
24959,note_on,,59,0,8,,,,,,,,,,,,,,,,3,,69,0
24959,note_on,,59,0,12,,,,,,,,,,,,,,,,7,,64,0
24959,note_on,,0,0,18,,,,,,,,,,,,,,,,15,,64,0
24960,note_on,,0,0,18,,,,,,,,,,,,,,,,15,,66,72
24960,note_on,,0,0,18,,,,,,,,,,,,,,,,15,,69,72
24960,note_on,,0,0,18,,,,,,,,,,,,,,,,15,,74,72
24960,note_on,,1,0,18,,,,,,,,,,,,,,,,15,,62,72
24960,note_on,,1,0,8,,,,,,,,,,,,,,,,3,,69,72
24960,note_on,,1,0,14,,,,,,,,,,,,,,,,10,,86,72
24960,note_on,,1,0,15,,,,,,,,,,,,,,,,11,,78,72
24960,note_on,,1,0,9,,,,,,,,,,,,,,,,4,,50,72
24960,note_on,,1,0,12,,,,,,,,,,,,,,,,7,,66,72
24960,note_on,,1,0,7,,,,,,,,,,,,,,,,2,,78,72
24960,note_on,,1,0,13,,,,,,,,,,,,,,,,8,,62,72
24960,note_on,,1,0,16,,,,,,,,,,,,,,,,12,,69,72
24960,note_on,,1,0,17,,,,,,,,,,,,,,,,13,,62,72
24960,note_on,,1,0,6,,,,,,,,,,,,,,,,1,,62,72
25019,note_on,,59,0,9,,,,,,,,,,,,,,,,4,,50,0
25019,note_on,,59,0,15,,,,,,,,,,,,,,,,11,,78,0
25019,note_on,,59,0,13,,,,,,,,,,,,,,,,8,,62,0
25019,note_on,,0,0,18,,,,,,,,,,,,,,,,15,,69,0
25019,note_on,,0,0,18,,,,,,,,,,,,,,,,15,,74,0
25019,note_on,,59,0,18,,,,,,,,,,,,,,,,15,,62,0
25019,note_on,,59,0,17,,,,,,,,,,,,,,,,13,,62,0
25019,note_on,,59,0,8,,,,,,,,,,,,,,,,3,,69,0
25019,note_on,,0,0,18,,,,,,,,,,,,,,,,15,,66,0
25019,note_on,,59,0,7,,,,,,,,,,,,,,,,2,,78,0
25019,note_on,,59,0,12,,,,,,,,,,,,,,,,7,,66,0
25019,note_on,,59,0,14,,,,,,,,,,,,,,,,10,,86,0
25019,note_on,,59,0,16,,,,,,,,,,,,,,,,12,,69,0
25019,note_on,,59,0,6,,,,,,,,,,,,,,,,1,,62,0
25020,note_on,,1,0,16,,,,,,,,,,,,,,,,12,,69,72
25020,note_on,,1,0,8,,,,,,,,,,,,,,,,3,,69,72
25020,note_on,,1,0,15,,,,,,,,,,,,,,,,11,,76,72
25020,note_on,,1,0,13,,,,,,,,,,,,,,,,8,,57,72
25020,note_on,,1,0,14,,,,,,,,,,,,,,,,10,,85,72
25020,note_on,,1,0,6,,,,,,,,,,,,,,,,1,,57,72
25020,note_on,,1,0,7,,,,,,,,,,,,,,,,2,,76,72
25020,note_on,,0,0,18,,,,,,,,,,,,,,,,15,,73,72
25020,note_on,,0,0,18,,,,,,,,,,,,,,,,15,,69,72
25020,note_on,,0,0,18,,,,,,,,,,,,,,,,15,,64,72
25020,note_on,,1,0,18,,,,,,,,,,,,,,,,15,,57,72
25020,note_on,,1,0,9,,,,,,,,,,,,,,,,4,,45,72
25020,note_on,,1,0,17,,,,,,,,,,,,,,,,13,,57,72
25020,note_on,,1,0,12,,,,,,,,,,,,,,,,7,,64,72
25079,note_on,,59,0,13,,,,,,,,,,,,,,,,8,,57,0
25079,note_on,,59,0,14,,,,,,,,,,,,,,,,10,,85,0
25079,note_on,,59,0,16,,,,,,,,,,,,,,,,12,,69,0
25079,note_on,,59,0,7,,,,,,,,,,,,,,,,2,,76,0
25079,note_on,,59,0,17,,,,,,,,,,,,,,,,13,,57,0
25079,note_on,,59,0,6,,,,,,,,,,,,,,,,1,,57,0
25079,note_on,,59,0,12,,,,,,,,,,,,,,,,7,,64,0
25079,note_on,,0,0,18,,,,,,,,,,,,,,,,15,,64,0
25079,note_on,,59,0,8,,,,,,,,,,,,,,,,3,,69,0
25079,note_on,,0,0,18,,,,,,,,,,,,,,,,15,,69,0
25079,note_on,,0,0,18,,,,,,,,,,,,,,,,15,,73,0
25079,note_on,,59,0,18,,,,,,,,,,,,,,,,15,,57,0
25079,note_on,,59,0,15,,,,,,,,,,,,,,,,11,,76,0
25079,note_on,,59,0,9,,,,,,,,,,,,,,,,4,,45,0
25140,note_on,,61,0,14,,,,,,,,,,,,,,,,10,,81,72
25140,note_on,,61,0,17,,,,,,,,,,,,,,,,13,,61,72
25140,note_on,,0,0,18,,,,,,,,,,,,,,,,15,,76,72
25140,note_on,,0,0,18,,,,,,,,,,,,,,,,15,,64,72
25140,note_on,,0,0,18,,,,,,,,,,,,,,,,15,,69,72
25140,note_on,,61,0,13,,,,,,,,,,,,,,,,8,,61,72
25140,note_on,,61,0,7,,,,,,,,,,,,,,,,2,,76,72
25140,note_on,,61,0,15,,,,,,,,,,,,,,,,11,,76,72
25140,note_on,,61,0,16,,,,,,,,,,,,,,,,12,,69,72
25140,note_on,,61,0,12,,,,,,,,,,,,,,,,7,,64,72
25140,note_on,,61,0,18,,,,,,,,,,,,,,,,15,,61,72
25140,note_on,,61,0,8,,,,,,,,,,,,,,,,3,,69,72
25140,note_on,,61,0,6,,,,,,,,,,,,,,,,1,,61,72
25140,note_on,,61,0,9,,,,,,,,,,,,,,,,4,,45,72
25169,note_on,,0,0,18,,,,,,,,,,,,,,,,15,,69,0
25169,note_on,,0,0,18,,,,,,,,,,,,,,,,15,,76,0
25169,note_on,,29,0,14,,,,,,,,,,,,,,,,10,,81,0
25169,note_on,,29,0,13,,,,,,,,,,,,,,,,8,,61,0
25169,note_on,,29,0,9,,,,,,,,,,,,,,,,4,,45,0
25169,note_on,,29,0,6,,,,,,,,,,,,,,,,1,,61,0
25169,note_on,,29,0,18,,,,,,,,,,,,,,,,15,,61,0
25169,note_on,,29,0,8,,,,,,,,,,,,,,,,3,,69,0
25169,note_on,,29,0,16,,,,,,,,,,,,,,,,12,,69,0
25169,note_on,,0,0,18,,,,,,,,,,,,,,,,15,,64,0
25169,note_on,,29,0,7,,,,,,,,,,,,,,,,2,,76,0
25169,note_on,,29,0,12,,,,,,,,,,,,,,,,7,,64,0
25169,note_on,,29,0,15,,,,,,,,,,,,,,,,11,,76,0
25169,note_on,,29,0,17,,,,,,,,,,,,,,,,13,,61,0
25170,note_on,,0,0,18,,,,,,,,,,,,,,,,15,,69,72
25170,note_on,,0,0,18,,,,,,,,,,,,,,,,15,,64,72
25170,note_on,,0,0,18,,,,,,,,,,,,,,,,15,,76,72
25170,note_on,,1,0,6,,,,,,,,,,,,,,,,1,,61,72
25170,note_on,,1,0,14,,,,,,,,,,,,,,,,10,,81,72
25170,note_on,,1,0,17,,,,,,,,,,,,,,,,13,,61,72
25170,note_on,,1,0,15,,,,,,,,,,,,,,,,11,,76,72
25170,note_on,,1,0,8,,,,,,,,,,,,,,,,3,,69,72
25170,note_on,,1,0,13,,,,,,,,,,,,,,,,8,,61,72
25170,note_on,,1,0,9,,,,,,,,,,,,,,,,4,,45,72
25170,note_on,,1,0,7,,,,,,,,,,,,,,,,2,,76,72
25170,note_on,,1,0,12,,,,,,,,,,,,,,,,7,,64,72
25170,note_on,,1,0,18,,,,,,,,,,,,,,,,15,,61,72
25170,note_on,,1,0,16,,,,,,,,,,,,,,,,12,,69,72
25199,note_on,,29,0,15,,,,,,,,,,,,,,,,11,,76,0
25199,note_on,,29,0,18,,,,,,,,,,,,,,,,15,,61,0
25199,note_on,,29,0,6,,,,,,,,,,,,,,,,1,,61,0
25199,note_on,,29,0,12,,,,,,,,,,,,,,,,7,,64,0
25199,note_on,,29,0,7,,,,,,,,,,,,,,,,2,,76,0
25199,note_on,,29,0,9,,,,,,,,,,,,,,,,4,,45,0
25199,note_on,,29,0,13,,,,,,,,,,,,,,,,8,,61,0
25199,note_on,,29,0,16,,,,,,,,,,,,,,,,12,,69,0
25199,note_on,,29,0,8,,,,,,,,,,,,,,,,3,,69,0
25199,note_on,,29,0,14,,,,,,,,,,,,,,,,10,,81,0
25199,note_on,,0,0,18,,,,,,,,,,,,,,,,15,,64,0
25199,note_on,,0,0,18,,,,,,,,,,,,,,,,15,,69,0
25199,note_on,,0,0,18,,,,,,,,,,,,,,,,15,,76,0
25199,note_on,,29,0,17,,,,,,,,,,,,,,,,13,,61,0
25200,note_on,,1,0,8,,,,,,,,,,,,,,,,3,,69,72
25200,note_on,,1,0,14,,,,,,,,,,,,,,,,10,,86,72
25200,note_on,,1,0,15,,,,,,,,,,,,,,,,11,,78,72
25200,note_on,,1,0,7,,,,,,,,,,,,,,,,2,,78,72
25200,note_on,,1,0,16,,,,,,,,,,,,,,,,12,,69,72
25200,note_on,,0,0,18,,,,,,,,,,,,,,,,15,,66,72
25200,note_on,,0,0,18,,,,,,,,,,,,,,,,15,,74,72
25200,note_on,,0,0,18,,,,,,,,,,,,,,,,15,,69,72
25200,note_on,,1,0,6,,,,,,,,,,,,,,,,1,,62,72
25200,note_on,,1,0,12,,,,,,,,,,,,,,,,7,,66,72
25200,note_on,,1,0,9,,,,,,,,,,,,,,,,4,,50,72
25200,note_on,,1,0,18,,,,,,,,,,,,,,,,15,,62,72
25200,note_on,,1,0,13,,,,,,,,,,,,,,,,8,,62,72
25200,note_on,,1,0,17,,,,,,,,,,,,,,,,13,,62,72
25259,note_on,,59,0,15,,,,,,,,,,,,,,,,11,,78,0
25259,note_on,,59,0,16,,,,,,,,,,,,,,,,12,,69,0
25259,note_on,,59,0,6,,,,,,,,,,,,,,,,1,,62,0
25259,note_on,,59,0,17,,,,,,,,,,,,,,,,13,,62,0
25259,note_on,,59,0,12,,,,,,,,,,,,,,,,7,,66,0
25259,note_on,,59,0,9,,,,,,,,,,,,,,,,4,,50,0
25259,note_on,,59,0,7,,,,,,,,,,,,,,,,2,,78,0
25259,note_on,,59,0,13,,,,,,,,,,,,,,,,8,,62,0
25259,note_on,,59,0,8,,,,,,,,,,,,,,,,3,,69,0
25259,note_on,,59,0,14,,,,,,,,,,,,,,,,10,,86,0
25259,note_on,,59,0,18,,,,,,,,,,,,,,,,15,,62,0
25259,note_on,,0,0,18,,,,,,,,,,,,,,,,15,,74,0
25259,note_on,,0,0,18,,,,,,,,,,,,,,,,15,,69,0
25259,note_on,,0,0,18,,,,,,,,,,,,,,,,15,,66,0
25260,note_on,,1,0,12,,,,,,,,,,,,,,,,7,,64,72
25260,note_on,,0,0,18,,,,,,,,,,,,,,,,15,,64,72
25260,note_on,,1,0,9,,,,,,,,,,,,,,,,4,,45,72
25260,note_on,,1,0,6,,,,,,,,,,,,,,,,1,,57,72
25260,note_on,,1,0,14,,,,,,,,,,,,,,,,10,,85,72
25260,note_on,,1,0,17,,,,,,,,,,,,,,,,13,,57,72
25260,note_on,,1,0,8,,,,,,,,,,,,,,,,3,,69,72
25260,note_on,,1,0,18,,,,,,,,,,,,,,,,15,,57,72
25260,note_on,,0,0,18,,,,,,,,,,,,,,,,15,,73,72
25260,note_on,,1,0,13,,,,,,,,,,,,,,,,8,,57,72
25260,note_on,,0,0,18,,,,,,,,,,,,,,,,15,,69,72
25260,note_on,,1,0,15,,,,,,,,,,,,,,,,11,,76,72
25260,note_on,,1,0,16,,,,,,,,,,,,,,,,12,,69,72
25260,note_on,,1,0,7,,,,,,,,,,,,,,,,2,,76,72
25319,note_on,,59,0,6,,,,,,,,,,,,,,,,1,,57,0
25319,note_on,,59,0,15,,,,,,,,,,,,,,,,11,,76,0
25319,note_on,,59,0,8,,,,,,,,,,,,,,,,3,,69,0
25319,note_on,,0,0,18,,,,,,,,,,,,,,,,15,,64,0
25319,note_on,,59,0,18,,,,,,,,,,,,,,,,15,,57,0
25319,note_on,,59,0,17,,,,,,,,,,,,,,,,13,,57,0
25319,note_on,,59,0,9,,,,,,,,,,,,,,,,4,,45,0
25319,note_on,,59,0,14,,,,,,,,,,,,,,,,10,,85,0
25319,note_on,,59,0,7,,,,,,,,,,,,,,,,2,,76,0
25319,note_on,,59,0,13,,,,,,,,,,,,,,,,8,,57,0
25319,note_on,,0,0,18,,,,,,,,,,,,,,,,15,,69,0
25319,note_on,,0,0,18,,,,,,,,,,,,,,,,15,,73,0
25319,note_on,,59,0,16,,,,,,,,,,,,,,,,12,,69,0
25319,note_on,,59,0,12,,,,,,,,,,,,,,,,7,,64,0
25380,note_on,,61,0,6,,,,,,,,,,,,,,,,1,,61,72
25380,note_on,,61,0,18,,,,,,,,,,,,,,,,15,,61,72
25380,note_on,,61,0,16,,,,,,,,,,,,,,,,12,,69,72
25380,note_on,,61,0,7,,,,,,,,,,,,,,,,2,,76,72
25380,note_on,,0,0,18,,,,,,,,,,,,,,,,15,,76,72
25380,note_on,,61,0,8,,,,,,,,,,,,,,,,3,,69,72
25380,note_on,,0,0,18,,,,,,,,,,,,,,,,15,,69,72
25380,note_on,,0,0,18,,,,,,,,,,,,,,,,15,,64,72
25380,note_on,,61,0,14,,,,,,,,,,,,,,,,10,,81,72
25380,note_on,,61,0,9,,,,,,,,,,,,,,,,4,,45,72
25380,note_on,,61,0,12,,,,,,,,,,,,,,,,7,,64,72
25380,note_on,,61,0,13,,,,,,,,,,,,,,,,8,,61,72
25380,note_on,,61,0,15,,,,,,,,,,,,,,,,11,,76,72
25380,note_on,,61,0,17,,,,,,,,,,,,,,,,13,,61,72
25409,note_on,,0,0,18,,,,,,,,,,,,,,,,15,,76,0
25409,note_on,,0,0,18,,,,,,,,,,,,,,,,15,,64,0
25409,note_on,,0,0,18,,,,,,,,,,,,,,,,15,,69,0
25409,note_on,,29,0,18,,,,,,,,,,,,,,,,15,,61,0
25409,note_on,,29,0,17,,,,,,,,,,,,,,,,13,,61,0
25409,note_on,,29,0,12,,,,,,,,,,,,,,,,7,,64,0
25409,note_on,,29,0,9,,,,,,,,,,,,,,,,4,,45,0
25409,note_on,,29,0,16,,,,,,,,,,,,,,,,12,,69,0
25409,note_on,,29,0,13,,,,,,,,,,,,,,,,8,,61,0
25409,note_on,,29,0,6,,,,,,,,,,,,,,,,1,,61,0
25409,note_on,,29,0,15,,,,,,,,,,,,,,,,11,,76,0
25409,note_on,,29,0,14,,,,,,,,,,,,,,,,10,,81,0
25409,note_on,,29,0,8,,,,,,,,,,,,,,,,3,,69,0
25409,note_on,,29,0,7,,,,,,,,,,,,,,,,2,,76,0
25410,note_on,,1,0,9,,,,,,,,,,,,,,,,4,,45,72
25410,note_on,,1,0,13,,,,,,,,,,,,,,,,8,,61,72
25410,note_on,,1,0,17,,,,,,,,,,,,,,,,13,,61,72
25410,note_on,,1,0,14,,,,,,,,,,,,,,,,10,,81,72
25410,note_on,,1,0,8,,,,,,,,,,,,,,,,3,,69,72
25410,note_on,,1,0,12,,,,,,,,,,,,,,,,7,,64,72
25410,note_on,,1,0,6,,,,,,,,,,,,,,,,1,,61,72
25410,note_on,,1,0,15,,,,,,,,,,,,,,,,11,,76,72
25410,note_on,,1,0,7,,,,,,,,,,,,,,,,2,,76,72
25410,note_on,,0,0,18,,,,,,,,,,,,,,,,15,,64,72
25410,note_on,,0,0,18,,,,,,,,,,,,,,,,15,,69,72
25410,note_on,,0,0,18,,,,,,,,,,,,,,,,15,,76,72
25410,note_on,,1,0,18,,,,,,,,,,,,,,,,15,,61,72
25410,note_on,,1,0,16,,,,,,,,,,,,,,,,12,,69,72
25439,note_on,,29,0,16,,,,,,,,,,,,,,,,12,,69,0
25439,note_on,,29,0,7,,,,,,,,,,,,,,,,2,,76,0
25439,note_on,,0,0,18,,,,,,,,,,,,,,,,15,,76,0
25439,note_on,,29,0,8,,,,,,,,,,,,,,,,3,,69,0
25439,note_on,,0,0,18,,,,,,,,,,,,,,,,15,,69,0
25439,note_on,,0,0,18,,,,,,,,,,,,,,,,15,,64,0
25439,note_on,,29,0,18,,,,,,,,,,,,,,,,15,,61,0
25439,note_on,,959,0,5,,,,,,,,,,,,,,,,0,,69,0
25439,note_on,,959,0,10,,,,,,,,,,,,,,,,5,,69,0
25439,note_on,,29,0,9,,,,,,,,,,,,,,,,4,,45,0
25439,note_on,,29,0,12,,,,,,,,,,,,,,,,7,,64,0
25439,note_on,,959,0,11,,,,,,,,,,,,,,,,6,,69,0
25439,note_on,,29,0,6,,,,,,,,,,,,,,,,1,,61,0
25439,note_on,,29,0,15,,,,,,,,,,,,,,,,11,,76,0
25439,note_on,,29,0,14,,,,,,,,,,,,,,,,10,,81,0
25439,note_on,,29,0,17,,,,,,,,,,,,,,,,13,,61,0
25439,note_on,,29,0,13,,,,,,,,,,,,,,,,8,,61,0
25440,note_on,,0,0,18,,,,,,,,,,,,,,,,15,,66,72
25440,note_on,,0,0,18,,,,,,,,,,,,,,,,15,,69,72
25440,note_on,,1,0,18,,,,,,,,,,,,,,,,15,,62,72
25440,note_on,,1,0,9,,,,,,,,,,,,,,,,4,,50,72
25440,note_on,,1,0,8,,,,,,,,,,,,,,,,3,,69,72
25440,note_on,,0,0,18,,,,,,,,,,,,,,,,15,,74,72
25440,note_on,,1,0,15,,,,,,,,,,,,,,,,11,,78,72
25440,note_on,,1,0,7,,,,,,,,,,,,,,,,2,,78,72
25440,note_on,,1,0,16,,,,,,,,,,,,,,,,12,,69,72
25440,note_on,,1,0,14,,,,,,,,,,,,,,,,10,,86,72
25440,note_on,,1,0,13,,,,,,,,,,,,,,,,8,,62,72
25440,note_on,,1,0,6,,,,,,,,,,,,,,,,1,,62,72
25440,note_on,,1,0,17,,,,,,,,,,,,,,,,13,,62,72
25440,note_on,,1,0,12,,,,,,,,,,,,,,,,7,,66,72
25499,note_on,,59,0,13,,,,,,,,,,,,,,,,8,,62,0
25499,note_on,,59,0,6,,,,,,,,,,,,,,,,1,,62,0
25499,note_on,,59,0,15,,,,,,,,,,,,,,,,11,,78,0
25499,note_on,,59,0,12,,,,,,,,,,,,,,,,7,,66,0
25499,note_on,,59,0,18,,,,,,,,,,,,,,,,15,,62,0
25499,note_on,,59,0,9,,,,,,,,,,,,,,,,4,,50,0
25499,note_on,,59,0,14,,,,,,,,,,,,,,,,10,,86,0
25499,note_on,,0,0,18,,,,,,,,,,,,,,,,15,,69,0
25499,note_on,,0,0,18,,,,,,,,,,,,,,,,15,,74,0
25499,note_on,,59,0,7,,,,,,,,,,,,,,,,2,,78,0
25499,note_on,,59,0,8,,,,,,,,,,,,,,,,3,,69,0
25499,note_on,,59,0,17,,,,,,,,,,,,,,,,13,,62,0
25499,note_on,,59,0,16,,,,,,,,,,,,,,,,12,,69,0
25499,note_on,,0,0,18,,,,,,,,,,,,,,,,15,,66,0
25500,note_on,,1,0,8,,,,,,,,,,,,,,,,3,,69,72
25500,note_on,,1,0,14,,,,,,,,,,,,,,,,10,,85,72
25500,note_on,,1,0,17,,,,,,,,,,,,,,,,13,,57,72
25500,note_on,,0,0,18,,,,,,,,,,,,,,,,15,,69,72
25500,note_on,,0,0,18,,,,,,,,,,,,,,,,15,,73,72
25500,note_on,,1,0,9,,,,,,,,,,,,,,,,4,,45,72
25500,note_on,,0,0,18,,,,,,,,,,,,,,,,15,,64,72
25500,note_on,,1,0,12,,,,,,,,,,,,,,,,7,,64,72
25500,note_on,,1,0,6,,,,,,,,,,,,,,,,1,,57,72
25500,note_on,,1,0,13,,,,,,,,,,,,,,,,8,,57,72
25500,note_on,,1,0,7,,,,,,,,,,,,,,,,2,,76,72
25500,note_on,,1,0,16,,,,,,,,,,,,,,,,12,,69,72
25500,note_on,,1,0,18,,,,,,,,,,,,,,,,15,,57,72
25500,note_on,,1,0,15,,,,,,,,,,,,,,,,11,,76,72
25559,note_on,,59,0,18,,,,,,,,,,,,,,,,15,,57,0
25559,note_on,,0,0,18,,,,,,,,,,,,,,,,15,,73,0
25559,note_on,,59,0,6,,,,,,,,,,,,,,,,1,,57,0
25559,note_on,,0,0,18,,,,,,,,,,,,,,,,15,,69,0
25559,note_on,,0,0,18,,,,,,,,,,,,,,,,15,,64,0
25559,note_on,,59,0,14,,,,,,,,,,,,,,,,10,,85,0
25559,note_on,,59,0,16,,,,,,,,,,,,,,,,12,,69,0
25559,note_on,,59,0,7,,,,,,,,,,,,,,,,2,,76,0
25559,note_on,,59,0,8,,,,,,,,,,,,,,,,3,,69,0
25559,note_on,,59,0,17,,,,,,,,,,,,,,,,13,,57,0
25559,note_on,,59,0,12,,,,,,,,,,,,,,,,7,,64,0
25559,note_on,,59,0,15,,,,,,,,,,,,,,,,11,,76,0
25559,note_on,,59,0,9,,,,,,,,,,,,,,,,4,,45,0
25559,note_on,,59,0,13,,,,,,,,,,,,,,,,8,,57,0
25560,note_on,,121,0,11,,,,,,,,,,,,,,,,6,,69,72
25560,note_on,,121,0,10,,,,,,,,,,,,,,,,5,,69,72
25560,note_on,,121,0,5,,,,,,,,,,,,,,,,0,,69,72
25679,note_on,,119,0,5,,,,,,,,,,,,,,,,0,,69,0
25679,note_on,,119,0,10,,,,,,,,,,,,,,,,5,,69,0
25679,note_on,,119,0,11,,,,,,,,,,,,,,,,6,,69,0
25680,note_on,,1,0,5,,,,,,,,,,,,,,,,0,,69,72
25680,note_on,,1,0,11,,,,,,,,,,,,,,,,6,,69,72
25680,note_on,,1,0,10,,,,,,,,,,,,,,,,5,,69,72
25799,note_on,,119,0,5,,,,,,,,,,,,,,,,0,,69,0
25799,note_on,,119,0,11,,,,,,,,,,,,,,,,6,,69,0
25799,note_on,,119,0,10,,,,,,,,,,,,,,,,5,,69,0
25800,note_on,,1,0,11,,,,,,,,,,,,,,,,6,,69,72
25800,note_on,,1,0,10,,,,,,,,,,,,,,,,5,,69,72
25800,note_on,,1,0,5,,,,,,,,,,,,,,,,0,,69,72
25919,note_on,,119,0,10,,,,,,,,,,,,,,,,5,,69,0
25919,note_on,,119,0,11,,,,,,,,,,,,,,,,6,,69,0
25919,note_on,,119,0,5,,,,,,,,,,,,,,,,0,,69,0
25920,note_on,,1,0,5,,,,,,,,,,,,,,,,0,,69,72
25920,note_on,,1,0,10,,,,,,,,,,,,,,,,5,,69,72
25920,note_on,,1,0,11,,,,,,,,,,,,,,,,6,,69,72
26040,note_on,,481,0,7,,,,,,,,,,,,,,,,2,,81,72
26100,note_on,,541,0,16,,,,,,,,,,,,,,,,12,,69,72
26100,note_on,,541,0,9,,,,,,,,,,,,,,,,4,,45,72
26100,note_on,,541,0,12,,,,,,,,,,,,,,,,7,,64,72
26100,note_on,,541,0,13,,,,,,,,,,,,,,,,8,,61,72
26100,note_on,,0,0,18,,,,,,,,,,,,,,,,15,,81,72
26100,note_on,,0,0,18,,,,,,,,,,,,,,,,15,,64,72
26100,note_on,,541,0,15,,,,,,,,,,,,,,,,11,,76,72
26100,note_on,,541,0,14,,,,,,,,,,,,,,,,10,,81,72
26100,note_on,,0,0,18,,,,,,,,,,,,,,,,15,,69,72
26100,note_on,,541,0,18,,,,,,,,,,,,,,,,15,,61,72
26100,note_on,,541,0,17,,,,,,,,,,,,,,,,13,,61,72
26100,note_on,,541,0,8,,,,,,,,,,,,,,,,3,,76,72
26100,note_on,,541,0,6,,,,,,,,,,,,,,,,1,,61,72
26100,note_on,,0,0,18,,,,,,,,,,,,,,,,15,,76,72
26159,note_on,,59,0,9,,,,,,,,,,,,,,,,4,,45,0
26159,note_on,,59,0,16,,,,,,,,,,,,,,,,12,,69,0
26159,note_on,,59,0,6,,,,,,,,,,,,,,,,1,,61,0
26159,note_on,,59,0,13,,,,,,,,,,,,,,,,8,,61,0
26159,note_on,,0,0,18,,,,,,,,,,,,,,,,15,,64,0
26159,note_on,,0,0,18,,,,,,,,,,,,,,,,15,,81,0
26159,note_on,,59,0,8,,,,,,,,,,,,,,,,3,,76,0
26159,note_on,,59,0,17,,,,,,,,,,,,,,,,13,,61,0
26159,note_on,,59,0,14,,,,,,,,,,,,,,,,10,,81,0
26159,note_on,,59,0,15,,,,,,,,,,,,,,,,11,,76,0
26159,note_on,,59,0,18,,,,,,,,,,,,,,,,15,,61,0
26159,note_on,,59,0,12,,,,,,,,,,,,,,,,7,,64,0
26159,note_on,,119,0,7,,,,,,,,,,,,,,,,2,,81,0
26159,note_on,,0,0,18,,,,,,,,,,,,,,,,15,,76,0
26159,note_on,,0,0,18,,,,,,,,,,,,,,,,15,,69,0
26160,note_on,,1,0,9,,,,,,,,,,,,,,,,4,,50,72
26160,note_on,,1,0,6,,,,,,,,,,,,,,,,1,,62,72
26160,note_on,,1,0,13,,,,,,,,,,,,,,,,8,,62,72
26160,note_on,,1,0,7,,,,,,,,,,,,,,,,2,,81,72
26160,note_on,,1,0,8,,,,,,,,,,,,,,,,3,,78,72
26160,note_on,,1,0,14,,,,,,,,,,,,,,,,10,,86,72
26160,note_on,,1,0,18,,,,,,,,,,,,,,,,15,,62,72
26160,note_on,,0,0,18,,,,,,,,,,,,,,,,15,,66,72
26160,note_on,,0,0,18,,,,,,,,,,,,,,,,15,,69,72
26160,note_on,,0,0,18,,,,,,,,,,,,,,,,15,,81,72
26160,note_on,,0,0,18,,,,,,,,,,,,,,,,15,,74,72
26160,note_on,,1,0,12,,,,,,,,,,,,,,,,7,,66,72
26160,note_on,,1,0,16,,,,,,,,,,,,,,,,12,,69,72
26160,note_on,,1,0,17,,,,,,,,,,,,,,,,13,,62,72
26160,note_on,,1,0,15,,,,,,,,,,,,,,,,11,,78,72
26219,note_on,,59,0,17,,,,,,,,,,,,,,,,13,,62,0
26219,note_on,,59,0,6,,,,,,,,,,,,,,,,1,,62,0
26219,note_on,,0,0,18,,,,,,,,,,,,,,,,15,,69,0
26219,note_on,,59,0,14,,,,,,,,,,,,,,,,10,,86,0
26219,note_on,,59,0,13,,,,,,,,,,,,,,,,8,,62,0
26219,note_on,,0,0,18,,,,,,,,,,,,,,,,15,,66,0
26219,note_on,,0,0,18,,,,,,,,,,,,,,,,15,,74,0
26219,note_on,,59,0,16,,,,,,,,,,,,,,,,12,,69,0
26219,note_on,,59,0,18,,,,,,,,,,,,,,,,15,,62,0
26219,note_on,,0,0,18,,,,,,,,,,,,,,,,15,,81,0
26219,note_on,,59,0,15,,,,,,,,,,,,,,,,11,,78,0
26219,note_on,,59,0,12,,,,,,,,,,,,,,,,7,,66,0
26219,note_on,,59,0,9,,,,,,,,,,,,,,,,4,,50,0
26219,note_on,,59,0,8,,,,,,,,,,,,,,,,3,,78,0
26220,note_on,,1,0,8,,,,,,,,,,,,,,,,3,,76,72
26220,note_on,,1,0,17,,,,,,,,,,,,,,,,13,,57,72
26220,note_on,,1,0,13,,,,,,,,,,,,,,,,8,,57,72
26220,note_on,,1,0,15,,,,,,,,,,,,,,,,11,,76,72
26220,note_on,,1,0,16,,,,,,,,,,,,,,,,12,,69,72
26220,note_on,,0,0,18,,,,,,,,,,,,,,,,15,,73,72
26220,note_on,,0,0,18,,,,,,,,,,,,,,,,15,,69,72
26220,note_on,,0,0,18,,,,,,,,,,,,,,,,15,,81,72
26220,note_on,,1,0,18,,,,,,,,,,,,,,,,15,,57,72
26220,note_on,,1,0,6,,,,,,,,,,,,,,,,1,,57,72
26220,note_on,,1,0,12,,,,,,,,,,,,,,,,7,,64,72
26220,note_on,,1,0,9,,,,,,,,,,,,,,,,4,,45,72
26220,note_on,,0,0,18,,,,,,,,,,,,,,,,15,,64,72
26220,note_on,,1,0,14,,,,,,,,,,,,,,,,10,,85,72
26279,note_on,,59,0,15,,,,,,,,,,,,,,,,11,,76,0
26279,note_on,,59,0,17,,,,,,,,,,,,,,,,13,,57,0
26279,note_on,,59,0,16,,,,,,,,,,,,,,,,12,,69,0
26279,note_on,,59,0,6,,,,,,,,,,,,,,,,1,,57,0
26279,note_on,,59,0,9,,,,,,,,,,,,,,,,4,,45,0
26279,note_on,,59,0,8,,,,,,,,,,,,,,,,3,,76,0
26279,note_on,,0,0,18,,,,,,,,,,,,,,,,15,,64,0
26279,note_on,,0,0,18,,,,,,,,,,,,,,,,15,,69,0
26279,note_on,,0,0,18,,,,,,,,,,,,,,,,15,,73,0
26279,note_on,,0,0,18,,,,,,,,,,,,,,,,15,,81,0
26279,note_on,,59,0,18,,,,,,,,,,,,,,,,15,,57,0
26279,note_on,,59,0,12,,,,,,,,,,,,,,,,7,,64,0
26279,note_on,,59,0,14,,,,,,,,,,,,,,,,10,,85,0
26279,note_on,,59,0,13,,,,,,,,,,,,,,,,8,,57,0
26340,note_on,,61,0,9,,,,,,,,,,,,,,,,4,,45,72
26340,note_on,,0,0,18,,,,,,,,,,,,,,,,15,,76,72
26340,note_on,,61,0,6,,,,,,,,,,,,,,,,1,,61,72
26340,note_on,,61,0,8,,,,,,,,,,,,,,,,3,,76,72
26340,note_on,,61,0,16,,,,,,,,,,,,,,,,12,,69,72
26340,note_on,,61,0,17,,,,,,,,,,,,,,,,13,,61,72
26340,note_on,,0,0,18,,,,,,,,,,,,,,,,15,,69,72
26340,note_on,,0,0,18,,,,,,,,,,,,,,,,15,,81,72
26340,note_on,,61,0,13,,,,,,,,,,,,,,,,8,,61,72
26340,note_on,,61,0,15,,,,,,,,,,,,,,,,11,,76,72
26340,note_on,,61,0,14,,,,,,,,,,,,,,,,10,,81,72
26340,note_on,,61,0,18,,,,,,,,,,,,,,,,15,,61,72
26340,note_on,,61,0,12,,,,,,,,,,,,,,,,7,,64,72
26340,note_on,,0,0,18,,,,,,,,,,,,,,,,15,,64,72
26399,note_on,,0,0,18,,,,,,,,,,,,,,,,15,,64,0
26399,note_on,,59,0,13,,,,,,,,,,,,,,,,8,,61,0
26399,note_on,,59,0,16,,,,,,,,,,,,,,,,12,,69,0
26399,note_on,,59,0,18,,,,,,,,,,,,,,,,15,,61,0
26399,note_on,,59,0,15,,,,,,,,,,,,,,,,11,,76,0
26399,note_on,,59,0,17,,,,,,,,,,,,,,,,13,,61,0
26399,note_on,,0,0,18,,,,,,,,,,,,,,,,15,,81,0
26399,note_on,,59,0,8,,,,,,,,,,,,,,,,3,,76,0
26399,note_on,,0,0,18,,,,,,,,,,,,,,,,15,,69,0
26399,note_on,,59,0,6,,,,,,,,,,,,,,,,1,,61,0
26399,note_on,,0,0,18,,,,,,,,,,,,,,,,15,,76,0
26399,note_on,,59,0,14,,,,,,,,,,,,,,,,10,,81,0
26399,note_on,,59,0,9,,,,,,,,,,,,,,,,4,,45,0
26399,note_on,,59,0,12,,,,,,,,,,,,,,,,7,,64,0
26400,note_on,,1,0,12,,,,,,,,,,,,,,,,7,,66,72
26400,note_on,,1,0,18,,,,,,,,,,,,,,,,15,,62,72
26400,note_on,,0,0,18,,,,,,,,,,,,,,,,15,,81,72
26400,note_on,,0,0,18,,,,,,,,,,,,,,,,15,,74,72
26400,note_on,,1,0,17,,,,,,,,,,,,,,,,13,,62,72
26400,note_on,,1,0,8,,,,,,,,,,,,,,,,3,,78,72
26400,note_on,,0,0,18,,,,,,,,,,,,,,,,15,,69,72
26400,note_on,,1,0,15,,,,,,,,,,,,,,,,11,,78,72
26400,note_on,,1,0,9,,,,,,,,,,,,,,,,4,,50,72
26400,note_on,,1,0,16,,,,,,,,,,,,,,,,12,,69,72
26400,note_on,,1,0,14,,,,,,,,,,,,,,,,10,,86,72
26400,note_on,,1,0,13,,,,,,,,,,,,,,,,8,,62,72
26400,note_on,,0,0,18,,,,,,,,,,,,,,,,15,,66,72
26400,note_on,,1,0,6,,,,,,,,,,,,,,,,1,,62,72
26459,note_on,,59,0,17,,,,,,,,,,,,,,,,13,,62,0
26459,note_on,,59,0,14,,,,,,,,,,,,,,,,10,,86,0
26459,note_on,,59,0,6,,,,,,,,,,,,,,,,1,,62,0
26459,note_on,,59,0,13,,,,,,,,,,,,,,,,8,,62,0
26459,note_on,,59,0,8,,,,,,,,,,,,,,,,3,,78,0
26459,note_on,,59,0,16,,,,,,,,,,,,,,,,12,,69,0
26459,note_on,,59,0,12,,,,,,,,,,,,,,,,7,,66,0
26459,note_on,,59,0,18,,,,,,,,,,,,,,,,15,,62,0
26459,note_on,,0,0,18,,,,,,,,,,,,,,,,15,,81,0
26459,note_on,,59,0,9,,,,,,,,,,,,,,,,4,,50,0
26459,note_on,,59,0,15,,,,,,,,,,,,,,,,11,,78,0
26459,note_on,,0,0,18,,,,,,,,,,,,,,,,15,,74,0
26459,note_on,,0,0,18,,,,,,,,,,,,,,,,15,,66,0
26459,note_on,,0,0,18,,,,,,,,,,,,,,,,15,,69,0
26460,note_on,,1,0,16,,,,,,,,,,,,,,,,12,,69,72
26460,note_on,,1,0,14,,,,,,,,,,,,,,,,10,,85,72
26460,note_on,,1,0,15,,,,,,,,,,,,,,,,11,,76,72
26460,note_on,,1,0,8,,,,,,,,,,,,,,,,3,,76,72
26460,note_on,,1,0,17,,,,,,,,,,,,,,,,13,,57,72
26460,note_on,,1,0,12,,,,,,,,,,,,,,,,7,,64,72
26460,note_on,,1,0,13,,,,,,,,,,,,,,,,8,,57,72
26460,note_on,,1,0,9,,,,,,,,,,,,,,,,4,,45,72
26460,note_on,,1,0,6,,,,,,,,,,,,,,,,1,,57,72
26460,note_on,,1,0,18,,,,,,,,,,,,,,,,15,,57,72
26460,note_on,,0,0,18,,,,,,,,,,,,,,,,15,,81,72
26460,note_on,,0,0,18,,,,,,,,,,,,,,,,15,,73,72
26460,note_on,,0,0,18,,,,,,,,,,,,,,,,15,,69,72
26460,note_on,,0,0,18,,,,,,,,,,,,,,,,15,,64,72
26519,note_on,,59,0,13,,,,,,,,,,,,,,,,8,,57,0
26519,note_on,,0,0,18,,,,,,,,,,,,,,,,15,,64,0
26519,note_on,,59,0,9,,,,,,,,,,,,,,,,4,,45,0
26519,note_on,,59,0,16,,,,,,,,,,,,,,,,12,,69,0
26519,note_on,,59,0,14,,,,,,,,,,,,,,,,10,,85,0
26519,note_on,,0,0,18,,,,,,,,,,,,,,,,15,,81,0
26519,note_on,,59,0,18,,,,,,,,,,,,,,,,15,,57,0
26519,note_on,,59,0,15,,,,,,,,,,,,,,,,11,,76,0
26519,note_on,,0,0,18,,,,,,,,,,,,,,,,15,,73,0
26519,note_on,,59,0,17,,,,,,,,,,,,,,,,13,,57,0
26519,note_on,,0,0,18,,,,,,,,,,,,,,,,15,,69,0
26519,note_on,,59,0,8,,,,,,,,,,,,,,,,3,,76,0
26519,note_on,,59,0,12,,,,,,,,,,,,,,,,7,,64,0
26519,note_on,,59,0,6,,,,,,,,,,,,,,,,1,,57,0
26580,note_on,,61,0,13,,,,,,,,,,,,,,,,8,,61,72
26580,note_on,,61,0,15,,,,,,,,,,,,,,,,11,,76,72
26580,note_on,,0,0,18,,,,,,,,,,,,,,,,15,,64,72
26580,note_on,,0,0,18,,,,,,,,,,,,,,,,15,,69,72
26580,note_on,,61,0,12,,,,,,,,,,,,,,,,7,,64,72
26580,note_on,,61,0,16,,,,,,,,,,,,,,,,12,,69,72
26580,note_on,,0,0,18,,,,,,,,,,,,,,,,15,,76,72
26580,note_on,,61,0,17,,,,,,,,,,,,,,,,13,,61,72
26580,note_on,,61,0,14,,,,,,,,,,,,,,,,10,,81,72
26580,note_on,,61,0,8,,,,,,,,,,,,,,,,3,,76,72
26580,note_on,,61,0,9,,,,,,,,,,,,,,,,4,,45,72
26580,note_on,,61,0,6,,,,,,,,,,,,,,,,1,,61,72
26580,note_on,,0,0,18,,,,,,,,,,,,,,,,15,,81,72
26580,note_on,,61,0,18,,,,,,,,,,,,,,,,15,,61,72
26609,note_on,,29,0,17,,,,,,,,,,,,,,,,13,,61,0
26609,note_on,,29,0,13,,,,,,,,,,,,,,,,8,,61,0
26609,note_on,,29,0,14,,,,,,,,,,,,,,,,10,,81,0
26609,note_on,,29,0,12,,,,,,,,,,,,,,,,7,,64,0
26609,note_on,,29,0,8,,,,,,,,,,,,,,,,3,,76,0
26609,note_on,,29,0,16,,,,,,,,,,,,,,,,12,,69,0
26609,note_on,,29,0,6,,,,,,,,,,,,,,,,1,,61,0
26609,note_on,,29,0,18,,,,,,,,,,,,,,,,15,,61,0
26609,note_on,,29,0,9,,,,,,,,,,,,,,,,4,,45,0
26609,note_on,,0,0,18,,,,,,,,,,,,,,,,15,,81,0
26609,note_on,,0,0,18,,,,,,,,,,,,,,,,15,,76,0
26609,note_on,,0,0,18,,,,,,,,,,,,,,,,15,,69,0
26609,note_on,,29,0,15,,,,,,,,,,,,,,,,11,,76,0
26609,note_on,,0,0,18,,,,,,,,,,,,,,,,15,,64,0
26610,note_on,,1,0,6,,,,,,,,,,,,,,,,1,,61,72
26610,note_on,,1,0,8,,,,,,,,,,,,,,,,3,,76,72
26610,note_on,,1,0,17,,,,,,,,,,,,,,,,13,,61,72
26610,note_on,,0,0,18,,,,,,,,,,,,,,,,15,,64,72
26610,note_on,,0,0,18,,,,,,,,,,,,,,,,15,,69,72
26610,note_on,,1,0,15,,,,,,,,,,,,,,,,11,,76,72
26610,note_on,,1,0,18,,,,,,,,,,,,,,,,15,,61,72
26610,note_on,,1,0,13,,,,,,,,,,,,,,,,8,,61,72
26610,note_on,,0,0,18,,,,,,,,,,,,,,,,15,,81,72
26610,note_on,,1,0,9,,,,,,,,,,,,,,,,4,,45,72
26610,note_on,,1,0,14,,,,,,,,,,,,,,,,10,,81,72
26610,note_on,,1,0,12,,,,,,,,,,,,,,,,7,,64,72
26610,note_on,,0,0,18,,,,,,,,,,,,,,,,15,,76,72
26610,note_on,,1,0,16,,,,,,,,,,,,,,,,12,,69,72
26639,note_on,,29,0,16,,,,,,,,,,,,,,,,12,,69,0
26639,note_on,,29,0,13,,,,,,,,,,,,,,,,8,,61,0
26639,note_on,,29,0,18,,,,,,,,,,,,,,,,15,,61,0
26639,note_on,,0,0,18,,,,,,,,,,,,,,,,15,,81,0
26639,note_on,,29,0,8,,,,,,,,,,,,,,,,3,,76,0
26639,note_on,,29,0,12,,,,,,,,,,,,,,,,7,,64,0
26639,note_on,,0,0,18,,,,,,,,,,,,,,,,15,,69,0
26639,note_on,,29,0,14,,,,,,,,,,,,,,,,10,,81,0
26639,note_on,,29,0,17,,,,,,,,,,,,,,,,13,,61,0
26639,note_on,,0,0,18,,,,,,,,,,,,,,,,15,,76,0
26639,note_on,,0,0,18,,,,,,,,,,,,,,,,15,,64,0
26639,note_on,,29,0,15,,,,,,,,,,,,,,,,11,,76,0
26639,note_on,,29,0,6,,,,,,,,,,,,,,,,1,,61,0
26639,note_on,,29,0,9,,,,,,,,,,,,,,,,4,,45,0
26640,note_on,,1,0,9,,,,,,,,,,,,,,,,4,,50,72
26640,note_on,,1,0,16,,,,,,,,,,,,,,,,12,,69,72
26640,note_on,,1,0,14,,,,,,,,,,,,,,,,10,,86,72
26640,note_on,,1,0,12,,,,,,,,,,,,,,,,7,,66,72
26640,note_on,,1,0,15,,,,,,,,,,,,,,,,11,,78,72
26640,note_on,,1,0,8,,,,,,,,,,,,,,,,3,,78,72
26640,note_on,,1,0,17,,,,,,,,,,,,,,,,13,,62,72
26640,note_on,,1,0,13,,,,,,,,,,,,,,,,8,,62,72
26640,note_on,,0,0,18,,,,,,,,,,,,,,,,15,,66,72
26640,note_on,,0,0,18,,,,,,,,,,,,,,,,15,,69,72
26640,note_on,,0,0,18,,,,,,,,,,,,,,,,15,,74,72
26640,note_on,,0,0,18,,,,,,,,,,,,,,,,15,,81,72
26640,note_on,,1,0,18,,,,,,,,,,,,,,,,15,,62,72
26640,note_on,,1,0,6,,,,,,,,,,,,,,,,1,,62,72
26699,note_on,,59,0,6,,,,,,,,,,,,,,,,1,,62,0
26699,note_on,,59,0,15,,,,,,,,,,,,,,,,11,,78,0
26699,note_on,,59,0,9,,,,,,,,,,,,,,,,4,,50,0
26699,note_on,,0,0,18,,,,,,,,,,,,,,,,15,,66,0
26699,note_on,,59,0,14,,,,,,,,,,,,,,,,10,,86,0
26699,note_on,,0,0,18,,,,,,,,,,,,,,,,15,,74,0
26699,note_on,,0,0,18,,,,,,,,,,,,,,,,15,,81,0
26699,note_on,,59,0,16,,,,,,,,,,,,,,,,12,,69,0
26699,note_on,,59,0,17,,,,,,,,,,,,,,,,13,,62,0
26699,note_on,,59,0,12,,,,,,,,,,,,,,,,7,,66,0
26699,note_on,,59,0,8,,,,,,,,,,,,,,,,3,,78,0
26699,note_on,,59,0,13,,,,,,,,,,,,,,,,8,,62,0
26699,note_on,,59,0,18,,,,,,,,,,,,,,,,15,,62,0
26699,note_on,,0,0,18,,,,,,,,,,,,,,,,15,,69,0
26700,note_on,,1,0,12,,,,,,,,,,,,,,,,7,,64,72
26700,note_on,,1,0,15,,,,,,,,,,,,,,,,11,,76,72
26700,note_on,,1,0,6,,,,,,,,,,,,,,,,1,,57,72
26700,note_on,,0,0,18,,,,,,,,,,,,,,,,15,,81,72
26700,note_on,,1,0,8,,,,,,,,,,,,,,,,3,,76,72
26700,note_on,,1,0,13,,,,,,,,,,,,,,,,8,,57,72
26700,note_on,,0,0,18,,,,,,,,,,,,,,,,15,,73,72
26700,note_on,,0,0,18,,,,,,,,,,,,,,,,15,,69,72
26700,note_on,,0,0,18,,,,,,,,,,,,,,,,15,,64,72
26700,note_on,,1,0,9,,,,,,,,,,,,,,,,4,,45,72
26700,note_on,,1,0,14,,,,,,,,,,,,,,,,10,,85,72
26700,note_on,,1,0,17,,,,,,,,,,,,,,,,13,,57,72
26700,note_on,,1,0,16,,,,,,,,,,,,,,,,12,,69,72
26700,note_on,,1,0,18,,,,,,,,,,,,,,,,15,,57,72
26759,note_on,,59,0,9,,,,,,,,,,,,,,,,4,,45,0
26759,note_on,,59,0,14,,,,,,,,,,,,,,,,10,,85,0
26759,note_on,,59,0,17,,,,,,,,,,,,,,,,13,,57,0
26759,note_on,,59,0,6,,,,,,,,,,,,,,,,1,,57,0
26759,note_on,,59,0,16,,,,,,,,,,,,,,,,12,,69,0
26759,note_on,,59,0,8,,,,,,,,,,,,,,,,3,,76,0
26759,note_on,,0,0,18,,,,,,,,,,,,,,,,15,,64,0
26759,note_on,,0,0,18,,,,,,,,,,,,,,,,15,,69,0
26759,note_on,,0,0,18,,,,,,,,,,,,,,,,15,,73,0
26759,note_on,,0,0,18,,,,,,,,,,,,,,,,15,,81,0
26759,note_on,,59,0,18,,,,,,,,,,,,,,,,15,,57,0
26759,note_on,,59,0,12,,,,,,,,,,,,,,,,7,,64,0
26759,note_on,,59,0,13,,,,,,,,,,,,,,,,8,,57,0
26759,note_on,,59,0,15,,,,,,,,,,,,,,,,11,,76,0
26820,note_on,,0,0,18,,,,,,,,,,,,,,,,15,,81,72
26820,note_on,,61,0,18,,,,,,,,,,,,,,,,15,,61,72
26820,note_on,,61,0,6,,,,,,,,,,,,,,,,1,,61,72
26820,note_on,,0,0,18,,,,,,,,,,,,,,,,15,,76,72
26820,note_on,,0,0,18,,,,,,,,,,,,,,,,15,,69,72
26820,note_on,,0,0,18,,,,,,,,,,,,,,,,15,,64,72
26820,note_on,,61,0,15,,,,,,,,,,,,,,,,11,,76,72
26820,note_on,,61,0,13,,,,,,,,,,,,,,,,8,,61,72
26820,note_on,,61,0,16,,,,,,,,,,,,,,,,12,,69,72
26820,note_on,,61,0,12,,,,,,,,,,,,,,,,7,,64,72
26820,note_on,,61,0,9,,,,,,,,,,,,,,,,4,,45,72
26820,note_on,,61,0,8,,,,,,,,,,,,,,,,3,,76,72
26820,note_on,,61,0,14,,,,,,,,,,,,,,,,10,,81,72
26820,note_on,,61,0,17,,,,,,,,,,,,,,,,13,,61,72
26849,note_on,,0,0,18,,,,,,,,,,,,,,,,15,,69,0
26849,note_on,,29,0,16,,,,,,,,,,,,,,,,12,,69,0
26849,note_on,,29,0,13,,,,,,,,,,,,,,,,8,,61,0
26849,note_on,,29,0,12,,,,,,,,,,,,,,,,7,,64,0
26849,note_on,,29,0,8,,,,,,,,,,,,,,,,3,,76,0
26849,note_on,,0,0,18,,,,,,,,,,,,,,,,15,,64,0
26849,note_on,,29,0,17,,,,,,,,,,,,,,,,13,,61,0
26849,note_on,,29,0,14,,,,,,,,,,,,,,,,10,,81,0
26849,note_on,,29,0,15,,,,,,,,,,,,,,,,11,,76,0
26849,note_on,,29,0,18,,,,,,,,,,,,,,,,15,,61,0
26849,note_on,,0,0,18,,,,,,,,,,,,,,,,15,,81,0
26849,note_on,,0,0,18,,,,,,,,,,,,,,,,15,,76,0
26849,note_on,,29,0,6,,,,,,,,,,,,,,,,1,,61,0
26849,note_on,,29,0,9,,,,,,,,,,,,,,,,4,,45,0
26850,note_on,,1,0,6,,,,,,,,,,,,,,,,1,,61,72
26850,note_on,,1,0,17,,,,,,,,,,,,,,,,13,,61,72
26850,note_on,,1,0,16,,,,,,,,,,,,,,,,12,,69,72
26850,note_on,,1,0,15,,,,,,,,,,,,,,,,11,,76,72
26850,note_on,,1,0,8,,,,,,,,,,,,,,,,3,,76,72
26850,note_on,,1,0,12,,,,,,,,,,,,,,,,7,,64,72
26850,note_on,,1,0,9,,,,,,,,,,,,,,,,4,,45,72
26850,note_on,,1,0,14,,,,,,,,,,,,,,,,10,,81,72
26850,note_on,,1,0,18,,,,,,,,,,,,,,,,15,,61,72
26850,note_on,,0,0,18,,,,,,,,,,,,,,,,15,,81,72
26850,note_on,,0,0,18,,,,,,,,,,,,,,,,15,,76,72
26850,note_on,,0,0,18,,,,,,,,,,,,,,,,15,,69,72
26850,note_on,,0,0,18,,,,,,,,,,,,,,,,15,,64,72
26850,note_on,,1,0,13,,,,,,,,,,,,,,,,8,,61,72
26879,note_on,,29,0,6,,,,,,,,,,,,,,,,1,,61,0
26879,note_on,,959,0,10,,,,,,,,,,,,,,,,5,,69,0
26879,note_on,,29,0,14,,,,,,,,,,,,,,,,10,,81,0
26879,note_on,,29,0,15,,,,,,,,,,,,,,,,11,,76,0
26879,note_on,,29,0,13,,,,,,,,,,,,,,,,8,,61,0
26879,note_on,,29,0,16,,,,,,,,,,,,,,,,12,,69,0
26879,note_on,,959,0,5,,,,,,,,,,,,,,,,0,,69,0
26879,note_on,,29,0,8,,,,,,,,,,,,,,,,3,,76,0
26879,note_on,,29,0,17,,,,,,,,,,,,,,,,13,,61,0
26879,note_on,,0,0,18,,,,,,,,,,,,,,,,15,,64,0
26879,note_on,,0,0,18,,,,,,,,,,,,,,,,15,,69,0
26879,note_on,,0,0,18,,,,,,,,,,,,,,,,15,,76,0
26879,note_on,,0,0,18,,,,,,,,,,,,,,,,15,,81,0
26879,note_on,,29,0,18,,,,,,,,,,,,,,,,15,,61,0
26879,note_on,,29,0,9,,,,,,,,,,,,,,,,4,,45,0
26879,note_on,,29,0,12,,,,,,,,,,,,,,,,7,,64,0
26880,note_on,,1,0,17,,,,,,,,,,,,,,,,13,,62,72
26880,note_on,,1,0,16,,,,,,,,,,,,,,,,12,,69,72
26880,note_on,,0,0,18,,,,,,,,,,,,,,,,15,,66,72
26880,note_on,,1,0,14,,,,,,,,,,,,,,,,10,,86,72
26880,note_on,,1,0,6,,,,,,,,,,,,,,,,1,,62,72
26880,note_on,,0,0,18,,,,,,,,,,,,,,,,15,,69,72
26880,note_on,,1,0,12,,,,,,,,,,,,,,,,7,,66,72
26880,note_on,,1,0,13,,,,,,,,,,,,,,,,8,,62,72
26880,note_on,,0,0,18,,,,,,,,,,,,,,,,15,,74,72
26880,note_on,,0,0,18,,,,,,,,,,,,,,,,15,,81,72
26880,note_on,,1,0,9,,,,,,,,,,,,,,,,4,,50,72
26880,note_on,,1,0,8,,,,,,,,,,,,,,,,3,,78,72
26880,note_on,,1,0,18,,,,,,,,,,,,,,,,15,,62,72
26880,note_on,,1,0,15,,,,,,,,,,,,,,,,11,,78,72
26939,note_on,,59,0,12,,,,,,,,,,,,,,,,7,,66,0
26939,note_on,,59,0,16,,,,,,,,,,,,,,,,12,,69,0
26939,note_on,,59,0,8,,,,,,,,,,,,,,,,3,,78,0
26939,note_on,,59,0,17,,,,,,,,,,,,,,,,13,,62,0
26939,note_on,,0,0,18,,,,,,,,,,,,,,,,15,,69,0
26939,note_on,,0,0,18,,,,,,,,,,,,,,,,15,,66,0
26939,note_on,,59,0,14,,,,,,,,,,,,,,,,10,,86,0
26939,note_on,,0,0,18,,,,,,,,,,,,,,,,15,,74,0
26939,note_on,,0,0,18,,,,,,,,,,,,,,,,15,,81,0
26939,note_on,,59,0,13,,,,,,,,,,,,,,,,8,,62,0
26939,note_on,,59,0,18,,,,,,,,,,,,,,,,15,,62,0
26939,note_on,,59,0,9,,,,,,,,,,,,,,,,4,,50,0
26939,note_on,,59,0,6,,,,,,,,,,,,,,,,1,,62,0
26939,note_on,,59,0,15,,,,,,,,,,,,,,,,11,,78,0
26940,note_on,,0,0,18,,,,,,,,,,,,,,,,15,,69,72
26940,note_on,,1,0,12,,,,,,,,,,,,,,,,7,,64,72
26940,note_on,,0,0,18,,,,,,,,,,,,,,,,15,,81,72
26940,note_on,,1,0,18,,,,,,,,,,,,,,,,15,,57,72
26940,note_on,,1,0,6,,,,,,,,,,,,,,,,1,,57,72
26940,note_on,,0,0,18,,,,,,,,,,,,,,,,15,,73,72
26940,note_on,,0,0,18,,,,,,,,,,,,,,,,15,,64,72
26940,note_on,,1,0,17,,,,,,,,,,,,,,,,13,,57,72
26940,note_on,,1,0,14,,,,,,,,,,,,,,,,10,,85,72
26940,note_on,,1,0,13,,,,,,,,,,,,,,,,8,,57,72
26940,note_on,,1,0,15,,,,,,,,,,,,,,,,11,,76,72
26940,note_on,,1,0,8,,,,,,,,,,,,,,,,3,,76,72
26940,note_on,,1,0,9,,,,,,,,,,,,,,,,4,,45,72
26940,note_on,,1,0,16,,,,,,,,,,,,,,,,12,,69,72
26999,note_on,,0,0,18,,,,,,,,,,,,,,,,15,,69,0
26999,note_on,,59,0,16,,,,,,,,,,,,,,,,12,,69,0
26999,note_on,,59,0,8,,,,,,,,,,,,,,,,3,,76,0
26999,note_on,,0,0,18,,,,,,,,,,,,,,,,15,,81,0
26999,note_on,,59,0,17,,,,,,,,,,,,,,,,13,,57,0
26999,note_on,,0,0,18,,,,,,,,,,,,,,,,15,,73,0
26999,note_on,,59,0,13,,,,,,,,,,,,,,,,8,,57,0
26999,note_on,,0,0,18,,,,,,,,,,,,,,,,15,,64,0
26999,note_on,,59,0,6,,,,,,,,,,,,,,,,1,,57,0
26999,note_on,,59,0,15,,,,,,,,,,,,,,,,11,,76,0
26999,note_on,,59,0,12,,,,,,,,,,,,,,,,7,,64,0
26999,note_on,,59,0,18,,,,,,,,,,,,,,,,15,,57,0
26999,note_on,,59,0,9,,,,,,,,,,,,,,,,4,,45,0
26999,note_on,,59,0,14,,,,,,,,,,,,,,,,10,,85,0
27029,note_on,,869,0,7,,,,,,,,,,,,,,,,2,,81,0
27030,note_on,,1,0,7,,,,,,,,,,,,,,,,2,,79,72
27059,note_on,,29,0,7,,,,,,,,,,,,,,,,2,,79,0
27060,note_on,,1,0,7,,,,,,,,,,,,,,,,2,,78,72
27089,note_on,,29,0,7,,,,,,,,,,,,,,,,2,,78,0
27090,note_on,,1,0,7,,,,,,,,,,,,,,,,2,,76,72
27119,note_on,,29,0,7,,,,,,,,,,,,,,,,2,,76,0
27119,note_on,,1199,0,11,,,,,,,,,,,,,,,,6,,69,0
27120,note_on,,241,0,10,,,,,,,,,,,,,,,,5,,74,72
27120,note_on,,1,0,7,,,,,,,,,,,,,,,,2,,74,72
27120,note_on,,241,0,5,,,,,,,,,,,,,,,,0,,74,72
27239,note_on,,119,0,10,,,,,,,,,,,,,,,,5,,74,0
27239,note_on,,119,0,7,,,,,,,,,,,,,,,,2,,74,0
27239,note_on,,119,0,5,,,,,,,,,,,,,,,,0,,74,0
27240,note_on,,1,0,7,,,,,,,,,,,,,,,,2,,74,72
27240,note_on,,1,0,5,,,,,,,,,,,,,,,,0,,74,72
27240,note_on,,1,0,10,,,,,,,,,,,,,,,,5,,74,72
27359,note_on,,119,0,5,,,,,,,,,,,,,,,,0,,74,0
27359,note_on,,119,0,10,,,,,,,,,,,,,,,,5,,74,0
27359,note_on,,119,0,7,,,,,,,,,,,,,,,,2,,74,0
27360,note_on,,1,0,5,,,,,,,,,,,,,,,,0,,74,72
27360,note_on,,1,0,10,,,,,,,,,,,,,,,,5,,74,72
27360,note_on,,1,0,7,,,,,,,,,,,,,,,,2,,74,72
27540,note_on,,0,0,18,,,,,,,,,,,,,,,,15,,57,72
27540,note_on,,541,0,16,,,,,,,,,,,,,,,,12,,62,72
27540,note_on,,541,0,17,,,,,,,,,,,,,,,,13,,54,72
27540,note_on,,541,0,12,,,,,,,,,,,,,,,,7,,62,72
27540,note_on,,541,0,15,,,,,,,,,,,,,,,,11,,74,72
27540,note_on,,541,0,6,,,,,,,,,,,,,,,,1,,54,72
27540,note_on,,541,0,14,,,,,,,,,,,,,,,,10,,81,72
27540,note_on,,0,0,18,,,,,,,,,,,,,,,,15,,62,72
27540,note_on,,0,0,18,,,,,,,,,,,,,,,,15,,69,72
27540,note_on,,421,0,11,,,,,,,,,,,,,,,,6,,69,72
27540,note_on,,541,0,13,,,,,,,,,,,,,,,,8,,54,72
27540,note_on,,541,0,18,,,,,,,,,,,,,,,,15,,54,72
27599,note_on,,59,0,17,,,,,,,,,,,,,,,,13,,54,0
27599,note_on,,59,0,18,,,,,,,,,,,,,,,,15,,54,0
27599,note_on,,0,0,18,,,,,,,,,,,,,,,,15,,69,0
27599,note_on,,59,0,13,,,,,,,,,,,,,,,,8,,54,0
27599,note_on,,0,0,18,,,,,,,,,,,,,,,,15,,57,0
27599,note_on,,59,0,12,,,,,,,,,,,,,,,,7,,62,0
27599,note_on,,59,0,16,,,,,,,,,,,,,,,,12,,62,0
27599,note_on,,59,0,15,,,,,,,,,,,,,,,,11,,74,0
27599,note_on,,59,0,6,,,,,,,,,,,,,,,,1,,54,0
27599,note_on,,59,0,14,,,,,,,,,,,,,,,,10,,81,0
27599,note_on,,59,0,11,,,,,,,,,,,,,,,,6,,69,0
27599,note_on,,0,0,18,,,,,,,,,,,,,,,,15,,62,0
27600,note_on,,1,0,18,,,,,,,,,,,,,,,,15,,55,72
27600,note_on,,0,0,18,,,,,,,,,,,,,,,,15,,67,72
27600,note_on,,0,0,18,,,,,,,,,,,,,,,,15,,62,72
27600,note_on,,0,0,18,,,,,,,,,,,,,,,,15,,59,72
27600,note_on,,1,0,16,,,,,,,,,,,,,,,,12,,62,72
27600,note_on,,1,0,14,,,,,,,,,,,,,,,,10,,83,72
27600,note_on,,1,0,13,,,,,,,,,,,,,,,,8,,55,72
27600,note_on,,1,0,17,,,,,,,,,,,,,,,,13,,55,72
27600,note_on,,1,0,11,,,,,,,,,,,,,,,,6,,71,72
27600,note_on,,1,0,6,,,,,,,,,,,,,,,,1,,55,72
27600,note_on,,1,0,12,,,,,,,,,,,,,,,,7,,67,72
27600,note_on,,1,0,15,,,,,,,,,,,,,,,,11,,79,72
27659,note_on,,59,0,14,,,,,,,,,,,,,,,,10,,83,0
27659,note_on,,0,0,18,,,,,,,,,,,,,,,,15,,59,0
27659,note_on,,0,0,18,,,,,,,,,,,,,,,,15,,62,0
27659,note_on,,0,0,18,,,,,,,,,,,,,,,,15,,67,0
27659,note_on,,59,0,18,,,,,,,,,,,,,,,,15,,55,0
27659,note_on,,59,0,12,,,,,,,,,,,,,,,,7,,67,0
27659,note_on,,59,0,16,,,,,,,,,,,,,,,,12,,62,0
27659,note_on,,59,0,11,,,,,,,,,,,,,,,,6,,71,0
27659,note_on,,59,0,13,,,,,,,,,,,,,,,,8,,55,0
27659,note_on,,59,0,17,,,,,,,,,,,,,,,,13,,55,0
27659,note_on,,59,0,6,,,,,,,,,,,,,,,,1,,55,0
27659,note_on,,59,0,15,,,,,,,,,,,,,,,,11,,79,0
27660,note_on,,0,0,18,,,,,,,,,,,,,,,,15,,57,72
27660,note_on,,1,0,15,,,,,,,,,,,,,,,,11,,78,72
27660,note_on,,1,0,17,,,,,,,,,,,,,,,,13,,50,72
27660,note_on,,0,0,18,,,,,,,,,,,,,,,,15,,62,72
27660,note_on,,1,0,11,,,,,,,,,,,,,,,,6,,69,72
27660,note_on,,1,0,13,,,,,,,,,,,,,,,,8,,50,72
27660,note_on,,1,0,6,,,,,,,,,,,,,,,,1,,50,72
27660,note_on,,0,0,18,,,,,,,,,,,,,,,,15,,66,72
27660,note_on,,1,0,14,,,,,,,,,,,,,,,,10,,81,72
27660,note_on,,1,0,16,,,,,,,,,,,,,,,,12,,62,72
27660,note_on,,1,0,12,,,,,,,,,,,,,,,,7,,66,72
27660,note_on,,1,0,18,,,,,,,,,,,,,,,,15,,50,72
27719,note_on,,59,0,11,,,,,,,,,,,,,,,,6,,69,0
27719,note_on,,0,0,18,,,,,,,,,,,,,,,,15,,57,0
27719,note_on,,59,0,14,,,,,,,,,,,,,,,,10,,81,0
27719,note_on,,59,0,12,,,,,,,,,,,,,,,,7,,66,0
27719,note_on,,59,0,13,,,,,,,,,,,,,,,,8,,50,0
27719,note_on,,59,0,6,,,,,,,,,,,,,,,,1,,50,0
27719,note_on,,59,0,17,,,,,,,,,,,,,,,,13,,50,0
27719,note_on,,59,0,16,,,,,,,,,,,,,,,,12,,62,0
27719,note_on,,59,0,15,,,,,,,,,,,,,,,,11,,78,0
27719,note_on,,0,0,18,,,,,,,,,,,,,,,,15,,62,0
27719,note_on,,0,0,18,,,,,,,,,,,,,,,,15,,66,0
27719,note_on,,59,0,18,,,,,,,,,,,,,,,,15,,50,0
27720,note_on,,1,0,14,,,,,,,,,,,,,,,,10,,86,72
27720,note_on,,1,0,15,,,,,,,,,,,,,,,,11,,81,72
27720,note_on,,1,0,16,,,,,,,,,,,,,,,,12,,66,72
27779,note_on,,59,0,16,,,,,,,,,,,,,,,,12,,66,0
27779,note_on,,59,0,15,,,,,,,,,,,,,,,,11,,81,0
27779,note_on,,59,0,14,,,,,,,,,,,,,,,,10,,86,0
27780,note_on,,61,0,11,,,,,,,,,,,,,,,,6,,69,72
27780,note_on,,1,0,14,,,,,,,,,,,,,,,,10,,81,72
27780,note_on,,61,0,13,,,,,,,,,,,,,,,,8,,54,72
27780,note_on,,61,0,12,,,,,,,,,,,,,,,,7,,62,72
27780,note_on,,1,0,15,,,,,,,,,,,,,,,,11,,78,72
27780,note_on,,0,0,18,,,,,,,,,,,,,,,,15,,57,72
27780,note_on,,0,0,18,,,,,,,,,,,,,,,,15,,62,72
27780,note_on,,0,0,18,,,,,,,,,,,,,,,,15,,69,72
27780,note_on,,1,0,16,,,,,,,,,,,,,,,,12,,62,72
27780,note_on,,61,0,18,,,,,,,,,,,,,,,,15,,54,72
27780,note_on,,61,0,17,,,,,,,,,,,,,,,,13,,54,72
27780,note_on,,61,0,6,,,,,,,,,,,,,,,,1,,54,72
27839,note_on,,59,0,12,,,,,,,,,,,,,,,,7,,62,0
27839,note_on,,59,0,15,,,,,,,,,,,,,,,,11,,78,0
27839,note_on,,0,0,18,,,,,,,,,,,,,,,,15,,57,0
27839,note_on,,0,0,18,,,,,,,,,,,,,,,,15,,62,0
27839,note_on,,0,0,18,,,,,,,,,,,,,,,,15,,69,0
27839,note_on,,59,0,11,,,,,,,,,,,,,,,,6,,69,0
27839,note_on,,59,0,16,,,,,,,,,,,,,,,,12,,62,0
27839,note_on,,59,0,14,,,,,,,,,,,,,,,,10,,81,0
27839,note_on,,59,0,18,,,,,,,,,,,,,,,,15,,54,0
27839,note_on,,59,0,13,,,,,,,,,,,,,,,,8,,54,0
27839,note_on,,59,0,6,,,,,,,,,,,,,,,,1,,54,0
27839,note_on,,59,0,17,,,,,,,,,,,,,,,,13,,54,0
27840,note_on,,1,0,11,,,,,,,,,,,,,,,,6,,71,72
27840,note_on,,1,0,15,,,,,,,,,,,,,,,,11,,74,72
27840,note_on,,1,0,12,,,,,,,,,,,,,,,,7,,67,72
27840,note_on,,0,0,18,,,,,,,,,,,,,,,,15,,67,72
27840,note_on,,1,0,18,,,,,,,,,,,,,,,,15,,55,72
27840,note_on,,1,0,17,,,,,,,,,,,,,,,,13,,55,72
27840,note_on,,1,0,13,,,,,,,,,,,,,,,,8,,55,72
27840,note_on,,0,0,18,,,,,,,,,,,,,,,,15,,59,72
27840,note_on,,0,0,18,,,,,,,,,,,,,,,,15,,62,72
27840,note_on,,1,0,14,,,,,,,,,,,,,,,,10,,83,72
27840,note_on,,1,0,6,,,,,,,,,,,,,,,,1,,55,72
27840,note_on,,1,0,16,,,,,,,,,,,,,,,,12,,62,72
27899,note_on,,59,0,17,,,,,,,,,,,,,,,,13,,55,0
27899,note_on,,0,0,18,,,,,,,,,,,,,,,,15,,67,0
27899,note_on,,59,0,14,,,,,,,,,,,,,,,,10,,83,0
27899,note_on,,59,0,12,,,,,,,,,,,,,,,,7,,67,0
27899,note_on,,59,0,16,,,,,,,,,,,,,,,,12,,62,0
27899,note_on,,59,0,6,,,,,,,,,,,,,,,,1,,55,0
27899,note_on,,59,0,11,,,,,,,,,,,,,,,,6,,71,0
27899,note_on,,59,0,15,,,,,,,,,,,,,,,,11,,74,0
27899,note_on,,59,0,18,,,,,,,,,,,,,,,,15,,55,0
27899,note_on,,59,0,13,,,,,,,,,,,,,,,,8,,55,0
27899,note_on,,0,0,18,,,,,,,,,,,,,,,,15,,62,0
27899,note_on,,0,0,18,,,,,,,,,,,,,,,,15,,59,0
27900,note_on,,1,0,11,,,,,,,,,,,,,,,,6,,69,72
27900,note_on,,1,0,12,,,,,,,,,,,,,,,,7,,66,72
27900,note_on,,1,0,6,,,,,,,,,,,,,,,,1,,50,72
27900,note_on,,1,0,15,,,,,,,,,,,,,,,,11,,78,72
27900,note_on,,1,0,14,,,,,,,,,,,,,,,,10,,81,72
27900,note_on,,0,0,18,,,,,,,,,,,,,,,,15,,66,72
27900,note_on,,0,0,18,,,,,,,,,,,,,,,,15,,62,72
27900,note_on,,0,0,18,,,,,,,,,,,,,,,,15,,57,72
27900,note_on,,1,0,16,,,,,,,,,,,,,,,,12,,62,72
27900,note_on,,1,0,17,,,,,,,,,,,,,,,,13,,50,72
27900,note_on,,1,0,18,,,,,,,,,,,,,,,,15,,50,72
27900,note_on,,1,0,13,,,,,,,,,,,,,,,,8,,50,72
27959,note_on,,59,0,16,,,,,,,,,,,,,,,,12,,62,0
27959,note_on,,59,0,6,,,,,,,,,,,,,,,,1,,50,0
27959,note_on,,59,0,14,,,,,,,,,,,,,,,,10,,81,0
27959,note_on,,59,0,17,,,,,,,,,,,,,,,,13,,50,0
27959,note_on,,59,0,15,,,,,,,,,,,,,,,,11,,78,0
27959,note_on,,59,0,11,,,,,,,,,,,,,,,,6,,69,0
27959,note_on,,59,0,18,,,,,,,,,,,,,,,,15,,50,0
27959,note_on,,0,0,18,,,,,,,,,,,,,,,,15,,62,0
27959,note_on,,0,0,18,,,,,,,,,,,,,,,,15,,57,0
27959,note_on,,59,0,12,,,,,,,,,,,,,,,,7,,66,0
27959,note_on,,59,0,13,,,,,,,,,,,,,,,,8,,50,0
27959,note_on,,0,0,18,,,,,,,,,,,,,,,,15,,66,0
28020,note_on,,0,0,18,,,,,,,,,,,,,,,,15,,57,72
28020,note_on,,61,0,13,,,,,,,,,,,,,,,,8,,54,72
28020,note_on,,61,0,12,,,,,,,,,,,,,,,,7,,62,72
28020,note_on,,0,0,18,,,,,,,,,,,,,,,,15,,69,72
28020,note_on,,61,0,16,,,,,,,,,,,,,,,,12,,62,72
28020,note_on,,61,0,11,,,,,,,,,,,,,,,,6,,69,72
28020,note_on,,61,0,6,,,,,,,,,,,,,,,,1,,54,72
28020,note_on,,61,0,15,,,,,,,,,,,,,,,,11,,74,72
28020,note_on,,61,0,14,,,,,,,,,,,,,,,,10,,81,72
28020,note_on,,61,0,18,,,,,,,,,,,,,,,,15,,54,72
28020,note_on,,0,0,18,,,,,,,,,,,,,,,,15,,62,72
28020,note_on,,61,0,17,,,,,,,,,,,,,,,,13,,54,72
28049,note_on,,29,0,12,,,,,,,,,,,,,,,,7,,62,0
28049,note_on,,29,0,14,,,,,,,,,,,,,,,,10,,81,0
28049,note_on,,29,0,16,,,,,,,,,,,,,,,,12,,62,0
28049,note_on,,29,0,15,,,,,,,,,,,,,,,,11,,74,0
28049,note_on,,29,0,11,,,,,,,,,,,,,,,,6,,69,0
28049,note_on,,29,0,13,,,,,,,,,,,,,,,,8,,54,0
28049,note_on,,29,0,18,,,,,,,,,,,,,,,,15,,54,0
28049,note_on,,0,0,18,,,,,,,,,,,,,,,,15,,69,0
28049,note_on,,29,0,17,,,,,,,,,,,,,,,,13,,54,0
28049,note_on,,29,0,6,,,,,,,,,,,,,,,,1,,54,0
28049,note_on,,0,0,18,,,,,,,,,,,,,,,,15,,62,0
28049,note_on,,0,0,18,,,,,,,,,,,,,,,,15,,57,0
28050,note_on,,0,0,18,,,,,,,,,,,,,,,,15,,62,72
28050,note_on,,0,0,18,,,,,,,,,,,,,,,,15,,69,72
28050,note_on,,1,0,14,,,,,,,,,,,,,,,,10,,81,72
28050,note_on,,1,0,16,,,,,,,,,,,,,,,,12,,62,72
28050,note_on,,1,0,12,,,,,,,,,,,,,,,,7,,62,72
28050,note_on,,1,0,17,,,,,,,,,,,,,,,,13,,54,72
28050,note_on,,1,0,13,,,,,,,,,,,,,,,,8,,54,72
28050,note_on,,1,0,18,,,,,,,,,,,,,,,,15,,54,72
28050,note_on,,0,0,18,,,,,,,,,,,,,,,,15,,57,72
28050,note_on,,1,0,11,,,,,,,,,,,,,,,,6,,69,72
28050,note_on,,1,0,6,,,,,,,,,,,,,,,,1,,54,72
28050,note_on,,1,0,15,,,,,,,,,,,,,,,,11,,74,72
28079,note_on,,29,0,11,,,,,,,,,,,,,,,,6,,69,0
28079,note_on,,29,0,17,,,,,,,,,,,,,,,,13,,54,0
28079,note_on,,29,0,18,,,,,,,,,,,,,,,,15,,54,0
28079,note_on,,29,0,14,,,,,,,,,,,,,,,,10,,81,0
28079,note_on,,29,0,16,,,,,,,,,,,,,,,,12,,62,0
28079,note_on,,0,0,18,,,,,,,,,,,,,,,,15,,62,0
28079,note_on,,0,0,18,,,,,,,,,,,,,,,,15,,57,0
28079,note_on,,29,0,15,,,,,,,,,,,,,,,,11,,74,0
28079,note_on,,29,0,12,,,,,,,,,,,,,,,,7,,62,0
28079,note_on,,0,0,18,,,,,,,,,,,,,,,,15,,69,0
28079,note_on,,29,0,6,,,,,,,,,,,,,,,,1,,54,0
28079,note_on,,29,0,13,,,,,,,,,,,,,,,,8,,54,0
28080,note_on,,1,0,6,,,,,,,,,,,,,,,,1,,55,72
28080,note_on,,0,0,18,,,,,,,,,,,,,,,,15,,62,72
28080,note_on,,0,0,18,,,,,,,,,,,,,,,,15,,59,72
28080,note_on,,1,0,13,,,,,,,,,,,,,,,,8,,55,72
28080,note_on,,1,0,14,,,,,,,,,,,,,,,,10,,83,72
28080,note_on,,1,0,15,,,,,,,,,,,,,,,,11,,79,72
28080,note_on,,1,0,17,,,,,,,,,,,,,,,,13,,55,72
28080,note_on,,1,0,16,,,,,,,,,,,,,,,,12,,62,72
28080,note_on,,1,0,12,,,,,,,,,,,,,,,,7,,67,72
28080,note_on,,1,0,11,,,,,,,,,,,,,,,,6,,71,72
28080,note_on,,0,0,18,,,,,,,,,,,,,,,,15,,67,72
28080,note_on,,1,0,18,,,,,,,,,,,,,,,,15,,55,72
28139,note_on,,59,0,17,,,,,,,,,,,,,,,,13,,55,0
28139,note_on,,59,0,11,,,,,,,,,,,,,,,,6,,71,0
28139,note_on,,59,0,14,,,,,,,,,,,,,,,,10,,83,0
28139,note_on,,0,0,18,,,,,,,,,,,,,,,,15,,59,0
28139,note_on,,59,0,13,,,,,,,,,,,,,,,,8,,55,0
28139,note_on,,59,0,18,,,,,,,,,,,,,,,,15,,55,0
28139,note_on,,0,0,18,,,,,,,,,,,,,,,,15,,67,0
28139,note_on,,0,0,18,,,,,,,,,,,,,,,,15,,62,0
28139,note_on,,59,0,15,,,,,,,,,,,,,,,,11,,79,0
28139,note_on,,59,0,6,,,,,,,,,,,,,,,,1,,55,0
28139,note_on,,59,0,12,,,,,,,,,,,,,,,,7,,67,0
28139,note_on,,59,0,16,,,,,,,,,,,,,,,,12,,62,0
28140,note_on,,1,0,13,,,,,,,,,,,,,,,,8,,50,72
28140,note_on,,0,0,18,,,,,,,,,,,,,,,,15,,57,72
28140,note_on,,0,0,18,,,,,,,,,,,,,,,,15,,62,72
28140,note_on,,0,0,18,,,,,,,,,,,,,,,,15,,66,72
28140,note_on,,1,0,18,,,,,,,,,,,,,,,,15,,50,72
28140,note_on,,1,0,12,,,,,,,,,,,,,,,,7,,66,72
28140,note_on,,1,0,11,,,,,,,,,,,,,,,,6,,69,72
28140,note_on,,1,0,16,,,,,,,,,,,,,,,,12,,62,72
28140,note_on,,1,0,17,,,,,,,,,,,,,,,,13,,50,72
28140,note_on,,1,0,6,,,,,,,,,,,,,,,,1,,50,72
28140,note_on,,1,0,15,,,,,,,,,,,,,,,,11,,78,72
28140,note_on,,1,0,14,,,,,,,,,,,,,,,,10,,81,72
28199,note_on,,59,0,16,,,,,,,,,,,,,,,,12,,62,0
28199,note_on,,59,0,11,,,,,,,,,,,,,,,,6,,69,0
28199,note_on,,0,0,18,,,,,,,,,,,,,,,,15,,57,0
28199,note_on,,0,0,18,,,,,,,,,,,,,,,,15,,62,0
28199,note_on,,59,0,12,,,,,,,,,,,,,,,,7,,66,0
28199,note_on,,59,0,18,,,,,,,,,,,,,,,,15,,50,0
28199,note_on,,59,0,15,,,,,,,,,,,,,,,,11,,78,0
28199,note_on,,59,0,17,,,,,,,,,,,,,,,,13,,50,0
28199,note_on,,59,0,13,,,,,,,,,,,,,,,,8,,50,0
28199,note_on,,59,0,14,,,,,,,,,,,,,,,,10,,81,0
28199,note_on,,59,0,6,,,,,,,,,,,,,,,,1,,50,0
28199,note_on,,0,0,18,,,,,,,,,,,,,,,,15,,66,0
28260,note_on,,61,0,12,,,,,,,,,,,,,,,,7,,62,72
28260,note_on,,61,0,11,,,,,,,,,,,,,,,,6,,69,72
28260,note_on,,61,0,16,,,,,,,,,,,,,,,,12,,62,72
28260,note_on,,61,0,14,,,,,,,,,,,,,,,,10,,81,72
28260,note_on,,61,0,6,,,,,,,,,,,,,,,,1,,54,72
28260,note_on,,0,0,18,,,,,,,,,,,,,,,,15,,69,72
28260,note_on,,61,0,15,,,,,,,,,,,,,,,,11,,74,72
28260,note_on,,61,0,17,,,,,,,,,,,,,,,,13,,54,72
28260,note_on,,61,0,18,,,,,,,,,,,,,,,,15,,54,72
28260,note_on,,61,0,13,,,,,,,,,,,,,,,,8,,54,72
28260,note_on,,0,0,18,,,,,,,,,,,,,,,,15,,57,72
28260,note_on,,0,0,18,,,,,,,,,,,,,,,,15,,62,72
28289,note_on,,29,0,18,,,,,,,,,,,,,,,,15,,54,0
28289,note_on,,0,0,18,,,,,,,,,,,,,,,,15,,62,0
28289,note_on,,0,0,18,,,,,,,,,,,,,,,,15,,57,0
28289,note_on,,29,0,11,,,,,,,,,,,,,,,,6,,69,0
28289,note_on,,29,0,12,,,,,,,,,,,,,,,,7,,62,0
28289,note_on,,0,0,18,,,,,,,,,,,,,,,,15,,69,0
28289,note_on,,29,0,13,,,,,,,,,,,,,,,,8,,54,0
28289,note_on,,29,0,15,,,,,,,,,,,,,,,,11,,74,0
28289,note_on,,29,0,17,,,,,,,,,,,,,,,,13,,54,0
28289,note_on,,29,0,6,,,,,,,,,,,,,,,,1,,54,0
28289,note_on,,29,0,14,,,,,,,,,,,,,,,,10,,81,0
28289,note_on,,29,0,16,,,,,,,,,,,,,,,,12,,62,0
28290,note_on,,1,0,11,,,,,,,,,,,,,,,,6,,69,72
28290,note_on,,1,0,17,,,,,,,,,,,,,,,,13,,54,72
28290,note_on,,1,0,15,,,,,,,,,,,,,,,,11,,74,72
28290,note_on,,0,0,18,,,,,,,,,,,,,,,,15,,57,72
28290,note_on,,1,0,16,,,,,,,,,,,,,,,,12,,62,72
28290,note_on,,1,0,18,,,,,,,,,,,,,,,,15,,54,72
28290,note_on,,1,0,12,,,,,,,,,,,,,,,,7,,62,72
28290,note_on,,1,0,13,,,,,,,,,,,,,,,,8,,54,72
28290,note_on,,1,0,6,,,,,,,,,,,,,,,,1,,54,72
28290,note_on,,0,0,18,,,,,,,,,,,,,,,,15,,69,72
28290,note_on,,1,0,14,,,,,,,,,,,,,,,,10,,81,72
28290,note_on,,0,0,18,,,,,,,,,,,,,,,,15,,62,72
28319,note_on,,29,0,16,,,,,,,,,,,,,,,,12,,62,0
28319,note_on,,29,0,13,,,,,,,,,,,,,,,,8,,54,0
28319,note_on,,29,0,6,,,,,,,,,,,,,,,,1,,54,0
28319,note_on,,29,0,12,,,,,,,,,,,,,,,,7,,62,0
28319,note_on,,29,0,14,,,,,,,,,,,,,,,,10,,81,0
28319,note_on,,29,0,15,,,,,,,,,,,,,,,,11,,74,0
28319,note_on,,0,0,18,,,,,,,,,,,,,,,,15,,62,0
28319,note_on,,29,0,17,,,,,,,,,,,,,,,,13,,54,0
28319,note_on,,29,0,11,,,,,,,,,,,,,,,,6,,69,0
28319,note_on,,29,0,18,,,,,,,,,,,,,,,,15,,54,0
28319,note_on,,0,0,18,,,,,,,,,,,,,,,,15,,69,0
28319,note_on,,0,0,18,,,,,,,,,,,,,,,,15,,57,0
28320,note_on,,1,0,14,,,,,,,,,,,,,,,,10,,83,72
28320,note_on,,1,0,12,,,,,,,,,,,,,,,,7,,67,72
28320,note_on,,1,0,18,,,,,,,,,,,,,,,,15,,55,72
28320,note_on,,0,0,18,,,,,,,,,,,,,,,,15,,67,72
28320,note_on,,0,0,18,,,,,,,,,,,,,,,,15,,62,72
28320,note_on,,0,0,18,,,,,,,,,,,,,,,,15,,59,72
28320,note_on,,1,0,17,,,,,,,,,,,,,,,,13,,55,72
28320,note_on,,1,0,15,,,,,,,,,,,,,,,,11,,79,72
28320,note_on,,1,0,13,,,,,,,,,,,,,,,,8,,55,72
28320,note_on,,1,0,6,,,,,,,,,,,,,,,,1,,55,72
28320,note_on,,1,0,11,,,,,,,,,,,,,,,,6,,71,72
28320,note_on,,1,0,16,,,,,,,,,,,,,,,,12,,62,72
28379,note_on,,59,0,11,,,,,,,,,,,,,,,,6,,71,0
28379,note_on,,59,0,17,,,,,,,,,,,,,,,,13,,55,0
28379,note_on,,59,0,14,,,,,,,,,,,,,,,,10,,83,0
28379,note_on,,59,0,12,,,,,,,,,,,,,,,,7,,67,0
28379,note_on,,59,0,16,,,,,,,,,,,,,,,,12,,62,0
28379,note_on,,59,0,15,,,,,,,,,,,,,,,,11,,79,0
28379,note_on,,0,0,18,,,,,,,,,,,,,,,,15,,67,0
28379,note_on,,0,0,18,,,,,,,,,,,,,,,,15,,62,0
28379,note_on,,0,0,18,,,,,,,,,,,,,,,,15,,59,0
28379,note_on,,59,0,6,,,,,,,,,,,,,,,,1,,55,0
28379,note_on,,59,0,13,,,,,,,,,,,,,,,,8,,55,0
28379,note_on,,59,0,18,,,,,,,,,,,,,,,,15,,55,0
28380,note_on,,0,0,18,,,,,,,,,,,,,,,,15,,66,72
28380,note_on,,0,0,18,,,,,,,,,,,,,,,,15,,57,72
28380,note_on,,1,0,16,,,,,,,,,,,,,,,,12,,62,72
28380,note_on,,0,0,18,,,,,,,,,,,,,,,,15,,62,72
28380,note_on,,1,0,11,,,,,,,,,,,,,,,,6,,69,72
28380,note_on,,1,0,15,,,,,,,,,,,,,,,,11,,78,72
28380,note_on,,1,0,18,,,,,,,,,,,,,,,,15,,50,72
28380,note_on,,1,0,12,,,,,,,,,,,,,,,,7,,66,72
28380,note_on,,1,0,6,,,,,,,,,,,,,,,,1,,50,72
28380,note_on,,1,0,14,,,,,,,,,,,,,,,,10,,81,72
28380,note_on,,1,0,13,,,,,,,,,,,,,,,,8,,50,72
28380,note_on,,1,0,17,,,,,,,,,,,,,,,,13,,50,72
28439,note_on,,0,0,18,,,,,,,,,,,,,,,,15,,66,0
28439,note_on,,1079,0,10,,,,,,,,,,,,,,,,5,,74,0
28439,note_on,,59,0,15,,,,,,,,,,,,,,,,11,,78,0
28439,note_on,,59,0,14,,,,,,,,,,,,,,,,10,,81,0
28439,note_on,,0,0,18,,,,,,,,,,,,,,,,15,,62,0
28439,note_on,,1079,0,7,,,,,,,,,,,,,,,,2,,74,0
28439,note_on,,59,0,6,,,,,,,,,,,,,,,,1,,50,0
28439,note_on,,1079,0,5,,,,,,,,,,,,,,,,0,,74,0
28439,note_on,,59,0,12,,,,,,,,,,,,,,,,7,,66,0
28439,note_on,,59,0,18,,,,,,,,,,,,,,,,15,,50,0
28439,note_on,,59,0,16,,,,,,,,,,,,,,,,12,,62,0
28439,note_on,,59,0,11,,,,,,,,,,,,,,,,6,,69,0
28439,note_on,,59,0,17,,,,,,,,,,,,,,,,13,,50,0
28439,note_on,,0,0,18,,,,,,,,,,,,,,,,15,,57,0
28439,note_on,,59,0,13,,,,,,,,,,,,,,,,8,,50,0
28440,note_on,,1,0,7,,,,,,,,,,,,,,,,2,,74,72
28440,note_on,,1,0,5,,,,,,,,,,,,,,,,0,,74,72
28440,note_on,,1,0,10,,,,,,,,,,,,,,,,5,,74,72
28559,note_on,,119,0,10,,,,,,,,,,,,,,,,5,,74,0
28559,note_on,,119,0,7,,,,,,,,,,,,,,,,2,,74,0
28559,note_on,,119,0,5,,,,,,,,,,,,,,,,0,,74,0
28560,note_on,,1,0,7,,,,,,,,,,,,,,,,2,,76,72
28560,note_on,,1,0,5,,,,,,,,,,,,,,,,0,,76,72
28560,note_on,,1,0,10,,,,,,,,,,,,,,,,5,,76,72
28679,note_on,,119,0,7,,,,,,,,,,,,,,,,2,,76,0
28679,note_on,,119,0,5,,,,,,,,,,,,,,,,0,,76,0
28679,note_on,,119,0,10,,,,,,,,,,,,,,,,5,,76,0
28680,note_on,,1,0,10,,,,,,,,,,,,,,,,5,,76,72
28680,note_on,,1,0,7,,,,,,,,,,,,,,,,2,,76,72
28680,note_on,,1,0,5,,,,,,,,,,,,,,,,0,,76,72
28799,note_on,,119,0,7,,,,,,,,,,,,,,,,2,,76,0
28799,note_on,,119,0,5,,,,,,,,,,,,,,,,0,,76,0
28799,note_on,,119,0,10,,,,,,,,,,,,,,,,5,,76,0
28800,note_on,,1,0,10,,,,,,,,,,,,,,,,5,,76,72
28800,note_on,,1,0,7,,,,,,,,,,,,,,,,2,,76,72
28800,note_on,,1,0,5,,,,,,,,,,,,,,,,0,,76,72
28980,note_on,,0,0,18,,,,,,,,,,,,,,,,15,,64,72
28980,note_on,,0,0,18,,,,,,,,,,,,,,,,15,,71,72
28980,note_on,,541,0,18,,,,,,,,,,,,,,,,15,,56,72
28980,note_on,,541,0,6,,,,,,,,,,,,,,,,1,,56,72
28980,note_on,,541,0,13,,,,,,,,,,,,,,,,8,,56,72
28980,note_on,,541,0,14,,,,,,,,,,,,,,,,10,,83,72
28980,note_on,,541,0,12,,,,,,,,,,,,,,,,7,,59,72
28980,note_on,,541,0,17,,,,,,,,,,,,,,,,13,,56,72
28980,note_on,,541,0,15,,,,,,,,,,,,,,,,11,,76,72
28980,note_on,,541,0,16,,,,,,,,,,,,,,,,12,,64,72
28980,note_on,,0,0,18,,,,,,,,,,,,,,,,15,,59,72
28980,note_on,,541,0,11,,,,,,,,,,,,,,,,6,,64,72
29039,note_on,,59,0,18,,,,,,,,,,,,,,,,15,,56,0
29039,note_on,,0,0,18,,,,,,,,,,,,,,,,15,,71,0
29039,note_on,,59,0,13,,,,,,,,,,,,,,,,8,,56,0
29039,note_on,,59,0,15,,,,,,,,,,,,,,,,11,,76,0
29039,note_on,,59,0,12,,,,,,,,,,,,,,,,7,,59,0
29039,note_on,,0,0,18,,,,,,,,,,,,,,,,15,,64,0
29039,note_on,,0,0,18,,,,,,,,,,,,,,,,15,,59,0
29039,note_on,,59,0,14,,,,,,,,,,,,,,,,10,,83,0
29039,note_on,,59,0,16,,,,,,,,,,,,,,,,12,,64,0
29039,note_on,,59,0,17,,,,,,,,,,,,,,,,13,,56,0
29039,note_on,,59,0,11,,,,,,,,,,,,,,,,6,,64,0
29039,note_on,,59,0,6,,,,,,,,,,,,,,,,1,,56,0
29040,note_on,,1,0,18,,,,,,,,,,,,,,,,15,,57,72
29040,note_on,,1,0,15,,,,,,,,,,,,,,,,11,,81,72
29040,note_on,,1,0,16,,,,,,,,,,,,,,,,12,,64,72
29040,note_on,,1,0,17,,,,,,,,,,,,,,,,13,,57,72
29040,note_on,,0,0,18,,,,,,,,,,,,,,,,15,,69,72
29040,note_on,,1,0,6,,,,,,,,,,,,,,,,1,,57,72
29040,note_on,,1,0,11,,,,,,,,,,,,,,,,6,,69,72
29040,note_on,,1,0,12,,,,,,,,,,,,,,,,7,,61,72
29040,note_on,,1,0,14,,,,,,,,,,,,,,,,10,,85,72
29040,note_on,,1,0,13,,,,,,,,,,,,,,,,8,,57,72
29040,note_on,,0,0,18,,,,,,,,,,,,,,,,15,,64,72
29099,note_on,,59,0,11,,,,,,,,,,,,,,,,6,,69,0
29099,note_on,,59,0,17,,,,,,,,,,,,,,,,13,,57,0
29099,note_on,,59,0,6,,,,,,,,,,,,,,,,1,,57,0
29099,note_on,,59,0,12,,,,,,,,,,,,,,,,7,,61,0
29099,note_on,,59,0,16,,,,,,,,,,,,,,,,12,,64,0
29099,note_on,,59,0,14,,,,,,,,,,,,,,,,10,,85,0
29099,note_on,,59,0,13,,,,,,,,,,,,,,,,8,,57,0
29099,note_on,,59,0,15,,,,,,,,,,,,,,,,11,,81,0
29099,note_on,,0,0,18,,,,,,,,,,,,,,,,15,,64,0
29099,note_on,,0,0,18,,,,,,,,,,,,,,,,15,,69,0
29099,note_on,,59,0,18,,,,,,,,,,,,,,,,15,,57,0
29100,note_on,,1,0,15,,,,,,,,,,,,,,,,11,,80,72
29100,note_on,,1,0,16,,,,,,,,,,,,,,,,12,,64,72
29100,note_on,,1,0,13,,,,,,,,,,,,,,,,8,,52,72
29100,note_on,,1,0,6,,,,,,,,,,,,,,,,1,,52,72
29100,note_on,,1,0,11,,,,,,,,,,,,,,,,6,,68,72
29100,note_on,,0,0,18,,,,,,,,,,,,,,,,15,,59,72
29100,note_on,,0,0,18,,,,,,,,,,,,,,,,15,,68,72
29100,note_on,,1,0,12,,,,,,,,,,,,,,,,7,,59,72
29100,note_on,,1,0,18,,,,,,,,,,,,,,,,15,,52,72
29100,note_on,,1,0,17,,,,,,,,,,,,,,,,13,,52,72
29100,note_on,,0,0,18,,,,,,,,,,,,,,,,15,,64,72
29100,note_on,,1,0,14,,,,,,,,,,,,,,,,10,,83,72
29159,note_on,,59,0,15,,,,,,,,,,,,,,,,11,,80,0
29159,note_on,,59,0,6,,,,,,,,,,,,,,,,1,,52,0
29159,note_on,,59,0,14,,,,,,,,,,,,,,,,10,,83,0
29159,note_on,,59,0,12,,,,,,,,,,,,,,,,7,,59,0
29159,note_on,,0,0,18,,,,,,,,,,,,,,,,15,,59,0
29159,note_on,,0,0,18,,,,,,,,,,,,,,,,15,,64,0
29159,note_on,,0,0,18,,,,,,,,,,,,,,,,15,,68,0
29159,note_on,,59,0,11,,,,,,,,,,,,,,,,6,,68,0
29159,note_on,,59,0,18,,,,,,,,,,,,,,,,15,,52,0
29159,note_on,,59,0,16,,,,,,,,,,,,,,,,12,,64,0
29159,note_on,,59,0,17,,,,,,,,,,,,,,,,13,,52,0
29159,note_on,,59,0,13,,,,,,,,,,,,,,,,8,,52,0
29160,note_on,,1,0,15,,,,,,,,,,,,,,,,11,,71,72
29160,note_on,,1,0,14,,,,,,,,,,,,,,,,10,,76,72
29160,note_on,,1,0,16,,,,,,,,,,,,,,,,12,,68,72
29219,note_on,,59,0,14,,,,,,,,,,,,,,,,10,,76,0
29219,note_on,,59,0,16,,,,,,,,,,,,,,,,12,,68,0
29219,note_on,,59,0,15,,,,,,,,,,,,,,,,11,,71,0
29220,note_on,,1,0,15,,,,,,,,,,,,,,,,11,,80,72
29220,note_on,,61,0,6,,,,,,,,,,,,,,,,1,,56,72
29220,note_on,,61,0,13,,,,,,,,,,,,,,,,8,,56,72
29220,note_on,,1,0,16,,,,,,,,,,,,,,,,12,,64,72
29220,note_on,,61,0,12,,,,,,,,,,,,,,,,7,,59,72
29220,note_on,,0,0,18,,,,,,,,,,,,,,,,15,,59,72
29220,note_on,,1,0,14,,,,,,,,,,,,,,,,10,,83,72
29220,note_on,,0,0,18,,,,,,,,,,,,,,,,15,,64,72
29220,note_on,,0,0,18,,,,,,,,,,,,,,,,15,,71,72
29220,note_on,,61,0,18,,,,,,,,,,,,,,,,15,,56,72
29220,note_on,,61,0,11,,,,,,,,,,,,,,,,6,,64,72
29220,note_on,,61,0,17,,,,,,,,,,,,,,,,13,,56,72
29279,note_on,,0,0,18,,,,,,,,,,,,,,,,15,,59,0
29279,note_on,,59,0,6,,,,,,,,,,,,,,,,1,,56,0
29279,note_on,,59,0,15,,,,,,,,,,,,,,,,11,,80,0
29279,note_on,,0,0,18,,,,,,,,,,,,,,,,15,,64,0
29279,note_on,,59,0,16,,,,,,,,,,,,,,,,12,,64,0
29279,note_on,,59,0,11,,,,,,,,,,,,,,,,6,,64,0
29279,note_on,,0,0,18,,,,,,,,,,,,,,,,15,,71,0
29279,note_on,,59,0,18,,,,,,,,,,,,,,,,15,,56,0
29279,note_on,,59,0,13,,,,,,,,,,,,,,,,8,,56,0
29279,note_on,,59,0,14,,,,,,,,,,,,,,,,10,,83,0
29279,note_on,,59,0,12,,,,,,,,,,,,,,,,7,,59,0
29279,note_on,,59,0,17,,,,,,,,,,,,,,,,13,,56,0
29280,note_on,,0,0,18,,,,,,,,,,,,,,,,15,,61,72
29280,note_on,,1,0,15,,,,,,,,,,,,,,,,11,,81,72
29280,note_on,,1,0,17,,,,,,,,,,,,,,,,13,,57,72
29280,note_on,,1,0,11,,,,,,,,,,,,,,,,6,,69,72
29280,note_on,,1,0,16,,,,,,,,,,,,,,,,12,,64,72
29280,note_on,,0,0,18,,,,,,,,,,,,,,,,15,,69,72
29280,note_on,,1,0,14,,,,,,,,,,,,,,,,10,,85,72
29280,note_on,,1,0,12,,,,,,,,,,,,,,,,7,,61,72
29280,note_on,,1,0,13,,,,,,,,,,,,,,,,8,,57,72
29280,note_on,,1,0,6,,,,,,,,,,,,,,,,1,,57,72
29280,note_on,,0,0,18,,,,,,,,,,,,,,,,15,,64,72
29280,note_on,,1,0,18,,,,,,,,,,,,,,,,15,,57,72
29339,note_on,,59,0,17,,,,,,,,,,,,,,,,13,,57,0
29339,note_on,,59,0,13,,,,,,,,,,,,,,,,8,,57,0
29339,note_on,,59,0,14,,,,,,,,,,,,,,,,10,,85,0
29339,note_on,,0,0,18,,,,,,,,,,,,,,,,15,,61,0
29339,note_on,,0,0,18,,,,,,,,,,,,,,,,15,,64,0
29339,note_on,,0,0,18,,,,,,,,,,,,,,,,15,,69,0
29339,note_on,,59,0,15,,,,,,,,,,,,,,,,11,,81,0
29339,note_on,,59,0,11,,,,,,,,,,,,,,,,6,,69,0
29339,note_on,,59,0,12,,,,,,,,,,,,,,,,7,,61,0
29339,note_on,,59,0,16,,,,,,,,,,,,,,,,12,,64,0
29339,note_on,,59,0,6,,,,,,,,,,,,,,,,1,,57,0
29339,note_on,,59,0,18,,,,,,,,,,,,,,,,15,,57,0
29340,note_on,,0,0,18,,,,,,,,,,,,,,,,15,,68,72
29340,note_on,,0,0,18,,,,,,,,,,,,,,,,15,,59,72
29340,note_on,,1,0,18,,,,,,,,,,,,,,,,15,,52,72
29340,note_on,,1,0,15,,,,,,,,,,,,,,,,11,,80,72
29340,note_on,,1,0,16,,,,,,,,,,,,,,,,12,,64,72
29340,note_on,,0,0,18,,,,,,,,,,,,,,,,15,,64,72
29340,note_on,,1,0,6,,,,,,,,,,,,,,,,1,,52,72
29340,note_on,,1,0,17,,,,,,,,,,,,,,,,13,,52,72
29340,note_on,,1,0,12,,,,,,,,,,,,,,,,7,,59,72
29340,note_on,,1,0,11,,,,,,,,,,,,,,,,6,,68,72
29340,note_on,,1,0,13,,,,,,,,,,,,,,,,8,,52,72
29340,note_on,,1,0,14,,,,,,,,,,,,,,,,10,,83,72
29399,note_on,,59,0,18,,,,,,,,,,,,,,,,15,,52,0
29399,note_on,,0,0,18,,,,,,,,,,,,,,,,15,,68,0
29399,note_on,,0,0,18,,,,,,,,,,,,,,,,15,,64,0
29399,note_on,,0,0,18,,,,,,,,,,,,,,,,15,,59,0
29399,note_on,,59,0,17,,,,,,,,,,,,,,,,13,,52,0
29399,note_on,,59,0,6,,,,,,,,,,,,,,,,1,,52,0
29399,note_on,,59,0,14,,,,,,,,,,,,,,,,10,,83,0
29399,note_on,,59,0,15,,,,,,,,,,,,,,,,11,,80,0
29399,note_on,,59,0,11,,,,,,,,,,,,,,,,6,,68,0
29399,note_on,,59,0,12,,,,,,,,,,,,,,,,7,,59,0
29399,note_on,,59,0,16,,,,,,,,,,,,,,,,12,,64,0
29399,note_on,,59,0,13,,,,,,,,,,,,,,,,8,,52,0
29400,note_on,,1,0,15,,,,,,,,,,,,,,,,11,,76,72
29400,note_on,,1,0,16,,,,,,,,,,,,,,,,12,,68,72
29400,note_on,,1,0,14,,,,,,,,,,,,,,,,10,,76,72
29459,note_on,,59,0,16,,,,,,,,,,,,,,,,12,,68,0
29459,note_on,,59,0,14,,,,,,,,,,,,,,,,10,,76,0
29459,note_on,,59,0,15,,,,,,,,,,,,,,,,11,,76,0
29460,note_on,,61,0,6,,,,,,,,,,,,,,,,1,,56,72
29460,note_on,,1,0,16,,,,,,,,,,,,,,,,12,,64,72
29460,note_on,,61,0,17,,,,,,,,,,,,,,,,13,,56,72
29460,note_on,,0,0,18,,,,,,,,,,,,,,,,15,,59,72
29460,note_on,,0,0,18,,,,,,,,,,,,,,,,15,,64,72
29460,note_on,,0,0,18,,,,,,,,,,,,,,,,15,,71,72
29460,note_on,,61,0,18,,,,,,,,,,,,,,,,15,,56,72
29460,note_on,,61,0,11,,,,,,,,,,,,,,,,6,,64,72
29460,note_on,,1,0,14,,,,,,,,,,,,,,,,10,,83,72
29460,note_on,,61,0,13,,,,,,,,,,,,,,,,8,,56,72
29460,note_on,,61,0,12,,,,,,,,,,,,,,,,7,,59,72
29460,note_on,,1,0,15,,,,,,,,,,,,,,,,11,,80,72
29489,note_on,,29,0,15,,,,,,,,,,,,,,,,11,,80,0
29489,note_on,,0,0,18,,,,,,,,,,,,,,,,15,,64,0
29489,note_on,,0,0,18,,,,,,,,,,,,,,,,15,,59,0
29489,note_on,,29,0,11,,,,,,,,,,,,,,,,6,,64,0
29489,note_on,,29,0,12,,,,,,,,,,,,,,,,7,,59,0
29489,note_on,,0,0,18,,,,,,,,,,,,,,,,15,,71,0
29489,note_on,,29,0,16,,,,,,,,,,,,,,,,12,,64,0
29489,note_on,,29,0,13,,,,,,,,,,,,,,,,8,,56,0
29489,note_on,,29,0,17,,,,,,,,,,,,,,,,13,,56,0
29489,note_on,,29,0,14,,,,,,,,,,,,,,,,10,,83,0
29489,note_on,,29,0,6,,,,,,,,,,,,,,,,1,,56,0
29489,note_on,,29,0,18,,,,,,,,,,,,,,,,15,,56,0
29490,note_on,,1,0,12,,,,,,,,,,,,,,,,7,,59,72
29490,note_on,,1,0,17,,,,,,,,,,,,,,,,13,,56,72
29490,note_on,,1,0,14,,,,,,,,,,,,,,,,10,,83,72
29490,note_on,,1,0,11,,,,,,,,,,,,,,,,6,,64,72
29490,note_on,,0,0,18,,,,,,,,,,,,,,,,15,,59,72
29490,note_on,,0,0,18,,,,,,,,,,,,,,,,15,,64,72
29490,note_on,,0,0,18,,,,,,,,,,,,,,,,15,,71,72
29490,note_on,,1,0,18,,,,,,,,,,,,,,,,15,,56,72
29490,note_on,,1,0,6,,,,,,,,,,,,,,,,1,,56,72
29490,note_on,,1,0,13,,,,,,,,,,,,,,,,8,,56,72
29490,note_on,,1,0,16,,,,,,,,,,,,,,,,12,,64,72
29490,note_on,,1,0,15,,,,,,,,,,,,,,,,11,,80,72
29519,note_on,,29,0,13,,,,,,,,,,,,,,,,8,,56,0
29519,note_on,,29,0,14,,,,,,,,,,,,,,,,10,,83,0
29519,note_on,,29,0,11,,,,,,,,,,,,,,,,6,,64,0
29519,note_on,,0,0,18,,,,,,,,,,,,,,,,15,,59,0
29519,note_on,,0,0,18,,,,,,,,,,,,,,,,15,,64,0
29519,note_on,,29,0,6,,,,,,,,,,,,,,,,1,,56,0
29519,note_on,,0,0,18,,,,,,,,,,,,,,,,15,,71,0
29519,note_on,,29,0,17,,,,,,,,,,,,,,,,13,,56,0
29519,note_on,,29,0,16,,,,,,,,,,,,,,,,12,,64,0
29519,note_on,,29,0,18,,,,,,,,,,,,,,,,15,,56,0
29519,note_on,,29,0,15,,,,,,,,,,,,,,,,11,,80,0
29519,note_on,,29,0,12,,,,,,,,,,,,,,,,7,,59,0
29520,note_on,,0,0,18,,,,,,,,,,,,,,,,15,,69,72
29520,note_on,,1,0,18,,,,,,,,,,,,,,,,15,,57,72
29520,note_on,,1,0,12,,,,,,,,,,,,,,,,7,,61,72
29520,note_on,,1,0,15,,,,,,,,,,,,,,,,11,,81,72
29520,note_on,,0,0,18,,,,,,,,,,,,,,,,15,,64,72
29520,note_on,,1,0,13,,,,,,,,,,,,,,,,8,,57,72
29520,note_on,,1,0,17,,,,,,,,,,,,,,,,13,,57,72
29520,note_on,,1,0,6,,,,,,,,,,,,,,,,1,,57,72
29520,note_on,,1,0,16,,,,,,,,,,,,,,,,12,,64,72
29520,note_on,,1,0,11,,,,,,,,,,,,,,,,6,,69,72
29520,note_on,,1,0,14,,,,,,,,,,,,,,,,10,,85,72
29520,note_on,,0,0,18,,,,,,,,,,,,,,,,15,,61,72
29579,note_on,,0,0,18,,,,,,,,,,,,,,,,15,,64,0
29579,note_on,,0,0,18,,,,,,,,,,,,,,,,15,,69,0
29579,note_on,,59,0,18,,,,,,,,,,,,,,,,15,,57,0
29579,note_on,,59,0,17,,,,,,,,,,,,,,,,13,,57,0
29579,note_on,,59,0,14,,,,,,,,,,,,,,,,10,,85,0
29579,note_on,,0,0,18,,,,,,,,,,,,,,,,15,,61,0
29579,note_on,,59,0,15,,,,,,,,,,,,,,,,11,,81,0
29579,note_on,,59,0,11,,,,,,,,,,,,,,,,6,,69,0
29579,note_on,,59,0,13,,,,,,,,,,,,,,,,8,,57,0
29579,note_on,,59,0,6,,,,,,,,,,,,,,,,1,,57,0
29579,note_on,,59,0,16,,,,,,,,,,,,,,,,12,,64,0
29579,note_on,,59,0,12,,,,,,,,,,,,,,,,7,,61,0
29580,note_on,,1,0,12,,,,,,,,,,,,,,,,7,,59,72
29580,note_on,,1,0,17,,,,,,,,,,,,,,,,13,,52,72
29580,note_on,,1,0,15,,,,,,,,,,,,,,,,11,,80,72
29580,note_on,,1,0,16,,,,,,,,,,,,,,,,12,,64,72
29580,note_on,,1,0,18,,,,,,,,,,,,,,,,15,,52,72
29580,note_on,,0,0,18,,,,,,,,,,,,,,,,15,,64,72
29580,note_on,,0,0,18,,,,,,,,,,,,,,,,15,,59,72
29580,note_on,,1,0,13,,,,,,,,,,,,,,,,8,,52,72
29580,note_on,,0,0,18,,,,,,,,,,,,,,,,15,,68,72
29580,note_on,,1,0,14,,,,,,,,,,,,,,,,10,,83,72
29580,note_on,,1,0,6,,,,,,,,,,,,,,,,1,,52,72
29580,note_on,,1,0,11,,,,,,,,,,,,,,,,6,,68,72
29639,note_on,,0,0,18,,,,,,,,,,,,,,,,15,,68,0
29639,note_on,,59,0,18,,,,,,,,,,,,,,,,15,,52,0
29639,note_on,,59,0,16,,,,,,,,,,,,,,,,12,,64,0
29639,note_on,,59,0,6,,,,,,,,,,,,,,,,1,,52,0
29639,note_on,,0,0,18,,,,,,,,,,,,,,,,15,,64,0
29639,note_on,,59,0,11,,,,,,,,,,,,,,,,6,,68,0
29639,note_on,,59,0,17,,,,,,,,,,,,,,,,13,,52,0
29639,note_on,,59,0,12,,,,,,,,,,,,,,,,7,,59,0
29639,note_on,,0,0,18,,,,,,,,,,,,,,,,15,,59,0
29639,note_on,,59,0,14,,,,,,,,,,,,,,,,10,,83,0
29639,note_on,,59,0,15,,,,,,,,,,,,,,,,11,,80,0
29639,note_on,,59,0,13,,,,,,,,,,,,,,,,8,,52,0
29700,note_on,,61,0,11,,,,,,,,,,,,,,,,6,,64,72
29700,note_on,,61,0,6,,,,,,,,,,,,,,,,1,,56,72
29700,note_on,,61,0,12,,,,,,,,,,,,,,,,7,,59,72
29700,note_on,,61,0,14,,,,,,,,,,,,,,,,10,,83,72
29700,note_on,,61,0,15,,,,,,,,,,,,,,,,11,,80,72
29700,note_on,,61,0,17,,,,,,,,,,,,,,,,13,,56,72
29700,note_on,,61,0,16,,,,,,,,,,,,,,,,12,,64,72
29700,note_on,,0,0,18,,,,,,,,,,,,,,,,15,,59,72
29700,note_on,,0,0,18,,,,,,,,,,,,,,,,15,,64,72
29700,note_on,,61,0,13,,,,,,,,,,,,,,,,8,,56,72
29700,note_on,,0,0,18,,,,,,,,,,,,,,,,15,,71,72
29700,note_on,,61,0,18,,,,,,,,,,,,,,,,15,,56,72
29729,note_on,,29,0,6,,,,,,,,,,,,,,,,1,,56,0
29729,note_on,,0,0,18,,,,,,,,,,,,,,,,15,,59,0
29729,note_on,,0,0,18,,,,,,,,,,,,,,,,15,,64,0
29729,note_on,,29,0,17,,,,,,,,,,,,,,,,13,,56,0
29729,note_on,,29,0,18,,,,,,,,,,,,,,,,15,,56,0
29729,note_on,,29,0,13,,,,,,,,,,,,,,,,8,,56,0
29729,note_on,,29,0,16,,,,,,,,,,,,,,,,12,,64,0
29729,note_on,,29,0,14,,,,,,,,,,,,,,,,10,,83,0
29729,note_on,,29,0,15,,,,,,,,,,,,,,,,11,,80,0
29729,note_on,,29,0,12,,,,,,,,,,,,,,,,7,,59,0
29729,note_on,,0,0,18,,,,,,,,,,,,,,,,15,,71,0
29729,note_on,,29,0,11,,,,,,,,,,,,,,,,6,,64,0
29730,note_on,,1,0,6,,,,,,,,,,,,,,,,1,,56,72
29730,note_on,,0,0,18,,,,,,,,,,,,,,,,15,,71,72
29730,note_on,,0,0,18,,,,,,,,,,,,,,,,15,,64,72
29730,note_on,,1,0,18,,,,,,,,,,,,,,,,15,,56,72
29730,note_on,,0,0,18,,,,,,,,,,,,,,,,15,,59,72
29730,note_on,,1,0,14,,,,,,,,,,,,,,,,10,,83,72
29730,note_on,,1,0,11,,,,,,,,,,,,,,,,6,,64,72
29730,note_on,,1,0,13,,,,,,,,,,,,,,,,8,,56,72
29730,note_on,,1,0,15,,,,,,,,,,,,,,,,11,,80,72
29730,note_on,,1,0,12,,,,,,,,,,,,,,,,7,,59,72
29730,note_on,,1,0,16,,,,,,,,,,,,,,,,12,,64,72
29730,note_on,,1,0,17,,,,,,,,,,,,,,,,13,,56,72
29759,note_on,,0,0,18,,,,,,,,,,,,,,,,15,,71,0
29759,note_on,,29,0,12,,,,,,,,,,,,,,,,7,,59,0
29759,note_on,,29,0,6,,,,,,,,,,,,,,,,1,,56,0
29759,note_on,,0,0,18,,,,,,,,,,,,,,,,15,,64,0
29759,note_on,,0,0,18,,,,,,,,,,,,,,,,15,,59,0
29759,note_on,,29,0,13,,,,,,,,,,,,,,,,8,,56,0
29759,note_on,,29,0,18,,,,,,,,,,,,,,,,15,,56,0
29759,note_on,,29,0,11,,,,,,,,,,,,,,,,6,,64,0
29759,note_on,,29,0,16,,,,,,,,,,,,,,,,12,,64,0
29759,note_on,,29,0,14,,,,,,,,,,,,,,,,10,,83,0
29759,note_on,,29,0,17,,,,,,,,,,,,,,,,13,,56,0
29759,note_on,,29,0,15,,,,,,,,,,,,,,,,11,,80,0
29760,note_on,,1,0,13,,,,,,,,,,,,,,,,8,,57,72
29760,note_on,,0,0,18,,,,,,,,,,,,,,,,15,,64,72
29760,note_on,,0,0,18,,,,,,,,,,,,,,,,15,,69,72
29760,note_on,,1,0,15,,,,,,,,,,,,,,,,11,,81,72
29760,note_on,,0,0,18,,,,,,,,,,,,,,,,15,,61,72
29760,note_on,,1,0,18,,,,,,,,,,,,,,,,15,,57,72
29760,note_on,,1,0,6,,,,,,,,,,,,,,,,1,,57,72
29760,note_on,,1,0,14,,,,,,,,,,,,,,,,10,,85,72
29760,note_on,,1,0,12,,,,,,,,,,,,,,,,7,,61,72
29760,note_on,,1,0,17,,,,,,,,,,,,,,,,13,,57,72
29760,note_on,,1,0,16,,,,,,,,,,,,,,,,12,,64,72
29760,note_on,,1,0,11,,,,,,,,,,,,,,,,6,,69,72
29819,note_on,,59,0,18,,,,,,,,,,,,,,,,15,,57,0
29819,note_on,,0,0,18,,,,,,,,,,,,,,,,15,,69,0
29819,note_on,,59,0,17,,,,,,,,,,,,,,,,13,,57,0
29819,note_on,,0,0,18,,,,,,,,,,,,,,,,15,,61,0
29819,note_on,,59,0,6,,,,,,,,,,,,,,,,1,,57,0
29819,note_on,,0,0,18,,,,,,,,,,,,,,,,15,,64,0
29819,note_on,,59,0,14,,,,,,,,,,,,,,,,10,,85,0
29819,note_on,,59,0,16,,,,,,,,,,,,,,,,12,,64,0
29819,note_on,,59,0,15,,,,,,,,,,,,,,,,11,,81,0
29819,note_on,,59,0,11,,,,,,,,,,,,,,,,6,,69,0
29819,note_on,,59,0,12,,,,,,,,,,,,,,,,7,,61,0
29819,note_on,,59,0,13,,,,,,,,,,,,,,,,8,,57,0
29820,note_on,,1,0,12,,,,,,,,,,,,,,,,7,,59,72
29820,note_on,,1,0,17,,,,,,,,,,,,,,,,13,,52,72
29820,note_on,,1,0,11,,,,,,,,,,,,,,,,6,,68,72
29820,note_on,,1,0,13,,,,,,,,,,,,,,,,8,,52,72
29820,note_on,,1,0,18,,,,,,,,,,,,,,,,15,,52,72
29820,note_on,,0,0,18,,,,,,,,,,,,,,,,15,,68,72
29820,note_on,,0,0,18,,,,,,,,,,,,,,,,15,,64,72
29820,note_on,,0,0,18,,,,,,,,,,,,,,,,15,,59,72
29820,note_on,,1,0,6,,,,,,,,,,,,,,,,1,,52,72
29820,note_on,,1,0,15,,,,,,,,,,,,,,,,11,,80,72
29820,note_on,,1,0,14,,,,,,,,,,,,,,,,10,,83,72
29820,note_on,,1,0,16,,,,,,,,,,,,,,,,12,,64,72
29879,note_on,,59,0,11,,,,,,,,,,,,,,,,6,,68,0
29879,note_on,,0,0,18,,,,,,,,,,,,,,,,15,,68,0
29879,note_on,,59,0,13,,,,,,,,,,,,,,,,8,,52,0
29879,note_on,,59,0,12,,,,,,,,,,,,,,,,7,,59,0
29879,note_on,,59,0,6,,,,,,,,,,,,,,,,1,,52,0
29879,note_on,,59,0,14,,,,,,,,,,,,,,,,10,,83,0
29879,note_on,,0,0,18,,,,,,,,,,,,,,,,15,,59,0
29879,note_on,,0,0,18,,,,,,,,,,,,,,,,15,,64,0
29879,note_on,,59,0,15,,,,,,,,,,,,,,,,11,,80,0
29879,note_on,,59,0,18,,,,,,,,,,,,,,,,15,,52,0
29879,note_on,,59,0,17,,,,,,,,,,,,,,,,13,,52,0
29879,note_on,,59,0,16,,,,,,,,,,,,,,,,12,,64,0
29999,note_on,,1199,0,7,,,,,,,,,,,,,,,,2,,76,0
29999,note_on,,1199,0,10,,,,,,,,,,,,,,,,5,,76,0
29999,note_on,,1199,0,5,,,,,,,,,,,,,,,,0,,76,0
30000,note_on,,1,0,7,,,,,,,,,,,,,,,,2,,78,72
30000,note_on,,1,0,5,,,,,,,,,,,,,,,,0,,78,72
30000,note_on,,1,0,10,,,,,,,,,,,,,,,,5,,78,72
30119,note_on,,119,0,7,,,,,,,,,,,,,,,,2,,78,0
30119,note_on,,119,0,5,,,,,,,,,,,,,,,,0,,78,0
30119,note_on,,119,0,10,,,,,,,,,,,,,,,,5,,78,0
30120,note_on,,1,0,7,,,,,,,,,,,,,,,,2,,78,72
30120,note_on,,1,0,5,,,,,,,,,,,,,,,,0,,78,72
30120,note_on,,1,0,10,,,,,,,,,,,,,,,,5,,78,72
30239,note_on,,119,0,5,,,,,,,,,,,,,,,,0,,78,0
30239,note_on,,119,0,7,,,,,,,,,,,,,,,,2,,78,0
30239,note_on,,119,0,10,,,,,,,,,,,,,,,,5,,78,0
30240,note_on,,1,0,7,,,,,,,,,,,,,,,,2,,78,72
30240,note_on,,1,0,5,,,,,,,,,,,,,,,,0,,78,72
30240,note_on,,1,0,10,,,,,,,,,,,,,,,,5,,78,72
30420,note_on,,541,0,17,,,,,,,,,,,,,,,,13,,58,72
30420,note_on,,541,0,15,,,,,,,,,,,,,,,,11,,78,72
30420,note_on,,541,0,6,,,,,,,,,,,,,,,,1,,58,72
30420,note_on,,541,0,16,,,,,,,,,,,,,,,,12,,66,72
30420,note_on,,541,0,11,,,,,,,,,,,,,,,,6,,66,72
30420,note_on,,541,0,12,,,,,,,,,,,,,,,,7,,61,72
30420,note_on,,541,0,18,,,,,,,,,,,,,,,,15,,58,72
30420,note_on,,0,0,18,,,,,,,,,,,,,,,,15,,73,72
30420,note_on,,541,0,13,,,,,,,,,,,,,,,,8,,58,72
30420,note_on,,0,0,18,,,,,,,,,,,,,,,,15,,61,72
30420,note_on,,541,0,14,,,,,,,,,,,,,,,,10,,85,72
30420,note_on,,0,0,18,,,,,,,,,,,,,,,,15,,66,72
30479,note_on,,59,0,17,,,,,,,,,,,,,,,,13,,58,0
30479,note_on,,59,0,13,,,,,,,,,,,,,,,,8,,58,0
30479,note_on,,0,0,18,,,,,,,,,,,,,,,,15,,61,0
30479,note_on,,0,0,18,,,,,,,,,,,,,,,,15,,66,0
30479,note_on,,59,0,15,,,,,,,,,,,,,,,,11,,78,0
30479,note_on,,59,0,14,,,,,,,,,,,,,,,,10,,85,0
30479,note_on,,59,0,6,,,,,,,,,,,,,,,,1,,58,0
30479,note_on,,59,0,11,,,,,,,,,,,,,,,,6,,66,0
30479,note_on,,0,0,18,,,,,,,,,,,,,,,,15,,73,0
30479,note_on,,59,0,12,,,,,,,,,,,,,,,,7,,61,0
30479,note_on,,59,0,18,,,,,,,,,,,,,,,,15,,58,0
30479,note_on,,59,0,16,,,,,,,,,,,,,,,,12,,66,0
30480,note_on,,1,0,14,,,,,,,,,,,,,,,,10,,86,72
30480,note_on,,0,0,18,,,,,,,,,,,,,,,,15,,66,72
30480,note_on,,1,0,15,,,,,,,,,,,,,,,,11,,83,72
30480,note_on,,1,0,13,,,,,,,,,,,,,,,,8,,59,72
30480,note_on,,1,0,18,,,,,,,,,,,,,,,,15,,59,72
30480,note_on,,1,0,12,,,,,,,,,,,,,,,,7,,62,72
30480,note_on,,1,0,17,,,,,,,,,,,,,,,,13,,59,72
30480,note_on,,0,0,18,,,,,,,,,,,,,,,,15,,62,72
30480,note_on,,1,0,11,,,,,,,,,,,,,,,,6,,71,72
30480,note_on,,0,0,18,,,,,,,,,,,,,,,,15,,71,72
30480,note_on,,1,0,16,,,,,,,,,,,,,,,,12,,66,72
30480,note_on,,1,0,6,,,,,,,,,,,,,,,,1,,59,72
30539,note_on,,59,0,14,,,,,,,,,,,,,,,,10,,86,0
30539,note_on,,59,0,11,,,,,,,,,,,,,,,,6,,71,0
30539,note_on,,59,0,17,,,,,,,,,,,,,,,,13,,59,0
30539,note_on,,59,0,12,,,,,,,,,,,,,,,,7,,62,0
30539,note_on,,59,0,15,,,,,,,,,,,,,,,,11,,83,0
30539,note_on,,59,0,16,,,,,,,,,,,,,,,,12,,66,0
30539,note_on,,0,0,18,,,,,,,,,,,,,,,,15,,62,0
30539,note_on,,0,0,18,,,,,,,,,,,,,,,,15,,66,0
30539,note_on,,59,0,13,,,,,,,,,,,,,,,,8,,59,0
30539,note_on,,0,0,18,,,,,,,,,,,,,,,,15,,71,0
30539,note_on,,59,0,18,,,,,,,,,,,,,,,,15,,59,0
30539,note_on,,59,0,6,,,,,,,,,,,,,,,,1,,59,0
30540,note_on,,1,0,6,,,,,,,,,,,,,,,,1,,54,72
30540,note_on,,1,0,11,,,,,,,,,,,,,,,,6,,70,72
30540,note_on,,1,0,16,,,,,,,,,,,,,,,,12,,66,72
30540,note_on,,1,0,14,,,,,,,,,,,,,,,,10,,85,72
30540,note_on,,1,0,13,,,,,,,,,,,,,,,,8,,54,72
30540,note_on,,1,0,15,,,,,,,,,,,,,,,,11,,82,72
30540,note_on,,1,0,12,,,,,,,,,,,,,,,,7,,61,72
30540,note_on,,1,0,18,,,,,,,,,,,,,,,,15,,54,72
30540,note_on,,0,0,18,,,,,,,,,,,,,,,,15,,70,72
30540,note_on,,0,0,18,,,,,,,,,,,,,,,,15,,66,72
30540,note_on,,1,0,17,,,,,,,,,,,,,,,,13,,54,72
30540,note_on,,0,0,18,,,,,,,,,,,,,,,,15,,61,72
30599,note_on,,59,0,18,,,,,,,,,,,,,,,,15,,54,0
30599,note_on,,59,0,16,,,,,,,,,,,,,,,,12,,66,0
30599,note_on,,59,0,11,,,,,,,,,,,,,,,,6,,70,0
30599,note_on,,0,0,18,,,,,,,,,,,,,,,,15,,70,0
30599,note_on,,59,0,17,,,,,,,,,,,,,,,,13,,54,0
30599,note_on,,59,0,6,,,,,,,,,,,,,,,,1,,54,0
30599,note_on,,59,0,13,,,,,,,,,,,,,,,,8,,54,0
30599,note_on,,59,0,14,,,,,,,,,,,,,,,,10,,85,0
30599,note_on,,0,0,18,,,,,,,,,,,,,,,,15,,66,0
30599,note_on,,0,0,18,,,,,,,,,,,,,,,,15,,61,0
30599,note_on,,59,0,12,,,,,,,,,,,,,,,,7,,61,0
30599,note_on,,59,0,15,,,,,,,,,,,,,,,,11,,82,0
30600,note_on,,1,0,15,,,,,,,,,,,,,,,,11,,73,72
30600,note_on,,1,0,14,,,,,,,,,,,,,,,,10,,78,72
30600,note_on,,1,0,16,,,,,,,,,,,,,,,,12,,70,72
30659,note_on,,59,0,15,,,,,,,,,,,,,,,,11,,73,0
30659,note_on,,59,0,14,,,,,,,,,,,,,,,,10,,78,0
30659,note_on,,59,0,16,,,,,,,,,,,,,,,,12,,70,0
30660,note_on,,61,0,18,,,,,,,,,,,,,,,,15,,58,72
30660,note_on,,61,0,17,,,,,,,,,,,,,,,,13,,58,72
30660,note_on,,1,0,15,,,,,,,,,,,,,,,,11,,78,72
30660,note_on,,1,0,16,,,,,,,,,,,,,,,,12,,66,72
30660,note_on,,61,0,13,,,,,,,,,,,,,,,,8,,58,72
30660,note_on,,61,0,6,,,,,,,,,,,,,,,,1,,58,72
30660,note_on,,61,0,12,,,,,,,,,,,,,,,,7,,61,72
30660,note_on,,0,0,18,,,,,,,,,,,,,,,,15,,61,72
30660,note_on,,0,0,18,,,,,,,,,,,,,,,,15,,66,72
30660,note_on,,0,0,18,,,,,,,,,,,,,,,,15,,73,72
30660,note_on,,1,0,14,,,,,,,,,,,,,,,,10,,85,72
30660,note_on,,61,0,11,,,,,,,,,,,,,,,,6,,66,72
30719,note_on,,59,0,12,,,,,,,,,,,,,,,,7,,61,0
30719,note_on,,59,0,15,,,,,,,,,,,,,,,,11,,78,0
30719,note_on,,59,0,11,,,,,,,,,,,,,,,,6,,66,0
30719,note_on,,59,0,14,,,,,,,,,,,,,,,,10,,85,0
30719,note_on,,59,0,6,,,,,,,,,,,,,,,,1,,58,0
30719,note_on,,0,0,18,,,,,,,,,,,,,,,,15,,61,0
30719,note_on,,0,0,18,,,,,,,,,,,,,,,,15,,66,0
30719,note_on,,0,0,18,,,,,,,,,,,,,,,,15,,73,0
30719,note_on,,59,0,18,,,,,,,,,,,,,,,,15,,58,0
30719,note_on,,59,0,13,,,,,,,,,,,,,,,,8,,58,0
30719,note_on,,59,0,17,,,,,,,,,,,,,,,,13,,58,0
30719,note_on,,59,0,16,,,,,,,,,,,,,,,,12,,66,0
30720,note_on,,0,0,18,,,,,,,,,,,,,,,,15,,71,72
30720,note_on,,0,0,18,,,,,,,,,,,,,,,,15,,66,72
30720,note_on,,0,0,18,,,,,,,,,,,,,,,,15,,62,72
30720,note_on,,1,0,16,,,,,,,,,,,,,,,,12,,66,72
30720,note_on,,1,0,12,,,,,,,,,,,,,,,,7,,62,72
30720,note_on,,1,0,11,,,,,,,,,,,,,,,,6,,71,72
30720,note_on,,1,0,14,,,,,,,,,,,,,,,,10,,86,72
30720,note_on,,1,0,15,,,,,,,,,,,,,,,,11,,83,72
30720,note_on,,1,0,18,,,,,,,,,,,,,,,,15,,59,72
30720,note_on,,1,0,6,,,,,,,,,,,,,,,,1,,59,72
30720,note_on,,1,0,13,,,,,,,,,,,,,,,,8,,59,72
30720,note_on,,1,0,17,,,,,,,,,,,,,,,,13,,59,72
30779,note_on,,59,0,14,,,,,,,,,,,,,,,,10,,86,0
30779,note_on,,59,0,18,,,,,,,,,,,,,,,,15,,59,0
30779,note_on,,0,0,18,,,,,,,,,,,,,,,,15,,71,0
30779,note_on,,0,0,18,,,,,,,,,,,,,,,,15,,66,0
30779,note_on,,0,0,18,,,,,,,,,,,,,,,,15,,62,0
30779,note_on,,59,0,16,,,,,,,,,,,,,,,,12,,66,0
30779,note_on,,59,0,12,,,,,,,,,,,,,,,,7,,62,0
30779,note_on,,59,0,11,,,,,,,,,,,,,,,,6,,71,0
30779,note_on,,59,0,15,,,,,,,,,,,,,,,,11,,83,0
30779,note_on,,59,0,17,,,,,,,,,,,,,,,,13,,59,0
30779,note_on,,59,0,6,,,,,,,,,,,,,,,,1,,59,0
30779,note_on,,59,0,13,,,,,,,,,,,,,,,,8,,59,0
30780,note_on,,1,0,14,,,,,,,,,,,,,,,,10,,85,72
30780,note_on,,1,0,11,,,,,,,,,,,,,,,,6,,70,72
30780,note_on,,1,0,12,,,,,,,,,,,,,,,,7,,61,72
30780,note_on,,1,0,17,,,,,,,,,,,,,,,,13,,54,72
30780,note_on,,1,0,16,,,,,,,,,,,,,,,,12,,66,72
30780,note_on,,1,0,6,,,,,,,,,,,,,,,,1,,54,72
30780,note_on,,1,0,15,,,,,,,,,,,,,,,,11,,82,72
30780,note_on,,1,0,13,,,,,,,,,,,,,,,,8,,54,72
30780,note_on,,1,0,18,,,,,,,,,,,,,,,,15,,54,72
30780,note_on,,0,0,18,,,,,,,,,,,,,,,,15,,70,72
30780,note_on,,0,0,18,,,,,,,,,,,,,,,,15,,66,72
30780,note_on,,0,0,18,,,,,,,,,,,,,,,,15,,61,72
30839,note_on,,59,0,12,,,,,,,,,,,,,,,,7,,61,0
30839,note_on,,0,0,18,,,,,,,,,,,,,,,,15,,66,0
30839,note_on,,59,0,17,,,,,,,,,,,,,,,,13,,54,0
30839,note_on,,59,0,14,,,,,,,,,,,,,,,,10,,85,0
30839,note_on,,59,0,6,,,,,,,,,,,,,,,,1,,54,0
30839,note_on,,59,0,11,,,,,,,,,,,,,,,,6,,70,0
30839,note_on,,59,0,18,,,,,,,,,,,,,,,,15,,54,0
30839,note_on,,59,0,15,,,,,,,,,,,,,,,,11,,82,0
30839,note_on,,0,0,18,,,,,,,,,,,,,,,,15,,61,0
30839,note_on,,59,0,13,,,,,,,,,,,,,,,,8,,54,0
30839,note_on,,59,0,16,,,,,,,,,,,,,,,,12,,66,0
30839,note_on,,0,0,18,,,,,,,,,,,,,,,,15,,70,0
30840,note_on,,1,0,14,,,,,,,,,,,,,,,,10,,78,72
30840,note_on,,1,0,16,,,,,,,,,,,,,,,,12,,70,72
30840,note_on,,1,0,15,,,,,,,,,,,,,,,,11,,73,72
30899,note_on,,59,0,14,,,,,,,,,,,,,,,,10,,78,0
30899,note_on,,59,0,16,,,,,,,,,,,,,,,,12,,70,0
30899,note_on,,59,0,15,,,,,,,,,,,,,,,,11,,73,0
30900,note_on,,61,0,17,,,,,,,,,,,,,,,,13,,58,72
30900,note_on,,61,0,12,,,,,,,,,,,,,,,,7,,61,72
30900,note_on,,61,0,6,,,,,,,,,,,,,,,,1,,58,72
30900,note_on,,61,0,13,,,,,,,,,,,,,,,,8,,58,72
30900,note_on,,61,0,11,,,,,,,,,,,,,,,,6,,66,72
30900,note_on,,61,0,18,,,,,,,,,,,,,,,,15,,58,72
30900,note_on,,0,0,18,,,,,,,,,,,,,,,,15,,73,72
30900,note_on,,1,0,16,,,,,,,,,,,,,,,,12,,66,72
30900,note_on,,1,0,14,,,,,,,,,,,,,,,,10,,85,72
30900,note_on,,0,0,18,,,,,,,,,,,,,,,,15,,66,72
30900,note_on,,0,0,18,,,,,,,,,,,,,,,,15,,61,72
30900,note_on,,1,0,15,,,,,,,,,,,,,,,,11,,78,72
30929,note_on,,29,0,11,,,,,,,,,,,,,,,,6,,66,0
30929,note_on,,29,0,16,,,,,,,,,,,,,,,,12,,66,0
30929,note_on,,29,0,6,,,,,,,,,,,,,,,,1,,58,0
30929,note_on,,29,0,18,,,,,,,,,,,,,,,,15,,58,0
30929,note_on,,0,0,18,,,,,,,,,,,,,,,,15,,66,0
30929,note_on,,0,0,18,,,,,,,,,,,,,,,,15,,61,0
30929,note_on,,29,0,13,,,,,,,,,,,,,,,,8,,58,0
30929,note_on,,29,0,17,,,,,,,,,,,,,,,,13,,58,0
30929,note_on,,29,0,15,,,,,,,,,,,,,,,,11,,78,0
30929,note_on,,29,0,12,,,,,,,,,,,,,,,,7,,61,0
30929,note_on,,0,0,18,,,,,,,,,,,,,,,,15,,73,0
30929,note_on,,29,0,14,,,,,,,,,,,,,,,,10,,85,0
30930,note_on,,1,0,15,,,,,,,,,,,,,,,,11,,78,72
30930,note_on,,1,0,16,,,,,,,,,,,,,,,,12,,66,72
30930,note_on,,1,0,11,,,,,,,,,,,,,,,,6,,66,72
30930,note_on,,1,0,6,,,,,,,,,,,,,,,,1,,58,72
30930,note_on,,1,0,17,,,,,,,,,,,,,,,,13,,58,72
30930,note_on,,1,0,12,,,,,,,,,,,,,,,,7,,61,72
30930,note_on,,0,0,18,,,,,,,,,,,,,,,,15,,61,72
30930,note_on,,1,0,13,,,,,,,,,,,,,,,,8,,58,72
30930,note_on,,1,0,14,,,,,,,,,,,,,,,,10,,85,72
30930,note_on,,1,0,18,,,,,,,,,,,,,,,,15,,58,72
30930,note_on,,0,0,18,,,,,,,,,,,,,,,,15,,66,72
30930,note_on,,0,0,18,,,,,,,,,,,,,,,,15,,73,72
30959,note_on,,29,0,18,,,,,,,,,,,,,,,,15,,58,0
30959,note_on,,29,0,6,,,,,,,,,,,,,,,,1,,58,0
30959,note_on,,29,0,12,,,,,,,,,,,,,,,,7,,61,0
30959,note_on,,29,0,17,,,,,,,,,,,,,,,,13,,58,0
30959,note_on,,29,0,15,,,,,,,,,,,,,,,,11,,78,0
30959,note_on,,29,0,14,,,,,,,,,,,,,,,,10,,85,0
30959,note_on,,29,0,13,,,,,,,,,,,,,,,,8,,58,0
30959,note_on,,29,0,16,,,,,,,,,,,,,,,,12,,66,0
30959,note_on,,0,0,18,,,,,,,,,,,,,,,,15,,61,0
30959,note_on,,0,0,18,,,,,,,,,,,,,,,,15,,66,0
30959,note_on,,0,0,18,,,,,,,,,,,,,,,,15,,73,0
30959,note_on,,29,0,11,,,,,,,,,,,,,,,,6,,66,0
30960,note_on,,1,0,14,,,,,,,,,,,,,,,,10,,86,72
30960,note_on,,1,0,12,,,,,,,,,,,,,,,,7,,62,72
30960,note_on,,1,0,6,,,,,,,,,,,,,,,,1,,59,72
30960,note_on,,1,0,17,,,,,,,,,,,,,,,,13,,59,72
30960,note_on,,1,0,13,,,,,,,,,,,,,,,,8,,59,72
30960,note_on,,1,0,11,,,,,,,,,,,,,,,,6,,71,72
30960,note_on,,1,0,15,,,,,,,,,,,,,,,,11,,83,72
30960,note_on,,1,0,18,,,,,,,,,,,,,,,,15,,59,72
30960,note_on,,0,0,18,,,,,,,,,,,,,,,,15,,71,72
30960,note_on,,0,0,18,,,,,,,,,,,,,,,,15,,66,72
30960,note_on,,0,0,18,,,,,,,,,,,,,,,,15,,62,72
30960,note_on,,1,0,16,,,,,,,,,,,,,,,,12,,66,72
31019,note_on,,59,0,6,,,,,,,,,,,,,,,,1,,59,0
31019,note_on,,59,0,13,,,,,,,,,,,,,,,,8,,59,0
31019,note_on,,59,0,14,,,,,,,,,,,,,,,,10,,86,0
31019,note_on,,0,0,18,,,,,,,,,,,,,,,,15,,62,0
31019,note_on,,59,0,11,,,,,,,,,,,,,,,,6,,71,0
31019,note_on,,59,0,16,,,,,,,,,,,,,,,,12,,66,0
31019,note_on,,59,0,17,,,,,,,,,,,,,,,,13,,59,0
31019,note_on,,0,0,18,,,,,,,,,,,,,,,,15,,66,0
31019,note_on,,0,0,18,,,,,,,,,,,,,,,,15,,71,0
31019,note_on,,59,0,18,,,,,,,,,,,,,,,,15,,59,0
31019,note_on,,59,0,12,,,,,,,,,,,,,,,,7,,62,0
31019,note_on,,59,0,15,,,,,,,,,,,,,,,,11,,83,0
31020,note_on,,1,0,11,,,,,,,,,,,,,,,,6,,70,72
31020,note_on,,1,0,15,,,,,,,,,,,,,,,,11,,82,72
31020,note_on,,1,0,13,,,,,,,,,,,,,,,,8,,54,72
31020,note_on,,1,0,14,,,,,,,,,,,,,,,,10,,85,72
31020,note_on,,1,0,17,,,,,,,,,,,,,,,,13,,54,72
31020,note_on,,1,0,6,,,,,,,,,,,,,,,,1,,54,72
31020,note_on,,0,0,18,,,,,,,,,,,,,,,,15,,66,72
31020,note_on,,0,0,18,,,,,,,,,,,,,,,,15,,69,72
31020,note_on,,1,0,18,,,,,,,,,,,,,,,,15,,54,72
31020,note_on,,1,0,12,,,,,,,,,,,,,,,,7,,61,72
31020,note_on,,1,0,16,,,,,,,,,,,,,,,,12,,66,72
31020,note_on,,0,0,18,,,,,,,,,,,,,,,,15,,61,72
31079,note_on,,59,0,18,,,,,,,,,,,,,,,,15,,54,0
31079,note_on,,0,0,18,,,,,,,,,,,,,,,,15,,66,0
31079,note_on,,0,0,18,,,,,,,,,,,,,,,,15,,61,0
31079,note_on,,59,0,13,,,,,,,,,,,,,,,,8,,54,0
31079,note_on,,59,0,14,,,,,,,,,,,,,,,,10,,85,0
31079,note_on,,59,0,15,,,,,,,,,,,,,,,,11,,82,0
31079,note_on,,59,0,12,,,,,,,,,,,,,,,,7,,61,0
31079,note_on,,0,0,18,,,,,,,,,,,,,,,,15,,69,0
31079,note_on,,59,0,6,,,,,,,,,,,,,,,,1,,54,0
31079,note_on,,59,0,11,,,,,,,,,,,,,,,,6,,70,0
31079,note_on,,59,0,17,,,,,,,,,,,,,,,,13,,54,0
31079,note_on,,59,0,16,,,,,,,,,,,,,,,,12,,66,0
31140,note_on,,61,0,14,,,,,,,,,,,,,,,,10,,85,72
31140,note_on,,61,0,13,,,,,,,,,,,,,,,,8,,58,72
31140,note_on,,0,0,18,,,,,,,,,,,,,,,,15,,61,72
31140,note_on,,0,0,18,,,,,,,,,,,,,,,,15,,66,72
31140,note_on,,61,0,18,,,,,,,,,,,,,,,,15,,58,72
31140,note_on,,61,0,6,,,,,,,,,,,,,,,,1,,58,72
31140,note_on,,61,0,11,,,,,,,,,,,,,,,,6,,66,72
31140,note_on,,0,0,18,,,,,,,,,,,,,,,,15,,73,72
31140,note_on,,61,0,17,,,,,,,,,,,,,,,,13,,58,72
31140,note_on,,61,0,12,,,,,,,,,,,,,,,,7,,61,72
31140,note_on,,61,0,15,,,,,,,,,,,,,,,,11,,78,72
31140,note_on,,61,0,16,,,,,,,,,,,,,,,,12,,66,72
31169,note_on,,29,0,17,,,,,,,,,,,,,,,,13,,58,0
31169,note_on,,29,0,12,,,,,,,,,,,,,,,,7,,61,0
31169,note_on,,29,0,15,,,,,,,,,,,,,,,,11,,78,0
31169,note_on,,29,0,13,,,,,,,,,,,,,,,,8,,58,0
31169,note_on,,29,0,14,,,,,,,,,,,,,,,,10,,85,0
31169,note_on,,29,0,6,,,,,,,,,,,,,,,,1,,58,0
31169,note_on,,29,0,11,,,,,,,,,,,,,,,,6,,66,0
31169,note_on,,29,0,16,,,,,,,,,,,,,,,,12,,66,0
31169,note_on,,0,0,18,,,,,,,,,,,,,,,,15,,73,0
31169,note_on,,0,0,18,,,,,,,,,,,,,,,,15,,66,0
31169,note_on,,0,0,18,,,,,,,,,,,,,,,,15,,61,0
31169,note_on,,29,0,18,,,,,,,,,,,,,,,,15,,58,0
31170,note_on,,1,0,12,,,,,,,,,,,,,,,,7,,61,72
31170,note_on,,1,0,16,,,,,,,,,,,,,,,,12,,66,72
31170,note_on,,0,0,18,,,,,,,,,,,,,,,,15,,61,72
31170,note_on,,0,0,18,,,,,,,,,,,,,,,,15,,66,72
31170,note_on,,1,0,15,,,,,,,,,,,,,,,,11,,78,72
31170,note_on,,1,0,13,,,,,,,,,,,,,,,,8,,58,72
31170,note_on,,1,0,17,,,,,,,,,,,,,,,,13,,58,72
31170,note_on,,1,0,14,,,,,,,,,,,,,,,,10,,85,72
31170,note_on,,1,0,11,,,,,,,,,,,,,,,,6,,66,72
31170,note_on,,0,0,18,,,,,,,,,,,,,,,,15,,73,72
31170,note_on,,1,0,18,,,,,,,,,,,,,,,,15,,58,72
31170,note_on,,1,0,6,,,,,,,,,,,,,,,,1,,58,72
31199,note_on,,29,0,17,,,,,,,,,,,,,,,,13,,58,0
31199,note_on,,29,0,11,,,,,,,,,,,,,,,,6,,66,0
31199,note_on,,29,0,16,,,,,,,,,,,,,,,,12,,66,0
31199,note_on,,29,0,12,,,,,,,,,,,,,,,,7,,61,0
31199,note_on,,29,0,13,,,,,,,,,,,,,,,,8,,58,0
31199,note_on,,0,0,18,,,,,,,,,,,,,,,,15,,61,0
31199,note_on,,29,0,6,,,,,,,,,,,,,,,,1,,58,0
31199,note_on,,0,0,18,,,,,,,,,,,,,,,,15,,66,0
31199,note_on,,0,0,18,,,,,,,,,,,,,,,,15,,73,0
31199,note_on,,29,0,18,,,,,,,,,,,,,,,,15,,58,0
31199,note_on,,29,0,15,,,,,,,,,,,,,,,,11,,78,0
31199,note_on,,29,0,14,,,,,,,,,,,,,,,,10,,85,0
31200,note_on,,1,0,12,,,,,,,,,,,,,,,,7,,62,72
31200,note_on,,1,0,15,,,,,,,,,,,,,,,,11,,83,72
31200,note_on,,1,0,17,,,,,,,,,,,,,,,,13,,59,72
31200,note_on,,1,0,6,,,,,,,,,,,,,,,,1,,59,72
31200,note_on,,1,0,13,,,,,,,,,,,,,,,,8,,59,72
31200,note_on,,0,0,18,,,,,,,,,,,,,,,,15,,66,72
31200,note_on,,0,0,18,,,,,,,,,,,,,,,,15,,71,72
31200,note_on,,0,0,18,,,,,,,,,,,,,,,,15,,74,72
31200,note_on,,1,0,11,,,,,,,,,,,,,,,,6,,71,72
31200,note_on,,1,0,14,,,,,,,,,,,,,,,,10,,86,72
31200,note_on,,1,0,18,,,,,,,,,,,,,,,,15,,59,72
31200,note_on,,1,0,16,,,,,,,,,,,,,,,,12,,66,72
31319,note_on,,119,0,18,,,,,,,,,,,,,,,,15,,59,0
31319,note_on,,119,0,14,,,,,,,,,,,,,,,,10,,86,0
31319,note_on,,119,0,11,,,,,,,,,,,,,,,,6,,71,0
31319,note_on,,119,0,15,,,,,,,,,,,,,,,,11,,83,0
31319,note_on,,0,0,18,,,,,,,,,,,,,,,,15,,74,0
31319,note_on,,119,0,13,,,,,,,,,,,,,,,,8,,59,0
31319,note_on,,119,0,16,,,,,,,,,,,,,,,,12,,66,0
31319,note_on,,119,0,17,,,,,,,,,,,,,,,,13,,59,0
31319,note_on,,0,0,18,,,,,,,,,,,,,,,,15,,66,0
31319,note_on,,119,0,6,,,,,,,,,,,,,,,,1,,59,0
31319,note_on,,0,0,18,,,,,,,,,,,,,,,,15,,71,0
31319,note_on,,119,0,12,,,,,,,,,,,,,,,,7,,62,0
31320,note_on,,1,0,16,,,,,,,,,,,,,,,,12,,66,72
31320,note_on,,0,0,18,,,,,,,,,,,,,,,,15,,71,72
31320,note_on,,1,0,17,,,,,,,,,,,,,,,,13,,47,72
31320,note_on,,0,0,18,,,,,,,,,,,,,,,,15,,59,72
31320,note_on,,1,0,14,,,,,,,,,,,,,,,,10,,74,72
31320,note_on,,0,0,18,,,,,,,,,,,,,,,,15,,62,72
31320,note_on,,1,0,15,,,,,,,,,,,,,,,,11,,78,72
31320,note_on,,1,0,13,,,,,,,,,,,,,,,,8,,47,72
31320,note_on,,1,0,11,,,,,,,,,,,,,,,,6,,66,72
31320,note_on,,1,0,18,,,,,,,,,,,,,,,,15,,47,72
31320,note_on,,0,0,18,,,,,,,,,,,,,,,,15,,66,72
31320,note_on,,1,0,12,,,,,,,,,,,,,,,,7,,62,72
31320,note_on,,1,0,6,,,,,,,,,,,,,,,,1,,47,72
31379,note_on,,1139,0,7,,,,,,,,,,,,,,,,2,,78,0
31379,note_on,,1139,0,5,,,,,,,,,,,,,,,,0,,78,0
31379,note_on,,1139,0,10,,,,,,,,,,,,,,,,5,,78,0
31380,note_on,,1,0,7,,,,,,,,,,,,,,,,2,,78,72
31380,note_on,,1,0,5,,,,,,,,,,,,,,,,0,,78,80
31380,note_on,,1,0,10,,,,,,,,,,,,,,,,5,,78,80
31439,note_on,,119,0,13,,,,,,,,,,,,,,,,8,,47,0
31439,note_on,,119,0,16,,,,,,,,,,,,,,,,12,,66,0
31439,note_on,,0,0,18,,,,,,,,,,,,,,,,15,,62,0
31439,note_on,,59,0,7,,,,,,,,,,,,,,,,2,,78,0
31439,note_on,,0,0,18,,,,,,,,,,,,,,,,15,,66,0
31439,note_on,,0,0,18,,,,,,,,,,,,,,,,15,,71,0
31439,note_on,,0,0,18,,,,,,,,,,,,,,,,15,,59,0
31439,note_on,,119,0,18,,,,,,,,,,,,,,,,15,,47,0
31439,note_on,,59,0,10,,,,,,,,,,,,,,,,5,,78,0
31439,note_on,,119,0,14,,,,,,,,,,,,,,,,10,,74,0
31439,note_on,,119,0,15,,,,,,,,,,,,,,,,11,,78,0
31439,note_on,,59,0,5,,,,,,,,,,,,,,,,0,,78,0
31439,note_on,,119,0,17,,,,,,,,,,,,,,,,13,,47,0
31439,note_on,,119,0,6,,,,,,,,,,,,,,,,1,,47,0
31439,note_on,,119,0,11,,,,,,,,,,,,,,,,6,,66,0
31439,note_on,,119,0,12,,,,,,,,,,,,,,,,7,,62,0
31440,note_on,,1,0,5,,,,,,,,,,,,,,,,0,,79,80
31440,note_on,,1,0,7,,,,,,,,,,,,,,,,2,,79,72
31440,note_on,,1,0,10,,,,,,,,,,,,,,,,5,,79,80
31559,note_on,,119,0,7,,,,,,,,,,,,,,,,2,,79,0
31559,note_on,,119,0,10,,,,,,,,,,,,,,,,5,,79,0
31559,note_on,,119,0,5,,,,,,,,,,,,,,,,0,,79,0
31560,note_on,,1,0,5,,,,,,,,,,,,,,,,0,,79,80
31560,note_on,,1,0,7,,,,,,,,,,,,,,,,2,,79,72
31560,note_on,,1,0,10,,,,,,,,,,,,,,,,5,,79,80
31679,note_on,,119,0,5,,,,,,,,,,,,,,,,0,,79,0
31679,note_on,,119,0,7,,,,,,,,,,,,,,,,2,,79,0
31679,note_on,,119,0,10,,,,,,,,,,,,,,,,5,,79,0
31680,note_on,,1,0,5,,,,,,,,,,,,,,,,0,,79,80
31680,note_on,,1,0,7,,,,,,,,,,,,,,,,2,,79,80
31680,note_on,,1,0,10,,,,,,,,,,,,,,,,5,,79,80
31920,note_on,,481,0,6,,,,,,,,,,,,,,,,1,,59,80
31920,note_on,,481,0,16,,,,,,,,,,,,,,,,12,,67,80
31920,note_on,,481,0,18,,,,,,,,,,,,,,,,15,,59,80
31920,note_on,,4921,0,9,,,,,,,,,,,,,,,,4,,50,80
31920,note_on,,481,0,17,,,,,,,,,,,,,,,,13,,59,80
31920,note_on,,0,0,18,,,,,,,,,,,,,,,,15,,74,80
31920,note_on,,4921,0,8,,,,,,,,,,,,,,,,3,,74,80
31920,note_on,,481,0,13,,,,,,,,,,,,,,,,8,,59,80
31920,note_on,,0,0,18,,,,,,,,,,,,,,,,15,,67,80
31920,note_on,,481,0,11,,,,,,,,,,,,,,,,6,,71,80
31920,note_on,,481,0,15,,,,,,,,,,,,,,,,11,,74,80
31920,note_on,,481,0,12,,,,,,,,,,,,,,,,7,,62,80
31920,note_on,,481,0,14,,,,,,,,,,,,,,,,10,,86,80
31920,note_on,,0,0,18,,,,,,,,,,,,,,,,15,,62,80
32039,note_on,,0,0,18,,,,,,,,,,,,,,,,15,,62,0
32039,note_on,,119,0,17,,,,,,,,,,,,,,,,13,,59,0
32039,note_on,,0,0,18,,,,,,,,,,,,,,,,15,,67,0
32039,note_on,,119,0,9,,,,,,,,,,,,,,,,4,,50,0
32039,note_on,,119,0,8,,,,,,,,,,,,,,,,3,,74,0
32039,note_on,,0,0,18,,,,,,,,,,,,,,,,15,,74,0
32039,note_on,,119,0,11,,,,,,,,,,,,,,,,6,,71,0
32039,note_on,,119,0,12,,,,,,,,,,,,,,,,7,,62,0
32039,note_on,,119,0,14,,,,,,,,,,,,,,,,10,,86,0
32039,note_on,,119,0,16,,,,,,,,,,,,,,,,12,,67,0
32039,note_on,,119,0,6,,,,,,,,,,,,,,,,1,,59,0
32039,note_on,,119,0,15,,,,,,,,,,,,,,,,11,,74,0
32039,note_on,,119,0,18,,,,,,,,,,,,,,,,15,,59,0
32039,note_on,,119,0,13,,,,,,,,,,,,,,,,8,,59,0
32040,note_on,,1,0,18,,,,,,,,,,,,,,,,15,,59,80
32040,note_on,,1,0,13,,,,,,,,,,,,,,,,8,,59,80
32040,note_on,,0,0,18,,,,,,,,,,,,,,,,15,,67,80
32040,note_on,,0,0,18,,,,,,,,,,,,,,,,15,,74,80
32040,note_on,,1,0,11,,,,,,,,,,,,,,,,6,,71,80
32040,note_on,,1,0,12,,,,,,,,,,,,,,,,7,,62,80
32040,note_on,,0,0,18,,,,,,,,,,,,,,,,15,,62,80
32040,note_on,,1,0,16,,,,,,,,,,,,,,,,12,,67,80
32040,note_on,,1,0,8,,,,,,,,,,,,,,,,3,,74,80
32040,note_on,,1,0,9,,,,,,,,,,,,,,,,4,,50,80
32040,note_on,,1,0,14,,,,,,,,,,,,,,,,10,,86,80
32040,note_on,,1,0,15,,,,,,,,,,,,,,,,11,,74,80
32040,note_on,,1,0,6,,,,,,,,,,,,,,,,1,,59,80
32040,note_on,,1,0,17,,,,,,,,,,,,,,,,13,,59,80
32159,note_on,,0,0,18,,,,,,,,,,,,,,,,15,,62,0
32159,note_on,,0,0,18,,,,,,,,,,,,,,,,15,,67,0
32159,note_on,,0,0,18,,,,,,,,,,,,,,,,15,,74,0
32159,note_on,,119,0,18,,,,,,,,,,,,,,,,15,,59,0
32159,note_on,,119,0,8,,,,,,,,,,,,,,,,3,,74,0
32159,note_on,,119,0,11,,,,,,,,,,,,,,,,6,,71,0
32159,note_on,,119,0,14,,,,,,,,,,,,,,,,10,,86,0
32159,note_on,,119,0,15,,,,,,,,,,,,,,,,11,,74,0
32159,note_on,,119,0,6,,,,,,,,,,,,,,,,1,,59,0
32159,note_on,,119,0,16,,,,,,,,,,,,,,,,12,,67,0
32159,note_on,,119,0,9,,,,,,,,,,,,,,,,4,,50,0
32159,note_on,,119,0,12,,,,,,,,,,,,,,,,7,,62,0
32159,note_on,,119,0,13,,,,,,,,,,,,,,,,8,,59,0
32159,note_on,,119,0,17,,,,,,,,,,,,,,,,13,,59,0
32160,note_on,,1,0,8,,,,,,,,,,,,,,,,3,,76,80
32160,note_on,,1,0,12,,,,,,,,,,,,,,,,7,,64,80
32160,note_on,,0,0,18,,,,,,,,,,,,,,,,15,,69,80
32160,note_on,,1,0,11,,,,,,,,,,,,,,,,6,,69,80
32160,note_on,,1,0,17,,,,,,,,,,,,,,,,13,,61,80
32160,note_on,,0,0,18,,,,,,,,,,,,,,,,15,,67,80
32160,note_on,,1,0,16,,,,,,,,,,,,,,,,12,,64,80
32160,note_on,,1,0,18,,,,,,,,,,,,,,,,15,,61,80
32160,note_on,,1,0,6,,,,,,,,,,,,,,,,1,,61,80
32160,note_on,,1,0,9,,,,,,,,,,,,,,,,4,,45,80
32160,note_on,,0,0,18,,,,,,,,,,,,,,,,15,,64,80
32160,note_on,,1,0,13,,,,,,,,,,,,,,,,8,,61,80
32160,note_on,,1,0,15,,,,,,,,,,,,,,,,11,,76,80
32160,note_on,,1,0,14,,,,,,,,,,,,,,,,10,,81,80
32219,note_on,,59,0,15,,,,,,,,,,,,,,,,11,,76,0
32219,note_on,,59,0,14,,,,,,,,,,,,,,,,10,,81,0
32220,note_on,,1,0,14,,,,,,,,,,,,,,,,10,,76,80
32220,note_on,,1,0,15,,,,,,,,,,,,,,,,11,,69,80
32279,note_on,,59,0,14,,,,,,,,,,,,,,,,10,,76,0
32279,note_on,,59,0,15,,,,,,,,,,,,,,,,11,,69,0
32280,note_on,,1,0,15,,,,,,,,,,,,,,,,11,,69,80
32280,note_on,,1,0,14,,,,,,,,,,,,,,,,10,,76,80
32339,note_on,,179,0,6,,,,,,,,,,,,,,,,1,,61,0
32339,note_on,,179,0,13,,,,,,,,,,,,,,,,8,,61,0
32339,note_on,,179,0,11,,,,,,,,,,,,,,,,6,,69,0
32339,note_on,,179,0,8,,,,,,,,,,,,,,,,3,,76,0
32339,note_on,,179,0,17,,,,,,,,,,,,,,,,13,,61,0
32339,note_on,,659,0,7,,,,,,,,,,,,,,,,2,,79,0
32339,note_on,,179,0,12,,,,,,,,,,,,,,,,7,,64,0
32339,note_on,,0,0,18,,,,,,,,,,,,,,,,15,,69,0
32339,note_on,,179,0,18,,,,,,,,,,,,,,,,15,,61,0
32339,note_on,,0,0,18,,,,,,,,,,,,,,,,15,,64,0
32339,note_on,,179,0,16,,,,,,,,,,,,,,,,12,,64,0
32339,note_on,,179,0,9,,,,,,,,,,,,,,,,4,,45,0
32339,note_on,,59,0,14,,,,,,,,,,,,,,,,10,,76,0
32339,note_on,,59,0,15,,,,,,,,,,,,,,,,11,,69,0
32339,note_on,,659,0,5,,,,,,,,,,,,,,,,0,,79,0
32339,note_on,,0,0,18,,,,,,,,,,,,,,,,15,,67,0
32339,note_on,,659,0,10,,,,,,,,,,,,,,,,5,,79,0
32340,note_on,,1,0,12,,,,,,,,,,,,,,,,7,,64,80
32340,note_on,,1,0,15,,,,,,,,,,,,,,,,11,,76,80
32340,note_on,,0,0,18,,,,,,,,,,,,,,,,15,,69,80
32340,note_on,,1,0,10,,,,,,,,,,,,,,,,5,,79,80
32340,note_on,,1,0,14,,,,,,,,,,,,,,,,10,,79,80
32340,note_on,,1,0,8,,,,,,,,,,,,,,,,3,,76,80
32340,note_on,,0,0,18,,,,,,,,,,,,,,,,15,,76,80
32340,note_on,,0,0,18,,,,,,,,,,,,,,,,15,,64,80
32340,note_on,,1,0,17,,,,,,,,,,,,,,,,13,,61,80
32340,note_on,,1,0,18,,,,,,,,,,,,,,,,15,,61,80
32340,note_on,,1,0,9,,,,,,,,,,,,,,,,4,,45,80
32340,note_on,,1,0,16,,,,,,,,,,,,,,,,12,,69,80
32340,note_on,,1,0,6,,,,,,,,,,,,,,,,1,,61,80
32340,note_on,,1,0,13,,,,,,,,,,,,,,,,8,,61,80
32340,note_on,,1,0,5,,,,,,,,,,,,,,,,0,,79,80
32340,note_on,,1,0,11,,,,,,,,,,,,,,,,6,,69,80
32340,note_on,,1,0,7,,,,,,,,,,,,,,,,2,,79,80
32399,note_on,,59,0,13,,,,,,,,,,,,,,,,8,,61,0
32399,note_on,,59,0,8,,,,,,,,,,,,,,,,3,,76,0
32399,note_on,,59,0,6,,,,,,,,,,,,,,,,1,,61,0
32399,note_on,,59,0,7,,,,,,,,,,,,,,,,2,,79,0
32399,note_on,,59,0,5,,,,,,,,,,,,,,,,0,,79,0
32399,note_on,,59,0,12,,,,,,,,,,,,,,,,7,,64,0
32399,note_on,,59,0,16,,,,,,,,,,,,,,,,12,,69,0
32399,note_on,,59,0,9,,,,,,,,,,,,,,,,4,,45,0
32399,note_on,,59,0,14,,,,,,,,,,,,,,,,10,,79,0
32399,note_on,,0,0,18,,,,,,,,,,,,,,,,15,,64,0
32399,note_on,,59,0,17,,,,,,,,,,,,,,,,13,,61,0
32399,note_on,,59,0,15,,,,,,,,,,,,,,,,11,,76,0
32399,note_on,,59,0,10,,,,,,,,,,,,,,,,5,,79,0
32399,note_on,,0,0,18,,,,,,,,,,,,,,,,15,,76,0
32399,note_on,,0,0,18,,,,,,,,,,,,,,,,15,,69,0
32399,note_on,,59,0,11,,,,,,,,,,,,,,,,6,,69,0
32399,note_on,,59,0,18,,,,,,,,,,,,,,,,15,,61,0
32400,note_on,,1,0,13,,,,,,,,,,,,,,,,8,,62,80
32400,note_on,,1,0,16,,,,,,,,,,,,,,,,12,,69,80
32400,note_on,,1,0,9,,,,,,,,,,,,,,,,4,,50,80
32400,note_on,,1,0,12,,,,,,,,,,,,,,,,7,,62,80
32400,note_on,,1,0,6,,,,,,,,,,,,,,,,1,,62,80
32400,note_on,,1,0,5,,,,,,,,,,,,,,,,0,,78,80
32400,note_on,,1,0,15,,,,,,,,,,,,,,,,11,,74,80
32400,note_on,,1,0,10,,,,,,,,,,,,,,,,5,,78,80
32400,note_on,,1,0,7,,,,,,,,,,,,,,,,2,,78,80
32400,note_on,,1,0,11,,,,,,,,,,,,,,,,6,,69,80
32400,note_on,,1,0,18,,,,,,,,,,,,,,,,15,,62,80
32400,note_on,,1,0,8,,,,,,,,,,,,,,,,3,,74,80
32400,note_on,,0,0,18,,,,,,,,,,,,,,,,15,,69,80
32400,note_on,,0,0,18,,,,,,,,,,,,,,,,15,,66,80
32400,note_on,,1,0,14,,,,,,,,,,,,,,,,10,,78,80
32400,note_on,,1,0,17,,,,,,,,,,,,,,,,13,,62,80
32459,note_on,,59,0,5,,,,,,,,,,,,,,,,0,,78,0
32459,note_on,,59,0,12,,,,,,,,,,,,,,,,7,,62,0
32459,note_on,,59,0,9,,,,,,,,,,,,,,,,4,,50,0
32459,note_on,,59,0,14,,,,,,,,,,,,,,,,10,,78,0
32459,note_on,,59,0,8,,,,,,,,,,,,,,,,3,,74,0
32459,note_on,,59,0,10,,,,,,,,,,,,,,,,5,,78,0
32459,note_on,,59,0,16,,,,,,,,,,,,,,,,12,,69,0
32459,note_on,,59,0,7,,,,,,,,,,,,,,,,2,,78,0
32459,note_on,,59,0,15,,,,,,,,,,,,,,,,11,,74,0
32460,note_on,,1,0,14,,,,,,,,,,,,,,,,10,,76,80
32460,note_on,,1,0,9,,,,,,,,,,,,,,,,4,,50,80
32460,note_on,,1,0,12,,,,,,,,,,,,,,,,7,,61,80
32460,note_on,,1,0,7,,,,,,,,,,,,,,,,2,,76,80
32460,note_on,,1,0,15,,,,,,,,,,,,,,,,11,,73,80
32460,note_on,,1,0,8,,,,,,,,,,,,,,,,3,,69,80
32460,note_on,,1,0,5,,,,,,,,,,,,,,,,0,,76,80
32460,note_on,,1,0,10,,,,,,,,,,,,,,,,5,,76,80
32460,note_on,,1,0,16,,,,,,,,,,,,,,,,12,,69,80
32519,note_on,,59,0,16,,,,,,,,,,,,,,,,12,,69,0
32519,note_on,,119,0,13,,,,,,,,,,,,,,,,8,,62,0
32519,note_on,,119,0,11,,,,,,,,,,,,,,,,6,,69,0
32519,note_on,,59,0,15,,,,,,,,,,,,,,,,11,,73,0
32519,note_on,,59,0,12,,,,,,,,,,,,,,,,7,,61,0
32519,note_on,,59,0,9,,,,,,,,,,,,,,,,4,,50,0
32519,note_on,,119,0,6,,,,,,,,,,,,,,,,1,,62,0
32519,note_on,,59,0,14,,,,,,,,,,,,,,,,10,,76,0
32519,note_on,,59,0,5,,,,,,,,,,,,,,,,0,,76,0
32519,note_on,,59,0,7,,,,,,,,,,,,,,,,2,,76,0
32519,note_on,,59,0,10,,,,,,,,,,,,,,,,5,,76,0
32519,note_on,,59,0,8,,,,,,,,,,,,,,,,3,,69,0
32519,note_on,,119,0,18,,,,,,,,,,,,,,,,15,,62,0
32519,note_on,,0,0,18,,,,,,,,,,,,,,,,15,,69,0
32519,note_on,,0,0,18,,,,,,,,,,,,,,,,15,,66,0
32519,note_on,,119,0,17,,,,,,,,,,,,,,,,13,,62,0
32520,note_on,,0,0,18,,,,,,,,,,,,,,,,15,,69,80
32520,note_on,,1,0,12,,,,,,,,,,,,,,,,7,,62,80
32520,note_on,,1,0,10,,,,,,,,,,,,,,,,5,,78,80
32520,note_on,,1,0,13,,,,,,,,,,,,,,,,8,,50,80
32520,note_on,,1,0,11,,,,,,,,,,,,,,,,6,,69,80
32520,note_on,,1,0,16,,,,,,,,,,,,,,,,12,,69,80
32520,note_on,,1,0,18,,,,,,,,,,,,,,,,15,,50,80
32520,note_on,,0,0,18,,,,,,,,,,,,,,,,15,,78,80
32520,note_on,,1,0,5,,,,,,,,,,,,,,,,0,,78,80
32520,note_on,,0,0,18,,,,,,,,,,,,,,,,15,,74,80
32520,note_on,,1,0,14,,,,,,,,,,,,,,,,10,,78,80
32520,note_on,,1,0,15,,,,,,,,,,,,,,,,11,,74,80
32520,note_on,,1,0,7,,,,,,,,,,,,,,,,2,,78,80
32520,note_on,,1,0,17,,,,,,,,,,,,,,,,13,,50,80
32520,note_on,,0,0,18,,,,,,,,,,,,,,,,15,,57,80
32520,note_on,,1,0,9,,,,,,,,,,,,,,,,4,,50,80
32520,note_on,,1,0,6,,,,,,,,,,,,,,,,1,,50,80
32520,note_on,,1,0,8,,,,,,,,,,,,,,,,3,,69,80
32579,note_on,,59,0,14,,,,,,,,,,,,,,,,10,,78,0
32579,note_on,,59,0,9,,,,,,,,,,,,,,,,4,,50,0
32579,note_on,,59,0,7,,,,,,,,,,,,,,,,2,,78,0
32579,note_on,,59,0,15,,,,,,,,,,,,,,,,11,,74,0
32579,note_on,,59,0,10,,,,,,,,,,,,,,,,5,,78,0
32579,note_on,,59,0,8,,,,,,,,,,,,,,,,3,,69,0
32579,note_on,,59,0,12,,,,,,,,,,,,,,,,7,,62,0
32579,note_on,,59,0,16,,,,,,,,,,,,,,,,12,,69,0
32579,note_on,,59,0,5,,,,,,,,,,,,,,,,0,,78,0
32580,note_on,,1,0,9,,,,,,,,,,,,,,,,4,,50,80
32580,note_on,,1,0,14,,,,,,,,,,,,,,,,10,,79,80
32580,note_on,,1,0,8,,,,,,,,,,,,,,,,3,,69,80
32580,note_on,,1,0,5,,,,,,,,,,,,,,,,0,,79,80
32580,note_on,,1,0,15,,,,,,,,,,,,,,,,11,,76,80
32580,note_on,,1,0,16,,,,,,,,,,,,,,,,12,,69,80
32580,note_on,,1,0,10,,,,,,,,,,,,,,,,5,,79,80
32580,note_on,,1,0,12,,,,,,,,,,,,,,,,7,,64,80
32580,note_on,,1,0,7,,,,,,,,,,,,,,,,2,,79,80
32639,note_on,,119,0,17,,,,,,,,,,,,,,,,13,,50,0
32639,note_on,,0,0,18,,,,,,,,,,,,,,,,15,,69,0
32639,note_on,,0,0,18,,,,,,,,,,,,,,,,15,,78,0
32639,note_on,,119,0,18,,,,,,,,,,,,,,,,15,,50,0
32639,note_on,,59,0,7,,,,,,,,,,,,,,,,2,,79,0
32639,note_on,,59,0,10,,,,,,,,,,,,,,,,5,,79,0
32639,note_on,,59,0,16,,,,,,,,,,,,,,,,12,,69,0
32639,note_on,,59,0,12,,,,,,,,,,,,,,,,7,,64,0
32639,note_on,,59,0,8,,,,,,,,,,,,,,,,3,,69,0
32639,note_on,,119,0,11,,,,,,,,,,,,,,,,6,,69,0
32639,note_on,,59,0,14,,,,,,,,,,,,,,,,10,,79,0
32639,note_on,,119,0,13,,,,,,,,,,,,,,,,8,,50,0
32639,note_on,,0,0,18,,,,,,,,,,,,,,,,15,,74,0
32639,note_on,,0,0,18,,,,,,,,,,,,,,,,15,,57,0
32639,note_on,,59,0,5,,,,,,,,,,,,,,,,0,,79,0
32639,note_on,,59,0,9,,,,,,,,,,,,,,,,4,,50,0
32639,note_on,,59,0,15,,,,,,,,,,,,,,,,11,,76,0
32639,note_on,,119,0,6,,,,,,,,,,,,,,,,1,,50,0
32640,note_on,,1,0,14,,,,,,,,,,,,,,,,10,,76,80
32640,note_on,,1,0,11,,,,,,,,,,,,,,,,6,,69,80
32640,note_on,,1,0,16,,,,,,,,,,,,,,,,12,,69,80
32640,note_on,,1,0,9,,,,,,,,,,,,,,,,4,,45,80
32640,note_on,,1,0,7,,,,,,,,,,,,,,,,2,,76,80
32640,note_on,,1,0,15,,,,,,,,,,,,,,,,11,,73,80
32640,note_on,,1,0,6,,,,,,,,,,,,,,,,1,,57,80
32640,note_on,,1,0,12,,,,,,,,,,,,,,,,7,,61,80
32640,note_on,,1,0,8,,,,,,,,,,,,,,,,3,,69,80
32640,note_on,,1,0,17,,,,,,,,,,,,,,,,13,,57,80
32640,note_on,,1,0,10,,,,,,,,,,,,,,,,5,,76,80
32640,note_on,,1,0,5,,,,,,,,,,,,,,,,0,,76,80
32640,note_on,,1,0,18,,,,,,,,,,,,,,,,15,,57,80
32640,note_on,,0,0,18,,,,,,,,,,,,,,,,15,,76,80
32640,note_on,,0,0,18,,,,,,,,,,,,,,,,15,,73,80
32640,note_on,,0,0,18,,,,,,,,,,,,,,,,15,,69,80
32640,note_on,,0,0,18,,,,,,,,,,,,,,,,15,,64,80
32640,note_on,,1,0,13,,,,,,,,,,,,,,,,8,,57,80
32819,note_on,,179,0,6,,,,,,,,,,,,,,,,1,,57,0
32819,note_on,,179,0,17,,,,,,,,,,,,,,,,13,,57,0
32819,note_on,,179,0,18,,,,,,,,,,,,,,,,15,,57,0
32819,note_on,,179,0,13,,,,,,,,,,,,,,,,8,,57,0
32820,note_on,,1,0,13,,,,,,,,,,,,,,,,8,,45,72
32820,note_on,,1,0,18,,,,,,,,,,,,,,,,15,,45,72
32820,note_on,,1,0,6,,,,,,,,,,,,,,,,1,,45,72
32820,note_on,,1,0,17,,,,,,,,,,,,,,,,13,,45,72
32879,note_on,,239,0,16,,,,,,,,,,,,,,,,12,,69,0
32879,note_on,,239,0,11,,,,,,,,,,,,,,,,6,,69,0
32879,note_on,,0,0,18,,,,,,,,,,,,,,,,15,,64,0
32879,note_on,,239,0,15,,,,,,,,,,,,,,,,11,,73,0
32879,note_on,,0,0,18,,,,,,,,,,,,,,,,15,,69,0
32879,note_on,,0,0,18,,,,,,,,,,,,,,,,15,,73,0
32879,note_on,,59,0,18,,,,,,,,,,,,,,,,15,,76,0
32879,note_on,,59,0,17,,,,,,,,,,,,,,,,13,,45,0
32879,note_on,,0,0,18,,,,,,,,,,,,,,,,15,,45,0
32879,note_on,,59,0,6,,,,,,,,,,,,,,,,1,,45,0
32879,note_on,,239,0,5,,,,,,,,,,,,,,,,0,,76,0
32879,note_on,,239,0,12,,,,,,,,,,,,,,,,7,,61,0
32879,note_on,,239,0,14,,,,,,,,,,,,,,,,10,,76,0
32879,note_on,,59,0,13,,,,,,,,,,,,,,,,8,,45,0
32879,note_on,,239,0,8,,,,,,,,,,,,,,,,3,,69,0
32879,note_on,,239,0,9,,,,,,,,,,,,,,,,4,,45,0
32879,note_on,,239,0,10,,,,,,,,,,,,,,,,5,,76,0
32879,note_on,,239,0,7,,,,,,,,,,,,,,,,2,,76,0
32880,note_on,,1,0,18,,,,,,,,,,,,,,,,15,,57,72
32880,note_on,,1,0,17,,,,,,,,,,,,,,,,13,,57,72
32880,note_on,,1,0,13,,,,,,,,,,,,,,,,8,,57,72
32880,note_on,,1,0,6,,,,,,,,,,,,,,,,1,,57,72
32940,note_on,,61,0,5,,,,,,,,,,,,,,,,0,,73,72
32940,note_on,,61,0,15,,,,,,,,,,,,,,,,11,,73,72
32940,note_on,,61,0,10,,,,,,,,,,,,,,,,5,,73,72
32999,note_on,,119,0,18,,,,,,,,,,,,,,,,15,,57,0
32999,note_on,,59,0,15,,,,,,,,,,,,,,,,11,,73,0
32999,note_on,,59,0,10,,,,,,,,,,,,,,,,5,,73,0
32999,note_on,,119,0,6,,,,,,,,,,,,,,,,1,,57,0
32999,note_on,,119,0,13,,,,,,,,,,,,,,,,8,,57,0
32999,note_on,,119,0,17,,,,,,,,,,,,,,,,13,,57,0
32999,note_on,,59,0,5,,,,,,,,,,,,,,,,0,,73,0
33000,note_on,,1,0,6,,,,,,,,,,,,,,,,1,,49,72
33000,note_on,,1,0,13,,,,,,,,,,,,,,,,8,,49,72
33000,note_on,,1,0,17,,,,,,,,,,,,,,,,13,,49,72
33000,note_on,,1,0,15,,,,,,,,,,,,,,,,11,,74,72
33000,note_on,,1,0,10,,,,,,,,,,,,,,,,5,,74,72
33000,note_on,,1,0,5,,,,,,,,,,,,,,,,0,,74,72
33000,note_on,,0,0,18,,,,,,,,,,,,,,,,15,,57,72
33000,note_on,,0,0,18,,,,,,,,,,,,,,,,15,,64,72
33000,note_on,,0,0,18,,,,,,,,,,,,,,,,15,,69,72
33000,note_on,,1,0,18,,,,,,,,,,,,,,,,15,,49,72
33059,note_on,,59,0,5,,,,,,,,,,,,,,,,0,,74,0
33059,note_on,,59,0,15,,,,,,,,,,,,,,,,11,,74,0
33059,note_on,,59,0,10,,,,,,,,,,,,,,,,5,,74,0
33060,note_on,,1,0,15,,,,,,,,,,,,,,,,11,,76,72
33060,note_on,,1,0,10,,,,,,,,,,,,,,,,5,,76,72
33060,note_on,,1,0,5,,,,,,,,,,,,,,,,0,,76,72
33119,note_on,,0,0,18,,,,,,,,,,,,,,,,15,,69,0
33119,note_on,,59,0,10,,,,,,,,,,,,,,,,5,,76,0
33119,note_on,,119,0,17,,,,,,,,,,,,,,,,13,,49,0
33119,note_on,,119,0,13,,,,,,,,,,,,,,,,8,,49,0
33119,note_on,,0,0,18,,,,,,,,,,,,,,,,15,,64,0
33119,note_on,,119,0,18,,,,,,,,,,,,,,,,15,,49,0
33119,note_on,,119,0,6,,,,,,,,,,,,,,,,1,,49,0
33119,note_on,,59,0,15,,,,,,,,,,,,,,,,11,,76,0
33119,note_on,,0,0,18,,,,,,,,,,,,,,,,15,,57,0
33119,note_on,,59,0,5,,,,,,,,,,,,,,,,0,,76,0
33120,note_on,,1,0,15,,,,,,,,,,,,,,,,11,,69,72
33120,note_on,,1,0,13,,,,,,,,,,,,,,,,8,,54,72
33120,note_on,,1,0,5,,,,,,,,,,,,,,,,0,,69,72
33120,note_on,,1,0,6,,,,,,,,,,,,,,,,1,,54,72
33120,note_on,,1,0,17,,,,,,,,,,,,,,,,13,,54,72
33120,note_on,,1,0,10,,,,,,,,,,,,,,,,5,,69,72
33120,note_on,,1,0,18,,,,,,,,,,,,,,,,15,,54,72
33120,note_on,,0,0,18,,,,,,,,,,,,,,,,15,,69,72
33120,note_on,,0,0,18,,,,,,,,,,,,,,,,15,,66,72
33120,note_on,,0,0,18,,,,,,,,,,,,,,,,15,,62,72
33120,note_on,,0,0,18,,,,,,,,,,,,,,,,15,,57,72
33180,note_on,,301,0,12,,,,,,,,,,,,,,,,7,,57,72
33180,note_on,,301,0,16,,,,,,,,,,,,,,,,12,,69,72
33239,note_on,,119,0,6,,,,,,,,,,,,,,,,1,,54,0
33239,note_on,,0,0,18,,,,,,,,,,,,,,,,15,,62,0
33239,note_on,,59,0,16,,,,,,,,,,,,,,,,12,,69,0
33239,note_on,,0,0,18,,,,,,,,,,,,,,,,15,,66,0
33239,note_on,,119,0,5,,,,,,,,,,,,,,,,0,,69,0
33239,note_on,,119,0,13,,,,,,,,,,,,,,,,8,,54,0
33239,note_on,,119,0,15,,,,,,,,,,,,,,,,11,,69,0
33239,note_on,,59,0,12,,,,,,,,,,,,,,,,7,,57,0
33239,note_on,,0,0,18,,,,,,,,,,,,,,,,15,,57,0
33239,note_on,,119,0,10,,,,,,,,,,,,,,,,5,,69,0
33239,note_on,,119,0,17,,,,,,,,,,,,,,,,13,,54,0
33239,note_on,,119,0,18,,,,,,,,,,,,,,,,15,,54,0
33240,note_on,,1,0,17,,,,,,,,,,,,,,,,13,,45,72
33240,note_on,,1,0,18,,,,,,,,,,,,,,,,15,,45,72
33240,note_on,,0,0,18,,,,,,,,,,,,,,,,15,,64,72
33240,note_on,,1,0,16,,,,,,,,,,,,,,,,12,,71,72
33240,note_on,,0,0,18,,,,,,,,,,,,,,,,15,,67,72
33240,note_on,,1,0,13,,,,,,,,,,,,,,,,8,,45,72
33240,note_on,,1,0,12,,,,,,,,,,,,,,,,7,,59,72
33240,note_on,,0,0,18,,,,,,,,,,,,,,,,15,,52,72
33240,note_on,,1,0,6,,,,,,,,,,,,,,,,1,,45,72
33299,note_on,,59,0,16,,,,,,,,,,,,,,,,12,,71,0
33299,note_on,,59,0,12,,,,,,,,,,,,,,,,7,,59,0
33300,note_on,,1,0,16,,,,,,,,,,,,,,,,12,,73,72
33300,note_on,,1,0,12,,,,,,,,,,,,,,,,7,,61,72
33359,note_on,,59,0,12,,,,,,,,,,,,,,,,7,,61,0
33359,note_on,,119,0,17,,,,,,,,,,,,,,,,13,,45,0
33359,note_on,,59,0,16,,,,,,,,,,,,,,,,12,,73,0
33359,note_on,,119,0,13,,,,,,,,,,,,,,,,8,,45,0
33359,note_on,,119,0,6,,,,,,,,,,,,,,,,1,,45,0
33359,note_on,,0,0,18,,,,,,,,,,,,,,,,15,,64,0
33359,note_on,,0,0,18,,,,,,,,,,,,,,,,15,,67,0
33359,note_on,,0,0,18,,,,,,,,,,,,,,,,15,,52,0
33359,note_on,,119,0,18,,,,,,,,,,,,,,,,15,,45,0
33360,note_on,,1,0,17,,,,,,,,,,,,,,,,13,,50,72
33360,note_on,,1,0,6,,,,,,,,,,,,,,,,1,,50,72
33360,note_on,,0,0,18,,,,,,,,,,,,,,,,15,,62,72
33360,note_on,,0,0,18,,,,,,,,,,,,,,,,15,,66,72
33360,note_on,,0,0,18,,,,,,,,,,,,,,,,15,,54,72
33360,note_on,,1,0,12,,,,,,,,,,,,,,,,7,,54,72
33360,note_on,,1,0,18,,,,,,,,,,,,,,,,15,,50,72
33360,note_on,,1,0,16,,,,,,,,,,,,,,,,12,,66,72
33360,note_on,,1,0,13,,,,,,,,,,,,,,,,8,,50,72
33419,note_on,,59,0,12,,,,,,,,,,,,,,,,7,,54,0
33419,note_on,,59,0,16,,,,,,,,,,,,,,,,12,,66,0
33420,note_on,,1,0,16,,,,,,,,,,,,,,,,12,,69,72
33420,note_on,,181,0,15,,,,,,,,,,,,,,,,11,,78,72
33420,note_on,,1,0,12,,,,,,,,,,,,,,,,7,,57,72
33420,note_on,,541,0,11,,,,,,,,,,,,,,,,6,,66,72
33479,note_on,,59,0,12,,,,,,,,,,,,,,,,7,,57,0
33479,note_on,,59,0,11,,,,,,,,,,,,,,,,6,,66,0
33479,note_on,,59,0,16,,,,,,,,,,,,,,,,12,,69,0
33479,note_on,,119,0,17,,,,,,,,,,,,,,,,13,,50,0
33479,note_on,,119,0,13,,,,,,,,,,,,,,,,8,,50,0
33479,note_on,,119,0,6,,,,,,,,,,,,,,,,1,,50,0
33479,note_on,,0,0,18,,,,,,,,,,,,,,,,15,,54,0
33479,note_on,,0,0,18,,,,,,,,,,,,,,,,15,,66,0
33479,note_on,,0,0,18,,,,,,,,,,,,,,,,15,,62,0
33479,note_on,,0,0,18,,,,,,,,,,,,,,,,15,,50,0
33479,note_on,,119,0,18,,,,,,,,,,,,,,,,15,,69,0
33479,note_on,,59,0,15,,,,,,,,,,,,,,,,11,,78,0
33480,note_on,,1,0,15,,,,,,,,,,,,,,,,11,,80,72
33480,note_on,,1,0,6,,,,,,,,,,,,,,,,1,,49,72
33480,note_on,,1,0,11,,,,,,,,,,,,,,,,6,,68,72
33480,note_on,,1,0,13,,,,,,,,,,,,,,,,8,,49,72
33480,note_on,,0,0,18,,,,,,,,,,,,,,,,15,,69,72
33480,note_on,,1,0,16,,,,,,,,,,,,,,,,12,,64,72
33480,note_on,,0,0,18,,,,,,,,,,,,,,,,15,,76,72
33480,note_on,,0,0,18,,,,,,,,,,,,,,,,15,,52,72
33480,note_on,,1,0,18,,,,,,,,,,,,,,,,15,,49,72
33480,note_on,,0,0,18,,,,,,,,,,,,,,,,15,,64,72
33480,note_on,,1,0,17,,,,,,,,,,,,,,,,13,,49,72
33480,note_on,,1,0,12,,,,,,,,,,,,,,,,7,,57,72
33539,note_on,,59,0,16,,,,,,,,,,,,,,,,12,,64,0
33539,note_on,,59,0,13,,,,,,,,,,,,,,,,8,,49,0
33539,note_on,,59,0,11,,,,,,,,,,,,,,,,6,,68,0
33539,note_on,,59,0,15,,,,,,,,,,,,,,,,11,,80,0
33540,note_on,,1,0,16,,,,,,,,,,,,,,,,12,,69,72
33540,note_on,,1,0,11,,,,,,,,,,,,,,,,6,,69,72
33540,note_on,,1,0,13,,,,,,,,,,,,,,,,8,,49,72
33540,note_on,,1,0,15,,,,,,,,,,,,,,,,11,,81,72
33599,note_on,,59,0,11,,,,,,,,,,,,,,,,6,,69,0
33599,note_on,,0,0,18,,,,,,,,,,,,,,,,15,,69,0
33599,note_on,,0,0,18,,,,,,,,,,,,,,,,15,,76,0
33599,note_on,,0,0,18,,,,,,,,,,,,,,,,15,,64,0
33599,note_on,,0,0,18,,,,,,,,,,,,,,,,15,,52,0
33599,note_on,,119,0,18,,,,,,,,,,,,,,,,15,,49,0
33599,note_on,,59,0,15,,,,,,,,,,,,,,,,11,,81,0
33599,note_on,,119,0,6,,,,,,,,,,,,,,,,1,,49,0
33599,note_on,,59,0,16,,,,,,,,,,,,,,,,12,,69,0
33599,note_on,,59,0,13,,,,,,,,,,,,,,,,8,,49,0
33599,note_on,,119,0,17,,,,,,,,,,,,,,,,13,,49,0
33600,note_on,,1,0,11,,,,,,,,,,,,,,,,6,,62,72
33600,note_on,,1,0,18,,,,,,,,,,,,,,,,15,,47,72
33600,note_on,,1,0,15,,,,,,,,,,,,,,,,11,,74,72
33600,note_on,,0,0,18,,,,,,,,,,,,,,,,15,,74,72
33600,note_on,,0,0,18,,,,,,,,,,,,,,,,15,,71,72
33600,note_on,,1,0,6,,,,,,,,,,,,,,,,1,,47,72
33600,note_on,,0,0,18,,,,,,,,,,,,,,,,15,,66,72
33600,note_on,,0,0,18,,,,,,,,,,,,,,,,15,,59,72
33600,note_on,,1,0,13,,,,,,,,,,,,,,,,8,,47,72
33600,note_on,,1,0,17,,,,,,,,,,,,,,,,13,,47,72
33600,note_on,,1,0,16,,,,,,,,,,,,,,,,12,,69,72
33659,note_on,,59,0,15,,,,,,,,,,,,,,,,11,,74,0
33659,note_on,,59,0,11,,,,,,,,,,,,,,,,6,,62,0
33660,note_on,,1,0,15,,,,,,,,,,,,,,,,11,,73,72
33660,note_on,,1,0,11,,,,,,,,,,,,,,,,6,,61,72
33719,note_on,,239,0,12,,,,,,,,,,,,,,,,7,,57,0
33719,note_on,,119,0,16,,,,,,,,,,,,,,,,12,,69,0
33719,note_on,,0,0,18,,,,,,,,,,,,,,,,15,,59,0
33719,note_on,,0,0,18,,,,,,,,,,,,,,,,15,,66,0
33719,note_on,,0,0,18,,,,,,,,,,,,,,,,15,,71,0
33719,note_on,,119,0,18,,,,,,,,,,,,,,,,15,,74,0
33719,note_on,,59,0,15,,,,,,,,,,,,,,,,11,,73,0
33719,note_on,,59,0,11,,,,,,,,,,,,,,,,6,,61,0
33720,note_on,,1,0,16,,,,,,,,,,,,,,,,12,,68,72
33720,note_on,,0,0,18,,,,,,,,,,,,,,,,15,,62,72
33720,note_on,,1,0,11,,,,,,,,,,,,,,,,6,,62,72
33720,note_on,,1,0,18,,,,,,,,,,,,,,,,15,,50,72
33720,note_on,,0,0,18,,,,,,,,,,,,,,,,15,,71,72
33720,note_on,,0,0,18,,,,,,,,,,,,,,,,15,,68,72
33720,note_on,,1,0,12,,,,,,,,,,,,,,,,7,,56,72
33720,note_on,,1,0,15,,,,,,,,,,,,,,,,11,,74,72
33779,note_on,,59,0,15,,,,,,,,,,,,,,,,11,,74,0
33779,note_on,,59,0,11,,,,,,,,,,,,,,,,6,,62,0
33780,note_on,,1,0,15,,,,,,,,,,,,,,,,11,,76,72
33780,note_on,,1,0,11,,,,,,,,,,,,,,,,6,,64,72
33809,note_on,,29,0,15,,,,,,,,,,,,,,,,11,,76,0
33809,note_on,,29,0,11,,,,,,,,,,,,,,,,6,,64,0
33810,note_on,,1,0,11,,,,,,,,,,,,,,,,6,,62,72
33810,note_on,,1,0,15,,,,,,,,,,,,,,,,11,,74,72
33839,note_on,,119,0,16,,,,,,,,,,,,,,,,12,,68,0
33839,note_on,,119,0,18,,,,,,,,,,,,,,,,15,,47,0
33839,note_on,,29,0,11,,,,,,,,,,,,,,,,6,,62,0
33839,note_on,,239,0,17,,,,,,,,,,,,,,,,13,,47,0
33839,note_on,,119,0,12,,,,,,,,,,,,,,,,7,,56,0
33839,note_on,,0,0,18,,,,,,,,,,,,,,,,15,,71,0
33839,note_on,,0,0,18,,,,,,,,,,,,,,,,15,,68,0
33839,note_on,,0,0,18,,,,,,,,,,,,,,,,15,,62,0
33839,note_on,,239,0,13,,,,,,,,,,,,,,,,8,,47,0
33839,note_on,,239,0,6,,,,,,,,,,,,,,,,1,,47,0
33839,note_on,,29,0,15,,,,,,,,,,,,,,,,11,,74,0
33839,note_on,,0,0,18,,,,,,,,,,,,,,,,15,,50,0
33840,note_on,,0,0,18,,,,,,,,,,,,,,,,15,,64,72
33840,note_on,,0,0,18,,,,,,,,,,,,,,,,15,,57,72
33840,note_on,,1,0,18,,,,,,,,,,,,,,,,15,,45,72
33840,note_on,,0,0,18,,,,,,,,,,,,,,,,15,,73,72
33840,note_on,,0,0,18,,,,,,,,,,,,,,,,15,,69,72
33840,note_on,,1,0,16,,,,,,,,,,,,,,,,12,,69,72
33840,note_on,,1,0,13,,,,,,,,,,,,,,,,8,,45,72
33840,note_on,,1,0,17,,,,,,,,,,,,,,,,13,,45,72
33840,note_on,,1,0,12,,,,,,,,,,,,,,,,7,,57,72
33840,note_on,,1,0,6,,,,,,,,,,,,,,,,1,,45,72
33840,note_on,,1,0,11,,,,,,,,,,,,,,,,6,,61,72
33840,note_on,,1,0,15,,,,,,,,,,,,,,,,11,,73,72
33899,note_on,,59,0,17,,,,,,,,,,,,,,,,13,,45,0
33899,note_on,,0,0,18,,,,,,,,,,,,,,,,15,,57,0
33899,note_on,,59,0,18,,,,,,,,,,,,,,,,15,,45,0
33899,note_on,,59,0,11,,,,,,,,,,,,,,,,6,,61,0
33899,note_on,,59,0,6,,,,,,,,,,,,,,,,1,,45,0
33899,note_on,,59,0,15,,,,,,,,,,,,,,,,11,,73,0
33900,note_on,,1,0,15,,,,,,,,,,,,,,,,11,,64,72
33900,note_on,,1,0,6,,,,,,,,,,,,,,,,1,,64,72
33900,note_on,,1,0,17,,,,,,,,,,,,,,,,13,,64,72
33900,note_on,,1,0,11,,,,,,,,,,,,,,,,6,,64,72
33959,note_on,,119,0,13,,,,,,,,,,,,,,,,8,,45,0
33959,note_on,,59,0,6,,,,,,,,,,,,,,,,1,,64,0
33959,note_on,,59,0,17,,,,,,,,,,,,,,,,13,,64,0
33959,note_on,,0,0,18,,,,,,,,,,,,,,,,15,,69,0
33959,note_on,,60,0,18,,,,,,,,,,,,,,,,15,,73,0
33959,note_on,,119,0,16,,,,,,,,,,,,,,,,12,,69,0
33959,note_on,,59,0,11,,,,,,,,,,,,,,,,6,,64,0
33959,note_on,,119,0,12,,,,,,,,,,,,,,,,7,,57,0
33959,note_on,,59,0,15,,,,,,,,,,,,,,,,11,,64,0
33959,note_on,,0,0,18,,,,,,,,,,,,,,,,15,,64,0
33960,note_on,,1,0,6,,,,,,,,,,,,,,,,1,,69,72
33960,note_on,,721,0,10,,,,,,,,,,,,,,,,5,,69,72
33960,note_on,,721,0,5,,,,,,,,,,,,,,,,0,,69,72
33960,note_on,,1081,0,14,,,,,,,,,,,,,,,,10,,81,72
33960,note_on,,1,0,11,,,,,,,,,,,,,,,,6,,69,72
33960,note_on,,1,0,18,,,,,,,,,,,,,,,,15,,69,72
33960,note_on,,1,0,17,,,,,,,,,,,,,,,,13,,69,72
33960,note_on,,1,0,15,,,,,,,,,,,,,,,,11,,69,72
34019,note_on,,59,0,17,,,,,,,,,,,,,,,,13,,69,0
34019,note_on,,59,0,6,,,,,,,,,,,,,,,,1,,69,0
34019,note_on,,59,0,15,,,,,,,,,,,,,,,,11,,69,0
34019,note_on,,59,0,11,,,,,,,,,,,,,,,,6,,69,0
34019,note_on,,59,0,18,,,,,,,,,,,,,,,,15,,69,0
34020,note_on,,1,0,6,,,,,,,,,,,,,,,,1,,67,72
34020,note_on,,1,0,15,,,,,,,,,,,,,,,,11,,67,72
34020,note_on,,1,0,17,,,,,,,,,,,,,,,,13,,67,72
34020,note_on,,1,0,18,,,,,,,,,,,,,,,,15,,67,72
34020,note_on,,1,0,11,,,,,,,,,,,,,,,,6,,67,72
34079,note_on,,59,0,15,,,,,,,,,,,,,,,,11,,67,0
34079,note_on,,59,0,11,,,,,,,,,,,,,,,,6,,67,0
34079,note_on,,119,0,5,,,,,,,,,,,,,,,,0,,69,0
34079,note_on,,119,0,10,,,,,,,,,,,,,,,,5,,69,0
34079,note_on,,59,0,6,,,,,,,,,,,,,,,,1,,67,0
34079,note_on,,59,0,17,,,,,,,,,,,,,,,,13,,67,0
34079,note_on,,119,0,14,,,,,,,,,,,,,,,,10,,81,0
34079,note_on,,59,0,18,,,,,,,,,,,,,,,,15,,67,0
34080,note_on,,0,0,18,,,,,,,,,,,,,,,,15,,74,72
34080,note_on,,1,0,11,,,,,,,,,,,,,,,,6,,66,72
34080,note_on,,1,0,6,,,,,,,,,,,,,,,,1,,66,72
34080,note_on,,1,0,18,,,,,,,,,,,,,,,,15,,66,72
34080,note_on,,1,0,5,,,,,,,,,,,,,,,,0,,74,72
34080,note_on,,1,0,14,,,,,,,,,,,,,,,,10,,86,72
34080,note_on,,1,0,17,,,,,,,,,,,,,,,,13,,66,72
34080,note_on,,1,0,15,,,,,,,,,,,,,,,,11,,66,72
34080,note_on,,1,0,10,,,,,,,,,,,,,,,,5,,74,72
34139,note_on,,59,0,17,,,,,,,,,,,,,,,,13,,66,0
34139,note_on,,59,0,6,,,,,,,,,,,,,,,,1,,66,0
34140,note_on,,60,0,18,,,,,,,,,,,,,,,,15,,57,72
34140,note_on,,181,0,16,,,,,,,,,,,,,,,,12,,57,72
34140,note_on,,181,0,12,,,,,,,,,,,,,,,,7,,57,72
34140,note_on,,1,0,17,,,,,,,,,,,,,,,,13,,57,72
34140,note_on,,1,0,6,,,,,,,,,,,,,,,,1,,57,72
34199,note_on,,119,0,14,,,,,,,,,,,,,,,,10,,86,0
34199,note_on,,0,0,18,,,,,,,,,,,,,,,,15,,57,0
34199,note_on,,0,0,18,,,,,,,,,,,,,,,,15,,74,0
34199,note_on,,59,0,18,,,,,,,,,,,,,,,,15,,66,0
34199,note_on,,59,0,16,,,,,,,,,,,,,,,,12,,57,0
34199,note_on,,59,0,17,,,,,,,,,,,,,,,,13,,57,0
34199,note_on,,119,0,5,,,,,,,,,,,,,,,,0,,74,0
34199,note_on,,119,0,10,,,,,,,,,,,,,,,,5,,74,0
34199,note_on,,59,0,12,,,,,,,,,,,,,,,,7,,57,0
34199,note_on,,59,0,6,,,,,,,,,,,,,,,,1,,57,0
34200,note_on,,1,0,5,,,,,,,,,,,,,,,,0,,66,72
34200,note_on,,1,0,14,,,,,,,,,,,,,,,,10,,78,72
34200,note_on,,0,0,18,,,,,,,,,,,,,,,,15,,66,72
34200,note_on,,1,0,18,,,,,,,,,,,,,,,,15,,62,72
34200,note_on,,1,0,17,,,,,,,,,,,,,,,,13,,62,72
34200,note_on,,1,0,6,,,,,,,,,,,,,,,,1,,62,72
34200,note_on,,1,0,12,,,,,,,,,,,,,,,,7,,62,72
34200,note_on,,1,0,10,,,,,,,,,,,,,,,,5,,66,72
34200,note_on,,1,0,16,,,,,,,,,,,,,,,,12,,62,72
34259,note_on,,59,0,17,,,,,,,,,,,,,,,,13,,62,0
34259,note_on,,59,0,6,,,,,,,,,,,,,,,,1,,62,0
34259,note_on,,59,0,12,,,,,,,,,,,,,,,,7,,62,0
34259,note_on,,179,0,15,,,,,,,,,,,,,,,,11,,66,0
34259,note_on,,179,0,11,,,,,,,,,,,,,,,,6,,66,0
34259,note_on,,59,0,16,,,,,,,,,,,,,,,,12,,62,0
34259,note_on,,59,0,18,,,,,,,,,,,,,,,,15,,62,0
34260,note_on,,1,0,6,,,,,,,,,,,,,,,,1,,61,72
34260,note_on,,0,0,18,,,,,,,,,,,,,,,,15,,64,72
34260,note_on,,1,0,18,,,,,,,,,,,,,,,,15,,61,72
34260,note_on,,1,0,16,,,,,,,,,,,,,,,,12,,61,72
34260,note_on,,1,0,12,,,,,,,,,,,,,,,,7,,61,72
34260,note_on,,1,0,15,,,,,,,,,,,,,,,,11,,64,72
34260,note_on,,1,0,11,,,,,,,,,,,,,,,,6,,64,72
34260,note_on,,1,0,17,,,,,,,,,,,,,,,,13,,61,72
34319,note_on,,59,0,12,,,,,,,,,,,,,,,,7,,61,0
34319,note_on,,59,0,17,,,,,,,,,,,,,,,,13,,61,0
34319,note_on,,59,0,11,,,,,,,,,,,,,,,,6,,64,0
34319,note_on,,119,0,5,,,,,,,,,,,,,,,,0,,66,0
34319,note_on,,119,0,10,,,,,,,,,,,,,,,,5,,66,0
34319,note_on,,59,0,15,,,,,,,,,,,,,,,,11,,64,0
34319,note_on,,59,0,18,,,,,,,,,,,,,,,,15,,66,0
34319,note_on,,0,0,18,,,,,,,,,,,,,,,,15,,61,0
34319,note_on,,0,0,18,,,,,,,,,,,,,,,,15,,64,0
34319,note_on,,59,0,16,,,,,,,,,,,,,,,,12,,61,0
34319,note_on,,119,0,14,,,,,,,,,,,,,,,,10,,78,0
34319,note_on,,59,0,6,,,,,,,,,,,,,,,,1,,61,0
34320,note_on,,0,0,18,,,,,,,,,,,,,,,,15,,62,72
34320,note_on,,1,0,10,,,,,,,,,,,,,,,,5,,71,72
34320,note_on,,1,0,5,,,,,,,,,,,,,,,,0,,71,72
34320,note_on,,1,0,11,,,,,,,,,,,,,,,,6,,62,72
34320,note_on,,1,0,14,,,,,,,,,,,,,,,,10,,83,72
34320,note_on,,1,0,17,,,,,,,,,,,,,,,,13,,59,72
34320,note_on,,1,0,15,,,,,,,,,,,,,,,,11,,62,72
34320,note_on,,1,0,6,,,,,,,,,,,,,,,,1,,59,72
34320,note_on,,1,0,12,,,,,,,,,,,,,,,,7,,59,72
34320,note_on,,1,0,18,,,,,,,,,,,,,,,,15,,59,72
34320,note_on,,0,0,18,,,,,,,,,,,,,,,,15,,71,72
34320,note_on,,1,0,16,,,,,,,,,,,,,,,,12,,59,72
34379,note_on,,59,0,18,,,,,,,,,,,,,,,,15,,59,0
34379,note_on,,59,0,6,,,,,,,,,,,,,,,,1,,59,0
34379,note_on,,59,0,17,,,,,,,,,,,,,,,,13,,59,0
34380,note_on,,1,0,18,,,,,,,,,,,,,,,,15,,50,72
34380,note_on,,1,0,6,,,,,,,,,,,,,,,,1,,50,72
34380,note_on,,1,0,17,,,,,,,,,,,,,,,,13,,50,72
34380,note_on,,421,0,13,,,,,,,,,,,,,,,,8,,50,72
34439,note_on,,119,0,5,,,,,,,,,,,,,,,,0,,71,0
34439,note_on,,119,0,10,,,,,,,,,,,,,,,,5,,71,0
34439,note_on,,59,0,13,,,,,,,,,,,,,,,,8,,50,0
34439,note_on,,59,0,6,,,,,,,,,,,,,,,,1,,50,0
34439,note_on,,59,0,17,,,,,,,,,,,,,,,,13,,50,0
34439,note_on,,0,0,18,,,,,,,,,,,,,,,,15,,50,0
34439,note_on,,0,0,18,,,,,,,,,,,,,,,,15,,62,0
34439,note_on,,119,0,14,,,,,,,,,,,,,,,,10,,83,0
34439,note_on,,59,0,18,,,,,,,,,,,,,,,,15,,71,0
34440,note_on,,1,0,5,,,,,,,,,,,,,,,,0,,62,72
34440,note_on,,1,0,6,,,,,,,,,,,,,,,,1,,55,72
34440,note_on,,1,0,13,,,,,,,,,,,,,,,,8,,55,72
34440,note_on,,1,0,14,,,,,,,,,,,,,,,,10,,74,72
34440,note_on,,1,0,10,,,,,,,,,,,,,,,,5,,62,72
34440,note_on,,0,0,18,,,,,,,,,,,,,,,,15,,62,72
34440,note_on,,1,0,18,,,,,,,,,,,,,,,,15,,55,72
34440,note_on,,1,0,17,,,,,,,,,,,,,,,,13,,55,72
34440,note_on,,0,0,18,,,,,,,,,,,,,,,,15,,59,72
34499,note_on,,179,0,15,,,,,,,,,,,,,,,,11,,62,0
34499,note_on,,59,0,18,,,,,,,,,,,,,,,,15,,55,0
34499,note_on,,179,0,12,,,,,,,,,,,,,,,,7,,59,0
34499,note_on,,59,0,6,,,,,,,,,,,,,,,,1,,55,0
34499,note_on,,59,0,17,,,,,,,,,,,,,,,,13,,55,0
34499,note_on,,59,0,13,,,,,,,,,,,,,,,,8,,55,0
34499,note_on,,179,0,16,,,,,,,,,,,,,,,,12,,59,0
34499,note_on,,179,0,11,,,,,,,,,,,,,,,,6,,62,0
34500,note_on,,1,0,15,,,,,,,,,,,,,,,,11,,74,72
34500,note_on,,1,0,18,,,,,,,,,,,,,,,,15,,54,72
34500,note_on,,1,0,12,,,,,,,,,,,,,,,,7,,57,72
34500,note_on,,1,0,13,,,,,,,,,,,,,,,,8,,54,72
34500,note_on,,1,0,11,,,,,,,,,,,,,,,,6,,62,72
34500,note_on,,1,0,6,,,,,,,,,,,,,,,,1,,54,72
34500,note_on,,1,0,16,,,,,,,,,,,,,,,,12,,69,72
34500,note_on,,1,0,17,,,,,,,,,,,,,,,,13,,54,72
34559,note_on,,59,0,18,,,,,,,,,,,,,,,,15,,54,0
34559,note_on,,59,0,6,,,,,,,,,,,,,,,,1,,54,0
34559,note_on,,119,0,5,,,,,,,,,,,,,,,,0,,62,0
34559,note_on,,59,0,12,,,,,,,,,,,,,,,,7,,57,0
34559,note_on,,59,0,15,,,,,,,,,,,,,,,,11,,74,0
34559,note_on,,59,0,16,,,,,,,,,,,,,,,,12,,69,0
34559,note_on,,59,0,17,,,,,,,,,,,,,,,,13,,54,0
34559,note_on,,59,0,13,,,,,,,,,,,,,,,,8,,54,0
34559,note_on,,119,0,14,,,,,,,,,,,,,,,,10,,74,0
34559,note_on,,119,0,10,,,,,,,,,,,,,,,,5,,62,0
34559,note_on,,59,0,11,,,,,,,,,,,,,,,,6,,62,0
34560,note_on,,1,0,6,,,,,,,,,,,,,,,,1,,52,72
34560,note_on,,1,0,12,,,,,,,,,,,,,,,,7,,55,72
34560,note_on,,1,0,13,,,,,,,,,,,,,,,,8,,52,72
34560,note_on,,0,0,18,,,,,,,,,,,,,,,,15,,67,72
34560,note_on,,1,0,5,,,,,,,,,,,,,,,,0,,67,72
34560,note_on,,1,0,10,,,,,,,,,,,,,,,,5,,67,72
34560,note_on,,1,0,15,,,,,,,,,,,,,,,,11,,74,72
34560,note_on,,0,0,18,,,,,,,,,,,,,,,,15,,52,72
34560,note_on,,1,0,18,,,,,,,,,,,,,,,,15,,55,72
34560,note_on,,1,0,14,,,,,,,,,,,,,,,,10,,79,72
34560,note_on,,1,0,16,,,,,,,,,,,,,,,,12,,67,72
34560,note_on,,1,0,17,,,,,,,,,,,,,,,,13,,52,72
34560,note_on,,1,0,11,,,,,,,,,,,,,,,,6,,62,72
34619,note_on,,59,0,15,,,,,,,,,,,,,,,,11,,74,0
34619,note_on,,59,0,11,,,,,,,,,,,,,,,,6,,62,0
34619,note_on,,59,0,18,,,,,,,,,,,,,,,,15,,59,0
34620,note_on,,1,0,11,,,,,,,,,,,,,,,,6,,61,72
34620,note_on,,1,0,18,,,,,,,,,,,,,,,,15,,61,72
34620,note_on,,1,0,15,,,,,,,,,,,,,,,,11,,73,72
34679,note_on,,119,0,5,,,,,,,,,,,,,,,,0,,67,0
34679,note_on,,119,0,12,,,,,,,,,,,,,,,,7,,55,0
34679,note_on,,119,0,14,,,,,,,,,,,,,,,,10,,79,0
34679,note_on,,119,0,6,,,,,,,,,,,,,,,,1,,52,0
34679,note_on,,0,0,18,,,,,,,,,,,,,,,,15,,61,0
34679,note_on,,0,0,18,,,,,,,,,,,,,,,,15,,67,0
34679,note_on,,59,0,11,,,,,,,,,,,,,,,,6,,61,0
34679,note_on,,119,0,13,,,,,,,,,,,,,,,,8,,52,0
34679,note_on,,59,0,15,,,,,,,,,,,,,,,,11,,73,0
34679,note_on,,119,0,10,,,,,,,,,,,,,,,,5,,67,0
34679,note_on,,0,0,18,,,,,,,,,,,,,,,,15,,55,0
34679,note_on,,59,0,18,,,,,,,,,,,,,,,,15,,62,0
34679,note_on,,119,0,17,,,,,,,,,,,,,,,,13,,52,0
34679,note_on,,119,0,16,,,,,,,,,,,,,,,,12,,67,0
34679,note_on,,0,0,18,,,,,,,,,,,,,,,,15,,52,0
34680,note_on,,1,0,11,,,,,,,,,,,,,,,,6,,62,72
34680,note_on,,1,0,12,,,,,,,,,,,,,,,,7,,57,72
34680,note_on,,1,0,6,,,,,,,,,,,,,,,,1,,54,72
34680,note_on,,0,0,18,,,,,,,,,,,,,,,,15,,62,72
34680,note_on,,1,0,14,,,,,,,,,,,,,,,,10,,78,72
34680,note_on,,1,0,16,,,,,,,,,,,,,,,,12,,69,72
34680,note_on,,1,0,10,,,,,,,,,,,,,,,,5,,66,72
34680,note_on,,1,0,15,,,,,,,,,,,,,,,,11,,74,72
34680,note_on,,1,0,17,,,,,,,,,,,,,,,,13,,54,72
34680,note_on,,1,0,18,,,,,,,,,,,,,,,,15,,54,72
34680,note_on,,1,0,13,,,,,,,,,,,,,,,,8,,54,72
34680,note_on,,1,0,5,,,,,,,,,,,,,,,,0,,66,72
34680,note_on,,0,0,18,,,,,,,,,,,,,,,,15,,57,72
34680,note_on,,0,0,18,,,,,,,,,,,,,,,,15,,74,72
34680,note_on,,0,0,18,,,,,,,,,,,,,,,,15,,69,72
34739,note_on,,59,0,12,,,,,,,,,,,,,,,,7,,57,0
34739,note_on,,59,0,14,,,,,,,,,,,,,,,,10,,78,0
34739,note_on,,59,0,16,,,,,,,,,,,,,,,,12,,69,0
34739,note_on,,59,0,15,,,,,,,,,,,,,,,,11,,74,0
34739,note_on,,59,0,11,,,,,,,,,,,,,,,,6,,62,0
34739,note_on,,59,0,10,,,,,,,,,,,,,,,,5,,66,0
34739,note_on,,0,0,18,,,,,,,,,,,,,,,,15,,57,0
34739,note_on,,0,0,18,,,,,,,,,,,,,,,,15,,62,0
34739,note_on,,59,0,17,,,,,,,,,,,,,,,,13,,54,0
34739,note_on,,59,0,18,,,,,,,,,,,,,,,,15,,54,0
34739,note_on,,59,0,5,,,,,,,,,,,,,,,,0,,66,0
34739,note_on,,59,0,6,,,,,,,,,,,,,,,,1,,54,0
34739,note_on,,59,0,13,,,,,,,,,,,,,,,,8,,54,0
34740,note_on,,1,0,12,,,,,,,,,,,,,,,,7,,59,72
34740,note_on,,1,0,15,,,,,,,,,,,,,,,,11,,74,72
34740,note_on,,1,0,16,,,,,,,,,,,,,,,,12,,71,72
34740,note_on,,0,0,18,,,,,,,,,,,,,,,,15,,59,72
34740,note_on,,0,0,18,,,,,,,,,,,,,,,,15,,64,72
34740,note_on,,1,0,18,,,,,,,,,,,,,,,,15,,55,72
34740,note_on,,1,0,13,,,,,,,,,,,,,,,,8,,55,72
34740,note_on,,1,0,5,,,,,,,,,,,,,,,,0,,64,72
34740,note_on,,1,0,6,,,,,,,,,,,,,,,,1,,55,72
34740,note_on,,1,0,10,,,,,,,,,,,,,,,,5,,64,72
34740,note_on,,1,0,17,,,,,,,,,,,,,,,,13,,55,72
34740,note_on,,1,0,11,,,,,,,,,,,,,,,,6,,62,72
34740,note_on,,1,0,14,,,,,,,,,,,,,,,,10,,76,72
34799,note_on,,59,0,14,,,,,,,,,,,,,,,,10,,76,0
34799,note_on,,0,0,18,,,,,,,,,,,,,,,,15,,64,0
34799,note_on,,59,0,15,,,,,,,,,,,,,,,,11,,74,0
34799,note_on,,59,0,10,,,,,,,,,,,,,,,,5,,64,0
34799,note_on,,0,0,18,,,,,,,,,,,,,,,,15,,59,0
34799,note_on,,0,0,18,,,,,,,,,,,,,,,,15,,55,0
34799,note_on,,59,0,13,,,,,,,,,,,,,,,,8,,55,0
34799,note_on,,59,0,11,,,,,,,,,,,,,,,,6,,62,0
34799,note_on,,59,0,18,,,,,,,,,,,,,,,,15,,74,0
34799,note_on,,59,0,6,,,,,,,,,,,,,,,,1,,55,0
34799,note_on,,59,0,16,,,,,,,,,,,,,,,,12,,71,0
34799,note_on,,59,0,5,,,,,,,,,,,,,,,,0,,64,0
34799,note_on,,59,0,17,,,,,,,,,,,,,,,,13,,55,0
34799,note_on,,59,0,12,,,,,,,,,,,,,,,,7,,59,0
34799,note_on,,0,0,18,,,,,,,,,,,,,,,,15,,69,0
34800,note_on,,1,0,18,,,,,,,,,,,,,,,,15,,57,72
34800,note_on,,0,0,18,,,,,,,,,,,,,,,,15,,62,72
34800,note_on,,0,0,18,,,,,,,,,,,,,,,,15,,69,72
34800,note_on,,0,0,18,,,,,,,,,,,,,,,,15,,66,72
34800,note_on,,1,0,14,,,,,,,,,,,,,,,,10,,78,72
34800,note_on,,1,0,11,,,,,,,,,,,,,,,,6,,62,72
34800,note_on,,1,0,5,,,,,,,,,,,,,,,,0,,66,72
34800,note_on,,1,0,15,,,,,,,,,,,,,,,,11,,74,72
34800,note_on,,1,0,12,,,,,,,,,,,,,,,,7,,57,72
34800,note_on,,1,0,10,,,,,,,,,,,,,,,,5,,66,72
34800,note_on,,1,0,13,,,,,,,,,,,,,,,,8,,57,72
34800,note_on,,1,0,16,,,,,,,,,,,,,,,,12,,69,72
34800,note_on,,1,0,6,,,,,,,,,,,,,,,,1,,57,72
34800,note_on,,1,0,17,,,,,,,,,,,,,,,,13,,57,72
34919,note_on,,119,0,13,,,,,,,,,,,,,,,,8,,57,0
34919,note_on,,119,0,18,,,,,,,,,,,,,,,,15,,57,0
34919,note_on,,0,0,18,,,,,,,,,,,,,,,,15,,62,0
34919,note_on,,0,0,18,,,,,,,,,,,,,,,,15,,69,0
34919,note_on,,119,0,6,,,,,,,,,,,,,,,,1,,57,0
34919,note_on,,0,0,18,,,,,,,,,,,,,,,,15,,66,0
34919,note_on,,119,0,17,,,,,,,,,,,,,,,,13,,57,0
34919,note_on,,119,0,5,,,,,,,,,,,,,,,,0,,66,0
34919,note_on,,119,0,15,,,,,,,,,,,,,,,,11,,74,0
34919,note_on,,119,0,10,,,,,,,,,,,,,,,,5,,66,0
34919,note_on,,119,0,14,,,,,,,,,,,,,,,,10,,78,0
34920,note_on,,0,0,18,,,,,,,,,,,,,,,,15,,73,72
34920,note_on,,1,0,10,,,,,,,,,,,,,,,,5,,64,72
34920,note_on,,1,0,18,,,,,,,,,,,,,,,,15,,55,72
34920,note_on,,0,0,18,,,,,,,,,,,,,,,,15,,57,72
34920,note_on,,1,0,14,,,,,,,,,,,,,,,,10,,76,72
34920,note_on,,0,0,18,,,,,,,,,,,,,,,,15,,69,72
34920,note_on,,1,0,6,,,,,,,,,,,,,,,,1,,55,72
34920,note_on,,1,0,13,,,,,,,,,,,,,,,,8,,55,72
34920,note_on,,1,0,17,,,,,,,,,,,,,,,,13,,55,72
34920,note_on,,1,0,5,,,,,,,,,,,,,,,,0,,64,72
34920,note_on,,0,0,18,,,,,,,,,,,,,,,,15,,64,72
34920,note_on,,1,0,15,,,,,,,,,,,,,,,,11,,73,72
34979,note_on,,59,0,17,,,,,,,,,,,,,,,,13,,55,0
34979,note_on,,59,0,13,,,,,,,,,,,,,,,,8,,55,0
34979,note_on,,59,0,18,,,,,,,,,,,,,,,,15,,55,0
34979,note_on,,59,0,6,,,,,,,,,,,,,,,,1,,55,0
34980,note_on,,1,0,17,,,,,,,,,,,,,,,,13,,57,72
34980,note_on,,1,0,6,,,,,,,,,,,,,,,,1,,57,72
34980,note_on,,1,0,13,,,,,,,,,,,,,,,,8,,57,72
35009,note_on,,89,0,5,,,,,,,,,,,,,,,,0,,64,0
35009,note_on,,89,0,10,,,,,,,,,,,,,,,,5,,64,0
35009,note_on,,89,0,14,,,,,,,,,,,,,,,,10,,76,0
35010,note_on,,1,0,14,,,,,,,,,,,,,,,,10,,74,72
35010,note_on,,1,0,5,,,,,,,,,,,,,,,,0,,62,72
35010,note_on,,1,0,10,,,,,,,,,,,,,,,,5,,62,72
35039,note_on,,29,0,10,,,,,,,,,,,,,,,,5,,62,0
35039,note_on,,59,0,13,,,,,,,,,,,,,,,,8,,57,0
35039,note_on,,60,0,18,,,,,,,,,,,,,,,,15,,57,0
35039,note_on,,0,0,18,,,,,,,,,,,,,,,,15,,73,0
35039,note_on,,0,0,18,,,,,,,,,,,,,,,,15,,69,0
35039,note_on,,0,0,18,,,,,,,,,,,,,,,,15,,64,0
35039,note_on,,119,0,15,,,,,,,,,,,,,,,,11,,73,0
35039,note_on,,59,0,6,,,,,,,,,,,,,,,,1,,57,0
35039,note_on,,239,0,12,,,,,,,,,,,,,,,,7,,57,0
35039,note_on,,239,0,11,,,,,,,,,,,,,,,,6,,62,0
35039,note_on,,239,0,16,,,,,,,,,,,,,,,,12,,69,0
35039,note_on,,59,0,17,,,,,,,,,,,,,,,,13,,57,0
35039,note_on,,29,0,5,,,,,,,,,,,,,,,,0,,62,0
35039,note_on,,29,0,14,,,,,,,,,,,,,,,,10,,74,0
35040,note_on,,1,0,14,,,,,,,,,,,,,,,,10,,74,72
35040,note_on,,1,0,11,,,,,,,,,,,,,,,,6,,62,72
35040,note_on,,1,0,12,,,,,,,,,,,,,,,,7,,57,72
35040,note_on,,0,0,18,,,,,,,,,,,,,,,,15,,57,72
35040,note_on,,0,0,18,,,,,,,,,,,,,,,,15,,62,72
35040,note_on,,0,0,18,,,,,,,,,,,,,,,,15,,69,72
35040,note_on,,0,0,18,,,,,,,,,,,,,,,,15,,74,72
35040,note_on,,1,0,18,,,,,,,,,,,,,,,,15,,54,72
35040,note_on,,1,0,6,,,,,,,,,,,,,,,,1,,54,72
35040,note_on,,1,0,13,,,,,,,,,,,,,,,,8,,54,72
35040,note_on,,1,0,17,,,,,,,,,,,,,,,,13,,54,72
35040,note_on,,1,0,15,,,,,,,,,,,,,,,,11,,74,72
35040,note_on,,1,0,16,,,,,,,,,,,,,,,,12,,69,72
35159,note_on,,119,0,6,,,,,,,,,,,,,,,,1,,54,0
35159,note_on,,119,0,13,,,,,,,,,,,,,,,,8,,54,0
35159,note_on,,119,0,18,,,,,,,,,,,,,,,,15,,54,0
35159,note_on,,0,0,18,,,,,,,,,,,,,,,,15,,57,0
35159,note_on,,0,0,18,,,,,,,,,,,,,,,,15,,69,0
35159,note_on,,0,0,18,,,,,,,,,,,,,,,,15,,62,0
35159,note_on,,0,0,18,,,,,,,,,,,,,,,,15,,74,0
35159,note_on,,119,0,17,,,,,,,,,,,,,,,,13,,54,0
35160,note_on,,1,0,18,,,,,,,,,,,,,,,,15,,50,72
35160,note_on,,1,0,13,,,,,,,,,,,,,,,,8,,50,72
35160,note_on,,0,0,18,,,,,,,,,,,,,,,,15,,62,72
35160,note_on,,0,0,18,,,,,,,,,,,,,,,,15,,69,72
35160,note_on,,1,0,6,,,,,,,,,,,,,,,,1,,50,72
35160,note_on,,0,0,18,,,,,,,,,,,,,,,,15,,57,72
35160,note_on,,0,0,18,,,,,,,,,,,,,,,,15,,66,72
35160,note_on,,1,0,17,,,,,,,,,,,,,,,,13,,50,72
35279,note_on,,239,0,15,,,,,,,,,,,,,,,,11,,74,0
35279,note_on,,239,0,16,,,,,,,,,,,,,,,,12,,69,0
35279,note_on,,119,0,18,,,,,,,,,,,,,,,,15,,50,0
35279,note_on,,119,0,17,,,,,,,,,,,,,,,,13,,50,0
35279,note_on,,0,0,18,,,,,,,,,,,,,,,,15,,57,0
35279,note_on,,0,0,18,,,,,,,,,,,,,,,,15,,69,0
35279,note_on,,0,0,18,,,,,,,,,,,,,,,,15,,66,0
35279,note_on,,239,0,12,,,,,,,,,,,,,,,,7,,57,0
35279,note_on,,239,0,14,,,,,,,,,,,,,,,,10,,74,0
35279,note_on,,119,0,13,,,,,,,,,,,,,,,,8,,50,0
35279,note_on,,239,0,11,,,,,,,,,,,,,,,,6,,62,0
35279,note_on,,0,0,18,,,,,,,,,,,,,,,,15,,62,0
35279,note_on,,119,0,6,,,,,,,,,,,,,,,,1,,50,0
35280,note_on,,2401,0,8,,,,,,,,,,,,,,,,3,,62,80
35280,note_on,,1,0,12,,,,,,,,,,,,,,,,7,,62,80
35280,note_on,,1,0,13,,,,,,,,,,,,,,,,8,,62,80
35280,note_on,,1,0,16,,,,,,,,,,,,,,,,12,,62,80
35280,note_on,,1,0,11,,,,,,,,,,,,,,,,6,,62,80
35280,note_on,,2401,0,7,,,,,,,,,,,,,,,,2,,62,80
35280,note_on,,1,0,14,,,,,,,,,,,,,,,,10,,62,80
35280,note_on,,1,0,15,,,,,,,,,,,,,,,,11,,62,80
35369,note_on,,89,0,15,,,,,,,,,,,,,,,,11,,62,0
35369,note_on,,89,0,14,,,,,,,,,,,,,,,,10,,62,0
35369,note_on,,89,0,16,,,,,,,,,,,,,,,,12,,62,0
35399,note_on,,119,0,8,,,,,,,,,,,,,,,,3,,62,0
35399,note_on,,119,0,13,,,,,,,,,,,,,,,,8,,62,0
35399,note_on,,119,0,11,,,,,,,,,,,,,,,,6,,62,0
35399,note_on,,119,0,7,,,,,,,,,,,,,,,,2,,62,0
35399,note_on,,119,0,12,,,,,,,,,,,,,,,,7,,62,0
35400,note_on,,1,0,7,,,,,,,,,,,,,,,,2,,62,80
35400,note_on,,1,0,13,,,,,,,,,,,,,,,,8,,62,80
35400,note_on,,1,0,11,,,,,,,,,,,,,,,,6,,62,80
35400,note_on,,31,0,14,,,,,,,,,,,,,,,,10,,62,80
35400,note_on,,1,0,8,,,,,,,,,,,,,,,,3,,62,80
35400,note_on,,31,0,16,,,,,,,,,,,,,,,,12,,62,80
35400,note_on,,31,0,15,,,,,,,,,,,,,,,,11,,62,80
35400,note_on,,1,0,12,,,,,,,,,,,,,,,,7,,62,80
35489,note_on,,89,0,14,,,,,,,,,,,,,,,,10,,62,0
35489,note_on,,89,0,15,,,,,,,,,,,,,,,,11,,62,0
35489,note_on,,89,0,16,,,,,,,,,,,,,,,,12,,62,0
35519,note_on,,119,0,7,,,,,,,,,,,,,,,,2,,62,0
35519,note_on,,119,0,11,,,,,,,,,,,,,,,,6,,62,0
35519,note_on,,119,0,12,,,,,,,,,,,,,,,,7,,62,0
35519,note_on,,119,0,13,,,,,,,,,,,,,,,,8,,62,0
35519,note_on,,119,0,8,,,,,,,,,,,,,,,,3,,62,0
35520,note_on,,1,0,13,,,,,,,,,,,,,,,,8,,62,80
35520,note_on,,31,0,14,,,,,,,,,,,,,,,,10,,62,80
35520,note_on,,31,0,16,,,,,,,,,,,,,,,,12,,62,80
35520,note_on,,31,0,15,,,,,,,,,,,,,,,,11,,62,80
35520,note_on,,1,0,11,,,,,,,,,,,,,,,,6,,62,80
35520,note_on,,1,0,7,,,,,,,,,,,,,,,,2,,62,80
35520,note_on,,1,0,8,,,,,,,,,,,,,,,,3,,62,80
35520,note_on,,1,0,12,,,,,,,,,,,,,,,,7,,62,80
35639,note_on,,119,0,14,,,,,,,,,,,,,,,,10,,62,0
35639,note_on,,119,0,13,,,,,,,,,,,,,,,,8,,62,0
35639,note_on,,119,0,11,,,,,,,,,,,,,,,,6,,62,0
35639,note_on,,119,0,16,,,,,,,,,,,,,,,,12,,62,0
35639,note_on,,119,0,15,,,,,,,,,,,,,,,,11,,62,0
35700,note_on,,0,0,18,,,,,,,,,,,,,,,,15,,74,80
35700,note_on,,0,0,18,,,,,,,,,,,,,,,,15,,69,80
35700,note_on,,2821,0,9,,,,,,,,,,,,,,,,4,,50,80
35700,note_on,,0,0,18,,,,,,,,,,,,,,,,15,,57,80
35700,note_on,,61,0,14,,,,,,,,,,,,,,,,10,,81,80
35700,note_on,,61,0,16,,,,,,,,,,,,,,,,12,,62,80
35700,note_on,,61,0,15,,,,,,,,,,,,,,,,11,,74,80
35700,note_on,,0,0,18,,,,,,,,,,,,,,,,15,,62,80
35700,note_on,,661,0,5,,,,,,,,,,,,,,,,0,,74,80
35700,note_on,,421,0,18,,,,,,,,,,,,,,,,15,,54,80
35700,note_on,,61,0,11,,,,,,,,,,,,,,,,6,,69,80
35700,note_on,,421,0,17,,,,,,,,,,,,,,,,13,,54,80
35700,note_on,,421,0,6,,,,,,,,,,,,,,,,1,,54,80
35700,note_on,,61,0,13,,,,,,,,,,,,,,,,8,,54,80
35700,note_on,,661,0,10,,,,,,,,,,,,,,,,5,,74,80
35759,note_on,,0,0,18,,,,,,,,,,,,,,,,15,,74,0
35759,note_on,,59,0,17,,,,,,,,,,,,,,,,13,,54,0
35759,note_on,,59,0,9,,,,,,,,,,,,,,,,4,,50,0
35759,note_on,,59,0,10,,,,,,,,,,,,,,,,5,,74,0
35759,note_on,,0,0,18,,,,,,,,,,,,,,,,15,,69,0
35759,note_on,,59,0,14,,,,,,,,,,,,,,,,10,,81,0
35759,note_on,,59,0,11,,,,,,,,,,,,,,,,6,,69,0
35759,note_on,,59,0,18,,,,,,,,,,,,,,,,15,,54,0
35759,note_on,,59,0,15,,,,,,,,,,,,,,,,11,,74,0
35759,note_on,,0,0,18,,,,,,,,,,,,,,,,15,,62,0
35759,note_on,,0,0,18,,,,,,,,,,,,,,,,15,,57,0
35759,note_on,,59,0,16,,,,,,,,,,,,,,,,12,,62,0
35759,note_on,,59,0,13,,,,,,,,,,,,,,,,8,,54,0
35759,note_on,,59,0,6,,,,,,,,,,,,,,,,1,,54,0
35759,note_on,,59,0,5,,,,,,,,,,,,,,,,0,,74,0
35760,note_on,,1,0,18,,,,,,,,,,,,,,,,15,,55,80
35760,note_on,,0,0,18,,,,,,,,,,,,,,,,15,,74,80
35760,note_on,,1,0,10,,,,,,,,,,,,,,,,5,,79,80
35760,note_on,,0,0,18,,,,,,,,,,,,,,,,15,,67,80
35760,note_on,,0,0,18,,,,,,,,,,,,,,,,15,,62,80
35760,note_on,,0,0,18,,,,,,,,,,,,,,,,15,,59,80
35760,note_on,,1,0,6,,,,,,,,,,,,,,,,1,,55,80
35760,note_on,,1,0,15,,,,,,,,,,,,,,,,11,,79,80
35760,note_on,,1,0,14,,,,,,,,,,,,,,,,10,,83,80
35760,note_on,,1,0,5,,,,,,,,,,,,,,,,0,,79,80
35760,note_on,,1,0,13,,,,,,,,,,,,,,,,8,,55,80
35760,note_on,,1,0,16,,,,,,,,,,,,,,,,12,,74,80
35760,note_on,,1,0,9,,,,,,,,,,,,,,,,4,,50,80
35760,note_on,,1,0,11,,,,,,,,,,,,,,,,6,,71,80
35760,note_on,,1,0,17,,,,,,,,,,,,,,,,13,,55,80
35819,note_on,,59,0,11,,,,,,,,,,,,,,,,6,,71,0
35819,note_on,,0,0,18,,,,,,,,,,,,,,,,15,,67,0
35819,note_on,,0,0,18,,,,,,,,,,,,,,,,15,,62,0
35819,note_on,,0,0,18,,,,,,,,,,,,,,,,15,,59,0
35819,note_on,,59,0,6,,,,,,,,,,,,,,,,1,,55,0
35819,note_on,,0,0,18,,,,,,,,,,,,,,,,15,,74,0
35819,note_on,,59,0,18,,,,,,,,,,,,,,,,15,,55,0
35819,note_on,,59,0,13,,,,,,,,,,,,,,,,8,,55,0
35819,note_on,,59,0,14,,,,,,,,,,,,,,,,10,,83,0
35819,note_on,,59,0,9,,,,,,,,,,,,,,,,4,,50,0
35819,note_on,,59,0,10,,,,,,,,,,,,,,,,5,,79,0
35819,note_on,,59,0,16,,,,,,,,,,,,,,,,12,,74,0
35819,note_on,,59,0,15,,,,,,,,,,,,,,,,11,,79,0
35819,note_on,,59,0,17,,,,,,,,,,,,,,,,13,,55,0
35819,note_on,,59,0,5,,,,,,,,,,,,,,,,0,,79,0
35820,note_on,,0,0,18,,,,,,,,,,,,,,,,15,,62,80
35820,note_on,,1,0,17,,,,,,,,,,,,,,,,13,,50,80
35820,note_on,,1,0,13,,,,,,,,,,,,,,,,8,,50,80
35820,note_on,,0,0,18,,,,,,,,,,,,,,,,15,,66,80
35820,note_on,,0,0,18,,,,,,,,,,,,,,,,15,,74,80
35820,note_on,,1,0,6,,,,,,,,,,,,,,,,1,,50,80
35820,note_on,,1,0,11,,,,,,,,,,,,,,,,6,,69,80
35820,note_on,,1,0,18,,,,,,,,,,,,,,,,15,,50,80
35820,note_on,,1,0,16,,,,,,,,,,,,,,,,12,,74,80
35820,note_on,,1,0,15,,,,,,,,,,,,,,,,11,,78,80
35820,note_on,,1,0,5,,,,,,,,,,,,,,,,0,,78,80
35820,note_on,,1,0,14,,,,,,,,,,,,,,,,10,,81,80
35820,note_on,,1,0,10,,,,,,,,,,,,,,,,5,,78,80
35820,note_on,,1,0,9,,,,,,,,,,,,,,,,4,,50,80
35820,note_on,,0,0,18,,,,,,,,,,,,,,,,15,,57,80
35879,note_on,,59,0,13,,,,,,,,,,,,,,,,8,,50,0
35879,note_on,,0,0,18,,,,,,,,,,,,,,,,15,,66,0
35879,note_on,,0,0,18,,,,,,,,,,,,,,,,15,,57,0
35879,note_on,,0,0,18,,,,,,,,,,,,,,,,15,,62,0
35879,note_on,,59,0,6,,,,,,,,,,,,,,,,1,,50,0
35879,note_on,,59,0,18,,,,,,,,,,,,,,,,15,,50,0
35879,note_on,,0,0,18,,,,,,,,,,,,,,,,15,,74,0
35879,note_on,,59,0,10,,,,,,,,,,,,,,,,5,,78,0
35879,note_on,,59,0,16,,,,,,,,,,,,,,,,12,,74,0
35879,note_on,,59,0,14,,,,,,,,,,,,,,,,10,,81,0
35879,note_on,,59,0,11,,,,,,,,,,,,,,,,6,,69,0
35879,note_on,,59,0,9,,,,,,,,,,,,,,,,4,,50,0
35879,note_on,,59,0,15,,,,,,,,,,,,,,,,11,,78,0
35879,note_on,,59,0,17,,,,,,,,,,,,,,,,13,,50,0
35879,note_on,,59,0,5,,,,,,,,,,,,,,,,0,,78,0
35940,note_on,,61,0,13,,,,,,,,,,,,,,,,8,,54,80
35940,note_on,,0,0,18,,,,,,,,,,,,,,,,15,,62,80
35940,note_on,,0,0,18,,,,,,,,,,,,,,,,15,,57,80
35940,note_on,,0,0,18,,,,,,,,,,,,,,,,15,,74,80
35940,note_on,,0,0,18,,,,,,,,,,,,,,,,15,,69,80
35940,note_on,,61,0,17,,,,,,,,,,,,,,,,13,,54,80
35940,note_on,,61,0,5,,,,,,,,,,,,,,,,0,,74,80
35940,note_on,,61,0,11,,,,,,,,,,,,,,,,6,,69,80
35940,note_on,,61,0,10,,,,,,,,,,,,,,,,5,,74,80
35940,note_on,,61,0,6,,,,,,,,,,,,,,,,1,,54,80
35940,note_on,,61,0,14,,,,,,,,,,,,,,,,10,,81,80
35940,note_on,,61,0,16,,,,,,,,,,,,,,,,12,,62,80
35940,note_on,,61,0,9,,,,,,,,,,,,,,,,4,,50,80
35940,note_on,,61,0,15,,,,,,,,,,,,,,,,11,,74,80
35940,note_on,,61,0,18,,,,,,,,,,,,,,,,15,,54,80
35999,note_on,,59,0,17,,,,,,,,,,,,,,,,13,,54,0
35999,note_on,,59,0,13,,,,,,,,,,,,,,,,8,,54,0
35999,note_on,,59,0,18,,,,,,,,,,,,,,,,15,,54,0
35999,note_on,,59,0,9,,,,,,,,,,,,,,,,4,,50,0
35999,note_on,,59,0,16,,,,,,,,,,,,,,,,12,,62,0
35999,note_on,,59,0,10,,,,,,,,,,,,,,,,5,,74,0
35999,note_on,,59,0,11,,,,,,,,,,,,,,,,6,,69,0
35999,note_on,,59,0,5,,,,,,,,,,,,,,,,0,,74,0
35999,note_on,,59,0,15,,,,,,,,,,,,,,,,11,,74,0
35999,note_on,,59,0,14,,,,,,,,,,,,,,,,10,,81,0
35999,note_on,,59,0,6,,,,,,,,,,,,,,,,1,,54,0
35999,note_on,,0,0,18,,,,,,,,,,,,,,,,15,,62,0
35999,note_on,,0,0,18,,,,,,,,,,,,,,,,15,,69,0
35999,note_on,,0,0,18,,,,,,,,,,,,,,,,15,,74,0
35999,note_on,,0,0,18,,,,,,,,,,,,,,,,15,,57,0
36000,note_on,,1,0,13,,,,,,,,,,,,,,,,8,,55,80
36000,note_on,,0,0,18,,,,,,,,,,,,,,,,15,,62,80
36000,note_on,,1,0,17,,,,,,,,,,,,,,,,13,,55,80
36000,note_on,,0,0,18,,,,,,,,,,,,,,,,15,,67,80
36000,note_on,,1,0,5,,,,,,,,,,,,,,,,0,,79,80
36000,note_on,,1,0,18,,,,,,,,,,,,,,,,15,,55,80
36000,note_on,,1,0,16,,,,,,,,,,,,,,,,12,,74,80
36000,note_on,,1,0,10,,,,,,,,,,,,,,,,5,,79,80
36000,note_on,,1,0,9,,,,,,,,,,,,,,,,4,,50,80
36000,note_on,,0,0,18,,,,,,,,,,,,,,,,15,,59,80
36000,note_on,,1,0,6,,,,,,,,,,,,,,,,1,,55,80
36000,note_on,,0,0,18,,,,,,,,,,,,,,,,15,,74,80
36000,note_on,,1,0,14,,,,,,,,,,,,,,,,10,,83,80
36000,note_on,,1,0,11,,,,,,,,,,,,,,,,6,,71,80
36000,note_on,,1,0,15,,,,,,,,,,,,,,,,11,,79,80
36059,note_on,,59,0,10,,,,,,,,,,,,,,,,5,,79,0
36059,note_on,,59,0,9,,,,,,,,,,,,,,,,4,,50,0
36059,note_on,,59,0,15,,,,,,,,,,,,,,,,11,,79,0
36059,note_on,,59,0,11,,,,,,,,,,,,,,,,6,,71,0
36059,note_on,,0,0,18,,,,,,,,,,,,,,,,15,,59,0
36059,note_on,,0,0,18,,,,,,,,,,,,,,,,15,,62,0
36059,note_on,,59,0,13,,,,,,,,,,,,,,,,8,,55,0
36059,note_on,,59,0,6,,,,,,,,,,,,,,,,1,,55,0
36059,note_on,,0,0,18,,,,,,,,,,,,,,,,15,,67,0
36059,note_on,,59,0,17,,,,,,,,,,,,,,,,13,,55,0
36059,note_on,,59,0,16,,,,,,,,,,,,,,,,12,,74,0
36059,note_on,,0,0,18,,,,,,,,,,,,,,,,15,,74,0
36059,note_on,,59,0,5,,,,,,,,,,,,,,,,0,,79,0
36059,note_on,,59,0,18,,,,,,,,,,,,,,,,15,,55,0
36059,note_on,,59,0,14,,,,,,,,,,,,,,,,10,,83,0
36060,note_on,,1,0,16,,,,,,,,,,,,,,,,12,,74,80
36060,note_on,,1,0,18,,,,,,,,,,,,,,,,15,,50,80
36060,note_on,,0,0,18,,,,,,,,,,,,,,,,15,,66,80
36060,note_on,,0,0,18,,,,,,,,,,,,,,,,15,,74,80
36060,note_on,,1,0,5,,,,,,,,,,,,,,,,0,,78,80
36060,note_on,,0,0,18,,,,,,,,,,,,,,,,15,,62,80
36060,note_on,,1,0,11,,,,,,,,,,,,,,,,6,,69,80
36060,note_on,,1,0,14,,,,,,,,,,,,,,,,10,,81,80
36060,note_on,,1,0,10,,,,,,,,,,,,,,,,5,,78,80
36060,note_on,,1,0,6,,,,,,,,,,,,,,,,1,,50,80
36060,note_on,,1,0,13,,,,,,,,,,,,,,,,8,,50,80
36060,note_on,,1,0,9,,,,,,,,,,,,,,,,4,,50,80
36060,note_on,,1,0,17,,,,,,,,,,,,,,,,13,,50,80
36060,note_on,,1,0,15,,,,,,,,,,,,,,,,11,,78,80
36060,note_on,,0,0,18,,,,,,,,,,,,,,,,15,,57,80
36119,note_on,,59,0,18,,,,,,,,,,,,,,,,15,,50,0
36119,note_on,,0,0,18,,,,,,,,,,,,,,,,15,,74,0
36119,note_on,,0,0,18,,,,,,,,,,,,,,,,15,,66,0
36119,note_on,,0,0,18,,,,,,,,,,,,,,,,15,,62,0
36119,note_on,,0,0,18,,,,,,,,,,,,,,,,15,,57,0
36119,note_on,,59,0,17,,,,,,,,,,,,,,,,13,,50,0
36119,note_on,,59,0,15,,,,,,,,,,,,,,,,11,,78,0
36119,note_on,,59,0,14,,,,,,,,,,,,,,,,10,,81,0
36119,note_on,,59,0,5,,,,,,,,,,,,,,,,0,,78,0
36119,note_on,,59,0,11,,,,,,,,,,,,,,,,6,,69,0
36119,note_on,,59,0,9,,,,,,,,,,,,,,,,4,,50,0
36119,note_on,,59,0,10,,,,,,,,,,,,,,,,5,,78,0
36119,note_on,,59,0,13,,,,,,,,,,,,,,,,8,,50,0
36119,note_on,,59,0,6,,,,,,,,,,,,,,,,1,,50,0
36119,note_on,,59,0,16,,,,,,,,,,,,,,,,12,,74,0
36179,note_on,,659,0,7,,,,,,,,,,,,,,,,2,,62,0
36179,note_on,,659,0,12,,,,,,,,,,,,,,,,7,,62,0
36179,note_on,,659,0,8,,,,,,,,,,,,,,,,3,,62,0
36180,note_on,,61,0,16,,,,,,,,,,,,,,,,12,,62,80
36180,note_on,,1,0,8,,,,,,,,,,,,,,,,3,,62,80
36180,note_on,,61,0,11,,,,,,,,,,,,,,,,6,,62,80
36180,note_on,,1,0,12,,,,,,,,,,,,,,,,7,,62,80
36180,note_on,,61,0,15,,,,,,,,,,,,,,,,11,,62,80
36180,note_on,,61,0,13,,,,,,,,,,,,,,,,8,,62,80
36180,note_on,,1,0,7,,,,,,,,,,,,,,,,2,,62,80
36180,note_on,,61,0,14,,,,,,,,,,,,,,,,10,,62,80
36224,note_on,,44,0,14,,,,,,,,,,,,,,,,10,,62,0
36224,note_on,,44,0,16,,,,,,,,,,,,,,,,12,,62,0
36224,note_on,,44,0,15,,,,,,,,,,,,,,,,11,,62,0
36239,note_on,,59,0,8,,,,,,,,,,,,,,,,3,,62,0
36239,note_on,,59,0,11,,,,,,,,,,,,,,,,6,,62,0
36239,note_on,,59,0,13,,,,,,,,,,,,,,,,8,,62,0
36239,note_on,,59,0,7,,,,,,,,,,,,,,,,2,,62,0
36239,note_on,,59,0,12,,,,,,,,,,,,,,,,7,,62,0
36240,note_on,,16,0,15,,,,,,,,,,,,,,,,11,,62,80
36240,note_on,,1,0,7,,,,,,,,,,,,,,,,2,,62,80
36240,note_on,,1,0,8,,,,,,,,,,,,,,,,3,,62,80
36240,note_on,,1,0,11,,,,,,,,,,,,,,,,6,,62,80
36240,note_on,,1,0,13,,,,,,,,,,,,,,,,8,,62,80
36240,note_on,,16,0,16,,,,,,,,,,,,,,,,12,,62,80
36240,note_on,,1,0,12,,,,,,,,,,,,,,,,7,,62,80
36240,note_on,,16,0,14,,,,,,,,,,,,,,,,10,,62,80
36329,note_on,,89,0,16,,,,,,,,,,,,,,,,12,,62,0
36329,note_on,,89,0,15,,,,,,,,,,,,,,,,11,,62,0
36329,note_on,,89,0,14,,,,,,,,,,,,,,,,10,,62,0
36359,note_on,,119,0,12,,,,,,,,,,,,,,,,7,,62,0
36359,note_on,,119,0,11,,,,,,,,,,,,,,,,6,,62,0
36359,note_on,,119,0,13,,,,,,,,,,,,,,,,8,,62,0
36359,note_on,,119,0,8,,,,,,,,,,,,,,,,3,,62,0
36359,note_on,,119,0,7,,,,,,,,,,,,,,,,2,,62,0
36360,note_on,,1,0,13,,,,,,,,,,,,,,,,8,,62,80
36360,note_on,,1,0,8,,,,,,,,,,,,,,,,3,,62,80
36360,note_on,,1,0,7,,,,,,,,,,,,,,,,2,,62,80
36360,note_on,,31,0,15,,,,,,,,,,,,,,,,11,,62,80
36360,note_on,,1,0,12,,,,,,,,,,,,,,,,7,,62,80
36360,note_on,,31,0,16,,,,,,,,,,,,,,,,12,,62,80
36360,note_on,,31,0,14,,,,,,,,,,,,,,,,10,,62,80
36360,note_on,,1,0,11,,,,,,,,,,,,,,,,6,,62,80
36449,note_on,,89,0,15,,,,,,,,,,,,,,,,11,,62,0
36449,note_on,,89,0,16,,,,,,,,,,,,,,,,12,,62,0
36449,note_on,,89,0,14,,,,,,,,,,,,,,,,10,,62,0
36479,note_on,,119,0,7,,,,,,,,,,,,,,,,2,,62,0
36479,note_on,,119,0,12,,,,,,,,,,,,,,,,7,,62,0
36479,note_on,,119,0,8,,,,,,,,,,,,,,,,3,,62,0
36479,note_on,,119,0,11,,,,,,,,,,,,,,,,6,,62,0
36479,note_on,,119,0,13,,,,,,,,,,,,,,,,8,,62,0
36480,note_on,,31,0,14,,,,,,,,,,,,,,,,10,,62,80
36480,note_on,,31,0,16,,,,,,,,,,,,,,,,12,,62,80
36480,note_on,,1,0,12,,,,,,,,,,,,,,,,7,,62,80
36480,note_on,,1,0,13,,,,,,,,,,,,,,,,8,,62,80
36480,note_on,,1,0,8,,,,,,,,,,,,,,,,3,,62,80
36480,note_on,,1,0,7,,,,,,,,,,,,,,,,2,,62,80
36480,note_on,,1,0,11,,,,,,,,,,,,,,,,6,,62,80
36480,note_on,,31,0,15,,,,,,,,,,,,,,,,11,,62,80
36599,note_on,,119,0,15,,,,,,,,,,,,,,,,11,,62,0
36599,note_on,,119,0,13,,,,,,,,,,,,,,,,8,,62,0
36599,note_on,,119,0,14,,,,,,,,,,,,,,,,10,,62,0
36599,note_on,,119,0,11,,,,,,,,,,,,,,,,6,,62,0
36599,note_on,,119,0,16,,,,,,,,,,,,,,,,12,,62,0
36660,note_on,,541,0,6,,,,,,,,,,,,,,,,1,,54,80
36660,note_on,,541,0,5,,,,,,,,,,,,,,,,0,,74,80
36660,note_on,,541,0,9,,,,,,,,,,,,,,,,4,,50,80
36660,note_on,,61,0,16,,,,,,,,,,,,,,,,12,,62,80
36660,note_on,,61,0,11,,,,,,,,,,,,,,,,6,,69,80
36660,note_on,,541,0,17,,,,,,,,,,,,,,,,13,,54,80
36660,note_on,,61,0,13,,,,,,,,,,,,,,,,8,,54,80
36660,note_on,,61,0,15,,,,,,,,,,,,,,,,11,,74,80
36660,note_on,,0,0,18,,,,,,,,,,,,,,,,15,,57,80
36660,note_on,,0,0,18,,,,,,,,,,,,,,,,15,,62,80
36660,note_on,,61,0,14,,,,,,,,,,,,,,,,10,,81,80
36660,note_on,,541,0,18,,,,,,,,,,,,,,,,15,,54,80
36660,note_on,,0,0,18,,,,,,,,,,,,,,,,15,,74,80
36660,note_on,,0,0,18,,,,,,,,,,,,,,,,15,,69,80
36660,note_on,,541,0,10,,,,,,,,,,,,,,,,5,,74,80
36689,note_on,,0,0,18,,,,,,,,,,,,,,,,15,,57,0
36689,note_on,,0,0,18,,,,,,,,,,,,,,,,15,,62,0
36689,note_on,,0,0,18,,,,,,,,,,,,,,,,15,,69,0
36689,note_on,,0,0,18,,,,,,,,,,,,,,,,15,,74,0
36689,note_on,,29,0,15,,,,,,,,,,,,,,,,11,,74,0
36689,note_on,,29,0,16,,,,,,,,,,,,,,,,12,,62,0
36689,note_on,,29,0,18,,,,,,,,,,,,,,,,15,,54,0
36689,note_on,,29,0,13,,,,,,,,,,,,,,,,8,,54,0
36689,note_on,,29,0,10,,,,,,,,,,,,,,,,5,,74,0
36689,note_on,,29,0,9,,,,,,,,,,,,,,,,4,,50,0
36689,note_on,,29,0,5,,,,,,,,,,,,,,,,0,,74,0
36689,note_on,,29,0,6,,,,,,,,,,,,,,,,1,,54,0
36689,note_on,,29,0,11,,,,,,,,,,,,,,,,6,,69,0
36689,note_on,,29,0,14,,,,,,,,,,,,,,,,10,,81,0
36689,note_on,,29,0,17,,,,,,,,,,,,,,,,13,,54,0
36690,note_on,,1,0,6,,,,,,,,,,,,,,,,1,,54,80
36690,note_on,,1,0,16,,,,,,,,,,,,,,,,12,,62,80
36690,note_on,,1,0,17,,,,,,,,,,,,,,,,13,,54,80
36690,note_on,,1,0,14,,,,,,,,,,,,,,,,10,,81,80
36690,note_on,,1,0,11,,,,,,,,,,,,,,,,6,,69,80
36690,note_on,,1,0,18,,,,,,,,,,,,,,,,15,,54,80
36690,note_on,,0,0,18,,,,,,,,,,,,,,,,15,,74,80
36690,note_on,,0,0,18,,,,,,,,,,,,,,,,15,,69,80
36690,note_on,,0,0,18,,,,,,,,,,,,,,,,15,,57,80
36690,note_on,,1,0,5,,,,,,,,,,,,,,,,0,,74,80
36690,note_on,,0,0,18,,,,,,,,,,,,,,,,15,,62,80
36690,note_on,,1,0,10,,,,,,,,,,,,,,,,5,,74,80
36690,note_on,,1,0,9,,,,,,,,,,,,,,,,4,,50,80
36690,note_on,,1,0,15,,,,,,,,,,,,,,,,11,,74,80
36690,note_on,,1,0,13,,,,,,,,,,,,,,,,8,,54,80
36719,note_on,,29,0,17,,,,,,,,,,,,,,,,13,,54,0
36719,note_on,,29,0,6,,,,,,,,,,,,,,,,1,,54,0
36719,note_on,,29,0,16,,,,,,,,,,,,,,,,12,,62,0
36719,note_on,,29,0,9,,,,,,,,,,,,,,,,4,,50,0
36719,note_on,,29,0,18,,,,,,,,,,,,,,,,15,,54,0
36719,note_on,,0,0,18,,,,,,,,,,,,,,,,15,,74,0
36719,note_on,,29,0,13,,,,,,,,,,,,,,,,8,,54,0
36719,note_on,,29,0,5,,,,,,,,,,,,,,,,0,,74,0
36719,note_on,,29,0,11,,,,,,,,,,,,,,,,6,,69,0
36719,note_on,,0,0,18,,,,,,,,,,,,,,,,15,,62,0
36719,note_on,,0,0,18,,,,,,,,,,,,,,,,15,,57,0
36719,note_on,,29,0,10,,,,,,,,,,,,,,,,5,,74,0
36719,note_on,,29,0,15,,,,,,,,,,,,,,,,11,,74,0
36719,note_on,,0,0,18,,,,,,,,,,,,,,,,15,,69,0
36719,note_on,,29,0,14,,,,,,,,,,,,,,,,10,,81,0
36720,note_on,,0,0,18,,,,,,,,,,,,,,,,15,,59,80
36720,note_on,,0,0,18,,,,,,,,,,,,,,,,15,,62,80
36720,note_on,,1,0,14,,,,,,,,,,,,,,,,10,,83,80
36720,note_on,,1,0,17,,,,,,,,,,,,,,,,13,,55,80
36720,note_on,,1,0,6,,,,,,,,,,,,,,,,1,,55,80
36720,note_on,,1,0,11,,,,,,,,,,,,,,,,6,,71,80
36720,note_on,,1,0,15,,,,,,,,,,,,,,,,11,,79,80
36720,note_on,,1,0,10,,,,,,,,,,,,,,,,5,,79,80
36720,note_on,,1,0,13,,,,,,,,,,,,,,,,8,,55,80
36720,note_on,,1,0,16,,,,,,,,,,,,,,,,12,,62,80
36720,note_on,,1,0,9,,,,,,,,,,,,,,,,4,,50,80
36720,note_on,,0,0,18,,,,,,,,,,,,,,,,15,,67,80
36720,note_on,,0,0,18,,,,,,,,,,,,,,,,15,,74,80
36720,note_on,,1,0,18,,,,,,,,,,,,,,,,15,,55,80
36720,note_on,,1,0,5,,,,,,,,,,,,,,,,0,,79,80
36779,note_on,,59,0,15,,,,,,,,,,,,,,,,11,,79,0
36779,note_on,,59,0,6,,,,,,,,,,,,,,,,1,,55,0
36779,note_on,,0,0,18,,,,,,,,,,,,,,,,15,,74,0
36779,note_on,,0,0,18,,,,,,,,,,,,,,,,15,,62,0
36779,note_on,,59,0,9,,,,,,,,,,,,,,,,4,,50,0
36779,note_on,,59,0,10,,,,,,,,,,,,,,,,5,,79,0
36779,note_on,,0,0,18,,,,,,,,,,,,,,,,15,,59,0
36779,note_on,,59,0,18,,,,,,,,,,,,,,,,15,,55,0
36779,note_on,,0,0,18,,,,,,,,,,,,,,,,15,,67,0
36779,note_on,,59,0,16,,,,,,,,,,,,,,,,12,,62,0
36779,note_on,,59,0,14,,,,,,,,,,,,,,,,10,,83,0
36779,note_on,,59,0,11,,,,,,,,,,,,,,,,6,,71,0
36779,note_on,,59,0,5,,,,,,,,,,,,,,,,0,,79,0
36779,note_on,,59,0,17,,,,,,,,,,,,,,,,13,,55,0
36779,note_on,,59,0,13,,,,,,,,,,,,,,,,8,,55,0
36780,note_on,,1,0,16,,,,,,,,,,,,,,,,12,,62,80
36780,note_on,,1,0,6,,,,,,,,,,,,,,,,1,,50,80
36780,note_on,,1,0,11,,,,,,,,,,,,,,,,6,,69,80
36780,note_on,,0,0,18,,,,,,,,,,,,,,,,15,,57,80
36780,note_on,,1,0,10,,,,,,,,,,,,,,,,5,,78,80
36780,note_on,,1,0,18,,,,,,,,,,,,,,,,15,,50,80
36780,note_on,,1,0,17,,,,,,,,,,,,,,,,13,,50,80
36780,note_on,,0,0,18,,,,,,,,,,,,,,,,15,,74,80
36780,note_on,,0,0,18,,,,,,,,,,,,,,,,15,,66,80
36780,note_on,,1,0,15,,,,,,,,,,,,,,,,11,,78,80
36780,note_on,,1,0,5,,,,,,,,,,,,,,,,0,,78,80
36780,note_on,,0,0,18,,,,,,,,,,,,,,,,15,,62,80
36780,note_on,,1,0,9,,,,,,,,,,,,,,,,4,,50,80
36780,note_on,,1,0,14,,,,,,,,,,,,,,,,10,,81,80
36780,note_on,,1,0,13,,,,,,,,,,,,,,,,8,,50,80
36839,note_on,,59,0,13,,,,,,,,,,,,,,,,8,,50,0
36839,note_on,,59,0,6,,,,,,,,,,,,,,,,1,,50,0
36839,note_on,,59,0,10,,,,,,,,,,,,,,,,5,,78,0
36839,note_on,,59,0,5,,,,,,,,,,,,,,,,0,,78,0
36839,note_on,,59,0,15,,,,,,,,,,,,,,,,11,,78,0
36839,note_on,,59,0,11,,,,,,,,,,,,,,,,6,,69,0
36839,note_on,,59,0,17,,,,,,,,,,,,,,,,13,,50,0
36839,note_on,,59,0,9,,,,,,,,,,,,,,,,4,,50,0
36839,note_on,,59,0,18,,,,,,,,,,,,,,,,15,,50,0
36839,note_on,,59,0,16,,,,,,,,,,,,,,,,12,,62,0
36839,note_on,,59,0,14,,,,,,,,,,,,,,,,10,,81,0
36839,note_on,,0,0,18,,,,,,,,,,,,,,,,15,,57,0
36839,note_on,,0,0,18,,,,,,,,,,,,,,,,15,,62,0
36839,note_on,,0,0,18,,,,,,,,,,,,,,,,15,,66,0
36839,note_on,,0,0,18,,,,,,,,,,,,,,,,15,,74,0
36900,note_on,,0,0,18,,,,,,,,,,,,,,,,15,,74,80
36900,note_on,,61,0,17,,,,,,,,,,,,,,,,13,,54,80
36900,note_on,,61,0,15,,,,,,,,,,,,,,,,11,,74,80
36900,note_on,,61,0,13,,,,,,,,,,,,,,,,8,,54,80
36900,note_on,,61,0,18,,,,,,,,,,,,,,,,15,,54,80
36900,note_on,,61,0,14,,,,,,,,,,,,,,,,10,,81,80
36900,note_on,,0,0,18,,,,,,,,,,,,,,,,15,,57,80
36900,note_on,,61,0,16,,,,,,,,,,,,,,,,12,,62,80
36900,note_on,,61,0,9,,,,,,,,,,,,,,,,4,,50,80
36900,note_on,,0,0,18,,,,,,,,,,,,,,,,15,,62,80
36900,note_on,,0,0,18,,,,,,,,,,,,,,,,15,,69,80
36900,note_on,,61,0,11,,,,,,,,,,,,,,,,6,,69,80
36900,note_on,,61,0,6,,,,,,,,,,,,,,,,1,,54,80
36900,note_on,,61,0,5,,,,,,,,,,,,,,,,0,,74,80
36900,note_on,,61,0,10,,,,,,,,,,,,,,,,5,,74,80
36929,note_on,,29,0,14,,,,,,,,,,,,,,,,10,,81,0
36929,note_on,,0,0,18,,,,,,,,,,,,,,,,15,,74,0
36929,note_on,,0,0,18,,,,,,,,,,,,,,,,15,,69,0
36929,note_on,,29,0,18,,,,,,,,,,,,,,,,15,,54,0
36929,note_on,,29,0,6,,,,,,,,,,,,,,,,1,,54,0
36929,note_on,,29,0,16,,,,,,,,,,,,,,,,12,,62,0
36929,note_on,,29,0,17,,,,,,,,,,,,,,,,13,,54,0
36929,note_on,,29,0,11,,,,,,,,,,,,,,,,6,,69,0
36929,note_on,,29,0,10,,,,,,,,,,,,,,,,5,,74,0
36929,note_on,,29,0,9,,,,,,,,,,,,,,,,4,,50,0
36929,note_on,,29,0,15,,,,,,,,,,,,,,,,11,,74,0
36929,note_on,,29,0,5,,,,,,,,,,,,,,,,0,,74,0
36929,note_on,,29,0,13,,,,,,,,,,,,,,,,8,,54,0
36929,note_on,,0,0,18,,,,,,,,,,,,,,,,15,,62,0
36929,note_on,,0,0,18,,,,,,,,,,,,,,,,15,,57,0
36930,note_on,,1,0,9,,,,,,,,,,,,,,,,4,,50,80
36930,note_on,,1,0,16,,,,,,,,,,,,,,,,12,,62,80
36930,note_on,,1,0,6,,,,,,,,,,,,,,,,1,,54,80
36930,note_on,,1,0,14,,,,,,,,,,,,,,,,10,,81,80
36930,note_on,,1,0,15,,,,,,,,,,,,,,,,11,,74,80
36930,note_on,,1,0,11,,,,,,,,,,,,,,,,6,,69,80
36930,note_on,,0,0,18,,,,,,,,,,,,,,,,15,,57,80
36930,note_on,,1,0,10,,,,,,,,,,,,,,,,5,,74,80
36930,note_on,,0,0,18,,,,,,,,,,,,,,,,15,,69,80
36930,note_on,,0,0,18,,,,,,,,,,,,,,,,15,,74,80
36930,note_on,,1,0,18,,,,,,,,,,,,,,,,15,,54,80
36930,note_on,,1,0,13,,,,,,,,,,,,,,,,8,,54,80
36930,note_on,,1,0,5,,,,,,,,,,,,,,,,0,,74,80
36930,note_on,,1,0,17,,,,,,,,,,,,,,,,13,,54,80
36930,note_on,,0,0,18,,,,,,,,,,,,,,,,15,,62,80
36959,note_on,,0,0,18,,,,,,,,,,,,,,,,15,,74,0
36959,note_on,,29,0,6,,,,,,,,,,,,,,,,1,,54,0
36959,note_on,,0,0,18,,,,,,,,,,,,,,,,15,,69,0
36959,note_on,,29,0,9,,,,,,,,,,,,,,,,4,,50,0
36959,note_on,,29,0,17,,,,,,,,,,,,,,,,13,,54,0
36959,note_on,,29,0,10,,,,,,,,,,,,,,,,5,,74,0
36959,note_on,,0,0,18,,,,,,,,,,,,,,,,15,,62,0
36959,note_on,,0,0,18,,,,,,,,,,,,,,,,15,,57,0
36959,note_on,,29,0,18,,,,,,,,,,,,,,,,15,,54,0
36959,note_on,,29,0,14,,,,,,,,,,,,,,,,10,,81,0
36959,note_on,,29,0,16,,,,,,,,,,,,,,,,12,,62,0
36959,note_on,,29,0,5,,,,,,,,,,,,,,,,0,,74,0
36959,note_on,,29,0,13,,,,,,,,,,,,,,,,8,,54,0
36959,note_on,,29,0,15,,,,,,,,,,,,,,,,11,,74,0
36959,note_on,,29,0,11,,,,,,,,,,,,,,,,6,,69,0
36960,note_on,,1,0,9,,,,,,,,,,,,,,,,4,,50,80
36960,note_on,,1,0,17,,,,,,,,,,,,,,,,13,,55,80
36960,note_on,,0,0,18,,,,,,,,,,,,,,,,15,,59,80
36960,note_on,,0,0,18,,,,,,,,,,,,,,,,15,,62,80
36960,note_on,,0,0,18,,,,,,,,,,,,,,,,15,,67,80
36960,note_on,,0,0,18,,,,,,,,,,,,,,,,15,,74,80
36960,note_on,,1,0,18,,,,,,,,,,,,,,,,15,,55,80
36960,note_on,,1,0,11,,,,,,,,,,,,,,,,6,,71,80
36960,note_on,,1,0,15,,,,,,,,,,,,,,,,11,,79,80
36960,note_on,,1,0,6,,,,,,,,,,,,,,,,1,,55,80
36960,note_on,,1,0,13,,,,,,,,,,,,,,,,8,,55,80
36960,note_on,,1,0,5,,,,,,,,,,,,,,,,0,,79,80
36960,note_on,,1,0,10,,,,,,,,,,,,,,,,5,,79,80
36960,note_on,,1,0,16,,,,,,,,,,,,,,,,12,,62,80
36960,note_on,,1,0,14,,,,,,,,,,,,,,,,10,,83,80
37019,note_on,,59,0,15,,,,,,,,,,,,,,,,11,,79,0
37019,note_on,,539,0,7,,,,,,,,,,,,,,,,2,,62,0
37019,note_on,,539,0,8,,,,,,,,,,,,,,,,3,,62,0
37019,note_on,,59,0,17,,,,,,,,,,,,,,,,13,,55,0
37019,note_on,,59,0,5,,,,,,,,,,,,,,,,0,,79,0
37019,note_on,,59,0,10,,,,,,,,,,,,,,,,5,,79,0
37019,note_on,,59,0,14,,,,,,,,,,,,,,,,10,,83,0
37019,note_on,,59,0,9,,,,,,,,,,,,,,,,4,,50,0
37019,note_on,,59,0,11,,,,,,,,,,,,,,,,6,,71,0
37019,note_on,,59,0,6,,,,,,,,,,,,,,,,1,,55,0
37019,note_on,,59,0,16,,,,,,,,,,,,,,,,12,,62,0
37019,note_on,,0,0,18,,,,,,,,,,,,,,,,15,,59,0
37019,note_on,,0,0,18,,,,,,,,,,,,,,,,15,,74,0
37019,note_on,,59,0,13,,,,,,,,,,,,,,,,8,,55,0
37019,note_on,,0,0,18,,,,,,,,,,,,,,,,15,,67,0
37019,note_on,,0,0,18,,,,,,,,,,,,,,,,15,,62,0
37019,note_on,,59,0,18,,,,,,,,,,,,,,,,15,,55,0
37020,note_on,,1,0,8,,,,,,,,,,,,,,,,3,,62,80
37020,note_on,,1,0,15,,,,,,,,,,,,,,,,11,,78,80
37020,note_on,,1,0,18,,,,,,,,,,,,,,,,15,,50,80
37020,note_on,,1,0,5,,,,,,,,,,,,,,,,0,,78,80
37020,note_on,,1,0,13,,,,,,,,,,,,,,,,8,,50,80
37020,note_on,,1,0,7,,,,,,,,,,,,,,,,2,,62,80
37020,note_on,,1,0,11,,,,,,,,,,,,,,,,6,,69,80
37020,note_on,,1,0,10,,,,,,,,,,,,,,,,5,,78,80
37020,note_on,,1,0,9,,,,,,,,,,,,,,,,4,,50,80
37020,note_on,,1,0,6,,,,,,,,,,,,,,,,1,,50,80
37020,note_on,,1,0,17,,,,,,,,,,,,,,,,13,,50,80
37020,note_on,,1,0,16,,,,,,,,,,,,,,,,12,,62,80
37020,note_on,,0,0,18,,,,,,,,,,,,,,,,15,,74,80
37020,note_on,,0,0,18,,,,,,,,,,,,,,,,15,,55,80
37020,note_on,,0,0,18,,,,,,,,,,,,,,,,15,,66,80
37020,note_on,,1,0,14,,,,,,,,,,,,,,,,10,,81,80
37020,note_on,,0,0,18,,,,,,,,,,,,,,,,15,,62,80
37049,note_on,,29,0,7,,,,,,,,,,,,,,,,2,,62,0
37049,note_on,,29,0,8,,,,,,,,,,,,,,,,3,,62,0
37049,note_on,,29,0,9,,,,,,,,,,,,,,,,4,,50,0
37050,note_on,,1,0,9,,,,,,,,,,,,,,,,4,,50,80
37050,note_on,,1,0,8,,,,,,,,,,,,,,,,3,,62,80
37050,note_on,,1,0,7,,,,,,,,,,,,,,,,2,,62,80
37079,note_on,,59,0,10,,,,,,,,,,,,,,,,5,,78,0
37079,note_on,,59,0,17,,,,,,,,,,,,,,,,13,,50,0
37079,note_on,,599,0,12,,,,,,,,,,,,,,,,7,,62,0
37079,note_on,,59,0,11,,,,,,,,,,,,,,,,6,,69,0
37079,note_on,,59,0,18,,,,,,,,,,,,,,,,15,,50,0
37079,note_on,,29,0,7,,,,,,,,,,,,,,,,2,,62,0
37079,note_on,,0,0,18,,,,,,,,,,,,,,,,15,,66,0
37079,note_on,,0,0,18,,,,,,,,,,,,,,,,15,,62,0
37079,note_on,,59,0,5,,,,,,,,,,,,,,,,0,,78,0
37079,note_on,,59,0,13,,,,,,,,,,,,,,,,8,,50,0
37079,note_on,,0,0,18,,,,,,,,,,,,,,,,15,,55,0
37079,note_on,,59,0,16,,,,,,,,,,,,,,,,12,,62,0
37079,note_on,,59,0,6,,,,,,,,,,,,,,,,1,,50,0
37079,note_on,,29,0,9,,,,,,,,,,,,,,,,4,,50,0
37079,note_on,,59,0,15,,,,,,,,,,,,,,,,11,,78,0
37079,note_on,,59,0,14,,,,,,,,,,,,,,,,10,,81,0
37079,note_on,,29,0,8,,,,,,,,,,,,,,,,3,,62,0
37079,note_on,,0,0,18,,,,,,,,,,,,,,,,15,,74,0
37080,note_on,,1,0,9,,,,,,,,,,,,,,,,4,,50,80
37080,note_on,,1,0,7,,,,,,,,,,,,,,,,2,,66,80
37080,note_on,,1,0,8,,,,,,,,,,,,,,,,3,,62,80
37139,note_on,,59,0,7,,,,,,,,,,,,,,,,2,,66,0
37139,note_on,,59,0,9,,,,,,,,,,,,,,,,4,,50,0
37139,note_on,,59,0,8,,,,,,,,,,,,,,,,3,,62,0
37140,note_on,,61,0,17,,,,,,,,,,,,,,,,13,,50,80
37140,note_on,,1,0,9,,,,,,,,,,,,,,,,4,,50,80
37140,note_on,,61,0,5,,,,,,,,,,,,,,,,0,,69,80
37140,note_on,,0,0,18,,,,,,,,,,,,,,,,15,,57,80
37140,note_on,,0,0,18,,,,,,,,,,,,,,,,15,,62,80
37140,note_on,,0,0,18,,,,,,,,,,,,,,,,15,,66,80
37140,note_on,,1,0,8,,,,,,,,,,,,,,,,3,,62,80
37140,note_on,,61,0,16,,,,,,,,,,,,,,,,12,,66,80
37140,note_on,,61,0,18,,,,,,,,,,,,,,,,15,,50,80
37140,note_on,,61,0,6,,,,,,,,,,,,,,,,1,,50,80
37140,note_on,,1,0,7,,,,,,,,,,,,,,,,2,,69,80
37140,note_on,,61,0,13,,,,,,,,,,,,,,,,8,,50,80
37140,note_on,,61,0,12,,,,,,,,,,,,,,,,7,,66,80
37140,note_on,,61,0,10,,,,,,,,,,,,,,,,5,,69,80
37140,note_on,,61,0,15,,,,,,,,,,,,,,,,11,,81,80
37199,note_on,,59,0,6,,,,,,,,,,,,,,,,1,,50,0
37199,note_on,,59,0,15,,,,,,,,,,,,,,,,11,,81,0
37199,note_on,,59,0,16,,,,,,,,,,,,,,,,12,,66,0
37199,note_on,,59,0,13,,,,,,,,,,,,,,,,8,,50,0
37199,note_on,,59,0,18,,,,,,,,,,,,,,,,15,,50,0
37199,note_on,,0,0,18,,,,,,,,,,,,,,,,15,,66,0
37199,note_on,,0,0,18,,,,,,,,,,,,,,,,15,,62,0
37199,note_on,,0,0,18,,,,,,,,,,,,,,,,15,,57,0
37199,note_on,,59,0,17,,,,,,,,,,,,,,,,13,,50,0
37199,note_on,,59,0,7,,,,,,,,,,,,,,,,2,,69,0
37199,note_on,,59,0,5,,,,,,,,,,,,,,,,0,,69,0
37199,note_on,,59,0,8,,,,,,,,,,,,,,,,3,,62,0
37199,note_on,,59,0,9,,,,,,,,,,,,,,,,4,,50,0
37199,note_on,,59,0,12,,,,,,,,,,,,,,,,7,,66,0
37199,note_on,,59,0,10,,,,,,,,,,,,,,,,5,,69,0
37200,note_on,,1,0,8,,,,,,,,,,,,,,,,3,,66,80
37200,note_on,,1,0,16,,,,,,,,,,,,,,,,12,,69,80
37200,note_on,,1,0,6,,,,,,,,,,,,,,,,1,,62,80
37200,note_on,,1,0,10,,,,,,,,,,,,,,,,5,,69,80
37200,note_on,,1,0,12,,,,,,,,,,,,,,,,7,,66,80
37200,note_on,,1,0,5,,,,,,,,,,,,,,,,0,,69,80
37200,note_on,,1,0,13,,,,,,,,,,,,,,,,8,,62,80
37200,note_on,,1,0,9,,,,,,,,,,,,,,,,4,,50,80
37200,note_on,,0,0,18,,,,,,,,,,,,,,,,15,,69,80
37200,note_on,,1,0,15,,,,,,,,,,,,,,,,11,,78,80
37200,note_on,,1,0,18,,,,,,,,,,,,,,,,15,,62,80
37200,note_on,,1,0,17,,,,,,,,,,,,,,,,13,,62,80
37200,note_on,,0,0,18,,,,,,,,,,,,,,,,15,,66,80
37200,note_on,,1,0,7,,,,,,,,,,,,,,,,2,,74,80
37229,note_on,,29,0,15,,,,,,,,,,,,,,,,11,,78,0
37230,note_on,,1,0,15,,,,,,,,,,,,,,,,11,,76,80
37259,note_on,,29,0,15,,,,,,,,,,,,,,,,11,,76,0
37259,note_on,,59,0,9,,,,,,,,,,,,,,,,4,,50,0
37260,note_on,,1,0,9,,,,,,,,,,,,,,,,4,,50,80
37260,note_on,,1,0,15,,,,,,,,,,,,,,,,11,,78,80
37289,note_on,,29,0,15,,,,,,,,,,,,,,,,11,,78,0
37290,note_on,,1,0,15,,,,,,,,,,,,,,,,11,,79,80
37319,note_on,,59,0,9,,,,,,,,,,,,,,,,4,,50,0
37319,note_on,,119,0,13,,,,,,,,,,,,,,,,8,,62,0
37319,note_on,,119,0,10,,,,,,,,,,,,,,,,5,,69,0
37319,note_on,,119,0,7,,,,,,,,,,,,,,,,2,,74,0
37319,note_on,,119,0,6,,,,,,,,,,,,,,,,1,,62,0
37319,note_on,,29,0,15,,,,,,,,,,,,,,,,11,,79,0
37319,note_on,,119,0,8,,,,,,,,,,,,,,,,3,,66,0
37319,note_on,,119,0,16,,,,,,,,,,,,,,,,12,,69,0
37319,note_on,,119,0,5,,,,,,,,,,,,,,,,0,,69,0
37319,note_on,,119,0,18,,,,,,,,,,,,,,,,15,,62,0
37319,note_on,,0,0,18,,,,,,,,,,,,,,,,15,,66,0
37319,note_on,,119,0,12,,,,,,,,,,,,,,,,7,,66,0
37319,note_on,,119,0,17,,,,,,,,,,,,,,,,13,,62,0
37319,note_on,,0,0,18,,,,,,,,,,,,,,,,15,,69,0
37320,note_on,,1,0,8,,,,,,,,,,,,,,,,3,,74,80
37320,note_on,,1,0,15,,,,,,,,,,,,,,,,11,,81,80
37320,note_on,,1,0,9,,,,,,,,,,,,,,,,4,,50,80
37320,note_on,,1,0,12,,,,,,,,,,,,,,,,7,,62,80
37320,note_on,,241,0,11,,,,,,,,,,,,,,,,6,,69,80
37320,note_on,,1,0,17,,,,,,,,,,,,,,,,13,,54,80
37320,note_on,,0,0,18,,,,,,,,,,,,,,,,15,,57,80
37320,note_on,,0,0,18,,,,,,,,,,,,,,,,15,,62,80
37320,note_on,,0,0,18,,,,,,,,,,,,,,,,15,,69,80
37320,note_on,,1,0,5,,,,,,,,,,,,,,,,0,,74,80
37320,note_on,,0,0,18,,,,,,,,,,,,,,,,15,,74,80
37320,note_on,,1,0,18,,,,,,,,,,,,,,,,15,,54,80
37320,note_on,,241,0,14,,,,,,,,,,,,,,,,10,,81,80
37320,note_on,,1,0,16,,,,,,,,,,,,,,,,12,,62,80
37320,note_on,,1,0,13,,,,,,,,,,,,,,,,8,,54,80
37320,note_on,,1,0,6,,,,,,,,,,,,,,,,1,,54,80
37320,note_on,,1,0,10,,,,,,,,,,,,,,,,5,,74,80
37320,note_on,,1,0,7,,,,,,,,,,,,,,,,2,,81,80
37349,note_on,,29,0,15,,,,,,,,,,,,,,,,11,,81,0
37350,note_on,,1,0,15,,,,,,,,,,,,,,,,11,,79,80
37379,note_on,,29,0,15,,,,,,,,,,,,,,,,11,,79,0
37379,note_on,,59,0,9,,,,,,,,,,,,,,,,4,,50,0
37380,note_on,,1,0,9,,,,,,,,,,,,,,,,4,,50,80
37380,note_on,,1,0,15,,,,,,,,,,,,,,,,11,,78,80
37409,note_on,,29,0,15,,,,,,,,,,,,,,,,11,,78,0
37410,note_on,,1,0,15,,,,,,,,,,,,,,,,11,,76,80
37439,note_on,,119,0,11,,,,,,,,,,,,,,,,6,,69,0
37439,note_on,,119,0,12,,,,,,,,,,,,,,,,7,,62,0
37439,note_on,,119,0,18,,,,,,,,,,,,,,,,15,,54,0
37439,note_on,,119,0,13,,,,,,,,,,,,,,,,8,,54,0
37439,note_on,,119,0,7,,,,,,,,,,,,,,,,2,,81,0
37439,note_on,,0,0,18,,,,,,,,,,,,,,,,15,,74,0
37439,note_on,,119,0,6,,,,,,,,,,,,,,,,1,,54,0
37439,note_on,,0,0,18,,,,,,,,,,,,,,,,15,,62,0
37439,note_on,,29,0,15,,,,,,,,,,,,,,,,11,,76,0
37439,note_on,,119,0,10,,,,,,,,,,,,,,,,5,,74,0
37439,note_on,,119,0,16,,,,,,,,,,,,,,,,12,,62,0
37439,note_on,,119,0,8,,,,,,,,,,,,,,,,3,,74,0
37439,note_on,,0,0,18,,,,,,,,,,,,,,,,15,,69,0
37439,note_on,,119,0,14,,,,,,,,,,,,,,,,10,,81,0
37439,note_on,,119,0,5,,,,,,,,,,,,,,,,0,,74,0
37439,note_on,,119,0,17,,,,,,,,,,,,,,,,13,,54,0
37439,note_on,,0,0,18,,,,,,,,,,,,,,,,15,,57,0
37439,note_on,,59,0,9,,,,,,,,,,,,,,,,4,,50,0
37440,note_on,,1,0,7,,,,,,,,,,,,,,,,2,,86,80
37440,note_on,,1,0,5,,,,,,,,,,,,,,,,0,,78,80
37440,note_on,,1,0,16,,,,,,,,,,,,,,,,12,,66,80
37440,note_on,,1,0,9,,,,,,,,,,,,,,,,4,,50,80
37440,note_on,,1,0,15,,,,,,,,,,,,,,,,11,,74,80
37440,note_on,,1,0,17,,,,,,,,,,,,,,,,13,,59,80
37440,note_on,,1,0,14,,,,,,,,,,,,,,,,10,,86,80
37440,note_on,,1,0,12,,,,,,,,,,,,,,,,7,,62,80
37440,note_on,,0,0,18,,,,,,,,,,,,,,,,15,,62,80
37440,note_on,,1,0,8,,,,,,,,,,,,,,,,3,,78,80
37440,note_on,,1,0,13,,,,,,,,,,,,,,,,8,,59,80
37440,note_on,,1,0,11,,,,,,,,,,,,,,,,6,,74,80
37440,note_on,,1,0,18,,,,,,,,,,,,,,,,15,,59,80
37440,note_on,,0,0,18,,,,,,,,,,,,,,,,15,,66,80
37440,note_on,,1,0,6,,,,,,,,,,,,,,,,1,,59,80
37440,note_on,,1,0,10,,,,,,,,,,,,,,,,5,,78,80
37469,note_on,,29,0,15,,,,,,,,,,,,,,,,11,,74,0
37470,note_on,,1,0,15,,,,,,,,,,,,,,,,11,,73,80
37499,note_on,,29,0,15,,,,,,,,,,,,,,,,11,,73,0
37500,note_on,,1,0,15,,,,,,,,,,,,,,,,11,,74,80
37529,note_on,,29,0,15,,,,,,,,,,,,,,,,11,,74,0
37530,note_on,,1,0,15,,,,,,,,,,,,,,,,11,,76,80
37559,note_on,,119,0,16,,,,,,,,,,,,,,,,12,,66,0
37559,note_on,,119,0,10,,,,,,,,,,,,,,,,5,,78,0
37559,note_on,,119,0,12,,,,,,,,,,,,,,,,7,,62,0
37559,note_on,,119,0,8,,,,,,,,,,,,,,,,3,,78,0
37559,note_on,,29,0,15,,,,,,,,,,,,,,,,11,,76,0
37559,note_on,,119,0,6,,,,,,,,,,,,,,,,1,,59,0
37559,note_on,,119,0,14,,,,,,,,,,,,,,,,10,,86,0
37559,note_on,,0,0,18,,,,,,,,,,,,,,,,15,,62,0
37559,note_on,,119,0,18,,,,,,,,,,,,,,,,15,,59,0
37559,note_on,,119,0,13,,,,,,,,,,,,,,,,8,,59,0
37559,note_on,,119,0,11,,,,,,,,,,,,,,,,6,,74,0
37559,note_on,,119,0,9,,,,,,,,,,,,,,,,4,,50,0
37559,note_on,,119,0,7,,,,,,,,,,,,,,,,2,,86,0
37559,note_on,,0,0,18,,,,,,,,,,,,,,,,15,,66,0
37559,note_on,,119,0,17,,,,,,,,,,,,,,,,13,,59,0
37559,note_on,,119,0,5,,,,,,,,,,,,,,,,0,,78,0
37560,note_on,,0,0,18,,,,,,,,,,,,,,,,15,,69,80
37560,note_on,,1,0,15,,,,,,,,,,,,,,,,11,,74,80
37560,note_on,,1,0,12,,,,,,,,,,,,,,,,7,,62,80
37560,note_on,,1,0,17,,,,,,,,,,,,,,,,13,,50,80
37560,note_on,,1,0,13,,,,,,,,,,,,,,,,8,,50,80
37560,note_on,,1,0,11,,,,,,,,,,,,,,,,6,,66,80
37560,note_on,,1,0,18,,,,,,,,,,,,,,,,15,,50,80
37560,note_on,,1,0,16,,,,,,,,,,,,,,,,12,,66,80
37560,note_on,,1,0,9,,,,,,,,,,,,,,,,4,,50,80
37560,note_on,,1,0,6,,,,,,,,,,,,,,,,1,,50,80
37560,note_on,,1,0,14,,,,,,,,,,,,,,,,10,,78,80
37560,note_on,,1,0,8,,,,,,,,,,,,,,,,3,,74,80
37560,note_on,,1,0,10,,,,,,,,,,,,,,,,5,,74,80
37560,note_on,,0,0,18,,,,,,,,,,,,,,,,15,,54,80
37560,note_on,,0,0,18,,,,,,,,,,,,,,,,15,,62,80
37560,note_on,,0,0,18,,,,,,,,,,,,,,,,15,,66,80
37560,note_on,,1,0,7,,,,,,,,,,,,,,,,2,,78,80
37560,note_on,,1,0,5,,,,,,,,,,,,,,,,0,,74,80
37589,note_on,,29,0,15,,,,,,,,,,,,,,,,11,,74,0
37590,note_on,,1,0,15,,,,,,,,,,,,,,,,11,,73,80
37619,note_on,,29,0,15,,,,,,,,,,,,,,,,11,,73,0
37620,note_on,,1,0,15,,,,,,,,,,,,,,,,11,,71,80
37649,note_on,,29,0,15,,,,,,,,,,,,,,,,11,,71,0
37649,note_on,,89,0,9,,,,,,,,,,,,,,,,4,,50,0
37650,note_on,,1,0,15,,,,,,,,,,,,,,,,11,,69,80
37650,note_on,,1,0,9,,,,,,,,,,,,,,,,4,,50,80
37679,note_on,,119,0,6,,,,,,,,,,,,,,,,1,,50,0
37679,note_on,,0,0,18,,,,,,,,,,,,,,,,15,,69,0
37679,note_on,,119,0,18,,,,,,,,,,,,,,,,15,,50,0
37679,note_on,,119,0,13,,,,,,,,,,,,,,,,8,,50,0
37679,note_on,,0,0,18,,,,,,,,,,,,,,,,15,,54,0
37679,note_on,,119,0,5,,,,,,,,,,,,,,,,0,,74,0
37679,note_on,,119,0,10,,,,,,,,,,,,,,,,5,,74,0
37679,note_on,,119,0,7,,,,,,,,,,,,,,,,2,,78,0
37679,note_on,,119,0,14,,,,,,,,,,,,,,,,10,,78,0
37679,note_on,,119,0,12,,,,,,,,,,,,,,,,7,,62,0
37679,note_on,,29,0,15,,,,,,,,,,,,,,,,11,,69,0
37679,note_on,,119,0,11,,,,,,,,,,,,,,,,6,,66,0
37679,note_on,,119,0,8,,,,,,,,,,,,,,,,3,,74,0
37679,note_on,,29,0,9,,,,,,,,,,,,,,,,4,,50,0
37679,note_on,,119,0,16,,,,,,,,,,,,,,,,12,,66,0
37679,note_on,,119,0,17,,,,,,,,,,,,,,,,13,,50,0
37679,note_on,,0,0,18,,,,,,,,,,,,,,,,15,,66,0
37679,note_on,,0,0,18,,,,,,,,,,,,,,,,15,,62,0
37680,note_on,,0,0,18,,,,,,,,,,,,,,,,15,,62,80
37680,note_on,,0,0,18,,,,,,,,,,,,,,,,15,,67,80
37680,note_on,,0,0,18,,,,,,,,,,,,,,,,15,,71,80
37680,note_on,,1,0,9,,,,,,,,,,,,,,,,4,,50,80
37680,note_on,,1,0,10,,,,,,,,,,,,,,,,5,,74,80
37680,note_on,,1,0,6,,,,,,,,,,,,,,,,1,,55,80
37680,note_on,,1,0,5,,,,,,,,,,,,,,,,0,,74,80
37680,note_on,,1,0,7,,,,,,,,,,,,,,,,2,,83,80
37680,note_on,,1,0,14,,,,,,,,,,,,,,,,10,,83,80
37680,note_on,,1,0,12,,,,,,,,,,,,,,,,7,,59,80
37680,note_on,,1,0,11,,,,,,,,,,,,,,,,6,,71,80
37680,note_on,,1,0,8,,,,,,,,,,,,,,,,3,,74,80
37680,note_on,,1,0,16,,,,,,,,,,,,,,,,12,,62,80
37680,note_on,,1,0,17,,,,,,,,,,,,,,,,13,,55,80
37680,note_on,,1,0,13,,,,,,,,,,,,,,,,8,,55,80
37680,note_on,,0,0,18,,,,,,,,,,,,,,,,15,,59,80
37680,note_on,,1,0,18,,,,,,,,,,,,,,,,15,,55,80
37680,note_on,,1,0,15,,,,,,,,,,,,,,,,11,,67,80
37709,note_on,,29,0,15,,,,,,,,,,,,,,,,11,,67,0
37710,note_on,,1,0,15,,,,,,,,,,,,,,,,11,,69,80
37739,note_on,,29,0,15,,,,,,,,,,,,,,,,11,,69,0
37739,note_on,,59,0,9,,,,,,,,,,,,,,,,4,,50,0
37740,note_on,,1,0,15,,,,,,,,,,,,,,,,11,,71,80
37740,note_on,,1,0,9,,,,,,,,,,,,,,,,4,,50,80
37769,note_on,,29,0,15,,,,,,,,,,,,,,,,11,,71,0
37769,note_on,,29,0,9,,,,,,,,,,,,,,,,4,,50,0
37770,note_on,,1,0,9,,,,,,,,,,,,,,,,4,,50,80
37770,note_on,,1,0,15,,,,,,,,,,,,,,,,11,,67,80
37799,note_on,,119,0,11,,,,,,,,,,,,,,,,6,,71,0
37799,note_on,,29,0,9,,,,,,,,,,,,,,,,4,,50,0
37799,note_on,,119,0,12,,,,,,,,,,,,,,,,7,,59,0
37799,note_on,,29,0,15,,,,,,,,,,,,,,,,11,,67,0
37799,note_on,,119,0,5,,,,,,,,,,,,,,,,0,,74,0
37799,note_on,,119,0,14,,,,,,,,,,,,,,,,10,,83,0
37799,note_on,,119,0,7,,,,,,,,,,,,,,,,2,,83,0
37799,note_on,,119,0,8,,,,,,,,,,,,,,,,3,,74,0
37799,note_on,,119,0,13,,,,,,,,,,,,,,,,8,,55,0
37799,note_on,,119,0,18,,,,,,,,,,,,,,,,15,,55,0
37799,note_on,,119,0,6,,,,,,,,,,,,,,,,1,,55,0
37799,note_on,,0,0,18,,,,,,,,,,,,,,,,15,,59,0
37799,note_on,,119,0,10,,,,,,,,,,,,,,,,5,,74,0
37799,note_on,,119,0,17,,,,,,,,,,,,,,,,13,,55,0
37799,note_on,,0,0,18,,,,,,,,,,,,,,,,15,,62,0
37799,note_on,,0,0,18,,,,,,,,,,,,,,,,15,,67,0
37799,note_on,,119,0,16,,,,,,,,,,,,,,,,12,,62,0
37799,note_on,,0,0,18,,,,,,,,,,,,,,,,15,,71,0
37800,note_on,,1,0,5,,,,,,,,,,,,,,,,0,,69,80
37800,note_on,,0,0,18,,,,,,,,,,,,,,,,15,,74,80
37800,note_on,,0,0,18,,,,,,,,,,,,,,,,15,,57,80
37800,note_on,,1,0,18,,,,,,,,,,,,,,,,15,,54,80
37800,note_on,,1,0,14,,,,,,,,,,,,,,,,10,,74,80
37800,note_on,,1,0,7,,,,,,,,,,,,,,,,2,,74,80
37800,note_on,,1,0,8,,,,,,,,,,,,,,,,3,,74,80
37800,note_on,,0,0,18,,,,,,,,,,,,,,,,15,,69,80
37800,note_on,,0,0,18,,,,,,,,,,,,,,,,15,,62,80
37800,note_on,,1,0,17,,,,,,,,,,,,,,,,13,,54,80
37800,note_on,,1,0,10,,,,,,,,,,,,,,,,5,,69,80
37800,note_on,,1,0,9,,,,,,,,,,,,,,,,4,,50,80
37800,note_on,,1,0,13,,,,,,,,,,,,,,,,8,,54,80
37800,note_on,,1,0,11,,,,,,,,,,,,,,,,6,,62,80
37800,note_on,,1,0,6,,,,,,,,,,,,,,,,1,,54,80
37800,note_on,,1,0,16,,,,,,,,,,,,,,,,12,,62,80
37800,note_on,,1,0,12,,,,,,,,,,,,,,,,7,,57,80
37800,note_on,,1,0,15,,,,,,,,,,,,,,,,11,,69,80
37859,note_on,,59,0,13,,,,,,,,,,,,,,,,8,,54,0
37859,note_on,,59,0,12,,,,,,,,,,,,,,,,7,,57,0
37859,note_on,,59,0,17,,,,,,,,,,,,,,,,13,,54,0
37859,note_on,,59,0,6,,,,,,,,,,,,,,,,1,,54,0
37859,note_on,,59,0,15,,,,,,,,,,,,,,,,11,,69,0
37859,note_on,,59,0,18,,,,,,,,,,,,,,,,15,,54,0
37859,note_on,,59,0,5,,,,,,,,,,,,,,,,0,,69,0
37859,note_on,,59,0,9,,,,,,,,,,,,,,,,4,,50,0
37859,note_on,,59,0,10,,,,,,,,,,,,,,,,5,,69,0
37860,note_on,,1,0,12,,,,,,,,,,,,,,,,7,,57,80
37860,note_on,,1,0,15,,,,,,,,,,,,,,,,11,,81,80
37860,note_on,,1,0,9,,,,,,,,,,,,,,,,4,,50,80
37860,note_on,,1,0,18,,,,,,,,,,,,,,,,15,,54,80
37860,note_on,,1,0,6,,,,,,,,,,,,,,,,1,,54,80
37860,note_on,,1,0,10,,,,,,,,,,,,,,,,5,,69,80
37860,note_on,,1,0,5,,,,,,,,,,,,,,,,0,,69,80
37860,note_on,,1,0,17,,,,,,,,,,,,,,,,13,,54,80
37860,note_on,,1,0,13,,,,,,,,,,,,,,,,8,,54,80
37919,note_on,,59,0,10,,,,,,,,,,,,,,,,5,,69,0
37919,note_on,,0,0,18,,,,,,,,,,,,,,,,15,,74,0
37919,note_on,,59,0,18,,,,,,,,,,,,,,,,15,,57,0
37919,note_on,,59,0,12,,,,,,,,,,,,,,,,7,,57,0
37919,note_on,,119,0,8,,,,,,,,,,,,,,,,3,,74,0
37919,note_on,,59,0,6,,,,,,,,,,,,,,,,1,,54,0
37919,note_on,,119,0,16,,,,,,,,,,,,,,,,12,,62,0
37919,note_on,,59,0,9,,,,,,,,,,,,,,,,4,,50,0
37919,note_on,,119,0,11,,,,,,,,,,,,,,,,6,,62,0
37919,note_on,,0,0,18,,,,,,,,,,,,,,,,15,,62,0
37919,note_on,,0,0,18,,,,,,,,,,,,,,,,15,,54,0
37919,note_on,,59,0,17,,,,,,,,,,,,,,,,13,,54,0
37919,note_on,,0,0,18,,,,,,,,,,,,,,,,15,,69,0
37919,note_on,,119,0,7,,,,,,,,,,,,,,,,2,,74,0
37919,note_on,,59,0,15,,,,,,,,,,,,,,,,11,,81,0
37919,note_on,,119,0,14,,,,,,,,,,,,,,,,10,,74,0
37919,note_on,,59,0,13,,,,,,,,,,,,,,,,8,,54,0
37919,note_on,,59,0,5,,,,,,,,,,,,,,,,0,,69,0
37920,note_on,,1,0,6,,,,,,,,,,,,,,,,1,,52,80
37920,note_on,,1,0,14,,,,,,,,,,,,,,,,10,,79,80
37920,note_on,,1,0,9,,,,,,,,,,,,,,,,4,,45,80
37920,note_on,,1,0,5,,,,,,,,,,,,,,,,0,,73,80
37920,note_on,,1,0,11,,,,,,,,,,,,,,,,6,,67,80
37920,note_on,,1,0,8,,,,,,,,,,,,,,,,3,,76,80
37920,note_on,,1,0,10,,,,,,,,,,,,,,,,5,,73,80
37920,note_on,,0,0,18,,,,,,,,,,,,,,,,15,,64,80
37920,note_on,,0,0,18,,,,,,,,,,,,,,,,15,,52,80
37920,note_on,,1,0,18,,,,,,,,,,,,,,,,15,,76,80
37920,note_on,,0,0,18,,,,,,,,,,,,,,,,15,,73,80
37920,note_on,,1,0,12,,,,,,,,,,,,,,,,7,,55,80
37920,note_on,,1,0,13,,,,,,,,,,,,,,,,8,,52,80
37920,note_on,,1,0,15,,,,,,,,,,,,,,,,11,,85,80
37920,note_on,,1,0,17,,,,,,,,,,,,,,,,13,,52,80
37920,note_on,,1,0,7,,,,,,,,,,,,,,,,2,,79,80
37920,note_on,,0,0,18,,,,,,,,,,,,,,,,15,,67,80
37920,note_on,,1,0,16,,,,,,,,,,,,,,,,12,,64,80
38039,note_on,,119,0,9,,,,,,,,,,,,,,,,4,,45,0
38039,note_on,,119,0,17,,,,,,,,,,,,,,,,13,,52,0
38039,note_on,,119,0,18,,,,,,,,,,,,,,,,15,,76,0
38039,note_on,,119,0,8,,,,,,,,,,,,,,,,3,,76,0
38039,note_on,,0,0,18,,,,,,,,,,,,,,,,15,,52,0
38039,note_on,,119,0,15,,,,,,,,,,,,,,,,11,,85,0
38039,note_on,,119,0,13,,,,,,,,,,,,,,,,8,,52,0
38039,note_on,,119,0,10,,,,,,,,,,,,,,,,5,,73,0
38039,note_on,,119,0,6,,,,,,,,,,,,,,,,1,,52,0
38039,note_on,,119,0,16,,,,,,,,,,,,,,,,12,,64,0
38039,note_on,,119,0,7,,,,,,,,,,,,,,,,2,,79,0
38039,note_on,,0,0,18,,,,,,,,,,,,,,,,15,,64,0
38039,note_on,,0,0,18,,,,,,,,,,,,,,,,15,,67,0
38039,note_on,,0,0,18,,,,,,,,,,,,,,,,15,,73,0
38039,note_on,,119,0,14,,,,,,,,,,,,,,,,10,,79,0
38039,note_on,,119,0,5,,,,,,,,,,,,,,,,0,,73,0
38039,note_on,,119,0,12,,,,,,,,,,,,,,,,7,,55,0
38039,note_on,,119,0,11,,,,,,,,,,,,,,,,6,,67,0
38040,note_on,,0,0,18,,,,,,,,,,,,,,,,15,,78,80
38040,note_on,,0,0,18,,,,,,,,,,,,,,,,15,,57,80
38040,note_on,,1,0,12,,,,,,,,,,,,,,,,7,,57,80
38040,note_on,,1,0,15,,,,,,,,,,,,,,,,11,,86,80
38040,note_on,,1,0,14,,,,,,,,,,,,,,,,10,,78,80
38040,note_on,,0,0,18,,,,,,,,,,,,,,,,15,,74,80
38040,note_on,,0,0,18,,,,,,,,,,,,,,,,15,,69,80
38040,note_on,,1,0,9,,,,,,,,,,,,,,,,4,,50,80
38040,note_on,,1,0,5,,,,,,,,,,,,,,,,0,,74,80
38040,note_on,,1,0,16,,,,,,,,,,,,,,,,12,,69,80
38040,note_on,,1,0,11,,,,,,,,,,,,,,,,6,,66,80
38040,note_on,,1,0,17,,,,,,,,,,,,,,,,13,,50,80
38040,note_on,,1,0,18,,,,,,,,,,,,,,,,15,,50,80
38040,note_on,,1,0,13,,,,,,,,,,,,,,,,8,,50,80
38040,note_on,,1,0,8,,,,,,,,,,,,,,,,3,,74,80
38040,note_on,,1,0,7,,,,,,,,,,,,,,,,2,,78,80
38040,note_on,,1,0,10,,,,,,,,,,,,,,,,5,,74,80
38040,note_on,,1,0,6,,,,,,,,,,,,,,,,1,,50,80
38099,note_on,,59,0,15,,,,,,,,,,,,,,,,11,,86,0
38099,note_on,,59,0,17,,,,,,,,,,,,,,,,13,,50,0
38099,note_on,,59,0,13,,,,,,,,,,,,,,,,8,,50,0
38099,note_on,,59,0,12,,,,,,,,,,,,,,,,7,,57,0
38099,note_on,,59,0,14,,,,,,,,,,,,,,,,10,,78,0
38099,note_on,,59,0,6,,,,,,,,,,,,,,,,1,,50,0
38099,note_on,,59,0,10,,,,,,,,,,,,,,,,5,,74,0
38099,note_on,,59,0,11,,,,,,,,,,,,,,,,6,,66,0
38099,note_on,,59,0,5,,,,,,,,,,,,,,,,0,,74,0
38099,note_on,,59,0,18,,,,,,,,,,,,,,,,15,,50,0
38099,note_on,,59,0,7,,,,,,,,,,,,,,,,2,,78,0
38099,note_on,,59,0,8,,,,,,,,,,,,,,,,3,,74,0
38100,note_on,,1,0,13,,,,,,,,,,,,,,,,8,,50,80
38100,note_on,,1,0,11,,,,,,,,,,,,,,,,6,,64,80
38100,note_on,,1,0,12,,,,,,,,,,,,,,,,7,,57,80
38100,note_on,,1,0,17,,,,,,,,,,,,,,,,13,,50,80
38100,note_on,,1,0,15,,,,,,,,,,,,,,,,11,,86,80
38100,note_on,,1,0,5,,,,,,,,,,,,,,,,0,,74,80
38100,note_on,,1,0,8,,,,,,,,,,,,,,,,3,,69,80
38100,note_on,,1,0,6,,,,,,,,,,,,,,,,1,,50,80
38100,note_on,,1,0,10,,,,,,,,,,,,,,,,5,,74,80
38100,note_on,,1,0,14,,,,,,,,,,,,,,,,10,,76,80
38100,note_on,,1,0,18,,,,,,,,,,,,,,,,15,,50,80
38100,note_on,,1,0,7,,,,,,,,,,,,,,,,2,,76,80
38159,note_on,,59,0,15,,,,,,,,,,,,,,,,11,,86,0
38159,note_on,,119,0,9,,,,,,,,,,,,,,,,4,,50,0
38159,note_on,,119,0,16,,,,,,,,,,,,,,,,12,,69,0
38159,note_on,,59,0,13,,,,,,,,,,,,,,,,8,,50,0
38159,note_on,,59,0,8,,,,,,,,,,,,,,,,3,,69,0
38159,note_on,,59,0,14,,,,,,,,,,,,,,,,10,,76,0
38159,note_on,,59,0,11,,,,,,,,,,,,,,,,6,,64,0
38159,note_on,,59,0,17,,,,,,,,,,,,,,,,13,,50,0
38159,note_on,,59,0,10,,,,,,,,,,,,,,,,5,,74,0
38159,note_on,,59,0,7,,,,,,,,,,,,,,,,2,,76,0
38159,note_on,,59,0,6,,,,,,,,,,,,,,,,1,,50,0
38159,note_on,,59,0,12,,,,,,,,,,,,,,,,7,,57,0
38159,note_on,,59,0,18,,,,,,,,,,,,,,,,15,,57,0
38159,note_on,,0,0,18,,,,,,,,,,,,,,,,15,,78,0
38159,note_on,,0,0,18,,,,,,,,,,,,,,,,15,,74,0
38159,note_on,,59,0,5,,,,,,,,,,,,,,,,0,,74,0
38159,note_on,,0,0,18,,,,,,,,,,,,,,,,15,,50,0
38159,note_on,,0,0,18,,,,,,,,,,,,,,,,15,,69,0
38160,note_on,,1,0,5,,,,,,,,,,,,,,,,0,,74,80
38160,note_on,,1,0,9,,,,,,,,,,,,,,,,4,,45,80
38160,note_on,,1,0,18,,,,,,,,,,,,,,,,15,,57,80
38160,note_on,,0,0,18,,,,,,,,,,,,,,,,15,,69,80
38160,note_on,,0,0,18,,,,,,,,,,,,,,,,15,,64,80
38160,note_on,,1,0,12,,,,,,,,,,,,,,,,7,,57,80
38160,note_on,,1,0,11,,,,,,,,,,,,,,,,6,,64,80
38160,note_on,,1,0,13,,,,,,,,,,,,,,,,8,,57,80
38160,note_on,,0,0,18,,,,,,,,,,,,,,,,15,,74,80
38160,note_on,,1,0,14,,,,,,,,,,,,,,,,10,,76,80
38160,note_on,,0,0,18,,,,,,,,,,,,,,,,15,,76,80
38160,note_on,,1,0,7,,,,,,,,,,,,,,,,2,,76,80
38160,note_on,,1,0,15,,,,,,,,,,,,,,,,11,,86,80
38160,note_on,,1,0,16,,,,,,,,,,,,,,,,12,,69,80
38160,note_on,,1,0,17,,,,,,,,,,,,,,,,13,,57,80
38160,note_on,,1,0,6,,,,,,,,,,,,,,,,1,,57,80
38160,note_on,,1,0,10,,,,,,,,,,,,,,,,5,,74,80
38160,note_on,,1,0,8,,,,,,,,,,,,,,,,3,,69,80
38174,note_on,,14,0,14,,,,,,,,,,,,,,,,10,,76,0
38175,note_on,,1,0,14,,,,,,,,,,,,,,,,10,,78,80
38189,note_on,,14,0,14,,,,,,,,,,,,,,,,10,,78,0
38190,note_on,,1,0,14,,,,,,,,,,,,,,,,10,,76,80
38204,note_on,,14,0,14,,,,,,,,,,,,,,,,10,,76,0
38205,note_on,,1,0,14,,,,,,,,,,,,,,,,10,,78,80
38219,note_on,,59,0,8,,,,,,,,,,,,,,,,3,,69,0
38219,note_on,,14,0,14,,,,,,,,,,,,,,,,10,,78,0
38220,note_on,,1,0,14,,,,,,,,,,,,,,,,10,,76,80
38220,note_on,,1,0,8,,,,,,,,,,,,,,,,3,,69,80
38234,note_on,,14,0,14,,,,,,,,,,,,,,,,10,,76,0
38235,note_on,,1,0,14,,,,,,,,,,,,,,,,10,,78,80
38249,note_on,,29,0,8,,,,,,,,,,,,,,,,3,,69,0
38249,note_on,,14,0,14,,,,,,,,,,,,,,,,10,,78,0
38250,note_on,,1,0,8,,,,,,,,,,,,,,,,3,,69,80
38250,note_on,,1,0,14,,,,,,,,,,,,,,,,10,,76,80
38264,note_on,,14,0,14,,,,,,,,,,,,,,,,10,,76,0
38265,note_on,,1,0,14,,,,,,,,,,,,,,,,10,,78,80
38279,note_on,,119,0,15,,,,,,,,,,,,,,,,11,,86,0
38279,note_on,,119,0,16,,,,,,,,,,,,,,,,12,,69,0
38279,note_on,,0,0,18,,,,,,,,,,,,,,,,15,,64,0
38279,note_on,,0,0,18,,,,,,,,,,,,,,,,15,,69,0
38279,note_on,,119,0,10,,,,,,,,,,,,,,,,5,,74,0
38279,note_on,,29,0,8,,,,,,,,,,,,,,,,3,,69,0
38279,note_on,,119,0,18,,,,,,,,,,,,,,,,15,,74,0
38279,note_on,,119,0,5,,,,,,,,,,,,,,,,0,,74,0
38279,note_on,,14,0,14,,,,,,,,,,,,,,,,10,,78,0
38280,note_on,,1,0,18,,,,,,,,,,,,,,,,15,,73,80
38280,note_on,,1,0,14,,,,,,,,,,,,,,,,10,,76,80
38280,note_on,,0,0,18,,,,,,,,,,,,,,,,15,,69,80
38280,note_on,,1,0,16,,,,,,,,,,,,,,,,12,,69,80
38280,note_on,,1,0,5,,,,,,,,,,,,,,,,0,,73,80
38280,note_on,,0,0,18,,,,,,,,,,,,,,,,15,,64,80
38280,note_on,,1,0,15,,,,,,,,,,,,,,,,11,,85,80
38280,note_on,,1,0,10,,,,,,,,,,,,,,,,5,,73,80
38280,note_on,,1,0,8,,,,,,,,,,,,,,,,3,,69,80
38294,note_on,,14,0,14,,,,,,,,,,,,,,,,10,,76,0
38295,note_on,,1,0,14,,,,,,,,,,,,,,,,10,,78,80
38309,note_on,,14,0,14,,,,,,,,,,,,,,,,10,,78,0
38310,note_on,,1,0,14,,,,,,,,,,,,,,,,10,,74,80
38324,note_on,,14,0,14,,,,,,,,,,,,,,,,10,,74,0
38325,note_on,,1,0,14,,,,,,,,,,,,,,,,10,,76,80
38339,note_on,,14,0,14,,,,,,,,,,,,,,,,10,,76,0
38339,note_on,,179,0,9,,,,,,,,,,,,,,,,4,,45,0
38339,note_on,,179,0,7,,,,,,,,,,,,,,,,2,,76,0
38339,note_on,,59,0,8,,,,,,,,,,,,,,,,3,,69,0
38340,note_on,,1,0,8,,,,,,,,,,,,,,,,3,,69,80
38340,note_on,,1,0,14,,,,,,,,,,,,,,,,10,,81,80
38340,note_on,,1,0,7,,,,,,,,,,,,,,,,2,,74,80
38340,note_on,,1,0,9,,,,,,,,,,,,,,,,4,,45,80
38399,note_on,,59,0,14,,,,,,,,,,,,,,,,10,,81,0
38399,note_on,,119,0,16,,,,,,,,,,,,,,,,12,,69,0
38399,note_on,,239,0,6,,,,,,,,,,,,,,,,1,,57,0
38399,note_on,,119,0,10,,,,,,,,,,,,,,,,5,,73,0
38399,note_on,,239,0,11,,,,,,,,,,,,,,,,6,,64,0
38399,note_on,,239,0,12,,,,,,,,,,,,,,,,7,,57,0
38399,note_on,,0,0,18,,,,,,,,,,,,,,,,15,,76,0
38399,note_on,,0,0,18,,,,,,,,,,,,,,,,15,,73,0
38399,note_on,,0,0,18,,,,,,,,,,,,,,,,15,,69,0
38399,note_on,,0,0,18,,,,,,,,,,,,,,,,15,,64,0
38399,note_on,,119,0,15,,,,,,,,,,,,,,,,11,,85,0
38399,note_on,,239,0,13,,,,,,,,,,,,,,,,8,,57,0
38399,note_on,,59,0,9,,,,,,,,,,,,,,,,4,,45,0
38399,note_on,,59,0,7,,,,,,,,,,,,,,,,2,,74,0
38399,note_on,,119,0,18,,,,,,,,,,,,,,,,15,,57,0
38399,note_on,,59,0,8,,,,,,,,,,,,,,,,3,,69,0
38399,note_on,,239,0,17,,,,,,,,,,,,,,,,13,,57,0
38399,note_on,,119,0,5,,,,,,,,,,,,,,,,0,,73,0
38400,note_on,,1,0,10,,,,,,,,,,,,,,,,5,,74,80
38400,note_on,,1,0,13,,,,,,,,,,,,,,,,8,,50,80
38400,note_on,,0,0,18,,,,,,,,,,,,,,,,15,,66,80
38400,note_on,,1,0,14,,,,,,,,,,,,,,,,10,,78,80
38400,note_on,,0,0,18,,,,,,,,,,,,,,,,15,,69,80
38400,note_on,,0,0,18,,,,,,,,,,,,,,,,15,,74,80
38400,note_on,,0,0,18,,,,,,,,,,,,,,,,15,,57,80
38400,note_on,,1,0,18,,,,,,,,,,,,,,,,15,,50,80
38400,note_on,,1,0,5,,,,,,,,,,,,,,,,0,,74,80
38400,note_on,,1,0,9,,,,,,,,,,,,,,,,4,,50,80
38400,note_on,,1,0,8,,,,,,,,,,,,,,,,3,,66,80
38400,note_on,,1,0,6,,,,,,,,,,,,,,,,1,,50,80
38400,note_on,,1,0,12,,,,,,,,,,,,,,,,7,,57,80
38400,note_on,,1,0,7,,,,,,,,,,,,,,,,2,,74,80
38400,note_on,,1,0,11,,,,,,,,,,,,,,,,6,,66,80
38400,note_on,,1,0,17,,,,,,,,,,,,,,,,13,,50,80
38400,note_on,,1,0,16,,,,,,,,,,,,,,,,12,,69,80
38400,note_on,,1,0,15,,,,,,,,,,,,,,,,11,,86,80
38429,note_on,,29,0,14,,,,,,,,,,,,,,,,10,,78,0
38430,note_on,,1,0,14,,,,,,,,,,,,,,,,10,,76,80
38459,note_on,,59,0,15,,,,,,,,,,,,,,,,11,,86,0
38459,note_on,,29,0,14,,,,,,,,,,,,,,,,10,,76,0
38460,note_on,,1,0,15,,,,,,,,,,,,,,,,11,,74,80
38460,note_on,,1,0,14,,,,,,,,,,,,,,,,10,,78,80
38489,note_on,,29,0,14,,,,,,,,,,,,,,,,10,,78,0
38489,note_on,,29,0,15,,,,,,,,,,,,,,,,11,,74,0
38490,note_on,,1,0,14,,,,,,,,,,,,,,,,10,,79,80
38490,note_on,,1,0,15,,,,,,,,,,,,,,,,11,,76,80
38519,note_on,,29,0,14,,,,,,,,,,,,,,,,10,,79,0
38519,note_on,,119,0,12,,,,,,,,,,,,,,,,7,,57,0
38519,note_on,,0,0,18,,,,,,,,,,,,,,,,15,,57,0
38519,note_on,,0,0,18,,,,,,,,,,,,,,,,15,,74,0
38519,note_on,,119,0,18,,,,,,,,,,,,,,,,15,,50,0
38519,note_on,,119,0,9,,,,,,,,,,,,,,,,4,,50,0
38519,note_on,,0,0,18,,,,,,,,,,,,,,,,15,,69,0
38519,note_on,,0,0,18,,,,,,,,,,,,,,,,15,,66,0
38519,note_on,,119,0,7,,,,,,,,,,,,,,,,2,,74,0
38519,note_on,,119,0,6,,,,,,,,,,,,,,,,1,,50,0
38519,note_on,,119,0,13,,,,,,,,,,,,,,,,8,,50,0
38519,note_on,,119,0,17,,,,,,,,,,,,,,,,13,,50,0
38519,note_on,,119,0,10,,,,,,,,,,,,,,,,5,,74,0
38519,note_on,,119,0,16,,,,,,,,,,,,,,,,12,,69,0
38519,note_on,,119,0,8,,,,,,,,,,,,,,,,3,,66,0
38519,note_on,,119,0,5,,,,,,,,,,,,,,,,0,,74,0
38519,note_on,,29,0,15,,,,,,,,,,,,,,,,11,,76,0
38519,note_on,,119,0,11,,,,,,,,,,,,,,,,6,,66,0
38520,note_on,,1,0,14,,,,,,,,,,,,,,,,10,,81,80
38520,note_on,,1,0,15,,,,,,,,,,,,,,,,11,,78,80
38549,note_on,,29,0,15,,,,,,,,,,,,,,,,11,,78,0
38549,note_on,,29,0,14,,,,,,,,,,,,,,,,10,,81,0
38550,note_on,,1,0,15,,,,,,,,,,,,,,,,11,,76,80
38550,note_on,,1,0,14,,,,,,,,,,,,,,,,10,,79,80
38579,note_on,,29,0,15,,,,,,,,,,,,,,,,11,,76,0
38579,note_on,,29,0,14,,,,,,,,,,,,,,,,10,,79,0
38580,note_on,,1,0,14,,,,,,,,,,,,,,,,10,,78,80
38580,note_on,,1,0,15,,,,,,,,,,,,,,,,11,,74,80
38609,note_on,,29,0,15,,,,,,,,,,,,,,,,11,,74,0
38609,note_on,,29,0,14,,,,,,,,,,,,,,,,10,,78,0
38610,note_on,,1,0,14,,,,,,,,,,,,,,,,10,,76,80
38610,note_on,,1,0,15,,,,,,,,,,,,,,,,11,,73,80
38639,note_on,,29,0,14,,,,,,,,,,,,,,,,10,,76,0
38639,note_on,,29,0,15,,,,,,,,,,,,,,,,11,,73,0
38640,note_on,,121,0,5,,,,,,,,,,,,,,,,0,,69,80
38640,note_on,,121,0,7,,,,,,,,,,,,,,,,2,,78,80
38640,note_on,,121,0,8,,,,,,,,,,,,,,,,3,,74,80
38640,note_on,,121,0,12,,,,,,,,,,,,,,,,7,,62,80
38640,note_on,,121,0,18,,,,,,,,,,,,,,,,15,,50,80
38640,note_on,,0,0,18,,,,,,,,,,,,,,,,15,,57,80
38640,note_on,,0,0,18,,,,,,,,,,,,,,,,15,,69,80
38640,note_on,,0,0,18,,,,,,,,,,,,,,,,15,,66,80
38640,note_on,,0,0,18,,,,,,,,,,,,,,,,15,,62,80
38640,note_on,,1,0,14,,,,,,,,,,,,,,,,10,,74,80
38640,note_on,,121,0,9,,,,,,,,,,,,,,,,4,,50,80
38640,note_on,,121,0,13,,,,,,,,,,,,,,,,8,,50,80
38640,note_on,,1,0,15,,,,,,,,,,,,,,,,11,,74,80
38640,note_on,,121,0,11,,,,,,,,,,,,,,,,6,,66,80
38640,note_on,,121,0,10,,,,,,,,,,,,,,,,5,,69,80
38640,note_on,,121,0,6,,,,,,,,,,,,,,,,1,,50,80
38640,note_on,,121,0,16,,,,,,,,,,,,,,,,12,,66,80
38640,note_on,,121,0,17,,,,,,,,,,,,,,,,13,,50,80
38699,note_on,,59,0,16,,,,,,,,,,,,,,,,12,,66,0
38699,note_on,,59,0,15,,,,,,,,,,,,,,,,11,,74,0
38699,note_on,,59,0,14,,,,,,,,,,,,,,,,10,,74,0
38700,note_on,,1,0,14,,,,,,,,,,,,,,,,10,,74,80
38700,note_on,,1,0,15,,,,,,,,,,,,,,,,11,,69,80
38700,note_on,,1,0,16,,,,,,,,,,,,,,,,12,,66,80
38729,note_on,,29,0,16,,,,,,,,,,,,,,,,12,,66,0
38729,note_on,,29,0,15,,,,,,,,,,,,,,,,11,,69,0
38729,note_on,,29,0,14,,,,,,,,,,,,,,,,10,,74,0
38730,note_on,,1,0,16,,,,,,,,,,,,,,,,12,,66,80
38730,note_on,,1,0,15,,,,,,,,,,,,,,,,11,,69,80
38730,note_on,,1,0,14,,,,,,,,,,,,,,,,10,,74,80
38759,note_on,,119,0,5,,,,,,,,,,,,,,,,0,,69,0
38759,note_on,,119,0,7,,,,,,,,,,,,,,,,2,,78,0
38759,note_on,,119,0,18,,,,,,,,,,,,,,,,15,,50,0
38759,note_on,,119,0,6,,,,,,,,,,,,,,,,1,,50,0
38759,note_on,,29,0,15,,,,,,,,,,,,,,,,11,,69,0
38759,note_on,,119,0,10,,,,,,,,,,,,,,,,5,,69,0
38759,note_on,,29,0,16,,,,,,,,,,,,,,,,12,,66,0
38759,note_on,,119,0,13,,,,,,,,,,,,,,,,8,,50,0
38759,note_on,,119,0,11,,,,,,,,,,,,,,,,6,,66,0
38759,note_on,,119,0,17,,,,,,,,,,,,,,,,13,,50,0
38759,note_on,,119,0,9,,,,,,,,,,,,,,,,4,,50,0
38759,note_on,,0,0,18,,,,,,,,,,,,,,,,15,,57,0
38759,note_on,,119,0,8,,,,,,,,,,,,,,,,3,,74,0
38759,note_on,,0,0,18,,,,,,,,,,,,,,,,15,,69,0
38759,note_on,,0,0,18,,,,,,,,,,,,,,,,15,,66,0
38759,note_on,,29,0,14,,,,,,,,,,,,,,,,10,,74,0
38759,note_on,,119,0,12,,,,,,,,,,,,,,,,7,,62,0
38759,note_on,,0,0,18,,,,,,,,,,,,,,,,15,,62,0
38760,note_on,,1,0,15,,,,,,,,,,,,,,,,11,,74,80
38760,note_on,,1,0,11,,,,,,,,,,,,,,,,6,,66,80
38760,note_on,,1,0,16,,,,,,,,,,,,,,,,12,,69,80
38760,note_on,,0,0,18,,,,,,,,,,,,,,,,15,,62,80
38760,note_on,,0,0,18,,,,,,,,,,,,,,,,15,,69,80
38760,note_on,,1,0,8,,,,,,,,,,,,,,,,3,,74,80
38760,note_on,,0,0,18,,,,,,,,,,,,,,,,15,,57,80
38760,note_on,,1,0,10,,,,,,,,,,,,,,,,5,,69,80
38760,note_on,,1,0,18,,,,,,,,,,,,,,,,15,,66,80
38760,note_on,,1,0,17,,,,,,,,,,,,,,,,13,,50,80
38760,note_on,,1,0,6,,,,,,,,,,,,,,,,1,,50,80
38760,note_on,,0,0,18,,,,,,,,,,,,,,,,15,,50,80
38760,note_on,,1,0,13,,,,,,,,,,,,,,,,8,,50,80
38760,note_on,,1,0,9,,,,,,,,,,,,,,,,4,,50,80
38760,note_on,,1,0,5,,,,,,,,,,,,,,,,0,,69,80
38760,note_on,,1,0,12,,,,,,,,,,,,,,,,7,,62,80
38760,note_on,,1,0,7,,,,,,,,,,,,,,,,2,,78,80
38760,note_on,,1,0,14,,,,,,,,,,,,,,,,10,,78,80
38819,note_on,,59,0,16,,,,,,,,,,,,,,,,12,,69,0
38819,note_on,,59,0,14,,,,,,,,,,,,,,,,10,,78,0
38819,note_on,,59,0,15,,,,,,,,,,,,,,,,11,,74,0
38820,note_on,,1,0,16,,,,,,,,,,,,,,,,12,,69,80
38820,note_on,,1,0,15,,,,,,,,,,,,,,,,11,,74,80
38820,note_on,,1,0,14,,,,,,,,,,,,,,,,10,,78,80
38849,note_on,,29,0,15,,,,,,,,,,,,,,,,11,,74,0
38849,note_on,,29,0,14,,,,,,,,,,,,,,,,10,,78,0
38849,note_on,,89,0,7,,,,,,,,,,,,,,,,2,,78,0
38849,note_on,,89,0,8,,,,,,,,,,,,,,,,3,,74,0
38849,note_on,,89,0,12,,,,,,,,,,,,,,,,7,,62,0
38849,note_on,,29,0,16,,,,,,,,,,,,,,,,12,,69,0
38849,note_on,,89,0,9,,,,,,,,,,,,,,,,4,,50,0
38849,note_on,,89,0,11,,,,,,,,,,,,,,,,6,,66,0
38850,note_on,,1,0,11,,,,,,,,,,,,,,,,6,,67,80
38850,note_on,,1,0,12,,,,,,,,,,,,,,,,7,,64,80
38850,note_on,,1,0,16,,,,,,,,,,,,,,,,12,,69,80
38850,note_on,,1,0,7,,,,,,,,,,,,,,,,2,,79,80
38850,note_on,,1,0,8,,,,,,,,,,,,,,,,3,,76,80
38850,note_on,,1,0,15,,,,,,,,,,,,,,,,11,,76,80
38850,note_on,,1,0,9,,,,,,,,,,,,,,,,4,,50,80
38850,note_on,,1,0,14,,,,,,,,,,,,,,,,10,,79,80
38879,note_on,,119,0,6,,,,,,,,,,,,,,,,1,,50,0
38879,note_on,,29,0,9,,,,,,,,,,,,,,,,4,,50,0
38879,note_on,,29,0,15,,,,,,,,,,,,,,,,11,,76,0
38879,note_on,,119,0,17,,,,,,,,,,,,,,,,13,,50,0
38879,note_on,,29,0,8,,,,,,,,,,,,,,,,3,,76,0
38879,note_on,,119,0,5,,,,,,,,,,,,,,,,0,,69,0
38879,note_on,,119,0,18,,,,,,,,,,,,,,,,15,,66,0
38879,note_on,,29,0,12,,,,,,,,,,,,,,,,7,,64,0
38879,note_on,,29,0,14,,,,,,,,,,,,,,,,10,,79,0
38879,note_on,,29,0,7,,,,,,,,,,,,,,,,2,,79,0
38879,note_on,,0,0,18,,,,,,,,,,,,,,,,15,,57,0
38879,note_on,,0,0,18,,,,,,,,,,,,,,,,15,,69,0
38879,note_on,,0,0,18,,,,,,,,,,,,,,,,15,,50,0
38879,note_on,,29,0,16,,,,,,,,,,,,,,,,12,,69,0
38879,note_on,,29,0,11,,,,,,,,,,,,,,,,6,,67,0
38879,note_on,,0,0,18,,,,,,,,,,,,,,,,15,,62,0
38879,note_on,,119,0,10,,,,,,,,,,,,,,,,5,,69,0
38879,note_on,,119,0,13,,,,,,,,,,,,,,,,8,,50,0
38880,note_on,,1,0,8,,,,,,,,,,,,,,,,3,,78,80
38880,note_on,,1,0,15,,,,,,,,,,,,,,,,11,,78,80
38880,note_on,,1,0,9,,,,,,,,,,,,,,,,4,,50,80
38880,note_on,,1,0,17,,,,,,,,,,,,,,,,13,,62,80
38880,note_on,,1,0,14,,,,,,,,,,,,,,,,10,,81,80
38880,note_on,,1,0,13,,,,,,,,,,,,,,,,8,,62,80
38880,note_on,,1,0,11,,,,,,,,,,,,,,,,6,,69,80
38880,note_on,,1,0,12,,,,,,,,,,,,,,,,7,,66,80
38880,note_on,,1,0,6,,,,,,,,,,,,,,,,1,,62,80
38880,note_on,,0,0,18,,,,,,,,,,,,,,,,15,,78,80
38880,note_on,,1,0,18,,,,,,,,,,,,,,,,15,,62,80
38880,note_on,,0,0,18,,,,,,,,,,,,,,,,15,,69,80
38880,note_on,,1,0,5,,,,,,,,,,,,,,,,0,,74,80
38880,note_on,,1,0,7,,,,,,,,,,,,,,,,2,,81,80
38880,note_on,,1,0,16,,,,,,,,,,,,,,,,12,,69,80
38880,note_on,,0,0,18,,,,,,,,,,,,,,,,15,,74,80
38880,note_on,,1,0,10,,,,,,,,,,,,,,,,5,,74,80
38939,note_on,,59,0,15,,,,,,,,,,,,,,,,11,,78,0
38939,note_on,,59,0,14,,,,,,,,,,,,,,,,10,,81,0
38940,note_on,,1,0,15,,,,,,,,,,,,,,,,11,,74,80
38940,note_on,,1,0,14,,,,,,,,,,,,,,,,10,,78,80
38969,note_on,,29,0,15,,,,,,,,,,,,,,,,11,,74,0
38969,note_on,,29,0,14,,,,,,,,,,,,,,,,10,,78,0
38970,note_on,,1,0,14,,,,,,,,,,,,,,,,10,,79,80
38970,note_on,,1,0,15,,,,,,,,,,,,,,,,11,,76,80
38999,note_on,,29,0,15,,,,,,,,,,,,,,,,11,,76,0
38999,note_on,,119,0,9,,,,,,,,,,,,,,,,4,,50,0
38999,note_on,,119,0,5,,,,,,,,,,,,,,,,0,,74,0
38999,note_on,,119,0,12,,,,,,,,,,,,,,,,7,,66,0
38999,note_on,,119,0,7,,,,,,,,,,,,,,,,2,,81,0
38999,note_on,,119,0,6,,,,,,,,,,,,,,,,1,,62,0
38999,note_on,,119,0,17,,,,,,,,,,,,,,,,13,,62,0
38999,note_on,,119,0,8,,,,,,,,,,,,,,,,3,,78,0
38999,note_on,,119,0,16,,,,,,,,,,,,,,,,12,,69,0
38999,note_on,,119,0,10,,,,,,,,,,,,,,,,5,,74,0
38999,note_on,,29,0,14,,,,,,,,,,,,,,,,10,,79,0
38999,note_on,,119,0,18,,,,,,,,,,,,,,,,15,,62,0
38999,note_on,,0,0,18,,,,,,,,,,,,,,,,15,,78,0
38999,note_on,,119,0,11,,,,,,,,,,,,,,,,6,,69,0
38999,note_on,,0,0,18,,,,,,,,,,,,,,,,15,,74,0
38999,note_on,,119,0,13,,,,,,,,,,,,,,,,8,,62,0
38999,note_on,,0,0,18,,,,,,,,,,,,,,,,15,,69,0
39000,note_on,,1,0,14,,,,,,,,,,,,,,,,10,,81,80
39000,note_on,,1,0,15,,,,,,,,,,,,,,,,11,,78,80
39059,note_on,,59,0,14,,,,,,,,,,,,,,,,10,,81,0
39059,note_on,,59,0,15,,,,,,,,,,,,,,,,11,,78,0
39060,note_on,,0,0,18,,,,,,,,,,,,,,,,15,,57,80
39060,note_on,,0,0,18,,,,,,,,,,,,,,,,15,,62,80
39060,note_on,,61,0,18,,,,,,,,,,,,,,,,15,,50,80
39060,note_on,,61,0,12,,,,,,,,,,,,,,,,7,,62,80
39060,note_on,,1,0,15,,,,,,,,,,,,,,,,11,,79,80
39060,note_on,,0,0,18,,,,,,,,,,,,,,,,15,,66,80
39060,note_on,,61,0,9,,,,,,,,,,,,,,,,4,,50,80
39060,note_on,,61,0,7,,,,,,,,,,,,,,,,2,,81,80
39060,note_on,,0,0,18,,,,,,,,,,,,,,,,15,,69,80
39060,note_on,,1,0,14,,,,,,,,,,,,,,,,10,,83,80
39060,note_on,,61,0,13,,,,,,,,,,,,,,,,8,,50,80
39060,note_on,,61,0,5,,,,,,,,,,,,,,,,0,,69,80
39060,note_on,,61,0,16,,,,,,,,,,,,,,,,12,,69,80
39060,note_on,,61,0,17,,,,,,,,,,,,,,,,13,,50,80
39060,note_on,,61,0,11,,,,,,,,,,,,,,,,6,,66,80
39060,note_on,,61,0,10,,,,,,,,,,,,,,,,5,,69,80
39060,note_on,,61,0,6,,,,,,,,,,,,,,,,1,,50,80
39060,note_on,,61,0,8,,,,,,,,,,,,,,,,3,,78,80
39089,note_on,,29,0,14,,,,,,,,,,,,,,,,10,,83,0
39089,note_on,,29,0,15,,,,,,,,,,,,,,,,11,,79,0
39090,note_on,,1,0,15,,,,,,,,,,,,,,,,11,,76,80
39090,note_on,,1,0,14,,,,,,,,,,,,,,,,10,,85,80
39119,note_on,,59,0,18,,,,,,,,,,,,,,,,15,,50,0
39119,note_on,,59,0,8,,,,,,,,,,,,,,,,3,,78,0
39119,note_on,,59,0,13,,,,,,,,,,,,,,,,8,,50,0
39119,note_on,,29,0,14,,,,,,,,,,,,,,,,10,,85,0
39119,note_on,,59,0,17,,,,,,,,,,,,,,,,13,,50,0
39119,note_on,,59,0,11,,,,,,,,,,,,,,,,6,,66,0
39119,note_on,,0,0,18,,,,,,,,,,,,,,,,15,,69,0
39119,note_on,,59,0,5,,,,,,,,,,,,,,,,0,,69,0
39119,note_on,,0,0,18,,,,,,,,,,,,,,,,15,,62,0
39119,note_on,,0,0,18,,,,,,,,,,,,,,,,15,,57,0
39119,note_on,,59,0,10,,,,,,,,,,,,,,,,5,,69,0
39119,note_on,,59,0,12,,,,,,,,,,,,,,,,7,,62,0
39119,note_on,,29,0,15,,,,,,,,,,,,,,,,11,,76,0
39119,note_on,,59,0,16,,,,,,,,,,,,,,,,12,,69,0
39119,note_on,,59,0,6,,,,,,,,,,,,,,,,1,,50,0
39119,note_on,,59,0,9,,,,,,,,,,,,,,,,4,,50,0
39119,note_on,,0,0,18,,,,,,,,,,,,,,,,15,,66,0
39119,note_on,,59,0,7,,,,,,,,,,,,,,,,2,,81,0
39120,note_on,,1,0,15,,,,,,,,,,,,,,,,11,,78,80
39120,note_on,,1,0,11,,,,,,,,,,,,,,,,6,,66,80
39120,note_on,,0,0,18,,,,,,,,,,,,,,,,15,,57,80
39120,note_on,,0,0,18,,,,,,,,,,,,,,,,15,,69,80
39120,note_on,,1,0,14,,,,,,,,,,,,,,,,10,,86,80
39120,note_on,,1,0,8,,,,,,,,,,,,,,,,3,,74,80
39120,note_on,,1,0,17,,,,,,,,,,,,,,,,13,,50,80
39120,note_on,,1,0,10,,,,,,,,,,,,,,,,5,,69,80
39120,note_on,,1,0,5,,,,,,,,,,,,,,,,0,,69,80
39120,note_on,,1,0,6,,,,,,,,,,,,,,,,1,,50,80
39120,note_on,,1,0,13,,,,,,,,,,,,,,,,8,,50,80
39120,note_on,,1,0,18,,,,,,,,,,,,,,,,15,,50,80
39120,note_on,,1,0,16,,,,,,,,,,,,,,,,12,,69,80
39120,note_on,,1,0,9,,,,,,,,,,,,,,,,4,,50,80
39120,note_on,,1,0,7,,,,,,,,,,,,,,,,2,,78,80
39120,note_on,,0,0,18,,,,,,,,,,,,,,,,15,,62,80
39120,note_on,,0,0,18,,,,,,,,,,,,,,,,15,,66,80
39120,note_on,,1,0,12,,,,,,,,,,,,,,,,7,,62,80
39179,note_on,,59,0,15,,,,,,,,,,,,,,,,11,,78,0
39179,note_on,,59,0,14,,,,,,,,,,,,,,,,10,,86,0
39179,note_on,,59,0,16,,,,,,,,,,,,,,,,12,,69,0
39180,note_on,,1,0,16,,,,,,,,,,,,,,,,12,,69,80
39180,note_on,,1,0,15,,,,,,,,,,,,,,,,11,,78,80
39180,note_on,,1,0,14,,,,,,,,,,,,,,,,10,,74,80
39209,note_on,,29,0,16,,,,,,,,,,,,,,,,12,,69,0
39209,note_on,,29,0,15,,,,,,,,,,,,,,,,11,,78,0
39209,note_on,,29,0,14,,,,,,,,,,,,,,,,10,,74,0
39210,note_on,,1,0,16,,,,,,,,,,,,,,,,12,,69,80
39210,note_on,,1,0,15,,,,,,,,,,,,,,,,11,,79,80
39210,note_on,,1,0,14,,,,,,,,,,,,,,,,10,,76,80
39239,note_on,,119,0,9,,,,,,,,,,,,,,,,4,,50,0
39239,note_on,,0,0,18,,,,,,,,,,,,,,,,15,,66,0
39239,note_on,,0,0,18,,,,,,,,,,,,,,,,15,,69,0
39239,note_on,,29,0,16,,,,,,,,,,,,,,,,12,,69,0
39239,note_on,,119,0,13,,,,,,,,,,,,,,,,8,,50,0
39239,note_on,,119,0,17,,,,,,,,,,,,,,,,13,,50,0
39239,note_on,,0,0,18,,,,,,,,,,,,,,,,15,,57,0
39239,note_on,,119,0,10,,,,,,,,,,,,,,,,5,,69,0
39239,note_on,,119,0,8,,,,,,,,,,,,,,,,3,,74,0
39239,note_on,,119,0,7,,,,,,,,,,,,,,,,2,,78,0
39239,note_on,,119,0,18,,,,,,,,,,,,,,,,15,,50,0
39239,note_on,,119,0,5,,,,,,,,,,,,,,,,0,,69,0
39239,note_on,,29,0,14,,,,,,,,,,,,,,,,10,,76,0
39239,note_on,,119,0,6,,,,,,,,,,,,,,,,1,,50,0
39239,note_on,,29,0,15,,,,,,,,,,,,,,,,11,,79,0
39239,note_on,,119,0,12,,,,,,,,,,,,,,,,7,,62,0
39239,note_on,,0,0,18,,,,,,,,,,,,,,,,15,,62,0
39239,note_on,,119,0,11,,,,,,,,,,,,,,,,6,,66,0
39240,note_on,,1,0,12,,,,,,,,,,,,,,,,7,,62,80
39240,note_on,,1,0,10,,,,,,,,,,,,,,,,5,,69,80
39240,note_on,,1,0,11,,,,,,,,,,,,,,,,6,,66,80
39240,note_on,,1,0,8,,,,,,,,,,,,,,,,3,,74,80
39240,note_on,,1,0,14,,,,,,,,,,,,,,,,10,,78,80
39240,note_on,,0,0,18,,,,,,,,,,,,,,,,15,,62,80
39240,note_on,,0,0,18,,,,,,,,,,,,,,,,15,,57,80
39240,note_on,,1,0,17,,,,,,,,,,,,,,,,13,,50,80
39240,note_on,,1,0,6,,,,,,,,,,,,,,,,1,,50,80
39240,note_on,,1,0,5,,,,,,,,,,,,,,,,0,,69,80
39240,note_on,,0,0,18,,,,,,,,,,,,,,,,15,,66,80
39240,note_on,,1,0,15,,,,,,,,,,,,,,,,11,,81,80
39240,note_on,,1,0,7,,,,,,,,,,,,,,,,2,,78,80
39240,note_on,,1,0,13,,,,,,,,,,,,,,,,8,,50,80
39240,note_on,,1,0,16,,,,,,,,,,,,,,,,12,,69,80
39240,note_on,,1,0,18,,,,,,,,,,,,,,,,15,,50,80
39240,note_on,,1,0,9,,,,,,,,,,,,,,,,4,,50,80
39240,note_on,,0,0,18,,,,,,,,,,,,,,,,15,,69,80
39299,note_on,,59,0,16,,,,,,,,,,,,,,,,12,,69,0
39299,note_on,,59,0,14,,,,,,,,,,,,,,,,10,,78,0
39299,note_on,,59,0,15,,,,,,,,,,,,,,,,11,,81,0
39300,note_on,,1,0,14,,,,,,,,,,,,,,,,10,,78,80
39300,note_on,,1,0,15,,,,,,,,,,,,,,,,11,,74,80
39300,note_on,,1,0,16,,,,,,,,,,,,,,,,12,,69,80
39329,note_on,,89,0,11,,,,,,,,,,,,,,,,6,,66,0
39329,note_on,,29,0,14,,,,,,,,,,,,,,,,10,,78,0
39329,note_on,,89,0,8,,,,,,,,,,,,,,,,3,,74,0
39329,note_on,,29,0,16,,,,,,,,,,,,,,,,12,,69,0
39329,note_on,,29,0,15,,,,,,,,,,,,,,,,11,,74,0
39329,note_on,,89,0,7,,,,,,,,,,,,,,,,2,,78,0
39329,note_on,,89,0,12,,,,,,,,,,,,,,,,7,,62,0
39329,note_on,,89,0,9,,,,,,,,,,,,,,,,4,,50,0
39330,note_on,,1,0,14,,,,,,,,,,,,,,,,10,,79,80
39330,note_on,,1,0,11,,,,,,,,,,,,,,,,6,,67,80
39330,note_on,,1,0,16,,,,,,,,,,,,,,,,12,,69,80
39330,note_on,,1,0,8,,,,,,,,,,,,,,,,3,,76,80
39330,note_on,,1,0,7,,,,,,,,,,,,,,,,2,,79,80
39330,note_on,,1,0,9,,,,,,,,,,,,,,,,4,,50,80
39330,note_on,,1,0,15,,,,,,,,,,,,,,,,11,,76,80
39330,note_on,,1,0,12,,,,,,,,,,,,,,,,7,,64,80
39359,note_on,,119,0,10,,,,,,,,,,,,,,,,5,,69,0
39359,note_on,,119,0,17,,,,,,,,,,,,,,,,13,,50,0
39359,note_on,,29,0,7,,,,,,,,,,,,,,,,2,,79,0
39359,note_on,,29,0,8,,,,,,,,,,,,,,,,3,,76,0
39359,note_on,,119,0,13,,,,,,,,,,,,,,,,8,,50,0
39359,note_on,,29,0,14,,,,,,,,,,,,,,,,10,,79,0
39359,note_on,,29,0,9,,,,,,,,,,,,,,,,4,,50,0
39359,note_on,,119,0,5,,,,,,,,,,,,,,,,0,,69,0
39359,note_on,,119,0,18,,,,,,,,,,,,,,,,15,,50,0
39359,note_on,,0,0,18,,,,,,,,,,,,,,,,15,,69,0
39359,note_on,,29,0,11,,,,,,,,,,,,,,,,6,,67,0
39359,note_on,,119,0,6,,,,,,,,,,,,,,,,1,,50,0
39359,note_on,,0,0,18,,,,,,,,,,,,,,,,15,,62,0
39359,note_on,,0,0,18,,,,,,,,,,,,,,,,15,,57,0
39359,note_on,,0,0,18,,,,,,,,,,,,,,,,15,,66,0
39359,note_on,,29,0,15,,,,,,,,,,,,,,,,11,,76,0
39359,note_on,,29,0,16,,,,,,,,,,,,,,,,12,,69,0
39359,note_on,,29,0,12,,,,,,,,,,,,,,,,7,,64,0
39360,note_on,,1,0,12,,,,,,,,,,,,,,,,7,,66,80
39360,note_on,,1,0,11,,,,,,,,,,,,,,,,6,,69,80
39360,note_on,,1,0,6,,,,,,,,,,,,,,,,1,,62,80
39360,note_on,,1,0,13,,,,,,,,,,,,,,,,8,,62,80
39360,note_on,,1,0,17,,,,,,,,,,,,,,,,13,,62,80
39360,note_on,,1,0,10,,,,,,,,,,,,,,,,5,,74,80
39360,note_on,,1,0,15,,,,,,,,,,,,,,,,11,,78,80
39360,note_on,,1,0,7,,,,,,,,,,,,,,,,2,,81,80
39360,note_on,,1,0,8,,,,,,,,,,,,,,,,3,,78,80
39360,note_on,,1,0,9,,,,,,,,,,,,,,,,4,,50,80
39360,note_on,,0,0,18,,,,,,,,,,,,,,,,15,,69,80
39360,note_on,,1,0,18,,,,,,,,,,,,,,,,15,,62,80
39360,note_on,,1,0,14,,,,,,,,,,,,,,,,10,,81,80
39360,note_on,,0,0,18,,,,,,,,,,,,,,,,15,,74,80
39360,note_on,,0,0,18,,,,,,,,,,,,,,,,15,,78,80
39360,note_on,,1,0,5,,,,,,,,,,,,,,,,0,,74,80
39360,note_on,,1,0,16,,,,,,,,,,,,,,,,12,,74,80
39419,note_on,,59,0,14,,,,,,,,,,,,,,,,10,,81,0
39419,note_on,,59,0,15,,,,,,,,,,,,,,,,11,,78,0
39420,note_on,,1,0,14,,,,,,,,,,,,,,,,10,,78,80
39420,note_on,,1,0,15,,,,,,,,,,,,,,,,11,,74,80
39449,note_on,,29,0,14,,,,,,,,,,,,,,,,10,,78,0
39449,note_on,,29,0,15,,,,,,,,,,,,,,,,11,,74,0
39450,note_on,,1,0,14,,,,,,,,,,,,,,,,10,,79,80
39450,note_on,,1,0,15,,,,,,,,,,,,,,,,11,,76,80
39479,note_on,,119,0,8,,,,,,,,,,,,,,,,3,,78,0
39479,note_on,,119,0,9,,,,,,,,,,,,,,,,4,,50,0
39479,note_on,,119,0,6,,,,,,,,,,,,,,,,1,,62,0
39479,note_on,,29,0,14,,,,,,,,,,,,,,,,10,,79,0
39479,note_on,,0,0,18,,,,,,,,,,,,,,,,15,,78,0
39479,note_on,,0,0,18,,,,,,,,,,,,,,,,15,,74,0
39479,note_on,,119,0,17,,,,,,,,,,,,,,,,13,,62,0
39479,note_on,,119,0,13,,,,,,,,,,,,,,,,8,,62,0
39479,note_on,,119,0,7,,,,,,,,,,,,,,,,2,,81,0
39479,note_on,,29,0,15,,,,,,,,,,,,,,,,11,,76,0
39479,note_on,,0,0,18,,,,,,,,,,,,,,,,15,,69,0
39479,note_on,,119,0,10,,,,,,,,,,,,,,,,5,,74,0
39479,note_on,,119,0,18,,,,,,,,,,,,,,,,15,,62,0
39479,note_on,,119,0,5,,,,,,,,,,,,,,,,0,,74,0
39479,note_on,,119,0,16,,,,,,,,,,,,,,,,12,,74,0
39479,note_on,,119,0,11,,,,,,,,,,,,,,,,6,,69,0
39479,note_on,,119,0,12,,,,,,,,,,,,,,,,7,,66,0
39480,note_on,,1,0,14,,,,,,,,,,,,,,,,10,,81,80
39480,note_on,,1,0,15,,,,,,,,,,,,,,,,11,,78,80
39539,note_on,,59,0,14,,,,,,,,,,,,,,,,10,,81,0
39539,note_on,,59,0,15,,,,,,,,,,,,,,,,11,,78,0
39540,note_on,,1,0,14,,,,,,,,,,,,,,,,10,,83,80
39540,note_on,,1,0,15,,,,,,,,,,,,,,,,11,,79,80
39569,note_on,,29,0,14,,,,,,,,,,,,,,,,10,,83,0
39569,note_on,,29,0,15,,,,,,,,,,,,,,,,11,,79,0
39570,note_on,,1,0,14,,,,,,,,,,,,,,,,10,,85,80
39570,note_on,,1,0,15,,,,,,,,,,,,,,,,11,,76,80
39599,note_on,,29,0,14,,,,,,,,,,,,,,,,10,,85,0
39599,note_on,,29,0,15,,,,,,,,,,,,,,,,11,,76,0
39600,note_on,,121,0,7,,,,,,,,,,,,,,,,2,,78,80
39600,note_on,,121,0,5,,,,,,,,,,,,,,,,0,,69,80
39600,note_on,,121,0,8,,,,,,,,,,,,,,,,3,,74,80
39600,note_on,,121,0,9,,,,,,,,,,,,,,,,4,,50,80
39600,note_on,,121,0,10,,,,,,,,,,,,,,,,5,,69,80
39600,note_on,,121,0,12,,,,,,,,,,,,,,,,7,,62,80
39600,note_on,,121,0,16,,,,,,,,,,,,,,,,12,,69,80
39600,note_on,,1,0,14,,,,,,,,,,,,,,,,10,,86,80
39600,note_on,,1,0,15,,,,,,,,,,,,,,,,11,,78,80
39600,note_on,,121,0,17,,,,,,,,,,,,,,,,13,,50,80
39600,note_on,,121,0,6,,,,,,,,,,,,,,,,1,,50,80
39600,note_on,,121,0,13,,,,,,,,,,,,,,,,8,,50,80
39600,note_on,,0,0,18,,,,,,,,,,,,,,,,15,,57,80
39600,note_on,,0,0,18,,,,,,,,,,,,,,,,15,,66,80
39600,note_on,,0,0,18,,,,,,,,,,,,,,,,15,,69,80
39600,note_on,,121,0,18,,,,,,,,,,,,,,,,15,,50,80
39600,note_on,,121,0,11,,,,,,,,,,,,,,,,6,,66,80
39600,note_on,,0,0,18,,,,,,,,,,,,,,,,15,,62,80
39659,note_on,,59,0,14,,,,,,,,,,,,,,,,10,,86,0
39659,note_on,,59,0,16,,,,,,,,,,,,,,,,12,,69,0
39659,note_on,,59,0,15,,,,,,,,,,,,,,,,11,,78,0
39660,note_on,,1,0,16,,,,,,,,,,,,,,,,12,,69,80
39660,note_on,,1,0,15,,,,,,,,,,,,,,,,11,,78,80
39660,note_on,,1,0,14,,,,,,,,,,,,,,,,10,,74,80
39689,note_on,,29,0,15,,,,,,,,,,,,,,,,11,,78,0
39689,note_on,,29,0,16,,,,,,,,,,,,,,,,12,,69,0
39689,note_on,,29,0,14,,,,,,,,,,,,,,,,10,,74,0
39690,note_on,,1,0,16,,,,,,,,,,,,,,,,12,,69,80
39690,note_on,,1,0,15,,,,,,,,,,,,,,,,11,,79,80
39690,note_on,,1,0,14,,,,,,,,,,,,,,,,10,,76,80
39719,note_on,,119,0,18,,,,,,,,,,,,,,,,15,,50,0
39719,note_on,,119,0,6,,,,,,,,,,,,,,,,1,,50,0
39719,note_on,,119,0,13,,,,,,,,,,,,,,,,8,,50,0
39719,note_on,,0,0,18,,,,,,,,,,,,,,,,15,,57,0
39719,note_on,,119,0,10,,,,,,,,,,,,,,,,5,,69,0
39719,note_on,,29,0,16,,,,,,,,,,,,,,,,12,,69,0
39719,note_on,,119,0,7,,,,,,,,,,,,,,,,2,,78,0
39719,note_on,,119,0,11,,,,,,,,,,,,,,,,6,,66,0
39719,note_on,,119,0,12,,,,,,,,,,,,,,,,7,,62,0
39719,note_on,,0,0,18,,,,,,,,,,,,,,,,15,,62,0
39719,note_on,,119,0,5,,,,,,,,,,,,,,,,0,,69,0
39719,note_on,,119,0,9,,,,,,,,,,,,,,,,4,,50,0
39719,note_on,,119,0,17,,,,,,,,,,,,,,,,13,,50,0
39719,note_on,,29,0,14,,,,,,,,,,,,,,,,10,,76,0
39719,note_on,,0,0,18,,,,,,,,,,,,,,,,15,,69,0
39719,note_on,,0,0,18,,,,,,,,,,,,,,,,15,,66,0
39719,note_on,,29,0,15,,,,,,,,,,,,,,,,11,,79,0
39719,note_on,,119,0,8,,,,,,,,,,,,,,,,3,,74,0
39720,note_on,,1,0,13,,,,,,,,,,,,,,,,8,,50,80
39720,note_on,,1,0,15,,,,,,,,,,,,,,,,11,,81,80
39720,note_on,,1,0,7,,,,,,,,,,,,,,,,2,,78,80
39720,note_on,,1,0,14,,,,,,,,,,,,,,,,10,,78,80
39720,note_on,,1,0,11,,,,,,,,,,,,,,,,6,,66,80
39720,note_on,,1,0,16,,,,,,,,,,,,,,,,12,,69,80
39720,note_on,,0,0,18,,,,,,,,,,,,,,,,15,,62,80
39720,note_on,,1,0,10,,,,,,,,,,,,,,,,5,,69,80
39720,note_on,,0,0,18,,,,,,,,,,,,,,,,15,,57,80
39720,note_on,,1,0,12,,,,,,,,,,,,,,,,7,,62,80
39720,note_on,,1,0,5,,,,,,,,,,,,,,,,0,,69,80
39720,note_on,,1,0,17,,,,,,,,,,,,,,,,13,,50,80
39720,note_on,,0,0,18,,,,,,,,,,,,,,,,15,,69,80
39720,note_on,,1,0,9,,,,,,,,,,,,,,,,4,,50,80
39720,note_on,,0,0,18,,,,,,,,,,,,,,,,15,,66,80
39720,note_on,,1,0,18,,,,,,,,,,,,,,,,15,,50,80
39720,note_on,,1,0,6,,,,,,,,,,,,,,,,1,,50,80
39720,note_on,,1,0,8,,,,,,,,,,,,,,,,3,,74,80
39779,note_on,,59,0,15,,,,,,,,,,,,,,,,11,,81,0
39779,note_on,,59,0,14,,,,,,,,,,,,,,,,10,,78,0
39779,note_on,,59,0,16,,,,,,,,,,,,,,,,12,,69,0
39780,note_on,,1,0,14,,,,,,,,,,,,,,,,10,,78,80
39780,note_on,,1,0,15,,,,,,,,,,,,,,,,11,,74,80
39780,note_on,,1,0,16,,,,,,,,,,,,,,,,12,,69,80
39809,note_on,,29,0,14,,,,,,,,,,,,,,,,10,,78,0
39809,note_on,,89,0,8,,,,,,,,,,,,,,,,3,,74,0
39809,note_on,,29,0,15,,,,,,,,,,,,,,,,11,,74,0
39809,note_on,,29,0,16,,,,,,,,,,,,,,,,12,,69,0
39809,note_on,,89,0,7,,,,,,,,,,,,,,,,2,,78,0
39810,note_on,,1,0,16,,,,,,,,,,,,,,,,12,,69,80
39810,note_on,,1,0,7,,,,,,,,,,,,,,,,2,,79,80
39810,note_on,,1,0,8,,,,,,,,,,,,,,,,3,,76,80
39810,note_on,,1,0,15,,,,,,,,,,,,,,,,11,,76,80
39810,note_on,,1,0,14,,,,,,,,,,,,,,,,10,,79,80
39839,note_on,,119,0,11,,,,,,,,,,,,,,,,6,,66,0
39839,note_on,,0,0,18,,,,,,,,,,,,,,,,15,,57,0
39839,note_on,,29,0,15,,,,,,,,,,,,,,,,11,,76,0
39839,note_on,,119,0,13,,,,,,,,,,,,,,,,8,,50,0
39839,note_on,,119,0,9,,,,,,,,,,,,,,,,4,,50,0
39839,note_on,,119,0,17,,,,,,,,,,,,,,,,13,,50,0
39839,note_on,,29,0,8,,,,,,,,,,,,,,,,3,,76,0
39839,note_on,,0,0,18,,,,,,,,,,,,,,,,15,,62,0
39839,note_on,,119,0,5,,,,,,,,,,,,,,,,0,,69,0
39839,note_on,,119,0,6,,,,,,,,,,,,,,,,1,,50,0
39839,note_on,,0,0,18,,,,,,,,,,,,,,,,15,,66,0
39839,note_on,,119,0,10,,,,,,,,,,,,,,,,5,,69,0
39839,note_on,,29,0,7,,,,,,,,,,,,,,,,2,,79,0
39839,note_on,,0,0,18,,,,,,,,,,,,,,,,15,,69,0
39839,note_on,,119,0,12,,,,,,,,,,,,,,,,7,,62,0
39839,note_on,,29,0,16,,,,,,,,,,,,,,,,12,,69,0
39839,note_on,,119,0,18,,,,,,,,,,,,,,,,15,,50,0
39839,note_on,,29,0,14,,,,,,,,,,,,,,,,10,,79,0
39840,note_on,,1,0,17,,,,,,,,,,,,,,,,13,,62,80
39840,note_on,,1,0,13,,,,,,,,,,,,,,,,8,,62,80
39840,note_on,,1,0,14,,,,,,,,,,,,,,,,10,,81,80
39840,note_on,,1,0,5,,,,,,,,,,,,,,,,0,,74,80
39840,note_on,,1,0,18,,,,,,,,,,,,,,,,15,,62,80
39840,note_on,,1,0,15,,,,,,,,,,,,,,,,11,,78,80
39840,note_on,,1,0,11,,,,,,,,,,,,,,,,6,,69,80
39840,note_on,,0,0,18,,,,,,,,,,,,,,,,15,,78,80
39840,note_on,,0,0,18,,,,,,,,,,,,,,,,15,,74,80
39840,note_on,,0,0,18,,,,,,,,,,,,,,,,15,,69,80
39840,note_on,,1,0,8,,,,,,,,,,,,,,,,3,,78,80
39840,note_on,,1,0,6,,,,,,,,,,,,,,,,1,,62,80
39840,note_on,,1,0,9,,,,,,,,,,,,,,,,4,,50,80
39840,note_on,,1,0,10,,,,,,,,,,,,,,,,5,,74,80
39840,note_on,,1,0,7,,,,,,,,,,,,,,,,2,,81,80
39840,note_on,,1,0,16,,,,,,,,,,,,,,,,12,,74,80
39840,note_on,,1,0,12,,,,,,,,,,,,,,,,7,,66,80
39899,note_on,,59,0,14,,,,,,,,,,,,,,,,10,,81,0
39899,note_on,,59,0,15,,,,,,,,,,,,,,,,11,,78,0
39900,note_on,,1,0,14,,,,,,,,,,,,,,,,10,,78,80
39900,note_on,,1,0,15,,,,,,,,,,,,,,,,11,,74,80
39929,note_on,,29,0,15,,,,,,,,,,,,,,,,11,,74,0
39929,note_on,,29,0,14,,,,,,,,,,,,,,,,10,,78,0
39930,note_on,,1,0,15,,,,,,,,,,,,,,,,11,,76,80
39930,note_on,,1,0,14,,,,,,,,,,,,,,,,10,,79,80
39959,note_on,,119,0,16,,,,,,,,,,,,,,,,12,,74,0
39959,note_on,,119,0,8,,,,,,,,,,,,,,,,3,,78,0
39959,note_on,,119,0,10,,,,,,,,,,,,,,,,5,,74,0
39959,note_on,,29,0,15,,,,,,,,,,,,,,,,11,,76,0
39959,note_on,,119,0,6,,,,,,,,,,,,,,,,1,,62,0
39959,note_on,,29,0,14,,,,,,,,,,,,,,,,10,,79,0
39959,note_on,,119,0,18,,,,,,,,,,,,,,,,15,,62,0
39959,note_on,,0,0,18,,,,,,,,,,,,,,,,15,,74,0
39959,note_on,,119,0,13,,,,,,,,,,,,,,,,8,,62,0
39959,note_on,,0,0,18,,,,,,,,,,,,,,,,15,,78,0
39959,note_on,,119,0,12,,,,,,,,,,,,,,,,7,,66,0
39959,note_on,,119,0,5,,,,,,,,,,,,,,,,0,,74,0
39959,note_on,,119,0,9,,,,,,,,,,,,,,,,4,,50,0
39959,note_on,,119,0,11,,,,,,,,,,,,,,,,6,,69,0
39959,note_on,,119,0,7,,,,,,,,,,,,,,,,2,,81,0
39959,note_on,,0,0,18,,,,,,,,,,,,,,,,15,,69,0
39959,note_on,,119,0,17,,,,,,,,,,,,,,,,13,,62,0
39960,note_on,,1,0,14,,,,,,,,,,,,,,,,10,,81,80
39960,note_on,,1,0,15,,,,,,,,,,,,,,,,11,,78,80
40019,note_on,,59,0,14,,,,,,,,,,,,,,,,10,,81,0
40019,note_on,,59,0,15,,,,,,,,,,,,,,,,11,,78,0
40020,note_on,,0,0,18,,,,,,,,,,,,,,,,15,,66,80
40020,note_on,,61,0,7,,,,,,,,,,,,,,,,2,,81,80
40020,note_on,,61,0,18,,,,,,,,,,,,,,,,15,,50,80
40020,note_on,,61,0,16,,,,,,,,,,,,,,,,12,,69,80
40020,note_on,,0,0,18,,,,,,,,,,,,,,,,15,,69,80
40020,note_on,,61,0,8,,,,,,,,,,,,,,,,3,,78,80
40020,note_on,,61,0,10,,,,,,,,,,,,,,,,5,,69,80
40020,note_on,,0,0,18,,,,,,,,,,,,,,,,15,,62,80
40020,note_on,,1,0,14,,,,,,,,,,,,,,,,10,,83,80
40020,note_on,,61,0,13,,,,,,,,,,,,,,,,8,,50,80
40020,note_on,,61,0,11,,,,,,,,,,,,,,,,6,,66,80
40020,note_on,,61,0,5,,,,,,,,,,,,,,,,0,,69,80
40020,note_on,,1,0,15,,,,,,,,,,,,,,,,11,,79,80
40020,note_on,,61,0,12,,,,,,,,,,,,,,,,7,,62,80
40020,note_on,,61,0,17,,,,,,,,,,,,,,,,13,,50,80
40020,note_on,,61,0,9,,,,,,,,,,,,,,,,4,,50,80
40020,note_on,,61,0,6,,,,,,,,,,,,,,,,1,,50,80
40020,note_on,,0,0,18,,,,,,,,,,,,,,,,15,,57,80
40049,note_on,,29,0,14,,,,,,,,,,,,,,,,10,,83,0
40049,note_on,,29,0,15,,,,,,,,,,,,,,,,11,,79,0
40050,note_on,,1,0,15,,,,,,,,,,,,,,,,11,,76,80
40050,note_on,,1,0,14,,,,,,,,,,,,,,,,10,,85,80
40079,note_on,,29,0,15,,,,,,,,,,,,,,,,11,,76,0
40079,note_on,,59,0,9,,,,,,,,,,,,,,,,4,,50,0
40079,note_on,,59,0,17,,,,,,,,,,,,,,,,13,,50,0
40079,note_on,,59,0,12,,,,,,,,,,,,,,,,7,,62,0
40079,note_on,,59,0,10,,,,,,,,,,,,,,,,5,,69,0
40079,note_on,,59,0,5,,,,,,,,,,,,,,,,0,,69,0
40079,note_on,,59,0,11,,,,,,,,,,,,,,,,6,,66,0
40079,note_on,,29,0,14,,,,,,,,,,,,,,,,10,,85,0
40079,note_on,,59,0,18,,,,,,,,,,,,,,,,15,,50,0
40079,note_on,,59,0,13,,,,,,,,,,,,,,,,8,,50,0
40079,note_on,,0,0,18,,,,,,,,,,,,,,,,15,,69,0
40079,note_on,,59,0,6,,,,,,,,,,,,,,,,1,,50,0
40079,note_on,,59,0,16,,,,,,,,,,,,,,,,12,,69,0
40079,note_on,,59,0,7,,,,,,,,,,,,,,,,2,,81,0
40079,note_on,,0,0,18,,,,,,,,,,,,,,,,15,,57,0
40079,note_on,,0,0,18,,,,,,,,,,,,,,,,15,,62,0
40079,note_on,,0,0,18,,,,,,,,,,,,,,,,15,,66,0
40079,note_on,,59,0,8,,,,,,,,,,,,,,,,3,,78,0
40080,note_on,,0,0,18,,,,,,,,,,,,,,,,15,,57,80
40080,note_on,,0,0,18,,,,,,,,,,,,,,,,15,,66,80
40080,note_on,,1,0,18,,,,,,,,,,,,,,,,15,,50,80
40080,note_on,,1,0,14,,,,,,,,,,,,,,,,10,,86,80
40080,note_on,,1,0,9,,,,,,,,,,,,,,,,4,,50,80
40080,note_on,,1,0,15,,,,,,,,,,,,,,,,11,,78,80
40080,note_on,,0,0,18,,,,,,,,,,,,,,,,15,,69,80
40080,note_on,,0,0,18,,,,,,,,,,,,,,,,15,,62,80
40080,note_on,,1,0,7,,,,,,,,,,,,,,,,2,,78,80
40080,note_on,,1,0,11,,,,,,,,,,,,,,,,6,,66,80
40080,note_on,,1,0,5,,,,,,,,,,,,,,,,0,,69,80
40080,note_on,,1,0,12,,,,,,,,,,,,,,,,7,,62,80
40080,note_on,,1,0,16,,,,,,,,,,,,,,,,12,,69,80
40080,note_on,,1,0,6,,,,,,,,,,,,,,,,1,,50,80
40080,note_on,,1,0,13,,,,,,,,,,,,,,,,8,,50,80
40080,note_on,,1,0,17,,,,,,,,,,,,,,,,13,,50,80
40080,note_on,,1,0,8,,,,,,,,,,,,,,,,3,,74,80
40080,note_on,,1,0,10,,,,,,,,,,,,,,,,5,,69,80
40139,note_on,,59,0,14,,,,,,,,,,,,,,,,10,,86,0
40139,note_on,,59,0,15,,,,,,,,,,,,,,,,11,,78,0
40139,note_on,,59,0,16,,,,,,,,,,,,,,,,12,,69,0
40140,note_on,,1,0,14,,,,,,,,,,,,,,,,10,,74,80
40140,note_on,,1,0,15,,,,,,,,,,,,,,,,11,,78,80
40140,note_on,,1,0,16,,,,,,,,,,,,,,,,12,,69,80
40169,note_on,,29,0,15,,,,,,,,,,,,,,,,11,,78,0
40169,note_on,,29,0,14,,,,,,,,,,,,,,,,10,,74,0
40169,note_on,,29,0,16,,,,,,,,,,,,,,,,12,,69,0
40170,note_on,,1,0,15,,,,,,,,,,,,,,,,11,,79,80
40170,note_on,,1,0,16,,,,,,,,,,,,,,,,12,,69,80
40170,note_on,,1,0,14,,,,,,,,,,,,,,,,10,,76,80
40199,note_on,,29,0,15,,,,,,,,,,,,,,,,11,,79,0
40199,note_on,,0,0,18,,,,,,,,,,,,,,,,15,,69,0
40199,note_on,,119,0,18,,,,,,,,,,,,,,,,15,,50,0
40199,note_on,,119,0,5,,,,,,,,,,,,,,,,0,,69,0
40199,note_on,,119,0,9,,,,,,,,,,,,,,,,4,,50,0
40199,note_on,,119,0,13,,,,,,,,,,,,,,,,8,,50,0
40199,note_on,,29,0,14,,,,,,,,,,,,,,,,10,,76,0
40199,note_on,,119,0,11,,,,,,,,,,,,,,,,6,,66,0
40199,note_on,,119,0,6,,,,,,,,,,,,,,,,1,,50,0
40199,note_on,,0,0,18,,,,,,,,,,,,,,,,15,,62,0
40199,note_on,,0,0,18,,,,,,,,,,,,,,,,15,,57,0
40199,note_on,,119,0,10,,,,,,,,,,,,,,,,5,,69,0
40199,note_on,,119,0,7,,,,,,,,,,,,,,,,2,,78,0
40199,note_on,,29,0,16,,,,,,,,,,,,,,,,12,,69,0
40199,note_on,,0,0,18,,,,,,,,,,,,,,,,15,,66,0
40199,note_on,,119,0,12,,,,,,,,,,,,,,,,7,,62,0
40199,note_on,,119,0,8,,,,,,,,,,,,,,,,3,,74,0
40199,note_on,,119,0,17,,,,,,,,,,,,,,,,13,,50,0
40200,note_on,,1,0,5,,,,,,,,,,,,,,,,0,,69,80
40200,note_on,,1,0,10,,,,,,,,,,,,,,,,5,,69,80
40200,note_on,,1,0,8,,,,,,,,,,,,,,,,3,,74,80
40200,note_on,,1,0,16,,,,,,,,,,,,,,,,12,,69,80
40200,note_on,,1,0,6,,,,,,,,,,,,,,,,1,,50,80
40200,note_on,,1,0,13,,,,,,,,,,,,,,,,8,,50,80
40200,note_on,,1,0,9,,,,,,,,,,,,,,,,4,,50,80
40200,note_on,,1,0,12,,,,,,,,,,,,,,,,7,,62,80
40200,note_on,,1,0,14,,,,,,,,,,,,,,,,10,,78,80
40200,note_on,,1,0,18,,,,,,,,,,,,,,,,15,,50,80
40200,note_on,,0,0,18,,,,,,,,,,,,,,,,15,,69,80
40200,note_on,,0,0,18,,,,,,,,,,,,,,,,15,,66,80
40200,note_on,,0,0,18,,,,,,,,,,,,,,,,15,,62,80
40200,note_on,,0,0,18,,,,,,,,,,,,,,,,15,,57,80
40200,note_on,,1,0,11,,,,,,,,,,,,,,,,6,,66,80
40200,note_on,,1,0,17,,,,,,,,,,,,,,,,13,,50,80
40200,note_on,,1,0,15,,,,,,,,,,,,,,,,11,,81,80
40200,note_on,,1,0,7,,,,,,,,,,,,,,,,2,,78,80
40259,note_on,,59,0,14,,,,,,,,,,,,,,,,10,,78,0
40259,note_on,,59,0,16,,,,,,,,,,,,,,,,12,,69,0
40259,note_on,,59,0,15,,,,,,,,,,,,,,,,11,,81,0
40260,note_on,,1,0,16,,,,,,,,,,,,,,,,12,,69,80
40260,note_on,,1,0,14,,,,,,,,,,,,,,,,10,,78,80
40260,note_on,,1,0,15,,,,,,,,,,,,,,,,11,,74,80
40289,note_on,,29,0,14,,,,,,,,,,,,,,,,10,,78,0
40289,note_on,,89,0,8,,,,,,,,,,,,,,,,3,,74,0
40289,note_on,,29,0,16,,,,,,,,,,,,,,,,12,,69,0
40289,note_on,,89,0,9,,,,,,,,,,,,,,,,4,,50,0
40289,note_on,,89,0,12,,,,,,,,,,,,,,,,7,,62,0
40289,note_on,,89,0,7,,,,,,,,,,,,,,,,2,,78,0
40289,note_on,,89,0,11,,,,,,,,,,,,,,,,6,,66,0
40289,note_on,,29,0,15,,,,,,,,,,,,,,,,11,,74,0
40290,note_on,,1,0,15,,,,,,,,,,,,,,,,11,,76,80
40290,note_on,,1,0,8,,,,,,,,,,,,,,,,3,,76,80
40290,note_on,,1,0,7,,,,,,,,,,,,,,,,2,,79,80
40290,note_on,,1,0,9,,,,,,,,,,,,,,,,4,,50,80
40290,note_on,,1,0,12,,,,,,,,,,,,,,,,7,,64,80
40290,note_on,,1,0,11,,,,,,,,,,,,,,,,6,,67,80
40290,note_on,,1,0,14,,,,,,,,,,,,,,,,10,,79,80
40290,note_on,,1,0,16,,,,,,,,,,,,,,,,12,,69,80
40319,note_on,,29,0,15,,,,,,,,,,,,,,,,11,,76,0
40319,note_on,,29,0,11,,,,,,,,,,,,,,,,6,,67,0
40319,note_on,,119,0,6,,,,,,,,,,,,,,,,1,,50,0
40319,note_on,,119,0,10,,,,,,,,,,,,,,,,5,,69,0
40319,note_on,,0,0,18,,,,,,,,,,,,,,,,15,,57,0
40319,note_on,,0,0,18,,,,,,,,,,,,,,,,15,,62,0
40319,note_on,,0,0,18,,,,,,,,,,,,,,,,15,,66,0
40319,note_on,,0,0,18,,,,,,,,,,,,,,,,15,,69,0
40319,note_on,,119,0,18,,,,,,,,,,,,,,,,15,,50,0
40319,note_on,,29,0,12,,,,,,,,,,,,,,,,7,,64,0
40319,note_on,,29,0,9,,,,,,,,,,,,,,,,4,,50,0
40319,note_on,,29,0,14,,,,,,,,,,,,,,,,10,,79,0
40319,note_on,,29,0,7,,,,,,,,,,,,,,,,2,,79,0
40319,note_on,,29,0,16,,,,,,,,,,,,,,,,12,,69,0
40319,note_on,,29,0,8,,,,,,,,,,,,,,,,3,,76,0
40319,note_on,,119,0,13,,,,,,,,,,,,,,,,8,,50,0
40319,note_on,,119,0,17,,,,,,,,,,,,,,,,13,,50,0
40319,note_on,,119,0,5,,,,,,,,,,,,,,,,0,,69,0
40320,note_on,,1,0,6,,,,,,,,,,,,,,,,1,,62,80
40320,note_on,,1,0,15,,,,,,,,,,,,,,,,11,,78,80
40320,note_on,,1,0,8,,,,,,,,,,,,,,,,3,,78,80
40320,note_on,,1,0,5,,,,,,,,,,,,,,,,0,,74,80
40320,note_on,,1,0,12,,,,,,,,,,,,,,,,7,,66,80
40320,note_on,,1,0,14,,,,,,,,,,,,,,,,10,,81,80
40320,note_on,,1,0,13,,,,,,,,,,,,,,,,8,,62,80
40320,note_on,,1,0,9,,,,,,,,,,,,,,,,4,,50,80
40320,note_on,,1,0,17,,,,,,,,,,,,,,,,13,,62,80
40320,note_on,,1,0,18,,,,,,,,,,,,,,,,15,,62,80
40320,note_on,,1,0,11,,,,,,,,,,,,,,,,6,,69,80
40320,note_on,,0,0,18,,,,,,,,,,,,,,,,15,,78,80
40320,note_on,,0,0,18,,,,,,,,,,,,,,,,15,,74,80
40320,note_on,,0,0,18,,,,,,,,,,,,,,,,15,,69,80
40320,note_on,,1,0,16,,,,,,,,,,,,,,,,12,,69,80
40320,note_on,,1,0,10,,,,,,,,,,,,,,,,5,,74,80
40320,note_on,,1,0,7,,,,,,,,,,,,,,,,2,,81,80
40379,note_on,,59,0,14,,,,,,,,,,,,,,,,10,,81,0
40379,note_on,,59,0,15,,,,,,,,,,,,,,,,11,,78,0
40380,note_on,,1,0,14,,,,,,,,,,,,,,,,10,,78,80
40380,note_on,,1,0,15,,,,,,,,,,,,,,,,11,,74,80
40409,note_on,,29,0,14,,,,,,,,,,,,,,,,10,,78,0
40409,note_on,,29,0,15,,,,,,,,,,,,,,,,11,,74,0
40410,note_on,,1,0,14,,,,,,,,,,,,,,,,10,,79,80
40410,note_on,,1,0,15,,,,,,,,,,,,,,,,11,,76,80
40439,note_on,,119,0,9,,,,,,,,,,,,,,,,4,,50,0
40439,note_on,,119,0,10,,,,,,,,,,,,,,,,5,,74,0
40439,note_on,,119,0,11,,,,,,,,,,,,,,,,6,,69,0
40439,note_on,,119,0,18,,,,,,,,,,,,,,,,15,,62,0
40439,note_on,,119,0,8,,,,,,,,,,,,,,,,3,,78,0
40439,note_on,,0,0,18,,,,,,,,,,,,,,,,15,,69,0
40439,note_on,,0,0,18,,,,,,,,,,,,,,,,15,,74,0
40439,note_on,,0,0,18,,,,,,,,,,,,,,,,15,,78,0
40439,note_on,,119,0,5,,,,,,,,,,,,,,,,0,,74,0
40439,note_on,,119,0,17,,,,,,,,,,,,,,,,13,,62,0
40439,note_on,,119,0,12,,,,,,,,,,,,,,,,7,,66,0
40439,note_on,,119,0,7,,,,,,,,,,,,,,,,2,,81,0
40439,note_on,,119,0,13,,,,,,,,,,,,,,,,8,,62,0
40439,note_on,,29,0,14,,,,,,,,,,,,,,,,10,,79,0
40439,note_on,,29,0,15,,,,,,,,,,,,,,,,11,,76,0
40439,note_on,,119,0,16,,,,,,,,,,,,,,,,12,,69,0
40439,note_on,,119,0,6,,,,,,,,,,,,,,,,1,,62,0
40440,note_on,,1,0,14,,,,,,,,,,,,,,,,10,,81,80
40440,note_on,,1,0,15,,,,,,,,,,,,,,,,11,,78,80
40499,note_on,,59,0,14,,,,,,,,,,,,,,,,10,,81,0
40499,note_on,,59,0,15,,,,,,,,,,,,,,,,11,,78,0
40500,note_on,,61,0,16,,,,,,,,,,,,,,,,12,,69,80
40500,note_on,,61,0,13,,,,,,,,,,,,,,,,8,,50,80
40500,note_on,,0,0,18,,,,,,,,,,,,,,,,15,,57,80
40500,note_on,,0,0,18,,,,,,,,,,,,,,,,15,,62,80
40500,note_on,,0,0,18,,,,,,,,,,,,,,,,15,,66,80
40500,note_on,,61,0,18,,,,,,,,,,,,,,,,15,,50,80
40500,note_on,,61,0,6,,,,,,,,,,,,,,,,1,,50,80
40500,note_on,,0,0,18,,,,,,,,,,,,,,,,15,,69,80
40500,note_on,,1,0,15,,,,,,,,,,,,,,,,11,,79,80
40500,note_on,,1,0,14,,,,,,,,,,,,,,,,10,,83,80
40500,note_on,,61,0,17,,,,,,,,,,,,,,,,13,,50,80
40529,note_on,,29,0,15,,,,,,,,,,,,,,,,11,,79,0
40529,note_on,,29,0,14,,,,,,,,,,,,,,,,10,,83,0
40530,note_on,,1,0,14,,,,,,,,,,,,,,,,10,,85,80
40530,note_on,,1,0,15,,,,,,,,,,,,,,,,11,,76,80
40559,note_on,,59,0,6,,,,,,,,,,,,,,,,1,,50,0
40559,note_on,,59,0,17,,,,,,,,,,,,,,,,13,,50,0
40559,note_on,,59,0,13,,,,,,,,,,,,,,,,8,,50,0
40559,note_on,,0,0,18,,,,,,,,,,,,,,,,15,,57,0
40559,note_on,,29,0,15,,,,,,,,,,,,,,,,11,,76,0
40559,note_on,,0,0,18,,,,,,,,,,,,,,,,15,,62,0
40559,note_on,,0,0,18,,,,,,,,,,,,,,,,15,,66,0
40559,note_on,,0,0,18,,,,,,,,,,,,,,,,15,,69,0
40559,note_on,,59,0,18,,,,,,,,,,,,,,,,15,,50,0
40559,note_on,,59,0,16,,,,,,,,,,,,,,,,12,,69,0
40559,note_on,,29,0,14,,,,,,,,,,,,,,,,10,,85,0
40560,note_on,,0,0,18,,,,,,,,,,,,,,,,15,,78,80
40560,note_on,,0,0,18,,,,,,,,,,,,,,,,15,,74,80
40560,note_on,,1,0,17,,,,,,,,,,,,,,,,13,,62,80
40560,note_on,,0,0,18,,,,,,,,,,,,,,,,15,,69,80
40560,note_on,,1,0,16,,,,,,,,,,,,,,,,12,,69,80
40560,note_on,,1,0,13,,,,,,,,,,,,,,,,8,,62,80
40560,note_on,,1,0,14,,,,,,,,,,,,,,,,10,,86,80
40560,note_on,,1,0,6,,,,,,,,,,,,,,,,1,,62,80
40560,note_on,,1,0,18,,,,,,,,,,,,,,,,15,,62,80
40560,note_on,,1,0,15,,,,,,,,,,,,,,,,11,,78,80
40619,note_on,,59,0,15,,,,,,,,,,,,,,,,11,,78,0
40620,note_on,,1,0,15,,,,,,,,,,,,,,,,11,,78,80
40649,note_on,,29,0,15,,,,,,,,,,,,,,,,11,,78,0
40650,note_on,,1,0,15,,,,,,,,,,,,,,,,11,,79,80
40679,note_on,,119,0,13,,,,,,,,,,,,,,,,8,,62,0
40679,note_on,,0,0,18,,,,,,,,,,,,,,,,15,,78,0
40679,note_on,,29,0,15,,,,,,,,,,,,,,,,11,,79,0
40679,note_on,,119,0,14,,,,,,,,,,,,,,,,10,,86,0
40679,note_on,,119,0,18,,,,,,,,,,,,,,,,15,,62,0
40679,note_on,,119,0,16,,,,,,,,,,,,,,,,12,,69,0
40679,note_on,,119,0,6,,,,,,,,,,,,,,,,1,,62,0
40679,note_on,,0,0,18,,,,,,,,,,,,,,,,15,,69,0
40679,note_on,,0,0,18,,,,,,,,,,,,,,,,15,,74,0
40679,note_on,,119,0,17,,,,,,,,,,,,,,,,13,,62,0
40680,note_on,,241,0,9,,,,,,,,,,,,,,,,4,,50,80
40680,note_on,,1,0,15,,,,,,,,,,,,,,,,11,,81,80
40680,note_on,,241,0,12,,,,,,,,,,,,,,,,7,,62,80
40680,note_on,,241,0,5,,,,,,,,,,,,,,,,0,,69,80
40680,note_on,,241,0,10,,,,,,,,,,,,,,,,5,,69,80
40680,note_on,,1,0,6,,,,,,,,,,,,,,,,1,,54,80
40680,note_on,,1,0,17,,,,,,,,,,,,,,,,13,,54,80
40680,note_on,,1,0,18,,,,,,,,,,,,,,,,15,,54,80
40680,note_on,,0,0,18,,,,,,,,,,,,,,,,15,,69,80
40680,note_on,,0,0,18,,,,,,,,,,,,,,,,15,,57,80
40680,note_on,,0,0,18,,,,,,,,,,,,,,,,15,,74,80
40680,note_on,,241,0,7,,,,,,,,,,,,,,,,2,,69,80
40680,note_on,,1,0,14,,,,,,,,,,,,,,,,10,,81,80
40680,note_on,,241,0,11,,,,,,,,,,,,,,,,6,,66,80
40680,note_on,,1,0,13,,,,,,,,,,,,,,,,8,,54,80
40680,note_on,,241,0,8,,,,,,,,,,,,,,,,3,,66,80
40680,note_on,,1,0,16,,,,,,,,,,,,,,,,12,,62,80
40709,note_on,,29,0,15,,,,,,,,,,,,,,,,11,,81,0
40710,note_on,,1,0,15,,,,,,,,,,,,,,,,11,,79,80
40739,note_on,,29,0,15,,,,,,,,,,,,,,,,11,,79,0
40740,note_on,,1,0,15,,,,,,,,,,,,,,,,11,,78,80
40769,note_on,,29,0,15,,,,,,,,,,,,,,,,11,,78,0
40770,note_on,,1,0,15,,,,,,,,,,,,,,,,11,,76,80
40799,note_on,,119,0,11,,,,,,,,,,,,,,,,6,,66,0
40799,note_on,,119,0,13,,,,,,,,,,,,,,,,8,,54,0
40799,note_on,,119,0,10,,,,,,,,,,,,,,,,5,,69,0
40799,note_on,,119,0,14,,,,,,,,,,,,,,,,10,,81,0
40799,note_on,,119,0,7,,,,,,,,,,,,,,,,2,,69,0
40799,note_on,,119,0,6,,,,,,,,,,,,,,,,1,,54,0
40799,note_on,,119,0,12,,,,,,,,,,,,,,,,7,,62,0
40799,note_on,,119,0,5,,,,,,,,,,,,,,,,0,,69,0
40799,note_on,,119,0,8,,,,,,,,,,,,,,,,3,,66,0
40799,note_on,,0,0,18,,,,,,,,,,,,,,,,15,,57,0
40799,note_on,,119,0,16,,,,,,,,,,,,,,,,12,,62,0
40799,note_on,,29,0,15,,,,,,,,,,,,,,,,11,,76,0
40799,note_on,,119,0,17,,,,,,,,,,,,,,,,13,,54,0
40799,note_on,,119,0,9,,,,,,,,,,,,,,,,4,,50,0
40799,note_on,,119,0,18,,,,,,,,,,,,,,,,15,,54,0
40799,note_on,,0,0,18,,,,,,,,,,,,,,,,15,,74,0
40799,note_on,,0,0,18,,,,,,,,,,,,,,,,15,,69,0
40800,note_on,,1,0,15,,,,,,,,,,,,,,,,11,,74,80
40800,note_on,,1,0,7,,,,,,,,,,,,,,,,2,,74,80
40800,note_on,,1,0,13,,,,,,,,,,,,,,,,8,,59,80
40800,note_on,,1,0,5,,,,,,,,,,,,,,,,0,,74,80
40800,note_on,,1,0,9,,,,,,,,,,,,,,,,4,,50,80
40800,note_on,,1,0,11,,,,,,,,,,,,,,,,6,,66,80
40800,note_on,,1,0,8,,,,,,,,,,,,,,,,3,,66,80
40800,note_on,,1,0,10,,,,,,,,,,,,,,,,5,,74,80
40800,note_on,,1,0,18,,,,,,,,,,,,,,,,15,,59,80
40800,note_on,,0,0,18,,,,,,,,,,,,,,,,15,,74,80
40800,note_on,,1,0,12,,,,,,,,,,,,,,,,7,,62,80
40800,note_on,,0,0,18,,,,,,,,,,,,,,,,15,,71,80
40800,note_on,,0,0,18,,,,,,,,,,,,,,,,15,,66,80
40800,note_on,,0,0,18,,,,,,,,,,,,,,,,15,,62,80
40800,note_on,,1,0,6,,,,,,,,,,,,,,,,1,,59,80
40800,note_on,,1,0,14,,,,,,,,,,,,,,,,10,,86,80
40800,note_on,,1,0,16,,,,,,,,,,,,,,,,12,,66,80
40800,note_on,,1,0,17,,,,,,,,,,,,,,,,13,,59,80
40829,note_on,,29,0,15,,,,,,,,,,,,,,,,11,,74,0
40830,note_on,,1,0,15,,,,,,,,,,,,,,,,11,,73,80
40859,note_on,,29,0,15,,,,,,,,,,,,,,,,11,,73,0
40859,note_on,,59,0,8,,,,,,,,,,,,,,,,3,,66,0
40859,note_on,,59,0,16,,,,,,,,,,,,,,,,12,,66,0
40860,note_on,,1,0,15,,,,,,,,,,,,,,,,11,,74,80
40860,note_on,,1,0,16,,,,,,,,,,,,,,,,12,,62,80
40860,note_on,,1,0,8,,,,,,,,,,,,,,,,3,,62,80
40889,note_on,,29,0,15,,,,,,,,,,,,,,,,11,,74,0
40890,note_on,,1,0,15,,,,,,,,,,,,,,,,11,,76,80
40919,note_on,,0,0,18,,,,,,,,,,,,,,,,15,,74,0
40919,note_on,,119,0,6,,,,,,,,,,,,,,,,1,,59,0
40919,note_on,,59,0,8,,,,,,,,,,,,,,,,3,,62,0
40919,note_on,,119,0,12,,,,,,,,,,,,,,,,7,,62,0
40919,note_on,,119,0,11,,,,,,,,,,,,,,,,6,,66,0
40919,note_on,,29,0,15,,,,,,,,,,,,,,,,11,,76,0
40919,note_on,,119,0,5,,,,,,,,,,,,,,,,0,,74,0
40919,note_on,,119,0,18,,,,,,,,,,,,,,,,15,,59,0
40919,note_on,,119,0,13,,,,,,,,,,,,,,,,8,,59,0
40919,note_on,,119,0,9,,,,,,,,,,,,,,,,4,,50,0
40919,note_on,,59,0,16,,,,,,,,,,,,,,,,12,,62,0
40919,note_on,,119,0,17,,,,,,,,,,,,,,,,13,,59,0
40919,note_on,,0,0,18,,,,,,,,,,,,,,,,15,,71,0
40919,note_on,,0,0,18,,,,,,,,,,,,,,,,15,,66,0
40919,note_on,,119,0,10,,,,,,,,,,,,,,,,5,,74,0
40919,note_on,,119,0,14,,,,,,,,,,,,,,,,10,,86,0
40919,note_on,,0,0,18,,,,,,,,,,,,,,,,15,,62,0
40919,note_on,,119,0,7,,,,,,,,,,,,,,,,2,,74,0
40920,note_on,,1,0,9,,,,,,,,,,,,,,,,4,,50,80
40920,note_on,,0,0,18,,,,,,,,,,,,,,,,15,,74,80
40920,note_on,,0,0,18,,,,,,,,,,,,,,,,15,,69,80
40920,note_on,,1,0,15,,,,,,,,,,,,,,,,11,,74,80
40920,note_on,,0,0,18,,,,,,,,,,,,,,,,15,,57,80
40920,note_on,,0,0,18,,,,,,,,,,,,,,,,15,,66,80
40920,note_on,,1,0,5,,,,,,,,,,,,,,,,0,,78,80
40920,note_on,,1,0,18,,,,,,,,,,,,,,,,15,,50,80
40920,note_on,,1,0,16,,,,,,,,,,,,,,,,12,,69,80
40920,note_on,,1,0,14,,,,,,,,,,,,,,,,10,,78,80
40920,note_on,,1,0,10,,,,,,,,,,,,,,,,5,,78,80
40920,note_on,,1,0,13,,,,,,,,,,,,,,,,8,,50,80
40920,note_on,,1,0,6,,,,,,,,,,,,,,,,1,,50,80
40920,note_on,,1,0,8,,,,,,,,,,,,,,,,3,,69,80
40920,note_on,,1,0,7,,,,,,,,,,,,,,,,2,,78,80
40920,note_on,,1,0,11,,,,,,,,,,,,,,,,6,,66,80
40920,note_on,,1,0,12,,,,,,,,,,,,,,,,7,,57,80
40920,note_on,,1,0,17,,,,,,,,,,,,,,,,13,,50,80
40949,note_on,,29,0,15,,,,,,,,,,,,,,,,11,,74,0
40950,note_on,,1,0,15,,,,,,,,,,,,,,,,11,,73,80
40979,note_on,,59,0,8,,,,,,,,,,,,,,,,3,,69,0
40979,note_on,,29,0,15,,,,,,,,,,,,,,,,11,,73,0
40979,note_on,,59,0,16,,,,,,,,,,,,,,,,12,,69,0
40980,note_on,,1,0,8,,,,,,,,,,,,,,,,3,,66,80
40980,note_on,,1,0,16,,,,,,,,,,,,,,,,12,,66,80
40980,note_on,,1,0,15,,,,,,,,,,,,,,,,11,,71,80
41009,note_on,,29,0,15,,,,,,,,,,,,,,,,11,,71,0
41010,note_on,,1,0,15,,,,,,,,,,,,,,,,11,,69,80
41039,note_on,,119,0,10,,,,,,,,,,,,,,,,5,,78,0
41039,note_on,,59,0,16,,,,,,,,,,,,,,,,12,,66,0
41039,note_on,,119,0,17,,,,,,,,,,,,,,,,13,,50,0
41039,note_on,,0,0,18,,,,,,,,,,,,,,,,15,,66,0
41039,note_on,,119,0,9,,,,,,,,,,,,,,,,4,,50,0
41039,note_on,,59,0,8,,,,,,,,,,,,,,,,3,,66,0
41039,note_on,,119,0,7,,,,,,,,,,,,,,,,2,,78,0
41039,note_on,,119,0,11,,,,,,,,,,,,,,,,6,,66,0
41039,note_on,,119,0,12,,,,,,,,,,,,,,,,7,,57,0
41039,note_on,,119,0,6,,,,,,,,,,,,,,,,1,,50,0
41039,note_on,,0,0,18,,,,,,,,,,,,,,,,15,,57,0
41039,note_on,,119,0,5,,,,,,,,,,,,,,,,0,,78,0
41039,note_on,,119,0,13,,,,,,,,,,,,,,,,8,,50,0
41039,note_on,,29,0,15,,,,,,,,,,,,,,,,11,,69,0
41039,note_on,,0,0,18,,,,,,,,,,,,,,,,15,,74,0
41039,note_on,,119,0,18,,,,,,,,,,,,,,,,15,,50,0
41039,note_on,,119,0,14,,,,,,,,,,,,,,,,10,,78,0
41039,note_on,,0,0,18,,,,,,,,,,,,,,,,15,,69,0
41040,note_on,,1,0,13,,,,,,,,,,,,,,,,8,,55,80
41040,note_on,,0,0,18,,,,,,,,,,,,,,,,15,,59,80
41040,note_on,,1,0,12,,,,,,,,,,,,,,,,7,,59,80
41040,note_on,,0,0,18,,,,,,,,,,,,,,,,15,,62,80
41040,note_on,,1,0,9,,,,,,,,,,,,,,,,4,,50,80
41040,note_on,,1,0,8,,,,,,,,,,,,,,,,3,,74,80
41040,note_on,,0,0,18,,,,,,,,,,,,,,,,15,,67,80
41040,note_on,,1,0,11,,,,,,,,,,,,,,,,6,,62,80
41040,note_on,,1,0,15,,,,,,,,,,,,,,,,11,,67,80
41040,note_on,,1,0,16,,,,,,,,,,,,,,,,12,,62,80
41040,note_on,,1,0,5,,,,,,,,,,,,,,,,0,,71,80
41040,note_on,,0,0,18,,,,,,,,,,,,,,,,15,,74,80
41040,note_on,,1,0,7,,,,,,,,,,,,,,,,2,,83,80
41040,note_on,,1,0,10,,,,,,,,,,,,,,,,5,,71,80
41040,note_on,,1,0,14,,,,,,,,,,,,,,,,10,,83,80
41040,note_on,,1,0,17,,,,,,,,,,,,,,,,13,,55,80
41040,note_on,,1,0,18,,,,,,,,,,,,,,,,15,,55,80
41040,note_on,,1,0,6,,,,,,,,,,,,,,,,1,,55,80
41069,note_on,,29,0,15,,,,,,,,,,,,,,,,11,,67,0
41070,note_on,,1,0,15,,,,,,,,,,,,,,,,11,,69,80
41099,note_on,,29,0,15,,,,,,,,,,,,,,,,11,,69,0
41100,note_on,,1,0,15,,,,,,,,,,,,,,,,11,,71,80
41129,note_on,,29,0,15,,,,,,,,,,,,,,,,11,,71,0
41130,note_on,,1,0,15,,,,,,,,,,,,,,,,11,,67,80
41159,note_on,,119,0,12,,,,,,,,,,,,,,,,7,,59,0
41159,note_on,,119,0,13,,,,,,,,,,,,,,,,8,,55,0
41159,note_on,,0,0,18,,,,,,,,,,,,,,,,15,,67,0
41159,note_on,,0,0,18,,,,,,,,,,,,,,,,15,,62,0
41159,note_on,,0,0,18,,,,,,,,,,,,,,,,15,,59,0
41159,note_on,,119,0,8,,,,,,,,,,,,,,,,3,,74,0
41159,note_on,,119,0,16,,,,,,,,,,,,,,,,12,,62,0
41159,note_on,,119,0,11,,,,,,,,,,,,,,,,6,,62,0
41159,note_on,,119,0,10,,,,,,,,,,,,,,,,5,,71,0
41159,note_on,,119,0,17,,,,,,,,,,,,,,,,13,,55,0
41159,note_on,,119,0,5,,,,,,,,,,,,,,,,0,,71,0
41159,note_on,,0,0,18,,,,,,,,,,,,,,,,15,,74,0
41159,note_on,,119,0,18,,,,,,,,,,,,,,,,15,,55,0
41159,note_on,,119,0,6,,,,,,,,,,,,,,,,1,,55,0
41159,note_on,,29,0,15,,,,,,,,,,,,,,,,11,,67,0
41159,note_on,,119,0,14,,,,,,,,,,,,,,,,10,,83,0
41159,note_on,,119,0,7,,,,,,,,,,,,,,,,2,,83,0
41159,note_on,,119,0,9,,,,,,,,,,,,,,,,4,,50,0
41160,note_on,,1,0,9,,,,,,,,,,,,,,,,4,,50,80
41160,note_on,,1,0,15,,,,,,,,,,,,,,,,11,,69,80
41160,note_on,,1,0,14,,,,,,,,,,,,,,,,10,,74,80
41160,note_on,,1,0,18,,,,,,,,,,,,,,,,15,,54,80
41160,note_on,,1,0,11,,,,,,,,,,,,,,,,6,,69,80
41160,note_on,,0,0,18,,,,,,,,,,,,,,,,15,,74,80
41160,note_on,,0,0,18,,,,,,,,,,,,,,,,15,,69,80
41160,note_on,,0,0,18,,,,,,,,,,,,,,,,15,,66,80
41160,note_on,,0,0,18,,,,,,,,,,,,,,,,15,,62,80
41160,note_on,,0,0,18,,,,,,,,,,,,,,,,15,,57,80
41160,note_on,,1,0,5,,,,,,,,,,,,,,,,0,,74,80
41160,note_on,,1,0,16,,,,,,,,,,,,,,,,12,,69,80
41160,note_on,,1,0,6,,,,,,,,,,,,,,,,1,,54,80
41160,note_on,,1,0,17,,,,,,,,,,,,,,,,13,,54,80
41160,note_on,,1,0,12,,,,,,,,,,,,,,,,7,,57,80
41160,note_on,,1,0,10,,,,,,,,,,,,,,,,5,,74,80
41160,note_on,,1,0,8,,,,,,,,,,,,,,,,3,,69,80
41160,note_on,,1,0,13,,,,,,,,,,,,,,,,8,,54,80
41160,note_on,,1,0,7,,,,,,,,,,,,,,,,2,,74,80
41219,note_on,,59,0,15,,,,,,,,,,,,,,,,11,,69,0
41219,note_on,,59,0,6,,,,,,,,,,,,,,,,1,,54,0
41219,note_on,,59,0,13,,,,,,,,,,,,,,,,8,,54,0
41219,note_on,,59,0,17,,,,,,,,,,,,,,,,13,,54,0
41219,note_on,,59,0,18,,,,,,,,,,,,,,,,15,,54,0
41220,note_on,,1,0,6,,,,,,,,,,,,,,,,1,,54,80
41220,note_on,,1,0,13,,,,,,,,,,,,,,,,8,,54,80
41220,note_on,,1,0,17,,,,,,,,,,,,,,,,13,,54,80
41220,note_on,,1,0,15,,,,,,,,,,,,,,,,11,,81,80
41220,note_on,,1,0,18,,,,,,,,,,,,,,,,15,,54,80
41279,note_on,,59,0,15,,,,,,,,,,,,,,,,11,,81,0
41279,note_on,,0,0,18,,,,,,,,,,,,,,,,15,,62,0
41279,note_on,,0,0,18,,,,,,,,,,,,,,,,15,,57,0
41279,note_on,,0,0,18,,,,,,,,,,,,,,,,15,,54,0
41279,note_on,,59,0,13,,,,,,,,,,,,,,,,8,,54,0
41279,note_on,,59,0,17,,,,,,,,,,,,,,,,13,,54,0
41279,note_on,,59,0,18,,,,,,,,,,,,,,,,15,,74,0
41279,note_on,,119,0,10,,,,,,,,,,,,,,,,5,,74,0
41279,note_on,,0,0,18,,,,,,,,,,,,,,,,15,,66,0
41279,note_on,,119,0,8,,,,,,,,,,,,,,,,3,,69,0
41279,note_on,,119,0,11,,,,,,,,,,,,,,,,6,,69,0
41279,note_on,,119,0,16,,,,,,,,,,,,,,,,12,,69,0
41279,note_on,,119,0,7,,,,,,,,,,,,,,,,2,,74,0
41279,note_on,,0,0,18,,,,,,,,,,,,,,,,15,,69,0
41279,note_on,,119,0,5,,,,,,,,,,,,,,,,0,,74,0
41279,note_on,,119,0,14,,,,,,,,,,,,,,,,10,,74,0
41279,note_on,,119,0,12,,,,,,,,,,,,,,,,7,,57,0
41279,note_on,,59,0,6,,,,,,,,,,,,,,,,1,,54,0
41279,note_on,,119,0,9,,,,,,,,,,,,,,,,4,,50,0
41280,note_on,,1,0,15,,,,,,,,,,,,,,,,11,,73,80
41280,note_on,,1,0,9,,,,,,,,,,,,,,,,4,,45,80
41280,note_on,,0,0,18,,,,,,,,,,,,,,,,15,,61,80
41280,note_on,,0,0,18,,,,,,,,,,,,,,,,15,,67,80
41280,note_on,,1,0,12,,,,,,,,,,,,,,,,7,,61,80
41280,note_on,,1,0,17,,,,,,,,,,,,,,,,13,,52,80
41280,note_on,,0,0,18,,,,,,,,,,,,,,,,15,,73,80
41280,note_on,,1,0,6,,,,,,,,,,,,,,,,1,,52,80
41280,note_on,,1,0,18,,,,,,,,,,,,,,,,15,,52,80
41280,note_on,,0,0,18,,,,,,,,,,,,,,,,15,,76,80
41280,note_on,,1,0,13,,,,,,,,,,,,,,,,8,,52,80
41280,note_on,,1,0,8,,,,,,,,,,,,,,,,3,,76,80
41280,note_on,,1,0,5,,,,,,,,,,,,,,,,0,,79,80
41280,note_on,,1,0,16,,,,,,,,,,,,,,,,12,,64,80
41280,note_on,,1,0,11,,,,,,,,,,,,,,,,6,,64,80
41280,note_on,,1,0,14,,,,,,,,,,,,,,,,10,,79,80
41280,note_on,,1,0,7,,,,,,,,,,,,,,,,2,,79,80
41280,note_on,,1,0,10,,,,,,,,,,,,,,,,5,,79,80
41280,note_on,,0,0,18,,,,,,,,,,,,,,,,15,,55,80
41399,note_on,,119,0,12,,,,,,,,,,,,,,,,7,,61,0
41399,note_on,,0,0,18,,,,,,,,,,,,,,,,15,,76,0
41399,note_on,,0,0,18,,,,,,,,,,,,,,,,15,,73,0
41399,note_on,,0,0,18,,,,,,,,,,,,,,,,15,,67,0
41399,note_on,,0,0,18,,,,,,,,,,,,,,,,15,,61,0
41399,note_on,,0,0,18,,,,,,,,,,,,,,,,15,,55,0
41399,note_on,,119,0,16,,,,,,,,,,,,,,,,12,,64,0
41399,note_on,,119,0,10,,,,,,,,,,,,,,,,5,,79,0
41399,note_on,,119,0,11,,,,,,,,,,,,,,,,6,,64,0
41399,note_on,,119,0,8,,,,,,,,,,,,,,,,3,,76,0
41399,note_on,,119,0,7,,,,,,,,,,,,,,,,2,,79,0
41399,note_on,,119,0,6,,,,,,,,,,,,,,,,1,,52,0
41399,note_on,,119,0,18,,,,,,,,,,,,,,,,15,,52,0
41399,note_on,,119,0,9,,,,,,,,,,,,,,,,4,,45,0
41399,note_on,,119,0,17,,,,,,,,,,,,,,,,13,,52,0
41399,note_on,,119,0,15,,,,,,,,,,,,,,,,11,,73,0
41399,note_on,,119,0,14,,,,,,,,,,,,,,,,10,,79,0
41399,note_on,,119,0,13,,,,,,,,,,,,,,,,8,,52,0
41399,note_on,,119,0,5,,,,,,,,,,,,,,,,0,,79,0
41400,note_on,,1,0,15,,,,,,,,,,,,,,,,11,,74,80
41400,note_on,,1,0,16,,,,,,,,,,,,,,,,12,,69,80
41400,note_on,,1,0,17,,,,,,,,,,,,,,,,13,,50,80
41400,note_on,,1,0,12,,,,,,,,,,,,,,,,7,,62,80
41400,note_on,,0,0,18,,,,,,,,,,,,,,,,15,,69,80
41400,note_on,,1,0,6,,,,,,,,,,,,,,,,1,,50,80
41400,note_on,,1,0,10,,,,,,,,,,,,,,,,5,,78,80
41400,note_on,,0,0,18,,,,,,,,,,,,,,,,15,,54,80
41400,note_on,,0,0,18,,,,,,,,,,,,,,,,15,,57,80
41400,note_on,,1,0,18,,,,,,,,,,,,,,,,15,,50,80
41400,note_on,,1,0,8,,,,,,,,,,,,,,,,3,,74,80
41400,note_on,,1,0,7,,,,,,,,,,,,,,,,2,,78,80
41400,note_on,,1,0,9,,,,,,,,,,,,,,,,4,,50,80
41400,note_on,,0,0,18,,,,,,,,,,,,,,,,15,,74,80
41400,note_on,,0,0,18,,,,,,,,,,,,,,,,15,,78,80
41400,note_on,,1,0,14,,,,,,,,,,,,,,,,10,,78,80
41400,note_on,,1,0,11,,,,,,,,,,,,,,,,6,,69,80
41400,note_on,,1,0,13,,,,,,,,,,,,,,,,8,,50,80
41400,note_on,,1,0,5,,,,,,,,,,,,,,,,0,,78,80
41459,note_on,,59,0,12,,,,,,,,,,,,,,,,7,,62,0
41459,note_on,,59,0,14,,,,,,,,,,,,,,,,10,,78,0
41459,note_on,,59,0,9,,,,,,,,,,,,,,,,4,,50,0
41459,note_on,,59,0,7,,,,,,,,,,,,,,,,2,,78,0
41459,note_on,,59,0,8,,,,,,,,,,,,,,,,3,,74,0
41459,note_on,,59,0,13,,,,,,,,,,,,,,,,8,,50,0
41459,note_on,,59,0,6,,,,,,,,,,,,,,,,1,,50,0
41459,note_on,,59,0,18,,,,,,,,,,,,,,,,15,,50,0
41459,note_on,,59,0,17,,,,,,,,,,,,,,,,13,,50,0
41459,note_on,,59,0,11,,,,,,,,,,,,,,,,6,,69,0
41459,note_on,,59,0,10,,,,,,,,,,,,,,,,5,,78,0
41459,note_on,,59,0,5,,,,,,,,,,,,,,,,0,,78,0
41459,note_on,,59,0,16,,,,,,,,,,,,,,,,12,,69,0
41460,note_on,,1,0,11,,,,,,,,,,,,,,,,6,,69,80
41460,note_on,,1,0,18,,,,,,,,,,,,,,,,15,,50,80
41460,note_on,,1,0,13,,,,,,,,,,,,,,,,8,,50,80
41460,note_on,,1,0,10,,,,,,,,,,,,,,,,5,,76,80
41460,note_on,,1,0,8,,,,,,,,,,,,,,,,3,,69,80
41460,note_on,,1,0,6,,,,,,,,,,,,,,,,1,,50,80
41460,note_on,,1,0,7,,,,,,,,,,,,,,,,2,,76,80
41460,note_on,,1,0,9,,,,,,,,,,,,,,,,4,,50,80
41460,note_on,,1,0,14,,,,,,,,,,,,,,,,10,,76,80
41460,note_on,,1,0,5,,,,,,,,,,,,,,,,0,,76,80
41460,note_on,,1,0,12,,,,,,,,,,,,,,,,7,,62,80
41460,note_on,,1,0,17,,,,,,,,,,,,,,,,13,,50,80
41460,note_on,,1,0,16,,,,,,,,,,,,,,,,12,,69,80
41519,note_on,,59,0,7,,,,,,,,,,,,,,,,2,,76,0
41519,note_on,,59,0,14,,,,,,,,,,,,,,,,10,,76,0
41519,note_on,,119,0,15,,,,,,,,,,,,,,,,11,,74,0
41519,note_on,,59,0,8,,,,,,,,,,,,,,,,3,,69,0
41519,note_on,,59,0,11,,,,,,,,,,,,,,,,6,,69,0
41519,note_on,,59,0,12,,,,,,,,,,,,,,,,7,,62,0
41519,note_on,,59,0,16,,,,,,,,,,,,,,,,12,,69,0
41519,note_on,,59,0,5,,,,,,,,,,,,,,,,0,,76,0
41519,note_on,,59,0,6,,,,,,,,,,,,,,,,1,,50,0
41519,note_on,,0,0,18,,,,,,,,,,,,,,,,15,,78,0
41519,note_on,,59,0,17,,,,,,,,,,,,,,,,13,,50,0
41519,note_on,,59,0,10,,,,,,,,,,,,,,,,5,,76,0
41519,note_on,,59,0,18,,,,,,,,,,,,,,,,15,,57,0
41519,note_on,,0,0,18,,,,,,,,,,,,,,,,15,,50,0
41519,note_on,,0,0,18,,,,,,,,,,,,,,,,15,,69,0
41519,note_on,,0,0,18,,,,,,,,,,,,,,,,15,,74,0
41519,note_on,,59,0,13,,,,,,,,,,,,,,,,8,,50,0
41519,note_on,,0,0,18,,,,,,,,,,,,,,,,15,,54,0
41519,note_on,,59,0,9,,,,,,,,,,,,,,,,4,,50,0
41520,note_on,,0,0,18,,,,,,,,,,,,,,,,15,,76,80
41520,note_on,,1,0,12,,,,,,,,,,,,,,,,7,,62,80
41520,note_on,,1,0,18,,,,,,,,,,,,,,,,15,,57,80
41520,note_on,,1,0,14,,,,,,,,,,,,,,,,10,,76,80
41520,note_on,,1,0,5,,,,,,,,,,,,,,,,0,,76,80
41520,note_on,,1,0,17,,,,,,,,,,,,,,,,13,,57,80
41520,note_on,,1,0,13,,,,,,,,,,,,,,,,8,,57,80
41520,note_on,,1,0,6,,,,,,,,,,,,,,,,1,,57,80
41520,note_on,,1,0,10,,,,,,,,,,,,,,,,5,,76,80
41520,note_on,,0,0,18,,,,,,,,,,,,,,,,15,,69,80
41520,note_on,,0,0,18,,,,,,,,,,,,,,,,15,,64,80
41520,note_on,,0,0,18,,,,,,,,,,,,,,,,15,,74,80
41520,note_on,,1,0,9,,,,,,,,,,,,,,,,4,,45,80
41520,note_on,,1,0,15,,,,,,,,,,,,,,,,11,,74,80
41520,note_on,,1,0,7,,,,,,,,,,,,,,,,2,,76,80
41520,note_on,,1,0,16,,,,,,,,,,,,,,,,12,,69,80
41520,note_on,,1,0,8,,,,,,,,,,,,,,,,3,,69,80
41520,note_on,,1,0,11,,,,,,,,,,,,,,,,6,,69,80
41534,note_on,,14,0,14,,,,,,,,,,,,,,,,10,,76,0
41535,note_on,,1,0,14,,,,,,,,,,,,,,,,10,,78,80
41549,note_on,,14,0,14,,,,,,,,,,,,,,,,10,,78,0
41550,note_on,,1,0,14,,,,,,,,,,,,,,,,10,,76,80
41564,note_on,,14,0,14,,,,,,,,,,,,,,,,10,,76,0
41565,note_on,,1,0,14,,,,,,,,,,,,,,,,10,,78,80
41579,note_on,,14,0,14,,,,,,,,,,,,,,,,10,,78,0
41579,note_on,,59,0,8,,,,,,,,,,,,,,,,3,,69,0
41580,note_on,,1,0,8,,,,,,,,,,,,,,,,3,,69,80
41580,note_on,,1,0,14,,,,,,,,,,,,,,,,10,,76,80
41594,note_on,,14,0,14,,,,,,,,,,,,,,,,10,,76,0
41595,note_on,,1,0,14,,,,,,,,,,,,,,,,10,,78,80
41609,note_on,,14,0,14,,,,,,,,,,,,,,,,10,,78,0
41609,note_on,,29,0,8,,,,,,,,,,,,,,,,3,,69,0
41610,note_on,,1,0,8,,,,,,,,,,,,,,,,3,,69,80
41610,note_on,,1,0,14,,,,,,,,,,,,,,,,10,,76,80
41624,note_on,,14,0,14,,,,,,,,,,,,,,,,10,,76,0
41625,note_on,,1,0,14,,,,,,,,,,,,,,,,10,,78,80
41639,note_on,,119,0,18,,,,,,,,,,,,,,,,15,,74,0
41639,note_on,,0,0,18,,,,,,,,,,,,,,,,15,,69,0
41639,note_on,,0,0,18,,,,,,,,,,,,,,,,15,,64,0
41639,note_on,,29,0,8,,,,,,,,,,,,,,,,3,,69,0
41639,note_on,,119,0,12,,,,,,,,,,,,,,,,7,,62,0
41639,note_on,,119,0,16,,,,,,,,,,,,,,,,12,,69,0
41639,note_on,,119,0,15,,,,,,,,,,,,,,,,11,,74,0
41639,note_on,,14,0,14,,,,,,,,,,,,,,,,10,,78,0
41640,note_on,,1,0,16,,,,,,,,,,,,,,,,12,,64,80
41640,note_on,,1,0,8,,,,,,,,,,,,,,,,3,,69,80
41640,note_on,,1,0,14,,,,,,,,,,,,,,,,10,,76,80
41640,note_on,,0,0,18,,,,,,,,,,,,,,,,15,,64,80
41640,note_on,,0,0,18,,,,,,,,,,,,,,,,15,,69,80
41640,note_on,,1,0,18,,,,,,,,,,,,,,,,15,,73,80
41640,note_on,,1,0,12,,,,,,,,,,,,,,,,7,,61,80
41640,note_on,,1,0,15,,,,,,,,,,,,,,,,11,,73,80
41654,note_on,,14,0,14,,,,,,,,,,,,,,,,10,,76,0
41655,note_on,,1,0,14,,,,,,,,,,,,,,,,10,,78,80
41669,note_on,,14,0,14,,,,,,,,,,,,,,,,10,,78,0
41670,note_on,,1,0,14,,,,,,,,,,,,,,,,10,,74,80
41684,note_on,,14,0,14,,,,,,,,,,,,,,,,10,,74,0
41685,note_on,,1,0,14,,,,,,,,,,,,,,,,10,,76,80
41699,note_on,,14,0,14,,,,,,,,,,,,,,,,10,,76,0
41699,note_on,,179,0,7,,,,,,,,,,,,,,,,2,,76,0
41699,note_on,,59,0,8,,,,,,,,,,,,,,,,3,,69,0
41699,note_on,,179,0,9,,,,,,,,,,,,,,,,4,,45,0
41700,note_on,,1,0,7,,,,,,,,,,,,,,,,2,,74,80
41700,note_on,,1,0,8,,,,,,,,,,,,,,,,3,,69,80
41700,note_on,,1,0,9,,,,,,,,,,,,,,,,4,,45,80
41700,note_on,,1,0,14,,,,,,,,,,,,,,,,10,,74,80
41759,note_on,,239,0,17,,,,,,,,,,,,,,,,13,,57,0
41759,note_on,,239,0,11,,,,,,,,,,,,,,,,6,,69,0
41759,note_on,,119,0,12,,,,,,,,,,,,,,,,7,,61,0
41759,note_on,,59,0,14,,,,,,,,,,,,,,,,10,,74,0
41759,note_on,,239,0,13,,,,,,,,,,,,,,,,8,,57,0
41759,note_on,,119,0,15,,,,,,,,,,,,,,,,11,,73,0
41759,note_on,,59,0,9,,,,,,,,,,,,,,,,4,,45,0
41759,note_on,,59,0,7,,,,,,,,,,,,,,,,2,,74,0
41759,note_on,,0,0,18,,,,,,,,,,,,,,,,15,,73,0
41759,note_on,,119,0,16,,,,,,,,,,,,,,,,12,,64,0
41759,note_on,,239,0,5,,,,,,,,,,,,,,,,0,,76,0
41759,note_on,,0,0,18,,,,,,,,,,,,,,,,15,,64,0
41759,note_on,,0,0,18,,,,,,,,,,,,,,,,15,,69,0
41759,note_on,,239,0,10,,,,,,,,,,,,,,,,5,,76,0
41759,note_on,,0,0,18,,,,,,,,,,,,,,,,15,,76,0
41759,note_on,,119,0,18,,,,,,,,,,,,,,,,15,,57,0
41759,note_on,,59,0,8,,,,,,,,,,,,,,,,3,,69,0
41759,note_on,,239,0,6,,,,,,,,,,,,,,,,1,,57,0
41760,note_on,,1,0,6,,,,,,,,,,,,,,,,1,,50,80
41760,note_on,,1,0,9,,,,,,,,,,,,,,,,4,,50,80
41760,note_on,,0,0,18,,,,,,,,,,,,,,,,15,,69,80
41760,note_on,,1,0,7,,,,,,,,,,,,,,,,2,,74,80
41760,note_on,,1,0,11,,,,,,,,,,,,,,,,6,,69,80
41760,note_on,,1,0,14,,,,,,,,,,,,,,,,10,,74,80
41760,note_on,,1,0,15,,,,,,,,,,,,,,,,11,,74,80
41760,note_on,,1,0,16,,,,,,,,,,,,,,,,12,,66,80
41760,note_on,,0,0,18,,,,,,,,,,,,,,,,15,,57,80
41760,note_on,,1,0,5,,,,,,,,,,,,,,,,0,,74,80
41760,note_on,,1,0,10,,,,,,,,,,,,,,,,5,,74,80
41760,note_on,,1,0,13,,,,,,,,,,,,,,,,8,,50,80
41760,note_on,,1,0,17,,,,,,,,,,,,,,,,13,,50,80
41760,note_on,,1,0,8,,,,,,,,,,,,,,,,3,,66,80
41760,note_on,,1,0,12,,,,,,,,,,,,,,,,7,,66,80
41760,note_on,,1,0,18,,,,,,,,,,,,,,,,15,,66,80
41760,note_on,,0,0,18,,,,,,,,,,,,,,,,15,,50,80
41760,note_on,,0,0,18,,,,,,,,,,,,,,,,15,,74,80
41819,note_on,,59,0,7,,,,,,,,,,,,,,,,2,,74,0
41820,note_on,,1,0,7,,,,,,,,,,,,,,,,2,,62,80
41849,note_on,,29,0,7,,,,,,,,,,,,,,,,2,,62,0
41850,note_on,,1,0,7,,,,,,,,,,,,,,,,2,,62,80
41879,note_on,,119,0,8,,,,,,,,,,,,,,,,3,,66,0
41879,note_on,,0,0,18,,,,,,,,,,,,,,,,15,,74,0
41879,note_on,,29,0,7,,,,,,,,,,,,,,,,2,,62,0
41879,note_on,,119,0,9,,,,,,,,,,,,,,,,4,,50,0
41879,note_on,,119,0,10,,,,,,,,,,,,,,,,5,,74,0
41879,note_on,,119,0,11,,,,,,,,,,,,,,,,6,,69,0
41879,note_on,,0,0,18,,,,,,,,,,,,,,,,15,,69,0
41879,note_on,,119,0,15,,,,,,,,,,,,,,,,11,,74,0
41879,note_on,,119,0,17,,,,,,,,,,,,,,,,13,,50,0
41879,note_on,,0,0,18,,,,,,,,,,,,,,,,15,,57,0
41879,note_on,,119,0,14,,,,,,,,,,,,,,,,10,,74,0
41879,note_on,,119,0,18,,,,,,,,,,,,,,,,15,,66,0
41879,note_on,,0,0,18,,,,,,,,,,,,,,,,15,,50,0
41879,note_on,,119,0,12,,,,,,,,,,,,,,,,7,,66,0
41879,note_on,,119,0,13,,,,,,,,,,,,,,,,8,,50,0
41879,note_on,,119,0,6,,,,,,,,,,,,,,,,1,,50,0
41879,note_on,,119,0,16,,,,,,,,,,,,,,,,12,,66,0
41879,note_on,,119,0,5,,,,,,,,,,,,,,,,0,,74,0
41880,note_on,,1,0,7,,,,,,,,,,,,,,,,2,,66,80
41939,note_on,,59,0,7,,,,,,,,,,,,,,,,2,,66,0
41940,note_on,,61,0,15,,,,,,,,,,,,,,,,11,,74,80
41940,note_on,,61,0,13,,,,,,,,,,,,,,,,8,,54,80
41940,note_on,,0,0,18,,,,,,,,,,,,,,,,15,,74,80
41940,note_on,,61,0,16,,,,,,,,,,,,,,,,12,,69,80
41940,note_on,,61,0,9,,,,,,,,,,,,,,,,4,,50,80
41940,note_on,,61,0,6,,,,,,,,,,,,,,,,1,,54,80
41940,note_on,,61,0,8,,,,,,,,,,,,,,,,3,,66,80
41940,note_on,,0,0,18,,,,,,,,,,,,,,,,15,,69,80
41940,note_on,,0,0,18,,,,,,,,,,,,,,,,15,,62,80
41940,note_on,,61,0,17,,,,,,,,,,,,,,,,13,,54,80
41940,note_on,,61,0,12,,,,,,,,,,,,,,,,7,,62,80
41940,note_on,,0,0,18,,,,,,,,,,,,,,,,15,,57,80
41940,note_on,,1,0,7,,,,,,,,,,,,,,,,2,,69,80
41940,note_on,,61,0,14,,,,,,,,,,,,,,,,10,,81,80
41940,note_on,,61,0,18,,,,,,,,,,,,,,,,15,,54,80
41940,note_on,,61,0,11,,,,,,,,,,,,,,,,6,,69,80
41969,note_on,,29,0,7,,,,,,,,,,,,,,,,2,,69,0
41970,note_on,,1,0,7,,,,,,,,,,,,,,,,2,,69,80
41999,note_on,,59,0,13,,,,,,,,,,,,,,,,8,,54,0
41999,note_on,,59,0,14,,,,,,,,,,,,,,,,10,,81,0
41999,note_on,,59,0,6,,,,,,,,,,,,,,,,1,,54,0
41999,note_on,,59,0,17,,,,,,,,,,,,,,,,13,,54,0
41999,note_on,,59,0,9,,,,,,,,,,,,,,,,4,,50,0
41999,note_on,,59,0,8,,,,,,,,,,,,,,,,3,,66,0
41999,note_on,,59,0,16,,,,,,,,,,,,,,,,12,,69,0
41999,note_on,,59,0,11,,,,,,,,,,,,,,,,6,,69,0
41999,note_on,,29,0,7,,,,,,,,,,,,,,,,2,,69,0
41999,note_on,,59,0,18,,,,,,,,,,,,,,,,15,,54,0
41999,note_on,,0,0,18,,,,,,,,,,,,,,,,15,,57,0
41999,note_on,,0,0,18,,,,,,,,,,,,,,,,15,,62,0
41999,note_on,,59,0,12,,,,,,,,,,,,,,,,7,,62,0
41999,note_on,,0,0,18,,,,,,,,,,,,,,,,15,,69,0
41999,note_on,,0,0,18,,,,,,,,,,,,,,,,15,,74,0
41999,note_on,,59,0,15,,,,,,,,,,,,,,,,11,,74,0
42000,note_on,,1,0,14,,,,,,,,,,,,,,,,10,,83,80
42000,note_on,,1,0,17,,,,,,,,,,,,,,,,13,,55,80
42000,note_on,,1,0,16,,,,,,,,,,,,,,,,12,,74,80
42000,note_on,,121,0,5,,,,,,,,,,,,,,,,0,,74,80
42000,note_on,,1,0,15,,,,,,,,,,,,,,,,11,,79,80
42000,note_on,,0,0,18,,,,,,,,,,,,,,,,15,,74,80
42000,note_on,,0,0,18,,,,,,,,,,,,,,,,15,,62,80
42000,note_on,,0,0,18,,,,,,,,,,,,,,,,15,,59,80
42000,note_on,,121,0,10,,,,,,,,,,,,,,,,5,,74,80
42000,note_on,,0,0,18,,,,,,,,,,,,,,,,15,,55,80
42000,note_on,,1,0,18,,,,,,,,,,,,,,,,15,,67,80
42000,note_on,,1,0,11,,,,,,,,,,,,,,,,6,,71,80
42000,note_on,,1,0,9,,,,,,,,,,,,,,,,4,,50,80
42000,note_on,,1,0,13,,,,,,,,,,,,,,,,8,,55,80
42000,note_on,,1,0,12,,,,,,,,,,,,,,,,7,,67,80
42000,note_on,,1,0,7,,,,,,,,,,,,,,,,2,,74,80
42000,note_on,,1,0,8,,,,,,,,,,,,,,,,3,,62,80
42000,note_on,,1,0,6,,,,,,,,,,,,,,,,1,,55,80
42059,note_on,,59,0,9,,,,,,,,,,,,,,,,4,,50,0
42059,note_on,,59,0,17,,,,,,,,,,,,,,,,13,,55,0
42059,note_on,,59,0,12,,,,,,,,,,,,,,,,7,,67,0
42059,note_on,,59,0,14,,,,,,,,,,,,,,,,10,,83,0
42059,note_on,,59,0,16,,,,,,,,,,,,,,,,12,,74,0
42059,note_on,,59,0,15,,,,,,,,,,,,,,,,11,,79,0
42059,note_on,,0,0,18,,,,,,,,,,,,,,,,15,,59,0
42059,note_on,,0,0,18,,,,,,,,,,,,,,,,15,,62,0
42059,note_on,,0,0,18,,,,,,,,,,,,,,,,15,,55,0
42059,note_on,,59,0,18,,,,,,,,,,,,,,,,15,,67,0
42059,note_on,,59,0,8,,,,,,,,,,,,,,,,3,,62,0
42059,note_on,,0,0,18,,,,,,,,,,,,,,,,15,,74,0
42059,note_on,,59,0,13,,,,,,,,,,,,,,,,8,,55,0
42059,note_on,,59,0,6,,,,,,,,,,,,,,,,1,,55,0
42059,note_on,,59,0,11,,,,,,,,,,,,,,,,6,,71,0
42060,note_on,,1,0,6,,,,,,,,,,,,,,,,1,,50,80
42060,note_on,,1,0,13,,,,,,,,,,,,,,,,8,,50,80
42060,note_on,,1,0,16,,,,,,,,,,,,,,,,12,,62,80
42060,note_on,,0,0,18,,,,,,,,,,,,,,,,15,,62,80
42060,note_on,,1,0,15,,,,,,,,,,,,,,,,11,,78,80
42060,note_on,,1,0,18,,,,,,,,,,,,,,,,15,,50,80
42060,note_on,,1,0,9,,,,,,,,,,,,,,,,4,,50,80
42060,note_on,,1,0,12,,,,,,,,,,,,,,,,7,,66,80
42060,note_on,,0,0,18,,,,,,,,,,,,,,,,15,,57,80
42060,note_on,,1,0,8,,,,,,,,,,,,,,,,3,,62,80
42060,note_on,,1,0,17,,,,,,,,,,,,,,,,13,,50,80
42060,note_on,,0,0,18,,,,,,,,,,,,,,,,15,,66,80
42060,note_on,,0,0,18,,,,,,,,,,,,,,,,15,,74,80
42060,note_on,,1,0,11,,,,,,,,,,,,,,,,6,,69,80
42060,note_on,,1,0,14,,,,,,,,,,,,,,,,10,,81,80
42119,note_on,,0,0,18,,,,,,,,,,,,,,,,15,,66,0
42119,note_on,,59,0,14,,,,,,,,,,,,,,,,10,,81,0
42119,note_on,,59,0,12,,,,,,,,,,,,,,,,7,,66,0
42119,note_on,,119,0,10,,,,,,,,,,,,,,,,5,,74,0
42119,note_on,,59,0,9,,,,,,,,,,,,,,,,4,,50,0
42119,note_on,,119,0,7,,,,,,,,,,,,,,,,2,,74,0
42119,note_on,,59,0,6,,,,,,,,,,,,,,,,1,,50,0
42119,note_on,,119,0,5,,,,,,,,,,,,,,,,0,,74,0
42119,note_on,,59,0,17,,,,,,,,,,,,,,,,13,,50,0
42119,note_on,,59,0,11,,,,,,,,,,,,,,,,6,,69,0
42119,note_on,,59,0,15,,,,,,,,,,,,,,,,11,,78,0
42119,note_on,,0,0,18,,,,,,,,,,,,,,,,15,,74,0
42119,note_on,,59,0,18,,,,,,,,,,,,,,,,15,,50,0
42119,note_on,,0,0,18,,,,,,,,,,,,,,,,15,,57,0
42119,note_on,,0,0,18,,,,,,,,,,,,,,,,15,,62,0
42119,note_on,,59,0,8,,,,,,,,,,,,,,,,3,,62,0
42119,note_on,,59,0,13,,,,,,,,,,,,,,,,8,,50,0
42119,note_on,,59,0,16,,,,,,,,,,,,,,,,12,,62,0
42120,note_on,,1,0,7,,,,,,,,,,,,,,,,2,,74,80
42120,note_on,,1,0,5,,,,,,,,,,,,,,,,0,,74,80
42120,note_on,,1,0,10,,,,,,,,,,,,,,,,5,,74,80
42180,note_on,,61,0,14,,,,,,,,,,,,,,,,10,,81,80
42180,note_on,,0,0,18,,,,,,,,,,,,,,,,15,,74,80
42180,note_on,,61,0,18,,,,,,,,,,,,,,,,15,,54,80
42180,note_on,,0,0,18,,,,,,,,,,,,,,,,15,,57,80
42180,note_on,,61,0,13,,,,,,,,,,,,,,,,8,,54,80
42180,note_on,,61,0,6,,,,,,,,,,,,,,,,1,,54,80
42180,note_on,,61,0,9,,,,,,,,,,,,,,,,4,,50,80
42180,note_on,,0,0,18,,,,,,,,,,,,,,,,15,,69,80
42180,note_on,,61,0,11,,,,,,,,,,,,,,,,6,,69,80
42180,note_on,,0,0,18,,,,,,,,,,,,,,,,15,,62,80
42180,note_on,,61,0,15,,,,,,,,,,,,,,,,11,,74,80
42180,note_on,,61,0,8,,,,,,,,,,,,,,,,3,,69,80
42180,note_on,,61,0,12,,,,,,,,,,,,,,,,7,,62,80
42180,note_on,,61,0,16,,,,,,,,,,,,,,,,12,,62,80
42180,note_on,,61,0,17,,,,,,,,,,,,,,,,13,,54,80
42239,note_on,,59,0,17,,,,,,,,,,,,,,,,13,,54,0
42239,note_on,,119,0,10,,,,,,,,,,,,,,,,5,,74,0
42239,note_on,,119,0,7,,,,,,,,,,,,,,,,2,,74,0
42239,note_on,,59,0,8,,,,,,,,,,,,,,,,3,,69,0
42239,note_on,,59,0,6,,,,,,,,,,,,,,,,1,,54,0
42239,note_on,,59,0,11,,,,,,,,,,,,,,,,6,,69,0
42239,note_on,,59,0,14,,,,,,,,,,,,,,,,10,,81,0
42239,note_on,,59,0,16,,,,,,,,,,,,,,,,12,,62,0
42239,note_on,,59,0,13,,,,,,,,,,,,,,,,8,,54,0
42239,note_on,,59,0,9,,,,,,,,,,,,,,,,4,,50,0
42239,note_on,,59,0,12,,,,,,,,,,,,,,,,7,,62,0
42239,note_on,,0,0,18,,,,,,,,,,,,,,,,15,,74,0
42239,note_on,,0,0,18,,,,,,,,,,,,,,,,15,,69,0
42239,note_on,,0,0,18,,,,,,,,,,,,,,,,15,,62,0
42239,note_on,,119,0,5,,,,,,,,,,,,,,,,0,,74,0
42239,note_on,,59,0,15,,,,,,,,,,,,,,,,11,,74,0
42239,note_on,,0,0,18,,,,,,,,,,,,,,,,15,,57,0
42239,note_on,,59,0,18,,,,,,,,,,,,,,,,15,,54,0
42240,note_on,,1,0,16,,,,,,,,,,,,,,,,12,,74,80
42240,note_on,,1,0,13,,,,,,,,,,,,,,,,8,,55,80
42240,note_on,,1,0,14,,,,,,,,,,,,,,,,10,,83,80
42240,note_on,,1,0,15,,,,,,,,,,,,,,,,11,,79,80
42240,note_on,,1,0,7,,,,,,,,,,,,,,,,2,,74,80
42240,note_on,,0,0,18,,,,,,,,,,,,,,,,15,,59,80
42240,note_on,,1,0,8,,,,,,,,,,,,,,,,3,,62,80
42240,note_on,,0,0,18,,,,,,,,,,,,,,,,15,,67,80
42240,note_on,,0,0,18,,,,,,,,,,,,,,,,15,,62,80
42240,note_on,,1,0,6,,,,,,,,,,,,,,,,1,,55,80
42240,note_on,,1,0,12,,,,,,,,,,,,,,,,7,,67,80
42240,note_on,,1,0,17,,,,,,,,,,,,,,,,13,,55,80
42240,note_on,,1,0,11,,,,,,,,,,,,,,,,6,,71,80
42240,note_on,,1,0,5,,,,,,,,,,,,,,,,0,,74,80
42240,note_on,,1,0,10,,,,,,,,,,,,,,,,5,,74,80
42240,note_on,,1,0,9,,,,,,,,,,,,,,,,4,,50,80
42240,note_on,,0,0,18,,,,,,,,,,,,,,,,15,,74,80
42240,note_on,,1,0,18,,,,,,,,,,,,,,,,15,,55,80
42299,note_on,,0,0,18,,,,,,,,,,,,,,,,15,,62,0
42299,note_on,,0,0,18,,,,,,,,,,,,,,,,15,,59,0
42299,note_on,,59,0,14,,,,,,,,,,,,,,,,10,,83,0
42299,note_on,,0,0,18,,,,,,,,,,,,,,,,15,,67,0
42299,note_on,,0,0,18,,,,,,,,,,,,,,,,15,,74,0
42299,note_on,,59,0,18,,,,,,,,,,,,,,,,15,,55,0
42299,note_on,,59,0,11,,,,,,,,,,,,,,,,6,,71,0
42299,note_on,,59,0,17,,,,,,,,,,,,,,,,13,,55,0
42299,note_on,,59,0,7,,,,,,,,,,,,,,,,2,,74,0
42299,note_on,,59,0,13,,,,,,,,,,,,,,,,8,,55,0
42299,note_on,,59,0,15,,,,,,,,,,,,,,,,11,,79,0
42299,note_on,,59,0,6,,,,,,,,,,,,,,,,1,,55,0
42299,note_on,,59,0,8,,,,,,,,,,,,,,,,3,,62,0
42299,note_on,,59,0,16,,,,,,,,,,,,,,,,12,,74,0
42299,note_on,,59,0,12,,,,,,,,,,,,,,,,7,,67,0
42300,note_on,,1,0,12,,,,,,,,,,,,,,,,7,,66,80
42300,note_on,,1,0,11,,,,,,,,,,,,,,,,6,,69,80
42300,note_on,,0,0,18,,,,,,,,,,,,,,,,15,,57,80
42300,note_on,,1,0,14,,,,,,,,,,,,,,,,10,,81,80
42300,note_on,,1,0,15,,,,,,,,,,,,,,,,11,,78,80
42300,note_on,,1,0,6,,,,,,,,,,,,,,,,1,,50,80
42300,note_on,,1,0,17,,,,,,,,,,,,,,,,13,,50,80
42300,note_on,,1,0,16,,,,,,,,,,,,,,,,12,,62,80
42300,note_on,,1,0,7,,,,,,,,,,,,,,,,2,,78,80
42300,note_on,,1,0,13,,,,,,,,,,,,,,,,8,,50,80
42300,note_on,,1,0,8,,,,,,,,,,,,,,,,3,,74,80
42300,note_on,,0,0,18,,,,,,,,,,,,,,,,15,,62,80
42300,note_on,,0,0,18,,,,,,,,,,,,,,,,15,,66,80
42300,note_on,,0,0,18,,,,,,,,,,,,,,,,15,,74,80
42300,note_on,,1,0,18,,,,,,,,,,,,,,,,15,,50,80
42359,note_on,,59,0,15,,,,,,,,,,,,,,,,11,,78,0
42359,note_on,,0,0,18,,,,,,,,,,,,,,,,15,,57,0
42359,note_on,,0,0,18,,,,,,,,,,,,,,,,15,,62,0
42359,note_on,,0,0,18,,,,,,,,,,,,,,,,15,,66,0
42359,note_on,,59,0,17,,,,,,,,,,,,,,,,13,,50,0
42359,note_on,,59,0,18,,,,,,,,,,,,,,,,15,,50,0
42359,note_on,,59,0,16,,,,,,,,,,,,,,,,12,,62,0
42359,note_on,,59,0,7,,,,,,,,,,,,,,,,2,,78,0
42359,note_on,,59,0,8,,,,,,,,,,,,,,,,3,,74,0
42359,note_on,,119,0,9,,,,,,,,,,,,,,,,4,,50,0
42359,note_on,,0,0,18,,,,,,,,,,,,,,,,15,,74,0
42359,note_on,,59,0,11,,,,,,,,,,,,,,,,6,,69,0
42359,note_on,,59,0,13,,,,,,,,,,,,,,,,8,,50,0
42359,note_on,,119,0,10,,,,,,,,,,,,,,,,5,,74,0
42359,note_on,,59,0,12,,,,,,,,,,,,,,,,7,,66,0
42359,note_on,,59,0,6,,,,,,,,,,,,,,,,1,,50,0
42359,note_on,,59,0,14,,,,,,,,,,,,,,,,10,,81,0
42359,note_on,,119,0,5,,,,,,,,,,,,,,,,0,,74,0
42360,note_on,,1,0,7,,,,,,,,,,,,,,,,2,,81,80
42360,note_on,,1,0,8,,,,,,,,,,,,,,,,3,,78,80
42419,note_on,,59,0,8,,,,,,,,,,,,,,,,3,,78,0
42419,note_on,,59,0,7,,,,,,,,,,,,,,,,2,,81,0
42420,note_on,,61,0,16,,,,,,,,,,,,,,,,12,,62,80
42420,note_on,,61,0,18,,,,,,,,,,,,,,,,15,,54,80
42420,note_on,,61,0,13,,,,,,,,,,,,,,,,8,,54,80
42420,note_on,,61,0,11,,,,,,,,,,,,,,,,6,,69,80
42420,note_on,,0,0,18,,,,,,,,,,,,,,,,15,,74,80
42420,note_on,,61,0,10,,,,,,,,,,,,,,,,5,,74,80
42420,note_on,,0,0,18,,,,,,,,,,,,,,,,15,,62,80
42420,note_on,,0,0,18,,,,,,,,,,,,,,,,15,,69,80
42420,note_on,,1,0,8,,,,,,,,,,,,,,,,3,,74,80
42420,note_on,,61,0,14,,,,,,,,,,,,,,,,10,,81,80
42420,note_on,,61,0,6,,,,,,,,,,,,,,,,1,,54,80
42420,note_on,,0,0,18,,,,,,,,,,,,,,,,15,,57,80
42420,note_on,,61,0,12,,,,,,,,,,,,,,,,7,,62,80
42420,note_on,,61,0,9,,,,,,,,,,,,,,,,4,,50,80
42420,note_on,,61,0,15,,,,,,,,,,,,,,,,11,,74,80
42420,note_on,,61,0,5,,,,,,,,,,,,,,,,0,,74,80
42420,note_on,,61,0,17,,,,,,,,,,,,,,,,13,,54,80
42420,note_on,,1,0,7,,,,,,,,,,,,,,,,2,,78,80
42479,note_on,,59,0,7,,,,,,,,,,,,,,,,2,,78,0
42479,note_on,,0,0,18,,,,,,,,,,,,,,,,15,,74,0
42479,note_on,,0,0,18,,,,,,,,,,,,,,,,15,,69,0
42479,note_on,,0,0,18,,,,,,,,,,,,,,,,15,,62,0
42479,note_on,,0,0,18,,,,,,,,,,,,,,,,15,,57,0
42479,note_on,,59,0,11,,,,,,,,,,,,,,,,6,,69,0
42479,note_on,,59,0,9,,,,,,,,,,,,,,,,4,,50,0
42479,note_on,,59,0,14,,,,,,,,,,,,,,,,10,,81,0
42479,note_on,,59,0,17,,,,,,,,,,,,,,,,13,,54,0
42479,note_on,,59,0,5,,,,,,,,,,,,,,,,0,,74,0
42479,note_on,,59,0,13,,,,,,,,,,,,,,,,8,,54,0
42479,note_on,,59,0,16,,,,,,,,,,,,,,,,12,,62,0
42479,note_on,,59,0,10,,,,,,,,,,,,,,,,5,,74,0
42479,note_on,,59,0,15,,,,,,,,,,,,,,,,11,,74,0
42479,note_on,,59,0,12,,,,,,,,,,,,,,,,7,,62,0
42479,note_on,,59,0,8,,,,,,,,,,,,,,,,3,,74,0
42479,note_on,,59,0,6,,,,,,,,,,,,,,,,1,,54,0
42479,note_on,,59,0,18,,,,,,,,,,,,,,,,15,,54,0
42480,note_on,,1,0,6,,,,,,,,,,,,,,,,1,,55,80
42480,note_on,,1,0,13,,,,,,,,,,,,,,,,8,,55,80
42480,note_on,,1,0,10,,,,,,,,,,,,,,,,5,,74,80
42480,note_on,,1,0,14,,,,,,,,,,,,,,,,10,,83,80
42480,note_on,,1,0,9,,,,,,,,,,,,,,,,4,,50,80
42480,note_on,,1,0,15,,,,,,,,,,,,,,,,11,,79,80
42480,note_on,,1,0,7,,,,,,,,,,,,,,,,2,,74,80
42480,note_on,,1,0,5,,,,,,,,,,,,,,,,0,,74,80
42480,note_on,,1,0,18,,,,,,,,,,,,,,,,15,,55,80
42480,note_on,,1,0,11,,,,,,,,,,,,,,,,6,,71,80
42480,note_on,,1,0,17,,,,,,,,,,,,,,,,13,,55,80
42480,note_on,,1,0,12,,,,,,,,,,,,,,,,7,,67,80
42480,note_on,,1,0,8,,,,,,,,,,,,,,,,3,,62,80
42480,note_on,,0,0,18,,,,,,,,,,,,,,,,15,,59,80
42480,note_on,,1,0,16,,,,,,,,,,,,,,,,12,,74,80
42480,note_on,,0,0,18,,,,,,,,,,,,,,,,15,,67,80
42480,note_on,,0,0,18,,,,,,,,,,,,,,,,15,,62,80
42480,note_on,,0,0,18,,,,,,,,,,,,,,,,15,,74,80
42539,note_on,,59,0,18,,,,,,,,,,,,,,,,15,,55,0
42539,note_on,,59,0,15,,,,,,,,,,,,,,,,11,,79,0
42539,note_on,,59,0,12,,,,,,,,,,,,,,,,7,,67,0
42539,note_on,,59,0,17,,,,,,,,,,,,,,,,13,,55,0
42539,note_on,,59,0,14,,,,,,,,,,,,,,,,10,,83,0
42539,note_on,,59,0,16,,,,,,,,,,,,,,,,12,,74,0
42539,note_on,,59,0,13,,,,,,,,,,,,,,,,8,,55,0
42539,note_on,,59,0,11,,,,,,,,,,,,,,,,6,,71,0
42539,note_on,,0,0,18,,,,,,,,,,,,,,,,15,,74,0
42539,note_on,,0,0,18,,,,,,,,,,,,,,,,15,,67,0
42539,note_on,,0,0,18,,,,,,,,,,,,,,,,15,,62,0
42539,note_on,,59,0,6,,,,,,,,,,,,,,,,1,,55,0
42539,note_on,,0,0,18,,,,,,,,,,,,,,,,15,,59,0
42539,note_on,,59,0,9,,,,,,,,,,,,,,,,4,,50,0
42540,note_on,,1,0,13,,,,,,,,,,,,,,,,8,,50,80
42540,note_on,,1,0,14,,,,,,,,,,,,,,,,10,,81,80
42540,note_on,,1,0,15,,,,,,,,,,,,,,,,11,,78,80
42540,note_on,,1,0,12,,,,,,,,,,,,,,,,7,,66,80
42540,note_on,,1,0,18,,,,,,,,,,,,,,,,15,,50,80
42540,note_on,,1,0,17,,,,,,,,,,,,,,,,13,,50,80
42540,note_on,,1,0,16,,,,,,,,,,,,,,,,12,,62,80
42540,note_on,,1,0,9,,,,,,,,,,,,,,,,4,,50,80
42540,note_on,,1,0,11,,,,,,,,,,,,,,,,6,,69,80
42540,note_on,,0,0,18,,,,,,,,,,,,,,,,15,,62,80
42540,note_on,,0,0,18,,,,,,,,,,,,,,,,15,,66,80
42540,note_on,,1,0,6,,,,,,,,,,,,,,,,1,,50,80
42540,note_on,,0,0,18,,,,,,,,,,,,,,,,15,,74,80
42540,note_on,,0,0,18,,,,,,,,,,,,,,,,15,,57,80
42599,note_on,,59,0,17,,,,,,,,,,,,,,,,13,,50,0
42599,note_on,,59,0,15,,,,,,,,,,,,,,,,11,,78,0
42599,note_on,,59,0,11,,,,,,,,,,,,,,,,6,,69,0
42599,note_on,,59,0,12,,,,,,,,,,,,,,,,7,,66,0
42599,note_on,,119,0,8,,,,,,,,,,,,,,,,3,,62,0
42599,note_on,,59,0,16,,,,,,,,,,,,,,,,12,,62,0
42599,note_on,,119,0,10,,,,,,,,,,,,,,,,5,,74,0
42599,note_on,,59,0,6,,,,,,,,,,,,,,,,1,,50,0
42599,note_on,,119,0,5,,,,,,,,,,,,,,,,0,,74,0
42599,note_on,,59,0,9,,,,,,,,,,,,,,,,4,,50,0
42599,note_on,,0,0,18,,,,,,,,,,,,,,,,15,,62,0
42599,note_on,,59,0,18,,,,,,,,,,,,,,,,15,,50,0
42599,note_on,,0,0,18,,,,,,,,,,,,,,,,15,,74,0
42599,note_on,,119,0,7,,,,,,,,,,,,,,,,2,,74,0
42599,note_on,,59,0,14,,,,,,,,,,,,,,,,10,,81,0
42599,note_on,,0,0,18,,,,,,,,,,,,,,,,15,,57,0
42599,note_on,,59,0,13,,,,,,,,,,,,,,,,8,,50,0
42599,note_on,,0,0,18,,,,,,,,,,,,,,,,15,,66,0
42600,note_on,,1,0,8,,,,,,,,,,,,,,,,3,,62,80
42600,note_on,,1,0,7,,,,,,,,,,,,,,,,2,,74,80
42600,note_on,,1,0,10,,,,,,,,,,,,,,,,5,,74,80
42600,note_on,,1,0,5,,,,,,,,,,,,,,,,0,,74,80
42660,note_on,,0,0,18,,,,,,,,,,,,,,,,15,,69,80
42660,note_on,,61,0,12,,,,,,,,,,,,,,,,7,,62,80
42660,note_on,,61,0,13,,,,,,,,,,,,,,,,8,,54,80
42660,note_on,,61,0,15,,,,,,,,,,,,,,,,11,,74,80
42660,note_on,,0,0,18,,,,,,,,,,,,,,,,15,,57,80
42660,note_on,,0,0,18,,,,,,,,,,,,,,,,15,,62,80
42660,note_on,,61,0,17,,,,,,,,,,,,,,,,13,,54,80
42660,note_on,,0,0,18,,,,,,,,,,,,,,,,15,,74,80
42660,note_on,,61,0,9,,,,,,,,,,,,,,,,4,,50,80
42660,note_on,,61,0,11,,,,,,,,,,,,,,,,6,,69,80
42660,note_on,,61,0,16,,,,,,,,,,,,,,,,12,,62,80
42660,note_on,,61,0,6,,,,,,,,,,,,,,,,1,,54,80
42660,note_on,,61,0,14,,,,,,,,,,,,,,,,10,,81,80
42660,note_on,,61,0,18,,,,,,,,,,,,,,,,15,,54,80
42719,note_on,,119,0,8,,,,,,,,,,,,,,,,3,,62,0
42719,note_on,,0,0,18,,,,,,,,,,,,,,,,15,,74,0
42719,note_on,,59,0,15,,,,,,,,,,,,,,,,11,,74,0
42719,note_on,,119,0,10,,,,,,,,,,,,,,,,5,,74,0
42719,note_on,,59,0,18,,,,,,,,,,,,,,,,15,,54,0
42719,note_on,,59,0,6,,,,,,,,,,,,,,,,1,,54,0
42719,note_on,,59,0,13,,,,,,,,,,,,,,,,8,,54,0
42719,note_on,,59,0,16,,,,,,,,,,,,,,,,12,,62,0
42719,note_on,,119,0,7,,,,,,,,,,,,,,,,2,,74,0
42719,note_on,,59,0,14,,,,,,,,,,,,,,,,10,,81,0
42719,note_on,,59,0,12,,,,,,,,,,,,,,,,7,,62,0
42719,note_on,,59,0,17,,,,,,,,,,,,,,,,13,,54,0
42719,note_on,,119,0,5,,,,,,,,,,,,,,,,0,,74,0
42719,note_on,,0,0,18,,,,,,,,,,,,,,,,15,,69,0
42719,note_on,,0,0,18,,,,,,,,,,,,,,,,15,,62,0
42719,note_on,,0,0,18,,,,,,,,,,,,,,,,15,,57,0
42719,note_on,,59,0,9,,,,,,,,,,,,,,,,4,,50,0
42719,note_on,,59,0,11,,,,,,,,,,,,,,,,6,,69,0
42720,note_on,,1,0,5,,,,,,,,,,,,,,,,0,,74,80
42720,note_on,,1,0,16,,,,,,,,,,,,,,,,12,,74,80
42720,note_on,,0,0,18,,,,,,,,,,,,,,,,15,,59,80
42720,note_on,,1,0,17,,,,,,,,,,,,,,,,13,,55,80
42720,note_on,,1,0,8,,,,,,,,,,,,,,,,3,,62,80
42720,note_on,,1,0,11,,,,,,,,,,,,,,,,6,,71,80
42720,note_on,,1,0,6,,,,,,,,,,,,,,,,1,,55,80
42720,note_on,,0,0,18,,,,,,,,,,,,,,,,15,,74,80
42720,note_on,,1,0,10,,,,,,,,,,,,,,,,5,,74,80
42720,note_on,,1,0,9,,,,,,,,,,,,,,,,4,,50,80
42720,note_on,,1,0,15,,,,,,,,,,,,,,,,11,,79,80
42720,note_on,,0,0,18,,,,,,,,,,,,,,,,15,,55,80
42720,note_on,,1,0,18,,,,,,,,,,,,,,,,15,,62,80
42720,note_on,,1,0,14,,,,,,,,,,,,,,,,10,,83,80
42720,note_on,,1,0,7,,,,,,,,,,,,,,,,2,,74,80
42720,note_on,,1,0,13,,,,,,,,,,,,,,,,8,,55,80
42720,note_on,,1,0,12,,,,,,,,,,,,,,,,7,,67,80
42720,note_on,,0,0,18,,,,,,,,,,,,,,,,15,,67,80
42779,note_on,,59,0,6,,,,,,,,,,,,,,,,1,,55,0
42779,note_on,,59,0,17,,,,,,,,,,,,,,,,13,,55,0
42779,note_on,,59,0,9,,,,,,,,,,,,,,,,4,,50,0
42779,note_on,,59,0,13,,,,,,,,,,,,,,,,8,,55,0
42779,note_on,,59,0,16,,,,,,,,,,,,,,,,12,,74,0
42779,note_on,,0,0,18,,,,,,,,,,,,,,,,15,,59,0
42779,note_on,,0,0,18,,,,,,,,,,,,,,,,15,,55,0
42779,note_on,,59,0,18,,,,,,,,,,,,,,,,15,,62,0
42779,note_on,,0,0,18,,,,,,,,,,,,,,,,15,,74,0
42779,note_on,,0,0,18,,,,,,,,,,,,,,,,15,,67,0
42779,note_on,,59,0,8,,,,,,,,,,,,,,,,3,,62,0
42779,note_on,,59,0,11,,,,,,,,,,,,,,,,6,,71,0
42779,note_on,,59,0,15,,,,,,,,,,,,,,,,11,,79,0
42779,note_on,,59,0,7,,,,,,,,,,,,,,,,2,,74,0
42779,note_on,,59,0,12,,,,,,,,,,,,,,,,7,,67,0
42779,note_on,,59,0,14,,,,,,,,,,,,,,,,10,,83,0
42780,note_on,,1,0,8,,,,,,,,,,,,,,,,3,,74,80
42780,note_on,,1,0,11,,,,,,,,,,,,,,,,6,,69,80
42780,note_on,,1,0,17,,,,,,,,,,,,,,,,13,,50,80
42780,note_on,,1,0,14,,,,,,,,,,,,,,,,10,,81,80
42780,note_on,,1,0,12,,,,,,,,,,,,,,,,7,,66,80
42780,note_on,,1,0,16,,,,,,,,,,,,,,,,12,,62,80
42780,note_on,,1,0,13,,,,,,,,,,,,,,,,8,,50,80
42780,note_on,,1,0,18,,,,,,,,,,,,,,,,15,,50,80
42780,note_on,,1,0,15,,,,,,,,,,,,,,,,11,,78,80
42780,note_on,,0,0,18,,,,,,,,,,,,,,,,15,,74,80
42780,note_on,,0,0,18,,,,,,,,,,,,,,,,15,,62,80
42780,note_on,,0,0,18,,,,,,,,,,,,,,,,15,,66,80
42780,note_on,,1,0,9,,,,,,,,,,,,,,,,4,,50,80
42780,note_on,,0,0,18,,,,,,,,,,,,,,,,15,,57,80
42780,note_on,,1,0,7,,,,,,,,,,,,,,,,2,,78,80
42780,note_on,,1,0,6,,,,,,,,,,,,,,,,1,,50,80
42809,note_on,,29,0,14,,,,,,,,,,,,,,,,10,,81,0
42809,note_on,,29,0,16,,,,,,,,,,,,,,,,12,,62,0
42809,note_on,,29,0,15,,,,,,,,,,,,,,,,11,,78,0
42810,note_on,,1,0,16,,,,,,,,,,,,,,,,12,,62,80
42810,note_on,,1,0,15,,,,,,,,,,,,,,,,11,,78,80
42810,note_on,,1,0,14,,,,,,,,,,,,,,,,10,,81,80
42839,note_on,,59,0,12,,,,,,,,,,,,,,,,7,,66,0
42839,note_on,,0,0,18,,,,,,,,,,,,,,,,15,,57,0
42839,note_on,,0,0,18,,,,,,,,,,,,,,,,15,,62,0
42839,note_on,,0,0,18,,,,,,,,,,,,,,,,15,,66,0
42839,note_on,,119,0,5,,,,,,,,,,,,,,,,0,,74,0
42839,note_on,,59,0,7,,,,,,,,,,,,,,,,2,,78,0
42839,note_on,,29,0,15,,,,,,,,,,,,,,,,11,,78,0
42839,note_on,,59,0,8,,,,,,,,,,,,,,,,3,,74,0
42839,note_on,,59,0,11,,,,,,,,,,,,,,,,6,,69,0
42839,note_on,,59,0,6,,,,,,,,,,,,,,,,1,,50,0
42839,note_on,,29,0,14,,,,,,,,,,,,,,,,10,,81,0
42839,note_on,,59,0,9,,,,,,,,,,,,,,,,4,,50,0
42839,note_on,,29,0,16,,,,,,,,,,,,,,,,12,,62,0
42839,note_on,,119,0,10,,,,,,,,,,,,,,,,5,,74,0
42839,note_on,,59,0,18,,,,,,,,,,,,,,,,15,,50,0
42839,note_on,,0,0,18,,,,,,,,,,,,,,,,15,,74,0
42839,note_on,,59,0,17,,,,,,,,,,,,,,,,13,,50,0
42839,note_on,,59,0,13,,,,,,,,,,,,,,,,8,,50,0
42840,note_on,,1,0,14,,,,,,,,,,,,,,,,10,,86,80
42840,note_on,,1,0,7,,,,,,,,,,,,,,,,2,,81,80
42840,note_on,,1,0,15,,,,,,,,,,,,,,,,11,,78,80
42840,note_on,,1,0,16,,,,,,,,,,,,,,,,12,,69,80
42840,note_on,,1,0,8,,,,,,,,,,,,,,,,3,,78,80
42899,note_on,,59,0,14,,,,,,,,,,,,,,,,10,,86,0
42899,note_on,,59,0,7,,,,,,,,,,,,,,,,2,,81,0
42899,note_on,,59,0,8,,,,,,,,,,,,,,,,3,,78,0
42899,note_on,,59,0,16,,,,,,,,,,,,,,,,12,,69,0
42899,note_on,,59,0,15,,,,,,,,,,,,,,,,11,,78,0
42900,note_on,,61,0,17,,,,,,,,,,,,,,,,13,,54,80
42900,note_on,,1,0,7,,,,,,,,,,,,,,,,2,,78,80
42900,note_on,,0,0,18,,,,,,,,,,,,,,,,15,,74,80
42900,note_on,,0,0,18,,,,,,,,,,,,,,,,15,,69,80
42900,note_on,,0,0,18,,,,,,,,,,,,,,,,15,,62,80
42900,note_on,,0,0,18,,,,,,,,,,,,,,,,15,,57,80
42900,note_on,,61,0,18,,,,,,,,,,,,,,,,15,,54,80
42900,note_on,,61,0,5,,,,,,,,,,,,,,,,0,,74,80
42900,note_on,,61,0,9,,,,,,,,,,,,,,,,4,,50,80
42900,note_on,,1,0,14,,,,,,,,,,,,,,,,10,,81,80
42900,note_on,,61,0,13,,,,,,,,,,,,,,,,8,,54,80
42900,note_on,,61,0,12,,,,,,,,,,,,,,,,7,,62,80
42900,note_on,,61,0,6,,,,,,,,,,,,,,,,1,,54,80
42900,note_on,,1,0,15,,,,,,,,,,,,,,,,11,,74,80
42900,note_on,,1,0,8,,,,,,,,,,,,,,,,3,,74,80
42900,note_on,,61,0,11,,,,,,,,,,,,,,,,6,,69,80
42900,note_on,,1,0,16,,,,,,,,,,,,,,,,12,,66,80
42900,note_on,,61,0,10,,,,,,,,,,,,,,,,5,,74,80
42929,note_on,,29,0,11,,,,,,,,,,,,,,,,6,,69,0
42929,note_on,,0,0,18,,,,,,,,,,,,,,,,15,,57,0
42929,note_on,,29,0,12,,,,,,,,,,,,,,,,7,,62,0
42929,note_on,,29,0,17,,,,,,,,,,,,,,,,13,,54,0
42929,note_on,,29,0,13,,,,,,,,,,,,,,,,8,,54,0
42929,note_on,,29,0,9,,,,,,,,,,,,,,,,4,,50,0
42929,note_on,,29,0,6,,,,,,,,,,,,,,,,1,,54,0
42929,note_on,,29,0,16,,,,,,,,,,,,,,,,12,,66,0
42929,note_on,,29,0,15,,,,,,,,,,,,,,,,11,,74,0
42929,note_on,,29,0,5,,,,,,,,,,,,,,,,0,,74,0
42929,note_on,,0,0,18,,,,,,,,,,,,,,,,15,,69,0
42929,note_on,,29,0,14,,,,,,,,,,,,,,,,10,,81,0
42929,note_on,,0,0,18,,,,,,,,,,,,,,,,15,,74,0
42929,note_on,,29,0,18,,,,,,,,,,,,,,,,15,,54,0
42929,note_on,,29,0,10,,,,,,,,,,,,,,,,5,,74,0
42929,note_on,,0,0,18,,,,,,,,,,,,,,,,15,,62,0
42930,note_on,,1,0,6,,,,,,,,,,,,,,,,1,,54,80
42930,note_on,,1,0,5,,,,,,,,,,,,,,,,0,,74,80
42930,note_on,,0,0,18,,,,,,,,,,,,,,,,15,,57,80
42930,note_on,,1,0,18,,,,,,,,,,,,,,,,15,,54,80
42930,note_on,,1,0,12,,,,,,,,,,,,,,,,7,,62,80
42930,note_on,,1,0,17,,,,,,,,,,,,,,,,13,,54,80
42930,note_on,,1,0,16,,,,,,,,,,,,,,,,12,,66,80
42930,note_on,,1,0,13,,,,,,,,,,,,,,,,8,,54,80
42930,note_on,,1,0,11,,,,,,,,,,,,,,,,6,,69,80
42930,note_on,,1,0,10,,,,,,,,,,,,,,,,5,,74,80
42930,note_on,,0,0,18,,,,,,,,,,,,,,,,15,,74,80
42930,note_on,,1,0,9,,,,,,,,,,,,,,,,4,,50,80
42930,note_on,,0,0,18,,,,,,,,,,,,,,,,15,,69,80
42930,note_on,,1,0,14,,,,,,,,,,,,,,,,10,,81,80
42930,note_on,,1,0,15,,,,,,,,,,,,,,,,11,,74,80
42930,note_on,,0,0,18,,,,,,,,,,,,,,,,15,,62,80
42959,note_on,,29,0,12,,,,,,,,,,,,,,,,7,,62,0
42959,note_on,,0,0,18,,,,,,,,,,,,,,,,15,,74,0
42959,note_on,,0,0,18,,,,,,,,,,,,,,,,15,,62,0
42959,note_on,,29,0,9,,,,,,,,,,,,,,,,4,,50,0
42959,note_on,,29,0,11,,,,,,,,,,,,,,,,6,,69,0
42959,note_on,,0,0,18,,,,,,,,,,,,,,,,15,,57,0
42959,note_on,,29,0,18,,,,,,,,,,,,,,,,15,,54,0
42959,note_on,,0,0,18,,,,,,,,,,,,,,,,15,,69,0
42959,note_on,,29,0,17,,,,,,,,,,,,,,,,13,,54,0
42959,note_on,,29,0,15,,,,,,,,,,,,,,,,11,,74,0
42959,note_on,,29,0,6,,,,,,,,,,,,,,,,1,,54,0
42959,note_on,,29,0,13,,,,,,,,,,,,,,,,8,,54,0
42959,note_on,,59,0,8,,,,,,,,,,,,,,,,3,,74,0
42959,note_on,,59,0,7,,,,,,,,,,,,,,,,2,,78,0
42959,note_on,,29,0,5,,,,,,,,,,,,,,,,0,,74,0
42959,note_on,,29,0,16,,,,,,,,,,,,,,,,12,,66,0
42959,note_on,,29,0,10,,,,,,,,,,,,,,,,5,,74,0
42959,note_on,,29,0,14,,,,,,,,,,,,,,,,10,,81,0
42960,note_on,,1,0,14,,,,,,,,,,,,,,,,10,,83,80
42960,note_on,,1,0,6,,,,,,,,,,,,,,,,1,,55,80
42960,note_on,,1,0,7,,,,,,,,,,,,,,,,2,,74,80
42960,note_on,,1,0,11,,,,,,,,,,,,,,,,6,,71,80
42960,note_on,,1,0,8,,,,,,,,,,,,,,,,3,,62,80
42960,note_on,,1,0,18,,,,,,,,,,,,,,,,15,,55,80
42960,note_on,,1,0,10,,,,,,,,,,,,,,,,5,,74,80
42960,note_on,,1,0,17,,,,,,,,,,,,,,,,13,,55,80
42960,note_on,,1,0,15,,,,,,,,,,,,,,,,11,,79,80
42960,note_on,,0,0,18,,,,,,,,,,,,,,,,15,,59,80
42960,note_on,,1,0,12,,,,,,,,,,,,,,,,7,,67,80
42960,note_on,,0,0,18,,,,,,,,,,,,,,,,15,,67,80
42960,note_on,,0,0,18,,,,,,,,,,,,,,,,15,,62,80
42960,note_on,,1,0,9,,,,,,,,,,,,,,,,4,,50,80
42960,note_on,,1,0,13,,,,,,,,,,,,,,,,8,,55,80
42960,note_on,,1,0,5,,,,,,,,,,,,,,,,0,,74,80
42960,note_on,,1,0,16,,,,,,,,,,,,,,,,12,,62,80
42960,note_on,,0,0,18,,,,,,,,,,,,,,,,15,,74,80
43019,note_on,,59,0,5,,,,,,,,,,,,,,,,0,,74,0
43019,note_on,,59,0,6,,,,,,,,,,,,,,,,1,,55,0
43019,note_on,,59,0,13,,,,,,,,,,,,,,,,8,,55,0
43019,note_on,,59,0,15,,,,,,,,,,,,,,,,11,,79,0
43019,note_on,,59,0,14,,,,,,,,,,,,,,,,10,,83,0
43019,note_on,,59,0,17,,,,,,,,,,,,,,,,13,,55,0
43019,note_on,,0,0,18,,,,,,,,,,,,,,,,15,,62,0
43019,note_on,,0,0,18,,,,,,,,,,,,,,,,15,,67,0
43019,note_on,,0,0,18,,,,,,,,,,,,,,,,15,,74,0
43019,note_on,,59,0,18,,,,,,,,,,,,,,,,15,,55,0
43019,note_on,,59,0,9,,,,,,,,,,,,,,,,4,,50,0
43019,note_on,,59,0,10,,,,,,,,,,,,,,,,5,,74,0
43019,note_on,,59,0,11,,,,,,,,,,,,,,,,6,,71,0
43019,note_on,,59,0,16,,,,,,,,,,,,,,,,12,,62,0
43019,note_on,,59,0,12,,,,,,,,,,,,,,,,7,,67,0
43019,note_on,,0,0,18,,,,,,,,,,,,,,,,15,,59,0
43020,note_on,,1,0,15,,,,,,,,,,,,,,,,11,,78,80
43020,note_on,,1,0,11,,,,,,,,,,,,,,,,6,,69,80
43020,note_on,,0,0,18,,,,,,,,,,,,,,,,15,,74,80
43020,note_on,,1,0,6,,,,,,,,,,,,,,,,1,,50,80
43020,note_on,,1,0,14,,,,,,,,,,,,,,,,10,,81,80
43020,note_on,,1,0,12,,,,,,,,,,,,,,,,7,,66,80
43020,note_on,,1,0,13,,,,,,,,,,,,,,,,8,,50,80
43020,note_on,,1,0,5,,,,,,,,,,,,,,,,0,,74,80
43020,note_on,,0,0,18,,,,,,,,,,,,,,,,15,,57,80
43020,note_on,,0,0,18,,,,,,,,,,,,,,,,15,,62,80
43020,note_on,,0,0,18,,,,,,,,,,,,,,,,15,,66,80
43020,note_on,,1,0,10,,,,,,,,,,,,,,,,5,,74,80
43020,note_on,,1,0,16,,,,,,,,,,,,,,,,12,,62,80
43020,note_on,,1,0,18,,,,,,,,,,,,,,,,15,,50,80
43020,note_on,,1,0,17,,,,,,,,,,,,,,,,13,,50,80
43020,note_on,,1,0,9,,,,,,,,,,,,,,,,4,,50,80
43049,note_on,,29,0,15,,,,,,,,,,,,,,,,11,,78,0
43049,note_on,,29,0,14,,,,,,,,,,,,,,,,10,,81,0
43049,note_on,,29,0,16,,,,,,,,,,,,,,,,12,,62,0
43050,note_on,,1,0,14,,,,,,,,,,,,,,,,10,,81,80
43050,note_on,,1,0,15,,,,,,,,,,,,,,,,11,,78,80
43050,note_on,,1,0,16,,,,,,,,,,,,,,,,12,,62,80
43079,note_on,,29,0,15,,,,,,,,,,,,,,,,11,,78,0
43079,note_on,,59,0,11,,,,,,,,,,,,,,,,6,,69,0
43079,note_on,,29,0,14,,,,,,,,,,,,,,,,10,,81,0
43079,note_on,,59,0,17,,,,,,,,,,,,,,,,13,,50,0
43079,note_on,,59,0,12,,,,,,,,,,,,,,,,7,,66,0
43079,note_on,,119,0,7,,,,,,,,,,,,,,,,2,,74,0
43079,note_on,,59,0,13,,,,,,,,,,,,,,,,8,,50,0
43079,note_on,,59,0,9,,,,,,,,,,,,,,,,4,,50,0
43079,note_on,,59,0,6,,,,,,,,,,,,,,,,1,,50,0
43079,note_on,,29,0,16,,,,,,,,,,,,,,,,12,,62,0
43079,note_on,,0,0,18,,,,,,,,,,,,,,,,15,,74,0
43079,note_on,,59,0,10,,,,,,,,,,,,,,,,5,,74,0
43079,note_on,,0,0,18,,,,,,,,,,,,,,,,15,,57,0
43079,note_on,,119,0,8,,,,,,,,,,,,,,,,3,,62,0
43079,note_on,,0,0,18,,,,,,,,,,,,,,,,15,,62,0
43079,note_on,,59,0,5,,,,,,,,,,,,,,,,0,,74,0
43079,note_on,,59,0,18,,,,,,,,,,,,,,,,15,,50,0
43079,note_on,,0,0,18,,,,,,,,,,,,,,,,15,,66,0
43080,note_on,,1,0,16,,,,,,,,,,,,,,,,12,,69,80
43080,note_on,,1,0,14,,,,,,,,,,,,,,,,10,,86,80
43080,note_on,,1,0,7,,,,,,,,,,,,,,,,2,,74,80
43080,note_on,,1,0,15,,,,,,,,,,,,,,,,11,,78,80
43080,note_on,,1,0,8,,,,,,,,,,,,,,,,3,,62,80
43139,note_on,,59,0,16,,,,,,,,,,,,,,,,12,,69,0
43139,note_on,,59,0,15,,,,,,,,,,,,,,,,11,,78,0
43139,note_on,,59,0,14,,,,,,,,,,,,,,,,10,,86,0
43140,note_on,,61,0,6,,,,,,,,,,,,,,,,1,,54,80
43140,note_on,,1,0,15,,,,,,,,,,,,,,,,11,,74,80
43140,note_on,,61,0,10,,,,,,,,,,,,,,,,5,,74,80
43140,note_on,,1,0,14,,,,,,,,,,,,,,,,10,,81,80
43140,note_on,,61,0,11,,,,,,,,,,,,,,,,6,,69,80
43140,note_on,,0,0,18,,,,,,,,,,,,,,,,15,,62,80
43140,note_on,,61,0,12,,,,,,,,,,,,,,,,7,,62,80
43140,note_on,,1,0,16,,,,,,,,,,,,,,,,12,,66,80
43140,note_on,,61,0,18,,,,,,,,,,,,,,,,15,,54,80
43140,note_on,,61,0,5,,,,,,,,,,,,,,,,0,,74,80
43140,note_on,,0,0,18,,,,,,,,,,,,,,,,15,,57,80
43140,note_on,,61,0,9,,,,,,,,,,,,,,,,4,,50,80
43140,note_on,,0,0,18,,,,,,,,,,,,,,,,15,,69,80
43140,note_on,,0,0,18,,,,,,,,,,,,,,,,15,,74,80
43140,note_on,,61,0,17,,,,,,,,,,,,,,,,13,,54,80
43140,note_on,,61,0,13,,,,,,,,,,,,,,,,8,,54,80
43169,note_on,,29,0,14,,,,,,,,,,,,,,,,10,,81,0
43169,note_on,,29,0,6,,,,,,,,,,,,,,,,1,,54,0
43169,note_on,,29,0,5,,,,,,,,,,,,,,,,0,,74,0
43169,note_on,,0,0,18,,,,,,,,,,,,,,,,15,,57,0
43169,note_on,,29,0,12,,,,,,,,,,,,,,,,7,,62,0
43169,note_on,,29,0,11,,,,,,,,,,,,,,,,6,,69,0
43169,note_on,,29,0,17,,,,,,,,,,,,,,,,13,,54,0
43169,note_on,,29,0,18,,,,,,,,,,,,,,,,15,,54,0
43169,note_on,,0,0,18,,,,,,,,,,,,,,,,15,,74,0
43169,note_on,,0,0,18,,,,,,,,,,,,,,,,15,,69,0
43169,note_on,,0,0,18,,,,,,,,,,,,,,,,15,,62,0
43169,note_on,,29,0,13,,,,,,,,,,,,,,,,8,,54,0
43169,note_on,,29,0,9,,,,,,,,,,,,,,,,4,,50,0
43169,note_on,,29,0,10,,,,,,,,,,,,,,,,5,,74,0
43169,note_on,,29,0,16,,,,,,,,,,,,,,,,12,,66,0
43169,note_on,,29,0,15,,,,,,,,,,,,,,,,11,,74,0
43170,note_on,,1,0,9,,,,,,,,,,,,,,,,4,,50,80
43170,note_on,,1,0,16,,,,,,,,,,,,,,,,12,,66,80
43170,note_on,,1,0,5,,,,,,,,,,,,,,,,0,,74,80
43170,note_on,,1,0,13,,,,,,,,,,,,,,,,8,,54,80
43170,note_on,,1,0,12,,,,,,,,,,,,,,,,7,,62,80
43170,note_on,,1,0,17,,,,,,,,,,,,,,,,13,,54,80
43170,note_on,,1,0,11,,,,,,,,,,,,,,,,6,,69,80
43170,note_on,,1,0,15,,,,,,,,,,,,,,,,11,,74,80
43170,note_on,,0,0,18,,,,,,,,,,,,,,,,15,,74,80
43170,note_on,,0,0,18,,,,,,,,,,,,,,,,15,,69,80
43170,note_on,,1,0,6,,,,,,,,,,,,,,,,1,,54,80
43170,note_on,,1,0,14,,,,,,,,,,,,,,,,10,,81,80
43170,note_on,,1,0,18,,,,,,,,,,,,,,,,15,,54,80
43170,note_on,,0,0,18,,,,,,,,,,,,,,,,15,,57,80
43170,note_on,,0,0,18,,,,,,,,,,,,,,,,15,,62,80
43170,note_on,,1,0,10,,,,,,,,,,,,,,,,5,,74,80
43199,note_on,,29,0,11,,,,,,,,,,,,,,,,6,,69,0
43199,note_on,,29,0,5,,,,,,,,,,,,,,,,0,,74,0
43199,note_on,,29,0,10,,,,,,,,,,,,,,,,5,,74,0
43199,note_on,,29,0,12,,,,,,,,,,,,,,,,7,,62,0
43199,note_on,,119,0,7,,,,,,,,,,,,,,,,2,,74,0
43199,note_on,,0,0,18,,,,,,,,,,,,,,,,15,,74,0
43199,note_on,,29,0,17,,,,,,,,,,,,,,,,13,,54,0
43199,note_on,,0,0,18,,,,,,,,,,,,,,,,15,,57,0
43199,note_on,,29,0,13,,,,,,,,,,,,,,,,8,,54,0
43199,note_on,,0,0,18,,,,,,,,,,,,,,,,15,,62,0
43199,note_on,,119,0,8,,,,,,,,,,,,,,,,3,,62,0
43199,note_on,,29,0,16,,,,,,,,,,,,,,,,12,,66,0
43199,note_on,,0,0,18,,,,,,,,,,,,,,,,15,,69,0
43199,note_on,,29,0,15,,,,,,,,,,,,,,,,11,,74,0
43199,note_on,,29,0,14,,,,,,,,,,,,,,,,10,,81,0
43199,note_on,,29,0,9,,,,,,,,,,,,,,,,4,,50,0
43199,note_on,,29,0,6,,,,,,,,,,,,,,,,1,,54,0
43199,note_on,,29,0,18,,,,,,,,,,,,,,,,15,,54,0
43200,note_on,,0,0,18,,,,,,,,,,,,,,,,15,,59,80
43200,note_on,,1,0,15,,,,,,,,,,,,,,,,11,,79,80
43200,note_on,,1,0,17,,,,,,,,,,,,,,,,13,,55,80
43200,note_on,,1,0,12,,,,,,,,,,,,,,,,7,,67,80
43200,note_on,,1,0,13,,,,,,,,,,,,,,,,8,,55,80
43200,note_on,,0,0,18,,,,,,,,,,,,,,,,15,,62,80
43200,note_on,,1,0,11,,,,,,,,,,,,,,,,6,,71,80
43200,note_on,,1,0,14,,,,,,,,,,,,,,,,10,,83,80
43200,note_on,,1,0,16,,,,,,,,,,,,,,,,12,,62,80
43200,note_on,,1,0,9,,,,,,,,,,,,,,,,4,,50,80
43200,note_on,,1,0,6,,,,,,,,,,,,,,,,1,,55,80
43200,note_on,,1,0,8,,,,,,,,,,,,,,,,3,,62,80
43200,note_on,,1,0,18,,,,,,,,,,,,,,,,15,,55,80
43200,note_on,,0,0,18,,,,,,,,,,,,,,,,15,,74,80
43200,note_on,,1,0,5,,,,,,,,,,,,,,,,0,,74,80
43200,note_on,,1,0,7,,,,,,,,,,,,,,,,2,,74,80
43200,note_on,,1,0,10,,,,,,,,,,,,,,,,5,,74,80
43200,note_on,,0,0,18,,,,,,,,,,,,,,,,15,,67,80
43259,note_on,,0,0,18,,,,,,,,,,,,,,,,15,,59,0
43259,note_on,,59,0,11,,,,,,,,,,,,,,,,6,,71,0
43259,note_on,,59,0,8,,,,,,,,,,,,,,,,3,,62,0
43259,note_on,,59,0,13,,,,,,,,,,,,,,,,8,,55,0
43259,note_on,,59,0,15,,,,,,,,,,,,,,,,11,,79,0
43259,note_on,,59,0,18,,,,,,,,,,,,,,,,15,,55,0
43259,note_on,,0,0,18,,,,,,,,,,,,,,,,15,,74,0
43259,note_on,,59,0,5,,,,,,,,,,,,,,,,0,,74,0
43259,note_on,,59,0,17,,,,,,,,,,,,,,,,13,,55,0
43259,note_on,,0,0,18,,,,,,,,,,,,,,,,15,,67,0
43259,note_on,,0,0,18,,,,,,,,,,,,,,,,15,,62,0
43259,note_on,,59,0,12,,,,,,,,,,,,,,,,7,,67,0
43259,note_on,,59,0,14,,,,,,,,,,,,,,,,10,,83,0
43259,note_on,,59,0,16,,,,,,,,,,,,,,,,12,,62,0
43259,note_on,,59,0,6,,,,,,,,,,,,,,,,1,,55,0
43259,note_on,,59,0,7,,,,,,,,,,,,,,,,2,,74,0
43259,note_on,,59,0,10,,,,,,,,,,,,,,,,5,,74,0
43260,note_on,,1,0,7,,,,,,,,,,,,,,,,2,,78,80
43260,note_on,,1,0,13,,,,,,,,,,,,,,,,8,,50,80
43260,note_on,,1,0,18,,,,,,,,,,,,,,,,15,,50,80
43260,note_on,,1,0,12,,,,,,,,,,,,,,,,7,,66,80
43260,note_on,,0,0,18,,,,,,,,,,,,,,,,15,,74,80
43260,note_on,,0,0,18,,,,,,,,,,,,,,,,15,,66,80
43260,note_on,,1,0,5,,,,,,,,,,,,,,,,0,,74,80
43260,note_on,,1,0,17,,,,,,,,,,,,,,,,13,,50,80
43260,note_on,,1,0,10,,,,,,,,,,,,,,,,5,,74,80
43260,note_on,,0,0,18,,,,,,,,,,,,,,,,15,,62,80
43260,note_on,,0,0,18,,,,,,,,,,,,,,,,15,,57,80
43260,note_on,,1,0,8,,,,,,,,,,,,,,,,3,,74,80
43260,note_on,,1,0,14,,,,,,,,,,,,,,,,10,,81,80
43260,note_on,,1,0,16,,,,,,,,,,,,,,,,12,,62,80
43260,note_on,,1,0,6,,,,,,,,,,,,,,,,1,,50,80
43260,note_on,,1,0,15,,,,,,,,,,,,,,,,11,,78,80
43260,note_on,,1,0,11,,,,,,,,,,,,,,,,6,,69,80
43289,note_on,,29,0,15,,,,,,,,,,,,,,,,11,,78,0
43289,note_on,,29,0,8,,,,,,,,,,,,,,,,3,,74,0
43289,note_on,,29,0,14,,,,,,,,,,,,,,,,10,,81,0
43289,note_on,,29,0,7,,,,,,,,,,,,,,,,2,,78,0
43289,note_on,,29,0,16,,,,,,,,,,,,,,,,12,,62,0
43290,note_on,,1,0,15,,,,,,,,,,,,,,,,11,,78,80
43290,note_on,,1,0,7,,,,,,,,,,,,,,,,2,,79,80
43290,note_on,,1,0,16,,,,,,,,,,,,,,,,12,,62,80
43290,note_on,,1,0,8,,,,,,,,,,,,,,,,3,,76,80
43290,note_on,,1,0,14,,,,,,,,,,,,,,,,10,,81,80
43319,note_on,,29,0,14,,,,,,,,,,,,,,,,10,,81,0
43319,note_on,,59,0,13,,,,,,,,,,,,,,,,8,,50,0
43319,note_on,,59,0,6,,,,,,,,,,,,,,,,1,,50,0
43319,note_on,,59,0,12,,,,,,,,,,,,,,,,7,,66,0
43319,note_on,,0,0,18,,,,,,,,,,,,,,,,15,,57,0
43319,note_on,,59,0,11,,,,,,,,,,,,,,,,6,,69,0
43319,note_on,,59,0,18,,,,,,,,,,,,,,,,15,,50,0
43319,note_on,,0,0,18,,,,,,,,,,,,,,,,15,,66,0
43319,note_on,,29,0,7,,,,,,,,,,,,,,,,2,,79,0
43319,note_on,,0,0,18,,,,,,,,,,,,,,,,15,,62,0
43319,note_on,,29,0,8,,,,,,,,,,,,,,,,3,,76,0
43319,note_on,,59,0,5,,,,,,,,,,,,,,,,0,,74,0
43319,note_on,,29,0,15,,,,,,,,,,,,,,,,11,,78,0
43319,note_on,,119,0,9,,,,,,,,,,,,,,,,4,,50,0
43319,note_on,,59,0,17,,,,,,,,,,,,,,,,13,,50,0
43319,note_on,,29,0,16,,,,,,,,,,,,,,,,12,,62,0
43319,note_on,,59,0,10,,,,,,,,,,,,,,,,5,,74,0
43319,note_on,,0,0,18,,,,,,,,,,,,,,,,15,,74,0
43320,note_on,,1,0,8,,,,,,,,,,,,,,,,3,,78,80
43320,note_on,,1,0,16,,,,,,,,,,,,,,,,12,,69,80
43320,note_on,,1,0,15,,,,,,,,,,,,,,,,11,,78,80
43320,note_on,,1,0,14,,,,,,,,,,,,,,,,10,,86,80
43320,note_on,,1,0,7,,,,,,,,,,,,,,,,2,,81,80
43379,note_on,,59,0,16,,,,,,,,,,,,,,,,12,,69,0
43379,note_on,,59,0,7,,,,,,,,,,,,,,,,2,,81,0
43379,note_on,,59,0,14,,,,,,,,,,,,,,,,10,,86,0
43379,note_on,,59,0,8,,,,,,,,,,,,,,,,3,,78,0
43379,note_on,,59,0,15,,,,,,,,,,,,,,,,11,,78,0
43380,note_on,,61,0,13,,,,,,,,,,,,,,,,8,,54,80
43380,note_on,,61,0,18,,,,,,,,,,,,,,,,15,,54,80
43380,note_on,,0,0,18,,,,,,,,,,,,,,,,15,,74,80
43380,note_on,,61,0,9,,,,,,,,,,,,,,,,4,,50,80
43380,note_on,,1,0,15,,,,,,,,,,,,,,,,11,,74,80
43380,note_on,,61,0,11,,,,,,,,,,,,,,,,6,,69,80
43380,note_on,,0,0,18,,,,,,,,,,,,,,,,15,,57,80
43380,note_on,,1,0,16,,,,,,,,,,,,,,,,12,,66,80
43380,note_on,,61,0,6,,,,,,,,,,,,,,,,1,,54,80
43380,note_on,,0,0,18,,,,,,,,,,,,,,,,15,,69,80
43380,note_on,,0,0,18,,,,,,,,,,,,,,,,15,,62,80
43380,note_on,,1,0,14,,,,,,,,,,,,,,,,10,,81,80
43380,note_on,,1,0,7,,,,,,,,,,,,,,,,2,,78,80
43380,note_on,,61,0,10,,,,,,,,,,,,,,,,5,,74,80
43380,note_on,,61,0,17,,,,,,,,,,,,,,,,13,,54,80
43380,note_on,,61,0,5,,,,,,,,,,,,,,,,0,,74,80
43380,note_on,,1,0,8,,,,,,,,,,,,,,,,3,,74,80
43380,note_on,,61,0,12,,,,,,,,,,,,,,,,7,,62,80
43409,note_on,,29,0,13,,,,,,,,,,,,,,,,8,,54,0
43409,note_on,,29,0,17,,,,,,,,,,,,,,,,13,,54,0
43409,note_on,,0,0,18,,,,,,,,,,,,,,,,15,,74,0
43409,note_on,,0,0,18,,,,,,,,,,,,,,,,15,,69,0
43409,note_on,,0,0,18,,,,,,,,,,,,,,,,15,,62,0
43409,note_on,,29,0,18,,,,,,,,,,,,,,,,15,,54,0
43409,note_on,,0,0,18,,,,,,,,,,,,,,,,15,,57,0
43409,note_on,,29,0,14,,,,,,,,,,,,,,,,10,,81,0
43409,note_on,,29,0,16,,,,,,,,,,,,,,,,12,,66,0
43409,note_on,,29,0,15,,,,,,,,,,,,,,,,11,,74,0
43409,note_on,,29,0,5,,,,,,,,,,,,,,,,0,,74,0
43409,note_on,,29,0,9,,,,,,,,,,,,,,,,4,,50,0
43409,note_on,,29,0,10,,,,,,,,,,,,,,,,5,,74,0
43409,note_on,,29,0,12,,,,,,,,,,,,,,,,7,,62,0
43409,note_on,,29,0,11,,,,,,,,,,,,,,,,6,,69,0
43409,note_on,,29,0,6,,,,,,,,,,,,,,,,1,,54,0
43410,note_on,,0,0,18,,,,,,,,,,,,,,,,15,,69,80
43410,note_on,,1,0,6,,,,,,,,,,,,,,,,1,,54,80
43410,note_on,,0,0,18,,,,,,,,,,,,,,,,15,,57,80
43410,note_on,,1,0,15,,,,,,,,,,,,,,,,11,,74,80
43410,note_on,,1,0,10,,,,,,,,,,,,,,,,5,,74,80
43410,note_on,,1,0,11,,,,,,,,,,,,,,,,6,,69,80
43410,note_on,,1,0,9,,,,,,,,,,,,,,,,4,,50,80
43410,note_on,,1,0,16,,,,,,,,,,,,,,,,12,,66,80
43410,note_on,,1,0,18,,,,,,,,,,,,,,,,15,,54,80
43410,note_on,,0,0,18,,,,,,,,,,,,,,,,15,,74,80
43410,note_on,,1,0,17,,,,,,,,,,,,,,,,13,,54,80
43410,note_on,,1,0,13,,,,,,,,,,,,,,,,8,,54,80
43410,note_on,,1,0,5,,,,,,,,,,,,,,,,0,,74,80
43410,note_on,,0,0,18,,,,,,,,,,,,,,,,15,,62,80
43410,note_on,,1,0,12,,,,,,,,,,,,,,,,7,,62,80
43410,note_on,,1,0,14,,,,,,,,,,,,,,,,10,,81,80
43439,note_on,,29,0,17,,,,,,,,,,,,,,,,13,,54,0
43439,note_on,,0,0,18,,,,,,,,,,,,,,,,15,,69,0
43439,note_on,,29,0,10,,,,,,,,,,,,,,,,5,,74,0
43439,note_on,,0,0,18,,,,,,,,,,,,,,,,15,,62,0
43439,note_on,,29,0,18,,,,,,,,,,,,,,,,15,,54,0
43439,note_on,,0,0,18,,,,,,,,,,,,,,,,15,,57,0
43439,note_on,,29,0,9,,,,,,,,,,,,,,,,4,,50,0
43439,note_on,,0,0,18,,,,,,,,,,,,,,,,15,,74,0
43439,note_on,,29,0,11,,,,,,,,,,,,,,,,6,,69,0
43439,note_on,,29,0,6,,,,,,,,,,,,,,,,1,,54,0
43439,note_on,,29,0,15,,,,,,,,,,,,,,,,11,,74,0
43439,note_on,,59,0,8,,,,,,,,,,,,,,,,3,,74,0
43439,note_on,,29,0,16,,,,,,,,,,,,,,,,12,,66,0
43439,note_on,,59,0,7,,,,,,,,,,,,,,,,2,,78,0
43439,note_on,,29,0,5,,,,,,,,,,,,,,,,0,,74,0
43439,note_on,,29,0,12,,,,,,,,,,,,,,,,7,,62,0
43439,note_on,,29,0,14,,,,,,,,,,,,,,,,10,,81,0
43439,note_on,,29,0,13,,,,,,,,,,,,,,,,8,,54,0
43440,note_on,,1,0,10,,,,,,,,,,,,,,,,5,,74,80
43440,note_on,,1,0,7,,,,,,,,,,,,,,,,2,,74,80
43440,note_on,,1,0,9,,,,,,,,,,,,,,,,4,,50,80
43440,note_on,,1,0,16,,,,,,,,,,,,,,,,12,,62,80
43440,note_on,,1,0,18,,,,,,,,,,,,,,,,15,,55,80
43440,note_on,,1,0,14,,,,,,,,,,,,,,,,10,,83,80
43440,note_on,,1,0,6,,,,,,,,,,,,,,,,1,,55,80
43440,note_on,,0,0,18,,,,,,,,,,,,,,,,15,,59,80
43440,note_on,,0,0,18,,,,,,,,,,,,,,,,15,,74,80
43440,note_on,,0,0,18,,,,,,,,,,,,,,,,15,,67,80
43440,note_on,,0,0,18,,,,,,,,,,,,,,,,15,,62,80
43440,note_on,,1,0,5,,,,,,,,,,,,,,,,0,,74,80
43440,note_on,,1,0,8,,,,,,,,,,,,,,,,3,,62,80
43440,note_on,,1,0,17,,,,,,,,,,,,,,,,13,,55,80
43440,note_on,,1,0,15,,,,,,,,,,,,,,,,11,,79,80
43440,note_on,,1,0,11,,,,,,,,,,,,,,,,6,,71,80
43440,note_on,,1,0,12,,,,,,,,,,,,,,,,7,,67,80
43440,note_on,,1,0,13,,,,,,,,,,,,,,,,8,,55,80
43499,note_on,,59,0,11,,,,,,,,,,,,,,,,6,,71,0
43499,note_on,,59,0,5,,,,,,,,,,,,,,,,0,,74,0
43499,note_on,,59,0,7,,,,,,,,,,,,,,,,2,,74,0
43499,note_on,,59,0,15,,,,,,,,,,,,,,,,11,,79,0
43499,note_on,,59,0,8,,,,,,,,,,,,,,,,3,,62,0
43499,note_on,,59,0,6,,,,,,,,,,,,,,,,1,,55,0
43499,note_on,,59,0,13,,,,,,,,,,,,,,,,8,,55,0
43499,note_on,,59,0,14,,,,,,,,,,,,,,,,10,,83,0
43499,note_on,,0,0,18,,,,,,,,,,,,,,,,15,,59,0
43499,note_on,,59,0,10,,,,,,,,,,,,,,,,5,,74,0
43499,note_on,,0,0,18,,,,,,,,,,,,,,,,15,,62,0
43499,note_on,,0,0,18,,,,,,,,,,,,,,,,15,,67,0
43499,note_on,,59,0,9,,,,,,,,,,,,,,,,4,,50,0
43499,note_on,,59,0,16,,,,,,,,,,,,,,,,12,,62,0
43499,note_on,,0,0,18,,,,,,,,,,,,,,,,15,,74,0
43499,note_on,,59,0,18,,,,,,,,,,,,,,,,15,,55,0
43499,note_on,,59,0,17,,,,,,,,,,,,,,,,13,,55,0
43499,note_on,,59,0,12,,,,,,,,,,,,,,,,7,,67,0
43500,note_on,,0,0,18,,,,,,,,,,,,,,,,15,,62,80
43500,note_on,,0,0,18,,,,,,,,,,,,,,,,15,,74,80
43500,note_on,,1,0,15,,,,,,,,,,,,,,,,11,,78,80
43500,note_on,,1,0,18,,,,,,,,,,,,,,,,15,,50,80
43500,note_on,,1,0,9,,,,,,,,,,,,,,,,4,,50,80
43500,note_on,,0,0,18,,,,,,,,,,,,,,,,15,,66,80
43500,note_on,,1,0,16,,,,,,,,,,,,,,,,12,,62,80
43500,note_on,,1,0,7,,,,,,,,,,,,,,,,2,,78,80
43500,note_on,,1,0,11,,,,,,,,,,,,,,,,6,,69,80
43500,note_on,,1,0,13,,,,,,,,,,,,,,,,8,,50,80
43500,note_on,,1,0,8,,,,,,,,,,,,,,,,3,,74,80
43500,note_on,,1,0,10,,,,,,,,,,,,,,,,5,,74,80
43500,note_on,,1,0,6,,,,,,,,,,,,,,,,1,,50,80
43500,note_on,,1,0,5,,,,,,,,,,,,,,,,0,,74,80
43500,note_on,,1,0,17,,,,,,,,,,,,,,,,13,,50,80
43500,note_on,,1,0,14,,,,,,,,,,,,,,,,10,,81,80
43500,note_on,,0,0,18,,,,,,,,,,,,,,,,15,,57,80
43500,note_on,,1,0,12,,,,,,,,,,,,,,,,7,,66,80
43529,note_on,,29,0,15,,,,,,,,,,,,,,,,11,,78,0
43529,note_on,,29,0,16,,,,,,,,,,,,,,,,12,,62,0
43529,note_on,,29,0,7,,,,,,,,,,,,,,,,2,,78,0
43529,note_on,,29,0,9,,,,,,,,,,,,,,,,4,,50,0
43529,note_on,,29,0,8,,,,,,,,,,,,,,,,3,,74,0
43529,note_on,,29,0,14,,,,,,,,,,,,,,,,10,,81,0
43530,note_on,,1,0,14,,,,,,,,,,,,,,,,10,,81,80
43530,note_on,,1,0,16,,,,,,,,,,,,,,,,12,,62,80
43530,note_on,,1,0,15,,,,,,,,,,,,,,,,11,,78,80
43530,note_on,,1,0,8,,,,,,,,,,,,,,,,3,,76,80
43530,note_on,,1,0,7,,,,,,,,,,,,,,,,2,,79,80
43530,note_on,,1,0,9,,,,,,,,,,,,,,,,4,,50,80
43559,note_on,,59,0,13,,,,,,,,,,,,,,,,8,,50,0
43559,note_on,,0,0,18,,,,,,,,,,,,,,,,15,,57,0
43559,note_on,,59,0,5,,,,,,,,,,,,,,,,0,,74,0
43559,note_on,,0,0,18,,,,,,,,,,,,,,,,15,,66,0
43559,note_on,,0,0,18,,,,,,,,,,,,,,,,15,,74,0
43559,note_on,,59,0,17,,,,,,,,,,,,,,,,13,,50,0
43559,note_on,,29,0,15,,,,,,,,,,,,,,,,11,,78,0
43559,note_on,,59,0,12,,,,,,,,,,,,,,,,7,,66,0
43559,note_on,,0,0,18,,,,,,,,,,,,,,,,15,,62,0
43559,note_on,,29,0,8,,,,,,,,,,,,,,,,3,,76,0
43559,note_on,,59,0,18,,,,,,,,,,,,,,,,15,,50,0
43559,note_on,,59,0,11,,,,,,,,,,,,,,,,6,,69,0
43559,note_on,,29,0,14,,,,,,,,,,,,,,,,10,,81,0
43559,note_on,,29,0,7,,,,,,,,,,,,,,,,2,,79,0
43559,note_on,,29,0,9,,,,,,,,,,,,,,,,4,,50,0
43559,note_on,,59,0,10,,,,,,,,,,,,,,,,5,,74,0
43559,note_on,,59,0,6,,,,,,,,,,,,,,,,1,,50,0
43559,note_on,,29,0,16,,,,,,,,,,,,,,,,12,,62,0
43560,note_on,,1,0,14,,,,,,,,,,,,,,,,10,,86,80
43560,note_on,,1,0,7,,,,,,,,,,,,,,,,2,,81,80
43560,note_on,,1,0,15,,,,,,,,,,,,,,,,11,,78,80
43560,note_on,,1,0,16,,,,,,,,,,,,,,,,12,,69,80
43560,note_on,,1,0,9,,,,,,,,,,,,,,,,4,,50,80
43560,note_on,,1,0,8,,,,,,,,,,,,,,,,3,,78,80
43619,note_on,,59,0,14,,,,,,,,,,,,,,,,10,,86,0
43619,note_on,,59,0,16,,,,,,,,,,,,,,,,12,,69,0
43619,note_on,,59,0,15,,,,,,,,,,,,,,,,11,,78,0
43619,note_on,,59,0,8,,,,,,,,,,,,,,,,3,,78,0
43619,note_on,,59,0,9,,,,,,,,,,,,,,,,4,,50,0
43619,note_on,,59,0,7,,,,,,,,,,,,,,,,2,,81,0
43620,note_on,,1,0,9,,,,,,,,,,,,,,,,4,,50,80
43620,note_on,,1,0,7,,,,,,,,,,,,,,,,2,,78,80
43620,note_on,,1,0,8,,,,,,,,,,,,,,,,3,,74,80
43620,note_on,,1,0,16,,,,,,,,,,,,,,,,12,,66,80
43620,note_on,,61,0,17,,,,,,,,,,,,,,,,13,,54,80
43620,note_on,,61,0,18,,,,,,,,,,,,,,,,15,,54,80
43620,note_on,,61,0,11,,,,,,,,,,,,,,,,6,,69,80
43620,note_on,,61,0,13,,,,,,,,,,,,,,,,8,,54,80
43620,note_on,,1,0,14,,,,,,,,,,,,,,,,10,,81,80
43620,note_on,,1,0,15,,,,,,,,,,,,,,,,11,,74,80
43620,note_on,,61,0,10,,,,,,,,,,,,,,,,5,,74,80
43620,note_on,,0,0,18,,,,,,,,,,,,,,,,15,,74,80
43620,note_on,,0,0,18,,,,,,,,,,,,,,,,15,,69,80
43620,note_on,,0,0,18,,,,,,,,,,,,,,,,15,,62,80
43620,note_on,,0,0,18,,,,,,,,,,,,,,,,15,,57,80
43620,note_on,,61,0,6,,,,,,,,,,,,,,,,1,,54,80
43620,note_on,,61,0,12,,,,,,,,,,,,,,,,7,,62,80
43620,note_on,,61,0,5,,,,,,,,,,,,,,,,0,,74,80
43649,note_on,,29,0,10,,,,,,,,,,,,,,,,5,,74,0
43649,note_on,,29,0,5,,,,,,,,,,,,,,,,0,,74,0
43649,note_on,,29,0,8,,,,,,,,,,,,,,,,3,,74,0
43649,note_on,,29,0,17,,,,,,,,,,,,,,,,13,,54,0
43649,note_on,,29,0,9,,,,,,,,,,,,,,,,4,,50,0
43649,note_on,,29,0,14,,,,,,,,,,,,,,,,10,,81,0
43649,note_on,,29,0,16,,,,,,,,,,,,,,,,12,,66,0
43649,note_on,,29,0,6,,,,,,,,,,,,,,,,1,,54,0
43649,note_on,,29,0,11,,,,,,,,,,,,,,,,6,,69,0
43649,note_on,,29,0,13,,,,,,,,,,,,,,,,8,,54,0
43649,note_on,,0,0,18,,,,,,,,,,,,,,,,15,,69,0
43649,note_on,,29,0,7,,,,,,,,,,,,,,,,2,,78,0
43649,note_on,,29,0,15,,,,,,,,,,,,,,,,11,,74,0
43649,note_on,,29,0,18,,,,,,,,,,,,,,,,15,,54,0
43649,note_on,,0,0,18,,,,,,,,,,,,,,,,15,,74,0
43649,note_on,,0,0,18,,,,,,,,,,,,,,,,15,,57,0
43649,note_on,,0,0,18,,,,,,,,,,,,,,,,15,,62,0
43649,note_on,,29,0,12,,,,,,,,,,,,,,,,7,,62,0
43650,note_on,,1,0,16,,,,,,,,,,,,,,,,12,,66,80
43650,note_on,,1,0,15,,,,,,,,,,,,,,,,11,,74,80
43650,note_on,,1,0,11,,,,,,,,,,,,,,,,6,,69,80
43650,note_on,,1,0,14,,,,,,,,,,,,,,,,10,,81,80
43650,note_on,,1,0,17,,,,,,,,,,,,,,,,13,,54,80
43650,note_on,,1,0,6,,,,,,,,,,,,,,,,1,,54,80
43650,note_on,,1,0,12,,,,,,,,,,,,,,,,7,,62,80
43650,note_on,,1,0,5,,,,,,,,,,,,,,,,0,,74,80
43650,note_on,,1,0,7,,,,,,,,,,,,,,,,2,,78,80
43650,note_on,,1,0,18,,,,,,,,,,,,,,,,15,,54,80
43650,note_on,,0,0,18,,,,,,,,,,,,,,,,15,,74,80
43650,note_on,,0,0,18,,,,,,,,,,,,,,,,15,,69,80
43650,note_on,,0,0,18,,,,,,,,,,,,,,,,15,,62,80
43650,note_on,,1,0,10,,,,,,,,,,,,,,,,5,,74,80
43650,note_on,,1,0,13,,,,,,,,,,,,,,,,8,,54,80
43650,note_on,,0,0,18,,,,,,,,,,,,,,,,15,,57,80
43650,note_on,,1,0,9,,,,,,,,,,,,,,,,4,,50,80
43650,note_on,,1,0,8,,,,,,,,,,,,,,,,3,,74,80
43679,note_on,,29,0,6,,,,,,,,,,,,,,,,1,,54,0
43679,note_on,,29,0,13,,,,,,,,,,,,,,,,8,,54,0
43679,note_on,,29,0,10,,,,,,,,,,,,,,,,5,,74,0
43679,note_on,,29,0,8,,,,,,,,,,,,,,,,3,,74,0
43679,note_on,,29,0,14,,,,,,,,,,,,,,,,10,,81,0
43679,note_on,,29,0,11,,,,,,,,,,,,,,,,6,,69,0
43679,note_on,,29,0,17,,,,,,,,,,,,,,,,13,,54,0
43679,note_on,,29,0,5,,,,,,,,,,,,,,,,0,,74,0
43679,note_on,,0,0,18,,,,,,,,,,,,,,,,15,,57,0
43679,note_on,,0,0,18,,,,,,,,,,,,,,,,15,,62,0
43679,note_on,,0,0,18,,,,,,,,,,,,,,,,15,,69,0
43679,note_on,,0,0,18,,,,,,,,,,,,,,,,15,,74,0
43679,note_on,,29,0,18,,,,,,,,,,,,,,,,15,,54,0
43679,note_on,,29,0,9,,,,,,,,,,,,,,,,4,,50,0
43679,note_on,,29,0,12,,,,,,,,,,,,,,,,7,,62,0
43679,note_on,,29,0,15,,,,,,,,,,,,,,,,11,,74,0
43679,note_on,,29,0,16,,,,,,,,,,,,,,,,12,,66,0
43679,note_on,,29,0,7,,,,,,,,,,,,,,,,2,,78,0
43680,note_on,,1,0,16,,,,,,,,,,,,,,,,12,,62,80
43680,note_on,,1,0,11,,,,,,,,,,,,,,,,6,,71,80
43680,note_on,,1,0,17,,,,,,,,,,,,,,,,13,,55,80
43680,note_on,,1,0,13,,,,,,,,,,,,,,,,8,,55,80
43680,note_on,,1,0,5,,,,,,,,,,,,,,,,0,,74,80
43680,note_on,,1,0,12,,,,,,,,,,,,,,,,7,,67,80
43680,note_on,,1,0,15,,,,,,,,,,,,,,,,11,,79,80
43680,note_on,,1,0,8,,,,,,,,,,,,,,,,3,,62,80
43680,note_on,,1,0,7,,,,,,,,,,,,,,,,2,,74,80
43680,note_on,,0,0,18,,,,,,,,,,,,,,,,15,,59,80
43680,note_on,,1,0,9,,,,,,,,,,,,,,,,4,,50,80
43680,note_on,,1,0,10,,,,,,,,,,,,,,,,5,,74,80
43680,note_on,,1,0,6,,,,,,,,,,,,,,,,1,,55,80
43680,note_on,,1,0,18,,,,,,,,,,,,,,,,15,,55,80
43680,note_on,,0,0,18,,,,,,,,,,,,,,,,15,,62,80
43680,note_on,,0,0,18,,,,,,,,,,,,,,,,15,,74,80
43680,note_on,,1,0,14,,,,,,,,,,,,,,,,10,,83,80
43680,note_on,,0,0,18,,,,,,,,,,,,,,,,15,,67,80
43739,note_on,,59,0,8,,,,,,,,,,,,,,,,3,,62,0
43739,note_on,,59,0,9,,,,,,,,,,,,,,,,4,,50,0
43739,note_on,,59,0,12,,,,,,,,,,,,,,,,7,,67,0
43739,note_on,,59,0,18,,,,,,,,,,,,,,,,15,,55,0
43739,note_on,,59,0,17,,,,,,,,,,,,,,,,13,,55,0
43739,note_on,,0,0,18,,,,,,,,,,,,,,,,15,,59,0
43739,note_on,,0,0,18,,,,,,,,,,,,,,,,15,,67,0
43739,note_on,,0,0,18,,,,,,,,,,,,,,,,15,,62,0
43739,note_on,,59,0,5,,,,,,,,,,,,,,,,0,,74,0
43739,note_on,,59,0,11,,,,,,,,,,,,,,,,6,,71,0
43739,note_on,,59,0,14,,,,,,,,,,,,,,,,10,,83,0
43739,note_on,,59,0,6,,,,,,,,,,,,,,,,1,,55,0
43739,note_on,,59,0,16,,,,,,,,,,,,,,,,12,,62,0
43739,note_on,,59,0,13,,,,,,,,,,,,,,,,8,,55,0
43739,note_on,,59,0,10,,,,,,,,,,,,,,,,5,,74,0
43739,note_on,,59,0,7,,,,,,,,,,,,,,,,2,,74,0
43739,note_on,,0,0,18,,,,,,,,,,,,,,,,15,,74,0
43739,note_on,,59,0,15,,,,,,,,,,,,,,,,11,,79,0
43740,note_on,,1,0,18,,,,,,,,,,,,,,,,15,,50,80
43740,note_on,,0,0,18,,,,,,,,,,,,,,,,15,,66,80
43740,note_on,,1,0,16,,,,,,,,,,,,,,,,12,,62,80
43740,note_on,,1,0,8,,,,,,,,,,,,,,,,3,,66,80
43740,note_on,,1,0,15,,,,,,,,,,,,,,,,11,,78,80
43740,note_on,,1,0,9,,,,,,,,,,,,,,,,4,,50,80
43740,note_on,,0,0,18,,,,,,,,,,,,,,,,15,,74,80
43740,note_on,,1,0,14,,,,,,,,,,,,,,,,10,,81,80
43740,note_on,,1,0,6,,,,,,,,,,,,,,,,1,,50,80
43740,note_on,,1,0,10,,,,,,,,,,,,,,,,5,,74,80
43740,note_on,,1,0,17,,,,,,,,,,,,,,,,13,,50,80
43740,note_on,,1,0,13,,,,,,,,,,,,,,,,8,,50,80
43740,note_on,,0,0,18,,,,,,,,,,,,,,,,15,,57,80
43740,note_on,,0,0,18,,,,,,,,,,,,,,,,15,,62,80
43740,note_on,,1,0,12,,,,,,,,,,,,,,,,7,,66,80
43740,note_on,,1,0,11,,,,,,,,,,,,,,,,6,,69,80
43740,note_on,,1,0,5,,,,,,,,,,,,,,,,0,,74,80
43740,note_on,,1,0,7,,,,,,,,,,,,,,,,2,,74,80
43799,note_on,,59,0,13,,,,,,,,,,,,,,,,8,,50,0
43799,note_on,,59,0,16,,,,,,,,,,,,,,,,12,,62,0
43799,note_on,,59,0,14,,,,,,,,,,,,,,,,10,,81,0
43799,note_on,,59,0,9,,,,,,,,,,,,,,,,4,,50,0
43799,note_on,,59,0,12,,,,,,,,,,,,,,,,7,,66,0
43799,note_on,,59,0,15,,,,,,,,,,,,,,,,11,,78,0
43799,note_on,,59,0,10,,,,,,,,,,,,,,,,5,,74,0
43799,note_on,,59,0,8,,,,,,,,,,,,,,,,3,,66,0
43799,note_on,,59,0,11,,,,,,,,,,,,,,,,6,,69,0
43799,note_on,,0,0,18,,,,,,,,,,,,,,,,15,,66,0
43799,note_on,,0,0,18,,,,,,,,,,,,,,,,15,,74,0
43799,note_on,,59,0,7,,,,,,,,,,,,,,,,2,,74,0
43799,note_on,,59,0,6,,,,,,,,,,,,,,,,1,,50,0
43799,note_on,,0,0,18,,,,,,,,,,,,,,,,15,,57,0
43799,note_on,,59,0,17,,,,,,,,,,,,,,,,13,,50,0
43799,note_on,,59,0,18,,,,,,,,,,,,,,,,15,,50,0
43799,note_on,,59,0,5,,,,,,,,,,,,,,,,0,,74,0
43799,note_on,,0,0,18,,,,,,,,,,,,,,,,15,,62,0
44040,note_on,,241,0,17,,,,,,,,,,,,,,,,13,,50,80
44040,note_on,,241,0,10,,,,,,,,,,,,,,,,5,,74,80
44040,note_on,,241,0,6,,,,,,,,,,,,,,,,1,,50,80
44040,note_on,,241,0,14,,,,,,,,,,,,,,,,10,,81,80
44040,note_on,,241,0,12,,,,,,,,,,,,,,,,7,,57,80
44040,note_on,,241,0,9,,,,,,,,,,,,,,,,4,,50,80
44040,note_on,,241,0,5,,,,,,,,,,,,,,,,0,,74,80
44040,note_on,,241,0,13,,,,,,,,,,,,,,,,8,,50,80
44040,note_on,,241,0,7,,,,,,,,,,,,,,,,2,,78,80
44040,note_on,,241,0,15,,,,,,,,,,,,,,,,11,,78,80
44040,note_on,,0,0,18,,,,,,,,,,,,,,,,15,,74,80
44040,note_on,,241,0,16,,,,,,,,,,,,,,,,12,,62,80
44040,note_on,,241,0,8,,,,,,,,,,,,,,,,3,,69,80
44040,note_on,,241,0,11,,,,,,,,,,,,,,,,6,,66,80
44040,note_on,,241,0,18,,,,,,,,,,,,,,,,15,,50,80
44040,note_on,,0,0,18,,,,,,,,,,,,,,,,15,,62,80
44040,note_on,,0,0,18,,,,,,,,,,,,,,,,15,,66,80
44040,note_on,,0,0,18,,,,,,,,,,,,,,,,15,,69,80
44159,note_on,,0,0,18,,,,,,,,,,,,,,,,15,,66,0
44159,note_on,,119,0,11,,,,,,,,,,,,,,,,6,,66,0
44159,note_on,,119,0,7,,,,,,,,,,,,,,,,2,,78,0
44159,note_on,,119,0,5,,,,,,,,,,,,,,,,0,,74,0
44159,note_on,,119,0,12,,,,,,,,,,,,,,,,7,,57,0
44159,note_on,,119,0,10,,,,,,,,,,,,,,,,5,,74,0
44159,note_on,,119,0,16,,,,,,,,,,,,,,,,12,,62,0
44159,note_on,,119,0,13,,,,,,,,,,,,,,,,8,,50,0
44159,note_on,,0,0,18,,,,,,,,,,,,,,,,15,,69,0
44159,note_on,,119,0,18,,,,,,,,,,,,,,,,15,,50,0
44159,note_on,,119,0,14,,,,,,,,,,,,,,,,10,,81,0
44159,note_on,,0,0,18,,,,,,,,,,,,,,,,15,,62,0
44159,note_on,,119,0,6,,,,,,,,,,,,,,,,1,,50,0
44159,note_on,,119,0,8,,,,,,,,,,,,,,,,3,,69,0
44159,note_on,,0,0,18,,,,,,,,,,,,,,,,15,,74,0
44159,note_on,,119,0,15,,,,,,,,,,,,,,,,11,,78,0
44159,note_on,,119,0,17,,,,,,,,,,,,,,,,13,,50,0
44159,note_on,,119,0,9,,,,,,,,,,,,,,,,4,,50,0
44160,note_on,,1,0,10,,,,,,,,,,,,,,,,5,,74,80
44160,note_on,,1,0,9,,,,,,,,,,,,,,,,4,,50,80
44160,note_on,,0,0,18,,,,,,,,,,,,,,,,15,,74,80
44160,note_on,,1,0,5,,,,,,,,,,,,,,,,0,,74,80
44160,note_on,,1,0,17,,,,,,,,,,,,,,,,13,,43,80
44160,note_on,,1,0,6,,,,,,,,,,,,,,,,1,,43,80
44160,note_on,,0,0,18,,,,,,,,,,,,,,,,15,,62,80
44160,note_on,,0,0,18,,,,,,,,,,,,,,,,15,,67,80
44160,note_on,,1,0,16,,,,,,,,,,,,,,,,12,,62,80
44160,note_on,,1,0,7,,,,,,,,,,,,,,,,2,,74,80
44160,note_on,,0,0,18,,,,,,,,,,,,,,,,15,,71,80
44160,note_on,,1,0,11,,,,,,,,,,,,,,,,6,,67,80
44160,note_on,,0,0,18,,,,,,,,,,,,,,,,15,,50,80
44160,note_on,,1,0,8,,,,,,,,,,,,,,,,3,,62,80
44160,note_on,,1,0,18,,,,,,,,,,,,,,,,15,,43,80
44160,note_on,,1,0,14,,,,,,,,,,,,,,,,10,,83,80
44160,note_on,,1,0,13,,,,,,,,,,,,,,,,8,,55,80
44160,note_on,,1,0,12,,,,,,,,,,,,,,,,7,,59,80
44160,note_on,,1,0,15,,,,,,,,,,,,,,,,11,,79,80
44519,note_on,,359,0,15,,,,,,,,,,,,,,,,11,,79,0
44519,note_on,,359,0,14,,,,,,,,,,,,,,,,10,,83,0
44519,note_on,,359,0,16,,,,,,,,,,,,,,,,12,,62,0
44519,note_on,,359,0,13,,,,,,,,,,,,,,,,8,,55,0
44519,note_on,,359,0,12,,,,,,,,,,,,,,,,7,,59,0
44519,note_on,,359,0,17,,,,,,,,,,,,,,,,13,,43,0
44519,note_on,,359,0,11,,,,,,,,,,,,,,,,6,,67,0
44519,note_on,,0,0,18,,,,,,,,,,,,,,,,15,,74,0
44519,note_on,,359,0,10,,,,,,,,,,,,,,,,5,,74,0
44519,note_on,,0,0,18,,,,,,,,,,,,,,,,15,,71,0
44519,note_on,,359,0,18,,,,,,,,,,,,,,,,15,,43,0
44519,note_on,,359,0,8,,,,,,,,,,,,,,,,3,,62,0
44519,note_on,,359,0,6,,,,,,,,,,,,,,,,1,,43,0
44519,note_on,,0,0,18,,,,,,,,,,,,,,,,15,,62,0
44519,note_on,,0,0,18,,,,,,,,,,,,,,,,15,,50,0
44519,note_on,,0,0,18,,,,,,,,,,,,,,,,15,,67,0
44519,note_on,,359,0,5,,,,,,,,,,,,,,,,0,,74,0
44519,note_on,,359,0,9,,,,,,,,,,,,,,,,4,,50,0
44519,note_on,,359,0,7,,,,,,,,,,,,,,,,2,,74,0
44520,note_on,,0,0,18,,,,,,,,,,,,,,,,15,,62,80
44520,note_on,,1,0,14,,,,,,,,,,,,,,,,10,,83,80
44520,note_on,,0,0,18,,,,,,,,,,,,,,,,15,,67,80
44520,note_on,,1,0,9,,,,,,,,,,,,,,,,4,,50,80
44520,note_on,,1,0,10,,,,,,,,,,,,,,,,5,,74,80
44520,note_on,,1,0,8,,,,,,,,,,,,,,,,3,,62,80
44520,note_on,,1,0,12,,,,,,,,,,,,,,,,7,,59,80
44520,note_on,,0,0,18,,,,,,,,,,,,,,,,15,,74,80
44520,note_on,,1,0,15,,,,,,,,,,,,,,,,11,,79,80
44520,note_on,,1,0,7,,,,,,,,,,,,,,,,2,,74,80
44520,note_on,,1,0,11,,,,,,,,,,,,,,,,6,,67,80
44520,note_on,,0,0,18,,,,,,,,,,,,,,,,15,,71,80
44520,note_on,,1,0,13,,,,,,,,,,,,,,,,8,,55,80
44520,note_on,,1,0,17,,,,,,,,,,,,,,,,13,,43,80
44520,note_on,,0,0,18,,,,,,,,,,,,,,,,15,,50,80
44520,note_on,,1,0,5,,,,,,,,,,,,,,,,0,,74,80
44520,note_on,,1,0,16,,,,,,,,,,,,,,,,12,,62,80
44520,note_on,,1,0,18,,,,,,,,,,,,,,,,15,,43,80
44520,note_on,,1,0,6,,,,,,,,,,,,,,,,1,,43,80
44639,note_on,,0,0,18,,,,,,,,,,,,,,,,15,,50,0
44639,note_on,,0,0,18,,,,,,,,,,,,,,,,15,,62,0
44639,note_on,,119,0,11,,,,,,,,,,,,,,,,6,,67,0
44639,note_on,,119,0,5,,,,,,,,,,,,,,,,0,,74,0
44639,note_on,,119,0,14,,,,,,,,,,,,,,,,10,,83,0
44639,note_on,,0,0,18,,,,,,,,,,,,,,,,15,,67,0
44639,note_on,,0,0,18,,,,,,,,,,,,,,,,15,,71,0
44639,note_on,,119,0,17,,,,,,,,,,,,,,,,13,,43,0
44639,note_on,,119,0,9,,,,,,,,,,,,,,,,4,,50,0
44639,note_on,,119,0,8,,,,,,,,,,,,,,,,3,,62,0
44639,note_on,,119,0,16,,,,,,,,,,,,,,,,12,,62,0
44639,note_on,,119,0,13,,,,,,,,,,,,,,,,8,,55,0
44639,note_on,,119,0,6,,,,,,,,,,,,,,,,1,,43,0
44639,note_on,,0,0,18,,,,,,,,,,,,,,,,15,,74,0
44639,note_on,,119,0,18,,,,,,,,,,,,,,,,15,,43,0
44639,note_on,,119,0,15,,,,,,,,,,,,,,,,11,,79,0
44639,note_on,,119,0,12,,,,,,,,,,,,,,,,7,,59,0
44639,note_on,,119,0,7,,,,,,,,,,,,,,,,2,,74,0
44639,note_on,,119,0,10,,,,,,,,,,,,,,,,5,,74,0
44640,note_on,,1,0,17,,,,,,,,,,,,,,,,13,,38,80
44640,note_on,,0,0,18,,,,,,,,,,,,,,,,15,,66,80
44640,note_on,,0,0,18,,,,,,,,,,,,,,,,15,,62,80
44640,note_on,,1,0,13,,,,,,,,,,,,,,,,8,,50,80
44640,note_on,,0,0,18,,,,,,,,,,,,,,,,15,,69,80
44640,note_on,,1,0,6,,,,,,,,,,,,,,,,1,,38,80
44640,note_on,,1,0,14,,,,,,,,,,,,,,,,10,,81,80
44640,note_on,,1,0,5,,,,,,,,,,,,,,,,0,,74,80
44640,note_on,,1,0,8,,,,,,,,,,,,,,,,3,,66,80
44640,note_on,,1,0,16,,,,,,,,,,,,,,,,12,,62,80
44640,note_on,,1,0,15,,,,,,,,,,,,,,,,11,,78,80
44640,note_on,,1,0,7,,,,,,,,,,,,,,,,2,,74,80
44640,note_on,,1,0,9,,,,,,,,,,,,,,,,4,,50,80
44640,note_on,,0,0,18,,,,,,,,,,,,,,,,15,,50,80
44640,note_on,,1,0,12,,,,,,,,,,,,,,,,7,,57,80
44640,note_on,,0,0,18,,,,,,,,,,,,,,,,15,,74,80
44640,note_on,,1,0,18,,,,,,,,,,,,,,,,15,,38,80
44640,note_on,,1,0,10,,,,,,,,,,,,,,,,5,,74,80
44640,note_on,,1,0,11,,,,,,,,,,,,,,,,6,,66,80
44654,note_on,,14,0,9,,,,,,,,,,,,,,,,4,,50,0
44655,note_on,,1,0,9,,,,,,,,,,,,,,,,4,,50,80
44669,note_on,,14,0,9,,,,,,,,,,,,,,,,4,,50,0
44670,note_on,,1,0,9,,,,,,,,,,,,,,,,4,,50,80
44684,note_on,,14,0,9,,,,,,,,,,,,,,,,4,,50,0
44685,note_on,,1,0,9,,,,,,,,,,,,,,,,4,,50,80
44699,note_on,,14,0,9,,,,,,,,,,,,,,,,4,,50,0
44700,note_on,,1,0,9,,,,,,,,,,,,,,,,4,,50,80
44714,note_on,,14,0,9,,,,,,,,,,,,,,,,4,,50,0
44715,note_on,,1,0,9,,,,,,,,,,,,,,,,4,,50,80
44729,note_on,,14,0,9,,,,,,,,,,,,,,,,4,,50,0
44730,note_on,,1,0,9,,,,,,,,,,,,,,,,4,,50,80
44744,note_on,,14,0,9,,,,,,,,,,,,,,,,4,,50,0
44745,note_on,,1,0,9,,,,,,,,,,,,,,,,4,,50,80
44759,note_on,,14,0,9,,,,,,,,,,,,,,,,4,,50,0
44760,note_on,,1,0,9,,,,,,,,,,,,,,,,4,,50,80
44774,note_on,,14,0,9,,,,,,,,,,,,,,,,4,,50,0
44775,note_on,,1,0,9,,,,,,,,,,,,,,,,4,,50,80
44789,note_on,,14,0,9,,,,,,,,,,,,,,,,4,,50,0
44790,note_on,,1,0,9,,,,,,,,,,,,,,,,4,,50,80
44804,note_on,,14,0,9,,,,,,,,,,,,,,,,4,,50,0
44805,note_on,,1,0,9,,,,,,,,,,,,,,,,4,,50,80
44819,note_on,,14,0,9,,,,,,,,,,,,,,,,4,,50,0
44820,note_on,,1,0,9,,,,,,,,,,,,,,,,4,,50,80
44834,note_on,,14,0,9,,,,,,,,,,,,,,,,4,,50,0
44835,note_on,,1,0,9,,,,,,,,,,,,,,,,4,,50,80
44849,note_on,,14,0,9,,,,,,,,,,,,,,,,4,,50,0
44850,note_on,,1,0,9,,,,,,,,,,,,,,,,4,,50,80
44864,note_on,,14,0,9,,,,,,,,,,,,,,,,4,,50,0
44865,note_on,,1,0,9,,,,,,,,,,,,,,,,4,,50,80
44879,note_on,,14,0,9,,,,,,,,,,,,,,,,4,,50,0
44880,note_on,,1,0,9,,,,,,,,,,,,,,,,4,,50,80
44894,note_on,,14,0,9,,,,,,,,,,,,,,,,4,,50,0
44895,note_on,,1,0,9,,,,,,,,,,,,,,,,4,,50,80
44909,note_on,,14,0,9,,,,,,,,,,,,,,,,4,,50,0
44910,note_on,,1,0,9,,,,,,,,,,,,,,,,4,,50,80
44924,note_on,,14,0,9,,,,,,,,,,,,,,,,4,,50,0
44925,note_on,,1,0,9,,,,,,,,,,,,,,,,4,,50,80
44939,note_on,,14,0,9,,,,,,,,,,,,,,,,4,,50,0
44940,note_on,,1,0,9,,,,,,,,,,,,,,,,4,,50,80
44954,note_on,,14,0,9,,,,,,,,,,,,,,,,4,,50,0
44955,note_on,,1,0,9,,,,,,,,,,,,,,,,4,,50,80
44969,note_on,,14,0,9,,,,,,,,,,,,,,,,4,,50,0
44970,note_on,,1,0,9,,,,,,,,,,,,,,,,4,,50,80
44984,note_on,,14,0,9,,,,,,,,,,,,,,,,4,,50,0
44985,note_on,,1,0,9,,,,,,,,,,,,,,,,4,,50,80
44999,note_on,,14,0,9,,,,,,,,,,,,,,,,4,,50,0
45000,note_on,,1,0,9,,,,,,,,,,,,,,,,4,,50,80
45014,note_on,,14,0,9,,,,,,,,,,,,,,,,4,,50,0
45015,note_on,,1,0,9,,,,,,,,,,,,,,,,4,,50,80
45029,note_on,,14,0,9,,,,,,,,,,,,,,,,4,,50,0
45030,note_on,,1,0,9,,,,,,,,,,,,,,,,4,,50,80
45044,note_on,,14,0,9,,,,,,,,,,,,,,,,4,,50,0
45045,note_on,,1,0,9,,,,,,,,,,,,,,,,4,,50,80
45059,note_on,,14,0,9,,,,,,,,,,,,,,,,4,,50,0
45060,note_on,,1,0,9,,,,,,,,,,,,,,,,4,,50,80
45074,note_on,,14,0,9,,,,,,,,,,,,,,,,4,,50,0
45075,note_on,,1,0,9,,,,,,,,,,,,,,,,4,,50,80
45089,note_on,,14,0,9,,,,,,,,,,,,,,,,4,,50,0
45090,note_on,,1,0,9,,,,,,,,,,,,,,,,4,,50,80
45104,note_on,,14,0,9,,,,,,,,,,,,,,,,4,,50,0
45105,note_on,,1,0,9,,,,,,,,,,,,,,,,4,,50,80
45119,note_on,,14,0,9,,,,,,,,,,,,,,,,4,,50,0
45120,note_on,,1,0,9,,,,,,,,,,,,,,,,4,,50,80
45134,note_on,,14,0,9,,,,,,,,,,,,,,,,4,,50,0
45135,note_on,,1,0,9,,,,,,,,,,,,,,,,4,,50,80
45149,note_on,,14,0,9,,,,,,,,,,,,,,,,4,,50,0
45150,note_on,,1,0,9,,,,,,,,,,,,,,,,4,,50,80
45164,note_on,,14,0,9,,,,,,,,,,,,,,,,4,,50,0
45165,note_on,,1,0,9,,,,,,,,,,,,,,,,4,,50,80
45179,note_on,,14,0,9,,,,,,,,,,,,,,,,4,,50,0
45180,note_on,,1,0,9,,,,,,,,,,,,,,,,4,,50,80
45194,note_on,,14,0,9,,,,,,,,,,,,,,,,4,,50,0
45195,note_on,,1,0,9,,,,,,,,,,,,,,,,4,,50,80
45209,note_on,,14,0,9,,,,,,,,,,,,,,,,4,,50,0
45210,note_on,,1,0,9,,,,,,,,,,,,,,,,4,,50,80
45224,note_on,,14,0,9,,,,,,,,,,,,,,,,4,,50,0
45225,note_on,,1,0,9,,,,,,,,,,,,,,,,4,,50,80
45239,note_on,,14,0,9,,,,,,,,,,,,,,,,4,,50,0
45240,note_on,,1,0,9,,,,,,,,,,,,,,,,4,,50,80
45254,note_on,,14,0,9,,,,,,,,,,,,,,,,4,,50,0
45255,note_on,,1,0,9,,,,,,,,,,,,,,,,4,,50,80
45269,note_on,,14,0,9,,,,,,,,,,,,,,,,4,,50,0
45270,note_on,,1,0,9,,,,,,,,,,,,,,,,4,,50,80
45284,note_on,,14,0,9,,,,,,,,,,,,,,,,4,,50,0
45285,note_on,,1,0,9,,,,,,,,,,,,,,,,4,,50,80
45299,note_on,,14,0,9,,,,,,,,,,,,,,,,4,,50,0
45300,note_on,,1,0,9,,,,,,,,,,,,,,,,4,,50,80
45314,note_on,,14,0,9,,,,,,,,,,,,,,,,4,,50,0
45315,note_on,,1,0,9,,,,,,,,,,,,,,,,4,,50,80
45329,note_on,,14,0,9,,,,,,,,,,,,,,,,4,,50,0
45330,note_on,,1,0,9,,,,,,,,,,,,,,,,4,,50,80
45344,note_on,,14,0,9,,,,,,,,,,,,,,,,4,,50,0
45345,note_on,,1,0,9,,,,,,,,,,,,,,,,4,,50,80
45359,note_on,,14,0,9,,,,,,,,,,,,,,,,4,,50,0
45360,note_on,,1,0,9,,,,,,,,,,,,,,,,4,,50,80
45374,note_on,,14,0,9,,,,,,,,,,,,,,,,4,,50,0
45375,note_on,,1,0,9,,,,,,,,,,,,,,,,4,,50,80
45389,note_on,,14,0,9,,,,,,,,,,,,,,,,4,,50,0
45390,note_on,,1,0,9,,,,,,,,,,,,,,,,4,,50,80
45404,note_on,,14,0,9,,,,,,,,,,,,,,,,4,,50,0
45405,note_on,,1,0,9,,,,,,,,,,,,,,,,4,,50,80
45419,note_on,,14,0,9,,,,,,,,,,,,,,,,4,,50,0
45420,note_on,,1,0,9,,,,,,,,,,,,,,,,4,,50,80
45434,note_on,,14,0,9,,,,,,,,,,,,,,,,4,,50,0
45435,note_on,,1,0,9,,,,,,,,,,,,,,,,4,,50,80
45449,note_on,,14,0,9,,,,,,,,,,,,,,,,4,,50,0
45450,note_on,,1,0,9,,,,,,,,,,,,,,,,4,,50,80
45464,note_on,,14,0,9,,,,,,,,,,,,,,,,4,,50,0
45465,note_on,,1,0,9,,,,,,,,,,,,,,,,4,,50,80
45479,note_on,,14,0,9,,,,,,,,,,,,,,,,4,,50,0
45480,note_on,,1,0,9,,,,,,,,,,,,,,,,4,,50,80
45494,note_on,,14,0,9,,,,,,,,,,,,,,,,4,,50,0
45495,note_on,,1,0,9,,,,,,,,,,,,,,,,4,,50,80
45509,note_on,,14,0,9,,,,,,,,,,,,,,,,4,,50,0
45510,note_on,,1,0,9,,,,,,,,,,,,,,,,4,,50,80
45524,note_on,,14,0,9,,,,,,,,,,,,,,,,4,,50,0
45525,note_on,,1,0,9,,,,,,,,,,,,,,,,4,,50,80
45539,note_on,,14,0,9,,,,,,,,,,,,,,,,4,,50,0
45540,note_on,,1,0,9,,,,,,,,,,,,,,,,4,,50,80
45554,note_on,,14,0,9,,,,,,,,,,,,,,,,4,,50,0
45555,note_on,,1,0,9,,,,,,,,,,,,,,,,4,,50,80
45569,note_on,,14,0,9,,,,,,,,,,,,,,,,4,,50,0
45570,note_on,,1,0,9,,,,,,,,,,,,,,,,4,,50,80
45584,note_on,,14,0,9,,,,,,,,,,,,,,,,4,,50,0
45585,note_on,,1,0,9,,,,,,,,,,,,,,,,4,,50,80
45599,note_on,,959,0,18,,,,,,,,,,,,,,,,15,,38,0
45599,note_on,,0,0,18,,,,,,,,,,,,,,,,15,,74,0
45599,note_on,,0,0,18,,,,,,,,,,,,,,,,15,,69,0
45599,note_on,,0,0,18,,,,,,,,,,,,,,,,15,,66,0
45599,note_on,,0,0,18,,,,,,,,,,,,,,,,15,,62,0
45599,note_on,,959,0,17,,,,,,,,,,,,,,,,13,,38,0
45599,note_on,,959,0,11,,,,,,,,,,,,,,,,6,,66,0
45599,end_of_track,,0,1,16,,,,,,,,,,,,,,,,,,,
45599,note_on,,959,0,16,,,,,,,,,,,,,,,,12,,62,0
45599,end_of_track,,0,1,15,,,,,,,,,,,,,,,,,,,
45599,note_on,,959,0,15,,,,,,,,,,,,,,,,11,,78,0
45599,end_of_track,,0,1,14,,,,,,,,,,,,,,,,,,,
45599,note_on,,959,0,14,,,,,,,,,,,,,,,,10,,81,0
45599,note_on,,0,0,18,,,,,,,,,,,,,,,,15,,50,0
45599,end_of_track,,0,1,13,,,,,,,,,,,,,,,,,,,
45599,note_on,,959,0,13,,,,,,,,,,,,,,,,8,,50,0
45599,end_of_track,,0,1,12,,,,,,,,,,,,,,,,,,,
45599,note_on,,959,0,12,,,,,,,,,,,,,,,,7,,57,0
45599,end_of_track,,0,1,11,,,,,,,,,,,,,,,,,,,
45599,end_of_track,,0,1,18,,,,,,,,,,,,,,,,,,,
45599,note_on,,959,0,10,,,,,,,,,,,,,,,,5,,74,0
45599,end_of_track,,0,1,9,,,,,,,,,,,,,,,,,,,
45599,note_on,,14,0,9,,,,,,,,,,,,,,,,4,,50,0
45599,end_of_track,,0,1,17,,,,,,,,,,,,,,,,,,,
45599,end_of_track,,0,1,8,,,,,,,,,,,,,,,,,,,
45599,note_on,,959,0,8,,,,,,,,,,,,,,,,3,,66,0
45599,end_of_track,,0,1,7,,,,,,,,,,,,,,,,,,,
45599,note_on,,959,0,7,,,,,,,,,,,,,,,,2,,74,0
45599,end_of_track,,0,1,6,,,,,,,,,,,,,,,,,,,
45599,note_on,,959,0,6,,,,,,,,,,,,,,,,1,,38,0
45599,end_of_track,,0,1,5,,,,,,,,,,,,,,,,,,,
45599,note_on,,959,0,5,,,,,,,,,,,,,,,,0,,74,0
45599,end_of_track,,0,1,10,,,,,,,,,,,,,,,,,,,
46080,set_tempo,,46080,1,0,,,,,,,,,500000,,,,,,,,,,
46080,end_of_track,,0,1,0,,,,,,,,,,,,,,,,,,,
