tick,type,data,time,meta,track,frame_rate,hours,minutes,seconds,frames,sub_frames,port,key,tempo,numerator,denominator,clocks_per_click,notated_32nd_notes_per_beat,control,value,channel,program,note,velocity
0,sequencer_specific,"(0, 0, 91, 35, 1, 0, 5, 4, 35, 0)",0,1,0,,,,,,,,,,,,,,,,,,,
0,track_name,,0,1,8,,,,,,,,,,,,,,,,,,,
0,track_name,,0,1,12,,,,,,,,,,,,,,,,,,,
0,midi_port,,0,1,12,,,,,,,0,,,,,,,,,,,,
0,control_change,,0,0,12,,,,,,,,,,,,,,11,127,15,,,
0,control_change,,0,0,12,,,,,,,,,,,,,,10,90,15,,,
0,control_change,,0,0,12,,,,,,,,,,,,,,7,96,15,,,
0,program_change,,0,0,12,,,,,,,,,,,,,,,,15,6,,
0,note_on,,0,0,12,,,,,,,,,,,,,,,,15,,41,48
0,note_on,,0,0,12,,,,,,,,,,,,,,,,15,,72,48
0,note_on,,0,0,12,,,,,,,,,,,,,,,,15,,69,48
0,note_on,,0,0,12,,,,,,,,,,,,,,,,15,,65,48
0,note_on,,0,0,12,,,,,,,,,,,,,,,,15,,60,48
0,program_change,,0,0,7,,,,,,,,,,,,,,,,6,73,,
0,control_change,,0,0,7,,,,,,,,,,,,,,10,70,6,,,
0,control_change,,0,0,7,,,,,,,,,,,,,,11,127,6,,,
0,midi_port,,0,1,7,,,,,,,0,,,,,,,,,,,,
0,track_name,,0,1,7,,,,,,,,,,,,,,,,,,,
0,program_change,,0,0,6,,,,,,,,,,,,,,,,5,73,,
0,control_change,,0,0,6,,,,,,,,,,,,,,7,96,5,,,
0,control_change,,0,0,6,,,,,,,,,,,,,,10,65,5,,,
0,control_change,,0,0,6,,,,,,,,,,,,,,11,127,5,,,
0,midi_port,,0,1,8,,,,,,,0,,,,,,,,,,,,
0,control_change,,0,0,8,,,,,,,,,,,,,,11,127,10,,,
0,control_change,,0,0,8,,,,,,,,,,,,,,10,48,10,,,
0,control_change,,0,0,8,,,,,,,,,,,,,,7,96,10,,,
0,control_change,,0,0,9,,,,,,,,,,,,,,11,127,11,,,
0,control_change,,0,0,9,,,,,,,,,,,,,,10,24,11,,,
0,control_change,,0,0,9,,,,,,,,,,,,,,7,96,11,,,
0,program_change,,0,0,9,,,,,,,,,,,,,,,,11,48,,
0,note_on,,0,0,9,,,,,,,,,,,,,,,,11,,69,48
0,track_name,,0,1,10,,,,,,,,,,,,,,,,,,,
0,midi_port,,0,1,10,,,,,,,0,,,,,,,,,,,,
0,control_change,,0,0,10,,,,,,,,,,,,,,11,127,12,,,
0,control_change,,0,0,10,,,,,,,,,,,,,,10,80,12,,,
0,control_change,,0,0,10,,,,,,,,,,,,,,7,96,12,,,
0,midi_port,,0,1,6,,,,,,,0,,,,,,,,,,,,
0,program_change,,0,0,10,,,,,,,,,,,,,,,,12,48,,
0,track_name,,0,1,11,,,,,,,,,,,,,,,,,,,
0,midi_port,,0,1,11,,,,,,,0,,,,,,,,,,,,
0,control_change,,0,0,11,,,,,,,,,,,,,,11,127,13,,,
0,control_change,,0,0,11,,,,,,,,,,,,,,10,96,13,,,
0,control_change,,0,0,11,,,,,,,,,,,,,,7,96,13,,,
0,program_change,,0,0,11,,,,,,,,,,,,,,,,13,48,,
0,note_on,,0,0,11,,,,,,,,,,,,,,,,13,,41,48
0,midi_port,,0,1,9,,,,,,,0,,,,,,,,,,,,
0,note_on,,0,0,8,,,,,,,,,,,,,,,,10,,72,48
0,program_change,,0,0,8,,,,,,,,,,,,,,,,10,48,,
0,note_on,,0,0,10,,,,,,,,,,,,,,,,12,,60,48
0,track_name,,0,1,6,,,,,,,,,,,,,,,,,,,
0,track_name,,0,1,9,,,,,,,,,,,,,,,,,,,
0,control_change,,0,0,5,,,,,,,,,,,,,,7,96,2,,,
0,control_change,,0,0,5,,,,,,,,,,,,,,10,65,2,,,
0,control_change,,0,0,5,,,,,,,,,,,,,,11,127,2,,,
0,midi_port,,0,1,5,,,,,,,0,,,,,,,,,,,,
0,track_name,,0,1,5,,,,,,,,,,,,,,,,,,,
0,end_of_track,,0,1,4,,,,,,,,,,,,,,,,,,,
0,midi_port,,0,1,4,,,,,,,0,,,,,,,,,,,,
0,end_of_track,,0,1,3,,,,,,,,,,,,,,,,,,,
0,program_change,,0,0,5,,,,,,,,,,,,,,,,2,70,,
0,midi_port,,0,1,3,,,,,,,0,,,,,,,,,,,,
0,end_of_track,,0,1,2,,,,,,,,,,,,,,,,,,,
0,midi_port,,0,1,2,,,,,,,0,,,,,,,,,,,,
0,track_name,,0,1,2,,,,,,,,,,,,,,,,,,,
0,set_tempo,,0,1,0,,,,,,,,,705882,,,,,,,,,,
0,time_signature,,0,1,0,,,,,,,,,,13,8,12,8,,,,,,
0,end_of_track,,0,1,1,,,,,,,,,,,,,,,,,,,
0,track_name,,0,1,1,,,,,,,,,,,,,,,,,,,
0,track_name,,0,1,3,,,,,,,,,,,,,,,,,,,
0,note_on,,0,0,5,,,,,,,,,,,,,,,,2,,41,48
0,midi_port,,0,1,1,,,,,,,0,,,,,,,,,,,,
0,track_name,,0,1,0,,,,,,,,,,,,,,,,,,,
0,instrument_name,,0,1,0,,,,,,,,,,,,,,,,,,,
0,smpte_offset,,0,1,0,25,32,0,3,0,0,,,,,,,,,,,,,
0,midi_port,,0,1,0,,,,,,,0,,,,,,,,,,,,
0,key_signature,,0,1,0,,,,,,,,F,,,,,,,,,,,
59,note_on,,59,0,11,,,,,,,,,,,,,,,,13,,41,0
59,note_on,,59,0,12,,,,,,,,,,,,,,,,15,,41,0
59,note_on,,59,0,10,,,,,,,,,,,,,,,,12,,60,0
59,note_on,,0,0,12,,,,,,,,,,,,,,,,15,,72,0
59,note_on,,0,0,12,,,,,,,,,,,,,,,,15,,69,0
59,note_on,,0,0,12,,,,,,,,,,,,,,,,15,,65,0
59,note_on,,0,0,12,,,,,,,,,,,,,,,,15,,60,0
59,note_on,,59,0,8,,,,,,,,,,,,,,,,10,,72,0
59,note_on,,59,0,5,,,,,,,,,,,,,,,,2,,41,0
59,note_on,,59,0,9,,,,,,,,,,,,,,,,11,,69,0
60,note_on,,1,0,5,,,,,,,,,,,,,,,,2,,41,48
60,note_on,,0,0,12,,,,,,,,,,,,,,,,15,,60,48
60,note_on,,0,0,12,,,,,,,,,,,,,,,,15,,65,48
60,note_on,,0,0,12,,,,,,,,,,,,,,,,15,,69,48
60,note_on,,1,0,8,,,,,,,,,,,,,,,,10,,72,48
60,note_on,,0,0,12,,,,,,,,,,,,,,,,15,,72,48
60,note_on,,1,0,12,,,,,,,,,,,,,,,,15,,41,48
60,note_on,,1,0,10,,,,,,,,,,,,,,,,12,,60,48
60,note_on,,1,0,9,,,,,,,,,,,,,,,,11,,69,48
60,note_on,,1,0,11,,,,,,,,,,,,,,,,13,,41,48
179,note_on,,119,0,8,,,,,,,,,,,,,,,,10,,72,0
179,note_on,,119,0,9,,,,,,,,,,,,,,,,11,,69,0
180,note_on,,1,0,8,,,,,,,,,,,,,,,,10,,70,48
180,note_on,,1,0,9,,,,,,,,,,,,,,,,11,,67,48
239,note_on,,59,0,8,,,,,,,,,,,,,,,,10,,70,0
239,note_on,,59,0,9,,,,,,,,,,,,,,,,11,,67,0
240,note_on,,1,0,8,,,,,,,,,,,,,,,,10,,69,48
240,note_on,,1,0,9,,,,,,,,,,,,,,,,11,,65,48
359,note_on,,119,0,9,,,,,,,,,,,,,,,,11,,65,0
359,note_on,,119,0,8,,,,,,,,,,,,,,,,10,,69,0
359,note_on,,299,0,10,,,,,,,,,,,,,,,,12,,60,0
360,note_on,,1,0,10,,,,,,,,,,,,,,,,12,,58,48
360,note_on,,1,0,9,,,,,,,,,,,,,,,,11,,64,48
360,note_on,,1,0,8,,,,,,,,,,,,,,,,10,,67,48
419,note_on,,59,0,9,,,,,,,,,,,,,,,,11,,64,0
419,note_on,,59,0,10,,,,,,,,,,,,,,,,12,,58,0
419,note_on,,59,0,8,,,,,,,,,,,,,,,,10,,67,0
420,note_on,,1,0,8,,,,,,,,,,,,,,,,10,,65,48
420,note_on,,1,0,10,,,,,,,,,,,,,,,,12,,57,48
420,note_on,,1,0,9,,,,,,,,,,,,,,,,11,,65,48
539,note_on,,479,0,5,,,,,,,,,,,,,,,,2,,41,0
539,note_on,,119,0,9,,,,,,,,,,,,,,,,11,,65,0
539,note_on,,479,0,11,,,,,,,,,,,,,,,,13,,41,0
539,note_on,,479,0,12,,,,,,,,,,,,,,,,15,,41,0
540,note_on,,1,0,5,,,,,,,,,,,,,,,,2,,51,48
540,note_on,,1,0,11,,,,,,,,,,,,,,,,13,,51,48
540,note_on,,1,0,12,,,,,,,,,,,,,,,,15,,51,48
540,note_on,,1,0,9,,,,,,,,,,,,,,,,11,,60,48
599,note_on,,59,0,11,,,,,,,,,,,,,,,,13,,51,0
599,note_on,,179,0,10,,,,,,,,,,,,,,,,12,,57,0
599,note_on,,0,0,12,,,,,,,,,,,,,,,,15,,51,0
599,note_on,,0,0,12,,,,,,,,,,,,,,,,15,,60,0
599,note_on,,0,0,12,,,,,,,,,,,,,,,,15,,69,0
599,note_on,,59,0,12,,,,,,,,,,,,,,,,15,,72,0
599,note_on,,59,0,9,,,,,,,,,,,,,,,,11,,60,0
599,note_on,,59,0,5,,,,,,,,,,,,,,,,2,,51,0
599,note_on,,0,0,12,,,,,,,,,,,,,,,,15,,65,0
600,note_on,,1,0,9,,,,,,,,,,,,,,,,11,,58,48
600,note_on,,1,0,12,,,,,,,,,,,,,,,,15,,50,48
600,note_on,,1,0,11,,,,,,,,,,,,,,,,13,,50,48
600,note_on,,1,0,5,,,,,,,,,,,,,,,,2,,50,48
600,note_on,,0,0,12,,,,,,,,,,,,,,,,15,,62,48
600,note_on,,0,0,12,,,,,,,,,,,,,,,,15,,70,48
600,note_on,,1,0,10,,,,,,,,,,,,,,,,12,,53,48
600,note_on,,0,0,12,,,,,,,,,,,,,,,,15,,65,48
719,note_on,,119,0,11,,,,,,,,,,,,,,,,13,,50,0
719,note_on,,119,0,9,,,,,,,,,,,,,,,,11,,58,0
719,note_on,,299,0,8,,,,,,,,,,,,,,,,10,,65,0
719,note_on,,119,0,12,,,,,,,,,,,,,,,,15,,50,0
719,note_on,,0,0,12,,,,,,,,,,,,,,,,15,,70,0
719,note_on,,0,0,12,,,,,,,,,,,,,,,,15,,65,0
719,note_on,,0,0,12,,,,,,,,,,,,,,,,15,,62,0
719,note_on,,119,0,5,,,,,,,,,,,,,,,,2,,50,0
719,note_on,,119,0,10,,,,,,,,,,,,,,,,12,,53,0
720,note_on,,1,0,11,,,,,,,,,,,,,,,,13,,48,48
720,note_on,,1,0,8,,,,,,,,,,,,,,,,10,,77,48
720,note_on,,1,0,9,,,,,,,,,,,,,,,,11,,57,48
720,note_on,,1,0,10,,,,,,,,,,,,,,,,12,,63,48
720,note_on,,1,0,5,,,,,,,,,,,,,,,,2,,48,48
720,note_on,,1,0,12,,,,,,,,,,,,,,,,15,,48,48
720,note_on,,0,0,12,,,,,,,,,,,,,,,,15,,72,48
720,note_on,,0,0,12,,,,,,,,,,,,,,,,15,,69,48
720,note_on,,0,0,12,,,,,,,,,,,,,,,,15,,63,48
779,note_on,,59,0,8,,,,,,,,,,,,,,,,10,,77,0
779,note_on,,59,0,9,,,,,,,,,,,,,,,,11,,57,0
779,note_on,,0,0,12,,,,,,,,,,,,,,,,15,,63,0
779,note_on,,0,0,12,,,,,,,,,,,,,,,,15,,72,0
779,note_on,,59,0,11,,,,,,,,,,,,,,,,13,,48,0
779,note_on,,59,0,5,,,,,,,,,,,,,,,,2,,48,0
779,note_on,,59,0,12,,,,,,,,,,,,,,,,15,,48,0
779,note_on,,0,0,12,,,,,,,,,,,,,,,,15,,69,0
779,note_on,,59,0,10,,,,,,,,,,,,,,,,12,,63,0
780,note_on,,1,0,8,,,,,,,,,,,,,,,,10,,77,48
780,note_on,,0,0,12,,,,,,,,,,,,,,,,15,,65,48
780,time_signature,,780,1,0,,,,,,,,,,12,8,24,8,,,,,,
780,note_on,,1,0,11,,,,,,,,,,,,,,,,13,,46,48
780,note_on,,1,0,10,,,,,,,,,,,,,,,,12,,62,48
780,note_on,,1,0,12,,,,,,,,,,,,,,,,15,,46,48
780,note_on,,0,0,12,,,,,,,,,,,,,,,,15,,74,48
780,note_on,,0,0,12,,,,,,,,,,,,,,,,15,,70,48
780,note_on,,1,0,9,,,,,,,,,,,,,,,,11,,74,48
780,note_on,,1,0,5,,,,,,,,,,,,,,,,2,,46,48
899,note_on,,119,0,10,,,,,,,,,,,,,,,,12,,62,0
899,note_on,,119,0,9,,,,,,,,,,,,,,,,11,,74,0
899,note_on,,119,0,8,,,,,,,,,,,,,,,,10,,77,0
900,note_on,,1,0,8,,,,,,,,,,,,,,,,10,,75,48
900,note_on,,1,0,9,,,,,,,,,,,,,,,,11,,72,48
900,note_on,,1,0,10,,,,,,,,,,,,,,,,12,,63,48
959,note_on,,59,0,9,,,,,,,,,,,,,,,,11,,72,0
959,note_on,,59,0,10,,,,,,,,,,,,,,,,12,,63,0
959,note_on,,59,0,8,,,,,,,,,,,,,,,,10,,75,0
960,note_on,,1,0,9,,,,,,,,,,,,,,,,11,,70,48
960,note_on,,1,0,10,,,,,,,,,,,,,,,,12,,65,48
960,note_on,,1,0,8,,,,,,,,,,,,,,,,10,,74,48
1079,note_on,,119,0,9,,,,,,,,,,,,,,,,11,,70,0
1079,note_on,,119,0,10,,,,,,,,,,,,,,,,12,,65,0
1079,note_on,,119,0,8,,,,,,,,,,,,,,,,10,,74,0
1080,note_on,,1,0,8,,,,,,,,,,,,,,,,10,,72,48
1080,note_on,,1,0,10,,,,,,,,,,,,,,,,12,,63,48
1080,note_on,,1,0,9,,,,,,,,,,,,,,,,11,,69,48
1139,note_on,,59,0,10,,,,,,,,,,,,,,,,12,,63,0
1139,note_on,,59,0,9,,,,,,,,,,,,,,,,11,,69,0
1139,note_on,,59,0,8,,,,,,,,,,,,,,,,10,,72,0
1140,note_on,,1,0,10,,,,,,,,,,,,,,,,12,,62,48
1140,note_on,,1,0,9,,,,,,,,,,,,,,,,11,,70,48
1140,note_on,,1,0,8,,,,,,,,,,,,,,,,10,,70,48
1259,note_on,,479,0,5,,,,,,,,,,,,,,,,2,,46,0
1259,note_on,,479,0,11,,,,,,,,,,,,,,,,13,,46,0
1259,note_on,,119,0,10,,,,,,,,,,,,,,,,12,,62,0
1259,note_on,,479,0,12,,,,,,,,,,,,,,,,15,,46,0
1260,note_on,,1,0,5,,,,,,,,,,,,,,,,2,,45,48
1260,note_on,,1,0,12,,,,,,,,,,,,,,,,15,,45,48
1260,note_on,,1,0,11,,,,,,,,,,,,,,,,13,,45,48
1260,note_on,,1,0,10,,,,,,,,,,,,,,,,12,,60,48
1319,note_on,,59,0,11,,,,,,,,,,,,,,,,13,,45,0
1319,note_on,,59,0,5,,,,,,,,,,,,,,,,2,,45,0
1319,note_on,,59,0,12,,,,,,,,,,,,,,,,15,,74,0
1319,note_on,,0,0,12,,,,,,,,,,,,,,,,15,,70,0
1319,note_on,,59,0,10,,,,,,,,,,,,,,,,12,,60,0
1319,note_on,,0,0,12,,,,,,,,,,,,,,,,15,,45,0
1319,note_on,,0,0,12,,,,,,,,,,,,,,,,15,,65,0
1320,note_on,,0,0,12,,,,,,,,,,,,,,,,15,,58,48
1320,note_on,,0,0,12,,,,,,,,,,,,,,,,15,,62,48
1320,note_on,,1,0,12,,,,,,,,,,,,,,,,15,,43,48
1320,note_on,,1,0,5,,,,,,,,,,,,,,,,2,,43,48
1320,note_on,,1,0,10,,,,,,,,,,,,,,,,12,,58,48
1320,note_on,,1,0,11,,,,,,,,,,,,,,,,13,,43,48
1439,note_on,,299,0,8,,,,,,,,,,,,,,,,10,,70,0
1439,note_on,,119,0,12,,,,,,,,,,,,,,,,15,,43,0
1439,note_on,,119,0,5,,,,,,,,,,,,,,,,2,,43,0
1439,note_on,,119,0,10,,,,,,,,,,,,,,,,12,,58,0
1439,note_on,,119,0,11,,,,,,,,,,,,,,,,13,,43,0
1439,note_on,,299,0,9,,,,,,,,,,,,,,,,11,,70,0
1440,note_on,,1,0,11,,,,,,,,,,,,,,,,13,,41,48
1440,note_on,,1,0,5,,,,,,,,,,,,,,,,2,,41,48
1440,note_on,,1,0,12,,,,,,,,,,,,,,,,15,,41,48
1440,note_on,,1,0,9,,,,,,,,,,,,,,,,11,,69,48
1440,note_on,,1,0,8,,,,,,,,,,,,,,,,10,,70,48
1440,note_on,,1,0,10,,,,,,,,,,,,,,,,12,,53,48
1499,note_on,,0,0,12,,,,,,,,,,,,,,,,15,,58,0
1499,note_on,,0,0,12,,,,,,,,,,,,,,,,15,,41,0
1499,note_on,,59,0,9,,,,,,,,,,,,,,,,11,,69,0
1499,note_on,,59,0,12,,,,,,,,,,,,,,,,15,,62,0
1499,note_on,,59,0,8,,,,,,,,,,,,,,,,10,,70,0
1499,note_on,,59,0,10,,,,,,,,,,,,,,,,12,,53,0
1499,note_on,,59,0,5,,,,,,,,,,,,,,,,2,,41,0
1499,note_on,,59,0,11,,,,,,,,,,,,,,,,13,,41,0
1500,note_on,,1,0,10,,,,,,,,,,,,,,,,12,,60,48
1500,note_on,,1,0,8,,,,,,,,,,,,,,,,10,,70,48
1500,note_on,,0,0,12,,,,,,,,,,,,,,,,15,,55,48
1500,note_on,,0,0,12,,,,,,,,,,,,,,,,15,,67,48
1500,note_on,,1,0,12,,,,,,,,,,,,,,,,15,,40,48
1500,note_on,,1,0,11,,,,,,,,,,,,,,,,13,,40,48
1500,note_on,,0,0,12,,,,,,,,,,,,,,,,15,,60,48
1500,note_on,,1,0,9,,,,,,,,,,,,,,,,11,,67,48
1500,note_on,,1,0,5,,,,,,,,,,,,,,,,2,,40,48
1619,note_on,,119,0,11,,,,,,,,,,,,,,,,13,,40,0
1619,note_on,,119,0,10,,,,,,,,,,,,,,,,12,,60,0
1619,note_on,,119,0,8,,,,,,,,,,,,,,,,10,,70,0
1619,note_on,,0,0,12,,,,,,,,,,,,,,,,15,,60,0
1619,note_on,,0,0,12,,,,,,,,,,,,,,,,15,,55,0
1619,note_on,,119,0,12,,,,,,,,,,,,,,,,15,,40,0
1619,note_on,,119,0,5,,,,,,,,,,,,,,,,2,,40,0
1619,note_on,,0,0,12,,,,,,,,,,,,,,,,15,,67,0
1619,note_on,,119,0,9,,,,,,,,,,,,,,,,11,,67,0
1620,note_on,,1,0,10,,,,,,,,,,,,,,,,12,,60,48
1620,note_on,,1,0,12,,,,,,,,,,,,,,,,15,,41,48
1620,note_on,,0,0,12,,,,,,,,,,,,,,,,15,,65,48
1620,note_on,,0,0,12,,,,,,,,,,,,,,,,15,,60,48
1620,note_on,,0,0,12,,,,,,,,,,,,,,,,15,,57,48
1620,note_on,,1,0,11,,,,,,,,,,,,,,,,13,,41,48
1620,note_on,,1,0,9,,,,,,,,,,,,,,,,11,,65,48
1620,note_on,,1,0,8,,,,,,,,,,,,,,,,10,,69,48
1620,note_on,,1,0,5,,,,,,,,,,,,,,,,2,,41,48
1679,note_on,,59,0,12,,,,,,,,,,,,,,,,15,,41,0
1679,note_on,,59,0,5,,,,,,,,,,,,,,,,2,,41,0
1679,note_on,,59,0,8,,,,,,,,,,,,,,,,10,,69,0
1679,note_on,,0,0,12,,,,,,,,,,,,,,,,15,,57,0
1679,note_on,,0,0,12,,,,,,,,,,,,,,,,15,,60,0
1679,note_on,,0,0,12,,,,,,,,,,,,,,,,15,,65,0
1679,note_on,,59,0,9,,,,,,,,,,,,,,,,11,,65,0
1679,note_on,,59,0,10,,,,,,,,,,,,,,,,12,,60,0
1679,note_on,,59,0,11,,,,,,,,,,,,,,,,13,,41,0
1680,note_on,,1,0,8,,,,,,,,,,,,,,,,10,,67,48
1680,note_on,,1,0,10,,,,,,,,,,,,,,,,12,,58,48
1680,note_on,,1,0,5,,,,,,,,,,,,,,,,2,,46,48
1680,note_on,,1,0,9,,,,,,,,,,,,,,,,11,,62,48
1680,note_on,,1,0,12,,,,,,,,,,,,,,,,15,,46,48
1680,note_on,,0,0,12,,,,,,,,,,,,,,,,15,,74,48
1680,note_on,,0,0,12,,,,,,,,,,,,,,,,15,,62,48
1680,note_on,,0,0,12,,,,,,,,,,,,,,,,15,,55,48
1680,note_on,,1,0,11,,,,,,,,,,,,,,,,13,,46,48
1799,note_on,,119,0,9,,,,,,,,,,,,,,,,11,,62,0
1799,note_on,,119,0,10,,,,,,,,,,,,,,,,12,,58,0
1799,note_on,,119,0,8,,,,,,,,,,,,,,,,10,,67,0
1800,note_on,,1,0,10,,,,,,,,,,,,,,,,12,,57,48
1800,note_on,,1,0,8,,,,,,,,,,,,,,,,10,,65,48
1800,note_on,,1,0,9,,,,,,,,,,,,,,,,11,,62,48
1859,note_on,,59,0,9,,,,,,,,,,,,,,,,11,,62,0
1859,note_on,,59,0,10,,,,,,,,,,,,,,,,12,,57,0
1859,note_on,,0,0,12,,,,,,,,,,,,,,,,15,,62,0
1859,note_on,,179,0,12,,,,,,,,,,,,,,,,15,,74,0
1859,note_on,,0,0,12,,,,,,,,,,,,,,,,15,,55,0
1859,note_on,,59,0,8,,,,,,,,,,,,,,,,10,,65,0
1860,note_on,,0,0,12,,,,,,,,,,,,,,,,15,,60,48
1860,note_on,,1,0,12,,,,,,,,,,,,,,,,15,,67,48
1860,note_on,,0,0,12,,,,,,,,,,,,,,,,15,,64,48
1860,note_on,,1,0,9,,,,,,,,,,,,,,,,11,,60,48
1860,note_on,,1,0,8,,,,,,,,,,,,,,,,10,,64,48
1860,note_on,,1,0,10,,,,,,,,,,,,,,,,12,,55,48
1949,note_on,,89,0,8,,,,,,,,,,,,,,,,10,,64,0
1950,note_on,,1,0,8,,,,,,,,,,,,,,,,10,,62,48
1979,note_on,,119,0,9,,,,,,,,,,,,,,,,11,,60,0
1979,note_on,,29,0,8,,,,,,,,,,,,,,,,10,,62,0
1979,note_on,,119,0,10,,,,,,,,,,,,,,,,12,,55,0
1980,note_on,,1,0,8,,,,,,,,,,,,,,,,10,,60,48
1980,note_on,,1,0,9,,,,,,,,,,,,,,,,11,,55,48
1980,note_on,,1,0,10,,,,,,,,,,,,,,,,12,,52,48
2039,note_on,,59,0,10,,,,,,,,,,,,,,,,12,,52,0
2039,note_on,,359,0,5,,,,,,,,,,,,,,,,2,,46,0
2039,note_on,,359,0,11,,,,,,,,,,,,,,,,13,,46,0
2039,note_on,,59,0,9,,,,,,,,,,,,,,,,11,,55,0
2039,note_on,,179,0,12,,,,,,,,,,,,,,,,15,,46,0
2039,note_on,,0,0,12,,,,,,,,,,,,,,,,15,,67,0
2039,note_on,,0,0,12,,,,,,,,,,,,,,,,15,,64,0
2039,note_on,,0,0,12,,,,,,,,,,,,,,,,15,,60,0
2039,note_on,,59,0,8,,,,,,,,,,,,,,,,10,,60,0
2040,note_on,,0,0,12,,,,,,,,,,,,,,,,15,,72,48
2040,note_on,,1,0,5,,,,,,,,,,,,,,,,2,,45,48
2040,note_on,,0,0,12,,,,,,,,,,,,,,,,15,,60,48
2040,note_on,,1,0,12,,,,,,,,,,,,,,,,15,,45,48
2040,note_on,,1,0,9,,,,,,,,,,,,,,,,11,,69,48
2040,note_on,,0,0,12,,,,,,,,,,,,,,,,15,,65,48
2040,note_on,,1,0,11,,,,,,,,,,,,,,,,13,,45,48
2040,note_on,,1,0,8,,,,,,,,,,,,,,,,10,,72,48
2040,note_on,,1,0,10,,,,,,,,,,,,,,,,12,,65,48
2129,note_on,,89,0,5,,,,,,,,,,,,,,,,2,,45,0
2129,note_on,,89,0,11,,,,,,,,,,,,,,,,13,,45,0
2129,note_on,,89,0,12,,,,,,,,,,,,,,,,15,,45,0
2130,note_on,,1,0,5,,,,,,,,,,,,,,,,2,,43,48
2130,note_on,,1,0,12,,,,,,,,,,,,,,,,15,,43,48
2130,note_on,,1,0,11,,,,,,,,,,,,,,,,13,,43,48
2159,note_on,,29,0,12,,,,,,,,,,,,,,,,15,,43,0
2159,note_on,,29,0,11,,,,,,,,,,,,,,,,13,,43,0
2159,note_on,,29,0,5,,,,,,,,,,,,,,,,2,,43,0
2160,note_on,,1,0,12,,,,,,,,,,,,,,,,15,,41,48
2160,note_on,,1,0,5,,,,,,,,,,,,,,,,2,,41,48
2160,note_on,,1,0,11,,,,,,,,,,,,,,,,13,,41,48
2219,note_on,,59,0,11,,,,,,,,,,,,,,,,13,,41,0
2219,note_on,,0,0,12,,,,,,,,,,,,,,,,15,,41,0
2219,note_on,,0,0,12,,,,,,,,,,,,,,,,15,,60,0
2219,note_on,,59,0,12,,,,,,,,,,,,,,,,15,,72,0
2219,note_on,,59,0,5,,,,,,,,,,,,,,,,2,,41,0
2219,note_on,,0,0,12,,,,,,,,,,,,,,,,15,,65,0
2220,note_on,,1,0,12,,,,,,,,,,,,,,,,15,,48,48
2220,note_on,,0,0,12,,,,,,,,,,,,,,,,15,,69,48
2220,note_on,,0,0,12,,,,,,,,,,,,,,,,15,,65,48
2220,note_on,,0,0,12,,,,,,,,,,,,,,,,15,,60,48
2220,note_on,,1,0,5,,,,,,,,,,,,,,,,2,,48,48
2220,note_on,,1,0,11,,,,,,,,,,,,,,,,13,,48,48
2309,note_on,,269,0,9,,,,,,,,,,,,,,,,11,,69,0
2309,note_on,,269,0,8,,,,,,,,,,,,,,,,10,,72,0
2310,note_on,,1,0,9,,,,,,,,,,,,,,,,11,,67,48
2310,note_on,,1,0,8,,,,,,,,,,,,,,,,10,,70,48
2339,note_on,,29,0,9,,,,,,,,,,,,,,,,11,,67,0
2339,note_on,,29,0,8,,,,,,,,,,,,,,,,10,,70,0
2339,note_on,,299,0,10,,,,,,,,,,,,,,,,12,,65,0
2340,note_on,,1,0,8,,,,,,,,,,,,,,,,10,,69,48
2340,note_on,,1,0,10,,,,,,,,,,,,,,,,12,,60,48
2340,note_on,,1,0,9,,,,,,,,,,,,,,,,11,,65,48
2399,note_on,,59,0,8,,,,,,,,,,,,,,,,10,,69,0
2399,note_on,,59,0,10,,,,,,,,,,,,,,,,12,,60,0
2399,note_on,,0,0,12,,,,,,,,,,,,,,,,15,,65,0
2399,note_on,,179,0,11,,,,,,,,,,,,,,,,13,,48,0
2399,note_on,,0,0,12,,,,,,,,,,,,,,,,15,,69,0
2399,note_on,,179,0,5,,,,,,,,,,,,,,,,2,,48,0
2399,note_on,,59,0,9,,,,,,,,,,,,,,,,11,,65,0
2399,note_on,,0,0,12,,,,,,,,,,,,,,,,15,,60,0
2399,note_on,,179,0,12,,,,,,,,,,,,,,,,15,,48,0
2400,note_on,,1,0,12,,,,,,,,,,,,,,,,15,,36,48
2400,note_on,,0,0,12,,,,,,,,,,,,,,,,15,,67,48
2400,note_on,,1,0,5,,,,,,,,,,,,,,,,2,,36,48
2400,note_on,,1,0,8,,,,,,,,,,,,,,,,10,,70,48
2400,note_on,,1,0,11,,,,,,,,,,,,,,,,13,,36,48
2400,note_on,,1,0,10,,,,,,,,,,,,,,,,12,,60,48
2400,note_on,,1,0,9,,,,,,,,,,,,,,,,11,,67,48
2400,note_on,,0,0,12,,,,,,,,,,,,,,,,15,,64,48
2400,note_on,,0,0,12,,,,,,,,,,,,,,,,15,,58,48
2489,note_on,,89,0,9,,,,,,,,,,,,,,,,11,,67,0
2489,note_on,,89,0,8,,,,,,,,,,,,,,,,10,,70,0
2490,note_on,,1,0,8,,,,,,,,,,,,,,,,10,,69,48
2490,note_on,,1,0,9,,,,,,,,,,,,,,,,11,,65,48
2519,note_on,,29,0,8,,,,,,,,,,,,,,,,10,,69,0
2519,note_on,,29,0,9,,,,,,,,,,,,,,,,11,,65,0
2519,note_on,,119,0,10,,,,,,,,,,,,,,,,12,,60,0
2520,note_on,,1,0,9,,,,,,,,,,,,,,,,11,,64,48
2520,note_on,,1,0,8,,,,,,,,,,,,,,,,10,,67,48
2520,note_on,,1,0,10,,,,,,,,,,,,,,,,12,,58,48
2579,note_on,,59,0,9,,,,,,,,,,,,,,,,11,,64,0
2579,note_on,,179,0,5,,,,,,,,,,,,,,,,2,,36,0
2579,note_on,,59,0,8,,,,,,,,,,,,,,,,10,,67,0
2579,note_on,,59,0,10,,,,,,,,,,,,,,,,12,,58,0
2579,note_on,,179,0,12,,,,,,,,,,,,,,,,15,,36,0
2579,note_on,,0,0,12,,,,,,,,,,,,,,,,15,,67,0
2579,note_on,,0,0,12,,,,,,,,,,,,,,,,15,,64,0
2579,note_on,,0,0,12,,,,,,,,,,,,,,,,15,,58,0
2579,note_on,,179,0,11,,,,,,,,,,,,,,,,13,,36,0
2580,note_on,,0,0,12,,,,,,,,,,,,,,,,15,,57,48
2580,note_on,,1,0,9,,,,,,,,,,,,,,,,11,,65,48
2580,note_on,,0,0,12,,,,,,,,,,,,,,,,15,,65,48
2580,note_on,,1,0,12,,,,,,,,,,,,,,,,15,,41,48
2580,note_on,,1,0,10,,,,,,,,,,,,,,,,12,,57,48
2580,note_on,,1,0,5,,,,,,,,,,,,,,,,2,,41,48
2580,note_on,,1,0,11,,,,,,,,,,,,,,,,13,,41,48
2580,note_on,,1,0,8,,,,,,,,,,,,,,,,10,,65,48
2580,note_on,,0,0,12,,,,,,,,,,,,,,,,15,,60,48
2879,note_on,,299,0,10,,,,,,,,,,,,,,,,12,,57,0
2879,note_on,,299,0,9,,,,,,,,,,,,,,,,11,,65,0
2880,note_on,,1,0,10,,,,,,,,,,,,,,,,12,,65,48
2880,control_change,,2880,0,7,,,,,,,,,,,,,,7,96,6,,,
2880,note_on,,0,0,7,,,,,,,,,,,,,,,,6,,72,64
2880,note_on,,1,0,9,,,,,,,,,,,,,,,,11,,69,48
2939,note_on,,59,0,7,,,,,,,,,,,,,,,,6,,72,0
2939,note_on,,359,0,5,,,,,,,,,,,,,,,,2,,41,0
2939,note_on,,59,0,10,,,,,,,,,,,,,,,,12,,65,0
2939,note_on,,59,0,9,,,,,,,,,,,,,,,,11,,69,0
2940,note_on,,1,0,7,,,,,,,,,,,,,,,,6,,72,64
2940,note_on,,1,0,10,,,,,,,,,,,,,,,,12,,60,48
2940,note_on,,1,0,9,,,,,,,,,,,,,,,,11,,69,48
3059,note_on,,119,0,9,,,,,,,,,,,,,,,,11,,69,0
3059,note_on,,119,0,7,,,,,,,,,,,,,,,,6,,72,0
3060,note_on,,1,0,9,,,,,,,,,,,,,,,,11,,67,48
3060,note_on,,1,0,7,,,,,,,,,,,,,,,,6,,70,64
3119,note_on,,59,0,7,,,,,,,,,,,,,,,,6,,70,0
3119,note_on,,59,0,9,,,,,,,,,,,,,,,,11,,67,0
3120,note_on,,1,0,9,,,,,,,,,,,,,,,,11,,65,48
3120,note_on,,1,0,7,,,,,,,,,,,,,,,,6,,69,64
3239,note_on,,119,0,7,,,,,,,,,,,,,,,,6,,69,0
3239,note_on,,299,0,10,,,,,,,,,,,,,,,,12,,60,0
3239,note_on,,659,0,8,,,,,,,,,,,,,,,,10,,65,0
3239,note_on,,119,0,9,,,,,,,,,,,,,,,,11,,65,0
3240,note_on,,1,0,10,,,,,,,,,,,,,,,,12,,58,48
3240,note_on,,1,0,8,,,,,,,,,,,,,,,,10,,60,48
3240,note_on,,1,0,9,,,,,,,,,,,,,,,,11,,64,48
3240,note_on,,1,0,7,,,,,,,,,,,,,,,,6,,67,64
3299,note_on,,59,0,10,,,,,,,,,,,,,,,,12,,58,0
3299,note_on,,59,0,8,,,,,,,,,,,,,,,,10,,60,0
3299,note_on,,59,0,7,,,,,,,,,,,,,,,,6,,67,0
3299,note_on,,0,0,12,,,,,,,,,,,,,,,,15,,57,0
3299,note_on,,59,0,9,,,,,,,,,,,,,,,,11,,64,0
3299,note_on,,719,0,12,,,,,,,,,,,,,,,,15,,65,0
3299,note_on,,0,0,12,,,,,,,,,,,,,,,,15,,60,0
3300,note_on,,1,0,12,,,,,,,,,,,,,,,,15,,60,48
3300,note_on,,1,0,7,,,,,,,,,,,,,,,,6,,65,64
3300,note_on,,0,0,12,,,,,,,,,,,,,,,,15,,53,48
3300,note_on,,1,0,8,,,,,,,,,,,,,,,,10,,60,48
3300,note_on,,0,0,12,,,,,,,,,,,,,,,,15,,57,48
3300,note_on,,1,0,10,,,,,,,,,,,,,,,,12,,57,48
3300,note_on,,1,0,9,,,,,,,,,,,,,,,,11,,65,48
3419,note_on,,119,0,10,,,,,,,,,,,,,,,,12,,57,0
3419,note_on,,119,0,8,,,,,,,,,,,,,,,,10,,60,0
3420,note_on,,1,0,8,,,,,,,,,,,,,,,,10,,58,48
3420,note_on,,1,0,10,,,,,,,,,,,,,,,,12,,55,48
3479,note_on,,179,0,7,,,,,,,,,,,,,,,,6,,65,0
3479,note_on,,59,0,8,,,,,,,,,,,,,,,,10,,58,0
3479,note_on,,59,0,10,,,,,,,,,,,,,,,,12,,55,0
3480,note_on,,1,0,7,,,,,,,,,,,,,,,,6,,60,64
3480,note_on,,1,0,8,,,,,,,,,,,,,,,,10,,57,48
3480,note_on,,1,0,10,,,,,,,,,,,,,,,,12,,53,48
3599,note_on,,119,0,8,,,,,,,,,,,,,,,,10,,57,0
3599,note_on,,119,0,7,,,,,,,,,,,,,,,,6,,60,0
3599,note_on,,119,0,10,,,,,,,,,,,,,,,,12,,53,0
3599,note_on,,299,0,9,,,,,,,,,,,,,,,,11,,65,0
3600,note_on,,1,0,8,,,,,,,,,,,,,,,,10,,55,48
3600,note_on,,1,0,7,,,,,,,,,,,,,,,,6,,64,64
3600,note_on,,1,0,9,,,,,,,,,,,,,,,,11,,60,48
3600,note_on,,1,0,10,,,,,,,,,,,,,,,,12,,52,48
3659,note_on,,59,0,10,,,,,,,,,,,,,,,,12,,52,0
3659,note_on,,359,0,12,,,,,,,,,,,,,,,,15,,60,0
3659,note_on,,59,0,8,,,,,,,,,,,,,,,,10,,55,0
3659,note_on,,59,0,9,,,,,,,,,,,,,,,,11,,60,0
3659,note_on,,59,0,7,,,,,,,,,,,,,,,,6,,64,0
3659,note_on,,0,0,12,,,,,,,,,,,,,,,,15,,53,0
3659,note_on,,0,0,12,,,,,,,,,,,,,,,,15,,57,0
3660,note_on,,1,0,9,,,,,,,,,,,,,,,,11,,65,48
3660,note_on,,1,0,7,,,,,,,,,,,,,,,,6,,65,64
3660,note_on,,0,0,12,,,,,,,,,,,,,,,,15,,60,48
3660,note_on,,0,0,12,,,,,,,,,,,,,,,,15,,65,48
3660,note_on,,1,0,10,,,,,,,,,,,,,,,,12,,60,48
3660,note_on,,1,0,8,,,,,,,,,,,,,,,,10,,57,48
3660,note_on,,1,0,12,,,,,,,,,,,,,,,,15,,69,48
3779,note_on,,119,0,8,,,,,,,,,,,,,,,,10,,57,0
3779,note_on,,119,0,9,,,,,,,,,,,,,,,,11,,65,0
3779,note_on,,119,0,7,,,,,,,,,,,,,,,,6,,65,0
3779,note_on,,119,0,10,,,,,,,,,,,,,,,,12,,60,0
3780,note_on,,1,0,8,,,,,,,,,,,,,,,,10,,60,48
3780,note_on,,1,0,7,,,,,,,,,,,,,,,,6,,67,64
3780,note_on,,1,0,9,,,,,,,,,,,,,,,,11,,67,48
3780,note_on,,1,0,10,,,,,,,,,,,,,,,,12,,64,48
3839,note_on,,59,0,8,,,,,,,,,,,,,,,,10,,60,0
3839,note_on,,59,0,9,,,,,,,,,,,,,,,,11,,67,0
3839,note_on,,0,0,12,,,,,,,,,,,,,,,,15,,65,0
3839,note_on,,0,0,12,,,,,,,,,,,,,,,,15,,60,0
3839,note_on,,179,0,12,,,,,,,,,,,,,,,,15,,69,0
3839,note_on,,59,0,10,,,,,,,,,,,,,,,,12,,64,0
3839,note_on,,59,0,7,,,,,,,,,,,,,,,,6,,67,0
3840,note_on,,1,0,10,,,,,,,,,,,,,,,,12,,60,48
3840,note_on,,0,0,12,,,,,,,,,,,,,,,,15,,69,48
3840,note_on,,0,0,12,,,,,,,,,,,,,,,,15,,72,48
3840,note_on,,1,0,12,,,,,,,,,,,,,,,,15,,77,48
3840,note_on,,1,0,9,,,,,,,,,,,,,,,,11,,69,48
3840,note_on,,1,0,8,,,,,,,,,,,,,,,,10,,65,48
3840,note_on,,1,0,7,,,,,,,,,,,,,,,,6,,69,64
3929,note_on,,89,0,8,,,,,,,,,,,,,,,,10,,65,0
3929,note_on,,89,0,9,,,,,,,,,,,,,,,,11,,69,0
3929,note_on,,89,0,7,,,,,,,,,,,,,,,,6,,69,0
3930,note_on,,1,0,9,,,,,,,,,,,,,,,,11,,70,48
3930,note_on,,1,0,7,,,,,,,,,,,,,,,,6,,70,64
3930,note_on,,1,0,8,,,,,,,,,,,,,,,,10,,67,48
3959,note_on,,29,0,8,,,,,,,,,,,,,,,,10,,67,0
3959,note_on,,119,0,12,,,,,,,,,,,,,,,,15,,41,0
3959,note_on,,29,0,9,,,,,,,,,,,,,,,,11,,70,0
3959,note_on,,119,0,10,,,,,,,,,,,,,,,,12,,60,0
3959,note_on,,1379,0,11,,,,,,,,,,,,,,,,13,,41,0
3959,note_on,,29,0,7,,,,,,,,,,,,,,,,6,,70,0
3960,note_on,,1,0,11,,,,,,,,,,,,,,,,13,,53,48
3960,note_on,,1,0,10,,,,,,,,,,,,,,,,12,,65,48
3960,note_on,,1,0,12,,,,,,,,,,,,,,,,15,,53,48
3960,note_on,,1,0,8,,,,,,,,,,,,,,,,10,,69,48
3960,note_on,,1,0,7,,,,,,,,,,,,,,,,6,,72,64
3960,note_on,,1,0,9,,,,,,,,,,,,,,,,11,,72,48
4019,note_on,,0,0,12,,,,,,,,,,,,,,,,15,,69,0
4019,note_on,,59,0,11,,,,,,,,,,,,,,,,13,,53,0
4019,note_on,,59,0,8,,,,,,,,,,,,,,,,10,,69,0
4019,note_on,,59,0,9,,,,,,,,,,,,,,,,11,,72,0
4019,note_on,,59,0,10,,,,,,,,,,,,,,,,12,,65,0
4019,note_on,,0,0,12,,,,,,,,,,,,,,,,15,,53,0
4019,note_on,,59,0,12,,,,,,,,,,,,,,,,15,,77,0
4019,note_on,,0,0,12,,,,,,,,,,,,,,,,15,,72,0
4019,note_on,,59,0,7,,,,,,,,,,,,,,,,6,,72,0
4020,note_on,,0,0,12,,,,,,,,,,,,,,,,15,,67,48
4020,note_on,,1,0,10,,,,,,,,,,,,,,,,12,,60,48
4020,note_on,,1,0,12,,,,,,,,,,,,,,,,15,,52,48
4020,note_on,,1,0,7,,,,,,,,,,,,,,,,6,,60,64
4020,note_on,,1,0,8,,,,,,,,,,,,,,,,10,,67,48
4020,note_on,,0,0,12,,,,,,,,,,,,,,,,15,,60,48
4020,note_on,,1,0,9,,,,,,,,,,,,,,,,11,,60,48
4020,note_on,,1,0,11,,,,,,,,,,,,,,,,13,,52,48
4020,note_on,,0,0,12,,,,,,,,,,,,,,,,15,,72,48
4139,note_on,,119,0,12,,,,,,,,,,,,,,,,15,,52,0
4139,note_on,,119,0,11,,,,,,,,,,,,,,,,13,,52,0
4139,note_on,,119,0,8,,,,,,,,,,,,,,,,10,,67,0
4139,note_on,,0,0,12,,,,,,,,,,,,,,,,15,,67,0
4140,note_on,,1,0,12,,,,,,,,,,,,,,,,15,,50,48
4140,note_on,,1,0,11,,,,,,,,,,,,,,,,13,,50,48
4140,note_on,,1,0,8,,,,,,,,,,,,,,,,10,,65,48
4140,note_on,,0,0,12,,,,,,,,,,,,,,,,15,,65,48
4199,note_on,,59,0,11,,,,,,,,,,,,,,,,13,,50,0
4199,note_on,,0,0,12,,,,,,,,,,,,,,,,15,,65,0
4199,note_on,,59,0,12,,,,,,,,,,,,,,,,15,,72,0
4199,note_on,,0,0,12,,,,,,,,,,,,,,,,15,,60,0
4199,note_on,,179,0,7,,,,,,,,,,,,,,,,6,,60,0
4199,note_on,,59,0,8,,,,,,,,,,,,,,,,10,,65,0
4199,note_on,,179,0,10,,,,,,,,,,,,,,,,12,,60,0
4199,note_on,,0,0,12,,,,,,,,,,,,,,,,15,,50,0
4200,note_on,,1,0,12,,,,,,,,,,,,,,,,15,,48,48
4200,note_on,,1,0,8,,,,,,,,,,,,,,,,10,,64,48
4200,note_on,,0,0,12,,,,,,,,,,,,,,,,15,,67,48
4200,note_on,,0,0,12,,,,,,,,,,,,,,,,15,,60,48
4200,note_on,,0,0,12,,,,,,,,,,,,,,,,15,,64,48
4200,note_on,,1,0,11,,,,,,,,,,,,,,,,13,,48,48
4200,note_on,,1,0,10,,,,,,,,,,,,,,,,12,,67,48
4319,note_on,,299,0,9,,,,,,,,,,,,,,,,11,,60,0
4319,note_on,,119,0,8,,,,,,,,,,,,,,,,10,,64,0
4319,note_on,,119,0,11,,,,,,,,,,,,,,,,13,,48,0
4319,note_on,,119,0,10,,,,,,,,,,,,,,,,12,,67,0
4319,note_on,,119,0,12,,,,,,,,,,,,,,,,15,,48,0
4320,note_on,,121,0,7,,,,,,,,,,,,,,,,6,,72,64
4320,note_on,,1,0,10,,,,,,,,,,,,,,,,12,,64,48
4320,note_on,,1,0,8,,,,,,,,,,,,,,,,10,,67,48
4320,note_on,,1,0,9,,,,,,,,,,,,,,,,11,,72,48
4320,note_on,,1,0,12,,,,,,,,,,,,,,,,15,,46,48
4320,note_on,,1,0,11,,,,,,,,,,,,,,,,13,,46,48
4379,note_on,,59,0,10,,,,,,,,,,,,,,,,12,,64,0
4379,note_on,,0,0,12,,,,,,,,,,,,,,,,15,,46,0
4379,note_on,,0,0,12,,,,,,,,,,,,,,,,15,,60,0
4379,note_on,,0,0,12,,,,,,,,,,,,,,,,15,,64,0
4379,note_on,,59,0,11,,,,,,,,,,,,,,,,13,,46,0
4379,note_on,,59,0,8,,,,,,,,,,,,,,,,10,,67,0
4379,note_on,,59,0,9,,,,,,,,,,,,,,,,11,,72,0
4379,note_on,,59,0,12,,,,,,,,,,,,,,,,15,,67,0
4379,note_on,,59,0,7,,,,,,,,,,,,,,,,6,,72,0
4380,note_on,,1,0,9,,,,,,,,,,,,,,,,11,,72,48
4380,note_on,,1,0,11,,,,,,,,,,,,,,,,13,,45,48
4380,note_on,,1,0,10,,,,,,,,,,,,,,,,12,,65,48
4380,note_on,,0,0,12,,,,,,,,,,,,,,,,15,,65,48
4380,note_on,,0,0,12,,,,,,,,,,,,,,,,15,,69,48
4380,note_on,,1,0,12,,,,,,,,,,,,,,,,15,,45,48
4380,note_on,,0,0,12,,,,,,,,,,,,,,,,15,,60,48
4380,note_on,,1,0,7,,,,,,,,,,,,,,,,6,,72,64
4380,note_on,,1,0,8,,,,,,,,,,,,,,,,10,,69,48
4499,note_on,,119,0,8,,,,,,,,,,,,,,,,10,,69,0
4499,note_on,,119,0,10,,,,,,,,,,,,,,,,12,,65,0
4499,note_on,,119,0,9,,,,,,,,,,,,,,,,11,,72,0
4499,note_on,,119,0,7,,,,,,,,,,,,,,,,6,,72,0
4500,note_on,,1,0,7,,,,,,,,,,,,,,,,6,,70,64
4500,note_on,,1,0,8,,,,,,,,,,,,,,,,10,,67,48
4500,note_on,,1,0,9,,,,,,,,,,,,,,,,11,,70,48
4500,note_on,,1,0,10,,,,,,,,,,,,,,,,12,,64,48
4559,note_on,,59,0,8,,,,,,,,,,,,,,,,10,,67,0
4559,note_on,,179,0,12,,,,,,,,,,,,,,,,15,,45,0
4559,note_on,,0,0,12,,,,,,,,,,,,,,,,15,,69,0
4559,note_on,,0,0,12,,,,,,,,,,,,,,,,15,,65,0
4559,note_on,,0,0,12,,,,,,,,,,,,,,,,15,,60,0
4559,note_on,,59,0,10,,,,,,,,,,,,,,,,12,,64,0
4559,note_on,,59,0,9,,,,,,,,,,,,,,,,11,,70,0
4559,note_on,,179,0,11,,,,,,,,,,,,,,,,13,,45,0
4559,note_on,,59,0,7,,,,,,,,,,,,,,,,6,,70,0
4560,note_on,,1,0,9,,,,,,,,,,,,,,,,11,,69,48
4560,note_on,,1,0,8,,,,,,,,,,,,,,,,10,,65,48
4560,note_on,,0,0,12,,,,,,,,,,,,,,,,15,,60,48
4560,note_on,,1,0,11,,,,,,,,,,,,,,,,13,,48,48
4560,note_on,,1,0,7,,,,,,,,,,,,,,,,6,,69,64
4560,note_on,,1,0,10,,,,,,,,,,,,,,,,12,,60,48
4560,note_on,,0,0,12,,,,,,,,,,,,,,,,15,,57,48
4560,note_on,,0,0,12,,,,,,,,,,,,,,,,15,,65,48
4560,note_on,,1,0,12,,,,,,,,,,,,,,,,15,,48,48
4679,note_on,,119,0,7,,,,,,,,,,,,,,,,6,,69,0
4679,note_on,,119,0,8,,,,,,,,,,,,,,,,10,,65,0
4679,note_on,,119,0,12,,,,,,,,,,,,,,,,15,,65,0
4679,note_on,,119,0,10,,,,,,,,,,,,,,,,12,,60,0
4679,note_on,,0,0,12,,,,,,,,,,,,,,,,15,,57,0
4679,note_on,,119,0,9,,,,,,,,,,,,,,,,11,,69,0
4680,note_on,,0,0,12,,,,,,,,,,,,,,,,15,,55,48
4680,note_on,,1,0,7,,,,,,,,,,,,,,,,6,,67,64
4680,note_on,,1,0,12,,,,,,,,,,,,,,,,15,,64,48
4680,note_on,,1,0,10,,,,,,,,,,,,,,,,12,,58,48
4680,note_on,,1,0,8,,,,,,,,,,,,,,,,10,,64,48
4680,note_on,,1,0,9,,,,,,,,,,,,,,,,11,,67,48
4739,note_on,,0,0,12,,,,,,,,,,,,,,,,15,,60,0
4739,note_on,,59,0,12,,,,,,,,,,,,,,,,15,,48,0
4739,note_on,,59,0,8,,,,,,,,,,,,,,,,10,,64,0
4739,note_on,,59,0,9,,,,,,,,,,,,,,,,11,,67,0
4739,note_on,,59,0,10,,,,,,,,,,,,,,,,12,,58,0
4739,note_on,,179,0,11,,,,,,,,,,,,,,,,13,,48,0
4739,note_on,,59,0,7,,,,,,,,,,,,,,,,6,,67,0
4739,note_on,,0,0,12,,,,,,,,,,,,,,,,15,,64,0
4739,note_on,,0,0,12,,,,,,,,,,,,,,,,15,,55,0
4740,note_on,,1,0,9,,,,,,,,,,,,,,,,11,,65,48
4740,note_on,,0,0,12,,,,,,,,,,,,,,,,15,,53,48
4740,note_on,,0,0,12,,,,,,,,,,,,,,,,15,,65,48
4740,note_on,,0,0,12,,,,,,,,,,,,,,,,15,,57,48
4740,note_on,,1,0,7,,,,,,,,,,,,,,,,6,,65,64
4740,note_on,,1,0,10,,,,,,,,,,,,,,,,12,,57,48
4740,note_on,,1,0,8,,,,,,,,,,,,,,,,10,,62,48
4740,note_on,,1,0,11,,,,,,,,,,,,,,,,13,,50,48
4740,note_on,,1,0,12,,,,,,,,,,,,,,,,15,,50,48
4859,note_on,,119,0,7,,,,,,,,,,,,,,,,6,,65,0
4859,note_on,,119,0,11,,,,,,,,,,,,,,,,13,,50,0
4859,note_on,,119,0,12,,,,,,,,,,,,,,,,15,,50,0
4859,note_on,,0,0,12,,,,,,,,,,,,,,,,15,,57,0
4859,note_on,,119,0,9,,,,,,,,,,,,,,,,11,,65,0
4860,note_on,,0,0,12,,,,,,,,,,,,,,,,15,,64,48
4860,note_on,,1,0,11,,,,,,,,,,,,,,,,13,,48,48
4860,note_on,,1,0,12,,,,,,,,,,,,,,,,15,,48,48
4860,note_on,,1,0,9,,,,,,,,,,,,,,,,11,,64,48
4860,note_on,,1,0,7,,,,,,,,,,,,,,,,6,,64,64
4919,note_on,,0,0,12,,,,,,,,,,,,,,,,15,,64,0
4919,note_on,,0,0,12,,,,,,,,,,,,,,,,15,,48,0
4919,note_on,,0,0,12,,,,,,,,,,,,,,,,15,,53,0
4919,note_on,,59,0,12,,,,,,,,,,,,,,,,15,,65,0
4919,note_on,,59,0,9,,,,,,,,,,,,,,,,11,,64,0
4919,note_on,,59,0,7,,,,,,,,,,,,,,,,6,,64,0
4919,note_on,,59,0,11,,,,,,,,,,,,,,,,13,,48,0
4919,note_on,,179,0,10,,,,,,,,,,,,,,,,12,,57,0
4920,note_on,,1,0,9,,,,,,,,,,,,,,,,11,,65,48
4920,note_on,,1,0,10,,,,,,,,,,,,,,,,12,,55,48
4920,note_on,,1,0,7,,,,,,,,,,,,,,,,6,,65,64
4920,note_on,,1,0,11,,,,,,,,,,,,,,,,13,,47,48
4920,note_on,,1,0,12,,,,,,,,,,,,,,,,15,,47,48
4920,note_on,,0,0,12,,,,,,,,,,,,,,,,15,,74,48
4920,note_on,,0,0,12,,,,,,,,,,,,,,,,15,,62,48
4920,note_on,,0,0,12,,,,,,,,,,,,,,,,15,,55,48
5039,note_on,,119,0,12,,,,,,,,,,,,,,,,15,,47,0
5039,note_on,,119,0,10,,,,,,,,,,,,,,,,12,,55,0
5039,note_on,,0,0,12,,,,,,,,,,,,,,,,15,,74,0
5039,note_on,,299,0,8,,,,,,,,,,,,,,,,10,,62,0
5039,note_on,,119,0,11,,,,,,,,,,,,,,,,13,,47,0
5039,note_on,,119,0,9,,,,,,,,,,,,,,,,11,,65,0
5039,note_on,,119,0,7,,,,,,,,,,,,,,,,6,,65,0
5040,note_on,,0,0,12,,,,,,,,,,,,,,,,15,,72,48
5040,note_on,,1,0,10,,,,,,,,,,,,,,,,12,,60,48
5040,note_on,,1,0,11,,,,,,,,,,,,,,,,13,,45,48
5040,note_on,,1,0,9,,,,,,,,,,,,,,,,11,,65,48
5040,note_on,,1,0,12,,,,,,,,,,,,,,,,15,,45,48
5040,note_on,,1,0,7,,,,,,,,,,,,,,,,6,,65,64
5040,note_on,,1,0,8,,,,,,,,,,,,,,,,10,,60,48
5099,note_on,,59,0,8,,,,,,,,,,,,,,,,10,,60,0
5099,note_on,,59,0,7,,,,,,,,,,,,,,,,6,,65,0
5099,note_on,,59,0,10,,,,,,,,,,,,,,,,12,,60,0
5099,note_on,,59,0,12,,,,,,,,,,,,,,,,15,,62,0
5099,note_on,,0,0,12,,,,,,,,,,,,,,,,15,,55,0
5099,note_on,,0,0,12,,,,,,,,,,,,,,,,15,,45,0
5099,note_on,,59,0,11,,,,,,,,,,,,,,,,13,,45,0
5099,note_on,,0,0,12,,,,,,,,,,,,,,,,15,,72,0
5099,note_on,,59,0,9,,,,,,,,,,,,,,,,11,,65,0
5100,note_on,,0,0,12,,,,,,,,,,,,,,,,15,,62,48
5100,note_on,,1,0,8,,,,,,,,,,,,,,,,10,,59,48
5100,note_on,,1,0,10,,,,,,,,,,,,,,,,12,,62,48
5100,note_on,,1,0,11,,,,,,,,,,,,,,,,13,,43,48
5100,note_on,,1,0,12,,,,,,,,,,,,,,,,15,,43,48
5100,note_on,,0,0,12,,,,,,,,,,,,,,,,15,,71,48
5100,note_on,,1,0,9,,,,,,,,,,,,,,,,11,,74,48
5100,note_on,,0,0,12,,,,,,,,,,,,,,,,15,,67,48
5100,note_on,,1,0,7,,,,,,,,,,,,,,,,6,,74,64
5219,note_on,,119,0,9,,,,,,,,,,,,,,,,11,,74,0
5219,note_on,,119,0,8,,,,,,,,,,,,,,,,10,,59,0
5219,note_on,,119,0,10,,,,,,,,,,,,,,,,12,,62,0
5219,note_on,,119,0,7,,,,,,,,,,,,,,,,6,,74,0
5220,note_on,,1,0,9,,,,,,,,,,,,,,,,11,,72,48
5220,note_on,,1,0,8,,,,,,,,,,,,,,,,10,,60,48
5220,note_on,,1,0,7,,,,,,,,,,,,,,,,6,,72,64
5220,note_on,,1,0,10,,,,,,,,,,,,,,,,12,,57,48
5279,note_on,,59,0,7,,,,,,,,,,,,,,,,6,,72,0
5279,note_on,,59,0,9,,,,,,,,,,,,,,,,11,,72,0
5279,note_on,,59,0,10,,,,,,,,,,,,,,,,12,,57,0
5279,note_on,,59,0,8,,,,,,,,,,,,,,,,10,,60,0
5280,note_on,,1,0,7,,,,,,,,,,,,,,,,6,,71,64
5280,note_on,,1,0,9,,,,,,,,,,,,,,,,11,,71,48
5280,note_on,,1,0,10,,,,,,,,,,,,,,,,12,,59,48
5280,note_on,,1,0,8,,,,,,,,,,,,,,,,10,,62,48
5339,note_on,,59,0,9,,,,,,,,,,,,,,,,11,,71,0
5339,note_on,,59,0,7,,,,,,,,,,,,,,,,6,,71,0
5340,note_on,,1,0,7,,,,,,,,,,,,,,,,6,,69,64
5340,note_on,,1,0,9,,,,,,,,,,,,,,,,11,,69,48
5399,note_on,,59,0,9,,,,,,,,,,,,,,,,11,,69,0
5399,note_on,,119,0,10,,,,,,,,,,,,,,,,12,,59,0
5399,note_on,,59,0,7,,,,,,,,,,,,,,,,6,,69,0
5399,note_on,,119,0,8,,,,,,,,,,,,,,,,10,,62,0
5400,note_on,,1,0,7,,,,,,,,,,,,,,,,6,,67,64
5400,note_on,,1,0,10,,,,,,,,,,,,,,,,12,,60,48
5400,note_on,,1,0,9,,,,,,,,,,,,,,,,11,,67,48
5400,note_on,,1,0,8,,,,,,,,,,,,,,,,10,,64,48
5459,note_on,,59,0,8,,,,,,,,,,,,,,,,10,,64,0
5459,note_on,,59,0,9,,,,,,,,,,,,,,,,11,,67,0
5459,note_on,,0,0,12,,,,,,,,,,,,,,,,15,,62,0
5459,note_on,,0,0,12,,,,,,,,,,,,,,,,15,,67,0
5459,note_on,,59,0,10,,,,,,,,,,,,,,,,12,,60,0
5459,note_on,,59,0,7,,,,,,,,,,,,,,,,6,,67,0
5459,note_on,,359,0,12,,,,,,,,,,,,,,,,15,,71,0
5460,note_on,,1,0,9,,,,,,,,,,,,,,,,11,,65,48
5460,note_on,,0,0,12,,,,,,,,,,,,,,,,15,,62,48
5460,note_on,,0,0,12,,,,,,,,,,,,,,,,15,,67,48
5460,note_on,,0,0,12,,,,,,,,,,,,,,,,15,,71,48
5460,note_on,,1,0,12,,,,,,,,,,,,,,,,15,,74,48
5460,note_on,,1,0,8,,,,,,,,,,,,,,,,10,,62,48
5460,note_on,,1,0,10,,,,,,,,,,,,,,,,12,,59,48
5460,note_on,,1,0,7,,,,,,,,,,,,,,,,6,,65,64
5579,note_on,,119,0,8,,,,,,,,,,,,,,,,10,,62,0
5579,note_on,,0,0,12,,,,,,,,,,,,,,,,15,,62,0
5579,note_on,,479,0,11,,,,,,,,,,,,,,,,13,,43,0
5579,note_on,,119,0,10,,,,,,,,,,,,,,,,12,,59,0
5579,note_on,,119,0,12,,,,,,,,,,,,,,,,15,,43,0
5580,note_on,,1,0,8,,,,,,,,,,,,,,,,10,,60,48
5580,note_on,,1,0,12,,,,,,,,,,,,,,,,15,,45,48
5580,note_on,,0,0,12,,,,,,,,,,,,,,,,15,,60,48
5580,note_on,,1,0,10,,,,,,,,,,,,,,,,12,,60,48
5580,note_on,,1,0,11,,,,,,,,,,,,,,,,13,,45,48
5639,note_on,,59,0,11,,,,,,,,,,,,,,,,13,,45,0
5639,note_on,,59,0,12,,,,,,,,,,,,,,,,15,,45,0
5639,note_on,,0,0,12,,,,,,,,,,,,,,,,15,,60,0
5639,note_on,,59,0,10,,,,,,,,,,,,,,,,12,,60,0
5639,note_on,,59,0,8,,,,,,,,,,,,,,,,10,,60,0
5640,note_on,,1,0,12,,,,,,,,,,,,,,,,15,,47,48
5640,note_on,,0,0,12,,,,,,,,,,,,,,,,15,,62,48
5640,note_on,,1,0,8,,,,,,,,,,,,,,,,10,,62,48
5640,note_on,,1,0,11,,,,,,,,,,,,,,,,13,,47,48
5640,note_on,,1,0,10,,,,,,,,,,,,,,,,12,,55,48
5759,note_on,,119,0,12,,,,,,,,,,,,,,,,15,,74,0
5759,note_on,,119,0,8,,,,,,,,,,,,,,,,10,,62,0
5759,note_on,,0,0,12,,,,,,,,,,,,,,,,15,,62,0
5759,note_on,,0,0,12,,,,,,,,,,,,,,,,15,,47,0
5759,note_on,,0,0,12,,,,,,,,,,,,,,,,15,,67,0
5759,note_on,,119,0,10,,,,,,,,,,,,,,,,12,,55,0
5759,note_on,,0,0,12,,,,,,,,,,,,,,,,15,,71,0
5759,note_on,,119,0,11,,,,,,,,,,,,,,,,13,,47,0
5760,note_on,,1,0,11,,,,,,,,,,,,,,,,13,,43,48
5760,note_on,,1,0,8,,,,,,,,,,,,,,,,10,,59,48
5760,note_on,,1,0,12,,,,,,,,,,,,,,,,15,,43,48
5760,note_on,,0,0,12,,,,,,,,,,,,,,,,15,,62,48
5760,note_on,,1,0,10,,,,,,,,,,,,,,,,12,,55,48
5760,note_on,,0,0,12,,,,,,,,,,,,,,,,15,,71,48
5760,note_on,,0,0,12,,,,,,,,,,,,,,,,15,,67,48
5819,note_on,,59,0,12,,,,,,,,,,,,,,,,15,,43,0
5819,note_on,,359,0,7,,,,,,,,,,,,,,,,6,,65,0
5819,note_on,,59,0,10,,,,,,,,,,,,,,,,12,,55,0
5819,note_on,,0,0,12,,,,,,,,,,,,,,,,15,,67,0
5819,note_on,,59,0,8,,,,,,,,,,,,,,,,10,,59,0
5819,note_on,,359,0,9,,,,,,,,,,,,,,,,11,,65,0
5819,note_on,,59,0,11,,,,,,,,,,,,,,,,13,,43,0
5819,note_on,,0,0,12,,,,,,,,,,,,,,,,15,,71,0
5819,note_on,,0,0,12,,,,,,,,,,,,,,,,15,,62,0
5820,note_on,,1,0,9,,,,,,,,,,,,,,,,11,,64,48
5820,note_on,,1,0,11,,,,,,,,,,,,,,,,13,,48,48
5820,note_on,,1,0,8,,,,,,,,,,,,,,,,10,,67,48
5820,note_on,,0,0,12,,,,,,,,,,,,,,,,15,,67,48
5820,note_on,,1,0,7,,,,,,,,,,,,,,,,6,,64,64
5820,note_on,,1,0,10,,,,,,,,,,,,,,,,12,,55,48
5820,note_on,,0,0,12,,,,,,,,,,,,,,,,15,,60,48
5820,note_on,,0,0,12,,,,,,,,,,,,,,,,15,,64,48
5820,note_on,,1,0,12,,,,,,,,,,,,,,,,15,,48,48
5879,note_on,,59,0,11,,,,,,,,,,,,,,,,13,,48,0
5879,note_on,,59,0,7,,,,,,,,,,,,,,,,6,,64,0
5879,note_on,,59,0,12,,,,,,,,,,,,,,,,15,,48,0
5879,note_on,,59,0,9,,,,,,,,,,,,,,,,11,,64,0
5879,note_on,,0,0,12,,,,,,,,,,,,,,,,15,,64,0
5880,note_on,,1,0,9,,,,,,,,,,,,,,,,11,,62,48
5880,note_on,,1,0,12,,,,,,,,,,,,,,,,15,,47,48
5880,note_on,,0,0,12,,,,,,,,,,,,,,,,15,,62,48
5880,note_on,,1,0,11,,,,,,,,,,,,,,,,13,,47,48
5880,note_on,,1,0,7,,,,,,,,,,,,,,,,6,,62,64
5939,note_on,,59,0,7,,,,,,,,,,,,,,,,6,,62,0
5939,note_on,,0,0,12,,,,,,,,,,,,,,,,15,,47,0
5939,note_on,,59,0,11,,,,,,,,,,,,,,,,13,,47,0
5939,note_on,,119,0,8,,,,,,,,,,,,,,,,10,,67,0
5939,note_on,,0,0,12,,,,,,,,,,,,,,,,15,,62,0
5939,note_on,,0,0,12,,,,,,,,,,,,,,,,15,,60,0
5939,note_on,,59,0,12,,,,,,,,,,,,,,,,15,,67,0
5939,note_on,,59,0,9,,,,,,,,,,,,,,,,11,,62,0
5939,note_on,,119,0,10,,,,,,,,,,,,,,,,12,,55,0
5940,note_on,,0,0,12,,,,,,,,,,,,,,,,15,,45,48
5940,note_on,,0,0,12,,,,,,,,,,,,,,,,15,,65,48
5940,note_on,,1,0,12,,,,,,,,,,,,,,,,15,,69,48
5940,note_on,,0,0,12,,,,,,,,,,,,,,,,15,,60,48
5940,note_on,,1,0,11,,,,,,,,,,,,,,,,13,,45,48
5940,note_on,,1,0,8,,,,,,,,,,,,,,,,10,,72,48
5940,note_on,,1,0,10,,,,,,,,,,,,,,,,12,,53,48
5940,note_on,,1,0,9,,,,,,,,,,,,,,,,11,,65,48
5940,note_on,,1,0,7,,,,,,,,,,,,,,,,6,,65,64
5999,note_on,,59,0,11,,,,,,,,,,,,,,,,13,,45,0
5999,note_on,,59,0,7,,,,,,,,,,,,,,,,6,,65,0
5999,note_on,,59,0,8,,,,,,,,,,,,,,,,10,,72,0
5999,note_on,,59,0,10,,,,,,,,,,,,,,,,12,,53,0
5999,note_on,,59,0,9,,,,,,,,,,,,,,,,11,,65,0
5999,note_on,,0,0,12,,,,,,,,,,,,,,,,15,,65,0
5999,note_on,,59,0,12,,,,,,,,,,,,,,,,15,,69,0
5999,note_on,,0,0,12,,,,,,,,,,,,,,,,15,,60,0
5999,note_on,,0,0,12,,,,,,,,,,,,,,,,15,,45,0
6000,note_on,,0,0,12,,,,,,,,,,,,,,,,15,,67,48
6000,note_on,,1,0,9,,,,,,,,,,,,,,,,11,,64,48
6000,note_on,,1,0,8,,,,,,,,,,,,,,,,10,,60,48
6000,note_on,,0,0,12,,,,,,,,,,,,,,,,15,,64,48
6000,note_on,,1,0,10,,,,,,,,,,,,,,,,12,,55,48
6000,note_on,,1,0,7,,,,,,,,,,,,,,,,6,,64,64
6000,note_on,,1,0,11,,,,,,,,,,,,,,,,13,,43,48
6000,note_on,,1,0,12,,,,,,,,,,,,,,,,15,,43,48
6000,note_on,,0,0,12,,,,,,,,,,,,,,,,15,,72,48
6089,note_on,,89,0,9,,,,,,,,,,,,,,,,11,,64,0
6089,note_on,,89,0,8,,,,,,,,,,,,,,,,10,,60,0
6089,note_on,,89,0,7,,,,,,,,,,,,,,,,6,,64,0
6090,note_on,,1,0,7,,,,,,,,,,,,,,,,6,,65,64
6090,note_on,,1,0,8,,,,,,,,,,,,,,,,10,,62,48
6090,note_on,,1,0,9,,,,,,,,,,,,,,,,11,,65,48
6119,note_on,,119,0,11,,,,,,,,,,,,,,,,13,,43,0
6119,note_on,,0,0,12,,,,,,,,,,,,,,,,15,,64,0
6119,note_on,,0,0,12,,,,,,,,,,,,,,,,15,,67,0
6119,note_on,,0,0,12,,,,,,,,,,,,,,,,15,,72,0
6119,note_on,,29,0,8,,,,,,,,,,,,,,,,10,,62,0
6119,note_on,,29,0,9,,,,,,,,,,,,,,,,11,,65,0
6119,note_on,,119,0,12,,,,,,,,,,,,,,,,15,,43,0
6119,note_on,,119,0,10,,,,,,,,,,,,,,,,12,,55,0
6119,note_on,,29,0,7,,,,,,,,,,,,,,,,6,,65,0
6120,note_on,,1,0,11,,,,,,,,,,,,,,,,13,,55,48
6120,note_on,,0,0,12,,,,,,,,,,,,,,,,15,,71,48
6120,note_on,,1,0,8,,,,,,,,,,,,,,,,10,,59,48
6120,note_on,,1,0,10,,,,,,,,,,,,,,,,12,,55,48
6120,note_on,,1,0,9,,,,,,,,,,,,,,,,11,,62,48
6120,note_on,,1,0,7,,,,,,,,,,,,,,,,6,,62,64
6120,note_on,,0,0,12,,,,,,,,,,,,,,,,15,,62,48
6120,note_on,,0,0,12,,,,,,,,,,,,,,,,15,,67,48
6120,note_on,,1,0,12,,,,,,,,,,,,,,,,15,,55,48
6179,note_on,,59,0,12,,,,,,,,,,,,,,,,15,,55,0
6179,note_on,,59,0,10,,,,,,,,,,,,,,,,12,,55,0
6179,note_on,,59,0,8,,,,,,,,,,,,,,,,10,,59,0
6179,note_on,,0,0,12,,,,,,,,,,,,,,,,15,,71,0
6179,note_on,,0,0,12,,,,,,,,,,,,,,,,15,,67,0
6179,note_on,,0,0,12,,,,,,,,,,,,,,,,15,,62,0
6179,note_on,,59,0,11,,,,,,,,,,,,,,,,13,,55,0
6179,note_on,,59,0,9,,,,,,,,,,,,,,,,11,,62,0
6179,note_on,,59,0,7,,,,,,,,,,,,,,,,6,,62,0
6180,note_on,,1,0,10,,,,,,,,,,,,,,,,12,,55,48
6180,note_on,,1,0,11,,,,,,,,,,,,,,,,13,,48,48
6180,note_on,,1,0,8,,,,,,,,,,,,,,,,10,,64,48
6180,note_on,,1,0,12,,,,,,,,,,,,,,,,15,,48,48
6180,note_on,,0,0,12,,,,,,,,,,,,,,,,15,,72,48
6180,note_on,,0,0,12,,,,,,,,,,,,,,,,15,,67,48
6180,note_on,,0,0,12,,,,,,,,,,,,,,,,15,,64,48
6180,note_on,,1,0,9,,,,,,,,,,,,,,,,11,,60,48
6180,note_on,,1,0,7,,,,,,,,,,,,,,,,6,,60,64
6299,note_on,,119,0,8,,,,,,,,,,,,,,,,10,,64,0
6299,note_on,,119,0,12,,,,,,,,,,,,,,,,15,,48,0
6299,note_on,,119,0,11,,,,,,,,,,,,,,,,13,,48,0
6300,note_on,,1,0,11,,,,,,,,,,,,,,,,13,,46,48
6300,note_on,,1,0,12,,,,,,,,,,,,,,,,15,,46,48
6300,note_on,,1,0,8,,,,,,,,,,,,,,,,10,,62,48
6359,note_on,,179,0,10,,,,,,,,,,,,,,,,12,,55,0
6359,note_on,,59,0,11,,,,,,,,,,,,,,,,13,,46,0
6359,note_on,,0,0,12,,,,,,,,,,,,,,,,15,,64,0
6359,note_on,,0,0,12,,,,,,,,,,,,,,,,15,,67,0
6359,note_on,,59,0,12,,,,,,,,,,,,,,,,15,,72,0
6359,note_on,,59,0,8,,,,,,,,,,,,,,,,10,,62,0
6359,note_on,,0,0,12,,,,,,,,,,,,,,,,15,,46,0
6360,note_on,,1,0,11,,,,,,,,,,,,,,,,13,,45,48
6360,note_on,,1,0,12,,,,,,,,,,,,,,,,15,,45,48
6360,note_on,,0,0,12,,,,,,,,,,,,,,,,15,,65,48
6360,note_on,,0,0,12,,,,,,,,,,,,,,,,15,,60,48
6360,note_on,,1,0,8,,,,,,,,,,,,,,,,10,,60,48
6360,note_on,,1,0,10,,,,,,,,,,,,,,,,12,,65,48
6479,note_on,,0,0,12,,,,,,,,,,,,,,,,15,,60,0
6479,note_on,,299,0,9,,,,,,,,,,,,,,,,11,,60,0
6479,note_on,,119,0,11,,,,,,,,,,,,,,,,13,,45,0
6479,note_on,,119,0,8,,,,,,,,,,,,,,,,10,,60,0
6479,note_on,,0,0,12,,,,,,,,,,,,,,,,15,,65,0
6479,note_on,,119,0,12,,,,,,,,,,,,,,,,15,,45,0
6479,note_on,,119,0,10,,,,,,,,,,,,,,,,12,,65,0
6480,note_on,,0,0,12,,,,,,,,,,,,,,,,15,,67,48
6480,note_on,,1,0,12,,,,,,,,,,,,,,,,15,,43,48
6480,note_on,,0,0,12,,,,,,,,,,,,,,,,15,,58,48
6480,note_on,,0,0,12,,,,,,,,,,,,,,,,15,,64,48
6480,note_on,,1,0,11,,,,,,,,,,,,,,,,13,,43,48
6480,note_on,,1,0,8,,,,,,,,,,,,,,,,10,,72,48
6480,note_on,,1,0,9,,,,,,,,,,,,,,,,11,,58,48
6480,note_on,,1,0,10,,,,,,,,,,,,,,,,12,,64,48
6539,note_on,,59,0,10,,,,,,,,,,,,,,,,12,,64,0
6539,note_on,,59,0,9,,,,,,,,,,,,,,,,11,,58,0
6539,note_on,,59,0,11,,,,,,,,,,,,,,,,13,,43,0
6539,note_on,,59,0,12,,,,,,,,,,,,,,,,15,,43,0
6539,note_on,,0,0,12,,,,,,,,,,,,,,,,15,,67,0
6539,note_on,,0,0,12,,,,,,,,,,,,,,,,15,,64,0
6539,note_on,,0,0,12,,,,,,,,,,,,,,,,15,,58,0
6539,note_on,,359,0,7,,,,,,,,,,,,,,,,6,,60,0
6539,note_on,,59,0,8,,,,,,,,,,,,,,,,10,,72,0
6540,note_on,,1,0,8,,,,,,,,,,,,,,,,10,,72,48
6540,note_on,,1,0,9,,,,,,,,,,,,,,,,11,,57,48
6540,note_on,,1,0,11,,,,,,,,,,,,,,,,13,,41,48
6540,note_on,,0,0,12,,,,,,,,,,,,,,,,15,,65,48
6540,note_on,,0,0,12,,,,,,,,,,,,,,,,15,,69,48
6540,note_on,,1,0,12,,,,,,,,,,,,,,,,15,,41,48
6540,note_on,,1,0,10,,,,,,,,,,,,,,,,12,,65,48
6540,note_on,,0,0,12,,,,,,,,,,,,,,,,15,,60,48
6659,note_on,,119,0,9,,,,,,,,,,,,,,,,11,,57,0
6659,note_on,,119,0,8,,,,,,,,,,,,,,,,10,,72,0
6660,note_on,,1,0,9,,,,,,,,,,,,,,,,11,,62,48
6660,note_on,,1,0,8,,,,,,,,,,,,,,,,10,,70,48
6719,note_on,,59,0,9,,,,,,,,,,,,,,,,11,,62,0
6719,note_on,,59,0,8,,,,,,,,,,,,,,,,10,,70,0
6719,note_on,,179,0,10,,,,,,,,,,,,,,,,12,,65,0
6720,note_on,,1,0,10,,,,,,,,,,,,,,,,12,,53,48
6720,note_on,,1,0,8,,,,,,,,,,,,,,,,10,,69,48
6720,note_on,,1,0,9,,,,,,,,,,,,,,,,11,,60,48
6839,note_on,,119,0,8,,,,,,,,,,,,,,,,10,,69,0
6839,note_on,,119,0,9,,,,,,,,,,,,,,,,11,,60,0
6840,note_on,,1,0,9,,,,,,,,,,,,,,,,11,,58,48
6840,note_on,,1,0,8,,,,,,,,,,,,,,,,10,,67,48
6899,note_on,,59,0,9,,,,,,,,,,,,,,,,11,,58,0
6899,note_on,,59,0,8,,,,,,,,,,,,,,,,10,,67,0
6899,note_on,,359,0,12,,,,,,,,,,,,,,,,15,,69,0
6899,note_on,,0,0,12,,,,,,,,,,,,,,,,15,,65,0
6899,note_on,,0,0,12,,,,,,,,,,,,,,,,15,,60,0
6899,note_on,,179,0,10,,,,,,,,,,,,,,,,12,,53,0
6900,note_on,,1,0,8,,,,,,,,,,,,,,,,10,,65,48
6900,note_on,,1,0,12,,,,,,,,,,,,,,,,15,,72,48
6900,note_on,,0,0,12,,,,,,,,,,,,,,,,15,,69,48
6900,note_on,,0,0,12,,,,,,,,,,,,,,,,15,,65,48
6900,note_on,,1,0,9,,,,,,,,,,,,,,,,11,,57,48
6900,note_on,,1,0,10,,,,,,,,,,,,,,,,12,,65,48
7019,note_on,,119,0,9,,,,,,,,,,,,,,,,11,,57,0
7019,note_on,,119,0,10,,,,,,,,,,,,,,,,12,,65,0
7020,note_on,,1,0,10,,,,,,,,,,,,,,,,12,,62,48
7020,note_on,,1,0,9,,,,,,,,,,,,,,,,11,,58,48
7079,note_on,,59,0,9,,,,,,,,,,,,,,,,11,,58,0
7079,note_on,,59,0,10,,,,,,,,,,,,,,,,12,,62,0
7080,note_on,,1,0,10,,,,,,,,,,,,,,,,12,,60,48
7080,note_on,,1,0,9,,,,,,,,,,,,,,,,11,,57,48
7199,note_on,,119,0,10,,,,,,,,,,,,,,,,12,,60,0
7199,note_on,,299,0,8,,,,,,,,,,,,,,,,10,,65,0
7199,note_on,,299,0,12,,,,,,,,,,,,,,,,15,,69,0
7199,note_on,,0,0,12,,,,,,,,,,,,,,,,15,,65,0
7199,note_on,,119,0,9,,,,,,,,,,,,,,,,11,,57,0
7200,note_on,,1,0,12,,,,,,,,,,,,,,,,15,,67,48
7200,note_on,,1,0,10,,,,,,,,,,,,,,,,12,,58,48
7200,note_on,,0,0,12,,,,,,,,,,,,,,,,15,,64,48
7200,note_on,,1,0,9,,,,,,,,,,,,,,,,11,,72,48
7200,note_on,,1,0,8,,,,,,,,,,,,,,,,10,,64,48
7200,note_on,,661,0,7,,,,,,,,,,,,,,,,6,,72,64
7259,note_on,,0,0,12,,,,,,,,,,,,,,,,15,,64,0
7259,note_on,,59,0,7,,,,,,,,,,,,,,,,6,,72,0
7259,note_on,,59,0,8,,,,,,,,,,,,,,,,10,,64,0
7259,note_on,,59,0,9,,,,,,,,,,,,,,,,11,,72,0
7259,note_on,,59,0,10,,,,,,,,,,,,,,,,12,,58,0
7259,note_on,,59,0,12,,,,,,,,,,,,,,,,15,,72,0
7259,note_on,,0,0,12,,,,,,,,,,,,,,,,15,,67,0
7260,note_on,,1,0,12,,,,,,,,,,,,,,,,15,,69,48
7260,note_on,,1,0,8,,,,,,,,,,,,,,,,10,,65,48
7260,note_on,,0,0,12,,,,,,,,,,,,,,,,15,,65,48
7260,note_on,,0,0,12,,,,,,,,,,,,,,,,15,,60,48
7260,note_on,,1,0,10,,,,,,,,,,,,,,,,12,,57,48
7260,note_on,,1,0,9,,,,,,,,,,,,,,,,11,,72,48
7260,note_on,,1,0,7,,,,,,,,,,,,,,,,6,,72,64
7379,note_on,,119,0,10,,,,,,,,,,,,,,,,12,,57,0
7379,note_on,,119,0,9,,,,,,,,,,,,,,,,11,,72,0
7379,note_on,,119,0,8,,,,,,,,,,,,,,,,10,,65,0
7379,note_on,,119,0,7,,,,,,,,,,,,,,,,6,,72,0
7380,note_on,,1,0,9,,,,,,,,,,,,,,,,11,,70,48
7380,note_on,,1,0,10,,,,,,,,,,,,,,,,12,,53,48
7380,note_on,,1,0,7,,,,,,,,,,,,,,,,6,,70,64
7380,note_on,,1,0,8,,,,,,,,,,,,,,,,10,,62,48
7439,note_on,,59,0,7,,,,,,,,,,,,,,,,6,,70,0
7439,note_on,,59,0,10,,,,,,,,,,,,,,,,12,,53,0
7439,note_on,,59,0,9,,,,,,,,,,,,,,,,11,,70,0
7439,note_on,,59,0,8,,,,,,,,,,,,,,,,10,,62,0
7440,note_on,,1,0,7,,,,,,,,,,,,,,,,6,,69,64
7440,note_on,,1,0,10,,,,,,,,,,,,,,,,12,,65,48
7440,note_on,,1,0,9,,,,,,,,,,,,,,,,11,,69,48
7440,note_on,,1,0,8,,,,,,,,,,,,,,,,10,,60,48
7559,note_on,,119,0,9,,,,,,,,,,,,,,,,11,,69,0
7559,note_on,,119,0,7,,,,,,,,,,,,,,,,6,,69,0
7559,note_on,,119,0,10,,,,,,,,,,,,,,,,12,,65,0
7559,note_on,,119,0,8,,,,,,,,,,,,,,,,10,,60,0
7560,note_on,,1,0,7,,,,,,,,,,,,,,,,6,,67,64
7560,note_on,,1,0,10,,,,,,,,,,,,,,,,12,,64,48
7560,note_on,,1,0,9,,,,,,,,,,,,,,,,11,,67,48
7560,note_on,,1,0,8,,,,,,,,,,,,,,,,10,,58,48
7619,note_on,,59,0,8,,,,,,,,,,,,,,,,10,,58,0
7619,note_on,,59,0,10,,,,,,,,,,,,,,,,12,,64,0
7619,note_on,,0,0,12,,,,,,,,,,,,,,,,15,,60,0
7619,note_on,,0,0,12,,,,,,,,,,,,,,,,15,,65,0
7619,note_on,,359,0,12,,,,,,,,,,,,,,,,15,,69,0
7619,note_on,,59,0,9,,,,,,,,,,,,,,,,11,,67,0
7619,note_on,,59,0,7,,,,,,,,,,,,,,,,6,,67,0
7620,note_on,,1,0,9,,,,,,,,,,,,,,,,11,,65,48
7620,note_on,,0,0,12,,,,,,,,,,,,,,,,15,,53,48
7620,note_on,,0,0,12,,,,,,,,,,,,,,,,15,,57,48
7620,note_on,,1,0,12,,,,,,,,,,,,,,,,15,,60,48
7620,note_on,,1,0,10,,,,,,,,,,,,,,,,12,,65,48
7620,note_on,,1,0,8,,,,,,,,,,,,,,,,10,,57,48
7620,note_on,,1,0,7,,,,,,,,,,,,,,,,6,,65,64
7739,note_on,,119,0,8,,,,,,,,,,,,,,,,10,,57,0
7739,note_on,,119,0,10,,,,,,,,,,,,,,,,12,,65,0
7740,note_on,,1,0,10,,,,,,,,,,,,,,,,12,,62,48
7740,note_on,,1,0,8,,,,,,,,,,,,,,,,10,,58,48
7799,note_on,,179,0,7,,,,,,,,,,,,,,,,6,,65,0
7799,note_on,,59,0,10,,,,,,,,,,,,,,,,12,,62,0
7799,note_on,,179,0,9,,,,,,,,,,,,,,,,11,,65,0
7799,note_on,,59,0,8,,,,,,,,,,,,,,,,10,,58,0
7800,note_on,,1,0,10,,,,,,,,,,,,,,,,12,,57,48
7800,note_on,,1,0,8,,,,,,,,,,,,,,,,10,,57,48
7800,note_on,,1,0,9,,,,,,,,,,,,,,,,11,,60,48
7800,note_on,,1,0,7,,,,,,,,,,,,,,,,6,,60,64
7919,note_on,,119,0,9,,,,,,,,,,,,,,,,11,,60,0
7919,note_on,,119,0,10,,,,,,,,,,,,,,,,12,,57,0
7919,note_on,,119,0,7,,,,,,,,,,,,,,,,6,,60,0
7919,note_on,,119,0,8,,,,,,,,,,,,,,,,10,,57,0
7920,note_on,,1,0,9,,,,,,,,,,,,,,,,11,,64,48
7920,note_on,,1,0,7,,,,,,,,,,,,,,,,6,,64,64
7920,note_on,,1,0,10,,,,,,,,,,,,,,,,12,,58,48
7920,note_on,,1,0,8,,,,,,,,,,,,,,,,10,,55,48
7979,note_on,,59,0,7,,,,,,,,,,,,,,,,6,,64,0
7979,note_on,,59,0,8,,,,,,,,,,,,,,,,10,,55,0
7979,note_on,,359,0,12,,,,,,,,,,,,,,,,15,,60,0
7979,note_on,,0,0,12,,,,,,,,,,,,,,,,15,,57,0
7979,note_on,,0,0,12,,,,,,,,,,,,,,,,15,,53,0
7979,note_on,,59,0,9,,,,,,,,,,,,,,,,11,,64,0
7979,note_on,,59,0,10,,,,,,,,,,,,,,,,12,,58,0
7980,note_on,,1,0,9,,,,,,,,,,,,,,,,11,,65,48
7980,note_on,,1,0,8,,,,,,,,,,,,,,,,10,,57,48
7980,note_on,,1,0,10,,,,,,,,,,,,,,,,12,,60,48
7980,note_on,,1,0,12,,,,,,,,,,,,,,,,15,,69,48
7980,note_on,,0,0,12,,,,,,,,,,,,,,,,15,,65,48
7980,note_on,,1,0,7,,,,,,,,,,,,,,,,6,,65,64
7980,note_on,,0,0,12,,,,,,,,,,,,,,,,15,,60,48
8099,note_on,,119,0,9,,,,,,,,,,,,,,,,11,,65,0
8099,note_on,,119,0,7,,,,,,,,,,,,,,,,6,,65,0
8099,note_on,,119,0,10,,,,,,,,,,,,,,,,12,,60,0
8099,note_on,,119,0,8,,,,,,,,,,,,,,,,10,,57,0
8100,note_on,,1,0,7,,,,,,,,,,,,,,,,6,,67,64
8100,note_on,,1,0,9,,,,,,,,,,,,,,,,11,,67,48
8100,note_on,,1,0,10,,,,,,,,,,,,,,,,12,,64,48
8100,note_on,,1,0,8,,,,,,,,,,,,,,,,10,,60,48
8159,note_on,,0,0,12,,,,,,,,,,,,,,,,15,,65,0
8159,note_on,,59,0,7,,,,,,,,,,,,,,,,6,,67,0
8159,note_on,,179,0,12,,,,,,,,,,,,,,,,15,,69,0
8159,note_on,,59,0,10,,,,,,,,,,,,,,,,12,,64,0
8159,note_on,,0,0,12,,,,,,,,,,,,,,,,15,,60,0
8159,note_on,,59,0,9,,,,,,,,,,,,,,,,11,,67,0
8159,note_on,,59,0,8,,,,,,,,,,,,,,,,10,,60,0
8160,note_on,,0,0,12,,,,,,,,,,,,,,,,15,,69,48
8160,note_on,,0,0,12,,,,,,,,,,,,,,,,15,,72,48
8160,note_on,,1,0,12,,,,,,,,,,,,,,,,15,,77,48
8160,note_on,,1,0,8,,,,,,,,,,,,,,,,10,,65,48
8160,note_on,,1,0,9,,,,,,,,,,,,,,,,11,,69,48
8160,note_on,,1,0,10,,,,,,,,,,,,,,,,12,,60,48
8160,note_on,,1,0,7,,,,,,,,,,,,,,,,6,,69,64
8249,note_on,,89,0,9,,,,,,,,,,,,,,,,11,,69,0
8249,note_on,,89,0,7,,,,,,,,,,,,,,,,6,,69,0
8249,note_on,,89,0,8,,,,,,,,,,,,,,,,10,,65,0
8250,note_on,,1,0,8,,,,,,,,,,,,,,,,10,,67,48
8250,note_on,,1,0,9,,,,,,,,,,,,,,,,11,,70,48
8250,note_on,,1,0,7,,,,,,,,,,,,,,,,6,,70,64
8279,note_on,,29,0,9,,,,,,,,,,,,,,,,11,,70,0
8279,note_on,,119,0,10,,,,,,,,,,,,,,,,12,,60,0
8279,note_on,,29,0,7,,,,,,,,,,,,,,,,6,,70,0
8279,note_on,,29,0,8,,,,,,,,,,,,,,,,10,,67,0
8279,note_on,,1739,0,11,,,,,,,,,,,,,,,,13,,41,0
8279,note_on,,119,0,12,,,,,,,,,,,,,,,,15,,41,0
8280,note_on,,1,0,9,,,,,,,,,,,,,,,,11,,72,48
8280,note_on,,1,0,8,,,,,,,,,,,,,,,,10,,69,48
8280,note_on,,1,0,7,,,,,,,,,,,,,,,,6,,72,64
8280,note_on,,1,0,11,,,,,,,,,,,,,,,,13,,53,48
8280,note_on,,1,0,12,,,,,,,,,,,,,,,,15,,53,48
8280,note_on,,1,0,10,,,,,,,,,,,,,,,,12,,65,48
8339,note_on,,0,0,12,,,,,,,,,,,,,,,,15,,53,0
8339,note_on,,59,0,8,,,,,,,,,,,,,,,,10,,69,0
8339,note_on,,59,0,7,,,,,,,,,,,,,,,,6,,72,0
8339,note_on,,59,0,9,,,,,,,,,,,,,,,,11,,72,0
8339,note_on,,0,0,12,,,,,,,,,,,,,,,,15,,69,0
8339,note_on,,0,0,12,,,,,,,,,,,,,,,,15,,72,0
8339,note_on,,59,0,12,,,,,,,,,,,,,,,,15,,77,0
8339,note_on,,59,0,11,,,,,,,,,,,,,,,,13,,53,0
8339,note_on,,59,0,10,,,,,,,,,,,,,,,,12,,65,0
8340,note_on,,1,0,10,,,,,,,,,,,,,,,,12,,60,48
8340,note_on,,1,0,11,,,,,,,,,,,,,,,,13,,52,48
8340,note_on,,0,0,12,,,,,,,,,,,,,,,,15,,60,48
8340,note_on,,0,0,12,,,,,,,,,,,,,,,,15,,72,48
8340,note_on,,0,0,12,,,,,,,,,,,,,,,,15,,67,48
8340,note_on,,1,0,8,,,,,,,,,,,,,,,,10,,67,48
8340,note_on,,1,0,9,,,,,,,,,,,,,,,,11,,60,48
8340,note_on,,1,0,12,,,,,,,,,,,,,,,,15,,52,48
8340,note_on,,1,0,7,,,,,,,,,,,,,,,,6,,60,64
8459,note_on,,119,0,12,,,,,,,,,,,,,,,,15,,52,0
8459,note_on,,0,0,12,,,,,,,,,,,,,,,,15,,67,0
8459,note_on,,119,0,8,,,,,,,,,,,,,,,,10,,67,0
8459,note_on,,119,0,11,,,,,,,,,,,,,,,,13,,52,0
8460,note_on,,1,0,8,,,,,,,,,,,,,,,,10,,65,48
8460,note_on,,1,0,12,,,,,,,,,,,,,,,,15,,50,48
8460,note_on,,0,0,12,,,,,,,,,,,,,,,,15,,65,48
8460,note_on,,1,0,11,,,,,,,,,,,,,,,,13,,50,48
8519,note_on,,59,0,11,,,,,,,,,,,,,,,,13,,50,0
8519,note_on,,59,0,12,,,,,,,,,,,,,,,,15,,72,0
8519,note_on,,59,0,8,,,,,,,,,,,,,,,,10,,65,0
8519,note_on,,0,0,12,,,,,,,,,,,,,,,,15,,65,0
8519,note_on,,0,0,12,,,,,,,,,,,,,,,,15,,50,0
8519,note_on,,0,0,12,,,,,,,,,,,,,,,,15,,60,0
8519,note_on,,179,0,10,,,,,,,,,,,,,,,,12,,60,0
8519,note_on,,179,0,7,,,,,,,,,,,,,,,,6,,60,0
8520,note_on,,1,0,11,,,,,,,,,,,,,,,,13,,48,48
8520,note_on,,0,0,12,,,,,,,,,,,,,,,,15,,64,48
8520,note_on,,1,0,12,,,,,,,,,,,,,,,,15,,48,48
8520,note_on,,0,0,12,,,,,,,,,,,,,,,,15,,67,48
8520,note_on,,0,0,12,,,,,,,,,,,,,,,,15,,60,48
8520,note_on,,1,0,10,,,,,,,,,,,,,,,,12,,67,48
8520,note_on,,1,0,8,,,,,,,,,,,,,,,,10,,64,48
8639,note_on,,119,0,12,,,,,,,,,,,,,,,,15,,48,0
8639,note_on,,299,0,9,,,,,,,,,,,,,,,,11,,60,0
8639,note_on,,119,0,10,,,,,,,,,,,,,,,,12,,67,0
8639,note_on,,119,0,11,,,,,,,,,,,,,,,,13,,48,0
8639,note_on,,119,0,8,,,,,,,,,,,,,,,,10,,64,0
8640,note_on,,1,0,10,,,,,,,,,,,,,,,,12,,64,48
8640,note_on,,1,0,12,,,,,,,,,,,,,,,,15,,46,48
8640,note_on,,1,0,8,,,,,,,,,,,,,,,,10,,67,48
8640,note_on,,1,0,9,,,,,,,,,,,,,,,,11,,72,48
8640,note_on,,121,0,7,,,,,,,,,,,,,,,,6,,72,64
8640,note_on,,1,0,11,,,,,,,,,,,,,,,,13,,46,48
8699,note_on,,0,0,12,,,,,,,,,,,,,,,,15,,60,0
8699,note_on,,0,0,12,,,,,,,,,,,,,,,,15,,64,0
8699,note_on,,59,0,9,,,,,,,,,,,,,,,,11,,72,0
8699,note_on,,59,0,10,,,,,,,,,,,,,,,,12,,64,0
8699,note_on,,59,0,7,,,,,,,,,,,,,,,,6,,72,0
8699,note_on,,59,0,12,,,,,,,,,,,,,,,,15,,67,0
8699,note_on,,59,0,8,,,,,,,,,,,,,,,,10,,67,0
8699,note_on,,0,0,12,,,,,,,,,,,,,,,,15,,46,0
8699,note_on,,59,0,11,,,,,,,,,,,,,,,,13,,46,0
8700,note_on,,1,0,7,,,,,,,,,,,,,,,,6,,72,64
8700,note_on,,1,0,9,,,,,,,,,,,,,,,,11,,72,48
8700,note_on,,0,0,12,,,,,,,,,,,,,,,,15,,65,48
8700,note_on,,0,0,12,,,,,,,,,,,,,,,,15,,69,48
8700,note_on,,1,0,12,,,,,,,,,,,,,,,,15,,45,48
8700,note_on,,1,0,8,,,,,,,,,,,,,,,,10,,69,48
8700,note_on,,1,0,10,,,,,,,,,,,,,,,,12,,65,48
8700,note_on,,0,0,12,,,,,,,,,,,,,,,,15,,60,48
8700,note_on,,1,0,11,,,,,,,,,,,,,,,,13,,45,48
8819,note_on,,119,0,7,,,,,,,,,,,,,,,,6,,72,0
8819,note_on,,119,0,10,,,,,,,,,,,,,,,,12,,65,0
8819,note_on,,119,0,9,,,,,,,,,,,,,,,,11,,72,0
8819,note_on,,119,0,8,,,,,,,,,,,,,,,,10,,69,0
8820,note_on,,1,0,10,,,,,,,,,,,,,,,,12,,64,48
8820,note_on,,1,0,8,,,,,,,,,,,,,,,,10,,67,48
8820,note_on,,1,0,9,,,,,,,,,,,,,,,,11,,70,48
8820,note_on,,1,0,7,,,,,,,,,,,,,,,,6,,70,64
8879,note_on,,0,0,12,,,,,,,,,,,,,,,,15,,60,0
8879,note_on,,59,0,8,,,,,,,,,,,,,,,,10,,67,0
8879,note_on,,179,0,12,,,,,,,,,,,,,,,,15,,45,0
8879,note_on,,0,0,12,,,,,,,,,,,,,,,,15,,69,0
8879,note_on,,0,0,12,,,,,,,,,,,,,,,,15,,65,0
8879,note_on,,179,0,11,,,,,,,,,,,,,,,,13,,45,0
8879,note_on,,59,0,10,,,,,,,,,,,,,,,,12,,64,0
8879,note_on,,59,0,7,,,,,,,,,,,,,,,,6,,70,0
8879,note_on,,59,0,9,,,,,,,,,,,,,,,,11,,70,0
8880,note_on,,0,0,12,,,,,,,,,,,,,,,,15,,57,48
8880,note_on,,1,0,8,,,,,,,,,,,,,,,,10,,65,48
8880,note_on,,1,0,10,,,,,,,,,,,,,,,,12,,60,48
8880,note_on,,0,0,12,,,,,,,,,,,,,,,,15,,60,48
8880,note_on,,1,0,11,,,,,,,,,,,,,,,,13,,48,48
8880,note_on,,1,0,9,,,,,,,,,,,,,,,,11,,69,48
8880,note_on,,0,0,12,,,,,,,,,,,,,,,,15,,65,48
8880,note_on,,1,0,12,,,,,,,,,,,,,,,,15,,48,48
8880,note_on,,1,0,7,,,,,,,,,,,,,,,,6,,69,64
8999,note_on,,119,0,10,,,,,,,,,,,,,,,,12,,60,0
8999,note_on,,119,0,12,,,,,,,,,,,,,,,,15,,65,0
8999,note_on,,0,0,12,,,,,,,,,,,,,,,,15,,57,0
8999,note_on,,119,0,7,,,,,,,,,,,,,,,,6,,69,0
8999,note_on,,119,0,9,,,,,,,,,,,,,,,,11,,69,0
8999,note_on,,119,0,8,,,,,,,,,,,,,,,,10,,65,0
9000,note_on,,1,0,12,,,,,,,,,,,,,,,,15,,64,48
9000,note_on,,1,0,8,,,,,,,,,,,,,,,,10,,64,48
9000,note_on,,0,0,12,,,,,,,,,,,,,,,,15,,55,48
9000,note_on,,1,0,7,,,,,,,,,,,,,,,,6,,67,64
9000,note_on,,1,0,10,,,,,,,,,,,,,,,,12,,58,48
9000,note_on,,1,0,9,,,,,,,,,,,,,,,,11,,67,48
9059,note_on,,0,0,12,,,,,,,,,,,,,,,,15,,55,0
9059,note_on,,0,0,12,,,,,,,,,,,,,,,,15,,64,0
9059,note_on,,0,0,12,,,,,,,,,,,,,,,,15,,60,0
9059,note_on,,59,0,12,,,,,,,,,,,,,,,,15,,48,0
9059,note_on,,59,0,7,,,,,,,,,,,,,,,,6,,67,0
9059,note_on,,59,0,10,,,,,,,,,,,,,,,,12,,58,0
9059,note_on,,179,0,11,,,,,,,,,,,,,,,,13,,48,0
9059,note_on,,59,0,8,,,,,,,,,,,,,,,,10,,64,0
9059,note_on,,59,0,9,,,,,,,,,,,,,,,,11,,67,0
9060,note_on,,1,0,9,,,,,,,,,,,,,,,,11,,65,48
9060,note_on,,1,0,10,,,,,,,,,,,,,,,,12,,57,48
9060,note_on,,1,0,7,,,,,,,,,,,,,,,,6,,65,64
9060,note_on,,1,0,11,,,,,,,,,,,,,,,,13,,50,48
9060,note_on,,1,0,8,,,,,,,,,,,,,,,,10,,62,48
9060,note_on,,0,0,12,,,,,,,,,,,,,,,,15,,53,48
9060,note_on,,1,0,12,,,,,,,,,,,,,,,,15,,50,48
9060,note_on,,0,0,12,,,,,,,,,,,,,,,,15,,57,48
9060,note_on,,0,0,12,,,,,,,,,,,,,,,,15,,65,48
9179,note_on,,119,0,7,,,,,,,,,,,,,,,,6,,65,0
9179,note_on,,119,0,9,,,,,,,,,,,,,,,,11,,65,0
9179,note_on,,0,0,12,,,,,,,,,,,,,,,,15,,57,0
9179,note_on,,119,0,12,,,,,,,,,,,,,,,,15,,50,0
9179,note_on,,119,0,11,,,,,,,,,,,,,,,,13,,50,0
9180,note_on,,1,0,7,,,,,,,,,,,,,,,,6,,64,64
9180,note_on,,1,0,11,,,,,,,,,,,,,,,,13,,48,48
9180,note_on,,1,0,9,,,,,,,,,,,,,,,,11,,64,48
9180,note_on,,1,0,12,,,,,,,,,,,,,,,,15,,48,48
9180,note_on,,0,0,12,,,,,,,,,,,,,,,,15,,64,48
9239,note_on,,59,0,11,,,,,,,,,,,,,,,,13,,48,0
9239,note_on,,59,0,9,,,,,,,,,,,,,,,,11,,64,0
9239,note_on,,59,0,12,,,,,,,,,,,,,,,,15,,53,0
9239,note_on,,0,0,12,,,,,,,,,,,,,,,,15,,65,0
9239,note_on,,0,0,12,,,,,,,,,,,,,,,,15,,48,0
9239,note_on,,0,0,12,,,,,,,,,,,,,,,,15,,64,0
9239,note_on,,59,0,7,,,,,,,,,,,,,,,,6,,64,0
9239,note_on,,179,0,10,,,,,,,,,,,,,,,,12,,57,0
9240,note_on,,1,0,10,,,,,,,,,,,,,,,,12,,55,48
9240,note_on,,1,0,11,,,,,,,,,,,,,,,,13,,47,48
9240,note_on,,1,0,9,,,,,,,,,,,,,,,,11,,65,48
9240,note_on,,1,0,12,,,,,,,,,,,,,,,,15,,47,48
9240,note_on,,0,0,12,,,,,,,,,,,,,,,,15,,55,48
9240,note_on,,0,0,12,,,,,,,,,,,,,,,,15,,62,48
9240,note_on,,0,0,12,,,,,,,,,,,,,,,,15,,74,48
9240,note_on,,1,0,7,,,,,,,,,,,,,,,,6,,65,64
9359,note_on,,119,0,9,,,,,,,,,,,,,,,,11,,65,0
9359,note_on,,119,0,7,,,,,,,,,,,,,,,,6,,65,0
9359,note_on,,299,0,8,,,,,,,,,,,,,,,,10,,62,0
9359,note_on,,119,0,10,,,,,,,,,,,,,,,,12,,55,0
9359,note_on,,119,0,11,,,,,,,,,,,,,,,,13,,47,0
9359,note_on,,119,0,12,,,,,,,,,,,,,,,,15,,47,0
9359,note_on,,0,0,12,,,,,,,,,,,,,,,,15,,74,0
9360,note_on,,1,0,8,,,,,,,,,,,,,,,,10,,60,48
9360,note_on,,1,0,7,,,,,,,,,,,,,,,,6,,65,64
9360,note_on,,1,0,12,,,,,,,,,,,,,,,,15,,45,48
9360,note_on,,0,0,12,,,,,,,,,,,,,,,,15,,72,48
9360,note_on,,1,0,10,,,,,,,,,,,,,,,,12,,60,48
9360,note_on,,1,0,9,,,,,,,,,,,,,,,,11,,65,48
9360,note_on,,1,0,11,,,,,,,,,,,,,,,,13,,45,48
9419,note_on,,59,0,9,,,,,,,,,,,,,,,,11,,65,0
9419,note_on,,59,0,10,,,,,,,,,,,,,,,,12,,60,0
9419,note_on,,59,0,12,,,,,,,,,,,,,,,,15,,55,0
9419,note_on,,0,0,12,,,,,,,,,,,,,,,,15,,72,0
9419,note_on,,0,0,12,,,,,,,,,,,,,,,,15,,45,0
9419,note_on,,0,0,12,,,,,,,,,,,,,,,,15,,62,0
9419,note_on,,59,0,8,,,,,,,,,,,,,,,,10,,60,0
9419,note_on,,59,0,11,,,,,,,,,,,,,,,,13,,45,0
9419,note_on,,59,0,7,,,,,,,,,,,,,,,,6,,65,0
9420,note_on,,0,0,12,,,,,,,,,,,,,,,,15,,71,48
9420,note_on,,1,0,12,,,,,,,,,,,,,,,,15,,43,48
9420,note_on,,1,0,9,,,,,,,,,,,,,,,,11,,74,48
9420,note_on,,1,0,11,,,,,,,,,,,,,,,,13,,43,48
9420,note_on,,0,0,12,,,,,,,,,,,,,,,,15,,67,48
9420,note_on,,0,0,12,,,,,,,,,,,,,,,,15,,62,48
9420,note_on,,1,0,8,,,,,,,,,,,,,,,,10,,59,48
9420,note_on,,1,0,7,,,,,,,,,,,,,,,,6,,74,64
9420,note_on,,1,0,10,,,,,,,,,,,,,,,,12,,62,48
9539,note_on,,119,0,7,,,,,,,,,,,,,,,,6,,74,0
9539,note_on,,119,0,8,,,,,,,,,,,,,,,,10,,59,0
9539,note_on,,119,0,10,,,,,,,,,,,,,,,,12,,62,0
9539,note_on,,119,0,9,,,,,,,,,,,,,,,,11,,74,0
9540,note_on,,1,0,7,,,,,,,,,,,,,,,,6,,72,64
9540,note_on,,1,0,8,,,,,,,,,,,,,,,,10,,60,48
9540,note_on,,1,0,10,,,,,,,,,,,,,,,,12,,57,48
9540,note_on,,1,0,9,,,,,,,,,,,,,,,,11,,72,48
9599,note_on,,59,0,8,,,,,,,,,,,,,,,,10,,60,0
9599,note_on,,59,0,10,,,,,,,,,,,,,,,,12,,57,0
9599,note_on,,59,0,7,,,,,,,,,,,,,,,,6,,72,0
9599,note_on,,59,0,9,,,,,,,,,,,,,,,,11,,72,0
9600,note_on,,1,0,10,,,,,,,,,,,,,,,,12,,59,48
9600,note_on,,1,0,9,,,,,,,,,,,,,,,,11,,71,48
9600,note_on,,1,0,7,,,,,,,,,,,,,,,,6,,71,64
9600,note_on,,1,0,8,,,,,,,,,,,,,,,,10,,62,48
9659,note_on,,59,0,9,,,,,,,,,,,,,,,,11,,71,0
9659,note_on,,59,0,7,,,,,,,,,,,,,,,,6,,71,0
9660,note_on,,1,0,9,,,,,,,,,,,,,,,,11,,69,48
9660,note_on,,1,0,7,,,,,,,,,,,,,,,,6,,69,64
9719,note_on,,59,0,9,,,,,,,,,,,,,,,,11,,69,0
9719,note_on,,59,0,7,,,,,,,,,,,,,,,,6,,69,0
9719,note_on,,119,0,8,,,,,,,,,,,,,,,,10,,62,0
9719,note_on,,119,0,10,,,,,,,,,,,,,,,,12,,59,0
9720,note_on,,1,0,7,,,,,,,,,,,,,,,,6,,67,64
9720,note_on,,1,0,10,,,,,,,,,,,,,,,,12,,60,48
9720,note_on,,1,0,8,,,,,,,,,,,,,,,,10,,64,48
9720,note_on,,1,0,9,,,,,,,,,,,,,,,,11,,67,48
9779,note_on,,59,0,9,,,,,,,,,,,,,,,,11,,67,0
9779,note_on,,59,0,8,,,,,,,,,,,,,,,,10,,64,0
9779,note_on,,59,0,10,,,,,,,,,,,,,,,,12,,60,0
9779,note_on,,59,0,7,,,,,,,,,,,,,,,,6,,67,0
9779,note_on,,0,0,12,,,,,,,,,,,,,,,,15,,62,0
9779,note_on,,0,0,12,,,,,,,,,,,,,,,,15,,67,0
9779,note_on,,359,0,12,,,,,,,,,,,,,,,,15,,71,0
9780,note_on,,1,0,10,,,,,,,,,,,,,,,,12,,59,48
9780,note_on,,0,0,12,,,,,,,,,,,,,,,,15,,71,48
9780,note_on,,1,0,7,,,,,,,,,,,,,,,,6,,65,64
9780,note_on,,1,0,9,,,,,,,,,,,,,,,,11,,65,48
9780,note_on,,1,0,8,,,,,,,,,,,,,,,,10,,62,48
9780,note_on,,0,0,12,,,,,,,,,,,,,,,,15,,67,48
9780,note_on,,0,0,12,,,,,,,,,,,,,,,,15,,62,48
9780,note_on,,1,0,12,,,,,,,,,,,,,,,,15,,74,48
9899,note_on,,119,0,8,,,,,,,,,,,,,,,,10,,62,0
9899,note_on,,119,0,12,,,,,,,,,,,,,,,,15,,43,0
9899,note_on,,0,0,12,,,,,,,,,,,,,,,,15,,62,0
9899,note_on,,479,0,11,,,,,,,,,,,,,,,,13,,43,0
9899,note_on,,119,0,10,,,,,,,,,,,,,,,,12,,59,0
9900,note_on,,1,0,12,,,,,,,,,,,,,,,,15,,45,48
9900,note_on,,0,0,12,,,,,,,,,,,,,,,,15,,60,48
9900,note_on,,1,0,11,,,,,,,,,,,,,,,,13,,45,48
9900,note_on,,1,0,8,,,,,,,,,,,,,,,,10,,60,48
9900,note_on,,1,0,10,,,,,,,,,,,,,,,,12,,60,48
9959,note_on,,59,0,11,,,,,,,,,,,,,,,,13,,45,0
9959,note_on,,59,0,10,,,,,,,,,,,,,,,,12,,60,0
9959,note_on,,59,0,8,,,,,,,,,,,,,,,,10,,60,0
9959,note_on,,0,0,12,,,,,,,,,,,,,,,,15,,60,0
9959,note_on,,59,0,12,,,,,,,,,,,,,,,,15,,45,0
9960,note_on,,1,0,10,,,,,,,,,,,,,,,,12,,55,48
9960,note_on,,0,0,12,,,,,,,,,,,,,,,,15,,62,48
9960,note_on,,1,0,11,,,,,,,,,,,,,,,,13,,47,48
9960,note_on,,1,0,12,,,,,,,,,,,,,,,,15,,47,48
9960,note_on,,1,0,8,,,,,,,,,,,,,,,,10,,62,48
10079,note_on,,0,0,12,,,,,,,,,,,,,,,,15,,71,0
10079,note_on,,0,0,12,,,,,,,,,,,,,,,,15,,67,0
10079,note_on,,119,0,12,,,,,,,,,,,,,,,,15,,74,0
10079,note_on,,119,0,8,,,,,,,,,,,,,,,,10,,62,0
10079,note_on,,119,0,11,,,,,,,,,,,,,,,,13,,47,0
10079,note_on,,0,0,12,,,,,,,,,,,,,,,,15,,47,0
10079,note_on,,119,0,10,,,,,,,,,,,,,,,,12,,55,0
10079,note_on,,0,0,12,,,,,,,,,,,,,,,,15,,62,0
10080,note_on,,0,0,12,,,,,,,,,,,,,,,,15,,67,48
10080,note_on,,0,0,12,,,,,,,,,,,,,,,,15,,62,48
10080,note_on,,1,0,8,,,,,,,,,,,,,,,,10,,59,48
10080,note_on,,0,0,12,,,,,,,,,,,,,,,,15,,71,48
10080,note_on,,1,0,12,,,,,,,,,,,,,,,,15,,43,48
10080,note_on,,1,0,11,,,,,,,,,,,,,,,,13,,43,48
10080,note_on,,1,0,10,,,,,,,,,,,,,,,,12,,55,48
10139,note_on,,359,0,9,,,,,,,,,,,,,,,,11,,65,0
10139,note_on,,0,0,12,,,,,,,,,,,,,,,,15,,62,0
10139,note_on,,0,0,12,,,,,,,,,,,,,,,,15,,67,0
10139,note_on,,0,0,12,,,,,,,,,,,,,,,,15,,71,0
10139,note_on,,59,0,12,,,,,,,,,,,,,,,,15,,43,0
10139,note_on,,59,0,11,,,,,,,,,,,,,,,,13,,43,0
10139,note_on,,59,0,8,,,,,,,,,,,,,,,,10,,59,0
10139,note_on,,359,0,7,,,,,,,,,,,,,,,,6,,65,0
10139,note_on,,59,0,10,,,,,,,,,,,,,,,,12,,55,0
10140,note_on,,1,0,10,,,,,,,,,,,,,,,,12,,55,48
10140,note_on,,1,0,11,,,,,,,,,,,,,,,,13,,48,48
10140,note_on,,1,0,12,,,,,,,,,,,,,,,,15,,48,48
10140,note_on,,0,0,12,,,,,,,,,,,,,,,,15,,67,48
10140,note_on,,0,0,12,,,,,,,,,,,,,,,,15,,60,48
10140,note_on,,0,0,12,,,,,,,,,,,,,,,,15,,64,48
10140,note_on,,1,0,7,,,,,,,,,,,,,,,,6,,64,64
10140,note_on,,1,0,9,,,,,,,,,,,,,,,,11,,64,48
10140,note_on,,1,0,8,,,,,,,,,,,,,,,,10,,67,48
10199,note_on,,59,0,9,,,,,,,,,,,,,,,,11,,64,0
10199,note_on,,0,0,12,,,,,,,,,,,,,,,,15,,64,0
10199,note_on,,59,0,12,,,,,,,,,,,,,,,,15,,48,0
10199,note_on,,59,0,7,,,,,,,,,,,,,,,,6,,64,0
10199,note_on,,59,0,11,,,,,,,,,,,,,,,,13,,48,0
10200,note_on,,1,0,11,,,,,,,,,,,,,,,,13,,47,48
10200,note_on,,1,0,9,,,,,,,,,,,,,,,,11,,62,48
10200,note_on,,1,0,7,,,,,,,,,,,,,,,,6,,62,64
10200,note_on,,1,0,12,,,,,,,,,,,,,,,,15,,47,48
10200,note_on,,0,0,12,,,,,,,,,,,,,,,,15,,62,48
10259,note_on,,119,0,8,,,,,,,,,,,,,,,,10,,67,0
10259,note_on,,59,0,9,,,,,,,,,,,,,,,,11,,62,0
10259,note_on,,119,0,10,,,,,,,,,,,,,,,,12,,55,0
10259,note_on,,0,0,12,,,,,,,,,,,,,,,,15,,62,0
10259,note_on,,0,0,12,,,,,,,,,,,,,,,,15,,47,0
10259,note_on,,0,0,12,,,,,,,,,,,,,,,,15,,60,0
10259,note_on,,59,0,11,,,,,,,,,,,,,,,,13,,47,0
10259,note_on,,59,0,12,,,,,,,,,,,,,,,,15,,67,0
10259,note_on,,59,0,7,,,,,,,,,,,,,,,,6,,62,0
10260,note_on,,1,0,11,,,,,,,,,,,,,,,,13,,45,48
10260,note_on,,1,0,8,,,,,,,,,,,,,,,,10,,72,48
10260,note_on,,1,0,10,,,,,,,,,,,,,,,,12,,53,48
10260,note_on,,1,0,9,,,,,,,,,,,,,,,,11,,65,48
10260,note_on,,0,0,12,,,,,,,,,,,,,,,,15,,69,48
10260,note_on,,1,0,7,,,,,,,,,,,,,,,,6,,65,64
10260,note_on,,0,0,12,,,,,,,,,,,,,,,,15,,60,48
10260,note_on,,1,0,12,,,,,,,,,,,,,,,,15,,45,48
10260,note_on,,0,0,12,,,,,,,,,,,,,,,,15,,65,48
10319,note_on,,59,0,12,,,,,,,,,,,,,,,,15,,45,0
10319,note_on,,59,0,9,,,,,,,,,,,,,,,,11,,65,0
10319,note_on,,0,0,12,,,,,,,,,,,,,,,,15,,69,0
10319,note_on,,59,0,7,,,,,,,,,,,,,,,,6,,65,0
10319,note_on,,59,0,8,,,,,,,,,,,,,,,,10,,72,0
10319,note_on,,59,0,10,,,,,,,,,,,,,,,,12,,53,0
10319,note_on,,0,0,12,,,,,,,,,,,,,,,,15,,60,0
10319,note_on,,59,0,11,,,,,,,,,,,,,,,,13,,45,0
10319,note_on,,0,0,12,,,,,,,,,,,,,,,,15,,65,0
10320,note_on,,1,0,9,,,,,,,,,,,,,,,,11,,64,48
10320,note_on,,1,0,10,,,,,,,,,,,,,,,,12,,55,48
10320,note_on,,1,0,11,,,,,,,,,,,,,,,,13,,43,48
10320,note_on,,1,0,12,,,,,,,,,,,,,,,,15,,43,48
10320,note_on,,0,0,12,,,,,,,,,,,,,,,,15,,64,48
10320,note_on,,0,0,12,,,,,,,,,,,,,,,,15,,67,48
10320,note_on,,1,0,7,,,,,,,,,,,,,,,,6,,64,64
10320,note_on,,0,0,12,,,,,,,,,,,,,,,,15,,72,48
10320,note_on,,1,0,8,,,,,,,,,,,,,,,,10,,60,48
10409,note_on,,89,0,8,,,,,,,,,,,,,,,,10,,60,0
10409,note_on,,89,0,7,,,,,,,,,,,,,,,,6,,64,0
10409,note_on,,89,0,9,,,,,,,,,,,,,,,,11,,64,0
10410,note_on,,1,0,8,,,,,,,,,,,,,,,,10,,62,48
10410,note_on,,1,0,7,,,,,,,,,,,,,,,,6,,65,64
10410,note_on,,1,0,9,,,,,,,,,,,,,,,,11,,65,48
10439,note_on,,0,0,12,,,,,,,,,,,,,,,,15,,72,0
10439,note_on,,29,0,8,,,,,,,,,,,,,,,,10,,62,0
10439,note_on,,0,0,12,,,,,,,,,,,,,,,,15,,64,0
10439,note_on,,119,0,11,,,,,,,,,,,,,,,,13,,43,0
10439,note_on,,29,0,7,,,,,,,,,,,,,,,,6,,65,0
10439,note_on,,119,0,10,,,,,,,,,,,,,,,,12,,55,0
10439,note_on,,0,0,12,,,,,,,,,,,,,,,,15,,67,0
10439,note_on,,119,0,12,,,,,,,,,,,,,,,,15,,43,0
10439,note_on,,29,0,9,,,,,,,,,,,,,,,,11,,65,0
10440,note_on,,1,0,7,,,,,,,,,,,,,,,,6,,62,64
10440,note_on,,1,0,11,,,,,,,,,,,,,,,,13,,43,48
10440,note_on,,1,0,10,,,,,,,,,,,,,,,,12,,55,48
10440,note_on,,1,0,8,,,,,,,,,,,,,,,,10,,59,48
10440,note_on,,1,0,9,,,,,,,,,,,,,,,,11,,62,48
10440,note_on,,1,0,12,,,,,,,,,,,,,,,,15,,43,48
10440,note_on,,0,0,12,,,,,,,,,,,,,,,,15,,62,48
10440,note_on,,0,0,12,,,,,,,,,,,,,,,,15,,67,48
10440,note_on,,0,0,12,,,,,,,,,,,,,,,,15,,71,48
10499,note_on,,0,0,12,,,,,,,,,,,,,,,,15,,71,0
10499,note_on,,0,0,12,,,,,,,,,,,,,,,,15,,67,0
10499,note_on,,0,0,12,,,,,,,,,,,,,,,,15,,62,0
10499,note_on,,59,0,7,,,,,,,,,,,,,,,,6,,62,0
10499,note_on,,59,0,10,,,,,,,,,,,,,,,,12,,55,0
10499,note_on,,59,0,11,,,,,,,,,,,,,,,,13,,43,0
10499,note_on,,59,0,8,,,,,,,,,,,,,,,,10,,59,0
10499,note_on,,59,0,12,,,,,,,,,,,,,,,,15,,43,0
10499,note_on,,59,0,9,,,,,,,,,,,,,,,,11,,62,0
10500,note_on,,1,0,12,,,,,,,,,,,,,,,,15,,36,48
10500,note_on,,0,0,12,,,,,,,,,,,,,,,,15,,72,48
10500,note_on,,0,0,12,,,,,,,,,,,,,,,,15,,67,48
10500,note_on,,0,0,12,,,,,,,,,,,,,,,,15,,64,48
10500,note_on,,1,0,10,,,,,,,,,,,,,,,,12,,55,48
10500,note_on,,1,0,7,,,,,,,,,,,,,,,,6,,60,64
10500,note_on,,1,0,11,,,,,,,,,,,,,,,,13,,36,48
10500,note_on,,1,0,8,,,,,,,,,,,,,,,,10,,64,48
10500,note_on,,1,0,9,,,,,,,,,,,,,,,,11,,60,48
10619,note_on,,119,0,8,,,,,,,,,,,,,,,,10,,64,0
10619,note_on,,119,0,10,,,,,,,,,,,,,,,,12,,55,0
10620,note_on,,1,0,10,,,,,,,,,,,,,,,,12,,53,48
10620,note_on,,1,0,8,,,,,,,,,,,,,,,,10,,62,48
10679,note_on,,59,0,8,,,,,,,,,,,,,,,,10,,62,0
10679,note_on,,59,0,10,,,,,,,,,,,,,,,,12,,53,0
10679,note_on,,179,0,9,,,,,,,,,,,,,,,,11,,60,0
10680,note_on,,1,0,9,,,,,,,,,,,,,,,,11,,55,48
10680,note_on,,1,0,8,,,,,,,,,,,,,,,,10,,60,48
10680,note_on,,1,0,10,,,,,,,,,,,,,,,,12,,52,48
10799,note_on,,119,0,10,,,,,,,,,,,,,,,,12,,52,0
10799,note_on,,119,0,8,,,,,,,,,,,,,,,,10,,60,0
10799,note_on,,119,0,9,,,,,,,,,,,,,,,,11,,55,0
10800,note_on,,1,0,8,,,,,,,,,,,,,,,,10,,72,48
10800,note_on,,1,0,10,,,,,,,,,,,,,,,,12,,57,48
10800,note_on,,1,0,9,,,,,,,,,,,,,,,,11,,64,48
10859,note_on,,359,0,11,,,,,,,,,,,,,,,,13,,36,0
10859,note_on,,59,0,9,,,,,,,,,,,,,,,,11,,64,0
10859,note_on,,0,0,12,,,,,,,,,,,,,,,,15,,64,0
10859,note_on,,0,0,12,,,,,,,,,,,,,,,,15,,67,0
10859,note_on,,0,0,12,,,,,,,,,,,,,,,,15,,72,0
10859,note_on,,359,0,12,,,,,,,,,,,,,,,,15,,36,0
10859,note_on,,59,0,10,,,,,,,,,,,,,,,,12,,57,0
10859,note_on,,359,0,7,,,,,,,,,,,,,,,,6,,60,0
10859,note_on,,59,0,8,,,,,,,,,,,,,,,,10,,72,0
10860,note_on,,1,0,10,,,,,,,,,,,,,,,,12,,54,48
10860,note_on,,1,0,11,,,,,,,,,,,,,,,,13,,38,48
10860,note_on,,1,0,9,,,,,,,,,,,,,,,,11,,69,48
10860,note_on,,1,0,12,,,,,,,,,,,,,,,,15,,38,48
10860,note_on,,0,0,12,,,,,,,,,,,,,,,,15,,72,48
10860,note_on,,0,0,12,,,,,,,,,,,,,,,,15,,69,48
10860,note_on,,0,0,12,,,,,,,,,,,,,,,,15,,66,48
10860,note_on,,0,0,12,,,,,,,,,,,,,,,,15,,62,48
10860,note_on,,1,0,8,,,,,,,,,,,,,,,,10,,72,48
10979,note_on,,119,0,10,,,,,,,,,,,,,,,,12,,54,0
10979,note_on,,119,0,9,,,,,,,,,,,,,,,,11,,69,0
10979,note_on,,119,0,8,,,,,,,,,,,,,,,,10,,72,0
10980,note_on,,1,0,8,,,,,,,,,,,,,,,,10,,70,48
10980,note_on,,1,0,10,,,,,,,,,,,,,,,,12,,55,48
10980,note_on,,1,0,9,,,,,,,,,,,,,,,,11,,67,48
11039,note_on,,59,0,8,,,,,,,,,,,,,,,,10,,70,0
11039,note_on,,59,0,9,,,,,,,,,,,,,,,,11,,67,0
11039,note_on,,59,0,10,,,,,,,,,,,,,,,,12,,55,0
11040,note_on,,1,0,10,,,,,,,,,,,,,,,,12,,57,48
11040,note_on,,1,0,8,,,,,,,,,,,,,,,,10,,69,48
11040,note_on,,1,0,9,,,,,,,,,,,,,,,,11,,66,48
11099,note_on,,59,0,10,,,,,,,,,,,,,,,,12,,57,0
11100,note_on,,1,0,10,,,,,,,,,,,,,,,,12,,58,48
11159,note_on,,59,0,10,,,,,,,,,,,,,,,,12,,58,0
11159,note_on,,119,0,9,,,,,,,,,,,,,,,,11,,66,0
11159,note_on,,119,0,8,,,,,,,,,,,,,,,,10,,69,0
11160,note_on,,1,0,8,,,,,,,,,,,,,,,,10,,67,48
11160,note_on,,1,0,10,,,,,,,,,,,,,,,,12,,60,48
11160,note_on,,1,0,9,,,,,,,,,,,,,,,,11,,64,48
11219,note_on,,59,0,8,,,,,,,,,,,,,,,,10,,67,0
11219,note_on,,59,0,10,,,,,,,,,,,,,,,,12,,60,0
11219,note_on,,59,0,9,,,,,,,,,,,,,,,,11,,64,0
11220,note_on,,1,0,9,,,,,,,,,,,,,,,,11,,62,48
11220,note_on,,1,0,8,,,,,,,,,,,,,,,,10,,66,48
11220,note_on,,1,0,10,,,,,,,,,,,,,,,,12,,57,48
11519,note_on,,299,0,9,,,,,,,,,,,,,,,,11,,62,0
11519,note_on,,299,0,10,,,,,,,,,,,,,,,,12,,57,0
11520,note_on,,661,0,7,,,,,,,,,,,,,,,,6,,72,64
11520,note_on,,1,0,10,,,,,,,,,,,,,,,,12,,57,48
11520,note_on,,1,0,9,,,,,,,,,,,,,,,,11,,72,48
11579,note_on,,0,0,12,,,,,,,,,,,,,,,,15,,66,0
11579,note_on,,0,0,12,,,,,,,,,,,,,,,,15,,69,0
11579,note_on,,0,0,12,,,,,,,,,,,,,,,,15,,62,0
11579,note_on,,59,0,7,,,,,,,,,,,,,,,,6,,72,0
11579,note_on,,59,0,10,,,,,,,,,,,,,,,,12,,57,0
11579,note_on,,719,0,12,,,,,,,,,,,,,,,,15,,72,0
11579,note_on,,59,0,9,,,,,,,,,,,,,,,,11,,72,0
11580,note_on,,1,0,12,,,,,,,,,,,,,,,,15,,66,48
11580,note_on,,0,0,12,,,,,,,,,,,,,,,,15,,57,48
11580,note_on,,1,0,7,,,,,,,,,,,,,,,,6,,72,64
11580,note_on,,1,0,10,,,,,,,,,,,,,,,,12,,57,48
11580,note_on,,0,0,12,,,,,,,,,,,,,,,,15,,62,48
11580,note_on,,1,0,9,,,,,,,,,,,,,,,,11,,72,48
11699,note_on,,119,0,9,,,,,,,,,,,,,,,,11,,72,0
11699,note_on,,119,0,7,,,,,,,,,,,,,,,,6,,72,0
11699,note_on,,119,0,10,,,,,,,,,,,,,,,,12,,57,0
11699,note_on,,479,0,8,,,,,,,,,,,,,,,,10,,66,0
11700,note_on,,1,0,10,,,,,,,,,,,,,,,,12,,58,48
11700,note_on,,1,0,8,,,,,,,,,,,,,,,,10,,62,48
11700,note_on,,1,0,7,,,,,,,,,,,,,,,,6,,70,64
11700,note_on,,1,0,9,,,,,,,,,,,,,,,,11,,70,48
11759,note_on,,59,0,10,,,,,,,,,,,,,,,,12,,58,0
11759,note_on,,0,0,12,,,,,,,,,,,,,,,,15,,57,0
11759,note_on,,59,0,9,,,,,,,,,,,,,,,,11,,70,0
11759,note_on,,59,0,7,,,,,,,,,,,,,,,,6,,70,0
11759,note_on,,179,0,12,,,,,,,,,,,,,,,,15,,66,0
11759,note_on,,59,0,8,,,,,,,,,,,,,,,,10,,62,0
11759,note_on,,0,0,12,,,,,,,,,,,,,,,,15,,62,0
11760,note_on,,1,0,7,,,,,,,,,,,,,,,,6,,69,64
11760,note_on,,0,0,12,,,,,,,,,,,,,,,,15,,62,48
11760,note_on,,0,0,12,,,,,,,,,,,,,,,,15,,65,48
11760,note_on,,1,0,8,,,,,,,,,,,,,,,,10,,60,48
11760,note_on,,1,0,10,,,,,,,,,,,,,,,,12,,54,48
11760,note_on,,1,0,9,,,,,,,,,,,,,,,,11,,69,48
11760,note_on,,1,0,12,,,,,,,,,,,,,,,,15,,69,48
11879,note_on,,119,0,10,,,,,,,,,,,,,,,,12,,54,0
11879,note_on,,119,0,8,,,,,,,,,,,,,,,,10,,60,0
11879,note_on,,119,0,7,,,,,,,,,,,,,,,,6,,69,0
11879,note_on,,119,0,9,,,,,,,,,,,,,,,,11,,69,0
11880,note_on,,1,0,8,,,,,,,,,,,,,,,,10,,58,48
11880,note_on,,1,0,7,,,,,,,,,,,,,,,,6,,67,64
11880,note_on,,1,0,9,,,,,,,,,,,,,,,,11,,67,48
11880,note_on,,1,0,10,,,,,,,,,,,,,,,,12,,62,48
11939,note_on,,59,0,8,,,,,,,,,,,,,,,,10,,58,0
11939,note_on,,59,0,7,,,,,,,,,,,,,,,,6,,67,0
11939,note_on,,0,0,12,,,,,,,,,,,,,,,,15,,62,0
11939,note_on,,0,0,12,,,,,,,,,,,,,,,,15,,65,0
11939,note_on,,179,0,12,,,,,,,,,,,,,,,,15,,69,0
11939,note_on,,59,0,9,,,,,,,,,,,,,,,,11,,67,0
11939,note_on,,59,0,10,,,,,,,,,,,,,,,,12,,62,0
11940,note_on,,1,0,8,,,,,,,,,,,,,,,,10,,57,48
11940,note_on,,0,0,12,,,,,,,,,,,,,,,,15,,69,48
11940,note_on,,1,0,12,,,,,,,,,,,,,,,,15,,74,48
11940,note_on,,0,0,12,,,,,,,,,,,,,,,,15,,65,48
11940,note_on,,1,0,10,,,,,,,,,,,,,,,,12,,62,48
11940,note_on,,1,0,9,,,,,,,,,,,,,,,,11,,66,48
11940,note_on,,1,0,7,,,,,,,,,,,,,,,,6,,66,64
12119,note_on,,179,0,7,,,,,,,,,,,,,,,,6,,66,0
12119,note_on,,0,0,12,,,,,,,,,,,,,,,,15,,69,0
12119,note_on,,0,0,12,,,,,,,,,,,,,,,,15,,65,0
12119,note_on,,179,0,9,,,,,,,,,,,,,,,,11,,66,0
12119,note_on,,179,0,12,,,,,,,,,,,,,,,,15,,74,0
12119,note_on,,179,0,8,,,,,,,,,,,,,,,,10,,57,0
12119,note_on,,179,0,10,,,,,,,,,,,,,,,,12,,62,0
12120,note_on,,0,0,12,,,,,,,,,,,,,,,,15,,62,48
12120,note_on,,1,0,12,,,,,,,,,,,,,,,,15,,70,48
12120,note_on,,1,0,10,,,,,,,,,,,,,,,,12,,62,48
12120,note_on,,1,0,7,,,,,,,,,,,,,,,,6,,67,64
12120,note_on,,1,0,9,,,,,,,,,,,,,,,,11,,67,48
12120,note_on,,1,0,8,,,,,,,,,,,,,,,,10,,67,48
12120,note_on,,0,0,12,,,,,,,,,,,,,,,,15,,67,48
12299,note_on,,0,0,12,,,,,,,,,,,,,,,,15,,67,0
12299,note_on,,179,0,10,,,,,,,,,,,,,,,,12,,62,0
12299,note_on,,179,0,7,,,,,,,,,,,,,,,,6,,67,0
12299,note_on,,0,0,12,,,,,,,,,,,,,,,,15,,62,0
12299,note_on,,179,0,12,,,,,,,,,,,,,,,,15,,70,0
12299,note_on,,179,0,8,,,,,,,,,,,,,,,,10,,67,0
12299,note_on,,179,0,9,,,,,,,,,,,,,,,,11,,67,0
12300,note_on,,1,0,10,,,,,,,,,,,,,,,,12,,60,48
12300,note_on,,1,0,8,,,,,,,,,,,,,,,,10,,66,48
12300,note_on,,0,0,12,,,,,,,,,,,,,,,,15,,60,48
12300,note_on,,0,0,12,,,,,,,,,,,,,,,,15,,69,48
12300,note_on,,1,0,12,,,,,,,,,,,,,,,,15,,66,48
12300,note_on,,1,0,9,,,,,,,,,,,,,,,,11,,69,48
12300,note_on,,1,0,7,,,,,,,,,,,,,,,,6,,69,64
12419,note_on,,119,0,9,,,,,,,,,,,,,,,,11,,69,0
12419,note_on,,119,0,7,,,,,,,,,,,,,,,,6,,69,0
12419,note_on,,119,0,8,,,,,,,,,,,,,,,,10,,66,0
12419,note_on,,119,0,10,,,,,,,,,,,,,,,,12,,60,0
12420,note_on,,1,0,7,,,,,,,,,,,,,,,,6,,70,64
12420,note_on,,1,0,8,,,,,,,,,,,,,,,,10,,67,48
12420,note_on,,1,0,9,,,,,,,,,,,,,,,,11,,70,48
12420,note_on,,1,0,10,,,,,,,,,,,,,,,,12,,58,48
12479,note_on,,59,0,7,,,,,,,,,,,,,,,,6,,70,0
12479,note_on,,179,0,12,,,,,,,,,,,,,,,,15,,66,0
12479,note_on,,0,0,12,,,,,,,,,,,,,,,,15,,69,0
12479,note_on,,0,0,12,,,,,,,,,,,,,,,,15,,60,0
12479,note_on,,59,0,10,,,,,,,,,,,,,,,,12,,58,0
12479,note_on,,59,0,8,,,,,,,,,,,,,,,,10,,67,0
12479,note_on,,59,0,9,,,,,,,,,,,,,,,,11,,70,0
12480,note_on,,0,0,12,,,,,,,,,,,,,,,,15,,62,48
12480,note_on,,0,0,12,,,,,,,,,,,,,,,,15,,58,48
12480,note_on,,1,0,12,,,,,,,,,,,,,,,,15,,67,48
12480,note_on,,1,0,8,,,,,,,,,,,,,,,,10,,67,48
12480,note_on,,1,0,9,,,,,,,,,,,,,,,,11,,70,48
12480,note_on,,1,0,10,,,,,,,,,,,,,,,,12,,62,48
12480,note_on,,1,0,7,,,,,,,,,,,,,,,,6,,70,64
12599,note_on,,0,0,12,,,,,,,,,,,,,,,,15,,58,0
12599,note_on,,119,0,12,,,,,,,,,,,,,,,,15,,67,0
12599,note_on,,119,0,7,,,,,,,,,,,,,,,,6,,70,0
12599,note_on,,119,0,9,,,,,,,,,,,,,,,,11,,70,0
12599,note_on,,119,0,8,,,,,,,,,,,,,,,,10,,67,0
12599,note_on,,119,0,10,,,,,,,,,,,,,,,,12,,62,0
12600,note_on,,0,0,12,,,,,,,,,,,,,,,,15,,57,48
12600,note_on,,1,0,12,,,,,,,,,,,,,,,,15,,65,48
12600,note_on,,1,0,9,,,,,,,,,,,,,,,,11,,69,48
12600,note_on,,1,0,8,,,,,,,,,,,,,,,,10,,66,48
12600,note_on,,1,0,7,,,,,,,,,,,,,,,,6,,69,64
12600,note_on,,1,0,10,,,,,,,,,,,,,,,,12,,60,48
12659,note_on,,59,0,9,,,,,,,,,,,,,,,,11,,69,0
12659,note_on,,0,0,12,,,,,,,,,,,,,,,,15,,57,0
12659,note_on,,59,0,8,,,,,,,,,,,,,,,,10,,66,0
12659,note_on,,1799,0,11,,,,,,,,,,,,,,,,13,,38,0
12659,note_on,,59,0,7,,,,,,,,,,,,,,,,6,,69,0
12659,note_on,,59,0,10,,,,,,,,,,,,,,,,12,,60,0
12659,note_on,,59,0,12,,,,,,,,,,,,,,,,15,,38,0
12659,note_on,,0,0,12,,,,,,,,,,,,,,,,15,,62,0
12659,note_on,,0,0,12,,,,,,,,,,,,,,,,15,,65,0
12660,note_on,,1,0,10,,,,,,,,,,,,,,,,12,,58,48
12660,note_on,,1,0,8,,,,,,,,,,,,,,,,10,,67,48
12660,note_on,,1,0,7,,,,,,,,,,,,,,,,6,,67,64
12660,note_on,,1,0,11,,,,,,,,,,,,,,,,13,,43,48
12660,note_on,,0,0,12,,,,,,,,,,,,,,,,15,,58,48
12660,note_on,,0,0,12,,,,,,,,,,,,,,,,15,,62,48
12660,note_on,,0,0,12,,,,,,,,,,,,,,,,15,,67,48
12660,note_on,,1,0,9,,,,,,,,,,,,,,,,11,,67,48
12660,note_on,,1,0,12,,,,,,,,,,,,,,,,15,,43,48
12779,note_on,,119,0,10,,,,,,,,,,,,,,,,12,,58,0
12779,note_on,,119,0,8,,,,,,,,,,,,,,,,10,,67,0
12780,note_on,,1,0,8,,,,,,,,,,,,,,,,10,,60,48
12780,note_on,,1,0,10,,,,,,,,,,,,,,,,12,,63,48
12839,note_on,,59,0,10,,,,,,,,,,,,,,,,12,,63,0
12839,note_on,,179,0,7,,,,,,,,,,,,,,,,6,,67,0
12839,note_on,,59,0,8,,,,,,,,,,,,,,,,10,,60,0
12840,note_on,,1,0,10,,,,,,,,,,,,,,,,12,,62,48
12840,note_on,,1,0,8,,,,,,,,,,,,,,,,10,,58,48
12959,note_on,,299,0,9,,,,,,,,,,,,,,,,11,,67,0
12959,note_on,,119,0,10,,,,,,,,,,,,,,,,12,,62,0
12959,note_on,,119,0,8,,,,,,,,,,,,,,,,10,,58,0
12960,note_on,,1,0,9,,,,,,,,,,,,,,,,11,,67,48
12960,note_on,,1,0,10,,,,,,,,,,,,,,,,12,,60,48
12960,note_on,,121,0,7,,,,,,,,,,,,,,,,6,,67,64
12960,note_on,,1,0,8,,,,,,,,,,,,,,,,10,,57,48
13019,note_on,,0,0,12,,,,,,,,,,,,,,,,15,,58,0
13019,note_on,,59,0,7,,,,,,,,,,,,,,,,6,,67,0
13019,note_on,,0,0,12,,,,,,,,,,,,,,,,15,,62,0
13019,note_on,,59,0,9,,,,,,,,,,,,,,,,11,,67,0
13019,note_on,,59,0,10,,,,,,,,,,,,,,,,12,,60,0
13019,note_on,,59,0,8,,,,,,,,,,,,,,,,10,,57,0
13019,note_on,,359,0,12,,,,,,,,,,,,,,,,15,,67,0
13020,note_on,,1,0,9,,,,,,,,,,,,,,,,11,,62,48
13020,note_on,,1,0,8,,,,,,,,,,,,,,,,10,,58,48
13020,note_on,,1,0,7,,,,,,,,,,,,,,,,6,,62,64
13020,note_on,,0,0,12,,,,,,,,,,,,,,,,15,,55,48
13020,note_on,,0,0,12,,,,,,,,,,,,,,,,15,,58,48
13020,note_on,,1,0,12,,,,,,,,,,,,,,,,15,,62,48
13020,note_on,,1,0,10,,,,,,,,,,,,,,,,12,,58,48
13139,note_on,,119,0,9,,,,,,,,,,,,,,,,11,,62,0
13139,note_on,,119,0,7,,,,,,,,,,,,,,,,6,,62,0
13139,note_on,,119,0,8,,,,,,,,,,,,,,,,10,,58,0
13140,note_on,,1,0,9,,,,,,,,,,,,,,,,11,,61,48
13140,note_on,,1,0,7,,,,,,,,,,,,,,,,6,,61,64
13140,note_on,,1,0,8,,,,,,,,,,,,,,,,10,,57,48
13199,note_on,,0,0,12,,,,,,,,,,,,,,,,15,,55,0
13199,note_on,,179,0,12,,,,,,,,,,,,,,,,15,,62,0
13199,note_on,,0,0,12,,,,,,,,,,,,,,,,15,,58,0
13199,note_on,,59,0,7,,,,,,,,,,,,,,,,6,,61,0
13199,note_on,,59,0,9,,,,,,,,,,,,,,,,11,,61,0
13199,note_on,,59,0,8,,,,,,,,,,,,,,,,10,,57,0
13200,note_on,,1,0,8,,,,,,,,,,,,,,,,10,,58,48
13200,note_on,,1,0,12,,,,,,,,,,,,,,,,15,,70,48
13200,note_on,,0,0,12,,,,,,,,,,,,,,,,15,,67,48
13200,note_on,,1,0,7,,,,,,,,,,,,,,,,6,,62,64
13200,note_on,,1,0,9,,,,,,,,,,,,,,,,11,,62,48
13200,note_on,,0,0,12,,,,,,,,,,,,,,,,15,,62,48
13319,note_on,,299,0,10,,,,,,,,,,,,,,,,12,,58,0
13319,note_on,,119,0,12,,,,,,,,,,,,,,,,15,,43,0
13319,note_on,,659,0,11,,,,,,,,,,,,,,,,13,,43,0
13319,note_on,,119,0,9,,,,,,,,,,,,,,,,11,,62,0
13319,note_on,,119,0,7,,,,,,,,,,,,,,,,6,,62,0
13319,note_on,,119,0,8,,,,,,,,,,,,,,,,10,,58,0
13320,note_on,,1,0,7,,,,,,,,,,,,,,,,6,,64,64
13320,note_on,,1,0,8,,,,,,,,,,,,,,,,10,,58,48
13320,note_on,,1,0,9,,,,,,,,,,,,,,,,11,,64,48
13320,note_on,,1,0,12,,,,,,,,,,,,,,,,15,,43,48
13320,note_on,,1,0,11,,,,,,,,,,,,,,,,13,,43,48
13320,note_on,,1,0,10,,,,,,,,,,,,,,,,12,,55,48
13379,note_on,,59,0,10,,,,,,,,,,,,,,,,12,,55,0
13379,note_on,,59,0,7,,,,,,,,,,,,,,,,6,,64,0
13379,note_on,,59,0,9,,,,,,,,,,,,,,,,11,,64,0
13379,note_on,,59,0,8,,,,,,,,,,,,,,,,10,,58,0
13379,note_on,,59,0,11,,,,,,,,,,,,,,,,13,,43,0
13379,note_on,,59,0,12,,,,,,,,,,,,,,,,15,,70,0
13379,note_on,,0,0,12,,,,,,,,,,,,,,,,15,,67,0
13379,note_on,,0,0,12,,,,,,,,,,,,,,,,15,,62,0
13379,note_on,,0,0,12,,,,,,,,,,,,,,,,15,,43,0
13380,note_on,,1,0,9,,,,,,,,,,,,,,,,11,,65,48
13380,note_on,,1,0,8,,,,,,,,,,,,,,,,10,,57,48
13380,note_on,,1,0,10,,,,,,,,,,,,,,,,12,,53,48
13380,note_on,,0,0,12,,,,,,,,,,,,,,,,15,,62,48
13380,note_on,,0,0,12,,,,,,,,,,,,,,,,15,,65,48
13380,note_on,,1,0,12,,,,,,,,,,,,,,,,15,,50,48
13380,note_on,,1,0,11,,,,,,,,,,,,,,,,13,,50,48
13380,note_on,,1,0,7,,,,,,,,,,,,,,,,6,,65,64
13380,note_on,,0,0,12,,,,,,,,,,,,,,,,15,,69,48
13499,note_on,,119,0,10,,,,,,,,,,,,,,,,12,,53,0
13499,note_on,,119,0,8,,,,,,,,,,,,,,,,10,,57,0
13499,note_on,,119,0,11,,,,,,,,,,,,,,,,13,,50,0
13499,note_on,,119,0,9,,,,,,,,,,,,,,,,11,,65,0
13499,note_on,,119,0,7,,,,,,,,,,,,,,,,6,,65,0
13499,note_on,,119,0,12,,,,,,,,,,,,,,,,15,,50,0
13500,note_on,,1,0,10,,,,,,,,,,,,,,,,12,,49,48
13500,note_on,,1,0,7,,,,,,,,,,,,,,,,6,,64,64
13500,note_on,,1,0,9,,,,,,,,,,,,,,,,11,,64,48
13500,note_on,,1,0,11,,,,,,,,,,,,,,,,13,,49,48
13500,note_on,,1,0,12,,,,,,,,,,,,,,,,15,,49,48
13559,note_on,,59,0,9,,,,,,,,,,,,,,,,11,,64,0
13559,note_on,,0,0,12,,,,,,,,,,,,,,,,15,,62,0
13559,note_on,,0,0,12,,,,,,,,,,,,,,,,15,,65,0
13559,note_on,,0,0,12,,,,,,,,,,,,,,,,15,,49,0
13559,note_on,,59,0,10,,,,,,,,,,,,,,,,12,,49,0
13559,note_on,,59,0,7,,,,,,,,,,,,,,,,6,,64,0
13559,note_on,,59,0,11,,,,,,,,,,,,,,,,13,,49,0
13559,note_on,,59,0,12,,,,,,,,,,,,,,,,15,,69,0
13560,note_on,,1,0,9,,,,,,,,,,,,,,,,11,,65,48
13560,note_on,,1,0,10,,,,,,,,,,,,,,,,12,,50,48
13560,note_on,,1,0,12,,,,,,,,,,,,,,,,15,,50,48
13560,note_on,,0,0,12,,,,,,,,,,,,,,,,15,,74,48
13560,note_on,,0,0,12,,,,,,,,,,,,,,,,15,,69,48
13560,note_on,,0,0,12,,,,,,,,,,,,,,,,15,,65,48
13560,note_on,,1,0,7,,,,,,,,,,,,,,,,6,,65,64
13560,note_on,,1,0,11,,,,,,,,,,,,,,,,13,,50,48
13560,note_on,,61,0,8,,,,,,,,,,,,,,,,10,,62,48
13679,note_on,,119,0,11,,,,,,,,,,,,,,,,13,,50,0
13679,note_on,,119,0,9,,,,,,,,,,,,,,,,11,,65,0
13679,note_on,,119,0,10,,,,,,,,,,,,,,,,12,,50,0
13679,note_on,,119,0,7,,,,,,,,,,,,,,,,6,,65,0
13679,note_on,,119,0,12,,,,,,,,,,,,,,,,15,,50,0
13679,note_on,,119,0,8,,,,,,,,,,,,,,,,10,,62,0
13680,note_on,,1,0,12,,,,,,,,,,,,,,,,15,,52,48
13680,note_on,,1,0,9,,,,,,,,,,,,,,,,11,,67,48
13680,note_on,,1,0,7,,,,,,,,,,,,,,,,6,,67,64
13680,note_on,,1,0,11,,,,,,,,,,,,,,,,13,,52,48
13680,note_on,,1,0,8,,,,,,,,,,,,,,,,10,,60,48
13680,note_on,,1,0,10,,,,,,,,,,,,,,,,12,,52,48
13739,note_on,,0,0,12,,,,,,,,,,,,,,,,15,,65,0
13739,note_on,,59,0,8,,,,,,,,,,,,,,,,10,,60,0
13739,note_on,,59,0,10,,,,,,,,,,,,,,,,12,,52,0
13739,note_on,,59,0,9,,,,,,,,,,,,,,,,11,,67,0
13739,note_on,,59,0,7,,,,,,,,,,,,,,,,6,,67,0
13739,note_on,,59,0,11,,,,,,,,,,,,,,,,13,,52,0
13739,note_on,,59,0,12,,,,,,,,,,,,,,,,15,,74,0
13739,note_on,,0,0,12,,,,,,,,,,,,,,,,15,,69,0
13739,note_on,,0,0,12,,,,,,,,,,,,,,,,15,,52,0
13740,note_on,,1,0,12,,,,,,,,,,,,,,,,15,,53,48
13740,note_on,,0,0,12,,,,,,,,,,,,,,,,15,,72,48
13740,note_on,,0,0,12,,,,,,,,,,,,,,,,15,,69,48
13740,note_on,,0,0,12,,,,,,,,,,,,,,,,15,,65,48
13740,note_on,,1,0,7,,,,,,,,,,,,,,,,6,,69,64
13740,note_on,,1,0,11,,,,,,,,,,,,,,,,13,,53,48
13740,note_on,,1,0,9,,,,,,,,,,,,,,,,11,,69,48
13740,note_on,,1,0,10,,,,,,,,,,,,,,,,12,,53,48
13740,note_on,,1,0,8,,,,,,,,,,,,,,,,10,,60,48
13859,note_on,,119,0,12,,,,,,,,,,,,,,,,15,,53,0
13859,note_on,,119,0,9,,,,,,,,,,,,,,,,11,,69,0
13859,note_on,,119,0,11,,,,,,,,,,,,,,,,13,,53,0
13859,note_on,,119,0,7,,,,,,,,,,,,,,,,6,,69,0
13859,note_on,,119,0,10,,,,,,,,,,,,,,,,12,,53,0
13860,note_on,,1,0,7,,,,,,,,,,,,,,,,6,,67,64
13860,note_on,,1,0,12,,,,,,,,,,,,,,,,15,,52,48
13860,note_on,,1,0,9,,,,,,,,,,,,,,,,11,,67,48
13860,note_on,,1,0,11,,,,,,,,,,,,,,,,13,,52,48
13860,note_on,,1,0,10,,,,,,,,,,,,,,,,12,,52,48
13919,note_on,,59,0,10,,,,,,,,,,,,,,,,12,,52,0
13919,note_on,,0,0,12,,,,,,,,,,,,,,,,15,,69,0
13919,note_on,,59,0,7,,,,,,,,,,,,,,,,6,,67,0
13919,note_on,,59,0,12,,,,,,,,,,,,,,,,15,,72,0
13919,note_on,,59,0,11,,,,,,,,,,,,,,,,13,,52,0
13919,note_on,,0,0,12,,,,,,,,,,,,,,,,15,,52,0
13919,note_on,,0,0,12,,,,,,,,,,,,,,,,15,,65,0
13919,note_on,,59,0,9,,,,,,,,,,,,,,,,11,,67,0
13920,note_on,,0,0,12,,,,,,,,,,,,,,,,15,,60,48
13920,note_on,,1,0,11,,,,,,,,,,,,,,,,13,,53,48
13920,note_on,,1,0,10,,,,,,,,,,,,,,,,12,,53,48
13920,note_on,,1,0,9,,,,,,,,,,,,,,,,11,,69,48
13920,note_on,,1,0,7,,,,,,,,,,,,,,,,6,,69,64
13920,note_on,,0,0,12,,,,,,,,,,,,,,,,15,,65,48
13920,note_on,,0,0,12,,,,,,,,,,,,,,,,15,,69,48
13920,note_on,,1,0,12,,,,,,,,,,,,,,,,15,,53,48
14039,note_on,,299,0,8,,,,,,,,,,,,,,,,10,,60,0
14039,note_on,,119,0,9,,,,,,,,,,,,,,,,11,,69,0
14039,note_on,,119,0,10,,,,,,,,,,,,,,,,12,,53,0
14039,note_on,,119,0,12,,,,,,,,,,,,,,,,15,,53,0
14039,note_on,,119,0,11,,,,,,,,,,,,,,,,13,,53,0
14039,note_on,,119,0,7,,,,,,,,,,,,,,,,6,,69,0
14040,note_on,,1,0,7,,,,,,,,,,,,,,,,6,,70,64
14040,note_on,,1,0,10,,,,,,,,,,,,,,,,12,,55,48
14040,note_on,,1,0,8,,,,,,,,,,,,,,,,10,,64,48
14040,note_on,,1,0,12,,,,,,,,,,,,,,,,15,,55,48
14040,note_on,,1,0,9,,,,,,,,,,,,,,,,11,,70,48
14040,note_on,,1,0,11,,,,,,,,,,,,,,,,13,,55,48
14099,note_on,,0,0,12,,,,,,,,,,,,,,,,15,,60,0
14099,note_on,,0,0,12,,,,,,,,,,,,,,,,15,,55,0
14099,note_on,,0,0,12,,,,,,,,,,,,,,,,15,,65,0
14099,note_on,,59,0,12,,,,,,,,,,,,,,,,15,,69,0
14099,note_on,,59,0,11,,,,,,,,,,,,,,,,13,,55,0
14099,note_on,,59,0,9,,,,,,,,,,,,,,,,11,,70,0
14099,note_on,,59,0,10,,,,,,,,,,,,,,,,12,,55,0
14099,note_on,,59,0,8,,,,,,,,,,,,,,,,10,,64,0
14099,note_on,,59,0,7,,,,,,,,,,,,,,,,6,,70,0
14100,note_on,,1,0,9,,,,,,,,,,,,,,,,11,,72,48
14100,note_on,,1,0,8,,,,,,,,,,,,,,,,10,,65,48
14100,note_on,,1,0,7,,,,,,,,,,,,,,,,6,,72,64
14100,note_on,,1,0,12,,,,,,,,,,,,,,,,15,,57,48
14100,note_on,,0,0,12,,,,,,,,,,,,,,,,15,,72,48
14100,note_on,,0,0,12,,,,,,,,,,,,,,,,15,,60,48
14100,note_on,,0,0,12,,,,,,,,,,,,,,,,15,,65,48
14100,note_on,,1,0,11,,,,,,,,,,,,,,,,13,,57,48
14100,note_on,,1,0,10,,,,,,,,,,,,,,,,12,,57,48
14219,note_on,,119,0,10,,,,,,,,,,,,,,,,12,,57,0
14219,note_on,,119,0,8,,,,,,,,,,,,,,,,10,,65,0
14219,note_on,,119,0,11,,,,,,,,,,,,,,,,13,,57,0
14219,note_on,,119,0,12,,,,,,,,,,,,,,,,15,,57,0
14220,note_on,,1,0,11,,,,,,,,,,,,,,,,13,,55,48
14220,note_on,,1,0,10,,,,,,,,,,,,,,,,12,,55,48
14220,note_on,,1,0,8,,,,,,,,,,,,,,,,10,,64,48
14220,note_on,,1,0,12,,,,,,,,,,,,,,,,15,,55,48
14279,note_on,,0,0,12,,,,,,,,,,,,,,,,15,,55,0
14279,note_on,,0,0,12,,,,,,,,,,,,,,,,15,,60,0
14279,note_on,,0,0,12,,,,,,,,,,,,,,,,15,,65,0
14279,note_on,,59,0,8,,,,,,,,,,,,,,,,10,,64,0
14279,note_on,,59,0,12,,,,,,,,,,,,,,,,15,,72,0
14279,note_on,,59,0,10,,,,,,,,,,,,,,,,12,,55,0
14279,note_on,,59,0,11,,,,,,,,,,,,,,,,13,,55,0
14280,note_on,,0,0,12,,,,,,,,,,,,,,,,15,,72,48
14280,note_on,,1,0,12,,,,,,,,,,,,,,,,15,,57,48
14280,note_on,,0,0,12,,,,,,,,,,,,,,,,15,,69,48
14280,note_on,,0,0,12,,,,,,,,,,,,,,,,15,,77,48
14280,note_on,,1,0,8,,,,,,,,,,,,,,,,10,,65,48
14280,note_on,,1,0,10,,,,,,,,,,,,,,,,12,,57,48
14280,note_on,,1,0,11,,,,,,,,,,,,,,,,13,,57,48
14369,note_on,,89,0,8,,,,,,,,,,,,,,,,10,,65,0
14370,note_on,,1,0,8,,,,,,,,,,,,,,,,10,,67,48
14399,note_on,,119,0,12,,,,,,,,,,,,,,,,15,,57,0
14399,note_on,,119,0,11,,,,,,,,,,,,,,,,13,,57,0
14399,note_on,,299,0,9,,,,,,,,,,,,,,,,11,,72,0
14399,note_on,,299,0,7,,,,,,,,,,,,,,,,6,,72,0
14399,note_on,,119,0,10,,,,,,,,,,,,,,,,12,,57,0
14400,note_on,,1,0,12,,,,,,,,,,,,,,,,15,,58,48
14400,note_on,,1,0,7,,,,,,,,,,,,,,,,6,,72,64
14400,note_on,,1,0,9,,,,,,,,,,,,,,,,11,,72,48
14400,note_on,,1,0,11,,,,,,,,,,,,,,,,13,,58,48
14400,note_on,,1,0,10,,,,,,,,,,,,,,,,12,,58,48
14429,note_on,,59,0,8,,,,,,,,,,,,,,,,10,,67,0
14430,note_on,,1,0,8,,,,,,,,,,,,,,,,10,,65,48
14459,note_on,,59,0,12,,,,,,,,,,,,,,,,15,,77,0
14459,note_on,,59,0,7,,,,,,,,,,,,,,,,6,,72,0
14459,note_on,,0,0,12,,,,,,,,,,,,,,,,15,,58,0
14459,note_on,,59,0,10,,,,,,,,,,,,,,,,12,,58,0
14459,note_on,,59,0,9,,,,,,,,,,,,,,,,11,,72,0
14459,note_on,,29,0,8,,,,,,,,,,,,,,,,10,,65,0
14459,note_on,,59,0,11,,,,,,,,,,,,,,,,13,,58,0
14459,note_on,,0,0,12,,,,,,,,,,,,,,,,15,,72,0
14459,note_on,,0,0,12,,,,,,,,,,,,,,,,15,,69,0
14460,note_on,,1,0,9,,,,,,,,,,,,,,,,11,,67,48
14460,note_on,,1,0,7,,,,,,,,,,,,,,,,6,,67,64
14460,note_on,,1,0,8,,,,,,,,,,,,,,,,10,,64,48
14460,note_on,,1,0,12,,,,,,,,,,,,,,,,15,,60,48
14460,note_on,,0,0,12,,,,,,,,,,,,,,,,15,,72,48
14460,note_on,,0,0,12,,,,,,,,,,,,,,,,15,,67,48
14460,note_on,,0,0,12,,,,,,,,,,,,,,,,15,,64,48
14460,note_on,,1,0,11,,,,,,,,,,,,,,,,13,,60,48
14460,note_on,,1,0,10,,,,,,,,,,,,,,,,12,,60,48
14579,note_on,,119,0,7,,,,,,,,,,,,,,,,6,,67,0
14579,note_on,,119,0,9,,,,,,,,,,,,,,,,11,,67,0
14579,note_on,,119,0,8,,,,,,,,,,,,,,,,10,,64,0
14580,note_on,,1,0,9,,,,,,,,,,,,,,,,11,,65,48
14580,note_on,,1,0,8,,,,,,,,,,,,,,,,10,,62,48
14580,note_on,,1,0,7,,,,,,,,,,,,,,,,6,,65,64
14639,note_on,,59,0,8,,,,,,,,,,,,,,,,10,,62,0
14639,note_on,,59,0,7,,,,,,,,,,,,,,,,6,,65,0
14639,note_on,,59,0,9,,,,,,,,,,,,,,,,11,,65,0
14640,note_on,,1,0,8,,,,,,,,,,,,,,,,10,,64,48
14640,note_on,,1,0,7,,,,,,,,,,,,,,,,6,,67,64
14640,note_on,,1,0,9,,,,,,,,,,,,,,,,11,,67,48
14759,note_on,,119,0,9,,,,,,,,,,,,,,,,11,,67,0
14759,note_on,,119,0,8,,,,,,,,,,,,,,,,10,,64,0
14759,note_on,,119,0,7,,,,,,,,,,,,,,,,6,,67,0
14760,note_on,,1,0,9,,,,,,,,,,,,,,,,11,,69,48
14760,note_on,,1,0,8,,,,,,,,,,,,,,,,10,,65,48
14760,note_on,,1,0,7,,,,,,,,,,,,,,,,6,,69,64
14819,note_on,,59,0,8,,,,,,,,,,,,,,,,10,,65,0
14819,note_on,,0,0,12,,,,,,,,,,,,,,,,15,,64,0
14819,note_on,,0,0,12,,,,,,,,,,,,,,,,15,,67,0
14819,note_on,,359,0,12,,,,,,,,,,,,,,,,15,,72,0
14819,note_on,,59,0,9,,,,,,,,,,,,,,,,11,,69,0
14819,note_on,,59,0,7,,,,,,,,,,,,,,,,6,,69,0
14820,note_on,,0,0,12,,,,,,,,,,,,,,,,15,,67,48
14820,note_on,,1,0,7,,,,,,,,,,,,,,,,6,,70,64
14820,note_on,,1,0,12,,,,,,,,,,,,,,,,15,,76,48
14820,note_on,,0,0,12,,,,,,,,,,,,,,,,15,,72,48
14820,note_on,,1,0,8,,,,,,,,,,,,,,,,10,,67,48
14820,note_on,,1,0,9,,,,,,,,,,,,,,,,11,,70,48
14939,note_on,,119,0,8,,,,,,,,,,,,,,,,10,,67,0
14940,note_on,,1,0,8,,,,,,,,,,,,,,,,10,,64,48
14999,note_on,,59,0,8,,,,,,,,,,,,,,,,10,,64,0
15000,note_on,,1,0,8,,,,,,,,,,,,,,,,10,,79,48
15089,note_on,,89,0,8,,,,,,,,,,,,,,,,10,,79,0
15090,note_on,,1,0,8,,,,,,,,,,,,,,,,10,,77,48
15119,note_on,,299,0,7,,,,,,,,,,,,,,,,6,,70,0
15119,note_on,,299,0,9,,,,,,,,,,,,,,,,11,,70,0
15119,note_on,,29,0,8,,,,,,,,,,,,,,,,10,,77,0
15120,note_on,,1,0,7,,,,,,,,,,,,,,,,6,,70,64
15120,note_on,,1,0,8,,,,,,,,,,,,,,,,10,,76,48
15120,note_on,,1,0,9,,,,,,,,,,,,,,,,11,,70,48
15179,note_on,,0,0,12,,,,,,,,,,,,,,,,15,,67,0
15179,note_on,,0,0,12,,,,,,,,,,,,,,,,15,,76,0
15179,note_on,,0,0,12,,,,,,,,,,,,,,,,15,,72,0
15179,note_on,,59,0,9,,,,,,,,,,,,,,,,11,,70,0
15179,note_on,,59,0,7,,,,,,,,,,,,,,,,6,,70,0
15179,note_on,,359,0,12,,,,,,,,,,,,,,,,15,,60,0
15179,note_on,,59,0,8,,,,,,,,,,,,,,,,10,,76,0
15179,note_on,,719,0,11,,,,,,,,,,,,,,,,13,,60,0
15180,note_on,,0,0,12,,,,,,,,,,,,,,,,15,,77,48
15180,note_on,,1,0,12,,,,,,,,,,,,,,,,15,,53,48
15180,note_on,,0,0,12,,,,,,,,,,,,,,,,15,,69,48
15180,note_on,,1,0,8,,,,,,,,,,,,,,,,10,,77,48
15180,note_on,,1,0,7,,,,,,,,,,,,,,,,6,,69,64
15180,note_on,,1,0,11,,,,,,,,,,,,,,,,13,,53,48
15180,note_on,,0,0,12,,,,,,,,,,,,,,,,15,,72,48
15180,note_on,,1,0,9,,,,,,,,,,,,,,,,11,,69,48
15269,note_on,,89,0,7,,,,,,,,,,,,,,,,6,,69,0
15269,note_on,,89,0,9,,,,,,,,,,,,,,,,11,,69,0
15270,note_on,,1,0,9,,,,,,,,,,,,,,,,11,,70,48
15270,note_on,,1,0,7,,,,,,,,,,,,,,,,6,,70,64
15299,note_on,,29,0,7,,,,,,,,,,,,,,,,6,,70,0
15299,note_on,,29,0,9,,,,,,,,,,,,,,,,11,,70,0
15299,note_on,,119,0,8,,,,,,,,,,,,,,,,10,,77,0
15300,note_on,,1,0,9,,,,,,,,,,,,,,,,11,,69,48
15300,note_on,,1,0,7,,,,,,,,,,,,,,,,6,,69,64
15300,note_on,,1,0,8,,,,,,,,,,,,,,,,10,,72,48
15359,note_on,,899,0,10,,,,,,,,,,,,,,,,12,,60,0
15359,note_on,,179,0,11,,,,,,,,,,,,,,,,13,,53,0
15359,note_on,,59,0,8,,,,,,,,,,,,,,,,10,,72,0
15359,note_on,,59,0,7,,,,,,,,,,,,,,,,6,,69,0
15359,note_on,,59,0,9,,,,,,,,,,,,,,,,11,,69,0
15359,note_on,,0,0,12,,,,,,,,,,,,,,,,15,,69,0
15359,note_on,,0,0,12,,,,,,,,,,,,,,,,15,,72,0
15359,note_on,,0,0,12,,,,,,,,,,,,,,,,15,,77,0
15359,note_on,,179,0,12,,,,,,,,,,,,,,,,15,,53,0
15360,note_on,,1,0,7,,,,,,,,,,,,,,,,6,,67,64
15360,note_on,,1,0,11,,,,,,,,,,,,,,,,13,,46,48
15360,note_on,,1,0,8,,,,,,,,,,,,,,,,10,,74,48
15360,note_on,,1,0,9,,,,,,,,,,,,,,,,11,,67,48
15360,note_on,,0,0,12,,,,,,,,,,,,,,,,15,,70,48
15360,note_on,,1,0,12,,,,,,,,,,,,,,,,15,,67,48
15360,note_on,,0,0,12,,,,,,,,,,,,,,,,15,,46,48
15360,note_on,,1,0,10,,,,,,,,,,,,,,,,12,,58,48
15360,note_on,,0,0,12,,,,,,,,,,,,,,,,15,,74,48
15479,note_on,,119,0,9,,,,,,,,,,,,,,,,11,,67,0
15479,note_on,,119,0,7,,,,,,,,,,,,,,,,6,,67,0
15479,note_on,,119,0,8,,,,,,,,,,,,,,,,10,,74,0
15480,note_on,,1,0,7,,,,,,,,,,,,,,,,6,,65,64
15480,note_on,,1,0,9,,,,,,,,,,,,,,,,11,,65,48
15480,note_on,,1,0,8,,,,,,,,,,,,,,,,10,,67,48
15539,note_on,,59,0,8,,,,,,,,,,,,,,,,10,,67,0
15539,note_on,,0,0,12,,,,,,,,,,,,,,,,15,,70,0
15539,note_on,,59,0,7,,,,,,,,,,,,,,,,6,,65,0
15539,note_on,,179,0,12,,,,,,,,,,,,,,,,15,,67,0
15539,note_on,,179,0,10,,,,,,,,,,,,,,,,12,,58,0
15539,note_on,,59,0,9,,,,,,,,,,,,,,,,11,,65,0
15539,note_on,,0,0,12,,,,,,,,,,,,,,,,15,,74,0
15540,note_on,,1,0,7,,,,,,,,,,,,,,,,6,,64,64
15540,note_on,,1,0,8,,,,,,,,,,,,,,,,10,,67,48
15540,note_on,,1,0,9,,,,,,,,,,,,,,,,11,,64,48
15540,note_on,,0,0,12,,,,,,,,,,,,,,,,15,,64,48
15540,note_on,,1,0,10,,,,,,,,,,,,,,,,12,,60,48
15540,note_on,,0,0,12,,,,,,,,,,,,,,,,15,,67,48
15540,note_on,,1,0,12,,,,,,,,,,,,,,,,15,,72,48
15629,note_on,,89,0,9,,,,,,,,,,,,,,,,11,,64,0
15629,note_on,,89,0,10,,,,,,,,,,,,,,,,12,,60,0
15629,note_on,,89,0,7,,,,,,,,,,,,,,,,6,,64,0
15630,note_on,,1,0,10,,,,,,,,,,,,,,,,12,,62,48
15630,note_on,,1,0,9,,,,,,,,,,,,,,,,11,,62,48
15630,note_on,,1,0,7,,,,,,,,,,,,,,,,6,,62,64
15659,note_on,,29,0,10,,,,,,,,,,,,,,,,12,,62,0
15659,note_on,,29,0,9,,,,,,,,,,,,,,,,11,,62,0
15659,note_on,,29,0,7,,,,,,,,,,,,,,,,6,,62,0
15660,note_on,,1,0,10,,,,,,,,,,,,,,,,12,,64,48
15660,note_on,,1,0,7,,,,,,,,,,,,,,,,6,,60,64
15660,note_on,,1,0,9,,,,,,,,,,,,,,,,11,,60,48
15719,note_on,,0,0,12,,,,,,,,,,,,,,,,15,,67,0
15719,note_on,,0,0,12,,,,,,,,,,,,,,,,15,,64,0
15719,note_on,,359,0,11,,,,,,,,,,,,,,,,13,,46,0
15719,note_on,,59,0,9,,,,,,,,,,,,,,,,11,,60,0
15719,note_on,,179,0,12,,,,,,,,,,,,,,,,15,,46,0
15719,note_on,,59,0,7,,,,,,,,,,,,,,,,6,,60,0
15719,note_on,,0,0,12,,,,,,,,,,,,,,,,15,,72,0
15719,note_on,,179,0,8,,,,,,,,,,,,,,,,10,,67,0
15719,note_on,,59,0,10,,,,,,,,,,,,,,,,12,,64,0
15720,note_on,,0,0,12,,,,,,,,,,,,,,,,15,,72,48
15720,note_on,,1,0,12,,,,,,,,,,,,,,,,15,,45,48
15720,note_on,,1,0,10,,,,,,,,,,,,,,,,12,,60,48
15720,note_on,,1,0,9,,,,,,,,,,,,,,,,11,,72,48
15720,note_on,,0,0,12,,,,,,,,,,,,,,,,15,,65,48
15720,note_on,,1,0,7,,,,,,,,,,,,,,,,6,,72,64
15720,note_on,,0,0,12,,,,,,,,,,,,,,,,15,,77,48
15720,note_on,,1,0,11,,,,,,,,,,,,,,,,13,,45,48
15720,note_on,,1,0,8,,,,,,,,,,,,,,,,10,,65,48
15839,note_on,,119,0,7,,,,,,,,,,,,,,,,6,,72,0
15839,note_on,,119,0,12,,,,,,,,,,,,,,,,15,,45,0
15839,note_on,,119,0,11,,,,,,,,,,,,,,,,13,,45,0
15839,note_on,,119,0,9,,,,,,,,,,,,,,,,11,,72,0
15839,note_on,,119,0,10,,,,,,,,,,,,,,,,12,,60,0
15840,note_on,,1,0,10,,,,,,,,,,,,,,,,12,,62,48
15840,note_on,,1,0,12,,,,,,,,,,,,,,,,15,,46,48
15840,note_on,,1,0,7,,,,,,,,,,,,,,,,6,,70,64
15840,note_on,,1,0,11,,,,,,,,,,,,,,,,13,,46,48
15840,note_on,,1,0,9,,,,,,,,,,,,,,,,11,,70,48
15899,note_on,,59,0,9,,,,,,,,,,,,,,,,11,,70,0
15899,note_on,,0,0,12,,,,,,,,,,,,,,,,15,,65,0
15899,note_on,,0,0,12,,,,,,,,,,,,,,,,15,,46,0
15899,note_on,,0,0,12,,,,,,,,,,,,,,,,15,,72,0
15899,note_on,,59,0,7,,,,,,,,,,,,,,,,6,,70,0
15899,note_on,,59,0,11,,,,,,,,,,,,,,,,13,,46,0
15899,note_on,,59,0,12,,,,,,,,,,,,,,,,15,,77,0
15899,note_on,,59,0,10,,,,,,,,,,,,,,,,12,,62,0
15900,note_on,,1,0,10,,,,,,,,,,,,,,,,12,,60,48
15900,note_on,,0,0,12,,,,,,,,,,,,,,,,15,,65,48
15900,note_on,,1,0,11,,,,,,,,,,,,,,,,13,,48,48
15900,note_on,,1,0,7,,,,,,,,,,,,,,,,6,,69,64
15900,note_on,,0,0,12,,,,,,,,,,,,,,,,15,,72,48
15900,note_on,,1,0,12,,,,,,,,,,,,,,,,15,,48,48
15900,note_on,,1,0,9,,,,,,,,,,,,,,,,11,,69,48
15900,note_on,,0,0,12,,,,,,,,,,,,,,,,15,,69,48
16079,note_on,,179,0,12,,,,,,,,,,,,,,,,15,,48,0
16079,note_on,,0,0,12,,,,,,,,,,,,,,,,15,,72,0
16079,note_on,,179,0,10,,,,,,,,,,,,,,,,12,,60,0
16079,note_on,,179,0,11,,,,,,,,,,,,,,,,13,,48,0
16079,note_on,,359,0,8,,,,,,,,,,,,,,,,10,,65,0
16079,note_on,,0,0,12,,,,,,,,,,,,,,,,15,,69,0
16079,note_on,,0,0,12,,,,,,,,,,,,,,,,15,,65,0
16079,note_on,,179,0,7,,,,,,,,,,,,,,,,6,,69,0
16079,note_on,,179,0,9,,,,,,,,,,,,,,,,11,,69,0
16080,note_on,,1,0,7,,,,,,,,,,,,,,,,6,,67,64
16080,note_on,,0,0,12,,,,,,,,,,,,,,,,15,,64,48
16080,note_on,,1,0,12,,,,,,,,,,,,,,,,15,,36,48
16080,note_on,,1,0,10,,,,,,,,,,,,,,,,12,,58,48
16080,note_on,,0,0,12,,,,,,,,,,,,,,,,15,,67,48
16080,note_on,,1,0,9,,,,,,,,,,,,,,,,11,,67,48
16080,note_on,,1,0,8,,,,,,,,,,,,,,,,10,,64,48
16080,note_on,,0,0,12,,,,,,,,,,,,,,,,15,,70,48
16080,note_on,,1,0,11,,,,,,,,,,,,,,,,13,,36,48
16094,note_on,,14,0,7,,,,,,,,,,,,,,,,6,,67,0
16095,note_on,,1,0,7,,,,,,,,,,,,,,,,6,,69,64
16109,note_on,,14,0,7,,,,,,,,,,,,,,,,6,,69,0
16110,note_on,,1,0,7,,,,,,,,,,,,,,,,6,,67,64
16124,note_on,,14,0,7,,,,,,,,,,,,,,,,6,,67,0
16125,note_on,,1,0,7,,,,,,,,,,,,,,,,6,,69,64
16139,note_on,,14,0,7,,,,,,,,,,,,,,,,6,,69,0
16140,note_on,,1,0,7,,,,,,,,,,,,,,,,6,,67,64
16154,note_on,,14,0,7,,,,,,,,,,,,,,,,6,,67,0
16155,note_on,,1,0,7,,,,,,,,,,,,,,,,6,,69,64
16169,note_on,,14,0,7,,,,,,,,,,,,,,,,6,,69,0
16170,note_on,,1,0,7,,,,,,,,,,,,,,,,6,,67,64
16184,note_on,,14,0,7,,,,,,,,,,,,,,,,6,,67,0
16185,note_on,,1,0,7,,,,,,,,,,,,,,,,6,,69,64
16199,note_on,,14,0,7,,,,,,,,,,,,,,,,6,,69,0
16199,note_on,,119,0,9,,,,,,,,,,,,,,,,11,,67,0
16200,note_on,,1,0,7,,,,,,,,,,,,,,,,6,,65,64
16200,note_on,,1,0,9,,,,,,,,,,,,,,,,11,,65,48
16259,note_on,,179,0,8,,,,,,,,,,,,,,,,10,,64,0
16259,note_on,,59,0,7,,,,,,,,,,,,,,,,6,,65,0
16259,note_on,,179,0,10,,,,,,,,,,,,,,,,12,,58,0
16259,note_on,,0,0,12,,,,,,,,,,,,,,,,15,,67,0
16259,note_on,,179,0,12,,,,,,,,,,,,,,,,15,,36,0
16259,note_on,,0,0,12,,,,,,,,,,,,,,,,15,,70,0
16259,note_on,,59,0,9,,,,,,,,,,,,,,,,11,,65,0
16259,note_on,,179,0,11,,,,,,,,,,,,,,,,13,,36,0
16259,note_on,,0,0,12,,,,,,,,,,,,,,,,15,,64,0
16260,note_on,,1,0,8,,,,,,,,,,,,,,,,10,,65,48
16260,note_on,,1,0,9,,,,,,,,,,,,,,,,11,,65,48
16260,note_on,,1,0,10,,,,,,,,,,,,,,,,12,,57,48
16260,note_on,,0,0,12,,,,,,,,,,,,,,,,15,,69,48
16260,note_on,,0,0,12,,,,,,,,,,,,,,,,15,,65,48
16260,note_on,,1,0,7,,,,,,,,,,,,,,,,6,,65,64
16260,note_on,,1,0,11,,,,,,,,,,,,,,,,13,,53,48
16260,note_on,,13321,0,5,,,,,,,,,,,,,,,,2,,53,48
16260,note_on,,0,0,12,,,,,,,,,,,,,,,,15,,60,48
16260,note_on,,1,0,12,,,,,,,,,,,,,,,,15,,53,48
16379,note_on,,119,0,11,,,,,,,,,,,,,,,,13,,53,0
16379,note_on,,119,0,5,,,,,,,,,,,,,,,,2,,53,0
16379,note_on,,119,0,9,,,,,,,,,,,,,,,,11,,65,0
16379,note_on,,119,0,12,,,,,,,,,,,,,,,,15,,53,0
16380,note_on,,1,0,9,,,,,,,,,,,,,,,,11,,60,48
16380,note_on,,1,0,12,,,,,,,,,,,,,,,,15,,51,48
16380,note_on,,1,0,11,,,,,,,,,,,,,,,,13,,51,48
16380,note_on,,1,0,5,,,,,,,,,,,,,,,,2,,51,48
16439,note_on,,0,0,12,,,,,,,,,,,,,,,,15,,60,0
16439,note_on,,179,0,10,,,,,,,,,,,,,,,,12,,57,0
16439,note_on,,59,0,9,,,,,,,,,,,,,,,,11,,60,0
16439,note_on,,59,0,12,,,,,,,,,,,,,,,,15,,69,0
16439,note_on,,0,0,12,,,,,,,,,,,,,,,,15,,65,0
16439,note_on,,0,0,12,,,,,,,,,,,,,,,,15,,51,0
16439,note_on,,59,0,5,,,,,,,,,,,,,,,,2,,51,0
16439,note_on,,59,0,11,,,,,,,,,,,,,,,,13,,51,0
16440,note_on,,0,0,12,,,,,,,,,,,,,,,,15,,70,72
16440,note_on,,1,0,12,,,,,,,,,,,,,,,,15,,50,72
16440,note_on,,1,0,11,,,,,,,,,,,,,,,,13,,50,72
16440,note_on,,1,0,10,,,,,,,,,,,,,,,,12,,58,72
16440,note_on,,1,0,9,,,,,,,,,,,,,,,,11,,65,72
16440,note_on,,0,0,12,,,,,,,,,,,,,,,,15,,62,72
16440,note_on,,1,0,5,,,,,,,,,,,,,,,,2,,50,72
16440,note_on,,0,0,12,,,,,,,,,,,,,,,,15,,65,72
16559,note_on,,119,0,10,,,,,,,,,,,,,,,,12,,58,0
16559,note_on,,119,0,11,,,,,,,,,,,,,,,,13,,50,0
16559,note_on,,299,0,8,,,,,,,,,,,,,,,,10,,65,0
16559,note_on,,119,0,5,,,,,,,,,,,,,,,,2,,50,0
16559,note_on,,0,0,12,,,,,,,,,,,,,,,,15,,62,0
16559,note_on,,0,0,12,,,,,,,,,,,,,,,,15,,65,0
16559,note_on,,0,0,12,,,,,,,,,,,,,,,,15,,70,0
16559,note_on,,119,0,12,,,,,,,,,,,,,,,,15,,50,0
16559,note_on,,119,0,9,,,,,,,,,,,,,,,,11,,65,0
16560,note_on,,1,0,8,,,,,,,,,,,,,,,,10,,77,72
16560,note_on,,1,0,9,,,,,,,,,,,,,,,,11,,69,72
16560,note_on,,0,0,12,,,,,,,,,,,,,,,,15,,72,72
16560,note_on,,0,0,12,,,,,,,,,,,,,,,,15,,69,72
16560,note_on,,0,0,12,,,,,,,,,,,,,,,,15,,63,72
16560,note_on,,1,0,10,,,,,,,,,,,,,,,,12,,60,72
16560,note_on,,1,0,12,,,,,,,,,,,,,,,,15,,48,72
16560,note_on,,1,0,11,,,,,,,,,,,,,,,,13,,48,72
16560,note_on,,1,0,5,,,,,,,,,,,,,,,,2,,48,72
16619,note_on,,0,0,12,,,,,,,,,,,,,,,,15,,72,0
16619,note_on,,59,0,12,,,,,,,,,,,,,,,,15,,48,0
16619,note_on,,59,0,11,,,,,,,,,,,,,,,,13,,48,0
16619,note_on,,0,0,12,,,,,,,,,,,,,,,,15,,63,0
16619,note_on,,59,0,9,,,,,,,,,,,,,,,,11,,69,0
16619,note_on,,359,0,7,,,,,,,,,,,,,,,,6,,65,0
16619,end_of_track,,0,1,7,,,,,,,,,,,,,,,,,,,
16619,note_on,,59,0,5,,,,,,,,,,,,,,,,2,,48,0
16619,note_on,,59,0,10,,,,,,,,,,,,,,,,12,,60,0
16619,note_on,,59,0,8,,,,,,,,,,,,,,,,10,,77,0
16619,note_on,,0,0,12,,,,,,,,,,,,,,,,15,,69,0
16620,note_on,,1,0,8,,,,,,,,,,,,,,,,10,,77,72
16620,note_on,,1,0,9,,,,,,,,,,,,,,,,11,,74,72
16620,note_on,,1,0,10,,,,,,,,,,,,,,,,12,,62,72
16620,note_on,,1,0,11,,,,,,,,,,,,,,,,13,,46,72
16620,note_on,,1,0,5,,,,,,,,,,,,,,,,2,,46,72
16620,note_on,,1,0,12,,,,,,,,,,,,,,,,15,,46,72
16620,note_on,,0,0,12,,,,,,,,,,,,,,,,15,,74,72
16620,note_on,,0,0,12,,,,,,,,,,,,,,,,15,,70,72
16620,note_on,,0,0,12,,,,,,,,,,,,,,,,15,,65,72
16739,note_on,,119,0,8,,,,,,,,,,,,,,,,10,,77,0
16739,note_on,,119,0,10,,,,,,,,,,,,,,,,12,,62,0
16739,note_on,,119,0,9,,,,,,,,,,,,,,,,11,,74,0
16740,note_on,,1,0,9,,,,,,,,,,,,,,,,11,,72,72
16740,note_on,,1,0,8,,,,,,,,,,,,,,,,10,,75,72
16740,note_on,,1,0,10,,,,,,,,,,,,,,,,12,,63,72
16799,note_on,,59,0,8,,,,,,,,,,,,,,,,10,,75,0
16799,note_on,,59,0,10,,,,,,,,,,,,,,,,12,,63,0
16799,note_on,,59,0,9,,,,,,,,,,,,,,,,11,,72,0
16800,note_on,,1,0,9,,,,,,,,,,,,,,,,11,,70,72
16800,note_on,,1,0,8,,,,,,,,,,,,,,,,10,,74,72
16800,note_on,,1,0,10,,,,,,,,,,,,,,,,12,,65,72
16919,note_on,,119,0,9,,,,,,,,,,,,,,,,11,,70,0
16919,note_on,,119,0,10,,,,,,,,,,,,,,,,12,,65,0
16919,note_on,,119,0,8,,,,,,,,,,,,,,,,10,,74,0
16920,note_on,,1,0,8,,,,,,,,,,,,,,,,10,,72,72
16920,note_on,,1,0,9,,,,,,,,,,,,,,,,11,,69,72
16920,note_on,,1,0,10,,,,,,,,,,,,,,,,12,,63,72
16979,note_on,,59,0,8,,,,,,,,,,,,,,,,10,,72,0
16979,note_on,,0,0,12,,,,,,,,,,,,,,,,15,,70,0
16979,note_on,,359,0,12,,,,,,,,,,,,,,,,15,,74,0
16979,note_on,,59,0,10,,,,,,,,,,,,,,,,12,,63,0
16979,note_on,,0,0,12,,,,,,,,,,,,,,,,15,,65,0
16979,note_on,,59,0,9,,,,,,,,,,,,,,,,11,,69,0
16980,note_on,,0,0,12,,,,,,,,,,,,,,,,15,,62,72
16980,note_on,,1,0,10,,,,,,,,,,,,,,,,12,,62,72
16980,note_on,,1,0,12,,,,,,,,,,,,,,,,15,,65,72
16980,note_on,,0,0,12,,,,,,,,,,,,,,,,15,,58,72
16980,note_on,,1,0,8,,,,,,,,,,,,,,,,10,,70,72
16980,note_on,,1,0,9,,,,,,,,,,,,,,,,11,,70,72
17099,note_on,,479,0,11,,,,,,,,,,,,,,,,13,,46,0
17099,note_on,,479,0,5,,,,,,,,,,,,,,,,2,,46,0
17099,note_on,,119,0,9,,,,,,,,,,,,,,,,11,,70,0
17099,note_on,,119,0,10,,,,,,,,,,,,,,,,12,,62,0
17099,note_on,,119,0,12,,,,,,,,,,,,,,,,15,,46,0
17100,note_on,,1,0,12,,,,,,,,,,,,,,,,15,,45,72
17100,note_on,,1,0,5,,,,,,,,,,,,,,,,2,,45,72
17100,note_on,,1,0,9,,,,,,,,,,,,,,,,11,,62,72
17100,note_on,,1,0,10,,,,,,,,,,,,,,,,12,,60,72
17100,note_on,,1,0,11,,,,,,,,,,,,,,,,13,,45,72
17159,note_on,,59,0,11,,,,,,,,,,,,,,,,13,,45,0
17159,note_on,,59,0,10,,,,,,,,,,,,,,,,12,,60,0
17159,note_on,,59,0,5,,,,,,,,,,,,,,,,2,,45,0
17159,note_on,,59,0,12,,,,,,,,,,,,,,,,15,,65,0
17159,note_on,,0,0,12,,,,,,,,,,,,,,,,15,,58,0
17159,note_on,,0,0,12,,,,,,,,,,,,,,,,15,,45,0
17159,note_on,,59,0,9,,,,,,,,,,,,,,,,11,,62,0
17159,note_on,,0,0,12,,,,,,,,,,,,,,,,15,,62,0
17160,note_on,,1,0,10,,,,,,,,,,,,,,,,12,,58,72
17160,note_on,,1,0,12,,,,,,,,,,,,,,,,15,,58,72
17160,note_on,,0,0,12,,,,,,,,,,,,,,,,15,,70,72
17160,note_on,,0,0,12,,,,,,,,,,,,,,,,15,,64,72
17160,note_on,,1,0,9,,,,,,,,,,,,,,,,11,,64,72
17160,note_on,,1,0,5,,,,,,,,,,,,,,,,2,,43,72
17160,note_on,,1,0,11,,,,,,,,,,,,,,,,13,,43,72
17160,note_on,,0,0,12,,,,,,,,,,,,,,,,15,,43,72
17279,note_on,,119,0,11,,,,,,,,,,,,,,,,13,,43,0
17279,note_on,,119,0,5,,,,,,,,,,,,,,,,2,,43,0
17279,note_on,,119,0,12,,,,,,,,,,,,,,,,15,,58,0
17279,note_on,,299,0,8,,,,,,,,,,,,,,,,10,,70,0
17279,note_on,,0,0,12,,,,,,,,,,,,,,,,15,,64,0
17279,note_on,,119,0,10,,,,,,,,,,,,,,,,12,,58,0
17279,note_on,,0,0,12,,,,,,,,,,,,,,,,15,,43,0
17279,note_on,,0,0,12,,,,,,,,,,,,,,,,15,,70,0
17280,note_on,,1,0,12,,,,,,,,,,,,,,,,15,,41,72
17280,note_on,,0,0,12,,,,,,,,,,,,,,,,15,,69,72
17280,note_on,,0,0,12,,,,,,,,,,,,,,,,15,,65,72
17280,note_on,,0,0,12,,,,,,,,,,,,,,,,15,,60,72
17280,note_on,,1,0,11,,,,,,,,,,,,,,,,13,,41,72
17280,note_on,,1,0,5,,,,,,,,,,,,,,,,2,,41,72
17280,note_on,,1,0,10,,,,,,,,,,,,,,,,12,,60,72
17280,note_on,,1,0,8,,,,,,,,,,,,,,,,10,,69,72
17339,note_on,,0,0,12,,,,,,,,,,,,,,,,15,,60,0
17339,note_on,,59,0,10,,,,,,,,,,,,,,,,12,,60,0
17339,note_on,,0,0,12,,,,,,,,,,,,,,,,15,,65,0
17339,note_on,,59,0,8,,,,,,,,,,,,,,,,10,,69,0
17339,note_on,,59,0,12,,,,,,,,,,,,,,,,15,,41,0
17339,note_on,,59,0,5,,,,,,,,,,,,,,,,2,,41,0
17339,note_on,,59,0,11,,,,,,,,,,,,,,,,13,,41,0
17339,note_on,,0,0,12,,,,,,,,,,,,,,,,15,,69,0
17339,note_on,,179,0,9,,,,,,,,,,,,,,,,11,,64,0
17340,note_on,,1,0,5,,,,,,,,,,,,,,,,2,,46,72
17340,note_on,,1,0,10,,,,,,,,,,,,,,,,12,,58,72
17340,note_on,,1,0,9,,,,,,,,,,,,,,,,11,,62,72
17340,note_on,,1,0,12,,,,,,,,,,,,,,,,15,,46,72
17340,note_on,,0,0,12,,,,,,,,,,,,,,,,15,,62,72
17340,note_on,,0,0,12,,,,,,,,,,,,,,,,15,,55,72
17340,note_on,,0,0,12,,,,,,,,,,,,,,,,15,,67,72
17340,note_on,,1,0,11,,,,,,,,,,,,,,,,13,,46,72
17340,note_on,,1,0,8,,,,,,,,,,,,,,,,10,,67,72
17429,note_on,,89,0,8,,,,,,,,,,,,,,,,10,,67,0
17430,note_on,,1,0,8,,,,,,,,,,,,,,,,10,,69,72
17459,note_on,,119,0,9,,,,,,,,,,,,,,,,11,,62,0
17459,note_on,,119,0,12,,,,,,,,,,,,,,,,15,,46,0
17459,note_on,,119,0,10,,,,,,,,,,,,,,,,12,,58,0
17459,note_on,,29,0,8,,,,,,,,,,,,,,,,10,,69,0
17459,note_on,,0,0,12,,,,,,,,,,,,,,,,15,,62,0
17459,note_on,,119,0,11,,,,,,,,,,,,,,,,13,,46,0
17459,note_on,,119,0,5,,,,,,,,,,,,,,,,2,,46,0
17460,note_on,,1,0,9,,,,,,,,,,,,,,,,11,,65,72
17460,note_on,,1,0,5,,,,,,,,,,,,,,,,2,,50,72
17460,note_on,,1,0,11,,,,,,,,,,,,,,,,13,,50,72
17460,note_on,,1,0,10,,,,,,,,,,,,,,,,12,,58,72
17460,note_on,,1,0,8,,,,,,,,,,,,,,,,10,,65,72
17460,note_on,,1,0,12,,,,,,,,,,,,,,,,15,,50,72
17460,note_on,,0,0,12,,,,,,,,,,,,,,,,15,,58,72
17519,note_on,,59,0,11,,,,,,,,,,,,,,,,13,,50,0
17519,note_on,,0,0,12,,,,,,,,,,,,,,,,15,,58,0
17519,note_on,,0,0,12,,,,,,,,,,,,,,,,15,,50,0
17519,note_on,,59,0,12,,,,,,,,,,,,,,,,15,,67,0
17519,note_on,,59,0,8,,,,,,,,,,,,,,,,10,,65,0
17519,note_on,,59,0,10,,,,,,,,,,,,,,,,12,,58,0
17519,note_on,,59,0,5,,,,,,,,,,,,,,,,2,,50,0
17519,note_on,,0,0,12,,,,,,,,,,,,,,,,15,,55,0
17519,note_on,,59,0,9,,,,,,,,,,,,,,,,11,,65,0
17520,note_on,,1,0,9,,,,,,,,,,,,,,,,11,,65,72
17520,note_on,,1,0,5,,,,,,,,,,,,,,,,2,,48,72
17520,note_on,,1,0,11,,,,,,,,,,,,,,,,13,,48,72
17520,note_on,,0,0,12,,,,,,,,,,,,,,,,15,,57,72
17520,note_on,,1,0,10,,,,,,,,,,,,,,,,12,,60,72
17520,note_on,,0,0,12,,,,,,,,,,,,,,,,15,,60,72
17520,note_on,,0,0,12,,,,,,,,,,,,,,,,15,,65,72
17520,note_on,,1,0,12,,,,,,,,,,,,,,,,15,,48,72
17520,note_on,,1,0,8,,,,,,,,,,,,,,,,10,,69,72
17639,note_on,,0,0,12,,,,,,,,,,,,,,,,15,,60,0
17639,note_on,,119,0,12,,,,,,,,,,,,,,,,15,,48,0
17639,note_on,,119,0,9,,,,,,,,,,,,,,,,11,,65,0
17639,note_on,,119,0,5,,,,,,,,,,,,,,,,2,,48,0
17639,note_on,,119,0,11,,,,,,,,,,,,,,,,13,,48,0
17639,note_on,,119,0,8,,,,,,,,,,,,,,,,10,,69,0
17639,note_on,,0,0,12,,,,,,,,,,,,,,,,15,,57,0
17639,note_on,,119,0,10,,,,,,,,,,,,,,,,12,,60,0
17639,note_on,,0,0,12,,,,,,,,,,,,,,,,15,,65,0
17640,note_on,,1,0,8,,,,,,,,,,,,,,,,10,,67,72
17640,note_on,,1,0,5,,,,,,,,,,,,,,,,2,,36,72
17640,note_on,,0,0,12,,,,,,,,,,,,,,,,15,,55,72
17640,note_on,,0,0,12,,,,,,,,,,,,,,,,15,,60,72
17640,note_on,,1,0,10,,,,,,,,,,,,,,,,12,,58,72
17640,note_on,,1,0,11,,,,,,,,,,,,,,,,13,,36,72
17640,note_on,,1,0,9,,,,,,,,,,,,,,,,11,,64,72
17640,note_on,,0,0,12,,,,,,,,,,,,,,,,15,,64,72
17640,note_on,,1,0,12,,,,,,,,,,,,,,,,15,,36,72
17699,note_on,,59,0,12,,,,,,,,,,,,,,,,15,,36,0
17699,note_on,,59,0,11,,,,,,,,,,,,,,,,13,,36,0
17699,note_on,,59,0,10,,,,,,,,,,,,,,,,12,,58,0
17699,note_on,,59,0,9,,,,,,,,,,,,,,,,11,,64,0
17699,note_on,,0,0,12,,,,,,,,,,,,,,,,15,,55,0
17699,note_on,,0,0,12,,,,,,,,,,,,,,,,15,,60,0
17699,note_on,,59,0,5,,,,,,,,,,,,,,,,2,,36,0
17699,note_on,,59,0,8,,,,,,,,,,,,,,,,10,,67,0
17699,note_on,,0,0,12,,,,,,,,,,,,,,,,15,,64,0
17700,note_on,,1,0,5,,,,,,,,,,,,,,,,2,,41,72
17700,note_on,,0,0,12,,,,,,,,,,,,,,,,15,,57,72
17700,note_on,,0,0,12,,,,,,,,,,,,,,,,15,,60,72
17700,note_on,,1,0,11,,,,,,,,,,,,,,,,13,,41,72
17700,note_on,,1,0,9,,,,,,,,,,,,,,,,11,,65,72
17700,note_on,,1,0,12,,,,,,,,,,,,,,,,15,,41,72
17700,note_on,,0,0,12,,,,,,,,,,,,,,,,15,,65,72
17700,note_on,,1,0,8,,,,,,,,,,,,,,,,10,,65,72
17700,note_on,,1,0,10,,,,,,,,,,,,,,,,12,,57,72
17819,note_on,,119,0,10,,,,,,,,,,,,,,,,12,,57,0
17819,note_on,,119,0,9,,,,,,,,,,,,,,,,11,,65,0
17820,note_on,,1,0,10,,,,,,,,,,,,,,,,12,,58,72
17820,note_on,,1,0,9,,,,,,,,,,,,,,,,11,,62,72
17879,note_on,,59,0,10,,,,,,,,,,,,,,,,12,,58,0
17879,note_on,,59,0,9,,,,,,,,,,,,,,,,11,,62,0
17880,note_on,,1,0,9,,,,,,,,,,,,,,,,11,,60,72
17880,note_on,,1,0,10,,,,,,,,,,,,,,,,12,,57,72
17999,note_on,,119,0,10,,,,,,,,,,,,,,,,12,,57,0
17999,note_on,,299,0,8,,,,,,,,,,,,,,,,10,,65,0
17999,note_on,,119,0,9,,,,,,,,,,,,,,,,11,,60,0
17999,note_on,,0,0,12,,,,,,,,,,,,,,,,15,,57,0
17999,note_on,,0,0,12,,,,,,,,,,,,,,,,15,,60,0
17999,note_on,,299,0,12,,,,,,,,,,,,,,,,15,,65,0
18000,note_on,,1,0,9,,,,,,,,,,,,,,,,11,,74,48
18000,note_on,,18000,0,6,,,,,,,,,,,,,,,,5,,77,64
18000,note_on,,1,0,8,,,,,,,,,,,,,,,,10,,77,48
18000,note_on,,1,0,10,,,,,,,,,,,,,,,,12,,70,48
18059,note_on,,359,0,11,,,,,,,,,,,,,,,,13,,41,0
18059,note_on,,59,0,9,,,,,,,,,,,,,,,,11,,74,0
18059,note_on,,60,0,12,,,,,,,,,,,,,,,,15,,41,0
18059,note_on,,59,0,10,,,,,,,,,,,,,,,,12,,70,0
18059,note_on,,59,0,6,,,,,,,,,,,,,,,,5,,77,0
18059,note_on,,359,0,5,,,,,,,,,,,,,,,,2,,41,0
18059,note_on,,59,0,8,,,,,,,,,,,,,,,,10,,77,0
18060,note_on,,1,0,8,,,,,,,,,,,,,,,,10,,77,48
18060,note_on,,1,0,12,,,,,,,,,,,,,,,,15,,46,48
18060,key_signature,,17280,1,0,,,,,,,,Bb,,,,,,,,,,,
18060,note_on,,0,0,12,,,,,,,,,,,,,,,,15,,62,48
18060,note_on,,0,0,12,,,,,,,,,,,,,,,,15,,65,48
18060,note_on,,0,0,12,,,,,,,,,,,,,,,,15,,53,48
18060,note_on,,1,0,6,,,,,,,,,,,,,,,,5,,77,64
18060,note_on,,1,0,11,,,,,,,,,,,,,,,,13,,46,48
18060,note_on,,0,0,12,,,,,,,,,,,,,,,,15,,58,48
18060,note_on,,1,0,10,,,,,,,,,,,,,,,,12,,70,48
18060,note_on,,1,0,9,,,,,,,,,,,,,,,,11,,74,48
18179,note_on,,119,0,9,,,,,,,,,,,,,,,,11,,74,0
18179,note_on,,119,0,10,,,,,,,,,,,,,,,,12,,70,0
18179,note_on,,119,0,8,,,,,,,,,,,,,,,,10,,77,0
18179,note_on,,119,0,6,,,,,,,,,,,,,,,,5,,77,0
18180,note_on,,1,0,6,,,,,,,,,,,,,,,,5,,75,64
18180,note_on,,1,0,9,,,,,,,,,,,,,,,,11,,72,48
18180,note_on,,1,0,10,,,,,,,,,,,,,,,,12,,63,48
18180,note_on,,1,0,8,,,,,,,,,,,,,,,,10,,75,48
18239,note_on,,59,0,10,,,,,,,,,,,,,,,,12,,63,0
18239,note_on,,59,0,6,,,,,,,,,,,,,,,,5,,75,0
18239,note_on,,59,0,9,,,,,,,,,,,,,,,,11,,72,0
18239,note_on,,59,0,8,,,,,,,,,,,,,,,,10,,75,0
18240,note_on,,1,0,10,,,,,,,,,,,,,,,,12,,65,48
18240,note_on,,1,0,8,,,,,,,,,,,,,,,,10,,74,48
18240,note_on,,1,0,6,,,,,,,,,,,,,,,,5,,74,64
18240,note_on,,1,0,9,,,,,,,,,,,,,,,,11,,70,48
18359,note_on,,119,0,8,,,,,,,,,,,,,,,,10,,74,0
18359,note_on,,119,0,6,,,,,,,,,,,,,,,,5,,74,0
18359,note_on,,119,0,10,,,,,,,,,,,,,,,,12,,65,0
18359,note_on,,119,0,9,,,,,,,,,,,,,,,,11,,70,0
18360,note_on,,1,0,9,,,,,,,,,,,,,,,,11,,69,48
18360,note_on,,1,0,10,,,,,,,,,,,,,,,,12,,63,48
18360,note_on,,1,0,8,,,,,,,,,,,,,,,,10,,72,48
18360,note_on,,1,0,6,,,,,,,,,,,,,,,,5,,72,64
18419,note_on,,0,0,12,,,,,,,,,,,,,,,,15,,58,0
18419,note_on,,0,0,12,,,,,,,,,,,,,,,,15,,62,0
18419,note_on,,359,0,12,,,,,,,,,,,,,,,,15,,65,0
18419,note_on,,59,0,9,,,,,,,,,,,,,,,,11,,69,0
18419,note_on,,59,0,10,,,,,,,,,,,,,,,,12,,63,0
18419,note_on,,59,0,8,,,,,,,,,,,,,,,,10,,72,0
18419,note_on,,0,0,12,,,,,,,,,,,,,,,,15,,53,0
18419,note_on,,59,0,6,,,,,,,,,,,,,,,,5,,72,0
18420,note_on,,1,0,9,,,,,,,,,,,,,,,,11,,70,48
18420,note_on,,1,0,8,,,,,,,,,,,,,,,,10,,70,48
18420,note_on,,1,0,10,,,,,,,,,,,,,,,,12,,62,48
18420,note_on,,0,0,12,,,,,,,,,,,,,,,,15,,53,48
18420,note_on,,1,0,6,,,,,,,,,,,,,,,,5,,70,64
18420,note_on,,0,0,12,,,,,,,,,,,,,,,,15,,58,48
18420,note_on,,1,0,12,,,,,,,,,,,,,,,,15,,62,48
18539,note_on,,119,0,9,,,,,,,,,,,,,,,,11,,70,0
18539,note_on,,119,0,10,,,,,,,,,,,,,,,,12,,62,0
18540,note_on,,1,0,9,,,,,,,,,,,,,,,,11,,67,48
18540,note_on,,1,0,10,,,,,,,,,,,,,,,,12,,63,48
18599,note_on,,59,0,9,,,,,,,,,,,,,,,,11,,67,0
18599,note_on,,59,0,10,,,,,,,,,,,,,,,,12,,63,0
18600,note_on,,1,0,9,,,,,,,,,,,,,,,,11,,65,48
18600,note_on,,1,0,10,,,,,,,,,,,,,,,,12,,62,48
18719,note_on,,119,0,9,,,,,,,,,,,,,,,,11,,65,0
18719,note_on,,299,0,6,,,,,,,,,,,,,,,,5,,70,0
18719,note_on,,299,0,8,,,,,,,,,,,,,,,,10,,70,0
18719,note_on,,119,0,10,,,,,,,,,,,,,,,,12,,62,0
18720,note_on,,1,0,10,,,,,,,,,,,,,,,,12,,60,48
18720,note_on,,1,0,6,,,,,,,,,,,,,,,,5,,69,64
18720,note_on,,1,0,8,,,,,,,,,,,,,,,,10,,69,48
18720,note_on,,1,0,9,,,,,,,,,,,,,,,,11,,63,48
18779,note_on,,59,0,8,,,,,,,,,,,,,,,,10,,69,0
18779,note_on,,0,0,12,,,,,,,,,,,,,,,,15,,53,0
18779,note_on,,359,0,12,,,,,,,,,,,,,,,,15,,62,0
18779,note_on,,59,0,9,,,,,,,,,,,,,,,,11,,63,0
18779,note_on,,59,0,6,,,,,,,,,,,,,,,,5,,69,0
18779,note_on,,59,0,10,,,,,,,,,,,,,,,,12,,60,0
18779,note_on,,0,0,12,,,,,,,,,,,,,,,,15,,58,0
18780,note_on,,0,0,12,,,,,,,,,,,,,,,,15,,62,48
18780,note_on,,1,0,9,,,,,,,,,,,,,,,,11,,65,48
18780,note_on,,0,0,12,,,,,,,,,,,,,,,,15,,58,48
18780,note_on,,1,0,12,,,,,,,,,,,,,,,,15,,65,48
18780,note_on,,1,0,8,,,,,,,,,,,,,,,,10,,70,48
18780,note_on,,1,0,6,,,,,,,,,,,,,,,,5,,70,64
18780,note_on,,1,0,10,,,,,,,,,,,,,,,,12,,62,48
18899,note_on,,119,0,8,,,,,,,,,,,,,,,,10,,70,0
18899,note_on,,119,0,9,,,,,,,,,,,,,,,,11,,65,0
18899,note_on,,119,0,6,,,,,,,,,,,,,,,,5,,70,0
18899,note_on,,119,0,10,,,,,,,,,,,,,,,,12,,62,0
18900,note_on,,1,0,8,,,,,,,,,,,,,,,,10,,72,48
18900,note_on,,1,0,9,,,,,,,,,,,,,,,,11,,69,48
18900,note_on,,1,0,6,,,,,,,,,,,,,,,,5,,72,64
18900,note_on,,1,0,10,,,,,,,,,,,,,,,,12,,65,48
18959,note_on,,59,0,10,,,,,,,,,,,,,,,,12,,65,0
18959,note_on,,59,0,9,,,,,,,,,,,,,,,,11,,69,0
18959,note_on,,59,0,6,,,,,,,,,,,,,,,,5,,72,0
18959,note_on,,59,0,8,,,,,,,,,,,,,,,,10,,72,0
18959,note_on,,0,0,12,,,,,,,,,,,,,,,,15,,58,0
18959,note_on,,0,0,12,,,,,,,,,,,,,,,,15,,62,0
18959,note_on,,179,0,12,,,,,,,,,,,,,,,,15,,65,0
18960,note_on,,0,0,12,,,,,,,,,,,,,,,,15,,62,48
18960,note_on,,1,0,12,,,,,,,,,,,,,,,,15,,70,48
18960,note_on,,1,0,10,,,,,,,,,,,,,,,,12,,65,48
18960,note_on,,1,0,9,,,,,,,,,,,,,,,,11,,70,48
18960,note_on,,1,0,6,,,,,,,,,,,,,,,,5,,74,64
18960,note_on,,0,0,12,,,,,,,,,,,,,,,,15,,65,48
18960,note_on,,1,0,8,,,,,,,,,,,,,,,,10,,74,48
19049,note_on,,89,0,6,,,,,,,,,,,,,,,,5,,74,0
19049,note_on,,89,0,8,,,,,,,,,,,,,,,,10,,74,0
19049,note_on,,89,0,9,,,,,,,,,,,,,,,,11,,70,0
19050,note_on,,1,0,9,,,,,,,,,,,,,,,,11,,72,48
19050,note_on,,1,0,6,,,,,,,,,,,,,,,,5,,75,64
19050,note_on,,1,0,8,,,,,,,,,,,,,,,,10,,75,48
19079,note_on,,29,0,8,,,,,,,,,,,,,,,,10,,75,0
19079,note_on,,1019,0,11,,,,,,,,,,,,,,,,13,,46,0
19079,note_on,,119,0,12,,,,,,,,,,,,,,,,15,,46,0
19079,note_on,,29,0,6,,,,,,,,,,,,,,,,5,,75,0
19079,note_on,,119,0,10,,,,,,,,,,,,,,,,12,,65,0
19079,note_on,,29,0,9,,,,,,,,,,,,,,,,11,,72,0
19080,note_on,,1,0,12,,,,,,,,,,,,,,,,15,,58,48
19080,note_on,,1,0,11,,,,,,,,,,,,,,,,13,,58,48
19080,note_on,,1,0,10,,,,,,,,,,,,,,,,12,,65,48
19080,note_on,,1,0,6,,,,,,,,,,,,,,,,5,,77,64
19080,note_on,,1,0,9,,,,,,,,,,,,,,,,11,,74,48
19080,note_on,,1,0,8,,,,,,,,,,,,,,,,10,,77,48
19139,note_on,,0,0,12,,,,,,,,,,,,,,,,15,,62,0
19139,note_on,,59,0,8,,,,,,,,,,,,,,,,10,,77,0
19139,note_on,,59,0,10,,,,,,,,,,,,,,,,12,,65,0
19139,note_on,,59,0,11,,,,,,,,,,,,,,,,13,,58,0
19139,note_on,,59,0,6,,,,,,,,,,,,,,,,5,,77,0
19139,note_on,,59,0,9,,,,,,,,,,,,,,,,11,,74,0
19139,note_on,,59,0,12,,,,,,,,,,,,,,,,15,,70,0
19139,note_on,,0,0,12,,,,,,,,,,,,,,,,15,,65,0
19139,note_on,,0,0,12,,,,,,,,,,,,,,,,15,,58,0
19140,note_on,,1,0,9,,,,,,,,,,,,,,,,11,,72,48
19140,note_on,,0,0,12,,,,,,,,,,,,,,,,15,,77,48
19140,note_on,,0,0,12,,,,,,,,,,,,,,,,15,,65,48
19140,note_on,,0,0,12,,,,,,,,,,,,,,,,15,,72,48
19140,note_on,,1,0,11,,,,,,,,,,,,,,,,13,,57,48
19140,note_on,,1,0,8,,,,,,,,,,,,,,,,10,,65,48
19140,note_on,,1,0,10,,,,,,,,,,,,,,,,12,,65,48
19140,note_on,,1,0,12,,,,,,,,,,,,,,,,15,,57,48
19140,note_on,,1,0,6,,,,,,,,,,,,,,,,5,,65,64
19259,note_on,,119,0,12,,,,,,,,,,,,,,,,15,,57,0
19259,note_on,,0,0,12,,,,,,,,,,,,,,,,15,,72,0
19259,note_on,,119,0,9,,,,,,,,,,,,,,,,11,,72,0
19259,note_on,,119,0,10,,,,,,,,,,,,,,,,12,,65,0
19259,note_on,,119,0,11,,,,,,,,,,,,,,,,13,,57,0
19260,note_on,,1,0,12,,,,,,,,,,,,,,,,15,,55,48
19260,note_on,,0,0,12,,,,,,,,,,,,,,,,15,,70,48
19260,note_on,,1,0,10,,,,,,,,,,,,,,,,12,,67,48
19260,note_on,,1,0,11,,,,,,,,,,,,,,,,13,,55,48
19260,note_on,,1,0,9,,,,,,,,,,,,,,,,11,,70,48
19319,note_on,,59,0,12,,,,,,,,,,,,,,,,15,,77,0
19319,note_on,,0,0,12,,,,,,,,,,,,,,,,15,,65,0
19319,note_on,,0,0,12,,,,,,,,,,,,,,,,15,,55,0
19319,note_on,,0,0,12,,,,,,,,,,,,,,,,15,,70,0
19319,note_on,,59,0,10,,,,,,,,,,,,,,,,12,,67,0
19319,note_on,,59,0,11,,,,,,,,,,,,,,,,13,,55,0
19319,note_on,,59,0,9,,,,,,,,,,,,,,,,11,,70,0
19319,note_on,,179,0,6,,,,,,,,,,,,,,,,5,,65,0
19319,note_on,,179,0,8,,,,,,,,,,,,,,,,10,,65,0
19320,note_on,,1,0,10,,,,,,,,,,,,,,,,12,,69,48
19320,note_on,,1,0,11,,,,,,,,,,,,,,,,13,,53,48
19320,note_on,,1,0,9,,,,,,,,,,,,,,,,11,,72,48
19320,note_on,,1,0,12,,,,,,,,,,,,,,,,15,,53,48
19320,note_on,,0,0,12,,,,,,,,,,,,,,,,15,,72,48
19320,note_on,,0,0,12,,,,,,,,,,,,,,,,15,,69,48
19320,note_on,,0,0,12,,,,,,,,,,,,,,,,15,,65,48
19439,note_on,,119,0,10,,,,,,,,,,,,,,,,12,,69,0
19439,note_on,,119,0,12,,,,,,,,,,,,,,,,15,,53,0
19439,note_on,,119,0,11,,,,,,,,,,,,,,,,13,,53,0
19439,note_on,,119,0,9,,,,,,,,,,,,,,,,11,,72,0
19440,note_on,,1,0,9,,,,,,,,,,,,,,,,11,,72,48
19440,note_on,,1,0,11,,,,,,,,,,,,,,,,13,,51,48
19440,note_on,,1,0,10,,,,,,,,,,,,,,,,12,,69,48
19440,note_on,,121,0,6,,,,,,,,,,,,,,,,5,,77,64
19440,note_on,,1,0,12,,,,,,,,,,,,,,,,15,,51,48
19440,note_on,,121,0,8,,,,,,,,,,,,,,,,10,,77,48
19499,note_on,,59,0,12,,,,,,,,,,,,,,,,15,,72,0
19499,note_on,,0,0,12,,,,,,,,,,,,,,,,15,,69,0
19499,note_on,,0,0,12,,,,,,,,,,,,,,,,15,,51,0
19499,note_on,,59,0,9,,,,,,,,,,,,,,,,11,,72,0
19499,note_on,,59,0,11,,,,,,,,,,,,,,,,13,,51,0
19499,note_on,,0,0,12,,,,,,,,,,,,,,,,15,,65,0
19499,note_on,,59,0,6,,,,,,,,,,,,,,,,5,,77,0
19499,note_on,,59,0,8,,,,,,,,,,,,,,,,10,,77,0
19499,note_on,,59,0,10,,,,,,,,,,,,,,,,12,,69,0
19500,note_on,,1,0,9,,,,,,,,,,,,,,,,11,,74,48
19500,note_on,,1,0,6,,,,,,,,,,,,,,,,5,,77,64
19500,note_on,,1,0,12,,,,,,,,,,,,,,,,15,,50,48
19500,note_on,,0,0,12,,,,,,,,,,,,,,,,15,,70,48
19500,note_on,,0,0,12,,,,,,,,,,,,,,,,15,,74,48
19500,note_on,,1,0,8,,,,,,,,,,,,,,,,10,,77,48
19500,note_on,,1,0,10,,,,,,,,,,,,,,,,12,,70,48
19500,note_on,,1,0,11,,,,,,,,,,,,,,,,13,,50,48
19500,note_on,,0,0,12,,,,,,,,,,,,,,,,15,,65,48
19619,note_on,,119,0,8,,,,,,,,,,,,,,,,10,,77,0
19619,note_on,,119,0,6,,,,,,,,,,,,,,,,5,,77,0
19619,note_on,,119,0,9,,,,,,,,,,,,,,,,11,,74,0
19620,note_on,,1,0,8,,,,,,,,,,,,,,,,10,,75,48
19620,note_on,,1,0,6,,,,,,,,,,,,,,,,5,,75,64
19620,note_on,,1,0,9,,,,,,,,,,,,,,,,11,,72,48
19679,note_on,,59,0,8,,,,,,,,,,,,,,,,10,,75,0
19679,note_on,,0,0,12,,,,,,,,,,,,,,,,15,,65,0
19679,note_on,,0,0,12,,,,,,,,,,,,,,,,15,,74,0
19679,note_on,,179,0,12,,,,,,,,,,,,,,,,15,,50,0
19679,note_on,,0,0,12,,,,,,,,,,,,,,,,15,,70,0
19679,note_on,,59,0,9,,,,,,,,,,,,,,,,11,,72,0
19679,note_on,,59,0,6,,,,,,,,,,,,,,,,5,,75,0
19679,note_on,,179,0,10,,,,,,,,,,,,,,,,12,,70,0
19679,note_on,,179,0,11,,,,,,,,,,,,,,,,13,,50,0
19680,note_on,,1,0,6,,,,,,,,,,,,,,,,5,,74,64
19680,note_on,,1,0,9,,,,,,,,,,,,,,,,11,,70,48
19680,note_on,,1,0,10,,,,,,,,,,,,,,,,12,,65,48
19680,note_on,,1,0,8,,,,,,,,,,,,,,,,10,,74,48
19680,note_on,,1,0,12,,,,,,,,,,,,,,,,15,,53,48
19680,note_on,,0,0,12,,,,,,,,,,,,,,,,15,,70,48
19680,note_on,,0,0,12,,,,,,,,,,,,,,,,15,,62,48
19680,note_on,,0,0,12,,,,,,,,,,,,,,,,15,,65,48
19680,note_on,,1,0,11,,,,,,,,,,,,,,,,13,,53,48
19799,note_on,,119,0,9,,,,,,,,,,,,,,,,11,,70,0
19799,note_on,,119,0,12,,,,,,,,,,,,,,,,15,,70,0
19799,note_on,,119,0,8,,,,,,,,,,,,,,,,10,,74,0
19799,note_on,,0,0,12,,,,,,,,,,,,,,,,15,,62,0
19799,note_on,,119,0,6,,,,,,,,,,,,,,,,5,,74,0
19800,note_on,,1,0,9,,,,,,,,,,,,,,,,11,,69,48
19800,note_on,,1,0,6,,,,,,,,,,,,,,,,5,,72,64
19800,note_on,,1,0,12,,,,,,,,,,,,,,,,15,,60,48
19800,note_on,,0,0,12,,,,,,,,,,,,,,,,15,,69,48
19800,note_on,,1,0,8,,,,,,,,,,,,,,,,10,,72,48
19859,note_on,,59,0,9,,,,,,,,,,,,,,,,11,,69,0
19859,note_on,,0,0,12,,,,,,,,,,,,,,,,15,,69,0
19859,note_on,,0,0,12,,,,,,,,,,,,,,,,15,,65,0
19859,note_on,,179,0,10,,,,,,,,,,,,,,,,12,,65,0
19859,note_on,,59,0,12,,,,,,,,,,,,,,,,15,,53,0
19859,note_on,,59,0,6,,,,,,,,,,,,,,,,5,,72,0
19859,note_on,,179,0,11,,,,,,,,,,,,,,,,13,,53,0
19859,note_on,,0,0,12,,,,,,,,,,,,,,,,15,,60,0
19859,note_on,,59,0,8,,,,,,,,,,,,,,,,10,,72,0
19860,note_on,,1,0,11,,,,,,,,,,,,,,,,13,,55,48
19860,note_on,,0,0,12,,,,,,,,,,,,,,,,15,,70,48
19860,note_on,,0,0,12,,,,,,,,,,,,,,,,15,,58,48
19860,note_on,,1,0,9,,,,,,,,,,,,,,,,11,,70,48
19860,note_on,,0,0,12,,,,,,,,,,,,,,,,15,,62,48
19860,note_on,,1,0,12,,,,,,,,,,,,,,,,15,,55,48
19860,note_on,,1,0,6,,,,,,,,,,,,,,,,5,,70,64
19860,note_on,,1,0,10,,,,,,,,,,,,,,,,12,,62,48
19860,note_on,,1,0,8,,,,,,,,,,,,,,,,10,,70,48
19979,note_on,,119,0,10,,,,,,,,,,,,,,,,12,,62,0
19979,note_on,,119,0,12,,,,,,,,,,,,,,,,15,,55,0
19979,note_on,,0,0,12,,,,,,,,,,,,,,,,15,,62,0
19979,note_on,,119,0,9,,,,,,,,,,,,,,,,11,,70,0
19979,note_on,,119,0,11,,,,,,,,,,,,,,,,13,,55,0
19980,note_on,,1,0,10,,,,,,,,,,,,,,,,12,,62,48
19980,note_on,,1,0,12,,,,,,,,,,,,,,,,15,,53,48
19980,note_on,,1,0,11,,,,,,,,,,,,,,,,13,,53,48
19980,note_on,,1,0,9,,,,,,,,,,,,,,,,11,,69,48
19980,note_on,,0,0,12,,,,,,,,,,,,,,,,15,,69,48
20039,note_on,,0,0,12,,,,,,,,,,,,,,,,15,,53,0
20039,note_on,,59,0,10,,,,,,,,,,,,,,,,12,,62,0
20039,note_on,,59,0,9,,,,,,,,,,,,,,,,11,,69,0
20039,note_on,,0,0,12,,,,,,,,,,,,,,,,15,,69,0
20039,note_on,,59,0,12,,,,,,,,,,,,,,,,15,,58,0
20039,note_on,,0,0,12,,,,,,,,,,,,,,,,15,,70,0
20039,note_on,,59,0,11,,,,,,,,,,,,,,,,13,,53,0
20040,note_on,,0,0,12,,,,,,,,,,,,,,,,15,,67,48
20040,note_on,,0,0,12,,,,,,,,,,,,,,,,15,,60,48
20040,note_on,,1,0,12,,,,,,,,,,,,,,,,15,,52,48
20040,note_on,,1,0,11,,,,,,,,,,,,,,,,13,,52,48
20040,note_on,,1,0,10,,,,,,,,,,,,,,,,12,,64,48
20040,note_on,,1,0,9,,,,,,,,,,,,,,,,11,,67,48
20040,note_on,,0,0,12,,,,,,,,,,,,,,,,15,,79,48
20159,note_on,,299,0,8,,,,,,,,,,,,,,,,10,,70,0
20159,note_on,,119,0,12,,,,,,,,,,,,,,,,15,,52,0
20159,note_on,,119,0,11,,,,,,,,,,,,,,,,13,,52,0
20159,note_on,,119,0,10,,,,,,,,,,,,,,,,12,,64,0
20159,note_on,,119,0,9,,,,,,,,,,,,,,,,11,,67,0
20159,note_on,,0,0,12,,,,,,,,,,,,,,,,15,,79,0
20159,note_on,,299,0,6,,,,,,,,,,,,,,,,5,,70,0
20160,note_on,,1,0,9,,,,,,,,,,,,,,,,11,,65,48
20160,note_on,,1,0,11,,,,,,,,,,,,,,,,13,,50,48
20160,note_on,,1,0,8,,,,,,,,,,,,,,,,10,,70,48
20160,note_on,,1,0,6,,,,,,,,,,,,,,,,5,,70,64
20160,note_on,,1,0,12,,,,,,,,,,,,,,,,15,,50,48
20160,note_on,,0,0,12,,,,,,,,,,,,,,,,15,,77,48
20160,note_on,,1,0,10,,,,,,,,,,,,,,,,12,,65,48
20219,note_on,,59,0,11,,,,,,,,,,,,,,,,13,,50,0
20219,note_on,,59,0,12,,,,,,,,,,,,,,,,15,,60,0
20219,note_on,,0,0,12,,,,,,,,,,,,,,,,15,,67,0
20219,note_on,,0,0,12,,,,,,,,,,,,,,,,15,,50,0
20219,note_on,,0,0,12,,,,,,,,,,,,,,,,15,,77,0
20219,note_on,,59,0,9,,,,,,,,,,,,,,,,11,,65,0
20219,note_on,,59,0,6,,,,,,,,,,,,,,,,5,,70,0
20219,note_on,,59,0,10,,,,,,,,,,,,,,,,12,,65,0
20219,note_on,,59,0,8,,,,,,,,,,,,,,,,10,,70,0
20220,note_on,,1,0,8,,,,,,,,,,,,,,,,10,,79,48
20220,note_on,,0,0,12,,,,,,,,,,,,,,,,15,,48,48
20220,note_on,,1,0,12,,,,,,,,,,,,,,,,15,,76,48
20220,note_on,,0,0,12,,,,,,,,,,,,,,,,15,,67,48
20220,note_on,,1,0,6,,,,,,,,,,,,,,,,5,,79,64
20220,note_on,,1,0,10,,,,,,,,,,,,,,,,12,,67,48
20220,note_on,,1,0,11,,,,,,,,,,,,,,,,13,,48,48
20220,note_on,,1,0,9,,,,,,,,,,,,,,,,11,,64,48
20220,note_on,,0,0,12,,,,,,,,,,,,,,,,15,,72,48
20339,note_on,,119,0,6,,,,,,,,,,,,,,,,5,,79,0
20339,note_on,,119,0,9,,,,,,,,,,,,,,,,11,,64,0
20339,note_on,,119,0,8,,,,,,,,,,,,,,,,10,,79,0
20340,note_on,,1,0,8,,,,,,,,,,,,,,,,10,,77,48
20340,note_on,,1,0,6,,,,,,,,,,,,,,,,5,,77,64
20340,note_on,,1,0,9,,,,,,,,,,,,,,,,11,,65,48
20399,note_on,,179,0,10,,,,,,,,,,,,,,,,12,,67,0
20399,note_on,,59,0,8,,,,,,,,,,,,,,,,10,,77,0
20399,note_on,,59,0,6,,,,,,,,,,,,,,,,5,,77,0
20399,note_on,,59,0,9,,,,,,,,,,,,,,,,11,,65,0
20400,note_on,,1,0,8,,,,,,,,,,,,,,,,10,,76,48
20400,note_on,,1,0,10,,,,,,,,,,,,,,,,12,,60,48
20400,note_on,,1,0,6,,,,,,,,,,,,,,,,5,,76,64
20400,note_on,,1,0,9,,,,,,,,,,,,,,,,11,,67,48
20459,note_on,,59,0,6,,,,,,,,,,,,,,,,5,,76,0
20459,note_on,,59,0,8,,,,,,,,,,,,,,,,10,,76,0
20460,note_on,,1,0,8,,,,,,,,,,,,,,,,10,,74,48
20460,note_on,,1,0,6,,,,,,,,,,,,,,,,5,,74,64
20519,note_on,,59,0,8,,,,,,,,,,,,,,,,10,,74,0
20519,note_on,,119,0,9,,,,,,,,,,,,,,,,11,,67,0
20519,note_on,,59,0,6,,,,,,,,,,,,,,,,5,,74,0
20520,note_on,,1,0,8,,,,,,,,,,,,,,,,10,,72,48
20520,note_on,,1,0,6,,,,,,,,,,,,,,,,5,,72,64
20520,note_on,,1,0,9,,,,,,,,,,,,,,,,11,,69,48
20579,note_on,,0,0,12,,,,,,,,,,,,,,,,15,,72,0
20579,note_on,,179,0,10,,,,,,,,,,,,,,,,12,,60,0
20579,note_on,,359,0,12,,,,,,,,,,,,,,,,15,,76,0
20579,note_on,,59,0,8,,,,,,,,,,,,,,,,10,,72,0
20579,note_on,,0,0,12,,,,,,,,,,,,,,,,15,,67,0
20579,note_on,,59,0,9,,,,,,,,,,,,,,,,11,,69,0
20579,note_on,,59,0,6,,,,,,,,,,,,,,,,5,,72,0
20580,note_on,,1,0,9,,,,,,,,,,,,,,,,11,,67,48
20580,note_on,,1,0,12,,,,,,,,,,,,,,,,15,,79,48
20580,note_on,,0,0,12,,,,,,,,,,,,,,,,15,,76,48
20580,note_on,,1,0,10,,,,,,,,,,,,,,,,12,,64,48
20580,note_on,,0,0,12,,,,,,,,,,,,,,,,15,,72,48
20580,note_on,,0,0,12,,,,,,,,,,,,,,,,15,,67,48
20580,note_on,,1,0,6,,,,,,,,,,,,,,,,5,,70,64
20580,note_on,,1,0,8,,,,,,,,,,,,,,,,10,,70,48
20609,note_on,,29,0,6,,,,,,,,,,,,,,,,5,,70,0
20609,note_on,,29,0,8,,,,,,,,,,,,,,,,10,,70,0
20610,note_on,,1,0,8,,,,,,,,,,,,,,,,10,,69,48
20610,note_on,,1,0,6,,,,,,,,,,,,,,,,5,,69,64
20639,note_on,,29,0,6,,,,,,,,,,,,,,,,5,,69,0
20639,note_on,,29,0,8,,,,,,,,,,,,,,,,10,,69,0
20640,note_on,,1,0,6,,,,,,,,,,,,,,,,5,,70,64
20640,note_on,,1,0,8,,,,,,,,,,,,,,,,10,,70,48
20879,note_on,,0,0,12,,,,,,,,,,,,,,,,15,,72,0
20879,note_on,,239,0,8,,,,,,,,,,,,,,,,10,,70,0
20879,note_on,,239,0,6,,,,,,,,,,,,,,,,5,,70,0
20879,note_on,,299,0,9,,,,,,,,,,,,,,,,11,,67,0
20879,note_on,,299,0,12,,,,,,,,,,,,,,,,15,,79,0
20879,note_on,,0,0,12,,,,,,,,,,,,,,,,15,,76,0
20879,note_on,,299,0,10,,,,,,,,,,,,,,,,12,,64,0
20879,note_on,,0,0,12,,,,,,,,,,,,,,,,15,,67,0
20880,note_on,,0,0,12,,,,,,,,,,,,,,,,15,,72,48
20880,note_on,,1,0,8,,,,,,,,,,,,,,,,10,,72,48
20880,note_on,,1,0,10,,,,,,,,,,,,,,,,12,,64,48
20880,note_on,,1,0,6,,,,,,,,,,,,,,,,5,,72,64
20880,note_on,,0,0,12,,,,,,,,,,,,,,,,15,,67,48
20880,note_on,,1,0,12,,,,,,,,,,,,,,,,15,,76,48
20880,note_on,,1,0,9,,,,,,,,,,,,,,,,11,,67,48
20939,note_on,,0,0,12,,,,,,,,,,,,,,,,15,,76,0
20939,note_on,,59,0,12,,,,,,,,,,,,,,,,15,,48,0
20939,note_on,,0,0,12,,,,,,,,,,,,,,,,15,,72,0
20939,note_on,,0,0,12,,,,,,,,,,,,,,,,15,,67,0
20939,note_on,,719,0,11,,,,,,,,,,,,,,,,13,,48,0
20939,note_on,,59,0,8,,,,,,,,,,,,,,,,10,,72,0
20939,note_on,,59,0,10,,,,,,,,,,,,,,,,12,,64,0
20939,note_on,,59,0,9,,,,,,,,,,,,,,,,11,,67,0
20939,note_on,,59,0,6,,,,,,,,,,,,,,,,5,,72,0
20940,note_on,,1,0,9,,,,,,,,,,,,,,,,11,,65,48
20940,note_on,,1,0,12,,,,,,,,,,,,,,,,15,,53,48
20940,note_on,,0,0,12,,,,,,,,,,,,,,,,15,,69,48
20940,note_on,,0,0,12,,,,,,,,,,,,,,,,15,,72,48
20940,note_on,,0,0,12,,,,,,,,,,,,,,,,15,,65,48
20940,note_on,,1,0,10,,,,,,,,,,,,,,,,12,,60,48
20940,note_on,,1,0,6,,,,,,,,,,,,,,,,5,,69,64
20940,note_on,,1,0,8,,,,,,,,,,,,,,,,10,,69,48
20940,note_on,,1,0,11,,,,,,,,,,,,,,,,13,,53,48
20999,note_on,,59,0,8,,,,,,,,,,,,,,,,10,,69,0
20999,note_on,,59,0,12,,,,,,,,,,,,,,,,15,,69,0
20999,note_on,,59,0,6,,,,,,,,,,,,,,,,5,,69,0
21000,note_on,,1,0,12,,,,,,,,,,,,,,,,15,,67,48
21000,note_on,,1,0,6,,,,,,,,,,,,,,,,5,,67,64
21000,note_on,,1,0,8,,,,,,,,,,,,,,,,10,,67,48
21059,note_on,,0,0,12,,,,,,,,,,,,,,,,15,,67,0
21059,note_on,,59,0,12,,,,,,,,,,,,,,,,15,,53,0
21059,note_on,,0,0,12,,,,,,,,,,,,,,,,15,,72,0
21059,note_on,,0,0,12,,,,,,,,,,,,,,,,15,,65,0
21059,note_on,,59,0,6,,,,,,,,,,,,,,,,5,,67,0
21059,note_on,,59,0,8,,,,,,,,,,,,,,,,10,,67,0
21059,note_on,,119,0,10,,,,,,,,,,,,,,,,12,,60,0
21059,note_on,,119,0,9,,,,,,,,,,,,,,,,11,,65,0
21059,note_on,,119,0,11,,,,,,,,,,,,,,,,13,,53,0
21060,note_on,,0,0,12,,,,,,,,,,,,,,,,15,,74,48
21060,note_on,,1,0,8,,,,,,,,,,,,,,,,10,,70,48
21060,note_on,,1,0,10,,,,,,,,,,,,,,,,12,,62,48
21060,note_on,,1,0,11,,,,,,,,,,,,,,,,13,,46,48
21060,note_on,,1,0,6,,,,,,,,,,,,,,,,5,,70,64
21060,note_on,,0,0,12,,,,,,,,,,,,,,,,15,,70,48
21060,note_on,,1,0,9,,,,,,,,,,,,,,,,11,,65,48
21060,note_on,,1,0,12,,,,,,,,,,,,,,,,15,,46,48
21060,note_on,,0,0,12,,,,,,,,,,,,,,,,15,,65,48
21119,note_on,,59,0,9,,,,,,,,,,,,,,,,11,,65,0
21119,note_on,,59,0,11,,,,,,,,,,,,,,,,13,,46,0
21119,note_on,,59,0,12,,,,,,,,,,,,,,,,15,,46,0
21119,note_on,,0,0,12,,,,,,,,,,,,,,,,15,,70,0
21119,note_on,,0,0,12,,,,,,,,,,,,,,,,15,,65,0
21119,note_on,,59,0,10,,,,,,,,,,,,,,,,12,,62,0
21119,note_on,,59,0,8,,,,,,,,,,,,,,,,10,,70,0
21119,note_on,,59,0,6,,,,,,,,,,,,,,,,5,,70,0
21119,note_on,,0,0,12,,,,,,,,,,,,,,,,15,,74,0
21120,note_on,,1,0,12,,,,,,,,,,,,,,,,15,,48,48
21120,note_on,,0,0,12,,,,,,,,,,,,,,,,15,,77,48
21120,note_on,,0,0,12,,,,,,,,,,,,,,,,15,,69,48
21120,note_on,,0,0,12,,,,,,,,,,,,,,,,15,,65,48
21120,note_on,,1,0,8,,,,,,,,,,,,,,,,10,,69,48
21120,note_on,,1,0,10,,,,,,,,,,,,,,,,12,,60,48
21120,note_on,,1,0,11,,,,,,,,,,,,,,,,13,,48,48
21120,note_on,,1,0,9,,,,,,,,,,,,,,,,11,,65,48
21120,note_on,,1,0,6,,,,,,,,,,,,,,,,5,,69,64
21179,note_on,,59,0,6,,,,,,,,,,,,,,,,5,,69,0
21179,note_on,,59,0,8,,,,,,,,,,,,,,,,10,,69,0
21180,note_on,,1,0,6,,,,,,,,,,,,,,,,5,,70,64
21180,note_on,,1,0,8,,,,,,,,,,,,,,,,10,,70,48
21239,note_on,,59,0,6,,,,,,,,,,,,,,,,5,,70,0
21239,note_on,,119,0,10,,,,,,,,,,,,,,,,12,,60,0
21239,note_on,,0,0,12,,,,,,,,,,,,,,,,15,,65,0
21239,note_on,,0,0,12,,,,,,,,,,,,,,,,15,,69,0
21239,note_on,,0,0,12,,,,,,,,,,,,,,,,15,,77,0
21239,note_on,,119,0,9,,,,,,,,,,,,,,,,11,,65,0
21239,note_on,,59,0,8,,,,,,,,,,,,,,,,10,,70,0
21239,note_on,,119,0,11,,,,,,,,,,,,,,,,13,,48,0
21239,note_on,,119,0,12,,,,,,,,,,,,,,,,15,,48,0
21240,note_on,,0,0,12,,,,,,,,,,,,,,,,15,,72,48
21240,note_on,,0,0,12,,,,,,,,,,,,,,,,15,,36,48
21240,note_on,,0,0,12,,,,,,,,,,,,,,,,15,,76,48
21240,note_on,,1,0,12,,,,,,,,,,,,,,,,15,,67,48
21240,note_on,,1,0,10,,,,,,,,,,,,,,,,12,,60,48
21240,note_on,,1,0,11,,,,,,,,,,,,,,,,13,,36,48
21240,note_on,,1,0,9,,,,,,,,,,,,,,,,11,,64,48
21240,note_on,,1,0,6,,,,,,,,,,,,,,,,5,,67,64
21240,note_on,,1,0,8,,,,,,,,,,,,,,,,10,,67,48
21299,note_on,,0,0,12,,,,,,,,,,,,,,,,15,,72,0
21299,note_on,,0,0,12,,,,,,,,,,,,,,,,15,,76,0
21299,note_on,,0,0,12,,,,,,,,,,,,,,,,15,,36,0
21299,note_on,,59,0,10,,,,,,,,,,,,,,,,12,,60,0
21299,note_on,,59,0,12,,,,,,,,,,,,,,,,15,,67,0
21299,note_on,,59,0,6,,,,,,,,,,,,,,,,5,,67,0
21299,note_on,,59,0,9,,,,,,,,,,,,,,,,11,,64,0
21299,note_on,,59,0,8,,,,,,,,,,,,,,,,10,,67,0
21299,note_on,,59,0,11,,,,,,,,,,,,,,,,13,,36,0
21300,note_on,,1,0,6,,,,,,,,,,,,,,,,5,,65,64
21300,note_on,,1,0,12,,,,,,,,,,,,,,,,15,,53,48
21300,note_on,,0,0,12,,,,,,,,,,,,,,,,15,,77,48
21300,note_on,,0,0,12,,,,,,,,,,,,,,,,15,,72,48
21300,note_on,,0,0,12,,,,,,,,,,,,,,,,15,,69,48
21300,note_on,,1,0,11,,,,,,,,,,,,,,,,13,,53,48
21300,note_on,,1,0,9,,,,,,,,,,,,,,,,11,,69,48
21300,note_on,,1,0,8,,,,,,,,,,,,,,,,10,,65,48
21300,note_on,,1,0,10,,,,,,,,,,,,,,,,12,,60,48
21419,note_on,,119,0,11,,,,,,,,,,,,,,,,13,,53,0
21419,note_on,,119,0,9,,,,,,,,,,,,,,,,11,,69,0
21419,note_on,,119,0,12,,,,,,,,,,,,,,,,15,,53,0
21419,note_on,,119,0,10,,,,,,,,,,,,,,,,12,,60,0
21420,note_on,,1,0,10,,,,,,,,,,,,,,,,12,,60,48
21420,note_on,,1,0,11,,,,,,,,,,,,,,,,13,,51,48
21420,note_on,,1,0,12,,,,,,,,,,,,,,,,15,,51,48
21420,note_on,,1,0,9,,,,,,,,,,,,,,,,11,,67,48
21479,note_on,,59,0,11,,,,,,,,,,,,,,,,13,,51,0
21479,note_on,,59,0,10,,,,,,,,,,,,,,,,12,,60,0
21479,note_on,,59,0,12,,,,,,,,,,,,,,,,15,,51,0
21479,note_on,,59,0,9,,,,,,,,,,,,,,,,11,,67,0
21480,note_on,,1,0,11,,,,,,,,,,,,,,,,13,,50,48
21480,note_on,,1,0,10,,,,,,,,,,,,,,,,12,,62,48
21480,note_on,,1,0,9,,,,,,,,,,,,,,,,11,,65,48
21480,note_on,,1,0,12,,,,,,,,,,,,,,,,15,,50,48
21599,note_on,,119,0,12,,,,,,,,,,,,,,,,15,,50,0
21599,note_on,,119,0,11,,,,,,,,,,,,,,,,13,,50,0
21599,note_on,,299,0,8,,,,,,,,,,,,,,,,10,,65,0
21599,note_on,,119,0,10,,,,,,,,,,,,,,,,12,,62,0
21599,note_on,,119,0,9,,,,,,,,,,,,,,,,11,,65,0
21600,note_on,,1,0,8,,,,,,,,,,,,,,,,10,,77,48
21600,note_on,,1,0,10,,,,,,,,,,,,,,,,12,,63,48
21600,note_on,,1,0,12,,,,,,,,,,,,,,,,15,,48,48
21600,note_on,,1,0,9,,,,,,,,,,,,,,,,11,,69,48
21600,note_on,,1,0,11,,,,,,,,,,,,,,,,13,,48,48
21659,note_on,,59,0,11,,,,,,,,,,,,,,,,13,,48,0
21659,note_on,,59,0,8,,,,,,,,,,,,,,,,10,,77,0
21659,note_on,,0,0,12,,,,,,,,,,,,,,,,15,,48,0
21659,note_on,,0,0,12,,,,,,,,,,,,,,,,15,,69,0
21659,note_on,,0,0,12,,,,,,,,,,,,,,,,15,,72,0
21659,note_on,,59,0,12,,,,,,,,,,,,,,,,15,,77,0
21659,note_on,,59,0,10,,,,,,,,,,,,,,,,12,,63,0
21659,note_on,,59,0,9,,,,,,,,,,,,,,,,11,,69,0
21659,note_on,,359,0,6,,,,,,,,,,,,,,,,5,,65,0
21660,note_on,,1,0,10,,,,,,,,,,,,,,,,12,,65,48
21660,note_on,,0,0,12,,,,,,,,,,,,,,,,15,,74,48
21660,note_on,,0,0,12,,,,,,,,,,,,,,,,15,,70,48
21660,note_on,,0,0,12,,,,,,,,,,,,,,,,15,,65,48
21660,note_on,,1,0,8,,,,,,,,,,,,,,,,10,,77,48
21660,note_on,,1,0,12,,,,,,,,,,,,,,,,15,,46,48
21660,note_on,,1,0,11,,,,,,,,,,,,,,,,13,,46,48
21660,note_on,,0,0,12,,,,,,,,,,,,,,,,15,,77,48
21660,note_on,,1,0,9,,,,,,,,,,,,,,,,11,,74,48
21779,note_on,,119,0,8,,,,,,,,,,,,,,,,10,,77,0
21779,note_on,,119,0,9,,,,,,,,,,,,,,,,11,,74,0
21780,note_on,,1,0,9,,,,,,,,,,,,,,,,11,,72,48
21780,note_on,,1,0,8,,,,,,,,,,,,,,,,10,,75,48
21839,note_on,,59,0,9,,,,,,,,,,,,,,,,11,,72,0
21839,note_on,,59,0,8,,,,,,,,,,,,,,,,10,,75,0
21840,note_on,,1,0,9,,,,,,,,,,,,,,,,11,,70,48
21840,note_on,,1,0,8,,,,,,,,,,,,,,,,10,,74,48
21959,note_on,,119,0,8,,,,,,,,,,,,,,,,10,,74,0
21959,note_on,,299,0,10,,,,,,,,,,,,,,,,12,,65,0
21959,note_on,,119,0,9,,,,,,,,,,,,,,,,11,,70,0
21960,note_on,,1,0,9,,,,,,,,,,,,,,,,11,,69,48
21960,note_on,,1,0,8,,,,,,,,,,,,,,,,10,,72,48
21960,note_on,,1,0,10,,,,,,,,,,,,,,,,12,,63,48
22019,note_on,,0,0,12,,,,,,,,,,,,,,,,15,,70,0
22019,note_on,,0,0,12,,,,,,,,,,,,,,,,15,,65,0
22019,note_on,,59,0,9,,,,,,,,,,,,,,,,11,,69,0
22019,note_on,,359,0,12,,,,,,,,,,,,,,,,15,,77,0
22019,note_on,,59,0,10,,,,,,,,,,,,,,,,12,,63,0
22019,note_on,,0,0,12,,,,,,,,,,,,,,,,15,,74,0
22019,note_on,,59,0,8,,,,,,,,,,,,,,,,10,,72,0
22020,note_on,,1,0,9,,,,,,,,,,,,,,,,11,,70,48
22020,note_on,,0,0,12,,,,,,,,,,,,,,,,15,,65,48
22020,note_on,,0,0,12,,,,,,,,,,,,,,,,15,,70,48
22020,note_on,,1,0,10,,,,,,,,,,,,,,,,12,,62,48
22020,note_on,,1,0,12,,,,,,,,,,,,,,,,15,,74,48
22020,note_on,,1,0,8,,,,,,,,,,,,,,,,10,,70,48
22139,note_on,,119,0,9,,,,,,,,,,,,,,,,11,,70,0
22139,note_on,,119,0,10,,,,,,,,,,,,,,,,12,,62,0
22140,note_on,,1,0,10,,,,,,,,,,,,,,,,12,,63,48
22140,note_on,,1,0,9,,,,,,,,,,,,,,,,11,,67,48
22199,note_on,,59,0,9,,,,,,,,,,,,,,,,11,,67,0
22199,note_on,,59,0,10,,,,,,,,,,,,,,,,12,,63,0
22200,note_on,,1,0,10,,,,,,,,,,,,,,,,12,,62,48
22200,note_on,,1,0,9,,,,,,,,,,,,,,,,11,,65,48
22319,note_on,,119,0,9,,,,,,,,,,,,,,,,11,,65,0
22319,note_on,,119,0,10,,,,,,,,,,,,,,,,12,,62,0
22319,note_on,,299,0,8,,,,,,,,,,,,,,,,10,,70,0
22320,note_on,,1,0,8,,,,,,,,,,,,,,,,10,,74,48
22320,note_on,,1,0,10,,,,,,,,,,,,,,,,12,,58,48
22320,note_on,,661,0,6,,,,,,,,,,,,,,,,5,,77,64
22320,note_on,,1,0,9,,,,,,,,,,,,,,,,11,,77,48
22379,note_on,,0,0,12,,,,,,,,,,,,,,,,15,,65,0
22379,note_on,,0,0,12,,,,,,,,,,,,,,,,15,,70,0
22379,note_on,,359,0,12,,,,,,,,,,,,,,,,15,,74,0
22379,note_on,,59,0,8,,,,,,,,,,,,,,,,10,,74,0
22379,note_on,,59,0,6,,,,,,,,,,,,,,,,5,,77,0
22379,note_on,,59,0,9,,,,,,,,,,,,,,,,11,,77,0
22379,note_on,,59,0,10,,,,,,,,,,,,,,,,12,,58,0
22380,note_on,,1,0,9,,,,,,,,,,,,,,,,11,,77,48
22380,note_on,,1,0,8,,,,,,,,,,,,,,,,10,,74,48
22380,note_on,,1,0,6,,,,,,,,,,,,,,,,5,,77,64
22380,note_on,,1,0,10,,,,,,,,,,,,,,,,12,,70,48
22380,note_on,,0,0,12,,,,,,,,,,,,,,,,15,,62,48
22380,note_on,,0,0,12,,,,,,,,,,,,,,,,15,,65,48
22380,note_on,,1,0,12,,,,,,,,,,,,,,,,15,,70,48
22499,note_on,,119,0,6,,,,,,,,,,,,,,,,5,,77,0
22499,note_on,,119,0,9,,,,,,,,,,,,,,,,11,,77,0
22499,note_on,,119,0,8,,,,,,,,,,,,,,,,10,,74,0
22500,note_on,,1,0,6,,,,,,,,,,,,,,,,5,,75,64
22500,note_on,,1,0,9,,,,,,,,,,,,,,,,11,,75,48
22500,note_on,,1,0,8,,,,,,,,,,,,,,,,10,,72,48
22559,note_on,,59,0,6,,,,,,,,,,,,,,,,5,,75,0
22559,note_on,,59,0,8,,,,,,,,,,,,,,,,10,,72,0
22559,note_on,,179,0,10,,,,,,,,,,,,,,,,12,,70,0
22559,note_on,,59,0,9,,,,,,,,,,,,,,,,11,,75,0
22560,note_on,,1,0,6,,,,,,,,,,,,,,,,5,,74,64
22560,note_on,,1,0,8,,,,,,,,,,,,,,,,10,,70,48
22560,note_on,,1,0,9,,,,,,,,,,,,,,,,11,,74,48
22560,note_on,,1,0,10,,,,,,,,,,,,,,,,12,,65,48
22679,note_on,,119,0,9,,,,,,,,,,,,,,,,11,,74,0
22679,note_on,,119,0,10,,,,,,,,,,,,,,,,12,,65,0
22679,note_on,,119,0,8,,,,,,,,,,,,,,,,10,,70,0
22679,note_on,,119,0,6,,,,,,,,,,,,,,,,5,,74,0
22680,note_on,,1,0,8,,,,,,,,,,,,,,,,10,,69,48
22680,note_on,,1,0,9,,,,,,,,,,,,,,,,11,,72,48
22680,note_on,,1,0,10,,,,,,,,,,,,,,,,12,,63,48
22680,note_on,,1,0,6,,,,,,,,,,,,,,,,5,,72,64
22739,note_on,,59,0,8,,,,,,,,,,,,,,,,10,,69,0
22739,note_on,,59,0,9,,,,,,,,,,,,,,,,11,,72,0
22739,note_on,,59,0,10,,,,,,,,,,,,,,,,12,,63,0
22739,note_on,,0,0,12,,,,,,,,,,,,,,,,15,,65,0
22739,note_on,,0,0,12,,,,,,,,,,,,,,,,15,,62,0
22739,note_on,,359,0,12,,,,,,,,,,,,,,,,15,,70,0
22739,note_on,,59,0,6,,,,,,,,,,,,,,,,5,,72,0
22740,note_on,,1,0,6,,,,,,,,,,,,,,,,5,,70,64
22740,note_on,,1,0,8,,,,,,,,,,,,,,,,10,,70,48
22740,note_on,,1,0,9,,,,,,,,,,,,,,,,11,,70,48
22740,note_on,,1,0,12,,,,,,,,,,,,,,,,15,,62,48
22740,note_on,,0,0,12,,,,,,,,,,,,,,,,15,,58,48
22740,note_on,,0,0,12,,,,,,,,,,,,,,,,15,,53,48
22740,note_on,,1,0,10,,,,,,,,,,,,,,,,12,,62,48
22859,note_on,,119,0,10,,,,,,,,,,,,,,,,12,,62,0
22859,note_on,,119,0,9,,,,,,,,,,,,,,,,11,,70,0
22860,note_on,,1,0,9,,,,,,,,,,,,,,,,11,,67,48
22860,note_on,,1,0,10,,,,,,,,,,,,,,,,12,,63,48
22919,note_on,,59,0,9,,,,,,,,,,,,,,,,11,,67,0
22919,note_on,,59,0,10,,,,,,,,,,,,,,,,12,,63,0
22920,note_on,,1,0,10,,,,,,,,,,,,,,,,12,,62,48
22920,note_on,,1,0,9,,,,,,,,,,,,,,,,11,,65,48
23039,note_on,,119,0,10,,,,,,,,,,,,,,,,12,,62,0
23039,note_on,,299,0,8,,,,,,,,,,,,,,,,10,,70,0
23039,note_on,,119,0,9,,,,,,,,,,,,,,,,11,,65,0
23039,note_on,,299,0,6,,,,,,,,,,,,,,,,5,,70,0
23040,note_on,,1,0,6,,,,,,,,,,,,,,,,5,,69,64
23040,note_on,,1,0,10,,,,,,,,,,,,,,,,12,,60,48
23040,note_on,,1,0,8,,,,,,,,,,,,,,,,10,,69,48
23040,note_on,,1,0,9,,,,,,,,,,,,,,,,11,,63,48
23099,note_on,,59,0,9,,,,,,,,,,,,,,,,11,,63,0
23099,note_on,,59,0,6,,,,,,,,,,,,,,,,5,,69,0
23099,note_on,,59,0,10,,,,,,,,,,,,,,,,12,,60,0
23099,note_on,,359,0,12,,,,,,,,,,,,,,,,15,,62,0
23099,note_on,,0,0,12,,,,,,,,,,,,,,,,15,,58,0
23099,note_on,,0,0,12,,,,,,,,,,,,,,,,15,,53,0
23099,note_on,,59,0,8,,,,,,,,,,,,,,,,10,,69,0
23100,note_on,,1,0,10,,,,,,,,,,,,,,,,12,,58,48
23100,note_on,,1,0,12,,,,,,,,,,,,,,,,15,,65,48
23100,note_on,,0,0,12,,,,,,,,,,,,,,,,15,,62,48
23100,note_on,,0,0,12,,,,,,,,,,,,,,,,15,,58,48
23100,note_on,,1,0,8,,,,,,,,,,,,,,,,10,,70,48
23100,note_on,,1,0,6,,,,,,,,,,,,,,,,5,,70,64
23100,note_on,,1,0,9,,,,,,,,,,,,,,,,11,,62,48
23219,note_on,,119,0,6,,,,,,,,,,,,,,,,5,,70,0
23219,note_on,,119,0,8,,,,,,,,,,,,,,,,10,,70,0
23219,note_on,,119,0,10,,,,,,,,,,,,,,,,12,,58,0
23219,note_on,,119,0,9,,,,,,,,,,,,,,,,11,,62,0
23220,note_on,,1,0,8,,,,,,,,,,,,,,,,10,,72,48
23220,note_on,,1,0,10,,,,,,,,,,,,,,,,12,,57,48
23220,note_on,,1,0,6,,,,,,,,,,,,,,,,5,,72,64
23220,note_on,,1,0,9,,,,,,,,,,,,,,,,11,,65,48
23279,note_on,,179,0,12,,,,,,,,,,,,,,,,15,,65,0
23279,note_on,,59,0,9,,,,,,,,,,,,,,,,11,,65,0
23279,note_on,,59,0,6,,,,,,,,,,,,,,,,5,,72,0
23279,note_on,,0,0,12,,,,,,,,,,,,,,,,15,,62,0
23279,note_on,,59,0,8,,,,,,,,,,,,,,,,10,,72,0
23279,note_on,,59,0,10,,,,,,,,,,,,,,,,12,,57,0
23279,note_on,,0,0,12,,,,,,,,,,,,,,,,15,,58,0
23280,note_on,,1,0,10,,,,,,,,,,,,,,,,12,,58,48
23280,note_on,,0,0,12,,,,,,,,,,,,,,,,15,,62,48
23280,note_on,,1,0,9,,,,,,,,,,,,,,,,11,,65,48
23280,note_on,,1,0,12,,,,,,,,,,,,,,,,15,,70,48
23280,note_on,,0,0,12,,,,,,,,,,,,,,,,15,,65,48
23280,note_on,,1,0,8,,,,,,,,,,,,,,,,10,,74,48
23280,note_on,,1,0,6,,,,,,,,,,,,,,,,5,,74,64
23369,note_on,,89,0,6,,,,,,,,,,,,,,,,5,,74,0
23369,note_on,,89,0,8,,,,,,,,,,,,,,,,10,,74,0
23370,note_on,,1,0,6,,,,,,,,,,,,,,,,5,,75,64
23370,note_on,,1,0,8,,,,,,,,,,,,,,,,10,,75,48
23399,note_on,,119,0,10,,,,,,,,,,,,,,,,12,,58,0
23399,note_on,,119,0,9,,,,,,,,,,,,,,,,11,,65,0
23399,note_on,,29,0,8,,,,,,,,,,,,,,,,10,,75,0
23399,note_on,,29,0,6,,,,,,,,,,,,,,,,5,,75,0
23399,note_on,,1739,0,11,,,,,,,,,,,,,,,,13,,46,0
23399,note_on,,119,0,12,,,,,,,,,,,,,,,,15,,46,0
23400,note_on,,1,0,6,,,,,,,,,,,,,,,,5,,77,64
23400,note_on,,1,0,11,,,,,,,,,,,,,,,,13,,58,48
23400,note_on,,1,0,8,,,,,,,,,,,,,,,,10,,77,48
23400,note_on,,1,0,10,,,,,,,,,,,,,,,,12,,65,48
23400,note_on,,1,0,9,,,,,,,,,,,,,,,,11,,74,48
23400,note_on,,1,0,12,,,,,,,,,,,,,,,,15,,58,48
23459,note_on,,59,0,9,,,,,,,,,,,,,,,,11,,74,0
23459,note_on,,59,0,11,,,,,,,,,,,,,,,,13,,58,0
23459,note_on,,0,0,12,,,,,,,,,,,,,,,,15,,58,0
23459,note_on,,0,0,12,,,,,,,,,,,,,,,,15,,65,0
23459,note_on,,0,0,12,,,,,,,,,,,,,,,,15,,62,0
23459,note_on,,59,0,8,,,,,,,,,,,,,,,,10,,77,0
23459,note_on,,59,0,10,,,,,,,,,,,,,,,,12,,65,0
23459,note_on,,59,0,6,,,,,,,,,,,,,,,,5,,77,0
23459,note_on,,59,0,12,,,,,,,,,,,,,,,,15,,70,0
23460,note_on,,1,0,9,,,,,,,,,,,,,,,,11,,72,48
23460,note_on,,1,0,8,,,,,,,,,,,,,,,,10,,65,48
23460,note_on,,1,0,12,,,,,,,,,,,,,,,,15,,57,48
23460,note_on,,0,0,12,,,,,,,,,,,,,,,,15,,77,48
23460,note_on,,0,0,12,,,,,,,,,,,,,,,,15,,72,48
23460,note_on,,1,0,11,,,,,,,,,,,,,,,,13,,57,48
23460,note_on,,1,0,10,,,,,,,,,,,,,,,,12,,65,48
23460,note_on,,1,0,6,,,,,,,,,,,,,,,,5,,65,64
23460,note_on,,0,0,12,,,,,,,,,,,,,,,,15,,65,48
23579,note_on,,119,0,9,,,,,,,,,,,,,,,,11,,72,0
23579,note_on,,0,0,12,,,,,,,,,,,,,,,,15,,72,0
23579,note_on,,119,0,12,,,,,,,,,,,,,,,,15,,57,0
23579,note_on,,119,0,10,,,,,,,,,,,,,,,,12,,65,0
23579,note_on,,119,0,11,,,,,,,,,,,,,,,,13,,57,0
23580,note_on,,1,0,12,,,,,,,,,,,,,,,,15,,55,48
23580,note_on,,0,0,12,,,,,,,,,,,,,,,,15,,70,48
23580,note_on,,1,0,9,,,,,,,,,,,,,,,,11,,70,48
23580,note_on,,1,0,11,,,,,,,,,,,,,,,,13,,55,48
23580,note_on,,1,0,10,,,,,,,,,,,,,,,,12,,67,48
23639,note_on,,59,0,9,,,,,,,,,,,,,,,,11,,70,0
23639,note_on,,179,0,6,,,,,,,,,,,,,,,,5,,65,0
23639,note_on,,0,0,12,,,,,,,,,,,,,,,,15,,70,0
23639,note_on,,0,0,12,,,,,,,,,,,,,,,,15,,55,0
23639,note_on,,0,0,12,,,,,,,,,,,,,,,,15,,65,0
23639,note_on,,59,0,12,,,,,,,,,,,,,,,,15,,77,0
23639,note_on,,59,0,10,,,,,,,,,,,,,,,,12,,67,0
23639,note_on,,179,0,8,,,,,,,,,,,,,,,,10,,65,0
23639,note_on,,59,0,11,,,,,,,,,,,,,,,,13,,55,0
23640,note_on,,0,0,12,,,,,,,,,,,,,,,,15,,72,48
23640,note_on,,0,0,12,,,,,,,,,,,,,,,,15,,69,48
23640,note_on,,0,0,12,,,,,,,,,,,,,,,,15,,65,48
23640,note_on,,1,0,9,,,,,,,,,,,,,,,,11,,69,48
23640,note_on,,1,0,11,,,,,,,,,,,,,,,,13,,53,48
23640,note_on,,1,0,10,,,,,,,,,,,,,,,,12,,60,48
23640,note_on,,1,0,12,,,,,,,,,,,,,,,,15,,53,48
23759,note_on,,119,0,10,,,,,,,,,,,,,,,,12,,60,0
23759,note_on,,119,0,12,,,,,,,,,,,,,,,,15,,53,0
23759,note_on,,119,0,11,,,,,,,,,,,,,,,,13,,53,0
23759,note_on,,119,0,9,,,,,,,,,,,,,,,,11,,69,0
23760,note_on,,121,0,8,,,,,,,,,,,,,,,,10,,77,48
23760,note_on,,1,0,10,,,,,,,,,,,,,,,,12,,69,48
23760,note_on,,1,0,11,,,,,,,,,,,,,,,,13,,51,48
23760,note_on,,1,0,12,,,,,,,,,,,,,,,,15,,51,48
23760,note_on,,121,0,6,,,,,,,,,,,,,,,,5,,77,64
23760,note_on,,1,0,9,,,,,,,,,,,,,,,,11,,72,48
23819,note_on,,59,0,9,,,,,,,,,,,,,,,,11,,72,0
23819,note_on,,59,0,11,,,,,,,,,,,,,,,,13,,51,0
23819,note_on,,0,0,12,,,,,,,,,,,,,,,,15,,69,0
23819,note_on,,59,0,12,,,,,,,,,,,,,,,,15,,72,0
23819,note_on,,59,0,6,,,,,,,,,,,,,,,,5,,77,0
23819,note_on,,59,0,10,,,,,,,,,,,,,,,,12,,69,0
23819,note_on,,0,0,12,,,,,,,,,,,,,,,,15,,65,0
23819,note_on,,0,0,12,,,,,,,,,,,,,,,,15,,51,0
23819,note_on,,59,0,8,,,,,,,,,,,,,,,,10,,77,0
23820,note_on,,0,0,12,,,,,,,,,,,,,,,,15,,74,48
23820,note_on,,1,0,11,,,,,,,,,,,,,,,,13,,50,48
23820,note_on,,0,0,12,,,,,,,,,,,,,,,,15,,65,48
23820,note_on,,1,0,6,,,,,,,,,,,,,,,,5,,77,64
23820,note_on,,1,0,12,,,,,,,,,,,,,,,,15,,50,48
23820,note_on,,1,0,9,,,,,,,,,,,,,,,,11,,74,48
23820,note_on,,1,0,8,,,,,,,,,,,,,,,,10,,77,48
23820,note_on,,0,0,12,,,,,,,,,,,,,,,,15,,70,48
23820,note_on,,1,0,10,,,,,,,,,,,,,,,,12,,70,48
23939,note_on,,119,0,8,,,,,,,,,,,,,,,,10,,77,0
23939,note_on,,119,0,10,,,,,,,,,,,,,,,,12,,70,0
23939,note_on,,119,0,9,,,,,,,,,,,,,,,,11,,74,0
23939,note_on,,119,0,6,,,,,,,,,,,,,,,,5,,77,0
23940,note_on,,1,0,6,,,,,,,,,,,,,,,,5,,75,64
23940,note_on,,1,0,10,,,,,,,,,,,,,,,,12,,69,48
23940,note_on,,1,0,9,,,,,,,,,,,,,,,,11,,72,48
23940,note_on,,1,0,8,,,,,,,,,,,,,,,,10,,75,48
23999,note_on,,59,0,8,,,,,,,,,,,,,,,,10,,75,0
23999,note_on,,0,0,12,,,,,,,,,,,,,,,,15,,65,0
23999,note_on,,179,0,11,,,,,,,,,,,,,,,,13,,50,0
23999,note_on,,0,0,12,,,,,,,,,,,,,,,,15,,70,0
23999,note_on,,179,0,12,,,,,,,,,,,,,,,,15,,50,0
23999,note_on,,59,0,6,,,,,,,,,,,,,,,,5,,75,0
23999,note_on,,59,0,10,,,,,,,,,,,,,,,,12,,69,0
23999,note_on,,59,0,9,,,,,,,,,,,,,,,,11,,72,0
23999,note_on,,0,0,12,,,,,,,,,,,,,,,,15,,74,0
24000,note_on,,1,0,11,,,,,,,,,,,,,,,,13,,53,48
24000,note_on,,0,0,12,,,,,,,,,,,,,,,,15,,70,48
24000,note_on,,0,0,12,,,,,,,,,,,,,,,,15,,62,48
24000,note_on,,0,0,12,,,,,,,,,,,,,,,,15,,65,48
24000,note_on,,1,0,12,,,,,,,,,,,,,,,,15,,53,48
24000,note_on,,1,0,6,,,,,,,,,,,,,,,,5,,74,64
24000,note_on,,1,0,8,,,,,,,,,,,,,,,,10,,74,48
24000,note_on,,1,0,9,,,,,,,,,,,,,,,,11,,70,48
24000,note_on,,1,0,10,,,,,,,,,,,,,,,,12,,65,48
24119,note_on,,119,0,12,,,,,,,,,,,,,,,,15,,70,0
24119,note_on,,119,0,8,,,,,,,,,,,,,,,,10,,74,0
24119,note_on,,119,0,6,,,,,,,,,,,,,,,,5,,74,0
24119,note_on,,0,0,12,,,,,,,,,,,,,,,,15,,62,0
24119,note_on,,119,0,10,,,,,,,,,,,,,,,,12,,65,0
24119,note_on,,119,0,9,,,,,,,,,,,,,,,,11,,70,0
24120,note_on,,0,0,12,,,,,,,,,,,,,,,,15,,60,48
24120,note_on,,1,0,6,,,,,,,,,,,,,,,,5,,72,64
24120,note_on,,1,0,10,,,,,,,,,,,,,,,,12,,63,48
24120,note_on,,1,0,12,,,,,,,,,,,,,,,,15,,69,48
24120,note_on,,1,0,9,,,,,,,,,,,,,,,,11,,69,48
24120,note_on,,1,0,8,,,,,,,,,,,,,,,,10,,72,48
24179,note_on,,59,0,9,,,,,,,,,,,,,,,,11,,69,0
24179,note_on,,179,0,11,,,,,,,,,,,,,,,,13,,53,0
24179,note_on,,0,0,12,,,,,,,,,,,,,,,,15,,60,0
24179,note_on,,0,0,12,,,,,,,,,,,,,,,,15,,69,0
24179,note_on,,0,0,12,,,,,,,,,,,,,,,,15,,65,0
24179,note_on,,59,0,12,,,,,,,,,,,,,,,,15,,53,0
24179,note_on,,59,0,6,,,,,,,,,,,,,,,,5,,72,0
24179,note_on,,59,0,8,,,,,,,,,,,,,,,,10,,72,0
24179,note_on,,59,0,10,,,,,,,,,,,,,,,,12,,63,0
24180,note_on,,1,0,8,,,,,,,,,,,,,,,,10,,70,48
24180,note_on,,1,0,9,,,,,,,,,,,,,,,,11,,67,48
24180,note_on,,1,0,10,,,,,,,,,,,,,,,,12,,62,48
24180,note_on,,0,0,12,,,,,,,,,,,,,,,,15,,62,48
24180,note_on,,1,0,12,,,,,,,,,,,,,,,,15,,55,48
24180,note_on,,0,0,12,,,,,,,,,,,,,,,,15,,58,48
24180,note_on,,0,0,12,,,,,,,,,,,,,,,,15,,70,48
24180,note_on,,1,0,6,,,,,,,,,,,,,,,,5,,70,64
24180,note_on,,1,0,11,,,,,,,,,,,,,,,,13,,55,48
24299,note_on,,119,0,12,,,,,,,,,,,,,,,,15,,55,0
24299,note_on,,0,0,12,,,,,,,,,,,,,,,,15,,62,0
24299,note_on,,119,0,11,,,,,,,,,,,,,,,,13,,55,0
24300,note_on,,1,0,12,,,,,,,,,,,,,,,,15,,53,48
24300,note_on,,0,0,12,,,,,,,,,,,,,,,,15,,69,48
24300,note_on,,1,0,11,,,,,,,,,,,,,,,,13,,53,48
24359,note_on,,179,0,8,,,,,,,,,,,,,,,,10,,70,0
24359,note_on,,0,0,12,,,,,,,,,,,,,,,,15,,70,0
24359,note_on,,179,0,6,,,,,,,,,,,,,,,,5,,70,0
24359,note_on,,59,0,12,,,,,,,,,,,,,,,,15,,58,0
24359,note_on,,0,0,12,,,,,,,,,,,,,,,,15,,69,0
24359,note_on,,0,0,12,,,,,,,,,,,,,,,,15,,53,0
24359,note_on,,59,0,11,,,,,,,,,,,,,,,,13,,53,0
24359,note_on,,179,0,10,,,,,,,,,,,,,,,,12,,62,0
24360,note_on,,1,0,11,,,,,,,,,,,,,,,,13,,52,48
24360,note_on,,1,0,10,,,,,,,,,,,,,,,,12,,60,48
24360,note_on,,0,0,12,,,,,,,,,,,,,,,,15,,67,48
24360,note_on,,0,0,12,,,,,,,,,,,,,,,,15,,79,48
24360,note_on,,0,0,12,,,,,,,,,,,,,,,,15,,60,48
24360,note_on,,1,0,12,,,,,,,,,,,,,,,,15,,52,48
24479,note_on,,119,0,11,,,,,,,,,,,,,,,,13,,52,0
24479,note_on,,299,0,9,,,,,,,,,,,,,,,,11,,67,0
24479,note_on,,119,0,12,,,,,,,,,,,,,,,,15,,52,0
24479,note_on,,0,0,12,,,,,,,,,,,,,,,,15,,79,0
24479,note_on,,119,0,10,,,,,,,,,,,,,,,,12,,60,0
24480,note_on,,0,0,12,,,,,,,,,,,,,,,,15,,77,48
24480,note_on,,1,0,12,,,,,,,,,,,,,,,,15,,50,48
24480,note_on,,1,0,11,,,,,,,,,,,,,,,,13,,50,48
24480,note_on,,121,0,6,,,,,,,,,,,,,,,,5,,70,64
24480,note_on,,1,0,9,,,,,,,,,,,,,,,,11,,65,48
24480,note_on,,1,0,10,,,,,,,,,,,,,,,,12,,65,48
24480,note_on,,121,0,8,,,,,,,,,,,,,,,,10,,70,48
24539,note_on,,0,0,12,,,,,,,,,,,,,,,,15,,77,0
24539,note_on,,0,0,12,,,,,,,,,,,,,,,,15,,50,0
24539,note_on,,0,0,12,,,,,,,,,,,,,,,,15,,67,0
24539,note_on,,59,0,12,,,,,,,,,,,,,,,,15,,60,0
24539,note_on,,59,0,9,,,,,,,,,,,,,,,,11,,65,0
24539,note_on,,59,0,6,,,,,,,,,,,,,,,,5,,70,0
24539,note_on,,59,0,8,,,,,,,,,,,,,,,,10,,70,0
24539,note_on,,59,0,10,,,,,,,,,,,,,,,,12,,65,0
24539,note_on,,59,0,11,,,,,,,,,,,,,,,,13,,50,0
24540,note_on,,1,0,8,,,,,,,,,,,,,,,,10,,79,48
24540,note_on,,1,0,10,,,,,,,,,,,,,,,,12,,67,48
24540,note_on,,1,0,9,,,,,,,,,,,,,,,,11,,64,48
24540,note_on,,0,0,12,,,,,,,,,,,,,,,,15,,76,48
24540,note_on,,0,0,12,,,,,,,,,,,,,,,,15,,72,48
24540,note_on,,0,0,12,,,,,,,,,,,,,,,,15,,67,48
24540,note_on,,1,0,11,,,,,,,,,,,,,,,,13,,48,48
24540,note_on,,1,0,6,,,,,,,,,,,,,,,,5,,79,64
24540,note_on,,1,0,12,,,,,,,,,,,,,,,,15,,48,48
24659,note_on,,119,0,6,,,,,,,,,,,,,,,,5,,79,0
24659,note_on,,119,0,8,,,,,,,,,,,,,,,,10,,79,0
24659,note_on,,119,0,10,,,,,,,,,,,,,,,,12,,67,0
24659,note_on,,119,0,9,,,,,,,,,,,,,,,,11,,64,0
24660,note_on,,1,0,10,,,,,,,,,,,,,,,,12,,62,48
24660,note_on,,1,0,9,,,,,,,,,,,,,,,,11,,65,48
24660,note_on,,1,0,6,,,,,,,,,,,,,,,,5,,77,64
24660,note_on,,1,0,8,,,,,,,,,,,,,,,,10,,77,48
24719,note_on,,59,0,6,,,,,,,,,,,,,,,,5,,77,0
24719,note_on,,59,0,8,,,,,,,,,,,,,,,,10,,77,0
24719,note_on,,59,0,10,,,,,,,,,,,,,,,,12,,62,0
24719,note_on,,59,0,9,,,,,,,,,,,,,,,,11,,65,0
24720,note_on,,1,0,9,,,,,,,,,,,,,,,,11,,67,48
24720,note_on,,1,0,10,,,,,,,,,,,,,,,,12,,64,48
24720,note_on,,1,0,8,,,,,,,,,,,,,,,,10,,76,48
24720,note_on,,1,0,6,,,,,,,,,,,,,,,,5,,76,64
24779,note_on,,59,0,8,,,,,,,,,,,,,,,,10,,76,0
24779,note_on,,59,0,6,,,,,,,,,,,,,,,,5,,76,0
24780,note_on,,1,0,8,,,,,,,,,,,,,,,,10,,74,48
24780,note_on,,1,0,6,,,,,,,,,,,,,,,,5,,74,64
24839,note_on,,119,0,10,,,,,,,,,,,,,,,,12,,64,0
24839,note_on,,59,0,8,,,,,,,,,,,,,,,,10,,74,0
24839,note_on,,59,0,6,,,,,,,,,,,,,,,,5,,74,0
24839,note_on,,119,0,9,,,,,,,,,,,,,,,,11,,67,0
24840,note_on,,1,0,6,,,,,,,,,,,,,,,,5,,72,64
24840,note_on,,1,0,9,,,,,,,,,,,,,,,,11,,69,48
24840,note_on,,1,0,8,,,,,,,,,,,,,,,,10,,72,48
24840,note_on,,1,0,10,,,,,,,,,,,,,,,,12,,65,48
24899,note_on,,359,0,12,,,,,,,,,,,,,,,,15,,76,0
24899,note_on,,0,0,12,,,,,,,,,,,,,,,,15,,72,0
24899,note_on,,0,0,12,,,,,,,,,,,,,,,,15,,67,0
24899,note_on,,59,0,8,,,,,,,,,,,,,,,,10,,72,0
24899,note_on,,59,0,9,,,,,,,,,,,,,,,,11,,69,0
24899,note_on,,59,0,10,,,,,,,,,,,,,,,,12,,65,0
24899,note_on,,59,0,6,,,,,,,,,,,,,,,,5,,72,0
24900,note_on,,1,0,6,,,,,,,,,,,,,,,,5,,70,64
24900,note_on,,0,0,12,,,,,,,,,,,,,,,,15,,67,48
24900,note_on,,1,0,9,,,,,,,,,,,,,,,,11,,67,48
24900,note_on,,0,0,12,,,,,,,,,,,,,,,,15,,76,48
24900,note_on,,0,0,12,,,,,,,,,,,,,,,,15,,72,48
24900,note_on,,1,0,8,,,,,,,,,,,,,,,,10,,70,48
24900,note_on,,1,0,12,,,,,,,,,,,,,,,,15,,79,48
24900,note_on,,1,0,10,,,,,,,,,,,,,,,,12,,64,48
24929,note_on,,29,0,8,,,,,,,,,,,,,,,,10,,70,0
24929,note_on,,29,0,6,,,,,,,,,,,,,,,,5,,70,0
24930,note_on,,1,0,6,,,,,,,,,,,,,,,,5,,69,64
24930,note_on,,1,0,8,,,,,,,,,,,,,,,,10,,69,48
24959,note_on,,29,0,8,,,,,,,,,,,,,,,,10,,69,0
24959,note_on,,29,0,6,,,,,,,,,,,,,,,,5,,69,0
24960,note_on,,1,0,8,,,,,,,,,,,,,,,,10,,70,48
24960,note_on,,1,0,6,,,,,,,,,,,,,,,,5,,70,64
25019,note_on,,119,0,10,,,,,,,,,,,,,,,,12,,64,0
25019,note_on,,119,0,9,,,,,,,,,,,,,,,,11,,67,0
25020,note_on,,1,0,10,,,,,,,,,,,,,,,,12,,65,48
25020,note_on,,1,0,9,,,,,,,,,,,,,,,,11,,65,48
25079,note_on,,59,0,10,,,,,,,,,,,,,,,,12,,65,0
25079,note_on,,59,0,9,,,,,,,,,,,,,,,,11,,65,0
25080,note_on,,1,0,9,,,,,,,,,,,,,,,,11,,67,48
25080,note_on,,1,0,10,,,,,,,,,,,,,,,,12,,60,48
25199,note_on,,119,0,9,,,,,,,,,,,,,,,,11,,67,0
25199,note_on,,239,0,8,,,,,,,,,,,,,,,,10,,70,0
25199,note_on,,119,0,10,,,,,,,,,,,,,,,,12,,60,0
25199,note_on,,239,0,6,,,,,,,,,,,,,,,,5,,70,0
25200,note_on,,1,0,10,,,,,,,,,,,,,,,,12,,67,48
25200,note_on,,1,0,6,,,,,,,,,,,,,,,,5,,72,64
25200,note_on,,1,0,9,,,,,,,,,,,,,,,,11,,64,48
25200,note_on,,1,0,8,,,,,,,,,,,,,,,,10,,72,48
25259,note_on,,59,0,8,,,,,,,,,,,,,,,,10,,72,0
25259,note_on,,0,0,12,,,,,,,,,,,,,,,,15,,79,0
25259,note_on,,59,0,6,,,,,,,,,,,,,,,,5,,72,0
25259,note_on,,719,0,11,,,,,,,,,,,,,,,,13,,48,0
25259,note_on,,59,0,9,,,,,,,,,,,,,,,,11,,64,0
25259,note_on,,0,0,12,,,,,,,,,,,,,,,,15,,67,0
25259,note_on,,0,0,12,,,,,,,,,,,,,,,,15,,72,0
25259,note_on,,59,0,10,,,,,,,,,,,,,,,,12,,67,0
25259,note_on,,359,0,12,,,,,,,,,,,,,,,,15,,48,0
25259,note_on,,0,0,12,,,,,,,,,,,,,,,,15,,76,0
25260,note_on,,1,0,10,,,,,,,,,,,,,,,,12,,65,48
25260,note_on,,1,0,6,,,,,,,,,,,,,,,,5,,69,64
25260,note_on,,0,0,12,,,,,,,,,,,,,,,,15,,77,48
25260,note_on,,1,0,12,,,,,,,,,,,,,,,,15,,53,48
25260,note_on,,0,0,12,,,,,,,,,,,,,,,,15,,72,48
25260,note_on,,1,0,9,,,,,,,,,,,,,,,,11,,72,48
25260,note_on,,1,0,11,,,,,,,,,,,,,,,,13,,53,48
25260,note_on,,1,0,8,,,,,,,,,,,,,,,,10,,69,48
25260,note_on,,0,0,12,,,,,,,,,,,,,,,,15,,69,48
25319,note_on,,59,0,6,,,,,,,,,,,,,,,,5,,69,0
25319,note_on,,59,0,8,,,,,,,,,,,,,,,,10,,69,0
25320,note_on,,1,0,6,,,,,,,,,,,,,,,,5,,67,64
25320,note_on,,1,0,8,,,,,,,,,,,,,,,,10,,67,48
25379,note_on,,59,0,6,,,,,,,,,,,,,,,,5,,67,0
25379,note_on,,119,0,9,,,,,,,,,,,,,,,,11,,72,0
25379,note_on,,0,0,12,,,,,,,,,,,,,,,,15,,77,0
25379,note_on,,119,0,11,,,,,,,,,,,,,,,,13,,53,0
25379,note_on,,0,0,12,,,,,,,,,,,,,,,,15,,72,0
25379,note_on,,0,0,12,,,,,,,,,,,,,,,,15,,69,0
25379,note_on,,59,0,8,,,,,,,,,,,,,,,,10,,67,0
25379,note_on,,119,0,10,,,,,,,,,,,,,,,,12,,65,0
25379,note_on,,119,0,12,,,,,,,,,,,,,,,,15,,53,0
25380,note_on,,1,0,9,,,,,,,,,,,,,,,,11,,77,48
25380,note_on,,1,0,8,,,,,,,,,,,,,,,,10,,70,48
25380,note_on,,1,0,10,,,,,,,,,,,,,,,,12,,62,48
25380,note_on,,0,0,12,,,,,,,,,,,,,,,,15,,65,48
25380,note_on,,0,0,12,,,,,,,,,,,,,,,,15,,70,48
25380,note_on,,1,0,6,,,,,,,,,,,,,,,,5,,70,64
25380,note_on,,0,0,12,,,,,,,,,,,,,,,,15,,74,48
25380,note_on,,1,0,12,,,,,,,,,,,,,,,,15,,46,48
25380,note_on,,1,0,11,,,,,,,,,,,,,,,,13,,46,48
25439,note_on,,59,0,10,,,,,,,,,,,,,,,,12,,62,0
25439,note_on,,59,0,8,,,,,,,,,,,,,,,,10,,70,0
25439,note_on,,59,0,11,,,,,,,,,,,,,,,,13,,46,0
25439,note_on,,59,0,6,,,,,,,,,,,,,,,,5,,70,0
25439,note_on,,0,0,12,,,,,,,,,,,,,,,,15,,65,0
25439,note_on,,59,0,9,,,,,,,,,,,,,,,,11,,77,0
25439,note_on,,59,0,12,,,,,,,,,,,,,,,,15,,46,0
25439,note_on,,0,0,12,,,,,,,,,,,,,,,,15,,74,0
25439,note_on,,0,0,12,,,,,,,,,,,,,,,,15,,70,0
25440,note_on,,1,0,9,,,,,,,,,,,,,,,,11,,65,48
25440,note_on,,0,0,12,,,,,,,,,,,,,,,,15,,69,48
25440,note_on,,0,0,12,,,,,,,,,,,,,,,,15,,72,48
25440,note_on,,1,0,12,,,,,,,,,,,,,,,,15,,48,48
25440,note_on,,1,0,8,,,,,,,,,,,,,,,,10,,69,48
25440,note_on,,1,0,11,,,,,,,,,,,,,,,,13,,48,48
25440,note_on,,0,0,12,,,,,,,,,,,,,,,,15,,65,48
25440,note_on,,1,0,10,,,,,,,,,,,,,,,,12,,60,48
25440,note_on,,1,0,6,,,,,,,,,,,,,,,,5,,69,64
25499,note_on,,59,0,8,,,,,,,,,,,,,,,,10,,69,0
25499,note_on,,59,0,6,,,,,,,,,,,,,,,,5,,69,0
25500,note_on,,1,0,8,,,,,,,,,,,,,,,,10,,70,48
25500,note_on,,1,0,6,,,,,,,,,,,,,,,,5,,70,64
25529,note_on,,89,0,9,,,,,,,,,,,,,,,,11,,65,0
25530,note_on,,1,0,9,,,,,,,,,,,,,,,,11,,67,48
25559,note_on,,119,0,12,,,,,,,,,,,,,,,,15,,69,0
25559,note_on,,0,0,12,,,,,,,,,,,,,,,,15,,65,0
25559,note_on,,29,0,9,,,,,,,,,,,,,,,,11,,67,0
25559,note_on,,59,0,6,,,,,,,,,,,,,,,,5,,70,0
25559,note_on,,119,0,10,,,,,,,,,,,,,,,,12,,60,0
25559,note_on,,59,0,8,,,,,,,,,,,,,,,,10,,70,0
25560,note_on,,1,0,12,,,,,,,,,,,,,,,,15,,67,48
25560,note_on,,0,0,12,,,,,,,,,,,,,,,,15,,64,48
25560,note_on,,1,0,9,,,,,,,,,,,,,,,,11,,64,48
25560,note_on,,1,0,6,,,,,,,,,,,,,,,,5,,67,64
25560,note_on,,1,0,8,,,,,,,,,,,,,,,,10,,67,48
25560,note_on,,1,0,10,,,,,,,,,,,,,,,,12,,58,48
25619,note_on,,179,0,11,,,,,,,,,,,,,,,,13,,48,0
25619,note_on,,59,0,6,,,,,,,,,,,,,,,,5,,67,0
25619,note_on,,0,0,12,,,,,,,,,,,,,,,,15,,67,0
25619,note_on,,59,0,9,,,,,,,,,,,,,,,,11,,64,0
25619,note_on,,59,0,10,,,,,,,,,,,,,,,,12,,58,0
25619,note_on,,59,0,8,,,,,,,,,,,,,,,,10,,67,0
25619,note_on,,59,0,12,,,,,,,,,,,,,,,,15,,48,0
25619,note_on,,0,0,12,,,,,,,,,,,,,,,,15,,72,0
25619,note_on,,0,0,12,,,,,,,,,,,,,,,,15,,64,0
25620,note_on,,1,0,8,,,,,,,,,,,,,,,,10,,65,48
25620,note_on,,1,0,10,,,,,,,,,,,,,,,,12,,57,48
25620,note_on,,1,0,12,,,,,,,,,,,,,,,,15,,53,48
25620,note_on,,0,0,12,,,,,,,,,,,,,,,,15,,69,48
25620,note_on,,0,0,12,,,,,,,,,,,,,,,,15,,60,48
25620,note_on,,1,0,6,,,,,,,,,,,,,,,,5,,65,64
25620,note_on,,1,0,9,,,,,,,,,,,,,,,,11,,72,48
25620,note_on,,1,0,11,,,,,,,,,,,,,,,,13,,53,48
25620,note_on,,0,0,12,,,,,,,,,,,,,,,,15,,65,48
25739,note_on,,119,0,9,,,,,,,,,,,,,,,,11,,72,0
25740,note_on,,1,0,9,,,,,,,,,,,,,,,,11,,70,48
25799,note_on,,0,0,12,,,,,,,,,,,,,,,,15,,65,0
25799,note_on,,0,0,12,,,,,,,,,,,,,,,,15,,60,0
25799,note_on,,179,0,12,,,,,,,,,,,,,,,,15,,69,0
25799,note_on,,59,0,9,,,,,,,,,,,,,,,,11,,70,0
25799,note_on,,179,0,10,,,,,,,,,,,,,,,,12,,57,0
25800,note_on,,1,0,9,,,,,,,,,,,,,,,,11,,69,48
25800,note_on,,1,0,10,,,,,,,,,,,,,,,,12,,65,48
25800,note_on,,0,0,12,,,,,,,,,,,,,,,,15,,65,48
25800,note_on,,1,0,12,,,,,,,,,,,,,,,,15,,72,48
25919,note_on,,119,0,9,,,,,,,,,,,,,,,,11,,69,0
25919,note_on,,119,0,10,,,,,,,,,,,,,,,,12,,65,0
25920,note_on,,1,0,9,,,,,,,,,,,,,,,,11,,67,48
25920,note_on,,1,0,10,,,,,,,,,,,,,,,,12,,63,48
25979,note_on,,59,0,10,,,,,,,,,,,,,,,,12,,63,0
25979,note_on,,359,0,11,,,,,,,,,,,,,,,,13,,53,0
25979,note_on,,0,0,12,,,,,,,,,,,,,,,,15,,65,0
25979,note_on,,0,0,12,,,,,,,,,,,,,,,,15,,72,0
25979,note_on,,179,0,12,,,,,,,,,,,,,,,,15,,53,0
25979,note_on,,359,0,6,,,,,,,,,,,,,,,,5,,65,0
25979,note_on,,59,0,9,,,,,,,,,,,,,,,,11,,67,0
25979,note_on,,359,0,8,,,,,,,,,,,,,,,,10,,65,0
25980,note_on,,1,0,12,,,,,,,,,,,,,,,,15,,44,48
25980,note_on,,1,0,8,,,,,,,,,,,,,,,,10,,77,48
25980,note_on,,1,0,9,,,,,,,,,,,,,,,,11,,65,48
25980,note_on,,0,0,12,,,,,,,,,,,,,,,,15,,74,48
25980,note_on,,0,0,12,,,,,,,,,,,,,,,,15,,65,48
25980,note_on,,0,0,12,,,,,,,,,,,,,,,,15,,62,48
25980,note_on,,1,0,11,,,,,,,,,,,,,,,,13,,44,48
25980,note_on,,1,0,10,,,,,,,,,,,,,,,,12,,62,48
26099,note_on,,119,0,8,,,,,,,,,,,,,,,,10,,77,0
26100,note_on,,1,0,8,,,,,,,,,,,,,,,,10,,75,48
26159,note_on,,59,0,8,,,,,,,,,,,,,,,,10,,75,0
26159,note_on,,179,0,10,,,,,,,,,,,,,,,,12,,62,0
26160,note_on,,1,0,10,,,,,,,,,,,,,,,,12,,68,48
26160,note_on,,1,0,8,,,,,,,,,,,,,,,,10,,74,48
26279,note_on,,119,0,8,,,,,,,,,,,,,,,,10,,74,0
26280,note_on,,1,0,8,,,,,,,,,,,,,,,,10,,72,48
26339,note_on,,359,0,11,,,,,,,,,,,,,,,,13,,44,0
26339,note_on,,359,0,9,,,,,,,,,,,,,,,,11,,65,0
26339,note_on,,0,0,12,,,,,,,,,,,,,,,,15,,74,0
26339,note_on,,59,0,8,,,,,,,,,,,,,,,,10,,72,0
26339,note_on,,179,0,10,,,,,,,,,,,,,,,,12,,68,0
26339,note_on,,0,0,12,,,,,,,,,,,,,,,,15,,65,0
26339,note_on,,0,0,12,,,,,,,,,,,,,,,,15,,62,0
26339,note_on,,359,0,12,,,,,,,,,,,,,,,,15,,44,0
26340,note_on,,1,0,9,,,,,,,,,,,,,,,,11,,67,48
26340,note_on,,1,0,8,,,,,,,,,,,,,,,,10,,71,48
26340,note_on,,1,0,10,,,,,,,,,,,,,,,,12,,62,48
26340,note_on,,0,0,12,,,,,,,,,,,,,,,,15,,62,48
26340,note_on,,0,0,12,,,,,,,,,,,,,,,,15,,65,48
26340,note_on,,0,0,12,,,,,,,,,,,,,,,,15,,67,48
26340,note_on,,1,0,12,,,,,,,,,,,,,,,,15,,43,48
26340,note_on,,1,0,11,,,,,,,,,,,,,,,,13,,43,48
26459,note_on,,119,0,8,,,,,,,,,,,,,,,,10,,71,0
26459,note_on,,119,0,9,,,,,,,,,,,,,,,,11,,67,0
26459,note_on,,119,0,10,,,,,,,,,,,,,,,,12,,62,0
26460,note_on,,1,0,8,,,,,,,,,,,,,,,,10,,72,48
26460,note_on,,1,0,9,,,,,,,,,,,,,,,,11,,69,48
26460,note_on,,1,0,10,,,,,,,,,,,,,,,,12,,60,48
26519,note_on,,59,0,8,,,,,,,,,,,,,,,,10,,72,0
26519,note_on,,59,0,9,,,,,,,,,,,,,,,,11,,69,0
26519,note_on,,59,0,10,,,,,,,,,,,,,,,,12,,60,0
26520,note_on,,1,0,8,,,,,,,,,,,,,,,,10,,74,48
26520,note_on,,1,0,10,,,,,,,,,,,,,,,,12,,59,48
26520,note_on,,1,0,9,,,,,,,,,,,,,,,,11,,71,48
26639,note_on,,119,0,9,,,,,,,,,,,,,,,,11,,71,0
26639,note_on,,119,0,10,,,,,,,,,,,,,,,,12,,59,0
26639,note_on,,119,0,8,,,,,,,,,,,,,,,,10,,74,0
26640,note_on,,1,0,10,,,,,,,,,,,,,,,,12,,55,48
26640,note_on,,1,0,9,,,,,,,,,,,,,,,,11,,72,48
26640,note_on,,1,0,8,,,,,,,,,,,,,,,,10,,75,48
26699,note_on,,59,0,10,,,,,,,,,,,,,,,,12,,55,0
26699,note_on,,359,0,12,,,,,,,,,,,,,,,,15,,67,0
26699,note_on,,59,0,9,,,,,,,,,,,,,,,,11,,72,0
26699,note_on,,59,0,8,,,,,,,,,,,,,,,,10,,75,0
26699,note_on,,0,0,12,,,,,,,,,,,,,,,,15,,62,0
26699,note_on,,0,0,12,,,,,,,,,,,,,,,,15,,65,0
26700,note_on,,1,0,12,,,,,,,,,,,,,,,,15,,71,48
26700,note_on,,0,0,12,,,,,,,,,,,,,,,,15,,67,48
26700,note_on,,721,0,6,,,,,,,,,,,,,,,,5,,77,64
26700,note_on,,1,0,10,,,,,,,,,,,,,,,,12,,71,48
26700,note_on,,0,0,12,,,,,,,,,,,,,,,,15,,62,48
26700,note_on,,1,0,8,,,,,,,,,,,,,,,,10,,77,48
26700,note_on,,1,0,9,,,,,,,,,,,,,,,,11,,74,48
26819,note_on,,119,0,9,,,,,,,,,,,,,,,,11,,74,0
26819,note_on,,119,0,6,,,,,,,,,,,,,,,,5,,77,0
26819,note_on,,119,0,8,,,,,,,,,,,,,,,,10,,77,0
26819,note_on,,119,0,10,,,,,,,,,,,,,,,,12,,71,0
26820,note_on,,1,0,9,,,,,,,,,,,,,,,,11,,72,48
26820,note_on,,1,0,6,,,,,,,,,,,,,,,,5,,75,64
26820,note_on,,1,0,10,,,,,,,,,,,,,,,,12,,67,48
26820,note_on,,1,0,8,,,,,,,,,,,,,,,,10,,75,48
26879,note_on,,59,0,9,,,,,,,,,,,,,,,,11,,72,0
26879,note_on,,59,0,8,,,,,,,,,,,,,,,,10,,75,0
26879,note_on,,59,0,10,,,,,,,,,,,,,,,,12,,67,0
26879,note_on,,59,0,6,,,,,,,,,,,,,,,,5,,75,0
26880,note_on,,1,0,9,,,,,,,,,,,,,,,,11,,71,48
26880,note_on,,1,0,10,,,,,,,,,,,,,,,,12,,65,48
26880,note_on,,1,0,6,,,,,,,,,,,,,,,,5,,74,64
26880,note_on,,1,0,8,,,,,,,,,,,,,,,,10,,74,48
26999,note_on,,119,0,10,,,,,,,,,,,,,,,,12,,65,0
26999,note_on,,119,0,9,,,,,,,,,,,,,,,,11,,71,0
26999,note_on,,119,0,6,,,,,,,,,,,,,,,,5,,74,0
26999,note_on,,119,0,8,,,,,,,,,,,,,,,,10,,74,0
27000,note_on,,1,0,10,,,,,,,,,,,,,,,,12,,63,48
27000,note_on,,1,0,8,,,,,,,,,,,,,,,,10,,72,48
27000,note_on,,1,0,6,,,,,,,,,,,,,,,,5,,72,64
27000,note_on,,1,0,9,,,,,,,,,,,,,,,,11,,67,48
27059,note_on,,59,0,8,,,,,,,,,,,,,,,,10,,72,0
27059,note_on,,59,0,10,,,,,,,,,,,,,,,,12,,63,0
27059,note_on,,59,0,9,,,,,,,,,,,,,,,,11,,67,0
27059,note_on,,59,0,6,,,,,,,,,,,,,,,,5,,72,0
27059,note_on,,0,0,12,,,,,,,,,,,,,,,,15,,67,0
27059,note_on,,359,0,12,,,,,,,,,,,,,,,,15,,71,0
27059,note_on,,0,0,12,,,,,,,,,,,,,,,,15,,62,0
27060,note_on,,1,0,10,,,,,,,,,,,,,,,,12,,62,48
27060,note_on,,1,0,12,,,,,,,,,,,,,,,,15,,74,48
27060,note_on,,0,0,12,,,,,,,,,,,,,,,,15,,71,48
27060,note_on,,0,0,12,,,,,,,,,,,,,,,,15,,67,48
27060,note_on,,1,0,9,,,,,,,,,,,,,,,,11,,67,48
27060,note_on,,1,0,6,,,,,,,,,,,,,,,,5,,71,64
27060,note_on,,1,0,8,,,,,,,,,,,,,,,,10,,71,48
27179,note_on,,119,0,9,,,,,,,,,,,,,,,,11,,67,0
27180,note_on,,1,0,9,,,,,,,,,,,,,,,,11,,65,48
27239,note_on,,179,0,10,,,,,,,,,,,,,,,,12,,62,0
27239,note_on,,59,0,9,,,,,,,,,,,,,,,,11,,65,0
27239,note_on,,179,0,8,,,,,,,,,,,,,,,,10,,71,0
27239,note_on,,179,0,6,,,,,,,,,,,,,,,,5,,71,0
27239,note_on,,179,0,12,,,,,,,,,,,,,,,,15,,74,0
27239,note_on,,0,0,12,,,,,,,,,,,,,,,,15,,71,0
27239,note_on,,0,0,12,,,,,,,,,,,,,,,,15,,67,0
27240,note_on,,1,0,10,,,,,,,,,,,,,,,,12,,67,48
27240,note_on,,0,0,12,,,,,,,,,,,,,,,,15,,67,48
27240,note_on,,1,0,8,,,,,,,,,,,,,,,,10,,72,48
27240,note_on,,1,0,12,,,,,,,,,,,,,,,,15,,75,48
27240,note_on,,1,0,9,,,,,,,,,,,,,,,,11,,63,48
27240,note_on,,1,0,6,,,,,,,,,,,,,,,,5,,72,64
27240,note_on,,0,0,12,,,,,,,,,,,,,,,,15,,72,48
27359,note_on,,119,0,9,,,,,,,,,,,,,,,,11,,63,0
27359,note_on,,119,0,6,,,,,,,,,,,,,,,,5,,72,0
27359,note_on,,119,0,8,,,,,,,,,,,,,,,,10,,72,0
27359,note_on,,119,0,10,,,,,,,,,,,,,,,,12,,67,0
27360,note_on,,1,0,6,,,,,,,,,,,,,,,,5,,74,64
27360,note_on,,1,0,10,,,,,,,,,,,,,,,,12,,59,48
27360,note_on,,1,0,9,,,,,,,,,,,,,,,,11,,62,48
27360,note_on,,1,0,8,,,,,,,,,,,,,,,,10,,74,48
27419,note_on,,179,0,12,,,,,,,,,,,,,,,,15,,75,0
27419,note_on,,59,0,9,,,,,,,,,,,,,,,,11,,62,0
27419,note_on,,59,0,6,,,,,,,,,,,,,,,,5,,74,0
27419,note_on,,0,0,12,,,,,,,,,,,,,,,,15,,72,0
27419,note_on,,0,0,12,,,,,,,,,,,,,,,,15,,67,0
27419,note_on,,59,0,10,,,,,,,,,,,,,,,,12,,59,0
27419,note_on,,59,0,8,,,,,,,,,,,,,,,,10,,74,0
27420,note_on,,1,0,8,,,,,,,,,,,,,,,,10,,75,48
27420,note_on,,1,0,9,,,,,,,,,,,,,,,,11,,60,48
27420,note_on,,1,0,10,,,,,,,,,,,,,,,,12,,67,48
27420,note_on,,1,0,6,,,,,,,,,,,,,,,,5,,75,64
27420,note_on,,1,0,12,,,,,,,,,,,,,,,,15,,72,48
27420,note_on,,0,0,12,,,,,,,,,,,,,,,,15,,67,48
27420,note_on,,0,0,12,,,,,,,,,,,,,,,,15,,63,48
27599,note_on,,179,0,10,,,,,,,,,,,,,,,,12,,67,0
27599,note_on,,179,0,12,,,,,,,,,,,,,,,,15,,72,0
27599,note_on,,0,0,12,,,,,,,,,,,,,,,,15,,67,0
27599,note_on,,0,0,12,,,,,,,,,,,,,,,,15,,63,0
27599,note_on,,179,0,6,,,,,,,,,,,,,,,,5,,75,0
27599,note_on,,179,0,8,,,,,,,,,,,,,,,,10,,75,0
27599,note_on,,179,0,9,,,,,,,,,,,,,,,,11,,60,0
27600,note_on,,1,0,8,,,,,,,,,,,,,,,,10,,74,48
27600,note_on,,1,0,10,,,,,,,,,,,,,,,,12,,65,48
27600,note_on,,1,0,9,,,,,,,,,,,,,,,,11,,59,48
27600,note_on,,0,0,12,,,,,,,,,,,,,,,,15,,67,48
27600,note_on,,1,0,6,,,,,,,,,,,,,,,,5,,74,64
27600,note_on,,0,0,12,,,,,,,,,,,,,,,,15,,62,48
27600,note_on,,1,0,12,,,,,,,,,,,,,,,,15,,71,48
27614,note_on,,14,0,6,,,,,,,,,,,,,,,,5,,74,0
27615,note_on,,1,0,6,,,,,,,,,,,,,,,,5,,75,64
27629,note_on,,14,0,6,,,,,,,,,,,,,,,,5,,75,0
27630,note_on,,1,0,6,,,,,,,,,,,,,,,,5,,74,64
27644,note_on,,14,0,6,,,,,,,,,,,,,,,,5,,74,0
27645,note_on,,1,0,6,,,,,,,,,,,,,,,,5,,75,64
27659,note_on,,14,0,6,,,,,,,,,,,,,,,,5,,75,0
27660,note_on,,1,0,6,,,,,,,,,,,,,,,,5,,74,64
27674,note_on,,14,0,6,,,,,,,,,,,,,,,,5,,74,0
27675,note_on,,1,0,6,,,,,,,,,,,,,,,,5,,75,64
27689,note_on,,14,0,6,,,,,,,,,,,,,,,,5,,75,0
27690,note_on,,1,0,6,,,,,,,,,,,,,,,,5,,74,64
27704,note_on,,14,0,6,,,,,,,,,,,,,,,,5,,74,0
27705,note_on,,1,0,6,,,,,,,,,,,,,,,,5,,75,64
27719,note_on,,119,0,8,,,,,,,,,,,,,,,,10,,74,0
27719,note_on,,14,0,6,,,,,,,,,,,,,,,,5,,75,0
27720,note_on,,1,0,8,,,,,,,,,,,,,,,,10,,72,48
27720,note_on,,1,0,6,,,,,,,,,,,,,,,,5,,72,64
27779,note_on,,1439,0,11,,,,,,,,,,,,,,,,13,,43,0
27779,note_on,,179,0,10,,,,,,,,,,,,,,,,12,,65,0
27779,note_on,,59,0,8,,,,,,,,,,,,,,,,10,,72,0
27779,note_on,,179,0,12,,,,,,,,,,,,,,,,15,,43,0
27779,note_on,,0,0,12,,,,,,,,,,,,,,,,15,,62,0
27779,note_on,,0,0,12,,,,,,,,,,,,,,,,15,,67,0
27779,note_on,,59,0,6,,,,,,,,,,,,,,,,5,,72,0
27779,note_on,,0,0,12,,,,,,,,,,,,,,,,15,,71,0
27779,note_on,,179,0,9,,,,,,,,,,,,,,,,11,,59,0
27780,note_on,,0,0,12,,,,,,,,,,,,,,,,15,,67,48
27780,note_on,,0,0,12,,,,,,,,,,,,,,,,15,,63,48
27780,note_on,,1,0,6,,,,,,,,,,,,,,,,5,,72,64
27780,note_on,,1,0,12,,,,,,,,,,,,,,,,15,,48,48
27780,note_on,,1,0,9,,,,,,,,,,,,,,,,11,,67,48
27780,note_on,,1,0,11,,,,,,,,,,,,,,,,13,,48,48
27780,note_on,,1,0,8,,,,,,,,,,,,,,,,10,,72,48
27780,note_on,,1,0,10,,,,,,,,,,,,,,,,12,,63,48
27780,note_on,,0,0,12,,,,,,,,,,,,,,,,15,,72,48
27899,note_on,,119,0,10,,,,,,,,,,,,,,,,12,,63,0
27899,note_on,,119,0,9,,,,,,,,,,,,,,,,11,,67,0
27900,note_on,,1,0,9,,,,,,,,,,,,,,,,11,,65,48
27900,note_on,,1,0,10,,,,,,,,,,,,,,,,12,,68,48
27959,note_on,,59,0,9,,,,,,,,,,,,,,,,11,,65,0
27959,note_on,,59,0,10,,,,,,,,,,,,,,,,12,,68,0
27959,note_on,,179,0,6,,,,,,,,,,,,,,,,5,,72,0
27960,note_on,,1,0,9,,,,,,,,,,,,,,,,11,,63,48
27960,note_on,,1,0,10,,,,,,,,,,,,,,,,12,,67,48
28079,note_on,,119,0,10,,,,,,,,,,,,,,,,12,,67,0
28079,note_on,,299,0,8,,,,,,,,,,,,,,,,10,,72,0
28079,note_on,,119,0,9,,,,,,,,,,,,,,,,11,,63,0
28080,note_on,,121,0,6,,,,,,,,,,,,,,,,5,,72,64
28080,note_on,,1,0,10,,,,,,,,,,,,,,,,12,,65,48
28080,note_on,,1,0,8,,,,,,,,,,,,,,,,10,,72,48
28080,note_on,,1,0,9,,,,,,,,,,,,,,,,11,,62,48
28139,note_on,,359,0,12,,,,,,,,,,,,,,,,15,,72,0
28139,note_on,,0,0,12,,,,,,,,,,,,,,,,15,,67,0
28139,note_on,,0,0,12,,,,,,,,,,,,,,,,15,,63,0
28139,note_on,,59,0,9,,,,,,,,,,,,,,,,11,,62,0
28139,note_on,,59,0,6,,,,,,,,,,,,,,,,5,,72,0
28139,note_on,,59,0,10,,,,,,,,,,,,,,,,12,,65,0
28139,note_on,,59,0,8,,,,,,,,,,,,,,,,10,,72,0
28140,note_on,,1,0,8,,,,,,,,,,,,,,,,10,,67,48
28140,note_on,,1,0,6,,,,,,,,,,,,,,,,5,,67,64
28140,note_on,,1,0,10,,,,,,,,,,,,,,,,12,,63,48
28140,note_on,,0,0,12,,,,,,,,,,,,,,,,15,,60,48
28140,note_on,,0,0,12,,,,,,,,,,,,,,,,15,,63,48
28140,note_on,,1,0,12,,,,,,,,,,,,,,,,15,,67,48
28140,note_on,,1,0,9,,,,,,,,,,,,,,,,11,,63,48
28259,note_on,,119,0,8,,,,,,,,,,,,,,,,10,,67,0
28259,note_on,,119,0,9,,,,,,,,,,,,,,,,11,,63,0
28259,note_on,,119,0,6,,,,,,,,,,,,,,,,5,,67,0
28260,note_on,,1,0,9,,,,,,,,,,,,,,,,11,,62,48
28260,note_on,,1,0,8,,,,,,,,,,,,,,,,10,,66,48
28260,note_on,,1,0,6,,,,,,,,,,,,,,,,5,,66,64
28319,note_on,,59,0,8,,,,,,,,,,,,,,,,10,,66,0
28319,note_on,,0,0,12,,,,,,,,,,,,,,,,15,,60,0
28319,note_on,,0,0,12,,,,,,,,,,,,,,,,15,,63,0
28319,note_on,,59,0,9,,,,,,,,,,,,,,,,11,,62,0
28319,note_on,,179,0,12,,,,,,,,,,,,,,,,15,,67,0
28319,note_on,,59,0,6,,,,,,,,,,,,,,,,5,,66,0
28320,note_on,,1,0,12,,,,,,,,,,,,,,,,15,,75,48
28320,note_on,,0,0,12,,,,,,,,,,,,,,,,15,,72,48
28320,note_on,,0,0,12,,,,,,,,,,,,,,,,15,,67,48
28320,note_on,,1,0,8,,,,,,,,,,,,,,,,10,,67,48
28320,note_on,,1,0,9,,,,,,,,,,,,,,,,11,,63,48
28320,note_on,,1,0,6,,,,,,,,,,,,,,,,5,,67,64
28439,note_on,,119,0,12,,,,,,,,,,,,,,,,15,,48,0
28439,note_on,,659,0,11,,,,,,,,,,,,,,,,13,,48,0
28439,note_on,,119,0,8,,,,,,,,,,,,,,,,10,,67,0
28439,note_on,,119,0,9,,,,,,,,,,,,,,,,11,,63,0
28439,note_on,,119,0,6,,,,,,,,,,,,,,,,5,,67,0
28439,note_on,,299,0,10,,,,,,,,,,,,,,,,12,,63,0
28440,note_on,,1,0,12,,,,,,,,,,,,,,,,15,,48,48
28440,note_on,,1,0,8,,,,,,,,,,,,,,,,10,,69,48
28440,note_on,,1,0,10,,,,,,,,,,,,,,,,12,,60,48
28440,note_on,,1,0,11,,,,,,,,,,,,,,,,13,,48,48
28440,note_on,,1,0,6,,,,,,,,,,,,,,,,5,,69,64
28440,note_on,,1,0,9,,,,,,,,,,,,,,,,11,,63,48
28499,note_on,,0,0,12,,,,,,,,,,,,,,,,15,,72,0
28499,note_on,,0,0,12,,,,,,,,,,,,,,,,15,,67,0
28499,note_on,,59,0,10,,,,,,,,,,,,,,,,12,,60,0
28499,note_on,,59,0,12,,,,,,,,,,,,,,,,15,,75,0
28499,note_on,,59,0,8,,,,,,,,,,,,,,,,10,,69,0
28499,note_on,,59,0,6,,,,,,,,,,,,,,,,5,,69,0
28499,note_on,,59,0,9,,,,,,,,,,,,,,,,11,,63,0
28499,note_on,,59,0,11,,,,,,,,,,,,,,,,13,,48,0
28499,note_on,,0,0,12,,,,,,,,,,,,,,,,15,,48,0
28500,note_on,,0,0,12,,,,,,,,,,,,,,,,15,,67,48
28500,note_on,,0,0,12,,,,,,,,,,,,,,,,15,,70,48
28500,note_on,,1,0,11,,,,,,,,,,,,,,,,13,,55,48
28500,note_on,,1,0,10,,,,,,,,,,,,,,,,12,,58,48
28500,note_on,,1,0,12,,,,,,,,,,,,,,,,15,,55,48
28500,note_on,,1,0,9,,,,,,,,,,,,,,,,11,,62,48
28500,note_on,,1,0,6,,,,,,,,,,,,,,,,5,,70,64
28500,note_on,,1,0,8,,,,,,,,,,,,,,,,10,,70,48
28500,note_on,,0,0,12,,,,,,,,,,,,,,,,15,,74,48
28619,note_on,,119,0,8,,,,,,,,,,,,,,,,10,,70,0
28619,note_on,,119,0,10,,,,,,,,,,,,,,,,12,,58,0
28619,note_on,,119,0,12,,,,,,,,,,,,,,,,15,,55,0
28619,note_on,,119,0,11,,,,,,,,,,,,,,,,13,,55,0
28619,note_on,,119,0,6,,,,,,,,,,,,,,,,5,,70,0
28620,note_on,,1,0,6,,,,,,,,,,,,,,,,5,,69,64
28620,note_on,,1,0,8,,,,,,,,,,,,,,,,10,,69,48
28620,note_on,,1,0,12,,,,,,,,,,,,,,,,15,,54,48
28620,note_on,,1,0,11,,,,,,,,,,,,,,,,13,,54,48
28620,note_on,,1,0,10,,,,,,,,,,,,,,,,12,,54,48
28679,note_on,,59,0,12,,,,,,,,,,,,,,,,15,,74,0
28679,note_on,,59,0,8,,,,,,,,,,,,,,,,10,,69,0
28679,note_on,,59,0,11,,,,,,,,,,,,,,,,13,,54,0
28679,note_on,,0,0,12,,,,,,,,,,,,,,,,15,,70,0
28679,note_on,,59,0,6,,,,,,,,,,,,,,,,5,,69,0
28679,note_on,,0,0,12,,,,,,,,,,,,,,,,15,,54,0
28679,note_on,,179,0,9,,,,,,,,,,,,,,,,11,,62,0
28679,note_on,,0,0,12,,,,,,,,,,,,,,,,15,,67,0
28679,note_on,,59,0,10,,,,,,,,,,,,,,,,12,,54,0
28680,note_on,,1,0,10,,,,,,,,,,,,,,,,12,,55,48
28680,note_on,,1,0,8,,,,,,,,,,,,,,,,10,,70,48
28680,note_on,,1,0,9,,,,,,,,,,,,,,,,11,,67,48
28680,note_on,,1,0,6,,,,,,,,,,,,,,,,5,,70,64
28680,note_on,,1,0,11,,,,,,,,,,,,,,,,13,,55,48
28680,note_on,,1,0,12,,,,,,,,,,,,,,,,15,,55,48
28680,note_on,,0,0,12,,,,,,,,,,,,,,,,15,,79,48
28680,note_on,,0,0,12,,,,,,,,,,,,,,,,15,,74,48
28680,note_on,,0,0,12,,,,,,,,,,,,,,,,15,,70,48
28799,note_on,,119,0,11,,,,,,,,,,,,,,,,13,,55,0
28799,note_on,,119,0,8,,,,,,,,,,,,,,,,10,,70,0
28799,note_on,,119,0,9,,,,,,,,,,,,,,,,11,,67,0
28799,note_on,,119,0,10,,,,,,,,,,,,,,,,12,,55,0
28799,note_on,,119,0,12,,,,,,,,,,,,,,,,15,,55,0
28799,note_on,,119,0,6,,,,,,,,,,,,,,,,5,,70,0
28800,note_on,,1,0,6,,,,,,,,,,,,,,,,5,,72,64
28800,note_on,,1,0,12,,,,,,,,,,,,,,,,15,,57,48
28800,note_on,,1,0,9,,,,,,,,,,,,,,,,11,,65,48
28800,note_on,,1,0,8,,,,,,,,,,,,,,,,10,,72,48
28800,note_on,,1,0,10,,,,,,,,,,,,,,,,12,,57,48
28800,note_on,,1,0,11,,,,,,,,,,,,,,,,13,,57,48
28859,note_on,,0,0,12,,,,,,,,,,,,,,,,15,,70,0
28859,note_on,,0,0,12,,,,,,,,,,,,,,,,15,,57,0
28859,note_on,,0,0,12,,,,,,,,,,,,,,,,15,,74,0
28859,note_on,,59,0,8,,,,,,,,,,,,,,,,10,,72,0
28859,note_on,,59,0,12,,,,,,,,,,,,,,,,15,,79,0
28859,note_on,,59,0,9,,,,,,,,,,,,,,,,11,,65,0
28859,note_on,,59,0,10,,,,,,,,,,,,,,,,12,,57,0
28859,note_on,,59,0,11,,,,,,,,,,,,,,,,13,,57,0
28859,note_on,,59,0,6,,,,,,,,,,,,,,,,5,,72,0
28860,note_on,,1,0,9,,,,,,,,,,,,,,,,11,,65,48
28860,note_on,,1,0,12,,,,,,,,,,,,,,,,15,,58,48
28860,note_on,,0,0,12,,,,,,,,,,,,,,,,15,,77,48
28860,note_on,,0,0,12,,,,,,,,,,,,,,,,15,,74,48
28860,note_on,,0,0,12,,,,,,,,,,,,,,,,15,,70,48
28860,note_on,,1,0,6,,,,,,,,,,,,,,,,5,,74,64
28860,note_on,,1,0,8,,,,,,,,,,,,,,,,10,,74,48
28860,note_on,,1,0,11,,,,,,,,,,,,,,,,13,,58,48
28860,note_on,,1,0,10,,,,,,,,,,,,,,,,12,,58,48
28979,note_on,,119,0,10,,,,,,,,,,,,,,,,12,,58,0
28979,note_on,,119,0,6,,,,,,,,,,,,,,,,5,,74,0
28979,note_on,,119,0,8,,,,,,,,,,,,,,,,10,,74,0
28979,note_on,,119,0,12,,,,,,,,,,,,,,,,15,,58,0
28979,note_on,,119,0,11,,,,,,,,,,,,,,,,13,,58,0
28980,note_on,,1,0,6,,,,,,,,,,,,,,,,5,,72,64
28980,note_on,,1,0,10,,,,,,,,,,,,,,,,12,,57,48
28980,note_on,,1,0,8,,,,,,,,,,,,,,,,10,,72,48
28980,note_on,,1,0,12,,,,,,,,,,,,,,,,15,,57,48
28980,note_on,,1,0,11,,,,,,,,,,,,,,,,13,,57,48
29039,note_on,,59,0,8,,,,,,,,,,,,,,,,10,,72,0
29039,note_on,,0,0,12,,,,,,,,,,,,,,,,15,,57,0
29039,note_on,,59,0,10,,,,,,,,,,,,,,,,12,,57,0
29039,note_on,,59,0,11,,,,,,,,,,,,,,,,13,,57,0
29039,note_on,,59,0,12,,,,,,,,,,,,,,,,15,,77,0
29039,note_on,,0,0,12,,,,,,,,,,,,,,,,15,,74,0
29039,note_on,,59,0,6,,,,,,,,,,,,,,,,5,,72,0
29039,note_on,,0,0,12,,,,,,,,,,,,,,,,15,,70,0
29040,note_on,,0,0,12,,,,,,,,,,,,,,,,15,,62,48
29040,note_on,,0,0,12,,,,,,,,,,,,,,,,15,,65,48
29040,note_on,,1,0,11,,,,,,,,,,,,,,,,13,,58,48
29040,note_on,,1,0,6,,,,,,,,,,,,,,,,5,,74,64
29040,note_on,,1,0,8,,,,,,,,,,,,,,,,10,,74,48
29040,note_on,,1,0,12,,,,,,,,,,,,,,,,15,,58,48
29040,note_on,,1,0,10,,,,,,,,,,,,,,,,12,,58,48
29159,note_on,,119,0,11,,,,,,,,,,,,,,,,13,,58,0
29159,note_on,,119,0,6,,,,,,,,,,,,,,,,5,,74,0
29159,note_on,,299,0,9,,,,,,,,,,,,,,,,11,,65,0
29159,note_on,,119,0,8,,,,,,,,,,,,,,,,10,,74,0
29159,note_on,,119,0,10,,,,,,,,,,,,,,,,12,,58,0
29159,note_on,,119,0,12,,,,,,,,,,,,,,,,15,,58,0
29160,note_on,,1,0,10,,,,,,,,,,,,,,,,12,,60,48
29160,note_on,,1,0,12,,,,,,,,,,,,,,,,15,,60,48
29160,note_on,,1,0,11,,,,,,,,,,,,,,,,13,,60,48
29160,note_on,,1,0,9,,,,,,,,,,,,,,,,11,,69,48
29160,note_on,,1,0,6,,,,,,,,,,,,,,,,5,,75,64
29160,note_on,,1,0,8,,,,,,,,,,,,,,,,10,,75,48
29219,note_on,,59,0,12,,,,,,,,,,,,,,,,15,,65,0
29219,note_on,,59,0,9,,,,,,,,,,,,,,,,11,,69,0
29219,note_on,,0,0,12,,,,,,,,,,,,,,,,15,,62,0
29219,note_on,,59,0,11,,,,,,,,,,,,,,,,13,,60,0
29219,note_on,,59,0,10,,,,,,,,,,,,,,,,12,,60,0
29219,note_on,,59,0,8,,,,,,,,,,,,,,,,10,,75,0
29219,note_on,,59,0,6,,,,,,,,,,,,,,,,5,,75,0
29219,note_on,,0,0,12,,,,,,,,,,,,,,,,15,,60,0
29220,note_on,,1,0,9,,,,,,,,,,,,,,,,11,,70,48
29220,note_on,,1,0,10,,,,,,,,,,,,,,,,12,,62,48
29220,note_on,,1,0,8,,,,,,,,,,,,,,,,10,,77,48
29220,note_on,,1,0,6,,,,,,,,,,,,,,,,5,,77,64
29220,note_on,,0,0,12,,,,,,,,,,,,,,,,15,,65,48
29220,note_on,,0,0,12,,,,,,,,,,,,,,,,15,,70,48
29220,note_on,,1,0,12,,,,,,,,,,,,,,,,15,,62,48
29220,note_on,,1,0,11,,,,,,,,,,,,,,,,13,,62,48
29339,note_on,,119,0,10,,,,,,,,,,,,,,,,12,,62,0
29339,note_on,,119,0,9,,,,,,,,,,,,,,,,11,,70,0
29339,note_on,,119,0,12,,,,,,,,,,,,,,,,15,,62,0
29339,note_on,,119,0,11,,,,,,,,,,,,,,,,13,,62,0
29340,note_on,,1,0,9,,,,,,,,,,,,,,,,11,,69,48
29340,note_on,,1,0,12,,,,,,,,,,,,,,,,15,,60,48
29340,note_on,,1,0,10,,,,,,,,,,,,,,,,12,,60,48
29340,note_on,,1,0,11,,,,,,,,,,,,,,,,13,,60,48
29399,note_on,,59,0,12,,,,,,,,,,,,,,,,15,,70,0
29399,note_on,,59,0,11,,,,,,,,,,,,,,,,13,,60,0
29399,note_on,,59,0,10,,,,,,,,,,,,,,,,12,,60,0
29399,note_on,,59,0,9,,,,,,,,,,,,,,,,11,,69,0
29399,note_on,,0,0,12,,,,,,,,,,,,,,,,15,,65,0
29399,note_on,,0,0,12,,,,,,,,,,,,,,,,15,,60,0
29400,note_on,,0,0,12,,,,,,,,,,,,,,,,15,,77,48
29400,note_on,,0,0,12,,,,,,,,,,,,,,,,15,,74,48
29400,note_on,,1,0,10,,,,,,,,,,,,,,,,12,,62,48
29400,note_on,,0,0,12,,,,,,,,,,,,,,,,15,,70,48
29400,note_on,,1,0,11,,,,,,,,,,,,,,,,13,,62,48
29400,note_on,,1,0,12,,,,,,,,,,,,,,,,15,,62,48
29400,note_on,,1,0,9,,,,,,,,,,,,,,,,11,,70,48
29489,note_on,,89,0,9,,,,,,,,,,,,,,,,11,,70,0
29490,note_on,,1,0,9,,,,,,,,,,,,,,,,11,,72,48
29519,note_on,,119,0,12,,,,,,,,,,,,,,,,15,,62,0
29519,note_on,,29,0,9,,,,,,,,,,,,,,,,11,,72,0
29519,note_on,,119,0,11,,,,,,,,,,,,,,,,13,,62,0
29519,note_on,,299,0,6,,,,,,,,,,,,,,,,5,,77,0
29519,note_on,,119,0,10,,,,,,,,,,,,,,,,12,,62,0
29519,note_on,,299,0,8,,,,,,,,,,,,,,,,10,,77,0
29520,note_on,,1,0,6,,,,,,,,,,,,,,,,5,,77,64
29520,note_on,,1,0,12,,,,,,,,,,,,,,,,15,,63,48
29520,note_on,,1,0,11,,,,,,,,,,,,,,,,13,,63,48
29520,note_on,,1,0,8,,,,,,,,,,,,,,,,10,,77,48
29520,note_on,,1,0,9,,,,,,,,,,,,,,,,11,,70,48
29520,note_on,,1,0,10,,,,,,,,,,,,,,,,12,,63,48
29579,note_on,,59,0,9,,,,,,,,,,,,,,,,11,,70,0
29579,note_on,,0,0,12,,,,,,,,,,,,,,,,15,,63,0
29579,note_on,,59,0,12,,,,,,,,,,,,,,,,15,,77,0
29579,note_on,,59,0,10,,,,,,,,,,,,,,,,12,,63,0
29579,note_on,,59,0,8,,,,,,,,,,,,,,,,10,,77,0
29579,note_on,,0,0,12,,,,,,,,,,,,,,,,15,,74,0
29579,note_on,,59,0,11,,,,,,,,,,,,,,,,13,,63,0
29579,note_on,,59,0,6,,,,,,,,,,,,,,,,5,,77,0
29579,note_on,,0,0,12,,,,,,,,,,,,,,,,15,,70,0
29580,note_on,,1,0,12,,,,,,,,,,,,,,,,15,,65,48
29580,note_on,,1,0,6,,,,,,,,,,,,,,,,5,,72,64
29580,note_on,,0,0,12,,,,,,,,,,,,,,,,15,,69,48
29580,note_on,,1,0,11,,,,,,,,,,,,,,,,13,,65,48
29580,note_on,,1,0,8,,,,,,,,,,,,,,,,10,,72,48
29580,note_on,,1,0,10,,,,,,,,,,,,,,,,12,,65,48
29580,note_on,,0,0,12,,,,,,,,,,,,,,,,15,,72,48
29580,note_on,,1,0,9,,,,,,,,,,,,,,,,11,,69,48
29699,note_on,,119,0,9,,,,,,,,,,,,,,,,11,,69,0
29699,note_on,,119,0,8,,,,,,,,,,,,,,,,10,,72,0
29699,note_on,,119,0,6,,,,,,,,,,,,,,,,5,,72,0
29700,note_on,,1,0,8,,,,,,,,,,,,,,,,10,,70,48
29700,note_on,,1,0,9,,,,,,,,,,,,,,,,11,,67,48
29700,note_on,,1,0,6,,,,,,,,,,,,,,,,5,,70,64
29759,note_on,,59,0,6,,,,,,,,,,,,,,,,5,,70,0
29759,note_on,,59,0,9,,,,,,,,,,,,,,,,11,,67,0
29759,note_on,,59,0,8,,,,,,,,,,,,,,,,10,,70,0
29760,note_on,,1,0,6,,,,,,,,,,,,,,,,5,,72,64
29760,note_on,,1,0,8,,,,,,,,,,,,,,,,10,,72,48
29760,note_on,,1,0,9,,,,,,,,,,,,,,,,11,,69,48
29879,note_on,,119,0,9,,,,,,,,,,,,,,,,11,,69,0
29879,note_on,,119,0,8,,,,,,,,,,,,,,,,10,,72,0
29879,note_on,,119,0,6,,,,,,,,,,,,,,,,5,,72,0
29880,note_on,,1,0,8,,,,,,,,,,,,,,,,10,,74,48
29880,note_on,,1,0,9,,,,,,,,,,,,,,,,11,,70,48
29880,note_on,,1,0,6,,,,,,,,,,,,,,,,5,,74,64
29939,note_on,,0,0,12,,,,,,,,,,,,,,,,15,,69,0
29939,note_on,,59,0,8,,,,,,,,,,,,,,,,10,,74,0
29939,note_on,,359,0,12,,,,,,,,,,,,,,,,15,,72,0
29939,note_on,,59,0,9,,,,,,,,,,,,,,,,11,,70,0
29939,note_on,,59,0,6,,,,,,,,,,,,,,,,5,,74,0
29940,note_on,,1,0,8,,,,,,,,,,,,,,,,10,,75,48
29940,note_on,,1,0,6,,,,,,,,,,,,,,,,5,,75,64
29940,note_on,,1,0,9,,,,,,,,,,,,,,,,11,,72,48
29940,note_on,,1,0,12,,,,,,,,,,,,,,,,15,,81,48
29940,note_on,,0,0,12,,,,,,,,,,,,,,,,15,,75,48
29940,note_on,,0,0,12,,,,,,,,,,,,,,,,15,,72,48
30059,note_on,,119,0,9,,,,,,,,,,,,,,,,11,,72,0
30060,note_on,,1,0,9,,,,,,,,,,,,,,,,11,,69,48
30119,note_on,,59,0,9,,,,,,,,,,,,,,,,11,,69,0
30120,note_on,,1,0,9,,,,,,,,,,,,,,,,11,,72,48
30209,note_on,,89,0,9,,,,,,,,,,,,,,,,11,,72,0
30210,note_on,,1,0,9,,,,,,,,,,,,,,,,11,,70,48
30239,note_on,,299,0,8,,,,,,,,,,,,,,,,10,,75,0
30239,note_on,,299,0,6,,,,,,,,,,,,,,,,5,,75,0
30239,note_on,,29,0,9,,,,,,,,,,,,,,,,11,,70,0
30240,note_on,,1,0,6,,,,,,,,,,,,,,,,5,,75,64
30240,note_on,,1,0,8,,,,,,,,,,,,,,,,10,,75,48
30240,note_on,,1,0,9,,,,,,,,,,,,,,,,11,,69,48
30299,note_on,,0,0,12,,,,,,,,,,,,,,,,15,,72,0
30299,note_on,,59,0,6,,,,,,,,,,,,,,,,5,,75,0
30299,note_on,,59,0,8,,,,,,,,,,,,,,,,10,,75,0
30299,note_on,,719,0,11,,,,,,,,,,,,,,,,13,,65,0
30299,note_on,,719,0,10,,,,,,,,,,,,,,,,12,,65,0
30299,note_on,,359,0,12,,,,,,,,,,,,,,,,15,,65,0
30299,note_on,,59,0,9,,,,,,,,,,,,,,,,11,,69,0
30299,note_on,,0,0,12,,,,,,,,,,,,,,,,15,,75,0
30299,note_on,,0,0,12,,,,,,,,,,,,,,,,15,,81,0
30300,note_on,,0,0,12,,,,,,,,,,,,,,,,15,,82,48
30300,note_on,,1,0,11,,,,,,,,,,,,,,,,13,,58,48
30300,note_on,,1,0,8,,,,,,,,,,,,,,,,10,,74,48
30300,note_on,,0,0,12,,,,,,,,,,,,,,,,15,,77,48
30300,note_on,,0,0,12,,,,,,,,,,,,,,,,15,,74,48
30300,note_on,,1,0,9,,,,,,,,,,,,,,,,11,,70,48
30300,note_on,,1,0,12,,,,,,,,,,,,,,,,15,,58,48
30300,note_on,,1,0,6,,,,,,,,,,,,,,,,5,,74,64
30300,note_on,,1,0,10,,,,,,,,,,,,,,,,12,,65,48
30419,note_on,,119,0,9,,,,,,,,,,,,,,,,11,,70,0
30420,note_on,,1,0,9,,,,,,,,,,,,,,,,11,,65,48
30479,note_on,,0,0,12,,,,,,,,,,,,,,,,15,,74,0
30479,note_on,,0,0,12,,,,,,,,,,,,,,,,15,,82,0
30479,note_on,,0,0,12,,,,,,,,,,,,,,,,15,,77,0
30479,note_on,,179,0,10,,,,,,,,,,,,,,,,12,,65,0
30479,note_on,,179,0,8,,,,,,,,,,,,,,,,10,,74,0
30479,note_on,,179,0,11,,,,,,,,,,,,,,,,13,,58,0
30479,note_on,,179,0,12,,,,,,,,,,,,,,,,15,,58,0
30479,note_on,,179,0,6,,,,,,,,,,,,,,,,5,,74,0
30479,note_on,,59,0,9,,,,,,,,,,,,,,,,11,,65,0
30480,note_on,,1,0,6,,,,,,,,,,,,,,,,5,,72,64
30480,note_on,,0,0,12,,,,,,,,,,,,,,,,15,,79,48
30480,note_on,,0,0,12,,,,,,,,,,,,,,,,15,,75,48
30480,note_on,,0,0,12,,,,,,,,,,,,,,,,15,,67,48
30480,note_on,,1,0,12,,,,,,,,,,,,,,,,15,,51,48
30480,note_on,,1,0,10,,,,,,,,,,,,,,,,12,,63,48
30480,note_on,,1,0,9,,,,,,,,,,,,,,,,11,,67,48
30480,note_on,,1,0,11,,,,,,,,,,,,,,,,13,,51,48
30480,note_on,,1,0,8,,,,,,,,,,,,,,,,10,,72,48
30599,note_on,,119,0,8,,,,,,,,,,,,,,,,10,,72,0
30599,note_on,,119,0,9,,,,,,,,,,,,,,,,11,,67,0
30599,note_on,,119,0,6,,,,,,,,,,,,,,,,5,,72,0
30600,note_on,,1,0,8,,,,,,,,,,,,,,,,10,,70,48
30600,note_on,,1,0,6,,,,,,,,,,,,,,,,5,,70,64
30600,note_on,,1,0,9,,,,,,,,,,,,,,,,11,,60,48
30659,note_on,,0,0,12,,,,,,,,,,,,,,,,15,,75,0
30659,note_on,,179,0,10,,,,,,,,,,,,,,,,12,,63,0
30659,note_on,,59,0,9,,,,,,,,,,,,,,,,11,,60,0
30659,note_on,,59,0,6,,,,,,,,,,,,,,,,5,,70,0
30659,note_on,,0,0,12,,,,,,,,,,,,,,,,15,,67,0
30659,note_on,,179,0,12,,,,,,,,,,,,,,,,15,,79,0
30659,note_on,,59,0,8,,,,,,,,,,,,,,,,10,,70,0
30660,note_on,,1,0,8,,,,,,,,,,,,,,,,10,,69,48
30660,note_on,,1,0,9,,,,,,,,,,,,,,,,11,,60,48
30660,note_on,,1,0,10,,,,,,,,,,,,,,,,12,,65,48
30660,note_on,,0,0,12,,,,,,,,,,,,,,,,15,,65,48
30660,note_on,,1,0,6,,,,,,,,,,,,,,,,5,,69,64
30660,note_on,,1,0,12,,,,,,,,,,,,,,,,15,,72,48
30660,note_on,,0,0,12,,,,,,,,,,,,,,,,15,,69,48
30779,note_on,,299,0,11,,,,,,,,,,,,,,,,13,,51,0
30779,note_on,,119,0,6,,,,,,,,,,,,,,,,5,,69,0
30779,note_on,,119,0,12,,,,,,,,,,,,,,,,15,,51,0
30779,note_on,,119,0,8,,,,,,,,,,,,,,,,10,,69,0
30779,note_on,,119,0,9,,,,,,,,,,,,,,,,11,,60,0
30779,note_on,,0,0,12,,,,,,,,,,,,,,,,15,,72,0
30779,note_on,,0,0,12,,,,,,,,,,,,,,,,15,,69,0
30779,note_on,,0,0,12,,,,,,,,,,,,,,,,15,,65,0
30780,note_on,,1,0,11,,,,,,,,,,,,,,,,13,,50,48
30780,note_on,,1,0,12,,,,,,,,,,,,,,,,15,,50,48
30780,note_on,,1,0,9,,,,,,,,,,,,,,,,11,,62,48
30780,note_on,,0,0,12,,,,,,,,,,,,,,,,15,,74,48
30780,note_on,,0,0,12,,,,,,,,,,,,,,,,15,,65,48
30780,note_on,,1,0,6,,,,,,,,,,,,,,,,5,,70,64
30780,note_on,,1,0,8,,,,,,,,,,,,,,,,10,,70,48
30780,note_on,,0,0,12,,,,,,,,,,,,,,,,15,,70,48
30839,note_on,,59,0,12,,,,,,,,,,,,,,,,15,,50,0
30839,note_on,,59,0,11,,,,,,,,,,,,,,,,13,,50,0
30839,note_on,,59,0,9,,,,,,,,,,,,,,,,11,,62,0
30839,note_on,,59,0,8,,,,,,,,,,,,,,,,10,,70,0
30839,note_on,,59,0,6,,,,,,,,,,,,,,,,5,,70,0
30839,note_on,,179,0,10,,,,,,,,,,,,,,,,12,,65,0
30840,note_on,,1,0,10,,,,,,,,,,,,,,,,12,,70,48
30840,note_on,,1,0,11,,,,,,,,,,,,,,,,13,,50,48
30840,note_on,,1,0,12,,,,,,,,,,,,,,,,15,,50,48
30959,note_on,,119,0,10,,,,,,,,,,,,,,,,12,,70,0
30959,note_on,,0,0,12,,,,,,,,,,,,,,,,15,,70,0
30959,note_on,,119,0,12,,,,,,,,,,,,,,,,15,,74,0
30959,note_on,,0,0,12,,,,,,,,,,,,,,,,15,,50,0
30959,note_on,,119,0,11,,,,,,,,,,,,,,,,13,,50,0
30959,note_on,,0,0,12,,,,,,,,,,,,,,,,15,,65,0
30960,note_on,,1,0,10,,,,,,,,,,,,,,,,12,,63,48
30960,note_on,,1,0,11,,,,,,,,,,,,,,,,13,,55,48
30960,note_on,,121,0,6,,,,,,,,,,,,,,,,5,,75,64
30960,note_on,,0,0,12,,,,,,,,,,,,,,,,15,,63,48
30960,note_on,,0,0,12,,,,,,,,,,,,,,,,15,,70,48
30960,note_on,,0,0,12,,,,,,,,,,,,,,,,15,,75,48
30960,note_on,,1,0,12,,,,,,,,,,,,,,,,15,,55,48
30960,note_on,,121,0,9,,,,,,,,,,,,,,,,11,,70,48
30960,note_on,,121,0,8,,,,,,,,,,,,,,,,10,,75,48
31019,note_on,,59,0,6,,,,,,,,,,,,,,,,5,,75,0
31019,note_on,,59,0,10,,,,,,,,,,,,,,,,12,,63,0
31019,note_on,,0,0,12,,,,,,,,,,,,,,,,15,,70,0
31019,note_on,,0,0,12,,,,,,,,,,,,,,,,15,,75,0
31019,note_on,,59,0,12,,,,,,,,,,,,,,,,15,,55,0
31019,note_on,,0,0,12,,,,,,,,,,,,,,,,15,,63,0
31019,note_on,,59,0,11,,,,,,,,,,,,,,,,13,,55,0
31019,note_on,,59,0,9,,,,,,,,,,,,,,,,11,,70,0
31019,note_on,,59,0,8,,,,,,,,,,,,,,,,10,,75,0
31020,note_on,,0,0,12,,,,,,,,,,,,,,,,15,,65,48
31020,note_on,,0,0,12,,,,,,,,,,,,,,,,15,,70,48
31020,note_on,,1,0,12,,,,,,,,,,,,,,,,15,,53,48
31020,note_on,,1,0,6,,,,,,,,,,,,,,,,5,,74,64
31020,note_on,,1,0,11,,,,,,,,,,,,,,,,13,,53,48
31020,note_on,,1,0,8,,,,,,,,,,,,,,,,10,,74,48
31020,note_on,,1,0,10,,,,,,,,,,,,,,,,12,,65,48
31020,note_on,,0,0,12,,,,,,,,,,,,,,,,15,,62,48
31020,note_on,,1,0,9,,,,,,,,,,,,,,,,11,,70,48
31199,note_on,,0,0,12,,,,,,,,,,,,,,,,15,,70,0
31199,note_on,,179,0,10,,,,,,,,,,,,,,,,12,,65,0
31199,note_on,,0,0,12,,,,,,,,,,,,,,,,15,,65,0
31199,note_on,,0,0,12,,,,,,,,,,,,,,,,15,,62,0
31199,note_on,,179,0,8,,,,,,,,,,,,,,,,10,,74,0
31199,note_on,,179,0,11,,,,,,,,,,,,,,,,13,,53,0
31199,note_on,,179,0,6,,,,,,,,,,,,,,,,5,,74,0
31199,note_on,,179,0,12,,,,,,,,,,,,,,,,15,,53,0
31199,note_on,,179,0,9,,,,,,,,,,,,,,,,11,,70,0
31200,note_on,,1,0,12,,,,,,,,,,,,,,,,15,,41,48
31200,note_on,,0,0,12,,,,,,,,,,,,,,,,15,,69,48
31200,note_on,,0,0,12,,,,,,,,,,,,,,,,15,,65,48
31200,note_on,,0,0,12,,,,,,,,,,,,,,,,15,,60,48
31200,note_on,,1,0,11,,,,,,,,,,,,,,,,13,,41,48
31200,note_on,,1,0,6,,,,,,,,,,,,,,,,5,,72,64
31200,note_on,,1,0,10,,,,,,,,,,,,,,,,12,,63,48
31200,note_on,,1,0,8,,,,,,,,,,,,,,,,10,,72,48
31200,note_on,,1,0,9,,,,,,,,,,,,,,,,11,,69,48
31319,note_on,,119,0,8,,,,,,,,,,,,,,,,10,,72,0
31319,note_on,,119,0,6,,,,,,,,,,,,,,,,5,,72,0
31320,note_on,,1,0,8,,,,,,,,,,,,,,,,10,,70,48
31320,note_on,,1,0,6,,,,,,,,,,,,,,,,5,,70,64
31379,note_on,,179,0,11,,,,,,,,,,,,,,,,13,,41,0
31379,note_on,,59,0,8,,,,,,,,,,,,,,,,10,,70,0
31379,note_on,,179,0,12,,,,,,,,,,,,,,,,15,,41,0
31379,note_on,,179,0,10,,,,,,,,,,,,,,,,12,,63,0
31379,note_on,,0,0,12,,,,,,,,,,,,,,,,15,,60,0
31379,note_on,,0,0,12,,,,,,,,,,,,,,,,15,,65,0
31379,note_on,,59,0,6,,,,,,,,,,,,,,,,5,,70,0
31379,note_on,,0,0,12,,,,,,,,,,,,,,,,15,,69,0
31379,note_on,,179,0,9,,,,,,,,,,,,,,,,11,,69,0
31380,note_on,,0,0,12,,,,,,,,,,,,,,,,15,,62,48
31380,note_on,,1,0,12,,,,,,,,,,,,,,,,15,,46,48
31380,note_on,,1,0,11,,,,,,,,,,,,,,,,13,,46,48
31380,note_on,,0,0,12,,,,,,,,,,,,,,,,15,,65,48
31380,note_on,,1,0,9,,,,,,,,,,,,,,,,11,,65,48
31380,note_on,,1,0,10,,,,,,,,,,,,,,,,12,,62,48
31380,note_on,,1,0,8,,,,,,,,,,,,,,,,10,,70,48
31380,note_on,,0,0,12,,,,,,,,,,,,,,,,15,,70,48
31380,note_on,,1,0,6,,,,,,,,,,,,,,,,5,,70,64
31499,note_on,,119,0,10,,,,,,,,,,,,,,,,12,,62,0
31499,note_on,,119,0,8,,,,,,,,,,,,,,,,10,,70,0
31499,note_on,,119,0,9,,,,,,,,,,,,,,,,11,,65,0
31500,note_on,,1,0,10,,,,,,,,,,,,,,,,12,,65,48
31500,note_on,,1,0,9,,,,,,,,,,,,,,,,11,,69,48
31500,note_on,,1,0,8,,,,,,,,,,,,,,,,10,,72,48
31559,note_on,,59,0,10,,,,,,,,,,,,,,,,12,,65,0
31559,note_on,,59,0,8,,,,,,,,,,,,,,,,10,,72,0
31559,note_on,,59,0,9,,,,,,,,,,,,,,,,11,,69,0
31560,note_on,,1,0,9,,,,,,,,,,,,,,,,11,,70,48
31560,note_on,,1,0,10,,,,,,,,,,,,,,,,12,,65,48
31560,note_on,,1,0,8,,,,,,,,,,,,,,,,10,,74,48
31679,note_on,,119,0,10,,,,,,,,,,,,,,,,12,,65,0
31679,note_on,,119,0,8,,,,,,,,,,,,,,,,10,,74,0
31679,note_on,,119,0,9,,,,,,,,,,,,,,,,11,,70,0
31680,note_on,,1,0,10,,,,,,,,,,,,,,,,12,,65,48
31680,note_on,,1,0,9,,,,,,,,,,,,,,,,11,,72,48
31680,note_on,,1,0,8,,,,,,,,,,,,,,,,10,,75,48
31739,note_on,,59,0,8,,,,,,,,,,,,,,,,10,,75,0
31739,note_on,,359,0,12,,,,,,,,,,,,,,,,15,,46,0
31739,note_on,,59,0,10,,,,,,,,,,,,,,,,12,,65,0
31739,note_on,,359,0,6,,,,,,,,,,,,,,,,5,,70,0
31739,note_on,,59,0,9,,,,,,,,,,,,,,,,11,,72,0
31739,note_on,,359,0,11,,,,,,,,,,,,,,,,13,,46,0
31739,note_on,,0,0,12,,,,,,,,,,,,,,,,15,,62,0
31739,note_on,,0,0,12,,,,,,,,,,,,,,,,15,,65,0
31739,note_on,,0,0,12,,,,,,,,,,,,,,,,15,,70,0
31740,note_on,,1,0,11,,,,,,,,,,,,,,,,13,,44,48
31740,note_on,,1,0,10,,,,,,,,,,,,,,,,12,,70,48
31740,note_on,,1,0,12,,,,,,,,,,,,,,,,15,,44,48
31740,note_on,,1,0,8,,,,,,,,,,,,,,,,10,,77,48
31740,note_on,,0,0,12,,,,,,,,,,,,,,,,15,,65,48
31740,note_on,,1,0,9,,,,,,,,,,,,,,,,11,,74,48
31740,note_on,,0,0,12,,,,,,,,,,,,,,,,15,,70,48
31740,note_on,,0,0,12,,,,,,,,,,,,,,,,15,,74,48
31859,note_on,,119,0,8,,,,,,,,,,,,,,,,10,,77,0
31860,note_on,,1,0,8,,,,,,,,,,,,,,,,10,,75,48
31919,note_on,,59,0,8,,,,,,,,,,,,,,,,10,,75,0
31919,note_on,,179,0,10,,,,,,,,,,,,,,,,12,,70,0
31919,note_on,,179,0,9,,,,,,,,,,,,,,,,11,,74,0
31920,note_on,,1,0,8,,,,,,,,,,,,,,,,10,,74,48
31920,note_on,,1,0,10,,,,,,,,,,,,,,,,12,,62,48
31920,note_on,,1,0,9,,,,,,,,,,,,,,,,11,,65,48
32039,note_on,,119,0,8,,,,,,,,,,,,,,,,10,,74,0
32040,note_on,,1,0,8,,,,,,,,,,,,,,,,10,,72,48
32099,note_on,,359,0,12,,,,,,,,,,,,,,,,15,,44,0
32099,note_on,,0,0,12,,,,,,,,,,,,,,,,15,,70,0
32099,note_on,,0,0,12,,,,,,,,,,,,,,,,15,,65,0
32099,note_on,,59,0,8,,,,,,,,,,,,,,,,10,,72,0
32099,note_on,,179,0,9,,,,,,,,,,,,,,,,11,,65,0
32099,note_on,,359,0,11,,,,,,,,,,,,,,,,13,,44,0
32099,note_on,,179,0,10,,,,,,,,,,,,,,,,12,,62,0
32099,note_on,,0,0,12,,,,,,,,,,,,,,,,15,,74,0
32100,note_on,,0,0,12,,,,,,,,,,,,,,,,15,,67,48
32100,note_on,,0,0,12,,,,,,,,,,,,,,,,15,,71,48
32100,note_on,,0,0,12,,,,,,,,,,,,,,,,15,,74,48
32100,note_on,,0,0,12,,,,,,,,,,,,,,,,15,,77,48
32100,note_on,,1,0,12,,,,,,,,,,,,,,,,15,,43,48
32100,note_on,,1,0,11,,,,,,,,,,,,,,,,13,,43,48
32100,note_on,,1,0,10,,,,,,,,,,,,,,,,12,,62,48
32100,note_on,,1,0,8,,,,,,,,,,,,,,,,10,,71,48
32100,note_on,,1,0,9,,,,,,,,,,,,,,,,11,,67,48
32219,note_on,,119,0,8,,,,,,,,,,,,,,,,10,,71,0
32219,note_on,,119,0,9,,,,,,,,,,,,,,,,11,,67,0
32220,note_on,,1,0,9,,,,,,,,,,,,,,,,11,,69,48
32220,note_on,,1,0,8,,,,,,,,,,,,,,,,10,,72,48
32279,note_on,,59,0,8,,,,,,,,,,,,,,,,10,,72,0
32279,note_on,,179,0,10,,,,,,,,,,,,,,,,12,,62,0
32279,note_on,,59,0,9,,,,,,,,,,,,,,,,11,,69,0
32280,note_on,,1,0,8,,,,,,,,,,,,,,,,10,,74,48
32280,note_on,,1,0,10,,,,,,,,,,,,,,,,12,,67,48
32280,note_on,,1,0,9,,,,,,,,,,,,,,,,11,,71,48
32399,note_on,,119,0,8,,,,,,,,,,,,,,,,10,,74,0
32399,note_on,,119,0,9,,,,,,,,,,,,,,,,11,,71,0
32400,note_on,,1,0,8,,,,,,,,,,,,,,,,10,,75,48
32400,note_on,,1,0,9,,,,,,,,,,,,,,,,11,,72,48
32459,note_on,,59,0,8,,,,,,,,,,,,,,,,10,,75,0
32459,note_on,,0,0,12,,,,,,,,,,,,,,,,15,,67,0
32459,note_on,,0,0,12,,,,,,,,,,,,,,,,15,,71,0
32459,note_on,,0,0,12,,,,,,,,,,,,,,,,15,,74,0
32459,note_on,,179,0,10,,,,,,,,,,,,,,,,12,,67,0
32459,note_on,,59,0,9,,,,,,,,,,,,,,,,11,,72,0
32459,note_on,,359,0,12,,,,,,,,,,,,,,,,15,,77,0
32460,note_on,,1,0,9,,,,,,,,,,,,,,,,11,,74,48
32460,note_on,,1,0,12,,,,,,,,,,,,,,,,15,,71,48
32460,note_on,,1,0,8,,,,,,,,,,,,,,,,10,,77,48
32460,note_on,,0,0,12,,,,,,,,,,,,,,,,15,,67,48
32460,note_on,,721,0,6,,,,,,,,,,,,,,,,5,,77,64
32460,note_on,,0,0,12,,,,,,,,,,,,,,,,15,,62,48
32460,note_on,,1,0,10,,,,,,,,,,,,,,,,12,,59,48
32579,note_on,,119,0,9,,,,,,,,,,,,,,,,11,,74,0
32579,note_on,,119,0,6,,,,,,,,,,,,,,,,5,,77,0
32579,note_on,,119,0,10,,,,,,,,,,,,,,,,12,,59,0
32579,note_on,,119,0,8,,,,,,,,,,,,,,,,10,,77,0
32580,note_on,,1,0,6,,,,,,,,,,,,,,,,5,,75,64
32580,note_on,,1,0,10,,,,,,,,,,,,,,,,12,,60,48
32580,note_on,,1,0,8,,,,,,,,,,,,,,,,10,,75,48
32580,note_on,,1,0,9,,,,,,,,,,,,,,,,11,,67,48
32639,note_on,,59,0,10,,,,,,,,,,,,,,,,12,,60,0
32639,note_on,,0,0,12,,,,,,,,,,,,,,,,15,,62,0
32639,note_on,,59,0,6,,,,,,,,,,,,,,,,5,,75,0
32639,note_on,,59,0,8,,,,,,,,,,,,,,,,10,,75,0
32639,note_on,,59,0,9,,,,,,,,,,,,,,,,11,,67,0
32639,note_on,,179,0,12,,,,,,,,,,,,,,,,15,,71,0
32639,note_on,,0,0,12,,,,,,,,,,,,,,,,15,,67,0
32640,note_on,,1,0,8,,,,,,,,,,,,,,,,10,,74,48
32640,note_on,,1,0,12,,,,,,,,,,,,,,,,15,,67,48
32640,note_on,,1,0,10,,,,,,,,,,,,,,,,12,,62,48
32640,note_on,,1,0,9,,,,,,,,,,,,,,,,11,,65,48
32640,note_on,,0,0,12,,,,,,,,,,,,,,,,15,,59,48
32640,note_on,,0,0,12,,,,,,,,,,,,,,,,15,,62,48
32640,note_on,,1,0,6,,,,,,,,,,,,,,,,5,,74,64
32759,note_on,,119,0,9,,,,,,,,,,,,,,,,11,,65,0
32759,note_on,,119,0,10,,,,,,,,,,,,,,,,12,,62,0
32759,note_on,,119,0,8,,,,,,,,,,,,,,,,10,,74,0
32759,note_on,,119,0,6,,,,,,,,,,,,,,,,5,,74,0
32760,note_on,,1,0,6,,,,,,,,,,,,,,,,5,,72,64
32760,note_on,,1,0,10,,,,,,,,,,,,,,,,12,,55,48
32760,note_on,,1,0,8,,,,,,,,,,,,,,,,10,,72,48
32760,note_on,,1,0,9,,,,,,,,,,,,,,,,11,,63,48
32819,note_on,,179,0,12,,,,,,,,,,,,,,,,15,,67,0
32819,note_on,,59,0,6,,,,,,,,,,,,,,,,5,,72,0
32819,note_on,,59,0,8,,,,,,,,,,,,,,,,10,,72,0
32819,note_on,,59,0,10,,,,,,,,,,,,,,,,12,,55,0
32819,note_on,,0,0,12,,,,,,,,,,,,,,,,15,,59,0
32819,note_on,,0,0,12,,,,,,,,,,,,,,,,15,,62,0
32819,note_on,,59,0,9,,,,,,,,,,,,,,,,11,,63,0
32820,note_on,,0,0,12,,,,,,,,,,,,,,,,15,,71,48
32820,note_on,,1,0,12,,,,,,,,,,,,,,,,15,,74,48
32820,note_on,,1,0,9,,,,,,,,,,,,,,,,11,,62,48
32820,note_on,,0,0,12,,,,,,,,,,,,,,,,15,,67,48
32820,note_on,,1,0,10,,,,,,,,,,,,,,,,12,,67,48
32820,note_on,,1,0,8,,,,,,,,,,,,,,,,10,,71,48
32820,note_on,,1,0,6,,,,,,,,,,,,,,,,5,,71,64
32939,note_on,,119,0,10,,,,,,,,,,,,,,,,12,,67,0
32940,note_on,,1,0,10,,,,,,,,,,,,,,,,12,,65,48
32999,note_on,,59,0,10,,,,,,,,,,,,,,,,12,,65,0
32999,note_on,,0,0,12,,,,,,,,,,,,,,,,15,,67,0
32999,note_on,,0,0,12,,,,,,,,,,,,,,,,15,,71,0
32999,note_on,,179,0,6,,,,,,,,,,,,,,,,5,,71,0
32999,note_on,,179,0,8,,,,,,,,,,,,,,,,10,,71,0
32999,note_on,,179,0,9,,,,,,,,,,,,,,,,11,,62,0
32999,note_on,,179,0,12,,,,,,,,,,,,,,,,15,,74,0
33000,note_on,,1,0,6,,,,,,,,,,,,,,,,5,,72,64
33000,note_on,,1,0,12,,,,,,,,,,,,,,,,15,,75,48
33000,note_on,,0,0,12,,,,,,,,,,,,,,,,15,,67,48
33000,note_on,,1,0,10,,,,,,,,,,,,,,,,12,,63,48
33000,note_on,,1,0,8,,,,,,,,,,,,,,,,10,,72,48
33000,note_on,,1,0,9,,,,,,,,,,,,,,,,11,,67,48
33000,note_on,,0,0,12,,,,,,,,,,,,,,,,15,,72,48
33119,note_on,,119,0,8,,,,,,,,,,,,,,,,10,,72,0
33119,note_on,,119,0,9,,,,,,,,,,,,,,,,11,,67,0
33119,note_on,,119,0,6,,,,,,,,,,,,,,,,5,,72,0
33119,note_on,,119,0,10,,,,,,,,,,,,,,,,12,,63,0
33120,note_on,,1,0,9,,,,,,,,,,,,,,,,11,,71,48
33120,note_on,,1,0,10,,,,,,,,,,,,,,,,12,,62,48
33120,note_on,,1,0,8,,,,,,,,,,,,,,,,10,,74,48
33120,note_on,,1,0,6,,,,,,,,,,,,,,,,5,,74,64
33179,note_on,,59,0,6,,,,,,,,,,,,,,,,5,,74,0
33179,note_on,,59,0,9,,,,,,,,,,,,,,,,11,,71,0
33179,note_on,,0,0,12,,,,,,,,,,,,,,,,15,,67,0
33179,note_on,,0,0,12,,,,,,,,,,,,,,,,15,,72,0
33179,note_on,,179,0,12,,,,,,,,,,,,,,,,15,,75,0
33179,note_on,,59,0,10,,,,,,,,,,,,,,,,12,,62,0
33179,note_on,,59,0,8,,,,,,,,,,,,,,,,10,,74,0
33180,note_on,,1,0,6,,,,,,,,,,,,,,,,5,,75,64
33180,note_on,,1,0,9,,,,,,,,,,,,,,,,11,,72,48
33180,note_on,,1,0,8,,,,,,,,,,,,,,,,10,,75,48
33180,note_on,,1,0,10,,,,,,,,,,,,,,,,12,,55,48
33180,note_on,,1,0,12,,,,,,,,,,,,,,,,15,,72,48
33180,note_on,,0,0,12,,,,,,,,,,,,,,,,15,,67,48
33180,note_on,,0,0,12,,,,,,,,,,,,,,,,15,,63,48
33359,note_on,,179,0,8,,,,,,,,,,,,,,,,10,,75,0
33359,note_on,,179,0,9,,,,,,,,,,,,,,,,11,,72,0
33359,note_on,,0,0,12,,,,,,,,,,,,,,,,15,,63,0
33359,note_on,,179,0,6,,,,,,,,,,,,,,,,5,,75,0
33359,note_on,,179,0,12,,,,,,,,,,,,,,,,15,,72,0
33359,note_on,,0,0,12,,,,,,,,,,,,,,,,15,,67,0
33359,note_on,,179,0,10,,,,,,,,,,,,,,,,12,,55,0
33360,note_on,,1,0,8,,,,,,,,,,,,,,,,10,,74,48
33360,note_on,,1,0,9,,,,,,,,,,,,,,,,11,,71,48
33360,note_on,,1,0,10,,,,,,,,,,,,,,,,12,,65,48
33360,note_on,,1,0,12,,,,,,,,,,,,,,,,15,,71,48
33360,note_on,,0,0,12,,,,,,,,,,,,,,,,15,,62,48
33360,note_on,,1,0,6,,,,,,,,,,,,,,,,5,,74,64
33360,note_on,,0,0,12,,,,,,,,,,,,,,,,15,,67,48
33374,note_on,,14,0,6,,,,,,,,,,,,,,,,5,,74,0
33374,note_on,,14,0,8,,,,,,,,,,,,,,,,10,,74,0
33375,note_on,,1,0,6,,,,,,,,,,,,,,,,5,,75,64
33375,note_on,,1,0,8,,,,,,,,,,,,,,,,10,,75,48
33389,note_on,,14,0,6,,,,,,,,,,,,,,,,5,,75,0
33389,note_on,,14,0,8,,,,,,,,,,,,,,,,10,,75,0
33390,note_on,,1,0,6,,,,,,,,,,,,,,,,5,,74,64
33390,note_on,,1,0,8,,,,,,,,,,,,,,,,10,,74,48
33404,note_on,,14,0,6,,,,,,,,,,,,,,,,5,,74,0
33404,note_on,,14,0,8,,,,,,,,,,,,,,,,10,,74,0
33405,note_on,,1,0,6,,,,,,,,,,,,,,,,5,,75,64
33405,note_on,,1,0,8,,,,,,,,,,,,,,,,10,,75,48
33419,note_on,,14,0,6,,,,,,,,,,,,,,,,5,,75,0
33419,note_on,,14,0,8,,,,,,,,,,,,,,,,10,,75,0
33420,note_on,,1,0,8,,,,,,,,,,,,,,,,10,,74,48
33420,note_on,,1,0,6,,,,,,,,,,,,,,,,5,,74,64
33434,note_on,,14,0,8,,,,,,,,,,,,,,,,10,,74,0
33434,note_on,,14,0,6,,,,,,,,,,,,,,,,5,,74,0
33435,note_on,,1,0,8,,,,,,,,,,,,,,,,10,,75,48
33435,note_on,,1,0,6,,,,,,,,,,,,,,,,5,,75,64
33449,note_on,,14,0,6,,,,,,,,,,,,,,,,5,,75,0
33449,note_on,,14,0,8,,,,,,,,,,,,,,,,10,,75,0
33450,note_on,,1,0,6,,,,,,,,,,,,,,,,5,,74,64
33450,note_on,,1,0,8,,,,,,,,,,,,,,,,10,,74,48
33464,note_on,,14,0,6,,,,,,,,,,,,,,,,5,,74,0
33464,note_on,,14,0,8,,,,,,,,,,,,,,,,10,,74,0
33465,note_on,,1,0,6,,,,,,,,,,,,,,,,5,,75,64
33465,note_on,,1,0,8,,,,,,,,,,,,,,,,10,,75,48
33479,note_on,,14,0,6,,,,,,,,,,,,,,,,5,,75,0
33479,note_on,,14,0,8,,,,,,,,,,,,,,,,10,,75,0
33480,note_on,,1,0,6,,,,,,,,,,,,,,,,5,,72,64
33480,note_on,,1,0,8,,,,,,,,,,,,,,,,10,,72,48
33539,note_on,,59,0,8,,,,,,,,,,,,,,,,10,,72,0
33539,note_on,,0,0,12,,,,,,,,,,,,,,,,15,,67,0
33539,note_on,,0,0,12,,,,,,,,,,,,,,,,15,,71,0
33539,note_on,,179,0,10,,,,,,,,,,,,,,,,12,,65,0
33539,note_on,,1439,0,11,,,,,,,,,,,,,,,,13,,43,0
33539,note_on,,179,0,12,,,,,,,,,,,,,,,,15,,43,0
33539,note_on,,59,0,6,,,,,,,,,,,,,,,,5,,72,0
33539,note_on,,0,0,12,,,,,,,,,,,,,,,,15,,62,0
33539,note_on,,179,0,9,,,,,,,,,,,,,,,,11,,71,0
33540,note_on,,1,0,11,,,,,,,,,,,,,,,,13,,48,48
33540,note_on,,1,0,8,,,,,,,,,,,,,,,,10,,72,48
33540,note_on,,1,0,6,,,,,,,,,,,,,,,,5,,72,64
33540,note_on,,0,0,12,,,,,,,,,,,,,,,,15,,63,48
33540,note_on,,0,0,12,,,,,,,,,,,,,,,,15,,67,48
33540,note_on,,1,0,10,,,,,,,,,,,,,,,,12,,63,48
33540,note_on,,0,0,12,,,,,,,,,,,,,,,,15,,72,48
33540,note_on,,1,0,9,,,,,,,,,,,,,,,,11,,67,48
33540,note_on,,1,0,12,,,,,,,,,,,,,,,,15,,48,48
33659,note_on,,119,0,10,,,,,,,,,,,,,,,,12,,63,0
33659,note_on,,119,0,9,,,,,,,,,,,,,,,,11,,67,0
33660,note_on,,1,0,9,,,,,,,,,,,,,,,,11,,65,48
33660,note_on,,1,0,10,,,,,,,,,,,,,,,,12,,68,48
33719,note_on,,0,0,12,,,,,,,,,,,,,,,,15,,67,0
33719,note_on,,0,0,12,,,,,,,,,,,,,,,,15,,63,0
33719,note_on,,59,0,9,,,,,,,,,,,,,,,,11,,65,0
33719,note_on,,179,0,6,,,,,,,,,,,,,,,,5,,72,0
33719,note_on,,59,0,10,,,,,,,,,,,,,,,,12,,68,0
33719,note_on,,179,0,8,,,,,,,,,,,,,,,,10,,72,0
33719,note_on,,179,0,12,,,,,,,,,,,,,,,,15,,72,0
33720,note_on,,0,0,12,,,,,,,,,,,,,,,,15,,60,48
33720,note_on,,0,0,12,,,,,,,,,,,,,,,,15,,55,48
33720,note_on,,1,0,12,,,,,,,,,,,,,,,,15,,63,48
33720,note_on,,1,0,9,,,,,,,,,,,,,,,,11,,63,48
33720,note_on,,1,0,10,,,,,,,,,,,,,,,,12,,67,48
33839,note_on,,119,0,9,,,,,,,,,,,,,,,,11,,63,0
33839,note_on,,119,0,10,,,,,,,,,,,,,,,,12,,67,0
33840,note_on,,1,0,9,,,,,,,,,,,,,,,,11,,62,48
33840,note_on,,1,0,10,,,,,,,,,,,,,,,,12,,65,48
33840,note_on,,121,0,6,,,,,,,,,,,,,,,,5,,72,64
33840,note_on,,121,0,8,,,,,,,,,,,,,,,,10,,72,48
33899,note_on,,179,0,12,,,,,,,,,,,,,,,,15,,63,0
33899,note_on,,59,0,10,,,,,,,,,,,,,,,,12,,65,0
33899,note_on,,59,0,6,,,,,,,,,,,,,,,,5,,72,0
33899,note_on,,0,0,12,,,,,,,,,,,,,,,,15,,55,0
33899,note_on,,0,0,12,,,,,,,,,,,,,,,,15,,60,0
33899,note_on,,59,0,9,,,,,,,,,,,,,,,,11,,62,0
33899,note_on,,59,0,8,,,,,,,,,,,,,,,,10,,72,0
33900,note_on,,1,0,10,,,,,,,,,,,,,,,,12,,63,48
33900,note_on,,1,0,9,,,,,,,,,,,,,,,,11,,63,48
33900,note_on,,0,0,12,,,,,,,,,,,,,,,,15,,63,48
33900,note_on,,0,0,12,,,,,,,,,,,,,,,,15,,67,48
33900,note_on,,1,0,12,,,,,,,,,,,,,,,,15,,60,48
33900,note_on,,1,0,8,,,,,,,,,,,,,,,,10,,67,48
33900,note_on,,1,0,6,,,,,,,,,,,,,,,,5,,67,64
34019,note_on,,119,0,9,,,,,,,,,,,,,,,,11,,63,0
34019,note_on,,119,0,8,,,,,,,,,,,,,,,,10,,67,0
34019,note_on,,119,0,6,,,,,,,,,,,,,,,,5,,67,0
34020,note_on,,1,0,6,,,,,,,,,,,,,,,,5,,66,64
34020,note_on,,1,0,8,,,,,,,,,,,,,,,,10,,66,48
34020,note_on,,1,0,9,,,,,,,,,,,,,,,,11,,62,48
34079,note_on,,59,0,6,,,,,,,,,,,,,,,,5,,66,0
34079,note_on,,59,0,8,,,,,,,,,,,,,,,,10,,66,0
34079,note_on,,59,0,9,,,,,,,,,,,,,,,,11,,62,0
34079,note_on,,179,0,12,,,,,,,,,,,,,,,,15,,60,0
34079,note_on,,0,0,12,,,,,,,,,,,,,,,,15,,67,0
34079,note_on,,0,0,12,,,,,,,,,,,,,,,,15,,63,0
34080,note_on,,1,0,8,,,,,,,,,,,,,,,,10,,67,48
34080,note_on,,1,0,9,,,,,,,,,,,,,,,,11,,63,48
34080,note_on,,0,0,12,,,,,,,,,,,,,,,,15,,72,48
34080,note_on,,0,0,12,,,,,,,,,,,,,,,,15,,67,48
34080,note_on,,1,0,12,,,,,,,,,,,,,,,,15,,75,48
34080,note_on,,1,0,6,,,,,,,,,,,,,,,,5,,67,64
34199,note_on,,659,0,11,,,,,,,,,,,,,,,,13,,48,0
34199,note_on,,119,0,6,,,,,,,,,,,,,,,,5,,67,0
34199,note_on,,299,0,10,,,,,,,,,,,,,,,,12,,63,0
34199,note_on,,119,0,8,,,,,,,,,,,,,,,,10,,67,0
34199,note_on,,119,0,9,,,,,,,,,,,,,,,,11,,63,0
34199,note_on,,119,0,12,,,,,,,,,,,,,,,,15,,48,0
34200,note_on,,1,0,8,,,,,,,,,,,,,,,,10,,69,48
34200,note_on,,1,0,6,,,,,,,,,,,,,,,,5,,69,64
34200,note_on,,1,0,11,,,,,,,,,,,,,,,,13,,48,48
34200,note_on,,1,0,12,,,,,,,,,,,,,,,,15,,48,48
34200,note_on,,1,0,9,,,,,,,,,,,,,,,,11,,63,48
34200,note_on,,1,0,10,,,,,,,,,,,,,,,,12,,60,48
34259,note_on,,59,0,9,,,,,,,,,,,,,,,,11,,63,0
34259,note_on,,59,0,8,,,,,,,,,,,,,,,,10,,69,0
34259,note_on,,0,0,12,,,,,,,,,,,,,,,,15,,48,0
34259,note_on,,0,0,12,,,,,,,,,,,,,,,,15,,67,0
34259,note_on,,0,0,12,,,,,,,,,,,,,,,,15,,72,0
34259,note_on,,59,0,12,,,,,,,,,,,,,,,,15,,75,0
34259,note_on,,59,0,10,,,,,,,,,,,,,,,,12,,60,0
34259,note_on,,59,0,6,,,,,,,,,,,,,,,,5,,69,0
34259,note_on,,59,0,11,,,,,,,,,,,,,,,,13,,48,0
34260,note_on,,1,0,8,,,,,,,,,,,,,,,,10,,70,48
34260,note_on,,1,0,10,,,,,,,,,,,,,,,,12,,58,48
34260,note_on,,1,0,9,,,,,,,,,,,,,,,,11,,62,48
34260,note_on,,0,0,12,,,,,,,,,,,,,,,,15,,67,48
34260,note_on,,0,0,12,,,,,,,,,,,,,,,,15,,70,48
34260,note_on,,1,0,11,,,,,,,,,,,,,,,,13,,55,48
34260,note_on,,0,0,12,,,,,,,,,,,,,,,,15,,74,48
34260,note_on,,1,0,12,,,,,,,,,,,,,,,,15,,55,48
34260,note_on,,1,0,6,,,,,,,,,,,,,,,,5,,70,64
34379,note_on,,119,0,11,,,,,,,,,,,,,,,,13,,55,0
34379,note_on,,119,0,8,,,,,,,,,,,,,,,,10,,70,0
34379,note_on,,119,0,12,,,,,,,,,,,,,,,,15,,55,0
34379,note_on,,119,0,6,,,,,,,,,,,,,,,,5,,70,0
34379,note_on,,119,0,10,,,,,,,,,,,,,,,,12,,58,0
34380,note_on,,1,0,10,,,,,,,,,,,,,,,,12,,54,48
34380,note_on,,1,0,6,,,,,,,,,,,,,,,,5,,69,64
34380,note_on,,1,0,12,,,,,,,,,,,,,,,,15,,54,48
34380,note_on,,1,0,8,,,,,,,,,,,,,,,,10,,69,48
34380,note_on,,1,0,11,,,,,,,,,,,,,,,,13,,54,48
34439,note_on,,59,0,10,,,,,,,,,,,,,,,,12,,54,0
34439,note_on,,59,0,6,,,,,,,,,,,,,,,,5,,69,0
34439,note_on,,179,0,9,,,,,,,,,,,,,,,,11,,62,0
34439,note_on,,59,0,8,,,,,,,,,,,,,,,,10,,69,0
34439,note_on,,59,0,11,,,,,,,,,,,,,,,,13,,54,0
34439,note_on,,0,0,12,,,,,,,,,,,,,,,,15,,54,0
34439,note_on,,0,0,12,,,,,,,,,,,,,,,,15,,67,0
34439,note_on,,0,0,12,,,,,,,,,,,,,,,,15,,70,0
34439,note_on,,59,0,12,,,,,,,,,,,,,,,,15,,74,0
34440,note_on,,0,0,12,,,,,,,,,,,,,,,,15,,70,48
34440,note_on,,1,0,8,,,,,,,,,,,,,,,,10,,70,48
34440,note_on,,0,0,12,,,,,,,,,,,,,,,,15,,74,48
34440,note_on,,0,0,12,,,,,,,,,,,,,,,,15,,79,48
34440,note_on,,1,0,6,,,,,,,,,,,,,,,,5,,70,64
34440,note_on,,1,0,11,,,,,,,,,,,,,,,,13,,55,48
34440,note_on,,1,0,12,,,,,,,,,,,,,,,,15,,55,48
34440,note_on,,1,0,9,,,,,,,,,,,,,,,,11,,67,48
34440,note_on,,1,0,10,,,,,,,,,,,,,,,,12,,55,48
34559,note_on,,119,0,10,,,,,,,,,,,,,,,,12,,55,0
34559,note_on,,119,0,6,,,,,,,,,,,,,,,,5,,70,0
34559,note_on,,119,0,12,,,,,,,,,,,,,,,,15,,55,0
34559,note_on,,119,0,9,,,,,,,,,,,,,,,,11,,67,0
34559,note_on,,119,0,8,,,,,,,,,,,,,,,,10,,70,0
34559,note_on,,119,0,11,,,,,,,,,,,,,,,,13,,55,0
34560,note_on,,1,0,10,,,,,,,,,,,,,,,,12,,57,48
34560,note_on,,1,0,9,,,,,,,,,,,,,,,,11,,65,48
34560,note_on,,1,0,8,,,,,,,,,,,,,,,,10,,72,48
34560,note_on,,1,0,11,,,,,,,,,,,,,,,,13,,57,48
34560,note_on,,1,0,6,,,,,,,,,,,,,,,,5,,72,64
34560,note_on,,1,0,12,,,,,,,,,,,,,,,,15,,57,48
34619,note_on,,59,0,10,,,,,,,,,,,,,,,,12,,57,0
34619,note_on,,59,0,11,,,,,,,,,,,,,,,,13,,57,0
34619,note_on,,59,0,6,,,,,,,,,,,,,,,,5,,72,0
34619,note_on,,0,0,12,,,,,,,,,,,,,,,,15,,74,0
34619,note_on,,0,0,12,,,,,,,,,,,,,,,,15,,70,0
34619,note_on,,0,0,12,,,,,,,,,,,,,,,,15,,57,0
34619,note_on,,59,0,8,,,,,,,,,,,,,,,,10,,72,0
34619,note_on,,59,0,9,,,,,,,,,,,,,,,,11,,65,0
34619,note_on,,59,0,12,,,,,,,,,,,,,,,,15,,79,0
34620,note_on,,1,0,9,,,,,,,,,,,,,,,,11,,65,48
34620,note_on,,0,0,12,,,,,,,,,,,,,,,,15,,74,48
34620,note_on,,1,0,11,,,,,,,,,,,,,,,,13,,58,48
34620,note_on,,0,0,12,,,,,,,,,,,,,,,,15,,77,48
34620,note_on,,1,0,12,,,,,,,,,,,,,,,,15,,58,48
34620,note_on,,1,0,8,,,,,,,,,,,,,,,,10,,74,48
34620,note_on,,1,0,6,,,,,,,,,,,,,,,,5,,74,64
34620,note_on,,1,0,10,,,,,,,,,,,,,,,,12,,58,48
34620,note_on,,0,0,12,,,,,,,,,,,,,,,,15,,70,48
34739,note_on,,119,0,12,,,,,,,,,,,,,,,,15,,58,0
34739,note_on,,119,0,10,,,,,,,,,,,,,,,,12,,58,0
34739,note_on,,119,0,6,,,,,,,,,,,,,,,,5,,74,0
34739,note_on,,119,0,8,,,,,,,,,,,,,,,,10,,74,0
34739,note_on,,119,0,11,,,,,,,,,,,,,,,,13,,58,0
34740,note_on,,1,0,11,,,,,,,,,,,,,,,,13,,57,48
34740,note_on,,1,0,6,,,,,,,,,,,,,,,,5,,72,64
34740,note_on,,1,0,10,,,,,,,,,,,,,,,,12,,57,48
34740,note_on,,1,0,8,,,,,,,,,,,,,,,,10,,72,48
34740,note_on,,1,0,12,,,,,,,,,,,,,,,,15,,57,48
34799,note_on,,59,0,12,,,,,,,,,,,,,,,,15,,77,0
34799,note_on,,59,0,10,,,,,,,,,,,,,,,,12,,57,0
34799,note_on,,0,0,12,,,,,,,,,,,,,,,,15,,70,0
34799,note_on,,0,0,12,,,,,,,,,,,,,,,,15,,57,0
34799,note_on,,59,0,11,,,,,,,,,,,,,,,,13,,57,0
34799,note_on,,59,0,6,,,,,,,,,,,,,,,,5,,72,0
34799,note_on,,59,0,8,,,,,,,,,,,,,,,,10,,72,0
34799,note_on,,0,0,12,,,,,,,,,,,,,,,,15,,74,0
34800,note_on,,1,0,8,,,,,,,,,,,,,,,,10,,74,48
34800,note_on,,1,0,10,,,,,,,,,,,,,,,,12,,58,48
34800,note_on,,1,0,11,,,,,,,,,,,,,,,,13,,58,48
34800,note_on,,1,0,6,,,,,,,,,,,,,,,,5,,74,64
34800,note_on,,1,0,12,,,,,,,,,,,,,,,,15,,58,48
34800,note_on,,0,0,12,,,,,,,,,,,,,,,,15,,65,48
34800,note_on,,0,0,12,,,,,,,,,,,,,,,,15,,62,48
34919,note_on,,119,0,12,,,,,,,,,,,,,,,,15,,58,0
34919,note_on,,299,0,9,,,,,,,,,,,,,,,,11,,65,0
34919,note_on,,119,0,11,,,,,,,,,,,,,,,,13,,58,0
34919,note_on,,119,0,8,,,,,,,,,,,,,,,,10,,74,0
34919,note_on,,119,0,10,,,,,,,,,,,,,,,,12,,58,0
34919,note_on,,119,0,6,,,,,,,,,,,,,,,,5,,74,0
34920,note_on,,1,0,9,,,,,,,,,,,,,,,,11,,69,48
34920,note_on,,1,0,12,,,,,,,,,,,,,,,,15,,60,48
34920,note_on,,1,0,11,,,,,,,,,,,,,,,,13,,60,48
34920,note_on,,1,0,6,,,,,,,,,,,,,,,,5,,75,64
34920,note_on,,1,0,10,,,,,,,,,,,,,,,,12,,60,48
34920,note_on,,1,0,8,,,,,,,,,,,,,,,,10,,75,48
34979,note_on,,59,0,8,,,,,,,,,,,,,,,,10,,75,0
34979,note_on,,0,0,12,,,,,,,,,,,,,,,,15,,60,0
34979,note_on,,0,0,12,,,,,,,,,,,,,,,,15,,62,0
34979,note_on,,59,0,12,,,,,,,,,,,,,,,,15,,65,0
34979,note_on,,59,0,10,,,,,,,,,,,,,,,,12,,60,0
34979,note_on,,59,0,9,,,,,,,,,,,,,,,,11,,69,0
34979,note_on,,59,0,6,,,,,,,,,,,,,,,,5,,75,0
34979,note_on,,59,0,11,,,,,,,,,,,,,,,,13,,60,0
34980,note_on,,1,0,8,,,,,,,,,,,,,,,,10,,77,48
34980,note_on,,1,0,11,,,,,,,,,,,,,,,,13,,62,48
34980,note_on,,1,0,9,,,,,,,,,,,,,,,,11,,70,48
34980,note_on,,0,0,12,,,,,,,,,,,,,,,,15,,65,48
34980,note_on,,0,0,12,,,,,,,,,,,,,,,,15,,70,48
34980,note_on,,1,0,6,,,,,,,,,,,,,,,,5,,77,64
34980,note_on,,1,0,10,,,,,,,,,,,,,,,,12,,62,48
34980,note_on,,1,0,12,,,,,,,,,,,,,,,,15,,62,48
35099,note_on,,119,0,10,,,,,,,,,,,,,,,,12,,62,0
35099,note_on,,119,0,9,,,,,,,,,,,,,,,,11,,70,0
35099,note_on,,119,0,12,,,,,,,,,,,,,,,,15,,62,0
35099,note_on,,119,0,11,,,,,,,,,,,,,,,,13,,62,0
35100,note_on,,1,0,10,,,,,,,,,,,,,,,,12,,60,48
35100,note_on,,1,0,11,,,,,,,,,,,,,,,,13,,60,48
35100,note_on,,1,0,12,,,,,,,,,,,,,,,,15,,60,48
35100,note_on,,1,0,9,,,,,,,,,,,,,,,,11,,69,48
35159,note_on,,59,0,11,,,,,,,,,,,,,,,,13,,60,0
35159,note_on,,59,0,10,,,,,,,,,,,,,,,,12,,60,0
35159,note_on,,59,0,12,,,,,,,,,,,,,,,,15,,70,0
35159,note_on,,0,0,12,,,,,,,,,,,,,,,,15,,65,0
35159,note_on,,0,0,12,,,,,,,,,,,,,,,,15,,60,0
35159,note_on,,59,0,9,,,,,,,,,,,,,,,,11,,69,0
35160,note_on,,1,0,10,,,,,,,,,,,,,,,,12,,62,48
35160,note_on,,1,0,12,,,,,,,,,,,,,,,,15,,62,48
35160,note_on,,0,0,12,,,,,,,,,,,,,,,,15,,77,48
35160,note_on,,0,0,12,,,,,,,,,,,,,,,,15,,74,48
35160,note_on,,1,0,11,,,,,,,,,,,,,,,,13,,62,48
35160,note_on,,0,0,12,,,,,,,,,,,,,,,,15,,70,48
35160,note_on,,1,0,9,,,,,,,,,,,,,,,,11,,70,48
35249,note_on,,89,0,9,,,,,,,,,,,,,,,,11,,70,0
35250,note_on,,1,0,9,,,,,,,,,,,,,,,,11,,72,48
35279,note_on,,299,0,6,,,,,,,,,,,,,,,,5,,77,0
35279,note_on,,119,0,12,,,,,,,,,,,,,,,,15,,62,0
35279,note_on,,29,0,9,,,,,,,,,,,,,,,,11,,72,0
35279,note_on,,119,0,10,,,,,,,,,,,,,,,,12,,62,0
35279,note_on,,299,0,8,,,,,,,,,,,,,,,,10,,77,0
35279,note_on,,119,0,11,,,,,,,,,,,,,,,,13,,62,0
35280,note_on,,1,0,6,,,,,,,,,,,,,,,,5,,77,64
35280,note_on,,1,0,12,,,,,,,,,,,,,,,,15,,63,48
35280,note_on,,1,0,11,,,,,,,,,,,,,,,,13,,63,48
35280,note_on,,1,0,8,,,,,,,,,,,,,,,,10,,77,48
35280,note_on,,1,0,10,,,,,,,,,,,,,,,,12,,63,48
35280,note_on,,1,0,9,,,,,,,,,,,,,,,,11,,70,48
35339,note_on,,59,0,9,,,,,,,,,,,,,,,,11,,70,0
35339,note_on,,59,0,8,,,,,,,,,,,,,,,,10,,77,0
35339,note_on,,59,0,10,,,,,,,,,,,,,,,,12,,63,0
35339,note_on,,59,0,12,,,,,,,,,,,,,,,,15,,77,0
35339,note_on,,0,0,12,,,,,,,,,,,,,,,,15,,63,0
35339,note_on,,0,0,12,,,,,,,,,,,,,,,,15,,70,0
35339,note_on,,0,0,12,,,,,,,,,,,,,,,,15,,74,0
35339,note_on,,59,0,11,,,,,,,,,,,,,,,,13,,63,0
35339,note_on,,59,0,6,,,,,,,,,,,,,,,,5,,77,0
35340,note_on,,1,0,12,,,,,,,,,,,,,,,,15,,65,48
35340,note_on,,1,0,8,,,,,,,,,,,,,,,,10,,72,48
35340,note_on,,1,0,11,,,,,,,,,,,,,,,,13,,65,48
35340,note_on,,0,0,12,,,,,,,,,,,,,,,,15,,65,48
35340,note_on,,0,0,12,,,,,,,,,,,,,,,,15,,69,48
35340,note_on,,1,0,10,,,,,,,,,,,,,,,,12,,65,48
35340,note_on,,1,0,9,,,,,,,,,,,,,,,,11,,69,48
35340,note_on,,1,0,6,,,,,,,,,,,,,,,,5,,72,64
35340,note_on,,0,0,12,,,,,,,,,,,,,,,,15,,72,48
35459,note_on,,119,0,6,,,,,,,,,,,,,,,,5,,72,0
35459,note_on,,119,0,8,,,,,,,,,,,,,,,,10,,72,0
35459,note_on,,119,0,9,,,,,,,,,,,,,,,,11,,69,0
35460,note_on,,1,0,6,,,,,,,,,,,,,,,,5,,70,64
35460,note_on,,1,0,8,,,,,,,,,,,,,,,,10,,70,48
35460,note_on,,1,0,9,,,,,,,,,,,,,,,,11,,67,48
35519,note_on,,0,0,12,,,,,,,,,,,,,,,,15,,65,0
35519,note_on,,59,0,6,,,,,,,,,,,,,,,,5,,70,0
35519,note_on,,59,0,9,,,,,,,,,,,,,,,,11,,67,0
35519,note_on,,59,0,8,,,,,,,,,,,,,,,,10,,70,0
35519,note_on,,179,0,12,,,,,,,,,,,,,,,,15,,72,0
35519,note_on,,0,0,12,,,,,,,,,,,,,,,,15,,69,0
35520,note_on,,1,0,12,,,,,,,,,,,,,,,,15,,69,48
35520,note_on,,0,0,12,,,,,,,,,,,,,,,,15,,65,48
35520,note_on,,1,0,6,,,,,,,,,,,,,,,,5,,72,64
35520,note_on,,1,0,8,,,,,,,,,,,,,,,,10,,72,48
35520,note_on,,1,0,9,,,,,,,,,,,,,,,,11,,69,48
35639,note_on,,119,0,8,,,,,,,,,,,,,,,,10,,72,0
35639,note_on,,119,0,6,,,,,,,,,,,,,,,,5,,72,0
35639,note_on,,119,0,9,,,,,,,,,,,,,,,,11,,69,0
35640,note_on,,1,0,6,,,,,,,,,,,,,,,,5,,74,64
35640,note_on,,1,0,8,,,,,,,,,,,,,,,,10,,74,48
35640,note_on,,1,0,9,,,,,,,,,,,,,,,,11,,70,48
35699,note_on,,59,0,8,,,,,,,,,,,,,,,,10,,74,0
35699,note_on,,0,0,12,,,,,,,,,,,,,,,,15,,65,0
35699,note_on,,179,0,12,,,,,,,,,,,,,,,,15,,69,0
35699,note_on,,59,0,9,,,,,,,,,,,,,,,,11,,70,0
35699,note_on,,59,0,6,,,,,,,,,,,,,,,,5,,74,0
35700,note_on,,1,0,6,,,,,,,,,,,,,,,,5,,75,64
35700,note_on,,0,0,12,,,,,,,,,,,,,,,,15,,72,48
35700,note_on,,0,0,12,,,,,,,,,,,,,,,,15,,75,48
35700,note_on,,1,0,12,,,,,,,,,,,,,,,,15,,81,48
35700,note_on,,1,0,8,,,,,,,,,,,,,,,,10,,75,48
35700,note_on,,1,0,9,,,,,,,,,,,,,,,,11,,72,48
35819,note_on,,119,0,9,,,,,,,,,,,,,,,,11,,72,0
35820,note_on,,1,0,9,,,,,,,,,,,,,,,,11,,69,48
35879,note_on,,59,0,9,,,,,,,,,,,,,,,,11,,69,0
35880,note_on,,1,0,9,,,,,,,,,,,,,,,,11,,72,48
35969,note_on,,89,0,9,,,,,,,,,,,,,,,,11,,72,0
35970,note_on,,1,0,9,,,,,,,,,,,,,,,,11,,70,48
35999,note_on,,299,0,8,,,,,,,,,,,,,,,,10,,75,0
35999,note_on,,29,0,9,,,,,,,,,,,,,,,,11,,70,0
35999,note_on,,299,0,6,,,,,,,,,,,,,,,,5,,75,0
36000,note_on,,1,0,8,,,,,,,,,,,,,,,,10,,75,48
36000,note_on,,1,0,9,,,,,,,,,,,,,,,,11,,69,48
36000,note_on,,1,0,6,,,,,,,,,,,,,,,,5,,75,64
36059,note_on,,59,0,8,,,,,,,,,,,,,,,,10,,75,0
36059,note_on,,59,0,6,,,,,,,,,,,,,,,,5,,75,0
36059,note_on,,59,0,9,,,,,,,,,,,,,,,,11,,69,0
36059,note_on,,719,0,11,,,,,,,,,,,,,,,,13,,65,0
36059,note_on,,0,0,12,,,,,,,,,,,,,,,,15,,72,0
36059,note_on,,0,0,12,,,,,,,,,,,,,,,,15,,75,0
36059,note_on,,0,0,12,,,,,,,,,,,,,,,,15,,81,0
36059,note_on,,359,0,12,,,,,,,,,,,,,,,,15,,65,0
36059,note_on,,719,0,10,,,,,,,,,,,,,,,,12,,65,0
36060,note_on,,0,0,12,,,,,,,,,,,,,,,,15,,77,48
36060,note_on,,1,0,9,,,,,,,,,,,,,,,,11,,70,48
36060,note_on,,1,0,6,,,,,,,,,,,,,,,,5,,74,64
36060,note_on,,1,0,11,,,,,,,,,,,,,,,,13,,58,48
36060,note_on,,1,0,12,,,,,,,,,,,,,,,,15,,58,48
36060,note_on,,1,0,8,,,,,,,,,,,,,,,,10,,74,48
36060,note_on,,1,0,10,,,,,,,,,,,,,,,,12,,65,48
36060,note_on,,0,0,12,,,,,,,,,,,,,,,,15,,82,48
36060,note_on,,0,0,12,,,,,,,,,,,,,,,,15,,74,48
36179,note_on,,119,0,9,,,,,,,,,,,,,,,,11,,70,0
36180,note_on,,1,0,9,,,,,,,,,,,,,,,,11,,65,48
36239,note_on,,179,0,10,,,,,,,,,,,,,,,,12,,65,0
36239,note_on,,59,0,9,,,,,,,,,,,,,,,,11,,65,0
36239,note_on,,179,0,12,,,,,,,,,,,,,,,,15,,58,0
36239,note_on,,179,0,6,,,,,,,,,,,,,,,,5,,74,0
36239,note_on,,179,0,8,,,,,,,,,,,,,,,,10,,74,0
36239,note_on,,0,0,12,,,,,,,,,,,,,,,,15,,82,0
36239,note_on,,0,0,12,,,,,,,,,,,,,,,,15,,77,0
36239,note_on,,0,0,12,,,,,,,,,,,,,,,,15,,74,0
36239,note_on,,179,0,11,,,,,,,,,,,,,,,,13,,58,0
36240,note_on,,1,0,11,,,,,,,,,,,,,,,,13,,51,48
36240,note_on,,0,0,12,,,,,,,,,,,,,,,,15,,67,48
36240,note_on,,0,0,12,,,,,,,,,,,,,,,,15,,79,48
36240,note_on,,1,0,6,,,,,,,,,,,,,,,,5,,72,64
36240,note_on,,1,0,9,,,,,,,,,,,,,,,,11,,67,48
36240,note_on,,1,0,8,,,,,,,,,,,,,,,,10,,72,48
36240,note_on,,1,0,12,,,,,,,,,,,,,,,,15,,51,48
36240,note_on,,1,0,10,,,,,,,,,,,,,,,,12,,63,48
36240,note_on,,0,0,12,,,,,,,,,,,,,,,,15,,75,48
36359,note_on,,119,0,8,,,,,,,,,,,,,,,,10,,72,0
36359,note_on,,119,0,10,,,,,,,,,,,,,,,,12,,63,0
36359,note_on,,119,0,6,,,,,,,,,,,,,,,,5,,72,0
36359,note_on,,119,0,9,,,,,,,,,,,,,,,,11,,67,0
36360,note_on,,1,0,6,,,,,,,,,,,,,,,,5,,70,64
36360,note_on,,1,0,10,,,,,,,,,,,,,,,,12,,67,48
36360,note_on,,1,0,9,,,,,,,,,,,,,,,,11,,60,48
36360,note_on,,1,0,8,,,,,,,,,,,,,,,,10,,70,48
36419,note_on,,179,0,12,,,,,,,,,,,,,,,,15,,79,0
36419,note_on,,0,0,12,,,,,,,,,,,,,,,,15,,75,0
36419,note_on,,0,0,12,,,,,,,,,,,,,,,,15,,67,0
36419,note_on,,59,0,10,,,,,,,,,,,,,,,,12,,67,0
36419,note_on,,59,0,6,,,,,,,,,,,,,,,,5,,70,0
36419,note_on,,59,0,9,,,,,,,,,,,,,,,,11,,60,0
36419,note_on,,59,0,8,,,,,,,,,,,,,,,,10,,70,0
36420,note_on,,1,0,6,,,,,,,,,,,,,,,,5,,77,64
36420,note_on,,1,0,10,,,,,,,,,,,,,,,,12,,60,48
36420,note_on,,1,0,9,,,,,,,,,,,,,,,,11,,69,48
36420,note_on,,0,0,12,,,,,,,,,,,,,,,,15,,65,48
36420,note_on,,0,0,12,,,,,,,,,,,,,,,,15,,69,48
36420,note_on,,1,0,12,,,,,,,,,,,,,,,,15,,72,48
36420,note_on,,1,0,8,,,,,,,,,,,,,,,,10,,77,48
36599,note_on,,179,0,10,,,,,,,,,,,,,,,,12,,60,0
36599,note_on,,0,0,12,,,,,,,,,,,,,,,,15,,65,0
36599,note_on,,0,0,12,,,,,,,,,,,,,,,,15,,69,0
36599,note_on,,359,0,11,,,,,,,,,,,,,,,,13,,51,0
36599,note_on,,0,0,12,,,,,,,,,,,,,,,,15,,72,0
36599,note_on,,179,0,12,,,,,,,,,,,,,,,,15,,51,0
36599,note_on,,179,0,9,,,,,,,,,,,,,,,,11,,69,0
36600,note_on,,1,0,9,,,,,,,,,,,,,,,,11,,70,48
36600,note_on,,1,0,11,,,,,,,,,,,,,,,,13,,50,48
36600,note_on,,1,0,10,,,,,,,,,,,,,,,,12,,62,48
36600,note_on,,0,0,12,,,,,,,,,,,,,,,,15,,65,48
36600,note_on,,0,0,12,,,,,,,,,,,,,,,,15,,70,48
36600,note_on,,0,0,12,,,,,,,,,,,,,,,,15,,74,48
36600,note_on,,1,0,12,,,,,,,,,,,,,,,,15,,50,48
36719,note_on,,299,0,6,,,,,,,,,,,,,,,,5,,77,0
36719,note_on,,119,0,10,,,,,,,,,,,,,,,,12,,62,0
36719,note_on,,0,0,12,,,,,,,,,,,,,,,,15,,65,0
36719,note_on,,119,0,11,,,,,,,,,,,,,,,,13,,50,0
36719,note_on,,0,0,12,,,,,,,,,,,,,,,,15,,70,0
36719,note_on,,299,0,8,,,,,,,,,,,,,,,,10,,77,0
36719,note_on,,119,0,12,,,,,,,,,,,,,,,,15,,50,0
36719,note_on,,0,0,12,,,,,,,,,,,,,,,,15,,74,0
36720,note_on,,1,0,12,,,,,,,,,,,,,,,,15,,51,48
36720,note_on,,0,0,12,,,,,,,,,,,,,,,,15,,67,48
36720,note_on,,0,0,12,,,,,,,,,,,,,,,,15,,63,48
36720,note_on,,1,0,6,,,,,,,,,,,,,,,,5,,79,64
36720,note_on,,1,0,11,,,,,,,,,,,,,,,,13,,51,48
36720,note_on,,1,0,8,,,,,,,,,,,,,,,,10,,79,48
36720,note_on,,1,0,10,,,,,,,,,,,,,,,,12,,58,48
36779,note_on,,0,0,12,,,,,,,,,,,,,,,,15,,63,0
36779,note_on,,59,0,11,,,,,,,,,,,,,,,,13,,51,0
36779,note_on,,59,0,12,,,,,,,,,,,,,,,,15,,51,0
36779,note_on,,59,0,10,,,,,,,,,,,,,,,,12,,58,0
36779,note_on,,59,0,8,,,,,,,,,,,,,,,,10,,79,0
36779,note_on,,59,0,6,,,,,,,,,,,,,,,,5,,79,0
36779,note_on,,0,0,12,,,,,,,,,,,,,,,,15,,67,0
36780,note_on,,1,0,11,,,,,,,,,,,,,,,,13,,53,48
36780,note_on,,1,0,10,,,,,,,,,,,,,,,,12,,65,48
36780,note_on,,0,0,12,,,,,,,,,,,,,,,,15,,62,48
36780,note_on,,0,0,12,,,,,,,,,,,,,,,,15,,65,48
36780,note_on,,0,0,12,,,,,,,,,,,,,,,,15,,70,48
36780,note_on,,1,0,12,,,,,,,,,,,,,,,,15,,53,48
36780,note_on,,1,0,6,,,,,,,,,,,,,,,,5,,74,64
36780,note_on,,1,0,8,,,,,,,,,,,,,,,,10,,74,48
36959,note_on,,0,0,12,,,,,,,,,,,,,,,,15,,62,0
36959,note_on,,359,0,9,,,,,,,,,,,,,,,,11,,70,0
36959,note_on,,179,0,10,,,,,,,,,,,,,,,,12,,65,0
36959,note_on,,179,0,11,,,,,,,,,,,,,,,,13,,53,0
36959,note_on,,179,0,6,,,,,,,,,,,,,,,,5,,74,0
36959,note_on,,179,0,8,,,,,,,,,,,,,,,,10,,74,0
36959,note_on,,179,0,12,,,,,,,,,,,,,,,,15,,53,0
36959,note_on,,0,0,12,,,,,,,,,,,,,,,,15,,70,0
36959,note_on,,0,0,12,,,,,,,,,,,,,,,,15,,65,0
36960,note_on,,1,0,9,,,,,,,,,,,,,,,,11,,69,48
36960,note_on,,1,0,8,,,,,,,,,,,,,,,,10,,72,48
36960,note_on,,0,0,12,,,,,,,,,,,,,,,,15,,60,48
36960,note_on,,0,0,12,,,,,,,,,,,,,,,,15,,65,48
36960,note_on,,1,0,11,,,,,,,,,,,,,,,,13,,41,48
36960,note_on,,1,0,12,,,,,,,,,,,,,,,,15,,41,48
36960,note_on,,0,0,12,,,,,,,,,,,,,,,,15,,69,48
36960,note_on,,1,0,10,,,,,,,,,,,,,,,,12,,63,48
36960,note_on,,1,0,6,,,,,,,,,,,,,,,,5,,72,64
36974,note_on,,14,0,6,,,,,,,,,,,,,,,,5,,72,0
36974,note_on,,14,0,8,,,,,,,,,,,,,,,,10,,72,0
36975,note_on,,1,0,6,,,,,,,,,,,,,,,,5,,74,64
36975,note_on,,1,0,8,,,,,,,,,,,,,,,,10,,74,48
36989,note_on,,14,0,6,,,,,,,,,,,,,,,,5,,74,0
36989,note_on,,14,0,8,,,,,,,,,,,,,,,,10,,74,0
36990,note_on,,1,0,8,,,,,,,,,,,,,,,,10,,72,48
36990,note_on,,1,0,6,,,,,,,,,,,,,,,,5,,72,64
37004,note_on,,14,0,6,,,,,,,,,,,,,,,,5,,72,0
37004,note_on,,14,0,8,,,,,,,,,,,,,,,,10,,72,0
37005,note_on,,1,0,6,,,,,,,,,,,,,,,,5,,74,64
37005,note_on,,1,0,8,,,,,,,,,,,,,,,,10,,74,48
37019,note_on,,14,0,8,,,,,,,,,,,,,,,,10,,74,0
37019,note_on,,14,0,6,,,,,,,,,,,,,,,,5,,74,0
37020,note_on,,1,0,8,,,,,,,,,,,,,,,,10,,72,48
37020,note_on,,1,0,6,,,,,,,,,,,,,,,,5,,72,64
37034,note_on,,14,0,6,,,,,,,,,,,,,,,,5,,72,0
37034,note_on,,14,0,8,,,,,,,,,,,,,,,,10,,72,0
37035,note_on,,1,0,6,,,,,,,,,,,,,,,,5,,74,64
37035,note_on,,1,0,8,,,,,,,,,,,,,,,,10,,74,48
37049,note_on,,14,0,6,,,,,,,,,,,,,,,,5,,74,0
37049,note_on,,14,0,8,,,,,,,,,,,,,,,,10,,74,0
37050,note_on,,1,0,8,,,,,,,,,,,,,,,,10,,72,48
37050,note_on,,1,0,6,,,,,,,,,,,,,,,,5,,72,64
37064,note_on,,14,0,6,,,,,,,,,,,,,,,,5,,72,0
37064,note_on,,14,0,8,,,,,,,,,,,,,,,,10,,72,0
37065,note_on,,1,0,8,,,,,,,,,,,,,,,,10,,74,48
37065,note_on,,1,0,6,,,,,,,,,,,,,,,,5,,74,64
37079,note_on,,14,0,6,,,,,,,,,,,,,,,,5,,74,0
37079,note_on,,14,0,8,,,,,,,,,,,,,,,,10,,74,0
37080,note_on,,1,0,6,,,,,,,,,,,,,,,,5,,70,64
37080,note_on,,1,0,8,,,,,,,,,,,,,,,,10,,70,48
37139,note_on,,179,0,9,,,,,,,,,,,,,,,,11,,69,0
37139,note_on,,179,0,10,,,,,,,,,,,,,,,,12,,63,0
37139,note_on,,59,0,6,,,,,,,,,,,,,,,,5,,70,0
37139,note_on,,179,0,11,,,,,,,,,,,,,,,,13,,41,0
37139,note_on,,179,0,12,,,,,,,,,,,,,,,,15,,41,0
37139,note_on,,0,0,12,,,,,,,,,,,,,,,,15,,69,0
37139,note_on,,59,0,8,,,,,,,,,,,,,,,,10,,70,0
37139,note_on,,0,0,12,,,,,,,,,,,,,,,,15,,65,0
37139,note_on,,0,0,12,,,,,,,,,,,,,,,,15,,60,0
37140,note_on,,1,0,6,,,,,,,,,,,,,,,,5,,70,64
37140,note_on,,1,0,8,,,,,,,,,,,,,,,,10,,70,48
37140,note_on,,1,0,12,,,,,,,,,,,,,,,,15,,46,48
37140,note_on,,0,0,12,,,,,,,,,,,,,,,,15,,70,48
37140,note_on,,0,0,12,,,,,,,,,,,,,,,,15,,65,48
37140,note_on,,0,0,12,,,,,,,,,,,,,,,,15,,62,48
37140,note_on,,1,0,11,,,,,,,,,,,,,,,,13,,46,48
37140,note_on,,1,0,10,,,,,,,,,,,,,,,,12,,62,48
37140,note_on,,19081,0,5,,,,,,,,,,,,,,,,2,,46,48
37140,note_on,,1,0,9,,,,,,,,,,,,,,,,11,,70,48
37259,note_on,,119,0,10,,,,,,,,,,,,,,,,12,,62,0
37259,note_on,,119,0,9,,,,,,,,,,,,,,,,11,,70,0
37260,note_on,,1,0,9,,,,,,,,,,,,,,,,11,,67,48
37260,note_on,,1,0,10,,,,,,,,,,,,,,,,12,,63,48
37319,note_on,,59,0,9,,,,,,,,,,,,,,,,11,,67,0
37319,note_on,,59,0,10,,,,,,,,,,,,,,,,12,,63,0
37320,note_on,,1,0,9,,,,,,,,,,,,,,,,11,,65,48
37320,note_on,,1,0,10,,,,,,,,,,,,,,,,12,,62,48
37439,note_on,,119,0,10,,,,,,,,,,,,,,,,12,,62,0
37439,note_on,,299,0,8,,,,,,,,,,,,,,,,10,,70,0
37439,note_on,,119,0,9,,,,,,,,,,,,,,,,11,,65,0
37439,note_on,,0,0,12,,,,,,,,,,,,,,,,15,,65,0
37439,note_on,,299,0,12,,,,,,,,,,,,,,,,15,,70,0
37439,note_on,,0,0,12,,,,,,,,,,,,,,,,15,,62,0
37440,note_on,,1,0,10,,,,,,,,,,,,,,,,12,,57,72
37440,note_on,,1,0,8,,,,,,,,,,,,,,,,10,,77,72
37440,note_on,,1,0,9,,,,,,,,,,,,,,,,11,,63,72
37499,note_on,,59,0,8,,,,,,,,,,,,,,,,10,,77,0
37499,note_on,,59,0,9,,,,,,,,,,,,,,,,11,,63,0
37499,note_on,,359,0,6,,,,,,,,,,,,,,,,5,,70,0
37499,end_of_track,,0,1,6,,,,,,,,,,,,,,,,,,,
37499,note_on,,59,0,10,,,,,,,,,,,,,,,,12,,57,0
37500,note_on,,1,0,10,,,,,,,,,,,,,,,,12,,58,72
37500,note_on,,0,0,12,,,,,,,,,,,,,,,,15,,65,72
37500,note_on,,1,0,8,,,,,,,,,,,,,,,,10,,77,72
37500,note_on,,0,0,12,,,,,,,,,,,,,,,,15,,70,72
37500,note_on,,61,0,12,,,,,,,,,,,,,,,,15,,74,72
37500,note_on,,1,0,9,,,,,,,,,,,,,,,,11,,62,72
37619,note_on,,119,0,9,,,,,,,,,,,,,,,,11,,62,0
37619,note_on,,119,0,8,,,,,,,,,,,,,,,,10,,77,0
37619,note_on,,119,0,10,,,,,,,,,,,,,,,,12,,58,0
37620,note_on,,1,0,8,,,,,,,,,,,,,,,,10,,75,72
37620,note_on,,1,0,10,,,,,,,,,,,,,,,,12,,57,72
37620,note_on,,1,0,9,,,,,,,,,,,,,,,,11,,60,72
37679,note_on,,59,0,9,,,,,,,,,,,,,,,,11,,60,0
37679,note_on,,59,0,8,,,,,,,,,,,,,,,,10,,75,0
37679,note_on,,59,0,10,,,,,,,,,,,,,,,,12,,57,0
37680,note_on,,1,0,9,,,,,,,,,,,,,,,,11,,58,72
37680,note_on,,1,0,8,,,,,,,,,,,,,,,,10,,74,72
37680,note_on,,1,0,10,,,,,,,,,,,,,,,,12,,65,72
37799,note_on,,119,0,9,,,,,,,,,,,,,,,,11,,58,0
37799,note_on,,119,0,8,,,,,,,,,,,,,,,,10,,74,0
37799,note_on,,119,0,10,,,,,,,,,,,,,,,,12,,65,0
37800,note_on,,1,0,8,,,,,,,,,,,,,,,,10,,72,72
37800,note_on,,1,0,9,,,,,,,,,,,,,,,,11,,63,72
37800,note_on,,1,0,10,,,,,,,,,,,,,,,,12,,69,72
37859,note_on,,59,0,8,,,,,,,,,,,,,,,,10,,72,0
37859,note_on,,59,0,9,,,,,,,,,,,,,,,,11,,63,0
37859,note_on,,59,0,10,,,,,,,,,,,,,,,,12,,69,0
37860,note_on,,1,0,9,,,,,,,,,,,,,,,,11,,62,72
37860,note_on,,1,0,8,,,,,,,,,,,,,,,,10,,70,72
37860,note_on,,1,0,10,,,,,,,,,,,,,,,,12,,65,72
37979,note_on,,0,0,12,,,,,,,,,,,,,,,,15,,74,0
37979,note_on,,0,0,12,,,,,,,,,,,,,,,,15,,70,0
37979,note_on,,839,0,11,,,,,,,,,,,,,,,,13,,46,0
37979,note_on,,119,0,10,,,,,,,,,,,,,,,,12,,65,0
37979,note_on,,119,0,9,,,,,,,,,,,,,,,,11,,62,0
37979,note_on,,479,0,12,,,,,,,,,,,,,,,,15,,46,0
37979,note_on,,0,0,12,,,,,,,,,,,,,,,,15,,65,0
37979,note_on,,839,0,5,,,,,,,,,,,,,,,,2,,46,0
37980,note_on,,1,0,10,,,,,,,,,,,,,,,,12,,62,72
37980,note_on,,1,0,12,,,,,,,,,,,,,,,,15,,56,72
37980,note_on,,1,0,5,,,,,,,,,,,,,,,,2,,56,72
37980,note_on,,1,0,9,,,,,,,,,,,,,,,,11,,65,72
37980,note_on,,1,0,11,,,,,,,,,,,,,,,,13,,56,72
38039,note_on,,59,0,12,,,,,,,,,,,,,,,,15,,56,0
38039,note_on,,59,0,9,,,,,,,,,,,,,,,,11,,65,0
38039,note_on,,59,0,10,,,,,,,,,,,,,,,,12,,62,0
38039,note_on,,59,0,5,,,,,,,,,,,,,,,,2,,56,0
38039,note_on,,59,0,11,,,,,,,,,,,,,,,,13,,56,0
38040,note_on,,1,0,12,,,,,,,,,,,,,,,,15,,55,72
38040,note_on,,1,0,10,,,,,,,,,,,,,,,,12,,58,72
38040,note_on,,1,0,11,,,,,,,,,,,,,,,,13,,55,72
38040,note_on,,0,0,12,,,,,,,,,,,,,,,,15,,67,72
38040,note_on,,1,0,5,,,,,,,,,,,,,,,,2,,55,72
38040,note_on,,0,0,12,,,,,,,,,,,,,,,,15,,70,72
38040,note_on,,0,0,12,,,,,,,,,,,,,,,,15,,75,72
38040,note_on,,1,0,9,,,,,,,,,,,,,,,,11,,63,72
38159,note_on,,299,0,8,,,,,,,,,,,,,,,,10,,70,0
38159,note_on,,119,0,9,,,,,,,,,,,,,,,,11,,63,0
38159,note_on,,119,0,10,,,,,,,,,,,,,,,,12,,58,0
38159,note_on,,0,0,12,,,,,,,,,,,,,,,,15,,75,0
38159,note_on,,119,0,5,,,,,,,,,,,,,,,,2,,55,0
38159,note_on,,119,0,12,,,,,,,,,,,,,,,,15,,55,0
38159,note_on,,0,0,12,,,,,,,,,,,,,,,,15,,70,0
38159,note_on,,119,0,11,,,,,,,,,,,,,,,,13,,55,0
38159,note_on,,0,0,12,,,,,,,,,,,,,,,,15,,67,0
38160,note_on,,1,0,9,,,,,,,,,,,,,,,,11,,62,72
38160,note_on,,0,0,12,,,,,,,,,,,,,,,,15,,77,72
38160,note_on,,0,0,12,,,,,,,,,,,,,,,,15,,74,72
38160,note_on,,0,0,12,,,,,,,,,,,,,,,,15,,68,72
38160,note_on,,1,0,10,,,,,,,,,,,,,,,,12,,68,72
38160,note_on,,1,0,11,,,,,,,,,,,,,,,,13,,53,72
38160,note_on,,1,0,5,,,,,,,,,,,,,,,,2,,53,72
38160,note_on,,1,0,12,,,,,,,,,,,,,,,,15,,53,72
38160,note_on,,1,0,8,,,,,,,,,,,,,,,,10,,82,72
38219,note_on,,59,0,10,,,,,,,,,,,,,,,,12,,68,0
38219,note_on,,59,0,11,,,,,,,,,,,,,,,,13,,53,0
38219,note_on,,59,0,12,,,,,,,,,,,,,,,,15,,53,0
38219,note_on,,59,0,5,,,,,,,,,,,,,,,,2,,53,0
38219,note_on,,59,0,9,,,,,,,,,,,,,,,,11,,62,0
38219,note_on,,0,0,12,,,,,,,,,,,,,,,,15,,77,0
38219,note_on,,0,0,12,,,,,,,,,,,,,,,,15,,74,0
38219,note_on,,0,0,12,,,,,,,,,,,,,,,,15,,68,0
38219,note_on,,59,0,8,,,,,,,,,,,,,,,,10,,82,0
38220,note_on,,1,0,5,,,,,,,,,,,,,,,,2,,51,72
38220,note_on,,1,0,11,,,,,,,,,,,,,,,,13,,51,72
38220,note_on,,1,0,9,,,,,,,,,,,,,,,,11,,67,72
38220,note_on,,0,0,12,,,,,,,,,,,,,,,,15,,75,72
38220,note_on,,1,0,8,,,,,,,,,,,,,,,,10,,82,72
38220,note_on,,1,0,12,,,,,,,,,,,,,,,,15,,51,72
38220,note_on,,1,0,10,,,,,,,,,,,,,,,,12,,67,72
38220,note_on,,0,0,12,,,,,,,,,,,,,,,,15,,79,72
38220,note_on,,0,0,12,,,,,,,,,,,,,,,,15,,70,72
38339,note_on,,119,0,9,,,,,,,,,,,,,,,,11,,67,0
38339,note_on,,119,0,10,,,,,,,,,,,,,,,,12,,67,0
38339,note_on,,119,0,8,,,,,,,,,,,,,,,,10,,82,0
38340,note_on,,1,0,9,,,,,,,,,,,,,,,,11,,72,72
38340,note_on,,1,0,10,,,,,,,,,,,,,,,,12,,63,72
38340,note_on,,1,0,8,,,,,,,,,,,,,,,,10,,80,72
38399,note_on,,59,0,9,,,,,,,,,,,,,,,,11,,72,0
38399,note_on,,59,0,8,,,,,,,,,,,,,,,,10,,80,0
38399,note_on,,59,0,10,,,,,,,,,,,,,,,,12,,63,0
38400,note_on,,1,0,9,,,,,,,,,,,,,,,,11,,70,72
38400,note_on,,1,0,10,,,,,,,,,,,,,,,,12,,58,72
38400,note_on,,1,0,8,,,,,,,,,,,,,,,,10,,79,72
38519,note_on,,119,0,10,,,,,,,,,,,,,,,,12,,58,0
38519,note_on,,119,0,9,,,,,,,,,,,,,,,,11,,70,0
38519,note_on,,119,0,8,,,,,,,,,,,,,,,,10,,79,0
38520,note_on,,1,0,9,,,,,,,,,,,,,,,,11,,68,72
38520,note_on,,1,0,10,,,,,,,,,,,,,,,,12,,62,72
38520,note_on,,1,0,8,,,,,,,,,,,,,,,,10,,77,72
38579,note_on,,59,0,9,,,,,,,,,,,,,,,,11,,68,0
38579,note_on,,59,0,10,,,,,,,,,,,,,,,,12,,62,0
38579,note_on,,59,0,8,,,,,,,,,,,,,,,,10,,77,0
38580,note_on,,1,0,9,,,,,,,,,,,,,,,,11,,67,72
38580,note_on,,1,0,10,,,,,,,,,,,,,,,,12,,70,72
38580,note_on,,1,0,8,,,,,,,,,,,,,,,,10,,75,72
38699,note_on,,479,0,11,,,,,,,,,,,,,,,,13,,51,0
38699,note_on,,479,0,12,,,,,,,,,,,,,,,,15,,51,0
38699,note_on,,479,0,5,,,,,,,,,,,,,,,,2,,51,0
38699,note_on,,119,0,9,,,,,,,,,,,,,,,,11,,67,0
38699,note_on,,119,0,10,,,,,,,,,,,,,,,,12,,70,0
38700,note_on,,1,0,5,,,,,,,,,,,,,,,,2,,50,72
38700,note_on,,1,0,9,,,,,,,,,,,,,,,,11,,70,72
38700,note_on,,1,0,11,,,,,,,,,,,,,,,,13,,50,72
38700,note_on,,1,0,10,,,,,,,,,,,,,,,,12,,65,72
38700,note_on,,1,0,12,,,,,,,,,,,,,,,,15,,50,72
38759,note_on,,59,0,5,,,,,,,,,,,,,,,,2,,50,0
38759,note_on,,0,0,12,,,,,,,,,,,,,,,,15,,70,0
38759,note_on,,59,0,10,,,,,,,,,,,,,,,,12,,65,0
38759,note_on,,0,0,12,,,,,,,,,,,,,,,,15,,75,0
38759,note_on,,0,0,12,,,,,,,,,,,,,,,,15,,50,0
38759,note_on,,59,0,9,,,,,,,,,,,,,,,,11,,70,0
38759,note_on,,59,0,12,,,,,,,,,,,,,,,,15,,79,0
38759,note_on,,59,0,11,,,,,,,,,,,,,,,,13,,50,0
38760,note_on,,1,0,10,,,,,,,,,,,,,,,,12,,63,72
38760,note_on,,1,0,12,,,,,,,,,,,,,,,,15,,48,72
38760,note_on,,0,0,12,,,,,,,,,,,,,,,,15,,67,72
38760,note_on,,0,0,12,,,,,,,,,,,,,,,,15,,63,72
38760,note_on,,1,0,9,,,,,,,,,,,,,,,,11,,69,72
38760,note_on,,1,0,11,,,,,,,,,,,,,,,,13,,48,72
38760,note_on,,1,0,5,,,,,,,,,,,,,,,,2,,48,72
38879,note_on,,119,0,9,,,,,,,,,,,,,,,,11,,69,0
38879,note_on,,299,0,8,,,,,,,,,,,,,,,,10,,75,0
38879,note_on,,119,0,5,,,,,,,,,,,,,,,,2,,48,0
38879,note_on,,119,0,10,,,,,,,,,,,,,,,,12,,63,0
38879,note_on,,119,0,12,,,,,,,,,,,,,,,,15,,48,0
38879,note_on,,119,0,11,,,,,,,,,,,,,,,,13,,48,0
38880,note_on,,1,0,9,,,,,,,,,,,,,,,,11,,70,72
38880,note_on,,1,0,10,,,,,,,,,,,,,,,,12,,67,72
38880,note_on,,1,0,8,,,,,,,,,,,,,,,,10,,75,72
38880,note_on,,1,0,11,,,,,,,,,,,,,,,,13,,46,72
38880,note_on,,1,0,12,,,,,,,,,,,,,,,,15,,46,72
38880,note_on,,1,0,5,,,,,,,,,,,,,,,,2,,46,72
38939,note_on,,59,0,8,,,,,,,,,,,,,,,,10,,75,0
38939,note_on,,59,0,9,,,,,,,,,,,,,,,,11,,70,0
38939,note_on,,59,0,10,,,,,,,,,,,,,,,,12,,67,0
38939,note_on,,0,0,12,,,,,,,,,,,,,,,,15,,46,0
38939,note_on,,0,0,12,,,,,,,,,,,,,,,,15,,63,0
38939,note_on,,59,0,12,,,,,,,,,,,,,,,,15,,67,0
38939,note_on,,59,0,11,,,,,,,,,,,,,,,,13,,46,0
38939,note_on,,59,0,5,,,,,,,,,,,,,,,,2,,46,0
38940,note_on,,0,0,12,,,,,,,,,,,,,,,,15,,60,72
38940,note_on,,0,0,12,,,,,,,,,,,,,,,,15,,65,72
38940,note_on,,0,0,12,,,,,,,,,,,,,,,,15,,72,72
38940,note_on,,1,0,12,,,,,,,,,,,,,,,,15,,45,72
38940,note_on,,1,0,8,,,,,,,,,,,,,,,,10,,75,72
38940,note_on,,1,0,11,,,,,,,,,,,,,,,,13,,45,72
38940,note_on,,1,0,5,,,,,,,,,,,,,,,,2,,45,72
38940,note_on,,1,0,9,,,,,,,,,,,,,,,,11,,72,72
38940,note_on,,1,0,10,,,,,,,,,,,,,,,,12,,65,72
39059,note_on,,119,0,10,,,,,,,,,,,,,,,,12,,65,0
39059,note_on,,119,0,11,,,,,,,,,,,,,,,,13,,45,0
39059,note_on,,119,0,8,,,,,,,,,,,,,,,,10,,75,0
39059,note_on,,119,0,12,,,,,,,,,,,,,,,,15,,45,0
39059,note_on,,0,0,12,,,,,,,,,,,,,,,,15,,72,0
39059,note_on,,0,0,12,,,,,,,,,,,,,,,,15,,65,0
39059,note_on,,0,0,12,,,,,,,,,,,,,,,,15,,60,0
39059,note_on,,119,0,9,,,,,,,,,,,,,,,,11,,72,0
39059,note_on,,119,0,5,,,,,,,,,,,,,,,,2,,45,0
39060,note_on,,0,0,12,,,,,,,,,,,,,,,,15,,70,72
39060,note_on,,0,0,12,,,,,,,,,,,,,,,,15,,65,72
39060,note_on,,0,0,12,,,,,,,,,,,,,,,,15,,62,72
39060,note_on,,1,0,9,,,,,,,,,,,,,,,,11,,65,72
39060,note_on,,1,0,11,,,,,,,,,,,,,,,,13,,46,72
39060,note_on,,1,0,5,,,,,,,,,,,,,,,,2,,46,72
39060,note_on,,1,0,10,,,,,,,,,,,,,,,,12,,65,72
39060,note_on,,1,0,12,,,,,,,,,,,,,,,,15,,46,72
39060,note_on,,1,0,8,,,,,,,,,,,,,,,,10,,74,72
39119,note_on,,59,0,11,,,,,,,,,,,,,,,,13,,46,0
39119,note_on,,0,0,12,,,,,,,,,,,,,,,,15,,65,0
39119,note_on,,0,0,12,,,,,,,,,,,,,,,,15,,62,0
39119,note_on,,59,0,10,,,,,,,,,,,,,,,,12,,65,0
39119,note_on,,59,0,8,,,,,,,,,,,,,,,,10,,74,0
39119,note_on,,59,0,12,,,,,,,,,,,,,,,,15,,46,0
39119,note_on,,59,0,5,,,,,,,,,,,,,,,,2,,46,0
39119,note_on,,0,0,12,,,,,,,,,,,,,,,,15,,70,0
39119,note_on,,59,0,9,,,,,,,,,,,,,,,,11,,65,0
39120,note_on,,1,0,9,,,,,,,,,,,,,,,,11,,67,72
39120,note_on,,1,0,11,,,,,,,,,,,,,,,,13,,51,72
39120,note_on,,1,0,10,,,,,,,,,,,,,,,,12,,63,72
39120,note_on,,0,0,12,,,,,,,,,,,,,,,,15,,79,72
39120,note_on,,0,0,12,,,,,,,,,,,,,,,,15,,60,72
39120,note_on,,0,0,12,,,,,,,,,,,,,,,,15,,67,72
39120,note_on,,1,0,12,,,,,,,,,,,,,,,,15,,51,72
39120,note_on,,1,0,8,,,,,,,,,,,,,,,,10,,72,72
39120,note_on,,1,0,5,,,,,,,,,,,,,,,,2,,51,72
39239,note_on,,119,0,8,,,,,,,,,,,,,,,,10,,72,0
39239,note_on,,119,0,10,,,,,,,,,,,,,,,,12,,63,0
39240,note_on,,1,0,10,,,,,,,,,,,,,,,,12,,62,72
39240,note_on,,1,0,8,,,,,,,,,,,,,,,,10,,70,72
39299,note_on,,0,0,12,,,,,,,,,,,,,,,,15,,67,0
39299,note_on,,179,0,12,,,,,,,,,,,,,,,,15,,79,0
39299,note_on,,59,0,8,,,,,,,,,,,,,,,,10,,70,0
39299,note_on,,0,0,12,,,,,,,,,,,,,,,,15,,60,0
39299,note_on,,59,0,10,,,,,,,,,,,,,,,,12,,62,0
39299,note_on,,179,0,9,,,,,,,,,,,,,,,,11,,67,0
39300,note_on,,1,0,12,,,,,,,,,,,,,,,,15,,72,72
39300,note_on,,1,0,10,,,,,,,,,,,,,,,,12,,60,72
39300,note_on,,1,0,8,,,,,,,,,,,,,,,,10,,69,72
39300,note_on,,0,0,12,,,,,,,,,,,,,,,,15,,65,72
39300,note_on,,1,0,9,,,,,,,,,,,,,,,,11,,65,72
39300,note_on,,0,0,12,,,,,,,,,,,,,,,,15,,69,72
39389,note_on,,89,0,8,,,,,,,,,,,,,,,,10,,69,0
39390,note_on,,1,0,8,,,,,,,,,,,,,,,,10,,67,72
39419,note_on,,119,0,10,,,,,,,,,,,,,,,,12,,60,0
39419,note_on,,119,0,9,,,,,,,,,,,,,,,,11,,65,0
39419,note_on,,29,0,8,,,,,,,,,,,,,,,,10,,67,0
39420,note_on,,1,0,9,,,,,,,,,,,,,,,,11,,72,72
39420,note_on,,1,0,8,,,,,,,,,,,,,,,,10,,65,72
39420,note_on,,1,0,10,,,,,,,,,,,,,,,,12,,69,72
39479,note_on,,59,0,8,,,,,,,,,,,,,,,,10,,65,0
39479,note_on,,359,0,5,,,,,,,,,,,,,,,,2,,51,0
39479,note_on,,59,0,9,,,,,,,,,,,,,,,,11,,72,0
39479,note_on,,359,0,11,,,,,,,,,,,,,,,,13,,51,0
39479,note_on,,179,0,12,,,,,,,,,,,,,,,,15,,51,0
39479,note_on,,59,0,10,,,,,,,,,,,,,,,,12,,69,0
39479,note_on,,0,0,12,,,,,,,,,,,,,,,,15,,69,0
39479,note_on,,0,0,12,,,,,,,,,,,,,,,,15,,65,0
39479,note_on,,0,0,12,,,,,,,,,,,,,,,,15,,72,0
39480,note_on,,1,0,5,,,,,,,,,,,,,,,,2,,50,72
39480,note_on,,1,0,8,,,,,,,,,,,,,,,,10,,77,72
39480,note_on,,1,0,10,,,,,,,,,,,,,,,,12,,70,72
39480,note_on,,1,0,11,,,,,,,,,,,,,,,,13,,50,72
39480,note_on,,0,0,12,,,,,,,,,,,,,,,,15,,70,72
39480,note_on,,0,0,12,,,,,,,,,,,,,,,,15,,77,72
39480,note_on,,0,0,12,,,,,,,,,,,,,,,,15,,65,72
39480,note_on,,1,0,9,,,,,,,,,,,,,,,,11,,74,72
39480,note_on,,1,0,12,,,,,,,,,,,,,,,,15,,50,72
39569,note_on,,89,0,5,,,,,,,,,,,,,,,,2,,50,0
39569,note_on,,89,0,12,,,,,,,,,,,,,,,,15,,50,0
39569,note_on,,89,0,11,,,,,,,,,,,,,,,,13,,50,0
39570,note_on,,1,0,5,,,,,,,,,,,,,,,,2,,48,72
39570,note_on,,1,0,11,,,,,,,,,,,,,,,,13,,48,72
39570,note_on,,1,0,12,,,,,,,,,,,,,,,,15,,48,72
39599,note_on,,29,0,5,,,,,,,,,,,,,,,,2,,48,0
39599,note_on,,29,0,11,,,,,,,,,,,,,,,,13,,48,0
39599,note_on,,29,0,12,,,,,,,,,,,,,,,,15,,48,0
39600,note_on,,1,0,5,,,,,,,,,,,,,,,,2,,46,72
39600,note_on,,1,0,11,,,,,,,,,,,,,,,,13,,46,72
39600,note_on,,1,0,12,,,,,,,,,,,,,,,,15,,46,72
39659,note_on,,59,0,5,,,,,,,,,,,,,,,,2,,46,0
39659,note_on,,59,0,12,,,,,,,,,,,,,,,,15,,77,0
39659,note_on,,0,0,12,,,,,,,,,,,,,,,,15,,46,0
39659,note_on,,0,0,12,,,,,,,,,,,,,,,,15,,70,0
39659,note_on,,59,0,11,,,,,,,,,,,,,,,,13,,46,0
39659,note_on,,0,0,12,,,,,,,,,,,,,,,,15,,65,0
39660,note_on,,0,0,12,,,,,,,,,,,,,,,,15,,65,72
39660,note_on,,1,0,11,,,,,,,,,,,,,,,,13,,53,72
39660,note_on,,0,0,12,,,,,,,,,,,,,,,,15,,74,72
39660,note_on,,0,0,12,,,,,,,,,,,,,,,,15,,70,72
39660,note_on,,1,0,12,,,,,,,,,,,,,,,,15,,53,72
39660,note_on,,1,0,5,,,,,,,,,,,,,,,,2,,53,72
39749,note_on,,269,0,8,,,,,,,,,,,,,,,,10,,77,0
39749,note_on,,269,0,9,,,,,,,,,,,,,,,,11,,74,0
39750,note_on,,1,0,8,,,,,,,,,,,,,,,,10,,75,72
39750,note_on,,1,0,9,,,,,,,,,,,,,,,,11,,72,72
39779,note_on,,29,0,8,,,,,,,,,,,,,,,,10,,75,0
39779,note_on,,29,0,9,,,,,,,,,,,,,,,,11,,72,0
39779,note_on,,299,0,10,,,,,,,,,,,,,,,,12,,70,0
39780,note_on,,1,0,8,,,,,,,,,,,,,,,,10,,74,72
39780,note_on,,1,0,10,,,,,,,,,,,,,,,,12,,65,72
39780,note_on,,1,0,9,,,,,,,,,,,,,,,,11,,70,72
39839,note_on,,179,0,5,,,,,,,,,,,,,,,,2,,53,0
39839,note_on,,0,0,12,,,,,,,,,,,,,,,,15,,70,0
39839,note_on,,179,0,12,,,,,,,,,,,,,,,,15,,53,0
39839,note_on,,59,0,10,,,,,,,,,,,,,,,,12,,65,0
39839,note_on,,179,0,11,,,,,,,,,,,,,,,,13,,53,0
39839,note_on,,59,0,9,,,,,,,,,,,,,,,,11,,70,0
39839,note_on,,59,0,8,,,,,,,,,,,,,,,,10,,74,0
39839,note_on,,0,0,12,,,,,,,,,,,,,,,,15,,65,0
39839,note_on,,0,0,12,,,,,,,,,,,,,,,,15,,74,0
39840,note_on,,1,0,12,,,,,,,,,,,,,,,,15,,41,72
39840,note_on,,0,0,12,,,,,,,,,,,,,,,,15,,72,72
39840,note_on,,0,0,12,,,,,,,,,,,,,,,,15,,63,72
39840,note_on,,1,0,5,,,,,,,,,,,,,,,,2,,41,72
39840,note_on,,1,0,10,,,,,,,,,,,,,,,,12,,69,72
39840,note_on,,1,0,8,,,,,,,,,,,,,,,,10,,75,72
39840,note_on,,0,0,12,,,,,,,,,,,,,,,,15,,69,72
39840,note_on,,1,0,9,,,,,,,,,,,,,,,,11,,72,72
39840,note_on,,1,0,11,,,,,,,,,,,,,,,,13,,41,72
39929,note_on,,89,0,8,,,,,,,,,,,,,,,,10,,75,0
39929,note_on,,89,0,9,,,,,,,,,,,,,,,,11,,72,0
39930,note_on,,1,0,8,,,,,,,,,,,,,,,,10,,74,72
39930,note_on,,1,0,9,,,,,,,,,,,,,,,,11,,70,72
39959,note_on,,29,0,8,,,,,,,,,,,,,,,,10,,74,0
39959,note_on,,119,0,10,,,,,,,,,,,,,,,,12,,69,0
39959,note_on,,29,0,9,,,,,,,,,,,,,,,,11,,70,0
39960,note_on,,1,0,10,,,,,,,,,,,,,,,,12,,63,72
39960,note_on,,1,0,9,,,,,,,,,,,,,,,,11,,69,72
39960,note_on,,1,0,8,,,,,,,,,,,,,,,,10,,72,72
40019,note_on,,179,0,5,,,,,,,,,,,,,,,,2,,41,0
40019,note_on,,0,0,12,,,,,,,,,,,,,,,,15,,69,0
40019,note_on,,0,0,12,,,,,,,,,,,,,,,,15,,63,0
40019,note_on,,0,0,12,,,,,,,,,,,,,,,,15,,72,0
40019,note_on,,179,0,12,,,,,,,,,,,,,,,,15,,41,0
40019,note_on,,59,0,8,,,,,,,,,,,,,,,,10,,72,0
40019,note_on,,59,0,10,,,,,,,,,,,,,,,,12,,63,0
40019,note_on,,59,0,9,,,,,,,,,,,,,,,,11,,69,0
40019,note_on,,179,0,11,,,,,,,,,,,,,,,,13,,41,0
40020,note_on,,1,0,5,,,,,,,,,,,,,,,,2,,46,72
40020,note_on,,0,0,12,,,,,,,,,,,,,,,,15,,62,72
40020,note_on,,1,0,11,,,,,,,,,,,,,,,,13,,46,72
40020,note_on,,1,0,12,,,,,,,,,,,,,,,,15,,46,72
40020,note_on,,0,0,12,,,,,,,,,,,,,,,,15,,70,72
40020,note_on,,1,0,10,,,,,,,,,,,,,,,,12,,62,72
40020,note_on,,1,0,9,,,,,,,,,,,,,,,,11,,70,72
40020,note_on,,1,0,8,,,,,,,,,,,,,,,,10,,70,72
40020,note_on,,0,0,12,,,,,,,,,,,,,,,,15,,65,72
40379,note_on,,359,0,12,,,,,,,,,,,,,,,,15,,46,0
40379,note_on,,0,0,12,,,,,,,,,,,,,,,,15,,70,0
40379,note_on,,0,0,12,,,,,,,,,,,,,,,,15,,65,0
40379,note_on,,359,0,8,,,,,,,,,,,,,,,,10,,70,0
40379,end_of_track,,0,1,12,,,,,,,,,,,,,,,,,,,
40379,end_of_track,,0,1,8,,,,,,,,,,,,,,,,,,,
40379,note_on,,359,0,9,,,,,,,,,,,,,,,,11,,70,0
40379,end_of_track,,0,1,9,,,,,,,,,,,,,,,,,,,
40379,note_on,,0,0,12,,,,,,,,,,,,,,,,15,,62,0
40379,note_on,,359,0,10,,,,,,,,,,,,,,,,12,,62,0
40379,end_of_track,,0,1,10,,,,,,,,,,,,,,,,,,,
40379,note_on,,359,0,11,,,,,,,,,,,,,,,,13,,46,0
40379,end_of_track,,0,1,11,,,,,,,,,,,,,,,,,,,
40379,end_of_track,,0,1,5,,,,,,,,,,,,,,,,,,,
40379,note_on,,359,0,5,,,,,,,,,,,,,,,,2,,46,0
40380,set_tempo,,22320,1,0,,,,,,,,,500000,,,,,,,,,,
40380,end_of_track,,0,1,0,,,,,,,,,,,,,,,,,,,
