tick,type,data,time,meta,track,frame_rate,hours,minutes,seconds,frames,sub_frames,port,key,tempo,numerator,denominator,clocks_per_click,notated_32nd_notes_per_beat,control,value,channel,program,note,velocity
0,sequencer_specific,"(0, 0, 91, 35, 1, 0, 5, 4, 35, 0)",0,1,0,,,,,,,,,,,,,,,,,,,
0,note_on,,0,0,10,,,,,,,,,,,,,,,,15,,69,72
0,note_on,,0,0,10,,,,,,,,,,,,,,,,15,,64,72
0,note_on,,0,0,10,,,,,,,,,,,,,,,,15,,57,72
0,note_on,,0,0,10,,,,,,,,,,,,,,,,15,,52,72
0,midi_port,,0,1,9,,,,,,,0,,,,,,,,,,,,
0,program_change,,0,0,7,,,,,,,,,,,,,,,,10,48,,
0,control_change,,0,0,7,,,,,,,,,,,,,,10,48,10,,,
0,control_change,,0,0,7,,,,,,,,,,,,,,7,96,10,,,
0,control_change,,0,0,7,,,,,,,,,,,,,,11,127,10,,,
0,midi_port,,0,1,7,,,,,,,0,,,,,,,,,,,,
0,track_name,,0,1,7,,,,,,,,,,,,,,,,,,,
0,program_change,,0,0,6,,,,,,,,,,,,,,,,7,70,,
0,control_change,,0,0,6,,,,,,,,,,,,,,7,96,7,,,
0,control_change,,0,0,6,,,,,,,,,,,,,,10,75,7,,,
0,control_change,,0,0,6,,,,,,,,,,,,,,11,127,7,,,
0,note_on,,0,0,10,,,,,,,,,,,,,,,,15,,72,72
0,note_on,,0,0,10,,,,,,,,,,,,,,,,15,,76,72
0,note_on,,0,0,10,,,,,,,,,,,,,,,,15,,45,72
0,program_change,,0,0,10,,,,,,,,,,,,,,,,15,6,,
0,control_change,,0,0,9,,,,,,,,,,,,,,11,127,13,,,
0,control_change,,0,0,9,,,,,,,,,,,,,,7,96,13,,,
0,control_change,,0,0,9,,,,,,,,,,,,,,10,96,13,,,
0,program_change,,0,0,9,,,,,,,,,,,,,,,,13,48,,
0,note_on,,0,0,9,,,,,,,,,,,,,,,,13,,45,72
0,program_change,,0,0,8,,,,,,,,,,,,,,,,11,48,,
0,control_change,,0,0,8,,,,,,,,,,,,,,10,24,11,,,
0,midi_port,,0,1,6,,,,,,,0,,,,,,,,,,,,
0,control_change,,0,0,8,,,,,,,,,,,,,,7,96,11,,,
0,midi_port,,0,1,8,,,,,,,0,,,,,,,,,,,,
0,track_name,,0,1,8,,,,,,,,,,,,,,,,,,,
0,track_name,,0,1,10,,,,,,,,,,,,,,,,,,,
0,midi_port,,0,1,10,,,,,,,0,,,,,,,,,,,,
0,control_change,,0,0,10,,,,,,,,,,,,,,11,127,15,,,
0,control_change,,0,0,10,,,,,,,,,,,,,,7,96,15,,,
0,control_change,,0,0,10,,,,,,,,,,,,,,10,90,15,,,
0,control_change,,0,0,8,,,,,,,,,,,,,,11,127,11,,,
0,track_name,,0,1,6,,,,,,,,,,,,,,,,,,,
0,track_name,,0,1,9,,,,,,,,,,,,,,,,,,,
0,midi_port,,0,1,1,,,,,,,0,,,,,,,,,,,,
0,set_tempo,,0,1,0,,,,,,,,,666666,,,,,,,,,,
0,time_signature,,0,1,0,,,,,,,,,,3,4,24,8,,,,,,
0,control_change,,0,0,5,,,,,,,,,,,,,,10,65,2,,,
0,track_name,,0,1,1,,,,,,,,,,,,,,,,,,,
0,end_of_track,,0,1,1,,,,,,,,,,,,,,,,,,,
0,track_name,,0,1,2,,,,,,,,,,,,,,,,,,,
0,midi_port,,0,1,2,,,,,,,0,,,,,,,,,,,,
0,end_of_track,,0,1,2,,,,,,,,,,,,,,,,,,,
0,track_name,,0,1,3,,,,,,,,,,,,,,,,,,,
0,midi_port,,0,1,3,,,,,,,0,,,,,,,,,,,,
0,track_name,,0,1,0,,,,,,,,,,,,,,,,,,,
0,instrument_name,,0,1,0,,,,,,,,,,,,,,,,,,,
0,control_change,,0,0,5,,,,,,,,,,,,,,7,96,2,,,
0,smpte_offset,,0,1,0,25,32,0,3,0,0,,,,,,,,,,,,,
0,key_signature,,0,1,0,,,,,,,,Am,,,,,,,,,,,
0,control_change,,0,0,5,,,,,,,,,,,,,,11,127,2,,,
0,midi_port,,0,1,5,,,,,,,0,,,,,,,,,,,,
0,note_on,,0,0,5,,,,,,,,,,,,,,,,2,,45,72
0,end_of_track,,0,1,3,,,,,,,,,,,,,,,,,,,
0,midi_port,,0,1,4,,,,,,,0,,,,,,,,,,,,
0,end_of_track,,0,1,4,,,,,,,,,,,,,,,,,,,
0,track_name,,0,1,5,,,,,,,,,,,,,,,,,,,
0,midi_port,,0,1,0,,,,,,,0,,,,,,,,,,,,
0,program_change,,0,0,5,,,,,,,,,,,,,,,,2,70,,
60,note_on,,60,0,7,,,,,,,,,,,,,,,,10,,76,72
60,note_on,,60,0,8,,,,,,,,,,,,,,,,11,,76,72
119,note_on,,0,0,10,,,,,,,,,,,,,,,,15,,69,0
119,note_on,,0,0,10,,,,,,,,,,,,,,,,15,,76,0
119,note_on,,0,0,10,,,,,,,,,,,,,,,,15,,72,0
119,note_on,,119,0,9,,,,,,,,,,,,,,,,13,,45,0
119,note_on,,0,0,10,,,,,,,,,,,,,,,,15,,64,0
119,note_on,,119,0,10,,,,,,,,,,,,,,,,15,,45,0
119,note_on,,119,0,5,,,,,,,,,,,,,,,,2,,45,0
119,note_on,,59,0,7,,,,,,,,,,,,,,,,10,,76,0
119,note_on,,59,0,8,,,,,,,,,,,,,,,,11,,76,0
119,note_on,,0,0,10,,,,,,,,,,,,,,,,15,,52,0
119,note_on,,0,0,10,,,,,,,,,,,,,,,,15,,57,0
120,note_on,,1,0,8,,,,,,,,,,,,,,,,11,,81,72
120,note_on,,1,0,7,,,,,,,,,,,,,,,,10,,81,72
149,note_on,,29,0,7,,,,,,,,,,,,,,,,10,,81,0
149,note_on,,29,0,8,,,,,,,,,,,,,,,,11,,81,0
150,note_on,,1,0,8,,,,,,,,,,,,,,,,11,,80,72
150,note_on,,1,0,7,,,,,,,,,,,,,,,,10,,80,72
179,note_on,,29,0,8,,,,,,,,,,,,,,,,11,,80,0
179,note_on,,29,0,7,,,,,,,,,,,,,,,,10,,80,0
180,note_on,,1,0,8,,,,,,,,,,,,,,,,11,,81,72
180,note_on,,1,0,7,,,,,,,,,,,,,,,,10,,81,72
209,note_on,,29,0,7,,,,,,,,,,,,,,,,10,,81,0
209,note_on,,29,0,8,,,,,,,,,,,,,,,,11,,81,0
210,note_on,,1,0,8,,,,,,,,,,,,,,,,11,,80,72
210,note_on,,1,0,7,,,,,,,,,,,,,,,,10,,80,72
239,note_on,,29,0,8,,,,,,,,,,,,,,,,11,,80,0
239,note_on,,29,0,7,,,,,,,,,,,,,,,,10,,80,0
240,note_on,,1,0,8,,,,,,,,,,,,,,,,11,,81,72
240,note_on,,1,0,7,,,,,,,,,,,,,,,,10,,81,72
299,note_on,,59,0,8,,,,,,,,,,,,,,,,11,,81,0
299,note_on,,59,0,7,,,,,,,,,,,,,,,,10,,81,0
300,note_on,,0,0,10,,,,,,,,,,,,,,,,15,,69,72
300,note_on,,0,0,10,,,,,,,,,,,,,,,,15,,72,72
300,note_on,,181,0,10,,,,,,,,,,,,,,,,15,,57,72
300,note_on,,0,0,10,,,,,,,,,,,,,,,,15,,64,72
300,note_on,,0,0,10,,,,,,,,,,,,,,,,15,,60,72
300,note_on,,181,0,9,,,,,,,,,,,,,,,,13,,57,72
300,note_on,,1,0,8,,,,,,,,,,,,,,,,11,,60,72
300,note_on,,1,0,7,,,,,,,,,,,,,,,,10,,60,72
300,note_on,,181,0,5,,,,,,,,,,,,,,,,2,,57,72
344,note_on,,44,0,5,,,,,,,,,,,,,,,,2,,57,0
344,note_on,,44,0,10,,,,,,,,,,,,,,,,15,,57,0
344,note_on,,44,0,8,,,,,,,,,,,,,,,,11,,60,0
344,note_on,,44,0,7,,,,,,,,,,,,,,,,10,,60,0
344,note_on,,0,0,10,,,,,,,,,,,,,,,,15,,60,0
344,note_on,,0,0,10,,,,,,,,,,,,,,,,15,,64,0
344,note_on,,0,0,10,,,,,,,,,,,,,,,,15,,69,0
344,note_on,,0,0,10,,,,,,,,,,,,,,,,15,,72,0
344,note_on,,44,0,9,,,,,,,,,,,,,,,,13,,57,0
360,note_on,,16,0,8,,,,,,,,,,,,,,,,11,,59,72
360,note_on,,16,0,5,,,,,,,,,,,,,,,,2,,55,72
360,note_on,,0,0,10,,,,,,,,,,,,,,,,15,,71,72
360,note_on,,0,0,10,,,,,,,,,,,,,,,,15,,76,72
360,note_on,,0,0,10,,,,,,,,,,,,,,,,15,,64,72
360,note_on,,0,0,10,,,,,,,,,,,,,,,,15,,59,72
360,note_on,,16,0,7,,,,,,,,,,,,,,,,10,,59,72
360,note_on,,16,0,9,,,,,,,,,,,,,,,,13,,55,72
360,note_on,,16,0,10,,,,,,,,,,,,,,,,15,,55,72
404,note_on,,44,0,7,,,,,,,,,,,,,,,,10,,59,0
404,note_on,,44,0,8,,,,,,,,,,,,,,,,11,,59,0
420,note_on,,16,0,7,,,,,,,,,,,,,,,,10,,76,72
420,note_on,,16,0,8,,,,,,,,,,,,,,,,11,,76,72
449,note_on,,89,0,9,,,,,,,,,,,,,,,,13,,55,0
449,note_on,,0,0,10,,,,,,,,,,,,,,,,15,,76,0
449,note_on,,0,0,10,,,,,,,,,,,,,,,,15,,59,0
449,note_on,,0,0,10,,,,,,,,,,,,,,,,15,,64,0
449,note_on,,0,0,10,,,,,,,,,,,,,,,,15,,71,0
449,note_on,,89,0,10,,,,,,,,,,,,,,,,15,,55,0
449,note_on,,89,0,5,,,,,,,,,,,,,,,,2,,55,0
479,note_on,,59,0,8,,,,,,,,,,,,,,,,11,,76,0
479,note_on,,59,0,7,,,,,,,,,,,,,,,,10,,76,0
480,note_on,,1,0,8,,,,,,,,,,,,,,,,11,,81,72
480,note_on,,1,0,7,,,,,,,,,,,,,,,,10,,81,72
509,note_on,,29,0,8,,,,,,,,,,,,,,,,11,,81,0
509,note_on,,29,0,7,,,,,,,,,,,,,,,,10,,81,0
510,note_on,,1,0,8,,,,,,,,,,,,,,,,11,,80,72
510,note_on,,1,0,7,,,,,,,,,,,,,,,,10,,80,72
539,note_on,,29,0,7,,,,,,,,,,,,,,,,10,,80,0
539,note_on,,29,0,8,,,,,,,,,,,,,,,,11,,80,0
540,note_on,,1,0,7,,,,,,,,,,,,,,,,10,,81,72
540,note_on,,1,0,8,,,,,,,,,,,,,,,,11,,81,72
569,note_on,,29,0,8,,,,,,,,,,,,,,,,11,,81,0
569,note_on,,29,0,7,,,,,,,,,,,,,,,,10,,81,0
570,note_on,,1,0,8,,,,,,,,,,,,,,,,11,,80,72
570,note_on,,1,0,7,,,,,,,,,,,,,,,,10,,80,72
599,note_on,,29,0,7,,,,,,,,,,,,,,,,10,,80,0
599,note_on,,29,0,8,,,,,,,,,,,,,,,,11,,80,0
600,note_on,,1,0,8,,,,,,,,,,,,,,,,11,,81,72
600,note_on,,1,0,7,,,,,,,,,,,,,,,,10,,81,72
659,note_on,,59,0,7,,,,,,,,,,,,,,,,10,,81,0
659,note_on,,59,0,8,,,,,,,,,,,,,,,,11,,81,0
660,note_on,,211,0,9,,,,,,,,,,,,,,,,13,,53,72
660,note_on,,211,0,5,,,,,,,,,,,,,,,,2,,53,72
660,note_on,,211,0,10,,,,,,,,,,,,,,,,15,,53,72
660,note_on,,0,0,10,,,,,,,,,,,,,,,,15,,69,72
660,note_on,,0,0,10,,,,,,,,,,,,,,,,15,,65,72
660,note_on,,1,0,7,,,,,,,,,,,,,,,,10,,62,72
660,note_on,,1,0,8,,,,,,,,,,,,,,,,11,,62,72
660,note_on,,0,0,10,,,,,,,,,,,,,,,,15,,57,72
704,note_on,,44,0,5,,,,,,,,,,,,,,,,2,,53,0
704,note_on,,44,0,8,,,,,,,,,,,,,,,,11,,62,0
704,note_on,,44,0,9,,,,,,,,,,,,,,,,13,,53,0
704,note_on,,44,0,7,,,,,,,,,,,,,,,,10,,62,0
704,note_on,,44,0,10,,,,,,,,,,,,,,,,15,,53,0
704,note_on,,0,0,10,,,,,,,,,,,,,,,,15,,69,0
704,note_on,,0,0,10,,,,,,,,,,,,,,,,15,,65,0
704,note_on,,0,0,10,,,,,,,,,,,,,,,,15,,57,0
720,note_on,,16,0,10,,,,,,,,,,,,,,,,15,,52,72
720,note_on,,0,0,10,,,,,,,,,,,,,,,,15,,72,72
720,note_on,,0,0,10,,,,,,,,,,,,,,,,15,,60,72
720,note_on,,16,0,7,,,,,,,,,,,,,,,,10,,60,72
720,note_on,,0,0,10,,,,,,,,,,,,,,,,15,,57,72
720,note_on,,0,0,10,,,,,,,,,,,,,,,,15,,69,72
720,note_on,,16,0,5,,,,,,,,,,,,,,,,2,,52,72
720,note_on,,16,0,8,,,,,,,,,,,,,,,,11,,60,72
720,note_on,,16,0,9,,,,,,,,,,,,,,,,13,,52,72
764,note_on,,44,0,8,,,,,,,,,,,,,,,,11,,60,0
764,note_on,,44,0,7,,,,,,,,,,,,,,,,10,,60,0
780,note_on,,16,0,8,,,,,,,,,,,,,,,,11,,76,72
780,note_on,,16,0,7,,,,,,,,,,,,,,,,10,,76,72
809,note_on,,0,0,10,,,,,,,,,,,,,,,,15,,60,0
809,note_on,,0,0,10,,,,,,,,,,,,,,,,15,,69,0
809,note_on,,0,0,10,,,,,,,,,,,,,,,,15,,72,0
809,note_on,,0,0,10,,,,,,,,,,,,,,,,15,,57,0
809,note_on,,89,0,5,,,,,,,,,,,,,,,,2,,52,0
809,note_on,,89,0,10,,,,,,,,,,,,,,,,15,,52,0
809,note_on,,89,0,9,,,,,,,,,,,,,,,,13,,52,0
839,note_on,,59,0,8,,,,,,,,,,,,,,,,11,,76,0
839,note_on,,59,0,7,,,,,,,,,,,,,,,,10,,76,0
840,note_on,,1,0,7,,,,,,,,,,,,,,,,10,,81,72
840,note_on,,1,0,8,,,,,,,,,,,,,,,,11,,81,72
869,note_on,,29,0,7,,,,,,,,,,,,,,,,10,,81,0
869,note_on,,29,0,8,,,,,,,,,,,,,,,,11,,81,0
870,note_on,,1,0,8,,,,,,,,,,,,,,,,11,,80,72
870,note_on,,1,0,7,,,,,,,,,,,,,,,,10,,80,72
899,note_on,,29,0,8,,,,,,,,,,,,,,,,11,,80,0
899,note_on,,29,0,7,,,,,,,,,,,,,,,,10,,80,0
900,note_on,,1,0,8,,,,,,,,,,,,,,,,11,,81,72
900,note_on,,1,0,7,,,,,,,,,,,,,,,,10,,81,72
929,note_on,,29,0,8,,,,,,,,,,,,,,,,11,,81,0
929,note_on,,29,0,7,,,,,,,,,,,,,,,,10,,81,0
930,note_on,,1,0,7,,,,,,,,,,,,,,,,10,,80,72
930,note_on,,1,0,8,,,,,,,,,,,,,,,,11,,80,72
959,note_on,,29,0,7,,,,,,,,,,,,,,,,10,,80,0
959,note_on,,29,0,8,,,,,,,,,,,,,,,,11,,80,0
960,note_on,,1,0,7,,,,,,,,,,,,,,,,10,,81,72
960,note_on,,1,0,8,,,,,,,,,,,,,,,,11,,81,72
1019,note_on,,59,0,7,,,,,,,,,,,,,,,,10,,81,0
1019,note_on,,59,0,8,,,,,,,,,,,,,,,,11,,81,0
1020,note_on,,0,0,10,,,,,,,,,,,,,,,,15,,65,72
1020,note_on,,211,0,9,,,,,,,,,,,,,,,,13,,50,72
1020,note_on,,211,0,5,,,,,,,,,,,,,,,,2,,50,72
1020,note_on,,1,0,8,,,,,,,,,,,,,,,,11,,65,72
1020,note_on,,211,0,10,,,,,,,,,,,,,,,,15,,50,72
1020,note_on,,0,0,10,,,,,,,,,,,,,,,,15,,74,72
1020,note_on,,1,0,7,,,,,,,,,,,,,,,,10,,65,72
1020,note_on,,0,0,10,,,,,,,,,,,,,,,,15,,69,72
1020,note_on,,0,0,10,,,,,,,,,,,,,,,,15,,57,72
1064,note_on,,44,0,8,,,,,,,,,,,,,,,,11,,65,0
1064,note_on,,44,0,7,,,,,,,,,,,,,,,,10,,65,0
1079,note_on,,0,0,10,,,,,,,,,,,,,,,,15,,74,0
1079,note_on,,59,0,10,,,,,,,,,,,,,,,,15,,50,0
1079,note_on,,0,0,10,,,,,,,,,,,,,,,,15,,69,0
1079,note_on,,0,0,10,,,,,,,,,,,,,,,,15,,65,0
1079,note_on,,0,0,10,,,,,,,,,,,,,,,,15,,57,0
1079,note_on,,59,0,5,,,,,,,,,,,,,,,,2,,50,0
1079,note_on,,59,0,9,,,,,,,,,,,,,,,,13,,50,0
1080,note_on,,16,0,7,,,,,,,,,,,,,,,,10,,64,72
1080,note_on,,0,0,10,,,,,,,,,,,,,,,,15,,76,72
1080,note_on,,0,0,10,,,,,,,,,,,,,,,,15,,69,72
1080,note_on,,0,0,10,,,,,,,,,,,,,,,,15,,64,72
1080,note_on,,0,0,10,,,,,,,,,,,,,,,,15,,57,72
1080,note_on,,1,0,10,,,,,,,,,,,,,,,,15,,48,72
1080,note_on,,1,0,9,,,,,,,,,,,,,,,,13,,48,72
1080,note_on,,1,0,5,,,,,,,,,,,,,,,,2,,48,72
1080,note_on,,16,0,8,,,,,,,,,,,,,,,,11,,64,72
1124,note_on,,44,0,8,,,,,,,,,,,,,,,,11,,64,0
1124,note_on,,44,0,7,,,,,,,,,,,,,,,,10,,64,0
1139,note_on,,0,0,10,,,,,,,,,,,,,,,,15,,76,0
1139,note_on,,59,0,5,,,,,,,,,,,,,,,,2,,48,0
1139,note_on,,0,0,10,,,,,,,,,,,,,,,,15,,69,0
1139,note_on,,0,0,10,,,,,,,,,,,,,,,,15,,57,0
1139,note_on,,59,0,10,,,,,,,,,,,,,,,,15,,48,0
1139,note_on,,0,0,10,,,,,,,,,,,,,,,,15,,64,0
1139,note_on,,59,0,9,,,,,,,,,,,,,,,,13,,48,0
1140,note_on,,0,0,10,,,,,,,,,,,,,,,,15,,64,72
1140,note_on,,1,0,9,,,,,,,,,,,,,,,,13,,60,72
1140,note_on,,1,0,5,,,,,,,,,,,,,,,,2,,60,72
1140,note_on,,16,0,8,,,,,,,,,,,,,,,,11,,76,72
1140,note_on,,0,0,10,,,,,,,,,,,,,,,,15,,69,72
1140,note_on,,1,0,10,,,,,,,,,,,,,,,,15,,60,72
1140,note_on,,16,0,7,,,,,,,,,,,,,,,,10,,76,72
1199,note_on,,59,0,7,,,,,,,,,,,,,,,,10,,76,0
1199,note_on,,59,0,5,,,,,,,,,,,,,,,,2,,60,0
1199,note_on,,59,0,8,,,,,,,,,,,,,,,,11,,76,0
1199,note_on,,0,0,10,,,,,,,,,,,,,,,,15,,69,0
1199,note_on,,0,0,10,,,,,,,,,,,,,,,,15,,64,0
1199,note_on,,59,0,9,,,,,,,,,,,,,,,,13,,60,0
1199,note_on,,59,0,10,,,,,,,,,,,,,,,,15,,60,0
1200,note_on,,1,0,10,,,,,,,,,,,,,,,,15,,59,72
1200,note_on,,0,0,10,,,,,,,,,,,,,,,,15,,74,72
1200,note_on,,0,0,10,,,,,,,,,,,,,,,,15,,68,72
1200,note_on,,0,0,10,,,,,,,,,,,,,,,,15,,62,72
1200,note_on,,1,0,9,,,,,,,,,,,,,,,,13,,59,72
1200,note_on,,1,0,8,,,,,,,,,,,,,,,,11,,86,72
1200,note_on,,1,0,7,,,,,,,,,,,,,,,,10,,86,72
1200,note_on,,1,0,5,,,,,,,,,,,,,,,,2,,59,72
1229,note_on,,29,0,7,,,,,,,,,,,,,,,,10,,86,0
1229,note_on,,29,0,8,,,,,,,,,,,,,,,,11,,86,0
1230,note_on,,1,0,8,,,,,,,,,,,,,,,,11,,85,72
1230,note_on,,1,0,7,,,,,,,,,,,,,,,,10,,85,72
1259,note_on,,29,0,8,,,,,,,,,,,,,,,,11,,85,0
1259,note_on,,29,0,7,,,,,,,,,,,,,,,,10,,85,0
1260,note_on,,1,0,8,,,,,,,,,,,,,,,,11,,86,72
1260,note_on,,1,0,7,,,,,,,,,,,,,,,,10,,86,72
1289,note_on,,29,0,8,,,,,,,,,,,,,,,,11,,86,0
1289,note_on,,29,0,7,,,,,,,,,,,,,,,,10,,86,0
1290,note_on,,1,0,8,,,,,,,,,,,,,,,,11,,85,72
1290,note_on,,1,0,7,,,,,,,,,,,,,,,,10,,85,72
1319,note_on,,0,0,10,,,,,,,,,,,,,,,,15,,62,0
1319,note_on,,119,0,9,,,,,,,,,,,,,,,,13,,59,0
1319,note_on,,0,0,10,,,,,,,,,,,,,,,,15,,68,0
1319,note_on,,119,0,5,,,,,,,,,,,,,,,,2,,59,0
1319,note_on,,119,0,10,,,,,,,,,,,,,,,,15,,59,0
1319,note_on,,29,0,8,,,,,,,,,,,,,,,,11,,85,0
1319,note_on,,29,0,7,,,,,,,,,,,,,,,,10,,85,0
1320,note_on,,0,0,10,,,,,,,,,,,,,,,,15,,65,72
1320,note_on,,0,0,10,,,,,,,,,,,,,,,,15,,69,72
1320,note_on,,1,0,10,,,,,,,,,,,,,,,,15,,57,72
1320,note_on,,0,0,10,,,,,,,,,,,,,,,,15,,60,72
1320,note_on,,1,0,7,,,,,,,,,,,,,,,,10,,86,72
1320,note_on,,1,0,5,,,,,,,,,,,,,,,,2,,57,72
1320,note_on,,1,0,8,,,,,,,,,,,,,,,,11,,86,72
1320,note_on,,1,0,9,,,,,,,,,,,,,,,,13,,57,72
1379,note_on,,59,0,7,,,,,,,,,,,,,,,,10,,86,0
1379,note_on,,59,0,8,,,,,,,,,,,,,,,,11,,86,0
1380,note_on,,1,0,7,,,,,,,,,,,,,,,,10,,77,72
1380,note_on,,1,0,8,,,,,,,,,,,,,,,,11,,77,72
1439,note_on,,59,0,7,,,,,,,,,,,,,,,,10,,77,0
1439,note_on,,59,0,8,,,,,,,,,,,,,,,,11,,77,0
1439,note_on,,0,0,10,,,,,,,,,,,,,,,,15,,65,0
1439,note_on,,0,0,10,,,,,,,,,,,,,,,,15,,57,0
1439,note_on,,119,0,5,,,,,,,,,,,,,,,,2,,57,0
1439,note_on,,119,0,9,,,,,,,,,,,,,,,,13,,57,0
1439,note_on,,119,0,10,,,,,,,,,,,,,,,,15,,74,0
1439,note_on,,0,0,10,,,,,,,,,,,,,,,,15,,69,0
1439,note_on,,0,0,10,,,,,,,,,,,,,,,,15,,60,0
1440,note_on,,1,0,9,,,,,,,,,,,,,,,,13,,56,72
1440,note_on,,1,0,7,,,,,,,,,,,,,,,,10,,76,72
1440,note_on,,1,0,5,,,,,,,,,,,,,,,,2,,56,72
1440,note_on,,1,0,10,,,,,,,,,,,,,,,,15,,56,72
1440,note_on,,1,0,8,,,,,,,,,,,,,,,,11,,76,72
1440,note_on,,0,0,10,,,,,,,,,,,,,,,,15,,59,72
1440,note_on,,0,0,10,,,,,,,,,,,,,,,,15,,64,72
1440,note_on,,0,0,10,,,,,,,,,,,,,,,,15,,71,72
1499,note_on,,59,0,7,,,,,,,,,,,,,,,,10,,76,0
1499,note_on,,59,0,8,,,,,,,,,,,,,,,,11,,76,0
1500,note_on,,1,0,7,,,,,,,,,,,,,,,,10,,64,72
1500,note_on,,1,0,8,,,,,,,,,,,,,,,,11,,64,72
1529,note_on,,89,0,9,,,,,,,,,,,,,,,,13,,56,0
1529,note_on,,89,0,10,,,,,,,,,,,,,,,,15,,56,0
1529,note_on,,0,0,10,,,,,,,,,,,,,,,,15,,59,0
1529,note_on,,89,0,5,,,,,,,,,,,,,,,,2,,56,0
1529,note_on,,0,0,10,,,,,,,,,,,,,,,,15,,64,0
1529,note_on,,0,0,10,,,,,,,,,,,,,,,,15,,71,0
1559,note_on,,59,0,7,,,,,,,,,,,,,,,,10,,64,0
1559,note_on,,59,0,8,,,,,,,,,,,,,,,,11,,64,0
1560,note_on,,31,0,5,,,,,,,,,,,,,,,,2,,55,72
1560,note_on,,1,0,7,,,,,,,,,,,,,,,,10,,76,72
1560,note_on,,0,0,10,,,,,,,,,,,,,,,,15,,64,72
1560,note_on,,0,0,10,,,,,,,,,,,,,,,,15,,59,72
1560,note_on,,1,0,8,,,,,,,,,,,,,,,,11,,76,72
1560,note_on,,31,0,10,,,,,,,,,,,,,,,,15,,55,72
1560,note_on,,31,0,9,,,,,,,,,,,,,,,,13,,55,72
1560,note_on,,0,0,10,,,,,,,,,,,,,,,,15,,76,72
1560,note_on,,0,0,10,,,,,,,,,,,,,,,,15,,71,72
1589,note_on,,29,0,8,,,,,,,,,,,,,,,,11,,76,0
1589,note_on,,29,0,7,,,,,,,,,,,,,,,,10,,76,0
1590,note_on,,1,0,7,,,,,,,,,,,,,,,,10,,75,72
1590,note_on,,1,0,8,,,,,,,,,,,,,,,,11,,75,72
1619,note_on,,29,0,7,,,,,,,,,,,,,,,,10,,75,0
1619,note_on,,29,0,8,,,,,,,,,,,,,,,,11,,75,0
1620,note_on,,1,0,8,,,,,,,,,,,,,,,,11,,76,72
1620,note_on,,1,0,7,,,,,,,,,,,,,,,,10,,76,72
1649,note_on,,29,0,7,,,,,,,,,,,,,,,,10,,76,0
1649,note_on,,29,0,8,,,,,,,,,,,,,,,,11,,76,0
1649,note_on,,0,0,10,,,,,,,,,,,,,,,,15,,64,0
1649,note_on,,89,0,10,,,,,,,,,,,,,,,,15,,55,0
1649,note_on,,89,0,9,,,,,,,,,,,,,,,,13,,55,0
1649,note_on,,89,0,5,,,,,,,,,,,,,,,,2,,55,0
1649,note_on,,0,0,10,,,,,,,,,,,,,,,,15,,59,0
1649,note_on,,0,0,10,,,,,,,,,,,,,,,,15,,71,0
1649,note_on,,0,0,10,,,,,,,,,,,,,,,,15,,76,0
1650,note_on,,1,0,8,,,,,,,,,,,,,,,,11,,75,72
1650,note_on,,1,0,7,,,,,,,,,,,,,,,,10,,75,72
1679,note_on,,29,0,7,,,,,,,,,,,,,,,,10,,75,0
1679,note_on,,29,0,8,,,,,,,,,,,,,,,,11,,75,0
1680,note_on,,1,0,7,,,,,,,,,,,,,,,,10,,76,72
1680,note_on,,1,0,8,,,,,,,,,,,,,,,,11,,76,72
1739,note_on,,59,0,8,,,,,,,,,,,,,,,,11,,76,0
1739,note_on,,59,0,7,,,,,,,,,,,,,,,,10,,76,0
1740,note_on,,91,0,5,,,,,,,,,,,,,,,,2,,55,72
1740,note_on,,1,0,7,,,,,,,,,,,,,,,,10,,59,72
1740,note_on,,0,0,10,,,,,,,,,,,,,,,,15,,59,72
1740,note_on,,1,0,8,,,,,,,,,,,,,,,,11,,59,72
1740,note_on,,91,0,9,,,,,,,,,,,,,,,,13,,55,72
1740,note_on,,91,0,10,,,,,,,,,,,,,,,,15,,55,72
1740,note_on,,0,0,10,,,,,,,,,,,,,,,,15,,64,72
1784,note_on,,44,0,8,,,,,,,,,,,,,,,,11,,59,0
1784,note_on,,44,0,7,,,,,,,,,,,,,,,,10,,59,0
1799,note_on,,59,0,10,,,,,,,,,,,,,,,,15,,55,0
1799,note_on,,59,0,9,,,,,,,,,,,,,,,,13,,55,0
1799,note_on,,0,0,10,,,,,,,,,,,,,,,,15,,64,0
1799,note_on,,59,0,5,,,,,,,,,,,,,,,,2,,55,0
1799,note_on,,0,0,10,,,,,,,,,,,,,,,,15,,59,0
1800,note_on,,16,0,7,,,,,,,,,,,,,,,,10,,57,72
1800,note_on,,1,0,9,,,,,,,,,,,,,,,,13,,54,72
1800,note_on,,1,0,10,,,,,,,,,,,,,,,,15,,54,72
1800,note_on,,0,0,10,,,,,,,,,,,,,,,,15,,64,72
1800,note_on,,0,0,10,,,,,,,,,,,,,,,,15,,57,72
1800,note_on,,1,0,5,,,,,,,,,,,,,,,,2,,54,72
1800,note_on,,16,0,8,,,,,,,,,,,,,,,,11,,57,72
1800,note_on,,0,0,10,,,,,,,,,,,,,,,,15,,69,72
1844,note_on,,44,0,7,,,,,,,,,,,,,,,,10,,57,0
1844,note_on,,44,0,8,,,,,,,,,,,,,,,,11,,57,0
1860,note_on,,16,0,7,,,,,,,,,,,,,,,,10,,69,72
1860,note_on,,16,0,8,,,,,,,,,,,,,,,,11,,69,72
1889,note_on,,89,0,5,,,,,,,,,,,,,,,,2,,54,0
1889,note_on,,0,0,10,,,,,,,,,,,,,,,,15,,64,0
1889,note_on,,0,0,10,,,,,,,,,,,,,,,,15,,69,0
1889,note_on,,0,0,10,,,,,,,,,,,,,,,,15,,57,0
1889,note_on,,89,0,10,,,,,,,,,,,,,,,,15,,54,0
1889,note_on,,89,0,9,,,,,,,,,,,,,,,,13,,54,0
1919,note_on,,59,0,8,,,,,,,,,,,,,,,,11,,69,0
1919,note_on,,59,0,7,,,,,,,,,,,,,,,,10,,69,0
1920,note_on,,0,0,10,,,,,,,,,,,,,,,,15,,74,72
1920,note_on,,0,0,10,,,,,,,,,,,,,,,,15,,69,72
1920,note_on,,0,0,10,,,,,,,,,,,,,,,,15,,62,72
1920,note_on,,0,0,10,,,,,,,,,,,,,,,,15,,57,72
1920,note_on,,31,0,9,,,,,,,,,,,,,,,,13,,53,72
1920,note_on,,31,0,5,,,,,,,,,,,,,,,,2,,53,72
1920,note_on,,31,0,10,,,,,,,,,,,,,,,,15,,53,72
1920,note_on,,1,0,7,,,,,,,,,,,,,,,,10,,74,72
1920,note_on,,1,0,8,,,,,,,,,,,,,,,,11,,74,72
1949,note_on,,29,0,7,,,,,,,,,,,,,,,,10,,74,0
1949,note_on,,29,0,8,,,,,,,,,,,,,,,,11,,74,0
1950,note_on,,1,0,7,,,,,,,,,,,,,,,,10,,73,72
1950,note_on,,1,0,8,,,,,,,,,,,,,,,,11,,73,72
1979,note_on,,29,0,7,,,,,,,,,,,,,,,,10,,73,0
1979,note_on,,29,0,8,,,,,,,,,,,,,,,,11,,73,0
1980,note_on,,1,0,8,,,,,,,,,,,,,,,,11,,74,72
1980,note_on,,1,0,7,,,,,,,,,,,,,,,,10,,74,72
2009,note_on,,29,0,8,,,,,,,,,,,,,,,,11,,74,0
2009,note_on,,89,0,5,,,,,,,,,,,,,,,,2,,53,0
2009,note_on,,0,0,10,,,,,,,,,,,,,,,,15,,57,0
2009,note_on,,0,0,10,,,,,,,,,,,,,,,,15,,74,0
2009,note_on,,0,0,10,,,,,,,,,,,,,,,,15,,69,0
2009,note_on,,0,0,10,,,,,,,,,,,,,,,,15,,62,0
2009,note_on,,29,0,7,,,,,,,,,,,,,,,,10,,74,0
2009,note_on,,89,0,9,,,,,,,,,,,,,,,,13,,53,0
2009,note_on,,89,0,10,,,,,,,,,,,,,,,,15,,53,0
2010,note_on,,1,0,8,,,,,,,,,,,,,,,,11,,73,72
2010,note_on,,1,0,7,,,,,,,,,,,,,,,,10,,73,72
2039,note_on,,29,0,8,,,,,,,,,,,,,,,,11,,73,0
2039,note_on,,29,0,7,,,,,,,,,,,,,,,,10,,73,0
2040,note_on,,1,0,7,,,,,,,,,,,,,,,,10,,74,72
2040,note_on,,1,0,8,,,,,,,,,,,,,,,,11,,74,72
2099,note_on,,59,0,8,,,,,,,,,,,,,,,,11,,74,0
2099,note_on,,59,0,7,,,,,,,,,,,,,,,,10,,74,0
2100,note_on,,1,0,7,,,,,,,,,,,,,,,,10,,57,72
2100,note_on,,1,0,8,,,,,,,,,,,,,,,,11,,57,72
2100,note_on,,91,0,5,,,,,,,,,,,,,,,,2,,53,72
2100,note_on,,91,0,9,,,,,,,,,,,,,,,,13,,53,72
2100,note_on,,0,0,10,,,,,,,,,,,,,,,,15,,57,72
2100,note_on,,0,0,10,,,,,,,,,,,,,,,,15,,62,72
2100,note_on,,0,0,10,,,,,,,,,,,,,,,,15,,69,72
2100,note_on,,91,0,10,,,,,,,,,,,,,,,,15,,53,72
2159,note_on,,0,0,10,,,,,,,,,,,,,,,,15,,57,0
2159,note_on,,0,0,10,,,,,,,,,,,,,,,,15,,62,0
2159,note_on,,0,0,10,,,,,,,,,,,,,,,,15,,69,0
2159,note_on,,59,0,10,,,,,,,,,,,,,,,,15,,53,0
2159,note_on,,59,0,8,,,,,,,,,,,,,,,,11,,57,0
2159,note_on,,59,0,7,,,,,,,,,,,,,,,,10,,57,0
2159,note_on,,59,0,5,,,,,,,,,,,,,,,,2,,53,0
2159,note_on,,59,0,9,,,,,,,,,,,,,,,,13,,53,0
2160,note_on,,1,0,5,,,,,,,,,,,,,,,,2,,52,72
2160,note_on,,0,0,10,,,,,,,,,,,,,,,,15,,76,72
2160,note_on,,1,0,8,,,,,,,,,,,,,,,,11,,56,72
2160,note_on,,1,0,9,,,,,,,,,,,,,,,,13,,52,72
2160,note_on,,1,0,10,,,,,,,,,,,,,,,,15,,52,72
2160,note_on,,0,0,10,,,,,,,,,,,,,,,,15,,68,72
2160,note_on,,0,0,10,,,,,,,,,,,,,,,,15,,64,72
2160,note_on,,0,0,10,,,,,,,,,,,,,,,,15,,59,72
2160,note_on,,1,0,7,,,,,,,,,,,,,,,,10,,56,72
2219,note_on,,59,0,8,,,,,,,,,,,,,,,,11,,56,0
2219,note_on,,59,0,7,,,,,,,,,,,,,,,,10,,56,0
2220,note_on,,1,0,8,,,,,,,,,,,,,,,,11,,59,72
2220,note_on,,1,0,7,,,,,,,,,,,,,,,,10,,59,72
2279,note_on,,59,0,8,,,,,,,,,,,,,,,,11,,59,0
2279,note_on,,0,0,10,,,,,,,,,,,,,,,,15,,59,0
2279,note_on,,119,0,10,,,,,,,,,,,,,,,,15,,52,0
2279,note_on,,0,0,10,,,,,,,,,,,,,,,,15,,68,0
2279,note_on,,0,0,10,,,,,,,,,,,,,,,,15,,76,0
2279,note_on,,119,0,5,,,,,,,,,,,,,,,,2,,52,0
2279,note_on,,119,0,9,,,,,,,,,,,,,,,,13,,52,0
2279,note_on,,0,0,10,,,,,,,,,,,,,,,,15,,64,0
2279,note_on,,59,0,7,,,,,,,,,,,,,,,,10,,59,0
2280,note_on,,1,0,7,,,,,,,,,,,,,,,,10,,62,72
2280,note_on,,1,0,8,,,,,,,,,,,,,,,,11,,62,72
2339,note_on,,59,0,7,,,,,,,,,,,,,,,,10,,62,0
2339,note_on,,59,0,8,,,,,,,,,,,,,,,,11,,62,0
2340,note_on,,1,0,8,,,,,,,,,,,,,,,,11,,68,72
2340,note_on,,1,0,7,,,,,,,,,,,,,,,,10,,68,72
2399,note_on,,59,0,8,,,,,,,,,,,,,,,,11,,68,0
2399,note_on,,59,0,7,,,,,,,,,,,,,,,,10,,68,0
2400,note_on,,1,0,8,,,,,,,,,,,,,,,,11,,71,72
2400,note_on,,1,0,7,,,,,,,,,,,,,,,,10,,71,72
2459,note_on,,59,0,8,,,,,,,,,,,,,,,,11,,71,0
2459,note_on,,59,0,7,,,,,,,,,,,,,,,,10,,71,0
2460,note_on,,1,0,8,,,,,,,,,,,,,,,,11,,74,72
2460,note_on,,1,0,7,,,,,,,,,,,,,,,,10,,74,72
2519,note_on,,59,0,7,,,,,,,,,,,,,,,,10,,74,0
2519,note_on,,59,0,8,,,,,,,,,,,,,,,,11,,74,0
2520,note_on,,1,0,7,,,,,,,,,,,,,,,,10,,80,72
2520,note_on,,1,0,8,,,,,,,,,,,,,,,,11,,80,72
2579,note_on,,59,0,8,,,,,,,,,,,,,,,,11,,80,0
2579,note_on,,59,0,7,,,,,,,,,,,,,,,,10,,80,0
2580,note_on,,1,0,7,,,,,,,,,,,,,,,,10,,83,72
2580,note_on,,1,0,8,,,,,,,,,,,,,,,,11,,83,72
2639,note_on,,59,0,8,,,,,,,,,,,,,,,,11,,83,0
2639,note_on,,59,0,7,,,,,,,,,,,,,,,,10,,83,0
2640,note_on,,1,0,7,,,,,,,,,,,,,,,,10,,86,72
2640,note_on,,1,0,8,,,,,,,,,,,,,,,,11,,86,72
2699,note_on,,59,0,8,,,,,,,,,,,,,,,,11,,86,0
2699,note_on,,59,0,7,,,,,,,,,,,,,,,,10,,86,0
2700,note_on,,1,0,8,,,,,,,,,,,,,,,,11,,83,72
2700,note_on,,0,0,10,,,,,,,,,,,,,,,,15,,71,72
2700,note_on,,0,0,10,,,,,,,,,,,,,,,,15,,64,72
2700,note_on,,1,0,7,,,,,,,,,,,,,,,,10,,83,72
2700,note_on,,0,0,10,,,,,,,,,,,,,,,,15,,76,72
2700,note_on,,421,0,10,,,,,,,,,,,,,,,,15,,56,72
2700,note_on,,421,0,5,,,,,,,,,,,,,,,,2,,56,72
2700,note_on,,421,0,9,,,,,,,,,,,,,,,,13,,56,72
2759,note_on,,59,0,9,,,,,,,,,,,,,,,,13,,56,0
2759,note_on,,59,0,10,,,,,,,,,,,,,,,,15,,56,0
2759,note_on,,59,0,5,,,,,,,,,,,,,,,,2,,56,0
2759,note_on,,59,0,8,,,,,,,,,,,,,,,,11,,83,0
2759,note_on,,0,0,10,,,,,,,,,,,,,,,,15,,71,0
2759,note_on,,0,0,10,,,,,,,,,,,,,,,,15,,64,0
2759,note_on,,59,0,7,,,,,,,,,,,,,,,,10,,83,0
2760,note_on,,0,0,10,,,,,,,,,,,,,,,,15,,72,72
2760,note_on,,1,0,5,,,,,,,,,,,,,,,,2,,57,72
2760,note_on,,1,0,10,,,,,,,,,,,,,,,,15,,57,72
2760,note_on,,0,0,10,,,,,,,,,,,,,,,,15,,64,72
2760,note_on,,1,0,8,,,,,,,,,,,,,,,,11,,84,72
2760,note_on,,1,0,9,,,,,,,,,,,,,,,,13,,57,72
2760,note_on,,1,0,7,,,,,,,,,,,,,,,,10,,84,72
2819,note_on,,59,0,10,,,,,,,,,,,,,,,,15,,57,0
2819,note_on,,0,0,10,,,,,,,,,,,,,,,,15,,64,0
2819,note_on,,59,0,7,,,,,,,,,,,,,,,,10,,84,0
2819,note_on,,59,0,9,,,,,,,,,,,,,,,,13,,57,0
2819,note_on,,59,0,8,,,,,,,,,,,,,,,,11,,84,0
2819,note_on,,59,0,5,,,,,,,,,,,,,,,,2,,57,0
2820,note_on,,1,0,7,,,,,,,,,,,,,,,,10,,81,72
2820,note_on,,1,0,10,,,,,,,,,,,,,,,,15,,60,72
2820,note_on,,0,0,10,,,,,,,,,,,,,,,,15,,69,72
2820,note_on,,1,0,8,,,,,,,,,,,,,,,,11,,81,72
2820,note_on,,1,0,9,,,,,,,,,,,,,,,,13,,60,72
2820,note_on,,1,0,5,,,,,,,,,,,,,,,,2,,60,72
2879,note_on,,59,0,8,,,,,,,,,,,,,,,,11,,81,0
2879,note_on,,0,0,10,,,,,,,,,,,,,,,,15,,60,0
2879,note_on,,59,0,7,,,,,,,,,,,,,,,,10,,81,0
2879,note_on,,59,0,9,,,,,,,,,,,,,,,,13,,60,0
2879,note_on,,59,0,10,,,,,,,,,,,,,,,,15,,76,0
2879,note_on,,0,0,10,,,,,,,,,,,,,,,,15,,72,0
2879,note_on,,0,0,10,,,,,,,,,,,,,,,,15,,69,0
2879,note_on,,59,0,5,,,,,,,,,,,,,,,,2,,60,0
2880,note_on,,1,0,10,,,,,,,,,,,,,,,,15,,62,72
2880,note_on,,0,0,10,,,,,,,,,,,,,,,,15,,74,72
2880,note_on,,0,0,10,,,,,,,,,,,,,,,,15,,69,72
2880,note_on,,0,0,10,,,,,,,,,,,,,,,,15,,65,72
2880,note_on,,0,0,10,,,,,,,,,,,,,,,,15,,71,72
2880,note_on,,1,0,8,,,,,,,,,,,,,,,,11,,83,72
2880,note_on,,1,0,9,,,,,,,,,,,,,,,,13,,62,72
2880,note_on,,1,0,5,,,,,,,,,,,,,,,,2,,62,72
2880,note_on,,1,0,7,,,,,,,,,,,,,,,,10,,83,72
2939,note_on,,59,0,5,,,,,,,,,,,,,,,,2,,62,0
2939,note_on,,59,0,8,,,,,,,,,,,,,,,,11,,83,0
2939,note_on,,59,0,10,,,,,,,,,,,,,,,,15,,62,0
2939,note_on,,59,0,9,,,,,,,,,,,,,,,,13,,62,0
2939,note_on,,59,0,7,,,,,,,,,,,,,,,,10,,83,0
2940,note_on,,1,0,5,,,,,,,,,,,,,,,,2,,50,72
2940,note_on,,1,0,8,,,,,,,,,,,,,,,,11,,78,72
2940,note_on,,1,0,9,,,,,,,,,,,,,,,,13,,50,72
2940,note_on,,1,0,10,,,,,,,,,,,,,,,,15,,50,72
2940,note_on,,1,0,7,,,,,,,,,,,,,,,,10,,78,72
2999,note_on,,0,0,10,,,,,,,,,,,,,,,,15,,65,0
2999,note_on,,0,0,10,,,,,,,,,,,,,,,,15,,50,0
2999,note_on,,59,0,8,,,,,,,,,,,,,,,,11,,78,0
2999,note_on,,0,0,10,,,,,,,,,,,,,,,,15,,69,0
2999,note_on,,0,0,10,,,,,,,,,,,,,,,,15,,71,0
2999,note_on,,59,0,9,,,,,,,,,,,,,,,,13,,50,0
2999,note_on,,59,0,7,,,,,,,,,,,,,,,,10,,78,0
2999,note_on,,59,0,10,,,,,,,,,,,,,,,,15,,74,0
2999,note_on,,59,0,5,,,,,,,,,,,,,,,,2,,50,0
3000,note_on,,1,0,9,,,,,,,,,,,,,,,,13,,52,72
3000,note_on,,1,0,7,,,,,,,,,,,,,,,,10,,80,72
3000,note_on,,1,0,10,,,,,,,,,,,,,,,,15,,52,72
3000,note_on,,0,0,10,,,,,,,,,,,,,,,,15,,59,72
3000,note_on,,0,0,10,,,,,,,,,,,,,,,,15,,71,72
3000,note_on,,0,0,10,,,,,,,,,,,,,,,,15,,68,72
3000,note_on,,1,0,8,,,,,,,,,,,,,,,,11,,80,72
3000,note_on,,1,0,5,,,,,,,,,,,,,,,,2,,52,72
3014,note_on,,14,0,8,,,,,,,,,,,,,,,,11,,80,0
3014,note_on,,14,0,7,,,,,,,,,,,,,,,,10,,80,0
3015,note_on,,1,0,7,,,,,,,,,,,,,,,,10,,81,72
3015,note_on,,1,0,8,,,,,,,,,,,,,,,,11,,81,72
3029,note_on,,14,0,8,,,,,,,,,,,,,,,,11,,81,0
3029,note_on,,14,0,7,,,,,,,,,,,,,,,,10,,81,0
3030,note_on,,1,0,7,,,,,,,,,,,,,,,,10,,80,72
3030,note_on,,1,0,8,,,,,,,,,,,,,,,,11,,80,72
3044,note_on,,14,0,7,,,,,,,,,,,,,,,,10,,80,0
3044,note_on,,14,0,8,,,,,,,,,,,,,,,,11,,80,0
3045,note_on,,1,0,8,,,,,,,,,,,,,,,,11,,81,72
3045,note_on,,1,0,7,,,,,,,,,,,,,,,,10,,81,72
3059,note_on,,14,0,8,,,,,,,,,,,,,,,,11,,81,0
3059,note_on,,14,0,7,,,,,,,,,,,,,,,,10,,81,0
3060,note_on,,1,0,8,,,,,,,,,,,,,,,,11,,80,72
3060,note_on,,1,0,7,,,,,,,,,,,,,,,,10,,80,72
3074,note_on,,14,0,8,,,,,,,,,,,,,,,,11,,80,0
3074,note_on,,14,0,7,,,,,,,,,,,,,,,,10,,80,0
3075,note_on,,1,0,8,,,,,,,,,,,,,,,,11,,81,72
3075,note_on,,1,0,7,,,,,,,,,,,,,,,,10,,81,72
3089,note_on,,14,0,8,,,,,,,,,,,,,,,,11,,81,0
3089,note_on,,14,0,7,,,,,,,,,,,,,,,,10,,81,0
3090,note_on,,1,0,8,,,,,,,,,,,,,,,,11,,80,72
3090,note_on,,1,0,7,,,,,,,,,,,,,,,,10,,80,72
3104,note_on,,14,0,7,,,,,,,,,,,,,,,,10,,80,0
3104,note_on,,14,0,8,,,,,,,,,,,,,,,,11,,80,0
3105,note_on,,1,0,8,,,,,,,,,,,,,,,,11,,81,72
3105,note_on,,1,0,7,,,,,,,,,,,,,,,,10,,81,72
3119,note_on,,14,0,8,,,,,,,,,,,,,,,,11,,81,0
3119,note_on,,14,0,7,,,,,,,,,,,,,,,,10,,81,0
3119,note_on,,119,0,10,,,,,,,,,,,,,,,,15,,52,0
3119,note_on,,119,0,5,,,,,,,,,,,,,,,,2,,52,0
3119,note_on,,0,0,10,,,,,,,,,,,,,,,,15,,59,0
3119,note_on,,119,0,9,,,,,,,,,,,,,,,,13,,52,0
3120,note_on,,1,0,10,,,,,,,,,,,,,,,,15,,40,72
3120,note_on,,0,0,10,,,,,,,,,,,,,,,,15,,52,72
3120,note_on,,1,0,8,,,,,,,,,,,,,,,,11,,80,72
3120,note_on,,1,0,7,,,,,,,,,,,,,,,,10,,80,72
3120,note_on,,0,0,10,,,,,,,,,,,,,,,,15,,64,72
3120,note_on,,1,0,5,,,,,,,,,,,,,,,,2,,40,72
3120,note_on,,1,0,9,,,,,,,,,,,,,,,,13,,40,72
3134,note_on,,14,0,8,,,,,,,,,,,,,,,,11,,80,0
3134,note_on,,14,0,7,,,,,,,,,,,,,,,,10,,80,0
3135,note_on,,1,0,7,,,,,,,,,,,,,,,,10,,81,72
3135,note_on,,1,0,8,,,,,,,,,,,,,,,,11,,81,72
3149,note_on,,14,0,7,,,,,,,,,,,,,,,,10,,81,0
3149,note_on,,14,0,8,,,,,,,,,,,,,,,,11,,81,0
3150,note_on,,1,0,7,,,,,,,,,,,,,,,,10,,78,72
3150,note_on,,1,0,8,,,,,,,,,,,,,,,,11,,78,72
3164,note_on,,14,0,7,,,,,,,,,,,,,,,,10,,78,0
3164,note_on,,14,0,8,,,,,,,,,,,,,,,,11,,78,0
3165,note_on,,1,0,7,,,,,,,,,,,,,,,,10,,80,72
3165,note_on,,1,0,8,,,,,,,,,,,,,,,,11,,80,72
3179,note_on,,14,0,8,,,,,,,,,,,,,,,,11,,80,0
3179,note_on,,14,0,7,,,,,,,,,,,,,,,,10,,80,0
3180,note_on,,1,0,7,,,,,,,,,,,,,,,,10,,81,72
3180,note_on,,1,0,8,,,,,,,,,,,,,,,,11,,81,72
3239,note_on,,0,0,10,,,,,,,,,,,,,,,,15,,40,0
3239,note_on,,0,0,10,,,,,,,,,,,,,,,,15,,64,0
3239,note_on,,0,0,10,,,,,,,,,,,,,,,,15,,52,0
3239,note_on,,59,0,7,,,,,,,,,,,,,,,,10,,81,0
3239,note_on,,119,0,5,,,,,,,,,,,,,,,,2,,40,0
3239,note_on,,59,0,8,,,,,,,,,,,,,,,,11,,81,0
3239,note_on,,119,0,10,,,,,,,,,,,,,,,,15,,71,0
3239,note_on,,0,0,10,,,,,,,,,,,,,,,,15,,68,0
3239,note_on,,119,0,9,,,,,,,,,,,,,,,,13,,40,0
3240,note_on,,0,0,10,,,,,,,,,,,,,,,,15,,69,72
3240,note_on,,1,0,5,,,,,,,,,,,,,,,,2,,45,72
3240,note_on,,1,0,8,,,,,,,,,,,,,,,,11,,81,72
3240,note_on,,1,0,9,,,,,,,,,,,,,,,,13,,45,72
3240,note_on,,1,0,7,,,,,,,,,,,,,,,,10,,81,72
3240,note_on,,0,0,10,,,,,,,,,,,,,,,,15,,64,72
3240,note_on,,0,0,10,,,,,,,,,,,,,,,,15,,60,72
3240,note_on,,0,0,10,,,,,,,,,,,,,,,,15,,52,72
3240,note_on,,1,0,10,,,,,,,,,,,,,,,,15,,45,72
3359,note_on,,119,0,7,,,,,,,,,,,,,,,,10,,81,0
3359,note_on,,119,0,9,,,,,,,,,,,,,,,,13,,45,0
3359,note_on,,0,0,10,,,,,,,,,,,,,,,,15,,69,0
3359,note_on,,119,0,8,,,,,,,,,,,,,,,,11,,81,0
3359,note_on,,0,0,10,,,,,,,,,,,,,,,,15,,52,0
3359,note_on,,0,0,10,,,,,,,,,,,,,,,,15,,60,0
3359,note_on,,119,0,5,,,,,,,,,,,,,,,,2,,45,0
3359,note_on,,119,0,10,,,,,,,,,,,,,,,,15,,45,0
3359,note_on,,0,0,10,,,,,,,,,,,,,,,,15,,64,0
3360,note_on,,1,0,8,,,,,,,,,,,,,,,,11,,69,72
3360,note_on,,1,0,7,,,,,,,,,,,,,,,,10,,69,72
3360,note_on,,3360,0,6,,,,,,,,,,,,,,,,7,,57,72
3479,note_on,,119,0,7,,,,,,,,,,,,,,,,10,,69,0
3479,note_on,,119,0,6,,,,,,,,,,,,,,,,7,,57,0
3479,note_on,,119,0,8,,,,,,,,,,,,,,,,11,,69,0
3480,note_on,,1,0,6,,,,,,,,,,,,,,,,7,,59,72
3599,note_on,,119,0,6,,,,,,,,,,,,,,,,7,,59,0
3600,note_on,,241,0,9,,,,,,,,,,,,,,,,13,,45,72
3600,note_on,,1,0,6,,,,,,,,,,,,,,,,7,,60,72
3600,note_on,,241,0,10,,,,,,,,,,,,,,,,15,,45,72
3600,note_on,,0,0,10,,,,,,,,,,,,,,,,15,,64,72
3600,note_on,,0,0,10,,,,,,,,,,,,,,,,15,,60,72
3600,note_on,,0,0,10,,,,,,,,,,,,,,,,15,,57,72
3660,note_on,,181,0,7,,,,,,,,,,,,,,,,10,,69,48
3660,note_on,,181,0,8,,,,,,,,,,,,,,,,11,,69,48
3719,note_on,,0,0,10,,,,,,,,,,,,,,,,15,,64,0
3719,note_on,,119,0,9,,,,,,,,,,,,,,,,13,,45,0
3719,note_on,,59,0,8,,,,,,,,,,,,,,,,11,,69,0
3719,note_on,,119,0,6,,,,,,,,,,,,,,,,7,,60,0
3719,note_on,,59,0,7,,,,,,,,,,,,,,,,10,,69,0
3719,note_on,,0,0,10,,,,,,,,,,,,,,,,15,,60,0
3719,note_on,,0,0,10,,,,,,,,,,,,,,,,15,,57,0
3719,note_on,,119,0,10,,,,,,,,,,,,,,,,15,,45,0
3720,note_on,,1,0,8,,,,,,,,,,,,,,,,11,,76,48
3720,note_on,,1,0,6,,,,,,,,,,,,,,,,7,,57,72
3720,note_on,,1,0,7,,,,,,,,,,,,,,,,10,,76,48
3749,note_on,,29,0,8,,,,,,,,,,,,,,,,11,,76,0
3749,note_on,,29,0,7,,,,,,,,,,,,,,,,10,,76,0
3750,note_on,,1,0,7,,,,,,,,,,,,,,,,10,,75,48
3750,note_on,,1,0,8,,,,,,,,,,,,,,,,11,,75,48
3779,note_on,,29,0,8,,,,,,,,,,,,,,,,11,,75,0
3779,note_on,,29,0,7,,,,,,,,,,,,,,,,10,,75,0
3780,note_on,,1,0,8,,,,,,,,,,,,,,,,11,,76,48
3780,note_on,,1,0,7,,,,,,,,,,,,,,,,10,,76,48
3809,note_on,,29,0,7,,,,,,,,,,,,,,,,10,,76,0
3809,note_on,,29,0,8,,,,,,,,,,,,,,,,11,,76,0
3810,note_on,,1,0,7,,,,,,,,,,,,,,,,10,,75,48
3810,note_on,,1,0,8,,,,,,,,,,,,,,,,11,,75,48
3839,note_on,,29,0,8,,,,,,,,,,,,,,,,11,,75,0
3839,note_on,,29,0,7,,,,,,,,,,,,,,,,10,,75,0
3839,note_on,,119,0,6,,,,,,,,,,,,,,,,7,,57,0
3840,note_on,,1,0,8,,,,,,,,,,,,,,,,11,,76,48
3840,note_on,,1,0,7,,,,,,,,,,,,,,,,10,,76,48
3899,note_on,,59,0,7,,,,,,,,,,,,,,,,10,,76,0
3899,note_on,,59,0,8,,,,,,,,,,,,,,,,11,,76,0
3900,note_on,,1,0,7,,,,,,,,,,,,,,,,10,,60,48
3900,note_on,,181,0,9,,,,,,,,,,,,,,,,13,,57,48
3900,note_on,,181,0,10,,,,,,,,,,,,,,,,15,,57,48
3900,note_on,,0,0,10,,,,,,,,,,,,,,,,15,,64,48
3900,note_on,,0,0,10,,,,,,,,,,,,,,,,15,,60,48
3900,note_on,,1,0,8,,,,,,,,,,,,,,,,11,,60,48
3944,note_on,,44,0,8,,,,,,,,,,,,,,,,11,,60,0
3944,note_on,,44,0,7,,,,,,,,,,,,,,,,10,,60,0
3959,note_on,,59,0,9,,,,,,,,,,,,,,,,13,,57,0
3959,note_on,,59,0,10,,,,,,,,,,,,,,,,15,,57,0
3959,note_on,,0,0,10,,,,,,,,,,,,,,,,15,,64,0
3959,note_on,,0,0,10,,,,,,,,,,,,,,,,15,,60,0
3960,note_on,,0,0,10,,,,,,,,,,,,,,,,15,,71,48
3960,note_on,,0,0,10,,,,,,,,,,,,,,,,15,,64,48
3960,note_on,,0,0,10,,,,,,,,,,,,,,,,15,,59,48
3960,note_on,,16,0,8,,,,,,,,,,,,,,,,11,,59,48
3960,note_on,,16,0,7,,,,,,,,,,,,,,,,10,,59,48
3960,note_on,,1,0,9,,,,,,,,,,,,,,,,13,,56,48
3960,note_on,,1,0,10,,,,,,,,,,,,,,,,15,,56,48
4004,note_on,,44,0,8,,,,,,,,,,,,,,,,11,,59,0
4004,note_on,,44,0,7,,,,,,,,,,,,,,,,10,,59,0
4020,note_on,,16,0,7,,,,,,,,,,,,,,,,10,,71,48
4020,note_on,,16,0,8,,,,,,,,,,,,,,,,11,,71,48
4079,note_on,,59,0,7,,,,,,,,,,,,,,,,10,,71,0
4079,note_on,,0,0,10,,,,,,,,,,,,,,,,15,,59,0
4079,note_on,,0,0,10,,,,,,,,,,,,,,,,15,,64,0
4079,note_on,,0,0,10,,,,,,,,,,,,,,,,15,,71,0
4079,note_on,,119,0,10,,,,,,,,,,,,,,,,15,,56,0
4079,note_on,,119,0,9,,,,,,,,,,,,,,,,13,,56,0
4079,note_on,,59,0,8,,,,,,,,,,,,,,,,11,,71,0
4080,note_on,,0,0,10,,,,,,,,,,,,,,,,15,,71,48
4080,note_on,,0,0,10,,,,,,,,,,,,,,,,15,,59,48
4080,note_on,,1,0,9,,,,,,,,,,,,,,,,13,,55,48
4080,note_on,,0,0,10,,,,,,,,,,,,,,,,15,,64,48
4080,note_on,,1,0,7,,,,,,,,,,,,,,,,10,,76,48
4080,note_on,,241,0,6,,,,,,,,,,,,,,,,7,,59,72
4080,note_on,,1,0,10,,,,,,,,,,,,,,,,15,,55,48
4080,note_on,,0,0,10,,,,,,,,,,,,,,,,15,,76,48
4080,note_on,,1,0,8,,,,,,,,,,,,,,,,11,,76,48
4109,note_on,,29,0,7,,,,,,,,,,,,,,,,10,,76,0
4109,note_on,,29,0,8,,,,,,,,,,,,,,,,11,,76,0
4110,note_on,,1,0,8,,,,,,,,,,,,,,,,11,,75,48
4110,note_on,,1,0,7,,,,,,,,,,,,,,,,10,,75,48
4139,note_on,,29,0,8,,,,,,,,,,,,,,,,11,,75,0
4139,note_on,,29,0,7,,,,,,,,,,,,,,,,10,,75,0
4140,note_on,,1,0,8,,,,,,,,,,,,,,,,11,,76,48
4140,note_on,,1,0,7,,,,,,,,,,,,,,,,10,,76,48
4169,note_on,,29,0,8,,,,,,,,,,,,,,,,11,,76,0
4169,note_on,,29,0,7,,,,,,,,,,,,,,,,10,,76,0
4170,note_on,,1,0,8,,,,,,,,,,,,,,,,11,,75,48
4170,note_on,,1,0,7,,,,,,,,,,,,,,,,10,,75,48
4199,note_on,,119,0,6,,,,,,,,,,,,,,,,7,,59,0
4199,note_on,,0,0,10,,,,,,,,,,,,,,,,15,,59,0
4199,note_on,,0,0,10,,,,,,,,,,,,,,,,15,,64,0
4199,note_on,,0,0,10,,,,,,,,,,,,,,,,15,,71,0
4199,note_on,,29,0,7,,,,,,,,,,,,,,,,10,,75,0
4199,note_on,,119,0,9,,,,,,,,,,,,,,,,13,,55,0
4199,note_on,,29,0,8,,,,,,,,,,,,,,,,11,,75,0
4199,note_on,,119,0,10,,,,,,,,,,,,,,,,15,,55,0
4199,note_on,,0,0,10,,,,,,,,,,,,,,,,15,,76,0
4200,note_on,,1,0,7,,,,,,,,,,,,,,,,10,,76,48
4200,note_on,,1,0,8,,,,,,,,,,,,,,,,11,,76,48
4200,note_on,,1,0,6,,,,,,,,,,,,,,,,7,,64,72
4259,note_on,,59,0,8,,,,,,,,,,,,,,,,11,,76,0
4259,note_on,,59,0,7,,,,,,,,,,,,,,,,10,,76,0
4260,note_on,,1,0,8,,,,,,,,,,,,,,,,11,,59,48
4260,note_on,,1,0,7,,,,,,,,,,,,,,,,10,,59,48
4260,note_on,,61,0,9,,,,,,,,,,,,,,,,13,,55,48
4260,note_on,,61,0,10,,,,,,,,,,,,,,,,15,,55,48
4260,note_on,,0,0,10,,,,,,,,,,,,,,,,15,,59,48
4260,note_on,,0,0,10,,,,,,,,,,,,,,,,15,,64,48
4304,note_on,,44,0,7,,,,,,,,,,,,,,,,10,,59,0
4304,note_on,,44,0,8,,,,,,,,,,,,,,,,11,,59,0
4319,note_on,,119,0,6,,,,,,,,,,,,,,,,7,,64,0
4319,note_on,,59,0,10,,,,,,,,,,,,,,,,15,,55,0
4319,note_on,,0,0,10,,,,,,,,,,,,,,,,15,,59,0
4319,note_on,,0,0,10,,,,,,,,,,,,,,,,15,,64,0
4319,note_on,,59,0,9,,,,,,,,,,,,,,,,13,,55,0
4320,note_on,,0,0,10,,,,,,,,,,,,,,,,15,,57,48
4320,note_on,,0,0,10,,,,,,,,,,,,,,,,15,,64,48
4320,note_on,,16,0,7,,,,,,,,,,,,,,,,10,,57,48
4320,note_on,,16,0,8,,,,,,,,,,,,,,,,11,,57,48
4320,note_on,,0,0,10,,,,,,,,,,,,,,,,15,,69,48
4320,note_on,,1,0,10,,,,,,,,,,,,,,,,15,,54,48
4320,note_on,,1,0,9,,,,,,,,,,,,,,,,13,,54,48
4320,note_on,,1,0,6,,,,,,,,,,,,,,,,7,,64,72
4364,note_on,,44,0,7,,,,,,,,,,,,,,,,10,,57,0
4364,note_on,,44,0,8,,,,,,,,,,,,,,,,11,,57,0
4380,note_on,,16,0,7,,,,,,,,,,,,,,,,10,,69,48
4380,note_on,,16,0,8,,,,,,,,,,,,,,,,11,,69,48
4439,note_on,,59,0,8,,,,,,,,,,,,,,,,11,,69,0
4439,note_on,,119,0,10,,,,,,,,,,,,,,,,15,,54,0
4439,note_on,,0,0,10,,,,,,,,,,,,,,,,15,,69,0
4439,note_on,,0,0,10,,,,,,,,,,,,,,,,15,,64,0
4439,note_on,,0,0,10,,,,,,,,,,,,,,,,15,,57,0
4439,note_on,,119,0,6,,,,,,,,,,,,,,,,7,,64,0
4439,note_on,,59,0,7,,,,,,,,,,,,,,,,10,,69,0
4439,note_on,,119,0,9,,,,,,,,,,,,,,,,13,,54,0
4440,note_on,,0,0,10,,,,,,,,,,,,,,,,15,,69,48
4440,note_on,,1,0,6,,,,,,,,,,,,,,,,7,,57,72
4440,note_on,,1,0,9,,,,,,,,,,,,,,,,13,,53,48
4440,note_on,,0,0,10,,,,,,,,,,,,,,,,15,,62,48
4440,note_on,,1,0,10,,,,,,,,,,,,,,,,15,,53,48
4440,note_on,,1,0,8,,,,,,,,,,,,,,,,11,,74,48
4440,note_on,,0,0,10,,,,,,,,,,,,,,,,15,,57,48
4440,note_on,,0,0,10,,,,,,,,,,,,,,,,15,,74,48
4440,note_on,,1,0,7,,,,,,,,,,,,,,,,10,,74,48
4469,note_on,,29,0,7,,,,,,,,,,,,,,,,10,,74,0
4469,note_on,,29,0,8,,,,,,,,,,,,,,,,11,,74,0
4470,note_on,,1,0,8,,,,,,,,,,,,,,,,11,,73,48
4470,note_on,,1,0,7,,,,,,,,,,,,,,,,10,,73,48
4499,note_on,,29,0,8,,,,,,,,,,,,,,,,11,,73,0
4499,note_on,,29,0,7,,,,,,,,,,,,,,,,10,,73,0
4500,note_on,,1,0,7,,,,,,,,,,,,,,,,10,,74,48
4500,note_on,,1,0,8,,,,,,,,,,,,,,,,11,,74,48
4529,note_on,,29,0,8,,,,,,,,,,,,,,,,11,,74,0
4529,note_on,,29,0,7,,,,,,,,,,,,,,,,10,,74,0
4530,note_on,,1,0,7,,,,,,,,,,,,,,,,10,,73,48
4530,note_on,,1,0,8,,,,,,,,,,,,,,,,11,,73,48
4559,note_on,,0,0,10,,,,,,,,,,,,,,,,15,,57,0
4559,note_on,,29,0,7,,,,,,,,,,,,,,,,10,,73,0
4559,note_on,,119,0,9,,,,,,,,,,,,,,,,13,,53,0
4559,note_on,,29,0,8,,,,,,,,,,,,,,,,11,,73,0
4559,note_on,,119,0,10,,,,,,,,,,,,,,,,15,,53,0
4559,note_on,,0,0,10,,,,,,,,,,,,,,,,15,,74,0
4559,note_on,,119,0,6,,,,,,,,,,,,,,,,7,,57,0
4559,note_on,,0,0,10,,,,,,,,,,,,,,,,15,,62,0
4559,note_on,,0,0,10,,,,,,,,,,,,,,,,15,,69,0
4560,note_on,,1,0,8,,,,,,,,,,,,,,,,11,,74,48
4560,note_on,,1,0,7,,,,,,,,,,,,,,,,10,,74,48
4560,note_on,,1,0,6,,,,,,,,,,,,,,,,7,,62,72
4619,note_on,,59,0,6,,,,,,,,,,,,,,,,7,,62,0
4619,note_on,,59,0,8,,,,,,,,,,,,,,,,11,,74,0
4619,note_on,,59,0,7,,,,,,,,,,,,,,,,10,,74,0
4620,note_on,,1,0,8,,,,,,,,,,,,,,,,11,,57,48
4620,note_on,,1,0,7,,,,,,,,,,,,,,,,10,,57,48
4620,note_on,,1,0,6,,,,,,,,,,,,,,,,7,,62,72
4620,note_on,,0,0,10,,,,,,,,,,,,,,,,15,,62,48
4620,note_on,,0,0,10,,,,,,,,,,,,,,,,15,,69,48
4620,note_on,,61,0,10,,,,,,,,,,,,,,,,15,,53,48
4620,note_on,,61,0,9,,,,,,,,,,,,,,,,13,,53,48
4620,note_on,,0,0,10,,,,,,,,,,,,,,,,15,,57,48
4664,note_on,,44,0,7,,,,,,,,,,,,,,,,10,,57,0
4664,note_on,,44,0,8,,,,,,,,,,,,,,,,11,,57,0
4679,note_on,,59,0,9,,,,,,,,,,,,,,,,13,,53,0
4679,note_on,,59,0,6,,,,,,,,,,,,,,,,7,,62,0
4679,note_on,,0,0,10,,,,,,,,,,,,,,,,15,,62,0
4679,note_on,,0,0,10,,,,,,,,,,,,,,,,15,,57,0
4679,note_on,,59,0,10,,,,,,,,,,,,,,,,15,,53,0
4679,note_on,,0,0,10,,,,,,,,,,,,,,,,15,,69,0
4680,note_on,,1,0,6,,,,,,,,,,,,,,,,7,,62,72
4680,note_on,,1,0,10,,,,,,,,,,,,,,,,15,,52,48
4680,note_on,,0,0,10,,,,,,,,,,,,,,,,15,,76,48
4680,note_on,,0,0,10,,,,,,,,,,,,,,,,15,,68,48
4680,note_on,,0,0,10,,,,,,,,,,,,,,,,15,,64,48
4680,note_on,,0,0,10,,,,,,,,,,,,,,,,15,,59,48
4680,note_on,,1,0,9,,,,,,,,,,,,,,,,13,,52,48
4680,note_on,,16,0,8,,,,,,,,,,,,,,,,11,,56,48
4680,note_on,,16,0,7,,,,,,,,,,,,,,,,10,,56,48
4739,note_on,,59,0,6,,,,,,,,,,,,,,,,7,,62,0
4740,note_on,,1,0,6,,,,,,,,,,,,,,,,7,,64,72
4769,note_on,,29,0,6,,,,,,,,,,,,,,,,7,,64,0
4770,note_on,,1,0,6,,,,,,,,,,,,,,,,7,,65,72
4799,note_on,,29,0,6,,,,,,,,,,,,,,,,7,,65,0
4799,note_on,,119,0,9,,,,,,,,,,,,,,,,13,,52,0
4799,note_on,,119,0,7,,,,,,,,,,,,,,,,10,,56,0
4799,note_on,,119,0,8,,,,,,,,,,,,,,,,11,,56,0
4799,note_on,,0,0,10,,,,,,,,,,,,,,,,15,,59,0
4799,note_on,,119,0,10,,,,,,,,,,,,,,,,15,,52,0
4799,note_on,,0,0,10,,,,,,,,,,,,,,,,15,,76,0
4799,note_on,,0,0,10,,,,,,,,,,,,,,,,15,,68,0
4799,note_on,,0,0,10,,,,,,,,,,,,,,,,15,,64,0
4800,note_on,,1,0,6,,,,,,,,,,,,,,,,7,,64,72
4859,note_on,,59,0,6,,,,,,,,,,,,,,,,7,,64,0
4860,note_on,,1,0,6,,,,,,,,,,,,,,,,7,,62,72
4919,note_on,,59,0,6,,,,,,,,,,,,,,,,7,,62,0
4920,note_on,,1,0,6,,,,,,,,,,,,,,,,7,,60,72
4979,note_on,,59,0,6,,,,,,,,,,,,,,,,7,,60,0
4980,note_on,,1,0,6,,,,,,,,,,,,,,,,7,,59,72
4980,note_on,,181,0,10,,,,,,,,,,,,,,,,15,,44,48
4980,note_on,,181,0,9,,,,,,,,,,,,,,,,13,,44,48
4980,note_on,,0,0,10,,,,,,,,,,,,,,,,15,,64,48
4980,note_on,,0,0,10,,,,,,,,,,,,,,,,15,,52,48
4980,note_on,,0,0,10,,,,,,,,,,,,,,,,15,,71,48
5039,note_on,,0,0,10,,,,,,,,,,,,,,,,15,,64,0
5039,note_on,,0,0,10,,,,,,,,,,,,,,,,15,,52,0
5039,note_on,,59,0,6,,,,,,,,,,,,,,,,7,,59,0
5039,note_on,,59,0,9,,,,,,,,,,,,,,,,13,,44,0
5039,note_on,,59,0,10,,,,,,,,,,,,,,,,15,,44,0
5039,note_on,,0,0,10,,,,,,,,,,,,,,,,15,,71,0
5040,note_on,,1,0,6,,,,,,,,,,,,,,,,7,,60,72
5040,note_on,,1,0,10,,,,,,,,,,,,,,,,15,,45,48
5040,note_on,,0,0,10,,,,,,,,,,,,,,,,15,,64,48
5040,note_on,,0,0,10,,,,,,,,,,,,,,,,15,,60,48
5040,note_on,,0,0,10,,,,,,,,,,,,,,,,15,,57,48
5040,note_on,,1,0,9,,,,,,,,,,,,,,,,13,,45,48
5100,note_on,,301,0,8,,,,,,,,,,,,,,,,11,,76,72
5100,note_on,,301,0,7,,,,,,,,,,,,,,,,10,,76,72
5159,note_on,,59,0,7,,,,,,,,,,,,,,,,10,,76,0
5159,note_on,,119,0,10,,,,,,,,,,,,,,,,15,,45,0
5159,note_on,,0,0,10,,,,,,,,,,,,,,,,15,,60,0
5159,note_on,,59,0,8,,,,,,,,,,,,,,,,11,,76,0
5159,note_on,,119,0,6,,,,,,,,,,,,,,,,7,,60,0
5159,note_on,,0,0,10,,,,,,,,,,,,,,,,15,,57,0
5159,note_on,,119,0,9,,,,,,,,,,,,,,,,13,,45,0
5159,note_on,,0,0,10,,,,,,,,,,,,,,,,15,,64,0
5160,note_on,,1,0,8,,,,,,,,,,,,,,,,11,,81,72
5160,note_on,,1,0,6,,,,,,,,,,,,,,,,7,,57,72
5160,note_on,,1,0,7,,,,,,,,,,,,,,,,10,,81,72
5189,note_on,,29,0,7,,,,,,,,,,,,,,,,10,,81,0
5189,note_on,,29,0,8,,,,,,,,,,,,,,,,11,,81,0
5190,note_on,,1,0,7,,,,,,,,,,,,,,,,10,,80,72
5190,note_on,,1,0,8,,,,,,,,,,,,,,,,11,,80,72
5219,note_on,,29,0,7,,,,,,,,,,,,,,,,10,,80,0
5219,note_on,,29,0,8,,,,,,,,,,,,,,,,11,,80,0
5220,note_on,,1,0,7,,,,,,,,,,,,,,,,10,,81,72
5220,note_on,,1,0,8,,,,,,,,,,,,,,,,11,,81,72
5249,note_on,,29,0,7,,,,,,,,,,,,,,,,10,,81,0
5249,note_on,,29,0,8,,,,,,,,,,,,,,,,11,,81,0
5250,note_on,,1,0,7,,,,,,,,,,,,,,,,10,,80,72
5250,note_on,,1,0,8,,,,,,,,,,,,,,,,11,,80,72
5279,note_on,,29,0,8,,,,,,,,,,,,,,,,11,,80,0
5279,note_on,,119,0,6,,,,,,,,,,,,,,,,7,,57,0
5279,note_on,,29,0,7,,,,,,,,,,,,,,,,10,,80,0
5280,note_on,,1,0,8,,,,,,,,,,,,,,,,11,,81,72
5280,note_on,,1,0,7,,,,,,,,,,,,,,,,10,,81,72
5339,note_on,,59,0,8,,,,,,,,,,,,,,,,11,,81,0
5339,note_on,,59,0,7,,,,,,,,,,,,,,,,10,,81,0
5340,note_on,,0,0,10,,,,,,,,,,,,,,,,15,,69,72
5340,note_on,,1,0,8,,,,,,,,,,,,,,,,11,,60,72
5340,note_on,,1,0,7,,,,,,,,,,,,,,,,10,,60,72
5340,note_on,,0,0,10,,,,,,,,,,,,,,,,15,,60,72
5340,note_on,,181,0,10,,,,,,,,,,,,,,,,15,,57,72
5340,note_on,,1981,0,5,,,,,,,,,,,,,,,,2,,57,72
5340,note_on,,0,0,10,,,,,,,,,,,,,,,,15,,64,72
5340,note_on,,181,0,9,,,,,,,,,,,,,,,,13,,57,72
5384,note_on,,44,0,8,,,,,,,,,,,,,,,,11,,60,0
5384,note_on,,44,0,7,,,,,,,,,,,,,,,,10,,60,0
5399,note_on,,59,0,10,,,,,,,,,,,,,,,,15,,57,0
5399,note_on,,0,0,10,,,,,,,,,,,,,,,,15,,69,0
5399,note_on,,59,0,5,,,,,,,,,,,,,,,,2,,57,0
5399,note_on,,0,0,10,,,,,,,,,,,,,,,,15,,64,0
5399,note_on,,59,0,9,,,,,,,,,,,,,,,,13,,57,0
5399,note_on,,0,0,10,,,,,,,,,,,,,,,,15,,60,0
5400,note_on,,16,0,8,,,,,,,,,,,,,,,,11,,59,72
5400,note_on,,16,0,7,,,,,,,,,,,,,,,,10,,59,72
5400,note_on,,1,0,9,,,,,,,,,,,,,,,,13,,55,72
5400,note_on,,1,0,10,,,,,,,,,,,,,,,,15,,55,72
5400,note_on,,0,0,10,,,,,,,,,,,,,,,,15,,76,72
5400,note_on,,0,0,10,,,,,,,,,,,,,,,,15,,71,72
5400,note_on,,0,0,10,,,,,,,,,,,,,,,,15,,64,72
5400,note_on,,0,0,10,,,,,,,,,,,,,,,,15,,59,72
5400,note_on,,1,0,5,,,,,,,,,,,,,,,,2,,55,72
5444,note_on,,44,0,7,,,,,,,,,,,,,,,,10,,59,0
5444,note_on,,44,0,8,,,,,,,,,,,,,,,,11,,59,0
5460,note_on,,16,0,7,,,,,,,,,,,,,,,,10,,76,72
5460,note_on,,16,0,8,,,,,,,,,,,,,,,,11,,76,72
5519,note_on,,0,0,10,,,,,,,,,,,,,,,,15,,76,0
5519,note_on,,59,0,7,,,,,,,,,,,,,,,,10,,76,0
5519,note_on,,59,0,8,,,,,,,,,,,,,,,,11,,76,0
5519,note_on,,0,0,10,,,,,,,,,,,,,,,,15,,59,0
5519,note_on,,0,0,10,,,,,,,,,,,,,,,,15,,64,0
5519,note_on,,0,0,10,,,,,,,,,,,,,,,,15,,71,0
5519,note_on,,119,0,10,,,,,,,,,,,,,,,,15,,55,0
5519,note_on,,119,0,9,,,,,,,,,,,,,,,,13,,55,0
5519,note_on,,119,0,5,,,,,,,,,,,,,,,,2,,55,0
5520,note_on,,1,0,7,,,,,,,,,,,,,,,,10,,81,72
5520,note_on,,1,0,8,,,,,,,,,,,,,,,,11,,81,72
5549,note_on,,29,0,7,,,,,,,,,,,,,,,,10,,81,0
5549,note_on,,29,0,8,,,,,,,,,,,,,,,,11,,81,0
5550,note_on,,1,0,7,,,,,,,,,,,,,,,,10,,80,72
5550,note_on,,1,0,8,,,,,,,,,,,,,,,,11,,80,72
5579,note_on,,29,0,8,,,,,,,,,,,,,,,,11,,80,0
5579,note_on,,29,0,7,,,,,,,,,,,,,,,,10,,80,0
5580,note_on,,1,0,8,,,,,,,,,,,,,,,,11,,81,72
5580,note_on,,1,0,7,,,,,,,,,,,,,,,,10,,81,72
5609,note_on,,29,0,8,,,,,,,,,,,,,,,,11,,81,0
5609,note_on,,29,0,7,,,,,,,,,,,,,,,,10,,81,0
5610,note_on,,1,0,7,,,,,,,,,,,,,,,,10,,80,72
5610,note_on,,1,0,8,,,,,,,,,,,,,,,,11,,80,72
5639,note_on,,29,0,7,,,,,,,,,,,,,,,,10,,80,0
5639,note_on,,29,0,8,,,,,,,,,,,,,,,,11,,80,0
5640,note_on,,1,0,7,,,,,,,,,,,,,,,,10,,81,72
5640,note_on,,1,0,8,,,,,,,,,,,,,,,,11,,81,72
5699,note_on,,59,0,7,,,,,,,,,,,,,,,,10,,81,0
5699,note_on,,59,0,8,,,,,,,,,,,,,,,,11,,81,0
5700,note_on,,1,0,7,,,,,,,,,,,,,,,,10,,62,72
5700,note_on,,181,0,9,,,,,,,,,,,,,,,,13,,53,72
5700,note_on,,181,0,5,,,,,,,,,,,,,,,,2,,53,72
5700,note_on,,181,0,10,,,,,,,,,,,,,,,,15,,53,72
5700,note_on,,0,0,10,,,,,,,,,,,,,,,,15,,65,72
5700,note_on,,0,0,10,,,,,,,,,,,,,,,,15,,62,72
5700,note_on,,0,0,10,,,,,,,,,,,,,,,,15,,57,72
5700,note_on,,1,0,8,,,,,,,,,,,,,,,,11,,62,72
5744,note_on,,44,0,7,,,,,,,,,,,,,,,,10,,62,0
5744,note_on,,44,0,8,,,,,,,,,,,,,,,,11,,62,0
5759,note_on,,0,0,10,,,,,,,,,,,,,,,,15,,57,0
5759,note_on,,59,0,10,,,,,,,,,,,,,,,,15,,53,0
5759,note_on,,0,0,10,,,,,,,,,,,,,,,,15,,65,0
5759,note_on,,59,0,5,,,,,,,,,,,,,,,,2,,53,0
5759,note_on,,59,0,9,,,,,,,,,,,,,,,,13,,53,0
5759,note_on,,0,0,10,,,,,,,,,,,,,,,,15,,62,0
5760,note_on,,16,0,8,,,,,,,,,,,,,,,,11,,60,72
5760,note_on,,1,0,5,,,,,,,,,,,,,,,,2,,52,72
5760,note_on,,1,0,9,,,,,,,,,,,,,,,,13,,52,72
5760,note_on,,16,0,7,,,,,,,,,,,,,,,,10,,60,72
5760,note_on,,0,0,10,,,,,,,,,,,,,,,,15,,55,72
5760,note_on,,0,0,10,,,,,,,,,,,,,,,,15,,64,72
5760,note_on,,0,0,10,,,,,,,,,,,,,,,,15,,67,72
5760,note_on,,0,0,10,,,,,,,,,,,,,,,,15,,72,72
5760,note_on,,1,0,10,,,,,,,,,,,,,,,,15,,52,72
5879,note_on,,0,0,10,,,,,,,,,,,,,,,,15,,67,0
5879,note_on,,119,0,10,,,,,,,,,,,,,,,,15,,52,0
5879,note_on,,0,0,10,,,,,,,,,,,,,,,,15,,55,0
5879,note_on,,119,0,7,,,,,,,,,,,,,,,,10,,60,0
5879,note_on,,119,0,8,,,,,,,,,,,,,,,,11,,60,0
5879,note_on,,0,0,10,,,,,,,,,,,,,,,,15,,72,0
5879,note_on,,0,0,10,,,,,,,,,,,,,,,,15,,64,0
5879,note_on,,119,0,9,,,,,,,,,,,,,,,,13,,52,0
5879,note_on,,119,0,5,,,,,,,,,,,,,,,,2,,52,0
5880,note_on,,601,0,6,,,,,,,,,,,,,,,,7,,60,72
5999,note_on,,119,0,6,,,,,,,,,,,,,,,,7,,60,0
6000,note_on,,0,0,10,,,,,,,,,,,,,,,,15,,62,48
6000,note_on,,0,0,10,,,,,,,,,,,,,,,,15,,71,48
6000,note_on,,0,0,10,,,,,,,,,,,,,,,,15,,74,48
6000,note_on,,121,0,9,,,,,,,,,,,,,,,,13,,50,48
6000,note_on,,1,0,6,,,,,,,,,,,,,,,,7,,65,72
6000,note_on,,121,0,10,,,,,,,,,,,,,,,,15,,50,48
6000,note_on,,0,0,10,,,,,,,,,,,,,,,,15,,65,48
6119,note_on,,119,0,10,,,,,,,,,,,,,,,,15,,50,0
6119,note_on,,0,0,10,,,,,,,,,,,,,,,,15,,74,0
6119,note_on,,0,0,10,,,,,,,,,,,,,,,,15,,71,0
6119,note_on,,0,0,10,,,,,,,,,,,,,,,,15,,65,0
6119,note_on,,0,0,10,,,,,,,,,,,,,,,,15,,62,0
6119,note_on,,119,0,6,,,,,,,,,,,,,,,,7,,65,0
6119,note_on,,119,0,9,,,,,,,,,,,,,,,,13,,50,0
6120,note_on,,0,0,10,,,,,,,,,,,,,,,,15,,76,48
6120,note_on,,0,0,10,,,,,,,,,,,,,,,,15,,72,48
6120,note_on,,1,0,10,,,,,,,,,,,,,,,,15,,48,48
6120,note_on,,0,0,10,,,,,,,,,,,,,,,,15,,55,48
6120,note_on,,1,0,9,,,,,,,,,,,,,,,,13,,48,48
6120,note_on,,1,0,6,,,,,,,,,,,,,,,,7,,64,72
6120,note_on,,0,0,10,,,,,,,,,,,,,,,,15,,67,48
6180,note_on,,301,0,7,,,,,,,,,,,,,,,,10,,72,48
6180,note_on,,301,0,8,,,,,,,,,,,,,,,,11,,72,48
6239,note_on,,119,0,6,,,,,,,,,,,,,,,,7,,64,0
6239,note_on,,59,0,8,,,,,,,,,,,,,,,,11,,72,0
6239,note_on,,119,0,9,,,,,,,,,,,,,,,,13,,48,0
6239,note_on,,59,0,7,,,,,,,,,,,,,,,,10,,72,0
6239,note_on,,119,0,10,,,,,,,,,,,,,,,,15,,48,0
6239,note_on,,0,0,10,,,,,,,,,,,,,,,,15,,55,0
6239,note_on,,0,0,10,,,,,,,,,,,,,,,,15,,67,0
6239,note_on,,0,0,10,,,,,,,,,,,,,,,,15,,72,0
6239,note_on,,0,0,10,,,,,,,,,,,,,,,,15,,76,0
6240,note_on,,1,0,7,,,,,,,,,,,,,,,,10,,79,48
6240,note_on,,1,0,6,,,,,,,,,,,,,,,,7,,60,72
6240,note_on,,1,0,8,,,,,,,,,,,,,,,,11,,79,48
6269,note_on,,29,0,8,,,,,,,,,,,,,,,,11,,79,0
6269,note_on,,29,0,7,,,,,,,,,,,,,,,,10,,79,0
6270,note_on,,1,0,7,,,,,,,,,,,,,,,,10,,78,48
6270,note_on,,1,0,8,,,,,,,,,,,,,,,,11,,78,48
6299,note_on,,29,0,7,,,,,,,,,,,,,,,,10,,78,0
6299,note_on,,29,0,8,,,,,,,,,,,,,,,,11,,78,0
6300,note_on,,1,0,8,,,,,,,,,,,,,,,,11,,79,48
6300,note_on,,1,0,7,,,,,,,,,,,,,,,,10,,79,48
6329,note_on,,29,0,8,,,,,,,,,,,,,,,,11,,79,0
6329,note_on,,29,0,7,,,,,,,,,,,,,,,,10,,79,0
6330,note_on,,1,0,7,,,,,,,,,,,,,,,,10,,78,48
6330,note_on,,1,0,8,,,,,,,,,,,,,,,,11,,78,48
6359,note_on,,29,0,8,,,,,,,,,,,,,,,,11,,78,0
6359,note_on,,119,0,6,,,,,,,,,,,,,,,,7,,60,0
6359,note_on,,29,0,7,,,,,,,,,,,,,,,,10,,78,0
6360,note_on,,1,0,8,,,,,,,,,,,,,,,,11,,79,48
6360,note_on,,1,0,7,,,,,,,,,,,,,,,,10,,79,48
6419,note_on,,59,0,8,,,,,,,,,,,,,,,,11,,79,0
6419,note_on,,59,0,7,,,,,,,,,,,,,,,,10,,79,0
6420,note_on,,1,0,7,,,,,,,,,,,,,,,,10,,60,48
6420,note_on,,61,0,6,,,,,,,,,,,,,,,,7,,64,72
6420,note_on,,1,0,8,,,,,,,,,,,,,,,,11,,60,48
6420,note_on,,0,0,10,,,,,,,,,,,,,,,,15,,55,48
6420,note_on,,0,0,10,,,,,,,,,,,,,,,,15,,64,48
6420,note_on,,181,0,10,,,,,,,,,,,,,,,,15,,48,48
6420,note_on,,181,0,9,,,,,,,,,,,,,,,,13,,48,48
6420,note_on,,0,0,10,,,,,,,,,,,,,,,,15,,60,48
6464,note_on,,44,0,7,,,,,,,,,,,,,,,,10,,60,0
6464,note_on,,44,0,8,,,,,,,,,,,,,,,,11,,60,0
6479,note_on,,0,0,10,,,,,,,,,,,,,,,,15,,64,0
6479,note_on,,59,0,9,,,,,,,,,,,,,,,,13,,48,0
6479,note_on,,59,0,10,,,,,,,,,,,,,,,,15,,48,0
6479,note_on,,0,0,10,,,,,,,,,,,,,,,,15,,55,0
6479,note_on,,59,0,6,,,,,,,,,,,,,,,,7,,64,0
6479,note_on,,0,0,10,,,,,,,,,,,,,,,,15,,60,0
6480,note_on,,0,0,10,,,,,,,,,,,,,,,,15,,50,48
6480,note_on,,1,0,6,,,,,,,,,,,,,,,,7,,62,72
6480,note_on,,1,0,10,,,,,,,,,,,,,,,,15,,47,48
6480,note_on,,16,0,7,,,,,,,,,,,,,,,,10,,59,48
6480,note_on,,0,0,10,,,,,,,,,,,,,,,,15,,62,48
6480,note_on,,16,0,8,,,,,,,,,,,,,,,,11,,59,48
6480,note_on,,0,0,10,,,,,,,,,,,,,,,,15,,55,48
6480,note_on,,1,0,9,,,,,,,,,,,,,,,,13,,47,48
6524,note_on,,44,0,7,,,,,,,,,,,,,,,,10,,59,0
6524,note_on,,44,0,8,,,,,,,,,,,,,,,,11,,59,0
6540,note_on,,16,0,8,,,,,,,,,,,,,,,,11,,74,48
6540,note_on,,16,0,7,,,,,,,,,,,,,,,,10,,74,48
6599,note_on,,0,0,10,,,,,,,,,,,,,,,,15,,62,0
6599,note_on,,119,0,9,,,,,,,,,,,,,,,,13,,47,0
6599,note_on,,119,0,6,,,,,,,,,,,,,,,,7,,62,0
6599,note_on,,0,0,10,,,,,,,,,,,,,,,,15,,50,0
6599,note_on,,59,0,7,,,,,,,,,,,,,,,,10,,74,0
6599,note_on,,119,0,10,,,,,,,,,,,,,,,,15,,47,0
6599,note_on,,59,0,8,,,,,,,,,,,,,,,,11,,74,0
6599,note_on,,0,0,10,,,,,,,,,,,,,,,,15,,55,0
6600,note_on,,1,0,9,,,,,,,,,,,,,,,,13,,46,48
6600,note_on,,1,0,7,,,,,,,,,,,,,,,,10,,79,48
6600,note_on,,1,0,10,,,,,,,,,,,,,,,,15,,46,48
6600,note_on,,1,0,8,,,,,,,,,,,,,,,,11,,79,48
6600,note_on,,1,0,6,,,,,,,,,,,,,,,,7,,55,72
6600,note_on,,0,0,10,,,,,,,,,,,,,,,,15,,67,48
6600,note_on,,0,0,10,,,,,,,,,,,,,,,,15,,62,48
6600,note_on,,0,0,10,,,,,,,,,,,,,,,,15,,55,48
6600,note_on,,0,0,10,,,,,,,,,,,,,,,,15,,50,48
6629,note_on,,29,0,7,,,,,,,,,,,,,,,,10,,79,0
6629,note_on,,29,0,8,,,,,,,,,,,,,,,,11,,79,0
6630,note_on,,1,0,7,,,,,,,,,,,,,,,,10,,78,48
6630,note_on,,1,0,8,,,,,,,,,,,,,,,,11,,78,48
6659,note_on,,29,0,8,,,,,,,,,,,,,,,,11,,78,0
6659,note_on,,29,0,7,,,,,,,,,,,,,,,,10,,78,0
6660,note_on,,1,0,7,,,,,,,,,,,,,,,,10,,79,48
6660,note_on,,1,0,8,,,,,,,,,,,,,,,,11,,79,48
6689,note_on,,29,0,7,,,,,,,,,,,,,,,,10,,79,0
6689,note_on,,29,0,8,,,,,,,,,,,,,,,,11,,79,0
6690,note_on,,1,0,8,,,,,,,,,,,,,,,,11,,78,48
6690,note_on,,1,0,7,,,,,,,,,,,,,,,,10,,78,48
6719,note_on,,0,0,10,,,,,,,,,,,,,,,,15,,50,0
6719,note_on,,0,0,10,,,,,,,,,,,,,,,,15,,55,0
6719,note_on,,0,0,10,,,,,,,,,,,,,,,,15,,62,0
6719,note_on,,0,0,10,,,,,,,,,,,,,,,,15,,67,0
6719,note_on,,29,0,8,,,,,,,,,,,,,,,,11,,78,0
6719,note_on,,119,0,10,,,,,,,,,,,,,,,,15,,46,0
6719,note_on,,119,0,9,,,,,,,,,,,,,,,,13,,46,0
6719,note_on,,29,0,7,,,,,,,,,,,,,,,,10,,78,0
6719,note_on,,119,0,6,,,,,,,,,,,,,,,,7,,55,0
6720,note_on,,1,0,6,,,,,,,,,,,,,,,,7,,55,72
6720,note_on,,1,0,7,,,,,,,,,,,,,,,,10,,79,48
6720,note_on,,1,0,8,,,,,,,,,,,,,,,,11,,79,48
6779,note_on,,59,0,7,,,,,,,,,,,,,,,,10,,79,0
6779,note_on,,59,0,8,,,,,,,,,,,,,,,,11,,79,0
6779,note_on,,59,0,6,,,,,,,,,,,,,,,,7,,55,0
6780,note_on,,1,0,7,,,,,,,,,,,,,,,,10,,58,48
6780,note_on,,61,0,9,,,,,,,,,,,,,,,,13,,46,48
6780,note_on,,61,0,10,,,,,,,,,,,,,,,,15,,46,48
6780,note_on,,1,0,6,,,,,,,,,,,,,,,,7,,55,72
6780,note_on,,0,0,10,,,,,,,,,,,,,,,,15,,55,48
6780,note_on,,0,0,10,,,,,,,,,,,,,,,,15,,50,48
6780,note_on,,0,0,10,,,,,,,,,,,,,,,,15,,67,48
6780,note_on,,1,0,8,,,,,,,,,,,,,,,,11,,58,48
6780,note_on,,0,0,10,,,,,,,,,,,,,,,,15,,62,48
6824,note_on,,44,0,7,,,,,,,,,,,,,,,,10,,58,0
6824,note_on,,44,0,8,,,,,,,,,,,,,,,,11,,58,0
6839,note_on,,59,0,10,,,,,,,,,,,,,,,,15,,46,0
6839,note_on,,59,0,9,,,,,,,,,,,,,,,,13,,46,0
6839,note_on,,0,0,10,,,,,,,,,,,,,,,,15,,55,0
6839,note_on,,0,0,10,,,,,,,,,,,,,,,,15,,62,0
6839,note_on,,59,0,6,,,,,,,,,,,,,,,,7,,55,0
6839,note_on,,0,0,10,,,,,,,,,,,,,,,,15,,50,0
6839,note_on,,0,0,10,,,,,,,,,,,,,,,,15,,67,0
6840,note_on,,0,0,10,,,,,,,,,,,,,,,,15,,48,48
6840,note_on,,1,0,6,,,,,,,,,,,,,,,,7,,60,72
6840,note_on,,1,0,10,,,,,,,,,,,,,,,,15,,45,48
6840,note_on,,16,0,7,,,,,,,,,,,,,,,,10,,57,48
6840,note_on,,0,0,10,,,,,,,,,,,,,,,,15,,67,48
6840,note_on,,0,0,10,,,,,,,,,,,,,,,,15,,64,48
6840,note_on,,16,0,8,,,,,,,,,,,,,,,,11,,57,48
6840,note_on,,0,0,10,,,,,,,,,,,,,,,,15,,60,48
6840,note_on,,1,0,9,,,,,,,,,,,,,,,,13,,45,48
6884,note_on,,44,0,7,,,,,,,,,,,,,,,,10,,57,0
6884,note_on,,44,0,8,,,,,,,,,,,,,,,,11,,57,0
6899,note_on,,59,0,6,,,,,,,,,,,,,,,,7,,60,0
6900,note_on,,1,0,6,,,,,,,,,,,,,,,,7,,59,72
6900,note_on,,16,0,7,,,,,,,,,,,,,,,,10,,67,48
6900,note_on,,16,0,8,,,,,,,,,,,,,,,,11,,67,48
6959,note_on,,119,0,9,,,,,,,,,,,,,,,,13,,45,0
6959,note_on,,59,0,8,,,,,,,,,,,,,,,,11,,67,0
6959,note_on,,59,0,6,,,,,,,,,,,,,,,,7,,59,0
6959,note_on,,0,0,10,,,,,,,,,,,,,,,,15,,60,0
6959,note_on,,0,0,10,,,,,,,,,,,,,,,,15,,64,0
6959,note_on,,0,0,10,,,,,,,,,,,,,,,,15,,67,0
6959,note_on,,0,0,10,,,,,,,,,,,,,,,,15,,48,0
6959,note_on,,119,0,10,,,,,,,,,,,,,,,,15,,45,0
6959,note_on,,59,0,7,,,,,,,,,,,,,,,,10,,67,0
6960,note_on,,1,0,7,,,,,,,,,,,,,,,,10,,72,48
6960,note_on,,1,0,8,,,,,,,,,,,,,,,,11,,72,48
6960,note_on,,1,0,6,,,,,,,,,,,,,,,,7,,60,72
6989,note_on,,29,0,7,,,,,,,,,,,,,,,,10,,72,0
6989,note_on,,29,0,8,,,,,,,,,,,,,,,,11,,72,0
6990,note_on,,1,0,7,,,,,,,,,,,,,,,,10,,71,48
6990,note_on,,1,0,8,,,,,,,,,,,,,,,,11,,71,48
7019,note_on,,59,0,6,,,,,,,,,,,,,,,,7,,60,0
7019,note_on,,29,0,8,,,,,,,,,,,,,,,,11,,71,0
7019,note_on,,29,0,7,,,,,,,,,,,,,,,,10,,71,0
7020,note_on,,1,0,6,,,,,,,,,,,,,,,,7,,62,72
7020,note_on,,1,0,7,,,,,,,,,,,,,,,,10,,72,48
7020,note_on,,1,0,8,,,,,,,,,,,,,,,,11,,72,48
7049,note_on,,29,0,7,,,,,,,,,,,,,,,,10,,72,0
7049,note_on,,29,0,8,,,,,,,,,,,,,,,,11,,72,0
7050,note_on,,1,0,7,,,,,,,,,,,,,,,,10,,71,48
7050,note_on,,1,0,8,,,,,,,,,,,,,,,,11,,71,48
7079,note_on,,29,0,7,,,,,,,,,,,,,,,,10,,71,0
7079,note_on,,59,0,6,,,,,,,,,,,,,,,,7,,62,0
7079,note_on,,29,0,8,,,,,,,,,,,,,,,,11,,71,0
7080,note_on,,1,0,7,,,,,,,,,,,,,,,,10,,72,48
7080,note_on,,1,0,8,,,,,,,,,,,,,,,,11,,72,48
7080,note_on,,1,0,6,,,,,,,,,,,,,,,,7,,64,72
7139,note_on,,59,0,6,,,,,,,,,,,,,,,,7,,64,0
7139,note_on,,59,0,8,,,,,,,,,,,,,,,,11,,72,0
7139,note_on,,59,0,7,,,,,,,,,,,,,,,,10,,72,0
7140,note_on,,1,0,6,,,,,,,,,,,,,,,,7,,66,72
7140,note_on,,1,0,7,,,,,,,,,,,,,,,,10,,57,48
7140,note_on,,181,0,9,,,,,,,,,,,,,,,,13,,45,48
7140,note_on,,1,0,8,,,,,,,,,,,,,,,,11,,57,48
7140,note_on,,181,0,10,,,,,,,,,,,,,,,,15,,45,48
7140,note_on,,0,0,10,,,,,,,,,,,,,,,,15,,69,48
7140,note_on,,0,0,10,,,,,,,,,,,,,,,,15,,66,48
7140,note_on,,0,0,10,,,,,,,,,,,,,,,,15,,60,48
7140,note_on,,0,0,10,,,,,,,,,,,,,,,,15,,48,48
7199,note_on,,0,0,10,,,,,,,,,,,,,,,,15,,48,0
7199,note_on,,0,0,10,,,,,,,,,,,,,,,,15,,60,0
7199,note_on,,59,0,6,,,,,,,,,,,,,,,,7,,66,0
7199,note_on,,59,0,9,,,,,,,,,,,,,,,,13,,45,0
7199,note_on,,59,0,10,,,,,,,,,,,,,,,,15,,45,0
7199,note_on,,59,0,7,,,,,,,,,,,,,,,,10,,57,0
7199,note_on,,59,0,8,,,,,,,,,,,,,,,,11,,57,0
7199,note_on,,0,0,10,,,,,,,,,,,,,,,,15,,69,0
7199,note_on,,0,0,10,,,,,,,,,,,,,,,,15,,66,0
7200,note_on,,1,0,7,,,,,,,,,,,,,,,,10,,55,48
7200,note_on,,0,0,10,,,,,,,,,,,,,,,,15,,55,48
7200,note_on,,0,0,10,,,,,,,,,,,,,,,,15,,67,48
7200,note_on,,0,0,10,,,,,,,,,,,,,,,,15,,71,48
7200,note_on,,1,0,10,,,,,,,,,,,,,,,,15,,43,48
7200,note_on,,1,0,9,,,,,,,,,,,,,,,,13,,43,48
7200,note_on,,0,0,10,,,,,,,,,,,,,,,,15,,62,48
7200,note_on,,1,0,6,,,,,,,,,,,,,,,,7,,67,72
7200,note_on,,1,0,8,,,,,,,,,,,,,,,,11,,55,48
7259,note_on,,59,0,7,,,,,,,,,,,,,,,,10,,55,0
7259,note_on,,59,0,8,,,,,,,,,,,,,,,,11,,55,0
7260,note_on,,1,0,7,,,,,,,,,,,,,,,,10,,59,48
7260,note_on,,1,0,8,,,,,,,,,,,,,,,,11,,59,48
7319,note_on,,59,0,7,,,,,,,,,,,,,,,,10,,59,0
7319,note_on,,0,0,10,,,,,,,,,,,,,,,,15,,55,0
7319,note_on,,119,0,6,,,,,,,,,,,,,,,,7,,67,0
7319,note_on,,119,0,9,,,,,,,,,,,,,,,,13,,43,0
7319,note_on,,0,0,10,,,,,,,,,,,,,,,,15,,71,0
7319,note_on,,0,0,10,,,,,,,,,,,,,,,,15,,67,0
7319,note_on,,0,0,10,,,,,,,,,,,,,,,,15,,62,0
7319,note_on,,59,0,8,,,,,,,,,,,,,,,,11,,59,0
7319,note_on,,119,0,10,,,,,,,,,,,,,,,,15,,43,0
7320,note_on,,1,0,6,,,,,,,,,,,,,,,,7,,55,72
7320,note_on,,1,0,8,,,,,,,,,,,,,,,,11,,62,48
7320,note_on,,1,0,7,,,,,,,,,,,,,,,,10,,62,48
7379,note_on,,59,0,8,,,,,,,,,,,,,,,,11,,62,0
7379,note_on,,59,0,7,,,,,,,,,,,,,,,,10,,62,0
7380,note_on,,1,0,7,,,,,,,,,,,,,,,,10,,65,48
7380,note_on,,1,0,8,,,,,,,,,,,,,,,,11,,65,48
7439,note_on,,59,0,8,,,,,,,,,,,,,,,,11,,65,0
7439,note_on,,59,0,7,,,,,,,,,,,,,,,,10,,65,0
7439,note_on,,119,0,6,,,,,,,,,,,,,,,,7,,55,0
7440,note_on,,1,0,7,,,,,,,,,,,,,,,,10,,71,48
7440,note_on,,1,0,8,,,,,,,,,,,,,,,,11,,71,48
7499,note_on,,59,0,7,,,,,,,,,,,,,,,,10,,71,0
7499,note_on,,59,0,8,,,,,,,,,,,,,,,,11,,71,0
7500,note_on,,1,0,8,,,,,,,,,,,,,,,,11,,74,48
7500,note_on,,1,0,7,,,,,,,,,,,,,,,,10,,74,48
7559,note_on,,59,0,8,,,,,,,,,,,,,,,,11,,74,0
7559,note_on,,59,0,7,,,,,,,,,,,,,,,,10,,74,0
7560,note_on,,1,0,7,,,,,,,,,,,,,,,,10,,77,48
7560,note_on,,1,0,8,,,,,,,,,,,,,,,,11,,77,48
7619,note_on,,59,0,7,,,,,,,,,,,,,,,,10,,77,0
7619,note_on,,59,0,8,,,,,,,,,,,,,,,,11,,77,0
7620,note_on,,1,0,8,,,,,,,,,,,,,,,,11,,83,48
7620,note_on,,1,0,7,,,,,,,,,,,,,,,,10,,83,48
7679,note_on,,59,0,7,,,,,,,,,,,,,,,,10,,83,0
7679,note_on,,59,0,8,,,,,,,,,,,,,,,,11,,83,0
7680,note_on,,241,0,6,,,,,,,,,,,,,,,,7,,67,72
7680,note_on,,0,0,10,,,,,,,,,,,,,,,,15,,55,48
7680,note_on,,361,0,10,,,,,,,,,,,,,,,,15,,47,48
7680,note_on,,0,0,10,,,,,,,,,,,,,,,,15,,67,48
7680,note_on,,0,0,10,,,,,,,,,,,,,,,,15,,74,48
7680,note_on,,1,0,7,,,,,,,,,,,,,,,,10,,86,48
7680,note_on,,361,0,9,,,,,,,,,,,,,,,,13,,47,48
7680,note_on,,1,0,8,,,,,,,,,,,,,,,,11,,86,48
7680,note_on,,0,0,10,,,,,,,,,,,,,,,,15,,62,48
7739,note_on,,59,0,7,,,,,,,,,,,,,,,,10,,86,0
7739,note_on,,59,0,8,,,,,,,,,,,,,,,,11,,86,0
7740,note_on,,1,0,7,,,,,,,,,,,,,,,,10,,77,48
7740,note_on,,1,0,8,,,,,,,,,,,,,,,,11,,77,48
7799,note_on,,119,0,10,,,,,,,,,,,,,,,,15,,47,0
7799,note_on,,0,0,10,,,,,,,,,,,,,,,,15,,67,0
7799,note_on,,59,0,7,,,,,,,,,,,,,,,,10,,77,0
7799,note_on,,119,0,6,,,,,,,,,,,,,,,,7,,67,0
7799,note_on,,0,0,10,,,,,,,,,,,,,,,,15,,74,0
7799,note_on,,119,0,9,,,,,,,,,,,,,,,,13,,47,0
7799,note_on,,0,0,10,,,,,,,,,,,,,,,,15,,62,0
7799,note_on,,0,0,10,,,,,,,,,,,,,,,,15,,55,0
7799,note_on,,59,0,8,,,,,,,,,,,,,,,,11,,77,0
7800,note_on,,1,0,6,,,,,,,,,,,,,,,,7,,62,72
7800,note_on,,1,0,10,,,,,,,,,,,,,,,,15,,43,48
7800,note_on,,0,0,10,,,,,,,,,,,,,,,,15,,55,48
7800,note_on,,0,0,10,,,,,,,,,,,,,,,,15,,71,48
7800,note_on,,0,0,10,,,,,,,,,,,,,,,,15,,67,48
7800,note_on,,0,0,10,,,,,,,,,,,,,,,,15,,62,48
7800,note_on,,1,0,8,,,,,,,,,,,,,,,,11,,79,48
7800,note_on,,1,0,9,,,,,,,,,,,,,,,,13,,43,48
7800,note_on,,1,0,7,,,,,,,,,,,,,,,,10,,79,48
7859,note_on,,59,0,8,,,,,,,,,,,,,,,,11,,79,0
7859,note_on,,59,0,7,,,,,,,,,,,,,,,,10,,79,0
7860,note_on,,1,0,8,,,,,,,,,,,,,,,,11,,71,48
7860,note_on,,1,0,7,,,,,,,,,,,,,,,,10,,71,48
7919,note_on,,59,0,7,,,,,,,,,,,,,,,,10,,71,0
7919,note_on,,119,0,9,,,,,,,,,,,,,,,,13,,43,0
7919,note_on,,0,0,10,,,,,,,,,,,,,,,,15,,67,0
7919,note_on,,59,0,8,,,,,,,,,,,,,,,,11,,71,0
7919,note_on,,0,0,10,,,,,,,,,,,,,,,,15,,71,0
7919,note_on,,0,0,10,,,,,,,,,,,,,,,,15,,55,0
7919,note_on,,119,0,10,,,,,,,,,,,,,,,,15,,43,0
7919,note_on,,0,0,10,,,,,,,,,,,,,,,,15,,62,0
7919,note_on,,119,0,6,,,,,,,,,,,,,,,,7,,62,0
7920,note_on,,1,0,7,,,,,,,,,,,,,,,,10,,72,48
7920,note_on,,1,0,8,,,,,,,,,,,,,,,,11,,72,48
7920,note_on,,1,0,6,,,,,,,,,,,,,,,,7,,64,72
7920,note_on,,0,0,10,,,,,,,,,,,,,,,,15,,72,48
7920,note_on,,1,0,10,,,,,,,,,,,,,,,,15,,48,48
7920,note_on,,0,0,10,,,,,,,,,,,,,,,,15,,55,48
7920,note_on,,0,0,10,,,,,,,,,,,,,,,,15,,64,48
7920,note_on,,0,0,10,,,,,,,,,,,,,,,,15,,67,48
7920,note_on,,1,0,9,,,,,,,,,,,,,,,,13,,48,48
7979,note_on,,59,0,7,,,,,,,,,,,,,,,,10,,72,0
7979,note_on,,59,0,8,,,,,,,,,,,,,,,,11,,72,0
7980,note_on,,1,0,7,,,,,,,,,,,,,,,,10,,76,48
7980,note_on,,1,0,8,,,,,,,,,,,,,,,,11,,76,48
8039,note_on,,119,0,9,,,,,,,,,,,,,,,,13,,48,0
8039,note_on,,59,0,8,,,,,,,,,,,,,,,,11,,76,0
8039,note_on,,0,0,10,,,,,,,,,,,,,,,,15,,72,0
8039,note_on,,0,0,10,,,,,,,,,,,,,,,,15,,64,0
8039,note_on,,119,0,6,,,,,,,,,,,,,,,,7,,64,0
8039,note_on,,59,0,7,,,,,,,,,,,,,,,,10,,76,0
8039,note_on,,0,0,10,,,,,,,,,,,,,,,,15,,67,0
8039,note_on,,119,0,10,,,,,,,,,,,,,,,,15,,48,0
8039,note_on,,0,0,10,,,,,,,,,,,,,,,,15,,55,0
8040,note_on,,1,0,6,,,,,,,,,,,,,,,,7,,52,72
8040,note_on,,1,0,9,,,,,,,,,,,,,,,,13,,36,48
8040,note_on,,1,0,10,,,,,,,,,,,,,,,,15,,36,48
8040,note_on,,0,0,10,,,,,,,,,,,,,,,,15,,64,48
8040,note_on,,1,0,7,,,,,,,,,,,,,,,,10,,81,48
8040,note_on,,1,0,8,,,,,,,,,,,,,,,,11,,81,48
8040,note_on,,0,0,10,,,,,,,,,,,,,,,,15,,48,48
8040,note_on,,0,0,10,,,,,,,,,,,,,,,,15,,60,48
8069,note_on,,29,0,8,,,,,,,,,,,,,,,,11,,81,0
8069,note_on,,29,0,7,,,,,,,,,,,,,,,,10,,81,0
8070,note_on,,1,0,7,,,,,,,,,,,,,,,,10,,80,48
8070,note_on,,1,0,8,,,,,,,,,,,,,,,,11,,80,48
8099,note_on,,29,0,7,,,,,,,,,,,,,,,,10,,80,0
8099,note_on,,29,0,8,,,,,,,,,,,,,,,,11,,80,0
8100,note_on,,1,0,8,,,,,,,,,,,,,,,,11,,81,48
8100,note_on,,1,0,7,,,,,,,,,,,,,,,,10,,81,48
8129,note_on,,29,0,8,,,,,,,,,,,,,,,,11,,81,0
8129,note_on,,29,0,7,,,,,,,,,,,,,,,,10,,81,0
8130,note_on,,1,0,8,,,,,,,,,,,,,,,,11,,80,48
8130,note_on,,1,0,7,,,,,,,,,,,,,,,,10,,80,48
8159,note_on,,0,0,10,,,,,,,,,,,,,,,,15,,60,0
8159,note_on,,0,0,10,,,,,,,,,,,,,,,,15,,64,0
8159,note_on,,0,0,10,,,,,,,,,,,,,,,,15,,48,0
8159,note_on,,29,0,7,,,,,,,,,,,,,,,,10,,80,0
8159,note_on,,29,0,8,,,,,,,,,,,,,,,,11,,80,0
8159,note_on,,119,0,6,,,,,,,,,,,,,,,,7,,52,0
8159,note_on,,119,0,9,,,,,,,,,,,,,,,,13,,36,0
8159,note_on,,119,0,10,,,,,,,,,,,,,,,,15,,36,0
8160,note_on,,1,0,7,,,,,,,,,,,,,,,,10,,81,48
8160,note_on,,1,0,8,,,,,,,,,,,,,,,,11,,81,48
8219,note_on,,59,0,7,,,,,,,,,,,,,,,,10,,81,0
8219,note_on,,59,0,8,,,,,,,,,,,,,,,,11,,81,0
8220,note_on,,1,0,8,,,,,,,,,,,,,,,,11,,60,48
8220,note_on,,0,0,10,,,,,,,,,,,,,,,,15,,72,48
8220,note_on,,0,0,10,,,,,,,,,,,,,,,,15,,67,48
8220,note_on,,61,0,10,,,,,,,,,,,,,,,,15,,48,48
8220,note_on,,1,0,7,,,,,,,,,,,,,,,,10,,60,48
8220,note_on,,0,0,10,,,,,,,,,,,,,,,,15,,52,48
8220,note_on,,61,0,6,,,,,,,,,,,,,,,,7,,64,72
8220,note_on,,61,0,9,,,,,,,,,,,,,,,,13,,48,48
8264,note_on,,44,0,7,,,,,,,,,,,,,,,,10,,60,0
8264,note_on,,44,0,8,,,,,,,,,,,,,,,,11,,60,0
8279,note_on,,59,0,9,,,,,,,,,,,,,,,,13,,48,0
8279,note_on,,59,0,10,,,,,,,,,,,,,,,,15,,48,0
8279,note_on,,0,0,10,,,,,,,,,,,,,,,,15,,52,0
8279,note_on,,59,0,6,,,,,,,,,,,,,,,,7,,64,0
8279,note_on,,0,0,10,,,,,,,,,,,,,,,,15,,72,0
8279,note_on,,0,0,10,,,,,,,,,,,,,,,,15,,67,0
8280,note_on,,1,0,9,,,,,,,,,,,,,,,,13,,50,48
8280,note_on,,1,0,10,,,,,,,,,,,,,,,,15,,50,48
8280,note_on,,0,0,10,,,,,,,,,,,,,,,,15,,72,48
8280,note_on,,0,0,10,,,,,,,,,,,,,,,,15,,65,48
8280,note_on,,0,0,10,,,,,,,,,,,,,,,,15,,62,48
8280,note_on,,0,0,10,,,,,,,,,,,,,,,,15,,53,48
8280,note_on,,16,0,7,,,,,,,,,,,,,,,,10,,62,48
8280,note_on,,16,0,8,,,,,,,,,,,,,,,,11,,62,48
8280,note_on,,1,0,6,,,,,,,,,,,,,,,,7,,65,72
8324,note_on,,44,0,8,,,,,,,,,,,,,,,,11,,62,0
8324,note_on,,44,0,7,,,,,,,,,,,,,,,,10,,62,0
8340,note_on,,16,0,7,,,,,,,,,,,,,,,,10,,81,48
8340,note_on,,16,0,8,,,,,,,,,,,,,,,,11,,81,48
8399,note_on,,59,0,8,,,,,,,,,,,,,,,,11,,81,0
8399,note_on,,119,0,9,,,,,,,,,,,,,,,,13,,50,0
8399,note_on,,0,0,10,,,,,,,,,,,,,,,,15,,65,0
8399,note_on,,0,0,10,,,,,,,,,,,,,,,,15,,53,0
8399,note_on,,0,0,10,,,,,,,,,,,,,,,,15,,62,0
8399,note_on,,119,0,6,,,,,,,,,,,,,,,,7,,65,0
8399,note_on,,119,0,10,,,,,,,,,,,,,,,,15,,50,0
8399,note_on,,0,0,10,,,,,,,,,,,,,,,,15,,72,0
8399,note_on,,59,0,7,,,,,,,,,,,,,,,,10,,81,0
8400,note_on,,1,0,8,,,,,,,,,,,,,,,,11,,83,48
8400,note_on,,0,0,10,,,,,,,,,,,,,,,,15,,50,48
8400,note_on,,1,0,9,,,,,,,,,,,,,,,,13,,38,48
8400,note_on,,0,0,10,,,,,,,,,,,,,,,,15,,71,48
8400,note_on,,1,0,7,,,,,,,,,,,,,,,,10,,83,48
8400,note_on,,1,0,10,,,,,,,,,,,,,,,,15,,38,48
8400,note_on,,0,0,10,,,,,,,,,,,,,,,,15,,65,48
8400,note_on,,0,0,10,,,,,,,,,,,,,,,,15,,62,48
8400,note_on,,1,0,6,,,,,,,,,,,,,,,,7,,53,72
8429,note_on,,29,0,7,,,,,,,,,,,,,,,,10,,83,0
8429,note_on,,29,0,8,,,,,,,,,,,,,,,,11,,83,0
8430,note_on,,1,0,7,,,,,,,,,,,,,,,,10,,81,48
8430,note_on,,1,0,8,,,,,,,,,,,,,,,,11,,81,48
8459,note_on,,29,0,7,,,,,,,,,,,,,,,,10,,81,0
8459,note_on,,29,0,8,,,,,,,,,,,,,,,,11,,81,0
8460,note_on,,1,0,8,,,,,,,,,,,,,,,,11,,83,48
8460,note_on,,1,0,7,,,,,,,,,,,,,,,,10,,83,48
8489,note_on,,29,0,7,,,,,,,,,,,,,,,,10,,83,0
8489,note_on,,29,0,8,,,,,,,,,,,,,,,,11,,83,0
8490,note_on,,1,0,7,,,,,,,,,,,,,,,,10,,81,48
8490,note_on,,1,0,8,,,,,,,,,,,,,,,,11,,81,48
8519,note_on,,29,0,8,,,,,,,,,,,,,,,,11,,81,0
8519,note_on,,119,0,6,,,,,,,,,,,,,,,,7,,53,0
8519,note_on,,0,0,10,,,,,,,,,,,,,,,,15,,62,0
8519,note_on,,0,0,10,,,,,,,,,,,,,,,,15,,65,0
8519,note_on,,119,0,9,,,,,,,,,,,,,,,,13,,38,0
8519,note_on,,29,0,7,,,,,,,,,,,,,,,,10,,81,0
8519,note_on,,119,0,10,,,,,,,,,,,,,,,,15,,38,0
8519,note_on,,0,0,10,,,,,,,,,,,,,,,,15,,71,0
8519,note_on,,0,0,10,,,,,,,,,,,,,,,,15,,50,0
8520,note_on,,1,0,7,,,,,,,,,,,,,,,,10,,83,48
8520,note_on,,1,0,8,,,,,,,,,,,,,,,,11,,83,48
8579,note_on,,59,0,8,,,,,,,,,,,,,,,,11,,83,0
8579,note_on,,59,0,7,,,,,,,,,,,,,,,,10,,83,0
8580,note_on,,1,0,7,,,,,,,,,,,,,,,,10,,62,48
8580,note_on,,61,0,9,,,,,,,,,,,,,,,,13,,50,48
8580,note_on,,1,0,8,,,,,,,,,,,,,,,,11,,62,48
8580,note_on,,61,0,6,,,,,,,,,,,,,,,,7,,65,72
8580,note_on,,61,0,10,,,,,,,,,,,,,,,,15,,50,48
8580,note_on,,0,0,10,,,,,,,,,,,,,,,,15,,74,48
8580,note_on,,0,0,10,,,,,,,,,,,,,,,,15,,53,48
8580,note_on,,0,0,10,,,,,,,,,,,,,,,,15,,62,48
8580,note_on,,0,0,10,,,,,,,,,,,,,,,,15,,65,48
8624,note_on,,44,0,7,,,,,,,,,,,,,,,,10,,62,0
8624,note_on,,44,0,8,,,,,,,,,,,,,,,,11,,62,0
8639,note_on,,0,0,10,,,,,,,,,,,,,,,,15,,62,0
8639,note_on,,0,0,10,,,,,,,,,,,,,,,,15,,74,0
8639,note_on,,0,0,10,,,,,,,,,,,,,,,,15,,65,0
8639,note_on,,0,0,10,,,,,,,,,,,,,,,,15,,53,0
8639,note_on,,59,0,9,,,,,,,,,,,,,,,,13,,50,0
8639,note_on,,59,0,6,,,,,,,,,,,,,,,,7,,65,0
8639,note_on,,59,0,10,,,,,,,,,,,,,,,,15,,50,0
8640,note_on,,1,0,10,,,,,,,,,,,,,,,,15,,52,48
8640,note_on,,0,0,10,,,,,,,,,,,,,,,,15,,55,48
8640,note_on,,0,0,10,,,,,,,,,,,,,,,,15,,67,48
8640,note_on,,0,0,10,,,,,,,,,,,,,,,,15,,64,48
8640,note_on,,0,0,10,,,,,,,,,,,,,,,,15,,62,48
8640,note_on,,1,0,9,,,,,,,,,,,,,,,,13,,52,48
8640,note_on,,16,0,7,,,,,,,,,,,,,,,,10,,64,48
8640,note_on,,16,0,8,,,,,,,,,,,,,,,,11,,64,48
8640,note_on,,1,0,6,,,,,,,,,,,,,,,,7,,67,72
8684,note_on,,44,0,8,,,,,,,,,,,,,,,,11,,64,0
8684,note_on,,44,0,7,,,,,,,,,,,,,,,,10,,64,0
8700,note_on,,16,0,8,,,,,,,,,,,,,,,,11,,79,48
8700,note_on,,16,0,7,,,,,,,,,,,,,,,,10,,79,48
8759,note_on,,0,0,10,,,,,,,,,,,,,,,,15,,55,0
8759,note_on,,119,0,9,,,,,,,,,,,,,,,,13,,52,0
8759,note_on,,0,0,10,,,,,,,,,,,,,,,,15,,64,0
8759,note_on,,0,0,10,,,,,,,,,,,,,,,,15,,62,0
8759,note_on,,59,0,8,,,,,,,,,,,,,,,,11,,79,0
8759,note_on,,119,0,6,,,,,,,,,,,,,,,,7,,67,0
8759,note_on,,0,0,10,,,,,,,,,,,,,,,,15,,67,0
8759,note_on,,59,0,7,,,,,,,,,,,,,,,,10,,79,0
8759,note_on,,119,0,10,,,,,,,,,,,,,,,,15,,52,0
8760,note_on,,0,0,10,,,,,,,,,,,,,,,,15,,67,48
8760,note_on,,1,0,9,,,,,,,,,,,,,,,,13,,40,48
8760,note_on,,1,0,10,,,,,,,,,,,,,,,,15,,40,48
8760,note_on,,0,0,10,,,,,,,,,,,,,,,,15,,60,48
8760,note_on,,1,0,6,,,,,,,,,,,,,,,,7,,55,72
8760,note_on,,0,0,10,,,,,,,,,,,,,,,,15,,72,48
8760,note_on,,0,0,10,,,,,,,,,,,,,,,,15,,52,48
8760,note_on,,1,0,8,,,,,,,,,,,,,,,,11,,84,48
8760,note_on,,1,0,7,,,,,,,,,,,,,,,,10,,84,48
8789,note_on,,29,0,7,,,,,,,,,,,,,,,,10,,84,0
8789,note_on,,29,0,8,,,,,,,,,,,,,,,,11,,84,0
8790,note_on,,1,0,8,,,,,,,,,,,,,,,,11,,83,48
8790,note_on,,1,0,7,,,,,,,,,,,,,,,,10,,83,48
8819,note_on,,29,0,8,,,,,,,,,,,,,,,,11,,83,0
8819,note_on,,29,0,7,,,,,,,,,,,,,,,,10,,83,0
8820,note_on,,1,0,8,,,,,,,,,,,,,,,,11,,84,48
8820,note_on,,1,0,7,,,,,,,,,,,,,,,,10,,84,48
8849,note_on,,29,0,8,,,,,,,,,,,,,,,,11,,84,0
8849,note_on,,29,0,7,,,,,,,,,,,,,,,,10,,84,0
8850,note_on,,1,0,8,,,,,,,,,,,,,,,,11,,83,48
8850,note_on,,1,0,7,,,,,,,,,,,,,,,,10,,83,48
8879,note_on,,29,0,8,,,,,,,,,,,,,,,,11,,83,0
8879,note_on,,119,0,6,,,,,,,,,,,,,,,,7,,55,0
8879,note_on,,29,0,7,,,,,,,,,,,,,,,,10,,83,0
8879,note_on,,119,0,10,,,,,,,,,,,,,,,,15,,40,0
8879,note_on,,0,0,10,,,,,,,,,,,,,,,,15,,52,0
8879,note_on,,0,0,10,,,,,,,,,,,,,,,,15,,72,0
8879,note_on,,0,0,10,,,,,,,,,,,,,,,,15,,67,0
8879,note_on,,0,0,10,,,,,,,,,,,,,,,,15,,60,0
8879,note_on,,119,0,9,,,,,,,,,,,,,,,,13,,40,0
8880,note_on,,1,0,6,,,,,,,,,,,,,,,,7,,64,72
8880,note_on,,1,0,7,,,,,,,,,,,,,,,,10,,84,48
8880,note_on,,1,0,8,,,,,,,,,,,,,,,,11,,84,48
8939,note_on,,59,0,8,,,,,,,,,,,,,,,,11,,84,0
8939,note_on,,59,0,7,,,,,,,,,,,,,,,,10,,84,0
8939,note_on,,59,0,6,,,,,,,,,,,,,,,,7,,64,0
8940,note_on,,0,0,10,,,,,,,,,,,,,,,,15,,67,48
8940,note_on,,1,0,8,,,,,,,,,,,,,,,,11,,64,48
8940,note_on,,1,0,7,,,,,,,,,,,,,,,,10,,64,48
8940,note_on,,61,0,10,,,,,,,,,,,,,,,,15,,52,48
8940,note_on,,1,0,6,,,,,,,,,,,,,,,,7,,67,72
8940,note_on,,0,0,10,,,,,,,,,,,,,,,,15,,72,48
8940,note_on,,61,0,9,,,,,,,,,,,,,,,,13,,52,48
8940,note_on,,0,0,10,,,,,,,,,,,,,,,,15,,60,48
8940,note_on,,0,0,10,,,,,,,,,,,,,,,,15,,55,48
8984,note_on,,44,0,8,,,,,,,,,,,,,,,,11,,64,0
8984,note_on,,44,0,7,,,,,,,,,,,,,,,,10,,64,0
8999,note_on,,0,0,10,,,,,,,,,,,,,,,,15,,55,0
8999,note_on,,0,0,10,,,,,,,,,,,,,,,,15,,67,0
8999,note_on,,0,0,10,,,,,,,,,,,,,,,,15,,72,0
8999,note_on,,59,0,9,,,,,,,,,,,,,,,,13,,52,0
8999,note_on,,0,0,10,,,,,,,,,,,,,,,,15,,60,0
8999,note_on,,59,0,6,,,,,,,,,,,,,,,,7,,67,0
8999,note_on,,59,0,10,,,,,,,,,,,,,,,,15,,52,0
9000,note_on,,0,0,10,,,,,,,,,,,,,,,,15,,69,48
9000,note_on,,1,0,6,,,,,,,,,,,,,,,,7,,57,72
9000,note_on,,16,0,7,,,,,,,,,,,,,,,,10,,65,48
9000,note_on,,1,0,10,,,,,,,,,,,,,,,,15,,53,48
9000,note_on,,0,0,10,,,,,,,,,,,,,,,,15,,72,48
9000,note_on,,0,0,10,,,,,,,,,,,,,,,,15,,60,48
9000,note_on,,0,0,10,,,,,,,,,,,,,,,,15,,65,48
9000,note_on,,16,0,8,,,,,,,,,,,,,,,,11,,65,48
9000,note_on,,1,0,9,,,,,,,,,,,,,,,,13,,53,48
9029,note_on,,29,0,6,,,,,,,,,,,,,,,,7,,57,0
9030,note_on,,1,0,6,,,,,,,,,,,,,,,,7,,60,72
9059,note_on,,29,0,6,,,,,,,,,,,,,,,,7,,60,0
9060,note_on,,1,0,6,,,,,,,,,,,,,,,,7,,59,72
9089,note_on,,29,0,6,,,,,,,,,,,,,,,,7,,59,0
9090,note_on,,1,0,6,,,,,,,,,,,,,,,,7,,57,72
9119,note_on,,119,0,7,,,,,,,,,,,,,,,,10,,65,0
9119,note_on,,119,0,8,,,,,,,,,,,,,,,,11,,65,0
9119,note_on,,29,0,6,,,,,,,,,,,,,,,,7,,57,0
9119,note_on,,0,0,10,,,,,,,,,,,,,,,,15,,72,0
9119,note_on,,119,0,10,,,,,,,,,,,,,,,,15,,53,0
9119,note_on,,0,0,10,,,,,,,,,,,,,,,,15,,69,0
9119,note_on,,0,0,10,,,,,,,,,,,,,,,,15,,65,0
9119,note_on,,0,0,10,,,,,,,,,,,,,,,,15,,60,0
9119,note_on,,119,0,9,,,,,,,,,,,,,,,,13,,53,0
9120,note_on,,1,0,6,,,,,,,,,,,,,,,,7,,59,72
9120,note_on,,0,0,10,,,,,,,,,,,,,,,,15,,65,48
9120,note_on,,1,0,10,,,,,,,,,,,,,,,,15,,50,48
9120,note_on,,0,0,10,,,,,,,,,,,,,,,,15,,53,48
9120,note_on,,1,0,7,,,,,,,,,,,,,,,,10,,62,48
9120,note_on,,0,0,10,,,,,,,,,,,,,,,,15,,71,48
9120,note_on,,1,0,9,,,,,,,,,,,,,,,,13,,50,48
9120,note_on,,1,0,8,,,,,,,,,,,,,,,,11,,62,48
9120,note_on,,0,0,10,,,,,,,,,,,,,,,,15,,74,48
9149,note_on,,29,0,6,,,,,,,,,,,,,,,,7,,59,0
9150,note_on,,1,0,6,,,,,,,,,,,,,,,,7,,62,72
9179,note_on,,29,0,6,,,,,,,,,,,,,,,,7,,62,0
9180,note_on,,1,0,6,,,,,,,,,,,,,,,,7,,60,72
9209,note_on,,29,0,6,,,,,,,,,,,,,,,,7,,60,0
9210,note_on,,1,0,6,,,,,,,,,,,,,,,,7,,59,72
9239,note_on,,119,0,10,,,,,,,,,,,,,,,,15,,50,0
9239,note_on,,0,0,10,,,,,,,,,,,,,,,,15,,65,0
9239,note_on,,0,0,10,,,,,,,,,,,,,,,,15,,71,0
9239,note_on,,0,0,10,,,,,,,,,,,,,,,,15,,74,0
9239,note_on,,0,0,10,,,,,,,,,,,,,,,,15,,53,0
9239,note_on,,119,0,8,,,,,,,,,,,,,,,,11,,62,0
9239,note_on,,119,0,7,,,,,,,,,,,,,,,,10,,62,0
9239,note_on,,29,0,6,,,,,,,,,,,,,,,,7,,59,0
9239,note_on,,119,0,9,,,,,,,,,,,,,,,,13,,50,0
9240,note_on,,0,0,10,,,,,,,,,,,,,,,,15,,60,48
9240,note_on,,0,0,10,,,,,,,,,,,,,,,,15,,67,48
9240,note_on,,0,0,10,,,,,,,,,,,,,,,,15,,55,48
9240,note_on,,1,0,7,,,,,,,,,,,,,,,,10,,64,48
9240,note_on,,1,0,6,,,,,,,,,,,,,,,,7,,60,72
9240,note_on,,1,0,8,,,,,,,,,,,,,,,,11,,64,48
9240,note_on,,1,0,10,,,,,,,,,,,,,,,,15,,52,48
9240,note_on,,1,0,9,,,,,,,,,,,,,,,,13,,52,48
9269,note_on,,29,0,6,,,,,,,,,,,,,,,,7,,60,0
9270,note_on,,1,0,6,,,,,,,,,,,,,,,,7,,64,72
9299,note_on,,29,0,6,,,,,,,,,,,,,,,,7,,64,0
9300,note_on,,1,0,6,,,,,,,,,,,,,,,,7,,62,72
9329,note_on,,29,0,6,,,,,,,,,,,,,,,,7,,62,0
9330,note_on,,1,0,6,,,,,,,,,,,,,,,,7,,60,72
9359,note_on,,29,0,6,,,,,,,,,,,,,,,,7,,60,0
9359,note_on,,0,0,10,,,,,,,,,,,,,,,,15,,60,0
9359,note_on,,0,0,10,,,,,,,,,,,,,,,,15,,67,0
9359,note_on,,119,0,10,,,,,,,,,,,,,,,,15,,52,0
9359,note_on,,119,0,9,,,,,,,,,,,,,,,,13,,52,0
9359,note_on,,0,0,10,,,,,,,,,,,,,,,,15,,55,0
9359,note_on,,119,0,7,,,,,,,,,,,,,,,,10,,64,0
9359,note_on,,119,0,8,,,,,,,,,,,,,,,,11,,64,0
9360,note_on,,0,0,10,,,,,,,,,,,,,,,,15,,55,48
9360,note_on,,1,0,7,,,,,,,,,,,,,,,,10,,59,48
9360,note_on,,1,0,9,,,,,,,,,,,,,,,,13,,47,48
9360,note_on,,1,0,8,,,,,,,,,,,,,,,,11,,59,48
9360,note_on,,0,0,10,,,,,,,,,,,,,,,,15,,62,48
9360,note_on,,1,0,10,,,,,,,,,,,,,,,,15,,47,48
9360,note_on,,0,0,10,,,,,,,,,,,,,,,,15,,67,48
9360,note_on,,1,0,6,,,,,,,,,,,,,,,,7,,62,72
9389,note_on,,29,0,6,,,,,,,,,,,,,,,,7,,62,0
9390,note_on,,1,0,6,,,,,,,,,,,,,,,,7,,65,72
9419,note_on,,29,0,6,,,,,,,,,,,,,,,,7,,65,0
9420,note_on,,1,0,6,,,,,,,,,,,,,,,,7,,64,72
9449,note_on,,29,0,6,,,,,,,,,,,,,,,,7,,64,0
9450,note_on,,1,0,6,,,,,,,,,,,,,,,,7,,62,72
9479,note_on,,119,0,8,,,,,,,,,,,,,,,,11,,59,0
9479,note_on,,29,0,6,,,,,,,,,,,,,,,,7,,62,0
9479,note_on,,119,0,9,,,,,,,,,,,,,,,,13,,47,0
9479,note_on,,0,0,10,,,,,,,,,,,,,,,,15,,62,0
9479,note_on,,119,0,10,,,,,,,,,,,,,,,,15,,47,0
9479,note_on,,119,0,7,,,,,,,,,,,,,,,,10,,59,0
9479,note_on,,0,0,10,,,,,,,,,,,,,,,,15,,55,0
9480,note_on,,1,0,10,,,,,,,,,,,,,,,,15,,48,48
9480,note_on,,0,0,10,,,,,,,,,,,,,,,,15,,55,48
9480,note_on,,1,0,7,,,,,,,,,,,,,,,,10,,60,48
9480,note_on,,0,0,10,,,,,,,,,,,,,,,,15,,64,48
9480,note_on,,1,0,9,,,,,,,,,,,,,,,,13,,48,48
9480,note_on,,1,0,6,,,,,,,,,,,,,,,,7,,64,72
9480,note_on,,1,0,8,,,,,,,,,,,,,,,,11,,60,48
9509,note_on,,29,0,6,,,,,,,,,,,,,,,,7,,64,0
9510,note_on,,1,0,6,,,,,,,,,,,,,,,,7,,67,72
9539,note_on,,29,0,6,,,,,,,,,,,,,,,,7,,67,0
9540,note_on,,1,0,6,,,,,,,,,,,,,,,,7,,65,72
9569,note_on,,29,0,6,,,,,,,,,,,,,,,,7,,65,0
9570,note_on,,1,0,6,,,,,,,,,,,,,,,,7,,64,72
9599,note_on,,119,0,8,,,,,,,,,,,,,,,,11,,60,0
9599,note_on,,119,0,7,,,,,,,,,,,,,,,,10,,60,0
9599,note_on,,119,0,10,,,,,,,,,,,,,,,,15,,67,0
9599,note_on,,0,0,10,,,,,,,,,,,,,,,,15,,48,0
9599,note_on,,0,0,10,,,,,,,,,,,,,,,,15,,64,0
9599,note_on,,0,0,10,,,,,,,,,,,,,,,,15,,55,0
9599,note_on,,119,0,9,,,,,,,,,,,,,,,,13,,48,0
9599,note_on,,29,0,6,,,,,,,,,,,,,,,,7,,64,0
9600,note_on,,0,0,10,,,,,,,,,,,,,,,,15,,74,48
9600,note_on,,1,0,9,,,,,,,,,,,,,,,,13,,53,48
9600,note_on,,1,0,6,,,,,,,,,,,,,,,,7,,62,72
9600,note_on,,1,0,10,,,,,,,,,,,,,,,,15,,53,48
9600,note_on,,0,0,10,,,,,,,,,,,,,,,,15,,69,48
9600,note_on,,0,0,10,,,,,,,,,,,,,,,,15,,72,48
9600,note_on,,0,0,10,,,,,,,,,,,,,,,,15,,57,48
9600,note_on,,1,0,7,,,,,,,,,,,,,,,,10,,65,48
9600,note_on,,1,0,8,,,,,,,,,,,,,,,,11,,65,48
9600,note_on,,0,0,10,,,,,,,,,,,,,,,,15,,65,48
9629,note_on,,29,0,6,,,,,,,,,,,,,,,,7,,62,0
9630,note_on,,1,0,6,,,,,,,,,,,,,,,,7,,60,72
9659,note_on,,29,0,6,,,,,,,,,,,,,,,,7,,60,0
9660,note_on,,1,0,6,,,,,,,,,,,,,,,,7,,59,72
9689,note_on,,29,0,6,,,,,,,,,,,,,,,,7,,59,0
9690,note_on,,1,0,6,,,,,,,,,,,,,,,,7,,57,72
9719,note_on,,119,0,8,,,,,,,,,,,,,,,,11,,65,0
9719,note_on,,119,0,10,,,,,,,,,,,,,,,,15,,53,0
9719,note_on,,0,0,10,,,,,,,,,,,,,,,,15,,57,0
9719,note_on,,119,0,7,,,,,,,,,,,,,,,,10,,65,0
9719,note_on,,0,0,10,,,,,,,,,,,,,,,,15,,74,0
9719,note_on,,0,0,10,,,,,,,,,,,,,,,,15,,72,0
9719,note_on,,119,0,9,,,,,,,,,,,,,,,,13,,53,0
9719,note_on,,0,0,10,,,,,,,,,,,,,,,,15,,69,0
9719,note_on,,0,0,10,,,,,,,,,,,,,,,,15,,65,0
9719,note_on,,29,0,6,,,,,,,,,,,,,,,,7,,57,0
9720,note_on,,0,0,10,,,,,,,,,,,,,,,,15,,62,48
9720,note_on,,1,0,8,,,,,,,,,,,,,,,,11,,55,48
9720,note_on,,1,0,10,,,,,,,,,,,,,,,,15,,71,48
9720,note_on,,1,0,6,,,,,,,,,,,,,,,,7,,59,72
9720,note_on,,1,0,9,,,,,,,,,,,,,,,,13,,55,48
9720,note_on,,0,0,10,,,,,,,,,,,,,,,,15,,74,48
9720,note_on,,0,0,10,,,,,,,,,,,,,,,,15,,67,48
9720,note_on,,1,0,7,,,,,,,,,,,,,,,,10,,55,48
9720,note_on,,0,0,10,,,,,,,,,,,,,,,,15,,55,48
9779,note_on,,59,0,6,,,,,,,,,,,,,,,,7,,59,0
9780,note_on,,1,0,6,,,,,,,,,,,,,,,,7,,55,72
9839,note_on,,119,0,7,,,,,,,,,,,,,,,,10,,55,0
9839,note_on,,59,0,6,,,,,,,,,,,,,,,,7,,55,0
9839,note_on,,119,0,8,,,,,,,,,,,,,,,,11,,55,0
9840,note_on,,1,0,6,,,,,,,,,,,,,,,,7,,57,72
9899,note_on,,0,0,10,,,,,,,,,,,,,,,,15,,55,0
9899,note_on,,179,0,9,,,,,,,,,,,,,,,,13,,55,0
9899,note_on,,0,0,10,,,,,,,,,,,,,,,,15,,62,0
9899,note_on,,0,0,10,,,,,,,,,,,,,,,,15,,67,0
9899,note_on,,0,0,10,,,,,,,,,,,,,,,,15,,74,0
9899,note_on,,179,0,10,,,,,,,,,,,,,,,,15,,71,0
9899,note_on,,59,0,6,,,,,,,,,,,,,,,,7,,57,0
9900,note_on,,1,0,6,,,,,,,,,,,,,,,,7,,59,72
9900,note_on,,1,0,9,,,,,,,,,,,,,,,,13,,53,48
9900,note_on,,0,0,10,,,,,,,,,,,,,,,,15,,59,48
9900,note_on,,1,0,10,,,,,,,,,,,,,,,,15,,53,48
9900,note_on,,0,0,10,,,,,,,,,,,,,,,,15,,62,48
9900,note_on,,0,0,10,,,,,,,,,,,,,,,,15,,55,48
9959,note_on,,0,0,10,,,,,,,,,,,,,,,,15,,59,0
9959,note_on,,0,0,10,,,,,,,,,,,,,,,,15,,62,0
9959,note_on,,59,0,6,,,,,,,,,,,,,,,,7,,59,0
9959,note_on,,0,0,10,,,,,,,,,,,,,,,,15,,55,0
9959,note_on,,59,0,10,,,,,,,,,,,,,,,,15,,53,0
9959,note_on,,59,0,9,,,,,,,,,,,,,,,,13,,53,0
9960,note_on,,1,0,10,,,,,,,,,,,,,,,,15,,52,48
9960,note_on,,0,0,10,,,,,,,,,,,,,,,,15,,64,48
9960,note_on,,1,0,9,,,,,,,,,,,,,,,,13,,52,48
9960,note_on,,1,0,6,,,,,,,,,,,,,,,,7,,60,72
9960,note_on,,0,0,10,,,,,,,,,,,,,,,,15,,55,48
9960,note_on,,0,0,10,,,,,,,,,,,,,,,,15,,60,48
10019,note_on,,59,0,10,,,,,,,,,,,,,,,,15,,52,0
10019,note_on,,0,0,10,,,,,,,,,,,,,,,,15,,55,0
10019,note_on,,0,0,10,,,,,,,,,,,,,,,,15,,60,0
10019,note_on,,59,0,6,,,,,,,,,,,,,,,,7,,60,0
10019,note_on,,0,0,10,,,,,,,,,,,,,,,,15,,64,0
10019,note_on,,59,0,9,,,,,,,,,,,,,,,,13,,52,0
10020,note_on,,1,0,9,,,,,,,,,,,,,,,,13,,48,48
10020,note_on,,1,0,10,,,,,,,,,,,,,,,,15,,48,48
10020,note_on,,0,0,10,,,,,,,,,,,,,,,,15,,55,48
10020,note_on,,0,0,10,,,,,,,,,,,,,,,,15,,67,48
10020,note_on,,0,0,10,,,,,,,,,,,,,,,,15,,64,48
10020,note_on,,1,0,6,,,,,,,,,,,,,,,,7,,62,72
10049,note_on,,29,0,6,,,,,,,,,,,,,,,,7,,62,0
10050,note_on,,1,0,6,,,,,,,,,,,,,,,,7,,64,72
10079,note_on,,0,0,10,,,,,,,,,,,,,,,,15,,64,0
10079,note_on,,59,0,10,,,,,,,,,,,,,,,,15,,48,0
10079,note_on,,0,0,10,,,,,,,,,,,,,,,,15,,55,0
10079,note_on,,29,0,6,,,,,,,,,,,,,,,,7,,64,0
10079,note_on,,59,0,9,,,,,,,,,,,,,,,,13,,48,0
10079,note_on,,0,0,10,,,,,,,,,,,,,,,,15,,67,0
10080,note_on,,1,0,9,,,,,,,,,,,,,,,,13,,57,48
10080,note_on,,1,0,6,,,,,,,,,,,,,,,,7,,65,72
10080,note_on,,1,0,10,,,,,,,,,,,,,,,,15,,57,48
10080,note_on,,0,0,10,,,,,,,,,,,,,,,,15,,60,48
10080,note_on,,0,0,10,,,,,,,,,,,,,,,,15,,65,48
10139,note_on,,59,0,10,,,,,,,,,,,,,,,,15,,57,0
10139,note_on,,0,0,10,,,,,,,,,,,,,,,,15,,60,0
10139,note_on,,59,0,9,,,,,,,,,,,,,,,,13,,57,0
10139,note_on,,59,0,6,,,,,,,,,,,,,,,,7,,65,0
10139,note_on,,0,0,10,,,,,,,,,,,,,,,,15,,65,0
10140,note_on,,1,0,10,,,,,,,,,,,,,,,,15,,53,48
10140,note_on,,0,0,10,,,,,,,,,,,,,,,,15,,69,48
10140,note_on,,1,0,9,,,,,,,,,,,,,,,,13,,53,48
10140,note_on,,0,0,10,,,,,,,,,,,,,,,,15,,65,48
10140,note_on,,0,0,10,,,,,,,,,,,,,,,,15,,60,48
10140,note_on,,1,0,6,,,,,,,,,,,,,,,,7,,62,72
10199,note_on,,59,0,10,,,,,,,,,,,,,,,,15,,53,0
10199,note_on,,0,0,10,,,,,,,,,,,,,,,,15,,60,0
10199,note_on,,0,0,10,,,,,,,,,,,,,,,,15,,65,0
10199,note_on,,0,0,10,,,,,,,,,,,,,,,,15,,69,0
10199,note_on,,59,0,9,,,,,,,,,,,,,,,,13,,53,0
10199,note_on,,59,0,6,,,,,,,,,,,,,,,,7,,62,0
10200,note_on,,1,0,10,,,,,,,,,,,,,,,,15,,55,48
10200,note_on,,0,0,10,,,,,,,,,,,,,,,,15,,62,48
10200,note_on,,0,0,10,,,,,,,,,,,,,,,,15,,59,48
10200,note_on,,1,0,6,,,,,,,,,,,,,,,,7,,59,72
10200,note_on,,1,0,9,,,,,,,,,,,,,,,,13,,55,48
10214,note_on,,14,0,6,,,,,,,,,,,,,,,,7,,59,0
10215,note_on,,1,0,6,,,,,,,,,,,,,,,,7,,60,72
10229,note_on,,14,0,6,,,,,,,,,,,,,,,,7,,60,0
10230,note_on,,1,0,6,,,,,,,,,,,,,,,,7,,59,72
10244,note_on,,14,0,6,,,,,,,,,,,,,,,,7,,59,0
10245,note_on,,1,0,6,,,,,,,,,,,,,,,,7,,60,72
10259,note_on,,14,0,6,,,,,,,,,,,,,,,,7,,60,0
10260,note_on,,1,0,6,,,,,,,,,,,,,,,,7,,59,72
10274,note_on,,14,0,6,,,,,,,,,,,,,,,,7,,59,0
10275,note_on,,1,0,6,,,,,,,,,,,,,,,,7,,60,72
10289,note_on,,14,0,6,,,,,,,,,,,,,,,,7,,60,0
10290,note_on,,1,0,6,,,,,,,,,,,,,,,,7,,59,72
10304,note_on,,14,0,6,,,,,,,,,,,,,,,,7,,59,0
10305,note_on,,1,0,6,,,,,,,,,,,,,,,,7,,60,72
10319,note_on,,119,0,10,,,,,,,,,,,,,,,,15,,55,0
10319,note_on,,0,0,10,,,,,,,,,,,,,,,,15,,59,0
10319,note_on,,119,0,9,,,,,,,,,,,,,,,,13,,55,0
10319,note_on,,0,0,10,,,,,,,,,,,,,,,,15,,62,0
10319,note_on,,14,0,6,,,,,,,,,,,,,,,,7,,60,0
10320,note_on,,0,0,10,,,,,,,,,,,,,,,,15,,59,48
10320,note_on,,0,0,10,,,,,,,,,,,,,,,,15,,55,48
10320,note_on,,1,0,9,,,,,,,,,,,,,,,,13,,43,48
10320,note_on,,1,0,6,,,,,,,,,,,,,,,,7,,59,72
10320,note_on,,0,0,10,,,,,,,,,,,,,,,,15,,62,48
10320,note_on,,0,0,10,,,,,,,,,,,,,,,,15,,67,48
10320,note_on,,1,0,10,,,,,,,,,,,,,,,,15,,43,48
10334,note_on,,14,0,6,,,,,,,,,,,,,,,,7,,59,0
10335,note_on,,1,0,6,,,,,,,,,,,,,,,,7,,60,72
10349,note_on,,14,0,6,,,,,,,,,,,,,,,,7,,60,0
10350,note_on,,1,0,6,,,,,,,,,,,,,,,,7,,57,72
10364,note_on,,14,0,6,,,,,,,,,,,,,,,,7,,57,0
10365,note_on,,1,0,6,,,,,,,,,,,,,,,,7,,59,72
10379,note_on,,14,0,6,,,,,,,,,,,,,,,,7,,59,0
10380,note_on,,1,0,6,,,,,,,,,,,,,,,,7,,60,72
10439,note_on,,119,0,9,,,,,,,,,,,,,,,,13,,43,0
10439,note_on,,59,0,6,,,,,,,,,,,,,,,,7,,60,0
10439,note_on,,0,0,10,,,,,,,,,,,,,,,,15,,62,0
10439,note_on,,0,0,10,,,,,,,,,,,,,,,,15,,59,0
10439,note_on,,0,0,10,,,,,,,,,,,,,,,,15,,67,0
10439,note_on,,119,0,10,,,,,,,,,,,,,,,,15,,43,0
10439,note_on,,0,0,10,,,,,,,,,,,,,,,,15,,55,0
10440,note_on,,1,0,10,,,,,,,,,,,,,,,,15,,48,48
10440,note_on,,0,0,10,,,,,,,,,,,,,,,,15,,64,48
10440,note_on,,0,0,10,,,,,,,,,,,,,,,,15,,60,48
10440,note_on,,0,0,10,,,,,,,,,,,,,,,,15,,55,48
10440,note_on,,1,0,6,,,,,,,,,,,,,,,,7,,60,72
10440,note_on,,1,0,9,,,,,,,,,,,,,,,,13,,48,48
10500,note_on,,661,0,8,,,,,,,,,,,,,,,,11,,67,72
10500,note_on,,661,0,7,,,,,,,,,,,,,,,,10,,67,72
10559,note_on,,119,0,6,,,,,,,,,,,,,,,,7,,60,0
10559,note_on,,119,0,9,,,,,,,,,,,,,,,,13,,48,0
10559,note_on,,59,0,7,,,,,,,,,,,,,,,,10,,67,0
10559,note_on,,0,0,10,,,,,,,,,,,,,,,,15,,55,0
10559,note_on,,0,0,10,,,,,,,,,,,,,,,,15,,60,0
10559,note_on,,0,0,10,,,,,,,,,,,,,,,,15,,64,0
10559,note_on,,59,0,8,,,,,,,,,,,,,,,,11,,67,0
10559,note_on,,119,0,10,,,,,,,,,,,,,,,,15,,48,0
10560,note_on,,0,0,10,,,,,,,,,,,,,,,,15,,48,48
10560,note_on,,0,0,10,,,,,,,,,,,,,,,,15,,52,48
10560,note_on,,0,0,10,,,,,,,,,,,,,,,,15,,55,48
10560,note_on,,0,0,10,,,,,,,,,,,,,,,,15,,60,48
10560,note_on,,1,0,10,,,,,,,,,,,,,,,,15,,36,48
10560,note_on,,1,0,6,,,,,,,,,,,,,,,,7,,60,72
10560,note_on,,1,0,7,,,,,,,,,,,,,,,,10,,72,72
10560,note_on,,1,0,8,,,,,,,,,,,,,,,,11,,72,72
10560,note_on,,1,0,9,,,,,,,,,,,,,,,,13,,36,48
10589,note_on,,29,0,7,,,,,,,,,,,,,,,,10,,72,0
10589,note_on,,29,0,8,,,,,,,,,,,,,,,,11,,72,0
10590,note_on,,1,0,7,,,,,,,,,,,,,,,,10,,71,72
10590,note_on,,1,0,8,,,,,,,,,,,,,,,,11,,71,72
10619,note_on,,29,0,7,,,,,,,,,,,,,,,,10,,71,0
10619,note_on,,29,0,8,,,,,,,,,,,,,,,,11,,71,0
10620,note_on,,1,0,8,,,,,,,,,,,,,,,,11,,72,72
10620,note_on,,1,0,7,,,,,,,,,,,,,,,,10,,72,72
10649,note_on,,29,0,8,,,,,,,,,,,,,,,,11,,72,0
10649,note_on,,29,0,7,,,,,,,,,,,,,,,,10,,72,0
10650,note_on,,1,0,8,,,,,,,,,,,,,,,,11,,71,72
10650,note_on,,1,0,7,,,,,,,,,,,,,,,,10,,71,72
10679,note_on,,0,0,10,,,,,,,,,,,,,,,,15,,60,0
10679,note_on,,29,0,8,,,,,,,,,,,,,,,,11,,71,0
10679,note_on,,119,0,6,,,,,,,,,,,,,,,,7,,60,0
10679,note_on,,29,0,7,,,,,,,,,,,,,,,,10,,71,0
10679,note_on,,0,0,10,,,,,,,,,,,,,,,,15,,55,0
10679,note_on,,0,0,10,,,,,,,,,,,,,,,,15,,52,0
10679,note_on,,0,0,10,,,,,,,,,,,,,,,,15,,48,0
10679,note_on,,119,0,9,,,,,,,,,,,,,,,,13,,36,0
10679,note_on,,119,0,10,,,,,,,,,,,,,,,,15,,36,0
10680,note_on,,1,0,7,,,,,,,,,,,,,,,,10,,72,72
10680,note_on,,1,0,8,,,,,,,,,,,,,,,,11,,72,72
10739,note_on,,59,0,7,,,,,,,,,,,,,,,,10,,72,0
10739,note_on,,59,0,8,,,,,,,,,,,,,,,,11,,72,0
10740,note_on,,0,0,10,,,,,,,,,,,,,,,,15,,52,72
10740,note_on,,0,0,10,,,,,,,,,,,,,,,,15,,60,72
10740,note_on,,61,0,10,,,,,,,,,,,,,,,,15,,48,72
10740,note_on,,1,0,7,,,,,,,,,,,,,,,,10,,60,72
10740,note_on,,1,0,8,,,,,,,,,,,,,,,,11,,60,72
10740,note_on,,0,0,10,,,,,,,,,,,,,,,,15,,55,72
10740,note_on,,61,0,9,,,,,,,,,,,,,,,,13,,48,72
10740,note_on,,4861,0,5,,,,,,,,,,,,,,,,2,,48,72
10784,note_on,,44,0,7,,,,,,,,,,,,,,,,10,,60,0
10784,note_on,,44,0,8,,,,,,,,,,,,,,,,11,,60,0
10799,note_on,,59,0,10,,,,,,,,,,,,,,,,15,,48,0
10799,note_on,,0,0,10,,,,,,,,,,,,,,,,15,,52,0
10799,note_on,,0,0,10,,,,,,,,,,,,,,,,15,,55,0
10799,note_on,,59,0,5,,,,,,,,,,,,,,,,2,,48,0
10799,note_on,,0,0,10,,,,,,,,,,,,,,,,15,,60,0
10799,note_on,,59,0,9,,,,,,,,,,,,,,,,13,,48,0
10800,note_on,,1,0,5,,,,,,,,,,,,,,,,2,,47,72
10800,note_on,,16,0,7,,,,,,,,,,,,,,,,10,,59,72
10800,note_on,,16,0,8,,,,,,,,,,,,,,,,11,,59,72
10800,note_on,,0,0,10,,,,,,,,,,,,,,,,15,,50,72
10800,note_on,,0,0,10,,,,,,,,,,,,,,,,15,,62,72
10800,note_on,,0,0,10,,,,,,,,,,,,,,,,15,,67,72
10800,note_on,,0,0,10,,,,,,,,,,,,,,,,15,,55,72
10800,note_on,,1,0,10,,,,,,,,,,,,,,,,15,,47,72
10800,note_on,,1,0,9,,,,,,,,,,,,,,,,13,,47,72
10844,note_on,,44,0,7,,,,,,,,,,,,,,,,10,,59,0
10844,note_on,,44,0,8,,,,,,,,,,,,,,,,11,,59,0
10860,note_on,,16,0,7,,,,,,,,,,,,,,,,10,,67,72
10860,note_on,,16,0,8,,,,,,,,,,,,,,,,11,,67,72
10919,note_on,,0,0,10,,,,,,,,,,,,,,,,15,,62,0
10919,note_on,,0,0,10,,,,,,,,,,,,,,,,15,,67,0
10919,note_on,,119,0,10,,,,,,,,,,,,,,,,15,,47,0
10919,note_on,,59,0,8,,,,,,,,,,,,,,,,11,,67,0
10919,note_on,,0,0,10,,,,,,,,,,,,,,,,15,,55,0
10919,note_on,,0,0,10,,,,,,,,,,,,,,,,15,,50,0
10919,note_on,,119,0,5,,,,,,,,,,,,,,,,2,,47,0
10919,note_on,,119,0,9,,,,,,,,,,,,,,,,13,,47,0
10919,note_on,,59,0,7,,,,,,,,,,,,,,,,10,,67,0
10920,note_on,,1,0,7,,,,,,,,,,,,,,,,10,,72,72
10920,note_on,,1,0,8,,,,,,,,,,,,,,,,11,,72,72
10949,note_on,,29,0,7,,,,,,,,,,,,,,,,10,,72,0
10949,note_on,,29,0,8,,,,,,,,,,,,,,,,11,,72,0
10950,note_on,,1,0,7,,,,,,,,,,,,,,,,10,,71,72
10950,note_on,,1,0,8,,,,,,,,,,,,,,,,11,,71,72
10979,note_on,,29,0,7,,,,,,,,,,,,,,,,10,,71,0
10979,note_on,,29,0,8,,,,,,,,,,,,,,,,11,,71,0
10980,note_on,,1,0,8,,,,,,,,,,,,,,,,11,,72,72
10980,note_on,,1,0,7,,,,,,,,,,,,,,,,10,,72,72
11009,note_on,,29,0,7,,,,,,,,,,,,,,,,10,,72,0
11009,note_on,,29,0,8,,,,,,,,,,,,,,,,11,,72,0
11010,note_on,,1,0,7,,,,,,,,,,,,,,,,10,,71,72
11010,note_on,,1,0,8,,,,,,,,,,,,,,,,11,,71,72
11039,note_on,,29,0,7,,,,,,,,,,,,,,,,10,,71,0
11039,note_on,,29,0,8,,,,,,,,,,,,,,,,11,,71,0
11040,note_on,,1,0,8,,,,,,,,,,,,,,,,11,,72,72
11040,note_on,,1,0,7,,,,,,,,,,,,,,,,10,,72,72
11099,note_on,,59,0,8,,,,,,,,,,,,,,,,11,,72,0
11099,note_on,,59,0,7,,,,,,,,,,,,,,,,10,,72,0
11100,note_on,,181,0,10,,,,,,,,,,,,,,,,15,,46,72
11100,note_on,,181,0,9,,,,,,,,,,,,,,,,13,,46,72
11100,note_on,,0,0,10,,,,,,,,,,,,,,,,15,,62,72
11100,note_on,,0,0,10,,,,,,,,,,,,,,,,15,,67,72
11100,note_on,,0,0,10,,,,,,,,,,,,,,,,15,,55,72
11100,note_on,,181,0,5,,,,,,,,,,,,,,,,2,,46,72
11100,note_on,,0,0,10,,,,,,,,,,,,,,,,15,,50,72
11100,note_on,,1,0,8,,,,,,,,,,,,,,,,11,,58,72
11100,note_on,,1,0,7,,,,,,,,,,,,,,,,10,,58,72
11144,note_on,,44,0,8,,,,,,,,,,,,,,,,11,,58,0
11144,note_on,,44,0,7,,,,,,,,,,,,,,,,10,,58,0
11159,note_on,,59,0,5,,,,,,,,,,,,,,,,2,,46,0
11159,note_on,,59,0,9,,,,,,,,,,,,,,,,13,,46,0
11159,note_on,,59,0,10,,,,,,,,,,,,,,,,15,,46,0
11159,note_on,,0,0,10,,,,,,,,,,,,,,,,15,,50,0
11159,note_on,,0,0,10,,,,,,,,,,,,,,,,15,,55,0
11159,note_on,,0,0,10,,,,,,,,,,,,,,,,15,,62,0
11159,note_on,,0,0,10,,,,,,,,,,,,,,,,15,,67,0
11160,note_on,,0,0,10,,,,,,,,,,,,,,,,15,,67,72
11160,note_on,,0,0,10,,,,,,,,,,,,,,,,15,,57,72
11160,note_on,,0,0,10,,,,,,,,,,,,,,,,15,,55,72
11160,note_on,,0,0,10,,,,,,,,,,,,,,,,15,,60,72
11160,note_on,,1,0,10,,,,,,,,,,,,,,,,15,,45,72
11160,note_on,,16,0,7,,,,,,,,,,,,,,,,10,,57,72
11160,note_on,,16,0,8,,,,,,,,,,,,,,,,11,,57,72
11160,note_on,,1,0,9,,,,,,,,,,,,,,,,13,,45,72
11160,note_on,,1,0,5,,,,,,,,,,,,,,,,2,,45,72
11204,note_on,,44,0,7,,,,,,,,,,,,,,,,10,,57,0
11204,note_on,,44,0,8,,,,,,,,,,,,,,,,11,,57,0
11220,note_on,,16,0,7,,,,,,,,,,,,,,,,10,,67,72
11220,note_on,,16,0,8,,,,,,,,,,,,,,,,11,,67,72
11279,note_on,,119,0,10,,,,,,,,,,,,,,,,15,,45,0
11279,note_on,,0,0,10,,,,,,,,,,,,,,,,15,,67,0
11279,note_on,,0,0,10,,,,,,,,,,,,,,,,15,,60,0
11279,note_on,,0,0,10,,,,,,,,,,,,,,,,15,,55,0
11279,note_on,,0,0,10,,,,,,,,,,,,,,,,15,,57,0
11279,note_on,,119,0,5,,,,,,,,,,,,,,,,2,,45,0
11279,note_on,,119,0,9,,,,,,,,,,,,,,,,13,,45,0
11279,note_on,,59,0,8,,,,,,,,,,,,,,,,11,,67,0
11279,note_on,,59,0,7,,,,,,,,,,,,,,,,10,,67,0
11280,note_on,,1,0,8,,,,,,,,,,,,,,,,11,,72,72
11280,note_on,,1,0,7,,,,,,,,,,,,,,,,10,,72,72
11309,note_on,,29,0,8,,,,,,,,,,,,,,,,11,,72,0
11309,note_on,,29,0,7,,,,,,,,,,,,,,,,10,,72,0
11310,note_on,,1,0,8,,,,,,,,,,,,,,,,11,,71,72
11310,note_on,,1,0,7,,,,,,,,,,,,,,,,10,,71,72
11339,note_on,,29,0,7,,,,,,,,,,,,,,,,10,,71,0
11339,note_on,,29,0,8,,,,,,,,,,,,,,,,11,,71,0
11340,note_on,,1,0,7,,,,,,,,,,,,,,,,10,,72,72
11340,note_on,,1,0,8,,,,,,,,,,,,,,,,11,,72,72
11369,note_on,,29,0,7,,,,,,,,,,,,,,,,10,,72,0
11369,note_on,,29,0,8,,,,,,,,,,,,,,,,11,,72,0
11370,note_on,,1,0,7,,,,,,,,,,,,,,,,10,,71,72
11370,note_on,,1,0,8,,,,,,,,,,,,,,,,11,,71,72
11399,note_on,,29,0,8,,,,,,,,,,,,,,,,11,,71,0
11399,note_on,,29,0,7,,,,,,,,,,,,,,,,10,,71,0
11400,note_on,,1,0,8,,,,,,,,,,,,,,,,11,,72,72
11400,note_on,,1,0,7,,,,,,,,,,,,,,,,10,,72,72
11459,note_on,,59,0,7,,,,,,,,,,,,,,,,10,,72,0
11459,note_on,,59,0,8,,,,,,,,,,,,,,,,11,,72,0
11460,note_on,,181,0,10,,,,,,,,,,,,,,,,15,,44,72
11460,note_on,,181,0,9,,,,,,,,,,,,,,,,13,,44,72
11460,note_on,,0,0,10,,,,,,,,,,,,,,,,15,,48,72
11460,note_on,,0,0,10,,,,,,,,,,,,,,,,15,,65,72
11460,note_on,,0,0,10,,,,,,,,,,,,,,,,15,,60,72
11460,note_on,,1,0,8,,,,,,,,,,,,,,,,11,,56,72
11460,note_on,,181,0,5,,,,,,,,,,,,,,,,2,,44,72
11460,note_on,,1,0,7,,,,,,,,,,,,,,,,10,,56,72
11519,note_on,,59,0,5,,,,,,,,,,,,,,,,2,,44,0
11519,note_on,,59,0,8,,,,,,,,,,,,,,,,11,,56,0
11519,note_on,,59,0,10,,,,,,,,,,,,,,,,15,,44,0
11519,note_on,,0,0,10,,,,,,,,,,,,,,,,15,,65,0
11519,note_on,,0,0,10,,,,,,,,,,,,,,,,15,,60,0
11519,note_on,,0,0,10,,,,,,,,,,,,,,,,15,,48,0
11519,note_on,,59,0,9,,,,,,,,,,,,,,,,13,,44,0
11519,note_on,,59,0,7,,,,,,,,,,,,,,,,10,,56,0
11520,note_on,,0,0,10,,,,,,,,,,,,,,,,15,,65,72
11520,note_on,,0,0,10,,,,,,,,,,,,,,,,15,,62,72
11520,note_on,,0,0,10,,,,,,,,,,,,,,,,15,,59,72
11520,note_on,,0,0,10,,,,,,,,,,,,,,,,15,,50,72
11520,note_on,,1,0,10,,,,,,,,,,,,,,,,15,,43,72
11520,note_on,,1,0,7,,,,,,,,,,,,,,,,10,,55,72
11520,note_on,,1,0,9,,,,,,,,,,,,,,,,13,,43,72
11520,note_on,,1,0,8,,,,,,,,,,,,,,,,11,,55,72
11520,note_on,,1,0,5,,,,,,,,,,,,,,,,2,,43,72
11579,note_on,,59,0,7,,,,,,,,,,,,,,,,10,,55,0
11579,note_on,,59,0,8,,,,,,,,,,,,,,,,11,,55,0
11580,note_on,,1,0,7,,,,,,,,,,,,,,,,10,,59,72
11580,note_on,,1,0,8,,,,,,,,,,,,,,,,11,,59,72
11639,note_on,,0,0,10,,,,,,,,,,,,,,,,15,,65,0
11639,note_on,,119,0,10,,,,,,,,,,,,,,,,15,,43,0
11639,note_on,,0,0,10,,,,,,,,,,,,,,,,15,,62,0
11639,note_on,,59,0,7,,,,,,,,,,,,,,,,10,,59,0
11639,note_on,,119,0,9,,,,,,,,,,,,,,,,13,,43,0
11639,note_on,,0,0,10,,,,,,,,,,,,,,,,15,,50,0
11639,note_on,,0,0,10,,,,,,,,,,,,,,,,15,,59,0
11639,note_on,,119,0,5,,,,,,,,,,,,,,,,2,,43,0
11639,note_on,,59,0,8,,,,,,,,,,,,,,,,11,,59,0
11640,note_on,,1,0,8,,,,,,,,,,,,,,,,11,,62,72
11640,note_on,,1,0,7,,,,,,,,,,,,,,,,10,,62,72
11699,note_on,,59,0,7,,,,,,,,,,,,,,,,10,,62,0
11699,note_on,,59,0,8,,,,,,,,,,,,,,,,11,,62,0
11700,note_on,,1,0,7,,,,,,,,,,,,,,,,10,,65,72
11700,note_on,,1,0,8,,,,,,,,,,,,,,,,11,,65,72
11759,note_on,,59,0,8,,,,,,,,,,,,,,,,11,,65,0
11759,note_on,,59,0,7,,,,,,,,,,,,,,,,10,,65,0
11760,note_on,,1,0,7,,,,,,,,,,,,,,,,10,,71,72
11760,note_on,,1,0,8,,,,,,,,,,,,,,,,11,,71,72
11819,note_on,,59,0,8,,,,,,,,,,,,,,,,11,,71,0
11819,note_on,,59,0,7,,,,,,,,,,,,,,,,10,,71,0
11820,note_on,,0,0,10,,,,,,,,,,,,,,,,15,,74,72
11820,note_on,,181,0,9,,,,,,,,,,,,,,,,13,,59,72
11820,note_on,,1,0,7,,,,,,,,,,,,,,,,10,,74,72
11820,note_on,,181,0,10,,,,,,,,,,,,,,,,15,,59,72
11820,note_on,,181,0,5,,,,,,,,,,,,,,,,2,,59,72
11820,note_on,,0,0,10,,,,,,,,,,,,,,,,15,,67,72
11820,note_on,,1,0,8,,,,,,,,,,,,,,,,11,,74,72
11820,note_on,,0,0,10,,,,,,,,,,,,,,,,15,,62,72
11879,note_on,,59,0,10,,,,,,,,,,,,,,,,15,,59,0
11879,note_on,,59,0,9,,,,,,,,,,,,,,,,13,,59,0
11879,note_on,,59,0,8,,,,,,,,,,,,,,,,11,,74,0
11879,note_on,,0,0,10,,,,,,,,,,,,,,,,15,,62,0
11879,note_on,,59,0,5,,,,,,,,,,,,,,,,2,,59,0
11879,note_on,,59,0,7,,,,,,,,,,,,,,,,10,,74,0
11879,note_on,,0,0,10,,,,,,,,,,,,,,,,15,,74,0
11879,note_on,,0,0,10,,,,,,,,,,,,,,,,15,,67,0
11880,note_on,,1,0,10,,,,,,,,,,,,,,,,15,,60,72
11880,note_on,,0,0,10,,,,,,,,,,,,,,,,15,,67,72
11880,note_on,,1,0,7,,,,,,,,,,,,,,,,10,,76,72
11880,note_on,,1,0,9,,,,,,,,,,,,,,,,13,,60,72
11880,note_on,,1,0,8,,,,,,,,,,,,,,,,11,,76,72
11880,note_on,,1,0,5,,,,,,,,,,,,,,,,2,,60,72
11880,note_on,,0,0,10,,,,,,,,,,,,,,,,15,,64,72
11939,note_on,,59,0,7,,,,,,,,,,,,,,,,10,,76,0
11939,note_on,,59,0,5,,,,,,,,,,,,,,,,2,,60,0
11939,note_on,,59,0,9,,,,,,,,,,,,,,,,13,,60,0
11939,note_on,,59,0,10,,,,,,,,,,,,,,,,15,,60,0
11939,note_on,,0,0,10,,,,,,,,,,,,,,,,15,,67,0
11939,note_on,,0,0,10,,,,,,,,,,,,,,,,15,,64,0
11939,note_on,,59,0,8,,,,,,,,,,,,,,,,11,,76,0
11940,note_on,,1,0,9,,,,,,,,,,,,,,,,13,,53,72
11940,note_on,,1,0,7,,,,,,,,,,,,,,,,10,,77,72
11940,note_on,,1,0,8,,,,,,,,,,,,,,,,11,,77,72
11940,note_on,,1,0,5,,,,,,,,,,,,,,,,2,,53,72
11940,note_on,,0,0,10,,,,,,,,,,,,,,,,15,,60,72
11940,note_on,,0,0,10,,,,,,,,,,,,,,,,15,,65,72
11940,note_on,,1,0,10,,,,,,,,,,,,,,,,15,,53,72
11940,note_on,,0,0,10,,,,,,,,,,,,,,,,15,,69,72
11999,note_on,,0,0,10,,,,,,,,,,,,,,,,15,,69,0
11999,note_on,,0,0,10,,,,,,,,,,,,,,,,15,,60,0
11999,note_on,,0,0,10,,,,,,,,,,,,,,,,15,,65,0
11999,note_on,,59,0,8,,,,,,,,,,,,,,,,11,,77,0
11999,note_on,,59,0,5,,,,,,,,,,,,,,,,2,,53,0
11999,note_on,,59,0,9,,,,,,,,,,,,,,,,13,,53,0
11999,note_on,,59,0,10,,,,,,,,,,,,,,,,15,,53,0
11999,note_on,,59,0,7,,,,,,,,,,,,,,,,10,,77,0
12000,note_on,,0,0,10,,,,,,,,,,,,,,,,15,,59,72
12000,note_on,,0,0,10,,,,,,,,,,,,,,,,15,,62,72
12000,note_on,,1,0,10,,,,,,,,,,,,,,,,15,,55,72
12000,note_on,,1,0,9,,,,,,,,,,,,,,,,13,,55,72
12000,note_on,,1,0,5,,,,,,,,,,,,,,,,2,,55,72
12000,note_on,,1,0,8,,,,,,,,,,,,,,,,11,,71,72
12000,note_on,,1,0,7,,,,,,,,,,,,,,,,10,,71,72
12014,note_on,,14,0,7,,,,,,,,,,,,,,,,10,,71,0
12014,note_on,,14,0,8,,,,,,,,,,,,,,,,11,,71,0
12015,note_on,,1,0,8,,,,,,,,,,,,,,,,11,,72,72
12015,note_on,,1,0,7,,,,,,,,,,,,,,,,10,,72,72
12029,note_on,,14,0,7,,,,,,,,,,,,,,,,10,,72,0
12029,note_on,,14,0,8,,,,,,,,,,,,,,,,11,,72,0
12030,note_on,,1,0,7,,,,,,,,,,,,,,,,10,,71,72
12030,note_on,,1,0,8,,,,,,,,,,,,,,,,11,,71,72
12044,note_on,,14,0,7,,,,,,,,,,,,,,,,10,,71,0
12044,note_on,,14,0,8,,,,,,,,,,,,,,,,11,,71,0
12045,note_on,,1,0,7,,,,,,,,,,,,,,,,10,,72,72
12045,note_on,,1,0,8,,,,,,,,,,,,,,,,11,,72,72
12059,note_on,,14,0,8,,,,,,,,,,,,,,,,11,,72,0
12059,note_on,,14,0,7,,,,,,,,,,,,,,,,10,,72,0
12060,note_on,,1,0,8,,,,,,,,,,,,,,,,11,,71,72
12060,note_on,,1,0,7,,,,,,,,,,,,,,,,10,,71,72
12074,note_on,,14,0,8,,,,,,,,,,,,,,,,11,,71,0
12074,note_on,,14,0,7,,,,,,,,,,,,,,,,10,,71,0
12075,note_on,,1,0,8,,,,,,,,,,,,,,,,11,,72,72
12075,note_on,,1,0,7,,,,,,,,,,,,,,,,10,,72,72
12089,note_on,,14,0,7,,,,,,,,,,,,,,,,10,,72,0
12089,note_on,,14,0,8,,,,,,,,,,,,,,,,11,,72,0
12090,note_on,,1,0,8,,,,,,,,,,,,,,,,11,,71,72
12090,note_on,,1,0,7,,,,,,,,,,,,,,,,10,,71,72
12104,note_on,,14,0,7,,,,,,,,,,,,,,,,10,,71,0
12104,note_on,,14,0,8,,,,,,,,,,,,,,,,11,,71,0
12105,note_on,,1,0,7,,,,,,,,,,,,,,,,10,,72,72
12105,note_on,,1,0,8,,,,,,,,,,,,,,,,11,,72,72
12119,note_on,,0,0,10,,,,,,,,,,,,,,,,15,,62,0
12119,note_on,,0,0,10,,,,,,,,,,,,,,,,15,,59,0
12119,note_on,,119,0,5,,,,,,,,,,,,,,,,2,,55,0
12119,note_on,,119,0,9,,,,,,,,,,,,,,,,13,,55,0
12119,note_on,,14,0,7,,,,,,,,,,,,,,,,10,,72,0
12119,note_on,,14,0,8,,,,,,,,,,,,,,,,11,,72,0
12119,note_on,,119,0,10,,,,,,,,,,,,,,,,15,,55,0
12120,note_on,,0,0,10,,,,,,,,,,,,,,,,15,,55,72
12120,note_on,,0,0,10,,,,,,,,,,,,,,,,15,,59,72
12120,note_on,,1,0,9,,,,,,,,,,,,,,,,13,,43,72
12120,note_on,,1,0,8,,,,,,,,,,,,,,,,11,,71,72
12120,note_on,,0,0,10,,,,,,,,,,,,,,,,15,,67,72
12120,note_on,,1,0,7,,,,,,,,,,,,,,,,10,,71,72
12120,note_on,,1,0,10,,,,,,,,,,,,,,,,15,,43,72
12120,note_on,,1,0,5,,,,,,,,,,,,,,,,2,,43,72
12120,note_on,,0,0,10,,,,,,,,,,,,,,,,15,,62,72
12134,note_on,,14,0,7,,,,,,,,,,,,,,,,10,,71,0
12134,note_on,,14,0,8,,,,,,,,,,,,,,,,11,,71,0
12135,note_on,,1,0,7,,,,,,,,,,,,,,,,10,,72,72
12135,note_on,,1,0,8,,,,,,,,,,,,,,,,11,,72,72
12149,note_on,,14,0,8,,,,,,,,,,,,,,,,11,,72,0
12149,note_on,,14,0,7,,,,,,,,,,,,,,,,10,,72,0
12150,note_on,,1,0,8,,,,,,,,,,,,,,,,11,,69,72
12150,note_on,,1,0,7,,,,,,,,,,,,,,,,10,,69,72
12164,note_on,,14,0,7,,,,,,,,,,,,,,,,10,,69,0
12164,note_on,,14,0,8,,,,,,,,,,,,,,,,11,,69,0
12165,note_on,,1,0,8,,,,,,,,,,,,,,,,11,,71,72
12165,note_on,,1,0,7,,,,,,,,,,,,,,,,10,,71,72
12179,note_on,,14,0,8,,,,,,,,,,,,,,,,11,,71,0
12179,note_on,,14,0,7,,,,,,,,,,,,,,,,10,,71,0
12180,note_on,,1,0,8,,,,,,,,,,,,,,,,11,,72,72
12180,note_on,,1,0,7,,,,,,,,,,,,,,,,10,,72,72
12239,note_on,,119,0,9,,,,,,,,,,,,,,,,13,,43,0
12239,note_on,,119,0,10,,,,,,,,,,,,,,,,15,,43,0
12239,note_on,,59,0,8,,,,,,,,,,,,,,,,11,,72,0
12239,note_on,,0,0,10,,,,,,,,,,,,,,,,15,,62,0
12239,note_on,,59,0,7,,,,,,,,,,,,,,,,10,,72,0
12239,note_on,,0,0,10,,,,,,,,,,,,,,,,15,,59,0
12239,note_on,,0,0,10,,,,,,,,,,,,,,,,15,,67,0
12239,note_on,,0,0,10,,,,,,,,,,,,,,,,15,,55,0
12239,note_on,,119,0,5,,,,,,,,,,,,,,,,2,,43,0
12240,note_on,,1,0,8,,,,,,,,,,,,,,,,11,,72,72
12240,note_on,,0,0,10,,,,,,,,,,,,,,,,15,,60,72
12240,note_on,,0,0,10,,,,,,,,,,,,,,,,15,,64,72
12240,note_on,,1,0,10,,,,,,,,,,,,,,,,15,,48,72
12240,note_on,,1,0,5,,,,,,,,,,,,,,,,2,,48,72
12240,note_on,,0,0,10,,,,,,,,,,,,,,,,15,,55,72
12240,note_on,,1,0,9,,,,,,,,,,,,,,,,13,,48,72
12240,note_on,,1,0,7,,,,,,,,,,,,,,,,10,,72,72
12359,note_on,,0,0,10,,,,,,,,,,,,,,,,15,,55,0
12359,note_on,,119,0,9,,,,,,,,,,,,,,,,13,,48,0
12359,note_on,,119,0,10,,,,,,,,,,,,,,,,15,,48,0
12359,note_on,,0,0,10,,,,,,,,,,,,,,,,15,,64,0
12359,note_on,,0,0,10,,,,,,,,,,,,,,,,15,,60,0
12359,note_on,,119,0,5,,,,,,,,,,,,,,,,2,,48,0
12359,note_on,,119,0,8,,,,,,,,,,,,,,,,11,,72,0
12359,note_on,,119,0,7,,,,,,,,,,,,,,,,10,,72,0
12360,note_on,,1681,0,6,,,,,,,,,,,,,,,,7,,57,72
12479,note_on,,119,0,6,,,,,,,,,,,,,,,,7,,57,0
12480,note_on,,1,0,6,,,,,,,,,,,,,,,,7,,59,72
12599,note_on,,119,0,6,,,,,,,,,,,,,,,,7,,59,0
12600,note_on,,1,0,6,,,,,,,,,,,,,,,,7,,60,72
12600,note_on,,0,0,10,,,,,,,,,,,,,,,,15,,64,72
12600,note_on,,0,0,10,,,,,,,,,,,,,,,,15,,45,72
12600,note_on,,241,0,10,,,,,,,,,,,,,,,,15,,60,72
12600,note_on,,0,0,10,,,,,,,,,,,,,,,,15,,57,72
12600,note_on,,241,0,9,,,,,,,,,,,,,,,,13,,45,72
12600,note_on,,241,0,5,,,,,,,,,,,,,,,,2,,45,72
12660,note_on,,301,0,8,,,,,,,,,,,,,,,,11,,76,72
12660,note_on,,301,0,7,,,,,,,,,,,,,,,,10,,76,72
12719,note_on,,59,0,7,,,,,,,,,,,,,,,,10,,76,0
12719,note_on,,119,0,6,,,,,,,,,,,,,,,,7,,60,0
12719,note_on,,119,0,5,,,,,,,,,,,,,,,,2,,45,0
12719,note_on,,59,0,8,,,,,,,,,,,,,,,,11,,76,0
12719,note_on,,119,0,10,,,,,,,,,,,,,,,,15,,60,0
12719,note_on,,0,0,10,,,,,,,,,,,,,,,,15,,45,0
12719,note_on,,119,0,9,,,,,,,,,,,,,,,,13,,45,0
12719,note_on,,0,0,10,,,,,,,,,,,,,,,,15,,57,0
12719,note_on,,0,0,10,,,,,,,,,,,,,,,,15,,64,0
12720,note_on,,1,0,6,,,,,,,,,,,,,,,,7,,57,72
12720,note_on,,1,0,8,,,,,,,,,,,,,,,,11,,81,72
12720,note_on,,1,0,7,,,,,,,,,,,,,,,,10,,81,72
12749,note_on,,29,0,8,,,,,,,,,,,,,,,,11,,81,0
12749,note_on,,29,0,7,,,,,,,,,,,,,,,,10,,81,0
12750,note_on,,1,0,7,,,,,,,,,,,,,,,,10,,80,72
12750,note_on,,1,0,8,,,,,,,,,,,,,,,,11,,80,72
12779,note_on,,29,0,7,,,,,,,,,,,,,,,,10,,80,0
12779,note_on,,29,0,8,,,,,,,,,,,,,,,,11,,80,0
12780,note_on,,1,0,7,,,,,,,,,,,,,,,,10,,81,72
12780,note_on,,1,0,8,,,,,,,,,,,,,,,,11,,81,72
12809,note_on,,29,0,7,,,,,,,,,,,,,,,,10,,81,0
12809,note_on,,29,0,8,,,,,,,,,,,,,,,,11,,81,0
12810,note_on,,1,0,8,,,,,,,,,,,,,,,,11,,80,72
12810,note_on,,1,0,7,,,,,,,,,,,,,,,,10,,80,72
12839,note_on,,29,0,7,,,,,,,,,,,,,,,,10,,80,0
12839,note_on,,29,0,8,,,,,,,,,,,,,,,,11,,80,0
12839,note_on,,119,0,6,,,,,,,,,,,,,,,,7,,57,0
12840,note_on,,1,0,8,,,,,,,,,,,,,,,,11,,81,72
12840,note_on,,1,0,7,,,,,,,,,,,,,,,,10,,81,72
12899,note_on,,59,0,8,,,,,,,,,,,,,,,,11,,81,0
12899,note_on,,59,0,7,,,,,,,,,,,,,,,,10,,81,0
12900,note_on,,1,0,8,,,,,,,,,,,,,,,,11,,60,72
12900,note_on,,0,0,10,,,,,,,,,,,,,,,,15,,60,72
12900,note_on,,1,0,7,,,,,,,,,,,,,,,,10,,60,72
12900,note_on,,181,0,5,,,,,,,,,,,,,,,,2,,57,72
12900,note_on,,0,0,10,,,,,,,,,,,,,,,,15,,64,72
12900,note_on,,0,0,10,,,,,,,,,,,,,,,,15,,69,72
12900,note_on,,181,0,10,,,,,,,,,,,,,,,,15,,57,72
12900,note_on,,181,0,9,,,,,,,,,,,,,,,,13,,57,72
12959,note_on,,59,0,9,,,,,,,,,,,,,,,,13,,57,0
12959,note_on,,0,0,10,,,,,,,,,,,,,,,,15,,69,0
12959,note_on,,59,0,8,,,,,,,,,,,,,,,,11,,60,0
12959,note_on,,59,0,10,,,,,,,,,,,,,,,,15,,57,0
12959,note_on,,59,0,7,,,,,,,,,,,,,,,,10,,60,0
12959,note_on,,0,0,10,,,,,,,,,,,,,,,,15,,60,0
12959,note_on,,59,0,5,,,,,,,,,,,,,,,,2,,57,0
12959,note_on,,0,0,10,,,,,,,,,,,,,,,,15,,64,0
12960,note_on,,1,0,8,,,,,,,,,,,,,,,,11,,59,72
12960,note_on,,1,0,10,,,,,,,,,,,,,,,,15,,55,72
12960,note_on,,0,0,10,,,,,,,,,,,,,,,,15,,71,72
12960,note_on,,0,0,10,,,,,,,,,,,,,,,,15,,64,72
12960,note_on,,0,0,10,,,,,,,,,,,,,,,,15,,59,72
12960,note_on,,1,0,7,,,,,,,,,,,,,,,,10,,59,72
12960,note_on,,1,0,5,,,,,,,,,,,,,,,,2,,55,72
12960,note_on,,1,0,9,,,,,,,,,,,,,,,,13,,55,72
13019,note_on,,59,0,7,,,,,,,,,,,,,,,,10,,59,0
13019,note_on,,59,0,8,,,,,,,,,,,,,,,,11,,59,0
13020,note_on,,1,0,8,,,,,,,,,,,,,,,,11,,76,72
13020,note_on,,1,0,7,,,,,,,,,,,,,,,,10,,76,72
13079,note_on,,59,0,7,,,,,,,,,,,,,,,,10,,76,0
13079,note_on,,119,0,5,,,,,,,,,,,,,,,,2,,55,0
13079,note_on,,119,0,10,,,,,,,,,,,,,,,,15,,55,0
13079,note_on,,59,0,8,,,,,,,,,,,,,,,,11,,76,0
13079,note_on,,119,0,9,,,,,,,,,,,,,,,,13,,55,0
13079,note_on,,0,0,10,,,,,,,,,,,,,,,,15,,71,0
13079,note_on,,0,0,10,,,,,,,,,,,,,,,,15,,59,0
13079,note_on,,0,0,10,,,,,,,,,,,,,,,,15,,64,0
13080,note_on,,1,0,7,,,,,,,,,,,,,,,,10,,81,72
13080,note_on,,1,0,8,,,,,,,,,,,,,,,,11,,81,72
13109,note_on,,29,0,7,,,,,,,,,,,,,,,,10,,81,0
13109,note_on,,29,0,8,,,,,,,,,,,,,,,,11,,81,0
13110,note_on,,1,0,7,,,,,,,,,,,,,,,,10,,80,72
13110,note_on,,1,0,8,,,,,,,,,,,,,,,,11,,80,72
13139,note_on,,29,0,8,,,,,,,,,,,,,,,,11,,80,0
13139,note_on,,29,0,7,,,,,,,,,,,,,,,,10,,80,0
13140,note_on,,1,0,8,,,,,,,,,,,,,,,,11,,81,72
13140,note_on,,1,0,7,,,,,,,,,,,,,,,,10,,81,72
13169,note_on,,29,0,7,,,,,,,,,,,,,,,,10,,81,0
13169,note_on,,29,0,8,,,,,,,,,,,,,,,,11,,81,0
13170,note_on,,1,0,7,,,,,,,,,,,,,,,,10,,80,72
13170,note_on,,1,0,8,,,,,,,,,,,,,,,,11,,80,72
13199,note_on,,29,0,7,,,,,,,,,,,,,,,,10,,80,0
13199,note_on,,29,0,8,,,,,,,,,,,,,,,,11,,80,0
13200,note_on,,1,0,7,,,,,,,,,,,,,,,,10,,81,72
13200,note_on,,1,0,8,,,,,,,,,,,,,,,,11,,81,72
13259,note_on,,59,0,8,,,,,,,,,,,,,,,,11,,81,0
13259,note_on,,59,0,7,,,,,,,,,,,,,,,,10,,81,0
13260,note_on,,1,0,7,,,,,,,,,,,,,,,,10,,62,72
13260,note_on,,181,0,10,,,,,,,,,,,,,,,,15,,53,72
13260,note_on,,181,0,5,,,,,,,,,,,,,,,,2,,53,72
13260,note_on,,181,0,9,,,,,,,,,,,,,,,,13,,53,72
13260,note_on,,0,0,10,,,,,,,,,,,,,,,,15,,74,72
13260,note_on,,1,0,8,,,,,,,,,,,,,,,,11,,62,72
13260,note_on,,0,0,10,,,,,,,,,,,,,,,,15,,69,72
13260,note_on,,0,0,10,,,,,,,,,,,,,,,,15,,65,72
13260,note_on,,0,0,10,,,,,,,,,,,,,,,,15,,57,72
13319,note_on,,59,0,7,,,,,,,,,,,,,,,,10,,62,0
13319,note_on,,0,0,10,,,,,,,,,,,,,,,,15,,57,0
13319,note_on,,59,0,5,,,,,,,,,,,,,,,,2,,53,0
13319,note_on,,0,0,10,,,,,,,,,,,,,,,,15,,65,0
13319,note_on,,0,0,10,,,,,,,,,,,,,,,,15,,74,0
13319,note_on,,0,0,10,,,,,,,,,,,,,,,,15,,69,0
13319,note_on,,59,0,10,,,,,,,,,,,,,,,,15,,53,0
13319,note_on,,59,0,8,,,,,,,,,,,,,,,,11,,62,0
13319,note_on,,59,0,9,,,,,,,,,,,,,,,,13,,53,0
13320,note_on,,1,0,9,,,,,,,,,,,,,,,,13,,52,72
13320,note_on,,0,0,10,,,,,,,,,,,,,,,,15,,55,72
13320,note_on,,1,0,7,,,,,,,,,,,,,,,,10,,61,72
13320,note_on,,0,0,10,,,,,,,,,,,,,,,,15,,73,72
13320,note_on,,0,0,10,,,,,,,,,,,,,,,,15,,76,72
13320,note_on,,1,0,10,,,,,,,,,,,,,,,,15,,52,72
13320,note_on,,1,0,8,,,,,,,,,,,,,,,,11,,61,72
13320,note_on,,1,0,5,,,,,,,,,,,,,,,,2,,52,72
13320,note_on,,0,0,10,,,,,,,,,,,,,,,,15,,67,72
13379,note_on,,59,0,8,,,,,,,,,,,,,,,,11,,61,0
13379,note_on,,59,0,7,,,,,,,,,,,,,,,,10,,61,0
13380,note_on,,1,0,8,,,,,,,,,,,,,,,,11,,76,72
13380,note_on,,1,0,7,,,,,,,,,,,,,,,,10,,76,72
13439,note_on,,119,0,9,,,,,,,,,,,,,,,,13,,52,0
13439,note_on,,0,0,10,,,,,,,,,,,,,,,,15,,55,0
13439,note_on,,119,0,10,,,,,,,,,,,,,,,,15,,52,0
13439,note_on,,0,0,10,,,,,,,,,,,,,,,,15,,76,0
13439,note_on,,0,0,10,,,,,,,,,,,,,,,,15,,73,0
13439,note_on,,0,0,10,,,,,,,,,,,,,,,,15,,67,0
13439,note_on,,119,0,5,,,,,,,,,,,,,,,,2,,52,0
13439,note_on,,59,0,7,,,,,,,,,,,,,,,,10,,76,0
13439,note_on,,59,0,8,,,,,,,,,,,,,,,,11,,76,0
13440,note_on,,1,0,7,,,,,,,,,,,,,,,,10,,79,48
13440,note_on,,601,0,6,,,,,,,,,,,,,,,,7,,64,72
13440,note_on,,1,0,8,,,,,,,,,,,,,,,,11,,79,48
13469,note_on,,29,0,7,,,,,,,,,,,,,,,,10,,79,0
13469,note_on,,29,0,8,,,,,,,,,,,,,,,,11,,79,0
13470,note_on,,1,0,8,,,,,,,,,,,,,,,,11,,78,48
13470,note_on,,1,0,7,,,,,,,,,,,,,,,,10,,78,48
13499,note_on,,29,0,8,,,,,,,,,,,,,,,,11,,78,0
13499,note_on,,29,0,7,,,,,,,,,,,,,,,,10,,78,0
13500,note_on,,1,0,8,,,,,,,,,,,,,,,,11,,79,48
13500,note_on,,1,0,7,,,,,,,,,,,,,,,,10,,79,48
13529,note_on,,29,0,8,,,,,,,,,,,,,,,,11,,79,0
13529,note_on,,29,0,7,,,,,,,,,,,,,,,,10,,79,0
13530,note_on,,1,0,7,,,,,,,,,,,,,,,,10,,78,48
13530,note_on,,1,0,8,,,,,,,,,,,,,,,,11,,78,48
13559,note_on,,29,0,7,,,,,,,,,,,,,,,,10,,78,0
13559,note_on,,119,0,6,,,,,,,,,,,,,,,,7,,64,0
13559,note_on,,29,0,8,,,,,,,,,,,,,,,,11,,78,0
13560,note_on,,1,0,6,,,,,,,,,,,,,,,,7,,57,72
13560,note_on,,1,0,7,,,,,,,,,,,,,,,,10,,79,48
13560,note_on,,1,0,8,,,,,,,,,,,,,,,,11,,79,48
13619,note_on,,59,0,7,,,,,,,,,,,,,,,,10,,79,0
13619,note_on,,59,0,8,,,,,,,,,,,,,,,,11,,79,0
13620,note_on,,1,0,7,,,,,,,,,,,,,,,,10,,69,48
13620,note_on,,181,0,9,,,,,,,,,,,,,,,,13,,49,48
13620,note_on,,1,0,8,,,,,,,,,,,,,,,,11,,69,48
13620,note_on,,0,0,10,,,,,,,,,,,,,,,,15,,57,48
13620,note_on,,0,0,10,,,,,,,,,,,,,,,,15,,69,48
13620,note_on,,0,0,10,,,,,,,,,,,,,,,,15,,64,48
13620,note_on,,181,0,10,,,,,,,,,,,,,,,,15,,49,48
13679,note_on,,59,0,9,,,,,,,,,,,,,,,,13,,49,0
13679,note_on,,59,0,10,,,,,,,,,,,,,,,,15,,49,0
13679,note_on,,0,0,10,,,,,,,,,,,,,,,,15,,64,0
13679,note_on,,0,0,10,,,,,,,,,,,,,,,,15,,57,0
13679,note_on,,119,0,6,,,,,,,,,,,,,,,,7,,57,0
13679,note_on,,59,0,8,,,,,,,,,,,,,,,,11,,69,0
13679,note_on,,59,0,7,,,,,,,,,,,,,,,,10,,69,0
13680,note_on,,1,0,8,,,,,,,,,,,,,,,,11,,62,48
13680,note_on,,1,0,6,,,,,,,,,,,,,,,,7,,65,72
13680,note_on,,0,0,10,,,,,,,,,,,,,,,,15,,62,48
13680,note_on,,1,0,9,,,,,,,,,,,,,,,,13,,50,48
13680,note_on,,0,0,10,,,,,,,,,,,,,,,,15,,65,48
13680,note_on,,1,0,10,,,,,,,,,,,,,,,,15,,50,48
13680,note_on,,1,0,7,,,,,,,,,,,,,,,,10,,62,48
13680,note_on,,0,0,10,,,,,,,,,,,,,,,,15,,57,48
13739,note_on,,59,0,7,,,,,,,,,,,,,,,,10,,62,0
13739,note_on,,59,0,8,,,,,,,,,,,,,,,,11,,62,0
13740,note_on,,1,0,7,,,,,,,,,,,,,,,,10,,57,48
13740,note_on,,1,0,8,,,,,,,,,,,,,,,,11,,57,48
13769,note_on,,89,0,6,,,,,,,,,,,,,,,,7,,65,0
13770,note_on,,1,0,6,,,,,,,,,,,,,,,,7,,64,72
13799,note_on,,119,0,9,,,,,,,,,,,,,,,,13,,50,0
13799,note_on,,0,0,10,,,,,,,,,,,,,,,,15,,62,0
13799,note_on,,59,0,7,,,,,,,,,,,,,,,,10,,57,0
13799,note_on,,0,0,10,,,,,,,,,,,,,,,,15,,57,0
13799,note_on,,59,0,8,,,,,,,,,,,,,,,,11,,57,0
13799,note_on,,0,0,10,,,,,,,,,,,,,,,,15,,65,0
13799,note_on,,0,0,10,,,,,,,,,,,,,,,,15,,50,0
13799,note_on,,119,0,10,,,,,,,,,,,,,,,,15,,69,0
13799,note_on,,29,0,6,,,,,,,,,,,,,,,,7,,64,0
13800,note_on,,1,0,8,,,,,,,,,,,,,,,,11,,69,48
13800,note_on,,1,0,6,,,,,,,,,,,,,,,,7,,62,72
13800,note_on,,1,0,7,,,,,,,,,,,,,,,,10,,69,48
13829,note_on,,29,0,8,,,,,,,,,,,,,,,,11,,69,0
13829,note_on,,29,0,7,,,,,,,,,,,,,,,,10,,69,0
13830,note_on,,1,0,7,,,,,,,,,,,,,,,,10,,68,48
13830,note_on,,1,0,8,,,,,,,,,,,,,,,,11,,68,48
13859,note_on,,29,0,7,,,,,,,,,,,,,,,,10,,68,0
13859,note_on,,29,0,8,,,,,,,,,,,,,,,,11,,68,0
13860,note_on,,1,0,7,,,,,,,,,,,,,,,,10,,69,48
13860,note_on,,1,0,8,,,,,,,,,,,,,,,,11,,69,48
13889,note_on,,29,0,8,,,,,,,,,,,,,,,,11,,69,0
13889,note_on,,29,0,7,,,,,,,,,,,,,,,,10,,69,0
13890,note_on,,1,0,7,,,,,,,,,,,,,,,,10,,68,48
13890,note_on,,1,0,8,,,,,,,,,,,,,,,,11,,68,48
13919,note_on,,29,0,7,,,,,,,,,,,,,,,,10,,68,0
13919,note_on,,119,0,6,,,,,,,,,,,,,,,,7,,62,0
13919,note_on,,29,0,8,,,,,,,,,,,,,,,,11,,68,0
13920,note_on,,0,0,10,,,,,,,,,,,,,,,,15,,57,48
13920,note_on,,0,0,10,,,,,,,,,,,,,,,,15,,69,48
13920,note_on,,1,0,6,,,,,,,,,,,,,,,,7,,64,72
13920,note_on,,1,0,7,,,,,,,,,,,,,,,,10,,69,48
13920,note_on,,121,0,10,,,,,,,,,,,,,,,,15,,49,48
13920,note_on,,121,0,9,,,,,,,,,,,,,,,,13,,49,48
13920,note_on,,1,0,8,,,,,,,,,,,,,,,,11,,69,48
13920,note_on,,0,0,10,,,,,,,,,,,,,,,,15,,64,48
13979,note_on,,59,0,6,,,,,,,,,,,,,,,,7,,64,0
13979,note_on,,59,0,7,,,,,,,,,,,,,,,,10,,69,0
13979,note_on,,59,0,8,,,,,,,,,,,,,,,,11,,69,0
13980,note_on,,1,0,7,,,,,,,,,,,,,,,,10,,57,48
13980,note_on,,1,0,8,,,,,,,,,,,,,,,,11,,57,48
13980,note_on,,1,0,6,,,,,,,,,,,,,,,,7,,57,72
14039,note_on,,0,0,10,,,,,,,,,,,,,,,,15,,64,0
14039,note_on,,119,0,10,,,,,,,,,,,,,,,,15,,49,0
14039,note_on,,59,0,6,,,,,,,,,,,,,,,,7,,57,0
14039,note_on,,119,0,9,,,,,,,,,,,,,,,,13,,49,0
14039,note_on,,0,0,10,,,,,,,,,,,,,,,,15,,57,0
14039,note_on,,59,0,8,,,,,,,,,,,,,,,,11,,57,0
14039,note_on,,59,0,7,,,,,,,,,,,,,,,,10,,57,0
14040,note_on,,1,0,9,,,,,,,,,,,,,,,,13,,50,48
14040,note_on,,1,0,8,,,,,,,,,,,,,,,,11,,62,48
14040,note_on,,1,0,7,,,,,,,,,,,,,,,,10,,62,48
14040,note_on,,0,0,10,,,,,,,,,,,,,,,,15,,62,48
14040,note_on,,0,0,10,,,,,,,,,,,,,,,,15,,65,48
14040,note_on,,1,0,10,,,,,,,,,,,,,,,,15,,50,48
14040,note_on,,1,0,6,,,,,,,,,,,,,,,,7,,65,72
14129,note_on,,89,0,6,,,,,,,,,,,,,,,,7,,65,0
14130,note_on,,1,0,6,,,,,,,,,,,,,,,,7,,64,72
14159,note_on,,0,0,10,,,,,,,,,,,,,,,,15,,62,0
14159,note_on,,0,0,10,,,,,,,,,,,,,,,,15,,65,0
14159,note_on,,29,0,6,,,,,,,,,,,,,,,,7,,64,0
14159,note_on,,119,0,9,,,,,,,,,,,,,,,,13,,50,0
14159,note_on,,119,0,8,,,,,,,,,,,,,,,,11,,62,0
14159,note_on,,119,0,7,,,,,,,,,,,,,,,,10,,62,0
14159,note_on,,119,0,10,,,,,,,,,,,,,,,,15,,50,0
14160,note_on,,1,0,10,,,,,,,,,,,,,,,,15,,53,48
14160,note_on,,0,0,10,,,,,,,,,,,,,,,,15,,57,48
14160,note_on,,1,0,6,,,,,,,,,,,,,,,,7,,62,72
14160,note_on,,0,0,10,,,,,,,,,,,,,,,,15,,62,48
14160,note_on,,1,0,9,,,,,,,,,,,,,,,,13,,53,48
14189,note_on,,29,0,6,,,,,,,,,,,,,,,,7,,62,0
14190,note_on,,1,0,6,,,,,,,,,,,,,,,,7,,64,72
14219,note_on,,29,0,6,,,,,,,,,,,,,,,,7,,64,0
14220,note_on,,1,0,6,,,,,,,,,,,,,,,,7,,65,72
14279,note_on,,0,0,10,,,,,,,,,,,,,,,,15,,53,0
14279,note_on,,0,0,10,,,,,,,,,,,,,,,,15,,62,0
14279,note_on,,0,0,10,,,,,,,,,,,,,,,,15,,57,0
14279,note_on,,119,0,9,,,,,,,,,,,,,,,,13,,53,0
14279,note_on,,59,0,6,,,,,,,,,,,,,,,,7,,65,0
14279,note_on,,119,0,10,,,,,,,,,,,,,,,,15,,69,0
14280,note_on,,1,0,10,,,,,,,,,,,,,,,,15,,57,48
14280,note_on,,0,0,10,,,,,,,,,,,,,,,,15,,69,48
14280,note_on,,0,0,10,,,,,,,,,,,,,,,,15,,64,48
14280,note_on,,0,0,10,,,,,,,,,,,,,,,,15,,61,48
14280,note_on,,1,0,9,,,,,,,,,,,,,,,,13,,57,48
14280,note_on,,1,0,6,,,,,,,,,,,,,,,,7,,64,72
14309,note_on,,29,0,6,,,,,,,,,,,,,,,,7,,64,0
14310,note_on,,1,0,6,,,,,,,,,,,,,,,,7,,65,72
14339,note_on,,29,0,6,,,,,,,,,,,,,,,,7,,65,0
14340,note_on,,1,0,6,,,,,,,,,,,,,,,,7,,67,72
14399,note_on,,0,0,10,,,,,,,,,,,,,,,,15,,61,0
14399,note_on,,0,0,10,,,,,,,,,,,,,,,,15,,64,0
14399,note_on,,119,0,10,,,,,,,,,,,,,,,,15,,57,0
14399,note_on,,59,0,6,,,,,,,,,,,,,,,,7,,67,0
14399,note_on,,119,0,9,,,,,,,,,,,,,,,,13,,57,0
14400,note_on,,1,0,9,,,,,,,,,,,,,,,,13,,62,48
14400,note_on,,1,0,10,,,,,,,,,,,,,,,,15,,62,48
14400,note_on,,1,0,6,,,,,,,,,,,,,,,,7,,65,72
14400,note_on,,0,0,10,,,,,,,,,,,,,,,,15,,65,48
14459,note_on,,59,0,6,,,,,,,,,,,,,,,,7,,65,0
14460,note_on,,1,0,6,,,,,,,,,,,,,,,,7,,57,72
14519,note_on,,0,0,10,,,,,,,,,,,,,,,,15,,62,0
14519,note_on,,59,0,6,,,,,,,,,,,,,,,,7,,57,0
14519,note_on,,119,0,10,,,,,,,,,,,,,,,,15,,69,0
14519,note_on,,119,0,9,,,,,,,,,,,,,,,,13,,62,0
14519,note_on,,0,0,10,,,,,,,,,,,,,,,,15,,65,0
14520,note_on,,0,0,10,,,,,,,,,,,,,,,,15,,74,48
14520,note_on,,0,0,10,,,,,,,,,,,,,,,,15,,69,48
14520,note_on,,0,0,10,,,,,,,,,,,,,,,,15,,65,48
14520,note_on,,1,0,9,,,,,,,,,,,,,,,,13,,53,48
14520,note_on,,1,0,10,,,,,,,,,,,,,,,,15,,53,48
14520,note_on,,1,0,6,,,,,,,,,,,,,,,,7,,62,72
14549,note_on,,29,0,6,,,,,,,,,,,,,,,,7,,62,0
14550,note_on,,1,0,6,,,,,,,,,,,,,,,,7,,65,72
14579,note_on,,29,0,6,,,,,,,,,,,,,,,,7,,65,0
14580,note_on,,1,0,6,,,,,,,,,,,,,,,,7,,64,72
14609,note_on,,29,0,6,,,,,,,,,,,,,,,,7,,64,0
14610,note_on,,1,0,6,,,,,,,,,,,,,,,,7,,62,72
14639,note_on,,29,0,6,,,,,,,,,,,,,,,,7,,62,0
14639,note_on,,119,0,9,,,,,,,,,,,,,,,,13,,53,0
14639,note_on,,119,0,10,,,,,,,,,,,,,,,,15,,53,0
14639,note_on,,0,0,10,,,,,,,,,,,,,,,,15,,74,0
14639,note_on,,0,0,10,,,,,,,,,,,,,,,,15,,65,0
14639,note_on,,0,0,10,,,,,,,,,,,,,,,,15,,69,0
14640,note_on,,0,0,10,,,,,,,,,,,,,,,,15,,64,48
14640,note_on,,1,0,9,,,,,,,,,,,,,,,,13,,57,48
14640,note_on,,0,0,10,,,,,,,,,,,,,,,,15,,73,48
14640,note_on,,1,0,6,,,,,,,,,,,,,,,,7,,64,72
14640,note_on,,0,0,10,,,,,,,,,,,,,,,,15,,69,48
14640,note_on,,1,0,10,,,,,,,,,,,,,,,,15,,57,48
14669,note_on,,29,0,6,,,,,,,,,,,,,,,,7,,64,0
14670,note_on,,1,0,6,,,,,,,,,,,,,,,,7,,67,72
14699,note_on,,29,0,6,,,,,,,,,,,,,,,,7,,67,0
14700,note_on,,1,0,6,,,,,,,,,,,,,,,,7,,65,72
14729,note_on,,29,0,6,,,,,,,,,,,,,,,,7,,65,0
14730,note_on,,1,0,6,,,,,,,,,,,,,,,,7,,64,72
14759,note_on,,119,0,9,,,,,,,,,,,,,,,,13,,57,0
14759,note_on,,0,0,10,,,,,,,,,,,,,,,,15,,73,0
14759,note_on,,0,0,10,,,,,,,,,,,,,,,,15,,69,0
14759,note_on,,0,0,10,,,,,,,,,,,,,,,,15,,64,0
14759,note_on,,119,0,10,,,,,,,,,,,,,,,,15,,57,0
14759,note_on,,29,0,6,,,,,,,,,,,,,,,,7,,64,0
14760,note_on,,1,0,10,,,,,,,,,,,,,,,,15,,50,48
14760,note_on,,0,0,10,,,,,,,,,,,,,,,,15,,74,48
14760,note_on,,0,0,10,,,,,,,,,,,,,,,,15,,65,48
14760,note_on,,0,0,10,,,,,,,,,,,,,,,,15,,57,48
14760,note_on,,0,0,10,,,,,,,,,,,,,,,,15,,69,48
14760,note_on,,1,0,6,,,,,,,,,,,,,,,,7,,65,72
14760,note_on,,1,0,9,,,,,,,,,,,,,,,,13,,50,48
14819,note_on,,59,0,6,,,,,,,,,,,,,,,,7,,65,0
14820,note_on,,1,0,6,,,,,,,,,,,,,,,,7,,64,72
14879,note_on,,59,0,6,,,,,,,,,,,,,,,,7,,64,0
14880,note_on,,1,0,6,,,,,,,,,,,,,,,,7,,62,72
14939,note_on,,179,0,9,,,,,,,,,,,,,,,,13,,50,0
14939,note_on,,179,0,10,,,,,,,,,,,,,,,,15,,50,0
14939,note_on,,0,0,10,,,,,,,,,,,,,,,,15,,65,0
14939,note_on,,59,0,6,,,,,,,,,,,,,,,,7,,62,0
14940,note_on,,1,0,6,,,,,,,,,,,,,,,,7,,60,72
14940,note_on,,1,0,9,,,,,,,,,,,,,,,,13,,52,48
14940,note_on,,1,0,10,,,,,,,,,,,,,,,,15,,52,48
14940,note_on,,0,0,10,,,,,,,,,,,,,,,,15,,67,48
14999,note_on,,0,0,10,,,,,,,,,,,,,,,,15,,69,0
14999,note_on,,0,0,10,,,,,,,,,,,,,,,,15,,52,0
14999,note_on,,0,0,10,,,,,,,,,,,,,,,,15,,67,0
14999,note_on,,59,0,6,,,,,,,,,,,,,,,,7,,60,0
14999,note_on,,59,0,9,,,,,,,,,,,,,,,,13,,52,0
14999,note_on,,59,0,10,,,,,,,,,,,,,,,,15,,74,0
15000,note_on,,1,0,6,,,,,,,,,,,,,,,,7,,59,72
15000,note_on,,0,0,10,,,,,,,,,,,,,,,,15,,69,48
15000,note_on,,0,0,10,,,,,,,,,,,,,,,,15,,74,48
15000,note_on,,1,0,9,,,,,,,,,,,,,,,,13,,53,48
15000,note_on,,1,0,10,,,,,,,,,,,,,,,,15,,53,48
15059,note_on,,59,0,6,,,,,,,,,,,,,,,,7,,59,0
15060,note_on,,1,0,6,,,,,,,,,,,,,,,,7,,57,72
15119,note_on,,0,0,10,,,,,,,,,,,,,,,,15,,69,0
15119,note_on,,0,0,10,,,,,,,,,,,,,,,,15,,53,0
15119,note_on,,119,0,10,,,,,,,,,,,,,,,,15,,57,0
15119,note_on,,119,0,9,,,,,,,,,,,,,,,,13,,53,0
15119,note_on,,59,0,6,,,,,,,,,,,,,,,,7,,57,0
15119,note_on,,0,0,10,,,,,,,,,,,,,,,,15,,74,0
15120,note_on,,1,0,9,,,,,,,,,,,,,,,,13,,52,48
15120,note_on,,0,0,10,,,,,,,,,,,,,,,,15,,59,48
15120,note_on,,1,0,6,,,,,,,,,,,,,,,,7,,64,72
15120,note_on,,1,0,10,,,,,,,,,,,,,,,,15,,64,48
15120,note_on,,0,0,10,,,,,,,,,,,,,,,,15,,52,48
15120,note_on,,0,0,10,,,,,,,,,,,,,,,,15,,68,48
15120,note_on,,0,0,10,,,,,,,,,,,,,,,,15,,71,48
15180,note_on,,1021,0,8,,,,,,,,,,,,,,,,11,,76,72
15180,note_on,,1021,0,7,,,,,,,,,,,,,,,,10,,76,72
15239,note_on,,0,0,10,,,,,,,,,,,,,,,,15,,52,0
15239,note_on,,119,0,10,,,,,,,,,,,,,,,,15,,64,0
15239,note_on,,119,0,6,,,,,,,,,,,,,,,,7,,64,0
15239,note_on,,0,0,10,,,,,,,,,,,,,,,,15,,68,0
15239,note_on,,119,0,9,,,,,,,,,,,,,,,,13,,52,0
15239,note_on,,59,0,8,,,,,,,,,,,,,,,,11,,76,0
15239,note_on,,0,0,10,,,,,,,,,,,,,,,,15,,59,0
15239,note_on,,59,0,7,,,,,,,,,,,,,,,,10,,76,0
15239,note_on,,0,0,10,,,,,,,,,,,,,,,,15,,71,0
15240,note_on,,1,0,6,,,,,,,,,,,,,,,,7,,52,72
15240,note_on,,1,0,7,,,,,,,,,,,,,,,,10,,83,72
15240,note_on,,1,0,8,,,,,,,,,,,,,,,,11,,83,72
15240,note_on,,1,0,10,,,,,,,,,,,,,,,,15,,44,48
15240,note_on,,0,0,10,,,,,,,,,,,,,,,,15,,64,48
15240,note_on,,1,0,9,,,,,,,,,,,,,,,,13,,44,48
15240,note_on,,0,0,10,,,,,,,,,,,,,,,,15,,76,48
15240,note_on,,0,0,10,,,,,,,,,,,,,,,,15,,52,48
15240,note_on,,0,0,10,,,,,,,,,,,,,,,,15,,71,48
15269,note_on,,29,0,8,,,,,,,,,,,,,,,,11,,83,0
15269,note_on,,29,0,7,,,,,,,,,,,,,,,,10,,83,0
15270,note_on,,1,0,7,,,,,,,,,,,,,,,,10,,81,72
15270,note_on,,1,0,8,,,,,,,,,,,,,,,,11,,81,72
15299,note_on,,29,0,7,,,,,,,,,,,,,,,,10,,81,0
15299,note_on,,29,0,8,,,,,,,,,,,,,,,,11,,81,0
15300,note_on,,1,0,7,,,,,,,,,,,,,,,,10,,83,72
15300,note_on,,1,0,8,,,,,,,,,,,,,,,,11,,83,72
15329,note_on,,29,0,7,,,,,,,,,,,,,,,,10,,83,0
15329,note_on,,29,0,8,,,,,,,,,,,,,,,,11,,83,0
15330,note_on,,1,0,7,,,,,,,,,,,,,,,,10,,81,72
15330,note_on,,1,0,8,,,,,,,,,,,,,,,,11,,81,72
15359,note_on,,0,0,10,,,,,,,,,,,,,,,,15,,71,0
15359,note_on,,0,0,10,,,,,,,,,,,,,,,,15,,64,0
15359,note_on,,0,0,10,,,,,,,,,,,,,,,,15,,76,0
15359,note_on,,119,0,10,,,,,,,,,,,,,,,,15,,44,0
15359,note_on,,29,0,8,,,,,,,,,,,,,,,,11,,81,0
15359,note_on,,0,0,10,,,,,,,,,,,,,,,,15,,52,0
15359,note_on,,119,0,6,,,,,,,,,,,,,,,,7,,52,0
15359,note_on,,119,0,9,,,,,,,,,,,,,,,,13,,44,0
15359,note_on,,29,0,7,,,,,,,,,,,,,,,,10,,81,0
15360,note_on,,1,0,7,,,,,,,,,,,,,,,,10,,83,72
15360,note_on,,1,0,10,,,,,,,,,,,,,,,,15,,40,48
15360,note_on,,0,0,10,,,,,,,,,,,,,,,,15,,71,48
15360,note_on,,0,0,10,,,,,,,,,,,,,,,,15,,64,48
15360,note_on,,1,0,8,,,,,,,,,,,,,,,,11,,83,72
15360,note_on,,0,0,10,,,,,,,,,,,,,,,,15,,68,48
15360,note_on,,0,0,10,,,,,,,,,,,,,,,,15,,52,48
15360,note_on,,1,0,9,,,,,,,,,,,,,,,,13,,40,48
15419,note_on,,59,0,8,,,,,,,,,,,,,,,,11,,83,0
15419,note_on,,59,0,7,,,,,,,,,,,,,,,,10,,83,0
15420,note_on,,1,0,8,,,,,,,,,,,,,,,,11,,62,72
15420,note_on,,1,0,7,,,,,,,,,,,,,,,,10,,62,72
15479,note_on,,59,0,7,,,,,,,,,,,,,,,,10,,62,0
15479,note_on,,119,0,9,,,,,,,,,,,,,,,,13,,40,0
15479,note_on,,0,0,10,,,,,,,,,,,,,,,,15,,64,0
15479,note_on,,0,0,10,,,,,,,,,,,,,,,,15,,52,0
15479,note_on,,0,0,10,,,,,,,,,,,,,,,,15,,71,0
15479,note_on,,119,0,10,,,,,,,,,,,,,,,,15,,40,0
15479,note_on,,0,0,10,,,,,,,,,,,,,,,,15,,68,0
15479,note_on,,59,0,8,,,,,,,,,,,,,,,,11,,62,0
15480,note_on,,1,0,10,,,,,,,,,,,,,,,,15,,45,48
15480,note_on,,0,0,10,,,,,,,,,,,,,,,,15,,64,48
15480,note_on,,0,0,10,,,,,,,,,,,,,,,,15,,52,48
15480,note_on,,0,0,10,,,,,,,,,,,,,,,,15,,72,48
15480,note_on,,0,0,10,,,,,,,,,,,,,,,,15,,69,48
15480,note_on,,1,0,7,,,,,,,,,,,,,,,,10,,60,72
15480,note_on,,1,0,9,,,,,,,,,,,,,,,,13,,45,48
15480,note_on,,1,0,8,,,,,,,,,,,,,,,,11,,60,72
15599,note_on,,119,0,7,,,,,,,,,,,,,,,,10,,60,0
15599,note_on,,0,0,10,,,,,,,,,,,,,,,,15,,72,0
15599,note_on,,119,0,10,,,,,,,,,,,,,,,,15,,45,0
15599,note_on,,0,0,10,,,,,,,,,,,,,,,,15,,52,0
15599,note_on,,119,0,9,,,,,,,,,,,,,,,,13,,45,0
15599,note_on,,0,0,10,,,,,,,,,,,,,,,,15,,69,0
15599,note_on,,0,0,10,,,,,,,,,,,,,,,,15,,64,0
15599,note_on,,119,0,8,,,,,,,,,,,,,,,,11,,60,0
15600,note_on,,241,0,6,,,,,,,,,,,,,,,,7,,64,72
15719,note_on,,119,0,6,,,,,,,,,,,,,,,,7,,64,0
15720,note_on,,1,0,6,,,,,,,,,,,,,,,,7,,57,72
15780,note_on,,181,0,8,,,,,,,,,,,,,,,,11,,61,48
15780,note_on,,181,0,9,,,,,,,,,,,,,,,,13,,49,48
15780,note_on,,0,0,10,,,,,,,,,,,,,,,,15,,57,48
15780,note_on,,181,0,10,,,,,,,,,,,,,,,,15,,49,48
15780,note_on,,0,0,10,,,,,,,,,,,,,,,,15,,69,48
15780,note_on,,181,0,7,,,,,,,,,,,,,,,,10,,61,48
15780,note_on,,0,0,10,,,,,,,,,,,,,,,,15,,64,48
15839,note_on,,0,0,10,,,,,,,,,,,,,,,,15,,64,0
15839,note_on,,0,0,10,,,,,,,,,,,,,,,,15,,57,0
15839,note_on,,59,0,10,,,,,,,,,,,,,,,,15,,49,0
15839,note_on,,59,0,7,,,,,,,,,,,,,,,,10,,61,0
15839,note_on,,119,0,6,,,,,,,,,,,,,,,,7,,57,0
15839,note_on,,59,0,8,,,,,,,,,,,,,,,,11,,61,0
15839,note_on,,59,0,9,,,,,,,,,,,,,,,,13,,49,0
15840,note_on,,1,0,7,,,,,,,,,,,,,,,,10,,62,48
15840,note_on,,1,0,9,,,,,,,,,,,,,,,,13,,50,48
15840,note_on,,0,0,10,,,,,,,,,,,,,,,,15,,66,48
15840,note_on,,1,0,10,,,,,,,,,,,,,,,,15,,50,48
15840,note_on,,0,0,10,,,,,,,,,,,,,,,,15,,62,48
15840,note_on,,0,0,10,,,,,,,,,,,,,,,,15,,57,48
15840,note_on,,1,0,6,,,,,,,,,,,,,,,,7,,54,72
15840,note_on,,1,0,8,,,,,,,,,,,,,,,,11,,62,48
15959,note_on,,119,0,6,,,,,,,,,,,,,,,,7,,54,0
15959,note_on,,0,0,10,,,,,,,,,,,,,,,,15,,57,0
15959,note_on,,0,0,10,,,,,,,,,,,,,,,,15,,62,0
15959,note_on,,119,0,7,,,,,,,,,,,,,,,,10,,62,0
15959,note_on,,0,0,10,,,,,,,,,,,,,,,,15,,66,0
15959,note_on,,0,0,10,,,,,,,,,,,,,,,,15,,50,0
15959,note_on,,119,0,10,,,,,,,,,,,,,,,,15,,69,0
15959,note_on,,119,0,9,,,,,,,,,,,,,,,,13,,50,0
15959,note_on,,119,0,8,,,,,,,,,,,,,,,,11,,62,0
15960,note_on,,1,0,6,,,,,,,,,,,,,,,,7,,62,72
16079,note_on,,119,0,6,,,,,,,,,,,,,,,,7,,62,0
16080,note_on,,1,0,6,,,,,,,,,,,,,,,,7,,59,72
16140,note_on,,181,0,9,,,,,,,,,,,,,,,,13,,51,48
16140,note_on,,181,0,10,,,,,,,,,,,,,,,,15,,51,48
16140,note_on,,0,0,10,,,,,,,,,,,,,,,,15,,71,48
16140,note_on,,0,0,10,,,,,,,,,,,,,,,,15,,66,48
16140,note_on,,0,0,10,,,,,,,,,,,,,,,,15,,59,48
16140,note_on,,0,0,10,,,,,,,,,,,,,,,,15,,54,48
16140,note_on,,181,0,8,,,,,,,,,,,,,,,,11,,63,48
16140,note_on,,181,0,7,,,,,,,,,,,,,,,,10,,63,48
16199,note_on,,59,0,7,,,,,,,,,,,,,,,,10,,63,0
16199,note_on,,59,0,8,,,,,,,,,,,,,,,,11,,63,0
16199,note_on,,59,0,9,,,,,,,,,,,,,,,,13,,51,0
16199,note_on,,0,0,10,,,,,,,,,,,,,,,,15,,54,0
16199,note_on,,0,0,10,,,,,,,,,,,,,,,,15,,59,0
16199,note_on,,0,0,10,,,,,,,,,,,,,,,,15,,66,0
16199,note_on,,59,0,10,,,,,,,,,,,,,,,,15,,51,0
16199,note_on,,119,0,6,,,,,,,,,,,,,,,,7,,59,0
16200,note_on,,1,0,9,,,,,,,,,,,,,,,,13,,52,48
16200,note_on,,1,0,8,,,,,,,,,,,,,,,,11,,64,48
16200,note_on,,1,0,6,,,,,,,,,,,,,,,,7,,56,72
16200,note_on,,1,0,10,,,,,,,,,,,,,,,,15,,52,48
16200,note_on,,0,0,10,,,,,,,,,,,,,,,,15,,68,48
16200,note_on,,0,0,10,,,,,,,,,,,,,,,,15,,59,48
16200,note_on,,1,0,7,,,,,,,,,,,,,,,,10,,64,48
16259,note_on,,59,0,6,,,,,,,,,,,,,,,,7,,56,0
16260,note_on,,1,0,6,,,,,,,,,,,,,,,,7,,52,72
16319,note_on,,59,0,6,,,,,,,,,,,,,,,,7,,52,0
16319,note_on,,0,0,10,,,,,,,,,,,,,,,,15,,68,0
16319,note_on,,119,0,10,,,,,,,,,,,,,,,,15,,71,0
16319,note_on,,0,0,10,,,,,,,,,,,,,,,,15,,52,0
16319,note_on,,119,0,7,,,,,,,,,,,,,,,,10,,64,0
16319,note_on,,0,0,10,,,,,,,,,,,,,,,,15,,59,0
16319,note_on,,119,0,9,,,,,,,,,,,,,,,,13,,52,0
16319,note_on,,119,0,8,,,,,,,,,,,,,,,,11,,64,0
16320,note_on,,1,0,6,,,,,,,,,,,,,,,,7,,64,72
16379,note_on,,59,0,6,,,,,,,,,,,,,,,,7,,64,0
16380,note_on,,1,0,6,,,,,,,,,,,,,,,,7,,62,72
16439,note_on,,59,0,6,,,,,,,,,,,,,,,,7,,62,0
16440,note_on,,1,0,6,,,,,,,,,,,,,,,,7,,60,72
16499,note_on,,59,0,6,,,,,,,,,,,,,,,,7,,60,0
16500,note_on,,181,0,10,,,,,,,,,,,,,,,,15,,52,48
16500,note_on,,1,0,6,,,,,,,,,,,,,,,,7,,59,72
16500,note_on,,0,0,10,,,,,,,,,,,,,,,,15,,64,48
16500,note_on,,0,0,10,,,,,,,,,,,,,,,,15,,59,48
16500,note_on,,0,0,10,,,,,,,,,,,,,,,,15,,56,48
16500,note_on,,181,0,7,,,,,,,,,,,,,,,,10,,64,48
16500,note_on,,181,0,8,,,,,,,,,,,,,,,,11,,64,48
16500,note_on,,181,0,9,,,,,,,,,,,,,,,,13,,52,48
16559,note_on,,0,0,10,,,,,,,,,,,,,,,,15,,64,0
16559,note_on,,59,0,7,,,,,,,,,,,,,,,,10,,64,0
16559,note_on,,59,0,8,,,,,,,,,,,,,,,,11,,64,0
16559,note_on,,59,0,9,,,,,,,,,,,,,,,,13,,52,0
16559,note_on,,0,0,10,,,,,,,,,,,,,,,,15,,56,0
16559,note_on,,0,0,10,,,,,,,,,,,,,,,,15,,59,0
16559,note_on,,59,0,10,,,,,,,,,,,,,,,,15,,52,0
16559,note_on,,59,0,6,,,,,,,,,,,,,,,,7,,59,0
16560,note_on,,1,0,10,,,,,,,,,,,,,,,,15,,53,48
16560,note_on,,0,0,10,,,,,,,,,,,,,,,,15,,57,48
16560,note_on,,1,0,6,,,,,,,,,,,,,,,,7,,57,72
16560,note_on,,0,0,10,,,,,,,,,,,,,,,,15,,62,48
16560,note_on,,1,0,9,,,,,,,,,,,,,,,,13,,53,48
16560,note_on,,1,0,7,,,,,,,,,,,,,,,,10,,65,48
16560,note_on,,1,0,8,,,,,,,,,,,,,,,,11,,65,48
16619,note_on,,59,0,6,,,,,,,,,,,,,,,,7,,57,0
16620,note_on,,1,0,6,,,,,,,,,,,,,,,,7,,62,72
16679,note_on,,119,0,7,,,,,,,,,,,,,,,,10,,65,0
16679,note_on,,119,0,9,,,,,,,,,,,,,,,,13,,53,0
16679,note_on,,119,0,8,,,,,,,,,,,,,,,,11,,65,0
16679,note_on,,0,0,10,,,,,,,,,,,,,,,,15,,62,0
16679,note_on,,0,0,10,,,,,,,,,,,,,,,,15,,57,0
16679,note_on,,119,0,10,,,,,,,,,,,,,,,,15,,53,0
16680,note_on,,1,0,9,,,,,,,,,,,,,,,,13,,54,48
16680,note_on,,1,0,7,,,,,,,,,,,,,,,,10,,66,48
16680,note_on,,0,0,10,,,,,,,,,,,,,,,,15,,57,48
16680,note_on,,0,0,10,,,,,,,,,,,,,,,,15,,69,48
16680,note_on,,0,0,10,,,,,,,,,,,,,,,,15,,62,48
16680,note_on,,1,0,10,,,,,,,,,,,,,,,,15,,54,48
16680,note_on,,1,0,8,,,,,,,,,,,,,,,,11,,66,48
16739,note_on,,119,0,6,,,,,,,,,,,,,,,,7,,62,0
16740,note_on,,1,0,6,,,,,,,,,,,,,,,,7,,60,72
16769,note_on,,29,0,6,,,,,,,,,,,,,,,,7,,60,0
16770,note_on,,1,0,6,,,,,,,,,,,,,,,,7,,59,72
16799,note_on,,119,0,9,,,,,,,,,,,,,,,,13,,54,0
16799,note_on,,0,0,10,,,,,,,,,,,,,,,,15,,69,0
16799,note_on,,0,0,10,,,,,,,,,,,,,,,,15,,57,0
16799,note_on,,0,0,10,,,,,,,,,,,,,,,,15,,62,0
16799,note_on,,119,0,7,,,,,,,,,,,,,,,,10,,66,0
16799,note_on,,119,0,8,,,,,,,,,,,,,,,,11,,66,0
16799,note_on,,119,0,10,,,,,,,,,,,,,,,,15,,54,0
16799,note_on,,29,0,6,,,,,,,,,,,,,,,,7,,59,0
16800,note_on,,1,0,6,,,,,,,,,,,,,,,,7,,60,72
16859,note_on,,59,0,6,,,,,,,,,,,,,,,,7,,60,0
16860,note_on,,1,0,6,,,,,,,,,,,,,,,,7,,59,72
16889,note_on,,29,0,6,,,,,,,,,,,,,,,,7,,59,0
16890,note_on,,1,0,6,,,,,,,,,,,,,,,,7,,57,72
16919,note_on,,29,0,6,,,,,,,,,,,,,,,,7,,57,0
16920,note_on,,121,0,7,,,,,,,,,,,,,,,,10,,67,48
16920,note_on,,121,0,10,,,,,,,,,,,,,,,,15,,55,48
16920,note_on,,0,0,10,,,,,,,,,,,,,,,,15,,64,48
16920,note_on,,0,0,10,,,,,,,,,,,,,,,,15,,59,48
16920,note_on,,121,0,9,,,,,,,,,,,,,,,,13,,55,48
16920,note_on,,121,0,8,,,,,,,,,,,,,,,,11,,67,48
16920,note_on,,1,0,6,,,,,,,,,,,,,,,,7,,59,72
16979,note_on,,59,0,6,,,,,,,,,,,,,,,,7,,59,0
16980,note_on,,1,0,6,,,,,,,,,,,,,,,,7,,64,72
17039,note_on,,119,0,8,,,,,,,,,,,,,,,,11,,67,0
17039,note_on,,119,0,10,,,,,,,,,,,,,,,,15,,55,0
17039,note_on,,0,0,10,,,,,,,,,,,,,,,,15,,64,0
17039,note_on,,0,0,10,,,,,,,,,,,,,,,,15,,59,0
17039,note_on,,119,0,7,,,,,,,,,,,,,,,,10,,67,0
17039,note_on,,119,0,9,,,,,,,,,,,,,,,,13,,55,0
17040,note_on,,0,0,10,,,,,,,,,,,,,,,,15,,64,48
17040,note_on,,1,0,7,,,,,,,,,,,,,,,,10,,68,48
17040,note_on,,1,0,9,,,,,,,,,,,,,,,,13,,56,48
17040,note_on,,1,0,10,,,,,,,,,,,,,,,,15,,56,48
17040,note_on,,1,0,8,,,,,,,,,,,,,,,,11,,68,48
17040,note_on,,0,0,10,,,,,,,,,,,,,,,,15,,71,48
17040,note_on,,0,0,10,,,,,,,,,,,,,,,,15,,59,48
17099,note_on,,119,0,6,,,,,,,,,,,,,,,,7,,64,0
17100,note_on,,1,0,6,,,,,,,,,,,,,,,,7,,62,72
17129,note_on,,29,0,6,,,,,,,,,,,,,,,,7,,62,0
17130,note_on,,1,0,6,,,,,,,,,,,,,,,,7,,60,72
17159,note_on,,119,0,8,,,,,,,,,,,,,,,,11,,68,0
17159,note_on,,119,0,7,,,,,,,,,,,,,,,,10,,68,0
17159,note_on,,29,0,6,,,,,,,,,,,,,,,,7,,60,0
17159,note_on,,119,0,9,,,,,,,,,,,,,,,,13,,56,0
17159,note_on,,0,0,10,,,,,,,,,,,,,,,,15,,59,0
17159,note_on,,0,0,10,,,,,,,,,,,,,,,,15,,64,0
17159,note_on,,0,0,10,,,,,,,,,,,,,,,,15,,71,0
17159,note_on,,119,0,10,,,,,,,,,,,,,,,,15,,56,0
17160,note_on,,1,0,6,,,,,,,,,,,,,,,,7,,62,72
17219,note_on,,59,0,6,,,,,,,,,,,,,,,,7,,62,0
17220,note_on,,1,0,6,,,,,,,,,,,,,,,,7,,60,72
17249,note_on,,29,0,6,,,,,,,,,,,,,,,,7,,60,0
17250,note_on,,1,0,6,,,,,,,,,,,,,,,,7,,59,72
17279,note_on,,29,0,6,,,,,,,,,,,,,,,,7,,59,0
17280,note_on,,1,0,6,,,,,,,,,,,,,,,,7,,60,72
17280,note_on,,121,0,9,,,,,,,,,,,,,,,,13,,57,48
17280,note_on,,121,0,10,,,,,,,,,,,,,,,,15,,57,48
17280,note_on,,0,0,10,,,,,,,,,,,,,,,,15,,64,48
17280,note_on,,0,0,10,,,,,,,,,,,,,,,,15,,60,48
17339,note_on,,59,0,6,,,,,,,,,,,,,,,,7,,60,0
17340,note_on,,181,0,7,,,,,,,,,,,,,,,,10,,76,48
17340,note_on,,1,0,6,,,,,,,,,,,,,,,,7,,59,72
17340,note_on,,181,0,8,,,,,,,,,,,,,,,,11,,76,48
17399,note_on,,59,0,7,,,,,,,,,,,,,,,,10,,76,0
17399,note_on,,119,0,9,,,,,,,,,,,,,,,,13,,57,0
17399,note_on,,59,0,6,,,,,,,,,,,,,,,,7,,59,0
17399,note_on,,59,0,8,,,,,,,,,,,,,,,,11,,76,0
17399,note_on,,119,0,10,,,,,,,,,,,,,,,,15,,57,0
17399,note_on,,0,0,10,,,,,,,,,,,,,,,,15,,60,0
17399,note_on,,0,0,10,,,,,,,,,,,,,,,,15,,64,0
17400,note_on,,1,0,6,,,,,,,,,,,,,,,,7,,57,72
17400,note_on,,1,0,8,,,,,,,,,,,,,,,,11,,81,48
17400,note_on,,1,0,7,,,,,,,,,,,,,,,,10,,81,48
17429,note_on,,29,0,7,,,,,,,,,,,,,,,,10,,81,0
17429,note_on,,29,0,8,,,,,,,,,,,,,,,,11,,81,0
17430,note_on,,1,0,8,,,,,,,,,,,,,,,,11,,80,48
17430,note_on,,1,0,7,,,,,,,,,,,,,,,,10,,80,48
17459,note_on,,29,0,8,,,,,,,,,,,,,,,,11,,80,0
17459,note_on,,29,0,7,,,,,,,,,,,,,,,,10,,80,0
17460,note_on,,1,0,7,,,,,,,,,,,,,,,,10,,81,48
17460,note_on,,1,0,8,,,,,,,,,,,,,,,,11,,81,48
17489,note_on,,29,0,8,,,,,,,,,,,,,,,,11,,81,0
17489,note_on,,29,0,7,,,,,,,,,,,,,,,,10,,81,0
17490,note_on,,1,0,7,,,,,,,,,,,,,,,,10,,80,48
17490,note_on,,1,0,8,,,,,,,,,,,,,,,,11,,80,48
17519,note_on,,29,0,7,,,,,,,,,,,,,,,,10,,80,0
17519,note_on,,29,0,8,,,,,,,,,,,,,,,,11,,80,0
17519,note_on,,119,0,6,,,,,,,,,,,,,,,,7,,57,0
17520,note_on,,1,0,8,,,,,,,,,,,,,,,,11,,81,48
17520,note_on,,1,0,7,,,,,,,,,,,,,,,,10,,81,48
17579,note_on,,59,0,8,,,,,,,,,,,,,,,,11,,81,0
17579,note_on,,59,0,7,,,,,,,,,,,,,,,,10,,81,0
17580,note_on,,0,0,10,,,,,,,,,,,,,,,,15,,60,48
17580,note_on,,0,0,10,,,,,,,,,,,,,,,,15,,64,48
17580,note_on,,181,0,10,,,,,,,,,,,,,,,,15,,57,48
17580,note_on,,1,0,8,,,,,,,,,,,,,,,,11,,60,48
17580,note_on,,181,0,9,,,,,,,,,,,,,,,,13,,57,48
17580,note_on,,0,0,10,,,,,,,,,,,,,,,,15,,69,48
17580,note_on,,1,0,7,,,,,,,,,,,,,,,,10,,60,48
17639,note_on,,59,0,8,,,,,,,,,,,,,,,,11,,60,0
17639,note_on,,0,0,10,,,,,,,,,,,,,,,,15,,60,0
17639,note_on,,0,0,10,,,,,,,,,,,,,,,,15,,64,0
17639,note_on,,0,0,10,,,,,,,,,,,,,,,,15,,69,0
17639,note_on,,59,0,10,,,,,,,,,,,,,,,,15,,57,0
17639,note_on,,59,0,7,,,,,,,,,,,,,,,,10,,60,0
17639,note_on,,59,0,9,,,,,,,,,,,,,,,,13,,57,0
17640,note_on,,1,0,7,,,,,,,,,,,,,,,,10,,59,48
17640,note_on,,1,0,10,,,,,,,,,,,,,,,,15,,56,48
17640,note_on,,0,0,10,,,,,,,,,,,,,,,,15,,64,48
17640,note_on,,0,0,10,,,,,,,,,,,,,,,,15,,59,48
17640,note_on,,0,0,10,,,,,,,,,,,,,,,,15,,71,48
17640,note_on,,1,0,9,,,,,,,,,,,,,,,,13,,56,48
17640,note_on,,1,0,8,,,,,,,,,,,,,,,,11,,59,48
17759,note_on,,0,0,10,,,,,,,,,,,,,,,,15,,59,0
17759,note_on,,0,0,10,,,,,,,,,,,,,,,,15,,71,0
17759,note_on,,0,0,10,,,,,,,,,,,,,,,,15,,64,0
17759,note_on,,119,0,10,,,,,,,,,,,,,,,,15,,56,0
17759,note_on,,119,0,7,,,,,,,,,,,,,,,,10,,59,0
17759,note_on,,119,0,8,,,,,,,,,,,,,,,,11,,59,0
17759,note_on,,119,0,9,,,,,,,,,,,,,,,,13,,56,0
17760,note_on,,1,0,9,,,,,,,,,,,,,,,,13,,55,48
17760,note_on,,241,0,6,,,,,,,,,,,,,,,,7,,64,72
17760,note_on,,0,0,10,,,,,,,,,,,,,,,,15,,59,48
17760,note_on,,0,0,10,,,,,,,,,,,,,,,,15,,76,48
17760,note_on,,0,0,10,,,,,,,,,,,,,,,,15,,71,48
17760,note_on,,0,0,10,,,,,,,,,,,,,,,,15,,64,48
17760,note_on,,1,0,10,,,,,,,,,,,,,,,,15,,55,48
17879,note_on,,119,0,10,,,,,,,,,,,,,,,,15,,55,0
17879,note_on,,119,0,9,,,,,,,,,,,,,,,,13,,55,0
17879,note_on,,0,0,10,,,,,,,,,,,,,,,,15,,64,0
17879,note_on,,0,0,10,,,,,,,,,,,,,,,,15,,59,0
17879,note_on,,0,0,10,,,,,,,,,,,,,,,,15,,76,0
17879,note_on,,0,0,10,,,,,,,,,,,,,,,,15,,71,0
17939,note_on,,179,0,6,,,,,,,,,,,,,,,,7,,64,0
17940,note_on,,1,0,6,,,,,,,,,,,,,,,,7,,64,72
17999,note_on,,59,0,6,,,,,,,,,,,,,,,,7,,64,0
18000,note_on,,0,0,10,,,,,,,,,,,,,,,,15,,57,48
18000,note_on,,0,0,10,,,,,,,,,,,,,,,,15,,66,48
18000,note_on,,0,0,10,,,,,,,,,,,,,,,,15,,69,48
18000,note_on,,0,0,10,,,,,,,,,,,,,,,,15,,54,48
18000,note_on,,121,0,10,,,,,,,,,,,,,,,,15,,64,48
18000,note_on,,1,0,6,,,,,,,,,,,,,,,,7,,69,72
18000,note_on,,121,0,9,,,,,,,,,,,,,,,,13,,54,48
18060,note_on,,301,0,8,,,,,,,,,,,,,,,,11,,69,48
18060,note_on,,301,0,7,,,,,,,,,,,,,,,,10,,69,48
18119,note_on,,119,0,6,,,,,,,,,,,,,,,,7,,69,0
18119,note_on,,59,0,7,,,,,,,,,,,,,,,,10,,69,0
18119,note_on,,119,0,10,,,,,,,,,,,,,,,,15,,64,0
18119,note_on,,119,0,9,,,,,,,,,,,,,,,,13,,54,0
18119,note_on,,0,0,10,,,,,,,,,,,,,,,,15,,54,0
18119,note_on,,0,0,10,,,,,,,,,,,,,,,,15,,66,0
18119,note_on,,0,0,10,,,,,,,,,,,,,,,,15,,57,0
18119,note_on,,59,0,8,,,,,,,,,,,,,,,,11,,69,0
18119,note_on,,0,0,10,,,,,,,,,,,,,,,,15,,69,0
18120,note_on,,1,0,7,,,,,,,,,,,,,,,,10,,74,48
18120,note_on,,1,0,6,,,,,,,,,,,,,,,,7,,57,72
18120,note_on,,1,0,8,,,,,,,,,,,,,,,,11,,74,48
18120,note_on,,1,0,9,,,,,,,,,,,,,,,,13,,53,48
18120,note_on,,0,0,10,,,,,,,,,,,,,,,,15,,62,48
18120,note_on,,0,0,10,,,,,,,,,,,,,,,,15,,69,48
18120,note_on,,0,0,10,,,,,,,,,,,,,,,,15,,74,48
18120,note_on,,0,0,10,,,,,,,,,,,,,,,,15,,57,48
18120,note_on,,1,0,10,,,,,,,,,,,,,,,,15,,53,48
18149,note_on,,29,0,8,,,,,,,,,,,,,,,,11,,74,0
18149,note_on,,29,0,7,,,,,,,,,,,,,,,,10,,74,0
18150,note_on,,1,0,7,,,,,,,,,,,,,,,,10,,73,48
18150,note_on,,1,0,8,,,,,,,,,,,,,,,,11,,73,48
18179,note_on,,29,0,7,,,,,,,,,,,,,,,,10,,73,0
18179,note_on,,29,0,8,,,,,,,,,,,,,,,,11,,73,0
18180,note_on,,1,0,7,,,,,,,,,,,,,,,,10,,74,48
18180,note_on,,1,0,8,,,,,,,,,,,,,,,,11,,74,48
18209,note_on,,29,0,8,,,,,,,,,,,,,,,,11,,74,0
18209,note_on,,29,0,7,,,,,,,,,,,,,,,,10,,74,0
18210,note_on,,1,0,7,,,,,,,,,,,,,,,,10,,73,48
18210,note_on,,1,0,8,,,,,,,,,,,,,,,,11,,73,48
18239,note_on,,29,0,7,,,,,,,,,,,,,,,,10,,73,0
18239,note_on,,119,0,6,,,,,,,,,,,,,,,,7,,57,0
18239,note_on,,119,0,10,,,,,,,,,,,,,,,,15,,53,0
18239,note_on,,0,0,10,,,,,,,,,,,,,,,,15,,57,0
18239,note_on,,0,0,10,,,,,,,,,,,,,,,,15,,74,0
18239,note_on,,0,0,10,,,,,,,,,,,,,,,,15,,69,0
18239,note_on,,0,0,10,,,,,,,,,,,,,,,,15,,62,0
18239,note_on,,29,0,8,,,,,,,,,,,,,,,,11,,73,0
18239,note_on,,119,0,9,,,,,,,,,,,,,,,,13,,53,0
18240,note_on,,1,0,7,,,,,,,,,,,,,,,,10,,74,48
18240,note_on,,1,0,8,,,,,,,,,,,,,,,,11,,74,48
18299,note_on,,59,0,7,,,,,,,,,,,,,,,,10,,74,0
18299,note_on,,59,0,8,,,,,,,,,,,,,,,,11,,74,0
18300,note_on,,1,0,8,,,,,,,,,,,,,,,,11,,62,48
18300,note_on,,61,0,10,,,,,,,,,,,,,,,,15,,53,48
18300,note_on,,0,0,10,,,,,,,,,,,,,,,,15,,74,48
18300,note_on,,0,0,10,,,,,,,,,,,,,,,,15,,69,48
18300,note_on,,0,0,10,,,,,,,,,,,,,,,,15,,62,48
18300,note_on,,0,0,10,,,,,,,,,,,,,,,,15,,57,48
18300,note_on,,61,0,6,,,,,,,,,,,,,,,,7,,57,72
18300,note_on,,1,0,7,,,,,,,,,,,,,,,,10,,62,48
18300,note_on,,61,0,9,,,,,,,,,,,,,,,,13,,53,48
18359,note_on,,59,0,8,,,,,,,,,,,,,,,,11,,62,0
18359,note_on,,59,0,9,,,,,,,,,,,,,,,,13,,53,0
18359,note_on,,59,0,6,,,,,,,,,,,,,,,,7,,57,0
18359,note_on,,0,0,10,,,,,,,,,,,,,,,,15,,57,0
18359,note_on,,59,0,7,,,,,,,,,,,,,,,,10,,62,0
18359,note_on,,59,0,10,,,,,,,,,,,,,,,,15,,53,0
18359,note_on,,0,0,10,,,,,,,,,,,,,,,,15,,69,0
18359,note_on,,0,0,10,,,,,,,,,,,,,,,,15,,62,0
18359,note_on,,0,0,10,,,,,,,,,,,,,,,,15,,74,0
18360,note_on,,1,0,6,,,,,,,,,,,,,,,,7,,64,72
18360,note_on,,1,0,7,,,,,,,,,,,,,,,,10,,56,48
18360,note_on,,0,0,10,,,,,,,,,,,,,,,,15,,71,48
18360,note_on,,0,0,10,,,,,,,,,,,,,,,,15,,68,48
18360,note_on,,0,0,10,,,,,,,,,,,,,,,,15,,64,48
18360,note_on,,0,0,10,,,,,,,,,,,,,,,,15,,59,48
18360,note_on,,1,0,10,,,,,,,,,,,,,,,,15,,52,48
18360,note_on,,1,0,8,,,,,,,,,,,,,,,,11,,56,48
18360,note_on,,1,0,9,,,,,,,,,,,,,,,,13,,52,48
18479,note_on,,119,0,8,,,,,,,,,,,,,,,,11,,56,0
18479,note_on,,119,0,7,,,,,,,,,,,,,,,,10,,56,0
18479,note_on,,119,0,6,,,,,,,,,,,,,,,,7,,64,0
18480,note_on,,1,0,6,,,,,,,,,,,,,,,,7,,52,72
18539,note_on,,179,0,10,,,,,,,,,,,,,,,,15,,52,0
18539,note_on,,179,0,9,,,,,,,,,,,,,,,,13,,52,0
18540,note_on,,1,0,10,,,,,,,,,,,,,,,,15,,50,48
18540,note_on,,1,0,9,,,,,,,,,,,,,,,,13,,50,48
18599,note_on,,0,0,10,,,,,,,,,,,,,,,,15,,64,0
18599,note_on,,119,0,6,,,,,,,,,,,,,,,,7,,52,0
18599,note_on,,59,0,10,,,,,,,,,,,,,,,,15,,71,0
18599,note_on,,0,0,10,,,,,,,,,,,,,,,,15,,68,0
18599,note_on,,59,0,9,,,,,,,,,,,,,,,,13,,50,0
18599,note_on,,0,0,10,,,,,,,,,,,,,,,,15,,50,0
18599,note_on,,0,0,10,,,,,,,,,,,,,,,,15,,59,0
18600,note_on,,0,0,10,,,,,,,,,,,,,,,,15,,57,48
18600,note_on,,0,0,10,,,,,,,,,,,,,,,,15,,64,48
18600,note_on,,1,0,10,,,,,,,,,,,,,,,,15,,48,48
18600,note_on,,0,0,10,,,,,,,,,,,,,,,,15,,76,48
18600,note_on,,0,0,10,,,,,,,,,,,,,,,,15,,69,48
18600,note_on,,1,0,9,,,,,,,,,,,,,,,,13,,48,48
18600,note_on,,1,0,6,,,,,,,,,,,,,,,,7,,57,72
18659,note_on,,59,0,6,,,,,,,,,,,,,,,,7,,57,0
18660,note_on,,1,0,6,,,,,,,,,,,,,,,,7,,55,72
18719,note_on,,119,0,10,,,,,,,,,,,,,,,,15,,48,0
18719,note_on,,0,0,10,,,,,,,,,,,,,,,,15,,76,0
18719,note_on,,0,0,10,,,,,,,,,,,,,,,,15,,69,0
18719,note_on,,0,0,10,,,,,,,,,,,,,,,,15,,57,0
18719,note_on,,0,0,10,,,,,,,,,,,,,,,,15,,64,0
18719,note_on,,59,0,6,,,,,,,,,,,,,,,,7,,55,0
18719,note_on,,119,0,9,,,,,,,,,,,,,,,,13,,48,0
18720,note_on,,1,0,9,,,,,,,,,,,,,,,,13,,50,48
18720,note_on,,0,0,10,,,,,,,,,,,,,,,,15,,66,48
18720,note_on,,0,0,10,,,,,,,,,,,,,,,,15,,62,48
18720,note_on,,0,0,10,,,,,,,,,,,,,,,,15,,57,48
18720,note_on,,0,0,10,,,,,,,,,,,,,,,,15,,69,48
18720,note_on,,1,0,6,,,,,,,,,,,,,,,,7,,54,72
18720,note_on,,1,0,10,,,,,,,,,,,,,,,,15,,50,48
18779,note_on,,59,0,6,,,,,,,,,,,,,,,,7,,54,0
18780,note_on,,1,0,6,,,,,,,,,,,,,,,,7,,57,72
18839,note_on,,59,0,6,,,,,,,,,,,,,,,,7,,57,0
18840,note_on,,1,0,6,,,,,,,,,,,,,,,,7,,59,72
18899,note_on,,59,0,6,,,,,,,,,,,,,,,,7,,59,0
18899,note_on,,179,0,10,,,,,,,,,,,,,,,,15,,50,0
18899,note_on,,179,0,9,,,,,,,,,,,,,,,,13,,50,0
18900,note_on,,1,0,6,,,,,,,,,,,,,,,,7,,60,72
18900,note_on,,1,0,9,,,,,,,,,,,,,,,,13,,48,48
18900,note_on,,1,0,10,,,,,,,,,,,,,,,,15,,48,48
18959,note_on,,59,0,6,,,,,,,,,,,,,,,,7,,60,0
18959,note_on,,59,0,9,,,,,,,,,,,,,,,,13,,48,0
18959,note_on,,0,0,10,,,,,,,,,,,,,,,,15,,48,0
18959,note_on,,0,0,10,,,,,,,,,,,,,,,,15,,62,0
18959,note_on,,59,0,10,,,,,,,,,,,,,,,,15,,69,0
18959,note_on,,0,0,10,,,,,,,,,,,,,,,,15,,66,0
18960,note_on,,1,0,6,,,,,,,,,,,,,,,,7,,62,72
18960,note_on,,1,0,10,,,,,,,,,,,,,,,,15,,47,48
18960,note_on,,0,0,10,,,,,,,,,,,,,,,,15,,62,48
18960,note_on,,0,0,10,,,,,,,,,,,,,,,,15,,71,48
18960,note_on,,1,0,9,,,,,,,,,,,,,,,,13,,47,48
18960,note_on,,0,0,10,,,,,,,,,,,,,,,,15,,66,48
19019,note_on,,59,0,6,,,,,,,,,,,,,,,,7,,62,0
19020,note_on,,1,0,6,,,,,,,,,,,,,,,,7,,59,72
19079,note_on,,119,0,10,,,,,,,,,,,,,,,,15,,57,0
19079,note_on,,0,0,10,,,,,,,,,,,,,,,,15,,47,0
19079,note_on,,59,0,6,,,,,,,,,,,,,,,,7,,59,0
19079,note_on,,0,0,10,,,,,,,,,,,,,,,,15,,66,0
19079,note_on,,0,0,10,,,,,,,,,,,,,,,,15,,62,0
19079,note_on,,0,0,10,,,,,,,,,,,,,,,,15,,71,0
19079,note_on,,119,0,9,,,,,,,,,,,,,,,,13,,47,0
19080,note_on,,0,0,10,,,,,,,,,,,,,,,,15,,71,48
19080,note_on,,1,0,10,,,,,,,,,,,,,,,,15,,52,48
19080,note_on,,0,0,10,,,,,,,,,,,,,,,,15,,59,48
19080,note_on,,0,0,10,,,,,,,,,,,,,,,,15,,56,48
19080,note_on,,1,0,6,,,,,,,,,,,,,,,,7,,56,72
19080,note_on,,1,0,9,,,,,,,,,,,,,,,,13,,52,48
19080,note_on,,0,0,10,,,,,,,,,,,,,,,,15,,64,48
19139,note_on,,59,0,6,,,,,,,,,,,,,,,,7,,56,0
19140,note_on,,1,0,6,,,,,,,,,,,,,,,,7,,59,72
19199,note_on,,59,0,6,,,,,,,,,,,,,,,,7,,59,0
19200,note_on,,1,0,6,,,,,,,,,,,,,,,,7,,60,72
19259,note_on,,59,0,6,,,,,,,,,,,,,,,,7,,60,0
19259,note_on,,179,0,9,,,,,,,,,,,,,,,,13,,52,0
19259,note_on,,179,0,10,,,,,,,,,,,,,,,,15,,52,0
19260,note_on,,1,0,9,,,,,,,,,,,,,,,,13,,50,48
19260,note_on,,1,0,6,,,,,,,,,,,,,,,,7,,62,72
19260,note_on,,1,0,10,,,,,,,,,,,,,,,,15,,50,48
19319,note_on,,59,0,6,,,,,,,,,,,,,,,,7,,62,0
19319,note_on,,0,0,10,,,,,,,,,,,,,,,,15,,50,0
19319,note_on,,0,0,10,,,,,,,,,,,,,,,,15,,56,0
19319,note_on,,59,0,9,,,,,,,,,,,,,,,,13,,50,0
19319,note_on,,0,0,10,,,,,,,,,,,,,,,,15,,59,0
19319,note_on,,0,0,10,,,,,,,,,,,,,,,,15,,64,0
19319,note_on,,59,0,10,,,,,,,,,,,,,,,,15,,71,0
19320,note_on,,1,0,10,,,,,,,,,,,,,,,,15,,48,48
19320,note_on,,0,0,10,,,,,,,,,,,,,,,,15,,72,48
19320,note_on,,0,0,10,,,,,,,,,,,,,,,,15,,69,48
19320,note_on,,1,0,6,,,,,,,,,,,,,,,,7,,64,72
19320,note_on,,0,0,10,,,,,,,,,,,,,,,,15,,57,48
19320,note_on,,1,0,9,,,,,,,,,,,,,,,,13,,48,48
19320,note_on,,0,0,10,,,,,,,,,,,,,,,,15,,64,48
19379,note_on,,59,0,6,,,,,,,,,,,,,,,,7,,64,0
19380,note_on,,1,0,6,,,,,,,,,,,,,,,,7,,60,72
19439,note_on,,0,0,10,,,,,,,,,,,,,,,,15,,64,0
19439,note_on,,0,0,10,,,,,,,,,,,,,,,,15,,69,0
19439,note_on,,119,0,10,,,,,,,,,,,,,,,,15,,48,0
19439,note_on,,119,0,9,,,,,,,,,,,,,,,,13,,48,0
19439,note_on,,0,0,10,,,,,,,,,,,,,,,,15,,57,0
19439,note_on,,0,0,10,,,,,,,,,,,,,,,,15,,72,0
19439,note_on,,59,0,6,,,,,,,,,,,,,,,,7,,60,0
19440,note_on,,1,0,6,,,,,,,,,,,,,,,,7,,57,72
19440,note_on,,0,0,10,,,,,,,,,,,,,,,,15,,62,48
19440,note_on,,0,0,10,,,,,,,,,,,,,,,,15,,65,48
19440,note_on,,1,0,9,,,,,,,,,,,,,,,,13,,53,48
19440,note_on,,0,0,10,,,,,,,,,,,,,,,,15,,69,48
19440,note_on,,0,0,10,,,,,,,,,,,,,,,,15,,57,48
19440,note_on,,1,0,10,,,,,,,,,,,,,,,,15,,53,48
19499,note_on,,59,0,6,,,,,,,,,,,,,,,,7,,57,0
19500,note_on,,1,0,6,,,,,,,,,,,,,,,,7,,59,72
19529,note_on,,29,0,6,,,,,,,,,,,,,,,,7,,59,0
19530,note_on,,1,0,6,,,,,,,,,,,,,,,,7,,60,72
19559,note_on,,29,0,6,,,,,,,,,,,,,,,,7,,60,0
19560,note_on,,1,0,6,,,,,,,,,,,,,,,,7,,62,72
19619,note_on,,0,0,10,,,,,,,,,,,,,,,,15,,62,0
19619,note_on,,0,0,10,,,,,,,,,,,,,,,,15,,65,0
19619,note_on,,0,0,10,,,,,,,,,,,,,,,,15,,57,0
19619,note_on,,0,0,10,,,,,,,,,,,,,,,,15,,69,0
19619,note_on,,179,0,9,,,,,,,,,,,,,,,,13,,53,0
19619,note_on,,59,0,6,,,,,,,,,,,,,,,,7,,62,0
19619,note_on,,179,0,10,,,,,,,,,,,,,,,,15,,53,0
19620,note_on,,0,0,10,,,,,,,,,,,,,,,,15,,67,48
19620,note_on,,1,0,9,,,,,,,,,,,,,,,,13,,52,48
19620,note_on,,1,0,10,,,,,,,,,,,,,,,,15,,52,48
19620,note_on,,0,0,10,,,,,,,,,,,,,,,,15,,73,48
19620,note_on,,0,0,10,,,,,,,,,,,,,,,,15,,64,48
19620,note_on,,0,0,10,,,,,,,,,,,,,,,,15,,55,48
19620,note_on,,1,0,6,,,,,,,,,,,,,,,,7,,64,72
19679,note_on,,59,0,6,,,,,,,,,,,,,,,,7,,64,0
19679,note_on,,59,0,10,,,,,,,,,,,,,,,,15,,52,0
19679,note_on,,0,0,10,,,,,,,,,,,,,,,,15,,73,0
19679,note_on,,59,0,9,,,,,,,,,,,,,,,,13,,52,0
19679,note_on,,0,0,10,,,,,,,,,,,,,,,,15,,64,0
19679,note_on,,0,0,10,,,,,,,,,,,,,,,,15,,55,0
19679,note_on,,0,0,10,,,,,,,,,,,,,,,,15,,67,0
19680,note_on,,0,0,10,,,,,,,,,,,,,,,,15,,74,48
19680,note_on,,0,0,10,,,,,,,,,,,,,,,,15,,69,48
19680,note_on,,0,0,10,,,,,,,,,,,,,,,,15,,65,48
19680,note_on,,0,0,10,,,,,,,,,,,,,,,,15,,53,48
19680,note_on,,1,0,6,,,,,,,,,,,,,,,,7,,65,72
19680,note_on,,1,0,9,,,,,,,,,,,,,,,,13,,50,48
19680,note_on,,1,0,10,,,,,,,,,,,,,,,,15,,50,48
19739,note_on,,59,0,6,,,,,,,,,,,,,,,,7,,65,0
19740,note_on,,1,0,6,,,,,,,,,,,,,,,,7,,57,72
19799,note_on,,59,0,6,,,,,,,,,,,,,,,,7,,57,0
19799,note_on,,119,0,9,,,,,,,,,,,,,,,,13,,50,0
19799,note_on,,0,0,10,,,,,,,,,,,,,,,,15,,69,0
19799,note_on,,0,0,10,,,,,,,,,,,,,,,,15,,74,0
19799,note_on,,119,0,10,,,,,,,,,,,,,,,,15,,50,0
19799,note_on,,0,0,10,,,,,,,,,,,,,,,,15,,65,0
19799,note_on,,0,0,10,,,,,,,,,,,,,,,,15,,53,0
19800,note_on,,0,0,10,,,,,,,,,,,,,,,,15,,71,48
19800,note_on,,0,0,10,,,,,,,,,,,,,,,,15,,68,48
19800,note_on,,0,0,10,,,,,,,,,,,,,,,,15,,59,48
19800,note_on,,0,0,10,,,,,,,,,,,,,,,,15,,64,48
19800,note_on,,1,0,9,,,,,,,,,,,,,,,,13,,52,48
19800,note_on,,1,0,6,,,,,,,,,,,,,,,,7,,56,72
19800,note_on,,1,0,10,,,,,,,,,,,,,,,,15,,52,48
19859,note_on,,59,0,6,,,,,,,,,,,,,,,,7,,56,0
19860,note_on,,1,0,6,,,,,,,,,,,,,,,,7,,54,72
19919,note_on,,59,0,6,,,,,,,,,,,,,,,,7,,54,0
19920,note_on,,1,0,6,,,,,,,,,,,,,,,,7,,52,72
19979,note_on,,179,0,9,,,,,,,,,,,,,,,,13,,52,0
19979,note_on,,179,0,10,,,,,,,,,,,,,,,,15,,52,0
19979,note_on,,0,0,10,,,,,,,,,,,,,,,,15,,68,0
19980,note_on,,0,0,10,,,,,,,,,,,,,,,,15,,69,48
19980,note_on,,1,0,10,,,,,,,,,,,,,,,,15,,54,48
19980,note_on,,1,0,9,,,,,,,,,,,,,,,,13,,54,48
20039,note_on,,0,0,10,,,,,,,,,,,,,,,,15,,69,0
20039,note_on,,59,0,9,,,,,,,,,,,,,,,,13,,54,0
20039,note_on,,0,0,10,,,,,,,,,,,,,,,,15,,54,0
20039,note_on,,0,0,10,,,,,,,,,,,,,,,,15,,64,0
20039,note_on,,59,0,10,,,,,,,,,,,,,,,,15,,71,0
20039,note_on,,119,0,6,,,,,,,,,,,,,,,,7,,52,0
20039,note_on,,0,0,10,,,,,,,,,,,,,,,,15,,59,0
20040,note_on,,1,0,6,,,,,,,,,,,,,,,,7,,64,72
20040,note_on,,0,0,10,,,,,,,,,,,,,,,,15,,64,48
20040,note_on,,0,0,10,,,,,,,,,,,,,,,,15,,71,48
20040,note_on,,1,0,10,,,,,,,,,,,,,,,,15,,56,48
20040,note_on,,1,0,9,,,,,,,,,,,,,,,,13,,56,48
20040,note_on,,0,0,10,,,,,,,,,,,,,,,,15,,59,48
20099,note_on,,59,0,6,,,,,,,,,,,,,,,,7,,64,0
20100,note_on,,1,0,6,,,,,,,,,,,,,,,,7,,62,72
20159,note_on,,59,0,6,,,,,,,,,,,,,,,,7,,62,0
20159,note_on,,0,0,10,,,,,,,,,,,,,,,,15,,71,0
20159,note_on,,119,0,10,,,,,,,,,,,,,,,,15,,56,0
20159,note_on,,0,0,10,,,,,,,,,,,,,,,,15,,59,0
20159,note_on,,0,0,10,,,,,,,,,,,,,,,,15,,64,0
20159,note_on,,119,0,9,,,,,,,,,,,,,,,,13,,56,0
20160,note_on,,0,0,10,,,,,,,,,,,,,,,,15,,76,48
20160,note_on,,0,0,10,,,,,,,,,,,,,,,,15,,69,48
20160,note_on,,0,0,10,,,,,,,,,,,,,,,,15,,64,48
20160,note_on,,1,0,6,,,,,,,,,,,,,,,,7,,60,72
20160,note_on,,0,0,10,,,,,,,,,,,,,,,,15,,60,48
20160,note_on,,1,0,9,,,,,,,,,,,,,,,,13,,57,48
20160,note_on,,1,0,10,,,,,,,,,,,,,,,,15,,57,48
20189,note_on,,29,0,6,,,,,,,,,,,,,,,,7,,60,0
20190,note_on,,1,0,6,,,,,,,,,,,,,,,,7,,59,72
20219,note_on,,0,0,10,,,,,,,,,,,,,,,,15,,69,0
20219,note_on,,0,0,10,,,,,,,,,,,,,,,,15,,60,0
20219,note_on,,59,0,10,,,,,,,,,,,,,,,,15,,57,0
20219,note_on,,29,0,6,,,,,,,,,,,,,,,,7,,59,0
20219,note_on,,59,0,9,,,,,,,,,,,,,,,,13,,57,0
20219,note_on,,0,0,10,,,,,,,,,,,,,,,,15,,64,0
20219,note_on,,0,0,10,,,,,,,,,,,,,,,,15,,76,0
20220,note_on,,0,0,10,,,,,,,,,,,,,,,,15,,59,48
20220,note_on,,1,0,6,,,,,,,,,,,,,,,,7,,57,72
20220,note_on,,1,0,10,,,,,,,,,,,,,,,,15,,50,48
20220,note_on,,0,0,10,,,,,,,,,,,,,,,,15,,77,48
20220,note_on,,0,0,10,,,,,,,,,,,,,,,,15,,74,48
20220,note_on,,0,0,10,,,,,,,,,,,,,,,,15,,69,48
20220,note_on,,1,0,9,,,,,,,,,,,,,,,,13,,50,48
20279,note_on,,0,0,10,,,,,,,,,,,,,,,,15,,69,0
20279,note_on,,0,0,10,,,,,,,,,,,,,,,,15,,77,0
20279,note_on,,0,0,10,,,,,,,,,,,,,,,,15,,74,0
20279,note_on,,59,0,6,,,,,,,,,,,,,,,,7,,57,0
20279,note_on,,59,0,9,,,,,,,,,,,,,,,,13,,50,0
20279,note_on,,0,0,10,,,,,,,,,,,,,,,,15,,59,0
20279,note_on,,59,0,10,,,,,,,,,,,,,,,,15,,50,0
20280,note_on,,1,0,6,,,,,,,,,,,,,,,,7,,56,72
20280,note_on,,1,0,9,,,,,,,,,,,,,,,,13,,52,48
20280,note_on,,0,0,10,,,,,,,,,,,,,,,,15,,59,48
20280,note_on,,0,0,10,,,,,,,,,,,,,,,,15,,71,48
20280,note_on,,0,0,10,,,,,,,,,,,,,,,,15,,68,48
20280,note_on,,0,0,10,,,,,,,,,,,,,,,,15,,64,48
20280,note_on,,1,0,10,,,,,,,,,,,,,,,,15,,52,48
20399,note_on,,119,0,9,,,,,,,,,,,,,,,,13,,52,0
20399,note_on,,119,0,10,,,,,,,,,,,,,,,,15,,52,0
20399,note_on,,0,0,10,,,,,,,,,,,,,,,,15,,71,0
20399,note_on,,0,0,10,,,,,,,,,,,,,,,,15,,68,0
20399,note_on,,0,0,10,,,,,,,,,,,,,,,,15,,64,0
20399,note_on,,0,0,10,,,,,,,,,,,,,,,,15,,59,0
20400,note_on,,0,0,10,,,,,,,,,,,,,,,,15,,52,48
20400,note_on,,0,0,10,,,,,,,,,,,,,,,,15,,68,48
20400,note_on,,0,0,10,,,,,,,,,,,,,,,,15,,71,48
20400,note_on,,1,0,10,,,,,,,,,,,,,,,,15,,40,48
20400,note_on,,1,0,9,,,,,,,,,,,,,,,,13,,40,48
20400,note_on,,0,0,10,,,,,,,,,,,,,,,,15,,76,48
20459,note_on,,179,0,6,,,,,,,,,,,,,,,,7,,56,0
20460,note_on,,1,0,6,,,,,,,,,,,,,,,,7,,56,72
20519,note_on,,119,0,9,,,,,,,,,,,,,,,,13,,40,0
20519,note_on,,119,0,10,,,,,,,,,,,,,,,,15,,40,0
20519,note_on,,0,0,10,,,,,,,,,,,,,,,,15,,52,0
20519,note_on,,0,0,10,,,,,,,,,,,,,,,,15,,68,0
20519,note_on,,0,0,10,,,,,,,,,,,,,,,,15,,71,0
20519,note_on,,0,0,10,,,,,,,,,,,,,,,,15,,76,0
20519,note_on,,59,0,6,,,,,,,,,,,,,,,,7,,56,0
20520,note_on,,0,0,10,,,,,,,,,,,,,,,,15,,69,48
20520,note_on,,1,0,10,,,,,,,,,,,,,,,,15,,45,48
20520,note_on,,0,0,10,,,,,,,,,,,,,,,,15,,52,48
20520,note_on,,1,0,6,,,,,,,,,,,,,,,,7,,57,72
20520,note_on,,0,0,10,,,,,,,,,,,,,,,,15,,64,48
20520,note_on,,0,0,10,,,,,,,,,,,,,,,,15,,72,48
20520,note_on,,1,0,9,,,,,,,,,,,,,,,,13,,45,48
20580,note_on,,2101,0,7,,,,,,,,,,,,,,,,10,,76,48
20580,note_on,,2101,0,8,,,,,,,,,,,,,,,,11,,76,48
20639,note_on,,0,0,10,,,,,,,,,,,,,,,,15,,52,0
20639,note_on,,59,0,8,,,,,,,,,,,,,,,,11,,76,0
20639,note_on,,119,0,10,,,,,,,,,,,,,,,,15,,45,0
20639,note_on,,0,0,10,,,,,,,,,,,,,,,,15,,64,0
20639,note_on,,0,0,10,,,,,,,,,,,,,,,,15,,69,0
20639,note_on,,0,0,10,,,,,,,,,,,,,,,,15,,72,0
20639,note_on,,119,0,6,,,,,,,,,,,,,,,,7,,57,0
20639,note_on,,59,0,7,,,,,,,,,,,,,,,,10,,76,0
20639,note_on,,119,0,9,,,,,,,,,,,,,,,,13,,45,0
20640,note_on,,1,0,7,,,,,,,,,,,,,,,,10,,81,48
20640,note_on,,1,0,8,,,,,,,,,,,,,,,,11,,81,48
20640,note_on,,1,0,6,,,,,,,,,,,,,,,,7,,57,72
20669,note_on,,29,0,7,,,,,,,,,,,,,,,,10,,81,0
20669,note_on,,29,0,8,,,,,,,,,,,,,,,,11,,81,0
20670,note_on,,1,0,7,,,,,,,,,,,,,,,,10,,80,48
20670,note_on,,1,0,8,,,,,,,,,,,,,,,,11,,80,48
20699,note_on,,29,0,7,,,,,,,,,,,,,,,,10,,80,0
20699,note_on,,29,0,8,,,,,,,,,,,,,,,,11,,80,0
20700,note_on,,1,0,8,,,,,,,,,,,,,,,,11,,81,48
20700,note_on,,1,0,7,,,,,,,,,,,,,,,,10,,81,48
20729,note_on,,29,0,8,,,,,,,,,,,,,,,,11,,81,0
20729,note_on,,29,0,7,,,,,,,,,,,,,,,,10,,81,0
20730,note_on,,1,0,7,,,,,,,,,,,,,,,,10,,80,48
20730,note_on,,1,0,8,,,,,,,,,,,,,,,,11,,80,48
20759,note_on,,29,0,8,,,,,,,,,,,,,,,,11,,80,0
20759,note_on,,119,0,6,,,,,,,,,,,,,,,,7,,57,0
20759,note_on,,29,0,7,,,,,,,,,,,,,,,,10,,80,0
20760,note_on,,1,0,8,,,,,,,,,,,,,,,,11,,81,48
20760,note_on,,1,0,7,,,,,,,,,,,,,,,,10,,81,48
20819,note_on,,59,0,7,,,,,,,,,,,,,,,,10,,81,0
20819,note_on,,59,0,8,,,,,,,,,,,,,,,,11,,81,0
20820,note_on,,1,0,8,,,,,,,,,,,,,,,,11,,60,48
20820,note_on,,181,0,9,,,,,,,,,,,,,,,,13,,57,48
20820,note_on,,1,0,7,,,,,,,,,,,,,,,,10,,60,48
20820,note_on,,0,0,10,,,,,,,,,,,,,,,,15,,69,48
20820,note_on,,0,0,10,,,,,,,,,,,,,,,,15,,64,48
20820,note_on,,181,0,10,,,,,,,,,,,,,,,,15,,57,48
20820,note_on,,0,0,10,,,,,,,,,,,,,,,,15,,60,48
20879,note_on,,59,0,10,,,,,,,,,,,,,,,,15,,57,0
20879,note_on,,0,0,10,,,,,,,,,,,,,,,,15,,69,0
20879,note_on,,0,0,10,,,,,,,,,,,,,,,,15,,64,0
20879,note_on,,0,0,10,,,,,,,,,,,,,,,,15,,60,0
20879,note_on,,59,0,7,,,,,,,,,,,,,,,,10,,60,0
20879,note_on,,59,0,8,,,,,,,,,,,,,,,,11,,60,0
20879,note_on,,59,0,9,,,,,,,,,,,,,,,,13,,57,0
20880,note_on,,0,0,10,,,,,,,,,,,,,,,,15,,59,48
20880,note_on,,0,0,10,,,,,,,,,,,,,,,,15,,64,48
20880,note_on,,0,0,10,,,,,,,,,,,,,,,,15,,71,48
20880,note_on,,1,0,9,,,,,,,,,,,,,,,,13,,56,48
20880,note_on,,1,0,7,,,,,,,,,,,,,,,,10,,59,48
20880,note_on,,1,0,10,,,,,,,,,,,,,,,,15,,56,48
20880,note_on,,1,0,8,,,,,,,,,,,,,,,,11,,59,48
20999,note_on,,119,0,9,,,,,,,,,,,,,,,,13,,56,0
20999,note_on,,119,0,7,,,,,,,,,,,,,,,,10,,59,0
20999,note_on,,0,0,10,,,,,,,,,,,,,,,,15,,64,0
20999,note_on,,0,0,10,,,,,,,,,,,,,,,,15,,71,0
20999,note_on,,0,0,10,,,,,,,,,,,,,,,,15,,59,0
20999,note_on,,119,0,8,,,,,,,,,,,,,,,,11,,59,0
20999,note_on,,119,0,10,,,,,,,,,,,,,,,,15,,56,0
21000,note_on,,1,0,10,,,,,,,,,,,,,,,,15,,55,48
21000,note_on,,0,0,10,,,,,,,,,,,,,,,,15,,59,48
21000,note_on,,0,0,10,,,,,,,,,,,,,,,,15,,76,48
21000,note_on,,0,0,10,,,,,,,,,,,,,,,,15,,71,48
21000,note_on,,0,0,10,,,,,,,,,,,,,,,,15,,64,48
21000,note_on,,1,0,9,,,,,,,,,,,,,,,,13,,55,48
21000,note_on,,241,0,6,,,,,,,,,,,,,,,,7,,64,72
21119,note_on,,119,0,9,,,,,,,,,,,,,,,,13,,55,0
21119,note_on,,119,0,6,,,,,,,,,,,,,,,,7,,64,0
21119,note_on,,0,0,10,,,,,,,,,,,,,,,,15,,76,0
21119,note_on,,0,0,10,,,,,,,,,,,,,,,,15,,71,0
21119,note_on,,0,0,10,,,,,,,,,,,,,,,,15,,64,0
21119,note_on,,0,0,10,,,,,,,,,,,,,,,,15,,59,0
21119,note_on,,119,0,10,,,,,,,,,,,,,,,,15,,55,0
21120,note_on,,1,0,6,,,,,,,,,,,,,,,,7,,64,72
21180,note_on,,0,0,10,,,,,,,,,,,,,,,,15,,76,48
21180,note_on,,0,0,10,,,,,,,,,,,,,,,,15,,67,48
21180,note_on,,0,0,10,,,,,,,,,,,,,,,,15,,64,48
21180,note_on,,0,0,10,,,,,,,,,,,,,,,,15,,59,48
21180,note_on,,61,0,10,,,,,,,,,,,,,,,,15,,55,48
21180,note_on,,61,0,9,,,,,,,,,,,,,,,,13,,55,48
21239,note_on,,119,0,6,,,,,,,,,,,,,,,,7,,64,0
21239,note_on,,59,0,10,,,,,,,,,,,,,,,,15,,55,0
21239,note_on,,59,0,9,,,,,,,,,,,,,,,,13,,55,0
21239,note_on,,0,0,10,,,,,,,,,,,,,,,,15,,67,0
21239,note_on,,0,0,10,,,,,,,,,,,,,,,,15,,76,0
21239,note_on,,0,0,10,,,,,,,,,,,,,,,,15,,64,0
21239,note_on,,0,0,10,,,,,,,,,,,,,,,,15,,59,0
21240,note_on,,0,0,10,,,,,,,,,,,,,,,,15,,57,48
21240,note_on,,1,0,10,,,,,,,,,,,,,,,,15,,54,48
21240,note_on,,0,0,10,,,,,,,,,,,,,,,,15,,76,48
21240,note_on,,0,0,10,,,,,,,,,,,,,,,,15,,69,48
21240,note_on,,0,0,10,,,,,,,,,,,,,,,,15,,66,48
21240,note_on,,1,0,9,,,,,,,,,,,,,,,,13,,54,48
21240,note_on,,1,0,6,,,,,,,,,,,,,,,,7,,69,72
21359,note_on,,119,0,9,,,,,,,,,,,,,,,,13,,54,0
21359,note_on,,119,0,10,,,,,,,,,,,,,,,,15,,54,0
21359,note_on,,0,0,10,,,,,,,,,,,,,,,,15,,76,0
21359,note_on,,119,0,6,,,,,,,,,,,,,,,,7,,69,0
21359,note_on,,0,0,10,,,,,,,,,,,,,,,,15,,66,0
21359,note_on,,0,0,10,,,,,,,,,,,,,,,,15,,57,0
21359,note_on,,0,0,10,,,,,,,,,,,,,,,,15,,69,0
21360,note_on,,1,0,6,,,,,,,,,,,,,,,,7,,57,72
21360,note_on,,1,0,10,,,,,,,,,,,,,,,,15,,53,48
21360,note_on,,0,0,10,,,,,,,,,,,,,,,,15,,69,48
21360,note_on,,0,0,10,,,,,,,,,,,,,,,,15,,74,48
21360,note_on,,0,0,10,,,,,,,,,,,,,,,,15,,81,48
21360,note_on,,0,0,10,,,,,,,,,,,,,,,,15,,57,48
21360,note_on,,1,0,9,,,,,,,,,,,,,,,,13,,53,48
21479,note_on,,0,0,10,,,,,,,,,,,,,,,,15,,57,0
21479,note_on,,0,0,10,,,,,,,,,,,,,,,,15,,69,0
21479,note_on,,119,0,6,,,,,,,,,,,,,,,,7,,57,0
21479,note_on,,0,0,10,,,,,,,,,,,,,,,,15,,74,0
21479,note_on,,119,0,9,,,,,,,,,,,,,,,,13,,53,0
21479,note_on,,119,0,10,,,,,,,,,,,,,,,,15,,53,0
21479,note_on,,0,0,10,,,,,,,,,,,,,,,,15,,81,0
21540,note_on,,0,0,10,,,,,,,,,,,,,,,,15,,57,48
21540,note_on,,0,0,10,,,,,,,,,,,,,,,,15,,69,48
21540,note_on,,61,0,10,,,,,,,,,,,,,,,,15,,53,48
21540,note_on,,61,0,9,,,,,,,,,,,,,,,,13,,53,48
21540,note_on,,0,0,10,,,,,,,,,,,,,,,,15,,74,48
21540,note_on,,61,0,6,,,,,,,,,,,,,,,,7,,57,72
21540,note_on,,541,0,7,,,,,,,,,,,,,,,,10,,57,48
21540,note_on,,541,0,8,,,,,,,,,,,,,,,,11,,57,48
21599,note_on,,59,0,9,,,,,,,,,,,,,,,,13,,53,0
21599,note_on,,59,0,7,,,,,,,,,,,,,,,,10,,57,0
21599,note_on,,59,0,6,,,,,,,,,,,,,,,,7,,57,0
21599,note_on,,59,0,10,,,,,,,,,,,,,,,,15,,53,0
21599,note_on,,0,0,10,,,,,,,,,,,,,,,,15,,74,0
21599,note_on,,0,0,10,,,,,,,,,,,,,,,,15,,69,0
21599,note_on,,0,0,10,,,,,,,,,,,,,,,,15,,57,0
21599,note_on,,59,0,8,,,,,,,,,,,,,,,,11,,57,0
21600,note_on,,1,0,7,,,,,,,,,,,,,,,,10,,56,48
21600,note_on,,1,0,10,,,,,,,,,,,,,,,,15,,52,48
21600,note_on,,0,0,10,,,,,,,,,,,,,,,,15,,74,48
21600,note_on,,0,0,10,,,,,,,,,,,,,,,,15,,68,48
21600,note_on,,0,0,10,,,,,,,,,,,,,,,,15,,64,48
21600,note_on,,0,0,10,,,,,,,,,,,,,,,,15,,59,48
21600,note_on,,1,0,9,,,,,,,,,,,,,,,,13,,52,48
21600,note_on,,1,0,8,,,,,,,,,,,,,,,,11,,56,48
21600,note_on,,1,0,6,,,,,,,,,,,,,,,,7,,64,72
21659,note_on,,59,0,8,,,,,,,,,,,,,,,,11,,56,0
21659,note_on,,59,0,7,,,,,,,,,,,,,,,,10,,56,0
21660,note_on,,1,0,7,,,,,,,,,,,,,,,,10,,59,48
21660,note_on,,1,0,8,,,,,,,,,,,,,,,,11,,59,48
21719,note_on,,119,0,9,,,,,,,,,,,,,,,,13,,52,0
21719,note_on,,59,0,7,,,,,,,,,,,,,,,,10,,59,0
21719,note_on,,59,0,8,,,,,,,,,,,,,,,,11,,59,0
21719,note_on,,119,0,6,,,,,,,,,,,,,,,,7,,64,0
21719,note_on,,0,0,10,,,,,,,,,,,,,,,,15,,74,0
21719,note_on,,119,0,10,,,,,,,,,,,,,,,,15,,52,0
21719,note_on,,0,0,10,,,,,,,,,,,,,,,,15,,68,0
21719,note_on,,0,0,10,,,,,,,,,,,,,,,,15,,64,0
21719,note_on,,0,0,10,,,,,,,,,,,,,,,,15,,59,0
21720,note_on,,1,0,6,,,,,,,,,,,,,,,,7,,52,72
21720,note_on,,1,0,7,,,,,,,,,,,,,,,,10,,62,48
21720,note_on,,1,0,8,,,,,,,,,,,,,,,,11,,62,48
21779,note_on,,59,0,7,,,,,,,,,,,,,,,,10,,62,0
21779,note_on,,59,0,8,,,,,,,,,,,,,,,,11,,62,0
21780,note_on,,1,0,8,,,,,,,,,,,,,,,,11,,68,48
21780,note_on,,1,0,7,,,,,,,,,,,,,,,,10,,68,48
21839,note_on,,59,0,8,,,,,,,,,,,,,,,,11,,68,0
21839,note_on,,59,0,7,,,,,,,,,,,,,,,,10,,68,0
21839,note_on,,119,0,6,,,,,,,,,,,,,,,,7,,52,0
21840,note_on,,1,0,7,,,,,,,,,,,,,,,,10,,71,48
21840,note_on,,1,0,8,,,,,,,,,,,,,,,,11,,71,48
21899,note_on,,59,0,8,,,,,,,,,,,,,,,,11,,71,0
21899,note_on,,59,0,7,,,,,,,,,,,,,,,,10,,71,0
21900,note_on,,1,0,7,,,,,,,,,,,,,,,,10,,74,48
21900,note_on,,1,0,8,,,,,,,,,,,,,,,,11,,74,48
21959,note_on,,59,0,7,,,,,,,,,,,,,,,,10,,74,0
21959,note_on,,59,0,8,,,,,,,,,,,,,,,,11,,74,0
21960,note_on,,1,0,8,,,,,,,,,,,,,,,,11,,80,48
21960,note_on,,1,0,7,,,,,,,,,,,,,,,,10,,80,48
22019,note_on,,59,0,7,,,,,,,,,,,,,,,,10,,80,0
22019,note_on,,59,0,8,,,,,,,,,,,,,,,,11,,80,0
22020,note_on,,1,0,7,,,,,,,,,,,,,,,,10,,83,48
22020,note_on,,1,0,8,,,,,,,,,,,,,,,,11,,83,48
22079,note_on,,59,0,7,,,,,,,,,,,,,,,,10,,83,0
22079,note_on,,59,0,8,,,,,,,,,,,,,,,,11,,83,0
22080,note_on,,1,0,7,,,,,,,,,,,,,,,,10,,86,48
22080,note_on,,1,0,8,,,,,,,,,,,,,,,,11,,86,48
22139,note_on,,59,0,7,,,,,,,,,,,,,,,,10,,86,0
22139,note_on,,59,0,8,,,,,,,,,,,,,,,,11,,86,0
22140,note_on,,1,0,7,,,,,,,,,,,,,,,,10,,83,48
22140,note_on,,1,0,8,,,,,,,,,,,,,,,,11,,83,48
22199,note_on,,59,0,8,,,,,,,,,,,,,,,,11,,83,0
22199,note_on,,59,0,7,,,,,,,,,,,,,,,,10,,83,0
22200,note_on,,481,0,9,,,,,,,,,,,,,,,,13,,52,48
22200,note_on,,481,0,10,,,,,,,,,,,,,,,,15,,52,48
22200,note_on,,0,0,10,,,,,,,,,,,,,,,,15,,71,48
22200,note_on,,0,0,10,,,,,,,,,,,,,,,,15,,64,48
22200,note_on,,361,0,6,,,,,,,,,,,,,,,,7,,64,72
22200,note_on,,1,0,8,,,,,,,,,,,,,,,,11,,80,48
22200,note_on,,0,0,10,,,,,,,,,,,,,,,,15,,68,48
22200,note_on,,0,0,10,,,,,,,,,,,,,,,,15,,59,48
22200,note_on,,1,0,7,,,,,,,,,,,,,,,,10,,80,48
22259,note_on,,59,0,8,,,,,,,,,,,,,,,,11,,80,0
22259,note_on,,59,0,7,,,,,,,,,,,,,,,,10,,80,0
22259,note_on,,0,0,10,,,,,,,,,,,,,,,,15,,68,0
22259,note_on,,59,0,9,,,,,,,,,,,,,,,,13,,52,0
22259,note_on,,59,0,10,,,,,,,,,,,,,,,,15,,52,0
22259,note_on,,59,0,6,,,,,,,,,,,,,,,,7,,64,0
22259,note_on,,0,0,10,,,,,,,,,,,,,,,,15,,59,0
22259,note_on,,0,0,10,,,,,,,,,,,,,,,,15,,64,0
22259,note_on,,0,0,10,,,,,,,,,,,,,,,,15,,71,0
22260,note_on,,1,0,8,,,,,,,,,,,,,,,,11,,83,48
22260,note_on,,1,0,7,,,,,,,,,,,,,,,,10,,83,48
22260,note_on,,1,0,6,,,,,,,,,,,,,,,,7,,62,72
22260,note_on,,0,0,10,,,,,,,,,,,,,,,,15,,76,48
22260,note_on,,0,0,10,,,,,,,,,,,,,,,,15,,71,48
22260,note_on,,0,0,10,,,,,,,,,,,,,,,,15,,64,48
22260,note_on,,0,0,10,,,,,,,,,,,,,,,,15,,59,48
22260,note_on,,1,0,9,,,,,,,,,,,,,,,,13,,56,48
22260,note_on,,1,0,10,,,,,,,,,,,,,,,,15,,56,48
22319,note_on,,59,0,6,,,,,,,,,,,,,,,,7,,62,0
22319,note_on,,0,0,10,,,,,,,,,,,,,,,,15,,71,0
22319,note_on,,0,0,10,,,,,,,,,,,,,,,,15,,76,0
22319,note_on,,0,0,10,,,,,,,,,,,,,,,,15,,59,0
22319,note_on,,59,0,10,,,,,,,,,,,,,,,,15,,56,0
22319,note_on,,59,0,8,,,,,,,,,,,,,,,,11,,83,0
22319,note_on,,59,0,7,,,,,,,,,,,,,,,,10,,83,0
22319,note_on,,59,0,9,,,,,,,,,,,,,,,,13,,56,0
22319,note_on,,0,0,10,,,,,,,,,,,,,,,,15,,64,0
22320,note_on,,1,0,6,,,,,,,,,,,,,,,,7,,60,72
22320,note_on,,1,0,9,,,,,,,,,,,,,,,,13,,57,48
22320,note_on,,1,0,8,,,,,,,,,,,,,,,,11,,76,48
22320,note_on,,1,0,7,,,,,,,,,,,,,,,,10,,76,48
22320,note_on,,1,0,10,,,,,,,,,,,,,,,,15,,57,48
22320,note_on,,0,0,10,,,,,,,,,,,,,,,,15,,76,48
22320,note_on,,0,0,10,,,,,,,,,,,,,,,,15,,72,48
22320,note_on,,0,0,10,,,,,,,,,,,,,,,,15,,64,48
22439,note_on,,119,0,8,,,,,,,,,,,,,,,,11,,76,0
22439,note_on,,119,0,10,,,,,,,,,,,,,,,,15,,57,0
22439,note_on,,119,0,9,,,,,,,,,,,,,,,,13,,57,0
22439,note_on,,0,0,10,,,,,,,,,,,,,,,,15,,64,0
22439,note_on,,119,0,7,,,,,,,,,,,,,,,,10,,76,0
22440,note_on,,1,0,9,,,,,,,,,,,,,,,,13,,52,48
22440,note_on,,1,0,10,,,,,,,,,,,,,,,,15,,52,48
22440,note_on,,0,0,10,,,,,,,,,,,,,,,,15,,68,48
22440,note_on,,0,0,10,,,,,,,,,,,,,,,,15,,64,48
22499,note_on,,0,0,10,,,,,,,,,,,,,,,,15,,72,0
22499,note_on,,179,0,6,,,,,,,,,,,,,,,,7,,60,0
22499,note_on,,59,0,10,,,,,,,,,,,,,,,,15,,76,0
22500,note_on,,1,0,10,,,,,,,,,,,,,,,,15,,74,48
22500,note_on,,0,0,10,,,,,,,,,,,,,,,,15,,71,48
22500,note_on,,1,0,6,,,,,,,,,,,,,,,,7,,59,72
22559,note_on,,119,0,9,,,,,,,,,,,,,,,,13,,52,0
22559,note_on,,59,0,10,,,,,,,,,,,,,,,,15,,52,0
22559,note_on,,0,0,10,,,,,,,,,,,,,,,,15,,64,0
22559,note_on,,0,0,10,,,,,,,,,,,,,,,,15,,68,0
22559,note_on,,0,0,10,,,,,,,,,,,,,,,,15,,74,0
22559,note_on,,0,0,10,,,,,,,,,,,,,,,,15,,71,0
22559,note_on,,59,0,6,,,,,,,,,,,,,,,,7,,59,0
22560,note_on,,0,0,10,,,,,,,,,,,,,,,,15,,72,48
22560,note_on,,1,0,6,,,,,,,,,,,,,,,,7,,57,72
22560,note_on,,1,0,9,,,,,,,,,,,,,,,,13,,53,48
22560,note_on,,0,0,10,,,,,,,,,,,,,,,,15,,69,48
22560,note_on,,1,0,10,,,,,,,,,,,,,,,,15,,57,48
22560,note_on,,0,0,10,,,,,,,,,,,,,,,,15,,53,48
22589,note_on,,29,0,6,,,,,,,,,,,,,,,,7,,57,0
22590,note_on,,1,0,6,,,,,,,,,,,,,,,,7,,59,72
22619,note_on,,29,0,6,,,,,,,,,,,,,,,,7,,59,0
22620,note_on,,1,0,6,,,,,,,,,,,,,,,,7,,60,72
22679,note_on,,0,0,10,,,,,,,,,,,,,,,,15,,53,0
22679,note_on,,119,0,10,,,,,,,,,,,,,,,,15,,57,0
22679,note_on,,59,0,6,,,,,,,,,,,,,,,,7,,60,0
22679,note_on,,0,0,10,,,,,,,,,,,,,,,,15,,72,0
22679,note_on,,119,0,9,,,,,,,,,,,,,,,,13,,53,0
22679,note_on,,0,0,10,,,,,,,,,,,,,,,,15,,69,0
22680,note_on,,0,0,10,,,,,,,,,,,,,,,,15,,62,48
22680,note_on,,0,0,10,,,,,,,,,,,,,,,,15,,65,48
22680,note_on,,0,0,10,,,,,,,,,,,,,,,,15,,69,48
22680,note_on,,0,0,10,,,,,,,,,,,,,,,,15,,71,48
22680,note_on,,1,0,10,,,,,,,,,,,,,,,,15,,50,48
22680,note_on,,1,0,6,,,,,,,,,,,,,,,,7,,62,72
22680,note_on,,1,0,9,,,,,,,,,,,,,,,,13,,50,48
22709,note_on,,29,0,6,,,,,,,,,,,,,,,,7,,62,0
22710,note_on,,1,0,6,,,,,,,,,,,,,,,,7,,60,72
22739,note_on,,29,0,6,,,,,,,,,,,,,,,,7,,60,0
22740,note_on,,1,0,6,,,,,,,,,,,,,,,,7,,59,72
22799,note_on,,59,0,6,,,,,,,,,,,,,,,,7,,59,0
22799,note_on,,119,0,9,,,,,,,,,,,,,,,,13,,50,0
22799,note_on,,0,0,10,,,,,,,,,,,,,,,,15,,62,0
22799,note_on,,0,0,10,,,,,,,,,,,,,,,,15,,65,0
22799,note_on,,0,0,10,,,,,,,,,,,,,,,,15,,69,0
22799,note_on,,0,0,10,,,,,,,,,,,,,,,,15,,71,0
22799,note_on,,119,0,10,,,,,,,,,,,,,,,,15,,50,0
22800,note_on,,0,0,10,,,,,,,,,,,,,,,,15,,71,48
22800,note_on,,0,0,10,,,,,,,,,,,,,,,,15,,64,48
22800,note_on,,1,0,10,,,,,,,,,,,,,,,,15,,68,48
22800,note_on,,0,0,10,,,,,,,,,,,,,,,,15,,59,48
22800,note_on,,1,0,6,,,,,,,,,,,,,,,,7,,56,72
22800,note_on,,0,0,10,,,,,,,,,,,,,,,,15,,52,48
22800,note_on,,1,0,9,,,,,,,,,,,,,,,,13,,52,48
22814,note_on,,14,0,6,,,,,,,,,,,,,,,,7,,56,0
22815,note_on,,1,0,6,,,,,,,,,,,,,,,,7,,57,72
22829,note_on,,14,0,6,,,,,,,,,,,,,,,,7,,57,0
22830,note_on,,1,0,6,,,,,,,,,,,,,,,,7,,56,72
22844,note_on,,14,0,6,,,,,,,,,,,,,,,,7,,56,0
22845,note_on,,1,0,6,,,,,,,,,,,,,,,,7,,57,72
22859,note_on,,14,0,6,,,,,,,,,,,,,,,,7,,57,0
22860,note_on,,1,0,6,,,,,,,,,,,,,,,,7,,56,72
22874,note_on,,14,0,6,,,,,,,,,,,,,,,,7,,56,0
22875,note_on,,1,0,6,,,,,,,,,,,,,,,,7,,57,72
22889,note_on,,14,0,6,,,,,,,,,,,,,,,,7,,57,0
22890,note_on,,1,0,6,,,,,,,,,,,,,,,,7,,56,72
22904,note_on,,14,0,6,,,,,,,,,,,,,,,,7,,56,0
22905,note_on,,1,0,6,,,,,,,,,,,,,,,,7,,57,72
22919,note_on,,14,0,6,,,,,,,,,,,,,,,,7,,57,0
22919,note_on,,119,0,9,,,,,,,,,,,,,,,,13,,52,0
22919,note_on,,119,0,10,,,,,,,,,,,,,,,,15,,52,0
22919,note_on,,0,0,10,,,,,,,,,,,,,,,,15,,59,0
22920,note_on,,1,0,10,,,,,,,,,,,,,,,,15,,40,48
22920,note_on,,0,0,10,,,,,,,,,,,,,,,,15,,52,48
22920,note_on,,1,0,6,,,,,,,,,,,,,,,,7,,56,72
22920,note_on,,1,0,9,,,,,,,,,,,,,,,,13,,40,48
22920,note_on,,0,0,10,,,,,,,,,,,,,,,,15,,64,48
22934,note_on,,14,0,6,,,,,,,,,,,,,,,,7,,56,0
22935,note_on,,1,0,6,,,,,,,,,,,,,,,,7,,57,72
22949,note_on,,14,0,6,,,,,,,,,,,,,,,,7,,57,0
22950,note_on,,1,0,6,,,,,,,,,,,,,,,,7,,53,72
22964,note_on,,14,0,6,,,,,,,,,,,,,,,,7,,53,0
22965,note_on,,1,0,6,,,,,,,,,,,,,,,,7,,56,72
22979,note_on,,14,0,6,,,,,,,,,,,,,,,,7,,56,0
22980,note_on,,1,0,6,,,,,,,,,,,,,,,,7,,56,72
23039,note_on,,0,0,10,,,,,,,,,,,,,,,,15,,52,0
23039,note_on,,0,0,10,,,,,,,,,,,,,,,,15,,40,0
23039,note_on,,0,0,10,,,,,,,,,,,,,,,,15,,64,0
23039,note_on,,0,0,10,,,,,,,,,,,,,,,,15,,71,0
23039,note_on,,0,0,10,,,,,,,,,,,,,,,,15,,64,0
23039,note_on,,119,0,10,,,,,,,,,,,,,,,,15,,68,0
23039,note_on,,119,0,9,,,,,,,,,,,,,,,,13,,40,0
23039,note_on,,59,0,6,,,,,,,,,,,,,,,,7,,56,0
23040,note_on,,0,0,10,,,,,,,,,,,,,,,,15,,64,48
23040,note_on,,0,0,10,,,,,,,,,,,,,,,,15,,69,48
23040,note_on,,1,0,10,,,,,,,,,,,,,,,,15,,45,48
23040,note_on,,0,0,10,,,,,,,,,,,,,,,,15,,52,48
23040,note_on,,1,0,9,,,,,,,,,,,,,,,,13,,45,48
23040,note_on,,1,0,6,,,,,,,,,,,,,,,,7,,57,72
23040,note_on,,0,0,10,,,,,,,,,,,,,,,,15,,60,48
23100,note_on,,661,0,7,,,,,,,,,,,,,,,,10,,76,72
23100,note_on,,661,0,8,,,,,,,,,,,,,,,,11,,76,72
23159,note_on,,59,0,7,,,,,,,,,,,,,,,,10,,76,0
23159,note_on,,119,0,6,,,,,,,,,,,,,,,,7,,57,0
23159,note_on,,0,0,10,,,,,,,,,,,,,,,,15,,69,0
23159,note_on,,59,0,8,,,,,,,,,,,,,,,,11,,76,0
23159,note_on,,0,0,10,,,,,,,,,,,,,,,,15,,52,0
23159,note_on,,119,0,9,,,,,,,,,,,,,,,,13,,45,0
23159,note_on,,0,0,10,,,,,,,,,,,,,,,,15,,60,0
23159,note_on,,119,0,10,,,,,,,,,,,,,,,,15,,45,0
23159,note_on,,0,0,10,,,,,,,,,,,,,,,,15,,64,0
23160,note_on,,1,0,8,,,,,,,,,,,,,,,,11,,81,72
23160,note_on,,1,0,6,,,,,,,,,,,,,,,,7,,57,72
23160,note_on,,1,0,7,,,,,,,,,,,,,,,,10,,81,72
23189,note_on,,29,0,7,,,,,,,,,,,,,,,,10,,81,0
23189,note_on,,29,0,8,,,,,,,,,,,,,,,,11,,81,0
23190,note_on,,1,0,7,,,,,,,,,,,,,,,,10,,80,72
23190,note_on,,1,0,8,,,,,,,,,,,,,,,,11,,80,72
23219,note_on,,29,0,8,,,,,,,,,,,,,,,,11,,80,0
23219,note_on,,29,0,7,,,,,,,,,,,,,,,,10,,80,0
23220,note_on,,1,0,7,,,,,,,,,,,,,,,,10,,81,72
23220,note_on,,1,0,8,,,,,,,,,,,,,,,,11,,81,72
23249,note_on,,29,0,7,,,,,,,,,,,,,,,,10,,81,0
23249,note_on,,29,0,8,,,,,,,,,,,,,,,,11,,81,0
23250,note_on,,1,0,8,,,,,,,,,,,,,,,,11,,80,72
23250,note_on,,1,0,7,,,,,,,,,,,,,,,,10,,80,72
23279,note_on,,29,0,7,,,,,,,,,,,,,,,,10,,80,0
23279,end_of_track,,0,1,6,,,,,,,,,,,,,,,,,,,
23279,note_on,,29,0,8,,,,,,,,,,,,,,,,11,,80,0
23279,note_on,,119,0,6,,,,,,,,,,,,,,,,7,,57,0
23280,note_on,,1,0,8,,,,,,,,,,,,,,,,11,,81,72
23280,note_on,,1,0,7,,,,,,,,,,,,,,,,10,,81,72
23339,note_on,,59,0,8,,,,,,,,,,,,,,,,11,,81,0
23339,note_on,,59,0,7,,,,,,,,,,,,,,,,10,,81,0
23340,note_on,,1,0,7,,,,,,,,,,,,,,,,10,,61,72
23340,note_on,,0,0,10,,,,,,,,,,,,,,,,15,,52,72
23340,note_on,,0,0,10,,,,,,,,,,,,,,,,15,,57,72
23340,note_on,,0,0,10,,,,,,,,,,,,,,,,15,,64,72
23340,note_on,,1,0,8,,,,,,,,,,,,,,,,11,,61,72
23340,note_on,,9901,0,5,,,,,,,,,,,,,,,,2,,49,72
23340,note_on,,181,0,10,,,,,,,,,,,,,,,,15,,49,72
23340,note_on,,181,0,9,,,,,,,,,,,,,,,,13,,49,72
23384,note_on,,44,0,8,,,,,,,,,,,,,,,,11,,61,0
23384,note_on,,44,0,7,,,,,,,,,,,,,,,,10,,61,0
23399,note_on,,0,0,10,,,,,,,,,,,,,,,,15,,64,0
23399,note_on,,59,0,9,,,,,,,,,,,,,,,,13,,49,0
23399,note_on,,59,0,10,,,,,,,,,,,,,,,,15,,49,0
23399,note_on,,0,0,10,,,,,,,,,,,,,,,,15,,52,0
23399,note_on,,0,0,10,,,,,,,,,,,,,,,,15,,57,0
23399,note_on,,59,0,5,,,,,,,,,,,,,,,,2,,49,0
23400,note_on,,1,0,9,,,,,,,,,,,,,,,,13,,50,72
23400,note_on,,16,0,7,,,,,,,,,,,,,,,,10,,62,72
23400,note_on,,1,0,10,,,,,,,,,,,,,,,,15,,50,72
23400,note_on,,0,0,10,,,,,,,,,,,,,,,,15,,57,72
23400,note_on,,0,0,10,,,,,,,,,,,,,,,,15,,66,72
23400,note_on,,16,0,8,,,,,,,,,,,,,,,,11,,62,72
23400,note_on,,1,0,5,,,,,,,,,,,,,,,,2,,50,72
23444,note_on,,44,0,7,,,,,,,,,,,,,,,,10,,62,0
23444,note_on,,44,0,8,,,,,,,,,,,,,,,,11,,62,0
23460,note_on,,16,0,7,,,,,,,,,,,,,,,,10,,78,72
23460,note_on,,16,0,8,,,,,,,,,,,,,,,,11,,78,72
23519,note_on,,119,0,5,,,,,,,,,,,,,,,,2,,50,0
23519,note_on,,0,0,10,,,,,,,,,,,,,,,,15,,57,0
23519,note_on,,119,0,10,,,,,,,,,,,,,,,,15,,50,0
23519,note_on,,59,0,7,,,,,,,,,,,,,,,,10,,78,0
23519,note_on,,59,0,8,,,,,,,,,,,,,,,,11,,78,0
23519,note_on,,119,0,9,,,,,,,,,,,,,,,,13,,50,0
23519,note_on,,0,0,10,,,,,,,,,,,,,,,,15,,66,0
23520,note_on,,1,0,9,,,,,,,,,,,,,,,,13,,51,72
23520,note_on,,0,0,10,,,,,,,,,,,,,,,,15,,59,72
23520,note_on,,0,0,10,,,,,,,,,,,,,,,,15,,54,72
23520,note_on,,0,0,10,,,,,,,,,,,,,,,,15,,71,72
23520,note_on,,1,0,8,,,,,,,,,,,,,,,,11,,83,72
23520,note_on,,0,0,10,,,,,,,,,,,,,,,,15,,66,72
23520,note_on,,1,0,10,,,,,,,,,,,,,,,,15,,51,72
23520,note_on,,1,0,7,,,,,,,,,,,,,,,,10,,83,72
23520,note_on,,1,0,5,,,,,,,,,,,,,,,,2,,51,72
23549,note_on,,29,0,8,,,,,,,,,,,,,,,,11,,83,0
23549,note_on,,29,0,7,,,,,,,,,,,,,,,,10,,83,0
23550,note_on,,1,0,8,,,,,,,,,,,,,,,,11,,81,72
23550,note_on,,1,0,7,,,,,,,,,,,,,,,,10,,81,72
23579,note_on,,29,0,8,,,,,,,,,,,,,,,,11,,81,0
23579,note_on,,29,0,7,,,,,,,,,,,,,,,,10,,81,0
23580,note_on,,1,0,7,,,,,,,,,,,,,,,,10,,83,72
23580,note_on,,1,0,8,,,,,,,,,,,,,,,,11,,83,72
23609,note_on,,29,0,7,,,,,,,,,,,,,,,,10,,83,0
23609,note_on,,29,0,8,,,,,,,,,,,,,,,,11,,83,0
23610,note_on,,1,0,7,,,,,,,,,,,,,,,,10,,81,72
23610,note_on,,1,0,8,,,,,,,,,,,,,,,,11,,81,72
23639,note_on,,0,0,10,,,,,,,,,,,,,,,,15,,71,0
23639,note_on,,119,0,10,,,,,,,,,,,,,,,,15,,51,0
23639,note_on,,0,0,10,,,,,,,,,,,,,,,,15,,59,0
23639,note_on,,0,0,10,,,,,,,,,,,,,,,,15,,66,0
23639,note_on,,119,0,5,,,,,,,,,,,,,,,,2,,51,0
23639,note_on,,0,0,10,,,,,,,,,,,,,,,,15,,54,0
23639,note_on,,29,0,8,,,,,,,,,,,,,,,,11,,81,0
23639,note_on,,119,0,9,,,,,,,,,,,,,,,,13,,51,0
23639,note_on,,29,0,7,,,,,,,,,,,,,,,,10,,81,0
23640,note_on,,1,0,8,,,,,,,,,,,,,,,,11,,83,72
23640,note_on,,1,0,7,,,,,,,,,,,,,,,,10,,83,72
23699,note_on,,59,0,8,,,,,,,,,,,,,,,,11,,83,0
23699,note_on,,59,0,7,,,,,,,,,,,,,,,,10,,83,0
23700,note_on,,61,0,5,,,,,,,,,,,,,,,,2,,51,72
23700,note_on,,1,0,8,,,,,,,,,,,,,,,,11,,63,72
23700,note_on,,0,0,10,,,,,,,,,,,,,,,,15,,59,72
23700,note_on,,0,0,10,,,,,,,,,,,,,,,,15,,54,72
23700,note_on,,61,0,10,,,,,,,,,,,,,,,,15,,51,72
23700,note_on,,1,0,7,,,,,,,,,,,,,,,,10,,63,72
23700,note_on,,61,0,9,,,,,,,,,,,,,,,,13,,51,72
23700,note_on,,0,0,10,,,,,,,,,,,,,,,,15,,66,72
23744,note_on,,44,0,7,,,,,,,,,,,,,,,,10,,63,0
23744,note_on,,44,0,8,,,,,,,,,,,,,,,,11,,63,0
23759,note_on,,59,0,10,,,,,,,,,,,,,,,,15,,51,0
23759,note_on,,0,0,10,,,,,,,,,,,,,,,,15,,66,0
23759,note_on,,0,0,10,,,,,,,,,,,,,,,,15,,59,0
23759,note_on,,0,0,10,,,,,,,,,,,,,,,,15,,54,0
23759,note_on,,59,0,5,,,,,,,,,,,,,,,,2,,51,0
23759,note_on,,59,0,9,,,,,,,,,,,,,,,,13,,51,0
23760,note_on,,1,0,10,,,,,,,,,,,,,,,,15,,52,72
23760,note_on,,0,0,10,,,,,,,,,,,,,,,,15,,68,72
23760,note_on,,0,0,10,,,,,,,,,,,,,,,,15,,59,72
23760,note_on,,16,0,8,,,,,,,,,,,,,,,,11,,64,72
23760,note_on,,1,0,5,,,,,,,,,,,,,,,,2,,52,72
23760,note_on,,16,0,7,,,,,,,,,,,,,,,,10,,64,72
23760,note_on,,1,0,9,,,,,,,,,,,,,,,,13,,52,72
23804,note_on,,44,0,8,,,,,,,,,,,,,,,,11,,64,0
23804,note_on,,44,0,7,,,,,,,,,,,,,,,,10,,64,0
23820,note_on,,16,0,8,,,,,,,,,,,,,,,,11,,76,72
23820,note_on,,16,0,7,,,,,,,,,,,,,,,,10,,76,72
23879,note_on,,0,0,10,,,,,,,,,,,,,,,,15,,68,0
23879,note_on,,59,0,7,,,,,,,,,,,,,,,,10,,76,0
23879,note_on,,119,0,9,,,,,,,,,,,,,,,,13,,52,0
23879,note_on,,0,0,10,,,,,,,,,,,,,,,,15,,59,0
23879,note_on,,119,0,5,,,,,,,,,,,,,,,,2,,52,0
23879,note_on,,59,0,8,,,,,,,,,,,,,,,,11,,76,0
23879,note_on,,119,0,10,,,,,,,,,,,,,,,,15,,52,0
23880,note_on,,1,0,7,,,,,,,,,,,,,,,,10,,86,72
23880,note_on,,1,0,9,,,,,,,,,,,,,,,,13,,44,72
23880,note_on,,0,0,10,,,,,,,,,,,,,,,,15,,71,72
23880,note_on,,0,0,10,,,,,,,,,,,,,,,,15,,64,72
23880,note_on,,0,0,10,,,,,,,,,,,,,,,,15,,52,72
23880,note_on,,1,0,5,,,,,,,,,,,,,,,,2,,44,72
23880,note_on,,0,0,10,,,,,,,,,,,,,,,,15,,76,72
23880,note_on,,1,0,10,,,,,,,,,,,,,,,,15,,44,72
23880,note_on,,1,0,8,,,,,,,,,,,,,,,,11,,86,72
23909,note_on,,29,0,7,,,,,,,,,,,,,,,,10,,86,0
23909,note_on,,29,0,8,,,,,,,,,,,,,,,,11,,86,0
23910,note_on,,1,0,7,,,,,,,,,,,,,,,,10,,85,72
23910,note_on,,1,0,8,,,,,,,,,,,,,,,,11,,85,72
23939,note_on,,29,0,7,,,,,,,,,,,,,,,,10,,85,0
23939,note_on,,29,0,8,,,,,,,,,,,,,,,,11,,85,0
23940,note_on,,1,0,7,,,,,,,,,,,,,,,,10,,86,72
23940,note_on,,1,0,8,,,,,,,,,,,,,,,,11,,86,72
23969,note_on,,29,0,7,,,,,,,,,,,,,,,,10,,86,0
23969,note_on,,29,0,8,,,,,,,,,,,,,,,,11,,86,0
23970,note_on,,1,0,7,,,,,,,,,,,,,,,,10,,85,72
23970,note_on,,1,0,8,,,,,,,,,,,,,,,,11,,85,72
23999,note_on,,119,0,5,,,,,,,,,,,,,,,,2,,44,0
23999,note_on,,119,0,9,,,,,,,,,,,,,,,,13,,44,0
23999,note_on,,29,0,7,,,,,,,,,,,,,,,,10,,85,0
23999,note_on,,119,0,10,,,,,,,,,,,,,,,,15,,44,0
23999,note_on,,0,0,10,,,,,,,,,,,,,,,,15,,52,0
23999,note_on,,0,0,10,,,,,,,,,,,,,,,,15,,64,0
23999,note_on,,0,0,10,,,,,,,,,,,,,,,,15,,71,0
23999,note_on,,0,0,10,,,,,,,,,,,,,,,,15,,76,0
23999,note_on,,29,0,8,,,,,,,,,,,,,,,,11,,85,0
24000,note_on,,1,0,8,,,,,,,,,,,,,,,,11,,86,72
24000,note_on,,1,0,7,,,,,,,,,,,,,,,,10,,86,72
24059,note_on,,59,0,7,,,,,,,,,,,,,,,,10,,86,0
24059,note_on,,59,0,8,,,,,,,,,,,,,,,,11,,86,0
24060,note_on,,0,0,10,,,,,,,,,,,,,,,,15,,64,72
24060,note_on,,0,0,10,,,,,,,,,,,,,,,,15,,71,72
24060,note_on,,61,0,10,,,,,,,,,,,,,,,,15,,56,72
24060,note_on,,61,0,9,,,,,,,,,,,,,,,,13,,56,72
24060,note_on,,0,0,10,,,,,,,,,,,,,,,,15,,76,72
24060,note_on,,1,0,8,,,,,,,,,,,,,,,,11,,83,72
24060,note_on,,1,0,7,,,,,,,,,,,,,,,,10,,83,72
24060,note_on,,61,0,5,,,,,,,,,,,,,,,,2,,56,72
24119,note_on,,59,0,9,,,,,,,,,,,,,,,,13,,56,0
24119,note_on,,59,0,5,,,,,,,,,,,,,,,,2,,56,0
24119,note_on,,59,0,7,,,,,,,,,,,,,,,,10,,83,0
24119,note_on,,59,0,10,,,,,,,,,,,,,,,,15,,56,0
24119,note_on,,0,0,10,,,,,,,,,,,,,,,,15,,76,0
24119,note_on,,59,0,8,,,,,,,,,,,,,,,,11,,83,0
24119,note_on,,0,0,10,,,,,,,,,,,,,,,,15,,71,0
24119,note_on,,0,0,10,,,,,,,,,,,,,,,,15,,64,0
24120,note_on,,1,0,10,,,,,,,,,,,,,,,,15,,57,72
24120,note_on,,1,0,7,,,,,,,,,,,,,,,,10,,84,72
24120,note_on,,0,0,10,,,,,,,,,,,,,,,,15,,72,72
24120,note_on,,0,0,10,,,,,,,,,,,,,,,,15,,64,72
24120,note_on,,1,0,8,,,,,,,,,,,,,,,,11,,84,72
24120,note_on,,1,0,5,,,,,,,,,,,,,,,,2,,57,72
24120,note_on,,1,0,9,,,,,,,,,,,,,,,,13,,57,72
24120,note_on,,0,0,10,,,,,,,,,,,,,,,,15,,76,72
24120,note_on,,0,0,10,,,,,,,,,,,,,,,,15,,69,72
24164,note_on,,44,0,8,,,,,,,,,,,,,,,,11,,84,0
24164,note_on,,44,0,7,,,,,,,,,,,,,,,,10,,84,0
24180,note_on,,16,0,8,,,,,,,,,,,,,,,,11,,69,72
24180,note_on,,16,0,7,,,,,,,,,,,,,,,,10,,69,72
24239,note_on,,0,0,10,,,,,,,,,,,,,,,,15,,76,0
24239,note_on,,0,0,10,,,,,,,,,,,,,,,,15,,72,0
24239,note_on,,0,0,10,,,,,,,,,,,,,,,,15,,69,0
24239,note_on,,0,0,10,,,,,,,,,,,,,,,,15,,64,0
24239,note_on,,119,0,5,,,,,,,,,,,,,,,,2,,57,0
24239,note_on,,119,0,9,,,,,,,,,,,,,,,,13,,57,0
24239,note_on,,59,0,7,,,,,,,,,,,,,,,,10,,69,0
24239,note_on,,59,0,8,,,,,,,,,,,,,,,,11,,69,0
24239,note_on,,119,0,10,,,,,,,,,,,,,,,,15,,57,0
24240,note_on,,1,0,7,,,,,,,,,,,,,,,,10,,77,72
24240,note_on,,1,0,5,,,,,,,,,,,,,,,,2,,45,72
24240,note_on,,1,0,9,,,,,,,,,,,,,,,,13,,45,72
24240,note_on,,1,0,8,,,,,,,,,,,,,,,,11,,77,72
24240,note_on,,0,0,10,,,,,,,,,,,,,,,,15,,60,72
24240,note_on,,0,0,10,,,,,,,,,,,,,,,,15,,64,72
24240,note_on,,0,0,10,,,,,,,,,,,,,,,,15,,69,72
24240,note_on,,0,0,10,,,,,,,,,,,,,,,,15,,57,72
24240,note_on,,1,0,10,,,,,,,,,,,,,,,,15,,45,72
24269,note_on,,29,0,7,,,,,,,,,,,,,,,,10,,77,0
24269,note_on,,29,0,8,,,,,,,,,,,,,,,,11,,77,0
24270,note_on,,1,0,7,,,,,,,,,,,,,,,,10,,76,72
24270,note_on,,1,0,8,,,,,,,,,,,,,,,,11,,76,72
24299,note_on,,29,0,8,,,,,,,,,,,,,,,,11,,76,0
24299,note_on,,29,0,7,,,,,,,,,,,,,,,,10,,76,0
24300,note_on,,1,0,8,,,,,,,,,,,,,,,,11,,77,72
24300,note_on,,1,0,7,,,,,,,,,,,,,,,,10,,77,72
24329,note_on,,29,0,8,,,,,,,,,,,,,,,,11,,77,0
24329,note_on,,29,0,7,,,,,,,,,,,,,,,,10,,77,0
24330,note_on,,1,0,7,,,,,,,,,,,,,,,,10,,76,72
24330,note_on,,1,0,8,,,,,,,,,,,,,,,,11,,76,72
24359,note_on,,119,0,10,,,,,,,,,,,,,,,,15,,45,0
24359,note_on,,0,0,10,,,,,,,,,,,,,,,,15,,57,0
24359,note_on,,0,0,10,,,,,,,,,,,,,,,,15,,69,0
24359,note_on,,0,0,10,,,,,,,,,,,,,,,,15,,64,0
24359,note_on,,0,0,10,,,,,,,,,,,,,,,,15,,60,0
24359,note_on,,29,0,8,,,,,,,,,,,,,,,,11,,76,0
24359,note_on,,29,0,7,,,,,,,,,,,,,,,,10,,76,0
24359,note_on,,119,0,5,,,,,,,,,,,,,,,,2,,45,0
24359,note_on,,119,0,9,,,,,,,,,,,,,,,,13,,45,0
24360,note_on,,1,0,8,,,,,,,,,,,,,,,,11,,77,72
24360,note_on,,1,0,7,,,,,,,,,,,,,,,,10,,77,72
24419,note_on,,59,0,7,,,,,,,,,,,,,,,,10,,77,0
24419,note_on,,59,0,8,,,,,,,,,,,,,,,,11,,77,0
24420,note_on,,0,0,10,,,,,,,,,,,,,,,,15,,69,72
24420,note_on,,1,0,7,,,,,,,,,,,,,,,,10,,60,72
24420,note_on,,61,0,9,,,,,,,,,,,,,,,,13,,57,72
24420,note_on,,61,0,10,,,,,,,,,,,,,,,,15,,57,72
24420,note_on,,0,0,10,,,,,,,,,,,,,,,,15,,64,72
24420,note_on,,1,0,8,,,,,,,,,,,,,,,,11,,60,72
24420,note_on,,61,0,5,,,,,,,,,,,,,,,,2,,57,72
24420,note_on,,0,0,10,,,,,,,,,,,,,,,,15,,60,72
24464,note_on,,44,0,7,,,,,,,,,,,,,,,,10,,60,0
24464,note_on,,44,0,8,,,,,,,,,,,,,,,,11,,60,0
24479,note_on,,59,0,9,,,,,,,,,,,,,,,,13,,57,0
24479,note_on,,0,0,10,,,,,,,,,,,,,,,,15,,69,0
24479,note_on,,0,0,10,,,,,,,,,,,,,,,,15,,64,0
24479,note_on,,59,0,5,,,,,,,,,,,,,,,,2,,57,0
24479,note_on,,0,0,10,,,,,,,,,,,,,,,,15,,60,0
24479,note_on,,59,0,10,,,,,,,,,,,,,,,,15,,57,0
24480,note_on,,16,0,8,,,,,,,,,,,,,,,,11,,59,72
24480,note_on,,1,0,5,,,,,,,,,,,,,,,,2,,56,72
24480,note_on,,1,0,9,,,,,,,,,,,,,,,,13,,56,72
24480,note_on,,16,0,7,,,,,,,,,,,,,,,,10,,59,72
24480,note_on,,0,0,10,,,,,,,,,,,,,,,,15,,64,72
24480,note_on,,0,0,10,,,,,,,,,,,,,,,,15,,71,72
24480,note_on,,1,0,10,,,,,,,,,,,,,,,,15,,56,72
24480,note_on,,0,0,10,,,,,,,,,,,,,,,,15,,59,72
24524,note_on,,44,0,7,,,,,,,,,,,,,,,,10,,59,0
24524,note_on,,44,0,8,,,,,,,,,,,,,,,,11,,59,0
24540,note_on,,16,0,7,,,,,,,,,,,,,,,,10,,71,72
24540,note_on,,16,0,8,,,,,,,,,,,,,,,,11,,71,72
24599,note_on,,59,0,7,,,,,,,,,,,,,,,,10,,71,0
24599,note_on,,0,0,10,,,,,,,,,,,,,,,,15,,59,0
24599,note_on,,0,0,10,,,,,,,,,,,,,,,,15,,64,0
24599,note_on,,119,0,10,,,,,,,,,,,,,,,,15,,56,0
24599,note_on,,59,0,8,,,,,,,,,,,,,,,,11,,71,0
24599,note_on,,119,0,9,,,,,,,,,,,,,,,,13,,56,0
24599,note_on,,119,0,5,,,,,,,,,,,,,,,,2,,56,0
24599,note_on,,0,0,10,,,,,,,,,,,,,,,,15,,71,0
24600,note_on,,1,0,10,,,,,,,,,,,,,,,,15,,55,72
24600,note_on,,0,0,10,,,,,,,,,,,,,,,,15,,76,72
24600,note_on,,0,0,10,,,,,,,,,,,,,,,,15,,71,72
24600,note_on,,0,0,10,,,,,,,,,,,,,,,,15,,64,72
24600,note_on,,0,0,10,,,,,,,,,,,,,,,,15,,59,72
24600,note_on,,1,0,8,,,,,,,,,,,,,,,,11,,76,72
24600,note_on,,1,0,9,,,,,,,,,,,,,,,,13,,55,72
24600,note_on,,1,0,7,,,,,,,,,,,,,,,,10,,76,72
24600,note_on,,1,0,5,,,,,,,,,,,,,,,,2,,55,72
24629,note_on,,29,0,8,,,,,,,,,,,,,,,,11,,76,0
24629,note_on,,29,0,7,,,,,,,,,,,,,,,,10,,76,0
24630,note_on,,1,0,7,,,,,,,,,,,,,,,,10,,75,72
24630,note_on,,1,0,8,,,,,,,,,,,,,,,,11,,75,72
24659,note_on,,29,0,8,,,,,,,,,,,,,,,,11,,75,0
24659,note_on,,29,0,7,,,,,,,,,,,,,,,,10,,75,0
24660,note_on,,1,0,8,,,,,,,,,,,,,,,,11,,76,72
24660,note_on,,1,0,7,,,,,,,,,,,,,,,,10,,76,72
24689,note_on,,29,0,8,,,,,,,,,,,,,,,,11,,76,0
24689,note_on,,29,0,7,,,,,,,,,,,,,,,,10,,76,0
24690,note_on,,1,0,8,,,,,,,,,,,,,,,,11,,75,72
24690,note_on,,1,0,7,,,,,,,,,,,,,,,,10,,75,72
24719,note_on,,29,0,7,,,,,,,,,,,,,,,,10,,75,0
24719,note_on,,0,0,10,,,,,,,,,,,,,,,,15,,59,0
24719,note_on,,0,0,10,,,,,,,,,,,,,,,,15,,64,0
24719,note_on,,0,0,10,,,,,,,,,,,,,,,,15,,71,0
24719,note_on,,0,0,10,,,,,,,,,,,,,,,,15,,76,0
24719,note_on,,119,0,9,,,,,,,,,,,,,,,,13,,55,0
24719,note_on,,119,0,5,,,,,,,,,,,,,,,,2,,55,0
24719,note_on,,29,0,8,,,,,,,,,,,,,,,,11,,75,0
24719,note_on,,119,0,10,,,,,,,,,,,,,,,,15,,55,0
24720,note_on,,1,0,7,,,,,,,,,,,,,,,,10,,76,72
24720,note_on,,1,0,8,,,,,,,,,,,,,,,,11,,76,72
24779,note_on,,59,0,8,,,,,,,,,,,,,,,,11,,76,0
24779,note_on,,59,0,7,,,,,,,,,,,,,,,,10,,76,0
24780,note_on,,61,0,10,,,,,,,,,,,,,,,,15,,55,72
24780,note_on,,0,0,10,,,,,,,,,,,,,,,,15,,64,72
24780,note_on,,0,0,10,,,,,,,,,,,,,,,,15,,59,72
24780,note_on,,61,0,5,,,,,,,,,,,,,,,,2,,55,72
24780,note_on,,1,0,7,,,,,,,,,,,,,,,,10,,59,72
24780,note_on,,1,0,8,,,,,,,,,,,,,,,,11,,59,72
24780,note_on,,61,0,9,,,,,,,,,,,,,,,,13,,55,72
24824,note_on,,44,0,7,,,,,,,,,,,,,,,,10,,59,0
24824,note_on,,44,0,8,,,,,,,,,,,,,,,,11,,59,0
24839,note_on,,59,0,10,,,,,,,,,,,,,,,,15,,55,0
24839,note_on,,0,0,10,,,,,,,,,,,,,,,,15,,59,0
24839,note_on,,59,0,9,,,,,,,,,,,,,,,,13,,55,0
24839,note_on,,59,0,5,,,,,,,,,,,,,,,,2,,55,0
24839,note_on,,0,0,10,,,,,,,,,,,,,,,,15,,64,0
24840,note_on,,1,0,9,,,,,,,,,,,,,,,,13,,54,72
24840,note_on,,16,0,7,,,,,,,,,,,,,,,,10,,57,72
24840,note_on,,0,0,10,,,,,,,,,,,,,,,,15,,66,72
24840,note_on,,0,0,10,,,,,,,,,,,,,,,,15,,64,72
24840,note_on,,0,0,10,,,,,,,,,,,,,,,,15,,57,72
24840,note_on,,16,0,8,,,,,,,,,,,,,,,,11,,57,72
24840,note_on,,0,0,10,,,,,,,,,,,,,,,,15,,69,72
24840,note_on,,1,0,10,,,,,,,,,,,,,,,,15,,54,72
24840,note_on,,1,0,5,,,,,,,,,,,,,,,,2,,54,72
24884,note_on,,44,0,7,,,,,,,,,,,,,,,,10,,57,0
24884,note_on,,44,0,8,,,,,,,,,,,,,,,,11,,57,0
24900,note_on,,16,0,7,,,,,,,,,,,,,,,,10,,69,72
24900,note_on,,16,0,8,,,,,,,,,,,,,,,,11,,69,72
24929,note_on,,89,0,9,,,,,,,,,,,,,,,,13,,54,0
24929,note_on,,89,0,10,,,,,,,,,,,,,,,,15,,54,0
24929,note_on,,89,0,5,,,,,,,,,,,,,,,,2,,54,0
24929,note_on,,0,0,10,,,,,,,,,,,,,,,,15,,57,0
24929,note_on,,0,0,10,,,,,,,,,,,,,,,,15,,64,0
24929,note_on,,0,0,10,,,,,,,,,,,,,,,,15,,66,0
24929,note_on,,0,0,10,,,,,,,,,,,,,,,,15,,69,0
24959,note_on,,59,0,8,,,,,,,,,,,,,,,,11,,69,0
24959,note_on,,59,0,7,,,,,,,,,,,,,,,,10,,69,0
24960,note_on,,1,0,7,,,,,,,,,,,,,,,,10,,74,72
24960,note_on,,31,0,9,,,,,,,,,,,,,,,,13,,53,72
24960,note_on,,31,0,5,,,,,,,,,,,,,,,,2,,53,72
24960,note_on,,0,0,10,,,,,,,,,,,,,,,,15,,74,72
24960,note_on,,0,0,10,,,,,,,,,,,,,,,,15,,57,72
24960,note_on,,0,0,10,,,,,,,,,,,,,,,,15,,62,72
24960,note_on,,1,0,8,,,,,,,,,,,,,,,,11,,74,72
24960,note_on,,0,0,10,,,,,,,,,,,,,,,,15,,69,72
24960,note_on,,31,0,10,,,,,,,,,,,,,,,,15,,53,72
24989,note_on,,29,0,8,,,,,,,,,,,,,,,,11,,74,0
24989,note_on,,29,0,7,,,,,,,,,,,,,,,,10,,74,0
24990,note_on,,1,0,7,,,,,,,,,,,,,,,,10,,73,72
24990,note_on,,1,0,8,,,,,,,,,,,,,,,,11,,73,72
25019,note_on,,29,0,7,,,,,,,,,,,,,,,,10,,73,0
25019,note_on,,29,0,8,,,,,,,,,,,,,,,,11,,73,0
25020,note_on,,1,0,7,,,,,,,,,,,,,,,,10,,74,72
25020,note_on,,1,0,8,,,,,,,,,,,,,,,,11,,74,72
25049,note_on,,89,0,10,,,,,,,,,,,,,,,,15,,53,0
25049,note_on,,0,0,10,,,,,,,,,,,,,,,,15,,69,0
25049,note_on,,0,0,10,,,,,,,,,,,,,,,,15,,62,0
25049,note_on,,0,0,10,,,,,,,,,,,,,,,,15,,74,0
25049,note_on,,29,0,7,,,,,,,,,,,,,,,,10,,74,0
25049,note_on,,89,0,9,,,,,,,,,,,,,,,,13,,53,0
25049,note_on,,89,0,5,,,,,,,,,,,,,,,,2,,53,0
25049,note_on,,0,0,10,,,,,,,,,,,,,,,,15,,57,0
25049,note_on,,29,0,8,,,,,,,,,,,,,,,,11,,74,0
25050,note_on,,1,0,7,,,,,,,,,,,,,,,,10,,73,72
25050,note_on,,1,0,8,,,,,,,,,,,,,,,,11,,73,72
25079,note_on,,29,0,8,,,,,,,,,,,,,,,,11,,73,0
25079,note_on,,29,0,7,,,,,,,,,,,,,,,,10,,73,0
25080,note_on,,1,0,8,,,,,,,,,,,,,,,,11,,74,72
25080,note_on,,1,0,7,,,,,,,,,,,,,,,,10,,74,72
25139,note_on,,59,0,7,,,,,,,,,,,,,,,,10,,74,0
25139,note_on,,59,0,8,,,,,,,,,,,,,,,,11,,74,0
25140,note_on,,0,0,10,,,,,,,,,,,,,,,,15,,57,72
25140,note_on,,0,0,10,,,,,,,,,,,,,,,,15,,69,72
25140,note_on,,91,0,5,,,,,,,,,,,,,,,,2,,53,72
25140,note_on,,1,0,8,,,,,,,,,,,,,,,,11,,57,72
25140,note_on,,0,0,10,,,,,,,,,,,,,,,,15,,62,72
25140,note_on,,0,0,10,,,,,,,,,,,,,,,,15,,74,72
25140,note_on,,91,0,10,,,,,,,,,,,,,,,,15,,53,72
25140,note_on,,1,0,7,,,,,,,,,,,,,,,,10,,57,72
25140,note_on,,91,0,9,,,,,,,,,,,,,,,,13,,53,72
25199,note_on,,0,0,10,,,,,,,,,,,,,,,,15,,62,0
25199,note_on,,0,0,10,,,,,,,,,,,,,,,,15,,57,0
25199,note_on,,59,0,5,,,,,,,,,,,,,,,,2,,53,0
25199,note_on,,0,0,10,,,,,,,,,,,,,,,,15,,69,0
25199,note_on,,59,0,9,,,,,,,,,,,,,,,,13,,53,0
25199,note_on,,59,0,10,,,,,,,,,,,,,,,,15,,53,0
25199,note_on,,59,0,7,,,,,,,,,,,,,,,,10,,57,0
25199,note_on,,59,0,8,,,,,,,,,,,,,,,,11,,57,0
25199,note_on,,0,0,10,,,,,,,,,,,,,,,,15,,74,0
25200,note_on,,1,0,9,,,,,,,,,,,,,,,,13,,52,72
25200,note_on,,1,0,8,,,,,,,,,,,,,,,,11,,56,72
25200,note_on,,0,0,10,,,,,,,,,,,,,,,,15,,59,72
25200,note_on,,1,0,5,,,,,,,,,,,,,,,,2,,52,72
25200,note_on,,0,0,10,,,,,,,,,,,,,,,,15,,68,72
25200,note_on,,1,0,10,,,,,,,,,,,,,,,,15,,52,72
25200,note_on,,0,0,10,,,,,,,,,,,,,,,,15,,64,72
25200,note_on,,0,0,10,,,,,,,,,,,,,,,,15,,71,72
25200,note_on,,1,0,7,,,,,,,,,,,,,,,,10,,56,72
25259,note_on,,59,0,8,,,,,,,,,,,,,,,,11,,56,0
25259,note_on,,59,0,7,,,,,,,,,,,,,,,,10,,56,0
25260,note_on,,1,0,7,,,,,,,,,,,,,,,,10,,59,72
25260,note_on,,1,0,8,,,,,,,,,,,,,,,,11,,59,72
25319,note_on,,59,0,7,,,,,,,,,,,,,,,,10,,59,0
25319,note_on,,119,0,9,,,,,,,,,,,,,,,,13,,52,0
25319,note_on,,119,0,5,,,,,,,,,,,,,,,,2,,52,0
25319,note_on,,59,0,8,,,,,,,,,,,,,,,,11,,59,0
25319,note_on,,0,0,10,,,,,,,,,,,,,,,,15,,71,0
25319,note_on,,119,0,10,,,,,,,,,,,,,,,,15,,52,0
25319,note_on,,0,0,10,,,,,,,,,,,,,,,,15,,68,0
25319,note_on,,0,0,10,,,,,,,,,,,,,,,,15,,59,0
25319,note_on,,0,0,10,,,,,,,,,,,,,,,,15,,64,0
25320,note_on,,1,0,7,,,,,,,,,,,,,,,,10,,62,72
25320,note_on,,1,0,8,,,,,,,,,,,,,,,,11,,62,72
25379,note_on,,59,0,8,,,,,,,,,,,,,,,,11,,62,0
25379,note_on,,59,0,7,,,,,,,,,,,,,,,,10,,62,0
25380,note_on,,1,0,8,,,,,,,,,,,,,,,,11,,68,72
25380,note_on,,1,0,7,,,,,,,,,,,,,,,,10,,68,72
25439,note_on,,59,0,7,,,,,,,,,,,,,,,,10,,68,0
25439,note_on,,59,0,8,,,,,,,,,,,,,,,,11,,68,0
25440,note_on,,1,0,7,,,,,,,,,,,,,,,,10,,71,72
25440,note_on,,1,0,8,,,,,,,,,,,,,,,,11,,71,72
25499,note_on,,59,0,8,,,,,,,,,,,,,,,,11,,71,0
25499,note_on,,59,0,7,,,,,,,,,,,,,,,,10,,71,0
25500,note_on,,1,0,8,,,,,,,,,,,,,,,,11,,74,72
25500,note_on,,1,0,7,,,,,,,,,,,,,,,,10,,74,72
25559,note_on,,59,0,8,,,,,,,,,,,,,,,,11,,74,0
25559,note_on,,59,0,7,,,,,,,,,,,,,,,,10,,74,0
25560,note_on,,1,0,8,,,,,,,,,,,,,,,,11,,80,72
25560,note_on,,1,0,7,,,,,,,,,,,,,,,,10,,80,72
25619,note_on,,59,0,8,,,,,,,,,,,,,,,,11,,80,0
25619,note_on,,59,0,7,,,,,,,,,,,,,,,,10,,80,0
25620,note_on,,1,0,8,,,,,,,,,,,,,,,,11,,83,72
25620,note_on,,1,0,7,,,,,,,,,,,,,,,,10,,83,72
25679,note_on,,59,0,7,,,,,,,,,,,,,,,,10,,83,0
25679,note_on,,59,0,8,,,,,,,,,,,,,,,,11,,83,0
25680,note_on,,1,0,8,,,,,,,,,,,,,,,,11,,86,72
25680,note_on,,1,0,7,,,,,,,,,,,,,,,,10,,86,72
25739,note_on,,59,0,7,,,,,,,,,,,,,,,,10,,86,0
25739,note_on,,59,0,8,,,,,,,,,,,,,,,,11,,86,0
25740,note_on,,421,0,9,,,,,,,,,,,,,,,,13,,56,72
25740,note_on,,1,0,7,,,,,,,,,,,,,,,,10,,83,72
25740,note_on,,421,0,5,,,,,,,,,,,,,,,,2,,56,72
25740,note_on,,1,0,8,,,,,,,,,,,,,,,,11,,83,72
25740,note_on,,421,0,10,,,,,,,,,,,,,,,,15,,56,72
25740,note_on,,0,0,10,,,,,,,,,,,,,,,,15,,64,72
25740,note_on,,0,0,10,,,,,,,,,,,,,,,,15,,76,72
25740,note_on,,0,0,10,,,,,,,,,,,,,,,,15,,71,72
25799,note_on,,59,0,9,,,,,,,,,,,,,,,,13,,56,0
25799,note_on,,59,0,8,,,,,,,,,,,,,,,,11,,83,0
25799,note_on,,0,0,10,,,,,,,,,,,,,,,,15,,71,0
25799,note_on,,59,0,5,,,,,,,,,,,,,,,,2,,56,0
25799,note_on,,0,0,10,,,,,,,,,,,,,,,,15,,64,0
25799,note_on,,59,0,10,,,,,,,,,,,,,,,,15,,56,0
25799,note_on,,59,0,7,,,,,,,,,,,,,,,,10,,83,0
25800,note_on,,0,0,10,,,,,,,,,,,,,,,,15,,64,72
25800,note_on,,1,0,8,,,,,,,,,,,,,,,,11,,84,72
25800,note_on,,0,0,10,,,,,,,,,,,,,,,,15,,72,72
25800,note_on,,1,0,10,,,,,,,,,,,,,,,,15,,57,72
25800,note_on,,1,0,7,,,,,,,,,,,,,,,,10,,84,72
25800,note_on,,1,0,9,,,,,,,,,,,,,,,,13,,57,72
25800,note_on,,1,0,5,,,,,,,,,,,,,,,,2,,57,72
25859,note_on,,0,0,10,,,,,,,,,,,,,,,,15,,64,0
25859,note_on,,59,0,7,,,,,,,,,,,,,,,,10,,84,0
25859,note_on,,59,0,5,,,,,,,,,,,,,,,,2,,57,0
25859,note_on,,59,0,8,,,,,,,,,,,,,,,,11,,84,0
25859,note_on,,59,0,9,,,,,,,,,,,,,,,,13,,57,0
25859,note_on,,59,0,10,,,,,,,,,,,,,,,,15,,57,0
25860,note_on,,1,0,7,,,,,,,,,,,,,,,,10,,81,72
25860,note_on,,0,0,10,,,,,,,,,,,,,,,,15,,69,72
25860,note_on,,1,0,10,,,,,,,,,,,,,,,,15,,60,72
25860,note_on,,1,0,5,,,,,,,,,,,,,,,,2,,60,72
25860,note_on,,1,0,8,,,,,,,,,,,,,,,,11,,81,72
25860,note_on,,1,0,9,,,,,,,,,,,,,,,,13,,60,72
25919,note_on,,59,0,5,,,,,,,,,,,,,,,,2,,60,0
25919,note_on,,59,0,8,,,,,,,,,,,,,,,,11,,81,0
25919,note_on,,59,0,10,,,,,,,,,,,,,,,,15,,76,0
25919,note_on,,0,0,10,,,,,,,,,,,,,,,,15,,72,0
25919,note_on,,0,0,10,,,,,,,,,,,,,,,,15,,60,0
25919,note_on,,0,0,10,,,,,,,,,,,,,,,,15,,69,0
25919,note_on,,59,0,7,,,,,,,,,,,,,,,,10,,81,0
25919,note_on,,59,0,9,,,,,,,,,,,,,,,,13,,60,0
25920,note_on,,1,0,7,,,,,,,,,,,,,,,,10,,83,72
25920,note_on,,1,0,9,,,,,,,,,,,,,,,,13,,62,72
25920,note_on,,0,0,10,,,,,,,,,,,,,,,,15,,71,72
25920,note_on,,1,0,5,,,,,,,,,,,,,,,,2,,62,72
25920,note_on,,1,0,8,,,,,,,,,,,,,,,,11,,83,72
25920,note_on,,0,0,10,,,,,,,,,,,,,,,,15,,65,72
25920,note_on,,0,0,10,,,,,,,,,,,,,,,,15,,69,72
25920,note_on,,0,0,10,,,,,,,,,,,,,,,,15,,74,72
25920,note_on,,1,0,10,,,,,,,,,,,,,,,,15,,62,72
25979,note_on,,59,0,9,,,,,,,,,,,,,,,,13,,62,0
25979,note_on,,59,0,8,,,,,,,,,,,,,,,,11,,83,0
25979,note_on,,59,0,5,,,,,,,,,,,,,,,,2,,62,0
25979,note_on,,59,0,7,,,,,,,,,,,,,,,,10,,83,0
25979,note_on,,59,0,10,,,,,,,,,,,,,,,,15,,62,0
25980,note_on,,1,0,7,,,,,,,,,,,,,,,,10,,78,72
25980,note_on,,1,0,9,,,,,,,,,,,,,,,,13,,50,72
25980,note_on,,1,0,8,,,,,,,,,,,,,,,,11,,78,72
25980,note_on,,1,0,5,,,,,,,,,,,,,,,,2,,50,72
25980,note_on,,1,0,10,,,,,,,,,,,,,,,,15,,50,72
26039,note_on,,59,0,8,,,,,,,,,,,,,,,,11,,78,0
26039,note_on,,0,0,10,,,,,,,,,,,,,,,,15,,50,0
26039,note_on,,0,0,10,,,,,,,,,,,,,,,,15,,65,0
26039,note_on,,0,0,10,,,,,,,,,,,,,,,,15,,69,0
26039,note_on,,0,0,10,,,,,,,,,,,,,,,,15,,71,0
26039,note_on,,59,0,9,,,,,,,,,,,,,,,,13,,50,0
26039,note_on,,59,0,10,,,,,,,,,,,,,,,,15,,74,0
26039,note_on,,59,0,7,,,,,,,,,,,,,,,,10,,78,0
26039,note_on,,59,0,5,,,,,,,,,,,,,,,,2,,50,0
26040,note_on,,0,0,10,,,,,,,,,,,,,,,,15,,71,72
26040,note_on,,0,0,10,,,,,,,,,,,,,,,,15,,59,72
26040,note_on,,1,0,10,,,,,,,,,,,,,,,,15,,52,72
26040,note_on,,0,0,10,,,,,,,,,,,,,,,,15,,68,72
26040,note_on,,1,0,7,,,,,,,,,,,,,,,,10,,80,72
26040,note_on,,1,0,5,,,,,,,,,,,,,,,,2,,52,72
26040,note_on,,1,0,8,,,,,,,,,,,,,,,,11,,80,72
26040,note_on,,1,0,9,,,,,,,,,,,,,,,,13,,52,72
26054,note_on,,14,0,7,,,,,,,,,,,,,,,,10,,80,0
26054,note_on,,14,0,8,,,,,,,,,,,,,,,,11,,80,0
26055,note_on,,1,0,7,,,,,,,,,,,,,,,,10,,81,72
26055,note_on,,1,0,8,,,,,,,,,,,,,,,,11,,81,72
26069,note_on,,14,0,7,,,,,,,,,,,,,,,,10,,81,0
26069,note_on,,14,0,8,,,,,,,,,,,,,,,,11,,81,0
26070,note_on,,1,0,8,,,,,,,,,,,,,,,,11,,80,72
26070,note_on,,1,0,7,,,,,,,,,,,,,,,,10,,80,72
26084,note_on,,14,0,8,,,,,,,,,,,,,,,,11,,80,0
26084,note_on,,14,0,7,,,,,,,,,,,,,,,,10,,80,0
26085,note_on,,1,0,8,,,,,,,,,,,,,,,,11,,81,72
26085,note_on,,1,0,7,,,,,,,,,,,,,,,,10,,81,72
26099,note_on,,14,0,7,,,,,,,,,,,,,,,,10,,81,0
26099,note_on,,14,0,8,,,,,,,,,,,,,,,,11,,81,0
26100,note_on,,1,0,7,,,,,,,,,,,,,,,,10,,80,72
26100,note_on,,1,0,8,,,,,,,,,,,,,,,,11,,80,72
26114,note_on,,14,0,7,,,,,,,,,,,,,,,,10,,80,0
26114,note_on,,14,0,8,,,,,,,,,,,,,,,,11,,80,0
26115,note_on,,1,0,7,,,,,,,,,,,,,,,,10,,81,72
26115,note_on,,1,0,8,,,,,,,,,,,,,,,,11,,81,72
26129,note_on,,14,0,7,,,,,,,,,,,,,,,,10,,81,0
26129,note_on,,14,0,8,,,,,,,,,,,,,,,,11,,81,0
26130,note_on,,1,0,7,,,,,,,,,,,,,,,,10,,80,72
26130,note_on,,1,0,8,,,,,,,,,,,,,,,,11,,80,72
26144,note_on,,14,0,8,,,,,,,,,,,,,,,,11,,80,0
26144,note_on,,14,0,7,,,,,,,,,,,,,,,,10,,80,0
26145,note_on,,1,0,7,,,,,,,,,,,,,,,,10,,81,72
26145,note_on,,1,0,8,,,,,,,,,,,,,,,,11,,81,72
26159,note_on,,119,0,5,,,,,,,,,,,,,,,,2,,52,0
26159,note_on,,14,0,7,,,,,,,,,,,,,,,,10,,81,0
26159,note_on,,119,0,9,,,,,,,,,,,,,,,,13,,52,0
26159,note_on,,119,0,10,,,,,,,,,,,,,,,,15,,59,0
26159,note_on,,14,0,8,,,,,,,,,,,,,,,,11,,81,0
26160,note_on,,1,0,10,,,,,,,,,,,,,,,,15,,40,72
26160,note_on,,1,0,7,,,,,,,,,,,,,,,,10,,80,72
26160,note_on,,1,0,5,,,,,,,,,,,,,,,,2,,40,72
26160,note_on,,0,0,10,,,,,,,,,,,,,,,,15,,64,72
26160,note_on,,1,0,8,,,,,,,,,,,,,,,,11,,80,72
26160,note_on,,1,0,9,,,,,,,,,,,,,,,,13,,40,72
26174,note_on,,14,0,8,,,,,,,,,,,,,,,,11,,80,0
26174,note_on,,14,0,7,,,,,,,,,,,,,,,,10,,80,0
26175,note_on,,1,0,7,,,,,,,,,,,,,,,,10,,81,72
26175,note_on,,1,0,8,,,,,,,,,,,,,,,,11,,81,72
26189,note_on,,14,0,7,,,,,,,,,,,,,,,,10,,81,0
26189,note_on,,14,0,8,,,,,,,,,,,,,,,,11,,81,0
26190,note_on,,1,0,8,,,,,,,,,,,,,,,,11,,78,72
26190,note_on,,1,0,7,,,,,,,,,,,,,,,,10,,78,72
26204,note_on,,14,0,8,,,,,,,,,,,,,,,,11,,78,0
26204,note_on,,14,0,7,,,,,,,,,,,,,,,,10,,78,0
26205,note_on,,1,0,8,,,,,,,,,,,,,,,,11,,80,72
26205,note_on,,1,0,7,,,,,,,,,,,,,,,,10,,80,72
26219,note_on,,14,0,8,,,,,,,,,,,,,,,,11,,80,0
26219,note_on,,14,0,7,,,,,,,,,,,,,,,,10,,80,0
26220,note_on,,1,0,7,,,,,,,,,,,,,,,,10,,81,72
26220,note_on,,1,0,8,,,,,,,,,,,,,,,,11,,81,72
26279,note_on,,0,0,10,,,,,,,,,,,,,,,,15,,64,0
26279,note_on,,59,0,8,,,,,,,,,,,,,,,,11,,81,0
26279,note_on,,0,0,10,,,,,,,,,,,,,,,,15,,71,0
26279,note_on,,0,0,10,,,,,,,,,,,,,,,,15,,68,0
26279,note_on,,119,0,5,,,,,,,,,,,,,,,,2,,40,0
26279,note_on,,119,0,10,,,,,,,,,,,,,,,,15,,52,0
26279,note_on,,0,0,10,,,,,,,,,,,,,,,,15,,40,0
26279,note_on,,119,0,9,,,,,,,,,,,,,,,,13,,40,0
26279,note_on,,59,0,7,,,,,,,,,,,,,,,,10,,81,0
26280,note_on,,0,0,10,,,,,,,,,,,,,,,,15,,64,72
26280,note_on,,0,0,10,,,,,,,,,,,,,,,,15,,60,72
26280,note_on,,0,0,10,,,,,,,,,,,,,,,,15,,52,72
26280,note_on,,1,0,10,,,,,,,,,,,,,,,,15,,45,72
26280,note_on,,1,0,7,,,,,,,,,,,,,,,,10,,81,72
26280,note_on,,1,0,5,,,,,,,,,,,,,,,,2,,45,72
26280,note_on,,1,0,8,,,,,,,,,,,,,,,,11,,81,72
26280,note_on,,0,0,10,,,,,,,,,,,,,,,,15,,69,72
26280,note_on,,1,0,9,,,,,,,,,,,,,,,,13,,45,72
26399,note_on,,119,0,10,,,,,,,,,,,,,,,,15,,45,0
26399,note_on,,0,0,10,,,,,,,,,,,,,,,,15,,69,0
26399,note_on,,0,0,10,,,,,,,,,,,,,,,,15,,64,0
26399,note_on,,0,0,10,,,,,,,,,,,,,,,,15,,60,0
26399,note_on,,119,0,9,,,,,,,,,,,,,,,,13,,45,0
26399,note_on,,119,0,5,,,,,,,,,,,,,,,,2,,45,0
26399,end_of_track,,0,1,5,,,,,,,,,,,,,,,,,,,
26399,end_of_track,,0,1,9,,,,,,,,,,,,,,,,,,,
26399,note_on,,119,0,7,,,,,,,,,,,,,,,,10,,81,0
26399,note_on,,0,0,10,,,,,,,,,,,,,,,,15,,52,0
26399,note_on,,119,0,8,,,,,,,,,,,,,,,,11,,81,0
26399,end_of_track,,0,1,10,,,,,,,,,,,,,,,,,,,
26400,note_on,,1,0,7,,,,,,,,,,,,,,,,10,,69,72
26400,note_on,,1,0,8,,,,,,,,,,,,,,,,11,,69,72
26519,note_on,,119,0,7,,,,,,,,,,,,,,,,10,,69,0
26519,end_of_track,,0,1,7,,,,,,,,,,,,,,,,,,,
26519,note_on,,119,0,8,,,,,,,,,,,,,,,,11,,69,0
26519,end_of_track,,0,1,8,,,,,,,,,,,,,,,,,,,
27000,end_of_track,,0,1,0,,,,,,,,,,,,,,,,,,,
27000,set_tempo,,27000,1,0,,,,,,,,,500000,,,,,,,,,,
