tick,type,data,time,meta,track,frame_rate,hours,minutes,seconds,frames,sub_frames,port,key,tempo,numerator,denominator,clocks_per_click,notated_32nd_notes_per_beat,control,value,channel,program,note,velocity
0,sequencer_specific,"(0, 0, 91, 35, 1, 0, 5, 4, 35, 0)",0,1,0,,,,,,,,,,,,,,,,,,,
0,control_change,,0,0,15,,,,,,,,,,,,,,10,96,13,,,
0,control_change,,0,0,15,,,,,,,,,,,,,,11,127,13,,,
0,midi_port,,0,1,15,,,,,,,0,,,,,,,,,,,,
0,track_name,,0,1,15,,,,,,,,,,,,,,,,,,,
0,note_on,,0,0,14,,,,,,,,,,,,,,,,12,,67,72
0,program_change,,0,0,14,,,,,,,,,,,,,,,,12,48,,
0,control_change,,0,0,14,,,,,,,,,,,,,,7,96,12,,,
0,control_change,,0,0,14,,,,,,,,,,,,,,10,80,12,,,
0,control_change,,0,0,14,,,,,,,,,,,,,,11,127,12,,,
0,midi_port,,0,1,14,,,,,,,0,,,,,,,,,,,,
0,track_name,,0,1,14,,,,,,,,,,,,,,,,,,,
0,track_name,,0,1,7,,,,,,,,,,,,,,,,,,,
0,midi_port,,0,1,7,,,,,,,0,,,,,,,,,,,,
0,control_change,,0,0,7,,,,,,,,,,,,,,10,65,2,,,
0,control_change,,0,0,7,,,,,,,,,,,,,,7,80,2,,,
0,control_change,,0,0,15,,,,,,,,,,,,,,7,96,13,,,
0,program_change,,0,0,7,,,,,,,,,,,,,,,,2,70,,
0,program_change,,0,0,15,,,,,,,,,,,,,,,,13,48,,
0,track_name,,0,1,16,,,,,,,,,,,,,,,,,,,
0,control_change,,0,0,6,,,,,,,,,,,,,,10,75,1,,,
0,control_change,,0,0,6,,,,,,,,,,,,,,7,72,1,,,
0,program_change,,0,0,6,,,,,,,,,,,,,,,,1,68,,
0,control_change,,0,0,6,,,,,,,,,,,,,,11,127,1,,,
0,note_on,,0,0,6,,,,,,,,,,,,,,,,1,,71,72
0,midi_port,,0,1,8,,,,,,,0,,,,,,,,,,,,
0,note_on,,0,0,16,,,,,,,,,,,,,,,,15,,62,72
0,note_on,,0,0,16,,,,,,,,,,,,,,,,15,,67,72
0,note_on,,0,0,16,,,,,,,,,,,,,,,,15,,71,72
0,note_on,,0,0,16,,,,,,,,,,,,,,,,15,,55,72
0,program_change,,0,0,16,,,,,,,,,,,,,,,,15,6,,
0,control_change,,0,0,16,,,,,,,,,,,,,,7,96,15,,,
0,control_change,,0,0,16,,,,,,,,,,,,,,10,90,15,,,
0,control_change,,0,0,16,,,,,,,,,,,,,,11,127,15,,,
0,midi_port,,0,1,16,,,,,,,0,,,,,,,,,,,,
0,note_on,,0,0,15,,,,,,,,,,,,,,,,13,,55,72
0,control_change,,0,0,7,,,,,,,,,,,,,,11,127,2,,,
0,note_on,,0,0,7,,,,,,,,,,,,,,,,2,,55,72
0,note_on,,0,0,13,,,,,,,,,,,,,,,,11,,71,72
0,control_change,,0,0,10,,,,,,,,,,,,,,10,48,7,,,
0,control_change,,0,0,10,,,,,,,,,,,,,,11,127,7,,,
0,program_change,,0,0,10,,,,,,,,,,,,,,,,7,70,,
0,midi_port,,0,1,10,,,,,,,0,,,,,,,,,,,,
0,track_name,,0,1,10,,,,,,,,,,,,,,,,,,,
0,control_change,,0,0,9,,,,,,,,,,,,,,7,96,6,,,
0,control_change,,0,0,9,,,,,,,,,,,,,,11,127,6,,,
0,program_change,,0,0,9,,,,,,,,,,,,,,,,6,73,,
0,control_change,,0,0,9,,,,,,,,,,,,,,10,96,6,,,
0,midi_port,,0,1,9,,,,,,,0,,,,,,,,,,,,
0,track_name,,0,1,9,,,,,,,,,,,,,,,,,,,
0,control_change,,0,0,8,,,,,,,,,,,,,,10,32,5,,,
0,control_change,,0,0,8,,,,,,,,,,,,,,7,96,5,,,
0,control_change,,0,0,8,,,,,,,,,,,,,,11,127,5,,,
0,program_change,,0,0,8,,,,,,,,,,,,,,,,5,73,,
0,control_change,,0,0,10,,,,,,,,,,,,,,7,96,7,,,
0,track_name,,0,1,11,,,,,,,,,,,,,,,,,,,
0,midi_port,,0,1,11,,,,,,,0,,,,,,,,,,,,
0,control_change,,0,0,11,,,,,,,,,,,,,,10,80,8,,,
0,program_change,,0,0,13,,,,,,,,,,,,,,,,11,48,,
0,control_change,,0,0,13,,,,,,,,,,,,,,7,96,11,,,
0,control_change,,0,0,13,,,,,,,,,,,,,,10,24,11,,,
0,control_change,,0,0,13,,,,,,,,,,,,,,11,127,11,,,
0,midi_port,,0,1,13,,,,,,,0,,,,,,,,,,,,
0,track_name,,0,1,13,,,,,,,,,,,,,,,,,,,
0,note_on,,0,0,12,,,,,,,,,,,,,,,,10,,86,72
0,midi_port,,0,1,6,,,,,,,0,,,,,,,,,,,,
0,program_change,,0,0,12,,,,,,,,,,,,,,,,10,48,,
0,control_change,,0,0,12,,,,,,,,,,,,,,10,48,10,,,
0,control_change,,0,0,12,,,,,,,,,,,,,,11,127,10,,,
0,midi_port,,0,1,12,,,,,,,0,,,,,,,,,,,,
0,track_name,,0,1,12,,,,,,,,,,,,,,,,,,,
0,control_change,,0,0,11,,,,,,,,,,,,,,7,96,8,,,
0,control_change,,0,0,11,,,,,,,,,,,,,,11,127,8,,,
0,program_change,,0,0,11,,,,,,,,,,,,,,,,8,60,,
0,control_change,,0,0,12,,,,,,,,,,,,,,7,96,10,,,
0,track_name,,0,1,6,,,,,,,,,,,,,,,,,,,
0,track_name,,0,1,8,,,,,,,,,,,,,,,,,,,
0,track_name,,0,1,5,,,,,,,,,,,,,,,,,,,
0,note_on,,0,0,5,,,,,,,,,,,,,,,,0,,86,72
0,program_change,,0,0,5,,,,,,,,,,,,,,,,0,68,,
0,control_change,,0,0,5,,,,,,,,,,,,,,7,72,0,,,
0,control_change,,0,0,5,,,,,,,,,,,,,,10,70,0,,,
0,control_change,,0,0,5,,,,,,,,,,,,,,11,127,0,,,
0,midi_port,,0,1,5,,,,,,,0,,,,,,,,,,,,
0,end_of_track,,0,1,4,,,,,,,,,,,,,,,,,,,
0,midi_port,,0,1,4,,,,,,,0,,,,,,,,,,,,
0,end_of_track,,0,1,3,,,,,,,,,,,,,,,,,,,
0,track_name,,0,1,3,,,,,,,,,,,,,,,,,,,
0,end_of_track,,0,1,2,,,,,,,,,,,,,,,,,,,
0,midi_port,,0,1,3,,,,,,,0,,,,,,,,,,,,
0,track_name,,0,1,2,,,,,,,,,,,,,,,,,,,
0,track_name,,0,1,0,,,,,,,,,,,,,,,,,,,
0,instrument_name,,0,1,0,,,,,,,,,,,,,,,,,,,
0,smpte_offset,,0,1,0,25,32,0,3,0,0,,,,,,,,,,,,,
0,midi_port,,0,1,0,,,,,,,0,,,,,,,,,,,,
0,midi_port,,0,1,2,,,,,,,0,,,,,,,,,,,,
0,set_tempo,,0,1,0,,,,,,,,,571428,,,,,,,,,,
0,key_signature,,0,1,0,,,,,,,,G,,,,,,,,,,,
0,time_signature,,0,1,0,,,,,,,,,,4,4,24,8,,,,,,
0,track_name,,0,1,1,,,,,,,,,,,,,,,,,,,
0,midi_port,,0,1,1,,,,,,,0,,,,,,,,,,,,
0,end_of_track,,0,1,1,,,,,,,,,,,,,,,,,,,
59,note_on,,59,0,7,,,,,,,,,,,,,,,,2,,55,0
59,note_on,,0,0,16,,,,,,,,,,,,,,,,15,,62,0
59,note_on,,59,0,16,,,,,,,,,,,,,,,,15,,55,0
59,note_on,,59,0,15,,,,,,,,,,,,,,,,13,,55,0
60,note_on,,1,0,16,,,,,,,,,,,,,,,,15,,57,72
60,note_on,,0,0,16,,,,,,,,,,,,,,,,15,,60,72
60,note_on,,1,0,15,,,,,,,,,,,,,,,,13,,57,72
60,note_on,,1,0,7,,,,,,,,,,,,,,,,2,,57,72
119,note_on,,59,0,15,,,,,,,,,,,,,,,,13,,57,0
119,note_on,,59,0,7,,,,,,,,,,,,,,,,2,,57,0
119,note_on,,119,0,13,,,,,,,,,,,,,,,,11,,71,0
119,note_on,,59,0,16,,,,,,,,,,,,,,,,15,,57,0
119,note_on,,119,0,14,,,,,,,,,,,,,,,,12,,67,0
119,note_on,,0,0,16,,,,,,,,,,,,,,,,15,,60,0
119,note_on,,119,0,5,,,,,,,,,,,,,,,,0,,86,0
119,note_on,,119,0,6,,,,,,,,,,,,,,,,1,,71,0
119,note_on,,119,0,12,,,,,,,,,,,,,,,,10,,86,0
120,note_on,,0,0,16,,,,,,,,,,,,,,,,15,,62,72
120,note_on,,1,0,16,,,,,,,,,,,,,,,,15,,59,72
120,note_on,,1,0,5,,,,,,,,,,,,,,,,0,,79,72
120,note_on,,1,0,12,,,,,,,,,,,,,,,,10,,79,72
120,note_on,,1,0,15,,,,,,,,,,,,,,,,13,,59,72
120,note_on,,1,0,14,,,,,,,,,,,,,,,,12,,62,72
120,note_on,,1,0,7,,,,,,,,,,,,,,,,2,,59,72
179,note_on,,59,0,14,,,,,,,,,,,,,,,,12,,62,0
179,note_on,,0,0,16,,,,,,,,,,,,,,,,15,,59,0
179,note_on,,59,0,12,,,,,,,,,,,,,,,,10,,79,0
179,note_on,,0,0,16,,,,,,,,,,,,,,,,15,,67,0
179,note_on,,59,0,5,,,,,,,,,,,,,,,,0,,79,0
179,note_on,,0,0,16,,,,,,,,,,,,,,,,15,,62,0
179,note_on,,59,0,16,,,,,,,,,,,,,,,,15,,71,0
179,note_on,,59,0,15,,,,,,,,,,,,,,,,13,,59,0
179,note_on,,59,0,7,,,,,,,,,,,,,,,,2,,59,0
180,note_on,,1,0,7,,,,,,,,,,,,,,,,2,,47,72
180,note_on,,1,0,5,,,,,,,,,,,,,,,,0,,79,72
180,note_on,,1,0,12,,,,,,,,,,,,,,,,10,,79,72
180,note_on,,0,0,16,,,,,,,,,,,,,,,,15,,62,72
180,note_on,,1,0,15,,,,,,,,,,,,,,,,13,,47,72
180,note_on,,0,0,16,,,,,,,,,,,,,,,,15,,67,72
180,note_on,,0,0,16,,,,,,,,,,,,,,,,15,,74,72
180,note_on,,1,0,16,,,,,,,,,,,,,,,,15,,47,72
180,note_on,,1,0,14,,,,,,,,,,,,,,,,12,,62,72
239,note_on,,0,0,16,,,,,,,,,,,,,,,,15,,67,0
239,note_on,,0,0,16,,,,,,,,,,,,,,,,15,,74,0
239,note_on,,59,0,15,,,,,,,,,,,,,,,,13,,47,0
239,note_on,,59,0,16,,,,,,,,,,,,,,,,15,,47,0
239,note_on,,59,0,7,,,,,,,,,,,,,,,,2,,47,0
239,note_on,,59,0,5,,,,,,,,,,,,,,,,0,,79,0
239,note_on,,59,0,14,,,,,,,,,,,,,,,,12,,62,0
239,note_on,,0,0,16,,,,,,,,,,,,,,,,15,,62,0
239,note_on,,59,0,12,,,,,,,,,,,,,,,,10,,79,0
240,note_on,,0,0,16,,,,,,,,,,,,,,,,15,,67,72
240,note_on,,1,0,12,,,,,,,,,,,,,,,,10,,84,72
240,note_on,,1,0,16,,,,,,,,,,,,,,,,15,,45,72
240,note_on,,0,0,16,,,,,,,,,,,,,,,,15,,72,72
240,note_on,,0,0,16,,,,,,,,,,,,,,,,15,,69,72
240,note_on,,1,0,15,,,,,,,,,,,,,,,,13,,45,72
240,note_on,,1,0,14,,,,,,,,,,,,,,,,12,,64,72
240,note_on,,1,0,7,,,,,,,,,,,,,,,,2,,45,72
240,note_on,,1,0,5,,,,,,,,,,,,,,,,0,,84,72
299,note_on,,59,0,12,,,,,,,,,,,,,,,,10,,84,0
299,note_on,,59,0,15,,,,,,,,,,,,,,,,13,,45,0
299,note_on,,59,0,14,,,,,,,,,,,,,,,,12,,64,0
299,note_on,,59,0,7,,,,,,,,,,,,,,,,2,,45,0
299,note_on,,59,0,16,,,,,,,,,,,,,,,,15,,45,0
299,note_on,,59,0,5,,,,,,,,,,,,,,,,0,,84,0
300,note_on,,1,0,15,,,,,,,,,,,,,,,,13,,55,72
300,note_on,,1,0,14,,,,,,,,,,,,,,,,12,,64,72
300,note_on,,1,0,12,,,,,,,,,,,,,,,,10,,84,72
300,note_on,,1,0,16,,,,,,,,,,,,,,,,15,,55,72
300,note_on,,1,0,5,,,,,,,,,,,,,,,,0,,84,72
300,note_on,,1,0,7,,,,,,,,,,,,,,,,2,,55,72
359,note_on,,59,0,7,,,,,,,,,,,,,,,,2,,55,0
359,note_on,,0,0,16,,,,,,,,,,,,,,,,15,,67,0
359,note_on,,0,0,16,,,,,,,,,,,,,,,,15,,55,0
359,note_on,,0,0,16,,,,,,,,,,,,,,,,15,,69,0
359,note_on,,59,0,5,,,,,,,,,,,,,,,,0,,84,0
359,note_on,,59,0,16,,,,,,,,,,,,,,,,15,,72,0
359,note_on,,59,0,14,,,,,,,,,,,,,,,,12,,64,0
359,note_on,,59,0,15,,,,,,,,,,,,,,,,13,,55,0
359,note_on,,59,0,12,,,,,,,,,,,,,,,,10,,84,0
360,note_on,,1,0,12,,,,,,,,,,,,,,,,10,,84,72
360,note_on,,1,0,7,,,,,,,,,,,,,,,,2,,54,72
360,note_on,,1,0,14,,,,,,,,,,,,,,,,12,,62,72
360,note_on,,1,0,15,,,,,,,,,,,,,,,,13,,54,72
360,note_on,,1,0,5,,,,,,,,,,,,,,,,0,,84,72
360,note_on,,0,0,16,,,,,,,,,,,,,,,,15,,62,72
360,note_on,,0,0,16,,,,,,,,,,,,,,,,15,,60,72
360,note_on,,1,0,16,,,,,,,,,,,,,,,,15,,54,72
360,note_on,,0,0,16,,,,,,,,,,,,,,,,15,,69,72
419,note_on,,59,0,16,,,,,,,,,,,,,,,,15,,54,0
419,note_on,,59,0,14,,,,,,,,,,,,,,,,12,,62,0
419,note_on,,59,0,15,,,,,,,,,,,,,,,,13,,54,0
419,note_on,,59,0,12,,,,,,,,,,,,,,,,10,,84,0
419,note_on,,59,0,7,,,,,,,,,,,,,,,,2,,54,0
419,note_on,,59,0,5,,,,,,,,,,,,,,,,0,,84,0
420,note_on,,1,0,16,,,,,,,,,,,,,,,,15,,50,72
420,note_on,,1,0,14,,,,,,,,,,,,,,,,12,,66,72
420,note_on,,1,0,7,,,,,,,,,,,,,,,,2,,50,72
420,note_on,,1,0,12,,,,,,,,,,,,,,,,10,,84,72
420,note_on,,1,0,5,,,,,,,,,,,,,,,,0,,84,72
420,note_on,,1,0,15,,,,,,,,,,,,,,,,13,,50,72
479,note_on,,59,0,16,,,,,,,,,,,,,,,,15,,69,0
479,note_on,,59,0,15,,,,,,,,,,,,,,,,13,,50,0
479,note_on,,59,0,7,,,,,,,,,,,,,,,,2,,50,0
479,note_on,,59,0,5,,,,,,,,,,,,,,,,0,,84,0
479,note_on,,0,0,16,,,,,,,,,,,,,,,,15,,50,0
479,note_on,,0,0,16,,,,,,,,,,,,,,,,15,,60,0
479,note_on,,0,0,16,,,,,,,,,,,,,,,,15,,62,0
479,note_on,,59,0,14,,,,,,,,,,,,,,,,12,,66,0
479,note_on,,59,0,12,,,,,,,,,,,,,,,,10,,84,0
480,note_on,,1,0,15,,,,,,,,,,,,,,,,13,,55,72
480,note_on,,1,0,14,,,,,,,,,,,,,,,,12,,67,72
480,note_on,,1,0,12,,,,,,,,,,,,,,,,10,,84,72
480,note_on,,1,0,5,,,,,,,,,,,,,,,,0,,84,72
480,note_on,,1,0,7,,,,,,,,,,,,,,,,2,,55,72
480,note_on,,361,0,13,,,,,,,,,,,,,,,,11,,74,72
480,note_on,,361,0,6,,,,,,,,,,,,,,,,1,,74,72
480,note_on,,1,0,16,,,,,,,,,,,,,,,,15,,55,72
480,note_on,,0,0,16,,,,,,,,,,,,,,,,15,,67,72
480,note_on,,0,0,16,,,,,,,,,,,,,,,,15,,62,72
539,note_on,,59,0,7,,,,,,,,,,,,,,,,2,,55,0
539,note_on,,59,0,15,,,,,,,,,,,,,,,,13,,55,0
539,note_on,,59,0,5,,,,,,,,,,,,,,,,0,,84,0
539,note_on,,59,0,12,,,,,,,,,,,,,,,,10,,84,0
539,note_on,,59,0,16,,,,,,,,,,,,,,,,15,,55,0
539,note_on,,0,0,16,,,,,,,,,,,,,,,,15,,62,0
540,note_on,,1,0,5,,,,,,,,,,,,,,,,0,,83,72
540,note_on,,1,0,12,,,,,,,,,,,,,,,,10,,83,72
540,note_on,,0,0,16,,,,,,,,,,,,,,,,15,,60,72
540,note_on,,1,0,16,,,,,,,,,,,,,,,,15,,57,72
540,note_on,,1,0,15,,,,,,,,,,,,,,,,13,,57,72
540,note_on,,1,0,7,,,,,,,,,,,,,,,,2,,57,72
599,note_on,,59,0,5,,,,,,,,,,,,,,,,0,,83,0
599,note_on,,0,0,16,,,,,,,,,,,,,,,,15,,60,0
599,note_on,,59,0,16,,,,,,,,,,,,,,,,15,,57,0
599,note_on,,59,0,7,,,,,,,,,,,,,,,,2,,57,0
599,note_on,,59,0,15,,,,,,,,,,,,,,,,13,,57,0
599,note_on,,119,0,6,,,,,,,,,,,,,,,,1,,74,0
599,note_on,,119,0,13,,,,,,,,,,,,,,,,11,,74,0
599,note_on,,119,0,14,,,,,,,,,,,,,,,,12,,67,0
599,note_on,,59,0,12,,,,,,,,,,,,,,,,10,,83,0
600,note_on,,1,0,13,,,,,,,,,,,,,,,,11,,67,72
600,note_on,,1,0,7,,,,,,,,,,,,,,,,2,,59,72
600,note_on,,1,0,14,,,,,,,,,,,,,,,,12,,62,72
600,note_on,,0,0,16,,,,,,,,,,,,,,,,15,,62,72
600,note_on,,1,0,15,,,,,,,,,,,,,,,,13,,59,72
600,note_on,,1,0,6,,,,,,,,,,,,,,,,1,,67,72
600,note_on,,1,0,16,,,,,,,,,,,,,,,,15,,59,72
659,note_on,,59,0,6,,,,,,,,,,,,,,,,1,,67,0
659,note_on,,59,0,15,,,,,,,,,,,,,,,,13,,59,0
659,note_on,,59,0,7,,,,,,,,,,,,,,,,2,,59,0
659,note_on,,59,0,13,,,,,,,,,,,,,,,,11,,67,0
659,note_on,,0,0,16,,,,,,,,,,,,,,,,15,,59,0
659,note_on,,0,0,16,,,,,,,,,,,,,,,,15,,62,0
659,note_on,,59,0,16,,,,,,,,,,,,,,,,15,,67,0
659,note_on,,59,0,14,,,,,,,,,,,,,,,,12,,62,0
660,note_on,,1,0,14,,,,,,,,,,,,,,,,12,,62,72
660,note_on,,1,0,15,,,,,,,,,,,,,,,,13,,47,72
660,note_on,,1,0,13,,,,,,,,,,,,,,,,11,,67,72
660,note_on,,0,0,16,,,,,,,,,,,,,,,,15,,67,72
660,note_on,,1,0,7,,,,,,,,,,,,,,,,2,,47,72
660,note_on,,1,0,6,,,,,,,,,,,,,,,,1,,67,72
660,note_on,,1,0,16,,,,,,,,,,,,,,,,15,,47,72
660,note_on,,0,0,16,,,,,,,,,,,,,,,,15,,62,72
660,note_on,,0,0,16,,,,,,,,,,,,,,,,15,,71,72
719,note_on,,59,0,6,,,,,,,,,,,,,,,,1,,67,0
719,note_on,,59,0,7,,,,,,,,,,,,,,,,2,,47,0
719,note_on,,59,0,14,,,,,,,,,,,,,,,,12,,62,0
719,note_on,,59,0,16,,,,,,,,,,,,,,,,15,,47,0
719,note_on,,59,0,15,,,,,,,,,,,,,,,,13,,47,0
719,note_on,,0,0,16,,,,,,,,,,,,,,,,15,,71,0
719,note_on,,0,0,16,,,,,,,,,,,,,,,,15,,67,0
719,note_on,,59,0,13,,,,,,,,,,,,,,,,11,,67,0
719,note_on,,0,0,16,,,,,,,,,,,,,,,,15,,62,0
720,note_on,,0,0,16,,,,,,,,,,,,,,,,15,,69,72
720,note_on,,1,0,6,,,,,,,,,,,,,,,,1,,72,72
720,note_on,,1,0,13,,,,,,,,,,,,,,,,11,,72,72
720,note_on,,1,0,7,,,,,,,,,,,,,,,,2,,45,72
720,note_on,,1,0,16,,,,,,,,,,,,,,,,15,,45,72
720,note_on,,1,0,14,,,,,,,,,,,,,,,,12,,64,72
720,note_on,,0,0,16,,,,,,,,,,,,,,,,15,,72,72
720,note_on,,0,0,16,,,,,,,,,,,,,,,,15,,64,72
720,note_on,,1,0,15,,,,,,,,,,,,,,,,13,,45,72
720,note_on,,0,0,16,,,,,,,,,,,,,,,,15,,67,72
779,note_on,,59,0,16,,,,,,,,,,,,,,,,15,,45,0
779,note_on,,59,0,14,,,,,,,,,,,,,,,,12,,64,0
779,note_on,,59,0,7,,,,,,,,,,,,,,,,2,,45,0
779,note_on,,59,0,13,,,,,,,,,,,,,,,,11,,72,0
779,note_on,,59,0,6,,,,,,,,,,,,,,,,1,,72,0
779,note_on,,59,0,15,,,,,,,,,,,,,,,,13,,45,0
780,note_on,,1,0,14,,,,,,,,,,,,,,,,12,,69,72
780,note_on,,1,0,15,,,,,,,,,,,,,,,,13,,55,72
780,note_on,,181,0,5,,,,,,,,,,,,,,,,0,,76,72
780,note_on,,181,0,12,,,,,,,,,,,,,,,,10,,76,72
780,note_on,,1,0,7,,,,,,,,,,,,,,,,2,,55,72
780,note_on,,1,0,13,,,,,,,,,,,,,,,,11,,72,72
780,note_on,,1,0,16,,,,,,,,,,,,,,,,15,,55,72
780,note_on,,1,0,6,,,,,,,,,,,,,,,,1,,72,72
839,note_on,,59,0,15,,,,,,,,,,,,,,,,13,,55,0
839,note_on,,59,0,12,,,,,,,,,,,,,,,,10,,76,0
839,note_on,,0,0,16,,,,,,,,,,,,,,,,15,,69,0
839,note_on,,59,0,6,,,,,,,,,,,,,,,,1,,72,0
839,note_on,,0,0,16,,,,,,,,,,,,,,,,15,,64,0
839,note_on,,0,0,16,,,,,,,,,,,,,,,,15,,55,0
839,note_on,,59,0,7,,,,,,,,,,,,,,,,2,,55,0
839,note_on,,59,0,14,,,,,,,,,,,,,,,,12,,69,0
839,note_on,,59,0,5,,,,,,,,,,,,,,,,0,,76,0
839,note_on,,59,0,13,,,,,,,,,,,,,,,,11,,72,0
839,note_on,,0,0,16,,,,,,,,,,,,,,,,15,,67,0
839,note_on,,59,0,16,,,,,,,,,,,,,,,,15,,72,0
840,note_on,,1,0,15,,,,,,,,,,,,,,,,13,,54,72
840,note_on,,1,0,14,,,,,,,,,,,,,,,,12,,62,72
840,note_on,,1,0,16,,,,,,,,,,,,,,,,15,,54,72
840,note_on,,0,0,16,,,,,,,,,,,,,,,,15,,74,72
840,note_on,,0,0,16,,,,,,,,,,,,,,,,15,,69,72
840,note_on,,1,0,13,,,,,,,,,,,,,,,,11,,72,72
840,note_on,,1,0,5,,,,,,,,,,,,,,,,0,,81,72
840,note_on,,1,0,6,,,,,,,,,,,,,,,,1,,72,72
840,note_on,,0,0,16,,,,,,,,,,,,,,,,15,,62,72
840,note_on,,1,0,7,,,,,,,,,,,,,,,,2,,54,72
840,note_on,,1,0,12,,,,,,,,,,,,,,,,10,,81,72
899,note_on,,59,0,5,,,,,,,,,,,,,,,,0,,81,0
899,note_on,,59,0,13,,,,,,,,,,,,,,,,11,,72,0
899,note_on,,59,0,15,,,,,,,,,,,,,,,,13,,54,0
899,note_on,,59,0,12,,,,,,,,,,,,,,,,10,,81,0
899,note_on,,59,0,14,,,,,,,,,,,,,,,,12,,62,0
899,note_on,,59,0,16,,,,,,,,,,,,,,,,15,,54,0
899,note_on,,0,0,16,,,,,,,,,,,,,,,,15,,74,0
899,note_on,,0,0,16,,,,,,,,,,,,,,,,15,,69,0
899,note_on,,0,0,16,,,,,,,,,,,,,,,,15,,62,0
899,note_on,,59,0,6,,,,,,,,,,,,,,,,1,,72,0
899,note_on,,59,0,7,,,,,,,,,,,,,,,,2,,54,0
900,note_on,,1,0,7,,,,,,,,,,,,,,,,2,,50,72
900,note_on,,1,0,12,,,,,,,,,,,,,,,,10,,78,72
900,note_on,,0,0,16,,,,,,,,,,,,,,,,15,,69,72
900,note_on,,1,0,15,,,,,,,,,,,,,,,,13,,50,72
900,note_on,,1,0,6,,,,,,,,,,,,,,,,1,,72,72
900,note_on,,1,0,5,,,,,,,,,,,,,,,,0,,78,72
900,note_on,,0,0,16,,,,,,,,,,,,,,,,15,,62,72
900,note_on,,0,0,16,,,,,,,,,,,,,,,,15,,66,72
900,note_on,,1,0,13,,,,,,,,,,,,,,,,11,,72,72
900,note_on,,1,0,14,,,,,,,,,,,,,,,,12,,69,72
900,note_on,,1,0,16,,,,,,,,,,,,,,,,15,,50,72
959,note_on,,59,0,12,,,,,,,,,,,,,,,,10,,78,0
959,note_on,,59,0,14,,,,,,,,,,,,,,,,12,,69,0
959,note_on,,59,0,16,,,,,,,,,,,,,,,,15,,50,0
959,note_on,,59,0,13,,,,,,,,,,,,,,,,11,,72,0
959,note_on,,59,0,15,,,,,,,,,,,,,,,,13,,50,0
959,note_on,,59,0,5,,,,,,,,,,,,,,,,0,,78,0
959,note_on,,0,0,16,,,,,,,,,,,,,,,,15,,69,0
959,note_on,,0,0,16,,,,,,,,,,,,,,,,15,,66,0
959,note_on,,0,0,16,,,,,,,,,,,,,,,,15,,62,0
959,note_on,,59,0,6,,,,,,,,,,,,,,,,1,,72,0
959,note_on,,59,0,7,,,,,,,,,,,,,,,,2,,50,0
960,note_on,,1,0,16,,,,,,,,,,,,,,,,15,,55,72
960,note_on,,0,0,16,,,,,,,,,,,,,,,,15,,71,72
960,note_on,,0,0,16,,,,,,,,,,,,,,,,15,,67,72
960,note_on,,0,0,16,,,,,,,,,,,,,,,,15,,62,72
960,note_on,,1,0,7,,,,,,,,,,,,,,,,2,,55,72
960,note_on,,1,0,15,,,,,,,,,,,,,,,,13,,55,72
960,note_on,,1,0,14,,,,,,,,,,,,,,,,12,,67,72
960,note_on,,1,0,13,,,,,,,,,,,,,,,,11,,71,72
960,note_on,,1,0,5,,,,,,,,,,,,,,,,0,,74,72
960,note_on,,1,0,6,,,,,,,,,,,,,,,,1,,71,72
960,note_on,,1,0,12,,,,,,,,,,,,,,,,10,,74,72
989,note_on,,29,0,13,,,,,,,,,,,,,,,,11,,71,0
989,note_on,,29,0,6,,,,,,,,,,,,,,,,1,,71,0
990,note_on,,1,0,6,,,,,,,,,,,,,,,,1,,69,72
990,note_on,,1,0,13,,,,,,,,,,,,,,,,11,,69,72
1019,note_on,,59,0,7,,,,,,,,,,,,,,,,2,,55,0
1019,note_on,,29,0,13,,,,,,,,,,,,,,,,11,,69,0
1019,note_on,,29,0,6,,,,,,,,,,,,,,,,1,,69,0
1019,note_on,,59,0,15,,,,,,,,,,,,,,,,13,,55,0
1019,note_on,,59,0,12,,,,,,,,,,,,,,,,10,,74,0
1019,note_on,,59,0,5,,,,,,,,,,,,,,,,0,,74,0
1019,note_on,,59,0,16,,,,,,,,,,,,,,,,15,,55,0
1019,note_on,,59,0,14,,,,,,,,,,,,,,,,12,,67,0
1020,note_on,,1,0,5,,,,,,,,,,,,,,,,0,,74,72
1020,note_on,,1,0,15,,,,,,,,,,,,,,,,13,,43,72
1020,note_on,,1,0,14,,,,,,,,,,,,,,,,12,,67,72
1020,note_on,,1,0,7,,,,,,,,,,,,,,,,2,,43,72
1020,note_on,,1,0,16,,,,,,,,,,,,,,,,15,,43,72
1020,note_on,,1,0,13,,,,,,,,,,,,,,,,11,,71,72
1020,note_on,,1,0,6,,,,,,,,,,,,,,,,1,,71,72
1020,note_on,,1,0,12,,,,,,,,,,,,,,,,10,,74,72
1049,note_on,,29,0,6,,,,,,,,,,,,,,,,1,,71,0
1049,note_on,,29,0,13,,,,,,,,,,,,,,,,11,,71,0
1050,note_on,,1,0,6,,,,,,,,,,,,,,,,1,,72,72
1050,note_on,,1,0,13,,,,,,,,,,,,,,,,11,,72,72
1079,note_on,,29,0,6,,,,,,,,,,,,,,,,1,,72,0
1079,note_on,,59,0,14,,,,,,,,,,,,,,,,12,,67,0
1079,note_on,,59,0,12,,,,,,,,,,,,,,,,10,,74,0
1079,note_on,,59,0,7,,,,,,,,,,,,,,,,2,,43,0
1079,note_on,,59,0,15,,,,,,,,,,,,,,,,13,,43,0
1079,note_on,,59,0,5,,,,,,,,,,,,,,,,0,,74,0
1079,note_on,,59,0,16,,,,,,,,,,,,,,,,15,,71,0
1079,note_on,,0,0,16,,,,,,,,,,,,,,,,15,,67,0
1079,note_on,,29,0,13,,,,,,,,,,,,,,,,11,,72,0
1079,note_on,,0,0,16,,,,,,,,,,,,,,,,15,,43,0
1079,note_on,,0,0,16,,,,,,,,,,,,,,,,15,,62,0
1080,note_on,,0,0,16,,,,,,,,,,,,,,,,15,,67,72
1080,note_on,,1,0,5,,,,,,,,,,,,,,,,0,,79,72
1080,note_on,,1,0,14,,,,,,,,,,,,,,,,12,,62,72
1080,note_on,,1,0,7,,,,,,,,,,,,,,,,2,,47,72
1080,note_on,,1,0,12,,,,,,,,,,,,,,,,10,,79,72
1080,note_on,,0,0,16,,,,,,,,,,,,,,,,15,,62,72
1080,note_on,,0,0,16,,,,,,,,,,,,,,,,15,,55,72
1080,note_on,,1,0,6,,,,,,,,,,,,,,,,1,,71,72
1080,note_on,,1,0,13,,,,,,,,,,,,,,,,11,,71,72
1080,note_on,,1,0,15,,,,,,,,,,,,,,,,13,,47,72
1080,note_on,,1,0,16,,,,,,,,,,,,,,,,15,,47,72
1109,note_on,,29,0,13,,,,,,,,,,,,,,,,11,,71,0
1109,note_on,,29,0,6,,,,,,,,,,,,,,,,1,,71,0
1110,note_on,,1,0,6,,,,,,,,,,,,,,,,1,,72,72
1110,note_on,,1,0,13,,,,,,,,,,,,,,,,11,,72,72
1139,note_on,,59,0,15,,,,,,,,,,,,,,,,13,,47,0
1139,note_on,,59,0,12,,,,,,,,,,,,,,,,10,,79,0
1139,note_on,,29,0,13,,,,,,,,,,,,,,,,11,,72,0
1139,note_on,,29,0,6,,,,,,,,,,,,,,,,1,,72,0
1139,note_on,,0,0,16,,,,,,,,,,,,,,,,15,,55,0
1139,note_on,,0,0,16,,,,,,,,,,,,,,,,15,,67,0
1139,note_on,,59,0,5,,,,,,,,,,,,,,,,0,,79,0
1139,note_on,,59,0,7,,,,,,,,,,,,,,,,2,,47,0
1139,note_on,,0,0,16,,,,,,,,,,,,,,,,15,,62,0
1139,note_on,,59,0,14,,,,,,,,,,,,,,,,12,,62,0
1139,note_on,,59,0,16,,,,,,,,,,,,,,,,15,,47,0
1140,note_on,,1,0,13,,,,,,,,,,,,,,,,11,,69,72
1140,note_on,,1,0,7,,,,,,,,,,,,,,,,2,,43,72
1140,note_on,,0,0,16,,,,,,,,,,,,,,,,15,,62,72
1140,note_on,,1,0,5,,,,,,,,,,,,,,,,0,,78,72
1140,note_on,,0,0,16,,,,,,,,,,,,,,,,15,,55,72
1140,note_on,,1,0,14,,,,,,,,,,,,,,,,12,,62,72
1140,note_on,,1,0,16,,,,,,,,,,,,,,,,15,,43,72
1140,note_on,,1,0,6,,,,,,,,,,,,,,,,1,,69,72
1140,note_on,,1,0,12,,,,,,,,,,,,,,,,10,,78,72
1140,note_on,,1,0,15,,,,,,,,,,,,,,,,13,,43,72
1169,note_on,,29,0,6,,,,,,,,,,,,,,,,1,,69,0
1169,note_on,,29,0,13,,,,,,,,,,,,,,,,11,,69,0
1170,note_on,,1,0,6,,,,,,,,,,,,,,,,1,,71,72
1170,note_on,,1,0,13,,,,,,,,,,,,,,,,11,,71,72
1199,note_on,,59,0,16,,,,,,,,,,,,,,,,15,,43,0
1199,note_on,,29,0,6,,,,,,,,,,,,,,,,1,,71,0
1199,note_on,,59,0,5,,,,,,,,,,,,,,,,0,,78,0
1199,note_on,,59,0,15,,,,,,,,,,,,,,,,13,,43,0
1199,note_on,,0,0,16,,,,,,,,,,,,,,,,15,,55,0
1199,note_on,,59,0,14,,,,,,,,,,,,,,,,12,,62,0
1199,note_on,,59,0,12,,,,,,,,,,,,,,,,10,,78,0
1199,note_on,,0,0,16,,,,,,,,,,,,,,,,15,,62,0
1199,note_on,,29,0,13,,,,,,,,,,,,,,,,11,,71,0
1199,note_on,,59,0,7,,,,,,,,,,,,,,,,2,,43,0
1200,note_on,,1,0,13,,,,,,,,,,,,,,,,11,,67,72
1200,note_on,,0,0,16,,,,,,,,,,,,,,,,15,,55,72
1200,note_on,,0,0,16,,,,,,,,,,,,,,,,15,,60,72
1200,note_on,,0,0,16,,,,,,,,,,,,,,,,15,,64,72
1200,note_on,,1,0,16,,,,,,,,,,,,,,,,15,,48,72
1200,note_on,,1,0,7,,,,,,,,,,,,,,,,2,,48,72
1200,note_on,,1,0,5,,,,,,,,,,,,,,,,0,,76,72
1200,note_on,,1,0,12,,,,,,,,,,,,,,,,10,,76,72
1200,note_on,,1,0,6,,,,,,,,,,,,,,,,1,,67,72
1200,note_on,,1,0,14,,,,,,,,,,,,,,,,12,,72,72
1200,note_on,,1,0,15,,,,,,,,,,,,,,,,13,,48,72
1229,note_on,,29,0,13,,,,,,,,,,,,,,,,11,,67,0
1229,note_on,,29,0,6,,,,,,,,,,,,,,,,1,,67,0
1229,note_on,,29,0,5,,,,,,,,,,,,,,,,0,,76,0
1229,note_on,,29,0,12,,,,,,,,,,,,,,,,10,,76,0
1230,note_on,,1,0,6,,,,,,,,,,,,,,,,1,,66,72
1230,note_on,,1,0,5,,,,,,,,,,,,,,,,0,,74,72
1230,note_on,,1,0,13,,,,,,,,,,,,,,,,11,,66,72
1230,note_on,,1,0,12,,,,,,,,,,,,,,,,10,,74,72
1259,note_on,,29,0,12,,,,,,,,,,,,,,,,10,,74,0
1259,note_on,,29,0,13,,,,,,,,,,,,,,,,11,,66,0
1259,note_on,,29,0,5,,,,,,,,,,,,,,,,0,,74,0
1259,note_on,,29,0,6,,,,,,,,,,,,,,,,1,,66,0
1260,note_on,,1,0,13,,,,,,,,,,,,,,,,11,,67,72
1260,note_on,,1,0,6,,,,,,,,,,,,,,,,1,,67,72
1260,note_on,,1,0,5,,,,,,,,,,,,,,,,0,,76,72
1260,note_on,,1,0,12,,,,,,,,,,,,,,,,10,,76,72
1289,note_on,,29,0,12,,,,,,,,,,,,,,,,10,,76,0
1289,note_on,,29,0,5,,,,,,,,,,,,,,,,0,,76,0
1289,note_on,,29,0,13,,,,,,,,,,,,,,,,11,,67,0
1289,note_on,,29,0,6,,,,,,,,,,,,,,,,1,,67,0
1290,note_on,,1,0,12,,,,,,,,,,,,,,,,10,,78,72
1290,note_on,,1,0,13,,,,,,,,,,,,,,,,11,,69,72
1290,note_on,,1,0,5,,,,,,,,,,,,,,,,0,,78,72
1290,note_on,,1,0,6,,,,,,,,,,,,,,,,1,,69,72
1319,note_on,,29,0,12,,,,,,,,,,,,,,,,10,,78,0
1319,note_on,,29,0,13,,,,,,,,,,,,,,,,11,,69,0
1319,note_on,,0,0,16,,,,,,,,,,,,,,,,15,,60,0
1319,note_on,,0,0,16,,,,,,,,,,,,,,,,15,,64,0
1319,note_on,,29,0,5,,,,,,,,,,,,,,,,0,,78,0
1319,note_on,,0,0,16,,,,,,,,,,,,,,,,15,,55,0
1319,note_on,,29,0,6,,,,,,,,,,,,,,,,1,,69,0
1319,note_on,,119,0,7,,,,,,,,,,,,,,,,2,,48,0
1319,note_on,,119,0,15,,,,,,,,,,,,,,,,13,,48,0
1319,note_on,,119,0,16,,,,,,,,,,,,,,,,15,,48,0
1319,note_on,,119,0,14,,,,,,,,,,,,,,,,12,,72,0
1320,note_on,,1,0,12,,,,,,,,,,,,,,,,10,,76,72
1320,note_on,,1,0,6,,,,,,,,,,,,,,,,1,,67,72
1320,note_on,,1,0,5,,,,,,,,,,,,,,,,0,,76,72
1320,note_on,,1,0,13,,,,,,,,,,,,,,,,11,,67,72
1349,note_on,,29,0,13,,,,,,,,,,,,,,,,11,,67,0
1349,note_on,,29,0,6,,,,,,,,,,,,,,,,1,,67,0
1349,note_on,,29,0,5,,,,,,,,,,,,,,,,0,,76,0
1349,note_on,,29,0,12,,,,,,,,,,,,,,,,10,,76,0
1350,note_on,,1,0,13,,,,,,,,,,,,,,,,11,,71,72
1350,note_on,,1,0,5,,,,,,,,,,,,,,,,0,,79,72
1350,note_on,,1,0,12,,,,,,,,,,,,,,,,10,,79,72
1350,note_on,,1,0,6,,,,,,,,,,,,,,,,1,,71,72
1379,note_on,,29,0,13,,,,,,,,,,,,,,,,11,,71,0
1379,note_on,,29,0,5,,,,,,,,,,,,,,,,0,,79,0
1379,note_on,,29,0,12,,,,,,,,,,,,,,,,10,,79,0
1379,note_on,,29,0,6,,,,,,,,,,,,,,,,1,,71,0
1380,note_on,,1,0,12,,,,,,,,,,,,,,,,10,,78,72
1380,note_on,,1,0,6,,,,,,,,,,,,,,,,1,,69,72
1380,note_on,,1,0,5,,,,,,,,,,,,,,,,0,,78,72
1380,note_on,,1,0,13,,,,,,,,,,,,,,,,11,,69,72
1409,note_on,,29,0,13,,,,,,,,,,,,,,,,11,,69,0
1409,note_on,,29,0,5,,,,,,,,,,,,,,,,0,,78,0
1409,note_on,,29,0,6,,,,,,,,,,,,,,,,1,,69,0
1409,note_on,,29,0,12,,,,,,,,,,,,,,,,10,,78,0
1410,note_on,,1,0,5,,,,,,,,,,,,,,,,0,,79,72
1410,note_on,,1,0,6,,,,,,,,,,,,,,,,1,,71,72
1410,note_on,,1,0,12,,,,,,,,,,,,,,,,10,,79,72
1410,note_on,,1,0,13,,,,,,,,,,,,,,,,11,,71,72
1439,note_on,,29,0,12,,,,,,,,,,,,,,,,10,,79,0
1439,note_on,,29,0,5,,,,,,,,,,,,,,,,0,,79,0
1439,note_on,,29,0,13,,,,,,,,,,,,,,,,11,,71,0
1439,note_on,,29,0,6,,,,,,,,,,,,,,,,1,,71,0
1440,note_on,,1,0,6,,,,,,,,,,,,,,,,1,,72,72
1440,note_on,,121,0,15,,,,,,,,,,,,,,,,13,,45,72
1440,note_on,,1,0,12,,,,,,,,,,,,,,,,10,,81,72
1440,note_on,,0,0,16,,,,,,,,,,,,,,,,15,,69,72
1440,note_on,,121,0,14,,,,,,,,,,,,,,,,12,,64,72
1440,note_on,,1,0,13,,,,,,,,,,,,,,,,11,,72,72
1440,note_on,,121,0,7,,,,,,,,,,,,,,,,2,,45,72
1440,note_on,,121,0,16,,,,,,,,,,,,,,,,15,,45,72
1440,note_on,,0,0,16,,,,,,,,,,,,,,,,15,,72,72
1440,note_on,,0,0,16,,,,,,,,,,,,,,,,15,,64,72
1440,note_on,,1,0,5,,,,,,,,,,,,,,,,0,,81,72
1469,note_on,,29,0,5,,,,,,,,,,,,,,,,0,,81,0
1469,note_on,,29,0,6,,,,,,,,,,,,,,,,1,,72,0
1469,note_on,,29,0,13,,,,,,,,,,,,,,,,11,,72,0
1469,note_on,,29,0,12,,,,,,,,,,,,,,,,10,,81,0
1470,note_on,,1,0,5,,,,,,,,,,,,,,,,0,,79,72
1470,note_on,,1,0,13,,,,,,,,,,,,,,,,11,,71,72
1470,note_on,,1,0,6,,,,,,,,,,,,,,,,1,,71,72
1470,note_on,,1,0,12,,,,,,,,,,,,,,,,10,,79,72
1499,note_on,,29,0,6,,,,,,,,,,,,,,,,1,,71,0
1499,note_on,,29,0,13,,,,,,,,,,,,,,,,11,,71,0
1499,note_on,,29,0,5,,,,,,,,,,,,,,,,0,,79,0
1499,note_on,,29,0,12,,,,,,,,,,,,,,,,10,,79,0
1500,note_on,,1,0,12,,,,,,,,,,,,,,,,10,,81,72
1500,note_on,,1,0,6,,,,,,,,,,,,,,,,1,,72,72
1500,note_on,,1,0,13,,,,,,,,,,,,,,,,11,,72,72
1500,note_on,,1,0,5,,,,,,,,,,,,,,,,0,,81,72
1529,note_on,,29,0,12,,,,,,,,,,,,,,,,10,,81,0
1529,note_on,,29,0,5,,,,,,,,,,,,,,,,0,,81,0
1529,note_on,,29,0,13,,,,,,,,,,,,,,,,11,,72,0
1529,note_on,,29,0,6,,,,,,,,,,,,,,,,1,,72,0
1530,note_on,,1,0,12,,,,,,,,,,,,,,,,10,,83,72
1530,note_on,,1,0,5,,,,,,,,,,,,,,,,0,,83,72
1530,note_on,,1,0,6,,,,,,,,,,,,,,,,1,,74,72
1530,note_on,,1,0,13,,,,,,,,,,,,,,,,11,,74,72
1559,note_on,,0,0,16,,,,,,,,,,,,,,,,15,,64,0
1559,note_on,,0,0,16,,,,,,,,,,,,,,,,15,,69,0
1559,note_on,,0,0,16,,,,,,,,,,,,,,,,15,,72,0
1559,note_on,,119,0,16,,,,,,,,,,,,,,,,15,,45,0
1559,note_on,,119,0,15,,,,,,,,,,,,,,,,13,,45,0
1559,note_on,,29,0,13,,,,,,,,,,,,,,,,11,,74,0
1559,note_on,,119,0,7,,,,,,,,,,,,,,,,2,,45,0
1559,note_on,,29,0,5,,,,,,,,,,,,,,,,0,,83,0
1559,note_on,,119,0,14,,,,,,,,,,,,,,,,12,,64,0
1559,note_on,,29,0,6,,,,,,,,,,,,,,,,1,,74,0
1559,note_on,,29,0,12,,,,,,,,,,,,,,,,10,,83,0
1560,note_on,,1,0,6,,,,,,,,,,,,,,,,1,,72,72
1560,note_on,,1,0,5,,,,,,,,,,,,,,,,0,,81,72
1560,note_on,,1,0,13,,,,,,,,,,,,,,,,11,,72,72
1560,note_on,,1,0,12,,,,,,,,,,,,,,,,10,,81,72
1589,note_on,,29,0,13,,,,,,,,,,,,,,,,11,,72,0
1589,note_on,,29,0,12,,,,,,,,,,,,,,,,10,,81,0
1589,note_on,,29,0,5,,,,,,,,,,,,,,,,0,,81,0
1589,note_on,,29,0,6,,,,,,,,,,,,,,,,1,,72,0
1590,note_on,,1,0,12,,,,,,,,,,,,,,,,10,,83,72
1590,note_on,,1,0,6,,,,,,,,,,,,,,,,1,,74,72
1590,note_on,,1,0,5,,,,,,,,,,,,,,,,0,,83,72
1590,note_on,,1,0,13,,,,,,,,,,,,,,,,11,,74,72
1619,note_on,,29,0,6,,,,,,,,,,,,,,,,1,,74,0
1619,note_on,,29,0,5,,,,,,,,,,,,,,,,0,,83,0
1619,note_on,,29,0,12,,,,,,,,,,,,,,,,10,,83,0
1619,note_on,,29,0,13,,,,,,,,,,,,,,,,11,,74,0
1620,note_on,,1,0,12,,,,,,,,,,,,,,,,10,,79,72
1620,note_on,,1,0,13,,,,,,,,,,,,,,,,11,,71,72
1620,note_on,,1,0,5,,,,,,,,,,,,,,,,0,,79,72
1620,note_on,,1,0,6,,,,,,,,,,,,,,,,1,,71,72
1649,note_on,,29,0,6,,,,,,,,,,,,,,,,1,,71,0
1649,note_on,,29,0,12,,,,,,,,,,,,,,,,10,,79,0
1649,note_on,,29,0,5,,,,,,,,,,,,,,,,0,,79,0
1649,note_on,,29,0,13,,,,,,,,,,,,,,,,11,,71,0
1650,note_on,,1,0,6,,,,,,,,,,,,,,,,1,,72,72
1650,note_on,,1,0,13,,,,,,,,,,,,,,,,11,,72,72
1650,note_on,,1,0,12,,,,,,,,,,,,,,,,10,,81,72
1650,note_on,,1,0,5,,,,,,,,,,,,,,,,0,,81,72
1679,note_on,,29,0,12,,,,,,,,,,,,,,,,10,,81,0
1679,note_on,,29,0,6,,,,,,,,,,,,,,,,1,,72,0
1679,note_on,,29,0,5,,,,,,,,,,,,,,,,0,,81,0
1679,note_on,,29,0,13,,,,,,,,,,,,,,,,11,,72,0
1680,note_on,,1,0,5,,,,,,,,,,,,,,,,0,,78,72
1680,note_on,,1,0,6,,,,,,,,,,,,,,,,1,,69,72
1680,note_on,,121,0,14,,,,,,,,,,,,,,,,12,,66,72
1680,note_on,,1,0,12,,,,,,,,,,,,,,,,10,,78,72
1680,note_on,,1,0,13,,,,,,,,,,,,,,,,11,,69,72
1680,note_on,,121,0,15,,,,,,,,,,,,,,,,13,,50,72
1680,note_on,,0,0,16,,,,,,,,,,,,,,,,15,,62,72
1680,note_on,,121,0,16,,,,,,,,,,,,,,,,15,,50,72
1680,note_on,,0,0,16,,,,,,,,,,,,,,,,15,,69,72
1680,note_on,,0,0,16,,,,,,,,,,,,,,,,15,,66,72
1680,note_on,,121,0,7,,,,,,,,,,,,,,,,2,,50,72
1709,note_on,,29,0,12,,,,,,,,,,,,,,,,10,,78,0
1709,note_on,,29,0,13,,,,,,,,,,,,,,,,11,,69,0
1709,note_on,,29,0,5,,,,,,,,,,,,,,,,0,,78,0
1709,note_on,,29,0,6,,,,,,,,,,,,,,,,1,,69,0
1710,note_on,,1,0,12,,,,,,,,,,,,,,,,10,,76,72
1710,note_on,,1,0,13,,,,,,,,,,,,,,,,11,,67,72
1710,note_on,,1,0,5,,,,,,,,,,,,,,,,0,,76,72
1710,note_on,,1,0,6,,,,,,,,,,,,,,,,1,,67,72
1739,note_on,,29,0,6,,,,,,,,,,,,,,,,1,,67,0
1739,note_on,,29,0,5,,,,,,,,,,,,,,,,0,,76,0
1739,note_on,,29,0,13,,,,,,,,,,,,,,,,11,,67,0
1739,note_on,,29,0,12,,,,,,,,,,,,,,,,10,,76,0
1740,note_on,,1,0,13,,,,,,,,,,,,,,,,11,,69,72
1740,note_on,,1,0,12,,,,,,,,,,,,,,,,10,,78,72
1740,note_on,,1,0,6,,,,,,,,,,,,,,,,1,,69,72
1740,note_on,,1,0,5,,,,,,,,,,,,,,,,0,,78,72
1769,note_on,,29,0,13,,,,,,,,,,,,,,,,11,,69,0
1769,note_on,,29,0,12,,,,,,,,,,,,,,,,10,,78,0
1769,note_on,,29,0,6,,,,,,,,,,,,,,,,1,,69,0
1769,note_on,,29,0,5,,,,,,,,,,,,,,,,0,,78,0
1770,note_on,,1,0,13,,,,,,,,,,,,,,,,11,,71,72
1770,note_on,,1,0,5,,,,,,,,,,,,,,,,0,,79,72
1770,note_on,,1,0,6,,,,,,,,,,,,,,,,1,,71,72
1770,note_on,,1,0,12,,,,,,,,,,,,,,,,10,,79,72
1799,note_on,,119,0,7,,,,,,,,,,,,,,,,2,,50,0
1799,note_on,,29,0,6,,,,,,,,,,,,,,,,1,,71,0
1799,note_on,,29,0,13,,,,,,,,,,,,,,,,11,,71,0
1799,note_on,,119,0,16,,,,,,,,,,,,,,,,15,,50,0
1799,note_on,,0,0,16,,,,,,,,,,,,,,,,15,,69,0
1799,note_on,,29,0,5,,,,,,,,,,,,,,,,0,,79,0
1799,note_on,,0,0,16,,,,,,,,,,,,,,,,15,,66,0
1799,note_on,,29,0,12,,,,,,,,,,,,,,,,10,,79,0
1799,note_on,,119,0,15,,,,,,,,,,,,,,,,13,,50,0
1799,note_on,,0,0,16,,,,,,,,,,,,,,,,15,,62,0
1799,note_on,,119,0,14,,,,,,,,,,,,,,,,12,,66,0
1800,note_on,,1,0,13,,,,,,,,,,,,,,,,11,,69,72
1800,note_on,,1,0,5,,,,,,,,,,,,,,,,0,,78,72
1800,note_on,,1,0,6,,,,,,,,,,,,,,,,1,,69,72
1800,note_on,,1,0,12,,,,,,,,,,,,,,,,10,,78,72
1829,note_on,,29,0,6,,,,,,,,,,,,,,,,1,,69,0
1829,note_on,,29,0,13,,,,,,,,,,,,,,,,11,,69,0
1829,note_on,,29,0,5,,,,,,,,,,,,,,,,0,,78,0
1829,note_on,,29,0,12,,,,,,,,,,,,,,,,10,,78,0
1830,note_on,,1,0,6,,,,,,,,,,,,,,,,1,,72,72
1830,note_on,,1,0,5,,,,,,,,,,,,,,,,0,,81,72
1830,note_on,,1,0,13,,,,,,,,,,,,,,,,11,,72,72
1830,note_on,,1,0,12,,,,,,,,,,,,,,,,10,,81,72
1859,note_on,,29,0,5,,,,,,,,,,,,,,,,0,,81,0
1859,note_on,,29,0,12,,,,,,,,,,,,,,,,10,,81,0
1859,note_on,,29,0,13,,,,,,,,,,,,,,,,11,,72,0
1859,note_on,,29,0,6,,,,,,,,,,,,,,,,1,,72,0
1860,note_on,,1,0,5,,,,,,,,,,,,,,,,0,,79,72
1860,note_on,,1,0,13,,,,,,,,,,,,,,,,11,,71,72
1860,note_on,,1,0,12,,,,,,,,,,,,,,,,10,,79,72
1860,note_on,,1,0,6,,,,,,,,,,,,,,,,1,,71,72
1889,note_on,,29,0,5,,,,,,,,,,,,,,,,0,,79,0
1889,note_on,,29,0,6,,,,,,,,,,,,,,,,1,,71,0
1889,note_on,,29,0,12,,,,,,,,,,,,,,,,10,,79,0
1889,note_on,,29,0,13,,,,,,,,,,,,,,,,11,,71,0
1890,note_on,,1,0,6,,,,,,,,,,,,,,,,1,,72,72
1890,note_on,,1,0,12,,,,,,,,,,,,,,,,10,,81,72
1890,note_on,,1,0,13,,,,,,,,,,,,,,,,11,,72,72
1890,note_on,,1,0,5,,,,,,,,,,,,,,,,0,,81,72
1919,note_on,,29,0,5,,,,,,,,,,,,,,,,0,,81,0
1919,note_on,,29,0,12,,,,,,,,,,,,,,,,10,,81,0
1919,note_on,,29,0,13,,,,,,,,,,,,,,,,11,,72,0
1919,note_on,,29,0,6,,,,,,,,,,,,,,,,1,,72,0
1920,note_on,,0,0,16,,,,,,,,,,,,,,,,15,,74,72
1920,note_on,,121,0,16,,,,,,,,,,,,,,,,15,,47,72
1920,note_on,,0,0,16,,,,,,,,,,,,,,,,15,,66,72
1920,note_on,,1,0,13,,,,,,,,,,,,,,,,11,,74,72
1920,note_on,,121,0,14,,,,,,,,,,,,,,,,12,,66,72
1920,note_on,,121,0,15,,,,,,,,,,,,,,,,13,,47,72
1920,note_on,,121,0,7,,,,,,,,,,,,,,,,2,,47,72
1920,note_on,,0,0,16,,,,,,,,,,,,,,,,15,,71,72
1920,note_on,,1,0,6,,,,,,,,,,,,,,,,1,,74,72
1920,note_on,,1,0,5,,,,,,,,,,,,,,,,0,,83,72
1920,note_on,,1,0,12,,,,,,,,,,,,,,,,10,,83,72
1949,note_on,,29,0,5,,,,,,,,,,,,,,,,0,,83,0
1949,note_on,,29,0,13,,,,,,,,,,,,,,,,11,,74,0
1949,note_on,,29,0,12,,,,,,,,,,,,,,,,10,,83,0
1949,note_on,,29,0,6,,,,,,,,,,,,,,,,1,,74,0
1950,note_on,,1,0,6,,,,,,,,,,,,,,,,1,,72,72
1950,note_on,,1,0,13,,,,,,,,,,,,,,,,11,,72,72
1950,note_on,,1,0,12,,,,,,,,,,,,,,,,10,,81,72
1950,note_on,,1,0,5,,,,,,,,,,,,,,,,0,,81,72
1979,note_on,,29,0,13,,,,,,,,,,,,,,,,11,,72,0
1979,note_on,,29,0,12,,,,,,,,,,,,,,,,10,,81,0
1979,note_on,,29,0,5,,,,,,,,,,,,,,,,0,,81,0
1979,note_on,,29,0,6,,,,,,,,,,,,,,,,1,,72,0
1980,note_on,,1,0,13,,,,,,,,,,,,,,,,11,,74,72
1980,note_on,,1,0,5,,,,,,,,,,,,,,,,0,,83,72
1980,note_on,,1,0,6,,,,,,,,,,,,,,,,1,,74,72
1980,note_on,,1,0,12,,,,,,,,,,,,,,,,10,,83,72
2009,note_on,,29,0,12,,,,,,,,,,,,,,,,10,,83,0
2009,note_on,,29,0,13,,,,,,,,,,,,,,,,11,,74,0
2009,note_on,,29,0,6,,,,,,,,,,,,,,,,1,,74,0
2009,note_on,,29,0,5,,,,,,,,,,,,,,,,0,,83,0
2010,note_on,,1,0,5,,,,,,,,,,,,,,,,0,,84,72
2010,note_on,,1,0,6,,,,,,,,,,,,,,,,1,,76,72
2010,note_on,,1,0,12,,,,,,,,,,,,,,,,10,,84,72
2010,note_on,,1,0,13,,,,,,,,,,,,,,,,11,,76,72
2039,note_on,,29,0,5,,,,,,,,,,,,,,,,0,,84,0
2039,note_on,,29,0,12,,,,,,,,,,,,,,,,10,,84,0
2039,note_on,,29,0,6,,,,,,,,,,,,,,,,1,,76,0
2039,note_on,,0,0,16,,,,,,,,,,,,,,,,15,,66,0
2039,note_on,,0,0,16,,,,,,,,,,,,,,,,15,,71,0
2039,note_on,,0,0,16,,,,,,,,,,,,,,,,15,,74,0
2039,note_on,,119,0,16,,,,,,,,,,,,,,,,15,,47,0
2039,note_on,,119,0,14,,,,,,,,,,,,,,,,12,,66,0
2039,note_on,,119,0,15,,,,,,,,,,,,,,,,13,,47,0
2039,note_on,,29,0,13,,,,,,,,,,,,,,,,11,,76,0
2039,note_on,,119,0,7,,,,,,,,,,,,,,,,2,,47,0
2040,note_on,,1,0,12,,,,,,,,,,,,,,,,10,,83,72
2040,note_on,,1,0,6,,,,,,,,,,,,,,,,1,,74,72
2040,note_on,,1,0,5,,,,,,,,,,,,,,,,0,,83,72
2040,note_on,,1,0,13,,,,,,,,,,,,,,,,11,,74,72
2069,note_on,,29,0,13,,,,,,,,,,,,,,,,11,,74,0
2069,note_on,,29,0,5,,,,,,,,,,,,,,,,0,,83,0
2069,note_on,,29,0,6,,,,,,,,,,,,,,,,1,,74,0
2069,note_on,,29,0,12,,,,,,,,,,,,,,,,10,,83,0
2070,note_on,,1,0,5,,,,,,,,,,,,,,,,0,,84,72
2070,note_on,,1,0,12,,,,,,,,,,,,,,,,10,,84,72
2070,note_on,,1,0,13,,,,,,,,,,,,,,,,11,,76,72
2070,note_on,,1,0,6,,,,,,,,,,,,,,,,1,,76,72
2099,note_on,,29,0,5,,,,,,,,,,,,,,,,0,,84,0
2099,note_on,,29,0,6,,,,,,,,,,,,,,,,1,,76,0
2099,note_on,,29,0,12,,,,,,,,,,,,,,,,10,,84,0
2099,note_on,,29,0,13,,,,,,,,,,,,,,,,11,,76,0
2100,note_on,,1,0,6,,,,,,,,,,,,,,,,1,,72,72
2100,note_on,,1,0,12,,,,,,,,,,,,,,,,10,,81,72
2100,note_on,,1,0,5,,,,,,,,,,,,,,,,0,,81,72
2100,note_on,,1,0,13,,,,,,,,,,,,,,,,11,,72,72
2129,note_on,,29,0,5,,,,,,,,,,,,,,,,0,,81,0
2129,note_on,,29,0,6,,,,,,,,,,,,,,,,1,,72,0
2129,note_on,,29,0,13,,,,,,,,,,,,,,,,11,,72,0
2129,note_on,,29,0,12,,,,,,,,,,,,,,,,10,,81,0
2130,note_on,,1,0,5,,,,,,,,,,,,,,,,0,,83,72
2130,note_on,,1,0,13,,,,,,,,,,,,,,,,11,,74,72
2130,note_on,,1,0,6,,,,,,,,,,,,,,,,1,,74,72
2130,note_on,,1,0,12,,,,,,,,,,,,,,,,10,,83,72
2159,note_on,,29,0,5,,,,,,,,,,,,,,,,0,,83,0
2159,note_on,,29,0,12,,,,,,,,,,,,,,,,10,,83,0
2159,note_on,,29,0,6,,,,,,,,,,,,,,,,1,,74,0
2159,note_on,,29,0,13,,,,,,,,,,,,,,,,11,,74,0
2160,note_on,,1,0,5,,,,,,,,,,,,,,,,0,,79,72
2160,note_on,,0,0,16,,,,,,,,,,,,,,,,15,,71,72
2160,note_on,,121,0,16,,,,,,,,,,,,,,,,15,,52,72
2160,note_on,,0,0,16,,,,,,,,,,,,,,,,15,,67,72
2160,note_on,,121,0,15,,,,,,,,,,,,,,,,13,,52,72
2160,note_on,,121,0,14,,,,,,,,,,,,,,,,12,,67,72
2160,note_on,,1,0,12,,,,,,,,,,,,,,,,10,,79,72
2160,note_on,,1,0,6,,,,,,,,,,,,,,,,1,,71,72
2160,note_on,,1,0,13,,,,,,,,,,,,,,,,11,,71,72
2160,note_on,,0,0,16,,,,,,,,,,,,,,,,15,,64,72
2160,note_on,,121,0,7,,,,,,,,,,,,,,,,2,,52,72
2219,note_on,,59,0,5,,,,,,,,,,,,,,,,0,,79,0
2219,note_on,,59,0,12,,,,,,,,,,,,,,,,10,,79,0
2219,note_on,,59,0,13,,,,,,,,,,,,,,,,11,,71,0
2219,note_on,,59,0,6,,,,,,,,,,,,,,,,1,,71,0
2220,note_on,,1,0,12,,,,,,,,,,,,,,,,10,,76,72
2220,note_on,,1,0,13,,,,,,,,,,,,,,,,11,,67,72
2220,note_on,,1,0,6,,,,,,,,,,,,,,,,1,,67,72
2220,note_on,,1,0,5,,,,,,,,,,,,,,,,0,,76,72
2279,note_on,,119,0,15,,,,,,,,,,,,,,,,13,,52,0
2279,note_on,,59,0,13,,,,,,,,,,,,,,,,11,,67,0
2279,note_on,,59,0,6,,,,,,,,,,,,,,,,1,,67,0
2279,note_on,,119,0,7,,,,,,,,,,,,,,,,2,,52,0
2279,note_on,,119,0,16,,,,,,,,,,,,,,,,15,,52,0
2279,note_on,,0,0,16,,,,,,,,,,,,,,,,15,,71,0
2279,note_on,,0,0,16,,,,,,,,,,,,,,,,15,,67,0
2279,note_on,,0,0,16,,,,,,,,,,,,,,,,15,,64,0
2279,note_on,,119,0,14,,,,,,,,,,,,,,,,12,,67,0
2280,note_on,,0,0,16,,,,,,,,,,,,,,,,15,,72,72
2280,note_on,,1,0,16,,,,,,,,,,,,,,,,15,,48,72
2280,note_on,,0,0,16,,,,,,,,,,,,,,,,15,,64,72
2280,note_on,,1,0,15,,,,,,,,,,,,,,,,13,,48,72
2280,note_on,,1,0,13,,,,,,,,,,,,,,,,11,,72,72
2280,note_on,,0,0,16,,,,,,,,,,,,,,,,15,,69,72
2280,note_on,,1,0,7,,,,,,,,,,,,,,,,2,,48,72
2280,note_on,,1,0,6,,,,,,,,,,,,,,,,1,,72,72
2280,note_on,,1,0,14,,,,,,,,,,,,,,,,12,,69,72
2339,note_on,,59,0,15,,,,,,,,,,,,,,,,13,,48,0
2339,note_on,,119,0,12,,,,,,,,,,,,,,,,10,,76,0
2339,note_on,,119,0,5,,,,,,,,,,,,,,,,0,,76,0
2339,note_on,,59,0,7,,,,,,,,,,,,,,,,2,,48,0
2339,note_on,,59,0,16,,,,,,,,,,,,,,,,15,,48,0
2340,note_on,,1,0,5,,,,,,,,,,,,,,,,0,,81,72
2340,note_on,,1,0,16,,,,,,,,,,,,,,,,15,,45,72
2340,note_on,,1,0,7,,,,,,,,,,,,,,,,2,,45,72
2340,note_on,,1,0,12,,,,,,,,,,,,,,,,10,,81,72
2340,note_on,,1,0,15,,,,,,,,,,,,,,,,13,,45,72
2399,note_on,,59,0,7,,,,,,,,,,,,,,,,2,,45,0
2399,note_on,,59,0,16,,,,,,,,,,,,,,,,15,,72,0
2399,note_on,,59,0,12,,,,,,,,,,,,,,,,10,,81,0
2399,note_on,,59,0,5,,,,,,,,,,,,,,,,0,,81,0
2399,note_on,,0,0,16,,,,,,,,,,,,,,,,15,,45,0
2399,note_on,,119,0,14,,,,,,,,,,,,,,,,12,,69,0
2399,note_on,,0,0,16,,,,,,,,,,,,,,,,15,,64,0
2399,note_on,,0,0,16,,,,,,,,,,,,,,,,15,,69,0
2399,note_on,,59,0,15,,,,,,,,,,,,,,,,13,,45,0
2400,note_on,,1,0,12,,,,,,,,,,,,,,,,10,,78,72
2400,note_on,,1,0,5,,,,,,,,,,,,,,,,0,,78,72
2400,note_on,,1,0,15,,,,,,,,,,,,,,,,13,,50,72
2400,note_on,,0,0,16,,,,,,,,,,,,,,,,15,,66,72
2400,note_on,,1,0,7,,,,,,,,,,,,,,,,2,,50,72
2400,note_on,,1,0,14,,,,,,,,,,,,,,,,12,,69,72
2400,note_on,,0,0,16,,,,,,,,,,,,,,,,15,,69,72
2400,note_on,,1,0,16,,,,,,,,,,,,,,,,15,,50,72
2400,note_on,,0,0,16,,,,,,,,,,,,,,,,15,,62,72
2459,note_on,,59,0,16,,,,,,,,,,,,,,,,15,,50,0
2459,note_on,,59,0,15,,,,,,,,,,,,,,,,13,,50,0
2459,note_on,,0,0,16,,,,,,,,,,,,,,,,15,,69,0
2459,note_on,,0,0,16,,,,,,,,,,,,,,,,15,,66,0
2459,note_on,,59,0,7,,,,,,,,,,,,,,,,2,,50,0
2459,note_on,,59,0,14,,,,,,,,,,,,,,,,12,,69,0
2459,note_on,,179,0,13,,,,,,,,,,,,,,,,11,,72,0
2459,note_on,,179,0,6,,,,,,,,,,,,,,,,1,,72,0
2459,note_on,,59,0,12,,,,,,,,,,,,,,,,10,,78,0
2459,note_on,,59,0,5,,,,,,,,,,,,,,,,0,,78,0
2459,note_on,,0,0,16,,,,,,,,,,,,,,,,15,,62,0
2460,note_on,,1,0,6,,,,,,,,,,,,,,,,1,,74,72
2460,note_on,,1,0,7,,,,,,,,,,,,,,,,2,,47,72
2460,note_on,,0,0,16,,,,,,,,,,,,,,,,15,,74,72
2460,note_on,,1,0,5,,,,,,,,,,,,,,,,0,,74,72
2460,note_on,,1,0,14,,,,,,,,,,,,,,,,12,,71,72
2460,note_on,,1,0,16,,,,,,,,,,,,,,,,15,,47,72
2460,note_on,,1,0,15,,,,,,,,,,,,,,,,13,,47,72
2460,note_on,,1,0,13,,,,,,,,,,,,,,,,11,,74,72
2460,note_on,,1,0,12,,,,,,,,,,,,,,,,10,,74,72
2460,note_on,,0,0,16,,,,,,,,,,,,,,,,15,,71,72
2460,note_on,,0,0,16,,,,,,,,,,,,,,,,15,,66,72
2519,note_on,,59,0,15,,,,,,,,,,,,,,,,13,,47,0
2519,note_on,,59,0,13,,,,,,,,,,,,,,,,11,,74,0
2519,note_on,,0,0,16,,,,,,,,,,,,,,,,15,,71,0
2519,note_on,,59,0,14,,,,,,,,,,,,,,,,12,,71,0
2519,note_on,,0,0,16,,,,,,,,,,,,,,,,15,,66,0
2519,note_on,,0,0,16,,,,,,,,,,,,,,,,15,,74,0
2519,note_on,,59,0,7,,,,,,,,,,,,,,,,2,,47,0
2519,note_on,,59,0,16,,,,,,,,,,,,,,,,15,,47,0
2519,note_on,,59,0,12,,,,,,,,,,,,,,,,10,,74,0
2519,note_on,,59,0,5,,,,,,,,,,,,,,,,0,,74,0
2519,note_on,,59,0,6,,,,,,,,,,,,,,,,1,,74,0
2520,note_on,,1,0,6,,,,,,,,,,,,,,,,1,,71,72
2520,note_on,,1,0,16,,,,,,,,,,,,,,,,15,,52,72
2520,note_on,,1,0,12,,,,,,,,,,,,,,,,10,,79,72
2520,note_on,,1,0,7,,,,,,,,,,,,,,,,2,,52,72
2520,note_on,,1,0,15,,,,,,,,,,,,,,,,13,,52,72
2520,note_on,,1,0,13,,,,,,,,,,,,,,,,11,,71,72
2520,note_on,,1,0,14,,,,,,,,,,,,,,,,12,,67,72
2520,note_on,,0,0,16,,,,,,,,,,,,,,,,15,,64,72
2520,note_on,,0,0,16,,,,,,,,,,,,,,,,15,,67,72
2520,note_on,,1,0,5,,,,,,,,,,,,,,,,0,,79,72
2520,note_on,,0,0,16,,,,,,,,,,,,,,,,15,,71,72
2579,note_on,,59,0,13,,,,,,,,,,,,,,,,11,,71,0
2579,note_on,,59,0,6,,,,,,,,,,,,,,,,1,,71,0
2579,note_on,,59,0,16,,,,,,,,,,,,,,,,15,,52,0
2579,note_on,,0,0,16,,,,,,,,,,,,,,,,15,,67,0
2579,note_on,,0,0,16,,,,,,,,,,,,,,,,15,,64,0
2579,note_on,,0,0,16,,,,,,,,,,,,,,,,15,,71,0
2579,note_on,,59,0,7,,,,,,,,,,,,,,,,2,,52,0
2579,note_on,,59,0,14,,,,,,,,,,,,,,,,12,,67,0
2579,note_on,,59,0,15,,,,,,,,,,,,,,,,13,,52,0
2580,note_on,,1,0,16,,,,,,,,,,,,,,,,15,,48,72
2580,note_on,,0,0,16,,,,,,,,,,,,,,,,15,,76,72
2580,note_on,,0,0,16,,,,,,,,,,,,,,,,15,,69,72
2580,note_on,,1,0,13,,,,,,,,,,,,,,,,11,,69,72
2580,note_on,,1,0,15,,,,,,,,,,,,,,,,13,,48,72
2580,note_on,,1,0,7,,,,,,,,,,,,,,,,2,,48,72
2580,note_on,,1,0,6,,,,,,,,,,,,,,,,1,,69,72
2580,note_on,,1,0,14,,,,,,,,,,,,,,,,12,,64,72
2580,note_on,,0,0,16,,,,,,,,,,,,,,,,15,,67,72
2639,note_on,,59,0,13,,,,,,,,,,,,,,,,11,,69,0
2639,note_on,,59,0,16,,,,,,,,,,,,,,,,15,,48,0
2639,note_on,,0,0,16,,,,,,,,,,,,,,,,15,,76,0
2639,note_on,,0,0,16,,,,,,,,,,,,,,,,15,,69,0
2639,note_on,,0,0,16,,,,,,,,,,,,,,,,15,,67,0
2639,note_on,,59,0,15,,,,,,,,,,,,,,,,13,,48,0
2639,note_on,,59,0,7,,,,,,,,,,,,,,,,2,,48,0
2639,note_on,,59,0,14,,,,,,,,,,,,,,,,12,,64,0
2639,note_on,,59,0,6,,,,,,,,,,,,,,,,1,,69,0
2640,note_on,,1,0,14,,,,,,,,,,,,,,,,12,,62,72
2640,note_on,,1,0,13,,,,,,,,,,,,,,,,11,,71,72
2640,note_on,,1,0,6,,,,,,,,,,,,,,,,1,,71,72
2640,note_on,,1,0,7,,,,,,,,,,,,,,,,2,,50,72
2640,note_on,,1,0,15,,,,,,,,,,,,,,,,13,,50,72
2640,note_on,,0,0,16,,,,,,,,,,,,,,,,15,,62,72
2640,note_on,,0,0,16,,,,,,,,,,,,,,,,15,,67,72
2640,note_on,,0,0,16,,,,,,,,,,,,,,,,15,,71,72
2640,note_on,,1,0,16,,,,,,,,,,,,,,,,15,,50,72
2699,note_on,,59,0,15,,,,,,,,,,,,,,,,13,,50,0
2699,note_on,,179,0,5,,,,,,,,,,,,,,,,0,,79,0
2699,note_on,,59,0,16,,,,,,,,,,,,,,,,15,,50,0
2699,note_on,,59,0,7,,,,,,,,,,,,,,,,2,,50,0
2699,note_on,,179,0,12,,,,,,,,,,,,,,,,10,,79,0
2700,note_on,,1,0,15,,,,,,,,,,,,,,,,13,,48,72
2700,note_on,,1,0,16,,,,,,,,,,,,,,,,15,,48,72
2700,note_on,,1,0,5,,,,,,,,,,,,,,,,0,,81,72
2700,note_on,,1,0,7,,,,,,,,,,,,,,,,2,,48,72
2700,note_on,,1,0,12,,,,,,,,,,,,,,,,10,,81,72
2759,note_on,,59,0,15,,,,,,,,,,,,,,,,13,,48,0
2759,note_on,,59,0,5,,,,,,,,,,,,,,,,0,,81,0
2759,note_on,,59,0,12,,,,,,,,,,,,,,,,10,,81,0
2759,note_on,,119,0,6,,,,,,,,,,,,,,,,1,,71,0
2759,note_on,,0,0,16,,,,,,,,,,,,,,,,15,,48,0
2759,note_on,,59,0,16,,,,,,,,,,,,,,,,15,,71,0
2759,note_on,,59,0,7,,,,,,,,,,,,,,,,2,,48,0
2759,note_on,,0,0,16,,,,,,,,,,,,,,,,15,,67,0
2759,note_on,,119,0,13,,,,,,,,,,,,,,,,11,,71,0
2760,note_on,,1,0,6,,,,,,,,,,,,,,,,1,,69,72
2760,note_on,,0,0,16,,,,,,,,,,,,,,,,15,,66,72
2760,note_on,,1,0,16,,,,,,,,,,,,,,,,15,,50,72
2760,note_on,,1,0,13,,,,,,,,,,,,,,,,11,,69,72
2760,note_on,,1,0,5,,,,,,,,,,,,,,,,0,,78,72
2760,note_on,,1,0,7,,,,,,,,,,,,,,,,2,,50,72
2760,note_on,,1,0,12,,,,,,,,,,,,,,,,10,,78,72
2760,note_on,,0,0,16,,,,,,,,,,,,,,,,15,,69,72
2760,note_on,,1,0,15,,,,,,,,,,,,,,,,13,,50,72
2774,note_on,,14,0,6,,,,,,,,,,,,,,,,1,,69,0
2774,note_on,,14,0,5,,,,,,,,,,,,,,,,0,,78,0
2774,note_on,,14,0,13,,,,,,,,,,,,,,,,11,,69,0
2774,note_on,,14,0,12,,,,,,,,,,,,,,,,10,,78,0
2775,note_on,,1,0,13,,,,,,,,,,,,,,,,11,,71,72
2775,note_on,,1,0,5,,,,,,,,,,,,,,,,0,,79,72
2775,note_on,,1,0,12,,,,,,,,,,,,,,,,10,,79,72
2775,note_on,,1,0,6,,,,,,,,,,,,,,,,1,,71,72
2789,note_on,,14,0,13,,,,,,,,,,,,,,,,11,,71,0
2789,note_on,,14,0,5,,,,,,,,,,,,,,,,0,,79,0
2789,note_on,,14,0,12,,,,,,,,,,,,,,,,10,,79,0
2789,note_on,,14,0,6,,,,,,,,,,,,,,,,1,,71,0
2790,note_on,,1,0,6,,,,,,,,,,,,,,,,1,,69,72
2790,note_on,,1,0,5,,,,,,,,,,,,,,,,0,,78,72
2790,note_on,,1,0,13,,,,,,,,,,,,,,,,11,,69,72
2790,note_on,,1,0,12,,,,,,,,,,,,,,,,10,,78,72
2804,note_on,,14,0,13,,,,,,,,,,,,,,,,11,,69,0
2804,note_on,,14,0,12,,,,,,,,,,,,,,,,10,,78,0
2804,note_on,,14,0,6,,,,,,,,,,,,,,,,1,,69,0
2804,note_on,,14,0,5,,,,,,,,,,,,,,,,0,,78,0
2805,note_on,,1,0,6,,,,,,,,,,,,,,,,1,,71,72
2805,note_on,,1,0,12,,,,,,,,,,,,,,,,10,,79,72
2805,note_on,,1,0,5,,,,,,,,,,,,,,,,0,,79,72
2805,note_on,,1,0,13,,,,,,,,,,,,,,,,11,,71,72
2819,note_on,,59,0,15,,,,,,,,,,,,,,,,13,,50,0
2819,note_on,,14,0,12,,,,,,,,,,,,,,,,10,,79,0
2819,note_on,,59,0,16,,,,,,,,,,,,,,,,15,,62,0
2819,note_on,,0,0,16,,,,,,,,,,,,,,,,15,,50,0
2819,note_on,,14,0,5,,,,,,,,,,,,,,,,0,,79,0
2819,note_on,,59,0,7,,,,,,,,,,,,,,,,2,,50,0
2819,note_on,,14,0,6,,,,,,,,,,,,,,,,1,,71,0
2819,note_on,,14,0,13,,,,,,,,,,,,,,,,11,,71,0
2819,note_on,,179,0,14,,,,,,,,,,,,,,,,12,,62,0
2820,note_on,,1,0,12,,,,,,,,,,,,,,,,10,,76,72
2820,note_on,,1,0,6,,,,,,,,,,,,,,,,1,,67,72
2820,note_on,,1,0,14,,,,,,,,,,,,,,,,12,,72,72
2820,note_on,,0,0,16,,,,,,,,,,,,,,,,15,,60,72
2820,note_on,,1,0,7,,,,,,,,,,,,,,,,2,,38,72
2820,note_on,,1,0,5,,,,,,,,,,,,,,,,0,,76,72
2820,note_on,,1,0,13,,,,,,,,,,,,,,,,11,,67,72
2820,note_on,,1,0,15,,,,,,,,,,,,,,,,13,,38,72
2820,note_on,,1,0,16,,,,,,,,,,,,,,,,15,,38,72
2834,note_on,,14,0,12,,,,,,,,,,,,,,,,10,,76,0
2834,note_on,,14,0,6,,,,,,,,,,,,,,,,1,,67,0
2834,note_on,,14,0,5,,,,,,,,,,,,,,,,0,,76,0
2834,note_on,,14,0,13,,,,,,,,,,,,,,,,11,,67,0
2835,note_on,,1,0,13,,,,,,,,,,,,,,,,11,,69,72
2835,note_on,,1,0,5,,,,,,,,,,,,,,,,0,,78,72
2835,note_on,,1,0,6,,,,,,,,,,,,,,,,1,,69,72
2835,note_on,,1,0,12,,,,,,,,,,,,,,,,10,,78,72
2849,note_on,,14,0,6,,,,,,,,,,,,,,,,1,,69,0
2849,note_on,,14,0,13,,,,,,,,,,,,,,,,11,,69,0
2849,note_on,,14,0,5,,,,,,,,,,,,,,,,0,,78,0
2849,note_on,,14,0,12,,,,,,,,,,,,,,,,10,,78,0
2850,note_on,,1,0,13,,,,,,,,,,,,,,,,11,,67,72
2850,note_on,,1,0,6,,,,,,,,,,,,,,,,1,,67,72
2850,note_on,,1,0,12,,,,,,,,,,,,,,,,10,,79,72
2850,note_on,,1,0,5,,,,,,,,,,,,,,,,0,,79,72
2879,note_on,,29,0,6,,,,,,,,,,,,,,,,1,,67,0
2879,note_on,,29,0,13,,,,,,,,,,,,,,,,11,,67,0
2879,note_on,,59,0,16,,,,,,,,,,,,,,,,15,,69,0
2879,note_on,,59,0,7,,,,,,,,,,,,,,,,2,,38,0
2879,note_on,,29,0,5,,,,,,,,,,,,,,,,0,,79,0
2879,note_on,,59,0,15,,,,,,,,,,,,,,,,13,,38,0
2879,note_on,,59,0,14,,,,,,,,,,,,,,,,12,,72,0
2879,note_on,,0,0,16,,,,,,,,,,,,,,,,15,,66,0
2879,note_on,,0,0,16,,,,,,,,,,,,,,,,15,,60,0
2879,note_on,,0,0,16,,,,,,,,,,,,,,,,15,,38,0
2879,note_on,,29,0,12,,,,,,,,,,,,,,,,10,,79,0
2880,note_on,,1,0,16,,,,,,,,,,,,,,,,15,,55,48
2880,note_on,,1,0,14,,,,,,,,,,,,,,,,12,,71,48
2880,note_on,,0,0,16,,,,,,,,,,,,,,,,15,,62,48
2880,note_on,,0,0,16,,,,,,,,,,,,,,,,15,,59,48
2880,note_on,,1,0,6,,,,,,,,,,,,,,,,1,,67,48
2880,note_on,,2880,0,8,,,,,,,,,,,,,,,,5,,74,58
2880,note_on,,0,0,16,,,,,,,,,,,,,,,,15,,67,48
2880,note_on,,1,0,12,,,,,,,,,,,,,,,,10,,79,48
2880,note_on,,1,0,5,,,,,,,,,,,,,,,,0,,79,48
2880,note_on,,1,0,15,,,,,,,,,,,,,,,,13,,55,48
2880,note_on,,1,0,7,,,,,,,,,,,,,,,,2,,55,48
2880,note_on,,1,0,13,,,,,,,,,,,,,,,,11,,67,48
2939,note_on,,59,0,5,,,,,,,,,,,,,,,,0,,79,0
2939,note_on,,0,0,16,,,,,,,,,,,,,,,,15,,59,0
2939,note_on,,59,0,16,,,,,,,,,,,,,,,,15,,55,0
2939,note_on,,59,0,7,,,,,,,,,,,,,,,,2,,55,0
2939,note_on,,59,0,15,,,,,,,,,,,,,,,,13,,55,0
2940,note_on,,0,0,16,,,,,,,,,,,,,,,,15,,60,48
2940,note_on,,1,0,15,,,,,,,,,,,,,,,,13,,57,48
2940,note_on,,1,0,16,,,,,,,,,,,,,,,,15,,57,48
2940,note_on,,1,0,5,,,,,,,,,,,,,,,,0,,74,48
2940,note_on,,1,0,7,,,,,,,,,,,,,,,,2,,57,48
2999,note_on,,119,0,13,,,,,,,,,,,,,,,,11,,67,0
2999,note_on,,119,0,8,,,,,,,,,,,,,,,,5,,74,0
2999,note_on,,59,0,15,,,,,,,,,,,,,,,,13,,57,0
2999,note_on,,119,0,6,,,,,,,,,,,,,,,,1,,67,0
2999,note_on,,119,0,14,,,,,,,,,,,,,,,,12,,71,0
2999,note_on,,59,0,7,,,,,,,,,,,,,,,,2,,57,0
2999,note_on,,119,0,12,,,,,,,,,,,,,,,,10,,79,0
2999,note_on,,59,0,16,,,,,,,,,,,,,,,,15,,57,0
2999,note_on,,0,0,16,,,,,,,,,,,,,,,,15,,60,0
2999,note_on,,59,0,5,,,,,,,,,,,,,,,,0,,74,0
3000,note_on,,0,0,16,,,,,,,,,,,,,,,,15,,62,48
3000,note_on,,1,0,15,,,,,,,,,,,,,,,,13,,59,48
3000,note_on,,1,0,8,,,,,,,,,,,,,,,,5,,67,58
3000,note_on,,1,0,7,,,,,,,,,,,,,,,,2,,59,48
3000,note_on,,1,0,16,,,,,,,,,,,,,,,,15,,59,48
3000,note_on,,1,0,6,,,,,,,,,,,,,,,,1,,67,48
3000,note_on,,1,0,5,,,,,,,,,,,,,,,,0,,71,48
3059,note_on,,59,0,7,,,,,,,,,,,,,,,,2,,59,0
3059,note_on,,59,0,6,,,,,,,,,,,,,,,,1,,67,0
3059,note_on,,59,0,16,,,,,,,,,,,,,,,,15,,67,0
3059,note_on,,0,0,16,,,,,,,,,,,,,,,,15,,62,0
3059,note_on,,0,0,16,,,,,,,,,,,,,,,,15,,62,0
3059,note_on,,0,0,16,,,,,,,,,,,,,,,,15,,59,0
3059,note_on,,59,0,15,,,,,,,,,,,,,,,,13,,59,0
3059,note_on,,59,0,5,,,,,,,,,,,,,,,,0,,71,0
3059,note_on,,59,0,8,,,,,,,,,,,,,,,,5,,67,0
3060,note_on,,1,0,8,,,,,,,,,,,,,,,,5,,67,58
3060,note_on,,1,0,15,,,,,,,,,,,,,,,,13,,47,48
3060,note_on,,0,0,16,,,,,,,,,,,,,,,,15,,55,48
3060,note_on,,0,0,16,,,,,,,,,,,,,,,,15,,62,48
3060,note_on,,0,0,16,,,,,,,,,,,,,,,,15,,67,48
3060,note_on,,1,0,5,,,,,,,,,,,,,,,,0,,71,48
3060,note_on,,1,0,16,,,,,,,,,,,,,,,,15,,47,48
3060,note_on,,1,0,7,,,,,,,,,,,,,,,,2,,47,48
3060,note_on,,1,0,6,,,,,,,,,,,,,,,,1,,67,48
3119,note_on,,59,0,5,,,,,,,,,,,,,,,,0,,71,0
3119,note_on,,0,0,16,,,,,,,,,,,,,,,,15,,62,0
3119,note_on,,0,0,16,,,,,,,,,,,,,,,,15,,55,0
3119,note_on,,0,0,16,,,,,,,,,,,,,,,,15,,67,0
3119,note_on,,59,0,16,,,,,,,,,,,,,,,,15,,47,0
3119,note_on,,59,0,15,,,,,,,,,,,,,,,,13,,47,0
3119,note_on,,59,0,6,,,,,,,,,,,,,,,,1,,67,0
3119,note_on,,59,0,7,,,,,,,,,,,,,,,,2,,47,0
3119,note_on,,59,0,8,,,,,,,,,,,,,,,,5,,67,0
3120,note_on,,1,0,15,,,,,,,,,,,,,,,,13,,45,48
3120,note_on,,1,0,16,,,,,,,,,,,,,,,,15,,45,48
3120,note_on,,1,0,7,,,,,,,,,,,,,,,,2,,45,48
3120,note_on,,1,0,5,,,,,,,,,,,,,,,,0,,72,47
3120,note_on,,0,0,16,,,,,,,,,,,,,,,,15,,67,48
3120,note_on,,0,0,16,,,,,,,,,,,,,,,,15,,60,48
3120,note_on,,1,0,6,,,,,,,,,,,,,,,,1,,72,47
3120,note_on,,1,0,8,,,,,,,,,,,,,,,,5,,72,58
3179,note_on,,59,0,16,,,,,,,,,,,,,,,,15,,45,0
3179,note_on,,59,0,5,,,,,,,,,,,,,,,,0,,72,0
3179,note_on,,59,0,7,,,,,,,,,,,,,,,,2,,45,0
3179,note_on,,59,0,6,,,,,,,,,,,,,,,,1,,72,0
3179,note_on,,59,0,15,,,,,,,,,,,,,,,,13,,45,0
3179,note_on,,59,0,8,,,,,,,,,,,,,,,,5,,72,0
3180,note_on,,1,0,6,,,,,,,,,,,,,,,,1,,72,47
3180,note_on,,1,0,5,,,,,,,,,,,,,,,,0,,72,47
3180,note_on,,1,0,16,,,,,,,,,,,,,,,,15,,55,48
3180,note_on,,1,0,15,,,,,,,,,,,,,,,,13,,55,48
3180,note_on,,1,0,8,,,,,,,,,,,,,,,,5,,72,58
3180,note_on,,1,0,7,,,,,,,,,,,,,,,,2,,55,48
3239,note_on,,59,0,5,,,,,,,,,,,,,,,,0,,72,0
3239,note_on,,0,0,16,,,,,,,,,,,,,,,,15,,55,0
3239,note_on,,0,0,16,,,,,,,,,,,,,,,,15,,60,0
3239,note_on,,59,0,6,,,,,,,,,,,,,,,,1,,72,0
3239,note_on,,59,0,15,,,,,,,,,,,,,,,,13,,55,0
3239,note_on,,59,0,8,,,,,,,,,,,,,,,,5,,72,0
3239,note_on,,59,0,7,,,,,,,,,,,,,,,,2,,55,0
3239,note_on,,59,0,16,,,,,,,,,,,,,,,,15,,67,0
3240,note_on,,1,0,7,,,,,,,,,,,,,,,,2,,54,48
3240,note_on,,1,0,5,,,,,,,,,,,,,,,,0,,72,47
3240,note_on,,1,0,15,,,,,,,,,,,,,,,,13,,54,48
3240,note_on,,1,0,6,,,,,,,,,,,,,,,,1,,72,47
3240,note_on,,1,0,8,,,,,,,,,,,,,,,,5,,72,58
3240,note_on,,0,0,16,,,,,,,,,,,,,,,,15,,57,48
3240,note_on,,0,0,16,,,,,,,,,,,,,,,,15,,62,48
3240,note_on,,1,0,16,,,,,,,,,,,,,,,,15,,54,48
3299,note_on,,0,0,16,,,,,,,,,,,,,,,,15,,62,0
3299,note_on,,59,0,16,,,,,,,,,,,,,,,,15,,54,0
3299,note_on,,59,0,7,,,,,,,,,,,,,,,,2,,54,0
3299,note_on,,59,0,6,,,,,,,,,,,,,,,,1,,72,0
3299,note_on,,59,0,5,,,,,,,,,,,,,,,,0,,72,0
3299,note_on,,59,0,8,,,,,,,,,,,,,,,,5,,72,0
3299,note_on,,59,0,15,,,,,,,,,,,,,,,,13,,54,0
3299,note_on,,0,0,16,,,,,,,,,,,,,,,,15,,57,0
3300,note_on,,0,0,16,,,,,,,,,,,,,,,,15,,66,48
3300,note_on,,1,0,6,,,,,,,,,,,,,,,,1,,72,47
3300,note_on,,1,0,15,,,,,,,,,,,,,,,,13,,50,48
3300,note_on,,1,0,16,,,,,,,,,,,,,,,,15,,50,48
3300,note_on,,1,0,8,,,,,,,,,,,,,,,,5,,72,58
3300,note_on,,0,0,16,,,,,,,,,,,,,,,,15,,57,48
3300,note_on,,1,0,5,,,,,,,,,,,,,,,,0,,72,47
3300,note_on,,1,0,7,,,,,,,,,,,,,,,,2,,50,48
3300,note_on,,0,0,16,,,,,,,,,,,,,,,,15,,62,48
3359,note_on,,59,0,8,,,,,,,,,,,,,,,,5,,72,0
3359,note_on,,0,0,16,,,,,,,,,,,,,,,,15,,66,0
3359,note_on,,59,0,7,,,,,,,,,,,,,,,,2,,50,0
3359,note_on,,59,0,5,,,,,,,,,,,,,,,,0,,72,0
3359,note_on,,0,0,16,,,,,,,,,,,,,,,,15,,62,0
3359,note_on,,0,0,16,,,,,,,,,,,,,,,,15,,57,0
3359,note_on,,59,0,15,,,,,,,,,,,,,,,,13,,50,0
3359,note_on,,59,0,16,,,,,,,,,,,,,,,,15,,50,0
3359,note_on,,59,0,6,,,,,,,,,,,,,,,,1,,72,0
3360,note_on,,1,0,16,,,,,,,,,,,,,,,,15,,55,48
3360,note_on,,1,0,5,,,,,,,,,,,,,,,,0,,72,47
3360,note_on,,1,0,15,,,,,,,,,,,,,,,,13,,55,48
3360,note_on,,1,0,6,,,,,,,,,,,,,,,,1,,72,47
3360,note_on,,0,0,16,,,,,,,,,,,,,,,,15,,67,48
3360,note_on,,0,0,16,,,,,,,,,,,,,,,,15,,62,48
3360,note_on,,1,0,7,,,,,,,,,,,,,,,,2,,55,48
3360,note_on,,1,0,8,,,,,,,,,,,,,,,,5,,72,58
3419,note_on,,59,0,8,,,,,,,,,,,,,,,,5,,72,0
3419,note_on,,59,0,5,,,,,,,,,,,,,,,,0,,72,0
3419,note_on,,59,0,6,,,,,,,,,,,,,,,,1,,72,0
3420,note_on,,1,0,6,,,,,,,,,,,,,,,,1,,71,47
3420,note_on,,421,0,13,,,,,,,,,,,,,,,,11,,71,48
3420,note_on,,421,0,12,,,,,,,,,,,,,,,,10,,74,48
3420,note_on,,421,0,14,,,,,,,,,,,,,,,,12,,67,48
3420,note_on,,1,0,8,,,,,,,,,,,,,,,,5,,71,58
3420,note_on,,1,0,5,,,,,,,,,,,,,,,,0,,71,47
3479,note_on,,0,0,16,,,,,,,,,,,,,,,,15,,62,0
3479,note_on,,119,0,16,,,,,,,,,,,,,,,,15,,55,0
3479,note_on,,59,0,13,,,,,,,,,,,,,,,,11,,71,0
3479,note_on,,0,0,16,,,,,,,,,,,,,,,,15,,67,0
3479,note_on,,119,0,7,,,,,,,,,,,,,,,,2,,55,0
3479,note_on,,59,0,8,,,,,,,,,,,,,,,,5,,71,0
3479,note_on,,59,0,12,,,,,,,,,,,,,,,,10,,74,0
3479,note_on,,119,0,15,,,,,,,,,,,,,,,,13,,55,0
3479,note_on,,59,0,6,,,,,,,,,,,,,,,,1,,71,0
3479,note_on,,59,0,5,,,,,,,,,,,,,,,,0,,71,0
3479,note_on,,59,0,14,,,,,,,,,,,,,,,,12,,67,0
3480,note_on,,1,0,12,,,,,,,,,,,,,,,,10,,79,48
3480,note_on,,1,0,14,,,,,,,,,,,,,,,,12,,71,48
3480,note_on,,1,0,13,,,,,,,,,,,,,,,,11,,74,48
3539,note_on,,59,0,12,,,,,,,,,,,,,,,,10,,79,0
3539,note_on,,59,0,14,,,,,,,,,,,,,,,,12,,71,0
3539,note_on,,59,0,13,,,,,,,,,,,,,,,,11,,74,0
3540,note_on,,1,0,12,,,,,,,,,,,,,,,,10,,74,48
3540,note_on,,1,0,13,,,,,,,,,,,,,,,,11,,71,48
3540,note_on,,1,0,14,,,,,,,,,,,,,,,,12,,67,48
3599,note_on,,59,0,12,,,,,,,,,,,,,,,,10,,74,0
3599,note_on,,59,0,14,,,,,,,,,,,,,,,,12,,67,0
3599,note_on,,59,0,13,,,,,,,,,,,,,,,,11,,71,0
3600,note_on,,1,0,13,,,,,,,,,,,,,,,,11,,62,48
3600,note_on,,1,0,12,,,,,,,,,,,,,,,,10,,71,48
3600,note_on,,1,0,14,,,,,,,,,,,,,,,,12,,55,48
3660,note_on,,181,0,7,,,,,,,,,,,,,,,,2,,55,48
3660,note_on,,181,0,15,,,,,,,,,,,,,,,,13,,55,48
3660,note_on,,181,0,16,,,,,,,,,,,,,,,,15,,55,48
3660,note_on,,0,0,16,,,,,,,,,,,,,,,,15,,71,48
3660,note_on,,0,0,16,,,,,,,,,,,,,,,,15,,62,48
3660,note_on,,0,0,16,,,,,,,,,,,,,,,,15,,67,48
3719,note_on,,119,0,12,,,,,,,,,,,,,,,,10,,71,0
3719,note_on,,0,0,16,,,,,,,,,,,,,,,,15,,62,0
3719,note_on,,0,0,16,,,,,,,,,,,,,,,,15,,67,0
3719,note_on,,0,0,16,,,,,,,,,,,,,,,,15,,71,0
3719,note_on,,59,0,16,,,,,,,,,,,,,,,,15,,55,0
3719,note_on,,119,0,13,,,,,,,,,,,,,,,,11,,62,0
3719,note_on,,59,0,7,,,,,,,,,,,,,,,,2,,55,0
3719,note_on,,119,0,14,,,,,,,,,,,,,,,,12,,55,0
3719,note_on,,59,0,15,,,,,,,,,,,,,,,,13,,55,0
3720,note_on,,1,0,16,,,,,,,,,,,,,,,,15,,59,48
3720,note_on,,1,0,15,,,,,,,,,,,,,,,,13,,59,48
3720,note_on,,1,0,7,,,,,,,,,,,,,,,,2,,59,48
3720,note_on,,241,0,6,,,,,,,,,,,,,,,,1,,67,47
3720,note_on,,0,0,16,,,,,,,,,,,,,,,,15,,67,48
3720,note_on,,241,0,5,,,,,,,,,,,,,,,,0,,67,47
3720,note_on,,241,0,8,,,,,,,,,,,,,,,,5,,67,58
3720,note_on,,0,0,16,,,,,,,,,,,,,,,,15,,74,48
3779,note_on,,59,0,5,,,,,,,,,,,,,,,,0,,67,0
3779,note_on,,59,0,6,,,,,,,,,,,,,,,,1,,67,0
3779,note_on,,59,0,8,,,,,,,,,,,,,,,,5,,67,0
3779,note_on,,59,0,15,,,,,,,,,,,,,,,,13,,59,0
3779,note_on,,59,0,7,,,,,,,,,,,,,,,,2,,59,0
3779,note_on,,59,0,16,,,,,,,,,,,,,,,,15,,59,0
3779,note_on,,0,0,16,,,,,,,,,,,,,,,,15,,74,0
3779,note_on,,0,0,16,,,,,,,,,,,,,,,,15,,67,0
3780,note_on,,1,0,7,,,,,,,,,,,,,,,,2,,55,48
3780,note_on,,1,0,8,,,,,,,,,,,,,,,,5,,66,58
3780,note_on,,1,0,6,,,,,,,,,,,,,,,,1,,66,47
3780,note_on,,1,0,16,,,,,,,,,,,,,,,,15,,55,48
3780,note_on,,0,0,16,,,,,,,,,,,,,,,,15,,71,48
3780,note_on,,0,0,16,,,,,,,,,,,,,,,,15,,67,48
3780,note_on,,0,0,16,,,,,,,,,,,,,,,,15,,62,48
3780,note_on,,1,0,15,,,,,,,,,,,,,,,,13,,55,48
3780,note_on,,1,0,5,,,,,,,,,,,,,,,,0,,66,47
3839,note_on,,59,0,6,,,,,,,,,,,,,,,,1,,66,0
3839,note_on,,59,0,8,,,,,,,,,,,,,,,,5,,66,0
3839,note_on,,59,0,7,,,,,,,,,,,,,,,,2,,55,0
3839,note_on,,0,0,16,,,,,,,,,,,,,,,,15,,62,0
3839,note_on,,59,0,15,,,,,,,,,,,,,,,,13,,55,0
3839,note_on,,59,0,16,,,,,,,,,,,,,,,,15,,55,0
3839,note_on,,0,0,16,,,,,,,,,,,,,,,,15,,71,0
3839,note_on,,0,0,16,,,,,,,,,,,,,,,,15,,67,0
3839,note_on,,59,0,5,,,,,,,,,,,,,,,,0,,66,0
3840,note_on,,1,0,16,,,,,,,,,,,,,,,,15,,60,48
3840,note_on,,1,0,5,,,,,,,,,,,,,,,,0,,64,47
3840,note_on,,1,0,15,,,,,,,,,,,,,,,,13,,60,48
3840,note_on,,1,0,8,,,,,,,,,,,,,,,,5,,64,58
3840,note_on,,0,0,16,,,,,,,,,,,,,,,,15,,67,48
3840,note_on,,0,0,16,,,,,,,,,,,,,,,,15,,64,48
3840,note_on,,1,0,6,,,,,,,,,,,,,,,,1,,64,47
3840,note_on,,1,0,7,,,,,,,,,,,,,,,,2,,60,48
3900,note_on,,181,0,14,,,,,,,,,,,,,,,,12,,67,48
3900,note_on,,181,0,13,,,,,,,,,,,,,,,,11,,72,48
3900,note_on,,181,0,12,,,,,,,,,,,,,,,,10,,76,48
3959,note_on,,119,0,8,,,,,,,,,,,,,,,,5,,64,0
3959,note_on,,119,0,15,,,,,,,,,,,,,,,,13,,60,0
3959,note_on,,0,0,16,,,,,,,,,,,,,,,,15,,64,0
3959,note_on,,0,0,16,,,,,,,,,,,,,,,,15,,67,0
3959,note_on,,119,0,16,,,,,,,,,,,,,,,,15,,60,0
3959,note_on,,59,0,14,,,,,,,,,,,,,,,,12,,67,0
3959,note_on,,119,0,7,,,,,,,,,,,,,,,,2,,60,0
3959,note_on,,59,0,13,,,,,,,,,,,,,,,,11,,72,0
3959,note_on,,119,0,5,,,,,,,,,,,,,,,,0,,64,0
3959,note_on,,59,0,12,,,,,,,,,,,,,,,,10,,76,0
3959,note_on,,119,0,6,,,,,,,,,,,,,,,,1,,64,0
3960,note_on,,1,0,13,,,,,,,,,,,,,,,,11,,76,48
3960,note_on,,1,0,12,,,,,,,,,,,,,,,,10,,79,48
3960,note_on,,1,0,14,,,,,,,,,,,,,,,,12,,72,48
4019,note_on,,59,0,14,,,,,,,,,,,,,,,,12,,72,0
4019,note_on,,59,0,13,,,,,,,,,,,,,,,,11,,76,0
4019,note_on,,59,0,12,,,,,,,,,,,,,,,,10,,79,0
4020,note_on,,1,0,14,,,,,,,,,,,,,,,,12,,60,48
4020,note_on,,1,0,13,,,,,,,,,,,,,,,,11,,72,48
4020,note_on,,1,0,12,,,,,,,,,,,,,,,,10,,76,48
4079,note_on,,59,0,14,,,,,,,,,,,,,,,,12,,60,0
4079,note_on,,59,0,13,,,,,,,,,,,,,,,,11,,72,0
4079,note_on,,59,0,12,,,,,,,,,,,,,,,,10,,76,0
4080,note_on,,1,0,13,,,,,,,,,,,,,,,,11,,60,48
4080,note_on,,1,0,14,,,,,,,,,,,,,,,,12,,64,48
4080,note_on,,1,0,12,,,,,,,,,,,,,,,,10,,81,48
4140,note_on,,181,0,15,,,,,,,,,,,,,,,,13,,45,48
4140,note_on,,181,0,7,,,,,,,,,,,,,,,,2,,45,48
4140,note_on,,181,0,5,,,,,,,,,,,,,,,,0,,64,47
4140,note_on,,181,0,6,,,,,,,,,,,,,,,,1,,64,47
4140,note_on,,0,0,16,,,,,,,,,,,,,,,,15,,64,48
4140,note_on,,0,0,16,,,,,,,,,,,,,,,,15,,69,48
4140,note_on,,0,0,16,,,,,,,,,,,,,,,,15,,72,48
4140,note_on,,181,0,16,,,,,,,,,,,,,,,,15,,45,48
4140,note_on,,181,0,8,,,,,,,,,,,,,,,,5,,64,58
4199,note_on,,119,0,12,,,,,,,,,,,,,,,,10,,81,0
4199,note_on,,59,0,15,,,,,,,,,,,,,,,,13,,45,0
4199,note_on,,119,0,13,,,,,,,,,,,,,,,,11,,60,0
4199,note_on,,59,0,7,,,,,,,,,,,,,,,,2,,45,0
4199,note_on,,59,0,6,,,,,,,,,,,,,,,,1,,64,0
4199,note_on,,0,0,16,,,,,,,,,,,,,,,,15,,72,0
4199,note_on,,59,0,8,,,,,,,,,,,,,,,,5,,64,0
4199,note_on,,119,0,14,,,,,,,,,,,,,,,,12,,64,0
4199,note_on,,59,0,16,,,,,,,,,,,,,,,,15,,45,0
4199,note_on,,0,0,16,,,,,,,,,,,,,,,,15,,69,0
4199,note_on,,0,0,16,,,,,,,,,,,,,,,,15,,64,0
4199,note_on,,59,0,5,,,,,,,,,,,,,,,,0,,64,0
4200,note_on,,0,0,16,,,,,,,,,,,,,,,,15,,76,48
4200,note_on,,0,0,16,,,,,,,,,,,,,,,,15,,69,48
4200,note_on,,1,0,6,,,,,,,,,,,,,,,,1,,69,47
4200,note_on,,1,0,15,,,,,,,,,,,,,,,,13,,48,48
4200,note_on,,1,0,8,,,,,,,,,,,,,,,,5,,69,58
4200,note_on,,1,0,7,,,,,,,,,,,,,,,,2,,48,48
4200,note_on,,1,0,5,,,,,,,,,,,,,,,,0,,69,47
4200,note_on,,1,0,16,,,,,,,,,,,,,,,,15,,48,48
4259,note_on,,59,0,15,,,,,,,,,,,,,,,,13,,48,0
4259,note_on,,59,0,16,,,,,,,,,,,,,,,,15,,48,0
4259,note_on,,59,0,8,,,,,,,,,,,,,,,,5,,69,0
4259,note_on,,59,0,5,,,,,,,,,,,,,,,,0,,69,0
4259,note_on,,0,0,16,,,,,,,,,,,,,,,,15,,76,0
4259,note_on,,0,0,16,,,,,,,,,,,,,,,,15,,69,0
4259,note_on,,59,0,6,,,,,,,,,,,,,,,,1,,69,0
4259,note_on,,59,0,7,,,,,,,,,,,,,,,,2,,48,0
4260,note_on,,1,0,6,,,,,,,,,,,,,,,,1,,67,47
4260,note_on,,0,0,16,,,,,,,,,,,,,,,,15,,69,48
4260,note_on,,0,0,16,,,,,,,,,,,,,,,,15,,64,48
4260,note_on,,1,0,16,,,,,,,,,,,,,,,,15,,45,48
4260,note_on,,1,0,8,,,,,,,,,,,,,,,,5,,67,58
4260,note_on,,1,0,7,,,,,,,,,,,,,,,,2,,45,48
4260,note_on,,0,0,16,,,,,,,,,,,,,,,,15,,72,48
4260,note_on,,1,0,5,,,,,,,,,,,,,,,,0,,67,47
4260,note_on,,1,0,15,,,,,,,,,,,,,,,,13,,45,48
4319,note_on,,59,0,6,,,,,,,,,,,,,,,,1,,67,0
4319,note_on,,59,0,5,,,,,,,,,,,,,,,,0,,67,0
4319,note_on,,59,0,16,,,,,,,,,,,,,,,,15,,45,0
4319,note_on,,0,0,16,,,,,,,,,,,,,,,,15,,72,0
4319,note_on,,0,0,16,,,,,,,,,,,,,,,,15,,69,0
4319,note_on,,0,0,16,,,,,,,,,,,,,,,,15,,64,0
4319,note_on,,59,0,15,,,,,,,,,,,,,,,,13,,45,0
4319,note_on,,59,0,8,,,,,,,,,,,,,,,,5,,67,0
4319,note_on,,59,0,7,,,,,,,,,,,,,,,,2,,45,0
4320,note_on,,0,0,16,,,,,,,,,,,,,,,,15,,69,48
4320,note_on,,1,0,5,,,,,,,,,,,,,,,,0,,66,47
4320,note_on,,1,0,6,,,,,,,,,,,,,,,,1,,66,47
4320,note_on,,1,0,16,,,,,,,,,,,,,,,,15,,50,48
4320,note_on,,1,0,7,,,,,,,,,,,,,,,,2,,50,48
4320,note_on,,0,0,16,,,,,,,,,,,,,,,,15,,66,48
4320,note_on,,0,0,16,,,,,,,,,,,,,,,,15,,62,48
4320,note_on,,1,0,8,,,,,,,,,,,,,,,,5,,66,58
4320,note_on,,1,0,15,,,,,,,,,,,,,,,,13,,50,48
4379,note_on,,59,0,8,,,,,,,,,,,,,,,,5,,66,0
4379,note_on,,59,0,6,,,,,,,,,,,,,,,,1,,66,0
4379,note_on,,59,0,5,,,,,,,,,,,,,,,,0,,66,0
4380,note_on,,1,0,6,,,,,,,,,,,,,,,,1,,66,47
4380,note_on,,181,0,12,,,,,,,,,,,,,,,,10,,66,48
4380,note_on,,181,0,13,,,,,,,,,,,,,,,,11,,62,48
4380,note_on,,1,0,8,,,,,,,,,,,,,,,,5,,66,58
4380,note_on,,1,0,5,,,,,,,,,,,,,,,,0,,66,47
4380,note_on,,181,0,14,,,,,,,,,,,,,,,,12,,57,48
4439,note_on,,59,0,13,,,,,,,,,,,,,,,,11,,62,0
4439,note_on,,0,0,16,,,,,,,,,,,,,,,,15,,69,0
4439,note_on,,119,0,16,,,,,,,,,,,,,,,,15,,50,0
4439,note_on,,59,0,8,,,,,,,,,,,,,,,,5,,66,0
4439,note_on,,119,0,7,,,,,,,,,,,,,,,,2,,50,0
4439,note_on,,0,0,16,,,,,,,,,,,,,,,,15,,66,0
4439,note_on,,59,0,14,,,,,,,,,,,,,,,,12,,57,0
4439,note_on,,119,0,15,,,,,,,,,,,,,,,,13,,50,0
4439,note_on,,59,0,5,,,,,,,,,,,,,,,,0,,66,0
4439,note_on,,59,0,12,,,,,,,,,,,,,,,,10,,66,0
4439,note_on,,59,0,6,,,,,,,,,,,,,,,,1,,66,0
4439,note_on,,0,0,16,,,,,,,,,,,,,,,,15,,62,0
4440,note_on,,1,0,14,,,,,,,,,,,,,,,,12,,62,48
4440,note_on,,1,0,12,,,,,,,,,,,,,,,,10,,69,48
4440,note_on,,1,0,13,,,,,,,,,,,,,,,,11,,66,48
4499,note_on,,59,0,14,,,,,,,,,,,,,,,,12,,62,0
4499,note_on,,59,0,13,,,,,,,,,,,,,,,,11,,66,0
4499,note_on,,59,0,12,,,,,,,,,,,,,,,,10,,69,0
4500,note_on,,1,0,13,,,,,,,,,,,,,,,,11,,62,48
4500,note_on,,1,0,14,,,,,,,,,,,,,,,,12,,69,48
4500,note_on,,1,0,12,,,,,,,,,,,,,,,,10,,66,48
4559,note_on,,59,0,13,,,,,,,,,,,,,,,,11,,62,0
4559,note_on,,59,0,14,,,,,,,,,,,,,,,,12,,69,0
4559,note_on,,59,0,12,,,,,,,,,,,,,,,,10,,66,0
4560,note_on,,1,0,13,,,,,,,,,,,,,,,,11,,74,48
4560,note_on,,1,0,14,,,,,,,,,,,,,,,,12,,66,48
4560,note_on,,1,0,12,,,,,,,,,,,,,,,,10,,71,48
4620,note_on,,0,0,16,,,,,,,,,,,,,,,,15,,74,48
4620,note_on,,0,0,16,,,,,,,,,,,,,,,,15,,71,48
4620,note_on,,181,0,7,,,,,,,,,,,,,,,,2,,47,48
4620,note_on,,181,0,16,,,,,,,,,,,,,,,,15,,47,48
4620,note_on,,0,0,16,,,,,,,,,,,,,,,,15,,66,48
4620,note_on,,181,0,15,,,,,,,,,,,,,,,,13,,47,48
4679,note_on,,0,0,16,,,,,,,,,,,,,,,,15,,74,0
4679,note_on,,59,0,7,,,,,,,,,,,,,,,,2,,47,0
4679,note_on,,119,0,14,,,,,,,,,,,,,,,,12,,66,0
4679,note_on,,0,0,16,,,,,,,,,,,,,,,,15,,71,0
4679,note_on,,119,0,12,,,,,,,,,,,,,,,,10,,71,0
4679,note_on,,0,0,16,,,,,,,,,,,,,,,,15,,66,0
4679,note_on,,59,0,15,,,,,,,,,,,,,,,,13,,47,0
4679,note_on,,119,0,13,,,,,,,,,,,,,,,,11,,74,0
4679,note_on,,59,0,16,,,,,,,,,,,,,,,,15,,47,0
4680,note_on,,0,0,16,,,,,,,,,,,,,,,,15,,71,48
4680,note_on,,0,0,16,,,,,,,,,,,,,,,,15,,78,48
4680,note_on,,1,0,16,,,,,,,,,,,,,,,,15,,50,48
4680,note_on,,241,0,5,,,,,,,,,,,,,,,,0,,71,47
4680,note_on,,241,0,6,,,,,,,,,,,,,,,,1,,71,47
4680,note_on,,1,0,7,,,,,,,,,,,,,,,,2,,50,48
4680,note_on,,241,0,8,,,,,,,,,,,,,,,,5,,71,58
4680,note_on,,1,0,15,,,,,,,,,,,,,,,,13,,50,48
4739,note_on,,0,0,16,,,,,,,,,,,,,,,,15,,71,0
4739,note_on,,59,0,7,,,,,,,,,,,,,,,,2,,50,0
4739,note_on,,59,0,8,,,,,,,,,,,,,,,,5,,71,0
4739,note_on,,59,0,16,,,,,,,,,,,,,,,,15,,50,0
4739,note_on,,0,0,16,,,,,,,,,,,,,,,,15,,78,0
4739,note_on,,59,0,15,,,,,,,,,,,,,,,,13,,50,0
4739,note_on,,59,0,5,,,,,,,,,,,,,,,,0,,71,0
4739,note_on,,59,0,6,,,,,,,,,,,,,,,,1,,71,0
4740,note_on,,1,0,6,,,,,,,,,,,,,,,,1,,69,47
4740,note_on,,1,0,15,,,,,,,,,,,,,,,,13,,47,48
4740,note_on,,1,0,5,,,,,,,,,,,,,,,,0,,69,47
4740,note_on,,1,0,7,,,,,,,,,,,,,,,,2,,47,48
4740,note_on,,0,0,16,,,,,,,,,,,,,,,,15,,66,48
4740,note_on,,1,0,8,,,,,,,,,,,,,,,,5,,69,58
4740,note_on,,1,0,16,,,,,,,,,,,,,,,,15,,47,48
4740,note_on,,0,0,16,,,,,,,,,,,,,,,,15,,74,48
4740,note_on,,0,0,16,,,,,,,,,,,,,,,,15,,71,48
4799,note_on,,59,0,6,,,,,,,,,,,,,,,,1,,69,0
4799,note_on,,59,0,16,,,,,,,,,,,,,,,,15,,47,0
4799,note_on,,59,0,8,,,,,,,,,,,,,,,,5,,69,0
4799,note_on,,0,0,16,,,,,,,,,,,,,,,,15,,66,0
4799,note_on,,59,0,5,,,,,,,,,,,,,,,,0,,69,0
4799,note_on,,0,0,16,,,,,,,,,,,,,,,,15,,71,0
4799,note_on,,59,0,15,,,,,,,,,,,,,,,,13,,47,0
4799,note_on,,59,0,7,,,,,,,,,,,,,,,,2,,47,0
4799,note_on,,0,0,16,,,,,,,,,,,,,,,,15,,74,0
4800,note_on,,1,0,5,,,,,,,,,,,,,,,,0,,67,47
4800,note_on,,1,0,8,,,,,,,,,,,,,,,,5,,67,58
4800,note_on,,0,0,16,,,,,,,,,,,,,,,,15,,71,48
4800,note_on,,0,0,16,,,,,,,,,,,,,,,,15,,67,48
4800,note_on,,1,0,7,,,,,,,,,,,,,,,,2,,52,48
4800,note_on,,1,0,16,,,,,,,,,,,,,,,,15,,52,48
4800,note_on,,1,0,15,,,,,,,,,,,,,,,,13,,52,48
4800,note_on,,0,0,16,,,,,,,,,,,,,,,,15,,64,48
4800,note_on,,1,0,6,,,,,,,,,,,,,,,,1,,67,47
4860,note_on,,181,0,14,,,,,,,,,,,,,,,,12,,59,48
4860,note_on,,181,0,13,,,,,,,,,,,,,,,,11,,64,48
4860,note_on,,181,0,12,,,,,,,,,,,,,,,,10,,67,48
4919,note_on,,59,0,13,,,,,,,,,,,,,,,,11,,64,0
4919,note_on,,0,0,16,,,,,,,,,,,,,,,,15,,64,0
4919,note_on,,119,0,15,,,,,,,,,,,,,,,,13,,52,0
4919,note_on,,0,0,16,,,,,,,,,,,,,,,,15,,67,0
4919,note_on,,119,0,5,,,,,,,,,,,,,,,,0,,67,0
4919,note_on,,119,0,8,,,,,,,,,,,,,,,,5,,67,0
4919,note_on,,0,0,16,,,,,,,,,,,,,,,,15,,71,0
4919,note_on,,119,0,16,,,,,,,,,,,,,,,,15,,52,0
4919,note_on,,59,0,12,,,,,,,,,,,,,,,,10,,67,0
4919,note_on,,119,0,7,,,,,,,,,,,,,,,,2,,52,0
4919,note_on,,59,0,14,,,,,,,,,,,,,,,,12,,59,0
4919,note_on,,119,0,6,,,,,,,,,,,,,,,,1,,67,0
4920,note_on,,1,0,12,,,,,,,,,,,,,,,,10,,71,48
4920,note_on,,1,0,13,,,,,,,,,,,,,,,,11,,67,48
4920,note_on,,1,0,14,,,,,,,,,,,,,,,,12,,64,48
4979,note_on,,59,0,14,,,,,,,,,,,,,,,,12,,64,0
4979,note_on,,59,0,12,,,,,,,,,,,,,,,,10,,71,0
4979,note_on,,59,0,13,,,,,,,,,,,,,,,,11,,67,0
4980,note_on,,1,0,13,,,,,,,,,,,,,,,,11,,64,48
4980,note_on,,1,0,14,,,,,,,,,,,,,,,,12,,71,48
4980,note_on,,1,0,12,,,,,,,,,,,,,,,,10,,67,48
5039,note_on,,59,0,14,,,,,,,,,,,,,,,,12,,71,0
5039,note_on,,59,0,12,,,,,,,,,,,,,,,,10,,67,0
5039,note_on,,59,0,13,,,,,,,,,,,,,,,,11,,64,0
5040,note_on,,1,0,13,,,,,,,,,,,,,,,,11,,76,48
5040,note_on,,1,0,14,,,,,,,,,,,,,,,,12,,67,48
5040,note_on,,1,0,12,,,,,,,,,,,,,,,,10,,72,48
5100,note_on,,0,0,16,,,,,,,,,,,,,,,,15,,64,48
5100,note_on,,0,0,16,,,,,,,,,,,,,,,,15,,67,48
5100,note_on,,0,0,16,,,,,,,,,,,,,,,,15,,71,48
5100,note_on,,181,0,16,,,,,,,,,,,,,,,,15,,52,48
5100,note_on,,181,0,8,,,,,,,,,,,,,,,,5,,67,58
5100,note_on,,181,0,7,,,,,,,,,,,,,,,,2,,52,48
5100,note_on,,181,0,5,,,,,,,,,,,,,,,,0,,67,47
5100,note_on,,181,0,15,,,,,,,,,,,,,,,,13,,52,48
5100,note_on,,181,0,6,,,,,,,,,,,,,,,,1,,67,47
5159,note_on,,59,0,8,,,,,,,,,,,,,,,,5,,67,0
5159,note_on,,119,0,12,,,,,,,,,,,,,,,,10,,72,0
5159,note_on,,59,0,16,,,,,,,,,,,,,,,,15,,52,0
5159,note_on,,0,0,16,,,,,,,,,,,,,,,,15,,71,0
5159,note_on,,0,0,16,,,,,,,,,,,,,,,,15,,67,0
5159,note_on,,59,0,6,,,,,,,,,,,,,,,,1,,67,0
5159,note_on,,119,0,13,,,,,,,,,,,,,,,,11,,76,0
5159,note_on,,59,0,15,,,,,,,,,,,,,,,,13,,52,0
5159,note_on,,0,0,16,,,,,,,,,,,,,,,,15,,64,0
5159,note_on,,119,0,14,,,,,,,,,,,,,,,,12,,67,0
5159,note_on,,59,0,5,,,,,,,,,,,,,,,,0,,67,0
5159,note_on,,59,0,7,,,,,,,,,,,,,,,,2,,52,0
5160,note_on,,1,0,6,,,,,,,,,,,,,,,,1,,72,47
5160,note_on,,1,0,15,,,,,,,,,,,,,,,,13,,57,48
5160,note_on,,0,0,16,,,,,,,,,,,,,,,,15,,64,48
5160,note_on,,0,0,16,,,,,,,,,,,,,,,,15,,69,48
5160,note_on,,0,0,16,,,,,,,,,,,,,,,,15,,72,48
5160,note_on,,1,0,7,,,,,,,,,,,,,,,,2,,57,48
5160,note_on,,1,0,8,,,,,,,,,,,,,,,,5,,72,58
5160,note_on,,1,0,5,,,,,,,,,,,,,,,,0,,72,47
5160,note_on,,1,0,16,,,,,,,,,,,,,,,,15,,57,48
5219,note_on,,59,0,5,,,,,,,,,,,,,,,,0,,72,0
5219,note_on,,59,0,16,,,,,,,,,,,,,,,,15,,57,0
5219,note_on,,0,0,16,,,,,,,,,,,,,,,,15,,72,0
5219,note_on,,0,0,16,,,,,,,,,,,,,,,,15,,69,0
5219,note_on,,0,0,16,,,,,,,,,,,,,,,,15,,64,0
5219,note_on,,59,0,7,,,,,,,,,,,,,,,,2,,57,0
5219,note_on,,59,0,8,,,,,,,,,,,,,,,,5,,72,0
5219,note_on,,59,0,6,,,,,,,,,,,,,,,,1,,72,0
5219,note_on,,59,0,15,,,,,,,,,,,,,,,,13,,57,0
5220,note_on,,1,0,6,,,,,,,,,,,,,,,,1,,71,47
5220,note_on,,1,0,7,,,,,,,,,,,,,,,,2,,55,48
5220,note_on,,1,0,15,,,,,,,,,,,,,,,,13,,55,48
5220,note_on,,1,0,5,,,,,,,,,,,,,,,,0,,71,47
5220,note_on,,0,0,16,,,,,,,,,,,,,,,,15,,69,48
5220,note_on,,0,0,16,,,,,,,,,,,,,,,,15,,76,48
5220,note_on,,1,0,8,,,,,,,,,,,,,,,,5,,71,58
5220,note_on,,1,0,16,,,,,,,,,,,,,,,,15,,55,48
5220,note_on,,0,0,16,,,,,,,,,,,,,,,,15,,72,48
5279,note_on,,59,0,8,,,,,,,,,,,,,,,,5,,71,0
5279,note_on,,59,0,16,,,,,,,,,,,,,,,,15,,55,0
5279,note_on,,0,0,16,,,,,,,,,,,,,,,,15,,76,0
5279,note_on,,0,0,16,,,,,,,,,,,,,,,,15,,69,0
5279,note_on,,59,0,15,,,,,,,,,,,,,,,,13,,55,0
5279,note_on,,59,0,5,,,,,,,,,,,,,,,,0,,71,0
5279,note_on,,59,0,6,,,,,,,,,,,,,,,,1,,71,0
5279,note_on,,0,0,16,,,,,,,,,,,,,,,,15,,72,0
5279,note_on,,59,0,7,,,,,,,,,,,,,,,,2,,55,0
5280,note_on,,0,0,16,,,,,,,,,,,,,,,,15,,74,48
5280,note_on,,1,0,15,,,,,,,,,,,,,,,,13,,54,48
5280,note_on,,1,0,5,,,,,,,,,,,,,,,,0,,69,47
5280,note_on,,1,0,7,,,,,,,,,,,,,,,,2,,54,48
5280,note_on,,0,0,16,,,,,,,,,,,,,,,,15,,69,48
5280,note_on,,1,0,8,,,,,,,,,,,,,,,,5,,69,58
5280,note_on,,1,0,6,,,,,,,,,,,,,,,,1,,69,47
5280,note_on,,0,0,16,,,,,,,,,,,,,,,,15,,62,48
5280,note_on,,1,0,16,,,,,,,,,,,,,,,,15,,54,48
5339,note_on,,59,0,8,,,,,,,,,,,,,,,,5,,69,0
5339,note_on,,59,0,15,,,,,,,,,,,,,,,,13,,54,0
5339,note_on,,59,0,5,,,,,,,,,,,,,,,,0,,69,0
5339,note_on,,59,0,16,,,,,,,,,,,,,,,,15,,54,0
5339,note_on,,59,0,7,,,,,,,,,,,,,,,,2,,54,0
5339,note_on,,59,0,6,,,,,,,,,,,,,,,,1,,69,0
5340,note_on,,1,0,5,,,,,,,,,,,,,,,,0,,69,47
5340,note_on,,181,0,14,,,,,,,,,,,,,,,,12,,62,48
5340,note_on,,1,0,7,,,,,,,,,,,,,,,,2,,50,48
5340,note_on,,1,0,16,,,,,,,,,,,,,,,,15,,50,48
5340,note_on,,1,0,6,,,,,,,,,,,,,,,,1,,69,47
5340,note_on,,1,0,8,,,,,,,,,,,,,,,,5,,69,58
5340,note_on,,1,0,15,,,,,,,,,,,,,,,,13,,50,48
5340,note_on,,181,0,12,,,,,,,,,,,,,,,,10,,74,48
5340,note_on,,181,0,13,,,,,,,,,,,,,,,,11,,69,48
5399,note_on,,59,0,14,,,,,,,,,,,,,,,,12,,62,0
5399,note_on,,59,0,8,,,,,,,,,,,,,,,,5,,69,0
5399,note_on,,59,0,15,,,,,,,,,,,,,,,,13,,50,0
5399,note_on,,0,0,16,,,,,,,,,,,,,,,,15,,50,0
5399,note_on,,59,0,13,,,,,,,,,,,,,,,,11,,69,0
5399,note_on,,59,0,6,,,,,,,,,,,,,,,,1,,69,0
5399,note_on,,59,0,12,,,,,,,,,,,,,,,,10,,74,0
5399,note_on,,59,0,7,,,,,,,,,,,,,,,,2,,50,0
5399,note_on,,0,0,16,,,,,,,,,,,,,,,,15,,62,0
5399,note_on,,59,0,16,,,,,,,,,,,,,,,,15,,74,0
5399,note_on,,59,0,5,,,,,,,,,,,,,,,,0,,69,0
5399,note_on,,0,0,16,,,,,,,,,,,,,,,,15,,69,0
5400,note_on,,1,0,16,,,,,,,,,,,,,,,,15,,62,48
5400,note_on,,0,0,16,,,,,,,,,,,,,,,,15,,69,48
5400,note_on,,0,0,16,,,,,,,,,,,,,,,,15,,66,48
5400,note_on,,1,0,14,,,,,,,,,,,,,,,,12,,69,48
5400,note_on,,1,0,12,,,,,,,,,,,,,,,,10,,78,48
5400,note_on,,1,0,7,,,,,,,,,,,,,,,,2,,62,48
5400,note_on,,1,0,13,,,,,,,,,,,,,,,,11,,74,48
5400,note_on,,1,0,15,,,,,,,,,,,,,,,,13,,62,48
5459,note_on,,0,0,16,,,,,,,,,,,,,,,,15,,69,0
5459,note_on,,59,0,14,,,,,,,,,,,,,,,,12,,69,0
5459,note_on,,59,0,12,,,,,,,,,,,,,,,,10,,78,0
5459,note_on,,59,0,7,,,,,,,,,,,,,,,,2,,62,0
5459,note_on,,59,0,13,,,,,,,,,,,,,,,,11,,74,0
5459,note_on,,59,0,15,,,,,,,,,,,,,,,,13,,62,0
5459,note_on,,59,0,16,,,,,,,,,,,,,,,,15,,62,0
5459,note_on,,0,0,16,,,,,,,,,,,,,,,,15,,66,0
5460,note_on,,0,0,16,,,,,,,,,,,,,,,,15,,69,48
5460,note_on,,0,0,16,,,,,,,,,,,,,,,,15,,66,48
5460,note_on,,0,0,16,,,,,,,,,,,,,,,,15,,74,48
5460,note_on,,1,0,13,,,,,,,,,,,,,,,,11,,69,48
5460,note_on,,1,0,14,,,,,,,,,,,,,,,,12,,66,48
5460,note_on,,1,0,12,,,,,,,,,,,,,,,,10,,74,48
5460,note_on,,1,0,7,,,,,,,,,,,,,,,,2,,60,48
5460,note_on,,1,0,15,,,,,,,,,,,,,,,,13,,60,48
5460,note_on,,1,0,16,,,,,,,,,,,,,,,,15,,60,48
5519,note_on,,59,0,14,,,,,,,,,,,,,,,,12,,66,0
5519,note_on,,59,0,16,,,,,,,,,,,,,,,,15,,60,0
5519,note_on,,0,0,16,,,,,,,,,,,,,,,,15,,74,0
5519,note_on,,0,0,16,,,,,,,,,,,,,,,,15,,69,0
5519,note_on,,0,0,16,,,,,,,,,,,,,,,,15,,66,0
5519,note_on,,59,0,12,,,,,,,,,,,,,,,,10,,74,0
5519,note_on,,59,0,7,,,,,,,,,,,,,,,,2,,60,0
5519,note_on,,59,0,15,,,,,,,,,,,,,,,,13,,60,0
5519,note_on,,59,0,13,,,,,,,,,,,,,,,,11,,69,0
5520,note_on,,5520,0,10,,,,,,,,,,,,,,,,7,,62,58
5520,note_on,,1,0,7,,,,,,,,,,,,,,,,2,,59,48
5520,note_on,,0,0,16,,,,,,,,,,,,,,,,15,,74,48
5520,note_on,,0,0,16,,,,,,,,,,,,,,,,15,,67,48
5520,note_on,,0,0,16,,,,,,,,,,,,,,,,15,,79,48
5520,note_on,,1,0,16,,,,,,,,,,,,,,,,15,,59,48
5520,note_on,,1,0,15,,,,,,,,,,,,,,,,13,,59,48
5580,note_on,,61,0,13,,,,,,,,,,,,,,,,11,,62,48
5580,note_on,,61,0,14,,,,,,,,,,,,,,,,12,,59,48
5580,note_on,,61,0,12,,,,,,,,,,,,,,,,10,,67,48
5639,note_on,,0,0,16,,,,,,,,,,,,,,,,15,,79,0
5639,note_on,,0,0,16,,,,,,,,,,,,,,,,15,,74,0
5639,note_on,,0,0,16,,,,,,,,,,,,,,,,15,,67,0
5639,note_on,,119,0,10,,,,,,,,,,,,,,,,7,,62,0
5639,note_on,,119,0,15,,,,,,,,,,,,,,,,13,,59,0
5639,note_on,,119,0,16,,,,,,,,,,,,,,,,15,,59,0
5639,note_on,,119,0,7,,,,,,,,,,,,,,,,2,,59,0
5639,note_on,,59,0,13,,,,,,,,,,,,,,,,11,,62,0
5639,note_on,,59,0,14,,,,,,,,,,,,,,,,12,,59,0
5639,note_on,,59,0,12,,,,,,,,,,,,,,,,10,,67,0
5640,note_on,,1,0,12,,,,,,,,,,,,,,,,10,,79,48
5640,note_on,,1,0,10,,,,,,,,,,,,,,,,7,,55,58
5640,note_on,,1,0,7,,,,,,,,,,,,,,,,2,,47,48
5640,note_on,,0,0,16,,,,,,,,,,,,,,,,15,,67,48
5640,note_on,,0,0,16,,,,,,,,,,,,,,,,15,,74,48
5640,note_on,,1,0,16,,,,,,,,,,,,,,,,15,,47,48
5640,note_on,,1,0,14,,,,,,,,,,,,,,,,12,,71,48
5640,note_on,,1,0,13,,,,,,,,,,,,,,,,11,,74,48
5640,note_on,,1,0,15,,,,,,,,,,,,,,,,13,,47,48
5699,note_on,,0,0,16,,,,,,,,,,,,,,,,15,,74,0
5699,note_on,,0,0,16,,,,,,,,,,,,,,,,15,,67,0
5699,note_on,,59,0,16,,,,,,,,,,,,,,,,15,,47,0
5699,note_on,,59,0,7,,,,,,,,,,,,,,,,2,,47,0
5699,note_on,,59,0,10,,,,,,,,,,,,,,,,7,,55,0
5699,note_on,,59,0,15,,,,,,,,,,,,,,,,13,,47,0
5700,note_on,,1,0,15,,,,,,,,,,,,,,,,13,,52,48
5700,note_on,,1,0,7,,,,,,,,,,,,,,,,2,,52,48
5700,note_on,,1,0,10,,,,,,,,,,,,,,,,7,,55,58
5700,note_on,,1,0,16,,,,,,,,,,,,,,,,15,,52,48
5700,note_on,,0,0,16,,,,,,,,,,,,,,,,15,,71,48
5700,note_on,,0,0,16,,,,,,,,,,,,,,,,15,,67,48
5759,note_on,,0,0,16,,,,,,,,,,,,,,,,15,,67,0
5759,note_on,,59,0,7,,,,,,,,,,,,,,,,2,,52,0
5759,note_on,,119,0,13,,,,,,,,,,,,,,,,11,,74,0
5759,note_on,,119,0,14,,,,,,,,,,,,,,,,12,,71,0
5759,note_on,,119,0,12,,,,,,,,,,,,,,,,10,,79,0
5759,note_on,,0,0,16,,,,,,,,,,,,,,,,15,,71,0
5759,note_on,,59,0,16,,,,,,,,,,,,,,,,15,,52,0
5759,note_on,,59,0,15,,,,,,,,,,,,,,,,13,,52,0
5759,note_on,,59,0,10,,,,,,,,,,,,,,,,7,,55,0
5760,note_on,,1,0,10,,,,,,,,,,,,,,,,7,,60,58
5760,note_on,,0,0,16,,,,,,,,,,,,,,,,15,,67,48
5760,note_on,,0,0,16,,,,,,,,,,,,,,,,15,,69,48
5760,note_on,,0,0,16,,,,,,,,,,,,,,,,15,,72,48
5760,note_on,,1,0,16,,,,,,,,,,,,,,,,15,,45,48
5760,note_on,,1,0,15,,,,,,,,,,,,,,,,13,,45,48
5760,note_on,,1,0,7,,,,,,,,,,,,,,,,2,,45,48
5819,note_on,,59,0,7,,,,,,,,,,,,,,,,2,,45,0
5819,note_on,,59,0,10,,,,,,,,,,,,,,,,7,,60,0
5819,note_on,,59,0,16,,,,,,,,,,,,,,,,15,,45,0
5819,note_on,,59,0,15,,,,,,,,,,,,,,,,13,,45,0
5820,note_on,,1,0,16,,,,,,,,,,,,,,,,15,,55,48
5820,note_on,,1,0,15,,,,,,,,,,,,,,,,13,,55,48
5820,note_on,,1,0,7,,,,,,,,,,,,,,,,2,,55,48
5820,note_on,,61,0,14,,,,,,,,,,,,,,,,12,,64,48
5820,note_on,,61,0,12,,,,,,,,,,,,,,,,10,,76,48
5820,note_on,,1,0,10,,,,,,,,,,,,,,,,7,,60,58
5820,note_on,,61,0,13,,,,,,,,,,,,,,,,11,,72,48
5879,note_on,,59,0,14,,,,,,,,,,,,,,,,12,,64,0
5879,note_on,,59,0,10,,,,,,,,,,,,,,,,7,,60,0
5879,note_on,,59,0,12,,,,,,,,,,,,,,,,10,,76,0
5879,note_on,,59,0,15,,,,,,,,,,,,,,,,13,,55,0
5879,note_on,,59,0,7,,,,,,,,,,,,,,,,2,,55,0
5879,note_on,,0,0,16,,,,,,,,,,,,,,,,15,,67,0
5879,note_on,,0,0,16,,,,,,,,,,,,,,,,15,,69,0
5879,note_on,,59,0,16,,,,,,,,,,,,,,,,15,,72,0
5879,note_on,,59,0,13,,,,,,,,,,,,,,,,11,,72,0
5879,note_on,,0,0,16,,,,,,,,,,,,,,,,15,,55,0
5880,note_on,,1,0,16,,,,,,,,,,,,,,,,15,,54,48
5880,note_on,,0,0,16,,,,,,,,,,,,,,,,15,,69,48
5880,note_on,,0,0,16,,,,,,,,,,,,,,,,15,,62,48
5880,note_on,,1,0,12,,,,,,,,,,,,,,,,10,,81,48
5880,note_on,,1,0,10,,,,,,,,,,,,,,,,7,,60,58
5880,note_on,,1,0,7,,,,,,,,,,,,,,,,2,,54,48
5880,note_on,,1,0,13,,,,,,,,,,,,,,,,11,,72,48
5880,note_on,,1,0,15,,,,,,,,,,,,,,,,13,,54,48
5880,note_on,,1,0,14,,,,,,,,,,,,,,,,12,,62,48
5939,note_on,,59,0,10,,,,,,,,,,,,,,,,7,,60,0
5939,note_on,,59,0,7,,,,,,,,,,,,,,,,2,,54,0
5939,note_on,,59,0,15,,,,,,,,,,,,,,,,13,,54,0
5939,note_on,,0,0,16,,,,,,,,,,,,,,,,15,,62,0
5939,note_on,,0,0,16,,,,,,,,,,,,,,,,15,,69,0
5939,note_on,,59,0,16,,,,,,,,,,,,,,,,15,,54,0
5940,note_on,,1,0,15,,,,,,,,,,,,,,,,13,,50,48
5940,note_on,,0,0,16,,,,,,,,,,,,,,,,15,,66,48
5940,note_on,,1,0,16,,,,,,,,,,,,,,,,15,,50,48
5940,note_on,,1,0,7,,,,,,,,,,,,,,,,2,,50,48
5940,note_on,,1,0,10,,,,,,,,,,,,,,,,7,,60,58
5940,note_on,,0,0,16,,,,,,,,,,,,,,,,15,,62,48
5999,note_on,,59,0,15,,,,,,,,,,,,,,,,13,,50,0
5999,note_on,,59,0,10,,,,,,,,,,,,,,,,7,,60,0
5999,note_on,,0,0,16,,,,,,,,,,,,,,,,15,,62,0
5999,note_on,,119,0,12,,,,,,,,,,,,,,,,10,,81,0
5999,note_on,,119,0,13,,,,,,,,,,,,,,,,11,,72,0
5999,note_on,,119,0,14,,,,,,,,,,,,,,,,12,,62,0
5999,note_on,,59,0,7,,,,,,,,,,,,,,,,2,,50,0
5999,note_on,,0,0,16,,,,,,,,,,,,,,,,15,,66,0
5999,note_on,,59,0,16,,,,,,,,,,,,,,,,15,,50,0
6000,note_on,,1,0,16,,,,,,,,,,,,,,,,15,,55,48
6000,note_on,,601,0,6,,,,,,,,,,,,,,,,1,,74,47
6000,note_on,,601,0,5,,,,,,,,,,,,,,,,0,,74,47
6000,note_on,,1,0,15,,,,,,,,,,,,,,,,13,,55,48
6000,note_on,,1,0,10,,,,,,,,,,,,,,,,7,,60,58
6000,note_on,,601,0,8,,,,,,,,,,,,,,,,5,,74,58
6000,note_on,,1,0,7,,,,,,,,,,,,,,,,2,,55,48
6000,note_on,,0,0,16,,,,,,,,,,,,,,,,15,,67,48
6000,note_on,,0,0,16,,,,,,,,,,,,,,,,15,,62,48
6059,note_on,,59,0,15,,,,,,,,,,,,,,,,13,,55,0
6059,note_on,,59,0,7,,,,,,,,,,,,,,,,2,,55,0
6059,note_on,,59,0,16,,,,,,,,,,,,,,,,15,,55,0
6059,note_on,,59,0,10,,,,,,,,,,,,,,,,7,,60,0
6059,note_on,,0,0,16,,,,,,,,,,,,,,,,15,,67,0
6060,note_on,,61,0,13,,,,,,,,,,,,,,,,11,,71,48
6060,note_on,,61,0,14,,,,,,,,,,,,,,,,12,,62,48
6060,note_on,,1,0,16,,,,,,,,,,,,,,,,15,,43,48
6060,note_on,,1,0,7,,,,,,,,,,,,,,,,2,,43,48
6060,note_on,,1,0,15,,,,,,,,,,,,,,,,13,,43,48
6060,note_on,,0,0,16,,,,,,,,,,,,,,,,15,,71,48
6060,note_on,,61,0,12,,,,,,,,,,,,,,,,10,,74,48
6060,note_on,,1,0,10,,,,,,,,,,,,,,,,7,,59,58
6119,note_on,,59,0,15,,,,,,,,,,,,,,,,13,,43,0
6119,note_on,,59,0,12,,,,,,,,,,,,,,,,10,,74,0
6119,note_on,,119,0,6,,,,,,,,,,,,,,,,1,,74,0
6119,note_on,,119,0,8,,,,,,,,,,,,,,,,5,,74,0
6119,note_on,,59,0,10,,,,,,,,,,,,,,,,7,,59,0
6119,note_on,,59,0,7,,,,,,,,,,,,,,,,2,,43,0
6119,note_on,,0,0,16,,,,,,,,,,,,,,,,15,,71,0
6119,note_on,,0,0,16,,,,,,,,,,,,,,,,15,,43,0
6119,note_on,,59,0,14,,,,,,,,,,,,,,,,12,,62,0
6119,note_on,,59,0,16,,,,,,,,,,,,,,,,15,,62,0
6119,note_on,,59,0,13,,,,,,,,,,,,,,,,11,,71,0
6119,note_on,,119,0,5,,,,,,,,,,,,,,,,0,,74,0
6120,note_on,,1,0,15,,,,,,,,,,,,,,,,13,,47,48
6120,note_on,,1,0,7,,,,,,,,,,,,,,,,2,,47,48
6120,note_on,,1,0,6,,,,,,,,,,,,,,,,1,,67,47
6120,note_on,,1,0,5,,,,,,,,,,,,,,,,0,,67,47
6120,note_on,,1,0,12,,,,,,,,,,,,,,,,10,,79,48
6120,note_on,,1,0,16,,,,,,,,,,,,,,,,15,,47,48
6120,note_on,,0,0,16,,,,,,,,,,,,,,,,15,,74,48
6120,note_on,,0,0,16,,,,,,,,,,,,,,,,15,,67,48
6120,note_on,,0,0,16,,,,,,,,,,,,,,,,15,,62,48
6120,note_on,,1,0,13,,,,,,,,,,,,,,,,11,,71,48
6120,note_on,,1,0,14,,,,,,,,,,,,,,,,12,,62,48
6120,note_on,,1,0,8,,,,,,,,,,,,,,,,5,,67,58
6179,note_on,,59,0,8,,,,,,,,,,,,,,,,5,,67,0
6179,note_on,,59,0,5,,,,,,,,,,,,,,,,0,,67,0
6179,note_on,,59,0,7,,,,,,,,,,,,,,,,2,,47,0
6179,note_on,,59,0,16,,,,,,,,,,,,,,,,15,,47,0
6179,note_on,,0,0,16,,,,,,,,,,,,,,,,15,,74,0
6179,note_on,,0,0,16,,,,,,,,,,,,,,,,15,,67,0
6179,note_on,,0,0,16,,,,,,,,,,,,,,,,15,,62,0
6179,note_on,,59,0,6,,,,,,,,,,,,,,,,1,,67,0
6179,note_on,,59,0,15,,,,,,,,,,,,,,,,13,,47,0
6180,note_on,,1,0,8,,,,,,,,,,,,,,,,5,,67,58
6180,note_on,,1,0,6,,,,,,,,,,,,,,,,1,,67,47
6180,note_on,,1,0,7,,,,,,,,,,,,,,,,2,,43,48
6180,note_on,,1,0,16,,,,,,,,,,,,,,,,15,,43,48
6180,note_on,,0,0,16,,,,,,,,,,,,,,,,15,,71,48
6180,note_on,,0,0,16,,,,,,,,,,,,,,,,15,,67,48
6180,note_on,,1,0,15,,,,,,,,,,,,,,,,13,,43,48
6180,note_on,,1,0,5,,,,,,,,,,,,,,,,0,,67,47
6180,note_on,,0,0,16,,,,,,,,,,,,,,,,15,,62,48
6239,note_on,,59,0,8,,,,,,,,,,,,,,,,5,,67,0
6239,note_on,,59,0,16,,,,,,,,,,,,,,,,15,,43,0
6239,note_on,,59,0,7,,,,,,,,,,,,,,,,2,,43,0
6239,note_on,,59,0,15,,,,,,,,,,,,,,,,13,,43,0
6239,note_on,,59,0,5,,,,,,,,,,,,,,,,0,,67,0
6239,note_on,,119,0,12,,,,,,,,,,,,,,,,10,,79,0
6239,note_on,,59,0,6,,,,,,,,,,,,,,,,1,,67,0
6239,note_on,,119,0,13,,,,,,,,,,,,,,,,11,,71,0
6239,note_on,,119,0,14,,,,,,,,,,,,,,,,12,,62,0
6239,note_on,,0,0,16,,,,,,,,,,,,,,,,15,,71,0
6239,note_on,,0,0,16,,,,,,,,,,,,,,,,15,,67,0
6239,note_on,,0,0,16,,,,,,,,,,,,,,,,15,,62,0
6240,note_on,,0,0,16,,,,,,,,,,,,,,,,15,,60,48
6240,note_on,,0,0,16,,,,,,,,,,,,,,,,15,,67,48
6240,note_on,,1,0,15,,,,,,,,,,,,,,,,13,,45,48
6240,note_on,,0,0,16,,,,,,,,,,,,,,,,15,,69,48
6240,note_on,,1,0,7,,,,,,,,,,,,,,,,2,,45,48
6240,note_on,,1,0,8,,,,,,,,,,,,,,,,5,,72,58
6240,note_on,,1,0,16,,,,,,,,,,,,,,,,15,,45,48
6240,note_on,,1,0,6,,,,,,,,,,,,,,,,1,,72,47
6240,note_on,,1,0,5,,,,,,,,,,,,,,,,0,,72,47
6299,note_on,,59,0,7,,,,,,,,,,,,,,,,2,,45,0
6299,note_on,,59,0,15,,,,,,,,,,,,,,,,13,,45,0
6299,note_on,,59,0,16,,,,,,,,,,,,,,,,15,,45,0
6299,note_on,,59,0,6,,,,,,,,,,,,,,,,1,,72,0
6299,note_on,,59,0,5,,,,,,,,,,,,,,,,0,,72,0
6299,note_on,,59,0,8,,,,,,,,,,,,,,,,5,,72,0
6300,note_on,,1,0,5,,,,,,,,,,,,,,,,0,,72,47
6300,note_on,,1,0,15,,,,,,,,,,,,,,,,13,,55,48
6300,note_on,,1,0,8,,,,,,,,,,,,,,,,5,,72,58
6300,note_on,,1,0,7,,,,,,,,,,,,,,,,2,,55,48
6300,note_on,,1,0,16,,,,,,,,,,,,,,,,15,,55,48
6300,note_on,,1,0,6,,,,,,,,,,,,,,,,1,,72,47
6359,note_on,,0,0,16,,,,,,,,,,,,,,,,15,,60,0
6359,note_on,,59,0,7,,,,,,,,,,,,,,,,2,,55,0
6359,note_on,,0,0,16,,,,,,,,,,,,,,,,15,,67,0
6359,note_on,,0,0,16,,,,,,,,,,,,,,,,15,,55,0
6359,note_on,,59,0,16,,,,,,,,,,,,,,,,15,,69,0
6359,note_on,,59,0,6,,,,,,,,,,,,,,,,1,,72,0
6359,note_on,,59,0,15,,,,,,,,,,,,,,,,13,,55,0
6359,note_on,,59,0,8,,,,,,,,,,,,,,,,5,,72,0
6359,note_on,,59,0,5,,,,,,,,,,,,,,,,0,,72,0
6360,note_on,,1,0,6,,,,,,,,,,,,,,,,1,,72,47
6360,note_on,,1,0,8,,,,,,,,,,,,,,,,5,,72,58
6360,note_on,,1,0,5,,,,,,,,,,,,,,,,0,,72,47
6360,note_on,,0,0,16,,,,,,,,,,,,,,,,15,,57,48
6360,note_on,,0,0,16,,,,,,,,,,,,,,,,15,,62,48
6360,note_on,,1,0,16,,,,,,,,,,,,,,,,15,,54,48
6360,note_on,,1,0,7,,,,,,,,,,,,,,,,2,,54,48
6360,note_on,,1,0,15,,,,,,,,,,,,,,,,13,,54,48
6419,note_on,,59,0,5,,,,,,,,,,,,,,,,0,,72,0
6419,note_on,,59,0,7,,,,,,,,,,,,,,,,2,,54,0
6419,note_on,,59,0,6,,,,,,,,,,,,,,,,1,,72,0
6419,note_on,,59,0,15,,,,,,,,,,,,,,,,13,,54,0
6419,note_on,,59,0,16,,,,,,,,,,,,,,,,15,,54,0
6419,note_on,,0,0,16,,,,,,,,,,,,,,,,15,,62,0
6419,note_on,,0,0,16,,,,,,,,,,,,,,,,15,,57,0
6419,note_on,,59,0,8,,,,,,,,,,,,,,,,5,,72,0
6420,note_on,,1,0,15,,,,,,,,,,,,,,,,13,,50,48
6420,note_on,,0,0,16,,,,,,,,,,,,,,,,15,,57,48
6420,note_on,,0,0,16,,,,,,,,,,,,,,,,15,,62,48
6420,note_on,,0,0,16,,,,,,,,,,,,,,,,15,,66,48
6420,note_on,,1,0,16,,,,,,,,,,,,,,,,15,,50,48
6420,note_on,,1,0,5,,,,,,,,,,,,,,,,0,,72,47
6420,note_on,,1,0,6,,,,,,,,,,,,,,,,1,,72,47
6420,note_on,,1,0,7,,,,,,,,,,,,,,,,2,,50,48
6420,note_on,,1,0,8,,,,,,,,,,,,,,,,5,,72,58
6479,note_on,,59,0,8,,,,,,,,,,,,,,,,5,,72,0
6479,note_on,,0,0,16,,,,,,,,,,,,,,,,15,,66,0
6479,note_on,,0,0,16,,,,,,,,,,,,,,,,15,,62,0
6479,note_on,,0,0,16,,,,,,,,,,,,,,,,15,,57,0
6479,note_on,,59,0,6,,,,,,,,,,,,,,,,1,,72,0
6479,note_on,,59,0,15,,,,,,,,,,,,,,,,13,,50,0
6479,note_on,,59,0,16,,,,,,,,,,,,,,,,15,,50,0
6479,note_on,,59,0,5,,,,,,,,,,,,,,,,0,,72,0
6479,note_on,,59,0,7,,,,,,,,,,,,,,,,2,,50,0
6480,note_on,,1,0,15,,,,,,,,,,,,,,,,13,,55,48
6480,note_on,,0,0,16,,,,,,,,,,,,,,,,15,,62,48
6480,note_on,,0,0,16,,,,,,,,,,,,,,,,15,,59,48
6480,note_on,,1,0,16,,,,,,,,,,,,,,,,15,,55,48
6480,note_on,,1,0,6,,,,,,,,,,,,,,,,1,,71,47
6480,note_on,,1,0,7,,,,,,,,,,,,,,,,2,,55,48
6480,note_on,,1,0,5,,,,,,,,,,,,,,,,0,,71,47
6480,note_on,,1,0,8,,,,,,,,,,,,,,,,5,,71,58
6480,note_on,,0,0,16,,,,,,,,,,,,,,,,15,,67,48
6509,note_on,,29,0,5,,,,,,,,,,,,,,,,0,,71,0
6509,note_on,,29,0,6,,,,,,,,,,,,,,,,1,,71,0
6509,note_on,,29,0,8,,,,,,,,,,,,,,,,5,,71,0
6510,note_on,,1,0,8,,,,,,,,,,,,,,,,5,,69,58
6510,note_on,,1,0,6,,,,,,,,,,,,,,,,1,,69,47
6510,note_on,,1,0,5,,,,,,,,,,,,,,,,0,,69,47
6539,note_on,,29,0,6,,,,,,,,,,,,,,,,1,,69,0
6539,note_on,,29,0,5,,,,,,,,,,,,,,,,0,,69,0
6539,note_on,,29,0,8,,,,,,,,,,,,,,,,5,,69,0
6540,note_on,,1,0,8,,,,,,,,,,,,,,,,5,,71,58
6540,note_on,,1,0,6,,,,,,,,,,,,,,,,1,,71,47
6540,note_on,,1,0,5,,,,,,,,,,,,,,,,0,,71,47
6569,note_on,,29,0,5,,,,,,,,,,,,,,,,0,,71,0
6569,note_on,,29,0,8,,,,,,,,,,,,,,,,5,,71,0
6569,note_on,,29,0,6,,,,,,,,,,,,,,,,1,,71,0
6570,note_on,,1,0,8,,,,,,,,,,,,,,,,5,,72,58
6570,note_on,,1,0,6,,,,,,,,,,,,,,,,1,,72,47
6570,note_on,,1,0,5,,,,,,,,,,,,,,,,0,,72,47
6599,note_on,,29,0,6,,,,,,,,,,,,,,,,1,,72,0
6599,note_on,,119,0,15,,,,,,,,,,,,,,,,13,,55,0
6599,note_on,,0,0,16,,,,,,,,,,,,,,,,15,,59,0
6599,note_on,,0,0,16,,,,,,,,,,,,,,,,15,,62,0
6599,note_on,,0,0,16,,,,,,,,,,,,,,,,15,,67,0
6599,note_on,,119,0,16,,,,,,,,,,,,,,,,15,,55,0
6599,note_on,,29,0,8,,,,,,,,,,,,,,,,5,,72,0
6599,note_on,,119,0,7,,,,,,,,,,,,,,,,2,,55,0
6599,note_on,,29,0,5,,,,,,,,,,,,,,,,0,,72,0
6600,note_on,,1,0,7,,,,,,,,,,,,,,,,2,,43,48
6600,note_on,,1,0,6,,,,,,,,,,,,,,,,1,,71,47
6600,note_on,,0,0,16,,,,,,,,,,,,,,,,15,,67,48
6600,note_on,,0,0,16,,,,,,,,,,,,,,,,15,,62,48
6600,note_on,,481,0,10,,,,,,,,,,,,,,,,7,,55,58
6600,note_on,,1,0,16,,,,,,,,,,,,,,,,15,,43,48
6600,note_on,,0,0,16,,,,,,,,,,,,,,,,15,,71,48
6600,note_on,,1,0,5,,,,,,,,,,,,,,,,0,,71,47
6600,note_on,,1,0,15,,,,,,,,,,,,,,,,13,,43,48
6600,note_on,,1,0,8,,,,,,,,,,,,,,,,5,,71,58
6629,note_on,,29,0,8,,,,,,,,,,,,,,,,5,,71,0
6629,note_on,,29,0,6,,,,,,,,,,,,,,,,1,,71,0
6629,note_on,,29,0,5,,,,,,,,,,,,,,,,0,,71,0
6630,note_on,,1,0,8,,,,,,,,,,,,,,,,5,,72,58
6630,note_on,,1,0,6,,,,,,,,,,,,,,,,1,,72,47
6630,note_on,,1,0,5,,,,,,,,,,,,,,,,0,,72,47
6659,note_on,,0,0,16,,,,,,,,,,,,,,,,15,,67,0
6659,note_on,,0,0,16,,,,,,,,,,,,,,,,15,,71,0
6659,note_on,,59,0,16,,,,,,,,,,,,,,,,15,,43,0
6659,note_on,,0,0,16,,,,,,,,,,,,,,,,15,,62,0
6659,note_on,,29,0,8,,,,,,,,,,,,,,,,5,,72,0
6659,note_on,,29,0,6,,,,,,,,,,,,,,,,1,,72,0
6659,note_on,,59,0,10,,,,,,,,,,,,,,,,7,,55,0
6659,note_on,,59,0,15,,,,,,,,,,,,,,,,13,,43,0
6659,note_on,,59,0,7,,,,,,,,,,,,,,,,2,,43,0
6659,note_on,,29,0,5,,,,,,,,,,,,,,,,0,,72,0
6660,note_on,,0,0,16,,,,,,,,,,,,,,,,15,,62,48
6660,note_on,,1,0,6,,,,,,,,,,,,,,,,1,,69,47
6660,note_on,,1,0,15,,,,,,,,,,,,,,,,13,,47,48
6660,note_on,,0,0,16,,,,,,,,,,,,,,,,15,,67,48
6660,note_on,,0,0,16,,,,,,,,,,,,,,,,15,,74,48
6660,note_on,,1,0,8,,,,,,,,,,,,,,,,5,,69,58
6660,note_on,,1,0,16,,,,,,,,,,,,,,,,15,,47,48
6660,note_on,,1,0,10,,,,,,,,,,,,,,,,7,,54,58
6660,note_on,,1,0,5,,,,,,,,,,,,,,,,0,,69,47
6660,note_on,,1,0,7,,,,,,,,,,,,,,,,2,,47,48
6689,note_on,,29,0,6,,,,,,,,,,,,,,,,1,,69,0
6689,note_on,,29,0,8,,,,,,,,,,,,,,,,5,,69,0
6689,note_on,,29,0,5,,,,,,,,,,,,,,,,0,,69,0
6690,note_on,,1,0,6,,,,,,,,,,,,,,,,1,,71,47
6690,note_on,,1,0,5,,,,,,,,,,,,,,,,0,,71,47
6690,note_on,,1,0,8,,,,,,,,,,,,,,,,5,,71,58
6719,note_on,,29,0,5,,,,,,,,,,,,,,,,0,,71,0
6719,note_on,,29,0,6,,,,,,,,,,,,,,,,1,,71,0
6719,note_on,,59,0,7,,,,,,,,,,,,,,,,2,,47,0
6719,note_on,,0,0,16,,,,,,,,,,,,,,,,15,,62,0
6719,note_on,,0,0,16,,,,,,,,,,,,,,,,15,,67,0
6719,note_on,,0,0,16,,,,,,,,,,,,,,,,15,,74,0
6719,note_on,,59,0,16,,,,,,,,,,,,,,,,15,,47,0
6719,note_on,,59,0,15,,,,,,,,,,,,,,,,13,,47,0
6719,note_on,,29,0,8,,,,,,,,,,,,,,,,5,,71,0
6719,note_on,,59,0,10,,,,,,,,,,,,,,,,7,,54,0
6720,note_on,,0,0,16,,,,,,,,,,,,,,,,15,,60,48
6720,note_on,,1,0,15,,,,,,,,,,,,,,,,13,,48,48
6720,note_on,,1,0,7,,,,,,,,,,,,,,,,2,,48,48
6720,note_on,,0,0,16,,,,,,,,,,,,,,,,15,,67,48
6720,note_on,,1,0,16,,,,,,,,,,,,,,,,15,,48,48
6720,note_on,,1,0,5,,,,,,,,,,,,,,,,0,,67,47
6720,note_on,,1,0,10,,,,,,,,,,,,,,,,7,,52,58
6720,note_on,,1,0,6,,,,,,,,,,,,,,,,1,,67,47
6720,note_on,,0,0,16,,,,,,,,,,,,,,,,15,,64,48
6720,note_on,,1,0,8,,,,,,,,,,,,,,,,5,,67,58
6749,note_on,,29,0,6,,,,,,,,,,,,,,,,1,,67,0
6749,note_on,,29,0,8,,,,,,,,,,,,,,,,5,,67,0
6749,note_on,,29,0,5,,,,,,,,,,,,,,,,0,,67,0
6750,note_on,,1,0,8,,,,,,,,,,,,,,,,5,,66,58
6750,note_on,,1,0,6,,,,,,,,,,,,,,,,1,,66,47
6750,note_on,,1,0,5,,,,,,,,,,,,,,,,0,,66,47
6779,note_on,,29,0,8,,,,,,,,,,,,,,,,5,,66,0
6779,note_on,,29,0,5,,,,,,,,,,,,,,,,0,,66,0
6779,note_on,,29,0,6,,,,,,,,,,,,,,,,1,,66,0
6780,note_on,,1,0,8,,,,,,,,,,,,,,,,5,,67,58
6780,note_on,,1,0,6,,,,,,,,,,,,,,,,1,,67,47
6780,note_on,,1,0,5,,,,,,,,,,,,,,,,0,,67,47
6809,note_on,,29,0,5,,,,,,,,,,,,,,,,0,,67,0
6809,note_on,,29,0,8,,,,,,,,,,,,,,,,5,,67,0
6809,note_on,,29,0,6,,,,,,,,,,,,,,,,1,,67,0
6810,note_on,,1,0,6,,,,,,,,,,,,,,,,1,,69,47
6810,note_on,,1,0,8,,,,,,,,,,,,,,,,5,,69,58
6810,note_on,,1,0,5,,,,,,,,,,,,,,,,0,,69,47
6839,note_on,,29,0,5,,,,,,,,,,,,,,,,0,,69,0
6839,note_on,,119,0,16,,,,,,,,,,,,,,,,15,,48,0
6839,note_on,,119,0,15,,,,,,,,,,,,,,,,13,,48,0
6839,note_on,,0,0,16,,,,,,,,,,,,,,,,15,,64,0
6839,note_on,,0,0,16,,,,,,,,,,,,,,,,15,,60,0
6839,note_on,,29,0,6,,,,,,,,,,,,,,,,1,,69,0
6839,note_on,,119,0,10,,,,,,,,,,,,,,,,7,,52,0
6839,note_on,,29,0,8,,,,,,,,,,,,,,,,5,,69,0
6839,note_on,,0,0,16,,,,,,,,,,,,,,,,15,,67,0
6839,note_on,,119,0,7,,,,,,,,,,,,,,,,2,,48,0
6840,note_on,,601,0,13,,,,,,,,,,,,,,,,11,,64,48
6840,note_on,,601,0,14,,,,,,,,,,,,,,,,12,,60,48
6840,note_on,,1,0,6,,,,,,,,,,,,,,,,1,,67,47
6840,note_on,,601,0,12,,,,,,,,,,,,,,,,10,,67,48
6840,note_on,,1,0,5,,,,,,,,,,,,,,,,0,,67,47
6840,note_on,,1,0,8,,,,,,,,,,,,,,,,5,,67,58
6869,note_on,,29,0,5,,,,,,,,,,,,,,,,0,,67,0
6869,note_on,,29,0,8,,,,,,,,,,,,,,,,5,,67,0
6869,note_on,,29,0,6,,,,,,,,,,,,,,,,1,,67,0
6870,note_on,,1,0,5,,,,,,,,,,,,,,,,0,,71,47
6870,note_on,,1,0,6,,,,,,,,,,,,,,,,1,,71,47
6870,note_on,,1,0,8,,,,,,,,,,,,,,,,5,,71,58
6899,note_on,,29,0,6,,,,,,,,,,,,,,,,1,,71,0
6899,note_on,,29,0,8,,,,,,,,,,,,,,,,5,,71,0
6899,note_on,,29,0,5,,,,,,,,,,,,,,,,0,,71,0
6900,note_on,,1,0,8,,,,,,,,,,,,,,,,5,,69,58
6900,note_on,,1,0,5,,,,,,,,,,,,,,,,0,,69,47
6900,note_on,,1,0,6,,,,,,,,,,,,,,,,1,,69,47
6929,note_on,,29,0,6,,,,,,,,,,,,,,,,1,,69,0
6929,note_on,,29,0,8,,,,,,,,,,,,,,,,5,,69,0
6929,note_on,,29,0,5,,,,,,,,,,,,,,,,0,,69,0
6930,note_on,,1,0,6,,,,,,,,,,,,,,,,1,,71,47
6930,note_on,,1,0,8,,,,,,,,,,,,,,,,5,,71,58
6930,note_on,,1,0,5,,,,,,,,,,,,,,,,0,,71,47
6959,note_on,,29,0,8,,,,,,,,,,,,,,,,5,,71,0
6959,note_on,,119,0,14,,,,,,,,,,,,,,,,12,,60,0
6959,note_on,,29,0,6,,,,,,,,,,,,,,,,1,,71,0
6959,note_on,,119,0,12,,,,,,,,,,,,,,,,10,,67,0
6959,note_on,,119,0,13,,,,,,,,,,,,,,,,11,,64,0
6959,note_on,,29,0,5,,,,,,,,,,,,,,,,0,,71,0
6960,note_on,,0,0,16,,,,,,,,,,,,,,,,15,,60,48
6960,note_on,,0,0,16,,,,,,,,,,,,,,,,15,,64,48
6960,note_on,,0,0,16,,,,,,,,,,,,,,,,15,,69,48
6960,note_on,,121,0,16,,,,,,,,,,,,,,,,15,,45,48
6960,note_on,,1,0,8,,,,,,,,,,,,,,,,5,,72,58
6960,note_on,,121,0,7,,,,,,,,,,,,,,,,2,,45,48
6960,note_on,,1,0,6,,,,,,,,,,,,,,,,1,,72,47
6960,note_on,,1,0,5,,,,,,,,,,,,,,,,0,,72,47
6960,note_on,,121,0,15,,,,,,,,,,,,,,,,13,,45,48
6989,note_on,,29,0,5,,,,,,,,,,,,,,,,0,,72,0
6989,note_on,,29,0,6,,,,,,,,,,,,,,,,1,,72,0
6989,note_on,,29,0,8,,,,,,,,,,,,,,,,5,,72,0
6990,note_on,,1,0,8,,,,,,,,,,,,,,,,5,,71,58
6990,note_on,,1,0,6,,,,,,,,,,,,,,,,1,,71,47
6990,note_on,,1,0,5,,,,,,,,,,,,,,,,0,,71,47
7019,note_on,,29,0,8,,,,,,,,,,,,,,,,5,,71,0
7019,note_on,,29,0,5,,,,,,,,,,,,,,,,0,,71,0
7019,note_on,,29,0,6,,,,,,,,,,,,,,,,1,,71,0
7020,note_on,,181,0,10,,,,,,,,,,,,,,,,7,,52,58
7020,note_on,,1,0,8,,,,,,,,,,,,,,,,5,,72,58
7020,note_on,,1,0,6,,,,,,,,,,,,,,,,1,,72,47
7020,note_on,,1,0,5,,,,,,,,,,,,,,,,0,,72,47
7049,note_on,,29,0,5,,,,,,,,,,,,,,,,0,,72,0
7049,note_on,,29,0,8,,,,,,,,,,,,,,,,5,,72,0
7049,note_on,,29,0,6,,,,,,,,,,,,,,,,1,,72,0
7050,note_on,,1,0,8,,,,,,,,,,,,,,,,5,,74,58
7050,note_on,,1,0,6,,,,,,,,,,,,,,,,1,,74,47
7050,note_on,,1,0,5,,,,,,,,,,,,,,,,0,,74,47
7079,note_on,,59,0,10,,,,,,,,,,,,,,,,7,,52,0
7079,note_on,,29,0,5,,,,,,,,,,,,,,,,0,,74,0
7079,note_on,,0,0,16,,,,,,,,,,,,,,,,15,,64,0
7079,note_on,,0,0,16,,,,,,,,,,,,,,,,15,,69,0
7079,note_on,,119,0,16,,,,,,,,,,,,,,,,15,,45,0
7079,note_on,,29,0,8,,,,,,,,,,,,,,,,5,,74,0
7079,note_on,,29,0,6,,,,,,,,,,,,,,,,1,,74,0
7079,note_on,,119,0,15,,,,,,,,,,,,,,,,13,,45,0
7079,note_on,,119,0,7,,,,,,,,,,,,,,,,2,,45,0
7079,note_on,,0,0,16,,,,,,,,,,,,,,,,15,,60,0
7080,note_on,,121,0,14,,,,,,,,,,,,,,,,12,,64,48
7080,note_on,,1,0,5,,,,,,,,,,,,,,,,0,,72,47
7080,note_on,,1,0,10,,,,,,,,,,,,,,,,7,,57,58
7080,note_on,,121,0,13,,,,,,,,,,,,,,,,11,,69,48
7080,note_on,,121,0,12,,,,,,,,,,,,,,,,10,,72,48
7080,note_on,,1,0,6,,,,,,,,,,,,,,,,1,,72,47
7080,note_on,,1,0,8,,,,,,,,,,,,,,,,5,,72,58
7109,note_on,,29,0,5,,,,,,,,,,,,,,,,0,,72,0
7109,note_on,,29,0,6,,,,,,,,,,,,,,,,1,,72,0
7109,note_on,,29,0,8,,,,,,,,,,,,,,,,5,,72,0
7110,note_on,,1,0,8,,,,,,,,,,,,,,,,5,,74,58
7110,note_on,,1,0,5,,,,,,,,,,,,,,,,0,,74,47
7110,note_on,,1,0,6,,,,,,,,,,,,,,,,1,,74,47
7139,note_on,,59,0,10,,,,,,,,,,,,,,,,7,,57,0
7139,note_on,,29,0,6,,,,,,,,,,,,,,,,1,,74,0
7139,note_on,,29,0,5,,,,,,,,,,,,,,,,0,,74,0
7139,note_on,,29,0,8,,,,,,,,,,,,,,,,5,,74,0
7140,note_on,,1,0,6,,,,,,,,,,,,,,,,1,,71,47
7140,note_on,,1,0,5,,,,,,,,,,,,,,,,0,,71,47
7140,note_on,,1,0,8,,,,,,,,,,,,,,,,5,,71,58
7140,note_on,,1,0,10,,,,,,,,,,,,,,,,7,,55,58
7169,note_on,,29,0,5,,,,,,,,,,,,,,,,0,,71,0
7169,note_on,,29,0,6,,,,,,,,,,,,,,,,1,,71,0
7169,note_on,,29,0,8,,,,,,,,,,,,,,,,5,,71,0
7170,note_on,,1,0,6,,,,,,,,,,,,,,,,1,,72,47
7170,note_on,,1,0,5,,,,,,,,,,,,,,,,0,,72,47
7170,note_on,,1,0,8,,,,,,,,,,,,,,,,5,,72,58
7199,note_on,,29,0,6,,,,,,,,,,,,,,,,1,,72,0
7199,note_on,,119,0,14,,,,,,,,,,,,,,,,12,,64,0
7199,note_on,,29,0,5,,,,,,,,,,,,,,,,0,,72,0
7199,note_on,,29,0,8,,,,,,,,,,,,,,,,5,,72,0
7199,note_on,,119,0,12,,,,,,,,,,,,,,,,10,,72,0
7199,note_on,,119,0,13,,,,,,,,,,,,,,,,11,,69,0
7199,note_on,,59,0,10,,,,,,,,,,,,,,,,7,,55,0
7200,note_on,,121,0,15,,,,,,,,,,,,,,,,13,,50,48
7200,note_on,,121,0,16,,,,,,,,,,,,,,,,15,,57,48
7200,note_on,,1,0,5,,,,,,,,,,,,,,,,0,,69,47
7200,note_on,,0,0,16,,,,,,,,,,,,,,,,15,,50,48
7200,note_on,,1,0,6,,,,,,,,,,,,,,,,1,,69,47
7200,note_on,,0,0,16,,,,,,,,,,,,,,,,15,,66,48
7200,note_on,,1,0,8,,,,,,,,,,,,,,,,5,,69,58
7200,note_on,,0,0,16,,,,,,,,,,,,,,,,15,,62,48
7200,note_on,,1,0,10,,,,,,,,,,,,,,,,7,,54,58
7200,note_on,,121,0,7,,,,,,,,,,,,,,,,2,,50,48
7229,note_on,,29,0,6,,,,,,,,,,,,,,,,1,,69,0
7229,note_on,,29,0,5,,,,,,,,,,,,,,,,0,,69,0
7229,note_on,,29,0,8,,,,,,,,,,,,,,,,5,,69,0
7230,note_on,,1,0,8,,,,,,,,,,,,,,,,5,,67,58
7230,note_on,,1,0,5,,,,,,,,,,,,,,,,0,,67,47
7230,note_on,,1,0,6,,,,,,,,,,,,,,,,1,,67,47
7259,note_on,,59,0,10,,,,,,,,,,,,,,,,7,,54,0
7259,note_on,,29,0,5,,,,,,,,,,,,,,,,0,,67,0
7259,note_on,,29,0,8,,,,,,,,,,,,,,,,5,,67,0
7259,note_on,,29,0,6,,,,,,,,,,,,,,,,1,,67,0
7260,note_on,,1,0,10,,,,,,,,,,,,,,,,7,,54,58
7260,note_on,,1,0,8,,,,,,,,,,,,,,,,5,,69,58
7260,note_on,,1,0,5,,,,,,,,,,,,,,,,0,,69,47
7260,note_on,,1,0,6,,,,,,,,,,,,,,,,1,,69,47
7289,note_on,,29,0,6,,,,,,,,,,,,,,,,1,,69,0
7289,note_on,,29,0,8,,,,,,,,,,,,,,,,5,,69,0
7289,note_on,,29,0,5,,,,,,,,,,,,,,,,0,,69,0
7290,note_on,,1,0,6,,,,,,,,,,,,,,,,1,,71,47
7290,note_on,,1,0,8,,,,,,,,,,,,,,,,5,,71,58
7290,note_on,,1,0,5,,,,,,,,,,,,,,,,0,,71,47
7319,note_on,,29,0,8,,,,,,,,,,,,,,,,5,,71,0
7319,note_on,,119,0,7,,,,,,,,,,,,,,,,2,,50,0
7319,note_on,,119,0,15,,,,,,,,,,,,,,,,13,,50,0
7319,note_on,,119,0,16,,,,,,,,,,,,,,,,15,,57,0
7319,note_on,,59,0,10,,,,,,,,,,,,,,,,7,,54,0
7319,note_on,,0,0,16,,,,,,,,,,,,,,,,15,,66,0
7319,note_on,,0,0,16,,,,,,,,,,,,,,,,15,,62,0
7319,note_on,,0,0,16,,,,,,,,,,,,,,,,15,,50,0
7319,note_on,,29,0,5,,,,,,,,,,,,,,,,0,,71,0
7319,note_on,,29,0,6,,,,,,,,,,,,,,,,1,,71,0
7320,note_on,,121,0,13,,,,,,,,,,,,,,,,11,,66,48
7320,note_on,,1,0,8,,,,,,,,,,,,,,,,5,,69,58
7320,note_on,,1,0,6,,,,,,,,,,,,,,,,1,,69,47
7320,note_on,,121,0,14,,,,,,,,,,,,,,,,12,,62,48
7320,note_on,,121,0,12,,,,,,,,,,,,,,,,10,,69,48
7320,note_on,,1,0,5,,,,,,,,,,,,,,,,0,,69,47
7349,note_on,,29,0,5,,,,,,,,,,,,,,,,0,,69,0
7349,note_on,,29,0,8,,,,,,,,,,,,,,,,5,,69,0
7349,note_on,,29,0,6,,,,,,,,,,,,,,,,1,,69,0
7350,note_on,,1,0,6,,,,,,,,,,,,,,,,1,,72,47
7350,note_on,,1,0,5,,,,,,,,,,,,,,,,0,,72,47
7350,note_on,,1,0,8,,,,,,,,,,,,,,,,5,,72,58
7379,note_on,,29,0,5,,,,,,,,,,,,,,,,0,,72,0
7379,note_on,,29,0,8,,,,,,,,,,,,,,,,5,,72,0
7379,note_on,,29,0,6,,,,,,,,,,,,,,,,1,,72,0
7380,note_on,,1,0,8,,,,,,,,,,,,,,,,5,,71,58
7380,note_on,,1,0,5,,,,,,,,,,,,,,,,0,,71,47
7380,note_on,,1,0,6,,,,,,,,,,,,,,,,1,,71,47
7409,note_on,,29,0,6,,,,,,,,,,,,,,,,1,,71,0
7409,note_on,,29,0,5,,,,,,,,,,,,,,,,0,,71,0
7409,note_on,,29,0,8,,,,,,,,,,,,,,,,5,,71,0
7410,note_on,,1,0,8,,,,,,,,,,,,,,,,5,,72,58
7410,note_on,,1,0,5,,,,,,,,,,,,,,,,0,,72,47
7410,note_on,,1,0,6,,,,,,,,,,,,,,,,1,,72,47
7439,note_on,,29,0,8,,,,,,,,,,,,,,,,5,,72,0
7439,note_on,,119,0,12,,,,,,,,,,,,,,,,10,,69,0
7439,note_on,,29,0,5,,,,,,,,,,,,,,,,0,,72,0
7439,note_on,,29,0,6,,,,,,,,,,,,,,,,1,,72,0
7439,note_on,,119,0,14,,,,,,,,,,,,,,,,12,,62,0
7439,note_on,,119,0,13,,,,,,,,,,,,,,,,11,,66,0
7440,note_on,,121,0,16,,,,,,,,,,,,,,,,15,,47,48
7440,note_on,,1,0,5,,,,,,,,,,,,,,,,0,,74,47
7440,note_on,,1,0,6,,,,,,,,,,,,,,,,1,,74,47
7440,note_on,,0,0,16,,,,,,,,,,,,,,,,15,,71,48
7440,note_on,,121,0,15,,,,,,,,,,,,,,,,13,,47,48
7440,note_on,,0,0,16,,,,,,,,,,,,,,,,15,,66,48
7440,note_on,,1,0,8,,,,,,,,,,,,,,,,5,,74,58
7440,note_on,,0,0,16,,,,,,,,,,,,,,,,15,,62,48
7440,note_on,,121,0,7,,,,,,,,,,,,,,,,2,,47,48
7469,note_on,,29,0,8,,,,,,,,,,,,,,,,5,,74,0
7469,note_on,,29,0,5,,,,,,,,,,,,,,,,0,,74,0
7469,note_on,,29,0,6,,,,,,,,,,,,,,,,1,,74,0
7470,note_on,,1,0,6,,,,,,,,,,,,,,,,1,,72,47
7470,note_on,,1,0,5,,,,,,,,,,,,,,,,0,,72,47
7470,note_on,,1,0,8,,,,,,,,,,,,,,,,5,,72,58
7499,note_on,,29,0,8,,,,,,,,,,,,,,,,5,,72,0
7499,note_on,,29,0,6,,,,,,,,,,,,,,,,1,,72,0
7499,note_on,,29,0,5,,,,,,,,,,,,,,,,0,,72,0
7500,note_on,,1,0,8,,,,,,,,,,,,,,,,5,,74,58
7500,note_on,,1,0,5,,,,,,,,,,,,,,,,0,,74,47
7500,note_on,,1,0,6,,,,,,,,,,,,,,,,1,,74,47
7529,note_on,,29,0,6,,,,,,,,,,,,,,,,1,,74,0
7529,note_on,,29,0,8,,,,,,,,,,,,,,,,5,,74,0
7529,note_on,,29,0,5,,,,,,,,,,,,,,,,0,,74,0
7530,note_on,,1,0,8,,,,,,,,,,,,,,,,5,,76,58
7530,note_on,,1,0,5,,,,,,,,,,,,,,,,0,,76,47
7530,note_on,,1,0,6,,,,,,,,,,,,,,,,1,,76,47
7559,note_on,,29,0,8,,,,,,,,,,,,,,,,5,,76,0
7559,note_on,,119,0,7,,,,,,,,,,,,,,,,2,,47,0
7559,note_on,,0,0,16,,,,,,,,,,,,,,,,15,,62,0
7559,note_on,,0,0,16,,,,,,,,,,,,,,,,15,,71,0
7559,note_on,,119,0,16,,,,,,,,,,,,,,,,15,,47,0
7559,note_on,,119,0,15,,,,,,,,,,,,,,,,13,,47,0
7559,note_on,,0,0,16,,,,,,,,,,,,,,,,15,,66,0
7559,note_on,,29,0,6,,,,,,,,,,,,,,,,1,,76,0
7559,note_on,,29,0,5,,,,,,,,,,,,,,,,0,,76,0
7560,note_on,,1,0,5,,,,,,,,,,,,,,,,0,,74,47
7560,note_on,,241,0,10,,,,,,,,,,,,,,,,7,,59,58
7560,note_on,,121,0,12,,,,,,,,,,,,,,,,10,,74,48
7560,note_on,,121,0,14,,,,,,,,,,,,,,,,12,,66,48
7560,note_on,,121,0,13,,,,,,,,,,,,,,,,11,,71,48
7560,note_on,,1,0,8,,,,,,,,,,,,,,,,5,,74,58
7560,note_on,,1,0,6,,,,,,,,,,,,,,,,1,,74,47
7589,note_on,,29,0,8,,,,,,,,,,,,,,,,5,,74,0
7589,note_on,,29,0,5,,,,,,,,,,,,,,,,0,,74,0
7589,note_on,,29,0,6,,,,,,,,,,,,,,,,1,,74,0
7590,note_on,,1,0,6,,,,,,,,,,,,,,,,1,,76,47
7590,note_on,,1,0,5,,,,,,,,,,,,,,,,0,,76,47
7590,note_on,,1,0,8,,,,,,,,,,,,,,,,5,,76,58
7619,note_on,,29,0,8,,,,,,,,,,,,,,,,5,,76,0
7619,note_on,,29,0,5,,,,,,,,,,,,,,,,0,,76,0
7619,note_on,,29,0,6,,,,,,,,,,,,,,,,1,,76,0
7619,note_on,,59,0,10,,,,,,,,,,,,,,,,7,,59,0
7620,note_on,,1,0,6,,,,,,,,,,,,,,,,1,,72,47
7620,note_on,,1,0,10,,,,,,,,,,,,,,,,7,,57,58
7620,note_on,,1,0,8,,,,,,,,,,,,,,,,5,,72,58
7620,note_on,,1,0,5,,,,,,,,,,,,,,,,0,,72,47
7649,note_on,,29,0,6,,,,,,,,,,,,,,,,1,,72,0
7649,note_on,,29,0,8,,,,,,,,,,,,,,,,5,,72,0
7649,note_on,,29,0,5,,,,,,,,,,,,,,,,0,,72,0
7650,note_on,,1,0,8,,,,,,,,,,,,,,,,5,,74,58
7650,note_on,,1,0,5,,,,,,,,,,,,,,,,0,,74,47
7650,note_on,,1,0,6,,,,,,,,,,,,,,,,1,,74,47
7679,note_on,,119,0,14,,,,,,,,,,,,,,,,12,,66,0
7679,note_on,,119,0,12,,,,,,,,,,,,,,,,10,,74,0
7679,note_on,,29,0,5,,,,,,,,,,,,,,,,0,,74,0
7679,note_on,,29,0,8,,,,,,,,,,,,,,,,5,,74,0
7679,note_on,,119,0,13,,,,,,,,,,,,,,,,11,,71,0
7679,note_on,,59,0,10,,,,,,,,,,,,,,,,7,,57,0
7679,note_on,,29,0,6,,,,,,,,,,,,,,,,1,,74,0
7680,note_on,,1,0,10,,,,,,,,,,,,,,,,7,,55,58
7680,note_on,,1,0,5,,,,,,,,,,,,,,,,0,,71,47
7680,note_on,,121,0,16,,,,,,,,,,,,,,,,15,,64,48
7680,note_on,,0,0,16,,,,,,,,,,,,,,,,15,,67,48
7680,note_on,,0,0,16,,,,,,,,,,,,,,,,15,,59,48
7680,note_on,,1,0,8,,,,,,,,,,,,,,,,5,,71,58
7680,note_on,,121,0,7,,,,,,,,,,,,,,,,2,,52,48
7680,note_on,,0,0,16,,,,,,,,,,,,,,,,15,,52,48
7680,note_on,,121,0,15,,,,,,,,,,,,,,,,13,,52,48
7680,note_on,,1,0,6,,,,,,,,,,,,,,,,1,,71,47
7709,note_on,,29,0,8,,,,,,,,,,,,,,,,5,,71,0
7709,note_on,,29,0,5,,,,,,,,,,,,,,,,0,,71,0
7709,note_on,,29,0,6,,,,,,,,,,,,,,,,1,,71,0
7710,note_on,,1,0,5,,,,,,,,,,,,,,,,0,,69,47
7710,note_on,,1,0,6,,,,,,,,,,,,,,,,1,,69,47
7710,note_on,,1,0,8,,,,,,,,,,,,,,,,5,,69,58
7739,note_on,,29,0,6,,,,,,,,,,,,,,,,1,,69,0
7739,note_on,,29,0,8,,,,,,,,,,,,,,,,5,,69,0
7739,note_on,,29,0,5,,,,,,,,,,,,,,,,0,,69,0
7740,note_on,,1,0,6,,,,,,,,,,,,,,,,1,,71,47
7740,note_on,,1,0,8,,,,,,,,,,,,,,,,5,,71,58
7740,note_on,,1,0,5,,,,,,,,,,,,,,,,0,,71,47
7769,note_on,,29,0,5,,,,,,,,,,,,,,,,0,,71,0
7769,note_on,,29,0,8,,,,,,,,,,,,,,,,5,,71,0
7769,note_on,,29,0,6,,,,,,,,,,,,,,,,1,,71,0
7770,note_on,,1,0,5,,,,,,,,,,,,,,,,0,,72,47
7770,note_on,,1,0,8,,,,,,,,,,,,,,,,5,,72,58
7770,note_on,,1,0,6,,,,,,,,,,,,,,,,1,,72,47
7799,note_on,,119,0,10,,,,,,,,,,,,,,,,7,,55,0
7799,note_on,,0,0,16,,,,,,,,,,,,,,,,15,,59,0
7799,note_on,,0,0,16,,,,,,,,,,,,,,,,15,,67,0
7799,note_on,,119,0,7,,,,,,,,,,,,,,,,2,,52,0
7799,note_on,,29,0,6,,,,,,,,,,,,,,,,1,,72,0
7799,note_on,,119,0,16,,,,,,,,,,,,,,,,15,,64,0
7799,note_on,,29,0,8,,,,,,,,,,,,,,,,5,,72,0
7799,note_on,,29,0,5,,,,,,,,,,,,,,,,0,,72,0
7799,note_on,,119,0,15,,,,,,,,,,,,,,,,13,,52,0
7799,note_on,,0,0,16,,,,,,,,,,,,,,,,15,,52,0
7800,note_on,,121,0,13,,,,,,,,,,,,,,,,11,,67,48
7800,note_on,,1,0,6,,,,,,,,,,,,,,,,1,,71,47
7800,note_on,,1,0,5,,,,,,,,,,,,,,,,0,,71,47
7800,note_on,,121,0,12,,,,,,,,,,,,,,,,10,,71,48
7800,note_on,,1,0,8,,,,,,,,,,,,,,,,5,,71,58
7800,note_on,,121,0,14,,,,,,,,,,,,,,,,12,,64,48
7829,note_on,,29,0,8,,,,,,,,,,,,,,,,5,,71,0
7829,note_on,,29,0,6,,,,,,,,,,,,,,,,1,,71,0
7829,note_on,,29,0,5,,,,,,,,,,,,,,,,0,,71,0
7830,note_on,,1,0,5,,,,,,,,,,,,,,,,0,,74,47
7830,note_on,,1,0,6,,,,,,,,,,,,,,,,1,,74,47
7830,note_on,,1,0,8,,,,,,,,,,,,,,,,5,,74,58
7859,note_on,,29,0,5,,,,,,,,,,,,,,,,0,,74,0
7859,note_on,,29,0,6,,,,,,,,,,,,,,,,1,,74,0
7859,note_on,,29,0,8,,,,,,,,,,,,,,,,5,,74,0
7860,note_on,,1,0,6,,,,,,,,,,,,,,,,1,,72,47
7860,note_on,,1,0,5,,,,,,,,,,,,,,,,0,,72,47
7860,note_on,,1,0,8,,,,,,,,,,,,,,,,5,,72,58
7889,note_on,,29,0,6,,,,,,,,,,,,,,,,1,,72,0
7889,note_on,,29,0,8,,,,,,,,,,,,,,,,5,,72,0
7889,note_on,,29,0,5,,,,,,,,,,,,,,,,0,,72,0
7890,note_on,,1,0,8,,,,,,,,,,,,,,,,5,,74,58
7890,note_on,,1,0,6,,,,,,,,,,,,,,,,1,,74,47
7890,note_on,,1,0,5,,,,,,,,,,,,,,,,0,,74,47
7919,note_on,,29,0,8,,,,,,,,,,,,,,,,5,,74,0
7919,note_on,,119,0,13,,,,,,,,,,,,,,,,11,,67,0
7919,note_on,,119,0,12,,,,,,,,,,,,,,,,10,,71,0
7919,note_on,,119,0,14,,,,,,,,,,,,,,,,12,,64,0
7919,note_on,,29,0,6,,,,,,,,,,,,,,,,1,,74,0
7919,note_on,,29,0,5,,,,,,,,,,,,,,,,0,,74,0
7920,note_on,,121,0,7,,,,,,,,,,,,,,,,2,,48,48
7920,note_on,,1,0,5,,,,,,,,,,,,,,,,0,,76,47
7920,note_on,,1,0,8,,,,,,,,,,,,,,,,5,,76,58
7920,note_on,,121,0,15,,,,,,,,,,,,,,,,13,,48,48
7920,note_on,,1,0,6,,,,,,,,,,,,,,,,1,,76,47
7920,note_on,,121,0,16,,,,,,,,,,,,,,,,15,,48,48
7920,note_on,,0,0,16,,,,,,,,,,,,,,,,15,,64,48
7920,note_on,,0,0,16,,,,,,,,,,,,,,,,15,,67,48
7920,note_on,,0,0,16,,,,,,,,,,,,,,,,15,,72,48
7949,note_on,,29,0,5,,,,,,,,,,,,,,,,0,,76,0
7949,note_on,,29,0,8,,,,,,,,,,,,,,,,5,,76,0
7949,note_on,,29,0,6,,,,,,,,,,,,,,,,1,,76,0
7950,note_on,,1,0,6,,,,,,,,,,,,,,,,1,,74,47
7950,note_on,,1,0,5,,,,,,,,,,,,,,,,0,,74,47
7950,note_on,,1,0,8,,,,,,,,,,,,,,,,5,,74,58
7979,note_on,,29,0,8,,,,,,,,,,,,,,,,5,,74,0
7979,note_on,,29,0,6,,,,,,,,,,,,,,,,1,,74,0
7979,note_on,,29,0,5,,,,,,,,,,,,,,,,0,,74,0
7980,note_on,,181,0,10,,,,,,,,,,,,,,,,7,,55,58
7980,note_on,,1,0,6,,,,,,,,,,,,,,,,1,,76,47
7980,note_on,,1,0,5,,,,,,,,,,,,,,,,0,,76,47
7980,note_on,,1,0,8,,,,,,,,,,,,,,,,5,,76,58
8009,note_on,,29,0,8,,,,,,,,,,,,,,,,5,,76,0
8009,note_on,,29,0,6,,,,,,,,,,,,,,,,1,,76,0
8009,note_on,,29,0,5,,,,,,,,,,,,,,,,0,,76,0
8010,note_on,,1,0,5,,,,,,,,,,,,,,,,0,,78,47
8010,note_on,,1,0,8,,,,,,,,,,,,,,,,5,,78,58
8010,note_on,,1,0,6,,,,,,,,,,,,,,,,1,,78,47
8039,note_on,,0,0,16,,,,,,,,,,,,,,,,15,,67,0
8039,note_on,,119,0,15,,,,,,,,,,,,,,,,13,,48,0
8039,note_on,,29,0,8,,,,,,,,,,,,,,,,5,,78,0
8039,note_on,,29,0,5,,,,,,,,,,,,,,,,0,,78,0
8039,note_on,,59,0,10,,,,,,,,,,,,,,,,7,,55,0
8039,note_on,,0,0,16,,,,,,,,,,,,,,,,15,,64,0
8039,note_on,,29,0,6,,,,,,,,,,,,,,,,1,,78,0
8039,note_on,,119,0,16,,,,,,,,,,,,,,,,15,,48,0
8039,note_on,,119,0,7,,,,,,,,,,,,,,,,2,,48,0
8039,note_on,,0,0,16,,,,,,,,,,,,,,,,15,,72,0
8040,note_on,,1,0,8,,,,,,,,,,,,,,,,5,,76,58
8040,note_on,,121,0,14,,,,,,,,,,,,,,,,12,,67,48
8040,note_on,,1,0,6,,,,,,,,,,,,,,,,1,,76,47
8040,note_on,,1,0,5,,,,,,,,,,,,,,,,0,,76,47
8040,note_on,,121,0,12,,,,,,,,,,,,,,,,10,,76,48
8040,note_on,,1,0,10,,,,,,,,,,,,,,,,7,,60,58
8040,note_on,,121,0,13,,,,,,,,,,,,,,,,11,,72,48
8069,note_on,,29,0,8,,,,,,,,,,,,,,,,5,,76,0
8069,note_on,,29,0,5,,,,,,,,,,,,,,,,0,,76,0
8069,note_on,,29,0,6,,,,,,,,,,,,,,,,1,,76,0
8070,note_on,,1,0,5,,,,,,,,,,,,,,,,0,,78,47
8070,note_on,,1,0,8,,,,,,,,,,,,,,,,5,,78,58
8070,note_on,,1,0,6,,,,,,,,,,,,,,,,1,,78,47
8099,note_on,,59,0,10,,,,,,,,,,,,,,,,7,,60,0
8099,note_on,,29,0,5,,,,,,,,,,,,,,,,0,,78,0
8099,note_on,,29,0,6,,,,,,,,,,,,,,,,1,,78,0
8099,note_on,,29,0,8,,,,,,,,,,,,,,,,5,,78,0
8100,note_on,,1,0,5,,,,,,,,,,,,,,,,0,,79,47
8100,note_on,,1,0,10,,,,,,,,,,,,,,,,7,,59,58
8100,note_on,,1,0,8,,,,,,,,,,,,,,,,5,,79,58
8100,note_on,,1,0,6,,,,,,,,,,,,,,,,1,,79,47
8129,note_on,,29,0,5,,,,,,,,,,,,,,,,0,,79,0
8129,note_on,,29,0,6,,,,,,,,,,,,,,,,1,,79,0
8129,note_on,,29,0,8,,,,,,,,,,,,,,,,5,,79,0
8130,note_on,,1,0,8,,,,,,,,,,,,,,,,5,,81,58
8130,note_on,,1,0,6,,,,,,,,,,,,,,,,1,,81,47
8130,note_on,,1,0,5,,,,,,,,,,,,,,,,0,,81,47
8159,note_on,,29,0,5,,,,,,,,,,,,,,,,0,,81,0
8159,note_on,,119,0,12,,,,,,,,,,,,,,,,10,,76,0
8159,note_on,,119,0,13,,,,,,,,,,,,,,,,11,,72,0
8159,note_on,,29,0,6,,,,,,,,,,,,,,,,1,,81,0
8159,note_on,,59,0,10,,,,,,,,,,,,,,,,7,,59,0
8159,note_on,,29,0,8,,,,,,,,,,,,,,,,5,,81,0
8159,note_on,,119,0,14,,,,,,,,,,,,,,,,12,,67,0
8160,note_on,,0,0,16,,,,,,,,,,,,,,,,15,,66,48
8160,note_on,,0,0,16,,,,,,,,,,,,,,,,15,,62,48
8160,note_on,,1,0,6,,,,,,,,,,,,,,,,1,,78,47
8160,note_on,,0,0,16,,,,,,,,,,,,,,,,15,,69,48
8160,note_on,,121,0,16,,,,,,,,,,,,,,,,15,,50,48
8160,note_on,,1,0,10,,,,,,,,,,,,,,,,7,,57,58
8160,note_on,,0,0,16,,,,,,,,,,,,,,,,15,,57,48
8160,note_on,,121,0,15,,,,,,,,,,,,,,,,13,,50,48
8160,note_on,,121,0,7,,,,,,,,,,,,,,,,2,,50,48
8160,note_on,,1,0,8,,,,,,,,,,,,,,,,5,,78,58
8160,note_on,,1,0,5,,,,,,,,,,,,,,,,0,,78,47
8219,note_on,,59,0,10,,,,,,,,,,,,,,,,7,,57,0
8220,note_on,,1,0,10,,,,,,,,,,,,,,,,7,,57,58
8279,note_on,,119,0,15,,,,,,,,,,,,,,,,13,,50,0
8279,note_on,,119,0,8,,,,,,,,,,,,,,,,5,,78,0
8279,note_on,,59,0,10,,,,,,,,,,,,,,,,7,,57,0
8279,note_on,,119,0,7,,,,,,,,,,,,,,,,2,,50,0
8279,note_on,,119,0,16,,,,,,,,,,,,,,,,15,,50,0
8279,note_on,,0,0,16,,,,,,,,,,,,,,,,15,,66,0
8279,note_on,,119,0,6,,,,,,,,,,,,,,,,1,,78,0
8279,note_on,,0,0,16,,,,,,,,,,,,,,,,15,,62,0
8279,note_on,,119,0,5,,,,,,,,,,,,,,,,0,,78,0
8279,note_on,,0,0,16,,,,,,,,,,,,,,,,15,,57,0
8279,note_on,,0,0,16,,,,,,,,,,,,,,,,15,,69,0
8280,note_on,,121,0,14,,,,,,,,,,,,,,,,12,,62,48
8280,note_on,,121,0,12,,,,,,,,,,,,,,,,10,,69,48
8280,note_on,,121,0,13,,,,,,,,,,,,,,,,11,,66,48
8340,note_on,,61,0,7,,,,,,,,,,,,,,,,2,,52,48
8340,note_on,,61,0,15,,,,,,,,,,,,,,,,13,,52,48
8340,note_on,,61,0,16,,,,,,,,,,,,,,,,15,,52,48
8340,note_on,,0,0,16,,,,,,,,,,,,,,,,15,,55,48
8340,note_on,,0,0,16,,,,,,,,,,,,,,,,15,,61,48
8399,note_on,,119,0,14,,,,,,,,,,,,,,,,12,,62,0
8399,note_on,,119,0,12,,,,,,,,,,,,,,,,10,,69,0
8399,note_on,,59,0,7,,,,,,,,,,,,,,,,2,,52,0
8399,note_on,,59,0,16,,,,,,,,,,,,,,,,15,,52,0
8399,note_on,,119,0,13,,,,,,,,,,,,,,,,11,,66,0
8399,note_on,,0,0,16,,,,,,,,,,,,,,,,15,,55,0
8399,note_on,,0,0,16,,,,,,,,,,,,,,,,15,,61,0
8399,note_on,,59,0,15,,,,,,,,,,,,,,,,13,,52,0
8400,note_on,,1,0,16,,,,,,,,,,,,,,,,15,,54,48
8400,note_on,,8400,0,9,,,,,,,,,,,,,,,,6,,69,58
8400,note_on,,1,0,7,,,,,,,,,,,,,,,,2,,54,48
8400,note_on,,1,0,15,,,,,,,,,,,,,,,,13,,54,48
8400,note_on,,0,0,16,,,,,,,,,,,,,,,,15,,62,48
8400,note_on,,0,0,16,,,,,,,,,,,,,,,,15,,57,48
8459,note_on,,59,0,15,,,,,,,,,,,,,,,,13,,54,0
8459,note_on,,59,0,7,,,,,,,,,,,,,,,,2,,54,0
8459,note_on,,59,0,16,,,,,,,,,,,,,,,,15,,54,0
8459,note_on,,0,0,16,,,,,,,,,,,,,,,,15,,57,0
8460,note_on,,1,0,7,,,,,,,,,,,,,,,,2,,52,48
8460,note_on,,1,0,15,,,,,,,,,,,,,,,,13,,52,48
8460,note_on,,1,0,16,,,,,,,,,,,,,,,,15,,52,48
8460,note_on,,0,0,16,,,,,,,,,,,,,,,,15,,55,48
8519,note_on,,0,0,16,,,,,,,,,,,,,,,,15,,55,0
8519,note_on,,59,0,15,,,,,,,,,,,,,,,,13,,52,0
8519,note_on,,119,0,9,,,,,,,,,,,,,,,,6,,69,0
8519,note_on,,59,0,16,,,,,,,,,,,,,,,,15,,62,0
8519,note_on,,59,0,7,,,,,,,,,,,,,,,,2,,52,0
8519,note_on,,0,0,16,,,,,,,,,,,,,,,,15,,52,0
8520,note_on,,121,0,13,,,,,,,,,,,,,,,,11,,74,48
8520,note_on,,121,0,14,,,,,,,,,,,,,,,,12,,69,48
8520,note_on,,0,0,16,,,,,,,,,,,,,,,,15,,57,48
8520,note_on,,1,0,9,,,,,,,,,,,,,,,,6,,62,58
8520,note_on,,121,0,12,,,,,,,,,,,,,,,,10,,81,48
8520,note_on,,1,0,7,,,,,,,,,,,,,,,,2,,54,48
8520,note_on,,1,0,16,,,,,,,,,,,,,,,,15,,54,48
8520,note_on,,0,0,16,,,,,,,,,,,,,,,,15,,74,48
8520,note_on,,0,0,16,,,,,,,,,,,,,,,,15,,69,48
8520,note_on,,1,0,15,,,,,,,,,,,,,,,,13,,54,48
8579,note_on,,59,0,9,,,,,,,,,,,,,,,,6,,62,0
8579,note_on,,59,0,7,,,,,,,,,,,,,,,,2,,54,0
8579,note_on,,0,0,16,,,,,,,,,,,,,,,,15,,57,0
8579,note_on,,59,0,15,,,,,,,,,,,,,,,,13,,54,0
8579,note_on,,59,0,16,,,,,,,,,,,,,,,,15,,54,0
8580,note_on,,1,0,9,,,,,,,,,,,,,,,,6,,62,58
8580,note_on,,1,0,7,,,,,,,,,,,,,,,,2,,59,48
8580,note_on,,0,0,16,,,,,,,,,,,,,,,,15,,62,48
8580,note_on,,1,0,16,,,,,,,,,,,,,,,,15,,59,48
8580,note_on,,1,0,15,,,,,,,,,,,,,,,,13,,59,48
8639,note_on,,59,0,15,,,,,,,,,,,,,,,,13,,59,0
8639,note_on,,59,0,9,,,,,,,,,,,,,,,,6,,62,0
8639,note_on,,59,0,7,,,,,,,,,,,,,,,,2,,59,0
8639,note_on,,119,0,14,,,,,,,,,,,,,,,,12,,69,0
8639,note_on,,119,0,12,,,,,,,,,,,,,,,,10,,81,0
8639,note_on,,59,0,16,,,,,,,,,,,,,,,,15,,74,0
8639,note_on,,0,0,16,,,,,,,,,,,,,,,,15,,69,0
8639,note_on,,0,0,16,,,,,,,,,,,,,,,,15,,59,0
8639,note_on,,0,0,16,,,,,,,,,,,,,,,,15,,62,0
8639,note_on,,119,0,13,,,,,,,,,,,,,,,,11,,74,0
8640,note_on,,0,0,16,,,,,,,,,,,,,,,,15,,62,48
8640,note_on,,1,0,7,,,,,,,,,,,,,,,,2,,52,48
8640,note_on,,0,0,16,,,,,,,,,,,,,,,,15,,67,48
8640,note_on,,1,0,9,,,,,,,,,,,,,,,,6,,67,58
8640,note_on,,1,0,16,,,,,,,,,,,,,,,,15,,52,48
8640,note_on,,1,0,15,,,,,,,,,,,,,,,,13,,52,48
8699,note_on,,59,0,9,,,,,,,,,,,,,,,,6,,67,0
8700,note_on,,61,0,14,,,,,,,,,,,,,,,,12,,59,48
8700,note_on,,1,0,9,,,,,,,,,,,,,,,,6,,67,58
8700,note_on,,61,0,12,,,,,,,,,,,,,,,,10,,79,48
8700,note_on,,61,0,13,,,,,,,,,,,,,,,,11,,74,48
8759,note_on,,119,0,7,,,,,,,,,,,,,,,,2,,52,0
8759,note_on,,0,0,16,,,,,,,,,,,,,,,,15,,62,0
8759,note_on,,59,0,12,,,,,,,,,,,,,,,,10,,79,0
8759,note_on,,59,0,9,,,,,,,,,,,,,,,,6,,67,0
8759,note_on,,119,0,15,,,,,,,,,,,,,,,,13,,52,0
8759,note_on,,59,0,14,,,,,,,,,,,,,,,,12,,59,0
8759,note_on,,59,0,13,,,,,,,,,,,,,,,,11,,74,0
8759,note_on,,0,0,16,,,,,,,,,,,,,,,,15,,67,0
8759,note_on,,119,0,16,,,,,,,,,,,,,,,,15,,52,0
8760,note_on,,1,0,13,,,,,,,,,,,,,,,,11,,73,48
8760,note_on,,1,0,9,,,,,,,,,,,,,,,,6,,67,58
8760,note_on,,1,0,12,,,,,,,,,,,,,,,,10,,79,48
8760,note_on,,1,0,14,,,,,,,,,,,,,,,,12,,64,48
8819,note_on,,59,0,13,,,,,,,,,,,,,,,,11,,73,0
8819,note_on,,59,0,9,,,,,,,,,,,,,,,,6,,67,0
8819,note_on,,59,0,12,,,,,,,,,,,,,,,,10,,79,0
8819,note_on,,59,0,14,,,,,,,,,,,,,,,,12,,64,0
8820,note_on,,1,0,12,,,,,,,,,,,,,,,,10,,79,48
8820,note_on,,1,0,13,,,,,,,,,,,,,,,,11,,73,48
8820,note_on,,61,0,7,,,,,,,,,,,,,,,,2,,52,48
8820,note_on,,0,0,16,,,,,,,,,,,,,,,,15,,73,48
8820,note_on,,61,0,15,,,,,,,,,,,,,,,,13,,52,48
8820,note_on,,0,0,16,,,,,,,,,,,,,,,,15,,67,48
8820,note_on,,61,0,16,,,,,,,,,,,,,,,,15,,52,48
8820,note_on,,1,0,14,,,,,,,,,,,,,,,,12,,64,48
8820,note_on,,1,0,9,,,,,,,,,,,,,,,,6,,67,58
8820,note_on,,0,0,16,,,,,,,,,,,,,,,,15,,55,48
8879,note_on,,59,0,13,,,,,,,,,,,,,,,,11,,73,0
8879,note_on,,59,0,7,,,,,,,,,,,,,,,,2,,52,0
8879,note_on,,59,0,12,,,,,,,,,,,,,,,,10,,79,0
8879,note_on,,59,0,16,,,,,,,,,,,,,,,,15,,52,0
8879,note_on,,59,0,9,,,,,,,,,,,,,,,,6,,67,0
8879,note_on,,0,0,16,,,,,,,,,,,,,,,,15,,55,0
8879,note_on,,59,0,15,,,,,,,,,,,,,,,,13,,52,0
8879,note_on,,0,0,16,,,,,,,,,,,,,,,,15,,67,0
8879,note_on,,59,0,14,,,,,,,,,,,,,,,,12,,64,0
8879,note_on,,0,0,16,,,,,,,,,,,,,,,,15,,73,0
8880,note_on,,1,0,15,,,,,,,,,,,,,,,,13,,50,48
8880,note_on,,0,0,16,,,,,,,,,,,,,,,,15,,57,48
8880,note_on,,0,0,16,,,,,,,,,,,,,,,,15,,67,48
8880,note_on,,1,0,9,,,,,,,,,,,,,,,,6,,67,58
8880,note_on,,8880,0,11,,,,,,,,,,,,,,,,8,,57,58
8880,note_on,,0,0,16,,,,,,,,,,,,,,,,15,,69,48
8880,note_on,,1,0,16,,,,,,,,,,,,,,,,15,,50,48
8880,note_on,,0,0,16,,,,,,,,,,,,,,,,15,,74,48
8880,note_on,,1,0,7,,,,,,,,,,,,,,,,2,,50,48
8939,note_on,,59,0,9,,,,,,,,,,,,,,,,6,,67,0
8939,note_on,,59,0,16,,,,,,,,,,,,,,,,15,,67,0
8940,note_on,,61,0,14,,,,,,,,,,,,,,,,12,,66,48
8940,note_on,,1,0,9,,,,,,,,,,,,,,,,6,,66,58
8940,note_on,,61,0,13,,,,,,,,,,,,,,,,11,,74,48
8940,note_on,,1,0,16,,,,,,,,,,,,,,,,15,,66,48
8940,note_on,,61,0,12,,,,,,,,,,,,,,,,10,,69,48
8999,note_on,,119,0,7,,,,,,,,,,,,,,,,2,,50,0
8999,note_on,,0,0,16,,,,,,,,,,,,,,,,15,,74,0
8999,note_on,,0,0,16,,,,,,,,,,,,,,,,15,,69,0
8999,note_on,,0,0,16,,,,,,,,,,,,,,,,15,,57,0
8999,note_on,,0,0,16,,,,,,,,,,,,,,,,15,,66,0
8999,note_on,,59,0,13,,,,,,,,,,,,,,,,11,,74,0
8999,note_on,,59,0,9,,,,,,,,,,,,,,,,6,,66,0
8999,note_on,,59,0,12,,,,,,,,,,,,,,,,10,,69,0
8999,note_on,,59,0,16,,,,,,,,,,,,,,,,15,,50,0
8999,note_on,,119,0,15,,,,,,,,,,,,,,,,13,,50,0
8999,note_on,,59,0,14,,,,,,,,,,,,,,,,12,,66,0
8999,note_on,,119,0,11,,,,,,,,,,,,,,,,8,,57,0
9000,note_on,,1,0,7,,,,,,,,,,,,,,,,2,,42,48
9000,note_on,,0,0,16,,,,,,,,,,,,,,,,15,,57,48
9000,note_on,,0,0,16,,,,,,,,,,,,,,,,15,,62,48
9000,note_on,,1,0,11,,,,,,,,,,,,,,,,8,,50,58
9000,note_on,,1,0,14,,,,,,,,,,,,,,,,12,,69,48
9000,note_on,,1,0,12,,,,,,,,,,,,,,,,10,,74,48
9000,note_on,,1,0,16,,,,,,,,,,,,,,,,15,,42,48
9000,note_on,,1,0,13,,,,,,,,,,,,,,,,11,,78,48
9000,note_on,,0,0,16,,,,,,,,,,,,,,,,15,,69,48
9000,note_on,,1,0,15,,,,,,,,,,,,,,,,13,,42,48
9059,note_on,,0,0,16,,,,,,,,,,,,,,,,15,,69,0
9059,note_on,,59,0,15,,,,,,,,,,,,,,,,13,,42,0
9059,note_on,,59,0,7,,,,,,,,,,,,,,,,2,,42,0
9059,note_on,,59,0,11,,,,,,,,,,,,,,,,8,,50,0
9059,note_on,,0,0,16,,,,,,,,,,,,,,,,15,,57,0
9059,note_on,,59,0,16,,,,,,,,,,,,,,,,15,,42,0
9059,note_on,,0,0,16,,,,,,,,,,,,,,,,15,,62,0
9060,note_on,,1,0,16,,,,,,,,,,,,,,,,15,,62,48
9060,note_on,,1,0,7,,,,,,,,,,,,,,,,2,,47,48
9060,note_on,,0,0,16,,,,,,,,,,,,,,,,15,,47,48
9060,note_on,,0,0,16,,,,,,,,,,,,,,,,15,,66,48
9060,note_on,,0,0,16,,,,,,,,,,,,,,,,15,,59,48
9060,note_on,,1,0,11,,,,,,,,,,,,,,,,8,,50,58
9060,note_on,,1,0,15,,,,,,,,,,,,,,,,13,,47,48
9119,note_on,,59,0,7,,,,,,,,,,,,,,,,2,,47,0
9119,note_on,,119,0,12,,,,,,,,,,,,,,,,10,,74,0
9119,note_on,,59,0,16,,,,,,,,,,,,,,,,15,,62,0
9119,note_on,,0,0,16,,,,,,,,,,,,,,,,15,,59,0
9119,note_on,,119,0,14,,,,,,,,,,,,,,,,12,,69,0
9119,note_on,,119,0,13,,,,,,,,,,,,,,,,11,,78,0
9119,note_on,,0,0,16,,,,,,,,,,,,,,,,15,,47,0
9119,note_on,,0,0,16,,,,,,,,,,,,,,,,15,,66,0
9119,note_on,,59,0,11,,,,,,,,,,,,,,,,8,,50,0
9119,note_on,,59,0,15,,,,,,,,,,,,,,,,13,,47,0
9120,note_on,,0,0,16,,,,,,,,,,,,,,,,15,,62,48
9120,note_on,,0,0,16,,,,,,,,,,,,,,,,15,,67,48
9120,note_on,,1,0,11,,,,,,,,,,,,,,,,8,,55,58
9120,note_on,,1,0,15,,,,,,,,,,,,,,,,13,,40,48
9120,note_on,,1,0,7,,,,,,,,,,,,,,,,2,,40,48
9120,note_on,,0,0,16,,,,,,,,,,,,,,,,15,,59,48
9120,note_on,,1,0,16,,,,,,,,,,,,,,,,15,,40,48
9179,note_on,,59,0,11,,,,,,,,,,,,,,,,8,,55,0
9179,note_on,,59,0,7,,,,,,,,,,,,,,,,2,,40,0
9179,note_on,,59,0,16,,,,,,,,,,,,,,,,15,,40,0
9179,note_on,,59,0,15,,,,,,,,,,,,,,,,13,,40,0
9180,note_on,,1,0,16,,,,,,,,,,,,,,,,15,,50,48
9180,note_on,,1,0,15,,,,,,,,,,,,,,,,13,,50,48
9180,note_on,,1,0,11,,,,,,,,,,,,,,,,8,,55,58
9180,note_on,,1,0,7,,,,,,,,,,,,,,,,2,,50,48
9239,note_on,,59,0,7,,,,,,,,,,,,,,,,2,,50,0
9239,note_on,,59,0,16,,,,,,,,,,,,,,,,15,,67,0
9239,note_on,,0,0,16,,,,,,,,,,,,,,,,15,,62,0
9239,note_on,,0,0,16,,,,,,,,,,,,,,,,15,,50,0
9239,note_on,,59,0,11,,,,,,,,,,,,,,,,8,,55,0
9239,note_on,,59,0,15,,,,,,,,,,,,,,,,13,,50,0
9239,note_on,,0,0,16,,,,,,,,,,,,,,,,15,,59,0
9240,note_on,,0,0,16,,,,,,,,,,,,,,,,15,,69,48
9240,note_on,,0,0,16,,,,,,,,,,,,,,,,15,,64,48
9240,note_on,,0,0,16,,,,,,,,,,,,,,,,15,,57,48
9240,note_on,,1,0,11,,,,,,,,,,,,,,,,8,,55,58
9240,note_on,,1,0,15,,,,,,,,,,,,,,,,13,,49,48
9240,note_on,,1,0,16,,,,,,,,,,,,,,,,15,,49,48
9240,note_on,,1,0,7,,,,,,,,,,,,,,,,2,,49,48
9299,note_on,,59,0,16,,,,,,,,,,,,,,,,15,,49,0
9299,note_on,,59,0,11,,,,,,,,,,,,,,,,8,,55,0
9299,note_on,,0,0,16,,,,,,,,,,,,,,,,15,,57,0
9299,note_on,,0,0,16,,,,,,,,,,,,,,,,15,,64,0
9299,note_on,,59,0,7,,,,,,,,,,,,,,,,2,,49,0
9299,note_on,,0,0,16,,,,,,,,,,,,,,,,15,,69,0
9299,note_on,,59,0,15,,,,,,,,,,,,,,,,13,,49,0
9300,note_on,,0,0,16,,,,,,,,,,,,,,,,15,,64,48
9300,note_on,,1,0,16,,,,,,,,,,,,,,,,15,,57,48
9300,note_on,,0,0,16,,,,,,,,,,,,,,,,15,,45,48
9300,note_on,,1,0,7,,,,,,,,,,,,,,,,2,,45,48
9300,note_on,,1,0,15,,,,,,,,,,,,,,,,13,,45,48
9300,note_on,,1,0,11,,,,,,,,,,,,,,,,8,,55,58
9359,note_on,,59,0,7,,,,,,,,,,,,,,,,2,,45,0
9359,note_on,,0,0,16,,,,,,,,,,,,,,,,15,,45,0
9359,note_on,,0,0,16,,,,,,,,,,,,,,,,15,,64,0
9359,note_on,,59,0,16,,,,,,,,,,,,,,,,15,,57,0
9359,note_on,,59,0,11,,,,,,,,,,,,,,,,8,,55,0
9359,note_on,,59,0,15,,,,,,,,,,,,,,,,13,,45,0
9360,note_on,,0,0,16,,,,,,,,,,,,,,,,15,,66,48
9360,note_on,,1,0,15,,,,,,,,,,,,,,,,13,,50,48
9360,note_on,,0,0,16,,,,,,,,,,,,,,,,15,,57,48
9360,note_on,,1,0,16,,,,,,,,,,,,,,,,15,,50,48
9360,note_on,,1,0,11,,,,,,,,,,,,,,,,8,,54,58
9360,note_on,,1,0,7,,,,,,,,,,,,,,,,2,,50,48
9360,note_on,,0,0,16,,,,,,,,,,,,,,,,15,,62,48
9389,note_on,,29,0,11,,,,,,,,,,,,,,,,8,,54,0
9390,note_on,,1,0,11,,,,,,,,,,,,,,,,8,,52,58
9419,note_on,,29,0,11,,,,,,,,,,,,,,,,8,,52,0
9420,note_on,,1,0,11,,,,,,,,,,,,,,,,8,,54,58
9449,note_on,,29,0,11,,,,,,,,,,,,,,,,8,,54,0
9450,note_on,,1,0,11,,,,,,,,,,,,,,,,8,,55,58
9479,note_on,,119,0,16,,,,,,,,,,,,,,,,15,,50,0
9479,note_on,,119,0,15,,,,,,,,,,,,,,,,13,,50,0
9479,note_on,,119,0,7,,,,,,,,,,,,,,,,2,,50,0
9479,note_on,,0,0,16,,,,,,,,,,,,,,,,15,,66,0
9479,note_on,,0,0,16,,,,,,,,,,,,,,,,15,,62,0
9479,note_on,,0,0,16,,,,,,,,,,,,,,,,15,,57,0
9479,note_on,,29,0,11,,,,,,,,,,,,,,,,8,,55,0
9480,note_on,,481,0,9,,,,,,,,,,,,,,,,6,,62,58
9480,note_on,,1,0,11,,,,,,,,,,,,,,,,8,,54,58
9509,note_on,,29,0,11,,,,,,,,,,,,,,,,8,,54,0
9510,note_on,,1,0,11,,,,,,,,,,,,,,,,8,,55,58
9539,note_on,,59,0,9,,,,,,,,,,,,,,,,6,,62,0
9539,note_on,,29,0,11,,,,,,,,,,,,,,,,8,,55,0
9540,note_on,,1,0,9,,,,,,,,,,,,,,,,6,,61,58
9540,note_on,,1,0,11,,,,,,,,,,,,,,,,8,,52,58
9569,note_on,,29,0,11,,,,,,,,,,,,,,,,8,,52,0
9570,note_on,,1,0,11,,,,,,,,,,,,,,,,8,,54,58
9599,note_on,,29,0,11,,,,,,,,,,,,,,,,8,,54,0
9599,note_on,,59,0,9,,,,,,,,,,,,,,,,6,,61,0
9600,note_on,,121,0,7,,,,,,,,,,,,,,,,2,,43,48
9600,note_on,,0,0,16,,,,,,,,,,,,,,,,15,,50,48
9600,note_on,,0,0,16,,,,,,,,,,,,,,,,15,,59,48
9600,note_on,,0,0,16,,,,,,,,,,,,,,,,15,,62,48
9600,note_on,,0,0,16,,,,,,,,,,,,,,,,15,,67,48
9600,note_on,,1,0,9,,,,,,,,,,,,,,,,6,,59,58
9600,note_on,,121,0,16,,,,,,,,,,,,,,,,15,,43,48
9600,note_on,,1,0,11,,,,,,,,,,,,,,,,8,,50,58
9600,note_on,,121,0,15,,,,,,,,,,,,,,,,13,,43,48
9629,note_on,,29,0,11,,,,,,,,,,,,,,,,8,,50,0
9630,note_on,,1,0,11,,,,,,,,,,,,,,,,8,,49,58
9659,note_on,,29,0,11,,,,,,,,,,,,,,,,8,,49,0
9660,note_on,,1,0,11,,,,,,,,,,,,,,,,8,,50,58
9689,note_on,,29,0,11,,,,,,,,,,,,,,,,8,,50,0
9690,note_on,,1,0,11,,,,,,,,,,,,,,,,8,,52,58
9719,note_on,,0,0,16,,,,,,,,,,,,,,,,15,,50,0
9719,note_on,,0,0,16,,,,,,,,,,,,,,,,15,,59,0
9719,note_on,,0,0,16,,,,,,,,,,,,,,,,15,,62,0
9719,note_on,,0,0,16,,,,,,,,,,,,,,,,15,,67,0
9719,note_on,,119,0,16,,,,,,,,,,,,,,,,15,,43,0
9719,note_on,,29,0,11,,,,,,,,,,,,,,,,8,,52,0
9719,note_on,,119,0,9,,,,,,,,,,,,,,,,6,,59,0
9719,note_on,,119,0,7,,,,,,,,,,,,,,,,2,,43,0
9719,note_on,,119,0,15,,,,,,,,,,,,,,,,13,,43,0
9720,note_on,,601,0,13,,,,,,,,,,,,,,,,11,,62,48
9720,note_on,,601,0,14,,,,,,,,,,,,,,,,12,,55,48
9720,note_on,,601,0,12,,,,,,,,,,,,,,,,10,,71,48
9720,note_on,,1,0,11,,,,,,,,,,,,,,,,8,,50,58
9749,note_on,,29,0,11,,,,,,,,,,,,,,,,8,,50,0
9750,note_on,,1,0,11,,,,,,,,,,,,,,,,8,,54,58
9779,note_on,,29,0,11,,,,,,,,,,,,,,,,8,,54,0
9780,note_on,,1,0,11,,,,,,,,,,,,,,,,8,,52,58
9809,note_on,,29,0,11,,,,,,,,,,,,,,,,8,,52,0
9810,note_on,,1,0,11,,,,,,,,,,,,,,,,8,,54,58
9839,note_on,,119,0,14,,,,,,,,,,,,,,,,12,,55,0
9839,note_on,,119,0,13,,,,,,,,,,,,,,,,11,,62,0
9839,note_on,,119,0,12,,,,,,,,,,,,,,,,10,,71,0
9839,note_on,,29,0,11,,,,,,,,,,,,,,,,8,,54,0
9840,note_on,,121,0,16,,,,,,,,,,,,,,,,15,,40,48
9840,note_on,,0,0,16,,,,,,,,,,,,,,,,15,,71,48
9840,note_on,,0,0,16,,,,,,,,,,,,,,,,15,,67,48
9840,note_on,,0,0,16,,,,,,,,,,,,,,,,15,,64,48
9840,note_on,,0,0,16,,,,,,,,,,,,,,,,15,,52,48
9840,note_on,,1,0,11,,,,,,,,,,,,,,,,8,,55,58
9840,note_on,,121,0,7,,,,,,,,,,,,,,,,2,,40,48
9840,note_on,,121,0,15,,,,,,,,,,,,,,,,13,,40,48
9869,note_on,,29,0,11,,,,,,,,,,,,,,,,8,,55,0
9870,note_on,,1,0,11,,,,,,,,,,,,,,,,8,,54,58
9899,note_on,,29,0,11,,,,,,,,,,,,,,,,8,,54,0
9900,note_on,,181,0,9,,,,,,,,,,,,,,,,6,,59,58
9900,note_on,,1,0,11,,,,,,,,,,,,,,,,8,,55,58
9929,note_on,,29,0,11,,,,,,,,,,,,,,,,8,,55,0
9930,note_on,,1,0,11,,,,,,,,,,,,,,,,8,,57,58
9959,note_on,,0,0,16,,,,,,,,,,,,,,,,15,,64,0
9959,note_on,,0,0,16,,,,,,,,,,,,,,,,15,,52,0
9959,note_on,,119,0,16,,,,,,,,,,,,,,,,15,,40,0
9959,note_on,,0,0,16,,,,,,,,,,,,,,,,15,,71,0
9959,note_on,,0,0,16,,,,,,,,,,,,,,,,15,,67,0
9959,note_on,,29,0,11,,,,,,,,,,,,,,,,8,,57,0
9959,note_on,,59,0,9,,,,,,,,,,,,,,,,6,,59,0
9959,note_on,,119,0,15,,,,,,,,,,,,,,,,13,,40,0
9959,note_on,,119,0,7,,,,,,,,,,,,,,,,2,,40,0
9960,note_on,,1,0,9,,,,,,,,,,,,,,,,6,,64,58
9960,note_on,,121,0,12,,,,,,,,,,,,,,,,10,,76,48
9960,note_on,,121,0,13,,,,,,,,,,,,,,,,11,,67,48
9960,note_on,,121,0,14,,,,,,,,,,,,,,,,12,,59,48
9960,note_on,,1,0,11,,,,,,,,,,,,,,,,8,,55,58
9989,note_on,,29,0,11,,,,,,,,,,,,,,,,8,,55,0
9990,note_on,,1,0,11,,,,,,,,,,,,,,,,8,,57,58
10019,note_on,,59,0,9,,,,,,,,,,,,,,,,6,,64,0
10019,note_on,,29,0,11,,,,,,,,,,,,,,,,8,,57,0
10020,note_on,,1,0,9,,,,,,,,,,,,,,,,6,,62,58
10020,note_on,,1,0,11,,,,,,,,,,,,,,,,8,,54,58
10049,note_on,,29,0,11,,,,,,,,,,,,,,,,8,,54,0
10050,note_on,,1,0,11,,,,,,,,,,,,,,,,8,,55,58
10079,note_on,,119,0,14,,,,,,,,,,,,,,,,12,,59,0
10079,note_on,,59,0,9,,,,,,,,,,,,,,,,6,,62,0
10079,note_on,,29,0,11,,,,,,,,,,,,,,,,8,,55,0
10079,note_on,,119,0,12,,,,,,,,,,,,,,,,10,,76,0
10079,note_on,,119,0,13,,,,,,,,,,,,,,,,11,,67,0
10080,note_on,,0,0,16,,,,,,,,,,,,,,,,15,,69,48
10080,note_on,,0,0,16,,,,,,,,,,,,,,,,15,,61,48
10080,note_on,,121,0,7,,,,,,,,,,,,,,,,2,,45,48
10080,note_on,,0,0,16,,,,,,,,,,,,,,,,15,,57,48
10080,note_on,,121,0,15,,,,,,,,,,,,,,,,13,,45,48
10080,note_on,,1,0,9,,,,,,,,,,,,,,,,6,,61,58
10080,note_on,,0,0,16,,,,,,,,,,,,,,,,15,,52,48
10080,note_on,,121,0,16,,,,,,,,,,,,,,,,15,,45,48
10080,note_on,,1,0,11,,,,,,,,,,,,,,,,8,,52,58
10109,note_on,,29,0,11,,,,,,,,,,,,,,,,8,,52,0
10110,note_on,,1,0,11,,,,,,,,,,,,,,,,8,,50,58
10139,note_on,,59,0,9,,,,,,,,,,,,,,,,6,,61,0
10139,note_on,,29,0,11,,,,,,,,,,,,,,,,8,,50,0
10140,note_on,,1,0,11,,,,,,,,,,,,,,,,8,,52,58
10140,note_on,,1,0,9,,,,,,,,,,,,,,,,6,,61,58
10169,note_on,,29,0,11,,,,,,,,,,,,,,,,8,,52,0
10170,note_on,,1,0,11,,,,,,,,,,,,,,,,8,,54,58
10199,note_on,,119,0,16,,,,,,,,,,,,,,,,15,,45,0
10199,note_on,,119,0,15,,,,,,,,,,,,,,,,13,,45,0
10199,note_on,,0,0,16,,,,,,,,,,,,,,,,15,,69,0
10199,note_on,,0,0,16,,,,,,,,,,,,,,,,15,,61,0
10199,note_on,,29,0,11,,,,,,,,,,,,,,,,8,,54,0
10199,note_on,,0,0,16,,,,,,,,,,,,,,,,15,,57,0
10199,note_on,,0,0,16,,,,,,,,,,,,,,,,15,,52,0
10199,note_on,,119,0,7,,,,,,,,,,,,,,,,2,,45,0
10199,note_on,,59,0,9,,,,,,,,,,,,,,,,6,,61,0
10200,note_on,,1,0,11,,,,,,,,,,,,,,,,8,,52,58
10200,note_on,,121,0,14,,,,,,,,,,,,,,,,12,,57,48
10200,note_on,,121,0,13,,,,,,,,,,,,,,,,11,,64,48
10200,note_on,,121,0,12,,,,,,,,,,,,,,,,10,,73,48
10229,note_on,,29,0,11,,,,,,,,,,,,,,,,8,,52,0
10230,note_on,,1,0,11,,,,,,,,,,,,,,,,8,,55,58
10259,note_on,,29,0,11,,,,,,,,,,,,,,,,8,,55,0
10260,note_on,,1,0,11,,,,,,,,,,,,,,,,8,,54,58
10289,note_on,,29,0,11,,,,,,,,,,,,,,,,8,,54,0
10290,note_on,,1,0,11,,,,,,,,,,,,,,,,8,,55,58
10319,note_on,,119,0,14,,,,,,,,,,,,,,,,12,,57,0
10319,note_on,,119,0,13,,,,,,,,,,,,,,,,11,,64,0
10319,note_on,,29,0,11,,,,,,,,,,,,,,,,8,,55,0
10319,note_on,,119,0,12,,,,,,,,,,,,,,,,10,,73,0
10320,note_on,,0,0,16,,,,,,,,,,,,,,,,15,,69,48
10320,note_on,,121,0,7,,,,,,,,,,,,,,,,2,,42,48
10320,note_on,,0,0,16,,,,,,,,,,,,,,,,15,,61,48
10320,note_on,,0,0,16,,,,,,,,,,,,,,,,15,,66,48
10320,note_on,,1,0,11,,,,,,,,,,,,,,,,8,,57,58
10320,note_on,,121,0,15,,,,,,,,,,,,,,,,13,,42,48
10320,note_on,,0,0,16,,,,,,,,,,,,,,,,15,,54,48
10320,note_on,,121,0,16,,,,,,,,,,,,,,,,15,,42,48
10349,note_on,,29,0,11,,,,,,,,,,,,,,,,8,,57,0
10350,note_on,,1,0,11,,,,,,,,,,,,,,,,8,,55,58
10379,note_on,,29,0,11,,,,,,,,,,,,,,,,8,,55,0
10380,note_on,,1,0,11,,,,,,,,,,,,,,,,8,,57,58
10409,note_on,,29,0,11,,,,,,,,,,,,,,,,8,,57,0
10410,note_on,,1,0,11,,,,,,,,,,,,,,,,8,,59,58
10439,note_on,,119,0,7,,,,,,,,,,,,,,,,2,,42,0
10439,note_on,,0,0,16,,,,,,,,,,,,,,,,15,,66,0
10439,note_on,,0,0,16,,,,,,,,,,,,,,,,15,,69,0
10439,note_on,,119,0,16,,,,,,,,,,,,,,,,15,,42,0
10439,note_on,,29,0,11,,,,,,,,,,,,,,,,8,,59,0
10439,note_on,,0,0,16,,,,,,,,,,,,,,,,15,,61,0
10439,note_on,,0,0,16,,,,,,,,,,,,,,,,15,,54,0
10439,note_on,,119,0,15,,,,,,,,,,,,,,,,13,,42,0
10440,note_on,,121,0,14,,,,,,,,,,,,,,,,12,,61,48
10440,note_on,,121,0,13,,,,,,,,,,,,,,,,11,,69,48
10440,note_on,,241,0,9,,,,,,,,,,,,,,,,6,,66,58
10440,note_on,,1,0,11,,,,,,,,,,,,,,,,8,,57,58
10440,note_on,,121,0,12,,,,,,,,,,,,,,,,10,,78,48
10469,note_on,,29,0,11,,,,,,,,,,,,,,,,8,,57,0
10470,note_on,,1,0,11,,,,,,,,,,,,,,,,8,,59,58
10499,note_on,,29,0,11,,,,,,,,,,,,,,,,8,,59,0
10499,note_on,,59,0,9,,,,,,,,,,,,,,,,6,,66,0
10500,note_on,,1,0,11,,,,,,,,,,,,,,,,8,,55,58
10500,note_on,,1,0,9,,,,,,,,,,,,,,,,6,,64,58
10529,note_on,,29,0,11,,,,,,,,,,,,,,,,8,,55,0
10530,note_on,,1,0,11,,,,,,,,,,,,,,,,8,,57,58
10559,note_on,,119,0,14,,,,,,,,,,,,,,,,12,,61,0
10559,note_on,,119,0,12,,,,,,,,,,,,,,,,10,,78,0
10559,note_on,,119,0,13,,,,,,,,,,,,,,,,11,,69,0
10559,note_on,,59,0,9,,,,,,,,,,,,,,,,6,,64,0
10559,note_on,,29,0,11,,,,,,,,,,,,,,,,8,,57,0
10560,note_on,,121,0,7,,,,,,,,,,,,,,,,2,,47,48
10560,note_on,,1,0,9,,,,,,,,,,,,,,,,6,,62,58
10560,note_on,,1,0,11,,,,,,,,,,,,,,,,8,,54,58
10560,note_on,,0,0,16,,,,,,,,,,,,,,,,15,,71,48
10560,note_on,,121,0,15,,,,,,,,,,,,,,,,13,,47,48
10560,note_on,,0,0,16,,,,,,,,,,,,,,,,15,,54,48
10560,note_on,,121,0,16,,,,,,,,,,,,,,,,15,,47,48
10560,note_on,,0,0,16,,,,,,,,,,,,,,,,15,,66,48
10560,note_on,,0,0,16,,,,,,,,,,,,,,,,15,,62,48
10589,note_on,,29,0,11,,,,,,,,,,,,,,,,8,,54,0
10590,note_on,,1,0,11,,,,,,,,,,,,,,,,8,,52,58
10619,note_on,,29,0,11,,,,,,,,,,,,,,,,8,,52,0
10620,note_on,,1,0,11,,,,,,,,,,,,,,,,8,,54,58
10649,note_on,,29,0,11,,,,,,,,,,,,,,,,8,,54,0
10650,note_on,,1,0,11,,,,,,,,,,,,,,,,8,,55,58
10679,note_on,,119,0,7,,,,,,,,,,,,,,,,2,,47,0
10679,note_on,,119,0,15,,,,,,,,,,,,,,,,13,,47,0
10679,note_on,,119,0,9,,,,,,,,,,,,,,,,6,,62,0
10679,note_on,,119,0,16,,,,,,,,,,,,,,,,15,,47,0
10679,note_on,,0,0,16,,,,,,,,,,,,,,,,15,,54,0
10679,note_on,,0,0,16,,,,,,,,,,,,,,,,15,,62,0
10679,note_on,,0,0,16,,,,,,,,,,,,,,,,15,,66,0
10679,note_on,,0,0,16,,,,,,,,,,,,,,,,15,,71,0
10679,note_on,,29,0,11,,,,,,,,,,,,,,,,8,,55,0
10680,note_on,,121,0,12,,,,,,,,,,,,,,,,10,,74,48
10680,note_on,,121,0,13,,,,,,,,,,,,,,,,11,,66,48
10680,note_on,,121,0,14,,,,,,,,,,,,,,,,12,,59,48
10680,note_on,,1,0,11,,,,,,,,,,,,,,,,8,,54,58
10709,note_on,,29,0,11,,,,,,,,,,,,,,,,8,,54,0
10710,note_on,,1,0,11,,,,,,,,,,,,,,,,8,,57,58
10739,note_on,,29,0,11,,,,,,,,,,,,,,,,8,,57,0
10740,note_on,,1,0,11,,,,,,,,,,,,,,,,8,,55,58
10769,note_on,,29,0,11,,,,,,,,,,,,,,,,8,,55,0
10770,note_on,,1,0,11,,,,,,,,,,,,,,,,8,,57,58
10799,note_on,,119,0,13,,,,,,,,,,,,,,,,11,,66,0
10799,note_on,,119,0,14,,,,,,,,,,,,,,,,12,,59,0
10799,note_on,,119,0,12,,,,,,,,,,,,,,,,10,,74,0
10799,note_on,,29,0,11,,,,,,,,,,,,,,,,8,,57,0
10800,note_on,,121,0,16,,,,,,,,,,,,,,,,15,,43,48
10800,note_on,,0,0,16,,,,,,,,,,,,,,,,15,,74,48
10800,note_on,,121,0,7,,,,,,,,,,,,,,,,2,,43,48
10800,note_on,,0,0,16,,,,,,,,,,,,,,,,15,,71,48
10800,note_on,,1,0,11,,,,,,,,,,,,,,,,8,,59,58
10800,note_on,,0,0,16,,,,,,,,,,,,,,,,15,,67,48
10800,note_on,,0,0,16,,,,,,,,,,,,,,,,15,,55,48
10800,note_on,,121,0,15,,,,,,,,,,,,,,,,13,,43,48
10829,note_on,,29,0,11,,,,,,,,,,,,,,,,8,,59,0
10830,note_on,,1,0,11,,,,,,,,,,,,,,,,8,,57,58
10859,note_on,,29,0,11,,,,,,,,,,,,,,,,8,,57,0
10860,note_on,,1,0,11,,,,,,,,,,,,,,,,8,,59,58
10860,note_on,,181,0,9,,,,,,,,,,,,,,,,6,,62,58
10889,note_on,,29,0,11,,,,,,,,,,,,,,,,8,,59,0
10890,note_on,,1,0,11,,,,,,,,,,,,,,,,8,,61,58
10919,note_on,,0,0,16,,,,,,,,,,,,,,,,15,,71,0
10919,note_on,,59,0,9,,,,,,,,,,,,,,,,6,,62,0
10919,note_on,,0,0,16,,,,,,,,,,,,,,,,15,,74,0
10919,note_on,,119,0,16,,,,,,,,,,,,,,,,15,,43,0
10919,note_on,,119,0,15,,,,,,,,,,,,,,,,13,,43,0
10919,note_on,,119,0,7,,,,,,,,,,,,,,,,2,,43,0
10919,note_on,,0,0,16,,,,,,,,,,,,,,,,15,,55,0
10919,note_on,,0,0,16,,,,,,,,,,,,,,,,15,,67,0
10919,note_on,,29,0,11,,,,,,,,,,,,,,,,8,,61,0
10920,note_on,,121,0,14,,,,,,,,,,,,,,,,12,,62,48
10920,note_on,,121,0,13,,,,,,,,,,,,,,,,11,,71,48
10920,note_on,,121,0,12,,,,,,,,,,,,,,,,10,,79,48
10920,note_on,,1,0,9,,,,,,,,,,,,,,,,6,,67,58
10920,note_on,,1,0,11,,,,,,,,,,,,,,,,8,,59,58
10949,note_on,,29,0,11,,,,,,,,,,,,,,,,8,,59,0
10950,note_on,,1,0,11,,,,,,,,,,,,,,,,8,,61,58
10979,note_on,,29,0,11,,,,,,,,,,,,,,,,8,,61,0
10979,note_on,,59,0,9,,,,,,,,,,,,,,,,6,,67,0
10980,note_on,,1,0,11,,,,,,,,,,,,,,,,8,,62,58
10980,note_on,,1,0,9,,,,,,,,,,,,,,,,6,,66,58
11009,note_on,,29,0,11,,,,,,,,,,,,,,,,8,,62,0
11010,note_on,,1,0,11,,,,,,,,,,,,,,,,8,,64,58
11039,note_on,,119,0,12,,,,,,,,,,,,,,,,10,,79,0
11039,note_on,,119,0,14,,,,,,,,,,,,,,,,12,,62,0
11039,note_on,,59,0,9,,,,,,,,,,,,,,,,6,,66,0
11039,note_on,,119,0,13,,,,,,,,,,,,,,,,11,,71,0
11039,note_on,,29,0,11,,,,,,,,,,,,,,,,8,,64,0
11040,note_on,,1,0,9,,,,,,,,,,,,,,,,6,,64,58
11040,note_on,,121,0,16,,,,,,,,,,,,,,,,15,,45,48
11040,note_on,,121,0,15,,,,,,,,,,,,,,,,13,,45,48
11040,note_on,,1,0,11,,,,,,,,,,,,,,,,8,,61,58
11040,note_on,,121,0,7,,,,,,,,,,,,,,,,2,,45,48
11040,note_on,,0,0,16,,,,,,,,,,,,,,,,15,,64,48
11040,note_on,,0,0,16,,,,,,,,,,,,,,,,15,,69,48
11040,note_on,,0,0,16,,,,,,,,,,,,,,,,15,,73,48
11099,note_on,,59,0,9,,,,,,,,,,,,,,,,6,,64,0
11099,note_on,,59,0,15,,,,,,,,,,,,,,,,13,,45,0
11099,note_on,,59,0,7,,,,,,,,,,,,,,,,2,,45,0
11099,note_on,,59,0,16,,,,,,,,,,,,,,,,15,,45,0
11100,note_on,,1,0,15,,,,,,,,,,,,,,,,13,,52,48
11100,note_on,,1,0,16,,,,,,,,,,,,,,,,15,,52,48
11100,note_on,,1,0,7,,,,,,,,,,,,,,,,2,,52,48
11100,note_on,,1,0,9,,,,,,,,,,,,,,,,6,,64,58
11159,note_on,,0,0,16,,,,,,,,,,,,,,,,15,,64,0
11159,note_on,,119,0,11,,,,,,,,,,,,,,,,8,,61,0
11159,note_on,,59,0,15,,,,,,,,,,,,,,,,13,,52,0
11159,note_on,,59,0,9,,,,,,,,,,,,,,,,6,,64,0
11159,note_on,,59,0,7,,,,,,,,,,,,,,,,2,,52,0
11159,note_on,,59,0,16,,,,,,,,,,,,,,,,15,,73,0
11159,note_on,,0,0,16,,,,,,,,,,,,,,,,15,,69,0
11159,note_on,,0,0,16,,,,,,,,,,,,,,,,15,,52,0
11160,note_on,,0,0,16,,,,,,,,,,,,,,,,15,,61,48
11160,note_on,,121,0,12,,,,,,,,,,,,,,,,10,,76,48
11160,note_on,,0,0,16,,,,,,,,,,,,,,,,15,,69,48
11160,note_on,,0,0,16,,,,,,,,,,,,,,,,15,,64,48
11160,note_on,,121,0,14,,,,,,,,,,,,,,,,12,,66,48
11160,note_on,,1,0,11,,,,,,,,,,,,,,,,8,,64,58
11160,note_on,,1,0,15,,,,,,,,,,,,,,,,13,,57,48
11160,note_on,,121,0,13,,,,,,,,,,,,,,,,11,,73,48
11160,note_on,,1,0,16,,,,,,,,,,,,,,,,15,,57,48
11160,note_on,,1,0,7,,,,,,,,,,,,,,,,2,,57,48
11219,note_on,,59,0,15,,,,,,,,,,,,,,,,13,,57,0
11219,note_on,,59,0,11,,,,,,,,,,,,,,,,8,,64,0
11219,note_on,,0,0,16,,,,,,,,,,,,,,,,15,,61,0
11219,note_on,,0,0,16,,,,,,,,,,,,,,,,15,,64,0
11219,note_on,,59,0,7,,,,,,,,,,,,,,,,2,,57,0
11219,note_on,,59,0,16,,,,,,,,,,,,,,,,15,,57,0
11219,note_on,,0,0,16,,,,,,,,,,,,,,,,15,,69,0
11220,note_on,,0,0,16,,,,,,,,,,,,,,,,15,,73,48
11220,note_on,,0,0,16,,,,,,,,,,,,,,,,15,,69,48
11220,note_on,,0,0,16,,,,,,,,,,,,,,,,15,,64,48
11220,note_on,,1,0,16,,,,,,,,,,,,,,,,15,,55,48
11220,note_on,,1,0,15,,,,,,,,,,,,,,,,13,,55,48
11220,note_on,,1,0,11,,,,,,,,,,,,,,,,8,,61,58
11220,note_on,,1,0,7,,,,,,,,,,,,,,,,2,,55,48
11279,note_on,,59,0,7,,,,,,,,,,,,,,,,2,,55,0
11279,note_on,,0,0,16,,,,,,,,,,,,,,,,15,,64,0
11279,note_on,,119,0,12,,,,,,,,,,,,,,,,10,,76,0
11279,note_on,,0,0,16,,,,,,,,,,,,,,,,15,,73,0
11279,note_on,,59,0,16,,,,,,,,,,,,,,,,15,,55,0
11279,note_on,,59,0,11,,,,,,,,,,,,,,,,8,,61,0
11279,note_on,,119,0,13,,,,,,,,,,,,,,,,11,,73,0
11279,note_on,,119,0,14,,,,,,,,,,,,,,,,12,,66,0
11279,note_on,,59,0,15,,,,,,,,,,,,,,,,13,,55,0
11279,note_on,,0,0,16,,,,,,,,,,,,,,,,15,,69,0
11280,note_on,,1,0,16,,,,,,,,,,,,,,,,15,,54,48
11280,note_on,,0,0,16,,,,,,,,,,,,,,,,15,,74,48
11280,note_on,,0,0,16,,,,,,,,,,,,,,,,15,,69,48
11280,note_on,,0,0,16,,,,,,,,,,,,,,,,15,,62,48
11280,note_on,,1,0,11,,,,,,,,,,,,,,,,8,,57,58
11280,note_on,,1,0,7,,,,,,,,,,,,,,,,2,,54,48
11280,note_on,,1,0,15,,,,,,,,,,,,,,,,13,,54,48
11339,note_on,,59,0,15,,,,,,,,,,,,,,,,13,,54,0
11339,note_on,,59,0,7,,,,,,,,,,,,,,,,2,,54,0
11339,note_on,,59,0,16,,,,,,,,,,,,,,,,15,,54,0
11340,note_on,,1,0,16,,,,,,,,,,,,,,,,15,,52,48
11340,note_on,,1,0,7,,,,,,,,,,,,,,,,2,,52,48
11340,note_on,,1,0,15,,,,,,,,,,,,,,,,13,,52,48
11399,note_on,,0,0,16,,,,,,,,,,,,,,,,15,,62,0
11399,note_on,,0,0,16,,,,,,,,,,,,,,,,15,,69,0
11399,note_on,,59,0,16,,,,,,,,,,,,,,,,15,,74,0
11399,note_on,,119,0,11,,,,,,,,,,,,,,,,8,,57,0
11399,note_on,,59,0,15,,,,,,,,,,,,,,,,13,,52,0
11399,note_on,,59,0,7,,,,,,,,,,,,,,,,2,,52,0
11399,note_on,,0,0,16,,,,,,,,,,,,,,,,15,,52,0
11400,note_on,,121,0,13,,,,,,,,,,,,,,,,11,,69,48
11400,note_on,,1,0,7,,,,,,,,,,,,,,,,2,,54,48
11400,note_on,,1,0,15,,,,,,,,,,,,,,,,13,,54,48
11400,note_on,,0,0,16,,,,,,,,,,,,,,,,15,,62,48
11400,note_on,,0,0,16,,,,,,,,,,,,,,,,15,,69,48
11400,note_on,,121,0,12,,,,,,,,,,,,,,,,10,,74,48
11400,note_on,,121,0,14,,,,,,,,,,,,,,,,12,,62,48
11400,note_on,,1,0,16,,,,,,,,,,,,,,,,15,,54,48
11400,note_on,,241,0,9,,,,,,,,,,,,,,,,6,,69,58
11459,note_on,,59,0,9,,,,,,,,,,,,,,,,6,,69,0
11459,note_on,,59,0,7,,,,,,,,,,,,,,,,2,,54,0
11459,note_on,,59,0,15,,,,,,,,,,,,,,,,13,,54,0
11459,note_on,,59,0,16,,,,,,,,,,,,,,,,15,,54,0
11459,note_on,,0,0,16,,,,,,,,,,,,,,,,15,,69,0
11459,note_on,,0,0,16,,,,,,,,,,,,,,,,15,,62,0
11460,note_on,,1,0,9,,,,,,,,,,,,,,,,6,,66,58
11460,note_on,,1,0,7,,,,,,,,,,,,,,,,2,,50,48
11460,note_on,,1,0,16,,,,,,,,,,,,,,,,15,,50,48
11460,note_on,,0,0,16,,,,,,,,,,,,,,,,15,,74,48
11460,note_on,,0,0,16,,,,,,,,,,,,,,,,15,,66,48
11460,note_on,,1,0,15,,,,,,,,,,,,,,,,13,,50,48
11460,note_on,,0,0,16,,,,,,,,,,,,,,,,15,,69,48
11519,note_on,,59,0,9,,,,,,,,,,,,,,,,6,,66,0
11519,note_on,,119,0,14,,,,,,,,,,,,,,,,12,,62,0
11519,note_on,,59,0,15,,,,,,,,,,,,,,,,13,,50,0
11519,note_on,,0,0,16,,,,,,,,,,,,,,,,15,,66,0
11519,note_on,,0,0,16,,,,,,,,,,,,,,,,15,,69,0
11519,note_on,,0,0,16,,,,,,,,,,,,,,,,15,,74,0
11519,note_on,,59,0,16,,,,,,,,,,,,,,,,15,,50,0
11519,note_on,,119,0,13,,,,,,,,,,,,,,,,11,,69,0
11519,note_on,,119,0,12,,,,,,,,,,,,,,,,10,,74,0
11519,note_on,,59,0,7,,,,,,,,,,,,,,,,2,,50,0
11520,note_on,,1,0,14,,,,,,,,,,,,,,,,12,,64,48
11520,note_on,,0,0,16,,,,,,,,,,,,,,,,15,,62,48
11520,note_on,,0,0,16,,,,,,,,,,,,,,,,15,,67,48
11520,note_on,,1,0,12,,,,,,,,,,,,,,,,10,,74,48
11520,note_on,,1,0,7,,,,,,,,,,,,,,,,2,,55,48
11520,note_on,,1,0,16,,,,,,,,,,,,,,,,15,,55,48
11520,note_on,,0,0,16,,,,,,,,,,,,,,,,15,,71,48
11520,note_on,,1,0,9,,,,,,,,,,,,,,,,6,,62,58
11520,note_on,,1,0,13,,,,,,,,,,,,,,,,11,,71,48
11520,note_on,,1,0,15,,,,,,,,,,,,,,,,13,,55,48
11579,note_on,,59,0,15,,,,,,,,,,,,,,,,13,,55,0
11579,note_on,,59,0,16,,,,,,,,,,,,,,,,15,,55,0
11579,note_on,,59,0,7,,,,,,,,,,,,,,,,2,,55,0
11580,note_on,,1,0,7,,,,,,,,,,,,,,,,2,,47,48
11580,note_on,,181,0,11,,,,,,,,,,,,,,,,8,,62,58
11580,note_on,,1,0,15,,,,,,,,,,,,,,,,13,,47,48
11580,note_on,,1,0,16,,,,,,,,,,,,,,,,15,,47,48
11639,note_on,,119,0,13,,,,,,,,,,,,,,,,11,,71,0
11639,note_on,,59,0,11,,,,,,,,,,,,,,,,8,,62,0
11639,note_on,,59,0,7,,,,,,,,,,,,,,,,2,,47,0
11639,note_on,,59,0,15,,,,,,,,,,,,,,,,13,,47,0
11639,note_on,,119,0,9,,,,,,,,,,,,,,,,6,,62,0
11639,note_on,,59,0,16,,,,,,,,,,,,,,,,15,,47,0
11639,note_on,,119,0,14,,,,,,,,,,,,,,,,12,,64,0
11639,note_on,,119,0,12,,,,,,,,,,,,,,,,10,,74,0
11640,note_on,,1,0,11,,,,,,,,,,,,,,,,8,,59,58
11640,note_on,,1,0,7,,,,,,,,,,,,,,,,2,,50,48
11640,note_on,,1,0,16,,,,,,,,,,,,,,,,15,,50,48
11640,note_on,,1,0,15,,,,,,,,,,,,,,,,13,,50,48
11699,note_on,,0,0,16,,,,,,,,,,,,,,,,15,,67,0
11699,note_on,,0,0,16,,,,,,,,,,,,,,,,15,,62,0
11699,note_on,,0,0,16,,,,,,,,,,,,,,,,15,,50,0
11699,note_on,,59,0,11,,,,,,,,,,,,,,,,8,,59,0
11699,note_on,,59,0,7,,,,,,,,,,,,,,,,2,,50,0
11699,note_on,,59,0,15,,,,,,,,,,,,,,,,13,,50,0
11699,note_on,,59,0,16,,,,,,,,,,,,,,,,15,,71,0
11700,note_on,,1,0,11,,,,,,,,,,,,,,,,8,,55,58
11700,note_on,,1,0,7,,,,,,,,,,,,,,,,2,,47,48
11700,note_on,,0,0,16,,,,,,,,,,,,,,,,15,,62,48
11700,note_on,,0,0,16,,,,,,,,,,,,,,,,15,,55,48
11700,note_on,,1,0,15,,,,,,,,,,,,,,,,13,,47,48
11700,note_on,,1,0,16,,,,,,,,,,,,,,,,15,,47,48
11759,note_on,,59,0,15,,,,,,,,,,,,,,,,13,,47,0
11759,note_on,,59,0,7,,,,,,,,,,,,,,,,2,,47,0
11759,note_on,,59,0,11,,,,,,,,,,,,,,,,8,,55,0
11759,note_on,,59,0,16,,,,,,,,,,,,,,,,15,,47,0
11759,note_on,,0,0,16,,,,,,,,,,,,,,,,15,,62,0
11759,note_on,,0,0,16,,,,,,,,,,,,,,,,15,,55,0
11760,note_on,,1,0,16,,,,,,,,,,,,,,,,15,,43,48
11760,note_on,,1,0,11,,,,,,,,,,,,,,,,8,,52,58
11760,note_on,,1,0,7,,,,,,,,,,,,,,,,2,,43,48
11760,note_on,,121,0,14,,,,,,,,,,,,,,,,12,,64,48
11760,note_on,,121,0,12,,,,,,,,,,,,,,,,10,,76,48
11760,note_on,,1,0,15,,,,,,,,,,,,,,,,13,,43,48
11760,note_on,,0,0,16,,,,,,,,,,,,,,,,15,,59,48
11760,note_on,,0,0,16,,,,,,,,,,,,,,,,15,,64,48
11760,note_on,,0,0,16,,,,,,,,,,,,,,,,15,,67,48
11760,note_on,,121,0,13,,,,,,,,,,,,,,,,11,,71,48
11819,note_on,,59,0,15,,,,,,,,,,,,,,,,13,,43,0
11819,note_on,,59,0,16,,,,,,,,,,,,,,,,15,,43,0
11819,note_on,,59,0,11,,,,,,,,,,,,,,,,8,,52,0
11819,note_on,,59,0,7,,,,,,,,,,,,,,,,2,,43,0
11820,note_on,,181,0,9,,,,,,,,,,,,,,,,6,,71,58
11820,note_on,,1,0,16,,,,,,,,,,,,,,,,15,,55,48
11820,note_on,,1,0,11,,,,,,,,,,,,,,,,8,,52,58
11820,note_on,,1,0,15,,,,,,,,,,,,,,,,13,,55,48
11820,note_on,,1,0,7,,,,,,,,,,,,,,,,2,,55,48
11879,note_on,,59,0,16,,,,,,,,,,,,,,,,15,,67,0
11879,note_on,,0,0,16,,,,,,,,,,,,,,,,15,,64,0
11879,note_on,,119,0,12,,,,,,,,,,,,,,,,10,,76,0
11879,note_on,,0,0,16,,,,,,,,,,,,,,,,15,,55,0
11879,note_on,,119,0,14,,,,,,,,,,,,,,,,12,,64,0
11879,note_on,,59,0,15,,,,,,,,,,,,,,,,13,,55,0
11879,note_on,,0,0,16,,,,,,,,,,,,,,,,15,,59,0
11879,note_on,,59,0,9,,,,,,,,,,,,,,,,6,,71,0
11879,note_on,,59,0,11,,,,,,,,,,,,,,,,8,,52,0
11879,note_on,,119,0,13,,,,,,,,,,,,,,,,11,,71,0
11879,note_on,,59,0,7,,,,,,,,,,,,,,,,2,,55,0
11880,note_on,,0,0,16,,,,,,,,,,,,,,,,15,,64,48
11880,note_on,,1,0,15,,,,,,,,,,,,,,,,13,,52,48
11880,note_on,,1,0,9,,,,,,,,,,,,,,,,6,,67,58
11880,note_on,,1,0,7,,,,,,,,,,,,,,,,2,,52,48
11880,note_on,,0,0,16,,,,,,,,,,,,,,,,15,,67,48
11880,note_on,,0,0,16,,,,,,,,,,,,,,,,15,,71,48
11880,note_on,,1,0,16,,,,,,,,,,,,,,,,15,,52,48
11939,note_on,,59,0,9,,,,,,,,,,,,,,,,6,,67,0
11939,note_on,,59,0,16,,,,,,,,,,,,,,,,15,,52,0
11939,note_on,,59,0,15,,,,,,,,,,,,,,,,13,,52,0
11939,note_on,,59,0,7,,,,,,,,,,,,,,,,2,,52,0
11940,note_on,,1,0,7,,,,,,,,,,,,,,,,2,,55,48
11940,note_on,,1,0,15,,,,,,,,,,,,,,,,13,,55,48
11940,note_on,,1,0,9,,,,,,,,,,,,,,,,6,,64,58
11940,note_on,,1,0,16,,,,,,,,,,,,,,,,15,,55,48
11999,note_on,,0,0,16,,,,,,,,,,,,,,,,15,,55,0
11999,note_on,,0,0,16,,,,,,,,,,,,,,,,15,,64,0
11999,note_on,,59,0,16,,,,,,,,,,,,,,,,15,,71,0
11999,note_on,,0,0,16,,,,,,,,,,,,,,,,15,,67,0
11999,note_on,,59,0,15,,,,,,,,,,,,,,,,13,,55,0
11999,note_on,,59,0,7,,,,,,,,,,,,,,,,2,,55,0
11999,note_on,,59,0,9,,,,,,,,,,,,,,,,6,,64,0
12000,note_on,,1,0,7,,,,,,,,,,,,,,,,2,,57,48
12000,note_on,,1,0,15,,,,,,,,,,,,,,,,13,,57,48
12000,note_on,,121,0,12,,,,,,,,,,,,,,,,10,,76,48
12000,note_on,,1,0,16,,,,,,,,,,,,,,,,15,,57,48
12000,note_on,,0,0,16,,,,,,,,,,,,,,,,15,,64,48
12000,note_on,,1,0,9,,,,,,,,,,,,,,,,6,,61,58
12000,note_on,,121,0,13,,,,,,,,,,,,,,,,11,,73,48
12000,note_on,,0,0,16,,,,,,,,,,,,,,,,15,,61,48
12000,note_on,,121,0,14,,,,,,,,,,,,,,,,12,,66,48
12059,note_on,,59,0,9,,,,,,,,,,,,,,,,6,,61,0
12060,note_on,,1,0,9,,,,,,,,,,,,,,,,6,,61,58
12119,note_on,,119,0,13,,,,,,,,,,,,,,,,11,,73,0
12119,note_on,,119,0,12,,,,,,,,,,,,,,,,10,,76,0
12119,note_on,,0,0,16,,,,,,,,,,,,,,,,15,,64,0
12119,note_on,,119,0,7,,,,,,,,,,,,,,,,2,,57,0
12119,note_on,,119,0,15,,,,,,,,,,,,,,,,13,,57,0
12119,note_on,,59,0,9,,,,,,,,,,,,,,,,6,,61,0
12119,note_on,,119,0,16,,,,,,,,,,,,,,,,15,,57,0
12119,note_on,,0,0,16,,,,,,,,,,,,,,,,15,,61,0
12119,note_on,,119,0,14,,,,,,,,,,,,,,,,12,,66,0
12120,note_on,,3841,0,10,,,,,,,,,,,,,,,,7,,57,78
12120,note_on,,0,0,16,,,,,,,,,,,,,,,,15,,69,48
12120,note_on,,0,0,16,,,,,,,,,,,,,,,,15,,61,48
12120,note_on,,1,0,7,,,,,,,,,,,,,,,,2,,54,48
12120,note_on,,0,0,16,,,,,,,,,,,,,,,,15,,66,48
12120,note_on,,1,0,16,,,,,,,,,,,,,,,,15,,54,48
12120,note_on,,1,0,15,,,,,,,,,,,,,,,,13,,54,48
12209,note_on,,89,0,10,,,,,,,,,,,,,,,,7,,57,0
12210,note_on,,1,0,10,,,,,,,,,,,,,,,,7,,61,78
12239,note_on,,29,0,10,,,,,,,,,,,,,,,,7,,61,0
12239,note_on,,119,0,7,,,,,,,,,,,,,,,,2,,54,0
12239,note_on,,119,0,15,,,,,,,,,,,,,,,,13,,54,0
12239,note_on,,0,0,16,,,,,,,,,,,,,,,,15,,69,0
12239,note_on,,119,0,16,,,,,,,,,,,,,,,,15,,54,0
12239,note_on,,0,0,16,,,,,,,,,,,,,,,,15,,61,0
12239,note_on,,0,0,16,,,,,,,,,,,,,,,,15,,66,0
12240,note_on,,1,0,15,,,,,,,,,,,,,,,,13,,55,48
12240,note_on,,0,0,16,,,,,,,,,,,,,,,,15,,62,48
12240,note_on,,0,0,16,,,,,,,,,,,,,,,,15,,67,48
12240,note_on,,1,0,16,,,,,,,,,,,,,,,,15,,55,48
12240,note_on,,1,0,10,,,,,,,,,,,,,,,,7,,59,78
12240,note_on,,0,0,16,,,,,,,,,,,,,,,,15,,59,48
12240,note_on,,1,0,7,,,,,,,,,,,,,,,,2,,55,48
12329,note_on,,89,0,10,,,,,,,,,,,,,,,,7,,59,0
12330,note_on,,1,0,10,,,,,,,,,,,,,,,,7,,62,78
12359,note_on,,119,0,7,,,,,,,,,,,,,,,,2,,55,0
12359,note_on,,29,0,10,,,,,,,,,,,,,,,,7,,62,0
12359,note_on,,0,0,16,,,,,,,,,,,,,,,,15,,59,0
12359,note_on,,0,0,16,,,,,,,,,,,,,,,,15,,62,0
12359,note_on,,119,0,15,,,,,,,,,,,,,,,,13,,55,0
12359,note_on,,119,0,16,,,,,,,,,,,,,,,,15,,55,0
12359,note_on,,0,0,16,,,,,,,,,,,,,,,,15,,67,0
12360,note_on,,1,0,16,,,,,,,,,,,,,,,,15,,52,48
12360,note_on,,1,0,7,,,,,,,,,,,,,,,,2,,52,48
12360,note_on,,1,0,15,,,,,,,,,,,,,,,,13,,52,48
12360,note_on,,0,0,16,,,,,,,,,,,,,,,,15,,73,48
12360,note_on,,0,0,16,,,,,,,,,,,,,,,,15,,67,48
12360,note_on,,1,0,10,,,,,,,,,,,,,,,,7,,61,78
12360,note_on,,0,0,16,,,,,,,,,,,,,,,,15,,76,48
12449,note_on,,89,0,10,,,,,,,,,,,,,,,,7,,61,0
12450,note_on,,1,0,10,,,,,,,,,,,,,,,,7,,64,78
12479,note_on,,0,0,16,,,,,,,,,,,,,,,,15,,76,0
12479,note_on,,119,0,15,,,,,,,,,,,,,,,,13,,52,0
12479,note_on,,119,0,7,,,,,,,,,,,,,,,,2,,52,0
12479,note_on,,29,0,10,,,,,,,,,,,,,,,,7,,64,0
12479,note_on,,119,0,16,,,,,,,,,,,,,,,,15,,52,0
12479,note_on,,0,0,16,,,,,,,,,,,,,,,,15,,73,0
12479,note_on,,0,0,16,,,,,,,,,,,,,,,,15,,67,0
12480,note_on,,1,0,15,,,,,,,,,,,,,,,,13,,54,48
12480,note_on,,0,0,16,,,,,,,,,,,,,,,,15,,69,48
12480,note_on,,0,0,16,,,,,,,,,,,,,,,,15,,66,48
12480,note_on,,0,0,16,,,,,,,,,,,,,,,,15,,62,48
12480,note_on,,1,0,10,,,,,,,,,,,,,,,,7,,62,78
12480,note_on,,1,0,7,,,,,,,,,,,,,,,,2,,54,48
12480,note_on,,1,0,16,,,,,,,,,,,,,,,,15,,54,48
12569,note_on,,89,0,10,,,,,,,,,,,,,,,,7,,62,0
12570,note_on,,1,0,10,,,,,,,,,,,,,,,,7,,66,78
12599,note_on,,119,0,7,,,,,,,,,,,,,,,,2,,54,0
12599,note_on,,29,0,10,,,,,,,,,,,,,,,,7,,66,0
12599,note_on,,119,0,15,,,,,,,,,,,,,,,,13,,54,0
12599,note_on,,119,0,16,,,,,,,,,,,,,,,,15,,54,0
12599,note_on,,0,0,16,,,,,,,,,,,,,,,,15,,62,0
12599,note_on,,0,0,16,,,,,,,,,,,,,,,,15,,66,0
12600,note_on,,1,0,15,,,,,,,,,,,,,,,,13,,49,48
12600,note_on,,1,0,7,,,,,,,,,,,,,,,,2,,49,48
12600,note_on,,0,0,16,,,,,,,,,,,,,,,,15,,64,48
12600,note_on,,1,0,16,,,,,,,,,,,,,,,,15,,49,48
12600,note_on,,0,0,16,,,,,,,,,,,,,,,,15,,57,48
12600,note_on,,1,0,10,,,,,,,,,,,,,,,,7,,64,78
12689,note_on,,89,0,10,,,,,,,,,,,,,,,,7,,64,0
12690,note_on,,1,0,10,,,,,,,,,,,,,,,,7,,67,78
12719,note_on,,119,0,16,,,,,,,,,,,,,,,,15,,69,0
12719,note_on,,119,0,15,,,,,,,,,,,,,,,,13,,49,0
12719,note_on,,0,0,16,,,,,,,,,,,,,,,,15,,49,0
12719,note_on,,29,0,10,,,,,,,,,,,,,,,,7,,67,0
12719,note_on,,119,0,7,,,,,,,,,,,,,,,,2,,49,0
12719,note_on,,0,0,16,,,,,,,,,,,,,,,,15,,64,0
12719,note_on,,0,0,16,,,,,,,,,,,,,,,,15,,57,0
12720,note_on,,0,0,16,,,,,,,,,,,,,,,,15,,57,48
12720,note_on,,0,0,16,,,,,,,,,,,,,,,,15,,66,48
12720,note_on,,1,0,15,,,,,,,,,,,,,,,,13,,50,48
12720,note_on,,1,0,16,,,,,,,,,,,,,,,,15,,50,48
12720,note_on,,1,0,7,,,,,,,,,,,,,,,,2,,50,48
12720,note_on,,1,0,10,,,,,,,,,,,,,,,,7,,66,78
12720,note_on,,0,0,16,,,,,,,,,,,,,,,,15,,62,48
12779,note_on,,59,0,10,,,,,,,,,,,,,,,,7,,66,0
12780,note_on,,1,0,10,,,,,,,,,,,,,,,,7,,64,78
12809,note_on,,29,0,10,,,,,,,,,,,,,,,,7,,64,0
12810,note_on,,1,0,10,,,,,,,,,,,,,,,,7,,62,78
12839,note_on,,119,0,7,,,,,,,,,,,,,,,,2,,50,0
12839,note_on,,0,0,16,,,,,,,,,,,,,,,,15,,57,0
12839,note_on,,119,0,16,,,,,,,,,,,,,,,,15,,50,0
12839,note_on,,119,0,15,,,,,,,,,,,,,,,,13,,50,0
12839,note_on,,0,0,16,,,,,,,,,,,,,,,,15,,62,0
12839,note_on,,29,0,10,,,,,,,,,,,,,,,,7,,62,0
12839,note_on,,0,0,16,,,,,,,,,,,,,,,,15,,66,0
12840,note_on,,1,0,16,,,,,,,,,,,,,,,,15,,52,48
12840,note_on,,1,0,7,,,,,,,,,,,,,,,,2,,52,48
12840,note_on,,1,0,10,,,,,,,,,,,,,,,,7,,61,78
12840,note_on,,1,0,15,,,,,,,,,,,,,,,,13,,52,48
12840,note_on,,0,0,16,,,,,,,,,,,,,,,,15,,67,48
12840,note_on,,0,0,16,,,,,,,,,,,,,,,,15,,64,48
12840,note_on,,0,0,16,,,,,,,,,,,,,,,,15,,73,48
12899,note_on,,59,0,10,,,,,,,,,,,,,,,,7,,61,0
12900,note_on,,1,0,10,,,,,,,,,,,,,,,,7,,59,78
12959,note_on,,119,0,16,,,,,,,,,,,,,,,,15,,52,0
12959,note_on,,0,0,16,,,,,,,,,,,,,,,,15,,73,0
12959,note_on,,119,0,15,,,,,,,,,,,,,,,,13,,52,0
12959,note_on,,0,0,16,,,,,,,,,,,,,,,,15,,64,0
12959,note_on,,0,0,16,,,,,,,,,,,,,,,,15,,67,0
12959,note_on,,59,0,10,,,,,,,,,,,,,,,,7,,59,0
12959,note_on,,119,0,7,,,,,,,,,,,,,,,,2,,52,0
12960,note_on,,0,0,16,,,,,,,,,,,,,,,,15,,62,48
12960,note_on,,1,0,7,,,,,,,,,,,,,,,,2,,54,48
12960,note_on,,0,0,16,,,,,,,,,,,,,,,,15,,74,48
12960,note_on,,1,0,15,,,,,,,,,,,,,,,,13,,54,48
12960,note_on,,1,0,16,,,,,,,,,,,,,,,,15,,54,48
12960,note_on,,1,0,10,,,,,,,,,,,,,,,,7,,57,78
12960,note_on,,0,0,16,,,,,,,,,,,,,,,,15,,69,48
13019,note_on,,59,0,16,,,,,,,,,,,,,,,,15,,54,0
13019,note_on,,59,0,7,,,,,,,,,,,,,,,,2,,54,0
13019,note_on,,59,0,15,,,,,,,,,,,,,,,,13,,54,0
13020,note_on,,1,0,15,,,,,,,,,,,,,,,,13,,50,48
13020,note_on,,1,0,16,,,,,,,,,,,,,,,,15,,50,48
13020,note_on,,1,0,7,,,,,,,,,,,,,,,,2,,50,48
13079,note_on,,0,0,16,,,,,,,,,,,,,,,,15,,50,0
13079,note_on,,0,0,16,,,,,,,,,,,,,,,,15,,62,0
13079,note_on,,59,0,16,,,,,,,,,,,,,,,,15,,74,0
13079,note_on,,0,0,16,,,,,,,,,,,,,,,,15,,69,0
13079,note_on,,59,0,7,,,,,,,,,,,,,,,,2,,50,0
13079,note_on,,59,0,15,,,,,,,,,,,,,,,,13,,50,0
13080,note_on,,0,0,16,,,,,,,,,,,,,,,,15,,69,48
13080,note_on,,4801,0,6,,,,,,,,,,,,,,,,1,,69,63
13080,note_on,,4801,0,8,,,,,,,,,,,,,,,,5,,69,78
13080,note_on,,0,0,16,,,,,,,,,,,,,,,,15,,73,48
13080,note_on,,1,0,16,,,,,,,,,,,,,,,,15,,57,48
13080,note_on,,1,0,7,,,,,,,,,,,,,,,,2,,57,48
13080,note_on,,1,0,15,,,,,,,,,,,,,,,,13,,57,48
13080,note_on,,0,0,16,,,,,,,,,,,,,,,,15,,64,48
13080,note_on,,4801,0,5,,,,,,,,,,,,,,,,0,,69,63
13169,note_on,,89,0,6,,,,,,,,,,,,,,,,1,,69,0
13169,note_on,,89,0,8,,,,,,,,,,,,,,,,5,,69,0
13169,note_on,,89,0,5,,,,,,,,,,,,,,,,0,,69,0
13170,note_on,,1,0,6,,,,,,,,,,,,,,,,1,,73,63
13170,note_on,,1,0,8,,,,,,,,,,,,,,,,5,,73,78
13170,note_on,,1,0,5,,,,,,,,,,,,,,,,0,,73,63
13199,note_on,,29,0,5,,,,,,,,,,,,,,,,0,,73,0
13199,note_on,,119,0,16,,,,,,,,,,,,,,,,15,,73,0
13199,note_on,,0,0,16,,,,,,,,,,,,,,,,15,,69,0
13199,note_on,,29,0,6,,,,,,,,,,,,,,,,1,,73,0
13199,note_on,,29,0,8,,,,,,,,,,,,,,,,5,,73,0
13199,note_on,,0,0,16,,,,,,,,,,,,,,,,15,,64,0
13200,note_on,,1,0,6,,,,,,,,,,,,,,,,1,,71,63
13200,note_on,,0,0,16,,,,,,,,,,,,,,,,15,,66,48
13200,note_on,,1,0,8,,,,,,,,,,,,,,,,5,,71,78
13200,note_on,,1,0,16,,,,,,,,,,,,,,,,15,,74,48
13200,note_on,,1,0,5,,,,,,,,,,,,,,,,0,,71,63
13200,note_on,,0,0,16,,,,,,,,,,,,,,,,15,,71,48
13289,note_on,,89,0,8,,,,,,,,,,,,,,,,5,,71,0
13289,note_on,,89,0,5,,,,,,,,,,,,,,,,0,,71,0
13289,note_on,,89,0,6,,,,,,,,,,,,,,,,1,,71,0
13290,note_on,,1,0,6,,,,,,,,,,,,,,,,1,,74,63
13290,note_on,,1,0,5,,,,,,,,,,,,,,,,0,,74,63
13290,note_on,,1,0,8,,,,,,,,,,,,,,,,5,,74,78
13319,note_on,,239,0,7,,,,,,,,,,,,,,,,2,,57,0
13319,note_on,,0,0,16,,,,,,,,,,,,,,,,15,,71,0
13319,note_on,,0,0,16,,,,,,,,,,,,,,,,15,,66,0
13319,note_on,,239,0,15,,,,,,,,,,,,,,,,13,,57,0
13319,note_on,,29,0,6,,,,,,,,,,,,,,,,1,,74,0
13319,note_on,,119,0,16,,,,,,,,,,,,,,,,15,,57,0
13319,note_on,,0,0,16,,,,,,,,,,,,,,,,15,,74,0
13319,note_on,,29,0,5,,,,,,,,,,,,,,,,0,,74,0
13319,note_on,,29,0,8,,,,,,,,,,,,,,,,5,,74,0
13320,note_on,,0,0,16,,,,,,,,,,,,,,,,15,,64,48
13320,note_on,,1,0,15,,,,,,,,,,,,,,,,13,,55,48
13320,note_on,,1,0,8,,,,,,,,,,,,,,,,5,,73,78
13320,note_on,,1,0,7,,,,,,,,,,,,,,,,2,,55,48
13320,note_on,,0,0,16,,,,,,,,,,,,,,,,15,,73,48
13320,note_on,,1,0,6,,,,,,,,,,,,,,,,1,,73,63
13320,note_on,,1,0,16,,,,,,,,,,,,,,,,15,,55,48
13320,note_on,,0,0,16,,,,,,,,,,,,,,,,15,,76,48
13320,note_on,,0,0,16,,,,,,,,,,,,,,,,15,,69,48
13320,note_on,,1,0,5,,,,,,,,,,,,,,,,0,,73,63
13409,note_on,,89,0,6,,,,,,,,,,,,,,,,1,,73,0
13409,note_on,,89,0,5,,,,,,,,,,,,,,,,0,,73,0
13409,note_on,,89,0,8,,,,,,,,,,,,,,,,5,,73,0
13410,note_on,,1,0,6,,,,,,,,,,,,,,,,1,,76,63
13410,note_on,,1,0,5,,,,,,,,,,,,,,,,0,,76,63
13410,note_on,,1,0,8,,,,,,,,,,,,,,,,5,,76,78
13439,note_on,,0,0,16,,,,,,,,,,,,,,,,15,,76,0
13439,note_on,,29,0,8,,,,,,,,,,,,,,,,5,,76,0
13439,note_on,,0,0,16,,,,,,,,,,,,,,,,15,,73,0
13439,note_on,,0,0,16,,,,,,,,,,,,,,,,15,,69,0
13439,note_on,,119,0,7,,,,,,,,,,,,,,,,2,,55,0
13439,note_on,,119,0,15,,,,,,,,,,,,,,,,13,,55,0
13439,note_on,,479,0,10,,,,,,,,,,,,,,,,7,,57,0
13439,note_on,,29,0,6,,,,,,,,,,,,,,,,1,,76,0
13439,note_on,,29,0,5,,,,,,,,,,,,,,,,0,,76,0
13439,note_on,,0,0,16,,,,,,,,,,,,,,,,15,,64,0
13439,note_on,,119,0,16,,,,,,,,,,,,,,,,15,,55,0
13440,note_on,,1,0,16,,,,,,,,,,,,,,,,15,,54,48
13440,note_on,,1,0,8,,,,,,,,,,,,,,,,5,,74,78
13440,note_on,,0,0,16,,,,,,,,,,,,,,,,15,,69,48
13440,note_on,,0,0,16,,,,,,,,,,,,,,,,15,,66,48
13440,note_on,,0,0,16,,,,,,,,,,,,,,,,15,,62,48
13440,note_on,,1,0,7,,,,,,,,,,,,,,,,2,,54,48
13440,note_on,,1,0,15,,,,,,,,,,,,,,,,13,,54,48
13440,note_on,,1,0,10,,,,,,,,,,,,,,,,7,,57,78
13440,note_on,,1,0,6,,,,,,,,,,,,,,,,1,,74,63
13440,note_on,,1,0,5,,,,,,,,,,,,,,,,0,,74,63
13529,note_on,,89,0,6,,,,,,,,,,,,,,,,1,,74,0
13529,note_on,,89,0,8,,,,,,,,,,,,,,,,5,,74,0
13529,note_on,,89,0,5,,,,,,,,,,,,,,,,0,,74,0
13530,note_on,,1,0,8,,,,,,,,,,,,,,,,5,,78,78
13530,note_on,,1,0,5,,,,,,,,,,,,,,,,0,,78,63
13530,note_on,,1,0,6,,,,,,,,,,,,,,,,1,,78,63
13559,note_on,,29,0,8,,,,,,,,,,,,,,,,5,,78,0
13559,note_on,,119,0,15,,,,,,,,,,,,,,,,13,,54,0
13559,note_on,,29,0,6,,,,,,,,,,,,,,,,1,,78,0
13559,note_on,,119,0,16,,,,,,,,,,,,,,,,15,,54,0
13559,note_on,,0,0,16,,,,,,,,,,,,,,,,15,,66,0
13559,note_on,,0,0,16,,,,,,,,,,,,,,,,15,,62,0
13559,note_on,,29,0,5,,,,,,,,,,,,,,,,0,,78,0
13559,note_on,,119,0,7,,,,,,,,,,,,,,,,2,,54,0
13560,note_on,,1,0,7,,,,,,,,,,,,,,,,2,,49,48
13560,note_on,,1,0,16,,,,,,,,,,,,,,,,15,,49,48
13560,note_on,,0,0,16,,,,,,,,,,,,,,,,15,,57,48
13560,note_on,,0,0,16,,,,,,,,,,,,,,,,15,,64,48
13560,note_on,,1,0,15,,,,,,,,,,,,,,,,13,,49,48
13560,note_on,,1,0,8,,,,,,,,,,,,,,,,5,,76,78
13560,note_on,,1,0,6,,,,,,,,,,,,,,,,1,,76,63
13560,note_on,,1,0,5,,,,,,,,,,,,,,,,0,,76,63
13649,note_on,,89,0,6,,,,,,,,,,,,,,,,1,,76,0
13649,note_on,,89,0,5,,,,,,,,,,,,,,,,0,,76,0
13649,note_on,,89,0,8,,,,,,,,,,,,,,,,5,,76,0
13650,note_on,,1,0,6,,,,,,,,,,,,,,,,1,,79,63
13650,note_on,,1,0,8,,,,,,,,,,,,,,,,5,,79,78
13650,note_on,,1,0,5,,,,,,,,,,,,,,,,0,,79,63
13679,note_on,,239,0,10,,,,,,,,,,,,,,,,7,,57,0
13679,note_on,,29,0,6,,,,,,,,,,,,,,,,1,,79,0
13679,note_on,,119,0,7,,,,,,,,,,,,,,,,2,,49,0
13679,note_on,,0,0,16,,,,,,,,,,,,,,,,15,,57,0
13679,note_on,,0,0,16,,,,,,,,,,,,,,,,15,,64,0
13679,note_on,,0,0,16,,,,,,,,,,,,,,,,15,,49,0
13679,note_on,,119,0,16,,,,,,,,,,,,,,,,15,,69,0
13679,note_on,,29,0,8,,,,,,,,,,,,,,,,5,,79,0
13679,note_on,,29,0,5,,,,,,,,,,,,,,,,0,,79,0
13679,note_on,,119,0,15,,,,,,,,,,,,,,,,13,,49,0
13680,note_on,,1,0,5,,,,,,,,,,,,,,,,0,,78,63
13680,note_on,,1,0,15,,,,,,,,,,,,,,,,13,,50,48
13680,note_on,,0,0,16,,,,,,,,,,,,,,,,15,,57,48
13680,note_on,,0,0,16,,,,,,,,,,,,,,,,15,,62,48
13680,note_on,,0,0,16,,,,,,,,,,,,,,,,15,,66,48
13680,note_on,,1,0,16,,,,,,,,,,,,,,,,15,,50,48
13680,note_on,,1,0,7,,,,,,,,,,,,,,,,2,,50,48
13680,note_on,,1,0,6,,,,,,,,,,,,,,,,1,,78,63
13680,note_on,,1,0,8,,,,,,,,,,,,,,,,5,,78,78
13739,note_on,,59,0,8,,,,,,,,,,,,,,,,5,,78,0
13739,note_on,,59,0,5,,,,,,,,,,,,,,,,0,,78,0
13739,note_on,,59,0,6,,,,,,,,,,,,,,,,1,,78,0
13740,note_on,,1,0,5,,,,,,,,,,,,,,,,0,,76,63
13740,note_on,,1,0,8,,,,,,,,,,,,,,,,5,,76,78
13740,note_on,,1,0,6,,,,,,,,,,,,,,,,1,,76,63
13769,note_on,,29,0,6,,,,,,,,,,,,,,,,1,,76,0
13769,note_on,,29,0,8,,,,,,,,,,,,,,,,5,,76,0
13769,note_on,,29,0,5,,,,,,,,,,,,,,,,0,,76,0
13770,note_on,,1,0,8,,,,,,,,,,,,,,,,5,,74,78
13770,note_on,,1,0,6,,,,,,,,,,,,,,,,1,,74,63
13770,note_on,,1,0,5,,,,,,,,,,,,,,,,0,,74,63
13799,note_on,,29,0,8,,,,,,,,,,,,,,,,5,,74,0
13799,note_on,,29,0,6,,,,,,,,,,,,,,,,1,,74,0
13799,note_on,,119,0,15,,,,,,,,,,,,,,,,13,,50,0
13799,note_on,,119,0,7,,,,,,,,,,,,,,,,2,,50,0
13799,note_on,,29,0,5,,,,,,,,,,,,,,,,0,,74,0
13799,note_on,,0,0,16,,,,,,,,,,,,,,,,15,,57,0
13799,note_on,,0,0,16,,,,,,,,,,,,,,,,15,,62,0
13799,note_on,,0,0,16,,,,,,,,,,,,,,,,15,,66,0
13799,note_on,,119,0,16,,,,,,,,,,,,,,,,15,,50,0
13800,note_on,,1,0,7,,,,,,,,,,,,,,,,2,,52,48
13800,note_on,,1,0,15,,,,,,,,,,,,,,,,13,,52,48
13800,note_on,,1,0,16,,,,,,,,,,,,,,,,15,,61,48
13800,note_on,,0,0,16,,,,,,,,,,,,,,,,15,,67,48
13800,note_on,,0,0,16,,,,,,,,,,,,,,,,15,,52,48
13800,note_on,,1,0,6,,,,,,,,,,,,,,,,1,,73,63
13800,note_on,,1,0,5,,,,,,,,,,,,,,,,0,,73,63
13800,note_on,,1,0,8,,,,,,,,,,,,,,,,5,,73,78
13859,note_on,,59,0,8,,,,,,,,,,,,,,,,5,,73,0
13859,note_on,,59,0,5,,,,,,,,,,,,,,,,0,,73,0
13859,note_on,,59,0,6,,,,,,,,,,,,,,,,1,,73,0
13860,note_on,,1,0,5,,,,,,,,,,,,,,,,0,,71,63
13860,note_on,,1,0,6,,,,,,,,,,,,,,,,1,,71,63
13860,note_on,,1,0,8,,,,,,,,,,,,,,,,5,,71,78
13919,note_on,,0,0,16,,,,,,,,,,,,,,,,15,,67,0
13919,note_on,,59,0,8,,,,,,,,,,,,,,,,5,,71,0
13919,note_on,,59,0,5,,,,,,,,,,,,,,,,0,,71,0
13919,note_on,,0,0,16,,,,,,,,,,,,,,,,15,,52,0
13919,note_on,,119,0,15,,,,,,,,,,,,,,,,13,,52,0
13919,note_on,,59,0,6,,,,,,,,,,,,,,,,1,,71,0
13919,note_on,,119,0,16,,,,,,,,,,,,,,,,15,,61,0
13919,note_on,,119,0,7,,,,,,,,,,,,,,,,2,,52,0
13920,note_on,,1,0,15,,,,,,,,,,,,,,,,13,,49,48
13920,note_on,,1,0,5,,,,,,,,,,,,,,,,0,,69,63
13920,note_on,,1,0,6,,,,,,,,,,,,,,,,1,,69,63
13920,note_on,,1,0,8,,,,,,,,,,,,,,,,5,,69,78
13920,note_on,,1,0,7,,,,,,,,,,,,,,,,2,,49,48
13920,note_on,,1,0,16,,,,,,,,,,,,,,,,15,,49,48
13920,note_on,,0,0,16,,,,,,,,,,,,,,,,15,,64,48
13920,note_on,,0,0,16,,,,,,,,,,,,,,,,15,,52,48
13920,note_on,,0,0,16,,,,,,,,,,,,,,,,15,,57,48
14039,note_on,,0,0,16,,,,,,,,,,,,,,,,15,,52,0
14039,note_on,,0,0,16,,,,,,,,,,,,,,,,15,,64,0
14039,note_on,,0,0,16,,,,,,,,,,,,,,,,15,,57,0
14039,note_on,,119,0,15,,,,,,,,,,,,,,,,13,,49,0
14039,note_on,,119,0,7,,,,,,,,,,,,,,,,2,,49,0
14039,note_on,,119,0,16,,,,,,,,,,,,,,,,15,,49,0
14040,note_on,,0,0,16,,,,,,,,,,,,,,,,15,,61,48
14040,note_on,,2161,0,11,,,,,,,,,,,,,,,,8,,45,78
14040,note_on,,0,0,16,,,,,,,,,,,,,,,,15,,64,48
14040,note_on,,1,0,16,,,,,,,,,,,,,,,,15,,45,48
14040,note_on,,1,0,15,,,,,,,,,,,,,,,,13,,45,48
14040,note_on,,0,0,16,,,,,,,,,,,,,,,,15,,69,48
14040,note_on,,1921,0,9,,,,,,,,,,,,,,,,6,,61,78
14040,note_on,,1,0,7,,,,,,,,,,,,,,,,2,,45,48
14129,note_on,,89,0,15,,,,,,,,,,,,,,,,13,,45,0
14129,note_on,,89,0,9,,,,,,,,,,,,,,,,6,,61,0
14129,note_on,,89,0,16,,,,,,,,,,,,,,,,15,,45,0
14129,note_on,,89,0,7,,,,,,,,,,,,,,,,2,,45,0
14129,note_on,,89,0,11,,,,,,,,,,,,,,,,8,,45,0
14130,note_on,,1,0,15,,,,,,,,,,,,,,,,13,,49,48
14130,note_on,,1,0,7,,,,,,,,,,,,,,,,2,,49,48
14130,note_on,,1,0,16,,,,,,,,,,,,,,,,15,,49,48
14130,note_on,,1,0,9,,,,,,,,,,,,,,,,6,,64,78
14130,note_on,,1,0,11,,,,,,,,,,,,,,,,8,,49,78
14159,note_on,,29,0,15,,,,,,,,,,,,,,,,13,,49,0
14159,note_on,,29,0,16,,,,,,,,,,,,,,,,15,,69,0
14159,note_on,,29,0,7,,,,,,,,,,,,,,,,2,,49,0
14159,note_on,,0,0,16,,,,,,,,,,,,,,,,15,,64,0
14159,note_on,,29,0,9,,,,,,,,,,,,,,,,6,,64,0
14159,note_on,,0,0,16,,,,,,,,,,,,,,,,15,,49,0
14159,note_on,,0,0,16,,,,,,,,,,,,,,,,15,,61,0
14159,note_on,,29,0,11,,,,,,,,,,,,,,,,8,,49,0
14160,note_on,,1,0,9,,,,,,,,,,,,,,,,6,,62,78
14160,note_on,,1,0,11,,,,,,,,,,,,,,,,8,,47,78
14160,note_on,,0,0,16,,,,,,,,,,,,,,,,15,,62,48
14160,note_on,,0,0,16,,,,,,,,,,,,,,,,15,,67,48
14160,note_on,,1,0,7,,,,,,,,,,,,,,,,2,,47,48
14160,note_on,,1,0,16,,,,,,,,,,,,,,,,15,,47,48
14160,note_on,,1,0,15,,,,,,,,,,,,,,,,13,,47,48
14249,note_on,,89,0,15,,,,,,,,,,,,,,,,13,,47,0
14249,note_on,,89,0,11,,,,,,,,,,,,,,,,8,,47,0
14249,note_on,,89,0,7,,,,,,,,,,,,,,,,2,,47,0
14249,note_on,,89,0,9,,,,,,,,,,,,,,,,6,,62,0
14249,note_on,,89,0,16,,,,,,,,,,,,,,,,15,,47,0
14250,note_on,,1,0,9,,,,,,,,,,,,,,,,6,,66,78
14250,note_on,,1,0,16,,,,,,,,,,,,,,,,15,,50,48
14250,note_on,,1,0,7,,,,,,,,,,,,,,,,2,,50,48
14250,note_on,,1,0,15,,,,,,,,,,,,,,,,13,,50,48
14250,note_on,,1,0,11,,,,,,,,,,,,,,,,8,,50,78
14279,note_on,,29,0,16,,,,,,,,,,,,,,,,15,,67,0
14279,note_on,,29,0,11,,,,,,,,,,,,,,,,8,,50,0
14279,note_on,,29,0,15,,,,,,,,,,,,,,,,13,,50,0
14279,note_on,,0,0,16,,,,,,,,,,,,,,,,15,,62,0
14279,note_on,,0,0,16,,,,,,,,,,,,,,,,15,,50,0
14279,note_on,,29,0,7,,,,,,,,,,,,,,,,2,,50,0
14279,note_on,,29,0,9,,,,,,,,,,,,,,,,6,,66,0
14280,note_on,,0,0,16,,,,,,,,,,,,,,,,15,,57,48
14280,note_on,,0,0,16,,,,,,,,,,,,,,,,15,,55,48
14280,note_on,,1,0,7,,,,,,,,,,,,,,,,2,,49,48
14280,note_on,,1,0,9,,,,,,,,,,,,,,,,6,,64,78
14280,note_on,,0,0,16,,,,,,,,,,,,,,,,15,,64,48
14280,note_on,,1,0,15,,,,,,,,,,,,,,,,13,,49,48
14280,note_on,,1,0,11,,,,,,,,,,,,,,,,8,,49,78
14280,note_on,,1,0,16,,,,,,,,,,,,,,,,15,,49,48
14369,note_on,,89,0,16,,,,,,,,,,,,,,,,15,,49,0
14369,note_on,,89,0,11,,,,,,,,,,,,,,,,8,,49,0
14369,note_on,,89,0,7,,,,,,,,,,,,,,,,2,,49,0
14369,note_on,,89,0,9,,,,,,,,,,,,,,,,6,,64,0
14369,note_on,,89,0,15,,,,,,,,,,,,,,,,13,,49,0
14370,note_on,,1,0,16,,,,,,,,,,,,,,,,15,,52,48
14370,note_on,,1,0,9,,,,,,,,,,,,,,,,6,,67,78
14370,note_on,,1,0,11,,,,,,,,,,,,,,,,8,,52,78
14370,note_on,,1,0,15,,,,,,,,,,,,,,,,13,,52,48
14370,note_on,,1,0,7,,,,,,,,,,,,,,,,2,,52,48
14399,note_on,,29,0,9,,,,,,,,,,,,,,,,6,,67,0
14399,note_on,,479,0,8,,,,,,,,,,,,,,,,5,,69,0
14399,note_on,,479,0,5,,,,,,,,,,,,,,,,0,,69,0
14399,note_on,,0,0,16,,,,,,,,,,,,,,,,15,,55,0
14399,note_on,,29,0,15,,,,,,,,,,,,,,,,13,,52,0
14399,note_on,,479,0,6,,,,,,,,,,,,,,,,1,,69,0
14399,note_on,,29,0,16,,,,,,,,,,,,,,,,15,,64,0
14399,note_on,,0,0,16,,,,,,,,,,,,,,,,15,,57,0
14399,note_on,,29,0,7,,,,,,,,,,,,,,,,2,,52,0
14399,note_on,,29,0,11,,,,,,,,,,,,,,,,8,,52,0
14399,note_on,,0,0,16,,,,,,,,,,,,,,,,15,,52,0
14400,note_on,,1,0,15,,,,,,,,,,,,,,,,13,,50,48
14400,note_on,,0,0,16,,,,,,,,,,,,,,,,15,,57,48
14400,note_on,,0,0,16,,,,,,,,,,,,,,,,15,,62,48
14400,note_on,,0,0,16,,,,,,,,,,,,,,,,15,,66,48
14400,note_on,,1,0,16,,,,,,,,,,,,,,,,15,,50,48
14400,note_on,,1,0,11,,,,,,,,,,,,,,,,8,,50,78
14400,note_on,,1,0,8,,,,,,,,,,,,,,,,5,,69,78
14400,note_on,,1,0,6,,,,,,,,,,,,,,,,1,,69,63
14400,note_on,,1,0,5,,,,,,,,,,,,,,,,0,,69,63
14400,note_on,,1,0,7,,,,,,,,,,,,,,,,2,,50,48
14400,note_on,,1,0,9,,,,,,,,,,,,,,,,6,,66,78
14489,note_on,,89,0,9,,,,,,,,,,,,,,,,6,,66,0
14489,note_on,,89,0,11,,,,,,,,,,,,,,,,8,,50,0
14489,note_on,,89,0,16,,,,,,,,,,,,,,,,15,,50,0
14489,note_on,,89,0,15,,,,,,,,,,,,,,,,13,,50,0
14489,note_on,,89,0,7,,,,,,,,,,,,,,,,2,,50,0
14489,note_on,,89,0,6,,,,,,,,,,,,,,,,1,,69,0
14489,note_on,,89,0,8,,,,,,,,,,,,,,,,5,,69,0
14489,note_on,,89,0,5,,,,,,,,,,,,,,,,0,,69,0
14490,note_on,,1,0,9,,,,,,,,,,,,,,,,6,,69,78
14490,note_on,,1,0,6,,,,,,,,,,,,,,,,1,,74,63
14490,note_on,,1,0,8,,,,,,,,,,,,,,,,5,,74,78
14490,note_on,,1,0,11,,,,,,,,,,,,,,,,8,,54,78
14490,note_on,,1,0,5,,,,,,,,,,,,,,,,0,,74,63
14490,note_on,,1,0,7,,,,,,,,,,,,,,,,2,,54,48
14490,note_on,,1,0,16,,,,,,,,,,,,,,,,15,,54,48
14490,note_on,,1,0,15,,,,,,,,,,,,,,,,13,,54,48
14519,note_on,,29,0,15,,,,,,,,,,,,,,,,13,,54,0
14519,note_on,,0,0,16,,,,,,,,,,,,,,,,15,,62,0
14519,note_on,,0,0,16,,,,,,,,,,,,,,,,15,,57,0
14519,note_on,,0,0,16,,,,,,,,,,,,,,,,15,,54,0
14519,note_on,,29,0,6,,,,,,,,,,,,,,,,1,,74,0
14519,note_on,,29,0,7,,,,,,,,,,,,,,,,2,,54,0
14519,note_on,,29,0,16,,,,,,,,,,,,,,,,15,,66,0
14519,note_on,,29,0,9,,,,,,,,,,,,,,,,6,,69,0
14519,note_on,,29,0,11,,,,,,,,,,,,,,,,8,,54,0
14519,note_on,,29,0,8,,,,,,,,,,,,,,,,5,,74,0
14519,note_on,,29,0,5,,,,,,,,,,,,,,,,0,,74,0
14520,note_on,,1,0,15,,,,,,,,,,,,,,,,13,,52,48
14520,note_on,,1,0,5,,,,,,,,,,,,,,,,0,,73,63
14520,note_on,,1,0,16,,,,,,,,,,,,,,,,15,,52,48
14520,note_on,,1,0,9,,,,,,,,,,,,,,,,6,,67,78
14520,note_on,,1,0,6,,,,,,,,,,,,,,,,1,,73,63
14520,note_on,,1,0,7,,,,,,,,,,,,,,,,2,,52,48
14520,note_on,,0,0,16,,,,,,,,,,,,,,,,15,,67,48
14520,note_on,,1,0,8,,,,,,,,,,,,,,,,5,,73,78
14520,note_on,,0,0,16,,,,,,,,,,,,,,,,15,,61,48
14520,note_on,,0,0,16,,,,,,,,,,,,,,,,15,,55,48
14520,note_on,,1,0,11,,,,,,,,,,,,,,,,8,,52,78
14609,note_on,,89,0,11,,,,,,,,,,,,,,,,8,,52,0
14609,note_on,,89,0,6,,,,,,,,,,,,,,,,1,,73,0
14609,note_on,,89,0,5,,,,,,,,,,,,,,,,0,,73,0
14609,note_on,,89,0,16,,,,,,,,,,,,,,,,15,,52,0
14609,note_on,,89,0,15,,,,,,,,,,,,,,,,13,,52,0
14609,note_on,,89,0,7,,,,,,,,,,,,,,,,2,,52,0
14609,note_on,,89,0,8,,,,,,,,,,,,,,,,5,,73,0
14609,note_on,,89,0,9,,,,,,,,,,,,,,,,6,,67,0
14610,note_on,,1,0,15,,,,,,,,,,,,,,,,13,,55,48
14610,note_on,,1,0,16,,,,,,,,,,,,,,,,15,,55,48
14610,note_on,,1,0,7,,,,,,,,,,,,,,,,2,,55,48
14610,note_on,,1,0,8,,,,,,,,,,,,,,,,5,,76,78
14610,note_on,,1,0,5,,,,,,,,,,,,,,,,0,,76,63
14610,note_on,,1,0,9,,,,,,,,,,,,,,,,6,,64,78
14610,note_on,,1,0,11,,,,,,,,,,,,,,,,8,,55,78
14610,note_on,,1,0,6,,,,,,,,,,,,,,,,1,,76,63
14639,note_on,,29,0,15,,,,,,,,,,,,,,,,13,,55,0
14639,note_on,,29,0,9,,,,,,,,,,,,,,,,6,,64,0
14639,note_on,,0,0,16,,,,,,,,,,,,,,,,15,,55,0
14639,note_on,,0,0,16,,,,,,,,,,,,,,,,15,,55,0
14639,note_on,,29,0,5,,,,,,,,,,,,,,,,0,,76,0
14639,note_on,,29,0,16,,,,,,,,,,,,,,,,15,,67,0
14639,note_on,,29,0,11,,,,,,,,,,,,,,,,8,,55,0
14639,note_on,,0,0,16,,,,,,,,,,,,,,,,15,,61,0
14639,note_on,,29,0,8,,,,,,,,,,,,,,,,5,,76,0
14639,note_on,,29,0,7,,,,,,,,,,,,,,,,2,,55,0
14639,note_on,,29,0,6,,,,,,,,,,,,,,,,1,,76,0
14640,note_on,,1,0,9,,,,,,,,,,,,,,,,6,,69,78
14640,note_on,,1,0,15,,,,,,,,,,,,,,,,13,,54,48
14640,note_on,,1,0,5,,,,,,,,,,,,,,,,0,,74,63
14640,note_on,,0,0,16,,,,,,,,,,,,,,,,15,,57,48
14640,note_on,,0,0,16,,,,,,,,,,,,,,,,15,,62,48
14640,note_on,,0,0,16,,,,,,,,,,,,,,,,15,,74,48
14640,note_on,,1,0,16,,,,,,,,,,,,,,,,15,,54,48
14640,note_on,,1,0,8,,,,,,,,,,,,,,,,5,,74,78
14640,note_on,,1,0,7,,,,,,,,,,,,,,,,2,,54,48
14640,note_on,,1,0,6,,,,,,,,,,,,,,,,1,,74,63
14640,note_on,,1,0,11,,,,,,,,,,,,,,,,8,,54,78
14729,note_on,,89,0,5,,,,,,,,,,,,,,,,0,,74,0
14729,note_on,,89,0,8,,,,,,,,,,,,,,,,5,,74,0
14729,note_on,,89,0,7,,,,,,,,,,,,,,,,2,,54,0
14729,note_on,,89,0,9,,,,,,,,,,,,,,,,6,,69,0
14729,note_on,,89,0,6,,,,,,,,,,,,,,,,1,,74,0
14729,note_on,,89,0,15,,,,,,,,,,,,,,,,13,,54,0
14729,note_on,,89,0,16,,,,,,,,,,,,,,,,15,,54,0
14729,note_on,,89,0,11,,,,,,,,,,,,,,,,8,,54,0
14730,note_on,,1,0,9,,,,,,,,,,,,,,,,6,,66,78
14730,note_on,,1,0,16,,,,,,,,,,,,,,,,15,,57,48
14730,note_on,,1,0,6,,,,,,,,,,,,,,,,1,,78,63
14730,note_on,,1,0,15,,,,,,,,,,,,,,,,13,,57,48
14730,note_on,,1,0,5,,,,,,,,,,,,,,,,0,,78,63
14730,note_on,,1,0,8,,,,,,,,,,,,,,,,5,,78,78
14730,note_on,,1,0,11,,,,,,,,,,,,,,,,8,,57,78
14730,note_on,,1,0,7,,,,,,,,,,,,,,,,2,,57,48
14759,note_on,,29,0,11,,,,,,,,,,,,,,,,8,,57,0
14759,note_on,,29,0,5,,,,,,,,,,,,,,,,0,,78,0
14759,note_on,,29,0,16,,,,,,,,,,,,,,,,15,,62,0
14759,note_on,,29,0,9,,,,,,,,,,,,,,,,6,,66,0
14759,note_on,,0,0,16,,,,,,,,,,,,,,,,15,,57,0
14759,note_on,,29,0,8,,,,,,,,,,,,,,,,5,,78,0
14759,note_on,,0,0,16,,,,,,,,,,,,,,,,15,,57,0
14759,note_on,,29,0,6,,,,,,,,,,,,,,,,1,,78,0
14759,note_on,,29,0,15,,,,,,,,,,,,,,,,13,,57,0
14759,note_on,,29,0,7,,,,,,,,,,,,,,,,2,,57,0
14760,note_on,,1,0,16,,,,,,,,,,,,,,,,15,,55,48
14760,note_on,,0,0,16,,,,,,,,,,,,,,,,15,,59,48
14760,note_on,,0,0,16,,,,,,,,,,,,,,,,15,,71,48
14760,note_on,,1,0,8,,,,,,,,,,,,,,,,5,,76,78
14760,note_on,,1,0,6,,,,,,,,,,,,,,,,1,,76,63
14760,note_on,,1,0,9,,,,,,,,,,,,,,,,6,,71,78
14760,note_on,,1081,0,10,,,,,,,,,,,,,,,,7,,64,78
14760,note_on,,1,0,5,,,,,,,,,,,,,,,,0,,76,63
14760,note_on,,1,0,11,,,,,,,,,,,,,,,,8,,55,78
14760,note_on,,1,0,7,,,,,,,,,,,,,,,,2,,55,48
14760,note_on,,0,0,16,,,,,,,,,,,,,,,,15,,67,48
14760,note_on,,1,0,15,,,,,,,,,,,,,,,,13,,55,48
14760,note_on,,0,0,16,,,,,,,,,,,,,,,,15,,64,48
14849,note_on,,89,0,6,,,,,,,,,,,,,,,,1,,76,0
14849,note_on,,89,0,11,,,,,,,,,,,,,,,,8,,55,0
14849,note_on,,89,0,8,,,,,,,,,,,,,,,,5,,76,0
14849,note_on,,89,0,9,,,,,,,,,,,,,,,,6,,71,0
14849,note_on,,89,0,5,,,,,,,,,,,,,,,,0,,76,0
14849,note_on,,89,0,10,,,,,,,,,,,,,,,,7,,64,0
14849,note_on,,89,0,7,,,,,,,,,,,,,,,,2,,55,0
14849,note_on,,89,0,15,,,,,,,,,,,,,,,,13,,55,0
14849,note_on,,89,0,16,,,,,,,,,,,,,,,,15,,55,0
14850,note_on,,1,0,9,,,,,,,,,,,,,,,,6,,67,78
14850,note_on,,1,0,10,,,,,,,,,,,,,,,,7,,67,78
14850,note_on,,1,0,6,,,,,,,,,,,,,,,,1,,74,63
14850,note_on,,1,0,8,,,,,,,,,,,,,,,,5,,74,78
14850,note_on,,1,0,7,,,,,,,,,,,,,,,,2,,59,48
14850,note_on,,1,0,15,,,,,,,,,,,,,,,,13,,59,48
14850,note_on,,1,0,5,,,,,,,,,,,,,,,,0,,74,63
14850,note_on,,1,0,16,,,,,,,,,,,,,,,,15,,59,48
14850,note_on,,1,0,11,,,,,,,,,,,,,,,,8,,59,78
14879,note_on,,29,0,6,,,,,,,,,,,,,,,,1,,74,0
14879,note_on,,29,0,7,,,,,,,,,,,,,,,,2,,59,0
14879,note_on,,29,0,15,,,,,,,,,,,,,,,,13,,59,0
14879,note_on,,29,0,10,,,,,,,,,,,,,,,,7,,67,0
14879,note_on,,29,0,5,,,,,,,,,,,,,,,,0,,74,0
14879,note_on,,0,0,16,,,,,,,,,,,,,,,,15,,64,0
14879,note_on,,29,0,11,,,,,,,,,,,,,,,,8,,59,0
14879,note_on,,29,0,9,,,,,,,,,,,,,,,,6,,67,0
14879,note_on,,29,0,8,,,,,,,,,,,,,,,,5,,74,0
14879,note_on,,29,0,16,,,,,,,,,,,,,,,,15,,74,0
14879,note_on,,0,0,16,,,,,,,,,,,,,,,,15,,59,0
14879,note_on,,0,0,16,,,,,,,,,,,,,,,,15,,59,0
14879,note_on,,0,0,16,,,,,,,,,,,,,,,,15,,71,0
14879,note_on,,0,0,16,,,,,,,,,,,,,,,,15,,67,0
14880,note_on,,1,0,9,,,,,,,,,,,,,,,,6,,64,78
14880,note_on,,1,0,15,,,,,,,,,,,,,,,,13,,57,48
14880,note_on,,1,0,7,,,,,,,,,,,,,,,,2,,57,48
14880,note_on,,1,0,11,,,,,,,,,,,,,,,,8,,57,78
14880,note_on,,1,0,5,,,,,,,,,,,,,,,,0,,73,63
14880,note_on,,1,0,8,,,,,,,,,,,,,,,,5,,73,78
14880,note_on,,1,0,16,,,,,,,,,,,,,,,,15,,57,48
14880,note_on,,1,0,6,,,,,,,,,,,,,,,,1,,73,63
14880,note_on,,1,0,10,,,,,,,,,,,,,,,,7,,57,78
14880,note_on,,0,0,16,,,,,,,,,,,,,,,,15,,61,48
14880,note_on,,0,0,16,,,,,,,,,,,,,,,,15,,64,48
14880,note_on,,0,0,16,,,,,,,,,,,,,,,,15,,69,48
14999,note_on,,0,0,16,,,,,,,,,,,,,,,,15,,69,0
14999,note_on,,0,0,16,,,,,,,,,,,,,,,,15,,61,0
14999,note_on,,119,0,11,,,,,,,,,,,,,,,,8,,57,0
14999,note_on,,119,0,5,,,,,,,,,,,,,,,,0,,73,0
14999,note_on,,119,0,8,,,,,,,,,,,,,,,,5,,73,0
14999,note_on,,119,0,9,,,,,,,,,,,,,,,,6,,64,0
14999,note_on,,119,0,15,,,,,,,,,,,,,,,,13,,57,0
14999,note_on,,119,0,6,,,,,,,,,,,,,,,,1,,73,0
14999,note_on,,119,0,10,,,,,,,,,,,,,,,,7,,57,0
14999,note_on,,119,0,7,,,,,,,,,,,,,,,,2,,57,0
14999,note_on,,119,0,16,,,,,,,,,,,,,,,,15,,57,0
14999,note_on,,0,0,16,,,,,,,,,,,,,,,,15,,64,0
15000,note_on,,0,0,16,,,,,,,,,,,,,,,,15,,62,48
15000,note_on,,0,0,16,,,,,,,,,,,,,,,,15,,69,48
15000,note_on,,0,0,16,,,,,,,,,,,,,,,,15,,74,48
15000,note_on,,0,0,16,,,,,,,,,,,,,,,,15,,57,48
15000,note_on,,1,0,16,,,,,,,,,,,,,,,,15,,54,48
15000,note_on,,1,0,5,,,,,,,,,,,,,,,,0,,74,63
15000,note_on,,1,0,7,,,,,,,,,,,,,,,,2,,54,48
15000,note_on,,1,0,9,,,,,,,,,,,,,,,,6,,69,78
15000,note_on,,1,0,6,,,,,,,,,,,,,,,,1,,74,63
15000,note_on,,1,0,15,,,,,,,,,,,,,,,,13,,54,48
15000,note_on,,1,0,10,,,,,,,,,,,,,,,,7,,62,78
15000,note_on,,1,0,8,,,,,,,,,,,,,,,,5,,74,78
15000,note_on,,1,0,11,,,,,,,,,,,,,,,,8,,54,78
15059,note_on,,59,0,11,,,,,,,,,,,,,,,,8,,54,0
15059,note_on,,59,0,5,,,,,,,,,,,,,,,,0,,74,0
15059,note_on,,59,0,7,,,,,,,,,,,,,,,,2,,54,0
15059,note_on,,59,0,6,,,,,,,,,,,,,,,,1,,74,0
15059,note_on,,59,0,10,,,,,,,,,,,,,,,,7,,62,0
15059,note_on,,59,0,8,,,,,,,,,,,,,,,,5,,74,0
15059,note_on,,0,0,16,,,,,,,,,,,,,,,,15,,62,0
15059,note_on,,59,0,15,,,,,,,,,,,,,,,,13,,54,0
15059,note_on,,0,0,16,,,,,,,,,,,,,,,,15,,57,0
15059,note_on,,59,0,16,,,,,,,,,,,,,,,,15,,54,0
15059,note_on,,59,0,9,,,,,,,,,,,,,,,,6,,69,0
15059,note_on,,0,0,16,,,,,,,,,,,,,,,,15,,69,0
15059,note_on,,0,0,16,,,,,,,,,,,,,,,,15,,74,0
15060,note_on,,1,0,5,,,,,,,,,,,,,,,,0,,74,63
15060,note_on,,0,0,16,,,,,,,,,,,,,,,,15,,69,48
15060,note_on,,0,0,16,,,,,,,,,,,,,,,,15,,74,48
15060,note_on,,1,0,7,,,,,,,,,,,,,,,,2,,50,48
15060,note_on,,1,0,10,,,,,,,,,,,,,,,,7,,66,78
15060,note_on,,1,0,11,,,,,,,,,,,,,,,,8,,50,78
15060,note_on,,1,0,15,,,,,,,,,,,,,,,,13,,50,48
15060,note_on,,0,0,16,,,,,,,,,,,,,,,,15,,78,48
15060,note_on,,0,0,16,,,,,,,,,,,,,,,,15,,57,48
15060,note_on,,1,0,8,,,,,,,,,,,,,,,,5,,74,78
15060,note_on,,1,0,6,,,,,,,,,,,,,,,,1,,74,63
15060,note_on,,1,0,9,,,,,,,,,,,,,,,,6,,69,78
15060,note_on,,1,0,16,,,,,,,,,,,,,,,,15,,50,48
15119,note_on,,59,0,6,,,,,,,,,,,,,,,,1,,74,0
15119,note_on,,59,0,9,,,,,,,,,,,,,,,,6,,69,0
15119,note_on,,59,0,11,,,,,,,,,,,,,,,,8,,50,0
15119,note_on,,0,0,16,,,,,,,,,,,,,,,,15,,57,0
15119,note_on,,59,0,16,,,,,,,,,,,,,,,,15,,50,0
15119,note_on,,59,0,7,,,,,,,,,,,,,,,,2,,50,0
15119,note_on,,59,0,15,,,,,,,,,,,,,,,,13,,50,0
15119,note_on,,0,0,16,,,,,,,,,,,,,,,,15,,78,0
15119,note_on,,0,0,16,,,,,,,,,,,,,,,,15,,69,0
15119,note_on,,59,0,10,,,,,,,,,,,,,,,,7,,66,0
15119,note_on,,59,0,5,,,,,,,,,,,,,,,,0,,74,0
15119,note_on,,0,0,16,,,,,,,,,,,,,,,,15,,74,0
15119,note_on,,59,0,8,,,,,,,,,,,,,,,,5,,74,0
15120,note_on,,1,0,16,,,,,,,,,,,,,,,,15,,57,48
15120,note_on,,0,0,16,,,,,,,,,,,,,,,,15,,69,48
15120,note_on,,0,0,16,,,,,,,,,,,,,,,,15,,73,48
15120,note_on,,0,0,16,,,,,,,,,,,,,,,,15,,64,48
15120,note_on,,1,0,5,,,,,,,,,,,,,,,,0,,73,63
15120,note_on,,1,0,7,,,,,,,,,,,,,,,,2,,57,48
15120,note_on,,1,0,10,,,,,,,,,,,,,,,,7,,64,78
15120,note_on,,1,0,11,,,,,,,,,,,,,,,,8,,57,78
15120,note_on,,1,0,8,,,,,,,,,,,,,,,,5,,73,78
15120,note_on,,1,0,9,,,,,,,,,,,,,,,,6,,69,78
15120,note_on,,1,0,6,,,,,,,,,,,,,,,,1,,73,63
15120,note_on,,1,0,15,,,,,,,,,,,,,,,,13,,57,48
15120,note_on,,0,0,16,,,,,,,,,,,,,,,,15,,76,48
15150,note_on,,3031,0,12,,,,,,,,,,,,,,,,10,,73,72
15150,note_on,,3031,0,13,,,,,,,,,,,,,,,,11,,69,72
15179,note_on,,59,0,5,,,,,,,,,,,,,,,,0,,73,0
15179,note_on,,59,0,6,,,,,,,,,,,,,,,,1,,73,0
15179,note_on,,59,0,7,,,,,,,,,,,,,,,,2,,57,0
15179,note_on,,59,0,8,,,,,,,,,,,,,,,,5,,73,0
15179,note_on,,59,0,11,,,,,,,,,,,,,,,,8,,57,0
15179,note_on,,29,0,13,,,,,,,,,,,,,,,,11,,69,0
15179,note_on,,59,0,15,,,,,,,,,,,,,,,,13,,57,0
15179,note_on,,29,0,12,,,,,,,,,,,,,,,,10,,73,0
15179,note_on,,59,0,10,,,,,,,,,,,,,,,,7,,64,0
15179,note_on,,59,0,9,,,,,,,,,,,,,,,,6,,69,0
15179,note_on,,59,0,16,,,,,,,,,,,,,,,,15,,57,0
15180,note_on,,1,0,7,,,,,,,,,,,,,,,,2,,45,48
15180,note_on,,1,0,6,,,,,,,,,,,,,,,,1,,73,63
15180,note_on,,1,0,5,,,,,,,,,,,,,,,,0,,73,63
15180,note_on,,1,0,10,,,,,,,,,,,,,,,,7,,64,78
15180,note_on,,1,0,15,,,,,,,,,,,,,,,,13,,45,48
15180,note_on,,1,0,9,,,,,,,,,,,,,,,,6,,69,78
15180,note_on,,0,0,16,,,,,,,,,,,,,,,,15,,57,48
15180,note_on,,1,0,11,,,,,,,,,,,,,,,,8,,45,78
15180,note_on,,1,0,13,,,,,,,,,,,,,,,,11,,71,72
15180,note_on,,1,0,12,,,,,,,,,,,,,,,,10,,74,72
15180,note_on,,1,0,8,,,,,,,,,,,,,,,,5,,73,78
15180,note_on,,1,0,16,,,,,,,,,,,,,,,,15,,45,48
15209,note_on,,29,0,13,,,,,,,,,,,,,,,,11,,71,0
15209,note_on,,29,0,12,,,,,,,,,,,,,,,,10,,74,0
15210,note_on,,1,0,13,,,,,,,,,,,,,,,,11,,73,72
15210,note_on,,1,0,12,,,,,,,,,,,,,,,,10,,76,72
15239,note_on,,59,0,6,,,,,,,,,,,,,,,,1,,73,0
15239,note_on,,0,0,16,,,,,,,,,,,,,,,,15,,73,0
15239,note_on,,59,0,11,,,,,,,,,,,,,,,,8,,45,0
15239,note_on,,59,0,7,,,,,,,,,,,,,,,,2,,45,0
15239,note_on,,0,0,16,,,,,,,,,,,,,,,,15,,57,0
15239,note_on,,0,0,16,,,,,,,,,,,,,,,,15,,45,0
15239,note_on,,0,0,16,,,,,,,,,,,,,,,,15,,64,0
15239,note_on,,59,0,9,,,,,,,,,,,,,,,,6,,69,0
15239,note_on,,59,0,10,,,,,,,,,,,,,,,,7,,64,0
15239,note_on,,29,0,13,,,,,,,,,,,,,,,,11,,73,0
15239,note_on,,59,0,15,,,,,,,,,,,,,,,,13,,45,0
15239,note_on,,59,0,16,,,,,,,,,,,,,,,,15,,76,0
15239,note_on,,59,0,8,,,,,,,,,,,,,,,,5,,73,0
15239,note_on,,59,0,5,,,,,,,,,,,,,,,,0,,73,0
15239,note_on,,0,0,16,,,,,,,,,,,,,,,,15,,69,0
15239,note_on,,29,0,12,,,,,,,,,,,,,,,,10,,76,0
15240,note_on,,1,0,13,,,,,,,,,,,,,,,,11,,74,72
15240,note_on,,1,0,12,,,,,,,,,,,,,,,,10,,78,72
15269,note_on,,29,0,13,,,,,,,,,,,,,,,,11,,74,0
15269,note_on,,29,0,12,,,,,,,,,,,,,,,,10,,78,0
15270,note_on,,1,0,12,,,,,,,,,,,,,,,,10,,76,72
15270,note_on,,1,0,13,,,,,,,,,,,,,,,,11,,73,72
15299,note_on,,29,0,13,,,,,,,,,,,,,,,,11,,73,0
15299,note_on,,29,0,12,,,,,,,,,,,,,,,,10,,76,0
15300,note_on,,1,0,13,,,,,,,,,,,,,,,,11,,74,72
15300,note_on,,1,0,12,,,,,,,,,,,,,,,,10,,78,72
15329,note_on,,29,0,13,,,,,,,,,,,,,,,,11,,74,0
15329,note_on,,29,0,12,,,,,,,,,,,,,,,,10,,78,0
15330,note_on,,1,0,13,,,,,,,,,,,,,,,,11,,76,72
15330,note_on,,1,0,12,,,,,,,,,,,,,,,,10,,79,72
15359,note_on,,29,0,12,,,,,,,,,,,,,,,,10,,79,0
15359,note_on,,29,0,13,,,,,,,,,,,,,,,,11,,76,0
15360,note_on,,0,0,16,,,,,,,,,,,,,,,,15,,69,72
15360,note_on,,121,0,16,,,,,,,,,,,,,,,,15,,62,72
15360,note_on,,0,0,16,,,,,,,,,,,,,,,,15,,74,72
15360,note_on,,1,0,12,,,,,,,,,,,,,,,,10,,81,72
15360,note_on,,121,0,11,,,,,,,,,,,,,,,,8,,62,88
15360,note_on,,121,0,15,,,,,,,,,,,,,,,,13,,62,72
15360,note_on,,1,0,13,,,,,,,,,,,,,,,,11,,78,72
15360,note_on,,121,0,5,,,,,,,,,,,,,,,,0,,74,72
15360,note_on,,121,0,8,,,,,,,,,,,,,,,,5,,74,88
15360,note_on,,0,0,16,,,,,,,,,,,,,,,,15,,62,72
15360,note_on,,121,0,9,,,,,,,,,,,,,,,,6,,69,88
15360,note_on,,0,0,16,,,,,,,,,,,,,,,,15,,78,72
15360,note_on,,121,0,7,,,,,,,,,,,,,,,,2,,62,72
15360,note_on,,3241,0,14,,,,,,,,,,,,,,,,12,,74,72
15360,note_on,,121,0,6,,,,,,,,,,,,,,,,1,,74,72
15360,note_on,,121,0,10,,,,,,,,,,,,,,,,7,,66,88
15389,note_on,,29,0,13,,,,,,,,,,,,,,,,11,,78,0
15389,note_on,,29,0,12,,,,,,,,,,,,,,,,10,,81,0
15390,note_on,,1,0,13,,,,,,,,,,,,,,,,11,,76,72
15390,note_on,,1,0,12,,,,,,,,,,,,,,,,10,,79,72
15419,note_on,,29,0,13,,,,,,,,,,,,,,,,11,,76,0
15419,note_on,,29,0,12,,,,,,,,,,,,,,,,10,,79,0
15420,note_on,,1,0,13,,,,,,,,,,,,,,,,11,,78,72
15420,note_on,,1,0,12,,,,,,,,,,,,,,,,10,,81,72
15449,note_on,,89,0,16,,,,,,,,,,,,,,,,15,,62,0
15449,note_on,,29,0,12,,,,,,,,,,,,,,,,10,,81,0
15449,note_on,,89,0,5,,,,,,,,,,,,,,,,0,,74,0
15449,note_on,,89,0,7,,,,,,,,,,,,,,,,2,,62,0
15449,note_on,,89,0,10,,,,,,,,,,,,,,,,7,,66,0
15449,note_on,,89,0,14,,,,,,,,,,,,,,,,12,,74,0
15449,note_on,,89,0,11,,,,,,,,,,,,,,,,8,,62,0
15449,note_on,,89,0,9,,,,,,,,,,,,,,,,6,,69,0
15449,note_on,,89,0,6,,,,,,,,,,,,,,,,1,,74,0
15449,note_on,,29,0,13,,,,,,,,,,,,,,,,11,,78,0
15449,note_on,,89,0,15,,,,,,,,,,,,,,,,13,,62,0
15449,note_on,,89,0,8,,,,,,,,,,,,,,,,5,,74,0
15450,note_on,,1,0,10,,,,,,,,,,,,,,,,7,,64,88
15450,note_on,,1,0,9,,,,,,,,,,,,,,,,6,,67,88
15450,note_on,,1,0,6,,,,,,,,,,,,,,,,1,,69,72
15450,note_on,,1,0,8,,,,,,,,,,,,,,,,5,,69,88
15450,note_on,,1,0,5,,,,,,,,,,,,,,,,0,,69,72
15450,note_on,,1,0,12,,,,,,,,,,,,,,,,10,,79,72
15450,note_on,,1,0,14,,,,,,,,,,,,,,,,12,,69,72
15450,note_on,,1,0,13,,,,,,,,,,,,,,,,11,,76,72
15450,note_on,,1,0,16,,,,,,,,,,,,,,,,15,,50,72
15450,note_on,,1,0,15,,,,,,,,,,,,,,,,13,,50,72
15450,note_on,,1,0,11,,,,,,,,,,,,,,,,8,,50,88
15450,note_on,,1,0,7,,,,,,,,,,,,,,,,2,,50,72
15479,note_on,,29,0,10,,,,,,,,,,,,,,,,7,,64,0
15479,note_on,,29,0,12,,,,,,,,,,,,,,,,10,,79,0
15479,note_on,,29,0,14,,,,,,,,,,,,,,,,12,,69,0
15479,note_on,,29,0,6,,,,,,,,,,,,,,,,1,,69,0
15479,note_on,,29,0,16,,,,,,,,,,,,,,,,15,,50,0
15479,note_on,,29,0,9,,,,,,,,,,,,,,,,6,,67,0
15479,note_on,,29,0,13,,,,,,,,,,,,,,,,11,,76,0
15479,note_on,,29,0,5,,,,,,,,,,,,,,,,0,,69,0
15479,note_on,,29,0,11,,,,,,,,,,,,,,,,8,,50,0
15479,note_on,,29,0,15,,,,,,,,,,,,,,,,13,,50,0
15479,note_on,,29,0,7,,,,,,,,,,,,,,,,2,,50,0
15479,note_on,,29,0,8,,,,,,,,,,,,,,,,5,,69,0
15480,note_on,,1,0,16,,,,,,,,,,,,,,,,15,,50,72
15480,note_on,,1,0,6,,,,,,,,,,,,,,,,1,,69,72
15480,note_on,,1,0,9,,,,,,,,,,,,,,,,6,,66,88
15480,note_on,,1,0,14,,,,,,,,,,,,,,,,12,,69,72
15480,note_on,,1,0,10,,,,,,,,,,,,,,,,7,,62,88
15480,note_on,,1,0,5,,,,,,,,,,,,,,,,0,,69,72
15480,note_on,,1,0,13,,,,,,,,,,,,,,,,11,,74,72
15480,note_on,,1,0,8,,,,,,,,,,,,,,,,5,,69,88
15480,note_on,,1,0,7,,,,,,,,,,,,,,,,2,,50,72
15480,note_on,,1,0,15,,,,,,,,,,,,,,,,13,,50,72
15480,note_on,,1,0,11,,,,,,,,,,,,,,,,8,,50,88
15480,note_on,,1,0,12,,,,,,,,,,,,,,,,10,,78,72
15509,note_on,,29,0,12,,,,,,,,,,,,,,,,10,,78,0
15509,note_on,,29,0,13,,,,,,,,,,,,,,,,11,,74,0
15510,note_on,,1,0,12,,,,,,,,,,,,,,,,10,,79,72
15510,note_on,,1,0,13,,,,,,,,,,,,,,,,11,,76,72
15539,note_on,,29,0,13,,,,,,,,,,,,,,,,11,,76,0
15539,note_on,,29,0,12,,,,,,,,,,,,,,,,10,,79,0
15540,note_on,,1,0,13,,,,,,,,,,,,,,,,11,,74,72
15540,note_on,,1,0,12,,,,,,,,,,,,,,,,10,,78,72
15569,note_on,,29,0,13,,,,,,,,,,,,,,,,11,,74,0
15569,note_on,,29,0,12,,,,,,,,,,,,,,,,10,,78,0
15570,note_on,,1,0,12,,,,,,,,,,,,,,,,10,,79,72
15570,note_on,,1,0,13,,,,,,,,,,,,,,,,11,,76,72
15599,note_on,,119,0,16,,,,,,,,,,,,,,,,15,,78,0
15599,note_on,,119,0,10,,,,,,,,,,,,,,,,7,,62,0
15599,note_on,,119,0,14,,,,,,,,,,,,,,,,12,,69,0
15599,note_on,,0,0,16,,,,,,,,,,,,,,,,15,,50,0
15599,note_on,,0,0,16,,,,,,,,,,,,,,,,15,,62,0
15599,note_on,,0,0,16,,,,,,,,,,,,,,,,15,,69,0
15599,note_on,,0,0,16,,,,,,,,,,,,,,,,15,,74,0
15599,note_on,,29,0,12,,,,,,,,,,,,,,,,10,,79,0
15599,note_on,,29,0,13,,,,,,,,,,,,,,,,11,,76,0
15599,note_on,,119,0,15,,,,,,,,,,,,,,,,13,,50,0
15599,note_on,,119,0,5,,,,,,,,,,,,,,,,0,,69,0
15599,note_on,,119,0,7,,,,,,,,,,,,,,,,2,,50,0
15599,note_on,,119,0,8,,,,,,,,,,,,,,,,5,,69,0
15599,note_on,,119,0,9,,,,,,,,,,,,,,,,6,,66,0
15599,note_on,,119,0,6,,,,,,,,,,,,,,,,1,,69,0
15599,note_on,,119,0,11,,,,,,,,,,,,,,,,8,,50,0
15600,note_on,,1,0,13,,,,,,,,,,,,,,,,11,,78,72
15600,note_on,,1,0,12,,,,,,,,,,,,,,,,10,,81,72
15629,note_on,,29,0,13,,,,,,,,,,,,,,,,11,,78,0
15629,note_on,,29,0,12,,,,,,,,,,,,,,,,10,,81,0
15630,note_on,,1,0,12,,,,,,,,,,,,,,,,10,,79,72
15630,note_on,,1,0,13,,,,,,,,,,,,,,,,11,,76,72
15659,note_on,,29,0,13,,,,,,,,,,,,,,,,11,,76,0
15659,note_on,,29,0,12,,,,,,,,,,,,,,,,10,,79,0
15660,note_on,,1,0,13,,,,,,,,,,,,,,,,11,,78,72
15660,note_on,,1,0,12,,,,,,,,,,,,,,,,10,,81,72
15689,note_on,,29,0,13,,,,,,,,,,,,,,,,11,,78,0
15689,note_on,,29,0,12,,,,,,,,,,,,,,,,10,,81,0
15690,note_on,,1,0,13,,,,,,,,,,,,,,,,11,,76,72
15690,note_on,,1,0,12,,,,,,,,,,,,,,,,10,,79,72
15719,note_on,,29,0,13,,,,,,,,,,,,,,,,11,,76,0
15719,note_on,,29,0,12,,,,,,,,,,,,,,,,10,,79,0
15720,note_on,,1,0,13,,,,,,,,,,,,,,,,11,,74,72
15720,note_on,,1,0,12,,,,,,,,,,,,,,,,10,,78,72
15749,note_on,,29,0,13,,,,,,,,,,,,,,,,11,,74,0
15749,note_on,,29,0,12,,,,,,,,,,,,,,,,10,,78,0
15750,note_on,,1,0,13,,,,,,,,,,,,,,,,11,,76,72
15750,note_on,,1,0,12,,,,,,,,,,,,,,,,10,,79,72
15779,note_on,,29,0,13,,,,,,,,,,,,,,,,11,,76,0
15779,note_on,,29,0,12,,,,,,,,,,,,,,,,10,,79,0
15780,note_on,,1,0,12,,,,,,,,,,,,,,,,10,,78,72
15780,note_on,,1,0,13,,,,,,,,,,,,,,,,11,,74,72
15809,note_on,,29,0,12,,,,,,,,,,,,,,,,10,,78,0
15809,note_on,,29,0,13,,,,,,,,,,,,,,,,11,,74,0
15810,note_on,,1,0,12,,,,,,,,,,,,,,,,10,,79,72
15810,note_on,,1,0,13,,,,,,,,,,,,,,,,11,,76,72
15839,note_on,,29,0,12,,,,,,,,,,,,,,,,10,,79,0
15839,note_on,,29,0,13,,,,,,,,,,,,,,,,11,,76,0
15840,note_on,,0,0,16,,,,,,,,,,,,,,,,15,,69,72
15840,note_on,,0,0,16,,,,,,,,,,,,,,,,15,,62,72
15840,note_on,,1,0,13,,,,,,,,,,,,,,,,11,,78,72
15840,note_on,,0,0,16,,,,,,,,,,,,,,,,15,,78,72
15840,note_on,,0,0,16,,,,,,,,,,,,,,,,15,,74,72
15840,note_on,,241,0,15,,,,,,,,,,,,,,,,13,,62,72
15840,note_on,,241,0,6,,,,,,,,,,,,,,,,1,,74,72
15840,note_on,,241,0,9,,,,,,,,,,,,,,,,6,,69,88
15840,note_on,,0,0,16,,,,,,,,,,,,,,,,15,,81,72
15840,note_on,,1,0,12,,,,,,,,,,,,,,,,10,,81,72
15840,note_on,,241,0,11,,,,,,,,,,,,,,,,8,,62,88
15840,note_on,,241,0,16,,,,,,,,,,,,,,,,15,,62,72
15840,note_on,,241,0,10,,,,,,,,,,,,,,,,7,,66,88
15840,note_on,,241,0,14,,,,,,,,,,,,,,,,12,,74,72
15840,note_on,,241,0,5,,,,,,,,,,,,,,,,0,,74,72
15840,note_on,,241,0,8,,,,,,,,,,,,,,,,5,,74,88
15840,note_on,,241,0,7,,,,,,,,,,,,,,,,2,,62,72
15869,note_on,,29,0,12,,,,,,,,,,,,,,,,10,,81,0
15869,note_on,,29,0,13,,,,,,,,,,,,,,,,11,,78,0
15870,note_on,,1,0,13,,,,,,,,,,,,,,,,11,,76,72
15870,note_on,,1,0,12,,,,,,,,,,,,,,,,10,,79,72
15899,note_on,,29,0,13,,,,,,,,,,,,,,,,11,,76,0
15899,note_on,,29,0,12,,,,,,,,,,,,,,,,10,,79,0
15900,note_on,,1,0,12,,,,,,,,,,,,,,,,10,,81,72
15900,note_on,,1,0,13,,,,,,,,,,,,,,,,11,,78,72
15929,note_on,,89,0,15,,,,,,,,,,,,,,,,13,,62,0
15929,note_on,,89,0,8,,,,,,,,,,,,,,,,5,,74,0
15929,note_on,,89,0,11,,,,,,,,,,,,,,,,8,,62,0
15929,note_on,,89,0,5,,,,,,,,,,,,,,,,0,,74,0
15929,note_on,,29,0,12,,,,,,,,,,,,,,,,10,,81,0
15929,note_on,,29,0,13,,,,,,,,,,,,,,,,11,,78,0
15929,note_on,,89,0,7,,,,,,,,,,,,,,,,2,,62,0
15929,note_on,,89,0,9,,,,,,,,,,,,,,,,6,,69,0
15929,note_on,,89,0,14,,,,,,,,,,,,,,,,12,,74,0
15929,note_on,,89,0,6,,,,,,,,,,,,,,,,1,,74,0
15929,note_on,,89,0,16,,,,,,,,,,,,,,,,15,,62,0
15929,note_on,,89,0,10,,,,,,,,,,,,,,,,7,,66,0
15930,note_on,,1,0,13,,,,,,,,,,,,,,,,11,,76,72
15930,note_on,,1,0,12,,,,,,,,,,,,,,,,10,,79,72
15930,note_on,,1,0,11,,,,,,,,,,,,,,,,8,,50,88
15930,note_on,,1,0,6,,,,,,,,,,,,,,,,1,,69,72
15930,note_on,,1,0,15,,,,,,,,,,,,,,,,13,,50,72
15930,note_on,,1,0,14,,,,,,,,,,,,,,,,12,,69,72
15930,note_on,,1,0,10,,,,,,,,,,,,,,,,7,,64,88
15930,note_on,,1,0,16,,,,,,,,,,,,,,,,15,,50,72
15930,note_on,,1,0,8,,,,,,,,,,,,,,,,5,,69,88
15930,note_on,,1,0,9,,,,,,,,,,,,,,,,6,,67,88
15930,note_on,,1,0,7,,,,,,,,,,,,,,,,2,,50,72
15930,note_on,,1,0,5,,,,,,,,,,,,,,,,0,,69,72
15959,note_on,,29,0,14,,,,,,,,,,,,,,,,12,,69,0
15959,note_on,,29,0,7,,,,,,,,,,,,,,,,2,,50,0
15959,note_on,,29,0,6,,,,,,,,,,,,,,,,1,,69,0
15959,note_on,,29,0,9,,,,,,,,,,,,,,,,6,,67,0
15959,note_on,,29,0,12,,,,,,,,,,,,,,,,10,,79,0
15959,note_on,,29,0,16,,,,,,,,,,,,,,,,15,,50,0
15959,note_on,,29,0,15,,,,,,,,,,,,,,,,13,,50,0
15959,note_on,,29,0,10,,,,,,,,,,,,,,,,7,,64,0
15959,note_on,,29,0,8,,,,,,,,,,,,,,,,5,,69,0
15959,note_on,,29,0,5,,,,,,,,,,,,,,,,0,,69,0
15959,note_on,,29,0,13,,,,,,,,,,,,,,,,11,,76,0
15959,note_on,,29,0,11,,,,,,,,,,,,,,,,8,,50,0
15960,note_on,,1,0,8,,,,,,,,,,,,,,,,5,,69,88
15960,note_on,,1,0,9,,,,,,,,,,,,,,,,6,,66,88
15960,note_on,,1,0,15,,,,,,,,,,,,,,,,13,,50,72
15960,note_on,,1,0,16,,,,,,,,,,,,,,,,15,,50,72
15960,note_on,,1,0,14,,,,,,,,,,,,,,,,12,,69,72
15960,note_on,,1,0,10,,,,,,,,,,,,,,,,7,,62,88
15960,note_on,,1,0,13,,,,,,,,,,,,,,,,11,,74,72
15960,note_on,,1,0,5,,,,,,,,,,,,,,,,0,,69,72
15960,note_on,,1,0,7,,,,,,,,,,,,,,,,2,,50,72
15960,note_on,,1,0,6,,,,,,,,,,,,,,,,1,,69,72
15960,note_on,,1,0,12,,,,,,,,,,,,,,,,10,,78,72
15960,note_on,,1,0,11,,,,,,,,,,,,,,,,8,,50,88
15989,note_on,,29,0,12,,,,,,,,,,,,,,,,10,,78,0
15989,note_on,,29,0,13,,,,,,,,,,,,,,,,11,,74,0
15990,note_on,,1,0,12,,,,,,,,,,,,,,,,10,,79,72
15990,note_on,,1,0,13,,,,,,,,,,,,,,,,11,,76,72
16019,note_on,,29,0,12,,,,,,,,,,,,,,,,10,,79,0
16019,note_on,,29,0,13,,,,,,,,,,,,,,,,11,,76,0
16020,note_on,,1,0,13,,,,,,,,,,,,,,,,11,,74,72
16020,note_on,,1,0,12,,,,,,,,,,,,,,,,10,,78,72
16049,note_on,,29,0,13,,,,,,,,,,,,,,,,11,,74,0
16049,note_on,,29,0,12,,,,,,,,,,,,,,,,10,,78,0
16050,note_on,,1,0,12,,,,,,,,,,,,,,,,10,,79,72
16050,note_on,,1,0,13,,,,,,,,,,,,,,,,11,,76,72
16079,note_on,,119,0,15,,,,,,,,,,,,,,,,13,,50,0
16079,note_on,,0,0,16,,,,,,,,,,,,,,,,15,,62,0
16079,note_on,,0,0,16,,,,,,,,,,,,,,,,15,,69,0
16079,note_on,,119,0,7,,,,,,,,,,,,,,,,2,,50,0
16079,note_on,,119,0,16,,,,,,,,,,,,,,,,15,,81,0
16079,note_on,,0,0,16,,,,,,,,,,,,,,,,15,,74,0
16079,note_on,,0,0,16,,,,,,,,,,,,,,,,15,,78,0
16079,note_on,,119,0,14,,,,,,,,,,,,,,,,12,,69,0
16079,note_on,,119,0,9,,,,,,,,,,,,,,,,6,,66,0
16079,note_on,,29,0,13,,,,,,,,,,,,,,,,11,,76,0
16079,note_on,,119,0,6,,,,,,,,,,,,,,,,1,,69,0
16079,note_on,,119,0,5,,,,,,,,,,,,,,,,0,,69,0
16079,note_on,,119,0,8,,,,,,,,,,,,,,,,5,,69,0
16079,note_on,,119,0,11,,,,,,,,,,,,,,,,8,,50,0
16079,note_on,,0,0,16,,,,,,,,,,,,,,,,15,,50,0
16079,note_on,,119,0,10,,,,,,,,,,,,,,,,7,,62,0
16079,note_on,,29,0,12,,,,,,,,,,,,,,,,10,,79,0
16080,note_on,,1,0,13,,,,,,,,,,,,,,,,11,,78,72
16080,note_on,,1,0,12,,,,,,,,,,,,,,,,10,,81,72
16109,note_on,,29,0,12,,,,,,,,,,,,,,,,10,,81,0
16109,note_on,,29,0,13,,,,,,,,,,,,,,,,11,,78,0
16110,note_on,,1,0,13,,,,,,,,,,,,,,,,11,,76,72
16110,note_on,,1,0,12,,,,,,,,,,,,,,,,10,,79,72
16139,note_on,,29,0,12,,,,,,,,,,,,,,,,10,,79,0
16139,note_on,,29,0,13,,,,,,,,,,,,,,,,11,,76,0
16140,note_on,,1,0,12,,,,,,,,,,,,,,,,10,,81,72
16140,note_on,,1,0,13,,,,,,,,,,,,,,,,11,,78,72
16169,note_on,,29,0,12,,,,,,,,,,,,,,,,10,,81,0
16169,note_on,,29,0,13,,,,,,,,,,,,,,,,11,,78,0
16170,note_on,,1,0,13,,,,,,,,,,,,,,,,11,,76,72
16170,note_on,,1,0,12,,,,,,,,,,,,,,,,10,,79,72
16199,note_on,,29,0,12,,,,,,,,,,,,,,,,10,,79,0
16199,note_on,,29,0,13,,,,,,,,,,,,,,,,11,,76,0
16200,note_on,,1,0,12,,,,,,,,,,,,,,,,10,,78,72
16200,note_on,,1,0,13,,,,,,,,,,,,,,,,11,,74,72
16229,note_on,,29,0,12,,,,,,,,,,,,,,,,10,,78,0
16229,note_on,,29,0,13,,,,,,,,,,,,,,,,11,,74,0
16230,note_on,,1,0,13,,,,,,,,,,,,,,,,11,,76,72
16230,note_on,,1,0,12,,,,,,,,,,,,,,,,10,,79,72
16259,note_on,,29,0,12,,,,,,,,,,,,,,,,10,,79,0
16259,note_on,,29,0,13,,,,,,,,,,,,,,,,11,,76,0
16260,note_on,,1,0,12,,,,,,,,,,,,,,,,10,,78,72
16260,note_on,,1,0,13,,,,,,,,,,,,,,,,11,,74,72
16289,note_on,,29,0,13,,,,,,,,,,,,,,,,11,,74,0
16289,note_on,,29,0,12,,,,,,,,,,,,,,,,10,,78,0
16290,note_on,,1,0,12,,,,,,,,,,,,,,,,10,,79,72
16290,note_on,,1,0,13,,,,,,,,,,,,,,,,11,,76,72
16319,note_on,,29,0,13,,,,,,,,,,,,,,,,11,,76,0
16319,note_on,,29,0,12,,,,,,,,,,,,,,,,10,,79,0
16320,note_on,,1,0,13,,,,,,,,,,,,,,,,11,,78,72
16320,note_on,,1,0,12,,,,,,,,,,,,,,,,10,,81,72
16349,note_on,,29,0,13,,,,,,,,,,,,,,,,11,,78,0
16349,note_on,,29,0,12,,,,,,,,,,,,,,,,10,,81,0
16350,note_on,,1,0,13,,,,,,,,,,,,,,,,11,,76,72
16350,note_on,,1,0,12,,,,,,,,,,,,,,,,10,,79,72
16379,note_on,,29,0,12,,,,,,,,,,,,,,,,10,,79,0
16379,note_on,,29,0,13,,,,,,,,,,,,,,,,11,,76,0
16380,note_on,,301,0,9,,,,,,,,,,,,,,,,6,,66,88
16380,note_on,,1,0,12,,,,,,,,,,,,,,,,10,,81,72
16380,note_on,,1,0,13,,,,,,,,,,,,,,,,11,,78,72
16380,note_on,,301,0,11,,,,,,,,,,,,,,,,8,,50,88
16380,note_on,,301,0,14,,,,,,,,,,,,,,,,12,,69,72
16380,note_on,,301,0,6,,,,,,,,,,,,,,,,1,,69,72
16380,note_on,,301,0,8,,,,,,,,,,,,,,,,5,,69,88
16380,note_on,,301,0,16,,,,,,,,,,,,,,,,15,,50,72
16380,note_on,,301,0,15,,,,,,,,,,,,,,,,13,,50,72
16380,note_on,,301,0,5,,,,,,,,,,,,,,,,0,,69,72
16380,note_on,,301,0,10,,,,,,,,,,,,,,,,7,,62,88
16380,note_on,,0,0,16,,,,,,,,,,,,,,,,15,,57,72
16380,note_on,,0,0,16,,,,,,,,,,,,,,,,15,,66,72
16380,note_on,,301,0,7,,,,,,,,,,,,,,,,2,,50,72
16380,note_on,,0,0,16,,,,,,,,,,,,,,,,15,,69,72
16380,note_on,,0,0,16,,,,,,,,,,,,,,,,15,,74,72
16409,note_on,,29,0,13,,,,,,,,,,,,,,,,11,,78,0
16409,note_on,,29,0,12,,,,,,,,,,,,,,,,10,,81,0
16410,note_on,,1,0,13,,,,,,,,,,,,,,,,11,,76,72
16410,note_on,,1,0,12,,,,,,,,,,,,,,,,10,,79,72
16439,note_on,,29,0,13,,,,,,,,,,,,,,,,11,,76,0
16439,note_on,,29,0,12,,,,,,,,,,,,,,,,10,,79,0
16439,note_on,,59,0,9,,,,,,,,,,,,,,,,6,,66,0
16439,note_on,,59,0,6,,,,,,,,,,,,,,,,1,,69,0
16439,note_on,,0,0,16,,,,,,,,,,,,,,,,15,,69,0
16439,note_on,,59,0,15,,,,,,,,,,,,,,,,13,,50,0
16439,note_on,,59,0,14,,,,,,,,,,,,,,,,12,,69,0
16439,note_on,,59,0,7,,,,,,,,,,,,,,,,2,,50,0
16439,note_on,,59,0,10,,,,,,,,,,,,,,,,7,,62,0
16439,note_on,,59,0,8,,,,,,,,,,,,,,,,5,,69,0
16439,note_on,,59,0,16,,,,,,,,,,,,,,,,15,,50,0
16439,note_on,,0,0,16,,,,,,,,,,,,,,,,15,,74,0
16439,note_on,,59,0,5,,,,,,,,,,,,,,,,0,,69,0
16439,note_on,,59,0,11,,,,,,,,,,,,,,,,8,,50,0
16439,note_on,,0,0,16,,,,,,,,,,,,,,,,15,,57,0
16439,note_on,,0,0,16,,,,,,,,,,,,,,,,15,,66,0
16440,note_on,,1,0,13,,,,,,,,,,,,,,,,11,,74,72
16440,note_on,,1,0,11,,,,,,,,,,,,,,,,8,,50,88
16440,note_on,,1,0,14,,,,,,,,,,,,,,,,12,,69,72
16440,note_on,,1,0,16,,,,,,,,,,,,,,,,15,,50,72
16440,note_on,,1,0,7,,,,,,,,,,,,,,,,2,,50,72
16440,note_on,,0,0,16,,,,,,,,,,,,,,,,15,,74,72
16440,note_on,,1,0,8,,,,,,,,,,,,,,,,5,,69,88
16440,note_on,,0,0,16,,,,,,,,,,,,,,,,15,,69,72
16440,note_on,,1,0,10,,,,,,,,,,,,,,,,7,,62,88
16440,note_on,,0,0,16,,,,,,,,,,,,,,,,15,,57,72
16440,note_on,,1,0,15,,,,,,,,,,,,,,,,13,,50,72
16440,note_on,,0,0,16,,,,,,,,,,,,,,,,15,,66,72
16440,note_on,,1,0,9,,,,,,,,,,,,,,,,6,,66,88
16440,note_on,,1,0,5,,,,,,,,,,,,,,,,0,,69,72
16440,note_on,,1,0,12,,,,,,,,,,,,,,,,10,,78,72
16440,note_on,,1,0,6,,,,,,,,,,,,,,,,1,,69,72
16469,note_on,,29,0,13,,,,,,,,,,,,,,,,11,,74,0
16469,note_on,,29,0,12,,,,,,,,,,,,,,,,10,,78,0
16470,note_on,,1,0,12,,,,,,,,,,,,,,,,10,,79,72
16470,note_on,,1,0,13,,,,,,,,,,,,,,,,11,,76,72
16499,note_on,,0,0,16,,,,,,,,,,,,,,,,15,,74,0
16499,note_on,,59,0,14,,,,,,,,,,,,,,,,12,,69,0
16499,note_on,,59,0,9,,,,,,,,,,,,,,,,6,,66,0
16499,note_on,,59,0,8,,,,,,,,,,,,,,,,5,,69,0
16499,note_on,,59,0,11,,,,,,,,,,,,,,,,8,,50,0
16499,note_on,,0,0,16,,,,,,,,,,,,,,,,15,,69,0
16499,note_on,,29,0,12,,,,,,,,,,,,,,,,10,,79,0
16499,note_on,,59,0,16,,,,,,,,,,,,,,,,15,,50,0
16499,note_on,,59,0,5,,,,,,,,,,,,,,,,0,,69,0
16499,note_on,,59,0,6,,,,,,,,,,,,,,,,1,,69,0
16499,note_on,,0,0,16,,,,,,,,,,,,,,,,15,,66,0
16499,note_on,,0,0,16,,,,,,,,,,,,,,,,15,,57,0
16499,note_on,,59,0,7,,,,,,,,,,,,,,,,2,,50,0
16499,note_on,,29,0,13,,,,,,,,,,,,,,,,11,,76,0
16499,note_on,,59,0,10,,,,,,,,,,,,,,,,7,,62,0
16499,note_on,,59,0,15,,,,,,,,,,,,,,,,13,,50,0
16500,note_on,,1,0,10,,,,,,,,,,,,,,,,7,,62,88
16500,note_on,,1,0,11,,,,,,,,,,,,,,,,8,,50,88
16500,note_on,,1,0,8,,,,,,,,,,,,,,,,5,,69,88
16500,note_on,,1,0,6,,,,,,,,,,,,,,,,1,,69,72
16500,note_on,,1,0,15,,,,,,,,,,,,,,,,13,,50,72
16500,note_on,,1,0,7,,,,,,,,,,,,,,,,2,,50,72
16500,note_on,,1,0,5,,,,,,,,,,,,,,,,0,,69,72
16500,note_on,,1,0,14,,,,,,,,,,,,,,,,12,,69,72
16500,note_on,,0,0,16,,,,,,,,,,,,,,,,15,,57,72
16500,note_on,,0,0,16,,,,,,,,,,,,,,,,15,,66,72
16500,note_on,,0,0,16,,,,,,,,,,,,,,,,15,,69,72
16500,note_on,,0,0,16,,,,,,,,,,,,,,,,15,,74,72
16500,note_on,,1,0,13,,,,,,,,,,,,,,,,11,,74,72
16500,note_on,,1,0,12,,,,,,,,,,,,,,,,10,,78,72
16500,note_on,,1,0,9,,,,,,,,,,,,,,,,6,,66,88
16500,note_on,,1,0,16,,,,,,,,,,,,,,,,15,,50,72
16529,note_on,,29,0,12,,,,,,,,,,,,,,,,10,,78,0
16529,note_on,,29,0,13,,,,,,,,,,,,,,,,11,,74,0
16530,note_on,,1,0,13,,,,,,,,,,,,,,,,11,,76,72
16530,note_on,,1,0,12,,,,,,,,,,,,,,,,10,,79,72
16559,note_on,,59,0,9,,,,,,,,,,,,,,,,6,,66,0
16559,note_on,,0,0,16,,,,,,,,,,,,,,,,15,,57,0
16559,note_on,,0,0,16,,,,,,,,,,,,,,,,15,,66,0
16559,note_on,,0,0,16,,,,,,,,,,,,,,,,15,,69,0
16559,note_on,,59,0,6,,,,,,,,,,,,,,,,1,,69,0
16559,note_on,,0,0,16,,,,,,,,,,,,,,,,15,,74,0
16559,note_on,,59,0,7,,,,,,,,,,,,,,,,2,,50,0
16559,note_on,,59,0,16,,,,,,,,,,,,,,,,15,,50,0
16559,note_on,,59,0,8,,,,,,,,,,,,,,,,5,,69,0
16559,note_on,,29,0,12,,,,,,,,,,,,,,,,10,,79,0
16559,note_on,,59,0,5,,,,,,,,,,,,,,,,0,,69,0
16559,note_on,,59,0,11,,,,,,,,,,,,,,,,8,,50,0
16559,note_on,,29,0,13,,,,,,,,,,,,,,,,11,,76,0
16559,note_on,,59,0,14,,,,,,,,,,,,,,,,12,,69,0
16559,note_on,,59,0,10,,,,,,,,,,,,,,,,7,,62,0
16559,note_on,,59,0,15,,,,,,,,,,,,,,,,13,,50,0
16560,note_on,,1,0,7,,,,,,,,,,,,,,,,2,,62,72
16560,note_on,,0,0,16,,,,,,,,,,,,,,,,15,,69,72
16560,note_on,,0,0,16,,,,,,,,,,,,,,,,15,,74,72
16560,note_on,,1,0,16,,,,,,,,,,,,,,,,15,,62,72
16560,note_on,,1,0,11,,,,,,,,,,,,,,,,8,,62,88
16560,note_on,,1,0,6,,,,,,,,,,,,,,,,1,,74,72
16560,note_on,,1,0,8,,,,,,,,,,,,,,,,5,,74,88
16560,note_on,,1,0,15,,,,,,,,,,,,,,,,13,,62,72
16560,note_on,,1,0,10,,,,,,,,,,,,,,,,7,,66,88
16560,note_on,,0,0,16,,,,,,,,,,,,,,,,15,,78,72
16560,note_on,,1,0,14,,,,,,,,,,,,,,,,12,,74,72
16560,note_on,,1,0,5,,,,,,,,,,,,,,,,0,,74,72
16560,note_on,,1,0,13,,,,,,,,,,,,,,,,11,,78,72
16560,note_on,,1,0,12,,,,,,,,,,,,,,,,10,,81,72
16560,note_on,,1,0,9,,,,,,,,,,,,,,,,6,,69,88
16589,note_on,,29,0,12,,,,,,,,,,,,,,,,10,,81,0
16589,note_on,,29,0,13,,,,,,,,,,,,,,,,11,,78,0
16590,note_on,,1,0,12,,,,,,,,,,,,,,,,10,,79,72
16590,note_on,,1,0,13,,,,,,,,,,,,,,,,11,,76,72
16619,note_on,,29,0,13,,,,,,,,,,,,,,,,11,,76,0
16619,note_on,,29,0,12,,,,,,,,,,,,,,,,10,,79,0
16620,note_on,,1,0,12,,,,,,,,,,,,,,,,10,,81,72
16620,note_on,,1,0,13,,,,,,,,,,,,,,,,11,,78,72
16649,note_on,,29,0,12,,,,,,,,,,,,,,,,10,,81,0
16649,note_on,,29,0,13,,,,,,,,,,,,,,,,11,,78,0
16650,note_on,,1,0,12,,,,,,,,,,,,,,,,10,,79,72
16650,note_on,,1,0,13,,,,,,,,,,,,,,,,11,,76,72
16679,note_on,,29,0,13,,,,,,,,,,,,,,,,11,,76,0
16679,note_on,,119,0,8,,,,,,,,,,,,,,,,5,,74,0
16679,note_on,,0,0,16,,,,,,,,,,,,,,,,15,,78,0
16679,note_on,,119,0,6,,,,,,,,,,,,,,,,1,,74,0
16679,note_on,,0,0,16,,,,,,,,,,,,,,,,15,,69,0
16679,note_on,,0,0,16,,,,,,,,,,,,,,,,15,,74,0
16679,note_on,,119,0,11,,,,,,,,,,,,,,,,8,,62,0
16679,note_on,,119,0,10,,,,,,,,,,,,,,,,7,,66,0
16679,note_on,,119,0,16,,,,,,,,,,,,,,,,15,,62,0
16679,note_on,,119,0,14,,,,,,,,,,,,,,,,12,,74,0
16679,note_on,,119,0,15,,,,,,,,,,,,,,,,13,,62,0
16679,note_on,,119,0,7,,,,,,,,,,,,,,,,2,,62,0
16679,note_on,,119,0,5,,,,,,,,,,,,,,,,0,,74,0
16679,note_on,,119,0,9,,,,,,,,,,,,,,,,6,,69,0
16679,note_on,,29,0,12,,,,,,,,,,,,,,,,10,,79,0
16680,note_on,,1,0,13,,,,,,,,,,,,,,,,11,,74,72
16680,note_on,,1,0,12,,,,,,,,,,,,,,,,10,,78,72
16709,note_on,,29,0,12,,,,,,,,,,,,,,,,10,,78,0
16709,note_on,,29,0,13,,,,,,,,,,,,,,,,11,,74,0
16710,note_on,,1,0,13,,,,,,,,,,,,,,,,11,,78,72
16710,note_on,,1,0,12,,,,,,,,,,,,,,,,10,,81,72
16739,note_on,,29,0,13,,,,,,,,,,,,,,,,11,,78,0
16739,note_on,,29,0,12,,,,,,,,,,,,,,,,10,,81,0
16740,note_on,,61,0,7,,,,,,,,,,,,,,,,2,,62,72
16740,note_on,,61,0,5,,,,,,,,,,,,,,,,0,,74,72
16740,note_on,,61,0,8,,,,,,,,,,,,,,,,5,,74,88
16740,note_on,,1,0,12,,,,,,,,,,,,,,,,10,,79,72
16740,note_on,,1,0,13,,,,,,,,,,,,,,,,11,,76,72
16740,note_on,,61,0,11,,,,,,,,,,,,,,,,8,,62,88
16740,note_on,,61,0,6,,,,,,,,,,,,,,,,1,,74,72
16740,note_on,,61,0,9,,,,,,,,,,,,,,,,6,,69,88
16740,note_on,,61,0,10,,,,,,,,,,,,,,,,7,,66,88
16740,note_on,,61,0,14,,,,,,,,,,,,,,,,12,,74,72
16740,note_on,,0,0,16,,,,,,,,,,,,,,,,15,,69,72
16740,note_on,,0,0,16,,,,,,,,,,,,,,,,15,,74,72
16740,note_on,,0,0,16,,,,,,,,,,,,,,,,15,,78,72
16740,note_on,,61,0,16,,,,,,,,,,,,,,,,15,,62,72
16740,note_on,,61,0,15,,,,,,,,,,,,,,,,13,,62,72
16769,note_on,,29,0,13,,,,,,,,,,,,,,,,11,,76,0
16769,note_on,,29,0,12,,,,,,,,,,,,,,,,10,,79,0
16770,note_on,,1,0,13,,,,,,,,,,,,,,,,11,,78,72
16770,note_on,,1,0,12,,,,,,,,,,,,,,,,10,,81,72
16799,note_on,,59,0,10,,,,,,,,,,,,,,,,7,,66,0
16799,note_on,,59,0,6,,,,,,,,,,,,,,,,1,,74,0
16799,note_on,,59,0,15,,,,,,,,,,,,,,,,13,,62,0
16799,note_on,,59,0,16,,,,,,,,,,,,,,,,15,,62,0
16799,note_on,,0,0,16,,,,,,,,,,,,,,,,15,,78,0
16799,note_on,,59,0,5,,,,,,,,,,,,,,,,0,,74,0
16799,note_on,,29,0,13,,,,,,,,,,,,,,,,11,,78,0
16799,note_on,,59,0,8,,,,,,,,,,,,,,,,5,,74,0
16799,note_on,,59,0,14,,,,,,,,,,,,,,,,12,,74,0
16799,note_on,,59,0,9,,,,,,,,,,,,,,,,6,,69,0
16799,note_on,,0,0,16,,,,,,,,,,,,,,,,15,,74,0
16799,note_on,,59,0,11,,,,,,,,,,,,,,,,8,,62,0
16799,note_on,,0,0,16,,,,,,,,,,,,,,,,15,,69,0
16799,note_on,,59,0,7,,,,,,,,,,,,,,,,2,,62,0
16799,note_on,,29,0,12,,,,,,,,,,,,,,,,10,,81,0
16800,note_on,,1,0,14,,,,,,,,,,,,,,,,12,,62,72
16800,note_on,,1,0,11,,,,,,,,,,,,,,,,8,,59,88
16800,note_on,,1,0,5,,,,,,,,,,,,,,,,0,,74,72
16800,note_on,,1,0,7,,,,,,,,,,,,,,,,2,,59,72
16800,note_on,,1,0,6,,,,,,,,,,,,,,,,1,,74,72
16800,note_on,,1,0,12,,,,,,,,,,,,,,,,10,,83,72
16800,note_on,,1,0,16,,,,,,,,,,,,,,,,15,,59,72
16800,note_on,,1,0,8,,,,,,,,,,,,,,,,5,,74,88
16800,note_on,,0,0,16,,,,,,,,,,,,,,,,15,,79,72
16800,note_on,,0,0,16,,,,,,,,,,,,,,,,15,,67,72
16800,note_on,,0,0,16,,,,,,,,,,,,,,,,15,,74,72
16800,note_on,,1,0,15,,,,,,,,,,,,,,,,13,,59,72
16800,note_on,,1,0,13,,,,,,,,,,,,,,,,11,,79,72
16800,note_on,,1,0,10,,,,,,,,,,,,,,,,7,,67,88
16800,note_on,,0,0,16,,,,,,,,,,,,,,,,15,,62,72
16800,note_on,,1,0,9,,,,,,,,,,,,,,,,6,,71,88
16829,note_on,,29,0,12,,,,,,,,,,,,,,,,10,,83,0
16829,note_on,,29,0,13,,,,,,,,,,,,,,,,11,,79,0
16830,note_on,,1,0,13,,,,,,,,,,,,,,,,11,,78,72
16830,note_on,,1,0,12,,,,,,,,,,,,,,,,10,,81,72
16859,note_on,,29,0,13,,,,,,,,,,,,,,,,11,,78,0
16859,note_on,,59,0,16,,,,,,,,,,,,,,,,15,,59,0
16859,note_on,,59,0,5,,,,,,,,,,,,,,,,0,,74,0
16859,note_on,,0,0,16,,,,,,,,,,,,,,,,15,,74,0
16859,note_on,,0,0,16,,,,,,,,,,,,,,,,15,,67,0
16859,note_on,,0,0,16,,,,,,,,,,,,,,,,15,,62,0
16859,note_on,,0,0,16,,,,,,,,,,,,,,,,15,,79,0
16859,note_on,,59,0,9,,,,,,,,,,,,,,,,6,,71,0
16859,note_on,,59,0,6,,,,,,,,,,,,,,,,1,,74,0
16859,note_on,,59,0,8,,,,,,,,,,,,,,,,5,,74,0
16859,note_on,,59,0,7,,,,,,,,,,,,,,,,2,,59,0
16859,note_on,,59,0,11,,,,,,,,,,,,,,,,8,,59,0
16859,note_on,,59,0,14,,,,,,,,,,,,,,,,12,,62,0
16859,note_on,,59,0,10,,,,,,,,,,,,,,,,7,,67,0
16859,note_on,,59,0,15,,,,,,,,,,,,,,,,13,,59,0
16859,note_on,,29,0,12,,,,,,,,,,,,,,,,10,,81,0
16860,note_on,,1,0,14,,,,,,,,,,,,,,,,12,,62,72
16860,note_on,,1,0,8,,,,,,,,,,,,,,,,5,,74,88
16860,note_on,,1,0,7,,,,,,,,,,,,,,,,2,,59,72
16860,note_on,,1,0,6,,,,,,,,,,,,,,,,1,,74,72
16860,note_on,,1,0,15,,,,,,,,,,,,,,,,13,,59,72
16860,note_on,,1,0,12,,,,,,,,,,,,,,,,10,,83,72
16860,note_on,,1,0,13,,,,,,,,,,,,,,,,11,,79,72
16860,note_on,,0,0,16,,,,,,,,,,,,,,,,15,,74,72
16860,note_on,,1,0,10,,,,,,,,,,,,,,,,7,,67,88
16860,note_on,,1,0,9,,,,,,,,,,,,,,,,6,,71,88
16860,note_on,,1,0,11,,,,,,,,,,,,,,,,8,,59,88
16860,note_on,,1,0,16,,,,,,,,,,,,,,,,15,,59,72
16860,note_on,,1,0,5,,,,,,,,,,,,,,,,0,,74,72
16860,note_on,,0,0,16,,,,,,,,,,,,,,,,15,,79,72
16860,note_on,,0,0,16,,,,,,,,,,,,,,,,15,,62,72
16860,note_on,,0,0,16,,,,,,,,,,,,,,,,15,,67,72
16889,note_on,,29,0,13,,,,,,,,,,,,,,,,11,,79,0
16889,note_on,,29,0,12,,,,,,,,,,,,,,,,10,,83,0
16890,note_on,,1,0,12,,,,,,,,,,,,,,,,10,,85,72
16890,note_on,,1,0,13,,,,,,,,,,,,,,,,11,,81,72
16919,note_on,,59,0,5,,,,,,,,,,,,,,,,0,,74,0
16919,note_on,,59,0,10,,,,,,,,,,,,,,,,7,,67,0
16919,note_on,,59,0,8,,,,,,,,,,,,,,,,5,,74,0
16919,note_on,,59,0,9,,,,,,,,,,,,,,,,6,,71,0
16919,note_on,,59,0,11,,,,,,,,,,,,,,,,8,,59,0
16919,note_on,,59,0,7,,,,,,,,,,,,,,,,2,,59,0
16919,note_on,,59,0,6,,,,,,,,,,,,,,,,1,,74,0
16919,note_on,,59,0,15,,,,,,,,,,,,,,,,13,,59,0
16919,note_on,,59,0,14,,,,,,,,,,,,,,,,12,,62,0
16919,note_on,,29,0,13,,,,,,,,,,,,,,,,11,,81,0
16919,note_on,,59,0,16,,,,,,,,,,,,,,,,15,,59,0
16919,note_on,,0,0,16,,,,,,,,,,,,,,,,15,,79,0
16919,note_on,,0,0,16,,,,,,,,,,,,,,,,15,,74,0
16919,note_on,,0,0,16,,,,,,,,,,,,,,,,15,,67,0
16919,note_on,,0,0,16,,,,,,,,,,,,,,,,15,,62,0
16919,note_on,,29,0,12,,,,,,,,,,,,,,,,10,,85,0
16920,note_on,,0,0,16,,,,,,,,,,,,,,,,15,,62,72
16920,note_on,,0,0,16,,,,,,,,,,,,,,,,15,,74,72
16920,note_on,,0,0,16,,,,,,,,,,,,,,,,15,,79,72
16920,note_on,,1,0,16,,,,,,,,,,,,,,,,15,,55,72
16920,note_on,,1,0,8,,,,,,,,,,,,,,,,5,,79,88
16920,note_on,,0,0,16,,,,,,,,,,,,,,,,15,,83,72
16920,note_on,,1,0,10,,,,,,,,,,,,,,,,7,,62,88
16920,note_on,,1,0,15,,,,,,,,,,,,,,,,13,,55,72
16920,note_on,,1,0,6,,,,,,,,,,,,,,,,1,,79,72
16920,note_on,,1,0,14,,,,,,,,,,,,,,,,12,,62,72
16920,note_on,,1,0,11,,,,,,,,,,,,,,,,8,,55,88
16920,note_on,,1,0,13,,,,,,,,,,,,,,,,11,,79,72
16920,note_on,,1,0,9,,,,,,,,,,,,,,,,6,,71,88
16920,note_on,,1,0,7,,,,,,,,,,,,,,,,2,,55,72
16920,note_on,,1,0,12,,,,,,,,,,,,,,,,10,,83,72
16920,note_on,,1,0,5,,,,,,,,,,,,,,,,0,,79,72
16949,note_on,,29,0,12,,,,,,,,,,,,,,,,10,,83,0
16949,note_on,,29,0,13,,,,,,,,,,,,,,,,11,,79,0
16950,note_on,,1,0,12,,,,,,,,,,,,,,,,10,,85,72
16950,note_on,,1,0,13,,,,,,,,,,,,,,,,11,,81,72
16979,note_on,,0,0,16,,,,,,,,,,,,,,,,15,,62,0
16979,note_on,,59,0,8,,,,,,,,,,,,,,,,5,,79,0
16979,note_on,,59,0,11,,,,,,,,,,,,,,,,8,,55,0
16979,note_on,,59,0,7,,,,,,,,,,,,,,,,2,,55,0
16979,note_on,,59,0,16,,,,,,,,,,,,,,,,15,,55,0
16979,note_on,,59,0,10,,,,,,,,,,,,,,,,7,,62,0
16979,note_on,,29,0,12,,,,,,,,,,,,,,,,10,,85,0
16979,note_on,,0,0,16,,,,,,,,,,,,,,,,15,,74,0
16979,note_on,,0,0,16,,,,,,,,,,,,,,,,15,,79,0
16979,note_on,,0,0,16,,,,,,,,,,,,,,,,15,,83,0
16979,note_on,,59,0,14,,,,,,,,,,,,,,,,12,,62,0
16979,note_on,,59,0,6,,,,,,,,,,,,,,,,1,,79,0
16979,note_on,,59,0,5,,,,,,,,,,,,,,,,0,,79,0
16979,note_on,,59,0,9,,,,,,,,,,,,,,,,6,,71,0
16979,note_on,,59,0,15,,,,,,,,,,,,,,,,13,,55,0
16979,note_on,,29,0,13,,,,,,,,,,,,,,,,11,,81,0
16980,note_on,,1,0,11,,,,,,,,,,,,,,,,8,,55,88
16980,note_on,,1,0,14,,,,,,,,,,,,,,,,12,,67,72
16980,note_on,,1,0,9,,,,,,,,,,,,,,,,6,,71,88
16980,note_on,,1,0,15,,,,,,,,,,,,,,,,13,,55,72
16980,note_on,,1,0,10,,,,,,,,,,,,,,,,7,,62,88
16980,note_on,,1,0,8,,,,,,,,,,,,,,,,5,,79,88
16980,note_on,,1,0,12,,,,,,,,,,,,,,,,10,,83,72
16980,note_on,,1,0,16,,,,,,,,,,,,,,,,15,,55,72
16980,note_on,,0,0,16,,,,,,,,,,,,,,,,15,,62,72
16980,note_on,,1,0,6,,,,,,,,,,,,,,,,1,,79,72
16980,note_on,,0,0,16,,,,,,,,,,,,,,,,15,,74,72
16980,note_on,,1,0,13,,,,,,,,,,,,,,,,11,,79,72
16980,note_on,,1,0,5,,,,,,,,,,,,,,,,0,,79,72
16980,note_on,,0,0,16,,,,,,,,,,,,,,,,15,,79,72
16980,note_on,,0,0,16,,,,,,,,,,,,,,,,15,,83,72
16980,note_on,,1,0,7,,,,,,,,,,,,,,,,2,,55,72
17009,note_on,,29,0,12,,,,,,,,,,,,,,,,10,,83,0
17009,note_on,,29,0,13,,,,,,,,,,,,,,,,11,,79,0
17010,note_on,,1,0,13,,,,,,,,,,,,,,,,11,,81,72
17010,note_on,,1,0,12,,,,,,,,,,,,,,,,10,,85,72
17039,note_on,,59,0,9,,,,,,,,,,,,,,,,6,,71,0
17039,note_on,,0,0,16,,,,,,,,,,,,,,,,15,,74,0
17039,note_on,,59,0,11,,,,,,,,,,,,,,,,8,,55,0
17039,note_on,,59,0,16,,,,,,,,,,,,,,,,15,,55,0
17039,note_on,,59,0,15,,,,,,,,,,,,,,,,13,,55,0
17039,note_on,,0,0,16,,,,,,,,,,,,,,,,15,,79,0
17039,note_on,,59,0,14,,,,,,,,,,,,,,,,12,,67,0
17039,note_on,,59,0,6,,,,,,,,,,,,,,,,1,,79,0
17039,note_on,,59,0,5,,,,,,,,,,,,,,,,0,,79,0
17039,note_on,,59,0,7,,,,,,,,,,,,,,,,2,,55,0
17039,note_on,,0,0,16,,,,,,,,,,,,,,,,15,,62,0
17039,note_on,,0,0,16,,,,,,,,,,,,,,,,15,,83,0
17039,note_on,,59,0,10,,,,,,,,,,,,,,,,7,,62,0
17039,note_on,,59,0,8,,,,,,,,,,,,,,,,5,,79,0
17039,note_on,,29,0,12,,,,,,,,,,,,,,,,10,,85,0
17039,note_on,,29,0,13,,,,,,,,,,,,,,,,11,,81,0
17040,note_on,,1,0,9,,,,,,,,,,,,,,,,6,,69,88
17040,note_on,,1,0,6,,,,,,,,,,,,,,,,1,,78,72
17040,note_on,,0,0,16,,,,,,,,,,,,,,,,15,,78,72
17040,note_on,,0,0,16,,,,,,,,,,,,,,,,15,,74,72
17040,note_on,,0,0,16,,,,,,,,,,,,,,,,15,,81,72
17040,note_on,,1,0,7,,,,,,,,,,,,,,,,2,,62,72
17040,note_on,,1,0,15,,,,,,,,,,,,,,,,13,,62,72
17040,note_on,,1,0,10,,,,,,,,,,,,,,,,7,,66,88
17040,note_on,,0,0,16,,,,,,,,,,,,,,,,15,,69,72
17040,note_on,,1,0,16,,,,,,,,,,,,,,,,15,,62,72
17040,note_on,,1,0,11,,,,,,,,,,,,,,,,8,,62,88
17040,note_on,,1,0,8,,,,,,,,,,,,,,,,5,,78,88
17040,note_on,,1,0,13,,,,,,,,,,,,,,,,11,,78,72
17040,note_on,,1,0,5,,,,,,,,,,,,,,,,0,,78,72
17040,note_on,,1,0,12,,,,,,,,,,,,,,,,10,,86,72
17040,note_on,,1,0,14,,,,,,,,,,,,,,,,12,,69,72
17069,note_on,,29,0,13,,,,,,,,,,,,,,,,11,,78,0
17070,note_on,,1,0,13,,,,,,,,,,,,,,,,11,,76,72
17099,note_on,,59,0,11,,,,,,,,,,,,,,,,8,,62,0
17099,note_on,,59,0,16,,,,,,,,,,,,,,,,15,,62,0
17099,note_on,,59,0,7,,,,,,,,,,,,,,,,2,,62,0
17099,note_on,,59,0,8,,,,,,,,,,,,,,,,5,,78,0
17099,note_on,,59,0,10,,,,,,,,,,,,,,,,7,,66,0
17099,note_on,,59,0,9,,,,,,,,,,,,,,,,6,,69,0
17099,note_on,,59,0,14,,,,,,,,,,,,,,,,12,,69,0
17099,note_on,,59,0,12,,,,,,,,,,,,,,,,10,,86,0
17099,note_on,,59,0,15,,,,,,,,,,,,,,,,13,,62,0
17099,note_on,,59,0,5,,,,,,,,,,,,,,,,0,,78,0
17099,note_on,,59,0,6,,,,,,,,,,,,,,,,1,,78,0
17099,note_on,,29,0,13,,,,,,,,,,,,,,,,11,,76,0
17100,note_on,,0,0,16,,,,,,,,,,,,,,,,15,,62,72
17100,note_on,,1,0,16,,,,,,,,,,,,,,,,15,,50,72
17100,note_on,,1,0,12,,,,,,,,,,,,,,,,10,,81,72
17100,note_on,,1,0,5,,,,,,,,,,,,,,,,0,,78,72
17100,note_on,,1,0,13,,,,,,,,,,,,,,,,11,,78,72
17100,note_on,,1,0,11,,,,,,,,,,,,,,,,8,,62,88
17100,note_on,,1,0,14,,,,,,,,,,,,,,,,12,,69,72
17100,note_on,,1,0,10,,,,,,,,,,,,,,,,7,,66,88
17100,note_on,,1,0,6,,,,,,,,,,,,,,,,1,,78,72
17100,note_on,,1,0,15,,,,,,,,,,,,,,,,13,,50,72
17100,note_on,,1,0,9,,,,,,,,,,,,,,,,6,,69,88
17100,note_on,,1,0,8,,,,,,,,,,,,,,,,5,,78,88
17100,note_on,,1,0,7,,,,,,,,,,,,,,,,2,,50,72
17129,note_on,,29,0,13,,,,,,,,,,,,,,,,11,,78,0
17130,note_on,,1,0,13,,,,,,,,,,,,,,,,11,,79,72
17159,note_on,,59,0,6,,,,,,,,,,,,,,,,1,,78,0
17159,note_on,,0,0,16,,,,,,,,,,,,,,,,15,,50,0
17159,note_on,,0,0,16,,,,,,,,,,,,,,,,15,,62,0
17159,note_on,,59,0,10,,,,,,,,,,,,,,,,7,,66,0
17159,note_on,,59,0,9,,,,,,,,,,,,,,,,6,,69,0
17159,note_on,,0,0,16,,,,,,,,,,,,,,,,15,,78,0
17159,note_on,,0,0,16,,,,,,,,,,,,,,,,15,,74,0
17159,note_on,,59,0,8,,,,,,,,,,,,,,,,5,,78,0
17159,note_on,,0,0,16,,,,,,,,,,,,,,,,15,,69,0
17159,note_on,,59,0,5,,,,,,,,,,,,,,,,0,,78,0
17159,note_on,,59,0,7,,,,,,,,,,,,,,,,2,,50,0
17159,note_on,,59,0,12,,,,,,,,,,,,,,,,10,,81,0
17159,note_on,,29,0,13,,,,,,,,,,,,,,,,11,,79,0
17159,note_on,,59,0,16,,,,,,,,,,,,,,,,15,,81,0
17159,note_on,,59,0,14,,,,,,,,,,,,,,,,12,,69,0
17159,note_on,,59,0,15,,,,,,,,,,,,,,,,13,,50,0
17159,note_on,,59,0,11,,,,,,,,,,,,,,,,8,,62,0
17160,note_on,,1,0,13,,,,,,,,,,,,,,,,11,,78,72
17160,note_on,,1,0,12,,,,,,,,,,,,,,,,10,,86,72
17189,note_on,,29,0,13,,,,,,,,,,,,,,,,11,,78,0
17190,note_on,,1,0,13,,,,,,,,,,,,,,,,11,,79,72
17219,note_on,,29,0,13,,,,,,,,,,,,,,,,11,,79,0
17220,note_on,,61,0,7,,,,,,,,,,,,,,,,2,,54,72
17220,note_on,,61,0,9,,,,,,,,,,,,,,,,6,,69,88
17220,note_on,,0,0,16,,,,,,,,,,,,,,,,15,,57,72
17220,note_on,,0,0,16,,,,,,,,,,,,,,,,15,,69,72
17220,note_on,,0,0,16,,,,,,,,,,,,,,,,15,,74,72
17220,note_on,,0,0,16,,,,,,,,,,,,,,,,15,,78,72
17220,note_on,,61,0,16,,,,,,,,,,,,,,,,15,,54,72
17220,note_on,,61,0,5,,,,,,,,,,,,,,,,0,,74,72
17220,note_on,,61,0,15,,,,,,,,,,,,,,,,13,,54,72
17220,note_on,,61,0,6,,,,,,,,,,,,,,,,1,,74,72
17220,note_on,,61,0,8,,,,,,,,,,,,,,,,5,,74,88
17220,note_on,,1,0,13,,,,,,,,,,,,,,,,11,,78,72
17220,note_on,,61,0,10,,,,,,,,,,,,,,,,7,,66,88
17220,note_on,,61,0,14,,,,,,,,,,,,,,,,12,,69,72
17220,note_on,,61,0,11,,,,,,,,,,,,,,,,8,,54,88
17249,note_on,,29,0,13,,,,,,,,,,,,,,,,11,,78,0
17250,note_on,,1,0,13,,,,,,,,,,,,,,,,11,,79,72
17279,note_on,,59,0,8,,,,,,,,,,,,,,,,5,,74,0
17279,note_on,,59,0,9,,,,,,,,,,,,,,,,6,,69,0
17279,note_on,,59,0,7,,,,,,,,,,,,,,,,2,,54,0
17279,note_on,,59,0,14,,,,,,,,,,,,,,,,12,,69,0
17279,note_on,,59,0,6,,,,,,,,,,,,,,,,1,,74,0
17279,note_on,,29,0,13,,,,,,,,,,,,,,,,11,,79,0
17279,note_on,,59,0,5,,,,,,,,,,,,,,,,0,,74,0
17279,note_on,,59,0,10,,,,,,,,,,,,,,,,7,,66,0
17279,note_on,,59,0,16,,,,,,,,,,,,,,,,15,,54,0
17279,note_on,,0,0,16,,,,,,,,,,,,,,,,15,,78,0
17279,note_on,,0,0,16,,,,,,,,,,,,,,,,15,,74,0
17279,note_on,,0,0,16,,,,,,,,,,,,,,,,15,,69,0
17279,note_on,,0,0,16,,,,,,,,,,,,,,,,15,,57,0
17279,note_on,,59,0,11,,,,,,,,,,,,,,,,8,,54,0
17279,note_on,,59,0,15,,,,,,,,,,,,,,,,13,,54,0
17280,note_on,,0,0,16,,,,,,,,,,,,,,,,15,,74,72
17280,note_on,,1,0,16,,,,,,,,,,,,,,,,15,,55,72
17280,note_on,,1,0,5,,,,,,,,,,,,,,,,0,,74,72
17280,note_on,,0,0,16,,,,,,,,,,,,,,,,15,,71,72
17280,note_on,,1,0,11,,,,,,,,,,,,,,,,8,,55,88
17280,note_on,,0,0,16,,,,,,,,,,,,,,,,15,,67,72
17280,note_on,,1,0,10,,,,,,,,,,,,,,,,7,,64,88
17280,note_on,,1,0,9,,,,,,,,,,,,,,,,6,,71,88
17280,note_on,,0,0,16,,,,,,,,,,,,,,,,15,,59,72
17280,note_on,,1,0,14,,,,,,,,,,,,,,,,12,,71,72
17280,note_on,,1,0,6,,,,,,,,,,,,,,,,1,,74,72
17280,note_on,,1,0,8,,,,,,,,,,,,,,,,5,,74,88
17280,note_on,,1,0,7,,,,,,,,,,,,,,,,2,,55,72
17280,note_on,,0,0,16,,,,,,,,,,,,,,,,15,,76,72
17280,note_on,,1,0,13,,,,,,,,,,,,,,,,11,,76,72
17280,note_on,,1,0,15,,,,,,,,,,,,,,,,13,,55,72
17369,note_on,,89,0,13,,,,,,,,,,,,,,,,11,,76,0
17369,note_on,,89,0,14,,,,,,,,,,,,,,,,12,,71,0
17399,note_on,,119,0,8,,,,,,,,,,,,,,,,5,,74,0
17399,note_on,,119,0,16,,,,,,,,,,,,,,,,15,,55,0
17399,note_on,,0,0,16,,,,,,,,,,,,,,,,15,,59,0
17399,note_on,,119,0,10,,,,,,,,,,,,,,,,7,,64,0
17399,note_on,,0,0,16,,,,,,,,,,,,,,,,15,,74,0
17399,note_on,,0,0,16,,,,,,,,,,,,,,,,15,,71,0
17399,note_on,,119,0,5,,,,,,,,,,,,,,,,0,,74,0
17399,note_on,,239,0,12,,,,,,,,,,,,,,,,10,,86,0
17399,note_on,,0,0,16,,,,,,,,,,,,,,,,15,,67,0
17399,note_on,,119,0,15,,,,,,,,,,,,,,,,13,,55,0
17399,note_on,,119,0,11,,,,,,,,,,,,,,,,8,,55,0
17399,note_on,,0,0,16,,,,,,,,,,,,,,,,15,,76,0
17399,note_on,,119,0,7,,,,,,,,,,,,,,,,2,,55,0
17399,note_on,,119,0,6,,,,,,,,,,,,,,,,1,,74,0
17399,note_on,,119,0,9,,,,,,,,,,,,,,,,6,,71,0
17400,note_on,,1,0,16,,,,,,,,,,,,,,,,15,,57,72
17400,note_on,,31,0,13,,,,,,,,,,,,,,,,11,,76,72
17400,note_on,,1,0,8,,,,,,,,,,,,,,,,5,,73,88
17400,note_on,,1,0,15,,,,,,,,,,,,,,,,13,,57,72
17400,note_on,,31,0,14,,,,,,,,,,,,,,,,12,,69,72
17400,note_on,,1,0,10,,,,,,,,,,,,,,,,7,,64,88
17400,note_on,,0,0,16,,,,,,,,,,,,,,,,15,,61,72
17400,note_on,,1,0,12,,,,,,,,,,,,,,,,10,,85,72
17400,note_on,,0,0,16,,,,,,,,,,,,,,,,15,,64,72
17400,note_on,,1,0,9,,,,,,,,,,,,,,,,6,,69,88
17400,note_on,,1,0,6,,,,,,,,,,,,,,,,1,,73,72
17400,note_on,,0,0,16,,,,,,,,,,,,,,,,15,,69,72
17400,note_on,,0,0,16,,,,,,,,,,,,,,,,15,,73,72
17400,note_on,,1,0,5,,,,,,,,,,,,,,,,0,,73,72
17400,note_on,,1,0,11,,,,,,,,,,,,,,,,8,,57,88
17400,note_on,,1,0,7,,,,,,,,,,,,,,,,2,,57,72
17489,note_on,,89,0,14,,,,,,,,,,,,,,,,12,,69,0
17489,note_on,,89,0,13,,,,,,,,,,,,,,,,11,,76,0
17489,note_on,,89,0,12,,,,,,,,,,,,,,,,10,,85,0
17519,note_on,,0,0,16,,,,,,,,,,,,,,,,15,,69,0
17519,note_on,,119,0,5,,,,,,,,,,,,,,,,0,,73,0
17519,note_on,,119,0,6,,,,,,,,,,,,,,,,1,,73,0
17519,note_on,,119,0,9,,,,,,,,,,,,,,,,6,,69,0
17519,note_on,,119,0,16,,,,,,,,,,,,,,,,15,,57,0
17519,note_on,,0,0,16,,,,,,,,,,,,,,,,15,,73,0
17519,note_on,,119,0,11,,,,,,,,,,,,,,,,8,,57,0
17519,note_on,,119,0,8,,,,,,,,,,,,,,,,5,,73,0
17519,note_on,,119,0,15,,,,,,,,,,,,,,,,13,,57,0
17519,note_on,,0,0,16,,,,,,,,,,,,,,,,15,,64,0
17519,note_on,,0,0,16,,,,,,,,,,,,,,,,15,,61,0
17519,note_on,,119,0,7,,,,,,,,,,,,,,,,2,,57,0
17519,note_on,,119,0,10,,,,,,,,,,,,,,,,7,,64,0
17520,note_on,,31,0,12,,,,,,,,,,,,,,,,10,,86,72
17520,note_on,,31,0,14,,,,,,,,,,,,,,,,12,,69,72
17520,note_on,,1,0,9,,,,,,,,,,,,,,,,6,,69,88
17520,note_on,,1,0,7,,,,,,,,,,,,,,,,2,,50,72
17520,note_on,,1,0,6,,,,,,,,,,,,,,,,1,,74,72
17520,note_on,,31,0,13,,,,,,,,,,,,,,,,11,,78,72
17520,note_on,,1,0,11,,,,,,,,,,,,,,,,8,,50,88
17520,note_on,,1,0,15,,,,,,,,,,,,,,,,13,,50,72
17520,note_on,,1,0,5,,,,,,,,,,,,,,,,0,,74,72
17520,note_on,,1,0,16,,,,,,,,,,,,,,,,15,,50,72
17520,note_on,,0,0,16,,,,,,,,,,,,,,,,15,,74,72
17520,note_on,,0,0,16,,,,,,,,,,,,,,,,15,,69,72
17520,note_on,,0,0,16,,,,,,,,,,,,,,,,15,,66,72
17520,note_on,,1,0,10,,,,,,,,,,,,,,,,7,,66,88
17520,note_on,,1,0,8,,,,,,,,,,,,,,,,5,,74,88
17520,note_on,,0,0,16,,,,,,,,,,,,,,,,15,,57,72
17609,note_on,,89,0,13,,,,,,,,,,,,,,,,11,,78,0
17609,note_on,,89,0,12,,,,,,,,,,,,,,,,10,,86,0
17609,note_on,,89,0,14,,,,,,,,,,,,,,,,12,,69,0
17639,note_on,,0,0,16,,,,,,,,,,,,,,,,15,,74,0
17639,note_on,,119,0,10,,,,,,,,,,,,,,,,7,,66,0
17639,note_on,,119,0,8,,,,,,,,,,,,,,,,5,,74,0
17639,note_on,,119,0,7,,,,,,,,,,,,,,,,2,,50,0
17639,note_on,,119,0,5,,,,,,,,,,,,,,,,0,,74,0
17639,note_on,,119,0,11,,,,,,,,,,,,,,,,8,,50,0
17639,note_on,,119,0,6,,,,,,,,,,,,,,,,1,,74,0
17639,note_on,,0,0,16,,,,,,,,,,,,,,,,15,,57,0
17639,note_on,,0,0,16,,,,,,,,,,,,,,,,15,,66,0
17639,note_on,,119,0,16,,,,,,,,,,,,,,,,15,,50,0
17639,note_on,,119,0,15,,,,,,,,,,,,,,,,13,,50,0
17639,note_on,,119,0,9,,,,,,,,,,,,,,,,6,,69,0
17639,note_on,,0,0,16,,,,,,,,,,,,,,,,15,,69,0
17640,note_on,,1,0,9,,,,,,,,,,,,,,,,6,,62,58
17699,note_on,,59,0,9,,,,,,,,,,,,,,,,6,,62,0
17700,note_on,,1,0,9,,,,,,,,,,,,,,,,6,,62,58
17700,note_on,,61,0,7,,,,,,,,,,,,,,,,2,,54,48
17700,note_on,,0,0,16,,,,,,,,,,,,,,,,15,,57,48
17700,note_on,,0,0,16,,,,,,,,,,,,,,,,15,,62,48
17700,note_on,,61,0,15,,,,,,,,,,,,,,,,13,,54,48
17700,note_on,,61,0,16,,,,,,,,,,,,,,,,15,,54,48
17759,note_on,,59,0,9,,,,,,,,,,,,,,,,6,,62,0
17759,note_on,,59,0,16,,,,,,,,,,,,,,,,15,,54,0
17759,note_on,,59,0,7,,,,,,,,,,,,,,,,2,,54,0
17759,note_on,,0,0,16,,,,,,,,,,,,,,,,15,,57,0
17759,note_on,,59,0,15,,,,,,,,,,,,,,,,13,,54,0
17759,note_on,,0,0,16,,,,,,,,,,,,,,,,15,,62,0
17760,note_on,,1,0,9,,,,,,,,,,,,,,,,6,,67,58
17760,note_on,,0,0,16,,,,,,,,,,,,,,,,15,,55,48
17760,note_on,,1,0,7,,,,,,,,,,,,,,,,2,,52,48
17760,note_on,,1,0,16,,,,,,,,,,,,,,,,15,,52,48
17760,note_on,,0,0,16,,,,,,,,,,,,,,,,15,,67,48
17760,note_on,,0,0,16,,,,,,,,,,,,,,,,15,,62,48
17760,note_on,,1,0,15,,,,,,,,,,,,,,,,13,,52,48
17819,note_on,,59,0,15,,,,,,,,,,,,,,,,13,,52,0
17819,note_on,,59,0,9,,,,,,,,,,,,,,,,6,,67,0
17819,note_on,,59,0,7,,,,,,,,,,,,,,,,2,,52,0
17819,note_on,,59,0,16,,,,,,,,,,,,,,,,15,,52,0
17819,note_on,,0,0,16,,,,,,,,,,,,,,,,15,,55,0
17820,note_on,,1,0,15,,,,,,,,,,,,,,,,13,,62,48
17820,note_on,,1,0,7,,,,,,,,,,,,,,,,2,,62,48
17820,note_on,,1,0,9,,,,,,,,,,,,,,,,6,,67,58
17820,note_on,,1,0,16,,,,,,,,,,,,,,,,15,,62,48
17879,note_on,,0,0,16,,,,,,,,,,,,,,,,15,,62,0
17879,note_on,,0,0,16,,,,,,,,,,,,,,,,15,,62,0
17879,note_on,,59,0,7,,,,,,,,,,,,,,,,2,,62,0
17879,note_on,,59,0,16,,,,,,,,,,,,,,,,15,,67,0
17879,note_on,,59,0,9,,,,,,,,,,,,,,,,6,,67,0
17879,note_on,,59,0,15,,,,,,,,,,,,,,,,13,,62,0
17880,note_on,,1,0,9,,,,,,,,,,,,,,,,6,,67,58
17880,note_on,,1,0,16,,,,,,,,,,,,,,,,15,,61,48
17880,note_on,,0,0,16,,,,,,,,,,,,,,,,15,,64,48
17880,note_on,,1,0,15,,,,,,,,,,,,,,,,13,,61,48
17880,note_on,,1,0,7,,,,,,,,,,,,,,,,2,,61,48
17880,note_on,,0,0,16,,,,,,,,,,,,,,,,15,,69,48
17939,note_on,,59,0,15,,,,,,,,,,,,,,,,13,,61,0
17939,note_on,,59,0,7,,,,,,,,,,,,,,,,2,,61,0
17939,note_on,,59,0,16,,,,,,,,,,,,,,,,15,,61,0
17939,note_on,,59,0,9,,,,,,,,,,,,,,,,6,,67,0
17939,note_on,,0,0,16,,,,,,,,,,,,,,,,15,,64,0
17939,note_on,,0,0,16,,,,,,,,,,,,,,,,15,,69,0
17940,note_on,,0,0,16,,,,,,,,,,,,,,,,15,,73,48
17940,note_on,,1,0,16,,,,,,,,,,,,,,,,15,,57,48
17940,note_on,,1,0,7,,,,,,,,,,,,,,,,2,,57,48
17940,note_on,,0,0,16,,,,,,,,,,,,,,,,15,,69,48
17940,note_on,,1,0,15,,,,,,,,,,,,,,,,13,,57,48
17940,note_on,,1,0,9,,,,,,,,,,,,,,,,6,,67,58
17940,note_on,,0,0,16,,,,,,,,,,,,,,,,15,,64,48
17999,note_on,,59,0,9,,,,,,,,,,,,,,,,6,,67,0
17999,note_on,,59,0,16,,,,,,,,,,,,,,,,15,,57,0
17999,note_on,,0,0,16,,,,,,,,,,,,,,,,15,,64,0
17999,note_on,,59,0,15,,,,,,,,,,,,,,,,13,,57,0
17999,note_on,,0,0,16,,,,,,,,,,,,,,,,15,,69,0
17999,note_on,,0,0,16,,,,,,,,,,,,,,,,15,,73,0
17999,note_on,,59,0,7,,,,,,,,,,,,,,,,2,,57,0
18000,note_on,,1,0,16,,,,,,,,,,,,,,,,15,,50,48
18000,note_on,,1,0,9,,,,,,,,,,,,,,,,6,,67,58
18000,note_on,,0,0,16,,,,,,,,,,,,,,,,15,,62,48
18000,note_on,,0,0,16,,,,,,,,,,,,,,,,15,,69,48
18000,note_on,,1,0,7,,,,,,,,,,,,,,,,2,,50,48
18000,note_on,,361,0,10,,,,,,,,,,,,,,,,7,,62,58
18000,note_on,,1,0,15,,,,,,,,,,,,,,,,13,,50,48
18000,note_on,,0,0,16,,,,,,,,,,,,,,,,15,,74,48
18059,note_on,,59,0,9,,,,,,,,,,,,,,,,6,,67,0
18060,note_on,,451,0,14,,,,,,,,,,,,,,,,12,,66,48
18060,note_on,,1,0,9,,,,,,,,,,,,,,,,6,,66,58
18060,note_on,,451,0,13,,,,,,,,,,,,,,,,11,,69,48
18060,note_on,,451,0,12,,,,,,,,,,,,,,,,10,,74,48
18119,note_on,,59,0,14,,,,,,,,,,,,,,,,12,,66,0
18119,note_on,,119,0,10,,,,,,,,,,,,,,,,7,,62,0
18119,note_on,,119,0,7,,,,,,,,,,,,,,,,2,,50,0
18119,note_on,,0,0,16,,,,,,,,,,,,,,,,15,,69,0
18119,note_on,,59,0,13,,,,,,,,,,,,,,,,11,,69,0
18119,note_on,,59,0,12,,,,,,,,,,,,,,,,10,,74,0
18119,note_on,,119,0,16,,,,,,,,,,,,,,,,15,,50,0
18119,note_on,,0,0,16,,,,,,,,,,,,,,,,15,,62,0
18119,note_on,,119,0,15,,,,,,,,,,,,,,,,13,,50,0
18119,note_on,,59,0,9,,,,,,,,,,,,,,,,6,,66,0
18119,note_on,,0,0,16,,,,,,,,,,,,,,,,15,,74,0
18120,note_on,,1,0,15,,,,,,,,,,,,,,,,13,,47,48
18120,note_on,,1,0,12,,,,,,,,,,,,,,,,10,,79,48
18120,note_on,,1,0,16,,,,,,,,,,,,,,,,15,,47,48
18120,note_on,,0,0,16,,,,,,,,,,,,,,,,15,,67,48
18120,note_on,,0,0,16,,,,,,,,,,,,,,,,15,,62,48
18120,note_on,,1,0,13,,,,,,,,,,,,,,,,11,,74,48
18120,note_on,,1,0,7,,,,,,,,,,,,,,,,2,,47,48
18120,note_on,,1,0,10,,,,,,,,,,,,,,,,7,,55,58
18120,note_on,,1,0,14,,,,,,,,,,,,,,,,12,,71,48
18179,note_on,,59,0,15,,,,,,,,,,,,,,,,13,,47,0
18179,note_on,,59,0,7,,,,,,,,,,,,,,,,2,,47,0
18179,note_on,,0,0,16,,,,,,,,,,,,,,,,15,,62,0
18179,note_on,,59,0,16,,,,,,,,,,,,,,,,15,,47,0
18179,note_on,,59,0,10,,,,,,,,,,,,,,,,7,,55,0
18179,note_on,,0,0,16,,,,,,,,,,,,,,,,15,,67,0
18180,note_on,,1,0,16,,,,,,,,,,,,,,,,15,,43,48
18180,note_on,,1,0,15,,,,,,,,,,,,,,,,13,,43,48
18180,note_on,,0,0,16,,,,,,,,,,,,,,,,15,,71,48
18180,note_on,,0,0,16,,,,,,,,,,,,,,,,15,,67,48
18180,note_on,,1,0,10,,,,,,,,,,,,,,,,7,,55,58
18180,note_on,,0,0,16,,,,,,,,,,,,,,,,15,,62,48
18180,note_on,,1,0,7,,,,,,,,,,,,,,,,2,,43,48
18239,note_on,,59,0,15,,,,,,,,,,,,,,,,13,,43,0
18239,note_on,,59,0,16,,,,,,,,,,,,,,,,15,,43,0
18239,note_on,,59,0,10,,,,,,,,,,,,,,,,7,,55,0
18239,note_on,,0,0,16,,,,,,,,,,,,,,,,15,,71,0
18239,note_on,,119,0,14,,,,,,,,,,,,,,,,12,,71,0
18239,note_on,,0,0,16,,,,,,,,,,,,,,,,15,,62,0
18239,note_on,,119,0,13,,,,,,,,,,,,,,,,11,,74,0
18239,note_on,,119,0,12,,,,,,,,,,,,,,,,10,,79,0
18239,note_on,,59,0,7,,,,,,,,,,,,,,,,2,,43,0
18239,note_on,,0,0,16,,,,,,,,,,,,,,,,15,,67,0
18240,note_on,,1,0,10,,,,,,,,,,,,,,,,7,,60,58
18240,note_on,,1,0,16,,,,,,,,,,,,,,,,15,,45,48
18240,note_on,,0,0,16,,,,,,,,,,,,,,,,15,,72,48
18240,note_on,,1,0,7,,,,,,,,,,,,,,,,2,,45,48
18240,note_on,,0,0,16,,,,,,,,,,,,,,,,15,,67,48
18240,note_on,,1,0,15,,,,,,,,,,,,,,,,13,,45,48
18240,note_on,,0,0,16,,,,,,,,,,,,,,,,15,,60,48
18299,note_on,,59,0,16,,,,,,,,,,,,,,,,15,,45,0
18299,note_on,,59,0,7,,,,,,,,,,,,,,,,2,,45,0
18299,note_on,,59,0,10,,,,,,,,,,,,,,,,7,,60,0
18299,note_on,,59,0,15,,,,,,,,,,,,,,,,13,,45,0
18300,note_on,,1,0,16,,,,,,,,,,,,,,,,15,,55,48
18300,note_on,,1,0,7,,,,,,,,,,,,,,,,2,,55,48
18300,note_on,,1,0,15,,,,,,,,,,,,,,,,13,,55,48
18300,note_on,,61,0,12,,,,,,,,,,,,,,,,10,,76,48
18300,note_on,,61,0,13,,,,,,,,,,,,,,,,11,,72,48
18300,note_on,,1,0,10,,,,,,,,,,,,,,,,7,,60,58
18300,note_on,,61,0,14,,,,,,,,,,,,,,,,12,,69,48
18359,note_on,,59,0,15,,,,,,,,,,,,,,,,13,,55,0
18359,note_on,,59,0,14,,,,,,,,,,,,,,,,12,,69,0
18359,note_on,,0,0,16,,,,,,,,,,,,,,,,15,,55,0
18359,note_on,,59,0,7,,,,,,,,,,,,,,,,2,,55,0
18359,note_on,,59,0,10,,,,,,,,,,,,,,,,7,,60,0
18359,note_on,,59,0,12,,,,,,,,,,,,,,,,10,,76,0
18359,note_on,,59,0,13,,,,,,,,,,,,,,,,11,,72,0
18359,note_on,,59,0,16,,,,,,,,,,,,,,,,15,,72,0
18359,note_on,,0,0,16,,,,,,,,,,,,,,,,15,,67,0
18359,note_on,,0,0,16,,,,,,,,,,,,,,,,15,,60,0
18360,note_on,,0,0,16,,,,,,,,,,,,,,,,15,,69,48
18360,note_on,,1,0,15,,,,,,,,,,,,,,,,13,,54,48
18360,note_on,,0,0,16,,,,,,,,,,,,,,,,15,,74,48
18360,note_on,,0,0,16,,,,,,,,,,,,,,,,15,,57,48
18360,note_on,,1,0,16,,,,,,,,,,,,,,,,15,,54,48
18360,note_on,,1,0,12,,,,,,,,,,,,,,,,10,,81,48
18360,note_on,,1,0,7,,,,,,,,,,,,,,,,2,,54,48
18360,note_on,,1,0,14,,,,,,,,,,,,,,,,12,,62,48
18360,note_on,,1,0,13,,,,,,,,,,,,,,,,11,,72,48
18360,note_on,,1,0,10,,,,,,,,,,,,,,,,7,,60,58
18419,note_on,,0,0,16,,,,,,,,,,,,,,,,15,,74,0
18419,note_on,,59,0,16,,,,,,,,,,,,,,,,15,,54,0
18419,note_on,,0,0,16,,,,,,,,,,,,,,,,15,,57,0
18419,note_on,,59,0,10,,,,,,,,,,,,,,,,7,,60,0
18419,note_on,,59,0,12,,,,,,,,,,,,,,,,10,,81,0
18419,note_on,,59,0,15,,,,,,,,,,,,,,,,13,,54,0
18419,note_on,,59,0,13,,,,,,,,,,,,,,,,11,,72,0
18419,note_on,,59,0,14,,,,,,,,,,,,,,,,12,,62,0
18419,note_on,,59,0,7,,,,,,,,,,,,,,,,2,,54,0
18419,note_on,,0,0,16,,,,,,,,,,,,,,,,15,,69,0
18420,note_on,,1,0,12,,,,,,,,,,,,,,,,10,,74,48
18420,note_on,,1,0,13,,,,,,,,,,,,,,,,11,,69,48
18420,note_on,,0,0,16,,,,,,,,,,,,,,,,15,,66,48
18420,note_on,,1,0,14,,,,,,,,,,,,,,,,12,,66,48
18420,note_on,,1,0,10,,,,,,,,,,,,,,,,7,,60,58
18420,note_on,,1,0,15,,,,,,,,,,,,,,,,13,,50,48
18420,note_on,,1,0,16,,,,,,,,,,,,,,,,15,,50,48
18420,note_on,,0,0,16,,,,,,,,,,,,,,,,15,,69,48
18420,note_on,,1,0,7,,,,,,,,,,,,,,,,2,,50,48
18479,note_on,,59,0,16,,,,,,,,,,,,,,,,15,,50,0
18479,note_on,,59,0,12,,,,,,,,,,,,,,,,10,,74,0
18479,note_on,,59,0,14,,,,,,,,,,,,,,,,12,,66,0
18479,note_on,,0,0,16,,,,,,,,,,,,,,,,15,,66,0
18479,note_on,,0,0,16,,,,,,,,,,,,,,,,15,,69,0
18479,note_on,,59,0,10,,,,,,,,,,,,,,,,7,,60,0
18479,note_on,,59,0,13,,,,,,,,,,,,,,,,11,,69,0
18479,note_on,,59,0,15,,,,,,,,,,,,,,,,13,,50,0
18479,note_on,,59,0,7,,,,,,,,,,,,,,,,2,,50,0
18480,note_on,,1,0,16,,,,,,,,,,,,,,,,15,,55,48
18480,note_on,,1,0,12,,,,,,,,,,,,,,,,10,,74,48
18480,note_on,,0,0,16,,,,,,,,,,,,,,,,15,,62,48
18480,note_on,,1,0,14,,,,,,,,,,,,,,,,12,,67,48
18480,note_on,,1,0,15,,,,,,,,,,,,,,,,13,,55,48
18480,note_on,,0,0,16,,,,,,,,,,,,,,,,15,,71,48
18480,note_on,,1,0,7,,,,,,,,,,,,,,,,2,,55,48
18480,note_on,,0,0,16,,,,,,,,,,,,,,,,15,,67,48
18480,note_on,,1,0,13,,,,,,,,,,,,,,,,11,,71,48
18480,note_on,,1,0,10,,,,,,,,,,,,,,,,7,,59,58
18509,note_on,,29,0,10,,,,,,,,,,,,,,,,7,,59,0
18510,note_on,,1,0,10,,,,,,,,,,,,,,,,7,,57,58
18539,note_on,,29,0,10,,,,,,,,,,,,,,,,7,,57,0
18540,note_on,,1,0,10,,,,,,,,,,,,,,,,7,,59,58
18569,note_on,,29,0,10,,,,,,,,,,,,,,,,7,,59,0
18570,note_on,,1,0,10,,,,,,,,,,,,,,,,7,,60,58
18599,note_on,,0,0,16,,,,,,,,,,,,,,,,15,,62,0
18599,note_on,,0,0,16,,,,,,,,,,,,,,,,15,,71,0
18599,note_on,,119,0,7,,,,,,,,,,,,,,,,2,,55,0
18599,note_on,,119,0,14,,,,,,,,,,,,,,,,12,,67,0
18599,note_on,,119,0,16,,,,,,,,,,,,,,,,15,,55,0
18599,note_on,,119,0,13,,,,,,,,,,,,,,,,11,,71,0
18599,note_on,,29,0,10,,,,,,,,,,,,,,,,7,,60,0
18599,note_on,,119,0,12,,,,,,,,,,,,,,,,10,,74,0
18599,note_on,,119,0,15,,,,,,,,,,,,,,,,13,,55,0
18599,note_on,,0,0,16,,,,,,,,,,,,,,,,15,,67,0
18600,note_on,,1,0,12,,,,,,,,,,,,,,,,10,,79,48
18600,note_on,,0,0,16,,,,,,,,,,,,,,,,15,,67,48
18600,note_on,,1,0,10,,,,,,,,,,,,,,,,7,,59,58
18600,note_on,,1,0,7,,,,,,,,,,,,,,,,2,,43,48
18600,note_on,,0,0,16,,,,,,,,,,,,,,,,15,,71,48
18600,note_on,,0,0,16,,,,,,,,,,,,,,,,15,,74,48
18600,note_on,,0,0,16,,,,,,,,,,,,,,,,15,,55,48
18600,note_on,,481,0,9,,,,,,,,,,,,,,,,6,,67,58
18600,note_on,,1,0,13,,,,,,,,,,,,,,,,11,,71,48
18600,note_on,,1,0,14,,,,,,,,,,,,,,,,12,,62,48
18600,note_on,,1,0,15,,,,,,,,,,,,,,,,13,,43,48
18600,note_on,,1,0,16,,,,,,,,,,,,,,,,15,,43,48
18629,note_on,,29,0,10,,,,,,,,,,,,,,,,7,,59,0
18630,note_on,,1,0,10,,,,,,,,,,,,,,,,7,,60,58
18659,note_on,,59,0,9,,,,,,,,,,,,,,,,6,,67,0
18659,note_on,,29,0,10,,,,,,,,,,,,,,,,7,,60,0
18660,note_on,,1,0,9,,,,,,,,,,,,,,,,6,,66,58
18660,note_on,,1,0,10,,,,,,,,,,,,,,,,7,,57,58
18689,note_on,,29,0,10,,,,,,,,,,,,,,,,7,,57,0
18690,note_on,,1,0,10,,,,,,,,,,,,,,,,7,,59,58
18719,note_on,,119,0,12,,,,,,,,,,,,,,,,10,,79,0
18719,note_on,,59,0,9,,,,,,,,,,,,,,,,6,,66,0
18719,note_on,,0,0,16,,,,,,,,,,,,,,,,15,,71,0
18719,note_on,,119,0,15,,,,,,,,,,,,,,,,13,,43,0
18719,note_on,,0,0,16,,,,,,,,,,,,,,,,15,,67,0
18719,note_on,,0,0,16,,,,,,,,,,,,,,,,15,,55,0
18719,note_on,,119,0,14,,,,,,,,,,,,,,,,12,,62,0
18719,note_on,,29,0,10,,,,,,,,,,,,,,,,7,,59,0
18719,note_on,,119,0,7,,,,,,,,,,,,,,,,2,,43,0
18719,note_on,,119,0,13,,,,,,,,,,,,,,,,11,,71,0
18719,note_on,,0,0,16,,,,,,,,,,,,,,,,15,,74,0
18719,note_on,,119,0,16,,,,,,,,,,,,,,,,15,,43,0
18720,note_on,,1,0,9,,,,,,,,,,,,,,,,6,,64,58
18720,note_on,,1,0,7,,,,,,,,,,,,,,,,2,,48,48
18720,note_on,,1,0,15,,,,,,,,,,,,,,,,13,,48,48
18720,note_on,,0,0,16,,,,,,,,,,,,,,,,15,,72,48
18720,note_on,,1,0,16,,,,,,,,,,,,,,,,15,,55,48
18720,note_on,,0,0,16,,,,,,,,,,,,,,,,15,,48,48
18720,note_on,,1,0,10,,,,,,,,,,,,,,,,7,,55,58
18720,note_on,,0,0,16,,,,,,,,,,,,,,,,15,,64,48
18720,note_on,,0,0,16,,,,,,,,,,,,,,,,15,,76,48
18749,note_on,,29,0,10,,,,,,,,,,,,,,,,7,,55,0
18750,note_on,,1,0,10,,,,,,,,,,,,,,,,7,,54,58
18779,note_on,,29,0,10,,,,,,,,,,,,,,,,7,,54,0
18780,note_on,,1,0,10,,,,,,,,,,,,,,,,7,,55,58
18809,note_on,,29,0,10,,,,,,,,,,,,,,,,7,,55,0
18810,note_on,,1,0,10,,,,,,,,,,,,,,,,7,,57,58
18839,note_on,,0,0,16,,,,,,,,,,,,,,,,15,,48,0
18839,note_on,,119,0,16,,,,,,,,,,,,,,,,15,,55,0
18839,note_on,,29,0,10,,,,,,,,,,,,,,,,7,,57,0
18839,note_on,,0,0,16,,,,,,,,,,,,,,,,15,,64,0
18839,note_on,,0,0,16,,,,,,,,,,,,,,,,15,,72,0
18839,note_on,,0,0,16,,,,,,,,,,,,,,,,15,,76,0
18839,note_on,,119,0,7,,,,,,,,,,,,,,,,2,,48,0
18839,note_on,,119,0,15,,,,,,,,,,,,,,,,13,,48,0
18839,note_on,,119,0,9,,,,,,,,,,,,,,,,6,,64,0
18840,note_on,,121,0,12,,,,,,,,,,,,,,,,10,,76,48
18840,note_on,,1,0,10,,,,,,,,,,,,,,,,7,,55,58
18840,note_on,,121,0,13,,,,,,,,,,,,,,,,11,,67,48
18840,note_on,,121,0,14,,,,,,,,,,,,,,,,12,,60,48
18869,note_on,,29,0,10,,,,,,,,,,,,,,,,7,,55,0
18870,note_on,,1,0,10,,,,,,,,,,,,,,,,7,,59,58
18899,note_on,,29,0,10,,,,,,,,,,,,,,,,7,,59,0
18900,note_on,,1,0,10,,,,,,,,,,,,,,,,7,,57,58
18929,note_on,,29,0,10,,,,,,,,,,,,,,,,7,,57,0
18930,note_on,,1,0,10,,,,,,,,,,,,,,,,7,,59,58
18959,note_on,,119,0,14,,,,,,,,,,,,,,,,12,,60,0
18959,note_on,,119,0,13,,,,,,,,,,,,,,,,11,,67,0
18959,note_on,,29,0,10,,,,,,,,,,,,,,,,7,,59,0
18959,note_on,,119,0,12,,,,,,,,,,,,,,,,10,,76,0
18960,note_on,,1,0,10,,,,,,,,,,,,,,,,7,,60,58
18960,note_on,,0,0,16,,,,,,,,,,,,,,,,15,,69,48
18960,note_on,,0,0,16,,,,,,,,,,,,,,,,15,,64,48
18960,note_on,,0,0,16,,,,,,,,,,,,,,,,15,,72,48
18960,note_on,,0,0,16,,,,,,,,,,,,,,,,15,,76,48
18960,note_on,,121,0,16,,,,,,,,,,,,,,,,15,,45,48
18960,note_on,,121,0,15,,,,,,,,,,,,,,,,13,,45,48
18960,note_on,,121,0,7,,,,,,,,,,,,,,,,2,,45,48
18960,note_on,,0,0,16,,,,,,,,,,,,,,,,15,,57,48
18989,note_on,,29,0,10,,,,,,,,,,,,,,,,7,,60,0
18990,note_on,,1,0,10,,,,,,,,,,,,,,,,7,,59,58
19019,note_on,,29,0,10,,,,,,,,,,,,,,,,7,,59,0
19020,note_on,,1,0,10,,,,,,,,,,,,,,,,7,,60,58
19020,note_on,,181,0,9,,,,,,,,,,,,,,,,6,,64,58
19049,note_on,,29,0,10,,,,,,,,,,,,,,,,7,,60,0
19050,note_on,,1,0,10,,,,,,,,,,,,,,,,7,,62,58
19079,note_on,,59,0,9,,,,,,,,,,,,,,,,6,,64,0
19079,note_on,,0,0,16,,,,,,,,,,,,,,,,15,,64,0
19079,note_on,,0,0,16,,,,,,,,,,,,,,,,15,,57,0
19079,note_on,,0,0,16,,,,,,,,,,,,,,,,15,,69,0
19079,note_on,,119,0,7,,,,,,,,,,,,,,,,2,,45,0
19079,note_on,,0,0,16,,,,,,,,,,,,,,,,15,,72,0
19079,note_on,,29,0,10,,,,,,,,,,,,,,,,7,,62,0
19079,note_on,,0,0,16,,,,,,,,,,,,,,,,15,,76,0
19079,note_on,,119,0,16,,,,,,,,,,,,,,,,15,,45,0
19079,note_on,,119,0,15,,,,,,,,,,,,,,,,13,,45,0
19080,note_on,,121,0,12,,,,,,,,,,,,,,,,10,,81,48
19080,note_on,,1,0,10,,,,,,,,,,,,,,,,7,,60,58
19080,note_on,,1,0,9,,,,,,,,,,,,,,,,6,,69,58
19080,note_on,,121,0,13,,,,,,,,,,,,,,,,11,,72,48
19080,note_on,,121,0,14,,,,,,,,,,,,,,,,12,,64,48
19109,note_on,,29,0,10,,,,,,,,,,,,,,,,7,,60,0
19110,note_on,,1,0,10,,,,,,,,,,,,,,,,7,,62,58
19139,note_on,,59,0,9,,,,,,,,,,,,,,,,6,,69,0
19139,note_on,,29,0,10,,,,,,,,,,,,,,,,7,,62,0
19140,note_on,,1,0,10,,,,,,,,,,,,,,,,7,,59,58
19140,note_on,,1,0,9,,,,,,,,,,,,,,,,6,,67,58
19169,note_on,,29,0,10,,,,,,,,,,,,,,,,7,,59,0
19170,note_on,,1,0,10,,,,,,,,,,,,,,,,7,,60,58
19199,note_on,,29,0,10,,,,,,,,,,,,,,,,7,,60,0
19199,note_on,,119,0,12,,,,,,,,,,,,,,,,10,,81,0
19199,note_on,,119,0,14,,,,,,,,,,,,,,,,12,,64,0
19199,note_on,,59,0,9,,,,,,,,,,,,,,,,6,,67,0
19199,note_on,,119,0,13,,,,,,,,,,,,,,,,11,,72,0
19200,note_on,,0,0,16,,,,,,,,,,,,,,,,15,,69,48
19200,note_on,,121,0,16,,,,,,,,,,,,,,,,15,,50,48
19200,note_on,,1,0,12,,,,,,,,,,,,,,,,10,,69,48
19200,note_on,,1,0,9,,,,,,,,,,,,,,,,6,,66,58
19200,note_on,,121,0,15,,,,,,,,,,,,,,,,13,,50,48
19200,note_on,,0,0,16,,,,,,,,,,,,,,,,15,,62,48
19200,note_on,,1,0,13,,,,,,,,,,,,,,,,11,,66,48
19200,note_on,,1,0,14,,,,,,,,,,,,,,,,12,,62,48
19200,note_on,,0,0,16,,,,,,,,,,,,,,,,15,,57,48
19200,note_on,,0,0,16,,,,,,,,,,,,,,,,15,,66,48
19200,note_on,,1,0,10,,,,,,,,,,,,,,,,7,,57,58
19200,note_on,,121,0,7,,,,,,,,,,,,,,,,2,,50,48
19259,note_on,,59,0,9,,,,,,,,,,,,,,,,6,,66,0
19260,note_on,,1,0,9,,,,,,,,,,,,,,,,6,,66,58
19319,note_on,,119,0,16,,,,,,,,,,,,,,,,15,,50,0
19319,note_on,,119,0,13,,,,,,,,,,,,,,,,11,,66,0
19319,note_on,,119,0,15,,,,,,,,,,,,,,,,13,,50,0
19319,note_on,,119,0,10,,,,,,,,,,,,,,,,7,,57,0
19319,note_on,,119,0,7,,,,,,,,,,,,,,,,2,,50,0
19319,note_on,,119,0,14,,,,,,,,,,,,,,,,12,,62,0
19319,note_on,,119,0,12,,,,,,,,,,,,,,,,10,,69,0
19319,note_on,,0,0,16,,,,,,,,,,,,,,,,15,,69,0
19319,note_on,,0,0,16,,,,,,,,,,,,,,,,15,,66,0
19319,note_on,,0,0,16,,,,,,,,,,,,,,,,15,,62,0
19319,note_on,,0,0,16,,,,,,,,,,,,,,,,15,,57,0
19319,note_on,,59,0,9,,,,,,,,,,,,,,,,6,,66,0
19320,note_on,,0,0,16,,,,,,,,,,,,,,,,15,,55,48
19320,note_on,,1681,0,6,,,,,,,,,,,,,,,,1,,74,47
19320,note_on,,1,0,15,,,,,,,,,,,,,,,,13,,47,48
19320,note_on,,1,0,16,,,,,,,,,,,,,,,,15,,47,48
19320,note_on,,1,0,7,,,,,,,,,,,,,,,,2,,47,48
19320,note_on,,0,0,16,,,,,,,,,,,,,,,,15,,62,48
19320,note_on,,1681,0,5,,,,,,,,,,,,,,,,0,,74,47
19320,note_on,,0,0,16,,,,,,,,,,,,,,,,15,,59,48
19320,note_on,,1681,0,8,,,,,,,,,,,,,,,,5,,74,58
19379,note_on,,59,0,8,,,,,,,,,,,,,,,,5,,74,0
19379,note_on,,59,0,5,,,,,,,,,,,,,,,,0,,74,0
19379,note_on,,59,0,6,,,,,,,,,,,,,,,,1,,74,0
19380,note_on,,1,0,6,,,,,,,,,,,,,,,,1,,71,47
19380,note_on,,1,0,5,,,,,,,,,,,,,,,,0,,71,47
19380,note_on,,1,0,8,,,,,,,,,,,,,,,,5,,71,58
19439,note_on,,59,0,5,,,,,,,,,,,,,,,,0,,71,0
19439,note_on,,59,0,8,,,,,,,,,,,,,,,,5,,71,0
19439,note_on,,119,0,7,,,,,,,,,,,,,,,,2,,47,0
19439,note_on,,59,0,6,,,,,,,,,,,,,,,,1,,71,0
19439,note_on,,119,0,16,,,,,,,,,,,,,,,,15,,47,0
19439,note_on,,0,0,16,,,,,,,,,,,,,,,,15,,62,0
19439,note_on,,0,0,16,,,,,,,,,,,,,,,,15,,59,0
19439,note_on,,0,0,16,,,,,,,,,,,,,,,,15,,55,0
19439,note_on,,119,0,15,,,,,,,,,,,,,,,,13,,47,0
19440,note_on,,0,0,16,,,,,,,,,,,,,,,,15,,55,48
19440,note_on,,1,0,7,,,,,,,,,,,,,,,,2,,52,48
19440,note_on,,0,0,16,,,,,,,,,,,,,,,,15,,67,48
19440,note_on,,1,0,16,,,,,,,,,,,,,,,,15,,52,48
19440,note_on,,1,0,6,,,,,,,,,,,,,,,,1,,67,47
19440,note_on,,0,0,16,,,,,,,,,,,,,,,,15,,60,48
19440,note_on,,1,0,15,,,,,,,,,,,,,,,,13,,52,48
19440,note_on,,1,0,5,,,,,,,,,,,,,,,,0,,67,47
19440,note_on,,1,0,8,,,,,,,,,,,,,,,,5,,67,58
19499,note_on,,59,0,8,,,,,,,,,,,,,,,,5,,67,0
19499,note_on,,59,0,7,,,,,,,,,,,,,,,,2,,52,0
19499,note_on,,59,0,16,,,,,,,,,,,,,,,,15,,52,0
19499,note_on,,59,0,6,,,,,,,,,,,,,,,,1,,67,0
19499,note_on,,59,0,15,,,,,,,,,,,,,,,,13,,52,0
19499,note_on,,59,0,5,,,,,,,,,,,,,,,,0,,67,0
19500,note_on,,1,0,7,,,,,,,,,,,,,,,,2,,48,48
19500,note_on,,1,0,16,,,,,,,,,,,,,,,,15,,48,48
19500,note_on,,1,0,15,,,,,,,,,,,,,,,,13,,48,48
19500,note_on,,1,0,6,,,,,,,,,,,,,,,,1,,76,47
19500,note_on,,1,0,5,,,,,,,,,,,,,,,,0,,76,47
19500,note_on,,1,0,8,,,,,,,,,,,,,,,,5,,76,58
19559,note_on,,59,0,8,,,,,,,,,,,,,,,,5,,76,0
19559,note_on,,59,0,7,,,,,,,,,,,,,,,,2,,48,0
19559,note_on,,59,0,6,,,,,,,,,,,,,,,,1,,76,0
19559,note_on,,0,0,16,,,,,,,,,,,,,,,,15,,48,0
19559,note_on,,0,0,16,,,,,,,,,,,,,,,,15,,55,0
19559,note_on,,0,0,16,,,,,,,,,,,,,,,,15,,60,0
19559,note_on,,59,0,15,,,,,,,,,,,,,,,,13,,48,0
19559,note_on,,59,0,5,,,,,,,,,,,,,,,,0,,76,0
19559,note_on,,59,0,16,,,,,,,,,,,,,,,,15,,67,0
19560,note_on,,1,0,16,,,,,,,,,,,,,,,,15,,45,48
19560,note_on,,1,0,5,,,,,,,,,,,,,,,,0,,72,47
19560,note_on,,1,0,15,,,,,,,,,,,,,,,,13,,45,48
19560,note_on,,0,0,16,,,,,,,,,,,,,,,,15,,72,48
19560,note_on,,0,0,16,,,,,,,,,,,,,,,,15,,69,48
19560,note_on,,0,0,16,,,,,,,,,,,,,,,,15,,64,48
19560,note_on,,1,0,7,,,,,,,,,,,,,,,,2,,45,48
19560,note_on,,1,0,6,,,,,,,,,,,,,,,,1,,72,47
19560,note_on,,1,0,8,,,,,,,,,,,,,,,,5,,72,58
19619,note_on,,59,0,7,,,,,,,,,,,,,,,,2,,45,0
19619,note_on,,59,0,5,,,,,,,,,,,,,,,,0,,72,0
19619,note_on,,59,0,6,,,,,,,,,,,,,,,,1,,72,0
19619,note_on,,59,0,16,,,,,,,,,,,,,,,,15,,45,0
19619,note_on,,59,0,8,,,,,,,,,,,,,,,,5,,72,0
19619,note_on,,59,0,15,,,,,,,,,,,,,,,,13,,45,0
19620,note_on,,1,0,8,,,,,,,,,,,,,,,,5,,69,58
19620,note_on,,1,0,5,,,,,,,,,,,,,,,,0,,69,47
19620,note_on,,1,0,15,,,,,,,,,,,,,,,,13,,48,48
19620,note_on,,1,0,16,,,,,,,,,,,,,,,,15,,48,48
19620,note_on,,1,0,6,,,,,,,,,,,,,,,,1,,69,47
19620,note_on,,1,0,7,,,,,,,,,,,,,,,,2,,48,48
19679,note_on,,59,0,6,,,,,,,,,,,,,,,,1,,69,0
19679,note_on,,59,0,5,,,,,,,,,,,,,,,,0,,69,0
19679,note_on,,59,0,7,,,,,,,,,,,,,,,,2,,48,0
19679,note_on,,59,0,16,,,,,,,,,,,,,,,,15,,72,0
19679,note_on,,59,0,8,,,,,,,,,,,,,,,,5,,69,0
19679,note_on,,0,0,16,,,,,,,,,,,,,,,,15,,48,0
19679,note_on,,0,0,16,,,,,,,,,,,,,,,,15,,69,0
19679,note_on,,59,0,15,,,,,,,,,,,,,,,,13,,48,0
19679,note_on,,0,0,16,,,,,,,,,,,,,,,,15,,64,0
19680,note_on,,1,0,16,,,,,,,,,,,,,,,,15,,69,48
19680,note_on,,1,0,7,,,,,,,,,,,,,,,,2,,50,48
19680,note_on,,1,0,8,,,,,,,,,,,,,,,,5,,66,58
19680,note_on,,1,0,5,,,,,,,,,,,,,,,,0,,66,47
19680,note_on,,1,0,6,,,,,,,,,,,,,,,,1,,66,47
19680,note_on,,0,0,16,,,,,,,,,,,,,,,,15,,50,48
19680,note_on,,0,0,16,,,,,,,,,,,,,,,,15,,62,48
19680,note_on,,1,0,15,,,,,,,,,,,,,,,,13,,50,48
19680,note_on,,0,0,16,,,,,,,,,,,,,,,,15,,66,48
19799,note_on,,119,0,6,,,,,,,,,,,,,,,,1,,66,0
19799,note_on,,119,0,5,,,,,,,,,,,,,,,,0,,66,0
19799,note_on,,119,0,15,,,,,,,,,,,,,,,,13,,50,0
19799,note_on,,119,0,7,,,,,,,,,,,,,,,,2,,50,0
19799,note_on,,0,0,16,,,,,,,,,,,,,,,,15,,66,0
19799,note_on,,119,0,8,,,,,,,,,,,,,,,,5,,66,0
19799,note_on,,0,0,16,,,,,,,,,,,,,,,,15,,62,0
19799,note_on,,119,0,16,,,,,,,,,,,,,,,,15,,69,0
19799,note_on,,0,0,16,,,,,,,,,,,,,,,,15,,50,0
19800,note_on,,1,0,16,,,,,,,,,,,,,,,,15,,43,48
19800,note_on,,0,0,16,,,,,,,,,,,,,,,,15,,67,48
19800,note_on,,0,0,16,,,,,,,,,,,,,,,,15,,62,48
19800,note_on,,0,0,16,,,,,,,,,,,,,,,,15,,59,48
19800,note_on,,1,0,7,,,,,,,,,,,,,,,,2,,43,48
19800,note_on,,2161,0,11,,,,,,,,,,,,,,,,8,,59,58
19800,note_on,,1,0,15,,,,,,,,,,,,,,,,13,,43,48
19859,note_on,,59,0,11,,,,,,,,,,,,,,,,8,,59,0
19860,note_on,,1,0,11,,,,,,,,,,,,,,,,8,,55,58
19919,note_on,,0,0,16,,,,,,,,,,,,,,,,15,,62,0
19919,note_on,,0,0,16,,,,,,,,,,,,,,,,15,,67,0
19919,note_on,,119,0,16,,,,,,,,,,,,,,,,15,,43,0
19919,note_on,,0,0,16,,,,,,,,,,,,,,,,15,,59,0
19919,note_on,,119,0,15,,,,,,,,,,,,,,,,13,,43,0
19919,note_on,,119,0,7,,,,,,,,,,,,,,,,2,,43,0
19919,note_on,,59,0,11,,,,,,,,,,,,,,,,8,,55,0
19920,note_on,,1,0,15,,,,,,,,,,,,,,,,13,,48,48
19920,note_on,,1,0,11,,,,,,,,,,,,,,,,8,,52,58
19920,note_on,,1,0,7,,,,,,,,,,,,,,,,2,,48,48
19920,note_on,,0,0,16,,,,,,,,,,,,,,,,15,,60,48
19920,note_on,,0,0,16,,,,,,,,,,,,,,,,15,,64,48
19920,note_on,,1,0,16,,,,,,,,,,,,,,,,15,,48,48
19920,note_on,,0,0,16,,,,,,,,,,,,,,,,15,,52,48
19979,note_on,,59,0,11,,,,,,,,,,,,,,,,8,,52,0
19980,note_on,,1,0,11,,,,,,,,,,,,,,,,8,,60,58
20039,note_on,,59,0,11,,,,,,,,,,,,,,,,8,,60,0
20040,note_on,,1,0,11,,,,,,,,,,,,,,,,8,,57,58
20099,note_on,,0,0,16,,,,,,,,,,,,,,,,15,,60,0
20099,note_on,,0,0,16,,,,,,,,,,,,,,,,15,,52,0
20099,note_on,,179,0,7,,,,,,,,,,,,,,,,2,,48,0
20099,note_on,,179,0,16,,,,,,,,,,,,,,,,15,,48,0
20099,note_on,,0,0,16,,,,,,,,,,,,,,,,15,,64,0
20099,note_on,,179,0,15,,,,,,,,,,,,,,,,13,,48,0
20099,note_on,,59,0,11,,,,,,,,,,,,,,,,8,,57,0
20100,note_on,,1,0,7,,,,,,,,,,,,,,,,2,,45,48
20100,note_on,,1,0,16,,,,,,,,,,,,,,,,15,,45,48
20100,note_on,,1,0,15,,,,,,,,,,,,,,,,13,,45,48
20100,note_on,,1,0,11,,,,,,,,,,,,,,,,8,,54,58
20100,note_on,,0,0,16,,,,,,,,,,,,,,,,15,,66,48
20100,note_on,,0,0,16,,,,,,,,,,,,,,,,15,,60,48
20100,note_on,,0,0,16,,,,,,,,,,,,,,,,15,,69,48
20159,note_on,,59,0,7,,,,,,,,,,,,,,,,2,,45,0
20159,note_on,,59,0,15,,,,,,,,,,,,,,,,13,,45,0
20159,note_on,,59,0,16,,,,,,,,,,,,,,,,15,,45,0
20159,note_on,,0,0,16,,,,,,,,,,,,,,,,15,,60,0
20159,note_on,,0,0,16,,,,,,,,,,,,,,,,15,,66,0
20159,note_on,,0,0,16,,,,,,,,,,,,,,,,15,,69,0
20159,note_on,,59,0,11,,,,,,,,,,,,,,,,8,,54,0
20160,note_on,,0,0,16,,,,,,,,,,,,,,,,15,,62,48
20160,note_on,,1,0,15,,,,,,,,,,,,,,,,13,,47,48
20160,note_on,,0,0,16,,,,,,,,,,,,,,,,15,,55,48
20160,note_on,,1,0,7,,,,,,,,,,,,,,,,2,,47,48
20160,note_on,,1,0,11,,,,,,,,,,,,,,,,8,,50,58
20160,note_on,,0,0,16,,,,,,,,,,,,,,,,15,,59,48
20160,note_on,,1,0,16,,,,,,,,,,,,,,,,15,,47,48
20219,note_on,,59,0,15,,,,,,,,,,,,,,,,13,,47,0
20219,note_on,,59,0,16,,,,,,,,,,,,,,,,15,,47,0
20219,note_on,,59,0,7,,,,,,,,,,,,,,,,2,,47,0
20219,note_on,,59,0,11,,,,,,,,,,,,,,,,8,,50,0
20220,note_on,,1,0,16,,,,,,,,,,,,,,,,15,,43,48
20220,note_on,,1,0,15,,,,,,,,,,,,,,,,13,,43,48
20220,note_on,,1,0,11,,,,,,,,,,,,,,,,8,,50,58
20220,note_on,,1,0,7,,,,,,,,,,,,,,,,2,,43,48
20279,note_on,,0,0,16,,,,,,,,,,,,,,,,15,,43,0
20279,note_on,,0,0,16,,,,,,,,,,,,,,,,15,,55,0
20279,note_on,,0,0,16,,,,,,,,,,,,,,,,15,,59,0
20279,note_on,,59,0,16,,,,,,,,,,,,,,,,15,,62,0
20279,note_on,,59,0,11,,,,,,,,,,,,,,,,8,,50,0
20279,note_on,,59,0,7,,,,,,,,,,,,,,,,2,,43,0
20279,note_on,,59,0,15,,,,,,,,,,,,,,,,13,,43,0
20280,note_on,,0,0,16,,,,,,,,,,,,,,,,15,,62,48
20280,note_on,,1,0,16,,,,,,,,,,,,,,,,15,,50,48
20280,note_on,,0,0,16,,,,,,,,,,,,,,,,15,,66,48
20280,note_on,,0,0,16,,,,,,,,,,,,,,,,15,,57,48
20280,note_on,,961,0,9,,,,,,,,,,,,,,,,6,,62,58
20280,note_on,,1,0,7,,,,,,,,,,,,,,,,2,,50,48
20280,note_on,,1,0,15,,,,,,,,,,,,,,,,13,,50,48
20369,note_on,,89,0,9,,,,,,,,,,,,,,,,6,,62,0
20370,note_on,,1,0,9,,,,,,,,,,,,,,,,6,,66,58
20399,note_on,,29,0,9,,,,,,,,,,,,,,,,6,,66,0
20399,note_on,,0,0,16,,,,,,,,,,,,,,,,15,,62,0
20399,note_on,,0,0,16,,,,,,,,,,,,,,,,15,,57,0
20399,note_on,,119,0,16,,,,,,,,,,,,,,,,15,,66,0
20400,note_on,,0,0,16,,,,,,,,,,,,,,,,15,,64,48
20400,note_on,,0,0,16,,,,,,,,,,,,,,,,15,,59,48
20400,note_on,,1,0,9,,,,,,,,,,,,,,,,6,,64,58
20400,note_on,,1,0,16,,,,,,,,,,,,,,,,15,,67,48
20489,note_on,,89,0,9,,,,,,,,,,,,,,,,6,,64,0
20490,note_on,,1,0,9,,,,,,,,,,,,,,,,6,,67,58
20519,note_on,,0,0,16,,,,,,,,,,,,,,,,15,,59,0
20519,note_on,,0,0,16,,,,,,,,,,,,,,,,15,,64,0
20519,note_on,,29,0,9,,,,,,,,,,,,,,,,6,,67,0
20519,note_on,,239,0,15,,,,,,,,,,,,,,,,13,,50,0
20519,note_on,,119,0,16,,,,,,,,,,,,,,,,15,,50,0
20519,note_on,,239,0,7,,,,,,,,,,,,,,,,2,,50,0
20519,note_on,,0,0,16,,,,,,,,,,,,,,,,15,,67,0
20520,note_on,,1,0,15,,,,,,,,,,,,,,,,13,,48,48
20520,note_on,,1,0,9,,,,,,,,,,,,,,,,6,,66,58
20520,note_on,,0,0,16,,,,,,,,,,,,,,,,15,,62,48
20520,note_on,,1,0,7,,,,,,,,,,,,,,,,2,,48,48
20520,note_on,,1,0,16,,,,,,,,,,,,,,,,15,,48,48
20520,note_on,,0,0,16,,,,,,,,,,,,,,,,15,,69,48
20520,note_on,,0,0,16,,,,,,,,,,,,,,,,15,,66,48
20520,note_on,,0,0,16,,,,,,,,,,,,,,,,15,,57,48
20609,note_on,,89,0,9,,,,,,,,,,,,,,,,6,,66,0
20610,note_on,,1,0,9,,,,,,,,,,,,,,,,6,,69,58
20639,note_on,,0,0,16,,,,,,,,,,,,,,,,15,,57,0
20639,note_on,,119,0,16,,,,,,,,,,,,,,,,15,,48,0
20639,note_on,,119,0,15,,,,,,,,,,,,,,,,13,,48,0
20639,note_on,,0,0,16,,,,,,,,,,,,,,,,15,,66,0
20639,note_on,,0,0,16,,,,,,,,,,,,,,,,15,,69,0
20639,note_on,,0,0,16,,,,,,,,,,,,,,,,15,,62,0
20639,note_on,,29,0,9,,,,,,,,,,,,,,,,6,,69,0
20639,note_on,,119,0,7,,,,,,,,,,,,,,,,2,,48,0
20640,note_on,,0,0,16,,,,,,,,,,,,,,,,15,,62,48
20640,note_on,,0,0,16,,,,,,,,,,,,,,,,15,,67,48
20640,note_on,,1,0,7,,,,,,,,,,,,,,,,2,,47,48
20640,note_on,,1,0,16,,,,,,,,,,,,,,,,15,,47,48
20640,note_on,,1,0,15,,,,,,,,,,,,,,,,13,,47,48
20640,note_on,,1,0,9,,,,,,,,,,,,,,,,6,,67,58
20640,note_on,,0,0,16,,,,,,,,,,,,,,,,15,,71,48
20729,note_on,,89,0,9,,,,,,,,,,,,,,,,6,,67,0
20730,note_on,,1,0,9,,,,,,,,,,,,,,,,6,,71,58
20759,note_on,,29,0,9,,,,,,,,,,,,,,,,6,,71,0
20759,note_on,,0,0,16,,,,,,,,,,,,,,,,15,,67,0
20759,note_on,,0,0,16,,,,,,,,,,,,,,,,15,,62,0
20759,note_on,,119,0,16,,,,,,,,,,,,,,,,15,,47,0
20759,note_on,,0,0,16,,,,,,,,,,,,,,,,15,,71,0
20759,note_on,,119,0,7,,,,,,,,,,,,,,,,2,,47,0
20759,note_on,,119,0,15,,,,,,,,,,,,,,,,13,,47,0
20760,note_on,,0,0,16,,,,,,,,,,,,,,,,15,,74,48
20760,note_on,,1,0,7,,,,,,,,,,,,,,,,2,,54,48
20760,note_on,,0,0,16,,,,,,,,,,,,,,,,15,,69,48
20760,note_on,,0,0,16,,,,,,,,,,,,,,,,15,,62,48
20760,note_on,,1,0,15,,,,,,,,,,,,,,,,13,,54,48
20760,note_on,,1,0,9,,,,,,,,,,,,,,,,6,,69,58
20760,note_on,,1,0,16,,,,,,,,,,,,,,,,15,,54,48
20849,note_on,,89,0,9,,,,,,,,,,,,,,,,6,,69,0
20850,note_on,,1,0,9,,,,,,,,,,,,,,,,6,,72,58
20879,note_on,,0,0,16,,,,,,,,,,,,,,,,15,,74,0
20879,note_on,,29,0,9,,,,,,,,,,,,,,,,6,,72,0
20879,note_on,,0,0,16,,,,,,,,,,,,,,,,15,,69,0
20879,note_on,,119,0,15,,,,,,,,,,,,,,,,13,,54,0
20879,note_on,,0,0,16,,,,,,,,,,,,,,,,15,,62,0
20879,note_on,,119,0,16,,,,,,,,,,,,,,,,15,,54,0
20879,note_on,,119,0,7,,,,,,,,,,,,,,,,2,,54,0
20880,note_on,,0,0,16,,,,,,,,,,,,,,,,15,,71,48
20880,note_on,,1,0,9,,,,,,,,,,,,,,,,6,,71,58
20880,note_on,,1,0,16,,,,,,,,,,,,,,,,15,,55,48
20880,note_on,,1,0,15,,,,,,,,,,,,,,,,13,,55,48
20880,note_on,,1,0,7,,,,,,,,,,,,,,,,2,,55,48
20880,note_on,,0,0,16,,,,,,,,,,,,,,,,15,,62,48
20880,note_on,,0,0,16,,,,,,,,,,,,,,,,15,,67,48
20939,note_on,,59,0,15,,,,,,,,,,,,,,,,13,,55,0
20939,note_on,,59,0,7,,,,,,,,,,,,,,,,2,,55,0
20939,note_on,,59,0,16,,,,,,,,,,,,,,,,15,,55,0
20939,note_on,,59,0,9,,,,,,,,,,,,,,,,6,,71,0
20940,note_on,,1,0,9,,,,,,,,,,,,,,,,6,,69,58
20940,note_on,,1,0,16,,,,,,,,,,,,,,,,15,,43,48
20940,note_on,,1,0,7,,,,,,,,,,,,,,,,2,,43,48
20940,note_on,,1,0,15,,,,,,,,,,,,,,,,13,,43,48
20969,note_on,,29,0,9,,,,,,,,,,,,,,,,6,,69,0
20970,note_on,,1,0,9,,,,,,,,,,,,,,,,6,,67,58
20999,note_on,,59,0,7,,,,,,,,,,,,,,,,2,,43,0
20999,note_on,,29,0,9,,,,,,,,,,,,,,,,6,,67,0
20999,note_on,,59,0,16,,,,,,,,,,,,,,,,15,,71,0
20999,note_on,,0,0,16,,,,,,,,,,,,,,,,15,,67,0
20999,note_on,,0,0,16,,,,,,,,,,,,,,,,15,,43,0
20999,note_on,,0,0,16,,,,,,,,,,,,,,,,15,,62,0
20999,note_on,,59,0,15,,,,,,,,,,,,,,,,13,,43,0
21000,note_on,,1,0,16,,,,,,,,,,,,,,,,15,,45,48
21000,note_on,,1,0,9,,,,,,,,,,,,,,,,6,,66,58
21000,note_on,,0,0,16,,,,,,,,,,,,,,,,15,,66,48
21000,note_on,,0,0,16,,,,,,,,,,,,,,,,15,,60,48
21000,note_on,,1,0,15,,,,,,,,,,,,,,,,13,,45,48
21000,note_on,,0,0,16,,,,,,,,,,,,,,,,15,,69,48
21000,note_on,,1,0,7,,,,,,,,,,,,,,,,2,,45,48
21059,note_on,,59,0,9,,,,,,,,,,,,,,,,6,,66,0
21060,note_on,,1,0,9,,,,,,,,,,,,,,,,6,,64,58
21119,note_on,,59,0,9,,,,,,,,,,,,,,,,6,,64,0
21119,note_on,,0,0,16,,,,,,,,,,,,,,,,15,,60,0
21119,note_on,,0,0,16,,,,,,,,,,,,,,,,15,,66,0
21119,note_on,,119,0,16,,,,,,,,,,,,,,,,15,,45,0
21119,note_on,,119,0,7,,,,,,,,,,,,,,,,2,,45,0
21119,note_on,,119,0,15,,,,,,,,,,,,,,,,13,,45,0
21119,note_on,,0,0,16,,,,,,,,,,,,,,,,15,,69,0
21120,note_on,,1,0,16,,,,,,,,,,,,,,,,15,,47,48
21120,note_on,,0,0,16,,,,,,,,,,,,,,,,15,,59,48
21120,note_on,,0,0,16,,,,,,,,,,,,,,,,15,,62,48
21120,note_on,,0,0,16,,,,,,,,,,,,,,,,15,,67,48
21120,note_on,,1,0,15,,,,,,,,,,,,,,,,13,,47,48
21120,note_on,,1,0,9,,,,,,,,,,,,,,,,6,,62,58
21120,note_on,,1,0,7,,,,,,,,,,,,,,,,2,,47,48
21179,note_on,,59,0,16,,,,,,,,,,,,,,,,15,,47,0
21179,note_on,,59,0,15,,,,,,,,,,,,,,,,13,,47,0
21179,note_on,,59,0,7,,,,,,,,,,,,,,,,2,,47,0
21180,note_on,,1,0,7,,,,,,,,,,,,,,,,2,,43,48
21180,note_on,,1,0,16,,,,,,,,,,,,,,,,15,,43,48
21180,note_on,,1,0,15,,,,,,,,,,,,,,,,13,,43,48
21239,note_on,,59,0,7,,,,,,,,,,,,,,,,2,,43,0
21239,note_on,,0,0,16,,,,,,,,,,,,,,,,15,,43,0
21239,note_on,,0,0,16,,,,,,,,,,,,,,,,15,,59,0
21239,note_on,,0,0,16,,,,,,,,,,,,,,,,15,,62,0
21239,note_on,,59,0,15,,,,,,,,,,,,,,,,13,,43,0
21239,note_on,,59,0,16,,,,,,,,,,,,,,,,15,,67,0
21240,note_on,,961,0,11,,,,,,,,,,,,,,,,8,,50,58
21240,note_on,,1,0,7,,,,,,,,,,,,,,,,2,,50,48
21240,note_on,,1,0,15,,,,,,,,,,,,,,,,13,,50,48
21240,note_on,,1,0,16,,,,,,,,,,,,,,,,15,,57,48
21240,note_on,,0,0,16,,,,,,,,,,,,,,,,15,,50,48
21240,note_on,,0,0,16,,,,,,,,,,,,,,,,15,,66,48
21240,note_on,,0,0,16,,,,,,,,,,,,,,,,15,,62,48
21329,note_on,,89,0,11,,,,,,,,,,,,,,,,8,,50,0
21330,note_on,,1,0,11,,,,,,,,,,,,,,,,8,,54,58
21359,note_on,,29,0,11,,,,,,,,,,,,,,,,8,,54,0
21359,note_on,,0,0,16,,,,,,,,,,,,,,,,15,,62,0
21359,note_on,,119,0,16,,,,,,,,,,,,,,,,15,,57,0
21359,note_on,,0,0,16,,,,,,,,,,,,,,,,15,,66,0
21360,note_on,,0,0,16,,,,,,,,,,,,,,,,15,,59,48
21360,note_on,,1,0,16,,,,,,,,,,,,,,,,15,,64,48
21360,note_on,,0,0,16,,,,,,,,,,,,,,,,15,,55,48
21360,note_on,,1,0,11,,,,,,,,,,,,,,,,8,,52,58
21449,note_on,,89,0,11,,,,,,,,,,,,,,,,8,,52,0
21450,note_on,,1,0,11,,,,,,,,,,,,,,,,8,,55,58
21479,note_on,,29,0,11,,,,,,,,,,,,,,,,8,,55,0
21479,note_on,,0,0,16,,,,,,,,,,,,,,,,15,,55,0
21479,note_on,,239,0,15,,,,,,,,,,,,,,,,13,,50,0
21479,note_on,,0,0,16,,,,,,,,,,,,,,,,15,,64,0
21479,note_on,,119,0,16,,,,,,,,,,,,,,,,15,,50,0
21479,note_on,,239,0,7,,,,,,,,,,,,,,,,2,,50,0
21479,note_on,,0,0,16,,,,,,,,,,,,,,,,15,,59,0
21480,note_on,,1,0,16,,,,,,,,,,,,,,,,15,,48,48
21480,note_on,,1,0,15,,,,,,,,,,,,,,,,13,,48,48
21480,note_on,,0,0,16,,,,,,,,,,,,,,,,15,,57,48
21480,note_on,,0,0,16,,,,,,,,,,,,,,,,15,,54,48
21480,note_on,,1,0,7,,,,,,,,,,,,,,,,2,,48,48
21480,note_on,,1,0,11,,,,,,,,,,,,,,,,8,,54,58
21480,note_on,,0,0,16,,,,,,,,,,,,,,,,15,,62,48
21569,note_on,,89,0,11,,,,,,,,,,,,,,,,8,,54,0
21570,note_on,,1,0,11,,,,,,,,,,,,,,,,8,,57,58
21599,note_on,,119,0,15,,,,,,,,,,,,,,,,13,,48,0
21599,note_on,,119,0,7,,,,,,,,,,,,,,,,2,,48,0
21599,note_on,,0,0,16,,,,,,,,,,,,,,,,15,,57,0
21599,note_on,,119,0,16,,,,,,,,,,,,,,,,15,,48,0
21599,note_on,,29,0,11,,,,,,,,,,,,,,,,8,,57,0
21599,note_on,,0,0,16,,,,,,,,,,,,,,,,15,,54,0
21600,note_on,,1,0,11,,,,,,,,,,,,,,,,8,,55,58
21600,note_on,,1,0,7,,,,,,,,,,,,,,,,2,,47,48
21600,note_on,,1,0,15,,,,,,,,,,,,,,,,13,,47,48
21600,note_on,,0,0,16,,,,,,,,,,,,,,,,15,,55,48
21600,note_on,,0,0,16,,,,,,,,,,,,,,,,15,,59,48
21600,note_on,,1,0,16,,,,,,,,,,,,,,,,15,,47,48
21689,note_on,,89,0,11,,,,,,,,,,,,,,,,8,,55,0
21690,note_on,,1,0,11,,,,,,,,,,,,,,,,8,,59,58
21719,note_on,,29,0,11,,,,,,,,,,,,,,,,8,,59,0
21719,note_on,,119,0,16,,,,,,,,,,,,,,,,15,,62,0
21719,note_on,,0,0,16,,,,,,,,,,,,,,,,15,,47,0
21719,note_on,,119,0,15,,,,,,,,,,,,,,,,13,,47,0
21719,note_on,,0,0,16,,,,,,,,,,,,,,,,15,,59,0
21719,note_on,,0,0,16,,,,,,,,,,,,,,,,15,,55,0
21719,note_on,,119,0,7,,,,,,,,,,,,,,,,2,,47,0
21720,note_on,,0,0,16,,,,,,,,,,,,,,,,15,,62,48
21720,note_on,,1,0,7,,,,,,,,,,,,,,,,2,,42,48
21720,note_on,,1,0,15,,,,,,,,,,,,,,,,13,,42,48
21720,note_on,,1,0,16,,,,,,,,,,,,,,,,15,,42,48
21720,note_on,,0,0,16,,,,,,,,,,,,,,,,15,,69,48
21720,note_on,,1,0,11,,,,,,,,,,,,,,,,8,,57,58
21720,note_on,,0,0,16,,,,,,,,,,,,,,,,15,,57,48
21809,note_on,,89,0,11,,,,,,,,,,,,,,,,8,,57,0
21810,note_on,,1,0,11,,,,,,,,,,,,,,,,8,,60,58
21839,note_on,,0,0,16,,,,,,,,,,,,,,,,15,,62,0
21839,note_on,,0,0,16,,,,,,,,,,,,,,,,15,,57,0
21839,note_on,,119,0,16,,,,,,,,,,,,,,,,15,,42,0
21839,note_on,,0,0,16,,,,,,,,,,,,,,,,15,,69,0
21839,note_on,,29,0,11,,,,,,,,,,,,,,,,8,,60,0
21839,note_on,,119,0,15,,,,,,,,,,,,,,,,13,,42,0
21839,note_on,,119,0,7,,,,,,,,,,,,,,,,2,,42,0
21840,note_on,,1,0,11,,,,,,,,,,,,,,,,8,,59,58
21840,note_on,,0,0,16,,,,,,,,,,,,,,,,15,,62,48
21840,note_on,,1,0,15,,,,,,,,,,,,,,,,13,,43,48
21840,note_on,,0,0,16,,,,,,,,,,,,,,,,15,,71,48
21840,note_on,,1,0,16,,,,,,,,,,,,,,,,15,,43,48
21840,note_on,,1,0,7,,,,,,,,,,,,,,,,2,,43,48
21840,note_on,,0,0,16,,,,,,,,,,,,,,,,15,,67,48
21899,note_on,,59,0,11,,,,,,,,,,,,,,,,8,,59,0
21899,note_on,,779,0,9,,,,,,,,,,,,,,,,6,,62,0
21900,note_on,,1,0,11,,,,,,,,,,,,,,,,8,,60,58
21900,note_on,,1,0,9,,,,,,,,,,,,,,,,6,,64,58
21929,note_on,,29,0,11,,,,,,,,,,,,,,,,8,,60,0
21929,note_on,,29,0,9,,,,,,,,,,,,,,,,6,,64,0
21930,note_on,,1,0,9,,,,,,,,,,,,,,,,6,,62,58
21930,note_on,,1,0,11,,,,,,,,,,,,,,,,8,,59,58
21959,note_on,,119,0,15,,,,,,,,,,,,,,,,13,,43,0
21959,note_on,,0,0,16,,,,,,,,,,,,,,,,15,,62,0
21959,note_on,,29,0,9,,,,,,,,,,,,,,,,6,,62,0
21959,note_on,,0,0,16,,,,,,,,,,,,,,,,15,,67,0
21959,note_on,,0,0,16,,,,,,,,,,,,,,,,15,,71,0
21959,note_on,,119,0,16,,,,,,,,,,,,,,,,15,,43,0
21959,note_on,,119,0,7,,,,,,,,,,,,,,,,2,,43,0
21959,note_on,,29,0,11,,,,,,,,,,,,,,,,8,,59,0
21960,note_on,,1,0,9,,,,,,,,,,,,,,,,6,,60,58
21960,note_on,,0,0,16,,,,,,,,,,,,,,,,15,,64,48
21960,note_on,,1,0,16,,,,,,,,,,,,,,,,15,,48,48
21960,note_on,,1,0,15,,,,,,,,,,,,,,,,13,,48,48
21960,note_on,,0,0,16,,,,,,,,,,,,,,,,15,,60,48
21960,note_on,,1,0,7,,,,,,,,,,,,,,,,2,,48,48
21960,note_on,,0,0,16,,,,,,,,,,,,,,,,15,,69,48
21960,note_on,,1,0,11,,,,,,,,,,,,,,,,8,,57,58
22019,note_on,,59,0,9,,,,,,,,,,,,,,,,6,,60,0
22019,note_on,,59,0,11,,,,,,,,,,,,,,,,8,,57,0
22020,note_on,,1,0,11,,,,,,,,,,,,,,,,8,,55,58
22020,note_on,,1,0,9,,,,,,,,,,,,,,,,6,,59,58
22079,note_on,,0,0,16,,,,,,,,,,,,,,,,15,,60,0
22079,note_on,,59,0,11,,,,,,,,,,,,,,,,8,,55,0
22079,note_on,,119,0,15,,,,,,,,,,,,,,,,13,,48,0
22079,note_on,,119,0,16,,,,,,,,,,,,,,,,15,,48,0
22079,note_on,,59,0,9,,,,,,,,,,,,,,,,6,,59,0
22079,note_on,,119,0,7,,,,,,,,,,,,,,,,2,,48,0
22079,note_on,,0,0,16,,,,,,,,,,,,,,,,15,,69,0
22079,note_on,,0,0,16,,,,,,,,,,,,,,,,15,,64,0
22080,note_on,,1,0,9,,,,,,,,,,,,,,,,6,,57,58
22080,note_on,,1,0,15,,,,,,,,,,,,,,,,13,,50,48
22080,note_on,,0,0,16,,,,,,,,,,,,,,,,15,,57,48
22080,note_on,,1,0,7,,,,,,,,,,,,,,,,2,,50,48
22080,note_on,,1,0,16,,,,,,,,,,,,,,,,15,,50,48
22080,note_on,,1,0,11,,,,,,,,,,,,,,,,8,,54,58
22080,note_on,,0,0,16,,,,,,,,,,,,,,,,15,,66,48
22080,note_on,,0,0,16,,,,,,,,,,,,,,,,15,,69,48
22199,note_on,,0,0,16,,,,,,,,,,,,,,,,15,,69,0
22199,note_on,,119,0,16,,,,,,,,,,,,,,,,15,,50,0
22199,note_on,,0,0,16,,,,,,,,,,,,,,,,15,,57,0
22199,note_on,,119,0,9,,,,,,,,,,,,,,,,6,,57,0
22199,note_on,,0,0,16,,,,,,,,,,,,,,,,15,,66,0
22199,note_on,,119,0,7,,,,,,,,,,,,,,,,2,,50,0
22199,note_on,,119,0,11,,,,,,,,,,,,,,,,8,,54,0
22199,note_on,,119,0,15,,,,,,,,,,,,,,,,13,,50,0
22200,note_on,,1,0,16,,,,,,,,,,,,,,,,15,,38,48
22200,note_on,,1,0,9,,,,,,,,,,,,,,,,6,,57,58
22200,note_on,,1,0,7,,,,,,,,,,,,,,,,2,,38,48
22200,note_on,,1,0,11,,,,,,,,,,,,,,,,8,,50,58
22200,note_on,,2401,0,8,,,,,,,,,,,,,,,,5,,69,58
22200,note_on,,2881,0,10,,,,,,,,,,,,,,,,7,,66,58
22200,note_on,,1,0,15,,,,,,,,,,,,,,,,13,,38,48
22200,note_on,,2401,0,5,,,,,,,,,,,,,,,,0,,69,47
22200,note_on,,0,0,16,,,,,,,,,,,,,,,,15,,50,48
22200,note_on,,2401,0,6,,,,,,,,,,,,,,,,1,,69,47
22200,note_on,,0,0,16,,,,,,,,,,,,,,,,15,,66,48
22200,note_on,,0,0,16,,,,,,,,,,,,,,,,15,,69,48
22200,note_on,,0,0,16,,,,,,,,,,,,,,,,15,,74,48
22259,note_on,,59,0,8,,,,,,,,,,,,,,,,5,,69,0
22259,note_on,,59,0,6,,,,,,,,,,,,,,,,1,,69,0
22259,note_on,,59,0,5,,,,,,,,,,,,,,,,0,,69,0
22259,note_on,,59,0,10,,,,,,,,,,,,,,,,7,,66,0
22260,note_on,,1,0,6,,,,,,,,,,,,,,,,1,,74,47
22260,note_on,,1,0,10,,,,,,,,,,,,,,,,7,,66,58
22260,note_on,,1,0,5,,,,,,,,,,,,,,,,0,,74,47
22260,note_on,,1,0,8,,,,,,,,,,,,,,,,5,,74,58
22319,note_on,,0,0,16,,,,,,,,,,,,,,,,15,,50,0
22319,note_on,,0,0,16,,,,,,,,,,,,,,,,15,,69,0
22319,note_on,,0,0,16,,,,,,,,,,,,,,,,15,,74,0
22319,note_on,,119,0,9,,,,,,,,,,,,,,,,6,,57,0
22319,note_on,,119,0,15,,,,,,,,,,,,,,,,13,,38,0
22319,note_on,,119,0,7,,,,,,,,,,,,,,,,2,,38,0
22319,note_on,,59,0,5,,,,,,,,,,,,,,,,0,,74,0
22319,note_on,,119,0,16,,,,,,,,,,,,,,,,15,,38,0
22319,note_on,,119,0,11,,,,,,,,,,,,,,,,8,,50,0
22319,note_on,,0,0,16,,,,,,,,,,,,,,,,15,,66,0
22319,note_on,,59,0,6,,,,,,,,,,,,,,,,1,,74,0
22319,note_on,,59,0,10,,,,,,,,,,,,,,,,7,,66,0
22319,note_on,,59,0,8,,,,,,,,,,,,,,,,5,,74,0
22320,note_on,,0,0,16,,,,,,,,,,,,,,,,15,,71,48
22320,note_on,,1,0,16,,,,,,,,,,,,,,,,15,,43,48
22320,note_on,,1,0,15,,,,,,,,,,,,,,,,13,,43,48
22320,note_on,,0,0,16,,,,,,,,,,,,,,,,15,,67,48
22320,note_on,,1,0,6,,,,,,,,,,,,,,,,1,,71,47
22320,note_on,,0,0,16,,,,,,,,,,,,,,,,15,,50,48
22320,note_on,,1,0,7,,,,,,,,,,,,,,,,2,,43,48
22320,note_on,,0,0,16,,,,,,,,,,,,,,,,15,,62,48
22320,note_on,,1,0,5,,,,,,,,,,,,,,,,0,,71,47
22320,note_on,,1,0,10,,,,,,,,,,,,,,,,7,,67,58
22320,note_on,,1,0,8,,,,,,,,,,,,,,,,5,,71,58
22439,note_on,,119,0,7,,,,,,,,,,,,,,,,2,,43,0
22439,note_on,,0,0,16,,,,,,,,,,,,,,,,15,,50,0
22439,note_on,,119,0,5,,,,,,,,,,,,,,,,0,,71,0
22439,note_on,,0,0,16,,,,,,,,,,,,,,,,15,,67,0
22439,note_on,,0,0,16,,,,,,,,,,,,,,,,15,,71,0
22439,note_on,,119,0,10,,,,,,,,,,,,,,,,7,,67,0
22439,note_on,,119,0,15,,,,,,,,,,,,,,,,13,,43,0
22439,note_on,,119,0,16,,,,,,,,,,,,,,,,15,,43,0
22439,note_on,,0,0,16,,,,,,,,,,,,,,,,15,,62,0
22439,note_on,,119,0,8,,,,,,,,,,,,,,,,5,,71,0
22439,note_on,,119,0,6,,,,,,,,,,,,,,,,1,,71,0
22440,note_on,,121,0,11,,,,,,,,,,,,,,,,8,,59,58
22440,note_on,,121,0,9,,,,,,,,,,,,,,,,6,,62,58
22440,note_on,,1,0,7,,,,,,,,,,,,,,,,2,,59,48
22440,note_on,,0,0,16,,,,,,,,,,,,,,,,15,,62,48
22440,note_on,,1,0,16,,,,,,,,,,,,,,,,15,,59,48
22440,note_on,,0,0,16,,,,,,,,,,,,,,,,15,,67,48
22440,note_on,,1,0,15,,,,,,,,,,,,,,,,13,,59,48
22499,note_on,,59,0,15,,,,,,,,,,,,,,,,13,,59,0
22499,note_on,,59,0,9,,,,,,,,,,,,,,,,6,,62,0
22499,note_on,,59,0,11,,,,,,,,,,,,,,,,8,,59,0
22499,note_on,,59,0,16,,,,,,,,,,,,,,,,15,,59,0
22499,note_on,,0,0,16,,,,,,,,,,,,,,,,15,,67,0
22499,note_on,,0,0,16,,,,,,,,,,,,,,,,15,,62,0
22499,note_on,,59,0,7,,,,,,,,,,,,,,,,2,,59,0
22500,note_on,,0,0,16,,,,,,,,,,,,,,,,15,,62,48
22500,note_on,,0,0,16,,,,,,,,,,,,,,,,15,,67,48
22500,note_on,,0,0,16,,,,,,,,,,,,,,,,15,,71,48
22500,note_on,,1,0,7,,,,,,,,,,,,,,,,2,,55,48
22500,note_on,,1,0,16,,,,,,,,,,,,,,,,15,,55,48
22500,note_on,,1,0,9,,,,,,,,,,,,,,,,6,,67,58
22500,note_on,,1,0,11,,,,,,,,,,,,,,,,8,,55,58
22500,note_on,,1,0,15,,,,,,,,,,,,,,,,13,,55,48
22559,note_on,,59,0,11,,,,,,,,,,,,,,,,8,,55,0
22559,note_on,,59,0,7,,,,,,,,,,,,,,,,2,,55,0
22559,note_on,,59,0,15,,,,,,,,,,,,,,,,13,,55,0
22559,note_on,,0,0,16,,,,,,,,,,,,,,,,15,,67,0
22559,note_on,,0,0,16,,,,,,,,,,,,,,,,15,,71,0
22559,note_on,,0,0,16,,,,,,,,,,,,,,,,15,,62,0
22559,note_on,,59,0,9,,,,,,,,,,,,,,,,6,,67,0
22559,note_on,,59,0,16,,,,,,,,,,,,,,,,15,,55,0
22560,note_on,,1,0,9,,,,,,,,,,,,,,,,6,,66,58
22560,note_on,,121,0,8,,,,,,,,,,,,,,,,5,,74,58
22560,note_on,,1,0,16,,,,,,,,,,,,,,,,15,,62,48
22560,note_on,,1,0,11,,,,,,,,,,,,,,,,8,,62,58
22560,note_on,,0,0,16,,,,,,,,,,,,,,,,15,,69,48
22560,note_on,,0,0,16,,,,,,,,,,,,,,,,15,,66,48
22560,note_on,,121,0,6,,,,,,,,,,,,,,,,1,,74,47
22560,note_on,,1,0,7,,,,,,,,,,,,,,,,2,,62,48
22560,note_on,,1,0,15,,,,,,,,,,,,,,,,13,,62,48
22560,note_on,,121,0,5,,,,,,,,,,,,,,,,0,,74,47
22619,note_on,,59,0,6,,,,,,,,,,,,,,,,1,,74,0
22619,note_on,,59,0,8,,,,,,,,,,,,,,,,5,,74,0
22619,note_on,,59,0,5,,,,,,,,,,,,,,,,0,,74,0
22620,note_on,,1,0,8,,,,,,,,,,,,,,,,5,,79,58
22620,note_on,,1,0,5,,,,,,,,,,,,,,,,0,,79,47
22620,note_on,,1,0,6,,,,,,,,,,,,,,,,1,,79,47
22679,note_on,,0,0,16,,,,,,,,,,,,,,,,15,,66,0
22679,note_on,,0,0,16,,,,,,,,,,,,,,,,15,,69,0
22679,note_on,,119,0,16,,,,,,,,,,,,,,,,15,,62,0
22679,note_on,,119,0,9,,,,,,,,,,,,,,,,6,,66,0
22679,note_on,,119,0,7,,,,,,,,,,,,,,,,2,,62,0
22679,note_on,,119,0,15,,,,,,,,,,,,,,,,13,,62,0
22679,note_on,,59,0,6,,,,,,,,,,,,,,,,1,,79,0
22679,note_on,,119,0,11,,,,,,,,,,,,,,,,8,,62,0
22679,note_on,,59,0,8,,,,,,,,,,,,,,,,5,,79,0
22679,note_on,,59,0,5,,,,,,,,,,,,,,,,0,,79,0
22680,note_on,,1,0,9,,,,,,,,,,,,,,,,6,,67,58
22680,note_on,,1,0,7,,,,,,,,,,,,,,,,2,,59,48
22680,note_on,,1,0,15,,,,,,,,,,,,,,,,13,,59,48
22680,note_on,,1,0,8,,,,,,,,,,,,,,,,5,,78,58
22680,note_on,,1,0,5,,,,,,,,,,,,,,,,0,,78,47
22680,note_on,,1,0,6,,,,,,,,,,,,,,,,1,,78,47
22680,note_on,,1,0,16,,,,,,,,,,,,,,,,15,,59,48
22680,note_on,,241,0,10,,,,,,,,,,,,,,,,7,,62,58
22680,note_on,,0,0,16,,,,,,,,,,,,,,,,15,,62,48
22680,note_on,,1,0,11,,,,,,,,,,,,,,,,8,,59,58
22680,note_on,,0,0,16,,,,,,,,,,,,,,,,15,,74,48
22680,note_on,,0,0,16,,,,,,,,,,,,,,,,15,,67,48
22739,note_on,,59,0,11,,,,,,,,,,,,,,,,8,,59,0
22739,note_on,,59,0,9,,,,,,,,,,,,,,,,6,,67,0
22739,note_on,,0,0,16,,,,,,,,,,,,,,,,15,,67,0
22739,note_on,,0,0,16,,,,,,,,,,,,,,,,15,,74,0
22739,note_on,,59,0,16,,,,,,,,,,,,,,,,15,,59,0
22739,note_on,,59,0,8,,,,,,,,,,,,,,,,5,,78,0
22739,note_on,,59,0,7,,,,,,,,,,,,,,,,2,,59,0
22739,note_on,,59,0,5,,,,,,,,,,,,,,,,0,,78,0
22739,note_on,,0,0,16,,,,,,,,,,,,,,,,15,,62,0
22739,note_on,,59,0,6,,,,,,,,,,,,,,,,1,,78,0
22739,note_on,,59,0,15,,,,,,,,,,,,,,,,13,,59,0
22739,note_on,,59,0,10,,,,,,,,,,,,,,,,7,,62,0
22740,note_on,,1,0,6,,,,,,,,,,,,,,,,1,,74,47
22740,note_on,,1,0,7,,,,,,,,,,,,,,,,2,,55,48
22740,note_on,,1,0,5,,,,,,,,,,,,,,,,0,,74,47
22740,note_on,,1,0,9,,,,,,,,,,,,,,,,6,,71,58
22740,note_on,,1,0,15,,,,,,,,,,,,,,,,13,,55,48
22740,note_on,,0,0,16,,,,,,,,,,,,,,,,15,,59,48
22740,note_on,,1,0,16,,,,,,,,,,,,,,,,15,,55,48
22740,note_on,,1,0,11,,,,,,,,,,,,,,,,8,,55,58
22740,note_on,,0,0,16,,,,,,,,,,,,,,,,15,,67,48
22740,note_on,,1,0,10,,,,,,,,,,,,,,,,7,,62,58
22740,note_on,,0,0,16,,,,,,,,,,,,,,,,15,,74,48
22740,note_on,,0,0,16,,,,,,,,,,,,,,,,15,,71,48
22740,note_on,,1,0,8,,,,,,,,,,,,,,,,5,,74,58
22799,note_on,,0,0,16,,,,,,,,,,,,,,,,15,,67,0
22799,note_on,,59,0,16,,,,,,,,,,,,,,,,15,,55,0
22799,note_on,,0,0,16,,,,,,,,,,,,,,,,15,,74,0
22799,note_on,,59,0,5,,,,,,,,,,,,,,,,0,,74,0
22799,note_on,,0,0,16,,,,,,,,,,,,,,,,15,,59,0
22799,note_on,,59,0,6,,,,,,,,,,,,,,,,1,,74,0
22799,note_on,,59,0,9,,,,,,,,,,,,,,,,6,,71,0
22799,note_on,,59,0,15,,,,,,,,,,,,,,,,13,,55,0
22799,note_on,,59,0,10,,,,,,,,,,,,,,,,7,,62,0
22799,note_on,,59,0,11,,,,,,,,,,,,,,,,8,,55,0
22799,note_on,,59,0,7,,,,,,,,,,,,,,,,2,,55,0
22799,note_on,,0,0,16,,,,,,,,,,,,,,,,15,,71,0
22799,note_on,,59,0,8,,,,,,,,,,,,,,,,5,,74,0
22800,note_on,,1,0,9,,,,,,,,,,,,,,,,6,,69,58
22800,note_on,,0,0,16,,,,,,,,,,,,,,,,15,,74,48
22800,note_on,,0,0,16,,,,,,,,,,,,,,,,15,,69,48
22800,note_on,,0,0,16,,,,,,,,,,,,,,,,15,,66,48
22800,note_on,,1,0,10,,,,,,,,,,,,,,,,7,,66,58
22800,note_on,,1,0,11,,,,,,,,,,,,,,,,8,,62,58
22800,note_on,,1,0,15,,,,,,,,,,,,,,,,13,,62,48
22800,note_on,,1,0,16,,,,,,,,,,,,,,,,15,,62,48
22800,note_on,,1,0,7,,,,,,,,,,,,,,,,2,,62,48
22830,note_on,,3511,0,13,,,,,,,,,,,,,,,,11,,78,72
22830,note_on,,3511,0,12,,,,,,,,,,,,,,,,10,,74,72
22859,note_on,,59,0,11,,,,,,,,,,,,,,,,8,,62,0
22859,note_on,,29,0,12,,,,,,,,,,,,,,,,10,,74,0
22859,note_on,,59,0,16,,,,,,,,,,,,,,,,15,,62,0
22859,note_on,,29,0,13,,,,,,,,,,,,,,,,11,,78,0
22859,note_on,,59,0,7,,,,,,,,,,,,,,,,2,,62,0
22859,note_on,,59,0,9,,,,,,,,,,,,,,,,6,,69,0
22859,note_on,,59,0,15,,,,,,,,,,,,,,,,13,,62,0
22859,note_on,,59,0,10,,,,,,,,,,,,,,,,7,,66,0
22860,note_on,,1,0,7,,,,,,,,,,,,,,,,2,,50,48
22860,note_on,,1,0,10,,,,,,,,,,,,,,,,7,,66,58
22860,note_on,,1,0,12,,,,,,,,,,,,,,,,10,,76,72
22860,note_on,,1,0,9,,,,,,,,,,,,,,,,6,,69,58
22860,note_on,,1,0,15,,,,,,,,,,,,,,,,13,,50,48
22860,note_on,,1,0,11,,,,,,,,,,,,,,,,8,,50,58
22860,note_on,,0,0,16,,,,,,,,,,,,,,,,15,,62,48
22860,note_on,,1,0,16,,,,,,,,,,,,,,,,15,,50,48
22860,note_on,,1,0,13,,,,,,,,,,,,,,,,11,,79,72
22889,note_on,,29,0,12,,,,,,,,,,,,,,,,10,,76,0
22889,note_on,,29,0,13,,,,,,,,,,,,,,,,11,,79,0
22890,note_on,,1,0,12,,,,,,,,,,,,,,,,10,,78,72
22890,note_on,,1,0,13,,,,,,,,,,,,,,,,11,,81,72
22919,note_on,,0,0,16,,,,,,,,,,,,,,,,15,,66,0
22919,note_on,,59,0,10,,,,,,,,,,,,,,,,7,,66,0
22919,note_on,,59,0,9,,,,,,,,,,,,,,,,6,,69,0
22919,note_on,,0,0,16,,,,,,,,,,,,,,,,15,,69,0
22919,note_on,,59,0,16,,,,,,,,,,,,,,,,15,,74,0
22919,note_on,,0,0,16,,,,,,,,,,,,,,,,15,,50,0
22919,note_on,,0,0,16,,,,,,,,,,,,,,,,15,,62,0
22919,note_on,,29,0,12,,,,,,,,,,,,,,,,10,,78,0
22919,note_on,,59,0,7,,,,,,,,,,,,,,,,2,,50,0
22919,note_on,,29,0,13,,,,,,,,,,,,,,,,11,,81,0
22919,note_on,,59,0,11,,,,,,,,,,,,,,,,8,,50,0
22919,note_on,,59,0,15,,,,,,,,,,,,,,,,13,,50,0
22920,note_on,,1,0,13,,,,,,,,,,,,,,,,11,,79,72
22920,note_on,,1,0,12,,,,,,,,,,,,,,,,10,,79,72
22949,note_on,,29,0,12,,,,,,,,,,,,,,,,10,,79,0
22949,note_on,,29,0,13,,,,,,,,,,,,,,,,11,,79,0
22950,note_on,,1,0,12,,,,,,,,,,,,,,,,10,,81,72
22950,note_on,,1,0,13,,,,,,,,,,,,,,,,11,,78,72
22979,note_on,,29,0,12,,,,,,,,,,,,,,,,10,,81,0
22979,note_on,,29,0,13,,,,,,,,,,,,,,,,11,,78,0
22980,note_on,,1,0,12,,,,,,,,,,,,,,,,10,,83,72
22980,note_on,,1,0,13,,,,,,,,,,,,,,,,11,,79,72
23009,note_on,,29,0,13,,,,,,,,,,,,,,,,11,,79,0
23009,note_on,,29,0,12,,,,,,,,,,,,,,,,10,,83,0
23010,note_on,,1,0,13,,,,,,,,,,,,,,,,11,,81,72
23010,note_on,,1,0,12,,,,,,,,,,,,,,,,10,,84,72
23039,note_on,,29,0,13,,,,,,,,,,,,,,,,11,,81,0
23039,note_on,,29,0,12,,,,,,,,,,,,,,,,10,,84,0
23040,note_on,,121,0,10,,,,,,,,,,,,,,,,7,,67,88
23040,note_on,,3721,0,14,,,,,,,,,,,,,,,,12,,67,72
23040,note_on,,1,0,12,,,,,,,,,,,,,,,,10,,86,72
23040,note_on,,121,0,11,,,,,,,,,,,,,,,,8,,55,88
23040,note_on,,241,0,5,,,,,,,,,,,,,,,,0,,74,72
23040,note_on,,121,0,9,,,,,,,,,,,,,,,,6,,71,58
23040,note_on,,0,0,16,,,,,,,,,,,,,,,,15,,55,72
23040,note_on,,0,0,16,,,,,,,,,,,,,,,,15,,62,72
23040,note_on,,241,0,6,,,,,,,,,,,,,,,,1,,74,72
23040,note_on,,0,0,16,,,,,,,,,,,,,,,,15,,67,72
23040,note_on,,121,0,15,,,,,,,,,,,,,,,,13,,55,72
23040,note_on,,0,0,16,,,,,,,,,,,,,,,,15,,71,72
23040,note_on,,1,0,13,,,,,,,,,,,,,,,,11,,83,72
23040,note_on,,121,0,16,,,,,,,,,,,,,,,,15,,55,72
23040,note_on,,121,0,7,,,,,,,,,,,,,,,,2,,55,72
23040,note_on,,241,0,8,,,,,,,,,,,,,,,,5,,74,88
23040,note_on,,0,0,16,,,,,,,,,,,,,,,,15,,74,72
23069,note_on,,29,0,13,,,,,,,,,,,,,,,,11,,83,0
23069,note_on,,29,0,12,,,,,,,,,,,,,,,,10,,86,0
23070,note_on,,1,0,12,,,,,,,,,,,,,,,,10,,84,72
23070,note_on,,1,0,13,,,,,,,,,,,,,,,,11,,81,72
23099,note_on,,29,0,13,,,,,,,,,,,,,,,,11,,81,0
23099,note_on,,29,0,12,,,,,,,,,,,,,,,,10,,84,0
23100,note_on,,1,0,12,,,,,,,,,,,,,,,,10,,86,72
23100,note_on,,1,0,13,,,,,,,,,,,,,,,,11,,83,72
23129,note_on,,89,0,9,,,,,,,,,,,,,,,,6,,71,0
23129,note_on,,89,0,10,,,,,,,,,,,,,,,,7,,67,0
23129,note_on,,89,0,16,,,,,,,,,,,,,,,,15,,55,0
23129,note_on,,89,0,6,,,,,,,,,,,,,,,,1,,74,0
23129,note_on,,89,0,15,,,,,,,,,,,,,,,,13,,55,0
23129,note_on,,29,0,13,,,,,,,,,,,,,,,,11,,83,0
23129,note_on,,89,0,14,,,,,,,,,,,,,,,,12,,67,0
23129,note_on,,89,0,7,,,,,,,,,,,,,,,,2,,55,0
23129,note_on,,89,0,8,,,,,,,,,,,,,,,,5,,74,0
23129,note_on,,29,0,12,,,,,,,,,,,,,,,,10,,86,0
23129,note_on,,89,0,5,,,,,,,,,,,,,,,,0,,74,0
23129,note_on,,89,0,11,,,,,,,,,,,,,,,,8,,55,0
23130,note_on,,1,0,16,,,,,,,,,,,,,,,,15,,43,72
23130,note_on,,1,0,6,,,,,,,,,,,,,,,,1,,72,72
23130,note_on,,1,0,12,,,,,,,,,,,,,,,,10,,84,72
23130,note_on,,1,0,10,,,,,,,,,,,,,,,,7,,62,88
23130,note_on,,1,0,14,,,,,,,,,,,,,,,,12,,62,72
23130,note_on,,1,0,11,,,,,,,,,,,,,,,,8,,55,88
23130,note_on,,1,0,5,,,,,,,,,,,,,,,,0,,72,72
23130,note_on,,1,0,15,,,,,,,,,,,,,,,,13,,43,72
23130,note_on,,1,0,13,,,,,,,,,,,,,,,,11,,81,72
23130,note_on,,1,0,7,,,,,,,,,,,,,,,,2,,43,72
23130,note_on,,1,0,8,,,,,,,,,,,,,,,,5,,72,88
23130,note_on,,1,0,9,,,,,,,,,,,,,,,,6,,69,88
23159,note_on,,29,0,8,,,,,,,,,,,,,,,,5,,72,0
23159,note_on,,29,0,12,,,,,,,,,,,,,,,,10,,84,0
23159,note_on,,29,0,11,,,,,,,,,,,,,,,,8,,55,0
23159,note_on,,29,0,5,,,,,,,,,,,,,,,,0,,72,0
23159,note_on,,29,0,15,,,,,,,,,,,,,,,,13,,43,0
23159,note_on,,29,0,16,,,,,,,,,,,,,,,,15,,43,0
23159,note_on,,29,0,14,,,,,,,,,,,,,,,,12,,62,0
23159,note_on,,29,0,10,,,,,,,,,,,,,,,,7,,62,0
23159,note_on,,29,0,7,,,,,,,,,,,,,,,,2,,43,0
23159,note_on,,29,0,6,,,,,,,,,,,,,,,,1,,72,0
23159,note_on,,29,0,13,,,,,,,,,,,,,,,,11,,81,0
23159,note_on,,29,0,9,,,,,,,,,,,,,,,,6,,69,0
23160,note_on,,1,0,6,,,,,,,,,,,,,,,,1,,71,72
23160,note_on,,1,0,16,,,,,,,,,,,,,,,,15,,43,72
23160,note_on,,1,0,5,,,,,,,,,,,,,,,,0,,71,72
23160,note_on,,1,0,12,,,,,,,,,,,,,,,,10,,83,72
23160,note_on,,1,0,14,,,,,,,,,,,,,,,,12,,62,72
23160,note_on,,1,0,9,,,,,,,,,,,,,,,,6,,67,88
23160,note_on,,1,0,10,,,,,,,,,,,,,,,,7,,62,88
23160,note_on,,1,0,7,,,,,,,,,,,,,,,,2,,43,72
23160,note_on,,1,0,15,,,,,,,,,,,,,,,,13,,43,72
23160,note_on,,1,0,13,,,,,,,,,,,,,,,,11,,79,72
23160,note_on,,1,0,8,,,,,,,,,,,,,,,,5,,71,88
23160,note_on,,1,0,11,,,,,,,,,,,,,,,,8,,55,88
23189,note_on,,29,0,13,,,,,,,,,,,,,,,,11,,79,0
23189,note_on,,29,0,12,,,,,,,,,,,,,,,,10,,83,0
23190,note_on,,1,0,12,,,,,,,,,,,,,,,,10,,84,72
23190,note_on,,1,0,13,,,,,,,,,,,,,,,,11,,81,72
23219,note_on,,29,0,12,,,,,,,,,,,,,,,,10,,84,0
23219,note_on,,29,0,13,,,,,,,,,,,,,,,,11,,81,0
23220,note_on,,1,0,13,,,,,,,,,,,,,,,,11,,79,72
23220,note_on,,1,0,12,,,,,,,,,,,,,,,,10,,83,72
23249,note_on,,29,0,12,,,,,,,,,,,,,,,,10,,83,0
23249,note_on,,29,0,13,,,,,,,,,,,,,,,,11,,79,0
23250,note_on,,1,0,12,,,,,,,,,,,,,,,,10,,84,72
23250,note_on,,1,0,13,,,,,,,,,,,,,,,,11,,81,72
23279,note_on,,119,0,5,,,,,,,,,,,,,,,,0,,71,0
23279,note_on,,29,0,13,,,,,,,,,,,,,,,,11,,81,0
23279,note_on,,119,0,16,,,,,,,,,,,,,,,,15,,74,0
23279,note_on,,119,0,9,,,,,,,,,,,,,,,,6,,67,0
23279,note_on,,119,0,14,,,,,,,,,,,,,,,,12,,62,0
23279,note_on,,0,0,16,,,,,,,,,,,,,,,,15,,67,0
23279,note_on,,0,0,16,,,,,,,,,,,,,,,,15,,62,0
23279,note_on,,0,0,16,,,,,,,,,,,,,,,,15,,55,0
23279,note_on,,0,0,16,,,,,,,,,,,,,,,,15,,43,0
23279,note_on,,119,0,15,,,,,,,,,,,,,,,,13,,43,0
23279,note_on,,119,0,7,,,,,,,,,,,,,,,,2,,43,0
23279,note_on,,119,0,10,,,,,,,,,,,,,,,,7,,62,0
23279,note_on,,119,0,8,,,,,,,,,,,,,,,,5,,71,0
23279,note_on,,0,0,16,,,,,,,,,,,,,,,,15,,71,0
23279,note_on,,119,0,11,,,,,,,,,,,,,,,,8,,55,0
23279,note_on,,29,0,12,,,,,,,,,,,,,,,,10,,84,0
23279,note_on,,119,0,6,,,,,,,,,,,,,,,,1,,71,0
23280,note_on,,1,0,13,,,,,,,,,,,,,,,,11,,83,72
23280,note_on,,1,0,12,,,,,,,,,,,,,,,,10,,86,72
23309,note_on,,29,0,13,,,,,,,,,,,,,,,,11,,83,0
23309,note_on,,29,0,12,,,,,,,,,,,,,,,,10,,86,0
23310,note_on,,1,0,13,,,,,,,,,,,,,,,,11,,81,72
23310,note_on,,1,0,12,,,,,,,,,,,,,,,,10,,84,72
23339,note_on,,29,0,13,,,,,,,,,,,,,,,,11,,81,0
23339,note_on,,29,0,12,,,,,,,,,,,,,,,,10,,84,0
23340,note_on,,1,0,12,,,,,,,,,,,,,,,,10,,86,72
23340,note_on,,1,0,13,,,,,,,,,,,,,,,,11,,83,72
23369,note_on,,29,0,12,,,,,,,,,,,,,,,,10,,86,0
23369,note_on,,29,0,13,,,,,,,,,,,,,,,,11,,83,0
23370,note_on,,1,0,12,,,,,,,,,,,,,,,,10,,84,72
23370,note_on,,1,0,13,,,,,,,,,,,,,,,,11,,81,72
23399,note_on,,29,0,13,,,,,,,,,,,,,,,,11,,81,0
23399,note_on,,29,0,12,,,,,,,,,,,,,,,,10,,84,0
23400,note_on,,1,0,13,,,,,,,,,,,,,,,,11,,79,72
23400,note_on,,1,0,12,,,,,,,,,,,,,,,,10,,83,72
23429,note_on,,29,0,13,,,,,,,,,,,,,,,,11,,79,0
23429,note_on,,29,0,12,,,,,,,,,,,,,,,,10,,83,0
23430,note_on,,1,0,12,,,,,,,,,,,,,,,,10,,84,72
23430,note_on,,1,0,13,,,,,,,,,,,,,,,,11,,81,72
23459,note_on,,29,0,12,,,,,,,,,,,,,,,,10,,84,0
23459,note_on,,29,0,13,,,,,,,,,,,,,,,,11,,81,0
23460,note_on,,1,0,12,,,,,,,,,,,,,,,,10,,83,72
23460,note_on,,1,0,13,,,,,,,,,,,,,,,,11,,79,72
23489,note_on,,29,0,13,,,,,,,,,,,,,,,,11,,79,0
23489,note_on,,29,0,12,,,,,,,,,,,,,,,,10,,83,0
23490,note_on,,1,0,13,,,,,,,,,,,,,,,,11,,81,72
23490,note_on,,1,0,12,,,,,,,,,,,,,,,,10,,84,72
23519,note_on,,29,0,12,,,,,,,,,,,,,,,,10,,84,0
23519,note_on,,29,0,13,,,,,,,,,,,,,,,,11,,81,0
23520,note_on,,241,0,10,,,,,,,,,,,,,,,,7,,67,88
23520,note_on,,241,0,6,,,,,,,,,,,,,,,,1,,74,72
23520,note_on,,241,0,5,,,,,,,,,,,,,,,,0,,74,72
23520,note_on,,0,0,16,,,,,,,,,,,,,,,,15,,62,72
23520,note_on,,0,0,16,,,,,,,,,,,,,,,,15,,79,72
23520,note_on,,241,0,8,,,,,,,,,,,,,,,,5,,74,88
23520,note_on,,0,0,16,,,,,,,,,,,,,,,,15,,83,72
23520,note_on,,1,0,12,,,,,,,,,,,,,,,,10,,86,72
23520,note_on,,241,0,9,,,,,,,,,,,,,,,,6,,71,88
23520,note_on,,241,0,16,,,,,,,,,,,,,,,,15,,74,72
23520,note_on,,241,0,14,,,,,,,,,,,,,,,,12,,67,72
23520,note_on,,241,0,11,,,,,,,,,,,,,,,,8,,55,88
23520,note_on,,0,0,16,,,,,,,,,,,,,,,,15,,55,72
23520,note_on,,1,0,13,,,,,,,,,,,,,,,,11,,83,72
23520,note_on,,241,0,7,,,,,,,,,,,,,,,,2,,55,72
23520,note_on,,241,0,15,,,,,,,,,,,,,,,,13,,55,72
23549,note_on,,29,0,13,,,,,,,,,,,,,,,,11,,83,0
23549,note_on,,29,0,12,,,,,,,,,,,,,,,,10,,86,0
23550,note_on,,1,0,13,,,,,,,,,,,,,,,,11,,81,72
23550,note_on,,1,0,12,,,,,,,,,,,,,,,,10,,84,72
23579,note_on,,29,0,13,,,,,,,,,,,,,,,,11,,81,0
23579,note_on,,29,0,12,,,,,,,,,,,,,,,,10,,84,0
23580,note_on,,1,0,12,,,,,,,,,,,,,,,,10,,86,72
23580,note_on,,1,0,13,,,,,,,,,,,,,,,,11,,83,72
23609,note_on,,89,0,16,,,,,,,,,,,,,,,,15,,55,0
23609,note_on,,0,0,16,,,,,,,,,,,,,,,,15,,62,0
23609,note_on,,89,0,6,,,,,,,,,,,,,,,,1,,74,0
23609,note_on,,89,0,5,,,,,,,,,,,,,,,,0,,74,0
23609,note_on,,89,0,15,,,,,,,,,,,,,,,,13,,55,0
23609,note_on,,89,0,7,,,,,,,,,,,,,,,,2,,55,0
23609,note_on,,89,0,9,,,,,,,,,,,,,,,,6,,71,0
23609,note_on,,89,0,10,,,,,,,,,,,,,,,,7,,67,0
23609,note_on,,89,0,14,,,,,,,,,,,,,,,,12,,67,0
23609,note_on,,89,0,11,,,,,,,,,,,,,,,,8,,55,0
23609,note_on,,29,0,13,,,,,,,,,,,,,,,,11,,83,0
23609,note_on,,89,0,8,,,,,,,,,,,,,,,,5,,74,0
23609,note_on,,29,0,12,,,,,,,,,,,,,,,,10,,86,0
23610,note_on,,1,0,9,,,,,,,,,,,,,,,,6,,69,88
23610,note_on,,1,0,15,,,,,,,,,,,,,,,,13,,43,72
23610,note_on,,0,0,16,,,,,,,,,,,,,,,,15,,55,72
23610,note_on,,1,0,14,,,,,,,,,,,,,,,,12,,62,72
23610,note_on,,1,0,16,,,,,,,,,,,,,,,,15,,43,72
23610,note_on,,1,0,10,,,,,,,,,,,,,,,,7,,62,88
23610,note_on,,1,0,8,,,,,,,,,,,,,,,,5,,72,88
23610,note_on,,1,0,7,,,,,,,,,,,,,,,,2,,43,72
23610,note_on,,1,0,13,,,,,,,,,,,,,,,,11,,81,72
23610,note_on,,1,0,5,,,,,,,,,,,,,,,,0,,72,72
23610,note_on,,1,0,12,,,,,,,,,,,,,,,,10,,84,72
23610,note_on,,1,0,11,,,,,,,,,,,,,,,,8,,55,88
23610,note_on,,1,0,6,,,,,,,,,,,,,,,,1,,72,72
23639,note_on,,0,0,16,,,,,,,,,,,,,,,,15,,55,0
23639,note_on,,29,0,9,,,,,,,,,,,,,,,,6,,69,0
23639,note_on,,29,0,16,,,,,,,,,,,,,,,,15,,43,0
23639,note_on,,29,0,8,,,,,,,,,,,,,,,,5,,72,0
23639,note_on,,29,0,11,,,,,,,,,,,,,,,,8,,55,0
23639,note_on,,29,0,6,,,,,,,,,,,,,,,,1,,72,0
23639,note_on,,29,0,14,,,,,,,,,,,,,,,,12,,62,0
23639,note_on,,29,0,12,,,,,,,,,,,,,,,,10,,84,0
23639,note_on,,29,0,10,,,,,,,,,,,,,,,,7,,62,0
23639,note_on,,29,0,15,,,,,,,,,,,,,,,,13,,43,0
23639,note_on,,29,0,13,,,,,,,,,,,,,,,,11,,81,0
23639,note_on,,29,0,7,,,,,,,,,,,,,,,,2,,43,0
23639,note_on,,29,0,5,,,,,,,,,,,,,,,,0,,72,0
23640,note_on,,1,0,11,,,,,,,,,,,,,,,,8,,55,88
23640,note_on,,1,0,6,,,,,,,,,,,,,,,,1,,71,72
23640,note_on,,1,0,12,,,,,,,,,,,,,,,,10,,83,72
23640,note_on,,1,0,16,,,,,,,,,,,,,,,,15,,43,72
23640,note_on,,1,0,7,,,,,,,,,,,,,,,,2,,43,72
23640,note_on,,1,0,5,,,,,,,,,,,,,,,,0,,71,72
23640,note_on,,1,0,15,,,,,,,,,,,,,,,,13,,43,72
23640,note_on,,1,0,10,,,,,,,,,,,,,,,,7,,62,88
23640,note_on,,1,0,13,,,,,,,,,,,,,,,,11,,79,72
23640,note_on,,0,0,16,,,,,,,,,,,,,,,,15,,55,72
23640,note_on,,1,0,14,,,,,,,,,,,,,,,,12,,62,72
23640,note_on,,1,0,8,,,,,,,,,,,,,,,,5,,71,88
23640,note_on,,1,0,9,,,,,,,,,,,,,,,,6,,67,88
23669,note_on,,29,0,12,,,,,,,,,,,,,,,,10,,83,0
23669,note_on,,29,0,13,,,,,,,,,,,,,,,,11,,79,0
23670,note_on,,1,0,13,,,,,,,,,,,,,,,,11,,81,72
23670,note_on,,1,0,12,,,,,,,,,,,,,,,,10,,84,72
23699,note_on,,29,0,13,,,,,,,,,,,,,,,,11,,81,0
23699,note_on,,29,0,12,,,,,,,,,,,,,,,,10,,84,0
23700,note_on,,1,0,13,,,,,,,,,,,,,,,,11,,79,72
23700,note_on,,1,0,12,,,,,,,,,,,,,,,,10,,83,72
23729,note_on,,29,0,13,,,,,,,,,,,,,,,,11,,79,0
23729,note_on,,29,0,12,,,,,,,,,,,,,,,,10,,83,0
23730,note_on,,1,0,12,,,,,,,,,,,,,,,,10,,84,72
23730,note_on,,1,0,13,,,,,,,,,,,,,,,,11,,81,72
23759,note_on,,0,0,16,,,,,,,,,,,,,,,,15,,83,0
23759,note_on,,119,0,11,,,,,,,,,,,,,,,,8,,55,0
23759,note_on,,119,0,5,,,,,,,,,,,,,,,,0,,71,0
23759,note_on,,119,0,8,,,,,,,,,,,,,,,,5,,71,0
23759,note_on,,29,0,12,,,,,,,,,,,,,,,,10,,84,0
23759,note_on,,119,0,16,,,,,,,,,,,,,,,,15,,74,0
23759,note_on,,119,0,14,,,,,,,,,,,,,,,,12,,62,0
23759,note_on,,29,0,13,,,,,,,,,,,,,,,,11,,81,0
23759,note_on,,119,0,10,,,,,,,,,,,,,,,,7,,62,0
23759,note_on,,119,0,7,,,,,,,,,,,,,,,,2,,43,0
23759,note_on,,119,0,15,,,,,,,,,,,,,,,,13,,43,0
23759,note_on,,119,0,6,,,,,,,,,,,,,,,,1,,71,0
23759,note_on,,0,0,16,,,,,,,,,,,,,,,,15,,79,0
23759,note_on,,0,0,16,,,,,,,,,,,,,,,,15,,43,0
23759,note_on,,0,0,16,,,,,,,,,,,,,,,,15,,55,0
23759,note_on,,119,0,9,,,,,,,,,,,,,,,,6,,67,0
23760,note_on,,1,0,13,,,,,,,,,,,,,,,,11,,83,72
23760,note_on,,1,0,12,,,,,,,,,,,,,,,,10,,86,72
23789,note_on,,29,0,13,,,,,,,,,,,,,,,,11,,83,0
23789,note_on,,29,0,12,,,,,,,,,,,,,,,,10,,86,0
23790,note_on,,1,0,13,,,,,,,,,,,,,,,,11,,81,72
23790,note_on,,1,0,12,,,,,,,,,,,,,,,,10,,84,72
23819,note_on,,29,0,13,,,,,,,,,,,,,,,,11,,81,0
23819,note_on,,29,0,12,,,,,,,,,,,,,,,,10,,84,0
23820,note_on,,1,0,13,,,,,,,,,,,,,,,,11,,83,72
23820,note_on,,1,0,12,,,,,,,,,,,,,,,,10,,86,72
23849,note_on,,29,0,12,,,,,,,,,,,,,,,,10,,86,0
23849,note_on,,29,0,13,,,,,,,,,,,,,,,,11,,83,0
23850,note_on,,1,0,12,,,,,,,,,,,,,,,,10,,84,72
23850,note_on,,1,0,13,,,,,,,,,,,,,,,,11,,81,72
23879,note_on,,29,0,12,,,,,,,,,,,,,,,,10,,84,0
23879,note_on,,29,0,13,,,,,,,,,,,,,,,,11,,81,0
23880,note_on,,1,0,12,,,,,,,,,,,,,,,,10,,83,72
23880,note_on,,1,0,13,,,,,,,,,,,,,,,,11,,79,72
23909,note_on,,29,0,12,,,,,,,,,,,,,,,,10,,83,0
23909,note_on,,29,0,13,,,,,,,,,,,,,,,,11,,79,0
23910,note_on,,1,0,12,,,,,,,,,,,,,,,,10,,84,72
23910,note_on,,1,0,13,,,,,,,,,,,,,,,,11,,81,72
23939,note_on,,29,0,12,,,,,,,,,,,,,,,,10,,84,0
23939,note_on,,29,0,13,,,,,,,,,,,,,,,,11,,81,0
23940,note_on,,1,0,13,,,,,,,,,,,,,,,,11,,79,72
23940,note_on,,1,0,12,,,,,,,,,,,,,,,,10,,83,72
23969,note_on,,29,0,12,,,,,,,,,,,,,,,,10,,83,0
23969,note_on,,29,0,13,,,,,,,,,,,,,,,,11,,79,0
23970,note_on,,1,0,13,,,,,,,,,,,,,,,,11,,81,72
23970,note_on,,1,0,12,,,,,,,,,,,,,,,,10,,84,72
23999,note_on,,29,0,13,,,,,,,,,,,,,,,,11,,81,0
23999,note_on,,29,0,12,,,,,,,,,,,,,,,,10,,84,0
24000,note_on,,1,0,12,,,,,,,,,,,,,,,,10,,86,72
24000,note_on,,1,0,13,,,,,,,,,,,,,,,,11,,83,72
24029,note_on,,29,0,12,,,,,,,,,,,,,,,,10,,86,0
24029,note_on,,29,0,13,,,,,,,,,,,,,,,,11,,83,0
24030,note_on,,1,0,12,,,,,,,,,,,,,,,,10,,84,72
24030,note_on,,1,0,13,,,,,,,,,,,,,,,,11,,81,72
24059,note_on,,29,0,12,,,,,,,,,,,,,,,,10,,84,0
24059,note_on,,29,0,13,,,,,,,,,,,,,,,,11,,81,0
24060,note_on,,0,0,16,,,,,,,,,,,,,,,,15,,59,72
24060,note_on,,301,0,9,,,,,,,,,,,,,,,,6,,67,88
24060,note_on,,301,0,8,,,,,,,,,,,,,,,,5,,74,88
24060,note_on,,301,0,5,,,,,,,,,,,,,,,,0,,74,72
24060,note_on,,301,0,11,,,,,,,,,,,,,,,,8,,55,88
24060,note_on,,1,0,12,,,,,,,,,,,,,,,,10,,86,72
24060,note_on,,0,0,16,,,,,,,,,,,,,,,,15,,62,72
24060,note_on,,301,0,14,,,,,,,,,,,,,,,,12,,67,72
24060,note_on,,301,0,10,,,,,,,,,,,,,,,,7,,59,88
24060,note_on,,1,0,13,,,,,,,,,,,,,,,,11,,83,72
24060,note_on,,301,0,6,,,,,,,,,,,,,,,,1,,74,72
24060,note_on,,0,0,16,,,,,,,,,,,,,,,,15,,71,72
24060,note_on,,301,0,7,,,,,,,,,,,,,,,,2,,55,72
24060,note_on,,301,0,15,,,,,,,,,,,,,,,,13,,55,72
24060,note_on,,301,0,16,,,,,,,,,,,,,,,,15,,55,72
24060,note_on,,0,0,16,,,,,,,,,,,,,,,,15,,67,72
24089,note_on,,29,0,13,,,,,,,,,,,,,,,,11,,83,0
24089,note_on,,29,0,12,,,,,,,,,,,,,,,,10,,86,0
24090,note_on,,1,0,13,,,,,,,,,,,,,,,,11,,81,72
24090,note_on,,1,0,12,,,,,,,,,,,,,,,,10,,84,72
24119,note_on,,59,0,8,,,,,,,,,,,,,,,,5,,74,0
24119,note_on,,59,0,7,,,,,,,,,,,,,,,,2,,55,0
24119,note_on,,59,0,15,,,,,,,,,,,,,,,,13,,55,0
24119,note_on,,59,0,6,,,,,,,,,,,,,,,,1,,74,0
24119,note_on,,0,0,16,,,,,,,,,,,,,,,,15,,67,0
24119,note_on,,59,0,5,,,,,,,,,,,,,,,,0,,74,0
24119,note_on,,0,0,16,,,,,,,,,,,,,,,,15,,71,0
24119,note_on,,59,0,16,,,,,,,,,,,,,,,,15,,55,0
24119,note_on,,59,0,11,,,,,,,,,,,,,,,,8,,55,0
24119,note_on,,0,0,16,,,,,,,,,,,,,,,,15,,59,0
24119,note_on,,59,0,10,,,,,,,,,,,,,,,,7,,59,0
24119,note_on,,29,0,13,,,,,,,,,,,,,,,,11,,81,0
24119,note_on,,59,0,14,,,,,,,,,,,,,,,,12,,67,0
24119,note_on,,59,0,9,,,,,,,,,,,,,,,,6,,67,0
24119,note_on,,29,0,12,,,,,,,,,,,,,,,,10,,84,0
24119,note_on,,0,0,16,,,,,,,,,,,,,,,,15,,62,0
24120,note_on,,1,0,8,,,,,,,,,,,,,,,,5,,74,88
24120,note_on,,1,0,11,,,,,,,,,,,,,,,,8,,55,88
24120,note_on,,1,0,14,,,,,,,,,,,,,,,,12,,67,72
24120,note_on,,0,0,16,,,,,,,,,,,,,,,,15,,67,72
24120,note_on,,1,0,15,,,,,,,,,,,,,,,,13,,55,72
24120,note_on,,1,0,5,,,,,,,,,,,,,,,,0,,74,72
24120,note_on,,0,0,16,,,,,,,,,,,,,,,,15,,71,72
24120,note_on,,1,0,6,,,,,,,,,,,,,,,,1,,74,72
24120,note_on,,1,0,16,,,,,,,,,,,,,,,,15,,55,72
24120,note_on,,0,0,16,,,,,,,,,,,,,,,,15,,62,72
24120,note_on,,1,0,12,,,,,,,,,,,,,,,,10,,83,72
24120,note_on,,1,0,7,,,,,,,,,,,,,,,,2,,55,72
24120,note_on,,0,0,16,,,,,,,,,,,,,,,,15,,59,72
24120,note_on,,1,0,13,,,,,,,,,,,,,,,,11,,79,72
24120,note_on,,1,0,9,,,,,,,,,,,,,,,,6,,67,88
24120,note_on,,1,0,10,,,,,,,,,,,,,,,,7,,59,88
24149,note_on,,29,0,12,,,,,,,,,,,,,,,,10,,83,0
24149,note_on,,29,0,13,,,,,,,,,,,,,,,,11,,79,0
24150,note_on,,1,0,12,,,,,,,,,,,,,,,,10,,84,72
24150,note_on,,1,0,13,,,,,,,,,,,,,,,,11,,81,72
24179,note_on,,0,0,16,,,,,,,,,,,,,,,,15,,71,0
24179,note_on,,0,0,16,,,,,,,,,,,,,,,,15,,67,0
24179,note_on,,0,0,16,,,,,,,,,,,,,,,,15,,59,0
24179,note_on,,0,0,16,,,,,,,,,,,,,,,,15,,62,0
24179,note_on,,59,0,6,,,,,,,,,,,,,,,,1,,74,0
24179,note_on,,59,0,16,,,,,,,,,,,,,,,,15,,55,0
24179,note_on,,59,0,14,,,,,,,,,,,,,,,,12,,67,0
24179,note_on,,59,0,5,,,,,,,,,,,,,,,,0,,74,0
24179,note_on,,59,0,9,,,,,,,,,,,,,,,,6,,67,0
24179,note_on,,59,0,15,,,,,,,,,,,,,,,,13,,55,0
24179,note_on,,59,0,7,,,,,,,,,,,,,,,,2,,55,0
24179,note_on,,59,0,10,,,,,,,,,,,,,,,,7,,59,0
24179,note_on,,59,0,11,,,,,,,,,,,,,,,,8,,55,0
24179,note_on,,29,0,13,,,,,,,,,,,,,,,,11,,81,0
24179,note_on,,29,0,12,,,,,,,,,,,,,,,,10,,84,0
24179,note_on,,59,0,8,,,,,,,,,,,,,,,,5,,74,0
24180,note_on,,1,0,14,,,,,,,,,,,,,,,,12,,67,72
24180,note_on,,1,0,7,,,,,,,,,,,,,,,,2,,55,72
24180,note_on,,1,0,8,,,,,,,,,,,,,,,,5,,74,88
24180,note_on,,1,0,6,,,,,,,,,,,,,,,,1,,74,72
24180,note_on,,1,0,9,,,,,,,,,,,,,,,,6,,67,88
24180,note_on,,1,0,5,,,,,,,,,,,,,,,,0,,74,72
24180,note_on,,1,0,16,,,,,,,,,,,,,,,,15,,55,72
24180,note_on,,0,0,16,,,,,,,,,,,,,,,,15,,71,72
24180,note_on,,0,0,16,,,,,,,,,,,,,,,,15,,67,72
24180,note_on,,1,0,12,,,,,,,,,,,,,,,,10,,83,72
24180,note_on,,0,0,16,,,,,,,,,,,,,,,,15,,62,72
24180,note_on,,0,0,16,,,,,,,,,,,,,,,,15,,59,72
24180,note_on,,1,0,11,,,,,,,,,,,,,,,,8,,55,88
24180,note_on,,1,0,13,,,,,,,,,,,,,,,,11,,79,72
24180,note_on,,1,0,10,,,,,,,,,,,,,,,,7,,59,88
24180,note_on,,1,0,15,,,,,,,,,,,,,,,,13,,55,72
24209,note_on,,29,0,13,,,,,,,,,,,,,,,,11,,79,0
24209,note_on,,29,0,12,,,,,,,,,,,,,,,,10,,83,0
24210,note_on,,1,0,13,,,,,,,,,,,,,,,,11,,81,72
24210,note_on,,1,0,12,,,,,,,,,,,,,,,,10,,84,72
24239,note_on,,59,0,11,,,,,,,,,,,,,,,,8,,55,0
24239,note_on,,59,0,7,,,,,,,,,,,,,,,,2,,55,0
24239,note_on,,29,0,12,,,,,,,,,,,,,,,,10,,84,0
24239,note_on,,59,0,16,,,,,,,,,,,,,,,,15,,55,0
24239,note_on,,0,0,16,,,,,,,,,,,,,,,,15,,71,0
24239,note_on,,0,0,16,,,,,,,,,,,,,,,,15,,67,0
24239,note_on,,0,0,16,,,,,,,,,,,,,,,,15,,62,0
24239,note_on,,0,0,16,,,,,,,,,,,,,,,,15,,59,0
24239,note_on,,59,0,10,,,,,,,,,,,,,,,,7,,59,0
24239,note_on,,59,0,9,,,,,,,,,,,,,,,,6,,67,0
24239,note_on,,29,0,13,,,,,,,,,,,,,,,,11,,81,0
24239,note_on,,59,0,5,,,,,,,,,,,,,,,,0,,74,0
24239,note_on,,59,0,6,,,,,,,,,,,,,,,,1,,74,0
24239,note_on,,59,0,14,,,,,,,,,,,,,,,,12,,67,0
24239,note_on,,59,0,15,,,,,,,,,,,,,,,,13,,55,0
24239,note_on,,59,0,8,,,,,,,,,,,,,,,,5,,74,0
24240,note_on,,1,0,5,,,,,,,,,,,,,,,,0,,79,72
24240,note_on,,1,0,8,,,,,,,,,,,,,,,,5,,79,88
24240,note_on,,1,0,6,,,,,,,,,,,,,,,,1,,79,72
24240,note_on,,1,0,7,,,,,,,,,,,,,,,,2,,59,72
24240,note_on,,1,0,16,,,,,,,,,,,,,,,,15,,59,72
24240,note_on,,0,0,16,,,,,,,,,,,,,,,,15,,79,72
24240,note_on,,0,0,16,,,,,,,,,,,,,,,,15,,74,72
24240,note_on,,0,0,16,,,,,,,,,,,,,,,,15,,67,72
24240,note_on,,0,0,16,,,,,,,,,,,,,,,,15,,62,72
24240,note_on,,1,0,10,,,,,,,,,,,,,,,,7,,62,88
24240,note_on,,1,0,15,,,,,,,,,,,,,,,,13,,59,72
24240,note_on,,1,0,9,,,,,,,,,,,,,,,,6,,67,88
24240,note_on,,1,0,11,,,,,,,,,,,,,,,,8,,59,88
24240,note_on,,1,0,13,,,,,,,,,,,,,,,,11,,83,72
24240,note_on,,1,0,14,,,,,,,,,,,,,,,,12,,74,72
24240,note_on,,1,0,12,,,,,,,,,,,,,,,,10,,86,72
24269,note_on,,29,0,13,,,,,,,,,,,,,,,,11,,83,0
24269,note_on,,29,0,12,,,,,,,,,,,,,,,,10,,86,0
24270,note_on,,1,0,13,,,,,,,,,,,,,,,,11,,81,72
24270,note_on,,1,0,12,,,,,,,,,,,,,,,,10,,84,72
24299,note_on,,29,0,13,,,,,,,,,,,,,,,,11,,81,0
24299,note_on,,29,0,12,,,,,,,,,,,,,,,,10,,84,0
24300,note_on,,1,0,13,,,,,,,,,,,,,,,,11,,83,72
24300,note_on,,1,0,12,,,,,,,,,,,,,,,,10,,86,72
24329,note_on,,29,0,12,,,,,,,,,,,,,,,,10,,86,0
24329,note_on,,29,0,13,,,,,,,,,,,,,,,,11,,83,0
24330,note_on,,1,0,13,,,,,,,,,,,,,,,,11,,81,72
24330,note_on,,1,0,12,,,,,,,,,,,,,,,,10,,84,72
24359,note_on,,0,0,16,,,,,,,,,,,,,,,,15,,67,0
24359,note_on,,119,0,9,,,,,,,,,,,,,,,,6,,67,0
24359,note_on,,29,0,13,,,,,,,,,,,,,,,,11,,81,0
24359,note_on,,119,0,10,,,,,,,,,,,,,,,,7,,62,0
24359,note_on,,119,0,15,,,,,,,,,,,,,,,,13,,59,0
24359,note_on,,0,0,16,,,,,,,,,,,,,,,,15,,74,0
24359,note_on,,0,0,16,,,,,,,,,,,,,,,,15,,79,0
24359,note_on,,119,0,14,,,,,,,,,,,,,,,,12,,74,0
24359,note_on,,119,0,7,,,,,,,,,,,,,,,,2,,59,0
24359,note_on,,119,0,16,,,,,,,,,,,,,,,,15,,59,0
24359,note_on,,119,0,8,,,,,,,,,,,,,,,,5,,79,0
24359,note_on,,119,0,6,,,,,,,,,,,,,,,,1,,79,0
24359,note_on,,0,0,16,,,,,,,,,,,,,,,,15,,62,0
24359,note_on,,119,0,11,,,,,,,,,,,,,,,,8,,59,0
24359,note_on,,29,0,12,,,,,,,,,,,,,,,,10,,84,0
24359,note_on,,119,0,5,,,,,,,,,,,,,,,,0,,79,0
24360,note_on,,1,0,13,,,,,,,,,,,,,,,,11,,79,72
24360,note_on,,1,0,12,,,,,,,,,,,,,,,,10,,83,72
24389,note_on,,29,0,12,,,,,,,,,,,,,,,,10,,83,0
24389,note_on,,29,0,13,,,,,,,,,,,,,,,,11,,79,0
24390,note_on,,1,0,13,,,,,,,,,,,,,,,,11,,81,72
24390,note_on,,1,0,12,,,,,,,,,,,,,,,,10,,84,72
24419,note_on,,29,0,12,,,,,,,,,,,,,,,,10,,84,0
24419,note_on,,29,0,13,,,,,,,,,,,,,,,,11,,81,0
24420,note_on,,61,0,6,,,,,,,,,,,,,,,,1,,74,72
24420,note_on,,61,0,5,,,,,,,,,,,,,,,,0,,74,72
24420,note_on,,61,0,14,,,,,,,,,,,,,,,,12,,62,72
24420,note_on,,61,0,9,,,,,,,,,,,,,,,,6,,67,88
24420,note_on,,61,0,11,,,,,,,,,,,,,,,,8,,55,88
24420,note_on,,0,0,16,,,,,,,,,,,,,,,,15,,59,72
24420,note_on,,1,0,13,,,,,,,,,,,,,,,,11,,79,72
24420,note_on,,0,0,16,,,,,,,,,,,,,,,,15,,67,72
24420,note_on,,0,0,16,,,,,,,,,,,,,,,,15,,74,72
24420,note_on,,0,0,16,,,,,,,,,,,,,,,,15,,79,72
24420,note_on,,61,0,16,,,,,,,,,,,,,,,,15,,55,72
24420,note_on,,61,0,8,,,,,,,,,,,,,,,,5,,74,88
24420,note_on,,1,0,12,,,,,,,,,,,,,,,,10,,83,72
24420,note_on,,61,0,15,,,,,,,,,,,,,,,,13,,55,72
24420,note_on,,61,0,7,,,,,,,,,,,,,,,,2,,55,72
24420,note_on,,61,0,10,,,,,,,,,,,,,,,,7,,59,88
24449,note_on,,29,0,13,,,,,,,,,,,,,,,,11,,79,0
24449,note_on,,29,0,12,,,,,,,,,,,,,,,,10,,83,0
24450,note_on,,1,0,12,,,,,,,,,,,,,,,,10,,84,72
24450,note_on,,1,0,13,,,,,,,,,,,,,,,,11,,81,72
24479,note_on,,59,0,5,,,,,,,,,,,,,,,,0,,74,0
24479,note_on,,0,0,16,,,,,,,,,,,,,,,,15,,59,0
24479,note_on,,0,0,16,,,,,,,,,,,,,,,,15,,67,0
24479,note_on,,0,0,16,,,,,,,,,,,,,,,,15,,74,0
24479,note_on,,59,0,16,,,,,,,,,,,,,,,,15,,55,0
24479,note_on,,59,0,9,,,,,,,,,,,,,,,,6,,67,0
24479,note_on,,59,0,15,,,,,,,,,,,,,,,,13,,55,0
24479,note_on,,59,0,14,,,,,,,,,,,,,,,,12,,62,0
24479,note_on,,0,0,16,,,,,,,,,,,,,,,,15,,79,0
24479,note_on,,59,0,6,,,,,,,,,,,,,,,,1,,74,0
24479,note_on,,59,0,11,,,,,,,,,,,,,,,,8,,55,0
24479,note_on,,29,0,13,,,,,,,,,,,,,,,,11,,81,0
24479,note_on,,29,0,12,,,,,,,,,,,,,,,,10,,84,0
24479,note_on,,59,0,10,,,,,,,,,,,,,,,,7,,59,0
24479,note_on,,59,0,7,,,,,,,,,,,,,,,,2,,55,0
24479,note_on,,59,0,8,,,,,,,,,,,,,,,,5,,74,0
24480,note_on,,1,0,5,,,,,,,,,,,,,,,,0,,74,72
24480,note_on,,0,0,16,,,,,,,,,,,,,,,,15,,71,72
24480,note_on,,0,0,16,,,,,,,,,,,,,,,,15,,74,72
24480,note_on,,1,0,16,,,,,,,,,,,,,,,,15,,55,72
24480,note_on,,1,0,13,,,,,,,,,,,,,,,,11,,83,72
24480,note_on,,1,0,11,,,,,,,,,,,,,,,,8,,55,88
24480,note_on,,1,0,15,,,,,,,,,,,,,,,,13,,55,72
24480,note_on,,1,0,12,,,,,,,,,,,,,,,,10,,86,72
24480,note_on,,1,0,7,,,,,,,,,,,,,,,,2,,55,72
24480,note_on,,0,0,16,,,,,,,,,,,,,,,,15,,67,72
24480,note_on,,0,0,16,,,,,,,,,,,,,,,,15,,62,72
24480,note_on,,1,0,10,,,,,,,,,,,,,,,,7,,59,88
24480,note_on,,1,0,8,,,,,,,,,,,,,,,,5,,74,88
24480,note_on,,1,0,6,,,,,,,,,,,,,,,,1,,74,72
24480,note_on,,1,0,14,,,,,,,,,,,,,,,,12,,67,72
24480,note_on,,1,0,9,,,,,,,,,,,,,,,,6,,67,88
24509,note_on,,29,0,12,,,,,,,,,,,,,,,,10,,86,0
24509,note_on,,29,0,13,,,,,,,,,,,,,,,,11,,83,0
24510,note_on,,1,0,12,,,,,,,,,,,,,,,,10,,84,72
24510,note_on,,1,0,13,,,,,,,,,,,,,,,,11,,81,72
24539,note_on,,0,0,16,,,,,,,,,,,,,,,,15,,74,0
24539,note_on,,59,0,16,,,,,,,,,,,,,,,,15,,55,0
24539,note_on,,59,0,14,,,,,,,,,,,,,,,,12,,67,0
24539,note_on,,59,0,9,,,,,,,,,,,,,,,,6,,67,0
24539,note_on,,29,0,13,,,,,,,,,,,,,,,,11,,81,0
24539,note_on,,0,0,16,,,,,,,,,,,,,,,,15,,62,0
24539,note_on,,59,0,15,,,,,,,,,,,,,,,,13,,55,0
24539,note_on,,59,0,8,,,,,,,,,,,,,,,,5,,74,0
24539,note_on,,59,0,7,,,,,,,,,,,,,,,,2,,55,0
24539,note_on,,0,0,16,,,,,,,,,,,,,,,,15,,71,0
24539,note_on,,0,0,16,,,,,,,,,,,,,,,,15,,67,0
24539,note_on,,59,0,5,,,,,,,,,,,,,,,,0,,74,0
24539,note_on,,59,0,11,,,,,,,,,,,,,,,,8,,55,0
24539,note_on,,59,0,10,,,,,,,,,,,,,,,,7,,59,0
24539,note_on,,59,0,6,,,,,,,,,,,,,,,,1,,74,0
24539,note_on,,29,0,12,,,,,,,,,,,,,,,,10,,84,0
24540,note_on,,1,0,9,,,,,,,,,,,,,,,,6,,67,88
24540,note_on,,1,0,11,,,,,,,,,,,,,,,,8,,55,88
24540,note_on,,1,0,10,,,,,,,,,,,,,,,,7,,59,88
24540,note_on,,0,0,16,,,,,,,,,,,,,,,,15,,62,72
24540,note_on,,0,0,16,,,,,,,,,,,,,,,,15,,67,72
24540,note_on,,0,0,16,,,,,,,,,,,,,,,,15,,71,72
24540,note_on,,0,0,16,,,,,,,,,,,,,,,,15,,74,72
24540,note_on,,1,0,16,,,,,,,,,,,,,,,,15,,55,72
24540,note_on,,1,0,7,,,,,,,,,,,,,,,,2,,55,72
24540,note_on,,1,0,8,,,,,,,,,,,,,,,,5,,74,88
24540,note_on,,1,0,5,,,,,,,,,,,,,,,,0,,74,72
24540,note_on,,1,0,12,,,,,,,,,,,,,,,,10,,86,72
24540,note_on,,1,0,13,,,,,,,,,,,,,,,,11,,83,72
24540,note_on,,1,0,6,,,,,,,,,,,,,,,,1,,74,72
24540,note_on,,1,0,14,,,,,,,,,,,,,,,,12,,67,72
24540,note_on,,1,0,15,,,,,,,,,,,,,,,,13,,55,72
24569,note_on,,29,0,13,,,,,,,,,,,,,,,,11,,83,0
24569,note_on,,29,0,12,,,,,,,,,,,,,,,,10,,86,0
24570,note_on,,1,0,13,,,,,,,,,,,,,,,,11,,81,72
24570,note_on,,1,0,12,,,,,,,,,,,,,,,,10,,84,72
24599,note_on,,59,0,5,,,,,,,,,,,,,,,,0,,74,0
24599,note_on,,59,0,8,,,,,,,,,,,,,,,,5,,74,0
24599,note_on,,59,0,7,,,,,,,,,,,,,,,,2,,55,0
24599,note_on,,0,0,16,,,,,,,,,,,,,,,,15,,62,0
24599,note_on,,0,0,16,,,,,,,,,,,,,,,,15,,67,0
24599,note_on,,59,0,10,,,,,,,,,,,,,,,,7,,59,0
24599,note_on,,29,0,12,,,,,,,,,,,,,,,,10,,84,0
24599,note_on,,59,0,16,,,,,,,,,,,,,,,,15,,55,0
24599,note_on,,0,0,16,,,,,,,,,,,,,,,,15,,74,0
24599,note_on,,29,0,13,,,,,,,,,,,,,,,,11,,81,0
24599,note_on,,59,0,15,,,,,,,,,,,,,,,,13,,55,0
24599,note_on,,59,0,14,,,,,,,,,,,,,,,,12,,67,0
24599,note_on,,59,0,6,,,,,,,,,,,,,,,,1,,74,0
24599,note_on,,59,0,11,,,,,,,,,,,,,,,,8,,55,0
24599,note_on,,59,0,9,,,,,,,,,,,,,,,,6,,67,0
24599,note_on,,0,0,16,,,,,,,,,,,,,,,,15,,71,0
24600,note_on,,1,0,9,,,,,,,,,,,,,,,,6,,71,88
24600,note_on,,1,0,8,,,,,,,,,,,,,,,,5,,79,88
24600,note_on,,1,0,7,,,,,,,,,,,,,,,,2,,55,72
24600,note_on,,1,0,6,,,,,,,,,,,,,,,,1,,79,72
24600,note_on,,1,0,5,,,,,,,,,,,,,,,,0,,79,72
24600,note_on,,1,0,12,,,,,,,,,,,,,,,,10,,83,72
24600,note_on,,1,0,14,,,,,,,,,,,,,,,,12,,62,72
24600,note_on,,1,0,15,,,,,,,,,,,,,,,,13,,55,72
24600,note_on,,1,0,16,,,,,,,,,,,,,,,,15,,55,72
24600,note_on,,1,0,11,,,,,,,,,,,,,,,,8,,55,88
24600,note_on,,0,0,16,,,,,,,,,,,,,,,,15,,79,72
24600,note_on,,0,0,16,,,,,,,,,,,,,,,,15,,67,72
24600,note_on,,0,0,16,,,,,,,,,,,,,,,,15,,59,72
24600,note_on,,1,0,10,,,,,,,,,,,,,,,,7,,62,88
24600,note_on,,1,0,13,,,,,,,,,,,,,,,,11,,79,72
24600,note_on,,0,0,16,,,,,,,,,,,,,,,,15,,74,72
24629,note_on,,29,0,13,,,,,,,,,,,,,,,,11,,79,0
24629,note_on,,29,0,12,,,,,,,,,,,,,,,,10,,83,0
24630,note_on,,1,0,13,,,,,,,,,,,,,,,,11,,78,72
24630,note_on,,1,0,12,,,,,,,,,,,,,,,,10,,81,72
24659,note_on,,0,0,16,,,,,,,,,,,,,,,,15,,67,0
24659,note_on,,0,0,16,,,,,,,,,,,,,,,,15,,59,0
24659,note_on,,59,0,16,,,,,,,,,,,,,,,,15,,55,0
24659,note_on,,0,0,16,,,,,,,,,,,,,,,,15,,79,0
24659,note_on,,0,0,16,,,,,,,,,,,,,,,,15,,74,0
24659,note_on,,59,0,8,,,,,,,,,,,,,,,,5,,79,0
24659,note_on,,59,0,15,,,,,,,,,,,,,,,,13,,55,0
24659,note_on,,59,0,7,,,,,,,,,,,,,,,,2,,55,0
24659,note_on,,59,0,6,,,,,,,,,,,,,,,,1,,79,0
24659,note_on,,59,0,5,,,,,,,,,,,,,,,,0,,79,0
24659,note_on,,59,0,9,,,,,,,,,,,,,,,,6,,71,0
24659,note_on,,59,0,11,,,,,,,,,,,,,,,,8,,55,0
24659,note_on,,59,0,10,,,,,,,,,,,,,,,,7,,62,0
24659,note_on,,59,0,14,,,,,,,,,,,,,,,,12,,62,0
24659,note_on,,29,0,13,,,,,,,,,,,,,,,,11,,78,0
24659,note_on,,29,0,12,,,,,,,,,,,,,,,,10,,81,0
24660,note_on,,1,0,8,,,,,,,,,,,,,,,,5,,79,88
24660,note_on,,1,0,5,,,,,,,,,,,,,,,,0,,79,72
24660,note_on,,1,0,11,,,,,,,,,,,,,,,,8,,55,88
24660,note_on,,1,0,14,,,,,,,,,,,,,,,,12,,62,72
24660,note_on,,1,0,15,,,,,,,,,,,,,,,,13,,55,72
24660,note_on,,1,0,7,,,,,,,,,,,,,,,,2,,55,72
24660,note_on,,1,0,12,,,,,,,,,,,,,,,,10,,83,72
24660,note_on,,0,0,16,,,,,,,,,,,,,,,,15,,67,72
24660,note_on,,1,0,9,,,,,,,,,,,,,,,,6,,71,88
24660,note_on,,1,0,10,,,,,,,,,,,,,,,,7,,62,88
24660,note_on,,0,0,16,,,,,,,,,,,,,,,,15,,59,72
24660,note_on,,1,0,16,,,,,,,,,,,,,,,,15,,55,72
24660,note_on,,1,0,13,,,,,,,,,,,,,,,,11,,79,72
24660,note_on,,0,0,16,,,,,,,,,,,,,,,,15,,74,72
24660,note_on,,0,0,16,,,,,,,,,,,,,,,,15,,79,72
24660,note_on,,1,0,6,,,,,,,,,,,,,,,,1,,79,72
24689,note_on,,29,0,13,,,,,,,,,,,,,,,,11,,79,0
24689,note_on,,29,0,12,,,,,,,,,,,,,,,,10,,83,0
24690,note_on,,1,0,12,,,,,,,,,,,,,,,,10,,81,72
24690,note_on,,1,0,13,,,,,,,,,,,,,,,,11,,78,72
24719,note_on,,29,0,12,,,,,,,,,,,,,,,,10,,81,0
24719,note_on,,59,0,11,,,,,,,,,,,,,,,,8,,55,0
24719,note_on,,59,0,6,,,,,,,,,,,,,,,,1,,79,0
24719,note_on,,29,0,13,,,,,,,,,,,,,,,,11,,78,0
24719,note_on,,0,0,16,,,,,,,,,,,,,,,,15,,67,0
24719,note_on,,0,0,16,,,,,,,,,,,,,,,,15,,59,0
24719,note_on,,59,0,8,,,,,,,,,,,,,,,,5,,79,0
24719,note_on,,0,0,16,,,,,,,,,,,,,,,,15,,74,0
24719,note_on,,59,0,14,,,,,,,,,,,,,,,,12,,62,0
24719,note_on,,0,0,16,,,,,,,,,,,,,,,,15,,79,0
24719,note_on,,59,0,7,,,,,,,,,,,,,,,,2,,55,0
24719,note_on,,59,0,15,,,,,,,,,,,,,,,,13,,55,0
24719,note_on,,59,0,5,,,,,,,,,,,,,,,,0,,79,0
24719,note_on,,59,0,16,,,,,,,,,,,,,,,,15,,55,0
24719,note_on,,59,0,9,,,,,,,,,,,,,,,,6,,71,0
24719,note_on,,59,0,10,,,,,,,,,,,,,,,,7,,62,0
24720,note_on,,1,0,8,,,,,,,,,,,,,,,,5,,76,88
24720,note_on,,1,0,6,,,,,,,,,,,,,,,,1,,76,72
24720,note_on,,1,0,11,,,,,,,,,,,,,,,,8,,60,88
24720,note_on,,1,0,5,,,,,,,,,,,,,,,,0,,76,72
24720,note_on,,1,0,10,,,,,,,,,,,,,,,,7,,64,88
24720,note_on,,1,0,7,,,,,,,,,,,,,,,,2,,60,72
24720,note_on,,1,0,13,,,,,,,,,,,,,,,,11,,76,72
24720,note_on,,1,0,9,,,,,,,,,,,,,,,,6,,67,88
24720,note_on,,1,0,15,,,,,,,,,,,,,,,,13,,60,72
24720,note_on,,0,0,16,,,,,,,,,,,,,,,,15,,60,72
24720,note_on,,0,0,16,,,,,,,,,,,,,,,,15,,67,72
24720,note_on,,1,0,14,,,,,,,,,,,,,,,,12,,72,72
24720,note_on,,1,0,12,,,,,,,,,,,,,,,,10,,79,72
24720,note_on,,1,0,16,,,,,,,,,,,,,,,,15,,60,72
24720,note_on,,0,0,16,,,,,,,,,,,,,,,,15,,76,72
24720,note_on,,0,0,16,,,,,,,,,,,,,,,,15,,72,72
24749,note_on,,29,0,13,,,,,,,,,,,,,,,,11,,76,0
24749,note_on,,29,0,12,,,,,,,,,,,,,,,,10,,79,0
24750,note_on,,1,0,12,,,,,,,,,,,,,,,,10,,81,72
24750,note_on,,1,0,13,,,,,,,,,,,,,,,,11,,78,72
24779,note_on,,59,0,14,,,,,,,,,,,,,,,,12,,72,0
24779,note_on,,59,0,6,,,,,,,,,,,,,,,,1,,76,0
24779,note_on,,59,0,15,,,,,,,,,,,,,,,,13,,60,0
24779,note_on,,29,0,13,,,,,,,,,,,,,,,,11,,78,0
24779,note_on,,59,0,9,,,,,,,,,,,,,,,,6,,67,0
24779,note_on,,59,0,5,,,,,,,,,,,,,,,,0,,76,0
24779,note_on,,59,0,16,,,,,,,,,,,,,,,,15,,60,0
24779,note_on,,59,0,10,,,,,,,,,,,,,,,,7,,64,0
24779,note_on,,29,0,12,,,,,,,,,,,,,,,,10,,81,0
24779,note_on,,59,0,11,,,,,,,,,,,,,,,,8,,60,0
24779,note_on,,59,0,8,,,,,,,,,,,,,,,,5,,76,0
24779,note_on,,59,0,7,,,,,,,,,,,,,,,,2,,60,0
24780,note_on,,1,0,9,,,,,,,,,,,,,,,,6,,67,88
24780,note_on,,1,0,10,,,,,,,,,,,,,,,,7,,64,88
24780,note_on,,1,0,6,,,,,,,,,,,,,,,,1,,76,72
24780,note_on,,1,0,11,,,,,,,,,,,,,,,,8,,60,88
24780,note_on,,1,0,14,,,,,,,,,,,,,,,,12,,72,72
24780,note_on,,1,0,5,,,,,,,,,,,,,,,,0,,76,72
24780,note_on,,1,0,16,,,,,,,,,,,,,,,,15,,48,72
24780,note_on,,1,0,13,,,,,,,,,,,,,,,,11,,76,72
24780,note_on,,1,0,12,,,,,,,,,,,,,,,,10,,79,72
24780,note_on,,1,0,7,,,,,,,,,,,,,,,,2,,48,72
24780,note_on,,1,0,15,,,,,,,,,,,,,,,,13,,48,72
24780,note_on,,1,0,8,,,,,,,,,,,,,,,,5,,76,88
24809,note_on,,29,0,13,,,,,,,,,,,,,,,,11,,76,0
24809,note_on,,29,0,12,,,,,,,,,,,,,,,,10,,79,0
24810,note_on,,1,0,13,,,,,,,,,,,,,,,,11,,78,72
24810,note_on,,1,0,12,,,,,,,,,,,,,,,,10,,81,72
24839,note_on,,29,0,12,,,,,,,,,,,,,,,,10,,81,0
24839,note_on,,59,0,9,,,,,,,,,,,,,,,,6,,67,0
24839,note_on,,0,0,16,,,,,,,,,,,,,,,,15,,60,0
24839,note_on,,0,0,16,,,,,,,,,,,,,,,,15,,67,0
24839,note_on,,59,0,16,,,,,,,,,,,,,,,,15,,76,0
24839,note_on,,59,0,8,,,,,,,,,,,,,,,,5,,76,0
24839,note_on,,59,0,14,,,,,,,,,,,,,,,,12,,72,0
24839,note_on,,59,0,6,,,,,,,,,,,,,,,,1,,76,0
24839,note_on,,59,0,15,,,,,,,,,,,,,,,,13,,48,0
24839,note_on,,29,0,13,,,,,,,,,,,,,,,,11,,78,0
24839,note_on,,59,0,7,,,,,,,,,,,,,,,,2,,48,0
24839,note_on,,0,0,16,,,,,,,,,,,,,,,,15,,72,0
24839,note_on,,59,0,5,,,,,,,,,,,,,,,,0,,76,0
24839,note_on,,0,0,16,,,,,,,,,,,,,,,,15,,48,0
24839,note_on,,59,0,10,,,,,,,,,,,,,,,,7,,64,0
24839,note_on,,59,0,11,,,,,,,,,,,,,,,,8,,60,0
24840,note_on,,1,0,13,,,,,,,,,,,,,,,,11,,79,72
24840,note_on,,1,0,12,,,,,,,,,,,,,,,,10,,83,72
24869,note_on,,29,0,13,,,,,,,,,,,,,,,,11,,79,0
24869,note_on,,29,0,12,,,,,,,,,,,,,,,,10,,83,0
24870,note_on,,1,0,13,,,,,,,,,,,,,,,,11,,78,72
24870,note_on,,1,0,12,,,,,,,,,,,,,,,,10,,81,72
24899,note_on,,29,0,13,,,,,,,,,,,,,,,,11,,78,0
24899,note_on,,29,0,12,,,,,,,,,,,,,,,,10,,81,0
24900,note_on,,61,0,7,,,,,,,,,,,,,,,,2,,59,72
24900,note_on,,61,0,6,,,,,,,,,,,,,,,,1,,79,72
24900,note_on,,0,0,16,,,,,,,,,,,,,,,,15,,67,72
24900,note_on,,0,0,16,,,,,,,,,,,,,,,,15,,62,72
24900,note_on,,61,0,15,,,,,,,,,,,,,,,,13,,59,72
24900,note_on,,1,0,13,,,,,,,,,,,,,,,,11,,79,72
24900,note_on,,61,0,14,,,,,,,,,,,,,,,,12,,67,72
24900,note_on,,1,0,12,,,,,,,,,,,,,,,,10,,83,72
24900,note_on,,0,0,16,,,,,,,,,,,,,,,,15,,71,72
24900,note_on,,0,0,16,,,,,,,,,,,,,,,,15,,79,72
24900,note_on,,61,0,8,,,,,,,,,,,,,,,,5,,79,88
24900,note_on,,61,0,9,,,,,,,,,,,,,,,,6,,67,88
24900,note_on,,61,0,16,,,,,,,,,,,,,,,,15,,59,72
24900,note_on,,61,0,11,,,,,,,,,,,,,,,,8,,59,88
24900,note_on,,61,0,10,,,,,,,,,,,,,,,,7,,62,88
24900,note_on,,61,0,5,,,,,,,,,,,,,,,,0,,79,72
24929,note_on,,29,0,12,,,,,,,,,,,,,,,,10,,83,0
24929,note_on,,29,0,13,,,,,,,,,,,,,,,,11,,79,0
24930,note_on,,1,0,13,,,,,,,,,,,,,,,,11,,74,72
24930,note_on,,1,0,12,,,,,,,,,,,,,,,,10,,79,72
24959,note_on,,59,0,8,,,,,,,,,,,,,,,,5,,79,0
24959,note_on,,59,0,11,,,,,,,,,,,,,,,,8,,59,0
24959,note_on,,29,0,13,,,,,,,,,,,,,,,,11,,74,0
24959,note_on,,0,0,16,,,,,,,,,,,,,,,,15,,62,0
24959,note_on,,59,0,5,,,,,,,,,,,,,,,,0,,79,0
24959,note_on,,59,0,7,,,,,,,,,,,,,,,,2,,59,0
24959,note_on,,0,0,16,,,,,,,,,,,,,,,,15,,71,0
24959,note_on,,59,0,15,,,,,,,,,,,,,,,,13,,59,0
24959,note_on,,59,0,16,,,,,,,,,,,,,,,,15,,59,0
24959,note_on,,59,0,9,,,,,,,,,,,,,,,,6,,67,0
24959,note_on,,59,0,6,,,,,,,,,,,,,,,,1,,79,0
24959,note_on,,59,0,14,,,,,,,,,,,,,,,,12,,67,0
24959,note_on,,59,0,10,,,,,,,,,,,,,,,,7,,62,0
24959,note_on,,29,0,12,,,,,,,,,,,,,,,,10,,79,0
24959,note_on,,0,0,16,,,,,,,,,,,,,,,,15,,79,0
24959,note_on,,0,0,16,,,,,,,,,,,,,,,,15,,67,0
24960,note_on,,1,0,15,,,,,,,,,,,,,,,,13,,57,72
24960,note_on,,1,0,11,,,,,,,,,,,,,,,,8,,57,88
24960,note_on,,1,0,7,,,,,,,,,,,,,,,,2,,57,72
24960,note_on,,1,0,6,,,,,,,,,,,,,,,,1,,72,72
24960,note_on,,1,0,12,,,,,,,,,,,,,,,,10,,84,72
24960,note_on,,1,0,13,,,,,,,,,,,,,,,,11,,76,72
24960,note_on,,1,0,9,,,,,,,,,,,,,,,,6,,67,88
24960,note_on,,1,0,14,,,,,,,,,,,,,,,,12,,67,72
24960,note_on,,1,0,8,,,,,,,,,,,,,,,,5,,72,88
24960,note_on,,1,0,10,,,,,,,,,,,,,,,,7,,64,88
24960,note_on,,0,0,16,,,,,,,,,,,,,,,,15,,69,72
24960,note_on,,0,0,16,,,,,,,,,,,,,,,,15,,72,72
24960,note_on,,0,0,16,,,,,,,,,,,,,,,,15,,79,72
24960,note_on,,1,0,16,,,,,,,,,,,,,,,,15,,57,72
24960,note_on,,0,0,16,,,,,,,,,,,,,,,,15,,60,72
24960,note_on,,1,0,5,,,,,,,,,,,,,,,,0,,72,72
24989,note_on,,29,0,13,,,,,,,,,,,,,,,,11,,76,0
24989,note_on,,29,0,12,,,,,,,,,,,,,,,,10,,84,0
24990,note_on,,1,0,13,,,,,,,,,,,,,,,,11,,74,72
24990,note_on,,1,0,12,,,,,,,,,,,,,,,,10,,83,72
25019,note_on,,29,0,13,,,,,,,,,,,,,,,,11,,74,0
25019,note_on,,29,0,12,,,,,,,,,,,,,,,,10,,83,0
25019,note_on,,59,0,14,,,,,,,,,,,,,,,,12,,67,0
25020,note_on,,1,0,12,,,,,,,,,,,,,,,,10,,81,72
25020,note_on,,1,0,14,,,,,,,,,,,,,,,,12,,67,72
25020,note_on,,1,0,13,,,,,,,,,,,,,,,,11,,72,72
25049,note_on,,29,0,13,,,,,,,,,,,,,,,,11,,72,0
25049,note_on,,29,0,12,,,,,,,,,,,,,,,,10,,81,0
25050,note_on,,1,0,13,,,,,,,,,,,,,,,,11,,74,72
25050,note_on,,1,0,12,,,,,,,,,,,,,,,,10,,83,72
25079,note_on,,59,0,14,,,,,,,,,,,,,,,,12,,67,0
25079,note_on,,29,0,12,,,,,,,,,,,,,,,,10,,83,0
25079,note_on,,29,0,13,,,,,,,,,,,,,,,,11,,74,0
25080,note_on,,1,0,14,,,,,,,,,,,,,,,,12,,67,72
25080,note_on,,1,0,12,,,,,,,,,,,,,,,,10,,84,72
25080,note_on,,1,0,13,,,,,,,,,,,,,,,,11,,76,72
25109,note_on,,29,0,12,,,,,,,,,,,,,,,,10,,84,0
25109,note_on,,29,0,13,,,,,,,,,,,,,,,,11,,76,0
25110,note_on,,1,0,12,,,,,,,,,,,,,,,,10,,83,72
25110,note_on,,1,0,13,,,,,,,,,,,,,,,,11,,74,72
25139,note_on,,0,0,16,,,,,,,,,,,,,,,,15,,79,0
25139,note_on,,59,0,14,,,,,,,,,,,,,,,,12,,67,0
25139,note_on,,179,0,8,,,,,,,,,,,,,,,,5,,72,0
25139,note_on,,179,0,9,,,,,,,,,,,,,,,,6,,67,0
25139,note_on,,179,0,7,,,,,,,,,,,,,,,,2,,57,0
25139,note_on,,0,0,16,,,,,,,,,,,,,,,,15,,60,0
25139,note_on,,179,0,16,,,,,,,,,,,,,,,,15,,57,0
25139,note_on,,29,0,12,,,,,,,,,,,,,,,,10,,83,0
25139,note_on,,0,0,16,,,,,,,,,,,,,,,,15,,69,0
25139,note_on,,29,0,13,,,,,,,,,,,,,,,,11,,74,0
25139,note_on,,179,0,10,,,,,,,,,,,,,,,,7,,64,0
25139,note_on,,0,0,16,,,,,,,,,,,,,,,,15,,72,0
25139,note_on,,179,0,15,,,,,,,,,,,,,,,,13,,57,0
25139,note_on,,179,0,5,,,,,,,,,,,,,,,,0,,72,0
25139,note_on,,179,0,11,,,,,,,,,,,,,,,,8,,57,0
25139,note_on,,179,0,6,,,,,,,,,,,,,,,,1,,72,0
25140,note_on,,0,0,16,,,,,,,,,,,,,,,,15,,69,72
25140,note_on,,1,0,5,,,,,,,,,,,,,,,,0,,72,72
25140,note_on,,1,0,7,,,,,,,,,,,,,,,,2,,57,72
25140,note_on,,1,0,16,,,,,,,,,,,,,,,,15,,57,72
25140,note_on,,1,0,9,,,,,,,,,,,,,,,,6,,66,88
25140,note_on,,0,0,16,,,,,,,,,,,,,,,,15,,78,72
25140,note_on,,1,0,11,,,,,,,,,,,,,,,,8,,57,88
25140,note_on,,1,0,8,,,,,,,,,,,,,,,,5,,72,88
25140,note_on,,0,0,16,,,,,,,,,,,,,,,,15,,72,72
25140,note_on,,1,0,10,,,,,,,,,,,,,,,,7,,60,88
25140,note_on,,1,0,6,,,,,,,,,,,,,,,,1,,72,72
25140,note_on,,1,0,15,,,,,,,,,,,,,,,,13,,57,72
25140,note_on,,1,0,13,,,,,,,,,,,,,,,,11,,76,72
25140,note_on,,1,0,12,,,,,,,,,,,,,,,,10,,84,72
25140,note_on,,1,0,14,,,,,,,,,,,,,,,,12,,66,72
25140,note_on,,0,0,16,,,,,,,,,,,,,,,,15,,60,72
25169,note_on,,29,0,13,,,,,,,,,,,,,,,,11,,76,0
25169,note_on,,29,0,12,,,,,,,,,,,,,,,,10,,84,0
25170,note_on,,1,0,12,,,,,,,,,,,,,,,,10,,86,72
25170,note_on,,1,0,13,,,,,,,,,,,,,,,,11,,78,72
25199,note_on,,0,0,16,,,,,,,,,,,,,,,,15,,60,0
25199,note_on,,59,0,11,,,,,,,,,,,,,,,,8,,57,0
25199,note_on,,29,0,13,,,,,,,,,,,,,,,,11,,78,0
25199,note_on,,59,0,15,,,,,,,,,,,,,,,,13,,57,0
25199,note_on,,59,0,6,,,,,,,,,,,,,,,,1,,72,0
25199,note_on,,59,0,16,,,,,,,,,,,,,,,,15,,57,0
25199,note_on,,59,0,5,,,,,,,,,,,,,,,,0,,72,0
25199,note_on,,59,0,14,,,,,,,,,,,,,,,,12,,66,0
25199,note_on,,29,0,12,,,,,,,,,,,,,,,,10,,86,0
25199,note_on,,59,0,9,,,,,,,,,,,,,,,,6,,66,0
25199,note_on,,0,0,16,,,,,,,,,,,,,,,,15,,78,0
25199,note_on,,59,0,10,,,,,,,,,,,,,,,,7,,60,0
25199,note_on,,0,0,16,,,,,,,,,,,,,,,,15,,72,0
25199,note_on,,0,0,16,,,,,,,,,,,,,,,,15,,69,0
25199,note_on,,59,0,7,,,,,,,,,,,,,,,,2,,57,0
25199,note_on,,59,0,8,,,,,,,,,,,,,,,,5,,72,0
25200,note_on,,0,0,16,,,,,,,,,,,,,,,,15,,67,72
25200,note_on,,0,0,16,,,,,,,,,,,,,,,,15,,79,72
25200,note_on,,0,0,16,,,,,,,,,,,,,,,,15,,55,72
25200,note_on,,1,0,16,,,,,,,,,,,,,,,,15,,62,72
25200,note_on,,0,0,16,,,,,,,,,,,,,,,,15,,71,72
25200,note_on,,1,0,11,,,,,,,,,,,,,,,,8,,55,88
25200,note_on,,1,0,15,,,,,,,,,,,,,,,,13,,55,72
25200,note_on,,1,0,7,,,,,,,,,,,,,,,,2,,55,72
25200,note_on,,1,0,8,,,,,,,,,,,,,,,,5,,71,88
25200,note_on,,1,0,9,,,,,,,,,,,,,,,,6,,67,88
25200,note_on,,1,0,12,,,,,,,,,,,,,,,,10,,83,72
25200,note_on,,1,0,14,,,,,,,,,,,,,,,,12,,74,72
25200,note_on,,1,0,6,,,,,,,,,,,,,,,,1,,71,72
25200,note_on,,1,0,5,,,,,,,,,,,,,,,,0,,71,72
25200,note_on,,1,0,10,,,,,,,,,,,,,,,,7,,62,88
25200,note_on,,1,0,13,,,,,,,,,,,,,,,,11,,79,72
25319,note_on,,119,0,10,,,,,,,,,,,,,,,,7,,62,0
25319,note_on,,119,0,15,,,,,,,,,,,,,,,,13,,55,0
25319,note_on,,119,0,12,,,,,,,,,,,,,,,,10,,83,0
25319,note_on,,119,0,16,,,,,,,,,,,,,,,,15,,62,0
25319,note_on,,0,0,16,,,,,,,,,,,,,,,,15,,55,0
25319,note_on,,0,0,16,,,,,,,,,,,,,,,,15,,79,0
25319,note_on,,119,0,7,,,,,,,,,,,,,,,,2,,55,0
25319,note_on,,0,0,16,,,,,,,,,,,,,,,,15,,67,0
25319,note_on,,119,0,5,,,,,,,,,,,,,,,,0,,71,0
25319,note_on,,119,0,6,,,,,,,,,,,,,,,,1,,71,0
25319,note_on,,119,0,14,,,,,,,,,,,,,,,,12,,74,0
25319,note_on,,119,0,11,,,,,,,,,,,,,,,,8,,55,0
25319,note_on,,119,0,9,,,,,,,,,,,,,,,,6,,67,0
25319,note_on,,119,0,8,,,,,,,,,,,,,,,,5,,71,0
25319,note_on,,0,0,16,,,,,,,,,,,,,,,,15,,71,0
25319,note_on,,119,0,13,,,,,,,,,,,,,,,,11,,79,0
25320,note_on,,1,0,15,,,,,,,,,,,,,,,,13,,47,48
25320,note_on,,0,0,16,,,,,,,,,,,,,,,,15,,67,48
25320,note_on,,1,0,7,,,,,,,,,,,,,,,,2,,47,48
25320,note_on,,0,0,16,,,,,,,,,,,,,,,,15,,74,48
25320,note_on,,1,0,16,,,,,,,,,,,,,,,,15,,47,48
25320,note_on,,1,0,10,,,,,,,,,,,,,,,,7,,55,58
25379,note_on,,59,0,15,,,,,,,,,,,,,,,,13,,47,0
25379,note_on,,59,0,10,,,,,,,,,,,,,,,,7,,55,0
25379,note_on,,59,0,16,,,,,,,,,,,,,,,,15,,47,0
25379,note_on,,0,0,16,,,,,,,,,,,,,,,,15,,67,0
25379,note_on,,0,0,16,,,,,,,,,,,,,,,,15,,74,0
25379,note_on,,59,0,7,,,,,,,,,,,,,,,,2,,47,0
25380,note_on,,1,0,10,,,,,,,,,,,,,,,,7,,55,58
25380,note_on,,0,0,16,,,,,,,,,,,,,,,,15,,67,48
25380,note_on,,0,0,16,,,,,,,,,,,,,,,,15,,71,48
25380,note_on,,1,0,16,,,,,,,,,,,,,,,,15,,52,48
25380,note_on,,1,0,7,,,,,,,,,,,,,,,,2,,52,48
25380,note_on,,1,0,15,,,,,,,,,,,,,,,,13,,52,48
25439,note_on,,59,0,10,,,,,,,,,,,,,,,,7,,55,0
25439,note_on,,0,0,16,,,,,,,,,,,,,,,,15,,67,0
25439,note_on,,59,0,16,,,,,,,,,,,,,,,,15,,52,0
25439,note_on,,0,0,16,,,,,,,,,,,,,,,,15,,71,0
25439,note_on,,59,0,15,,,,,,,,,,,,,,,,13,,52,0
25439,note_on,,59,0,7,,,,,,,,,,,,,,,,2,,52,0
25440,note_on,,1,0,7,,,,,,,,,,,,,,,,2,,45,48
25440,note_on,,0,0,16,,,,,,,,,,,,,,,,15,,69,48
25440,note_on,,0,0,16,,,,,,,,,,,,,,,,15,,67,48
25440,note_on,,1,0,15,,,,,,,,,,,,,,,,13,,45,48
25440,note_on,,0,0,16,,,,,,,,,,,,,,,,15,,72,48
25440,note_on,,1,0,16,,,,,,,,,,,,,,,,15,,45,48
25440,note_on,,1,0,10,,,,,,,,,,,,,,,,7,,57,58
25499,note_on,,59,0,10,,,,,,,,,,,,,,,,7,,57,0
25499,note_on,,59,0,16,,,,,,,,,,,,,,,,15,,45,0
25499,note_on,,59,0,15,,,,,,,,,,,,,,,,13,,45,0
25499,note_on,,59,0,7,,,,,,,,,,,,,,,,2,,45,0
25500,note_on,,1,0,7,,,,,,,,,,,,,,,,2,,55,48
25500,note_on,,1,0,10,,,,,,,,,,,,,,,,7,,57,58
25500,note_on,,1,0,15,,,,,,,,,,,,,,,,13,,55,48
25500,note_on,,1,0,16,,,,,,,,,,,,,,,,15,,55,48
25559,note_on,,0,0,16,,,,,,,,,,,,,,,,15,,55,0
25559,note_on,,0,0,16,,,,,,,,,,,,,,,,15,,67,0
25559,note_on,,0,0,16,,,,,,,,,,,,,,,,15,,69,0
25559,note_on,,59,0,15,,,,,,,,,,,,,,,,13,,55,0
25559,note_on,,59,0,10,,,,,,,,,,,,,,,,7,,57,0
25559,note_on,,59,0,16,,,,,,,,,,,,,,,,15,,72,0
25559,note_on,,59,0,7,,,,,,,,,,,,,,,,2,,55,0
25560,note_on,,1,0,10,,,,,,,,,,,,,,,,7,,57,58
25560,note_on,,0,0,16,,,,,,,,,,,,,,,,15,,62,48
25560,note_on,,0,0,16,,,,,,,,,,,,,,,,15,,69,48
25560,note_on,,1,0,16,,,,,,,,,,,,,,,,15,,54,48
25560,note_on,,1,0,7,,,,,,,,,,,,,,,,2,,54,48
25560,note_on,,1,0,15,,,,,,,,,,,,,,,,13,,54,48
25619,note_on,,59,0,10,,,,,,,,,,,,,,,,7,,57,0
25619,note_on,,59,0,16,,,,,,,,,,,,,,,,15,,54,0
25619,note_on,,0,0,16,,,,,,,,,,,,,,,,15,,69,0
25619,note_on,,0,0,16,,,,,,,,,,,,,,,,15,,62,0
25619,note_on,,59,0,7,,,,,,,,,,,,,,,,2,,54,0
25619,note_on,,59,0,15,,,,,,,,,,,,,,,,13,,54,0
25620,note_on,,1,0,7,,,,,,,,,,,,,,,,2,,50,48
25620,note_on,,0,0,16,,,,,,,,,,,,,,,,15,,66,48
25620,note_on,,0,0,16,,,,,,,,,,,,,,,,15,,62,48
25620,note_on,,1,0,16,,,,,,,,,,,,,,,,15,,50,48
25620,note_on,,1,0,15,,,,,,,,,,,,,,,,13,,50,48
25620,note_on,,1,0,10,,,,,,,,,,,,,,,,7,,57,58
25679,note_on,,59,0,16,,,,,,,,,,,,,,,,15,,50,0
25679,note_on,,0,0,16,,,,,,,,,,,,,,,,15,,62,0
25679,note_on,,59,0,15,,,,,,,,,,,,,,,,13,,50,0
25679,note_on,,59,0,7,,,,,,,,,,,,,,,,2,,50,0
25679,note_on,,0,0,16,,,,,,,,,,,,,,,,15,,66,0
25679,note_on,,59,0,10,,,,,,,,,,,,,,,,7,,57,0
25680,note_on,,0,0,16,,,,,,,,,,,,,,,,15,,67,48
25680,note_on,,0,0,16,,,,,,,,,,,,,,,,15,,62,48
25680,note_on,,361,0,5,,,,,,,,,,,,,,,,0,,74,47
25680,note_on,,361,0,8,,,,,,,,,,,,,,,,5,,74,58
25680,note_on,,1,0,15,,,,,,,,,,,,,,,,13,,55,48
25680,note_on,,1,0,7,,,,,,,,,,,,,,,,2,,55,48
25680,note_on,,1,0,10,,,,,,,,,,,,,,,,7,,57,58
25680,note_on,,361,0,6,,,,,,,,,,,,,,,,1,,74,47
25680,note_on,,1,0,16,,,,,,,,,,,,,,,,15,,55,48
25739,note_on,,59,0,16,,,,,,,,,,,,,,,,15,,55,0
25739,note_on,,59,0,15,,,,,,,,,,,,,,,,13,,55,0
25739,note_on,,59,0,10,,,,,,,,,,,,,,,,7,,57,0
25739,note_on,,59,0,7,,,,,,,,,,,,,,,,2,,55,0
25740,note_on,,1,0,10,,,,,,,,,,,,,,,,7,,55,58
25740,note_on,,1,0,16,,,,,,,,,,,,,,,,15,,57,48
25740,note_on,,1,0,7,,,,,,,,,,,,,,,,2,,57,48
25740,note_on,,1,0,15,,,,,,,,,,,,,,,,13,,57,48
25799,note_on,,0,0,16,,,,,,,,,,,,,,,,15,,62,0
25799,note_on,,59,0,16,,,,,,,,,,,,,,,,15,,67,0
25799,note_on,,119,0,5,,,,,,,,,,,,,,,,0,,74,0
25799,note_on,,59,0,10,,,,,,,,,,,,,,,,7,,55,0
25799,note_on,,59,0,15,,,,,,,,,,,,,,,,13,,57,0
25799,note_on,,0,0,16,,,,,,,,,,,,,,,,15,,57,0
25799,note_on,,119,0,6,,,,,,,,,,,,,,,,1,,74,0
25799,note_on,,59,0,7,,,,,,,,,,,,,,,,2,,57,0
25799,note_on,,119,0,8,,,,,,,,,,,,,,,,5,,74,0
25800,note_on,,1,0,16,,,,,,,,,,,,,,,,15,,59,48
25800,note_on,,0,0,16,,,,,,,,,,,,,,,,15,,74,48
25800,note_on,,0,0,16,,,,,,,,,,,,,,,,15,,67,48
25800,note_on,,0,0,16,,,,,,,,,,,,,,,,15,,62,48
25800,note_on,,1,0,15,,,,,,,,,,,,,,,,13,,59,48
25800,note_on,,1,0,8,,,,,,,,,,,,,,,,5,,67,58
25800,note_on,,1,0,6,,,,,,,,,,,,,,,,1,,67,47
25800,note_on,,1,0,5,,,,,,,,,,,,,,,,0,,67,47
25800,note_on,,1,0,7,,,,,,,,,,,,,,,,2,,59,48
25859,note_on,,59,0,6,,,,,,,,,,,,,,,,1,,67,0
25859,note_on,,59,0,15,,,,,,,,,,,,,,,,13,,59,0
25859,note_on,,59,0,5,,,,,,,,,,,,,,,,0,,67,0
25859,note_on,,59,0,16,,,,,,,,,,,,,,,,15,,59,0
25859,note_on,,59,0,8,,,,,,,,,,,,,,,,5,,67,0
25859,note_on,,59,0,7,,,,,,,,,,,,,,,,2,,59,0
25860,note_on,,1,0,7,,,,,,,,,,,,,,,,2,,47,48
25860,note_on,,1,0,6,,,,,,,,,,,,,,,,1,,67,47
25860,note_on,,1,0,15,,,,,,,,,,,,,,,,13,,47,48
25860,note_on,,1,0,16,,,,,,,,,,,,,,,,15,,47,48
25860,note_on,,1,0,5,,,,,,,,,,,,,,,,0,,67,47
25860,note_on,,1,0,8,,,,,,,,,,,,,,,,5,,67,58
25919,note_on,,59,0,6,,,,,,,,,,,,,,,,1,,67,0
25919,note_on,,59,0,5,,,,,,,,,,,,,,,,0,,67,0
25919,note_on,,0,0,16,,,,,,,,,,,,,,,,15,,67,0
25919,note_on,,59,0,7,,,,,,,,,,,,,,,,2,,47,0
25919,note_on,,59,0,16,,,,,,,,,,,,,,,,15,,74,0
25919,note_on,,59,0,8,,,,,,,,,,,,,,,,5,,67,0
25919,note_on,,59,0,15,,,,,,,,,,,,,,,,13,,47,0
25919,note_on,,0,0,16,,,,,,,,,,,,,,,,15,,62,0
25919,note_on,,0,0,16,,,,,,,,,,,,,,,,15,,47,0
25920,note_on,,0,0,16,,,,,,,,,,,,,,,,15,,64,48
25920,note_on,,1,0,7,,,,,,,,,,,,,,,,2,,45,48
25920,note_on,,0,0,16,,,,,,,,,,,,,,,,15,,67,48
25920,note_on,,1,0,5,,,,,,,,,,,,,,,,0,,72,47
25920,note_on,,1,0,8,,,,,,,,,,,,,,,,5,,72,58
25920,note_on,,1,0,16,,,,,,,,,,,,,,,,15,,45,48
25920,note_on,,1,0,6,,,,,,,,,,,,,,,,1,,72,47
25920,note_on,,0,0,16,,,,,,,,,,,,,,,,15,,60,48
25920,note_on,,1,0,15,,,,,,,,,,,,,,,,13,,45,48
25979,note_on,,59,0,8,,,,,,,,,,,,,,,,5,,72,0
25979,note_on,,59,0,15,,,,,,,,,,,,,,,,13,,45,0
25979,note_on,,59,0,6,,,,,,,,,,,,,,,,1,,72,0
25979,note_on,,59,0,7,,,,,,,,,,,,,,,,2,,45,0
25979,note_on,,59,0,16,,,,,,,,,,,,,,,,15,,45,0
25979,note_on,,59,0,5,,,,,,,,,,,,,,,,0,,72,0
25980,note_on,,1,0,8,,,,,,,,,,,,,,,,5,,72,58
25980,note_on,,1,0,15,,,,,,,,,,,,,,,,13,,55,48
25980,note_on,,1,0,7,,,,,,,,,,,,,,,,2,,55,48
25980,note_on,,1,0,5,,,,,,,,,,,,,,,,0,,72,47
25980,note_on,,1,0,16,,,,,,,,,,,,,,,,15,,55,48
25980,note_on,,1,0,6,,,,,,,,,,,,,,,,1,,72,47
26039,note_on,,59,0,7,,,,,,,,,,,,,,,,2,,55,0
26039,note_on,,59,0,5,,,,,,,,,,,,,,,,0,,72,0
26039,note_on,,59,0,15,,,,,,,,,,,,,,,,13,,55,0
26039,note_on,,59,0,8,,,,,,,,,,,,,,,,5,,72,0
26039,note_on,,0,0,16,,,,,,,,,,,,,,,,15,,55,0
26039,note_on,,0,0,16,,,,,,,,,,,,,,,,15,,60,0
26039,note_on,,0,0,16,,,,,,,,,,,,,,,,15,,64,0
26039,note_on,,59,0,16,,,,,,,,,,,,,,,,15,,67,0
26039,note_on,,59,0,6,,,,,,,,,,,,,,,,1,,72,0
26040,note_on,,0,0,16,,,,,,,,,,,,,,,,15,,69,48
26040,note_on,,0,0,16,,,,,,,,,,,,,,,,15,,62,48
26040,note_on,,1,0,15,,,,,,,,,,,,,,,,13,,54,48
26040,note_on,,1,0,8,,,,,,,,,,,,,,,,5,,72,58
26040,note_on,,1,0,7,,,,,,,,,,,,,,,,2,,54,48
26040,note_on,,1,0,6,,,,,,,,,,,,,,,,1,,72,47
26040,note_on,,1,0,5,,,,,,,,,,,,,,,,0,,72,47
26040,note_on,,1,0,16,,,,,,,,,,,,,,,,15,,54,48
26040,note_on,,0,0,16,,,,,,,,,,,,,,,,15,,60,48
26099,note_on,,59,0,15,,,,,,,,,,,,,,,,13,,54,0
26099,note_on,,59,0,5,,,,,,,,,,,,,,,,0,,72,0
26099,note_on,,59,0,6,,,,,,,,,,,,,,,,1,,72,0
26099,note_on,,59,0,8,,,,,,,,,,,,,,,,5,,72,0
26099,note_on,,59,0,16,,,,,,,,,,,,,,,,15,,54,0
26099,note_on,,59,0,7,,,,,,,,,,,,,,,,2,,54,0
26100,note_on,,1,0,7,,,,,,,,,,,,,,,,2,,50,48
26100,note_on,,1,0,15,,,,,,,,,,,,,,,,13,,50,48
26100,note_on,,1,0,5,,,,,,,,,,,,,,,,0,,72,47
26100,note_on,,1,0,6,,,,,,,,,,,,,,,,1,,72,47
26100,note_on,,1,0,8,,,,,,,,,,,,,,,,5,,72,58
26100,note_on,,1,0,16,,,,,,,,,,,,,,,,15,,50,48
26159,note_on,,0,0,16,,,,,,,,,,,,,,,,15,,62,0
26159,note_on,,59,0,5,,,,,,,,,,,,,,,,0,,72,0
26159,note_on,,59,0,8,,,,,,,,,,,,,,,,5,,72,0
26159,note_on,,0,0,16,,,,,,,,,,,,,,,,15,,50,0
26159,note_on,,59,0,7,,,,,,,,,,,,,,,,2,,50,0
26159,note_on,,59,0,16,,,,,,,,,,,,,,,,15,,69,0
26159,note_on,,59,0,6,,,,,,,,,,,,,,,,1,,72,0
26159,note_on,,59,0,15,,,,,,,,,,,,,,,,13,,50,0
26159,note_on,,0,0,16,,,,,,,,,,,,,,,,15,,60,0
26160,note_on,,1,0,7,,,,,,,,,,,,,,,,2,,55,48
26160,note_on,,1,0,5,,,,,,,,,,,,,,,,0,,72,47
26160,note_on,,1,0,6,,,,,,,,,,,,,,,,1,,72,47
26160,note_on,,1,0,15,,,,,,,,,,,,,,,,13,,55,48
26160,note_on,,841,0,11,,,,,,,,,,,,,,,,8,,55,58
26160,note_on,,1,0,8,,,,,,,,,,,,,,,,5,,72,58
26160,note_on,,0,0,16,,,,,,,,,,,,,,,,15,,62,48
26160,note_on,,0,0,16,,,,,,,,,,,,,,,,15,,67,48
26160,note_on,,1,0,16,,,,,,,,,,,,,,,,15,,55,48
26219,note_on,,59,0,8,,,,,,,,,,,,,,,,5,,72,0
26219,note_on,,59,0,5,,,,,,,,,,,,,,,,0,,72,0
26219,note_on,,59,0,6,,,,,,,,,,,,,,,,1,,72,0
26220,note_on,,1,0,6,,,,,,,,,,,,,,,,1,,71,47
26220,note_on,,1,0,8,,,,,,,,,,,,,,,,5,,71,58
26220,note_on,,1,0,5,,,,,,,,,,,,,,,,0,,71,47
26220,note_on,,901,0,12,,,,,,,,,,,,,,,,10,,74,48
26220,note_on,,901,0,14,,,,,,,,,,,,,,,,12,,67,48
26220,note_on,,901,0,13,,,,,,,,,,,,,,,,11,,71,48
26279,note_on,,119,0,11,,,,,,,,,,,,,,,,8,,55,0
26279,note_on,,59,0,12,,,,,,,,,,,,,,,,10,,74,0
26279,note_on,,119,0,16,,,,,,,,,,,,,,,,15,,55,0
26279,note_on,,0,0,16,,,,,,,,,,,,,,,,15,,62,0
26279,note_on,,59,0,8,,,,,,,,,,,,,,,,5,,71,0
26279,note_on,,119,0,15,,,,,,,,,,,,,,,,13,,55,0
26279,note_on,,59,0,6,,,,,,,,,,,,,,,,1,,71,0
26279,note_on,,59,0,13,,,,,,,,,,,,,,,,11,,71,0
26279,note_on,,59,0,5,,,,,,,,,,,,,,,,0,,71,0
26279,note_on,,59,0,14,,,,,,,,,,,,,,,,12,,67,0
26279,note_on,,0,0,16,,,,,,,,,,,,,,,,15,,67,0
26279,note_on,,119,0,7,,,,,,,,,,,,,,,,2,,55,0
26280,note_on,,1,0,16,,,,,,,,,,,,,,,,15,,48,48
26280,note_on,,0,0,16,,,,,,,,,,,,,,,,15,,72,48
26280,note_on,,1,0,15,,,,,,,,,,,,,,,,13,,48,48
26280,note_on,,1,0,7,,,,,,,,,,,,,,,,2,,48,48
26280,note_on,,1,0,12,,,,,,,,,,,,,,,,10,,76,48
26280,note_on,,0,0,16,,,,,,,,,,,,,,,,15,,67,48
26280,note_on,,1,0,14,,,,,,,,,,,,,,,,12,,67,48
26280,note_on,,1,0,11,,,,,,,,,,,,,,,,8,,48,58
26280,note_on,,0,0,16,,,,,,,,,,,,,,,,15,,64,48
26280,note_on,,1,0,13,,,,,,,,,,,,,,,,11,,72,48
26339,note_on,,59,0,14,,,,,,,,,,,,,,,,12,,67,0
26339,note_on,,59,0,12,,,,,,,,,,,,,,,,10,,76,0
26339,note_on,,59,0,11,,,,,,,,,,,,,,,,8,,48,0
26339,note_on,,59,0,15,,,,,,,,,,,,,,,,13,,48,0
26339,note_on,,59,0,16,,,,,,,,,,,,,,,,15,,48,0
26339,note_on,,59,0,13,,,,,,,,,,,,,,,,11,,72,0
26339,note_on,,59,0,7,,,,,,,,,,,,,,,,2,,48,0
26340,note_on,,1,0,13,,,,,,,,,,,,,,,,11,,76,48
26340,note_on,,1,0,12,,,,,,,,,,,,,,,,10,,79,48
26340,note_on,,1,0,7,,,,,,,,,,,,,,,,2,,48,48
26340,note_on,,1,0,14,,,,,,,,,,,,,,,,12,,72,48
26340,note_on,,1,0,15,,,,,,,,,,,,,,,,13,,48,48
26340,note_on,,1,0,11,,,,,,,,,,,,,,,,8,,48,58
26340,note_on,,1,0,16,,,,,,,,,,,,,,,,15,,48,48
26399,note_on,,59,0,15,,,,,,,,,,,,,,,,13,,48,0
26399,note_on,,59,0,13,,,,,,,,,,,,,,,,11,,76,0
26399,note_on,,0,0,16,,,,,,,,,,,,,,,,15,,67,0
26399,note_on,,59,0,7,,,,,,,,,,,,,,,,2,,48,0
26399,note_on,,59,0,16,,,,,,,,,,,,,,,,15,,72,0
26399,note_on,,59,0,12,,,,,,,,,,,,,,,,10,,79,0
26399,note_on,,0,0,16,,,,,,,,,,,,,,,,15,,64,0
26399,note_on,,0,0,16,,,,,,,,,,,,,,,,15,,48,0
26399,note_on,,59,0,11,,,,,,,,,,,,,,,,8,,48,0
26399,note_on,,59,0,14,,,,,,,,,,,,,,,,12,,72,0
26400,note_on,,1,0,7,,,,,,,,,,,,,,,,2,,53,48
26400,note_on,,1,0,13,,,,,,,,,,,,,,,,11,,72,48
26400,note_on,,1,0,11,,,,,,,,,,,,,,,,8,,53,58
26400,note_on,,1,0,14,,,,,,,,,,,,,,,,12,,69,48
26400,note_on,,1,0,12,,,,,,,,,,,,,,,,10,,81,48
26400,note_on,,0,0,16,,,,,,,,,,,,,,,,15,,65,48
26400,note_on,,0,0,16,,,,,,,,,,,,,,,,15,,69,48
26400,note_on,,1,0,16,,,,,,,,,,,,,,,,15,,53,48
26400,note_on,,1,0,15,,,,,,,,,,,,,,,,13,,53,48
26400,note_on,,0,0,16,,,,,,,,,,,,,,,,15,,60,48
26459,note_on,,59,0,7,,,,,,,,,,,,,,,,2,,53,0
26459,note_on,,59,0,11,,,,,,,,,,,,,,,,8,,53,0
26459,note_on,,59,0,12,,,,,,,,,,,,,,,,10,,81,0
26459,note_on,,59,0,15,,,,,,,,,,,,,,,,13,,53,0
26459,note_on,,59,0,13,,,,,,,,,,,,,,,,11,,72,0
26459,note_on,,59,0,16,,,,,,,,,,,,,,,,15,,53,0
26460,note_on,,1,0,11,,,,,,,,,,,,,,,,8,,53,58
26460,note_on,,1,0,12,,,,,,,,,,,,,,,,10,,79,48
26460,note_on,,1,0,7,,,,,,,,,,,,,,,,2,,53,48
26460,note_on,,1,0,13,,,,,,,,,,,,,,,,11,,71,48
26460,note_on,,1,0,16,,,,,,,,,,,,,,,,15,,53,48
26460,note_on,,1,0,15,,,,,,,,,,,,,,,,13,,53,48
26519,note_on,,59,0,11,,,,,,,,,,,,,,,,8,,53,0
26519,note_on,,59,0,7,,,,,,,,,,,,,,,,2,,53,0
26519,note_on,,59,0,15,,,,,,,,,,,,,,,,13,,53,0
26519,note_on,,59,0,13,,,,,,,,,,,,,,,,11,,71,0
26519,note_on,,59,0,12,,,,,,,,,,,,,,,,10,,79,0
26519,note_on,,119,0,14,,,,,,,,,,,,,,,,12,,69,0
26519,note_on,,0,0,16,,,,,,,,,,,,,,,,15,,53,0
26519,note_on,,0,0,16,,,,,,,,,,,,,,,,15,,60,0
26519,note_on,,0,0,16,,,,,,,,,,,,,,,,15,,65,0
26519,note_on,,59,0,16,,,,,,,,,,,,,,,,15,,69,0
26520,note_on,,0,0,16,,,,,,,,,,,,,,,,15,,69,48
26520,note_on,,0,0,16,,,,,,,,,,,,,,,,15,,65,48
26520,note_on,,1,0,16,,,,,,,,,,,,,,,,15,,53,48
26520,note_on,,1,0,12,,,,,,,,,,,,,,,,10,,81,48
26520,note_on,,1,0,14,,,,,,,,,,,,,,,,12,,65,48
26520,note_on,,1,0,15,,,,,,,,,,,,,,,,13,,53,48
26520,note_on,,0,0,16,,,,,,,,,,,,,,,,15,,74,48
26520,note_on,,1,0,7,,,,,,,,,,,,,,,,2,,53,48
26520,note_on,,1,0,11,,,,,,,,,,,,,,,,8,,53,58
26520,note_on,,1,0,13,,,,,,,,,,,,,,,,11,,72,48
26579,note_on,,59,0,7,,,,,,,,,,,,,,,,2,,53,0
26579,note_on,,59,0,11,,,,,,,,,,,,,,,,8,,53,0
26579,note_on,,59,0,15,,,,,,,,,,,,,,,,13,,53,0
26579,note_on,,59,0,16,,,,,,,,,,,,,,,,15,,53,0
26579,note_on,,59,0,12,,,,,,,,,,,,,,,,10,,81,0
26579,note_on,,59,0,14,,,,,,,,,,,,,,,,12,,65,0
26579,note_on,,59,0,13,,,,,,,,,,,,,,,,11,,72,0
26580,note_on,,1,0,14,,,,,,,,,,,,,,,,12,,65,48
26580,note_on,,1,0,12,,,,,,,,,,,,,,,,10,,83,48
26580,note_on,,1,0,16,,,,,,,,,,,,,,,,15,,53,48
26580,note_on,,1,0,11,,,,,,,,,,,,,,,,8,,53,58
26580,note_on,,1,0,7,,,,,,,,,,,,,,,,2,,53,48
26580,note_on,,1,0,15,,,,,,,,,,,,,,,,13,,53,48
26580,note_on,,1,0,13,,,,,,,,,,,,,,,,11,,74,48
26639,note_on,,0,0,16,,,,,,,,,,,,,,,,15,,65,0
26639,note_on,,0,0,16,,,,,,,,,,,,,,,,15,,53,0
26639,note_on,,59,0,16,,,,,,,,,,,,,,,,15,,74,0
26639,note_on,,59,0,12,,,,,,,,,,,,,,,,10,,83,0
26639,note_on,,59,0,14,,,,,,,,,,,,,,,,12,,65,0
26639,note_on,,0,0,16,,,,,,,,,,,,,,,,15,,69,0
26639,note_on,,59,0,7,,,,,,,,,,,,,,,,2,,53,0
26639,note_on,,59,0,11,,,,,,,,,,,,,,,,8,,53,0
26639,note_on,,59,0,13,,,,,,,,,,,,,,,,11,,74,0
26639,note_on,,59,0,15,,,,,,,,,,,,,,,,13,,53,0
26640,note_on,,1,0,12,,,,,,,,,,,,,,,,10,,84,48
26640,note_on,,1,0,11,,,,,,,,,,,,,,,,8,,53,58
26640,note_on,,1,0,14,,,,,,,,,,,,,,,,12,,67,48
26640,note_on,,0,0,16,,,,,,,,,,,,,,,,15,,67,48
26640,note_on,,1321,0,9,,,,,,,,,,,,,,,,6,,67,58
26640,note_on,,1,0,16,,,,,,,,,,,,,,,,15,,53,48
26640,note_on,,0,0,16,,,,,,,,,,,,,,,,15,,55,48
26640,note_on,,1,0,15,,,,,,,,,,,,,,,,13,,53,48
26640,note_on,,1,0,7,,,,,,,,,,,,,,,,2,,53,48
26640,note_on,,0,0,16,,,,,,,,,,,,,,,,15,,60,48
26640,note_on,,1,0,13,,,,,,,,,,,,,,,,11,,67,48
26699,note_on,,59,0,15,,,,,,,,,,,,,,,,13,,53,0
26699,note_on,,59,0,7,,,,,,,,,,,,,,,,2,,53,0
26699,note_on,,59,0,16,,,,,,,,,,,,,,,,15,,53,0
26699,note_on,,59,0,14,,,,,,,,,,,,,,,,12,,67,0
26699,note_on,,59,0,13,,,,,,,,,,,,,,,,11,,67,0
26699,note_on,,59,0,11,,,,,,,,,,,,,,,,8,,53,0
26699,note_on,,59,0,12,,,,,,,,,,,,,,,,10,,84,0
26700,note_on,,1,0,13,,,,,,,,,,,,,,,,11,,67,48
26700,note_on,,1,0,11,,,,,,,,,,,,,,,,8,,52,58
26700,note_on,,1,0,15,,,,,,,,,,,,,,,,13,,52,48
26700,note_on,,1,0,7,,,,,,,,,,,,,,,,2,,52,48
26700,note_on,,1,0,16,,,,,,,,,,,,,,,,15,,52,48
26700,note_on,,1,0,14,,,,,,,,,,,,,,,,12,,67,48
26700,note_on,,1,0,12,,,,,,,,,,,,,,,,10,,72,48
26759,note_on,,119,0,9,,,,,,,,,,,,,,,,6,,67,0
26759,note_on,,0,0,16,,,,,,,,,,,,,,,,15,,55,0
26759,note_on,,0,0,16,,,,,,,,,,,,,,,,15,,60,0
26759,note_on,,59,0,11,,,,,,,,,,,,,,,,8,,52,0
26759,note_on,,59,0,16,,,,,,,,,,,,,,,,15,,67,0
26759,note_on,,0,0,16,,,,,,,,,,,,,,,,15,,52,0
26759,note_on,,59,0,12,,,,,,,,,,,,,,,,10,,72,0
26759,note_on,,59,0,15,,,,,,,,,,,,,,,,13,,52,0
26759,note_on,,59,0,14,,,,,,,,,,,,,,,,12,,67,0
26759,note_on,,59,0,13,,,,,,,,,,,,,,,,11,,67,0
26759,note_on,,59,0,7,,,,,,,,,,,,,,,,2,,52,0
26760,note_on,,1,0,7,,,,,,,,,,,,,,,,2,,52,48
26760,note_on,,1,0,14,,,,,,,,,,,,,,,,12,,72,48
26760,note_on,,1,0,13,,,,,,,,,,,,,,,,11,,76,48
26760,note_on,,1,0,16,,,,,,,,,,,,,,,,15,,52,48
26760,note_on,,1,0,15,,,,,,,,,,,,,,,,13,,52,48
26760,note_on,,1,0,12,,,,,,,,,,,,,,,,10,,79,48
26760,note_on,,1,0,9,,,,,,,,,,,,,,,,6,,60,58
26760,note_on,,0,0,16,,,,,,,,,,,,,,,,15,,72,48
26760,note_on,,0,0,16,,,,,,,,,,,,,,,,15,,67,48
26760,note_on,,0,0,16,,,,,,,,,,,,,,,,15,,64,48
26819,note_on,,59,0,9,,,,,,,,,,,,,,,,6,,60,0
26819,note_on,,59,0,7,,,,,,,,,,,,,,,,2,,52,0
26819,note_on,,59,0,16,,,,,,,,,,,,,,,,15,,52,0
26819,note_on,,59,0,15,,,,,,,,,,,,,,,,13,,52,0
26820,note_on,,1,0,9,,,,,,,,,,,,,,,,6,,60,58
26820,note_on,,1,0,7,,,,,,,,,,,,,,,,2,,52,48
26820,note_on,,1,0,16,,,,,,,,,,,,,,,,15,,52,48
26820,note_on,,1,0,15,,,,,,,,,,,,,,,,13,,52,48
26879,note_on,,59,0,9,,,,,,,,,,,,,,,,6,,60,0
26879,note_on,,119,0,13,,,,,,,,,,,,,,,,11,,76,0
26879,note_on,,59,0,16,,,,,,,,,,,,,,,,15,,72,0
26879,note_on,,0,0,16,,,,,,,,,,,,,,,,15,,67,0
26879,note_on,,119,0,12,,,,,,,,,,,,,,,,10,,79,0
26879,note_on,,0,0,16,,,,,,,,,,,,,,,,15,,64,0
26879,note_on,,0,0,16,,,,,,,,,,,,,,,,15,,52,0
26879,note_on,,59,0,15,,,,,,,,,,,,,,,,13,,52,0
26879,note_on,,119,0,14,,,,,,,,,,,,,,,,12,,72,0
26879,note_on,,59,0,7,,,,,,,,,,,,,,,,2,,52,0
26880,note_on,,0,0,16,,,,,,,,,,,,,,,,15,,77,48
26880,note_on,,1,0,9,,,,,,,,,,,,,,,,6,,65,58
26880,note_on,,1,0,7,,,,,,,,,,,,,,,,2,,50,48
26880,note_on,,0,0,16,,,,,,,,,,,,,,,,15,,72,48
26880,note_on,,0,0,16,,,,,,,,,,,,,,,,15,,69,48
26880,note_on,,1,0,15,,,,,,,,,,,,,,,,13,,50,48
26880,note_on,,1,0,16,,,,,,,,,,,,,,,,15,,50,48
26939,note_on,,59,0,9,,,,,,,,,,,,,,,,6,,65,0
26940,note_on,,61,0,12,,,,,,,,,,,,,,,,10,,72,48
26940,note_on,,61,0,14,,,,,,,,,,,,,,,,12,,65,48
26940,note_on,,1,0,9,,,,,,,,,,,,,,,,6,,65,58
26940,note_on,,61,0,13,,,,,,,,,,,,,,,,11,,62,48
26999,note_on,,59,0,12,,,,,,,,,,,,,,,,10,,72,0
26999,note_on,,0,0,16,,,,,,,,,,,,,,,,15,,72,0
26999,note_on,,119,0,16,,,,,,,,,,,,,,,,15,,50,0
26999,note_on,,0,0,16,,,,,,,,,,,,,,,,15,,77,0
26999,note_on,,59,0,9,,,,,,,,,,,,,,,,6,,65,0
26999,note_on,,0,0,16,,,,,,,,,,,,,,,,15,,69,0
26999,note_on,,119,0,15,,,,,,,,,,,,,,,,13,,50,0
26999,note_on,,59,0,13,,,,,,,,,,,,,,,,11,,62,0
26999,note_on,,59,0,14,,,,,,,,,,,,,,,,12,,65,0
26999,note_on,,119,0,7,,,,,,,,,,,,,,,,2,,50,0
27000,note_on,,1,0,13,,,,,,,,,,,,,,,,11,,62,48
27000,note_on,,1,0,9,,,,,,,,,,,,,,,,6,,65,58
27000,note_on,,1,0,14,,,,,,,,,,,,,,,,12,,55,48
27000,note_on,,1,0,12,,,,,,,,,,,,,,,,10,,72,48
27059,note_on,,59,0,9,,,,,,,,,,,,,,,,6,,65,0
27059,note_on,,59,0,13,,,,,,,,,,,,,,,,11,,62,0
27059,note_on,,59,0,14,,,,,,,,,,,,,,,,12,,55,0
27059,note_on,,59,0,12,,,,,,,,,,,,,,,,10,,72,0
27060,note_on,,61,0,15,,,,,,,,,,,,,,,,13,,55,48
27060,note_on,,1,0,9,,,,,,,,,,,,,,,,6,,65,58
27060,note_on,,1,0,14,,,,,,,,,,,,,,,,12,,55,48
27060,note_on,,1,0,13,,,,,,,,,,,,,,,,11,,62,48
27060,note_on,,0,0,16,,,,,,,,,,,,,,,,15,,67,48
27060,note_on,,61,0,7,,,,,,,,,,,,,,,,2,,55,48
27060,note_on,,61,0,16,,,,,,,,,,,,,,,,15,,55,48
27060,note_on,,0,0,16,,,,,,,,,,,,,,,,15,,74,48
27060,note_on,,1,0,12,,,,,,,,,,,,,,,,10,,71,48
27060,note_on,,0,0,16,,,,,,,,,,,,,,,,15,,71,48
27119,note_on,,59,0,7,,,,,,,,,,,,,,,,2,,55,0
27119,note_on,,59,0,13,,,,,,,,,,,,,,,,11,,62,0
27119,note_on,,59,0,9,,,,,,,,,,,,,,,,6,,65,0
27119,note_on,,59,0,12,,,,,,,,,,,,,,,,10,,71,0
27119,note_on,,59,0,16,,,,,,,,,,,,,,,,15,,55,0
27119,note_on,,0,0,16,,,,,,,,,,,,,,,,15,,74,0
27119,note_on,,0,0,16,,,,,,,,,,,,,,,,15,,71,0
27119,note_on,,0,0,16,,,,,,,,,,,,,,,,15,,67,0
27119,note_on,,59,0,14,,,,,,,,,,,,,,,,12,,55,0
27119,note_on,,59,0,15,,,,,,,,,,,,,,,,13,,55,0
27120,note_on,,1,0,15,,,,,,,,,,,,,,,,13,,48,48
27120,note_on,,1,0,7,,,,,,,,,,,,,,,,2,,48,48
27120,note_on,,0,0,16,,,,,,,,,,,,,,,,15,,67,48
27120,note_on,,0,0,16,,,,,,,,,,,,,,,,15,,76,48
27120,note_on,,1,0,16,,,,,,,,,,,,,,,,15,,48,48
27120,note_on,,1,0,9,,,,,,,,,,,,,,,,6,,64,58
27120,note_on,,0,0,16,,,,,,,,,,,,,,,,15,,72,48
27149,note_on,,29,0,9,,,,,,,,,,,,,,,,6,,64,0
27150,note_on,,1,0,9,,,,,,,,,,,,,,,,6,,62,58
27179,note_on,,29,0,9,,,,,,,,,,,,,,,,6,,62,0
27180,note_on,,1,0,9,,,,,,,,,,,,,,,,6,,64,58
27180,note_on,,61,0,12,,,,,,,,,,,,,,,,10,,67,48
27180,note_on,,61,0,14,,,,,,,,,,,,,,,,12,,60,48
27180,note_on,,61,0,13,,,,,,,,,,,,,,,,11,,64,48
27209,note_on,,29,0,9,,,,,,,,,,,,,,,,6,,64,0
27210,note_on,,1,0,9,,,,,,,,,,,,,,,,6,,65,58
27239,note_on,,59,0,12,,,,,,,,,,,,,,,,10,,67,0
27239,note_on,,119,0,16,,,,,,,,,,,,,,,,15,,48,0
27239,note_on,,59,0,13,,,,,,,,,,,,,,,,11,,64,0
27239,note_on,,0,0,16,,,,,,,,,,,,,,,,15,,67,0
27239,note_on,,29,0,9,,,,,,,,,,,,,,,,6,,65,0
27239,note_on,,0,0,16,,,,,,,,,,,,,,,,15,,76,0
27239,note_on,,0,0,16,,,,,,,,,,,,,,,,15,,72,0
27239,note_on,,59,0,14,,,,,,,,,,,,,,,,12,,60,0
27239,note_on,,119,0,15,,,,,,,,,,,,,,,,13,,48,0
27239,note_on,,119,0,7,,,,,,,,,,,,,,,,2,,48,0
27240,note_on,,1,0,14,,,,,,,,,,,,,,,,12,,64,48
27240,note_on,,1,0,13,,,,,,,,,,,,,,,,11,,67,48
27240,note_on,,481,0,11,,,,,,,,,,,,,,,,8,,60,58
27240,note_on,,1,0,12,,,,,,,,,,,,,,,,10,,72,48
27240,note_on,,1,0,9,,,,,,,,,,,,,,,,6,,64,58
27269,note_on,,29,0,9,,,,,,,,,,,,,,,,6,,64,0
27270,note_on,,1,0,9,,,,,,,,,,,,,,,,6,,65,58
27299,note_on,,29,0,9,,,,,,,,,,,,,,,,6,,65,0
27299,note_on,,59,0,11,,,,,,,,,,,,,,,,8,,60,0
27300,note_on,,1,0,11,,,,,,,,,,,,,,,,8,,59,58
27300,note_on,,1,0,9,,,,,,,,,,,,,,,,6,,62,58
27329,note_on,,29,0,9,,,,,,,,,,,,,,,,6,,62,0
27330,note_on,,1,0,9,,,,,,,,,,,,,,,,6,,64,58
27359,note_on,,59,0,11,,,,,,,,,,,,,,,,8,,59,0
27359,note_on,,119,0,13,,,,,,,,,,,,,,,,11,,67,0
27359,note_on,,119,0,14,,,,,,,,,,,,,,,,12,,64,0
27359,note_on,,119,0,12,,,,,,,,,,,,,,,,10,,72,0
27359,note_on,,29,0,9,,,,,,,,,,,,,,,,6,,64,0
27360,note_on,,121,0,15,,,,,,,,,,,,,,,,13,,53,48
27360,note_on,,1,0,9,,,,,,,,,,,,,,,,6,,60,58
27360,note_on,,121,0,7,,,,,,,,,,,,,,,,2,,53,48
27360,note_on,,1,0,11,,,,,,,,,,,,,,,,8,,57,58
27360,note_on,,121,0,16,,,,,,,,,,,,,,,,15,,53,48
27360,note_on,,0,0,16,,,,,,,,,,,,,,,,15,,77,48
27360,note_on,,0,0,16,,,,,,,,,,,,,,,,15,,72,48
27360,note_on,,0,0,16,,,,,,,,,,,,,,,,15,,69,48
27360,note_on,,0,0,16,,,,,,,,,,,,,,,,15,,60,48
27389,note_on,,29,0,9,,,,,,,,,,,,,,,,6,,60,0
27390,note_on,,1,0,9,,,,,,,,,,,,,,,,6,,59,58
27419,note_on,,29,0,9,,,,,,,,,,,,,,,,6,,59,0
27420,note_on,,1,0,9,,,,,,,,,,,,,,,,6,,60,58
27449,note_on,,29,0,9,,,,,,,,,,,,,,,,6,,60,0
27450,note_on,,1,0,9,,,,,,,,,,,,,,,,6,,62,58
27479,note_on,,0,0,16,,,,,,,,,,,,,,,,15,,77,0
27479,note_on,,119,0,15,,,,,,,,,,,,,,,,13,,53,0
27479,note_on,,29,0,9,,,,,,,,,,,,,,,,6,,62,0
27479,note_on,,119,0,16,,,,,,,,,,,,,,,,15,,53,0
27479,note_on,,0,0,16,,,,,,,,,,,,,,,,15,,69,0
27479,note_on,,119,0,11,,,,,,,,,,,,,,,,8,,57,0
27479,note_on,,0,0,16,,,,,,,,,,,,,,,,15,,60,0
27479,note_on,,119,0,7,,,,,,,,,,,,,,,,2,,53,0
27479,note_on,,0,0,16,,,,,,,,,,,,,,,,15,,72,0
27480,note_on,,1,0,9,,,,,,,,,,,,,,,,6,,60,58
27480,note_on,,121,0,12,,,,,,,,,,,,,,,,10,,81,48
27480,note_on,,121,0,13,,,,,,,,,,,,,,,,11,,65,48
27480,note_on,,121,0,14,,,,,,,,,,,,,,,,12,,72,48
27509,note_on,,29,0,9,,,,,,,,,,,,,,,,6,,60,0
27510,note_on,,1,0,9,,,,,,,,,,,,,,,,6,,64,58
27539,note_on,,29,0,9,,,,,,,,,,,,,,,,6,,64,0
27540,note_on,,1,0,9,,,,,,,,,,,,,,,,6,,62,58
27569,note_on,,29,0,9,,,,,,,,,,,,,,,,6,,62,0
27570,note_on,,1,0,9,,,,,,,,,,,,,,,,6,,64,58
27599,note_on,,29,0,9,,,,,,,,,,,,,,,,6,,64,0
27599,note_on,,119,0,13,,,,,,,,,,,,,,,,11,,65,0
27599,note_on,,119,0,12,,,,,,,,,,,,,,,,10,,81,0
27599,note_on,,119,0,14,,,,,,,,,,,,,,,,12,,72,0
27600,note_on,,1,0,9,,,,,,,,,,,,,,,,6,,65,58
27600,note_on,,0,0,16,,,,,,,,,,,,,,,,15,,69,48
27600,note_on,,121,0,16,,,,,,,,,,,,,,,,15,,50,48
27600,note_on,,0,0,16,,,,,,,,,,,,,,,,15,,65,48
27600,note_on,,121,0,7,,,,,,,,,,,,,,,,2,,50,48
27600,note_on,,121,0,15,,,,,,,,,,,,,,,,13,,50,48
27600,note_on,,0,0,16,,,,,,,,,,,,,,,,15,,62,48
27629,note_on,,29,0,9,,,,,,,,,,,,,,,,6,,65,0
27630,note_on,,1,0,9,,,,,,,,,,,,,,,,6,,64,58
27659,note_on,,29,0,9,,,,,,,,,,,,,,,,6,,64,0
27660,note_on,,181,0,11,,,,,,,,,,,,,,,,8,,57,58
27660,note_on,,1,0,9,,,,,,,,,,,,,,,,6,,65,58
27689,note_on,,29,0,9,,,,,,,,,,,,,,,,6,,65,0
27690,note_on,,1,0,9,,,,,,,,,,,,,,,,6,,67,58
27719,note_on,,0,0,16,,,,,,,,,,,,,,,,15,,62,0
27719,note_on,,0,0,16,,,,,,,,,,,,,,,,15,,65,0
27719,note_on,,0,0,16,,,,,,,,,,,,,,,,15,,69,0
27719,note_on,,119,0,15,,,,,,,,,,,,,,,,13,,50,0
27719,note_on,,29,0,9,,,,,,,,,,,,,,,,6,,67,0
27719,note_on,,119,0,7,,,,,,,,,,,,,,,,2,,50,0
27719,note_on,,119,0,16,,,,,,,,,,,,,,,,15,,50,0
27719,note_on,,59,0,11,,,,,,,,,,,,,,,,8,,57,0
27720,note_on,,1,0,11,,,,,,,,,,,,,,,,8,,62,58
27720,note_on,,1,0,9,,,,,,,,,,,,,,,,6,,65,58
27720,note_on,,121,0,12,,,,,,,,,,,,,,,,10,,77,48
27720,note_on,,121,0,14,,,,,,,,,,,,,,,,12,,62,48
27720,note_on,,121,0,13,,,,,,,,,,,,,,,,11,,69,48
27749,note_on,,29,0,9,,,,,,,,,,,,,,,,6,,65,0
27750,note_on,,1,0,9,,,,,,,,,,,,,,,,6,,67,58
27779,note_on,,59,0,11,,,,,,,,,,,,,,,,8,,62,0
27779,note_on,,29,0,9,,,,,,,,,,,,,,,,6,,67,0
27780,note_on,,1,0,11,,,,,,,,,,,,,,,,8,,60,58
27780,note_on,,1,0,9,,,,,,,,,,,,,,,,6,,64,58
27809,note_on,,29,0,9,,,,,,,,,,,,,,,,6,,64,0
27810,note_on,,1,0,9,,,,,,,,,,,,,,,,6,,65,58
27839,note_on,,119,0,14,,,,,,,,,,,,,,,,12,,62,0
27839,note_on,,59,0,11,,,,,,,,,,,,,,,,8,,60,0
27839,note_on,,119,0,12,,,,,,,,,,,,,,,,10,,77,0
27839,note_on,,119,0,13,,,,,,,,,,,,,,,,11,,69,0
27839,note_on,,29,0,9,,,,,,,,,,,,,,,,6,,65,0
27840,note_on,,121,0,7,,,,,,,,,,,,,,,,2,,55,48
27840,note_on,,1,0,11,,,,,,,,,,,,,,,,8,,59,58
27840,note_on,,1,0,9,,,,,,,,,,,,,,,,6,,62,58
27840,note_on,,121,0,16,,,,,,,,,,,,,,,,15,,55,48
27840,note_on,,0,0,16,,,,,,,,,,,,,,,,15,,71,48
27840,note_on,,0,0,16,,,,,,,,,,,,,,,,15,,62,48
27840,note_on,,0,0,16,,,,,,,,,,,,,,,,15,,59,48
27840,note_on,,0,0,16,,,,,,,,,,,,,,,,15,,67,48
27840,note_on,,121,0,15,,,,,,,,,,,,,,,,13,,55,48
27869,note_on,,29,0,9,,,,,,,,,,,,,,,,6,,62,0
27870,note_on,,1,0,9,,,,,,,,,,,,,,,,6,,60,58
27899,note_on,,59,0,11,,,,,,,,,,,,,,,,8,,59,0
27899,note_on,,29,0,9,,,,,,,,,,,,,,,,6,,60,0
27900,note_on,,1,0,11,,,,,,,,,,,,,,,,8,,59,58
27900,note_on,,1,0,9,,,,,,,,,,,,,,,,6,,62,58
27929,note_on,,29,0,9,,,,,,,,,,,,,,,,6,,62,0
27930,note_on,,1,0,9,,,,,,,,,,,,,,,,6,,64,58
27959,note_on,,119,0,7,,,,,,,,,,,,,,,,2,,55,0
27959,note_on,,0,0,16,,,,,,,,,,,,,,,,15,,67,0
27959,note_on,,0,0,16,,,,,,,,,,,,,,,,15,,71,0
27959,note_on,,29,0,9,,,,,,,,,,,,,,,,6,,64,0
27959,note_on,,119,0,15,,,,,,,,,,,,,,,,13,,55,0
27959,note_on,,0,0,16,,,,,,,,,,,,,,,,15,,59,0
27959,note_on,,119,0,16,,,,,,,,,,,,,,,,15,,55,0
27959,note_on,,59,0,11,,,,,,,,,,,,,,,,8,,59,0
27959,note_on,,0,0,16,,,,,,,,,,,,,,,,15,,62,0
27960,note_on,,121,0,13,,,,,,,,,,,,,,,,11,,71,48
27960,note_on,,1,0,9,,,,,,,,,,,,,,,,6,,62,58
27960,note_on,,121,0,12,,,,,,,,,,,,,,,,10,,74,48
27960,note_on,,121,0,14,,,,,,,,,,,,,,,,12,,67,48
27989,note_on,,29,0,9,,,,,,,,,,,,,,,,6,,62,0
27990,note_on,,1,0,9,,,,,,,,,,,,,,,,6,,65,58
28019,note_on,,29,0,9,,,,,,,,,,,,,,,,6,,65,0
28020,note_on,,1,0,9,,,,,,,,,,,,,,,,6,,64,58
28049,note_on,,29,0,9,,,,,,,,,,,,,,,,6,,64,0
28050,note_on,,1,0,9,,,,,,,,,,,,,,,,6,,65,58
28079,note_on,,119,0,14,,,,,,,,,,,,,,,,12,,67,0
28079,note_on,,119,0,13,,,,,,,,,,,,,,,,11,,71,0
28079,note_on,,119,0,12,,,,,,,,,,,,,,,,10,,74,0
28079,note_on,,29,0,9,,,,,,,,,,,,,,,,6,,65,0
28080,note_on,,0,0,16,,,,,,,,,,,,,,,,15,,55,48
28080,note_on,,0,0,16,,,,,,,,,,,,,,,,15,,64,48
28080,note_on,,0,0,16,,,,,,,,,,,,,,,,15,,67,48
28080,note_on,,0,0,16,,,,,,,,,,,,,,,,15,,71,48
28080,note_on,,121,0,15,,,,,,,,,,,,,,,,13,,52,48
28080,note_on,,121,0,16,,,,,,,,,,,,,,,,15,,52,48
28080,note_on,,121,0,7,,,,,,,,,,,,,,,,2,,52,48
28080,note_on,,1,0,9,,,,,,,,,,,,,,,,6,,67,58
28109,note_on,,29,0,9,,,,,,,,,,,,,,,,6,,67,0
28110,note_on,,1,0,9,,,,,,,,,,,,,,,,6,,65,58
28139,note_on,,29,0,9,,,,,,,,,,,,,,,,6,,65,0
28140,note_on,,1,0,9,,,,,,,,,,,,,,,,6,,67,58
28169,note_on,,29,0,9,,,,,,,,,,,,,,,,6,,67,0
28170,note_on,,1,0,9,,,,,,,,,,,,,,,,6,,69,58
28199,note_on,,29,0,9,,,,,,,,,,,,,,,,6,,69,0
28199,note_on,,119,0,15,,,,,,,,,,,,,,,,13,,52,0
28199,note_on,,0,0,16,,,,,,,,,,,,,,,,15,,71,0
28199,note_on,,0,0,16,,,,,,,,,,,,,,,,15,,67,0
28199,note_on,,119,0,16,,,,,,,,,,,,,,,,15,,52,0
28199,note_on,,119,0,7,,,,,,,,,,,,,,,,2,,52,0
28199,note_on,,0,0,16,,,,,,,,,,,,,,,,15,,64,0
28199,note_on,,0,0,16,,,,,,,,,,,,,,,,15,,55,0
28200,note_on,,1921,0,5,,,,,,,,,,,,,,,,0,,71,47
28200,note_on,,1,0,9,,,,,,,,,,,,,,,,6,,67,58
28200,note_on,,2401,0,10,,,,,,,,,,,,,,,,7,,64,58
28200,note_on,,1921,0,6,,,,,,,,,,,,,,,,1,,71,47
28200,note_on,,121,0,12,,,,,,,,,,,,,,,,10,,76,48
28200,note_on,,121,0,14,,,,,,,,,,,,,,,,12,,67,48
28200,note_on,,1921,0,8,,,,,,,,,,,,,,,,5,,71,58
28200,note_on,,121,0,13,,,,,,,,,,,,,,,,11,,71,48
28229,note_on,,29,0,9,,,,,,,,,,,,,,,,6,,67,0
28230,note_on,,1,0,9,,,,,,,,,,,,,,,,6,,69,58
28259,note_on,,59,0,6,,,,,,,,,,,,,,,,1,,71,0
28259,note_on,,59,0,10,,,,,,,,,,,,,,,,7,,64,0
28259,note_on,,29,0,9,,,,,,,,,,,,,,,,6,,69,0
28259,note_on,,59,0,8,,,,,,,,,,,,,,,,5,,71,0
28259,note_on,,59,0,5,,,,,,,,,,,,,,,,0,,71,0
28260,note_on,,1,0,6,,,,,,,,,,,,,,,,1,,71,47
28260,note_on,,1,0,5,,,,,,,,,,,,,,,,0,,71,47
28260,note_on,,1,0,10,,,,,,,,,,,,,,,,7,,62,58
28260,note_on,,1,0,9,,,,,,,,,,,,,,,,6,,65,58
28260,note_on,,1,0,8,,,,,,,,,,,,,,,,5,,71,58
28289,note_on,,29,0,9,,,,,,,,,,,,,,,,6,,65,0
28290,note_on,,1,0,9,,,,,,,,,,,,,,,,6,,67,58
28319,note_on,,59,0,5,,,,,,,,,,,,,,,,0,,71,0
28319,note_on,,119,0,14,,,,,,,,,,,,,,,,12,,67,0
28319,note_on,,119,0,13,,,,,,,,,,,,,,,,11,,71,0
28319,note_on,,59,0,10,,,,,,,,,,,,,,,,7,,62,0
28319,note_on,,59,0,8,,,,,,,,,,,,,,,,5,,71,0
28319,note_on,,119,0,12,,,,,,,,,,,,,,,,10,,76,0
28319,note_on,,59,0,6,,,,,,,,,,,,,,,,1,,71,0
28319,note_on,,29,0,9,,,,,,,,,,,,,,,,6,,67,0
28320,note_on,,1,0,9,,,,,,,,,,,,,,,,6,,64,58
28320,note_on,,0,0,16,,,,,,,,,,,,,,,,15,,69,48
28320,note_on,,1,0,10,,,,,,,,,,,,,,,,7,,60,58
28320,note_on,,1,0,8,,,,,,,,,,,,,,,,5,,72,58
28320,note_on,,1,0,6,,,,,,,,,,,,,,,,1,,72,47
28320,note_on,,1,0,5,,,,,,,,,,,,,,,,0,,72,47
28320,note_on,,121,0,15,,,,,,,,,,,,,,,,13,,57,48
28320,note_on,,121,0,7,,,,,,,,,,,,,,,,2,,57,48
28320,note_on,,0,0,16,,,,,,,,,,,,,,,,15,,64,48
28320,note_on,,121,0,16,,,,,,,,,,,,,,,,15,,57,48
28320,note_on,,0,0,16,,,,,,,,,,,,,,,,15,,72,48
28320,note_on,,0,0,16,,,,,,,,,,,,,,,,15,,60,48
28349,note_on,,29,0,9,,,,,,,,,,,,,,,,6,,64,0
28350,note_on,,1,0,9,,,,,,,,,,,,,,,,6,,62,58
28379,note_on,,29,0,9,,,,,,,,,,,,,,,,6,,62,0
28380,note_on,,1,0,9,,,,,,,,,,,,,,,,6,,64,58
28409,note_on,,29,0,9,,,,,,,,,,,,,,,,6,,64,0
28410,note_on,,1,0,9,,,,,,,,,,,,,,,,6,,66,58
28439,note_on,,119,0,6,,,,,,,,,,,,,,,,1,,72,0
28439,note_on,,29,0,9,,,,,,,,,,,,,,,,6,,66,0
28439,note_on,,119,0,15,,,,,,,,,,,,,,,,13,,57,0
28439,note_on,,119,0,5,,,,,,,,,,,,,,,,0,,72,0
28439,note_on,,119,0,10,,,,,,,,,,,,,,,,7,,60,0
28439,note_on,,0,0,16,,,,,,,,,,,,,,,,15,,72,0
28439,note_on,,119,0,7,,,,,,,,,,,,,,,,2,,57,0
28439,note_on,,119,0,16,,,,,,,,,,,,,,,,15,,57,0
28439,note_on,,0,0,16,,,,,,,,,,,,,,,,15,,60,0
28439,note_on,,0,0,16,,,,,,,,,,,,,,,,15,,64,0
28439,note_on,,0,0,16,,,,,,,,,,,,,,,,15,,69,0
28439,note_on,,119,0,8,,,,,,,,,,,,,,,,5,,72,0
28440,note_on,,121,0,12,,,,,,,,,,,,,,,,10,,76,48
28440,note_on,,121,0,14,,,,,,,,,,,,,,,,12,,69,48
28440,note_on,,1,0,9,,,,,,,,,,,,,,,,6,,64,58
28440,note_on,,121,0,13,,,,,,,,,,,,,,,,11,,72,48
28469,note_on,,29,0,9,,,,,,,,,,,,,,,,6,,64,0
28470,note_on,,1,0,9,,,,,,,,,,,,,,,,6,,67,58
28499,note_on,,29,0,9,,,,,,,,,,,,,,,,6,,67,0
28500,note_on,,1,0,9,,,,,,,,,,,,,,,,6,,66,58
28529,note_on,,29,0,9,,,,,,,,,,,,,,,,6,,66,0
28530,note_on,,1,0,9,,,,,,,,,,,,,,,,6,,67,58
28559,note_on,,119,0,12,,,,,,,,,,,,,,,,10,,76,0
28559,note_on,,119,0,13,,,,,,,,,,,,,,,,11,,72,0
28559,note_on,,29,0,9,,,,,,,,,,,,,,,,6,,67,0
28559,note_on,,119,0,14,,,,,,,,,,,,,,,,12,,69,0
28560,note_on,,0,0,16,,,,,,,,,,,,,,,,15,,57,48
28560,note_on,,1,0,9,,,,,,,,,,,,,,,,6,,69,58
28560,note_on,,0,0,16,,,,,,,,,,,,,,,,15,,64,48
28560,note_on,,0,0,16,,,,,,,,,,,,,,,,15,,69,48
28560,note_on,,121,0,15,,,,,,,,,,,,,,,,13,,45,48
28560,note_on,,0,0,16,,,,,,,,,,,,,,,,15,,72,48
28560,note_on,,121,0,7,,,,,,,,,,,,,,,,2,,45,48
28560,note_on,,0,0,16,,,,,,,,,,,,,,,,15,,76,48
28560,note_on,,121,0,16,,,,,,,,,,,,,,,,15,,45,48
28589,note_on,,29,0,9,,,,,,,,,,,,,,,,6,,69,0
28590,note_on,,1,0,9,,,,,,,,,,,,,,,,6,,67,58
28619,note_on,,29,0,9,,,,,,,,,,,,,,,,6,,67,0
28620,note_on,,181,0,10,,,,,,,,,,,,,,,,7,,59,58
28620,note_on,,61,0,12,,,,,,,,,,,,,,,,10,,74,48
28620,note_on,,181,0,8,,,,,,,,,,,,,,,,5,,74,58
28620,note_on,,1,0,9,,,,,,,,,,,,,,,,6,,69,58
28620,note_on,,61,0,14,,,,,,,,,,,,,,,,12,,64,48
28620,note_on,,61,0,13,,,,,,,,,,,,,,,,11,,71,48
28620,note_on,,181,0,5,,,,,,,,,,,,,,,,0,,74,47
28620,note_on,,181,0,6,,,,,,,,,,,,,,,,1,,74,47
28649,note_on,,29,0,9,,,,,,,,,,,,,,,,6,,69,0
28650,note_on,,1,0,9,,,,,,,,,,,,,,,,6,,71,58
28679,note_on,,0,0,16,,,,,,,,,,,,,,,,15,,72,0
28679,note_on,,0,0,16,,,,,,,,,,,,,,,,15,,69,0
28679,note_on,,0,0,16,,,,,,,,,,,,,,,,15,,64,0
28679,note_on,,0,0,16,,,,,,,,,,,,,,,,15,,57,0
28679,note_on,,59,0,6,,,,,,,,,,,,,,,,1,,74,0
28679,note_on,,29,0,9,,,,,,,,,,,,,,,,6,,71,0
28679,note_on,,59,0,14,,,,,,,,,,,,,,,,12,,64,0
28679,note_on,,59,0,10,,,,,,,,,,,,,,,,7,,59,0
28679,note_on,,59,0,5,,,,,,,,,,,,,,,,0,,74,0
28679,note_on,,0,0,16,,,,,,,,,,,,,,,,15,,76,0
28679,note_on,,59,0,12,,,,,,,,,,,,,,,,10,,74,0
28679,note_on,,119,0,16,,,,,,,,,,,,,,,,15,,45,0
28679,note_on,,59,0,8,,,,,,,,,,,,,,,,5,,74,0
28679,note_on,,119,0,7,,,,,,,,,,,,,,,,2,,45,0
28679,note_on,,119,0,15,,,,,,,,,,,,,,,,13,,45,0
28679,note_on,,59,0,13,,,,,,,,,,,,,,,,11,,71,0
28680,note_on,,1,0,6,,,,,,,,,,,,,,,,1,,72,47
28680,note_on,,1,0,5,,,,,,,,,,,,,,,,0,,72,47
28680,note_on,,1,0,8,,,,,,,,,,,,,,,,5,,72,58
28680,note_on,,1,0,12,,,,,,,,,,,,,,,,10,,72,48
28680,note_on,,1,0,10,,,,,,,,,,,,,,,,7,,60,58
28680,note_on,,1,0,13,,,,,,,,,,,,,,,,11,,69,48
28680,note_on,,1,0,9,,,,,,,,,,,,,,,,6,,69,58
28680,note_on,,1,0,14,,,,,,,,,,,,,,,,12,,64,48
28709,note_on,,29,0,9,,,,,,,,,,,,,,,,6,,69,0
28709,note_on,,29,0,13,,,,,,,,,,,,,,,,11,,69,0
28710,note_on,,1,0,9,,,,,,,,,,,,,,,,6,,71,58
28710,note_on,,1,0,13,,,,,,,,,,,,,,,,11,,71,48
28739,note_on,,29,0,9,,,,,,,,,,,,,,,,6,,71,0
28739,note_on,,59,0,10,,,,,,,,,,,,,,,,7,,60,0
28739,note_on,,29,0,13,,,,,,,,,,,,,,,,11,,71,0
28739,note_on,,59,0,14,,,,,,,,,,,,,,,,12,,64,0
28740,note_on,,61,0,15,,,,,,,,,,,,,,,,13,,48,48
28740,note_on,,1,0,10,,,,,,,,,,,,,,,,7,,60,58
28740,note_on,,0,0,16,,,,,,,,,,,,,,,,15,,72,48
28740,note_on,,0,0,16,,,,,,,,,,,,,,,,15,,69,48
28740,note_on,,0,0,16,,,,,,,,,,,,,,,,15,,64,48
28740,note_on,,0,0,16,,,,,,,,,,,,,,,,15,,57,48
28740,note_on,,1,0,13,,,,,,,,,,,,,,,,11,,69,48
28740,note_on,,1,0,14,,,,,,,,,,,,,,,,12,,64,48
28740,note_on,,61,0,16,,,,,,,,,,,,,,,,15,,48,48
28740,note_on,,61,0,7,,,,,,,,,,,,,,,,2,,48,48
28740,note_on,,1,0,9,,,,,,,,,,,,,,,,6,,69,58
28769,note_on,,29,0,9,,,,,,,,,,,,,,,,6,,69,0
28769,note_on,,89,0,5,,,,,,,,,,,,,,,,0,,72,0
28769,note_on,,89,0,12,,,,,,,,,,,,,,,,10,,72,0
28769,note_on,,89,0,8,,,,,,,,,,,,,,,,5,,72,0
28769,note_on,,89,0,6,,,,,,,,,,,,,,,,1,,72,0
28769,note_on,,29,0,13,,,,,,,,,,,,,,,,11,,69,0
28770,note_on,,1,0,8,,,,,,,,,,,,,,,,5,,71,58
28770,note_on,,1,0,12,,,,,,,,,,,,,,,,10,,71,48
28770,note_on,,1,0,9,,,,,,,,,,,,,,,,6,,67,58
28770,note_on,,1,0,5,,,,,,,,,,,,,,,,0,,71,47
28770,note_on,,1,0,13,,,,,,,,,,,,,,,,11,,67,48
28770,note_on,,1,0,6,,,,,,,,,,,,,,,,1,,71,47
28799,note_on,,0,0,16,,,,,,,,,,,,,,,,15,,64,0
28799,note_on,,0,0,16,,,,,,,,,,,,,,,,15,,57,0
28799,note_on,,29,0,12,,,,,,,,,,,,,,,,10,,71,0
28799,note_on,,0,0,16,,,,,,,,,,,,,,,,15,,69,0
28799,note_on,,29,0,8,,,,,,,,,,,,,,,,5,,71,0
28799,note_on,,29,0,9,,,,,,,,,,,,,,,,6,,67,0
28799,note_on,,59,0,7,,,,,,,,,,,,,,,,2,,48,0
28799,note_on,,59,0,10,,,,,,,,,,,,,,,,7,,60,0
28799,note_on,,0,0,16,,,,,,,,,,,,,,,,15,,72,0
28799,note_on,,29,0,13,,,,,,,,,,,,,,,,11,,67,0
28799,note_on,,59,0,15,,,,,,,,,,,,,,,,13,,48,0
28799,note_on,,29,0,5,,,,,,,,,,,,,,,,0,,71,0
28799,note_on,,59,0,16,,,,,,,,,,,,,,,,15,,48,0
28799,note_on,,59,0,14,,,,,,,,,,,,,,,,12,,64,0
28799,note_on,,29,0,6,,,,,,,,,,,,,,,,1,,71,0
28800,note_on,,1,0,12,,,,,,,,,,,,,,,,10,,69,48
28800,note_on,,1,0,15,,,,,,,,,,,,,,,,13,,50,48
28800,note_on,,1,0,9,,,,,,,,,,,,,,,,6,,66,58
28800,note_on,,1,0,8,,,,,,,,,,,,,,,,5,,69,58
28800,note_on,,1,0,5,,,,,,,,,,,,,,,,0,,69,47
28800,note_on,,0,0,16,,,,,,,,,,,,,,,,15,,57,48
28800,note_on,,0,0,16,,,,,,,,,,,,,,,,15,,62,48
28800,note_on,,1,0,7,,,,,,,,,,,,,,,,2,,50,48
28800,note_on,,0,0,16,,,,,,,,,,,,,,,,15,,66,48
28800,note_on,,0,0,16,,,,,,,,,,,,,,,,15,,69,48
28800,note_on,,1,0,16,,,,,,,,,,,,,,,,15,,50,48
28800,note_on,,1,0,13,,,,,,,,,,,,,,,,11,,66,48
28800,note_on,,1,0,6,,,,,,,,,,,,,,,,1,,69,47
28800,note_on,,1,0,10,,,,,,,,,,,,,,,,7,,62,58
28800,note_on,,1,0,14,,,,,,,,,,,,,,,,12,,66,48
28859,note_on,,59,0,6,,,,,,,,,,,,,,,,1,,69,0
28859,note_on,,59,0,5,,,,,,,,,,,,,,,,0,,69,0
28859,note_on,,59,0,13,,,,,,,,,,,,,,,,11,,66,0
28859,note_on,,59,0,10,,,,,,,,,,,,,,,,7,,62,0
28859,note_on,,59,0,8,,,,,,,,,,,,,,,,5,,69,0
28859,note_on,,59,0,12,,,,,,,,,,,,,,,,10,,69,0
28859,note_on,,59,0,14,,,,,,,,,,,,,,,,12,,66,0
28860,note_on,,1,0,12,,,,,,,,,,,,,,,,10,,62,48
28860,note_on,,1,0,6,,,,,,,,,,,,,,,,1,,69,47
28860,note_on,,1,0,5,,,,,,,,,,,,,,,,0,,69,47
28860,note_on,,1,0,8,,,,,,,,,,,,,,,,5,,69,58
28860,note_on,,1,0,13,,,,,,,,,,,,,,,,11,,66,48
28860,note_on,,1,0,10,,,,,,,,,,,,,,,,7,,62,58
28860,note_on,,1,0,14,,,,,,,,,,,,,,,,12,,66,48
28919,note_on,,59,0,5,,,,,,,,,,,,,,,,0,,69,0
28919,note_on,,59,0,10,,,,,,,,,,,,,,,,7,,62,0
28919,note_on,,119,0,15,,,,,,,,,,,,,,,,13,,50,0
28919,note_on,,0,0,16,,,,,,,,,,,,,,,,15,,57,0
28919,note_on,,59,0,12,,,,,,,,,,,,,,,,10,,62,0
28919,note_on,,119,0,7,,,,,,,,,,,,,,,,2,,50,0
28919,note_on,,59,0,14,,,,,,,,,,,,,,,,12,,66,0
28919,note_on,,119,0,16,,,,,,,,,,,,,,,,15,,50,0
28919,note_on,,0,0,16,,,,,,,,,,,,,,,,15,,69,0
28919,note_on,,0,0,16,,,,,,,,,,,,,,,,15,,66,0
28919,note_on,,0,0,16,,,,,,,,,,,,,,,,15,,62,0
28919,note_on,,59,0,13,,,,,,,,,,,,,,,,11,,66,0
28919,note_on,,59,0,8,,,,,,,,,,,,,,,,5,,69,0
28919,note_on,,59,0,6,,,,,,,,,,,,,,,,1,,69,0
28919,note_on,,119,0,9,,,,,,,,,,,,,,,,6,,66,0
28920,note_on,,0,0,16,,,,,,,,,,,,,,,,15,,55,48
28920,note_on,,1,0,15,,,,,,,,,,,,,,,,13,,47,48
28920,note_on,,1,0,7,,,,,,,,,,,,,,,,2,,47,48
28920,note_on,,1,0,16,,,,,,,,,,,,,,,,15,,47,48
28920,note_on,,1,0,12,,,,,,,,,,,,,,,,10,,74,48
28920,note_on,,1,0,13,,,,,,,,,,,,,,,,11,,67,48
28920,note_on,,1,0,14,,,,,,,,,,,,,,,,12,,62,48
28920,note_on,,0,0,16,,,,,,,,,,,,,,,,15,,62,48
28920,note_on,,1,0,10,,,,,,,,,,,,,,,,7,,55,58
28920,note_on,,0,0,16,,,,,,,,,,,,,,,,15,,67,48
28920,note_on,,0,0,16,,,,,,,,,,,,,,,,15,,74,48
29009,note_on,,89,0,10,,,,,,,,,,,,,,,,7,,55,0
29010,note_on,,1,0,10,,,,,,,,,,,,,,,,7,,59,58
29039,note_on,,0,0,16,,,,,,,,,,,,,,,,15,,55,0
29039,note_on,,0,0,16,,,,,,,,,,,,,,,,15,,67,0
29039,note_on,,119,0,15,,,,,,,,,,,,,,,,13,,47,0
29039,note_on,,0,0,16,,,,,,,,,,,,,,,,15,,62,0
29039,note_on,,119,0,7,,,,,,,,,,,,,,,,2,,47,0
29039,note_on,,29,0,10,,,,,,,,,,,,,,,,7,,59,0
29039,note_on,,0,0,16,,,,,,,,,,,,,,,,15,,74,0
29039,note_on,,119,0,14,,,,,,,,,,,,,,,,12,,62,0
29039,note_on,,119,0,13,,,,,,,,,,,,,,,,11,,67,0
29039,note_on,,119,0,16,,,,,,,,,,,,,,,,15,,47,0
29039,note_on,,119,0,12,,,,,,,,,,,,,,,,10,,74,0
29040,note_on,,1,0,7,,,,,,,,,,,,,,,,2,,42,48
29040,note_on,,0,0,16,,,,,,,,,,,,,,,,15,,62,48
29040,note_on,,1,0,10,,,,,,,,,,,,,,,,7,,57,58
29040,note_on,,1,0,16,,,,,,,,,,,,,,,,15,,50,48
29040,note_on,,0,0,16,,,,,,,,,,,,,,,,15,,42,48
29040,note_on,,0,0,16,,,,,,,,,,,,,,,,15,,72,48
29040,note_on,,0,0,16,,,,,,,,,,,,,,,,15,,69,48
29040,note_on,,1,0,15,,,,,,,,,,,,,,,,13,,42,48
29129,note_on,,89,0,10,,,,,,,,,,,,,,,,7,,57,0
29130,note_on,,1,0,10,,,,,,,,,,,,,,,,7,,60,58
29159,note_on,,29,0,10,,,,,,,,,,,,,,,,7,,60,0
29159,note_on,,119,0,16,,,,,,,,,,,,,,,,15,,50,0
29159,note_on,,0,0,16,,,,,,,,,,,,,,,,15,,42,0
29159,note_on,,119,0,15,,,,,,,,,,,,,,,,13,,42,0
29159,note_on,,0,0,16,,,,,,,,,,,,,,,,15,,72,0
29159,note_on,,0,0,16,,,,,,,,,,,,,,,,15,,62,0
29159,note_on,,0,0,16,,,,,,,,,,,,,,,,15,,69,0
29159,note_on,,119,0,7,,,,,,,,,,,,,,,,2,,42,0
29160,note_on,,0,0,16,,,,,,,,,,,,,,,,15,,71,48
29160,note_on,,1,0,16,,,,,,,,,,,,,,,,15,,43,48
29160,note_on,,1,0,7,,,,,,,,,,,,,,,,2,,43,48
29160,note_on,,1,0,15,,,,,,,,,,,,,,,,13,,43,48
29160,note_on,,1,0,10,,,,,,,,,,,,,,,,7,,59,58
29160,note_on,,0,0,16,,,,,,,,,,,,,,,,15,,67,48
29160,note_on,,0,0,16,,,,,,,,,,,,,,,,15,,55,48
29160,note_on,,0,0,16,,,,,,,,,,,,,,,,15,,62,48
29249,note_on,,89,0,10,,,,,,,,,,,,,,,,7,,59,0
29250,note_on,,1,0,10,,,,,,,,,,,,,,,,7,,62,58
29279,note_on,,119,0,7,,,,,,,,,,,,,,,,2,,43,0
29279,note_on,,29,0,10,,,,,,,,,,,,,,,,7,,62,0
29279,note_on,,0,0,16,,,,,,,,,,,,,,,,15,,67,0
29279,note_on,,0,0,16,,,,,,,,,,,,,,,,15,,71,0
29279,note_on,,119,0,16,,,,,,,,,,,,,,,,15,,43,0
29279,note_on,,0,0,16,,,,,,,,,,,,,,,,15,,62,0
29279,note_on,,119,0,15,,,,,,,,,,,,,,,,13,,43,0
29279,note_on,,0,0,16,,,,,,,,,,,,,,,,15,,55,0
29280,note_on,,1,0,7,,,,,,,,,,,,,,,,2,,52,48
29280,note_on,,1,0,15,,,,,,,,,,,,,,,,13,,52,48
29280,note_on,,0,0,16,,,,,,,,,,,,,,,,15,,55,48
29280,note_on,,1,0,16,,,,,,,,,,,,,,,,15,,52,48
29280,note_on,,1,0,10,,,,,,,,,,,,,,,,7,,60,58
29280,note_on,,0,0,16,,,,,,,,,,,,,,,,15,,60,48
29280,note_on,,0,0,16,,,,,,,,,,,,,,,,15,,67,48
29369,note_on,,89,0,10,,,,,,,,,,,,,,,,7,,60,0
29370,note_on,,1,0,10,,,,,,,,,,,,,,,,7,,64,58
29399,note_on,,119,0,15,,,,,,,,,,,,,,,,13,,52,0
29399,note_on,,119,0,16,,,,,,,,,,,,,,,,15,,52,0
29399,note_on,,0,0,16,,,,,,,,,,,,,,,,15,,67,0
29399,note_on,,0,0,16,,,,,,,,,,,,,,,,15,,60,0
29399,note_on,,29,0,10,,,,,,,,,,,,,,,,7,,64,0
29399,note_on,,0,0,16,,,,,,,,,,,,,,,,15,,55,0
29399,note_on,,119,0,7,,,,,,,,,,,,,,,,2,,52,0
29400,note_on,,1,0,16,,,,,,,,,,,,,,,,15,,47,48
29400,note_on,,1,0,15,,,,,,,,,,,,,,,,13,,47,48
29400,note_on,,0,0,16,,,,,,,,,,,,,,,,15,,62,48
29400,note_on,,0,0,16,,,,,,,,,,,,,,,,15,,65,48
29400,note_on,,1,0,7,,,,,,,,,,,,,,,,2,,47,48
29400,note_on,,0,0,16,,,,,,,,,,,,,,,,15,,55,48
29400,note_on,,1,0,10,,,,,,,,,,,,,,,,7,,62,58
29489,note_on,,89,0,10,,,,,,,,,,,,,,,,7,,62,0
29490,note_on,,1,0,10,,,,,,,,,,,,,,,,7,,65,58
29519,note_on,,0,0,16,,,,,,,,,,,,,,,,15,,62,0
29519,note_on,,119,0,16,,,,,,,,,,,,,,,,15,,47,0
29519,note_on,,0,0,16,,,,,,,,,,,,,,,,15,,65,0
29519,note_on,,0,0,16,,,,,,,,,,,,,,,,15,,55,0
29519,note_on,,29,0,10,,,,,,,,,,,,,,,,7,,65,0
29519,note_on,,119,0,15,,,,,,,,,,,,,,,,13,,47,0
29519,note_on,,119,0,7,,,,,,,,,,,,,,,,2,,47,0
29520,note_on,,0,0,16,,,,,,,,,,,,,,,,15,,60,48
29520,note_on,,0,0,16,,,,,,,,,,,,,,,,15,,64,48
29520,note_on,,1,0,16,,,,,,,,,,,,,,,,15,,48,48
29520,note_on,,0,0,16,,,,,,,,,,,,,,,,15,,55,48
29520,note_on,,1,0,7,,,,,,,,,,,,,,,,2,,48,48
29520,note_on,,1,0,10,,,,,,,,,,,,,,,,7,,64,58
29520,note_on,,1,0,15,,,,,,,,,,,,,,,,13,,48,48
29549,note_on,,29,0,10,,,,,,,,,,,,,,,,7,,64,0
29550,note_on,,1,0,10,,,,,,,,,,,,,,,,7,,62,58
29579,note_on,,29,0,10,,,,,,,,,,,,,,,,7,,62,0
29580,note_on,,1,0,10,,,,,,,,,,,,,,,,7,,60,58
29639,note_on,,119,0,7,,,,,,,,,,,,,,,,2,,48,0
29639,note_on,,0,0,16,,,,,,,,,,,,,,,,15,,55,0
29639,note_on,,59,0,10,,,,,,,,,,,,,,,,7,,60,0
29639,note_on,,119,0,15,,,,,,,,,,,,,,,,13,,48,0
29639,note_on,,119,0,16,,,,,,,,,,,,,,,,15,,48,0
29639,note_on,,0,0,16,,,,,,,,,,,,,,,,15,,64,0
29639,note_on,,0,0,16,,,,,,,,,,,,,,,,15,,60,0
29640,note_on,,1,0,10,,,,,,,,,,,,,,,,7,,64,58
29640,note_on,,1,0,7,,,,,,,,,,,,,,,,2,,45,48
29640,note_on,,1,0,15,,,,,,,,,,,,,,,,13,,45,48
29640,note_on,,0,0,16,,,,,,,,,,,,,,,,15,,60,48
29640,note_on,,0,0,16,,,,,,,,,,,,,,,,15,,57,48
29640,note_on,,0,0,16,,,,,,,,,,,,,,,,15,,69,48
29640,note_on,,1,0,16,,,,,,,,,,,,,,,,15,,45,48
29699,note_on,,59,0,10,,,,,,,,,,,,,,,,7,,64,0
29700,note_on,,1,0,10,,,,,,,,,,,,,,,,7,,66,58
29759,note_on,,0,0,16,,,,,,,,,,,,,,,,15,,60,0
29759,note_on,,59,0,10,,,,,,,,,,,,,,,,7,,66,0
29759,note_on,,0,0,16,,,,,,,,,,,,,,,,15,,57,0
29759,note_on,,119,0,16,,,,,,,,,,,,,,,,15,,45,0
29759,note_on,,119,0,7,,,,,,,,,,,,,,,,2,,45,0
29759,note_on,,0,0,16,,,,,,,,,,,,,,,,15,,69,0
29759,note_on,,119,0,15,,,,,,,,,,,,,,,,13,,45,0
29760,note_on,,1,0,7,,,,,,,,,,,,,,,,2,,43,48
29760,note_on,,0,0,16,,,,,,,,,,,,,,,,15,,67,48
29760,note_on,,0,0,16,,,,,,,,,,,,,,,,15,,62,48
29760,note_on,,0,0,16,,,,,,,,,,,,,,,,15,,50,48
29760,note_on,,1,0,10,,,,,,,,,,,,,,,,7,,67,58
29760,note_on,,0,0,16,,,,,,,,,,,,,,,,15,,71,48
29760,note_on,,1,0,15,,,,,,,,,,,,,,,,13,,43,48
29760,note_on,,1,0,16,,,,,,,,,,,,,,,,15,,43,48
29879,note_on,,0,0,16,,,,,,,,,,,,,,,,15,,67,0
29879,note_on,,119,0,10,,,,,,,,,,,,,,,,7,,67,0
29879,note_on,,119,0,16,,,,,,,,,,,,,,,,15,,43,0
29879,note_on,,0,0,16,,,,,,,,,,,,,,,,15,,62,0
29879,note_on,,119,0,7,,,,,,,,,,,,,,,,2,,43,0
29879,note_on,,0,0,16,,,,,,,,,,,,,,,,15,,50,0
29879,note_on,,119,0,15,,,,,,,,,,,,,,,,13,,43,0
29879,note_on,,0,0,16,,,,,,,,,,,,,,,,15,,71,0
29880,note_on,,0,0,16,,,,,,,,,,,,,,,,15,,67,48
29880,note_on,,1,0,10,,,,,,,,,,,,,,,,7,,55,58
29880,note_on,,1,0,16,,,,,,,,,,,,,,,,15,,55,48
29880,note_on,,0,0,16,,,,,,,,,,,,,,,,15,,62,48
29880,note_on,,1,0,7,,,,,,,,,,,,,,,,2,,55,48
29880,note_on,,961,0,8,,,,,,,,,,,,,,,,5,,67,58
29880,note_on,,961,0,6,,,,,,,,,,,,,,,,1,,67,47
29880,note_on,,1,0,15,,,,,,,,,,,,,,,,13,,55,48
29880,note_on,,961,0,5,,,,,,,,,,,,,,,,0,,67,47
29880,note_on,,0,0,16,,,,,,,,,,,,,,,,15,,59,48
29969,note_on,,89,0,5,,,,,,,,,,,,,,,,0,,67,0
29969,note_on,,89,0,8,,,,,,,,,,,,,,,,5,,67,0
29969,note_on,,89,0,6,,,,,,,,,,,,,,,,1,,67,0
29970,note_on,,1,0,8,,,,,,,,,,,,,,,,5,,71,58
29970,note_on,,1,0,5,,,,,,,,,,,,,,,,0,,71,47
29970,note_on,,1,0,6,,,,,,,,,,,,,,,,1,,71,47
29999,note_on,,119,0,16,,,,,,,,,,,,,,,,15,,55,0
29999,note_on,,119,0,15,,,,,,,,,,,,,,,,13,,55,0
29999,note_on,,119,0,7,,,,,,,,,,,,,,,,2,,55,0
29999,note_on,,29,0,5,,,,,,,,,,,,,,,,0,,71,0
29999,note_on,,29,0,8,,,,,,,,,,,,,,,,5,,71,0
29999,note_on,,29,0,6,,,,,,,,,,,,,,,,1,,71,0
29999,note_on,,0,0,16,,,,,,,,,,,,,,,,15,,67,0
29999,note_on,,119,0,10,,,,,,,,,,,,,,,,7,,55,0
29999,note_on,,0,0,16,,,,,,,,,,,,,,,,15,,59,0
29999,note_on,,0,0,16,,,,,,,,,,,,,,,,15,,62,0
30000,note_on,,1,0,5,,,,,,,,,,,,,,,,0,,69,47
30000,note_on,,1,0,6,,,,,,,,,,,,,,,,1,,69,47
30000,note_on,,1,0,7,,,,,,,,,,,,,,,,2,,53,48
30000,note_on,,0,0,16,,,,,,,,,,,,,,,,15,,57,48
30000,note_on,,0,0,16,,,,,,,,,,,,,,,,15,,60,48
30000,note_on,,0,0,16,,,,,,,,,,,,,,,,15,,65,48
30000,note_on,,0,0,16,,,,,,,,,,,,,,,,15,,72,48
30000,note_on,,0,0,16,,,,,,,,,,,,,,,,15,,53,48
30000,note_on,,1,0,16,,,,,,,,,,,,,,,,15,,69,48
30000,note_on,,1,0,8,,,,,,,,,,,,,,,,5,,69,58
30000,note_on,,1,0,15,,,,,,,,,,,,,,,,13,,53,48
30089,note_on,,89,0,5,,,,,,,,,,,,,,,,0,,69,0
30089,note_on,,89,0,6,,,,,,,,,,,,,,,,1,,69,0
30089,note_on,,89,0,8,,,,,,,,,,,,,,,,5,,69,0
30090,note_on,,1,0,8,,,,,,,,,,,,,,,,5,,72,58
30090,note_on,,1,0,5,,,,,,,,,,,,,,,,0,,72,47
30090,note_on,,1,0,6,,,,,,,,,,,,,,,,1,,72,47
30119,note_on,,29,0,5,,,,,,,,,,,,,,,,0,,72,0
30119,note_on,,119,0,7,,,,,,,,,,,,,,,,2,,53,0
30119,note_on,,29,0,8,,,,,,,,,,,,,,,,5,,72,0
30119,note_on,,119,0,15,,,,,,,,,,,,,,,,13,,53,0
30119,note_on,,0,0,16,,,,,,,,,,,,,,,,15,,53,0
30119,note_on,,29,0,6,,,,,,,,,,,,,,,,1,,72,0
30119,note_on,,119,0,16,,,,,,,,,,,,,,,,15,,69,0
30119,note_on,,0,0,16,,,,,,,,,,,,,,,,15,,72,0
30119,note_on,,0,0,16,,,,,,,,,,,,,,,,15,,65,0
30119,note_on,,0,0,16,,,,,,,,,,,,,,,,15,,60,0
30119,note_on,,0,0,16,,,,,,,,,,,,,,,,15,,57,0
30120,note_on,,1,0,6,,,,,,,,,,,,,,,,1,,71,47
30120,note_on,,1,0,8,,,,,,,,,,,,,,,,5,,71,58
30120,note_on,,1,0,7,,,,,,,,,,,,,,,,2,,50,48
30120,note_on,,1,0,15,,,,,,,,,,,,,,,,13,,50,48
30120,note_on,,1,0,5,,,,,,,,,,,,,,,,0,,71,47
30120,note_on,,0,0,16,,,,,,,,,,,,,,,,15,,74,48
30120,note_on,,0,0,16,,,,,,,,,,,,,,,,15,,71,48
30120,note_on,,0,0,16,,,,,,,,,,,,,,,,15,,65,48
30120,note_on,,0,0,16,,,,,,,,,,,,,,,,15,,53,48
30120,note_on,,1,0,16,,,,,,,,,,,,,,,,15,,50,48
30209,note_on,,89,0,6,,,,,,,,,,,,,,,,1,,71,0
30209,note_on,,89,0,5,,,,,,,,,,,,,,,,0,,71,0
30209,note_on,,89,0,8,,,,,,,,,,,,,,,,5,,71,0
30210,note_on,,1,0,6,,,,,,,,,,,,,,,,1,,74,47
30210,note_on,,1,0,5,,,,,,,,,,,,,,,,0,,74,47
30210,note_on,,1,0,8,,,,,,,,,,,,,,,,5,,74,58
30239,note_on,,0,0,16,,,,,,,,,,,,,,,,15,,53,0
30239,note_on,,0,0,16,,,,,,,,,,,,,,,,15,,65,0
30239,note_on,,29,0,8,,,,,,,,,,,,,,,,5,,74,0
30239,note_on,,0,0,16,,,,,,,,,,,,,,,,15,,74,0
30239,note_on,,29,0,5,,,,,,,,,,,,,,,,0,,74,0
30239,note_on,,119,0,16,,,,,,,,,,,,,,,,15,,50,0
30239,note_on,,0,0,16,,,,,,,,,,,,,,,,15,,71,0
30239,note_on,,29,0,6,,,,,,,,,,,,,,,,1,,74,0
30239,note_on,,119,0,15,,,,,,,,,,,,,,,,13,,50,0
30239,note_on,,119,0,7,,,,,,,,,,,,,,,,2,,50,0
30240,note_on,,0,0,16,,,,,,,,,,,,,,,,15,,55,48
30240,note_on,,0,0,16,,,,,,,,,,,,,,,,15,,60,48
30240,note_on,,0,0,16,,,,,,,,,,,,,,,,15,,67,48
30240,note_on,,1,0,16,,,,,,,,,,,,,,,,15,,52,48
30240,note_on,,1,0,7,,,,,,,,,,,,,,,,2,,52,48
30240,note_on,,1,0,15,,,,,,,,,,,,,,,,13,,52,48
30240,note_on,,1,0,8,,,,,,,,,,,,,,,,5,,72,58
30240,note_on,,1,0,5,,,,,,,,,,,,,,,,0,,72,47
30240,note_on,,1,0,6,,,,,,,,,,,,,,,,1,,72,47
30329,note_on,,89,0,6,,,,,,,,,,,,,,,,1,,72,0
30329,note_on,,89,0,5,,,,,,,,,,,,,,,,0,,72,0
30329,note_on,,89,0,8,,,,,,,,,,,,,,,,5,,72,0
30330,note_on,,1,0,8,,,,,,,,,,,,,,,,5,,76,58
30330,note_on,,1,0,6,,,,,,,,,,,,,,,,1,,76,47
30330,note_on,,1,0,5,,,,,,,,,,,,,,,,0,,76,47
30359,note_on,,0,0,16,,,,,,,,,,,,,,,,15,,60,0
30359,note_on,,0,0,16,,,,,,,,,,,,,,,,15,,55,0
30359,note_on,,29,0,5,,,,,,,,,,,,,,,,0,,76,0
30359,note_on,,119,0,15,,,,,,,,,,,,,,,,13,,52,0
30359,note_on,,119,0,16,,,,,,,,,,,,,,,,15,,52,0
30359,note_on,,0,0,16,,,,,,,,,,,,,,,,15,,67,0
30359,note_on,,29,0,6,,,,,,,,,,,,,,,,1,,76,0
30359,note_on,,119,0,7,,,,,,,,,,,,,,,,2,,52,0
30359,note_on,,29,0,8,,,,,,,,,,,,,,,,5,,76,0
30360,note_on,,1,0,5,,,,,,,,,,,,,,,,0,,74,47
30360,note_on,,1,0,16,,,,,,,,,,,,,,,,15,,62,48
30360,note_on,,0,0,16,,,,,,,,,,,,,,,,15,,67,48
30360,note_on,,1,0,8,,,,,,,,,,,,,,,,5,,74,58
30360,note_on,,0,0,16,,,,,,,,,,,,,,,,15,,55,48
30360,note_on,,1,0,7,,,,,,,,,,,,,,,,2,,47,48
30360,note_on,,1,0,15,,,,,,,,,,,,,,,,13,,47,48
30360,note_on,,1,0,6,,,,,,,,,,,,,,,,1,,74,47
30360,note_on,,0,0,16,,,,,,,,,,,,,,,,15,,47,48
30360,note_on,,0,0,16,,,,,,,,,,,,,,,,15,,74,48
30449,note_on,,89,0,6,,,,,,,,,,,,,,,,1,,74,0
30449,note_on,,89,0,5,,,,,,,,,,,,,,,,0,,74,0
30449,note_on,,89,0,8,,,,,,,,,,,,,,,,5,,74,0
30450,note_on,,1,0,5,,,,,,,,,,,,,,,,0,,77,47
30450,note_on,,1,0,8,,,,,,,,,,,,,,,,5,,77,58
30450,note_on,,1,0,6,,,,,,,,,,,,,,,,1,,77,47
30479,note_on,,0,0,16,,,,,,,,,,,,,,,,15,,67,0
30479,note_on,,0,0,16,,,,,,,,,,,,,,,,15,,55,0
30479,note_on,,29,0,8,,,,,,,,,,,,,,,,5,,77,0
30479,note_on,,0,0,16,,,,,,,,,,,,,,,,15,,74,0
30479,note_on,,29,0,6,,,,,,,,,,,,,,,,1,,77,0
30479,note_on,,119,0,7,,,,,,,,,,,,,,,,2,,47,0
30479,note_on,,119,0,16,,,,,,,,,,,,,,,,15,,62,0
30479,note_on,,29,0,5,,,,,,,,,,,,,,,,0,,77,0
30479,note_on,,119,0,15,,,,,,,,,,,,,,,,13,,47,0
30479,note_on,,0,0,16,,,,,,,,,,,,,,,,15,,47,0
30480,note_on,,1,0,8,,,,,,,,,,,,,,,,5,,76,58
30480,note_on,,1,0,5,,,,,,,,,,,,,,,,0,,76,47
30480,note_on,,1,0,16,,,,,,,,,,,,,,,,15,,48,48
30480,note_on,,0,0,16,,,,,,,,,,,,,,,,15,,60,48
30480,note_on,,1,0,7,,,,,,,,,,,,,,,,2,,48,48
30480,note_on,,0,0,16,,,,,,,,,,,,,,,,15,,67,48
30480,note_on,,0,0,16,,,,,,,,,,,,,,,,15,,55,48
30480,note_on,,1,0,6,,,,,,,,,,,,,,,,1,,76,47
30480,note_on,,1,0,15,,,,,,,,,,,,,,,,13,,48,48
30480,note_on,,0,0,16,,,,,,,,,,,,,,,,15,,76,48
30509,note_on,,29,0,6,,,,,,,,,,,,,,,,1,,76,0
30509,note_on,,29,0,8,,,,,,,,,,,,,,,,5,,76,0
30509,note_on,,29,0,5,,,,,,,,,,,,,,,,0,,76,0
30510,note_on,,1,0,8,,,,,,,,,,,,,,,,5,,74,58
30510,note_on,,1,0,6,,,,,,,,,,,,,,,,1,,74,47
30510,note_on,,1,0,5,,,,,,,,,,,,,,,,0,,74,47
30539,note_on,,29,0,6,,,,,,,,,,,,,,,,1,,74,0
30539,note_on,,29,0,5,,,,,,,,,,,,,,,,0,,74,0
30539,note_on,,29,0,8,,,,,,,,,,,,,,,,5,,74,0
30540,note_on,,1,0,5,,,,,,,,,,,,,,,,0,,72,47
30540,note_on,,1,0,6,,,,,,,,,,,,,,,,1,,72,47
30540,note_on,,1,0,8,,,,,,,,,,,,,,,,5,,72,58
30599,note_on,,59,0,5,,,,,,,,,,,,,,,,0,,72,0
30599,note_on,,119,0,15,,,,,,,,,,,,,,,,13,,48,0
30599,note_on,,0,0,16,,,,,,,,,,,,,,,,15,,60,0
30599,note_on,,0,0,16,,,,,,,,,,,,,,,,15,,55,0
30599,note_on,,0,0,16,,,,,,,,,,,,,,,,15,,67,0
30599,note_on,,119,0,16,,,,,,,,,,,,,,,,15,,48,0
30599,note_on,,59,0,8,,,,,,,,,,,,,,,,5,,72,0
30599,note_on,,59,0,6,,,,,,,,,,,,,,,,1,,72,0
30599,note_on,,119,0,7,,,,,,,,,,,,,,,,2,,48,0
30600,note_on,,1,0,5,,,,,,,,,,,,,,,,0,,76,47
30600,note_on,,1,0,15,,,,,,,,,,,,,,,,13,,45,48
30600,note_on,,1,0,7,,,,,,,,,,,,,,,,2,,45,48
30600,note_on,,1,0,16,,,,,,,,,,,,,,,,15,,45,48
30600,note_on,,0,0,16,,,,,,,,,,,,,,,,15,,72,48
30600,note_on,,0,0,16,,,,,,,,,,,,,,,,15,,69,48
30600,note_on,,0,0,16,,,,,,,,,,,,,,,,15,,57,48
30600,note_on,,1,0,8,,,,,,,,,,,,,,,,5,,76,58
30600,note_on,,1,0,6,,,,,,,,,,,,,,,,1,,76,47
30659,note_on,,59,0,6,,,,,,,,,,,,,,,,1,,76,0
30659,note_on,,59,0,8,,,,,,,,,,,,,,,,5,,76,0
30659,note_on,,59,0,5,,,,,,,,,,,,,,,,0,,76,0
30660,note_on,,1,0,6,,,,,,,,,,,,,,,,1,,78,47
30660,note_on,,1,0,5,,,,,,,,,,,,,,,,0,,78,47
30660,note_on,,1,0,8,,,,,,,,,,,,,,,,5,,78,58
30719,note_on,,0,0,16,,,,,,,,,,,,,,,,15,,57,0
30719,note_on,,0,0,16,,,,,,,,,,,,,,,,15,,69,0
30719,note_on,,0,0,16,,,,,,,,,,,,,,,,15,,72,0
30719,note_on,,0,0,16,,,,,,,,,,,,,,,,15,,45,0
30719,note_on,,119,0,7,,,,,,,,,,,,,,,,2,,45,0
30719,note_on,,119,0,16,,,,,,,,,,,,,,,,15,,76,0
30719,note_on,,59,0,8,,,,,,,,,,,,,,,,5,,78,0
30719,note_on,,59,0,6,,,,,,,,,,,,,,,,1,,78,0
30719,note_on,,59,0,5,,,,,,,,,,,,,,,,0,,78,0
30719,note_on,,119,0,15,,,,,,,,,,,,,,,,13,,45,0
30720,note_on,,1,0,16,,,,,,,,,,,,,,,,15,,47,48
30720,note_on,,1,0,8,,,,,,,,,,,,,,,,5,,79,58
30720,note_on,,1,0,5,,,,,,,,,,,,,,,,0,,79,47
30720,note_on,,1,0,15,,,,,,,,,,,,,,,,13,,47,48
30720,note_on,,0,0,16,,,,,,,,,,,,,,,,15,,67,48
30720,note_on,,0,0,16,,,,,,,,,,,,,,,,15,,55,48
30720,note_on,,0,0,16,,,,,,,,,,,,,,,,15,,74,48
30720,note_on,,1,0,7,,,,,,,,,,,,,,,,2,,47,48
30720,note_on,,1,0,6,,,,,,,,,,,,,,,,1,,79,47
30720,note_on,,0,0,16,,,,,,,,,,,,,,,,15,,62,48
30839,note_on,,119,0,15,,,,,,,,,,,,,,,,13,,47,0
30839,note_on,,0,0,16,,,,,,,,,,,,,,,,15,,74,0
30839,note_on,,0,0,16,,,,,,,,,,,,,,,,15,,67,0
30839,note_on,,119,0,7,,,,,,,,,,,,,,,,2,,47,0
30839,note_on,,0,0,16,,,,,,,,,,,,,,,,15,,62,0
30839,note_on,,119,0,6,,,,,,,,,,,,,,,,1,,79,0
30839,note_on,,119,0,8,,,,,,,,,,,,,,,,5,,79,0
30839,note_on,,119,0,5,,,,,,,,,,,,,,,,0,,79,0
30839,note_on,,119,0,16,,,,,,,,,,,,,,,,15,,47,0
30839,note_on,,0,0,16,,,,,,,,,,,,,,,,15,,55,0
30840,note_on,,0,0,16,,,,,,,,,,,,,,,,15,,67,48
30840,note_on,,0,0,16,,,,,,,,,,,,,,,,15,,71,48
30840,note_on,,1,0,16,,,,,,,,,,,,,,,,15,,43,48
30840,note_on,,0,0,16,,,,,,,,,,,,,,,,15,,50,48
30840,note_on,,1921,0,9,,,,,,,,,,,,,,,,6,,59,58
30840,note_on,,1,0,15,,,,,,,,,,,,,,,,13,,43,48
30840,note_on,,1,0,7,,,,,,,,,,,,,,,,2,,43,48
30840,note_on,,2881,0,11,,,,,,,,,,,,,,,,8,,55,58
30840,note_on,,1,0,6,,,,,,,,,,,,,,,,1,,67,47
30840,note_on,,0,0,16,,,,,,,,,,,,,,,,15,,62,48
30840,note_on,,1,0,5,,,,,,,,,,,,,,,,0,,67,47
30840,note_on,,1,0,8,,,,,,,,,,,,,,,,5,,67,58
30929,note_on,,89,0,9,,,,,,,,,,,,,,,,6,,59,0
30929,note_on,,89,0,11,,,,,,,,,,,,,,,,8,,55,0
30930,note_on,,1,0,9,,,,,,,,,,,,,,,,6,,62,58
30930,note_on,,1,0,11,,,,,,,,,,,,,,,,8,,59,58
30959,note_on,,29,0,9,,,,,,,,,,,,,,,,6,,62,0
30959,note_on,,119,0,15,,,,,,,,,,,,,,,,13,,43,0
30959,note_on,,119,0,7,,,,,,,,,,,,,,,,2,,43,0
30959,note_on,,29,0,11,,,,,,,,,,,,,,,,8,,59,0
30959,note_on,,0,0,16,,,,,,,,,,,,,,,,15,,50,0
30959,note_on,,0,0,16,,,,,,,,,,,,,,,,15,,62,0
30959,note_on,,0,0,16,,,,,,,,,,,,,,,,15,,67,0
30959,note_on,,0,0,16,,,,,,,,,,,,,,,,15,,71,0
30959,note_on,,119,0,16,,,,,,,,,,,,,,,,15,,43,0
30959,note_on,,119,0,8,,,,,,,,,,,,,,,,5,,67,0
30959,note_on,,119,0,5,,,,,,,,,,,,,,,,0,,67,0
30959,note_on,,119,0,6,,,,,,,,,,,,,,,,1,,67,0
30960,note_on,,1,0,11,,,,,,,,,,,,,,,,8,,57,58
30960,note_on,,1,0,7,,,,,,,,,,,,,,,,2,,45,48
30960,note_on,,1,0,15,,,,,,,,,,,,,,,,13,,45,48
30960,note_on,,0,0,16,,,,,,,,,,,,,,,,15,,57,48
30960,note_on,,0,0,16,,,,,,,,,,,,,,,,15,,64,48
30960,note_on,,1,0,9,,,,,,,,,,,,,,,,6,,60,58
30960,note_on,,1,0,16,,,,,,,,,,,,,,,,15,,45,48
30960,note_on,,0,0,16,,,,,,,,,,,,,,,,15,,69,48
30960,note_on,,0,0,16,,,,,,,,,,,,,,,,15,,60,48
31049,note_on,,89,0,9,,,,,,,,,,,,,,,,6,,60,0
31049,note_on,,89,0,11,,,,,,,,,,,,,,,,8,,57,0
31050,note_on,,1,0,11,,,,,,,,,,,,,,,,8,,60,58
31050,note_on,,1,0,9,,,,,,,,,,,,,,,,6,,64,58
31079,note_on,,119,0,15,,,,,,,,,,,,,,,,13,,45,0
31079,note_on,,119,0,7,,,,,,,,,,,,,,,,2,,45,0
31079,note_on,,29,0,11,,,,,,,,,,,,,,,,8,,60,0
31079,note_on,,0,0,16,,,,,,,,,,,,,,,,15,,69,0
31079,note_on,,29,0,9,,,,,,,,,,,,,,,,6,,64,0
31079,note_on,,119,0,16,,,,,,,,,,,,,,,,15,,45,0
31079,note_on,,0,0,16,,,,,,,,,,,,,,,,15,,64,0
31079,note_on,,0,0,16,,,,,,,,,,,,,,,,15,,60,0
31079,note_on,,0,0,16,,,,,,,,,,,,,,,,15,,57,0
31080,note_on,,1,0,16,,,,,,,,,,,,,,,,15,,47,48
31080,note_on,,0,0,16,,,,,,,,,,,,,,,,15,,50,48
31080,note_on,,1,0,7,,,,,,,,,,,,,,,,2,,47,48
31080,note_on,,0,0,16,,,,,,,,,,,,,,,,15,,62,48
31080,note_on,,1,0,11,,,,,,,,,,,,,,,,8,,59,58
31080,note_on,,0,0,16,,,,,,,,,,,,,,,,15,,67,48
31080,note_on,,0,0,16,,,,,,,,,,,,,,,,15,,65,48
31080,note_on,,1,0,15,,,,,,,,,,,,,,,,13,,47,48
31080,note_on,,1,0,9,,,,,,,,,,,,,,,,6,,62,58
31169,note_on,,89,0,9,,,,,,,,,,,,,,,,6,,62,0
31169,note_on,,89,0,11,,,,,,,,,,,,,,,,8,,59,0
31170,note_on,,1,0,9,,,,,,,,,,,,,,,,6,,65,58
31170,note_on,,1,0,11,,,,,,,,,,,,,,,,8,,62,58
31199,note_on,,29,0,9,,,,,,,,,,,,,,,,6,,65,0
31199,note_on,,119,0,16,,,,,,,,,,,,,,,,15,,47,0
31199,note_on,,0,0,16,,,,,,,,,,,,,,,,15,,65,0
31199,note_on,,0,0,16,,,,,,,,,,,,,,,,15,,62,0
31199,note_on,,0,0,16,,,,,,,,,,,,,,,,15,,50,0
31199,note_on,,29,0,11,,,,,,,,,,,,,,,,8,,62,0
31199,note_on,,119,0,7,,,,,,,,,,,,,,,,2,,47,0
31199,note_on,,0,0,16,,,,,,,,,,,,,,,,15,,67,0
31199,note_on,,119,0,15,,,,,,,,,,,,,,,,13,,47,0
31200,note_on,,1,0,11,,,,,,,,,,,,,,,,8,,60,58
31200,note_on,,1,0,9,,,,,,,,,,,,,,,,6,,64,58
31200,note_on,,1,0,7,,,,,,,,,,,,,,,,2,,48,48
31200,note_on,,1,0,16,,,,,,,,,,,,,,,,15,,48,48
31200,note_on,,0,0,16,,,,,,,,,,,,,,,,15,,64,48
31200,note_on,,0,0,16,,,,,,,,,,,,,,,,15,,60,48
31200,note_on,,1,0,15,,,,,,,,,,,,,,,,13,,48,48
31200,note_on,,0,0,16,,,,,,,,,,,,,,,,15,,55,48
31289,note_on,,89,0,11,,,,,,,,,,,,,,,,8,,60,0
31289,note_on,,89,0,9,,,,,,,,,,,,,,,,6,,64,0
31290,note_on,,1,0,9,,,,,,,,,,,,,,,,6,,67,58
31290,note_on,,1,0,11,,,,,,,,,,,,,,,,8,,52,58
31319,note_on,,119,0,15,,,,,,,,,,,,,,,,13,,48,0
31319,note_on,,119,0,7,,,,,,,,,,,,,,,,2,,48,0
31319,note_on,,0,0,16,,,,,,,,,,,,,,,,15,,64,0
31319,note_on,,29,0,11,,,,,,,,,,,,,,,,8,,52,0
31319,note_on,,0,0,16,,,,,,,,,,,,,,,,15,,60,0
31319,note_on,,0,0,16,,,,,,,,,,,,,,,,15,,55,0
31319,note_on,,29,0,9,,,,,,,,,,,,,,,,6,,67,0
31319,note_on,,119,0,16,,,,,,,,,,,,,,,,15,,48,0
31320,note_on,,0,0,16,,,,,,,,,,,,,,,,15,,57,48
31320,note_on,,0,0,16,,,,,,,,,,,,,,,,15,,60,48
31320,note_on,,0,0,16,,,,,,,,,,,,,,,,15,,69,48
31320,note_on,,1,0,16,,,,,,,,,,,,,,,,15,,53,48
31320,note_on,,1,0,15,,,,,,,,,,,,,,,,13,,53,48
31320,note_on,,1,0,11,,,,,,,,,,,,,,,,8,,57,58
31320,note_on,,1,0,9,,,,,,,,,,,,,,,,6,,65,58
31320,note_on,,1,0,7,,,,,,,,,,,,,,,,2,,53,48
31409,note_on,,89,0,11,,,,,,,,,,,,,,,,8,,57,0
31409,note_on,,89,0,9,,,,,,,,,,,,,,,,6,,65,0
31410,note_on,,1,0,11,,,,,,,,,,,,,,,,8,,60,58
31410,note_on,,1,0,9,,,,,,,,,,,,,,,,6,,64,58
31439,note_on,,29,0,9,,,,,,,,,,,,,,,,6,,64,0
31439,note_on,,119,0,15,,,,,,,,,,,,,,,,13,,53,0
31439,note_on,,119,0,16,,,,,,,,,,,,,,,,15,,53,0
31439,note_on,,0,0,16,,,,,,,,,,,,,,,,15,,69,0
31439,note_on,,29,0,11,,,,,,,,,,,,,,,,8,,60,0
31439,note_on,,0,0,16,,,,,,,,,,,,,,,,15,,60,0
31439,note_on,,119,0,7,,,,,,,,,,,,,,,,2,,53,0
31439,note_on,,0,0,16,,,,,,,,,,,,,,,,15,,57,0
31440,note_on,,1,0,9,,,,,,,,,,,,,,,,6,,62,58
31440,note_on,,1,0,11,,,,,,,,,,,,,,,,8,,59,58
31440,note_on,,0,0,16,,,,,,,,,,,,,,,,15,,67,48
31440,note_on,,1,0,15,,,,,,,,,,,,,,,,13,,55,48
31440,note_on,,1,0,7,,,,,,,,,,,,,,,,2,,55,48
31440,note_on,,0,0,16,,,,,,,,,,,,,,,,15,,59,48
31440,note_on,,0,0,16,,,,,,,,,,,,,,,,15,,62,48
31440,note_on,,1,0,16,,,,,,,,,,,,,,,,15,,55,48
31499,note_on,,59,0,11,,,,,,,,,,,,,,,,8,,59,0
31499,note_on,,59,0,9,,,,,,,,,,,,,,,,6,,62,0
31500,note_on,,1,0,9,,,,,,,,,,,,,,,,6,,62,58
31500,note_on,,1,0,11,,,,,,,,,,,,,,,,8,,55,58
31559,note_on,,119,0,15,,,,,,,,,,,,,,,,13,,55,0
31559,note_on,,0,0,16,,,,,,,,,,,,,,,,15,,59,0
31559,note_on,,119,0,7,,,,,,,,,,,,,,,,2,,55,0
31559,note_on,,0,0,16,,,,,,,,,,,,,,,,15,,62,0
31559,note_on,,0,0,16,,,,,,,,,,,,,,,,15,,67,0
31559,note_on,,59,0,11,,,,,,,,,,,,,,,,8,,55,0
31559,note_on,,119,0,16,,,,,,,,,,,,,,,,15,,55,0
31559,note_on,,59,0,9,,,,,,,,,,,,,,,,6,,62,0
31560,note_on,,601,0,6,,,,,,,,,,,,,,,,1,,74,47
31560,note_on,,1561,0,10,,,,,,,,,,,,,,,,7,,62,58
31560,note_on,,0,0,16,,,,,,,,,,,,,,,,15,,74,48
31560,note_on,,1,0,15,,,,,,,,,,,,,,,,13,,59,48
31560,note_on,,1,0,16,,,,,,,,,,,,,,,,15,,59,48
31560,note_on,,1,0,11,,,,,,,,,,,,,,,,8,,59,58
31560,note_on,,1,0,7,,,,,,,,,,,,,,,,2,,59,48
31560,note_on,,601,0,5,,,,,,,,,,,,,,,,0,,74,47
31560,note_on,,0,0,16,,,,,,,,,,,,,,,,15,,62,48
31560,note_on,,1,0,9,,,,,,,,,,,,,,,,6,,67,58
31560,note_on,,0,0,16,,,,,,,,,,,,,,,,15,,67,48
31560,note_on,,601,0,8,,,,,,,,,,,,,,,,5,,74,58
31619,note_on,,59,0,9,,,,,,,,,,,,,,,,6,,67,0
31619,note_on,,59,0,6,,,,,,,,,,,,,,,,1,,74,0
31619,note_on,,59,0,8,,,,,,,,,,,,,,,,5,,74,0
31619,note_on,,59,0,11,,,,,,,,,,,,,,,,8,,59,0
31619,note_on,,59,0,10,,,,,,,,,,,,,,,,7,,62,0
31619,note_on,,59,0,5,,,,,,,,,,,,,,,,0,,74,0
31620,note_on,,1,0,9,,,,,,,,,,,,,,,,6,,67,58
31620,note_on,,1,0,6,,,,,,,,,,,,,,,,1,,79,47
31620,note_on,,1,0,8,,,,,,,,,,,,,,,,5,,79,58
31620,note_on,,1,0,11,,,,,,,,,,,,,,,,8,,59,58
31620,note_on,,1,0,10,,,,,,,,,,,,,,,,7,,62,58
31620,note_on,,1,0,5,,,,,,,,,,,,,,,,0,,79,47
31679,note_on,,119,0,16,,,,,,,,,,,,,,,,15,,59,0
31679,note_on,,0,0,16,,,,,,,,,,,,,,,,15,,74,0
31679,note_on,,0,0,16,,,,,,,,,,,,,,,,15,,67,0
31679,note_on,,59,0,9,,,,,,,,,,,,,,,,6,,67,0
31679,note_on,,119,0,7,,,,,,,,,,,,,,,,2,,59,0
31679,note_on,,59,0,10,,,,,,,,,,,,,,,,7,,62,0
31679,note_on,,0,0,16,,,,,,,,,,,,,,,,15,,62,0
31679,note_on,,59,0,11,,,,,,,,,,,,,,,,8,,59,0
31679,note_on,,59,0,8,,,,,,,,,,,,,,,,5,,79,0
31679,note_on,,119,0,15,,,,,,,,,,,,,,,,13,,59,0
31679,note_on,,59,0,5,,,,,,,,,,,,,,,,0,,79,0
31679,note_on,,59,0,6,,,,,,,,,,,,,,,,1,,79,0
31680,note_on,,1,0,5,,,,,,,,,,,,,,,,0,,76,47
31680,note_on,,1,0,9,,,,,,,,,,,,,,,,6,,67,58
31680,note_on,,1,0,6,,,,,,,,,,,,,,,,1,,76,47
31680,note_on,,0,0,16,,,,,,,,,,,,,,,,15,,76,48
31680,note_on,,0,0,16,,,,,,,,,,,,,,,,15,,72,48
31680,note_on,,1,0,15,,,,,,,,,,,,,,,,13,,60,48
31680,note_on,,1,0,10,,,,,,,,,,,,,,,,7,,64,58
31680,note_on,,1,0,7,,,,,,,,,,,,,,,,2,,60,48
31680,note_on,,1,0,11,,,,,,,,,,,,,,,,8,,60,58
31680,note_on,,0,0,16,,,,,,,,,,,,,,,,15,,67,48
31680,note_on,,1,0,16,,,,,,,,,,,,,,,,15,,60,48
31680,note_on,,1,0,8,,,,,,,,,,,,,,,,5,,76,58
31739,note_on,,59,0,15,,,,,,,,,,,,,,,,13,,60,0
31739,note_on,,59,0,7,,,,,,,,,,,,,,,,2,,60,0
31739,note_on,,59,0,16,,,,,,,,,,,,,,,,15,,60,0
31740,note_on,,0,0,16,,,,,,,,,,,,,,,,15,,60,48
31740,note_on,,1,0,15,,,,,,,,,,,,,,,,13,,48,48
31740,note_on,,1,0,16,,,,,,,,,,,,,,,,15,,48,48
31740,note_on,,1,0,7,,,,,,,,,,,,,,,,2,,48,48
31799,note_on,,59,0,16,,,,,,,,,,,,,,,,15,,76,0
31799,note_on,,0,0,16,,,,,,,,,,,,,,,,15,,72,0
31799,note_on,,0,0,16,,,,,,,,,,,,,,,,15,,67,0
31799,note_on,,0,0,16,,,,,,,,,,,,,,,,15,,48,0
31799,note_on,,0,0,16,,,,,,,,,,,,,,,,15,,60,0
31799,note_on,,119,0,11,,,,,,,,,,,,,,,,8,,60,0
31799,note_on,,119,0,5,,,,,,,,,,,,,,,,0,,76,0
31799,note_on,,119,0,6,,,,,,,,,,,,,,,,1,,76,0
31799,note_on,,59,0,15,,,,,,,,,,,,,,,,13,,48,0
31799,note_on,,119,0,9,,,,,,,,,,,,,,,,6,,67,0
31799,note_on,,119,0,8,,,,,,,,,,,,,,,,5,,76,0
31799,note_on,,59,0,7,,,,,,,,,,,,,,,,2,,48,0
31799,note_on,,119,0,10,,,,,,,,,,,,,,,,7,,64,0
31800,note_on,,1,0,7,,,,,,,,,,,,,,,,2,,52,48
31800,note_on,,1,0,5,,,,,,,,,,,,,,,,0,,79,47
31800,note_on,,1,0,11,,,,,,,,,,,,,,,,8,,52,58
31800,note_on,,1,0,10,,,,,,,,,,,,,,,,7,,60,58
31800,note_on,,0,0,16,,,,,,,,,,,,,,,,15,,67,48
31800,note_on,,0,0,16,,,,,,,,,,,,,,,,15,,72,48
31800,note_on,,0,0,16,,,,,,,,,,,,,,,,15,,55,48
31800,note_on,,1,0,16,,,,,,,,,,,,,,,,15,,52,48
31800,note_on,,1,0,9,,,,,,,,,,,,,,,,6,,67,58
31800,note_on,,1,0,15,,,,,,,,,,,,,,,,13,,52,48
31800,note_on,,1,0,8,,,,,,,,,,,,,,,,5,,79,58
31800,note_on,,1,0,6,,,,,,,,,,,,,,,,1,,79,47
31859,note_on,,0,0,16,,,,,,,,,,,,,,,,15,,67,0
31859,note_on,,59,0,6,,,,,,,,,,,,,,,,1,,79,0
31859,note_on,,59,0,7,,,,,,,,,,,,,,,,2,,52,0
31859,note_on,,59,0,5,,,,,,,,,,,,,,,,0,,79,0
31859,note_on,,59,0,11,,,,,,,,,,,,,,,,8,,52,0
31859,note_on,,59,0,10,,,,,,,,,,,,,,,,7,,60,0
31859,note_on,,59,0,15,,,,,,,,,,,,,,,,13,,52,0
31859,note_on,,0,0,16,,,,,,,,,,,,,,,,15,,55,0
31859,note_on,,59,0,16,,,,,,,,,,,,,,,,15,,52,0
31859,note_on,,59,0,8,,,,,,,,,,,,,,,,5,,79,0
31859,note_on,,0,0,16,,,,,,,,,,,,,,,,15,,72,0
31859,note_on,,59,0,9,,,,,,,,,,,,,,,,6,,67,0
31860,note_on,,1,0,11,,,,,,,,,,,,,,,,8,,55,58
31860,note_on,,1,0,6,,,,,,,,,,,,,,,,1,,74,47
31860,note_on,,1,0,5,,,,,,,,,,,,,,,,0,,74,47
31860,note_on,,1,0,7,,,,,,,,,,,,,,,,2,,55,48
31860,note_on,,1,0,16,,,,,,,,,,,,,,,,15,,55,48
31860,note_on,,0,0,16,,,,,,,,,,,,,,,,15,,59,48
31860,note_on,,0,0,16,,,,,,,,,,,,,,,,15,,74,48
31860,note_on,,1,0,8,,,,,,,,,,,,,,,,5,,74,58
31860,note_on,,0,0,16,,,,,,,,,,,,,,,,15,,67,48
31860,note_on,,1,0,15,,,,,,,,,,,,,,,,13,,55,48
31860,note_on,,1,0,9,,,,,,,,,,,,,,,,6,,67,58
31860,note_on,,1,0,10,,,,,,,,,,,,,,,,7,,59,58
31919,note_on,,0,0,16,,,,,,,,,,,,,,,,15,,67,0
31919,note_on,,59,0,16,,,,,,,,,,,,,,,,15,,55,0
31919,note_on,,0,0,16,,,,,,,,,,,,,,,,15,,59,0
31919,note_on,,59,0,11,,,,,,,,,,,,,,,,8,,55,0
31919,note_on,,59,0,5,,,,,,,,,,,,,,,,0,,74,0
31919,note_on,,0,0,16,,,,,,,,,,,,,,,,15,,74,0
31919,note_on,,59,0,7,,,,,,,,,,,,,,,,2,,55,0
31919,note_on,,59,0,6,,,,,,,,,,,,,,,,1,,74,0
31919,note_on,,59,0,10,,,,,,,,,,,,,,,,7,,59,0
31919,note_on,,59,0,15,,,,,,,,,,,,,,,,13,,55,0
31919,note_on,,59,0,9,,,,,,,,,,,,,,,,6,,67,0
31919,note_on,,59,0,8,,,,,,,,,,,,,,,,5,,74,0
31920,note_on,,1,0,6,,,,,,,,,,,,,,,,1,,76,47
31920,note_on,,1,0,7,,,,,,,,,,,,,,,,2,,60,48
31920,note_on,,0,0,16,,,,,,,,,,,,,,,,15,,67,48
31920,note_on,,0,0,16,,,,,,,,,,,,,,,,15,,72,48
31920,note_on,,0,0,16,,,,,,,,,,,,,,,,15,,76,48
31920,note_on,,1,0,10,,,,,,,,,,,,,,,,7,,60,58
31920,note_on,,1,0,5,,,,,,,,,,,,,,,,0,,76,47
31920,note_on,,1,0,11,,,,,,,,,,,,,,,,8,,60,58
31920,note_on,,1,0,15,,,,,,,,,,,,,,,,13,,60,48
31920,note_on,,1,0,16,,,,,,,,,,,,,,,,15,,60,48
31920,note_on,,1,0,8,,,,,,,,,,,,,,,,5,,76,58
31920,note_on,,1,0,9,,,,,,,,,,,,,,,,6,,67,58
31950,note_on,,2911,0,12,,,,,,,,,,,,,,,,10,,76,72
31950,note_on,,2911,0,13,,,,,,,,,,,,,,,,11,,72,72
31979,note_on,,59,0,5,,,,,,,,,,,,,,,,0,,76,0
31979,note_on,,59,0,11,,,,,,,,,,,,,,,,8,,60,0
31979,note_on,,29,0,12,,,,,,,,,,,,,,,,10,,76,0
31979,note_on,,59,0,15,,,,,,,,,,,,,,,,13,,60,0
31979,note_on,,59,0,9,,,,,,,,,,,,,,,,6,,67,0
31979,note_on,,59,0,10,,,,,,,,,,,,,,,,7,,60,0
31979,note_on,,29,0,13,,,,,,,,,,,,,,,,11,,72,0
31979,note_on,,59,0,7,,,,,,,,,,,,,,,,2,,60,0
31979,note_on,,59,0,16,,,,,,,,,,,,,,,,15,,60,0
31979,note_on,,59,0,8,,,,,,,,,,,,,,,,5,,76,0
31979,note_on,,59,0,6,,,,,,,,,,,,,,,,1,,76,0
31980,note_on,,1,0,8,,,,,,,,,,,,,,,,5,,72,58
31980,note_on,,1,0,15,,,,,,,,,,,,,,,,13,,48,48
31980,note_on,,1,0,16,,,,,,,,,,,,,,,,15,,48,48
31980,note_on,,0,0,16,,,,,,,,,,,,,,,,15,,60,48
31980,note_on,,1,0,11,,,,,,,,,,,,,,,,8,,48,58
31980,note_on,,1,0,7,,,,,,,,,,,,,,,,2,,48,48
31980,note_on,,1,0,12,,,,,,,,,,,,,,,,10,,77,72
31980,note_on,,1,0,6,,,,,,,,,,,,,,,,1,,72,47
31980,note_on,,1,0,9,,,,,,,,,,,,,,,,6,,67,58
31980,note_on,,1,0,5,,,,,,,,,,,,,,,,0,,72,47
31980,note_on,,1,0,10,,,,,,,,,,,,,,,,7,,60,58
31980,note_on,,1,0,13,,,,,,,,,,,,,,,,11,,74,72
32009,note_on,,29,0,13,,,,,,,,,,,,,,,,11,,74,0
32009,note_on,,29,0,12,,,,,,,,,,,,,,,,10,,77,0
32010,note_on,,1,0,12,,,,,,,,,,,,,,,,10,,79,72
32010,note_on,,1,0,13,,,,,,,,,,,,,,,,11,,76,72
32039,note_on,,59,0,5,,,,,,,,,,,,,,,,0,,72,0
32039,note_on,,59,0,7,,,,,,,,,,,,,,,,2,,48,0
32039,note_on,,29,0,12,,,,,,,,,,,,,,,,10,,79,0
32039,note_on,,59,0,15,,,,,,,,,,,,,,,,13,,48,0
32039,note_on,,59,0,6,,,,,,,,,,,,,,,,1,,72,0
32039,note_on,,0,0,16,,,,,,,,,,,,,,,,15,,60,0
32039,note_on,,0,0,16,,,,,,,,,,,,,,,,15,,48,0
32039,note_on,,0,0,16,,,,,,,,,,,,,,,,15,,67,0
32039,note_on,,59,0,9,,,,,,,,,,,,,,,,6,,67,0
32039,note_on,,59,0,16,,,,,,,,,,,,,,,,15,,76,0
32039,note_on,,59,0,11,,,,,,,,,,,,,,,,8,,48,0
32039,note_on,,0,0,16,,,,,,,,,,,,,,,,15,,72,0
32039,note_on,,59,0,10,,,,,,,,,,,,,,,,7,,60,0
32039,note_on,,59,0,8,,,,,,,,,,,,,,,,5,,72,0
32039,note_on,,29,0,13,,,,,,,,,,,,,,,,11,,76,0
32040,note_on,,1,0,13,,,,,,,,,,,,,,,,11,,77,72
32040,note_on,,1,0,12,,,,,,,,,,,,,,,,10,,81,72
32069,note_on,,29,0,12,,,,,,,,,,,,,,,,10,,81,0
32069,note_on,,29,0,13,,,,,,,,,,,,,,,,11,,77,0
32070,note_on,,1,0,13,,,,,,,,,,,,,,,,11,,76,72
32070,note_on,,1,0,12,,,,,,,,,,,,,,,,10,,79,72
32099,note_on,,29,0,13,,,,,,,,,,,,,,,,11,,76,0
32099,note_on,,29,0,12,,,,,,,,,,,,,,,,10,,79,0
32100,note_on,,1,0,12,,,,,,,,,,,,,,,,10,,81,72
32100,note_on,,1,0,13,,,,,,,,,,,,,,,,11,,77,72
32129,note_on,,29,0,12,,,,,,,,,,,,,,,,10,,81,0
32129,note_on,,29,0,13,,,,,,,,,,,,,,,,11,,77,0
32130,note_on,,1,0,12,,,,,,,,,,,,,,,,10,,77,72
32130,note_on,,1,0,13,,,,,,,,,,,,,,,,11,,74,72
32159,note_on,,29,0,12,,,,,,,,,,,,,,,,10,,77,0
32159,note_on,,29,0,13,,,,,,,,,,,,,,,,11,,74,0
32160,note_on,,1,0,12,,,,,,,,,,,,,,,,10,,79,72
32160,note_on,,0,0,16,,,,,,,,,,,,,,,,15,,72,72
32160,note_on,,0,0,16,,,,,,,,,,,,,,,,15,,76,72
32160,note_on,,121,0,6,,,,,,,,,,,,,,,,1,,72,72
32160,note_on,,0,0,16,,,,,,,,,,,,,,,,15,,79,72
32160,note_on,,121,0,16,,,,,,,,,,,,,,,,15,,60,72
32160,note_on,,0,0,16,,,,,,,,,,,,,,,,15,,67,72
32160,note_on,,121,0,10,,,,,,,,,,,,,,,,7,,64,88
32160,note_on,,3121,0,14,,,,,,,,,,,,,,,,12,,72,72
32160,note_on,,121,0,7,,,,,,,,,,,,,,,,2,,60,72
32160,note_on,,121,0,8,,,,,,,,,,,,,,,,5,,72,88
32160,note_on,,121,0,15,,,,,,,,,,,,,,,,13,,60,72
32160,note_on,,121,0,9,,,,,,,,,,,,,,,,6,,67,88
32160,note_on,,0,0,16,,,,,,,,,,,,,,,,15,,60,72
32160,note_on,,121,0,11,,,,,,,,,,,,,,,,8,,60,88
32160,note_on,,1,0,13,,,,,,,,,,,,,,,,11,,76,72
32160,note_on,,121,0,5,,,,,,,,,,,,,,,,0,,72,72
32189,note_on,,29,0,12,,,,,,,,,,,,,,,,10,,79,0
32189,note_on,,29,0,13,,,,,,,,,,,,,,,,11,,76,0
32190,note_on,,1,0,13,,,,,,,,,,,,,,,,11,,74,72
32190,note_on,,1,0,12,,,,,,,,,,,,,,,,10,,77,72
32219,note_on,,29,0,13,,,,,,,,,,,,,,,,11,,74,0
32219,note_on,,29,0,12,,,,,,,,,,,,,,,,10,,77,0
32220,note_on,,1,0,13,,,,,,,,,,,,,,,,11,,76,72
32220,note_on,,1,0,12,,,,,,,,,,,,,,,,10,,79,72
32249,note_on,,89,0,11,,,,,,,,,,,,,,,,8,,60,0
32249,note_on,,89,0,15,,,,,,,,,,,,,,,,13,,60,0
32249,note_on,,89,0,8,,,,,,,,,,,,,,,,5,,72,0
32249,note_on,,89,0,7,,,,,,,,,,,,,,,,2,,60,0
32249,note_on,,29,0,12,,,,,,,,,,,,,,,,10,,79,0
32249,note_on,,89,0,6,,,,,,,,,,,,,,,,1,,72,0
32249,note_on,,29,0,13,,,,,,,,,,,,,,,,11,,76,0
32249,note_on,,89,0,10,,,,,,,,,,,,,,,,7,,64,0
32249,note_on,,89,0,14,,,,,,,,,,,,,,,,12,,72,0
32249,note_on,,89,0,16,,,,,,,,,,,,,,,,15,,60,0
32249,note_on,,89,0,9,,,,,,,,,,,,,,,,6,,67,0
32249,note_on,,89,0,5,,,,,,,,,,,,,,,,0,,72,0
32250,note_on,,1,0,7,,,,,,,,,,,,,,,,2,,48,72
32250,note_on,,1,0,5,,,,,,,,,,,,,,,,0,,67,72
32250,note_on,,1,0,14,,,,,,,,,,,,,,,,12,,67,72
32250,note_on,,1,0,8,,,,,,,,,,,,,,,,5,,67,88
32250,note_on,,1,0,9,,,,,,,,,,,,,,,,6,,65,88
32250,note_on,,1,0,6,,,,,,,,,,,,,,,,1,,67,72
32250,note_on,,1,0,12,,,,,,,,,,,,,,,,10,,77,72
32250,note_on,,1,0,16,,,,,,,,,,,,,,,,15,,48,72
32250,note_on,,1,0,11,,,,,,,,,,,,,,,,8,,48,88
32250,note_on,,1,0,10,,,,,,,,,,,,,,,,7,,62,88
32250,note_on,,1,0,15,,,,,,,,,,,,,,,,13,,48,72
32250,note_on,,1,0,13,,,,,,,,,,,,,,,,11,,74,72
32279,note_on,,29,0,6,,,,,,,,,,,,,,,,1,,67,0
32279,note_on,,29,0,7,,,,,,,,,,,,,,,,2,,48,0
32279,note_on,,29,0,15,,,,,,,,,,,,,,,,13,,48,0
32279,note_on,,29,0,10,,,,,,,,,,,,,,,,7,,62,0
32279,note_on,,29,0,14,,,,,,,,,,,,,,,,12,,67,0
32279,note_on,,29,0,9,,,,,,,,,,,,,,,,6,,65,0
32279,note_on,,29,0,8,,,,,,,,,,,,,,,,5,,67,0
32279,note_on,,29,0,12,,,,,,,,,,,,,,,,10,,77,0
32279,note_on,,29,0,16,,,,,,,,,,,,,,,,15,,48,0
32279,note_on,,29,0,11,,,,,,,,,,,,,,,,8,,48,0
32279,note_on,,29,0,5,,,,,,,,,,,,,,,,0,,67,0
32279,note_on,,29,0,13,,,,,,,,,,,,,,,,11,,74,0
32280,note_on,,1,0,13,,,,,,,,,,,,,,,,11,,72,72
32280,note_on,,1,0,9,,,,,,,,,,,,,,,,6,,64,88
32280,note_on,,1,0,12,,,,,,,,,,,,,,,,10,,76,72
32280,note_on,,1,0,10,,,,,,,,,,,,,,,,7,,60,88
32280,note_on,,1,0,14,,,,,,,,,,,,,,,,12,,67,72
32280,note_on,,1,0,16,,,,,,,,,,,,,,,,15,,48,72
32280,note_on,,1,0,11,,,,,,,,,,,,,,,,8,,48,88
32280,note_on,,1,0,7,,,,,,,,,,,,,,,,2,,48,72
32280,note_on,,1,0,5,,,,,,,,,,,,,,,,0,,67,72
32280,note_on,,1,0,6,,,,,,,,,,,,,,,,1,,67,72
32280,note_on,,1,0,8,,,,,,,,,,,,,,,,5,,67,88
32280,note_on,,1,0,15,,,,,,,,,,,,,,,,13,,48,72
32309,note_on,,29,0,12,,,,,,,,,,,,,,,,10,,76,0
32309,note_on,,29,0,13,,,,,,,,,,,,,,,,11,,72,0
32310,note_on,,1,0,12,,,,,,,,,,,,,,,,10,,77,72
32310,note_on,,1,0,13,,,,,,,,,,,,,,,,11,,74,72
32339,note_on,,29,0,13,,,,,,,,,,,,,,,,11,,74,0
32339,note_on,,29,0,12,,,,,,,,,,,,,,,,10,,77,0
32340,note_on,,1,0,12,,,,,,,,,,,,,,,,10,,76,72
32340,note_on,,1,0,13,,,,,,,,,,,,,,,,11,,72,72
32369,note_on,,29,0,12,,,,,,,,,,,,,,,,10,,76,0
32369,note_on,,29,0,13,,,,,,,,,,,,,,,,11,,72,0
32370,note_on,,1,0,12,,,,,,,,,,,,,,,,10,,77,72
32370,note_on,,1,0,13,,,,,,,,,,,,,,,,11,,74,72
32399,note_on,,119,0,5,,,,,,,,,,,,,,,,0,,67,0
32399,note_on,,119,0,8,,,,,,,,,,,,,,,,5,,67,0
32399,note_on,,119,0,6,,,,,,,,,,,,,,,,1,,67,0
32399,note_on,,119,0,7,,,,,,,,,,,,,,,,2,,48,0
32399,note_on,,29,0,13,,,,,,,,,,,,,,,,11,,74,0
32399,note_on,,119,0,9,,,,,,,,,,,,,,,,6,,64,0
32399,note_on,,29,0,12,,,,,,,,,,,,,,,,10,,77,0
32399,note_on,,0,0,16,,,,,,,,,,,,,,,,15,,48,0
32399,note_on,,119,0,10,,,,,,,,,,,,,,,,7,,60,0
32399,note_on,,0,0,16,,,,,,,,,,,,,,,,15,,60,0
32399,note_on,,0,0,16,,,,,,,,,,,,,,,,15,,67,0
32399,note_on,,0,0,16,,,,,,,,,,,,,,,,15,,72,0
32399,note_on,,0,0,16,,,,,,,,,,,,,,,,15,,76,0
32399,note_on,,119,0,14,,,,,,,,,,,,,,,,12,,67,0
32399,note_on,,119,0,16,,,,,,,,,,,,,,,,15,,79,0
32399,note_on,,119,0,11,,,,,,,,,,,,,,,,8,,48,0
32399,note_on,,119,0,15,,,,,,,,,,,,,,,,13,,48,0
32400,note_on,,1,0,13,,,,,,,,,,,,,,,,11,,76,72
32400,note_on,,1,0,12,,,,,,,,,,,,,,,,10,,79,72
32429,note_on,,29,0,12,,,,,,,,,,,,,,,,10,,79,0
32429,note_on,,29,0,13,,,,,,,,,,,,,,,,11,,76,0
32430,note_on,,1,0,12,,,,,,,,,,,,,,,,10,,77,72
32430,note_on,,1,0,13,,,,,,,,,,,,,,,,11,,74,72
32459,note_on,,29,0,12,,,,,,,,,,,,,,,,10,,77,0
32459,note_on,,29,0,13,,,,,,,,,,,,,,,,11,,74,0
32460,note_on,,1,0,12,,,,,,,,,,,,,,,,10,,79,72
32460,note_on,,1,0,13,,,,,,,,,,,,,,,,11,,76,72
32489,note_on,,29,0,12,,,,,,,,,,,,,,,,10,,79,0
32489,note_on,,29,0,13,,,,,,,,,,,,,,,,11,,76,0
32490,note_on,,1,0,12,,,,,,,,,,,,,,,,10,,77,72
32490,note_on,,1,0,13,,,,,,,,,,,,,,,,11,,74,72
32519,note_on,,29,0,13,,,,,,,,,,,,,,,,11,,74,0
32519,note_on,,29,0,12,,,,,,,,,,,,,,,,10,,77,0
32520,note_on,,1,0,13,,,,,,,,,,,,,,,,11,,72,72
32520,note_on,,1,0,12,,,,,,,,,,,,,,,,10,,76,72
32549,note_on,,29,0,13,,,,,,,,,,,,,,,,11,,72,0
32549,note_on,,29,0,12,,,,,,,,,,,,,,,,10,,76,0
32550,note_on,,1,0,12,,,,,,,,,,,,,,,,10,,77,72
32550,note_on,,1,0,13,,,,,,,,,,,,,,,,11,,74,72
32579,note_on,,29,0,13,,,,,,,,,,,,,,,,11,,74,0
32579,note_on,,29,0,12,,,,,,,,,,,,,,,,10,,77,0
32580,note_on,,1,0,13,,,,,,,,,,,,,,,,11,,72,72
32580,note_on,,1,0,12,,,,,,,,,,,,,,,,10,,76,72
32609,note_on,,29,0,12,,,,,,,,,,,,,,,,10,,76,0
32609,note_on,,29,0,13,,,,,,,,,,,,,,,,11,,72,0
32610,note_on,,1,0,12,,,,,,,,,,,,,,,,10,,77,72
32610,note_on,,1,0,13,,,,,,,,,,,,,,,,11,,74,72
32639,note_on,,29,0,13,,,,,,,,,,,,,,,,11,,74,0
32639,note_on,,29,0,12,,,,,,,,,,,,,,,,10,,77,0
32640,note_on,,1,0,12,,,,,,,,,,,,,,,,10,,79,72
32640,note_on,,241,0,5,,,,,,,,,,,,,,,,0,,72,72
32640,note_on,,0,0,16,,,,,,,,,,,,,,,,15,,79,72
32640,note_on,,0,0,16,,,,,,,,,,,,,,,,15,,84,72
32640,note_on,,241,0,8,,,,,,,,,,,,,,,,5,,72,88
32640,note_on,,241,0,7,,,,,,,,,,,,,,,,2,,60,72
32640,note_on,,241,0,14,,,,,,,,,,,,,,,,12,,72,72
32640,note_on,,241,0,16,,,,,,,,,,,,,,,,15,,60,72
32640,note_on,,241,0,11,,,,,,,,,,,,,,,,8,,60,88
32640,note_on,,241,0,10,,,,,,,,,,,,,,,,7,,64,88
32640,note_on,,1,0,13,,,,,,,,,,,,,,,,11,,76,72
32640,note_on,,241,0,9,,,,,,,,,,,,,,,,6,,67,88
32640,note_on,,241,0,15,,,,,,,,,,,,,,,,13,,60,72
32640,note_on,,241,0,6,,,,,,,,,,,,,,,,1,,72,72
32640,note_on,,0,0,16,,,,,,,,,,,,,,,,15,,76,72
32640,note_on,,0,0,16,,,,,,,,,,,,,,,,15,,67,72
32669,note_on,,29,0,13,,,,,,,,,,,,,,,,11,,76,0
32669,note_on,,29,0,12,,,,,,,,,,,,,,,,10,,79,0
32670,note_on,,1,0,13,,,,,,,,,,,,,,,,11,,74,72
32670,note_on,,1,0,12,,,,,,,,,,,,,,,,10,,77,72
32699,note_on,,29,0,12,,,,,,,,,,,,,,,,10,,77,0
32699,note_on,,29,0,13,,,,,,,,,,,,,,,,11,,74,0
32700,note_on,,1,0,12,,,,,,,,,,,,,,,,10,,79,72
32700,note_on,,1,0,13,,,,,,,,,,,,,,,,11,,76,72
32729,note_on,,89,0,5,,,,,,,,,,,,,,,,0,,72,0
32729,note_on,,89,0,15,,,,,,,,,,,,,,,,13,,60,0
32729,note_on,,89,0,8,,,,,,,,,,,,,,,,5,,72,0
32729,note_on,,29,0,13,,,,,,,,,,,,,,,,11,,76,0
32729,note_on,,89,0,9,,,,,,,,,,,,,,,,6,,67,0
32729,note_on,,29,0,12,,,,,,,,,,,,,,,,10,,79,0
32729,note_on,,89,0,11,,,,,,,,,,,,,,,,8,,60,0
32729,note_on,,89,0,14,,,,,,,,,,,,,,,,12,,72,0
32729,note_on,,0,0,16,,,,,,,,,,,,,,,,15,,67,0
32729,note_on,,89,0,6,,,,,,,,,,,,,,,,1,,72,0
32729,note_on,,89,0,10,,,,,,,,,,,,,,,,7,,64,0
32729,note_on,,89,0,16,,,,,,,,,,,,,,,,15,,60,0
32729,note_on,,89,0,7,,,,,,,,,,,,,,,,2,,60,0
32730,note_on,,1,0,7,,,,,,,,,,,,,,,,2,,48,72
32730,note_on,,1,0,5,,,,,,,,,,,,,,,,0,,67,72
32730,note_on,,1,0,9,,,,,,,,,,,,,,,,6,,65,88
32730,note_on,,0,0,16,,,,,,,,,,,,,,,,15,,60,72
32730,note_on,,1,0,16,,,,,,,,,,,,,,,,15,,48,72
32730,note_on,,1,0,8,,,,,,,,,,,,,,,,5,,67,88
32730,note_on,,1,0,14,,,,,,,,,,,,,,,,12,,67,72
32730,note_on,,1,0,6,,,,,,,,,,,,,,,,1,,67,72
32730,note_on,,1,0,15,,,,,,,,,,,,,,,,13,,48,72
32730,note_on,,1,0,12,,,,,,,,,,,,,,,,10,,77,72
32730,note_on,,1,0,10,,,,,,,,,,,,,,,,7,,62,88
32730,note_on,,1,0,13,,,,,,,,,,,,,,,,11,,74,72
32730,note_on,,1,0,11,,,,,,,,,,,,,,,,8,,48,88
32759,note_on,,29,0,9,,,,,,,,,,,,,,,,6,,65,0
32759,note_on,,29,0,13,,,,,,,,,,,,,,,,11,,74,0
32759,note_on,,29,0,12,,,,,,,,,,,,,,,,10,,77,0
32759,note_on,,29,0,8,,,,,,,,,,,,,,,,5,,67,0
32759,note_on,,29,0,15,,,,,,,,,,,,,,,,13,,48,0
32759,note_on,,0,0,16,,,,,,,,,,,,,,,,15,,60,0
32759,note_on,,29,0,6,,,,,,,,,,,,,,,,1,,67,0
32759,note_on,,29,0,16,,,,,,,,,,,,,,,,15,,48,0
32759,note_on,,29,0,11,,,,,,,,,,,,,,,,8,,48,0
32759,note_on,,29,0,14,,,,,,,,,,,,,,,,12,,67,0
32759,note_on,,29,0,7,,,,,,,,,,,,,,,,2,,48,0
32759,note_on,,29,0,5,,,,,,,,,,,,,,,,0,,67,0
32759,note_on,,29,0,10,,,,,,,,,,,,,,,,7,,62,0
32760,note_on,,1,0,15,,,,,,,,,,,,,,,,13,,48,72
32760,note_on,,1,0,8,,,,,,,,,,,,,,,,5,,67,88
32760,note_on,,1,0,11,,,,,,,,,,,,,,,,8,,48,88
32760,note_on,,1,0,9,,,,,,,,,,,,,,,,6,,64,88
32760,note_on,,1,0,10,,,,,,,,,,,,,,,,7,,60,88
32760,note_on,,0,0,16,,,,,,,,,,,,,,,,15,,60,72
32760,note_on,,1,0,16,,,,,,,,,,,,,,,,15,,48,72
32760,note_on,,1,0,13,,,,,,,,,,,,,,,,11,,72,72
32760,note_on,,1,0,7,,,,,,,,,,,,,,,,2,,48,72
32760,note_on,,1,0,12,,,,,,,,,,,,,,,,10,,76,72
32760,note_on,,1,0,6,,,,,,,,,,,,,,,,1,,67,72
32760,note_on,,1,0,5,,,,,,,,,,,,,,,,0,,67,72
32760,note_on,,1,0,14,,,,,,,,,,,,,,,,12,,67,72
32789,note_on,,29,0,12,,,,,,,,,,,,,,,,10,,76,0
32789,note_on,,29,0,13,,,,,,,,,,,,,,,,11,,72,0
32790,note_on,,1,0,13,,,,,,,,,,,,,,,,11,,74,72
32790,note_on,,1,0,12,,,,,,,,,,,,,,,,10,,77,72
32819,note_on,,29,0,12,,,,,,,,,,,,,,,,10,,77,0
32819,note_on,,29,0,13,,,,,,,,,,,,,,,,11,,74,0
32820,note_on,,1,0,12,,,,,,,,,,,,,,,,10,,76,72
32820,note_on,,1,0,13,,,,,,,,,,,,,,,,11,,72,72
32849,note_on,,29,0,12,,,,,,,,,,,,,,,,10,,76,0
32849,note_on,,29,0,13,,,,,,,,,,,,,,,,11,,72,0
32850,note_on,,1,0,13,,,,,,,,,,,,,,,,11,,74,72
32850,note_on,,1,0,12,,,,,,,,,,,,,,,,10,,77,72
32879,note_on,,119,0,6,,,,,,,,,,,,,,,,1,,67,0
32879,note_on,,119,0,7,,,,,,,,,,,,,,,,2,,48,0
32879,note_on,,119,0,10,,,,,,,,,,,,,,,,7,,60,0
32879,note_on,,119,0,5,,,,,,,,,,,,,,,,0,,67,0
32879,note_on,,119,0,11,,,,,,,,,,,,,,,,8,,48,0
32879,note_on,,119,0,14,,,,,,,,,,,,,,,,12,,67,0
32879,note_on,,119,0,16,,,,,,,,,,,,,,,,15,,84,0
32879,note_on,,0,0,16,,,,,,,,,,,,,,,,15,,79,0
32879,note_on,,0,0,16,,,,,,,,,,,,,,,,15,,76,0
32879,note_on,,0,0,16,,,,,,,,,,,,,,,,15,,48,0
32879,note_on,,0,0,16,,,,,,,,,,,,,,,,15,,60,0
32879,note_on,,29,0,12,,,,,,,,,,,,,,,,10,,77,0
32879,note_on,,119,0,15,,,,,,,,,,,,,,,,13,,48,0
32879,note_on,,119,0,8,,,,,,,,,,,,,,,,5,,67,0
32879,note_on,,29,0,13,,,,,,,,,,,,,,,,11,,74,0
32879,note_on,,119,0,9,,,,,,,,,,,,,,,,6,,64,0
32880,note_on,,1,0,13,,,,,,,,,,,,,,,,11,,76,72
32880,note_on,,1,0,12,,,,,,,,,,,,,,,,10,,79,72
32909,note_on,,29,0,12,,,,,,,,,,,,,,,,10,,79,0
32909,note_on,,29,0,13,,,,,,,,,,,,,,,,11,,76,0
32910,note_on,,1,0,13,,,,,,,,,,,,,,,,11,,74,72
32910,note_on,,1,0,12,,,,,,,,,,,,,,,,10,,77,72
32939,note_on,,29,0,12,,,,,,,,,,,,,,,,10,,77,0
32939,note_on,,29,0,13,,,,,,,,,,,,,,,,11,,74,0
32940,note_on,,1,0,12,,,,,,,,,,,,,,,,10,,79,72
32940,note_on,,1,0,13,,,,,,,,,,,,,,,,11,,76,72
32969,note_on,,29,0,12,,,,,,,,,,,,,,,,10,,79,0
32969,note_on,,29,0,13,,,,,,,,,,,,,,,,11,,76,0
32970,note_on,,1,0,12,,,,,,,,,,,,,,,,10,,77,72
32970,note_on,,1,0,13,,,,,,,,,,,,,,,,11,,74,72
32999,note_on,,29,0,12,,,,,,,,,,,,,,,,10,,77,0
32999,note_on,,29,0,13,,,,,,,,,,,,,,,,11,,74,0
33000,note_on,,1,0,12,,,,,,,,,,,,,,,,10,,76,72
33000,note_on,,1,0,13,,,,,,,,,,,,,,,,11,,72,72
33029,note_on,,29,0,12,,,,,,,,,,,,,,,,10,,76,0
33029,note_on,,29,0,13,,,,,,,,,,,,,,,,11,,72,0
33030,note_on,,1,0,12,,,,,,,,,,,,,,,,10,,77,72
33030,note_on,,1,0,13,,,,,,,,,,,,,,,,11,,74,72
33059,note_on,,29,0,13,,,,,,,,,,,,,,,,11,,74,0
33059,note_on,,29,0,12,,,,,,,,,,,,,,,,10,,77,0
33060,note_on,,1,0,12,,,,,,,,,,,,,,,,10,,76,72
33060,note_on,,1,0,13,,,,,,,,,,,,,,,,11,,72,72
33089,note_on,,29,0,12,,,,,,,,,,,,,,,,10,,76,0
33089,note_on,,29,0,13,,,,,,,,,,,,,,,,11,,72,0
33090,note_on,,1,0,12,,,,,,,,,,,,,,,,10,,77,72
33090,note_on,,1,0,13,,,,,,,,,,,,,,,,11,,74,72
33119,note_on,,29,0,12,,,,,,,,,,,,,,,,10,,77,0
33119,note_on,,29,0,13,,,,,,,,,,,,,,,,11,,74,0
33120,note_on,,1,0,13,,,,,,,,,,,,,,,,11,,76,72
33120,note_on,,1,0,12,,,,,,,,,,,,,,,,10,,79,72
33149,note_on,,29,0,12,,,,,,,,,,,,,,,,10,,79,0
33149,note_on,,29,0,13,,,,,,,,,,,,,,,,11,,76,0
33150,note_on,,1,0,13,,,,,,,,,,,,,,,,11,,74,72
33150,note_on,,1,0,12,,,,,,,,,,,,,,,,10,,77,72
33179,note_on,,29,0,13,,,,,,,,,,,,,,,,11,,74,0
33179,note_on,,29,0,12,,,,,,,,,,,,,,,,10,,77,0
33180,note_on,,301,0,6,,,,,,,,,,,,,,,,1,,67,72
33180,note_on,,301,0,11,,,,,,,,,,,,,,,,8,,48,88
33180,note_on,,301,0,8,,,,,,,,,,,,,,,,5,,67,88
33180,note_on,,0,0,16,,,,,,,,,,,,,,,,15,,76,72
33180,note_on,,0,0,16,,,,,,,,,,,,,,,,15,,72,72
33180,note_on,,1,0,12,,,,,,,,,,,,,,,,10,,79,72
33180,note_on,,301,0,10,,,,,,,,,,,,,,,,7,,60,88
33180,note_on,,301,0,14,,,,,,,,,,,,,,,,12,,72,72
33180,note_on,,301,0,15,,,,,,,,,,,,,,,,13,,48,72
33180,note_on,,0,0,16,,,,,,,,,,,,,,,,15,,67,72
33180,note_on,,301,0,16,,,,,,,,,,,,,,,,15,,48,72
33180,note_on,,0,0,16,,,,,,,,,,,,,,,,15,,60,72
33180,note_on,,1,0,13,,,,,,,,,,,,,,,,11,,76,72
33180,note_on,,301,0,9,,,,,,,,,,,,,,,,6,,64,88
33180,note_on,,301,0,5,,,,,,,,,,,,,,,,0,,67,72
33180,note_on,,301,0,7,,,,,,,,,,,,,,,,2,,48,72
33209,note_on,,29,0,13,,,,,,,,,,,,,,,,11,,76,0
33209,note_on,,29,0,12,,,,,,,,,,,,,,,,10,,79,0
33210,note_on,,1,0,13,,,,,,,,,,,,,,,,11,,74,72
33210,note_on,,1,0,12,,,,,,,,,,,,,,,,10,,77,72
33239,note_on,,59,0,16,,,,,,,,,,,,,,,,15,,48,0
33239,note_on,,0,0,16,,,,,,,,,,,,,,,,15,,76,0
33239,note_on,,0,0,16,,,,,,,,,,,,,,,,15,,72,0
33239,note_on,,59,0,15,,,,,,,,,,,,,,,,13,,48,0
33239,note_on,,0,0,16,,,,,,,,,,,,,,,,15,,67,0
33239,note_on,,0,0,16,,,,,,,,,,,,,,,,15,,60,0
33239,note_on,,59,0,11,,,,,,,,,,,,,,,,8,,48,0
33239,note_on,,59,0,5,,,,,,,,,,,,,,,,0,,67,0
33239,note_on,,29,0,13,,,,,,,,,,,,,,,,11,,74,0
33239,note_on,,59,0,10,,,,,,,,,,,,,,,,7,,60,0
33239,note_on,,59,0,8,,,,,,,,,,,,,,,,5,,67,0
33239,note_on,,29,0,12,,,,,,,,,,,,,,,,10,,77,0
33239,note_on,,59,0,14,,,,,,,,,,,,,,,,12,,72,0
33239,note_on,,59,0,6,,,,,,,,,,,,,,,,1,,67,0
33239,note_on,,59,0,7,,,,,,,,,,,,,,,,2,,48,0
33239,note_on,,59,0,9,,,,,,,,,,,,,,,,6,,64,0
33240,note_on,,0,0,16,,,,,,,,,,,,,,,,15,,76,72
33240,note_on,,1,0,6,,,,,,,,,,,,,,,,1,,67,72
33240,note_on,,1,0,9,,,,,,,,,,,,,,,,6,,64,88
33240,note_on,,1,0,11,,,,,,,,,,,,,,,,8,,48,88
33240,note_on,,1,0,13,,,,,,,,,,,,,,,,11,,72,72
33240,note_on,,1,0,14,,,,,,,,,,,,,,,,12,,67,72
33240,note_on,,0,0,16,,,,,,,,,,,,,,,,15,,72,72
33240,note_on,,1,0,10,,,,,,,,,,,,,,,,7,,60,88
33240,note_on,,0,0,16,,,,,,,,,,,,,,,,15,,67,72
33240,note_on,,1,0,16,,,,,,,,,,,,,,,,15,,48,72
33240,note_on,,1,0,8,,,,,,,,,,,,,,,,5,,67,88
33240,note_on,,1,0,5,,,,,,,,,,,,,,,,0,,67,72
33240,note_on,,1,0,12,,,,,,,,,,,,,,,,10,,76,72
33240,note_on,,0,0,16,,,,,,,,,,,,,,,,15,,60,72
33240,note_on,,1,0,7,,,,,,,,,,,,,,,,2,,48,72
33240,note_on,,1,0,15,,,,,,,,,,,,,,,,13,,48,72
33269,note_on,,29,0,12,,,,,,,,,,,,,,,,10,,76,0
33269,note_on,,29,0,13,,,,,,,,,,,,,,,,11,,72,0
33270,note_on,,1,0,12,,,,,,,,,,,,,,,,10,,77,72
33270,note_on,,1,0,13,,,,,,,,,,,,,,,,11,,74,72
33299,note_on,,29,0,12,,,,,,,,,,,,,,,,10,,77,0
33299,note_on,,29,0,13,,,,,,,,,,,,,,,,11,,74,0
33299,note_on,,59,0,8,,,,,,,,,,,,,,,,5,,67,0
33299,note_on,,59,0,7,,,,,,,,,,,,,,,,2,,48,0
33299,note_on,,59,0,9,,,,,,,,,,,,,,,,6,,64,0
33299,note_on,,59,0,5,,,,,,,,,,,,,,,,0,,67,0
33299,note_on,,59,0,6,,,,,,,,,,,,,,,,1,,67,0
33299,note_on,,59,0,14,,,,,,,,,,,,,,,,12,,67,0
33299,note_on,,59,0,10,,,,,,,,,,,,,,,,7,,60,0
33299,note_on,,59,0,16,,,,,,,,,,,,,,,,15,,48,0
33299,note_on,,0,0,16,,,,,,,,,,,,,,,,15,,76,0
33299,note_on,,59,0,11,,,,,,,,,,,,,,,,8,,48,0
33299,note_on,,0,0,16,,,,,,,,,,,,,,,,15,,72,0
33299,note_on,,0,0,16,,,,,,,,,,,,,,,,15,,67,0
33299,note_on,,59,0,15,,,,,,,,,,,,,,,,13,,48,0
33299,note_on,,0,0,16,,,,,,,,,,,,,,,,15,,60,0
33300,note_on,,1,0,8,,,,,,,,,,,,,,,,5,,67,88
33300,note_on,,1,0,9,,,,,,,,,,,,,,,,6,,64,88
33300,note_on,,1,0,5,,,,,,,,,,,,,,,,0,,67,72
33300,note_on,,1,0,7,,,,,,,,,,,,,,,,2,,48,72
33300,note_on,,1,0,16,,,,,,,,,,,,,,,,15,,48,72
33300,note_on,,0,0,16,,,,,,,,,,,,,,,,15,,76,72
33300,note_on,,1,0,12,,,,,,,,,,,,,,,,10,,76,72
33300,note_on,,1,0,10,,,,,,,,,,,,,,,,7,,60,88
33300,note_on,,0,0,16,,,,,,,,,,,,,,,,15,,72,72
33300,note_on,,0,0,16,,,,,,,,,,,,,,,,15,,60,72
33300,note_on,,1,0,13,,,,,,,,,,,,,,,,11,,72,72
33300,note_on,,1,0,14,,,,,,,,,,,,,,,,12,,67,72
33300,note_on,,1,0,15,,,,,,,,,,,,,,,,13,,48,72
33300,note_on,,1,0,6,,,,,,,,,,,,,,,,1,,67,72
33300,note_on,,1,0,11,,,,,,,,,,,,,,,,8,,48,88
33300,note_on,,0,0,16,,,,,,,,,,,,,,,,15,,67,72
33329,note_on,,29,0,12,,,,,,,,,,,,,,,,10,,76,0
33329,note_on,,29,0,13,,,,,,,,,,,,,,,,11,,72,0
33330,note_on,,1,0,12,,,,,,,,,,,,,,,,10,,77,72
33330,note_on,,1,0,13,,,,,,,,,,,,,,,,11,,74,72
33359,note_on,,59,0,5,,,,,,,,,,,,,,,,0,,67,0
33359,note_on,,59,0,14,,,,,,,,,,,,,,,,12,,67,0
33359,note_on,,59,0,15,,,,,,,,,,,,,,,,13,,48,0
33359,note_on,,59,0,6,,,,,,,,,,,,,,,,1,,67,0
33359,note_on,,59,0,11,,,,,,,,,,,,,,,,8,,48,0
33359,note_on,,29,0,13,,,,,,,,,,,,,,,,11,,74,0
33359,note_on,,59,0,9,,,,,,,,,,,,,,,,6,,64,0
33359,note_on,,59,0,16,,,,,,,,,,,,,,,,15,,48,0
33359,note_on,,29,0,12,,,,,,,,,,,,,,,,10,,77,0
33359,note_on,,0,0,16,,,,,,,,,,,,,,,,15,,76,0
33359,note_on,,59,0,8,,,,,,,,,,,,,,,,5,,67,0
33359,note_on,,59,0,7,,,,,,,,,,,,,,,,2,,48,0
33359,note_on,,59,0,10,,,,,,,,,,,,,,,,7,,60,0
33359,note_on,,0,0,16,,,,,,,,,,,,,,,,15,,67,0
33359,note_on,,0,0,16,,,,,,,,,,,,,,,,15,,60,0
33359,note_on,,0,0,16,,,,,,,,,,,,,,,,15,,72,0
33360,note_on,,1,0,5,,,,,,,,,,,,,,,,0,,72,72
33360,note_on,,1,0,15,,,,,,,,,,,,,,,,13,,60,72
33360,note_on,,1,0,16,,,,,,,,,,,,,,,,15,,60,72
33360,note_on,,0,0,16,,,,,,,,,,,,,,,,15,,79,72
33360,note_on,,1,0,9,,,,,,,,,,,,,,,,6,,67,88
33360,note_on,,0,0,16,,,,,,,,,,,,,,,,15,,72,72
33360,note_on,,0,0,16,,,,,,,,,,,,,,,,15,,64,72
33360,note_on,,1,0,12,,,,,,,,,,,,,,,,10,,79,72
33360,note_on,,1,0,14,,,,,,,,,,,,,,,,12,,72,72
33360,note_on,,1,0,8,,,,,,,,,,,,,,,,5,,72,88
33360,note_on,,1,0,11,,,,,,,,,,,,,,,,8,,60,88
33360,note_on,,1,0,10,,,,,,,,,,,,,,,,7,,64,88
33360,note_on,,1,0,6,,,,,,,,,,,,,,,,1,,72,72
33360,note_on,,1,0,7,,,,,,,,,,,,,,,,2,,60,72
33360,note_on,,1,0,13,,,,,,,,,,,,,,,,11,,76,72
33360,note_on,,0,0,16,,,,,,,,,,,,,,,,15,,67,72
33389,note_on,,29,0,12,,,,,,,,,,,,,,,,10,,79,0
33389,note_on,,29,0,13,,,,,,,,,,,,,,,,11,,76,0
33390,note_on,,1,0,13,,,,,,,,,,,,,,,,11,,74,72
33390,note_on,,1,0,12,,,,,,,,,,,,,,,,10,,77,72
33419,note_on,,29,0,13,,,,,,,,,,,,,,,,11,,74,0
33419,note_on,,29,0,12,,,,,,,,,,,,,,,,10,,77,0
33420,note_on,,1,0,12,,,,,,,,,,,,,,,,10,,79,72
33420,note_on,,1,0,13,,,,,,,,,,,,,,,,11,,76,72
33449,note_on,,29,0,12,,,,,,,,,,,,,,,,10,,79,0
33449,note_on,,29,0,13,,,,,,,,,,,,,,,,11,,76,0
33450,note_on,,1,0,13,,,,,,,,,,,,,,,,11,,74,72
33450,note_on,,1,0,12,,,,,,,,,,,,,,,,10,,77,72
33479,note_on,,119,0,14,,,,,,,,,,,,,,,,12,,72,0
33479,note_on,,119,0,11,,,,,,,,,,,,,,,,8,,60,0
33479,note_on,,119,0,6,,,,,,,,,,,,,,,,1,,72,0
33479,note_on,,119,0,10,,,,,,,,,,,,,,,,7,,64,0
33479,note_on,,29,0,13,,,,,,,,,,,,,,,,11,,74,0
33479,note_on,,119,0,7,,,,,,,,,,,,,,,,2,,60,0
33479,note_on,,119,0,8,,,,,,,,,,,,,,,,5,,72,0
33479,note_on,,119,0,5,,,,,,,,,,,,,,,,0,,72,0
33479,note_on,,119,0,16,,,,,,,,,,,,,,,,15,,60,0
33479,note_on,,0,0,16,,,,,,,,,,,,,,,,15,,79,0
33479,note_on,,0,0,16,,,,,,,,,,,,,,,,15,,72,0
33479,note_on,,119,0,15,,,,,,,,,,,,,,,,13,,60,0
33479,note_on,,0,0,16,,,,,,,,,,,,,,,,15,,67,0
33479,note_on,,29,0,12,,,,,,,,,,,,,,,,10,,77,0
33479,note_on,,119,0,9,,,,,,,,,,,,,,,,6,,67,0
33479,note_on,,0,0,16,,,,,,,,,,,,,,,,15,,64,0
33480,note_on,,1,0,12,,,,,,,,,,,,,,,,10,,76,72
33480,note_on,,1,0,13,,,,,,,,,,,,,,,,11,,72,72
33509,note_on,,29,0,12,,,,,,,,,,,,,,,,10,,76,0
33509,note_on,,29,0,13,,,,,,,,,,,,,,,,11,,72,0
33510,note_on,,1,0,13,,,,,,,,,,,,,,,,11,,74,72
33510,note_on,,1,0,12,,,,,,,,,,,,,,,,10,,77,72
33539,note_on,,29,0,12,,,,,,,,,,,,,,,,10,,77,0
33539,note_on,,29,0,13,,,,,,,,,,,,,,,,11,,74,0
33540,note_on,,61,0,7,,,,,,,,,,,,,,,,2,,60,72
33540,note_on,,61,0,6,,,,,,,,,,,,,,,,1,,72,72
33540,note_on,,61,0,11,,,,,,,,,,,,,,,,8,,60,88
33540,note_on,,61,0,5,,,,,,,,,,,,,,,,0,,72,72
33540,note_on,,61,0,14,,,,,,,,,,,,,,,,12,,67,72
33540,note_on,,1,0,12,,,,,,,,,,,,,,,,10,,76,72
33540,note_on,,1,0,13,,,,,,,,,,,,,,,,11,,72,72
33540,note_on,,61,0,8,,,,,,,,,,,,,,,,5,,72,88
33540,note_on,,0,0,16,,,,,,,,,,,,,,,,15,,64,72
33540,note_on,,61,0,15,,,,,,,,,,,,,,,,13,,60,72
33540,note_on,,0,0,16,,,,,,,,,,,,,,,,15,,67,72
33540,note_on,,0,0,16,,,,,,,,,,,,,,,,15,,72,72
33540,note_on,,61,0,16,,,,,,,,,,,,,,,,15,,60,72
33540,note_on,,61,0,9,,,,,,,,,,,,,,,,6,,67,88
33540,note_on,,61,0,10,,,,,,,,,,,,,,,,7,,64,88
33569,note_on,,29,0,12,,,,,,,,,,,,,,,,10,,76,0
33569,note_on,,29,0,13,,,,,,,,,,,,,,,,11,,72,0
33570,note_on,,1,0,12,,,,,,,,,,,,,,,,10,,77,72
33570,note_on,,1,0,13,,,,,,,,,,,,,,,,11,,74,72
33599,note_on,,59,0,6,,,,,,,,,,,,,,,,1,,72,0
33599,note_on,,59,0,10,,,,,,,,,,,,,,,,7,,64,0
33599,note_on,,29,0,13,,,,,,,,,,,,,,,,11,,74,0
33599,note_on,,59,0,14,,,,,,,,,,,,,,,,12,,67,0
33599,note_on,,0,0,16,,,,,,,,,,,,,,,,15,,64,0
33599,note_on,,59,0,7,,,,,,,,,,,,,,,,2,,60,0
33599,note_on,,59,0,9,,,,,,,,,,,,,,,,6,,67,0
33599,note_on,,59,0,15,,,,,,,,,,,,,,,,13,,60,0
33599,note_on,,29,0,12,,,,,,,,,,,,,,,,10,,77,0
33599,note_on,,0,0,16,,,,,,,,,,,,,,,,15,,67,0
33599,note_on,,59,0,16,,,,,,,,,,,,,,,,15,,60,0
33599,note_on,,0,0,16,,,,,,,,,,,,,,,,15,,72,0
33599,note_on,,59,0,11,,,,,,,,,,,,,,,,8,,60,0
33599,note_on,,59,0,5,,,,,,,,,,,,,,,,0,,72,0
33599,note_on,,59,0,8,,,,,,,,,,,,,,,,5,,72,0
33600,note_on,,1,0,13,,,,,,,,,,,,,,,,11,,76,72
33600,note_on,,1,0,12,,,,,,,,,,,,,,,,10,,79,72
33600,note_on,,1,0,7,,,,,,,,,,,,,,,,2,,60,72
33600,note_on,,1,0,11,,,,,,,,,,,,,,,,8,,60,88
33600,note_on,,1,0,15,,,,,,,,,,,,,,,,13,,60,72
33600,note_on,,0,0,16,,,,,,,,,,,,,,,,15,,67,72
33600,note_on,,1,0,8,,,,,,,,,,,,,,,,5,,72,88
33600,note_on,,0,0,16,,,,,,,,,,,,,,,,15,,72,72
33600,note_on,,1,0,6,,,,,,,,,,,,,,,,1,,72,72
33600,note_on,,1,0,14,,,,,,,,,,,,,,,,12,,72,72
33600,note_on,,1,0,9,,,,,,,,,,,,,,,,6,,67,88
33600,note_on,,1,0,10,,,,,,,,,,,,,,,,7,,64,88
33600,note_on,,1,0,16,,,,,,,,,,,,,,,,15,,60,72
33600,note_on,,0,0,16,,,,,,,,,,,,,,,,15,,76,72
33600,note_on,,1,0,5,,,,,,,,,,,,,,,,0,,72,72
33600,note_on,,0,0,16,,,,,,,,,,,,,,,,15,,64,72
33629,note_on,,29,0,13,,,,,,,,,,,,,,,,11,,76,0
33629,note_on,,29,0,12,,,,,,,,,,,,,,,,10,,79,0
33630,note_on,,1,0,12,,,,,,,,,,,,,,,,10,,78,72
33630,note_on,,1,0,13,,,,,,,,,,,,,,,,11,,74,72
33659,note_on,,29,0,12,,,,,,,,,,,,,,,,10,,78,0
33659,note_on,,59,0,9,,,,,,,,,,,,,,,,6,,67,0
33659,note_on,,59,0,5,,,,,,,,,,,,,,,,0,,72,0
33659,note_on,,59,0,14,,,,,,,,,,,,,,,,12,,72,0
33659,note_on,,59,0,6,,,,,,,,,,,,,,,,1,,72,0
33659,note_on,,59,0,10,,,,,,,,,,,,,,,,7,,64,0
33659,note_on,,0,0,16,,,,,,,,,,,,,,,,15,,64,0
33659,note_on,,59,0,16,,,,,,,,,,,,,,,,15,,60,0
33659,note_on,,0,0,16,,,,,,,,,,,,,,,,15,,72,0
33659,note_on,,59,0,11,,,,,,,,,,,,,,,,8,,60,0
33659,note_on,,59,0,7,,,,,,,,,,,,,,,,2,,60,0
33659,note_on,,59,0,8,,,,,,,,,,,,,,,,5,,72,0
33659,note_on,,0,0,16,,,,,,,,,,,,,,,,15,,76,0
33659,note_on,,29,0,13,,,,,,,,,,,,,,,,11,,74,0
33659,note_on,,59,0,15,,,,,,,,,,,,,,,,13,,60,0
33659,note_on,,0,0,16,,,,,,,,,,,,,,,,15,,67,0
33660,note_on,,1,0,15,,,,,,,,,,,,,,,,13,,60,72
33660,note_on,,1,0,12,,,,,,,,,,,,,,,,10,,79,72
33660,note_on,,1,0,16,,,,,,,,,,,,,,,,15,,60,72
33660,note_on,,1,0,5,,,,,,,,,,,,,,,,0,,72,72
33660,note_on,,1,0,13,,,,,,,,,,,,,,,,11,,76,72
33660,note_on,,0,0,16,,,,,,,,,,,,,,,,15,,64,72
33660,note_on,,1,0,9,,,,,,,,,,,,,,,,6,,67,88
33660,note_on,,0,0,16,,,,,,,,,,,,,,,,15,,76,72
33660,note_on,,1,0,8,,,,,,,,,,,,,,,,5,,72,88
33660,note_on,,0,0,16,,,,,,,,,,,,,,,,15,,72,72
33660,note_on,,0,0,16,,,,,,,,,,,,,,,,15,,67,72
33660,note_on,,1,0,6,,,,,,,,,,,,,,,,1,,72,72
33660,note_on,,1,0,7,,,,,,,,,,,,,,,,2,,60,72
33660,note_on,,1,0,10,,,,,,,,,,,,,,,,7,,64,88
33660,note_on,,1,0,14,,,,,,,,,,,,,,,,12,,72,72
33660,note_on,,1,0,11,,,,,,,,,,,,,,,,8,,60,88
33689,note_on,,29,0,12,,,,,,,,,,,,,,,,10,,79,0
33689,note_on,,29,0,13,,,,,,,,,,,,,,,,11,,76,0
33690,note_on,,1,0,12,,,,,,,,,,,,,,,,10,,81,72
33690,note_on,,1,0,13,,,,,,,,,,,,,,,,11,,78,72
33719,note_on,,59,0,5,,,,,,,,,,,,,,,,0,,72,0
33719,note_on,,0,0,16,,,,,,,,,,,,,,,,15,,67,0
33719,note_on,,59,0,15,,,,,,,,,,,,,,,,13,,60,0
33719,note_on,,0,0,16,,,,,,,,,,,,,,,,15,,72,0
33719,note_on,,59,0,16,,,,,,,,,,,,,,,,15,,60,0
33719,note_on,,0,0,16,,,,,,,,,,,,,,,,15,,64,0
33719,note_on,,59,0,14,,,,,,,,,,,,,,,,12,,72,0
33719,note_on,,0,0,16,,,,,,,,,,,,,,,,15,,76,0
33719,note_on,,59,0,10,,,,,,,,,,,,,,,,7,,64,0
33719,note_on,,59,0,7,,,,,,,,,,,,,,,,2,,60,0
33719,note_on,,59,0,8,,,,,,,,,,,,,,,,5,,72,0
33719,note_on,,29,0,13,,,,,,,,,,,,,,,,11,,78,0
33719,note_on,,29,0,12,,,,,,,,,,,,,,,,10,,81,0
33719,note_on,,59,0,9,,,,,,,,,,,,,,,,6,,67,0
33719,note_on,,59,0,6,,,,,,,,,,,,,,,,1,,72,0
33719,note_on,,59,0,11,,,,,,,,,,,,,,,,8,,60,0
33720,note_on,,1,0,13,,,,,,,,,,,,,,,,11,,76,72
33720,note_on,,1,0,11,,,,,,,,,,,,,,,,8,,60,88
33720,note_on,,0,0,16,,,,,,,,,,,,,,,,15,,72,72
33720,note_on,,1,0,6,,,,,,,,,,,,,,,,1,,72,72
33720,note_on,,1,0,8,,,,,,,,,,,,,,,,5,,72,88
33720,note_on,,1,0,10,,,,,,,,,,,,,,,,7,,64,88
33720,note_on,,1,0,5,,,,,,,,,,,,,,,,0,,72,72
33720,note_on,,0,0,16,,,,,,,,,,,,,,,,15,,64,72
33720,note_on,,0,0,16,,,,,,,,,,,,,,,,15,,67,72
33720,note_on,,0,0,16,,,,,,,,,,,,,,,,15,,76,72
33720,note_on,,1,0,14,,,,,,,,,,,,,,,,12,,72,72
33720,note_on,,1,0,9,,,,,,,,,,,,,,,,6,,67,88
33720,note_on,,1,0,15,,,,,,,,,,,,,,,,13,,60,72
33720,note_on,,1,0,12,,,,,,,,,,,,,,,,10,,79,72
33720,note_on,,1,0,7,,,,,,,,,,,,,,,,2,,60,72
33720,note_on,,1,0,16,,,,,,,,,,,,,,,,15,,60,72
33749,note_on,,29,0,13,,,,,,,,,,,,,,,,11,,76,0
33750,note_on,,1,0,13,,,,,,,,,,,,,,,,11,,78,72
33779,note_on,,59,0,8,,,,,,,,,,,,,,,,5,,72,0
33779,note_on,,59,0,14,,,,,,,,,,,,,,,,12,,72,0
33779,note_on,,59,0,6,,,,,,,,,,,,,,,,1,,72,0
33779,note_on,,59,0,12,,,,,,,,,,,,,,,,10,,79,0
33779,note_on,,59,0,15,,,,,,,,,,,,,,,,13,,60,0
33779,note_on,,59,0,11,,,,,,,,,,,,,,,,8,,60,0
33779,note_on,,59,0,10,,,,,,,,,,,,,,,,7,,64,0
33779,note_on,,59,0,7,,,,,,,,,,,,,,,,2,,60,0
33779,note_on,,59,0,5,,,,,,,,,,,,,,,,0,,72,0
33779,note_on,,0,0,16,,,,,,,,,,,,,,,,15,,64,0
33779,note_on,,0,0,16,,,,,,,,,,,,,,,,15,,67,0
33779,note_on,,0,0,16,,,,,,,,,,,,,,,,15,,72,0
33779,note_on,,0,0,16,,,,,,,,,,,,,,,,15,,76,0
33779,note_on,,59,0,9,,,,,,,,,,,,,,,,6,,67,0
33779,note_on,,29,0,13,,,,,,,,,,,,,,,,11,,78,0
33779,note_on,,59,0,16,,,,,,,,,,,,,,,,15,,60,0
33780,note_on,,1,0,5,,,,,,,,,,,,,,,,0,,72,72
33780,note_on,,1,0,8,,,,,,,,,,,,,,,,5,,72,88
33780,note_on,,1,0,13,,,,,,,,,,,,,,,,11,,79,72
33780,note_on,,0,0,16,,,,,,,,,,,,,,,,15,,64,72
33780,note_on,,1,0,11,,,,,,,,,,,,,,,,8,,60,88
33780,note_on,,1,0,14,,,,,,,,,,,,,,,,12,,64,72
33780,note_on,,1,0,7,,,,,,,,,,,,,,,,2,,60,72
33780,note_on,,1,0,6,,,,,,,,,,,,,,,,1,,72,72
33780,note_on,,1,0,9,,,,,,,,,,,,,,,,6,,67,88
33780,note_on,,1,0,16,,,,,,,,,,,,,,,,15,,60,72
33780,note_on,,1,0,10,,,,,,,,,,,,,,,,7,,64,88
33780,note_on,,0,0,16,,,,,,,,,,,,,,,,15,,72,72
33780,note_on,,0,0,16,,,,,,,,,,,,,,,,15,,67,72
33780,note_on,,1,0,12,,,,,,,,,,,,,,,,10,,84,72
33780,note_on,,0,0,16,,,,,,,,,,,,,,,,15,,76,72
33780,note_on,,1,0,15,,,,,,,,,,,,,,,,13,,60,72
33809,note_on,,29,0,13,,,,,,,,,,,,,,,,11,,79,0
33810,note_on,,1,0,13,,,,,,,,,,,,,,,,11,,76,72
33839,note_on,,59,0,15,,,,,,,,,,,,,,,,13,,60,0
33839,note_on,,59,0,14,,,,,,,,,,,,,,,,12,,64,0
33839,note_on,,29,0,13,,,,,,,,,,,,,,,,11,,76,0
33839,note_on,,59,0,10,,,,,,,,,,,,,,,,7,,64,0
33839,note_on,,0,0,16,,,,,,,,,,,,,,,,15,,67,0
33839,note_on,,59,0,5,,,,,,,,,,,,,,,,0,,72,0
33839,note_on,,59,0,9,,,,,,,,,,,,,,,,6,,67,0
33839,note_on,,59,0,11,,,,,,,,,,,,,,,,8,,60,0
33839,note_on,,59,0,8,,,,,,,,,,,,,,,,5,,72,0
33839,note_on,,59,0,6,,,,,,,,,,,,,,,,1,,72,0
33839,note_on,,59,0,16,,,,,,,,,,,,,,,,15,,60,0
33839,note_on,,0,0,16,,,,,,,,,,,,,,,,15,,76,0
33839,note_on,,0,0,16,,,,,,,,,,,,,,,,15,,72,0
33839,note_on,,0,0,16,,,,,,,,,,,,,,,,15,,64,0
33839,note_on,,59,0,7,,,,,,,,,,,,,,,,2,,60,0
33840,note_on,,1,0,9,,,,,,,,,,,,,,,,6,,66,88
33840,note_on,,1,0,11,,,,,,,,,,,,,,,,8,,50,88
33840,note_on,,1,0,14,,,,,,,,,,,,,,,,12,,69,72
33840,note_on,,1,0,6,,,,,,,,,,,,,,,,1,,72,72
33840,note_on,,1,0,15,,,,,,,,,,,,,,,,13,,50,72
33840,note_on,,0,0,16,,,,,,,,,,,,,,,,15,,78,72
33840,note_on,,0,0,16,,,,,,,,,,,,,,,,15,,72,72
33840,note_on,,0,0,16,,,,,,,,,,,,,,,,15,,69,72
33840,note_on,,0,0,16,,,,,,,,,,,,,,,,15,,57,72
33840,note_on,,1,0,8,,,,,,,,,,,,,,,,5,,72,88
33840,note_on,,1,0,10,,,,,,,,,,,,,,,,7,,57,88
33840,note_on,,1,0,13,,,,,,,,,,,,,,,,11,,78,72
33840,note_on,,1,0,5,,,,,,,,,,,,,,,,0,,72,72
33840,note_on,,1,0,16,,,,,,,,,,,,,,,,15,,50,72
33840,note_on,,1,0,7,,,,,,,,,,,,,,,,2,,50,72
33869,note_on,,29,0,13,,,,,,,,,,,,,,,,11,,78,0
33869,note_on,,89,0,12,,,,,,,,,,,,,,,,10,,84,0
33870,note_on,,1,0,13,,,,,,,,,,,,,,,,11,,79,72
33870,note_on,,1,0,12,,,,,,,,,,,,,,,,10,,83,72
33899,note_on,,29,0,12,,,,,,,,,,,,,,,,10,,83,0
33899,note_on,,29,0,13,,,,,,,,,,,,,,,,11,,79,0
33900,note_on,,1,0,12,,,,,,,,,,,,,,,,10,,84,72
33900,note_on,,1,0,13,,,,,,,,,,,,,,,,11,,81,72
33929,note_on,,29,0,13,,,,,,,,,,,,,,,,11,,81,0
33929,note_on,,29,0,12,,,,,,,,,,,,,,,,10,,84,0
33930,note_on,,1,0,13,,,,,,,,,,,,,,,,11,,78,72
33930,note_on,,1,0,12,,,,,,,,,,,,,,,,10,,81,72
33959,note_on,,119,0,15,,,,,,,,,,,,,,,,13,,50,0
33959,note_on,,119,0,5,,,,,,,,,,,,,,,,0,,72,0
33959,note_on,,0,0,16,,,,,,,,,,,,,,,,15,,57,0
33959,note_on,,0,0,16,,,,,,,,,,,,,,,,15,,69,0
33959,note_on,,0,0,16,,,,,,,,,,,,,,,,15,,72,0
33959,note_on,,119,0,8,,,,,,,,,,,,,,,,5,,72,0
33959,note_on,,119,0,7,,,,,,,,,,,,,,,,2,,50,0
33959,note_on,,119,0,16,,,,,,,,,,,,,,,,15,,50,0
33959,note_on,,29,0,12,,,,,,,,,,,,,,,,10,,81,0
33959,note_on,,119,0,9,,,,,,,,,,,,,,,,6,,66,0
33959,note_on,,119,0,14,,,,,,,,,,,,,,,,12,,69,0
33959,note_on,,119,0,11,,,,,,,,,,,,,,,,8,,50,0
33959,note_on,,119,0,10,,,,,,,,,,,,,,,,7,,57,0
33959,note_on,,29,0,13,,,,,,,,,,,,,,,,11,,78,0
33959,note_on,,0,0,16,,,,,,,,,,,,,,,,15,,78,0
33959,note_on,,119,0,6,,,,,,,,,,,,,,,,1,,72,0
33960,note_on,,1,0,9,,,,,,,,,,,,,,,,6,,62,88
33960,note_on,,0,0,16,,,,,,,,,,,,,,,,15,,74,72
33960,note_on,,0,0,16,,,,,,,,,,,,,,,,15,,71,72
33960,note_on,,0,0,16,,,,,,,,,,,,,,,,15,,55,72
33960,note_on,,1,0,13,,,,,,,,,,,,,,,,11,,74,72
33960,note_on,,1,0,15,,,,,,,,,,,,,,,,13,,43,72
33960,note_on,,1,0,12,,,,,,,,,,,,,,,,10,,83,72
33960,note_on,,1,0,7,,,,,,,,,,,,,,,,2,,43,72
33960,note_on,,1,0,11,,,,,,,,,,,,,,,,8,,55,88
33960,note_on,,1,0,14,,,,,,,,,,,,,,,,12,,67,72
33960,note_on,,1,0,5,,,,,,,,,,,,,,,,0,,71,72
33960,note_on,,1,0,16,,,,,,,,,,,,,,,,15,,43,72
33960,note_on,,1,0,10,,,,,,,,,,,,,,,,7,,59,88
33960,note_on,,1,0,6,,,,,,,,,,,,,,,,1,,71,72
33960,note_on,,1,0,8,,,,,,,,,,,,,,,,5,,71,88
33960,note_on,,0,0,16,,,,,,,,,,,,,,,,15,,79,72
33989,note_on,,29,0,12,,,,,,,,,,,,,,,,10,,83,0
33990,note_on,,1,0,12,,,,,,,,,,,,,,,,10,,81,72
34019,note_on,,59,0,10,,,,,,,,,,,,,,,,7,,59,0
34019,note_on,,59,0,9,,,,,,,,,,,,,,,,6,,62,0
34019,note_on,,59,0,14,,,,,,,,,,,,,,,,12,,67,0
34019,note_on,,29,0,12,,,,,,,,,,,,,,,,10,,81,0
34019,note_on,,59,0,13,,,,,,,,,,,,,,,,11,,74,0
34020,note_on,,1,0,14,,,,,,,,,,,,,,,,12,,62,72
34020,note_on,,1,0,12,,,,,,,,,,,,,,,,10,,83,72
34020,note_on,,1,0,9,,,,,,,,,,,,,,,,6,,67,88
34020,note_on,,1,0,10,,,,,,,,,,,,,,,,7,,60,88
34020,note_on,,1,0,13,,,,,,,,,,,,,,,,11,,79,72
34049,note_on,,29,0,12,,,,,,,,,,,,,,,,10,,83,0
34050,note_on,,1,0,12,,,,,,,,,,,,,,,,10,,84,72
34079,note_on,,119,0,15,,,,,,,,,,,,,,,,13,,43,0
34079,note_on,,29,0,12,,,,,,,,,,,,,,,,10,,84,0
34079,note_on,,119,0,8,,,,,,,,,,,,,,,,5,,71,0
34079,note_on,,59,0,9,,,,,,,,,,,,,,,,6,,67,0
34079,note_on,,0,0,16,,,,,,,,,,,,,,,,15,,79,0
34079,note_on,,59,0,13,,,,,,,,,,,,,,,,11,,79,0
34079,note_on,,0,0,16,,,,,,,,,,,,,,,,15,,74,0
34079,note_on,,119,0,7,,,,,,,,,,,,,,,,2,,43,0
34079,note_on,,119,0,11,,,,,,,,,,,,,,,,8,,55,0
34079,note_on,,119,0,5,,,,,,,,,,,,,,,,0,,71,0
34079,note_on,,119,0,16,,,,,,,,,,,,,,,,15,,43,0
34079,note_on,,119,0,6,,,,,,,,,,,,,,,,1,,71,0
34079,note_on,,0,0,16,,,,,,,,,,,,,,,,15,,55,0
34079,note_on,,0,0,16,,,,,,,,,,,,,,,,15,,71,0
34079,note_on,,59,0,14,,,,,,,,,,,,,,,,12,,62,0
34079,note_on,,59,0,10,,,,,,,,,,,,,,,,7,,60,0
34080,note_on,,1,0,14,,,,,,,,,,,,,,,,12,,74,72
34080,note_on,,1,0,7,,,,,,,,,,,,,,,,2,,50,72
34080,note_on,,1,0,11,,,,,,,,,,,,,,,,8,,50,88
34080,note_on,,1,0,12,,,,,,,,,,,,,,,,10,,81,72
34080,note_on,,1,0,6,,,,,,,,,,,,,,,,1,,69,72
34080,note_on,,1,0,8,,,,,,,,,,,,,,,,5,,69,88
34080,note_on,,1,0,5,,,,,,,,,,,,,,,,0,,69,72
34080,note_on,,0,0,16,,,,,,,,,,,,,,,,15,,69,72
34080,note_on,,1,0,10,,,,,,,,,,,,,,,,7,,62,88
34080,note_on,,1,0,16,,,,,,,,,,,,,,,,15,,50,72
34080,note_on,,1,0,9,,,,,,,,,,,,,,,,6,,67,88
34080,note_on,,1,0,15,,,,,,,,,,,,,,,,13,,50,72
34080,note_on,,0,0,16,,,,,,,,,,,,,,,,15,,74,72
34080,note_on,,0,0,16,,,,,,,,,,,,,,,,15,,79,72
34080,note_on,,0,0,16,,,,,,,,,,,,,,,,15,,57,72
34080,note_on,,1,0,13,,,,,,,,,,,,,,,,11,,79,72
34094,note_on,,14,0,12,,,,,,,,,,,,,,,,10,,81,0
34095,note_on,,1,0,12,,,,,,,,,,,,,,,,10,,83,72
34109,note_on,,14,0,12,,,,,,,,,,,,,,,,10,,83,0
34110,note_on,,1,0,12,,,,,,,,,,,,,,,,10,,81,72
34124,note_on,,14,0,12,,,,,,,,,,,,,,,,10,,81,0
34125,note_on,,1,0,12,,,,,,,,,,,,,,,,10,,83,72
34139,note_on,,14,0,12,,,,,,,,,,,,,,,,10,,83,0
34140,note_on,,1,0,12,,,,,,,,,,,,,,,,10,,81,72
34154,note_on,,14,0,12,,,,,,,,,,,,,,,,10,,81,0
34155,note_on,,1,0,12,,,,,,,,,,,,,,,,10,,83,72
34169,note_on,,14,0,12,,,,,,,,,,,,,,,,10,,83,0
34170,note_on,,1,0,12,,,,,,,,,,,,,,,,10,,81,72
34184,note_on,,14,0,12,,,,,,,,,,,,,,,,10,,81,0
34185,note_on,,1,0,12,,,,,,,,,,,,,,,,10,,83,72
34199,note_on,,119,0,16,,,,,,,,,,,,,,,,15,,79,0
34199,note_on,,119,0,13,,,,,,,,,,,,,,,,11,,79,0
34199,note_on,,14,0,12,,,,,,,,,,,,,,,,10,,83,0
34199,note_on,,119,0,9,,,,,,,,,,,,,,,,6,,67,0
34200,note_on,,1,0,12,,,,,,,,,,,,,,,,10,,81,72
34200,note_on,,1,0,16,,,,,,,,,,,,,,,,15,,78,72
34200,note_on,,1,0,13,,,,,,,,,,,,,,,,11,,78,72
34200,note_on,,1,0,9,,,,,,,,,,,,,,,,6,,66,88
34214,note_on,,14,0,12,,,,,,,,,,,,,,,,10,,81,0
34215,note_on,,1,0,12,,,,,,,,,,,,,,,,10,,83,72
34229,note_on,,14,0,12,,,,,,,,,,,,,,,,10,,83,0
34230,note_on,,1,0,12,,,,,,,,,,,,,,,,10,,79,72
34244,note_on,,14,0,12,,,,,,,,,,,,,,,,10,,79,0
34245,note_on,,1,0,12,,,,,,,,,,,,,,,,10,,81,72
34259,note_on,,0,0,16,,,,,,,,,,,,,,,,15,,57,0
34259,note_on,,179,0,11,,,,,,,,,,,,,,,,8,,50,0
34259,note_on,,14,0,12,,,,,,,,,,,,,,,,10,,81,0
34259,note_on,,59,0,16,,,,,,,,,,,,,,,,15,,50,0
34259,note_on,,0,0,16,,,,,,,,,,,,,,,,15,,74,0
34259,note_on,,0,0,16,,,,,,,,,,,,,,,,15,,69,0
34259,note_on,,179,0,6,,,,,,,,,,,,,,,,1,,69,0
34259,note_on,,179,0,14,,,,,,,,,,,,,,,,12,,74,0
34259,note_on,,179,0,10,,,,,,,,,,,,,,,,7,,62,0
34259,note_on,,179,0,15,,,,,,,,,,,,,,,,13,,50,0
34259,note_on,,179,0,8,,,,,,,,,,,,,,,,5,,69,0
34259,note_on,,179,0,5,,,,,,,,,,,,,,,,0,,69,0
34259,note_on,,179,0,7,,,,,,,,,,,,,,,,2,,50,0
34260,note_on,,1,0,12,,,,,,,,,,,,,,,,10,,81,72
34260,note_on,,1,0,10,,,,,,,,,,,,,,,,7,,62,88
34260,note_on,,1,0,15,,,,,,,,,,,,,,,,13,,50,72
34260,note_on,,1,0,5,,,,,,,,,,,,,,,,0,,69,72
34260,note_on,,1,0,14,,,,,,,,,,,,,,,,12,,74,72
34260,note_on,,1,0,7,,,,,,,,,,,,,,,,2,,50,72
34260,note_on,,0,0,16,,,,,,,,,,,,,,,,15,,74,72
34260,note_on,,1,0,8,,,,,,,,,,,,,,,,5,,69,88
34260,note_on,,0,0,16,,,,,,,,,,,,,,,,15,,57,72
34260,note_on,,1,0,16,,,,,,,,,,,,,,,,15,,50,72
34260,note_on,,1,0,11,,,,,,,,,,,,,,,,8,,50,88
34260,note_on,,1,0,6,,,,,,,,,,,,,,,,1,,69,72
34260,note_on,,0,0,16,,,,,,,,,,,,,,,,15,,69,72
34319,note_on,,59,0,6,,,,,,,,,,,,,,,,1,,69,0
34319,note_on,,59,0,10,,,,,,,,,,,,,,,,7,,62,0
34319,note_on,,59,0,12,,,,,,,,,,,,,,,,10,,81,0
34319,note_on,,119,0,9,,,,,,,,,,,,,,,,6,,66,0
34319,note_on,,59,0,7,,,,,,,,,,,,,,,,2,,50,0
34319,note_on,,59,0,16,,,,,,,,,,,,,,,,15,,78,0
34319,note_on,,59,0,11,,,,,,,,,,,,,,,,8,,50,0
34319,note_on,,59,0,8,,,,,,,,,,,,,,,,5,,69,0
34319,note_on,,119,0,13,,,,,,,,,,,,,,,,11,,78,0
34319,note_on,,0,0,16,,,,,,,,,,,,,,,,15,,57,0
34319,note_on,,0,0,16,,,,,,,,,,,,,,,,15,,69,0
34319,note_on,,0,0,16,,,,,,,,,,,,,,,,15,,74,0
34319,note_on,,0,0,16,,,,,,,,,,,,,,,,15,,50,0
34319,note_on,,59,0,5,,,,,,,,,,,,,,,,0,,69,0
34319,note_on,,59,0,15,,,,,,,,,,,,,,,,13,,50,0
34319,note_on,,59,0,14,,,,,,,,,,,,,,,,12,,74,0
34320,note_on,,1,0,15,,,,,,,,,,,,,,,,13,,43,72
34320,note_on,,1,0,9,,,,,,,,,,,,,,,,6,,67,88
34320,note_on,,1,0,6,,,,,,,,,,,,,,,,1,,71,72
34320,note_on,,1,0,13,,,,,,,,,,,,,,,,11,,79,72
34320,note_on,,1,0,5,,,,,,,,,,,,,,,,0,,71,72
34320,note_on,,1,0,10,,,,,,,,,,,,,,,,7,,62,88
34320,note_on,,1,0,8,,,,,,,,,,,,,,,,5,,71,88
34320,note_on,,0,0,16,,,,,,,,,,,,,,,,15,,71,72
34320,note_on,,1,0,11,,,,,,,,,,,,,,,,8,,55,88
34320,note_on,,0,0,16,,,,,,,,,,,,,,,,15,,74,72
34320,note_on,,0,0,16,,,,,,,,,,,,,,,,15,,55,72
34320,note_on,,1,0,7,,,,,,,,,,,,,,,,2,,43,72
34320,note_on,,1,0,14,,,,,,,,,,,,,,,,12,,62,72
34320,note_on,,0,0,16,,,,,,,,,,,,,,,,15,,79,72
34320,note_on,,1,0,16,,,,,,,,,,,,,,,,15,,43,72
34320,note_on,,1,0,12,,,,,,,,,,,,,,,,10,,83,72
34349,note_on,,29,0,12,,,,,,,,,,,,,,,,10,,83,0
34350,note_on,,1,0,12,,,,,,,,,,,,,,,,10,,74,72
34379,note_on,,59,0,14,,,,,,,,,,,,,,,,12,,62,0
34379,note_on,,29,0,12,,,,,,,,,,,,,,,,10,,74,0
34379,note_on,,59,0,13,,,,,,,,,,,,,,,,11,,79,0
34380,note_on,,1,0,14,,,,,,,,,,,,,,,,12,,67,72
34380,note_on,,1,0,12,,,,,,,,,,,,,,,,10,,76,72
34380,note_on,,1,0,13,,,,,,,,,,,,,,,,11,,74,72
34409,note_on,,29,0,12,,,,,,,,,,,,,,,,10,,76,0
34410,note_on,,1,0,12,,,,,,,,,,,,,,,,10,,78,72
34439,note_on,,0,0,16,,,,,,,,,,,,,,,,15,,71,0
34439,note_on,,119,0,5,,,,,,,,,,,,,,,,0,,71,0
34439,note_on,,119,0,16,,,,,,,,,,,,,,,,15,,43,0
34439,note_on,,29,0,12,,,,,,,,,,,,,,,,10,,78,0
34439,note_on,,0,0,16,,,,,,,,,,,,,,,,15,,55,0
34439,note_on,,0,0,16,,,,,,,,,,,,,,,,15,,74,0
34439,note_on,,0,0,16,,,,,,,,,,,,,,,,15,,79,0
34439,note_on,,119,0,11,,,,,,,,,,,,,,,,8,,55,0
34439,note_on,,119,0,8,,,,,,,,,,,,,,,,5,,71,0
34439,note_on,,119,0,15,,,,,,,,,,,,,,,,13,,43,0
34439,note_on,,119,0,9,,,,,,,,,,,,,,,,6,,67,0
34439,note_on,,119,0,7,,,,,,,,,,,,,,,,2,,43,0
34439,note_on,,119,0,10,,,,,,,,,,,,,,,,7,,62,0
34439,note_on,,59,0,14,,,,,,,,,,,,,,,,12,,67,0
34439,note_on,,59,0,13,,,,,,,,,,,,,,,,11,,74,0
34439,note_on,,119,0,6,,,,,,,,,,,,,,,,1,,71,0
34440,note_on,,1,0,14,,,,,,,,,,,,,,,,12,,62,72
34440,note_on,,1,0,12,,,,,,,,,,,,,,,,10,,79,72
34440,note_on,,1,0,16,,,,,,,,,,,,,,,,15,,55,72
34440,note_on,,1,0,11,,,,,,,,,,,,,,,,8,,55,88
34440,note_on,,0,0,16,,,,,,,,,,,,,,,,15,,59,72
34440,note_on,,1,0,7,,,,,,,,,,,,,,,,2,,55,72
34440,note_on,,1,0,15,,,,,,,,,,,,,,,,13,,55,72
34440,note_on,,1,0,13,,,,,,,,,,,,,,,,11,,71,72
34469,note_on,,29,0,12,,,,,,,,,,,,,,,,10,,79,0
34470,note_on,,1,0,12,,,,,,,,,,,,,,,,10,,71,72
34499,note_on,,59,0,16,,,,,,,,,,,,,,,,15,,55,0
34499,note_on,,0,0,16,,,,,,,,,,,,,,,,15,,59,0
34499,note_on,,59,0,14,,,,,,,,,,,,,,,,12,,62,0
34499,note_on,,59,0,15,,,,,,,,,,,,,,,,13,,55,0
34499,note_on,,59,0,7,,,,,,,,,,,,,,,,2,,55,0
34499,note_on,,29,0,12,,,,,,,,,,,,,,,,10,,71,0
34499,note_on,,59,0,13,,,,,,,,,,,,,,,,11,,71,0
34499,note_on,,59,0,11,,,,,,,,,,,,,,,,8,,55,0
34500,note_on,,1,0,13,,,,,,,,,,,,,,,,11,,71,72
34500,note_on,,1,0,7,,,,,,,,,,,,,,,,2,,55,72
34500,note_on,,0,0,16,,,,,,,,,,,,,,,,15,,59,72
34500,note_on,,1,0,16,,,,,,,,,,,,,,,,15,,55,72
34500,note_on,,1,0,11,,,,,,,,,,,,,,,,8,,55,88
34500,note_on,,1,0,12,,,,,,,,,,,,,,,,10,,72,72
34500,note_on,,1,0,14,,,,,,,,,,,,,,,,12,,67,72
34500,note_on,,1,0,15,,,,,,,,,,,,,,,,13,,55,72
34529,note_on,,29,0,12,,,,,,,,,,,,,,,,10,,72,0
34530,note_on,,1,0,12,,,,,,,,,,,,,,,,10,,74,72
34559,note_on,,59,0,15,,,,,,,,,,,,,,,,13,,55,0
34559,note_on,,59,0,13,,,,,,,,,,,,,,,,11,,71,0
34559,note_on,,0,0,16,,,,,,,,,,,,,,,,15,,59,0
34559,note_on,,59,0,7,,,,,,,,,,,,,,,,2,,55,0
34559,note_on,,59,0,14,,,,,,,,,,,,,,,,12,,67,0
34559,note_on,,29,0,12,,,,,,,,,,,,,,,,10,,74,0
34559,note_on,,59,0,11,,,,,,,,,,,,,,,,8,,55,0
34559,note_on,,59,0,16,,,,,,,,,,,,,,,,15,,55,0
34560,note_on,,1,0,7,,,,,,,,,,,,,,,,2,,60,72
34560,note_on,,1,0,12,,,,,,,,,,,,,,,,10,,76,72
34560,note_on,,1,0,14,,,,,,,,,,,,,,,,12,,67,72
34560,note_on,,1,0,13,,,,,,,,,,,,,,,,11,,67,72
34560,note_on,,0,0,16,,,,,,,,,,,,,,,,15,,67,72
34560,note_on,,1,0,15,,,,,,,,,,,,,,,,13,,60,72
34560,note_on,,1,0,11,,,,,,,,,,,,,,,,8,,60,88
34560,note_on,,1,0,16,,,,,,,,,,,,,,,,15,,60,72
34560,note_on,,0,0,16,,,,,,,,,,,,,,,,15,,76,72
34560,note_on,,0,0,16,,,,,,,,,,,,,,,,15,,72,72
34560,note_on,,0,0,16,,,,,,,,,,,,,,,,15,,64,72
34589,note_on,,29,0,12,,,,,,,,,,,,,,,,10,,76,0
34589,note_on,,29,0,14,,,,,,,,,,,,,,,,12,,67,0
34590,note_on,,1,0,14,,,,,,,,,,,,,,,,12,,66,72
34590,note_on,,1,0,12,,,,,,,,,,,,,,,,10,,74,72
34619,note_on,,0,0,16,,,,,,,,,,,,,,,,15,,64,0
34619,note_on,,59,0,16,,,,,,,,,,,,,,,,15,,60,0
34619,note_on,,59,0,15,,,,,,,,,,,,,,,,13,,60,0
34619,note_on,,29,0,14,,,,,,,,,,,,,,,,12,,66,0
34619,note_on,,59,0,11,,,,,,,,,,,,,,,,8,,60,0
34619,note_on,,59,0,7,,,,,,,,,,,,,,,,2,,60,0
34619,note_on,,29,0,12,,,,,,,,,,,,,,,,10,,74,0
34620,note_on,,1,0,16,,,,,,,,,,,,,,,,15,,60,72
34620,note_on,,1,0,15,,,,,,,,,,,,,,,,13,,60,72
34620,note_on,,1,0,14,,,,,,,,,,,,,,,,12,,64,72
34620,note_on,,1,0,11,,,,,,,,,,,,,,,,8,,60,88
34620,note_on,,0,0,16,,,,,,,,,,,,,,,,15,,64,72
34620,note_on,,1,0,12,,,,,,,,,,,,,,,,10,,72,72
34620,note_on,,1,0,7,,,,,,,,,,,,,,,,2,,60,72
34649,note_on,,29,0,12,,,,,,,,,,,,,,,,10,,72,0
34649,note_on,,29,0,14,,,,,,,,,,,,,,,,12,,64,0
34650,note_on,,1,0,12,,,,,,,,,,,,,,,,10,,74,72
34650,note_on,,1,0,14,,,,,,,,,,,,,,,,12,,66,72
34679,note_on,,59,0,15,,,,,,,,,,,,,,,,13,,60,0
34679,note_on,,59,0,16,,,,,,,,,,,,,,,,15,,60,0
34679,note_on,,59,0,7,,,,,,,,,,,,,,,,2,,60,0
34679,note_on,,0,0,16,,,,,,,,,,,,,,,,15,,64,0
34679,note_on,,119,0,13,,,,,,,,,,,,,,,,11,,67,0
34679,note_on,,59,0,11,,,,,,,,,,,,,,,,8,,60,0
34679,note_on,,29,0,14,,,,,,,,,,,,,,,,12,,66,0
34679,note_on,,29,0,12,,,,,,,,,,,,,,,,10,,74,0
34680,note_on,,1,0,15,,,,,,,,,,,,,,,,13,,60,72
34680,note_on,,1,0,16,,,,,,,,,,,,,,,,15,,60,72
34680,note_on,,0,0,16,,,,,,,,,,,,,,,,15,,64,72
34680,note_on,,1,0,14,,,,,,,,,,,,,,,,12,,67,72
34680,note_on,,1,0,7,,,,,,,,,,,,,,,,2,,60,72
34680,note_on,,1,0,11,,,,,,,,,,,,,,,,8,,60,88
34680,note_on,,1,0,12,,,,,,,,,,,,,,,,10,,76,72
34709,note_on,,29,0,14,,,,,,,,,,,,,,,,12,,67,0
34709,note_on,,29,0,12,,,,,,,,,,,,,,,,10,,76,0
34710,note_on,,1,0,14,,,,,,,,,,,,,,,,12,,66,72
34710,note_on,,1,0,12,,,,,,,,,,,,,,,,10,,74,72
34739,note_on,,29,0,14,,,,,,,,,,,,,,,,12,,66,0
34739,note_on,,59,0,7,,,,,,,,,,,,,,,,2,,60,0
34739,note_on,,0,0,16,,,,,,,,,,,,,,,,15,,64,0
34739,note_on,,59,0,16,,,,,,,,,,,,,,,,15,,60,0
34739,note_on,,59,0,11,,,,,,,,,,,,,,,,8,,60,0
34739,note_on,,29,0,12,,,,,,,,,,,,,,,,10,,74,0
34739,note_on,,59,0,15,,,,,,,,,,,,,,,,13,,60,0
34740,note_on,,1,0,12,,,,,,,,,,,,,,,,10,,76,72
34740,note_on,,1,0,15,,,,,,,,,,,,,,,,13,,60,72
34740,note_on,,1,0,11,,,,,,,,,,,,,,,,8,,60,88
34740,note_on,,1,0,7,,,,,,,,,,,,,,,,2,,60,72
34740,note_on,,1,0,16,,,,,,,,,,,,,,,,15,,60,72
34740,note_on,,1,0,14,,,,,,,,,,,,,,,,12,,67,72
34740,note_on,,0,0,16,,,,,,,,,,,,,,,,15,,64,72
34769,note_on,,29,0,12,,,,,,,,,,,,,,,,10,,76,0
34769,note_on,,29,0,14,,,,,,,,,,,,,,,,12,,67,0
34770,note_on,,1,0,14,,,,,,,,,,,,,,,,12,,69,72
34770,note_on,,1,0,12,,,,,,,,,,,,,,,,10,,78,72
34799,note_on,,29,0,12,,,,,,,,,,,,,,,,10,,78,0
34799,note_on,,59,0,7,,,,,,,,,,,,,,,,2,,60,0
34799,note_on,,59,0,11,,,,,,,,,,,,,,,,8,,60,0
34799,note_on,,59,0,15,,,,,,,,,,,,,,,,13,,60,0
34799,note_on,,0,0,16,,,,,,,,,,,,,,,,15,,64,0
34799,note_on,,0,0,16,,,,,,,,,,,,,,,,15,,60,0
34799,note_on,,0,0,16,,,,,,,,,,,,,,,,15,,67,0
34799,note_on,,0,0,16,,,,,,,,,,,,,,,,15,,72,0
34799,note_on,,29,0,14,,,,,,,,,,,,,,,,12,,69,0
34799,note_on,,59,0,16,,,,,,,,,,,,,,,,15,,76,0
34800,note_on,,0,0,16,,,,,,,,,,,,,,,,15,,67,72
34800,note_on,,1,0,7,,,,,,,,,,,,,,,,2,,60,72
34800,note_on,,361,0,8,,,,,,,,,,,,,,,,5,,74,88
34800,note_on,,361,0,10,,,,,,,,,,,,,,,,7,,62,88
34800,note_on,,361,0,9,,,,,,,,,,,,,,,,6,,67,88
34800,note_on,,1,0,12,,,,,,,,,,,,,,,,10,,79,72
34800,note_on,,121,0,13,,,,,,,,,,,,,,,,11,,86,72
34800,note_on,,0,0,16,,,,,,,,,,,,,,,,15,,74,72
34800,note_on,,1,0,11,,,,,,,,,,,,,,,,8,,60,88
34800,note_on,,0,0,16,,,,,,,,,,,,,,,,15,,62,72
34800,note_on,,1,0,15,,,,,,,,,,,,,,,,13,,60,72
34800,note_on,,1,0,14,,,,,,,,,,,,,,,,12,,62,72
34800,note_on,,361,0,5,,,,,,,,,,,,,,,,0,,74,72
34800,note_on,,0,0,16,,,,,,,,,,,,,,,,15,,79,72
34800,note_on,,1,0,16,,,,,,,,,,,,,,,,15,,60,72
34800,note_on,,361,0,6,,,,,,,,,,,,,,,,1,,74,72
34859,note_on,,59,0,12,,,,,,,,,,,,,,,,10,,79,0
34859,note_on,,59,0,16,,,,,,,,,,,,,,,,15,,60,0
34859,note_on,,59,0,11,,,,,,,,,,,,,,,,8,,60,0
34859,note_on,,59,0,7,,,,,,,,,,,,,,,,2,,60,0
34859,note_on,,59,0,15,,,,,,,,,,,,,,,,13,,60,0
34860,note_on,,1,0,16,,,,,,,,,,,,,,,,15,,59,72
34860,note_on,,1,0,7,,,,,,,,,,,,,,,,2,,59,72
34860,note_on,,1,0,15,,,,,,,,,,,,,,,,13,,59,72
34860,note_on,,1,0,12,,,,,,,,,,,,,,,,10,,67,72
34860,note_on,,1,0,11,,,,,,,,,,,,,,,,8,,59,88
34919,note_on,,119,0,14,,,,,,,,,,,,,,,,12,,62,0
34919,note_on,,119,0,6,,,,,,,,,,,,,,,,1,,74,0
34919,note_on,,0,0,16,,,,,,,,,,,,,,,,15,,62,0
34919,note_on,,119,0,9,,,,,,,,,,,,,,,,6,,67,0
34919,note_on,,0,0,16,,,,,,,,,,,,,,,,15,,67,0
34919,note_on,,59,0,7,,,,,,,,,,,,,,,,2,,59,0
34919,note_on,,0,0,16,,,,,,,,,,,,,,,,15,,74,0
34919,note_on,,0,0,16,,,,,,,,,,,,,,,,15,,59,0
34919,note_on,,59,0,16,,,,,,,,,,,,,,,,15,,79,0
34919,note_on,,119,0,5,,,,,,,,,,,,,,,,0,,74,0
34919,note_on,,119,0,8,,,,,,,,,,,,,,,,5,,74,0
34919,note_on,,59,0,11,,,,,,,,,,,,,,,,8,,59,0
34919,note_on,,119,0,10,,,,,,,,,,,,,,,,7,,62,0
34919,note_on,,59,0,12,,,,,,,,,,,,,,,,10,,67,0
34919,note_on,,119,0,13,,,,,,,,,,,,,,,,11,,86,0
34919,note_on,,59,0,15,,,,,,,,,,,,,,,,13,,59,0
34920,note_on,,1,0,16,,,,,,,,,,,,,,,,15,,59,72
34920,note_on,,0,0,16,,,,,,,,,,,,,,,,15,,62,72
34920,note_on,,0,0,16,,,,,,,,,,,,,,,,15,,74,72
34920,note_on,,0,0,16,,,,,,,,,,,,,,,,15,,67,72
34920,note_on,,1,0,9,,,,,,,,,,,,,,,,6,,67,88
34920,note_on,,1,0,13,,,,,,,,,,,,,,,,11,,79,72
34920,note_on,,1,0,14,,,,,,,,,,,,,,,,12,,71,72
34920,note_on,,1,0,12,,,,,,,,,,,,,,,,10,,74,72
34920,note_on,,1,0,8,,,,,,,,,,,,,,,,5,,67,88
34920,note_on,,1,0,5,,,,,,,,,,,,,,,,0,,67,72
34920,note_on,,1,0,15,,,,,,,,,,,,,,,,13,,59,72
34920,note_on,,1,0,11,,,,,,,,,,,,,,,,8,,59,88
34920,note_on,,1,0,6,,,,,,,,,,,,,,,,1,,67,72
34920,note_on,,1,0,7,,,,,,,,,,,,,,,,2,,59,72
34920,note_on,,1,0,10,,,,,,,,,,,,,,,,7,,62,88
34979,note_on,,0,0,16,,,,,,,,,,,,,,,,15,,62,0
34979,note_on,,59,0,8,,,,,,,,,,,,,,,,5,,67,0
34979,note_on,,59,0,13,,,,,,,,,,,,,,,,11,,79,0
34979,note_on,,0,0,16,,,,,,,,,,,,,,,,15,,67,0
34979,note_on,,0,0,16,,,,,,,,,,,,,,,,15,,74,0
34979,note_on,,59,0,16,,,,,,,,,,,,,,,,15,,59,0
34979,note_on,,59,0,7,,,,,,,,,,,,,,,,2,,59,0
34979,note_on,,59,0,9,,,,,,,,,,,,,,,,6,,67,0
34979,note_on,,59,0,6,,,,,,,,,,,,,,,,1,,67,0
34979,note_on,,59,0,12,,,,,,,,,,,,,,,,10,,74,0
34979,note_on,,59,0,5,,,,,,,,,,,,,,,,0,,67,0
34979,note_on,,59,0,15,,,,,,,,,,,,,,,,13,,59,0
34979,note_on,,59,0,11,,,,,,,,,,,,,,,,8,,59,0
34979,note_on,,59,0,10,,,,,,,,,,,,,,,,7,,62,0
34979,note_on,,59,0,14,,,,,,,,,,,,,,,,12,,71,0
34980,note_on,,1,0,8,,,,,,,,,,,,,,,,5,,67,88
34980,note_on,,0,0,16,,,,,,,,,,,,,,,,15,,74,72
34980,note_on,,1,0,13,,,,,,,,,,,,,,,,11,,79,72
34980,note_on,,1,0,11,,,,,,,,,,,,,,,,8,,59,88
34980,note_on,,1,0,15,,,,,,,,,,,,,,,,13,,59,72
34980,note_on,,1,0,5,,,,,,,,,,,,,,,,0,,67,72
34980,note_on,,1,0,12,,,,,,,,,,,,,,,,10,,74,72
34980,note_on,,1,0,14,,,,,,,,,,,,,,,,12,,71,72
34980,note_on,,1,0,9,,,,,,,,,,,,,,,,6,,67,88
34980,note_on,,1,0,6,,,,,,,,,,,,,,,,1,,67,72
34980,note_on,,1,0,10,,,,,,,,,,,,,,,,7,,62,88
34980,note_on,,1,0,16,,,,,,,,,,,,,,,,15,,59,72
34980,note_on,,0,0,16,,,,,,,,,,,,,,,,15,,67,72
34980,note_on,,0,0,16,,,,,,,,,,,,,,,,15,,62,72
34980,note_on,,1,0,7,,,,,,,,,,,,,,,,2,,59,72
35039,note_on,,59,0,7,,,,,,,,,,,,,,,,2,,59,0
35039,note_on,,0,0,16,,,,,,,,,,,,,,,,15,,62,0
35039,note_on,,59,0,11,,,,,,,,,,,,,,,,8,,59,0
35039,note_on,,0,0,16,,,,,,,,,,,,,,,,15,,67,0
35039,note_on,,59,0,14,,,,,,,,,,,,,,,,12,,71,0
35039,note_on,,59,0,13,,,,,,,,,,,,,,,,11,,79,0
35039,note_on,,59,0,9,,,,,,,,,,,,,,,,6,,67,0
35039,note_on,,59,0,12,,,,,,,,,,,,,,,,10,,74,0
35039,note_on,,59,0,6,,,,,,,,,,,,,,,,1,,67,0
35039,note_on,,59,0,5,,,,,,,,,,,,,,,,0,,67,0
35039,note_on,,59,0,16,,,,,,,,,,,,,,,,15,,59,0
35039,note_on,,59,0,8,,,,,,,,,,,,,,,,5,,67,0
35039,note_on,,0,0,16,,,,,,,,,,,,,,,,15,,74,0
35039,note_on,,59,0,15,,,,,,,,,,,,,,,,13,,59,0
35039,note_on,,59,0,10,,,,,,,,,,,,,,,,7,,62,0
35040,note_on,,1,0,5,,,,,,,,,,,,,,,,0,,72,72
35040,note_on,,1,0,9,,,,,,,,,,,,,,,,6,,67,88
35040,note_on,,1,0,13,,,,,,,,,,,,,,,,11,,79,72
35040,note_on,,0,0,16,,,,,,,,,,,,,,,,15,,64,72
35040,note_on,,0,0,16,,,,,,,,,,,,,,,,15,,67,72
35040,note_on,,0,0,16,,,,,,,,,,,,,,,,15,,72,72
35040,note_on,,1,0,15,,,,,,,,,,,,,,,,13,,57,72
35040,note_on,,1,0,11,,,,,,,,,,,,,,,,8,,57,88
35040,note_on,,1,0,6,,,,,,,,,,,,,,,,1,,72,72
35040,note_on,,1,0,12,,,,,,,,,,,,,,,,10,,84,72
35040,note_on,,1,0,10,,,,,,,,,,,,,,,,7,,64,88
35040,note_on,,1,0,16,,,,,,,,,,,,,,,,15,,57,72
35040,note_on,,1,0,7,,,,,,,,,,,,,,,,2,,57,72
35040,note_on,,1,0,14,,,,,,,,,,,,,,,,12,,64,72
35040,note_on,,1,0,8,,,,,,,,,,,,,,,,5,,72,88
35099,note_on,,59,0,12,,,,,,,,,,,,,,,,10,,84,0
35099,note_on,,59,0,6,,,,,,,,,,,,,,,,1,,72,0
35099,note_on,,0,0,16,,,,,,,,,,,,,,,,15,,64,0
35099,note_on,,0,0,16,,,,,,,,,,,,,,,,15,,67,0
35099,note_on,,0,0,16,,,,,,,,,,,,,,,,15,,72,0
35099,note_on,,59,0,16,,,,,,,,,,,,,,,,15,,57,0
35099,note_on,,59,0,11,,,,,,,,,,,,,,,,8,,57,0
35099,note_on,,59,0,15,,,,,,,,,,,,,,,,13,,57,0
35099,note_on,,59,0,9,,,,,,,,,,,,,,,,6,,67,0
35099,note_on,,59,0,5,,,,,,,,,,,,,,,,0,,72,0
35099,note_on,,59,0,13,,,,,,,,,,,,,,,,11,,79,0
35099,note_on,,59,0,14,,,,,,,,,,,,,,,,12,,64,0
35099,note_on,,59,0,10,,,,,,,,,,,,,,,,7,,64,0
35099,note_on,,59,0,8,,,,,,,,,,,,,,,,5,,72,0
35099,note_on,,59,0,7,,,,,,,,,,,,,,,,2,,57,0
35100,note_on,,1,0,7,,,,,,,,,,,,,,,,2,,57,72
35100,note_on,,0,0,16,,,,,,,,,,,,,,,,15,,72,72
35100,note_on,,1,0,11,,,,,,,,,,,,,,,,8,,57,88
35100,note_on,,1,0,12,,,,,,,,,,,,,,,,10,,84,72
35100,note_on,,0,0,16,,,,,,,,,,,,,,,,15,,67,72
35100,note_on,,1,0,5,,,,,,,,,,,,,,,,0,,72,72
35100,note_on,,1,0,16,,,,,,,,,,,,,,,,15,,64,72
35100,note_on,,1,0,15,,,,,,,,,,,,,,,,13,,57,72
35100,note_on,,1,0,13,,,,,,,,,,,,,,,,11,,79,72
35100,note_on,,1,0,9,,,,,,,,,,,,,,,,6,,67,88
35100,note_on,,1,0,10,,,,,,,,,,,,,,,,7,,64,88
35100,note_on,,1,0,14,,,,,,,,,,,,,,,,12,,69,72
35100,note_on,,1,0,8,,,,,,,,,,,,,,,,5,,72,88
35100,note_on,,1,0,6,,,,,,,,,,,,,,,,1,,72,72
35100,note_on,,0,0,16,,,,,,,,,,,,,,,,15,,57,72
35159,note_on,,59,0,16,,,,,,,,,,,,,,,,15,,64,0
35159,note_on,,0,0,16,,,,,,,,,,,,,,,,15,,72,0
35159,note_on,,59,0,12,,,,,,,,,,,,,,,,10,,84,0
35159,note_on,,0,0,16,,,,,,,,,,,,,,,,15,,57,0
35159,note_on,,0,0,16,,,,,,,,,,,,,,,,15,,67,0
35159,note_on,,59,0,13,,,,,,,,,,,,,,,,11,,79,0
35159,note_on,,59,0,15,,,,,,,,,,,,,,,,13,,57,0
35159,note_on,,59,0,10,,,,,,,,,,,,,,,,7,,64,0
35159,note_on,,59,0,8,,,,,,,,,,,,,,,,5,,72,0
35159,note_on,,59,0,6,,,,,,,,,,,,,,,,1,,72,0
35159,note_on,,59,0,5,,,,,,,,,,,,,,,,0,,72,0
35159,note_on,,59,0,14,,,,,,,,,,,,,,,,12,,69,0
35159,note_on,,59,0,7,,,,,,,,,,,,,,,,2,,57,0
35159,note_on,,59,0,9,,,,,,,,,,,,,,,,6,,67,0
35159,note_on,,59,0,11,,,,,,,,,,,,,,,,8,,57,0
35160,note_on,,1,0,8,,,,,,,,,,,,,,,,5,,72,88
35160,note_on,,1,0,6,,,,,,,,,,,,,,,,1,,72,72
35160,note_on,,1,0,13,,,,,,,,,,,,,,,,11,,78,72
35160,note_on,,1,0,10,,,,,,,,,,,,,,,,7,,62,88
35160,note_on,,1,0,9,,,,,,,,,,,,,,,,6,,66,88
35160,note_on,,1,0,12,,,,,,,,,,,,,,,,10,,84,72
35160,note_on,,1,0,14,,,,,,,,,,,,,,,,12,,69,72
35160,note_on,,1,0,15,,,,,,,,,,,,,,,,13,,50,72
35160,note_on,,0,0,16,,,,,,,,,,,,,,,,15,,72,72
35160,note_on,,0,0,16,,,,,,,,,,,,,,,,15,,57,72
35160,note_on,,1,0,5,,,,,,,,,,,,,,,,0,,72,72
35160,note_on,,1,0,7,,,,,,,,,,,,,,,,2,,50,72
35160,note_on,,0,0,16,,,,,,,,,,,,,,,,15,,62,72
35160,note_on,,1,0,16,,,,,,,,,,,,,,,,15,,50,72
35160,note_on,,1,0,11,,,,,,,,,,,,,,,,8,,50,88
35160,note_on,,0,0,16,,,,,,,,,,,,,,,,15,,66,72
35219,note_on,,0,0,16,,,,,,,,,,,,,,,,15,,62,0
35219,note_on,,59,0,9,,,,,,,,,,,,,,,,6,,66,0
35219,note_on,,59,0,6,,,,,,,,,,,,,,,,1,,72,0
35219,note_on,,0,0,16,,,,,,,,,,,,,,,,15,,66,0
35219,note_on,,0,0,16,,,,,,,,,,,,,,,,15,,72,0
35219,note_on,,59,0,16,,,,,,,,,,,,,,,,15,,50,0
35219,note_on,,59,0,10,,,,,,,,,,,,,,,,7,,62,0
35219,note_on,,59,0,5,,,,,,,,,,,,,,,,0,,72,0
35219,note_on,,59,0,14,,,,,,,,,,,,,,,,12,,69,0
35219,note_on,,59,0,11,,,,,,,,,,,,,,,,8,,50,0
35219,note_on,,59,0,12,,,,,,,,,,,,,,,,10,,84,0
35219,note_on,,0,0,16,,,,,,,,,,,,,,,,15,,57,0
35219,note_on,,59,0,8,,,,,,,,,,,,,,,,5,,72,0
35219,note_on,,59,0,13,,,,,,,,,,,,,,,,11,,78,0
35219,note_on,,59,0,7,,,,,,,,,,,,,,,,2,,50,0
35219,note_on,,59,0,15,,,,,,,,,,,,,,,,13,,50,0
35220,note_on,,1,0,13,,,,,,,,,,,,,,,,11,,78,72
35220,note_on,,1,0,9,,,,,,,,,,,,,,,,6,,66,88
35220,note_on,,1,0,5,,,,,,,,,,,,,,,,0,,72,72
35220,note_on,,1,0,10,,,,,,,,,,,,,,,,7,,62,88
35220,note_on,,1,0,8,,,,,,,,,,,,,,,,5,,72,88
35220,note_on,,1,0,6,,,,,,,,,,,,,,,,1,,72,72
35220,note_on,,1,0,7,,,,,,,,,,,,,,,,2,,50,72
35220,note_on,,1,0,14,,,,,,,,,,,,,,,,12,,62,72
35220,note_on,,1,0,16,,,,,,,,,,,,,,,,15,,50,72
35220,note_on,,0,0,16,,,,,,,,,,,,,,,,15,,72,72
35220,note_on,,0,0,16,,,,,,,,,,,,,,,,15,,66,72
35220,note_on,,0,0,16,,,,,,,,,,,,,,,,15,,62,72
35220,note_on,,0,0,16,,,,,,,,,,,,,,,,15,,57,72
35220,note_on,,1,0,11,,,,,,,,,,,,,,,,8,,50,88
35220,note_on,,1,0,15,,,,,,,,,,,,,,,,13,,50,72
35220,note_on,,1,0,12,,,,,,,,,,,,,,,,10,,84,72
35279,note_on,,59,0,15,,,,,,,,,,,,,,,,13,,50,0
35279,note_on,,59,0,7,,,,,,,,,,,,,,,,2,,50,0
35279,note_on,,59,0,9,,,,,,,,,,,,,,,,6,,66,0
35279,note_on,,59,0,8,,,,,,,,,,,,,,,,5,,72,0
35279,note_on,,59,0,6,,,,,,,,,,,,,,,,1,,72,0
35279,note_on,,59,0,10,,,,,,,,,,,,,,,,7,,62,0
35279,note_on,,59,0,14,,,,,,,,,,,,,,,,12,,62,0
35279,note_on,,59,0,13,,,,,,,,,,,,,,,,11,,78,0
35279,note_on,,59,0,12,,,,,,,,,,,,,,,,10,,84,0
35279,note_on,,59,0,11,,,,,,,,,,,,,,,,8,,50,0
35279,note_on,,0,0,16,,,,,,,,,,,,,,,,15,,66,0
35279,note_on,,59,0,16,,,,,,,,,,,,,,,,15,,50,0
35279,note_on,,0,0,16,,,,,,,,,,,,,,,,15,,72,0
35279,note_on,,59,0,5,,,,,,,,,,,,,,,,0,,72,0
35279,note_on,,0,0,16,,,,,,,,,,,,,,,,15,,57,0
35279,note_on,,0,0,16,,,,,,,,,,,,,,,,15,,62,0
35280,note_on,,1,0,14,,,,,,,,,,,,,,,,12,,62,72
35280,note_on,,1,0,15,,,,,,,,,,,,,,,,13,,55,72
35280,note_on,,1,0,12,,,,,,,,,,,,,,,,10,,83,72
35280,note_on,,1,0,5,,,,,,,,,,,,,,,,0,,71,72
35280,note_on,,1,0,6,,,,,,,,,,,,,,,,1,,71,72
35280,note_on,,1,0,10,,,,,,,,,,,,,,,,7,,62,88
35280,note_on,,1,0,11,,,,,,,,,,,,,,,,8,,55,88
35280,note_on,,1,0,16,,,,,,,,,,,,,,,,15,,55,72
35280,note_on,,0,0,16,,,,,,,,,,,,,,,,15,,71,72
35280,note_on,,0,0,16,,,,,,,,,,,,,,,,15,,67,72
35280,note_on,,1,0,7,,,,,,,,,,,,,,,,2,,55,72
35280,note_on,,0,0,16,,,,,,,,,,,,,,,,15,,62,72
35280,note_on,,1,0,9,,,,,,,,,,,,,,,,6,,67,88
35280,note_on,,1,0,13,,,,,,,,,,,,,,,,11,,79,72
35280,note_on,,1,0,8,,,,,,,,,,,,,,,,5,,71,88
35309,note_on,,29,0,5,,,,,,,,,,,,,,,,0,,71,0
35309,note_on,,29,0,9,,,,,,,,,,,,,,,,6,,67,0
35309,note_on,,29,0,8,,,,,,,,,,,,,,,,5,,71,0
35309,note_on,,29,0,12,,,,,,,,,,,,,,,,10,,83,0
35309,note_on,,29,0,6,,,,,,,,,,,,,,,,1,,71,0
35309,note_on,,29,0,13,,,,,,,,,,,,,,,,11,,79,0
35310,note_on,,1,0,13,,,,,,,,,,,,,,,,11,,78,72
35310,note_on,,1,0,8,,,,,,,,,,,,,,,,5,,69,88
35310,note_on,,1,0,12,,,,,,,,,,,,,,,,10,,81,72
35310,note_on,,1,0,6,,,,,,,,,,,,,,,,1,,69,72
35310,note_on,,1,0,5,,,,,,,,,,,,,,,,0,,69,72
35310,note_on,,1,0,9,,,,,,,,,,,,,,,,6,,66,88
35339,note_on,,29,0,13,,,,,,,,,,,,,,,,11,,78,0
35339,note_on,,29,0,8,,,,,,,,,,,,,,,,5,,69,0
35339,note_on,,29,0,9,,,,,,,,,,,,,,,,6,,66,0
35339,note_on,,29,0,5,,,,,,,,,,,,,,,,0,,69,0
35339,note_on,,29,0,12,,,,,,,,,,,,,,,,10,,81,0
35339,note_on,,29,0,6,,,,,,,,,,,,,,,,1,,69,0
35340,note_on,,1,0,12,,,,,,,,,,,,,,,,10,,83,72
35340,note_on,,1,0,9,,,,,,,,,,,,,,,,6,,67,88
35340,note_on,,1,0,5,,,,,,,,,,,,,,,,0,,71,72
35340,note_on,,1,0,8,,,,,,,,,,,,,,,,5,,71,88
35340,note_on,,1,0,6,,,,,,,,,,,,,,,,1,,71,72
35340,note_on,,1,0,13,,,,,,,,,,,,,,,,11,,79,72
35369,note_on,,29,0,9,,,,,,,,,,,,,,,,6,,67,0
35369,note_on,,29,0,12,,,,,,,,,,,,,,,,10,,83,0
35369,note_on,,29,0,6,,,,,,,,,,,,,,,,1,,71,0
35369,note_on,,29,0,8,,,,,,,,,,,,,,,,5,,71,0
35369,note_on,,29,0,5,,,,,,,,,,,,,,,,0,,71,0
35369,note_on,,29,0,13,,,,,,,,,,,,,,,,11,,79,0
35370,note_on,,1,0,13,,,,,,,,,,,,,,,,11,,81,72
35370,note_on,,1,0,12,,,,,,,,,,,,,,,,10,,84,72
35370,note_on,,1,0,8,,,,,,,,,,,,,,,,5,,72,88
35370,note_on,,1,0,9,,,,,,,,,,,,,,,,6,,69,88
35370,note_on,,1,0,5,,,,,,,,,,,,,,,,0,,72,72
35370,note_on,,1,0,6,,,,,,,,,,,,,,,,1,,72,72
35399,note_on,,119,0,16,,,,,,,,,,,,,,,,15,,55,0
35399,note_on,,119,0,7,,,,,,,,,,,,,,,,2,,55,0
35399,note_on,,29,0,12,,,,,,,,,,,,,,,,10,,84,0
35399,note_on,,119,0,14,,,,,,,,,,,,,,,,12,,62,0
35399,note_on,,0,0,16,,,,,,,,,,,,,,,,15,,62,0
35399,note_on,,29,0,9,,,,,,,,,,,,,,,,6,,69,0
35399,note_on,,0,0,16,,,,,,,,,,,,,,,,15,,71,0
35399,note_on,,0,0,16,,,,,,,,,,,,,,,,15,,67,0
35399,note_on,,119,0,11,,,,,,,,,,,,,,,,8,,55,0
35399,note_on,,29,0,13,,,,,,,,,,,,,,,,11,,81,0
35399,note_on,,119,0,10,,,,,,,,,,,,,,,,7,,62,0
35399,note_on,,29,0,5,,,,,,,,,,,,,,,,0,,72,0
35399,note_on,,119,0,15,,,,,,,,,,,,,,,,13,,55,0
35399,note_on,,29,0,6,,,,,,,,,,,,,,,,1,,72,0
35399,note_on,,29,0,8,,,,,,,,,,,,,,,,5,,72,0
35400,note_on,,1,0,9,,,,,,,,,,,,,,,,6,,67,88
35400,note_on,,1,0,11,,,,,,,,,,,,,,,,8,,55,88
35400,note_on,,1,0,6,,,,,,,,,,,,,,,,1,,71,72
35400,note_on,,1,0,8,,,,,,,,,,,,,,,,5,,71,88
35400,note_on,,1,0,10,,,,,,,,,,,,,,,,7,,62,88
35400,note_on,,1,0,16,,,,,,,,,,,,,,,,15,,55,72
35400,note_on,,1,0,7,,,,,,,,,,,,,,,,2,,55,72
35400,note_on,,0,0,16,,,,,,,,,,,,,,,,15,,62,72
35400,note_on,,0,0,16,,,,,,,,,,,,,,,,15,,71,72
35400,note_on,,0,0,16,,,,,,,,,,,,,,,,15,,79,72
35400,note_on,,1,0,14,,,,,,,,,,,,,,,,12,,62,72
35400,note_on,,1,0,13,,,,,,,,,,,,,,,,11,,79,72
35400,note_on,,1,0,15,,,,,,,,,,,,,,,,13,,55,72
35400,note_on,,1,0,5,,,,,,,,,,,,,,,,0,,71,72
35400,note_on,,1,0,12,,,,,,,,,,,,,,,,10,,83,72
35400,note_on,,0,0,16,,,,,,,,,,,,,,,,15,,74,72
35429,note_on,,29,0,12,,,,,,,,,,,,,,,,10,,83,0
35429,note_on,,29,0,6,,,,,,,,,,,,,,,,1,,71,0
35429,note_on,,29,0,9,,,,,,,,,,,,,,,,6,,67,0
35429,note_on,,29,0,13,,,,,,,,,,,,,,,,11,,79,0
35429,note_on,,29,0,5,,,,,,,,,,,,,,,,0,,71,0
35429,note_on,,29,0,8,,,,,,,,,,,,,,,,5,,71,0
35430,note_on,,1,0,13,,,,,,,,,,,,,,,,11,,81,72
35430,note_on,,1,0,8,,,,,,,,,,,,,,,,5,,72,88
35430,note_on,,1,0,5,,,,,,,,,,,,,,,,0,,72,72
35430,note_on,,1,0,9,,,,,,,,,,,,,,,,6,,69,88
35430,note_on,,1,0,6,,,,,,,,,,,,,,,,1,,72,72
35430,note_on,,1,0,12,,,,,,,,,,,,,,,,10,,84,72
35459,note_on,,59,0,14,,,,,,,,,,,,,,,,12,,62,0
35459,note_on,,29,0,6,,,,,,,,,,,,,,,,1,,72,0
35459,note_on,,0,0,16,,,,,,,,,,,,,,,,15,,62,0
35459,note_on,,29,0,8,,,,,,,,,,,,,,,,5,,72,0
35459,note_on,,0,0,16,,,,,,,,,,,,,,,,15,,71,0
35459,note_on,,0,0,16,,,,,,,,,,,,,,,,15,,74,0
35459,note_on,,0,0,16,,,,,,,,,,,,,,,,15,,79,0
35459,note_on,,59,0,15,,,,,,,,,,,,,,,,13,,55,0
35459,note_on,,29,0,5,,,,,,,,,,,,,,,,0,,72,0
35459,note_on,,59,0,10,,,,,,,,,,,,,,,,7,,62,0
35459,note_on,,59,0,11,,,,,,,,,,,,,,,,8,,55,0
35459,note_on,,59,0,16,,,,,,,,,,,,,,,,15,,55,0
35459,note_on,,29,0,9,,,,,,,,,,,,,,,,6,,69,0
35459,note_on,,29,0,13,,,,,,,,,,,,,,,,11,,81,0
35459,note_on,,29,0,12,,,,,,,,,,,,,,,,10,,84,0
35459,note_on,,59,0,7,,,,,,,,,,,,,,,,2,,55,0
35460,note_on,,0,0,16,,,,,,,,,,,,,,,,15,,74,72
35460,note_on,,0,0,16,,,,,,,,,,,,,,,,15,,71,72
35460,note_on,,1,0,5,,,,,,,,,,,,,,,,0,,69,72
35460,note_on,,1,0,11,,,,,,,,,,,,,,,,8,,55,88
35460,note_on,,0,0,16,,,,,,,,,,,,,,,,15,,79,72
35460,note_on,,1,0,12,,,,,,,,,,,,,,,,10,,81,72
35460,note_on,,1,0,8,,,,,,,,,,,,,,,,5,,69,88
35460,note_on,,1,0,9,,,,,,,,,,,,,,,,6,,66,88
35460,note_on,,1,0,14,,,,,,,,,,,,,,,,12,,62,72
35460,note_on,,1,0,13,,,,,,,,,,,,,,,,11,,78,72
35460,note_on,,1,0,6,,,,,,,,,,,,,,,,1,,69,72
35460,note_on,,1,0,7,,,,,,,,,,,,,,,,2,,55,72
35460,note_on,,1,0,15,,,,,,,,,,,,,,,,13,,55,72
35460,note_on,,1,0,10,,,,,,,,,,,,,,,,7,,62,88
35460,note_on,,0,0,16,,,,,,,,,,,,,,,,15,,62,72
35460,note_on,,1,0,16,,,,,,,,,,,,,,,,15,,55,72
35489,note_on,,29,0,13,,,,,,,,,,,,,,,,11,,78,0
35489,note_on,,29,0,9,,,,,,,,,,,,,,,,6,,66,0
35489,note_on,,29,0,8,,,,,,,,,,,,,,,,5,,69,0
35489,note_on,,29,0,5,,,,,,,,,,,,,,,,0,,69,0
35489,note_on,,29,0,6,,,,,,,,,,,,,,,,1,,69,0
35489,note_on,,29,0,12,,,,,,,,,,,,,,,,10,,81,0
35490,note_on,,1,0,12,,,,,,,,,,,,,,,,10,,83,72
35490,note_on,,1,0,5,,,,,,,,,,,,,,,,0,,71,72
35490,note_on,,1,0,8,,,,,,,,,,,,,,,,5,,71,88
35490,note_on,,1,0,9,,,,,,,,,,,,,,,,6,,67,88
35490,note_on,,1,0,6,,,,,,,,,,,,,,,,1,,71,72
35490,note_on,,1,0,13,,,,,,,,,,,,,,,,11,,79,72
35519,note_on,,29,0,12,,,,,,,,,,,,,,,,10,,83,0
35519,note_on,,59,0,7,,,,,,,,,,,,,,,,2,,55,0
35519,note_on,,29,0,5,,,,,,,,,,,,,,,,0,,71,0
35519,note_on,,29,0,8,,,,,,,,,,,,,,,,5,,71,0
35519,note_on,,59,0,10,,,,,,,,,,,,,,,,7,,62,0
35519,note_on,,29,0,6,,,,,,,,,,,,,,,,1,,71,0
35519,note_on,,59,0,11,,,,,,,,,,,,,,,,8,,55,0
35519,note_on,,29,0,9,,,,,,,,,,,,,,,,6,,67,0
35519,note_on,,59,0,14,,,,,,,,,,,,,,,,12,,62,0
35519,note_on,,0,0,16,,,,,,,,,,,,,,,,15,,62,0
35519,note_on,,0,0,16,,,,,,,,,,,,,,,,15,,71,0
35519,note_on,,59,0,16,,,,,,,,,,,,,,,,15,,55,0
35519,note_on,,0,0,16,,,,,,,,,,,,,,,,15,,79,0
35519,note_on,,0,0,16,,,,,,,,,,,,,,,,15,,74,0
35519,note_on,,29,0,13,,,,,,,,,,,,,,,,11,,79,0
35519,note_on,,59,0,15,,,,,,,,,,,,,,,,13,,55,0
35520,note_on,,1,0,10,,,,,,,,,,,,,,,,7,,64,88
35520,note_on,,1,0,11,,,,,,,,,,,,,,,,8,,60,88
35520,note_on,,1,0,12,,,,,,,,,,,,,,,,10,,79,72
35520,note_on,,1,0,16,,,,,,,,,,,,,,,,15,,60,72
35520,note_on,,1,0,8,,,,,,,,,,,,,,,,5,,67,88
35520,note_on,,1,0,15,,,,,,,,,,,,,,,,13,,60,72
35520,note_on,,1,0,6,,,,,,,,,,,,,,,,1,,67,72
35520,note_on,,1,0,13,,,,,,,,,,,,,,,,11,,76,72
35520,note_on,,1,0,5,,,,,,,,,,,,,,,,0,,67,72
35520,note_on,,0,0,16,,,,,,,,,,,,,,,,15,,76,72
35520,note_on,,1,0,7,,,,,,,,,,,,,,,,2,,60,72
35520,note_on,,0,0,16,,,,,,,,,,,,,,,,15,,67,72
35520,note_on,,0,0,16,,,,,,,,,,,,,,,,15,,64,72
35520,note_on,,1,0,9,,,,,,,,,,,,,,,,6,,64,88
35520,note_on,,0,0,16,,,,,,,,,,,,,,,,15,,72,72
35520,note_on,,1,0,14,,,,,,,,,,,,,,,,12,,64,72
35549,note_on,,29,0,8,,,,,,,,,,,,,,,,5,,67,0
35549,note_on,,29,0,6,,,,,,,,,,,,,,,,1,,67,0
35549,note_on,,29,0,13,,,,,,,,,,,,,,,,11,,76,0
35549,note_on,,29,0,12,,,,,,,,,,,,,,,,10,,79,0
35549,note_on,,29,0,5,,,,,,,,,,,,,,,,0,,67,0
35549,note_on,,29,0,9,,,,,,,,,,,,,,,,6,,64,0
35550,note_on,,1,0,8,,,,,,,,,,,,,,,,5,,66,88
35550,note_on,,1,0,12,,,,,,,,,,,,,,,,10,,78,72
35550,note_on,,1,0,6,,,,,,,,,,,,,,,,1,,66,72
35550,note_on,,1,0,5,,,,,,,,,,,,,,,,0,,66,72
35550,note_on,,1,0,9,,,,,,,,,,,,,,,,6,,62,88
35550,note_on,,1,0,13,,,,,,,,,,,,,,,,11,,74,72
35579,note_on,,29,0,12,,,,,,,,,,,,,,,,10,,78,0
35579,note_on,,29,0,6,,,,,,,,,,,,,,,,1,,66,0
35579,note_on,,29,0,9,,,,,,,,,,,,,,,,6,,62,0
35579,note_on,,29,0,8,,,,,,,,,,,,,,,,5,,66,0
35579,note_on,,29,0,5,,,,,,,,,,,,,,,,0,,66,0
35579,note_on,,29,0,13,,,,,,,,,,,,,,,,11,,74,0
35580,note_on,,1,0,8,,,,,,,,,,,,,,,,5,,67,88
35580,note_on,,1,0,5,,,,,,,,,,,,,,,,0,,67,72
35580,note_on,,1,0,6,,,,,,,,,,,,,,,,1,,67,72
35580,note_on,,1,0,9,,,,,,,,,,,,,,,,6,,64,88
35580,note_on,,1,0,12,,,,,,,,,,,,,,,,10,,79,72
35580,note_on,,1,0,13,,,,,,,,,,,,,,,,11,,76,72
35609,note_on,,29,0,5,,,,,,,,,,,,,,,,0,,67,0
35609,note_on,,29,0,6,,,,,,,,,,,,,,,,1,,67,0
35609,note_on,,29,0,8,,,,,,,,,,,,,,,,5,,67,0
35609,note_on,,29,0,9,,,,,,,,,,,,,,,,6,,64,0
35609,note_on,,29,0,13,,,,,,,,,,,,,,,,11,,76,0
35609,note_on,,29,0,12,,,,,,,,,,,,,,,,10,,79,0
35610,note_on,,1,0,12,,,,,,,,,,,,,,,,10,,81,72
35610,note_on,,1,0,9,,,,,,,,,,,,,,,,6,,66,88
35610,note_on,,1,0,8,,,,,,,,,,,,,,,,5,,69,88
35610,note_on,,1,0,6,,,,,,,,,,,,,,,,1,,69,72
35610,note_on,,1,0,5,,,,,,,,,,,,,,,,0,,69,72
35610,note_on,,1,0,13,,,,,,,,,,,,,,,,11,,78,72
35639,note_on,,0,0,16,,,,,,,,,,,,,,,,15,,72,0
35639,note_on,,0,0,16,,,,,,,,,,,,,,,,15,,67,0
35639,note_on,,0,0,16,,,,,,,,,,,,,,,,15,,64,0
35639,note_on,,29,0,9,,,,,,,,,,,,,,,,6,,66,0
35639,note_on,,119,0,10,,,,,,,,,,,,,,,,7,,64,0
35639,note_on,,29,0,6,,,,,,,,,,,,,,,,1,,69,0
35639,note_on,,29,0,12,,,,,,,,,,,,,,,,10,,81,0
35639,note_on,,119,0,16,,,,,,,,,,,,,,,,15,,60,0
35639,note_on,,119,0,15,,,,,,,,,,,,,,,,13,,60,0
35639,note_on,,119,0,11,,,,,,,,,,,,,,,,8,,60,0
35639,note_on,,29,0,13,,,,,,,,,,,,,,,,11,,78,0
35639,note_on,,29,0,8,,,,,,,,,,,,,,,,5,,69,0
35639,note_on,,119,0,14,,,,,,,,,,,,,,,,12,,64,0
35639,note_on,,119,0,7,,,,,,,,,,,,,,,,2,,60,0
35639,note_on,,0,0,16,,,,,,,,,,,,,,,,15,,76,0
35639,note_on,,29,0,5,,,,,,,,,,,,,,,,0,,69,0
35640,note_on,,1,0,8,,,,,,,,,,,,,,,,5,,67,88
35640,note_on,,1,0,6,,,,,,,,,,,,,,,,1,,67,72
35640,note_on,,1,0,14,,,,,,,,,,,,,,,,12,,72,72
35640,note_on,,1,0,5,,,,,,,,,,,,,,,,0,,67,72
35640,note_on,,1,0,13,,,,,,,,,,,,,,,,11,,76,72
35640,note_on,,1,0,12,,,,,,,,,,,,,,,,10,,79,72
35640,note_on,,1,0,9,,,,,,,,,,,,,,,,6,,64,88
35669,note_on,,29,0,12,,,,,,,,,,,,,,,,10,,79,0
35669,note_on,,29,0,5,,,,,,,,,,,,,,,,0,,67,0
35669,note_on,,29,0,9,,,,,,,,,,,,,,,,6,,64,0
35669,note_on,,29,0,8,,,,,,,,,,,,,,,,5,,67,0
35669,note_on,,29,0,6,,,,,,,,,,,,,,,,1,,67,0
35669,note_on,,29,0,13,,,,,,,,,,,,,,,,11,,76,0
35670,note_on,,1,0,13,,,,,,,,,,,,,,,,11,,79,72
35670,note_on,,1,0,5,,,,,,,,,,,,,,,,0,,71,72
35670,note_on,,1,0,9,,,,,,,,,,,,,,,,6,,67,88
35670,note_on,,1,0,6,,,,,,,,,,,,,,,,1,,71,72
35670,note_on,,1,0,8,,,,,,,,,,,,,,,,5,,71,88
35670,note_on,,1,0,12,,,,,,,,,,,,,,,,10,,83,72
35699,note_on,,29,0,6,,,,,,,,,,,,,,,,1,,71,0
35699,note_on,,29,0,9,,,,,,,,,,,,,,,,6,,67,0
35699,note_on,,29,0,5,,,,,,,,,,,,,,,,0,,71,0
35699,note_on,,29,0,13,,,,,,,,,,,,,,,,11,,79,0
35699,note_on,,29,0,12,,,,,,,,,,,,,,,,10,,83,0
35699,note_on,,29,0,8,,,,,,,,,,,,,,,,5,,71,0
35699,note_on,,59,0,14,,,,,,,,,,,,,,,,12,,72,0
35700,note_on,,1,0,9,,,,,,,,,,,,,,,,6,,66,88
35700,note_on,,1,0,13,,,,,,,,,,,,,,,,11,,78,72
35700,note_on,,1,0,8,,,,,,,,,,,,,,,,5,,69,88
35700,note_on,,1,0,12,,,,,,,,,,,,,,,,10,,81,72
35700,note_on,,1,0,5,,,,,,,,,,,,,,,,0,,69,72
35700,note_on,,1,0,6,,,,,,,,,,,,,,,,1,,69,72
35700,note_on,,1,0,14,,,,,,,,,,,,,,,,12,,72,72
35729,note_on,,29,0,9,,,,,,,,,,,,,,,,6,,66,0
35729,note_on,,29,0,12,,,,,,,,,,,,,,,,10,,81,0
35729,note_on,,29,0,5,,,,,,,,,,,,,,,,0,,69,0
35729,note_on,,29,0,6,,,,,,,,,,,,,,,,1,,69,0
35729,note_on,,29,0,13,,,,,,,,,,,,,,,,11,,78,0
35729,note_on,,29,0,8,,,,,,,,,,,,,,,,5,,69,0
35730,note_on,,1,0,9,,,,,,,,,,,,,,,,6,,67,88
35730,note_on,,1,0,6,,,,,,,,,,,,,,,,1,,71,72
35730,note_on,,1,0,13,,,,,,,,,,,,,,,,11,,79,72
35730,note_on,,1,0,5,,,,,,,,,,,,,,,,0,,71,72
35730,note_on,,1,0,8,,,,,,,,,,,,,,,,5,,71,88
35730,note_on,,1,0,12,,,,,,,,,,,,,,,,10,,83,72
35759,note_on,,29,0,9,,,,,,,,,,,,,,,,6,,67,0
35759,note_on,,29,0,6,,,,,,,,,,,,,,,,1,,71,0
35759,note_on,,29,0,8,,,,,,,,,,,,,,,,5,,71,0
35759,note_on,,29,0,13,,,,,,,,,,,,,,,,11,,79,0
35759,note_on,,59,0,14,,,,,,,,,,,,,,,,12,,72,0
35759,note_on,,29,0,12,,,,,,,,,,,,,,,,10,,83,0
35759,note_on,,29,0,5,,,,,,,,,,,,,,,,0,,71,0
35760,note_on,,1,0,6,,,,,,,,,,,,,,,,1,,72,72
35760,note_on,,1,0,14,,,,,,,,,,,,,,,,12,,69,72
35760,note_on,,1,0,8,,,,,,,,,,,,,,,,5,,72,88
35760,note_on,,1,0,12,,,,,,,,,,,,,,,,10,,84,72
35760,note_on,,1,0,9,,,,,,,,,,,,,,,,6,,69,88
35760,note_on,,1,0,5,,,,,,,,,,,,,,,,0,,72,72
35760,note_on,,1,0,13,,,,,,,,,,,,,,,,11,,81,72
35789,note_on,,29,0,12,,,,,,,,,,,,,,,,10,,84,0
35789,note_on,,29,0,9,,,,,,,,,,,,,,,,6,,69,0
35789,note_on,,29,0,5,,,,,,,,,,,,,,,,0,,72,0
35789,note_on,,29,0,6,,,,,,,,,,,,,,,,1,,72,0
35789,note_on,,29,0,8,,,,,,,,,,,,,,,,5,,72,0
35789,note_on,,29,0,13,,,,,,,,,,,,,,,,11,,81,0
35790,note_on,,1,0,12,,,,,,,,,,,,,,,,10,,83,72
35790,note_on,,1,0,6,,,,,,,,,,,,,,,,1,,71,72
35790,note_on,,1,0,13,,,,,,,,,,,,,,,,11,,79,72
35790,note_on,,1,0,8,,,,,,,,,,,,,,,,5,,71,88
35790,note_on,,1,0,5,,,,,,,,,,,,,,,,0,,71,72
35790,note_on,,1,0,9,,,,,,,,,,,,,,,,6,,67,88
35819,note_on,,29,0,5,,,,,,,,,,,,,,,,0,,71,0
35819,note_on,,59,0,14,,,,,,,,,,,,,,,,12,,69,0
35819,note_on,,29,0,6,,,,,,,,,,,,,,,,1,,71,0
35819,note_on,,29,0,8,,,,,,,,,,,,,,,,5,,71,0
35819,note_on,,29,0,12,,,,,,,,,,,,,,,,10,,83,0
35819,note_on,,29,0,9,,,,,,,,,,,,,,,,6,,67,0
35819,note_on,,29,0,13,,,,,,,,,,,,,,,,11,,79,0
35820,note_on,,0,0,16,,,,,,,,,,,,,,,,15,,81,72
35820,note_on,,1,0,8,,,,,,,,,,,,,,,,5,,72,88
35820,note_on,,1,0,9,,,,,,,,,,,,,,,,6,,69,88
35820,note_on,,1,0,6,,,,,,,,,,,,,,,,1,,72,72
35820,note_on,,181,0,10,,,,,,,,,,,,,,,,7,,64,88
35820,note_on,,1,0,5,,,,,,,,,,,,,,,,0,,72,72
35820,note_on,,0,0,16,,,,,,,,,,,,,,,,15,,60,72
35820,note_on,,0,0,16,,,,,,,,,,,,,,,,15,,76,72
35820,note_on,,1,0,13,,,,,,,,,,,,,,,,11,,81,72
35820,note_on,,1,0,14,,,,,,,,,,,,,,,,12,,64,72
35820,note_on,,181,0,11,,,,,,,,,,,,,,,,8,,57,88
35820,note_on,,181,0,15,,,,,,,,,,,,,,,,13,,57,72
35820,note_on,,1,0,12,,,,,,,,,,,,,,,,10,,84,72
35820,note_on,,181,0,16,,,,,,,,,,,,,,,,15,,57,72
35820,note_on,,0,0,16,,,,,,,,,,,,,,,,15,,72,72
35820,note_on,,181,0,7,,,,,,,,,,,,,,,,2,,57,72
35849,note_on,,29,0,8,,,,,,,,,,,,,,,,5,,72,0
35849,note_on,,29,0,12,,,,,,,,,,,,,,,,10,,84,0
35849,note_on,,29,0,5,,,,,,,,,,,,,,,,0,,72,0
35849,note_on,,29,0,13,,,,,,,,,,,,,,,,11,,81,0
35849,note_on,,29,0,6,,,,,,,,,,,,,,,,1,,72,0
35849,note_on,,29,0,9,,,,,,,,,,,,,,,,6,,69,0
35850,note_on,,1,0,9,,,,,,,,,,,,,,,,6,,71,88
35850,note_on,,1,0,5,,,,,,,,,,,,,,,,0,,74,72
35850,note_on,,1,0,8,,,,,,,,,,,,,,,,5,,74,88
35850,note_on,,1,0,13,,,,,,,,,,,,,,,,11,,83,72
35850,note_on,,1,0,6,,,,,,,,,,,,,,,,1,,74,72
35850,note_on,,1,0,12,,,,,,,,,,,,,,,,10,,86,72
35879,note_on,,59,0,15,,,,,,,,,,,,,,,,13,,57,0
35879,note_on,,59,0,14,,,,,,,,,,,,,,,,12,,64,0
35879,note_on,,29,0,13,,,,,,,,,,,,,,,,11,,83,0
35879,note_on,,59,0,16,,,,,,,,,,,,,,,,15,,57,0
35879,note_on,,0,0,16,,,,,,,,,,,,,,,,15,,81,0
35879,note_on,,0,0,16,,,,,,,,,,,,,,,,15,,76,0
35879,note_on,,0,0,16,,,,,,,,,,,,,,,,15,,72,0
35879,note_on,,59,0,7,,,,,,,,,,,,,,,,2,,57,0
35879,note_on,,0,0,16,,,,,,,,,,,,,,,,15,,60,0
35879,note_on,,29,0,12,,,,,,,,,,,,,,,,10,,86,0
35879,note_on,,59,0,10,,,,,,,,,,,,,,,,7,,64,0
35879,note_on,,29,0,6,,,,,,,,,,,,,,,,1,,74,0
35879,note_on,,29,0,9,,,,,,,,,,,,,,,,6,,71,0
35879,note_on,,29,0,8,,,,,,,,,,,,,,,,5,,74,0
35879,note_on,,59,0,11,,,,,,,,,,,,,,,,8,,57,0
35879,note_on,,29,0,5,,,,,,,,,,,,,,,,0,,74,0
35880,note_on,,1,0,6,,,,,,,,,,,,,,,,1,,72,72
35880,note_on,,1,0,9,,,,,,,,,,,,,,,,6,,69,88
35880,note_on,,1,0,13,,,,,,,,,,,,,,,,11,,81,72
35880,note_on,,1,0,8,,,,,,,,,,,,,,,,5,,72,88
35880,note_on,,1,0,16,,,,,,,,,,,,,,,,15,,57,72
35880,note_on,,0,0,16,,,,,,,,,,,,,,,,15,,81,72
35880,note_on,,0,0,16,,,,,,,,,,,,,,,,15,,76,72
35880,note_on,,1,0,15,,,,,,,,,,,,,,,,13,,57,72
35880,note_on,,1,0,12,,,,,,,,,,,,,,,,10,,84,72
35880,note_on,,1,0,11,,,,,,,,,,,,,,,,8,,57,88
35880,note_on,,1,0,5,,,,,,,,,,,,,,,,0,,72,72
35880,note_on,,0,0,16,,,,,,,,,,,,,,,,15,,72,72
35880,note_on,,0,0,16,,,,,,,,,,,,,,,,15,,60,72
35880,note_on,,1,0,7,,,,,,,,,,,,,,,,2,,57,72
35880,note_on,,1,0,10,,,,,,,,,,,,,,,,7,,64,88
35880,note_on,,1,0,14,,,,,,,,,,,,,,,,12,,64,72
35909,note_on,,29,0,9,,,,,,,,,,,,,,,,6,,69,0
35909,note_on,,29,0,8,,,,,,,,,,,,,,,,5,,72,0
35909,note_on,,29,0,12,,,,,,,,,,,,,,,,10,,84,0
35909,note_on,,29,0,5,,,,,,,,,,,,,,,,0,,72,0
35909,note_on,,29,0,6,,,,,,,,,,,,,,,,1,,72,0
35909,note_on,,29,0,13,,,,,,,,,,,,,,,,11,,81,0
35910,note_on,,1,0,8,,,,,,,,,,,,,,,,5,,74,88
35910,note_on,,1,0,6,,,,,,,,,,,,,,,,1,,74,72
35910,note_on,,1,0,5,,,,,,,,,,,,,,,,0,,74,72
35910,note_on,,1,0,13,,,,,,,,,,,,,,,,11,,83,72
35910,note_on,,1,0,9,,,,,,,,,,,,,,,,6,,71,88
35910,note_on,,1,0,12,,,,,,,,,,,,,,,,10,,86,72
35939,note_on,,29,0,12,,,,,,,,,,,,,,,,10,,86,0
35939,note_on,,59,0,14,,,,,,,,,,,,,,,,12,,64,0
35939,note_on,,59,0,11,,,,,,,,,,,,,,,,8,,57,0
35939,note_on,,0,0,16,,,,,,,,,,,,,,,,15,,60,0
35939,note_on,,0,0,16,,,,,,,,,,,,,,,,15,,72,0
35939,note_on,,0,0,16,,,,,,,,,,,,,,,,15,,76,0
35939,note_on,,59,0,10,,,,,,,,,,,,,,,,7,,64,0
35939,note_on,,0,0,16,,,,,,,,,,,,,,,,15,,81,0
35939,note_on,,59,0,16,,,,,,,,,,,,,,,,15,,57,0
35939,note_on,,29,0,13,,,,,,,,,,,,,,,,11,,83,0
35939,note_on,,29,0,9,,,,,,,,,,,,,,,,6,,71,0
35939,note_on,,29,0,6,,,,,,,,,,,,,,,,1,,74,0
35939,note_on,,29,0,5,,,,,,,,,,,,,,,,0,,74,0
35939,note_on,,59,0,7,,,,,,,,,,,,,,,,2,,57,0
35939,note_on,,59,0,15,,,,,,,,,,,,,,,,13,,57,0
35939,note_on,,29,0,8,,,,,,,,,,,,,,,,5,,74,0
35940,note_on,,1,0,11,,,,,,,,,,,,,,,,8,,57,88
35940,note_on,,0,0,16,,,,,,,,,,,,,,,,15,,60,72
35940,note_on,,1,0,10,,,,,,,,,,,,,,,,7,,64,88
35940,note_on,,1,0,15,,,,,,,,,,,,,,,,13,,57,72
35940,note_on,,1,0,5,,,,,,,,,,,,,,,,0,,71,72
35940,note_on,,1,0,16,,,,,,,,,,,,,,,,15,,57,72
35940,note_on,,1,0,12,,,,,,,,,,,,,,,,10,,83,72
35940,note_on,,1,0,7,,,,,,,,,,,,,,,,2,,57,72
35940,note_on,,0,0,16,,,,,,,,,,,,,,,,15,,81,72
35940,note_on,,1,0,9,,,,,,,,,,,,,,,,6,,67,88
35940,note_on,,0,0,16,,,,,,,,,,,,,,,,15,,76,72
35940,note_on,,1,0,13,,,,,,,,,,,,,,,,11,,79,72
35940,note_on,,0,0,16,,,,,,,,,,,,,,,,15,,72,72
35940,note_on,,1,0,6,,,,,,,,,,,,,,,,1,,71,72
35940,note_on,,1,0,14,,,,,,,,,,,,,,,,12,,64,72
35940,note_on,,1,0,8,,,,,,,,,,,,,,,,5,,71,88
35969,note_on,,29,0,9,,,,,,,,,,,,,,,,6,,67,0
35969,note_on,,29,0,5,,,,,,,,,,,,,,,,0,,71,0
35969,note_on,,29,0,8,,,,,,,,,,,,,,,,5,,71,0
35969,note_on,,29,0,6,,,,,,,,,,,,,,,,1,,71,0
35969,note_on,,29,0,12,,,,,,,,,,,,,,,,10,,83,0
35969,note_on,,29,0,13,,,,,,,,,,,,,,,,11,,79,0
35970,note_on,,1,0,8,,,,,,,,,,,,,,,,5,,72,88
35970,note_on,,1,0,5,,,,,,,,,,,,,,,,0,,72,72
35970,note_on,,1,0,12,,,,,,,,,,,,,,,,10,,84,72
35970,note_on,,1,0,9,,,,,,,,,,,,,,,,6,,69,88
35970,note_on,,1,0,13,,,,,,,,,,,,,,,,11,,81,72
35970,note_on,,1,0,6,,,,,,,,,,,,,,,,1,,72,72
35999,note_on,,29,0,8,,,,,,,,,,,,,,,,5,,72,0
35999,note_on,,59,0,7,,,,,,,,,,,,,,,,2,,57,0
35999,note_on,,29,0,13,,,,,,,,,,,,,,,,11,,81,0
35999,note_on,,29,0,12,,,,,,,,,,,,,,,,10,,84,0
35999,note_on,,59,0,10,,,,,,,,,,,,,,,,7,,64,0
35999,note_on,,59,0,16,,,,,,,,,,,,,,,,15,,57,0
35999,note_on,,29,0,5,,,,,,,,,,,,,,,,0,,72,0
35999,note_on,,0,0,16,,,,,,,,,,,,,,,,15,,76,0
35999,note_on,,0,0,16,,,,,,,,,,,,,,,,15,,72,0
35999,note_on,,59,0,15,,,,,,,,,,,,,,,,13,,57,0
35999,note_on,,29,0,9,,,,,,,,,,,,,,,,6,,69,0
35999,note_on,,29,0,6,,,,,,,,,,,,,,,,1,,72,0
35999,note_on,,0,0,16,,,,,,,,,,,,,,,,15,,60,0
35999,note_on,,59,0,14,,,,,,,,,,,,,,,,12,,64,0
35999,note_on,,59,0,11,,,,,,,,,,,,,,,,8,,57,0
35999,note_on,,0,0,16,,,,,,,,,,,,,,,,15,,81,0
36000,note_on,,1,0,12,,,,,,,,,,,,,,,,10,,81,72
36000,note_on,,1,0,6,,,,,,,,,,,,,,,,1,,69,72
36000,note_on,,1,0,5,,,,,,,,,,,,,,,,0,,69,72
36000,note_on,,1,0,7,,,,,,,,,,,,,,,,2,,62,72
36000,note_on,,1,0,14,,,,,,,,,,,,,,,,12,,74,72
36000,note_on,,0,0,16,,,,,,,,,,,,,,,,15,,62,72
36000,note_on,,0,0,16,,,,,,,,,,,,,,,,15,,69,72
36000,note_on,,1,0,10,,,,,,,,,,,,,,,,7,,66,88
36000,note_on,,0,0,16,,,,,,,,,,,,,,,,15,,78,72
36000,note_on,,1,0,11,,,,,,,,,,,,,,,,8,,62,88
36000,note_on,,1,0,16,,,,,,,,,,,,,,,,15,,62,72
36000,note_on,,1,0,13,,,,,,,,,,,,,,,,11,,78,72
36000,note_on,,1,0,8,,,,,,,,,,,,,,,,5,,69,88
36000,note_on,,1,0,9,,,,,,,,,,,,,,,,6,,66,88
36000,note_on,,1,0,15,,,,,,,,,,,,,,,,13,,62,72
36000,note_on,,0,0,16,,,,,,,,,,,,,,,,15,,74,72
36029,note_on,,29,0,13,,,,,,,,,,,,,,,,11,,78,0
36029,note_on,,29,0,12,,,,,,,,,,,,,,,,10,,81,0
36029,note_on,,29,0,5,,,,,,,,,,,,,,,,0,,69,0
36029,note_on,,29,0,6,,,,,,,,,,,,,,,,1,,69,0
36029,note_on,,29,0,9,,,,,,,,,,,,,,,,6,,66,0
36029,note_on,,29,0,8,,,,,,,,,,,,,,,,5,,69,0
36030,note_on,,1,0,5,,,,,,,,,,,,,,,,0,,67,72
36030,note_on,,1,0,9,,,,,,,,,,,,,,,,6,,64,88
36030,note_on,,1,0,12,,,,,,,,,,,,,,,,10,,79,72
36030,note_on,,1,0,8,,,,,,,,,,,,,,,,5,,67,88
36030,note_on,,1,0,6,,,,,,,,,,,,,,,,1,,67,72
36030,note_on,,1,0,13,,,,,,,,,,,,,,,,11,,76,72
36059,note_on,,59,0,11,,,,,,,,,,,,,,,,8,,62,0
36059,note_on,,29,0,6,,,,,,,,,,,,,,,,1,,67,0
36059,note_on,,29,0,5,,,,,,,,,,,,,,,,0,,67,0
36059,note_on,,59,0,10,,,,,,,,,,,,,,,,7,,66,0
36059,note_on,,29,0,13,,,,,,,,,,,,,,,,11,,76,0
36059,note_on,,29,0,8,,,,,,,,,,,,,,,,5,,67,0
36059,note_on,,29,0,9,,,,,,,,,,,,,,,,6,,64,0
36059,note_on,,59,0,15,,,,,,,,,,,,,,,,13,,62,0
36059,note_on,,59,0,7,,,,,,,,,,,,,,,,2,,62,0
36059,note_on,,59,0,16,,,,,,,,,,,,,,,,15,,62,0
36059,note_on,,29,0,12,,,,,,,,,,,,,,,,10,,79,0
36060,note_on,,1,0,6,,,,,,,,,,,,,,,,1,,69,72
36060,note_on,,1,0,15,,,,,,,,,,,,,,,,13,,50,72
36060,note_on,,1,0,13,,,,,,,,,,,,,,,,11,,78,72
36060,note_on,,1,0,16,,,,,,,,,,,,,,,,15,,50,72
36060,note_on,,1,0,9,,,,,,,,,,,,,,,,6,,66,88
36060,note_on,,1,0,12,,,,,,,,,,,,,,,,10,,81,72
36060,note_on,,1,0,11,,,,,,,,,,,,,,,,8,,62,88
36060,note_on,,1,0,7,,,,,,,,,,,,,,,,2,,50,72
36060,note_on,,1,0,5,,,,,,,,,,,,,,,,0,,69,72
36060,note_on,,1,0,8,,,,,,,,,,,,,,,,5,,69,88
36060,note_on,,1,0,10,,,,,,,,,,,,,,,,7,,66,88
36089,note_on,,29,0,12,,,,,,,,,,,,,,,,10,,81,0
36089,note_on,,29,0,9,,,,,,,,,,,,,,,,6,,66,0
36089,note_on,,29,0,5,,,,,,,,,,,,,,,,0,,69,0
36089,note_on,,29,0,6,,,,,,,,,,,,,,,,1,,69,0
36089,note_on,,29,0,13,,,,,,,,,,,,,,,,11,,78,0
36089,note_on,,29,0,8,,,,,,,,,,,,,,,,5,,69,0
36090,note_on,,1,0,13,,,,,,,,,,,,,,,,11,,79,72
36090,note_on,,1,0,12,,,,,,,,,,,,,,,,10,,83,72
36090,note_on,,1,0,9,,,,,,,,,,,,,,,,6,,67,88
36090,note_on,,1,0,5,,,,,,,,,,,,,,,,0,,71,72
36090,note_on,,1,0,6,,,,,,,,,,,,,,,,1,,71,72
36090,note_on,,1,0,8,,,,,,,,,,,,,,,,5,,71,88
36119,note_on,,29,0,6,,,,,,,,,,,,,,,,1,,71,0
36119,note_on,,29,0,8,,,,,,,,,,,,,,,,5,,71,0
36119,note_on,,59,0,10,,,,,,,,,,,,,,,,7,,66,0
36119,note_on,,59,0,7,,,,,,,,,,,,,,,,2,,50,0
36119,note_on,,0,0,16,,,,,,,,,,,,,,,,15,,74,0
36119,note_on,,59,0,16,,,,,,,,,,,,,,,,15,,78,0
36119,note_on,,29,0,5,,,,,,,,,,,,,,,,0,,71,0
36119,note_on,,119,0,14,,,,,,,,,,,,,,,,12,,74,0
36119,note_on,,29,0,13,,,,,,,,,,,,,,,,11,,79,0
36119,note_on,,59,0,11,,,,,,,,,,,,,,,,8,,62,0
36119,note_on,,29,0,12,,,,,,,,,,,,,,,,10,,83,0
36119,note_on,,0,0,16,,,,,,,,,,,,,,,,15,,50,0
36119,note_on,,0,0,16,,,,,,,,,,,,,,,,15,,62,0
36119,note_on,,0,0,16,,,,,,,,,,,,,,,,15,,69,0
36119,note_on,,59,0,15,,,,,,,,,,,,,,,,13,,50,0
36119,note_on,,29,0,9,,,,,,,,,,,,,,,,6,,67,0
36120,note_on,,1,0,5,,,,,,,,,,,,,,,,0,,69,72
36120,note_on,,1,0,14,,,,,,,,,,,,,,,,12,,74,72
36120,note_on,,1,0,12,,,,,,,,,,,,,,,,10,,81,72
36120,note_on,,1,0,6,,,,,,,,,,,,,,,,1,,69,72
36120,note_on,,1,0,8,,,,,,,,,,,,,,,,5,,69,88
36120,note_on,,1,0,9,,,,,,,,,,,,,,,,6,,66,88
36120,note_on,,1,0,13,,,,,,,,,,,,,,,,11,,78,72
36149,note_on,,29,0,13,,,,,,,,,,,,,,,,11,,78,0
36149,note_on,,29,0,12,,,,,,,,,,,,,,,,10,,81,0
36149,note_on,,29,0,5,,,,,,,,,,,,,,,,0,,69,0
36149,note_on,,29,0,9,,,,,,,,,,,,,,,,6,,66,0
36149,note_on,,29,0,8,,,,,,,,,,,,,,,,5,,69,0
36149,note_on,,29,0,6,,,,,,,,,,,,,,,,1,,69,0
36150,note_on,,1,0,8,,,,,,,,,,,,,,,,5,,72,88
36150,note_on,,1,0,13,,,,,,,,,,,,,,,,11,,81,72
36150,note_on,,1,0,6,,,,,,,,,,,,,,,,1,,72,72
36150,note_on,,1,0,5,,,,,,,,,,,,,,,,0,,72,72
36150,note_on,,1,0,12,,,,,,,,,,,,,,,,10,,84,72
36150,note_on,,1,0,9,,,,,,,,,,,,,,,,6,,69,88
36179,note_on,,29,0,9,,,,,,,,,,,,,,,,6,,69,0
36179,note_on,,59,0,14,,,,,,,,,,,,,,,,12,,74,0
36179,note_on,,29,0,12,,,,,,,,,,,,,,,,10,,84,0
36179,note_on,,29,0,13,,,,,,,,,,,,,,,,11,,81,0
36179,note_on,,29,0,6,,,,,,,,,,,,,,,,1,,72,0
36179,note_on,,29,0,8,,,,,,,,,,,,,,,,5,,72,0
36179,note_on,,29,0,5,,,,,,,,,,,,,,,,0,,72,0
36180,note_on,,1,0,6,,,,,,,,,,,,,,,,1,,71,72
36180,note_on,,1,0,13,,,,,,,,,,,,,,,,11,,79,72
36180,note_on,,1,0,8,,,,,,,,,,,,,,,,5,,71,88
36180,note_on,,1,0,5,,,,,,,,,,,,,,,,0,,71,72
36180,note_on,,1,0,14,,,,,,,,,,,,,,,,12,,74,72
36180,note_on,,1,0,9,,,,,,,,,,,,,,,,6,,67,88
36180,note_on,,1,0,12,,,,,,,,,,,,,,,,10,,83,72
36209,note_on,,29,0,6,,,,,,,,,,,,,,,,1,,71,0
36209,note_on,,29,0,5,,,,,,,,,,,,,,,,0,,71,0
36209,note_on,,29,0,13,,,,,,,,,,,,,,,,11,,79,0
36209,note_on,,29,0,9,,,,,,,,,,,,,,,,6,,67,0
36209,note_on,,29,0,12,,,,,,,,,,,,,,,,10,,83,0
36209,note_on,,29,0,8,,,,,,,,,,,,,,,,5,,71,0
36210,note_on,,1,0,8,,,,,,,,,,,,,,,,5,,72,88
36210,note_on,,1,0,5,,,,,,,,,,,,,,,,0,,72,72
36210,note_on,,1,0,9,,,,,,,,,,,,,,,,6,,69,88
36210,note_on,,1,0,12,,,,,,,,,,,,,,,,10,,84,72
36210,note_on,,1,0,6,,,,,,,,,,,,,,,,1,,72,72
36210,note_on,,1,0,13,,,,,,,,,,,,,,,,11,,81,72
36239,note_on,,29,0,5,,,,,,,,,,,,,,,,0,,72,0
36239,note_on,,29,0,9,,,,,,,,,,,,,,,,6,,69,0
36239,note_on,,29,0,12,,,,,,,,,,,,,,,,10,,84,0
36239,note_on,,29,0,6,,,,,,,,,,,,,,,,1,,72,0
36239,note_on,,59,0,14,,,,,,,,,,,,,,,,12,,74,0
36239,note_on,,29,0,13,,,,,,,,,,,,,,,,11,,81,0
36239,note_on,,29,0,8,,,,,,,,,,,,,,,,5,,72,0
36240,note_on,,1,0,13,,,,,,,,,,,,,,,,11,,83,72
36240,note_on,,1,0,5,,,,,,,,,,,,,,,,0,,74,72
36240,note_on,,1,0,14,,,,,,,,,,,,,,,,12,,62,72
36240,note_on,,1,0,12,,,,,,,,,,,,,,,,10,,86,72
36240,note_on,,1,0,9,,,,,,,,,,,,,,,,6,,71,88
36240,note_on,,1,0,6,,,,,,,,,,,,,,,,1,,74,72
36240,note_on,,1,0,8,,,,,,,,,,,,,,,,5,,74,88
36269,note_on,,29,0,12,,,,,,,,,,,,,,,,10,,86,0
36269,note_on,,29,0,8,,,,,,,,,,,,,,,,5,,74,0
36269,note_on,,29,0,6,,,,,,,,,,,,,,,,1,,74,0
36269,note_on,,29,0,13,,,,,,,,,,,,,,,,11,,83,0
36269,note_on,,29,0,9,,,,,,,,,,,,,,,,6,,71,0
36269,note_on,,29,0,5,,,,,,,,,,,,,,,,0,,74,0
36270,note_on,,1,0,13,,,,,,,,,,,,,,,,11,,81,72
36270,note_on,,1,0,5,,,,,,,,,,,,,,,,0,,72,72
36270,note_on,,1,0,6,,,,,,,,,,,,,,,,1,,72,72
36270,note_on,,1,0,12,,,,,,,,,,,,,,,,10,,84,72
36270,note_on,,1,0,8,,,,,,,,,,,,,,,,5,,72,88
36270,note_on,,1,0,9,,,,,,,,,,,,,,,,6,,69,88
36299,note_on,,29,0,5,,,,,,,,,,,,,,,,0,,72,0
36299,note_on,,29,0,13,,,,,,,,,,,,,,,,11,,81,0
36299,note_on,,29,0,6,,,,,,,,,,,,,,,,1,,72,0
36299,note_on,,29,0,8,,,,,,,,,,,,,,,,5,,72,0
36299,note_on,,29,0,9,,,,,,,,,,,,,,,,6,,69,0
36299,note_on,,29,0,12,,,,,,,,,,,,,,,,10,,84,0
36300,note_on,,1,0,6,,,,,,,,,,,,,,,,1,,74,72
36300,note_on,,1,0,13,,,,,,,,,,,,,,,,11,,83,72
36300,note_on,,1,0,8,,,,,,,,,,,,,,,,5,,74,88
36300,note_on,,1,0,9,,,,,,,,,,,,,,,,6,,71,88
36300,note_on,,1,0,12,,,,,,,,,,,,,,,,10,,86,72
36300,note_on,,1,0,5,,,,,,,,,,,,,,,,0,,74,72
36329,note_on,,29,0,8,,,,,,,,,,,,,,,,5,,74,0
36329,note_on,,29,0,12,,,,,,,,,,,,,,,,10,,86,0
36329,note_on,,29,0,5,,,,,,,,,,,,,,,,0,,74,0
36329,note_on,,29,0,6,,,,,,,,,,,,,,,,1,,74,0
36329,note_on,,29,0,9,,,,,,,,,,,,,,,,6,,71,0
36329,note_on,,29,0,13,,,,,,,,,,,,,,,,11,,83,0
36330,note_on,,1,0,8,,,,,,,,,,,,,,,,5,,76,88
36330,note_on,,1,0,5,,,,,,,,,,,,,,,,0,,76,72
36330,note_on,,1,0,6,,,,,,,,,,,,,,,,1,,76,72
36330,note_on,,1,0,13,,,,,,,,,,,,,,,,11,,84,72
36330,note_on,,1,0,9,,,,,,,,,,,,,,,,6,,72,88
36330,note_on,,1,0,12,,,,,,,,,,,,,,,,10,,88,72
36359,note_on,,29,0,5,,,,,,,,,,,,,,,,0,,76,0
36359,note_on,,119,0,14,,,,,,,,,,,,,,,,12,,62,0
36359,note_on,,29,0,9,,,,,,,,,,,,,,,,6,,72,0
36359,note_on,,29,0,13,,,,,,,,,,,,,,,,11,,84,0
36359,note_on,,29,0,8,,,,,,,,,,,,,,,,5,,76,0
36359,note_on,,29,0,12,,,,,,,,,,,,,,,,10,,88,0
36359,note_on,,29,0,6,,,,,,,,,,,,,,,,1,,76,0
36360,note_on,,0,0,16,,,,,,,,,,,,,,,,15,,78,72
36360,note_on,,0,0,16,,,,,,,,,,,,,,,,15,,71,72
36360,note_on,,1,0,13,,,,,,,,,,,,,,,,11,,83,72
36360,note_on,,241,0,7,,,,,,,,,,,,,,,,2,,59,72
36360,note_on,,1,0,14,,,,,,,,,,,,,,,,12,,66,72
36360,note_on,,1,0,12,,,,,,,,,,,,,,,,10,,86,72
36360,note_on,,0,0,16,,,,,,,,,,,,,,,,15,,62,72
36360,note_on,,241,0,11,,,,,,,,,,,,,,,,8,,62,88
36360,note_on,,1,0,5,,,,,,,,,,,,,,,,0,,74,72
36360,note_on,,1,0,6,,,,,,,,,,,,,,,,1,,74,72
36360,note_on,,1,0,9,,,,,,,,,,,,,,,,6,,71,88
36360,note_on,,241,0,15,,,,,,,,,,,,,,,,13,,59,72
36360,note_on,,1,0,8,,,,,,,,,,,,,,,,5,,74,88
36360,note_on,,0,0,16,,,,,,,,,,,,,,,,15,,74,72
36360,note_on,,241,0,10,,,,,,,,,,,,,,,,7,,66,88
36360,note_on,,241,0,16,,,,,,,,,,,,,,,,15,,59,72
36389,note_on,,29,0,13,,,,,,,,,,,,,,,,11,,83,0
36389,note_on,,29,0,5,,,,,,,,,,,,,,,,0,,74,0
36389,note_on,,29,0,12,,,,,,,,,,,,,,,,10,,86,0
36389,note_on,,29,0,6,,,,,,,,,,,,,,,,1,,74,0
36389,note_on,,29,0,9,,,,,,,,,,,,,,,,6,,71,0
36389,note_on,,29,0,8,,,,,,,,,,,,,,,,5,,74,0
36390,note_on,,1,0,8,,,,,,,,,,,,,,,,5,,76,88
36390,note_on,,1,0,13,,,,,,,,,,,,,,,,11,,84,72
36390,note_on,,1,0,12,,,,,,,,,,,,,,,,10,,88,72
36390,note_on,,1,0,9,,,,,,,,,,,,,,,,6,,72,88
36390,note_on,,1,0,5,,,,,,,,,,,,,,,,0,,76,72
36390,note_on,,1,0,6,,,,,,,,,,,,,,,,1,,76,72
36419,note_on,,0,0,16,,,,,,,,,,,,,,,,15,,71,0
36419,note_on,,29,0,8,,,,,,,,,,,,,,,,5,,76,0
36419,note_on,,29,0,5,,,,,,,,,,,,,,,,0,,76,0
36419,note_on,,59,0,14,,,,,,,,,,,,,,,,12,,66,0
36419,note_on,,29,0,9,,,,,,,,,,,,,,,,6,,72,0
36419,note_on,,0,0,16,,,,,,,,,,,,,,,,15,,62,0
36419,note_on,,59,0,15,,,,,,,,,,,,,,,,13,,59,0
36419,note_on,,0,0,16,,,,,,,,,,,,,,,,15,,78,0
36419,note_on,,29,0,13,,,,,,,,,,,,,,,,11,,84,0
36419,note_on,,59,0,11,,,,,,,,,,,,,,,,8,,62,0
36419,note_on,,59,0,16,,,,,,,,,,,,,,,,15,,59,0
36419,note_on,,29,0,6,,,,,,,,,,,,,,,,1,,76,0
36419,note_on,,59,0,7,,,,,,,,,,,,,,,,2,,59,0
36419,note_on,,29,0,12,,,,,,,,,,,,,,,,10,,88,0
36419,note_on,,0,0,16,,,,,,,,,,,,,,,,15,,74,0
36419,note_on,,59,0,10,,,,,,,,,,,,,,,,7,,66,0
36420,note_on,,0,0,16,,,,,,,,,,,,,,,,15,,78,72
36420,note_on,,0,0,16,,,,,,,,,,,,,,,,15,,74,72
36420,note_on,,1,0,8,,,,,,,,,,,,,,,,5,,72,88
36420,note_on,,0,0,16,,,,,,,,,,,,,,,,15,,71,72
36420,note_on,,1,0,10,,,,,,,,,,,,,,,,7,,66,88
36420,note_on,,1,0,5,,,,,,,,,,,,,,,,0,,72,72
36420,note_on,,1,0,13,,,,,,,,,,,,,,,,11,,81,72
36420,note_on,,1,0,6,,,,,,,,,,,,,,,,1,,72,72
36420,note_on,,1,0,14,,,,,,,,,,,,,,,,12,,66,72
36420,note_on,,1,0,9,,,,,,,,,,,,,,,,6,,69,88
36420,note_on,,1,0,16,,,,,,,,,,,,,,,,15,,50,72
36420,note_on,,1,0,7,,,,,,,,,,,,,,,,2,,50,72
36420,note_on,,1,0,11,,,,,,,,,,,,,,,,8,,50,88
36420,note_on,,1,0,15,,,,,,,,,,,,,,,,13,,50,72
36420,note_on,,0,0,16,,,,,,,,,,,,,,,,15,,62,72
36420,note_on,,1,0,12,,,,,,,,,,,,,,,,10,,84,72
36449,note_on,,29,0,9,,,,,,,,,,,,,,,,6,,69,0
36449,note_on,,29,0,13,,,,,,,,,,,,,,,,11,,81,0
36449,note_on,,29,0,12,,,,,,,,,,,,,,,,10,,84,0
36449,note_on,,29,0,8,,,,,,,,,,,,,,,,5,,72,0
36449,note_on,,29,0,5,,,,,,,,,,,,,,,,0,,72,0
36449,note_on,,29,0,6,,,,,,,,,,,,,,,,1,,72,0
36450,note_on,,1,0,12,,,,,,,,,,,,,,,,10,,86,72
36450,note_on,,1,0,5,,,,,,,,,,,,,,,,0,,74,72
36450,note_on,,1,0,6,,,,,,,,,,,,,,,,1,,74,72
36450,note_on,,1,0,9,,,,,,,,,,,,,,,,6,,71,88
36450,note_on,,1,0,13,,,,,,,,,,,,,,,,11,,83,72
36450,note_on,,1,0,8,,,,,,,,,,,,,,,,5,,74,88
36479,note_on,,59,0,11,,,,,,,,,,,,,,,,8,,50,0
36479,note_on,,29,0,12,,,,,,,,,,,,,,,,10,,86,0
36479,note_on,,59,0,10,,,,,,,,,,,,,,,,7,,66,0
36479,note_on,,59,0,7,,,,,,,,,,,,,,,,2,,50,0
36479,note_on,,59,0,16,,,,,,,,,,,,,,,,15,,50,0
36479,note_on,,29,0,5,,,,,,,,,,,,,,,,0,,74,0
36479,note_on,,29,0,9,,,,,,,,,,,,,,,,6,,71,0
36479,note_on,,59,0,14,,,,,,,,,,,,,,,,12,,66,0
36479,note_on,,0,0,16,,,,,,,,,,,,,,,,15,,74,0
36479,note_on,,29,0,6,,,,,,,,,,,,,,,,1,,74,0
36479,note_on,,29,0,8,,,,,,,,,,,,,,,,5,,74,0
36479,note_on,,29,0,13,,,,,,,,,,,,,,,,11,,83,0
36479,note_on,,0,0,16,,,,,,,,,,,,,,,,15,,71,0
36479,note_on,,59,0,15,,,,,,,,,,,,,,,,13,,50,0
36479,note_on,,0,0,16,,,,,,,,,,,,,,,,15,,78,0
36479,note_on,,0,0,16,,,,,,,,,,,,,,,,15,,62,0
36480,note_on,,1,0,8,,,,,,,,,,,,,,,,5,,71,88
36480,note_on,,1,0,9,,,,,,,,,,,,,,,,6,,67,88
36480,note_on,,0,0,16,,,,,,,,,,,,,,,,15,,67,72
36480,note_on,,1,0,6,,,,,,,,,,,,,,,,1,,71,72
36480,note_on,,1,0,10,,,,,,,,,,,,,,,,7,,67,88
36480,note_on,,1,0,7,,,,,,,,,,,,,,,,2,,52,72
36480,note_on,,0,0,16,,,,,,,,,,,,,,,,15,,55,72
36480,note_on,,0,0,16,,,,,,,,,,,,,,,,15,,71,72
36480,note_on,,1,0,5,,,,,,,,,,,,,,,,0,,71,72
36480,note_on,,0,0,16,,,,,,,,,,,,,,,,15,,79,72
36480,note_on,,1,0,12,,,,,,,,,,,,,,,,10,,83,72
36480,note_on,,1,0,14,,,,,,,,,,,,,,,,12,,67,72
36480,note_on,,1,0,15,,,,,,,,,,,,,,,,13,,52,72
36480,note_on,,1,0,16,,,,,,,,,,,,,,,,15,,52,72
36480,note_on,,1,0,11,,,,,,,,,,,,,,,,8,,52,88
36480,note_on,,1,0,13,,,,,,,,,,,,,,,,11,,79,72
36509,note_on,,29,0,6,,,,,,,,,,,,,,,,1,,71,0
36509,note_on,,29,0,8,,,,,,,,,,,,,,,,5,,71,0
36509,note_on,,29,0,12,,,,,,,,,,,,,,,,10,,83,0
36509,note_on,,29,0,9,,,,,,,,,,,,,,,,6,,67,0
36509,note_on,,29,0,5,,,,,,,,,,,,,,,,0,,71,0
36509,note_on,,29,0,13,,,,,,,,,,,,,,,,11,,79,0
36510,note_on,,1,0,13,,,,,,,,,,,,,,,,11,,78,72
36510,note_on,,1,0,6,,,,,,,,,,,,,,,,1,,69,72
36510,note_on,,1,0,9,,,,,,,,,,,,,,,,6,,66,88
36510,note_on,,1,0,8,,,,,,,,,,,,,,,,5,,69,88
36510,note_on,,1,0,5,,,,,,,,,,,,,,,,0,,69,72
36510,note_on,,1,0,12,,,,,,,,,,,,,,,,10,,81,72
36539,note_on,,29,0,5,,,,,,,,,,,,,,,,0,,69,0
36539,note_on,,29,0,8,,,,,,,,,,,,,,,,5,,69,0
36539,note_on,,29,0,13,,,,,,,,,,,,,,,,11,,78,0
36539,note_on,,29,0,9,,,,,,,,,,,,,,,,6,,66,0
36539,note_on,,29,0,6,,,,,,,,,,,,,,,,1,,69,0
36539,note_on,,29,0,12,,,,,,,,,,,,,,,,10,,81,0
36540,note_on,,1,0,12,,,,,,,,,,,,,,,,10,,83,72
36540,note_on,,1,0,13,,,,,,,,,,,,,,,,11,,79,72
36540,note_on,,1,0,8,,,,,,,,,,,,,,,,5,,71,88
36540,note_on,,1,0,9,,,,,,,,,,,,,,,,6,,67,88
36540,note_on,,1,0,6,,,,,,,,,,,,,,,,1,,71,72
36540,note_on,,1,0,5,,,,,,,,,,,,,,,,0,,71,72
36569,note_on,,29,0,5,,,,,,,,,,,,,,,,0,,71,0
36569,note_on,,29,0,9,,,,,,,,,,,,,,,,6,,67,0
36569,note_on,,29,0,8,,,,,,,,,,,,,,,,5,,71,0
36569,note_on,,29,0,6,,,,,,,,,,,,,,,,1,,71,0
36569,note_on,,29,0,13,,,,,,,,,,,,,,,,11,,79,0
36569,note_on,,29,0,12,,,,,,,,,,,,,,,,10,,83,0
36570,note_on,,1,0,13,,,,,,,,,,,,,,,,11,,81,72
36570,note_on,,1,0,8,,,,,,,,,,,,,,,,5,,72,88
36570,note_on,,1,0,6,,,,,,,,,,,,,,,,1,,72,72
36570,note_on,,1,0,5,,,,,,,,,,,,,,,,0,,72,72
36570,note_on,,1,0,9,,,,,,,,,,,,,,,,6,,69,88
36570,note_on,,1,0,12,,,,,,,,,,,,,,,,10,,84,72
36599,note_on,,29,0,13,,,,,,,,,,,,,,,,11,,81,0
36599,note_on,,119,0,15,,,,,,,,,,,,,,,,13,,52,0
36599,note_on,,119,0,10,,,,,,,,,,,,,,,,7,,67,0
36599,note_on,,29,0,5,,,,,,,,,,,,,,,,0,,72,0
36599,note_on,,119,0,11,,,,,,,,,,,,,,,,8,,52,0
36599,note_on,,0,0,16,,,,,,,,,,,,,,,,15,,55,0
36599,note_on,,119,0,7,,,,,,,,,,,,,,,,2,,52,0
36599,note_on,,29,0,8,,,,,,,,,,,,,,,,5,,72,0
36599,note_on,,29,0,9,,,,,,,,,,,,,,,,6,,69,0
36599,note_on,,0,0,16,,,,,,,,,,,,,,,,15,,67,0
36599,note_on,,0,0,16,,,,,,,,,,,,,,,,15,,71,0
36599,note_on,,29,0,6,,,,,,,,,,,,,,,,1,,72,0
36599,note_on,,0,0,16,,,,,,,,,,,,,,,,15,,79,0
36599,note_on,,119,0,14,,,,,,,,,,,,,,,,12,,67,0
36599,note_on,,119,0,16,,,,,,,,,,,,,,,,15,,52,0
36599,note_on,,29,0,12,,,,,,,,,,,,,,,,10,,84,0
36600,note_on,,1,0,12,,,,,,,,,,,,,,,,10,,83,72
36600,note_on,,1,0,13,,,,,,,,,,,,,,,,11,,79,72
36600,note_on,,1,0,9,,,,,,,,,,,,,,,,6,,67,88
36600,note_on,,1,0,8,,,,,,,,,,,,,,,,5,,71,88
36600,note_on,,1,0,6,,,,,,,,,,,,,,,,1,,71,72
36600,note_on,,1,0,5,,,,,,,,,,,,,,,,0,,71,72
36629,note_on,,29,0,8,,,,,,,,,,,,,,,,5,,71,0
36629,note_on,,29,0,12,,,,,,,,,,,,,,,,10,,83,0
36629,note_on,,29,0,9,,,,,,,,,,,,,,,,6,,67,0
36629,note_on,,29,0,6,,,,,,,,,,,,,,,,1,,71,0
36629,note_on,,29,0,13,,,,,,,,,,,,,,,,11,,79,0
36629,note_on,,29,0,5,,,,,,,,,,,,,,,,0,,71,0
36630,note_on,,1,0,6,,,,,,,,,,,,,,,,1,,72,72
36630,note_on,,1,0,9,,,,,,,,,,,,,,,,6,,69,88
36630,note_on,,1,0,5,,,,,,,,,,,,,,,,0,,72,72
36630,note_on,,1,0,8,,,,,,,,,,,,,,,,5,,72,88
36630,note_on,,1,0,12,,,,,,,,,,,,,,,,10,,84,72
36630,note_on,,1,0,13,,,,,,,,,,,,,,,,11,,81,72
36659,note_on,,29,0,13,,,,,,,,,,,,,,,,11,,81,0
36659,note_on,,29,0,6,,,,,,,,,,,,,,,,1,,72,0
36659,note_on,,29,0,8,,,,,,,,,,,,,,,,5,,72,0
36659,note_on,,29,0,5,,,,,,,,,,,,,,,,0,,72,0
36659,note_on,,29,0,9,,,,,,,,,,,,,,,,6,,69,0
36659,note_on,,29,0,12,,,,,,,,,,,,,,,,10,,84,0
36660,note_on,,61,0,10,,,,,,,,,,,,,,,,7,,64,88
36660,note_on,,61,0,11,,,,,,,,,,,,,,,,8,,52,88
36660,note_on,,0,0,16,,,,,,,,,,,,,,,,15,,55,72
36660,note_on,,1,0,6,,,,,,,,,,,,,,,,1,,69,72
36660,note_on,,61,0,7,,,,,,,,,,,,,,,,2,,52,72
36660,note_on,,61,0,16,,,,,,,,,,,,,,,,15,,52,72
36660,note_on,,0,0,16,,,,,,,,,,,,,,,,15,,67,72
36660,note_on,,61,0,14,,,,,,,,,,,,,,,,12,,67,72
36660,note_on,,0,0,16,,,,,,,,,,,,,,,,15,,76,72
36660,note_on,,1,0,5,,,,,,,,,,,,,,,,0,,69,72
36660,note_on,,1,0,13,,,,,,,,,,,,,,,,11,,78,72
36660,note_on,,1,0,9,,,,,,,,,,,,,,,,6,,66,88
36660,note_on,,0,0,16,,,,,,,,,,,,,,,,15,,71,72
36660,note_on,,1,0,12,,,,,,,,,,,,,,,,10,,81,72
36660,note_on,,1,0,8,,,,,,,,,,,,,,,,5,,69,88
36660,note_on,,61,0,15,,,,,,,,,,,,,,,,13,,52,72
36689,note_on,,29,0,6,,,,,,,,,,,,,,,,1,,69,0
36689,note_on,,29,0,13,,,,,,,,,,,,,,,,11,,78,0
36689,note_on,,29,0,5,,,,,,,,,,,,,,,,0,,69,0
36689,note_on,,29,0,8,,,,,,,,,,,,,,,,5,,69,0
36689,note_on,,29,0,9,,,,,,,,,,,,,,,,6,,66,0
36689,note_on,,29,0,12,,,,,,,,,,,,,,,,10,,81,0
36690,note_on,,1,0,13,,,,,,,,,,,,,,,,11,,79,72
36690,note_on,,1,0,12,,,,,,,,,,,,,,,,10,,83,72
36690,note_on,,1,0,8,,,,,,,,,,,,,,,,5,,71,88
36690,note_on,,1,0,9,,,,,,,,,,,,,,,,6,,67,88
36690,note_on,,1,0,6,,,,,,,,,,,,,,,,1,,71,72
36690,note_on,,1,0,5,,,,,,,,,,,,,,,,0,,71,72
36719,note_on,,29,0,8,,,,,,,,,,,,,,,,5,,71,0
36719,note_on,,59,0,7,,,,,,,,,,,,,,,,2,,52,0
36719,note_on,,29,0,9,,,,,,,,,,,,,,,,6,,67,0
36719,note_on,,59,0,11,,,,,,,,,,,,,,,,8,,52,0
36719,note_on,,59,0,16,,,,,,,,,,,,,,,,15,,52,0
36719,note_on,,29,0,12,,,,,,,,,,,,,,,,10,,83,0
36719,note_on,,0,0,16,,,,,,,,,,,,,,,,15,,71,0
36719,note_on,,0,0,16,,,,,,,,,,,,,,,,15,,67,0
36719,note_on,,0,0,16,,,,,,,,,,,,,,,,15,,55,0
36719,note_on,,59,0,15,,,,,,,,,,,,,,,,13,,52,0
36719,note_on,,59,0,10,,,,,,,,,,,,,,,,7,,64,0
36719,note_on,,29,0,13,,,,,,,,,,,,,,,,11,,79,0
36719,note_on,,59,0,14,,,,,,,,,,,,,,,,12,,67,0
36719,note_on,,29,0,6,,,,,,,,,,,,,,,,1,,71,0
36719,note_on,,29,0,5,,,,,,,,,,,,,,,,0,,71,0
36719,note_on,,0,0,16,,,,,,,,,,,,,,,,15,,76,0
36720,note_on,,1,0,11,,,,,,,,,,,,,,,,8,,57,88
36720,note_on,,1,0,16,,,,,,,,,,,,,,,,15,,57,72
36720,note_on,,0,0,16,,,,,,,,,,,,,,,,15,,64,72
36720,note_on,,0,0,16,,,,,,,,,,,,,,,,15,,60,72
36720,note_on,,1,0,12,,,,,,,,,,,,,,,,10,,84,72
36720,note_on,,0,0,16,,,,,,,,,,,,,,,,15,,72,72
36720,note_on,,1,0,6,,,,,,,,,,,,,,,,1,,72,72
36720,note_on,,1,0,7,,,,,,,,,,,,,,,,2,,57,72
36720,note_on,,1,0,15,,,,,,,,,,,,,,,,13,,57,72
36720,note_on,,1,0,14,,,,,,,,,,,,,,,,12,,69,72
36720,note_on,,1,0,8,,,,,,,,,,,,,,,,5,,72,88
36720,note_on,,1,0,10,,,,,,,,,,,,,,,,7,,60,88
36720,note_on,,1,0,9,,,,,,,,,,,,,,,,6,,64,88
36720,note_on,,1,0,5,,,,,,,,,,,,,,,,0,,72,72
36720,note_on,,1,0,13,,,,,,,,,,,,,,,,11,,76,72
36749,note_on,,29,0,5,,,,,,,,,,,,,,,,0,,72,0
36749,note_on,,29,0,6,,,,,,,,,,,,,,,,1,,72,0
36749,note_on,,29,0,12,,,,,,,,,,,,,,,,10,,84,0
36749,note_on,,29,0,13,,,,,,,,,,,,,,,,11,,76,0
36749,note_on,,29,0,8,,,,,,,,,,,,,,,,5,,72,0
36749,note_on,,29,0,9,,,,,,,,,,,,,,,,6,,64,0
36750,note_on,,1,0,6,,,,,,,,,,,,,,,,1,,71,72
36750,note_on,,1,0,9,,,,,,,,,,,,,,,,6,,62,88
36750,note_on,,1,0,13,,,,,,,,,,,,,,,,11,,74,72
36750,note_on,,1,0,5,,,,,,,,,,,,,,,,0,,71,72
36750,note_on,,1,0,8,,,,,,,,,,,,,,,,5,,71,88
36750,note_on,,1,0,12,,,,,,,,,,,,,,,,10,,83,72
36779,note_on,,29,0,9,,,,,,,,,,,,,,,,6,,62,0
36779,note_on,,29,0,8,,,,,,,,,,,,,,,,5,,71,0
36779,note_on,,29,0,5,,,,,,,,,,,,,,,,0,,71,0
36779,note_on,,29,0,6,,,,,,,,,,,,,,,,1,,71,0
36779,note_on,,29,0,13,,,,,,,,,,,,,,,,11,,74,0
36779,note_on,,29,0,12,,,,,,,,,,,,,,,,10,,83,0
36780,note_on,,1,0,12,,,,,,,,,,,,,,,,10,,84,72
36780,note_on,,1,0,8,,,,,,,,,,,,,,,,5,,72,88
36780,note_on,,1,0,9,,,,,,,,,,,,,,,,6,,64,88
36780,note_on,,1,0,5,,,,,,,,,,,,,,,,0,,72,72
36780,note_on,,1,0,6,,,,,,,,,,,,,,,,1,,72,72
36780,note_on,,1,0,13,,,,,,,,,,,,,,,,11,,76,72
36809,note_on,,29,0,12,,,,,,,,,,,,,,,,10,,84,0
36809,note_on,,29,0,8,,,,,,,,,,,,,,,,5,,72,0
36809,note_on,,29,0,13,,,,,,,,,,,,,,,,11,,76,0
36809,note_on,,29,0,9,,,,,,,,,,,,,,,,6,,64,0
36809,note_on,,29,0,5,,,,,,,,,,,,,,,,0,,72,0
36809,note_on,,29,0,6,,,,,,,,,,,,,,,,1,,72,0
36810,note_on,,1,0,9,,,,,,,,,,,,,,,,6,,66,88
36810,note_on,,1,0,8,,,,,,,,,,,,,,,,5,,74,88
36810,note_on,,1,0,12,,,,,,,,,,,,,,,,10,,86,72
36810,note_on,,1,0,5,,,,,,,,,,,,,,,,0,,74,72
36810,note_on,,1,0,6,,,,,,,,,,,,,,,,1,,74,72
36810,note_on,,1,0,13,,,,,,,,,,,,,,,,11,,78,72
36839,note_on,,29,0,8,,,,,,,,,,,,,,,,5,,74,0
36839,note_on,,29,0,9,,,,,,,,,,,,,,,,6,,66,0
36839,note_on,,29,0,12,,,,,,,,,,,,,,,,10,,86,0
36839,note_on,,29,0,6,,,,,,,,,,,,,,,,1,,74,0
36839,note_on,,29,0,5,,,,,,,,,,,,,,,,0,,74,0
36839,note_on,,29,0,13,,,,,,,,,,,,,,,,11,,78,0
36840,note_on,,1,0,12,,,,,,,,,,,,,,,,10,,84,72
36840,note_on,,1,0,5,,,,,,,,,,,,,,,,0,,72,72
36840,note_on,,1,0,9,,,,,,,,,,,,,,,,6,,64,88
36840,note_on,,1,0,8,,,,,,,,,,,,,,,,5,,72,88
36840,note_on,,1,0,6,,,,,,,,,,,,,,,,1,,72,72
36840,note_on,,1,0,13,,,,,,,,,,,,,,,,11,,76,72
36869,note_on,,29,0,13,,,,,,,,,,,,,,,,11,,76,0
36869,note_on,,29,0,12,,,,,,,,,,,,,,,,10,,84,0
36869,note_on,,29,0,5,,,,,,,,,,,,,,,,0,,72,0
36869,note_on,,29,0,6,,,,,,,,,,,,,,,,1,,72,0
36869,note_on,,29,0,8,,,,,,,,,,,,,,,,5,,72,0
36869,note_on,,29,0,9,,,,,,,,,,,,,,,,6,,64,0
36870,note_on,,1,0,12,,,,,,,,,,,,,,,,10,,86,72
36870,note_on,,1,0,13,,,,,,,,,,,,,,,,11,,78,72
36870,note_on,,1,0,6,,,,,,,,,,,,,,,,1,,74,72
36870,note_on,,1,0,9,,,,,,,,,,,,,,,,6,,66,88
36870,note_on,,1,0,8,,,,,,,,,,,,,,,,5,,74,88
36870,note_on,,1,0,5,,,,,,,,,,,,,,,,0,,74,72
36899,note_on,,29,0,5,,,,,,,,,,,,,,,,0,,74,0
36899,note_on,,179,0,11,,,,,,,,,,,,,,,,8,,57,0
36899,note_on,,179,0,16,,,,,,,,,,,,,,,,15,,57,0
36899,note_on,,0,0,16,,,,,,,,,,,,,,,,15,,72,0
36899,note_on,,0,0,16,,,,,,,,,,,,,,,,15,,64,0
36899,note_on,,0,0,16,,,,,,,,,,,,,,,,15,,60,0
36899,note_on,,179,0,7,,,,,,,,,,,,,,,,2,,57,0
36899,note_on,,179,0,10,,,,,,,,,,,,,,,,7,,60,0
36899,note_on,,29,0,9,,,,,,,,,,,,,,,,6,,66,0
36899,note_on,,29,0,13,,,,,,,,,,,,,,,,11,,78,0
36899,note_on,,179,0,15,,,,,,,,,,,,,,,,13,,57,0
36899,note_on,,29,0,8,,,,,,,,,,,,,,,,5,,74,0
36899,note_on,,29,0,12,,,,,,,,,,,,,,,,10,,86,0
36899,note_on,,179,0,14,,,,,,,,,,,,,,,,12,,69,0
36899,note_on,,29,0,6,,,,,,,,,,,,,,,,1,,74,0
36900,note_on,,1,0,9,,,,,,,,,,,,,,,,6,,67,88
36900,note_on,,1,0,15,,,,,,,,,,,,,,,,13,,55,72
36900,note_on,,1,0,12,,,,,,,,,,,,,,,,10,,83,72
36900,note_on,,0,0,16,,,,,,,,,,,,,,,,15,,71,72
36900,note_on,,1,0,14,,,,,,,,,,,,,,,,12,,74,72
36900,note_on,,0,0,16,,,,,,,,,,,,,,,,15,,67,72
36900,note_on,,1,0,8,,,,,,,,,,,,,,,,5,,71,88
36900,note_on,,0,0,16,,,,,,,,,,,,,,,,15,,62,72
36900,note_on,,1,0,6,,,,,,,,,,,,,,,,1,,71,72
36900,note_on,,1,0,5,,,,,,,,,,,,,,,,0,,71,72
36900,note_on,,1,0,7,,,,,,,,,,,,,,,,2,,55,72
36900,note_on,,1,0,13,,,,,,,,,,,,,,,,11,,79,72
36900,note_on,,1,0,11,,,,,,,,,,,,,,,,8,,55,88
36900,note_on,,1,0,16,,,,,,,,,,,,,,,,15,,55,72
36900,note_on,,1,0,10,,,,,,,,,,,,,,,,7,,62,88
36929,note_on,,29,0,5,,,,,,,,,,,,,,,,0,,71,0
36929,note_on,,29,0,9,,,,,,,,,,,,,,,,6,,67,0
36929,note_on,,29,0,8,,,,,,,,,,,,,,,,5,,71,0
36929,note_on,,29,0,12,,,,,,,,,,,,,,,,10,,83,0
36929,note_on,,29,0,6,,,,,,,,,,,,,,,,1,,71,0
36929,note_on,,29,0,13,,,,,,,,,,,,,,,,11,,79,0
36930,note_on,,1,0,9,,,,,,,,,,,,,,,,6,,69,88
36930,note_on,,1,0,8,,,,,,,,,,,,,,,,5,,72,88
36930,note_on,,1,0,12,,,,,,,,,,,,,,,,10,,84,72
36930,note_on,,1,0,6,,,,,,,,,,,,,,,,1,,72,72
36930,note_on,,1,0,5,,,,,,,,,,,,,,,,0,,72,72
36930,note_on,,1,0,13,,,,,,,,,,,,,,,,11,,81,72
36959,note_on,,29,0,6,,,,,,,,,,,,,,,,1,,72,0
36959,note_on,,29,0,8,,,,,,,,,,,,,,,,5,,72,0
36959,note_on,,29,0,9,,,,,,,,,,,,,,,,6,,69,0
36959,note_on,,29,0,5,,,,,,,,,,,,,,,,0,,72,0
36959,note_on,,59,0,7,,,,,,,,,,,,,,,,2,,55,0
36959,note_on,,59,0,10,,,,,,,,,,,,,,,,7,,62,0
36959,note_on,,0,0,16,,,,,,,,,,,,,,,,15,,62,0
36959,note_on,,0,0,16,,,,,,,,,,,,,,,,15,,67,0
36959,note_on,,0,0,16,,,,,,,,,,,,,,,,15,,71,0
36959,note_on,,59,0,16,,,,,,,,,,,,,,,,15,,55,0
36959,note_on,,29,0,12,,,,,,,,,,,,,,,,10,,84,0
36959,note_on,,59,0,14,,,,,,,,,,,,,,,,12,,74,0
36959,note_on,,59,0,15,,,,,,,,,,,,,,,,13,,55,0
36959,note_on,,59,0,11,,,,,,,,,,,,,,,,8,,55,0
36959,note_on,,29,0,13,,,,,,,,,,,,,,,,11,,81,0
36960,note_on,,1,0,13,,,,,,,,,,,,,,,,11,,78,72
36960,note_on,,1,0,9,,,,,,,,,,,,,,,,6,,66,88
36960,note_on,,1,0,10,,,,,,,,,,,,,,,,7,,62,88
36960,note_on,,1,0,6,,,,,,,,,,,,,,,,1,,69,72
36960,note_on,,1,0,11,,,,,,,,,,,,,,,,8,,62,88
36960,note_on,,1,0,8,,,,,,,,,,,,,,,,5,,69,88
36960,note_on,,1,0,7,,,,,,,,,,,,,,,,2,,62,72
36960,note_on,,1,0,14,,,,,,,,,,,,,,,,12,,74,72
36960,note_on,,1,0,5,,,,,,,,,,,,,,,,0,,69,72
36960,note_on,,0,0,16,,,,,,,,,,,,,,,,15,,66,72
36960,note_on,,0,0,16,,,,,,,,,,,,,,,,15,,69,72
36960,note_on,,1,0,16,,,,,,,,,,,,,,,,15,,62,72
36960,note_on,,1,0,12,,,,,,,,,,,,,,,,10,,81,72
36960,note_on,,1,0,15,,,,,,,,,,,,,,,,13,,62,72
37019,note_on,,59,0,14,,,,,,,,,,,,,,,,12,,74,0
37019,note_on,,59,0,15,,,,,,,,,,,,,,,,13,,62,0
37019,note_on,,59,0,13,,,,,,,,,,,,,,,,11,,78,0
37019,note_on,,59,0,12,,,,,,,,,,,,,,,,10,,81,0
37019,note_on,,59,0,10,,,,,,,,,,,,,,,,7,,62,0
37019,note_on,,59,0,16,,,,,,,,,,,,,,,,15,,62,0
37019,note_on,,59,0,11,,,,,,,,,,,,,,,,8,,62,0
37019,note_on,,59,0,7,,,,,,,,,,,,,,,,2,,62,0
37020,note_on,,1,0,16,,,,,,,,,,,,,,,,15,,50,72
37020,note_on,,1,0,15,,,,,,,,,,,,,,,,13,,50,72
37020,note_on,,1,0,7,,,,,,,,,,,,,,,,2,,50,72
37020,note_on,,1,0,11,,,,,,,,,,,,,,,,8,,62,88
37020,note_on,,1,0,10,,,,,,,,,,,,,,,,7,,62,88
37020,note_on,,1,0,13,,,,,,,,,,,,,,,,11,,78,72
37020,note_on,,1,0,14,,,,,,,,,,,,,,,,12,,69,72
37020,note_on,,1,0,12,,,,,,,,,,,,,,,,10,,74,72
37079,note_on,,59,0,7,,,,,,,,,,,,,,,,2,,50,0
37079,note_on,,119,0,5,,,,,,,,,,,,,,,,0,,69,0
37079,note_on,,59,0,13,,,,,,,,,,,,,,,,11,,78,0
37079,note_on,,59,0,15,,,,,,,,,,,,,,,,13,,50,0
37079,note_on,,119,0,9,,,,,,,,,,,,,,,,6,,66,0
37079,note_on,,59,0,14,,,,,,,,,,,,,,,,12,,69,0
37079,note_on,,59,0,12,,,,,,,,,,,,,,,,10,,74,0
37079,note_on,,59,0,10,,,,,,,,,,,,,,,,7,,62,0
37079,note_on,,119,0,6,,,,,,,,,,,,,,,,1,,69,0
37079,note_on,,59,0,11,,,,,,,,,,,,,,,,8,,62,0
37079,note_on,,0,0,16,,,,,,,,,,,,,,,,15,,50,0
37079,note_on,,0,0,16,,,,,,,,,,,,,,,,15,,66,0
37079,note_on,,59,0,16,,,,,,,,,,,,,,,,15,,69,0
37079,note_on,,119,0,8,,,,,,,,,,,,,,,,5,,69,0
37080,note_on,,1,0,7,,,,,,,,,,,,,,,,2,,54,72
37080,note_on,,1,0,6,,,,,,,,,,,,,,,,1,,74,72
37080,note_on,,0,0,16,,,,,,,,,,,,,,,,15,,57,72
37080,note_on,,0,0,16,,,,,,,,,,,,,,,,15,,62,72
37080,note_on,,1,0,16,,,,,,,,,,,,,,,,15,,54,72
37080,note_on,,1,0,5,,,,,,,,,,,,,,,,0,,74,72
37080,note_on,,1,0,15,,,,,,,,,,,,,,,,13,,54,72
37080,note_on,,1,0,10,,,,,,,,,,,,,,,,7,,62,88
37080,note_on,,1,0,9,,,,,,,,,,,,,,,,6,,69,88
37080,note_on,,1,0,8,,,,,,,,,,,,,,,,5,,74,88
37080,note_on,,1,0,11,,,,,,,,,,,,,,,,8,,54,88
37139,note_on,,59,0,8,,,,,,,,,,,,,,,,5,,74,0
37139,note_on,,59,0,6,,,,,,,,,,,,,,,,1,,74,0
37139,note_on,,59,0,10,,,,,,,,,,,,,,,,7,,62,0
37139,note_on,,59,0,5,,,,,,,,,,,,,,,,0,,74,0
37139,note_on,,59,0,9,,,,,,,,,,,,,,,,6,,69,0
37139,note_on,,59,0,11,,,,,,,,,,,,,,,,8,,54,0
37139,note_on,,59,0,15,,,,,,,,,,,,,,,,13,,54,0
37139,note_on,,0,0,16,,,,,,,,,,,,,,,,15,,57,0
37139,note_on,,0,0,16,,,,,,,,,,,,,,,,15,,62,0
37139,note_on,,59,0,16,,,,,,,,,,,,,,,,15,,54,0
37139,note_on,,59,0,7,,,,,,,,,,,,,,,,2,,54,0
37140,note_on,,0,0,16,,,,,,,,,,,,,,,,15,,66,72
37140,note_on,,1,0,10,,,,,,,,,,,,,,,,7,,66,88
37140,note_on,,1,0,15,,,,,,,,,,,,,,,,13,,50,72
37140,note_on,,1,0,6,,,,,,,,,,,,,,,,1,,72,72
37140,note_on,,1,0,5,,,,,,,,,,,,,,,,0,,72,72
37140,note_on,,1,0,7,,,,,,,,,,,,,,,,2,,50,72
37140,note_on,,1,0,11,,,,,,,,,,,,,,,,8,,50,88
37140,note_on,,1,0,9,,,,,,,,,,,,,,,,6,,69,88
37140,note_on,,1,0,8,,,,,,,,,,,,,,,,5,,72,88
37140,note_on,,0,0,16,,,,,,,,,,,,,,,,15,,57,72
37140,note_on,,0,0,16,,,,,,,,,,,,,,,,15,,62,72
37140,note_on,,1,0,16,,,,,,,,,,,,,,,,15,,50,72
37199,note_on,,0,0,16,,,,,,,,,,,,,,,,15,,66,0
37199,note_on,,59,0,6,,,,,,,,,,,,,,,,1,,72,0
37199,note_on,,0,0,16,,,,,,,,,,,,,,,,15,,57,0
37199,note_on,,0,0,16,,,,,,,,,,,,,,,,15,,62,0
37199,note_on,,59,0,11,,,,,,,,,,,,,,,,8,,50,0
37199,note_on,,59,0,9,,,,,,,,,,,,,,,,6,,69,0
37199,note_on,,59,0,10,,,,,,,,,,,,,,,,7,,66,0
37199,note_on,,59,0,7,,,,,,,,,,,,,,,,2,,50,0
37199,note_on,,59,0,5,,,,,,,,,,,,,,,,0,,72,0
37199,note_on,,59,0,8,,,,,,,,,,,,,,,,5,,72,0
37199,note_on,,59,0,15,,,,,,,,,,,,,,,,13,,50,0
37199,note_on,,59,0,16,,,,,,,,,,,,,,,,15,,50,0
37200,note_on,,1,0,5,,,,,,,,,,,,,,,,0,,71,72
37200,note_on,,1,0,16,,,,,,,,,,,,,,,,15,,55,72
37200,note_on,,0,0,16,,,,,,,,,,,,,,,,15,,67,72
37200,note_on,,1,0,11,,,,,,,,,,,,,,,,8,,55,88
37200,note_on,,0,0,16,,,,,,,,,,,,,,,,15,,59,72
37200,note_on,,1,0,15,,,,,,,,,,,,,,,,13,,55,72
37200,note_on,,1,0,7,,,,,,,,,,,,,,,,2,,55,72
37200,note_on,,0,0,16,,,,,,,,,,,,,,,,15,,62,72
37200,note_on,,1,0,9,,,,,,,,,,,,,,,,6,,67,88
37200,note_on,,1,0,8,,,,,,,,,,,,,,,,5,,71,88
37200,note_on,,1,0,10,,,,,,,,,,,,,,,,7,,62,88
37200,note_on,,1,0,6,,,,,,,,,,,,,,,,1,,71,72
37259,note_on,,59,0,7,,,,,,,,,,,,,,,,2,,55,0
37259,note_on,,59,0,15,,,,,,,,,,,,,,,,13,,55,0
37259,note_on,,59,0,16,,,,,,,,,,,,,,,,15,,55,0
37260,note_on,,0,0,16,,,,,,,,,,,,,,,,15,,55,72
37260,note_on,,1,0,7,,,,,,,,,,,,,,,,2,,43,72
37260,note_on,,1,0,16,,,,,,,,,,,,,,,,15,,43,72
37260,note_on,,1,0,15,,,,,,,,,,,,,,,,13,,43,72
37319,note_on,,59,0,16,,,,,,,,,,,,,,,,15,,67,0
37319,note_on,,0,0,16,,,,,,,,,,,,,,,,15,,62,0
37319,note_on,,0,0,16,,,,,,,,,,,,,,,,15,,59,0
37319,note_on,,0,0,16,,,,,,,,,,,,,,,,15,,43,0
37319,note_on,,119,0,11,,,,,,,,,,,,,,,,8,,55,0
37319,note_on,,119,0,5,,,,,,,,,,,,,,,,0,,71,0
37319,note_on,,119,0,6,,,,,,,,,,,,,,,,1,,71,0
37319,note_on,,119,0,10,,,,,,,,,,,,,,,,7,,62,0
37319,note_on,,59,0,7,,,,,,,,,,,,,,,,2,,43,0
37319,note_on,,119,0,9,,,,,,,,,,,,,,,,6,,67,0
37319,note_on,,119,0,8,,,,,,,,,,,,,,,,5,,71,0
37319,note_on,,59,0,15,,,,,,,,,,,,,,,,13,,43,0
37319,note_on,,0,0,16,,,,,,,,,,,,,,,,15,,55,0
37320,note_on,,0,0,16,,,,,,,,,,,,,,,,15,,62,72
37320,note_on,,0,0,16,,,,,,,,,,,,,,,,15,,67,72
37320,note_on,,1,0,7,,,,,,,,,,,,,,,,2,,47,72
37320,note_on,,0,0,16,,,,,,,,,,,,,,,,15,,74,72
37320,note_on,,241,0,13,,,,,,,,,,,,,,,,11,,74,72
37320,note_on,,1,0,16,,,,,,,,,,,,,,,,15,,47,72
37320,note_on,,241,0,12,,,,,,,,,,,,,,,,10,,79,72
37320,note_on,,1,0,15,,,,,,,,,,,,,,,,13,,47,72
37320,note_on,,241,0,14,,,,,,,,,,,,,,,,12,,67,72
37320,note_on,,0,0,16,,,,,,,,,,,,,,,,15,,55,72
37379,note_on,,59,0,15,,,,,,,,,,,,,,,,13,,47,0
37379,note_on,,59,0,14,,,,,,,,,,,,,,,,12,,67,0
37379,note_on,,59,0,7,,,,,,,,,,,,,,,,2,,47,0
37379,note_on,,59,0,12,,,,,,,,,,,,,,,,10,,79,0
37379,note_on,,0,0,16,,,,,,,,,,,,,,,,15,,62,0
37379,note_on,,0,0,16,,,,,,,,,,,,,,,,15,,67,0
37379,note_on,,0,0,16,,,,,,,,,,,,,,,,15,,74,0
37379,note_on,,0,0,16,,,,,,,,,,,,,,,,15,,55,0
37379,note_on,,59,0,16,,,,,,,,,,,,,,,,15,,47,0
37379,note_on,,59,0,13,,,,,,,,,,,,,,,,11,,74,0
37380,note_on,,0,0,16,,,,,,,,,,,,,,,,15,,55,72
37380,note_on,,0,0,16,,,,,,,,,,,,,,,,15,,67,72
37380,note_on,,0,0,16,,,,,,,,,,,,,,,,15,,62,72
37380,note_on,,1,0,7,,,,,,,,,,,,,,,,2,,43,72
37380,note_on,,1,0,13,,,,,,,,,,,,,,,,11,,71,72
37380,note_on,,1,0,14,,,,,,,,,,,,,,,,12,,62,72
37380,note_on,,0,0,16,,,,,,,,,,,,,,,,15,,71,72
37380,note_on,,1,0,16,,,,,,,,,,,,,,,,15,,43,72
37380,note_on,,1,0,15,,,,,,,,,,,,,,,,13,,43,72
37380,note_on,,1,0,12,,,,,,,,,,,,,,,,10,,77,72
37439,note_on,,59,0,12,,,,,,,,,,,,,,,,10,,77,0
37439,note_on,,59,0,14,,,,,,,,,,,,,,,,12,,62,0
37439,note_on,,59,0,13,,,,,,,,,,,,,,,,11,,71,0
37439,note_on,,59,0,7,,,,,,,,,,,,,,,,2,,43,0
37439,note_on,,59,0,16,,,,,,,,,,,,,,,,15,,43,0
37439,note_on,,59,0,15,,,,,,,,,,,,,,,,13,,43,0
37439,note_on,,0,0,16,,,,,,,,,,,,,,,,15,,71,0
37439,note_on,,0,0,16,,,,,,,,,,,,,,,,15,,67,0
37439,note_on,,0,0,16,,,,,,,,,,,,,,,,15,,62,0
37439,note_on,,0,0,16,,,,,,,,,,,,,,,,15,,55,0
37440,note_on,,1,0,14,,,,,,,,,,,,,,,,12,,64,72
37440,note_on,,1,0,16,,,,,,,,,,,,,,,,15,,48,72
37440,note_on,,0,0,16,,,,,,,,,,,,,,,,15,,67,72
37440,note_on,,0,0,16,,,,,,,,,,,,,,,,15,,64,72
37440,note_on,,0,0,16,,,,,,,,,,,,,,,,15,,55,72
37440,note_on,,1,0,13,,,,,,,,,,,,,,,,11,,67,72
37440,note_on,,1,0,7,,,,,,,,,,,,,,,,2,,48,72
37440,note_on,,0,0,16,,,,,,,,,,,,,,,,15,,60,72
37440,note_on,,1,0,15,,,,,,,,,,,,,,,,13,,48,72
37440,note_on,,1,0,12,,,,,,,,,,,,,,,,10,,76,72
37469,note_on,,29,0,12,,,,,,,,,,,,,,,,10,,76,0
37470,note_on,,1,0,12,,,,,,,,,,,,,,,,10,,77,72
37499,note_on,,59,0,15,,,,,,,,,,,,,,,,13,,48,0
37499,note_on,,59,0,7,,,,,,,,,,,,,,,,2,,48,0
37499,note_on,,59,0,14,,,,,,,,,,,,,,,,12,,64,0
37499,note_on,,59,0,13,,,,,,,,,,,,,,,,11,,67,0
37499,note_on,,29,0,12,,,,,,,,,,,,,,,,10,,77,0
37499,note_on,,59,0,16,,,,,,,,,,,,,,,,15,,48,0
37499,note_on,,0,0,16,,,,,,,,,,,,,,,,15,,55,0
37500,note_on,,181,0,9,,,,,,,,,,,,,,,,6,,71,88
37500,note_on,,1,0,15,,,,,,,,,,,,,,,,13,,48,72
37500,note_on,,181,0,10,,,,,,,,,,,,,,,,7,,64,88
37500,note_on,,1,0,14,,,,,,,,,,,,,,,,12,,67,72
37500,note_on,,181,0,8,,,,,,,,,,,,,,,,5,,74,88
37500,note_on,,1,0,7,,,,,,,,,,,,,,,,2,,48,72
37500,note_on,,181,0,6,,,,,,,,,,,,,,,,1,,74,72
37500,note_on,,181,0,5,,,,,,,,,,,,,,,,0,,74,72
37500,note_on,,181,0,11,,,,,,,,,,,,,,,,8,,48,88
37500,note_on,,1,0,16,,,,,,,,,,,,,,,,15,,48,72
37500,note_on,,1,0,12,,,,,,,,,,,,,,,,10,,74,72
37500,note_on,,1,0,13,,,,,,,,,,,,,,,,11,,71,72
37500,note_on,,0,0,16,,,,,,,,,,,,,,,,15,,55,72
37529,note_on,,29,0,12,,,,,,,,,,,,,,,,10,,74,0
37530,note_on,,1,0,12,,,,,,,,,,,,,,,,10,,76,72
37559,note_on,,0,0,16,,,,,,,,,,,,,,,,15,,48,0
37559,note_on,,0,0,16,,,,,,,,,,,,,,,,15,,60,0
37559,note_on,,0,0,16,,,,,,,,,,,,,,,,15,,64,0
37559,note_on,,0,0,16,,,,,,,,,,,,,,,,15,,55,0
37559,note_on,,59,0,16,,,,,,,,,,,,,,,,15,,67,0
37559,note_on,,59,0,10,,,,,,,,,,,,,,,,7,,64,0
37559,note_on,,59,0,14,,,,,,,,,,,,,,,,12,,67,0
37559,note_on,,59,0,7,,,,,,,,,,,,,,,,2,,48,0
37559,note_on,,59,0,11,,,,,,,,,,,,,,,,8,,48,0
37559,note_on,,59,0,5,,,,,,,,,,,,,,,,0,,74,0
37559,note_on,,59,0,8,,,,,,,,,,,,,,,,5,,74,0
37559,note_on,,59,0,6,,,,,,,,,,,,,,,,1,,74,0
37559,note_on,,59,0,9,,,,,,,,,,,,,,,,6,,71,0
37559,note_on,,59,0,15,,,,,,,,,,,,,,,,13,,48,0
37559,note_on,,29,0,12,,,,,,,,,,,,,,,,10,,76,0
37559,note_on,,59,0,13,,,,,,,,,,,,,,,,11,,71,0
37560,note_on,,1,0,10,,,,,,,,,,,,,,,,7,,64,88
37560,note_on,,1,0,5,,,,,,,,,,,,,,,,0,,72,72
37560,note_on,,1,0,6,,,,,,,,,,,,,,,,1,,72,72
37560,note_on,,1,0,14,,,,,,,,,,,,,,,,12,,64,72
37560,note_on,,0,0,16,,,,,,,,,,,,,,,,15,,72,72
37560,note_on,,1,0,9,,,,,,,,,,,,,,,,6,,69,88
37560,note_on,,1,0,16,,,,,,,,,,,,,,,,15,,48,72
37560,note_on,,1,0,13,,,,,,,,,,,,,,,,11,,69,72
37560,note_on,,1,0,7,,,,,,,,,,,,,,,,2,,48,72
37560,note_on,,1,0,8,,,,,,,,,,,,,,,,5,,72,88
37560,note_on,,1,0,11,,,,,,,,,,,,,,,,8,,48,88
37560,note_on,,0,0,16,,,,,,,,,,,,,,,,15,,52,72
37560,note_on,,0,0,16,,,,,,,,,,,,,,,,15,,64,72
37560,note_on,,0,0,16,,,,,,,,,,,,,,,,15,,69,72
37560,note_on,,1,0,12,,,,,,,,,,,,,,,,10,,72,72
37560,note_on,,1,0,15,,,,,,,,,,,,,,,,13,,48,72
37589,note_on,,29,0,12,,,,,,,,,,,,,,,,10,,72,0
37589,note_on,,29,0,13,,,,,,,,,,,,,,,,11,,69,0
37590,note_on,,1,0,13,,,,,,,,,,,,,,,,11,,71,72
37590,note_on,,1,0,12,,,,,,,,,,,,,,,,10,,74,72
37619,note_on,,59,0,8,,,,,,,,,,,,,,,,5,,72,0
37619,note_on,,59,0,9,,,,,,,,,,,,,,,,6,,69,0
37619,note_on,,59,0,6,,,,,,,,,,,,,,,,1,,72,0
37619,note_on,,59,0,15,,,,,,,,,,,,,,,,13,,48,0
37619,note_on,,59,0,10,,,,,,,,,,,,,,,,7,,64,0
37619,note_on,,29,0,13,,,,,,,,,,,,,,,,11,,71,0
37619,note_on,,59,0,14,,,,,,,,,,,,,,,,12,,64,0
37619,note_on,,59,0,5,,,,,,,,,,,,,,,,0,,72,0
37619,note_on,,59,0,11,,,,,,,,,,,,,,,,8,,48,0
37619,note_on,,59,0,7,,,,,,,,,,,,,,,,2,,48,0
37619,note_on,,29,0,12,,,,,,,,,,,,,,,,10,,74,0
37619,note_on,,0,0,16,,,,,,,,,,,,,,,,15,,52,0
37619,note_on,,59,0,16,,,,,,,,,,,,,,,,15,,48,0
37620,note_on,,1,0,6,,,,,,,,,,,,,,,,1,,71,72
37620,note_on,,1,0,7,,,,,,,,,,,,,,,,2,,48,72
37620,note_on,,1,0,8,,,,,,,,,,,,,,,,5,,71,88
37620,note_on,,0,0,16,,,,,,,,,,,,,,,,15,,52,72
37620,note_on,,1,0,16,,,,,,,,,,,,,,,,15,,48,72
37620,note_on,,1,0,14,,,,,,,,,,,,,,,,12,,64,72
37620,note_on,,1,0,5,,,,,,,,,,,,,,,,0,,71,72
37620,note_on,,1,0,15,,,,,,,,,,,,,,,,13,,48,72
37620,note_on,,1,0,11,,,,,,,,,,,,,,,,8,,48,88
37620,note_on,,1,0,12,,,,,,,,,,,,,,,,10,,71,72
37620,note_on,,1,0,10,,,,,,,,,,,,,,,,7,,64,88
37620,note_on,,1,0,13,,,,,,,,,,,,,,,,11,,67,72
37620,note_on,,1,0,9,,,,,,,,,,,,,,,,6,,67,88
37649,note_on,,29,0,13,,,,,,,,,,,,,,,,11,,67,0
37649,note_on,,29,0,12,,,,,,,,,,,,,,,,10,,71,0
37650,note_on,,1,0,13,,,,,,,,,,,,,,,,11,,69,72
37650,note_on,,1,0,12,,,,,,,,,,,,,,,,10,,72,72
37679,note_on,,59,0,5,,,,,,,,,,,,,,,,0,,71,0
37679,note_on,,59,0,7,,,,,,,,,,,,,,,,2,,48,0
37679,note_on,,29,0,12,,,,,,,,,,,,,,,,10,,72,0
37679,note_on,,59,0,6,,,,,,,,,,,,,,,,1,,71,0
37679,note_on,,59,0,10,,,,,,,,,,,,,,,,7,,64,0
37679,note_on,,59,0,14,,,,,,,,,,,,,,,,12,,64,0
37679,note_on,,59,0,16,,,,,,,,,,,,,,,,15,,72,0
37679,note_on,,0,0,16,,,,,,,,,,,,,,,,15,,69,0
37679,note_on,,29,0,13,,,,,,,,,,,,,,,,11,,69,0
37679,note_on,,59,0,11,,,,,,,,,,,,,,,,8,,48,0
37679,note_on,,59,0,9,,,,,,,,,,,,,,,,6,,67,0
37679,note_on,,0,0,16,,,,,,,,,,,,,,,,15,,52,0
37679,note_on,,0,0,16,,,,,,,,,,,,,,,,15,,48,0
37679,note_on,,59,0,15,,,,,,,,,,,,,,,,13,,48,0
37679,note_on,,0,0,16,,,,,,,,,,,,,,,,15,,64,0
37679,note_on,,59,0,8,,,,,,,,,,,,,,,,5,,71,0
37680,note_on,,0,0,16,,,,,,,,,,,,,,,,15,,50,72
37680,note_on,,1,0,11,,,,,,,,,,,,,,,,8,,50,88
37680,note_on,,1,0,10,,,,,,,,,,,,,,,,7,,57,88
37680,note_on,,1,0,14,,,,,,,,,,,,,,,,12,,57,72
37680,note_on,,1,0,9,,,,,,,,,,,,,,,,6,,66,88
37680,note_on,,1,0,13,,,,,,,,,,,,,,,,11,,66,72
37680,note_on,,1,0,12,,,,,,,,,,,,,,,,10,,69,72
37680,note_on,,1,0,8,,,,,,,,,,,,,,,,5,,69,88
37680,note_on,,1,0,6,,,,,,,,,,,,,,,,1,,69,72
37680,note_on,,1,0,16,,,,,,,,,,,,,,,,15,,62,72
37680,note_on,,1,0,15,,,,,,,,,,,,,,,,13,,50,72
37680,note_on,,1,0,7,,,,,,,,,,,,,,,,2,,50,72
37680,note_on,,1,0,5,,,,,,,,,,,,,,,,0,,69,72
37680,note_on,,0,0,16,,,,,,,,,,,,,,,,15,,57,72
37680,note_on,,0,0,16,,,,,,,,,,,,,,,,15,,66,72
37680,note_on,,0,0,16,,,,,,,,,,,,,,,,15,,69,72
37739,note_on,,59,0,12,,,,,,,,,,,,,,,,10,,69,0
37739,note_on,,59,0,13,,,,,,,,,,,,,,,,11,,66,0
37739,note_on,,59,0,9,,,,,,,,,,,,,,,,6,,66,0
37739,note_on,,59,0,10,,,,,,,,,,,,,,,,7,,57,0
37739,note_on,,59,0,7,,,,,,,,,,,,,,,,2,,50,0
37739,note_on,,59,0,15,,,,,,,,,,,,,,,,13,,50,0
37739,note_on,,59,0,6,,,,,,,,,,,,,,,,1,,69,0
37739,note_on,,59,0,8,,,,,,,,,,,,,,,,5,,69,0
37739,note_on,,59,0,16,,,,,,,,,,,,,,,,15,,50,0
37739,note_on,,59,0,11,,,,,,,,,,,,,,,,8,,50,0
37739,note_on,,59,0,5,,,,,,,,,,,,,,,,0,,69,0
37739,note_on,,59,0,14,,,,,,,,,,,,,,,,12,,57,0
37740,note_on,,1,0,5,,,,,,,,,,,,,,,,0,,69,72
37740,note_on,,1,0,16,,,,,,,,,,,,,,,,15,,50,72
37740,note_on,,1,0,11,,,,,,,,,,,,,,,,8,,50,88
37740,note_on,,1,0,10,,,,,,,,,,,,,,,,7,,57,88
37740,note_on,,1,0,15,,,,,,,,,,,,,,,,13,,50,72
37740,note_on,,1,0,13,,,,,,,,,,,,,,,,11,,66,72
37740,note_on,,1,0,12,,,,,,,,,,,,,,,,10,,62,72
37740,note_on,,1,0,9,,,,,,,,,,,,,,,,6,,66,88
37740,note_on,,1,0,6,,,,,,,,,,,,,,,,1,,69,72
37740,note_on,,1,0,8,,,,,,,,,,,,,,,,5,,69,88
37740,note_on,,1,0,14,,,,,,,,,,,,,,,,12,,62,72
37740,note_on,,1,0,7,,,,,,,,,,,,,,,,2,,50,72
37799,note_on,,59,0,14,,,,,,,,,,,,,,,,12,,62,0
37799,note_on,,59,0,13,,,,,,,,,,,,,,,,11,,66,0
37799,note_on,,59,0,7,,,,,,,,,,,,,,,,2,,50,0
37799,note_on,,59,0,15,,,,,,,,,,,,,,,,13,,50,0
37799,note_on,,59,0,11,,,,,,,,,,,,,,,,8,,50,0
37799,note_on,,59,0,12,,,,,,,,,,,,,,,,10,,62,0
37799,note_on,,0,0,16,,,,,,,,,,,,,,,,15,,69,0
37799,note_on,,0,0,16,,,,,,,,,,,,,,,,15,,66,0
37799,note_on,,59,0,9,,,,,,,,,,,,,,,,6,,66,0
37799,note_on,,59,0,6,,,,,,,,,,,,,,,,1,,69,0
37799,note_on,,0,0,16,,,,,,,,,,,,,,,,15,,50,0
37799,note_on,,59,0,10,,,,,,,,,,,,,,,,7,,57,0
37799,note_on,,0,0,16,,,,,,,,,,,,,,,,15,,57,0
37799,note_on,,59,0,5,,,,,,,,,,,,,,,,0,,69,0
37799,note_on,,59,0,8,,,,,,,,,,,,,,,,5,,69,0
37799,note_on,,59,0,16,,,,,,,,,,,,,,,,15,,62,0
37800,note_on,,0,0,16,,,,,,,,,,,,,,,,15,,47,72
37800,note_on,,1,0,7,,,,,,,,,,,,,,,,2,,47,72
37800,note_on,,1,0,12,,,,,,,,,,,,,,,,10,,67,72
37800,note_on,,0,0,16,,,,,,,,,,,,,,,,15,,59,72
37800,note_on,,0,0,16,,,,,,,,,,,,,,,,15,,62,72
37800,note_on,,1,0,5,,,,,,,,,,,,,,,,0,,67,72
37800,note_on,,1,0,16,,,,,,,,,,,,,,,,15,,67,72
37800,note_on,,1,0,6,,,,,,,,,,,,,,,,1,,67,72
37800,note_on,,1,0,15,,,,,,,,,,,,,,,,13,,47,72
37800,note_on,,1,0,8,,,,,,,,,,,,,,,,5,,67,88
37859,note_on,,59,0,15,,,,,,,,,,,,,,,,13,,47,0
37859,note_on,,59,0,16,,,,,,,,,,,,,,,,15,,47,0
37859,note_on,,59,0,7,,,,,,,,,,,,,,,,2,,47,0
37860,note_on,,1,0,15,,,,,,,,,,,,,,,,13,,43,72
37860,note_on,,1,0,16,,,,,,,,,,,,,,,,15,,43,72
37860,note_on,,1,0,7,,,,,,,,,,,,,,,,2,,43,72
37889,note_on,,89,0,8,,,,,,,,,,,,,,,,5,,67,0
37889,note_on,,89,0,6,,,,,,,,,,,,,,,,1,,67,0
37889,note_on,,89,0,5,,,,,,,,,,,,,,,,0,,67,0
37889,note_on,,89,0,12,,,,,,,,,,,,,,,,10,,67,0
37890,note_on,,1,0,6,,,,,,,,,,,,,,,,1,,71,72
37890,note_on,,1,0,5,,,,,,,,,,,,,,,,0,,71,72
37890,note_on,,1,0,12,,,,,,,,,,,,,,,,10,,71,72
37890,note_on,,1,0,8,,,,,,,,,,,,,,,,5,,71,88
37919,note_on,,0,0,16,,,,,,,,,,,,,,,,15,,43,0
37919,note_on,,29,0,8,,,,,,,,,,,,,,,,5,,71,0
37919,note_on,,0,0,16,,,,,,,,,,,,,,,,15,,62,0
37919,note_on,,0,0,16,,,,,,,,,,,,,,,,15,,59,0
37919,note_on,,29,0,12,,,,,,,,,,,,,,,,10,,71,0
37919,note_on,,59,0,16,,,,,,,,,,,,,,,,15,,67,0
37919,note_on,,59,0,7,,,,,,,,,,,,,,,,2,,43,0
37919,note_on,,29,0,6,,,,,,,,,,,,,,,,1,,71,0
37919,note_on,,29,0,5,,,,,,,,,,,,,,,,0,,71,0
37919,note_on,,59,0,15,,,,,,,,,,,,,,,,13,,43,0
37920,note_on,,1,0,8,,,,,,,,,,,,,,,,5,,69,88
37920,note_on,,1,0,12,,,,,,,,,,,,,,,,10,,69,72
37920,note_on,,0,0,16,,,,,,,,,,,,,,,,15,,62,72
37920,note_on,,1,0,15,,,,,,,,,,,,,,,,13,,54,72
37920,note_on,,1,0,7,,,,,,,,,,,,,,,,2,,54,72
37920,note_on,,1,0,6,,,,,,,,,,,,,,,,1,,69,72
37920,note_on,,0,0,16,,,,,,,,,,,,,,,,15,,69,72
37920,note_on,,1,0,16,,,,,,,,,,,,,,,,15,,54,72
37920,note_on,,1,0,5,,,,,,,,,,,,,,,,0,,69,72
37920,note_on,,0,0,16,,,,,,,,,,,,,,,,15,,57,72
37979,note_on,,59,0,16,,,,,,,,,,,,,,,,15,,54,0
37979,note_on,,59,0,7,,,,,,,,,,,,,,,,2,,54,0
37979,note_on,,59,0,15,,,,,,,,,,,,,,,,13,,54,0
37980,note_on,,1,0,16,,,,,,,,,,,,,,,,15,,50,72
37980,note_on,,1,0,15,,,,,,,,,,,,,,,,13,,50,72
37980,note_on,,1,0,7,,,,,,,,,,,,,,,,2,,50,72
38009,note_on,,89,0,5,,,,,,,,,,,,,,,,0,,69,0
38009,note_on,,89,0,12,,,,,,,,,,,,,,,,10,,69,0
38009,note_on,,89,0,6,,,,,,,,,,,,,,,,1,,69,0
38009,note_on,,89,0,8,,,,,,,,,,,,,,,,5,,69,0
38010,note_on,,1,0,8,,,,,,,,,,,,,,,,5,,72,88
38010,note_on,,1,0,12,,,,,,,,,,,,,,,,10,,72,72
38010,note_on,,1,0,6,,,,,,,,,,,,,,,,1,,72,72
38010,note_on,,1,0,5,,,,,,,,,,,,,,,,0,,72,72
38039,note_on,,59,0,15,,,,,,,,,,,,,,,,13,,50,0
38039,note_on,,0,0,16,,,,,,,,,,,,,,,,15,,50,0
38039,note_on,,0,0,16,,,,,,,,,,,,,,,,15,,57,0
38039,note_on,,0,0,16,,,,,,,,,,,,,,,,15,,62,0
38039,note_on,,59,0,16,,,,,,,,,,,,,,,,15,,69,0
38039,note_on,,29,0,5,,,,,,,,,,,,,,,,0,,72,0
38039,note_on,,59,0,7,,,,,,,,,,,,,,,,2,,50,0
38039,note_on,,29,0,8,,,,,,,,,,,,,,,,5,,72,0
38039,note_on,,29,0,12,,,,,,,,,,,,,,,,10,,72,0
38039,note_on,,29,0,6,,,,,,,,,,,,,,,,1,,72,0
38040,note_on,,1,0,15,,,,,,,,,,,,,,,,13,,55,72
38040,note_on,,241,0,13,,,,,,,,,,,,,,,,11,,74,72
38040,note_on,,1,0,7,,,,,,,,,,,,,,,,2,,55,72
38040,note_on,,1,0,6,,,,,,,,,,,,,,,,1,,71,72
38040,note_on,,1,0,16,,,,,,,,,,,,,,,,15,,62,72
38040,note_on,,0,0,16,,,,,,,,,,,,,,,,15,,71,72
38040,note_on,,1,0,12,,,,,,,,,,,,,,,,10,,71,72
38040,note_on,,1,0,5,,,,,,,,,,,,,,,,0,,71,72
38040,note_on,,0,0,16,,,,,,,,,,,,,,,,15,,67,72
38040,note_on,,0,0,16,,,,,,,,,,,,,,,,15,,55,72
38040,note_on,,241,0,9,,,,,,,,,,,,,,,,6,,62,88
38040,note_on,,1,0,8,,,,,,,,,,,,,,,,5,,71,88
38129,note_on,,89,0,6,,,,,,,,,,,,,,,,1,,71,0
38129,note_on,,89,0,13,,,,,,,,,,,,,,,,11,,74,0
38129,note_on,,89,0,12,,,,,,,,,,,,,,,,10,,71,0
38129,note_on,,89,0,9,,,,,,,,,,,,,,,,6,,62,0
38129,note_on,,89,0,5,,,,,,,,,,,,,,,,0,,71,0
38129,note_on,,89,0,8,,,,,,,,,,,,,,,,5,,71,0
38130,note_on,,1,0,6,,,,,,,,,,,,,,,,1,,74,72
38130,note_on,,1,0,9,,,,,,,,,,,,,,,,6,,66,88
38130,note_on,,1,0,12,,,,,,,,,,,,,,,,10,,74,72
38130,note_on,,1,0,5,,,,,,,,,,,,,,,,0,,74,72
38130,note_on,,1,0,13,,,,,,,,,,,,,,,,11,,78,72
38130,note_on,,1,0,8,,,,,,,,,,,,,,,,5,,74,88
38159,note_on,,119,0,15,,,,,,,,,,,,,,,,13,,55,0
38159,note_on,,119,0,7,,,,,,,,,,,,,,,,2,,55,0
38159,note_on,,29,0,12,,,,,,,,,,,,,,,,10,,74,0
38159,note_on,,119,0,16,,,,,,,,,,,,,,,,15,,62,0
38159,note_on,,29,0,9,,,,,,,,,,,,,,,,6,,66,0
38159,note_on,,0,0,16,,,,,,,,,,,,,,,,15,,71,0
38159,note_on,,0,0,16,,,,,,,,,,,,,,,,15,,67,0
38159,note_on,,29,0,8,,,,,,,,,,,,,,,,5,,74,0
38159,note_on,,29,0,5,,,,,,,,,,,,,,,,0,,74,0
38159,note_on,,29,0,13,,,,,,,,,,,,,,,,11,,78,0
38159,note_on,,0,0,16,,,,,,,,,,,,,,,,15,,55,0
38159,note_on,,29,0,6,,,,,,,,,,,,,,,,1,,74,0
38160,note_on,,1,0,15,,,,,,,,,,,,,,,,13,,48,72
38160,note_on,,1,0,16,,,,,,,,,,,,,,,,15,,48,72
38160,note_on,,0,0,16,,,,,,,,,,,,,,,,15,,72,72
38160,note_on,,1,0,5,,,,,,,,,,,,,,,,0,,72,72
38160,note_on,,1,0,8,,,,,,,,,,,,,,,,5,,72,88
38160,note_on,,1,0,13,,,,,,,,,,,,,,,,11,,76,72
38160,note_on,,1,0,12,,,,,,,,,,,,,,,,10,,72,72
38160,note_on,,1,0,6,,,,,,,,,,,,,,,,1,,72,72
38160,note_on,,0,0,16,,,,,,,,,,,,,,,,15,,55,72
38160,note_on,,0,0,16,,,,,,,,,,,,,,,,15,,64,72
38160,note_on,,0,0,16,,,,,,,,,,,,,,,,15,,67,72
38160,note_on,,1,0,9,,,,,,,,,,,,,,,,6,,64,88
38160,note_on,,1,0,7,,,,,,,,,,,,,,,,2,,48,72
38249,note_on,,89,0,6,,,,,,,,,,,,,,,,1,,72,0
38249,note_on,,89,0,13,,,,,,,,,,,,,,,,11,,76,0
38249,note_on,,89,0,5,,,,,,,,,,,,,,,,0,,72,0
38249,note_on,,89,0,9,,,,,,,,,,,,,,,,6,,64,0
38249,note_on,,89,0,12,,,,,,,,,,,,,,,,10,,72,0
38249,note_on,,89,0,8,,,,,,,,,,,,,,,,5,,72,0
38250,note_on,,1,0,5,,,,,,,,,,,,,,,,0,,76,72
38250,note_on,,1,0,8,,,,,,,,,,,,,,,,5,,76,88
38250,note_on,,1,0,6,,,,,,,,,,,,,,,,1,,76,72
38250,note_on,,1,0,13,,,,,,,,,,,,,,,,11,,79,72
38250,note_on,,1,0,12,,,,,,,,,,,,,,,,10,,76,72
38250,note_on,,1,0,9,,,,,,,,,,,,,,,,6,,67,88
38279,note_on,,29,0,5,,,,,,,,,,,,,,,,0,,76,0
38279,note_on,,29,0,6,,,,,,,,,,,,,,,,1,,76,0
38279,note_on,,119,0,15,,,,,,,,,,,,,,,,13,,48,0
38279,note_on,,29,0,8,,,,,,,,,,,,,,,,5,,76,0
38279,note_on,,119,0,7,,,,,,,,,,,,,,,,2,,48,0
38279,note_on,,0,0,16,,,,,,,,,,,,,,,,15,,55,0
38279,note_on,,0,0,16,,,,,,,,,,,,,,,,15,,64,0
38279,note_on,,0,0,16,,,,,,,,,,,,,,,,15,,67,0
38279,note_on,,29,0,12,,,,,,,,,,,,,,,,10,,76,0
38279,note_on,,0,0,16,,,,,,,,,,,,,,,,15,,72,0
38279,note_on,,119,0,16,,,,,,,,,,,,,,,,15,,48,0
38279,note_on,,29,0,13,,,,,,,,,,,,,,,,11,,79,0
38279,note_on,,29,0,9,,,,,,,,,,,,,,,,6,,67,0
38280,note_on,,1,0,13,,,,,,,,,,,,,,,,11,,78,72
38280,note_on,,1,0,15,,,,,,,,,,,,,,,,13,,50,72
38280,note_on,,0,0,16,,,,,,,,,,,,,,,,15,,62,72
38280,note_on,,1,0,8,,,,,,,,,,,,,,,,5,,69,88
38280,note_on,,1,0,5,,,,,,,,,,,,,,,,0,,69,72
38280,note_on,,0,0,16,,,,,,,,,,,,,,,,15,,54,72
38280,note_on,,0,0,16,,,,,,,,,,,,,,,,15,,69,72
38280,note_on,,1,0,7,,,,,,,,,,,,,,,,2,,50,72
38280,note_on,,1,0,16,,,,,,,,,,,,,,,,15,,50,72
38280,note_on,,1,0,12,,,,,,,,,,,,,,,,10,,69,72
38280,note_on,,1,0,9,,,,,,,,,,,,,,,,6,,66,88
38280,note_on,,1,0,6,,,,,,,,,,,,,,,,1,,69,72
38369,note_on,,89,0,5,,,,,,,,,,,,,,,,0,,69,0
38369,note_on,,89,0,9,,,,,,,,,,,,,,,,6,,66,0
38369,note_on,,89,0,13,,,,,,,,,,,,,,,,11,,78,0
38369,note_on,,89,0,12,,,,,,,,,,,,,,,,10,,69,0
38369,note_on,,89,0,6,,,,,,,,,,,,,,,,1,,69,0
38369,note_on,,89,0,8,,,,,,,,,,,,,,,,5,,69,0
38370,note_on,,1,0,13,,,,,,,,,,,,,,,,11,,81,72
38370,note_on,,1,0,5,,,,,,,,,,,,,,,,0,,72,72
38370,note_on,,1,0,12,,,,,,,,,,,,,,,,10,,72,72
38370,note_on,,1,0,6,,,,,,,,,,,,,,,,1,,72,72
38370,note_on,,1,0,9,,,,,,,,,,,,,,,,6,,69,88
38370,note_on,,1,0,8,,,,,,,,,,,,,,,,5,,72,88
38399,note_on,,29,0,5,,,,,,,,,,,,,,,,0,,72,0
38399,note_on,,29,0,12,,,,,,,,,,,,,,,,10,,72,0
38399,note_on,,29,0,6,,,,,,,,,,,,,,,,1,,72,0
38399,note_on,,119,0,7,,,,,,,,,,,,,,,,2,,50,0
38399,note_on,,29,0,9,,,,,,,,,,,,,,,,6,,69,0
38399,note_on,,119,0,16,,,,,,,,,,,,,,,,15,,50,0
38399,note_on,,0,0,16,,,,,,,,,,,,,,,,15,,62,0
38399,note_on,,0,0,16,,,,,,,,,,,,,,,,15,,54,0
38399,note_on,,0,0,16,,,,,,,,,,,,,,,,15,,69,0
38399,note_on,,29,0,13,,,,,,,,,,,,,,,,11,,81,0
38399,note_on,,119,0,15,,,,,,,,,,,,,,,,13,,50,0
38399,note_on,,29,0,8,,,,,,,,,,,,,,,,5,,72,0
38400,note_on,,1,0,9,,,,,,,,,,,,,,,,6,,67,88
38400,note_on,,1,0,16,,,,,,,,,,,,,,,,15,,43,72
38400,note_on,,0,0,16,,,,,,,,,,,,,,,,15,,55,72
38400,note_on,,1,0,13,,,,,,,,,,,,,,,,11,,79,72
38400,note_on,,1,0,15,,,,,,,,,,,,,,,,13,,43,72
38400,note_on,,1,0,7,,,,,,,,,,,,,,,,2,,43,72
38400,note_on,,0,0,16,,,,,,,,,,,,,,,,15,,62,72
38400,note_on,,1,0,8,,,,,,,,,,,,,,,,5,,71,88
38400,note_on,,1,0,5,,,,,,,,,,,,,,,,0,,71,72
38400,note_on,,0,0,16,,,,,,,,,,,,,,,,15,,67,72
38400,note_on,,1,0,6,,,,,,,,,,,,,,,,1,,71,72
38400,note_on,,0,0,16,,,,,,,,,,,,,,,,15,,71,72
38400,note_on,,1,0,12,,,,,,,,,,,,,,,,10,,71,72
38489,note_on,,89,0,5,,,,,,,,,,,,,,,,0,,71,0
38489,note_on,,89,0,9,,,,,,,,,,,,,,,,6,,67,0
38489,note_on,,89,0,8,,,,,,,,,,,,,,,,5,,71,0
38489,note_on,,89,0,13,,,,,,,,,,,,,,,,11,,79,0
38489,note_on,,89,0,6,,,,,,,,,,,,,,,,1,,71,0
38489,note_on,,89,0,12,,,,,,,,,,,,,,,,10,,71,0
38490,note_on,,1,0,12,,,,,,,,,,,,,,,,10,,74,72
38490,note_on,,1,0,8,,,,,,,,,,,,,,,,5,,74,88
38490,note_on,,1,0,6,,,,,,,,,,,,,,,,1,,74,72
38490,note_on,,1,0,9,,,,,,,,,,,,,,,,6,,71,88
38490,note_on,,1,0,5,,,,,,,,,,,,,,,,0,,74,72
38490,note_on,,1,0,13,,,,,,,,,,,,,,,,11,,83,72
38519,note_on,,29,0,12,,,,,,,,,,,,,,,,10,,74,0
38519,note_on,,29,0,6,,,,,,,,,,,,,,,,1,,74,0
38519,note_on,,29,0,9,,,,,,,,,,,,,,,,6,,71,0
38519,note_on,,119,0,7,,,,,,,,,,,,,,,,2,,43,0
38519,note_on,,0,0,16,,,,,,,,,,,,,,,,15,,55,0
38519,note_on,,29,0,8,,,,,,,,,,,,,,,,5,,74,0
38519,note_on,,29,0,13,,,,,,,,,,,,,,,,11,,83,0
38519,note_on,,0,0,16,,,,,,,,,,,,,,,,15,,62,0
38519,note_on,,29,0,5,,,,,,,,,,,,,,,,0,,74,0
38519,note_on,,119,0,16,,,,,,,,,,,,,,,,15,,43,0
38519,note_on,,0,0,16,,,,,,,,,,,,,,,,15,,71,0
38519,note_on,,0,0,16,,,,,,,,,,,,,,,,15,,67,0
38519,note_on,,119,0,15,,,,,,,,,,,,,,,,13,,43,0
38520,note_on,,1,0,12,,,,,,,,,,,,,,,,10,,72,72
38520,note_on,,1,0,8,,,,,,,,,,,,,,,,5,,72,88
38520,note_on,,0,0,16,,,,,,,,,,,,,,,,15,,57,72
38520,note_on,,0,0,16,,,,,,,,,,,,,,,,15,,60,72
38520,note_on,,1,0,9,,,,,,,,,,,,,,,,6,,69,88
38520,note_on,,1,0,13,,,,,,,,,,,,,,,,11,,81,72
38520,note_on,,1,0,6,,,,,,,,,,,,,,,,1,,72,72
38520,note_on,,0,0,16,,,,,,,,,,,,,,,,15,,64,72
38520,note_on,,0,0,16,,,,,,,,,,,,,,,,15,,69,72
38520,note_on,,1,0,16,,,,,,,,,,,,,,,,15,,48,72
38520,note_on,,1,0,5,,,,,,,,,,,,,,,,0,,72,72
38520,note_on,,1,0,7,,,,,,,,,,,,,,,,2,,48,72
38520,note_on,,1,0,15,,,,,,,,,,,,,,,,13,,48,72
38609,note_on,,89,0,9,,,,,,,,,,,,,,,,6,,69,0
38609,note_on,,89,0,6,,,,,,,,,,,,,,,,1,,72,0
38609,note_on,,89,0,13,,,,,,,,,,,,,,,,11,,81,0
38609,note_on,,89,0,8,,,,,,,,,,,,,,,,5,,72,0
38609,note_on,,89,0,5,,,,,,,,,,,,,,,,0,,72,0
38609,note_on,,89,0,12,,,,,,,,,,,,,,,,10,,72,0
38610,note_on,,1,0,5,,,,,,,,,,,,,,,,0,,76,72
38610,note_on,,1,0,13,,,,,,,,,,,,,,,,11,,79,72
38610,note_on,,1,0,12,,,,,,,,,,,,,,,,10,,76,72
38610,note_on,,1,0,6,,,,,,,,,,,,,,,,1,,76,72
38610,note_on,,1,0,9,,,,,,,,,,,,,,,,6,,67,88
38610,note_on,,1,0,8,,,,,,,,,,,,,,,,5,,76,88
38639,note_on,,29,0,13,,,,,,,,,,,,,,,,11,,79,0
38639,note_on,,29,0,8,,,,,,,,,,,,,,,,5,,76,0
38639,note_on,,29,0,9,,,,,,,,,,,,,,,,6,,67,0
38639,note_on,,29,0,5,,,,,,,,,,,,,,,,0,,76,0
38639,note_on,,29,0,12,,,,,,,,,,,,,,,,10,,76,0
38639,note_on,,119,0,7,,,,,,,,,,,,,,,,2,,48,0
38639,note_on,,0,0,16,,,,,,,,,,,,,,,,15,,57,0
38639,note_on,,29,0,6,,,,,,,,,,,,,,,,1,,76,0
38639,note_on,,0,0,16,,,,,,,,,,,,,,,,15,,60,0
38639,note_on,,0,0,16,,,,,,,,,,,,,,,,15,,64,0
38639,note_on,,0,0,16,,,,,,,,,,,,,,,,15,,69,0
38639,note_on,,119,0,16,,,,,,,,,,,,,,,,15,,48,0
38639,note_on,,119,0,15,,,,,,,,,,,,,,,,13,,48,0
38640,note_on,,0,0,16,,,,,,,,,,,,,,,,15,,66,72
38640,note_on,,1,0,8,,,,,,,,,,,,,,,,5,,74,88
38640,note_on,,1,0,16,,,,,,,,,,,,,,,,15,,62,72
38640,note_on,,1,0,5,,,,,,,,,,,,,,,,0,,74,72
38640,note_on,,1,0,12,,,,,,,,,,,,,,,,10,,74,72
38640,note_on,,0,0,16,,,,,,,,,,,,,,,,15,,57,72
38640,note_on,,0,0,16,,,,,,,,,,,,,,,,15,,50,72
38640,note_on,,1,0,7,,,,,,,,,,,,,,,,2,,50,72
38640,note_on,,1,0,9,,,,,,,,,,,,,,,,6,,66,88
38640,note_on,,1,0,15,,,,,,,,,,,,,,,,13,,50,72
38640,note_on,,1,0,13,,,,,,,,,,,,,,,,11,,78,72
38640,note_on,,1,0,6,,,,,,,,,,,,,,,,1,,74,72
38729,note_on,,89,0,9,,,,,,,,,,,,,,,,6,,66,0
38729,note_on,,89,0,13,,,,,,,,,,,,,,,,11,,78,0
38730,note_on,,1,0,9,,,,,,,,,,,,,,,,6,,64,88
38730,note_on,,1,0,13,,,,,,,,,,,,,,,,11,,76,72
38759,note_on,,29,0,13,,,,,,,,,,,,,,,,11,,76,0
38759,note_on,,0,0,16,,,,,,,,,,,,,,,,15,,66,0
38759,note_on,,119,0,15,,,,,,,,,,,,,,,,13,,50,0
38759,note_on,,29,0,9,,,,,,,,,,,,,,,,6,,64,0
38759,note_on,,0,0,16,,,,,,,,,,,,,,,,15,,50,0
38759,note_on,,119,0,16,,,,,,,,,,,,,,,,15,,62,0
38759,note_on,,119,0,7,,,,,,,,,,,,,,,,2,,50,0
38759,note_on,,0,0,16,,,,,,,,,,,,,,,,15,,57,0
38760,note_on,,1,0,9,,,,,,,,,,,,,,,,6,,62,88
38760,note_on,,1,0,16,,,,,,,,,,,,,,,,15,,50,72
38760,note_on,,0,0,16,,,,,,,,,,,,,,,,15,,54,72
38760,note_on,,0,0,16,,,,,,,,,,,,,,,,15,,74,72
38760,note_on,,0,0,16,,,,,,,,,,,,,,,,15,,62,72
38760,note_on,,961,0,10,,,,,,,,,,,,,,,,7,,54,88
38760,note_on,,1,0,15,,,,,,,,,,,,,,,,13,,50,72
38760,note_on,,1,0,7,,,,,,,,,,,,,,,,2,,50,72
38760,note_on,,1,0,13,,,,,,,,,,,,,,,,11,,74,72
38760,note_on,,961,0,14,,,,,,,,,,,,,,,,12,,66,72
38760,note_on,,961,0,11,,,,,,,,,,,,,,,,8,,50,88
38849,note_on,,89,0,16,,,,,,,,,,,,,,,,15,,50,0
38849,note_on,,89,0,15,,,,,,,,,,,,,,,,13,,50,0
38849,note_on,,89,0,10,,,,,,,,,,,,,,,,7,,54,0
38849,note_on,,89,0,14,,,,,,,,,,,,,,,,12,,66,0
38849,note_on,,89,0,11,,,,,,,,,,,,,,,,8,,50,0
38849,note_on,,89,0,7,,,,,,,,,,,,,,,,2,,50,0
38850,note_on,,1,0,11,,,,,,,,,,,,,,,,8,,54,88
38850,note_on,,1,0,10,,,,,,,,,,,,,,,,7,,57,88
38850,note_on,,1,0,7,,,,,,,,,,,,,,,,2,,54,72
38850,note_on,,1,0,15,,,,,,,,,,,,,,,,13,,54,72
38850,note_on,,1,0,14,,,,,,,,,,,,,,,,12,,69,72
38850,note_on,,1,0,16,,,,,,,,,,,,,,,,15,,54,72
38879,note_on,,239,0,8,,,,,,,,,,,,,,,,5,,74,0
38879,note_on,,29,0,14,,,,,,,,,,,,,,,,12,,69,0
38879,note_on,,119,0,9,,,,,,,,,,,,,,,,6,,62,0
38879,note_on,,239,0,6,,,,,,,,,,,,,,,,1,,74,0
38879,note_on,,29,0,11,,,,,,,,,,,,,,,,8,,54,0
38879,note_on,,119,0,13,,,,,,,,,,,,,,,,11,,74,0
38879,note_on,,29,0,15,,,,,,,,,,,,,,,,13,,54,0
38879,note_on,,0,0,16,,,,,,,,,,,,,,,,15,,54,0
38879,note_on,,29,0,16,,,,,,,,,,,,,,,,15,,54,0
38879,note_on,,29,0,7,,,,,,,,,,,,,,,,2,,54,0
38879,note_on,,29,0,10,,,,,,,,,,,,,,,,7,,57,0
38879,note_on,,239,0,5,,,,,,,,,,,,,,,,0,,74,0
38880,note_on,,0,0,16,,,,,,,,,,,,,,,,15,,55,72
38880,note_on,,1,0,11,,,,,,,,,,,,,,,,8,,52,88
38880,note_on,,1,0,15,,,,,,,,,,,,,,,,13,,52,72
38880,note_on,,1,0,10,,,,,,,,,,,,,,,,7,,55,88
38880,note_on,,1,0,6,,,,,,,,,,,,,,,,1,,74,72
38880,note_on,,1,0,7,,,,,,,,,,,,,,,,2,,52,72
38880,note_on,,1,0,5,,,,,,,,,,,,,,,,0,,74,72
38880,note_on,,1,0,8,,,,,,,,,,,,,,,,5,,74,88
38880,note_on,,1,0,14,,,,,,,,,,,,,,,,12,,67,72
38880,note_on,,1,0,16,,,,,,,,,,,,,,,,15,,52,72
38969,note_on,,89,0,15,,,,,,,,,,,,,,,,13,,52,0
38969,note_on,,89,0,7,,,,,,,,,,,,,,,,2,,52,0
38969,note_on,,89,0,11,,,,,,,,,,,,,,,,8,,52,0
38969,note_on,,89,0,14,,,,,,,,,,,,,,,,12,,67,0
38969,note_on,,89,0,10,,,,,,,,,,,,,,,,7,,55,0
38969,note_on,,89,0,16,,,,,,,,,,,,,,,,15,,52,0
38970,note_on,,1,0,14,,,,,,,,,,,,,,,,12,,71,72
38970,note_on,,1,0,10,,,,,,,,,,,,,,,,7,,59,88
38970,note_on,,1,0,11,,,,,,,,,,,,,,,,8,,55,88
38970,note_on,,1,0,16,,,,,,,,,,,,,,,,15,,55,72
38970,note_on,,1,0,15,,,,,,,,,,,,,,,,13,,55,72
38970,note_on,,1,0,7,,,,,,,,,,,,,,,,2,,55,72
38999,note_on,,119,0,5,,,,,,,,,,,,,,,,0,,74,0
38999,note_on,,119,0,6,,,,,,,,,,,,,,,,1,,74,0
38999,note_on,,29,0,7,,,,,,,,,,,,,,,,2,,55,0
38999,note_on,,0,0,16,,,,,,,,,,,,,,,,15,,62,0
38999,note_on,,29,0,15,,,,,,,,,,,,,,,,13,,55,0
38999,note_on,,29,0,11,,,,,,,,,,,,,,,,8,,55,0
38999,note_on,,119,0,8,,,,,,,,,,,,,,,,5,,74,0
38999,note_on,,29,0,16,,,,,,,,,,,,,,,,15,,74,0
38999,note_on,,29,0,14,,,,,,,,,,,,,,,,12,,71,0
38999,note_on,,359,0,12,,,,,,,,,,,,,,,,10,,74,0
38999,note_on,,0,0,16,,,,,,,,,,,,,,,,15,,55,0
38999,note_on,,0,0,16,,,,,,,,,,,,,,,,15,,55,0
38999,note_on,,29,0,10,,,,,,,,,,,,,,,,7,,59,0
39000,note_on,,1,0,14,,,,,,,,,,,,,,,,12,,69,72
39000,note_on,,1,0,12,,,,,,,,,,,,,,,,10,,84,72
39000,note_on,,1,0,11,,,,,,,,,,,,,,,,8,,54,88
39000,note_on,,121,0,9,,,,,,,,,,,,,,,,6,,69,88
39000,note_on,,1,0,6,,,,,,,,,,,,,,,,1,,72,72
39000,note_on,,1,0,10,,,,,,,,,,,,,,,,7,,57,88
39000,note_on,,1,0,8,,,,,,,,,,,,,,,,5,,72,88
39000,note_on,,121,0,13,,,,,,,,,,,,,,,,11,,81,72
39000,note_on,,1,0,7,,,,,,,,,,,,,,,,2,,54,72
39000,note_on,,1,0,15,,,,,,,,,,,,,,,,13,,54,72
39000,note_on,,1,0,16,,,,,,,,,,,,,,,,15,,54,72
39000,note_on,,1,0,5,,,,,,,,,,,,,,,,0,,72,72
39000,note_on,,0,0,16,,,,,,,,,,,,,,,,15,,62,72
39000,note_on,,0,0,16,,,,,,,,,,,,,,,,15,,69,72
39000,note_on,,0,0,16,,,,,,,,,,,,,,,,15,,57,72
39000,note_on,,0,0,16,,,,,,,,,,,,,,,,15,,72,72
39089,note_on,,89,0,14,,,,,,,,,,,,,,,,12,,69,0
39089,note_on,,89,0,9,,,,,,,,,,,,,,,,6,,69,0
39089,note_on,,89,0,10,,,,,,,,,,,,,,,,7,,57,0
39089,note_on,,89,0,16,,,,,,,,,,,,,,,,15,,54,0
39089,note_on,,89,0,7,,,,,,,,,,,,,,,,2,,54,0
39089,note_on,,89,0,8,,,,,,,,,,,,,,,,5,,72,0
39089,note_on,,89,0,15,,,,,,,,,,,,,,,,13,,54,0
39089,note_on,,89,0,13,,,,,,,,,,,,,,,,11,,81,0
39089,note_on,,89,0,12,,,,,,,,,,,,,,,,10,,84,0
39089,note_on,,89,0,11,,,,,,,,,,,,,,,,8,,54,0
39089,note_on,,89,0,6,,,,,,,,,,,,,,,,1,,72,0
39089,note_on,,89,0,5,,,,,,,,,,,,,,,,0,,72,0
39090,note_on,,1,0,14,,,,,,,,,,,,,,,,12,,72,72
39090,note_on,,1,0,12,,,,,,,,,,,,,,,,10,,81,72
39090,note_on,,1,0,10,,,,,,,,,,,,,,,,7,,60,88
39090,note_on,,1,0,9,,,,,,,,,,,,,,,,6,,66,88
39090,note_on,,1,0,16,,,,,,,,,,,,,,,,15,,57,72
39090,note_on,,1,0,7,,,,,,,,,,,,,,,,2,,57,72
39090,note_on,,1,0,6,,,,,,,,,,,,,,,,1,,69,72
39090,note_on,,1,0,15,,,,,,,,,,,,,,,,13,,57,72
39090,note_on,,1,0,11,,,,,,,,,,,,,,,,8,,57,88
39090,note_on,,1,0,13,,,,,,,,,,,,,,,,11,,78,72
39090,note_on,,1,0,5,,,,,,,,,,,,,,,,0,,69,72
39090,note_on,,1,0,8,,,,,,,,,,,,,,,,5,,69,88
39119,note_on,,0,0,16,,,,,,,,,,,,,,,,15,,69,0
39119,note_on,,0,0,16,,,,,,,,,,,,,,,,15,,62,0
39119,note_on,,0,0,16,,,,,,,,,,,,,,,,15,,57,0
39119,note_on,,29,0,12,,,,,,,,,,,,,,,,10,,81,0
39119,note_on,,29,0,5,,,,,,,,,,,,,,,,0,,69,0
39119,note_on,,29,0,16,,,,,,,,,,,,,,,,15,,57,0
39119,note_on,,29,0,6,,,,,,,,,,,,,,,,1,,69,0
39119,note_on,,29,0,14,,,,,,,,,,,,,,,,12,,72,0
39119,note_on,,0,0,16,,,,,,,,,,,,,,,,15,,72,0
39119,note_on,,29,0,9,,,,,,,,,,,,,,,,6,,66,0
39119,note_on,,29,0,11,,,,,,,,,,,,,,,,8,,57,0
39119,note_on,,29,0,15,,,,,,,,,,,,,,,,13,,57,0
39119,note_on,,29,0,7,,,,,,,,,,,,,,,,2,,57,0
39119,note_on,,29,0,8,,,,,,,,,,,,,,,,5,,69,0
39119,note_on,,29,0,10,,,,,,,,,,,,,,,,7,,60,0
39119,note_on,,29,0,13,,,,,,,,,,,,,,,,11,,78,0
39120,note_on,,1,0,8,,,,,,,,,,,,,,,,5,,71,88
39120,note_on,,1,0,9,,,,,,,,,,,,,,,,6,,62,88
39120,note_on,,1,0,6,,,,,,,,,,,,,,,,1,,71,72
39120,note_on,,1,0,11,,,,,,,,,,,,,,,,8,,55,88
39120,note_on,,1,0,7,,,,,,,,,,,,,,,,2,,55,72
39120,note_on,,1,0,14,,,,,,,,,,,,,,,,12,,71,72
39120,note_on,,1,0,13,,,,,,,,,,,,,,,,11,,74,72
39120,note_on,,1,0,10,,,,,,,,,,,,,,,,7,,59,88
39120,note_on,,0,0,16,,,,,,,,,,,,,,,,15,,62,72
39120,note_on,,1,0,12,,,,,,,,,,,,,,,,10,,83,72
39120,note_on,,1,0,5,,,,,,,,,,,,,,,,0,,71,72
39120,note_on,,1,0,16,,,,,,,,,,,,,,,,15,,55,72
39120,note_on,,0,0,16,,,,,,,,,,,,,,,,15,,59,72
39120,note_on,,0,0,16,,,,,,,,,,,,,,,,15,,71,72
39120,note_on,,1,0,15,,,,,,,,,,,,,,,,13,,55,72
39209,note_on,,89,0,11,,,,,,,,,,,,,,,,8,,55,0
39209,note_on,,89,0,13,,,,,,,,,,,,,,,,11,,74,0
39209,note_on,,89,0,5,,,,,,,,,,,,,,,,0,,71,0
39209,note_on,,89,0,7,,,,,,,,,,,,,,,,2,,55,0
39209,note_on,,89,0,16,,,,,,,,,,,,,,,,15,,55,0
39209,note_on,,89,0,15,,,,,,,,,,,,,,,,13,,55,0
39209,note_on,,89,0,8,,,,,,,,,,,,,,,,5,,71,0
39209,note_on,,89,0,9,,,,,,,,,,,,,,,,6,,62,0
39209,note_on,,89,0,14,,,,,,,,,,,,,,,,12,,71,0
39209,note_on,,89,0,12,,,,,,,,,,,,,,,,10,,83,0
39209,note_on,,89,0,10,,,,,,,,,,,,,,,,7,,59,0
39209,note_on,,89,0,6,,,,,,,,,,,,,,,,1,,71,0
39210,note_on,,1,0,6,,,,,,,,,,,,,,,,1,,67,72
39210,note_on,,1,0,9,,,,,,,,,,,,,,,,6,,67,88
39210,note_on,,1,0,14,,,,,,,,,,,,,,,,12,,62,72
39210,note_on,,1,0,7,,,,,,,,,,,,,,,,2,,59,72
39210,note_on,,1,0,12,,,,,,,,,,,,,,,,10,,79,72
39210,note_on,,1,0,5,,,,,,,,,,,,,,,,0,,67,72
39210,note_on,,1,0,10,,,,,,,,,,,,,,,,7,,62,88
39210,note_on,,1,0,13,,,,,,,,,,,,,,,,11,,67,72
39210,note_on,,1,0,11,,,,,,,,,,,,,,,,8,,59,88
39210,note_on,,1,0,16,,,,,,,,,,,,,,,,15,,59,72
39210,note_on,,1,0,8,,,,,,,,,,,,,,,,5,,67,88
39210,note_on,,1,0,15,,,,,,,,,,,,,,,,13,,59,72
39239,note_on,,29,0,16,,,,,,,,,,,,,,,,15,,59,0
39239,note_on,,29,0,7,,,,,,,,,,,,,,,,2,,59,0
39239,note_on,,0,0,16,,,,,,,,,,,,,,,,15,,59,0
39239,note_on,,29,0,13,,,,,,,,,,,,,,,,11,,67,0
39239,note_on,,29,0,11,,,,,,,,,,,,,,,,8,,59,0
39239,note_on,,29,0,10,,,,,,,,,,,,,,,,7,,62,0
39239,note_on,,29,0,15,,,,,,,,,,,,,,,,13,,59,0
39239,note_on,,0,0,16,,,,,,,,,,,,,,,,15,,62,0
39239,note_on,,29,0,12,,,,,,,,,,,,,,,,10,,79,0
39239,note_on,,29,0,9,,,,,,,,,,,,,,,,6,,67,0
39239,note_on,,29,0,14,,,,,,,,,,,,,,,,12,,62,0
39239,note_on,,29,0,5,,,,,,,,,,,,,,,,0,,67,0
39239,note_on,,29,0,6,,,,,,,,,,,,,,,,1,,67,0
39239,note_on,,29,0,8,,,,,,,,,,,,,,,,5,,67,0
39239,note_on,,0,0,16,,,,,,,,,,,,,,,,15,,71,0
39240,note_on,,1,0,15,,,,,,,,,,,,,,,,13,,57,72
39240,note_on,,1,0,12,,,,,,,,,,,,,,,,10,,84,72
39240,note_on,,1,0,14,,,,,,,,,,,,,,,,12,,60,72
39240,note_on,,1,0,5,,,,,,,,,,,,,,,,0,,72,72
39240,note_on,,1,0,11,,,,,,,,,,,,,,,,8,,57,88
39240,note_on,,1,0,13,,,,,,,,,,,,,,,,11,,78,72
39240,note_on,,1,0,8,,,,,,,,,,,,,,,,5,,72,88
39240,note_on,,1,0,7,,,,,,,,,,,,,,,,2,,57,72
39240,note_on,,1,0,10,,,,,,,,,,,,,,,,7,,60,88
39240,note_on,,1,0,16,,,,,,,,,,,,,,,,15,,57,72
39240,note_on,,0,0,16,,,,,,,,,,,,,,,,15,,60,72
39240,note_on,,0,0,16,,,,,,,,,,,,,,,,15,,69,72
39240,note_on,,1,0,9,,,,,,,,,,,,,,,,6,,66,88
39240,note_on,,0,0,16,,,,,,,,,,,,,,,,15,,66,72
39240,note_on,,1,0,6,,,,,,,,,,,,,,,,1,,72,72
39329,note_on,,89,0,13,,,,,,,,,,,,,,,,11,,78,0
39329,note_on,,89,0,11,,,,,,,,,,,,,,,,8,,57,0
39329,note_on,,89,0,5,,,,,,,,,,,,,,,,0,,72,0
39329,note_on,,89,0,16,,,,,,,,,,,,,,,,15,,57,0
39329,note_on,,89,0,14,,,,,,,,,,,,,,,,12,,60,0
39329,note_on,,89,0,8,,,,,,,,,,,,,,,,5,,72,0
39329,note_on,,89,0,6,,,,,,,,,,,,,,,,1,,72,0
39329,note_on,,89,0,15,,,,,,,,,,,,,,,,13,,57,0
39329,note_on,,89,0,9,,,,,,,,,,,,,,,,6,,66,0
39329,note_on,,89,0,12,,,,,,,,,,,,,,,,10,,84,0
39329,note_on,,89,0,10,,,,,,,,,,,,,,,,7,,60,0
39329,note_on,,89,0,7,,,,,,,,,,,,,,,,2,,57,0
39330,note_on,,1,0,14,,,,,,,,,,,,,,,,12,,64,72
39330,note_on,,1,0,16,,,,,,,,,,,,,,,,15,,60,72
39330,note_on,,1,0,8,,,,,,,,,,,,,,,,5,,69,88
39330,note_on,,1,0,7,,,,,,,,,,,,,,,,2,,60,72
39330,note_on,,1,0,13,,,,,,,,,,,,,,,,11,,69,72
39330,note_on,,1,0,11,,,,,,,,,,,,,,,,8,,60,88
39330,note_on,,1,0,10,,,,,,,,,,,,,,,,7,,64,88
39330,note_on,,1,0,5,,,,,,,,,,,,,,,,0,,69,72
39330,note_on,,1,0,9,,,,,,,,,,,,,,,,6,,69,88
39330,note_on,,1,0,6,,,,,,,,,,,,,,,,1,,69,72
39330,note_on,,1,0,12,,,,,,,,,,,,,,,,10,,81,72
39330,note_on,,1,0,15,,,,,,,,,,,,,,,,13,,60,72
39359,note_on,,29,0,11,,,,,,,,,,,,,,,,8,,60,0
39359,note_on,,29,0,6,,,,,,,,,,,,,,,,1,,69,0
39359,note_on,,29,0,13,,,,,,,,,,,,,,,,11,,69,0
39359,note_on,,29,0,10,,,,,,,,,,,,,,,,7,,64,0
39359,note_on,,29,0,16,,,,,,,,,,,,,,,,15,,60,0
39359,note_on,,29,0,15,,,,,,,,,,,,,,,,13,,60,0
39359,note_on,,0,0,16,,,,,,,,,,,,,,,,15,,69,0
39359,note_on,,29,0,8,,,,,,,,,,,,,,,,5,,69,0
39359,note_on,,0,0,16,,,,,,,,,,,,,,,,15,,66,0
39359,note_on,,0,0,16,,,,,,,,,,,,,,,,15,,60,0
39359,note_on,,29,0,14,,,,,,,,,,,,,,,,12,,64,0
39359,note_on,,29,0,9,,,,,,,,,,,,,,,,6,,69,0
39359,note_on,,29,0,5,,,,,,,,,,,,,,,,0,,69,0
39359,note_on,,29,0,7,,,,,,,,,,,,,,,,2,,60,0
39359,note_on,,29,0,12,,,,,,,,,,,,,,,,10,,81,0
39360,note_on,,1,0,16,,,,,,,,,,,,,,,,15,,59,72
39360,note_on,,0,0,16,,,,,,,,,,,,,,,,15,,67,72
39360,note_on,,0,0,16,,,,,,,,,,,,,,,,15,,62,72
39360,note_on,,1,0,6,,,,,,,,,,,,,,,,1,,74,72
39360,note_on,,1,0,11,,,,,,,,,,,,,,,,8,,59,88
39360,note_on,,1,0,13,,,,,,,,,,,,,,,,11,,79,72
39360,note_on,,1,0,9,,,,,,,,,,,,,,,,6,,67,88
39360,note_on,,1,0,10,,,,,,,,,,,,,,,,7,,62,88
39360,note_on,,1,0,15,,,,,,,,,,,,,,,,13,,59,72
39360,note_on,,1,0,8,,,,,,,,,,,,,,,,5,,74,88
39360,note_on,,1,0,14,,,,,,,,,,,,,,,,12,,62,72
39360,note_on,,1,0,5,,,,,,,,,,,,,,,,0,,74,72
39360,note_on,,1,0,7,,,,,,,,,,,,,,,,2,,59,72
39360,note_on,,1,0,12,,,,,,,,,,,,,,,,10,,86,72
39449,note_on,,89,0,8,,,,,,,,,,,,,,,,5,,74,0
39449,note_on,,89,0,15,,,,,,,,,,,,,,,,13,,59,0
39449,note_on,,89,0,9,,,,,,,,,,,,,,,,6,,67,0
39449,note_on,,89,0,7,,,,,,,,,,,,,,,,2,,59,0
39449,note_on,,0,0,16,,,,,,,,,,,,,,,,15,,67,0
39449,note_on,,89,0,13,,,,,,,,,,,,,,,,11,,79,0
39449,note_on,,89,0,6,,,,,,,,,,,,,,,,1,,74,0
39449,note_on,,89,0,12,,,,,,,,,,,,,,,,10,,86,0
39449,note_on,,89,0,11,,,,,,,,,,,,,,,,8,,59,0
39449,note_on,,0,0,16,,,,,,,,,,,,,,,,15,,62,0
39449,note_on,,89,0,5,,,,,,,,,,,,,,,,0,,74,0
39449,note_on,,89,0,10,,,,,,,,,,,,,,,,7,,62,0
39449,note_on,,89,0,16,,,,,,,,,,,,,,,,15,,59,0
39449,note_on,,89,0,14,,,,,,,,,,,,,,,,12,,62,0
39450,note_on,,0,0,16,,,,,,,,,,,,,,,,15,,62,72
39450,note_on,,1,0,14,,,,,,,,,,,,,,,,12,,62,72
39450,note_on,,1,0,10,,,,,,,,,,,,,,,,7,,59,88
39450,note_on,,1,0,12,,,,,,,,,,,,,,,,10,,86,72
39450,note_on,,1,0,9,,,,,,,,,,,,,,,,6,,67,88
39450,note_on,,1,0,15,,,,,,,,,,,,,,,,13,,55,72
39450,note_on,,0,0,16,,,,,,,,,,,,,,,,15,,67,72
39450,note_on,,1,0,13,,,,,,,,,,,,,,,,11,,83,72
39450,note_on,,0,0,16,,,,,,,,,,,,,,,,15,,74,72
39450,note_on,,1,0,6,,,,,,,,,,,,,,,,1,,74,72
39450,note_on,,1,0,11,,,,,,,,,,,,,,,,8,,55,88
39450,note_on,,1,0,5,,,,,,,,,,,,,,,,0,,74,72
39450,note_on,,1,0,7,,,,,,,,,,,,,,,,2,,55,72
39450,note_on,,0,0,16,,,,,,,,,,,,,,,,15,,71,72
39450,note_on,,1,0,8,,,,,,,,,,,,,,,,5,,74,88
39450,note_on,,1,0,16,,,,,,,,,,,,,,,,15,,55,72
39479,note_on,,0,0,16,,,,,,,,,,,,,,,,15,,62,0
39479,note_on,,29,0,12,,,,,,,,,,,,,,,,10,,86,0
39479,note_on,,29,0,6,,,,,,,,,,,,,,,,1,,74,0
39479,note_on,,29,0,11,,,,,,,,,,,,,,,,8,,55,0
39479,note_on,,29,0,5,,,,,,,,,,,,,,,,0,,74,0
39479,note_on,,29,0,13,,,,,,,,,,,,,,,,11,,83,0
39479,note_on,,29,0,16,,,,,,,,,,,,,,,,15,,55,0
39479,note_on,,29,0,7,,,,,,,,,,,,,,,,2,,55,0
39479,note_on,,0,0,16,,,,,,,,,,,,,,,,15,,67,0
39479,note_on,,0,0,16,,,,,,,,,,,,,,,,15,,74,0
39479,note_on,,29,0,10,,,,,,,,,,,,,,,,7,,59,0
39479,note_on,,29,0,9,,,,,,,,,,,,,,,,6,,67,0
39479,note_on,,29,0,15,,,,,,,,,,,,,,,,13,,55,0
39479,note_on,,0,0,16,,,,,,,,,,,,,,,,15,,71,0
39479,note_on,,29,0,8,,,,,,,,,,,,,,,,5,,74,0
39479,note_on,,29,0,14,,,,,,,,,,,,,,,,12,,62,0
39480,note_on,,0,0,16,,,,,,,,,,,,,,,,15,,72,72
39480,note_on,,1,0,14,,,,,,,,,,,,,,,,12,,64,72
39480,note_on,,1,0,7,,,,,,,,,,,,,,,,2,,60,72
39480,note_on,,1,0,11,,,,,,,,,,,,,,,,8,,60,88
39480,note_on,,1,0,13,,,,,,,,,,,,,,,,11,,81,72
39480,note_on,,0,0,16,,,,,,,,,,,,,,,,15,,64,72
39480,note_on,,1,0,10,,,,,,,,,,,,,,,,7,,64,88
39480,note_on,,1,0,6,,,,,,,,,,,,,,,,1,,72,72
39480,note_on,,1,0,16,,,,,,,,,,,,,,,,15,,60,72
39480,note_on,,1,0,12,,,,,,,,,,,,,,,,10,,84,72
39480,note_on,,1,0,9,,,,,,,,,,,,,,,,6,,69,88
39480,note_on,,0,0,16,,,,,,,,,,,,,,,,15,,69,72
39480,note_on,,1,0,15,,,,,,,,,,,,,,,,13,,60,72
39480,note_on,,1,0,5,,,,,,,,,,,,,,,,0,,72,72
39480,note_on,,1,0,8,,,,,,,,,,,,,,,,5,,72,88
39569,note_on,,89,0,9,,,,,,,,,,,,,,,,6,,69,0
39569,note_on,,89,0,7,,,,,,,,,,,,,,,,2,,60,0
39569,note_on,,0,0,16,,,,,,,,,,,,,,,,15,,64,0
39569,note_on,,89,0,13,,,,,,,,,,,,,,,,11,,81,0
39569,note_on,,89,0,14,,,,,,,,,,,,,,,,12,,64,0
39569,note_on,,0,0,16,,,,,,,,,,,,,,,,15,,69,0
39569,note_on,,89,0,8,,,,,,,,,,,,,,,,5,,72,0
39569,note_on,,89,0,16,,,,,,,,,,,,,,,,15,,60,0
39569,note_on,,89,0,5,,,,,,,,,,,,,,,,0,,72,0
39569,note_on,,89,0,12,,,,,,,,,,,,,,,,10,,84,0
39569,note_on,,89,0,10,,,,,,,,,,,,,,,,7,,64,0
39569,note_on,,89,0,11,,,,,,,,,,,,,,,,8,,60,0
39569,note_on,,89,0,6,,,,,,,,,,,,,,,,1,,72,0
39569,note_on,,89,0,15,,,,,,,,,,,,,,,,13,,60,0
39569,note_on,,0,0,16,,,,,,,,,,,,,,,,15,,72,0
39570,note_on,,1,0,5,,,,,,,,,,,,,,,,0,,71,72
39570,note_on,,1,0,7,,,,,,,,,,,,,,,,2,,57,72
39570,note_on,,1,0,11,,,,,,,,,,,,,,,,8,,57,88
39570,note_on,,1,0,13,,,,,,,,,,,,,,,,11,,79,72
39570,note_on,,1,0,6,,,,,,,,,,,,,,,,1,,71,72
39570,note_on,,1,0,14,,,,,,,,,,,,,,,,12,,64,72
39570,note_on,,1,0,16,,,,,,,,,,,,,,,,15,,57,72
39570,note_on,,1,0,15,,,,,,,,,,,,,,,,13,,57,72
39570,note_on,,0,0,16,,,,,,,,,,,,,,,,15,,71,72
39570,note_on,,1,0,10,,,,,,,,,,,,,,,,7,,64,88
39570,note_on,,1,0,9,,,,,,,,,,,,,,,,6,,67,88
39570,note_on,,0,0,16,,,,,,,,,,,,,,,,15,,67,72
39570,note_on,,0,0,16,,,,,,,,,,,,,,,,15,,60,72
39570,note_on,,1,0,12,,,,,,,,,,,,,,,,10,,83,72
39570,note_on,,1,0,8,,,,,,,,,,,,,,,,5,,71,88
39599,note_on,,29,0,13,,,,,,,,,,,,,,,,11,,79,0
39599,note_on,,29,0,6,,,,,,,,,,,,,,,,1,,71,0
39599,note_on,,29,0,12,,,,,,,,,,,,,,,,10,,83,0
39599,note_on,,29,0,10,,,,,,,,,,,,,,,,7,,64,0
39599,note_on,,29,0,11,,,,,,,,,,,,,,,,8,,57,0
39599,note_on,,29,0,14,,,,,,,,,,,,,,,,12,,64,0
39599,note_on,,29,0,5,,,,,,,,,,,,,,,,0,,71,0
39599,note_on,,29,0,8,,,,,,,,,,,,,,,,5,,71,0
39599,note_on,,0,0,16,,,,,,,,,,,,,,,,15,,71,0
39599,note_on,,29,0,16,,,,,,,,,,,,,,,,15,,57,0
39599,note_on,,29,0,9,,,,,,,,,,,,,,,,6,,67,0
39599,note_on,,0,0,16,,,,,,,,,,,,,,,,15,,60,0
39599,note_on,,29,0,15,,,,,,,,,,,,,,,,13,,57,0
39599,note_on,,0,0,16,,,,,,,,,,,,,,,,15,,67,0
39599,note_on,,29,0,7,,,,,,,,,,,,,,,,2,,57,0
39600,note_on,,1,0,12,,,,,,,,,,,,,,,,10,,81,72
39600,note_on,,1,0,11,,,,,,,,,,,,,,,,8,,62,88
39600,note_on,,0,0,16,,,,,,,,,,,,,,,,15,,62,72
39600,note_on,,0,0,16,,,,,,,,,,,,,,,,15,,66,72
39600,note_on,,1,0,9,,,,,,,,,,,,,,,,6,,66,88
39600,note_on,,1,0,10,,,,,,,,,,,,,,,,7,,66,88
39600,note_on,,1,0,7,,,,,,,,,,,,,,,,2,,62,72
39600,note_on,,0,0,16,,,,,,,,,,,,,,,,15,,69,72
39600,note_on,,1,0,5,,,,,,,,,,,,,,,,0,,69,72
39600,note_on,,1,0,14,,,,,,,,,,,,,,,,12,,66,72
39600,note_on,,1,0,13,,,,,,,,,,,,,,,,11,,78,72
39600,note_on,,1,0,15,,,,,,,,,,,,,,,,13,,62,72
39600,note_on,,1,0,6,,,,,,,,,,,,,,,,1,,69,72
39600,note_on,,1,0,16,,,,,,,,,,,,,,,,15,,62,72
39600,note_on,,1,0,8,,,,,,,,,,,,,,,,5,,69,88
39629,note_on,,29,0,13,,,,,,,,,,,,,,,,11,,78,0
39629,note_on,,29,0,12,,,,,,,,,,,,,,,,10,,81,0
39630,note_on,,1,0,12,,,,,,,,,,,,,,,,10,,74,72
39630,note_on,,1,0,13,,,,,,,,,,,,,,,,11,,78,72
39659,note_on,,29,0,13,,,,,,,,,,,,,,,,11,,78,0
39659,note_on,,59,0,10,,,,,,,,,,,,,,,,7,,66,0
39659,note_on,,59,0,8,,,,,,,,,,,,,,,,5,,69,0
39659,note_on,,59,0,7,,,,,,,,,,,,,,,,2,,62,0
39659,note_on,,59,0,11,,,,,,,,,,,,,,,,8,,62,0
39659,note_on,,59,0,6,,,,,,,,,,,,,,,,1,,69,0
39659,note_on,,59,0,16,,,,,,,,,,,,,,,,15,,62,0
39659,note_on,,59,0,9,,,,,,,,,,,,,,,,6,,66,0
39659,note_on,,59,0,15,,,,,,,,,,,,,,,,13,,62,0
39659,note_on,,59,0,5,,,,,,,,,,,,,,,,0,,69,0
39659,note_on,,59,0,14,,,,,,,,,,,,,,,,12,,66,0
39659,note_on,,29,0,12,,,,,,,,,,,,,,,,10,,74,0
39660,note_on,,1,0,12,,,,,,,,,,,,,,,,10,,76,72
39660,note_on,,1,0,11,,,,,,,,,,,,,,,,8,,50,88
39660,note_on,,1,0,15,,,,,,,,,,,,,,,,13,,50,72
39660,note_on,,1,0,7,,,,,,,,,,,,,,,,2,,50,72
39660,note_on,,1,0,5,,,,,,,,,,,,,,,,0,,69,72
39660,note_on,,1,0,8,,,,,,,,,,,,,,,,5,,69,88
39660,note_on,,1,0,13,,,,,,,,,,,,,,,,11,,79,72
39660,note_on,,1,0,6,,,,,,,,,,,,,,,,1,,69,72
39660,note_on,,1,0,9,,,,,,,,,,,,,,,,6,,66,88
39660,note_on,,1,0,14,,,,,,,,,,,,,,,,12,,62,72
39660,note_on,,1,0,10,,,,,,,,,,,,,,,,7,,62,88
39660,note_on,,1,0,16,,,,,,,,,,,,,,,,15,,50,72
39689,note_on,,29,0,12,,,,,,,,,,,,,,,,10,,76,0
39689,note_on,,29,0,13,,,,,,,,,,,,,,,,11,,79,0
39690,note_on,,1,0,12,,,,,,,,,,,,,,,,10,,78,72
39690,note_on,,1,0,13,,,,,,,,,,,,,,,,11,,81,72
39719,note_on,,59,0,15,,,,,,,,,,,,,,,,13,,50,0
39719,note_on,,59,0,9,,,,,,,,,,,,,,,,6,,66,0
39719,note_on,,59,0,14,,,,,,,,,,,,,,,,12,,62,0
39719,note_on,,59,0,6,,,,,,,,,,,,,,,,1,,69,0
39719,note_on,,0,0,16,,,,,,,,,,,,,,,,15,,50,0
39719,note_on,,0,0,16,,,,,,,,,,,,,,,,15,,62,0
39719,note_on,,59,0,7,,,,,,,,,,,,,,,,2,,50,0
39719,note_on,,59,0,11,,,,,,,,,,,,,,,,8,,50,0
39719,note_on,,29,0,13,,,,,,,,,,,,,,,,11,,81,0
39719,note_on,,59,0,16,,,,,,,,,,,,,,,,15,,69,0
39719,note_on,,59,0,8,,,,,,,,,,,,,,,,5,,69,0
39719,note_on,,59,0,10,,,,,,,,,,,,,,,,7,,62,0
39719,note_on,,29,0,12,,,,,,,,,,,,,,,,10,,78,0
39719,note_on,,0,0,16,,,,,,,,,,,,,,,,15,,66,0
39719,note_on,,59,0,5,,,,,,,,,,,,,,,,0,,69,0
39720,note_on,,1,0,16,,,,,,,,,,,,,,,,15,,47,72
39720,note_on,,1,0,11,,,,,,,,,,,,,,,,8,,59,88
39720,note_on,,0,0,16,,,,,,,,,,,,,,,,15,,71,72
39720,note_on,,0,0,16,,,,,,,,,,,,,,,,15,,67,72
39720,note_on,,0,0,16,,,,,,,,,,,,,,,,15,,62,72
39720,note_on,,1,0,7,,,,,,,,,,,,,,,,2,,47,72
39720,note_on,,1,0,12,,,,,,,,,,,,,,,,10,,79,72
39720,note_on,,1,0,9,,,,,,,,,,,,,,,,6,,67,88
39720,note_on,,1,0,10,,,,,,,,,,,,,,,,7,,62,88
39720,note_on,,1,0,5,,,,,,,,,,,,,,,,0,,74,72
39720,note_on,,1,0,13,,,,,,,,,,,,,,,,11,,74,72
39720,note_on,,1,0,8,,,,,,,,,,,,,,,,5,,74,88
39720,note_on,,1,0,14,,,,,,,,,,,,,,,,12,,74,72
39720,note_on,,1,0,6,,,,,,,,,,,,,,,,1,,74,72
39720,note_on,,1,0,15,,,,,,,,,,,,,,,,13,,47,72
39749,note_on,,29,0,12,,,,,,,,,,,,,,,,10,,79,0
39749,note_on,,29,0,13,,,,,,,,,,,,,,,,11,,74,0
39750,note_on,,1,0,13,,,,,,,,,,,,,,,,11,,78,72
39750,note_on,,1,0,12,,,,,,,,,,,,,,,,10,,81,72
39779,note_on,,0,0,16,,,,,,,,,,,,,,,,15,,71,0
39779,note_on,,29,0,13,,,,,,,,,,,,,,,,11,,78,0
39779,note_on,,59,0,9,,,,,,,,,,,,,,,,6,,67,0
39779,note_on,,0,0,16,,,,,,,,,,,,,,,,15,,67,0
39779,note_on,,0,0,16,,,,,,,,,,,,,,,,15,,62,0
39779,note_on,,59,0,16,,,,,,,,,,,,,,,,15,,47,0
39779,note_on,,59,0,5,,,,,,,,,,,,,,,,0,,74,0
39779,note_on,,59,0,10,,,,,,,,,,,,,,,,7,,62,0
39779,note_on,,59,0,8,,,,,,,,,,,,,,,,5,,74,0
39779,note_on,,29,0,12,,,,,,,,,,,,,,,,10,,81,0
39779,note_on,,59,0,11,,,,,,,,,,,,,,,,8,,59,0
39779,note_on,,59,0,7,,,,,,,,,,,,,,,,2,,47,0
39779,note_on,,59,0,6,,,,,,,,,,,,,,,,1,,74,0
39779,note_on,,59,0,15,,,,,,,,,,,,,,,,13,,47,0
39779,note_on,,59,0,14,,,,,,,,,,,,,,,,12,,74,0
39780,note_on,,0,0,16,,,,,,,,,,,,,,,,15,,62,72
39780,note_on,,0,0,16,,,,,,,,,,,,,,,,15,,67,72
39780,note_on,,1,0,5,,,,,,,,,,,,,,,,0,,74,72
39780,note_on,,0,0,16,,,,,,,,,,,,,,,,15,,74,72
39780,note_on,,1,0,16,,,,,,,,,,,,,,,,15,,43,72
39780,note_on,,1,0,11,,,,,,,,,,,,,,,,8,,55,88
39780,note_on,,1,0,12,,,,,,,,,,,,,,,,10,,83,72
39780,note_on,,1,0,15,,,,,,,,,,,,,,,,13,,43,72
39780,note_on,,1,0,6,,,,,,,,,,,,,,,,1,,74,72
39780,note_on,,1,0,13,,,,,,,,,,,,,,,,11,,79,72
39780,note_on,,1,0,7,,,,,,,,,,,,,,,,2,,43,72
39780,note_on,,1,0,10,,,,,,,,,,,,,,,,7,,67,88
39780,note_on,,1,0,8,,,,,,,,,,,,,,,,5,,74,88
39780,note_on,,1,0,14,,,,,,,,,,,,,,,,12,,74,72
39780,note_on,,1,0,9,,,,,,,,,,,,,,,,6,,71,88
39780,note_on,,0,0,16,,,,,,,,,,,,,,,,15,,71,72
39809,note_on,,29,0,12,,,,,,,,,,,,,,,,10,,83,0
39809,note_on,,29,0,13,,,,,,,,,,,,,,,,11,,79,0
39810,note_on,,1,0,13,,,,,,,,,,,,,,,,11,,81,72
39810,note_on,,1,0,12,,,,,,,,,,,,,,,,10,,84,72
39839,note_on,,59,0,5,,,,,,,,,,,,,,,,0,,74,0
39839,note_on,,29,0,13,,,,,,,,,,,,,,,,11,,81,0
39839,note_on,,59,0,14,,,,,,,,,,,,,,,,12,,74,0
39839,note_on,,0,0,16,,,,,,,,,,,,,,,,15,,62,0
39839,note_on,,0,0,16,,,,,,,,,,,,,,,,15,,67,0
39839,note_on,,59,0,8,,,,,,,,,,,,,,,,5,,74,0
39839,note_on,,0,0,16,,,,,,,,,,,,,,,,15,,71,0
39839,note_on,,0,0,16,,,,,,,,,,,,,,,,15,,74,0
39839,note_on,,29,0,12,,,,,,,,,,,,,,,,10,,84,0
39839,note_on,,59,0,10,,,,,,,,,,,,,,,,7,,67,0
39839,note_on,,59,0,7,,,,,,,,,,,,,,,,2,,43,0
39839,note_on,,59,0,6,,,,,,,,,,,,,,,,1,,74,0
39839,note_on,,59,0,11,,,,,,,,,,,,,,,,8,,55,0
39839,note_on,,59,0,15,,,,,,,,,,,,,,,,13,,43,0
39839,note_on,,59,0,16,,,,,,,,,,,,,,,,15,,43,0
39839,note_on,,59,0,9,,,,,,,,,,,,,,,,6,,71,0
39840,note_on,,1,0,7,,,,,,,,,,,,,,,,2,,50,72
39840,note_on,,1,0,6,,,,,,,,,,,,,,,,1,,74,72
39840,note_on,,1,0,8,,,,,,,,,,,,,,,,5,,74,88
39840,note_on,,1,0,14,,,,,,,,,,,,,,,,12,,74,72
39840,note_on,,1,0,15,,,,,,,,,,,,,,,,13,,50,72
39840,note_on,,1,0,13,,,,,,,,,,,,,,,,11,,78,72
39840,note_on,,1,0,16,,,,,,,,,,,,,,,,15,,50,72
39840,note_on,,1,0,11,,,,,,,,,,,,,,,,8,,62,88
39840,note_on,,1,0,10,,,,,,,,,,,,,,,,7,,66,88
39840,note_on,,1,0,5,,,,,,,,,,,,,,,,0,,74,72
39840,note_on,,0,0,16,,,,,,,,,,,,,,,,15,,62,72
39840,note_on,,1,0,12,,,,,,,,,,,,,,,,10,,81,72
39840,note_on,,1,0,9,,,,,,,,,,,,,,,,6,,69,88
39840,note_on,,0,0,16,,,,,,,,,,,,,,,,15,,66,72
39840,note_on,,0,0,16,,,,,,,,,,,,,,,,15,,69,72
39840,note_on,,0,0,16,,,,,,,,,,,,,,,,15,,74,72
39869,note_on,,29,0,12,,,,,,,,,,,,,,,,10,,81,0
39869,note_on,,29,0,13,,,,,,,,,,,,,,,,11,,78,0
39870,note_on,,1,0,13,,,,,,,,,,,,,,,,11,,78,72
39870,note_on,,1,0,12,,,,,,,,,,,,,,,,10,,74,72
39899,note_on,,29,0,12,,,,,,,,,,,,,,,,10,,74,0
39899,note_on,,29,0,13,,,,,,,,,,,,,,,,11,,78,0
39899,note_on,,59,0,15,,,,,,,,,,,,,,,,13,,50,0
39899,note_on,,59,0,16,,,,,,,,,,,,,,,,15,,50,0
39899,note_on,,59,0,7,,,,,,,,,,,,,,,,2,,50,0
39900,note_on,,1,0,15,,,,,,,,,,,,,,,,13,,62,72
39900,note_on,,1,0,16,,,,,,,,,,,,,,,,15,,62,72
39900,note_on,,1,0,7,,,,,,,,,,,,,,,,2,,62,72
39900,note_on,,1,0,12,,,,,,,,,,,,,,,,10,,76,72
39900,note_on,,1,0,13,,,,,,,,,,,,,,,,11,,79,72
39929,note_on,,29,0,13,,,,,,,,,,,,,,,,11,,79,0
39929,note_on,,29,0,12,,,,,,,,,,,,,,,,10,,76,0
39930,note_on,,1,0,13,,,,,,,,,,,,,,,,11,,81,72
39930,note_on,,1,0,12,,,,,,,,,,,,,,,,10,,78,72
39959,note_on,,0,0,16,,,,,,,,,,,,,,,,15,,62,0
39959,note_on,,119,0,8,,,,,,,,,,,,,,,,5,,74,0
39959,note_on,,119,0,14,,,,,,,,,,,,,,,,12,,74,0
39959,note_on,,29,0,12,,,,,,,,,,,,,,,,10,,78,0
39959,note_on,,119,0,5,,,,,,,,,,,,,,,,0,,74,0
39959,note_on,,59,0,15,,,,,,,,,,,,,,,,13,,62,0
39959,note_on,,119,0,6,,,,,,,,,,,,,,,,1,,74,0
39959,note_on,,119,0,9,,,,,,,,,,,,,,,,6,,69,0
39959,note_on,,119,0,10,,,,,,,,,,,,,,,,7,,66,0
39959,note_on,,119,0,11,,,,,,,,,,,,,,,,8,,62,0
39959,note_on,,59,0,16,,,,,,,,,,,,,,,,15,,74,0
39959,note_on,,0,0,16,,,,,,,,,,,,,,,,15,,69,0
39959,note_on,,0,0,16,,,,,,,,,,,,,,,,15,,66,0
39959,note_on,,0,0,16,,,,,,,,,,,,,,,,15,,62,0
39959,note_on,,59,0,7,,,,,,,,,,,,,,,,2,,62,0
39959,note_on,,29,0,13,,,,,,,,,,,,,,,,11,,81,0
39960,note_on,,0,0,16,,,,,,,,,,,,,,,,15,,71,72
39960,note_on,,1,0,12,,,,,,,,,,,,,,,,10,,79,72
39960,note_on,,1,0,11,,,,,,,,,,,,,,,,8,,59,88
39960,note_on,,1,0,10,,,,,,,,,,,,,,,,7,,62,88
39960,note_on,,1,0,9,,,,,,,,,,,,,,,,6,,67,88
39960,note_on,,1,0,8,,,,,,,,,,,,,,,,5,,74,88
39960,note_on,,1,0,7,,,,,,,,,,,,,,,,2,,59,72
39960,note_on,,1,0,6,,,,,,,,,,,,,,,,1,,74,72
39960,note_on,,1,0,5,,,,,,,,,,,,,,,,0,,74,72
39960,note_on,,0,0,16,,,,,,,,,,,,,,,,15,,74,72
39960,note_on,,1,0,13,,,,,,,,,,,,,,,,11,,74,72
39960,note_on,,1,0,16,,,,,,,,,,,,,,,,15,,59,72
39960,note_on,,0,0,16,,,,,,,,,,,,,,,,15,,67,72
39960,note_on,,0,0,16,,,,,,,,,,,,,,,,15,,62,72
39960,note_on,,1,0,14,,,,,,,,,,,,,,,,12,,62,72
39960,note_on,,1,0,15,,,,,,,,,,,,,,,,13,,59,72
39989,note_on,,29,0,13,,,,,,,,,,,,,,,,11,,74,0
39989,note_on,,29,0,12,,,,,,,,,,,,,,,,10,,79,0
39990,note_on,,1,0,13,,,,,,,,,,,,,,,,11,,78,72
39990,note_on,,1,0,12,,,,,,,,,,,,,,,,10,,81,72
40019,note_on,,59,0,10,,,,,,,,,,,,,,,,7,,62,0
40019,note_on,,59,0,14,,,,,,,,,,,,,,,,12,,62,0
40019,note_on,,59,0,8,,,,,,,,,,,,,,,,5,,74,0
40019,note_on,,59,0,5,,,,,,,,,,,,,,,,0,,74,0
40019,note_on,,59,0,6,,,,,,,,,,,,,,,,1,,74,0
40019,note_on,,59,0,9,,,,,,,,,,,,,,,,6,,67,0
40019,note_on,,59,0,15,,,,,,,,,,,,,,,,13,,59,0
40019,note_on,,29,0,13,,,,,,,,,,,,,,,,11,,78,0
40019,note_on,,59,0,7,,,,,,,,,,,,,,,,2,,59,0
40019,note_on,,59,0,11,,,,,,,,,,,,,,,,8,,59,0
40019,note_on,,29,0,12,,,,,,,,,,,,,,,,10,,81,0
40019,note_on,,59,0,16,,,,,,,,,,,,,,,,15,,59,0
40019,note_on,,0,0,16,,,,,,,,,,,,,,,,15,,71,0
40019,note_on,,0,0,16,,,,,,,,,,,,,,,,15,,67,0
40019,note_on,,0,0,16,,,,,,,,,,,,,,,,15,,62,0
40019,note_on,,0,0,16,,,,,,,,,,,,,,,,15,,74,0
40020,note_on,,0,0,16,,,,,,,,,,,,,,,,15,,71,72
40020,note_on,,1,0,8,,,,,,,,,,,,,,,,5,,74,88
40020,note_on,,0,0,16,,,,,,,,,,,,,,,,15,,74,72
40020,note_on,,1,0,12,,,,,,,,,,,,,,,,10,,83,72
40020,note_on,,0,0,16,,,,,,,,,,,,,,,,15,,62,72
40020,note_on,,1,0,11,,,,,,,,,,,,,,,,8,,55,88
40020,note_on,,0,0,16,,,,,,,,,,,,,,,,15,,79,72
40020,note_on,,1,0,6,,,,,,,,,,,,,,,,1,,74,72
40020,note_on,,1,0,14,,,,,,,,,,,,,,,,12,,74,72
40020,note_on,,1,0,5,,,,,,,,,,,,,,,,0,,74,72
40020,note_on,,1,0,16,,,,,,,,,,,,,,,,15,,55,72
40020,note_on,,1,0,9,,,,,,,,,,,,,,,,6,,71,88
40020,note_on,,1,0,10,,,,,,,,,,,,,,,,7,,67,88
40020,note_on,,1,0,15,,,,,,,,,,,,,,,,13,,55,72
40020,note_on,,1,0,13,,,,,,,,,,,,,,,,11,,79,72
40020,note_on,,1,0,7,,,,,,,,,,,,,,,,2,,55,72
40049,note_on,,29,0,12,,,,,,,,,,,,,,,,10,,83,0
40049,note_on,,29,0,13,,,,,,,,,,,,,,,,11,,79,0
40050,note_on,,1,0,12,,,,,,,,,,,,,,,,10,,84,72
40050,note_on,,1,0,13,,,,,,,,,,,,,,,,11,,81,72
40079,note_on,,59,0,5,,,,,,,,,,,,,,,,0,,74,0
40079,note_on,,59,0,6,,,,,,,,,,,,,,,,1,,74,0
40079,note_on,,0,0,16,,,,,,,,,,,,,,,,15,,62,0
40079,note_on,,59,0,8,,,,,,,,,,,,,,,,5,,74,0
40079,note_on,,29,0,12,,,,,,,,,,,,,,,,10,,84,0
40079,note_on,,59,0,15,,,,,,,,,,,,,,,,13,,55,0
40079,note_on,,59,0,16,,,,,,,,,,,,,,,,15,,55,0
40079,note_on,,59,0,14,,,,,,,,,,,,,,,,12,,74,0
40079,note_on,,0,0,16,,,,,,,,,,,,,,,,15,,79,0
40079,note_on,,0,0,16,,,,,,,,,,,,,,,,15,,74,0
40079,note_on,,0,0,16,,,,,,,,,,,,,,,,15,,71,0
40079,note_on,,59,0,9,,,,,,,,,,,,,,,,6,,71,0
40079,note_on,,59,0,11,,,,,,,,,,,,,,,,8,,55,0
40079,note_on,,59,0,10,,,,,,,,,,,,,,,,7,,67,0
40079,note_on,,59,0,7,,,,,,,,,,,,,,,,2,,55,0
40079,note_on,,29,0,13,,,,,,,,,,,,,,,,11,,81,0
40080,note_on,,1,0,13,,,,,,,,,,,,,,,,11,,78,72
40080,note_on,,1,0,7,,,,,,,,,,,,,,,,2,,62,72
40080,note_on,,1,0,6,,,,,,,,,,,,,,,,1,,74,72
40080,note_on,,1,0,8,,,,,,,,,,,,,,,,5,,74,88
40080,note_on,,1,0,12,,,,,,,,,,,,,,,,10,,81,72
40080,note_on,,1,0,14,,,,,,,,,,,,,,,,12,,74,72
40080,note_on,,1,0,9,,,,,,,,,,,,,,,,6,,69,88
40080,note_on,,1,0,10,,,,,,,,,,,,,,,,7,,66,88
40080,note_on,,1,0,5,,,,,,,,,,,,,,,,0,,74,72
40080,note_on,,1,0,15,,,,,,,,,,,,,,,,13,,62,72
40080,note_on,,1,0,11,,,,,,,,,,,,,,,,8,,62,88
40080,note_on,,0,0,16,,,,,,,,,,,,,,,,15,,69,72
40080,note_on,,0,0,16,,,,,,,,,,,,,,,,15,,74,72
40080,note_on,,0,0,16,,,,,,,,,,,,,,,,15,,62,72
40080,note_on,,0,0,16,,,,,,,,,,,,,,,,15,,78,72
40080,note_on,,1,0,16,,,,,,,,,,,,,,,,15,,62,72
40109,note_on,,29,0,13,,,,,,,,,,,,,,,,11,,78,0
40109,note_on,,29,0,12,,,,,,,,,,,,,,,,10,,81,0
40110,note_on,,1,0,12,,,,,,,,,,,,,,,,10,,74,72
40110,note_on,,1,0,13,,,,,,,,,,,,,,,,11,,78,72
40139,note_on,,59,0,5,,,,,,,,,,,,,,,,0,,74,0
40139,note_on,,29,0,12,,,,,,,,,,,,,,,,10,,74,0
40139,note_on,,59,0,9,,,,,,,,,,,,,,,,6,,69,0
40139,note_on,,59,0,16,,,,,,,,,,,,,,,,15,,62,0
40139,note_on,,59,0,14,,,,,,,,,,,,,,,,12,,74,0
40139,note_on,,59,0,10,,,,,,,,,,,,,,,,7,,66,0
40139,note_on,,59,0,8,,,,,,,,,,,,,,,,5,,74,0
40139,note_on,,59,0,6,,,,,,,,,,,,,,,,1,,74,0
40139,note_on,,29,0,13,,,,,,,,,,,,,,,,11,,78,0
40139,note_on,,59,0,7,,,,,,,,,,,,,,,,2,,62,0
40139,note_on,,59,0,15,,,,,,,,,,,,,,,,13,,62,0
40139,note_on,,59,0,11,,,,,,,,,,,,,,,,8,,62,0
40140,note_on,,1,0,16,,,,,,,,,,,,,,,,15,,50,72
40140,note_on,,1,0,15,,,,,,,,,,,,,,,,13,,50,72
40140,note_on,,1,0,5,,,,,,,,,,,,,,,,0,,74,72
40140,note_on,,1,0,9,,,,,,,,,,,,,,,,6,,69,88
40140,note_on,,1,0,13,,,,,,,,,,,,,,,,11,,79,72
40140,note_on,,1,0,8,,,,,,,,,,,,,,,,5,,74,88
40140,note_on,,1,0,12,,,,,,,,,,,,,,,,10,,76,72
40140,note_on,,1,0,14,,,,,,,,,,,,,,,,12,,69,72
40140,note_on,,1,0,6,,,,,,,,,,,,,,,,1,,74,72
40140,note_on,,1,0,10,,,,,,,,,,,,,,,,7,,66,88
40140,note_on,,1,0,7,,,,,,,,,,,,,,,,2,,50,72
40140,note_on,,1,0,11,,,,,,,,,,,,,,,,8,,50,88
40169,note_on,,29,0,13,,,,,,,,,,,,,,,,11,,79,0
40169,note_on,,29,0,12,,,,,,,,,,,,,,,,10,,76,0
40170,note_on,,1,0,12,,,,,,,,,,,,,,,,10,,78,72
40170,note_on,,1,0,13,,,,,,,,,,,,,,,,11,,81,72
40199,note_on,,59,0,14,,,,,,,,,,,,,,,,12,,69,0
40199,note_on,,0,0,16,,,,,,,,,,,,,,,,15,,50,0
40199,note_on,,0,0,16,,,,,,,,,,,,,,,,15,,62,0
40199,note_on,,0,0,16,,,,,,,,,,,,,,,,15,,69,0
40199,note_on,,0,0,16,,,,,,,,,,,,,,,,15,,74,0
40199,note_on,,59,0,16,,,,,,,,,,,,,,,,15,,78,0
40199,note_on,,29,0,13,,,,,,,,,,,,,,,,11,,81,0
40199,note_on,,59,0,7,,,,,,,,,,,,,,,,2,,50,0
40199,note_on,,59,0,9,,,,,,,,,,,,,,,,6,,69,0
40199,note_on,,59,0,15,,,,,,,,,,,,,,,,13,,50,0
40199,note_on,,59,0,5,,,,,,,,,,,,,,,,0,,74,0
40199,note_on,,59,0,8,,,,,,,,,,,,,,,,5,,74,0
40199,note_on,,59,0,6,,,,,,,,,,,,,,,,1,,74,0
40199,note_on,,59,0,11,,,,,,,,,,,,,,,,8,,50,0
40199,note_on,,59,0,10,,,,,,,,,,,,,,,,7,,66,0
40199,note_on,,29,0,12,,,,,,,,,,,,,,,,10,,78,0
40200,note_on,,1,0,13,,,,,,,,,,,,,,,,11,,79,72
40200,note_on,,1,0,12,,,,,,,,,,,,,,,,10,,79,72
40229,note_on,,29,0,13,,,,,,,,,,,,,,,,11,,79,0
40229,note_on,,29,0,12,,,,,,,,,,,,,,,,10,,79,0
40230,note_on,,1,0,13,,,,,,,,,,,,,,,,11,,78,72
40230,note_on,,1,0,12,,,,,,,,,,,,,,,,10,,81,72
40259,note_on,,29,0,12,,,,,,,,,,,,,,,,10,,81,0
40259,note_on,,29,0,13,,,,,,,,,,,,,,,,11,,78,0
40260,note_on,,1,0,12,,,,,,,,,,,,,,,,10,,83,72
40260,note_on,,1,0,13,,,,,,,,,,,,,,,,11,,79,72
40289,note_on,,29,0,12,,,,,,,,,,,,,,,,10,,83,0
40289,note_on,,29,0,13,,,,,,,,,,,,,,,,11,,79,0
40290,note_on,,1,0,13,,,,,,,,,,,,,,,,11,,81,72
40290,note_on,,1,0,12,,,,,,,,,,,,,,,,10,,84,72
40319,note_on,,29,0,13,,,,,,,,,,,,,,,,11,,81,0
40319,note_on,,29,0,12,,,,,,,,,,,,,,,,10,,84,0
40320,note_on,,1,0,13,,,,,,,,,,,,,,,,11,,83,72
40320,note_on,,121,0,15,,,,,,,,,,,,,,,,13,,55,72
40320,note_on,,121,0,11,,,,,,,,,,,,,,,,8,,55,88
40320,note_on,,121,0,6,,,,,,,,,,,,,,,,1,,74,72
40320,note_on,,121,0,10,,,,,,,,,,,,,,,,7,,67,88
40320,note_on,,1,0,12,,,,,,,,,,,,,,,,10,,86,72
40320,note_on,,121,0,8,,,,,,,,,,,,,,,,5,,74,88
40320,note_on,,121,0,5,,,,,,,,,,,,,,,,0,,74,72
40320,note_on,,0,0,16,,,,,,,,,,,,,,,,15,,55,72
40320,note_on,,0,0,16,,,,,,,,,,,,,,,,15,,71,72
40320,note_on,,0,0,16,,,,,,,,,,,,,,,,15,,74,72
40320,note_on,,121,0,7,,,,,,,,,,,,,,,,2,,55,72
40320,note_on,,0,0,16,,,,,,,,,,,,,,,,15,,79,72
40320,note_on,,121,0,9,,,,,,,,,,,,,,,,6,,71,88
40320,note_on,,121,0,16,,,,,,,,,,,,,,,,15,,55,72
40320,note_on,,121,0,14,,,,,,,,,,,,,,,,12,,67,72
40349,note_on,,29,0,12,,,,,,,,,,,,,,,,10,,86,0
40349,note_on,,29,0,13,,,,,,,,,,,,,,,,11,,83,0
40350,note_on,,1,0,12,,,,,,,,,,,,,,,,10,,84,72
40350,note_on,,1,0,13,,,,,,,,,,,,,,,,11,,81,72
40379,note_on,,29,0,13,,,,,,,,,,,,,,,,11,,81,0
40379,note_on,,29,0,12,,,,,,,,,,,,,,,,10,,84,0
40380,note_on,,1,0,13,,,,,,,,,,,,,,,,11,,83,72
40380,note_on,,1,0,12,,,,,,,,,,,,,,,,10,,86,72
40409,note_on,,29,0,12,,,,,,,,,,,,,,,,10,,86,0
40409,note_on,,89,0,8,,,,,,,,,,,,,,,,5,,74,0
40409,note_on,,89,0,5,,,,,,,,,,,,,,,,0,,74,0
40409,note_on,,89,0,9,,,,,,,,,,,,,,,,6,,71,0
40409,note_on,,89,0,14,,,,,,,,,,,,,,,,12,,67,0
40409,note_on,,89,0,6,,,,,,,,,,,,,,,,1,,74,0
40409,note_on,,89,0,10,,,,,,,,,,,,,,,,7,,67,0
40409,note_on,,89,0,11,,,,,,,,,,,,,,,,8,,55,0
40409,note_on,,89,0,15,,,,,,,,,,,,,,,,13,,55,0
40409,note_on,,89,0,16,,,,,,,,,,,,,,,,15,,55,0
40409,note_on,,89,0,7,,,,,,,,,,,,,,,,2,,55,0
40409,note_on,,29,0,13,,,,,,,,,,,,,,,,11,,83,0
40410,note_on,,1,0,6,,,,,,,,,,,,,,,,1,,72,72
40410,note_on,,1,0,12,,,,,,,,,,,,,,,,10,,84,72
40410,note_on,,1,0,10,,,,,,,,,,,,,,,,7,,62,88
40410,note_on,,1,0,7,,,,,,,,,,,,,,,,2,,43,72
40410,note_on,,1,0,15,,,,,,,,,,,,,,,,13,,43,72
40410,note_on,,1,0,11,,,,,,,,,,,,,,,,8,,55,88
40410,note_on,,1,0,5,,,,,,,,,,,,,,,,0,,72,72
40410,note_on,,1,0,14,,,,,,,,,,,,,,,,12,,62,72
40410,note_on,,1,0,16,,,,,,,,,,,,,,,,15,,43,72
40410,note_on,,1,0,8,,,,,,,,,,,,,,,,5,,72,88
40410,note_on,,1,0,9,,,,,,,,,,,,,,,,6,,69,88
40410,note_on,,1,0,13,,,,,,,,,,,,,,,,11,,81,72
40439,note_on,,29,0,13,,,,,,,,,,,,,,,,11,,81,0
40439,note_on,,29,0,15,,,,,,,,,,,,,,,,13,,43,0
40439,note_on,,29,0,7,,,,,,,,,,,,,,,,2,,43,0
40439,note_on,,29,0,16,,,,,,,,,,,,,,,,15,,55,0
40439,note_on,,0,0,16,,,,,,,,,,,,,,,,15,,43,0
40439,note_on,,29,0,10,,,,,,,,,,,,,,,,7,,62,0
40439,note_on,,29,0,14,,,,,,,,,,,,,,,,12,,62,0
40439,note_on,,29,0,8,,,,,,,,,,,,,,,,5,,72,0
40439,note_on,,29,0,6,,,,,,,,,,,,,,,,1,,72,0
40439,note_on,,29,0,9,,,,,,,,,,,,,,,,6,,69,0
40439,note_on,,29,0,12,,,,,,,,,,,,,,,,10,,84,0
40439,note_on,,29,0,5,,,,,,,,,,,,,,,,0,,72,0
40439,note_on,,29,0,11,,,,,,,,,,,,,,,,8,,55,0
40440,note_on,,1,0,16,,,,,,,,,,,,,,,,15,,43,72
40440,note_on,,1,0,9,,,,,,,,,,,,,,,,6,,67,88
40440,note_on,,1,0,7,,,,,,,,,,,,,,,,2,,43,72
40440,note_on,,1,0,11,,,,,,,,,,,,,,,,8,,55,88
40440,note_on,,1,0,14,,,,,,,,,,,,,,,,12,,62,72
40440,note_on,,1,0,8,,,,,,,,,,,,,,,,5,,71,88
40440,note_on,,1,0,10,,,,,,,,,,,,,,,,7,,62,88
40440,note_on,,1,0,15,,,,,,,,,,,,,,,,13,,43,72
40440,note_on,,1,0,12,,,,,,,,,,,,,,,,10,,83,72
40440,note_on,,1,0,13,,,,,,,,,,,,,,,,11,,79,72
40440,note_on,,1,0,6,,,,,,,,,,,,,,,,1,,71,72
40440,note_on,,1,0,5,,,,,,,,,,,,,,,,0,,71,72
40469,note_on,,29,0,13,,,,,,,,,,,,,,,,11,,79,0
40469,note_on,,29,0,12,,,,,,,,,,,,,,,,10,,83,0
40470,note_on,,1,0,13,,,,,,,,,,,,,,,,11,,81,72
40470,note_on,,1,0,12,,,,,,,,,,,,,,,,10,,84,72
40499,note_on,,29,0,13,,,,,,,,,,,,,,,,11,,81,0
40499,note_on,,29,0,12,,,,,,,,,,,,,,,,10,,84,0
40500,note_on,,1,0,12,,,,,,,,,,,,,,,,10,,83,72
40500,note_on,,1,0,13,,,,,,,,,,,,,,,,11,,79,72
40529,note_on,,29,0,12,,,,,,,,,,,,,,,,10,,83,0
40529,note_on,,29,0,13,,,,,,,,,,,,,,,,11,,79,0
40530,note_on,,1,0,13,,,,,,,,,,,,,,,,11,,81,72
40530,note_on,,1,0,12,,,,,,,,,,,,,,,,10,,84,72
40559,note_on,,119,0,8,,,,,,,,,,,,,,,,5,,71,0
40559,note_on,,119,0,15,,,,,,,,,,,,,,,,13,,43,0
40559,note_on,,119,0,14,,,,,,,,,,,,,,,,12,,62,0
40559,note_on,,119,0,6,,,,,,,,,,,,,,,,1,,71,0
40559,note_on,,119,0,7,,,,,,,,,,,,,,,,2,,43,0
40559,note_on,,119,0,9,,,,,,,,,,,,,,,,6,,67,0
40559,note_on,,0,0,16,,,,,,,,,,,,,,,,15,,43,0
40559,note_on,,119,0,11,,,,,,,,,,,,,,,,8,,55,0
40559,note_on,,119,0,16,,,,,,,,,,,,,,,,15,,79,0
40559,note_on,,0,0,16,,,,,,,,,,,,,,,,15,,71,0
40559,note_on,,119,0,10,,,,,,,,,,,,,,,,7,,62,0
40559,note_on,,0,0,16,,,,,,,,,,,,,,,,15,,74,0
40559,note_on,,119,0,5,,,,,,,,,,,,,,,,0,,71,0
40559,note_on,,29,0,12,,,,,,,,,,,,,,,,10,,84,0
40559,note_on,,29,0,13,,,,,,,,,,,,,,,,11,,81,0
40560,note_on,,1,0,12,,,,,,,,,,,,,,,,10,,86,72
40560,note_on,,1,0,13,,,,,,,,,,,,,,,,11,,83,72
40589,note_on,,29,0,12,,,,,,,,,,,,,,,,10,,86,0
40589,note_on,,29,0,13,,,,,,,,,,,,,,,,11,,83,0
40590,note_on,,1,0,12,,,,,,,,,,,,,,,,10,,84,72
40590,note_on,,1,0,13,,,,,,,,,,,,,,,,11,,81,72
40619,note_on,,29,0,13,,,,,,,,,,,,,,,,11,,81,0
40619,note_on,,29,0,12,,,,,,,,,,,,,,,,10,,84,0
40620,note_on,,1,0,13,,,,,,,,,,,,,,,,11,,83,72
40620,note_on,,1,0,12,,,,,,,,,,,,,,,,10,,86,72
40649,note_on,,29,0,12,,,,,,,,,,,,,,,,10,,86,0
40649,note_on,,29,0,13,,,,,,,,,,,,,,,,11,,83,0
40650,note_on,,1,0,12,,,,,,,,,,,,,,,,10,,84,72
40650,note_on,,1,0,13,,,,,,,,,,,,,,,,11,,81,72
40679,note_on,,29,0,12,,,,,,,,,,,,,,,,10,,84,0
40679,note_on,,29,0,13,,,,,,,,,,,,,,,,11,,81,0
40680,note_on,,1,0,13,,,,,,,,,,,,,,,,11,,79,72
40680,note_on,,1,0,12,,,,,,,,,,,,,,,,10,,83,72
40709,note_on,,29,0,12,,,,,,,,,,,,,,,,10,,83,0
40709,note_on,,29,0,13,,,,,,,,,,,,,,,,11,,79,0
40710,note_on,,1,0,12,,,,,,,,,,,,,,,,10,,84,72
40710,note_on,,1,0,13,,,,,,,,,,,,,,,,11,,81,72
40739,note_on,,29,0,12,,,,,,,,,,,,,,,,10,,84,0
40739,note_on,,29,0,13,,,,,,,,,,,,,,,,11,,81,0
40740,note_on,,1,0,12,,,,,,,,,,,,,,,,10,,83,72
40740,note_on,,1,0,13,,,,,,,,,,,,,,,,11,,79,72
40769,note_on,,29,0,13,,,,,,,,,,,,,,,,11,,79,0
40769,note_on,,29,0,12,,,,,,,,,,,,,,,,10,,83,0
40770,note_on,,1,0,12,,,,,,,,,,,,,,,,10,,84,72
40770,note_on,,1,0,13,,,,,,,,,,,,,,,,11,,81,72
40799,note_on,,29,0,12,,,,,,,,,,,,,,,,10,,84,0
40799,note_on,,29,0,13,,,,,,,,,,,,,,,,11,,81,0
40800,note_on,,241,0,10,,,,,,,,,,,,,,,,7,,67,88
40800,note_on,,241,0,15,,,,,,,,,,,,,,,,13,,55,72
40800,note_on,,1,0,13,,,,,,,,,,,,,,,,11,,83,72
40800,note_on,,0,0,16,,,,,,,,,,,,,,,,15,,83,72
40800,note_on,,241,0,9,,,,,,,,,,,,,,,,6,,71,88
40800,note_on,,0,0,16,,,,,,,,,,,,,,,,15,,79,72
40800,note_on,,0,0,16,,,,,,,,,,,,,,,,15,,74,72
40800,note_on,,241,0,7,,,,,,,,,,,,,,,,2,,55,72
40800,note_on,,241,0,6,,,,,,,,,,,,,,,,1,,74,72
40800,note_on,,0,0,16,,,,,,,,,,,,,,,,15,,62,72
40800,note_on,,241,0,5,,,,,,,,,,,,,,,,0,,74,72
40800,note_on,,241,0,11,,,,,,,,,,,,,,,,8,,55,88
40800,note_on,,241,0,8,,,,,,,,,,,,,,,,5,,74,88
40800,note_on,,0,0,16,,,,,,,,,,,,,,,,15,,71,72
40800,note_on,,241,0,14,,,,,,,,,,,,,,,,12,,67,72
40800,note_on,,241,0,16,,,,,,,,,,,,,,,,15,,55,72
40800,note_on,,1,0,12,,,,,,,,,,,,,,,,10,,86,72
40829,note_on,,29,0,12,,,,,,,,,,,,,,,,10,,86,0
40829,note_on,,29,0,13,,,,,,,,,,,,,,,,11,,83,0
40830,note_on,,1,0,13,,,,,,,,,,,,,,,,11,,81,72
40830,note_on,,1,0,12,,,,,,,,,,,,,,,,10,,84,72
40859,note_on,,29,0,12,,,,,,,,,,,,,,,,10,,84,0
40859,note_on,,29,0,13,,,,,,,,,,,,,,,,11,,81,0
40860,note_on,,1,0,12,,,,,,,,,,,,,,,,10,,86,72
40860,note_on,,1,0,13,,,,,,,,,,,,,,,,11,,83,72
40889,note_on,,89,0,11,,,,,,,,,,,,,,,,8,,55,0
40889,note_on,,29,0,12,,,,,,,,,,,,,,,,10,,86,0
40889,note_on,,89,0,6,,,,,,,,,,,,,,,,1,,74,0
40889,note_on,,89,0,7,,,,,,,,,,,,,,,,2,,55,0
40889,note_on,,0,0,16,,,,,,,,,,,,,,,,15,,62,0
40889,note_on,,29,0,13,,,,,,,,,,,,,,,,11,,83,0
40889,note_on,,89,0,5,,,,,,,,,,,,,,,,0,,74,0
40889,note_on,,89,0,16,,,,,,,,,,,,,,,,15,,55,0
40889,note_on,,89,0,8,,,,,,,,,,,,,,,,5,,74,0
40889,note_on,,89,0,14,,,,,,,,,,,,,,,,12,,67,0
40889,note_on,,89,0,9,,,,,,,,,,,,,,,,6,,71,0
40889,note_on,,89,0,15,,,,,,,,,,,,,,,,13,,55,0
40889,note_on,,89,0,10,,,,,,,,,,,,,,,,7,,67,0
40890,note_on,,1,0,12,,,,,,,,,,,,,,,,10,,84,72
40890,note_on,,1,0,15,,,,,,,,,,,,,,,,13,,43,72
40890,note_on,,1,0,7,,,,,,,,,,,,,,,,2,,43,72
40890,note_on,,1,0,9,,,,,,,,,,,,,,,,6,,69,88
40890,note_on,,1,0,5,,,,,,,,,,,,,,,,0,,72,72
40890,note_on,,1,0,8,,,,,,,,,,,,,,,,5,,72,88
40890,note_on,,1,0,10,,,,,,,,,,,,,,,,7,,62,88
40890,note_on,,1,0,6,,,,,,,,,,,,,,,,1,,72,72
40890,note_on,,1,0,13,,,,,,,,,,,,,,,,11,,81,72
40890,note_on,,1,0,16,,,,,,,,,,,,,,,,15,,43,72
40890,note_on,,0,0,16,,,,,,,,,,,,,,,,15,,55,72
40890,note_on,,1,0,14,,,,,,,,,,,,,,,,12,,62,72
40890,note_on,,1,0,11,,,,,,,,,,,,,,,,8,,55,88
40919,note_on,,29,0,10,,,,,,,,,,,,,,,,7,,62,0
40919,note_on,,29,0,16,,,,,,,,,,,,,,,,15,,43,0
40919,note_on,,29,0,5,,,,,,,,,,,,,,,,0,,72,0
40919,note_on,,0,0,16,,,,,,,,,,,,,,,,15,,55,0
40919,note_on,,29,0,15,,,,,,,,,,,,,,,,13,,43,0
40919,note_on,,29,0,13,,,,,,,,,,,,,,,,11,,81,0
40919,note_on,,29,0,6,,,,,,,,,,,,,,,,1,,72,0
40919,note_on,,29,0,9,,,,,,,,,,,,,,,,6,,69,0
40919,note_on,,29,0,12,,,,,,,,,,,,,,,,10,,84,0
40919,note_on,,29,0,7,,,,,,,,,,,,,,,,2,,43,0
40919,note_on,,29,0,11,,,,,,,,,,,,,,,,8,,55,0
40919,note_on,,29,0,8,,,,,,,,,,,,,,,,5,,72,0
40919,note_on,,29,0,14,,,,,,,,,,,,,,,,12,,62,0
40920,note_on,,1,0,15,,,,,,,,,,,,,,,,13,,43,72
40920,note_on,,0,0,16,,,,,,,,,,,,,,,,15,,55,72
40920,note_on,,1,0,16,,,,,,,,,,,,,,,,15,,43,72
40920,note_on,,1,0,11,,,,,,,,,,,,,,,,8,,55,88
40920,note_on,,1,0,14,,,,,,,,,,,,,,,,12,,62,72
40920,note_on,,1,0,6,,,,,,,,,,,,,,,,1,,71,72
40920,note_on,,1,0,10,,,,,,,,,,,,,,,,7,,62,88
40920,note_on,,1,0,13,,,,,,,,,,,,,,,,11,,79,72
40920,note_on,,1,0,8,,,,,,,,,,,,,,,,5,,71,88
40920,note_on,,1,0,9,,,,,,,,,,,,,,,,6,,67,88
40920,note_on,,1,0,12,,,,,,,,,,,,,,,,10,,83,72
40920,note_on,,1,0,7,,,,,,,,,,,,,,,,2,,43,72
40920,note_on,,1,0,5,,,,,,,,,,,,,,,,0,,71,72
40949,note_on,,29,0,12,,,,,,,,,,,,,,,,10,,83,0
40949,note_on,,29,0,13,,,,,,,,,,,,,,,,11,,79,0
40950,note_on,,1,0,12,,,,,,,,,,,,,,,,10,,84,72
40950,note_on,,1,0,13,,,,,,,,,,,,,,,,11,,81,72
40979,note_on,,29,0,13,,,,,,,,,,,,,,,,11,,81,0
40979,note_on,,29,0,12,,,,,,,,,,,,,,,,10,,84,0
40980,note_on,,1,0,12,,,,,,,,,,,,,,,,10,,83,72
40980,note_on,,1,0,13,,,,,,,,,,,,,,,,11,,79,72
41009,note_on,,29,0,13,,,,,,,,,,,,,,,,11,,79,0
41009,note_on,,29,0,12,,,,,,,,,,,,,,,,10,,83,0
41010,note_on,,1,0,12,,,,,,,,,,,,,,,,10,,84,72
41010,note_on,,1,0,13,,,,,,,,,,,,,,,,11,,81,72
41039,note_on,,29,0,12,,,,,,,,,,,,,,,,10,,84,0
41039,note_on,,119,0,9,,,,,,,,,,,,,,,,6,,67,0
41039,note_on,,119,0,11,,,,,,,,,,,,,,,,8,,55,0
41039,note_on,,119,0,14,,,,,,,,,,,,,,,,12,,62,0
41039,note_on,,119,0,8,,,,,,,,,,,,,,,,5,,71,0
41039,note_on,,119,0,7,,,,,,,,,,,,,,,,2,,43,0
41039,note_on,,119,0,6,,,,,,,,,,,,,,,,1,,71,0
41039,note_on,,119,0,10,,,,,,,,,,,,,,,,7,,62,0
41039,note_on,,29,0,13,,,,,,,,,,,,,,,,11,,81,0
41039,note_on,,119,0,5,,,,,,,,,,,,,,,,0,,71,0
41039,note_on,,0,0,16,,,,,,,,,,,,,,,,15,,71,0
41039,note_on,,119,0,15,,,,,,,,,,,,,,,,13,,43,0
41039,note_on,,0,0,16,,,,,,,,,,,,,,,,15,,55,0
41039,note_on,,0,0,16,,,,,,,,,,,,,,,,15,,43,0
41039,note_on,,119,0,16,,,,,,,,,,,,,,,,15,,83,0
41039,note_on,,0,0,16,,,,,,,,,,,,,,,,15,,79,0
41039,note_on,,0,0,16,,,,,,,,,,,,,,,,15,,74,0
41040,note_on,,1,0,12,,,,,,,,,,,,,,,,10,,86,72
41040,note_on,,1,0,13,,,,,,,,,,,,,,,,11,,83,72
41069,note_on,,29,0,13,,,,,,,,,,,,,,,,11,,83,0
41069,note_on,,29,0,12,,,,,,,,,,,,,,,,10,,86,0
41070,note_on,,1,0,13,,,,,,,,,,,,,,,,11,,81,72
41070,note_on,,1,0,12,,,,,,,,,,,,,,,,10,,84,72
41099,note_on,,29,0,13,,,,,,,,,,,,,,,,11,,81,0
41099,note_on,,29,0,12,,,,,,,,,,,,,,,,10,,84,0
41100,note_on,,1,0,12,,,,,,,,,,,,,,,,10,,86,72
41100,note_on,,1,0,13,,,,,,,,,,,,,,,,11,,83,72
41129,note_on,,29,0,13,,,,,,,,,,,,,,,,11,,83,0
41129,note_on,,29,0,12,,,,,,,,,,,,,,,,10,,86,0
41130,note_on,,1,0,13,,,,,,,,,,,,,,,,11,,81,72
41130,note_on,,1,0,12,,,,,,,,,,,,,,,,10,,84,72
41159,note_on,,29,0,12,,,,,,,,,,,,,,,,10,,84,0
41159,note_on,,29,0,13,,,,,,,,,,,,,,,,11,,81,0
41160,note_on,,1,0,12,,,,,,,,,,,,,,,,10,,83,72
41160,note_on,,1,0,13,,,,,,,,,,,,,,,,11,,79,72
41189,note_on,,29,0,12,,,,,,,,,,,,,,,,10,,83,0
41189,note_on,,29,0,13,,,,,,,,,,,,,,,,11,,79,0
41190,note_on,,1,0,13,,,,,,,,,,,,,,,,11,,81,72
41190,note_on,,1,0,12,,,,,,,,,,,,,,,,10,,84,72
41219,note_on,,29,0,13,,,,,,,,,,,,,,,,11,,81,0
41219,note_on,,29,0,12,,,,,,,,,,,,,,,,10,,84,0
41220,note_on,,1,0,13,,,,,,,,,,,,,,,,11,,79,72
41220,note_on,,1,0,12,,,,,,,,,,,,,,,,10,,83,72
41249,note_on,,29,0,12,,,,,,,,,,,,,,,,10,,83,0
41249,note_on,,29,0,13,,,,,,,,,,,,,,,,11,,79,0
41250,note_on,,1,0,12,,,,,,,,,,,,,,,,10,,84,72
41250,note_on,,1,0,13,,,,,,,,,,,,,,,,11,,81,72
41279,note_on,,29,0,12,,,,,,,,,,,,,,,,10,,84,0
41279,note_on,,29,0,13,,,,,,,,,,,,,,,,11,,81,0
41280,note_on,,1,0,12,,,,,,,,,,,,,,,,10,,86,72
41280,note_on,,1,0,13,,,,,,,,,,,,,,,,11,,83,72
41309,note_on,,29,0,12,,,,,,,,,,,,,,,,10,,86,0
41309,note_on,,29,0,13,,,,,,,,,,,,,,,,11,,83,0
41310,note_on,,1,0,13,,,,,,,,,,,,,,,,11,,81,72
41310,note_on,,1,0,12,,,,,,,,,,,,,,,,10,,84,72
41339,note_on,,29,0,13,,,,,,,,,,,,,,,,11,,81,0
41339,note_on,,29,0,12,,,,,,,,,,,,,,,,10,,84,0
41340,note_on,,301,0,9,,,,,,,,,,,,,,,,6,,67,88
41340,note_on,,301,0,11,,,,,,,,,,,,,,,,8,,55,88
41340,note_on,,301,0,10,,,,,,,,,,,,,,,,7,,59,88
41340,note_on,,301,0,5,,,,,,,,,,,,,,,,0,,74,72
41340,note_on,,0,0,16,,,,,,,,,,,,,,,,15,,59,72
41340,note_on,,0,0,16,,,,,,,,,,,,,,,,15,,62,72
41340,note_on,,0,0,16,,,,,,,,,,,,,,,,15,,67,72
41340,note_on,,301,0,7,,,,,,,,,,,,,,,,2,,55,72
41340,note_on,,301,0,16,,,,,,,,,,,,,,,,15,,55,72
41340,note_on,,1,0,13,,,,,,,,,,,,,,,,11,,83,72
41340,note_on,,1,0,12,,,,,,,,,,,,,,,,10,,86,72
41340,note_on,,301,0,6,,,,,,,,,,,,,,,,1,,74,72
41340,note_on,,301,0,15,,,,,,,,,,,,,,,,13,,55,72
41340,note_on,,301,0,8,,,,,,,,,,,,,,,,5,,74,88
41340,note_on,,301,0,14,,,,,,,,,,,,,,,,12,,62,72
41369,note_on,,29,0,13,,,,,,,,,,,,,,,,11,,83,0
41369,note_on,,29,0,12,,,,,,,,,,,,,,,,10,,86,0
41370,note_on,,1,0,12,,,,,,,,,,,,,,,,10,,84,72
41370,note_on,,1,0,13,,,,,,,,,,,,,,,,11,,81,72
41399,note_on,,59,0,6,,,,,,,,,,,,,,,,1,,74,0
41399,note_on,,29,0,12,,,,,,,,,,,,,,,,10,,84,0
41399,note_on,,59,0,15,,,,,,,,,,,,,,,,13,,55,0
41399,note_on,,59,0,7,,,,,,,,,,,,,,,,2,,55,0
41399,note_on,,29,0,13,,,,,,,,,,,,,,,,11,,81,0
41399,note_on,,59,0,11,,,,,,,,,,,,,,,,8,,55,0
41399,note_on,,59,0,8,,,,,,,,,,,,,,,,5,,74,0
41399,note_on,,59,0,5,,,,,,,,,,,,,,,,0,,74,0
41399,note_on,,59,0,10,,,,,,,,,,,,,,,,7,,59,0
41399,note_on,,59,0,14,,,,,,,,,,,,,,,,12,,62,0
41399,note_on,,59,0,9,,,,,,,,,,,,,,,,6,,67,0
41399,note_on,,0,0,16,,,,,,,,,,,,,,,,15,,59,0
41399,note_on,,0,0,16,,,,,,,,,,,,,,,,15,,62,0
41399,note_on,,0,0,16,,,,,,,,,,,,,,,,15,,67,0
41399,note_on,,59,0,16,,,,,,,,,,,,,,,,15,,55,0
41400,note_on,,0,0,16,,,,,,,,,,,,,,,,15,,59,72
41400,note_on,,1,0,6,,,,,,,,,,,,,,,,1,,74,72
41400,note_on,,1,0,14,,,,,,,,,,,,,,,,12,,62,72
41400,note_on,,0,0,16,,,,,,,,,,,,,,,,15,,62,72
41400,note_on,,1,0,9,,,,,,,,,,,,,,,,6,,67,88
41400,note_on,,1,0,5,,,,,,,,,,,,,,,,0,,74,72
41400,note_on,,1,0,13,,,,,,,,,,,,,,,,11,,79,72
41400,note_on,,1,0,15,,,,,,,,,,,,,,,,13,,55,72
41400,note_on,,1,0,7,,,,,,,,,,,,,,,,2,,55,72
41400,note_on,,1,0,11,,,,,,,,,,,,,,,,8,,55,88
41400,note_on,,1,0,12,,,,,,,,,,,,,,,,10,,83,72
41400,note_on,,1,0,10,,,,,,,,,,,,,,,,7,,59,88
41400,note_on,,0,0,16,,,,,,,,,,,,,,,,15,,67,72
41400,note_on,,1,0,16,,,,,,,,,,,,,,,,15,,55,72
41400,note_on,,1,0,8,,,,,,,,,,,,,,,,5,,74,88
41429,note_on,,29,0,12,,,,,,,,,,,,,,,,10,,83,0
41429,note_on,,29,0,13,,,,,,,,,,,,,,,,11,,79,0
41430,note_on,,1,0,13,,,,,,,,,,,,,,,,11,,78,72
41430,note_on,,1,0,12,,,,,,,,,,,,,,,,10,,81,72
41459,note_on,,29,0,12,,,,,,,,,,,,,,,,10,,81,0
41459,note_on,,59,0,15,,,,,,,,,,,,,,,,13,,55,0
41459,note_on,,0,0,16,,,,,,,,,,,,,,,,15,,67,0
41459,note_on,,59,0,10,,,,,,,,,,,,,,,,7,,59,0
41459,note_on,,59,0,14,,,,,,,,,,,,,,,,12,,62,0
41459,note_on,,0,0,16,,,,,,,,,,,,,,,,15,,59,0
41459,note_on,,59,0,16,,,,,,,,,,,,,,,,15,,55,0
41459,note_on,,59,0,6,,,,,,,,,,,,,,,,1,,74,0
41459,note_on,,59,0,9,,,,,,,,,,,,,,,,6,,67,0
41459,note_on,,59,0,8,,,,,,,,,,,,,,,,5,,74,0
41459,note_on,,0,0,16,,,,,,,,,,,,,,,,15,,62,0
41459,note_on,,29,0,13,,,,,,,,,,,,,,,,11,,78,0
41459,note_on,,59,0,5,,,,,,,,,,,,,,,,0,,74,0
41459,note_on,,59,0,11,,,,,,,,,,,,,,,,8,,55,0
41459,note_on,,59,0,7,,,,,,,,,,,,,,,,2,,55,0
41460,note_on,,1,0,5,,,,,,,,,,,,,,,,0,,74,72
41460,note_on,,1,0,9,,,,,,,,,,,,,,,,6,,67,88
41460,note_on,,1,0,11,,,,,,,,,,,,,,,,8,,55,88
41460,note_on,,1,0,14,,,,,,,,,,,,,,,,12,,62,72
41460,note_on,,1,0,12,,,,,,,,,,,,,,,,10,,83,72
41460,note_on,,1,0,15,,,,,,,,,,,,,,,,13,,55,72
41460,note_on,,1,0,13,,,,,,,,,,,,,,,,11,,79,72
41460,note_on,,1,0,16,,,,,,,,,,,,,,,,15,,55,72
41460,note_on,,1,0,8,,,,,,,,,,,,,,,,5,,74,88
41460,note_on,,1,0,7,,,,,,,,,,,,,,,,2,,55,72
41460,note_on,,1,0,6,,,,,,,,,,,,,,,,1,,74,72
41460,note_on,,0,0,16,,,,,,,,,,,,,,,,15,,62,72
41460,note_on,,0,0,16,,,,,,,,,,,,,,,,15,,59,72
41460,note_on,,1,0,10,,,,,,,,,,,,,,,,7,,59,88
41460,note_on,,0,0,16,,,,,,,,,,,,,,,,15,,67,72
41489,note_on,,29,0,13,,,,,,,,,,,,,,,,11,,79,0
41489,note_on,,29,0,12,,,,,,,,,,,,,,,,10,,83,0
41490,note_on,,1,0,13,,,,,,,,,,,,,,,,11,,78,72
41490,note_on,,1,0,12,,,,,,,,,,,,,,,,10,,81,72
41519,note_on,,59,0,5,,,,,,,,,,,,,,,,0,,74,0
41519,note_on,,29,0,12,,,,,,,,,,,,,,,,10,,81,0
41519,note_on,,0,0,16,,,,,,,,,,,,,,,,15,,67,0
41519,note_on,,29,0,13,,,,,,,,,,,,,,,,11,,78,0
41519,note_on,,59,0,10,,,,,,,,,,,,,,,,7,,59,0
41519,note_on,,59,0,11,,,,,,,,,,,,,,,,8,,55,0
41519,note_on,,59,0,15,,,,,,,,,,,,,,,,13,,55,0
41519,note_on,,59,0,8,,,,,,,,,,,,,,,,5,,74,0
41519,note_on,,59,0,9,,,,,,,,,,,,,,,,6,,67,0
41519,note_on,,59,0,16,,,,,,,,,,,,,,,,15,,55,0
41519,note_on,,59,0,6,,,,,,,,,,,,,,,,1,,74,0
41519,note_on,,59,0,7,,,,,,,,,,,,,,,,2,,55,0
41519,note_on,,59,0,14,,,,,,,,,,,,,,,,12,,62,0
41519,note_on,,0,0,16,,,,,,,,,,,,,,,,15,,62,0
41519,note_on,,0,0,16,,,,,,,,,,,,,,,,15,,59,0
41520,note_on,,1,0,11,,,,,,,,,,,,,,,,8,,59,88
41520,note_on,,1,0,8,,,,,,,,,,,,,,,,5,,79,88
41520,note_on,,1,0,10,,,,,,,,,,,,,,,,7,,62,88
41520,note_on,,1,0,13,,,,,,,,,,,,,,,,11,,83,72
41520,note_on,,1,0,6,,,,,,,,,,,,,,,,1,,79,72
41520,note_on,,1,0,14,,,,,,,,,,,,,,,,12,,74,72
41520,note_on,,1,0,5,,,,,,,,,,,,,,,,0,,79,72
41520,note_on,,0,0,16,,,,,,,,,,,,,,,,15,,62,72
41520,note_on,,1,0,7,,,,,,,,,,,,,,,,2,,59,72
41520,note_on,,1,0,16,,,,,,,,,,,,,,,,15,,59,72
41520,note_on,,1,0,9,,,,,,,,,,,,,,,,6,,67,88
41520,note_on,,0,0,16,,,,,,,,,,,,,,,,15,,67,72
41520,note_on,,1,0,15,,,,,,,,,,,,,,,,13,,59,72
41520,note_on,,0,0,16,,,,,,,,,,,,,,,,15,,74,72
41520,note_on,,1,0,12,,,,,,,,,,,,,,,,10,,79,72
41549,note_on,,29,0,13,,,,,,,,,,,,,,,,11,,83,0
41549,note_on,,29,0,12,,,,,,,,,,,,,,,,10,,79,0
41550,note_on,,1,0,12,,,,,,,,,,,,,,,,10,,78,72
41550,note_on,,1,0,13,,,,,,,,,,,,,,,,11,,81,72
41579,note_on,,29,0,12,,,,,,,,,,,,,,,,10,,78,0
41579,note_on,,29,0,13,,,,,,,,,,,,,,,,11,,81,0
41580,note_on,,1,0,12,,,,,,,,,,,,,,,,10,,79,72
41580,note_on,,1,0,13,,,,,,,,,,,,,,,,11,,83,72
41609,note_on,,29,0,13,,,,,,,,,,,,,,,,11,,83,0
41609,note_on,,29,0,12,,,,,,,,,,,,,,,,10,,79,0
41610,note_on,,1,0,13,,,,,,,,,,,,,,,,11,,81,72
41610,note_on,,1,0,12,,,,,,,,,,,,,,,,10,,78,72
41639,note_on,,119,0,5,,,,,,,,,,,,,,,,0,,79,0
41639,note_on,,119,0,15,,,,,,,,,,,,,,,,13,,59,0
41639,note_on,,0,0,16,,,,,,,,,,,,,,,,15,,74,0
41639,note_on,,119,0,7,,,,,,,,,,,,,,,,2,,59,0
41639,note_on,,119,0,6,,,,,,,,,,,,,,,,1,,79,0
41639,note_on,,119,0,10,,,,,,,,,,,,,,,,7,,62,0
41639,note_on,,29,0,12,,,,,,,,,,,,,,,,10,,78,0
41639,note_on,,119,0,11,,,,,,,,,,,,,,,,8,,59,0
41639,note_on,,29,0,13,,,,,,,,,,,,,,,,11,,81,0
41639,note_on,,119,0,9,,,,,,,,,,,,,,,,6,,67,0
41639,note_on,,119,0,14,,,,,,,,,,,,,,,,12,,74,0
41639,note_on,,119,0,8,,,,,,,,,,,,,,,,5,,79,0
41639,note_on,,119,0,16,,,,,,,,,,,,,,,,15,,59,0
41639,note_on,,0,0,16,,,,,,,,,,,,,,,,15,,67,0
41639,note_on,,0,0,16,,,,,,,,,,,,,,,,15,,62,0
41640,note_on,,1,0,13,,,,,,,,,,,,,,,,11,,79,72
41640,note_on,,1,0,12,,,,,,,,,,,,,,,,10,,76,72
41669,note_on,,29,0,13,,,,,,,,,,,,,,,,11,,79,0
41669,note_on,,29,0,12,,,,,,,,,,,,,,,,10,,76,0
41670,note_on,,1,0,13,,,,,,,,,,,,,,,,11,,78,72
41670,note_on,,1,0,12,,,,,,,,,,,,,,,,10,,74,72
41699,note_on,,29,0,13,,,,,,,,,,,,,,,,11,,78,0
41699,note_on,,29,0,12,,,,,,,,,,,,,,,,10,,74,0
41700,note_on,,61,0,14,,,,,,,,,,,,,,,,12,,67,72
41700,note_on,,1,0,13,,,,,,,,,,,,,,,,11,,79,72
41700,note_on,,61,0,5,,,,,,,,,,,,,,,,0,,79,72
41700,note_on,,61,0,9,,,,,,,,,,,,,,,,6,,67,88
41700,note_on,,61,0,11,,,,,,,,,,,,,,,,8,,47,88
41700,note_on,,61,0,10,,,,,,,,,,,,,,,,7,,62,88
41700,note_on,,61,0,7,,,,,,,,,,,,,,,,2,,47,72
41700,note_on,,61,0,8,,,,,,,,,,,,,,,,5,,79,88
41700,note_on,,0,0,16,,,,,,,,,,,,,,,,15,,67,72
41700,note_on,,0,0,16,,,,,,,,,,,,,,,,15,,74,72
41700,note_on,,0,0,16,,,,,,,,,,,,,,,,15,,79,72
41700,note_on,,61,0,15,,,,,,,,,,,,,,,,13,,47,72
41700,note_on,,61,0,6,,,,,,,,,,,,,,,,1,,79,72
41700,note_on,,61,0,16,,,,,,,,,,,,,,,,15,,47,72
41700,note_on,,0,0,16,,,,,,,,,,,,,,,,15,,55,72
41700,note_on,,1,0,12,,,,,,,,,,,,,,,,10,,76,72
41729,note_on,,29,0,13,,,,,,,,,,,,,,,,11,,79,0
41729,note_on,,29,0,12,,,,,,,,,,,,,,,,10,,76,0
41730,note_on,,1,0,13,,,,,,,,,,,,,,,,11,,78,72
41730,note_on,,1,0,12,,,,,,,,,,,,,,,,10,,74,72
41759,note_on,,59,0,9,,,,,,,,,,,,,,,,6,,67,0
41759,note_on,,29,0,12,,,,,,,,,,,,,,,,10,,74,0
41759,note_on,,59,0,14,,,,,,,,,,,,,,,,12,,67,0
41759,note_on,,59,0,8,,,,,,,,,,,,,,,,5,,79,0
41759,note_on,,59,0,10,,,,,,,,,,,,,,,,7,,62,0
41759,note_on,,59,0,15,,,,,,,,,,,,,,,,13,,47,0
41759,note_on,,29,0,13,,,,,,,,,,,,,,,,11,,78,0
41759,note_on,,59,0,7,,,,,,,,,,,,,,,,2,,47,0
41759,note_on,,59,0,16,,,,,,,,,,,,,,,,15,,47,0
41759,note_on,,59,0,6,,,,,,,,,,,,,,,,1,,79,0
41759,note_on,,0,0,16,,,,,,,,,,,,,,,,15,,55,0
41759,note_on,,0,0,16,,,,,,,,,,,,,,,,15,,67,0
41759,note_on,,59,0,11,,,,,,,,,,,,,,,,8,,47,0
41759,note_on,,0,0,16,,,,,,,,,,,,,,,,15,,79,0
41759,note_on,,59,0,5,,,,,,,,,,,,,,,,0,,79,0
41759,note_on,,0,0,16,,,,,,,,,,,,,,,,15,,74,0
41760,note_on,,1,0,14,,,,,,,,,,,,,,,,12,,67,72
41760,note_on,,1,0,16,,,,,,,,,,,,,,,,15,,48,72
41760,note_on,,0,0,16,,,,,,,,,,,,,,,,15,,76,72
41760,note_on,,1,0,6,,,,,,,,,,,,,,,,1,,76,72
41760,note_on,,1,0,11,,,,,,,,,,,,,,,,8,,48,88
41760,note_on,,1,0,7,,,,,,,,,,,,,,,,2,,48,72
41760,note_on,,1,0,9,,,,,,,,,,,,,,,,6,,67,88
41760,note_on,,1,0,10,,,,,,,,,,,,,,,,7,,64,88
41760,note_on,,0,0,16,,,,,,,,,,,,,,,,15,,72,72
41760,note_on,,0,0,16,,,,,,,,,,,,,,,,15,,55,72
41760,note_on,,0,0,16,,,,,,,,,,,,,,,,15,,67,72
41760,note_on,,1,0,8,,,,,,,,,,,,,,,,5,,76,88
41760,note_on,,1,0,15,,,,,,,,,,,,,,,,13,,48,72
41760,note_on,,1,0,12,,,,,,,,,,,,,,,,10,,72,72
41760,note_on,,1,0,5,,,,,,,,,,,,,,,,0,,76,72
41760,note_on,,1,0,13,,,,,,,,,,,,,,,,11,,76,72
41789,note_on,,29,0,13,,,,,,,,,,,,,,,,11,,76,0
41789,note_on,,29,0,12,,,,,,,,,,,,,,,,10,,72,0
41790,note_on,,1,0,13,,,,,,,,,,,,,,,,11,,74,72
41790,note_on,,1,0,12,,,,,,,,,,,,,,,,10,,71,72
41819,note_on,,29,0,12,,,,,,,,,,,,,,,,10,,71,0
41819,note_on,,0,0,16,,,,,,,,,,,,,,,,15,,55,0
41819,note_on,,59,0,8,,,,,,,,,,,,,,,,5,,76,0
41819,note_on,,59,0,6,,,,,,,,,,,,,,,,1,,76,0
41819,note_on,,59,0,14,,,,,,,,,,,,,,,,12,,67,0
41819,note_on,,59,0,15,,,,,,,,,,,,,,,,13,,48,0
41819,note_on,,59,0,11,,,,,,,,,,,,,,,,8,,48,0
41819,note_on,,59,0,7,,,,,,,,,,,,,,,,2,,48,0
41819,note_on,,59,0,16,,,,,,,,,,,,,,,,15,,48,0
41819,note_on,,29,0,13,,,,,,,,,,,,,,,,11,,74,0
41819,note_on,,59,0,10,,,,,,,,,,,,,,,,7,,64,0
41819,note_on,,59,0,5,,,,,,,,,,,,,,,,0,,76,0
41819,note_on,,59,0,9,,,,,,,,,,,,,,,,6,,67,0
41820,note_on,,1,0,10,,,,,,,,,,,,,,,,7,,64,88
41820,note_on,,1,0,8,,,,,,,,,,,,,,,,5,,74,88
41820,note_on,,1,0,16,,,,,,,,,,,,,,,,15,,48,72
41820,note_on,,0,0,16,,,,,,,,,,,,,,,,15,,55,72
41820,note_on,,1,0,5,,,,,,,,,,,,,,,,0,,74,72
41820,note_on,,1,0,6,,,,,,,,,,,,,,,,1,,74,72
41820,note_on,,1,0,12,,,,,,,,,,,,,,,,10,,72,72
41820,note_on,,1,0,13,,,,,,,,,,,,,,,,11,,76,72
41820,note_on,,1,0,15,,,,,,,,,,,,,,,,13,,48,72
41820,note_on,,1,0,9,,,,,,,,,,,,,,,,6,,71,88
41820,note_on,,1,0,11,,,,,,,,,,,,,,,,8,,48,88
41820,note_on,,1,0,7,,,,,,,,,,,,,,,,2,,48,72
41820,note_on,,1,0,14,,,,,,,,,,,,,,,,12,,67,72
41849,note_on,,29,0,12,,,,,,,,,,,,,,,,10,,72,0
41849,note_on,,29,0,13,,,,,,,,,,,,,,,,11,,76,0
41850,note_on,,1,0,13,,,,,,,,,,,,,,,,11,,74,72
41850,note_on,,1,0,12,,,,,,,,,,,,,,,,10,,71,72
41879,note_on,,59,0,7,,,,,,,,,,,,,,,,2,,48,0
41879,note_on,,29,0,13,,,,,,,,,,,,,,,,11,,74,0
41879,note_on,,59,0,15,,,,,,,,,,,,,,,,13,,48,0
41879,note_on,,59,0,5,,,,,,,,,,,,,,,,0,,74,0
41879,note_on,,0,0,16,,,,,,,,,,,,,,,,15,,55,0
41879,note_on,,59,0,6,,,,,,,,,,,,,,,,1,,74,0
41879,note_on,,59,0,10,,,,,,,,,,,,,,,,7,,64,0
41879,note_on,,59,0,8,,,,,,,,,,,,,,,,5,,74,0
41879,note_on,,59,0,9,,,,,,,,,,,,,,,,6,,71,0
41879,note_on,,29,0,12,,,,,,,,,,,,,,,,10,,71,0
41879,note_on,,59,0,11,,,,,,,,,,,,,,,,8,,48,0
41879,note_on,,59,0,16,,,,,,,,,,,,,,,,15,,48,0
41879,note_on,,59,0,14,,,,,,,,,,,,,,,,12,,67,0
41880,note_on,,1,0,12,,,,,,,,,,,,,,,,10,,69,72
41880,note_on,,1,0,9,,,,,,,,,,,,,,,,6,,69,88
41880,note_on,,1,0,15,,,,,,,,,,,,,,,,13,,48,72
41880,note_on,,1,0,14,,,,,,,,,,,,,,,,12,,64,72
41880,note_on,,1,0,13,,,,,,,,,,,,,,,,11,,72,72
41880,note_on,,1,0,5,,,,,,,,,,,,,,,,0,,72,72
41880,note_on,,0,0,16,,,,,,,,,,,,,,,,15,,55,72
41880,note_on,,1,0,16,,,,,,,,,,,,,,,,15,,48,72
41880,note_on,,1,0,7,,,,,,,,,,,,,,,,2,,48,72
41880,note_on,,1,0,6,,,,,,,,,,,,,,,,1,,72,72
41880,note_on,,1,0,8,,,,,,,,,,,,,,,,5,,72,88
41880,note_on,,1,0,11,,,,,,,,,,,,,,,,8,,48,88
41880,note_on,,1,0,10,,,,,,,,,,,,,,,,7,,64,88
41909,note_on,,29,0,12,,,,,,,,,,,,,,,,10,,69,0
41909,note_on,,29,0,13,,,,,,,,,,,,,,,,11,,72,0
41910,note_on,,1,0,12,,,,,,,,,,,,,,,,10,,67,72
41910,note_on,,1,0,13,,,,,,,,,,,,,,,,11,,71,72
41939,note_on,,59,0,9,,,,,,,,,,,,,,,,6,,69,0
41939,note_on,,59,0,15,,,,,,,,,,,,,,,,13,,48,0
41939,note_on,,59,0,11,,,,,,,,,,,,,,,,8,,48,0
41939,note_on,,0,0,16,,,,,,,,,,,,,,,,15,,48,0
41939,note_on,,59,0,14,,,,,,,,,,,,,,,,12,,64,0
41939,note_on,,0,0,16,,,,,,,,,,,,,,,,15,,67,0
41939,note_on,,0,0,16,,,,,,,,,,,,,,,,15,,72,0
41939,note_on,,59,0,16,,,,,,,,,,,,,,,,15,,76,0
41939,note_on,,29,0,13,,,,,,,,,,,,,,,,11,,71,0
41939,note_on,,59,0,10,,,,,,,,,,,,,,,,7,,64,0
41939,note_on,,59,0,8,,,,,,,,,,,,,,,,5,,72,0
41939,note_on,,0,0,16,,,,,,,,,,,,,,,,15,,55,0
41939,note_on,,59,0,7,,,,,,,,,,,,,,,,2,,48,0
41939,note_on,,29,0,12,,,,,,,,,,,,,,,,10,,67,0
41939,note_on,,59,0,6,,,,,,,,,,,,,,,,1,,72,0
41939,note_on,,59,0,5,,,,,,,,,,,,,,,,0,,72,0
41940,note_on,,1,0,13,,,,,,,,,,,,,,,,11,,72,72
41940,note_on,,1,0,11,,,,,,,,,,,,,,,,8,,48,88
41940,note_on,,1,0,9,,,,,,,,,,,,,,,,6,,67,88
41940,note_on,,0,0,16,,,,,,,,,,,,,,,,15,,55,72
41940,note_on,,1,0,12,,,,,,,,,,,,,,,,10,,69,72
41940,note_on,,1,0,16,,,,,,,,,,,,,,,,15,,76,72
41940,note_on,,0,0,16,,,,,,,,,,,,,,,,15,,71,72
41940,note_on,,0,0,16,,,,,,,,,,,,,,,,15,,67,72
41940,note_on,,1,0,10,,,,,,,,,,,,,,,,7,,64,88
41940,note_on,,1,0,15,,,,,,,,,,,,,,,,13,,48,72
41940,note_on,,1,0,14,,,,,,,,,,,,,,,,12,,64,72
41940,note_on,,1,0,7,,,,,,,,,,,,,,,,2,,48,72
41940,note_on,,0,0,16,,,,,,,,,,,,,,,,15,,48,72
41940,note_on,,1,0,8,,,,,,,,,,,,,,,,5,,71,88
41940,note_on,,1,0,5,,,,,,,,,,,,,,,,0,,71,72
41940,note_on,,1,0,6,,,,,,,,,,,,,,,,1,,71,72
41969,note_on,,29,0,13,,,,,,,,,,,,,,,,11,,72,0
41969,note_on,,29,0,12,,,,,,,,,,,,,,,,10,,69,0
41970,note_on,,1,0,13,,,,,,,,,,,,,,,,11,,71,72
41970,note_on,,1,0,12,,,,,,,,,,,,,,,,10,,67,72
41999,note_on,,59,0,15,,,,,,,,,,,,,,,,13,,48,0
41999,note_on,,0,0,16,,,,,,,,,,,,,,,,15,,48,0
41999,note_on,,59,0,16,,,,,,,,,,,,,,,,15,,76,0
41999,note_on,,59,0,9,,,,,,,,,,,,,,,,6,,67,0
41999,note_on,,29,0,13,,,,,,,,,,,,,,,,11,,71,0
41999,note_on,,0,0,16,,,,,,,,,,,,,,,,15,,55,0
41999,note_on,,59,0,11,,,,,,,,,,,,,,,,8,,48,0
41999,note_on,,0,0,16,,,,,,,,,,,,,,,,15,,71,0
41999,note_on,,29,0,12,,,,,,,,,,,,,,,,10,,67,0
41999,note_on,,59,0,6,,,,,,,,,,,,,,,,1,,71,0
41999,note_on,,59,0,10,,,,,,,,,,,,,,,,7,,64,0
41999,note_on,,59,0,14,,,,,,,,,,,,,,,,12,,64,0
41999,note_on,,59,0,5,,,,,,,,,,,,,,,,0,,71,0
41999,note_on,,0,0,16,,,,,,,,,,,,,,,,15,,67,0
41999,note_on,,59,0,7,,,,,,,,,,,,,,,,2,,48,0
41999,note_on,,59,0,8,,,,,,,,,,,,,,,,5,,71,0
42000,note_on,,1,0,6,,,,,,,,,,,,,,,,1,,69,72
42000,note_on,,1,0,7,,,,,,,,,,,,,,,,2,,50,72
42000,note_on,,1,0,5,,,,,,,,,,,,,,,,0,,69,72
42000,note_on,,1,0,8,,,,,,,,,,,,,,,,5,,69,88
42000,note_on,,0,0,16,,,,,,,,,,,,,,,,15,,69,72
42000,note_on,,1,0,16,,,,,,,,,,,,,,,,15,,50,72
42000,note_on,,1,0,9,,,,,,,,,,,,,,,,6,,66,88
42000,note_on,,1,0,15,,,,,,,,,,,,,,,,13,,50,72
42000,note_on,,1,0,13,,,,,,,,,,,,,,,,11,,69,72
42000,note_on,,1,0,12,,,,,,,,,,,,,,,,10,,66,72
42000,note_on,,0,0,16,,,,,,,,,,,,,,,,15,,62,72
42000,note_on,,0,0,16,,,,,,,,,,,,,,,,15,,66,72
42000,note_on,,1,0,14,,,,,,,,,,,,,,,,12,,66,72
42000,note_on,,0,0,16,,,,,,,,,,,,,,,,15,,74,72
42000,note_on,,1,0,11,,,,,,,,,,,,,,,,8,,50,88
42000,note_on,,1,0,10,,,,,,,,,,,,,,,,7,,57,88
42029,note_on,,29,0,13,,,,,,,,,,,,,,,,11,,69,0
42029,note_on,,29,0,12,,,,,,,,,,,,,,,,10,,66,0
42030,note_on,,1,0,13,,,,,,,,,,,,,,,,11,,72,72
42030,note_on,,1,0,12,,,,,,,,,,,,,,,,10,,81,72
42059,note_on,,29,0,12,,,,,,,,,,,,,,,,10,,81,0
42059,note_on,,59,0,7,,,,,,,,,,,,,,,,2,,50,0
42059,note_on,,59,0,9,,,,,,,,,,,,,,,,6,,66,0
42059,note_on,,59,0,6,,,,,,,,,,,,,,,,1,,69,0
42059,note_on,,29,0,13,,,,,,,,,,,,,,,,11,,72,0
42059,note_on,,59,0,14,,,,,,,,,,,,,,,,12,,66,0
42059,note_on,,59,0,10,,,,,,,,,,,,,,,,7,,57,0
42059,note_on,,59,0,11,,,,,,,,,,,,,,,,8,,50,0
42059,note_on,,59,0,5,,,,,,,,,,,,,,,,0,,69,0
42059,note_on,,59,0,16,,,,,,,,,,,,,,,,15,,50,0
42059,note_on,,0,0,16,,,,,,,,,,,,,,,,15,,62,0
42059,note_on,,59,0,15,,,,,,,,,,,,,,,,13,,50,0
42059,note_on,,59,0,8,,,,,,,,,,,,,,,,5,,69,0
42060,note_on,,1,0,7,,,,,,,,,,,,,,,,2,,50,72
42060,note_on,,1,0,14,,,,,,,,,,,,,,,,12,,62,72
42060,note_on,,1,0,11,,,,,,,,,,,,,,,,8,,50,88
42060,note_on,,1,0,16,,,,,,,,,,,,,,,,15,,50,72
42060,note_on,,0,0,16,,,,,,,,,,,,,,,,15,,62,72
42060,note_on,,1,0,8,,,,,,,,,,,,,,,,5,,69,88
42060,note_on,,1,0,15,,,,,,,,,,,,,,,,13,,50,72
42060,note_on,,1,0,10,,,,,,,,,,,,,,,,7,,57,88
42060,note_on,,1,0,5,,,,,,,,,,,,,,,,0,,69,72
42060,note_on,,1,0,12,,,,,,,,,,,,,,,,10,,79,72
42060,note_on,,1,0,6,,,,,,,,,,,,,,,,1,,69,72
42060,note_on,,1,0,9,,,,,,,,,,,,,,,,6,,66,88
42060,note_on,,1,0,13,,,,,,,,,,,,,,,,11,,71,72
42089,note_on,,29,0,12,,,,,,,,,,,,,,,,10,,79,0
42089,note_on,,29,0,13,,,,,,,,,,,,,,,,11,,71,0
42090,note_on,,1,0,12,,,,,,,,,,,,,,,,10,,78,72
42090,note_on,,1,0,13,,,,,,,,,,,,,,,,11,,69,72
42119,note_on,,59,0,5,,,,,,,,,,,,,,,,0,,69,0
42119,note_on,,59,0,9,,,,,,,,,,,,,,,,6,,66,0
42119,note_on,,29,0,13,,,,,,,,,,,,,,,,11,,69,0
42119,note_on,,59,0,11,,,,,,,,,,,,,,,,8,,50,0
42119,note_on,,29,0,12,,,,,,,,,,,,,,,,10,,78,0
42119,note_on,,59,0,7,,,,,,,,,,,,,,,,2,,50,0
42119,note_on,,59,0,14,,,,,,,,,,,,,,,,12,,62,0
42119,note_on,,59,0,16,,,,,,,,,,,,,,,,15,,74,0
42119,note_on,,0,0,16,,,,,,,,,,,,,,,,15,,69,0
42119,note_on,,59,0,15,,,,,,,,,,,,,,,,13,,50,0
42119,note_on,,0,0,16,,,,,,,,,,,,,,,,15,,66,0
42119,note_on,,0,0,16,,,,,,,,,,,,,,,,15,,50,0
42119,note_on,,59,0,10,,,,,,,,,,,,,,,,7,,57,0
42119,note_on,,0,0,16,,,,,,,,,,,,,,,,15,,62,0
42119,note_on,,59,0,6,,,,,,,,,,,,,,,,1,,69,0
42119,note_on,,59,0,8,,,,,,,,,,,,,,,,5,,69,0
42120,note_on,,1,0,13,,,,,,,,,,,,,,,,11,,71,72
42120,note_on,,1,0,12,,,,,,,,,,,,,,,,10,,79,72
42179,note_on,,59,0,12,,,,,,,,,,,,,,,,10,,79,0
42179,note_on,,59,0,13,,,,,,,,,,,,,,,,11,,71,0
42180,note_on,,0,0,16,,,,,,,,,,,,,,,,15,,72,72
42180,note_on,,0,0,16,,,,,,,,,,,,,,,,15,,67,72
42180,note_on,,61,0,16,,,,,,,,,,,,,,,,15,,48,72
42180,note_on,,0,0,16,,,,,,,,,,,,,,,,15,,76,72
42180,note_on,,61,0,10,,,,,,,,,,,,,,,,7,,64,88
42180,note_on,,0,0,16,,,,,,,,,,,,,,,,15,,55,72
42180,note_on,,61,0,9,,,,,,,,,,,,,,,,6,,67,88
42180,note_on,,61,0,7,,,,,,,,,,,,,,,,2,,48,72
42180,note_on,,1,0,13,,,,,,,,,,,,,,,,11,,72,72
42180,note_on,,61,0,11,,,,,,,,,,,,,,,,8,,48,88
42180,note_on,,61,0,15,,,,,,,,,,,,,,,,13,,48,72
42180,note_on,,61,0,8,,,,,,,,,,,,,,,,5,,72,88
42180,note_on,,61,0,5,,,,,,,,,,,,,,,,0,,72,72
42180,note_on,,61,0,14,,,,,,,,,,,,,,,,12,,67,72
42180,note_on,,1,0,12,,,,,,,,,,,,,,,,10,,76,72
42180,note_on,,61,0,6,,,,,,,,,,,,,,,,1,,72,72
42239,note_on,,59,0,9,,,,,,,,,,,,,,,,6,,67,0
42239,note_on,,59,0,6,,,,,,,,,,,,,,,,1,,72,0
42239,note_on,,59,0,16,,,,,,,,,,,,,,,,15,,48,0
42239,note_on,,0,0,16,,,,,,,,,,,,,,,,15,,55,0
42239,note_on,,0,0,16,,,,,,,,,,,,,,,,15,,67,0
42239,note_on,,0,0,16,,,,,,,,,,,,,,,,15,,72,0
42239,note_on,,0,0,16,,,,,,,,,,,,,,,,15,,76,0
42239,note_on,,59,0,12,,,,,,,,,,,,,,,,10,,76,0
42239,note_on,,59,0,7,,,,,,,,,,,,,,,,2,,48,0
42239,note_on,,59,0,5,,,,,,,,,,,,,,,,0,,72,0
42239,note_on,,59,0,14,,,,,,,,,,,,,,,,12,,67,0
42239,note_on,,59,0,11,,,,,,,,,,,,,,,,8,,48,0
42239,note_on,,59,0,15,,,,,,,,,,,,,,,,13,,48,0
42239,note_on,,59,0,10,,,,,,,,,,,,,,,,7,,64,0
42239,note_on,,59,0,13,,,,,,,,,,,,,,,,11,,72,0
42239,note_on,,59,0,8,,,,,,,,,,,,,,,,5,,72,0
42240,note_on,,1,0,7,,,,,,,,,,,,,,,,2,,50,72
42240,note_on,,1,0,14,,,,,,,,,,,,,,,,12,,62,72
42240,note_on,,1,0,15,,,,,,,,,,,,,,,,13,,50,72
42240,note_on,,1,0,10,,,,,,,,,,,,,,,,7,,57,88
42240,note_on,,1,0,5,,,,,,,,,,,,,,,,0,,69,72
42240,note_on,,0,0,16,,,,,,,,,,,,,,,,15,,62,72
42240,note_on,,1,0,12,,,,,,,,,,,,,,,,10,,78,72
42240,note_on,,0,0,16,,,,,,,,,,,,,,,,15,,66,72
42240,note_on,,1,0,9,,,,,,,,,,,,,,,,6,,66,88
42240,note_on,,1,0,16,,,,,,,,,,,,,,,,15,,50,72
42240,note_on,,1,0,8,,,,,,,,,,,,,,,,5,,69,88
42240,note_on,,1,0,13,,,,,,,,,,,,,,,,11,,69,72
42240,note_on,,1,0,11,,,,,,,,,,,,,,,,8,,50,88
42240,note_on,,0,0,16,,,,,,,,,,,,,,,,15,,69,72
42240,note_on,,1,0,6,,,,,,,,,,,,,,,,1,,69,72
42254,note_on,,14,0,13,,,,,,,,,,,,,,,,11,,69,0
42254,note_on,,14,0,12,,,,,,,,,,,,,,,,10,,78,0
42255,note_on,,1,0,13,,,,,,,,,,,,,,,,11,,71,72
42255,note_on,,1,0,12,,,,,,,,,,,,,,,,10,,79,72
42269,note_on,,14,0,13,,,,,,,,,,,,,,,,11,,71,0
42269,note_on,,14,0,12,,,,,,,,,,,,,,,,10,,79,0
42270,note_on,,1,0,12,,,,,,,,,,,,,,,,10,,78,72
42270,note_on,,1,0,13,,,,,,,,,,,,,,,,11,,69,72
42284,note_on,,14,0,13,,,,,,,,,,,,,,,,11,,69,0
42284,note_on,,14,0,12,,,,,,,,,,,,,,,,10,,78,0
42285,note_on,,1,0,12,,,,,,,,,,,,,,,,10,,79,72
42285,note_on,,1,0,13,,,,,,,,,,,,,,,,11,,71,72
42299,note_on,,14,0,12,,,,,,,,,,,,,,,,10,,79,0
42299,note_on,,14,0,13,,,,,,,,,,,,,,,,11,,71,0
42300,note_on,,1,0,12,,,,,,,,,,,,,,,,10,,78,72
42300,note_on,,1,0,13,,,,,,,,,,,,,,,,11,,69,72
42314,note_on,,14,0,12,,,,,,,,,,,,,,,,10,,78,0
42314,note_on,,14,0,13,,,,,,,,,,,,,,,,11,,69,0
42315,note_on,,1,0,12,,,,,,,,,,,,,,,,10,,79,72
42315,note_on,,1,0,13,,,,,,,,,,,,,,,,11,,71,72
42329,note_on,,14,0,12,,,,,,,,,,,,,,,,10,,79,0
42329,note_on,,14,0,13,,,,,,,,,,,,,,,,11,,71,0
42330,note_on,,1,0,13,,,,,,,,,,,,,,,,11,,69,72
42330,note_on,,1,0,12,,,,,,,,,,,,,,,,10,,78,72
42344,note_on,,14,0,12,,,,,,,,,,,,,,,,10,,78,0
42344,note_on,,14,0,13,,,,,,,,,,,,,,,,11,,69,0
42345,note_on,,1,0,12,,,,,,,,,,,,,,,,10,,79,72
42345,note_on,,1,0,13,,,,,,,,,,,,,,,,11,,71,72
42359,note_on,,14,0,13,,,,,,,,,,,,,,,,11,,71,0
42359,note_on,,14,0,12,,,,,,,,,,,,,,,,10,,79,0
42360,note_on,,1,0,13,,,,,,,,,,,,,,,,11,,69,72
42360,note_on,,1,0,12,,,,,,,,,,,,,,,,10,,78,72
42374,note_on,,14,0,13,,,,,,,,,,,,,,,,11,,69,0
42374,note_on,,14,0,12,,,,,,,,,,,,,,,,10,,78,0
42375,note_on,,1,0,13,,,,,,,,,,,,,,,,11,,71,72
42375,note_on,,1,0,12,,,,,,,,,,,,,,,,10,,79,72
42389,note_on,,14,0,12,,,,,,,,,,,,,,,,10,,79,0
42389,note_on,,14,0,13,,,,,,,,,,,,,,,,11,,71,0
42390,note_on,,1,0,12,,,,,,,,,,,,,,,,10,,76,72
42390,note_on,,1,0,13,,,,,,,,,,,,,,,,11,,67,72
42404,note_on,,14,0,13,,,,,,,,,,,,,,,,11,,67,0
42404,note_on,,14,0,12,,,,,,,,,,,,,,,,10,,76,0
42405,note_on,,1,0,13,,,,,,,,,,,,,,,,11,,69,72
42405,note_on,,1,0,12,,,,,,,,,,,,,,,,10,,78,72
42419,note_on,,14,0,13,,,,,,,,,,,,,,,,11,,69,0
42419,note_on,,179,0,9,,,,,,,,,,,,,,,,6,,66,0
42419,note_on,,179,0,5,,,,,,,,,,,,,,,,0,,69,0
42419,note_on,,14,0,12,,,,,,,,,,,,,,,,10,,78,0
42419,note_on,,179,0,11,,,,,,,,,,,,,,,,8,,50,0
42419,note_on,,179,0,16,,,,,,,,,,,,,,,,15,,50,0
42419,note_on,,0,0,16,,,,,,,,,,,,,,,,15,,69,0
42419,note_on,,0,0,16,,,,,,,,,,,,,,,,15,,66,0
42419,note_on,,0,0,16,,,,,,,,,,,,,,,,15,,62,0
42419,note_on,,179,0,8,,,,,,,,,,,,,,,,5,,69,0
42419,note_on,,179,0,7,,,,,,,,,,,,,,,,2,,50,0
42419,note_on,,179,0,6,,,,,,,,,,,,,,,,1,,69,0
42419,note_on,,179,0,10,,,,,,,,,,,,,,,,7,,57,0
42419,note_on,,179,0,15,,,,,,,,,,,,,,,,13,,50,0
42419,note_on,,179,0,14,,,,,,,,,,,,,,,,12,,62,0
42420,note_on,,0,0,16,,,,,,,,,,,,,,,,15,,66,72
42420,note_on,,1,0,11,,,,,,,,,,,,,,,,8,,50,88
42420,note_on,,1,0,6,,,,,,,,,,,,,,,,1,,69,72
42420,note_on,,1,0,10,,,,,,,,,,,,,,,,7,,62,88
42420,note_on,,0,0,16,,,,,,,,,,,,,,,,15,,57,72
42420,note_on,,1,0,14,,,,,,,,,,,,,,,,12,,62,72
42420,note_on,,1,0,9,,,,,,,,,,,,,,,,6,,66,88
42420,note_on,,1,0,16,,,,,,,,,,,,,,,,15,,50,72
42420,note_on,,0,0,16,,,,,,,,,,,,,,,,15,,69,72
42420,note_on,,1,0,8,,,,,,,,,,,,,,,,5,,69,88
42420,note_on,,1,0,15,,,,,,,,,,,,,,,,13,,50,72
42420,note_on,,1,0,12,,,,,,,,,,,,,,,,10,,78,72
42420,note_on,,1,0,13,,,,,,,,,,,,,,,,11,,69,72
42420,note_on,,1,0,7,,,,,,,,,,,,,,,,2,,50,72
42420,note_on,,0,0,16,,,,,,,,,,,,,,,,15,,74,72
42420,note_on,,1,0,5,,,,,,,,,,,,,,,,0,,69,72
42479,note_on,,59,0,12,,,,,,,,,,,,,,,,10,,78,0
42479,note_on,,59,0,5,,,,,,,,,,,,,,,,0,,69,0
42479,note_on,,59,0,8,,,,,,,,,,,,,,,,5,,69,0
42479,note_on,,59,0,10,,,,,,,,,,,,,,,,7,,62,0
42479,note_on,,59,0,6,,,,,,,,,,,,,,,,1,,69,0
42479,note_on,,59,0,13,,,,,,,,,,,,,,,,11,,69,0
42479,note_on,,59,0,11,,,,,,,,,,,,,,,,8,,50,0
42479,note_on,,59,0,14,,,,,,,,,,,,,,,,12,,62,0
42479,note_on,,0,0,16,,,,,,,,,,,,,,,,15,,66,0
42479,note_on,,0,0,16,,,,,,,,,,,,,,,,15,,74,0
42479,note_on,,59,0,7,,,,,,,,,,,,,,,,2,,50,0
42479,note_on,,59,0,15,,,,,,,,,,,,,,,,13,,50,0
42479,note_on,,59,0,9,,,,,,,,,,,,,,,,6,,66,0
42479,note_on,,0,0,16,,,,,,,,,,,,,,,,15,,69,0
42479,note_on,,0,0,16,,,,,,,,,,,,,,,,15,,57,0
42479,note_on,,59,0,16,,,,,,,,,,,,,,,,15,,50,0
42480,note_on,,1,0,7,,,,,,,,,,,,,,,,2,,55,72
42480,note_on,,1,0,13,,,,,,,,,,,,,,,,11,,71,72
42480,note_on,,1,0,15,,,,,,,,,,,,,,,,13,,55,72
42480,note_on,,0,0,16,,,,,,,,,,,,,,,,15,,62,72
42480,note_on,,0,0,16,,,,,,,,,,,,,,,,15,,59,72
42480,note_on,,1,0,6,,,,,,,,,,,,,,,,1,,71,72
42480,note_on,,1,0,8,,,,,,,,,,,,,,,,5,,71,88
42480,note_on,,0,0,16,,,,,,,,,,,,,,,,15,,71,72
42480,note_on,,1,0,16,,,,,,,,,,,,,,,,15,,55,72
42480,note_on,,1,0,10,,,,,,,,,,,,,,,,7,,62,88
42480,note_on,,1,0,9,,,,,,,,,,,,,,,,6,,67,88
42480,note_on,,1,0,14,,,,,,,,,,,,,,,,12,,62,72
42480,note_on,,1,0,5,,,,,,,,,,,,,,,,0,,71,72
42480,note_on,,1,0,11,,,,,,,,,,,,,,,,8,,55,88
42480,note_on,,0,0,16,,,,,,,,,,,,,,,,15,,67,72
42480,note_on,,1,0,12,,,,,,,,,,,,,,,,10,,79,72
42539,note_on,,59,0,12,,,,,,,,,,,,,,,,10,,79,0
42539,note_on,,59,0,13,,,,,,,,,,,,,,,,11,,71,0
42539,note_on,,59,0,14,,,,,,,,,,,,,,,,12,,62,0
42540,note_on,,1,0,14,,,,,,,,,,,,,,,,12,,62,72
42540,note_on,,1,0,12,,,,,,,,,,,,,,,,10,,74,72
42540,note_on,,1,0,13,,,,,,,,,,,,,,,,11,,71,72
42599,note_on,,59,0,13,,,,,,,,,,,,,,,,11,,71,0
42599,note_on,,119,0,11,,,,,,,,,,,,,,,,8,,55,0
42599,note_on,,119,0,6,,,,,,,,,,,,,,,,1,,71,0
42599,note_on,,119,0,8,,,,,,,,,,,,,,,,5,,71,0
42599,note_on,,119,0,10,,,,,,,,,,,,,,,,7,,62,0
42599,note_on,,0,0,16,,,,,,,,,,,,,,,,15,,59,0
42599,note_on,,0,0,16,,,,,,,,,,,,,,,,15,,62,0
42599,note_on,,0,0,16,,,,,,,,,,,,,,,,15,,67,0
42599,note_on,,0,0,16,,,,,,,,,,,,,,,,15,,71,0
42599,note_on,,119,0,16,,,,,,,,,,,,,,,,15,,55,0
42599,note_on,,119,0,15,,,,,,,,,,,,,,,,13,,55,0
42599,note_on,,119,0,7,,,,,,,,,,,,,,,,2,,55,0
42599,note_on,,119,0,9,,,,,,,,,,,,,,,,6,,67,0
42599,note_on,,59,0,14,,,,,,,,,,,,,,,,12,,62,0
42599,note_on,,119,0,5,,,,,,,,,,,,,,,,0,,71,0
42599,note_on,,59,0,12,,,,,,,,,,,,,,,,10,,74,0
42600,note_on,,1,0,12,,,,,,,,,,,,,,,,10,,79,72
42600,note_on,,1,0,13,,,,,,,,,,,,,,,,11,,74,72
42600,note_on,,1,0,14,,,,,,,,,,,,,,,,12,,71,72
42659,note_on,,59,0,12,,,,,,,,,,,,,,,,10,,79,0
42659,note_on,,59,0,14,,,,,,,,,,,,,,,,12,,71,0
42659,note_on,,59,0,13,,,,,,,,,,,,,,,,11,,74,0
42660,note_on,,61,0,16,,,,,,,,,,,,,,,,15,,55,72
42660,note_on,,0,0,16,,,,,,,,,,,,,,,,15,,74,72
42660,note_on,,0,0,16,,,,,,,,,,,,,,,,15,,67,72
42660,note_on,,0,0,16,,,,,,,,,,,,,,,,15,,59,72
42660,note_on,,61,0,15,,,,,,,,,,,,,,,,13,,55,72
42660,note_on,,61,0,10,,,,,,,,,,,,,,,,7,,62,88
42660,note_on,,61,0,5,,,,,,,,,,,,,,,,0,,71,72
42660,note_on,,1,0,14,,,,,,,,,,,,,,,,12,,62,72
42660,note_on,,61,0,7,,,,,,,,,,,,,,,,2,,55,72
42660,note_on,,61,0,9,,,,,,,,,,,,,,,,6,,67,88
42660,note_on,,1,0,12,,,,,,,,,,,,,,,,10,,78,72
42660,note_on,,61,0,11,,,,,,,,,,,,,,,,8,,55,88
42660,note_on,,1,0,13,,,,,,,,,,,,,,,,11,,71,72
42660,note_on,,61,0,8,,,,,,,,,,,,,,,,5,,71,88
42660,note_on,,61,0,6,,,,,,,,,,,,,,,,1,,71,72
42719,note_on,,0,0,16,,,,,,,,,,,,,,,,15,,67,0
42719,note_on,,0,0,16,,,,,,,,,,,,,,,,15,,59,0
42719,note_on,,59,0,10,,,,,,,,,,,,,,,,7,,62,0
42719,note_on,,59,0,16,,,,,,,,,,,,,,,,15,,55,0
42719,note_on,,59,0,11,,,,,,,,,,,,,,,,8,,55,0
42719,note_on,,59,0,12,,,,,,,,,,,,,,,,10,,78,0
42719,note_on,,59,0,13,,,,,,,,,,,,,,,,11,,71,0
42719,note_on,,59,0,8,,,,,,,,,,,,,,,,5,,71,0
42719,note_on,,59,0,6,,,,,,,,,,,,,,,,1,,71,0
42719,note_on,,59,0,14,,,,,,,,,,,,,,,,12,,62,0
42719,note_on,,0,0,16,,,,,,,,,,,,,,,,15,,74,0
42719,note_on,,59,0,9,,,,,,,,,,,,,,,,6,,67,0
42719,note_on,,59,0,7,,,,,,,,,,,,,,,,2,,55,0
42719,note_on,,59,0,5,,,,,,,,,,,,,,,,0,,71,0
42719,note_on,,59,0,15,,,,,,,,,,,,,,,,13,,55,0
42720,note_on,,1,0,5,,,,,,,,,,,,,,,,0,,76,72
42720,note_on,,1,0,16,,,,,,,,,,,,,,,,15,,60,72
42720,note_on,,0,0,16,,,,,,,,,,,,,,,,15,,64,72
42720,note_on,,1,0,6,,,,,,,,,,,,,,,,1,,76,72
42720,note_on,,1,0,7,,,,,,,,,,,,,,,,2,,60,72
42720,note_on,,1,0,8,,,,,,,,,,,,,,,,5,,76,88
42720,note_on,,1,0,11,,,,,,,,,,,,,,,,8,,60,88
42720,note_on,,0,0,16,,,,,,,,,,,,,,,,15,,76,72
42720,note_on,,1,0,12,,,,,,,,,,,,,,,,10,,76,72
42720,note_on,,0,0,16,,,,,,,,,,,,,,,,15,,67,72
42720,note_on,,1,0,15,,,,,,,,,,,,,,,,13,,60,72
42720,note_on,,1,0,10,,,,,,,,,,,,,,,,7,,64,88
42720,note_on,,1,0,14,,,,,,,,,,,,,,,,12,,64,72
42720,note_on,,1,0,13,,,,,,,,,,,,,,,,11,,67,72
42720,note_on,,1,0,9,,,,,,,,,,,,,,,,6,,67,88
42779,note_on,,59,0,5,,,,,,,,,,,,,,,,0,,76,0
42779,note_on,,59,0,10,,,,,,,,,,,,,,,,7,,64,0
42779,note_on,,59,0,7,,,,,,,,,,,,,,,,2,,60,0
42779,note_on,,59,0,15,,,,,,,,,,,,,,,,13,,60,0
42779,note_on,,59,0,9,,,,,,,,,,,,,,,,6,,67,0
42779,note_on,,59,0,11,,,,,,,,,,,,,,,,8,,60,0
42779,note_on,,59,0,16,,,,,,,,,,,,,,,,15,,60,0
42779,note_on,,0,0,16,,,,,,,,,,,,,,,,15,,64,0
42779,note_on,,59,0,13,,,,,,,,,,,,,,,,11,,67,0
42779,note_on,,59,0,8,,,,,,,,,,,,,,,,5,,76,0
42779,note_on,,0,0,16,,,,,,,,,,,,,,,,15,,67,0
42779,note_on,,59,0,14,,,,,,,,,,,,,,,,12,,64,0
42779,note_on,,59,0,6,,,,,,,,,,,,,,,,1,,76,0
42779,note_on,,59,0,12,,,,,,,,,,,,,,,,10,,76,0
42779,note_on,,0,0,16,,,,,,,,,,,,,,,,15,,76,0
42780,note_on,,1,0,13,,,,,,,,,,,,,,,,11,,67,72
42780,note_on,,1,0,6,,,,,,,,,,,,,,,,1,,74,72
42780,note_on,,1,0,12,,,,,,,,,,,,,,,,10,,74,72
42780,note_on,,1,0,9,,,,,,,,,,,,,,,,6,,67,88
42780,note_on,,1,0,5,,,,,,,,,,,,,,,,0,,74,72
42780,note_on,,1,0,11,,,,,,,,,,,,,,,,8,,59,88
42780,note_on,,1,0,15,,,,,,,,,,,,,,,,13,,59,72
42780,note_on,,1,0,8,,,,,,,,,,,,,,,,5,,74,88
42780,note_on,,0,0,16,,,,,,,,,,,,,,,,15,,67,72
42780,note_on,,0,0,16,,,,,,,,,,,,,,,,15,,71,72
42780,note_on,,0,0,16,,,,,,,,,,,,,,,,15,,74,72
42780,note_on,,1,0,14,,,,,,,,,,,,,,,,12,,67,72
42780,note_on,,1,0,7,,,,,,,,,,,,,,,,2,,59,72
42780,note_on,,1,0,16,,,,,,,,,,,,,,,,15,,59,72
42780,note_on,,1,0,10,,,,,,,,,,,,,,,,7,,59,88
42839,note_on,,59,0,15,,,,,,,,,,,,,,,,13,,59,0
42839,note_on,,59,0,14,,,,,,,,,,,,,,,,12,,67,0
42839,note_on,,0,0,16,,,,,,,,,,,,,,,,15,,74,0
42839,note_on,,0,0,16,,,,,,,,,,,,,,,,15,,67,0
42839,note_on,,59,0,6,,,,,,,,,,,,,,,,1,,74,0
42839,note_on,,59,0,13,,,,,,,,,,,,,,,,11,,67,0
42839,note_on,,59,0,7,,,,,,,,,,,,,,,,2,,59,0
42839,note_on,,59,0,11,,,,,,,,,,,,,,,,8,,59,0
42839,note_on,,0,0,16,,,,,,,,,,,,,,,,15,,71,0
42839,note_on,,59,0,5,,,,,,,,,,,,,,,,0,,74,0
42839,note_on,,59,0,16,,,,,,,,,,,,,,,,15,,59,0
42839,note_on,,59,0,12,,,,,,,,,,,,,,,,10,,74,0
42839,note_on,,59,0,10,,,,,,,,,,,,,,,,7,,59,0
42839,note_on,,59,0,8,,,,,,,,,,,,,,,,5,,74,0
42839,note_on,,59,0,9,,,,,,,,,,,,,,,,6,,67,0
42840,note_on,,1,0,6,,,,,,,,,,,,,,,,1,,72,72
42840,note_on,,1,0,15,,,,,,,,,,,,,,,,13,,57,72
42840,note_on,,0,0,16,,,,,,,,,,,,,,,,15,,72,72
42840,note_on,,1,0,14,,,,,,,,,,,,,,,,12,,60,72
42840,note_on,,0,0,16,,,,,,,,,,,,,,,,15,,66,72
42840,note_on,,0,0,16,,,,,,,,,,,,,,,,15,,60,72
42840,note_on,,1,0,7,,,,,,,,,,,,,,,,2,,57,72
42840,note_on,,1,0,8,,,,,,,,,,,,,,,,5,,72,88
42840,note_on,,1,0,11,,,,,,,,,,,,,,,,8,,57,88
42840,note_on,,1,0,5,,,,,,,,,,,,,,,,0,,72,72
42840,note_on,,1,0,10,,,,,,,,,,,,,,,,7,,60,88
42840,note_on,,1,0,9,,,,,,,,,,,,,,,,6,,66,88
42840,note_on,,1,0,13,,,,,,,,,,,,,,,,11,,66,72
42840,note_on,,1,0,12,,,,,,,,,,,,,,,,10,,72,72
42840,note_on,,1,0,16,,,,,,,,,,,,,,,,15,,57,72
42899,note_on,,59,0,8,,,,,,,,,,,,,,,,5,,72,0
42899,note_on,,59,0,15,,,,,,,,,,,,,,,,13,,57,0
42899,note_on,,59,0,11,,,,,,,,,,,,,,,,8,,57,0
42899,note_on,,0,0,16,,,,,,,,,,,,,,,,15,,66,0
42899,note_on,,59,0,13,,,,,,,,,,,,,,,,11,,66,0
42899,note_on,,59,0,14,,,,,,,,,,,,,,,,12,,60,0
42899,note_on,,59,0,9,,,,,,,,,,,,,,,,6,,66,0
42899,note_on,,59,0,7,,,,,,,,,,,,,,,,2,,57,0
42899,note_on,,59,0,16,,,,,,,,,,,,,,,,15,,57,0
42899,note_on,,59,0,5,,,,,,,,,,,,,,,,0,,72,0
42899,note_on,,59,0,10,,,,,,,,,,,,,,,,7,,60,0
42899,note_on,,0,0,16,,,,,,,,,,,,,,,,15,,72,0
42899,note_on,,59,0,6,,,,,,,,,,,,,,,,1,,72,0
42900,note_on,,1,0,15,,,,,,,,,,,,,,,,13,,55,72
42900,note_on,,1,0,9,,,,,,,,,,,,,,,,6,,67,88
42900,note_on,,1,0,14,,,,,,,,,,,,,,,,12,,64,72
42900,note_on,,1,0,7,,,,,,,,,,,,,,,,2,,55,72
42900,note_on,,1,0,11,,,,,,,,,,,,,,,,8,,55,88
42900,note_on,,1,0,8,,,,,,,,,,,,,,,,5,,72,88
42900,note_on,,1,0,13,,,,,,,,,,,,,,,,11,,67,72
42900,note_on,,1,0,16,,,,,,,,,,,,,,,,15,,55,72
42900,note_on,,1,0,6,,,,,,,,,,,,,,,,1,,72,72
42900,note_on,,0,0,16,,,,,,,,,,,,,,,,15,,72,72
42900,note_on,,0,0,16,,,,,,,,,,,,,,,,15,,67,72
42900,note_on,,0,0,16,,,,,,,,,,,,,,,,15,,64,72
42900,note_on,,1,0,10,,,,,,,,,,,,,,,,7,,64,88
42900,note_on,,1,0,5,,,,,,,,,,,,,,,,0,,72,72
42959,note_on,,59,0,5,,,,,,,,,,,,,,,,0,,72,0
42959,note_on,,59,0,13,,,,,,,,,,,,,,,,11,,67,0
42959,note_on,,59,0,10,,,,,,,,,,,,,,,,7,,64,0
42959,note_on,,59,0,6,,,,,,,,,,,,,,,,1,,72,0
42959,note_on,,0,0,16,,,,,,,,,,,,,,,,15,,64,0
42959,note_on,,59,0,7,,,,,,,,,,,,,,,,2,,55,0
42959,note_on,,0,0,16,,,,,,,,,,,,,,,,15,,55,0
42959,note_on,,0,0,16,,,,,,,,,,,,,,,,15,,72,0
42959,note_on,,59,0,11,,,,,,,,,,,,,,,,8,,55,0
42959,note_on,,59,0,16,,,,,,,,,,,,,,,,15,,60,0
42959,note_on,,59,0,15,,,,,,,,,,,,,,,,13,,55,0
42959,note_on,,59,0,14,,,,,,,,,,,,,,,,12,,64,0
42959,note_on,,59,0,9,,,,,,,,,,,,,,,,6,,67,0
42959,note_on,,59,0,8,,,,,,,,,,,,,,,,5,,72,0
42959,note_on,,0,0,16,,,,,,,,,,,,,,,,15,,67,0
42960,note_on,,1,0,15,,,,,,,,,,,,,,,,13,,54,72
42960,note_on,,1,0,5,,,,,,,,,,,,,,,,0,,72,72
42960,note_on,,1,0,9,,,,,,,,,,,,,,,,6,,69,88
42960,note_on,,1,0,7,,,,,,,,,,,,,,,,2,,54,72
42960,note_on,,1,0,14,,,,,,,,,,,,,,,,12,,62,72
42960,note_on,,1,0,10,,,,,,,,,,,,,,,,7,,62,88
42960,note_on,,1,0,6,,,,,,,,,,,,,,,,1,,72,72
42960,note_on,,1,0,11,,,,,,,,,,,,,,,,8,,54,88
42960,note_on,,0,0,16,,,,,,,,,,,,,,,,15,,57,72
42960,note_on,,0,0,16,,,,,,,,,,,,,,,,15,,62,72
42960,note_on,,1,0,13,,,,,,,,,,,,,,,,11,,69,72
42960,note_on,,1,0,8,,,,,,,,,,,,,,,,5,,72,88
42960,note_on,,1,0,16,,,,,,,,,,,,,,,,15,,54,72
42960,note_on,,0,0,16,,,,,,,,,,,,,,,,15,,72,72
42960,note_on,,0,0,16,,,,,,,,,,,,,,,,15,,69,72
43019,note_on,,59,0,13,,,,,,,,,,,,,,,,11,,69,0
43019,note_on,,59,0,6,,,,,,,,,,,,,,,,1,,72,0
43019,note_on,,0,0,16,,,,,,,,,,,,,,,,15,,57,0
43019,note_on,,59,0,11,,,,,,,,,,,,,,,,8,,54,0
43019,note_on,,59,0,9,,,,,,,,,,,,,,,,6,,69,0
43019,note_on,,59,0,7,,,,,,,,,,,,,,,,2,,54,0
43019,note_on,,59,0,5,,,,,,,,,,,,,,,,0,,72,0
43019,note_on,,59,0,10,,,,,,,,,,,,,,,,7,,62,0
43019,note_on,,0,0,16,,,,,,,,,,,,,,,,15,,62,0
43019,note_on,,179,0,12,,,,,,,,,,,,,,,,10,,72,0
43019,note_on,,59,0,14,,,,,,,,,,,,,,,,12,,62,0
43019,note_on,,0,0,16,,,,,,,,,,,,,,,,15,,69,0
43019,note_on,,0,0,16,,,,,,,,,,,,,,,,15,,72,0
43019,note_on,,59,0,16,,,,,,,,,,,,,,,,15,,54,0
43019,note_on,,59,0,8,,,,,,,,,,,,,,,,5,,72,0
43019,note_on,,59,0,15,,,,,,,,,,,,,,,,13,,54,0
43020,note_on,,1,0,14,,,,,,,,,,,,,,,,12,,62,72
43020,note_on,,0,0,16,,,,,,,,,,,,,,,,15,,67,72
43020,note_on,,1,0,13,,,,,,,,,,,,,,,,11,,67,72
43020,note_on,,1,0,7,,,,,,,,,,,,,,,,2,,55,72
43020,note_on,,1,0,10,,,,,,,,,,,,,,,,7,,62,88
43020,note_on,,1,0,5,,,,,,,,,,,,,,,,0,,71,72
43020,note_on,,0,0,16,,,,,,,,,,,,,,,,15,,59,72
43020,note_on,,0,0,16,,,,,,,,,,,,,,,,15,,62,72
43020,note_on,,1,0,15,,,,,,,,,,,,,,,,13,,55,72
43020,note_on,,1,0,9,,,,,,,,,,,,,,,,6,,67,88
43020,note_on,,0,0,16,,,,,,,,,,,,,,,,15,,71,72
43020,note_on,,1,0,8,,,,,,,,,,,,,,,,5,,71,88
43020,note_on,,1,0,11,,,,,,,,,,,,,,,,8,,55,88
43020,note_on,,1,0,6,,,,,,,,,,,,,,,,1,,71,72
43020,note_on,,1,0,16,,,,,,,,,,,,,,,,15,,55,72
43020,note_on,,1,0,12,,,,,,,,,,,,,,,,10,,71,72
43139,note_on,,119,0,15,,,,,,,,,,,,,,,,13,,55,0
43139,note_on,,119,0,6,,,,,,,,,,,,,,,,1,,71,0
43139,note_on,,119,0,16,,,,,,,,,,,,,,,,15,,55,0
43139,note_on,,0,0,16,,,,,,,,,,,,,,,,15,,71,0
43139,note_on,,0,0,16,,,,,,,,,,,,,,,,15,,67,0
43139,note_on,,0,0,16,,,,,,,,,,,,,,,,15,,62,0
43139,note_on,,0,0,16,,,,,,,,,,,,,,,,15,,59,0
43139,note_on,,119,0,5,,,,,,,,,,,,,,,,0,,71,0
43139,note_on,,119,0,10,,,,,,,,,,,,,,,,7,,62,0
43139,note_on,,119,0,12,,,,,,,,,,,,,,,,10,,71,0
43139,note_on,,119,0,14,,,,,,,,,,,,,,,,12,,62,0
43139,note_on,,119,0,13,,,,,,,,,,,,,,,,11,,67,0
43139,note_on,,119,0,7,,,,,,,,,,,,,,,,2,,55,0
43139,note_on,,119,0,11,,,,,,,,,,,,,,,,8,,55,0
43139,note_on,,119,0,9,,,,,,,,,,,,,,,,6,,67,0
43139,note_on,,119,0,8,,,,,,,,,,,,,,,,5,,71,0
43140,note_on,,1,0,15,,,,,,,,,,,,,,,,13,,48,72
43140,note_on,,1,0,12,,,,,,,,,,,,,,,,10,,69,72
43140,note_on,,1,0,5,,,,,,,,,,,,,,,,0,,69,72
43140,note_on,,1,0,13,,,,,,,,,,,,,,,,11,,67,72
43140,note_on,,1,0,7,,,,,,,,,,,,,,,,2,,48,72
43140,note_on,,0,0,16,,,,,,,,,,,,,,,,15,,67,72
43140,note_on,,1,0,14,,,,,,,,,,,,,,,,12,,64,72
43140,note_on,,1,0,11,,,,,,,,,,,,,,,,8,,48,88
43140,note_on,,1,0,9,,,,,,,,,,,,,,,,6,,67,88
43140,note_on,,1,0,6,,,,,,,,,,,,,,,,1,,69,72
43140,note_on,,1,0,8,,,,,,,,,,,,,,,,5,,69,88
43140,note_on,,0,0,16,,,,,,,,,,,,,,,,15,,64,72
43140,note_on,,1,0,16,,,,,,,,,,,,,,,,15,,48,72
43140,note_on,,0,0,16,,,,,,,,,,,,,,,,15,,69,72
43140,note_on,,1,0,10,,,,,,,,,,,,,,,,7,,64,88
43140,note_on,,0,0,16,,,,,,,,,,,,,,,,15,,55,72
43199,note_on,,59,0,11,,,,,,,,,,,,,,,,8,,48,0
43199,note_on,,59,0,9,,,,,,,,,,,,,,,,6,,67,0
43199,note_on,,59,0,12,,,,,,,,,,,,,,,,10,,69,0
43199,note_on,,59,0,14,,,,,,,,,,,,,,,,12,,64,0
43199,note_on,,59,0,7,,,,,,,,,,,,,,,,2,,48,0
43199,note_on,,59,0,13,,,,,,,,,,,,,,,,11,,67,0
43199,note_on,,59,0,15,,,,,,,,,,,,,,,,13,,48,0
43199,note_on,,0,0,16,,,,,,,,,,,,,,,,15,,55,0
43199,note_on,,59,0,10,,,,,,,,,,,,,,,,7,,64,0
43199,note_on,,59,0,8,,,,,,,,,,,,,,,,5,,69,0
43199,note_on,,0,0,16,,,,,,,,,,,,,,,,15,,64,0
43199,note_on,,0,0,16,,,,,,,,,,,,,,,,15,,67,0
43199,note_on,,59,0,16,,,,,,,,,,,,,,,,15,,48,0
43199,note_on,,59,0,5,,,,,,,,,,,,,,,,0,,69,0
43199,note_on,,0,0,16,,,,,,,,,,,,,,,,15,,69,0
43199,note_on,,59,0,6,,,,,,,,,,,,,,,,1,,69,0
43200,note_on,,1,0,10,,,,,,,,,,,,,,,,7,,62,88
43200,note_on,,0,0,16,,,,,,,,,,,,,,,,15,,62,72
43200,note_on,,1,0,7,,,,,,,,,,,,,,,,2,,50,72
43200,note_on,,0,0,16,,,,,,,,,,,,,,,,15,,57,72
43200,note_on,,0,0,16,,,,,,,,,,,,,,,,15,,54,72
43200,note_on,,1,0,6,,,,,,,,,,,,,,,,1,,69,72
43200,note_on,,1,0,8,,,,,,,,,,,,,,,,5,,69,88
43200,note_on,,1,0,12,,,,,,,,,,,,,,,,10,,69,72
43200,note_on,,1,0,5,,,,,,,,,,,,,,,,0,,69,72
43200,note_on,,1,0,14,,,,,,,,,,,,,,,,12,,62,72
43200,note_on,,1,0,13,,,,,,,,,,,,,,,,11,,66,72
43200,note_on,,1,0,9,,,,,,,,,,,,,,,,6,,66,88
43200,note_on,,1,0,11,,,,,,,,,,,,,,,,8,,50,88
43200,note_on,,0,0,16,,,,,,,,,,,,,,,,15,,69,72
43200,note_on,,1,0,15,,,,,,,,,,,,,,,,13,,50,72
43200,note_on,,1,0,16,,,,,,,,,,,,,,,,15,,50,72
43214,note_on,,14,0,13,,,,,,,,,,,,,,,,11,,66,0
43214,note_on,,14,0,12,,,,,,,,,,,,,,,,10,,69,0
43215,note_on,,1,0,12,,,,,,,,,,,,,,,,10,,71,72
43215,note_on,,1,0,13,,,,,,,,,,,,,,,,11,,67,72
43229,note_on,,14,0,12,,,,,,,,,,,,,,,,10,,71,0
43229,note_on,,14,0,13,,,,,,,,,,,,,,,,11,,67,0
43230,note_on,,1,0,12,,,,,,,,,,,,,,,,10,,69,72
43230,note_on,,1,0,13,,,,,,,,,,,,,,,,11,,66,72
43244,note_on,,14,0,12,,,,,,,,,,,,,,,,10,,69,0
43244,note_on,,14,0,13,,,,,,,,,,,,,,,,11,,66,0
43245,note_on,,1,0,13,,,,,,,,,,,,,,,,11,,67,72
43245,note_on,,1,0,12,,,,,,,,,,,,,,,,10,,71,72
43259,note_on,,14,0,13,,,,,,,,,,,,,,,,11,,67,0
43259,note_on,,14,0,12,,,,,,,,,,,,,,,,10,,71,0
43260,note_on,,1,0,13,,,,,,,,,,,,,,,,11,,66,72
43260,note_on,,1,0,12,,,,,,,,,,,,,,,,10,,69,72
43274,note_on,,14,0,13,,,,,,,,,,,,,,,,11,,66,0
43274,note_on,,14,0,12,,,,,,,,,,,,,,,,10,,69,0
43275,note_on,,1,0,12,,,,,,,,,,,,,,,,10,,71,72
43275,note_on,,1,0,13,,,,,,,,,,,,,,,,11,,67,72
43289,note_on,,14,0,12,,,,,,,,,,,,,,,,10,,71,0
43289,note_on,,14,0,13,,,,,,,,,,,,,,,,11,,67,0
43290,note_on,,1,0,12,,,,,,,,,,,,,,,,10,,69,72
43290,note_on,,1,0,13,,,,,,,,,,,,,,,,11,,66,72
43304,note_on,,14,0,12,,,,,,,,,,,,,,,,10,,69,0
43304,note_on,,14,0,13,,,,,,,,,,,,,,,,11,,66,0
43305,note_on,,1,0,12,,,,,,,,,,,,,,,,10,,71,72
43305,note_on,,1,0,13,,,,,,,,,,,,,,,,11,,67,72
43319,note_on,,14,0,13,,,,,,,,,,,,,,,,11,,67,0
43319,note_on,,119,0,7,,,,,,,,,,,,,,,,2,,50,0
43319,note_on,,0,0,16,,,,,,,,,,,,,,,,15,,54,0
43319,note_on,,119,0,16,,,,,,,,,,,,,,,,15,,50,0
43319,note_on,,119,0,15,,,,,,,,,,,,,,,,13,,50,0
43319,note_on,,14,0,12,,,,,,,,,,,,,,,,10,,71,0
43320,note_on,,1,0,7,,,,,,,,,,,,,,,,2,,38,72
43320,note_on,,1,0,15,,,,,,,,,,,,,,,,13,,38,72
43320,note_on,,1,0,13,,,,,,,,,,,,,,,,11,,66,72
43320,note_on,,1,0,16,,,,,,,,,,,,,,,,15,,38,72
43320,note_on,,1,0,12,,,,,,,,,,,,,,,,10,,69,72
43320,note_on,,0,0,16,,,,,,,,,,,,,,,,15,,50,72
43334,note_on,,14,0,12,,,,,,,,,,,,,,,,10,,69,0
43334,note_on,,14,0,13,,,,,,,,,,,,,,,,11,,66,0
43335,note_on,,1,0,12,,,,,,,,,,,,,,,,10,,71,72
43335,note_on,,1,0,13,,,,,,,,,,,,,,,,11,,67,72
43349,note_on,,14,0,12,,,,,,,,,,,,,,,,10,,71,0
43349,note_on,,14,0,13,,,,,,,,,,,,,,,,11,,67,0
43350,note_on,,1,0,13,,,,,,,,,,,,,,,,11,,64,72
43350,note_on,,1,0,12,,,,,,,,,,,,,,,,10,,67,72
43364,note_on,,14,0,13,,,,,,,,,,,,,,,,11,,64,0
43364,note_on,,14,0,12,,,,,,,,,,,,,,,,10,,67,0
43365,note_on,,1,0,13,,,,,,,,,,,,,,,,11,,66,72
43365,note_on,,1,0,12,,,,,,,,,,,,,,,,10,,69,72
43379,note_on,,0,0,16,,,,,,,,,,,,,,,,15,,62,0
43379,note_on,,179,0,5,,,,,,,,,,,,,,,,0,,69,0
43379,note_on,,179,0,10,,,,,,,,,,,,,,,,7,,62,0
43379,note_on,,14,0,12,,,,,,,,,,,,,,,,10,,69,0
43379,note_on,,179,0,6,,,,,,,,,,,,,,,,1,,69,0
43379,note_on,,59,0,16,,,,,,,,,,,,,,,,15,,69,0
43379,note_on,,179,0,8,,,,,,,,,,,,,,,,5,,69,0
43379,note_on,,179,0,14,,,,,,,,,,,,,,,,12,,62,0
43379,note_on,,179,0,9,,,,,,,,,,,,,,,,6,,66,0
43379,note_on,,179,0,11,,,,,,,,,,,,,,,,8,,50,0
43379,note_on,,14,0,13,,,,,,,,,,,,,,,,11,,66,0
43379,note_on,,0,0,16,,,,,,,,,,,,,,,,15,,57,0
43380,note_on,,1,0,11,,,,,,,,,,,,,,,,8,,50,88
43380,note_on,,1,0,13,,,,,,,,,,,,,,,,11,,66,72
43380,note_on,,1,0,16,,,,,,,,,,,,,,,,15,,69,72
43380,note_on,,0,0,16,,,,,,,,,,,,,,,,15,,66,72
43380,note_on,,1,0,9,,,,,,,,,,,,,,,,6,,62,88
43380,note_on,,1,0,12,,,,,,,,,,,,,,,,10,,69,72
43380,note_on,,0,0,16,,,,,,,,,,,,,,,,15,,60,72
43380,note_on,,1,0,5,,,,,,,,,,,,,,,,0,,69,72
43380,note_on,,1,0,14,,,,,,,,,,,,,,,,12,,62,72
43380,note_on,,1,0,6,,,,,,,,,,,,,,,,1,,69,72
43380,note_on,,1,0,8,,,,,,,,,,,,,,,,5,,69,88
43380,note_on,,1,0,10,,,,,,,,,,,,,,,,7,,60,88
43439,note_on,,59,0,5,,,,,,,,,,,,,,,,0,,69,0
43439,note_on,,59,0,9,,,,,,,,,,,,,,,,6,,62,0
43439,note_on,,59,0,6,,,,,,,,,,,,,,,,1,,69,0
43439,note_on,,59,0,12,,,,,,,,,,,,,,,,10,,69,0
43439,note_on,,59,0,13,,,,,,,,,,,,,,,,11,,66,0
43439,note_on,,0,0,16,,,,,,,,,,,,,,,,15,,66,0
43439,note_on,,119,0,15,,,,,,,,,,,,,,,,13,,38,0
43439,note_on,,59,0,11,,,,,,,,,,,,,,,,8,,50,0
43439,note_on,,59,0,8,,,,,,,,,,,,,,,,5,,69,0
43439,note_on,,59,0,10,,,,,,,,,,,,,,,,7,,60,0
43439,note_on,,59,0,14,,,,,,,,,,,,,,,,12,,62,0
43439,note_on,,59,0,16,,,,,,,,,,,,,,,,15,,38,0
43439,note_on,,0,0,16,,,,,,,,,,,,,,,,15,,50,0
43439,note_on,,0,0,16,,,,,,,,,,,,,,,,15,,69,0
43439,note_on,,0,0,16,,,,,,,,,,,,,,,,15,,60,0
43439,note_on,,119,0,7,,,,,,,,,,,,,,,,2,,38,0
43440,note_on,,1,0,13,,,,,,,,,,,,,,,,11,,67,72
43440,note_on,,1,0,5,,,,,,,,,,,,,,,,0,,67,72
43440,note_on,,1,0,6,,,,,,,,,,,,,,,,1,,67,72
43440,note_on,,1,0,12,,,,,,,,,,,,,,,,10,,71,72
43440,note_on,,1,0,15,,,,,,,,,,,,,,,,13,,43,72
43440,note_on,,1,0,16,,,,,,,,,,,,,,,,15,,43,72
43440,note_on,,1,0,10,,,,,,,,,,,,,,,,7,,59,88
43440,note_on,,1,0,8,,,,,,,,,,,,,,,,5,,67,88
43440,note_on,,1,0,14,,,,,,,,,,,,,,,,12,,62,72
43440,note_on,,1,0,9,,,,,,,,,,,,,,,,6,,62,88
43440,note_on,,0,0,16,,,,,,,,,,,,,,,,15,,50,72
43440,note_on,,0,0,16,,,,,,,,,,,,,,,,15,,59,72
43440,note_on,,0,0,16,,,,,,,,,,,,,,,,15,,62,72
43440,note_on,,0,0,16,,,,,,,,,,,,,,,,15,,67,72
43440,note_on,,1,0,11,,,,,,,,,,,,,,,,8,,43,88
43440,note_on,,1,0,7,,,,,,,,,,,,,,,,2,,43,72
43469,note_on,,29,0,12,,,,,,,,,,,,,,,,10,,71,0
43470,note_on,,1,0,12,,,,,,,,,,,,,,,,10,,62,72
43499,note_on,,29,0,12,,,,,,,,,,,,,,,,10,,62,0
43500,note_on,,1,0,12,,,,,,,,,,,,,,,,10,,64,72
43529,note_on,,29,0,12,,,,,,,,,,,,,,,,10,,64,0
43529,note_on,,89,0,13,,,,,,,,,,,,,,,,11,,67,0
43530,note_on,,1,0,12,,,,,,,,,,,,,,,,10,,66,72
43530,note_on,,1,0,13,,,,,,,,,,,,,,,,11,,62,72
43559,note_on,,29,0,13,,,,,,,,,,,,,,,,11,,62,0
43559,note_on,,29,0,12,,,,,,,,,,,,,,,,10,,66,0
43560,note_on,,1,0,12,,,,,,,,,,,,,,,,10,,67,72
43560,note_on,,1,0,13,,,,,,,,,,,,,,,,11,,64,72
43589,note_on,,29,0,13,,,,,,,,,,,,,,,,11,,64,0
43589,note_on,,29,0,12,,,,,,,,,,,,,,,,10,,67,0
43590,note_on,,1,0,13,,,,,,,,,,,,,,,,11,,66,72
43590,note_on,,1,0,12,,,,,,,,,,,,,,,,10,,69,72
43619,note_on,,29,0,12,,,,,,,,,,,,,,,,10,,69,0
43619,note_on,,29,0,13,,,,,,,,,,,,,,,,11,,66,0
43620,note_on,,1,0,12,,,,,,,,,,,,,,,,10,,71,72
43620,note_on,,1,0,13,,,,,,,,,,,,,,,,11,,67,72
43649,note_on,,29,0,13,,,,,,,,,,,,,,,,11,,67,0
43649,note_on,,29,0,12,,,,,,,,,,,,,,,,10,,71,0
43650,note_on,,1,0,12,,,,,,,,,,,,,,,,10,,72,72
43650,note_on,,1,0,13,,,,,,,,,,,,,,,,11,,69,72
43679,end_of_track,,0,1,10,,,,,,,,,,,,,,,,,,,
43679,note_on,,29,0,13,,,,,,,,,,,,,,,,11,,69,0
43679,note_on,,239,0,8,,,,,,,,,,,,,,,,5,,67,0
43679,end_of_track,,0,1,8,,,,,,,,,,,,,,,,,,,
43679,note_on,,239,0,10,,,,,,,,,,,,,,,,7,,59,0
43679,note_on,,0,0,16,,,,,,,,,,,,,,,,15,,50,0
43679,note_on,,239,0,9,,,,,,,,,,,,,,,,6,,62,0
43679,end_of_track,,0,1,9,,,,,,,,,,,,,,,,,,,
43679,note_on,,0,0,16,,,,,,,,,,,,,,,,15,,59,0
43679,note_on,,0,0,16,,,,,,,,,,,,,,,,15,,62,0
43679,note_on,,0,0,16,,,,,,,,,,,,,,,,15,,67,0
43679,note_on,,239,0,5,,,,,,,,,,,,,,,,0,,67,0
43679,note_on,,239,0,16,,,,,,,,,,,,,,,,15,,43,0
43679,end_of_track,,0,1,5,,,,,,,,,,,,,,,,,,,
43679,note_on,,239,0,15,,,,,,,,,,,,,,,,13,,43,0
43679,note_on,,239,0,11,,,,,,,,,,,,,,,,8,,43,0
43679,end_of_track,,0,1,11,,,,,,,,,,,,,,,,,,,
43679,note_on,,239,0,14,,,,,,,,,,,,,,,,12,,62,0
43679,note_on,,29,0,12,,,,,,,,,,,,,,,,10,,72,0
43679,end_of_track,,0,1,6,,,,,,,,,,,,,,,,,,,
43679,note_on,,239,0,6,,,,,,,,,,,,,,,,1,,67,0
43679,note_on,,239,0,7,,,,,,,,,,,,,,,,2,,43,0
43680,note_on,,1,0,7,,,,,,,,,,,,,,,,2,,55,72
43680,note_on,,1,0,16,,,,,,,,,,,,,,,,15,,55,72
43680,note_on,,0,0,16,,,,,,,,,,,,,,,,15,,71,72
43680,note_on,,0,0,16,,,,,,,,,,,,,,,,15,,67,72
43680,note_on,,0,0,16,,,,,,,,,,,,,,,,15,,62,72
43680,note_on,,1,0,15,,,,,,,,,,,,,,,,13,,55,72
43680,note_on,,1,0,13,,,,,,,,,,,,,,,,11,,71,72
43680,note_on,,1,0,14,,,,,,,,,,,,,,,,12,,67,72
43680,note_on,,1,0,12,,,,,,,,,,,,,,,,10,,74,72
43739,note_on,,59,0,16,,,,,,,,,,,,,,,,15,,55,0
43739,note_on,,59,0,7,,,,,,,,,,,,,,,,2,,55,0
43739,note_on,,59,0,15,,,,,,,,,,,,,,,,13,,55,0
43739,note_on,,0,0,16,,,,,,,,,,,,,,,,15,,62,0
43740,note_on,,0,0,16,,,,,,,,,,,,,,,,15,,60,72
43740,note_on,,1,0,7,,,,,,,,,,,,,,,,2,,57,72
43740,note_on,,1,0,15,,,,,,,,,,,,,,,,13,,57,72
43740,note_on,,1,0,16,,,,,,,,,,,,,,,,15,,57,72
43799,note_on,,119,0,13,,,,,,,,,,,,,,,,11,,71,0
43799,note_on,,59,0,15,,,,,,,,,,,,,,,,13,,57,0
43799,note_on,,0,0,16,,,,,,,,,,,,,,,,15,,60,0
43799,note_on,,59,0,7,,,,,,,,,,,,,,,,2,,57,0
43799,note_on,,59,0,16,,,,,,,,,,,,,,,,15,,57,0
43800,note_on,,1,0,13,,,,,,,,,,,,,,,,11,,79,72
43800,note_on,,1,0,7,,,,,,,,,,,,,,,,2,,59,72
43800,note_on,,1,0,16,,,,,,,,,,,,,,,,15,,59,72
43800,note_on,,1,0,15,,,,,,,,,,,,,,,,13,,59,72
43800,note_on,,0,0,16,,,,,,,,,,,,,,,,15,,62,72
43859,note_on,,0,0,16,,,,,,,,,,,,,,,,15,,62,0
43859,note_on,,59,0,16,,,,,,,,,,,,,,,,15,,71,0
43859,note_on,,0,0,16,,,,,,,,,,,,,,,,15,,67,0
43859,note_on,,179,0,14,,,,,,,,,,,,,,,,12,,67,0
43859,note_on,,0,0,16,,,,,,,,,,,,,,,,15,,59,0
43859,note_on,,59,0,15,,,,,,,,,,,,,,,,13,,59,0
43859,note_on,,179,0,12,,,,,,,,,,,,,,,,10,,74,0
43859,note_on,,59,0,7,,,,,,,,,,,,,,,,2,,59,0
43860,note_on,,0,0,16,,,,,,,,,,,,,,,,15,,67,72
43860,note_on,,1,0,7,,,,,,,,,,,,,,,,2,,47,72
43860,note_on,,1,0,12,,,,,,,,,,,,,,,,10,,67,72
43860,note_on,,1,0,16,,,,,,,,,,,,,,,,15,,47,72
43860,note_on,,0,0,16,,,,,,,,,,,,,,,,15,,62,72
43860,note_on,,0,0,16,,,,,,,,,,,,,,,,15,,74,72
43860,note_on,,1,0,14,,,,,,,,,,,,,,,,12,,62,72
43860,note_on,,1,0,15,,,,,,,,,,,,,,,,13,,47,72
43919,note_on,,59,0,12,,,,,,,,,,,,,,,,10,,67,0
43919,note_on,,0,0,16,,,,,,,,,,,,,,,,15,,74,0
43919,note_on,,0,0,16,,,,,,,,,,,,,,,,15,,67,0
43919,note_on,,59,0,16,,,,,,,,,,,,,,,,15,,47,0
43919,note_on,,59,0,14,,,,,,,,,,,,,,,,12,,62,0
43919,note_on,,59,0,15,,,,,,,,,,,,,,,,13,,47,0
43919,note_on,,0,0,16,,,,,,,,,,,,,,,,15,,62,0
43919,note_on,,59,0,7,,,,,,,,,,,,,,,,2,,47,0
43920,note_on,,1,0,15,,,,,,,,,,,,,,,,13,,45,72
43920,note_on,,0,0,16,,,,,,,,,,,,,,,,15,,72,72
43920,note_on,,1,0,16,,,,,,,,,,,,,,,,15,,45,72
43920,note_on,,0,0,16,,,,,,,,,,,,,,,,15,,69,72
43920,note_on,,1,0,12,,,,,,,,,,,,,,,,10,,72,72
43920,note_on,,1,0,7,,,,,,,,,,,,,,,,2,,45,72
43920,note_on,,0,0,16,,,,,,,,,,,,,,,,15,,67,72
43920,note_on,,1,0,14,,,,,,,,,,,,,,,,12,,64,72
43979,note_on,,59,0,15,,,,,,,,,,,,,,,,13,,45,0
43979,note_on,,59,0,7,,,,,,,,,,,,,,,,2,,45,0
43979,note_on,,59,0,16,,,,,,,,,,,,,,,,15,,45,0
43979,note_on,,179,0,13,,,,,,,,,,,,,,,,11,,79,0
43979,note_on,,59,0,12,,,,,,,,,,,,,,,,10,,72,0
43979,note_on,,59,0,14,,,,,,,,,,,,,,,,12,,64,0
43980,note_on,,1,0,14,,,,,,,,,,,,,,,,12,,57,72
43980,note_on,,1,0,16,,,,,,,,,,,,,,,,15,,57,72
43980,note_on,,1,0,13,,,,,,,,,,,,,,,,11,,67,72
43980,note_on,,1,0,15,,,,,,,,,,,,,,,,13,,57,72
43980,note_on,,1,0,7,,,,,,,,,,,,,,,,2,,57,72
43980,note_on,,1,0,12,,,,,,,,,,,,,,,,10,,72,72
44039,note_on,,59,0,15,,,,,,,,,,,,,,,,13,,57,0
44039,note_on,,59,0,12,,,,,,,,,,,,,,,,10,,72,0
44039,note_on,,0,0,16,,,,,,,,,,,,,,,,15,,67,0
44039,note_on,,0,0,16,,,,,,,,,,,,,,,,15,,69,0
44039,note_on,,59,0,14,,,,,,,,,,,,,,,,12,,57,0
44039,note_on,,59,0,7,,,,,,,,,,,,,,,,2,,57,0
44039,note_on,,59,0,13,,,,,,,,,,,,,,,,11,,67,0
44039,note_on,,59,0,16,,,,,,,,,,,,,,,,15,,72,0
44039,note_on,,0,0,16,,,,,,,,,,,,,,,,15,,57,0
44040,note_on,,1,0,12,,,,,,,,,,,,,,,,10,,72,72
44040,note_on,,1,0,7,,,,,,,,,,,,,,,,2,,62,72
44040,note_on,,1,0,13,,,,,,,,,,,,,,,,11,,66,72
44040,note_on,,1,0,16,,,,,,,,,,,,,,,,15,,62,72
44040,note_on,,1,0,14,,,,,,,,,,,,,,,,12,,69,72
44040,note_on,,1,0,15,,,,,,,,,,,,,,,,13,,62,72
44040,note_on,,0,0,16,,,,,,,,,,,,,,,,15,,66,72
44040,note_on,,0,0,16,,,,,,,,,,,,,,,,15,,69,72
44099,note_on,,59,0,7,,,,,,,,,,,,,,,,2,,62,0
44099,note_on,,0,0,16,,,,,,,,,,,,,,,,15,,66,0
44099,note_on,,0,0,16,,,,,,,,,,,,,,,,15,,69,0
44099,note_on,,59,0,12,,,,,,,,,,,,,,,,10,,72,0
44099,note_on,,59,0,16,,,,,,,,,,,,,,,,15,,62,0
44099,note_on,,59,0,15,,,,,,,,,,,,,,,,13,,62,0
44099,note_on,,59,0,14,,,,,,,,,,,,,,,,12,,69,0
44100,note_on,,1,0,12,,,,,,,,,,,,,,,,10,,72,72
44100,note_on,,0,0,16,,,,,,,,,,,,,,,,15,,69,72
44100,note_on,,0,0,16,,,,,,,,,,,,,,,,15,,66,72
44100,note_on,,1,0,15,,,,,,,,,,,,,,,,13,,50,72
44100,note_on,,1,0,14,,,,,,,,,,,,,,,,12,,69,72
44100,note_on,,1,0,16,,,,,,,,,,,,,,,,15,,50,72
44100,note_on,,0,0,16,,,,,,,,,,,,,,,,15,,74,72
44100,note_on,,1,0,7,,,,,,,,,,,,,,,,2,,50,72
44159,note_on,,59,0,16,,,,,,,,,,,,,,,,15,,50,0
44159,note_on,,0,0,16,,,,,,,,,,,,,,,,15,,74,0
44159,note_on,,0,0,16,,,,,,,,,,,,,,,,15,,69,0
44159,note_on,,59,0,14,,,,,,,,,,,,,,,,12,,69,0
44159,note_on,,59,0,15,,,,,,,,,,,,,,,,13,,50,0
44159,note_on,,59,0,12,,,,,,,,,,,,,,,,10,,72,0
44159,note_on,,119,0,13,,,,,,,,,,,,,,,,11,,66,0
44159,note_on,,0,0,16,,,,,,,,,,,,,,,,15,,66,0
44159,note_on,,59,0,7,,,,,,,,,,,,,,,,2,,50,0
44160,note_on,,1,0,12,,,,,,,,,,,,,,,,10,,72,72
44160,note_on,,1,0,13,,,,,,,,,,,,,,,,11,,86,72
44160,note_on,,1,0,7,,,,,,,,,,,,,,,,2,,55,72
44160,note_on,,0,0,16,,,,,,,,,,,,,,,,15,,62,72
44160,note_on,,0,0,16,,,,,,,,,,,,,,,,15,,67,72
44160,note_on,,0,0,16,,,,,,,,,,,,,,,,15,,74,72
44160,note_on,,1,0,16,,,,,,,,,,,,,,,,15,,55,72
44160,note_on,,1,0,14,,,,,,,,,,,,,,,,12,,67,72
44160,note_on,,1,0,15,,,,,,,,,,,,,,,,13,,55,72
44219,note_on,,59,0,16,,,,,,,,,,,,,,,,15,,55,0
44219,note_on,,59,0,7,,,,,,,,,,,,,,,,2,,55,0
44219,note_on,,59,0,12,,,,,,,,,,,,,,,,10,,72,0
44219,note_on,,59,0,15,,,,,,,,,,,,,,,,13,,55,0
44220,note_on,,1,0,16,,,,,,,,,,,,,,,,15,,43,72
44220,note_on,,1,0,12,,,,,,,,,,,,,,,,10,,71,72
44220,note_on,,1,0,15,,,,,,,,,,,,,,,,13,,43,72
44220,note_on,,1,0,7,,,,,,,,,,,,,,,,2,,43,72
44279,note_on,,59,0,15,,,,,,,,,,,,,,,,13,,43,0
44279,note_on,,59,0,12,,,,,,,,,,,,,,,,10,,71,0
44279,note_on,,119,0,14,,,,,,,,,,,,,,,,12,,67,0
44279,note_on,,0,0,16,,,,,,,,,,,,,,,,15,,43,0
44279,note_on,,119,0,13,,,,,,,,,,,,,,,,11,,86,0
44279,note_on,,59,0,7,,,,,,,,,,,,,,,,2,,43,0
44279,note_on,,59,0,16,,,,,,,,,,,,,,,,15,,74,0
44279,note_on,,0,0,16,,,,,,,,,,,,,,,,15,,67,0
44279,note_on,,0,0,16,,,,,,,,,,,,,,,,15,,62,0
44280,note_on,,1,0,7,,,,,,,,,,,,,,,,2,,47,72
44280,note_on,,1,0,14,,,,,,,,,,,,,,,,12,,62,72
44280,note_on,,1,0,16,,,,,,,,,,,,,,,,15,,47,72
44280,note_on,,1,0,15,,,,,,,,,,,,,,,,13,,47,72
44280,note_on,,0,0,16,,,,,,,,,,,,,,,,15,,67,72
44280,note_on,,1,0,12,,,,,,,,,,,,,,,,10,,79,72
44280,note_on,,0,0,16,,,,,,,,,,,,,,,,15,,62,72
44339,note_on,,59,0,15,,,,,,,,,,,,,,,,13,,47,0
44339,note_on,,59,0,7,,,,,,,,,,,,,,,,2,,47,0
44339,note_on,,59,0,16,,,,,,,,,,,,,,,,15,,47,0
44339,note_on,,0,0,16,,,,,,,,,,,,,,,,15,,62,0
44339,note_on,,0,0,16,,,,,,,,,,,,,,,,15,,67,0
44339,note_on,,59,0,14,,,,,,,,,,,,,,,,12,,62,0
44340,note_on,,1,0,14,,,,,,,,,,,,,,,,12,,71,72
44340,note_on,,0,0,16,,,,,,,,,,,,,,,,15,,64,72
44340,note_on,,1,0,15,,,,,,,,,,,,,,,,13,,52,72
44340,note_on,,0,0,16,,,,,,,,,,,,,,,,15,,67,72
44340,note_on,,1,0,16,,,,,,,,,,,,,,,,15,,52,72
44340,note_on,,1,0,7,,,,,,,,,,,,,,,,2,,52,72
44340,note_on,,61,0,13,,,,,,,,,,,,,,,,11,,79,72
44340,note_on,,0,0,16,,,,,,,,,,,,,,,,15,,59,72
44399,note_on,,59,0,13,,,,,,,,,,,,,,,,11,,79,0
44399,note_on,,119,0,12,,,,,,,,,,,,,,,,10,,79,0
44399,note_on,,0,0,16,,,,,,,,,,,,,,,,15,,67,0
44399,note_on,,0,0,16,,,,,,,,,,,,,,,,15,,64,0
44399,note_on,,0,0,16,,,,,,,,,,,,,,,,15,,59,0
44399,note_on,,59,0,7,,,,,,,,,,,,,,,,2,,52,0
44399,note_on,,59,0,15,,,,,,,,,,,,,,,,13,,52,0
44399,note_on,,59,0,16,,,,,,,,,,,,,,,,15,,52,0
44399,note_on,,59,0,14,,,,,,,,,,,,,,,,12,,71,0
44400,note_on,,1,0,16,,,,,,,,,,,,,,,,15,,45,72
44400,note_on,,0,0,16,,,,,,,,,,,,,,,,15,,69,72
44400,note_on,,0,0,16,,,,,,,,,,,,,,,,15,,67,72
44400,note_on,,0,0,16,,,,,,,,,,,,,,,,15,,60,72
44400,note_on,,1,0,12,,,,,,,,,,,,,,,,10,,79,72
44400,note_on,,1,0,7,,,,,,,,,,,,,,,,2,,45,72
44400,note_on,,1,0,15,,,,,,,,,,,,,,,,13,,45,72
44400,note_on,,1,0,13,,,,,,,,,,,,,,,,11,,84,72
44400,note_on,,1,0,14,,,,,,,,,,,,,,,,12,,69,72
44459,note_on,,59,0,16,,,,,,,,,,,,,,,,15,,45,0
44459,note_on,,59,0,14,,,,,,,,,,,,,,,,12,,69,0
44459,note_on,,59,0,15,,,,,,,,,,,,,,,,13,,45,0
44459,note_on,,59,0,7,,,,,,,,,,,,,,,,2,,45,0
44459,note_on,,59,0,13,,,,,,,,,,,,,,,,11,,84,0
44459,note_on,,59,0,12,,,,,,,,,,,,,,,,10,,79,0
44460,note_on,,1,0,7,,,,,,,,,,,,,,,,2,,57,72
44460,note_on,,1,0,12,,,,,,,,,,,,,,,,10,,78,72
44460,note_on,,1,0,15,,,,,,,,,,,,,,,,13,,57,72
44460,note_on,,1,0,14,,,,,,,,,,,,,,,,12,,69,72
44460,note_on,,1,0,13,,,,,,,,,,,,,,,,11,,84,72
44460,note_on,,1,0,16,,,,,,,,,,,,,,,,15,,57,72
44489,note_on,,29,0,12,,,,,,,,,,,,,,,,10,,78,0
44490,note_on,,1,0,12,,,,,,,,,,,,,,,,10,,76,72
44519,note_on,,59,0,15,,,,,,,,,,,,,,,,13,,57,0
44519,note_on,,0,0,16,,,,,,,,,,,,,,,,15,,67,0
44519,note_on,,59,0,14,,,,,,,,,,,,,,,,12,,69,0
44519,note_on,,59,0,16,,,,,,,,,,,,,,,,15,,69,0
44519,note_on,,59,0,7,,,,,,,,,,,,,,,,2,,57,0
44519,note_on,,0,0,16,,,,,,,,,,,,,,,,15,,57,0
44519,note_on,,0,0,16,,,,,,,,,,,,,,,,15,,60,0
44519,note_on,,59,0,13,,,,,,,,,,,,,,,,11,,84,0
44519,note_on,,29,0,12,,,,,,,,,,,,,,,,10,,76,0
44520,note_on,,1,0,12,,,,,,,,,,,,,,,,10,,78,72
44520,note_on,,1,0,15,,,,,,,,,,,,,,,,13,,62,72
44520,note_on,,1,0,14,,,,,,,,,,,,,,,,12,,69,72
44520,note_on,,0,0,16,,,,,,,,,,,,,,,,15,,66,72
44520,note_on,,1,0,16,,,,,,,,,,,,,,,,15,,62,72
44520,note_on,,0,0,16,,,,,,,,,,,,,,,,15,,69,72
44520,note_on,,1,0,13,,,,,,,,,,,,,,,,11,,84,72
44520,note_on,,1,0,7,,,,,,,,,,,,,,,,2,,62,72
44549,note_on,,29,0,12,,,,,,,,,,,,,,,,10,,78,0
44550,note_on,,1,0,12,,,,,,,,,,,,,,,,10,,79,72
44579,note_on,,59,0,15,,,,,,,,,,,,,,,,13,,62,0
44579,note_on,,59,0,14,,,,,,,,,,,,,,,,12,,69,0
44579,note_on,,59,0,7,,,,,,,,,,,,,,,,2,,62,0
44579,note_on,,59,0,16,,,,,,,,,,,,,,,,15,,62,0
44579,note_on,,29,0,12,,,,,,,,,,,,,,,,10,,79,0
44579,note_on,,59,0,13,,,,,,,,,,,,,,,,11,,84,0
44579,note_on,,0,0,16,,,,,,,,,,,,,,,,15,,66,0
44579,note_on,,0,0,16,,,,,,,,,,,,,,,,15,,69,0
44580,note_on,,1,0,7,,,,,,,,,,,,,,,,2,,50,72
44580,note_on,,1,0,16,,,,,,,,,,,,,,,,15,,50,72
44580,note_on,,1,0,15,,,,,,,,,,,,,,,,13,,50,72
44580,note_on,,1,0,13,,,,,,,,,,,,,,,,11,,84,72
44580,note_on,,0,0,16,,,,,,,,,,,,,,,,15,,62,72
44580,note_on,,0,0,16,,,,,,,,,,,,,,,,15,,57,72
44580,note_on,,1,0,12,,,,,,,,,,,,,,,,10,,76,72
44580,note_on,,0,0,16,,,,,,,,,,,,,,,,15,,66,72
44580,note_on,,1,0,14,,,,,,,,,,,,,,,,12,,69,72
44609,note_on,,29,0,12,,,,,,,,,,,,,,,,10,,76,0
44610,note_on,,1,0,12,,,,,,,,,,,,,,,,10,,78,72
44639,note_on,,59,0,7,,,,,,,,,,,,,,,,2,,50,0
44639,note_on,,0,0,16,,,,,,,,,,,,,,,,15,,62,0
44639,note_on,,0,0,16,,,,,,,,,,,,,,,,15,,66,0
44639,note_on,,0,0,16,,,,,,,,,,,,,,,,15,,57,0
44639,note_on,,59,0,14,,,,,,,,,,,,,,,,12,,69,0
44639,note_on,,59,0,16,,,,,,,,,,,,,,,,15,,50,0
44639,note_on,,59,0,15,,,,,,,,,,,,,,,,13,,50,0
44639,note_on,,29,0,12,,,,,,,,,,,,,,,,10,,78,0
44639,note_on,,59,0,13,,,,,,,,,,,,,,,,11,,84,0
44640,note_on,,1,0,14,,,,,,,,,,,,,,,,12,,67,72
44640,note_on,,1,0,15,,,,,,,,,,,,,,,,13,,55,72
44640,note_on,,1,0,13,,,,,,,,,,,,,,,,11,,84,72
44640,note_on,,1,0,12,,,,,,,,,,,,,,,,10,,79,72
44640,note_on,,0,0,16,,,,,,,,,,,,,,,,15,,62,72
44640,note_on,,0,0,16,,,,,,,,,,,,,,,,15,,67,72
44640,note_on,,1,0,16,,,,,,,,,,,,,,,,15,,55,72
44640,note_on,,1,0,7,,,,,,,,,,,,,,,,2,,55,72
44699,note_on,,59,0,16,,,,,,,,,,,,,,,,15,,55,0
44699,note_on,,59,0,15,,,,,,,,,,,,,,,,13,,55,0
44699,note_on,,59,0,13,,,,,,,,,,,,,,,,11,,84,0
44699,note_on,,59,0,12,,,,,,,,,,,,,,,,10,,79,0
44699,note_on,,59,0,7,,,,,,,,,,,,,,,,2,,55,0
44700,note_on,,1,0,15,,,,,,,,,,,,,,,,13,,43,72
44700,note_on,,1,0,16,,,,,,,,,,,,,,,,15,,43,72
44700,note_on,,1,0,7,,,,,,,,,,,,,,,,2,,43,72
44700,note_on,,1,0,13,,,,,,,,,,,,,,,,11,,83,72
44700,note_on,,1,0,12,,,,,,,,,,,,,,,,10,,74,72
44759,note_on,,59,0,13,,,,,,,,,,,,,,,,11,,83,0
44759,note_on,,119,0,14,,,,,,,,,,,,,,,,12,,67,0
44759,note_on,,59,0,16,,,,,,,,,,,,,,,,15,,67,0
44759,note_on,,0,0,16,,,,,,,,,,,,,,,,15,,62,0
44759,note_on,,59,0,7,,,,,,,,,,,,,,,,2,,43,0
44759,note_on,,0,0,16,,,,,,,,,,,,,,,,15,,43,0
44759,note_on,,59,0,15,,,,,,,,,,,,,,,,13,,43,0
44759,note_on,,59,0,12,,,,,,,,,,,,,,,,10,,74,0
44760,note_on,,1,0,15,,,,,,,,,,,,,,,,13,,47,72
44760,note_on,,1,0,12,,,,,,,,,,,,,,,,10,,79,72
44760,note_on,,1,0,7,,,,,,,,,,,,,,,,2,,47,72
44760,note_on,,0,0,16,,,,,,,,,,,,,,,,15,,74,72
44760,note_on,,0,0,16,,,,,,,,,,,,,,,,15,,67,72
44760,note_on,,0,0,16,,,,,,,,,,,,,,,,15,,62,72
44760,note_on,,1,0,14,,,,,,,,,,,,,,,,12,,74,72
44760,note_on,,1,0,16,,,,,,,,,,,,,,,,15,,47,72
44819,note_on,,0,0,16,,,,,,,,,,,,,,,,15,,67,0
44819,note_on,,59,0,14,,,,,,,,,,,,,,,,12,,74,0
44819,note_on,,0,0,16,,,,,,,,,,,,,,,,15,,62,0
44819,note_on,,0,0,16,,,,,,,,,,,,,,,,15,,74,0
44819,note_on,,59,0,16,,,,,,,,,,,,,,,,15,,47,0
44819,note_on,,59,0,7,,,,,,,,,,,,,,,,2,,47,0
44819,note_on,,59,0,12,,,,,,,,,,,,,,,,10,,79,0
44819,note_on,,59,0,15,,,,,,,,,,,,,,,,13,,47,0
44820,note_on,,1,0,15,,,,,,,,,,,,,,,,13,,43,72
44820,note_on,,0,0,16,,,,,,,,,,,,,,,,15,,62,72
44820,note_on,,0,0,16,,,,,,,,,,,,,,,,15,,67,72
44820,note_on,,1,0,16,,,,,,,,,,,,,,,,15,,43,72
44820,note_on,,1,0,12,,,,,,,,,,,,,,,,10,,78,72
44820,note_on,,0,0,16,,,,,,,,,,,,,,,,15,,71,72
44820,note_on,,1,0,7,,,,,,,,,,,,,,,,2,,43,72
44820,note_on,,1,0,14,,,,,,,,,,,,,,,,12,,71,72
44879,note_on,,59,0,14,,,,,,,,,,,,,,,,12,,71,0
44879,note_on,,59,0,15,,,,,,,,,,,,,,,,13,,43,0
44879,note_on,,59,0,7,,,,,,,,,,,,,,,,2,,43,0
44879,note_on,,59,0,16,,,,,,,,,,,,,,,,15,,43,0
44879,note_on,,0,0,16,,,,,,,,,,,,,,,,15,,71,0
44879,note_on,,0,0,16,,,,,,,,,,,,,,,,15,,67,0
44879,note_on,,0,0,16,,,,,,,,,,,,,,,,15,,62,0
44879,note_on,,59,0,12,,,,,,,,,,,,,,,,10,,78,0
44880,note_on,,1,0,7,,,,,,,,,,,,,,,,2,,48,72
44880,note_on,,1,0,14,,,,,,,,,,,,,,,,12,,67,72
44880,note_on,,1,0,12,,,,,,,,,,,,,,,,10,,76,72
44880,note_on,,0,0,16,,,,,,,,,,,,,,,,15,,67,72
44880,note_on,,0,0,16,,,,,,,,,,,,,,,,15,,72,72
44880,note_on,,1,0,16,,,,,,,,,,,,,,,,15,,48,72
44880,note_on,,1,0,15,,,,,,,,,,,,,,,,13,,48,72
44880,note_on,,0,0,16,,,,,,,,,,,,,,,,15,,64,72
44909,note_on,,29,0,12,,,,,,,,,,,,,,,,10,,76,0
44909,note_on,,29,0,14,,,,,,,,,,,,,,,,12,,67,0
44910,note_on,,1,0,12,,,,,,,,,,,,,,,,10,,74,72
44910,note_on,,1,0,14,,,,,,,,,,,,,,,,12,,66,72
44939,note_on,,59,0,15,,,,,,,,,,,,,,,,13,,48,0
44939,note_on,,29,0,12,,,,,,,,,,,,,,,,10,,74,0
44939,note_on,,29,0,14,,,,,,,,,,,,,,,,12,,66,0
44939,note_on,,59,0,16,,,,,,,,,,,,,,,,15,,48,0
44939,note_on,,0,0,16,,,,,,,,,,,,,,,,15,,64,0
44939,note_on,,59,0,7,,,,,,,,,,,,,,,,2,,48,0
44940,note_on,,1,0,14,,,,,,,,,,,,,,,,12,,67,72
44940,note_on,,1,0,7,,,,,,,,,,,,,,,,2,,47,72
44940,note_on,,0,0,16,,,,,,,,,,,,,,,,15,,62,72
44940,note_on,,1,0,16,,,,,,,,,,,,,,,,15,,47,72
44940,note_on,,1,0,12,,,,,,,,,,,,,,,,10,,76,72
44940,note_on,,1,0,15,,,,,,,,,,,,,,,,13,,47,72
44969,note_on,,29,0,14,,,,,,,,,,,,,,,,12,,67,0
44969,note_on,,29,0,12,,,,,,,,,,,,,,,,10,,76,0
44970,note_on,,1,0,14,,,,,,,,,,,,,,,,12,,69,72
44970,note_on,,1,0,12,,,,,,,,,,,,,,,,10,,78,72
44999,note_on,,59,0,16,,,,,,,,,,,,,,,,15,,47,0
44999,note_on,,0,0,16,,,,,,,,,,,,,,,,15,,62,0
44999,note_on,,29,0,14,,,,,,,,,,,,,,,,12,,69,0
44999,note_on,,29,0,12,,,,,,,,,,,,,,,,10,,78,0
44999,note_on,,59,0,15,,,,,,,,,,,,,,,,13,,47,0
44999,note_on,,59,0,7,,,,,,,,,,,,,,,,2,,47,0
45000,note_on,,1,0,16,,,,,,,,,,,,,,,,15,,48,72
45000,note_on,,0,0,16,,,,,,,,,,,,,,,,15,,64,72
45000,note_on,,1,0,12,,,,,,,,,,,,,,,,10,,76,72
45000,note_on,,1,0,15,,,,,,,,,,,,,,,,13,,48,72
45000,note_on,,1,0,14,,,,,,,,,,,,,,,,12,,67,72
45000,note_on,,241,0,13,,,,,,,,,,,,,,,,11,,76,72
45000,note_on,,1,0,7,,,,,,,,,,,,,,,,2,,48,72
45029,note_on,,29,0,12,,,,,,,,,,,,,,,,10,,76,0
45030,note_on,,1,0,12,,,,,,,,,,,,,,,,10,,79,72
45059,note_on,,0,0,16,,,,,,,,,,,,,,,,15,,48,0
45059,note_on,,29,0,12,,,,,,,,,,,,,,,,10,,79,0
45059,note_on,,59,0,13,,,,,,,,,,,,,,,,11,,76,0
45059,note_on,,59,0,7,,,,,,,,,,,,,,,,2,,48,0
45059,note_on,,59,0,16,,,,,,,,,,,,,,,,15,,72,0
45059,note_on,,0,0,16,,,,,,,,,,,,,,,,15,,67,0
45059,note_on,,0,0,16,,,,,,,,,,,,,,,,15,,64,0
45059,note_on,,59,0,15,,,,,,,,,,,,,,,,13,,48,0
45059,note_on,,59,0,14,,,,,,,,,,,,,,,,12,,67,0
45060,note_on,,1,0,13,,,,,,,,,,,,,,,,11,,74,72
45060,note_on,,1,0,12,,,,,,,,,,,,,,,,10,,78,72
45060,note_on,,1,0,14,,,,,,,,,,,,,,,,12,,67,72
45060,note_on,,1,0,7,,,,,,,,,,,,,,,,2,,52,72
45060,note_on,,1,0,15,,,,,,,,,,,,,,,,13,,52,72
45060,note_on,,1,0,16,,,,,,,,,,,,,,,,15,,52,72
45060,note_on,,0,0,16,,,,,,,,,,,,,,,,15,,72,72
45060,note_on,,0,0,16,,,,,,,,,,,,,,,,15,,67,72
45089,note_on,,29,0,12,,,,,,,,,,,,,,,,10,,78,0
45090,note_on,,1,0,12,,,,,,,,,,,,,,,,10,,79,72
45119,note_on,,59,0,15,,,,,,,,,,,,,,,,13,,52,0
45119,note_on,,29,0,12,,,,,,,,,,,,,,,,10,,79,0
45119,note_on,,59,0,14,,,,,,,,,,,,,,,,12,,67,0
45119,note_on,,59,0,7,,,,,,,,,,,,,,,,2,,52,0
45119,note_on,,59,0,13,,,,,,,,,,,,,,,,11,,74,0
45119,note_on,,0,0,16,,,,,,,,,,,,,,,,15,,67,0
45119,note_on,,0,0,16,,,,,,,,,,,,,,,,15,,72,0
45119,note_on,,59,0,16,,,,,,,,,,,,,,,,15,,52,0
45120,note_on,,0,0,16,,,,,,,,,,,,,,,,15,,72,72
45120,note_on,,1,0,15,,,,,,,,,,,,,,,,13,,48,72
45120,note_on,,1,0,14,,,,,,,,,,,,,,,,12,,64,72
45120,note_on,,1,0,12,,,,,,,,,,,,,,,,10,,81,72
45120,note_on,,0,0,16,,,,,,,,,,,,,,,,15,,64,72
45120,note_on,,0,0,16,,,,,,,,,,,,,,,,15,,69,72
45120,note_on,,0,0,16,,,,,,,,,,,,,,,,15,,76,72
45120,note_on,,1,0,7,,,,,,,,,,,,,,,,2,,48,72
45120,note_on,,1,0,13,,,,,,,,,,,,,,,,11,,72,72
45120,note_on,,1,0,16,,,,,,,,,,,,,,,,15,,48,72
45149,note_on,,29,0,13,,,,,,,,,,,,,,,,11,,72,0
45149,note_on,,29,0,12,,,,,,,,,,,,,,,,10,,81,0
45150,note_on,,1,0,13,,,,,,,,,,,,,,,,11,,71,72
45150,note_on,,1,0,12,,,,,,,,,,,,,,,,10,,79,72
45179,note_on,,59,0,15,,,,,,,,,,,,,,,,13,,48,0
45179,note_on,,59,0,7,,,,,,,,,,,,,,,,2,,48,0
45179,note_on,,59,0,16,,,,,,,,,,,,,,,,15,,48,0
45179,note_on,,29,0,13,,,,,,,,,,,,,,,,11,,71,0
45179,note_on,,29,0,12,,,,,,,,,,,,,,,,10,,79,0
45180,note_on,,0,0,16,,,,,,,,,,,,,,,,15,,60,72
45180,note_on,,1,0,15,,,,,,,,,,,,,,,,13,,57,72
45180,note_on,,1,0,16,,,,,,,,,,,,,,,,15,,57,72
45180,note_on,,1,0,7,,,,,,,,,,,,,,,,2,,57,72
45180,note_on,,1,0,12,,,,,,,,,,,,,,,,10,,81,72
45180,note_on,,1,0,13,,,,,,,,,,,,,,,,11,,72,72
45209,note_on,,29,0,13,,,,,,,,,,,,,,,,11,,72,0
45209,note_on,,29,0,12,,,,,,,,,,,,,,,,10,,81,0
45210,note_on,,1,0,12,,,,,,,,,,,,,,,,10,,83,72
45210,note_on,,1,0,13,,,,,,,,,,,,,,,,11,,74,72
45239,note_on,,29,0,13,,,,,,,,,,,,,,,,11,,74,0
45239,note_on,,29,0,12,,,,,,,,,,,,,,,,10,,83,0
45239,note_on,,119,0,14,,,,,,,,,,,,,,,,12,,64,0
45239,note_on,,59,0,15,,,,,,,,,,,,,,,,13,,57,0
45239,note_on,,0,0,16,,,,,,,,,,,,,,,,15,,60,0
45239,note_on,,59,0,7,,,,,,,,,,,,,,,,2,,57,0
45239,note_on,,59,0,16,,,,,,,,,,,,,,,,15,,57,0
45240,note_on,,1,0,15,,,,,,,,,,,,,,,,13,,59,72
45240,note_on,,0,0,16,,,,,,,,,,,,,,,,15,,62,72
45240,note_on,,1,0,13,,,,,,,,,,,,,,,,11,,72,72
45240,note_on,,1,0,12,,,,,,,,,,,,,,,,10,,81,72
45240,note_on,,1,0,16,,,,,,,,,,,,,,,,15,,59,72
45240,note_on,,1,0,7,,,,,,,,,,,,,,,,2,,59,72
45269,note_on,,29,0,13,,,,,,,,,,,,,,,,11,,72,0
45269,note_on,,29,0,12,,,,,,,,,,,,,,,,10,,81,0
45270,note_on,,1,0,13,,,,,,,,,,,,,,,,11,,74,72
45270,note_on,,1,0,12,,,,,,,,,,,,,,,,10,,83,72
45299,note_on,,0,0,16,,,,,,,,,,,,,,,,15,,62,0
45299,note_on,,0,0,16,,,,,,,,,,,,,,,,15,,59,0
45299,note_on,,29,0,13,,,,,,,,,,,,,,,,11,,74,0
45299,note_on,,0,0,16,,,,,,,,,,,,,,,,15,,64,0
45299,note_on,,0,0,16,,,,,,,,,,,,,,,,15,,69,0
45299,note_on,,59,0,16,,,,,,,,,,,,,,,,15,,76,0
45299,note_on,,29,0,12,,,,,,,,,,,,,,,,10,,83,0
45299,note_on,,59,0,7,,,,,,,,,,,,,,,,2,,59,0
45299,note_on,,59,0,15,,,,,,,,,,,,,,,,13,,59,0
45299,note_on,,0,0,16,,,,,,,,,,,,,,,,15,,72,0
45300,note_on,,61,0,14,,,,,,,,,,,,,,,,12,,64,72
45300,note_on,,1,0,12,,,,,,,,,,,,,,,,10,,79,72
45300,note_on,,1,0,7,,,,,,,,,,,,,,,,2,,60,72
45300,note_on,,1,0,15,,,,,,,,,,,,,,,,13,,60,72
45300,note_on,,1,0,13,,,,,,,,,,,,,,,,11,,71,72
45300,note_on,,0,0,16,,,,,,,,,,,,,,,,15,,64,72
45300,note_on,,1,0,16,,,,,,,,,,,,,,,,15,,60,72
45300,note_on,,0,0,16,,,,,,,,,,,,,,,,15,,76,72
45300,note_on,,0,0,16,,,,,,,,,,,,,,,,15,,71,72
45300,note_on,,0,0,16,,,,,,,,,,,,,,,,15,,67,72
45329,note_on,,29,0,12,,,,,,,,,,,,,,,,10,,79,0
45329,note_on,,29,0,13,,,,,,,,,,,,,,,,11,,71,0
45330,note_on,,1,0,13,,,,,,,,,,,,,,,,11,,72,72
45330,note_on,,1,0,12,,,,,,,,,,,,,,,,10,,81,72
45359,note_on,,0,0,16,,,,,,,,,,,,,,,,15,,67,0
45359,note_on,,59,0,14,,,,,,,,,,,,,,,,12,,64,0
45359,note_on,,59,0,15,,,,,,,,,,,,,,,,13,,60,0
45359,note_on,,29,0,12,,,,,,,,,,,,,,,,10,,81,0
45359,note_on,,29,0,13,,,,,,,,,,,,,,,,11,,72,0
45359,note_on,,0,0,16,,,,,,,,,,,,,,,,15,,71,0
45359,note_on,,0,0,16,,,,,,,,,,,,,,,,15,,76,0
45359,note_on,,59,0,16,,,,,,,,,,,,,,,,15,,60,0
45359,note_on,,59,0,7,,,,,,,,,,,,,,,,2,,60,0
45359,note_on,,0,0,16,,,,,,,,,,,,,,,,15,,64,0
45360,note_on,,0,0,16,,,,,,,,,,,,,,,,15,,66,72
45360,note_on,,1,0,12,,,,,,,,,,,,,,,,10,,78,72
45360,note_on,,1,0,15,,,,,,,,,,,,,,,,13,,62,72
45360,note_on,,0,0,16,,,,,,,,,,,,,,,,15,,74,72
45360,note_on,,1,0,16,,,,,,,,,,,,,,,,15,,62,72
45360,note_on,,1,0,7,,,,,,,,,,,,,,,,2,,62,72
45360,note_on,,1,0,13,,,,,,,,,,,,,,,,11,,69,72
45360,note_on,,1,0,14,,,,,,,,,,,,,,,,12,,66,72
45360,note_on,,0,0,16,,,,,,,,,,,,,,,,15,,69,72
45389,note_on,,29,0,12,,,,,,,,,,,,,,,,10,,78,0
45389,note_on,,29,0,13,,,,,,,,,,,,,,,,11,,69,0
45390,note_on,,1,0,12,,,,,,,,,,,,,,,,10,,76,72
45390,note_on,,1,0,13,,,,,,,,,,,,,,,,11,,67,72
45419,note_on,,29,0,12,,,,,,,,,,,,,,,,10,,76,0
45419,note_on,,29,0,13,,,,,,,,,,,,,,,,11,,67,0
45420,note_on,,1,0,13,,,,,,,,,,,,,,,,11,,69,72
45420,note_on,,1,0,12,,,,,,,,,,,,,,,,10,,78,72
45449,note_on,,29,0,12,,,,,,,,,,,,,,,,10,,78,0
45449,note_on,,29,0,13,,,,,,,,,,,,,,,,11,,69,0
45450,note_on,,1,0,13,,,,,,,,,,,,,,,,11,,71,72
45450,note_on,,1,0,12,,,,,,,,,,,,,,,,10,,79,72
45479,note_on,,29,0,12,,,,,,,,,,,,,,,,10,,79,0
45479,note_on,,29,0,13,,,,,,,,,,,,,,,,11,,71,0
45479,note_on,,119,0,15,,,,,,,,,,,,,,,,13,,62,0
45479,note_on,,119,0,14,,,,,,,,,,,,,,,,12,,66,0
45479,note_on,,119,0,16,,,,,,,,,,,,,,,,15,,62,0
45479,note_on,,119,0,7,,,,,,,,,,,,,,,,2,,62,0
45479,note_on,,0,0,16,,,,,,,,,,,,,,,,15,,66,0
45479,note_on,,0,0,16,,,,,,,,,,,,,,,,15,,69,0
45479,note_on,,0,0,16,,,,,,,,,,,,,,,,15,,74,0
45480,note_on,,1,0,16,,,,,,,,,,,,,,,,15,,50,72
45480,note_on,,1,0,13,,,,,,,,,,,,,,,,11,,69,72
45480,note_on,,1,0,7,,,,,,,,,,,,,,,,2,,50,72
45480,note_on,,1,0,12,,,,,,,,,,,,,,,,10,,78,72
45480,note_on,,1,0,14,,,,,,,,,,,,,,,,12,,74,72
45480,note_on,,0,0,16,,,,,,,,,,,,,,,,15,,78,72
45480,note_on,,1,0,15,,,,,,,,,,,,,,,,13,,50,72
45480,note_on,,0,0,16,,,,,,,,,,,,,,,,15,,74,72
45480,note_on,,0,0,16,,,,,,,,,,,,,,,,15,,69,72
45509,note_on,,29,0,12,,,,,,,,,,,,,,,,10,,78,0
45509,note_on,,29,0,13,,,,,,,,,,,,,,,,11,,69,0
45510,note_on,,1,0,12,,,,,,,,,,,,,,,,10,,81,72
45510,note_on,,1,0,13,,,,,,,,,,,,,,,,11,,72,72
45539,note_on,,29,0,12,,,,,,,,,,,,,,,,10,,81,0
45539,note_on,,29,0,13,,,,,,,,,,,,,,,,11,,72,0
45540,note_on,,1,0,12,,,,,,,,,,,,,,,,10,,79,72
45540,note_on,,1,0,13,,,,,,,,,,,,,,,,11,,71,72
45569,note_on,,29,0,12,,,,,,,,,,,,,,,,10,,79,0
45569,note_on,,29,0,13,,,,,,,,,,,,,,,,11,,71,0
45570,note_on,,1,0,13,,,,,,,,,,,,,,,,11,,72,72
45570,note_on,,1,0,12,,,,,,,,,,,,,,,,10,,81,72
45599,note_on,,119,0,15,,,,,,,,,,,,,,,,13,,50,0
45599,note_on,,119,0,16,,,,,,,,,,,,,,,,15,,50,0
45599,note_on,,119,0,14,,,,,,,,,,,,,,,,12,,74,0
45599,note_on,,29,0,13,,,,,,,,,,,,,,,,11,,72,0
45599,note_on,,29,0,12,,,,,,,,,,,,,,,,10,,81,0
45599,note_on,,0,0,16,,,,,,,,,,,,,,,,15,,78,0
45599,note_on,,0,0,16,,,,,,,,,,,,,,,,15,,74,0
45599,note_on,,119,0,7,,,,,,,,,,,,,,,,2,,50,0
45599,note_on,,0,0,16,,,,,,,,,,,,,,,,15,,69,0
45600,note_on,,1,0,13,,,,,,,,,,,,,,,,11,,74,72
45600,note_on,,1,0,12,,,,,,,,,,,,,,,,10,,83,72
45629,note_on,,29,0,13,,,,,,,,,,,,,,,,11,,74,0
45629,note_on,,29,0,12,,,,,,,,,,,,,,,,10,,83,0
45630,note_on,,1,0,13,,,,,,,,,,,,,,,,11,,72,72
45630,note_on,,1,0,12,,,,,,,,,,,,,,,,10,,81,72
45659,note_on,,29,0,12,,,,,,,,,,,,,,,,10,,81,0
45659,note_on,,29,0,13,,,,,,,,,,,,,,,,11,,72,0
45660,note_on,,61,0,14,,,,,,,,,,,,,,,,12,,66,72
45660,note_on,,61,0,16,,,,,,,,,,,,,,,,15,,59,72
45660,note_on,,0,0,16,,,,,,,,,,,,,,,,15,,78,72
45660,note_on,,61,0,7,,,,,,,,,,,,,,,,2,,59,72
45660,note_on,,0,0,16,,,,,,,,,,,,,,,,15,,71,72
45660,note_on,,61,0,15,,,,,,,,,,,,,,,,13,,59,72
45660,note_on,,1,0,13,,,,,,,,,,,,,,,,11,,74,72
45660,note_on,,0,0,16,,,,,,,,,,,,,,,,15,,62,72
45660,note_on,,0,0,16,,,,,,,,,,,,,,,,15,,74,72
45660,note_on,,1,0,12,,,,,,,,,,,,,,,,10,,83,72
45689,note_on,,29,0,12,,,,,,,,,,,,,,,,10,,83,0
45689,note_on,,29,0,13,,,,,,,,,,,,,,,,11,,74,0
45690,note_on,,1,0,13,,,,,,,,,,,,,,,,11,,76,72
45690,note_on,,1,0,12,,,,,,,,,,,,,,,,10,,84,72
45719,note_on,,59,0,7,,,,,,,,,,,,,,,,2,,59,0
45719,note_on,,0,0,16,,,,,,,,,,,,,,,,15,,62,0
45719,note_on,,59,0,14,,,,,,,,,,,,,,,,12,,66,0
45719,note_on,,29,0,12,,,,,,,,,,,,,,,,10,,84,0
45719,note_on,,59,0,16,,,,,,,,,,,,,,,,15,,59,0
45719,note_on,,29,0,13,,,,,,,,,,,,,,,,11,,76,0
45719,note_on,,59,0,15,,,,,,,,,,,,,,,,13,,59,0
45720,note_on,,1,0,12,,,,,,,,,,,,,,,,10,,83,72
45720,note_on,,1,0,16,,,,,,,,,,,,,,,,15,,60,72
45720,note_on,,1,0,14,,,,,,,,,,,,,,,,12,,71,72
45720,note_on,,0,0,16,,,,,,,,,,,,,,,,15,,64,72
45720,note_on,,1,0,13,,,,,,,,,,,,,,,,11,,74,72
45720,note_on,,1,0,7,,,,,,,,,,,,,,,,2,,60,72
45720,note_on,,1,0,15,,,,,,,,,,,,,,,,13,,60,72
45749,note_on,,29,0,12,,,,,,,,,,,,,,,,10,,83,0
45749,note_on,,29,0,13,,,,,,,,,,,,,,,,11,,74,0
45750,note_on,,1,0,13,,,,,,,,,,,,,,,,11,,76,72
45750,note_on,,1,0,12,,,,,,,,,,,,,,,,10,,84,72
45779,note_on,,59,0,16,,,,,,,,,,,,,,,,15,,78,0
45779,note_on,,0,0,16,,,,,,,,,,,,,,,,15,,74,0
45779,note_on,,0,0,16,,,,,,,,,,,,,,,,15,,71,0
45779,note_on,,0,0,16,,,,,,,,,,,,,,,,15,,60,0
45779,note_on,,0,0,16,,,,,,,,,,,,,,,,15,,64,0
45779,note_on,,59,0,14,,,,,,,,,,,,,,,,12,,71,0
45779,note_on,,59,0,15,,,,,,,,,,,,,,,,13,,60,0
45779,note_on,,29,0,13,,,,,,,,,,,,,,,,11,,76,0
45779,note_on,,59,0,7,,,,,,,,,,,,,,,,2,,60,0
45779,note_on,,29,0,12,,,,,,,,,,,,,,,,10,,84,0
45780,note_on,,1,0,12,,,,,,,,,,,,,,,,10,,81,72
45780,note_on,,1,0,15,,,,,,,,,,,,,,,,13,,62,72
45780,note_on,,0,0,16,,,,,,,,,,,,,,,,15,,72,72
45780,note_on,,1,0,7,,,,,,,,,,,,,,,,2,,62,72
45780,note_on,,0,0,16,,,,,,,,,,,,,,,,15,,66,72
45780,note_on,,0,0,16,,,,,,,,,,,,,,,,15,,78,72
45780,note_on,,0,0,16,,,,,,,,,,,,,,,,15,,69,72
45780,note_on,,1,0,16,,,,,,,,,,,,,,,,15,,62,72
45780,note_on,,1,0,13,,,,,,,,,,,,,,,,11,,72,72
45780,note_on,,1,0,14,,,,,,,,,,,,,,,,12,,66,72
45809,note_on,,29,0,13,,,,,,,,,,,,,,,,11,,72,0
45809,note_on,,29,0,12,,,,,,,,,,,,,,,,10,,81,0
45810,note_on,,1,0,13,,,,,,,,,,,,,,,,11,,74,72
45810,note_on,,1,0,12,,,,,,,,,,,,,,,,10,,83,72
45839,note_on,,0,0,16,,,,,,,,,,,,,,,,15,,66,0
45839,note_on,,0,0,16,,,,,,,,,,,,,,,,15,,78,0
45839,note_on,,0,0,16,,,,,,,,,,,,,,,,15,,72,0
45839,note_on,,0,0,16,,,,,,,,,,,,,,,,15,,69,0
45839,note_on,,29,0,12,,,,,,,,,,,,,,,,10,,83,0
45839,note_on,,59,0,15,,,,,,,,,,,,,,,,13,,62,0
45839,note_on,,29,0,13,,,,,,,,,,,,,,,,11,,74,0
45839,note_on,,59,0,7,,,,,,,,,,,,,,,,2,,62,0
45839,note_on,,59,0,14,,,,,,,,,,,,,,,,12,,66,0
45839,note_on,,59,0,16,,,,,,,,,,,,,,,,15,,62,0
45840,note_on,,1,0,12,,,,,,,,,,,,,,,,10,,79,72
45840,note_on,,1,0,13,,,,,,,,,,,,,,,,11,,71,72
45840,note_on,,1,0,7,,,,,,,,,,,,,,,,2,,64,72
45840,note_on,,1,0,14,,,,,,,,,,,,,,,,12,,67,72
45840,note_on,,1,0,15,,,,,,,,,,,,,,,,13,,64,72
45840,note_on,,0,0,16,,,,,,,,,,,,,,,,15,,71,72
45840,note_on,,1,0,16,,,,,,,,,,,,,,,,15,,64,72
45840,note_on,,0,0,16,,,,,,,,,,,,,,,,15,,67,72
45840,note_on,,0,0,16,,,,,,,,,,,,,,,,15,,76,72
45869,note_on,,29,0,12,,,,,,,,,,,,,,,,10,,79,0
45869,note_on,,29,0,13,,,,,,,,,,,,,,,,11,,71,0
45870,note_on,,1,0,12,,,,,,,,,,,,,,,,10,,78,72
45870,note_on,,1,0,13,,,,,,,,,,,,,,,,11,,69,72
45899,note_on,,29,0,12,,,,,,,,,,,,,,,,10,,78,0
45899,note_on,,29,0,13,,,,,,,,,,,,,,,,11,,69,0
45900,note_on,,1,0,12,,,,,,,,,,,,,,,,10,,79,72
45900,note_on,,1,0,13,,,,,,,,,,,,,,,,11,,71,72
45929,note_on,,29,0,12,,,,,,,,,,,,,,,,10,,79,0
45929,note_on,,29,0,13,,,,,,,,,,,,,,,,11,,71,0
45930,note_on,,1,0,13,,,,,,,,,,,,,,,,11,,72,72
45930,note_on,,1,0,12,,,,,,,,,,,,,,,,10,,81,72
45959,note_on,,29,0,12,,,,,,,,,,,,,,,,10,,81,0
45959,note_on,,119,0,14,,,,,,,,,,,,,,,,12,,67,0
45959,note_on,,119,0,16,,,,,,,,,,,,,,,,15,,64,0
45959,note_on,,0,0,16,,,,,,,,,,,,,,,,15,,76,0
45959,note_on,,119,0,7,,,,,,,,,,,,,,,,2,,64,0
45959,note_on,,0,0,16,,,,,,,,,,,,,,,,15,,67,0
45959,note_on,,0,0,16,,,,,,,,,,,,,,,,15,,71,0
45959,note_on,,29,0,13,,,,,,,,,,,,,,,,11,,72,0
45959,note_on,,119,0,15,,,,,,,,,,,,,,,,13,,64,0
45960,note_on,,0,0,16,,,,,,,,,,,,,,,,15,,79,72
45960,note_on,,0,0,16,,,,,,,,,,,,,,,,15,,55,72
45960,note_on,,0,0,16,,,,,,,,,,,,,,,,15,,71,72
45960,note_on,,1,0,15,,,,,,,,,,,,,,,,13,,52,72
45960,note_on,,1,0,16,,,,,,,,,,,,,,,,15,,52,72
45960,note_on,,1,0,12,,,,,,,,,,,,,,,,10,,79,72
45960,note_on,,0,0,16,,,,,,,,,,,,,,,,15,,76,72
45960,note_on,,1,0,13,,,,,,,,,,,,,,,,11,,71,72
45960,note_on,,1,0,7,,,,,,,,,,,,,,,,2,,52,72
45989,note_on,,29,0,12,,,,,,,,,,,,,,,,10,,79,0
45989,note_on,,29,0,13,,,,,,,,,,,,,,,,11,,71,0
45990,note_on,,1,0,13,,,,,,,,,,,,,,,,11,,72,72
45990,note_on,,1,0,12,,,,,,,,,,,,,,,,10,,81,72
46019,note_on,,29,0,13,,,,,,,,,,,,,,,,11,,72,0
46019,note_on,,59,0,15,,,,,,,,,,,,,,,,13,,52,0
46019,note_on,,0,0,16,,,,,,,,,,,,,,,,15,,79,0
46019,note_on,,59,0,7,,,,,,,,,,,,,,,,2,,52,0
46019,note_on,,0,0,16,,,,,,,,,,,,,,,,15,,71,0
46019,note_on,,0,0,16,,,,,,,,,,,,,,,,15,,55,0
46019,note_on,,59,0,16,,,,,,,,,,,,,,,,15,,52,0
46019,note_on,,0,0,16,,,,,,,,,,,,,,,,15,,76,0
46019,note_on,,29,0,12,,,,,,,,,,,,,,,,10,,81,0
46020,note_on,,61,0,14,,,,,,,,,,,,,,,,12,,64,72
46020,note_on,,1,0,13,,,,,,,,,,,,,,,,11,,69,72
46020,note_on,,1,0,12,,,,,,,,,,,,,,,,10,,78,72
46020,note_on,,1,0,7,,,,,,,,,,,,,,,,2,,55,72
46020,note_on,,1,0,15,,,,,,,,,,,,,,,,13,,55,72
46020,note_on,,0,0,16,,,,,,,,,,,,,,,,15,,59,72
46020,note_on,,0,0,16,,,,,,,,,,,,,,,,15,,71,72
46020,note_on,,0,0,16,,,,,,,,,,,,,,,,15,,76,72
46020,note_on,,1,0,16,,,,,,,,,,,,,,,,15,,55,72
46049,note_on,,29,0,13,,,,,,,,,,,,,,,,11,,69,0
46049,note_on,,29,0,12,,,,,,,,,,,,,,,,10,,78,0
46050,note_on,,1,0,13,,,,,,,,,,,,,,,,11,,71,72
46050,note_on,,1,0,12,,,,,,,,,,,,,,,,10,,79,72
46079,note_on,,59,0,16,,,,,,,,,,,,,,,,15,,55,0
46079,note_on,,59,0,7,,,,,,,,,,,,,,,,2,,55,0
46079,note_on,,0,0,16,,,,,,,,,,,,,,,,15,,71,0
46079,note_on,,59,0,15,,,,,,,,,,,,,,,,13,,55,0
46079,note_on,,29,0,13,,,,,,,,,,,,,,,,11,,71,0
46079,note_on,,29,0,12,,,,,,,,,,,,,,,,10,,79,0
46079,note_on,,0,0,16,,,,,,,,,,,,,,,,15,,76,0
46079,note_on,,0,0,16,,,,,,,,,,,,,,,,15,,59,0
46079,note_on,,59,0,14,,,,,,,,,,,,,,,,12,,64,0
46080,note_on,,1,0,14,,,,,,,,,,,,,,,,12,,64,72
46080,note_on,,0,0,16,,,,,,,,,,,,,,,,15,,69,72
46080,note_on,,0,0,16,,,,,,,,,,,,,,,,15,,72,72
46080,note_on,,1,0,16,,,,,,,,,,,,,,,,15,,57,72
46080,note_on,,1,0,15,,,,,,,,,,,,,,,,13,,57,72
46080,note_on,,0,0,16,,,,,,,,,,,,,,,,15,,64,72
46080,note_on,,0,0,16,,,,,,,,,,,,,,,,15,,60,72
46080,note_on,,1,0,13,,,,,,,,,,,,,,,,11,,72,72
46080,note_on,,1,0,7,,,,,,,,,,,,,,,,2,,57,72
46080,note_on,,1,0,12,,,,,,,,,,,,,,,,10,,76,72
46109,note_on,,29,0,12,,,,,,,,,,,,,,,,10,,76,0
46109,note_on,,29,0,13,,,,,,,,,,,,,,,,11,,72,0
46110,note_on,,1,0,13,,,,,,,,,,,,,,,,11,,74,72
46110,note_on,,1,0,12,,,,,,,,,,,,,,,,10,,78,72
46139,note_on,,0,0,16,,,,,,,,,,,,,,,,15,,60,0
46139,note_on,,59,0,7,,,,,,,,,,,,,,,,2,,57,0
46139,note_on,,59,0,16,,,,,,,,,,,,,,,,15,,57,0
46139,note_on,,59,0,15,,,,,,,,,,,,,,,,13,,57,0
46139,note_on,,29,0,13,,,,,,,,,,,,,,,,11,,74,0
46139,note_on,,29,0,12,,,,,,,,,,,,,,,,10,,78,0
46140,note_on,,1,0,7,,,,,,,,,,,,,,,,2,,59,72
46140,note_on,,1,0,12,,,,,,,,,,,,,,,,10,,74,72
46140,note_on,,1,0,13,,,,,,,,,,,,,,,,11,,71,72
46140,note_on,,0,0,16,,,,,,,,,,,,,,,,15,,62,72
46140,note_on,,1,0,16,,,,,,,,,,,,,,,,15,,59,72
46140,note_on,,1,0,15,,,,,,,,,,,,,,,,13,,59,72
46169,note_on,,29,0,13,,,,,,,,,,,,,,,,11,,71,0
46169,note_on,,29,0,12,,,,,,,,,,,,,,,,10,,74,0
46170,note_on,,1,0,13,,,,,,,,,,,,,,,,11,,72,72
46170,note_on,,1,0,12,,,,,,,,,,,,,,,,10,,76,72
46199,note_on,,59,0,7,,,,,,,,,,,,,,,,2,,59,0
46199,note_on,,59,0,15,,,,,,,,,,,,,,,,13,,59,0
46199,note_on,,119,0,14,,,,,,,,,,,,,,,,12,,64,0
46199,note_on,,59,0,16,,,,,,,,,,,,,,,,15,,64,0
46199,note_on,,29,0,13,,,,,,,,,,,,,,,,11,,72,0
46199,note_on,,0,0,16,,,,,,,,,,,,,,,,15,,59,0
46199,note_on,,0,0,16,,,,,,,,,,,,,,,,15,,62,0
46199,note_on,,29,0,12,,,,,,,,,,,,,,,,10,,76,0
46200,note_on,,1,0,16,,,,,,,,,,,,,,,,15,,60,72
46200,note_on,,1,0,12,,,,,,,,,,,,,,,,10,,72,72
46200,note_on,,1,0,7,,,,,,,,,,,,,,,,2,,60,72
46200,note_on,,1,0,15,,,,,,,,,,,,,,,,13,,60,72
46200,note_on,,1,0,13,,,,,,,,,,,,,,,,11,,69,72
46200,note_on,,0,0,16,,,,,,,,,,,,,,,,15,,64,72
46229,note_on,,29,0,13,,,,,,,,,,,,,,,,11,,69,0
46229,note_on,,29,0,12,,,,,,,,,,,,,,,,10,,72,0
46230,note_on,,1,0,13,,,,,,,,,,,,,,,,11,,71,72
46230,note_on,,1,0,12,,,,,,,,,,,,,,,,10,,74,72
46259,note_on,,59,0,15,,,,,,,,,,,,,,,,13,,60,0
46259,note_on,,0,0,16,,,,,,,,,,,,,,,,15,,60,0
46259,note_on,,0,0,16,,,,,,,,,,,,,,,,15,,69,0
46259,note_on,,59,0,16,,,,,,,,,,,,,,,,15,,72,0
46259,note_on,,29,0,13,,,,,,,,,,,,,,,,11,,71,0
46259,note_on,,29,0,12,,,,,,,,,,,,,,,,10,,74,0
46259,note_on,,59,0,7,,,,,,,,,,,,,,,,2,,60,0
46259,note_on,,0,0,16,,,,,,,,,,,,,,,,15,,64,0
46260,note_on,,1,0,7,,,,,,,,,,,,,,,,2,,48,72
46260,note_on,,1,0,13,,,,,,,,,,,,,,,,11,,67,72
46260,note_on,,0,0,16,,,,,,,,,,,,,,,,15,,52,72
46260,note_on,,1,0,12,,,,,,,,,,,,,,,,10,,71,72
46260,note_on,,1,0,16,,,,,,,,,,,,,,,,15,,48,72
46260,note_on,,0,0,16,,,,,,,,,,,,,,,,15,,71,72
46260,note_on,,0,0,16,,,,,,,,,,,,,,,,15,,67,72
46260,note_on,,61,0,14,,,,,,,,,,,,,,,,12,,64,72
46260,note_on,,1,0,15,,,,,,,,,,,,,,,,13,,48,72
46260,note_on,,0,0,16,,,,,,,,,,,,,,,,15,,64,72
46289,note_on,,29,0,13,,,,,,,,,,,,,,,,11,,67,0
46289,note_on,,29,0,12,,,,,,,,,,,,,,,,10,,71,0
46290,note_on,,1,0,12,,,,,,,,,,,,,,,,10,,72,72
46290,note_on,,1,0,13,,,,,,,,,,,,,,,,11,,69,72
46319,note_on,,59,0,15,,,,,,,,,,,,,,,,13,,48,0
46319,note_on,,29,0,12,,,,,,,,,,,,,,,,10,,72,0
46319,note_on,,0,0,16,,,,,,,,,,,,,,,,15,,52,0
46319,note_on,,0,0,16,,,,,,,,,,,,,,,,15,,64,0
46319,note_on,,0,0,16,,,,,,,,,,,,,,,,15,,67,0
46319,note_on,,59,0,16,,,,,,,,,,,,,,,,15,,48,0
46319,note_on,,59,0,7,,,,,,,,,,,,,,,,2,,48,0
46319,note_on,,59,0,14,,,,,,,,,,,,,,,,12,,64,0
46319,note_on,,29,0,13,,,,,,,,,,,,,,,,11,,69,0
46319,note_on,,0,0,16,,,,,,,,,,,,,,,,15,,71,0
46320,note_on,,1,0,16,,,,,,,,,,,,,,,,15,,50,72
46320,note_on,,0,0,16,,,,,,,,,,,,,,,,15,,69,72
46320,note_on,,0,0,16,,,,,,,,,,,,,,,,15,,66,72
46320,note_on,,0,0,16,,,,,,,,,,,,,,,,15,,57,72
46320,note_on,,0,0,16,,,,,,,,,,,,,,,,15,,54,72
46320,note_on,,1,0,15,,,,,,,,,,,,,,,,13,,50,72
46320,note_on,,1,0,7,,,,,,,,,,,,,,,,2,,50,72
46320,note_on,,1,0,14,,,,,,,,,,,,,,,,12,,66,72
46320,note_on,,1,0,12,,,,,,,,,,,,,,,,10,,69,72
46320,note_on,,1,0,13,,,,,,,,,,,,,,,,11,,66,72
46379,note_on,,59,0,7,,,,,,,,,,,,,,,,2,,50,0
46379,note_on,,59,0,12,,,,,,,,,,,,,,,,10,,69,0
46379,note_on,,59,0,16,,,,,,,,,,,,,,,,15,,50,0
46379,note_on,,0,0,16,,,,,,,,,,,,,,,,15,,54,0
46379,note_on,,59,0,15,,,,,,,,,,,,,,,,13,,50,0
46380,note_on,,1,0,12,,,,,,,,,,,,,,,,10,,62,72
46380,note_on,,1,0,16,,,,,,,,,,,,,,,,15,,48,72
46380,note_on,,0,0,16,,,,,,,,,,,,,,,,15,,52,72
46380,note_on,,1,0,15,,,,,,,,,,,,,,,,13,,48,72
46380,note_on,,1,0,7,,,,,,,,,,,,,,,,2,,48,72
46439,note_on,,119,0,14,,,,,,,,,,,,,,,,12,,66,0
46439,note_on,,59,0,7,,,,,,,,,,,,,,,,2,,48,0
46439,note_on,,59,0,15,,,,,,,,,,,,,,,,13,,48,0
46439,note_on,,0,0,16,,,,,,,,,,,,,,,,15,,52,0
46439,note_on,,59,0,16,,,,,,,,,,,,,,,,15,,48,0
46439,note_on,,59,0,12,,,,,,,,,,,,,,,,10,,62,0
46439,note_on,,119,0,13,,,,,,,,,,,,,,,,11,,66,0
46440,note_on,,1,0,7,,,,,,,,,,,,,,,,2,,50,72
46440,note_on,,0,0,16,,,,,,,,,,,,,,,,15,,54,72
46440,note_on,,1,0,16,,,,,,,,,,,,,,,,15,,50,72
46440,note_on,,1,0,12,,,,,,,,,,,,,,,,10,,74,72
46440,note_on,,1,0,15,,,,,,,,,,,,,,,,13,,50,72
46499,note_on,,0,0,16,,,,,,,,,,,,,,,,15,,57,0
46499,note_on,,0,0,16,,,,,,,,,,,,,,,,15,,50,0
46499,note_on,,0,0,16,,,,,,,,,,,,,,,,15,,66,0
46499,note_on,,59,0,7,,,,,,,,,,,,,,,,2,,50,0
46499,note_on,,59,0,16,,,,,,,,,,,,,,,,15,,69,0
46499,note_on,,59,0,15,,,,,,,,,,,,,,,,13,,50,0
46499,note_on,,0,0,16,,,,,,,,,,,,,,,,15,,54,0
46500,note_on,,1,0,16,,,,,,,,,,,,,,,,15,,47,72
46500,note_on,,0,0,16,,,,,,,,,,,,,,,,15,,50,72
46500,note_on,,0,0,16,,,,,,,,,,,,,,,,15,,71,72
46500,note_on,,0,0,16,,,,,,,,,,,,,,,,15,,62,72
46500,note_on,,0,0,16,,,,,,,,,,,,,,,,15,,66,72
46500,note_on,,61,0,13,,,,,,,,,,,,,,,,11,,62,72
46500,note_on,,1,0,7,,,,,,,,,,,,,,,,2,,47,72
46500,note_on,,1,0,15,,,,,,,,,,,,,,,,13,,47,72
46500,note_on,,61,0,14,,,,,,,,,,,,,,,,12,,66,72
46559,note_on,,59,0,16,,,,,,,,,,,,,,,,15,,47,0
46559,note_on,,59,0,7,,,,,,,,,,,,,,,,2,,47,0
46559,note_on,,59,0,14,,,,,,,,,,,,,,,,12,,66,0
46559,note_on,,59,0,13,,,,,,,,,,,,,,,,11,,62,0
46559,note_on,,0,0,16,,,,,,,,,,,,,,,,15,,50,0
46559,note_on,,0,0,16,,,,,,,,,,,,,,,,15,,62,0
46559,note_on,,0,0,16,,,,,,,,,,,,,,,,15,,66,0
46559,note_on,,0,0,16,,,,,,,,,,,,,,,,15,,71,0
46559,note_on,,59,0,15,,,,,,,,,,,,,,,,13,,47,0
46560,note_on,,1,0,14,,,,,,,,,,,,,,,,12,,64,72
46560,note_on,,1,0,15,,,,,,,,,,,,,,,,13,,52,72
46560,note_on,,1,0,16,,,,,,,,,,,,,,,,15,,52,72
46560,note_on,,0,0,16,,,,,,,,,,,,,,,,15,,67,72
46560,note_on,,0,0,16,,,,,,,,,,,,,,,,15,,64,72
46560,note_on,,0,0,16,,,,,,,,,,,,,,,,15,,59,72
46560,note_on,,0,0,16,,,,,,,,,,,,,,,,15,,55,72
46560,note_on,,1,0,7,,,,,,,,,,,,,,,,2,,52,72
46560,note_on,,1,0,13,,,,,,,,,,,,,,,,11,,67,72
46619,note_on,,59,0,7,,,,,,,,,,,,,,,,2,,52,0
46619,note_on,,59,0,16,,,,,,,,,,,,,,,,15,,52,0
46619,note_on,,0,0,16,,,,,,,,,,,,,,,,15,,55,0
46619,note_on,,0,0,16,,,,,,,,,,,,,,,,15,,59,0
46619,note_on,,59,0,15,,,,,,,,,,,,,,,,13,,52,0
46619,note_on,,179,0,12,,,,,,,,,,,,,,,,10,,74,0
46620,note_on,,0,0,16,,,,,,,,,,,,,,,,15,,60,72
46620,note_on,,0,0,16,,,,,,,,,,,,,,,,15,,54,72
46620,note_on,,1,0,16,,,,,,,,,,,,,,,,15,,50,72
46620,note_on,,1,0,7,,,,,,,,,,,,,,,,2,,50,72
46620,note_on,,1,0,12,,,,,,,,,,,,,,,,10,,67,72
46620,note_on,,1,0,15,,,,,,,,,,,,,,,,13,,50,72
46679,note_on,,59,0,12,,,,,,,,,,,,,,,,10,,67,0
46679,note_on,,59,0,7,,,,,,,,,,,,,,,,2,,50,0
46679,note_on,,0,0,16,,,,,,,,,,,,,,,,15,,54,0
46679,note_on,,0,0,16,,,,,,,,,,,,,,,,15,,60,0
46679,note_on,,59,0,16,,,,,,,,,,,,,,,,15,,50,0
46679,note_on,,59,0,15,,,,,,,,,,,,,,,,13,,50,0
46680,note_on,,1,0,15,,,,,,,,,,,,,,,,13,,52,72
46680,note_on,,1,0,12,,,,,,,,,,,,,,,,10,,72,72
46680,note_on,,1,0,16,,,,,,,,,,,,,,,,15,,52,72
46680,note_on,,0,0,16,,,,,,,,,,,,,,,,15,,55,72
46680,note_on,,1,0,7,,,,,,,,,,,,,,,,2,,52,72
46739,note_on,,0,0,16,,,,,,,,,,,,,,,,15,,55,0
46739,note_on,,0,0,16,,,,,,,,,,,,,,,,15,,52,0
46739,note_on,,0,0,16,,,,,,,,,,,,,,,,15,,64,0
46739,note_on,,59,0,16,,,,,,,,,,,,,,,,15,,67,0
46739,note_on,,179,0,13,,,,,,,,,,,,,,,,11,,67,0
46739,note_on,,179,0,14,,,,,,,,,,,,,,,,12,,64,0
46739,note_on,,59,0,15,,,,,,,,,,,,,,,,13,,52,0
46739,note_on,,59,0,7,,,,,,,,,,,,,,,,2,,52,0
46740,note_on,,0,0,16,,,,,,,,,,,,,,,,15,,69,72
46740,note_on,,0,0,16,,,,,,,,,,,,,,,,15,,72,72
46740,note_on,,0,0,16,,,,,,,,,,,,,,,,15,,52,72
46740,note_on,,1,0,16,,,,,,,,,,,,,,,,15,,45,72
46740,note_on,,1,0,7,,,,,,,,,,,,,,,,2,,45,72
46740,note_on,,1,0,13,,,,,,,,,,,,,,,,11,,64,72
46740,note_on,,1,0,15,,,,,,,,,,,,,,,,13,,45,72
46740,note_on,,0,0,16,,,,,,,,,,,,,,,,15,,64,72
46740,note_on,,1,0,14,,,,,,,,,,,,,,,,12,,60,72
46799,note_on,,0,0,16,,,,,,,,,,,,,,,,15,,64,0
46799,note_on,,59,0,13,,,,,,,,,,,,,,,,11,,64,0
46799,note_on,,59,0,7,,,,,,,,,,,,,,,,2,,45,0
46799,note_on,,59,0,14,,,,,,,,,,,,,,,,12,,60,0
46799,note_on,,0,0,16,,,,,,,,,,,,,,,,15,,72,0
46799,note_on,,0,0,16,,,,,,,,,,,,,,,,15,,69,0
46799,note_on,,59,0,16,,,,,,,,,,,,,,,,15,,45,0
46799,note_on,,0,0,16,,,,,,,,,,,,,,,,15,,52,0
46799,note_on,,59,0,15,,,,,,,,,,,,,,,,13,,45,0
46800,note_on,,0,0,16,,,,,,,,,,,,,,,,15,,54,72
46800,note_on,,1,0,14,,,,,,,,,,,,,,,,12,,57,72
46800,note_on,,1,0,16,,,,,,,,,,,,,,,,15,,50,72
46800,note_on,,0,0,16,,,,,,,,,,,,,,,,15,,62,72
46800,note_on,,1,0,15,,,,,,,,,,,,,,,,13,,50,72
46800,note_on,,1,0,13,,,,,,,,,,,,,,,,11,,66,72
46800,note_on,,1,0,7,,,,,,,,,,,,,,,,2,,50,72
46800,note_on,,0,0,16,,,,,,,,,,,,,,,,15,,69,72
46800,note_on,,0,0,16,,,,,,,,,,,,,,,,15,,72,72
46859,note_on,,179,0,12,,,,,,,,,,,,,,,,10,,72,0
46859,note_on,,59,0,14,,,,,,,,,,,,,,,,12,,57,0
46860,note_on,,1,0,14,,,,,,,,,,,,,,,,12,,62,72
46860,note_on,,1,0,12,,,,,,,,,,,,,,,,10,,74,72
46919,note_on,,59,0,14,,,,,,,,,,,,,,,,12,,62,0
46919,note_on,,0,0,16,,,,,,,,,,,,,,,,15,,72,0
46919,note_on,,119,0,13,,,,,,,,,,,,,,,,11,,66,0
46919,note_on,,119,0,16,,,,,,,,,,,,,,,,15,,50,0
46919,note_on,,0,0,16,,,,,,,,,,,,,,,,15,,62,0
46919,note_on,,0,0,16,,,,,,,,,,,,,,,,15,,69,0
46919,note_on,,0,0,16,,,,,,,,,,,,,,,,15,,54,0
46919,note_on,,119,0,15,,,,,,,,,,,,,,,,13,,50,0
46919,note_on,,119,0,7,,,,,,,,,,,,,,,,2,,50,0
46919,note_on,,59,0,12,,,,,,,,,,,,,,,,10,,74,0
46920,note_on,,1,0,12,,,,,,,,,,,,,,,,10,,71,72
46920,note_on,,1,0,15,,,,,,,,,,,,,,,,13,,55,72
46920,note_on,,1,0,13,,,,,,,,,,,,,,,,11,,67,72
46920,note_on,,0,0,16,,,,,,,,,,,,,,,,15,,59,72
46920,note_on,,0,0,16,,,,,,,,,,,,,,,,15,,67,72
46920,note_on,,0,0,16,,,,,,,,,,,,,,,,15,,71,72
46920,note_on,,1,0,14,,,,,,,,,,,,,,,,12,,62,72
46920,note_on,,1,0,16,,,,,,,,,,,,,,,,15,,55,72
46920,note_on,,0,0,16,,,,,,,,,,,,,,,,15,,62,72
46920,note_on,,1,0,7,,,,,,,,,,,,,,,,2,,55,72
46979,note_on,,59,0,7,,,,,,,,,,,,,,,,2,,55,0
46979,note_on,,59,0,15,,,,,,,,,,,,,,,,13,,55,0
46979,note_on,,59,0,14,,,,,,,,,,,,,,,,12,,62,0
46979,note_on,,0,0,16,,,,,,,,,,,,,,,,15,,59,0
46979,note_on,,59,0,12,,,,,,,,,,,,,,,,10,,71,0
46979,note_on,,59,0,16,,,,,,,,,,,,,,,,15,,55,0
46979,note_on,,0,0,16,,,,,,,,,,,,,,,,15,,71,0
46979,note_on,,0,0,16,,,,,,,,,,,,,,,,15,,67,0
46979,note_on,,0,0,16,,,,,,,,,,,,,,,,15,,62,0
46980,note_on,,0,0,16,,,,,,,,,,,,,,,,15,,67,72
46980,note_on,,0,0,16,,,,,,,,,,,,,,,,15,,69,72
46980,note_on,,0,0,16,,,,,,,,,,,,,,,,15,,76,72
46980,note_on,,1,0,16,,,,,,,,,,,,,,,,15,,48,72
46980,note_on,,0,0,16,,,,,,,,,,,,,,,,15,,57,72
46980,note_on,,1,0,12,,,,,,,,,,,,,,,,10,,69,72
46980,note_on,,1,0,15,,,,,,,,,,,,,,,,13,,48,72
46980,note_on,,1,0,14,,,,,,,,,,,,,,,,12,,64,72
46980,note_on,,1,0,7,,,,,,,,,,,,,,,,2,,48,72
47039,note_on,,0,0,16,,,,,,,,,,,,,,,,15,,57,0
47039,note_on,,59,0,12,,,,,,,,,,,,,,,,10,,69,0
47039,note_on,,0,0,16,,,,,,,,,,,,,,,,15,,67,0
47039,note_on,,59,0,7,,,,,,,,,,,,,,,,2,,48,0
47039,note_on,,59,0,14,,,,,,,,,,,,,,,,12,,64,0
47039,note_on,,0,0,16,,,,,,,,,,,,,,,,15,,76,0
47039,note_on,,59,0,16,,,,,,,,,,,,,,,,15,,48,0
47039,note_on,,119,0,13,,,,,,,,,,,,,,,,11,,67,0
47039,note_on,,0,0,16,,,,,,,,,,,,,,,,15,,69,0
47039,note_on,,59,0,15,,,,,,,,,,,,,,,,13,,48,0
47040,set_tempo,,47040,1,0,,,,,,,,,705882,,,,,,,,,,
47040,note_on,,1,0,16,,,,,,,,,,,,,,,,15,,50,72
47040,note_on,,0,0,16,,,,,,,,,,,,,,,,15,,74,72
47040,note_on,,0,0,16,,,,,,,,,,,,,,,,15,,69,72
47040,note_on,,0,0,16,,,,,,,,,,,,,,,,15,,67,72
47040,note_on,,0,0,16,,,,,,,,,,,,,,,,15,,57,72
47040,note_on,,1,0,12,,,,,,,,,,,,,,,,10,,69,72
47040,note_on,,1,0,14,,,,,,,,,,,,,,,,12,,57,72
47040,note_on,,1,0,15,,,,,,,,,,,,,,,,13,,50,72
47040,note_on,,1,0,7,,,,,,,,,,,,,,,,2,,50,72
47040,note_on,,1,0,13,,,,,,,,,,,,,,,,11,,67,72
47054,note_on,,14,0,12,,,,,,,,,,,,,,,,10,,69,0
47055,note_on,,1,0,12,,,,,,,,,,,,,,,,10,,71,72
47069,note_on,,14,0,12,,,,,,,,,,,,,,,,10,,71,0
47070,note_on,,1,0,12,,,,,,,,,,,,,,,,10,,69,72
47084,note_on,,14,0,12,,,,,,,,,,,,,,,,10,,69,0
47085,note_on,,1,0,12,,,,,,,,,,,,,,,,10,,71,72
47099,note_on,,14,0,12,,,,,,,,,,,,,,,,10,,71,0
47100,note_on,,1,0,12,,,,,,,,,,,,,,,,10,,69,72
47114,note_on,,14,0,12,,,,,,,,,,,,,,,,10,,69,0
47115,note_on,,1,0,12,,,,,,,,,,,,,,,,10,,71,72
47129,note_on,,14,0,12,,,,,,,,,,,,,,,,10,,71,0
47130,note_on,,1,0,12,,,,,,,,,,,,,,,,10,,69,72
47144,note_on,,14,0,12,,,,,,,,,,,,,,,,10,,69,0
47145,note_on,,1,0,12,,,,,,,,,,,,,,,,10,,71,72
47159,note_on,,119,0,13,,,,,,,,,,,,,,,,11,,67,0
47159,note_on,,14,0,12,,,,,,,,,,,,,,,,10,,71,0
47159,note_on,,119,0,15,,,,,,,,,,,,,,,,13,,50,0
47159,note_on,,119,0,16,,,,,,,,,,,,,,,,15,,50,0
47159,note_on,,0,0,16,,,,,,,,,,,,,,,,15,,67,0
47159,note_on,,0,0,16,,,,,,,,,,,,,,,,15,,57,0
47159,note_on,,119,0,14,,,,,,,,,,,,,,,,12,,57,0
47159,note_on,,119,0,7,,,,,,,,,,,,,,,,2,,50,0
47160,note_on,,0,0,16,,,,,,,,,,,,,,,,15,,50,72
47160,note_on,,1,0,15,,,,,,,,,,,,,,,,13,,38,72
47160,note_on,,1,0,7,,,,,,,,,,,,,,,,2,,38,72
47160,note_on,,1,0,12,,,,,,,,,,,,,,,,10,,69,72
47160,note_on,,0,0,16,,,,,,,,,,,,,,,,15,,66,72
47160,note_on,,1,0,13,,,,,,,,,,,,,,,,11,,66,72
47160,note_on,,1,0,16,,,,,,,,,,,,,,,,15,,38,72
47160,note_on,,1,0,14,,,,,,,,,,,,,,,,12,,62,72
47160,note_on,,0,0,16,,,,,,,,,,,,,,,,15,,62,72
47174,note_on,,14,0,12,,,,,,,,,,,,,,,,10,,69,0
47175,note_on,,1,0,12,,,,,,,,,,,,,,,,10,,71,72
47189,note_on,,14,0,12,,,,,,,,,,,,,,,,10,,71,0
47190,note_on,,1,0,12,,,,,,,,,,,,,,,,10,,67,72
47204,note_on,,14,0,12,,,,,,,,,,,,,,,,10,,67,0
47205,note_on,,1,0,12,,,,,,,,,,,,,,,,10,,69,72
47219,note_on,,14,0,12,,,,,,,,,,,,,,,,10,,69,0
47220,note_on,,1,0,12,,,,,,,,,,,,,,,,10,,67,72
47279,note_on,,119,0,16,,,,,,,,,,,,,,,,15,,74,0
47279,note_on,,59,0,12,,,,,,,,,,,,,,,,10,,67,0
47279,note_on,,0,0,16,,,,,,,,,,,,,,,,15,,38,0
47279,note_on,,119,0,15,,,,,,,,,,,,,,,,13,,38,0
47279,note_on,,0,0,16,,,,,,,,,,,,,,,,15,,69,0
47279,note_on,,119,0,13,,,,,,,,,,,,,,,,11,,66,0
47279,note_on,,119,0,7,,,,,,,,,,,,,,,,2,,38,0
47279,note_on,,0,0,16,,,,,,,,,,,,,,,,15,,50,0
47279,note_on,,119,0,14,,,,,,,,,,,,,,,,12,,62,0
47279,note_on,,0,0,16,,,,,,,,,,,,,,,,15,,66,0
47279,note_on,,0,0,16,,,,,,,,,,,,,,,,15,,62,0
47280,note_on,,1,0,15,,,,,,,,,,,,,,,,13,,43,72
47280,note_on,,1,0,7,,,,,,,,,,,,,,,,2,,43,72
47280,note_on,,1,0,16,,,,,,,,,,,,,,,,15,,43,72
47280,set_tempo,,240,1,0,,,,,,,,,1000000,,,,,,,,,,
47280,note_on,,0,0,16,,,,,,,,,,,,,,,,15,,62,72
47280,note_on,,1,0,12,,,,,,,,,,,,,,,,10,,67,72
47280,note_on,,1,0,14,,,,,,,,,,,,,,,,12,,59,72
47280,note_on,,0,0,16,,,,,,,,,,,,,,,,15,,67,72
47280,note_on,,1,0,13,,,,,,,,,,,,,,,,11,,67,72
47280,note_on,,0,0,16,,,,,,,,,,,,,,,,15,,50,72
47280,note_on,,0,0,16,,,,,,,,,,,,,,,,15,,71,72
47519,note_on,,0,0,16,,,,,,,,,,,,,,,,15,,67,0
47519,note_on,,0,0,16,,,,,,,,,,,,,,,,15,,71,0
47519,note_on,,239,0,16,,,,,,,,,,,,,,,,15,,43,0
47519,note_on,,0,0,16,,,,,,,,,,,,,,,,15,,62,0
47519,note_on,,239,0,15,,,,,,,,,,,,,,,,13,,43,0
47519,note_on,,239,0,7,,,,,,,,,,,,,,,,2,,43,0
47519,end_of_track,,0,1,7,,,,,,,,,,,,,,,,,,,
47519,note_on,,0,0,16,,,,,,,,,,,,,,,,15,,50,0
47519,end_of_track,,0,1,15,,,,,,,,,,,,,,,,,,,
47519,note_on,,239,0,12,,,,,,,,,,,,,,,,10,,67,0
47519,end_of_track,,0,1,12,,,,,,,,,,,,,,,,,,,
47519,note_on,,239,0,13,,,,,,,,,,,,,,,,11,,67,0
47519,end_of_track,,0,1,13,,,,,,,,,,,,,,,,,,,
47519,note_on,,239,0,14,,,,,,,,,,,,,,,,12,,59,0
47519,end_of_track,,0,1,14,,,,,,,,,,,,,,,,,,,
47519,end_of_track,,0,1,16,,,,,,,,,,,,,,,,,,,
48000,end_of_track,,0,1,0,,,,,,,,,,,,,,,,,,,
48000,set_tempo,,720,1,0,,,,,,,,,600000,,,,,,,,,,
