tick,type,data,time,meta,track,frame_rate,hours,minutes,seconds,frames,sub_frames,port,key,tempo,numerator,denominator,clocks_per_click,notated_32nd_notes_per_beat,control,value,channel,program,note,velocity
0,sequencer_specific,"(0, 0, 91, 35, 1, 0, 5, 4, 35, 0)",0,1,0,,,,,,,,,,,,,,,,,,,
0,control_change,,0,0,7,,,,,,,,,,,,,,11,127,11,,,
0,note_on,,0,0,7,,,,,,,,,,,,,,,,11,,64,48
0,midi_port,,0,1,6,,,,,,,0,,,,,,,,,,,,
0,note_on,,0,0,9,,,,,,,,,,,,,,,,13,,52,48
0,control_change,,0,0,9,,,,,,,,,,,,,,11,127,13,,,
0,control_change,,0,0,9,,,,,,,,,,,,,,7,96,13,,,
0,program_change,,0,0,9,,,,,,,,,,,,,,,,13,48,,
0,control_change,,0,0,9,,,,,,,,,,,,,,10,96,13,,,
0,midi_port,,0,1,9,,,,,,,0,,,,,,,,,,,,
0,track_name,,0,1,9,,,,,,,,,,,,,,,,,,,
0,track_name,,0,1,8,,,,,,,,,,,,,,,,,,,
0,midi_port,,0,1,8,,,,,,,0,,,,,,,,,,,,
0,control_change,,0,0,8,,,,,,,,,,,,,,10,80,12,,,
0,program_change,,0,0,8,,,,,,,,,,,,,,,,12,48,,
0,control_change,,0,0,8,,,,,,,,,,,,,,7,96,12,,,
0,control_change,,0,0,7,,,,,,,,,,,,,,7,96,11,,,
0,program_change,,0,0,7,,,,,,,,,,,,,,,,11,48,,
0,control_change,,0,0,7,,,,,,,,,,,,,,10,24,11,,,
0,midi_port,,0,1,7,,,,,,,0,,,,,,,,,,,,
0,control_change,,0,0,6,,,,,,,,,,,,,,11,127,10,,,
0,control_change,,0,0,6,,,,,,,,,,,,,,10,48,10,,,
0,program_change,,0,0,6,,,,,,,,,,,,,,,,10,48,,
0,control_change,,0,0,6,,,,,,,,,,,,,,7,96,10,,,
0,note_on,,0,0,6,,,,,,,,,,,,,,,,10,,68,48
0,note_on,,0,0,10,,,,,,,,,,,,,,,,15,,68,48
0,note_on,,0,0,10,,,,,,,,,,,,,,,,15,,64,48
0,control_change,,0,0,8,,,,,,,,,,,,,,11,127,12,,,
0,note_on,,0,0,10,,,,,,,,,,,,,,,,15,,59,48
0,program_change,,0,0,10,,,,,,,,,,,,,,,,15,6,,
0,control_change,,0,0,10,,,,,,,,,,,,,,11,127,15,,,
0,control_change,,0,0,10,,,,,,,,,,,,,,10,90,15,,,
0,control_change,,0,0,10,,,,,,,,,,,,,,7,96,15,,,
0,midi_port,,0,1,10,,,,,,,0,,,,,,,,,,,,
0,track_name,,0,1,10,,,,,,,,,,,,,,,,,,,
0,track_name,,0,1,7,,,,,,,,,,,,,,,,,,,
0,note_on,,0,0,10,,,,,,,,,,,,,,,,15,,52,48
0,note_on,,0,0,8,,,,,,,,,,,,,,,,12,,59,48
0,track_name,,0,1,6,,,,,,,,,,,,,,,,,,,
0,midi_port,,0,1,1,,,,,,,0,,,,,,,,,,,,
0,control_change,,0,0,5,,,,,,,,,,,,,,7,96,7,,,
0,program_change,,0,0,5,,,,,,,,,,,,,,,,7,70,,
0,midi_port,,0,1,5,,,,,,,0,,,,,,,,,,,,
0,track_name,,0,1,5,,,,,,,,,,,,,,,,,,,
0,end_of_track,,0,1,4,,,,,,,,,,,,,,,,,,,
0,key_signature,,0,1,0,,,,,,,,E,,,,,,,,,,,
0,midi_port,,0,1,0,,,,,,,0,,,,,,,,,,,,
0,midi_port,,0,1,4,,,,,,,0,,,,,,,,,,,,
0,set_tempo,,0,1,0,,,,,,,,,1090909,,,,,,,,,,
0,control_change,,0,0,5,,,,,,,,,,,,,,10,75,7,,,
0,track_name,,0,1,1,,,,,,,,,,,,,,,,,,,
0,time_signature,,0,1,0,,,,,,,,,,4,4,24,8,,,,,,
0,track_name,,0,1,2,,,,,,,,,,,,,,,,,,,
0,midi_port,,0,1,2,,,,,,,0,,,,,,,,,,,,
0,end_of_track,,0,1,2,,,,,,,,,,,,,,,,,,,
0,track_name,,0,1,3,,,,,,,,,,,,,,,,,,,
0,midi_port,,0,1,3,,,,,,,0,,,,,,,,,,,,
0,end_of_track,,0,1,3,,,,,,,,,,,,,,,,,,,
0,smpte_offset,,0,1,0,25,32,0,3,0,0,,,,,,,,,,,,,
0,instrument_name,,0,1,0,,,,,,,,,,,,,,,,,,,
0,track_name,,0,1,0,,,,,,,,,,,,,,,,,,,
0,end_of_track,,0,1,1,,,,,,,,,,,,,,,,,,,
0,control_change,,0,0,5,,,,,,,,,,,,,,11,127,7,,,
29,note_on,,29,0,8,,,,,,,,,,,,,,,,12,,59,0
29,note_on,,29,0,6,,,,,,,,,,,,,,,,10,,68,0
29,note_on,,29,0,7,,,,,,,,,,,,,,,,11,,64,0
60,note_on,,31,0,7,,,,,,,,,,,,,,,,11,,64,48
60,note_on,,31,0,6,,,,,,,,,,,,,,,,10,,68,48
60,note_on,,31,0,8,,,,,,,,,,,,,,,,12,,59,48
89,note_on,,29,0,6,,,,,,,,,,,,,,,,10,,68,0
89,note_on,,29,0,8,,,,,,,,,,,,,,,,12,,59,0
89,note_on,,29,0,7,,,,,,,,,,,,,,,,11,,64,0
120,note_on,,31,0,7,,,,,,,,,,,,,,,,11,,64,48
120,note_on,,31,0,8,,,,,,,,,,,,,,,,12,,59,48
120,note_on,,31,0,6,,,,,,,,,,,,,,,,10,,68,48
149,note_on,,29,0,7,,,,,,,,,,,,,,,,11,,64,0
149,note_on,,29,0,8,,,,,,,,,,,,,,,,12,,59,0
149,note_on,,29,0,6,,,,,,,,,,,,,,,,10,,68,0
180,note_on,,31,0,7,,,,,,,,,,,,,,,,11,,64,48
180,note_on,,31,0,8,,,,,,,,,,,,,,,,12,,59,48
180,note_on,,31,0,6,,,,,,,,,,,,,,,,10,,68,48
209,note_on,,29,0,8,,,,,,,,,,,,,,,,12,,59,0
209,note_on,,29,0,7,,,,,,,,,,,,,,,,11,,64,0
209,note_on,,29,0,6,,,,,,,,,,,,,,,,10,,68,0
239,note_on,,0,0,10,,,,,,,,,,,,,,,,15,,68,0
239,note_on,,239,0,9,,,,,,,,,,,,,,,,13,,52,0
239,note_on,,239,0,10,,,,,,,,,,,,,,,,15,,52,0
239,note_on,,0,0,10,,,,,,,,,,,,,,,,15,,59,0
239,note_on,,0,0,10,,,,,,,,,,,,,,,,15,,64,0
240,note_on,,31,0,6,,,,,,,,,,,,,,,,10,,71,48
240,note_on,,31,0,7,,,,,,,,,,,,,,,,11,,64,48
240,note_on,,1,0,10,,,,,,,,,,,,,,,,15,,44,48
240,note_on,,0,0,10,,,,,,,,,,,,,,,,15,,71,48
240,note_on,,0,0,10,,,,,,,,,,,,,,,,15,,64,48
240,note_on,,0,0,10,,,,,,,,,,,,,,,,15,,59,48
240,note_on,,0,0,10,,,,,,,,,,,,,,,,15,,52,48
240,note_on,,1,0,9,,,,,,,,,,,,,,,,13,,44,48
240,note_on,,31,0,8,,,,,,,,,,,,,,,,12,,59,48
269,note_on,,29,0,10,,,,,,,,,,,,,,,,15,,44,0
269,note_on,,29,0,7,,,,,,,,,,,,,,,,11,,64,0
269,note_on,,29,0,9,,,,,,,,,,,,,,,,13,,44,0
269,note_on,,29,0,8,,,,,,,,,,,,,,,,12,,59,0
300,note_on,,31,0,7,,,,,,,,,,,,,,,,11,,64,48
300,note_on,,31,0,9,,,,,,,,,,,,,,,,13,,44,48
300,note_on,,31,0,10,,,,,,,,,,,,,,,,15,,44,48
300,note_on,,31,0,8,,,,,,,,,,,,,,,,12,,59,48
329,note_on,,29,0,8,,,,,,,,,,,,,,,,12,,59,0
329,note_on,,29,0,7,,,,,,,,,,,,,,,,11,,64,0
329,note_on,,29,0,9,,,,,,,,,,,,,,,,13,,44,0
329,note_on,,29,0,10,,,,,,,,,,,,,,,,15,,44,0
360,note_on,,31,0,8,,,,,,,,,,,,,,,,12,,59,48
360,note_on,,31,0,7,,,,,,,,,,,,,,,,11,,64,48
360,note_on,,31,0,9,,,,,,,,,,,,,,,,13,,44,48
360,note_on,,31,0,10,,,,,,,,,,,,,,,,15,,44,48
389,note_on,,29,0,8,,,,,,,,,,,,,,,,12,,59,0
389,note_on,,29,0,7,,,,,,,,,,,,,,,,11,,64,0
389,note_on,,29,0,9,,,,,,,,,,,,,,,,13,,44,0
389,note_on,,29,0,10,,,,,,,,,,,,,,,,15,,44,0
420,note_on,,31,0,10,,,,,,,,,,,,,,,,15,,44,48
420,note_on,,31,0,7,,,,,,,,,,,,,,,,11,,64,48
420,note_on,,31,0,8,,,,,,,,,,,,,,,,12,,59,48
420,note_on,,31,0,9,,,,,,,,,,,,,,,,13,,44,48
449,note_on,,29,0,10,,,,,,,,,,,,,,,,15,,44,0
449,note_on,,29,0,8,,,,,,,,,,,,,,,,12,,59,0
449,note_on,,29,0,9,,,,,,,,,,,,,,,,13,,44,0
449,note_on,,209,0,6,,,,,,,,,,,,,,,,10,,71,0
449,note_on,,29,0,7,,,,,,,,,,,,,,,,11,,64,0
450,note_on,,1,0,6,,,,,,,,,,,,,,,,10,,69,48
464,note_on,,14,0,6,,,,,,,,,,,,,,,,10,,69,0
465,note_on,,1,0,6,,,,,,,,,,,,,,,,10,,68,48
479,note_on,,0,0,10,,,,,,,,,,,,,,,,15,,64,0
479,note_on,,0,0,10,,,,,,,,,,,,,,,,15,,59,0
479,note_on,,0,0,10,,,,,,,,,,,,,,,,15,,52,0
479,note_on,,14,0,6,,,,,,,,,,,,,,,,10,,68,0
479,note_on,,30,0,10,,,,,,,,,,,,,,,,15,,71,0
480,note_on,,1,0,6,,,,,,,,,,,,,,,,10,,66,48
480,note_on,,0,0,10,,,,,,,,,,,,,,,,15,,54,48
480,note_on,,0,0,10,,,,,,,,,,,,,,,,15,,59,48
480,note_on,,0,0,10,,,,,,,,,,,,,,,,15,,66,48
480,note_on,,1,0,10,,,,,,,,,,,,,,,,15,,47,48
480,note_on,,31,0,9,,,,,,,,,,,,,,,,13,,47,48
480,note_on,,31,0,8,,,,,,,,,,,,,,,,12,,59,48
480,note_on,,31,0,7,,,,,,,,,,,,,,,,11,,64,48
539,note_on,,59,0,6,,,,,,,,,,,,,,,,10,,66,0
539,note_on,,59,0,8,,,,,,,,,,,,,,,,12,,59,0
539,note_on,,59,0,7,,,,,,,,,,,,,,,,11,,64,0
540,note_on,,1,0,6,,,,,,,,,,,,,,,,10,,66,48
540,note_on,,1,0,8,,,,,,,,,,,,,,,,12,,59,48
540,note_on,,1,0,7,,,,,,,,,,,,,,,,11,,64,48
599,note_on,,0,0,10,,,,,,,,,,,,,,,,15,,66,0
599,note_on,,0,0,10,,,,,,,,,,,,,,,,15,,59,0
599,note_on,,119,0,10,,,,,,,,,,,,,,,,15,,47,0
599,note_on,,119,0,9,,,,,,,,,,,,,,,,13,,47,0
599,note_on,,59,0,8,,,,,,,,,,,,,,,,12,,59,0
599,note_on,,0,0,10,,,,,,,,,,,,,,,,15,,54,0
599,note_on,,59,0,7,,,,,,,,,,,,,,,,11,,64,0
599,note_on,,59,0,6,,,,,,,,,,,,,,,,10,,66,0
600,note_on,,1,0,8,,,,,,,,,,,,,,,,12,,59,48
600,note_on,,1,0,7,,,,,,,,,,,,,,,,11,,63,48
600,note_on,,1,0,6,,,,,,,,,,,,,,,,10,,66,48
659,note_on,,59,0,8,,,,,,,,,,,,,,,,12,,59,0
659,note_on,,59,0,7,,,,,,,,,,,,,,,,11,,63,0
659,note_on,,59,0,6,,,,,,,,,,,,,,,,10,,66,0
660,note_on,,1,0,8,,,,,,,,,,,,,,,,12,,59,48
660,note_on,,1,0,7,,,,,,,,,,,,,,,,11,,63,48
660,note_on,,1,0,6,,,,,,,,,,,,,,,,10,,66,48
719,note_on,,59,0,8,,,,,,,,,,,,,,,,12,,59,0
719,note_on,,59,0,7,,,,,,,,,,,,,,,,11,,63,0
719,note_on,,59,0,6,,,,,,,,,,,,,,,,10,,66,0
720,note_on,,0,0,10,,,,,,,,,,,,,,,,15,,63,48
720,note_on,,0,0,10,,,,,,,,,,,,,,,,15,,57,48
720,note_on,,0,0,10,,,,,,,,,,,,,,,,15,,54,48
720,note_on,,1,0,7,,,,,,,,,,,,,,,,11,,63,48
720,note_on,,1,0,6,,,,,,,,,,,,,,,,10,,69,48
720,note_on,,1,0,8,,,,,,,,,,,,,,,,12,,57,48
720,note_on,,121,0,9,,,,,,,,,,,,,,,,13,,42,48
720,note_on,,121,0,10,,,,,,,,,,,,,,,,15,,42,48
720,note_on,,0,0,10,,,,,,,,,,,,,,,,15,,69,48
749,note_on,,29,0,10,,,,,,,,,,,,,,,,15,,42,0
749,note_on,,29,0,9,,,,,,,,,,,,,,,,13,,42,0
779,note_on,,59,0,8,,,,,,,,,,,,,,,,12,,57,0
779,note_on,,59,0,7,,,,,,,,,,,,,,,,11,,63,0
780,note_on,,31,0,9,,,,,,,,,,,,,,,,13,,42,48
780,note_on,,1,0,7,,,,,,,,,,,,,,,,11,,63,48
780,note_on,,31,0,10,,,,,,,,,,,,,,,,15,,42,48
780,note_on,,1,0,8,,,,,,,,,,,,,,,,12,,57,48
809,note_on,,29,0,10,,,,,,,,,,,,,,,,15,,42,0
809,note_on,,29,0,9,,,,,,,,,,,,,,,,13,,42,0
839,note_on,,59,0,7,,,,,,,,,,,,,,,,11,,63,0
839,note_on,,59,0,8,,,,,,,,,,,,,,,,12,,57,0
840,note_on,,1,0,7,,,,,,,,,,,,,,,,11,,63,48
840,note_on,,31,0,9,,,,,,,,,,,,,,,,13,,42,48
840,note_on,,1,0,8,,,,,,,,,,,,,,,,12,,57,48
840,note_on,,31,0,10,,,,,,,,,,,,,,,,15,,42,48
869,note_on,,29,0,10,,,,,,,,,,,,,,,,15,,42,0
869,note_on,,29,0,9,,,,,,,,,,,,,,,,13,,42,0
899,note_on,,59,0,7,,,,,,,,,,,,,,,,11,,63,0
899,note_on,,59,0,8,,,,,,,,,,,,,,,,12,,57,0
900,note_on,,31,0,9,,,,,,,,,,,,,,,,13,,42,48
900,note_on,,31,0,10,,,,,,,,,,,,,,,,15,,42,48
900,note_on,,1,0,7,,,,,,,,,,,,,,,,11,,63,48
900,note_on,,1,0,8,,,,,,,,,,,,,,,,12,,57,48
929,note_on,,209,0,6,,,,,,,,,,,,,,,,10,,69,0
929,note_on,,29,0,9,,,,,,,,,,,,,,,,13,,42,0
929,note_on,,29,0,10,,,,,,,,,,,,,,,,15,,42,0
930,note_on,,1,0,6,,,,,,,,,,,,,,,,10,,68,48
944,note_on,,14,0,6,,,,,,,,,,,,,,,,10,,68,0
945,note_on,,1,0,6,,,,,,,,,,,,,,,,10,,66,48
959,note_on,,14,0,6,,,,,,,,,,,,,,,,10,,66,0
959,note_on,,0,0,10,,,,,,,,,,,,,,,,15,,57,0
959,note_on,,0,0,10,,,,,,,,,,,,,,,,15,,63,0
959,note_on,,59,0,8,,,,,,,,,,,,,,,,12,,57,0
959,note_on,,59,0,7,,,,,,,,,,,,,,,,11,,63,0
959,note_on,,0,0,10,,,,,,,,,,,,,,,,15,,54,0
959,note_on,,30,0,10,,,,,,,,,,,,,,,,15,,69,0
960,note_on,,1,0,8,,,,,,,,,,,,,,,,12,,59,48
960,note_on,,1,0,7,,,,,,,,,,,,,,,,11,,64,48
960,note_on,,31,0,9,,,,,,,,,,,,,,,,13,,44,48
960,note_on,,1,0,10,,,,,,,,,,,,,,,,15,,64,48
960,note_on,,0,0,10,,,,,,,,,,,,,,,,15,,44,48
960,note_on,,0,0,10,,,,,,,,,,,,,,,,15,,52,48
960,note_on,,0,0,10,,,,,,,,,,,,,,,,15,,59,48
960,note_on,,0,0,10,,,,,,,,,,,,,,,,15,,68,48
960,note_on,,1,0,6,,,,,,,,,,,,,,,,10,,64,48
1019,note_on,,59,0,7,,,,,,,,,,,,,,,,11,,64,0
1019,note_on,,59,0,10,,,,,,,,,,,,,,,,15,,44,0
1019,note_on,,59,0,9,,,,,,,,,,,,,,,,13,,44,0
1019,note_on,,59,0,8,,,,,,,,,,,,,,,,12,,59,0
1019,note_on,,59,0,6,,,,,,,,,,,,,,,,10,,64,0
1020,note_on,,1,0,7,,,,,,,,,,,,,,,,11,,64,48
1020,note_on,,1,0,10,,,,,,,,,,,,,,,,15,,44,48
1020,note_on,,1,0,6,,,,,,,,,,,,,,,,10,,64,48
1020,note_on,,1,0,9,,,,,,,,,,,,,,,,13,,44,48
1020,note_on,,1,0,8,,,,,,,,,,,,,,,,12,,59,48
1034,note_on,,14,0,6,,,,,,,,,,,,,,,,10,,64,0
1035,note_on,,1,0,6,,,,,,,,,,,,,,,,10,,66,48
1049,note_on,,14,0,6,,,,,,,,,,,,,,,,10,,66,0
1050,note_on,,1,0,6,,,,,,,,,,,,,,,,10,,64,48
1064,note_on,,14,0,6,,,,,,,,,,,,,,,,10,,64,0
1065,note_on,,1,0,6,,,,,,,,,,,,,,,,10,,63,48
1079,note_on,,59,0,7,,,,,,,,,,,,,,,,11,,64,0
1079,note_on,,0,0,10,,,,,,,,,,,,,,,,15,,68,0
1079,note_on,,0,0,10,,,,,,,,,,,,,,,,15,,59,0
1079,note_on,,0,0,10,,,,,,,,,,,,,,,,15,,52,0
1079,note_on,,0,0,10,,,,,,,,,,,,,,,,15,,44,0
1079,note_on,,59,0,10,,,,,,,,,,,,,,,,15,,64,0
1079,note_on,,59,0,9,,,,,,,,,,,,,,,,13,,44,0
1079,note_on,,14,0,6,,,,,,,,,,,,,,,,10,,63,0
1079,note_on,,59,0,8,,,,,,,,,,,,,,,,12,,59,0
1080,note_on,,1,0,9,,,,,,,,,,,,,,,,13,,49,48
1080,note_on,,1,0,7,,,,,,,,,,,,,,,,11,,64,48
1080,note_on,,0,0,10,,,,,,,,,,,,,,,,15,,64,48
1080,note_on,,1,0,10,,,,,,,,,,,,,,,,15,,49,48
1080,note_on,,0,0,10,,,,,,,,,,,,,,,,15,,57,48
1080,note_on,,0,0,10,,,,,,,,,,,,,,,,15,,52,48
1080,note_on,,1,0,8,,,,,,,,,,,,,,,,12,,57,48
1080,note_on,,1,0,6,,,,,,,,,,,,,,,,10,,64,48
1139,note_on,,59,0,10,,,,,,,,,,,,,,,,15,,49,0
1139,note_on,,59,0,9,,,,,,,,,,,,,,,,13,,49,0
1139,note_on,,59,0,7,,,,,,,,,,,,,,,,11,,64,0
1139,note_on,,59,0,6,,,,,,,,,,,,,,,,10,,64,0
1139,note_on,,59,0,8,,,,,,,,,,,,,,,,12,,57,0
1140,note_on,,1,0,7,,,,,,,,,,,,,,,,11,,64,48
1140,note_on,,1,0,9,,,,,,,,,,,,,,,,13,,49,48
1140,note_on,,1,0,10,,,,,,,,,,,,,,,,15,,49,48
1140,note_on,,1,0,6,,,,,,,,,,,,,,,,10,,69,48
1140,note_on,,1,0,8,,,,,,,,,,,,,,,,12,,57,48
1199,note_on,,0,0,10,,,,,,,,,,,,,,,,15,,49,0
1199,note_on,,0,0,10,,,,,,,,,,,,,,,,15,,52,0
1199,note_on,,59,0,10,,,,,,,,,,,,,,,,15,,64,0
1199,note_on,,59,0,6,,,,,,,,,,,,,,,,10,,69,0
1199,note_on,,59,0,9,,,,,,,,,,,,,,,,13,,49,0
1199,note_on,,0,0,10,,,,,,,,,,,,,,,,15,,57,0
1199,note_on,,59,0,8,,,,,,,,,,,,,,,,12,,57,0
1199,note_on,,59,0,7,,,,,,,,,,,,,,,,11,,64,0
1200,note_on,,0,0,10,,,,,,,,,,,,,,,,15,,64,48
1200,note_on,,1,0,10,,,,,,,,,,,,,,,,15,,47,48
1200,note_on,,1,0,9,,,,,,,,,,,,,,,,13,,47,48
1200,note_on,,1,0,8,,,,,,,,,,,,,,,,12,,59,48
1200,note_on,,1,0,6,,,,,,,,,,,,,,,,10,,68,48
1200,note_on,,1,0,7,,,,,,,,,,,,,,,,11,,64,48
1200,note_on,,0,0,10,,,,,,,,,,,,,,,,15,,56,48
1200,note_on,,0,0,10,,,,,,,,,,,,,,,,15,,59,48
1259,note_on,,59,0,7,,,,,,,,,,,,,,,,11,,64,0
1259,note_on,,59,0,10,,,,,,,,,,,,,,,,15,,47,0
1259,note_on,,59,0,8,,,,,,,,,,,,,,,,12,,59,0
1259,note_on,,59,0,9,,,,,,,,,,,,,,,,13,,47,0
1260,note_on,,1,0,7,,,,,,,,,,,,,,,,11,,64,48
1260,note_on,,1,0,10,,,,,,,,,,,,,,,,15,,47,48
1260,note_on,,1,0,8,,,,,,,,,,,,,,,,12,,59,48
1260,note_on,,1,0,9,,,,,,,,,,,,,,,,13,,47,48
1319,note_on,,59,0,7,,,,,,,,,,,,,,,,11,,64,0
1319,note_on,,0,0,10,,,,,,,,,,,,,,,,15,,59,0
1319,note_on,,59,0,10,,,,,,,,,,,,,,,,15,,64,0
1319,note_on,,59,0,8,,,,,,,,,,,,,,,,12,,59,0
1319,note_on,,0,0,10,,,,,,,,,,,,,,,,15,,56,0
1319,note_on,,119,0,6,,,,,,,,,,,,,,,,10,,68,0
1319,note_on,,0,0,10,,,,,,,,,,,,,,,,15,,47,0
1319,note_on,,59,0,9,,,,,,,,,,,,,,,,13,,47,0
1320,note_on,,1,0,10,,,,,,,,,,,,,,,,15,,47,48
1320,note_on,,0,0,10,,,,,,,,,,,,,,,,15,,63,48
1320,note_on,,0,0,10,,,,,,,,,,,,,,,,15,,57,48
1320,note_on,,1,0,7,,,,,,,,,,,,,,,,11,,63,48
1320,note_on,,1,0,8,,,,,,,,,,,,,,,,12,,57,48
1320,note_on,,1,0,9,,,,,,,,,,,,,,,,13,,47,48
1320,note_on,,1,0,6,,,,,,,,,,,,,,,,10,,66,48
1320,note_on,,0,0,10,,,,,,,,,,,,,,,,15,,54,48
1334,note_on,,14,0,6,,,,,,,,,,,,,,,,10,,66,0
1335,note_on,,1,0,6,,,,,,,,,,,,,,,,10,,68,48
1349,note_on,,14,0,6,,,,,,,,,,,,,,,,10,,68,0
1350,note_on,,1,0,6,,,,,,,,,,,,,,,,10,,66,48
1364,note_on,,14,0,6,,,,,,,,,,,,,,,,10,,66,0
1365,note_on,,1,0,6,,,,,,,,,,,,,,,,10,,68,48
1379,note_on,,59,0,9,,,,,,,,,,,,,,,,13,,47,0
1379,note_on,,59,0,7,,,,,,,,,,,,,,,,11,,63,0
1379,note_on,,59,0,8,,,,,,,,,,,,,,,,12,,57,0
1379,note_on,,14,0,6,,,,,,,,,,,,,,,,10,,68,0
1379,note_on,,59,0,10,,,,,,,,,,,,,,,,15,,47,0
1380,note_on,,1,0,6,,,,,,,,,,,,,,,,10,,66,48
1380,note_on,,1,0,9,,,,,,,,,,,,,,,,13,,47,48
1380,note_on,,1,0,10,,,,,,,,,,,,,,,,15,,47,48
1380,note_on,,1,0,7,,,,,,,,,,,,,,,,11,,63,48
1380,note_on,,1,0,8,,,,,,,,,,,,,,,,12,,57,48
1394,note_on,,14,0,6,,,,,,,,,,,,,,,,10,,66,0
1395,note_on,,1,0,6,,,,,,,,,,,,,,,,10,,68,48
1409,note_on,,14,0,6,,,,,,,,,,,,,,,,10,,68,0
1410,note_on,,1,0,6,,,,,,,,,,,,,,,,10,,66,48
1424,note_on,,14,0,6,,,,,,,,,,,,,,,,10,,66,0
1425,note_on,,1,0,6,,,,,,,,,,,,,,,,10,,64,48
1439,note_on,,59,0,10,,,,,,,,,,,,,,,,15,,63,0
1439,note_on,,0,0,10,,,,,,,,,,,,,,,,15,,57,0
1439,note_on,,14,0,6,,,,,,,,,,,,,,,,10,,64,0
1439,note_on,,0,0,10,,,,,,,,,,,,,,,,15,,54,0
1439,note_on,,59,0,9,,,,,,,,,,,,,,,,13,,47,0
1439,note_on,,59,0,8,,,,,,,,,,,,,,,,12,,57,0
1439,note_on,,0,0,10,,,,,,,,,,,,,,,,15,,47,0
1439,note_on,,59,0,7,,,,,,,,,,,,,,,,11,,63,0
1440,note_on,,1,0,8,,,,,,,,,,,,,,,,12,,56,48
1440,note_on,,1440,0,5,,,,,,,,,,,,,,,,7,,59,64
1440,note_on,,1,0,7,,,,,,,,,,,,,,,,11,,64,48
1440,note_on,,0,0,10,,,,,,,,,,,,,,,,15,,59,48
1440,note_on,,1,0,9,,,,,,,,,,,,,,,,13,,40,48
1440,note_on,,0,0,10,,,,,,,,,,,,,,,,15,,64,48
1440,note_on,,1,0,10,,,,,,,,,,,,,,,,15,,40,48
1440,note_on,,1,0,6,,,,,,,,,,,,,,,,10,,64,48
1440,note_on,,0,0,10,,,,,,,,,,,,,,,,15,,56,48
1529,note_on,,89,0,5,,,,,,,,,,,,,,,,7,,59,0
1530,note_on,,1,0,5,,,,,,,,,,,,,,,,7,,57,64
1559,note_on,,0,0,10,,,,,,,,,,,,,,,,15,,59,0
1559,note_on,,29,0,5,,,,,,,,,,,,,,,,7,,57,0
1559,note_on,,119,0,10,,,,,,,,,,,,,,,,15,,40,0
1559,note_on,,0,0,10,,,,,,,,,,,,,,,,15,,56,0
1559,note_on,,119,0,7,,,,,,,,,,,,,,,,11,,64,0
1559,note_on,,119,0,9,,,,,,,,,,,,,,,,13,,40,0
1559,note_on,,119,0,6,,,,,,,,,,,,,,,,10,,64,0
1559,note_on,,119,0,8,,,,,,,,,,,,,,,,12,,56,0
1559,note_on,,0,0,10,,,,,,,,,,,,,,,,15,,64,0
1560,note_on,,1,0,5,,,,,,,,,,,,,,,,7,,56,64
1679,note_on,,119,0,5,,,,,,,,,,,,,,,,7,,56,0
1680,note_on,,121,0,8,,,,,,,,,,,,,,,,12,,64,48
1680,note_on,,121,0,6,,,,,,,,,,,,,,,,10,,83,48
1680,note_on,,121,0,7,,,,,,,,,,,,,,,,11,,80,48
1769,note_on,,89,0,6,,,,,,,,,,,,,,,,10,,83,0
1769,note_on,,89,0,8,,,,,,,,,,,,,,,,12,,64,0
1769,note_on,,89,0,7,,,,,,,,,,,,,,,,11,,80,0
1770,note_on,,1,0,7,,,,,,,,,,,,,,,,11,,78,48
1770,note_on,,1,0,8,,,,,,,,,,,,,,,,12,,52,48
1770,note_on,,1,0,6,,,,,,,,,,,,,,,,10,,81,48
1799,note_on,,29,0,7,,,,,,,,,,,,,,,,11,,78,0
1799,note_on,,29,0,8,,,,,,,,,,,,,,,,12,,52,0
1799,note_on,,29,0,6,,,,,,,,,,,,,,,,10,,81,0
1800,note_on,,1,0,6,,,,,,,,,,,,,,,,10,,80,48
1800,note_on,,1,0,8,,,,,,,,,,,,,,,,12,,52,48
1800,note_on,,1,0,7,,,,,,,,,,,,,,,,11,,76,48
1919,note_on,,119,0,6,,,,,,,,,,,,,,,,10,,80,0
1919,note_on,,119,0,8,,,,,,,,,,,,,,,,12,,52,0
1919,note_on,,119,0,7,,,,,,,,,,,,,,,,11,,76,0
1920,note_on,,1,0,8,,,,,,,,,,,,,,,,12,,59,48
1920,note_on,,1,0,6,,,,,,,,,,,,,,,,10,,68,48
1920,note_on,,361,0,9,,,,,,,,,,,,,,,,13,,52,48
1920,note_on,,0,0,10,,,,,,,,,,,,,,,,15,,64,48
1920,note_on,,361,0,10,,,,,,,,,,,,,,,,15,,52,48
1920,note_on,,1,0,7,,,,,,,,,,,,,,,,11,,64,48
1920,note_on,,0,0,10,,,,,,,,,,,,,,,,15,,59,48
1920,note_on,,0,0,10,,,,,,,,,,,,,,,,15,,68,48
1949,note_on,,29,0,10,,,,,,,,,,,,,,,,15,,52,0
1949,note_on,,29,0,9,,,,,,,,,,,,,,,,13,,52,0
1949,note_on,,29,0,6,,,,,,,,,,,,,,,,10,,68,0
1949,note_on,,29,0,7,,,,,,,,,,,,,,,,11,,64,0
1949,note_on,,29,0,8,,,,,,,,,,,,,,,,12,,59,0
1980,note_on,,31,0,6,,,,,,,,,,,,,,,,10,,68,48
1980,note_on,,31,0,9,,,,,,,,,,,,,,,,13,,52,48
1980,note_on,,31,0,8,,,,,,,,,,,,,,,,12,,59,48
1980,note_on,,31,0,10,,,,,,,,,,,,,,,,15,,52,48
1980,note_on,,31,0,7,,,,,,,,,,,,,,,,11,,64,48
2009,note_on,,29,0,7,,,,,,,,,,,,,,,,11,,64,0
2009,note_on,,29,0,10,,,,,,,,,,,,,,,,15,,52,0
2009,note_on,,29,0,8,,,,,,,,,,,,,,,,12,,59,0
2009,note_on,,29,0,6,,,,,,,,,,,,,,,,10,,68,0
2009,note_on,,29,0,9,,,,,,,,,,,,,,,,13,,52,0
2040,note_on,,31,0,7,,,,,,,,,,,,,,,,11,,64,48
2040,note_on,,31,0,8,,,,,,,,,,,,,,,,12,,59,48
2040,note_on,,31,0,9,,,,,,,,,,,,,,,,13,,52,48
2040,note_on,,31,0,10,,,,,,,,,,,,,,,,15,,52,48
2040,note_on,,31,0,6,,,,,,,,,,,,,,,,10,,68,48
2069,note_on,,29,0,6,,,,,,,,,,,,,,,,10,,68,0
2069,note_on,,29,0,10,,,,,,,,,,,,,,,,15,,52,0
2069,note_on,,29,0,7,,,,,,,,,,,,,,,,11,,64,0
2069,note_on,,29,0,9,,,,,,,,,,,,,,,,13,,52,0
2069,note_on,,29,0,8,,,,,,,,,,,,,,,,12,,59,0
2100,note_on,,31,0,6,,,,,,,,,,,,,,,,10,,68,48
2100,note_on,,31,0,7,,,,,,,,,,,,,,,,11,,64,48
2100,note_on,,31,0,8,,,,,,,,,,,,,,,,12,,59,48
2100,note_on,,31,0,9,,,,,,,,,,,,,,,,13,,52,48
2100,note_on,,31,0,10,,,,,,,,,,,,,,,,15,,52,48
2129,note_on,,29,0,6,,,,,,,,,,,,,,,,10,,68,0
2129,note_on,,29,0,8,,,,,,,,,,,,,,,,12,,59,0
2129,note_on,,29,0,9,,,,,,,,,,,,,,,,13,,52,0
2129,note_on,,29,0,10,,,,,,,,,,,,,,,,15,,52,0
2129,note_on,,29,0,7,,,,,,,,,,,,,,,,11,,64,0
2159,note_on,,0,0,10,,,,,,,,,,,,,,,,15,,59,0
2159,note_on,,0,0,10,,,,,,,,,,,,,,,,15,,64,0
2159,note_on,,30,0,10,,,,,,,,,,,,,,,,15,,68,0
2160,note_on,,481,0,5,,,,,,,,,,,,,,,,7,,64,64
2160,note_on,,0,0,10,,,,,,,,,,,,,,,,15,,64,48
2160,note_on,,31,0,9,,,,,,,,,,,,,,,,13,,56,48
2160,note_on,,31,0,8,,,,,,,,,,,,,,,,12,,59,48
2160,note_on,,1,0,10,,,,,,,,,,,,,,,,15,,56,48
2160,note_on,,31,0,6,,,,,,,,,,,,,,,,10,,71,48
2160,note_on,,31,0,7,,,,,,,,,,,,,,,,11,,64,48
2160,note_on,,0,0,10,,,,,,,,,,,,,,,,15,,59,48
2189,note_on,,29,0,10,,,,,,,,,,,,,,,,15,,56,0
2189,note_on,,29,0,9,,,,,,,,,,,,,,,,13,,56,0
2219,note_on,,59,0,7,,,,,,,,,,,,,,,,11,,64,0
2219,note_on,,59,0,8,,,,,,,,,,,,,,,,12,,59,0
2220,note_on,,1,0,7,,,,,,,,,,,,,,,,11,,64,48
2220,note_on,,31,0,10,,,,,,,,,,,,,,,,15,,56,48
2220,note_on,,1,0,8,,,,,,,,,,,,,,,,12,,59,48
2220,note_on,,31,0,9,,,,,,,,,,,,,,,,13,,56,48
2249,note_on,,29,0,9,,,,,,,,,,,,,,,,13,,56,0
2249,note_on,,29,0,10,,,,,,,,,,,,,,,,15,,56,0
2279,note_on,,59,0,8,,,,,,,,,,,,,,,,12,,59,0
2279,note_on,,59,0,7,,,,,,,,,,,,,,,,11,,64,0
2280,note_on,,1,0,7,,,,,,,,,,,,,,,,11,,64,48
2280,note_on,,31,0,10,,,,,,,,,,,,,,,,15,,56,48
2280,note_on,,31,0,9,,,,,,,,,,,,,,,,13,,56,48
2280,note_on,,1,0,8,,,,,,,,,,,,,,,,12,,59,48
2309,note_on,,29,0,10,,,,,,,,,,,,,,,,15,,56,0
2309,note_on,,29,0,9,,,,,,,,,,,,,,,,13,,56,0
2339,note_on,,59,0,8,,,,,,,,,,,,,,,,12,,59,0
2339,note_on,,59,0,7,,,,,,,,,,,,,,,,11,,64,0
2340,note_on,,1,0,7,,,,,,,,,,,,,,,,11,,64,48
2340,note_on,,31,0,10,,,,,,,,,,,,,,,,15,,56,48
2340,note_on,,31,0,9,,,,,,,,,,,,,,,,13,,56,48
2340,note_on,,1,0,8,,,,,,,,,,,,,,,,12,,59,48
2369,note_on,,29,0,10,,,,,,,,,,,,,,,,15,,56,0
2369,note_on,,29,0,9,,,,,,,,,,,,,,,,13,,56,0
2369,note_on,,209,0,6,,,,,,,,,,,,,,,,10,,71,0
2370,note_on,,1,0,6,,,,,,,,,,,,,,,,10,,69,48
2384,note_on,,14,0,6,,,,,,,,,,,,,,,,10,,69,0
2385,note_on,,1,0,6,,,,,,,,,,,,,,,,10,,68,48
2399,note_on,,59,0,8,,,,,,,,,,,,,,,,12,,59,0
2399,note_on,,30,0,10,,,,,,,,,,,,,,,,15,,64,0
2399,note_on,,14,0,6,,,,,,,,,,,,,,,,10,,68,0
2399,note_on,,59,0,7,,,,,,,,,,,,,,,,11,,64,0
2399,note_on,,0,0,10,,,,,,,,,,,,,,,,15,,59,0
2400,note_on,,1,0,7,,,,,,,,,,,,,,,,11,,64,48
2400,note_on,,0,0,10,,,,,,,,,,,,,,,,15,,66,48
2400,note_on,,1,0,10,,,,,,,,,,,,,,,,15,,59,48
2400,note_on,,0,0,10,,,,,,,,,,,,,,,,15,,64,48
2400,note_on,,1,0,8,,,,,,,,,,,,,,,,12,,59,48
2400,note_on,,1,0,6,,,,,,,,,,,,,,,,10,,66,48
2400,note_on,,31,0,9,,,,,,,,,,,,,,,,13,,59,48
2459,note_on,,59,0,9,,,,,,,,,,,,,,,,13,,59,0
2459,note_on,,59,0,7,,,,,,,,,,,,,,,,11,,64,0
2459,note_on,,59,0,10,,,,,,,,,,,,,,,,15,,59,0
2459,note_on,,59,0,8,,,,,,,,,,,,,,,,12,,59,0
2459,note_on,,59,0,6,,,,,,,,,,,,,,,,10,,66,0
2460,note_on,,1,0,8,,,,,,,,,,,,,,,,12,,59,48
2460,note_on,,1,0,6,,,,,,,,,,,,,,,,10,,66,48
2460,note_on,,1,0,9,,,,,,,,,,,,,,,,13,,59,48
2460,note_on,,1,0,7,,,,,,,,,,,,,,,,11,,64,48
2460,note_on,,1,0,10,,,,,,,,,,,,,,,,15,,59,48
2519,note_on,,59,0,10,,,,,,,,,,,,,,,,15,,59,0
2519,note_on,,59,0,8,,,,,,,,,,,,,,,,12,,59,0
2519,note_on,,59,0,7,,,,,,,,,,,,,,,,11,,64,0
2519,note_on,,59,0,6,,,,,,,,,,,,,,,,10,,66,0
2519,note_on,,59,0,9,,,,,,,,,,,,,,,,13,,59,0
2520,note_on,,1,0,7,,,,,,,,,,,,,,,,11,,64,48
2520,note_on,,1,0,6,,,,,,,,,,,,,,,,10,,66,48
2520,note_on,,1,0,9,,,,,,,,,,,,,,,,13,,59,48
2520,note_on,,1,0,10,,,,,,,,,,,,,,,,15,,59,48
2520,note_on,,1,0,8,,,,,,,,,,,,,,,,12,,59,48
2579,note_on,,59,0,7,,,,,,,,,,,,,,,,11,,64,0
2579,note_on,,59,0,9,,,,,,,,,,,,,,,,13,,59,0
2579,note_on,,59,0,10,,,,,,,,,,,,,,,,15,,59,0
2579,note_on,,59,0,6,,,,,,,,,,,,,,,,10,,66,0
2579,note_on,,419,0,5,,,,,,,,,,,,,,,,7,,64,0
2579,note_on,,59,0,8,,,,,,,,,,,,,,,,12,,59,0
2580,note_on,,1,0,9,,,,,,,,,,,,,,,,13,,59,48
2580,note_on,,1,0,7,,,,,,,,,,,,,,,,11,,64,48
2580,note_on,,1,0,5,,,,,,,,,,,,,,,,7,,66,64
2580,note_on,,1,0,6,,,,,,,,,,,,,,,,10,,66,48
2580,note_on,,1,0,8,,,,,,,,,,,,,,,,12,,59,48
2580,note_on,,1,0,10,,,,,,,,,,,,,,,,15,,59,48
2609,note_on,,29,0,5,,,,,,,,,,,,,,,,7,,66,0
2610,note_on,,1,0,5,,,,,,,,,,,,,,,,7,,68,64
2639,note_on,,59,0,7,,,,,,,,,,,,,,,,11,,64,0
2639,note_on,,59,0,8,,,,,,,,,,,,,,,,12,,59,0
2639,note_on,,0,0,10,,,,,,,,,,,,,,,,15,,59,0
2639,note_on,,0,0,10,,,,,,,,,,,,,,,,15,,64,0
2639,note_on,,59,0,10,,,,,,,,,,,,,,,,15,,66,0
2639,note_on,,59,0,6,,,,,,,,,,,,,,,,10,,66,0
2639,note_on,,29,0,5,,,,,,,,,,,,,,,,7,,68,0
2639,note_on,,59,0,9,,,,,,,,,,,,,,,,13,,59,0
2640,note_on,,1,0,7,,,,,,,,,,,,,,,,11,,64,48
2640,note_on,,1,0,9,,,,,,,,,,,,,,,,13,,59,48
2640,note_on,,1,0,8,,,,,,,,,,,,,,,,12,,59,48
2640,note_on,,1,0,5,,,,,,,,,,,,,,,,7,,59,64
2640,note_on,,1,0,10,,,,,,,,,,,,,,,,15,,59,48
2640,note_on,,0,0,10,,,,,,,,,,,,,,,,15,,71,48
2640,note_on,,0,0,10,,,,,,,,,,,,,,,,15,,66,48
2640,note_on,,0,0,10,,,,,,,,,,,,,,,,15,,63,48
2640,note_on,,1,0,6,,,,,,,,,,,,,,,,10,,66,48
2699,note_on,,59,0,9,,,,,,,,,,,,,,,,13,,59,0
2699,note_on,,59,0,6,,,,,,,,,,,,,,,,10,,66,0
2699,note_on,,59,0,8,,,,,,,,,,,,,,,,12,,59,0
2699,note_on,,59,0,10,,,,,,,,,,,,,,,,15,,59,0
2699,note_on,,59,0,7,,,,,,,,,,,,,,,,11,,64,0
2700,note_on,,1,0,10,,,,,,,,,,,,,,,,15,,59,48
2700,note_on,,1,0,8,,,,,,,,,,,,,,,,12,,59,48
2700,note_on,,1,0,9,,,,,,,,,,,,,,,,13,,59,48
2700,note_on,,1,0,7,,,,,,,,,,,,,,,,11,,64,48
2700,note_on,,1,0,6,,,,,,,,,,,,,,,,10,,66,48
2759,note_on,,59,0,6,,,,,,,,,,,,,,,,10,,66,0
2759,note_on,,59,0,8,,,,,,,,,,,,,,,,12,,59,0
2759,note_on,,59,0,9,,,,,,,,,,,,,,,,13,,59,0
2759,note_on,,59,0,7,,,,,,,,,,,,,,,,11,,64,0
2759,note_on,,59,0,10,,,,,,,,,,,,,,,,15,,59,0
2759,note_on,,119,0,5,,,,,,,,,,,,,,,,7,,59,0
2760,note_on,,1,0,10,,,,,,,,,,,,,,,,15,,47,48
2760,note_on,,1,0,7,,,,,,,,,,,,,,,,11,,63,48
2760,note_on,,1,0,6,,,,,,,,,,,,,,,,10,,71,48
2760,note_on,,1,0,8,,,,,,,,,,,,,,,,12,,66,48
2760,note_on,,1,0,9,,,,,,,,,,,,,,,,13,,47,48
2760,note_on,,1,0,5,,,,,,,,,,,,,,,,7,,57,64
2819,note_on,,59,0,8,,,,,,,,,,,,,,,,12,,66,0
2819,note_on,,59,0,10,,,,,,,,,,,,,,,,15,,47,0
2819,note_on,,59,0,9,,,,,,,,,,,,,,,,13,,47,0
2819,note_on,,59,0,6,,,,,,,,,,,,,,,,10,,71,0
2819,note_on,,59,0,7,,,,,,,,,,,,,,,,11,,63,0
2820,note_on,,1,0,9,,,,,,,,,,,,,,,,13,,47,48
2820,note_on,,1,0,6,,,,,,,,,,,,,,,,10,,71,48
2820,note_on,,1,0,7,,,,,,,,,,,,,,,,11,,63,48
2820,note_on,,1,0,10,,,,,,,,,,,,,,,,15,,47,48
2820,note_on,,1,0,8,,,,,,,,,,,,,,,,12,,66,48
2849,note_on,,89,0,5,,,,,,,,,,,,,,,,7,,57,0
2850,note_on,,1,0,5,,,,,,,,,,,,,,,,7,,56,64
2879,note_on,,0,0,10,,,,,,,,,,,,,,,,15,,63,0
2879,note_on,,0,0,10,,,,,,,,,,,,,,,,15,,47,0
2879,note_on,,59,0,7,,,,,,,,,,,,,,,,11,,63,0
2879,note_on,,59,0,8,,,,,,,,,,,,,,,,12,,66,0
2879,note_on,,59,0,10,,,,,,,,,,,,,,,,15,,71,0
2879,note_on,,29,0,5,,,,,,,,,,,,,,,,7,,56,0
2879,note_on,,59,0,6,,,,,,,,,,,,,,,,10,,71,0
2879,note_on,,0,0,10,,,,,,,,,,,,,,,,15,,66,0
2879,note_on,,59,0,9,,,,,,,,,,,,,,,,13,,47,0
2880,note_on,,1,0,5,,,,,,,,,,,,,,,,7,,56,64
2880,note_on,,0,0,10,,,,,,,,,,,,,,,,15,,71,48
2880,note_on,,1,0,8,,,,,,,,,,,,,,,,12,,64,48
2880,note_on,,0,0,10,,,,,,,,,,,,,,,,15,,59,48
2880,note_on,,0,0,10,,,,,,,,,,,,,,,,15,,64,48
2880,note_on,,0,0,10,,,,,,,,,,,,,,,,15,,68,48
2880,note_on,,1,0,9,,,,,,,,,,,,,,,,13,,52,48
2880,note_on,,1,0,7,,,,,,,,,,,,,,,,11,,68,48
2880,note_on,,1,0,6,,,,,,,,,,,,,,,,10,,71,48
2880,note_on,,1,0,10,,,,,,,,,,,,,,,,15,,52,48
2909,note_on,,29,0,5,,,,,,,,,,,,,,,,7,,56,0
2910,note_on,,1,0,5,,,,,,,,,,,,,,,,7,,54,64
2939,note_on,,29,0,5,,,,,,,,,,,,,,,,7,,54,0
2940,note_on,,1,0,5,,,,,,,,,,,,,,,,7,,52,64
2969,note_on,,89,0,7,,,,,,,,,,,,,,,,11,,68,0
2969,note_on,,89,0,6,,,,,,,,,,,,,,,,10,,71,0
2969,note_on,,89,0,9,,,,,,,,,,,,,,,,13,,52,0
2969,note_on,,89,0,8,,,,,,,,,,,,,,,,12,,64,0
2969,note_on,,89,0,10,,,,,,,,,,,,,,,,15,,52,0
2970,note_on,,1,0,9,,,,,,,,,,,,,,,,13,,40,48
2970,note_on,,1,0,7,,,,,,,,,,,,,,,,11,,66,48
2970,note_on,,1,0,10,,,,,,,,,,,,,,,,15,,40,48
2970,note_on,,1,0,6,,,,,,,,,,,,,,,,10,,69,48
2970,note_on,,1,0,8,,,,,,,,,,,,,,,,12,,59,48
2999,note_on,,29,0,9,,,,,,,,,,,,,,,,13,,40,0
2999,note_on,,29,0,7,,,,,,,,,,,,,,,,11,,66,0
2999,note_on,,29,0,6,,,,,,,,,,,,,,,,10,,69,0
2999,note_on,,29,0,10,,,,,,,,,,,,,,,,15,,40,0
2999,note_on,,59,0,5,,,,,,,,,,,,,,,,7,,52,0
2999,note_on,,29,0,8,,,,,,,,,,,,,,,,12,,59,0
3000,note_on,,1,0,9,,,,,,,,,,,,,,,,13,,40,48
3000,note_on,,1,0,7,,,,,,,,,,,,,,,,11,,64,48
3000,note_on,,1,0,10,,,,,,,,,,,,,,,,15,,40,48
3000,note_on,,1,0,8,,,,,,,,,,,,,,,,12,,59,48
3000,note_on,,1,0,6,,,,,,,,,,,,,,,,10,,68,48
3119,note_on,,0,0,10,,,,,,,,,,,,,,,,15,,40,0
3119,note_on,,119,0,7,,,,,,,,,,,,,,,,11,,64,0
3119,note_on,,0,0,10,,,,,,,,,,,,,,,,15,,64,0
3119,note_on,,0,0,10,,,,,,,,,,,,,,,,15,,59,0
3119,note_on,,0,0,10,,,,,,,,,,,,,,,,15,,68,0
3119,note_on,,119,0,8,,,,,,,,,,,,,,,,12,,59,0
3119,note_on,,119,0,10,,,,,,,,,,,,,,,,15,,71,0
3119,note_on,,119,0,6,,,,,,,,,,,,,,,,10,,68,0
3119,note_on,,119,0,9,,,,,,,,,,,,,,,,13,,40,0
3120,note_on,,1,0,8,,,,,,,,,,,,,,,,12,,64,48
3120,note_on,,1,0,6,,,,,,,,,,,,,,,,10,,80,48
3120,note_on,,1,0,7,,,,,,,,,,,,,,,,11,,71,48
3209,note_on,,89,0,8,,,,,,,,,,,,,,,,12,,64,0
3209,note_on,,89,0,6,,,,,,,,,,,,,,,,10,,80,0
3209,note_on,,89,0,7,,,,,,,,,,,,,,,,11,,71,0
3210,note_on,,1,0,8,,,,,,,,,,,,,,,,12,,52,48
3210,note_on,,1,0,6,,,,,,,,,,,,,,,,10,,78,48
3210,note_on,,1,0,7,,,,,,,,,,,,,,,,11,,69,48
3239,note_on,,29,0,7,,,,,,,,,,,,,,,,11,,69,0
3239,note_on,,29,0,8,,,,,,,,,,,,,,,,12,,52,0
3239,note_on,,29,0,6,,,,,,,,,,,,,,,,10,,78,0
3240,note_on,,1,0,6,,,,,,,,,,,,,,,,10,,76,48
3240,note_on,,1,0,8,,,,,,,,,,,,,,,,12,,52,48
3240,note_on,,1,0,7,,,,,,,,,,,,,,,,11,,68,48
3359,note_on,,119,0,8,,,,,,,,,,,,,,,,12,,52,0
3359,note_on,,119,0,6,,,,,,,,,,,,,,,,10,,76,0
3359,note_on,,119,0,7,,,,,,,,,,,,,,,,11,,68,0
3360,note_on,,361,0,5,,,,,,,,,,,,,,,,7,,64,64
3360,set_tempo,,3360,1,0,,,,,,,,,2400000,,,,,,,,,,
3479,note_on,,119,0,5,,,,,,,,,,,,,,,,7,,64,0
3480,note_on,,1,0,5,,,,,,,,,,,,,,,,7,,64,69
3509,note_on,,29,0,5,,,,,,,,,,,,,,,,7,,64,0
3510,note_on,,1,0,5,,,,,,,,,,,,,,,,7,,63,70
3539,note_on,,29,0,5,,,,,,,,,,,,,,,,7,,63,0
3540,note_on,,1,0,5,,,,,,,,,,,,,,,,7,,68,72
3569,note_on,,29,0,5,,,,,,,,,,,,,,,,7,,68,0
3570,note_on,,1,0,5,,,,,,,,,,,,,,,,7,,66,73
3599,note_on,,29,0,5,,,,,,,,,,,,,,,,7,,66,0
3600,note_on,,1,0,5,,,,,,,,,,,,,,,,7,,64,74
3660,set_tempo,,300,1,0,,,,,,,,,1090909,,,,,,,,,,
3689,note_on,,89,0,5,,,,,,,,,,,,,,,,7,,64,0
3690,note_on,,1,0,5,,,,,,,,,,,,,,,,7,,59,72
3719,note_on,,29,0,5,,,,,,,,,,,,,,,,7,,59,0
3720,note_on,,1,0,5,,,,,,,,,,,,,,,,7,,59,64
3839,note_on,,119,0,5,,,,,,,,,,,,,,,,7,,59,0
3840,note_on,,481,0,8,,,,,,,,,,,,,,,,12,,59,48
3840,note_on,,481,0,7,,,,,,,,,,,,,,,,11,,64,48
3840,note_on,,481,0,6,,,,,,,,,,,,,,,,10,,68,48
3840,note_on,,721,0,9,,,,,,,,,,,,,,,,13,,52,48
3840,note_on,,0,0,10,,,,,,,,,,,,,,,,15,,64,48
3840,note_on,,0,0,10,,,,,,,,,,,,,,,,15,,59,48
3840,note_on,,0,0,10,,,,,,,,,,,,,,,,15,,68,48
3840,note_on,,721,0,10,,,,,,,,,,,,,,,,15,,52,48
3899,note_on,,59,0,9,,,,,,,,,,,,,,,,13,,52,0
3899,note_on,,59,0,6,,,,,,,,,,,,,,,,10,,68,0
3899,note_on,,59,0,10,,,,,,,,,,,,,,,,15,,52,0
3899,note_on,,59,0,7,,,,,,,,,,,,,,,,11,,64,0
3899,note_on,,59,0,8,,,,,,,,,,,,,,,,12,,59,0
3900,note_on,,1,0,6,,,,,,,,,,,,,,,,10,,68,48
3900,note_on,,1,0,8,,,,,,,,,,,,,,,,12,,59,48
3900,note_on,,1,0,7,,,,,,,,,,,,,,,,11,,64,48
3900,note_on,,1,0,10,,,,,,,,,,,,,,,,15,,52,48
3900,note_on,,1,0,9,,,,,,,,,,,,,,,,13,,52,48
3959,note_on,,59,0,7,,,,,,,,,,,,,,,,11,,64,0
3959,note_on,,59,0,6,,,,,,,,,,,,,,,,10,,68,0
3959,note_on,,59,0,8,,,,,,,,,,,,,,,,12,,59,0
3959,note_on,,59,0,10,,,,,,,,,,,,,,,,15,,52,0
3959,note_on,,59,0,9,,,,,,,,,,,,,,,,13,,52,0
3960,note_on,,1,0,6,,,,,,,,,,,,,,,,10,,68,48
3960,note_on,,1,0,8,,,,,,,,,,,,,,,,12,,59,48
3960,note_on,,1,0,10,,,,,,,,,,,,,,,,15,,52,48
3960,note_on,,1,0,7,,,,,,,,,,,,,,,,11,,64,48
3960,note_on,,1,0,9,,,,,,,,,,,,,,,,13,,52,48
4019,note_on,,59,0,9,,,,,,,,,,,,,,,,13,,52,0
4019,note_on,,59,0,6,,,,,,,,,,,,,,,,10,,68,0
4019,note_on,,59,0,7,,,,,,,,,,,,,,,,11,,64,0
4019,note_on,,59,0,10,,,,,,,,,,,,,,,,15,,52,0
4019,note_on,,59,0,8,,,,,,,,,,,,,,,,12,,59,0
4020,note_on,,1,0,9,,,,,,,,,,,,,,,,13,,52,48
4020,note_on,,1,0,6,,,,,,,,,,,,,,,,10,,68,48
4020,note_on,,1,0,7,,,,,,,,,,,,,,,,11,,64,48
4020,note_on,,1,0,10,,,,,,,,,,,,,,,,15,,52,48
4020,note_on,,1,0,8,,,,,,,,,,,,,,,,12,,59,48
4079,note_on,,59,0,9,,,,,,,,,,,,,,,,13,,52,0
4079,note_on,,59,0,8,,,,,,,,,,,,,,,,12,,59,0
4079,note_on,,59,0,7,,,,,,,,,,,,,,,,11,,64,0
4079,note_on,,59,0,10,,,,,,,,,,,,,,,,15,,64,0
4079,note_on,,59,0,6,,,,,,,,,,,,,,,,10,,68,0
4079,note_on,,0,0,10,,,,,,,,,,,,,,,,15,,68,0
4079,note_on,,0,0,10,,,,,,,,,,,,,,,,15,,59,0
4079,note_on,,0,0,10,,,,,,,,,,,,,,,,15,,52,0
4080,note_on,,1,0,8,,,,,,,,,,,,,,,,12,,59,48
4080,note_on,,1,0,6,,,,,,,,,,,,,,,,10,,71,48
4080,note_on,,0,0,10,,,,,,,,,,,,,,,,15,,71,48
4080,note_on,,241,0,5,,,,,,,,,,,,,,,,7,,64,64
4080,note_on,,1,0,9,,,,,,,,,,,,,,,,13,,56,48
4080,note_on,,0,0,10,,,,,,,,,,,,,,,,15,,64,48
4080,note_on,,0,0,10,,,,,,,,,,,,,,,,15,,59,48
4080,note_on,,1,0,7,,,,,,,,,,,,,,,,11,,64,48
4080,note_on,,1,0,10,,,,,,,,,,,,,,,,15,,56,48
4139,note_on,,59,0,7,,,,,,,,,,,,,,,,11,,64,0
4139,note_on,,59,0,8,,,,,,,,,,,,,,,,12,,59,0
4139,note_on,,59,0,10,,,,,,,,,,,,,,,,15,,56,0
4139,note_on,,59,0,6,,,,,,,,,,,,,,,,10,,71,0
4139,note_on,,59,0,9,,,,,,,,,,,,,,,,13,,56,0
4140,note_on,,1,0,7,,,,,,,,,,,,,,,,11,,64,48
4140,note_on,,1,0,8,,,,,,,,,,,,,,,,12,,59,48
4140,note_on,,1,0,10,,,,,,,,,,,,,,,,15,,56,48
4140,note_on,,1,0,6,,,,,,,,,,,,,,,,10,,71,48
4140,note_on,,1,0,9,,,,,,,,,,,,,,,,13,,56,48
4199,note_on,,59,0,10,,,,,,,,,,,,,,,,15,,56,0
4199,note_on,,59,0,6,,,,,,,,,,,,,,,,10,,71,0
4199,note_on,,59,0,7,,,,,,,,,,,,,,,,11,,64,0
4199,note_on,,59,0,8,,,,,,,,,,,,,,,,12,,59,0
4199,note_on,,59,0,9,,,,,,,,,,,,,,,,13,,56,0
4200,note_on,,1,0,8,,,,,,,,,,,,,,,,12,,59,48
4200,note_on,,1,0,7,,,,,,,,,,,,,,,,11,,64,48
4200,note_on,,1,0,10,,,,,,,,,,,,,,,,15,,56,48
4200,note_on,,1,0,6,,,,,,,,,,,,,,,,10,,71,48
4200,note_on,,1,0,9,,,,,,,,,,,,,,,,13,,56,48
4259,note_on,,59,0,9,,,,,,,,,,,,,,,,13,,56,0
4259,note_on,,59,0,10,,,,,,,,,,,,,,,,15,,56,0
4259,note_on,,59,0,7,,,,,,,,,,,,,,,,11,,64,0
4259,note_on,,59,0,8,,,,,,,,,,,,,,,,12,,59,0
4259,note_on,,59,0,6,,,,,,,,,,,,,,,,10,,71,0
4260,note_on,,1,0,9,,,,,,,,,,,,,,,,13,,56,48
4260,note_on,,1,0,7,,,,,,,,,,,,,,,,11,,64,48
4260,note_on,,1,0,8,,,,,,,,,,,,,,,,12,,59,48
4260,note_on,,1,0,10,,,,,,,,,,,,,,,,15,,56,48
4260,note_on,,1,0,6,,,,,,,,,,,,,,,,10,,71,48
4319,note_on,,59,0,6,,,,,,,,,,,,,,,,10,,71,0
4319,note_on,,0,0,10,,,,,,,,,,,,,,,,15,,56,0
4319,note_on,,0,0,10,,,,,,,,,,,,,,,,15,,59,0
4319,note_on,,59,0,7,,,,,,,,,,,,,,,,11,,64,0
4319,note_on,,59,0,8,,,,,,,,,,,,,,,,12,,59,0
4319,note_on,,0,0,10,,,,,,,,,,,,,,,,15,,64,0
4319,note_on,,59,0,10,,,,,,,,,,,,,,,,15,,71,0
4319,note_on,,59,0,9,,,,,,,,,,,,,,,,13,,56,0
4320,note_on,,0,0,10,,,,,,,,,,,,,,,,15,,52,48
4320,note_on,,0,0,10,,,,,,,,,,,,,,,,15,,64,48
4320,note_on,,0,0,10,,,,,,,,,,,,,,,,15,,71,48
4320,note_on,,0,0,10,,,,,,,,,,,,,,,,15,,76,48
4320,note_on,,1,0,10,,,,,,,,,,,,,,,,15,,49,48
4320,note_on,,1,0,6,,,,,,,,,,,,,,,,10,,71,48
4320,note_on,,1,0,9,,,,,,,,,,,,,,,,13,,49,48
4320,note_on,,1,0,7,,,,,,,,,,,,,,,,11,,76,48
4320,note_on,,1,0,8,,,,,,,,,,,,,,,,12,,61,48
4379,note_on,,59,0,10,,,,,,,,,,,,,,,,15,,49,0
4379,note_on,,59,0,8,,,,,,,,,,,,,,,,12,,61,0
4379,note_on,,59,0,7,,,,,,,,,,,,,,,,11,,76,0
4379,note_on,,59,0,9,,,,,,,,,,,,,,,,13,,49,0
4379,note_on,,59,0,6,,,,,,,,,,,,,,,,10,,71,0
4380,note_on,,1,0,6,,,,,,,,,,,,,,,,10,,71,48
4380,note_on,,1,0,10,,,,,,,,,,,,,,,,15,,49,48
4380,note_on,,1,0,8,,,,,,,,,,,,,,,,12,,61,48
4380,note_on,,1,0,7,,,,,,,,,,,,,,,,11,,76,48
4380,note_on,,1,0,9,,,,,,,,,,,,,,,,13,,49,48
4439,note_on,,59,0,9,,,,,,,,,,,,,,,,13,,49,0
4439,note_on,,59,0,6,,,,,,,,,,,,,,,,10,,71,0
4439,note_on,,59,0,8,,,,,,,,,,,,,,,,12,,61,0
4439,note_on,,59,0,7,,,,,,,,,,,,,,,,11,,76,0
4439,note_on,,59,0,10,,,,,,,,,,,,,,,,15,,49,0
4440,note_on,,1,0,10,,,,,,,,,,,,,,,,15,,49,48
4440,note_on,,1,0,6,,,,,,,,,,,,,,,,10,,71,48
4440,note_on,,1,0,7,,,,,,,,,,,,,,,,11,,76,48
4440,note_on,,1,0,9,,,,,,,,,,,,,,,,13,,49,48
4440,note_on,,1,0,8,,,,,,,,,,,,,,,,12,,61,48
4499,note_on,,59,0,7,,,,,,,,,,,,,,,,11,,76,0
4499,note_on,,419,0,5,,,,,,,,,,,,,,,,7,,64,0
4499,note_on,,59,0,10,,,,,,,,,,,,,,,,15,,49,0
4499,note_on,,59,0,6,,,,,,,,,,,,,,,,10,,71,0
4499,note_on,,59,0,9,,,,,,,,,,,,,,,,13,,49,0
4499,note_on,,59,0,8,,,,,,,,,,,,,,,,12,,61,0
4500,note_on,,1,0,6,,,,,,,,,,,,,,,,10,,71,48
4500,note_on,,1,0,8,,,,,,,,,,,,,,,,12,,61,48
4500,note_on,,1,0,7,,,,,,,,,,,,,,,,11,,76,48
4500,note_on,,1,0,5,,,,,,,,,,,,,,,,7,,63,64
4500,note_on,,1,0,9,,,,,,,,,,,,,,,,13,,49,48
4500,note_on,,1,0,10,,,,,,,,,,,,,,,,15,,49,48
4559,note_on,,0,0,10,,,,,,,,,,,,,,,,15,,64,0
4559,note_on,,59,0,6,,,,,,,,,,,,,,,,10,,71,0
4559,note_on,,59,0,7,,,,,,,,,,,,,,,,11,,76,0
4559,note_on,,59,0,10,,,,,,,,,,,,,,,,15,,76,0
4559,note_on,,0,0,10,,,,,,,,,,,,,,,,15,,71,0
4559,note_on,,59,0,9,,,,,,,,,,,,,,,,13,,49,0
4559,note_on,,0,0,10,,,,,,,,,,,,,,,,15,,52,0
4559,note_on,,59,0,8,,,,,,,,,,,,,,,,12,,61,0
4559,note_on,,59,0,5,,,,,,,,,,,,,,,,7,,63,0
4559,note_on,,0,0,10,,,,,,,,,,,,,,,,15,,49,0
4560,note_on,,1,0,5,,,,,,,,,,,,,,,,7,,64,64
4560,note_on,,1,0,9,,,,,,,,,,,,,,,,13,,49,48
4560,note_on,,1,0,10,,,,,,,,,,,,,,,,15,,49,48
4560,note_on,,1,0,8,,,,,,,,,,,,,,,,12,,61,48
4560,note_on,,0,0,10,,,,,,,,,,,,,,,,15,,52,48
4560,note_on,,0,0,10,,,,,,,,,,,,,,,,15,,64,48
4560,note_on,,0,0,10,,,,,,,,,,,,,,,,15,,70,48
4560,note_on,,0,0,10,,,,,,,,,,,,,,,,15,,73,48
4560,note_on,,1,0,6,,,,,,,,,,,,,,,,10,,70,48
4560,note_on,,1,0,7,,,,,,,,,,,,,,,,11,,76,48
4619,note_on,,59,0,7,,,,,,,,,,,,,,,,11,,76,0
4619,note_on,,59,0,6,,,,,,,,,,,,,,,,10,,70,0
4619,note_on,,59,0,8,,,,,,,,,,,,,,,,12,,61,0
4619,note_on,,59,0,10,,,,,,,,,,,,,,,,15,,49,0
4619,note_on,,59,0,9,,,,,,,,,,,,,,,,13,,49,0
4620,note_on,,1,0,7,,,,,,,,,,,,,,,,11,,76,48
4620,note_on,,1,0,8,,,,,,,,,,,,,,,,12,,61,48
4620,note_on,,1,0,9,,,,,,,,,,,,,,,,13,,49,48
4620,note_on,,1,0,10,,,,,,,,,,,,,,,,15,,49,48
4620,note_on,,1,0,6,,,,,,,,,,,,,,,,10,,70,48
4679,note_on,,59,0,7,,,,,,,,,,,,,,,,11,,76,0
4679,note_on,,59,0,8,,,,,,,,,,,,,,,,12,,61,0
4679,note_on,,59,0,6,,,,,,,,,,,,,,,,10,,70,0
4679,note_on,,59,0,9,,,,,,,,,,,,,,,,13,,49,0
4679,note_on,,59,0,10,,,,,,,,,,,,,,,,15,,49,0
4680,note_on,,1,0,9,,,,,,,,,,,,,,,,13,,49,48
4680,note_on,,1,0,7,,,,,,,,,,,,,,,,11,,76,48
4680,note_on,,1,0,10,,,,,,,,,,,,,,,,15,,49,48
4680,note_on,,1,0,8,,,,,,,,,,,,,,,,12,,61,48
4680,note_on,,1,0,6,,,,,,,,,,,,,,,,10,,70,48
4739,note_on,,59,0,9,,,,,,,,,,,,,,,,13,,49,0
4739,note_on,,59,0,6,,,,,,,,,,,,,,,,10,,70,0
4739,note_on,,59,0,8,,,,,,,,,,,,,,,,12,,61,0
4739,note_on,,59,0,10,,,,,,,,,,,,,,,,15,,49,0
4739,note_on,,59,0,7,,,,,,,,,,,,,,,,11,,76,0
4739,note_on,,179,0,5,,,,,,,,,,,,,,,,7,,64,0
4740,note_on,,1,0,5,,,,,,,,,,,,,,,,7,,66,64
4740,note_on,,1,0,8,,,,,,,,,,,,,,,,12,,61,48
4740,note_on,,1,0,9,,,,,,,,,,,,,,,,13,,49,48
4740,note_on,,1,0,10,,,,,,,,,,,,,,,,15,,49,48
4740,note_on,,1,0,6,,,,,,,,,,,,,,,,10,,70,48
4740,note_on,,1,0,7,,,,,,,,,,,,,,,,11,,76,48
4799,note_on,,59,0,9,,,,,,,,,,,,,,,,13,,49,0
4799,note_on,,59,0,7,,,,,,,,,,,,,,,,11,,76,0
4799,note_on,,59,0,5,,,,,,,,,,,,,,,,7,,66,0
4799,note_on,,59,0,6,,,,,,,,,,,,,,,,10,,70,0
4799,note_on,,0,0,10,,,,,,,,,,,,,,,,15,,49,0
4799,note_on,,59,0,8,,,,,,,,,,,,,,,,12,,61,0
4799,note_on,,0,0,10,,,,,,,,,,,,,,,,15,,52,0
4799,note_on,,59,0,10,,,,,,,,,,,,,,,,15,,73,0
4799,note_on,,0,0,10,,,,,,,,,,,,,,,,15,,64,0
4799,note_on,,0,0,10,,,,,,,,,,,,,,,,15,,70,0
4800,note_on,,1,0,6,,,,,,,,,,,,,,,,10,,71,48
4800,note_on,,1,0,8,,,,,,,,,,,,,,,,12,,63,48
4800,note_on,,0,0,10,,,,,,,,,,,,,,,,15,,75,48
4800,note_on,,1,0,9,,,,,,,,,,,,,,,,13,,47,48
4800,note_on,,1,0,10,,,,,,,,,,,,,,,,15,,47,48
4800,note_on,,0,0,10,,,,,,,,,,,,,,,,15,,71,48
4800,note_on,,0,0,10,,,,,,,,,,,,,,,,15,,59,48
4800,note_on,,1,0,7,,,,,,,,,,,,,,,,11,,66,48
4800,note_on,,0,0,10,,,,,,,,,,,,,,,,15,,66,48
4800,note_on,,1,0,5,,,,,,,,,,,,,,,,7,,63,64
4829,note_on,,29,0,5,,,,,,,,,,,,,,,,7,,63,0
4830,note_on,,1,0,5,,,,,,,,,,,,,,,,7,,61,64
4859,note_on,,59,0,8,,,,,,,,,,,,,,,,12,,63,0
4859,note_on,,59,0,7,,,,,,,,,,,,,,,,11,,66,0
4859,note_on,,59,0,6,,,,,,,,,,,,,,,,10,,71,0
4859,note_on,,29,0,5,,,,,,,,,,,,,,,,7,,61,0
4860,note_on,,1,0,8,,,,,,,,,,,,,,,,12,,63,48
4860,note_on,,1,0,5,,,,,,,,,,,,,,,,7,,59,64
4860,note_on,,1,0,6,,,,,,,,,,,,,,,,10,,71,48
4860,note_on,,1,0,7,,,,,,,,,,,,,,,,11,,66,48
4919,note_on,,59,0,5,,,,,,,,,,,,,,,,7,,59,0
4919,note_on,,119,0,9,,,,,,,,,,,,,,,,13,,47,0
4919,note_on,,59,0,6,,,,,,,,,,,,,,,,10,,71,0
4919,note_on,,0,0,10,,,,,,,,,,,,,,,,15,,59,0
4919,note_on,,0,0,10,,,,,,,,,,,,,,,,15,,66,0
4919,note_on,,0,0,10,,,,,,,,,,,,,,,,15,,71,0
4919,note_on,,59,0,7,,,,,,,,,,,,,,,,11,,66,0
4919,note_on,,59,0,8,,,,,,,,,,,,,,,,12,,63,0
4919,note_on,,0,0,10,,,,,,,,,,,,,,,,15,,75,0
4919,note_on,,119,0,10,,,,,,,,,,,,,,,,15,,47,0
4920,note_on,,1,0,7,,,,,,,,,,,,,,,,11,,66,48
4920,note_on,,1,0,6,,,,,,,,,,,,,,,,10,,71,48
4920,note_on,,1,0,8,,,,,,,,,,,,,,,,12,,63,48
4979,note_on,,59,0,7,,,,,,,,,,,,,,,,11,,66,0
4979,note_on,,59,0,6,,,,,,,,,,,,,,,,10,,71,0
4979,note_on,,59,0,8,,,,,,,,,,,,,,,,12,,63,0
4980,note_on,,1,0,6,,,,,,,,,,,,,,,,10,,71,48
4980,note_on,,1,0,8,,,,,,,,,,,,,,,,12,,63,48
4980,note_on,,1,0,7,,,,,,,,,,,,,,,,11,,66,48
5039,note_on,,59,0,6,,,,,,,,,,,,,,,,10,,71,0
5039,note_on,,59,0,7,,,,,,,,,,,,,,,,11,,66,0
5039,note_on,,59,0,8,,,,,,,,,,,,,,,,12,,63,0
5040,note_on,,1,0,7,,,,,,,,,,,,,,,,11,,75,48
5040,note_on,,1,0,8,,,,,,,,,,,,,,,,12,,71,48
5040,note_on,,1,0,6,,,,,,,,,,,,,,,,10,,78,48
5129,note_on,,89,0,7,,,,,,,,,,,,,,,,11,,75,0
5129,note_on,,89,0,8,,,,,,,,,,,,,,,,12,,71,0
5129,note_on,,89,0,6,,,,,,,,,,,,,,,,10,,78,0
5130,note_on,,1,0,8,,,,,,,,,,,,,,,,12,,59,48
5130,note_on,,1,0,7,,,,,,,,,,,,,,,,11,,73,48
5130,note_on,,1,0,6,,,,,,,,,,,,,,,,10,,76,48
5159,note_on,,29,0,7,,,,,,,,,,,,,,,,11,,73,0
5159,note_on,,29,0,6,,,,,,,,,,,,,,,,10,,76,0
5159,note_on,,29,0,8,,,,,,,,,,,,,,,,12,,59,0
5160,note_on,,1,0,7,,,,,,,,,,,,,,,,11,,71,48
5160,note_on,,1,0,8,,,,,,,,,,,,,,,,12,,59,48
5160,note_on,,1,0,6,,,,,,,,,,,,,,,,10,,75,48
5279,note_on,,119,0,8,,,,,,,,,,,,,,,,12,,59,0
5279,note_on,,119,0,7,,,,,,,,,,,,,,,,11,,71,0
5279,note_on,,119,0,6,,,,,,,,,,,,,,,,10,,75,0
5280,note_on,,361,0,5,,,,,,,,,,,,,,,,7,,56,64
5280,note_on,,0,0,10,,,,,,,,,,,,,,,,15,,64,48
5280,note_on,,0,0,10,,,,,,,,,,,,,,,,15,,68,48
5280,note_on,,0,0,10,,,,,,,,,,,,,,,,15,,71,48
5280,note_on,,361,0,10,,,,,,,,,,,,,,,,15,,52,48
5280,note_on,,361,0,9,,,,,,,,,,,,,,,,13,,52,48
5280,note_on,,0,0,10,,,,,,,,,,,,,,,,15,,59,48
5399,note_on,,0,0,10,,,,,,,,,,,,,,,,15,,64,0
5399,note_on,,119,0,5,,,,,,,,,,,,,,,,7,,56,0
5399,note_on,,119,0,10,,,,,,,,,,,,,,,,15,,52,0
5399,note_on,,0,0,10,,,,,,,,,,,,,,,,15,,71,0
5399,note_on,,0,0,10,,,,,,,,,,,,,,,,15,,68,0
5399,note_on,,0,0,10,,,,,,,,,,,,,,,,15,,59,0
5399,note_on,,119,0,9,,,,,,,,,,,,,,,,13,,52,0
5400,note_on,,0,0,10,,,,,,,,,,,,,,,,15,,73,48
5400,note_on,,0,0,10,,,,,,,,,,,,,,,,15,,52,48
5400,note_on,,0,0,10,,,,,,,,,,,,,,,,15,,70,48
5400,note_on,,1,0,10,,,,,,,,,,,,,,,,15,,49,48
5400,note_on,,0,0,10,,,,,,,,,,,,,,,,15,,64,48
5400,note_on,,1,0,5,,,,,,,,,,,,,,,,7,,58,64
5400,note_on,,1,0,9,,,,,,,,,,,,,,,,13,,49,48
5519,note_on,,119,0,10,,,,,,,,,,,,,,,,15,,49,0
5519,note_on,,119,0,5,,,,,,,,,,,,,,,,7,,58,0
5519,note_on,,0,0,10,,,,,,,,,,,,,,,,15,,73,0
5519,note_on,,0,0,10,,,,,,,,,,,,,,,,15,,70,0
5519,note_on,,119,0,9,,,,,,,,,,,,,,,,13,,49,0
5519,note_on,,0,0,10,,,,,,,,,,,,,,,,15,,64,0
5519,note_on,,0,0,10,,,,,,,,,,,,,,,,15,,52,0
5520,note_on,,241,0,8,,,,,,,,,,,,,,,,12,,59,48
5520,note_on,,1,0,10,,,,,,,,,,,,,,,,15,,59,48
5520,note_on,,0,0,10,,,,,,,,,,,,,,,,15,,47,48
5520,note_on,,0,0,10,,,,,,,,,,,,,,,,15,,75,48
5520,note_on,,0,0,10,,,,,,,,,,,,,,,,15,,71,48
5520,note_on,,241,0,6,,,,,,,,,,,,,,,,10,,66,48
5520,note_on,,0,0,10,,,,,,,,,,,,,,,,15,,66,48
5520,note_on,,1,0,5,,,,,,,,,,,,,,,,7,,59,64
5520,note_on,,241,0,7,,,,,,,,,,,,,,,,11,,63,48
5520,note_on,,1,0,9,,,,,,,,,,,,,,,,13,,47,48
5609,note_on,,89,0,8,,,,,,,,,,,,,,,,12,,59,0
5609,note_on,,89,0,6,,,,,,,,,,,,,,,,10,,66,0
5609,note_on,,89,0,7,,,,,,,,,,,,,,,,11,,63,0
5610,note_on,,1,0,6,,,,,,,,,,,,,,,,10,,64,48
5610,note_on,,1,0,7,,,,,,,,,,,,,,,,11,,61,48
5610,note_on,,1,0,8,,,,,,,,,,,,,,,,12,,54,48
5639,note_on,,0,0,10,,,,,,,,,,,,,,,,15,,47,0
5639,note_on,,119,0,9,,,,,,,,,,,,,,,,13,,47,0
5639,note_on,,119,0,5,,,,,,,,,,,,,,,,7,,59,0
5639,note_on,,29,0,6,,,,,,,,,,,,,,,,10,,64,0
5639,note_on,,29,0,8,,,,,,,,,,,,,,,,12,,54,0
5639,note_on,,29,0,7,,,,,,,,,,,,,,,,11,,61,0
5639,note_on,,119,0,10,,,,,,,,,,,,,,,,15,,59,0
5639,note_on,,0,0,10,,,,,,,,,,,,,,,,15,,66,0
5639,note_on,,0,0,10,,,,,,,,,,,,,,,,15,,75,0
5639,note_on,,0,0,10,,,,,,,,,,,,,,,,15,,71,0
5640,note_on,,1,0,8,,,,,,,,,,,,,,,,12,,59,48
5640,note_on,,1,0,7,,,,,,,,,,,,,,,,11,,59,48
5640,note_on,,1,0,6,,,,,,,,,,,,,,,,10,,63,48
5759,note_on,,119,0,6,,,,,,,,,,,,,,,,10,,63,0
5759,note_on,,119,0,8,,,,,,,,,,,,,,,,12,,59,0
5759,note_on,,119,0,7,,,,,,,,,,,,,,,,11,,59,0
5760,note_on,,121,0,5,,,,,,,,,,,,,,,,7,,61,64
5760,note_on,,0,0,10,,,,,,,,,,,,,,,,15,,61,48
5760,note_on,,121,0,10,,,,,,,,,,,,,,,,15,,57,48
5760,note_on,,0,0,10,,,,,,,,,,,,,,,,15,,64,48
5760,note_on,,0,0,10,,,,,,,,,,,,,,,,15,,69,48
5760,note_on,,0,0,10,,,,,,,,,,,,,,,,15,,73,48
5760,note_on,,121,0,9,,,,,,,,,,,,,,,,13,,57,48
5879,note_on,,0,0,10,,,,,,,,,,,,,,,,15,,69,0
5879,note_on,,0,0,10,,,,,,,,,,,,,,,,15,,64,0
5879,note_on,,119,0,10,,,,,,,,,,,,,,,,15,,57,0
5879,note_on,,119,0,9,,,,,,,,,,,,,,,,13,,57,0
5879,note_on,,119,0,5,,,,,,,,,,,,,,,,7,,61,0
5879,note_on,,0,0,10,,,,,,,,,,,,,,,,15,,61,0
5879,note_on,,0,0,10,,,,,,,,,,,,,,,,15,,73,0
5880,note_on,,0,0,10,,,,,,,,,,,,,,,,15,,69,48
5880,note_on,,1,0,10,,,,,,,,,,,,,,,,15,,54,48
5880,note_on,,0,0,10,,,,,,,,,,,,,,,,15,,63,48
5880,note_on,,1,0,9,,,,,,,,,,,,,,,,13,,54,48
5880,note_on,,1,0,5,,,,,,,,,,,,,,,,7,,63,64
5999,note_on,,119,0,9,,,,,,,,,,,,,,,,13,,54,0
5999,note_on,,0,0,10,,,,,,,,,,,,,,,,15,,63,0
5999,note_on,,0,0,10,,,,,,,,,,,,,,,,15,,69,0
5999,note_on,,119,0,5,,,,,,,,,,,,,,,,7,,63,0
5999,note_on,,119,0,10,,,,,,,,,,,,,,,,15,,54,0
6000,note_on,,0,0,10,,,,,,,,,,,,,,,,15,,56,48
6000,note_on,,0,0,10,,,,,,,,,,,,,,,,15,,71,48
6000,note_on,,0,0,10,,,,,,,,,,,,,,,,15,,76,48
6000,note_on,,1,0,9,,,,,,,,,,,,,,,,13,,52,48
6000,note_on,,0,0,10,,,,,,,,,,,,,,,,15,,64,48
6000,note_on,,241,0,6,,,,,,,,,,,,,,,,10,,71,48
6000,note_on,,1,0,10,,,,,,,,,,,,,,,,15,,52,48
6000,note_on,,241,0,8,,,,,,,,,,,,,,,,12,,64,48
6000,note_on,,1,0,5,,,,,,,,,,,,,,,,7,,64,64
6000,note_on,,241,0,7,,,,,,,,,,,,,,,,11,,68,48
6089,note_on,,89,0,8,,,,,,,,,,,,,,,,12,,64,0
6089,note_on,,89,0,6,,,,,,,,,,,,,,,,10,,71,0
6089,note_on,,89,0,7,,,,,,,,,,,,,,,,11,,68,0
6090,note_on,,1,0,8,,,,,,,,,,,,,,,,12,,66,48
6090,note_on,,1,0,6,,,,,,,,,,,,,,,,10,,69,48
6090,note_on,,1,0,7,,,,,,,,,,,,,,,,11,,66,48
6119,note_on,,0,0,10,,,,,,,,,,,,,,,,15,,56,0
6119,note_on,,119,0,10,,,,,,,,,,,,,,,,15,,52,0
6119,note_on,,0,0,10,,,,,,,,,,,,,,,,15,,76,0
6119,note_on,,119,0,9,,,,,,,,,,,,,,,,13,,52,0
6119,note_on,,0,0,10,,,,,,,,,,,,,,,,15,,64,0
6119,note_on,,0,0,10,,,,,,,,,,,,,,,,15,,71,0
6119,note_on,,29,0,6,,,,,,,,,,,,,,,,10,,69,0
6119,note_on,,29,0,7,,,,,,,,,,,,,,,,11,,66,0
6119,note_on,,119,0,5,,,,,,,,,,,,,,,,7,,64,0
6119,note_on,,29,0,8,,,,,,,,,,,,,,,,12,,66,0
6120,note_on,,1,0,6,,,,,,,,,,,,,,,,10,,68,48
6120,note_on,,1,0,8,,,,,,,,,,,,,,,,12,,68,48
6120,note_on,,1,0,7,,,,,,,,,,,,,,,,11,,64,48
6239,note_on,,119,0,8,,,,,,,,,,,,,,,,12,,68,0
6239,note_on,,119,0,7,,,,,,,,,,,,,,,,11,,64,0
6239,note_on,,119,0,6,,,,,,,,,,,,,,,,10,,68,0
6240,note_on,,1,0,8,,,,,,,,,,,,,,,,12,,64,48
6240,note_on,,1,0,6,,,,,,,,,,,,,,,,10,,80,48
6240,note_on,,121,0,9,,,,,,,,,,,,,,,,13,,64,48
6240,note_on,,121,0,10,,,,,,,,,,,,,,,,15,,64,48
6240,note_on,,0,0,10,,,,,,,,,,,,,,,,15,,71,48
6240,note_on,,0,0,10,,,,,,,,,,,,,,,,15,,68,48
6240,note_on,,1,0,7,,,,,,,,,,,,,,,,11,,71,48
6269,note_on,,29,0,6,,,,,,,,,,,,,,,,10,,80,0
6299,note_on,,59,0,9,,,,,,,,,,,,,,,,13,,64,0
6299,note_on,,59,0,10,,,,,,,,,,,,,,,,15,,64,0
6299,note_on,,59,0,8,,,,,,,,,,,,,,,,12,,64,0
6299,note_on,,59,0,7,,,,,,,,,,,,,,,,11,,71,0
6300,note_on,,1,0,9,,,,,,,,,,,,,,,,13,,64,48
6300,note_on,,1,0,8,,,,,,,,,,,,,,,,12,,64,48
6300,note_on,,1,0,10,,,,,,,,,,,,,,,,15,,64,48
6300,note_on,,1,0,7,,,,,,,,,,,,,,,,11,,71,48
6300,note_on,,31,0,6,,,,,,,,,,,,,,,,10,,80,48
6329,note_on,,29,0,6,,,,,,,,,,,,,,,,10,,80,0
6359,note_on,,59,0,7,,,,,,,,,,,,,,,,11,,71,0
6359,note_on,,59,0,10,,,,,,,,,,,,,,,,15,,64,0
6359,note_on,,59,0,9,,,,,,,,,,,,,,,,13,,64,0
6359,note_on,,59,0,8,,,,,,,,,,,,,,,,12,,64,0
6360,note_on,,1,0,8,,,,,,,,,,,,,,,,12,,64,48
6360,note_on,,1,0,7,,,,,,,,,,,,,,,,11,,71,48
6360,note_on,,31,0,6,,,,,,,,,,,,,,,,10,,80,48
6360,note_on,,1,0,10,,,,,,,,,,,,,,,,15,,64,48
6360,note_on,,1,0,9,,,,,,,,,,,,,,,,13,,64,48
6389,note_on,,29,0,6,,,,,,,,,,,,,,,,10,,80,0
6419,note_on,,59,0,7,,,,,,,,,,,,,,,,11,,71,0
6419,note_on,,59,0,8,,,,,,,,,,,,,,,,12,,64,0
6419,note_on,,59,0,9,,,,,,,,,,,,,,,,13,,64,0
6419,note_on,,59,0,10,,,,,,,,,,,,,,,,15,,64,0
6420,note_on,,1,0,10,,,,,,,,,,,,,,,,15,,64,48
6420,note_on,,31,0,6,,,,,,,,,,,,,,,,10,,80,48
6420,note_on,,1,0,7,,,,,,,,,,,,,,,,11,,71,48
6420,note_on,,1,0,8,,,,,,,,,,,,,,,,12,,64,48
6420,note_on,,1,0,9,,,,,,,,,,,,,,,,13,,64,48
6449,note_on,,29,0,6,,,,,,,,,,,,,,,,10,,80,0
6479,note_on,,0,0,10,,,,,,,,,,,,,,,,15,,64,0
6479,note_on,,59,0,10,,,,,,,,,,,,,,,,15,,68,0
6479,note_on,,59,0,7,,,,,,,,,,,,,,,,11,,71,0
6479,note_on,,59,0,8,,,,,,,,,,,,,,,,12,,64,0
6479,note_on,,59,0,9,,,,,,,,,,,,,,,,13,,64,0
6480,note_on,,1,0,10,,,,,,,,,,,,,,,,15,,56,48
6480,note_on,,1,0,9,,,,,,,,,,,,,,,,13,,56,48
6480,note_on,,0,0,10,,,,,,,,,,,,,,,,15,,64,48
6480,note_on,,1,0,7,,,,,,,,,,,,,,,,11,,76,48
6480,note_on,,31,0,6,,,,,,,,,,,,,,,,10,,83,48
6480,note_on,,1,0,8,,,,,,,,,,,,,,,,12,,56,48
6480,note_on,,0,0,10,,,,,,,,,,,,,,,,15,,59,48
6539,note_on,,59,0,10,,,,,,,,,,,,,,,,15,,56,0
6539,note_on,,59,0,7,,,,,,,,,,,,,,,,11,,76,0
6539,note_on,,59,0,9,,,,,,,,,,,,,,,,13,,56,0
6539,note_on,,59,0,8,,,,,,,,,,,,,,,,12,,56,0
6540,note_on,,1,0,8,,,,,,,,,,,,,,,,12,,56,48
6540,note_on,,1,0,9,,,,,,,,,,,,,,,,13,,56,48
6540,note_on,,1,0,10,,,,,,,,,,,,,,,,15,,56,48
6540,note_on,,1,0,7,,,,,,,,,,,,,,,,11,,76,48
6599,note_on,,59,0,8,,,,,,,,,,,,,,,,12,,56,0
6599,note_on,,59,0,9,,,,,,,,,,,,,,,,13,,56,0
6599,note_on,,59,0,10,,,,,,,,,,,,,,,,15,,56,0
6599,note_on,,59,0,7,,,,,,,,,,,,,,,,11,,76,0
6600,note_on,,1,0,10,,,,,,,,,,,,,,,,15,,56,48
6600,note_on,,1,0,7,,,,,,,,,,,,,,,,11,,76,48
6600,note_on,,1,0,8,,,,,,,,,,,,,,,,12,,56,48
6600,note_on,,1,0,9,,,,,,,,,,,,,,,,13,,56,48
6659,note_on,,59,0,8,,,,,,,,,,,,,,,,12,,56,0
6659,note_on,,59,0,7,,,,,,,,,,,,,,,,11,,76,0
6659,note_on,,59,0,9,,,,,,,,,,,,,,,,13,,56,0
6659,note_on,,59,0,10,,,,,,,,,,,,,,,,15,,56,0
6660,note_on,,1,0,8,,,,,,,,,,,,,,,,12,,56,48
6660,note_on,,1,0,9,,,,,,,,,,,,,,,,13,,56,48
6660,note_on,,1,0,10,,,,,,,,,,,,,,,,15,,56,48
6660,note_on,,1,0,7,,,,,,,,,,,,,,,,11,,76,48
6689,note_on,,209,0,6,,,,,,,,,,,,,,,,10,,83,0
6690,note_on,,1,0,6,,,,,,,,,,,,,,,,10,,81,48
6704,note_on,,14,0,6,,,,,,,,,,,,,,,,10,,81,0
6705,note_on,,1,0,6,,,,,,,,,,,,,,,,10,,80,48
6719,note_on,,14,0,6,,,,,,,,,,,,,,,,10,,80,0
6719,note_on,,59,0,9,,,,,,,,,,,,,,,,13,,56,0
6719,note_on,,59,0,7,,,,,,,,,,,,,,,,11,,76,0
6719,note_on,,59,0,10,,,,,,,,,,,,,,,,15,,71,0
6719,note_on,,59,0,8,,,,,,,,,,,,,,,,12,,56,0
6719,note_on,,0,0,10,,,,,,,,,,,,,,,,15,,64,0
6719,note_on,,0,0,10,,,,,,,,,,,,,,,,15,,59,0
6719,note_on,,0,0,10,,,,,,,,,,,,,,,,15,,56,0
6720,note_on,,1,0,7,,,,,,,,,,,,,,,,11,,76,48
6720,note_on,,1,0,8,,,,,,,,,,,,,,,,12,,59,48
6720,note_on,,1,0,9,,,,,,,,,,,,,,,,13,,63,48
6720,note_on,,0,0,10,,,,,,,,,,,,,,,,15,,64,48
6720,note_on,,1,0,6,,,,,,,,,,,,,,,,10,,78,48
6720,note_on,,0,0,10,,,,,,,,,,,,,,,,15,,66,48
6720,note_on,,1,0,10,,,,,,,,,,,,,,,,15,,59,48
6779,note_on,,59,0,10,,,,,,,,,,,,,,,,15,,59,0
6779,note_on,,59,0,7,,,,,,,,,,,,,,,,11,,76,0
6779,note_on,,59,0,8,,,,,,,,,,,,,,,,12,,59,0
6779,note_on,,59,0,6,,,,,,,,,,,,,,,,10,,78,0
6779,note_on,,59,0,9,,,,,,,,,,,,,,,,13,,63,0
6780,note_on,,1,0,6,,,,,,,,,,,,,,,,10,,78,48
6780,note_on,,1,0,8,,,,,,,,,,,,,,,,12,,59,48
6780,note_on,,1,0,10,,,,,,,,,,,,,,,,15,,59,48
6780,note_on,,1,0,9,,,,,,,,,,,,,,,,13,,63,48
6780,note_on,,1,0,7,,,,,,,,,,,,,,,,11,,76,48
6839,note_on,,59,0,6,,,,,,,,,,,,,,,,10,,78,0
6839,note_on,,59,0,10,,,,,,,,,,,,,,,,15,,59,0
6839,note_on,,59,0,9,,,,,,,,,,,,,,,,13,,63,0
6839,note_on,,59,0,7,,,,,,,,,,,,,,,,11,,76,0
6839,note_on,,59,0,8,,,,,,,,,,,,,,,,12,,59,0
6840,note_on,,1,0,10,,,,,,,,,,,,,,,,15,,59,48
6840,note_on,,1,0,6,,,,,,,,,,,,,,,,10,,78,48
6840,note_on,,1,0,7,,,,,,,,,,,,,,,,11,,76,48
6840,note_on,,1,0,8,,,,,,,,,,,,,,,,12,,59,48
6840,note_on,,1,0,9,,,,,,,,,,,,,,,,13,,63,48
6899,note_on,,59,0,10,,,,,,,,,,,,,,,,15,,59,0
6899,note_on,,59,0,8,,,,,,,,,,,,,,,,12,,59,0
6899,note_on,,59,0,6,,,,,,,,,,,,,,,,10,,78,0
6899,note_on,,59,0,7,,,,,,,,,,,,,,,,11,,76,0
6899,note_on,,59,0,9,,,,,,,,,,,,,,,,13,,63,0
6900,note_on,,1,0,7,,,,,,,,,,,,,,,,11,,76,48
6900,note_on,,1,0,8,,,,,,,,,,,,,,,,12,,59,48
6900,note_on,,1,0,10,,,,,,,,,,,,,,,,15,,59,48
6900,note_on,,1,0,6,,,,,,,,,,,,,,,,10,,78,48
6900,note_on,,1,0,9,,,,,,,,,,,,,,,,13,,63,48
6959,note_on,,59,0,9,,,,,,,,,,,,,,,,13,,63,0
6959,note_on,,59,0,8,,,,,,,,,,,,,,,,12,,59,0
6959,note_on,,0,0,10,,,,,,,,,,,,,,,,15,,64,0
6959,note_on,,0,0,10,,,,,,,,,,,,,,,,15,,59,0
6959,note_on,,59,0,6,,,,,,,,,,,,,,,,10,,78,0
6959,note_on,,59,0,7,,,,,,,,,,,,,,,,11,,76,0
6959,note_on,,59,0,10,,,,,,,,,,,,,,,,15,,66,0
6960,note_on,,0,0,10,,,,,,,,,,,,,,,,15,,71,48
6960,note_on,,841,0,5,,,,,,,,,,,,,,,,7,,59,64
6960,note_on,,0,0,10,,,,,,,,,,,,,,,,15,,54,48
6960,note_on,,0,0,10,,,,,,,,,,,,,,,,15,,59,48
6960,note_on,,0,0,10,,,,,,,,,,,,,,,,15,,63,48
6960,note_on,,1,0,8,,,,,,,,,,,,,,,,12,,59,48
6960,note_on,,1,0,10,,,,,,,,,,,,,,,,15,,47,48
6960,note_on,,1,0,7,,,,,,,,,,,,,,,,11,,75,48
6960,note_on,,1,0,6,,,,,,,,,,,,,,,,10,,78,48
6960,note_on,,1,0,9,,,,,,,,,,,,,,,,13,,47,48
7019,note_on,,59,0,7,,,,,,,,,,,,,,,,11,,75,0
7019,note_on,,59,0,10,,,,,,,,,,,,,,,,15,,47,0
7019,note_on,,59,0,6,,,,,,,,,,,,,,,,10,,78,0
7019,note_on,,59,0,9,,,,,,,,,,,,,,,,13,,47,0
7019,note_on,,59,0,8,,,,,,,,,,,,,,,,12,,59,0
7020,note_on,,1,0,7,,,,,,,,,,,,,,,,11,,75,48
7020,note_on,,1,0,9,,,,,,,,,,,,,,,,13,,47,48
7020,note_on,,1,0,6,,,,,,,,,,,,,,,,10,,78,48
7020,note_on,,1,0,8,,,,,,,,,,,,,,,,12,,59,48
7020,note_on,,1,0,10,,,,,,,,,,,,,,,,15,,47,48
7079,note_on,,59,0,7,,,,,,,,,,,,,,,,11,,75,0
7079,note_on,,59,0,8,,,,,,,,,,,,,,,,12,,59,0
7079,note_on,,59,0,9,,,,,,,,,,,,,,,,13,,47,0
7079,note_on,,59,0,10,,,,,,,,,,,,,,,,15,,47,0
7079,note_on,,59,0,6,,,,,,,,,,,,,,,,10,,78,0
7080,note_on,,1,0,10,,,,,,,,,,,,,,,,15,,45,48
7080,note_on,,1,0,9,,,,,,,,,,,,,,,,13,,45,48
7080,note_on,,1,0,7,,,,,,,,,,,,,,,,11,,75,48
7080,note_on,,1,0,6,,,,,,,,,,,,,,,,10,,78,48
7080,note_on,,1,0,8,,,,,,,,,,,,,,,,12,,59,48
7139,note_on,,59,0,7,,,,,,,,,,,,,,,,11,,75,0
7139,note_on,,59,0,6,,,,,,,,,,,,,,,,10,,78,0
7139,note_on,,59,0,9,,,,,,,,,,,,,,,,13,,45,0
7139,note_on,,179,0,5,,,,,,,,,,,,,,,,7,,59,0
7139,note_on,,59,0,8,,,,,,,,,,,,,,,,12,,59,0
7139,note_on,,59,0,10,,,,,,,,,,,,,,,,15,,45,0
7140,note_on,,1,0,6,,,,,,,,,,,,,,,,10,,78,48
7140,note_on,,1,0,7,,,,,,,,,,,,,,,,11,,75,48
7140,note_on,,1,0,8,,,,,,,,,,,,,,,,12,,59,48
7140,note_on,,1,0,5,,,,,,,,,,,,,,,,7,,59,64
7140,note_on,,1,0,9,,,,,,,,,,,,,,,,13,,45,48
7140,note_on,,1,0,10,,,,,,,,,,,,,,,,15,,45,48
7199,note_on,,0,0,10,,,,,,,,,,,,,,,,15,,45,0
7199,note_on,,59,0,8,,,,,,,,,,,,,,,,12,,59,0
7199,note_on,,0,0,10,,,,,,,,,,,,,,,,15,,54,0
7199,note_on,,0,0,10,,,,,,,,,,,,,,,,15,,63,0
7199,note_on,,59,0,10,,,,,,,,,,,,,,,,15,,71,0
7199,note_on,,59,0,6,,,,,,,,,,,,,,,,10,,78,0
7199,note_on,,59,0,5,,,,,,,,,,,,,,,,7,,59,0
7199,note_on,,59,0,9,,,,,,,,,,,,,,,,13,,45,0
7199,note_on,,0,0,10,,,,,,,,,,,,,,,,15,,59,0
7199,note_on,,59,0,7,,,,,,,,,,,,,,,,11,,75,0
7200,note_on,,1,0,10,,,,,,,,,,,,,,,,15,,44,48
7200,note_on,,1,0,7,,,,,,,,,,,,,,,,11,,71,48
7200,note_on,,1,0,8,,,,,,,,,,,,,,,,12,,59,48
7200,note_on,,0,0,10,,,,,,,,,,,,,,,,15,,59,48
7200,note_on,,0,0,10,,,,,,,,,,,,,,,,15,,56,48
7200,note_on,,1,0,5,,,,,,,,,,,,,,,,7,,64,64
7200,note_on,,1,0,9,,,,,,,,,,,,,,,,13,,44,48
7200,note_on,,0,0,10,,,,,,,,,,,,,,,,15,,64,48
7200,note_on,,1,0,6,,,,,,,,,,,,,,,,10,,76,48
7259,note_on,,59,0,8,,,,,,,,,,,,,,,,12,,59,0
7259,note_on,,59,0,9,,,,,,,,,,,,,,,,13,,44,0
7259,note_on,,59,0,7,,,,,,,,,,,,,,,,11,,71,0
7259,note_on,,59,0,6,,,,,,,,,,,,,,,,10,,76,0
7259,note_on,,59,0,10,,,,,,,,,,,,,,,,15,,44,0
7260,note_on,,1,0,7,,,,,,,,,,,,,,,,11,,71,48
7260,note_on,,1,0,6,,,,,,,,,,,,,,,,10,,76,48
7260,note_on,,1,0,10,,,,,,,,,,,,,,,,15,,44,48
7260,note_on,,1,0,9,,,,,,,,,,,,,,,,13,,44,48
7260,note_on,,1,0,8,,,,,,,,,,,,,,,,12,,64,48
7289,note_on,,89,0,5,,,,,,,,,,,,,,,,7,,64,0
7290,note_on,,1,0,5,,,,,,,,,,,,,,,,7,,59,64
7319,note_on,,59,0,7,,,,,,,,,,,,,,,,11,,71,0
7319,note_on,,59,0,8,,,,,,,,,,,,,,,,12,,64,0
7319,note_on,,59,0,6,,,,,,,,,,,,,,,,10,,76,0
7319,note_on,,29,0,5,,,,,,,,,,,,,,,,7,,59,0
7319,note_on,,59,0,10,,,,,,,,,,,,,,,,15,,44,0
7319,note_on,,59,0,9,,,,,,,,,,,,,,,,13,,44,0
7320,note_on,,1,0,8,,,,,,,,,,,,,,,,12,,64,48
7320,note_on,,1,0,7,,,,,,,,,,,,,,,,11,,71,48
7320,note_on,,1,0,6,,,,,,,,,,,,,,,,10,,76,48
7320,note_on,,1,0,10,,,,,,,,,,,,,,,,15,,44,48
7320,note_on,,1,0,9,,,,,,,,,,,,,,,,13,,44,48
7320,note_on,,1,0,5,,,,,,,,,,,,,,,,7,,59,64
7379,note_on,,59,0,9,,,,,,,,,,,,,,,,13,,44,0
7379,note_on,,59,0,10,,,,,,,,,,,,,,,,15,,44,0
7379,note_on,,59,0,8,,,,,,,,,,,,,,,,12,,64,0
7379,note_on,,59,0,5,,,,,,,,,,,,,,,,7,,59,0
7379,note_on,,59,0,6,,,,,,,,,,,,,,,,10,,76,0
7379,note_on,,59,0,7,,,,,,,,,,,,,,,,11,,71,0
7380,note_on,,1,0,5,,,,,,,,,,,,,,,,7,,61,64
7380,note_on,,1,0,10,,,,,,,,,,,,,,,,15,,44,48
7380,note_on,,1,0,6,,,,,,,,,,,,,,,,10,,76,48
7380,note_on,,1,0,9,,,,,,,,,,,,,,,,13,,44,48
7380,note_on,,1,0,7,,,,,,,,,,,,,,,,11,,71,48
7380,note_on,,1,0,8,,,,,,,,,,,,,,,,12,,64,48
7439,note_on,,59,0,10,,,,,,,,,,,,,,,,15,,64,0
7439,note_on,,59,0,5,,,,,,,,,,,,,,,,7,,61,0
7439,note_on,,0,0,10,,,,,,,,,,,,,,,,15,,59,0
7439,note_on,,59,0,7,,,,,,,,,,,,,,,,11,,71,0
7439,note_on,,0,0,10,,,,,,,,,,,,,,,,15,,44,0
7439,note_on,,59,0,6,,,,,,,,,,,,,,,,10,,76,0
7439,note_on,,59,0,9,,,,,,,,,,,,,,,,13,,44,0
7439,note_on,,59,0,8,,,,,,,,,,,,,,,,12,,64,0
7439,note_on,,0,0,10,,,,,,,,,,,,,,,,15,,56,0
7440,note_on,,1,0,5,,,,,,,,,,,,,,,,7,,62,64
7440,note_on,,1,0,8,,,,,,,,,,,,,,,,12,,62,48
7440,note_on,,0,0,10,,,,,,,,,,,,,,,,15,,59,48
7440,note_on,,1,0,7,,,,,,,,,,,,,,,,11,,71,48
7440,note_on,,1,0,9,,,,,,,,,,,,,,,,13,,44,48
7440,note_on,,0,0,10,,,,,,,,,,,,,,,,15,,52,48
7440,note_on,,0,0,10,,,,,,,,,,,,,,,,15,,64,48
7440,note_on,,1,0,10,,,,,,,,,,,,,,,,15,,44,48
7440,note_on,,1,0,6,,,,,,,,,,,,,,,,10,,64,48
7440,note_on,,0,0,10,,,,,,,,,,,,,,,,15,,71,48
7499,note_on,,59,0,8,,,,,,,,,,,,,,,,12,,62,0
7499,note_on,,59,0,10,,,,,,,,,,,,,,,,15,,44,0
7499,note_on,,59,0,9,,,,,,,,,,,,,,,,13,,44,0
7499,note_on,,59,0,6,,,,,,,,,,,,,,,,10,,64,0
7499,note_on,,59,0,7,,,,,,,,,,,,,,,,11,,71,0
7500,note_on,,1,0,10,,,,,,,,,,,,,,,,15,,44,48
7500,note_on,,1,0,7,,,,,,,,,,,,,,,,11,,71,48
7500,note_on,,1,0,8,,,,,,,,,,,,,,,,12,,62,48
7500,note_on,,1,0,9,,,,,,,,,,,,,,,,13,,44,48
7500,note_on,,1,0,6,,,,,,,,,,,,,,,,10,,64,48
7529,note_on,,89,0,5,,,,,,,,,,,,,,,,7,,62,0
7530,note_on,,1,0,5,,,,,,,,,,,,,,,,7,,64,64
7539,note_on,,9,0,5,,,,,,,,,,,,,,,,7,,64,0
7540,note_on,,1,0,5,,,,,,,,,,,,,,,,7,,62,64
7549,note_on,,9,0,5,,,,,,,,,,,,,,,,7,,62,0
7550,note_on,,1,0,5,,,,,,,,,,,,,,,,7,,61,64
7559,note_on,,59,0,10,,,,,,,,,,,,,,,,15,,44,0
7559,note_on,,59,0,8,,,,,,,,,,,,,,,,12,,62,0
7559,note_on,,9,0,5,,,,,,,,,,,,,,,,7,,61,0
7559,note_on,,59,0,9,,,,,,,,,,,,,,,,13,,44,0
7559,note_on,,59,0,6,,,,,,,,,,,,,,,,10,,64,0
7559,note_on,,59,0,7,,,,,,,,,,,,,,,,11,,71,0
7560,note_on,,1,0,5,,,,,,,,,,,,,,,,7,,62,64
7560,note_on,,1,0,8,,,,,,,,,,,,,,,,12,,62,48
7560,note_on,,1,0,9,,,,,,,,,,,,,,,,13,,44,48
7560,note_on,,1,0,6,,,,,,,,,,,,,,,,10,,64,48
7560,note_on,,1,0,7,,,,,,,,,,,,,,,,11,,71,48
7560,note_on,,1,0,10,,,,,,,,,,,,,,,,15,,44,48
7619,note_on,,59,0,8,,,,,,,,,,,,,,,,12,,62,0
7619,note_on,,59,0,9,,,,,,,,,,,,,,,,13,,44,0
7619,note_on,,59,0,6,,,,,,,,,,,,,,,,10,,64,0
7619,note_on,,59,0,10,,,,,,,,,,,,,,,,15,,44,0
7619,note_on,,59,0,7,,,,,,,,,,,,,,,,11,,71,0
7619,note_on,,59,0,5,,,,,,,,,,,,,,,,7,,62,0
7620,note_on,,1,0,7,,,,,,,,,,,,,,,,11,,71,48
7620,note_on,,1,0,8,,,,,,,,,,,,,,,,12,,62,48
7620,note_on,,1,0,5,,,,,,,,,,,,,,,,7,,64,64
7620,note_on,,1,0,9,,,,,,,,,,,,,,,,13,,44,48
7620,note_on,,1,0,10,,,,,,,,,,,,,,,,15,,44,48
7620,note_on,,1,0,6,,,,,,,,,,,,,,,,10,,64,48
7679,note_on,,59,0,10,,,,,,,,,,,,,,,,15,,71,0
7679,note_on,,59,0,9,,,,,,,,,,,,,,,,13,,44,0
7679,note_on,,59,0,5,,,,,,,,,,,,,,,,7,,64,0
7679,note_on,,59,0,6,,,,,,,,,,,,,,,,10,,64,0
7679,note_on,,0,0,10,,,,,,,,,,,,,,,,15,,44,0
7679,note_on,,0,0,10,,,,,,,,,,,,,,,,15,,52,0
7679,note_on,,0,0,10,,,,,,,,,,,,,,,,15,,59,0
7679,note_on,,0,0,10,,,,,,,,,,,,,,,,15,,64,0
7679,note_on,,59,0,7,,,,,,,,,,,,,,,,11,,71,0
7679,note_on,,59,0,8,,,,,,,,,,,,,,,,12,,62,0
7680,note_on,,1,0,6,,,,,,,,,,,,,,,,10,,64,48
7680,note_on,,1,0,7,,,,,,,,,,,,,,,,11,,73,48
7680,note_on,,1,0,5,,,,,,,,,,,,,,,,7,,62,64
7680,note_on,,1,0,8,,,,,,,,,,,,,,,,12,,57,48
7680,note_on,,1,0,9,,,,,,,,,,,,,,,,13,,45,48
7680,note_on,,0,0,10,,,,,,,,,,,,,,,,15,,52,48
7680,note_on,,0,0,10,,,,,,,,,,,,,,,,15,,64,48
7680,note_on,,0,0,10,,,,,,,,,,,,,,,,15,,69,48
7680,note_on,,0,0,10,,,,,,,,,,,,,,,,15,,73,48
7680,note_on,,1,0,10,,,,,,,,,,,,,,,,15,,45,48
7709,note_on,,29,0,5,,,,,,,,,,,,,,,,7,,62,0
7710,note_on,,1,0,5,,,,,,,,,,,,,,,,7,,61,64
7739,note_on,,59,0,10,,,,,,,,,,,,,,,,15,,45,0
7739,note_on,,59,0,9,,,,,,,,,,,,,,,,13,,45,0
7739,note_on,,59,0,7,,,,,,,,,,,,,,,,11,,73,0
7739,note_on,,59,0,8,,,,,,,,,,,,,,,,12,,57,0
7739,note_on,,59,0,6,,,,,,,,,,,,,,,,10,,64,0
7740,note_on,,1,0,9,,,,,,,,,,,,,,,,13,,45,48
7740,note_on,,1,0,10,,,,,,,,,,,,,,,,15,,45,48
7740,note_on,,1,0,8,,,,,,,,,,,,,,,,12,,57,48
7740,note_on,,1,0,7,,,,,,,,,,,,,,,,11,,73,48
7740,note_on,,1,0,6,,,,,,,,,,,,,,,,10,,64,48
7769,note_on,,59,0,5,,,,,,,,,,,,,,,,7,,61,0
7770,note_on,,1,0,5,,,,,,,,,,,,,,,,7,,59,64
7799,note_on,,29,0,5,,,,,,,,,,,,,,,,7,,59,0
7799,note_on,,59,0,10,,,,,,,,,,,,,,,,15,,45,0
7799,note_on,,59,0,8,,,,,,,,,,,,,,,,12,,57,0
7799,note_on,,59,0,7,,,,,,,,,,,,,,,,11,,73,0
7799,note_on,,59,0,9,,,,,,,,,,,,,,,,13,,45,0
7799,note_on,,59,0,6,,,,,,,,,,,,,,,,10,,64,0
7800,note_on,,1,0,7,,,,,,,,,,,,,,,,11,,73,48
7800,note_on,,1,0,6,,,,,,,,,,,,,,,,10,,64,48
7800,note_on,,1,0,9,,,,,,,,,,,,,,,,13,,45,48
7800,note_on,,1,0,8,,,,,,,,,,,,,,,,12,,57,48
7800,note_on,,1,0,5,,,,,,,,,,,,,,,,7,,57,64
7800,note_on,,1,0,10,,,,,,,,,,,,,,,,15,,45,48
7859,note_on,,59,0,7,,,,,,,,,,,,,,,,11,,73,0
7859,note_on,,59,0,8,,,,,,,,,,,,,,,,12,,57,0
7859,note_on,,59,0,6,,,,,,,,,,,,,,,,10,,64,0
7859,note_on,,59,0,9,,,,,,,,,,,,,,,,13,,45,0
7859,note_on,,59,0,10,,,,,,,,,,,,,,,,15,,45,0
7860,note_on,,1,0,7,,,,,,,,,,,,,,,,11,,73,48
7860,note_on,,1,0,6,,,,,,,,,,,,,,,,10,,64,48
7860,note_on,,1,0,9,,,,,,,,,,,,,,,,13,,45,48
7860,note_on,,1,0,8,,,,,,,,,,,,,,,,12,,57,48
7860,note_on,,1,0,10,,,,,,,,,,,,,,,,15,,45,48
7919,note_on,,59,0,6,,,,,,,,,,,,,,,,10,,64,0
7919,note_on,,119,0,5,,,,,,,,,,,,,,,,7,,57,0
7919,note_on,,59,0,10,,,,,,,,,,,,,,,,15,,73,0
7919,note_on,,0,0,10,,,,,,,,,,,,,,,,15,,45,0
7919,note_on,,0,0,10,,,,,,,,,,,,,,,,15,,52,0
7919,note_on,,0,0,10,,,,,,,,,,,,,,,,15,,64,0
7919,note_on,,0,0,10,,,,,,,,,,,,,,,,15,,69,0
7919,note_on,,59,0,8,,,,,,,,,,,,,,,,12,,57,0
7919,note_on,,59,0,7,,,,,,,,,,,,,,,,11,,73,0
7919,note_on,,59,0,9,,,,,,,,,,,,,,,,13,,45,0
7920,note_on,,0,0,10,,,,,,,,,,,,,,,,15,,64,48
7920,note_on,,0,0,10,,,,,,,,,,,,,,,,15,,57,48
7920,note_on,,1,0,9,,,,,,,,,,,,,,,,13,,45,48
7920,note_on,,1,0,7,,,,,,,,,,,,,,,,11,,73,48
7920,note_on,,1,0,8,,,,,,,,,,,,,,,,12,,57,48
7920,note_on,,1,0,10,,,,,,,,,,,,,,,,15,,45,48
7920,note_on,,0,0,10,,,,,,,,,,,,,,,,15,,61,48
7920,note_on,,1,0,6,,,,,,,,,,,,,,,,10,,64,48
7979,note_on,,59,0,10,,,,,,,,,,,,,,,,15,,45,0
7979,note_on,,59,0,9,,,,,,,,,,,,,,,,13,,45,0
7979,note_on,,59,0,8,,,,,,,,,,,,,,,,12,,57,0
7979,note_on,,59,0,6,,,,,,,,,,,,,,,,10,,64,0
7979,note_on,,59,0,7,,,,,,,,,,,,,,,,11,,73,0
7980,note_on,,1,0,6,,,,,,,,,,,,,,,,10,,64,48
7980,note_on,,1,0,10,,,,,,,,,,,,,,,,15,,45,48
7980,note_on,,1,0,8,,,,,,,,,,,,,,,,12,,57,48
7980,note_on,,1,0,7,,,,,,,,,,,,,,,,11,,73,48
7980,note_on,,1,0,9,,,,,,,,,,,,,,,,13,,45,48
8039,note_on,,59,0,6,,,,,,,,,,,,,,,,10,,64,0
8039,note_on,,59,0,10,,,,,,,,,,,,,,,,15,,45,0
8039,note_on,,59,0,7,,,,,,,,,,,,,,,,11,,73,0
8039,note_on,,59,0,8,,,,,,,,,,,,,,,,12,,57,0
8039,note_on,,59,0,9,,,,,,,,,,,,,,,,13,,45,0
8040,note_on,,1,0,6,,,,,,,,,,,,,,,,10,,64,48
8040,note_on,,1,0,7,,,,,,,,,,,,,,,,11,,73,48
8040,note_on,,1,0,9,,,,,,,,,,,,,,,,13,,45,48
8040,note_on,,121,0,5,,,,,,,,,,,,,,,,7,,61,64
8040,note_on,,1,0,8,,,,,,,,,,,,,,,,12,,57,48
8040,note_on,,1,0,10,,,,,,,,,,,,,,,,15,,45,48
8099,note_on,,59,0,7,,,,,,,,,,,,,,,,11,,73,0
8099,note_on,,59,0,8,,,,,,,,,,,,,,,,12,,57,0
8099,note_on,,59,0,9,,,,,,,,,,,,,,,,13,,45,0
8099,note_on,,59,0,6,,,,,,,,,,,,,,,,10,,64,0
8099,note_on,,59,0,10,,,,,,,,,,,,,,,,15,,45,0
8100,note_on,,1,0,8,,,,,,,,,,,,,,,,12,,57,48
8100,note_on,,1,0,9,,,,,,,,,,,,,,,,13,,45,48
8100,note_on,,1,0,7,,,,,,,,,,,,,,,,11,,73,48
8100,note_on,,1,0,6,,,,,,,,,,,,,,,,10,,64,48
8100,note_on,,1,0,10,,,,,,,,,,,,,,,,15,,45,48
8129,note_on,,89,0,5,,,,,,,,,,,,,,,,7,,61,0
8130,note_on,,1,0,5,,,,,,,,,,,,,,,,7,,61,64
8159,note_on,,0,0,10,,,,,,,,,,,,,,,,15,,61,0
8159,note_on,,0,0,10,,,,,,,,,,,,,,,,15,,57,0
8159,note_on,,59,0,8,,,,,,,,,,,,,,,,12,,57,0
8159,note_on,,59,0,9,,,,,,,,,,,,,,,,13,,45,0
8159,note_on,,59,0,10,,,,,,,,,,,,,,,,15,,64,0
8159,note_on,,0,0,10,,,,,,,,,,,,,,,,15,,45,0
8159,note_on,,59,0,6,,,,,,,,,,,,,,,,10,,64,0
8159,note_on,,59,0,7,,,,,,,,,,,,,,,,11,,73,0
8159,note_on,,29,0,5,,,,,,,,,,,,,,,,7,,61,0
8160,note_on,,1,0,8,,,,,,,,,,,,,,,,12,,61,48
8160,note_on,,1,0,9,,,,,,,,,,,,,,,,13,,46,48
8160,note_on,,1,0,7,,,,,,,,,,,,,,,,11,,73,48
8160,note_on,,0,0,10,,,,,,,,,,,,,,,,15,,66,48
8160,note_on,,0,0,10,,,,,,,,,,,,,,,,15,,61,48
8160,note_on,,0,0,10,,,,,,,,,,,,,,,,15,,54,48
8160,note_on,,1,0,5,,,,,,,,,,,,,,,,7,,66,64
8160,note_on,,1,0,10,,,,,,,,,,,,,,,,15,,46,48
8160,note_on,,1,0,6,,,,,,,,,,,,,,,,10,,78,48
8219,note_on,,59,0,8,,,,,,,,,,,,,,,,12,,61,0
8219,note_on,,59,0,7,,,,,,,,,,,,,,,,11,,73,0
8219,note_on,,59,0,9,,,,,,,,,,,,,,,,13,,46,0
8219,note_on,,59,0,10,,,,,,,,,,,,,,,,15,,46,0
8219,note_on,,59,0,6,,,,,,,,,,,,,,,,10,,78,0
8220,note_on,,1,0,6,,,,,,,,,,,,,,,,10,,78,48
8220,note_on,,1,0,7,,,,,,,,,,,,,,,,11,,73,48
8220,note_on,,1,0,10,,,,,,,,,,,,,,,,15,,46,48
8220,note_on,,1,0,8,,,,,,,,,,,,,,,,12,,61,48
8220,note_on,,1,0,9,,,,,,,,,,,,,,,,13,,46,48
8249,note_on,,89,0,5,,,,,,,,,,,,,,,,7,,66,0
8250,note_on,,1,0,5,,,,,,,,,,,,,,,,7,,54,64
8279,note_on,,59,0,10,,,,,,,,,,,,,,,,15,,46,0
8279,note_on,,59,0,8,,,,,,,,,,,,,,,,12,,61,0
8279,note_on,,29,0,5,,,,,,,,,,,,,,,,7,,54,0
8279,note_on,,59,0,7,,,,,,,,,,,,,,,,11,,73,0
8279,note_on,,59,0,9,,,,,,,,,,,,,,,,13,,46,0
8279,note_on,,59,0,6,,,,,,,,,,,,,,,,10,,78,0
8280,note_on,,1,0,10,,,,,,,,,,,,,,,,15,,46,48
8280,note_on,,1,0,8,,,,,,,,,,,,,,,,12,,61,48
8280,note_on,,1,0,9,,,,,,,,,,,,,,,,13,,46,48
8280,note_on,,1,0,5,,,,,,,,,,,,,,,,7,,54,64
8280,note_on,,1,0,7,,,,,,,,,,,,,,,,11,,73,48
8280,note_on,,1,0,6,,,,,,,,,,,,,,,,10,,78,48
8339,note_on,,59,0,10,,,,,,,,,,,,,,,,15,,46,0
8339,note_on,,59,0,8,,,,,,,,,,,,,,,,12,,61,0
8339,note_on,,59,0,9,,,,,,,,,,,,,,,,13,,46,0
8339,note_on,,59,0,5,,,,,,,,,,,,,,,,7,,54,0
8339,note_on,,59,0,7,,,,,,,,,,,,,,,,11,,73,0
8339,note_on,,59,0,6,,,,,,,,,,,,,,,,10,,78,0
8340,note_on,,1,0,7,,,,,,,,,,,,,,,,11,,73,48
8340,note_on,,1,0,6,,,,,,,,,,,,,,,,10,,78,48
8340,note_on,,1,0,10,,,,,,,,,,,,,,,,15,,46,48
8340,note_on,,1,0,9,,,,,,,,,,,,,,,,13,,46,48
8340,note_on,,1,0,5,,,,,,,,,,,,,,,,7,,54,64
8340,note_on,,1,0,8,,,,,,,,,,,,,,,,12,,61,48
8399,note_on,,59,0,8,,,,,,,,,,,,,,,,12,,61,0
8399,note_on,,59,0,10,,,,,,,,,,,,,,,,15,,66,0
8399,note_on,,0,0,10,,,,,,,,,,,,,,,,15,,61,0
8399,note_on,,59,0,5,,,,,,,,,,,,,,,,7,,54,0
8399,note_on,,0,0,10,,,,,,,,,,,,,,,,15,,54,0
8399,note_on,,0,0,10,,,,,,,,,,,,,,,,15,,46,0
8399,note_on,,59,0,9,,,,,,,,,,,,,,,,13,,46,0
8399,note_on,,59,0,7,,,,,,,,,,,,,,,,11,,73,0
8399,note_on,,59,0,6,,,,,,,,,,,,,,,,10,,78,0
8400,note_on,,1,0,9,,,,,,,,,,,,,,,,13,,46,48
8400,note_on,,1,0,8,,,,,,,,,,,,,,,,12,,66,48
8400,note_on,,1,0,7,,,,,,,,,,,,,,,,11,,73,48
8400,note_on,,1,0,5,,,,,,,,,,,,,,,,7,,61,64
8400,note_on,,0,0,10,,,,,,,,,,,,,,,,15,,66,48
8400,note_on,,1,0,10,,,,,,,,,,,,,,,,15,,46,48
8400,note_on,,0,0,10,,,,,,,,,,,,,,,,15,,73,48
8400,note_on,,1,0,6,,,,,,,,,,,,,,,,10,,76,48
8400,note_on,,0,0,10,,,,,,,,,,,,,,,,15,,61,48
8400,note_on,,0,0,10,,,,,,,,,,,,,,,,15,,54,48
8459,note_on,,59,0,7,,,,,,,,,,,,,,,,11,,73,0
8459,note_on,,59,0,9,,,,,,,,,,,,,,,,13,,46,0
8459,note_on,,59,0,8,,,,,,,,,,,,,,,,12,,66,0
8459,note_on,,59,0,6,,,,,,,,,,,,,,,,10,,76,0
8459,note_on,,59,0,10,,,,,,,,,,,,,,,,15,,46,0
8460,note_on,,1,0,10,,,,,,,,,,,,,,,,15,,46,48
8460,note_on,,1,0,7,,,,,,,,,,,,,,,,11,,73,48
8460,note_on,,1,0,8,,,,,,,,,,,,,,,,12,,66,48
8460,note_on,,1,0,6,,,,,,,,,,,,,,,,10,,76,48
8460,note_on,,1,0,9,,,,,,,,,,,,,,,,13,,46,48
8489,note_on,,89,0,5,,,,,,,,,,,,,,,,7,,61,0
8490,note_on,,1,0,5,,,,,,,,,,,,,,,,7,,63,64
8499,note_on,,9,0,5,,,,,,,,,,,,,,,,7,,63,0
8500,note_on,,1,0,5,,,,,,,,,,,,,,,,7,,61,64
8509,note_on,,9,0,5,,,,,,,,,,,,,,,,7,,61,0
8510,note_on,,1,0,5,,,,,,,,,,,,,,,,7,,59,64
8519,note_on,,59,0,7,,,,,,,,,,,,,,,,11,,73,0
8519,note_on,,9,0,5,,,,,,,,,,,,,,,,7,,59,0
8519,note_on,,59,0,8,,,,,,,,,,,,,,,,12,,66,0
8519,note_on,,59,0,10,,,,,,,,,,,,,,,,15,,46,0
8519,note_on,,59,0,6,,,,,,,,,,,,,,,,10,,76,0
8519,note_on,,59,0,9,,,,,,,,,,,,,,,,13,,46,0
8520,note_on,,1,0,5,,,,,,,,,,,,,,,,7,,61,64
8520,note_on,,1,0,10,,,,,,,,,,,,,,,,15,,46,48
8520,note_on,,1,0,9,,,,,,,,,,,,,,,,13,,46,48
8520,note_on,,1,0,7,,,,,,,,,,,,,,,,11,,73,48
8520,note_on,,1,0,6,,,,,,,,,,,,,,,,10,,76,48
8520,note_on,,1,0,8,,,,,,,,,,,,,,,,12,,66,48
8579,note_on,,59,0,9,,,,,,,,,,,,,,,,13,,46,0
8579,note_on,,59,0,7,,,,,,,,,,,,,,,,11,,73,0
8579,note_on,,59,0,5,,,,,,,,,,,,,,,,7,,61,0
8579,note_on,,59,0,8,,,,,,,,,,,,,,,,12,,66,0
8579,note_on,,59,0,10,,,,,,,,,,,,,,,,15,,46,0
8579,note_on,,59,0,6,,,,,,,,,,,,,,,,10,,76,0
8580,note_on,,1,0,9,,,,,,,,,,,,,,,,13,,46,48
8580,note_on,,1,0,7,,,,,,,,,,,,,,,,11,,66,48
8580,note_on,,1,0,5,,,,,,,,,,,,,,,,7,,64,64
8580,note_on,,1,0,8,,,,,,,,,,,,,,,,12,,66,48
8580,note_on,,1,0,10,,,,,,,,,,,,,,,,15,,46,48
8580,note_on,,1,0,6,,,,,,,,,,,,,,,,10,,73,48
8639,note_on,,59,0,10,,,,,,,,,,,,,,,,15,,73,0
8639,note_on,,59,0,8,,,,,,,,,,,,,,,,12,,66,0
8639,note_on,,59,0,6,,,,,,,,,,,,,,,,10,,73,0
8639,note_on,,0,0,10,,,,,,,,,,,,,,,,15,,66,0
8639,note_on,,59,0,7,,,,,,,,,,,,,,,,11,,66,0
8639,note_on,,0,0,10,,,,,,,,,,,,,,,,15,,61,0
8639,note_on,,0,0,10,,,,,,,,,,,,,,,,15,,54,0
8639,note_on,,0,0,10,,,,,,,,,,,,,,,,15,,46,0
8639,note_on,,59,0,5,,,,,,,,,,,,,,,,7,,64,0
8639,note_on,,59,0,9,,,,,,,,,,,,,,,,13,,46,0
8640,note_on,,1,0,6,,,,,,,,,,,,,,,,10,,75,48
8640,note_on,,1,0,10,,,,,,,,,,,,,,,,15,,47,48
8640,note_on,,0,0,10,,,,,,,,,,,,,,,,15,,75,48
8640,note_on,,0,0,10,,,,,,,,,,,,,,,,15,,71,48
8640,note_on,,0,0,10,,,,,,,,,,,,,,,,15,,66,48
8640,note_on,,0,0,10,,,,,,,,,,,,,,,,15,,54,48
8640,note_on,,1,0,8,,,,,,,,,,,,,,,,12,,71,48
8640,note_on,,1,0,5,,,,,,,,,,,,,,,,7,,64,64
8640,note_on,,1,0,7,,,,,,,,,,,,,,,,11,,66,48
8640,note_on,,1,0,9,,,,,,,,,,,,,,,,13,,47,48
8669,note_on,,29,0,5,,,,,,,,,,,,,,,,7,,64,0
8670,note_on,,1,0,5,,,,,,,,,,,,,,,,7,,63,64
8699,note_on,,59,0,9,,,,,,,,,,,,,,,,13,,47,0
8699,note_on,,59,0,7,,,,,,,,,,,,,,,,11,,66,0
8699,note_on,,59,0,8,,,,,,,,,,,,,,,,12,,71,0
8699,note_on,,59,0,10,,,,,,,,,,,,,,,,15,,47,0
8699,note_on,,59,0,6,,,,,,,,,,,,,,,,10,,75,0
8700,note_on,,1,0,8,,,,,,,,,,,,,,,,12,,71,48
8700,note_on,,1,0,7,,,,,,,,,,,,,,,,11,,66,48
8700,note_on,,1,0,6,,,,,,,,,,,,,,,,10,,75,48
8700,note_on,,1,0,10,,,,,,,,,,,,,,,,15,,47,48
8700,note_on,,1,0,9,,,,,,,,,,,,,,,,13,,47,48
8729,note_on,,59,0,5,,,,,,,,,,,,,,,,7,,63,0
8730,note_on,,1,0,5,,,,,,,,,,,,,,,,7,,61,64
8759,note_on,,29,0,5,,,,,,,,,,,,,,,,7,,61,0
8759,note_on,,59,0,8,,,,,,,,,,,,,,,,12,,71,0
8759,note_on,,59,0,10,,,,,,,,,,,,,,,,15,,47,0
8759,note_on,,59,0,7,,,,,,,,,,,,,,,,11,,66,0
8759,note_on,,59,0,9,,,,,,,,,,,,,,,,13,,47,0
8759,note_on,,59,0,6,,,,,,,,,,,,,,,,10,,75,0
8760,note_on,,1,0,9,,,,,,,,,,,,,,,,13,,47,48
8760,note_on,,1,0,5,,,,,,,,,,,,,,,,7,,59,64
8760,note_on,,1,0,8,,,,,,,,,,,,,,,,12,,71,48
8760,note_on,,1,0,10,,,,,,,,,,,,,,,,15,,47,48
8760,note_on,,1,0,7,,,,,,,,,,,,,,,,11,,66,48
8760,note_on,,1,0,6,,,,,,,,,,,,,,,,10,,75,48
8819,note_on,,59,0,6,,,,,,,,,,,,,,,,10,,75,0
8819,note_on,,59,0,9,,,,,,,,,,,,,,,,13,,47,0
8819,note_on,,59,0,8,,,,,,,,,,,,,,,,12,,71,0
8819,note_on,,59,0,7,,,,,,,,,,,,,,,,11,,66,0
8819,note_on,,59,0,10,,,,,,,,,,,,,,,,15,,47,0
8820,note_on,,1,0,10,,,,,,,,,,,,,,,,15,,47,48
8820,note_on,,1,0,6,,,,,,,,,,,,,,,,10,,75,48
8820,note_on,,1,0,8,,,,,,,,,,,,,,,,12,,71,48
8820,note_on,,1,0,9,,,,,,,,,,,,,,,,13,,47,48
8820,note_on,,1,0,7,,,,,,,,,,,,,,,,11,,66,48
8879,note_on,,59,0,8,,,,,,,,,,,,,,,,12,,71,0
8879,note_on,,119,0,5,,,,,,,,,,,,,,,,7,,59,0
8879,note_on,,59,0,9,,,,,,,,,,,,,,,,13,,47,0
8879,note_on,,0,0,10,,,,,,,,,,,,,,,,15,,71,0
8879,note_on,,0,0,10,,,,,,,,,,,,,,,,15,,47,0
8879,note_on,,0,0,10,,,,,,,,,,,,,,,,15,,54,0
8879,note_on,,59,0,7,,,,,,,,,,,,,,,,11,,66,0
8879,note_on,,59,0,6,,,,,,,,,,,,,,,,10,,75,0
8879,note_on,,0,0,10,,,,,,,,,,,,,,,,15,,66,0
8879,note_on,,59,0,10,,,,,,,,,,,,,,,,15,,75,0
8880,note_on,,1,0,8,,,,,,,,,,,,,,,,12,,71,48
8880,note_on,,1,0,7,,,,,,,,,,,,,,,,11,,75,48
8880,note_on,,1,0,9,,,,,,,,,,,,,,,,13,,59,48
8880,note_on,,1,0,6,,,,,,,,,,,,,,,,10,,78,48
8880,note_on,,0,0,10,,,,,,,,,,,,,,,,15,,59,48
8880,note_on,,0,0,10,,,,,,,,,,,,,,,,15,,63,48
8880,note_on,,0,0,10,,,,,,,,,,,,,,,,15,,66,48
8880,note_on,,1,0,10,,,,,,,,,,,,,,,,15,,71,48
8969,note_on,,89,0,9,,,,,,,,,,,,,,,,13,,59,0
8969,note_on,,89,0,8,,,,,,,,,,,,,,,,12,,71,0
8969,note_on,,89,0,6,,,,,,,,,,,,,,,,10,,78,0
8969,note_on,,89,0,7,,,,,,,,,,,,,,,,11,,75,0
8970,note_on,,1,0,9,,,,,,,,,,,,,,,,13,,47,48
8970,note_on,,1,0,7,,,,,,,,,,,,,,,,11,,73,48
8970,note_on,,1,0,6,,,,,,,,,,,,,,,,10,,76,48
8970,note_on,,90,0,10,,,,,,,,,,,,,,,,15,,47,48
8970,note_on,,1,0,8,,,,,,,,,,,,,,,,12,,66,48
8999,note_on,,29,0,9,,,,,,,,,,,,,,,,13,,47,0
8999,note_on,,29,0,8,,,,,,,,,,,,,,,,12,,66,0
8999,note_on,,29,0,6,,,,,,,,,,,,,,,,10,,76,0
8999,note_on,,29,0,7,,,,,,,,,,,,,,,,11,,73,0
8999,note_on,,29,0,10,,,,,,,,,,,,,,,,15,,47,0
9000,note_on,,1,0,10,,,,,,,,,,,,,,,,15,,47,48
9000,note_on,,1,0,8,,,,,,,,,,,,,,,,12,,66,48
9000,note_on,,1,0,7,,,,,,,,,,,,,,,,11,,71,48
9000,note_on,,1,0,9,,,,,,,,,,,,,,,,13,,47,48
9000,note_on,,1,0,6,,,,,,,,,,,,,,,,10,,75,48
9060,note_on,,181,0,5,,,,,,,,,,,,,,,,7,,54,64
9119,note_on,,119,0,10,,,,,,,,,,,,,,,,15,,71,0
9119,note_on,,0,0,10,,,,,,,,,,,,,,,,15,,47,0
9119,note_on,,0,0,10,,,,,,,,,,,,,,,,15,,59,0
9119,note_on,,59,0,5,,,,,,,,,,,,,,,,7,,54,0
9119,note_on,,119,0,6,,,,,,,,,,,,,,,,10,,75,0
9119,note_on,,119,0,8,,,,,,,,,,,,,,,,12,,66,0
9119,note_on,,119,0,7,,,,,,,,,,,,,,,,11,,71,0
9119,note_on,,0,0,10,,,,,,,,,,,,,,,,15,,66,0
9119,note_on,,119,0,9,,,,,,,,,,,,,,,,13,,47,0
9119,note_on,,0,0,10,,,,,,,,,,,,,,,,15,,63,0
9120,note_on,,1,0,5,,,,,,,,,,,,,,,,7,,66,64
9239,note_on,,119,0,5,,,,,,,,,,,,,,,,7,,66,0
9240,note_on,,1,0,5,,,,,,,,,,,,,,,,7,,64,64
9269,note_on,,29,0,5,,,,,,,,,,,,,,,,7,,64,0
9270,note_on,,1,0,5,,,,,,,,,,,,,,,,7,,63,64
9299,note_on,,29,0,5,,,,,,,,,,,,,,,,7,,63,0
9300,note_on,,1,0,5,,,,,,,,,,,,,,,,7,,61,64
9329,note_on,,29,0,5,,,,,,,,,,,,,,,,7,,61,0
9330,note_on,,1,0,5,,,,,,,,,,,,,,,,7,,59,64
9359,note_on,,29,0,5,,,,,,,,,,,,,,,,7,,59,0
9360,note_on,,1,0,5,,,,,,,,,,,,,,,,7,,59,64
9464,note_on,,104,0,5,,,,,,,,,,,,,,,,7,,59,0
9480,note_on,,16,0,5,,,,,,,,,,,,,,,,7,,59,64
9539,note_on,,59,0,5,,,,,,,,,,,,,,,,7,,59,0
9540,note_on,,1,0,5,,,,,,,,,,,,,,,,7,,59,64
9599,note_on,,59,0,5,,,,,,,,,,,,,,,,7,,59,0
9600,note_on,,481,0,6,,,,,,,,,,,,,,,,10,,75,48
9600,note_on,,1,0,5,,,,,,,,,,,,,,,,7,,59,64
9600,note_on,,481,0,7,,,,,,,,,,,,,,,,11,,71,48
9600,note_on,,481,0,10,,,,,,,,,,,,,,,,15,,59,48
9600,note_on,,0,0,10,,,,,,,,,,,,,,,,15,,66,48
9600,note_on,,0,0,10,,,,,,,,,,,,,,,,15,,63,48
9600,note_on,,481,0,9,,,,,,,,,,,,,,,,13,,59,48
9600,note_on,,481,0,8,,,,,,,,,,,,,,,,12,,66,48
9659,note_on,,59,0,9,,,,,,,,,,,,,,,,13,,59,0
9659,note_on,,59,0,10,,,,,,,,,,,,,,,,15,,59,0
9659,note_on,,59,0,8,,,,,,,,,,,,,,,,12,,66,0
9659,note_on,,59,0,6,,,,,,,,,,,,,,,,10,,75,0
9659,note_on,,59,0,7,,,,,,,,,,,,,,,,11,,71,0
9660,note_on,,1,0,10,,,,,,,,,,,,,,,,15,,59,48
9660,note_on,,1,0,6,,,,,,,,,,,,,,,,10,,75,48
9660,note_on,,1,0,9,,,,,,,,,,,,,,,,13,,59,48
9660,note_on,,1,0,7,,,,,,,,,,,,,,,,11,,71,48
9660,note_on,,1,0,8,,,,,,,,,,,,,,,,12,,66,48
9719,note_on,,59,0,7,,,,,,,,,,,,,,,,11,,71,0
9719,note_on,,59,0,9,,,,,,,,,,,,,,,,13,,59,0
9719,note_on,,59,0,8,,,,,,,,,,,,,,,,12,,66,0
9719,note_on,,59,0,6,,,,,,,,,,,,,,,,10,,75,0
9719,note_on,,59,0,10,,,,,,,,,,,,,,,,15,,59,0
9720,note_on,,1,0,10,,,,,,,,,,,,,,,,15,,59,48
9720,note_on,,1,0,7,,,,,,,,,,,,,,,,11,,71,48
9720,note_on,,1,0,8,,,,,,,,,,,,,,,,12,,66,48
9720,note_on,,1,0,9,,,,,,,,,,,,,,,,13,,59,48
9720,note_on,,1,0,6,,,,,,,,,,,,,,,,10,,75,48
9779,note_on,,59,0,8,,,,,,,,,,,,,,,,12,,66,0
9779,note_on,,59,0,9,,,,,,,,,,,,,,,,13,,59,0
9779,note_on,,59,0,7,,,,,,,,,,,,,,,,11,,71,0
9779,note_on,,59,0,10,,,,,,,,,,,,,,,,15,,59,0
9779,note_on,,59,0,6,,,,,,,,,,,,,,,,10,,75,0
9779,note_on,,179,0,5,,,,,,,,,,,,,,,,7,,59,0
9780,note_on,,1,0,9,,,,,,,,,,,,,,,,13,,59,48
9780,note_on,,1,0,8,,,,,,,,,,,,,,,,12,,66,48
9780,note_on,,1,0,10,,,,,,,,,,,,,,,,15,,59,48
9780,note_on,,1,0,7,,,,,,,,,,,,,,,,11,,71,48
9780,note_on,,1,0,6,,,,,,,,,,,,,,,,10,,75,48
9780,note_on,,1,0,5,,,,,,,,,,,,,,,,7,,61,64
9809,note_on,,29,0,5,,,,,,,,,,,,,,,,7,,61,0
9810,note_on,,1,0,5,,,,,,,,,,,,,,,,7,,59,64
9839,note_on,,59,0,7,,,,,,,,,,,,,,,,11,,71,0
9839,note_on,,29,0,5,,,,,,,,,,,,,,,,7,,59,0
9839,note_on,,59,0,6,,,,,,,,,,,,,,,,10,,75,0
9839,note_on,,59,0,8,,,,,,,,,,,,,,,,12,,66,0
9839,note_on,,0,0,10,,,,,,,,,,,,,,,,15,,59,0
9839,note_on,,0,0,10,,,,,,,,,,,,,,,,15,,63,0
9839,note_on,,59,0,10,,,,,,,,,,,,,,,,15,,66,0
9839,note_on,,59,0,9,,,,,,,,,,,,,,,,13,,59,0
9840,note_on,,1,0,8,,,,,,,,,,,,,,,,12,,66,48
9840,note_on,,1,0,9,,,,,,,,,,,,,,,,13,,51,48
9840,note_on,,0,0,10,,,,,,,,,,,,,,,,15,,66,48
9840,note_on,,0,0,10,,,,,,,,,,,,,,,,15,,71,48
9840,note_on,,1,0,10,,,,,,,,,,,,,,,,15,,51,48
9840,note_on,,1,0,7,,,,,,,,,,,,,,,,11,,71,48
9840,note_on,,1,0,6,,,,,,,,,,,,,,,,10,,78,48
9840,note_on,,1,0,5,,,,,,,,,,,,,,,,7,,59,64
9840,note_on,,0,0,10,,,,,,,,,,,,,,,,15,,59,48
9899,note_on,,59,0,7,,,,,,,,,,,,,,,,11,,71,0
9899,note_on,,59,0,9,,,,,,,,,,,,,,,,13,,51,0
9899,note_on,,59,0,8,,,,,,,,,,,,,,,,12,,66,0
9899,note_on,,59,0,10,,,,,,,,,,,,,,,,15,,51,0
9900,note_on,,1,0,9,,,,,,,,,,,,,,,,13,,51,48
9900,note_on,,1,0,10,,,,,,,,,,,,,,,,15,,51,48
9900,note_on,,1,0,8,,,,,,,,,,,,,,,,12,,66,48
9900,note_on,,1,0,7,,,,,,,,,,,,,,,,11,,71,48
9959,note_on,,59,0,8,,,,,,,,,,,,,,,,12,,66,0
9959,note_on,,59,0,9,,,,,,,,,,,,,,,,13,,51,0
9959,note_on,,59,0,7,,,,,,,,,,,,,,,,11,,71,0
9959,note_on,,59,0,10,,,,,,,,,,,,,,,,15,,51,0
9960,note_on,,1,0,10,,,,,,,,,,,,,,,,15,,51,48
9960,note_on,,1,0,8,,,,,,,,,,,,,,,,12,,66,48
9960,note_on,,1,0,7,,,,,,,,,,,,,,,,11,,71,48
9960,note_on,,1,0,9,,,,,,,,,,,,,,,,13,,51,48
10019,note_on,,59,0,8,,,,,,,,,,,,,,,,12,,66,0
10019,note_on,,59,0,9,,,,,,,,,,,,,,,,13,,51,0
10019,note_on,,179,0,5,,,,,,,,,,,,,,,,7,,59,0
10019,note_on,,59,0,7,,,,,,,,,,,,,,,,11,,71,0
10019,note_on,,59,0,10,,,,,,,,,,,,,,,,15,,51,0
10020,note_on,,1,0,9,,,,,,,,,,,,,,,,13,,51,48
10020,note_on,,1,0,10,,,,,,,,,,,,,,,,15,,51,48
10020,note_on,,1,0,5,,,,,,,,,,,,,,,,7,,59,64
10020,note_on,,1,0,8,,,,,,,,,,,,,,,,12,,66,48
10020,note_on,,1,0,7,,,,,,,,,,,,,,,,11,,71,48
10049,note_on,,209,0,6,,,,,,,,,,,,,,,,10,,78,0
10050,note_on,,1,0,6,,,,,,,,,,,,,,,,10,,76,48
10064,note_on,,14,0,6,,,,,,,,,,,,,,,,10,,76,0
10065,note_on,,1,0,6,,,,,,,,,,,,,,,,10,,75,48
10079,note_on,,0,0,10,,,,,,,,,,,,,,,,15,,51,0
10079,note_on,,0,0,10,,,,,,,,,,,,,,,,15,,59,0
10079,note_on,,0,0,10,,,,,,,,,,,,,,,,15,,66,0
10079,note_on,,59,0,8,,,,,,,,,,,,,,,,12,,66,0
10079,note_on,,59,0,10,,,,,,,,,,,,,,,,15,,71,0
10079,note_on,,14,0,6,,,,,,,,,,,,,,,,10,,75,0
10079,note_on,,59,0,9,,,,,,,,,,,,,,,,13,,51,0
10079,note_on,,59,0,7,,,,,,,,,,,,,,,,11,,71,0
10079,note_on,,59,0,5,,,,,,,,,,,,,,,,7,,59,0
10080,note_on,,1,0,8,,,,,,,,,,,,,,,,12,,56,48
10080,note_on,,1,0,6,,,,,,,,,,,,,,,,10,,73,48
10080,note_on,,1,0,10,,,,,,,,,,,,,,,,15,,52,48
10080,note_on,,1,0,7,,,,,,,,,,,,,,,,11,,71,48
10080,note_on,,0,0,10,,,,,,,,,,,,,,,,15,,71,48
10080,note_on,,1,0,9,,,,,,,,,,,,,,,,13,,52,48
10080,note_on,,0,0,10,,,,,,,,,,,,,,,,15,,61,48
10080,note_on,,0,0,10,,,,,,,,,,,,,,,,15,,56,48
10080,note_on,,1,0,5,,,,,,,,,,,,,,,,7,,61,64
10139,note_on,,59,0,9,,,,,,,,,,,,,,,,13,,52,0
10139,note_on,,59,0,6,,,,,,,,,,,,,,,,10,,73,0
10139,note_on,,59,0,8,,,,,,,,,,,,,,,,12,,56,0
10139,note_on,,59,0,7,,,,,,,,,,,,,,,,11,,71,0
10139,note_on,,59,0,10,,,,,,,,,,,,,,,,15,,52,0
10140,note_on,,1,0,10,,,,,,,,,,,,,,,,15,,52,48
10140,note_on,,1,0,9,,,,,,,,,,,,,,,,13,,52,48
10140,note_on,,1,0,8,,,,,,,,,,,,,,,,12,,56,48
10140,note_on,,1,0,6,,,,,,,,,,,,,,,,10,,73,48
10140,note_on,,1,0,7,,,,,,,,,,,,,,,,11,,71,48
10199,note_on,,59,0,7,,,,,,,,,,,,,,,,11,,71,0
10199,note_on,,59,0,6,,,,,,,,,,,,,,,,10,,73,0
10199,note_on,,59,0,8,,,,,,,,,,,,,,,,12,,56,0
10199,note_on,,59,0,9,,,,,,,,,,,,,,,,13,,52,0
10199,note_on,,59,0,10,,,,,,,,,,,,,,,,15,,52,0
10200,note_on,,1,0,6,,,,,,,,,,,,,,,,10,,73,48
10200,note_on,,1,0,8,,,,,,,,,,,,,,,,12,,68,48
10200,note_on,,1,0,7,,,,,,,,,,,,,,,,11,,71,48
10200,note_on,,1,0,9,,,,,,,,,,,,,,,,13,,52,48
10200,note_on,,1,0,10,,,,,,,,,,,,,,,,15,,52,48
10259,note_on,,59,0,7,,,,,,,,,,,,,,,,11,,71,0
10259,note_on,,179,0,5,,,,,,,,,,,,,,,,7,,61,0
10259,note_on,,59,0,8,,,,,,,,,,,,,,,,12,,68,0
10259,note_on,,59,0,6,,,,,,,,,,,,,,,,10,,73,0
10259,note_on,,59,0,10,,,,,,,,,,,,,,,,15,,52,0
10259,note_on,,59,0,9,,,,,,,,,,,,,,,,13,,52,0
10260,note_on,,1,0,6,,,,,,,,,,,,,,,,10,,73,48
10260,note_on,,1,0,8,,,,,,,,,,,,,,,,12,,68,48
10260,note_on,,1,0,10,,,,,,,,,,,,,,,,15,,52,48
10260,note_on,,1,0,7,,,,,,,,,,,,,,,,11,,71,48
10260,note_on,,1,0,9,,,,,,,,,,,,,,,,13,,52,48
10260,note_on,,1,0,5,,,,,,,,,,,,,,,,7,,63,64
10289,note_on,,29,0,5,,,,,,,,,,,,,,,,7,,63,0
10290,note_on,,1,0,5,,,,,,,,,,,,,,,,7,,61,64
10319,note_on,,29,0,5,,,,,,,,,,,,,,,,7,,61,0
10319,note_on,,59,0,6,,,,,,,,,,,,,,,,10,,73,0
10319,note_on,,59,0,9,,,,,,,,,,,,,,,,13,,52,0
10319,note_on,,59,0,7,,,,,,,,,,,,,,,,11,,71,0
10319,note_on,,59,0,8,,,,,,,,,,,,,,,,12,,68,0
10319,note_on,,0,0,10,,,,,,,,,,,,,,,,15,,52,0
10319,note_on,,0,0,10,,,,,,,,,,,,,,,,15,,56,0
10319,note_on,,0,0,10,,,,,,,,,,,,,,,,15,,61,0
10319,note_on,,59,0,10,,,,,,,,,,,,,,,,15,,71,0
10320,note_on,,1,0,9,,,,,,,,,,,,,,,,13,,54,48
10320,note_on,,0,0,10,,,,,,,,,,,,,,,,15,,66,48
10320,note_on,,0,0,10,,,,,,,,,,,,,,,,15,,61,48
10320,note_on,,0,0,10,,,,,,,,,,,,,,,,15,,58,48
10320,note_on,,1,0,5,,,,,,,,,,,,,,,,7,,61,64
10320,note_on,,1,0,6,,,,,,,,,,,,,,,,10,,73,48
10320,note_on,,1,0,8,,,,,,,,,,,,,,,,12,,66,48
10320,note_on,,1,0,10,,,,,,,,,,,,,,,,15,,54,48
10320,note_on,,1,0,7,,,,,,,,,,,,,,,,11,,69,48
10379,note_on,,59,0,6,,,,,,,,,,,,,,,,10,,73,0
10379,note_on,,59,0,8,,,,,,,,,,,,,,,,12,,66,0
10379,note_on,,59,0,7,,,,,,,,,,,,,,,,11,,69,0
10379,note_on,,59,0,10,,,,,,,,,,,,,,,,15,,54,0
10379,note_on,,59,0,9,,,,,,,,,,,,,,,,13,,54,0
10380,note_on,,1,0,9,,,,,,,,,,,,,,,,13,,54,48
10380,note_on,,1,0,8,,,,,,,,,,,,,,,,12,,66,48
10380,note_on,,1,0,10,,,,,,,,,,,,,,,,15,,54,48
10380,note_on,,1,0,7,,,,,,,,,,,,,,,,11,,69,48
10380,note_on,,1,0,6,,,,,,,,,,,,,,,,10,,73,48
10439,note_on,,119,0,5,,,,,,,,,,,,,,,,7,,61,0
10439,note_on,,59,0,7,,,,,,,,,,,,,,,,11,,69,0
10439,note_on,,59,0,6,,,,,,,,,,,,,,,,10,,73,0
10439,note_on,,59,0,8,,,,,,,,,,,,,,,,12,,66,0
10439,note_on,,59,0,9,,,,,,,,,,,,,,,,13,,54,0
10439,note_on,,59,0,10,,,,,,,,,,,,,,,,15,,54,0
10440,note_on,,1,0,5,,,,,,,,,,,,,,,,7,,63,64
10440,note_on,,1,0,9,,,,,,,,,,,,,,,,13,,54,48
10440,note_on,,1,0,10,,,,,,,,,,,,,,,,15,,54,48
10440,note_on,,1,0,8,,,,,,,,,,,,,,,,12,,66,48
10440,note_on,,1,0,6,,,,,,,,,,,,,,,,10,,73,48
10440,note_on,,1,0,7,,,,,,,,,,,,,,,,11,,69,48
10499,note_on,,59,0,6,,,,,,,,,,,,,,,,10,,73,0
10499,note_on,,59,0,8,,,,,,,,,,,,,,,,12,,66,0
10499,note_on,,59,0,9,,,,,,,,,,,,,,,,13,,54,0
10499,note_on,,59,0,10,,,,,,,,,,,,,,,,15,,54,0
10499,note_on,,59,0,7,,,,,,,,,,,,,,,,11,,69,0
10500,note_on,,1,0,10,,,,,,,,,,,,,,,,15,,54,48
10500,note_on,,1,0,9,,,,,,,,,,,,,,,,13,,54,48
10500,note_on,,1,0,6,,,,,,,,,,,,,,,,10,,73,48
10500,note_on,,1,0,8,,,,,,,,,,,,,,,,12,,66,48
10500,note_on,,1,0,7,,,,,,,,,,,,,,,,11,,69,48
10529,note_on,,89,0,5,,,,,,,,,,,,,,,,7,,63,0
10530,note_on,,1,0,5,,,,,,,,,,,,,,,,7,,64,64
10559,note_on,,29,0,5,,,,,,,,,,,,,,,,7,,64,0
10559,note_on,,0,0,10,,,,,,,,,,,,,,,,15,,58,0
10559,note_on,,0,0,10,,,,,,,,,,,,,,,,15,,61,0
10559,note_on,,59,0,10,,,,,,,,,,,,,,,,15,,66,0
10559,note_on,,59,0,9,,,,,,,,,,,,,,,,13,,54,0
10559,note_on,,59,0,6,,,,,,,,,,,,,,,,10,,73,0
10559,note_on,,59,0,7,,,,,,,,,,,,,,,,11,,69,0
10559,note_on,,59,0,8,,,,,,,,,,,,,,,,12,,66,0
10559,note_on,,0,0,10,,,,,,,,,,,,,,,,15,,54,0
10560,note_on,,0,0,10,,,,,,,,,,,,,,,,15,,63,48
10560,note_on,,0,0,10,,,,,,,,,,,,,,,,15,,59,48
10560,note_on,,1,0,9,,,,,,,,,,,,,,,,13,,59,48
10560,note_on,,1,0,8,,,,,,,,,,,,,,,,12,,66,48
10560,note_on,,1,0,6,,,,,,,,,,,,,,,,10,,75,48
10560,note_on,,1,0,10,,,,,,,,,,,,,,,,15,,66,48
10560,note_on,,1,0,5,,,,,,,,,,,,,,,,7,,63,64
10560,note_on,,1,0,7,,,,,,,,,,,,,,,,11,,78,48
10589,note_on,,29,0,5,,,,,,,,,,,,,,,,7,,63,0
10590,note_on,,1,0,5,,,,,,,,,,,,,,,,7,,61,64
10619,note_on,,29,0,5,,,,,,,,,,,,,,,,7,,61,0
10620,note_on,,1,0,5,,,,,,,,,,,,,,,,7,,59,64
10649,note_on,,89,0,9,,,,,,,,,,,,,,,,13,,59,0
10649,note_on,,89,0,6,,,,,,,,,,,,,,,,10,,75,0
10649,note_on,,89,0,8,,,,,,,,,,,,,,,,12,,66,0
10649,note_on,,89,0,7,,,,,,,,,,,,,,,,11,,78,0
10650,note_on,,1,0,7,,,,,,,,,,,,,,,,11,,76,48
10650,note_on,,1,0,6,,,,,,,,,,,,,,,,10,,73,48
10650,note_on,,1,0,9,,,,,,,,,,,,,,,,13,,47,48
10650,note_on,,90,0,10,,,,,,,,,,,,,,,,15,,47,48
10650,note_on,,1,0,8,,,,,,,,,,,,,,,,12,,66,48
10679,note_on,,29,0,7,,,,,,,,,,,,,,,,11,,76,0
10679,note_on,,29,0,9,,,,,,,,,,,,,,,,13,,47,0
10679,note_on,,29,0,6,,,,,,,,,,,,,,,,10,,73,0
10679,note_on,,29,0,10,,,,,,,,,,,,,,,,15,,47,0
10679,note_on,,59,0,5,,,,,,,,,,,,,,,,7,,59,0
10679,note_on,,29,0,8,,,,,,,,,,,,,,,,12,,66,0
10680,note_on,,1,0,8,,,,,,,,,,,,,,,,12,,66,48
10680,note_on,,1,0,10,,,,,,,,,,,,,,,,15,,47,48
10680,note_on,,1,0,7,,,,,,,,,,,,,,,,11,,75,48
10680,note_on,,1,0,6,,,,,,,,,,,,,,,,10,,71,48
10680,note_on,,1,0,9,,,,,,,,,,,,,,,,13,,47,48
10799,note_on,,119,0,6,,,,,,,,,,,,,,,,10,,71,0
10799,note_on,,119,0,8,,,,,,,,,,,,,,,,12,,66,0
10799,note_on,,0,0,10,,,,,,,,,,,,,,,,15,,47,0
10799,note_on,,0,0,10,,,,,,,,,,,,,,,,15,,59,0
10799,note_on,,0,0,10,,,,,,,,,,,,,,,,15,,63,0
10799,note_on,,119,0,10,,,,,,,,,,,,,,,,15,,66,0
10799,note_on,,119,0,9,,,,,,,,,,,,,,,,13,,47,0
10799,note_on,,119,0,7,,,,,,,,,,,,,,,,11,,75,0
10800,note_on,,1,0,8,,,,,,,,,,,,,,,,12,,59,48
10800,note_on,,1,0,6,,,,,,,,,,,,,,,,10,,66,48
10800,note_on,,1,0,7,,,,,,,,,,,,,,,,11,,63,48
10860,note_on,,181,0,5,,,,,,,,,,,,,,,,7,,59,64
10889,note_on,,89,0,8,,,,,,,,,,,,,,,,12,,59,0
10889,note_on,,89,0,7,,,,,,,,,,,,,,,,11,,63,0
10889,note_on,,89,0,6,,,,,,,,,,,,,,,,10,,66,0
10890,note_on,,1,0,6,,,,,,,,,,,,,,,,10,,64,48
10890,note_on,,1,0,7,,,,,,,,,,,,,,,,11,,61,48
10890,note_on,,1,0,8,,,,,,,,,,,,,,,,12,,61,48
10919,note_on,,29,0,7,,,,,,,,,,,,,,,,11,,61,0
10919,note_on,,59,0,5,,,,,,,,,,,,,,,,7,,59,0
10919,note_on,,29,0,6,,,,,,,,,,,,,,,,10,,64,0
10919,note_on,,29,0,8,,,,,,,,,,,,,,,,12,,61,0
10920,note_on,,1,0,7,,,,,,,,,,,,,,,,11,,59,48
10920,note_on,,1,0,5,,,,,,,,,,,,,,,,7,,59,64
10920,note_on,,1,0,8,,,,,,,,,,,,,,,,12,,63,48
10920,note_on,,1,0,6,,,,,,,,,,,,,,,,10,,63,48
10979,note_on,,59,0,5,,,,,,,,,,,,,,,,7,,59,0
10980,note_on,,1,0,5,,,,,,,,,,,,,,,,7,,59,64
11039,note_on,,59,0,5,,,,,,,,,,,,,,,,7,,59,0
11039,note_on,,119,0,6,,,,,,,,,,,,,,,,10,,63,0
11039,note_on,,119,0,7,,,,,,,,,,,,,,,,11,,59,0
11039,note_on,,119,0,8,,,,,,,,,,,,,,,,12,,63,0
11040,note_on,,241,0,10,,,,,,,,,,,,,,,,15,,44,48
11040,note_on,,241,0,9,,,,,,,,,,,,,,,,13,,44,48
11040,note_on,,0,0,10,,,,,,,,,,,,,,,,15,,68,48
11040,note_on,,0,0,10,,,,,,,,,,,,,,,,15,,65,48
11040,note_on,,1,0,5,,,,,,,,,,,,,,,,7,,65,64
11040,note_on,,1,0,6,,,,,,,,,,,,,,,,10,,65,48
11040,note_on,,0,0,10,,,,,,,,,,,,,,,,15,,59,48
11040,note_on,,1,0,8,,,,,,,,,,,,,,,,12,,59,48
11040,note_on,,1,0,7,,,,,,,,,,,,,,,,11,,71,48
11219,note_on,,179,0,5,,,,,,,,,,,,,,,,7,,65,0
11220,note_on,,1,0,5,,,,,,,,,,,,,,,,7,,65,64
11279,note_on,,59,0,5,,,,,,,,,,,,,,,,7,,65,0
11280,note_on,,1,0,5,,,,,,,,,,,,,,,,7,,65,64
11399,note_on,,119,0,5,,,,,,,,,,,,,,,,7,,65,0
11460,note_on,,61,0,5,,,,,,,,,,,,,,,,7,,66,64
11519,note_on,,479,0,6,,,,,,,,,,,,,,,,10,,65,0
11519,note_on,,479,0,8,,,,,,,,,,,,,,,,12,,59,0
11519,note_on,,479,0,10,,,,,,,,,,,,,,,,15,,44,0
11519,note_on,,479,0,9,,,,,,,,,,,,,,,,13,,44,0
11519,note_on,,0,0,10,,,,,,,,,,,,,,,,15,,68,0
11519,note_on,,0,0,10,,,,,,,,,,,,,,,,15,,65,0
11519,note_on,,59,0,5,,,,,,,,,,,,,,,,7,,66,0
11519,note_on,,0,0,10,,,,,,,,,,,,,,,,15,,59,0
11519,note_on,,479,0,7,,,,,,,,,,,,,,,,11,,71,0
11520,note_on,,1,0,10,,,,,,,,,,,,,,,,15,,42,48
11520,note_on,,0,0,10,,,,,,,,,,,,,,,,15,,61,48
11520,note_on,,1,0,7,,,,,,,,,,,,,,,,11,,70,48
11520,note_on,,1,0,5,,,,,,,,,,,,,,,,7,,58,64
11520,note_on,,1,0,6,,,,,,,,,,,,,,,,10,,66,48
11520,note_on,,1,0,8,,,,,,,,,,,,,,,,12,,61,48
11520,note_on,,1,0,9,,,,,,,,,,,,,,,,13,,42,48
11520,note_on,,0,0,10,,,,,,,,,,,,,,,,15,,58,48
11520,note_on,,0,0,10,,,,,,,,,,,,,,,,15,,54,48
11579,note_on,,59,0,5,,,,,,,,,,,,,,,,7,,58,0
11579,note_on,,59,0,7,,,,,,,,,,,,,,,,11,,70,0
11579,note_on,,59,0,6,,,,,,,,,,,,,,,,10,,66,0
11579,note_on,,59,0,10,,,,,,,,,,,,,,,,15,,42,0
11579,note_on,,59,0,9,,,,,,,,,,,,,,,,13,,42,0
11579,note_on,,59,0,8,,,,,,,,,,,,,,,,12,,61,0
11580,note_on,,1,0,5,,,,,,,,,,,,,,,,7,,58,64
11580,note_on,,1,0,10,,,,,,,,,,,,,,,,15,,42,48
11580,note_on,,1,0,6,,,,,,,,,,,,,,,,10,,66,48
11580,note_on,,1,0,8,,,,,,,,,,,,,,,,12,,61,48
11580,note_on,,1,0,7,,,,,,,,,,,,,,,,11,,70,48
11580,note_on,,1,0,9,,,,,,,,,,,,,,,,13,,42,48
11639,note_on,,59,0,7,,,,,,,,,,,,,,,,11,,70,0
11639,note_on,,59,0,10,,,,,,,,,,,,,,,,15,,42,0
11639,note_on,,59,0,9,,,,,,,,,,,,,,,,13,,42,0
11639,note_on,,59,0,8,,,,,,,,,,,,,,,,12,,61,0
11639,note_on,,59,0,5,,,,,,,,,,,,,,,,7,,58,0
11639,note_on,,59,0,6,,,,,,,,,,,,,,,,10,,66,0
11640,note_on,,1,0,7,,,,,,,,,,,,,,,,11,,70,48
11640,note_on,,1,0,10,,,,,,,,,,,,,,,,15,,42,48
11640,note_on,,1,0,9,,,,,,,,,,,,,,,,13,,42,48
11640,note_on,,1,0,6,,,,,,,,,,,,,,,,10,,66,48
11640,note_on,,1,0,8,,,,,,,,,,,,,,,,12,,61,48
11699,note_on,,59,0,8,,,,,,,,,,,,,,,,12,,61,0
11699,note_on,,59,0,7,,,,,,,,,,,,,,,,11,,70,0
11699,note_on,,59,0,9,,,,,,,,,,,,,,,,13,,42,0
11699,note_on,,59,0,6,,,,,,,,,,,,,,,,10,,66,0
11699,note_on,,59,0,10,,,,,,,,,,,,,,,,15,,42,0
11700,note_on,,1,0,8,,,,,,,,,,,,,,,,12,,61,48
11700,note_on,,1,0,7,,,,,,,,,,,,,,,,11,,70,48
11700,note_on,,1,0,9,,,,,,,,,,,,,,,,13,,42,48
11700,note_on,,1,0,10,,,,,,,,,,,,,,,,15,,42,48
11700,note_on,,1,0,6,,,,,,,,,,,,,,,,10,,66,48
11759,note_on,,59,0,6,,,,,,,,,,,,,,,,10,,66,0
11759,note_on,,59,0,7,,,,,,,,,,,,,,,,11,,70,0
11759,note_on,,59,0,9,,,,,,,,,,,,,,,,13,,42,0
11759,note_on,,0,0,10,,,,,,,,,,,,,,,,15,,42,0
11759,note_on,,0,0,10,,,,,,,,,,,,,,,,15,,54,0
11759,note_on,,0,0,10,,,,,,,,,,,,,,,,15,,58,0
11759,note_on,,59,0,10,,,,,,,,,,,,,,,,15,,61,0
11759,note_on,,59,0,8,,,,,,,,,,,,,,,,12,,61,0
11760,note_on,,1,0,7,,,,,,,,,,,,,,,,11,,70,48
11760,note_on,,1,0,8,,,,,,,,,,,,,,,,12,,61,48
11760,note_on,,1,0,6,,,,,,,,,,,,,,,,10,,73,48
11760,note_on,,1,0,9,,,,,,,,,,,,,,,,13,,42,48
11760,note_on,,1,0,10,,,,,,,,,,,,,,,,15,,42,48
11760,note_on,,0,0,10,,,,,,,,,,,,,,,,15,,70,48
11760,note_on,,0,0,10,,,,,,,,,,,,,,,,15,,54,48
11760,note_on,,0,0,10,,,,,,,,,,,,,,,,15,,61,48
11760,note_on,,0,0,10,,,,,,,,,,,,,,,,15,,66,48
11820,note_on,,181,0,5,,,,,,,,,,,,,,,,7,,54,64
11879,note_on,,119,0,8,,,,,,,,,,,,,,,,12,,61,0
11879,note_on,,59,0,5,,,,,,,,,,,,,,,,7,,54,0
11879,note_on,,119,0,10,,,,,,,,,,,,,,,,15,,42,0
11879,note_on,,119,0,7,,,,,,,,,,,,,,,,11,,70,0
11879,note_on,,119,0,9,,,,,,,,,,,,,,,,13,,42,0
11879,note_on,,0,0,10,,,,,,,,,,,,,,,,15,,61,0
11879,note_on,,0,0,10,,,,,,,,,,,,,,,,15,,54,0
11879,note_on,,119,0,6,,,,,,,,,,,,,,,,10,,73,0
11879,note_on,,0,0,10,,,,,,,,,,,,,,,,15,,66,0
11879,note_on,,0,0,10,,,,,,,,,,,,,,,,15,,70,0
11880,note_on,,1,0,5,,,,,,,,,,,,,,,,7,,58,64
11939,note_on,,59,0,5,,,,,,,,,,,,,,,,7,,58,0
11940,note_on,,1,0,5,,,,,,,,,,,,,,,,7,,61,64
11999,note_on,,59,0,5,,,,,,,,,,,,,,,,7,,61,0
12000,note_on,,1,0,5,,,,,,,,,,,,,,,,7,,64,64
12059,note_on,,59,0,5,,,,,,,,,,,,,,,,7,,64,0
12060,note_on,,1,0,5,,,,,,,,,,,,,,,,7,,61,64
12060,note_on,,0,0,10,,,,,,,,,,,,,,,,15,,61,48
12060,note_on,,0,0,10,,,,,,,,,,,,,,,,15,,66,48
12060,note_on,,181,0,9,,,,,,,,,,,,,,,,13,,58,48
12060,note_on,,181,0,10,,,,,,,,,,,,,,,,15,,58,48
12060,note_on,,0,0,10,,,,,,,,,,,,,,,,15,,73,48
12119,note_on,,59,0,10,,,,,,,,,,,,,,,,15,,58,0
12119,note_on,,0,0,10,,,,,,,,,,,,,,,,15,,73,0
12119,note_on,,0,0,10,,,,,,,,,,,,,,,,15,,66,0
12119,note_on,,0,0,10,,,,,,,,,,,,,,,,15,,61,0
12119,note_on,,59,0,9,,,,,,,,,,,,,,,,13,,58,0
12119,note_on,,59,0,5,,,,,,,,,,,,,,,,7,,61,0
12120,note_on,,1,0,9,,,,,,,,,,,,,,,,13,,59,48
12120,note_on,,1,0,5,,,,,,,,,,,,,,,,7,,64,64
12120,note_on,,0,0,10,,,,,,,,,,,,,,,,15,,66,48
12120,note_on,,0,0,10,,,,,,,,,,,,,,,,15,,63,48
12120,note_on,,1,0,10,,,,,,,,,,,,,,,,15,,59,48
12149,note_on,,29,0,5,,,,,,,,,,,,,,,,7,,64,0
12150,note_on,,1,0,5,,,,,,,,,,,,,,,,7,,63,64
12179,note_on,,59,0,10,,,,,,,,,,,,,,,,15,,59,0
12179,note_on,,59,0,9,,,,,,,,,,,,,,,,13,,59,0
12179,note_on,,29,0,5,,,,,,,,,,,,,,,,7,,63,0
12179,note_on,,0,0,10,,,,,,,,,,,,,,,,15,,66,0
12179,note_on,,0,0,10,,,,,,,,,,,,,,,,15,,63,0
12180,note_on,,1,0,5,,,,,,,,,,,,,,,,7,,61,64
12180,note_on,,1,0,10,,,,,,,,,,,,,,,,15,,56,48
12180,note_on,,0,0,10,,,,,,,,,,,,,,,,15,,59,48
12180,note_on,,0,0,10,,,,,,,,,,,,,,,,15,,65,48
12180,note_on,,0,0,10,,,,,,,,,,,,,,,,15,,71,48
12180,note_on,,1,0,9,,,,,,,,,,,,,,,,13,,56,48
12209,note_on,,29,0,5,,,,,,,,,,,,,,,,7,,61,0
12210,note_on,,1,0,5,,,,,,,,,,,,,,,,7,,59,64
12239,note_on,,0,0,10,,,,,,,,,,,,,,,,15,,71,0
12239,note_on,,59,0,10,,,,,,,,,,,,,,,,15,,56,0
12239,note_on,,59,0,9,,,,,,,,,,,,,,,,13,,56,0
12239,note_on,,0,0,10,,,,,,,,,,,,,,,,15,,59,0
12239,note_on,,0,0,10,,,,,,,,,,,,,,,,15,,65,0
12239,note_on,,29,0,5,,,,,,,,,,,,,,,,7,,59,0
12240,note_on,,1,0,5,,,,,,,,,,,,,,,,7,,63,64
12240,note_on,,0,0,10,,,,,,,,,,,,,,,,15,,71,48
12240,note_on,,0,0,10,,,,,,,,,,,,,,,,15,,66,48
12240,note_on,,0,0,10,,,,,,,,,,,,,,,,15,,61,48
12240,note_on,,1,0,9,,,,,,,,,,,,,,,,13,,54,48
12240,note_on,,1,0,10,,,,,,,,,,,,,,,,15,,54,48
12359,note_on,,119,0,10,,,,,,,,,,,,,,,,15,,54,0
12359,note_on,,0,0,10,,,,,,,,,,,,,,,,15,,71,0
12359,note_on,,0,0,10,,,,,,,,,,,,,,,,15,,66,0
12359,note_on,,0,0,10,,,,,,,,,,,,,,,,15,,61,0
12359,note_on,,119,0,9,,,,,,,,,,,,,,,,13,,54,0
12359,note_on,,119,0,5,,,,,,,,,,,,,,,,7,,63,0
12360,note_on,,0,0,10,,,,,,,,,,,,,,,,15,,66,48
12360,note_on,,0,0,10,,,,,,,,,,,,,,,,15,,61,48
12360,note_on,,1,0,9,,,,,,,,,,,,,,,,13,,42,48
12360,note_on,,1,0,10,,,,,,,,,,,,,,,,15,,42,48
12360,note_on,,0,0,10,,,,,,,,,,,,,,,,15,,70,48
12360,note_on,,0,0,10,,,,,,,,,,,,,,,,15,,54,48
12360,note_on,,1,0,5,,,,,,,,,,,,,,,,7,,61,64
12374,note_on,,14,0,5,,,,,,,,,,,,,,,,7,,61,0
12375,note_on,,1,0,5,,,,,,,,,,,,,,,,7,,63,64
12389,note_on,,14,0,5,,,,,,,,,,,,,,,,7,,63,0
12390,note_on,,1,0,5,,,,,,,,,,,,,,,,7,,61,64
12404,note_on,,14,0,5,,,,,,,,,,,,,,,,7,,61,0
12405,note_on,,1,0,5,,,,,,,,,,,,,,,,7,,63,64
12419,note_on,,14,0,5,,,,,,,,,,,,,,,,7,,63,0
12420,note_on,,1,0,5,,,,,,,,,,,,,,,,7,,61,64
12449,note_on,,29,0,5,,,,,,,,,,,,,,,,7,,61,0
12450,note_on,,1,0,5,,,,,,,,,,,,,,,,7,,59,64
12479,note_on,,0,0,10,,,,,,,,,,,,,,,,15,,70,0
12479,note_on,,29,0,5,,,,,,,,,,,,,,,,7,,59,0
12479,note_on,,119,0,9,,,,,,,,,,,,,,,,13,,42,0
12479,note_on,,119,0,10,,,,,,,,,,,,,,,,15,,42,0
12479,note_on,,0,0,10,,,,,,,,,,,,,,,,15,,54,0
12479,note_on,,0,0,10,,,,,,,,,,,,,,,,15,,61,0
12479,note_on,,0,0,10,,,,,,,,,,,,,,,,15,,66,0
12480,note_on,,0,0,10,,,,,,,,,,,,,,,,15,,71,48
12480,note_on,,0,0,10,,,,,,,,,,,,,,,,15,,66,48
12480,note_on,,0,0,10,,,,,,,,,,,,,,,,15,,63,48
12480,note_on,,1,0,5,,,,,,,,,,,,,,,,7,,59,64
12480,note_on,,1,0,9,,,,,,,,,,,,,,,,13,,59,48
12480,note_on,,601,0,7,,,,,,,,,,,,,,,,11,,71,48
12480,note_on,,601,0,6,,,,,,,,,,,,,,,,10,,75,48
12480,note_on,,1,0,10,,,,,,,,,,,,,,,,15,,59,48
12480,note_on,,601,0,8,,,,,,,,,,,,,,,,12,,66,48
12539,note_on,,59,0,9,,,,,,,,,,,,,,,,13,,59,0
12539,note_on,,59,0,7,,,,,,,,,,,,,,,,11,,71,0
12539,note_on,,59,0,10,,,,,,,,,,,,,,,,15,,59,0
12539,note_on,,59,0,6,,,,,,,,,,,,,,,,10,,75,0
12539,note_on,,59,0,8,,,,,,,,,,,,,,,,12,,66,0
12540,note_on,,1,0,10,,,,,,,,,,,,,,,,15,,59,48
12540,note_on,,1,0,9,,,,,,,,,,,,,,,,13,,59,48
12540,note_on,,1,0,6,,,,,,,,,,,,,,,,10,,75,48
12540,note_on,,1,0,7,,,,,,,,,,,,,,,,11,,71,48
12540,note_on,,1,0,8,,,,,,,,,,,,,,,,12,,66,48
12599,note_on,,59,0,8,,,,,,,,,,,,,,,,12,,66,0
12599,note_on,,59,0,10,,,,,,,,,,,,,,,,15,,59,0
12599,note_on,,59,0,6,,,,,,,,,,,,,,,,10,,75,0
12599,note_on,,119,0,5,,,,,,,,,,,,,,,,7,,59,0
12599,note_on,,59,0,9,,,,,,,,,,,,,,,,13,,59,0
12599,note_on,,59,0,7,,,,,,,,,,,,,,,,11,,71,0
12600,note_on,,1,0,8,,,,,,,,,,,,,,,,12,,66,48
12600,note_on,,1,0,10,,,,,,,,,,,,,,,,15,,59,48
12600,note_on,,1,0,6,,,,,,,,,,,,,,,,10,,75,48
12600,note_on,,1,0,9,,,,,,,,,,,,,,,,13,,59,48
12600,note_on,,1,0,7,,,,,,,,,,,,,,,,11,,71,48
12659,note_on,,59,0,7,,,,,,,,,,,,,,,,11,,71,0
12659,note_on,,59,0,9,,,,,,,,,,,,,,,,13,,59,0
12659,note_on,,59,0,6,,,,,,,,,,,,,,,,10,,75,0
12659,note_on,,59,0,8,,,,,,,,,,,,,,,,12,,66,0
12659,note_on,,59,0,10,,,,,,,,,,,,,,,,15,,59,0
12660,note_on,,1,0,7,,,,,,,,,,,,,,,,11,,71,48
12660,note_on,,1,0,10,,,,,,,,,,,,,,,,15,,59,48
12660,note_on,,1,0,8,,,,,,,,,,,,,,,,12,,66,48
12660,note_on,,1,0,9,,,,,,,,,,,,,,,,13,,59,48
12660,note_on,,1,0,6,,,,,,,,,,,,,,,,10,,75,48
12719,note_on,,59,0,9,,,,,,,,,,,,,,,,13,,59,0
12719,note_on,,59,0,7,,,,,,,,,,,,,,,,11,,71,0
12719,note_on,,59,0,10,,,,,,,,,,,,,,,,15,,71,0
12719,note_on,,0,0,10,,,,,,,,,,,,,,,,15,,66,0
12719,note_on,,0,0,10,,,,,,,,,,,,,,,,15,,63,0
12719,note_on,,0,0,10,,,,,,,,,,,,,,,,15,,59,0
12719,note_on,,59,0,8,,,,,,,,,,,,,,,,12,,66,0
12719,note_on,,59,0,6,,,,,,,,,,,,,,,,10,,75,0
12720,note_on,,0,0,10,,,,,,,,,,,,,,,,15,,75,48
12720,note_on,,0,0,10,,,,,,,,,,,,,,,,15,,66,48
12720,note_on,,0,0,10,,,,,,,,,,,,,,,,15,,71,48
12720,note_on,,1,0,7,,,,,,,,,,,,,,,,11,,71,48
12720,note_on,,1,0,8,,,,,,,,,,,,,,,,12,,66,48
12720,note_on,,1,0,9,,,,,,,,,,,,,,,,13,,51,48
12720,note_on,,1,0,6,,,,,,,,,,,,,,,,10,,78,48
12720,note_on,,1,0,10,,,,,,,,,,,,,,,,15,,51,48
12720,note_on,,0,0,10,,,,,,,,,,,,,,,,15,,59,48
12779,note_on,,59,0,8,,,,,,,,,,,,,,,,12,,66,0
12779,note_on,,59,0,7,,,,,,,,,,,,,,,,11,,71,0
12779,note_on,,59,0,9,,,,,,,,,,,,,,,,13,,51,0
12779,note_on,,59,0,10,,,,,,,,,,,,,,,,15,,51,0
12780,note_on,,1,0,9,,,,,,,,,,,,,,,,13,,51,48
12780,note_on,,1,0,7,,,,,,,,,,,,,,,,11,,71,48
12780,note_on,,1,0,8,,,,,,,,,,,,,,,,12,,66,48
12780,note_on,,1,0,10,,,,,,,,,,,,,,,,15,,51,48
12839,note_on,,59,0,8,,,,,,,,,,,,,,,,12,,66,0
12839,note_on,,59,0,7,,,,,,,,,,,,,,,,11,,71,0
12839,note_on,,59,0,9,,,,,,,,,,,,,,,,13,,51,0
12839,note_on,,59,0,10,,,,,,,,,,,,,,,,15,,51,0
12840,note_on,,1,0,9,,,,,,,,,,,,,,,,13,,51,48
12840,note_on,,1,0,8,,,,,,,,,,,,,,,,12,,66,48
12840,note_on,,1,0,10,,,,,,,,,,,,,,,,15,,51,48
12840,note_on,,1,0,7,,,,,,,,,,,,,,,,11,,71,48
12899,note_on,,59,0,10,,,,,,,,,,,,,,,,15,,51,0
12899,note_on,,59,0,9,,,,,,,,,,,,,,,,13,,51,0
12899,note_on,,59,0,8,,,,,,,,,,,,,,,,12,,66,0
12899,note_on,,59,0,7,,,,,,,,,,,,,,,,11,,71,0
12900,note_on,,1,0,9,,,,,,,,,,,,,,,,13,,51,48
12900,note_on,,1,0,7,,,,,,,,,,,,,,,,11,,71,48
12900,note_on,,1,0,8,,,,,,,,,,,,,,,,12,,66,48
12900,note_on,,1,0,10,,,,,,,,,,,,,,,,15,,51,48
12929,note_on,,209,0,6,,,,,,,,,,,,,,,,10,,78,0
12930,note_on,,1,0,6,,,,,,,,,,,,,,,,10,,76,48
12944,note_on,,14,0,6,,,,,,,,,,,,,,,,10,,76,0
12945,note_on,,1,0,6,,,,,,,,,,,,,,,,10,,75,48
12959,note_on,,0,0,10,,,,,,,,,,,,,,,,15,,71,0
12959,note_on,,59,0,10,,,,,,,,,,,,,,,,15,,75,0
12959,note_on,,59,0,7,,,,,,,,,,,,,,,,11,,71,0
12959,note_on,,0,0,10,,,,,,,,,,,,,,,,15,,66,0
12959,note_on,,59,0,9,,,,,,,,,,,,,,,,13,,51,0
12959,note_on,,14,0,6,,,,,,,,,,,,,,,,10,,75,0
12959,note_on,,0,0,10,,,,,,,,,,,,,,,,15,,51,0
12959,note_on,,59,0,8,,,,,,,,,,,,,,,,12,,66,0
12959,note_on,,0,0,10,,,,,,,,,,,,,,,,15,,59,0
12960,note_on,,0,0,10,,,,,,,,,,,,,,,,15,,61,48
12960,note_on,,1,0,7,,,,,,,,,,,,,,,,11,,70,48
12960,note_on,,1,0,10,,,,,,,,,,,,,,,,15,,54,48
12960,note_on,,0,0,10,,,,,,,,,,,,,,,,15,,73,48
12960,note_on,,0,0,10,,,,,,,,,,,,,,,,15,,70,48
12960,note_on,,0,0,10,,,,,,,,,,,,,,,,15,,66,48
12960,note_on,,1,0,6,,,,,,,,,,,,,,,,10,,73,48
12960,note_on,,1,0,9,,,,,,,,,,,,,,,,13,,54,48
12960,note_on,,1,0,8,,,,,,,,,,,,,,,,12,,66,48
13019,note_on,,59,0,6,,,,,,,,,,,,,,,,10,,73,0
13019,note_on,,59,0,7,,,,,,,,,,,,,,,,11,,70,0
13019,note_on,,59,0,8,,,,,,,,,,,,,,,,12,,66,0
13020,note_on,,1,0,8,,,,,,,,,,,,,,,,12,,66,48
13020,note_on,,1,0,6,,,,,,,,,,,,,,,,10,,73,48
13020,note_on,,1,0,7,,,,,,,,,,,,,,,,11,,70,48
13079,note_on,,59,0,7,,,,,,,,,,,,,,,,11,,70,0
13079,note_on,,59,0,6,,,,,,,,,,,,,,,,10,,73,0
13079,note_on,,119,0,9,,,,,,,,,,,,,,,,13,,54,0
13079,note_on,,59,0,8,,,,,,,,,,,,,,,,12,,66,0
13079,note_on,,0,0,10,,,,,,,,,,,,,,,,15,,61,0
13079,note_on,,0,0,10,,,,,,,,,,,,,,,,15,,66,0
13079,note_on,,0,0,10,,,,,,,,,,,,,,,,15,,73,0
13079,note_on,,119,0,10,,,,,,,,,,,,,,,,15,,54,0
13079,note_on,,0,0,10,,,,,,,,,,,,,,,,15,,70,0
13080,note_on,,1,0,6,,,,,,,,,,,,,,,,10,,73,48
13080,note_on,,1,0,7,,,,,,,,,,,,,,,,11,,70,48
13080,note_on,,1,0,8,,,,,,,,,,,,,,,,12,,66,48
13139,note_on,,59,0,8,,,,,,,,,,,,,,,,12,,66,0
13139,note_on,,59,0,6,,,,,,,,,,,,,,,,10,,73,0
13139,note_on,,59,0,7,,,,,,,,,,,,,,,,11,,70,0
13140,note_on,,1,0,6,,,,,,,,,,,,,,,,10,,73,48
13140,note_on,,1,0,7,,,,,,,,,,,,,,,,11,,70,48
13140,note_on,,1,0,8,,,,,,,,,,,,,,,,12,,66,48
13199,note_on,,59,0,8,,,,,,,,,,,,,,,,12,,66,0
13199,note_on,,59,0,6,,,,,,,,,,,,,,,,10,,73,0
13199,note_on,,59,0,7,,,,,,,,,,,,,,,,11,,70,0
13200,note_on,,1,0,7,,,,,,,,,,,,,,,,11,,70,48
13200,note_on,,1,0,6,,,,,,,,,,,,,,,,10,,76,48
13200,note_on,,1,0,8,,,,,,,,,,,,,,,,12,,64,48
13200,note_on,,121,0,9,,,,,,,,,,,,,,,,13,,49,48
13200,note_on,,0,0,10,,,,,,,,,,,,,,,,15,,52,48
13200,note_on,,0,0,10,,,,,,,,,,,,,,,,15,,61,48
13200,note_on,,0,0,10,,,,,,,,,,,,,,,,15,,70,48
13200,note_on,,121,0,10,,,,,,,,,,,,,,,,15,,49,48
13259,note_on,,59,0,8,,,,,,,,,,,,,,,,12,,64,0
13259,note_on,,59,0,7,,,,,,,,,,,,,,,,11,,70,0
13259,note_on,,59,0,9,,,,,,,,,,,,,,,,13,,49,0
13259,note_on,,59,0,10,,,,,,,,,,,,,,,,15,,49,0
13260,note_on,,1,0,9,,,,,,,,,,,,,,,,13,,49,48
13260,note_on,,1,0,8,,,,,,,,,,,,,,,,12,,64,48
13260,note_on,,1,0,10,,,,,,,,,,,,,,,,15,,49,48
13260,note_on,,1,0,7,,,,,,,,,,,,,,,,11,,70,48
13319,note_on,,59,0,8,,,,,,,,,,,,,,,,12,,64,0
13319,note_on,,59,0,10,,,,,,,,,,,,,,,,15,,49,0
13319,note_on,,59,0,7,,,,,,,,,,,,,,,,11,,70,0
13319,note_on,,59,0,9,,,,,,,,,,,,,,,,13,,49,0
13320,note_on,,1,0,7,,,,,,,,,,,,,,,,11,,70,48
13320,note_on,,1,0,10,,,,,,,,,,,,,,,,15,,49,48
13320,note_on,,1,0,8,,,,,,,,,,,,,,,,12,,64,48
13320,note_on,,1,0,9,,,,,,,,,,,,,,,,13,,49,48
13379,note_on,,59,0,7,,,,,,,,,,,,,,,,11,,70,0
13379,note_on,,59,0,8,,,,,,,,,,,,,,,,12,,64,0
13379,note_on,,59,0,9,,,,,,,,,,,,,,,,13,,49,0
13379,note_on,,59,0,10,,,,,,,,,,,,,,,,15,,49,0
13380,note_on,,1,0,8,,,,,,,,,,,,,,,,12,,64,48
13380,note_on,,1,0,9,,,,,,,,,,,,,,,,13,,49,48
13380,note_on,,1,0,7,,,,,,,,,,,,,,,,11,,70,48
13380,note_on,,1,0,10,,,,,,,,,,,,,,,,15,,49,48
13409,note_on,,209,0,6,,,,,,,,,,,,,,,,10,,76,0
13410,note_on,,1,0,6,,,,,,,,,,,,,,,,10,,75,48
13424,note_on,,14,0,6,,,,,,,,,,,,,,,,10,,75,0
13425,note_on,,1,0,6,,,,,,,,,,,,,,,,10,,73,48
13439,note_on,,59,0,7,,,,,,,,,,,,,,,,11,,70,0
13439,note_on,,14,0,6,,,,,,,,,,,,,,,,10,,73,0
13439,note_on,,0,0,10,,,,,,,,,,,,,,,,15,,49,0
13439,note_on,,0,0,10,,,,,,,,,,,,,,,,15,,61,0
13439,note_on,,0,0,10,,,,,,,,,,,,,,,,15,,52,0
13439,note_on,,59,0,9,,,,,,,,,,,,,,,,13,,49,0
13439,note_on,,59,0,8,,,,,,,,,,,,,,,,12,,64,0
13439,note_on,,59,0,10,,,,,,,,,,,,,,,,15,,70,0
13440,note_on,,0,0,10,,,,,,,,,,,,,,,,15,,66,48
13440,note_on,,0,0,10,,,,,,,,,,,,,,,,15,,71,48
13440,note_on,,1,0,9,,,,,,,,,,,,,,,,13,,51,48
13440,note_on,,0,0,10,,,,,,,,,,,,,,,,15,,54,48
13440,note_on,,1,0,7,,,,,,,,,,,,,,,,11,,66,48
13440,note_on,,1,0,10,,,,,,,,,,,,,,,,15,,51,48
13440,note_on,,1,0,6,,,,,,,,,,,,,,,,10,,71,48
13440,note_on,,1,0,8,,,,,,,,,,,,,,,,12,,66,48
13499,note_on,,59,0,10,,,,,,,,,,,,,,,,15,,51,0
13499,note_on,,59,0,6,,,,,,,,,,,,,,,,10,,71,0
13499,note_on,,59,0,7,,,,,,,,,,,,,,,,11,,66,0
13499,note_on,,59,0,8,,,,,,,,,,,,,,,,12,,66,0
13499,note_on,,59,0,9,,,,,,,,,,,,,,,,13,,51,0
13500,note_on,,1,0,7,,,,,,,,,,,,,,,,11,,66,48
13500,note_on,,1,0,8,,,,,,,,,,,,,,,,12,,66,48
13500,note_on,,1,0,10,,,,,,,,,,,,,,,,15,,51,48
13500,note_on,,1,0,6,,,,,,,,,,,,,,,,10,,71,48
13500,note_on,,1,0,9,,,,,,,,,,,,,,,,13,,51,48
13514,note_on,,14,0,6,,,,,,,,,,,,,,,,10,,71,0
13515,note_on,,1,0,6,,,,,,,,,,,,,,,,10,,73,48
13529,note_on,,14,0,6,,,,,,,,,,,,,,,,10,,73,0
13530,note_on,,1,0,6,,,,,,,,,,,,,,,,10,,71,48
13544,note_on,,14,0,6,,,,,,,,,,,,,,,,10,,71,0
13545,note_on,,1,0,6,,,,,,,,,,,,,,,,10,,70,48
13559,note_on,,59,0,10,,,,,,,,,,,,,,,,15,,66,0
13559,note_on,,59,0,8,,,,,,,,,,,,,,,,12,,66,0
13559,note_on,,0,0,10,,,,,,,,,,,,,,,,15,,51,0
13559,note_on,,59,0,9,,,,,,,,,,,,,,,,13,,51,0
13559,note_on,,59,0,7,,,,,,,,,,,,,,,,11,,66,0
13559,note_on,,14,0,6,,,,,,,,,,,,,,,,10,,70,0
13559,note_on,,0,0,10,,,,,,,,,,,,,,,,15,,54,0
13560,note_on,,1,0,10,,,,,,,,,,,,,,,,15,,56,48
13560,note_on,,0,0,10,,,,,,,,,,,,,,,,15,,64,48
13560,note_on,,0,0,10,,,,,,,,,,,,,,,,15,,59,48
13560,note_on,,1,0,8,,,,,,,,,,,,,,,,12,,64,48
13560,note_on,,1,0,9,,,,,,,,,,,,,,,,13,,56,48
13560,note_on,,1,0,6,,,,,,,,,,,,,,,,10,,71,48
13560,note_on,,1,0,7,,,,,,,,,,,,,,,,11,,71,48
13619,note_on,,59,0,10,,,,,,,,,,,,,,,,15,,56,0
13619,note_on,,59,0,8,,,,,,,,,,,,,,,,12,,64,0
13619,note_on,,59,0,6,,,,,,,,,,,,,,,,10,,71,0
13619,note_on,,59,0,7,,,,,,,,,,,,,,,,11,,71,0
13619,note_on,,59,0,9,,,,,,,,,,,,,,,,13,,56,0
13620,note_on,,1,0,8,,,,,,,,,,,,,,,,12,,64,48
13620,note_on,,1,0,6,,,,,,,,,,,,,,,,10,,76,48
13620,note_on,,1,0,7,,,,,,,,,,,,,,,,11,,71,48
13620,note_on,,1,0,9,,,,,,,,,,,,,,,,13,,56,48
13620,note_on,,1,0,10,,,,,,,,,,,,,,,,15,,56,48
13679,note_on,,59,0,6,,,,,,,,,,,,,,,,10,,76,0
13679,note_on,,59,0,7,,,,,,,,,,,,,,,,11,,71,0
13679,note_on,,0,0,10,,,,,,,,,,,,,,,,15,,59,0
13679,note_on,,59,0,9,,,,,,,,,,,,,,,,13,,56,0
13679,note_on,,0,0,10,,,,,,,,,,,,,,,,15,,56,0
13679,note_on,,59,0,8,,,,,,,,,,,,,,,,12,,64,0
13679,note_on,,59,0,10,,,,,,,,,,,,,,,,15,,71,0
13679,note_on,,0,0,10,,,,,,,,,,,,,,,,15,,64,0
13680,note_on,,0,0,10,,,,,,,,,,,,,,,,15,,63,48
13680,note_on,,1,0,6,,,,,,,,,,,,,,,,10,,75,48
13680,note_on,,1,0,8,,,,,,,,,,,,,,,,12,,66,48
13680,note_on,,1,0,10,,,,,,,,,,,,,,,,15,,54,48
13680,note_on,,1,0,7,,,,,,,,,,,,,,,,11,,71,48
13680,note_on,,0,0,10,,,,,,,,,,,,,,,,15,,66,48
13680,note_on,,0,0,10,,,,,,,,,,,,,,,,15,,59,48
13680,note_on,,0,0,10,,,,,,,,,,,,,,,,15,,71,48
13680,note_on,,1,0,9,,,,,,,,,,,,,,,,13,,54,48
13799,note_on,,0,0,10,,,,,,,,,,,,,,,,15,,63,0
13799,note_on,,0,0,10,,,,,,,,,,,,,,,,15,,59,0
13799,note_on,,0,0,10,,,,,,,,,,,,,,,,15,,71,0
13799,note_on,,119,0,7,,,,,,,,,,,,,,,,11,,71,0
13799,note_on,,119,0,8,,,,,,,,,,,,,,,,12,,66,0
13799,note_on,,119,0,9,,,,,,,,,,,,,,,,13,,54,0
13799,note_on,,119,0,10,,,,,,,,,,,,,,,,15,,54,0
13799,note_on,,119,0,6,,,,,,,,,,,,,,,,10,,75,0
13799,note_on,,0,0,10,,,,,,,,,,,,,,,,15,,66,0
13800,note_on,,0,0,10,,,,,,,,,,,,,,,,15,,70,48
13800,note_on,,0,0,10,,,,,,,,,,,,,,,,15,,66,48
13800,note_on,,0,0,10,,,,,,,,,,,,,,,,15,,61,48
13800,note_on,,0,0,10,,,,,,,,,,,,,,,,15,,54,48
13800,note_on,,1,0,10,,,,,,,,,,,,,,,,15,,42,48
13800,note_on,,1,0,6,,,,,,,,,,,,,,,,10,,73,48
13800,note_on,,1,0,8,,,,,,,,,,,,,,,,12,,64,48
13800,note_on,,1,0,7,,,,,,,,,,,,,,,,11,,70,48
13800,note_on,,1,0,9,,,,,,,,,,,,,,,,13,,42,48
13814,note_on,,14,0,6,,,,,,,,,,,,,,,,10,,73,0
13815,note_on,,1,0,6,,,,,,,,,,,,,,,,10,,75,48
13829,note_on,,14,0,6,,,,,,,,,,,,,,,,10,,75,0
13830,note_on,,1,0,6,,,,,,,,,,,,,,,,10,,73,48
13844,note_on,,14,0,6,,,,,,,,,,,,,,,,10,,73,0
13845,note_on,,1,0,6,,,,,,,,,,,,,,,,10,,75,48
13859,note_on,,14,0,6,,,,,,,,,,,,,,,,10,,75,0
13860,note_on,,1,0,6,,,,,,,,,,,,,,,,10,,73,48
13874,note_on,,14,0,6,,,,,,,,,,,,,,,,10,,73,0
13875,note_on,,1,0,6,,,,,,,,,,,,,,,,10,,75,48
13889,note_on,,89,0,8,,,,,,,,,,,,,,,,12,,64,0
13889,note_on,,14,0,6,,,,,,,,,,,,,,,,10,,75,0
13890,note_on,,1,0,6,,,,,,,,,,,,,,,,10,,73,48
13890,note_on,,1,0,8,,,,,,,,,,,,,,,,12,,63,48
13904,note_on,,14,0,6,,,,,,,,,,,,,,,,10,,73,0
13905,note_on,,1,0,6,,,,,,,,,,,,,,,,10,,71,48
13919,note_on,,119,0,7,,,,,,,,,,,,,,,,11,,70,0
13919,note_on,,29,0,8,,,,,,,,,,,,,,,,12,,63,0
13919,note_on,,119,0,10,,,,,,,,,,,,,,,,15,,42,0
13919,note_on,,0,0,10,,,,,,,,,,,,,,,,15,,66,0
13919,note_on,,0,0,10,,,,,,,,,,,,,,,,15,,61,0
13919,note_on,,0,0,10,,,,,,,,,,,,,,,,15,,54,0
13919,note_on,,14,0,6,,,,,,,,,,,,,,,,10,,71,0
13919,note_on,,0,0,10,,,,,,,,,,,,,,,,15,,70,0
13919,note_on,,119,0,9,,,,,,,,,,,,,,,,13,,42,0
13920,note_on,,0,0,10,,,,,,,,,,,,,,,,15,,71,48
13920,note_on,,0,0,10,,,,,,,,,,,,,,,,15,,63,48
13920,note_on,,0,0,10,,,,,,,,,,,,,,,,15,,54,48
13920,note_on,,1,0,7,,,,,,,,,,,,,,,,11,,71,48
13920,set_tempo,,10260,1,0,,,,,,,,,923076,,,,,,,,,,
13920,note_on,,0,0,10,,,,,,,,,,,,,,,,15,,66,48
13920,note_on,,1,0,10,,,,,,,,,,,,,,,,15,,47,48
13920,note_on,,1,0,9,,,,,,,,,,,,,,,,13,,47,48
13920,note_on,,1,0,6,,,,,,,,,,,,,,,,10,,71,48
13920,note_on,,1,0,8,,,,,,,,,,,,,,,,12,,63,48
14039,note_on,,0,0,10,,,,,,,,,,,,,,,,15,,54,0
14039,note_on,,0,0,10,,,,,,,,,,,,,,,,15,,63,0
14039,note_on,,0,0,10,,,,,,,,,,,,,,,,15,,66,0
14039,note_on,,0,0,10,,,,,,,,,,,,,,,,15,,71,0
14039,note_on,,119,0,10,,,,,,,,,,,,,,,,15,,47,0
14039,note_on,,119,0,6,,,,,,,,,,,,,,,,10,,71,0
14039,note_on,,119,0,8,,,,,,,,,,,,,,,,12,,63,0
14039,note_on,,119,0,9,,,,,,,,,,,,,,,,13,,47,0
14039,note_on,,119,0,7,,,,,,,,,,,,,,,,11,,71,0
14100,note_on,,1501,0,5,,,,,,,,,,,,,,,,7,,54,72
14159,note_on,,59,0,5,,,,,,,,,,,,,,,,7,,54,0
14160,note_on,,1,0,5,,,,,,,,,,,,,,,,7,,59,72
14279,note_on,,119,0,5,,,,,,,,,,,,,,,,7,,59,0
14340,note_on,,61,0,5,,,,,,,,,,,,,,,,7,,59,72
14399,note_on,,59,0,5,,,,,,,,,,,,,,,,7,,59,0
14400,note_on,,1,0,5,,,,,,,,,,,,,,,,7,,63,72
14400,note_on,,0,0,10,,,,,,,,,,,,,,,,15,,54,72
14400,note_on,,0,0,10,,,,,,,,,,,,,,,,15,,59,72
14400,note_on,,0,0,10,,,,,,,,,,,,,,,,15,,66,72
14400,note_on,,361,0,10,,,,,,,,,,,,,,,,15,,45,72
14400,note_on,,361,0,9,,,,,,,,,,,,,,,,13,,45,72
14400,note_on,,0,0,10,,,,,,,,,,,,,,,,15,,63,72
14400,note_on,,361,0,8,,,,,,,,,,,,,,,,12,,63,72
14400,note_on,,361,0,7,,,,,,,,,,,,,,,,11,,71,72
14400,note_on,,361,0,6,,,,,,,,,,,,,,,,10,,78,72
14519,note_on,,0,0,10,,,,,,,,,,,,,,,,15,,54,0
14519,note_on,,119,0,9,,,,,,,,,,,,,,,,13,,45,0
14519,note_on,,119,0,8,,,,,,,,,,,,,,,,12,,63,0
14519,note_on,,119,0,5,,,,,,,,,,,,,,,,7,,63,0
14519,note_on,,0,0,10,,,,,,,,,,,,,,,,15,,59,0
14519,note_on,,0,0,10,,,,,,,,,,,,,,,,15,,63,0
14519,note_on,,0,0,10,,,,,,,,,,,,,,,,15,,66,0
14519,note_on,,119,0,10,,,,,,,,,,,,,,,,15,,45,0
14519,note_on,,119,0,6,,,,,,,,,,,,,,,,10,,78,0
14519,note_on,,119,0,7,,,,,,,,,,,,,,,,11,,71,0
14580,note_on,,61,0,5,,,,,,,,,,,,,,,,7,,63,72
14639,note_on,,59,0,5,,,,,,,,,,,,,,,,7,,63,0
14640,note_on,,1,0,5,,,,,,,,,,,,,,,,7,,66,72
14759,note_on,,119,0,5,,,,,,,,,,,,,,,,7,,66,0
14760,note_on,,1,0,5,,,,,,,,,,,,,,,,7,,66,72
14819,note_on,,59,0,5,,,,,,,,,,,,,,,,7,,66,0
14820,note_on,,1,0,5,,,,,,,,,,,,,,,,7,,59,72
14879,note_on,,59,0,5,,,,,,,,,,,,,,,,7,,59,0
14880,note_on,,1,0,5,,,,,,,,,,,,,,,,7,,64,72
14880,note_on,,361,0,9,,,,,,,,,,,,,,,,13,,44,72
14880,note_on,,361,0,8,,,,,,,,,,,,,,,,12,,64,72
14880,note_on,,361,0,6,,,,,,,,,,,,,,,,10,,80,72
14880,note_on,,361,0,7,,,,,,,,,,,,,,,,11,,71,72
14880,note_on,,361,0,10,,,,,,,,,,,,,,,,15,,44,72
14880,note_on,,0,0,10,,,,,,,,,,,,,,,,15,,71,72
14880,note_on,,0,0,10,,,,,,,,,,,,,,,,15,,64,72
14880,note_on,,0,0,10,,,,,,,,,,,,,,,,15,,59,72
14880,note_on,,0,0,10,,,,,,,,,,,,,,,,15,,52,72
14969,note_on,,89,0,5,,,,,,,,,,,,,,,,7,,64,0
14970,note_on,,1,0,5,,,,,,,,,,,,,,,,7,,64,72
14999,note_on,,119,0,10,,,,,,,,,,,,,,,,15,,44,0
14999,note_on,,0,0,10,,,,,,,,,,,,,,,,15,,52,0
14999,note_on,,119,0,8,,,,,,,,,,,,,,,,12,,64,0
14999,note_on,,119,0,7,,,,,,,,,,,,,,,,11,,71,0
14999,note_on,,0,0,10,,,,,,,,,,,,,,,,15,,71,0
14999,note_on,,0,0,10,,,,,,,,,,,,,,,,15,,64,0
14999,note_on,,119,0,6,,,,,,,,,,,,,,,,10,,80,0
14999,note_on,,29,0,5,,,,,,,,,,,,,,,,7,,64,0
14999,note_on,,119,0,9,,,,,,,,,,,,,,,,13,,44,0
14999,note_on,,0,0,10,,,,,,,,,,,,,,,,15,,59,0
15000,note_on,,1,0,5,,,,,,,,,,,,,,,,7,,64,72
15119,note_on,,119,0,5,,,,,,,,,,,,,,,,7,,64,0
15300,note_on,,181,0,5,,,,,,,,,,,,,,,,7,,56,72
15359,note_on,,59,0,5,,,,,,,,,,,,,,,,7,,56,0
15360,note_on,,361,0,6,,,,,,,,,,,,,,,,10,,75,72
15360,note_on,,0,0,10,,,,,,,,,,,,,,,,15,,60,72
15360,note_on,,0,0,10,,,,,,,,,,,,,,,,15,,63,72
15360,note_on,,0,0,10,,,,,,,,,,,,,,,,15,,68,72
15360,note_on,,361,0,9,,,,,,,,,,,,,,,,13,,54,72
15360,note_on,,361,0,10,,,,,,,,,,,,,,,,15,,54,72
15360,note_on,,361,0,7,,,,,,,,,,,,,,,,11,,72,72
15360,note_on,,1,0,5,,,,,,,,,,,,,,,,7,,60,72
15360,note_on,,361,0,8,,,,,,,,,,,,,,,,12,,68,72
15360,note_on,,0,0,10,,,,,,,,,,,,,,,,15,,56,72
15479,note_on,,0,0,10,,,,,,,,,,,,,,,,15,,56,0
15479,note_on,,119,0,8,,,,,,,,,,,,,,,,12,,68,0
15479,note_on,,119,0,7,,,,,,,,,,,,,,,,11,,72,0
15479,note_on,,119,0,10,,,,,,,,,,,,,,,,15,,54,0
15479,note_on,,119,0,6,,,,,,,,,,,,,,,,10,,75,0
15479,note_on,,0,0,10,,,,,,,,,,,,,,,,15,,60,0
15479,note_on,,0,0,10,,,,,,,,,,,,,,,,15,,63,0
15479,note_on,,0,0,10,,,,,,,,,,,,,,,,15,,68,0
15479,note_on,,119,0,5,,,,,,,,,,,,,,,,7,,60,0
15479,note_on,,119,0,9,,,,,,,,,,,,,,,,13,,54,0
15480,note_on,,1,0,5,,,,,,,,,,,,,,,,7,,60,72
15539,note_on,,59,0,5,,,,,,,,,,,,,,,,7,,60,0
15540,note_on,,1,0,5,,,,,,,,,,,,,,,,7,,63,72
15599,note_on,,59,0,5,,,,,,,,,,,,,,,,7,,63,0
15600,note_on,,1,0,5,,,,,,,,,,,,,,,,7,,66,72
15719,note_on,,119,0,5,,,,,,,,,,,,,,,,7,,66,0
15720,note_on,,1,0,5,,,,,,,,,,,,,,,,7,,66,72
15779,note_on,,59,0,5,,,,,,,,,,,,,,,,7,,66,0
15780,note_on,,1,0,5,,,,,,,,,,,,,,,,7,,64,72
15839,note_on,,59,0,5,,,,,,,,,,,,,,,,7,,64,0
15840,note_on,,361,0,9,,,,,,,,,,,,,,,,13,,52,72
15840,note_on,,361,0,10,,,,,,,,,,,,,,,,15,,52,72
15840,note_on,,1,0,5,,,,,,,,,,,,,,,,7,,63,72
15840,note_on,,361,0,7,,,,,,,,,,,,,,,,11,,73,72
15840,note_on,,361,0,8,,,,,,,,,,,,,,,,12,,68,72
15840,note_on,,0,0,10,,,,,,,,,,,,,,,,15,,61,72
15840,note_on,,0,0,10,,,,,,,,,,,,,,,,15,,68,72
15840,note_on,,361,0,6,,,,,,,,,,,,,,,,10,,76,72
15840,note_on,,0,0,10,,,,,,,,,,,,,,,,15,,64,72
15840,note_on,,0,0,10,,,,,,,,,,,,,,,,15,,56,72
15899,note_on,,59,0,5,,,,,,,,,,,,,,,,7,,63,0
15900,note_on,,1,0,5,,,,,,,,,,,,,,,,7,,61,72
15959,note_on,,0,0,10,,,,,,,,,,,,,,,,15,,68,0
15959,note_on,,119,0,8,,,,,,,,,,,,,,,,12,,68,0
15959,note_on,,119,0,6,,,,,,,,,,,,,,,,10,,76,0
15959,note_on,,119,0,7,,,,,,,,,,,,,,,,11,,73,0
15959,note_on,,0,0,10,,,,,,,,,,,,,,,,15,,61,0
15959,note_on,,0,0,10,,,,,,,,,,,,,,,,15,,56,0
15959,note_on,,119,0,9,,,,,,,,,,,,,,,,13,,52,0
15959,note_on,,119,0,10,,,,,,,,,,,,,,,,15,,52,0
15959,note_on,,0,0,10,,,,,,,,,,,,,,,,15,,64,0
16079,note_on,,179,0,5,,,,,,,,,,,,,,,,7,,61,0
16200,note_on,,121,0,5,,,,,,,,,,,,,,,,7,,61,72
16319,note_on,,119,0,5,,,,,,,,,,,,,,,,7,,61,0
16320,note_on,,1,0,5,,,,,,,,,,,,,,,,7,,64,72
16320,note_on,,361,0,8,,,,,,,,,,,,,,,,12,,64,72
16320,note_on,,361,0,9,,,,,,,,,,,,,,,,13,,56,72
16320,note_on,,361,0,7,,,,,,,,,,,,,,,,11,,71,72
16320,note_on,,361,0,6,,,,,,,,,,,,,,,,10,,83,72
16320,note_on,,361,0,10,,,,,,,,,,,,,,,,15,,56,72
16320,note_on,,0,0,10,,,,,,,,,,,,,,,,15,,71,72
16320,note_on,,0,0,10,,,,,,,,,,,,,,,,15,,64,72
16320,note_on,,0,0,10,,,,,,,,,,,,,,,,15,,59,72
16439,note_on,,0,0,10,,,,,,,,,,,,,,,,15,,59,0
16439,note_on,,0,0,10,,,,,,,,,,,,,,,,15,,64,0
16439,note_on,,0,0,10,,,,,,,,,,,,,,,,15,,71,0
16439,note_on,,119,0,8,,,,,,,,,,,,,,,,12,,64,0
16439,note_on,,119,0,10,,,,,,,,,,,,,,,,15,,56,0
16439,note_on,,119,0,9,,,,,,,,,,,,,,,,13,,56,0
16439,note_on,,119,0,6,,,,,,,,,,,,,,,,10,,83,0
16439,note_on,,119,0,7,,,,,,,,,,,,,,,,11,,71,0
16439,note_on,,119,0,5,,,,,,,,,,,,,,,,7,,64,0
16440,note_on,,1,0,5,,,,,,,,,,,,,,,,7,,64,72
16499,note_on,,59,0,5,,,,,,,,,,,,,,,,7,,64,0
16500,note_on,,1,0,5,,,,,,,,,,,,,,,,7,,59,72
16545,note_on,,106,0,10,,,,,,,,,,,,,,,,15,,64,72
16559,note_on,,59,0,5,,,,,,,,,,,,,,,,7,,59,0
16560,note_on,,121,0,6,,,,,,,,,,,,,,,,10,,76,72
16560,note_on,,1,0,5,,,,,,,,,,,,,,,,7,,61,72
16560,note_on,,15,0,10,,,,,,,,,,,,,,,,15,,57,72
16560,note_on,,0,0,10,,,,,,,,,,,,,,,,15,,73,72
16560,note_on,,0,0,10,,,,,,,,,,,,,,,,15,,69,72
16560,note_on,,121,0,7,,,,,,,,,,,,,,,,11,,73,72
16560,note_on,,121,0,8,,,,,,,,,,,,,,,,12,,69,72
16560,note_on,,121,0,9,,,,,,,,,,,,,,,,13,,57,72
16619,note_on,,59,0,5,,,,,,,,,,,,,,,,7,,61,0
16620,note_on,,1,0,5,,,,,,,,,,,,,,,,7,,61,72
16664,note_on,,104,0,10,,,,,,,,,,,,,,,,15,,64,0
16679,note_on,,59,0,5,,,,,,,,,,,,,,,,7,,61,0
16679,note_on,,119,0,9,,,,,,,,,,,,,,,,13,,57,0
16679,note_on,,15,0,10,,,,,,,,,,,,,,,,15,,57,0
16679,note_on,,0,0,10,,,,,,,,,,,,,,,,15,,73,0
16679,note_on,,119,0,6,,,,,,,,,,,,,,,,10,,76,0
16679,note_on,,119,0,7,,,,,,,,,,,,,,,,11,,73,0
16679,note_on,,119,0,8,,,,,,,,,,,,,,,,12,,69,0
16679,note_on,,0,0,10,,,,,,,,,,,,,,,,15,,69,0
16740,note_on,,61,0,5,,,,,,,,,,,,,,,,7,,64,72
16799,note_on,,59,0,5,,,,,,,,,,,,,,,,7,,64,0
16800,note_on,,121,0,7,,,,,,,,,,,,,,,,11,,69,72
16800,note_on,,121,0,8,,,,,,,,,,,,,,,,12,,66,72
16800,note_on,,121,0,9,,,,,,,,,,,,,,,,13,,50,72
16800,note_on,,0,0,10,,,,,,,,,,,,,,,,15,,66,72
16800,note_on,,0,0,10,,,,,,,,,,,,,,,,15,,69,72
16800,note_on,,0,0,10,,,,,,,,,,,,,,,,15,,74,72
16800,note_on,,121,0,6,,,,,,,,,,,,,,,,10,,74,72
16800,note_on,,0,0,10,,,,,,,,,,,,,,,,15,,57,72
16800,note_on,,1,0,5,,,,,,,,,,,,,,,,7,,66,72
16800,note_on,,121,0,10,,,,,,,,,,,,,,,,15,,50,72
16919,note_on,,0,0,10,,,,,,,,,,,,,,,,15,,69,0
16919,note_on,,119,0,8,,,,,,,,,,,,,,,,12,,66,0
16919,note_on,,119,0,5,,,,,,,,,,,,,,,,7,,66,0
16919,note_on,,119,0,9,,,,,,,,,,,,,,,,13,,50,0
16919,note_on,,0,0,10,,,,,,,,,,,,,,,,15,,57,0
16919,note_on,,119,0,6,,,,,,,,,,,,,,,,10,,74,0
16919,note_on,,119,0,10,,,,,,,,,,,,,,,,15,,50,0
16919,note_on,,0,0,10,,,,,,,,,,,,,,,,15,,66,0
16919,note_on,,0,0,10,,,,,,,,,,,,,,,,15,,74,0
16919,note_on,,119,0,7,,,,,,,,,,,,,,,,11,,69,0
16920,note_on,,1,0,5,,,,,,,,,,,,,,,,7,,62,72
17039,note_on,,119,0,5,,,,,,,,,,,,,,,,7,,62,0
17160,note_on,,121,0,5,,,,,,,,,,,,,,,,7,,62,72
17219,note_on,,59,0,5,,,,,,,,,,,,,,,,7,,62,0
17220,note_on,,1,0,5,,,,,,,,,,,,,,,,7,,61,72
17279,note_on,,59,0,5,,,,,,,,,,,,,,,,7,,61,0
17280,note_on,,1,0,5,,,,,,,,,,,,,,,,7,,59,72
17309,note_on,,29,0,5,,,,,,,,,,,,,,,,7,,59,0
17310,note_on,,1,0,5,,,,,,,,,,,,,,,,7,,57,72
17340,set_tempo,,3420,1,0,,,,,,,,,2400000,,,,,,,,,,
17399,note_on,,89,0,5,,,,,,,,,,,,,,,,7,,57,0
17399,end_of_track,,0,1,5,,,,,,,,,,,,,,,,,,,
17400,note_on,,0,0,10,,,,,,,,,,,,,,,,15,,71,72
17400,note_on,,481,0,7,,,,,,,,,,,,,,,,11,,74,72
17400,note_on,,481,0,9,,,,,,,,,,,,,,,,13,,52,72
17400,note_on,,481,0,6,,,,,,,,,,,,,,,,10,,80,72
17400,set_tempo,,60,1,0,,,,,,,,,923076,,,,,,,,,,
17400,note_on,,481,0,8,,,,,,,,,,,,,,,,12,,64,72
17400,note_on,,0,0,10,,,,,,,,,,,,,,,,15,,64,72
17400,note_on,,481,0,10,,,,,,,,,,,,,,,,15,,52,72
17400,note_on,,0,0,10,,,,,,,,,,,,,,,,15,,68,72
17519,note_on,,119,0,10,,,,,,,,,,,,,,,,15,,52,0
17519,note_on,,0,0,10,,,,,,,,,,,,,,,,15,,68,0
17519,note_on,,119,0,7,,,,,,,,,,,,,,,,11,,74,0
17519,note_on,,0,0,10,,,,,,,,,,,,,,,,15,,71,0
17519,note_on,,119,0,8,,,,,,,,,,,,,,,,12,,64,0
17519,note_on,,119,0,9,,,,,,,,,,,,,,,,13,,52,0
17519,note_on,,0,0,10,,,,,,,,,,,,,,,,15,,64,0
17519,note_on,,119,0,6,,,,,,,,,,,,,,,,10,,80,0
17520,note_on,,1,0,8,,,,,,,,,,,,,,,,12,,64,72
17520,note_on,,0,0,10,,,,,,,,,,,,,,,,15,,52,72
17520,note_on,,1,0,6,,,,,,,,,,,,,,,,10,,81,72
17520,note_on,,1,0,7,,,,,,,,,,,,,,,,11,,73,72
17520,note_on,,0,0,10,,,,,,,,,,,,,,,,15,,73,72
17520,note_on,,1,0,10,,,,,,,,,,,,,,,,15,,45,72
17520,note_on,,1,0,9,,,,,,,,,,,,,,,,13,,45,72
17520,note_on,,0,0,10,,,,,,,,,,,,,,,,15,,64,72
17520,note_on,,0,0,10,,,,,,,,,,,,,,,,15,,69,72
17639,note_on,,0,0,10,,,,,,,,,,,,,,,,15,,64,0
17639,note_on,,119,0,10,,,,,,,,,,,,,,,,15,,45,0
17639,note_on,,0,0,10,,,,,,,,,,,,,,,,15,,73,0
17639,note_on,,0,0,10,,,,,,,,,,,,,,,,15,,69,0
17639,note_on,,119,0,7,,,,,,,,,,,,,,,,11,,73,0
17639,end_of_track,,0,1,7,,,,,,,,,,,,,,,,,,,
17639,end_of_track,,0,1,9,,,,,,,,,,,,,,,,,,,
17639,note_on,,119,0,9,,,,,,,,,,,,,,,,13,,45,0
17639,note_on,,119,0,6,,,,,,,,,,,,,,,,10,,81,0
17639,end_of_track,,0,1,6,,,,,,,,,,,,,,,,,,,
17639,end_of_track,,0,1,8,,,,,,,,,,,,,,,,,,,
17639,note_on,,119,0,8,,,,,,,,,,,,,,,,12,,64,0
17639,note_on,,0,0,10,,,,,,,,,,,,,,,,15,,52,0
17639,end_of_track,,0,1,10,,,,,,,,,,,,,,,,,,,
18240,end_of_track,,0,1,0,,,,,,,,,,,,,,,,,,,
18240,set_tempo,,840,1,0,,,,,,,,,500000,,,,,,,,,,
