tick,type,data,time,meta,track,frame_rate,hours,minutes,seconds,frames,sub_frames,port,key,tempo,numerator,denominator,clocks_per_click,notated_32nd_notes_per_beat,program,channel,control,value,note,velocity
0,sequencer_specific,"(0, 0, 91, 35, 1, 0, 5, 4, 35, 0)",0,1,0,,,,,,,,,,,,,,,,,,,
0,note_on,,0,0,11,,,,,,,,,,,,,,,15,,,59,48
0,control_change,,0,0,11,,,,,,,,,,,,,,,15,10,90,,
0,control_change,,0,0,11,,,,,,,,,,,,,,,15,11,127,,
0,control_change,,0,0,11,,,,,,,,,,,,,,,15,7,96,,
0,program_change,,0,0,11,,,,,,,,,,,,,,6,15,,,,
0,midi_port,,0,1,11,,,,,,,0,,,,,,,,,,,,
0,track_name,,0,1,11,,,,,,,,,,,,,,,,,,,
0,track_name,,0,1,10,,,,,,,,,,,,,,,,,,,
0,midi_port,,0,1,10,,,,,,,0,,,,,,,,,,,,
0,program_change,,0,0,10,,,,,,,,,,,,,,48,13,,,,
0,program_change,,0,0,6,,,,,,,,,,,,,,60,8,,,,
0,control_change,,0,0,6,,,,,,,,,,,,,,,8,10,80,,
0,control_change,,0,0,6,,,,,,,,,,,,,,,8,11,127,,
0,midi_port,,0,1,6,,,,,,,0,,,,,,,,,,,,
0,track_name,,0,1,6,,,,,,,,,,,,,,,,,,,
0,control_change,,0,0,10,,,,,,,,,,,,,,,13,7,96,,
0,control_change,,0,0,10,,,,,,,,,,,,,,,13,11,127,,
0,note_on,,0,0,11,,,,,,,,,,,,,,,15,,,66,48
0,control_change,,0,0,10,,,,,,,,,,,,,,,13,10,96,,
0,note_on,,0,0,7,,,,,,,,,,,,,,,10,,,59,48
0,control_change,,0,0,7,,,,,,,,,,,,,,,10,11,127,,
0,track_name,,0,1,9,,,,,,,,,,,,,,,,,,,
0,midi_port,,0,1,9,,,,,,,0,,,,,,,,,,,,
0,program_change,,0,0,9,,,,,,,,,,,,,,48,12,,,,
0,control_change,,0,0,9,,,,,,,,,,,,,,,12,7,96,,
0,control_change,,0,0,9,,,,,,,,,,,,,,,12,11,127,,
0,control_change,,0,0,9,,,,,,,,,,,,,,,12,10,80,,
0,note_on,,0,0,9,,,,,,,,,,,,,,,12,,,59,48
0,control_change,,0,0,8,,,,,,,,,,,,,,,11,10,24,,
0,control_change,,0,0,8,,,,,,,,,,,,,,,11,11,127,,
0,control_change,,0,0,8,,,,,,,,,,,,,,,11,7,96,,
0,program_change,,0,0,8,,,,,,,,,,,,,,48,11,,,,
0,midi_port,,0,1,8,,,,,,,0,,,,,,,,,,,,
0,track_name,,0,1,8,,,,,,,,,,,,,,,,,,,
0,track_name,,0,1,7,,,,,,,,,,,,,,,,,,,
0,midi_port,,0,1,7,,,,,,,0,,,,,,,,,,,,
0,program_change,,0,0,7,,,,,,,,,,,,,,48,10,,,,
0,control_change,,0,0,7,,,,,,,,,,,,,,,10,7,96,,
0,control_change,,0,0,7,,,,,,,,,,,,,,,10,10,48,,
0,note_on,,0,0,10,,,,,,,,,,,,,,,13,,,59,48
0,note_on,,0,0,11,,,,,,,,,,,,,,,15,,,62,48
0,midi_port,,0,1,2,,,,,,,0,,,,,,,,,,,,
0,midi_port,,0,1,5,,,,,,,0,,,,,,,,,,,,
0,track_name,,0,1,5,,,,,,,,,,,,,,,,,,,
0,control_change,,0,0,5,,,,,,,,,,,,,,,2,11,127,,
0,control_change,,0,0,5,,,,,,,,,,,,,,,2,10,65,,
0,track_name,,0,1,1,,,,,,,,,,,,,,,,,,,
0,midi_port,,0,1,1,,,,,,,0,,,,,,,,,,,,
0,end_of_track,,0,1,1,,,,,,,,,,,,,,,,,,,
0,track_name,,0,1,2,,,,,,,,,,,,,,,,,,,
0,note_on,,0,0,5,,,,,,,,,,,,,,,2,,,59,48
0,end_of_track,,0,1,2,,,,,,,,,,,,,,,,,,,
0,program_change,,0,0,5,,,,,,,,,,,,,,70,2,,,,
0,track_name,,0,1,3,,,,,,,,,,,,,,,,,,,
0,end_of_track,,0,1,3,,,,,,,,,,,,,,,,,,,
0,midi_port,,0,1,4,,,,,,,0,,,,,,,,,,,,
0,end_of_track,,0,1,4,,,,,,,,,,,,,,,,,,,
0,time_signature,,0,1,0,,,,,,,,,,4,4,24,8,,,,,,
0,set_tempo,,0,1,0,,,,,,,,,1090909,,,,,,,,,,
0,key_signature,,0,1,0,,,,,,,,D,,,,,,,,,,,
0,midi_port,,0,1,0,,,,,,,0,,,,,,,,,,,,
0,smpte_offset,,0,1,0,25,32,0,3,0,0,,,,,,,,,,,,,
0,instrument_name,,0,1,0,,,,,,,,,,,,,,,,,,,
0,track_name,,0,1,0,,,,,,,,,,,,,,,,,,,
0,midi_port,,0,1,3,,,,,,,0,,,,,,,,,,,,
0,control_change,,0,0,5,,,,,,,,,,,,,,,2,7,96,,
29,note_on,,29,0,5,,,,,,,,,,,,,,,2,,,59,0
29,note_on,,0,0,11,,,,,,,,,,,,,,,15,,,62,0
29,note_on,,29,0,11,,,,,,,,,,,,,,,15,,,59,0
29,note_on,,29,0,10,,,,,,,,,,,,,,,13,,,59,0
29,note_on,,29,0,7,,,,,,,,,,,,,,,10,,,59,0
29,note_on,,29,0,9,,,,,,,,,,,,,,,12,,,59,0
30,note_on,,1,0,7,,,,,,,,,,,,,,,10,,,61,48
30,note_on,,0,0,11,,,,,,,,,,,,,,,15,,,61,48
30,note_on,,1,0,11,,,,,,,,,,,,,,,15,,,58,48
30,note_on,,1,0,5,,,,,,,,,,,,,,,2,,,58,48
30,note_on,,1,0,10,,,,,,,,,,,,,,,13,,,58,48
30,note_on,,1,0,9,,,,,,,,,,,,,,,12,,,58,48
59,note_on,,29,0,7,,,,,,,,,,,,,,,10,,,61,0
59,note_on,,0,0,11,,,,,,,,,,,,,,,15,,,61,0
59,note_on,,29,0,11,,,,,,,,,,,,,,,15,,,58,0
59,note_on,,29,0,10,,,,,,,,,,,,,,,13,,,58,0
59,note_on,,29,0,5,,,,,,,,,,,,,,,2,,,58,0
59,note_on,,29,0,9,,,,,,,,,,,,,,,12,,,58,0
60,note_on,,0,0,11,,,,,,,,,,,,,,,15,,,62,48
60,note_on,,1,0,9,,,,,,,,,,,,,,,12,,,59,48
60,note_on,,1,0,5,,,,,,,,,,,,,,,2,,,59,48
60,note_on,,1,0,11,,,,,,,,,,,,,,,15,,,59,48
60,note_on,,1,0,7,,,,,,,,,,,,,,,10,,,59,48
60,note_on,,1,0,10,,,,,,,,,,,,,,,13,,,59,48
89,note_on,,0,0,11,,,,,,,,,,,,,,,15,,,62,0
89,note_on,,29,0,11,,,,,,,,,,,,,,,15,,,59,0
89,note_on,,29,0,10,,,,,,,,,,,,,,,13,,,59,0
89,note_on,,29,0,9,,,,,,,,,,,,,,,12,,,59,0
89,note_on,,29,0,5,,,,,,,,,,,,,,,2,,,59,0
89,note_on,,29,0,7,,,,,,,,,,,,,,,10,,,59,0
90,note_on,,1,0,7,,,,,,,,,,,,,,,10,,,61,48
90,note_on,,1,0,5,,,,,,,,,,,,,,,2,,,58,48
90,note_on,,1,0,10,,,,,,,,,,,,,,,13,,,58,48
90,note_on,,1,0,9,,,,,,,,,,,,,,,12,,,58,48
90,note_on,,1,0,11,,,,,,,,,,,,,,,15,,,58,48
90,note_on,,0,0,11,,,,,,,,,,,,,,,15,,,61,48
119,note_on,,29,0,5,,,,,,,,,,,,,,,2,,,58,0
119,note_on,,29,0,7,,,,,,,,,,,,,,,10,,,61,0
119,note_on,,29,0,9,,,,,,,,,,,,,,,12,,,58,0
119,note_on,,0,0,11,,,,,,,,,,,,,,,15,,,61,0
119,note_on,,29,0,11,,,,,,,,,,,,,,,15,,,58,0
119,note_on,,29,0,10,,,,,,,,,,,,,,,13,,,58,0
120,note_on,,1,0,5,,,,,,,,,,,,,,,2,,,59,48
120,note_on,,1,0,7,,,,,,,,,,,,,,,10,,,59,48
120,note_on,,1,0,11,,,,,,,,,,,,,,,15,,,59,48
120,note_on,,0,0,11,,,,,,,,,,,,,,,15,,,62,48
120,note_on,,1,0,10,,,,,,,,,,,,,,,13,,,59,48
120,note_on,,1,0,9,,,,,,,,,,,,,,,12,,,59,48
149,note_on,,29,0,7,,,,,,,,,,,,,,,10,,,59,0
149,note_on,,29,0,10,,,,,,,,,,,,,,,13,,,59,0
149,note_on,,29,0,5,,,,,,,,,,,,,,,2,,,59,0
149,note_on,,29,0,9,,,,,,,,,,,,,,,12,,,59,0
149,note_on,,0,0,11,,,,,,,,,,,,,,,15,,,62,0
149,note_on,,29,0,11,,,,,,,,,,,,,,,15,,,59,0
150,note_on,,1,0,11,,,,,,,,,,,,,,,15,,,58,48
150,note_on,,0,0,11,,,,,,,,,,,,,,,15,,,61,48
150,note_on,,1,0,7,,,,,,,,,,,,,,,10,,,61,48
150,note_on,,1,0,10,,,,,,,,,,,,,,,13,,,58,48
150,note_on,,1,0,5,,,,,,,,,,,,,,,2,,,58,48
150,note_on,,1,0,9,,,,,,,,,,,,,,,12,,,58,48
179,note_on,,29,0,10,,,,,,,,,,,,,,,13,,,58,0
179,note_on,,29,0,11,,,,,,,,,,,,,,,15,,,58,0
179,note_on,,0,0,11,,,,,,,,,,,,,,,15,,,61,0
179,note_on,,29,0,5,,,,,,,,,,,,,,,2,,,58,0
179,note_on,,29,0,9,,,,,,,,,,,,,,,12,,,58,0
179,note_on,,29,0,7,,,,,,,,,,,,,,,10,,,61,0
180,note_on,,1,0,5,,,,,,,,,,,,,,,2,,,59,48
180,note_on,,1,0,9,,,,,,,,,,,,,,,12,,,59,48
180,note_on,,1,0,7,,,,,,,,,,,,,,,10,,,59,48
180,note_on,,1,0,10,,,,,,,,,,,,,,,13,,,59,48
180,note_on,,0,0,11,,,,,,,,,,,,,,,15,,,62,48
180,note_on,,1,0,11,,,,,,,,,,,,,,,15,,,59,48
209,note_on,,29,0,10,,,,,,,,,,,,,,,13,,,59,0
209,note_on,,29,0,9,,,,,,,,,,,,,,,12,,,59,0
209,note_on,,0,0,11,,,,,,,,,,,,,,,15,,,62,0
209,note_on,,29,0,11,,,,,,,,,,,,,,,15,,,59,0
209,note_on,,29,0,5,,,,,,,,,,,,,,,2,,,59,0
209,note_on,,29,0,7,,,,,,,,,,,,,,,10,,,59,0
210,note_on,,1,0,7,,,,,,,,,,,,,,,10,,,61,48
210,note_on,,1,0,9,,,,,,,,,,,,,,,12,,,58,48
210,note_on,,0,0,11,,,,,,,,,,,,,,,15,,,61,48
210,note_on,,1,0,11,,,,,,,,,,,,,,,15,,,58,48
210,note_on,,1,0,10,,,,,,,,,,,,,,,13,,,58,48
210,note_on,,1,0,5,,,,,,,,,,,,,,,2,,,58,48
239,note_on,,29,0,9,,,,,,,,,,,,,,,12,,,58,0
239,note_on,,29,0,5,,,,,,,,,,,,,,,2,,,58,0
239,note_on,,29,0,11,,,,,,,,,,,,,,,15,,,66,0
239,note_on,,29,0,10,,,,,,,,,,,,,,,13,,,58,0
239,note_on,,29,0,7,,,,,,,,,,,,,,,10,,,61,0
239,note_on,,0,0,11,,,,,,,,,,,,,,,15,,,58,0
239,note_on,,0,0,11,,,,,,,,,,,,,,,15,,,61,0
240,note_on,,0,0,11,,,,,,,,,,,,,,,15,,,62,48
240,note_on,,0,0,11,,,,,,,,,,,,,,,15,,,66,48
240,note_on,,0,0,11,,,,,,,,,,,,,,,15,,,71,48
240,note_on,,1,0,11,,,,,,,,,,,,,,,15,,,59,48
240,note_on,,1,0,7,,,,,,,,,,,,,,,10,,,62,48
240,note_on,,1,0,9,,,,,,,,,,,,,,,12,,,59,48
240,note_on,,240,0,8,,,,,,,,,,,,,,,11,,,59,48
240,note_on,,1,0,5,,,,,,,,,,,,,,,2,,,59,48
240,note_on,,1,0,10,,,,,,,,,,,,,,,13,,,59,48
269,note_on,,29,0,9,,,,,,,,,,,,,,,12,,,59,0
269,note_on,,29,0,7,,,,,,,,,,,,,,,10,,,62,0
269,note_on,,29,0,8,,,,,,,,,,,,,,,11,,,59,0
270,note_on,,1,0,7,,,,,,,,,,,,,,,10,,,64,48
270,note_on,,1,0,9,,,,,,,,,,,,,,,12,,,61,48
270,note_on,,1,0,8,,,,,,,,,,,,,,,11,,,61,48
299,note_on,,29,0,9,,,,,,,,,,,,,,,12,,,61,0
299,note_on,,29,0,8,,,,,,,,,,,,,,,11,,,61,0
299,note_on,,59,0,5,,,,,,,,,,,,,,,2,,,59,0
299,note_on,,59,0,11,,,,,,,,,,,,,,,15,,,59,0
299,note_on,,29,0,7,,,,,,,,,,,,,,,10,,,64,0
299,note_on,,59,0,10,,,,,,,,,,,,,,,13,,,59,0
300,note_on,,1,0,7,,,,,,,,,,,,,,,10,,,62,48
300,note_on,,1,0,5,,,,,,,,,,,,,,,2,,,47,48
300,note_on,,1,0,8,,,,,,,,,,,,,,,11,,,59,48
300,note_on,,1,0,11,,,,,,,,,,,,,,,15,,,47,48
300,note_on,,1,0,10,,,,,,,,,,,,,,,13,,,47,48
300,note_on,,1,0,9,,,,,,,,,,,,,,,12,,,59,48
329,note_on,,29,0,9,,,,,,,,,,,,,,,12,,,59,0
329,note_on,,29,0,8,,,,,,,,,,,,,,,11,,,59,0
329,note_on,,29,0,7,,,,,,,,,,,,,,,10,,,62,0
330,note_on,,1,0,7,,,,,,,,,,,,,,,10,,,64,48
330,note_on,,1,0,9,,,,,,,,,,,,,,,12,,,61,48
330,note_on,,1,0,8,,,,,,,,,,,,,,,11,,,61,48
359,note_on,,59,0,5,,,,,,,,,,,,,,,2,,,47,0
359,note_on,,29,0,8,,,,,,,,,,,,,,,11,,,61,0
359,note_on,,29,0,7,,,,,,,,,,,,,,,10,,,64,0
359,note_on,,0,0,11,,,,,,,,,,,,,,,15,,,62,0
359,note_on,,0,0,11,,,,,,,,,,,,,,,15,,,47,0
359,note_on,,29,0,9,,,,,,,,,,,,,,,12,,,61,0
359,note_on,,59,0,11,,,,,,,,,,,,,,,15,,,71,0
359,note_on,,0,0,11,,,,,,,,,,,,,,,15,,,66,0
359,note_on,,59,0,10,,,,,,,,,,,,,,,13,,,47,0
360,note_on,,1,0,7,,,,,,,,,,,,,,,10,,,62,48
360,note_on,,1,0,9,,,,,,,,,,,,,,,12,,,59,48
360,note_on,,1,0,8,,,,,,,,,,,,,,,11,,,59,48
389,note_on,,29,0,8,,,,,,,,,,,,,,,11,,,59,0
389,note_on,,29,0,9,,,,,,,,,,,,,,,12,,,59,0
389,note_on,,29,0,7,,,,,,,,,,,,,,,10,,,62,0
390,note_on,,1,0,7,,,,,,,,,,,,,,,10,,,64,48
390,note_on,,1,0,8,,,,,,,,,,,,,,,11,,,61,48
390,note_on,,1,0,9,,,,,,,,,,,,,,,12,,,61,48
419,note_on,,29,0,7,,,,,,,,,,,,,,,10,,,64,0
419,note_on,,29,0,8,,,,,,,,,,,,,,,11,,,61,0
419,note_on,,29,0,9,,,,,,,,,,,,,,,12,,,61,0
420,note_on,,1,0,9,,,,,,,,,,,,,,,12,,,59,48
420,note_on,,1,0,8,,,,,,,,,,,,,,,11,,,59,48
420,note_on,,1,0,7,,,,,,,,,,,,,,,10,,,62,48
449,note_on,,29,0,8,,,,,,,,,,,,,,,11,,,59,0
449,note_on,,29,0,9,,,,,,,,,,,,,,,12,,,59,0
449,note_on,,29,0,7,,,,,,,,,,,,,,,10,,,62,0
450,note_on,,1,0,7,,,,,,,,,,,,,,,10,,,64,48
450,note_on,,1,0,8,,,,,,,,,,,,,,,11,,,61,48
450,note_on,,1,0,9,,,,,,,,,,,,,,,12,,,61,48
479,note_on,,29,0,9,,,,,,,,,,,,,,,12,,,61,0
479,note_on,,29,0,7,,,,,,,,,,,,,,,10,,,64,0
479,note_on,,29,0,8,,,,,,,,,,,,,,,11,,,61,0
480,note_on,,0,0,11,,,,,,,,,,,,,,,15,,,66,48
480,note_on,,1,0,9,,,,,,,,,,,,,,,12,,,59,48
480,note_on,,1,0,7,,,,,,,,,,,,,,,10,,,66,48
480,note_on,,0,0,11,,,,,,,,,,,,,,,15,,,59,48
480,note_on,,0,0,11,,,,,,,,,,,,,,,15,,,71,48
480,note_on,,1,0,8,,,,,,,,,,,,,,,11,,,63,48
480,note_on,,121,0,11,,,,,,,,,,,,,,,15,,,57,48
480,note_on,,121,0,10,,,,,,,,,,,,,,,13,,,57,48
480,note_on,,0,0,11,,,,,,,,,,,,,,,15,,,75,48
480,note_on,,121,0,5,,,,,,,,,,,,,,,2,,,57,48
509,note_on,,29,0,7,,,,,,,,,,,,,,,10,,,66,0
509,note_on,,29,0,8,,,,,,,,,,,,,,,11,,,63,0
510,note_on,,1,0,7,,,,,,,,,,,,,,,10,,,67,48
510,note_on,,1,0,8,,,,,,,,,,,,,,,11,,,64,48
539,note_on,,29,0,7,,,,,,,,,,,,,,,10,,,67,0
539,note_on,,59,0,11,,,,,,,,,,,,,,,15,,,57,0
539,note_on,,59,0,9,,,,,,,,,,,,,,,12,,,59,0
539,note_on,,59,0,5,,,,,,,,,,,,,,,2,,,57,0
539,note_on,,29,0,8,,,,,,,,,,,,,,,11,,,64,0
539,note_on,,59,0,10,,,,,,,,,,,,,,,13,,,57,0
540,note_on,,1,0,7,,,,,,,,,,,,,,,10,,,66,48
540,note_on,,1,0,9,,,,,,,,,,,,,,,12,,,59,48
540,note_on,,1,0,5,,,,,,,,,,,,,,,2,,,45,48
540,note_on,,1,0,11,,,,,,,,,,,,,,,15,,,45,48
540,note_on,,1,0,10,,,,,,,,,,,,,,,13,,,45,48
540,note_on,,1,0,8,,,,,,,,,,,,,,,11,,,63,48
569,note_on,,29,0,7,,,,,,,,,,,,,,,10,,,66,0
569,note_on,,29,0,8,,,,,,,,,,,,,,,11,,,63,0
570,note_on,,1,0,8,,,,,,,,,,,,,,,11,,,64,48
570,note_on,,1,0,7,,,,,,,,,,,,,,,10,,,67,48
599,note_on,,29,0,7,,,,,,,,,,,,,,,10,,,67,0
599,note_on,,59,0,10,,,,,,,,,,,,,,,13,,,45,0
599,note_on,,59,0,5,,,,,,,,,,,,,,,2,,,45,0
599,note_on,,59,0,9,,,,,,,,,,,,,,,12,,,59,0
599,note_on,,29,0,8,,,,,,,,,,,,,,,11,,,64,0
599,note_on,,59,0,11,,,,,,,,,,,,,,,15,,,45,0
600,note_on,,1,0,9,,,,,,,,,,,,,,,12,,,59,48
600,note_on,,1,0,7,,,,,,,,,,,,,,,10,,,66,48
600,note_on,,1,0,5,,,,,,,,,,,,,,,2,,,45,48
600,note_on,,1,0,11,,,,,,,,,,,,,,,15,,,45,48
600,note_on,,1,0,8,,,,,,,,,,,,,,,11,,,63,48
600,note_on,,1,0,10,,,,,,,,,,,,,,,13,,,45,48
629,note_on,,29,0,7,,,,,,,,,,,,,,,10,,,66,0
629,note_on,,29,0,8,,,,,,,,,,,,,,,11,,,63,0
630,note_on,,1,0,8,,,,,,,,,,,,,,,11,,,64,48
630,note_on,,1,0,7,,,,,,,,,,,,,,,10,,,67,48
659,note_on,,59,0,9,,,,,,,,,,,,,,,12,,,59,0
659,note_on,,59,0,5,,,,,,,,,,,,,,,2,,,45,0
659,note_on,,29,0,7,,,,,,,,,,,,,,,10,,,67,0
659,note_on,,59,0,11,,,,,,,,,,,,,,,15,,,45,0
659,note_on,,29,0,8,,,,,,,,,,,,,,,11,,,64,0
659,note_on,,59,0,10,,,,,,,,,,,,,,,13,,,45,0
660,note_on,,1,0,10,,,,,,,,,,,,,,,13,,,45,48
660,note_on,,1,0,11,,,,,,,,,,,,,,,15,,,45,48
660,note_on,,1,0,8,,,,,,,,,,,,,,,11,,,63,48
660,note_on,,1,0,9,,,,,,,,,,,,,,,12,,,59,48
660,note_on,,1,0,7,,,,,,,,,,,,,,,10,,,66,48
660,note_on,,1,0,5,,,,,,,,,,,,,,,2,,,45,48
689,note_on,,29,0,8,,,,,,,,,,,,,,,11,,,63,0
689,note_on,,29,0,7,,,,,,,,,,,,,,,10,,,66,0
690,note_on,,1,0,8,,,,,,,,,,,,,,,11,,,64,48
690,note_on,,1,0,7,,,,,,,,,,,,,,,10,,,67,48
719,note_on,,59,0,9,,,,,,,,,,,,,,,12,,,59,0
719,note_on,,59,0,5,,,,,,,,,,,,,,,2,,,45,0
719,note_on,,59,0,10,,,,,,,,,,,,,,,13,,,45,0
719,note_on,,0,0,11,,,,,,,,,,,,,,,15,,,45,0
719,note_on,,59,0,11,,,,,,,,,,,,,,,15,,,75,0
719,note_on,,29,0,8,,,,,,,,,,,,,,,11,,,64,0
719,note_on,,0,0,11,,,,,,,,,,,,,,,15,,,66,0
719,note_on,,0,0,11,,,,,,,,,,,,,,,15,,,71,0
719,note_on,,29,0,7,,,,,,,,,,,,,,,10,,,67,0
719,note_on,,0,0,11,,,,,,,,,,,,,,,15,,,59,0
720,note_on,,1,0,8,,,,,,,,,,,,,,,11,,,63,48
720,note_on,,0,0,11,,,,,,,,,,,,,,,15,,,54,48
720,note_on,,1,0,9,,,,,,,,,,,,,,,12,,,59,48
720,note_on,,0,0,11,,,,,,,,,,,,,,,15,,,66,48
720,note_on,,1,0,7,,,,,,,,,,,,,,,10,,,66,48
720,note_on,,0,0,11,,,,,,,,,,,,,,,15,,,75,48
720,note_on,,0,0,11,,,,,,,,,,,,,,,15,,,78,48
720,note_on,,1,0,10,,,,,,,,,,,,,,,13,,,45,48
720,note_on,,1,0,11,,,,,,,,,,,,,,,15,,,45,48
720,note_on,,0,0,11,,,,,,,,,,,,,,,15,,,71,48
720,note_on,,1,0,5,,,,,,,,,,,,,,,2,,,45,48
749,note_on,,29,0,7,,,,,,,,,,,,,,,10,,,66,0
749,note_on,,29,0,8,,,,,,,,,,,,,,,11,,,63,0
750,note_on,,1,0,7,,,,,,,,,,,,,,,10,,,67,48
750,note_on,,1,0,8,,,,,,,,,,,,,,,11,,,64,48
779,note_on,,29,0,7,,,,,,,,,,,,,,,10,,,67,0
779,note_on,,29,0,8,,,,,,,,,,,,,,,11,,,64,0
780,note_on,,1,0,7,,,,,,,,,,,,,,,10,,,66,48
780,note_on,,1,0,8,,,,,,,,,,,,,,,11,,,63,48
809,note_on,,29,0,8,,,,,,,,,,,,,,,11,,,63,0
809,note_on,,29,0,7,,,,,,,,,,,,,,,10,,,66,0
810,note_on,,1,0,8,,,,,,,,,,,,,,,11,,,64,48
810,note_on,,1,0,7,,,,,,,,,,,,,,,10,,,67,48
839,note_on,,119,0,11,,,,,,,,,,,,,,,15,,,45,0
839,note_on,,119,0,10,,,,,,,,,,,,,,,13,,,45,0
839,note_on,,0,0,11,,,,,,,,,,,,,,,15,,,54,0
839,note_on,,0,0,11,,,,,,,,,,,,,,,15,,,66,0
839,note_on,,0,0,11,,,,,,,,,,,,,,,15,,,71,0
839,note_on,,119,0,5,,,,,,,,,,,,,,,2,,,45,0
839,note_on,,0,0,11,,,,,,,,,,,,,,,15,,,75,0
839,note_on,,0,0,11,,,,,,,,,,,,,,,15,,,78,0
839,note_on,,29,0,8,,,,,,,,,,,,,,,11,,,64,0
839,note_on,,119,0,9,,,,,,,,,,,,,,,12,,,59,0
839,note_on,,29,0,7,,,,,,,,,,,,,,,10,,,67,0
840,note_on,,1,0,8,,,,,,,,,,,,,,,11,,,63,48
840,note_on,,1,0,7,,,,,,,,,,,,,,,10,,,66,48
869,note_on,,29,0,7,,,,,,,,,,,,,,,10,,,66,0
869,note_on,,29,0,8,,,,,,,,,,,,,,,11,,,63,0
870,note_on,,1,0,8,,,,,,,,,,,,,,,11,,,64,48
870,note_on,,1,0,7,,,,,,,,,,,,,,,10,,,67,48
899,note_on,,29,0,7,,,,,,,,,,,,,,,10,,,67,0
899,note_on,,29,0,8,,,,,,,,,,,,,,,11,,,64,0
900,note_on,,1,0,7,,,,,,,,,,,,,,,10,,,66,48
900,note_on,,1,0,8,,,,,,,,,,,,,,,11,,,63,48
929,note_on,,29,0,7,,,,,,,,,,,,,,,10,,,66,0
929,note_on,,29,0,8,,,,,,,,,,,,,,,11,,,63,0
930,note_on,,1,0,7,,,,,,,,,,,,,,,10,,,67,48
930,note_on,,1,0,8,,,,,,,,,,,,,,,11,,,66,48
959,note_on,,29,0,7,,,,,,,,,,,,,,,10,,,67,0
959,note_on,,29,0,8,,,,,,,,,,,,,,,11,,,66,0
960,note_on,,121,0,11,,,,,,,,,,,,,,,15,,,44,48
960,note_on,,0,0,11,,,,,,,,,,,,,,,15,,,68,48
960,note_on,,0,0,11,,,,,,,,,,,,,,,15,,,65,48
960,note_on,,121,0,9,,,,,,,,,,,,,,,12,,,59,48
960,note_on,,0,0,11,,,,,,,,,,,,,,,15,,,71,48
960,note_on,,1,0,7,,,,,,,,,,,,,,,10,,,59,48
960,note_on,,121,0,5,,,,,,,,,,,,,,,2,,,44,48
960,note_on,,121,0,10,,,,,,,,,,,,,,,13,,,44,48
960,note_on,,0,0,11,,,,,,,,,,,,,,,15,,,56,48
960,note_on,,1,0,8,,,,,,,,,,,,,,,11,,,65,48
989,note_on,,29,0,8,,,,,,,,,,,,,,,11,,,65,0
990,note_on,,1,0,8,,,,,,,,,,,,,,,11,,,66,48
1019,note_on,,59,0,5,,,,,,,,,,,,,,,2,,,44,0
1019,note_on,,0,0,11,,,,,,,,,,,,,,,15,,,56,0
1019,note_on,,59,0,11,,,,,,,,,,,,,,,15,,,44,0
1019,note_on,,59,0,7,,,,,,,,,,,,,,,10,,,59,0
1019,note_on,,59,0,9,,,,,,,,,,,,,,,12,,,59,0
1019,note_on,,59,0,10,,,,,,,,,,,,,,,13,,,44,0
1019,note_on,,29,0,8,,,,,,,,,,,,,,,11,,,66,0
1020,note_on,,1,0,7,,,,,,,,,,,,,,,10,,,65,48
1020,note_on,,1,0,11,,,,,,,,,,,,,,,15,,,44,48
1020,note_on,,1,0,8,,,,,,,,,,,,,,,11,,,59,48
1020,note_on,,0,0,11,,,,,,,,,,,,,,,15,,,56,48
1020,note_on,,1,0,10,,,,,,,,,,,,,,,13,,,44,48
1020,note_on,,1,0,9,,,,,,,,,,,,,,,12,,,56,48
1020,note_on,,1,0,5,,,,,,,,,,,,,,,2,,,44,48
1049,note_on,,29,0,7,,,,,,,,,,,,,,,10,,,65,0
1050,note_on,,1,0,7,,,,,,,,,,,,,,,10,,,66,48
1079,note_on,,59,0,11,,,,,,,,,,,,,,,15,,,44,0
1079,note_on,,59,0,9,,,,,,,,,,,,,,,12,,,56,0
1079,note_on,,59,0,5,,,,,,,,,,,,,,,2,,,44,0
1079,note_on,,59,0,8,,,,,,,,,,,,,,,11,,,59,0
1079,note_on,,59,0,10,,,,,,,,,,,,,,,13,,,44,0
1079,note_on,,0,0,11,,,,,,,,,,,,,,,15,,,56,0
1079,note_on,,29,0,7,,,,,,,,,,,,,,,10,,,66,0
1080,note_on,,1,0,7,,,,,,,,,,,,,,,10,,,65,48
1080,note_on,,0,0,11,,,,,,,,,,,,,,,15,,,56,48
1080,note_on,,1,0,5,,,,,,,,,,,,,,,2,,,44,48
1080,note_on,,1,0,10,,,,,,,,,,,,,,,13,,,44,48
1080,note_on,,1,0,9,,,,,,,,,,,,,,,12,,,56,48
1080,note_on,,1,0,11,,,,,,,,,,,,,,,15,,,44,48
1080,note_on,,1,0,8,,,,,,,,,,,,,,,11,,,59,48
1109,note_on,,29,0,7,,,,,,,,,,,,,,,10,,,65,0
1110,note_on,,1,0,7,,,,,,,,,,,,,,,10,,,66,48
1139,note_on,,0,0,11,,,,,,,,,,,,,,,15,,,56,0
1139,note_on,,59,0,5,,,,,,,,,,,,,,,2,,,44,0
1139,note_on,,29,0,7,,,,,,,,,,,,,,,10,,,66,0
1139,note_on,,59,0,10,,,,,,,,,,,,,,,13,,,44,0
1139,note_on,,59,0,9,,,,,,,,,,,,,,,12,,,56,0
1139,note_on,,59,0,8,,,,,,,,,,,,,,,11,,,59,0
1139,note_on,,59,0,11,,,,,,,,,,,,,,,15,,,44,0
1140,note_on,,1,0,8,,,,,,,,,,,,,,,11,,,59,48
1140,note_on,,1,0,11,,,,,,,,,,,,,,,15,,,44,48
1140,note_on,,1,0,7,,,,,,,,,,,,,,,10,,,65,48
1140,note_on,,1,0,5,,,,,,,,,,,,,,,2,,,44,48
1140,note_on,,1,0,10,,,,,,,,,,,,,,,13,,,44,48
1140,note_on,,0,0,11,,,,,,,,,,,,,,,15,,,56,48
1140,note_on,,1,0,9,,,,,,,,,,,,,,,12,,,56,48
1169,note_on,,29,0,7,,,,,,,,,,,,,,,10,,,65,0
1170,note_on,,1,0,7,,,,,,,,,,,,,,,10,,,66,48
1199,note_on,,0,0,11,,,,,,,,,,,,,,,15,,,65,0
1199,note_on,,59,0,8,,,,,,,,,,,,,,,11,,,59,0
1199,note_on,,59,0,11,,,,,,,,,,,,,,,15,,,71,0
1199,note_on,,0,0,11,,,,,,,,,,,,,,,15,,,68,0
1199,note_on,,0,0,11,,,,,,,,,,,,,,,15,,,44,0
1199,note_on,,29,0,7,,,,,,,,,,,,,,,10,,,66,0
1199,note_on,,59,0,10,,,,,,,,,,,,,,,13,,,44,0
1199,note_on,,59,0,5,,,,,,,,,,,,,,,2,,,44,0
1199,note_on,,0,0,11,,,,,,,,,,,,,,,15,,,56,0
1199,note_on,,59,0,9,,,,,,,,,,,,,,,12,,,56,0
1200,note_on,,1,0,11,,,,,,,,,,,,,,,15,,,44,48
1200,note_on,,1,0,8,,,,,,,,,,,,,,,11,,,56,48
1200,note_on,,1,0,7,,,,,,,,,,,,,,,10,,,65,48
1200,note_on,,1,0,5,,,,,,,,,,,,,,,2,,,44,48
1200,note_on,,0,0,11,,,,,,,,,,,,,,,15,,,71,48
1200,note_on,,0,0,11,,,,,,,,,,,,,,,15,,,77,48
1200,note_on,,0,0,11,,,,,,,,,,,,,,,15,,,80,48
1200,note_on,,0,0,11,,,,,,,,,,,,,,,15,,,56,48
1200,note_on,,1,0,9,,,,,,,,,,,,,,,12,,,59,48
1200,note_on,,1,0,10,,,,,,,,,,,,,,,13,,,44,48
1229,note_on,,29,0,7,,,,,,,,,,,,,,,10,,,65,0
1230,note_on,,1,0,7,,,,,,,,,,,,,,,10,,,66,48
1259,note_on,,59,0,8,,,,,,,,,,,,,,,11,,,56,0
1259,note_on,,59,0,9,,,,,,,,,,,,,,,12,,,59,0
1259,note_on,,29,0,7,,,,,,,,,,,,,,,10,,,66,0
1260,note_on,,1,0,8,,,,,,,,,,,,,,,11,,,56,48
1260,note_on,,1,0,7,,,,,,,,,,,,,,,10,,,65,48
1260,note_on,,1,0,9,,,,,,,,,,,,,,,12,,,59,48
1289,note_on,,29,0,7,,,,,,,,,,,,,,,10,,,65,0
1290,note_on,,1,0,7,,,,,,,,,,,,,,,10,,,66,48
1319,note_on,,119,0,11,,,,,,,,,,,,,,,15,,,44,0
1319,note_on,,0,0,11,,,,,,,,,,,,,,,15,,,56,0
1319,note_on,,0,0,11,,,,,,,,,,,,,,,15,,,80,0
1319,note_on,,0,0,11,,,,,,,,,,,,,,,15,,,77,0
1319,note_on,,0,0,11,,,,,,,,,,,,,,,15,,,71,0
1319,note_on,,119,0,5,,,,,,,,,,,,,,,2,,,44,0
1319,note_on,,119,0,10,,,,,,,,,,,,,,,13,,,44,0
1319,note_on,,59,0,9,,,,,,,,,,,,,,,12,,,59,0
1319,note_on,,59,0,8,,,,,,,,,,,,,,,11,,,56,0
1319,note_on,,29,0,7,,,,,,,,,,,,,,,10,,,66,0
1320,note_on,,1,0,8,,,,,,,,,,,,,,,11,,,56,48
1320,note_on,,1,0,7,,,,,,,,,,,,,,,10,,,65,48
1320,note_on,,1,0,9,,,,,,,,,,,,,,,12,,,59,48
1349,note_on,,29,0,7,,,,,,,,,,,,,,,10,,,65,0
1350,note_on,,1,0,7,,,,,,,,,,,,,,,10,,,66,48
1379,note_on,,29,0,7,,,,,,,,,,,,,,,10,,,66,0
1379,note_on,,59,0,9,,,,,,,,,,,,,,,12,,,59,0
1379,note_on,,59,0,8,,,,,,,,,,,,,,,11,,,56,0
1380,note_on,,1,0,7,,,,,,,,,,,,,,,10,,,65,48
1380,note_on,,1,0,9,,,,,,,,,,,,,,,12,,,59,48
1380,note_on,,1,0,8,,,,,,,,,,,,,,,11,,,56,48
1409,note_on,,29,0,7,,,,,,,,,,,,,,,10,,,65,0
1410,note_on,,1,0,7,,,,,,,,,,,,,,,10,,,66,48
1439,note_on,,59,0,9,,,,,,,,,,,,,,,12,,,59,0
1439,note_on,,59,0,8,,,,,,,,,,,,,,,11,,,56,0
1439,note_on,,29,0,7,,,,,,,,,,,,,,,10,,,66,0
1440,note_on,,0,0,11,,,,,,,,,,,,,,,15,,,54,48
1440,note_on,,0,0,11,,,,,,,,,,,,,,,15,,,66,48
1440,note_on,,0,0,11,,,,,,,,,,,,,,,15,,,70,48
1440,note_on,,0,0,11,,,,,,,,,,,,,,,15,,,73,48
1440,note_on,,121,0,11,,,,,,,,,,,,,,,15,,,46,48
1440,note_on,,1,0,7,,,,,,,,,,,,,,,10,,,66,48
1440,note_on,,121,0,5,,,,,,,,,,,,,,,2,,,46,48
1440,note_on,,1,0,9,,,,,,,,,,,,,,,12,,,61,48
1440,note_on,,121,0,10,,,,,,,,,,,,,,,13,,,46,48
1440,note_on,,1,0,8,,,,,,,,,,,,,,,11,,,66,48
1469,note_on,,29,0,7,,,,,,,,,,,,,,,10,,,66,0
1469,note_on,,29,0,8,,,,,,,,,,,,,,,11,,,66,0
1470,note_on,,1,0,7,,,,,,,,,,,,,,,10,,,67,48
1470,note_on,,1,0,8,,,,,,,,,,,,,,,11,,,64,48
1499,note_on,,59,0,5,,,,,,,,,,,,,,,2,,,46,0
1499,note_on,,59,0,9,,,,,,,,,,,,,,,12,,,61,0
1499,note_on,,59,0,10,,,,,,,,,,,,,,,13,,,46,0
1499,note_on,,0,0,11,,,,,,,,,,,,,,,15,,,54,0
1499,note_on,,29,0,7,,,,,,,,,,,,,,,10,,,67,0
1499,note_on,,29,0,8,,,,,,,,,,,,,,,11,,,64,0
1499,note_on,,59,0,11,,,,,,,,,,,,,,,15,,,46,0
1500,note_on,,1,0,11,,,,,,,,,,,,,,,15,,,46,48
1500,note_on,,1,0,7,,,,,,,,,,,,,,,10,,,66,48
1500,note_on,,1,0,8,,,,,,,,,,,,,,,11,,,66,48
1500,note_on,,1,0,10,,,,,,,,,,,,,,,13,,,46,48
1500,note_on,,1,0,9,,,,,,,,,,,,,,,12,,,61,48
1500,note_on,,1,0,5,,,,,,,,,,,,,,,2,,,46,48
1500,note_on,,0,0,11,,,,,,,,,,,,,,,15,,,54,48
1529,note_on,,29,0,8,,,,,,,,,,,,,,,11,,,66,0
1529,note_on,,29,0,7,,,,,,,,,,,,,,,10,,,66,0
1530,note_on,,1,0,8,,,,,,,,,,,,,,,11,,,64,48
1530,note_on,,1,0,7,,,,,,,,,,,,,,,10,,,67,48
1559,note_on,,29,0,8,,,,,,,,,,,,,,,11,,,64,0
1559,note_on,,59,0,10,,,,,,,,,,,,,,,13,,,46,0
1559,note_on,,59,0,11,,,,,,,,,,,,,,,15,,,46,0
1559,note_on,,59,0,9,,,,,,,,,,,,,,,12,,,61,0
1559,note_on,,0,0,11,,,,,,,,,,,,,,,15,,,54,0
1559,note_on,,29,0,7,,,,,,,,,,,,,,,10,,,67,0
1559,note_on,,59,0,5,,,,,,,,,,,,,,,2,,,46,0
1560,note_on,,1,0,5,,,,,,,,,,,,,,,2,,,46,48
1560,note_on,,1,0,10,,,,,,,,,,,,,,,13,,,46,48
1560,note_on,,1,0,9,,,,,,,,,,,,,,,12,,,61,48
1560,note_on,,0,0,11,,,,,,,,,,,,,,,15,,,54,48
1560,note_on,,1,0,11,,,,,,,,,,,,,,,15,,,46,48
1560,note_on,,1,0,7,,,,,,,,,,,,,,,10,,,66,48
1560,note_on,,1,0,8,,,,,,,,,,,,,,,11,,,66,48
1589,note_on,,29,0,7,,,,,,,,,,,,,,,10,,,66,0
1589,note_on,,29,0,8,,,,,,,,,,,,,,,11,,,66,0
1590,note_on,,1,0,7,,,,,,,,,,,,,,,10,,,67,48
1590,note_on,,1,0,8,,,,,,,,,,,,,,,11,,,64,48
1619,note_on,,59,0,9,,,,,,,,,,,,,,,12,,,61,0
1619,note_on,,29,0,7,,,,,,,,,,,,,,,10,,,67,0
1619,note_on,,59,0,10,,,,,,,,,,,,,,,13,,,46,0
1619,note_on,,59,0,11,,,,,,,,,,,,,,,15,,,46,0
1619,note_on,,0,0,11,,,,,,,,,,,,,,,15,,,54,0
1619,note_on,,59,0,5,,,,,,,,,,,,,,,2,,,46,0
1619,note_on,,29,0,8,,,,,,,,,,,,,,,11,,,64,0
1620,note_on,,1,0,8,,,,,,,,,,,,,,,11,,,66,48
1620,note_on,,0,0,11,,,,,,,,,,,,,,,15,,,54,48
1620,note_on,,1,0,9,,,,,,,,,,,,,,,12,,,61,48
1620,note_on,,1,0,10,,,,,,,,,,,,,,,13,,,46,48
1620,note_on,,1,0,11,,,,,,,,,,,,,,,15,,,46,48
1620,note_on,,1,0,5,,,,,,,,,,,,,,,2,,,46,48
1620,note_on,,1,0,7,,,,,,,,,,,,,,,10,,,66,48
1649,note_on,,29,0,7,,,,,,,,,,,,,,,10,,,66,0
1649,note_on,,29,0,8,,,,,,,,,,,,,,,11,,,66,0
1650,note_on,,1,0,7,,,,,,,,,,,,,,,10,,,67,48
1650,note_on,,1,0,8,,,,,,,,,,,,,,,11,,,64,48
1679,note_on,,59,0,9,,,,,,,,,,,,,,,12,,,61,0
1679,note_on,,59,0,10,,,,,,,,,,,,,,,13,,,46,0
1679,note_on,,0,0,11,,,,,,,,,,,,,,,15,,,54,0
1679,note_on,,0,0,11,,,,,,,,,,,,,,,15,,,66,0
1679,note_on,,0,0,11,,,,,,,,,,,,,,,15,,,70,0
1679,note_on,,59,0,11,,,,,,,,,,,,,,,15,,,73,0
1679,note_on,,59,0,5,,,,,,,,,,,,,,,2,,,46,0
1679,note_on,,0,0,11,,,,,,,,,,,,,,,15,,,46,0
1679,note_on,,29,0,7,,,,,,,,,,,,,,,10,,,67,0
1679,note_on,,29,0,8,,,,,,,,,,,,,,,11,,,64,0
1680,note_on,,0,0,11,,,,,,,,,,,,,,,15,,,66,48
1680,note_on,,0,0,11,,,,,,,,,,,,,,,15,,,54,48
1680,note_on,,0,0,11,,,,,,,,,,,,,,,15,,,58,48
1680,note_on,,0,0,11,,,,,,,,,,,,,,,15,,,61,48
1680,note_on,,1,0,7,,,,,,,,,,,,,,,10,,,66,48
1680,note_on,,1,0,11,,,,,,,,,,,,,,,15,,,46,48
1680,note_on,,1,0,9,,,,,,,,,,,,,,,12,,,61,48
1680,note_on,,1,0,8,,,,,,,,,,,,,,,11,,,66,48
1680,note_on,,1,0,5,,,,,,,,,,,,,,,2,,,46,48
1680,note_on,,1,0,10,,,,,,,,,,,,,,,13,,,46,48
1709,note_on,,29,0,8,,,,,,,,,,,,,,,11,,,66,0
1709,note_on,,29,0,7,,,,,,,,,,,,,,,10,,,66,0
1710,note_on,,1,0,8,,,,,,,,,,,,,,,11,,,64,48
1710,note_on,,1,0,7,,,,,,,,,,,,,,,10,,,67,48
1739,note_on,,29,0,8,,,,,,,,,,,,,,,11,,,64,0
1739,note_on,,29,0,7,,,,,,,,,,,,,,,10,,,67,0
1740,note_on,,1,0,8,,,,,,,,,,,,,,,11,,,66,48
1740,note_on,,1,0,7,,,,,,,,,,,,,,,10,,,66,48
1769,note_on,,29,0,7,,,,,,,,,,,,,,,10,,,66,0
1769,note_on,,29,0,8,,,,,,,,,,,,,,,11,,,66,0
1770,note_on,,1,0,8,,,,,,,,,,,,,,,11,,,64,48
1770,note_on,,1,0,7,,,,,,,,,,,,,,,10,,,67,48
1799,note_on,,119,0,11,,,,,,,,,,,,,,,15,,,46,0
1799,note_on,,0,0,11,,,,,,,,,,,,,,,15,,,58,0
1799,note_on,,0,0,11,,,,,,,,,,,,,,,15,,,61,0
1799,note_on,,0,0,11,,,,,,,,,,,,,,,15,,,66,0
1799,note_on,,119,0,5,,,,,,,,,,,,,,,2,,,46,0
1799,note_on,,0,0,11,,,,,,,,,,,,,,,15,,,54,0
1799,note_on,,119,0,10,,,,,,,,,,,,,,,13,,,46,0
1799,note_on,,29,0,7,,,,,,,,,,,,,,,10,,,67,0
1799,note_on,,119,0,9,,,,,,,,,,,,,,,12,,,61,0
1799,note_on,,29,0,8,,,,,,,,,,,,,,,11,,,64,0
1800,note_on,,1,0,7,,,,,,,,,,,,,,,10,,,66,48
1800,note_on,,1,0,8,,,,,,,,,,,,,,,11,,,66,48
1829,note_on,,29,0,8,,,,,,,,,,,,,,,11,,,66,0
1829,note_on,,29,0,7,,,,,,,,,,,,,,,10,,,66,0
1830,note_on,,1,0,8,,,,,,,,,,,,,,,11,,,64,48
1830,note_on,,1,0,7,,,,,,,,,,,,,,,10,,,67,48
1859,note_on,,29,0,8,,,,,,,,,,,,,,,11,,,64,0
1859,note_on,,29,0,7,,,,,,,,,,,,,,,10,,,67,0
1860,note_on,,1,0,8,,,,,,,,,,,,,,,11,,,66,48
1860,note_on,,1,0,7,,,,,,,,,,,,,,,10,,,66,48
1889,note_on,,29,0,7,,,,,,,,,,,,,,,10,,,66,0
1889,note_on,,29,0,8,,,,,,,,,,,,,,,11,,,66,0
1890,note_on,,1,0,7,,,,,,,,,,,,,,,10,,,67,48
1890,note_on,,1,0,8,,,,,,,,,,,,,,,11,,,64,48
1919,note_on,,29,0,7,,,,,,,,,,,,,,,10,,,67,0
1919,note_on,,29,0,8,,,,,,,,,,,,,,,11,,,64,0
1920,note_on,,121,0,10,,,,,,,,,,,,,,,13,,,47,48
1920,note_on,,1,0,8,,,,,,,,,,,,,,,11,,,62,48
1920,note_on,,0,0,11,,,,,,,,,,,,,,,15,,,59,48
1920,note_on,,0,0,11,,,,,,,,,,,,,,,15,,,74,48
1920,note_on,,0,0,11,,,,,,,,,,,,,,,15,,,71,48
1920,note_on,,0,0,11,,,,,,,,,,,,,,,15,,,66,48
1920,note_on,,121,0,5,,,,,,,,,,,,,,,2,,,47,48
1920,note_on,,1,0,7,,,,,,,,,,,,,,,10,,,66,48
1920,note_on,,121,0,9,,,,,,,,,,,,,,,12,,,59,48
1920,note_on,,121,0,11,,,,,,,,,,,,,,,15,,,47,48
1979,note_on,,59,0,5,,,,,,,,,,,,,,,2,,,47,0
1979,note_on,,59,0,7,,,,,,,,,,,,,,,10,,,66,0
1979,note_on,,59,0,10,,,,,,,,,,,,,,,13,,,47,0
1979,note_on,,59,0,8,,,,,,,,,,,,,,,11,,,62,0
1979,note_on,,0,0,11,,,,,,,,,,,,,,,15,,,59,0
1979,note_on,,0,0,11,,,,,,,,,,,,,,,15,,,66,0
1979,note_on,,0,0,11,,,,,,,,,,,,,,,15,,,74,0
1979,note_on,,59,0,11,,,,,,,,,,,,,,,15,,,47,0
1979,note_on,,59,0,9,,,,,,,,,,,,,,,12,,,59,0
1979,note_on,,0,0,11,,,,,,,,,,,,,,,15,,,71,0
1980,note_on,,1,0,10,,,,,,,,,,,,,,,13,,,52,48
1980,note_on,,1,0,7,,,,,,,,,,,,,,,10,,,64,48
1980,note_on,,0,0,11,,,,,,,,,,,,,,,15,,,67,48
1980,note_on,,1,0,5,,,,,,,,,,,,,,,2,,,52,48
1980,note_on,,1,0,8,,,,,,,,,,,,,,,11,,,61,48
1980,note_on,,1,0,11,,,,,,,,,,,,,,,15,,,52,48
1980,note_on,,0,0,11,,,,,,,,,,,,,,,15,,,76,48
1980,note_on,,0,0,11,,,,,,,,,,,,,,,15,,,71,48
1980,note_on,,1,0,9,,,,,,,,,,,,,,,12,,,61,48
1980,note_on,,0,0,11,,,,,,,,,,,,,,,15,,,55,48
2009,note_on,,29,0,7,,,,,,,,,,,,,,,10,,,64,0
2009,note_on,,29,0,8,,,,,,,,,,,,,,,11,,,61,0
2010,note_on,,1,0,8,,,,,,,,,,,,,,,11,,,59,48
2010,note_on,,1,0,7,,,,,,,,,,,,,,,10,,,62,48
2039,note_on,,59,0,9,,,,,,,,,,,,,,,12,,,61,0
2039,note_on,,29,0,8,,,,,,,,,,,,,,,11,,,59,0
2039,note_on,,29,0,7,,,,,,,,,,,,,,,10,,,62,0
2039,note_on,,0,0,11,,,,,,,,,,,,,,,15,,,71,0
2039,note_on,,0,0,11,,,,,,,,,,,,,,,15,,,67,0
2039,note_on,,0,0,11,,,,,,,,,,,,,,,15,,,55,0
2039,note_on,,59,0,10,,,,,,,,,,,,,,,13,,,52,0
2039,note_on,,0,0,11,,,,,,,,,,,,,,,15,,,76,0
2039,note_on,,59,0,11,,,,,,,,,,,,,,,15,,,52,0
2039,note_on,,59,0,5,,,,,,,,,,,,,,,2,,,52,0
2040,note_on,,1,0,8,,,,,,,,,,,,,,,11,,,58,48
2040,note_on,,1,0,7,,,,,,,,,,,,,,,10,,,61,48
2040,note_on,,0,0,11,,,,,,,,,,,,,,,15,,,61,48
2040,note_on,,0,0,11,,,,,,,,,,,,,,,15,,,70,48
2040,note_on,,1,0,11,,,,,,,,,,,,,,,15,,,54,48
2040,note_on,,1,0,5,,,,,,,,,,,,,,,2,,,54,48
2040,note_on,,0,0,11,,,,,,,,,,,,,,,15,,,73,48
2040,note_on,,1,0,9,,,,,,,,,,,,,,,12,,,54,48
2040,note_on,,1,0,10,,,,,,,,,,,,,,,13,,,54,48
2054,note_on,,14,0,8,,,,,,,,,,,,,,,11,,,58,0
2054,note_on,,14,0,7,,,,,,,,,,,,,,,10,,,61,0
2055,note_on,,1,0,8,,,,,,,,,,,,,,,11,,,59,48
2055,note_on,,1,0,7,,,,,,,,,,,,,,,10,,,62,48
2069,note_on,,14,0,8,,,,,,,,,,,,,,,11,,,59,0
2069,note_on,,14,0,7,,,,,,,,,,,,,,,10,,,62,0
2070,note_on,,1,0,8,,,,,,,,,,,,,,,11,,,58,48
2070,note_on,,1,0,7,,,,,,,,,,,,,,,10,,,61,48
2084,note_on,,14,0,8,,,,,,,,,,,,,,,11,,,58,0
2084,note_on,,14,0,7,,,,,,,,,,,,,,,10,,,61,0
2085,note_on,,1,0,7,,,,,,,,,,,,,,,10,,,62,48
2085,note_on,,1,0,8,,,,,,,,,,,,,,,11,,,59,48
2099,note_on,,14,0,7,,,,,,,,,,,,,,,10,,,62,0
2099,note_on,,59,0,5,,,,,,,,,,,,,,,2,,,54,0
2099,note_on,,59,0,11,,,,,,,,,,,,,,,15,,,54,0
2099,note_on,,59,0,9,,,,,,,,,,,,,,,12,,,54,0
2099,note_on,,14,0,8,,,,,,,,,,,,,,,11,,,59,0
2099,note_on,,59,0,10,,,,,,,,,,,,,,,13,,,54,0
2099,note_on,,0,0,11,,,,,,,,,,,,,,,15,,,61,0
2100,note_on,,1,0,8,,,,,,,,,,,,,,,11,,,55,48
2100,note_on,,1,0,11,,,,,,,,,,,,,,,15,,,42,48
2100,note_on,,1,0,7,,,,,,,,,,,,,,,10,,,59,48
2100,note_on,,0,0,11,,,,,,,,,,,,,,,15,,,66,48
2100,note_on,,0,0,11,,,,,,,,,,,,,,,15,,,54,48
2100,note_on,,1,0,5,,,,,,,,,,,,,,,2,,,42,48
2100,note_on,,1,0,10,,,,,,,,,,,,,,,13,,,42,48
2100,note_on,,1,0,9,,,,,,,,,,,,,,,12,,,54,48
2114,note_on,,14,0,8,,,,,,,,,,,,,,,11,,,55,0
2114,note_on,,14,0,7,,,,,,,,,,,,,,,10,,,59,0
2115,note_on,,1,0,7,,,,,,,,,,,,,,,10,,,61,48
2115,note_on,,1,0,8,,,,,,,,,,,,,,,11,,,58,48
2129,note_on,,14,0,7,,,,,,,,,,,,,,,10,,,61,0
2129,note_on,,14,0,8,,,,,,,,,,,,,,,11,,,58,0
2130,note_on,,1,0,7,,,,,,,,,,,,,,,10,,,59,48
2130,note_on,,1,0,8,,,,,,,,,,,,,,,11,,,59,48
2159,note_on,,0,0,11,,,,,,,,,,,,,,,15,,,70,0
2159,note_on,,59,0,5,,,,,,,,,,,,,,,2,,,42,0
2159,note_on,,59,0,11,,,,,,,,,,,,,,,15,,,73,0
2159,note_on,,0,0,11,,,,,,,,,,,,,,,15,,,42,0
2159,note_on,,0,0,11,,,,,,,,,,,,,,,15,,,54,0
2159,note_on,,0,0,11,,,,,,,,,,,,,,,15,,,66,0
2159,note_on,,59,0,10,,,,,,,,,,,,,,,13,,,42,0
2159,note_on,,59,0,9,,,,,,,,,,,,,,,12,,,54,0
2159,note_on,,29,0,7,,,,,,,,,,,,,,,10,,,59,0
2159,note_on,,29,0,8,,,,,,,,,,,,,,,11,,,59,0
2160,note_on,,0,0,11,,,,,,,,,,,,,,,15,,,66,48
2160,note_on,,1,0,8,,,,,,,,,,,,,,,11,,,59,48
2160,note_on,,1,0,5,,,,,,,,,,,,,,,2,,,47,48
2160,note_on,,1,0,11,,,,,,,,,,,,,,,15,,,47,48
2160,note_on,,0,0,11,,,,,,,,,,,,,,,15,,,71,48
2160,note_on,,0,0,11,,,,,,,,,,,,,,,15,,,62,48
2160,note_on,,1,0,7,,,,,,,,,,,,,,,10,,,59,48
2160,note_on,,1,0,10,,,,,,,,,,,,,,,13,,,47,48
2160,note_on,,0,0,11,,,,,,,,,,,,,,,15,,,54,48
2160,note_on,,1,0,9,,,,,,,,,,,,,,,12,,,54,48
2279,note_on,,119,0,8,,,,,,,,,,,,,,,11,,,59,0
2279,note_on,,119,0,10,,,,,,,,,,,,,,,13,,,47,0
2279,end_of_track,,0,1,5,,,,,,,,,,,,,,,,,,,
2279,note_on,,119,0,5,,,,,,,,,,,,,,,2,,,47,0
2279,note_on,,119,0,7,,,,,,,,,,,,,,,10,,,59,0
2279,note_on,,0,0,11,,,,,,,,,,,,,,,15,,,54,0
2279,note_on,,0,0,11,,,,,,,,,,,,,,,15,,,62,0
2279,note_on,,119,0,9,,,,,,,,,,,,,,,12,,,54,0
2279,note_on,,0,0,11,,,,,,,,,,,,,,,15,,,66,0
2279,note_on,,0,0,11,,,,,,,,,,,,,,,15,,,71,0
2279,note_on,,119,0,11,,,,,,,,,,,,,,,15,,,47,0
2280,note_on,,0,0,6,,,,,,,,,,,,,,,8,,,54,67
2280,control_change,,2280,0,6,,,,,,,,,,,,,,,8,7,96,,
2369,note_on,,89,0,6,,,,,,,,,,,,,,,8,,,54,0
2370,note_on,,1,0,6,,,,,,,,,,,,,,,8,,,54,67
2399,note_on,,29,0,6,,,,,,,,,,,,,,,8,,,54,0
2400,note_on,,1,0,6,,,,,,,,,,,,,,,8,,,59,61
2400,note_on,,121,0,7,,,,,,,,,,,,,,,10,,,59,48
2400,note_on,,0,0,11,,,,,,,,,,,,,,,15,,,62,48
2400,note_on,,121,0,10,,,,,,,,,,,,,,,13,,,59,48
2400,note_on,,0,0,11,,,,,,,,,,,,,,,15,,,66,48
2400,note_on,,121,0,11,,,,,,,,,,,,,,,15,,,59,48
2429,note_on,,29,0,10,,,,,,,,,,,,,,,13,,,59,0
2429,note_on,,29,0,11,,,,,,,,,,,,,,,15,,,59,0
2429,note_on,,29,0,7,,,,,,,,,,,,,,,10,,,59,0
2429,note_on,,0,0,11,,,,,,,,,,,,,,,15,,,62,0
2430,note_on,,1,0,7,,,,,,,,,,,,,,,10,,,61,48
2430,note_on,,1,0,10,,,,,,,,,,,,,,,13,,,58,48
2430,note_on,,0,0,11,,,,,,,,,,,,,,,15,,,61,48
2430,note_on,,1,0,11,,,,,,,,,,,,,,,15,,,58,48
2459,note_on,,29,0,7,,,,,,,,,,,,,,,10,,,61,0
2459,note_on,,29,0,10,,,,,,,,,,,,,,,13,,,58,0
2459,note_on,,29,0,11,,,,,,,,,,,,,,,15,,,58,0
2459,note_on,,0,0,11,,,,,,,,,,,,,,,15,,,61,0
2460,note_on,,0,0,11,,,,,,,,,,,,,,,15,,,62,48
2460,note_on,,1,0,10,,,,,,,,,,,,,,,13,,,59,48
2460,note_on,,1,0,7,,,,,,,,,,,,,,,10,,,59,48
2460,note_on,,1,0,11,,,,,,,,,,,,,,,15,,,59,48
2489,note_on,,0,0,11,,,,,,,,,,,,,,,15,,,62,0
2489,note_on,,29,0,10,,,,,,,,,,,,,,,13,,,59,0
2489,note_on,,29,0,11,,,,,,,,,,,,,,,15,,,59,0
2489,note_on,,29,0,7,,,,,,,,,,,,,,,10,,,59,0
2490,note_on,,1,0,7,,,,,,,,,,,,,,,10,,,61,48
2490,note_on,,0,0,11,,,,,,,,,,,,,,,15,,,61,48
2490,note_on,,1,0,11,,,,,,,,,,,,,,,15,,,58,48
2490,note_on,,1,0,10,,,,,,,,,,,,,,,13,,,58,48
2519,note_on,,29,0,10,,,,,,,,,,,,,,,13,,,58,0
2519,note_on,,29,0,11,,,,,,,,,,,,,,,15,,,58,0
2519,note_on,,0,0,11,,,,,,,,,,,,,,,15,,,61,0
2519,note_on,,29,0,7,,,,,,,,,,,,,,,10,,,61,0
2519,note_on,,119,0,6,,,,,,,,,,,,,,,8,,,59,0
2520,note_on,,0,0,11,,,,,,,,,,,,,,,15,,,62,48
2520,note_on,,1,0,7,,,,,,,,,,,,,,,10,,,59,48
2520,note_on,,1,0,11,,,,,,,,,,,,,,,15,,,59,48
2520,note_on,,1,0,10,,,,,,,,,,,,,,,13,,,59,48
2549,note_on,,0,0,11,,,,,,,,,,,,,,,15,,,62,0
2549,note_on,,29,0,7,,,,,,,,,,,,,,,10,,,59,0
2549,note_on,,29,0,10,,,,,,,,,,,,,,,13,,,59,0
2549,note_on,,29,0,11,,,,,,,,,,,,,,,15,,,59,0
2550,note_on,,1,0,11,,,,,,,,,,,,,,,15,,,58,48
2550,note_on,,0,0,11,,,,,,,,,,,,,,,15,,,61,48
2550,note_on,,1,0,7,,,,,,,,,,,,,,,10,,,61,48
2550,note_on,,1,0,10,,,,,,,,,,,,,,,13,,,58,48
2579,note_on,,29,0,10,,,,,,,,,,,,,,,13,,,58,0
2579,note_on,,29,0,7,,,,,,,,,,,,,,,10,,,61,0
2579,note_on,,0,0,11,,,,,,,,,,,,,,,15,,,61,0
2579,note_on,,29,0,11,,,,,,,,,,,,,,,15,,,58,0
2580,note_on,,1,0,7,,,,,,,,,,,,,,,10,,,59,48
2580,note_on,,1,0,10,,,,,,,,,,,,,,,13,,,59,48
2580,note_on,,1,0,11,,,,,,,,,,,,,,,15,,,59,48
2580,note_on,,0,0,11,,,,,,,,,,,,,,,15,,,62,48
2609,note_on,,29,0,11,,,,,,,,,,,,,,,15,,,59,0
2609,note_on,,0,0,11,,,,,,,,,,,,,,,15,,,62,0
2609,note_on,,29,0,7,,,,,,,,,,,,,,,10,,,59,0
2609,note_on,,29,0,10,,,,,,,,,,,,,,,13,,,59,0
2610,note_on,,1,0,10,,,,,,,,,,,,,,,13,,,58,48
2610,note_on,,1,0,7,,,,,,,,,,,,,,,10,,,61,48
2610,note_on,,1,0,11,,,,,,,,,,,,,,,15,,,58,48
2610,note_on,,0,0,11,,,,,,,,,,,,,,,15,,,61,48
2639,note_on,,0,0,11,,,,,,,,,,,,,,,15,,,61,0
2639,note_on,,0,0,11,,,,,,,,,,,,,,,15,,,58,0
2639,note_on,,29,0,11,,,,,,,,,,,,,,,15,,,66,0
2639,note_on,,29,0,7,,,,,,,,,,,,,,,10,,,61,0
2639,note_on,,29,0,10,,,,,,,,,,,,,,,13,,,58,0
2640,note_on,,0,0,11,,,,,,,,,,,,,,,15,,,62,48
2640,note_on,,1,0,11,,,,,,,,,,,,,,,15,,,59,48
2640,note_on,,121,0,6,,,,,,,,,,,,,,,8,,,59,66
2640,note_on,,361,0,9,,,,,,,,,,,,,,,12,,,59,48
2640,note_on,,0,0,11,,,,,,,,,,,,,,,15,,,66,48
2640,note_on,,1,0,10,,,,,,,,,,,,,,,13,,,59,48
2640,note_on,,1,0,7,,,,,,,,,,,,,,,10,,,62,48
2640,note_on,,361,0,8,,,,,,,,,,,,,,,11,,,59,48
2640,note_on,,0,0,11,,,,,,,,,,,,,,,15,,,71,48
2669,note_on,,29,0,7,,,,,,,,,,,,,,,10,,,62,0
2669,note_on,,29,0,8,,,,,,,,,,,,,,,11,,,59,0
2670,note_on,,1,0,7,,,,,,,,,,,,,,,10,,,64,48
2670,note_on,,1,0,8,,,,,,,,,,,,,,,11,,,61,48
2699,note_on,,59,0,9,,,,,,,,,,,,,,,12,,,59,0
2699,note_on,,59,0,10,,,,,,,,,,,,,,,13,,,59,0
2699,note_on,,59,0,11,,,,,,,,,,,,,,,15,,,59,0
2699,note_on,,29,0,7,,,,,,,,,,,,,,,10,,,64,0
2699,note_on,,29,0,8,,,,,,,,,,,,,,,11,,,61,0
2700,note_on,,1,0,10,,,,,,,,,,,,,,,13,,,47,48
2700,note_on,,1,0,11,,,,,,,,,,,,,,,15,,,47,48
2700,note_on,,0,0,11,,,,,,,,,,,,,,,15,,,59,48
2700,note_on,,1,0,8,,,,,,,,,,,,,,,11,,,59,48
2700,note_on,,1,0,7,,,,,,,,,,,,,,,10,,,62,48
2700,note_on,,1,0,9,,,,,,,,,,,,,,,12,,,59,48
2729,note_on,,29,0,7,,,,,,,,,,,,,,,10,,,62,0
2729,note_on,,29,0,8,,,,,,,,,,,,,,,11,,,59,0
2730,note_on,,1,0,8,,,,,,,,,,,,,,,11,,,61,48
2730,note_on,,1,0,7,,,,,,,,,,,,,,,10,,,64,48
2759,note_on,,0,0,11,,,,,,,,,,,,,,,15,,,59,0
2759,note_on,,59,0,11,,,,,,,,,,,,,,,15,,,47,0
2759,note_on,,29,0,8,,,,,,,,,,,,,,,11,,,61,0
2759,note_on,,119,0,6,,,,,,,,,,,,,,,8,,,59,0
2759,note_on,,59,0,10,,,,,,,,,,,,,,,13,,,47,0
2759,note_on,,29,0,7,,,,,,,,,,,,,,,10,,,64,0
2759,note_on,,59,0,9,,,,,,,,,,,,,,,12,,,59,0
2760,note_on,,1,0,11,,,,,,,,,,,,,,,15,,,47,48
2760,note_on,,1,0,10,,,,,,,,,,,,,,,13,,,47,48
2760,note_on,,1,0,6,,,,,,,,,,,,,,,8,,,54,60
2760,note_on,,1,0,7,,,,,,,,,,,,,,,10,,,62,48
2760,note_on,,0,0,11,,,,,,,,,,,,,,,15,,,59,48
2760,note_on,,1,0,8,,,,,,,,,,,,,,,11,,,59,48
2760,note_on,,1,0,9,,,,,,,,,,,,,,,12,,,59,48
2789,note_on,,29,0,7,,,,,,,,,,,,,,,10,,,62,0
2789,note_on,,29,0,8,,,,,,,,,,,,,,,11,,,59,0
2790,note_on,,1,0,8,,,,,,,,,,,,,,,11,,,61,48
2790,note_on,,1,0,7,,,,,,,,,,,,,,,10,,,64,48
2819,note_on,,59,0,9,,,,,,,,,,,,,,,12,,,59,0
2819,note_on,,29,0,8,,,,,,,,,,,,,,,11,,,61,0
2819,note_on,,59,0,10,,,,,,,,,,,,,,,13,,,47,0
2819,note_on,,59,0,11,,,,,,,,,,,,,,,15,,,47,0
2819,note_on,,59,0,6,,,,,,,,,,,,,,,8,,,54,0
2819,note_on,,0,0,11,,,,,,,,,,,,,,,15,,,59,0
2819,note_on,,29,0,7,,,,,,,,,,,,,,,10,,,64,0
2820,note_on,,1,0,10,,,,,,,,,,,,,,,13,,,47,48
2820,note_on,,1,0,7,,,,,,,,,,,,,,,10,,,62,48
2820,note_on,,1,0,9,,,,,,,,,,,,,,,12,,,59,48
2820,note_on,,1,0,11,,,,,,,,,,,,,,,15,,,47,48
2820,note_on,,0,0,11,,,,,,,,,,,,,,,15,,,59,48
2820,note_on,,1,0,8,,,,,,,,,,,,,,,11,,,59,48
2820,note_on,,1,0,6,,,,,,,,,,,,,,,8,,,54,66
2849,note_on,,29,0,7,,,,,,,,,,,,,,,10,,,62,0
2849,note_on,,29,0,8,,,,,,,,,,,,,,,11,,,59,0
2850,note_on,,1,0,7,,,,,,,,,,,,,,,10,,,64,48
2850,note_on,,1,0,8,,,,,,,,,,,,,,,11,,,61,48
2879,note_on,,59,0,10,,,,,,,,,,,,,,,13,,,47,0
2879,note_on,,59,0,6,,,,,,,,,,,,,,,8,,,54,0
2879,note_on,,59,0,9,,,,,,,,,,,,,,,12,,,59,0
2879,note_on,,29,0,8,,,,,,,,,,,,,,,11,,,61,0
2879,note_on,,0,0,11,,,,,,,,,,,,,,,15,,,62,0
2879,note_on,,0,0,11,,,,,,,,,,,,,,,15,,,59,0
2879,note_on,,0,0,11,,,,,,,,,,,,,,,15,,,66,0
2879,note_on,,59,0,11,,,,,,,,,,,,,,,15,,,71,0
2879,note_on,,29,0,7,,,,,,,,,,,,,,,10,,,64,0
2879,note_on,,0,0,11,,,,,,,,,,,,,,,15,,,47,0
2880,note_on,,1,0,9,,,,,,,,,,,,,,,12,,,59,48
2880,note_on,,1,0,6,,,,,,,,,,,,,,,8,,,50,61
2880,note_on,,1,0,7,,,,,,,,,,,,,,,10,,,66,48
2880,note_on,,0,0,11,,,,,,,,,,,,,,,15,,,74,48
2880,note_on,,1,0,10,,,,,,,,,,,,,,,13,,,47,48
2880,note_on,,0,0,11,,,,,,,,,,,,,,,15,,,59,48
2880,note_on,,0,0,11,,,,,,,,,,,,,,,15,,,66,48
2880,note_on,,0,0,11,,,,,,,,,,,,,,,15,,,71,48
2880,note_on,,1,0,11,,,,,,,,,,,,,,,15,,,47,48
2880,note_on,,1,0,8,,,,,,,,,,,,,,,11,,,62,48
2909,note_on,,29,0,8,,,,,,,,,,,,,,,11,,,62,0
2909,note_on,,29,0,7,,,,,,,,,,,,,,,10,,,66,0
2910,note_on,,1,0,7,,,,,,,,,,,,,,,10,,,67,48
2910,note_on,,1,0,8,,,,,,,,,,,,,,,11,,,64,48
2939,note_on,,59,0,9,,,,,,,,,,,,,,,12,,,59,0
2939,note_on,,29,0,7,,,,,,,,,,,,,,,10,,,67,0
2939,note_on,,59,0,10,,,,,,,,,,,,,,,13,,,47,0
2939,note_on,,0,0,11,,,,,,,,,,,,,,,15,,,59,0
2939,note_on,,59,0,11,,,,,,,,,,,,,,,15,,,47,0
2939,note_on,,29,0,8,,,,,,,,,,,,,,,11,,,64,0
2940,note_on,,1,0,8,,,,,,,,,,,,,,,11,,,62,48
2940,note_on,,1,0,10,,,,,,,,,,,,,,,13,,,47,48
2940,note_on,,0,0,11,,,,,,,,,,,,,,,15,,,59,48
2940,note_on,,1,0,11,,,,,,,,,,,,,,,15,,,47,48
2940,note_on,,1,0,7,,,,,,,,,,,,,,,10,,,66,48
2940,note_on,,1,0,9,,,,,,,,,,,,,,,12,,,59,48
2969,note_on,,29,0,7,,,,,,,,,,,,,,,10,,,66,0
2969,note_on,,29,0,8,,,,,,,,,,,,,,,11,,,62,0
2970,note_on,,1,0,8,,,,,,,,,,,,,,,11,,,64,48
2970,note_on,,1,0,7,,,,,,,,,,,,,,,10,,,67,48
2999,note_on,,119,0,6,,,,,,,,,,,,,,,8,,,50,0
2999,note_on,,0,0,11,,,,,,,,,,,,,,,15,,,59,0
2999,note_on,,59,0,9,,,,,,,,,,,,,,,12,,,59,0
2999,note_on,,59,0,10,,,,,,,,,,,,,,,13,,,47,0
2999,note_on,,29,0,7,,,,,,,,,,,,,,,10,,,67,0
2999,note_on,,29,0,8,,,,,,,,,,,,,,,11,,,64,0
2999,note_on,,59,0,11,,,,,,,,,,,,,,,15,,,47,0
3000,note_on,,1,0,6,,,,,,,,,,,,,,,8,,,54,66
3000,note_on,,1,0,11,,,,,,,,,,,,,,,15,,,47,48
3000,note_on,,0,0,11,,,,,,,,,,,,,,,15,,,59,48
3000,note_on,,1,0,10,,,,,,,,,,,,,,,13,,,47,48
3000,note_on,,1,0,7,,,,,,,,,,,,,,,10,,,66,48
3000,note_on,,1,0,9,,,,,,,,,,,,,,,12,,,59,48
3000,note_on,,1,0,8,,,,,,,,,,,,,,,11,,,62,48
3029,note_on,,29,0,8,,,,,,,,,,,,,,,11,,,62,0
3029,note_on,,29,0,7,,,,,,,,,,,,,,,10,,,66,0
3030,note_on,,1,0,7,,,,,,,,,,,,,,,10,,,67,48
3030,note_on,,1,0,8,,,,,,,,,,,,,,,11,,,64,48
3059,note_on,,59,0,11,,,,,,,,,,,,,,,15,,,47,0
3059,note_on,,0,0,11,,,,,,,,,,,,,,,15,,,59,0
3059,note_on,,59,0,6,,,,,,,,,,,,,,,8,,,54,0
3059,note_on,,29,0,7,,,,,,,,,,,,,,,10,,,67,0
3059,note_on,,59,0,9,,,,,,,,,,,,,,,12,,,59,0
3059,note_on,,29,0,8,,,,,,,,,,,,,,,11,,,64,0
3059,note_on,,59,0,10,,,,,,,,,,,,,,,13,,,47,0
3060,note_on,,1,0,11,,,,,,,,,,,,,,,15,,,47,48
3060,note_on,,0,0,11,,,,,,,,,,,,,,,15,,,59,48
3060,note_on,,1,0,6,,,,,,,,,,,,,,,8,,,54,67
3060,note_on,,1,0,10,,,,,,,,,,,,,,,13,,,47,48
3060,note_on,,1,0,7,,,,,,,,,,,,,,,10,,,66,48
3060,note_on,,1,0,9,,,,,,,,,,,,,,,12,,,59,48
3060,note_on,,1,0,8,,,,,,,,,,,,,,,11,,,62,48
3089,note_on,,29,0,8,,,,,,,,,,,,,,,11,,,62,0
3089,note_on,,29,0,7,,,,,,,,,,,,,,,10,,,66,0
3090,note_on,,1,0,8,,,,,,,,,,,,,,,11,,,64,48
3090,note_on,,1,0,7,,,,,,,,,,,,,,,10,,,67,48
3119,note_on,,29,0,8,,,,,,,,,,,,,,,11,,,64,0
3119,note_on,,59,0,6,,,,,,,,,,,,,,,8,,,54,0
3119,note_on,,59,0,10,,,,,,,,,,,,,,,13,,,47,0
3119,note_on,,29,0,7,,,,,,,,,,,,,,,10,,,67,0
3119,note_on,,0,0,11,,,,,,,,,,,,,,,15,,,59,0
3119,note_on,,0,0,11,,,,,,,,,,,,,,,15,,,66,0
3119,note_on,,0,0,11,,,,,,,,,,,,,,,15,,,47,0
3119,note_on,,0,0,11,,,,,,,,,,,,,,,15,,,71,0
3119,note_on,,59,0,11,,,,,,,,,,,,,,,15,,,74,0
3119,note_on,,59,0,9,,,,,,,,,,,,,,,12,,,59,0
3120,note_on,,1,0,9,,,,,,,,,,,,,,,12,,,59,48
3120,note_on,,1,0,8,,,,,,,,,,,,,,,11,,,62,48
3120,note_on,,1,0,6,,,,,,,,,,,,,,,8,,,47,60
3120,note_on,,1,0,11,,,,,,,,,,,,,,,15,,,47,48
3120,note_on,,1,0,7,,,,,,,,,,,,,,,10,,,66,48
3120,note_on,,0,0,11,,,,,,,,,,,,,,,15,,,59,48
3120,note_on,,0,0,11,,,,,,,,,,,,,,,15,,,71,48
3120,note_on,,0,0,11,,,,,,,,,,,,,,,15,,,74,48
3120,note_on,,0,0,11,,,,,,,,,,,,,,,15,,,78,48
3120,note_on,,1,0,10,,,,,,,,,,,,,,,13,,,47,48
3149,note_on,,29,0,8,,,,,,,,,,,,,,,11,,,62,0
3149,note_on,,29,0,7,,,,,,,,,,,,,,,10,,,66,0
3150,note_on,,1,0,7,,,,,,,,,,,,,,,10,,,67,48
3150,note_on,,1,0,8,,,,,,,,,,,,,,,11,,,64,48
3179,note_on,,59,0,10,,,,,,,,,,,,,,,13,,,47,0
3179,note_on,,29,0,8,,,,,,,,,,,,,,,11,,,64,0
3179,note_on,,59,0,9,,,,,,,,,,,,,,,12,,,59,0
3179,note_on,,29,0,7,,,,,,,,,,,,,,,10,,,67,0
3179,note_on,,59,0,11,,,,,,,,,,,,,,,15,,,47,0
3179,note_on,,0,0,11,,,,,,,,,,,,,,,15,,,59,0
3180,note_on,,1,0,11,,,,,,,,,,,,,,,15,,,47,48
3180,note_on,,1,0,10,,,,,,,,,,,,,,,13,,,47,48
3180,note_on,,1,0,7,,,,,,,,,,,,,,,10,,,66,48
3180,note_on,,0,0,11,,,,,,,,,,,,,,,15,,,59,48
3180,note_on,,1,0,8,,,,,,,,,,,,,,,11,,,62,48
3180,note_on,,1,0,9,,,,,,,,,,,,,,,12,,,59,48
3209,note_on,,29,0,7,,,,,,,,,,,,,,,10,,,66,0
3209,note_on,,29,0,8,,,,,,,,,,,,,,,11,,,62,0
3210,note_on,,1,0,7,,,,,,,,,,,,,,,10,,,67,48
3210,note_on,,1,0,8,,,,,,,,,,,,,,,11,,,64,48
3239,note_on,,0,0,11,,,,,,,,,,,,,,,15,,,74,0
3239,note_on,,29,0,8,,,,,,,,,,,,,,,11,,,64,0
3239,note_on,,59,0,10,,,,,,,,,,,,,,,13,,,47,0
3239,note_on,,59,0,11,,,,,,,,,,,,,,,15,,,78,0
3239,note_on,,0,0,11,,,,,,,,,,,,,,,15,,,47,0
3239,note_on,,0,0,11,,,,,,,,,,,,,,,15,,,71,0
3239,note_on,,0,0,11,,,,,,,,,,,,,,,15,,,59,0
3239,note_on,,119,0,6,,,,,,,,,,,,,,,8,,,47,0
3239,note_on,,59,0,9,,,,,,,,,,,,,,,12,,,59,0
3239,note_on,,29,0,7,,,,,,,,,,,,,,,10,,,67,0
3240,note_on,,1,0,9,,,,,,,,,,,,,,,12,,,59,48
3240,note_on,,1,0,11,,,,,,,,,,,,,,,15,,,47,48
3240,note_on,,0,0,11,,,,,,,,,,,,,,,15,,,59,48
3240,note_on,,1,0,10,,,,,,,,,,,,,,,13,,,47,48
3240,note_on,,1,0,8,,,,,,,,,,,,,,,11,,,62,48
3240,note_on,,1,0,7,,,,,,,,,,,,,,,10,,,66,48
3269,note_on,,29,0,7,,,,,,,,,,,,,,,10,,,66,0
3269,note_on,,29,0,8,,,,,,,,,,,,,,,11,,,62,0
3270,note_on,,1,0,7,,,,,,,,,,,,,,,10,,,67,48
3270,note_on,,1,0,8,,,,,,,,,,,,,,,11,,,64,48
3299,note_on,,0,0,11,,,,,,,,,,,,,,,15,,,59,0
3299,note_on,,29,0,7,,,,,,,,,,,,,,,10,,,67,0
3299,note_on,,59,0,11,,,,,,,,,,,,,,,15,,,47,0
3299,note_on,,59,0,10,,,,,,,,,,,,,,,13,,,47,0
3299,note_on,,59,0,9,,,,,,,,,,,,,,,12,,,59,0
3299,note_on,,29,0,8,,,,,,,,,,,,,,,11,,,64,0
3300,note_on,,1,0,7,,,,,,,,,,,,,,,10,,,66,48
3300,note_on,,1,0,9,,,,,,,,,,,,,,,12,,,59,48
3300,note_on,,1,0,8,,,,,,,,,,,,,,,11,,,62,48
3300,note_on,,1,0,11,,,,,,,,,,,,,,,15,,,47,48
3300,note_on,,1,0,10,,,,,,,,,,,,,,,13,,,47,48
3300,note_on,,0,0,11,,,,,,,,,,,,,,,15,,,59,48
3329,note_on,,29,0,7,,,,,,,,,,,,,,,10,,,66,0
3329,note_on,,29,0,8,,,,,,,,,,,,,,,11,,,62,0
3330,note_on,,1,0,7,,,,,,,,,,,,,,,10,,,67,48
3330,note_on,,1,0,8,,,,,,,,,,,,,,,11,,,64,48
3359,note_on,,29,0,7,,,,,,,,,,,,,,,10,,,67,0
3359,note_on,,29,0,8,,,,,,,,,,,,,,,11,,,64,0
3359,note_on,,0,0,11,,,,,,,,,,,,,,,15,,,59,0
3359,note_on,,59,0,9,,,,,,,,,,,,,,,12,,,59,0
3359,note_on,,59,0,10,,,,,,,,,,,,,,,13,,,47,0
3359,note_on,,59,0,11,,,,,,,,,,,,,,,15,,,47,0
3360,note_on,,1,0,10,,,,,,,,,,,,,,,13,,,45,48
3360,note_on,,1,0,7,,,,,,,,,,,,,,,10,,,69,48
3360,note_on,,1,0,9,,,,,,,,,,,,,,,12,,,63,48
3360,note_on,,1,0,8,,,,,,,,,,,,,,,11,,,66,48
3360,note_on,,1,0,11,,,,,,,,,,,,,,,15,,,59,48
3360,note_on,,0,0,11,,,,,,,,,,,,,,,15,,,45,48
3360,note_on,,0,0,11,,,,,,,,,,,,,,,15,,,71,48
3360,note_on,,0,0,11,,,,,,,,,,,,,,,15,,,63,48
3360,note_on,,0,0,11,,,,,,,,,,,,,,,15,,,66,48
3389,note_on,,29,0,8,,,,,,,,,,,,,,,11,,,66,0
3389,note_on,,29,0,7,,,,,,,,,,,,,,,10,,,69,0
3390,note_on,,1,0,8,,,,,,,,,,,,,,,11,,,67,48
3390,note_on,,1,0,7,,,,,,,,,,,,,,,10,,,71,48
3419,note_on,,0,0,11,,,,,,,,,,,,,,,15,,,45,0
3419,note_on,,59,0,11,,,,,,,,,,,,,,,15,,,59,0
3419,note_on,,59,0,10,,,,,,,,,,,,,,,13,,,45,0
3419,note_on,,29,0,8,,,,,,,,,,,,,,,11,,,67,0
3419,note_on,,59,0,9,,,,,,,,,,,,,,,12,,,63,0
3419,note_on,,29,0,7,,,,,,,,,,,,,,,10,,,71,0
3420,note_on,,1,0,7,,,,,,,,,,,,,,,10,,,69,48
3420,note_on,,1,0,8,,,,,,,,,,,,,,,11,,,66,48
3420,note_on,,1,0,9,,,,,,,,,,,,,,,12,,,63,48
3420,note_on,,1,0,10,,,,,,,,,,,,,,,13,,,45,48
3420,note_on,,1,0,11,,,,,,,,,,,,,,,15,,,45,48
3420,note_on,,0,0,11,,,,,,,,,,,,,,,15,,,59,48
3449,note_on,,29,0,8,,,,,,,,,,,,,,,11,,,66,0
3449,note_on,,29,0,7,,,,,,,,,,,,,,,10,,,69,0
3450,note_on,,1,0,7,,,,,,,,,,,,,,,10,,,71,48
3450,note_on,,1,0,8,,,,,,,,,,,,,,,11,,,67,48
3479,note_on,,59,0,10,,,,,,,,,,,,,,,13,,,45,0
3479,note_on,,59,0,11,,,,,,,,,,,,,,,15,,,45,0
3479,note_on,,29,0,7,,,,,,,,,,,,,,,10,,,71,0
3479,note_on,,59,0,9,,,,,,,,,,,,,,,12,,,63,0
3479,note_on,,0,0,11,,,,,,,,,,,,,,,15,,,59,0
3479,note_on,,29,0,8,,,,,,,,,,,,,,,11,,,67,0
3480,note_on,,241,0,6,,,,,,,,,,,,,,,8,,,57,60
3480,note_on,,1,0,9,,,,,,,,,,,,,,,12,,,63,48
3480,note_on,,1,0,11,,,,,,,,,,,,,,,15,,,57,48
3480,note_on,,0,0,11,,,,,,,,,,,,,,,15,,,59,48
3480,note_on,,1,0,7,,,,,,,,,,,,,,,10,,,69,48
3480,note_on,,1,0,10,,,,,,,,,,,,,,,13,,,57,48
3480,note_on,,1,0,8,,,,,,,,,,,,,,,11,,,66,48
3509,note_on,,29,0,8,,,,,,,,,,,,,,,11,,,66,0
3509,note_on,,29,0,7,,,,,,,,,,,,,,,10,,,69,0
3510,note_on,,1,0,7,,,,,,,,,,,,,,,10,,,71,48
3510,note_on,,1,0,8,,,,,,,,,,,,,,,11,,,67,48
3539,note_on,,59,0,6,,,,,,,,,,,,,,,8,,,57,0
3539,note_on,,59,0,10,,,,,,,,,,,,,,,13,,,57,0
3539,note_on,,29,0,7,,,,,,,,,,,,,,,10,,,71,0
3539,note_on,,59,0,11,,,,,,,,,,,,,,,15,,,57,0
3539,note_on,,59,0,9,,,,,,,,,,,,,,,12,,,63,0
3539,note_on,,29,0,8,,,,,,,,,,,,,,,11,,,67,0
3539,note_on,,0,0,11,,,,,,,,,,,,,,,15,,,59,0
3540,note_on,,1,0,6,,,,,,,,,,,,,,,8,,,57,61
3540,note_on,,1,0,8,,,,,,,,,,,,,,,11,,,66,48
3540,note_on,,1,0,10,,,,,,,,,,,,,,,13,,,57,48
3540,note_on,,1,0,9,,,,,,,,,,,,,,,12,,,63,48
3540,note_on,,0,0,11,,,,,,,,,,,,,,,15,,,59,48
3540,note_on,,1,0,7,,,,,,,,,,,,,,,10,,,69,48
3540,note_on,,1,0,11,,,,,,,,,,,,,,,15,,,57,48
3569,note_on,,29,0,7,,,,,,,,,,,,,,,10,,,69,0
3569,note_on,,29,0,8,,,,,,,,,,,,,,,11,,,66,0
3570,note_on,,1,0,7,,,,,,,,,,,,,,,10,,,71,48
3570,note_on,,1,0,8,,,,,,,,,,,,,,,11,,,67,48
3599,note_on,,59,0,9,,,,,,,,,,,,,,,12,,,63,0
3599,note_on,,59,0,10,,,,,,,,,,,,,,,13,,,57,0
3599,note_on,,29,0,7,,,,,,,,,,,,,,,10,,,71,0
3599,note_on,,59,0,6,,,,,,,,,,,,,,,8,,,57,0
3599,note_on,,0,0,11,,,,,,,,,,,,,,,15,,,59,0
3599,note_on,,0,0,11,,,,,,,,,,,,,,,15,,,57,0
3599,note_on,,29,0,8,,,,,,,,,,,,,,,11,,,67,0
3599,note_on,,0,0,11,,,,,,,,,,,,,,,15,,,63,0
3599,note_on,,0,0,11,,,,,,,,,,,,,,,15,,,66,0
3599,note_on,,59,0,11,,,,,,,,,,,,,,,15,,,71,0
3600,note_on,,1,0,10,,,,,,,,,,,,,,,13,,,51,48
3600,note_on,,1,0,7,,,,,,,,,,,,,,,10,,,72,48
3600,note_on,,1,0,11,,,,,,,,,,,,,,,15,,,51,48
3600,note_on,,1,0,8,,,,,,,,,,,,,,,11,,,69,48
3600,note_on,,1,0,9,,,,,,,,,,,,,,,12,,,66,48
3600,note_on,,0,0,11,,,,,,,,,,,,,,,15,,,66,48
3600,note_on,,1,0,6,,,,,,,,,,,,,,,8,,,51,65
3600,note_on,,0,0,11,,,,,,,,,,,,,,,15,,,60,48
3600,note_on,,0,0,11,,,,,,,,,,,,,,,15,,,57,48
3629,note_on,,29,0,8,,,,,,,,,,,,,,,11,,,69,0
3629,note_on,,29,0,7,,,,,,,,,,,,,,,10,,,72,0
3630,note_on,,1,0,7,,,,,,,,,,,,,,,10,,,71,48
3630,note_on,,1,0,8,,,,,,,,,,,,,,,11,,,71,48
3659,note_on,,29,0,8,,,,,,,,,,,,,,,11,,,71,0
3659,note_on,,59,0,10,,,,,,,,,,,,,,,13,,,51,0
3659,note_on,,59,0,11,,,,,,,,,,,,,,,15,,,51,0
3659,note_on,,0,0,11,,,,,,,,,,,,,,,15,,,57,0
3659,note_on,,29,0,7,,,,,,,,,,,,,,,10,,,71,0
3659,note_on,,59,0,9,,,,,,,,,,,,,,,12,,,66,0
3660,note_on,,0,0,11,,,,,,,,,,,,,,,15,,,57,48
3660,note_on,,1,0,7,,,,,,,,,,,,,,,10,,,72,48
3660,note_on,,1,0,10,,,,,,,,,,,,,,,13,,,51,48
3660,note_on,,1,0,11,,,,,,,,,,,,,,,15,,,51,48
3660,note_on,,1,0,9,,,,,,,,,,,,,,,12,,,66,48
3660,note_on,,1,0,8,,,,,,,,,,,,,,,11,,,69,48
3689,note_on,,29,0,8,,,,,,,,,,,,,,,11,,,69,0
3689,note_on,,29,0,7,,,,,,,,,,,,,,,10,,,72,0
3690,note_on,,1,0,7,,,,,,,,,,,,,,,10,,,71,48
3690,note_on,,1,0,8,,,,,,,,,,,,,,,11,,,71,48
3719,note_on,,0,0,11,,,,,,,,,,,,,,,15,,,57,0
3719,note_on,,29,0,7,,,,,,,,,,,,,,,10,,,71,0
3719,note_on,,29,0,8,,,,,,,,,,,,,,,11,,,71,0
3719,note_on,,59,0,11,,,,,,,,,,,,,,,15,,,51,0
3719,note_on,,119,0,6,,,,,,,,,,,,,,,8,,,51,0
3719,note_on,,59,0,10,,,,,,,,,,,,,,,13,,,51,0
3719,note_on,,59,0,9,,,,,,,,,,,,,,,12,,,66,0
3720,note_on,,1,0,10,,,,,,,,,,,,,,,13,,,51,48
3720,note_on,,1,0,7,,,,,,,,,,,,,,,10,,,72,48
3720,note_on,,1,0,8,,,,,,,,,,,,,,,11,,,69,48
3720,note_on,,1,0,6,,,,,,,,,,,,,,,8,,,51,65
3720,note_on,,1,0,9,,,,,,,,,,,,,,,12,,,66,48
3720,note_on,,1,0,11,,,,,,,,,,,,,,,15,,,51,48
3720,note_on,,0,0,11,,,,,,,,,,,,,,,15,,,57,48
3749,note_on,,29,0,8,,,,,,,,,,,,,,,11,,,69,0
3749,note_on,,29,0,7,,,,,,,,,,,,,,,10,,,72,0
3750,note_on,,1,0,8,,,,,,,,,,,,,,,11,,,71,48
3750,note_on,,1,0,7,,,,,,,,,,,,,,,10,,,71,48
3779,note_on,,29,0,7,,,,,,,,,,,,,,,10,,,71,0
3779,note_on,,59,0,10,,,,,,,,,,,,,,,13,,,51,0
3779,note_on,,29,0,8,,,,,,,,,,,,,,,11,,,71,0
3779,note_on,,59,0,11,,,,,,,,,,,,,,,15,,,51,0
3779,note_on,,59,0,6,,,,,,,,,,,,,,,8,,,51,0
3779,note_on,,0,0,11,,,,,,,,,,,,,,,15,,,57,0
3779,note_on,,59,0,9,,,,,,,,,,,,,,,12,,,66,0
3780,note_on,,1,0,10,,,,,,,,,,,,,,,13,,,51,48
3780,note_on,,1,0,7,,,,,,,,,,,,,,,10,,,72,48
3780,note_on,,0,0,11,,,,,,,,,,,,,,,15,,,57,48
3780,note_on,,1,0,6,,,,,,,,,,,,,,,8,,,51,65
3780,note_on,,1,0,11,,,,,,,,,,,,,,,15,,,51,48
3780,note_on,,1,0,9,,,,,,,,,,,,,,,12,,,66,48
3780,note_on,,1,0,8,,,,,,,,,,,,,,,11,,,69,48
3809,note_on,,29,0,8,,,,,,,,,,,,,,,11,,,69,0
3809,note_on,,29,0,7,,,,,,,,,,,,,,,10,,,72,0
3810,note_on,,1,0,7,,,,,,,,,,,,,,,10,,,71,48
3810,note_on,,1,0,8,,,,,,,,,,,,,,,11,,,71,48
3839,note_on,,29,0,7,,,,,,,,,,,,,,,10,,,71,0
3839,note_on,,0,0,11,,,,,,,,,,,,,,,15,,,60,0
3839,note_on,,29,0,8,,,,,,,,,,,,,,,11,,,71,0
3839,note_on,,59,0,11,,,,,,,,,,,,,,,15,,,66,0
3839,note_on,,59,0,6,,,,,,,,,,,,,,,8,,,51,0
3839,note_on,,0,0,11,,,,,,,,,,,,,,,15,,,57,0
3839,note_on,,0,0,11,,,,,,,,,,,,,,,15,,,51,0
3839,note_on,,59,0,10,,,,,,,,,,,,,,,13,,,51,0
3839,note_on,,59,0,9,,,,,,,,,,,,,,,12,,,66,0
3840,note_on,,1,0,8,,,,,,,,,,,,,,,11,,,67,48
3840,note_on,,1,0,11,,,,,,,,,,,,,,,15,,,52,48
3840,note_on,,0,0,11,,,,,,,,,,,,,,,15,,,64,48
3840,note_on,,1,0,10,,,,,,,,,,,,,,,13,,,52,48
3840,note_on,,1,0,9,,,,,,,,,,,,,,,12,,,64,48
3840,note_on,,0,0,11,,,,,,,,,,,,,,,15,,,59,48
3840,note_on,,0,0,11,,,,,,,,,,,,,,,15,,,55,48
3840,note_on,,1,0,7,,,,,,,,,,,,,,,10,,,71,48
3840,note_on,,1,0,6,,,,,,,,,,,,,,,8,,,52,63
3869,note_on,,29,0,7,,,,,,,,,,,,,,,10,,,71,0
3869,note_on,,29,0,8,,,,,,,,,,,,,,,11,,,67,0
3870,note_on,,1,0,7,,,,,,,,,,,,,,,10,,,69,48
3870,note_on,,1,0,8,,,,,,,,,,,,,,,11,,,69,48
3899,note_on,,29,0,8,,,,,,,,,,,,,,,11,,,69,0
3899,note_on,,59,0,9,,,,,,,,,,,,,,,12,,,64,0
3899,note_on,,59,0,6,,,,,,,,,,,,,,,8,,,52,0
3899,note_on,,0,0,11,,,,,,,,,,,,,,,15,,,55,0
3899,note_on,,59,0,10,,,,,,,,,,,,,,,13,,,52,0
3899,note_on,,29,0,7,,,,,,,,,,,,,,,10,,,69,0
3899,note_on,,59,0,11,,,,,,,,,,,,,,,15,,,52,0
3900,note_on,,1,0,11,,,,,,,,,,,,,,,15,,,52,48
3900,note_on,,1,0,6,,,,,,,,,,,,,,,8,,,52,65
3900,note_on,,1,0,10,,,,,,,,,,,,,,,13,,,52,48
3900,note_on,,1,0,9,,,,,,,,,,,,,,,12,,,64,48
3900,note_on,,1,0,8,,,,,,,,,,,,,,,11,,,67,48
3900,note_on,,1,0,7,,,,,,,,,,,,,,,10,,,71,48
3900,note_on,,0,0,11,,,,,,,,,,,,,,,15,,,55,48
3929,note_on,,29,0,7,,,,,,,,,,,,,,,10,,,71,0
3929,note_on,,29,0,8,,,,,,,,,,,,,,,11,,,67,0
3930,note_on,,1,0,8,,,,,,,,,,,,,,,11,,,69,48
3930,note_on,,1,0,7,,,,,,,,,,,,,,,10,,,69,48
3959,note_on,,59,0,9,,,,,,,,,,,,,,,12,,,64,0
3959,note_on,,59,0,11,,,,,,,,,,,,,,,15,,,52,0
3959,note_on,,29,0,7,,,,,,,,,,,,,,,10,,,69,0
3959,note_on,,59,0,10,,,,,,,,,,,,,,,13,,,52,0
3959,note_on,,0,0,11,,,,,,,,,,,,,,,15,,,55,0
3959,note_on,,29,0,8,,,,,,,,,,,,,,,11,,,69,0
3960,note_on,,1,0,11,,,,,,,,,,,,,,,15,,,52,48
3960,note_on,,1,0,7,,,,,,,,,,,,,,,10,,,71,48
3960,note_on,,1,0,10,,,,,,,,,,,,,,,13,,,52,48
3960,note_on,,1,0,9,,,,,,,,,,,,,,,12,,,64,48
3960,note_on,,1,0,8,,,,,,,,,,,,,,,11,,,67,48
3960,note_on,,0,0,11,,,,,,,,,,,,,,,15,,,55,48
3989,note_on,,29,0,7,,,,,,,,,,,,,,,10,,,71,0
3989,note_on,,29,0,8,,,,,,,,,,,,,,,11,,,67,0
3990,note_on,,1,0,8,,,,,,,,,,,,,,,11,,,69,48
3990,note_on,,1,0,7,,,,,,,,,,,,,,,10,,,69,48
4019,note_on,,59,0,9,,,,,,,,,,,,,,,12,,,64,0
4019,note_on,,29,0,8,,,,,,,,,,,,,,,11,,,69,0
4019,note_on,,0,0,11,,,,,,,,,,,,,,,15,,,55,0
4019,note_on,,59,0,10,,,,,,,,,,,,,,,13,,,52,0
4019,note_on,,29,0,7,,,,,,,,,,,,,,,10,,,69,0
4019,note_on,,59,0,11,,,,,,,,,,,,,,,15,,,52,0
4020,note_on,,1,0,9,,,,,,,,,,,,,,,12,,,64,48
4020,note_on,,1,0,10,,,,,,,,,,,,,,,13,,,52,48
4020,note_on,,1,0,8,,,,,,,,,,,,,,,11,,,67,48
4020,note_on,,0,0,11,,,,,,,,,,,,,,,15,,,55,48
4020,note_on,,1,0,11,,,,,,,,,,,,,,,15,,,52,48
4020,note_on,,1,0,7,,,,,,,,,,,,,,,10,,,71,48
4049,note_on,,29,0,8,,,,,,,,,,,,,,,11,,,67,0
4049,note_on,,29,0,7,,,,,,,,,,,,,,,10,,,71,0
4050,note_on,,1,0,8,,,,,,,,,,,,,,,11,,,69,48
4050,note_on,,1,0,7,,,,,,,,,,,,,,,10,,,69,48
4079,note_on,,59,0,9,,,,,,,,,,,,,,,12,,,64,0
4079,note_on,,59,0,10,,,,,,,,,,,,,,,13,,,52,0
4079,note_on,,0,0,11,,,,,,,,,,,,,,,15,,,55,0
4079,note_on,,0,0,11,,,,,,,,,,,,,,,15,,,52,0
4079,note_on,,59,0,11,,,,,,,,,,,,,,,15,,,64,0
4079,note_on,,179,0,6,,,,,,,,,,,,,,,8,,,52,0
4079,note_on,,29,0,7,,,,,,,,,,,,,,,10,,,69,0
4079,note_on,,0,0,11,,,,,,,,,,,,,,,15,,,59,0
4079,note_on,,29,0,8,,,,,,,,,,,,,,,11,,,69,0
4080,note_on,,0,0,11,,,,,,,,,,,,,,,15,,,68,48
4080,note_on,,1,0,8,,,,,,,,,,,,,,,11,,,68,48
4080,note_on,,1,0,7,,,,,,,,,,,,,,,10,,,71,48
4080,note_on,,1,0,9,,,,,,,,,,,,,,,12,,,64,48
4080,note_on,,1,0,11,,,,,,,,,,,,,,,15,,,50,48
4080,note_on,,0,0,11,,,,,,,,,,,,,,,15,,,71,48
4080,note_on,,1,0,10,,,,,,,,,,,,,,,13,,,50,48
4080,note_on,,0,0,11,,,,,,,,,,,,,,,15,,,64,48
4080,note_on,,0,0,11,,,,,,,,,,,,,,,15,,,59,48
4109,note_on,,29,0,7,,,,,,,,,,,,,,,10,,,71,0
4109,note_on,,29,0,8,,,,,,,,,,,,,,,11,,,68,0
4110,note_on,,1,0,7,,,,,,,,,,,,,,,10,,,73,48
4110,note_on,,1,0,8,,,,,,,,,,,,,,,11,,,69,48
4139,note_on,,59,0,9,,,,,,,,,,,,,,,12,,,64,0
4139,note_on,,0,0,11,,,,,,,,,,,,,,,15,,,59,0
4139,note_on,,59,0,11,,,,,,,,,,,,,,,15,,,50,0
4139,note_on,,29,0,8,,,,,,,,,,,,,,,11,,,69,0
4139,note_on,,29,0,7,,,,,,,,,,,,,,,10,,,73,0
4139,note_on,,59,0,10,,,,,,,,,,,,,,,13,,,50,0
4140,note_on,,1,0,9,,,,,,,,,,,,,,,12,,,64,48
4140,note_on,,1,0,11,,,,,,,,,,,,,,,15,,,50,48
4140,note_on,,0,0,11,,,,,,,,,,,,,,,15,,,59,48
4140,note_on,,1,0,7,,,,,,,,,,,,,,,10,,,71,48
4140,note_on,,1,0,10,,,,,,,,,,,,,,,13,,,50,48
4140,note_on,,1,0,8,,,,,,,,,,,,,,,11,,,68,48
4169,note_on,,29,0,7,,,,,,,,,,,,,,,10,,,71,0
4169,note_on,,29,0,8,,,,,,,,,,,,,,,11,,,68,0
4170,note_on,,1,0,8,,,,,,,,,,,,,,,11,,,69,48
4170,note_on,,1,0,7,,,,,,,,,,,,,,,10,,,73,48
4199,note_on,,29,0,8,,,,,,,,,,,,,,,11,,,69,0
4199,note_on,,59,0,9,,,,,,,,,,,,,,,12,,,64,0
4199,note_on,,0,0,11,,,,,,,,,,,,,,,15,,,59,0
4199,note_on,,59,0,11,,,,,,,,,,,,,,,15,,,50,0
4199,note_on,,29,0,7,,,,,,,,,,,,,,,10,,,73,0
4199,note_on,,59,0,10,,,,,,,,,,,,,,,13,,,50,0
4200,note_on,,1,0,9,,,,,,,,,,,,,,,12,,,64,48
4200,note_on,,0,0,11,,,,,,,,,,,,,,,15,,,59,48
4200,note_on,,121,0,6,,,,,,,,,,,,,,,8,,,59,66
4200,note_on,,1,0,8,,,,,,,,,,,,,,,11,,,68,48
4200,note_on,,1,0,10,,,,,,,,,,,,,,,13,,,50,48
4200,note_on,,1,0,7,,,,,,,,,,,,,,,10,,,71,48
4200,note_on,,1,0,11,,,,,,,,,,,,,,,15,,,50,48
4229,note_on,,29,0,7,,,,,,,,,,,,,,,10,,,71,0
4229,note_on,,29,0,8,,,,,,,,,,,,,,,11,,,68,0
4230,note_on,,1,0,8,,,,,,,,,,,,,,,11,,,69,48
4230,note_on,,1,0,7,,,,,,,,,,,,,,,10,,,73,48
4259,note_on,,59,0,11,,,,,,,,,,,,,,,15,,,50,0
4259,note_on,,0,0,11,,,,,,,,,,,,,,,15,,,59,0
4259,note_on,,59,0,6,,,,,,,,,,,,,,,8,,,59,0
4259,note_on,,29,0,7,,,,,,,,,,,,,,,10,,,73,0
4259,note_on,,29,0,8,,,,,,,,,,,,,,,11,,,69,0
4259,note_on,,59,0,10,,,,,,,,,,,,,,,13,,,50,0
4259,note_on,,59,0,9,,,,,,,,,,,,,,,12,,,64,0
4260,note_on,,1,0,8,,,,,,,,,,,,,,,11,,,68,48
4260,note_on,,1,0,7,,,,,,,,,,,,,,,10,,,71,48
4260,note_on,,1,0,10,,,,,,,,,,,,,,,13,,,50,48
4260,note_on,,1,0,6,,,,,,,,,,,,,,,8,,,62,63
4260,note_on,,0,0,11,,,,,,,,,,,,,,,15,,,59,48
4260,note_on,,1,0,11,,,,,,,,,,,,,,,15,,,50,48
4260,note_on,,1,0,9,,,,,,,,,,,,,,,12,,,64,48
4289,note_on,,29,0,7,,,,,,,,,,,,,,,10,,,71,0
4289,note_on,,29,0,8,,,,,,,,,,,,,,,11,,,68,0
4290,note_on,,1,0,7,,,,,,,,,,,,,,,10,,,73,48
4290,note_on,,1,0,8,,,,,,,,,,,,,,,11,,,69,48
4319,note_on,,59,0,10,,,,,,,,,,,,,,,13,,,50,0
4319,note_on,,59,0,9,,,,,,,,,,,,,,,12,,,64,0
4319,note_on,,59,0,6,,,,,,,,,,,,,,,8,,,62,0
4319,note_on,,29,0,8,,,,,,,,,,,,,,,11,,,69,0
4319,note_on,,29,0,7,,,,,,,,,,,,,,,10,,,73,0
4319,note_on,,0,0,11,,,,,,,,,,,,,,,15,,,59,0
4319,note_on,,0,0,11,,,,,,,,,,,,,,,15,,,50,0
4319,note_on,,0,0,11,,,,,,,,,,,,,,,15,,,64,0
4319,note_on,,0,0,11,,,,,,,,,,,,,,,15,,,68,0
4319,note_on,,59,0,11,,,,,,,,,,,,,,,15,,,71,0
4320,note_on,,1,0,11,,,,,,,,,,,,,,,15,,,49,48
4320,note_on,,0,0,11,,,,,,,,,,,,,,,15,,,71,48
4320,note_on,,0,0,11,,,,,,,,,,,,,,,15,,,65,48
4320,note_on,,0,0,11,,,,,,,,,,,,,,,15,,,68,48
4320,note_on,,1,0,7,,,,,,,,,,,,,,,10,,,68,48
4320,note_on,,1,0,8,,,,,,,,,,,,,,,11,,,71,48
4320,note_on,,1,0,9,,,,,,,,,,,,,,,12,,,65,48
4320,note_on,,1,0,6,,,,,,,,,,,,,,,8,,,53,62
4320,note_on,,0,0,11,,,,,,,,,,,,,,,15,,,61,48
4320,note_on,,1,0,10,,,,,,,,,,,,,,,13,,,49,48
4349,note_on,,29,0,8,,,,,,,,,,,,,,,11,,,71,0
4349,note_on,,29,0,7,,,,,,,,,,,,,,,10,,,68,0
4350,note_on,,1,0,7,,,,,,,,,,,,,,,10,,,70,48
4350,note_on,,1,0,8,,,,,,,,,,,,,,,11,,,73,48
4379,note_on,,59,0,10,,,,,,,,,,,,,,,13,,,49,0
4379,note_on,,59,0,11,,,,,,,,,,,,,,,15,,,49,0
4379,note_on,,0,0,11,,,,,,,,,,,,,,,15,,,61,0
4379,note_on,,29,0,7,,,,,,,,,,,,,,,10,,,70,0
4379,note_on,,29,0,8,,,,,,,,,,,,,,,11,,,73,0
4379,note_on,,59,0,9,,,,,,,,,,,,,,,12,,,65,0
4380,note_on,,1,0,9,,,,,,,,,,,,,,,12,,,65,48
4380,note_on,,1,0,10,,,,,,,,,,,,,,,13,,,49,48
4380,note_on,,1,0,8,,,,,,,,,,,,,,,11,,,71,48
4380,note_on,,1,0,7,,,,,,,,,,,,,,,10,,,68,48
4380,note_on,,0,0,11,,,,,,,,,,,,,,,15,,,61,48
4380,note_on,,1,0,11,,,,,,,,,,,,,,,15,,,49,48
4409,note_on,,29,0,8,,,,,,,,,,,,,,,11,,,71,0
4409,note_on,,29,0,7,,,,,,,,,,,,,,,10,,,68,0
4410,note_on,,1,0,8,,,,,,,,,,,,,,,11,,,73,48
4410,note_on,,1,0,7,,,,,,,,,,,,,,,10,,,70,48
4439,note_on,,29,0,8,,,,,,,,,,,,,,,11,,,73,0
4439,note_on,,59,0,9,,,,,,,,,,,,,,,12,,,65,0
4439,note_on,,0,0,11,,,,,,,,,,,,,,,15,,,61,0
4439,note_on,,59,0,10,,,,,,,,,,,,,,,13,,,49,0
4439,note_on,,119,0,6,,,,,,,,,,,,,,,8,,,53,0
4439,note_on,,59,0,11,,,,,,,,,,,,,,,15,,,49,0
4439,note_on,,29,0,7,,,,,,,,,,,,,,,10,,,70,0
4440,note_on,,1,0,7,,,,,,,,,,,,,,,10,,,68,48
4440,note_on,,1,0,10,,,,,,,,,,,,,,,13,,,49,48
4440,note_on,,1,0,9,,,,,,,,,,,,,,,12,,,65,48
4440,note_on,,0,0,11,,,,,,,,,,,,,,,15,,,61,48
4440,note_on,,1,0,8,,,,,,,,,,,,,,,11,,,71,48
4440,note_on,,1,0,6,,,,,,,,,,,,,,,8,,,53,64
4440,note_on,,1,0,11,,,,,,,,,,,,,,,15,,,49,48
4469,note_on,,29,0,8,,,,,,,,,,,,,,,11,,,71,0
4469,note_on,,29,0,7,,,,,,,,,,,,,,,10,,,68,0
4470,note_on,,1,0,8,,,,,,,,,,,,,,,11,,,73,48
4470,note_on,,1,0,7,,,,,,,,,,,,,,,10,,,70,48
4499,note_on,,59,0,11,,,,,,,,,,,,,,,15,,,49,0
4499,note_on,,0,0,11,,,,,,,,,,,,,,,15,,,61,0
4499,note_on,,29,0,7,,,,,,,,,,,,,,,10,,,70,0
4499,note_on,,29,0,8,,,,,,,,,,,,,,,11,,,73,0
4499,note_on,,59,0,10,,,,,,,,,,,,,,,13,,,49,0
4499,note_on,,59,0,6,,,,,,,,,,,,,,,8,,,53,0
4499,note_on,,59,0,9,,,,,,,,,,,,,,,12,,,65,0
4500,note_on,,1,0,11,,,,,,,,,,,,,,,15,,,49,48
4500,note_on,,0,0,11,,,,,,,,,,,,,,,15,,,61,48
4500,note_on,,1,0,9,,,,,,,,,,,,,,,12,,,65,48
4500,note_on,,1,0,8,,,,,,,,,,,,,,,11,,,71,48
4500,note_on,,1,0,7,,,,,,,,,,,,,,,10,,,68,48
4500,note_on,,1,0,10,,,,,,,,,,,,,,,13,,,49,48
4500,note_on,,1,0,6,,,,,,,,,,,,,,,8,,,53,65
4529,note_on,,29,0,7,,,,,,,,,,,,,,,10,,,68,0
4529,note_on,,29,0,8,,,,,,,,,,,,,,,11,,,71,0
4530,note_on,,1,0,7,,,,,,,,,,,,,,,10,,,70,48
4530,note_on,,1,0,8,,,,,,,,,,,,,,,11,,,73,48
4559,note_on,,29,0,7,,,,,,,,,,,,,,,10,,,70,0
4559,note_on,,59,0,6,,,,,,,,,,,,,,,8,,,53,0
4559,note_on,,0,0,11,,,,,,,,,,,,,,,15,,,68,0
4559,note_on,,59,0,11,,,,,,,,,,,,,,,15,,,71,0
4559,note_on,,59,0,10,,,,,,,,,,,,,,,13,,,49,0
4559,note_on,,59,0,9,,,,,,,,,,,,,,,12,,,65,0
4559,note_on,,0,0,11,,,,,,,,,,,,,,,15,,,49,0
4559,note_on,,0,0,11,,,,,,,,,,,,,,,15,,,61,0
4559,note_on,,0,0,11,,,,,,,,,,,,,,,15,,,65,0
4559,note_on,,29,0,8,,,,,,,,,,,,,,,11,,,73,0
4560,note_on,,0,0,11,,,,,,,,,,,,,,,15,,,66,48
4560,note_on,,0,0,11,,,,,,,,,,,,,,,15,,,70,48
4560,note_on,,1,0,7,,,,,,,,,,,,,,,10,,,66,48
4560,note_on,,1,0,9,,,,,,,,,,,,,,,12,,,61,48
4560,note_on,,0,0,11,,,,,,,,,,,,,,,15,,,61,48
4560,note_on,,1,0,11,,,,,,,,,,,,,,,15,,,54,48
4560,note_on,,1,0,8,,,,,,,,,,,,,,,11,,,70,48
4560,note_on,,1,0,10,,,,,,,,,,,,,,,13,,,54,48
4560,note_on,,1,0,6,,,,,,,,,,,,,,,8,,,54,61
4619,note_on,,59,0,11,,,,,,,,,,,,,,,15,,,54,0
4619,note_on,,59,0,9,,,,,,,,,,,,,,,12,,,61,0
4619,note_on,,59,0,8,,,,,,,,,,,,,,,11,,,70,0
4619,note_on,,59,0,10,,,,,,,,,,,,,,,13,,,54,0
4619,note_on,,59,0,6,,,,,,,,,,,,,,,8,,,54,0
4619,note_on,,59,0,7,,,,,,,,,,,,,,,10,,,66,0
4619,note_on,,0,0,11,,,,,,,,,,,,,,,15,,,61,0
4620,note_on,,1,0,8,,,,,,,,,,,,,,,11,,,70,48
4620,note_on,,1,0,10,,,,,,,,,,,,,,,13,,,54,48
4620,note_on,,1,0,7,,,,,,,,,,,,,,,10,,,66,48
4620,note_on,,1,0,9,,,,,,,,,,,,,,,12,,,61,48
4620,note_on,,1,0,6,,,,,,,,,,,,,,,8,,,54,64
4620,note_on,,1,0,11,,,,,,,,,,,,,,,15,,,54,48
4620,note_on,,0,0,11,,,,,,,,,,,,,,,15,,,61,48
4679,note_on,,59,0,8,,,,,,,,,,,,,,,11,,,70,0
4679,note_on,,59,0,11,,,,,,,,,,,,,,,15,,,54,0
4679,note_on,,59,0,10,,,,,,,,,,,,,,,13,,,54,0
4679,note_on,,59,0,7,,,,,,,,,,,,,,,10,,,66,0
4679,note_on,,59,0,9,,,,,,,,,,,,,,,12,,,61,0
4679,note_on,,0,0,11,,,,,,,,,,,,,,,15,,,61,0
4680,note_on,,0,0,11,,,,,,,,,,,,,,,15,,,61,48
4680,note_on,,1,0,7,,,,,,,,,,,,,,,10,,,66,48
4680,note_on,,1,0,11,,,,,,,,,,,,,,,15,,,54,48
4680,note_on,,1,0,9,,,,,,,,,,,,,,,12,,,61,48
4680,note_on,,1,0,8,,,,,,,,,,,,,,,11,,,70,48
4680,note_on,,1,0,10,,,,,,,,,,,,,,,13,,,54,48
4739,note_on,,59,0,9,,,,,,,,,,,,,,,12,,,61,0
4739,note_on,,59,0,8,,,,,,,,,,,,,,,11,,,70,0
4739,note_on,,59,0,10,,,,,,,,,,,,,,,13,,,54,0
4739,note_on,,59,0,7,,,,,,,,,,,,,,,10,,,66,0
4739,note_on,,59,0,11,,,,,,,,,,,,,,,15,,,54,0
4739,note_on,,0,0,11,,,,,,,,,,,,,,,15,,,61,0
4740,note_on,,1,0,9,,,,,,,,,,,,,,,12,,,61,48
4740,note_on,,1,0,8,,,,,,,,,,,,,,,11,,,70,48
4740,note_on,,1,0,10,,,,,,,,,,,,,,,13,,,54,48
4740,note_on,,1,0,11,,,,,,,,,,,,,,,15,,,54,48
4740,note_on,,1,0,7,,,,,,,,,,,,,,,10,,,66,48
4740,note_on,,0,0,11,,,,,,,,,,,,,,,15,,,61,48
4799,note_on,,0,0,11,,,,,,,,,,,,,,,15,,,61,0
4799,note_on,,179,0,6,,,,,,,,,,,,,,,8,,,54,0
4799,note_on,,59,0,7,,,,,,,,,,,,,,,10,,,66,0
4799,note_on,,59,0,11,,,,,,,,,,,,,,,15,,,70,0
4799,note_on,,0,0,11,,,,,,,,,,,,,,,15,,,66,0
4799,note_on,,59,0,10,,,,,,,,,,,,,,,13,,,54,0
4799,note_on,,0,0,11,,,,,,,,,,,,,,,15,,,54,0
4799,note_on,,59,0,9,,,,,,,,,,,,,,,12,,,61,0
4799,note_on,,59,0,8,,,,,,,,,,,,,,,11,,,70,0
4800,note_on,,1,0,10,,,,,,,,,,,,,,,13,,,50,48
4800,note_on,,0,0,11,,,,,,,,,,,,,,,15,,,69,48
4800,note_on,,1,0,8,,,,,,,,,,,,,,,11,,,69,48
4800,note_on,,0,0,11,,,,,,,,,,,,,,,15,,,62,48
4800,note_on,,0,0,11,,,,,,,,,,,,,,,15,,,66,48
4800,note_on,,1,0,7,,,,,,,,,,,,,,,10,,,66,48
4800,note_on,,1,0,9,,,,,,,,,,,,,,,12,,,62,48
4800,note_on,,1,0,11,,,,,,,,,,,,,,,15,,,50,48
4859,note_on,,59,0,10,,,,,,,,,,,,,,,13,,,50,0
4859,note_on,,59,0,8,,,,,,,,,,,,,,,11,,,69,0
4859,note_on,,59,0,11,,,,,,,,,,,,,,,15,,,50,0
4859,note_on,,0,0,11,,,,,,,,,,,,,,,15,,,62,0
4859,note_on,,59,0,7,,,,,,,,,,,,,,,10,,,66,0
4859,note_on,,59,0,9,,,,,,,,,,,,,,,12,,,62,0
4860,note_on,,1,0,10,,,,,,,,,,,,,,,13,,,50,48
4860,note_on,,1,0,8,,,,,,,,,,,,,,,11,,,69,48
4860,note_on,,1,0,11,,,,,,,,,,,,,,,15,,,50,48
4860,note_on,,1,0,7,,,,,,,,,,,,,,,10,,,66,48
4860,note_on,,0,0,11,,,,,,,,,,,,,,,15,,,62,48
4860,note_on,,1,0,9,,,,,,,,,,,,,,,12,,,62,48
4919,note_on,,0,0,11,,,,,,,,,,,,,,,15,,,66,0
4919,note_on,,0,0,11,,,,,,,,,,,,,,,15,,,62,0
4919,note_on,,59,0,10,,,,,,,,,,,,,,,13,,,50,0
4919,note_on,,59,0,9,,,,,,,,,,,,,,,12,,,62,0
4919,note_on,,59,0,8,,,,,,,,,,,,,,,11,,,69,0
4919,note_on,,59,0,7,,,,,,,,,,,,,,,10,,,66,0
4919,note_on,,59,0,11,,,,,,,,,,,,,,,15,,,69,0
4919,note_on,,0,0,11,,,,,,,,,,,,,,,15,,,50,0
4920,note_on,,1,0,8,,,,,,,,,,,,,,,11,,,69,48
4920,note_on,,121,0,6,,,,,,,,,,,,,,,8,,,57,67
4920,note_on,,1,0,7,,,,,,,,,,,,,,,10,,,66,48
4920,note_on,,1,0,9,,,,,,,,,,,,,,,12,,,62,48
4920,note_on,,1,0,11,,,,,,,,,,,,,,,15,,,50,48
4920,note_on,,0,0,11,,,,,,,,,,,,,,,15,,,74,48
4920,note_on,,0,0,11,,,,,,,,,,,,,,,15,,,69,48
4920,note_on,,0,0,11,,,,,,,,,,,,,,,15,,,54,48
4920,note_on,,1,0,10,,,,,,,,,,,,,,,13,,,50,48
4979,note_on,,59,0,9,,,,,,,,,,,,,,,12,,,62,0
4979,note_on,,59,0,6,,,,,,,,,,,,,,,8,,,57,0
4979,note_on,,59,0,8,,,,,,,,,,,,,,,11,,,69,0
4979,note_on,,59,0,11,,,,,,,,,,,,,,,15,,,50,0
4979,note_on,,0,0,11,,,,,,,,,,,,,,,15,,,54,0
4979,note_on,,59,0,10,,,,,,,,,,,,,,,13,,,50,0
4979,note_on,,59,0,7,,,,,,,,,,,,,,,10,,,66,0
4980,note_on,,1,0,6,,,,,,,,,,,,,,,8,,,59,62
4980,note_on,,1,0,9,,,,,,,,,,,,,,,12,,,62,48
4980,note_on,,1,0,8,,,,,,,,,,,,,,,11,,,69,48
4980,note_on,,0,0,11,,,,,,,,,,,,,,,15,,,54,48
4980,note_on,,1,0,11,,,,,,,,,,,,,,,15,,,50,48
4980,note_on,,1,0,10,,,,,,,,,,,,,,,13,,,50,48
4980,note_on,,1,0,7,,,,,,,,,,,,,,,10,,,66,48
5039,note_on,,59,0,11,,,,,,,,,,,,,,,15,,,74,0
5039,note_on,,59,0,9,,,,,,,,,,,,,,,12,,,62,0
5039,note_on,,0,0,11,,,,,,,,,,,,,,,15,,,50,0
5039,note_on,,0,0,11,,,,,,,,,,,,,,,15,,,54,0
5039,note_on,,59,0,7,,,,,,,,,,,,,,,10,,,66,0
5039,note_on,,0,0,11,,,,,,,,,,,,,,,15,,,69,0
5039,note_on,,59,0,10,,,,,,,,,,,,,,,13,,,50,0
5039,note_on,,59,0,8,,,,,,,,,,,,,,,11,,,69,0
5039,note_on,,59,0,6,,,,,,,,,,,,,,,8,,,59,0
5040,note_on,,0,0,11,,,,,,,,,,,,,,,15,,,67,48
5040,note_on,,0,0,11,,,,,,,,,,,,,,,15,,,62,48
5040,note_on,,0,0,11,,,,,,,,,,,,,,,15,,,55,48
5040,note_on,,1,0,10,,,,,,,,,,,,,,,13,,,47,48
5040,note_on,,1,0,11,,,,,,,,,,,,,,,15,,,47,48
5040,note_on,,1,0,6,,,,,,,,,,,,,,,8,,,55,66
5040,note_on,,1,0,7,,,,,,,,,,,,,,,10,,,67,48
5040,note_on,,1,0,8,,,,,,,,,,,,,,,11,,,74,48
5040,note_on,,1,0,9,,,,,,,,,,,,,,,12,,,62,48
5099,note_on,,59,0,7,,,,,,,,,,,,,,,10,,,67,0
5099,note_on,,59,0,11,,,,,,,,,,,,,,,15,,,47,0
5099,note_on,,0,0,11,,,,,,,,,,,,,,,15,,,55,0
5099,note_on,,59,0,8,,,,,,,,,,,,,,,11,,,74,0
5099,note_on,,59,0,10,,,,,,,,,,,,,,,13,,,47,0
5099,note_on,,59,0,9,,,,,,,,,,,,,,,12,,,62,0
5100,note_on,,1,0,9,,,,,,,,,,,,,,,12,,,62,48
5100,note_on,,1,0,7,,,,,,,,,,,,,,,10,,,67,48
5100,note_on,,1,0,10,,,,,,,,,,,,,,,13,,,47,48
5100,note_on,,1,0,11,,,,,,,,,,,,,,,15,,,47,48
5100,note_on,,0,0,11,,,,,,,,,,,,,,,15,,,55,48
5100,note_on,,1,0,8,,,,,,,,,,,,,,,11,,,74,48
5159,note_on,,59,0,10,,,,,,,,,,,,,,,13,,,47,0
5159,note_on,,59,0,8,,,,,,,,,,,,,,,11,,,74,0
5159,note_on,,0,0,11,,,,,,,,,,,,,,,15,,,55,0
5159,note_on,,59,0,11,,,,,,,,,,,,,,,15,,,47,0
5159,note_on,,59,0,9,,,,,,,,,,,,,,,12,,,62,0
5159,note_on,,119,0,6,,,,,,,,,,,,,,,8,,,55,0
5159,note_on,,59,0,7,,,,,,,,,,,,,,,10,,,67,0
5160,note_on,,1,0,6,,,,,,,,,,,,,,,8,,,55,64
5160,note_on,,0,0,11,,,,,,,,,,,,,,,15,,,55,48
5160,note_on,,1,0,11,,,,,,,,,,,,,,,15,,,47,48
5160,note_on,,1,0,9,,,,,,,,,,,,,,,12,,,62,48
5160,note_on,,1,0,7,,,,,,,,,,,,,,,10,,,67,48
5160,note_on,,1,0,10,,,,,,,,,,,,,,,13,,,47,48
5160,note_on,,1,0,8,,,,,,,,,,,,,,,11,,,74,48
5219,note_on,,59,0,10,,,,,,,,,,,,,,,13,,,47,0
5219,note_on,,59,0,8,,,,,,,,,,,,,,,11,,,74,0
5219,note_on,,59,0,6,,,,,,,,,,,,,,,8,,,55,0
5219,note_on,,59,0,11,,,,,,,,,,,,,,,15,,,67,0
5219,note_on,,0,0,11,,,,,,,,,,,,,,,15,,,62,0
5219,note_on,,0,0,11,,,,,,,,,,,,,,,15,,,47,0
5219,note_on,,0,0,11,,,,,,,,,,,,,,,15,,,55,0
5219,note_on,,59,0,9,,,,,,,,,,,,,,,12,,,62,0
5219,note_on,,59,0,7,,,,,,,,,,,,,,,10,,,67,0
5220,note_on,,1,0,7,,,,,,,,,,,,,,,10,,,64,48
5220,note_on,,1,0,8,,,,,,,,,,,,,,,11,,,69,48
5220,note_on,,1,0,10,,,,,,,,,,,,,,,13,,,49,48
5220,note_on,,0,0,11,,,,,,,,,,,,,,,15,,,76,48
5220,note_on,,1,0,9,,,,,,,,,,,,,,,12,,,64,48
5220,note_on,,1,0,6,,,,,,,,,,,,,,,8,,,57,66
5220,note_on,,0,0,11,,,,,,,,,,,,,,,15,,,67,48
5220,note_on,,0,0,11,,,,,,,,,,,,,,,15,,,57,48
5220,note_on,,1,0,11,,,,,,,,,,,,,,,15,,,49,48
5279,note_on,,0,0,11,,,,,,,,,,,,,,,15,,,57,0
5279,note_on,,59,0,7,,,,,,,,,,,,,,,10,,,64,0
5279,note_on,,59,0,8,,,,,,,,,,,,,,,11,,,69,0
5279,note_on,,59,0,6,,,,,,,,,,,,,,,8,,,57,0
5279,note_on,,0,0,11,,,,,,,,,,,,,,,15,,,67,0
5279,note_on,,0,0,11,,,,,,,,,,,,,,,15,,,76,0
5279,note_on,,59,0,11,,,,,,,,,,,,,,,15,,,49,0
5279,note_on,,59,0,9,,,,,,,,,,,,,,,12,,,64,0
5279,note_on,,59,0,10,,,,,,,,,,,,,,,13,,,49,0
5280,note_on,,1,0,6,,,,,,,,,,,,,,,8,,,54,64
5280,note_on,,0,0,11,,,,,,,,,,,,,,,15,,,66,48
5280,note_on,,0,0,11,,,,,,,,,,,,,,,15,,,69,48
5280,note_on,,1,0,8,,,,,,,,,,,,,,,11,,,69,48
5280,note_on,,1,0,9,,,,,,,,,,,,,,,12,,,62,48
5280,note_on,,1,0,11,,,,,,,,,,,,,,,15,,,50,48
5280,note_on,,1,0,7,,,,,,,,,,,,,,,10,,,66,48
5280,note_on,,1,0,10,,,,,,,,,,,,,,,13,,,50,48
5280,note_on,,0,0,11,,,,,,,,,,,,,,,15,,,57,48
5339,note_on,,59,0,11,,,,,,,,,,,,,,,15,,,50,0
5339,note_on,,59,0,8,,,,,,,,,,,,,,,11,,,69,0
5339,note_on,,59,0,9,,,,,,,,,,,,,,,12,,,62,0
5339,note_on,,59,0,10,,,,,,,,,,,,,,,13,,,50,0
5339,note_on,,0,0,11,,,,,,,,,,,,,,,15,,,57,0
5339,note_on,,59,0,7,,,,,,,,,,,,,,,10,,,66,0
5340,note_on,,1,0,10,,,,,,,,,,,,,,,13,,,50,48
5340,note_on,,1,0,8,,,,,,,,,,,,,,,11,,,69,48
5340,note_on,,1,0,11,,,,,,,,,,,,,,,15,,,50,48
5340,note_on,,0,0,11,,,,,,,,,,,,,,,15,,,57,48
5340,note_on,,1,0,7,,,,,,,,,,,,,,,10,,,66,48
5340,note_on,,1,0,9,,,,,,,,,,,,,,,12,,,62,48
5399,note_on,,59,0,7,,,,,,,,,,,,,,,10,,,66,0
5399,note_on,,59,0,9,,,,,,,,,,,,,,,12,,,62,0
5399,note_on,,59,0,11,,,,,,,,,,,,,,,15,,,50,0
5399,note_on,,0,0,11,,,,,,,,,,,,,,,15,,,57,0
5399,note_on,,59,0,10,,,,,,,,,,,,,,,13,,,50,0
5399,note_on,,59,0,8,,,,,,,,,,,,,,,11,,,69,0
5400,note_on,,0,0,11,,,,,,,,,,,,,,,15,,,57,48
5400,note_on,,1,0,11,,,,,,,,,,,,,,,15,,,50,48
5400,note_on,,1,0,9,,,,,,,,,,,,,,,12,,,62,48
5400,note_on,,1,0,10,,,,,,,,,,,,,,,13,,,50,48
5400,note_on,,1,0,8,,,,,,,,,,,,,,,11,,,69,48
5400,note_on,,1,0,7,,,,,,,,,,,,,,,10,,,74,48
5429,note_on,,149,0,6,,,,,,,,,,,,,,,8,,,54,0
5430,note_on,,1,0,6,,,,,,,,,,,,,,,8,,,52,61
5459,note_on,,59,0,11,,,,,,,,,,,,,,,15,,,50,0
5459,note_on,,59,0,9,,,,,,,,,,,,,,,12,,,62,0
5459,note_on,,59,0,10,,,,,,,,,,,,,,,13,,,50,0
5459,note_on,,59,0,7,,,,,,,,,,,,,,,10,,,74,0
5459,note_on,,0,0,11,,,,,,,,,,,,,,,15,,,57,0
5459,note_on,,59,0,8,,,,,,,,,,,,,,,11,,,69,0
5459,note_on,,29,0,6,,,,,,,,,,,,,,,8,,,52,0
5460,note_on,,1,0,6,,,,,,,,,,,,,,,8,,,54,63
5460,note_on,,1,0,7,,,,,,,,,,,,,,,10,,,74,48
5460,note_on,,1,0,10,,,,,,,,,,,,,,,13,,,50,48
5460,note_on,,0,0,11,,,,,,,,,,,,,,,15,,,57,48
5460,note_on,,1,0,11,,,,,,,,,,,,,,,15,,,50,48
5460,note_on,,1,0,9,,,,,,,,,,,,,,,12,,,62,48
5460,note_on,,1,0,8,,,,,,,,,,,,,,,11,,,69,48
5489,note_on,,29,0,6,,,,,,,,,,,,,,,8,,,54,0
5490,note_on,,1,0,6,,,,,,,,,,,,,,,8,,,50,66
5519,note_on,,59,0,9,,,,,,,,,,,,,,,12,,,62,0
5519,note_on,,29,0,6,,,,,,,,,,,,,,,8,,,50,0
5519,note_on,,59,0,10,,,,,,,,,,,,,,,13,,,50,0
5519,note_on,,59,0,8,,,,,,,,,,,,,,,11,,,69,0
5519,note_on,,0,0,11,,,,,,,,,,,,,,,15,,,57,0
5519,note_on,,0,0,11,,,,,,,,,,,,,,,15,,,50,0
5519,note_on,,0,0,11,,,,,,,,,,,,,,,15,,,66,0
5519,note_on,,59,0,11,,,,,,,,,,,,,,,15,,,69,0
5519,note_on,,59,0,7,,,,,,,,,,,,,,,10,,,74,0
5520,note_on,,0,0,11,,,,,,,,,,,,,,,15,,,67,48
5520,note_on,,0,0,11,,,,,,,,,,,,,,,15,,,74,48
5520,note_on,,1,0,11,,,,,,,,,,,,,,,15,,,52,48
5520,note_on,,0,0,11,,,,,,,,,,,,,,,15,,,55,48
5520,note_on,,1,0,9,,,,,,,,,,,,,,,12,,,59,48
5520,note_on,,1,0,10,,,,,,,,,,,,,,,13,,,52,48
5520,note_on,,1,0,8,,,,,,,,,,,,,,,11,,,67,48
5520,note_on,,1,0,6,,,,,,,,,,,,,,,8,,,55,65
5520,note_on,,1,0,7,,,,,,,,,,,,,,,10,,,74,48
5579,note_on,,59,0,8,,,,,,,,,,,,,,,11,,,67,0
5579,note_on,,59,0,10,,,,,,,,,,,,,,,13,,,52,0
5579,note_on,,59,0,9,,,,,,,,,,,,,,,12,,,59,0
5579,note_on,,59,0,7,,,,,,,,,,,,,,,10,,,74,0
5579,note_on,,0,0,11,,,,,,,,,,,,,,,15,,,55,0
5579,note_on,,59,0,11,,,,,,,,,,,,,,,15,,,52,0
5580,note_on,,1,0,11,,,,,,,,,,,,,,,15,,,52,48
5580,note_on,,1,0,8,,,,,,,,,,,,,,,11,,,67,48
5580,note_on,,0,0,11,,,,,,,,,,,,,,,15,,,55,48
5580,note_on,,1,0,7,,,,,,,,,,,,,,,10,,,74,48
5580,note_on,,1,0,10,,,,,,,,,,,,,,,13,,,52,48
5580,note_on,,1,0,9,,,,,,,,,,,,,,,12,,,59,48
5639,note_on,,59,0,8,,,,,,,,,,,,,,,11,,,67,0
5639,note_on,,59,0,9,,,,,,,,,,,,,,,12,,,59,0
5639,note_on,,59,0,10,,,,,,,,,,,,,,,13,,,52,0
5639,note_on,,59,0,11,,,,,,,,,,,,,,,15,,,74,0
5639,note_on,,0,0,11,,,,,,,,,,,,,,,15,,,67,0
5639,note_on,,0,0,11,,,,,,,,,,,,,,,15,,,52,0
5639,note_on,,0,0,11,,,,,,,,,,,,,,,15,,,55,0
5639,note_on,,59,0,7,,,,,,,,,,,,,,,10,,,74,0
5640,note_on,,1,0,7,,,,,,,,,,,,,,,10,,,73,48
5640,note_on,,1,0,10,,,,,,,,,,,,,,,13,,,52,48
5640,note_on,,1,0,8,,,,,,,,,,,,,,,11,,,67,48
5640,note_on,,0,0,11,,,,,,,,,,,,,,,15,,,76,48
5640,note_on,,0,0,11,,,,,,,,,,,,,,,15,,,73,48
5640,note_on,,0,0,11,,,,,,,,,,,,,,,15,,,67,48
5640,note_on,,0,0,11,,,,,,,,,,,,,,,15,,,55,48
5640,note_on,,1,0,11,,,,,,,,,,,,,,,15,,,52,48
5640,note_on,,1,0,9,,,,,,,,,,,,,,,12,,,55,48
5669,note_on,,149,0,6,,,,,,,,,,,,,,,8,,,55,0
5670,note_on,,1,0,6,,,,,,,,,,,,,,,8,,,54,65
5699,note_on,,0,0,11,,,,,,,,,,,,,,,15,,,55,0
5699,note_on,,59,0,11,,,,,,,,,,,,,,,15,,,52,0
5699,note_on,,59,0,7,,,,,,,,,,,,,,,10,,,73,0
5699,note_on,,59,0,10,,,,,,,,,,,,,,,13,,,52,0
5699,note_on,,29,0,6,,,,,,,,,,,,,,,8,,,54,0
5699,note_on,,59,0,9,,,,,,,,,,,,,,,12,,,55,0
5699,note_on,,59,0,8,,,,,,,,,,,,,,,11,,,67,0
5700,note_on,,1,0,7,,,,,,,,,,,,,,,10,,,73,48
5700,note_on,,1,0,10,,,,,,,,,,,,,,,13,,,52,48
5700,note_on,,1,0,11,,,,,,,,,,,,,,,15,,,52,48
5700,note_on,,0,0,11,,,,,,,,,,,,,,,15,,,55,48
5700,note_on,,1,0,6,,,,,,,,,,,,,,,8,,,55,61
5700,note_on,,1,0,8,,,,,,,,,,,,,,,11,,,67,48
5700,note_on,,1,0,9,,,,,,,,,,,,,,,12,,,55,48
5729,note_on,,29,0,6,,,,,,,,,,,,,,,8,,,55,0
5730,note_on,,1,0,6,,,,,,,,,,,,,,,8,,,52,65
5759,note_on,,59,0,9,,,,,,,,,,,,,,,12,,,55,0
5759,note_on,,59,0,7,,,,,,,,,,,,,,,10,,,73,0
5759,note_on,,59,0,11,,,,,,,,,,,,,,,15,,,76,0
5759,note_on,,0,0,11,,,,,,,,,,,,,,,15,,,73,0
5759,note_on,,0,0,11,,,,,,,,,,,,,,,15,,,67,0
5759,note_on,,0,0,11,,,,,,,,,,,,,,,15,,,52,0
5759,note_on,,0,0,11,,,,,,,,,,,,,,,15,,,55,0
5759,note_on,,59,0,10,,,,,,,,,,,,,,,13,,,52,0
5759,note_on,,59,0,8,,,,,,,,,,,,,,,11,,,67,0
5759,note_on,,29,0,6,,,,,,,,,,,,,,,8,,,52,0
5760,note_on,,1,0,6,,,,,,,,,,,,,,,8,,,57,64
5760,note_on,,1,0,11,,,,,,,,,,,,,,,15,,,54,48
5760,note_on,,0,0,11,,,,,,,,,,,,,,,15,,,69,48
5760,note_on,,0,0,11,,,,,,,,,,,,,,,15,,,66,48
5760,note_on,,0,0,11,,,,,,,,,,,,,,,15,,,62,48
5760,note_on,,0,0,11,,,,,,,,,,,,,,,15,,,57,48
5760,note_on,,1,0,9,,,,,,,,,,,,,,,12,,,62,48
5760,note_on,,1,0,8,,,,,,,,,,,,,,,11,,,57,48
5760,note_on,,1,0,7,,,,,,,,,,,,,,,10,,,74,48
5760,note_on,,1,0,10,,,,,,,,,,,,,,,13,,,54,48
5819,note_on,,59,0,9,,,,,,,,,,,,,,,12,,,62,0
5819,note_on,,59,0,7,,,,,,,,,,,,,,,10,,,74,0
5819,note_on,,59,0,10,,,,,,,,,,,,,,,13,,,54,0
5819,note_on,,59,0,11,,,,,,,,,,,,,,,15,,,54,0
5819,note_on,,0,0,11,,,,,,,,,,,,,,,15,,,57,0
5819,note_on,,59,0,8,,,,,,,,,,,,,,,11,,,57,0
5820,note_on,,1,0,7,,,,,,,,,,,,,,,10,,,74,48
5820,note_on,,0,0,11,,,,,,,,,,,,,,,15,,,54,48
5820,note_on,,1,0,11,,,,,,,,,,,,,,,15,,,57,48
5820,note_on,,1,0,9,,,,,,,,,,,,,,,12,,,62,48
5820,note_on,,1,0,8,,,,,,,,,,,,,,,11,,,57,48
5820,note_on,,1,0,10,,,,,,,,,,,,,,,13,,,54,48
5879,note_on,,59,0,10,,,,,,,,,,,,,,,13,,,54,0
5879,note_on,,59,0,9,,,,,,,,,,,,,,,12,,,62,0
5879,note_on,,59,0,7,,,,,,,,,,,,,,,10,,,74,0
5879,note_on,,59,0,8,,,,,,,,,,,,,,,11,,,57,0
5879,note_on,,59,0,11,,,,,,,,,,,,,,,15,,,57,0
5879,note_on,,0,0,11,,,,,,,,,,,,,,,15,,,54,0
5880,note_on,,1,0,9,,,,,,,,,,,,,,,12,,,62,48
5880,note_on,,1,0,7,,,,,,,,,,,,,,,10,,,74,48
5880,note_on,,1,0,8,,,,,,,,,,,,,,,11,,,69,48
5880,note_on,,1,0,11,,,,,,,,,,,,,,,15,,,54,48
5880,note_on,,1,0,10,,,,,,,,,,,,,,,13,,,54,48
5880,note_on,,0,0,11,,,,,,,,,,,,,,,15,,,57,48
5909,note_on,,149,0,6,,,,,,,,,,,,,,,8,,,57,0
5910,note_on,,1,0,6,,,,,,,,,,,,,,,8,,,55,62
5939,note_on,,59,0,10,,,,,,,,,,,,,,,13,,,54,0
5939,note_on,,0,0,11,,,,,,,,,,,,,,,15,,,57,0
5939,note_on,,59,0,11,,,,,,,,,,,,,,,15,,,54,0
5939,note_on,,59,0,9,,,,,,,,,,,,,,,12,,,62,0
5939,note_on,,29,0,6,,,,,,,,,,,,,,,8,,,55,0
5939,note_on,,59,0,7,,,,,,,,,,,,,,,10,,,74,0
5939,note_on,,59,0,8,,,,,,,,,,,,,,,11,,,69,0
5940,note_on,,0,0,11,,,,,,,,,,,,,,,15,,,57,48
5940,note_on,,1,0,10,,,,,,,,,,,,,,,13,,,54,48
5940,note_on,,1,0,11,,,,,,,,,,,,,,,15,,,54,48
5940,note_on,,1,0,6,,,,,,,,,,,,,,,8,,,57,65
5940,note_on,,1,0,7,,,,,,,,,,,,,,,10,,,74,48
5940,note_on,,1,0,8,,,,,,,,,,,,,,,11,,,69,48
5940,note_on,,1,0,9,,,,,,,,,,,,,,,12,,,62,48
5969,note_on,,29,0,6,,,,,,,,,,,,,,,8,,,57,0
5970,note_on,,1,0,6,,,,,,,,,,,,,,,8,,,54,66
5999,note_on,,0,0,11,,,,,,,,,,,,,,,15,,,66,0
5999,note_on,,0,0,11,,,,,,,,,,,,,,,15,,,54,0
5999,note_on,,0,0,11,,,,,,,,,,,,,,,15,,,62,0
5999,note_on,,59,0,9,,,,,,,,,,,,,,,12,,,62,0
5999,note_on,,59,0,10,,,,,,,,,,,,,,,13,,,54,0
5999,note_on,,59,0,11,,,,,,,,,,,,,,,15,,,69,0
5999,note_on,,29,0,6,,,,,,,,,,,,,,,8,,,54,0
5999,note_on,,59,0,8,,,,,,,,,,,,,,,11,,,69,0
5999,note_on,,0,0,11,,,,,,,,,,,,,,,15,,,57,0
5999,note_on,,59,0,7,,,,,,,,,,,,,,,10,,,74,0
6000,note_on,,0,0,11,,,,,,,,,,,,,,,15,,,67,48
6000,note_on,,0,0,11,,,,,,,,,,,,,,,15,,,62,48
6000,note_on,,0,0,11,,,,,,,,,,,,,,,15,,,59,48
6000,note_on,,1,0,6,,,,,,,,,,,,,,,8,,,59,67
6000,note_on,,1,0,7,,,,,,,,,,,,,,,10,,,74,48
6000,note_on,,1,0,11,,,,,,,,,,,,,,,15,,,55,48
6000,note_on,,1,0,8,,,,,,,,,,,,,,,11,,,67,48
6000,note_on,,1,0,10,,,,,,,,,,,,,,,13,,,55,48
6000,note_on,,1,0,9,,,,,,,,,,,,,,,12,,,59,48
6029,note_on,,29,0,6,,,,,,,,,,,,,,,8,,,59,0
6030,note_on,,1,0,6,,,,,,,,,,,,,,,8,,,57,67
6059,note_on,,29,0,6,,,,,,,,,,,,,,,8,,,57,0
6059,note_on,,59,0,11,,,,,,,,,,,,,,,15,,,55,0
6059,note_on,,0,0,11,,,,,,,,,,,,,,,15,,,59,0
6059,note_on,,59,0,9,,,,,,,,,,,,,,,12,,,59,0
6059,note_on,,59,0,8,,,,,,,,,,,,,,,11,,,67,0
6059,note_on,,59,0,7,,,,,,,,,,,,,,,10,,,74,0
6059,note_on,,59,0,10,,,,,,,,,,,,,,,13,,,55,0
6060,note_on,,1,0,8,,,,,,,,,,,,,,,11,,,67,48
6060,note_on,,0,0,11,,,,,,,,,,,,,,,15,,,59,48
6060,note_on,,1,0,11,,,,,,,,,,,,,,,15,,,55,48
6060,note_on,,1,0,6,,,,,,,,,,,,,,,8,,,59,63
6060,note_on,,1,0,7,,,,,,,,,,,,,,,10,,,74,48
6060,note_on,,1,0,10,,,,,,,,,,,,,,,13,,,55,48
6060,note_on,,1,0,9,,,,,,,,,,,,,,,12,,,71,48
6089,note_on,,29,0,6,,,,,,,,,,,,,,,8,,,59,0
6090,note_on,,1,0,6,,,,,,,,,,,,,,,8,,,55,65
6119,note_on,,59,0,8,,,,,,,,,,,,,,,11,,,67,0
6119,note_on,,59,0,11,,,,,,,,,,,,,,,15,,,67,0
6119,note_on,,59,0,10,,,,,,,,,,,,,,,13,,,55,0
6119,note_on,,59,0,9,,,,,,,,,,,,,,,12,,,71,0
6119,note_on,,29,0,6,,,,,,,,,,,,,,,8,,,55,0
6119,note_on,,0,0,11,,,,,,,,,,,,,,,15,,,62,0
6119,note_on,,0,0,11,,,,,,,,,,,,,,,15,,,55,0
6119,note_on,,59,0,7,,,,,,,,,,,,,,,10,,,74,0
6119,note_on,,0,0,11,,,,,,,,,,,,,,,15,,,59,0
6120,note_on,,0,0,11,,,,,,,,,,,,,,,15,,,55,48
6120,note_on,,0,0,11,,,,,,,,,,,,,,,15,,,67,48
6120,note_on,,0,0,11,,,,,,,,,,,,,,,15,,,73,48
6120,note_on,,0,0,11,,,,,,,,,,,,,,,15,,,76,48
6120,note_on,,1,0,11,,,,,,,,,,,,,,,15,,,52,48
6120,note_on,,1,0,10,,,,,,,,,,,,,,,13,,,52,48
6120,note_on,,1,0,9,,,,,,,,,,,,,,,12,,,61,48
6120,note_on,,1,0,6,,,,,,,,,,,,,,,8,,,61,66
6120,note_on,,1,0,7,,,,,,,,,,,,,,,10,,,76,48
6120,note_on,,1,0,8,,,,,,,,,,,,,,,11,,,67,48
6179,note_on,,59,0,10,,,,,,,,,,,,,,,13,,,52,0
6179,note_on,,59,0,9,,,,,,,,,,,,,,,12,,,61,0
6179,note_on,,0,0,11,,,,,,,,,,,,,,,15,,,55,0
6179,note_on,,59,0,11,,,,,,,,,,,,,,,15,,,52,0
6179,note_on,,59,0,7,,,,,,,,,,,,,,,10,,,76,0
6179,note_on,,59,0,8,,,,,,,,,,,,,,,11,,,67,0
6180,note_on,,1,0,7,,,,,,,,,,,,,,,10,,,76,48
6180,note_on,,1,0,9,,,,,,,,,,,,,,,12,,,61,48
6180,note_on,,1,0,10,,,,,,,,,,,,,,,13,,,52,48
6180,note_on,,1,0,8,,,,,,,,,,,,,,,11,,,67,48
6180,note_on,,1,0,11,,,,,,,,,,,,,,,15,,,52,48
6180,note_on,,0,0,11,,,,,,,,,,,,,,,15,,,55,48
6209,note_on,,89,0,6,,,,,,,,,,,,,,,8,,,61,0
6210,note_on,,1,0,6,,,,,,,,,,,,,,,8,,,61,63
6239,note_on,,59,0,7,,,,,,,,,,,,,,,10,,,76,0
6239,note_on,,59,0,8,,,,,,,,,,,,,,,11,,,67,0
6239,note_on,,29,0,6,,,,,,,,,,,,,,,8,,,61,0
6239,note_on,,59,0,11,,,,,,,,,,,,,,,15,,,76,0
6239,note_on,,0,0,11,,,,,,,,,,,,,,,15,,,73,0
6239,note_on,,0,0,11,,,,,,,,,,,,,,,15,,,67,0
6239,note_on,,0,0,11,,,,,,,,,,,,,,,15,,,52,0
6239,note_on,,0,0,11,,,,,,,,,,,,,,,15,,,55,0
6239,note_on,,59,0,10,,,,,,,,,,,,,,,13,,,52,0
6239,note_on,,59,0,9,,,,,,,,,,,,,,,12,,,61,0
6240,note_on,,1,0,8,,,,,,,,,,,,,,,11,,,66,48
6240,note_on,,1,0,10,,,,,,,,,,,,,,,13,,,50,48
6240,note_on,,1,0,9,,,,,,,,,,,,,,,12,,,69,48
6240,note_on,,0,0,11,,,,,,,,,,,,,,,15,,,69,48
6240,note_on,,1,0,7,,,,,,,,,,,,,,,10,,,78,48
6240,note_on,,0,0,11,,,,,,,,,,,,,,,15,,,74,48
6240,note_on,,0,0,11,,,,,,,,,,,,,,,15,,,78,48
6240,note_on,,0,0,11,,,,,,,,,,,,,,,15,,,62,48
6240,note_on,,1,0,11,,,,,,,,,,,,,,,15,,,50,48
6240,note_on,,1,0,6,,,,,,,,,,,,,,,8,,,62,62
6299,note_on,,59,0,10,,,,,,,,,,,,,,,13,,,50,0
6299,note_on,,59,0,7,,,,,,,,,,,,,,,10,,,78,0
6299,note_on,,59,0,8,,,,,,,,,,,,,,,11,,,66,0
6299,note_on,,59,0,9,,,,,,,,,,,,,,,12,,,69,0
6299,note_on,,0,0,11,,,,,,,,,,,,,,,15,,,62,0
6299,note_on,,59,0,11,,,,,,,,,,,,,,,15,,,50,0
6300,note_on,,1,0,9,,,,,,,,,,,,,,,12,,,69,48
6300,note_on,,1,0,7,,,,,,,,,,,,,,,10,,,78,48
6300,note_on,,1,0,8,,,,,,,,,,,,,,,11,,,66,48
6300,note_on,,0,0,11,,,,,,,,,,,,,,,15,,,62,48
6300,note_on,,1,0,11,,,,,,,,,,,,,,,15,,,50,48
6300,note_on,,1,0,10,,,,,,,,,,,,,,,13,,,50,48
6359,note_on,,59,0,10,,,,,,,,,,,,,,,13,,,50,0
6359,note_on,,59,0,7,,,,,,,,,,,,,,,10,,,78,0
6359,note_on,,59,0,11,,,,,,,,,,,,,,,15,,,50,0
6359,note_on,,59,0,8,,,,,,,,,,,,,,,11,,,66,0
6359,note_on,,119,0,6,,,,,,,,,,,,,,,8,,,62,0
6359,note_on,,0,0,11,,,,,,,,,,,,,,,15,,,62,0
6359,note_on,,59,0,9,,,,,,,,,,,,,,,12,,,69,0
6360,note_on,,0,0,11,,,,,,,,,,,,,,,15,,,62,48
6360,note_on,,1,0,9,,,,,,,,,,,,,,,12,,,69,48
6360,note_on,,1,0,7,,,,,,,,,,,,,,,10,,,78,48
6360,note_on,,1,0,10,,,,,,,,,,,,,,,13,,,50,48
6360,note_on,,1,0,11,,,,,,,,,,,,,,,15,,,50,48
6360,note_on,,1,0,6,,,,,,,,,,,,,,,8,,,50,66
6360,note_on,,1,0,8,,,,,,,,,,,,,,,11,,,69,48
6419,note_on,,0,0,11,,,,,,,,,,,,,,,15,,,62,0
6419,note_on,,59,0,11,,,,,,,,,,,,,,,15,,,50,0
6419,note_on,,59,0,8,,,,,,,,,,,,,,,11,,,69,0
6419,note_on,,59,0,9,,,,,,,,,,,,,,,12,,,69,0
6419,note_on,,59,0,7,,,,,,,,,,,,,,,10,,,78,0
6419,note_on,,59,0,10,,,,,,,,,,,,,,,13,,,50,0
6420,note_on,,0,0,11,,,,,,,,,,,,,,,15,,,62,48
6420,note_on,,1,0,11,,,,,,,,,,,,,,,15,,,50,48
6420,note_on,,1,0,7,,,,,,,,,,,,,,,10,,,78,48
6420,note_on,,1,0,8,,,,,,,,,,,,,,,11,,,69,48
6420,note_on,,1,0,9,,,,,,,,,,,,,,,12,,,69,48
6420,note_on,,1,0,10,,,,,,,,,,,,,,,13,,,50,48
6479,note_on,,0,0,11,,,,,,,,,,,,,,,15,,,62,0
6479,note_on,,59,0,8,,,,,,,,,,,,,,,11,,,69,0
6479,note_on,,59,0,9,,,,,,,,,,,,,,,12,,,69,0
6479,note_on,,119,0,6,,,,,,,,,,,,,,,8,,,50,0
6479,note_on,,0,0,11,,,,,,,,,,,,,,,15,,,50,0
6479,note_on,,59,0,7,,,,,,,,,,,,,,,10,,,78,0
6479,note_on,,0,0,11,,,,,,,,,,,,,,,15,,,74,0
6479,note_on,,59,0,11,,,,,,,,,,,,,,,15,,,78,0
6479,note_on,,59,0,10,,,,,,,,,,,,,,,13,,,50,0
6479,note_on,,0,0,11,,,,,,,,,,,,,,,15,,,69,0
6480,note_on,,1,0,10,,,,,,,,,,,,,,,13,,,50,48
6480,note_on,,1,0,7,,,,,,,,,,,,,,,10,,,78,48
6480,note_on,,1,0,8,,,,,,,,,,,,,,,11,,,69,48
6480,note_on,,1,0,9,,,,,,,,,,,,,,,12,,,62,48
6480,note_on,,0,0,11,,,,,,,,,,,,,,,15,,,62,48
6480,note_on,,1,0,11,,,,,,,,,,,,,,,15,,,50,48
6480,note_on,,0,0,11,,,,,,,,,,,,,,,15,,,57,48
6480,note_on,,0,0,11,,,,,,,,,,,,,,,15,,,69,48
6480,note_on,,0,0,11,,,,,,,,,,,,,,,15,,,66,48
6539,note_on,,59,0,9,,,,,,,,,,,,,,,12,,,62,0
6539,note_on,,59,0,8,,,,,,,,,,,,,,,11,,,69,0
6539,note_on,,59,0,11,,,,,,,,,,,,,,,15,,,50,0
6539,note_on,,0,0,11,,,,,,,,,,,,,,,15,,,57,0
6539,note_on,,59,0,7,,,,,,,,,,,,,,,10,,,78,0
6539,note_on,,59,0,10,,,,,,,,,,,,,,,13,,,50,0
6540,note_on,,1,0,7,,,,,,,,,,,,,,,10,,,78,48
6540,note_on,,1,0,8,,,,,,,,,,,,,,,11,,,69,48
6540,note_on,,0,0,11,,,,,,,,,,,,,,,15,,,57,48
6540,note_on,,1,0,11,,,,,,,,,,,,,,,15,,,50,48
6540,note_on,,1,0,10,,,,,,,,,,,,,,,13,,,50,48
6540,note_on,,1,0,9,,,,,,,,,,,,,,,12,,,62,48
6599,note_on,,59,0,7,,,,,,,,,,,,,,,10,,,78,0
6599,note_on,,59,0,10,,,,,,,,,,,,,,,13,,,50,0
6599,note_on,,59,0,8,,,,,,,,,,,,,,,11,,,69,0
6599,note_on,,0,0,11,,,,,,,,,,,,,,,15,,,57,0
6599,note_on,,59,0,11,,,,,,,,,,,,,,,15,,,50,0
6599,note_on,,59,0,9,,,,,,,,,,,,,,,12,,,62,0
6600,note_on,,1,0,9,,,,,,,,,,,,,,,12,,,62,48
6600,note_on,,1,0,8,,,,,,,,,,,,,,,11,,,69,48
6600,note_on,,121,0,6,,,,,,,,,,,,,,,8,,,54,60
6600,note_on,,1,0,10,,,,,,,,,,,,,,,13,,,50,48
6600,note_on,,0,0,11,,,,,,,,,,,,,,,15,,,57,48
6600,note_on,,1,0,11,,,,,,,,,,,,,,,15,,,50,48
6600,note_on,,1,0,7,,,,,,,,,,,,,,,10,,,78,48
6659,note_on,,59,0,7,,,,,,,,,,,,,,,10,,,78,0
6659,note_on,,59,0,8,,,,,,,,,,,,,,,11,,,69,0
6659,note_on,,59,0,9,,,,,,,,,,,,,,,12,,,62,0
6659,note_on,,59,0,10,,,,,,,,,,,,,,,13,,,50,0
6659,note_on,,59,0,6,,,,,,,,,,,,,,,8,,,54,0
6659,note_on,,59,0,11,,,,,,,,,,,,,,,15,,,50,0
6659,note_on,,0,0,11,,,,,,,,,,,,,,,15,,,57,0
6660,note_on,,1,0,8,,,,,,,,,,,,,,,11,,,69,48
6660,note_on,,1,0,10,,,,,,,,,,,,,,,13,,,50,48
6660,note_on,,1,0,9,,,,,,,,,,,,,,,12,,,62,48
6660,note_on,,1,0,7,,,,,,,,,,,,,,,10,,,78,48
6660,note_on,,1,0,11,,,,,,,,,,,,,,,15,,,50,48
6660,note_on,,0,0,11,,,,,,,,,,,,,,,15,,,57,48
6660,note_on,,1,0,6,,,,,,,,,,,,,,,8,,,50,61
6719,note_on,,59,0,8,,,,,,,,,,,,,,,11,,,69,0
6719,note_on,,0,0,11,,,,,,,,,,,,,,,15,,,62,0
6719,note_on,,0,0,11,,,,,,,,,,,,,,,15,,,66,0
6719,note_on,,59,0,11,,,,,,,,,,,,,,,15,,,69,0
6719,note_on,,59,0,7,,,,,,,,,,,,,,,10,,,78,0
6719,note_on,,59,0,6,,,,,,,,,,,,,,,8,,,50,0
6719,note_on,,0,0,11,,,,,,,,,,,,,,,15,,,57,0
6719,note_on,,59,0,9,,,,,,,,,,,,,,,12,,,62,0
6719,note_on,,59,0,10,,,,,,,,,,,,,,,13,,,50,0
6719,note_on,,0,0,11,,,,,,,,,,,,,,,15,,,50,0
6720,note_on,,1,0,6,,,,,,,,,,,,,,,8,,,57,62
6720,note_on,,1,0,11,,,,,,,,,,,,,,,15,,,49,48
6720,note_on,,1,0,9,,,,,,,,,,,,,,,12,,,64,48
6720,note_on,,1,0,7,,,,,,,,,,,,,,,10,,,76,48
6720,note_on,,0,0,11,,,,,,,,,,,,,,,15,,,76,48
6720,note_on,,0,0,11,,,,,,,,,,,,,,,15,,,69,48
6720,note_on,,1,0,10,,,,,,,,,,,,,,,13,,,49,48
6720,note_on,,0,0,11,,,,,,,,,,,,,,,15,,,52,48
6720,note_on,,1,0,8,,,,,,,,,,,,,,,11,,,69,48
6720,note_on,,0,0,11,,,,,,,,,,,,,,,15,,,64,48
6779,note_on,,59,0,8,,,,,,,,,,,,,,,11,,,69,0
6779,note_on,,59,0,10,,,,,,,,,,,,,,,13,,,49,0
6779,note_on,,0,0,11,,,,,,,,,,,,,,,15,,,52,0
6779,note_on,,59,0,11,,,,,,,,,,,,,,,15,,,49,0
6779,note_on,,59,0,9,,,,,,,,,,,,,,,12,,,64,0
6779,note_on,,59,0,7,,,,,,,,,,,,,,,10,,,76,0
6780,note_on,,1,0,10,,,,,,,,,,,,,,,13,,,49,48
6780,note_on,,1,0,11,,,,,,,,,,,,,,,15,,,49,48
6780,note_on,,0,0,11,,,,,,,,,,,,,,,15,,,52,48
6780,note_on,,1,0,8,,,,,,,,,,,,,,,11,,,69,48
6780,note_on,,1,0,7,,,,,,,,,,,,,,,10,,,76,48
6780,note_on,,1,0,9,,,,,,,,,,,,,,,12,,,64,48
6839,note_on,,59,0,10,,,,,,,,,,,,,,,13,,,49,0
6839,note_on,,0,0,11,,,,,,,,,,,,,,,15,,,52,0
6839,note_on,,59,0,11,,,,,,,,,,,,,,,15,,,49,0
6839,note_on,,59,0,9,,,,,,,,,,,,,,,12,,,64,0
6839,note_on,,59,0,7,,,,,,,,,,,,,,,10,,,76,0
6839,note_on,,59,0,8,,,,,,,,,,,,,,,11,,,69,0
6840,note_on,,1,0,9,,,,,,,,,,,,,,,12,,,64,48
6840,note_on,,1,0,8,,,,,,,,,,,,,,,11,,,69,48
6840,note_on,,0,0,11,,,,,,,,,,,,,,,15,,,52,48
6840,note_on,,1,0,7,,,,,,,,,,,,,,,10,,,76,48
6840,note_on,,1,0,10,,,,,,,,,,,,,,,13,,,49,48
6840,note_on,,1,0,11,,,,,,,,,,,,,,,15,,,49,48
6899,note_on,,59,0,9,,,,,,,,,,,,,,,12,,,64,0
6899,note_on,,59,0,7,,,,,,,,,,,,,,,10,,,76,0
6899,note_on,,59,0,10,,,,,,,,,,,,,,,13,,,49,0
6899,note_on,,59,0,11,,,,,,,,,,,,,,,15,,,49,0
6899,note_on,,0,0,11,,,,,,,,,,,,,,,15,,,52,0
6899,note_on,,59,0,8,,,,,,,,,,,,,,,11,,,69,0
6900,note_on,,0,0,11,,,,,,,,,,,,,,,15,,,52,48
6900,note_on,,1,0,9,,,,,,,,,,,,,,,12,,,64,48
6900,note_on,,1,0,8,,,,,,,,,,,,,,,11,,,69,48
6900,note_on,,1,0,7,,,,,,,,,,,,,,,10,,,76,48
6900,note_on,,1,0,10,,,,,,,,,,,,,,,13,,,49,48
6900,note_on,,1,0,11,,,,,,,,,,,,,,,15,,,49,48
6959,note_on,,59,0,9,,,,,,,,,,,,,,,12,,,64,0
6959,note_on,,0,0,11,,,,,,,,,,,,,,,15,,,52,0
6959,note_on,,59,0,7,,,,,,,,,,,,,,,10,,,76,0
6959,note_on,,0,0,11,,,,,,,,,,,,,,,15,,,49,0
6959,note_on,,0,0,11,,,,,,,,,,,,,,,15,,,64,0
6959,note_on,,59,0,8,,,,,,,,,,,,,,,11,,,69,0
6959,note_on,,59,0,10,,,,,,,,,,,,,,,13,,,49,0
6959,note_on,,59,0,11,,,,,,,,,,,,,,,15,,,76,0
6959,note_on,,0,0,11,,,,,,,,,,,,,,,15,,,69,0
6960,note_on,,1,0,9,,,,,,,,,,,,,,,12,,,66,48
6960,note_on,,1,0,7,,,,,,,,,,,,,,,10,,,74,48
6960,note_on,,1,0,10,,,,,,,,,,,,,,,13,,,47,48
6960,note_on,,0,0,11,,,,,,,,,,,,,,,15,,,74,48
6960,note_on,,1,0,11,,,,,,,,,,,,,,,15,,,47,48
6960,note_on,,0,0,11,,,,,,,,,,,,,,,15,,,59,48
6960,note_on,,0,0,11,,,,,,,,,,,,,,,15,,,69,48
6960,note_on,,0,0,11,,,,,,,,,,,,,,,15,,,66,48
6960,note_on,,1,0,8,,,,,,,,,,,,,,,11,,,69,48
6989,note_on,,269,0,6,,,,,,,,,,,,,,,8,,,57,0
6990,note_on,,1,0,6,,,,,,,,,,,,,,,8,,,61,62
7019,note_on,,59,0,9,,,,,,,,,,,,,,,12,,,66,0
7019,note_on,,0,0,11,,,,,,,,,,,,,,,15,,,59,0
7019,note_on,,59,0,11,,,,,,,,,,,,,,,15,,,47,0
7019,note_on,,59,0,8,,,,,,,,,,,,,,,11,,,69,0
7019,note_on,,59,0,10,,,,,,,,,,,,,,,13,,,47,0
7019,note_on,,29,0,6,,,,,,,,,,,,,,,8,,,61,0
7019,note_on,,59,0,7,,,,,,,,,,,,,,,10,,,74,0
7020,note_on,,1,0,10,,,,,,,,,,,,,,,13,,,47,48
7020,note_on,,1,0,6,,,,,,,,,,,,,,,8,,,59,62
7020,note_on,,1,0,7,,,,,,,,,,,,,,,10,,,74,48
7020,note_on,,1,0,11,,,,,,,,,,,,,,,15,,,47,48
7020,note_on,,1,0,8,,,,,,,,,,,,,,,11,,,68,48
7020,note_on,,1,0,9,,,,,,,,,,,,,,,12,,,62,48
7020,note_on,,0,0,11,,,,,,,,,,,,,,,15,,,59,48
7049,note_on,,29,0,6,,,,,,,,,,,,,,,8,,,59,0
7049,note_on,,29,0,8,,,,,,,,,,,,,,,11,,,68,0
7050,note_on,,1,0,6,,,,,,,,,,,,,,,8,,,57,65
7050,note_on,,1,0,8,,,,,,,,,,,,,,,11,,,66,48
7079,note_on,,29,0,6,,,,,,,,,,,,,,,8,,,57,0
7079,note_on,,29,0,8,,,,,,,,,,,,,,,11,,,66,0
7079,note_on,,0,0,11,,,,,,,,,,,,,,,15,,,59,0
7079,note_on,,0,0,11,,,,,,,,,,,,,,,15,,,47,0
7079,note_on,,0,0,11,,,,,,,,,,,,,,,15,,,66,0
7079,note_on,,59,0,11,,,,,,,,,,,,,,,15,,,69,0
7079,note_on,,59,0,7,,,,,,,,,,,,,,,10,,,74,0
7079,note_on,,59,0,9,,,,,,,,,,,,,,,12,,,62,0
7079,note_on,,59,0,10,,,,,,,,,,,,,,,13,,,47,0
7080,note_on,,1,0,9,,,,,,,,,,,,,,,12,,,62,48
7080,note_on,,1,0,6,,,,,,,,,,,,,,,8,,,56,67
7080,note_on,,1,0,10,,,,,,,,,,,,,,,13,,,47,48
7080,note_on,,0,0,11,,,,,,,,,,,,,,,15,,,68,48
7080,note_on,,1,0,11,,,,,,,,,,,,,,,15,,,47,48
7080,note_on,,0,0,11,,,,,,,,,,,,,,,15,,,59,48
7080,note_on,,1,0,8,,,,,,,,,,,,,,,11,,,68,48
7080,note_on,,0,0,11,,,,,,,,,,,,,,,15,,,62,48
7080,note_on,,1,0,7,,,,,,,,,,,,,,,10,,,74,48
7109,note_on,,29,0,6,,,,,,,,,,,,,,,8,,,56,0
7110,note_on,,1,0,6,,,,,,,,,,,,,,,8,,,54,65
7139,note_on,,29,0,6,,,,,,,,,,,,,,,8,,,54,0
7139,note_on,,59,0,8,,,,,,,,,,,,,,,11,,,68,0
7139,note_on,,59,0,11,,,,,,,,,,,,,,,15,,,47,0
7139,note_on,,0,0,11,,,,,,,,,,,,,,,15,,,59,0
7139,note_on,,59,0,10,,,,,,,,,,,,,,,13,,,47,0
7139,note_on,,59,0,9,,,,,,,,,,,,,,,12,,,62,0
7139,note_on,,59,0,7,,,,,,,,,,,,,,,10,,,74,0
7140,note_on,,1,0,8,,,,,,,,,,,,,,,11,,,68,48
7140,note_on,,1,0,9,,,,,,,,,,,,,,,12,,,62,48
7140,note_on,,1,0,11,,,,,,,,,,,,,,,15,,,47,48
7140,note_on,,1,0,6,,,,,,,,,,,,,,,8,,,52,63
7140,note_on,,1,0,7,,,,,,,,,,,,,,,10,,,74,48
7140,note_on,,0,0,11,,,,,,,,,,,,,,,15,,,59,48
7140,note_on,,1,0,10,,,,,,,,,,,,,,,13,,,47,48
7169,note_on,,29,0,6,,,,,,,,,,,,,,,8,,,52,0
7170,note_on,,1,0,6,,,,,,,,,,,,,,,8,,,50,62
7199,note_on,,59,0,9,,,,,,,,,,,,,,,12,,,62,0
7199,note_on,,59,0,11,,,,,,,,,,,,,,,15,,,74,0
7199,note_on,,0,0,11,,,,,,,,,,,,,,,15,,,68,0
7199,note_on,,59,0,10,,,,,,,,,,,,,,,13,,,47,0
7199,note_on,,0,0,11,,,,,,,,,,,,,,,15,,,62,0
7199,note_on,,0,0,11,,,,,,,,,,,,,,,15,,,47,0
7199,note_on,,0,0,11,,,,,,,,,,,,,,,15,,,59,0
7199,note_on,,59,0,7,,,,,,,,,,,,,,,10,,,74,0
7199,note_on,,29,0,6,,,,,,,,,,,,,,,8,,,50,0
7199,note_on,,59,0,8,,,,,,,,,,,,,,,11,,,68,0
7200,note_on,,1,0,10,,,,,,,,,,,,,,,13,,,45,48
7200,note_on,,1,0,11,,,,,,,,,,,,,,,15,,,45,48
7200,note_on,,0,0,11,,,,,,,,,,,,,,,15,,,73,48
7200,note_on,,1,0,7,,,,,,,,,,,,,,,10,,,76,48
7200,note_on,,0,0,11,,,,,,,,,,,,,,,15,,,52,48
7200,note_on,,1,0,6,,,,,,,,,,,,,,,8,,,49,66
7200,note_on,,0,0,11,,,,,,,,,,,,,,,15,,,69,48
7200,note_on,,1,0,9,,,,,,,,,,,,,,,12,,,69,48
7200,note_on,,0,0,11,,,,,,,,,,,,,,,15,,,64,48
7200,note_on,,1,0,8,,,,,,,,,,,,,,,11,,,73,48
7259,note_on,,0,0,11,,,,,,,,,,,,,,,15,,,52,0
7259,note_on,,59,0,11,,,,,,,,,,,,,,,15,,,45,0
7259,note_on,,59,0,10,,,,,,,,,,,,,,,13,,,45,0
7259,note_on,,59,0,9,,,,,,,,,,,,,,,12,,,69,0
7259,note_on,,59,0,6,,,,,,,,,,,,,,,8,,,49,0
7259,note_on,,59,0,7,,,,,,,,,,,,,,,10,,,76,0
7259,note_on,,59,0,8,,,,,,,,,,,,,,,11,,,73,0
7260,note_on,,1,0,6,,,,,,,,,,,,,,,8,,,45,60
7260,note_on,,1,0,10,,,,,,,,,,,,,,,13,,,45,48
7260,note_on,,1,0,8,,,,,,,,,,,,,,,11,,,73,48
7260,note_on,,1,0,7,,,,,,,,,,,,,,,10,,,76,48
7260,note_on,,1,0,9,,,,,,,,,,,,,,,12,,,69,48
7260,note_on,,1,0,11,,,,,,,,,,,,,,,15,,,45,48
7260,note_on,,0,0,11,,,,,,,,,,,,,,,15,,,52,48
7319,note_on,,0,0,11,,,,,,,,,,,,,,,15,,,69,0
7319,note_on,,0,0,11,,,,,,,,,,,,,,,15,,,45,0
7319,note_on,,0,0,11,,,,,,,,,,,,,,,15,,,52,0
7319,note_on,,59,0,11,,,,,,,,,,,,,,,15,,,73,0
7319,note_on,,0,0,11,,,,,,,,,,,,,,,15,,,64,0
7319,note_on,,59,0,6,,,,,,,,,,,,,,,8,,,45,0
7319,note_on,,59,0,9,,,,,,,,,,,,,,,12,,,69,0
7319,note_on,,59,0,7,,,,,,,,,,,,,,,10,,,76,0
7319,note_on,,59,0,10,,,,,,,,,,,,,,,13,,,45,0
7319,note_on,,59,0,8,,,,,,,,,,,,,,,11,,,73,0
7320,note_on,,1,0,6,,,,,,,,,,,,,,,8,,,52,66
7320,note_on,,1,0,7,,,,,,,,,,,,,,,10,,,76,48
7320,note_on,,1,0,11,,,,,,,,,,,,,,,15,,,49,48
7320,note_on,,1,0,10,,,,,,,,,,,,,,,13,,,49,48
7320,note_on,,0,0,11,,,,,,,,,,,,,,,15,,,69,48
7320,note_on,,1,0,8,,,,,,,,,,,,,,,11,,,73,48
7320,note_on,,0,0,11,,,,,,,,,,,,,,,15,,,52,48
7320,note_on,,1,0,9,,,,,,,,,,,,,,,12,,,69,48
7320,note_on,,0,0,11,,,,,,,,,,,,,,,15,,,64,48
7379,note_on,,59,0,11,,,,,,,,,,,,,,,15,,,49,0
7379,note_on,,0,0,11,,,,,,,,,,,,,,,15,,,52,0
7379,note_on,,59,0,8,,,,,,,,,,,,,,,11,,,73,0
7379,note_on,,59,0,7,,,,,,,,,,,,,,,10,,,76,0
7379,note_on,,59,0,9,,,,,,,,,,,,,,,12,,,69,0
7379,note_on,,59,0,6,,,,,,,,,,,,,,,8,,,52,0
7379,note_on,,59,0,10,,,,,,,,,,,,,,,13,,,49,0
7380,note_on,,1,0,8,,,,,,,,,,,,,,,11,,,73,48
7380,note_on,,1,0,7,,,,,,,,,,,,,,,10,,,76,48
7380,note_on,,1,0,9,,,,,,,,,,,,,,,12,,,69,48
7380,note_on,,1,0,10,,,,,,,,,,,,,,,13,,,49,48
7380,note_on,,1,0,6,,,,,,,,,,,,,,,8,,,52,67
7380,note_on,,1,0,11,,,,,,,,,,,,,,,15,,,49,48
7380,note_on,,0,0,11,,,,,,,,,,,,,,,15,,,52,48
7439,note_on,,59,0,7,,,,,,,,,,,,,,,10,,,76,0
7439,note_on,,59,0,6,,,,,,,,,,,,,,,8,,,52,0
7439,note_on,,59,0,8,,,,,,,,,,,,,,,11,,,73,0
7439,note_on,,0,0,11,,,,,,,,,,,,,,,15,,,52,0
7439,note_on,,0,0,11,,,,,,,,,,,,,,,15,,,49,0
7439,note_on,,59,0,10,,,,,,,,,,,,,,,13,,,49,0
7439,note_on,,59,0,9,,,,,,,,,,,,,,,12,,,69,0
7439,note_on,,0,0,11,,,,,,,,,,,,,,,15,,,64,0
7439,note_on,,59,0,11,,,,,,,,,,,,,,,15,,,69,0
7440,note_on,,0,0,11,,,,,,,,,,,,,,,15,,,57,48
7440,note_on,,1,0,7,,,,,,,,,,,,,,,10,,,74,48
7440,note_on,,1,0,8,,,,,,,,,,,,,,,11,,,69,48
7440,note_on,,1,0,9,,,,,,,,,,,,,,,12,,,62,48
7440,note_on,,1,0,11,,,,,,,,,,,,,,,15,,,50,48
7440,note_on,,1,0,6,,,,,,,,,,,,,,,8,,,54,65
7440,note_on,,0,0,11,,,,,,,,,,,,,,,15,,,66,48
7440,note_on,,0,0,11,,,,,,,,,,,,,,,15,,,62,48
7440,note_on,,1,0,10,,,,,,,,,,,,,,,13,,,50,48
7499,note_on,,59,0,9,,,,,,,,,,,,,,,12,,,62,0
7499,note_on,,59,0,8,,,,,,,,,,,,,,,11,,,69,0
7499,note_on,,59,0,10,,,,,,,,,,,,,,,13,,,50,0
7499,note_on,,0,0,11,,,,,,,,,,,,,,,15,,,57,0
7499,note_on,,59,0,11,,,,,,,,,,,,,,,15,,,50,0
7499,note_on,,59,0,7,,,,,,,,,,,,,,,10,,,74,0
7500,note_on,,0,0,11,,,,,,,,,,,,,,,15,,,57,48
7500,note_on,,1,0,10,,,,,,,,,,,,,,,13,,,50,48
7500,note_on,,1,0,11,,,,,,,,,,,,,,,15,,,50,48
7500,note_on,,1,0,7,,,,,,,,,,,,,,,10,,,74,48
7500,note_on,,1,0,9,,,,,,,,,,,,,,,12,,,62,48
7500,note_on,,1,0,8,,,,,,,,,,,,,,,11,,,69,48
7559,note_on,,59,0,7,,,,,,,,,,,,,,,10,,,74,0
7559,note_on,,0,0,11,,,,,,,,,,,,,,,15,,,57,0
7559,note_on,,59,0,9,,,,,,,,,,,,,,,12,,,62,0
7559,note_on,,0,0,11,,,,,,,,,,,,,,,15,,,50,0
7559,note_on,,0,0,11,,,,,,,,,,,,,,,15,,,62,0
7559,note_on,,59,0,8,,,,,,,,,,,,,,,11,,,69,0
7559,note_on,,59,0,10,,,,,,,,,,,,,,,13,,,50,0
7559,note_on,,119,0,6,,,,,,,,,,,,,,,8,,,54,0
7559,note_on,,59,0,11,,,,,,,,,,,,,,,15,,,66,0
7560,note_on,,0,0,11,,,,,,,,,,,,,,,15,,,68,48
7560,note_on,,0,0,11,,,,,,,,,,,,,,,15,,,71,48
7560,note_on,,1,0,9,,,,,,,,,,,,,,,12,,,68,48
7560,note_on,,1,0,11,,,,,,,,,,,,,,,15,,,47,48
7560,note_on,,0,0,11,,,,,,,,,,,,,,,15,,,59,48
7560,note_on,,1,0,10,,,,,,,,,,,,,,,13,,,47,48
7560,note_on,,1,0,7,,,,,,,,,,,,,,,10,,,74,48
7560,note_on,,1,0,8,,,,,,,,,,,,,,,11,,,71,48
7560,note_on,,0,0,11,,,,,,,,,,,,,,,15,,,62,48
7560,note_on,,1,0,6,,,,,,,,,,,,,,,8,,,56,60
7619,note_on,,59,0,9,,,,,,,,,,,,,,,12,,,68,0
7619,note_on,,59,0,10,,,,,,,,,,,,,,,13,,,47,0
7619,note_on,,0,0,11,,,,,,,,,,,,,,,15,,,59,0
7619,note_on,,59,0,11,,,,,,,,,,,,,,,15,,,47,0
7619,note_on,,59,0,7,,,,,,,,,,,,,,,10,,,74,0
7619,note_on,,59,0,8,,,,,,,,,,,,,,,11,,,71,0
7620,note_on,,1,0,9,,,,,,,,,,,,,,,12,,,68,48
7620,note_on,,1,0,10,,,,,,,,,,,,,,,13,,,47,48
7620,note_on,,1,0,8,,,,,,,,,,,,,,,11,,,71,48
7620,note_on,,1,0,7,,,,,,,,,,,,,,,10,,,74,48
7620,note_on,,1,0,11,,,,,,,,,,,,,,,15,,,47,48
7620,note_on,,0,0,11,,,,,,,,,,,,,,,15,,,59,48
7679,note_on,,59,0,8,,,,,,,,,,,,,,,11,,,71,0
7679,note_on,,0,0,11,,,,,,,,,,,,,,,15,,,59,0
7679,note_on,,0,0,11,,,,,,,,,,,,,,,15,,,47,0
7679,note_on,,59,0,9,,,,,,,,,,,,,,,12,,,68,0
7679,note_on,,59,0,11,,,,,,,,,,,,,,,15,,,71,0
7679,note_on,,0,0,11,,,,,,,,,,,,,,,15,,,68,0
7679,note_on,,119,0,6,,,,,,,,,,,,,,,8,,,56,0
7679,note_on,,0,0,11,,,,,,,,,,,,,,,15,,,62,0
7679,note_on,,59,0,10,,,,,,,,,,,,,,,13,,,47,0
7679,note_on,,59,0,7,,,,,,,,,,,,,,,10,,,74,0
7680,note_on,,1,0,6,,,,,,,,,,,,,,,8,,,57,62
7680,note_on,,1,0,8,,,,,,,,,,,,,,,11,,,69,48
7680,note_on,,1,0,10,,,,,,,,,,,,,,,13,,,49,48
7680,note_on,,0,0,11,,,,,,,,,,,,,,,15,,,61,48
7680,note_on,,0,0,11,,,,,,,,,,,,,,,15,,,64,48
7680,note_on,,1,0,9,,,,,,,,,,,,,,,12,,,64,48
7680,note_on,,1,0,11,,,,,,,,,,,,,,,15,,,49,48
7680,note_on,,1,0,7,,,,,,,,,,,,,,,10,,,76,48
7680,note_on,,0,0,11,,,,,,,,,,,,,,,15,,,57,48
7739,note_on,,59,0,7,,,,,,,,,,,,,,,10,,,76,0
7739,note_on,,59,0,10,,,,,,,,,,,,,,,13,,,49,0
7739,note_on,,0,0,11,,,,,,,,,,,,,,,15,,,57,0
7739,note_on,,59,0,8,,,,,,,,,,,,,,,11,,,69,0
7739,note_on,,59,0,9,,,,,,,,,,,,,,,12,,,64,0
7739,note_on,,59,0,11,,,,,,,,,,,,,,,15,,,49,0
7740,note_on,,1,0,7,,,,,,,,,,,,,,,10,,,76,48
7740,note_on,,1,0,9,,,,,,,,,,,,,,,12,,,64,48
7740,note_on,,1,0,10,,,,,,,,,,,,,,,13,,,49,48
7740,note_on,,1,0,8,,,,,,,,,,,,,,,11,,,69,48
7740,note_on,,0,0,11,,,,,,,,,,,,,,,15,,,57,48
7740,note_on,,1,0,11,,,,,,,,,,,,,,,15,,,49,48
7799,note_on,,59,0,10,,,,,,,,,,,,,,,13,,,49,0
7799,note_on,,59,0,8,,,,,,,,,,,,,,,11,,,69,0
7799,note_on,,119,0,6,,,,,,,,,,,,,,,8,,,57,0
7799,note_on,,59,0,9,,,,,,,,,,,,,,,12,,,64,0
7799,note_on,,59,0,11,,,,,,,,,,,,,,,15,,,49,0
7799,note_on,,0,0,11,,,,,,,,,,,,,,,15,,,57,0
7799,note_on,,59,0,7,,,,,,,,,,,,,,,10,,,76,0
7800,note_on,,1,0,7,,,,,,,,,,,,,,,10,,,76,48
7800,note_on,,1,0,6,,,,,,,,,,,,,,,8,,,52,65
7800,note_on,,0,0,11,,,,,,,,,,,,,,,15,,,57,48
7800,note_on,,1,0,9,,,,,,,,,,,,,,,12,,,64,48
7800,note_on,,1,0,8,,,,,,,,,,,,,,,11,,,69,48
7800,note_on,,1,0,11,,,,,,,,,,,,,,,15,,,49,48
7800,note_on,,1,0,10,,,,,,,,,,,,,,,13,,,49,48
7859,note_on,,59,0,10,,,,,,,,,,,,,,,13,,,49,0
7859,note_on,,0,0,11,,,,,,,,,,,,,,,15,,,57,0
7859,note_on,,59,0,11,,,,,,,,,,,,,,,15,,,49,0
7859,note_on,,59,0,7,,,,,,,,,,,,,,,10,,,76,0
7859,note_on,,59,0,9,,,,,,,,,,,,,,,12,,,64,0
7859,note_on,,59,0,8,,,,,,,,,,,,,,,11,,,69,0
7860,note_on,,0,0,11,,,,,,,,,,,,,,,15,,,57,48
7860,note_on,,1,0,11,,,,,,,,,,,,,,,15,,,49,48
7860,note_on,,1,0,10,,,,,,,,,,,,,,,13,,,49,48
7860,note_on,,1,0,8,,,,,,,,,,,,,,,11,,,69,48
7860,note_on,,1,0,7,,,,,,,,,,,,,,,10,,,76,48
7860,note_on,,1,0,9,,,,,,,,,,,,,,,12,,,64,48
7919,note_on,,119,0,6,,,,,,,,,,,,,,,8,,,52,0
7919,note_on,,59,0,10,,,,,,,,,,,,,,,13,,,49,0
7919,note_on,,59,0,7,,,,,,,,,,,,,,,10,,,76,0
7919,note_on,,59,0,9,,,,,,,,,,,,,,,12,,,64,0
7919,note_on,,59,0,11,,,,,,,,,,,,,,,15,,,64,0
7919,note_on,,59,0,8,,,,,,,,,,,,,,,11,,,69,0
7919,note_on,,0,0,11,,,,,,,,,,,,,,,15,,,57,0
7919,note_on,,0,0,11,,,,,,,,,,,,,,,15,,,49,0
7919,note_on,,0,0,11,,,,,,,,,,,,,,,15,,,61,0
7920,note_on,,1,0,8,,,,,,,,,,,,,,,11,,,69,48
7920,note_on,,1,0,7,,,,,,,,,,,,,,,10,,,73,48
7920,note_on,,1,0,9,,,,,,,,,,,,,,,12,,,64,48
7920,note_on,,0,0,11,,,,,,,,,,,,,,,15,,,69,48
7920,note_on,,1,0,11,,,,,,,,,,,,,,,15,,,45,48
7920,note_on,,0,0,11,,,,,,,,,,,,,,,15,,,64,48
7920,note_on,,0,0,11,,,,,,,,,,,,,,,15,,,57,48
7920,note_on,,0,0,11,,,,,,,,,,,,,,,15,,,73,48
7920,note_on,,1,0,10,,,,,,,,,,,,,,,13,,,45,48
7979,note_on,,59,0,10,,,,,,,,,,,,,,,13,,,45,0
7979,note_on,,59,0,9,,,,,,,,,,,,,,,12,,,64,0
7979,note_on,,59,0,11,,,,,,,,,,,,,,,15,,,45,0
7979,note_on,,59,0,7,,,,,,,,,,,,,,,10,,,73,0
7979,note_on,,59,0,8,,,,,,,,,,,,,,,11,,,69,0
7979,note_on,,0,0,11,,,,,,,,,,,,,,,15,,,57,0
7980,note_on,,1,0,10,,,,,,,,,,,,,,,13,,,45,48
7980,note_on,,0,0,11,,,,,,,,,,,,,,,15,,,57,48
7980,note_on,,1,0,11,,,,,,,,,,,,,,,15,,,45,48
7980,note_on,,1,0,9,,,,,,,,,,,,,,,12,,,64,48
7980,note_on,,1,0,7,,,,,,,,,,,,,,,10,,,73,48
7980,note_on,,1,0,8,,,,,,,,,,,,,,,11,,,69,48
8039,note_on,,59,0,10,,,,,,,,,,,,,,,13,,,45,0
8039,note_on,,0,0,11,,,,,,,,,,,,,,,15,,,57,0
8039,note_on,,59,0,11,,,,,,,,,,,,,,,15,,,45,0
8039,note_on,,59,0,7,,,,,,,,,,,,,,,10,,,73,0
8039,note_on,,59,0,9,,,,,,,,,,,,,,,12,,,64,0
8039,note_on,,59,0,8,,,,,,,,,,,,,,,11,,,69,0
8040,note_on,,121,0,6,,,,,,,,,,,,,,,8,,,57,67
8040,note_on,,1,0,9,,,,,,,,,,,,,,,12,,,64,48
8040,note_on,,0,0,11,,,,,,,,,,,,,,,15,,,57,48
8040,note_on,,1,0,11,,,,,,,,,,,,,,,15,,,45,48
8040,note_on,,1,0,7,,,,,,,,,,,,,,,10,,,73,48
8040,note_on,,1,0,10,,,,,,,,,,,,,,,13,,,45,48
8040,note_on,,1,0,8,,,,,,,,,,,,,,,11,,,69,48
8099,note_on,,59,0,11,,,,,,,,,,,,,,,15,,,45,0
8099,note_on,,59,0,6,,,,,,,,,,,,,,,8,,,57,0
8099,note_on,,59,0,7,,,,,,,,,,,,,,,10,,,73,0
8099,note_on,,59,0,8,,,,,,,,,,,,,,,11,,,69,0
8099,note_on,,0,0,11,,,,,,,,,,,,,,,15,,,57,0
8099,note_on,,59,0,9,,,,,,,,,,,,,,,12,,,64,0
8099,note_on,,59,0,10,,,,,,,,,,,,,,,13,,,45,0
8100,note_on,,1,0,10,,,,,,,,,,,,,,,13,,,45,48
8100,note_on,,1,0,6,,,,,,,,,,,,,,,8,,,61,61
8100,note_on,,0,0,11,,,,,,,,,,,,,,,15,,,57,48
8100,note_on,,1,0,9,,,,,,,,,,,,,,,12,,,64,48
8100,note_on,,1,0,11,,,,,,,,,,,,,,,15,,,45,48
8100,note_on,,1,0,7,,,,,,,,,,,,,,,10,,,73,48
8100,note_on,,1,0,8,,,,,,,,,,,,,,,11,,,69,48
8159,note_on,,59,0,7,,,,,,,,,,,,,,,10,,,73,0
8159,note_on,,59,0,11,,,,,,,,,,,,,,,15,,,73,0
8159,note_on,,0,0,11,,,,,,,,,,,,,,,15,,,69,0
8159,note_on,,0,0,11,,,,,,,,,,,,,,,15,,,45,0
8159,note_on,,0,0,11,,,,,,,,,,,,,,,15,,,57,0
8159,note_on,,59,0,8,,,,,,,,,,,,,,,11,,,69,0
8159,note_on,,59,0,10,,,,,,,,,,,,,,,13,,,45,0
8159,note_on,,59,0,9,,,,,,,,,,,,,,,12,,,64,0
8159,note_on,,59,0,6,,,,,,,,,,,,,,,8,,,61,0
8159,note_on,,0,0,11,,,,,,,,,,,,,,,15,,,64,0
8160,note_on,,1,0,8,,,,,,,,,,,,,,,11,,,71,48
8160,note_on,,1,0,6,,,,,,,,,,,,,,,8,,,59,62
8160,note_on,,1,0,9,,,,,,,,,,,,,,,12,,,66,48
8160,note_on,,0,0,11,,,,,,,,,,,,,,,15,,,69,48
8160,note_on,,0,0,11,,,,,,,,,,,,,,,15,,,59,48
8160,note_on,,0,0,11,,,,,,,,,,,,,,,15,,,66,48
8160,note_on,,0,0,11,,,,,,,,,,,,,,,15,,,74,48
8160,note_on,,1,0,11,,,,,,,,,,,,,,,15,,,50,48
8160,note_on,,1,0,7,,,,,,,,,,,,,,,10,,,74,48
8160,note_on,,1,0,10,,,,,,,,,,,,,,,13,,,50,48
8219,note_on,,59,0,11,,,,,,,,,,,,,,,15,,,50,0
8219,note_on,,59,0,9,,,,,,,,,,,,,,,12,,,66,0
8219,note_on,,59,0,6,,,,,,,,,,,,,,,8,,,59,0
8219,note_on,,59,0,8,,,,,,,,,,,,,,,11,,,71,0
8219,note_on,,59,0,7,,,,,,,,,,,,,,,10,,,74,0
8219,note_on,,59,0,10,,,,,,,,,,,,,,,13,,,50,0
8219,note_on,,0,0,11,,,,,,,,,,,,,,,15,,,59,0
8220,note_on,,1,0,9,,,,,,,,,,,,,,,12,,,66,48
8220,note_on,,1,0,10,,,,,,,,,,,,,,,13,,,50,48
8220,note_on,,1,0,6,,,,,,,,,,,,,,,8,,,62,60
8220,note_on,,0,0,11,,,,,,,,,,,,,,,15,,,50,48
8220,note_on,,1,0,11,,,,,,,,,,,,,,,15,,,59,48
8220,note_on,,1,0,7,,,,,,,,,,,,,,,10,,,74,48
8220,note_on,,1,0,8,,,,,,,,,,,,,,,11,,,71,48
8249,note_on,,29,0,6,,,,,,,,,,,,,,,8,,,62,0
8250,note_on,,1,0,6,,,,,,,,,,,,,,,8,,,61,61
8279,note_on,,29,0,6,,,,,,,,,,,,,,,8,,,61,0
8279,note_on,,59,0,10,,,,,,,,,,,,,,,13,,,50,0
8279,note_on,,59,0,11,,,,,,,,,,,,,,,15,,,59,0
8279,note_on,,0,0,11,,,,,,,,,,,,,,,15,,,50,0
8279,note_on,,59,0,8,,,,,,,,,,,,,,,11,,,71,0
8279,note_on,,59,0,9,,,,,,,,,,,,,,,12,,,66,0
8279,note_on,,59,0,7,,,,,,,,,,,,,,,10,,,74,0
8280,note_on,,1,0,9,,,,,,,,,,,,,,,12,,,66,48
8280,note_on,,1,0,8,,,,,,,,,,,,,,,11,,,71,48
8280,note_on,,1,0,7,,,,,,,,,,,,,,,10,,,74,48
8280,note_on,,1,0,11,,,,,,,,,,,,,,,15,,,50,48
8280,note_on,,0,0,11,,,,,,,,,,,,,,,15,,,59,48
8280,note_on,,1,0,10,,,,,,,,,,,,,,,13,,,50,48
8280,note_on,,1,0,6,,,,,,,,,,,,,,,8,,,59,61
8309,note_on,,29,0,6,,,,,,,,,,,,,,,8,,,59,0
8310,note_on,,1,0,6,,,,,,,,,,,,,,,8,,,57,63
8339,note_on,,59,0,10,,,,,,,,,,,,,,,13,,,50,0
8339,note_on,,59,0,9,,,,,,,,,,,,,,,12,,,66,0
8339,note_on,,59,0,7,,,,,,,,,,,,,,,10,,,74,0
8339,note_on,,59,0,8,,,,,,,,,,,,,,,11,,,71,0
8339,note_on,,59,0,11,,,,,,,,,,,,,,,15,,,50,0
8339,note_on,,29,0,6,,,,,,,,,,,,,,,8,,,57,0
8339,note_on,,0,0,11,,,,,,,,,,,,,,,15,,,59,0
8340,note_on,,1,0,7,,,,,,,,,,,,,,,10,,,74,48
8340,note_on,,1,0,11,,,,,,,,,,,,,,,15,,,50,48
8340,note_on,,1,0,10,,,,,,,,,,,,,,,13,,,50,48
8340,note_on,,1,0,8,,,,,,,,,,,,,,,11,,,71,48
8340,note_on,,0,0,11,,,,,,,,,,,,,,,15,,,59,48
8340,note_on,,1,0,9,,,,,,,,,,,,,,,12,,,66,48
8340,note_on,,1,0,6,,,,,,,,,,,,,,,8,,,56,67
8369,note_on,,29,0,6,,,,,,,,,,,,,,,8,,,56,0
8370,note_on,,1,0,6,,,,,,,,,,,,,,,8,,,54,64
8399,note_on,,59,0,10,,,,,,,,,,,,,,,13,,,50,0
8399,note_on,,29,0,6,,,,,,,,,,,,,,,8,,,54,0
8399,note_on,,0,0,11,,,,,,,,,,,,,,,15,,,50,0
8399,note_on,,0,0,11,,,,,,,,,,,,,,,15,,,59,0
8399,note_on,,59,0,7,,,,,,,,,,,,,,,10,,,74,0
8399,note_on,,59,0,8,,,,,,,,,,,,,,,11,,,71,0
8399,note_on,,59,0,11,,,,,,,,,,,,,,,15,,,74,0
8399,note_on,,0,0,11,,,,,,,,,,,,,,,15,,,69,0
8399,note_on,,0,0,11,,,,,,,,,,,,,,,15,,,66,0
8399,note_on,,59,0,9,,,,,,,,,,,,,,,12,,,66,0
8400,note_on,,1,0,7,,,,,,,,,,,,,,,10,,,76,48
8400,note_on,,1,0,8,,,,,,,,,,,,,,,11,,,71,48
8400,note_on,,1,0,6,,,,,,,,,,,,,,,8,,,52,65
8400,note_on,,1,0,9,,,,,,,,,,,,,,,12,,,68,48
8400,note_on,,0,0,11,,,,,,,,,,,,,,,15,,,71,48
8400,note_on,,0,0,11,,,,,,,,,,,,,,,15,,,68,48
8400,note_on,,0,0,11,,,,,,,,,,,,,,,15,,,64,48
8400,note_on,,0,0,11,,,,,,,,,,,,,,,15,,,59,48
8400,note_on,,1,0,10,,,,,,,,,,,,,,,13,,,50,48
8400,note_on,,1,0,11,,,,,,,,,,,,,,,15,,,50,48
8459,note_on,,59,0,11,,,,,,,,,,,,,,,15,,,50,0
8459,note_on,,0,0,11,,,,,,,,,,,,,,,15,,,59,0
8459,note_on,,59,0,10,,,,,,,,,,,,,,,13,,,50,0
8459,note_on,,59,0,8,,,,,,,,,,,,,,,11,,,71,0
8459,note_on,,59,0,9,,,,,,,,,,,,,,,12,,,68,0
8459,note_on,,59,0,6,,,,,,,,,,,,,,,8,,,52,0
8459,note_on,,59,0,7,,,,,,,,,,,,,,,10,,,76,0
8460,note_on,,0,0,11,,,,,,,,,,,,,,,15,,,59,48
8460,note_on,,1,0,9,,,,,,,,,,,,,,,12,,,68,48
8460,note_on,,1,0,6,,,,,,,,,,,,,,,8,,,56,61
8460,note_on,,1,0,8,,,,,,,,,,,,,,,11,,,71,48
8460,note_on,,1,0,10,,,,,,,,,,,,,,,13,,,50,48
8460,note_on,,1,0,7,,,,,,,,,,,,,,,10,,,76,48
8460,note_on,,1,0,11,,,,,,,,,,,,,,,15,,,50,48
8519,note_on,,0,0,11,,,,,,,,,,,,,,,15,,,50,0
8519,note_on,,0,0,11,,,,,,,,,,,,,,,15,,,59,0
8519,note_on,,59,0,6,,,,,,,,,,,,,,,8,,,56,0
8519,note_on,,59,0,8,,,,,,,,,,,,,,,11,,,71,0
8519,note_on,,59,0,11,,,,,,,,,,,,,,,15,,,71,0
8519,note_on,,0,0,11,,,,,,,,,,,,,,,15,,,64,0
8519,note_on,,59,0,10,,,,,,,,,,,,,,,13,,,50,0
8519,note_on,,0,0,11,,,,,,,,,,,,,,,15,,,68,0
8519,note_on,,59,0,7,,,,,,,,,,,,,,,10,,,76,0
8519,note_on,,59,0,9,,,,,,,,,,,,,,,12,,,68,0
8520,note_on,,0,0,11,,,,,,,,,,,,,,,15,,,64,48
8520,note_on,,1,0,7,,,,,,,,,,,,,,,10,,,76,48
8520,note_on,,1,0,11,,,,,,,,,,,,,,,15,,,49,48
8520,note_on,,0,0,11,,,,,,,,,,,,,,,15,,,76,48
8520,note_on,,1,0,9,,,,,,,,,,,,,,,12,,,64,48
8520,note_on,,1,0,6,,,,,,,,,,,,,,,8,,,57,64
8520,note_on,,1,0,10,,,,,,,,,,,,,,,13,,,49,48
8520,note_on,,0,0,11,,,,,,,,,,,,,,,15,,,69,48
8520,note_on,,0,0,11,,,,,,,,,,,,,,,15,,,57,48
8520,note_on,,1,0,8,,,,,,,,,,,,,,,11,,,69,48
8579,note_on,,0,0,11,,,,,,,,,,,,,,,15,,,76,0
8579,note_on,,0,0,11,,,,,,,,,,,,,,,15,,,69,0
8579,note_on,,0,0,11,,,,,,,,,,,,,,,15,,,64,0
8579,note_on,,0,0,11,,,,,,,,,,,,,,,15,,,57,0
8579,note_on,,59,0,9,,,,,,,,,,,,,,,12,,,64,0
8579,note_on,,59,0,10,,,,,,,,,,,,,,,13,,,49,0
8579,note_on,,59,0,8,,,,,,,,,,,,,,,11,,,69,0
8579,note_on,,59,0,11,,,,,,,,,,,,,,,15,,,49,0
8579,note_on,,59,0,7,,,,,,,,,,,,,,,10,,,76,0
8579,note_on,,59,0,6,,,,,,,,,,,,,,,8,,,57,0
8580,note_on,,1,0,9,,,,,,,,,,,,,,,12,,,66,48
8580,note_on,,1,0,6,,,,,,,,,,,,,,,8,,,50,63
8580,note_on,,1,0,11,,,,,,,,,,,,,,,15,,,50,48
8580,note_on,,0,0,11,,,,,,,,,,,,,,,15,,,78,48
8580,note_on,,0,0,11,,,,,,,,,,,,,,,15,,,69,48
8580,note_on,,0,0,11,,,,,,,,,,,,,,,15,,,74,48
8580,note_on,,0,0,11,,,,,,,,,,,,,,,15,,,57,48
8580,note_on,,1,0,8,,,,,,,,,,,,,,,11,,,69,48
8580,note_on,,1,0,10,,,,,,,,,,,,,,,13,,,50,48
8580,note_on,,1,0,7,,,,,,,,,,,,,,,10,,,74,48
8639,note_on,,0,0,11,,,,,,,,,,,,,,,15,,,69,0
8639,note_on,,0,0,11,,,,,,,,,,,,,,,15,,,74,0
8639,note_on,,59,0,10,,,,,,,,,,,,,,,13,,,50,0
8639,note_on,,59,0,9,,,,,,,,,,,,,,,12,,,66,0
8639,note_on,,59,0,6,,,,,,,,,,,,,,,8,,,50,0
8639,note_on,,0,0,11,,,,,,,,,,,,,,,15,,,78,0
8639,note_on,,59,0,11,,,,,,,,,,,,,,,15,,,50,0
8639,note_on,,0,0,11,,,,,,,,,,,,,,,15,,,57,0
8639,note_on,,59,0,7,,,,,,,,,,,,,,,10,,,74,0
8639,note_on,,59,0,8,,,,,,,,,,,,,,,11,,,69,0
8640,note_on,,1,0,8,,,,,,,,,,,,,,,11,,,69,48
8640,note_on,,1,0,9,,,,,,,,,,,,,,,12,,,64,48
8640,note_on,,1,0,10,,,,,,,,,,,,,,,13,,,52,48
8640,note_on,,0,0,11,,,,,,,,,,,,,,,15,,,64,48
8640,note_on,,0,0,11,,,,,,,,,,,,,,,15,,,69,48
8640,note_on,,0,0,11,,,,,,,,,,,,,,,15,,,57,48
8640,note_on,,1,0,11,,,,,,,,,,,,,,,15,,,52,48
8640,note_on,,1,0,7,,,,,,,,,,,,,,,10,,,73,48
8640,note_on,,0,0,11,,,,,,,,,,,,,,,15,,,61,48
8640,note_on,,1,0,6,,,,,,,,,,,,,,,8,,,52,65
8699,note_on,,59,0,9,,,,,,,,,,,,,,,12,,,64,0
8699,note_on,,59,0,10,,,,,,,,,,,,,,,13,,,52,0
8699,note_on,,59,0,11,,,,,,,,,,,,,,,15,,,52,0
8700,note_on,,1,0,10,,,,,,,,,,,,,,,13,,,52,48
8700,note_on,,1,0,9,,,,,,,,,,,,,,,12,,,64,48
8700,note_on,,1,0,11,,,,,,,,,,,,,,,15,,,52,48
8759,note_on,,0,0,11,,,,,,,,,,,,,,,15,,,64,0
8759,note_on,,59,0,9,,,,,,,,,,,,,,,12,,,64,0
8759,note_on,,0,0,11,,,,,,,,,,,,,,,15,,,61,0
8759,note_on,,119,0,8,,,,,,,,,,,,,,,11,,,69,0
8759,note_on,,59,0,10,,,,,,,,,,,,,,,13,,,52,0
8759,note_on,,59,0,11,,,,,,,,,,,,,,,15,,,57,0
8759,note_on,,0,0,11,,,,,,,,,,,,,,,15,,,69,0
8759,note_on,,119,0,7,,,,,,,,,,,,,,,10,,,73,0
8759,note_on,,0,0,11,,,,,,,,,,,,,,,15,,,52,0
8760,note_on,,1,0,7,,,,,,,,,,,,,,,10,,,71,48
8760,note_on,,0,0,11,,,,,,,,,,,,,,,15,,,68,48
8760,note_on,,1,0,11,,,,,,,,,,,,,,,15,,,52,48
8760,note_on,,1,0,9,,,,,,,,,,,,,,,12,,,64,48
8760,note_on,,1,0,8,,,,,,,,,,,,,,,11,,,68,48
8760,note_on,,0,0,11,,,,,,,,,,,,,,,15,,,59,48
8760,note_on,,0,0,11,,,,,,,,,,,,,,,15,,,64,48
8760,note_on,,1,0,10,,,,,,,,,,,,,,,13,,,52,48
8774,note_on,,14,0,7,,,,,,,,,,,,,,,10,,,71,0
8774,note_on,,14,0,8,,,,,,,,,,,,,,,11,,,68,0
8775,note_on,,1,0,8,,,,,,,,,,,,,,,11,,,69,48
8775,note_on,,1,0,7,,,,,,,,,,,,,,,10,,,73,48
8789,note_on,,14,0,7,,,,,,,,,,,,,,,10,,,73,0
8789,note_on,,14,0,8,,,,,,,,,,,,,,,11,,,69,0
8790,note_on,,1,0,7,,,,,,,,,,,,,,,10,,,71,48
8790,note_on,,1,0,8,,,,,,,,,,,,,,,11,,,68,48
8804,note_on,,14,0,7,,,,,,,,,,,,,,,10,,,71,0
8804,note_on,,14,0,8,,,,,,,,,,,,,,,11,,,68,0
8805,note_on,,1,0,7,,,,,,,,,,,,,,,10,,,73,48
8805,note_on,,1,0,8,,,,,,,,,,,,,,,11,,,69,48
8819,note_on,,59,0,10,,,,,,,,,,,,,,,13,,,52,0
8819,note_on,,59,0,11,,,,,,,,,,,,,,,15,,,52,0
8819,note_on,,59,0,9,,,,,,,,,,,,,,,12,,,64,0
8819,note_on,,14,0,7,,,,,,,,,,,,,,,10,,,73,0
8819,note_on,,14,0,8,,,,,,,,,,,,,,,11,,,69,0
8819,note_on,,179,0,6,,,,,,,,,,,,,,,8,,,52,0
8820,note_on,,1,0,11,,,,,,,,,,,,,,,15,,,52,48
8820,note_on,,1,0,7,,,,,,,,,,,,,,,10,,,69,48
8820,note_on,,1,0,9,,,,,,,,,,,,,,,12,,,62,48
8820,note_on,,1,0,6,,,,,,,,,,,,,,,8,,,52,60
8820,note_on,,1,0,8,,,,,,,,,,,,,,,11,,,66,48
8820,note_on,,1,0,10,,,,,,,,,,,,,,,13,,,52,48
8834,note_on,,14,0,7,,,,,,,,,,,,,,,10,,,69,0
8834,note_on,,14,0,8,,,,,,,,,,,,,,,11,,,66,0
8835,note_on,,1,0,7,,,,,,,,,,,,,,,10,,,71,48
8835,note_on,,1,0,8,,,,,,,,,,,,,,,11,,,68,48
8849,note_on,,14,0,7,,,,,,,,,,,,,,,10,,,71,0
8849,note_on,,14,0,8,,,,,,,,,,,,,,,11,,,68,0
8850,note_on,,1,0,8,,,,,,,,,,,,,,,11,,,69,48
8850,note_on,,1,0,7,,,,,,,,,,,,,,,10,,,69,48
8879,note_on,,59,0,10,,,,,,,,,,,,,,,13,,,52,0
8879,note_on,,59,0,9,,,,,,,,,,,,,,,12,,,62,0
8879,note_on,,29,0,8,,,,,,,,,,,,,,,11,,,69,0
8879,note_on,,0,0,11,,,,,,,,,,,,,,,15,,,52,0
8879,note_on,,0,0,11,,,,,,,,,,,,,,,15,,,59,0
8879,note_on,,59,0,11,,,,,,,,,,,,,,,15,,,68,0
8879,note_on,,0,0,11,,,,,,,,,,,,,,,15,,,64,0
8879,note_on,,29,0,7,,,,,,,,,,,,,,,10,,,69,0
8879,note_on,,59,0,6,,,,,,,,,,,,,,,8,,,52,0
8880,note_on,,1,0,10,,,,,,,,,,,,,,,13,,,45,48
8880,note_on,,1,0,8,,,,,,,,,,,,,,,11,,,64,48
8880,note_on,,1,0,9,,,,,,,,,,,,,,,12,,,61,48
8880,note_on,,1,0,6,,,,,,,,,,,,,,,8,,,45,66
8880,note_on,,0,0,11,,,,,,,,,,,,,,,15,,,52,48
8880,note_on,,0,0,11,,,,,,,,,,,,,,,15,,,61,48
8880,note_on,,0,0,11,,,,,,,,,,,,,,,15,,,64,48
8880,note_on,,0,0,11,,,,,,,,,,,,,,,15,,,69,48
8880,note_on,,1,0,11,,,,,,,,,,,,,,,15,,,45,48
8880,note_on,,1,0,7,,,,,,,,,,,,,,,10,,,69,48
8939,note_on,,59,0,9,,,,,,,,,,,,,,,12,,,61,0
8939,note_on,,59,0,8,,,,,,,,,,,,,,,11,,,64,0
8939,note_on,,0,0,11,,,,,,,,,,,,,,,15,,,52,0
8939,note_on,,59,0,11,,,,,,,,,,,,,,,15,,,45,0
8939,note_on,,59,0,10,,,,,,,,,,,,,,,13,,,45,0
8939,note_on,,59,0,7,,,,,,,,,,,,,,,10,,,69,0
8940,note_on,,1,0,9,,,,,,,,,,,,,,,12,,,61,48
8940,note_on,,1,0,11,,,,,,,,,,,,,,,15,,,45,48
8940,note_on,,1,0,10,,,,,,,,,,,,,,,13,,,45,48
8940,note_on,,0,0,11,,,,,,,,,,,,,,,15,,,52,48
8940,note_on,,1,0,8,,,,,,,,,,,,,,,11,,,64,48
8940,note_on,,1,0,7,,,,,,,,,,,,,,,10,,,69,48
8999,note_on,,0,0,11,,,,,,,,,,,,,,,15,,,52,0
8999,note_on,,59,0,10,,,,,,,,,,,,,,,13,,,45,0
8999,note_on,,59,0,11,,,,,,,,,,,,,,,15,,,45,0
8999,note_on,,119,0,6,,,,,,,,,,,,,,,8,,,45,0
8999,note_on,,59,0,8,,,,,,,,,,,,,,,11,,,64,0
8999,note_on,,59,0,9,,,,,,,,,,,,,,,12,,,61,0
8999,note_on,,59,0,7,,,,,,,,,,,,,,,10,,,69,0
9000,note_on,,1,0,6,,,,,,,,,,,,,,,8,,,45,67
9000,note_on,,1,0,8,,,,,,,,,,,,,,,11,,,64,48
9000,note_on,,1,0,9,,,,,,,,,,,,,,,12,,,61,48
9000,note_on,,1,0,7,,,,,,,,,,,,,,,10,,,69,48
9000,note_on,,1,0,10,,,,,,,,,,,,,,,13,,,45,48
9000,note_on,,1,0,11,,,,,,,,,,,,,,,15,,,45,48
9000,note_on,,0,0,11,,,,,,,,,,,,,,,15,,,52,48
9059,note_on,,59,0,11,,,,,,,,,,,,,,,15,,,45,0
9059,note_on,,59,0,8,,,,,,,,,,,,,,,11,,,64,0
9059,note_on,,0,0,11,,,,,,,,,,,,,,,15,,,52,0
9059,note_on,,59,0,10,,,,,,,,,,,,,,,13,,,45,0
9059,note_on,,59,0,9,,,,,,,,,,,,,,,12,,,61,0
9059,note_on,,59,0,7,,,,,,,,,,,,,,,10,,,69,0
9060,note_on,,0,0,11,,,,,,,,,,,,,,,15,,,52,48
9060,note_on,,1,0,7,,,,,,,,,,,,,,,10,,,69,48
9060,note_on,,1,0,8,,,,,,,,,,,,,,,11,,,64,48
9060,note_on,,1,0,11,,,,,,,,,,,,,,,15,,,45,48
9060,note_on,,1,0,9,,,,,,,,,,,,,,,12,,,61,48
9060,note_on,,1,0,10,,,,,,,,,,,,,,,13,,,45,48
9119,note_on,,59,0,7,,,,,,,,,,,,,,,10,,,69,0
9119,note_on,,59,0,8,,,,,,,,,,,,,,,11,,,64,0
9119,note_on,,59,0,10,,,,,,,,,,,,,,,13,,,45,0
9119,note_on,,0,0,11,,,,,,,,,,,,,,,15,,,61,0
9119,note_on,,59,0,11,,,,,,,,,,,,,,,15,,,69,0
9119,note_on,,0,0,11,,,,,,,,,,,,,,,15,,,45,0
9119,note_on,,0,0,11,,,,,,,,,,,,,,,15,,,52,0
9119,note_on,,0,0,11,,,,,,,,,,,,,,,15,,,64,0
9119,note_on,,119,0,6,,,,,,,,,,,,,,,8,,,45,0
9119,note_on,,59,0,9,,,,,,,,,,,,,,,12,,,61,0
9120,note_on,,0,0,11,,,,,,,,,,,,,,,15,,,66,48
9120,note_on,,0,0,11,,,,,,,,,,,,,,,15,,,69,48
9120,note_on,,0,0,11,,,,,,,,,,,,,,,15,,,73,48
9120,note_on,,1,0,10,,,,,,,,,,,,,,,13,,,42,48
9120,note_on,,1,0,9,,,,,,,,,,,,,,,12,,,66,48
9120,note_on,,0,0,11,,,,,,,,,,,,,,,15,,,54,48
9120,note_on,,1,0,8,,,,,,,,,,,,,,,11,,,69,48
9120,note_on,,1,0,7,,,,,,,,,,,,,,,10,,,73,48
9120,note_on,,1,0,11,,,,,,,,,,,,,,,15,,,42,48
9179,note_on,,59,0,9,,,,,,,,,,,,,,,12,,,66,0
9179,note_on,,59,0,11,,,,,,,,,,,,,,,15,,,42,0
9179,note_on,,59,0,8,,,,,,,,,,,,,,,11,,,69,0
9179,note_on,,59,0,10,,,,,,,,,,,,,,,13,,,42,0
9179,note_on,,59,0,7,,,,,,,,,,,,,,,10,,,73,0
9180,note_on,,1,0,10,,,,,,,,,,,,,,,13,,,42,48
9180,note_on,,1,0,7,,,,,,,,,,,,,,,10,,,73,48
9180,note_on,,1,0,8,,,,,,,,,,,,,,,11,,,69,48
9180,note_on,,1,0,9,,,,,,,,,,,,,,,12,,,66,48
9180,note_on,,1,0,11,,,,,,,,,,,,,,,15,,,42,48
9239,note_on,,59,0,7,,,,,,,,,,,,,,,10,,,73,0
9239,note_on,,0,0,11,,,,,,,,,,,,,,,15,,,42,0
9239,note_on,,59,0,8,,,,,,,,,,,,,,,11,,,69,0
9239,note_on,,0,0,11,,,,,,,,,,,,,,,15,,,66,0
9239,note_on,,0,0,11,,,,,,,,,,,,,,,15,,,69,0
9239,note_on,,0,0,11,,,,,,,,,,,,,,,15,,,73,0
9239,note_on,,59,0,10,,,,,,,,,,,,,,,13,,,42,0
9239,note_on,,59,0,11,,,,,,,,,,,,,,,15,,,54,0
9239,note_on,,59,0,9,,,,,,,,,,,,,,,12,,,66,0
9240,note_on,,1,0,8,,,,,,,,,,,,,,,11,,,69,48
9240,note_on,,0,0,11,,,,,,,,,,,,,,,15,,,66,48
9240,note_on,,0,0,11,,,,,,,,,,,,,,,15,,,69,48
9240,note_on,,1,0,9,,,,,,,,,,,,,,,12,,,66,48
9240,note_on,,1,0,11,,,,,,,,,,,,,,,15,,,42,48
9240,note_on,,121,0,6,,,,,,,,,,,,,,,8,,,57,64
9240,note_on,,1,0,10,,,,,,,,,,,,,,,13,,,42,48
9240,note_on,,0,0,11,,,,,,,,,,,,,,,15,,,61,48
9240,note_on,,1,0,7,,,,,,,,,,,,,,,10,,,73,48
9299,note_on,,59,0,8,,,,,,,,,,,,,,,11,,,69,0
9299,note_on,,59,0,7,,,,,,,,,,,,,,,10,,,73,0
9299,note_on,,59,0,11,,,,,,,,,,,,,,,15,,,42,0
9299,note_on,,59,0,6,,,,,,,,,,,,,,,8,,,57,0
9299,note_on,,59,0,9,,,,,,,,,,,,,,,12,,,66,0
9299,note_on,,59,0,10,,,,,,,,,,,,,,,13,,,42,0
9300,note_on,,1,0,10,,,,,,,,,,,,,,,13,,,42,48
9300,note_on,,1,0,11,,,,,,,,,,,,,,,15,,,42,48
9300,note_on,,1,0,6,,,,,,,,,,,,,,,8,,,57,62
9300,note_on,,1,0,9,,,,,,,,,,,,,,,12,,,66,48
9300,note_on,,1,0,8,,,,,,,,,,,,,,,11,,,69,48
9300,note_on,,1,0,7,,,,,,,,,,,,,,,10,,,73,48
9359,note_on,,59,0,11,,,,,,,,,,,,,,,15,,,61,0
9359,note_on,,0,0,11,,,,,,,,,,,,,,,15,,,69,0
9359,note_on,,0,0,11,,,,,,,,,,,,,,,15,,,66,0
9359,note_on,,0,0,11,,,,,,,,,,,,,,,15,,,42,0
9359,note_on,,59,0,9,,,,,,,,,,,,,,,12,,,66,0
9359,note_on,,59,0,7,,,,,,,,,,,,,,,10,,,73,0
9359,note_on,,59,0,8,,,,,,,,,,,,,,,11,,,69,0
9359,note_on,,59,0,10,,,,,,,,,,,,,,,13,,,42,0
9359,note_on,,59,0,6,,,,,,,,,,,,,,,8,,,57,0
9360,note_on,,0,0,11,,,,,,,,,,,,,,,15,,,62,48
9360,note_on,,1,0,6,,,,,,,,,,,,,,,8,,,57,60
9360,note_on,,1,0,11,,,,,,,,,,,,,,,15,,,47,48
9360,note_on,,0,0,11,,,,,,,,,,,,,,,15,,,74,48
9360,note_on,,0,0,11,,,,,,,,,,,,,,,15,,,66,48
9360,note_on,,1,0,7,,,,,,,,,,,,,,,10,,,73,48
9360,note_on,,1,0,8,,,,,,,,,,,,,,,11,,,66,48
9360,note_on,,1,0,9,,,,,,,,,,,,,,,12,,,62,48
9360,note_on,,1,0,10,,,,,,,,,,,,,,,13,,,47,48
9419,note_on,,59,0,6,,,,,,,,,,,,,,,8,,,57,0
9419,note_on,,59,0,10,,,,,,,,,,,,,,,13,,,47,0
9419,note_on,,59,0,9,,,,,,,,,,,,,,,12,,,62,0
9419,note_on,,59,0,8,,,,,,,,,,,,,,,11,,,66,0
9419,note_on,,59,0,11,,,,,,,,,,,,,,,15,,,47,0
9419,note_on,,59,0,7,,,,,,,,,,,,,,,10,,,73,0
9420,note_on,,1,0,6,,,,,,,,,,,,,,,8,,,56,64
9420,note_on,,1,0,8,,,,,,,,,,,,,,,11,,,68,48
9420,note_on,,1,0,9,,,,,,,,,,,,,,,12,,,62,48
9420,note_on,,1,0,7,,,,,,,,,,,,,,,10,,,71,48
9420,note_on,,1,0,10,,,,,,,,,,,,,,,13,,,47,48
9420,note_on,,1,0,11,,,,,,,,,,,,,,,15,,,47,48
9479,note_on,,59,0,11,,,,,,,,,,,,,,,15,,,66,0
9479,note_on,,0,0,11,,,,,,,,,,,,,,,15,,,62,0
9479,note_on,,0,0,11,,,,,,,,,,,,,,,15,,,47,0
9479,note_on,,59,0,9,,,,,,,,,,,,,,,12,,,62,0
9479,note_on,,59,0,7,,,,,,,,,,,,,,,10,,,71,0
9479,note_on,,59,0,10,,,,,,,,,,,,,,,13,,,47,0
9479,note_on,,59,0,8,,,,,,,,,,,,,,,11,,,68,0
9480,note_on,,1,0,9,,,,,,,,,,,,,,,12,,,62,48
9480,note_on,,1,0,10,,,,,,,,,,,,,,,13,,,47,48
9480,note_on,,1,0,8,,,,,,,,,,,,,,,11,,,68,48
9480,note_on,,1,0,7,,,,,,,,,,,,,,,10,,,71,48
9480,note_on,,0,0,11,,,,,,,,,,,,,,,15,,,62,48
9480,note_on,,0,0,11,,,,,,,,,,,,,,,15,,,71,48
9480,note_on,,1,0,11,,,,,,,,,,,,,,,15,,,47,48
9539,note_on,,59,0,8,,,,,,,,,,,,,,,11,,,68,0
9539,note_on,,59,0,11,,,,,,,,,,,,,,,15,,,47,0
9539,note_on,,59,0,10,,,,,,,,,,,,,,,13,,,47,0
9539,note_on,,59,0,7,,,,,,,,,,,,,,,10,,,71,0
9539,note_on,,119,0,6,,,,,,,,,,,,,,,8,,,56,0
9539,note_on,,59,0,9,,,,,,,,,,,,,,,12,,,62,0
9540,note_on,,1,0,8,,,,,,,,,,,,,,,11,,,66,48
9540,note_on,,1,0,10,,,,,,,,,,,,,,,13,,,47,48
9540,note_on,,1,0,11,,,,,,,,,,,,,,,15,,,47,48
9540,note_on,,1,0,7,,,,,,,,,,,,,,,10,,,73,48
9540,note_on,,1,0,6,,,,,,,,,,,,,,,8,,,57,65
9540,note_on,,1,0,9,,,,,,,,,,,,,,,12,,,61,48
9599,note_on,,0,0,11,,,,,,,,,,,,,,,15,,,47,0
9599,note_on,,0,0,11,,,,,,,,,,,,,,,15,,,62,0
9599,note_on,,59,0,11,,,,,,,,,,,,,,,15,,,74,0
9599,note_on,,0,0,11,,,,,,,,,,,,,,,15,,,71,0
9599,note_on,,59,0,9,,,,,,,,,,,,,,,12,,,61,0
9599,note_on,,59,0,8,,,,,,,,,,,,,,,11,,,66,0
9599,note_on,,59,0,6,,,,,,,,,,,,,,,8,,,57,0
9599,note_on,,59,0,7,,,,,,,,,,,,,,,10,,,73,0
9599,note_on,,59,0,10,,,,,,,,,,,,,,,13,,,47,0
9600,note_on,,1,0,7,,,,,,,,,,,,,,,10,,,74,48
9600,note_on,,1,0,6,,,,,,,,,,,,,,,8,,,59,64
9600,note_on,,1,0,10,,,,,,,,,,,,,,,13,,,47,48
9600,note_on,,1,0,11,,,,,,,,,,,,,,,15,,,47,48
9600,note_on,,0,0,11,,,,,,,,,,,,,,,15,,,66,48
9600,note_on,,1,0,8,,,,,,,,,,,,,,,11,,,66,48
9600,note_on,,0,0,11,,,,,,,,,,,,,,,15,,,59,48
9600,note_on,,0,0,11,,,,,,,,,,,,,,,15,,,62,48
9600,note_on,,1,0,9,,,,,,,,,,,,,,,12,,,59,48
9659,note_on,,59,0,11,,,,,,,,,,,,,,,15,,,47,0
9659,note_on,,59,0,8,,,,,,,,,,,,,,,11,,,66,0
9659,note_on,,59,0,10,,,,,,,,,,,,,,,13,,,47,0
9659,note_on,,59,0,7,,,,,,,,,,,,,,,10,,,74,0
9659,note_on,,59,0,9,,,,,,,,,,,,,,,12,,,59,0
9660,note_on,,1,0,11,,,,,,,,,,,,,,,15,,,47,48
9660,note_on,,1,0,8,,,,,,,,,,,,,,,11,,,66,48
9660,note_on,,1,0,10,,,,,,,,,,,,,,,13,,,47,48
9660,note_on,,1,0,9,,,,,,,,,,,,,,,12,,,59,48
9660,note_on,,1,0,7,,,,,,,,,,,,,,,10,,,74,48
9719,note_on,,59,0,11,,,,,,,,,,,,,,,15,,,66,0
9719,note_on,,59,0,9,,,,,,,,,,,,,,,12,,,59,0
9719,note_on,,59,0,7,,,,,,,,,,,,,,,10,,,74,0
9719,note_on,,0,0,11,,,,,,,,,,,,,,,15,,,62,0
9719,note_on,,59,0,10,,,,,,,,,,,,,,,13,,,47,0
9719,note_on,,0,0,11,,,,,,,,,,,,,,,15,,,47,0
9719,note_on,,0,0,11,,,,,,,,,,,,,,,15,,,59,0
9719,note_on,,119,0,6,,,,,,,,,,,,,,,8,,,59,0
9719,note_on,,59,0,8,,,,,,,,,,,,,,,11,,,66,0
9720,note_on,,1,0,7,,,,,,,,,,,,,,,10,,,74,48
9720,note_on,,1,0,9,,,,,,,,,,,,,,,12,,,59,48
9720,note_on,,1,0,10,,,,,,,,,,,,,,,13,,,47,48
9720,note_on,,1,0,8,,,,,,,,,,,,,,,11,,,68,48
9720,note_on,,0,0,11,,,,,,,,,,,,,,,15,,,54,48
9720,note_on,,0,0,11,,,,,,,,,,,,,,,15,,,62,48
9720,note_on,,1,0,11,,,,,,,,,,,,,,,15,,,47,48
9720,note_on,,0,0,11,,,,,,,,,,,,,,,15,,,59,48
9720,note_on,,1,0,6,,,,,,,,,,,,,,,8,,,56,65
9779,note_on,,59,0,7,,,,,,,,,,,,,,,10,,,74,0
9779,note_on,,59,0,9,,,,,,,,,,,,,,,12,,,59,0
9779,note_on,,59,0,11,,,,,,,,,,,,,,,15,,,47,0
9779,note_on,,59,0,8,,,,,,,,,,,,,,,11,,,68,0
9779,note_on,,59,0,6,,,,,,,,,,,,,,,8,,,56,0
9779,note_on,,59,0,10,,,,,,,,,,,,,,,13,,,47,0
9780,note_on,,1,0,6,,,,,,,,,,,,,,,8,,,54,64
9780,note_on,,1,0,11,,,,,,,,,,,,,,,15,,,47,48
9780,note_on,,1,0,10,,,,,,,,,,,,,,,13,,,47,48
9780,note_on,,1,0,8,,,,,,,,,,,,,,,11,,,68,48
9780,note_on,,1,0,7,,,,,,,,,,,,,,,10,,,74,48
9780,note_on,,1,0,9,,,,,,,,,,,,,,,12,,,59,48
9839,note_on,,59,0,10,,,,,,,,,,,,,,,13,,,47,0
9839,note_on,,0,0,11,,,,,,,,,,,,,,,15,,,54,0
9839,note_on,,59,0,6,,,,,,,,,,,,,,,8,,,54,0
9839,note_on,,59,0,7,,,,,,,,,,,,,,,10,,,74,0
9839,note_on,,59,0,11,,,,,,,,,,,,,,,15,,,62,0
9839,note_on,,0,0,11,,,,,,,,,,,,,,,15,,,59,0
9839,note_on,,59,0,9,,,,,,,,,,,,,,,12,,,59,0
9839,note_on,,0,0,11,,,,,,,,,,,,,,,15,,,47,0
9839,note_on,,59,0,8,,,,,,,,,,,,,,,11,,,68,0
9840,note_on,,0,0,11,,,,,,,,,,,,,,,15,,,55,48
9840,note_on,,0,0,11,,,,,,,,,,,,,,,15,,,61,48
9840,note_on,,0,0,11,,,,,,,,,,,,,,,15,,,53,48
9840,note_on,,1,0,11,,,,,,,,,,,,,,,15,,,49,48
9840,note_on,,1,0,6,,,,,,,,,,,,,,,8,,,53,62
9840,note_on,,1,0,8,,,,,,,,,,,,,,,11,,,68,48
9840,note_on,,1,0,7,,,,,,,,,,,,,,,10,,,73,48
9840,note_on,,1,0,9,,,,,,,,,,,,,,,12,,,65,48
9840,note_on,,1,0,10,,,,,,,,,,,,,,,13,,,49,48
9899,note_on,,59,0,9,,,,,,,,,,,,,,,12,,,65,0
9899,note_on,,59,0,11,,,,,,,,,,,,,,,15,,,49,0
9899,note_on,,59,0,8,,,,,,,,,,,,,,,11,,,68,0
9899,note_on,,59,0,10,,,,,,,,,,,,,,,13,,,49,0
9899,note_on,,59,0,7,,,,,,,,,,,,,,,10,,,73,0
9900,note_on,,1,0,11,,,,,,,,,,,,,,,15,,,49,48
9900,note_on,,1,0,9,,,,,,,,,,,,,,,12,,,65,48
9900,note_on,,1,0,10,,,,,,,,,,,,,,,13,,,49,48
9900,note_on,,1,0,7,,,,,,,,,,,,,,,10,,,73,48
9900,note_on,,1,0,8,,,,,,,,,,,,,,,11,,,68,48
9959,note_on,,59,0,10,,,,,,,,,,,,,,,13,,,49,0
9959,note_on,,59,0,7,,,,,,,,,,,,,,,10,,,73,0
9959,note_on,,59,0,8,,,,,,,,,,,,,,,11,,,68,0
9959,note_on,,119,0,6,,,,,,,,,,,,,,,8,,,53,0
9959,note_on,,59,0,9,,,,,,,,,,,,,,,12,,,65,0
9959,note_on,,59,0,11,,,,,,,,,,,,,,,15,,,49,0
9960,note_on,,1,0,10,,,,,,,,,,,,,,,13,,,49,48
9960,note_on,,1,0,9,,,,,,,,,,,,,,,12,,,65,48
9960,note_on,,1,0,8,,,,,,,,,,,,,,,11,,,68,48
9960,note_on,,1,0,7,,,,,,,,,,,,,,,10,,,73,48
9960,note_on,,1,0,11,,,,,,,,,,,,,,,15,,,49,48
10019,note_on,,59,0,7,,,,,,,,,,,,,,,10,,,73,0
10019,note_on,,59,0,9,,,,,,,,,,,,,,,12,,,65,0
10019,note_on,,59,0,8,,,,,,,,,,,,,,,11,,,68,0
10019,note_on,,59,0,10,,,,,,,,,,,,,,,13,,,49,0
10019,note_on,,59,0,11,,,,,,,,,,,,,,,15,,,49,0
10020,note_on,,61,0,6,,,,,,,,,,,,,,,8,,,49,63
10020,note_on,,1,0,8,,,,,,,,,,,,,,,11,,,68,48
10020,note_on,,1,0,11,,,,,,,,,,,,,,,15,,,49,48
10020,note_on,,1,0,10,,,,,,,,,,,,,,,13,,,49,48
10020,note_on,,1,0,7,,,,,,,,,,,,,,,10,,,73,48
10020,note_on,,1,0,9,,,,,,,,,,,,,,,12,,,65,48
10079,note_on,,0,0,11,,,,,,,,,,,,,,,15,,,49,0
10079,note_on,,0,0,11,,,,,,,,,,,,,,,15,,,55,0
10079,note_on,,59,0,11,,,,,,,,,,,,,,,15,,,53,0
10079,note_on,,0,0,11,,,,,,,,,,,,,,,15,,,61,0
10079,note_on,,59,0,9,,,,,,,,,,,,,,,12,,,65,0
10079,note_on,,59,0,6,,,,,,,,,,,,,,,8,,,49,0
10079,note_on,,59,0,8,,,,,,,,,,,,,,,11,,,68,0
10079,note_on,,59,0,10,,,,,,,,,,,,,,,13,,,49,0
10079,note_on,,59,0,7,,,,,,,,,,,,,,,10,,,73,0
10080,note_on,,0,0,11,,,,,,,,,,,,,,,15,,,66,48
10080,note_on,,1,0,9,,,,,,,,,,,,,,,12,,,61,48
10080,note_on,,1,0,11,,,,,,,,,,,,,,,15,,,45,48
10080,note_on,,0,0,11,,,,,,,,,,,,,,,15,,,54,48
10080,note_on,,1,0,6,,,,,,,,,,,,,,,8,,,61,61
10080,note_on,,0,0,11,,,,,,,,,,,,,,,15,,,61,48
10080,note_on,,1,0,8,,,,,,,,,,,,,,,11,,,66,48
10080,note_on,,1,0,7,,,,,,,,,,,,,,,10,,,73,48
10080,note_on,,1,0,10,,,,,,,,,,,,,,,13,,,45,48
10139,note_on,,59,0,7,,,,,,,,,,,,,,,10,,,73,0
10139,note_on,,59,0,8,,,,,,,,,,,,,,,11,,,66,0
10139,note_on,,59,0,11,,,,,,,,,,,,,,,15,,,45,0
10139,note_on,,59,0,9,,,,,,,,,,,,,,,12,,,61,0
10139,note_on,,59,0,10,,,,,,,,,,,,,,,13,,,45,0
10140,note_on,,1,0,11,,,,,,,,,,,,,,,15,,,45,48
10140,note_on,,1,0,9,,,,,,,,,,,,,,,12,,,61,48
10140,note_on,,1,0,10,,,,,,,,,,,,,,,13,,,45,48
10140,note_on,,1,0,8,,,,,,,,,,,,,,,11,,,66,48
10140,note_on,,1,0,7,,,,,,,,,,,,,,,10,,,73,48
10199,note_on,,59,0,10,,,,,,,,,,,,,,,13,,,45,0
10199,note_on,,119,0,6,,,,,,,,,,,,,,,8,,,61,0
10199,note_on,,59,0,8,,,,,,,,,,,,,,,11,,,66,0
10199,note_on,,59,0,9,,,,,,,,,,,,,,,12,,,61,0
10199,note_on,,59,0,7,,,,,,,,,,,,,,,10,,,73,0
10199,note_on,,59,0,11,,,,,,,,,,,,,,,15,,,45,0
10200,note_on,,1,0,10,,,,,,,,,,,,,,,13,,,45,48
10200,note_on,,1,0,8,,,,,,,,,,,,,,,11,,,66,48
10200,note_on,,1,0,7,,,,,,,,,,,,,,,10,,,73,48
10200,note_on,,1,0,11,,,,,,,,,,,,,,,15,,,45,48
10200,note_on,,1,0,6,,,,,,,,,,,,,,,8,,,57,60
10200,note_on,,1,0,9,,,,,,,,,,,,,,,12,,,61,48
10259,note_on,,59,0,6,,,,,,,,,,,,,,,8,,,57,0
10259,note_on,,59,0,8,,,,,,,,,,,,,,,11,,,66,0
10259,note_on,,59,0,10,,,,,,,,,,,,,,,13,,,45,0
10259,note_on,,59,0,7,,,,,,,,,,,,,,,10,,,73,0
10259,note_on,,59,0,11,,,,,,,,,,,,,,,15,,,45,0
10259,note_on,,59,0,9,,,,,,,,,,,,,,,12,,,61,0
10260,note_on,,1,0,10,,,,,,,,,,,,,,,13,,,45,48
10260,note_on,,1,0,8,,,,,,,,,,,,,,,11,,,66,48
10260,note_on,,1,0,7,,,,,,,,,,,,,,,10,,,73,48
10260,note_on,,1,0,9,,,,,,,,,,,,,,,12,,,61,48
10260,note_on,,1,0,6,,,,,,,,,,,,,,,8,,,54,61
10260,note_on,,1,0,11,,,,,,,,,,,,,,,15,,,45,48
10319,note_on,,59,0,7,,,,,,,,,,,,,,,10,,,73,0
10319,note_on,,59,0,9,,,,,,,,,,,,,,,12,,,61,0
10319,note_on,,0,0,11,,,,,,,,,,,,,,,15,,,45,0
10319,note_on,,59,0,10,,,,,,,,,,,,,,,13,,,45,0
10319,note_on,,0,0,11,,,,,,,,,,,,,,,15,,,61,0
10319,note_on,,0,0,11,,,,,,,,,,,,,,,15,,,66,0
10319,note_on,,59,0,11,,,,,,,,,,,,,,,15,,,54,0
10319,note_on,,59,0,6,,,,,,,,,,,,,,,8,,,54,0
10319,note_on,,59,0,8,,,,,,,,,,,,,,,11,,,66,0
10320,note_on,,1,0,10,,,,,,,,,,,,,,,13,,,50,48
10320,note_on,,1,0,11,,,,,,,,,,,,,,,15,,,50,48
10320,note_on,,1,0,7,,,,,,,,,,,,,,,10,,,71,48
10320,note_on,,1,0,9,,,,,,,,,,,,,,,12,,,62,48
10320,note_on,,0,0,11,,,,,,,,,,,,,,,15,,,54,48
10320,note_on,,0,0,11,,,,,,,,,,,,,,,15,,,59,48
10320,note_on,,0,0,11,,,,,,,,,,,,,,,15,,,71,48
10320,note_on,,1,0,6,,,,,,,,,,,,,,,8,,,50,62
10320,note_on,,1,0,8,,,,,,,,,,,,,,,11,,,66,48
10439,note_on,,119,0,9,,,,,,,,,,,,,,,12,,,62,0
10439,note_on,,119,0,10,,,,,,,,,,,,,,,13,,,50,0
10439,note_on,,119,0,8,,,,,,,,,,,,,,,11,,,66,0
10439,note_on,,119,0,6,,,,,,,,,,,,,,,8,,,50,0
10439,note_on,,0,0,11,,,,,,,,,,,,,,,15,,,54,0
10439,note_on,,0,0,11,,,,,,,,,,,,,,,15,,,59,0
10439,note_on,,0,0,11,,,,,,,,,,,,,,,15,,,71,0
10439,note_on,,119,0,11,,,,,,,,,,,,,,,15,,,50,0
10439,note_on,,119,0,7,,,,,,,,,,,,,,,10,,,71,0
10440,note_on,,0,0,11,,,,,,,,,,,,,,,15,,,66,48
10440,note_on,,0,0,11,,,,,,,,,,,,,,,15,,,71,48
10440,note_on,,0,0,11,,,,,,,,,,,,,,,15,,,74,48
10440,note_on,,1,0,11,,,,,,,,,,,,,,,15,,,47,48
10440,note_on,,0,0,11,,,,,,,,,,,,,,,15,,,54,48
10440,note_on,,1,0,9,,,,,,,,,,,,,,,12,,,66,48
10440,note_on,,1,0,7,,,,,,,,,,,,,,,10,,,78,48
10440,note_on,,1,0,10,,,,,,,,,,,,,,,13,,,47,48
10440,note_on,,1,0,6,,,,,,,,,,,,,,,8,,,47,60
10440,note_on,,1,0,8,,,,,,,,,,,,,,,11,,,74,48
10559,note_on,,119,0,7,,,,,,,,,,,,,,,10,,,78,0
10559,note_on,,119,0,11,,,,,,,,,,,,,,,15,,,47,0
10559,note_on,,119,0,10,,,,,,,,,,,,,,,13,,,47,0
10559,note_on,,0,0,11,,,,,,,,,,,,,,,15,,,74,0
10559,note_on,,0,0,11,,,,,,,,,,,,,,,15,,,71,0
10559,note_on,,0,0,11,,,,,,,,,,,,,,,15,,,66,0
10559,note_on,,119,0,9,,,,,,,,,,,,,,,12,,,66,0
10559,note_on,,119,0,6,,,,,,,,,,,,,,,8,,,47,0
10559,note_on,,0,0,11,,,,,,,,,,,,,,,15,,,54,0
10559,note_on,,119,0,8,,,,,,,,,,,,,,,11,,,74,0
10560,note_on,,1,0,6,,,,,,,,,,,,,,,8,,,49,65
10560,note_on,,1,0,11,,,,,,,,,,,,,,,15,,,49,48
10560,note_on,,1,0,10,,,,,,,,,,,,,,,13,,,49,48
10680,note_on,,121,0,8,,,,,,,,,,,,,,,11,,,68,48
10680,note_on,,0,0,11,,,,,,,,,,,,,,,15,,,67,48
10680,note_on,,0,0,11,,,,,,,,,,,,,,,15,,,65,48
10680,note_on,,121,0,9,,,,,,,,,,,,,,,12,,,61,48
10680,note_on,,121,0,7,,,,,,,,,,,,,,,10,,,77,48
10680,note_on,,120,0,11,,,,,,,,,,,,,,,15,,,73,48
10680,note_on,,0,0,11,,,,,,,,,,,,,,,15,,,61,48
10739,note_on,,179,0,6,,,,,,,,,,,,,,,8,,,49,0
10740,note_on,,1,0,6,,,,,,,,,,,,,,,8,,,49,65
10799,note_on,,0,0,11,,,,,,,,,,,,,,,15,,,61,0
10799,note_on,,59,0,6,,,,,,,,,,,,,,,8,,,49,0
10799,note_on,,119,0,11,,,,,,,,,,,,,,,15,,,49,0
10799,note_on,,0,0,11,,,,,,,,,,,,,,,15,,,73,0
10799,note_on,,119,0,7,,,,,,,,,,,,,,,10,,,77,0
10799,note_on,,119,0,8,,,,,,,,,,,,,,,11,,,68,0
10799,note_on,,239,0,10,,,,,,,,,,,,,,,13,,,49,0
10799,note_on,,0,0,11,,,,,,,,,,,,,,,15,,,65,0
10799,note_on,,119,0,9,,,,,,,,,,,,,,,12,,,61,0
10799,note_on,,0,0,11,,,,,,,,,,,,,,,15,,,67,0
10800,note_on,,0,0,11,,,,,,,,,,,,,,,15,,,49,48
10800,note_on,,1,0,8,,,,,,,,,,,,,,,11,,,70,48
10800,note_on,,1,0,10,,,,,,,,,,,,,,,13,,,42,48
10800,note_on,,1,0,9,,,,,,,,,,,,,,,12,,,61,48
10800,note_on,,0,0,11,,,,,,,,,,,,,,,15,,,61,48
10800,note_on,,0,0,11,,,,,,,,,,,,,,,15,,,70,48
10800,note_on,,1,0,11,,,,,,,,,,,,,,,15,,,42,48
10800,note_on,,1,0,6,,,,,,,,,,,,,,,8,,,54,65
10800,note_on,,0,0,11,,,,,,,,,,,,,,,15,,,66,48
10800,note_on,,1,0,7,,,,,,,,,,,,,,,10,,,78,48
10919,note_on,,119,0,6,,,,,,,,,,,,,,,8,,,54,0
10920,note_on,,1,0,6,,,,,,,,,,,,,,,8,,,54,64
11039,note_on,,0,0,11,,,,,,,,,,,,,,,15,,,61,0
11039,note_on,,0,0,11,,,,,,,,,,,,,,,15,,,66,0
11039,note_on,,0,0,11,,,,,,,,,,,,,,,15,,,70,0
11039,note_on,,239,0,11,,,,,,,,,,,,,,,15,,,42,0
11039,note_on,,239,0,9,,,,,,,,,,,,,,,12,,,61,0
11039,note_on,,119,0,6,,,,,,,,,,,,,,,8,,,54,0
11039,end_of_track,,0,1,6,,,,,,,,,,,,,,,,,,,
11039,end_of_track,,0,1,9,,,,,,,,,,,,,,,,,,,
11039,note_on,,239,0,7,,,,,,,,,,,,,,,10,,,78,0
11039,end_of_track,,0,1,7,,,,,,,,,,,,,,,,,,,
11039,note_on,,239,0,8,,,,,,,,,,,,,,,11,,,70,0
11039,end_of_track,,0,1,8,,,,,,,,,,,,,,,,,,,
11039,note_on,,0,0,11,,,,,,,,,,,,,,,15,,,49,0
11039,end_of_track,,0,1,10,,,,,,,,,,,,,,,,,,,
11039,note_on,,239,0,10,,,,,,,,,,,,,,,13,,,42,0
11039,end_of_track,,0,1,11,,,,,,,,,,,,,,,,,,,
11520,end_of_track,,0,1,0,,,,,,,,,,,,,,,,,,,
11520,set_tempo,,11520,1,0,,,,,,,,,1200000,,,,,,,,,,
