tick,type,data,time,meta,track,frame_rate,hours,minutes,seconds,frames,sub_frames,port,key,tempo,numerator,denominator,clocks_per_click,notated_32nd_notes_per_beat,control,value,channel,program,note,velocity
0,sequencer_specific,"(0, 0, 91, 35, 1, 0, 5, 4, 35, 0)",0,1,0,,,,,,,,,,,,,,,,,,,
0,program_change,,0,0,9,,,,,,,,,,,,,,,,13,48,,
0,control_change,,0,0,9,,,,,,,,,,,,,,7,96,13,,,
0,midi_port,,0,1,9,,,,,,,0,,,,,,,,,,,,
0,track_name,,0,1,9,,,,,,,,,,,,,,,,,,,
0,track_name,,0,1,10,,,,,,,,,,,,,,,,,,,
0,midi_port,,0,1,10,,,,,,,0,,,,,,,,,,,,
0,control_change,,0,0,10,,,,,,,,,,,,,,7,96,15,,,
0,program_change,,0,0,10,,,,,,,,,,,,,,,,15,6,,
0,control_change,,0,0,10,,,,,,,,,,,,,,10,90,15,,,
0,control_change,,0,0,10,,,,,,,,,,,,,,11,127,15,,,
0,control_change,,0,0,8,,,,,,,,,,,,,,10,80,12,,,
0,program_change,,0,0,8,,,,,,,,,,,,,,,,12,48,,
0,control_change,,0,0,8,,,,,,,,,,,,,,7,96,12,,,
0,midi_port,,0,1,8,,,,,,,0,,,,,,,,,,,,
0,track_name,,0,1,8,,,,,,,,,,,,,,,,,,,
0,track_name,,0,1,6,,,,,,,,,,,,,,,,,,,
0,midi_port,,0,1,6,,,,,,,0,,,,,,,,,,,,
0,control_change,,0,0,6,,,,,,,,,,,,,,10,48,10,,,
0,control_change,,0,0,6,,,,,,,,,,,,,,7,96,10,,,
0,control_change,,0,0,6,,,,,,,,,,,,,,11,127,10,,,
0,program_change,,0,0,6,,,,,,,,,,,,,,,,10,48,,
0,control_change,,0,0,7,,,,,,,,,,,,,,11,127,11,,,
0,control_change,,0,0,7,,,,,,,,,,,,,,10,24,11,,,
0,program_change,,0,0,7,,,,,,,,,,,,,,,,11,48,,
0,control_change,,0,0,7,,,,,,,,,,,,,,7,96,11,,,
0,midi_port,,0,1,7,,,,,,,0,,,,,,,,,,,,
0,track_name,,0,1,7,,,,,,,,,,,,,,,,,,,
0,control_change,,0,0,9,,,,,,,,,,,,,,10,96,13,,,
0,control_change,,0,0,9,,,,,,,,,,,,,,11,127,13,,,
0,control_change,,0,0,8,,,,,,,,,,,,,,11,127,12,,,
0,end_of_track,,0,1,2,,,,,,,,,,,,,,,,,,,
0,end_of_track,,0,1,1,,,,,,,,,,,,,,,,,,,
0,midi_port,,0,1,1,,,,,,,0,,,,,,,,,,,,
0,track_name,,0,1,1,,,,,,,,,,,,,,,,,,,
0,track_name,,0,1,2,,,,,,,,,,,,,,,,,,,
0,midi_port,,0,1,2,,,,,,,0,,,,,,,,,,,,
0,program_change,,0,0,5,,,,,,,,,,,,,,,,8,60,,
0,track_name,,0,1,3,,,,,,,,,,,,,,,,,,,
0,midi_port,,0,1,3,,,,,,,0,,,,,,,,,,,,
0,end_of_track,,0,1,3,,,,,,,,,,,,,,,,,,,
0,midi_port,,0,1,4,,,,,,,0,,,,,,,,,,,,
0,end_of_track,,0,1,4,,,,,,,,,,,,,,,,,,,
0,track_name,,0,1,5,,,,,,,,,,,,,,,,,,,
0,midi_port,,0,1,5,,,,,,,0,,,,,,,,,,,,
0,control_change,,0,0,5,,,,,,,,,,,,,,11,127,8,,,
0,time_signature,,0,1,0,,,,,,,,,,4,4,24,8,,,,,,
0,control_change,,0,0,5,,,,,,,,,,,,,,10,80,8,,,
0,smpte_offset,,0,1,0,25,32,0,3,0,0,,,,,,,,,,,,,
0,key_signature,,0,1,0,,,,,,,,F,,,,,,,,,,,
0,midi_port,,0,1,0,,,,,,,0,,,,,,,,,,,,
0,set_tempo,,0,1,0,,,,,,,,,666666,,,,,,,,,,
0,track_name,,0,1,0,,,,,,,,,,,,,,,,,,,
0,instrument_name,,0,1,0,,,,,,,,,,,,,,,,,,,
60,note_on,,60,0,10,,,,,,,,,,,,,,,,15,,50,72
60,note_on,,0,0,10,,,,,,,,,,,,,,,,15,,62,72
60,note_on,,0,0,10,,,,,,,,,,,,,,,,15,,57,72
60,note_on,,0,0,10,,,,,,,,,,,,,,,,15,,53,72
60,note_on,,60,0,9,,,,,,,,,,,,,,,,13,,50,72
60,note_on,,60,0,7,,,,,,,,,,,,,,,,11,,65,72
60,note_on,,60,0,6,,,,,,,,,,,,,,,,10,,62,72
60,note_on,,60,0,8,,,,,,,,,,,,,,,,12,,57,72
119,note_on,,0,0,10,,,,,,,,,,,,,,,,15,,57,0
119,note_on,,0,0,10,,,,,,,,,,,,,,,,15,,62,0
119,note_on,,59,0,10,,,,,,,,,,,,,,,,15,,50,0
119,note_on,,59,0,6,,,,,,,,,,,,,,,,10,,62,0
119,note_on,,59,0,8,,,,,,,,,,,,,,,,12,,57,0
119,note_on,,0,0,10,,,,,,,,,,,,,,,,15,,53,0
119,note_on,,59,0,9,,,,,,,,,,,,,,,,13,,50,0
119,note_on,,59,0,7,,,,,,,,,,,,,,,,11,,65,0
120,note_on,,1,0,8,,,,,,,,,,,,,,,,12,,57,72
120,note_on,,0,0,10,,,,,,,,,,,,,,,,15,,53,72
120,note_on,,0,0,10,,,,,,,,,,,,,,,,15,,57,72
120,note_on,,0,0,10,,,,,,,,,,,,,,,,15,,62,72
120,note_on,,1,0,7,,,,,,,,,,,,,,,,11,,65,72
120,note_on,,1,0,10,,,,,,,,,,,,,,,,15,,50,72
120,note_on,,1,0,6,,,,,,,,,,,,,,,,10,,62,72
120,note_on,,1,0,9,,,,,,,,,,,,,,,,13,,50,72
209,note_on,,0,0,10,,,,,,,,,,,,,,,,15,,53,0
209,note_on,,89,0,7,,,,,,,,,,,,,,,,11,,65,0
209,note_on,,89,0,10,,,,,,,,,,,,,,,,15,,50,0
209,note_on,,89,0,8,,,,,,,,,,,,,,,,12,,57,0
209,note_on,,89,0,6,,,,,,,,,,,,,,,,10,,62,0
209,note_on,,89,0,9,,,,,,,,,,,,,,,,13,,50,0
210,note_on,,1,0,8,,,,,,,,,,,,,,,,12,,57,72
210,note_on,,1,0,6,,,,,,,,,,,,,,,,10,,62,72
210,note_on,,1,0,7,,,,,,,,,,,,,,,,11,,65,72
210,note_on,,0,0,10,,,,,,,,,,,,,,,,15,,53,72
210,note_on,,1,0,10,,,,,,,,,,,,,,,,15,,50,72
210,note_on,,1,0,9,,,,,,,,,,,,,,,,13,,50,72
239,note_on,,29,0,10,,,,,,,,,,,,,,,,15,,62,0
239,note_on,,29,0,9,,,,,,,,,,,,,,,,13,,50,0
239,note_on,,29,0,8,,,,,,,,,,,,,,,,12,,57,0
239,note_on,,29,0,6,,,,,,,,,,,,,,,,10,,62,0
239,note_on,,0,0,10,,,,,,,,,,,,,,,,15,,57,0
239,note_on,,0,0,10,,,,,,,,,,,,,,,,15,,50,0
239,note_on,,29,0,7,,,,,,,,,,,,,,,,11,,65,0
239,note_on,,0,0,10,,,,,,,,,,,,,,,,15,,53,0
240,note_on,,1,0,10,,,,,,,,,,,,,,,,15,,50,72
240,note_on,,0,0,10,,,,,,,,,,,,,,,,15,,62,72
240,note_on,,0,0,10,,,,,,,,,,,,,,,,15,,57,72
240,note_on,,1,0,8,,,,,,,,,,,,,,,,12,,62,72
240,note_on,,0,0,10,,,,,,,,,,,,,,,,15,,65,72
240,note_on,,1,0,7,,,,,,,,,,,,,,,,11,,69,72
240,note_on,,1,0,6,,,,,,,,,,,,,,,,10,,65,72
240,note_on,,1,0,9,,,,,,,,,,,,,,,,13,,50,72
329,note_on,,89,0,8,,,,,,,,,,,,,,,,12,,62,0
329,note_on,,89,0,9,,,,,,,,,,,,,,,,13,,50,0
329,note_on,,89,0,7,,,,,,,,,,,,,,,,11,,69,0
329,note_on,,89,0,6,,,,,,,,,,,,,,,,10,,65,0
329,note_on,,89,0,10,,,,,,,,,,,,,,,,15,,50,0
329,note_on,,0,0,10,,,,,,,,,,,,,,,,15,,57,0
330,note_on,,1,0,6,,,,,,,,,,,,,,,,10,,65,72
330,note_on,,0,0,10,,,,,,,,,,,,,,,,15,,57,72
330,note_on,,1,0,8,,,,,,,,,,,,,,,,12,,62,72
330,note_on,,1,0,7,,,,,,,,,,,,,,,,11,,69,72
330,note_on,,1,0,10,,,,,,,,,,,,,,,,15,,50,72
330,note_on,,1,0,9,,,,,,,,,,,,,,,,13,,50,72
359,note_on,,29,0,8,,,,,,,,,,,,,,,,12,,62,0
359,note_on,,0,0,10,,,,,,,,,,,,,,,,15,,62,0
359,note_on,,29,0,9,,,,,,,,,,,,,,,,13,,50,0
359,note_on,,29,0,6,,,,,,,,,,,,,,,,10,,65,0
359,note_on,,29,0,7,,,,,,,,,,,,,,,,11,,69,0
359,note_on,,29,0,10,,,,,,,,,,,,,,,,15,,65,0
359,note_on,,0,0,10,,,,,,,,,,,,,,,,15,,57,0
359,note_on,,0,0,10,,,,,,,,,,,,,,,,15,,50,0
360,note_on,,0,0,10,,,,,,,,,,,,,,,,15,,69,72
360,note_on,,0,0,10,,,,,,,,,,,,,,,,15,,65,72
360,note_on,,1,0,9,,,,,,,,,,,,,,,,13,,50,72
360,note_on,,1,0,10,,,,,,,,,,,,,,,,15,,50,72
360,note_on,,1,0,8,,,,,,,,,,,,,,,,12,,62,72
360,note_on,,0,0,10,,,,,,,,,,,,,,,,15,,62,72
360,note_on,,1,0,6,,,,,,,,,,,,,,,,10,,69,72
360,note_on,,0,0,10,,,,,,,,,,,,,,,,15,,57,72
360,note_on,,1,0,7,,,,,,,,,,,,,,,,11,,65,72
449,note_on,,89,0,6,,,,,,,,,,,,,,,,10,,69,0
449,note_on,,89,0,10,,,,,,,,,,,,,,,,15,,50,0
449,note_on,,0,0,10,,,,,,,,,,,,,,,,15,,57,0
449,note_on,,89,0,7,,,,,,,,,,,,,,,,11,,65,0
449,note_on,,89,0,8,,,,,,,,,,,,,,,,12,,62,0
449,note_on,,89,0,9,,,,,,,,,,,,,,,,13,,50,0
450,note_on,,1,0,9,,,,,,,,,,,,,,,,13,,50,72
450,note_on,,1,0,6,,,,,,,,,,,,,,,,10,,69,72
450,note_on,,1,0,10,,,,,,,,,,,,,,,,15,,50,72
450,note_on,,1,0,8,,,,,,,,,,,,,,,,12,,62,72
450,note_on,,0,0,10,,,,,,,,,,,,,,,,15,,57,72
450,note_on,,1,0,7,,,,,,,,,,,,,,,,11,,65,72
479,note_on,,29,0,9,,,,,,,,,,,,,,,,13,,50,0
479,note_on,,29,0,6,,,,,,,,,,,,,,,,10,,69,0
479,note_on,,0,0,10,,,,,,,,,,,,,,,,15,,57,0
479,note_on,,0,0,10,,,,,,,,,,,,,,,,15,,50,0
479,note_on,,0,0,10,,,,,,,,,,,,,,,,15,,62,0
479,note_on,,0,0,10,,,,,,,,,,,,,,,,15,,65,0
479,note_on,,29,0,10,,,,,,,,,,,,,,,,15,,69,0
479,note_on,,29,0,8,,,,,,,,,,,,,,,,12,,62,0
479,note_on,,29,0,7,,,,,,,,,,,,,,,,11,,65,0
480,note_on,,1,0,7,,,,,,,,,,,,,,,,11,,65,72
480,note_on,,0,0,10,,,,,,,,,,,,,,,,15,,57,72
480,set_tempo,,480,1,0,,,,,,,,,705882,,,,,,,,,,
480,note_on,,0,0,10,,,,,,,,,,,,,,,,15,,65,72
480,note_on,,0,0,10,,,,,,,,,,,,,,,,15,,69,72
480,note_on,,0,0,10,,,,,,,,,,,,,,,,15,,74,72
480,note_on,,1,0,6,,,,,,,,,,,,,,,,10,,74,72
480,note_on,,1,0,8,,,,,,,,,,,,,,,,12,,69,72
480,note_on,,1,0,10,,,,,,,,,,,,,,,,15,,50,72
480,control_change,,480,0,5,,,,,,,,,,,,,,7,104,8,,,
480,note_on,,1,0,9,,,,,,,,,,,,,,,,13,,50,72
480,note_on,,0,0,5,,,,,,,,,,,,,,,,8,,62,72
599,note_on,,119,0,9,,,,,,,,,,,,,,,,13,,50,0
599,note_on,,119,0,6,,,,,,,,,,,,,,,,10,,74,0
599,note_on,,119,0,5,,,,,,,,,,,,,,,,8,,62,0
599,note_on,,119,0,8,,,,,,,,,,,,,,,,12,,69,0
599,note_on,,119,0,10,,,,,,,,,,,,,,,,15,,50,0
599,note_on,,0,0,10,,,,,,,,,,,,,,,,15,,74,0
599,note_on,,0,0,10,,,,,,,,,,,,,,,,15,,57,0
599,note_on,,119,0,7,,,,,,,,,,,,,,,,11,,65,0
599,note_on,,0,0,10,,,,,,,,,,,,,,,,15,,69,0
599,note_on,,0,0,10,,,,,,,,,,,,,,,,15,,65,0
600,note_on,,1,0,5,,,,,,,,,,,,,,,,8,,57,72
689,note_on,,89,0,5,,,,,,,,,,,,,,,,8,,57,0
690,note_on,,1,0,5,,,,,,,,,,,,,,,,8,,57,72
719,note_on,,29,0,5,,,,,,,,,,,,,,,,8,,57,0
720,note_on,,1,0,5,,,,,,,,,,,,,,,,8,,53,72
839,note_on,,119,0,5,,,,,,,,,,,,,,,,8,,53,0
1020,note_on,,181,0,5,,,,,,,,,,,,,,,,8,,53,72
1079,note_on,,59,0,5,,,,,,,,,,,,,,,,8,,53,0
1080,note_on,,1,0,5,,,,,,,,,,,,,,,,8,,55,72
1139,note_on,,59,0,5,,,,,,,,,,,,,,,,8,,55,0
1140,note_on,,1,0,5,,,,,,,,,,,,,,,,8,,57,72
1199,note_on,,59,0,5,,,,,,,,,,,,,,,,8,,57,0
1200,note_on,,1,0,5,,,,,,,,,,,,,,,,8,,50,72
1290,note_on,,691,0,10,,,,,,,,,,,,,,,,15,,50,72
1290,note_on,,0,0,10,,,,,,,,,,,,,,,,15,,57,72
1290,note_on,,0,0,10,,,,,,,,,,,,,,,,15,,62,72
1290,note_on,,691,0,9,,,,,,,,,,,,,,,,13,,50,72
1290,note_on,,691,0,8,,,,,,,,,,,,,,,,12,,62,72
1290,note_on,,0,0,10,,,,,,,,,,,,,,,,15,,65,72
1290,note_on,,691,0,7,,,,,,,,,,,,,,,,11,,65,72
1290,note_on,,691,0,6,,,,,,,,,,,,,,,,10,,69,72
1319,note_on,,29,0,10,,,,,,,,,,,,,,,,15,,50,0
1319,note_on,,0,0,10,,,,,,,,,,,,,,,,15,,65,0
1319,note_on,,0,0,10,,,,,,,,,,,,,,,,15,,62,0
1319,note_on,,0,0,10,,,,,,,,,,,,,,,,15,,57,0
1319,note_on,,29,0,8,,,,,,,,,,,,,,,,12,,62,0
1319,note_on,,29,0,7,,,,,,,,,,,,,,,,11,,65,0
1319,note_on,,29,0,6,,,,,,,,,,,,,,,,10,,69,0
1319,note_on,,29,0,9,,,,,,,,,,,,,,,,13,,50,0
1320,note_on,,1,0,10,,,,,,,,,,,,,,,,15,,50,72
1320,note_on,,1,0,6,,,,,,,,,,,,,,,,10,,69,72
1320,note_on,,1,0,8,,,,,,,,,,,,,,,,12,,62,72
1320,note_on,,1,0,7,,,,,,,,,,,,,,,,11,,65,72
1320,note_on,,0,0,10,,,,,,,,,,,,,,,,15,,65,72
1320,note_on,,0,0,10,,,,,,,,,,,,,,,,15,,62,72
1320,note_on,,1,0,9,,,,,,,,,,,,,,,,13,,50,72
1320,note_on,,0,0,10,,,,,,,,,,,,,,,,15,,57,72
1409,note_on,,89,0,7,,,,,,,,,,,,,,,,11,,65,0
1409,note_on,,89,0,10,,,,,,,,,,,,,,,,15,,50,0
1409,note_on,,89,0,9,,,,,,,,,,,,,,,,13,,50,0
1409,note_on,,89,0,8,,,,,,,,,,,,,,,,12,,62,0
1409,note_on,,89,0,6,,,,,,,,,,,,,,,,10,,69,0
1409,note_on,,0,0,10,,,,,,,,,,,,,,,,15,,57,0
1410,note_on,,1,0,8,,,,,,,,,,,,,,,,12,,62,72
1410,note_on,,1,0,10,,,,,,,,,,,,,,,,15,,50,72
1410,note_on,,0,0,10,,,,,,,,,,,,,,,,15,,57,72
1410,note_on,,1,0,7,,,,,,,,,,,,,,,,11,,65,72
1410,note_on,,1,0,9,,,,,,,,,,,,,,,,13,,50,72
1410,note_on,,1,0,6,,,,,,,,,,,,,,,,10,,69,72
1439,note_on,,29,0,9,,,,,,,,,,,,,,,,13,,50,0
1439,note_on,,29,0,8,,,,,,,,,,,,,,,,12,,62,0
1439,note_on,,0,0,10,,,,,,,,,,,,,,,,15,,62,0
1439,note_on,,0,0,10,,,,,,,,,,,,,,,,15,,50,0
1439,note_on,,29,0,7,,,,,,,,,,,,,,,,11,,65,0
1439,note_on,,29,0,10,,,,,,,,,,,,,,,,15,,65,0
1439,note_on,,239,0,5,,,,,,,,,,,,,,,,8,,50,0
1439,note_on,,29,0,6,,,,,,,,,,,,,,,,10,,69,0
1439,note_on,,0,0,10,,,,,,,,,,,,,,,,15,,57,0
1440,note_on,,1,0,9,,,,,,,,,,,,,,,,13,,50,72
1440,note_on,,0,0,10,,,,,,,,,,,,,,,,15,,65,72
1440,note_on,,0,0,10,,,,,,,,,,,,,,,,15,,57,72
1440,note_on,,0,0,10,,,,,,,,,,,,,,,,15,,62,72
1440,note_on,,0,0,10,,,,,,,,,,,,,,,,15,,69,72
1440,note_on,,1,0,10,,,,,,,,,,,,,,,,15,,50,72
1440,note_on,,1,0,6,,,,,,,,,,,,,,,,10,,69,72
1440,note_on,,1,0,7,,,,,,,,,,,,,,,,11,,65,72
1440,note_on,,1,0,8,,,,,,,,,,,,,,,,12,,62,72
1559,note_on,,0,0,10,,,,,,,,,,,,,,,,15,,65,0
1559,note_on,,0,0,10,,,,,,,,,,,,,,,,15,,69,0
1559,note_on,,119,0,10,,,,,,,,,,,,,,,,15,,50,0
1559,note_on,,0,0,10,,,,,,,,,,,,,,,,15,,57,0
1559,note_on,,0,0,10,,,,,,,,,,,,,,,,15,,62,0
1559,note_on,,119,0,7,,,,,,,,,,,,,,,,11,,65,0
1559,note_on,,119,0,6,,,,,,,,,,,,,,,,10,,69,0
1559,note_on,,119,0,8,,,,,,,,,,,,,,,,12,,62,0
1559,note_on,,119,0,9,,,,,,,,,,,,,,,,13,,50,0
1620,note_on,,181,0,5,,,,,,,,,,,,,,,,8,,50,72
1679,note_on,,59,0,5,,,,,,,,,,,,,,,,8,,50,0
1680,note_on,,1,0,5,,,,,,,,,,,,,,,,8,,57,72
1739,note_on,,59,0,5,,,,,,,,,,,,,,,,8,,57,0
1740,note_on,,1,0,5,,,,,,,,,,,,,,,,8,,57,72
1799,note_on,,59,0,5,,,,,,,,,,,,,,,,8,,57,0
1800,note_on,,1,0,5,,,,,,,,,,,,,,,,8,,57,72
1859,note_on,,59,0,5,,,,,,,,,,,,,,,,8,,57,0
1860,note_on,,1,0,5,,,,,,,,,,,,,,,,8,,62,72
1919,note_on,,59,0,5,,,,,,,,,,,,,,,,8,,62,0
1920,note_on,,1,0,5,,,,,,,,,,,,,,,,8,,60,72
1980,note_on,,0,0,10,,,,,,,,,,,,,,,,15,,55,72
1980,note_on,,421,0,7,,,,,,,,,,,,,,,,11,,67,72
1980,note_on,,421,0,10,,,,,,,,,,,,,,,,15,,52,72
1980,note_on,,0,0,10,,,,,,,,,,,,,,,,15,,67,72
1980,note_on,,0,0,10,,,,,,,,,,,,,,,,15,,60,72
1980,note_on,,421,0,6,,,,,,,,,,,,,,,,10,,72,72
1980,note_on,,421,0,9,,,,,,,,,,,,,,,,13,,52,72
1980,note_on,,421,0,8,,,,,,,,,,,,,,,,12,,60,72
2039,note_on,,59,0,10,,,,,,,,,,,,,,,,15,,52,0
2039,note_on,,59,0,8,,,,,,,,,,,,,,,,12,,60,0
2039,note_on,,59,0,6,,,,,,,,,,,,,,,,10,,72,0
2039,note_on,,59,0,7,,,,,,,,,,,,,,,,11,,67,0
2039,note_on,,119,0,5,,,,,,,,,,,,,,,,8,,60,0
2039,note_on,,59,0,9,,,,,,,,,,,,,,,,13,,52,0
2039,note_on,,0,0,10,,,,,,,,,,,,,,,,15,,67,0
2039,note_on,,0,0,10,,,,,,,,,,,,,,,,15,,60,0
2039,note_on,,0,0,10,,,,,,,,,,,,,,,,15,,55,0
2040,note_on,,1,0,7,,,,,,,,,,,,,,,,11,,67,72
2040,note_on,,1,0,6,,,,,,,,,,,,,,,,10,,72,72
2040,note_on,,1,0,9,,,,,,,,,,,,,,,,13,,52,72
2040,note_on,,0,0,10,,,,,,,,,,,,,,,,15,,55,72
2040,note_on,,0,0,10,,,,,,,,,,,,,,,,15,,67,72
2040,note_on,,0,0,10,,,,,,,,,,,,,,,,15,,60,72
2040,note_on,,1,0,8,,,,,,,,,,,,,,,,12,,60,72
2040,note_on,,1,0,10,,,,,,,,,,,,,,,,15,,52,72
2129,note_on,,89,0,8,,,,,,,,,,,,,,,,12,,60,0
2129,note_on,,0,0,10,,,,,,,,,,,,,,,,15,,55,0
2129,note_on,,89,0,10,,,,,,,,,,,,,,,,15,,52,0
2129,note_on,,89,0,6,,,,,,,,,,,,,,,,10,,72,0
2129,note_on,,89,0,9,,,,,,,,,,,,,,,,13,,52,0
2129,note_on,,89,0,7,,,,,,,,,,,,,,,,11,,67,0
2130,note_on,,1,0,9,,,,,,,,,,,,,,,,13,,52,72
2130,note_on,,1,0,10,,,,,,,,,,,,,,,,15,,52,72
2130,note_on,,0,0,10,,,,,,,,,,,,,,,,15,,55,72
2130,note_on,,1,0,8,,,,,,,,,,,,,,,,12,,60,72
2130,note_on,,1,0,7,,,,,,,,,,,,,,,,11,,67,72
2130,note_on,,1,0,6,,,,,,,,,,,,,,,,10,,72,72
2159,note_on,,29,0,6,,,,,,,,,,,,,,,,10,,72,0
2159,note_on,,29,0,9,,,,,,,,,,,,,,,,13,,52,0
2159,note_on,,29,0,8,,,,,,,,,,,,,,,,12,,60,0
2159,note_on,,0,0,10,,,,,,,,,,,,,,,,15,,52,0
2159,note_on,,0,0,10,,,,,,,,,,,,,,,,15,,60,0
2159,note_on,,0,0,10,,,,,,,,,,,,,,,,15,,55,0
2159,note_on,,29,0,10,,,,,,,,,,,,,,,,15,,67,0
2159,note_on,,29,0,7,,,,,,,,,,,,,,,,11,,67,0
2160,note_on,,1,0,8,,,,,,,,,,,,,,,,12,,60,72
2160,note_on,,1,0,7,,,,,,,,,,,,,,,,11,,67,72
2160,note_on,,1,0,10,,,,,,,,,,,,,,,,15,,52,72
2160,note_on,,0,0,10,,,,,,,,,,,,,,,,15,,55,72
2160,note_on,,0,0,10,,,,,,,,,,,,,,,,15,,72,72
2160,note_on,,1,0,6,,,,,,,,,,,,,,,,10,,72,72
2160,note_on,,1,0,9,,,,,,,,,,,,,,,,13,,52,72
2160,note_on,,0,0,10,,,,,,,,,,,,,,,,15,,60,72
2160,note_on,,0,0,10,,,,,,,,,,,,,,,,15,,67,72
2220,note_on,,181,0,5,,,,,,,,,,,,,,,,8,,60,72
2279,note_on,,119,0,6,,,,,,,,,,,,,,,,10,,72,0
2279,note_on,,0,0,10,,,,,,,,,,,,,,,,15,,55,0
2279,note_on,,59,0,5,,,,,,,,,,,,,,,,8,,60,0
2279,note_on,,0,0,10,,,,,,,,,,,,,,,,15,,67,0
2279,note_on,,119,0,7,,,,,,,,,,,,,,,,11,,67,0
2279,note_on,,119,0,10,,,,,,,,,,,,,,,,15,,52,0
2279,note_on,,0,0,10,,,,,,,,,,,,,,,,15,,60,0
2279,note_on,,0,0,10,,,,,,,,,,,,,,,,15,,72,0
2279,note_on,,119,0,8,,,,,,,,,,,,,,,,12,,60,0
2279,note_on,,119,0,9,,,,,,,,,,,,,,,,13,,52,0
2280,note_on,,1,0,5,,,,,,,,,,,,,,,,8,,52,72
2339,note_on,,59,0,5,,,,,,,,,,,,,,,,8,,52,0
2340,note_on,,1,0,5,,,,,,,,,,,,,,,,8,,55,72
2399,note_on,,59,0,5,,,,,,,,,,,,,,,,8,,55,0
2400,note_on,,1,0,5,,,,,,,,,,,,,,,,8,,48,72
2549,note_on,,149,0,5,,,,,,,,,,,,,,,,8,,48,0
2550,note_on,,1,0,5,,,,,,,,,,,,,,,,8,,50,72
2579,note_on,,29,0,5,,,,,,,,,,,,,,,,8,,50,0
2580,note_on,,1,0,5,,,,,,,,,,,,,,,,8,,48,72
2609,note_on,,29,0,5,,,,,,,,,,,,,,,,8,,48,0
2610,note_on,,1,0,5,,,,,,,,,,,,,,,,8,,50,72
2639,note_on,,29,0,5,,,,,,,,,,,,,,,,8,,50,0
2640,note_on,,1,0,5,,,,,,,,,,,,,,,,8,,52,72
2669,note_on,,29,0,5,,,,,,,,,,,,,,,,8,,52,0
2670,note_on,,1,0,5,,,,,,,,,,,,,,,,8,,53,72
2699,note_on,,29,0,5,,,,,,,,,,,,,,,,8,,53,0
2700,note_on,,1,0,5,,,,,,,,,,,,,,,,8,,52,72
2729,note_on,,29,0,5,,,,,,,,,,,,,,,,8,,52,0
2730,note_on,,1,0,5,,,,,,,,,,,,,,,,8,,53,72
2759,note_on,,29,0,5,,,,,,,,,,,,,,,,8,,53,0
2760,note_on,,1,0,5,,,,,,,,,,,,,,,,8,,55,72
2789,note_on,,29,0,5,,,,,,,,,,,,,,,,8,,55,0
2790,note_on,,1,0,5,,,,,,,,,,,,,,,,8,,57,72
2819,note_on,,29,0,5,,,,,,,,,,,,,,,,8,,57,0
2820,note_on,,1,0,5,,,,,,,,,,,,,,,,8,,55,72
2849,note_on,,29,0,5,,,,,,,,,,,,,,,,8,,55,0
2850,note_on,,1,0,5,,,,,,,,,,,,,,,,8,,57,72
2879,note_on,,29,0,5,,,,,,,,,,,,,,,,8,,57,0
2880,note_on,,1,0,5,,,,,,,,,,,,,,,,8,,58,72
2909,note_on,,29,0,5,,,,,,,,,,,,,,,,8,,58,0
2910,note_on,,1,0,5,,,,,,,,,,,,,,,,8,,60,72
2939,note_on,,29,0,5,,,,,,,,,,,,,,,,8,,60,0
2940,note_on,,1,0,5,,,,,,,,,,,,,,,,8,,58,72
2969,note_on,,29,0,5,,,,,,,,,,,,,,,,8,,58,0
2970,note_on,,1,0,5,,,,,,,,,,,,,,,,8,,57,72
2999,note_on,,29,0,5,,,,,,,,,,,,,,,,8,,57,0
3000,note_on,,1,0,5,,,,,,,,,,,,,,,,8,,58,72
3029,note_on,,29,0,5,,,,,,,,,,,,,,,,8,,58,0
3030,note_on,,1,0,5,,,,,,,,,,,,,,,,8,,55,72
3059,note_on,,29,0,5,,,,,,,,,,,,,,,,8,,55,0
3060,note_on,,1,0,5,,,,,,,,,,,,,,,,8,,60,72
3089,note_on,,29,0,5,,,,,,,,,,,,,,,,8,,60,0
3090,note_on,,1,0,5,,,,,,,,,,,,,,,,8,,58,72
3119,note_on,,29,0,5,,,,,,,,,,,,,,,,8,,58,0
3120,note_on,,1,0,5,,,,,,,,,,,,,,,,8,,57,72
3180,note_on,,901,0,10,,,,,,,,,,,,,,,,15,,53,72
3180,note_on,,0,0,10,,,,,,,,,,,,,,,,15,,69,72
3180,note_on,,0,0,10,,,,,,,,,,,,,,,,15,,65,72
3180,note_on,,0,0,10,,,,,,,,,,,,,,,,15,,60,72
3180,note_on,,0,0,10,,,,,,,,,,,,,,,,15,,57,72
3180,note_on,,901,0,8,,,,,,,,,,,,,,,,12,,65,72
3180,note_on,,901,0,7,,,,,,,,,,,,,,,,11,,69,72
3180,note_on,,901,0,9,,,,,,,,,,,,,,,,13,,53,72
3180,note_on,,901,0,6,,,,,,,,,,,,,,,,10,,72,72
3239,note_on,,0,0,10,,,,,,,,,,,,,,,,15,,69,0
3239,note_on,,59,0,6,,,,,,,,,,,,,,,,10,,72,0
3239,note_on,,119,0,5,,,,,,,,,,,,,,,,8,,57,0
3239,note_on,,59,0,9,,,,,,,,,,,,,,,,13,,53,0
3239,note_on,,59,0,7,,,,,,,,,,,,,,,,11,,69,0
3239,note_on,,59,0,10,,,,,,,,,,,,,,,,15,,53,0
3239,note_on,,59,0,8,,,,,,,,,,,,,,,,12,,65,0
3239,note_on,,0,0,10,,,,,,,,,,,,,,,,15,,57,0
3239,note_on,,0,0,10,,,,,,,,,,,,,,,,15,,65,0
3239,note_on,,0,0,10,,,,,,,,,,,,,,,,15,,60,0
3240,note_on,,1,0,7,,,,,,,,,,,,,,,,11,,69,72
3240,note_on,,1,0,9,,,,,,,,,,,,,,,,13,,53,72
3240,note_on,,0,0,10,,,,,,,,,,,,,,,,15,,53,72
3240,note_on,,1,0,10,,,,,,,,,,,,,,,,15,,60,72
3240,note_on,,0,0,10,,,,,,,,,,,,,,,,15,,69,72
3240,note_on,,1,0,8,,,,,,,,,,,,,,,,12,,65,72
3240,note_on,,0,0,10,,,,,,,,,,,,,,,,15,,57,72
3240,note_on,,0,0,10,,,,,,,,,,,,,,,,15,,65,72
3240,note_on,,1,0,6,,,,,,,,,,,,,,,,10,,72,72
3300,note_on,,61,0,5,,,,,,,,,,,,,,,,8,,60,72
3329,note_on,,89,0,8,,,,,,,,,,,,,,,,12,,65,0
3329,note_on,,0,0,10,,,,,,,,,,,,,,,,15,,57,0
3329,note_on,,89,0,10,,,,,,,,,,,,,,,,15,,53,0
3329,note_on,,89,0,6,,,,,,,,,,,,,,,,10,,72,0
3329,note_on,,89,0,7,,,,,,,,,,,,,,,,11,,69,0
3329,note_on,,89,0,9,,,,,,,,,,,,,,,,13,,53,0
3330,note_on,,0,0,10,,,,,,,,,,,,,,,,15,,57,72
3330,note_on,,1,0,10,,,,,,,,,,,,,,,,15,,53,72
3330,note_on,,1,0,8,,,,,,,,,,,,,,,,12,,65,72
3330,note_on,,1,0,6,,,,,,,,,,,,,,,,10,,72,72
3330,note_on,,1,0,7,,,,,,,,,,,,,,,,11,,69,72
3330,note_on,,1,0,9,,,,,,,,,,,,,,,,13,,53,72
3359,note_on,,29,0,7,,,,,,,,,,,,,,,,11,,69,0
3359,note_on,,0,0,10,,,,,,,,,,,,,,,,15,,69,0
3359,note_on,,0,0,10,,,,,,,,,,,,,,,,15,,57,0
3359,note_on,,59,0,5,,,,,,,,,,,,,,,,8,,60,0
3359,note_on,,29,0,10,,,,,,,,,,,,,,,,15,,60,0
3359,note_on,,0,0,10,,,,,,,,,,,,,,,,15,,65,0
3359,note_on,,29,0,6,,,,,,,,,,,,,,,,10,,72,0
3359,note_on,,29,0,8,,,,,,,,,,,,,,,,12,,65,0
3359,note_on,,0,0,10,,,,,,,,,,,,,,,,15,,53,0
3359,note_on,,29,0,9,,,,,,,,,,,,,,,,13,,53,0
3360,note_on,,1,0,5,,,,,,,,,,,,,,,,8,,60,72
3360,note_on,,1,0,8,,,,,,,,,,,,,,,,12,,65,72
3360,note_on,,0,0,10,,,,,,,,,,,,,,,,15,,65,72
3360,note_on,,1,0,7,,,,,,,,,,,,,,,,11,,72,72
3360,note_on,,0,0,10,,,,,,,,,,,,,,,,15,,53,72
3360,note_on,,1,0,6,,,,,,,,,,,,,,,,10,,77,72
3360,note_on,,0,0,10,,,,,,,,,,,,,,,,15,,72,72
3360,note_on,,1,0,9,,,,,,,,,,,,,,,,13,,45,72
3360,note_on,,1,0,10,,,,,,,,,,,,,,,,15,,45,72
3360,note_on,,0,0,10,,,,,,,,,,,,,,,,15,,77,72
3479,note_on,,119,0,5,,,,,,,,,,,,,,,,8,,60,0
3479,note_on,,119,0,9,,,,,,,,,,,,,,,,13,,45,0
3479,note_on,,0,0,10,,,,,,,,,,,,,,,,15,,65,0
3479,note_on,,0,0,10,,,,,,,,,,,,,,,,15,,72,0
3479,note_on,,119,0,6,,,,,,,,,,,,,,,,10,,77,0
3479,note_on,,0,0,10,,,,,,,,,,,,,,,,15,,77,0
3479,note_on,,119,0,8,,,,,,,,,,,,,,,,12,,65,0
3479,note_on,,0,0,10,,,,,,,,,,,,,,,,15,,53,0
3479,note_on,,119,0,10,,,,,,,,,,,,,,,,15,,45,0
3479,note_on,,119,0,7,,,,,,,,,,,,,,,,11,,72,0
3480,note_on,,1,0,5,,,,,,,,,,,,,,,,8,,53,72
3539,note_on,,59,0,5,,,,,,,,,,,,,,,,8,,53,0
3540,note_on,,1,0,5,,,,,,,,,,,,,,,,8,,48,72
3599,note_on,,59,0,5,,,,,,,,,,,,,,,,8,,48,0
3600,note_on,,1,0,5,,,,,,,,,,,,,,,,8,,50,72
3660,note_on,,181,0,9,,,,,,,,,,,,,,,,13,,46,72
3660,note_on,,0,0,10,,,,,,,,,,,,,,,,15,,70,72
3660,note_on,,181,0,8,,,,,,,,,,,,,,,,12,,65,72
3660,note_on,,181,0,6,,,,,,,,,,,,,,,,10,,74,72
3660,note_on,,0,0,10,,,,,,,,,,,,,,,,15,,74,72
3660,note_on,,0,0,10,,,,,,,,,,,,,,,,15,,65,72
3660,note_on,,0,0,10,,,,,,,,,,,,,,,,15,,53,72
3660,note_on,,181,0,7,,,,,,,,,,,,,,,,11,,70,72
3660,note_on,,181,0,10,,,,,,,,,,,,,,,,15,,46,72
3719,note_on,,59,0,6,,,,,,,,,,,,,,,,10,,74,0
3719,note_on,,59,0,7,,,,,,,,,,,,,,,,11,,70,0
3719,note_on,,0,0,10,,,,,,,,,,,,,,,,15,,53,0
3719,note_on,,59,0,8,,,,,,,,,,,,,,,,12,,65,0
3719,note_on,,0,0,10,,,,,,,,,,,,,,,,15,,70,0
3719,note_on,,59,0,10,,,,,,,,,,,,,,,,15,,46,0
3719,note_on,,119,0,5,,,,,,,,,,,,,,,,8,,50,0
3719,note_on,,59,0,9,,,,,,,,,,,,,,,,13,,46,0
3719,note_on,,0,0,10,,,,,,,,,,,,,,,,15,,65,0
3719,note_on,,0,0,10,,,,,,,,,,,,,,,,15,,74,0
3720,note_on,,1,0,9,,,,,,,,,,,,,,,,13,,46,72
3720,note_on,,1,0,6,,,,,,,,,,,,,,,,10,,74,72
3720,note_on,,1,0,8,,,,,,,,,,,,,,,,12,,65,72
3720,note_on,,0,0,10,,,,,,,,,,,,,,,,15,,53,72
3720,note_on,,0,0,10,,,,,,,,,,,,,,,,15,,65,72
3720,note_on,,0,0,10,,,,,,,,,,,,,,,,15,,70,72
3720,note_on,,0,0,10,,,,,,,,,,,,,,,,15,,74,72
3720,note_on,,1,0,10,,,,,,,,,,,,,,,,15,,46,72
3720,note_on,,1,0,7,,,,,,,,,,,,,,,,11,,70,72
3780,note_on,,61,0,5,,,,,,,,,,,,,,,,8,,62,72
3809,note_on,,89,0,8,,,,,,,,,,,,,,,,12,,65,0
3809,note_on,,89,0,6,,,,,,,,,,,,,,,,10,,74,0
3809,note_on,,89,0,9,,,,,,,,,,,,,,,,13,,46,0
3809,note_on,,89,0,10,,,,,,,,,,,,,,,,15,,46,0
3809,note_on,,0,0,10,,,,,,,,,,,,,,,,15,,53,0
3809,note_on,,89,0,7,,,,,,,,,,,,,,,,11,,70,0
3810,note_on,,1,0,7,,,,,,,,,,,,,,,,11,,70,72
3810,note_on,,1,0,8,,,,,,,,,,,,,,,,12,,65,72
3810,note_on,,1,0,10,,,,,,,,,,,,,,,,15,,46,72
3810,note_on,,1,0,9,,,,,,,,,,,,,,,,13,,46,72
3810,note_on,,1,0,6,,,,,,,,,,,,,,,,10,,74,72
3810,note_on,,0,0,10,,,,,,,,,,,,,,,,15,,53,72
3839,note_on,,29,0,7,,,,,,,,,,,,,,,,11,,70,0
3839,note_on,,29,0,6,,,,,,,,,,,,,,,,10,,74,0
3839,note_on,,29,0,10,,,,,,,,,,,,,,,,15,,74,0
3839,note_on,,59,0,5,,,,,,,,,,,,,,,,8,,62,0
3839,note_on,,29,0,9,,,,,,,,,,,,,,,,13,,46,0
3839,note_on,,0,0,10,,,,,,,,,,,,,,,,15,,46,0
3839,note_on,,0,0,10,,,,,,,,,,,,,,,,15,,53,0
3839,note_on,,29,0,8,,,,,,,,,,,,,,,,12,,65,0
3839,note_on,,0,0,10,,,,,,,,,,,,,,,,15,,70,0
3839,note_on,,0,0,10,,,,,,,,,,,,,,,,15,,65,0
3840,note_on,,1,0,6,,,,,,,,,,,,,,,,10,,79,72
3840,note_on,,1,0,10,,,,,,,,,,,,,,,,15,,47,72
3840,note_on,,0,0,10,,,,,,,,,,,,,,,,15,,67,72
3840,note_on,,0,0,10,,,,,,,,,,,,,,,,15,,62,72
3840,note_on,,1,0,7,,,,,,,,,,,,,,,,11,,74,72
3840,note_on,,1,0,8,,,,,,,,,,,,,,,,12,,67,72
3840,note_on,,0,0,10,,,,,,,,,,,,,,,,15,,55,72
3840,note_on,,1,0,9,,,,,,,,,,,,,,,,13,,47,72
3840,note_on,,1,0,5,,,,,,,,,,,,,,,,8,,62,72
3959,note_on,,0,0,10,,,,,,,,,,,,,,,,15,,62,0
3959,note_on,,119,0,8,,,,,,,,,,,,,,,,12,,67,0
3959,note_on,,119,0,9,,,,,,,,,,,,,,,,13,,47,0
3959,note_on,,119,0,5,,,,,,,,,,,,,,,,8,,62,0
3959,note_on,,0,0,10,,,,,,,,,,,,,,,,15,,55,0
3959,note_on,,119,0,10,,,,,,,,,,,,,,,,15,,47,0
3959,note_on,,0,0,10,,,,,,,,,,,,,,,,15,,67,0
3959,note_on,,119,0,6,,,,,,,,,,,,,,,,10,,79,0
3959,note_on,,119,0,7,,,,,,,,,,,,,,,,11,,74,0
3960,note_on,,1,0,5,,,,,,,,,,,,,,,,8,,50,72
4019,note_on,,59,0,5,,,,,,,,,,,,,,,,8,,50,0
4020,note_on,,1,0,5,,,,,,,,,,,,,,,,8,,53,72
4079,note_on,,59,0,5,,,,,,,,,,,,,,,,8,,53,0
4080,note_on,,1,0,5,,,,,,,,,,,,,,,,8,,53,72
4139,note_on,,59,0,5,,,,,,,,,,,,,,,,8,,53,0
4140,note_on,,0,0,10,,,,,,,,,,,,,,,,15,,64,72
4140,note_on,,0,0,10,,,,,,,,,,,,,,,,15,,67,72
4140,note_on,,0,0,10,,,,,,,,,,,,,,,,15,,60,72
4140,note_on,,0,0,10,,,,,,,,,,,,,,,,15,,55,72
4140,note_on,,181,0,10,,,,,,,,,,,,,,,,15,,48,72
4140,note_on,,181,0,8,,,,,,,,,,,,,,,,12,,60,72
4140,note_on,,181,0,7,,,,,,,,,,,,,,,,11,,64,72
4140,note_on,,1,0,5,,,,,,,,,,,,,,,,8,,52,72
4140,note_on,,181,0,9,,,,,,,,,,,,,,,,13,,48,72
4140,note_on,,181,0,6,,,,,,,,,,,,,,,,10,,67,72
4199,note_on,,59,0,8,,,,,,,,,,,,,,,,12,,60,0
4199,note_on,,59,0,7,,,,,,,,,,,,,,,,11,,64,0
4199,note_on,,0,0,10,,,,,,,,,,,,,,,,15,,64,0
4199,note_on,,59,0,9,,,,,,,,,,,,,,,,13,,48,0
4199,note_on,,59,0,10,,,,,,,,,,,,,,,,15,,48,0
4199,note_on,,0,0,10,,,,,,,,,,,,,,,,15,,67,0
4199,note_on,,0,0,10,,,,,,,,,,,,,,,,15,,60,0
4199,note_on,,0,0,10,,,,,,,,,,,,,,,,15,,55,0
4199,note_on,,59,0,5,,,,,,,,,,,,,,,,8,,52,0
4199,note_on,,59,0,6,,,,,,,,,,,,,,,,10,,67,0
4200,note_on,,0,0,10,,,,,,,,,,,,,,,,15,,60,72
4200,note_on,,0,0,10,,,,,,,,,,,,,,,,15,,64,72
4200,note_on,,1,0,9,,,,,,,,,,,,,,,,13,,48,72
4200,note_on,,0,0,10,,,,,,,,,,,,,,,,15,,67,72
4200,note_on,,0,0,10,,,,,,,,,,,,,,,,15,,55,72
4200,note_on,,1,0,10,,,,,,,,,,,,,,,,15,,48,72
4200,note_on,,1,0,7,,,,,,,,,,,,,,,,11,,64,72
4200,note_on,,1,0,8,,,,,,,,,,,,,,,,12,,60,72
4200,note_on,,1,0,6,,,,,,,,,,,,,,,,10,,67,72
4289,note_on,,89,0,8,,,,,,,,,,,,,,,,12,,60,0
4289,note_on,,0,0,10,,,,,,,,,,,,,,,,15,,55,0
4289,note_on,,89,0,9,,,,,,,,,,,,,,,,13,,48,0
4289,note_on,,89,0,6,,,,,,,,,,,,,,,,10,,67,0
4289,note_on,,89,0,10,,,,,,,,,,,,,,,,15,,48,0
4289,note_on,,89,0,7,,,,,,,,,,,,,,,,11,,64,0
4290,note_on,,1,0,8,,,,,,,,,,,,,,,,12,,60,72
4290,note_on,,1,0,9,,,,,,,,,,,,,,,,13,,48,72
4290,note_on,,0,0,10,,,,,,,,,,,,,,,,15,,55,72
4290,note_on,,1,0,7,,,,,,,,,,,,,,,,11,,64,72
4290,note_on,,1,0,6,,,,,,,,,,,,,,,,10,,67,72
4290,note_on,,1,0,10,,,,,,,,,,,,,,,,15,,48,72
4319,note_on,,29,0,7,,,,,,,,,,,,,,,,11,,64,0
4319,note_on,,29,0,9,,,,,,,,,,,,,,,,13,,48,0
4319,note_on,,29,0,8,,,,,,,,,,,,,,,,12,,60,0
4319,note_on,,29,0,6,,,,,,,,,,,,,,,,10,,67,0
4319,note_on,,29,0,10,,,,,,,,,,,,,,,,15,,67,0
4319,note_on,,0,0,10,,,,,,,,,,,,,,,,15,,64,0
4319,note_on,,0,0,10,,,,,,,,,,,,,,,,15,,55,0
4319,note_on,,0,0,10,,,,,,,,,,,,,,,,15,,60,0
4319,note_on,,0,0,10,,,,,,,,,,,,,,,,15,,48,0
4320,note_on,,1,0,7,,,,,,,,,,,,,,,,11,,67,72
4320,note_on,,1,0,8,,,,,,,,,,,,,,,,12,,60,72
4320,note_on,,1,0,6,,,,,,,,,,,,,,,,10,,72,72
4320,note_on,,0,0,10,,,,,,,,,,,,,,,,15,,55,72
4320,note_on,,1,0,10,,,,,,,,,,,,,,,,15,,52,72
4320,note_on,,0,0,10,,,,,,,,,,,,,,,,15,,72,72
4320,note_on,,0,0,10,,,,,,,,,,,,,,,,15,,67,72
4320,note_on,,1,0,9,,,,,,,,,,,,,,,,13,,52,72
4320,note_on,,0,0,10,,,,,,,,,,,,,,,,15,,60,72
4380,note_on,,181,0,5,,,,,,,,,,,,,,,,8,,60,72
4439,note_on,,0,0,10,,,,,,,,,,,,,,,,15,,60,0
4439,note_on,,119,0,8,,,,,,,,,,,,,,,,12,,60,0
4439,note_on,,0,0,10,,,,,,,,,,,,,,,,15,,55,0
4439,note_on,,119,0,7,,,,,,,,,,,,,,,,11,,67,0
4439,note_on,,59,0,5,,,,,,,,,,,,,,,,8,,60,0
4439,note_on,,119,0,6,,,,,,,,,,,,,,,,10,,72,0
4439,note_on,,0,0,10,,,,,,,,,,,,,,,,15,,72,0
4439,note_on,,119,0,10,,,,,,,,,,,,,,,,15,,52,0
4439,note_on,,0,0,10,,,,,,,,,,,,,,,,15,,67,0
4439,note_on,,119,0,9,,,,,,,,,,,,,,,,13,,52,0
4440,note_on,,1,0,5,,,,,,,,,,,,,,,,8,,60,72
4499,note_on,,59,0,5,,,,,,,,,,,,,,,,8,,60,0
4500,note_on,,1,0,5,,,,,,,,,,,,,,,,8,,60,72
4559,note_on,,59,0,5,,,,,,,,,,,,,,,,8,,60,0
4560,note_on,,1,0,5,,,,,,,,,,,,,,,,8,,57,72
4560,note_on,,0,0,10,,,,,,,,,,,,,,,,15,,57,72
4560,note_on,,0,0,10,,,,,,,,,,,,,,,,15,,60,72
4560,note_on,,0,0,10,,,,,,,,,,,,,,,,15,,65,72
4560,note_on,,121,0,9,,,,,,,,,,,,,,,,13,,53,72
4560,note_on,,121,0,8,,,,,,,,,,,,,,,,12,,65,72
4560,note_on,,0,0,10,,,,,,,,,,,,,,,,15,,69,72
4560,note_on,,121,0,10,,,,,,,,,,,,,,,,15,,53,72
4560,note_on,,121,0,6,,,,,,,,,,,,,,,,10,,72,72
4560,note_on,,121,0,7,,,,,,,,,,,,,,,,11,,69,72
4589,note_on,,29,0,5,,,,,,,,,,,,,,,,8,,57,0
4590,note_on,,1,0,5,,,,,,,,,,,,,,,,8,,58,72
4619,note_on,,29,0,5,,,,,,,,,,,,,,,,8,,58,0
4620,note_on,,1,0,5,,,,,,,,,,,,,,,,8,,60,72
4649,note_on,,29,0,5,,,,,,,,,,,,,,,,8,,60,0
4650,note_on,,1,0,5,,,,,,,,,,,,,,,,8,,58,72
4679,note_on,,0,0,10,,,,,,,,,,,,,,,,15,,65,0
4679,note_on,,0,0,10,,,,,,,,,,,,,,,,15,,69,0
4679,note_on,,119,0,10,,,,,,,,,,,,,,,,15,,53,0
4679,note_on,,119,0,7,,,,,,,,,,,,,,,,11,,69,0
4679,note_on,,119,0,8,,,,,,,,,,,,,,,,12,,65,0
4679,note_on,,29,0,5,,,,,,,,,,,,,,,,8,,58,0
4679,note_on,,119,0,6,,,,,,,,,,,,,,,,10,,72,0
4679,note_on,,0,0,10,,,,,,,,,,,,,,,,15,,60,0
4679,note_on,,119,0,9,,,,,,,,,,,,,,,,13,,53,0
4679,note_on,,0,0,10,,,,,,,,,,,,,,,,15,,57,0
4680,note_on,,1,0,5,,,,,,,,,,,,,,,,8,,57,72
4709,note_on,,29,0,5,,,,,,,,,,,,,,,,8,,57,0
4710,note_on,,1,0,5,,,,,,,,,,,,,,,,8,,58,72
4739,note_on,,29,0,5,,,,,,,,,,,,,,,,8,,58,0
4740,note_on,,1,0,5,,,,,,,,,,,,,,,,8,,55,72
4769,note_on,,29,0,5,,,,,,,,,,,,,,,,8,,55,0
4770,note_on,,1,0,5,,,,,,,,,,,,,,,,8,,57,72
4799,note_on,,29,0,5,,,,,,,,,,,,,,,,8,,57,0
4800,note_on,,0,0,10,,,,,,,,,,,,,,,,15,,72,72
4800,note_on,,0,0,10,,,,,,,,,,,,,,,,15,,65,72
4800,note_on,,0,0,10,,,,,,,,,,,,,,,,15,,53,72
4800,note_on,,0,0,10,,,,,,,,,,,,,,,,15,,60,72
4800,note_on,,121,0,7,,,,,,,,,,,,,,,,11,,72,72
4800,note_on,,121,0,10,,,,,,,,,,,,,,,,15,,45,72
4800,note_on,,121,0,8,,,,,,,,,,,,,,,,12,,65,72
4800,note_on,,121,0,6,,,,,,,,,,,,,,,,10,,77,72
4800,note_on,,1,0,5,,,,,,,,,,,,,,,,8,,53,72
4800,note_on,,121,0,9,,,,,,,,,,,,,,,,13,,45,72
4829,note_on,,29,0,5,,,,,,,,,,,,,,,,8,,53,0
4830,note_on,,1,0,5,,,,,,,,,,,,,,,,8,,55,72
4859,note_on,,29,0,5,,,,,,,,,,,,,,,,8,,55,0
4860,note_on,,1,0,5,,,,,,,,,,,,,,,,8,,57,72
4889,note_on,,29,0,5,,,,,,,,,,,,,,,,8,,57,0
4890,note_on,,1,0,5,,,,,,,,,,,,,,,,8,,55,72
4919,note_on,,119,0,10,,,,,,,,,,,,,,,,15,,45,0
4919,note_on,,0,0,10,,,,,,,,,,,,,,,,15,,72,0
4919,note_on,,0,0,10,,,,,,,,,,,,,,,,15,,65,0
4919,note_on,,0,0,10,,,,,,,,,,,,,,,,15,,60,0
4919,note_on,,0,0,10,,,,,,,,,,,,,,,,15,,53,0
4919,note_on,,29,0,5,,,,,,,,,,,,,,,,8,,55,0
4919,note_on,,119,0,6,,,,,,,,,,,,,,,,10,,77,0
4919,note_on,,119,0,8,,,,,,,,,,,,,,,,12,,65,0
4919,note_on,,119,0,7,,,,,,,,,,,,,,,,11,,72,0
4919,note_on,,119,0,9,,,,,,,,,,,,,,,,13,,45,0
4920,note_on,,1,0,5,,,,,,,,,,,,,,,,8,,53,72
4949,note_on,,29,0,5,,,,,,,,,,,,,,,,8,,53,0
4950,note_on,,1,0,5,,,,,,,,,,,,,,,,8,,55,72
4979,note_on,,29,0,5,,,,,,,,,,,,,,,,8,,55,0
4980,note_on,,1,0,5,,,,,,,,,,,,,,,,8,,52,72
5009,note_on,,29,0,5,,,,,,,,,,,,,,,,8,,52,0
5010,note_on,,1,0,5,,,,,,,,,,,,,,,,8,,53,72
5039,note_on,,29,0,5,,,,,,,,,,,,,,,,8,,53,0
5040,note_on,,121,0,7,,,,,,,,,,,,,,,,11,,62,72
5040,note_on,,0,0,10,,,,,,,,,,,,,,,,15,,65,72
5040,note_on,,121,0,8,,,,,,,,,,,,,,,,12,,58,72
5040,note_on,,0,0,10,,,,,,,,,,,,,,,,15,,70,72
5040,note_on,,121,0,9,,,,,,,,,,,,,,,,13,,46,72
5040,note_on,,0,0,10,,,,,,,,,,,,,,,,15,,74,72
5040,note_on,,0,0,10,,,,,,,,,,,,,,,,15,,53,72
5040,note_on,,1,0,5,,,,,,,,,,,,,,,,8,,50,72
5040,note_on,,121,0,6,,,,,,,,,,,,,,,,10,,65,72
5040,note_on,,121,0,10,,,,,,,,,,,,,,,,15,,46,72
5069,note_on,,29,0,5,,,,,,,,,,,,,,,,8,,50,0
5070,note_on,,1,0,5,,,,,,,,,,,,,,,,8,,52,72
5099,note_on,,29,0,5,,,,,,,,,,,,,,,,8,,52,0
5100,note_on,,1,0,5,,,,,,,,,,,,,,,,8,,53,72
5129,note_on,,29,0,5,,,,,,,,,,,,,,,,8,,53,0
5130,note_on,,1,0,5,,,,,,,,,,,,,,,,8,,52,72
5159,note_on,,29,0,5,,,,,,,,,,,,,,,,8,,52,0
5159,note_on,,119,0,8,,,,,,,,,,,,,,,,12,,58,0
5159,note_on,,0,0,10,,,,,,,,,,,,,,,,15,,53,0
5159,note_on,,0,0,10,,,,,,,,,,,,,,,,15,,65,0
5159,note_on,,0,0,10,,,,,,,,,,,,,,,,15,,70,0
5159,note_on,,0,0,10,,,,,,,,,,,,,,,,15,,74,0
5159,note_on,,119,0,9,,,,,,,,,,,,,,,,13,,46,0
5159,note_on,,119,0,10,,,,,,,,,,,,,,,,15,,46,0
5159,note_on,,119,0,6,,,,,,,,,,,,,,,,10,,65,0
5159,note_on,,119,0,7,,,,,,,,,,,,,,,,11,,62,0
5160,note_on,,1,0,5,,,,,,,,,,,,,,,,8,,50,72
5189,note_on,,29,0,5,,,,,,,,,,,,,,,,8,,50,0
5190,note_on,,1,0,5,,,,,,,,,,,,,,,,8,,52,72
5219,note_on,,29,0,5,,,,,,,,,,,,,,,,8,,52,0
5220,note_on,,1,0,5,,,,,,,,,,,,,,,,8,,48,72
5249,note_on,,29,0,5,,,,,,,,,,,,,,,,8,,48,0
5250,note_on,,1,0,5,,,,,,,,,,,,,,,,8,,50,72
5279,note_on,,29,0,5,,,,,,,,,,,,,,,,8,,50,0
5280,note_on,,121,0,6,,,,,,,,,,,,,,,,10,,70,72
5280,note_on,,121,0,10,,,,,,,,,,,,,,,,15,,38,72
5280,note_on,,0,0,10,,,,,,,,,,,,,,,,15,,70,72
5280,note_on,,0,0,10,,,,,,,,,,,,,,,,15,,65,72
5280,note_on,,0,0,10,,,,,,,,,,,,,,,,15,,58,72
5280,note_on,,0,0,10,,,,,,,,,,,,,,,,15,,50,72
5280,note_on,,1,0,5,,,,,,,,,,,,,,,,8,,46,72
5280,note_on,,121,0,8,,,,,,,,,,,,,,,,12,,58,72
5280,note_on,,121,0,9,,,,,,,,,,,,,,,,13,,38,72
5280,note_on,,121,0,7,,,,,,,,,,,,,,,,11,,65,72
5339,note_on,,59,0,5,,,,,,,,,,,,,,,,8,,46,0
5370,note_on,,31,0,5,,,,,,,,,,,,,,,,8,,62,72
5399,note_on,,119,0,10,,,,,,,,,,,,,,,,15,,38,0
5399,note_on,,0,0,10,,,,,,,,,,,,,,,,15,,65,0
5399,note_on,,119,0,6,,,,,,,,,,,,,,,,10,,70,0
5399,note_on,,119,0,7,,,,,,,,,,,,,,,,11,,65,0
5399,note_on,,119,0,9,,,,,,,,,,,,,,,,13,,38,0
5399,note_on,,0,0,10,,,,,,,,,,,,,,,,15,,58,0
5399,note_on,,29,0,5,,,,,,,,,,,,,,,,8,,62,0
5399,note_on,,0,0,10,,,,,,,,,,,,,,,,15,,50,0
5399,note_on,,0,0,10,,,,,,,,,,,,,,,,15,,70,0
5399,note_on,,119,0,8,,,,,,,,,,,,,,,,12,,58,0
5400,note_on,,1,0,5,,,,,,,,,,,,,,,,8,,62,72
5459,note_on,,59,0,5,,,,,,,,,,,,,,,,8,,62,0
5460,note_on,,1,0,5,,,,,,,,,,,,,,,,8,,62,72
5519,note_on,,59,0,5,,,,,,,,,,,,,,,,8,,62,0
5520,note_on,,121,0,7,,,,,,,,,,,,,,,,11,,70,72
5520,note_on,,121,0,6,,,,,,,,,,,,,,,,10,,74,72
5520,note_on,,121,0,8,,,,,,,,,,,,,,,,12,,67,72
5520,note_on,,0,0,10,,,,,,,,,,,,,,,,15,,58,72
5520,note_on,,0,0,10,,,,,,,,,,,,,,,,15,,67,72
5520,note_on,,0,0,10,,,,,,,,,,,,,,,,15,,62,72
5520,note_on,,121,0,9,,,,,,,,,,,,,,,,13,,43,72
5520,note_on,,0,0,10,,,,,,,,,,,,,,,,15,,50,72
5520,note_on,,1,0,5,,,,,,,,,,,,,,,,8,,58,72
5520,note_on,,121,0,10,,,,,,,,,,,,,,,,15,,43,72
5549,note_on,,29,0,5,,,,,,,,,,,,,,,,8,,58,0
5550,note_on,,1,0,5,,,,,,,,,,,,,,,,8,,60,72
5579,note_on,,29,0,5,,,,,,,,,,,,,,,,8,,60,0
5580,note_on,,1,0,5,,,,,,,,,,,,,,,,8,,62,72
5609,note_on,,29,0,5,,,,,,,,,,,,,,,,8,,62,0
5610,note_on,,1,0,5,,,,,,,,,,,,,,,,8,,60,72
5639,note_on,,0,0,10,,,,,,,,,,,,,,,,15,,50,0
5639,note_on,,119,0,7,,,,,,,,,,,,,,,,11,,70,0
5639,note_on,,119,0,8,,,,,,,,,,,,,,,,12,,67,0
5639,note_on,,0,0,10,,,,,,,,,,,,,,,,15,,58,0
5639,note_on,,119,0,10,,,,,,,,,,,,,,,,15,,43,0
5639,note_on,,0,0,10,,,,,,,,,,,,,,,,15,,67,0
5639,note_on,,0,0,10,,,,,,,,,,,,,,,,15,,62,0
5639,note_on,,29,0,5,,,,,,,,,,,,,,,,8,,60,0
5639,note_on,,119,0,6,,,,,,,,,,,,,,,,10,,74,0
5639,note_on,,119,0,9,,,,,,,,,,,,,,,,13,,43,0
5640,note_on,,1,0,5,,,,,,,,,,,,,,,,8,,58,72
5669,note_on,,29,0,5,,,,,,,,,,,,,,,,8,,58,0
5670,note_on,,1,0,5,,,,,,,,,,,,,,,,8,,60,72
5699,note_on,,29,0,5,,,,,,,,,,,,,,,,8,,60,0
5700,note_on,,1,0,5,,,,,,,,,,,,,,,,8,,57,72
5729,note_on,,29,0,5,,,,,,,,,,,,,,,,8,,57,0
5730,note_on,,1,0,5,,,,,,,,,,,,,,,,8,,58,72
5759,note_on,,29,0,5,,,,,,,,,,,,,,,,8,,58,0
5760,note_on,,0,0,10,,,,,,,,,,,,,,,,15,,67,72
5760,note_on,,1,0,5,,,,,,,,,,,,,,,,8,,55,72
5760,note_on,,0,0,10,,,,,,,,,,,,,,,,15,,74,72
5760,note_on,,121,0,6,,,,,,,,,,,,,,,,10,,79,72
5760,note_on,,0,0,10,,,,,,,,,,,,,,,,15,,62,72
5760,note_on,,121,0,9,,,,,,,,,,,,,,,,13,,46,72
5760,note_on,,121,0,8,,,,,,,,,,,,,,,,12,,67,72
5760,note_on,,0,0,10,,,,,,,,,,,,,,,,15,,46,72
5760,note_on,,121,0,10,,,,,,,,,,,,,,,,15,,50,72
5760,note_on,,121,0,7,,,,,,,,,,,,,,,,11,,74,72
5789,note_on,,29,0,5,,,,,,,,,,,,,,,,8,,55,0
5790,note_on,,1,0,5,,,,,,,,,,,,,,,,8,,57,72
5819,note_on,,29,0,5,,,,,,,,,,,,,,,,8,,57,0
5820,note_on,,1,0,5,,,,,,,,,,,,,,,,8,,58,72
5849,note_on,,29,0,5,,,,,,,,,,,,,,,,8,,58,0
5850,note_on,,1,0,5,,,,,,,,,,,,,,,,8,,57,72
5879,note_on,,0,0,10,,,,,,,,,,,,,,,,15,,46,0
5879,note_on,,0,0,10,,,,,,,,,,,,,,,,15,,62,0
5879,note_on,,119,0,6,,,,,,,,,,,,,,,,10,,79,0
5879,note_on,,119,0,7,,,,,,,,,,,,,,,,11,,74,0
5879,note_on,,119,0,10,,,,,,,,,,,,,,,,15,,50,0
5879,note_on,,0,0,10,,,,,,,,,,,,,,,,15,,74,0
5879,note_on,,29,0,5,,,,,,,,,,,,,,,,8,,57,0
5879,note_on,,119,0,9,,,,,,,,,,,,,,,,13,,46,0
5879,note_on,,119,0,8,,,,,,,,,,,,,,,,12,,67,0
5879,note_on,,0,0,10,,,,,,,,,,,,,,,,15,,67,0
5880,note_on,,1,0,5,,,,,,,,,,,,,,,,8,,55,72
5909,note_on,,29,0,5,,,,,,,,,,,,,,,,8,,55,0
5910,note_on,,1,0,5,,,,,,,,,,,,,,,,8,,57,72
5939,note_on,,29,0,5,,,,,,,,,,,,,,,,8,,57,0
5940,note_on,,1,0,5,,,,,,,,,,,,,,,,8,,53,72
5969,note_on,,29,0,5,,,,,,,,,,,,,,,,8,,53,0
5970,note_on,,1,0,5,,,,,,,,,,,,,,,,8,,55,72
5999,note_on,,29,0,5,,,,,,,,,,,,,,,,8,,55,0
6000,note_on,,121,0,9,,,,,,,,,,,,,,,,13,,48,72
6000,note_on,,121,0,8,,,,,,,,,,,,,,,,12,,60,72
6000,note_on,,0,0,10,,,,,,,,,,,,,,,,15,,64,72
6000,note_on,,0,0,10,,,,,,,,,,,,,,,,15,,60,72
6000,note_on,,121,0,7,,,,,,,,,,,,,,,,11,,64,72
6000,note_on,,0,0,10,,,,,,,,,,,,,,,,15,,67,72
6000,note_on,,121,0,6,,,,,,,,,,,,,,,,10,,67,72
6000,note_on,,0,0,10,,,,,,,,,,,,,,,,15,,55,72
6000,note_on,,121,0,10,,,,,,,,,,,,,,,,15,,48,72
6000,note_on,,1,0,5,,,,,,,,,,,,,,,,8,,52,72
6029,note_on,,29,0,5,,,,,,,,,,,,,,,,8,,52,0
6030,note_on,,1,0,5,,,,,,,,,,,,,,,,8,,53,72
6059,note_on,,29,0,5,,,,,,,,,,,,,,,,8,,53,0
6060,note_on,,1,0,5,,,,,,,,,,,,,,,,8,,55,72
6089,note_on,,29,0,5,,,,,,,,,,,,,,,,8,,55,0
6090,note_on,,1,0,5,,,,,,,,,,,,,,,,8,,53,72
6119,note_on,,0,0,10,,,,,,,,,,,,,,,,15,,55,0
6119,note_on,,119,0,6,,,,,,,,,,,,,,,,10,,67,0
6119,note_on,,119,0,10,,,,,,,,,,,,,,,,15,,48,0
6119,note_on,,0,0,10,,,,,,,,,,,,,,,,15,,60,0
6119,note_on,,0,0,10,,,,,,,,,,,,,,,,15,,64,0
6119,note_on,,0,0,10,,,,,,,,,,,,,,,,15,,67,0
6119,note_on,,119,0,7,,,,,,,,,,,,,,,,11,,64,0
6119,note_on,,29,0,5,,,,,,,,,,,,,,,,8,,53,0
6119,note_on,,119,0,8,,,,,,,,,,,,,,,,12,,60,0
6119,note_on,,119,0,9,,,,,,,,,,,,,,,,13,,48,0
6120,note_on,,1,0,5,,,,,,,,,,,,,,,,8,,52,72
6149,note_on,,29,0,5,,,,,,,,,,,,,,,,8,,52,0
6150,note_on,,1,0,5,,,,,,,,,,,,,,,,8,,53,72
6179,note_on,,29,0,5,,,,,,,,,,,,,,,,8,,53,0
6180,note_on,,1,0,5,,,,,,,,,,,,,,,,8,,50,72
6209,note_on,,29,0,5,,,,,,,,,,,,,,,,8,,50,0
6210,note_on,,1,0,5,,,,,,,,,,,,,,,,8,,52,72
6239,note_on,,29,0,5,,,,,,,,,,,,,,,,8,,52,0
6240,note_on,,0,0,10,,,,,,,,,,,,,,,,15,,72,72
6240,note_on,,121,0,9,,,,,,,,,,,,,,,,13,,40,72
6240,note_on,,0,0,10,,,,,,,,,,,,,,,,15,,67,72
6240,note_on,,0,0,10,,,,,,,,,,,,,,,,15,,60,72
6240,note_on,,0,0,10,,,,,,,,,,,,,,,,15,,48,72
6240,note_on,,1,0,5,,,,,,,,,,,,,,,,8,,48,72
6240,note_on,,121,0,10,,,,,,,,,,,,,,,,15,,40,72
6270,note_on,,151,0,8,,,,,,,,,,,,,,,,12,,64,72
6270,note_on,,151,0,6,,,,,,,,,,,,,,,,10,,72,72
6270,note_on,,151,0,7,,,,,,,,,,,,,,,,11,,67,72
6299,note_on,,29,0,6,,,,,,,,,,,,,,,,10,,72,0
6299,note_on,,29,0,7,,,,,,,,,,,,,,,,11,,67,0
6299,note_on,,29,0,8,,,,,,,,,,,,,,,,12,,64,0
6300,note_on,,1,0,8,,,,,,,,,,,,,,,,12,,64,72
6300,note_on,,1,0,7,,,,,,,,,,,,,,,,11,,67,72
6300,note_on,,1,0,6,,,,,,,,,,,,,,,,10,,72,72
6329,note_on,,29,0,6,,,,,,,,,,,,,,,,10,,72,0
6329,note_on,,29,0,7,,,,,,,,,,,,,,,,11,,67,0
6329,note_on,,29,0,8,,,,,,,,,,,,,,,,12,,64,0
6330,note_on,,1,0,8,,,,,,,,,,,,,,,,12,,64,72
6330,note_on,,1,0,6,,,,,,,,,,,,,,,,10,,72,72
6330,note_on,,1,0,7,,,,,,,,,,,,,,,,11,,67,72
6359,note_on,,29,0,6,,,,,,,,,,,,,,,,10,,72,0
6359,note_on,,119,0,5,,,,,,,,,,,,,,,,8,,48,0
6359,note_on,,0,0,10,,,,,,,,,,,,,,,,15,,48,0
6359,note_on,,0,0,10,,,,,,,,,,,,,,,,15,,60,0
6359,note_on,,0,0,10,,,,,,,,,,,,,,,,15,,67,0
6359,note_on,,0,0,10,,,,,,,,,,,,,,,,15,,72,0
6359,note_on,,119,0,10,,,,,,,,,,,,,,,,15,,40,0
6359,note_on,,29,0,7,,,,,,,,,,,,,,,,11,,67,0
6359,note_on,,119,0,9,,,,,,,,,,,,,,,,13,,40,0
6359,note_on,,29,0,8,,,,,,,,,,,,,,,,12,,64,0
6360,note_on,,1,0,7,,,,,,,,,,,,,,,,11,,67,72
6360,note_on,,1,0,6,,,,,,,,,,,,,,,,10,,72,72
6360,note_on,,1,0,8,,,,,,,,,,,,,,,,12,,64,72
6389,note_on,,29,0,7,,,,,,,,,,,,,,,,11,,67,0
6389,note_on,,29,0,6,,,,,,,,,,,,,,,,10,,72,0
6389,note_on,,29,0,8,,,,,,,,,,,,,,,,12,,64,0
6390,note_on,,1,0,7,,,,,,,,,,,,,,,,11,,67,72
6390,note_on,,1,0,6,,,,,,,,,,,,,,,,10,,72,72
6390,note_on,,1,0,8,,,,,,,,,,,,,,,,12,,64,72
6419,note_on,,29,0,8,,,,,,,,,,,,,,,,12,,64,0
6419,note_on,,29,0,7,,,,,,,,,,,,,,,,11,,67,0
6419,note_on,,29,0,6,,,,,,,,,,,,,,,,10,,72,0
6420,note_on,,0,0,10,,,,,,,,,,,,,,,,15,,64,72
6420,note_on,,1,0,8,,,,,,,,,,,,,,,,12,,64,72
6420,note_on,,61,0,9,,,,,,,,,,,,,,,,13,,60,72
6420,note_on,,0,0,10,,,,,,,,,,,,,,,,15,,67,72
6420,note_on,,1,0,7,,,,,,,,,,,,,,,,11,,67,72
6420,note_on,,61,0,10,,,,,,,,,,,,,,,,15,,60,72
6420,note_on,,1,0,6,,,,,,,,,,,,,,,,10,,72,72
6420,note_on,,61,0,5,,,,,,,,,,,,,,,,8,,60,72
6449,note_on,,29,0,6,,,,,,,,,,,,,,,,10,,72,0
6449,note_on,,29,0,7,,,,,,,,,,,,,,,,11,,67,0
6449,note_on,,29,0,8,,,,,,,,,,,,,,,,12,,64,0
6450,note_on,,1,0,7,,,,,,,,,,,,,,,,11,,67,72
6450,note_on,,1,0,8,,,,,,,,,,,,,,,,12,,64,72
6450,note_on,,1,0,6,,,,,,,,,,,,,,,,10,,72,72
6479,note_on,,29,0,6,,,,,,,,,,,,,,,,10,,72,0
6479,note_on,,59,0,9,,,,,,,,,,,,,,,,13,,60,0
6479,note_on,,0,0,10,,,,,,,,,,,,,,,,15,,64,0
6479,note_on,,59,0,10,,,,,,,,,,,,,,,,15,,60,0
6479,note_on,,59,0,5,,,,,,,,,,,,,,,,8,,60,0
6479,note_on,,29,0,8,,,,,,,,,,,,,,,,12,,64,0
6479,note_on,,0,0,10,,,,,,,,,,,,,,,,15,,67,0
6479,note_on,,29,0,7,,,,,,,,,,,,,,,,11,,67,0
6480,note_on,,1,0,5,,,,,,,,,,,,,,,,8,,57,72
6480,note_on,,1,0,8,,,,,,,,,,,,,,,,12,,69,72
6480,note_on,,1,0,7,,,,,,,,,,,,,,,,11,,72,72
6480,note_on,,1,0,6,,,,,,,,,,,,,,,,10,,77,72
6480,note_on,,0,0,10,,,,,,,,,,,,,,,,15,,65,72
6480,note_on,,0,0,10,,,,,,,,,,,,,,,,15,,69,72
6480,note_on,,0,0,10,,,,,,,,,,,,,,,,15,,60,72
6480,note_on,,1,0,10,,,,,,,,,,,,,,,,15,,57,72
6480,note_on,,1,0,9,,,,,,,,,,,,,,,,13,,57,72
6509,note_on,,29,0,7,,,,,,,,,,,,,,,,11,,72,0
6509,note_on,,29,0,6,,,,,,,,,,,,,,,,10,,77,0
6509,note_on,,29,0,8,,,,,,,,,,,,,,,,12,,69,0
6510,note_on,,1,0,6,,,,,,,,,,,,,,,,10,,77,72
6510,note_on,,1,0,7,,,,,,,,,,,,,,,,11,,72,72
6510,note_on,,1,0,8,,,,,,,,,,,,,,,,12,,69,72
6539,note_on,,29,0,6,,,,,,,,,,,,,,,,10,,77,0
6539,note_on,,59,0,5,,,,,,,,,,,,,,,,8,,57,0
6539,note_on,,29,0,7,,,,,,,,,,,,,,,,11,,72,0
6539,note_on,,59,0,10,,,,,,,,,,,,,,,,15,,57,0
6539,note_on,,0,0,10,,,,,,,,,,,,,,,,15,,60,0
6539,note_on,,59,0,9,,,,,,,,,,,,,,,,13,,57,0
6539,note_on,,29,0,8,,,,,,,,,,,,,,,,12,,69,0
6540,note_on,,1,0,10,,,,,,,,,,,,,,,,15,,53,72
6540,note_on,,1,0,5,,,,,,,,,,,,,,,,8,,53,72
6540,note_on,,0,0,10,,,,,,,,,,,,,,,,15,,57,72
6540,note_on,,1,0,9,,,,,,,,,,,,,,,,13,,53,72
6540,note_on,,1,0,7,,,,,,,,,,,,,,,,11,,72,72
6540,note_on,,1,0,6,,,,,,,,,,,,,,,,10,,77,72
6540,note_on,,1,0,8,,,,,,,,,,,,,,,,12,,69,72
6569,note_on,,29,0,8,,,,,,,,,,,,,,,,12,,69,0
6569,note_on,,29,0,6,,,,,,,,,,,,,,,,10,,77,0
6569,note_on,,29,0,7,,,,,,,,,,,,,,,,11,,72,0
6570,note_on,,1,0,6,,,,,,,,,,,,,,,,10,,77,72
6570,note_on,,1,0,8,,,,,,,,,,,,,,,,12,,69,72
6570,note_on,,1,0,7,,,,,,,,,,,,,,,,11,,72,72
6599,note_on,,59,0,5,,,,,,,,,,,,,,,,8,,53,0
6599,note_on,,29,0,8,,,,,,,,,,,,,,,,12,,69,0
6599,note_on,,59,0,9,,,,,,,,,,,,,,,,13,,53,0
6599,note_on,,0,0,10,,,,,,,,,,,,,,,,15,,57,0
6599,note_on,,29,0,6,,,,,,,,,,,,,,,,10,,77,0
6599,note_on,,29,0,7,,,,,,,,,,,,,,,,11,,72,0
6599,note_on,,0,0,10,,,,,,,,,,,,,,,,15,,53,0
6599,note_on,,0,0,10,,,,,,,,,,,,,,,,15,,65,0
6599,note_on,,59,0,10,,,,,,,,,,,,,,,,15,,69,0
6600,note_on,,1,0,7,,,,,,,,,,,,,,,,11,,72,72
6600,note_on,,1,0,8,,,,,,,,,,,,,,,,12,,69,72
6600,note_on,,1,0,6,,,,,,,,,,,,,,,,10,,77,72
6629,note_on,,29,0,6,,,,,,,,,,,,,,,,10,,77,0
6629,note_on,,29,0,8,,,,,,,,,,,,,,,,12,,69,0
6629,note_on,,29,0,7,,,,,,,,,,,,,,,,11,,72,0
6630,note_on,,1,0,6,,,,,,,,,,,,,,,,10,,77,72
6630,note_on,,1,0,7,,,,,,,,,,,,,,,,11,,72,72
6630,note_on,,1,0,8,,,,,,,,,,,,,,,,12,,69,72
6659,note_on,,29,0,8,,,,,,,,,,,,,,,,12,,69,0
6659,note_on,,29,0,7,,,,,,,,,,,,,,,,11,,72,0
6659,note_on,,29,0,6,,,,,,,,,,,,,,,,10,,77,0
6660,note_on,,0,0,10,,,,,,,,,,,,,,,,15,,60,72
6660,note_on,,0,0,10,,,,,,,,,,,,,,,,15,,72,72
6660,note_on,,61,0,10,,,,,,,,,,,,,,,,15,,53,72
6660,note_on,,0,0,10,,,,,,,,,,,,,,,,15,,65,72
6660,note_on,,0,0,10,,,,,,,,,,,,,,,,15,,57,72
6660,note_on,,61,0,9,,,,,,,,,,,,,,,,13,,53,72
6660,note_on,,1,0,6,,,,,,,,,,,,,,,,10,,77,72
6660,note_on,,61,0,5,,,,,,,,,,,,,,,,8,,53,72
6660,note_on,,1,0,7,,,,,,,,,,,,,,,,11,,72,72
6660,note_on,,1,0,8,,,,,,,,,,,,,,,,12,,69,72
6689,note_on,,29,0,6,,,,,,,,,,,,,,,,10,,77,0
6689,note_on,,29,0,7,,,,,,,,,,,,,,,,11,,72,0
6689,note_on,,29,0,8,,,,,,,,,,,,,,,,12,,69,0
6690,note_on,,1,0,8,,,,,,,,,,,,,,,,12,,69,72
6690,note_on,,1,0,6,,,,,,,,,,,,,,,,10,,77,72
6690,note_on,,1,0,7,,,,,,,,,,,,,,,,11,,72,72
6719,note_on,,0,0,10,,,,,,,,,,,,,,,,15,,72,0
6719,note_on,,59,0,5,,,,,,,,,,,,,,,,8,,53,0
6719,note_on,,0,0,10,,,,,,,,,,,,,,,,15,,65,0
6719,note_on,,0,0,10,,,,,,,,,,,,,,,,15,,60,0
6719,note_on,,0,0,10,,,,,,,,,,,,,,,,15,,57,0
6719,note_on,,29,0,8,,,,,,,,,,,,,,,,12,,69,0
6719,note_on,,29,0,7,,,,,,,,,,,,,,,,11,,72,0
6719,note_on,,59,0,9,,,,,,,,,,,,,,,,13,,53,0
6719,note_on,,59,0,10,,,,,,,,,,,,,,,,15,,53,0
6719,note_on,,29,0,6,,,,,,,,,,,,,,,,10,,77,0
6720,note_on,,0,0,10,,,,,,,,,,,,,,,,15,,70,72
6720,note_on,,0,0,10,,,,,,,,,,,,,,,,15,,65,72
6720,note_on,,1,0,8,,,,,,,,,,,,,,,,12,,65,72
6720,note_on,,1,0,10,,,,,,,,,,,,,,,,15,,58,72
6720,note_on,,1,0,6,,,,,,,,,,,,,,,,10,,74,72
6720,note_on,,1,0,5,,,,,,,,,,,,,,,,8,,58,72
6720,note_on,,0,0,10,,,,,,,,,,,,,,,,15,,62,72
6720,note_on,,1,0,9,,,,,,,,,,,,,,,,13,,58,72
6720,note_on,,1,0,7,,,,,,,,,,,,,,,,11,,70,72
6749,note_on,,29,0,9,,,,,,,,,,,,,,,,13,,58,0
6749,note_on,,29,0,10,,,,,,,,,,,,,,,,15,,58,0
6749,note_on,,29,0,8,,,,,,,,,,,,,,,,12,,65,0
6749,note_on,,29,0,7,,,,,,,,,,,,,,,,11,,70,0
6749,note_on,,29,0,6,,,,,,,,,,,,,,,,10,,74,0
6750,note_on,,1,0,9,,,,,,,,,,,,,,,,13,,58,72
6750,note_on,,1,0,10,,,,,,,,,,,,,,,,15,,58,72
6750,note_on,,1,0,6,,,,,,,,,,,,,,,,10,,74,72
6750,note_on,,1,0,8,,,,,,,,,,,,,,,,12,,65,72
6750,note_on,,1,0,7,,,,,,,,,,,,,,,,11,,70,72
6779,note_on,,29,0,10,,,,,,,,,,,,,,,,15,,58,0
6779,note_on,,29,0,6,,,,,,,,,,,,,,,,10,,74,0
6779,note_on,,29,0,7,,,,,,,,,,,,,,,,11,,70,0
6779,note_on,,29,0,9,,,,,,,,,,,,,,,,13,,58,0
6779,note_on,,29,0,8,,,,,,,,,,,,,,,,12,,65,0
6780,note_on,,1,0,7,,,,,,,,,,,,,,,,11,,70,72
6780,note_on,,1,0,8,,,,,,,,,,,,,,,,12,,62,72
6780,note_on,,1,0,9,,,,,,,,,,,,,,,,13,,58,72
6780,note_on,,1,0,10,,,,,,,,,,,,,,,,15,,58,72
6780,note_on,,1,0,6,,,,,,,,,,,,,,,,10,,74,72
6809,note_on,,29,0,7,,,,,,,,,,,,,,,,11,,70,0
6809,note_on,,29,0,8,,,,,,,,,,,,,,,,12,,62,0
6809,note_on,,29,0,10,,,,,,,,,,,,,,,,15,,58,0
6809,note_on,,29,0,9,,,,,,,,,,,,,,,,13,,58,0
6809,note_on,,29,0,6,,,,,,,,,,,,,,,,10,,74,0
6810,note_on,,1,0,9,,,,,,,,,,,,,,,,13,,58,72
6810,note_on,,1,0,8,,,,,,,,,,,,,,,,12,,62,72
6810,note_on,,1,0,10,,,,,,,,,,,,,,,,15,,58,72
6810,note_on,,1,0,7,,,,,,,,,,,,,,,,11,,70,72
6810,note_on,,1,0,6,,,,,,,,,,,,,,,,10,,74,72
6839,note_on,,0,0,10,,,,,,,,,,,,,,,,15,,58,0
6839,note_on,,0,0,10,,,,,,,,,,,,,,,,15,,62,0
6839,note_on,,29,0,10,,,,,,,,,,,,,,,,15,,70,0
6839,note_on,,29,0,8,,,,,,,,,,,,,,,,12,,62,0
6839,note_on,,0,0,10,,,,,,,,,,,,,,,,15,,65,0
6839,note_on,,29,0,6,,,,,,,,,,,,,,,,10,,74,0
6839,note_on,,29,0,7,,,,,,,,,,,,,,,,11,,70,0
6839,note_on,,119,0,5,,,,,,,,,,,,,,,,8,,58,0
6839,note_on,,29,0,9,,,,,,,,,,,,,,,,13,,58,0
6840,note_on,,0,0,10,,,,,,,,,,,,,,,,15,,58,72
6840,note_on,,0,0,10,,,,,,,,,,,,,,,,15,,67,72
6840,note_on,,0,0,10,,,,,,,,,,,,,,,,15,,70,72
6840,note_on,,0,0,10,,,,,,,,,,,,,,,,15,,74,72
6840,note_on,,1,0,10,,,,,,,,,,,,,,,,15,,55,72
6840,note_on,,1,0,7,,,,,,,,,,,,,,,,11,,70,72
6840,note_on,,1,0,8,,,,,,,,,,,,,,,,12,,62,72
6840,note_on,,1,0,9,,,,,,,,,,,,,,,,13,,55,72
6840,note_on,,1,0,6,,,,,,,,,,,,,,,,10,,79,72
6869,note_on,,29,0,10,,,,,,,,,,,,,,,,15,,55,0
6869,note_on,,29,0,6,,,,,,,,,,,,,,,,10,,79,0
6869,note_on,,29,0,7,,,,,,,,,,,,,,,,11,,70,0
6869,note_on,,29,0,8,,,,,,,,,,,,,,,,12,,62,0
6869,note_on,,29,0,9,,,,,,,,,,,,,,,,13,,55,0
6870,note_on,,1,0,6,,,,,,,,,,,,,,,,10,,79,72
6870,note_on,,1,0,9,,,,,,,,,,,,,,,,13,,55,72
6870,note_on,,1,0,8,,,,,,,,,,,,,,,,12,,62,72
6870,note_on,,1,0,10,,,,,,,,,,,,,,,,15,,55,72
6870,note_on,,1,0,7,,,,,,,,,,,,,,,,11,,70,72
6899,note_on,,29,0,10,,,,,,,,,,,,,,,,15,,55,0
6899,note_on,,29,0,6,,,,,,,,,,,,,,,,10,,79,0
6899,note_on,,29,0,9,,,,,,,,,,,,,,,,13,,55,0
6899,note_on,,29,0,8,,,,,,,,,,,,,,,,12,,62,0
6899,note_on,,29,0,7,,,,,,,,,,,,,,,,11,,70,0
6900,note_on,,1,0,6,,,,,,,,,,,,,,,,10,,79,72
6900,note_on,,1,0,7,,,,,,,,,,,,,,,,11,,70,72
6900,note_on,,1,0,9,,,,,,,,,,,,,,,,13,,55,72
6900,note_on,,1,0,10,,,,,,,,,,,,,,,,15,,55,72
6900,note_on,,1,0,8,,,,,,,,,,,,,,,,12,,62,72
6900,note_on,,61,0,5,,,,,,,,,,,,,,,,8,,55,72
6929,note_on,,29,0,8,,,,,,,,,,,,,,,,12,,62,0
6929,note_on,,29,0,6,,,,,,,,,,,,,,,,10,,79,0
6929,note_on,,29,0,10,,,,,,,,,,,,,,,,15,,55,0
6929,note_on,,29,0,9,,,,,,,,,,,,,,,,13,,55,0
6929,note_on,,29,0,7,,,,,,,,,,,,,,,,11,,70,0
6930,note_on,,1,0,8,,,,,,,,,,,,,,,,12,,62,72
6930,note_on,,1,0,7,,,,,,,,,,,,,,,,11,,70,72
6930,note_on,,1,0,9,,,,,,,,,,,,,,,,13,,55,72
6930,note_on,,1,0,6,,,,,,,,,,,,,,,,10,,79,72
6930,note_on,,1,0,10,,,,,,,,,,,,,,,,15,,55,72
6959,note_on,,29,0,6,,,,,,,,,,,,,,,,10,,79,0
6959,note_on,,29,0,8,,,,,,,,,,,,,,,,12,,62,0
6959,note_on,,29,0,9,,,,,,,,,,,,,,,,13,,55,0
6959,note_on,,59,0,5,,,,,,,,,,,,,,,,8,,55,0
6959,note_on,,29,0,10,,,,,,,,,,,,,,,,15,,74,0
6959,note_on,,0,0,10,,,,,,,,,,,,,,,,15,,70,0
6959,note_on,,0,0,10,,,,,,,,,,,,,,,,15,,67,0
6959,note_on,,0,0,10,,,,,,,,,,,,,,,,15,,58,0
6959,note_on,,0,0,10,,,,,,,,,,,,,,,,15,,55,0
6959,note_on,,29,0,7,,,,,,,,,,,,,,,,11,,70,0
6960,note_on,,1,0,7,,,,,,,,,,,,,,,,11,,67,72
6960,note_on,,1,0,8,,,,,,,,,,,,,,,,12,,72,72
6960,note_on,,0,0,10,,,,,,,,,,,,,,,,15,,64,72
6960,note_on,,1,0,5,,,,,,,,,,,,,,,,8,,60,72
6960,note_on,,0,0,10,,,,,,,,,,,,,,,,15,,67,72
6960,note_on,,0,0,10,,,,,,,,,,,,,,,,15,,72,72
6960,note_on,,1,0,9,,,,,,,,,,,,,,,,13,,60,72
6960,note_on,,1,0,6,,,,,,,,,,,,,,,,10,,76,72
6960,note_on,,1,0,10,,,,,,,,,,,,,,,,15,,60,72
6989,note_on,,29,0,8,,,,,,,,,,,,,,,,12,,72,0
6989,note_on,,29,0,9,,,,,,,,,,,,,,,,13,,60,0
6989,note_on,,29,0,6,,,,,,,,,,,,,,,,10,,76,0
6989,note_on,,29,0,10,,,,,,,,,,,,,,,,15,,60,0
6989,note_on,,29,0,7,,,,,,,,,,,,,,,,11,,67,0
6990,note_on,,1,0,9,,,,,,,,,,,,,,,,13,,60,72
6990,note_on,,1,0,7,,,,,,,,,,,,,,,,11,,67,72
6990,note_on,,1,0,8,,,,,,,,,,,,,,,,12,,72,72
6990,note_on,,1,0,10,,,,,,,,,,,,,,,,15,,60,72
6990,note_on,,1,0,6,,,,,,,,,,,,,,,,10,,76,72
7019,note_on,,29,0,7,,,,,,,,,,,,,,,,11,,67,0
7019,note_on,,29,0,8,,,,,,,,,,,,,,,,12,,72,0
7019,note_on,,29,0,9,,,,,,,,,,,,,,,,13,,60,0
7019,note_on,,29,0,10,,,,,,,,,,,,,,,,15,,60,0
7019,note_on,,29,0,6,,,,,,,,,,,,,,,,10,,76,0
7020,note_on,,1,0,8,,,,,,,,,,,,,,,,12,,72,72
7020,note_on,,1,0,7,,,,,,,,,,,,,,,,11,,67,72
7020,note_on,,1,0,9,,,,,,,,,,,,,,,,13,,60,72
7020,note_on,,1,0,10,,,,,,,,,,,,,,,,15,,60,72
7020,note_on,,1,0,6,,,,,,,,,,,,,,,,10,,76,72
7049,note_on,,29,0,8,,,,,,,,,,,,,,,,12,,72,0
7049,note_on,,29,0,7,,,,,,,,,,,,,,,,11,,67,0
7049,note_on,,29,0,10,,,,,,,,,,,,,,,,15,,60,0
7049,note_on,,29,0,9,,,,,,,,,,,,,,,,13,,60,0
7049,note_on,,29,0,6,,,,,,,,,,,,,,,,10,,76,0
7050,note_on,,1,0,7,,,,,,,,,,,,,,,,11,,67,72
7050,note_on,,1,0,9,,,,,,,,,,,,,,,,13,,60,72
7050,note_on,,1,0,6,,,,,,,,,,,,,,,,10,,76,72
7050,note_on,,1,0,10,,,,,,,,,,,,,,,,15,,60,72
7050,note_on,,1,0,8,,,,,,,,,,,,,,,,12,,72,72
7079,note_on,,0,0,10,,,,,,,,,,,,,,,,15,,60,0
7079,note_on,,29,0,9,,,,,,,,,,,,,,,,13,,60,0
7079,note_on,,119,0,5,,,,,,,,,,,,,,,,8,,60,0
7079,note_on,,29,0,8,,,,,,,,,,,,,,,,12,,72,0
7079,note_on,,29,0,7,,,,,,,,,,,,,,,,11,,67,0
7079,note_on,,29,0,10,,,,,,,,,,,,,,,,15,,72,0
7079,note_on,,29,0,6,,,,,,,,,,,,,,,,10,,76,0
7079,note_on,,0,0,10,,,,,,,,,,,,,,,,15,,64,0
7079,note_on,,0,0,10,,,,,,,,,,,,,,,,15,,67,0
7080,note_on,,1,0,8,,,,,,,,,,,,,,,,12,,64,72
7080,note_on,,1,0,6,,,,,,,,,,,,,,,,10,,81,72
7080,note_on,,1,0,10,,,,,,,,,,,,,,,,15,,57,72
7080,note_on,,1,0,9,,,,,,,,,,,,,,,,13,,57,72
7080,note_on,,1,0,7,,,,,,,,,,,,,,,,11,,72,72
7080,note_on,,0,0,10,,,,,,,,,,,,,,,,15,,76,72
7080,note_on,,0,0,10,,,,,,,,,,,,,,,,15,,60,72
7080,note_on,,0,0,10,,,,,,,,,,,,,,,,15,,69,72
7080,note_on,,0,0,10,,,,,,,,,,,,,,,,15,,72,72
7109,note_on,,29,0,6,,,,,,,,,,,,,,,,10,,81,0
7109,note_on,,29,0,10,,,,,,,,,,,,,,,,15,,57,0
7109,note_on,,29,0,8,,,,,,,,,,,,,,,,12,,64,0
7109,note_on,,29,0,9,,,,,,,,,,,,,,,,13,,57,0
7109,note_on,,29,0,7,,,,,,,,,,,,,,,,11,,72,0
7110,note_on,,1,0,10,,,,,,,,,,,,,,,,15,,57,72
7110,note_on,,1,0,8,,,,,,,,,,,,,,,,12,,64,72
7110,note_on,,1,0,6,,,,,,,,,,,,,,,,10,,81,72
7110,note_on,,1,0,9,,,,,,,,,,,,,,,,13,,57,72
7110,note_on,,1,0,7,,,,,,,,,,,,,,,,11,,72,72
7139,note_on,,29,0,6,,,,,,,,,,,,,,,,10,,81,0
7139,note_on,,29,0,10,,,,,,,,,,,,,,,,15,,57,0
7139,note_on,,29,0,7,,,,,,,,,,,,,,,,11,,72,0
7139,note_on,,29,0,8,,,,,,,,,,,,,,,,12,,64,0
7139,note_on,,29,0,9,,,,,,,,,,,,,,,,13,,57,0
7140,note_on,,1,0,9,,,,,,,,,,,,,,,,13,,57,72
7140,note_on,,1,0,7,,,,,,,,,,,,,,,,11,,72,72
7140,note_on,,1,0,10,,,,,,,,,,,,,,,,15,,57,72
7140,note_on,,1,0,6,,,,,,,,,,,,,,,,10,,81,72
7140,note_on,,1,0,8,,,,,,,,,,,,,,,,12,,64,72
7140,note_on,,61,0,5,,,,,,,,,,,,,,,,8,,57,72
7169,note_on,,29,0,10,,,,,,,,,,,,,,,,15,,57,0
7169,note_on,,29,0,8,,,,,,,,,,,,,,,,12,,64,0
7169,note_on,,29,0,6,,,,,,,,,,,,,,,,10,,81,0
7169,note_on,,29,0,7,,,,,,,,,,,,,,,,11,,72,0
7169,note_on,,29,0,9,,,,,,,,,,,,,,,,13,,57,0
7170,note_on,,1,0,8,,,,,,,,,,,,,,,,12,,64,72
7170,note_on,,1,0,10,,,,,,,,,,,,,,,,15,,57,72
7170,note_on,,1,0,6,,,,,,,,,,,,,,,,10,,81,72
7170,note_on,,1,0,9,,,,,,,,,,,,,,,,13,,57,72
7170,note_on,,1,0,7,,,,,,,,,,,,,,,,11,,72,72
7199,note_on,,29,0,6,,,,,,,,,,,,,,,,10,,81,0
7199,note_on,,59,0,5,,,,,,,,,,,,,,,,8,,57,0
7199,note_on,,29,0,10,,,,,,,,,,,,,,,,15,,76,0
7199,note_on,,0,0,10,,,,,,,,,,,,,,,,15,,72,0
7199,note_on,,0,0,10,,,,,,,,,,,,,,,,15,,69,0
7199,note_on,,0,0,10,,,,,,,,,,,,,,,,15,,60,0
7199,note_on,,0,0,10,,,,,,,,,,,,,,,,15,,57,0
7199,note_on,,29,0,8,,,,,,,,,,,,,,,,12,,64,0
7199,note_on,,29,0,7,,,,,,,,,,,,,,,,11,,72,0
7199,note_on,,29,0,9,,,,,,,,,,,,,,,,13,,57,0
7200,note_on,,1,0,8,,,,,,,,,,,,,,,,12,,65,72
7200,note_on,,1,0,9,,,,,,,,,,,,,,,,13,,50,72
7200,note_on,,1,0,7,,,,,,,,,,,,,,,,11,,72,72
7200,note_on,,1,0,6,,,,,,,,,,,,,,,,10,,77,72
7200,note_on,,0,0,10,,,,,,,,,,,,,,,,15,,69,72
7200,note_on,,0,0,10,,,,,,,,,,,,,,,,15,,77,72
7200,note_on,,1,0,10,,,,,,,,,,,,,,,,15,,50,72
7200,note_on,,1,0,5,,,,,,,,,,,,,,,,8,,50,72
7200,note_on,,0,0,10,,,,,,,,,,,,,,,,15,,57,72
7200,note_on,,0,0,10,,,,,,,,,,,,,,,,15,,72,72
7229,note_on,,29,0,7,,,,,,,,,,,,,,,,11,,72,0
7229,note_on,,29,0,9,,,,,,,,,,,,,,,,13,,50,0
7229,note_on,,29,0,8,,,,,,,,,,,,,,,,12,,65,0
7229,note_on,,29,0,10,,,,,,,,,,,,,,,,15,,50,0
7229,note_on,,29,0,6,,,,,,,,,,,,,,,,10,,77,0
7230,note_on,,1,0,9,,,,,,,,,,,,,,,,13,,50,72
7230,note_on,,1,0,8,,,,,,,,,,,,,,,,12,,65,72
7230,note_on,,1,0,6,,,,,,,,,,,,,,,,10,,77,72
7230,note_on,,1,0,7,,,,,,,,,,,,,,,,11,,72,72
7230,note_on,,1,0,10,,,,,,,,,,,,,,,,15,,50,72
7259,note_on,,29,0,8,,,,,,,,,,,,,,,,12,,65,0
7259,note_on,,29,0,7,,,,,,,,,,,,,,,,11,,72,0
7259,note_on,,29,0,10,,,,,,,,,,,,,,,,15,,50,0
7259,note_on,,29,0,9,,,,,,,,,,,,,,,,13,,50,0
7259,note_on,,29,0,6,,,,,,,,,,,,,,,,10,,77,0
7260,note_on,,1,0,8,,,,,,,,,,,,,,,,12,,65,72
7260,note_on,,1,0,9,,,,,,,,,,,,,,,,13,,50,72
7260,note_on,,1,0,10,,,,,,,,,,,,,,,,15,,50,72
7260,note_on,,1,0,6,,,,,,,,,,,,,,,,10,,77,72
7260,note_on,,1,0,7,,,,,,,,,,,,,,,,11,,72,72
7289,note_on,,29,0,10,,,,,,,,,,,,,,,,15,,50,0
7289,note_on,,29,0,9,,,,,,,,,,,,,,,,13,,50,0
7289,note_on,,29,0,7,,,,,,,,,,,,,,,,11,,72,0
7289,note_on,,29,0,6,,,,,,,,,,,,,,,,10,,77,0
7289,note_on,,29,0,8,,,,,,,,,,,,,,,,12,,65,0
7290,note_on,,1,0,10,,,,,,,,,,,,,,,,15,,50,72
7290,note_on,,1,0,9,,,,,,,,,,,,,,,,13,,50,72
7290,note_on,,1,0,6,,,,,,,,,,,,,,,,10,,77,72
7290,note_on,,1,0,8,,,,,,,,,,,,,,,,12,,65,72
7290,note_on,,1,0,7,,,,,,,,,,,,,,,,11,,72,72
7319,note_on,,29,0,9,,,,,,,,,,,,,,,,13,,50,0
7319,note_on,,0,0,10,,,,,,,,,,,,,,,,15,,57,0
7319,note_on,,0,0,10,,,,,,,,,,,,,,,,15,,69,0
7319,note_on,,29,0,10,,,,,,,,,,,,,,,,15,,72,0
7319,note_on,,29,0,8,,,,,,,,,,,,,,,,12,,65,0
7319,note_on,,119,0,5,,,,,,,,,,,,,,,,8,,50,0
7319,note_on,,0,0,10,,,,,,,,,,,,,,,,15,,50,0
7319,note_on,,29,0,6,,,,,,,,,,,,,,,,10,,77,0
7319,note_on,,29,0,7,,,,,,,,,,,,,,,,11,,72,0
7320,note_on,,1,0,9,,,,,,,,,,,,,,,,13,,55,72
7320,note_on,,1,0,8,,,,,,,,,,,,,,,,12,,65,72
7320,note_on,,1,0,7,,,,,,,,,,,,,,,,11,,70,72
7320,note_on,,0,0,10,,,,,,,,,,,,,,,,15,,65,72
7320,note_on,,1,0,6,,,,,,,,,,,,,,,,10,,82,72
7320,note_on,,0,0,10,,,,,,,,,,,,,,,,15,,58,72
7320,note_on,,0,0,10,,,,,,,,,,,,,,,,15,,70,72
7320,note_on,,1,0,10,,,,,,,,,,,,,,,,15,,55,72
7349,note_on,,29,0,8,,,,,,,,,,,,,,,,12,,65,0
7349,note_on,,29,0,9,,,,,,,,,,,,,,,,13,,55,0
7349,note_on,,29,0,6,,,,,,,,,,,,,,,,10,,82,0
7349,note_on,,29,0,7,,,,,,,,,,,,,,,,11,,70,0
7349,note_on,,29,0,10,,,,,,,,,,,,,,,,15,,55,0
7350,note_on,,1,0,6,,,,,,,,,,,,,,,,10,,82,72
7350,note_on,,1,0,10,,,,,,,,,,,,,,,,15,,55,72
7350,note_on,,1,0,9,,,,,,,,,,,,,,,,13,,55,72
7350,note_on,,1,0,8,,,,,,,,,,,,,,,,12,,65,72
7350,note_on,,1,0,7,,,,,,,,,,,,,,,,11,,70,72
7379,note_on,,29,0,10,,,,,,,,,,,,,,,,15,,55,0
7379,note_on,,29,0,7,,,,,,,,,,,,,,,,11,,70,0
7379,note_on,,29,0,6,,,,,,,,,,,,,,,,10,,82,0
7379,note_on,,29,0,9,,,,,,,,,,,,,,,,13,,55,0
7379,note_on,,29,0,8,,,,,,,,,,,,,,,,12,,65,0
7380,note_on,,1,0,6,,,,,,,,,,,,,,,,10,,82,72
7380,note_on,,1,0,9,,,,,,,,,,,,,,,,13,,55,72
7380,note_on,,1,0,7,,,,,,,,,,,,,,,,11,,70,72
7380,note_on,,1,0,10,,,,,,,,,,,,,,,,15,,55,72
7380,note_on,,1,0,8,,,,,,,,,,,,,,,,12,,65,72
7380,note_on,,61,0,5,,,,,,,,,,,,,,,,8,,55,72
7409,note_on,,29,0,8,,,,,,,,,,,,,,,,12,,65,0
7409,note_on,,29,0,9,,,,,,,,,,,,,,,,13,,55,0
7409,note_on,,29,0,6,,,,,,,,,,,,,,,,10,,82,0
7409,note_on,,29,0,7,,,,,,,,,,,,,,,,11,,70,0
7409,note_on,,29,0,10,,,,,,,,,,,,,,,,15,,55,0
7410,note_on,,1,0,9,,,,,,,,,,,,,,,,13,,55,72
7410,note_on,,1,0,7,,,,,,,,,,,,,,,,11,,70,72
7410,note_on,,1,0,8,,,,,,,,,,,,,,,,12,,65,72
7410,note_on,,1,0,6,,,,,,,,,,,,,,,,10,,82,72
7410,note_on,,1,0,10,,,,,,,,,,,,,,,,15,,55,72
7439,note_on,,29,0,9,,,,,,,,,,,,,,,,13,,55,0
7439,note_on,,29,0,8,,,,,,,,,,,,,,,,12,,65,0
7439,note_on,,0,0,10,,,,,,,,,,,,,,,,15,,55,0
7439,note_on,,0,0,10,,,,,,,,,,,,,,,,15,,65,0
7439,note_on,,0,0,10,,,,,,,,,,,,,,,,15,,70,0
7439,note_on,,29,0,10,,,,,,,,,,,,,,,,15,,77,0
7439,note_on,,0,0,10,,,,,,,,,,,,,,,,15,,58,0
7439,note_on,,29,0,6,,,,,,,,,,,,,,,,10,,82,0
7439,note_on,,59,0,5,,,,,,,,,,,,,,,,8,,55,0
7439,note_on,,29,0,7,,,,,,,,,,,,,,,,11,,70,0
7440,note_on,,1,0,9,,,,,,,,,,,,,,,,13,,48,72
7440,note_on,,0,0,10,,,,,,,,,,,,,,,,15,,76,72
7440,note_on,,1,0,6,,,,,,,,,,,,,,,,10,,82,72
7440,note_on,,1,0,10,,,,,,,,,,,,,,,,15,,48,72
7440,note_on,,0,0,10,,,,,,,,,,,,,,,,15,,67,72
7440,note_on,,0,0,10,,,,,,,,,,,,,,,,15,,70,72
7440,note_on,,0,0,10,,,,,,,,,,,,,,,,15,,55,72
7440,note_on,,1,0,5,,,,,,,,,,,,,,,,8,,48,72
7440,note_on,,1,0,7,,,,,,,,,,,,,,,,11,,76,72
7440,note_on,,1,0,8,,,,,,,,,,,,,,,,12,,64,72
7469,note_on,,29,0,10,,,,,,,,,,,,,,,,15,,48,0
7469,note_on,,29,0,9,,,,,,,,,,,,,,,,13,,48,0
7469,note_on,,29,0,6,,,,,,,,,,,,,,,,10,,82,0
7469,note_on,,29,0,7,,,,,,,,,,,,,,,,11,,76,0
7469,note_on,,29,0,8,,,,,,,,,,,,,,,,12,,64,0
7470,note_on,,1,0,8,,,,,,,,,,,,,,,,12,,64,72
7470,note_on,,1,0,7,,,,,,,,,,,,,,,,11,,76,72
7470,note_on,,1,0,10,,,,,,,,,,,,,,,,15,,48,72
7470,note_on,,1,0,6,,,,,,,,,,,,,,,,10,,82,72
7470,note_on,,1,0,9,,,,,,,,,,,,,,,,13,,48,72
7499,note_on,,29,0,7,,,,,,,,,,,,,,,,11,,76,0
7499,note_on,,29,0,6,,,,,,,,,,,,,,,,10,,82,0
7499,note_on,,29,0,10,,,,,,,,,,,,,,,,15,,48,0
7499,note_on,,29,0,8,,,,,,,,,,,,,,,,12,,64,0
7499,note_on,,29,0,9,,,,,,,,,,,,,,,,13,,48,0
7500,note_on,,1,0,10,,,,,,,,,,,,,,,,15,,48,72
7500,note_on,,1,0,9,,,,,,,,,,,,,,,,13,,48,72
7500,note_on,,1,0,8,,,,,,,,,,,,,,,,12,,64,72
7500,note_on,,1,0,7,,,,,,,,,,,,,,,,11,,76,72
7500,note_on,,1,0,6,,,,,,,,,,,,,,,,10,,82,72
7529,note_on,,29,0,10,,,,,,,,,,,,,,,,15,,48,0
7529,note_on,,29,0,7,,,,,,,,,,,,,,,,11,,76,0
7529,note_on,,29,0,6,,,,,,,,,,,,,,,,10,,82,0
7529,note_on,,29,0,9,,,,,,,,,,,,,,,,13,,48,0
7529,note_on,,29,0,8,,,,,,,,,,,,,,,,12,,64,0
7530,note_on,,1,0,7,,,,,,,,,,,,,,,,11,,76,72
7530,note_on,,1,0,8,,,,,,,,,,,,,,,,12,,64,72
7530,note_on,,1,0,9,,,,,,,,,,,,,,,,13,,48,72
7530,note_on,,1,0,10,,,,,,,,,,,,,,,,15,,48,72
7530,note_on,,1,0,6,,,,,,,,,,,,,,,,10,,82,72
7559,note_on,,0,0,10,,,,,,,,,,,,,,,,15,,48,0
7559,note_on,,29,0,8,,,,,,,,,,,,,,,,12,,64,0
7559,note_on,,29,0,10,,,,,,,,,,,,,,,,15,,55,0
7559,note_on,,29,0,6,,,,,,,,,,,,,,,,10,,82,0
7559,note_on,,0,0,10,,,,,,,,,,,,,,,,15,,70,0
7559,note_on,,29,0,9,,,,,,,,,,,,,,,,13,,48,0
7559,note_on,,29,0,7,,,,,,,,,,,,,,,,11,,76,0
7559,note_on,,0,0,10,,,,,,,,,,,,,,,,15,,67,0
7559,note_on,,119,0,5,,,,,,,,,,,,,,,,8,,48,0
7560,note_on,,0,0,10,,,,,,,,,,,,,,,,15,,69,72
7560,note_on,,0,0,10,,,,,,,,,,,,,,,,15,,65,72
7560,note_on,,1,0,9,,,,,,,,,,,,,,,,13,,53,72
7560,note_on,,1,0,8,,,,,,,,,,,,,,,,12,,72,72
7560,note_on,,1,0,10,,,,,,,,,,,,,,,,15,,53,72
7560,note_on,,1,0,7,,,,,,,,,,,,,,,,11,,76,72
7560,note_on,,0,0,10,,,,,,,,,,,,,,,,15,,57,72
7560,note_on,,1,0,6,,,,,,,,,,,,,,,,10,,81,72
7589,note_on,,29,0,9,,,,,,,,,,,,,,,,13,,53,0
7589,note_on,,29,0,7,,,,,,,,,,,,,,,,11,,76,0
7589,note_on,,29,0,10,,,,,,,,,,,,,,,,15,,53,0
7589,note_on,,29,0,6,,,,,,,,,,,,,,,,10,,81,0
7589,note_on,,29,0,8,,,,,,,,,,,,,,,,12,,72,0
7590,note_on,,1,0,10,,,,,,,,,,,,,,,,15,,53,72
7590,note_on,,1,0,6,,,,,,,,,,,,,,,,10,,81,72
7590,note_on,,1,0,8,,,,,,,,,,,,,,,,12,,72,72
7590,note_on,,1,0,9,,,,,,,,,,,,,,,,13,,53,72
7590,note_on,,1,0,7,,,,,,,,,,,,,,,,11,,76,72
7619,note_on,,29,0,7,,,,,,,,,,,,,,,,11,,76,0
7619,note_on,,29,0,6,,,,,,,,,,,,,,,,10,,81,0
7619,note_on,,29,0,9,,,,,,,,,,,,,,,,13,,53,0
7619,note_on,,29,0,8,,,,,,,,,,,,,,,,12,,72,0
7619,note_on,,29,0,10,,,,,,,,,,,,,,,,15,,53,0
7620,note_on,,1,0,9,,,,,,,,,,,,,,,,13,,53,72
7620,note_on,,1,0,6,,,,,,,,,,,,,,,,10,,81,72
7620,note_on,,1,0,7,,,,,,,,,,,,,,,,11,,76,72
7620,note_on,,1,0,10,,,,,,,,,,,,,,,,15,,53,72
7620,note_on,,61,0,5,,,,,,,,,,,,,,,,8,,53,72
7620,note_on,,1,0,8,,,,,,,,,,,,,,,,12,,72,72
7649,note_on,,29,0,8,,,,,,,,,,,,,,,,12,,72,0
7649,note_on,,29,0,6,,,,,,,,,,,,,,,,10,,81,0
7649,note_on,,29,0,9,,,,,,,,,,,,,,,,13,,53,0
7649,note_on,,29,0,10,,,,,,,,,,,,,,,,15,,53,0
7649,note_on,,29,0,7,,,,,,,,,,,,,,,,11,,76,0
7650,note_on,,1,0,10,,,,,,,,,,,,,,,,15,,53,72
7650,note_on,,1,0,6,,,,,,,,,,,,,,,,10,,81,72
7650,note_on,,1,0,8,,,,,,,,,,,,,,,,12,,72,72
7650,note_on,,1,0,7,,,,,,,,,,,,,,,,11,,76,72
7650,note_on,,1,0,9,,,,,,,,,,,,,,,,13,,53,72
7679,note_on,,29,0,6,,,,,,,,,,,,,,,,10,,81,0
7679,note_on,,29,0,7,,,,,,,,,,,,,,,,11,,76,0
7679,note_on,,0,0,10,,,,,,,,,,,,,,,,15,,53,0
7679,note_on,,59,0,5,,,,,,,,,,,,,,,,8,,53,0
7679,note_on,,29,0,9,,,,,,,,,,,,,,,,13,,53,0
7679,note_on,,0,0,10,,,,,,,,,,,,,,,,15,,65,0
7679,note_on,,29,0,8,,,,,,,,,,,,,,,,12,,72,0
7679,note_on,,0,0,10,,,,,,,,,,,,,,,,15,,69,0
7679,note_on,,0,0,10,,,,,,,,,,,,,,,,15,,57,0
7679,note_on,,29,0,10,,,,,,,,,,,,,,,,15,,76,0
7680,note_on,,1,0,6,,,,,,,,,,,,,,,,10,,81,72
7680,note_on,,1,0,9,,,,,,,,,,,,,,,,13,,58,72
7680,note_on,,1,0,7,,,,,,,,,,,,,,,,11,,74,72
7680,note_on,,1,0,5,,,,,,,,,,,,,,,,8,,58,72
7680,note_on,,0,0,10,,,,,,,,,,,,,,,,15,,74,72
7680,note_on,,1,0,8,,,,,,,,,,,,,,,,12,,70,72
7680,note_on,,0,0,10,,,,,,,,,,,,,,,,15,,62,72
7680,note_on,,0,0,10,,,,,,,,,,,,,,,,15,,70,72
7680,note_on,,1,0,10,,,,,,,,,,,,,,,,15,,58,72
7709,note_on,,29,0,7,,,,,,,,,,,,,,,,11,,74,0
7709,note_on,,29,0,10,,,,,,,,,,,,,,,,15,,58,0
7709,note_on,,29,0,9,,,,,,,,,,,,,,,,13,,58,0
7709,note_on,,29,0,8,,,,,,,,,,,,,,,,12,,70,0
7709,note_on,,29,0,6,,,,,,,,,,,,,,,,10,,81,0
7710,note_on,,1,0,10,,,,,,,,,,,,,,,,15,,58,72
7710,note_on,,1,0,6,,,,,,,,,,,,,,,,10,,81,72
7710,note_on,,1,0,9,,,,,,,,,,,,,,,,13,,58,72
7710,note_on,,1,0,8,,,,,,,,,,,,,,,,12,,70,72
7710,note_on,,1,0,7,,,,,,,,,,,,,,,,11,,74,72
7739,note_on,,29,0,10,,,,,,,,,,,,,,,,15,,58,0
7739,note_on,,29,0,9,,,,,,,,,,,,,,,,13,,58,0
7739,note_on,,59,0,5,,,,,,,,,,,,,,,,8,,58,0
7739,note_on,,29,0,6,,,,,,,,,,,,,,,,10,,81,0
7739,note_on,,29,0,7,,,,,,,,,,,,,,,,11,,74,0
7739,note_on,,29,0,8,,,,,,,,,,,,,,,,12,,70,0
7740,note_on,,1,0,10,,,,,,,,,,,,,,,,15,,58,72
7740,note_on,,1,0,6,,,,,,,,,,,,,,,,10,,81,72
7740,note_on,,1,0,5,,,,,,,,,,,,,,,,8,,58,72
7740,note_on,,1,0,7,,,,,,,,,,,,,,,,11,,74,72
7740,note_on,,1,0,8,,,,,,,,,,,,,,,,12,,70,72
7740,note_on,,1,0,9,,,,,,,,,,,,,,,,13,,58,72
7769,note_on,,29,0,7,,,,,,,,,,,,,,,,11,,74,0
7769,note_on,,29,0,9,,,,,,,,,,,,,,,,13,,58,0
7769,note_on,,29,0,10,,,,,,,,,,,,,,,,15,,58,0
7769,note_on,,29,0,6,,,,,,,,,,,,,,,,10,,81,0
7769,note_on,,29,0,8,,,,,,,,,,,,,,,,12,,70,0
7770,note_on,,1,0,8,,,,,,,,,,,,,,,,12,,70,72
7770,note_on,,1,0,7,,,,,,,,,,,,,,,,11,,74,72
7770,note_on,,1,0,10,,,,,,,,,,,,,,,,15,,58,72
7770,note_on,,1,0,6,,,,,,,,,,,,,,,,10,,81,72
7770,note_on,,1,0,9,,,,,,,,,,,,,,,,13,,58,72
7799,note_on,,29,0,6,,,,,,,,,,,,,,,,10,,81,0
7799,note_on,,0,0,10,,,,,,,,,,,,,,,,15,,70,0
7799,note_on,,29,0,7,,,,,,,,,,,,,,,,11,,74,0
7799,note_on,,29,0,10,,,,,,,,,,,,,,,,15,,74,0
7799,note_on,,29,0,9,,,,,,,,,,,,,,,,13,,58,0
7799,note_on,,59,0,5,,,,,,,,,,,,,,,,8,,58,0
7799,note_on,,0,0,10,,,,,,,,,,,,,,,,15,,62,0
7799,note_on,,0,0,10,,,,,,,,,,,,,,,,15,,58,0
7799,note_on,,29,0,8,,,,,,,,,,,,,,,,12,,70,0
7800,note_on,,1,0,9,,,,,,,,,,,,,,,,13,,58,72
7800,note_on,,1,0,8,,,,,,,,,,,,,,,,12,,70,72
7800,note_on,,1,0,6,,,,,,,,,,,,,,,,10,,79,72
7800,note_on,,1,0,7,,,,,,,,,,,,,,,,11,,74,72
7800,note_on,,1,0,10,,,,,,,,,,,,,,,,15,,58,72
7829,note_on,,29,0,8,,,,,,,,,,,,,,,,12,,70,0
7829,note_on,,29,0,6,,,,,,,,,,,,,,,,10,,79,0
7829,note_on,,29,0,7,,,,,,,,,,,,,,,,11,,74,0
7829,note_on,,29,0,9,,,,,,,,,,,,,,,,13,,58,0
7829,note_on,,29,0,10,,,,,,,,,,,,,,,,15,,58,0
7830,note_on,,1,0,6,,,,,,,,,,,,,,,,10,,79,72
7830,note_on,,1,0,7,,,,,,,,,,,,,,,,11,,74,72
7830,note_on,,1,0,10,,,,,,,,,,,,,,,,15,,58,72
7830,note_on,,1,0,8,,,,,,,,,,,,,,,,12,,70,72
7830,note_on,,1,0,9,,,,,,,,,,,,,,,,13,,58,72
7859,note_on,,29,0,9,,,,,,,,,,,,,,,,13,,58,0
7859,note_on,,29,0,6,,,,,,,,,,,,,,,,10,,79,0
7859,note_on,,29,0,10,,,,,,,,,,,,,,,,15,,58,0
7859,note_on,,29,0,8,,,,,,,,,,,,,,,,12,,70,0
7859,note_on,,29,0,7,,,,,,,,,,,,,,,,11,,74,0
7860,note_on,,1,0,9,,,,,,,,,,,,,,,,13,,55,72
7860,note_on,,1,0,7,,,,,,,,,,,,,,,,11,,70,72
7860,note_on,,1,0,8,,,,,,,,,,,,,,,,12,,62,72
7860,note_on,,0,0,10,,,,,,,,,,,,,,,,15,,74,72
7860,note_on,,0,0,10,,,,,,,,,,,,,,,,15,,70,72
7860,note_on,,0,0,10,,,,,,,,,,,,,,,,15,,79,72
7860,note_on,,1,0,10,,,,,,,,,,,,,,,,15,,55,72
7860,note_on,,61,0,5,,,,,,,,,,,,,,,,8,,55,72
7860,note_on,,1,0,6,,,,,,,,,,,,,,,,10,,79,72
7889,note_on,,29,0,8,,,,,,,,,,,,,,,,12,,62,0
7889,note_on,,29,0,10,,,,,,,,,,,,,,,,15,,55,0
7889,note_on,,29,0,7,,,,,,,,,,,,,,,,11,,70,0
7889,note_on,,29,0,9,,,,,,,,,,,,,,,,13,,55,0
7889,note_on,,29,0,6,,,,,,,,,,,,,,,,10,,79,0
7890,note_on,,1,0,6,,,,,,,,,,,,,,,,10,,79,72
7890,note_on,,1,0,9,,,,,,,,,,,,,,,,13,,55,72
7890,note_on,,1,0,7,,,,,,,,,,,,,,,,11,,70,72
7890,note_on,,1,0,8,,,,,,,,,,,,,,,,12,,62,72
7890,note_on,,1,0,10,,,,,,,,,,,,,,,,15,,55,72
7919,note_on,,29,0,10,,,,,,,,,,,,,,,,15,,79,0
7919,note_on,,59,0,5,,,,,,,,,,,,,,,,8,,55,0
7919,note_on,,29,0,6,,,,,,,,,,,,,,,,10,,79,0
7919,note_on,,0,0,10,,,,,,,,,,,,,,,,15,,70,0
7919,note_on,,0,0,10,,,,,,,,,,,,,,,,15,,55,0
7919,note_on,,29,0,9,,,,,,,,,,,,,,,,13,,55,0
7919,note_on,,29,0,7,,,,,,,,,,,,,,,,11,,70,0
7919,note_on,,29,0,8,,,,,,,,,,,,,,,,12,,62,0
7919,note_on,,0,0,10,,,,,,,,,,,,,,,,15,,74,0
7920,note_on,,1,0,6,,,,,,,,,,,,,,,,10,,79,72
7920,note_on,,1,0,9,,,,,,,,,,,,,,,,13,,62,72
7920,note_on,,1,0,8,,,,,,,,,,,,,,,,12,,62,72
7920,note_on,,0,0,10,,,,,,,,,,,,,,,,15,,67,72
7920,note_on,,0,0,10,,,,,,,,,,,,,,,,15,,69,72
7920,note_on,,1,0,5,,,,,,,,,,,,,,,,8,,62,72
7920,note_on,,1,0,10,,,,,,,,,,,,,,,,15,,62,72
7920,note_on,,0,0,10,,,,,,,,,,,,,,,,15,,74,72
7920,note_on,,1,0,7,,,,,,,,,,,,,,,,11,,69,72
7949,note_on,,29,0,7,,,,,,,,,,,,,,,,11,,69,0
7949,note_on,,29,0,6,,,,,,,,,,,,,,,,10,,79,0
7949,note_on,,29,0,8,,,,,,,,,,,,,,,,12,,62,0
7949,note_on,,29,0,10,,,,,,,,,,,,,,,,15,,62,0
7949,note_on,,29,0,9,,,,,,,,,,,,,,,,13,,62,0
7950,note_on,,1,0,9,,,,,,,,,,,,,,,,13,,62,72
7950,note_on,,1,0,6,,,,,,,,,,,,,,,,10,,79,72
7950,note_on,,1,0,10,,,,,,,,,,,,,,,,15,,62,72
7950,note_on,,1,0,7,,,,,,,,,,,,,,,,11,,69,72
7950,note_on,,1,0,8,,,,,,,,,,,,,,,,12,,62,72
7979,note_on,,29,0,8,,,,,,,,,,,,,,,,12,,62,0
7979,note_on,,29,0,6,,,,,,,,,,,,,,,,10,,79,0
7979,note_on,,29,0,10,,,,,,,,,,,,,,,,15,,62,0
7979,note_on,,29,0,9,,,,,,,,,,,,,,,,13,,62,0
7979,note_on,,59,0,5,,,,,,,,,,,,,,,,8,,62,0
7979,note_on,,29,0,7,,,,,,,,,,,,,,,,11,,69,0
7980,note_on,,1,0,9,,,,,,,,,,,,,,,,13,,62,72
7980,note_on,,1,0,8,,,,,,,,,,,,,,,,12,,62,72
7980,note_on,,1,0,6,,,,,,,,,,,,,,,,10,,79,72
7980,note_on,,1,0,7,,,,,,,,,,,,,,,,11,,69,72
7980,note_on,,1,0,10,,,,,,,,,,,,,,,,15,,62,72
7980,note_on,,1,0,5,,,,,,,,,,,,,,,,8,,62,72
8009,note_on,,29,0,10,,,,,,,,,,,,,,,,15,,62,0
8009,note_on,,29,0,8,,,,,,,,,,,,,,,,12,,62,0
8009,note_on,,29,0,6,,,,,,,,,,,,,,,,10,,79,0
8009,note_on,,29,0,9,,,,,,,,,,,,,,,,13,,62,0
8009,note_on,,29,0,7,,,,,,,,,,,,,,,,11,,69,0
8010,note_on,,1,0,10,,,,,,,,,,,,,,,,15,,62,72
8010,note_on,,1,0,8,,,,,,,,,,,,,,,,12,,62,72
8010,note_on,,1,0,6,,,,,,,,,,,,,,,,10,,79,72
8010,note_on,,1,0,9,,,,,,,,,,,,,,,,13,,62,72
8010,note_on,,1,0,7,,,,,,,,,,,,,,,,11,,69,72
8039,note_on,,29,0,7,,,,,,,,,,,,,,,,11,,69,0
8039,note_on,,29,0,6,,,,,,,,,,,,,,,,10,,79,0
8039,note_on,,29,0,8,,,,,,,,,,,,,,,,12,,62,0
8039,note_on,,0,0,10,,,,,,,,,,,,,,,,15,,67,0
8039,note_on,,0,0,10,,,,,,,,,,,,,,,,15,,69,0
8039,note_on,,29,0,10,,,,,,,,,,,,,,,,15,,74,0
8039,note_on,,29,0,9,,,,,,,,,,,,,,,,13,,62,0
8039,note_on,,59,0,5,,,,,,,,,,,,,,,,8,,62,0
8039,note_on,,0,0,10,,,,,,,,,,,,,,,,15,,62,0
8040,note_on,,1,0,10,,,,,,,,,,,,,,,,15,,57,72
8040,note_on,,0,0,10,,,,,,,,,,,,,,,,15,,77,72
8040,note_on,,0,0,10,,,,,,,,,,,,,,,,15,,72,72
8040,note_on,,0,0,10,,,,,,,,,,,,,,,,15,,65,72
8040,note_on,,1,0,8,,,,,,,,,,,,,,,,12,,60,72
8040,note_on,,1,0,6,,,,,,,,,,,,,,,,10,,77,72
8040,note_on,,1,0,7,,,,,,,,,,,,,,,,11,,72,72
8040,note_on,,0,0,10,,,,,,,,,,,,,,,,15,,60,72
8040,note_on,,1,0,9,,,,,,,,,,,,,,,,13,,57,72
8069,note_on,,29,0,6,,,,,,,,,,,,,,,,10,,77,0
8069,note_on,,29,0,9,,,,,,,,,,,,,,,,13,,57,0
8069,note_on,,29,0,8,,,,,,,,,,,,,,,,12,,60,0
8069,note_on,,29,0,7,,,,,,,,,,,,,,,,11,,72,0
8069,note_on,,29,0,10,,,,,,,,,,,,,,,,15,,57,0
8070,note_on,,1,0,9,,,,,,,,,,,,,,,,13,,57,72
8070,note_on,,1,0,8,,,,,,,,,,,,,,,,12,,60,72
8070,note_on,,1,0,10,,,,,,,,,,,,,,,,15,,57,72
8070,note_on,,1,0,6,,,,,,,,,,,,,,,,10,,77,72
8070,note_on,,1,0,7,,,,,,,,,,,,,,,,11,,72,72
8099,note_on,,29,0,9,,,,,,,,,,,,,,,,13,,57,0
8099,note_on,,29,0,8,,,,,,,,,,,,,,,,12,,60,0
8099,note_on,,29,0,10,,,,,,,,,,,,,,,,15,,57,0
8099,note_on,,29,0,6,,,,,,,,,,,,,,,,10,,77,0
8099,note_on,,29,0,7,,,,,,,,,,,,,,,,11,,72,0
8100,note_on,,61,0,5,,,,,,,,,,,,,,,,8,,57,72
8100,note_on,,1,0,8,,,,,,,,,,,,,,,,12,,60,72
8100,note_on,,1,0,7,,,,,,,,,,,,,,,,11,,72,72
8100,note_on,,1,0,10,,,,,,,,,,,,,,,,15,,57,72
8100,note_on,,1,0,6,,,,,,,,,,,,,,,,10,,77,72
8100,note_on,,1,0,9,,,,,,,,,,,,,,,,13,,57,72
8129,note_on,,29,0,10,,,,,,,,,,,,,,,,15,,57,0
8129,note_on,,29,0,9,,,,,,,,,,,,,,,,13,,57,0
8129,note_on,,29,0,8,,,,,,,,,,,,,,,,12,,60,0
8129,note_on,,29,0,7,,,,,,,,,,,,,,,,11,,72,0
8129,note_on,,29,0,6,,,,,,,,,,,,,,,,10,,77,0
8130,note_on,,1,0,7,,,,,,,,,,,,,,,,11,,72,72
8130,note_on,,1,0,6,,,,,,,,,,,,,,,,10,,77,72
8130,note_on,,1,0,9,,,,,,,,,,,,,,,,13,,57,72
8130,note_on,,1,0,10,,,,,,,,,,,,,,,,15,,57,72
8130,note_on,,1,0,8,,,,,,,,,,,,,,,,12,,60,72
8159,note_on,,0,0,10,,,,,,,,,,,,,,,,15,,65,0
8159,note_on,,59,0,5,,,,,,,,,,,,,,,,8,,57,0
8159,note_on,,0,0,10,,,,,,,,,,,,,,,,15,,60,0
8159,note_on,,29,0,6,,,,,,,,,,,,,,,,10,,77,0
8159,note_on,,29,0,10,,,,,,,,,,,,,,,,15,,77,0
8159,note_on,,29,0,7,,,,,,,,,,,,,,,,11,,72,0
8159,note_on,,0,0,10,,,,,,,,,,,,,,,,15,,72,0
8159,note_on,,0,0,10,,,,,,,,,,,,,,,,15,,57,0
8159,note_on,,29,0,9,,,,,,,,,,,,,,,,13,,57,0
8159,note_on,,29,0,8,,,,,,,,,,,,,,,,12,,60,0
8160,note_on,,1,0,8,,,,,,,,,,,,,,,,12,,67,72
8160,note_on,,1,0,10,,,,,,,,,,,,,,,,15,,60,72
8160,note_on,,0,0,10,,,,,,,,,,,,,,,,15,,65,72
8160,note_on,,1,0,6,,,,,,,,,,,,,,,,10,,77,72
8160,note_on,,1,0,9,,,,,,,,,,,,,,,,13,,60,72
8160,note_on,,1,0,7,,,,,,,,,,,,,,,,11,,72,72
8160,note_on,,0,0,10,,,,,,,,,,,,,,,,15,,72,72
8160,note_on,,0,0,10,,,,,,,,,,,,,,,,15,,67,72
8160,note_on,,1,0,5,,,,,,,,,,,,,,,,8,,60,72
8189,note_on,,29,0,10,,,,,,,,,,,,,,,,15,,60,0
8189,note_on,,29,0,7,,,,,,,,,,,,,,,,11,,72,0
8189,note_on,,29,0,9,,,,,,,,,,,,,,,,13,,60,0
8189,note_on,,29,0,8,,,,,,,,,,,,,,,,12,,67,0
8189,note_on,,29,0,6,,,,,,,,,,,,,,,,10,,77,0
8190,note_on,,1,0,10,,,,,,,,,,,,,,,,15,,60,72
8190,note_on,,1,0,7,,,,,,,,,,,,,,,,11,,72,72
8190,note_on,,1,0,6,,,,,,,,,,,,,,,,10,,77,72
8190,note_on,,1,0,9,,,,,,,,,,,,,,,,13,,60,72
8190,note_on,,1,0,8,,,,,,,,,,,,,,,,12,,67,72
8219,note_on,,29,0,10,,,,,,,,,,,,,,,,15,,60,0
8219,note_on,,29,0,7,,,,,,,,,,,,,,,,11,,72,0
8219,note_on,,29,0,6,,,,,,,,,,,,,,,,10,,77,0
8219,note_on,,29,0,9,,,,,,,,,,,,,,,,13,,60,0
8219,note_on,,29,0,8,,,,,,,,,,,,,,,,12,,67,0
8220,note_on,,1,0,6,,,,,,,,,,,,,,,,10,,77,72
8220,note_on,,1,0,9,,,,,,,,,,,,,,,,13,,60,72
8220,note_on,,1,0,7,,,,,,,,,,,,,,,,11,,72,72
8220,note_on,,1,0,8,,,,,,,,,,,,,,,,12,,67,72
8220,note_on,,1,0,10,,,,,,,,,,,,,,,,15,,60,72
8249,note_on,,29,0,8,,,,,,,,,,,,,,,,12,,67,0
8249,note_on,,29,0,10,,,,,,,,,,,,,,,,15,,60,0
8249,note_on,,29,0,6,,,,,,,,,,,,,,,,10,,77,0
8249,note_on,,29,0,7,,,,,,,,,,,,,,,,11,,72,0
8249,note_on,,29,0,9,,,,,,,,,,,,,,,,13,,60,0
8250,note_on,,1,0,6,,,,,,,,,,,,,,,,10,,77,72
8250,note_on,,1,0,8,,,,,,,,,,,,,,,,12,,67,72
8250,note_on,,1,0,7,,,,,,,,,,,,,,,,11,,72,72
8250,note_on,,1,0,10,,,,,,,,,,,,,,,,15,,60,72
8250,note_on,,1,0,9,,,,,,,,,,,,,,,,13,,60,72
8279,note_on,,29,0,9,,,,,,,,,,,,,,,,13,,60,0
8279,note_on,,0,0,10,,,,,,,,,,,,,,,,15,,60,0
8279,note_on,,0,0,10,,,,,,,,,,,,,,,,15,,65,0
8279,note_on,,0,0,10,,,,,,,,,,,,,,,,15,,67,0
8279,note_on,,29,0,8,,,,,,,,,,,,,,,,12,,67,0
8279,note_on,,29,0,10,,,,,,,,,,,,,,,,15,,72,0
8279,note_on,,29,0,7,,,,,,,,,,,,,,,,11,,72,0
8279,note_on,,29,0,6,,,,,,,,,,,,,,,,10,,77,0
8279,note_on,,119,0,5,,,,,,,,,,,,,,,,8,,60,0
8280,note_on,,0,0,10,,,,,,,,,,,,,,,,15,,60,72
8280,note_on,,1,0,10,,,,,,,,,,,,,,,,15,,48,72
8280,note_on,,0,0,10,,,,,,,,,,,,,,,,15,,67,72
8280,note_on,,0,0,10,,,,,,,,,,,,,,,,15,,64,72
8280,note_on,,1,0,7,,,,,,,,,,,,,,,,11,,72,72
8280,note_on,,1,0,6,,,,,,,,,,,,,,,,10,,76,72
8280,note_on,,1,0,8,,,,,,,,,,,,,,,,12,,67,72
8280,note_on,,1,0,9,,,,,,,,,,,,,,,,13,,48,72
8309,note_on,,29,0,6,,,,,,,,,,,,,,,,10,,76,0
8309,note_on,,29,0,10,,,,,,,,,,,,,,,,15,,48,0
8309,note_on,,29,0,7,,,,,,,,,,,,,,,,11,,72,0
8309,note_on,,29,0,9,,,,,,,,,,,,,,,,13,,48,0
8309,note_on,,29,0,8,,,,,,,,,,,,,,,,12,,67,0
8310,note_on,,1,0,10,,,,,,,,,,,,,,,,15,,48,72
8310,note_on,,1,0,7,,,,,,,,,,,,,,,,11,,72,72
8310,note_on,,1,0,9,,,,,,,,,,,,,,,,13,,48,72
8310,note_on,,1,0,8,,,,,,,,,,,,,,,,12,,67,72
8310,note_on,,1,0,6,,,,,,,,,,,,,,,,10,,76,72
8339,note_on,,29,0,9,,,,,,,,,,,,,,,,13,,48,0
8339,note_on,,29,0,8,,,,,,,,,,,,,,,,12,,67,0
8339,note_on,,29,0,6,,,,,,,,,,,,,,,,10,,76,0
8339,note_on,,29,0,10,,,,,,,,,,,,,,,,15,,48,0
8339,note_on,,29,0,7,,,,,,,,,,,,,,,,11,,72,0
8340,note_on,,1,0,10,,,,,,,,,,,,,,,,15,,48,72
8340,note_on,,1,0,6,,,,,,,,,,,,,,,,10,,76,72
8340,note_on,,1,0,8,,,,,,,,,,,,,,,,12,,67,72
8340,note_on,,1,0,7,,,,,,,,,,,,,,,,11,,72,72
8340,note_on,,1,0,9,,,,,,,,,,,,,,,,13,,48,72
8369,note_on,,29,0,8,,,,,,,,,,,,,,,,12,,67,0
8369,note_on,,29,0,6,,,,,,,,,,,,,,,,10,,76,0
8369,note_on,,29,0,10,,,,,,,,,,,,,,,,15,,48,0
8369,note_on,,29,0,9,,,,,,,,,,,,,,,,13,,48,0
8369,note_on,,29,0,7,,,,,,,,,,,,,,,,11,,72,0
8370,note_on,,1,0,10,,,,,,,,,,,,,,,,15,,48,72
8370,note_on,,1,0,9,,,,,,,,,,,,,,,,13,,48,72
8370,note_on,,1,0,8,,,,,,,,,,,,,,,,12,,67,72
8370,note_on,,1,0,7,,,,,,,,,,,,,,,,11,,72,72
8370,note_on,,1,0,6,,,,,,,,,,,,,,,,10,,76,72
8399,note_on,,0,0,10,,,,,,,,,,,,,,,,15,,64,0
8399,note_on,,0,0,10,,,,,,,,,,,,,,,,15,,60,0
8399,note_on,,0,0,10,,,,,,,,,,,,,,,,15,,48,0
8399,note_on,,29,0,8,,,,,,,,,,,,,,,,12,,67,0
8399,note_on,,29,0,7,,,,,,,,,,,,,,,,11,,72,0
8399,note_on,,29,0,6,,,,,,,,,,,,,,,,10,,76,0
8399,note_on,,29,0,9,,,,,,,,,,,,,,,,13,,48,0
8399,note_on,,29,0,10,,,,,,,,,,,,,,,,15,,67,0
8400,note_on,,1,0,10,,,,,,,,,,,,,,,,15,,65,72
8400,note_on,,1,0,7,,,,,,,,,,,,,,,,11,,72,72
8400,note_on,,1,0,9,,,,,,,,,,,,,,,,13,,50,72
8400,note_on,,0,0,10,,,,,,,,,,,,,,,,15,,50,72
8400,note_on,,0,0,10,,,,,,,,,,,,,,,,15,,62,72
8400,note_on,,0,0,10,,,,,,,,,,,,,,,,15,,60,72
8400,note_on,,1,0,6,,,,,,,,,,,,,,,,10,,77,72
8400,note_on,,1,0,8,,,,,,,,,,,,,,,,12,,65,72
8429,note_on,,29,0,9,,,,,,,,,,,,,,,,13,,50,0
8429,note_on,,29,0,10,,,,,,,,,,,,,,,,15,,50,0
8429,note_on,,29,0,7,,,,,,,,,,,,,,,,11,,72,0
8429,note_on,,29,0,8,,,,,,,,,,,,,,,,12,,65,0
8429,note_on,,29,0,6,,,,,,,,,,,,,,,,10,,77,0
8430,note_on,,1,0,10,,,,,,,,,,,,,,,,15,,50,72
8430,note_on,,1,0,7,,,,,,,,,,,,,,,,11,,72,72
8430,note_on,,1,0,8,,,,,,,,,,,,,,,,12,,65,72
8430,note_on,,1,0,6,,,,,,,,,,,,,,,,10,,77,72
8430,note_on,,1,0,9,,,,,,,,,,,,,,,,13,,50,72
8459,note_on,,29,0,6,,,,,,,,,,,,,,,,10,,77,0
8459,note_on,,29,0,9,,,,,,,,,,,,,,,,13,,50,0
8459,note_on,,29,0,8,,,,,,,,,,,,,,,,12,,65,0
8459,note_on,,29,0,10,,,,,,,,,,,,,,,,15,,50,0
8459,note_on,,29,0,7,,,,,,,,,,,,,,,,11,,72,0
8460,note_on,,1,0,7,,,,,,,,,,,,,,,,11,,72,72
8460,note_on,,1,0,9,,,,,,,,,,,,,,,,13,,50,72
8460,note_on,,1,0,6,,,,,,,,,,,,,,,,10,,77,72
8460,note_on,,181,0,5,,,,,,,,,,,,,,,,8,,50,72
8460,note_on,,1,0,10,,,,,,,,,,,,,,,,15,,50,72
8460,note_on,,1,0,8,,,,,,,,,,,,,,,,12,,65,72
8489,note_on,,29,0,10,,,,,,,,,,,,,,,,15,,50,0
8489,note_on,,29,0,7,,,,,,,,,,,,,,,,11,,72,0
8489,note_on,,29,0,6,,,,,,,,,,,,,,,,10,,77,0
8489,note_on,,29,0,9,,,,,,,,,,,,,,,,13,,50,0
8489,note_on,,29,0,8,,,,,,,,,,,,,,,,12,,65,0
8490,note_on,,1,0,6,,,,,,,,,,,,,,,,10,,77,72
8490,note_on,,1,0,9,,,,,,,,,,,,,,,,13,,50,72
8490,note_on,,1,0,7,,,,,,,,,,,,,,,,11,,72,72
8490,note_on,,1,0,8,,,,,,,,,,,,,,,,12,,65,72
8490,note_on,,1,0,10,,,,,,,,,,,,,,,,15,,50,72
8519,note_on,,29,0,6,,,,,,,,,,,,,,,,10,,77,0
8519,note_on,,29,0,7,,,,,,,,,,,,,,,,11,,72,0
8519,note_on,,29,0,8,,,,,,,,,,,,,,,,12,,65,0
8519,note_on,,59,0,5,,,,,,,,,,,,,,,,8,,50,0
8519,note_on,,29,0,9,,,,,,,,,,,,,,,,13,,50,0
8519,note_on,,29,0,10,,,,,,,,,,,,,,,,15,,65,0
8519,note_on,,0,0,10,,,,,,,,,,,,,,,,15,,62,0
8519,note_on,,0,0,10,,,,,,,,,,,,,,,,15,,60,0
8519,note_on,,0,0,10,,,,,,,,,,,,,,,,15,,50,0
8520,note_on,,1,0,7,,,,,,,,,,,,,,,,11,,70,72
8520,note_on,,1,0,8,,,,,,,,,,,,,,,,12,,65,72
8520,note_on,,0,0,10,,,,,,,,,,,,,,,,15,,58,72
8520,note_on,,0,0,10,,,,,,,,,,,,,,,,15,,65,72
8520,note_on,,0,0,10,,,,,,,,,,,,,,,,15,,70,72
8520,note_on,,1,0,9,,,,,,,,,,,,,,,,13,,50,72
8520,note_on,,1,0,6,,,,,,,,,,,,,,,,10,,70,72
8520,note_on,,1,0,10,,,,,,,,,,,,,,,,15,,50,72
8520,note_on,,1,0,5,,,,,,,,,,,,,,,,8,,50,72
8549,note_on,,29,0,6,,,,,,,,,,,,,,,,10,,70,0
8549,note_on,,29,0,7,,,,,,,,,,,,,,,,11,,70,0
8549,note_on,,29,0,9,,,,,,,,,,,,,,,,13,,50,0
8549,note_on,,29,0,10,,,,,,,,,,,,,,,,15,,50,0
8549,note_on,,29,0,8,,,,,,,,,,,,,,,,12,,65,0
8550,note_on,,1,0,10,,,,,,,,,,,,,,,,15,,50,72
8550,note_on,,1,0,6,,,,,,,,,,,,,,,,10,,70,72
8550,note_on,,1,0,9,,,,,,,,,,,,,,,,13,,50,72
8550,note_on,,1,0,8,,,,,,,,,,,,,,,,12,,65,72
8550,note_on,,1,0,7,,,,,,,,,,,,,,,,11,,70,72
8579,note_on,,29,0,6,,,,,,,,,,,,,,,,10,,70,0
8579,note_on,,29,0,9,,,,,,,,,,,,,,,,13,,50,0
8579,note_on,,29,0,7,,,,,,,,,,,,,,,,11,,70,0
8579,note_on,,59,0,5,,,,,,,,,,,,,,,,8,,50,0
8579,note_on,,29,0,10,,,,,,,,,,,,,,,,15,,50,0
8579,note_on,,29,0,8,,,,,,,,,,,,,,,,12,,65,0
8580,note_on,,1,0,10,,,,,,,,,,,,,,,,15,,50,72
8580,note_on,,1,0,9,,,,,,,,,,,,,,,,13,,50,72
8580,note_on,,1,0,5,,,,,,,,,,,,,,,,8,,50,72
8580,note_on,,1,0,8,,,,,,,,,,,,,,,,12,,65,72
8580,note_on,,1,0,7,,,,,,,,,,,,,,,,11,,70,72
8580,note_on,,1,0,6,,,,,,,,,,,,,,,,10,,70,72
8609,note_on,,29,0,10,,,,,,,,,,,,,,,,15,,50,0
8609,note_on,,29,0,9,,,,,,,,,,,,,,,,13,,50,0
8609,note_on,,29,0,8,,,,,,,,,,,,,,,,12,,65,0
8609,note_on,,29,0,7,,,,,,,,,,,,,,,,11,,70,0
8609,note_on,,29,0,6,,,,,,,,,,,,,,,,10,,70,0
8610,note_on,,1,0,7,,,,,,,,,,,,,,,,11,,70,72
8610,note_on,,1,0,10,,,,,,,,,,,,,,,,15,,50,72
8610,note_on,,1,0,8,,,,,,,,,,,,,,,,12,,65,72
8610,note_on,,1,0,9,,,,,,,,,,,,,,,,13,,50,72
8610,note_on,,1,0,6,,,,,,,,,,,,,,,,10,,70,72
8639,note_on,,29,0,6,,,,,,,,,,,,,,,,10,,70,0
8639,note_on,,0,0,10,,,,,,,,,,,,,,,,15,,50,0
8639,note_on,,0,0,10,,,,,,,,,,,,,,,,15,,58,0
8639,note_on,,29,0,9,,,,,,,,,,,,,,,,13,,50,0
8639,note_on,,29,0,10,,,,,,,,,,,,,,,,15,,70,0
8639,note_on,,29,0,7,,,,,,,,,,,,,,,,11,,70,0
8639,note_on,,29,0,8,,,,,,,,,,,,,,,,12,,65,0
8639,note_on,,0,0,10,,,,,,,,,,,,,,,,15,,65,0
8639,note_on,,59,0,5,,,,,,,,,,,,,,,,8,,50,0
8640,note_on,,1,0,8,,,,,,,,,,,,,,,,12,,67,72
8640,note_on,,1,0,10,,,,,,,,,,,,,,,,15,,52,72
8640,note_on,,0,0,10,,,,,,,,,,,,,,,,15,,67,72
8640,note_on,,0,0,10,,,,,,,,,,,,,,,,15,,60,72
8640,note_on,,1,0,5,,,,,,,,,,,,,,,,8,,52,72
8640,note_on,,0,0,10,,,,,,,,,,,,,,,,15,,58,72
8640,note_on,,1,0,9,,,,,,,,,,,,,,,,13,,52,72
8640,note_on,,1,0,7,,,,,,,,,,,,,,,,11,,72,72
8640,note_on,,1,0,6,,,,,,,,,,,,,,,,10,,70,72
8669,note_on,,29,0,7,,,,,,,,,,,,,,,,11,,72,0
8669,note_on,,29,0,8,,,,,,,,,,,,,,,,12,,67,0
8669,note_on,,29,0,5,,,,,,,,,,,,,,,,8,,52,0
8669,note_on,,29,0,6,,,,,,,,,,,,,,,,10,,70,0
8670,note_on,,1,0,5,,,,,,,,,,,,,,,,8,,50,72
8699,note_on,,29,0,5,,,,,,,,,,,,,,,,8,,50,0
8699,note_on,,59,0,10,,,,,,,,,,,,,,,,15,,52,0
8699,note_on,,59,0,9,,,,,,,,,,,,,,,,13,,52,0
8700,note_on,,31,0,8,,,,,,,,,,,,,,,,12,,67,72
8700,note_on,,1,0,10,,,,,,,,,,,,,,,,15,,52,72
8700,note_on,,31,0,6,,,,,,,,,,,,,,,,10,,70,72
8700,note_on,,1,0,5,,,,,,,,,,,,,,,,8,,52,72
8700,note_on,,31,0,7,,,,,,,,,,,,,,,,11,,72,72
8700,note_on,,1,0,9,,,,,,,,,,,,,,,,13,,52,72
8729,note_on,,29,0,5,,,,,,,,,,,,,,,,8,,52,0
8729,note_on,,29,0,7,,,,,,,,,,,,,,,,11,,72,0
8729,note_on,,29,0,8,,,,,,,,,,,,,,,,12,,67,0
8729,note_on,,29,0,6,,,,,,,,,,,,,,,,10,,70,0
8730,note_on,,1,0,5,,,,,,,,,,,,,,,,8,,53,72
8759,note_on,,29,0,5,,,,,,,,,,,,,,,,8,,53,0
8759,note_on,,59,0,9,,,,,,,,,,,,,,,,13,,52,0
8759,note_on,,59,0,10,,,,,,,,,,,,,,,,15,,52,0
8760,note_on,,1,0,9,,,,,,,,,,,,,,,,13,,52,72
8760,note_on,,1,0,5,,,,,,,,,,,,,,,,8,,52,72
8760,note_on,,31,0,8,,,,,,,,,,,,,,,,12,,67,72
8760,note_on,,1,0,10,,,,,,,,,,,,,,,,15,,52,72
8760,note_on,,31,0,7,,,,,,,,,,,,,,,,11,,72,72
8760,note_on,,31,0,6,,,,,,,,,,,,,,,,10,,70,72
8789,note_on,,29,0,7,,,,,,,,,,,,,,,,11,,72,0
8789,note_on,,29,0,5,,,,,,,,,,,,,,,,8,,52,0
8789,note_on,,29,0,6,,,,,,,,,,,,,,,,10,,70,0
8789,note_on,,29,0,8,,,,,,,,,,,,,,,,12,,67,0
8790,note_on,,1,0,5,,,,,,,,,,,,,,,,8,,53,72
8819,note_on,,29,0,5,,,,,,,,,,,,,,,,8,,53,0
8819,note_on,,0,0,10,,,,,,,,,,,,,,,,15,,52,0
8819,note_on,,0,0,10,,,,,,,,,,,,,,,,15,,60,0
8819,note_on,,59,0,10,,,,,,,,,,,,,,,,15,,67,0
8819,note_on,,59,0,9,,,,,,,,,,,,,,,,13,,52,0
8819,note_on,,0,0,10,,,,,,,,,,,,,,,,15,,58,0
8820,note_on,,0,0,10,,,,,,,,,,,,,,,,15,,70,72
8820,note_on,,1,0,5,,,,,,,,,,,,,,,,8,,50,72
8820,note_on,,1,0,10,,,,,,,,,,,,,,,,15,,52,72
8820,note_on,,0,0,10,,,,,,,,,,,,,,,,15,,72,72
8820,note_on,,0,0,10,,,,,,,,,,,,,,,,15,,67,72
8820,note_on,,1,0,9,,,,,,,,,,,,,,,,13,,52,72
8820,note_on,,31,0,7,,,,,,,,,,,,,,,,11,,72,72
8820,note_on,,31,0,6,,,,,,,,,,,,,,,,10,,70,72
8820,note_on,,31,0,8,,,,,,,,,,,,,,,,12,,67,72
8849,note_on,,29,0,7,,,,,,,,,,,,,,,,11,,72,0
8849,note_on,,29,0,6,,,,,,,,,,,,,,,,10,,70,0
8849,note_on,,29,0,5,,,,,,,,,,,,,,,,8,,50,0
8849,note_on,,29,0,8,,,,,,,,,,,,,,,,12,,67,0
8850,note_on,,1,0,5,,,,,,,,,,,,,,,,8,,52,72
8879,note_on,,29,0,5,,,,,,,,,,,,,,,,8,,52,0
8879,note_on,,59,0,10,,,,,,,,,,,,,,,,15,,52,0
8879,note_on,,0,0,10,,,,,,,,,,,,,,,,15,,72,0
8879,note_on,,0,0,10,,,,,,,,,,,,,,,,15,,67,0
8879,note_on,,59,0,9,,,,,,,,,,,,,,,,13,,52,0
8879,note_on,,0,0,10,,,,,,,,,,,,,,,,15,,70,0
8880,note_on,,0,0,10,,,,,,,,,,,,,,,,15,,65,72
8880,note_on,,31,0,7,,,,,,,,,,,,,,,,11,,72,72
8880,note_on,,1,0,9,,,,,,,,,,,,,,,,13,,53,72
8880,note_on,,31,0,6,,,,,,,,,,,,,,,,10,,69,72
8880,note_on,,1,0,10,,,,,,,,,,,,,,,,15,,53,72
8880,note_on,,0,0,10,,,,,,,,,,,,,,,,15,,69,72
8880,note_on,,1,0,5,,,,,,,,,,,,,,,,8,,53,72
8880,note_on,,31,0,8,,,,,,,,,,,,,,,,12,,69,72
8880,note_on,,0,0,10,,,,,,,,,,,,,,,,15,,60,72
8909,note_on,,29,0,6,,,,,,,,,,,,,,,,10,,69,0
8909,note_on,,29,0,5,,,,,,,,,,,,,,,,8,,53,0
8909,note_on,,29,0,8,,,,,,,,,,,,,,,,12,,69,0
8909,note_on,,29,0,7,,,,,,,,,,,,,,,,11,,72,0
8910,note_on,,1,0,5,,,,,,,,,,,,,,,,8,,52,72
8939,note_on,,59,0,10,,,,,,,,,,,,,,,,15,,53,0
8939,note_on,,29,0,5,,,,,,,,,,,,,,,,8,,52,0
8939,note_on,,59,0,9,,,,,,,,,,,,,,,,13,,53,0
8940,note_on,,1,0,9,,,,,,,,,,,,,,,,13,,53,72
8940,note_on,,31,0,8,,,,,,,,,,,,,,,,12,,69,72
8940,note_on,,31,0,7,,,,,,,,,,,,,,,,11,,72,72
8940,note_on,,1,0,10,,,,,,,,,,,,,,,,15,,53,72
8940,note_on,,31,0,6,,,,,,,,,,,,,,,,10,,69,72
8940,note_on,,1,0,5,,,,,,,,,,,,,,,,8,,53,72
8969,note_on,,29,0,5,,,,,,,,,,,,,,,,8,,53,0
8969,note_on,,29,0,7,,,,,,,,,,,,,,,,11,,72,0
8969,note_on,,29,0,6,,,,,,,,,,,,,,,,10,,69,0
8969,note_on,,29,0,8,,,,,,,,,,,,,,,,12,,69,0
8970,note_on,,1,0,5,,,,,,,,,,,,,,,,8,,55,72
8999,note_on,,0,0,10,,,,,,,,,,,,,,,,15,,65,0
8999,note_on,,59,0,10,,,,,,,,,,,,,,,,15,,69,0
8999,note_on,,59,0,9,,,,,,,,,,,,,,,,13,,53,0
8999,note_on,,29,0,5,,,,,,,,,,,,,,,,8,,55,0
8999,note_on,,0,0,10,,,,,,,,,,,,,,,,15,,60,0
8999,note_on,,0,0,10,,,,,,,,,,,,,,,,15,,53,0
9000,note_on,,0,0,10,,,,,,,,,,,,,,,,15,,69,72
9000,note_on,,0,0,10,,,,,,,,,,,,,,,,15,,72,72
9000,note_on,,1,0,10,,,,,,,,,,,,,,,,15,,53,72
9000,note_on,,1,0,5,,,,,,,,,,,,,,,,8,,53,72
9000,note_on,,0,0,10,,,,,,,,,,,,,,,,15,,65,72
9000,note_on,,31,0,7,,,,,,,,,,,,,,,,11,,72,72
9000,note_on,,31,0,6,,,,,,,,,,,,,,,,10,,77,72
9000,note_on,,1,0,9,,,,,,,,,,,,,,,,13,,53,72
9000,note_on,,31,0,8,,,,,,,,,,,,,,,,12,,69,72
9029,note_on,,29,0,8,,,,,,,,,,,,,,,,12,,69,0
9029,note_on,,29,0,7,,,,,,,,,,,,,,,,11,,72,0
9029,note_on,,29,0,6,,,,,,,,,,,,,,,,10,,77,0
9029,note_on,,29,0,5,,,,,,,,,,,,,,,,8,,53,0
9030,note_on,,1,0,5,,,,,,,,,,,,,,,,8,,55,72
9059,note_on,,59,0,9,,,,,,,,,,,,,,,,13,,53,0
9059,note_on,,29,0,5,,,,,,,,,,,,,,,,8,,55,0
9059,note_on,,59,0,10,,,,,,,,,,,,,,,,15,,53,0
9060,note_on,,31,0,7,,,,,,,,,,,,,,,,11,,72,72
9060,note_on,,1,0,9,,,,,,,,,,,,,,,,13,,53,72
9060,note_on,,1,0,5,,,,,,,,,,,,,,,,8,,52,72
9060,note_on,,31,0,8,,,,,,,,,,,,,,,,12,,69,72
9060,note_on,,1,0,10,,,,,,,,,,,,,,,,15,,53,72
9060,note_on,,31,0,6,,,,,,,,,,,,,,,,10,,77,72
9089,note_on,,29,0,8,,,,,,,,,,,,,,,,12,,69,0
9089,note_on,,29,0,7,,,,,,,,,,,,,,,,11,,72,0
9089,note_on,,29,0,5,,,,,,,,,,,,,,,,8,,52,0
9089,note_on,,29,0,6,,,,,,,,,,,,,,,,10,,77,0
9090,note_on,,1,0,5,,,,,,,,,,,,,,,,8,,53,72
9119,note_on,,0,0,10,,,,,,,,,,,,,,,,15,,53,0
9119,note_on,,59,0,10,,,,,,,,,,,,,,,,15,,72,0
9119,note_on,,0,0,10,,,,,,,,,,,,,,,,15,,69,0
9119,note_on,,29,0,5,,,,,,,,,,,,,,,,8,,53,0
9119,note_on,,0,0,10,,,,,,,,,,,,,,,,15,,65,0
9119,note_on,,59,0,9,,,,,,,,,,,,,,,,13,,53,0
9120,note_on,,1,0,9,,,,,,,,,,,,,,,,13,,55,72
9120,note_on,,31,0,8,,,,,,,,,,,,,,,,12,,67,72
9120,note_on,,0,0,10,,,,,,,,,,,,,,,,15,,67,72
9120,note_on,,0,0,10,,,,,,,,,,,,,,,,15,,70,72
9120,note_on,,1,0,10,,,,,,,,,,,,,,,,15,,55,72
9120,note_on,,0,0,10,,,,,,,,,,,,,,,,15,,58,72
9120,note_on,,31,0,7,,,,,,,,,,,,,,,,11,,70,72
9120,note_on,,31,0,6,,,,,,,,,,,,,,,,10,,77,72
9120,note_on,,1,0,5,,,,,,,,,,,,,,,,8,,55,72
9149,note_on,,29,0,7,,,,,,,,,,,,,,,,11,,70,0
9149,note_on,,29,0,8,,,,,,,,,,,,,,,,12,,67,0
9149,note_on,,29,0,5,,,,,,,,,,,,,,,,8,,55,0
9149,note_on,,29,0,6,,,,,,,,,,,,,,,,10,,77,0
9150,note_on,,1,0,5,,,,,,,,,,,,,,,,8,,53,72
9179,note_on,,59,0,10,,,,,,,,,,,,,,,,15,,55,0
9179,note_on,,29,0,5,,,,,,,,,,,,,,,,8,,53,0
9179,note_on,,59,0,9,,,,,,,,,,,,,,,,13,,55,0
9180,note_on,,1,0,5,,,,,,,,,,,,,,,,8,,55,72
9180,note_on,,31,0,8,,,,,,,,,,,,,,,,12,,67,72
9180,note_on,,31,0,6,,,,,,,,,,,,,,,,10,,77,72
9180,note_on,,1,0,10,,,,,,,,,,,,,,,,15,,55,72
9180,note_on,,1,0,9,,,,,,,,,,,,,,,,13,,55,72
9180,note_on,,31,0,7,,,,,,,,,,,,,,,,11,,70,72
9209,note_on,,29,0,5,,,,,,,,,,,,,,,,8,,55,0
9209,note_on,,29,0,6,,,,,,,,,,,,,,,,10,,77,0
9209,note_on,,29,0,8,,,,,,,,,,,,,,,,12,,67,0
9209,note_on,,29,0,7,,,,,,,,,,,,,,,,11,,70,0
9210,note_on,,1,0,5,,,,,,,,,,,,,,,,8,,57,72
9239,note_on,,59,0,10,,,,,,,,,,,,,,,,15,,70,0
9239,note_on,,0,0,10,,,,,,,,,,,,,,,,15,,67,0
9239,note_on,,0,0,10,,,,,,,,,,,,,,,,15,,58,0
9239,note_on,,29,0,5,,,,,,,,,,,,,,,,8,,57,0
9239,note_on,,59,0,9,,,,,,,,,,,,,,,,13,,55,0
9239,note_on,,0,0,10,,,,,,,,,,,,,,,,15,,55,0
9240,note_on,,0,0,10,,,,,,,,,,,,,,,,15,,67,72
9240,note_on,,31,0,7,,,,,,,,,,,,,,,,11,,70,72
9240,note_on,,1,0,5,,,,,,,,,,,,,,,,8,,55,72
9240,note_on,,0,0,10,,,,,,,,,,,,,,,,15,,76,72
9240,note_on,,1,0,10,,,,,,,,,,,,,,,,15,,55,72
9240,note_on,,31,0,8,,,,,,,,,,,,,,,,12,,67,72
9240,note_on,,1,0,9,,,,,,,,,,,,,,,,13,,55,72
9240,note_on,,0,0,10,,,,,,,,,,,,,,,,15,,70,72
9240,note_on,,31,0,6,,,,,,,,,,,,,,,,10,,76,72
9269,note_on,,29,0,8,,,,,,,,,,,,,,,,12,,67,0
9269,note_on,,29,0,5,,,,,,,,,,,,,,,,8,,55,0
9269,note_on,,29,0,7,,,,,,,,,,,,,,,,11,,70,0
9269,note_on,,29,0,6,,,,,,,,,,,,,,,,10,,76,0
9270,note_on,,1,0,5,,,,,,,,,,,,,,,,8,,57,72
9299,note_on,,59,0,10,,,,,,,,,,,,,,,,15,,55,0
9299,note_on,,29,0,5,,,,,,,,,,,,,,,,8,,57,0
9299,note_on,,59,0,9,,,,,,,,,,,,,,,,13,,55,0
9300,note_on,,1,0,5,,,,,,,,,,,,,,,,8,,53,72
9300,note_on,,1,0,10,,,,,,,,,,,,,,,,15,,55,72
9300,note_on,,31,0,7,,,,,,,,,,,,,,,,11,,70,72
9300,note_on,,31,0,8,,,,,,,,,,,,,,,,12,,67,72
9300,note_on,,31,0,6,,,,,,,,,,,,,,,,10,,76,72
9300,note_on,,1,0,9,,,,,,,,,,,,,,,,13,,55,72
9329,note_on,,29,0,5,,,,,,,,,,,,,,,,8,,53,0
9329,note_on,,29,0,6,,,,,,,,,,,,,,,,10,,76,0
9329,note_on,,29,0,7,,,,,,,,,,,,,,,,11,,70,0
9329,note_on,,29,0,8,,,,,,,,,,,,,,,,12,,67,0
9330,note_on,,1,0,5,,,,,,,,,,,,,,,,8,,55,72
9359,note_on,,0,0,10,,,,,,,,,,,,,,,,15,,55,0
9359,note_on,,0,0,10,,,,,,,,,,,,,,,,15,,67,0
9359,note_on,,0,0,10,,,,,,,,,,,,,,,,15,,70,0
9359,note_on,,59,0,10,,,,,,,,,,,,,,,,15,,76,0
9359,note_on,,59,0,9,,,,,,,,,,,,,,,,13,,55,0
9359,note_on,,29,0,5,,,,,,,,,,,,,,,,8,,55,0
9360,note_on,,31,0,6,,,,,,,,,,,,,,,,10,,77,72
9360,note_on,,31,0,8,,,,,,,,,,,,,,,,12,,65,72
9360,note_on,,1,0,9,,,,,,,,,,,,,,,,13,,57,72
9360,note_on,,31,0,7,,,,,,,,,,,,,,,,11,,72,72
9360,note_on,,1,0,5,,,,,,,,,,,,,,,,8,,57,72
9360,note_on,,1,0,10,,,,,,,,,,,,,,,,15,,57,72
9360,note_on,,0,0,10,,,,,,,,,,,,,,,,15,,72,72
9360,note_on,,0,0,10,,,,,,,,,,,,,,,,15,,69,72
9360,note_on,,0,0,10,,,,,,,,,,,,,,,,15,,65,72
9389,note_on,,29,0,6,,,,,,,,,,,,,,,,10,,77,0
9389,note_on,,29,0,5,,,,,,,,,,,,,,,,8,,57,0
9390,note_on,,1,0,5,,,,,,,,,,,,,,,,8,,55,72
9419,note_on,,59,0,10,,,,,,,,,,,,,,,,15,,57,0
9419,note_on,,59,0,8,,,,,,,,,,,,,,,,12,,65,0
9419,note_on,,59,0,7,,,,,,,,,,,,,,,,11,,72,0
9419,note_on,,59,0,9,,,,,,,,,,,,,,,,13,,57,0
9419,note_on,,29,0,5,,,,,,,,,,,,,,,,8,,55,0
9420,note_on,,31,0,6,,,,,,,,,,,,,,,,10,,77,72
9420,note_on,,1,0,8,,,,,,,,,,,,,,,,12,,65,72
9420,note_on,,1,0,5,,,,,,,,,,,,,,,,8,,57,72
9420,note_on,,1,0,7,,,,,,,,,,,,,,,,11,,72,72
9420,note_on,,1,0,9,,,,,,,,,,,,,,,,13,,57,72
9420,note_on,,1,0,10,,,,,,,,,,,,,,,,15,,57,72
9449,note_on,,29,0,5,,,,,,,,,,,,,,,,8,,57,0
9449,note_on,,29,0,6,,,,,,,,,,,,,,,,10,,77,0
9450,note_on,,1,0,5,,,,,,,,,,,,,,,,8,,58,72
9479,note_on,,29,0,5,,,,,,,,,,,,,,,,8,,58,0
9479,note_on,,59,0,9,,,,,,,,,,,,,,,,13,,57,0
9479,note_on,,59,0,10,,,,,,,,,,,,,,,,15,,72,0
9479,note_on,,0,0,10,,,,,,,,,,,,,,,,15,,57,0
9479,note_on,,0,0,10,,,,,,,,,,,,,,,,15,,65,0
9479,note_on,,59,0,7,,,,,,,,,,,,,,,,11,,72,0
9479,note_on,,59,0,8,,,,,,,,,,,,,,,,12,,65,0
9479,note_on,,0,0,10,,,,,,,,,,,,,,,,15,,69,0
9480,note_on,,1,0,7,,,,,,,,,,,,,,,,11,,77,72
9480,note_on,,1,0,9,,,,,,,,,,,,,,,,13,,57,72
9480,note_on,,1,0,5,,,,,,,,,,,,,,,,8,,57,72
9480,note_on,,31,0,6,,,,,,,,,,,,,,,,10,,81,72
9480,note_on,,1,0,10,,,,,,,,,,,,,,,,15,,57,72
9480,note_on,,0,0,10,,,,,,,,,,,,,,,,15,,77,72
9480,note_on,,0,0,10,,,,,,,,,,,,,,,,15,,72,72
9480,note_on,,0,0,10,,,,,,,,,,,,,,,,15,,65,72
9480,note_on,,0,0,10,,,,,,,,,,,,,,,,15,,60,72
9480,note_on,,1,0,8,,,,,,,,,,,,,,,,12,,72,72
9509,note_on,,29,0,6,,,,,,,,,,,,,,,,10,,81,0
9509,note_on,,29,0,5,,,,,,,,,,,,,,,,8,,57,0
9510,note_on,,1,0,5,,,,,,,,,,,,,,,,8,,58,72
9539,note_on,,59,0,9,,,,,,,,,,,,,,,,13,,57,0
9539,note_on,,29,0,5,,,,,,,,,,,,,,,,8,,58,0
9539,note_on,,59,0,8,,,,,,,,,,,,,,,,12,,72,0
9539,note_on,,59,0,10,,,,,,,,,,,,,,,,15,,57,0
9539,note_on,,59,0,7,,,,,,,,,,,,,,,,11,,77,0
9540,note_on,,1,0,7,,,,,,,,,,,,,,,,11,,77,72
9540,note_on,,1,0,9,,,,,,,,,,,,,,,,13,,57,72
9540,note_on,,31,0,6,,,,,,,,,,,,,,,,10,,81,72
9540,note_on,,1,0,5,,,,,,,,,,,,,,,,8,,55,72
9540,note_on,,1,0,10,,,,,,,,,,,,,,,,15,,57,72
9540,note_on,,1,0,8,,,,,,,,,,,,,,,,12,,72,72
9569,note_on,,29,0,6,,,,,,,,,,,,,,,,10,,81,0
9569,note_on,,29,0,5,,,,,,,,,,,,,,,,8,,55,0
9570,note_on,,1,0,5,,,,,,,,,,,,,,,,8,,57,72
9599,note_on,,59,0,9,,,,,,,,,,,,,,,,13,,57,0
9599,note_on,,59,0,8,,,,,,,,,,,,,,,,12,,72,0
9599,note_on,,29,0,5,,,,,,,,,,,,,,,,8,,57,0
9599,note_on,,59,0,10,,,,,,,,,,,,,,,,15,,77,0
9599,note_on,,0,0,10,,,,,,,,,,,,,,,,15,,72,0
9599,note_on,,0,0,10,,,,,,,,,,,,,,,,15,,65,0
9599,note_on,,59,0,7,,,,,,,,,,,,,,,,11,,77,0
9599,note_on,,0,0,10,,,,,,,,,,,,,,,,15,,57,0
9599,note_on,,0,0,10,,,,,,,,,,,,,,,,15,,60,0
9600,note_on,,1,0,9,,,,,,,,,,,,,,,,13,,58,72
9600,note_on,,0,0,10,,,,,,,,,,,,,,,,15,,70,72
9600,note_on,,1,0,5,,,,,,,,,,,,,,,,8,,58,72
9600,note_on,,31,0,6,,,,,,,,,,,,,,,,10,,81,72
9600,note_on,,0,0,10,,,,,,,,,,,,,,,,15,,74,72
9600,note_on,,1,0,8,,,,,,,,,,,,,,,,12,,70,72
9600,note_on,,0,0,10,,,,,,,,,,,,,,,,15,,62,72
9600,note_on,,1,0,10,,,,,,,,,,,,,,,,15,,58,72
9600,note_on,,1,0,7,,,,,,,,,,,,,,,,11,,74,72
9629,note_on,,29,0,5,,,,,,,,,,,,,,,,8,,58,0
9630,note_on,,1,0,5,,,,,,,,,,,,,,,,8,,57,72
9659,note_on,,59,0,10,,,,,,,,,,,,,,,,15,,58,0
9659,note_on,,29,0,5,,,,,,,,,,,,,,,,8,,57,0
9659,note_on,,59,0,6,,,,,,,,,,,,,,,,10,,81,0
9659,note_on,,59,0,8,,,,,,,,,,,,,,,,12,,70,0
9659,note_on,,59,0,9,,,,,,,,,,,,,,,,13,,58,0
9659,note_on,,59,0,7,,,,,,,,,,,,,,,,11,,74,0
9660,note_on,,1,0,9,,,,,,,,,,,,,,,,13,,58,72
9660,note_on,,1,0,5,,,,,,,,,,,,,,,,8,,58,72
9660,note_on,,1,0,7,,,,,,,,,,,,,,,,11,,74,72
9660,note_on,,1,0,8,,,,,,,,,,,,,,,,12,,70,72
9660,note_on,,1,0,10,,,,,,,,,,,,,,,,15,,58,72
9660,note_on,,1,0,6,,,,,,,,,,,,,,,,10,,81,72
9689,note_on,,29,0,5,,,,,,,,,,,,,,,,8,,58,0
9690,note_on,,1,0,5,,,,,,,,,,,,,,,,8,,60,72
9719,note_on,,59,0,9,,,,,,,,,,,,,,,,13,,58,0
9719,note_on,,59,0,7,,,,,,,,,,,,,,,,11,,74,0
9719,note_on,,29,0,5,,,,,,,,,,,,,,,,8,,60,0
9719,note_on,,59,0,10,,,,,,,,,,,,,,,,15,,58,0
9719,note_on,,59,0,8,,,,,,,,,,,,,,,,12,,70,0
9719,note_on,,59,0,6,,,,,,,,,,,,,,,,10,,81,0
9720,note_on,,1,0,5,,,,,,,,,,,,,,,,8,,58,72
9720,note_on,,1,0,6,,,,,,,,,,,,,,,,10,,79,72
9720,note_on,,1,0,10,,,,,,,,,,,,,,,,15,,58,72
9720,note_on,,1,0,7,,,,,,,,,,,,,,,,11,,74,72
9720,note_on,,1,0,8,,,,,,,,,,,,,,,,12,,70,72
9720,note_on,,1,0,9,,,,,,,,,,,,,,,,13,,58,72
9749,note_on,,29,0,5,,,,,,,,,,,,,,,,8,,58,0
9750,note_on,,1,0,5,,,,,,,,,,,,,,,,8,,60,72
9779,note_on,,29,0,5,,,,,,,,,,,,,,,,8,,60,0
9779,note_on,,0,0,10,,,,,,,,,,,,,,,,15,,58,0
9779,note_on,,59,0,8,,,,,,,,,,,,,,,,12,,70,0
9779,note_on,,0,0,10,,,,,,,,,,,,,,,,15,,70,0
9779,note_on,,59,0,10,,,,,,,,,,,,,,,,15,,74,0
9779,note_on,,59,0,9,,,,,,,,,,,,,,,,13,,58,0
9779,note_on,,0,0,10,,,,,,,,,,,,,,,,15,,62,0
9779,note_on,,59,0,7,,,,,,,,,,,,,,,,11,,74,0
9779,note_on,,59,0,6,,,,,,,,,,,,,,,,10,,79,0
9780,note_on,,1,0,7,,,,,,,,,,,,,,,,11,,74,72
9780,note_on,,1,0,6,,,,,,,,,,,,,,,,10,,77,72
9780,note_on,,1,0,5,,,,,,,,,,,,,,,,8,,57,72
9780,note_on,,1,0,8,,,,,,,,,,,,,,,,12,,70,72
9780,note_on,,0,0,10,,,,,,,,,,,,,,,,15,,62,72
9780,note_on,,0,0,10,,,,,,,,,,,,,,,,15,,70,72
9780,note_on,,1,0,9,,,,,,,,,,,,,,,,13,,58,72
9780,note_on,,1,0,10,,,,,,,,,,,,,,,,15,,58,72
9809,note_on,,29,0,5,,,,,,,,,,,,,,,,8,,57,0
9810,note_on,,1,0,5,,,,,,,,,,,,,,,,8,,58,72
9839,note_on,,59,0,6,,,,,,,,,,,,,,,,10,,77,0
9839,note_on,,59,0,9,,,,,,,,,,,,,,,,13,,58,0
9839,note_on,,0,0,10,,,,,,,,,,,,,,,,15,,62,0
9839,note_on,,0,0,10,,,,,,,,,,,,,,,,15,,70,0
9839,note_on,,59,0,8,,,,,,,,,,,,,,,,12,,70,0
9839,note_on,,59,0,10,,,,,,,,,,,,,,,,15,,58,0
9839,note_on,,59,0,7,,,,,,,,,,,,,,,,11,,74,0
9839,note_on,,29,0,5,,,,,,,,,,,,,,,,8,,58,0
9840,note_on,,1,0,5,,,,,,,,,,,,,,,,8,,60,72
9840,note_on,,1,0,7,,,,,,,,,,,,,,,,11,,67,72
9840,note_on,,1,0,9,,,,,,,,,,,,,,,,13,,60,72
9840,note_on,,1,0,10,,,,,,,,,,,,,,,,15,,60,72
9840,note_on,,1,0,6,,,,,,,,,,,,,,,,10,,76,72
9840,note_on,,0,0,10,,,,,,,,,,,,,,,,15,,64,72
9840,note_on,,1,0,8,,,,,,,,,,,,,,,,12,,70,72
9840,note_on,,0,0,10,,,,,,,,,,,,,,,,15,,67,72
9899,note_on,,59,0,8,,,,,,,,,,,,,,,,12,,70,0
9899,note_on,,59,0,10,,,,,,,,,,,,,,,,15,,60,0
9899,note_on,,59,0,6,,,,,,,,,,,,,,,,10,,76,0
9899,note_on,,59,0,9,,,,,,,,,,,,,,,,13,,60,0
9899,note_on,,59,0,7,,,,,,,,,,,,,,,,11,,67,0
9900,note_on,,1,0,8,,,,,,,,,,,,,,,,12,,70,72
9900,note_on,,1,0,9,,,,,,,,,,,,,,,,13,,60,72
9900,note_on,,1,0,6,,,,,,,,,,,,,,,,10,,76,72
9900,note_on,,1,0,10,,,,,,,,,,,,,,,,15,,60,72
9900,note_on,,1,0,7,,,,,,,,,,,,,,,,11,,67,72
9929,note_on,,29,0,8,,,,,,,,,,,,,,,,12,,70,0
9930,note_on,,1,0,8,,,,,,,,,,,,,,,,12,,69,72
9959,note_on,,29,0,8,,,,,,,,,,,,,,,,12,,69,0
9959,note_on,,59,0,10,,,,,,,,,,,,,,,,15,,67,0
9959,note_on,,0,0,10,,,,,,,,,,,,,,,,15,,60,0
9959,note_on,,59,0,9,,,,,,,,,,,,,,,,13,,60,0
9959,note_on,,0,0,10,,,,,,,,,,,,,,,,15,,64,0
9959,note_on,,59,0,6,,,,,,,,,,,,,,,,10,,76,0
9959,note_on,,119,0,5,,,,,,,,,,,,,,,,8,,60,0
9959,note_on,,59,0,7,,,,,,,,,,,,,,,,11,,67,0
9960,note_on,,1,0,7,,,,,,,,,,,,,,,,11,,72,72
9960,note_on,,0,0,10,,,,,,,,,,,,,,,,15,,72,72
9960,note_on,,1,0,10,,,,,,,,,,,,,,,,15,,57,72
9960,note_on,,1,0,9,,,,,,,,,,,,,,,,13,,57,72
9960,note_on,,0,0,10,,,,,,,,,,,,,,,,15,,60,72
9960,note_on,,1,0,5,,,,,,,,,,,,,,,,8,,57,72
9960,note_on,,1,0,8,,,,,,,,,,,,,,,,12,,69,72
9960,note_on,,0,0,10,,,,,,,,,,,,,,,,15,,65,72
9960,note_on,,1,0,6,,,,,,,,,,,,,,,,10,,77,72
10019,note_on,,0,0,10,,,,,,,,,,,,,,,,15,,72,0
10019,note_on,,59,0,10,,,,,,,,,,,,,,,,15,,57,0
10019,note_on,,59,0,7,,,,,,,,,,,,,,,,11,,72,0
10019,note_on,,59,0,6,,,,,,,,,,,,,,,,10,,77,0
10019,note_on,,0,0,10,,,,,,,,,,,,,,,,15,,65,0
10019,note_on,,59,0,9,,,,,,,,,,,,,,,,13,,57,0
10019,note_on,,0,0,10,,,,,,,,,,,,,,,,15,,60,0
10019,note_on,,59,0,5,,,,,,,,,,,,,,,,8,,57,0
10019,note_on,,59,0,8,,,,,,,,,,,,,,,,12,,69,0
10020,note_on,,1,0,7,,,,,,,,,,,,,,,,11,,69,72
10020,note_on,,1,0,10,,,,,,,,,,,,,,,,15,,53,72
10020,note_on,,1,0,9,,,,,,,,,,,,,,,,13,,53,72
10020,note_on,,1,0,8,,,,,,,,,,,,,,,,12,,60,72
10020,note_on,,0,0,10,,,,,,,,,,,,,,,,15,,72,72
10020,note_on,,1,0,6,,,,,,,,,,,,,,,,10,,77,72
10020,note_on,,1,0,5,,,,,,,,,,,,,,,,8,,53,72
10020,note_on,,0,0,10,,,,,,,,,,,,,,,,15,,60,72
10020,note_on,,0,0,10,,,,,,,,,,,,,,,,15,,69,72
10020,note_on,,0,0,10,,,,,,,,,,,,,,,,15,,77,72
10079,note_on,,59,0,7,,,,,,,,,,,,,,,,11,,69,0
10079,note_on,,59,0,5,,,,,,,,,,,,,,,,8,,53,0
10079,note_on,,0,0,10,,,,,,,,,,,,,,,,15,,60,0
10079,note_on,,0,0,10,,,,,,,,,,,,,,,,15,,72,0
10079,note_on,,59,0,10,,,,,,,,,,,,,,,,15,,53,0
10079,note_on,,59,0,8,,,,,,,,,,,,,,,,12,,60,0
10079,note_on,,59,0,9,,,,,,,,,,,,,,,,13,,53,0
10079,note_on,,0,0,10,,,,,,,,,,,,,,,,15,,69,0
10079,note_on,,59,0,6,,,,,,,,,,,,,,,,10,,77,0
10079,note_on,,0,0,10,,,,,,,,,,,,,,,,15,,77,0
10080,note_on,,1,0,8,,,,,,,,,,,,,,,,12,,60,72
10080,note_on,,1,0,6,,,,,,,,,,,,,,,,10,,77,72
10080,note_on,,1,0,7,,,,,,,,,,,,,,,,11,,67,72
10080,note_on,,0,0,10,,,,,,,,,,,,,,,,15,,72,72
10080,note_on,,1,0,10,,,,,,,,,,,,,,,,15,,48,72
10080,note_on,,1,0,9,,,,,,,,,,,,,,,,13,,48,72
10080,note_on,,0,0,10,,,,,,,,,,,,,,,,15,,67,72
10080,note_on,,0,0,10,,,,,,,,,,,,,,,,15,,60,72
10080,note_on,,1,0,5,,,,,,,,,,,,,,,,8,,48,72
10080,note_on,,0,0,10,,,,,,,,,,,,,,,,15,,77,72
10139,note_on,,59,0,7,,,,,,,,,,,,,,,,11,,67,0
10139,note_on,,59,0,10,,,,,,,,,,,,,,,,15,,48,0
10139,note_on,,59,0,8,,,,,,,,,,,,,,,,12,,60,0
10139,note_on,,59,0,6,,,,,,,,,,,,,,,,10,,77,0
10139,note_on,,59,0,9,,,,,,,,,,,,,,,,13,,48,0
10139,note_on,,0,0,10,,,,,,,,,,,,,,,,15,,60,0
10140,note_on,,0,0,10,,,,,,,,,,,,,,,,15,,60,72
10140,note_on,,1,0,6,,,,,,,,,,,,,,,,10,,77,72
10140,note_on,,1,0,8,,,,,,,,,,,,,,,,12,,60,72
10140,note_on,,1,0,10,,,,,,,,,,,,,,,,15,,48,72
10140,note_on,,1,0,9,,,,,,,,,,,,,,,,13,,48,72
10140,note_on,,1,0,7,,,,,,,,,,,,,,,,11,,67,72
10199,note_on,,59,0,9,,,,,,,,,,,,,,,,13,,48,0
10199,note_on,,59,0,8,,,,,,,,,,,,,,,,12,,60,0
10199,note_on,,59,0,10,,,,,,,,,,,,,,,,15,,77,0
10199,note_on,,0,0,10,,,,,,,,,,,,,,,,15,,48,0
10199,note_on,,0,0,10,,,,,,,,,,,,,,,,15,,67,0
10199,note_on,,0,0,10,,,,,,,,,,,,,,,,15,,60,0
10199,note_on,,59,0,6,,,,,,,,,,,,,,,,10,,77,0
10199,note_on,,59,0,7,,,,,,,,,,,,,,,,11,,67,0
10199,note_on,,0,0,10,,,,,,,,,,,,,,,,15,,72,0
10199,note_on,,119,0,5,,,,,,,,,,,,,,,,8,,48,0
10200,note_on,,1,0,8,,,,,,,,,,,,,,,,12,,60,72
10200,note_on,,1,0,6,,,,,,,,,,,,,,,,10,,76,72
10200,note_on,,1,0,5,,,,,,,,,,,,,,,,8,,48,72
10200,note_on,,1,0,7,,,,,,,,,,,,,,,,11,,67,72
10200,note_on,,0,0,10,,,,,,,,,,,,,,,,15,,67,72
10200,note_on,,0,0,10,,,,,,,,,,,,,,,,15,,72,72
10200,note_on,,0,0,10,,,,,,,,,,,,,,,,15,,76,72
10200,note_on,,1,0,10,,,,,,,,,,,,,,,,15,,48,72
10200,note_on,,1,0,9,,,,,,,,,,,,,,,,13,,48,72
10200,note_on,,0,0,10,,,,,,,,,,,,,,,,15,,60,72
10259,note_on,,59,0,9,,,,,,,,,,,,,,,,13,,48,0
10259,note_on,,59,0,5,,,,,,,,,,,,,,,,8,,48,0
10259,note_on,,59,0,7,,,,,,,,,,,,,,,,11,,67,0
10259,note_on,,59,0,10,,,,,,,,,,,,,,,,15,,48,0
10259,note_on,,0,0,10,,,,,,,,,,,,,,,,15,,60,0
10259,note_on,,59,0,8,,,,,,,,,,,,,,,,12,,60,0
10259,note_on,,59,0,6,,,,,,,,,,,,,,,,10,,76,0
10260,note_on,,0,0,10,,,,,,,,,,,,,,,,15,,60,72
10260,note_on,,1,0,8,,,,,,,,,,,,,,,,12,,60,72
10260,note_on,,1,0,10,,,,,,,,,,,,,,,,15,,48,72
10260,note_on,,1,0,7,,,,,,,,,,,,,,,,11,,67,72
10260,note_on,,1,0,5,,,,,,,,,,,,,,,,8,,48,72
10260,note_on,,1,0,6,,,,,,,,,,,,,,,,10,,76,72
10260,note_on,,1,0,9,,,,,,,,,,,,,,,,13,,48,72
10319,note_on,,59,0,6,,,,,,,,,,,,,,,,10,,76,0
10319,note_on,,59,0,8,,,,,,,,,,,,,,,,12,,60,0
10319,note_on,,59,0,9,,,,,,,,,,,,,,,,13,,48,0
10319,note_on,,59,0,10,,,,,,,,,,,,,,,,15,,76,0
10319,note_on,,0,0,10,,,,,,,,,,,,,,,,15,,72,0
10319,note_on,,0,0,10,,,,,,,,,,,,,,,,15,,67,0
10319,note_on,,0,0,10,,,,,,,,,,,,,,,,15,,48,0
10319,note_on,,0,0,10,,,,,,,,,,,,,,,,15,,60,0
10319,note_on,,59,0,7,,,,,,,,,,,,,,,,11,,67,0
10319,note_on,,59,0,5,,,,,,,,,,,,,,,,8,,48,0
10320,note_on,,0,0,10,,,,,,,,,,,,,,,,15,,77,72
10320,note_on,,0,0,10,,,,,,,,,,,,,,,,15,,69,72
10320,note_on,,0,0,10,,,,,,,,,,,,,,,,15,,72,72
10320,note_on,,0,0,10,,,,,,,,,,,,,,,,15,,60,72
10320,note_on,,1,0,8,,,,,,,,,,,,,,,,12,,60,72
10320,note_on,,1,0,7,,,,,,,,,,,,,,,,11,,69,72
10320,note_on,,1,0,10,,,,,,,,,,,,,,,,15,,53,72
10320,note_on,,1,0,9,,,,,,,,,,,,,,,,13,,53,72
10320,note_on,,1,0,6,,,,,,,,,,,,,,,,10,,77,72
10320,note_on,,1,0,5,,,,,,,,,,,,,,,,8,,53,72
10379,note_on,,59,0,6,,,,,,,,,,,,,,,,10,,77,0
10379,note_on,,59,0,10,,,,,,,,,,,,,,,,15,,53,0
10379,note_on,,0,0,10,,,,,,,,,,,,,,,,15,,60,0
10379,note_on,,59,0,9,,,,,,,,,,,,,,,,13,,53,0
10379,note_on,,59,0,7,,,,,,,,,,,,,,,,11,,69,0
10379,note_on,,59,0,8,,,,,,,,,,,,,,,,12,,60,0
10410,note_on,,31,0,7,,,,,,,,,,,,,,,,11,,65,72
10410,note_on,,31,0,10,,,,,,,,,,,,,,,,15,,53,72
10410,note_on,,0,0,10,,,,,,,,,,,,,,,,15,,60,72
10410,note_on,,31,0,9,,,,,,,,,,,,,,,,13,,53,72
10410,note_on,,31,0,6,,,,,,,,,,,,,,,,10,,69,72
10410,note_on,,31,0,8,,,,,,,,,,,,,,,,12,,60,72
10439,note_on,,29,0,8,,,,,,,,,,,,,,,,12,,60,0
10439,note_on,,29,0,7,,,,,,,,,,,,,,,,11,,65,0
10439,note_on,,29,0,6,,,,,,,,,,,,,,,,10,,69,0
10439,note_on,,29,0,9,,,,,,,,,,,,,,,,13,,53,0
10439,note_on,,29,0,10,,,,,,,,,,,,,,,,15,,77,0
10439,note_on,,0,0,10,,,,,,,,,,,,,,,,15,,72,0
10439,note_on,,0,0,10,,,,,,,,,,,,,,,,15,,53,0
10439,note_on,,0,0,10,,,,,,,,,,,,,,,,15,,60,0
10439,note_on,,0,0,10,,,,,,,,,,,,,,,,15,,69,0
10440,note_on,,0,0,10,,,,,,,,,,,,,,,,15,,60,72
10440,note_on,,0,0,10,,,,,,,,,,,,,,,,15,,72,72
10440,note_on,,0,0,10,,,,,,,,,,,,,,,,15,,69,72
10440,note_on,,0,0,10,,,,,,,,,,,,,,,,15,,65,72
10440,note_on,,1,0,7,,,,,,,,,,,,,,,,11,,65,72
10440,note_on,,1,0,10,,,,,,,,,,,,,,,,15,,53,72
10440,note_on,,1,0,9,,,,,,,,,,,,,,,,13,,53,72
10440,note_on,,1,0,8,,,,,,,,,,,,,,,,12,,60,72
10440,note_on,,1,0,6,,,,,,,,,,,,,,,,10,,69,72
10529,note_on,,89,0,6,,,,,,,,,,,,,,,,10,,69,0
10529,note_on,,89,0,7,,,,,,,,,,,,,,,,11,,65,0
10529,note_on,,0,0,10,,,,,,,,,,,,,,,,15,,60,0
10529,note_on,,89,0,10,,,,,,,,,,,,,,,,15,,53,0
10529,note_on,,89,0,9,,,,,,,,,,,,,,,,13,,53,0
10529,note_on,,89,0,8,,,,,,,,,,,,,,,,12,,60,0
10530,note_on,,1,0,8,,,,,,,,,,,,,,,,12,,60,72
10530,note_on,,1,0,7,,,,,,,,,,,,,,,,11,,65,72
10530,note_on,,0,0,10,,,,,,,,,,,,,,,,15,,60,72
10530,note_on,,1,0,6,,,,,,,,,,,,,,,,10,,69,72
10530,note_on,,1,0,10,,,,,,,,,,,,,,,,15,,53,72
10530,note_on,,1,0,9,,,,,,,,,,,,,,,,13,,53,72
10559,note_on,,29,0,10,,,,,,,,,,,,,,,,15,,72,0
10559,note_on,,239,0,5,,,,,,,,,,,,,,,,8,,53,0
10559,note_on,,0,0,10,,,,,,,,,,,,,,,,15,,69,0
10559,note_on,,29,0,8,,,,,,,,,,,,,,,,12,,60,0
10559,note_on,,0,0,10,,,,,,,,,,,,,,,,15,,65,0
10559,note_on,,0,0,10,,,,,,,,,,,,,,,,15,,53,0
10559,note_on,,0,0,10,,,,,,,,,,,,,,,,15,,60,0
10559,note_on,,29,0,9,,,,,,,,,,,,,,,,13,,53,0
10559,note_on,,29,0,6,,,,,,,,,,,,,,,,10,,69,0
10559,note_on,,29,0,7,,,,,,,,,,,,,,,,11,,65,0
10560,note_on,,1,0,7,,,,,,,,,,,,,,,,11,,69,72
10560,note_on,,0,0,10,,,,,,,,,,,,,,,,15,,69,72
10560,note_on,,1,0,8,,,,,,,,,,,,,,,,12,,62,72
10560,note_on,,0,0,10,,,,,,,,,,,,,,,,15,,74,72
10560,note_on,,1,0,10,,,,,,,,,,,,,,,,15,,54,72
10560,note_on,,0,0,10,,,,,,,,,,,,,,,,15,,62,72
10560,note_on,,1,0,9,,,,,,,,,,,,,,,,13,,54,72
10560,note_on,,1,0,6,,,,,,,,,,,,,,,,10,,74,72
10679,note_on,,119,0,10,,,,,,,,,,,,,,,,15,,54,0
10679,note_on,,0,0,10,,,,,,,,,,,,,,,,15,,74,0
10679,note_on,,119,0,6,,,,,,,,,,,,,,,,10,,74,0
10679,note_on,,119,0,7,,,,,,,,,,,,,,,,11,,69,0
10679,note_on,,119,0,8,,,,,,,,,,,,,,,,12,,62,0
10679,note_on,,119,0,9,,,,,,,,,,,,,,,,13,,54,0
10679,note_on,,0,0,10,,,,,,,,,,,,,,,,15,,62,0
10679,note_on,,0,0,10,,,,,,,,,,,,,,,,15,,69,0
10740,note_on,,181,0,5,,,,,,,,,,,,,,,,8,,50,72
10799,note_on,,59,0,5,,,,,,,,,,,,,,,,8,,50,0
10800,note_on,,1,0,5,,,,,,,,,,,,,,,,8,,54,72
10919,note_on,,119,0,5,,,,,,,,,,,,,,,,8,,54,0
10920,note_on,,1,0,5,,,,,,,,,,,,,,,,8,,54,72
10979,note_on,,59,0,5,,,,,,,,,,,,,,,,8,,54,0
10980,note_on,,1,0,5,,,,,,,,,,,,,,,,8,,55,72
11039,note_on,,59,0,5,,,,,,,,,,,,,,,,8,,55,0
11040,note_on,,1,0,5,,,,,,,,,,,,,,,,8,,57,72
11159,note_on,,119,0,5,,,,,,,,,,,,,,,,8,,57,0
11220,note_on,,61,0,5,,,,,,,,,,,,,,,,8,,57,72
11279,note_on,,59,0,5,,,,,,,,,,,,,,,,8,,57,0
11280,note_on,,1,0,5,,,,,,,,,,,,,,,,8,,60,72
11309,note_on,,29,0,5,,,,,,,,,,,,,,,,8,,60,0
11310,note_on,,1,0,5,,,,,,,,,,,,,,,,8,,60,72
11339,note_on,,29,0,5,,,,,,,,,,,,,,,,8,,60,0
11340,note_on,,1,0,5,,,,,,,,,,,,,,,,8,,60,72
11399,note_on,,59,0,5,,,,,,,,,,,,,,,,8,,60,0
11400,note_on,,1,0,5,,,,,,,,,,,,,,,,8,,60,72
11459,note_on,,59,0,5,,,,,,,,,,,,,,,,8,,60,0
11460,note_on,,1,0,5,,,,,,,,,,,,,,,,8,,60,72
11489,note_on,,29,0,5,,,,,,,,,,,,,,,,8,,60,0
11490,note_on,,1,0,5,,,,,,,,,,,,,,,,8,,58,72
11519,note_on,,29,0,5,,,,,,,,,,,,,,,,8,,58,0
11520,note_on,,1,0,5,,,,,,,,,,,,,,,,8,,55,72
11579,note_on,,59,0,5,,,,,,,,,,,,,,,,8,,55,0
11580,note_on,,901,0,8,,,,,,,,,,,,,,,,12,,67,72
11580,note_on,,901,0,10,,,,,,,,,,,,,,,,15,,55,72
11580,note_on,,901,0,7,,,,,,,,,,,,,,,,11,,70,72
11580,note_on,,901,0,9,,,,,,,,,,,,,,,,13,,55,72
11580,note_on,,1,0,5,,,,,,,,,,,,,,,,8,,55,72
11580,note_on,,901,0,6,,,,,,,,,,,,,,,,10,,74,72
11639,note_on,,59,0,8,,,,,,,,,,,,,,,,12,,67,0
11639,note_on,,59,0,10,,,,,,,,,,,,,,,,15,,55,0
11639,note_on,,59,0,6,,,,,,,,,,,,,,,,10,,74,0
11639,note_on,,59,0,9,,,,,,,,,,,,,,,,13,,55,0
11639,note_on,,59,0,5,,,,,,,,,,,,,,,,8,,55,0
11639,note_on,,59,0,7,,,,,,,,,,,,,,,,11,,70,0
11640,note_on,,0,0,10,,,,,,,,,,,,,,,,15,,62,72
11640,note_on,,0,0,10,,,,,,,,,,,,,,,,15,,67,72
11640,note_on,,0,0,10,,,,,,,,,,,,,,,,15,,70,72
11640,note_on,,0,0,10,,,,,,,,,,,,,,,,15,,74,72
11640,note_on,,1,0,8,,,,,,,,,,,,,,,,12,,67,72
11640,note_on,,1,0,10,,,,,,,,,,,,,,,,15,,55,72
11640,note_on,,1,0,6,,,,,,,,,,,,,,,,10,,74,72
11640,note_on,,1,0,9,,,,,,,,,,,,,,,,13,,55,72
11640,note_on,,1,0,7,,,,,,,,,,,,,,,,11,,70,72
11729,note_on,,89,0,9,,,,,,,,,,,,,,,,13,,55,0
11729,note_on,,89,0,10,,,,,,,,,,,,,,,,15,,55,0
11729,note_on,,89,0,6,,,,,,,,,,,,,,,,10,,74,0
11729,note_on,,89,0,8,,,,,,,,,,,,,,,,12,,67,0
11729,note_on,,89,0,7,,,,,,,,,,,,,,,,11,,70,0
11730,note_on,,1,0,7,,,,,,,,,,,,,,,,11,,70,72
11730,note_on,,1,0,6,,,,,,,,,,,,,,,,10,,74,72
11730,note_on,,1,0,10,,,,,,,,,,,,,,,,15,,55,72
11730,note_on,,1,0,9,,,,,,,,,,,,,,,,13,,55,72
11730,note_on,,1,0,8,,,,,,,,,,,,,,,,12,,67,72
11759,note_on,,29,0,10,,,,,,,,,,,,,,,,15,,74,0
11759,note_on,,29,0,6,,,,,,,,,,,,,,,,10,,74,0
11759,note_on,,29,0,8,,,,,,,,,,,,,,,,12,,67,0
11759,note_on,,29,0,7,,,,,,,,,,,,,,,,11,,70,0
11759,note_on,,0,0,10,,,,,,,,,,,,,,,,15,,70,0
11759,note_on,,0,0,10,,,,,,,,,,,,,,,,15,,67,0
11759,note_on,,0,0,10,,,,,,,,,,,,,,,,15,,62,0
11759,note_on,,0,0,10,,,,,,,,,,,,,,,,15,,55,0
11759,note_on,,29,0,9,,,,,,,,,,,,,,,,13,,55,0
11760,note_on,,1,0,7,,,,,,,,,,,,,,,,11,,71,72
11760,note_on,,1,0,6,,,,,,,,,,,,,,,,10,,74,72
11760,note_on,,0,0,10,,,,,,,,,,,,,,,,15,,79,72
11760,note_on,,0,0,10,,,,,,,,,,,,,,,,15,,74,72
11760,note_on,,1,0,8,,,,,,,,,,,,,,,,12,,67,72
11760,note_on,,1,0,9,,,,,,,,,,,,,,,,13,,53,72
11760,note_on,,0,0,10,,,,,,,,,,,,,,,,15,,71,72
11760,note_on,,0,0,10,,,,,,,,,,,,,,,,15,,55,72
11760,note_on,,1,0,10,,,,,,,,,,,,,,,,15,,53,72
11879,note_on,,0,0,10,,,,,,,,,,,,,,,,15,,79,0
11879,note_on,,119,0,7,,,,,,,,,,,,,,,,11,,71,0
11879,note_on,,119,0,9,,,,,,,,,,,,,,,,13,,53,0
11879,note_on,,119,0,6,,,,,,,,,,,,,,,,10,,74,0
11879,note_on,,119,0,10,,,,,,,,,,,,,,,,15,,53,0
11879,note_on,,119,0,8,,,,,,,,,,,,,,,,12,,67,0
11879,note_on,,0,0,10,,,,,,,,,,,,,,,,15,,55,0
11879,note_on,,0,0,10,,,,,,,,,,,,,,,,15,,71,0
11879,note_on,,0,0,10,,,,,,,,,,,,,,,,15,,74,0
11880,note_on,,241,0,5,,,,,,,,,,,,,,,,8,,55,72
11939,note_on,,59,0,5,,,,,,,,,,,,,,,,8,,55,0
11940,note_on,,1,0,5,,,,,,,,,,,,,,,,8,,57,72
11999,note_on,,59,0,5,,,,,,,,,,,,,,,,8,,57,0
12000,note_on,,1,0,5,,,,,,,,,,,,,,,,8,,59,72
12029,note_on,,29,0,5,,,,,,,,,,,,,,,,8,,59,0
12030,note_on,,1,0,5,,,,,,,,,,,,,,,,8,,59,72
12059,note_on,,29,0,5,,,,,,,,,,,,,,,,8,,59,0
12060,note_on,,1,0,5,,,,,,,,,,,,,,,,8,,59,72
12119,note_on,,59,0,5,,,,,,,,,,,,,,,,8,,59,0
12120,note_on,,1,0,5,,,,,,,,,,,,,,,,8,,57,72
12179,note_on,,59,0,5,,,,,,,,,,,,,,,,8,,57,0
12180,note_on,,1,0,5,,,,,,,,,,,,,,,,8,,55,72
12239,note_on,,59,0,5,,,,,,,,,,,,,,,,8,,55,0
12240,note_on,,361,0,8,,,,,,,,,,,,,,,,12,,67,72
12240,note_on,,361,0,10,,,,,,,,,,,,,,,,15,,52,72
12240,note_on,,361,0,9,,,,,,,,,,,,,,,,13,,52,72
12240,note_on,,361,0,7,,,,,,,,,,,,,,,,11,,72,72
12240,note_on,,0,0,10,,,,,,,,,,,,,,,,15,,67,72
12240,note_on,,0,0,10,,,,,,,,,,,,,,,,15,,55,72
12240,note_on,,0,0,10,,,,,,,,,,,,,,,,15,,60,72
12240,note_on,,1,0,5,,,,,,,,,,,,,,,,8,,60,72
12240,note_on,,361,0,6,,,,,,,,,,,,,,,,10,,79,72
12240,note_on,,0,0,10,,,,,,,,,,,,,,,,15,,72,72
12329,note_on,,89,0,5,,,,,,,,,,,,,,,,8,,60,0
12330,note_on,,1,0,5,,,,,,,,,,,,,,,,8,,60,72
12359,note_on,,0,0,10,,,,,,,,,,,,,,,,15,,72,0
12359,note_on,,0,0,10,,,,,,,,,,,,,,,,15,,55,0
12359,note_on,,0,0,10,,,,,,,,,,,,,,,,15,,60,0
12359,note_on,,119,0,10,,,,,,,,,,,,,,,,15,,52,0
12359,note_on,,0,0,10,,,,,,,,,,,,,,,,15,,67,0
12359,note_on,,119,0,7,,,,,,,,,,,,,,,,11,,72,0
12359,note_on,,29,0,5,,,,,,,,,,,,,,,,8,,60,0
12359,note_on,,119,0,6,,,,,,,,,,,,,,,,10,,79,0
12359,note_on,,119,0,9,,,,,,,,,,,,,,,,13,,52,0
12359,note_on,,119,0,8,,,,,,,,,,,,,,,,12,,67,0
12360,note_on,,1,0,5,,,,,,,,,,,,,,,,8,,60,72
12479,note_on,,119,0,5,,,,,,,,,,,,,,,,8,,60,0
12480,note_on,,0,0,10,,,,,,,,,,,,,,,,15,,65,72
12480,note_on,,0,0,10,,,,,,,,,,,,,,,,15,,62,72
12480,note_on,,121,0,10,,,,,,,,,,,,,,,,15,,50,72
12480,note_on,,121,0,8,,,,,,,,,,,,,,,,12,,62,72
12480,note_on,,121,0,7,,,,,,,,,,,,,,,,11,,65,72
12480,note_on,,121,0,9,,,,,,,,,,,,,,,,13,,50,72
12480,note_on,,121,0,6,,,,,,,,,,,,,,,,10,,71,72
12480,note_on,,0,0,10,,,,,,,,,,,,,,,,15,,59,72
12480,note_on,,0,0,10,,,,,,,,,,,,,,,,15,,53,72
12540,note_on,,61,0,5,,,,,,,,,,,,,,,,8,,53,72
12599,note_on,,119,0,10,,,,,,,,,,,,,,,,15,,50,0
12599,note_on,,0,0,10,,,,,,,,,,,,,,,,15,,65,0
12599,note_on,,59,0,5,,,,,,,,,,,,,,,,8,,53,0
12599,note_on,,0,0,10,,,,,,,,,,,,,,,,15,,53,0
12599,note_on,,119,0,7,,,,,,,,,,,,,,,,11,,65,0
12599,note_on,,119,0,8,,,,,,,,,,,,,,,,12,,62,0
12599,note_on,,0,0,10,,,,,,,,,,,,,,,,15,,59,0
12599,note_on,,119,0,9,,,,,,,,,,,,,,,,13,,50,0
12599,note_on,,119,0,6,,,,,,,,,,,,,,,,10,,71,0
12599,note_on,,0,0,10,,,,,,,,,,,,,,,,15,,62,0
12600,note_on,,1,0,5,,,,,,,,,,,,,,,,8,,55,72
12659,note_on,,59,0,5,,,,,,,,,,,,,,,,8,,55,0
12660,note_on,,1,0,5,,,,,,,,,,,,,,,,8,,50,72
12719,note_on,,59,0,5,,,,,,,,,,,,,,,,8,,50,0
12720,note_on,,1,0,5,,,,,,,,,,,,,,,,8,,52,72
12779,note_on,,59,0,5,,,,,,,,,,,,,,,,8,,52,0
12780,note_on,,181,0,7,,,,,,,,,,,,,,,,11,,67,72
12780,note_on,,181,0,6,,,,,,,,,,,,,,,,10,,72,72
12780,note_on,,181,0,8,,,,,,,,,,,,,,,,12,,64,72
12780,note_on,,1,0,5,,,,,,,,,,,,,,,,8,,52,72
12780,note_on,,181,0,9,,,,,,,,,,,,,,,,13,,48,72
12780,note_on,,181,0,10,,,,,,,,,,,,,,,,15,,48,72
12839,note_on,,59,0,10,,,,,,,,,,,,,,,,15,,48,0
12839,note_on,,59,0,8,,,,,,,,,,,,,,,,12,,64,0
12839,note_on,,59,0,5,,,,,,,,,,,,,,,,8,,52,0
12839,note_on,,59,0,9,,,,,,,,,,,,,,,,13,,48,0
12839,note_on,,59,0,6,,,,,,,,,,,,,,,,10,,72,0
12839,note_on,,59,0,7,,,,,,,,,,,,,,,,11,,67,0
12840,note_on,,1,0,9,,,,,,,,,,,,,,,,13,,48,72
12840,note_on,,1,0,8,,,,,,,,,,,,,,,,12,,64,72
12840,note_on,,1,0,10,,,,,,,,,,,,,,,,15,,48,72
12840,note_on,,0,0,10,,,,,,,,,,,,,,,,15,,55,72
12840,note_on,,0,0,10,,,,,,,,,,,,,,,,15,,60,72
12840,note_on,,0,0,10,,,,,,,,,,,,,,,,15,,64,72
12840,note_on,,1,0,7,,,,,,,,,,,,,,,,11,,67,72
12840,note_on,,1,0,6,,,,,,,,,,,,,,,,10,,72,72
12929,note_on,,89,0,7,,,,,,,,,,,,,,,,11,,67,0
12929,note_on,,89,0,6,,,,,,,,,,,,,,,,10,,72,0
12929,note_on,,89,0,10,,,,,,,,,,,,,,,,15,,48,0
12929,note_on,,89,0,8,,,,,,,,,,,,,,,,12,,64,0
12929,note_on,,89,0,9,,,,,,,,,,,,,,,,13,,48,0
12930,note_on,,1,0,9,,,,,,,,,,,,,,,,13,,48,72
12930,note_on,,1,0,6,,,,,,,,,,,,,,,,10,,72,72
12930,note_on,,1,0,8,,,,,,,,,,,,,,,,12,,64,72
12930,note_on,,1,0,7,,,,,,,,,,,,,,,,11,,67,72
12930,note_on,,1,0,10,,,,,,,,,,,,,,,,15,,48,72
12959,note_on,,0,0,10,,,,,,,,,,,,,,,,15,,55,0
12959,note_on,,29,0,6,,,,,,,,,,,,,,,,10,,72,0
12959,note_on,,0,0,10,,,,,,,,,,,,,,,,15,,60,0
12959,note_on,,29,0,10,,,,,,,,,,,,,,,,15,,64,0
12959,note_on,,0,0,10,,,,,,,,,,,,,,,,15,,48,0
12959,note_on,,29,0,9,,,,,,,,,,,,,,,,13,,48,0
12959,note_on,,29,0,8,,,,,,,,,,,,,,,,12,,64,0
12959,note_on,,29,0,7,,,,,,,,,,,,,,,,11,,67,0
12960,note_on,,1,0,6,,,,,,,,,,,,,,,,10,,76,72
12960,note_on,,1,0,7,,,,,,,,,,,,,,,,11,,71,72
12960,note_on,,1,0,10,,,,,,,,,,,,,,,,15,,44,72
12960,note_on,,0,0,10,,,,,,,,,,,,,,,,15,,76,72
12960,note_on,,0,0,10,,,,,,,,,,,,,,,,15,,71,72
12960,note_on,,0,0,10,,,,,,,,,,,,,,,,15,,64,72
12960,note_on,,0,0,10,,,,,,,,,,,,,,,,15,,52,72
12960,note_on,,1,0,9,,,,,,,,,,,,,,,,13,,44,72
12960,note_on,,1,0,8,,,,,,,,,,,,,,,,12,,64,72
13079,note_on,,119,0,10,,,,,,,,,,,,,,,,15,,44,0
13079,note_on,,0,0,10,,,,,,,,,,,,,,,,15,,76,0
13079,note_on,,0,0,10,,,,,,,,,,,,,,,,15,,64,0
13079,note_on,,0,0,10,,,,,,,,,,,,,,,,15,,52,0
13079,note_on,,119,0,9,,,,,,,,,,,,,,,,13,,44,0
13079,note_on,,0,0,10,,,,,,,,,,,,,,,,15,,71,0
13079,note_on,,119,0,8,,,,,,,,,,,,,,,,12,,64,0
13079,note_on,,119,0,7,,,,,,,,,,,,,,,,11,,71,0
13079,note_on,,119,0,6,,,,,,,,,,,,,,,,10,,76,0
13140,note_on,,301,0,5,,,,,,,,,,,,,,,,8,,52,72
13199,note_on,,59,0,5,,,,,,,,,,,,,,,,8,,52,0
13200,note_on,,1,0,5,,,,,,,,,,,,,,,,8,,59,72
13319,note_on,,119,0,5,,,,,,,,,,,,,,,,8,,59,0
13380,note_on,,61,0,5,,,,,,,,,,,,,,,,8,,59,72
13409,note_on,,29,0,5,,,,,,,,,,,,,,,,8,,59,0
13410,note_on,,1,0,5,,,,,,,,,,,,,,,,8,,52,72
13439,note_on,,29,0,5,,,,,,,,,,,,,,,,8,,52,0
13440,note_on,,361,0,10,,,,,,,,,,,,,,,,15,,45,72
13440,note_on,,0,0,10,,,,,,,,,,,,,,,,15,,72,72
13440,note_on,,0,0,10,,,,,,,,,,,,,,,,15,,69,72
13440,note_on,,0,0,10,,,,,,,,,,,,,,,,15,,64,72
13440,note_on,,0,0,10,,,,,,,,,,,,,,,,15,,57,72
13440,note_on,,361,0,6,,,,,,,,,,,,,,,,10,,76,72
13440,note_on,,361,0,7,,,,,,,,,,,,,,,,11,,72,72
13440,note_on,,361,0,9,,,,,,,,,,,,,,,,13,,45,72
13440,note_on,,361,0,8,,,,,,,,,,,,,,,,12,,69,72
13440,note_on,,1,0,5,,,,,,,,,,,,,,,,8,,60,72
13529,note_on,,89,0,7,,,,,,,,,,,,,,,,11,,72,0
13529,note_on,,0,0,10,,,,,,,,,,,,,,,,15,,57,0
13529,note_on,,89,0,10,,,,,,,,,,,,,,,,15,,45,0
13529,note_on,,89,0,9,,,,,,,,,,,,,,,,13,,45,0
13529,note_on,,89,0,8,,,,,,,,,,,,,,,,12,,69,0
13529,note_on,,89,0,6,,,,,,,,,,,,,,,,10,,76,0
13530,note_on,,1,0,8,,,,,,,,,,,,,,,,12,,69,72
13530,note_on,,1,0,7,,,,,,,,,,,,,,,,11,,64,72
13530,note_on,,1,0,6,,,,,,,,,,,,,,,,10,,72,72
13530,note_on,,1,0,9,,,,,,,,,,,,,,,,13,,57,72
13530,note_on,,1,0,10,,,,,,,,,,,,,,,,15,,57,72
13530,note_on,,0,0,10,,,,,,,,,,,,,,,,15,,60,72
13559,note_on,,29,0,10,,,,,,,,,,,,,,,,15,,72,0
13559,note_on,,0,0,10,,,,,,,,,,,,,,,,15,,69,0
13559,note_on,,0,0,10,,,,,,,,,,,,,,,,15,,64,0
13559,note_on,,0,0,10,,,,,,,,,,,,,,,,15,,57,0
13559,note_on,,0,0,10,,,,,,,,,,,,,,,,15,,60,0
13559,note_on,,29,0,6,,,,,,,,,,,,,,,,10,,72,0
13559,note_on,,119,0,5,,,,,,,,,,,,,,,,8,,60,0
13559,note_on,,29,0,7,,,,,,,,,,,,,,,,11,,64,0
13559,note_on,,29,0,8,,,,,,,,,,,,,,,,12,,69,0
13559,note_on,,29,0,9,,,,,,,,,,,,,,,,13,,57,0
13560,note_on,,0,0,10,,,,,,,,,,,,,,,,15,,72,72
13560,note_on,,0,0,10,,,,,,,,,,,,,,,,15,,76,72
13560,note_on,,0,0,10,,,,,,,,,,,,,,,,15,,81,72
13560,note_on,,1,0,7,,,,,,,,,,,,,,,,11,,64,72
13560,note_on,,1,0,8,,,,,,,,,,,,,,,,12,,69,72
13560,note_on,,1,0,6,,,,,,,,,,,,,,,,10,,72,72
13560,note_on,,0,0,10,,,,,,,,,,,,,,,,15,,60,72
13560,note_on,,1,0,10,,,,,,,,,,,,,,,,15,,57,72
13560,note_on,,1,0,9,,,,,,,,,,,,,,,,13,,57,72
13649,note_on,,89,0,10,,,,,,,,,,,,,,,,15,,57,0
13649,note_on,,89,0,7,,,,,,,,,,,,,,,,11,,64,0
13649,note_on,,89,0,9,,,,,,,,,,,,,,,,13,,57,0
13649,note_on,,89,0,6,,,,,,,,,,,,,,,,10,,72,0
13649,note_on,,0,0,10,,,,,,,,,,,,,,,,15,,60,0
13649,note_on,,89,0,8,,,,,,,,,,,,,,,,12,,69,0
13650,note_on,,1,0,8,,,,,,,,,,,,,,,,12,,69,72
13650,note_on,,1,0,9,,,,,,,,,,,,,,,,13,,57,72
13650,note_on,,0,0,10,,,,,,,,,,,,,,,,15,,60,72
13650,note_on,,1,0,7,,,,,,,,,,,,,,,,11,,64,72
13650,note_on,,1,0,10,,,,,,,,,,,,,,,,15,,57,72
13650,note_on,,1,0,6,,,,,,,,,,,,,,,,10,,72,72
13679,note_on,,29,0,10,,,,,,,,,,,,,,,,15,,81,0
13679,note_on,,29,0,9,,,,,,,,,,,,,,,,13,,57,0
13679,note_on,,0,0,10,,,,,,,,,,,,,,,,15,,57,0
13679,note_on,,0,0,10,,,,,,,,,,,,,,,,15,,72,0
13679,note_on,,0,0,10,,,,,,,,,,,,,,,,15,,76,0
13679,note_on,,0,0,10,,,,,,,,,,,,,,,,15,,60,0
13679,note_on,,29,0,7,,,,,,,,,,,,,,,,11,,64,0
13679,note_on,,29,0,6,,,,,,,,,,,,,,,,10,,72,0
13679,note_on,,29,0,8,,,,,,,,,,,,,,,,12,,69,0
13680,note_on,,1,0,7,,,,,,,,,,,,,,,,11,,66,72
13680,note_on,,1,0,10,,,,,,,,,,,,,,,,15,,51,72
13680,note_on,,0,0,10,,,,,,,,,,,,,,,,15,,72,72
13680,note_on,,0,0,10,,,,,,,,,,,,,,,,15,,69,72
13680,note_on,,0,0,10,,,,,,,,,,,,,,,,15,,66,72
13680,note_on,,0,0,10,,,,,,,,,,,,,,,,15,,57,72
13680,note_on,,1,0,6,,,,,,,,,,,,,,,,10,,72,72
13680,note_on,,1,0,8,,,,,,,,,,,,,,,,12,,69,72
13680,note_on,,1,0,9,,,,,,,,,,,,,,,,13,,51,72
13799,note_on,,0,0,10,,,,,,,,,,,,,,,,15,,66,0
13799,note_on,,119,0,8,,,,,,,,,,,,,,,,12,,69,0
13799,note_on,,0,0,10,,,,,,,,,,,,,,,,15,,57,0
13799,note_on,,0,0,10,,,,,,,,,,,,,,,,15,,69,0
13799,note_on,,0,0,10,,,,,,,,,,,,,,,,15,,72,0
13799,note_on,,119,0,9,,,,,,,,,,,,,,,,13,,51,0
13799,note_on,,119,0,10,,,,,,,,,,,,,,,,15,,51,0
13799,note_on,,119,0,7,,,,,,,,,,,,,,,,11,,66,0
13799,note_on,,119,0,6,,,,,,,,,,,,,,,,10,,72,0
13800,note_on,,241,0,5,,,,,,,,,,,,,,,,8,,57,72
13859,note_on,,59,0,5,,,,,,,,,,,,,,,,8,,57,0
13860,note_on,,1,0,5,,,,,,,,,,,,,,,,8,,57,72
13919,note_on,,59,0,5,,,,,,,,,,,,,,,,8,,57,0
13920,note_on,,1,0,5,,,,,,,,,,,,,,,,8,,56,72
13920,time_signature,,13440,1,0,,,,,,,,,,5,4,24,8,,,,,,
14099,note_on,,179,0,5,,,,,,,,,,,,,,,,8,,56,0
14100,note_on,,1,0,5,,,,,,,,,,,,,,,,8,,57,72
14159,note_on,,59,0,5,,,,,,,,,,,,,,,,8,,57,0
14160,note_on,,1,0,5,,,,,,,,,,,,,,,,8,,52,72
14160,set_tempo,,240,1,0,,,,,,,,,1500000,,,,,,,,,,
14249,note_on,,89,0,5,,,,,,,,,,,,,,,,8,,52,0
14249,end_of_track,,0,1,5,,,,,,,,,,,,,,,,,,,
14280,set_tempo,,120,1,0,,,,,,,,,705882,,,,,,,,,,
14280,note_on,,0,0,10,,,,,,,,,,,,,,,,15,,59,72
14280,note_on,,0,0,10,,,,,,,,,,,,,,,,15,,68,72
14280,note_on,,0,0,10,,,,,,,,,,,,,,,,15,,71,72
14280,note_on,,481,0,10,,,,,,,,,,,,,,,,15,,52,72
14280,note_on,,481,0,6,,,,,,,,,,,,,,,,10,,80,72
14280,note_on,,481,0,8,,,,,,,,,,,,,,,,12,,64,72
14280,note_on,,481,0,9,,,,,,,,,,,,,,,,13,,52,72
14280,note_on,,481,0,7,,,,,,,,,,,,,,,,11,,71,72
14399,note_on,,119,0,8,,,,,,,,,,,,,,,,12,,64,0
14399,note_on,,119,0,9,,,,,,,,,,,,,,,,13,,52,0
14399,note_on,,0,0,10,,,,,,,,,,,,,,,,15,,71,0
14399,note_on,,0,0,10,,,,,,,,,,,,,,,,15,,68,0
14399,note_on,,0,0,10,,,,,,,,,,,,,,,,15,,59,0
14399,note_on,,119,0,10,,,,,,,,,,,,,,,,15,,52,0
14399,note_on,,119,0,6,,,,,,,,,,,,,,,,10,,80,0
14399,note_on,,119,0,7,,,,,,,,,,,,,,,,11,,71,0
14400,note_on,,1,0,7,,,,,,,,,,,,,,,,11,,73,72
14400,note_on,,1,0,10,,,,,,,,,,,,,,,,15,,45,72
14400,note_on,,0,0,10,,,,,,,,,,,,,,,,15,,73,72
14400,note_on,,1,0,8,,,,,,,,,,,,,,,,12,,64,72
14400,note_on,,1,0,6,,,,,,,,,,,,,,,,10,,81,72
14400,note_on,,1,0,9,,,,,,,,,,,,,,,,13,,45,72
14400,note_on,,0,0,10,,,,,,,,,,,,,,,,15,,64,72
14400,note_on,,0,0,10,,,,,,,,,,,,,,,,15,,69,72
14400,note_on,,0,0,10,,,,,,,,,,,,,,,,15,,52,72
14519,note_on,,0,0,10,,,,,,,,,,,,,,,,15,,64,0
14519,note_on,,0,0,10,,,,,,,,,,,,,,,,15,,69,0
14519,note_on,,0,0,10,,,,,,,,,,,,,,,,15,,73,0
14519,note_on,,119,0,10,,,,,,,,,,,,,,,,15,,45,0
14519,note_on,,119,0,8,,,,,,,,,,,,,,,,12,,64,0
14519,end_of_track,,0,1,8,,,,,,,,,,,,,,,,,,,
14519,note_on,,119,0,6,,,,,,,,,,,,,,,,10,,81,0
14519,end_of_track,,0,1,6,,,,,,,,,,,,,,,,,,,
14519,note_on,,119,0,7,,,,,,,,,,,,,,,,11,,73,0
14519,end_of_track,,0,1,7,,,,,,,,,,,,,,,,,,,
14519,note_on,,0,0,10,,,,,,,,,,,,,,,,15,,52,0
14519,end_of_track,,0,1,9,,,,,,,,,,,,,,,,,,,
14519,note_on,,119,0,9,,,,,,,,,,,,,,,,13,,45,0
14519,end_of_track,,0,1,10,,,,,,,,,,,,,,,,,,,
14520,time_signature,,240,1,0,,,,,,,,,,4,4,24,8,,,,,,
15000,set_tempo,,480,1,0,,,,,,,,,666666,,,,,,,,,,
15000,end_of_track,,0,1,0,,,,,,,,,,,,,,,,,,,
