tick,type,numerator,denominator,clocks_per_click,notated_32nd_notes_per_beat,time,meta,track,key,tempo,port,program,channel,control,value,note,velocity
0,time_signature,4,4,24,8,0,1,0,,,,,,,,,
0,control_change,,,,,0,0,5,,,,,4,10,64,,
0,note_on,,,,,0,0,5,,,,,4,,,46,107
0,midi_port,,,,,0,1,6,,,0,,,,,,
0,track_name,,,,,0,1,6,,,,,,,,,
0,program_change,,,,,0,0,6,,,,68,5,,,,
0,control_change,,,,,0,0,6,,,,,5,7,75,,
0,control_change,,,,,0,0,6,,,,,5,10,70,,
0,end_of_track,,,,,0,1,6,,,,,,,,,
0,midi_port,,,,,0,1,7,,,0,,,,,,
0,track_name,,,,,0,1,7,,,,,,,,,
0,program_change,,,,,0,0,7,,,,68,6,,,,
0,control_change,,,,,0,0,7,,,,,6,7,75,,
0,control_change,,,,,0,0,7,,,,,6,10,60,,
0,end_of_track,,,,,0,1,7,,,,,,,,,
0,midi_port,,,,,0,1,8,,,0,,,,,,
0,control_change,,,,,0,0,5,,,,,4,7,100,,
0,track_name,,,,,0,1,8,,,,,,,,,
0,program_change,,,,,0,0,5,,,,19,4,,,,
0,midi_port,,,,,0,1,5,,,0,,,,,,
0,program_change,,,,,0,0,2,,,,19,1,,,,
0,control_change,,,,,0,0,2,,,,,1,7,100,,
0,control_change,,,,,0,0,2,,,,,1,10,85,,
0,midi_port,,,,,0,1,3,,,0,,,,,,
0,track_name,,,,,0,1,3,,,,,,,,,
0,program_change,,,,,0,0,3,,,,19,2,,,,
0,control_change,,,,,0,0,3,,,,,2,7,100,,
0,control_change,,,,,0,0,3,,,,,2,10,100,,
0,midi_port,,,,,0,1,4,,,0,,,,,,
0,track_name,,,,,0,1,4,,,,,,,,,
0,program_change,,,,,0,0,4,,,,19,3,,,,
0,control_change,,,,,0,0,4,,,,,3,7,100,,
0,control_change,,,,,0,0,4,,,,,3,10,30,,
0,note_on,,,,,0,0,4,,,,,3,,,46,107
0,track_name,,,,,0,1,18,,,,,,,,,
0,track_name,,,,,0,1,5,,,,,,,,,
0,track_name,,,,,0,1,2,,,,,,,,,
0,program_change,,,,,0,0,8,,,,48,7,,,,
0,control_change,,,,,0,0,8,,,,,7,10,20,,
0,track_name,,,,,0,1,13,,,,,,,,,
0,end_of_track,,,,,0,1,13,,,,,,,,,
0,midi_port,,,,,0,1,14,,,0,,,,,,
0,track_name,,,,,0,1,14,,,,,,,,,
0,end_of_track,,,,,0,1,14,,,,,,,,,
0,midi_port,,,,,0,1,15,,,0,,,,,,
0,track_name,,,,,0,1,15,,,,,,,,,
0,end_of_track,,,,,0,1,15,,,,,,,,,
0,midi_port,,,,,0,1,16,,,0,,,,,,
0,track_name,,,,,0,1,16,,,,,,,,,
0,end_of_track,,,,,0,1,16,,,,,,,,,
0,midi_port,,,,,0,1,17,,,0,,,,,,
0,track_name,,,,,0,1,17,,,,,,,,,
0,end_of_track,,,,,0,1,17,,,,,,,,,
0,midi_port,,,,,0,1,18,,,0,,,,,,
0,midi_port,,,,,0,1,13,,,0,,,,,,
0,control_change,,,,,0,0,8,,,,,7,7,90,,
0,end_of_track,,,,,0,1,12,,,,,,,,,
0,midi_port,,,,,0,1,12,,,0,,,,,,
0,midi_port,,,,,0,1,9,,,0,,,,,,
0,track_name,,,,,0,1,9,,,,,,,,,
0,program_change,,,,,0,0,9,,,,48,8,,,,
0,control_change,,,,,0,0,9,,,,,8,7,90,,
0,control_change,,,,,0,0,9,,,,,8,10,45,,
0,midi_port,,,,,0,1,10,,,0,,,,,,
0,track_name,,,,,0,1,10,,,,,,,,,
0,program_change,,,,,0,0,10,,,,48,10,,,,
0,control_change,,,,,0,0,10,,,,,10,7,90,,
0,control_change,,,,,0,0,10,,,,,10,10,110,,
0,midi_port,,,,,0,1,11,,,0,,,,,,
0,track_name,,,,,0,1,11,,,,,,,,,
0,program_change,,,,,0,0,11,,,,48,11,,,,
0,control_change,,,,,0,0,11,,,,,11,7,100,,
0,control_change,,,,,0,0,11,,,,,11,10,115,,
0,track_name,,,,,0,1,12,,,,,,,,,
0,midi_port,,,,,0,1,2,,,0,,,,,,
0,end_of_track,,,,,0,1,18,,,,,,,,,
0,control_change,,,,,0,0,1,,,,,0,10,45,,
0,control_change,,,,,0,0,1,,,,,0,7,100,,
0,key_signature,,,,,0,1,0,Bb,,,,,,,,
0,set_tempo,,,,,0,1,0,,1395349,,,,,,,
0,program_change,,,,,0,0,1,,,,19,0,,,,
0,midi_port,,,,,0,1,1,,,0,,,,,,
0,track_name,,,,,0,1,1,,,,,,,,,
1,marker,,,,,1,1,0,,,,,,,,,
60,note_on,,,,,60,0,3,,,,,2,,,70,107
60,note_on,,,,,0,0,3,,,,,2,,,74,107
108,note_on,,,,,48,0,3,,,,,2,,,70,0
116,note_on,,,,,8,0,3,,,,,2,,,74,0
120,note_on,,,,,0,0,3,,,,,2,,,74,107
120,note_on,,,,,4,0,3,,,,,2,,,70,107
169,note_on,,,,,49,0,3,,,,,2,,,70,0
174,note_on,,,,,5,0,3,,,,,2,,,74,0
180,note_on,,,,,6,0,3,,,,,2,,,70,107
180,note_on,,,,,0,0,3,,,,,2,,,74,107
228,note_on,,,,,48,0,3,,,,,2,,,70,0
238,note_on,,,,,238,0,4,,,,,3,,,46,0
238,note_on,,,,,238,0,5,,,,,4,,,46,0
240,note_on,,,,,2,0,5,,,,,4,,,53,107
240,note_on,,,,,0,0,3,,,,,2,,,72,107
240,note_on,,,,,2,0,4,,,,,3,,,53,107
240,note_on,,,,,12,0,3,,,,,2,,,70,107
249,note_on,,,,,9,0,3,,,,,2,,,74,0
293,note_on,,,,,44,0,3,,,,,2,,,72,0
300,note_on,,,,,7,0,3,,,,,2,,,70,107
300,note_on,,,,,0,0,3,,,,,2,,,72,107
307,note_on,,,,,7,0,3,,,,,2,,,70,0
309,note_on,,,,,2,0,3,,,,,2,,,70,0
309,note_on,,,,,0,0,3,,,,,2,,,69,107
318,note_on,,,,,9,0,3,,,,,2,,,70,107
320,note_on,,,,,2,0,3,,,,,2,,,69,0
328,note_on,,,,,8,0,3,,,,,2,,,69,107
329,note_on,,,,,1,0,3,,,,,2,,,70,0
342,note_on,,,,,13,0,3,,,,,2,,,69,0
343,note_on,,,,,1,0,3,,,,,2,,,67,107
359,note_on,,,,,16,0,3,,,,,2,,,67,0
360,note_on,,,,,0,0,3,,,,,2,,,77,107
360,note_on,,,,,1,0,3,,,,,2,,,69,107
363,note_on,,,,,3,0,3,,,,,2,,,72,0
412,note_on,,,,,49,0,3,,,,,2,,,77,0
414,note_on,,,,,2,0,3,,,,,2,,,69,0
420,note_on,,,,,6,0,3,,,,,2,,,69,107
420,note_on,,,,,0,0,3,,,,,2,,,77,107
480,note_on,,,,,60,0,3,,,,,2,,,67,107
480,note_on,,,,,240,0,4,,,,,3,,,48,107
480,note_on,,,,,240,0,5,,,,,4,,,48,107
486,note_on,,,,,6,0,3,,,,,2,,,69,0
487,note_on,,,,,7,0,4,,,,,3,,,53,0
487,note_on,,,,,7,0,5,,,,,4,,,53,0
529,note_on,,,,,43,0,3,,,,,2,,,67,0
532,note_on,,,,,3,0,3,,,,,2,,,77,0
540,note_on,,,,,8,0,3,,,,,2,,,67,107
540,note_on,,,,,0,0,3,,,,,2,,,75,107
585,note_on,,,,,45,0,3,,,,,2,,,74,107
587,note_on,,,,,2,0,3,,,,,2,,,75,0
599,note_on,,,,,12,0,3,,,,,2,,,67,0
600,note_on,,,,,1,0,3,,,,,2,,,72,107
600,note_on,,,,,0,0,3,,,,,2,,,75,107
603,note_on,,,,,3,0,3,,,,,2,,,74,0
653,note_on,,,,,50,0,3,,,,,2,,,72,0
659,note_on,,,,,6,0,3,,,,,2,,,75,0
660,note_on,,,,,1,0,3,,,,,2,,,72,107
660,note_on,,,,,0,0,3,,,,,2,,,75,107
712,note_on,,,,,52,0,3,,,,,2,,,72,0
720,note_on,,,,,233,0,4,,,,,3,,,55,107
720,note_on,,,,,233,0,5,,,,,4,,,55,107
720,note_on,,,,,0,0,3,,,,,2,,,74,107
720,note_on,,,,,0,0,3,,,,,2,,,72,107
720,note_on,,,,,8,0,3,,,,,2,,,75,0
727,note_on,,,,,7,0,4,,,,,3,,,48,0
727,note_on,,,,,7,0,5,,,,,4,,,48,0
776,note_on,,,,,56,0,3,,,,,2,,,74,0
780,note_on,,,,,0,0,3,,,,,2,,,74,107
780,note_on,,,,,4,0,3,,,,,2,,,72,0
780,note_on,,,,,0,0,3,,,,,2,,,70,107
825,note_on,,,,,45,0,3,,,,,2,,,69,107
831,note_on,,,,,6,0,3,,,,,2,,,70,0
840,note_on,,,,,0,0,3,,,,,2,,,79,107
840,note_on,,,,,9,0,3,,,,,2,,,70,107
849,note_on,,,,,9,0,3,,,,,2,,,69,0
853,note_on,,,,,4,0,3,,,,,2,,,74,0
891,note_on,,,,,38,0,3,,,,,2,,,70,0
898,note_on,,,,,7,0,3,,,,,2,,,79,0
900,note_on,,,,,2,0,3,,,,,2,,,70,107
900,note_on,,,,,0,0,3,,,,,2,,,79,107
954,note_on,,,,,54,0,3,,,,,2,,,79,0
960,note_on,,,,,233,0,4,,,,,3,,,50,107
960,note_on,,,,,6,0,3,,,,,2,,,69,107
960,note_on,,,,,0,0,3,,,,,2,,,79,107
960,note_on,,,,,233,0,5,,,,,4,,,50,107
961,note_on,,,,,1,0,3,,,,,2,,,70,0
968,note_on,,,,,8,0,5,,,,,4,,,55,0
968,note_on,,,,,8,0,4,,,,,3,,,55,0
1016,note_on,,,,,55,0,3,,,,,2,,,69,0
1020,note_on,,,,,0,0,3,,,,,2,,,77,107
1020,note_on,,,,,4,0,3,,,,,2,,,69,107
1021,note_on,,,,,1,0,3,,,,,2,,,79,0
1050,note_on,,,,,29,0,3,,,,,2,,,76,107
1055,note_on,,,,,5,0,3,,,,,2,,,77,0
1076,note_on,,,,,21,0,3,,,,,2,,,69,0
1080,note_on,,,,,4,0,3,,,,,2,,,74,107
1080,note_on,,,,,0,0,3,,,,,2,,,77,107
1086,note_on,,,,,6,0,3,,,,,2,,,76,0
1130,note_on,,,,,44,0,3,,,,,2,,,77,0
1133,note_on,,,,,3,0,3,,,,,2,,,74,0
1140,note_on,,,,,0,0,3,,,,,2,,,77,107
1140,note_on,,,,,7,0,3,,,,,2,,,74,107
1193,note_on,,,,,53,0,3,,,,,2,,,74,0
1200,note_on,,,,,7,0,3,,,,,2,,,74,107
1200,note_on,,,,,0,0,3,,,,,2,,,75,107
1200,note_on,,,,,232,0,5,,,,,4,,,55,107
1200,note_on,,,,,232,0,4,,,,,3,,,55,107
1204,note_on,,,,,4,0,3,,,,,2,,,77,0
1205,note_on,,,,,5,0,5,,,,,4,,,50,0
1205,note_on,,,,,5,0,4,,,,,3,,,50,0
1252,note_on,,,,,48,0,3,,,,,2,,,75,0
1260,note_on,,,,,8,0,3,,,,,2,,,72,107
1260,note_on,,,,,0,0,3,,,,,2,,,75,107
1261,note_on,,,,,1,0,3,,,,,2,,,74,0
1305,note_on,,,,,44,0,3,,,,,2,,,70,107
1308,note_on,,,,,3,0,3,,,,,2,,,72,0
1313,note_on,,,,,5,0,3,,,,,2,,,75,0
1320,note_on,,,,,0,0,3,,,,,2,,,75,107
1320,note_on,,,,,115,0,5,,,,,4,,,57,107
1320,note_on,,,,,7,0,3,,,,,2,,,72,107
1320,note_on,,,,,115,0,4,,,,,3,,,57,107
1327,note_on,,,,,7,0,3,,,,,2,,,70,0
1331,note_on,,,,,11,0,5,,,,,4,,,55,0
1331,note_on,,,,,11,0,4,,,,,3,,,55,0
1369,note_on,,,,,42,0,3,,,,,2,,,72,0
1380,note_on,,,,,0,0,3,,,,,2,,,77,107
1380,note_on,,,,,11,0,3,,,,,2,,,72,107
1388,note_on,,,,,8,0,3,,,,,2,,,75,0
1395,note_on,,,,,7,0,3,,,,,2,,,75,107
1401,note_on,,,,,6,0,3,,,,,2,,,77,0
1410,note_on,,,,,9,0,3,,,,,2,,,74,107
1418,note_on,,,,,8,0,3,,,,,2,,,75,0
1427,note_on,,,,,9,0,3,,,,,2,,,72,0
1436,note_on,,,,,9,0,3,,,,,2,,,74,0
1440,note_on,,,,,0,0,3,,,,,2,,,74,107
1440,note_on,,,,,109,0,4,,,,,3,,,58,107
1440,note_on,,,,,109,0,5,,,,,4,,,58,107
1440,note_on,,,,,4,0,3,,,,,2,,,72,107
1442,note_on,,,,,2,0,4,,,,,3,,,57,0
1442,note_on,,,,,2,0,5,,,,,4,,,57,0
1499,note_on,,,,,59,0,3,,,,,2,,,74,0
1500,note_on,,,,,1,0,3,,,,,2,,,70,107
1500,note_on,,,,,58,0,4,,,,,3,,,53,107
1500,note_on,,,,,0,0,3,,,,,2,,,74,107
1500,note_on,,,,,58,0,5,,,,,4,,,53,107
1505,note_on,,,,,5,0,3,,,,,2,,,72,0
1506,note_on,,,,,6,0,5,,,,,4,,,58,0
1506,note_on,,,,,6,0,4,,,,,3,,,58,0
1545,note_on,,,,,40,0,3,,,,,2,,,69,107
1550,note_on,,,,,5,0,3,,,,,2,,,70,0
1560,note_on,,,,,0,0,3,,,,,2,,,75,107
1560,note_on,,,,,10,0,3,,,,,2,,,70,107
1560,note_on,,,,,54,0,5,,,,,4,,,55,107
1560,note_on,,,,,54,0,4,,,,,3,,,55,107
1564,note_on,,,,,4,0,3,,,,,2,,,74,0
1565,note_on,,,,,5,0,5,,,,,4,,,53,0
1565,note_on,,,,,5,0,4,,,,,3,,,53,0
1570,note_on,,,,,6,0,3,,,,,2,,,69,0
1590,note_on,,,,,20,0,3,,,,,2,,,67,107
1594,note_on,,,,,4,0,3,,,,,2,,,70,0
1605,note_on,,,,,11,0,3,,,,,2,,,75,0
1620,note_on,,,,,55,0,4,,,,,3,,,51,107
1620,note_on,,,,,15,0,3,,,,,2,,,72,107
1620,note_on,,,,,55,0,5,,,,,4,,,51,107
1620,note_on,,,,,0,0,3,,,,,2,,,75,107
1622,note_on,,,,,2,0,3,,,,,2,,,67,0
1627,note_on,,,,,7,0,4,,,,,3,,,55,0
1627,note_on,,,,,7,0,5,,,,,4,,,55,0
1650,note_on,,,,,28,0,3,,,,,2,,,70,107
1658,note_on,,,,,8,0,3,,,,,2,,,72,0
1665,note_on,,,,,7,0,3,,,,,2,,,75,0
1678,note_on,,,,,51,0,4,,,,,3,,,51,0
1678,note_on,,,,,51,0,5,,,,,4,,,51,0
1680,note_on,,,,,2,0,4,,,,,3,,,53,107
1680,note_on,,,,,0,0,3,,,,,2,,,75,107
1680,note_on,,,,,2,0,5,,,,,4,,,53,107
1680,note_on,,,,,15,0,3,,,,,2,,,69,107
1684,note_on,,,,,4,0,3,,,,,2,,,70,0
1740,note_on,,,,,56,0,3,,,,,2,,,70,107
1740,note_on,,,,,60,0,4,,,,,3,,,46,107
1740,note_on,,,,,60,0,5,,,,,4,,,46,107
1742,note_on,,,,,2,0,3,,,,,2,,,74,107
1745,note_on,,,,,3,0,3,,,,,2,,,75,0
1747,note_on,,,,,2,0,3,,,,,2,,,69,0
1747,note_on,,,,,7,0,5,,,,,4,,,53,0
1747,note_on,,,,,7,0,4,,,,,3,,,53,0
1769,note_on,,,,,22,0,3,,,,,2,,,72,107
1770,note_on,,,,,1,0,3,,,,,2,,,74,0
1786,note_on,,,,,16,0,3,,,,,2,,,72,0
1792,note_on,,,,,6,0,3,,,,,2,,,70,0
1798,note_on,,,,,51,0,5,,,,,4,,,46,0
1798,note_on,,,,,51,0,4,,,,,3,,,46,0
1799,note_on,,,,,7,0,3,,,,,2,,,74,107
1800,note_on,,,,,2,0,4,,,,,3,,,53,107
1800,note_on,,,,,1,0,3,,,,,2,,,70,107
1800,note_on,,,,,2,0,5,,,,,4,,,53,107
1810,note_on,,,,,10,0,3,,,,,2,,,74,0
1810,note_on,,,,,0,0,3,,,,,2,,,72,107
1820,note_on,,,,,10,0,3,,,,,2,,,72,0
1821,note_on,,,,,1,0,3,,,,,2,,,74,107
1830,note_on,,,,,9,0,3,,,,,2,,,74,0
1830,note_on,,,,,0,0,3,,,,,2,,,72,107
1837,note_on,,,,,7,0,3,,,,,2,,,74,107
1838,note_on,,,,,1,0,3,,,,,2,,,72,0
1847,note_on,,,,,9,0,3,,,,,2,,,72,107
1848,note_on,,,,,1,0,3,,,,,2,,,74,0
1856,note_on,,,,,8,0,3,,,,,2,,,74,107
1857,note_on,,,,,1,0,3,,,,,2,,,72,0
1857,note_on,,,,,0,0,3,,,,,2,,,70,0
1859,note_on,,,,,59,0,5,,,,,4,,,53,0
1859,note_on,,,,,59,0,4,,,,,3,,,53,0
1860,note_on,,,,,3,0,3,,,,,2,,,69,107
1860,note_on,,,,,1,0,4,,,,,3,,,41,107
1860,note_on,,,,,1,0,5,,,,,4,,,41,107
1865,note_on,,,,,5,0,3,,,,,2,,,72,107
1868,note_on,,,,,3,0,3,,,,,2,,,74,0
1896,note_on,,,,,28,0,3,,,,,2,,,70,107
1899,note_on,,,,,3,0,3,,,,,2,,,72,0
1915,note_on,,,,,16,0,3,,,,,2,,,70,0
1920,note_on,,,,,60,0,4,,,,,3,,,46,110
1920,note_on,,,,,5,0,3,,,,,2,,,70,110
1920,note_on,,,,,60,0,5,,,,,4,,,46,110
1927,note_on,,,,,7,0,4,,,,,3,,,41,0
1927,note_on,,,,,7,0,5,,,,,4,,,41,0
1931,note_on,,,,,11,0,3,,,,,2,,,69,0
1974,note_on,,,,,47,0,5,,,,,4,,,46,0
1980,note_on,,,,,1980,0,9,,,,,8,,,70,64
1980,note_on,,,,,0,0,9,,,,,8,,,74,64
1980,note_on,,,,,1980,0,8,,,,,7,,,70,64
1980,note_on,,,,,0,0,8,,,,,7,,,74,64
1980,note_on,,,,,1980,0,10,,,,,10,,,65,64
1980,note_on,,,,,6,0,5,,,,,4,,,46,64
1980,note_on,,,,,1980,0,11,,,,,11,,,46,64
2024,note_on,,,,,44,0,9,,,,,8,,,70,0
2024,note_on,,,,,44,0,8,,,,,7,,,70,0
2039,note_on,,,,,59,0,5,,,,,4,,,46,0
2039,note_on,,,,,59,0,11,,,,,11,,,46,0
2039,note_on,,,,,15,0,8,,,,,7,,,74,0
2039,note_on,,,,,15,0,9,,,,,8,,,74,0
2039,note_on,,,,,59,0,10,,,,,10,,,65,0
2040,note_on,,,,,1,0,8,,,,,7,,,70,64
2040,note_on,,,,,1,0,5,,,,,4,,,50,64
2040,note_on,,,,,113,0,4,,,,,3,,,46,0
2040,note_on,,,,,1,0,11,,,,,11,,,50,64
2040,note_on,,,,,0,0,8,,,,,7,,,74,64
2040,note_on,,,,,1,0,9,,,,,8,,,70,64
2040,note_on,,,,,0,0,9,,,,,8,,,74,64
2040,note_on,,,,,1,0,10,,,,,10,,,65,64
2047,note_on,,,,,116,0,3,,,,,2,,,70,0
2084,note_on,,,,,44,0,8,,,,,7,,,70,0
2084,note_on,,,,,44,0,10,,,,,10,,,65,0
2084,note_on,,,,,44,0,9,,,,,8,,,70,0
2099,note_on,,,,,15,0,8,,,,,7,,,74,0
2099,note_on,,,,,59,0,11,,,,,11,,,50,0
2099,note_on,,,,,59,0,5,,,,,4,,,50,0
2099,note_on,,,,,15,0,9,,,,,8,,,74,0
2100,note_on,,,,,1,0,11,,,,,11,,,46,64
2100,note_on,,,,,0,0,9,,,,,8,,,74,64
2100,note_on,,,,,1,0,9,,,,,8,,,70,64
2100,note_on,,,,,1,0,8,,,,,7,,,70,64
2100,note_on,,,,,16,0,10,,,,,10,,,65,64
2100,note_on,,,,,0,0,8,,,,,7,,,74,64
2100,note_on,,,,,1,0,5,,,,,4,,,46,64
2144,note_on,,,,,44,0,8,,,,,7,,,70,0
2144,note_on,,,,,44,0,9,,,,,8,,,70,0
2159,note_on,,,,,59,0,10,,,,,10,,,65,0
2159,note_on,,,,,59,0,11,,,,,11,,,46,0
2159,note_on,,,,,59,0,5,,,,,4,,,46,0
2160,note_on,,,,,0,0,8,,,,,7,,,72,64
2160,note_on,,,,,1,0,11,,,,,11,,,53,64
2160,note_on,,,,,16,0,8,,,,,7,,,70,64
2160,note_on,,,,,1,0,5,,,,,4,,,53,64
2160,note_on,,,,,1,0,10,,,,,10,,,65,64
2160,note_on,,,,,0,0,9,,,,,8,,,72,64
2160,note_on,,,,,16,0,9,,,,,8,,,70,64
2174,note_on,,,,,14,0,9,,,,,8,,,74,0
2174,note_on,,,,,14,0,8,,,,,7,,,74,0
2219,note_on,,,,,59,0,10,,,,,10,,,65,0
2219,note_on,,,,,0,0,8,,,,,7,,,70,0
2219,note_on,,,,,59,0,11,,,,,11,,,53,0
2219,note_on,,,,,59,0,5,,,,,4,,,53,0
2219,note_on,,,,,45,0,8,,,,,7,,,72,0
2219,note_on,,,,,0,0,9,,,,,8,,,70,0
2219,note_on,,,,,45,0,9,,,,,8,,,72,0
2220,note_on,,,,,1,0,5,,,,,4,,,53,64
2220,note_on,,,,,0,0,9,,,,,8,,,72,64
2220,note_on,,,,,1,0,11,,,,,11,,,53,64
2220,note_on,,,,,1,0,8,,,,,7,,,70,64
2220,note_on,,,,,1,0,10,,,,,10,,,65,64
2220,note_on,,,,,0,0,8,,,,,7,,,72,64
2220,note_on,,,,,1,0,9,,,,,8,,,70,64
2234,note_on,,,,,14,0,8,,,,,7,,,70,0
2234,note_on,,,,,14,0,9,,,,,8,,,70,0
2235,note_on,,,,,1,0,8,,,,,7,,,69,64
2235,note_on,,,,,0,0,8,,,,,7,,,70,64
2235,note_on,,,,,0,0,9,,,,,8,,,70,64
2235,note_on,,,,,1,0,9,,,,,8,,,69,64
2249,note_on,,,,,0,0,8,,,,,7,,,69,0
2249,note_on,,,,,0,0,9,,,,,8,,,69,0
2249,note_on,,,,,14,0,8,,,,,7,,,70,0
2249,note_on,,,,,14,0,9,,,,,8,,,70,0
2250,note_on,,,,,1,0,8,,,,,7,,,69,64
2250,note_on,,,,,1,0,9,,,,,8,,,69,64
2264,note_on,,,,,14,0,9,,,,,8,,,69,0
2264,note_on,,,,,14,0,8,,,,,7,,,69,0
2265,note_on,,,,,1,0,9,,,,,8,,,67,64
2265,note_on,,,,,1,0,8,,,,,7,,,67,64
2279,note_on,,,,,59,0,10,,,,,10,,,65,0
2279,note_on,,,,,59,0,5,,,,,4,,,53,0
2279,note_on,,,,,0,0,9,,,,,8,,,72,0
2279,note_on,,,,,14,0,9,,,,,8,,,67,0
2279,note_on,,,,,0,0,8,,,,,7,,,72,0
2279,note_on,,,,,14,0,8,,,,,7,,,67,0
2279,note_on,,,,,59,0,11,,,,,11,,,53,0
2280,note_on,,,,,1,0,10,,,,,10,,,60,64
2280,note_on,,,,,1,0,9,,,,,8,,,69,64
2280,note_on,,,,,0,0,9,,,,,8,,,77,64
2280,note_on,,,,,1,0,8,,,,,7,,,69,64
2280,note_on,,,,,0,0,8,,,,,7,,,77,64
2280,note_on,,,,,1,0,11,,,,,11,,,53,64
2280,note_on,,,,,1,0,5,,,,,4,,,53,64
2324,note_on,,,,,44,0,8,,,,,7,,,77,0
2324,note_on,,,,,44,0,9,,,,,8,,,77,0
2339,note_on,,,,,59,0,5,,,,,4,,,53,0
2339,note_on,,,,,59,0,11,,,,,11,,,53,0
2339,note_on,,,,,59,0,10,,,,,10,,,60,0
2339,note_on,,,,,15,0,9,,,,,8,,,69,0
2339,note_on,,,,,15,0,8,,,,,7,,,69,0
2340,note_on,,,,,1,0,9,,,,,8,,,69,64
2340,note_on,,,,,1,0,10,,,,,10,,,60,64
2340,note_on,,,,,1,0,5,,,,,4,,,53,64
2340,note_on,,,,,1,0,11,,,,,11,,,53,64
2340,note_on,,,,,1,0,8,,,,,7,,,69,64
2340,note_on,,,,,0,0,8,,,,,7,,,77,64
2340,note_on,,,,,0,0,9,,,,,8,,,77,64
2384,note_on,,,,,44,0,10,,,,,10,,,60,0
2399,note_on,,,,,59,0,8,,,,,7,,,69,0
2399,note_on,,,,,59,0,9,,,,,8,,,69,0
2399,note_on,,,,,59,0,5,,,,,4,,,53,0
2399,note_on,,,,,59,0,11,,,,,11,,,53,0
2400,note_on,,,,,1,0,5,,,,,4,,,48,64
2400,note_on,,,,,16,0,10,,,,,10,,,60,64
2400,note_on,,,,,1,0,9,,,,,8,,,67,64
2400,note_on,,,,,1,0,8,,,,,7,,,67,64
2400,note_on,,,,,1,0,11,,,,,11,,,48,64
2444,note_on,,,,,44,0,9,,,,,8,,,67,0
2444,note_on,,,,,0,0,9,,,,,8,,,77,0
2444,note_on,,,,,44,0,8,,,,,7,,,67,0
2444,note_on,,,,,0,0,8,,,,,7,,,77,0
2459,note_on,,,,,59,0,11,,,,,11,,,48,0
2459,note_on,,,,,59,0,10,,,,,10,,,60,0
2459,note_on,,,,,59,0,5,,,,,4,,,48,0
2460,note_on,,,,,0,0,9,,,,,8,,,75,64
2460,note_on,,,,,1,0,10,,,,,10,,,60,64
2460,note_on,,,,,1,0,5,,,,,4,,,48,64
2460,note_on,,,,,16,0,9,,,,,8,,,67,64
2460,note_on,,,,,1,0,11,,,,,11,,,48,64
2460,note_on,,,,,16,0,8,,,,,7,,,67,64
2460,note_on,,,,,0,0,8,,,,,7,,,75,64
2504,note_on,,,,,44,0,9,,,,,8,,,75,0
2504,note_on,,,,,44,0,8,,,,,7,,,75,0
2505,note_on,,,,,1,0,9,,,,,8,,,74,64
2505,note_on,,,,,1,0,8,,,,,7,,,74,64
2519,note_on,,,,,0,0,9,,,,,8,,,67,0
2519,note_on,,,,,0,0,8,,,,,7,,,67,0
2519,note_on,,,,,14,0,9,,,,,8,,,74,0
2519,note_on,,,,,59,0,5,,,,,4,,,48,0
2519,note_on,,,,,59,0,10,,,,,10,,,60,0
2519,note_on,,,,,14,0,8,,,,,7,,,74,0
2519,note_on,,,,,59,0,11,,,,,11,,,48,0
2520,note_on,,,,,1,0,5,,,,,4,,,48,64
2520,note_on,,,,,0,0,9,,,,,8,,,75,64
2520,note_on,,,,,1,0,9,,,,,8,,,72,64
2520,note_on,,,,,1,0,8,,,,,7,,,72,64
2520,note_on,,,,,0,0,8,,,,,7,,,75,64
2520,note_on,,,,,1,0,10,,,,,10,,,67,64
2520,note_on,,,,,1,0,11,,,,,11,,,48,64
2579,note_on,,,,,59,0,11,,,,,11,,,48,0
2579,note_on,,,,,59,0,9,,,,,8,,,75,0
2579,note_on,,,,,59,0,8,,,,,7,,,75,0
2579,note_on,,,,,0,0,8,,,,,7,,,72,0
2579,note_on,,,,,0,0,9,,,,,8,,,72,0
2579,note_on,,,,,59,0,10,,,,,10,,,67,0
2579,note_on,,,,,59,0,5,,,,,4,,,48,0
2580,note_on,,,,,1,0,9,,,,,8,,,72,64
2580,note_on,,,,,0,0,9,,,,,8,,,75,64
2580,note_on,,,,,1,0,10,,,,,10,,,67,64
2580,note_on,,,,,1,0,5,,,,,4,,,48,64
2580,note_on,,,,,0,0,8,,,,,7,,,75,64
2580,note_on,,,,,1,0,11,,,,,11,,,48,64
2580,note_on,,,,,1,0,8,,,,,7,,,72,64
2624,note_on,,,,,44,0,10,,,,,10,,,67,0
2624,note_on,,,,,44,0,9,,,,,8,,,72,0
2624,note_on,,,,,44,0,8,,,,,7,,,72,0
2639,note_on,,,,,15,0,8,,,,,7,,,75,0
2639,note_on,,,,,15,0,9,,,,,8,,,75,0
2639,note_on,,,,,59,0,11,,,,,11,,,48,0
2639,note_on,,,,,59,0,5,,,,,4,,,48,0
2640,note_on,,,,,0,0,9,,,,,8,,,74,64
2640,note_on,,,,,1,0,5,,,,,4,,,55,64
2640,note_on,,,,,1,0,8,,,,,7,,,72,64
2640,note_on,,,,,0,0,8,,,,,7,,,74,64
2640,note_on,,,,,16,0,10,,,,,10,,,67,64
2640,note_on,,,,,1,0,11,,,,,11,,,55,64
2640,note_on,,,,,1,0,9,,,,,8,,,72,64
2699,note_on,,,,,59,0,8,,,,,7,,,74,0
2699,note_on,,,,,0,0,8,,,,,7,,,72,0
2699,note_on,,,,,0,0,9,,,,,8,,,72,0
2699,note_on,,,,,59,0,9,,,,,8,,,74,0
2699,note_on,,,,,59,0,5,,,,,4,,,55,0
2699,note_on,,,,,59,0,10,,,,,10,,,67,0
2699,note_on,,,,,59,0,11,,,,,11,,,55,0
2700,note_on,,,,,1,0,11,,,,,11,,,55,64
2700,note_on,,,,,1,0,8,,,,,7,,,70,64
2700,note_on,,,,,0,0,8,,,,,7,,,74,64
2700,note_on,,,,,1,0,5,,,,,4,,,55,64
2700,note_on,,,,,1,0,10,,,,,10,,,67,64
2700,note_on,,,,,1,0,9,,,,,8,,,70,64
2700,note_on,,,,,0,0,9,,,,,8,,,74,64
2744,note_on,,,,,44,0,8,,,,,7,,,70,0
2744,note_on,,,,,44,0,9,,,,,8,,,70,0
2745,note_on,,,,,1,0,8,,,,,7,,,69,64
2745,note_on,,,,,1,0,9,,,,,8,,,69,64
2759,note_on,,,,,59,0,10,,,,,10,,,67,0
2759,note_on,,,,,59,0,11,,,,,11,,,55,0
2759,note_on,,,,,59,0,5,,,,,4,,,55,0
2760,note_on,,,,,1,0,10,,,,,10,,,62,64
2760,note_on,,,,,1,0,11,,,,,11,,,55,64
2760,note_on,,,,,0,0,8,,,,,7,,,79,64
2760,note_on,,,,,1,0,5,,,,,4,,,55,64
2760,note_on,,,,,0,0,9,,,,,8,,,79,64
2760,note_on,,,,,15,0,9,,,,,8,,,70,64
2760,note_on,,,,,15,0,8,,,,,7,,,70,64
2774,note_on,,,,,14,0,9,,,,,8,,,69,0
2774,note_on,,,,,0,0,9,,,,,8,,,74,0
2774,note_on,,,,,14,0,8,,,,,7,,,69,0
2774,note_on,,,,,0,0,8,,,,,7,,,74,0
2804,note_on,,,,,30,0,8,,,,,7,,,70,0
2804,note_on,,,,,30,0,9,,,,,8,,,70,0
2819,note_on,,,,,59,0,11,,,,,11,,,55,0
2819,note_on,,,,,15,0,8,,,,,7,,,79,0
2819,note_on,,,,,59,0,10,,,,,10,,,62,0
2819,note_on,,,,,59,0,5,,,,,4,,,55,0
2819,note_on,,,,,15,0,9,,,,,8,,,79,0
2820,note_on,,,,,1,0,10,,,,,10,,,62,64
2820,note_on,,,,,1,0,5,,,,,4,,,55,64
2820,note_on,,,,,1,0,11,,,,,11,,,55,64
2820,note_on,,,,,0,0,9,,,,,8,,,79,64
2820,note_on,,,,,0,0,8,,,,,7,,,79,64
2820,note_on,,,,,1,0,8,,,,,7,,,70,64
2820,note_on,,,,,1,0,9,,,,,8,,,70,64
2879,note_on,,,,,59,0,5,,,,,4,,,55,0
2879,note_on,,,,,59,0,9,,,,,8,,,79,0
2879,note_on,,,,,0,0,9,,,,,8,,,70,0
2879,note_on,,,,,59,0,8,,,,,7,,,79,0
2879,note_on,,,,,59,0,10,,,,,10,,,62,0
2879,note_on,,,,,59,0,11,,,,,11,,,55,0
2879,note_on,,,,,0,0,8,,,,,7,,,70,0
2880,note_on,,,,,1,0,10,,,,,10,,,62,64
2880,note_on,,,,,0,0,8,,,,,7,,,79,64
2880,note_on,,,,,1,0,8,,,,,7,,,69,64
2880,note_on,,,,,1,0,11,,,,,11,,,50,64
2880,note_on,,,,,0,0,9,,,,,8,,,79,64
2880,note_on,,,,,1,0,9,,,,,8,,,69,64
2880,note_on,,,,,1,0,5,,,,,4,,,50,64
2924,note_on,,,,,44,0,10,,,,,10,,,62,0
2939,note_on,,,,,0,0,8,,,,,7,,,69,0
2939,note_on,,,,,59,0,8,,,,,7,,,79,0
2939,note_on,,,,,59,0,11,,,,,11,,,50,0
2939,note_on,,,,,59,0,5,,,,,4,,,50,0
2939,note_on,,,,,0,0,9,,,,,8,,,69,0
2939,note_on,,,,,59,0,9,,,,,8,,,79,0
2940,note_on,,,,,0,0,8,,,,,7,,,77,64
2940,note_on,,,,,1,0,8,,,,,7,,,69,64
2940,note_on,,,,,1,0,5,,,,,4,,,50,64
2940,note_on,,,,,16,0,10,,,,,10,,,62,64
2940,note_on,,,,,0,0,9,,,,,8,,,77,64
2940,note_on,,,,,1,0,9,,,,,8,,,69,64
2940,note_on,,,,,1,0,11,,,,,11,,,50,64
2984,note_on,,,,,44,0,9,,,,,8,,,77,0
2984,note_on,,,,,44,0,8,,,,,7,,,77,0
2985,note_on,,,,,1,0,9,,,,,8,,,76,64
2985,note_on,,,,,1,0,8,,,,,7,,,76,64
2999,note_on,,,,,59,0,11,,,,,11,,,50,0
2999,note_on,,,,,14,0,8,,,,,7,,,76,0
2999,note_on,,,,,59,0,10,,,,,10,,,62,0
2999,note_on,,,,,59,0,5,,,,,4,,,50,0
2999,note_on,,,,,0,0,8,,,,,7,,,69,0
2999,note_on,,,,,14,0,9,,,,,8,,,76,0
2999,note_on,,,,,0,0,9,,,,,8,,,69,0
3000,note_on,,,,,1,0,10,,,,,10,,,69,64
3000,note_on,,,,,1,0,11,,,,,11,,,50,64
3000,note_on,,,,,1,0,5,,,,,4,,,50,64
3000,note_on,,,,,0,0,8,,,,,7,,,77,64
3000,note_on,,,,,0,0,9,,,,,8,,,77,64
3000,note_on,,,,,1,0,9,,,,,8,,,74,64
3000,note_on,,,,,1,0,8,,,,,7,,,74,64
3044,note_on,,,,,44,0,9,,,,,8,,,77,0
3044,note_on,,,,,44,0,8,,,,,7,,,77,0
3059,note_on,,,,,59,0,11,,,,,11,,,50,0
3059,note_on,,,,,59,0,5,,,,,4,,,50,0
3059,note_on,,,,,59,0,10,,,,,10,,,69,0
3059,note_on,,,,,15,0,8,,,,,7,,,74,0
3059,note_on,,,,,15,0,9,,,,,8,,,74,0
3060,note_on,,,,,1,0,8,,,,,7,,,74,64
3060,note_on,,,,,1,0,11,,,,,11,,,50,64
3060,note_on,,,,,1,0,10,,,,,10,,,69,64
3060,note_on,,,,,0,0,8,,,,,7,,,77,64
3060,note_on,,,,,1,0,5,,,,,4,,,50,64
3060,note_on,,,,,1,0,9,,,,,8,,,74,64
3060,note_on,,,,,0,0,9,,,,,8,,,77,64
3119,note_on,,,,,0,0,8,,,,,7,,,74,0
3119,note_on,,,,,59,0,11,,,,,11,,,50,0
3119,note_on,,,,,59,0,10,,,,,10,,,69,0
3119,note_on,,,,,59,0,9,,,,,8,,,77,0
3119,note_on,,,,,59,0,8,,,,,7,,,77,0
3119,note_on,,,,,0,0,9,,,,,8,,,74,0
3119,note_on,,,,,59,0,5,,,,,4,,,50,0
3120,note_on,,,,,1,0,9,,,,,8,,,74,64
3120,note_on,,,,,0,0,9,,,,,8,,,75,64
3120,note_on,,,,,1,0,8,,,,,7,,,74,64
3120,note_on,,,,,0,0,8,,,,,7,,,75,64
3120,note_on,,,,,1,0,10,,,,,10,,,70,64
3120,note_on,,,,,1,0,11,,,,,11,,,55,64
3120,note_on,,,,,1,0,5,,,,,4,,,55,64
3164,note_on,,,,,44,0,8,,,,,7,,,75,0
3164,note_on,,,,,44,0,9,,,,,8,,,75,0
3179,note_on,,,,,59,0,11,,,,,11,,,55,0
3179,note_on,,,,,59,0,10,,,,,10,,,70,0
3179,note_on,,,,,59,0,5,,,,,4,,,55,0
3179,note_on,,,,,15,0,8,,,,,7,,,74,0
3179,note_on,,,,,15,0,9,,,,,8,,,74,0
3180,note_on,,,,,1,0,5,,,,,4,,,55,64
3180,note_on,,,,,1,0,11,,,,,11,,,55,64
3180,note_on,,,,,1,0,9,,,,,8,,,72,64
3180,note_on,,,,,1,0,10,,,,,10,,,69,64
3180,note_on,,,,,0,0,9,,,,,8,,,75,64
3180,note_on,,,,,1,0,8,,,,,7,,,72,64
3180,note_on,,,,,0,0,8,,,,,7,,,75,64
3224,note_on,,,,,44,0,9,,,,,8,,,72,0
3224,note_on,,,,,44,0,10,,,,,10,,,69,0
3224,note_on,,,,,44,0,8,,,,,7,,,72,0
3225,note_on,,,,,1,0,10,,,,,10,,,67,64
3225,note_on,,,,,1,0,9,,,,,8,,,70,64
3225,note_on,,,,,1,0,8,,,,,7,,,70,64
3239,note_on,,,,,14,0,10,,,,,10,,,67,0
3239,note_on,,,,,0,0,8,,,,,7,,,75,0
3239,note_on,,,,,14,0,8,,,,,7,,,70,0
3239,note_on,,,,,0,0,9,,,,,8,,,75,0
3239,note_on,,,,,59,0,11,,,,,11,,,55,0
3239,note_on,,,,,59,0,5,,,,,4,,,55,0
3239,note_on,,,,,14,0,9,,,,,8,,,70,0
3240,note_on,,,,,1,0,9,,,,,8,,,75,64
3240,note_on,,,,,1,0,10,,,,,10,,,65,64
3240,note_on,,,,,1,0,8,,,,,7,,,75,64
3240,note_on,,,,,1,0,11,,,,,11,,,57,64
3240,note_on,,,,,1,0,5,,,,,4,,,57,64
3240,note_on,,,,,0,0,8,,,,,7,,,72,64
3240,note_on,,,,,0,0,9,,,,,8,,,72,64
3299,note_on,,,,,59,0,9,,,,,8,,,72,0
3299,note_on,,,,,0,0,9,,,,,8,,,75,0
3299,note_on,,,,,59,0,10,,,,,10,,,65,0
3299,note_on,,,,,59,0,5,,,,,4,,,57,0
3299,note_on,,,,,59,0,8,,,,,7,,,72,0
3299,note_on,,,,,0,0,8,,,,,7,,,75,0
3299,note_on,,,,,59,0,11,,,,,11,,,57,0
3300,note_on,,,,,1,0,10,,,,,10,,,65,64
3300,note_on,,,,,0,0,8,,,,,7,,,72,64
3300,note_on,,,,,0,0,9,,,,,8,,,72,64
3300,note_on,,,,,1,0,8,,,,,7,,,74,64
3300,note_on,,,,,1,0,9,,,,,8,,,74,64
3300,note_on,,,,,1,0,5,,,,,4,,,57,64
3300,note_on,,,,,1,0,11,,,,,11,,,57,64
3344,note_on,,,,,44,0,9,,,,,8,,,74,0
3344,note_on,,,,,44,0,8,,,,,7,,,74,0
3359,note_on,,,,,15,0,9,,,,,8,,,72,0
3359,note_on,,,,,59,0,5,,,,,4,,,57,0
3359,note_on,,,,,15,0,8,,,,,7,,,72,0
3359,note_on,,,,,59,0,10,,,,,10,,,65,0
3359,note_on,,,,,59,0,11,,,,,11,,,57,0
3360,note_on,,,,,1,0,5,,,,,4,,,58,64
3360,note_on,,,,,0,0,5,,,,,4,,,58,64
3360,note_on,,,,,1,0,10,,,,,10,,,65,64
3360,note_on,,,,,0,0,9,,,,,8,,,74,64
3360,note_on,,,,,1,0,11,,,,,11,,,58,64
3360,note_on,,,,,1,0,8,,,,,7,,,72,64
3360,note_on,,,,,0,0,8,,,,,7,,,74,64
3360,note_on,,,,,1,0,9,,,,,8,,,72,64
3360,note_on,,,,,0,0,11,,,,,11,,,58,64
3419,note_on,,,,,59,0,5,,,,,4,,,58,0
3419,note_on,,,,,0,0,5,,,,,4,,,58,0
3419,note_on,,,,,59,0,8,,,,,7,,,74,0
3419,note_on,,,,,59,0,10,,,,,10,,,65,0
3419,note_on,,,,,0,0,11,,,,,11,,,58,0
3419,note_on,,,,,0,0,8,,,,,7,,,72,0
3419,note_on,,,,,0,0,9,,,,,8,,,72,0
3419,note_on,,,,,59,0,9,,,,,8,,,74,0
3419,note_on,,,,,59,0,11,,,,,11,,,58,0
3420,note_on,,,,,1,0,8,,,,,7,,,70,64
3420,note_on,,,,,0,0,8,,,,,7,,,74,64
3420,note_on,,,,,1,0,11,,,,,11,,,53,64
3420,note_on,,,,,1,0,5,,,,,4,,,53,64
3420,note_on,,,,,1,0,10,,,,,10,,,65,64
3420,note_on,,,,,0,0,9,,,,,8,,,74,64
3420,note_on,,,,,1,0,9,,,,,8,,,70,64
3464,note_on,,,,,44,0,8,,,,,7,,,70,0
3464,note_on,,,,,44,0,9,,,,,8,,,70,0
3465,note_on,,,,,1,0,8,,,,,7,,,69,64
3465,note_on,,,,,1,0,9,,,,,8,,,69,64
3479,note_on,,,,,59,0,5,,,,,4,,,53,0
3479,note_on,,,,,59,0,10,,,,,10,,,65,0
3479,note_on,,,,,59,0,11,,,,,11,,,53,0
3479,note_on,,,,,14,0,9,,,,,8,,,74,0
3479,note_on,,,,,14,0,8,,,,,7,,,74,0
3480,note_on,,,,,1,0,5,,,,,4,,,55,64
3480,note_on,,,,,1,0,8,,,,,7,,,70,64
3480,note_on,,,,,0,0,8,,,,,7,,,75,64
3480,note_on,,,,,0,0,9,,,,,8,,,75,64
3480,note_on,,,,,1,0,10,,,,,10,,,58,64
3480,note_on,,,,,1,0,9,,,,,8,,,70,64
3480,note_on,,,,,1,0,11,,,,,11,,,55,64
3494,note_on,,,,,14,0,8,,,,,7,,,69,0
3494,note_on,,,,,14,0,9,,,,,8,,,69,0
3509,note_on,,,,,15,0,9,,,,,8,,,70,0
3509,note_on,,,,,15,0,8,,,,,7,,,70,0
3510,note_on,,,,,1,0,9,,,,,8,,,67,64
3510,note_on,,,,,1,0,8,,,,,7,,,67,64
3524,note_on,,,,,14,0,8,,,,,7,,,75,0
3524,note_on,,,,,14,0,9,,,,,8,,,75,0
3539,note_on,,,,,59,0,5,,,,,4,,,55,0
3539,note_on,,,,,15,0,8,,,,,7,,,67,0
3539,note_on,,,,,15,0,9,,,,,8,,,67,0
3539,note_on,,,,,59,0,10,,,,,10,,,58,0
3539,note_on,,,,,59,0,11,,,,,11,,,55,0
3540,note_on,,,,,1,0,9,,,,,8,,,72,64
3540,note_on,,,,,1,0,8,,,,,7,,,72,64
3540,note_on,,,,,0,0,8,,,,,7,,,75,64
3540,note_on,,,,,0,0,9,,,,,8,,,75,64
3540,note_on,,,,,1,0,5,,,,,4,,,51,64
3540,note_on,,,,,1,0,10,,,,,10,,,63,64
3540,note_on,,,,,1,0,11,,,,,11,,,51,64
3570,note_on,,,,,30,0,9,,,,,8,,,70,64
3570,note_on,,,,,30,0,8,,,,,7,,,70,64
3584,note_on,,,,,0,0,9,,,,,8,,,72,0
3584,note_on,,,,,0,0,8,,,,,7,,,72,0
3584,note_on,,,,,14,0,8,,,,,7,,,75,0
3584,note_on,,,,,14,0,9,,,,,8,,,75,0
3599,note_on,,,,,15,0,8,,,,,7,,,70,0
3599,note_on,,,,,59,0,11,,,,,11,,,51,0
3599,note_on,,,,,59,0,10,,,,,10,,,63,0
3599,note_on,,,,,59,0,5,,,,,4,,,51,0
3599,note_on,,,,,15,0,9,,,,,8,,,70,0
3600,note_on,,,,,1,0,11,,,,,11,,,53,64
3600,note_on,,,,,0,0,9,,,,,8,,,75,64
3600,note_on,,,,,1,0,5,,,,,4,,,53,64
3600,note_on,,,,,1,0,8,,,,,7,,,69,64
3600,note_on,,,,,0,0,8,,,,,7,,,75,64
3600,note_on,,,,,1,0,10,,,,,10,,,60,64
3600,note_on,,,,,1,0,9,,,,,8,,,69,64
3659,note_on,,,,,59,0,11,,,,,11,,,53,0
3659,note_on,,,,,0,0,8,,,,,7,,,69,0
3659,note_on,,,,,59,0,8,,,,,7,,,75,0
3659,note_on,,,,,0,0,9,,,,,8,,,69,0
3659,note_on,,,,,59,0,9,,,,,8,,,75,0
3659,note_on,,,,,59,0,10,,,,,10,,,60,0
3659,note_on,,,,,59,0,5,,,,,4,,,53,0
3660,note_on,,,,,0,0,8,,,,,7,,,74,64
3660,note_on,,,,,1,0,9,,,,,8,,,70,64
3660,note_on,,,,,0,0,9,,,,,8,,,74,64
3660,note_on,,,,,1,0,11,,,,,11,,,46,64
3660,note_on,,,,,1,0,5,,,,,4,,,46,64
3660,note_on,,,,,1,0,8,,,,,7,,,70,64
3660,note_on,,,,,1,0,10,,,,,10,,,62,64
3689,note_on,,,,,29,0,9,,,,,8,,,74,0
3689,note_on,,,,,29,0,8,,,,,7,,,74,0
3689,note_on,,,,,29,0,10,,,,,10,,,62,0
3690,note_on,,,,,1,0,9,,,,,8,,,72,64
3690,note_on,,,,,1,0,8,,,,,7,,,72,64
3690,note_on,,,,,1,0,10,,,,,10,,,63,64
3704,note_on,,,,,14,0,8,,,,,7,,,72,0
3704,note_on,,,,,0,0,8,,,,,7,,,70,0
3704,note_on,,,,,0,0,9,,,,,8,,,70,0
3704,note_on,,,,,14,0,9,,,,,8,,,72,0
3719,note_on,,,,,59,0,11,,,,,11,,,46,0
3719,note_on,,,,,29,0,10,,,,,10,,,63,0
3719,note_on,,,,,59,0,5,,,,,4,,,46,0
3720,note_on,,,,,1,0,11,,,,,11,,,53,64
3720,note_on,,,,,1,0,5,,,,,4,,,53,64
3720,note_on,,,,,16,0,8,,,,,7,,,74,64
3720,note_on,,,,,1,0,10,,,,,10,,,65,64
3720,note_on,,,,,0,0,9,,,,,8,,,70,64
3720,note_on,,,,,16,0,9,,,,,8,,,74,64
3720,note_on,,,,,0,0,8,,,,,7,,,70,64
3730,note_on,,,,,10,0,8,,,,,7,,,72,64
3734,note_on,,,,,14,0,9,,,,,8,,,74,0
3734,note_on,,,,,4,0,8,,,,,7,,,74,0
3735,note_on,,,,,0,0,9,,,,,8,,,74,64
3735,note_on,,,,,1,0,9,,,,,8,,,72,64
3740,note_on,,,,,6,0,8,,,,,7,,,72,0
3741,note_on,,,,,1,0,8,,,,,7,,,74,64
3749,note_on,,,,,14,0,9,,,,,8,,,74,0
3749,note_on,,,,,0,0,9,,,,,8,,,72,0
3750,note_on,,,,,0,0,8,,,,,7,,,72,64
3750,note_on,,,,,9,0,8,,,,,7,,,74,0
3750,note_on,,,,,1,0,9,,,,,8,,,72,64
3750,note_on,,,,,0,0,9,,,,,8,,,74,64
3757,note_on,,,,,7,0,8,,,,,7,,,74,64
3758,note_on,,,,,1,0,8,,,,,7,,,72,0
3764,note_on,,,,,0,0,9,,,,,8,,,72,0
3764,note_on,,,,,14,0,9,,,,,8,,,74,0
3765,note_on,,,,,1,0,9,,,,,8,,,72,64
3767,note_on,,,,,9,0,8,,,,,7,,,72,64
3768,note_on,,,,,1,0,8,,,,,7,,,74,0
3776,note_on,,,,,8,0,8,,,,,7,,,74,64
3777,note_on,,,,,1,0,8,,,,,7,,,72,0
3777,note_on,,,,,0,0,8,,,,,7,,,70,0
3779,note_on,,,,,59,0,5,,,,,4,,,53,0
3779,note_on,,,,,59,0,10,,,,,10,,,65,0
3779,note_on,,,,,0,0,9,,,,,8,,,70,0
3779,note_on,,,,,14,0,9,,,,,8,,,72,0
3779,note_on,,,,,59,0,11,,,,,11,,,53,0
3780,note_on,,,,,1,0,9,,,,,8,,,74,64
3780,note_on,,,,,1,0,5,,,,,4,,,41,64
3780,note_on,,,,,0,0,9,,,,,8,,,69,64
3780,note_on,,,,,0,0,9,,,,,8,,,72,64
3780,note_on,,,,,1,0,10,,,,,10,,,60,64
3780,note_on,,,,,1,0,11,,,,,11,,,41,64
3780,note_on,,,,,3,0,8,,,,,7,,,69,64
3785,note_on,,,,,5,0,8,,,,,7,,,72,64
3788,note_on,,,,,3,0,8,,,,,7,,,74,0
3794,note_on,,,,,14,0,9,,,,,8,,,74,0
3809,note_on,,,,,15,0,9,,,,,8,,,72,0
3810,note_on,,,,,1,0,9,,,,,8,,,70,64
3814,note_on,,,,,26,0,8,,,,,7,,,70,90
3817,note_on,,,,,3,0,8,,,,,7,,,72,0
3824,note_on,,,,,14,0,9,,,,,8,,,70,0
3833,note_on,,,,,16,0,8,,,,,7,,,70,0
3839,note_on,,,,,59,0,11,,,,,11,,,41,0
3839,note_on,,,,,59,0,5,,,,,4,,,41,0
3839,note_on,,,,,59,0,10,,,,,10,,,60,0
3840,note_on,,,,,1,0,5,,,,,4,,,46,64
3840,note_on,,,,,1,0,11,,,,,11,,,46,64
3840,note_on,,,,,16,0,9,,,,,8,,,70,64
3840,note_on,,,,,7,0,8,,,,,7,,,70,64
3851,note_on,,,,,11,0,8,,,,,7,,,69,0
3854,note_on,,,,,14,0,9,,,,,8,,,69,0
3900,note_on,,,,,1860,0,4,,,,,3,,,46,127
3930,note_on,,,,,1883,0,3,,,,,2,,,65,127
3957,note_on,,,,,27,0,3,,,,,2,,,65,0
3959,note_on,,,,,105,0,9,,,,,8,,,70,0
3959,note_on,,,,,119,0,5,,,,,4,,,46,0
3959,note_on,,,,,119,0,11,,,,,11,,,46,0
3960,note_on,,,,,3,0,3,,,,,2,,,70,127
3960,note_on,,,,,60,0,4,,,,,3,,,50,127
3961,note_on,,,,,1,0,4,,,,,3,,,46,0
3967,note_on,,,,,116,0,8,,,,,7,,,70,0
3981,note_on,,,,,21,0,3,,,,,2,,,65,127
3982,note_on,,,,,1,0,3,,,,,2,,,70,0
4000,note_on,,,,,18,0,3,,,,,2,,,70,127
4005,note_on,,,,,5,0,3,,,,,2,,,65,0
4013,note_on,,,,,8,0,3,,,,,2,,,70,0
4018,note_on,,,,,5,0,3,,,,,2,,,72,127
4020,note_on,,,,,59,0,4,,,,,3,,,46,127
4021,note_on,,,,,1,0,4,,,,,3,,,50,0
4023,note_on,,,,,5,0,3,,,,,2,,,70,127
4027,note_on,,,,,4,0,3,,,,,2,,,72,0
4044,note_on,,,,,17,0,3,,,,,2,,,70,0
4045,note_on,,,,,1,0,3,,,,,2,,,69,127
4060,note_on,,,,,15,0,3,,,,,2,,,70,127
4064,note_on,,,,,4,0,3,,,,,2,,,69,0
4079,note_on,,,,,15,0,3,,,,,2,,,72,127
4080,note_on,,,,,59,0,4,,,,,3,,,53,127
4082,note_on,,,,,3,0,3,,,,,2,,,70,0
4085,note_on,,,,,5,0,4,,,,,3,,,46,0
4098,note_on,,,,,16,0,3,,,,,2,,,72,0
4099,note_on,,,,,1,0,3,,,,,2,,,65,127
4117,note_on,,,,,18,0,3,,,,,2,,,72,127
4122,note_on,,,,,5,0,3,,,,,2,,,65,0
4129,note_on,,,,,7,0,3,,,,,2,,,72,0
4134,note_on,,,,,5,0,3,,,,,2,,,74,127
4138,note_on,,,,,4,0,3,,,,,2,,,72,127
4140,note_on,,,,,55,0,4,,,,,3,,,53,0
4140,note_on,,,,,0,0,4,,,,,3,,,57,127
4143,note_on,,,,,5,0,3,,,,,2,,,74,0
4159,note_on,,,,,16,0,3,,,,,2,,,70,127
4160,note_on,,,,,1,0,3,,,,,2,,,72,0
4175,note_on,,,,,15,0,3,,,,,2,,,72,127
4179,note_on,,,,,4,0,3,,,,,2,,,70,0
4188,note_on,,,,,9,0,3,,,,,2,,,72,0
4200,note_on,,,,,12,0,3,,,,,2,,,74,127
4200,note_on,,,,,60,0,4,,,,,3,,,57,0
4200,note_on,,,,,0,0,4,,,,,3,,,58,127
4220,note_on,,,,,20,0,3,,,,,2,,,75,127
4222,note_on,,,,,2,0,3,,,,,2,,,74,0
4240,note_on,,,,,18,0,3,,,,,2,,,74,127
4241,note_on,,,,,1,0,3,,,,,2,,,75,0
4260,note_on,,,,,60,0,4,,,,,3,,,51,127
4260,note_on,,,,,19,0,3,,,,,2,,,72,127
4263,note_on,,,,,3,0,3,,,,,2,,,74,0
4265,note_on,,,,,5,0,4,,,,,3,,,58,0
4280,note_on,,,,,17,0,3,,,,,2,,,74,127
4284,note_on,,,,,4,0,3,,,,,2,,,72,0
4300,note_on,,,,,16,0,3,,,,,2,,,70,127
4303,note_on,,,,,3,0,3,,,,,2,,,74,0
4320,note_on,,,,,17,0,3,,,,,2,,,69,127
4320,note_on,,,,,55,0,4,,,,,3,,,53,127
4322,note_on,,,,,2,0,3,,,,,2,,,70,0
4323,note_on,,,,,3,0,4,,,,,3,,,51,0
4340,note_on,,,,,18,0,3,,,,,2,,,70,127
4346,note_on,,,,,6,0,3,,,,,2,,,69,0
4360,note_on,,,,,14,0,3,,,,,2,,,72,127
4366,note_on,,,,,6,0,3,,,,,2,,,70,0
4376,note_on,,,,,10,0,3,,,,,2,,,72,0
4380,note_on,,,,,57,0,4,,,,,3,,,57,127
4380,note_on,,,,,4,0,3,,,,,2,,,65,127
4386,note_on,,,,,6,0,4,,,,,3,,,53,0
4400,note_on,,,,,20,0,3,,,,,2,,,77,127
4401,note_on,,,,,1,0,3,,,,,2,,,65,0
4420,note_on,,,,,19,0,3,,,,,2,,,75,127
4422,note_on,,,,,2,0,3,,,,,2,,,77,0
4440,note_on,,,,,54,0,4,,,,,3,,,58,127
4440,note_on,,,,,18,0,3,,,,,2,,,74,127
4443,note_on,,,,,3,0,4,,,,,3,,,57,0
4444,note_on,,,,,4,0,3,,,,,2,,,75,0
4460,note_on,,,,,16,0,3,,,,,2,,,75,127
4466,note_on,,,,,6,0,3,,,,,2,,,74,0
4480,note_on,,,,,14,0,3,,,,,2,,,77,127
4483,note_on,,,,,3,0,3,,,,,2,,,75,0
4498,note_on,,,,,15,0,3,,,,,2,,,77,0
4500,note_on,,,,,2,0,3,,,,,2,,,70,127
4500,note_on,,,,,57,0,4,,,,,3,,,50,127
4507,note_on,,,,,7,0,4,,,,,3,,,58,0
4520,note_on,,,,,20,0,3,,,,,2,,,72,127
4526,note_on,,,,,6,0,3,,,,,2,,,70,0
4540,note_on,,,,,14,0,3,,,,,2,,,74,127
4544,note_on,,,,,4,0,3,,,,,2,,,72,0
4560,note_on,,,,,0,0,4,,,,,3,,,51,127
4560,note_on,,,,,53,0,4,,,,,3,,,50,0
4560,note_on,,,,,16,0,3,,,,,2,,,67,127
4562,note_on,,,,,2,0,3,,,,,2,,,74,0
4580,note_on,,,,,18,0,3,,,,,2,,,69,127
4584,note_on,,,,,4,0,3,,,,,2,,,67,0
4600,note_on,,,,,16,0,3,,,,,2,,,70,127
4602,note_on,,,,,2,0,3,,,,,2,,,69,0
4619,note_on,,,,,17,0,3,,,,,2,,,70,0
4620,note_on,,,,,60,0,4,,,,,3,,,55,127
4620,note_on,,,,,1,0,3,,,,,2,,,63,127
4623,note_on,,,,,3,0,4,,,,,3,,,51,0
4636,note_on,,,,,16,0,3,,,,,2,,,63,0
4640,note_on,,,,,4,0,3,,,,,2,,,79,127
4660,note_on,,,,,20,0,3,,,,,2,,,77,127
4661,note_on,,,,,1,0,3,,,,,2,,,79,0
4680,note_on,,,,,57,0,4,,,,,3,,,60,127
4680,note_on,,,,,19,0,3,,,,,2,,,75,127
4681,note_on,,,,,1,0,3,,,,,2,,,77,0
4683,note_on,,,,,3,0,4,,,,,3,,,55,0
4700,note_on,,,,,19,0,3,,,,,2,,,77,127
4705,note_on,,,,,5,0,3,,,,,2,,,75,0
4720,note_on,,,,,15,0,3,,,,,2,,,79,127
4722,note_on,,,,,2,0,3,,,,,2,,,77,0
4740,note_on,,,,,57,0,4,,,,,3,,,51,127
4740,note_on,,,,,18,0,3,,,,,2,,,72,127
4742,note_on,,,,,2,0,3,,,,,2,,,79,0
4747,note_on,,,,,7,0,4,,,,,3,,,60,0
4760,note_on,,,,,18,0,3,,,,,2,,,74,127
4762,note_on,,,,,2,0,3,,,,,2,,,72,0
4780,note_on,,,,,18,0,3,,,,,2,,,75,127
4786,note_on,,,,,6,0,3,,,,,2,,,74,0
4799,note_on,,,,,52,0,4,,,,,3,,,51,0
4800,note_on,,,,,1,0,4,,,,,3,,,53,127
4800,note_on,,,,,14,0,3,,,,,2,,,69,127
4802,note_on,,,,,2,0,3,,,,,2,,,75,0
4820,note_on,,,,,18,0,3,,,,,2,,,70,127
4821,note_on,,,,,1,0,3,,,,,2,,,69,0
4836,note_on,,,,,15,0,3,,,,,2,,,70,0
4840,note_on,,,,,4,0,3,,,,,2,,,72,127
4860,note_on,,,,,60,0,4,,,,,3,,,57,127
4860,note_on,,,,,20,0,3,,,,,2,,,65,127
4861,note_on,,,,,1,0,3,,,,,2,,,72,0
4871,note_on,,,,,11,0,4,,,,,3,,,53,0
4880,note_on,,,,,0,0,3,,,,,2,,,81,127
4880,note_on,,,,,19,0,3,,,,,2,,,65,0
4900,note_on,,,,,20,0,3,,,,,2,,,79,127
4903,note_on,,,,,3,0,3,,,,,2,,,81,0
4920,note_on,,,,,17,0,3,,,,,2,,,77,127
4920,note_on,,,,,49,0,4,,,,,3,,,62,127
4921,note_on,,,,,1,0,3,,,,,2,,,79,0
4924,note_on,,,,,4,0,4,,,,,3,,,57,0
4940,note_on,,,,,19,0,3,,,,,2,,,79,127
4948,note_on,,,,,8,0,3,,,,,2,,,77,0
4960,note_on,,,,,12,0,3,,,,,2,,,81,127
4962,note_on,,,,,2,0,3,,,,,2,,,79,0
4980,note_on,,,,,18,0,3,,,,,2,,,74,127
4980,note_on,,,,,56,0,4,,,,,3,,,53,127
4982,note_on,,,,,2,0,3,,,,,2,,,81,0
4985,note_on,,,,,5,0,4,,,,,3,,,62,0
5000,note_on,,,,,18,0,3,,,,,2,,,75,127
5003,note_on,,,,,3,0,3,,,,,2,,,74,0
5020,note_on,,,,,17,0,3,,,,,2,,,77,127
5022,note_on,,,,,2,0,3,,,,,2,,,75,0
5040,note_on,,,,,18,0,3,,,,,2,,,70,127
5040,note_on,,,,,55,0,4,,,,,3,,,55,127
5041,note_on,,,,,1,0,4,,,,,3,,,53,0
5041,note_on,,,,,1,0,3,,,,,2,,,77,0
5060,note_on,,,,,19,0,3,,,,,2,,,72,127
5066,note_on,,,,,6,0,3,,,,,2,,,70,0
5080,note_on,,,,,14,0,3,,,,,2,,,74,127
5083,note_on,,,,,3,0,3,,,,,2,,,72,0
5100,note_on,,,,,17,0,3,,,,,2,,,74,0
5100,note_on,,,,,59,0,4,,,,,3,,,58,127
5100,note_on,,,,,0,0,3,,,,,2,,,67,127
5104,note_on,,,,,4,0,4,,,,,3,,,55,0
5120,note_on,,,,,20,0,3,,,,,2,,,69,127
5122,note_on,,,,,2,0,3,,,,,2,,,67,0
5140,note_on,,,,,18,0,3,,,,,2,,,70,127
5141,note_on,,,,,1,0,3,,,,,2,,,69,0
5160,note_on,,,,,19,0,3,,,,,2,,,72,127
5160,note_on,,,,,56,0,4,,,,,3,,,57,127
5163,note_on,,,,,3,0,3,,,,,2,,,70,0
5164,note_on,,,,,4,0,4,,,,,3,,,58,0
5180,note_on,,,,,17,0,3,,,,,2,,,74,127
5182,note_on,,,,,2,0,3,,,,,2,,,72,0
5200,note_on,,,,,18,0,3,,,,,2,,,75,127
5205,note_on,,,,,5,0,3,,,,,2,,,74,0
5220,note_on,,,,,15,0,3,,,,,2,,,69,127
5220,note_on,,,,,56,0,4,,,,,3,,,60,127
5221,note_on,,,,,1,0,3,,,,,2,,,75,0
5222,note_on,,,,,2,0,4,,,,,3,,,57,0
5240,note_on,,,,,19,0,3,,,,,2,,,70,127
5243,note_on,,,,,3,0,3,,,,,2,,,69,0
5260,note_on,,,,,17,0,3,,,,,2,,,72,127
5262,note_on,,,,,2,0,3,,,,,2,,,70,0
5278,note_on,,,,,16,0,3,,,,,2,,,72,0
5280,note_on,,,,,2,0,3,,,,,2,,,74,127
5280,note_on,,,,,58,0,4,,,,,3,,,58,127
5287,note_on,,,,,7,0,4,,,,,3,,,60,0
5300,note_on,,,,,20,0,3,,,,,2,,,72,127
5302,note_on,,,,,2,0,3,,,,,2,,,74,0
5320,note_on,,,,,18,0,3,,,,,2,,,70,127
5321,note_on,,,,,1,0,3,,,,,2,,,72,0
5340,note_on,,,,,53,0,4,,,,,3,,,57,127
5340,note_on,,,,,19,0,3,,,,,2,,,77,127
5343,note_on,,,,,3,0,4,,,,,3,,,58,0
5344,note_on,,,,,4,0,3,,,,,2,,,70,0
5360,note_on,,,,,16,0,3,,,,,2,,,75,127
5363,note_on,,,,,3,0,3,,,,,2,,,77,0
5378,note_on,,,,,15,0,3,,,,,2,,,75,0
5380,note_on,,,,,2,0,3,,,,,2,,,74,127
5400,note_on,,,,,5400,0,2,,,,,1,,,55,127
5401,note_on,,,,,5401,0,1,,,,,0,,,82,127
5401,note_on,,,,,21,0,3,,,,,2,,,74,0
5403,note_on,,,,,60,0,4,,,,,3,,,57,0
5421,note_on,,,,,20,0,1,,,,,0,,,86,127
5422,note_on,,,,,1,0,1,,,,,0,,,82,0
5439,note_on,,,,,17,0,1,,,,,0,,,82,127
5442,note_on,,,,,3,0,1,,,,,0,,,86,0
5449,note_on,,,,,7,0,1,,,,,0,,,82,0
5454,note_on,,,,,5,0,1,,,,,0,,,84,127
5460,note_on,,,,,60,0,2,,,,,1,,,62,127
5460,note_on,,,,,6,0,1,,,,,0,,,82,127
5462,note_on,,,,,2,0,2,,,,,1,,,55,0
5463,note_on,,,,,3,0,1,,,,,0,,,84,0
5481,note_on,,,,,18,0,1,,,,,0,,,81,127
5482,note_on,,,,,1,0,1,,,,,0,,,82,0
5498,note_on,,,,,16,0,1,,,,,0,,,82,127
5502,note_on,,,,,4,0,1,,,,,0,,,81,0
5516,note_on,,,,,14,0,1,,,,,0,,,84,127
5517,note_on,,,,,1,0,1,,,,,0,,,82,0
5520,note_on,,,,,58,0,2,,,,,1,,,63,127
5524,note_on,,,,,4,0,2,,,,,1,,,62,0
5536,note_on,,,,,19,0,1,,,,,0,,,84,0
5538,note_on,,,,,2,0,1,,,,,0,,,79,127
5555,note_on,,,,,17,0,1,,,,,0,,,84,127
5560,note_on,,,,,5,0,1,,,,,0,,,79,0
5568,note_on,,,,,8,0,1,,,,,0,,,84,0
5576,note_on,,,,,8,0,1,,,,,0,,,86,127
5579,note_on,,,,,3,0,1,,,,,0,,,84,127
5580,note_on,,,,,56,0,2,,,,,1,,,65,127
5583,note_on,,,,,4,0,1,,,,,0,,,86,0
5587,note_on,,,,,7,0,2,,,,,1,,,63,0
5600,note_on,,,,,17,0,1,,,,,0,,,82,127
5601,note_on,,,,,1,0,1,,,,,0,,,84,0
5618,note_on,,,,,17,0,1,,,,,0,,,84,127
5619,note_on,,,,,1,0,1,,,,,0,,,82,0
5633,note_on,,,,,14,0,1,,,,,0,,,84,0
5639,note_on,,,,,52,0,2,,,,,1,,,65,0
5640,note_on,,,,,7,0,1,,,,,0,,,86,127
5640,note_on,,,,,1,0,2,,,,,1,,,58,127
5660,note_on,,,,,20,0,1,,,,,0,,,84,127
5667,note_on,,,,,7,0,1,,,,,0,,,86,0
5680,note_on,,,,,13,0,1,,,,,0,,,82,127
5683,note_on,,,,,3,0,1,,,,,0,,,84,0
5694,note_on,,,,,11,0,1,,,,,0,,,82,0
5697,note_on,,,,,57,0,2,,,,,1,,,58,0
5699,note_on,,,,,2,0,2,,,,,1,,,67,127
5700,note_on,,,,,6,0,1,,,,,0,,,86,127
5720,note_on,,,,,20,0,1,,,,,0,,,84,127
5726,note_on,,,,,6,0,1,,,,,0,,,86,0
5740,note_on,,,,,14,0,1,,,,,0,,,82,127
5743,note_on,,,,,3,0,1,,,,,0,,,84,0
5756,note_on,,,,,57,0,2,,,,,1,,,67,0
5758,note_on,,,,,15,0,1,,,,,0,,,82,0
5760,note_on,,,,,2,0,1,,,,,0,,,81,127
5762,note_on,,,,,6,0,2,,,,,1,,,65,127
5780,note_on,,,,,20,0,1,,,,,0,,,82,127
5788,note_on,,,,,8,0,1,,,,,0,,,81,0
5800,note_on,,,,,12,0,1,,,,,0,,,84,127
5804,note_on,,,,,4,0,1,,,,,0,,,82,0
5819,note_on,,,,,15,0,1,,,,,0,,,84,0
5820,note_on,,,,,58,0,2,,,,,1,,,69,127
5820,note_on,,,,,1,0,1,,,,,0,,,77,127
5821,note_on,,,,,1,0,2,,,,,1,,,65,0
5840,note_on,,,,,20,0,1,,,,,0,,,81,127
5845,note_on,,,,,5,0,1,,,,,0,,,77,0
5860,note_on,,,,,15,0,1,,,,,0,,,81,0
5860,note_on,,,,,0,0,1,,,,,0,,,84,127
5880,note_on,,,,,20,0,1,,,,,0,,,86,127
5881,note_on,,,,,60,0,2,,,,,1,,,70,127
5882,note_on,,,,,2,0,1,,,,,0,,,84,0
5883,note_on,,,,,2,0,2,,,,,1,,,69,0
5900,note_on,,,,,18,0,1,,,,,0,,,84,127
5902,note_on,,,,,19,0,2,,,,,1,,,74,127
5903,note_on,,,,,3,0,1,,,,,0,,,86,0
5904,note_on,,,,,2,0,2,,,,,1,,,70,0
5920,note_on,,,,,17,0,1,,,,,0,,,82,127
5922,note_on,,,,,2,0,1,,,,,0,,,84,0
5922,note_on,,,,,18,0,2,,,,,1,,,77,127
5923,note_on,,,,,1,0,2,,,,,1,,,74,0
5940,note_on,,,,,18,0,1,,,,,0,,,86,127
5941,note_on,,,,,1,0,1,,,,,0,,,82,0
5944,note_on,,,,,21,0,2,,,,,1,,,70,127
5947,note_on,,,,,3,0,2,,,,,1,,,77,0
5960,note_on,,,,,19,0,1,,,,,0,,,84,127
5964,note_on,,,,,17,0,2,,,,,1,,,74,127
5965,note_on,,,,,5,0,1,,,,,0,,,86,0
5966,note_on,,,,,2,0,2,,,,,1,,,70,0
5980,note_on,,,,,15,0,1,,,,,0,,,82,127
5983,note_on,,,,,3,0,1,,,,,0,,,84,0
5984,note_on,,,,,0,0,2,,,,,1,,,77,127
5984,note_on,,,,,18,0,2,,,,,1,,,74,0
6000,note_on,,,,,17,0,1,,,,,0,,,84,127
6002,note_on,,,,,2,0,1,,,,,0,,,82,0
6002,note_on,,,,,18,0,2,,,,,1,,,69,127
6005,note_on,,,,,3,0,2,,,,,1,,,77,0
6020,note_on,,,,,18,0,1,,,,,0,,,82,127
6021,note_on,,,,,16,0,2,,,,,1,,,69,0
6022,note_on,,,,,1,0,2,,,,,1,,,72,127
6026,note_on,,,,,6,0,1,,,,,0,,,84,0
6040,note_on,,,,,14,0,1,,,,,0,,,81,127
6041,note_on,,,,,19,0,2,,,,,1,,,77,127
6045,note_on,,,,,5,0,1,,,,,0,,,82,0
6047,note_on,,,,,6,0,2,,,,,1,,,72,0
6060,note_on,,,,,15,0,1,,,,,0,,,84,127
6060,note_on,,,,,13,0,2,,,,,1,,,69,127
6061,note_on,,,,,1,0,1,,,,,0,,,81,0
6068,note_on,,,,,8,0,2,,,,,1,,,77,0
6080,note_on,,,,,12,0,2,,,,,1,,,72,127
6080,note_on,,,,,19,0,1,,,,,0,,,82,127
6081,note_on,,,,,1,0,2,,,,,1,,,69,0
6084,note_on,,,,,4,0,1,,,,,0,,,84,0
6100,note_on,,,,,19,0,2,,,,,1,,,77,127
6100,note_on,,,,,16,0,1,,,,,0,,,81,127
6102,note_on,,,,,2,0,1,,,,,0,,,82,0
6116,note_on,,,,,16,0,2,,,,,1,,,72,0
6119,note_on,,,,,3,0,2,,,,,1,,,67,127
6120,note_on,,,,,1,0,2,,,,,1,,,77,0
6120,note_on,,,,,18,0,1,,,,,0,,,82,127
6121,note_on,,,,,1,0,1,,,,,0,,,81,0
6138,note_on,,,,,18,0,2,,,,,1,,,70,127
6140,note_on,,,,,19,0,1,,,,,0,,,81,127
6142,note_on,,,,,4,0,2,,,,,1,,,67,0
6143,note_on,,,,,3,0,1,,,,,0,,,82,0
6157,note_on,,,,,15,0,2,,,,,1,,,76,127
6159,note_on,,,,,2,0,2,,,,,1,,,70,0
6160,note_on,,,,,0,0,1,,,,,0,,,79,127
6160,note_on,,,,,17,0,1,,,,,0,,,81,0
6178,note_on,,,,,19,0,2,,,,,1,,,67,127
6180,note_on,,,,,20,0,1,,,,,0,,,82,127
6181,note_on,,,,,1,0,1,,,,,0,,,79,0
6183,note_on,,,,,5,0,2,,,,,1,,,76,0
6200,note_on,,,,,17,0,2,,,,,1,,,70,127
6200,note_on,,,,,19,0,1,,,,,0,,,81,127
6202,note_on,,,,,2,0,1,,,,,0,,,82,0
6205,note_on,,,,,5,0,2,,,,,1,,,67,0
6220,note_on,,,,,18,0,1,,,,,0,,,79,127
6221,note_on,,,,,16,0,2,,,,,1,,,76,127
6223,note_on,,,,,3,0,1,,,,,0,,,81,0
6238,note_on,,,,,17,0,2,,,,,1,,,65,127
6239,note_on,,,,,1,0,2,,,,,1,,,76,0
6239,note_on,,,,,0,0,2,,,,,1,,,70,0
6240,note_on,,,,,17,0,1,,,,,0,,,81,127
6243,note_on,,,,,3,0,1,,,,,0,,,79,0
6260,note_on,,,,,17,0,1,,,,,0,,,79,127
6260,note_on,,,,,21,0,2,,,,,1,,,69,127
6262,note_on,,,,,2,0,2,,,,,1,,,65,0
6264,note_on,,,,,4,0,1,,,,,0,,,81,0
6280,note_on,,,,,16,0,1,,,,,0,,,77,127
6281,note_on,,,,,19,0,2,,,,,1,,,72,127
6281,note_on,,,,,1,0,1,,,,,0,,,79,0
6284,note_on,,,,,3,0,2,,,,,1,,,69,0
6300,note_on,,,,,19,0,1,,,,,0,,,81,127
6300,note_on,,,,,16,0,2,,,,,1,,,65,127
6303,note_on,,,,,3,0,1,,,,,0,,,77,0
6305,note_on,,,,,5,0,2,,,,,1,,,72,0
6320,note_on,,,,,17,0,1,,,,,0,,,79,127
6321,note_on,,,,,16,0,2,,,,,1,,,69,127
6322,note_on,,,,,2,0,1,,,,,0,,,81,0
6324,note_on,,,,,3,0,2,,,,,1,,,65,0
6339,note_on,,,,,17,0,1,,,,,0,,,79,0
6340,note_on,,,,,16,0,2,,,,,1,,,69,0
6340,note_on,,,,,1,0,1,,,,,0,,,77,127
6341,note_on,,,,,1,0,2,,,,,1,,,72,127
6355,note_on,,,,,15,0,1,,,,,0,,,77,0
6355,note_on,,,,,14,0,2,,,,,1,,,72,0
6360,note_on,,,,,959,0,3,,,,,2,,,86,127
6363,note_on,,,,,960,0,4,,,,,3,,,70,127
6380,note_on,,,,,20,0,3,,,,,2,,,84,127
6381,note_on,,,,,1,0,3,,,,,2,,,86,0
6381,note_on,,,,,18,0,4,,,,,3,,,74,127
6382,note_on,,,,,1,0,4,,,,,3,,,70,0
6399,note_on,,,,,0,0,4,,,,,3,,,77,127
6399,note_on,,,,,17,0,4,,,,,3,,,74,0
6400,note_on,,,,,19,0,3,,,,,2,,,82,127
6401,note_on,,,,,1,0,3,,,,,2,,,84,0
6419,note_on,,,,,20,0,4,,,,,3,,,70,127
6420,note_on,,,,,19,0,3,,,,,2,,,86,127
6422,note_on,,,,,2,0,3,,,,,2,,,82,0
6422,note_on,,,,,3,0,4,,,,,3,,,77,0
6440,note_on,,,,,18,0,4,,,,,3,,,74,127
6440,note_on,,,,,18,0,3,,,,,2,,,84,127
6441,note_on,,,,,1,0,4,,,,,3,,,70,0
6445,note_on,,,,,5,0,3,,,,,2,,,86,0
6460,note_on,,,,,15,0,3,,,,,2,,,82,127
6461,note_on,,,,,1,0,3,,,,,2,,,84,0
6461,note_on,,,,,20,0,4,,,,,3,,,77,127
6462,note_on,,,,,1,0,4,,,,,3,,,74,0
6477,note_on,,,,,15,0,4,,,,,3,,,69,127
6480,note_on,,,,,19,0,3,,,,,2,,,84,127
6481,note_on,,,,,4,0,4,,,,,3,,,77,0
6483,note_on,,,,,3,0,3,,,,,2,,,82,0
6498,note_on,,,,,17,0,4,,,,,3,,,72,127
6499,note_on,,,,,1,0,4,,,,,3,,,69,0
6500,note_on,,,,,17,0,3,,,,,2,,,82,127
6506,note_on,,,,,6,0,3,,,,,2,,,84,0
6519,note_on,,,,,20,0,4,,,,,3,,,77,127
6520,note_on,,,,,14,0,3,,,,,2,,,81,127
6521,note_on,,,,,1,0,3,,,,,2,,,82,0
6524,note_on,,,,,5,0,4,,,,,3,,,72,0
6539,note_on,,,,,15,0,4,,,,,3,,,69,127
6540,note_on,,,,,19,0,3,,,,,2,,,84,127
6541,note_on,,,,,1,0,3,,,,,2,,,81,0
6545,note_on,,,,,6,0,4,,,,,3,,,77,0
6560,note_on,,,,,15,0,4,,,,,3,,,69,0
6560,note_on,,,,,0,0,4,,,,,3,,,72,127
6560,note_on,,,,,19,0,3,,,,,2,,,82,127
6564,note_on,,,,,4,0,3,,,,,2,,,84,0
6580,note_on,,,,,16,0,3,,,,,2,,,81,127
6580,note_on,,,,,20,0,4,,,,,3,,,77,127
6584,note_on,,,,,4,0,3,,,,,2,,,82,0
6596,note_on,,,,,16,0,4,,,,,3,,,72,0
6599,note_on,,,,,15,0,3,,,,,2,,,81,0
6600,note_on,,,,,4,0,4,,,,,3,,,77,0
6600,note_on,,,,,1,0,3,,,,,2,,,82,127
6602,note_on,,,,,2,0,4,,,,,3,,,67,127
6620,note_on,,,,,18,0,4,,,,,3,,,70,127
6620,note_on,,,,,20,0,3,,,,,2,,,81,127
6622,note_on,,,,,2,0,3,,,,,2,,,82,0
6624,note_on,,,,,4,0,4,,,,,3,,,67,0
6640,note_on,,,,,0,0,3,,,,,2,,,79,127
6640,note_on,,,,,18,0,3,,,,,2,,,81,0
6640,note_on,,,,,16,0,4,,,,,3,,,76,127
6643,note_on,,,,,3,0,4,,,,,3,,,70,0
6660,note_on,,,,,20,0,3,,,,,2,,,82,127
6661,note_on,,,,,18,0,4,,,,,3,,,67,127
6661,note_on,,,,,1,0,3,,,,,2,,,79,0
6669,note_on,,,,,8,0,4,,,,,3,,,76,0
6680,note_on,,,,,19,0,3,,,,,2,,,81,127
6683,note_on,,,,,14,0,4,,,,,3,,,70,127
6684,note_on,,,,,4,0,3,,,,,2,,,82,0
6697,note_on,,,,,14,0,4,,,,,3,,,67,0
6700,note_on,,,,,16,0,3,,,,,2,,,79,127
6701,note_on,,,,,4,0,4,,,,,3,,,76,127
6704,note_on,,,,,4,0,3,,,,,2,,,81,0
6718,note_on,,,,,17,0,4,,,,,3,,,70,0
6720,note_on,,,,,2,0,4,,,,,3,,,65,127
6720,note_on,,,,,16,0,3,,,,,2,,,81,127
6723,note_on,,,,,3,0,3,,,,,2,,,79,0
6723,note_on,,,,,3,0,4,,,,,3,,,76,0
6740,note_on,,,,,17,0,4,,,,,3,,,65,0
6740,note_on,,,,,0,0,4,,,,,3,,,69,127
6740,note_on,,,,,17,0,3,,,,,2,,,84,127
6742,note_on,,,,,2,0,3,,,,,2,,,81,0
6760,note_on,,,,,18,0,3,,,,,2,,,81,127
6760,note_on,,,,,0,0,4,,,,,3,,,65,127
6760,note_on,,,,,20,0,4,,,,,3,,,69,0
6764,note_on,,,,,4,0,3,,,,,2,,,84,0
6780,note_on,,,,,20,0,4,,,,,3,,,62,127
6780,note_on,,,,,16,0,3,,,,,2,,,77,127
6781,note_on,,,,,1,0,4,,,,,3,,,65,0
6782,note_on,,,,,2,0,3,,,,,2,,,81,0
6798,note_on,,,,,17,0,4,,,,,3,,,62,0
6800,note_on,,,,,18,0,3,,,,,2,,,89,127
6800,note_on,,,,,2,0,4,,,,,3,,,70,127
6803,note_on,,,,,3,0,3,,,,,2,,,77,0
6819,note_on,,,,,19,0,4,,,,,3,,,70,0
6820,note_on,,,,,17,0,3,,,,,2,,,89,0
6820,note_on,,,,,1,0,4,,,,,3,,,62,127
6820,note_on,,,,,0,0,3,,,,,2,,,77,127
6840,note_on,,,,,20,0,4,,,,,3,,,64,127
6840,note_on,,,,,20,0,3,,,,,2,,,79,127
6842,note_on,,,,,2,0,4,,,,,3,,,62,0
6843,note_on,,,,,3,0,3,,,,,2,,,77,0
6859,note_on,,,,,17,0,4,,,,,3,,,64,0
6860,note_on,,,,,17,0,3,,,,,2,,,82,127
6860,note_on,,,,,1,0,4,,,,,3,,,67,127
6862,note_on,,,,,2,0,3,,,,,2,,,79,0
6880,note_on,,,,,18,0,3,,,,,2,,,79,127
6880,note_on,,,,,20,0,4,,,,,3,,,64,127
6882,note_on,,,,,2,0,4,,,,,3,,,67,0
6885,note_on,,,,,5,0,3,,,,,2,,,82,0
6900,note_on,,,,,18,0,4,,,,,3,,,60,127
6900,note_on,,,,,15,0,3,,,,,2,,,76,127
6901,note_on,,,,,1,0,4,,,,,3,,,64,0
6901,note_on,,,,,1,0,3,,,,,2,,,79,0
6920,note_on,,,,,0,0,3,,,,,2,,,84,127
6920,note_on,,,,,19,0,4,,,,,3,,,60,0
6920,note_on,,,,,0,0,4,,,,,3,,,69,127
6920,note_on,,,,,19,0,3,,,,,2,,,76,0
6939,note_on,,,,,19,0,4,,,,,3,,,69,0
6940,note_on,,,,,0,0,3,,,,,2,,,76,127
6940,note_on,,,,,20,0,3,,,,,2,,,84,0
6940,note_on,,,,,1,0,4,,,,,3,,,60,127
6960,note_on,,,,,20,0,3,,,,,2,,,77,127
6960,note_on,,,,,20,0,4,,,,,3,,,62,127
6963,note_on,,,,,3,0,3,,,,,2,,,76,0
6963,note_on,,,,,3,0,4,,,,,3,,,60,0
6979,note_on,,,,,16,0,4,,,,,3,,,62,0
6980,note_on,,,,,1,0,4,,,,,3,,,65,127
6980,note_on,,,,,17,0,3,,,,,2,,,81,127
6981,note_on,,,,,1,0,3,,,,,2,,,77,0
6998,note_on,,,,,18,0,4,,,,,3,,,65,0
7000,note_on,,,,,19,0,3,,,,,2,,,77,127
7000,note_on,,,,,2,0,4,,,,,3,,,62,127
7004,note_on,,,,,4,0,3,,,,,2,,,81,0
7019,note_on,,,,,19,0,4,,,,,3,,,62,0
7020,note_on,,,,,1,0,4,,,,,3,,,58,127
7020,note_on,,,,,16,0,3,,,,,2,,,74,127
7021,note_on,,,,,1,0,3,,,,,2,,,77,0
7039,note_on,,,,,19,0,4,,,,,3,,,58,0
7039,note_on,,,,,18,0,3,,,,,2,,,74,0
7040,note_on,,,,,1,0,4,,,,,3,,,67,127
7040,note_on,,,,,1,0,3,,,,,2,,,82,127
7060,note_on,,,,,20,0,4,,,,,3,,,58,127
7060,note_on,,,,,20,0,3,,,,,2,,,74,127
7063,note_on,,,,,3,0,4,,,,,3,,,67,0
7065,note_on,,,,,5,0,3,,,,,2,,,82,0
7075,note_on,,,,,12,0,4,,,,,3,,,58,0
7080,note_on,,,,,5,0,4,,,,,3,,,60,127
7080,note_on,,,,,15,0,3,,,,,2,,,76,127
7085,note_on,,,,,5,0,3,,,,,2,,,74,0
7100,note_on,,,,,20,0,4,,,,,3,,,64,127
7100,note_on,,,,,15,0,3,,,,,2,,,79,127
7101,note_on,,,,,1,0,4,,,,,3,,,60,0
7101,note_on,,,,,1,0,3,,,,,2,,,76,0
7119,note_on,,,,,18,0,4,,,,,3,,,64,0
7120,note_on,,,,,19,0,3,,,,,2,,,76,127
7120,note_on,,,,,1,0,4,,,,,3,,,60,127
7122,note_on,,,,,2,0,3,,,,,2,,,79,0
7140,note_on,,,,,20,0,4,,,,,3,,,57,127
7140,note_on,,,,,18,0,3,,,,,2,,,72,127
7142,note_on,,,,,2,0,3,,,,,2,,,76,0
7142,note_on,,,,,2,0,4,,,,,3,,,60,0
7157,note_on,,,,,15,0,4,,,,,3,,,57,0
7160,note_on,,,,,3,0,4,,,,,3,,,65,127
7160,note_on,,,,,18,0,3,,,,,2,,,72,0
7160,note_on,,,,,0,0,3,,,,,2,,,81,127
7180,note_on,,,,,20,0,3,,,,,2,,,81,0
7180,note_on,,,,,20,0,4,,,,,3,,,57,127
7180,note_on,,,,,0,0,3,,,,,2,,,72,127
7182,note_on,,,,,2,0,4,,,,,3,,,65,0
7200,note_on,,,,,18,0,4,,,,,3,,,58,127
7200,note_on,,,,,20,0,3,,,,,2,,,74,127
7201,note_on,,,,,1,0,4,,,,,3,,,57,0
7205,note_on,,,,,5,0,3,,,,,2,,,72,0
7220,note_on,,,,,19,0,4,,,,,3,,,62,127
7220,note_on,,,,,15,0,3,,,,,2,,,77,127
7221,note_on,,,,,1,0,4,,,,,3,,,58,0
7226,note_on,,,,,6,0,3,,,,,2,,,74,0
7239,note_on,,,,,18,0,4,,,,,3,,,62,0
7239,note_on,,,,,13,0,3,,,,,2,,,77,0
7240,note_on,,,,,1,0,4,,,,,3,,,58,127
7240,note_on,,,,,1,0,3,,,,,2,,,74,127
7260,note_on,,,,,20,0,4,,,,,3,,,55,127
7260,note_on,,,,,20,0,3,,,,,2,,,76,127
7263,note_on,,,,,3,0,4,,,,,3,,,58,0
7263,note_on,,,,,3,0,3,,,,,2,,,74,0
7280,note_on,,,,,17,0,3,,,,,2,,,79,127
7280,note_on,,,,,0,0,4,,,,,3,,,58,127
7280,note_on,,,,,17,0,4,,,,,3,,,55,0
7283,note_on,,,,,3,0,3,,,,,2,,,76,0
7300,note_on,,,,,20,0,4,,,,,3,,,55,127
7300,note_on,,,,,17,0,3,,,,,2,,,76,127
7301,note_on,,,,,1,0,3,,,,,2,,,79,0
7301,note_on,,,,,1,0,4,,,,,3,,,58,0
7317,note_on,,,,,16,0,3,,,,,2,,,77,127
7320,note_on,,,,,19,0,4,,,,,3,,,57,127
7322,note_on,,,,,5,0,3,,,,,2,,,76,0
7325,note_on,,,,,5,0,4,,,,,3,,,55,0
7340,note_on,,,,,18,0,3,,,,,2,,,77,0
7341,note_on,,,,,1,0,3,,,,,2,,,72,127
7359,note_on,,,,,18,0,3,,,,,2,,,77,127
7365,note_on,,,,,6,0,3,,,,,2,,,72,0
7371,note_on,,,,,6,0,3,,,,,2,,,77,0
7377,note_on,,,,,6,0,3,,,,,2,,,79,127
7379,note_on,,,,,54,0,4,,,,,3,,,57,0
7380,note_on,,,,,1,0,4,,,,,3,,,65,127
7382,note_on,,,,,5,0,3,,,,,2,,,77,127
7384,note_on,,,,,2,0,3,,,,,2,,,79,0
7401,note_on,,,,,17,0,3,,,,,2,,,76,127
7402,note_on,,,,,1,0,3,,,,,2,,,77,0
7421,note_on,,,,,19,0,3,,,,,2,,,77,127
7423,note_on,,,,,2,0,3,,,,,2,,,76,0
7438,note_on,,,,,15,0,3,,,,,2,,,79,127
7440,note_on,,,,,60,0,4,,,,,3,,,64,127
7441,note_on,,,,,3,0,3,,,,,2,,,77,0
7446,note_on,,,,,6,0,4,,,,,3,,,65,0
7459,note_on,,,,,18,0,3,,,,,2,,,72,127
7460,note_on,,,,,1,0,3,,,,,2,,,79,0
7477,note_on,,,,,17,0,3,,,,,2,,,79,127
7483,note_on,,,,,6,0,3,,,,,2,,,72,0
7488,note_on,,,,,5,0,3,,,,,2,,,79,0
7495,note_on,,,,,7,0,3,,,,,2,,,81,127
7499,note_on,,,,,4,0,3,,,,,2,,,79,127
7500,note_on,,,,,54,0,4,,,,,3,,,60,127
7503,note_on,,,,,3,0,4,,,,,3,,,64,0
7504,note_on,,,,,5,0,3,,,,,2,,,81,0
7520,note_on,,,,,16,0,3,,,,,2,,,77,127
7521,note_on,,,,,1,0,3,,,,,2,,,79,0
7538,note_on,,,,,17,0,3,,,,,2,,,79,127
7541,note_on,,,,,3,0,3,,,,,2,,,77,0
7557,note_on,,,,,16,0,3,,,,,2,,,81,127
7559,note_on,,,,,2,0,3,,,,,2,,,79,0
7560,note_on,,,,,57,0,4,,,,,3,,,65,127
7565,note_on,,,,,5,0,4,,,,,3,,,60,0
7577,note_on,,,,,18,0,3,,,,,2,,,81,0
7578,note_on,,,,,1,0,3,,,,,2,,,77,127
7597,note_on,,,,,19,0,3,,,,,2,,,81,127
7600,note_on,,,,,3,0,3,,,,,2,,,77,0
7608,note_on,,,,,8,0,3,,,,,2,,,81,0
7615,note_on,,,,,7,0,3,,,,,2,,,82,127
7620,note_on,,,,,55,0,4,,,,,3,,,62,127
7622,note_on,,,,,2,0,4,,,,,3,,,65,0
7623,note_on,,,,,8,0,3,,,,,2,,,81,127
7626,note_on,,,,,3,0,3,,,,,2,,,82,0
7644,note_on,,,,,18,0,3,,,,,2,,,81,0
7644,note_on,,,,,0,0,3,,,,,2,,,79,127
7661,note_on,,,,,17,0,3,,,,,2,,,81,127
7664,note_on,,,,,3,0,3,,,,,2,,,79,0
7679,note_on,,,,,15,0,3,,,,,2,,,81,0
7680,note_on,,,,,58,0,4,,,,,3,,,62,0
7680,note_on,,,,,1,0,3,,,,,2,,,82,127
7680,note_on,,,,,0,0,4,,,,,3,,,67,127
7700,note_on,,,,,20,0,3,,,,,2,,,79,127
7705,note_on,,,,,5,0,3,,,,,2,,,82,0
7720,note_on,,,,,15,0,3,,,,,2,,,76,127
7725,note_on,,,,,5,0,3,,,,,2,,,79,0
7740,note_on,,,,,0,0,4,,,,,3,,,64,127
7740,note_on,,,,,15,0,3,,,,,2,,,72,127
7740,note_on,,,,,60,0,4,,,,,3,,,67,0
7742,note_on,,,,,2,0,3,,,,,2,,,76,0
7760,note_on,,,,,18,0,3,,,,,2,,,76,127
7765,note_on,,,,,5,0,3,,,,,2,,,72,0
7780,note_on,,,,,15,0,3,,,,,2,,,79,127
7781,note_on,,,,,1,0,3,,,,,2,,,76,0
7795,note_on,,,,,14,0,3,,,,,2,,,79,0
7800,note_on,,,,,5,0,3,,,,,2,,,82,127
7800,note_on,,,,,60,0,4,,,,,3,,,60,127
7802,note_on,,,,,2,0,4,,,,,3,,,64,0
7820,note_on,,,,,20,0,3,,,,,2,,,79,127
7827,note_on,,,,,7,0,3,,,,,2,,,82,0
7840,note_on,,,,,13,0,3,,,,,2,,,76,127
7842,note_on,,,,,2,0,3,,,,,2,,,79,0
7859,note_on,,,,,17,0,3,,,,,2,,,76,0
7860,note_on,,,,,1,0,3,,,,,2,,,72,127
7860,note_on,,,,,58,0,4,,,,,3,,,64,127
7870,note_on,,,,,10,0,4,,,,,3,,,60,0
7880,note_on,,,,,20,0,3,,,,,2,,,76,127
7882,note_on,,,,,2,0,3,,,,,2,,,72,0
7900,note_on,,,,,18,0,3,,,,,2,,,76,0
7900,note_on,,,,,0,0,3,,,,,2,,,79,127
7917,note_on,,,,,17,0,3,,,,,2,,,79,0
7918,note_on,,,,,48,0,4,,,,,3,,,64,0
7920,note_on,,,,,2,0,4,,,,,3,,,65,127
7921,note_on,,,,,4,0,3,,,,,2,,,81,127
7962,note_on,,,,,41,0,3,,,,,2,,,81,0
7968,note_on,,,,,6,0,3,,,,,2,,,77,127
7979,note_on,,,,,11,0,3,,,,,2,,,77,0
7980,note_on,,,,,60,0,4,,,,,3,,,58,127
7982,note_on,,,,,3,0,3,,,,,2,,,79,127
7986,note_on,,,,,6,0,4,,,,,3,,,65,0
8021,note_on,,,,,39,0,3,,,,,2,,,79,0
8023,note_on,,,,,2,0,3,,,,,2,,,74,127
8035,note_on,,,,,12,0,3,,,,,2,,,74,0
8038,note_on,,,,,3,0,3,,,,,2,,,77,127
8040,note_on,,,,,54,0,4,,,,,3,,,58,0
8040,note_on,,,,,0,0,4,,,,,3,,,60,127
8050,note_on,,,,,12,0,3,,,,,2,,,77,0
8052,note_on,,,,,2,0,3,,,,,2,,,76,127
8058,note_on,,,,,6,0,3,,,,,2,,,76,0
8059,note_on,,,,,1,0,3,,,,,2,,,77,127
8067,note_on,,,,,8,0,3,,,,,2,,,77,0
8067,note_on,,,,,0,0,3,,,,,2,,,76,127
8073,note_on,,,,,6,0,3,,,,,2,,,76,0
8073,note_on,,,,,0,0,3,,,,,2,,,77,127
8081,note_on,,,,,8,0,3,,,,,2,,,77,0
8081,note_on,,,,,0,0,3,,,,,2,,,76,127
8088,note_on,,,,,7,0,3,,,,,2,,,76,0
8088,note_on,,,,,0,0,3,,,,,2,,,77,127
8094,note_on,,,,,6,0,3,,,,,2,,,76,127
8096,note_on,,,,,2,0,3,,,,,2,,,77,0
8100,note_on,,,,,60,0,4,,,,,3,,,60,0
8100,note_on,,,,,0,0,4,,,,,3,,,48,127
8100,note_on,,,,,4,0,3,,,,,2,,,77,127
8103,note_on,,,,,3,0,3,,,,,2,,,76,0
8106,note_on,,,,,3,0,3,,,,,2,,,76,127
8109,note_on,,,,,3,0,3,,,,,2,,,77,0
8138,note_on,,,,,29,0,3,,,,,2,,,77,127
8141,note_on,,,,,3,0,3,,,,,2,,,76,0
8153,note_on,,,,,12,0,3,,,,,2,,,77,0
8160,note_on,,,,,7,0,3,,,,,2,,,77,127
8160,note_on,,,,,60,0,4,,,,,3,,,53,127
8165,note_on,,,,,5,0,4,,,,,3,,,48,0
8220,note_on,,,,,4253,0,8,,,,,7,,,69,90
8220,note_on,,,,,4261,0,5,,,,,4,,,65,90
8220,note_on,,,,,4381,0,10,,,,,10,,,65,90
8220,note_on,,,,,4261,0,9,,,,,8,,,60,90
8220,note_on,,,,,4261,0,11,,,,,11,,,53,90
8272,note_on,,,,,52,0,9,,,,,8,,,60,0
8276,note_on,,,,,56,0,11,,,,,11,,,53,0
8279,note_on,,,,,119,0,3,,,,,2,,,77,0
8279,note_on,,,,,114,0,4,,,,,3,,,53,0
8280,note_on,,,,,60,0,10,,,,,10,,,67,90
8280,note_on,,,,,8,0,9,,,,,8,,,60,90
8280,note_on,,,,,60,0,8,,,,,7,,,67,90
8280,note_on,,,,,60,0,5,,,,,4,,,67,90
8280,note_on,,,,,4,0,11,,,,,11,,,53,90
8282,note_on,,,,,2,0,10,,,,,10,,,65,0
8282,note_on,,,,,2,0,5,,,,,4,,,65,0
8288,note_on,,,,,8,0,8,,,,,7,,,69,0
8335,note_on,,,,,53,0,10,,,,,10,,,67,0
8335,note_on,,,,,53,0,5,,,,,4,,,67,0
8338,note_on,,,,,50,0,8,,,,,7,,,67,0
8340,note_on,,,,,2,0,8,,,,,7,,,72,89
8340,note_on,,,,,5,0,10,,,,,10,,,67,89
8340,note_on,,,,,60,0,11,,,,,11,,,52,89
8340,note_on,,,,,5,0,5,,,,,4,,,67,89
8340,note_on,,,,,60,0,9,,,,,8,,,67,89
8343,note_on,,,,,3,0,9,,,,,8,,,60,0
8347,note_on,,,,,7,0,11,,,,,11,,,53,0
8393,note_on,,,,,53,0,8,,,,,7,,,72,0
8399,note_on,,,,,59,0,5,,,,,4,,,67,0
8399,note_on,,,,,59,0,10,,,,,10,,,67,0
8400,note_on,,,,,121,0,3,,,,,2,,,77,127
8400,note_on,,,,,121,0,4,,,,,3,,,62,127
8403,note_on,,,,,60,0,9,,,,,8,,,67,0
8409,note_on,,,,,62,0,11,,,,,11,,,52,0
8419,note_on,,,,,19,0,4,,,,,3,,,62,0
8419,note_on,,,,,19,0,3,,,,,2,,,77,0
8420,note_on,,,,,1,0,4,,,,,3,,,64,127
8420,note_on,,,,,1,0,3,,,,,2,,,76,127
8439,note_on,,,,,19,0,4,,,,,3,,,64,0
8439,note_on,,,,,19,0,3,,,,,2,,,76,0
8440,note_on,,,,,1,0,4,,,,,3,,,65,127
8440,note_on,,,,,1,0,3,,,,,2,,,74,127
8459,note_on,,,,,19,0,4,,,,,3,,,65,0
8459,note_on,,,,,19,0,3,,,,,2,,,74,0
8460,note_on,,,,,51,0,11,,,,,11,,,62,88
8460,note_on,,,,,61,0,10,,,,,10,,,69,88
8460,note_on,,,,,67,0,8,,,,,7,,,77,88
8460,note_on,,,,,57,0,9,,,,,8,,,69,88
8460,note_on,,,,,61,0,5,,,,,4,,,69,88
8519,note_on,,,,,59,0,11,,,,,11,,,62,0
8519,note_on,,,,,59,0,9,,,,,8,,,69,0
8519,note_on,,,,,59,0,5,,,,,4,,,69,0
8519,note_on,,,,,59,0,10,,,,,10,,,69,0
8520,note_on,,,,,1,0,5,,,,,4,,,69,88
8520,note_on,,,,,1,0,11,,,,,11,,,62,88
8520,note_on,,,,,1,0,9,,,,,8,,,69,88
8520,note_on,,,,,60,0,8,,,,,7,,,77,0
8520,note_on,,,,,0,0,8,,,,,7,,,76,88
8520,note_on,,,,,1,0,10,,,,,10,,,69,88
8578,note_on,,,,,58,0,11,,,,,11,,,62,0
8579,note_on,,,,,59,0,9,,,,,8,,,69,0
8580,note_on,,,,,60,0,10,,,,,10,,,69,0
8580,note_on,,,,,0,0,10,,,,,10,,,60,87
8580,note_on,,,,,1,0,9,,,,,8,,,76,87
8580,note_on,,,,,0,0,5,,,,,4,,,60,87
8580,note_on,,,,,60,0,8,,,,,7,,,81,87
8580,note_on,,,,,2,0,11,,,,,11,,,60,87
8580,note_on,,,,,60,0,5,,,,,4,,,69,0
8583,note_on,,,,,3,0,8,,,,,7,,,76,0
8640,note_on,,,,,181,0,3,,,,,2,,,86,127
8640,note_on,,,,,181,0,4,,,,,3,,,70,127
8642,note_on,,,,,62,0,9,,,,,8,,,76,0
8646,note_on,,,,,63,0,8,,,,,7,,,81,0
8651,note_on,,,,,71,0,11,,,,,11,,,60,0
8657,note_on,,,,,77,0,10,,,,,10,,,60,0
8657,note_on,,,,,77,0,5,,,,,4,,,60,0
8659,note_on,,,,,19,0,4,,,,,3,,,70,0
8659,note_on,,,,,19,0,3,,,,,2,,,86,0
8660,note_on,,,,,1,0,3,,,,,2,,,84,127
8660,note_on,,,,,1,0,4,,,,,3,,,72,127
8679,note_on,,,,,19,0,3,,,,,2,,,84,0
8679,note_on,,,,,19,0,4,,,,,3,,,72,0
8680,note_on,,,,,1,0,3,,,,,2,,,82,127
8680,note_on,,,,,1,0,4,,,,,3,,,74,127
8699,note_on,,,,,19,0,3,,,,,2,,,82,0
8699,note_on,,,,,19,0,4,,,,,3,,,74,0
8700,note_on,,,,,43,0,10,,,,,10,,,62,86
8700,note_on,,,,,54,0,8,,,,,7,,,74,86
8700,note_on,,,,,43,0,5,,,,,4,,,62,86
8700,note_on,,,,,58,0,9,,,,,8,,,65,86
8700,note_on,,,,,49,0,11,,,,,11,,,58,86
8751,note_on,,,,,51,0,11,,,,,11,,,58,0
8758,note_on,,,,,58,0,8,,,,,7,,,74,0
8759,note_on,,,,,59,0,9,,,,,8,,,65,0
8760,note_on,,,,,2,0,8,,,,,7,,,72,86
8760,note_on,,,,,9,0,11,,,,,11,,,58,86
8760,note_on,,,,,1,0,9,,,,,8,,,65,86
8760,note_on,,,,,60,0,10,,,,,10,,,65,86
8760,note_on,,,,,60,0,5,,,,,4,,,65,86
8761,note_on,,,,,1,0,10,,,,,10,,,62,0
8761,note_on,,,,,1,0,5,,,,,4,,,62,0
8814,note_on,,,,,53,0,10,,,,,10,,,65,0
8814,note_on,,,,,53,0,5,,,,,4,,,65,0
8820,note_on,,,,,60,0,9,,,,,8,,,72,85
8820,note_on,,,,,6,0,10,,,,,10,,,65,85
8820,note_on,,,,,60,0,8,,,,,7,,,77,85
8820,note_on,,,,,60,0,11,,,,,11,,,57,85
8820,note_on,,,,,6,0,5,,,,,4,,,65,85
8825,note_on,,,,,5,0,11,,,,,11,,,58,0
8825,note_on,,,,,5,0,9,,,,,8,,,65,0
8827,note_on,,,,,7,0,8,,,,,7,,,72,0
8880,note_on,,,,,55,0,11,,,,,11,,,55,85
8880,note_on,,,,,181,0,4,,,,,3,,,55,127
8880,note_on,,,,,181,0,3,,,,,2,,,70,127
8880,note_on,,,,,55,0,9,,,,,8,,,64,85
8880,note_on,,,,,53,0,8,,,,,7,,,70,85
8880,note_on,,,,,60,0,10,,,,,10,,,67,85
8880,note_on,,,,,60,0,5,,,,,4,,,67,85
8882,note_on,,,,,2,0,10,,,,,10,,,65,0
8882,note_on,,,,,2,0,5,,,,,4,,,65,0
8883,note_on,,,,,3,0,11,,,,,11,,,57,0
8885,note_on,,,,,5,0,9,,,,,8,,,72,0
8889,note_on,,,,,9,0,8,,,,,7,,,77,0
8899,note_on,,,,,19,0,3,,,,,2,,,70,0
8900,note_on,,,,,1,0,3,,,,,2,,,69,127
8919,note_on,,,,,19,0,3,,,,,2,,,69,0
8920,note_on,,,,,1,0,3,,,,,2,,,67,127
8936,note_on,,,,,54,0,10,,,,,10,,,67,0
8936,note_on,,,,,54,0,5,,,,,4,,,67,0
8937,note_on,,,,,57,0,4,,,,,3,,,55,0
8939,note_on,,,,,19,0,3,,,,,2,,,67,0
8940,note_on,,,,,3,0,4,,,,,3,,,53,127
8940,note_on,,,,,4,0,10,,,,,10,,,60,84
8940,note_on,,,,,1,0,3,,,,,2,,,69,127
8940,note_on,,,,,51,0,8,,,,,7,,,69,84
8940,note_on,,,,,57,0,11,,,,,11,,,53,84
8940,note_on,,,,,4,0,5,,,,,4,,,60,84
8940,note_on,,,,,55,0,9,,,,,8,,,65,84
8943,note_on,,,,,3,0,9,,,,,8,,,64,0
8943,note_on,,,,,3,0,11,,,,,11,,,55,0
8943,note_on,,,,,3,0,8,,,,,7,,,70,0
8959,note_on,,,,,19,0,3,,,,,2,,,69,0
8960,note_on,,,,,1,0,3,,,,,2,,,67,127
8979,note_on,,,,,19,0,3,,,,,2,,,67,0
8980,note_on,,,,,1,0,3,,,,,2,,,65,127
8993,note_on,,,,,50,0,9,,,,,8,,,65,0
8997,note_on,,,,,57,0,5,,,,,4,,,60,0
8997,note_on,,,,,57,0,10,,,,,10,,,60,0
8999,note_on,,,,,19,0,3,,,,,2,,,65,0
9000,note_on,,,,,3,0,5,,,,,4,,,60,84
9000,note_on,,,,,3,0,10,,,,,10,,,60,84
9000,note_on,,,,,57,0,11,,,,,11,,,60,84
9000,note_on,,,,,7,0,9,,,,,8,,,65,84
9000,note_on,,,,,57,0,8,,,,,7,,,67,84
9000,note_on,,,,,60,0,4,,,,,3,,,60,127
9000,note_on,,,,,1,0,3,,,,,2,,,67,127
9004,note_on,,,,,4,0,8,,,,,7,,,69,0
9005,note_on,,,,,5,0,4,,,,,3,,,53,0
9009,note_on,,,,,9,0,11,,,,,11,,,53,0
9054,note_on,,,,,54,0,10,,,,,10,,,60,0
9054,note_on,,,,,54,0,5,,,,,4,,,60,0
9059,note_on,,,,,59,0,3,,,,,2,,,67,0
9060,note_on,,,,,60,0,9,,,,,8,,,64,83
9060,note_on,,,,,55,0,4,,,,,3,,,60,0
9060,note_on,,,,,0,0,4,,,,,3,,,48,127
9060,note_on,,,,,6,0,10,,,,,10,,,60,83
9060,note_on,,,,,51,0,11,,,,,11,,,48,83
9060,note_on,,,,,1,0,3,,,,,2,,,72,127
9060,note_on,,,,,6,0,5,,,,,4,,,60,83
9060,note_on,,,,,56,0,8,,,,,7,,,72,83
9064,note_on,,,,,4,0,9,,,,,8,,,65,0
9066,note_on,,,,,6,0,11,,,,,11,,,60,0
9069,note_on,,,,,9,0,8,,,,,7,,,67,0
9109,note_on,,,,,49,0,10,,,,,10,,,60,0
9109,note_on,,,,,49,0,5,,,,,4,,,60,0
9117,note_on,,,,,51,0,11,,,,,11,,,48,0
9119,note_on,,,,,59,0,3,,,,,2,,,72,0
9120,note_on,,,,,60,0,4,,,,,3,,,53,127
9120,note_on,,,,,11,0,10,,,,,10,,,60,83
9120,note_on,,,,,0,0,8,,,,,7,,,69,83
9120,note_on,,,,,56,0,9,,,,,8,,,65,83
9120,note_on,,,,,11,0,5,,,,,4,,,60,83
9120,note_on,,,,,3,0,11,,,,,11,,,41,83
9120,note_on,,,,,51,0,8,,,,,7,,,72,0
9122,note_on,,,,,2,0,4,,,,,3,,,48,0
9127,note_on,,,,,7,0,9,,,,,8,,,64,0
9139,note_on,,,,,19,0,8,,,,,7,,,69,0
9140,note_on,,,,,1,0,8,,,,,7,,,67,83
9159,note_on,,,,,19,0,8,,,,,7,,,67,0
9160,note_on,,,,,1,0,8,,,,,7,,,65,83
9179,note_on,,,,,19,0,8,,,,,7,,,65,0
9180,note_on,,,,,61,0,3,,,,,2,,,81,127
9180,note_on,,,,,58,0,4,,,,,3,,,65,127
9181,note_on,,,,,1,0,4,,,,,3,,,53,0
9187,note_on,,,,,60,0,9,,,,,8,,,65,0
9209,note_on,,,,,89,0,10,,,,,10,,,60,0
9209,note_on,,,,,89,0,5,,,,,4,,,60,0
9219,note_on,,,,,99,0,11,,,,,11,,,41,0
9230,note_on,,,,,49,0,4,,,,,3,,,65,0
9239,note_on,,,,,59,0,3,,,,,2,,,81,0
9240,note_on,,,,,1,0,3,,,,,2,,,79,127
9240,note_on,,,,,10,0,4,,,,,3,,,65,127
9299,note_on,,,,,59,0,3,,,,,2,,,79,0
9300,note_on,,,,,1,0,3,,,,,2,,,84,127
9300,note_on,,,,,60,0,4,,,,,3,,,64,127
9304,note_on,,,,,4,0,4,,,,,3,,,65,0
9359,note_on,,,,,59,0,3,,,,,2,,,84,0
9360,note_on,,,,,151,0,5,,,,,4,,,62,81
9360,note_on,,,,,141,0,11,,,,,11,,,62,81
9360,note_on,,,,,181,0,8,,,,,7,,,77,81
9360,note_on,,,,,151,0,10,,,,,10,,,62,81
9360,note_on,,,,,173,0,9,,,,,8,,,69,81
9365,note_on,,,,,61,0,4,,,,,3,,,64,0
9380,note_on,,,,,20,0,8,,,,,7,,,76,81
9380,note_on,,,,,20,0,9,,,,,8,,,67,81
9381,note_on,,,,,1,0,8,,,,,7,,,77,0
9384,note_on,,,,,4,0,9,,,,,8,,,69,0
9399,note_on,,,,,15,0,9,,,,,8,,,67,0
9399,note_on,,,,,18,0,8,,,,,7,,,76,0
9400,note_on,,,,,1,0,8,,,,,7,,,74,81
9400,note_on,,,,,1,0,9,,,,,8,,,65,81
9420,note_on,,,,,61,0,3,,,,,2,,,77,127
9420,note_on,,,,,55,0,4,,,,,3,,,62,127
9421,note_on,,,,,21,0,8,,,,,7,,,74,0
9433,note_on,,,,,33,0,9,,,,,8,,,65,0
9456,note_on,,,,,96,0,5,,,,,4,,,62,0
9456,note_on,,,,,96,0,10,,,,,10,,,62,0
9470,note_on,,,,,110,0,11,,,,,11,,,62,0
9472,note_on,,,,,52,0,4,,,,,3,,,62,0
9479,note_on,,,,,59,0,3,,,,,2,,,77,0
9480,note_on,,,,,1,0,3,,,,,2,,,76,127
9480,note_on,,,,,8,0,4,,,,,3,,,62,127
9539,note_on,,,,,59,0,3,,,,,2,,,76,0
9540,note_on,,,,,0,0,4,,,,,3,,,60,127
9540,note_on,,,,,60,0,4,,,,,3,,,62,0
9540,note_on,,,,,1,0,3,,,,,2,,,81,127
9599,note_on,,,,,59,0,4,,,,,3,,,60,0
9599,note_on,,,,,59,0,3,,,,,2,,,81,0
9600,note_on,,,,,179,0,8,,,,,7,,,86,79
9600,note_on,,,,,144,0,5,,,,,4,,,65,79
9600,note_on,,,,,167,0,9,,,,,8,,,77,79
9600,note_on,,,,,130,0,11,,,,,11,,,58,79
9600,note_on,,,,,144,0,10,,,,,10,,,65,79
9618,note_on,,,,,18,0,8,,,,,7,,,86,0
9620,note_on,,,,,20,0,9,,,,,8,,,76,79
9620,note_on,,,,,2,0,8,,,,,7,,,84,79
9624,note_on,,,,,4,0,9,,,,,8,,,77,0
9636,note_on,,,,,12,0,9,,,,,8,,,76,0
9639,note_on,,,,,19,0,8,,,,,7,,,84,0
9640,note_on,,,,,1,0,8,,,,,7,,,82,79
9640,note_on,,,,,4,0,9,,,,,8,,,74,79
9660,note_on,,,,,61,0,3,,,,,2,,,74,127
9660,note_on,,,,,61,0,4,,,,,3,,,58,127
9662,note_on,,,,,22,0,8,,,,,7,,,82,0
9669,note_on,,,,,29,0,9,,,,,8,,,74,0
9677,note_on,,,,,77,0,10,,,,,10,,,65,0
9677,note_on,,,,,77,0,5,,,,,4,,,65,0
9686,note_on,,,,,86,0,11,,,,,11,,,58,0
9715,note_on,,,,,55,0,4,,,,,3,,,58,0
9719,note_on,,,,,59,0,3,,,,,2,,,74,0
9720,note_on,,,,,1,0,3,,,,,2,,,72,127
9720,note_on,,,,,5,0,4,,,,,3,,,58,127
9779,note_on,,,,,59,0,3,,,,,2,,,72,0
9780,note_on,,,,,60,0,4,,,,,3,,,57,127
9780,note_on,,,,,1,0,3,,,,,2,,,77,127
9781,note_on,,,,,1,0,4,,,,,3,,,58,0
9839,note_on,,,,,59,0,3,,,,,2,,,77,0
9840,note_on,,,,,163,0,5,,,,,4,,,67,77
9840,note_on,,,,,59,0,4,,,,,3,,,55,127
9840,note_on,,,,,178,0,8,,,,,7,,,70,77
9840,note_on,,,,,163,0,10,,,,,10,,,67,77
9840,note_on,,,,,154,0,11,,,,,11,,,55,77
9843,note_on,,,,,3,0,4,,,,,3,,,57,0
9859,note_on,,,,,19,0,8,,,,,7,,,70,0
9860,note_on,,,,,1,0,8,,,,,7,,,69,77
9879,note_on,,,,,19,0,8,,,,,7,,,69,0
9880,note_on,,,,,1,0,8,,,,,7,,,67,77
9899,note_on,,,,,19,0,8,,,,,7,,,67,0
9900,note_on,,,,,60,0,5,,,,,4,,,60,77
9900,note_on,,,,,57,0,4,,,,,3,,,53,127
9900,note_on,,,,,60,0,10,,,,,10,,,60,77
9900,note_on,,,,,60,0,11,,,,,11,,,53,77
9900,note_on,,,,,1,0,8,,,,,7,,,69,77
9903,note_on,,,,,3,0,5,,,,,4,,,67,0
9903,note_on,,,,,3,0,10,,,,,10,,,67,0
9903,note_on,,,,,3,0,11,,,,,11,,,55,0
9904,note_on,,,,,4,0,4,,,,,3,,,55,0
9919,note_on,,,,,19,0,8,,,,,7,,,69,0
9920,note_on,,,,,1,0,8,,,,,7,,,67,77
9939,note_on,,,,,19,0,8,,,,,7,,,67,0
9940,note_on,,,,,1,0,8,,,,,7,,,65,77
9945,note_on,,,,,42,0,10,,,,,10,,,60,0
9945,note_on,,,,,42,0,5,,,,,4,,,60,0
9959,note_on,,,,,19,0,8,,,,,7,,,65,0
9960,note_on,,,,,57,0,11,,,,,11,,,60,76
9960,note_on,,,,,15,0,10,,,,,10,,,60,76
9960,note_on,,,,,56,0,4,,,,,3,,,53,0
9960,note_on,,,,,15,0,5,,,,,4,,,60,76
9960,note_on,,,,,0,0,4,,,,,3,,,60,127
9960,note_on,,,,,1,0,8,,,,,7,,,67,76
9966,note_on,,,,,6,0,11,,,,,11,,,53,0
10014,note_on,,,,,54,0,5,,,,,4,,,60,0
10014,note_on,,,,,54,0,10,,,,,10,,,60,0
10016,note_on,,,,,56,0,8,,,,,7,,,67,0
10020,note_on,,,,,4,0,8,,,,,7,,,72,76
10020,note_on,,,,,60,0,4,,,,,3,,,48,127
10020,note_on,,,,,0,0,11,,,,,11,,,48,76
10020,note_on,,,,,6,0,10,,,,,10,,,60,76
10020,note_on,,,,,6,0,5,,,,,4,,,60,76
10020,note_on,,,,,54,0,11,,,,,11,,,60,0
10028,note_on,,,,,8,0,4,,,,,3,,,60,0
10072,note_on,,,,,52,0,10,,,,,10,,,60,0
10072,note_on,,,,,52,0,5,,,,,4,,,60,0
10080,note_on,,,,,52,0,4,,,,,3,,,53,127
10080,note_on,,,,,60,0,11,,,,,11,,,53,75
10080,note_on,,,,,8,0,10,,,,,10,,,60,75
10080,note_on,,,,,60,0,8,,,,,7,,,69,75
10080,note_on,,,,,8,0,5,,,,,4,,,60,75
10083,note_on,,,,,3,0,8,,,,,7,,,72,0
10085,note_on,,,,,5,0,4,,,,,3,,,48,0
10092,note_on,,,,,12,0,11,,,,,11,,,48,0
10178,note_on,,,,,339,0,3,,,,,2,,,69,127
10178,note_on,,,,,93,0,4,,,,,3,,,53,0
10199,note_on,,,,,21,0,3,,,,,2,,,74,127
10200,note_on,,,,,22,0,4,,,,,3,,,50,127
10201,note_on,,,,,2,0,3,,,,,2,,,69,0
10203,note_on,,,,,120,0,8,,,,,7,,,69,0
10205,note_on,,,,,113,0,11,,,,,11,,,53,0
10206,note_on,,,,,126,0,5,,,,,4,,,60,0
10206,note_on,,,,,126,0,10,,,,,10,,,60,0
10222,note_on,,,,,0,0,3,,,,,2,,,69,127
10222,note_on,,,,,21,0,3,,,,,2,,,74,0
10237,note_on,,,,,15,0,3,,,,,2,,,74,127
10241,note_on,,,,,4,0,3,,,,,2,,,69,0
10248,note_on,,,,,7,0,3,,,,,2,,,74,0
10256,note_on,,,,,8,0,3,,,,,2,,,76,127
10260,note_on,,,,,60,0,4,,,,,3,,,62,127
10261,note_on,,,,,5,0,3,,,,,2,,,74,127
10262,note_on,,,,,2,0,4,,,,,3,,,50,0
10265,note_on,,,,,4,0,3,,,,,2,,,76,0
10280,note_on,,,,,15,0,3,,,,,2,,,73,127
10282,note_on,,,,,2,0,3,,,,,2,,,74,0
10297,note_on,,,,,15,0,3,,,,,2,,,74,127
10301,note_on,,,,,4,0,3,,,,,2,,,73,0
10314,note_on,,,,,52,0,4,,,,,3,,,62,0
10317,note_on,,,,,16,0,3,,,,,2,,,76,127
10318,note_on,,,,,1,0,3,,,,,2,,,74,0
10320,note_on,,,,,6,0,4,,,,,3,,,62,127
10338,note_on,,,,,20,0,3,,,,,2,,,76,0
10339,note_on,,,,,1,0,3,,,,,2,,,69,127
10356,note_on,,,,,17,0,3,,,,,2,,,76,127
10359,note_on,,,,,3,0,3,,,,,2,,,69,0
10365,note_on,,,,,6,0,3,,,,,2,,,76,0
10373,note_on,,,,,8,0,3,,,,,2,,,77,127
10378,note_on,,,,,5,0,3,,,,,2,,,76,127
10380,note_on,,,,,60,0,4,,,,,3,,,62,0
10380,note_on,,,,,0,0,4,,,,,3,,,61,127
10382,note_on,,,,,4,0,3,,,,,2,,,77,0
10402,note_on,,,,,20,0,3,,,,,2,,,74,127
10403,note_on,,,,,1,0,3,,,,,2,,,76,0
10419,note_on,,,,,16,0,3,,,,,2,,,76,127
10423,note_on,,,,,4,0,3,,,,,2,,,74,0
10440,note_on,,,,,60,0,4,,,,,3,,,62,127
10440,note_on,,,,,17,0,3,,,,,2,,,77,127
10441,note_on,,,,,1,0,3,,,,,2,,,76,0
10442,note_on,,,,,2,0,4,,,,,3,,,61,0
10460,note_on,,,,,19,0,3,,,,,2,,,79,127
10466,note_on,,,,,6,0,3,,,,,2,,,77,0
10480,note_on,,,,,14,0,3,,,,,2,,,77,127
10483,note_on,,,,,3,0,3,,,,,2,,,79,0
10500,note_on,,,,,17,0,3,,,,,2,,,76,127
10500,note_on,,,,,58,0,4,,,,,3,,,55,127
10502,note_on,,,,,2,0,3,,,,,2,,,77,0
10504,note_on,,,,,4,0,4,,,,,3,,,62,0
10520,note_on,,,,,18,0,3,,,,,2,,,77,127
10524,note_on,,,,,4,0,3,,,,,2,,,76,0
10540,note_on,,,,,16,0,3,,,,,2,,,74,127
10542,note_on,,,,,2,0,3,,,,,2,,,77,0
10556,note_on,,,,,52,0,4,,,,,3,,,55,0
10560,note_on,,,,,18,0,3,,,,,2,,,73,127
10560,note_on,,,,,4,0,4,,,,,3,,,57,127
10561,note_on,,,,,1,0,3,,,,,2,,,74,0
10580,note_on,,,,,19,0,3,,,,,2,,,74,127
10581,note_on,,,,,1,0,3,,,,,2,,,73,0
10600,note_on,,,,,19,0,3,,,,,2,,,76,127
10604,note_on,,,,,4,0,3,,,,,2,,,74,0
10619,note_on,,,,,15,0,3,,,,,2,,,76,0
10620,note_on,,,,,60,0,4,,,,,3,,,61,127
10620,note_on,,,,,1,0,3,,,,,2,,,69,127
10630,note_on,,,,,10,0,4,,,,,3,,,57,0
10640,note_on,,,,,20,0,3,,,,,2,,,81,127
10642,note_on,,,,,2,0,3,,,,,2,,,69,0
10660,note_on,,,,,18,0,3,,,,,2,,,79,127
10663,note_on,,,,,3,0,3,,,,,2,,,81,0
10679,note_on,,,,,16,0,3,,,,,2,,,79,0
10680,note_on,,,,,1,0,3,,,,,2,,,77,127
10680,note_on,,,,,50,0,4,,,,,3,,,62,127
10683,note_on,,,,,3,0,4,,,,,3,,,61,0
10700,note_on,,,,,20,0,3,,,,,2,,,79,127
10704,note_on,,,,,4,0,3,,,,,2,,,77,0
10720,note_on,,,,,16,0,3,,,,,2,,,81,127
10727,note_on,,,,,7,0,3,,,,,2,,,79,0
10737,note_on,,,,,54,0,4,,,,,3,,,62,0
10738,note_on,,,,,11,0,3,,,,,2,,,81,0
10740,note_on,,,,,3,0,4,,,,,3,,,53,127
10740,note_on,,,,,2,0,3,,,,,2,,,74,127
10760,note_on,,,,,20,0,3,,,,,2,,,86,127
10765,note_on,,,,,5,0,3,,,,,2,,,74,0
10780,note_on,,,,,15,0,3,,,,,2,,,84,127
10781,note_on,,,,,1,0,3,,,,,2,,,86,0
10795,note_on,,,,,55,0,4,,,,,3,,,53,0
10800,note_on,,,,,19,0,3,,,,,2,,,82,127
10800,note_on,,,,,5,0,4,,,,,3,,,55,127
10802,note_on,,,,,2,0,3,,,,,2,,,84,0
10820,note_on,,,,,18,0,3,,,,,2,,,84,127
10825,note_on,,,,,5,0,3,,,,,2,,,82,0
10840,note_on,,,,,15,0,3,,,,,2,,,86,127
10842,note_on,,,,,2,0,3,,,,,2,,,84,0
10860,note_on,,,,,60,0,4,,,,,3,,,58,127
10860,note_on,,,,,18,0,3,,,,,2,,,79,127
10861,note_on,,,,,1,0,4,,,,,3,,,55,0
10863,note_on,,,,,3,0,3,,,,,2,,,86,0
10880,note_on,,,,,17,0,3,,,,,2,,,81,127
10883,note_on,,,,,3,0,3,,,,,2,,,79,0
10900,note_on,,,,,17,0,3,,,,,2,,,82,127
10903,note_on,,,,,3,0,3,,,,,2,,,81,0
10920,note_on,,,,,17,0,3,,,,,2,,,76,127
10920,note_on,,,,,59,0,4,,,,,3,,,58,0
10920,note_on,,,,,0,0,4,,,,,3,,,60,127
10922,note_on,,,,,2,0,3,,,,,2,,,82,0
10940,note_on,,,,,18,0,3,,,,,2,,,77,127
10945,note_on,,,,,5,0,3,,,,,2,,,76,0
10960,note_on,,,,,15,0,3,,,,,2,,,79,127
10963,note_on,,,,,3,0,3,,,,,2,,,77,0
10980,note_on,,,,,60,0,4,,,,,3,,,52,127
10980,note_on,,,,,17,0,3,,,,,2,,,72,127
10982,note_on,,,,,2,0,3,,,,,2,,,79,0
10984,note_on,,,,,4,0,4,,,,,3,,,60,0
11000,note_on,,,,,18,0,3,,,,,2,,,84,127
11002,note_on,,,,,2,0,3,,,,,2,,,72,0
11020,note_on,,,,,18,0,3,,,,,2,,,82,127
11022,note_on,,,,,2,0,3,,,,,2,,,84,0
11039,note_on,,,,,17,0,3,,,,,2,,,82,0
11040,note_on,,,,,1,0,3,,,,,2,,,81,127
11040,note_on,,,,,56,0,4,,,,,3,,,53,127
11047,note_on,,,,,7,0,4,,,,,3,,,52,0
11060,note_on,,,,,20,0,3,,,,,2,,,82,127
11066,note_on,,,,,6,0,3,,,,,2,,,81,0
11080,note_on,,,,,14,0,3,,,,,2,,,84,127
11081,note_on,,,,,1,0,3,,,,,2,,,82,0
11100,note_on,,,,,19,0,3,,,,,2,,,77,127
11100,note_on,,,,,53,0,4,,,,,3,,,57,127
11105,note_on,,,,,5,0,3,,,,,2,,,84,0
11105,note_on,,,,,5,0,4,,,,,3,,,53,0
11120,note_on,,,,,15,0,3,,,,,2,,,79,127
11122,note_on,,,,,2,0,3,,,,,2,,,77,0
11140,note_on,,,,,18,0,3,,,,,2,,,81,127
11145,note_on,,,,,5,0,3,,,,,2,,,79,0
11158,note_on,,,,,13,0,3,,,,,2,,,81,0
11160,note_on,,,,,55,0,4,,,,,3,,,58,127
11160,note_on,,,,,2,0,3,,,,,2,,,74,127
11162,note_on,,,,,2,0,4,,,,,3,,,57,0
11180,note_on,,,,,20,0,3,,,,,2,,,76,127
11186,note_on,,,,,6,0,3,,,,,2,,,74,0
11199,note_on,,,,,13,0,3,,,,,2,,,76,0
11200,note_on,,,,,1,0,3,,,,,2,,,77,127
11219,note_on,,,,,19,0,3,,,,,2,,,77,0
11220,note_on,,,,,1,0,3,,,,,2,,,70,127
11220,note_on,,,,,58,0,4,,,,,3,,,50,127
11226,note_on,,,,,6,0,4,,,,,3,,,58,0
11240,note_on,,,,,20,0,3,,,,,2,,,82,127
11241,note_on,,,,,1,0,3,,,,,2,,,70,0
11260,note_on,,,,,19,0,3,,,,,2,,,81,127
11263,note_on,,,,,3,0,3,,,,,2,,,82,0
11280,note_on,,,,,17,0,3,,,,,2,,,79,127
11280,note_on,,,,,54,0,4,,,,,3,,,52,127
11283,note_on,,,,,3,0,4,,,,,3,,,50,0
11283,note_on,,,,,3,0,3,,,,,2,,,81,0
11300,note_on,,,,,17,0,3,,,,,2,,,81,127
11303,note_on,,,,,3,0,3,,,,,2,,,79,0
11320,note_on,,,,,17,0,3,,,,,2,,,82,127
11326,note_on,,,,,6,0,3,,,,,2,,,81,0
11338,note_on,,,,,12,0,3,,,,,2,,,82,0
11340,note_on,,,,,2,0,3,,,,,2,,,76,127
11340,note_on,,,,,57,0,4,,,,,3,,,55,127
11342,note_on,,,,,2,0,4,,,,,3,,,52,0
11360,note_on,,,,,20,0,3,,,,,2,,,77,127
11366,note_on,,,,,6,0,3,,,,,2,,,76,0
11378,note_on,,,,,12,0,3,,,,,2,,,77,0
11380,note_on,,,,,2,0,3,,,,,2,,,79,127
11400,note_on,,,,,58,0,4,,,,,3,,,57,127
11400,note_on,,,,,20,0,3,,,,,2,,,73,127
11403,note_on,,,,,3,0,4,,,,,3,,,55,0
11404,note_on,,,,,4,0,3,,,,,2,,,79,0
11420,note_on,,,,,16,0,3,,,,,2,,,74,127
11421,note_on,,,,,1,0,3,,,,,2,,,73,0
11440,note_on,,,,,19,0,3,,,,,2,,,76,127
11441,note_on,,,,,1,0,3,,,,,2,,,74,0
11460,note_on,,,,,19,0,3,,,,,2,,,69,127
11460,note_on,,,,,57,0,4,,,,,3,,,61,127
11463,note_on,,,,,3,0,3,,,,,2,,,76,0
11469,note_on,,,,,9,0,4,,,,,3,,,57,0
11480,note_on,,,,,17,0,3,,,,,2,,,69,0
11480,note_on,,,,,0,0,3,,,,,2,,,81,127
11500,note_on,,,,,20,0,3,,,,,2,,,79,127
11502,note_on,,,,,2,0,3,,,,,2,,,81,0
11520,note_on,,,,,18,0,3,,,,,2,,,77,127
11520,note_on,,,,,51,0,4,,,,,3,,,62,127
11525,note_on,,,,,5,0,4,,,,,3,,,61,0
11525,note_on,,,,,5,0,3,,,,,2,,,79,0
11540,note_on,,,,,15,0,3,,,,,2,,,76,127
11541,note_on,,,,,1,0,3,,,,,2,,,77,0
11559,note_on,,,,,18,0,3,,,,,2,,,76,0
11560,note_on,,,,,1,0,3,,,,,2,,,74,127
11580,note_on,,,,,1377,0,8,,,,,7,,,77,89
11580,note_on,,,,,1374,0,5,,,,,4,,,62,89
11580,note_on,,,,,1911,0,9,,,,,8,,,74,89
11580,note_on,,,,,1375,0,11,,,,,11,,,62,89
11580,note_on,,,,,1374,0,10,,,,,10,,,69,89
11589,note_on,,,,,29,0,3,,,,,2,,,74,0
11606,note_on,,,,,81,0,4,,,,,3,,,62,0
11634,note_on,,,,,54,0,5,,,,,4,,,62,0
11634,note_on,,,,,54,0,11,,,,,11,,,62,0
11634,note_on,,,,,54,0,10,,,,,10,,,69,0
11640,note_on,,,,,60,0,9,,,,,8,,,69,88
11640,note_on,,,,,6,0,5,,,,,4,,,62,88
11640,note_on,,,,,6,0,11,,,,,11,,,62,88
11640,note_on,,,,,6,0,10,,,,,10,,,69,88
11640,note_on,,,,,60,0,8,,,,,7,,,76,88
11641,note_on,,,,,1,0,9,,,,,8,,,74,0
11646,note_on,,,,,6,0,8,,,,,7,,,77,0
11695,note_on,,,,,55,0,10,,,,,10,,,69,0
11700,note_on,,,,,59,0,9,,,,,8,,,76,87
11700,note_on,,,,,5,0,10,,,,,10,,,69,87
11700,note_on,,,,,54,0,8,,,,,7,,,81,87
11700,note_on,,,,,60,0,11,,,,,11,,,60,87
11700,note_on,,,,,60,0,5,,,,,4,,,60,87
11702,note_on,,,,,2,0,9,,,,,8,,,69,0
11706,note_on,,,,,6,0,8,,,,,7,,,76,0
11707,note_on,,,,,7,0,5,,,,,4,,,62,0
11707,note_on,,,,,7,0,11,,,,,11,,,62,0
11754,note_on,,,,,48,0,8,,,,,7,,,81,0
11759,note_on,,,,,57,0,9,,,,,8,,,76,0
11760,note_on,,,,,171,0,3,,,,,2,,,86,127
11760,note_on,,,,,154,0,4,,,,,3,,,70,127
11763,note_on,,,,,56,0,5,,,,,4,,,60,0
11763,note_on,,,,,56,0,11,,,,,11,,,60,0
11780,note_on,,,,,80,0,10,,,,,10,,,69,0
11780,note_on,,,,,20,0,3,,,,,2,,,84,127
11780,note_on,,,,,20,0,4,,,,,3,,,72,127
11784,note_on,,,,,4,0,4,,,,,3,,,70,0
11787,note_on,,,,,7,0,3,,,,,2,,,86,0
11800,note_on,,,,,16,0,4,,,,,3,,,74,127
11800,note_on,,,,,13,0,3,,,,,2,,,82,127
11803,note_on,,,,,3,0,4,,,,,3,,,72,0
11803,note_on,,,,,3,0,3,,,,,2,,,84,0
11820,note_on,,,,,57,0,5,,,,,4,,,58,84
11820,note_on,,,,,61,0,9,,,,,8,,,74,84
11820,note_on,,,,,57,0,11,,,,,11,,,58,84
11820,note_on,,,,,40,0,10,,,,,10,,,65,84
11820,note_on,,,,,66,0,8,,,,,7,,,74,84
11830,note_on,,,,,27,0,4,,,,,3,,,74,0
11844,note_on,,,,,41,0,3,,,,,2,,,82,0
11875,note_on,,,,,55,0,5,,,,,4,,,58,0
11875,note_on,,,,,55,0,11,,,,,11,,,58,0
11876,note_on,,,,,56,0,10,,,,,10,,,65,0
11880,note_on,,,,,4,0,10,,,,,10,,,65,83
11880,note_on,,,,,5,0,5,,,,,4,,,58,83
11880,note_on,,,,,60,0,9,,,,,8,,,65,83
11880,note_on,,,,,60,0,8,,,,,7,,,72,83
11880,note_on,,,,,5,0,11,,,,,11,,,58,83
11884,note_on,,,,,4,0,9,,,,,8,,,74,0
11887,note_on,,,,,7,0,8,,,,,7,,,74,0
11933,note_on,,,,,53,0,10,,,,,10,,,65,0
11940,note_on,,,,,60,0,11,,,,,11,,,57,82
11940,note_on,,,,,60,0,5,,,,,4,,,57,82
11940,note_on,,,,,56,0,9,,,,,8,,,72,82
11940,note_on,,,,,7,0,10,,,,,10,,,65,82
11940,note_on,,,,,53,0,8,,,,,7,,,77,82
11944,note_on,,,,,4,0,11,,,,,11,,,58,0
11944,note_on,,,,,4,0,5,,,,,4,,,58,0
11947,note_on,,,,,7,0,8,,,,,7,,,72,0
11949,note_on,,,,,9,0,9,,,,,8,,,65,0
11994,note_on,,,,,54,0,10,,,,,10,,,65,0
11996,note_on,,,,,49,0,8,,,,,7,,,77,0
12000,note_on,,,,,51,0,9,,,,,8,,,72,0
12000,note_on,,,,,170,0,4,,,,,3,,,67,127
12000,note_on,,,,,156,0,3,,,,,2,,,82,127
12002,note_on,,,,,58,0,11,,,,,11,,,57,0
12002,note_on,,,,,58,0,5,,,,,4,,,57,0
12020,note_on,,,,,20,0,3,,,,,2,,,81,127
12020,note_on,,,,,20,0,4,,,,,3,,,69,127
12027,note_on,,,,,7,0,3,,,,,2,,,82,0
12027,note_on,,,,,7,0,4,,,,,3,,,67,0
12040,note_on,,,,,13,0,3,,,,,2,,,79,127
12040,note_on,,,,,13,0,4,,,,,3,,,70,127
12041,note_on,,,,,1,0,4,,,,,3,,,69,0
12043,note_on,,,,,3,0,3,,,,,2,,,81,0
12060,note_on,,,,,58,0,5,,,,,4,,,55,79
12060,note_on,,,,,64,0,8,,,,,7,,,70,79
12060,note_on,,,,,58,0,11,,,,,11,,,55,79
12060,note_on,,,,,66,0,10,,,,,10,,,62,79
12060,note_on,,,,,60,0,9,,,,,8,,,67,79
12070,note_on,,,,,29,0,4,,,,,3,,,70,0
12073,note_on,,,,,30,0,3,,,,,2,,,79,0
12119,note_on,,,,,59,0,11,,,,,11,,,55,0
12119,note_on,,,,,59,0,5,,,,,4,,,55,0
12120,note_on,,,,,1,0,11,,,,,11,,,55,78
12120,note_on,,,,,0,0,10,,,,,10,,,62,78
12120,note_on,,,,,60,0,10,,,,,10,,,62,0
12120,note_on,,,,,60,0,8,,,,,7,,,69,78
12120,note_on,,,,,1,0,5,,,,,4,,,55,78
12120,note_on,,,,,60,0,9,,,,,8,,,62,78
12122,note_on,,,,,2,0,8,,,,,7,,,70,0
12123,note_on,,,,,3,0,9,,,,,8,,,67,0
12178,note_on,,,,,58,0,10,,,,,10,,,62,0
12179,note_on,,,,,59,0,5,,,,,4,,,55,0
12179,note_on,,,,,59,0,11,,,,,11,,,55,0
12180,note_on,,,,,58,0,8,,,,,7,,,74,77
12180,note_on,,,,,1,0,5,,,,,4,,,53,77
12180,note_on,,,,,2,0,10,,,,,10,,,62,77
12180,note_on,,,,,57,0,9,,,,,8,,,69,77
12180,note_on,,,,,1,0,11,,,,,11,,,53,77
12184,note_on,,,,,4,0,9,,,,,8,,,62,0
12187,note_on,,,,,7,0,8,,,,,7,,,69,0
12240,note_on,,,,,60,0,5,,,,,4,,,52,75
12240,note_on,,,,,60,0,11,,,,,11,,,52,75
12240,note_on,,,,,0,0,4,,,,,3,,,52,127
12240,note_on,,,,,53,0,8,,,,,7,,,73,75
12240,note_on,,,,,170,0,4,,,,,3,,,61,127
12240,note_on,,,,,60,0,10,,,,,10,,,64,75
12240,note_on,,,,,56,0,9,,,,,8,,,67,75
12240,note_on,,,,,167,0,3,,,,,2,,,79,127
12244,note_on,,,,,4,0,9,,,,,8,,,69,0
12245,note_on,,,,,5,0,10,,,,,10,,,62,0
12246,note_on,,,,,6,0,8,,,,,7,,,74,0
12248,note_on,,,,,8,0,11,,,,,11,,,53,0
12248,note_on,,,,,8,0,5,,,,,4,,,53,0
12260,note_on,,,,,20,0,3,,,,,2,,,77,127
12265,note_on,,,,,5,0,3,,,,,2,,,79,0
12280,note_on,,,,,15,0,3,,,,,2,,,76,127
12281,note_on,,,,,1,0,3,,,,,2,,,77,0
12290,note_on,,,,,50,0,4,,,,,3,,,61,0
12291,note_on,,,,,1,0,4,,,,,3,,,52,0
12300,note_on,,,,,52,0,5,,,,,4,,,50,64
12300,note_on,,,,,19,0,3,,,,,2,,,77,127
12300,note_on,,,,,0,0,4,,,,,3,,,62,127
12300,note_on,,,,,55,0,10,,,,,10,,,65,64
12300,note_on,,,,,54,0,8,,,,,7,,,74,64
12300,note_on,,,,,56,0,9,,,,,8,,,69,64
12300,note_on,,,,,9,0,4,,,,,3,,,50,127
12300,note_on,,,,,52,0,11,,,,,11,,,50,64
12302,note_on,,,,,2,0,3,,,,,2,,,76,0
12302,note_on,,,,,2,0,9,,,,,8,,,67,0
12303,note_on,,,,,3,0,5,,,,,4,,,52,0
12303,note_on,,,,,3,0,11,,,,,11,,,52,0
12304,note_on,,,,,4,0,10,,,,,10,,,64,0
12305,note_on,,,,,5,0,8,,,,,7,,,73,0
12320,note_on,,,,,18,0,3,,,,,2,,,76,127
12326,note_on,,,,,6,0,3,,,,,2,,,77,0
12336,note_on,,,,,10,0,3,,,,,2,,,76,0
12340,note_on,,,,,4,0,3,,,,,2,,,74,127
12349,note_on,,,,,47,0,9,,,,,8,,,69,0
12353,note_on,,,,,48,0,8,,,,,7,,,74,0
12356,note_on,,,,,56,0,4,,,,,3,,,50,0
12359,note_on,,,,,3,0,4,,,,,3,,,62,0
12360,note_on,,,,,1,0,4,,,,,3,,,55,127
12360,note_on,,,,,0,0,3,,,,,2,,,82,127
12360,note_on,,,,,56,0,10,,,,,10,,,65,0
12360,note_on,,,,,20,0,3,,,,,2,,,74,0
12368,note_on,,,,,65,0,5,,,,,4,,,50,0
12368,note_on,,,,,65,0,11,,,,,11,,,50,0
12380,note_on,,,,,20,0,3,,,,,2,,,81,127
12384,note_on,,,,,4,0,3,,,,,2,,,82,0
12400,note_on,,,,,16,0,3,,,,,2,,,79,127
12404,note_on,,,,,4,0,3,,,,,2,,,81,0
12420,note_on,,,,,60,0,4,,,,,3,,,58,127
12420,note_on,,,,,16,0,3,,,,,2,,,79,0
12420,note_on,,,,,0,0,3,,,,,2,,,77,127
12425,note_on,,,,,5,0,4,,,,,3,,,55,0
12440,note_on,,,,,20,0,3,,,,,2,,,76,127
12441,note_on,,,,,1,0,3,,,,,2,,,77,0
12460,note_on,,,,,19,0,3,,,,,2,,,74,127
12462,note_on,,,,,2,0,3,,,,,2,,,76,0
12480,note_on,,,,,0,0,4,,,,,3,,,57,127
12480,note_on,,,,,55,0,4,,,,,3,,,58,0
12480,note_on,,,,,18,0,3,,,,,2,,,73,127
12481,note_on,,,,,1,0,3,,,,,2,,,74,0
12500,note_on,,,,,19,0,3,,,,,2,,,71,127
12504,note_on,,,,,4,0,3,,,,,2,,,73,0
12517,note_on,,,,,13,0,3,,,,,2,,,71,0
12520,note_on,,,,,3,0,3,,,,,2,,,69,127
12540,note_on,,,,,20,0,3,,,,,2,,,74,127
12540,note_on,,,,,60,0,4,,,,,3,,,53,127
12545,note_on,,,,,5,0,3,,,,,2,,,69,0
12545,note_on,,,,,5,0,4,,,,,3,,,57,0
12560,note_on,,,,,15,0,3,,,,,2,,,77,127
12564,note_on,,,,,4,0,3,,,,,2,,,74,0
12580,note_on,,,,,16,0,3,,,,,2,,,76,127
12585,note_on,,,,,5,0,3,,,,,2,,,77,0
12600,note_on,,,,,55,0,4,,,,,3,,,55,127
12600,note_on,,,,,15,0,3,,,,,2,,,74,127
12604,note_on,,,,,4,0,3,,,,,2,,,76,0
12607,note_on,,,,,7,0,4,,,,,3,,,53,0
12620,note_on,,,,,16,0,3,,,,,2,,,77,127
12625,note_on,,,,,5,0,3,,,,,2,,,74,0
12640,note_on,,,,,15,0,3,,,,,2,,,76,127
12644,note_on,,,,,4,0,3,,,,,2,,,77,0
12660,note_on,,,,,16,0,3,,,,,2,,,74,127
12660,note_on,,,,,53,0,4,,,,,3,,,57,127
12661,note_on,,,,,1,0,3,,,,,2,,,76,0
12667,note_on,,,,,7,0,4,,,,,3,,,55,0
12680,note_on,,,,,19,0,3,,,,,2,,,77,127
12685,note_on,,,,,5,0,3,,,,,2,,,74,0
12700,note_on,,,,,15,0,3,,,,,2,,,76,127
12705,note_on,,,,,5,0,3,,,,,2,,,77,0
12720,note_on,,,,,53,0,4,,,,,3,,,58,127
12720,note_on,,,,,15,0,3,,,,,2,,,74,127
12724,note_on,,,,,4,0,4,,,,,3,,,57,0
12724,note_on,,,,,4,0,3,,,,,2,,,76,0
12740,note_on,,,,,16,0,3,,,,,2,,,65,127
12742,note_on,,,,,2,0,3,,,,,2,,,74,0
12760,note_on,,,,,18,0,3,,,,,2,,,64,127
12765,note_on,,,,,5,0,3,,,,,2,,,65,0
12769,note_on,,,,,45,0,4,,,,,3,,,58,0
12780,note_on,,,,,11,0,4,,,,,3,,,53,127
12780,note_on,,,,,15,0,3,,,,,2,,,62,127
12784,note_on,,,,,4,0,3,,,,,2,,,64,0
12800,note_on,,,,,16,0,3,,,,,2,,,65,127
12803,note_on,,,,,3,0,3,,,,,2,,,62,0
12820,note_on,,,,,17,0,3,,,,,2,,,64,127
12826,note_on,,,,,6,0,3,,,,,2,,,65,0
12836,note_on,,,,,56,0,4,,,,,3,,,53,0
12840,note_on,,,,,14,0,3,,,,,2,,,64,0
12840,note_on,,,,,4,0,4,,,,,3,,,55,127
12840,note_on,,,,,0,0,3,,,,,2,,,62,127
12860,note_on,,,,,20,0,3,,,,,2,,,65,127
12862,note_on,,,,,2,0,3,,,,,2,,,62,0
12880,note_on,,,,,18,0,3,,,,,2,,,64,127
12885,note_on,,,,,5,0,3,,,,,2,,,65,0
12900,note_on,,,,,60,0,4,,,,,3,,,57,127
12900,note_on,,,,,15,0,3,,,,,2,,,62,127
12902,note_on,,,,,2,0,3,,,,,2,,,64,0
12908,note_on,,,,,8,0,4,,,,,3,,,55,0
12920,note_on,,,,,18,0,3,,,,,2,,,65,127
12925,note_on,,,,,5,0,3,,,,,2,,,62,0
12940,note_on,,,,,15,0,3,,,,,2,,,64,127
12944,note_on,,,,,4,0,3,,,,,2,,,65,0
12960,note_on,,,,,0,0,3,,,,,2,,,62,127
12960,note_on,,,,,52,0,4,,,,,3,,,58,127
12960,note_on,,,,,16,0,3,,,,,2,,,64,0
12962,note_on,,,,,2,0,4,,,,,3,,,57,0
12980,note_on,,,,,20,0,3,,,,,2,,,79,127
12986,note_on,,,,,6,0,3,,,,,2,,,62,0
13000,note_on,,,,,14,0,3,,,,,2,,,77,127
13005,note_on,,,,,5,0,3,,,,,2,,,79,0
13020,note_on,,,,,58,0,4,,,,,3,,,55,127
13020,note_on,,,,,15,0,3,,,,,2,,,75,127
13022,note_on,,,,,2,0,3,,,,,2,,,77,0
13027,note_on,,,,,7,0,4,,,,,3,,,58,0
13040,note_on,,,,,18,0,3,,,,,2,,,79,127
13045,note_on,,,,,5,0,3,,,,,2,,,75,0
13060,note_on,,,,,15,0,3,,,,,2,,,77,127
13062,note_on,,,,,2,0,3,,,,,2,,,79,0
13077,note_on,,,,,50,0,4,,,,,3,,,55,0
13080,note_on,,,,,18,0,3,,,,,2,,,75,127
13080,note_on,,,,,3,0,4,,,,,3,,,55,127
13083,note_on,,,,,3,0,3,,,,,2,,,77,0
13100,note_on,,,,,17,0,3,,,,,2,,,79,127
13102,note_on,,,,,2,0,3,,,,,2,,,75,0
13120,note_on,,,,,18,0,3,,,,,2,,,77,127
13123,note_on,,,,,3,0,3,,,,,2,,,79,0
13131,note_on,,,,,51,0,4,,,,,3,,,55,0
13140,note_on,,,,,9,0,4,,,,,3,,,55,127
13140,note_on,,,,,17,0,3,,,,,2,,,75,127
13142,note_on,,,,,2,0,3,,,,,2,,,77,0
13160,note_on,,,,,18,0,3,,,,,2,,,79,127
13164,note_on,,,,,4,0,3,,,,,2,,,75,0
13180,note_on,,,,,16,0,3,,,,,2,,,77,127
13182,note_on,,,,,2,0,3,,,,,2,,,79,0
13198,note_on,,,,,58,0,4,,,,,3,,,55,0
13200,note_on,,,,,2,0,4,,,,,3,,,55,127
13200,note_on,,,,,18,0,3,,,,,2,,,75,127
13205,note_on,,,,,5,0,3,,,,,2,,,77,0
13220,note_on,,,,,15,0,3,,,,,2,,,75,0
13220,note_on,,,,,0,0,3,,,,,2,,,70,127
13240,note_on,,,,,20,0,3,,,,,2,,,75,127
13242,note_on,,,,,2,0,3,,,,,2,,,70,0
13251,note_on,,,,,51,0,4,,,,,3,,,55,0
13260,note_on,,,,,18,0,3,,,,,2,,,79,127
13260,note_on,,,,,9,0,4,,,,,3,,,55,127
13261,note_on,,,,,1,0,3,,,,,2,,,75,0
13280,note_on,,,,,0,0,3,,,,,2,,,75,127
13280,note_on,,,,,19,0,3,,,,,2,,,79,0
13299,note_on,,,,,19,0,3,,,,,2,,,75,0
13300,note_on,,,,,1,0,3,,,,,2,,,79,127
13318,note_on,,,,,58,0,4,,,,,3,,,55,0
13320,note_on,,,,,20,0,3,,,,,2,,,79,0
13320,note_on,,,,,0,0,3,,,,,2,,,82,127
13320,note_on,,,,,2,0,4,,,,,3,,,55,127
13340,note_on,,,,,20,0,3,,,,,2,,,79,127
13341,note_on,,,,,1,0,3,,,,,2,,,82,0
13360,note_on,,,,,19,0,3,,,,,2,,,82,127
13364,note_on,,,,,4,0,3,,,,,2,,,79,0
13372,note_on,,,,,52,0,4,,,,,3,,,55,0
13380,note_on,,,,,8,0,4,,,,,3,,,55,127
13380,note_on,,,,,16,0,3,,,,,2,,,74,127
13382,note_on,,,,,2,0,3,,,,,2,,,82,0
13400,note_on,,,,,18,0,3,,,,,2,,,82,127
13401,note_on,,,,,1,0,3,,,,,2,,,74,0
13420,note_on,,,,,19,0,3,,,,,2,,,82,0
13420,note_on,,,,,0,0,3,,,,,2,,,74,127
13425,note_on,,,,,45,0,4,,,,,3,,,55,0
13432,note_on,,,,,12,0,3,,,,,2,,,74,0
13440,note_on,,,,,15,0,4,,,,,3,,,64,127
13440,note_on,,,,,0,0,4,,,,,3,,,55,127
13440,note_on,,,,,8,0,3,,,,,2,,,73,127
13460,note_on,,,,,20,0,3,,,,,2,,,69,127
13462,note_on,,,,,2,0,3,,,,,2,,,73,0
13480,note_on,,,,,18,0,3,,,,,2,,,73,127
13484,note_on,,,,,4,0,3,,,,,2,,,69,0
13486,note_on,,,,,46,0,4,,,,,3,,,64,0
13490,note_on,,,,,4,0,4,,,,,3,,,55,0
13500,note_on,,,,,0,0,4,,,,,3,,,55,127
13500,note_on,,,,,16,0,3,,,,,2,,,76,127
13500,note_on,,,,,10,0,4,,,,,3,,,64,127
13503,note_on,,,,,3,0,3,,,,,2,,,73,0
13518,note_on,,,,,15,0,3,,,,,2,,,76,0
13520,note_on,,,,,2,0,3,,,,,2,,,73,127
13540,note_on,,,,,20,0,3,,,,,2,,,73,0
13540,note_on,,,,,0,0,3,,,,,2,,,76,127
13558,note_on,,,,,58,0,4,,,,,3,,,55,0
13560,note_on,,,,,20,0,3,,,,,2,,,79,127
13560,note_on,,,,,0,0,4,,,,,3,,,49,127
13560,note_on,,,,,0,0,4,,,,,3,,,57,127
13560,note_on,,,,,2,0,4,,,,,3,,,64,0
13566,note_on,,,,,6,0,3,,,,,2,,,76,0
13580,note_on,,,,,0,0,3,,,,,2,,,76,127
13580,note_on,,,,,14,0,3,,,,,2,,,79,0
13600,note_on,,,,,20,0,3,,,,,2,,,79,127
13604,note_on,,,,,4,0,3,,,,,2,,,76,0
13609,note_on,,,,,49,0,4,,,,,3,,,49,0
13612,note_on,,,,,3,0,4,,,,,3,,,57,0
13620,note_on,,,,,8,0,4,,,,,3,,,57,127
13620,note_on,,,,,16,0,3,,,,,2,,,81,127
13620,note_on,,,,,0,0,4,,,,,3,,,49,127
13623,note_on,,,,,3,0,3,,,,,2,,,79,0
13639,note_on,,,,,16,0,3,,,,,2,,,81,0
13640,note_on,,,,,1,0,3,,,,,2,,,76,127
13660,note_on,,,,,20,0,3,,,,,2,,,76,0
13660,note_on,,,,,0,0,3,,,,,2,,,79,127
13677,note_on,,,,,17,0,3,,,,,2,,,79,0
13680,note_on,,,,,3,0,3,,,,,2,,,77,127
13680,note_on,,,,,60,0,4,,,,,3,,,57,0
13680,note_on,,,,,0,0,4,,,,,3,,,50,127
13682,note_on,,,,,2,0,4,,,,,3,,,49,0
13700,note_on,,,,,20,0,3,,,,,2,,,86,127
13702,note_on,,,,,2,0,3,,,,,2,,,77,0
13720,note_on,,,,,18,0,3,,,,,2,,,86,0
13720,note_on,,,,,0,0,3,,,,,2,,,84,127
13740,note_on,,,,,58,0,4,,,,,3,,,55,127
13740,note_on,,,,,20,0,3,,,,,2,,,82,127
13742,note_on,,,,,2,0,4,,,,,3,,,50,0
13743,note_on,,,,,3,0,3,,,,,2,,,84,0
13760,note_on,,,,,17,0,3,,,,,2,,,81,127
13765,note_on,,,,,5,0,3,,,,,2,,,82,0
13780,note_on,,,,,15,0,3,,,,,2,,,79,127
13781,note_on,,,,,1,0,3,,,,,2,,,81,0
13800,note_on,,,,,19,0,3,,,,,2,,,77,127
13800,note_on,,,,,58,0,4,,,,,3,,,57,127
13802,note_on,,,,,2,0,4,,,,,3,,,55,0
13802,note_on,,,,,2,0,3,,,,,2,,,79,0
13820,note_on,,,,,18,0,3,,,,,2,,,76,127
13825,note_on,,,,,5,0,3,,,,,2,,,77,0
13840,note_on,,,,,15,0,3,,,,,2,,,74,127
13843,note_on,,,,,3,0,3,,,,,2,,,76,0
13860,note_on,,,,,17,0,3,,,,,2,,,74,0
13860,note_on,,,,,0,0,3,,,,,2,,,69,127
13860,note_on,,,,,0,0,4,,,,,3,,,45,127
13860,note_on,,,,,58,0,4,,,,,3,,,57,0
13880,note_on,,,,,20,0,3,,,,,2,,,74,127
13885,note_on,,,,,5,0,3,,,,,2,,,69,0
13900,note_on,,,,,15,0,3,,,,,2,,,73,127
13901,note_on,,,,,1,0,3,,,,,2,,,74,0
13920,note_on,,,,,60,0,4,,,,,3,,,50,127
13920,note_on,,,,,19,0,3,,,,,2,,,74,127
13923,note_on,,,,,3,0,3,,,,,2,,,73,0
13929,note_on,,,,,9,0,4,,,,,3,,,45,0
13975,note_on,,,,,52,0,3,,,,,2,,,74,0
13980,note_on,,,,,51,0,4,,,,,3,,,62,127
13980,note_on,,,,,5,0,3,,,,,2,,,65,127
13981,note_on,,,,,1,0,4,,,,,3,,,50,0
14033,note_on,,,,,52,0,4,,,,,3,,,62,0
14038,note_on,,,,,58,0,3,,,,,2,,,65,0
14040,note_on,,,,,7,0,4,,,,,3,,,62,127
14040,note_on,,,,,2,0,3,,,,,2,,,64,127
14100,note_on,,,,,60,0,4,,,,,3,,,60,127
14100,note_on,,,,,0,0,3,,,,,2,,,69,127
14100,note_on,,,,,60,0,3,,,,,2,,,64,0
14106,note_on,,,,,6,0,4,,,,,3,,,62,0
14154,note_on,,,,,54,0,3,,,,,2,,,69,0
14160,note_on,,,,,1792,0,11,,,,,11,,,58,85
14160,note_on,,,,,1800,0,10,,,,,10,,,58,85
14160,note_on,,,,,1811,0,9,,,,,8,,,65,85
14160,note_on,,,,,1792,0,5,,,,,4,,,58,90
14160,note_on,,,,,1807,0,8,,,,,7,,,74,85
14168,note_on,,,,,62,0,4,,,,,3,,,60,0
14180,note_on,,,,,20,0,8,,,,,7,,,72,85
14180,note_on,,,,,20,0,9,,,,,8,,,64,85
14182,note_on,,,,,2,0,8,,,,,7,,,74,0
14188,note_on,,,,,8,0,9,,,,,8,,,65,0
14200,note_on,,,,,18,0,8,,,,,7,,,72,0
14200,note_on,,,,,0,0,8,,,,,7,,,70,85
14200,note_on,,,,,12,0,9,,,,,8,,,62,85
14205,note_on,,,,,5,0,9,,,,,8,,,64,0
14220,note_on,,,,,52,0,4,,,,,3,,,58,127
14220,note_on,,,,,66,0,3,,,,,2,,,74,127
14225,note_on,,,,,25,0,8,,,,,7,,,70,0
14229,note_on,,,,,24,0,9,,,,,8,,,62,0
14232,note_on,,,,,72,0,10,,,,,10,,,58,0
14236,note_on,,,,,76,0,5,,,,,4,,,58,0
14236,note_on,,,,,76,0,11,,,,,11,,,58,0
14271,note_on,,,,,51,0,4,,,,,3,,,58,0
14279,note_on,,,,,59,0,3,,,,,2,,,74,0
14280,note_on,,,,,9,0,4,,,,,3,,,58,127
14280,note_on,,,,,1,0,3,,,,,2,,,72,127
14338,note_on,,,,,58,0,3,,,,,2,,,72,0
14340,note_on,,,,,2,0,3,,,,,2,,,77,127
14340,note_on,,,,,60,0,4,,,,,3,,,57,127
14344,note_on,,,,,4,0,4,,,,,3,,,58,0
14400,note_on,,,,,168,0,10,,,,,10,,,62,85
14400,note_on,,,,,164,0,5,,,,,4,,,55,90
14400,note_on,,,,,164,0,11,,,,,11,,,55,85
14400,note_on,,,,,171,0,9,,,,,8,,,74,85
14400,note_on,,,,,175,0,8,,,,,7,,,82,85
14401,note_on,,,,,61,0,3,,,,,2,,,77,0
14402,note_on,,,,,58,0,4,,,,,3,,,57,0
14420,note_on,,,,,20,0,9,,,,,8,,,72,90
14420,note_on,,,,,20,0,8,,,,,7,,,81,90
14423,note_on,,,,,3,0,8,,,,,7,,,82,0
14424,note_on,,,,,4,0,9,,,,,8,,,74,0
14438,note_on,,,,,15,0,8,,,,,7,,,81,0
14440,note_on,,,,,2,0,8,,,,,7,,,79,90
14440,note_on,,,,,16,0,9,,,,,8,,,70,90
14443,note_on,,,,,3,0,9,,,,,8,,,72,0
14460,note_on,,,,,58,0,4,,,,,3,,,55,127
14460,note_on,,,,,59,0,3,,,,,2,,,82,127
14464,note_on,,,,,24,0,8,,,,,7,,,79,0
14471,note_on,,,,,28,0,9,,,,,8,,,70,0
14472,note_on,,,,,72,0,10,,,,,10,,,62,0
14476,note_on,,,,,76,0,5,,,,,4,,,55,0
14476,note_on,,,,,76,0,11,,,,,11,,,55,0
14516,note_on,,,,,56,0,4,,,,,3,,,55,0
14520,note_on,,,,,4,0,4,,,,,3,,,55,127
14520,note_on,,,,,60,0,3,,,,,2,,,81,127
14523,note_on,,,,,3,0,3,,,,,2,,,82,0
14580,note_on,,,,,57,0,3,,,,,2,,,81,0
14580,note_on,,,,,0,0,3,,,,,2,,,86,127
14580,note_on,,,,,60,0,4,,,,,3,,,53,127
14583,note_on,,,,,3,0,4,,,,,3,,,55,0
14631,note_on,,,,,51,0,3,,,,,2,,,86,0
14640,note_on,,,,,164,0,5,,,,,4,,,52,90
14640,note_on,,,,,57,0,4,,,,,3,,,52,127
14640,note_on,,,,,169,0,9,,,,,8,,,67,90
14640,note_on,,,,,176,0,8,,,,,7,,,79,90
14640,note_on,,,,,164,0,11,,,,,11,,,52,90
14640,note_on,,,,,168,0,10,,,,,10,,,61,90
14643,note_on,,,,,3,0,4,,,,,3,,,53,0
14660,note_on,,,,,20,0,8,,,,,7,,,77,88
14665,note_on,,,,,5,0,8,,,,,7,,,79,0
14680,note_on,,,,,15,0,8,,,,,7,,,76,86
14681,note_on,,,,,1,0,8,,,,,7,,,77,0
14700,note_on,,,,,60,0,9,,,,,8,,,74,84
14700,note_on,,,,,60,0,10,,,,,10,,,69,84
14700,note_on,,,,,57,0,4,,,,,3,,,50,127
14700,note_on,,,,,60,0,11,,,,,11,,,50,84
14700,note_on,,,,,19,0,8,,,,,7,,,77,84
14700,note_on,,,,,60,0,5,,,,,4,,,50,90
14701,note_on,,,,,1,0,4,,,,,3,,,52,0
14703,note_on,,,,,3,0,8,,,,,7,,,76,0
14703,note_on,,,,,3,0,10,,,,,10,,,61,0
14704,note_on,,,,,4,0,5,,,,,4,,,52,0
14704,note_on,,,,,4,0,11,,,,,11,,,52,0
14708,note_on,,,,,8,0,9,,,,,8,,,67,0
14720,note_on,,,,,17,0,8,,,,,7,,,76,82
14724,note_on,,,,,4,0,8,,,,,7,,,77,0
14740,note_on,,,,,16,0,8,,,,,7,,,74,80
14741,note_on,,,,,1,0,8,,,,,7,,,76,0
14760,note_on,,,,,19,0,8,,,,,7,,,74,0
14760,note_on,,,,,57,0,10,,,,,10,,,67,78
14760,note_on,,,,,52,0,9,,,,,8,,,70,78
14760,note_on,,,,,59,0,4,,,,,3,,,43,127
14760,note_on,,,,,0,0,8,,,,,7,,,76,78
14760,note_on,,,,,56,0,11,,,,,11,,,43,78
14760,note_on,,,,,56,0,5,,,,,4,,,43,90
14761,note_on,,,,,1,0,4,,,,,3,,,50,0
14762,note_on,,,,,2,0,9,,,,,8,,,74,0
14763,note_on,,,,,3,0,10,,,,,10,,,69,0
14768,note_on,,,,,8,0,11,,,,,11,,,50,0
14768,note_on,,,,,8,0,5,,,,,4,,,50,0
14820,note_on,,,,,57,0,10,,,,,10,,,64,72
14820,note_on,,,,,59,0,4,,,,,3,,,45,127
14820,note_on,,,,,60,0,8,,,,,7,,,73,72
14820,note_on,,,,,58,0,9,,,,,8,,,69,72
14820,note_on,,,,,52,0,5,,,,,4,,,45,90
14820,note_on,,,,,52,0,11,,,,,11,,,45,72
14821,note_on,,,,,1,0,8,,,,,7,,,76,0
14822,note_on,,,,,2,0,10,,,,,10,,,67,0
14822,note_on,,,,,2,0,9,,,,,8,,,70,0
14823,note_on,,,,,3,0,5,,,,,4,,,43,0
14823,note_on,,,,,3,0,11,,,,,11,,,43,0
14826,note_on,,,,,6,0,4,,,,,3,,,43,0
14870,note_on,,,,,48,0,9,,,,,8,,,69,0
14880,note_on,,,,,59,0,8,,,,,7,,,74,65
14880,note_on,,,,,57,0,5,,,,,4,,,38,90
14880,note_on,,,,,58,0,10,,,,,10,,,66,65
14880,note_on,,,,,54,0,4,,,,,3,,,50,127
14880,note_on,,,,,10,0,9,,,,,8,,,69,65
14880,note_on,,,,,57,0,11,,,,,11,,,38,65
14882,note_on,,,,,2,0,8,,,,,7,,,73,0
14882,set_tempo,,,,,14881,1,0,,1434034,,,,,,,
14883,set_tempo,,,,,1,1,0,,1475289,,,,,,,
14884,set_tempo,,,,,1,1,0,,1518987,,,,,,,
14884,note_on,,,,,4,0,4,,,,,3,,,45,0
14885,set_tempo,,,,,1,1,0,,1564945,,,,,,,
14886,note_on,,,,,6,0,11,,,,,11,,,45,0
14886,set_tempo,,,,,1,1,0,,1614205,,,,,,,
14886,note_on,,,,,6,0,5,,,,,4,,,45,0
14887,set_tempo,,,,,1,1,0,,1666667,,,,,,,
14888,set_tempo,,,,,1,1,0,,1722158,,,,,,,
14888,note_on,,,,,8,0,10,,,,,10,,,64,0
14889,set_tempo,,,,,1,1,0,,1782002,,,,,,,
14890,set_tempo,,,,,1,1,0,,1846154,,,,,,,
14891,set_tempo,,,,,1,1,0,,1914486,,,,,,,
14892,set_tempo,,,,,1,1,0,,1988731,,,,,,,
14893,set_tempo,,,,,1,1,0,,2068966,,,,,,,
14894,set_tempo,,,,,1,1,0,,2155172,,,,,,,
14895,set_tempo,,,,,1,1,0,,2249719,,,,,,,
14896,set_tempo,,,,,1,1,0,,2352941,,,,,,,
14897,set_tempo,,,,,1,1,0,,2465078,,,,,,,
14898,set_tempo,,,,,1,1,0,,2589555,,,,,,,
14899,set_tempo,,,,,1,1,0,,2727273,,,,,,,
14900,set_tempo,,,,,1,1,0,,2879079,,,,,,,
14901,set_tempo,,,,,1,1,0,,3050330,,,,,,,
14902,set_tempo,,,,,1,1,0,,3243243,,,,,,,
14903,set_tempo,,,,,1,1,0,,3460208,,,,,,,
14904,set_tempo,,,,,1,1,0,,3710575,,,,,,,
14905,set_tempo,,,,,1,1,0,,4000000,,,,,,,
14906,set_tempo,,,,,1,1,0,,4335260,,,,,,,
14907,set_tempo,,,,,1,1,0,,4735596,,,,,,,
14908,set_tempo,,,,,1,1,0,,5217391,,,,,,,
14909,set_tempo,,,,,1,1,0,,5802708,,,,,,,
14910,set_tempo,,,,,1,1,0,,6000000,,,,,,,
14910,note_on,,,,,279,0,3,,,,,2,,,74,127
14911,set_tempo,,,,,1,1,0,,1395349,,,,,,,
14916,note_on,,,,,6,0,3,,,,,2,,,74,0
14917,note_on,,,,,1,0,3,,,,,2,,,76,127
14924,note_on,,,,,7,0,3,,,,,2,,,76,0
14925,note_on,,,,,1,0,3,,,,,2,,,78,127
14935,note_on,,,,,10,0,3,,,,,2,,,78,0
14936,note_on,,,,,1,0,3,,,,,2,,,79,127
14940,note_on,,,,,56,0,4,,,,,3,,,62,127
14943,note_on,,,,,7,0,3,,,,,2,,,78,127
14944,note_on,,,,,1,0,3,,,,,2,,,79,0
14945,note_on,,,,,5,0,4,,,,,3,,,50,0
14960,note_on,,,,,16,0,3,,,,,2,,,78,0
14965,note_on,,,,,5,0,3,,,,,2,,,76,127
14980,note_on,,,,,15,0,3,,,,,2,,,78,127
14984,note_on,,,,,4,0,3,,,,,2,,,76,0
15000,note_on,,,,,16,0,3,,,,,2,,,78,0
15000,note_on,,,,,0,0,3,,,,,2,,,79,127
15000,note_on,,,,,55,0,4,,,,,3,,,58,127
15000,note_on,,,,,114,0,5,,,,,4,,,38,0
15000,note_on,,,,,120,0,9,,,,,8,,,69,0
15000,note_on,,,,,114,0,11,,,,,11,,,38,0
15003,note_on,,,,,115,0,10,,,,,10,,,66,0
15005,note_on,,,,,123,0,8,,,,,7,,,74,0
15011,note_on,,,,,11,0,4,,,,,3,,,62,0
15019,note_on,,,,,19,0,3,,,,,2,,,79,0
15020,note_on,,,,,1,0,3,,,,,2,,,74,127
15034,note_on,,,,,14,0,3,,,,,2,,,79,127
15037,note_on,,,,,3,0,3,,,,,2,,,74,0
15043,note_on,,,,,6,0,3,,,,,2,,,79,0
15051,note_on,,,,,8,0,3,,,,,2,,,81,127
15055,note_on,,,,,44,0,4,,,,,3,,,58,0
15055,note_on,,,,,4,0,3,,,,,2,,,79,127
15058,note_on,,,,,3,0,3,,,,,2,,,81,0
15060,note_on,,,,,5,0,4,,,,,3,,,67,127
15076,note_on,,,,,18,0,3,,,,,2,,,78,127
15078,note_on,,,,,2,0,3,,,,,2,,,79,0
15094,note_on,,,,,16,0,3,,,,,2,,,79,127
15097,note_on,,,,,3,0,3,,,,,2,,,78,0
15115,note_on,,,,,18,0,3,,,,,2,,,81,127
15117,note_on,,,,,2,0,3,,,,,2,,,79,0
15120,note_on,,,,,60,0,4,,,,,3,,,66,127
15121,note_on,,,,,1,0,4,,,,,3,,,67,0
15136,note_on,,,,,19,0,3,,,,,2,,,81,0
15137,note_on,,,,,1,0,3,,,,,2,,,74,127
15154,note_on,,,,,17,0,3,,,,,2,,,81,127
15158,note_on,,,,,4,0,3,,,,,2,,,74,0
15163,note_on,,,,,5,0,3,,,,,2,,,81,0
15171,note_on,,,,,8,0,3,,,,,2,,,82,127
15176,note_on,,,,,5,0,3,,,,,2,,,81,127
15180,note_on,,,,,4,0,3,,,,,2,,,82,0
15180,note_on,,,,,59,0,4,,,,,3,,,62,127
15183,note_on,,,,,3,0,4,,,,,3,,,66,0
15199,note_on,,,,,19,0,3,,,,,2,,,79,127
15200,note_on,,,,,1,0,3,,,,,2,,,81,0
15216,note_on,,,,,16,0,3,,,,,2,,,81,127
15220,note_on,,,,,4,0,3,,,,,2,,,79,0
15236,note_on,,,,,53,0,4,,,,,3,,,62,0
15240,note_on,,,,,4,0,4,,,,,3,,,67,127
15240,note_on,,,,,20,0,3,,,,,2,,,82,127
15242,note_on,,,,,2,0,3,,,,,2,,,81,0
15260,note_on,,,,,18,0,3,,,,,2,,,84,127
15265,note_on,,,,,5,0,3,,,,,2,,,82,0
15280,note_on,,,,,15,0,3,,,,,2,,,82,127
15283,note_on,,,,,3,0,3,,,,,2,,,84,0
15300,note_on,,,,,60,0,4,,,,,3,,,60,127
15300,note_on,,,,,17,0,3,,,,,2,,,81,127
15302,note_on,,,,,2,0,3,,,,,2,,,82,0
15304,note_on,,,,,4,0,4,,,,,3,,,67,0
15320,note_on,,,,,18,0,3,,,,,2,,,82,127
15323,note_on,,,,,3,0,3,,,,,2,,,81,0
15340,note_on,,,,,0,0,3,,,,,2,,,79,127
15340,note_on,,,,,17,0,3,,,,,2,,,82,0
15360,note_on,,,,,20,0,3,,,,,2,,,78,127
15360,note_on,,,,,56,0,4,,,,,3,,,62,127
15362,note_on,,,,,2,0,4,,,,,3,,,60,0
15364,note_on,,,,,4,0,3,,,,,2,,,79,0
15380,note_on,,,,,16,0,3,,,,,2,,,79,127
15383,note_on,,,,,3,0,3,,,,,2,,,78,0
15400,note_on,,,,,17,0,3,,,,,2,,,81,127
15405,note_on,,,,,5,0,3,,,,,2,,,79,0
15415,note_on,,,,,10,0,3,,,,,2,,,81,0
15420,note_on,,,,,58,0,4,,,,,3,,,66,127
15420,note_on,,,,,5,0,3,,,,,2,,,74,127
15427,note_on,,,,,7,0,4,,,,,3,,,62,0
15440,note_on,,,,,20,0,3,,,,,2,,,86,127
15444,note_on,,,,,4,0,3,,,,,2,,,74,0
15460,note_on,,,,,16,0,3,,,,,2,,,84,127
15462,note_on,,,,,2,0,3,,,,,2,,,86,0
15480,note_on,,,,,18,0,3,,,,,2,,,82,127
15480,note_on,,,,,53,0,4,,,,,3,,,67,127
15482,note_on,,,,,2,0,4,,,,,3,,,66,0
15483,note_on,,,,,3,0,3,,,,,2,,,84,0
15500,note_on,,,,,17,0,3,,,,,2,,,84,127
15510,note_on,,,,,10,0,3,,,,,2,,,82,0
15520,note_on,,,,,10,0,3,,,,,2,,,86,127
15522,note_on,,,,,2,0,3,,,,,2,,,84,0
15540,note_on,,,,,58,0,4,,,,,3,,,58,127
15540,note_on,,,,,18,0,3,,,,,2,,,79,127
15542,note_on,,,,,2,0,4,,,,,3,,,67,0
15542,note_on,,,,,2,0,3,,,,,2,,,86,0
15560,note_on,,,,,18,0,3,,,,,2,,,81,127
15564,note_on,,,,,4,0,3,,,,,2,,,79,0
15580,note_on,,,,,16,0,3,,,,,2,,,82,127
15583,note_on,,,,,3,0,3,,,,,2,,,81,0
15600,note_on,,,,,58,0,4,,,,,3,,,60,127
15600,note_on,,,,,17,0,3,,,,,2,,,75,127
15602,note_on,,,,,2,0,3,,,,,2,,,82,0
15603,note_on,,,,,3,0,4,,,,,3,,,58,0
15620,note_on,,,,,18,0,3,,,,,2,,,77,127
15624,note_on,,,,,4,0,3,,,,,2,,,75,0
15640,note_on,,,,,16,0,3,,,,,2,,,79,127
15643,note_on,,,,,3,0,3,,,,,2,,,77,0
15658,note_on,,,,,15,0,3,,,,,2,,,79,0
15660,note_on,,,,,0,0,4,,,,,3,,,63,127
15660,note_on,,,,,57,0,4,,,,,3,,,60,0
15660,note_on,,,,,2,0,3,,,,,2,,,72,127
15680,note_on,,,,,20,0,3,,,,,2,,,84,127
15682,note_on,,,,,2,0,3,,,,,2,,,72,0
15700,note_on,,,,,18,0,3,,,,,2,,,82,127
15703,note_on,,,,,3,0,3,,,,,2,,,84,0
15718,note_on,,,,,58,0,4,,,,,3,,,63,0
15720,note_on,,,,,2,0,4,,,,,3,,,65,127
15720,note_on,,,,,17,0,3,,,,,2,,,81,127
15721,note_on,,,,,1,0,3,,,,,2,,,82,0
15740,note_on,,,,,19,0,3,,,,,2,,,82,127
15748,note_on,,,,,8,0,3,,,,,2,,,81,0
15760,note_on,,,,,12,0,3,,,,,2,,,84,127
15763,note_on,,,,,3,0,3,,,,,2,,,82,0
15779,note_on,,,,,16,0,3,,,,,2,,,84,0
15780,note_on,,,,,1,0,3,,,,,2,,,77,127
15780,note_on,,,,,60,0,4,,,,,3,,,57,127
15787,note_on,,,,,7,0,4,,,,,3,,,65,0
15800,note_on,,,,,20,0,3,,,,,2,,,79,127
15803,note_on,,,,,3,0,3,,,,,2,,,77,0
15820,note_on,,,,,17,0,3,,,,,2,,,75,127
15821,note_on,,,,,1,0,3,,,,,2,,,79,0
15840,note_on,,,,,19,0,3,,,,,2,,,74,127
15840,note_on,,,,,53,0,4,,,,,3,,,58,127
15843,note_on,,,,,3,0,3,,,,,2,,,75,0
15845,note_on,,,,,5,0,4,,,,,3,,,57,0
15860,note_on,,,,,17,0,3,,,,,2,,,77,127
15863,note_on,,,,,3,0,3,,,,,2,,,74,0
15880,note_on,,,,,17,0,3,,,,,2,,,82,127
15885,note_on,,,,,5,0,3,,,,,2,,,77,0
15900,note_on,,,,,15,0,3,,,,,2,,,82,0
15900,note_on,,,,,0,0,3,,,,,2,,,70,127
15900,note_on,,,,,55,0,4,,,,,3,,,55,127
15905,note_on,,,,,5,0,4,,,,,3,,,58,0
15920,note_on,,,,,20,0,3,,,,,2,,,72,127
15922,note_on,,,,,2,0,3,,,,,2,,,70,0
15939,note_on,,,,,17,0,3,,,,,2,,,72,0
15940,note_on,,,,,1,0,3,,,,,2,,,74,127
15959,note_on,,,,,19,0,3,,,,,2,,,74,0
15960,note_on,,,,,55,0,4,,,,,3,,,52,127
15960,note_on,,,,,1,0,3,,,,,2,,,72,127
15962,note_on,,,,,2,0,4,,,,,3,,,55,0
15980,note_on,,,,,20,0,3,,,,,2,,,82,127
15986,note_on,,,,,6,0,3,,,,,2,,,72,0
15999,note_on,,,,,13,0,3,,,,,2,,,82,0
16000,note_on,,,,,1,0,3,,,,,2,,,81,127
16020,note_on,,,,,58,0,4,,,,,3,,,54,127
16020,note_on,,,,,20,0,3,,,,,2,,,69,127
16024,note_on,,,,,4,0,3,,,,,2,,,81,0
16025,note_on,,,,,5,0,4,,,,,3,,,52,0
16040,note_on,,,,,16,0,3,,,,,2,,,70,127
16043,note_on,,,,,3,0,3,,,,,2,,,69,0
16060,note_on,,,,,17,0,3,,,,,2,,,72,127
16062,note_on,,,,,2,0,3,,,,,2,,,70,0
16080,note_on,,,,,18,0,3,,,,,2,,,72,0
16080,note_on,,,,,0,0,3,,,,,2,,,70,127
16080,note_on,,,,,55,0,4,,,,,3,,,55,127
16084,note_on,,,,,4,0,4,,,,,3,,,54,0
16100,note_on,,,,,20,0,3,,,,,2,,,74,127
16104,note_on,,,,,4,0,3,,,,,2,,,70,0
16120,note_on,,,,,16,0,3,,,,,2,,,79,127
16122,note_on,,,,,2,0,3,,,,,2,,,74,0
16140,note_on,,,,,56,0,4,,,,,3,,,43,127
16140,note_on,,,,,18,0,3,,,,,2,,,70,127
16142,note_on,,,,,2,0,3,,,,,2,,,79,0
16142,note_on,,,,,2,0,4,,,,,3,,,55,0
16160,note_on,,,,,18,0,3,,,,,2,,,69,127
16162,note_on,,,,,2,0,3,,,,,2,,,70,0
16180,note_on,,,,,18,0,3,,,,,2,,,67,127
16184,note_on,,,,,4,0,3,,,,,2,,,69,0
16200,note_on,,,,,58,0,4,,,,,3,,,48,127
16200,note_on,,,,,16,0,3,,,,,2,,,75,127
16202,note_on,,,,,2,0,4,,,,,3,,,43,0
16203,note_on,,,,,3,0,3,,,,,2,,,67,0
16220,note_on,,,,,17,0,3,,,,,2,,,74,127
16221,note_on,,,,,1,0,3,,,,,2,,,75,0
16240,note_on,,,,,0,0,3,,,,,2,,,72,127
16240,note_on,,,,,19,0,3,,,,,2,,,74,0
16260,note_on,,,,,58,0,4,,,,,3,,,51,127
16260,note_on,,,,,20,0,3,,,,,2,,,70,127
16261,note_on,,,,,1,0,4,,,,,3,,,48,0
16262,note_on,,,,,2,0,3,,,,,2,,,72,0
16280,note_on,,,,,18,0,3,,,,,2,,,69,127
16284,note_on,,,,,4,0,3,,,,,2,,,70,0
16300,note_on,,,,,16,0,3,,,,,2,,,67,127
16302,note_on,,,,,2,0,3,,,,,2,,,69,0
16320,note_on,,,,,18,0,3,,,,,2,,,66,127
16320,note_on,,,,,59,0,4,,,,,3,,,50,127
16321,note_on,,,,,1,0,3,,,,,2,,,67,0
16326,note_on,,,,,6,0,4,,,,,3,,,51,0
16340,note_on,,,,,19,0,3,,,,,2,,,64,127
16342,note_on,,,,,2,0,3,,,,,2,,,66,0
16360,note_on,,,,,18,0,3,,,,,2,,,62,127
16364,note_on,,,,,4,0,3,,,,,2,,,64,0
16380,note_on,,,,,54,0,4,,,,,3,,,46,127
16380,note_on,,,,,16,0,3,,,,,2,,,67,127
16385,note_on,,,,,5,0,3,,,,,2,,,62,0
16386,note_on,,,,,6,0,4,,,,,3,,,50,0
16400,note_on,,,,,15,0,3,,,,,2,,,70,127
16404,note_on,,,,,4,0,3,,,,,2,,,67,0
16420,note_on,,,,,16,0,3,,,,,2,,,69,127
16421,note_on,,,,,1,0,3,,,,,2,,,70,0
16440,note_on,,,,,19,0,3,,,,,2,,,69,0
16440,note_on,,,,,0,0,3,,,,,2,,,67,127
16440,note_on,,,,,54,0,4,,,,,3,,,48,127
16445,note_on,,,,,5,0,4,,,,,3,,,46,0
16460,note_on,,,,,20,0,3,,,,,2,,,70,127
16463,note_on,,,,,3,0,3,,,,,2,,,67,0
16480,note_on,,,,,17,0,3,,,,,2,,,70,0
16480,note_on,,,,,0,0,3,,,,,2,,,69,127
16500,note_on,,,,,20,0,3,,,,,2,,,69,0
16500,note_on,,,,,55,0,4,,,,,3,,,48,0
16500,note_on,,,,,0,0,4,,,,,3,,,50,127
16500,note_on,,,,,0,0,3,,,,,2,,,67,127
16520,note_on,,,,,20,0,3,,,,,2,,,70,127
16525,note_on,,,,,5,0,3,,,,,2,,,67,0
16540,note_on,,,,,15,0,3,,,,,2,,,69,127
16543,note_on,,,,,3,0,3,,,,,2,,,70,0
16558,note_on,,,,,15,0,3,,,,,2,,,69,0
16560,note_on,,,,,60,0,4,,,,,3,,,51,127
16560,note_on,,,,,2,0,3,,,,,2,,,67,127
16562,note_on,,,,,2,0,4,,,,,3,,,50,0
16580,note_on,,,,,20,0,3,,,,,2,,,82,127
16585,note_on,,,,,5,0,3,,,,,2,,,67,0
16600,note_on,,,,,15,0,3,,,,,2,,,81,127
16601,note_on,,,,,1,0,3,,,,,2,,,82,0
16620,note_on,,,,,0,0,3,,,,,2,,,79,127
16620,note_on,,,,,19,0,3,,,,,2,,,81,0
16620,note_on,,,,,58,0,4,,,,,3,,,46,127
16624,note_on,,,,,4,0,4,,,,,3,,,51,0
16640,note_on,,,,,20,0,3,,,,,2,,,82,127
16647,note_on,,,,,7,0,3,,,,,2,,,79,0
16660,note_on,,,,,13,0,3,,,,,2,,,81,127
16661,note_on,,,,,1,0,3,,,,,2,,,82,0
16680,note_on,,,,,19,0,3,,,,,2,,,79,127
16680,note_on,,,,,56,0,4,,,,,3,,,48,127
16681,note_on,,,,,1,0,3,,,,,2,,,81,0
16682,note_on,,,,,2,0,4,,,,,3,,,46,0
16700,note_on,,,,,19,0,3,,,,,2,,,82,127
16703,note_on,,,,,3,0,3,,,,,2,,,79,0
16720,note_on,,,,,17,0,3,,,,,2,,,81,127
16725,note_on,,,,,5,0,3,,,,,2,,,82,0
16740,note_on,,,,,58,0,4,,,,,3,,,50,127
16740,note_on,,,,,15,0,3,,,,,2,,,79,127
16741,note_on,,,,,1,0,3,,,,,2,,,81,0
16743,note_on,,,,,3,0,4,,,,,3,,,48,0
16760,note_on,,,,,19,0,3,,,,,2,,,82,127
16764,note_on,,,,,4,0,3,,,,,2,,,79,0
16780,note_on,,,,,16,0,3,,,,,2,,,81,127
16782,note_on,,,,,2,0,3,,,,,2,,,82,0
16799,note_on,,,,,17,0,3,,,,,2,,,81,0
16800,note_on,,,,,1,0,3,,,,,2,,,79,127
16800,note_on,,,,,57,0,4,,,,,3,,,51,127
16808,note_on,,,,,8,0,4,,,,,3,,,50,0
16820,note_on,,,,,20,0,3,,,,,2,,,82,127
16822,note_on,,,,,2,0,3,,,,,2,,,79,0
16840,note_on,,,,,18,0,3,,,,,2,,,81,127
16843,note_on,,,,,3,0,3,,,,,2,,,82,0
16860,note_on,,,,,52,0,4,,,,,3,,,46,127
16860,note_on,,,,,17,0,3,,,,,2,,,79,127
16863,note_on,,,,,3,0,3,,,,,2,,,81,0
16864,note_on,,,,,4,0,4,,,,,3,,,51,0
16879,note_on,,,,,16,0,3,,,,,2,,,79,0
16880,note_on,,,,,1,0,3,,,,,2,,,77,127
16900,note_on,,,,,20,0,3,,,,,2,,,75,127
16903,note_on,,,,,3,0,3,,,,,2,,,77,0
16920,note_on,,,,,56,0,4,,,,,3,,,48,127
16920,note_on,,,,,17,0,3,,,,,2,,,74,127
16921,note_on,,,,,1,0,4,,,,,3,,,46,0
16921,note_on,,,,,1,0,3,,,,,2,,,75,0
16938,note_on,,,,,17,0,3,,,,,2,,,74,0
16940,note_on,,,,,2,0,3,,,,,2,,,72,127
16960,note_on,,,,,20,0,3,,,,,2,,,70,127
16965,note_on,,,,,5,0,3,,,,,2,,,72,0
16980,note_on,,,,,15,0,3,,,,,2,,,69,127
16980,note_on,,,,,59,0,4,,,,,3,,,50,127
16983,note_on,,,,,3,0,3,,,,,2,,,70,0
16985,note_on,,,,,5,0,4,,,,,3,,,48,0
17000,note_on,,,,,17,0,3,,,,,2,,,67,127
17003,note_on,,,,,3,0,3,,,,,2,,,69,0
17020,note_on,,,,,17,0,3,,,,,2,,,69,127
17024,note_on,,,,,4,0,3,,,,,2,,,67,0
17040,note_on,,,,,55,0,4,,,,,3,,,55,127
17040,note_on,,,,,16,0,3,,,,,2,,,67,127
17042,note_on,,,,,2,0,4,,,,,3,,,50,0
17042,note_on,,,,,2,0,3,,,,,2,,,69,0
17060,note_on,,,,,18,0,3,,,,,2,,,70,127
17063,note_on,,,,,3,0,3,,,,,2,,,67,0
17080,note_on,,,,,17,0,3,,,,,2,,,69,127
17082,note_on,,,,,2,0,3,,,,,2,,,70,0
17100,note_on,,,,,18,0,3,,,,,2,,,67,127
17100,note_on,,,,,58,0,4,,,,,3,,,48,127
17101,note_on,,,,,1,0,3,,,,,2,,,69,0
17105,note_on,,,,,5,0,4,,,,,3,,,55,0
17120,note_on,,,,,19,0,3,,,,,2,,,65,127
17121,note_on,,,,,1,0,3,,,,,2,,,67,0
17140,note_on,,,,,19,0,3,,,,,2,,,63,127
17141,note_on,,,,,1,0,3,,,,,2,,,65,0
17160,note_on,,,,,19,0,3,,,,,2,,,62,127
17160,note_on,,,,,55,0,4,,,,,3,,,50,127
17161,note_on,,,,,1,0,3,,,,,2,,,63,0
17165,note_on,,,,,5,0,4,,,,,3,,,48,0
17179,note_on,,,,,18,0,3,,,,,2,,,62,0
17180,note_on,,,,,1,0,3,,,,,2,,,60,127
17200,note_on,,,,,20,0,3,,,,,2,,,58,127
17201,note_on,,,,,1,0,3,,,,,2,,,60,0
17220,note_on,,,,,19,0,3,,,,,2,,,57,127
17220,note_on,,,,,55,0,4,,,,,3,,,38,127
17224,note_on,,,,,4,0,3,,,,,2,,,58,0
17227,note_on,,,,,7,0,4,,,,,3,,,50,0
17239,note_on,,,,,15,0,3,,,,,2,,,57,0
17240,note_on,,,,,1,0,3,,,,,2,,,67,127
17260,note_on,,,,,20,0,3,,,,,2,,,66,127
17261,note_on,,,,,1,0,3,,,,,2,,,67,0
17272,note_on,,,,,11,0,3,,,,,2,,,66,0
17280,note_on,,,,,8,0,3,,,,,2,,,67,127
17280,note_on,,,,,53,0,4,,,,,3,,,43,127
17285,note_on,,,,,5,0,4,,,,,3,,,38,0
17340,note_on,,,,,2337,0,10,,,,,10,,,62,75
17340,note_on,,,,,2340,0,5,,,,,4,,,43,66
17340,note_on,,,,,2340,0,9,,,,,8,,,70,75
17340,note_on,,,,,2340,0,11,,,,,11,,,43,75
17340,note_on,,,,,2335,0,8,,,,,7,,,79,75
17393,note_on,,,,,53,0,9,,,,,8,,,70,0
17396,note_on,,,,,56,0,10,,,,,10,,,62,0
17399,note_on,,,,,59,0,5,,,,,4,,,43,0
17399,note_on,,,,,59,0,8,,,,,7,,,79,0
17399,note_on,,,,,119,0,3,,,,,2,,,67,0
17399,note_on,,,,,59,0,11,,,,,11,,,43,0
17400,note_on,,,,,1,0,5,,,,,4,,,43,93
17400,note_on,,,,,1,0,3,,,,,2,,,79,127
17400,note_on,,,,,4,0,10,,,,,10,,,62,75
17400,note_on,,,,,7,0,9,,,,,8,,,70,75
17400,note_on,,,,,1,0,8,,,,,7,,,79,75
17400,note_on,,,,,1,0,11,,,,,11,,,43,75
17448,note_on,,,,,48,0,5,,,,,4,,,43,0
17455,note_on,,,,,55,0,9,,,,,8,,,70,0
17456,note_on,,,,,56,0,10,,,,,10,,,62,0
17459,note_on,,,,,59,0,11,,,,,11,,,43,0
17459,note_on,,,,,59,0,8,,,,,7,,,79,0
17460,note_on,,,,,4,0,10,,,,,10,,,62,74
17460,note_on,,,,,1,0,8,,,,,7,,,79,74
17460,note_on,,,,,12,0,5,,,,,4,,,43,85
17460,note_on,,,,,1,0,11,,,,,11,,,43,74
17460,note_on,,,,,5,0,9,,,,,8,,,70,74
17519,note_on,,,,,59,0,8,,,,,7,,,79,0
17519,note_on,,,,,59,0,11,,,,,11,,,43,0
17520,note_on,,,,,60,0,10,,,,,10,,,63,74
17520,note_on,,,,,60,0,9,,,,,8,,,68,74
17520,note_on,,,,,120,0,3,,,,,2,,,68,127
17520,note_on,,,,,235,0,4,,,,,3,,,48,127
17520,note_on,,,,,60,0,5,,,,,4,,,48,85
17520,note_on,,,,,1,0,11,,,,,11,,,48,74
17520,note_on,,,,,1,0,8,,,,,7,,,79,74
17522,note_on,,,,,2,0,5,,,,,4,,,43,0
17526,note_on,,,,,6,0,10,,,,,10,,,62,0
17528,note_on,,,,,8,0,9,,,,,8,,,70,0
17532,note_on,,,,,12,0,4,,,,,3,,,43,0
17566,note_on,,,,,44,0,5,,,,,4,,,48,0
17571,note_on,,,,,45,0,10,,,,,10,,,63,0
17575,note_on,,,,,47,0,9,,,,,8,,,68,0
17579,note_on,,,,,59,0,11,,,,,11,,,48,0
17579,note_on,,,,,59,0,8,,,,,7,,,79,0
17580,note_on,,,,,9,0,10,,,,,10,,,63,73
17580,note_on,,,,,5,0,9,,,,,8,,,68,73
17580,note_on,,,,,1,0,11,,,,,11,,,48,73
17580,note_on,,,,,1,0,8,,,,,7,,,79,73
17580,note_on,,,,,14,0,5,,,,,4,,,48,80
17631,note_on,,,,,51,0,9,,,,,8,,,68,0
17632,note_on,,,,,112,0,3,,,,,2,,,79,0
17636,note_on,,,,,104,0,4,,,,,3,,,48,0
17639,note_on,,,,,59,0,8,,,,,7,,,79,0
17639,note_on,,,,,59,0,11,,,,,11,,,48,0
17640,note_on,,,,,60,0,5,,,,,4,,,50,80
17640,note_on,,,,,60,0,10,,,,,10,,,58,73
17640,note_on,,,,,1,0,11,,,,,11,,,50,73
17640,note_on,,,,,9,0,9,,,,,8,,,68,73
17640,note_on,,,,,8,0,3,,,,,2,,,77,127
17640,note_on,,,,,4,0,4,,,,,3,,,50,127
17640,note_on,,,,,1,0,8,,,,,7,,,77,73
17641,note_on,,,,,1,0,10,,,,,10,,,63,0
17642,note_on,,,,,2,0,5,,,,,4,,,48,0
17690,note_on,,,,,49,0,10,,,,,10,,,58,0
17692,note_on,,,,,52,0,9,,,,,8,,,68,0
17699,note_on,,,,,59,0,8,,,,,7,,,77,0
17699,note_on,,,,,59,0,11,,,,,11,,,50,0
17699,note_on,,,,,57,0,5,,,,,4,,,50,0
17700,note_on,,,,,10,0,10,,,,,10,,,58,73
17700,note_on,,,,,1,0,5,,,,,4,,,50,100
17700,note_on,,,,,1,0,11,,,,,11,,,50,73
17700,note_on,,,,,1,0,8,,,,,7,,,77,73
17700,note_on,,,,,8,0,9,,,,,8,,,68,73
17748,note_on,,,,,108,0,3,,,,,2,,,68,0
17759,note_on,,,,,59,0,11,,,,,11,,,50,0
17759,note_on,,,,,59,0,8,,,,,7,,,77,0
17760,note_on,,,,,120,0,4,,,,,3,,,51,127
17760,note_on,,,,,60,0,9,,,,,8,,,67,72
17760,note_on,,,,,1,0,11,,,,,11,,,51,72
17760,note_on,,,,,60,0,5,,,,,4,,,51,76
17760,note_on,,,,,12,0,3,,,,,2,,,67,127
17760,note_on,,,,,1,0,8,,,,,7,,,77,72
17760,note_on,,,,,60,0,10,,,,,10,,,58,72
17761,note_on,,,,,1,0,4,,,,,3,,,50,0
17762,note_on,,,,,2,0,10,,,,,10,,,58,0
17762,note_on,,,,,2,0,5,,,,,4,,,50,0
17767,note_on,,,,,7,0,9,,,,,8,,,68,0
17812,note_on,,,,,45,0,9,,,,,8,,,67,0
17812,note_on,,,,,50,0,10,,,,,10,,,58,0
17816,note_on,,,,,54,0,5,,,,,4,,,51,0
17819,note_on,,,,,59,0,8,,,,,7,,,77,0
17819,note_on,,,,,59,0,11,,,,,11,,,51,0
17820,note_on,,,,,8,0,10,,,,,10,,,58,72
17820,note_on,,,,,4,0,5,,,,,4,,,51,87
17820,note_on,,,,,1,0,8,,,,,7,,,77,72
17820,note_on,,,,,1,0,11,,,,,11,,,51,72
17820,note_on,,,,,8,0,9,,,,,8,,,67,72
17876,note_on,,,,,116,0,3,,,,,2,,,77,0
17879,note_on,,,,,59,0,8,,,,,7,,,77,0
17879,note_on,,,,,59,0,11,,,,,11,,,51,0
17880,note_on,,,,,1,0,11,,,,,11,,,48,71
17880,note_on,,,,,60,0,5,,,,,4,,,48,87
17880,note_on,,,,,60,0,9,,,,,8,,,72,71
17880,note_on,,,,,60,0,10,,,,,10,,,63,71
17880,note_on,,,,,4,0,3,,,,,2,,,75,127
17880,note_on,,,,,0,0,3,,,,,2,,,72,127
17880,note_on,,,,,119,0,4,,,,,3,,,48,127
17880,note_on,,,,,1,0,8,,,,,7,,,75,71
17881,note_on,,,,,1,0,5,,,,,4,,,51,0
17881,note_on,,,,,1,0,9,,,,,8,,,67,0
17886,note_on,,,,,6,0,3,,,,,2,,,67,0
17887,note_on,,,,,7,0,10,,,,,10,,,58,0
17889,note_on,,,,,9,0,4,,,,,3,,,51,0
17932,note_on,,,,,51,0,5,,,,,4,,,48,0
17934,note_on,,,,,53,0,9,,,,,8,,,72,0
17939,note_on,,,,,59,0,8,,,,,7,,,75,0
17939,note_on,,,,,59,0,11,,,,,11,,,48,0
17940,note_on,,,,,53,0,10,,,,,10,,,67,71
17940,note_on,,,,,1,0,11,,,,,11,,,48,71
17940,note_on,,,,,8,0,5,,,,,4,,,48,100
17940,note_on,,,,,1,0,8,,,,,7,,,75,71
17940,note_on,,,,,6,0,9,,,,,8,,,72,71
17944,note_on,,,,,4,0,10,,,,,10,,,63,0
17997,note_on,,,,,57,0,9,,,,,8,,,72,0
17999,note_on,,,,,59,0,8,,,,,7,,,75,0
17999,note_on,,,,,59,0,11,,,,,11,,,48,0
18000,note_on,,,,,0,0,4,,,,,3,,,53,127
18000,note_on,,,,,60,0,5,,,,,4,,,53,89
18000,note_on,,,,,1,0,11,,,,,11,,,53,70
18000,note_on,,,,,3,0,9,,,,,8,,,72,70
18000,note_on,,,,,56,0,10,,,,,10,,,68,70
18000,note_on,,,,,1,0,8,,,,,7,,,73,70
18000,note_on,,,,,114,0,3,,,,,2,,,73,127
18000,note_on,,,,,111,0,4,,,,,3,,,48,0
18005,note_on,,,,,5,0,5,,,,,4,,,48,0
18006,note_on,,,,,6,0,3,,,,,2,,,75,0
18007,note_on,,,,,7,0,10,,,,,10,,,67,0
18050,note_on,,,,,50,0,9,,,,,8,,,72,0
18051,note_on,,,,,44,0,10,,,,,10,,,68,0
18056,note_on,,,,,51,0,5,,,,,4,,,53,0
18059,note_on,,,,,59,0,8,,,,,7,,,73,0
18059,note_on,,,,,59,0,11,,,,,11,,,53,0
18060,note_on,,,,,9,0,10,,,,,10,,,68,70
18060,note_on,,,,,4,0,5,,,,,4,,,53,89
18060,note_on,,,,,1,0,11,,,,,11,,,53,70
18060,note_on,,,,,10,0,9,,,,,8,,,72,70
18060,note_on,,,,,1,0,8,,,,,7,,,73,70
18116,note_on,,,,,110,0,3,,,,,2,,,72,0
18119,note_on,,,,,59,0,8,,,,,7,,,73,0
18119,note_on,,,,,59,0,11,,,,,11,,,53,0
18120,note_on,,,,,60,0,9,,,,,8,,,70,70
18120,note_on,,,,,4,0,3,,,,,2,,,70,127
18120,note_on,,,,,60,0,5,,,,,4,,,55,85
18120,note_on,,,,,1,0,11,,,,,11,,,55,70
18120,note_on,,,,,120,0,4,,,,,3,,,55,127
18120,note_on,,,,,1,0,8,,,,,7,,,73,70
18120,note_on,,,,,60,0,10,,,,,10,,,67,70
18124,note_on,,,,,4,0,5,,,,,4,,,53,0
18124,note_on,,,,,4,0,9,,,,,8,,,72,0
18126,note_on,,,,,6,0,10,,,,,10,,,68,0
18127,note_on,,,,,7,0,4,,,,,3,,,53,0
18165,note_on,,,,,41,0,9,,,,,8,,,70,0
18169,note_on,,,,,43,0,10,,,,,10,,,67,0
18175,note_on,,,,,51,0,5,,,,,4,,,55,0
18179,note_on,,,,,59,0,8,,,,,7,,,73,0
18179,note_on,,,,,59,0,11,,,,,11,,,55,0
18180,note_on,,,,,5,0,5,,,,,4,,,55,89
18180,note_on,,,,,1,0,11,,,,,11,,,55,69
18180,note_on,,,,,11,0,10,,,,,10,,,67,69
18180,note_on,,,,,1,0,8,,,,,7,,,73,69
18180,note_on,,,,,15,0,9,,,,,8,,,70,69
18237,note_on,,,,,110,0,4,,,,,3,,,55,0
18238,note_on,,,,,58,0,10,,,,,10,,,67,0
18239,note_on,,,,,59,0,11,,,,,11,,,55,0
18239,note_on,,,,,59,0,8,,,,,7,,,73,0
18240,note_on,,,,,2,0,10,,,,,10,,,67,69
18240,note_on,,,,,1,0,11,,,,,11,,,52,69
18240,note_on,,,,,120,0,3,,,,,2,,,72,127
18240,note_on,,,,,60,0,9,,,,,8,,,70,69
18240,note_on,,,,,1,0,8,,,,,7,,,72,69
18240,note_on,,,,,3,0,4,,,,,3,,,52,127
18240,note_on,,,,,60,0,5,,,,,4,,,52,82
18242,note_on,,,,,2,0,5,,,,,4,,,55,0
18243,note_on,,,,,3,0,3,,,,,2,,,73,0
18245,note_on,,,,,5,0,9,,,,,8,,,70,0
18291,note_on,,,,,51,0,10,,,,,10,,,67,0
18292,note_on,,,,,47,0,9,,,,,8,,,70,0
18294,note_on,,,,,52,0,5,,,,,4,,,52,0
18299,note_on,,,,,59,0,8,,,,,7,,,72,0
18299,note_on,,,,,59,0,11,,,,,11,,,52,0
18300,note_on,,,,,1,0,11,,,,,11,,,52,68
18300,note_on,,,,,1,0,8,,,,,7,,,72,68
18300,note_on,,,,,8,0,9,,,,,8,,,70,68
18300,note_on,,,,,6,0,5,,,,,4,,,52,82
18300,note_on,,,,,9,0,10,,,,,10,,,67,68
18359,note_on,,,,,59,0,8,,,,,7,,,72,0
18359,note_on,,,,,59,0,11,,,,,11,,,52,0
18360,note_on,,,,,1,0,11,,,,,11,,,53,68
18360,note_on,,,,,60,0,10,,,,,10,,,60,68
18360,note_on,,,,,60,0,9,,,,,8,,,68,68
18360,note_on,,,,,60,0,5,,,,,4,,,53,89
18360,note_on,,,,,1,0,8,,,,,7,,,77,68
18360,note_on,,,,,120,0,4,,,,,3,,,53,127
18360,note_on,,,,,117,0,3,,,,,2,,,68,127
18360,note_on,,,,,0,0,3,,,,,2,,,77,127
18363,note_on,,,,,3,0,3,,,,,2,,,72,0
18363,note_on,,,,,3,0,4,,,,,3,,,52,0
18366,note_on,,,,,6,0,10,,,,,10,,,67,0
18366,note_on,,,,,6,0,9,,,,,8,,,70,0
18366,note_on,,,,,6,0,5,,,,,4,,,52,0
18370,note_on,,,,,7,0,3,,,,,2,,,70,0
18411,note_on,,,,,45,0,9,,,,,8,,,68,0
18413,note_on,,,,,47,0,5,,,,,4,,,53,0
18418,note_on,,,,,52,0,10,,,,,10,,,60,0
18419,note_on,,,,,59,0,8,,,,,7,,,77,0
18419,note_on,,,,,59,0,11,,,,,11,,,53,0
18420,note_on,,,,,2,0,10,,,,,10,,,60,68
18420,note_on,,,,,1,0,11,,,,,11,,,53,68
18420,note_on,,,,,9,0,9,,,,,8,,,68,68
18420,note_on,,,,,7,0,5,,,,,4,,,53,82
18420,note_on,,,,,1,0,8,,,,,7,,,77,68
18479,note_on,,,,,59,0,8,,,,,7,,,77,0
18479,note_on,,,,,59,0,11,,,,,11,,,53,0
18480,note_on,,,,,60,0,5,,,,,4,,,46,87
18480,note_on,,,,,60,0,9,,,,,8,,,67,67
18480,note_on,,,,,117,0,4,,,,,3,,,46,127
18480,note_on,,,,,1,0,11,,,,,11,,,46,67
18480,note_on,,,,,110,0,3,,,,,2,,,67,127
18480,note_on,,,,,1,0,8,,,,,7,,,77,67
18480,note_on,,,,,60,0,10,,,,,10,,,61,67
18483,note_on,,,,,3,0,5,,,,,4,,,53,0
18484,note_on,,,,,4,0,9,,,,,8,,,68,0
18485,note_on,,,,,5,0,4,,,,,3,,,53,0
18487,note_on,,,,,7,0,10,,,,,10,,,60,0
18488,note_on,,,,,8,0,3,,,,,2,,,68,0
18529,note_on,,,,,42,0,10,,,,,10,,,61,0
18533,note_on,,,,,50,0,5,,,,,4,,,46,0
18534,note_on,,,,,50,0,9,,,,,8,,,67,0
18539,note_on,,,,,59,0,8,,,,,7,,,77,0
18539,note_on,,,,,59,0,11,,,,,11,,,46,0
18540,note_on,,,,,11,0,10,,,,,10,,,61,67
18540,note_on,,,,,1,0,8,,,,,7,,,77,67
18540,note_on,,,,,7,0,5,,,,,4,,,46,95
18540,note_on,,,,,1,0,11,,,,,11,,,46,67
18540,note_on,,,,,6,0,9,,,,,8,,,67,67
18595,note_on,,,,,55,0,9,,,,,8,,,67,0
18599,note_on,,,,,59,0,8,,,,,7,,,77,0
18599,note_on,,,,,59,0,11,,,,,11,,,46,0
18600,note_on,,,,,0,0,10,,,,,10,,,60,66
18600,note_on,,,,,112,0,3,,,,,2,,,76,127
18600,note_on,,,,,1,0,11,,,,,11,,,58,66
18600,note_on,,,,,5,0,9,,,,,8,,,67,66
18600,note_on,,,,,60,0,10,,,,,10,,,61,0
18600,note_on,,,,,60,0,5,,,,,4,,,46,0
18600,note_on,,,,,1,0,8,,,,,7,,,76,66
18600,note_on,,,,,0,0,5,,,,,4,,,58,82
18607,note_on,,,,,7,0,3,,,,,2,,,77,0
18649,note_on,,,,,49,0,9,,,,,8,,,67,0
18655,note_on,,,,,55,0,5,,,,,4,,,58,0
18659,note_on,,,,,59,0,11,,,,,11,,,58,0
18659,note_on,,,,,59,0,8,,,,,7,,,76,0
18660,note_on,,,,,1,0,8,,,,,7,,,76,66
18660,note_on,,,,,1,0,11,,,,,11,,,58,66
18660,note_on,,,,,11,0,9,,,,,8,,,67,66
18660,note_on,,,,,0,0,10,,,,,10,,,60,66
18660,note_on,,,,,60,0,10,,,,,10,,,60,0
18660,note_on,,,,,5,0,5,,,,,4,,,58,102
18712,note_on,,,,,105,0,3,,,,,2,,,76,0
18714,note_on,,,,,2,0,3,,,,,2,,,67,0
18716,note_on,,,,,56,0,10,,,,,10,,,60,0
18719,note_on,,,,,59,0,8,,,,,7,,,76,0
18719,note_on,,,,,59,0,11,,,,,11,,,58,0
18720,note_on,,,,,1,0,8,,,,,7,,,77,65
18720,note_on,,,,,1,0,11,,,,,11,,,57,65
18720,note_on,,,,,0,0,3,,,,,2,,,72,127
18720,note_on,,,,,235,0,4,,,,,3,,,45,127
18720,note_on,,,,,6,0,3,,,,,2,,,77,127
18720,note_on,,,,,60,0,9,,,,,8,,,72,65
18720,note_on,,,,,4,0,10,,,,,10,,,60,65
18720,note_on,,,,,60,0,5,,,,,4,,,57,80
18726,note_on,,,,,6,0,9,,,,,8,,,67,0
18727,note_on,,,,,7,0,5,,,,,4,,,58,0
18737,note_on,,,,,17,0,4,,,,,3,,,46,0
18769,note_on,,,,,43,0,9,,,,,8,,,72,0
18770,note_on,,,,,43,0,5,,,,,4,,,57,0
18772,note_on,,,,,52,0,10,,,,,10,,,60,0
18779,note_on,,,,,59,0,8,,,,,7,,,77,0
18779,note_on,,,,,59,0,11,,,,,11,,,57,0
18780,note_on,,,,,1,0,11,,,,,11,,,57,65
18780,note_on,,,,,11,0,9,,,,,8,,,72,65
18780,note_on,,,,,10,0,5,,,,,4,,,57,98
18780,note_on,,,,,1,0,8,,,,,7,,,77,65
18780,note_on,,,,,8,0,10,,,,,10,,,60,65
18838,note_on,,,,,58,0,10,,,,,10,,,60,0
18838,note_on,,,,,58,0,5,,,,,4,,,57,0
18839,note_on,,,,,59,0,8,,,,,7,,,77,0
18839,note_on,,,,,59,0,11,,,,,11,,,57,0
18839,note_on,,,,,59,0,9,,,,,8,,,72,0
18840,note_on,,,,,0,0,3,,,,,2,,,69,127
18840,note_on,,,,,103,0,4,,,,,3,,,53,127
18840,note_on,,,,,2,0,5,,,,,4,,,53,87
18840,note_on,,,,,1,0,8,,,,,7,,,75,65
18840,note_on,,,,,1,0,9,,,,,8,,,69,65
18840,note_on,,,,,1,0,11,,,,,11,,,53,65
18840,note_on,,,,,2,0,10,,,,,10,,,72,65
18840,note_on,,,,,120,0,3,,,,,2,,,75,127
18846,note_on,,,,,6,0,4,,,,,3,,,45,0
18851,note_on,,,,,11,0,3,,,,,2,,,72,0
18851,note_on,,,,,0,0,3,,,,,2,,,77,0
18892,note_on,,,,,52,0,10,,,,,10,,,72,0
18893,note_on,,,,,53,0,5,,,,,4,,,53,0
18895,note_on,,,,,55,0,9,,,,,8,,,69,0
18899,note_on,,,,,59,0,11,,,,,11,,,53,0
18899,note_on,,,,,59,0,8,,,,,7,,,75,0
18900,note_on,,,,,1,0,8,,,,,7,,,75,64
18900,note_on,,,,,1,0,11,,,,,11,,,53,64
18900,note_on,,,,,8,0,10,,,,,10,,,72,64
18900,note_on,,,,,7,0,5,,,,,4,,,53,76
18900,note_on,,,,,5,0,9,,,,,8,,,69,64
18959,note_on,,,,,59,0,8,,,,,7,,,75,0
18959,note_on,,,,,113,0,4,,,,,3,,,53,0
18959,note_on,,,,,59,0,11,,,,,11,,,53,0
18960,note_on,,,,,60,0,9,,,,,8,,,65,64
18960,note_on,,,,,60,0,5,,,,,4,,,58,68
18960,note_on,,,,,1,0,11,,,,,11,,,58,64
18960,note_on,,,,,1,0,4,,,,,3,,,58,127
18960,note_on,,,,,60,0,10,,,,,10,,,70,64
18960,note_on,,,,,109,0,3,,,,,2,,,74,127
18960,note_on,,,,,0,0,3,,,,,2,,,65,127
18960,note_on,,,,,1,0,8,,,,,7,,,74,64
18961,note_on,,,,,1,0,5,,,,,4,,,53,0
18965,note_on,,,,,5,0,3,,,,,2,,,69,0
18965,note_on,,,,,5,0,9,,,,,8,,,69,0
18966,note_on,,,,,1,0,3,,,,,2,,,75,0
18969,note_on,,,,,9,0,10,,,,,10,,,72,0
19012,note_on,,,,,47,0,9,,,,,8,,,65,0
19014,note_on,,,,,53,0,5,,,,,4,,,58,0
19015,note_on,,,,,46,0,10,,,,,10,,,70,0
19019,note_on,,,,,59,0,8,,,,,7,,,74,0
19019,note_on,,,,,59,0,11,,,,,11,,,58,0
19020,note_on,,,,,8,0,9,,,,,8,,,65,63
19020,note_on,,,,,5,0,10,,,,,10,,,70,63
19020,note_on,,,,,1,0,8,,,,,7,,,74,63
19020,note_on,,,,,6,0,5,,,,,4,,,58,95
19020,note_on,,,,,1,0,11,,,,,11,,,58,63
19078,note_on,,,,,58,0,10,,,,,10,,,70,0
19079,note_on,,,,,119,0,4,,,,,3,,,58,0
19079,note_on,,,,,59,0,8,,,,,7,,,74,0
19079,note_on,,,,,59,0,11,,,,,11,,,58,0
19080,note_on,,,,,1,0,11,,,,,11,,,46,63
19080,note_on,,,,,2,0,10,,,,,10,,,65,63
19080,note_on,,,,,60,0,9,,,,,8,,,70,63
19080,note_on,,,,,114,0,3,,,,,2,,,70,127
19080,note_on,,,,,1,0,4,,,,,3,,,46,127
19080,note_on,,,,,60,0,5,,,,,4,,,46,78
19080,note_on,,,,,1,0,8,,,,,7,,,74,63
19085,note_on,,,,,5,0,3,,,,,2,,,65,0
19086,note_on,,,,,6,0,5,,,,,4,,,58,0
19088,note_on,,,,,8,0,9,,,,,8,,,65,0
19128,note_on,,,,,40,0,9,,,,,8,,,70,0
19133,note_on,,,,,47,0,5,,,,,4,,,46,0
19134,note_on,,,,,54,0,10,,,,,10,,,65,0
19139,note_on,,,,,59,0,8,,,,,7,,,74,0
19139,note_on,,,,,59,0,11,,,,,11,,,46,0
19140,note_on,,,,,55,0,3,,,,,2,,,72,127
19140,note_on,,,,,12,0,9,,,,,8,,,70,63
19140,note_on,,,,,7,0,5,,,,,4,,,46,87
19140,note_on,,,,,1,0,11,,,,,11,,,46,63
19140,note_on,,,,,1,0,8,,,,,7,,,74,63
19140,note_on,,,,,6,0,10,,,,,10,,,65,63
19141,note_on,,,,,1,0,3,,,,,2,,,74,0
19186,note_on,,,,,45,0,3,,,,,2,,,70,0
19189,note_on,,,,,3,0,3,,,,,2,,,72,0
19196,note_on,,,,,56,0,10,,,,,10,,,65,0
19199,note_on,,,,,59,0,8,,,,,7,,,74,0
19199,note_on,,,,,59,0,11,,,,,11,,,46,0
19200,note_on,,,,,1,0,11,,,,,11,,,53,62
19200,note_on,,,,,1,0,8,,,,,7,,,72,62
19200,note_on,,,,,60,0,9,,,,,8,,,69,62
19200,note_on,,,,,4,0,10,,,,,10,,,65,62
19200,note_on,,,,,120,0,4,,,,,3,,,53,127
19200,note_on,,,,,60,0,5,,,,,4,,,53,82
19200,note_on,,,,,11,0,3,,,,,2,,,72,127
19200,note_on,,,,,0,0,3,,,,,2,,,69,127
19208,note_on,,,,,8,0,5,,,,,4,,,46,0
19209,note_on,,,,,9,0,9,,,,,8,,,70,0
19212,note_on,,,,,12,0,4,,,,,3,,,46,0
19255,note_on,,,,,47,0,5,,,,,4,,,53,0
19257,note_on,,,,,48,0,9,,,,,8,,,69,0
19259,note_on,,,,,59,0,8,,,,,7,,,72,0
19259,note_on,,,,,59,0,11,,,,,11,,,53,0
19260,note_on,,,,,3,0,9,,,,,8,,,72,62
19260,note_on,,,,,48,0,4,,,,,3,,,65,127
19260,note_on,,,,,60,0,10,,,,,10,,,69,62
19260,note_on,,,,,1,0,8,,,,,7,,,77,62
19260,note_on,,,,,1,0,11,,,,,11,,,53,62
19260,note_on,,,,,5,0,5,,,,,4,,,53,85
19262,note_on,,,,,2,0,10,,,,,10,,,65,0
19275,note_on,,,,,75,0,3,,,,,2,,,77,127
19278,note_on,,,,,3,0,3,,,,,2,,,69,0
19281,note_on,,,,,3,0,3,,,,,2,,,72,0
19289,note_on,,,,,8,0,3,,,,,2,,,77,0
19290,note_on,,,,,1,0,3,,,,,2,,,79,127
19299,note_on,,,,,39,0,4,,,,,3,,,53,0
19304,note_on,,,,,14,0,3,,,,,2,,,79,0
19305,note_on,,,,,1,0,3,,,,,2,,,81,127
19319,note_on,,,,,59,0,8,,,,,7,,,77,0
19319,note_on,,,,,14,0,3,,,,,2,,,81,0
19319,note_on,,,,,59,0,11,,,,,11,,,53,0
19320,note_on,,,,,58,0,10,,,,,10,,,65,61
19320,note_on,,,,,1,0,8,,,,,7,,,77,61
19320,note_on,,,,,1,0,11,,,,,11,,,50,61
19320,note_on,,,,,1,0,3,,,,,2,,,82,127
19320,note_on,,,,,21,0,4,,,,,3,,,62,127
19320,note_on,,,,,60,0,5,,,,,4,,,50,91
19320,note_on,,,,,60,0,9,,,,,8,,,70,61
19321,note_on,,,,,1,0,5,,,,,4,,,53,0
19322,note_on,,,,,2,0,4,,,,,3,,,65,0
19326,note_on,,,,,6,0,10,,,,,10,,,69,0
19326,note_on,,,,,6,0,9,,,,,8,,,72,0
19342,note_on,,,,,22,0,3,,,,,2,,,77,127
19345,note_on,,,,,3,0,3,,,,,2,,,82,0
19358,note_on,,,,,13,0,3,,,,,2,,,82,127
19361,note_on,,,,,3,0,3,,,,,2,,,77,0
19365,note_on,,,,,4,0,3,,,,,2,,,82,0
19371,note_on,,,,,6,0,3,,,,,2,,,84,127
19372,note_on,,,,,46,0,10,,,,,10,,,65,0
19375,note_on,,,,,4,0,3,,,,,2,,,82,127
19379,note_on,,,,,59,0,11,,,,,11,,,50,0
19379,note_on,,,,,59,0,8,,,,,7,,,77,0
19380,note_on,,,,,1,0,8,,,,,7,,,77,61
19380,note_on,,,,,0,0,9,,,,,8,,,74,61
19380,note_on,,,,,0,0,5,,,,,4,,,58,85
19380,note_on,,,,,58,0,4,,,,,3,,,58,127
19380,note_on,,,,,5,0,3,,,,,2,,,84,0
19380,note_on,,,,,59,0,5,,,,,4,,,50,0
19380,note_on,,,,,8,0,10,,,,,10,,,65,61
19380,note_on,,,,,1,0,11,,,,,11,,,58,61
19380,note_on,,,,,54,0,9,,,,,8,,,70,0
19382,note_on,,,,,2,0,4,,,,,3,,,62,0
19397,note_on,,,,,17,0,3,,,,,2,,,81,127
19398,note_on,,,,,1,0,3,,,,,2,,,82,0
19414,note_on,,,,,16,0,3,,,,,2,,,82,127
19416,note_on,,,,,2,0,3,,,,,2,,,81,0
19429,note_on,,,,,13,0,3,,,,,2,,,82,0
19437,note_on,,,,,8,0,3,,,,,2,,,84,127
19438,note_on,,,,,58,0,10,,,,,10,,,65,0
19439,note_on,,,,,59,0,11,,,,,11,,,58,0
19439,note_on,,,,,59,0,8,,,,,7,,,77,0
19440,note_on,,,,,1,0,11,,,,,11,,,57,60
19440,note_on,,,,,58,0,4,,,,,3,,,57,127
19440,note_on,,,,,2,0,10,,,,,10,,,69,60
19440,note_on,,,,,60,0,9,,,,,8,,,72,60
19440,note_on,,,,,60,0,5,,,,,4,,,58,0
19440,note_on,,,,,0,0,5,,,,,4,,,57,89
19440,note_on,,,,,1,0,8,,,,,7,,,77,60
19444,note_on,,,,,4,0,4,,,,,3,,,58,0
19446,note_on,,,,,6,0,9,,,,,8,,,74,0
19457,note_on,,,,,20,0,3,,,,,2,,,84,0
19459,note_on,,,,,2,0,3,,,,,2,,,77,127
19477,note_on,,,,,18,0,3,,,,,2,,,84,127
19479,note_on,,,,,2,0,3,,,,,2,,,77,0
19487,note_on,,,,,8,0,3,,,,,2,,,84,0
19496,note_on,,,,,9,0,3,,,,,2,,,86,127
19499,note_on,,,,,59,0,5,,,,,4,,,57,0
19499,note_on,,,,,59,0,11,,,,,11,,,57,0
19499,note_on,,,,,59,0,8,,,,,7,,,77,0
19499,note_on,,,,,3,0,3,,,,,2,,,84,127
19499,note_on,,,,,59,0,10,,,,,10,,,69,0
19500,note_on,,,,,1,0,5,,,,,4,,,53,89
19500,note_on,,,,,1,0,11,,,,,11,,,53,60
19500,note_on,,,,,56,0,4,,,,,3,,,53,127
19500,note_on,,,,,54,0,9,,,,,8,,,69,60
19500,note_on,,,,,1,0,10,,,,,10,,,72,60
19500,note_on,,,,,1,0,8,,,,,7,,,77,60
19502,note_on,,,,,2,0,9,,,,,8,,,72,0
19503,note_on,,,,,4,0,3,,,,,2,,,86,0
19506,note_on,,,,,6,0,4,,,,,3,,,57,0
19519,note_on,,,,,16,0,3,,,,,2,,,82,127
19521,note_on,,,,,2,0,3,,,,,2,,,84,0
19536,note_on,,,,,15,0,3,,,,,2,,,84,127
19538,note_on,,,,,2,0,3,,,,,2,,,82,0
19551,note_on,,,,,13,0,3,,,,,2,,,84,0
19556,note_on,,,,,54,0,9,,,,,8,,,69,0
19557,note_on,,,,,6,0,3,,,,,2,,,86,127
19557,note_on,,,,,57,0,10,,,,,10,,,72,0
19559,note_on,,,,,53,0,4,,,,,3,,,53,0
19559,note_on,,,,,59,0,8,,,,,7,,,77,0
19559,note_on,,,,,59,0,11,,,,,11,,,53,0
19560,note_on,,,,,4,0,9,,,,,8,,,74,60
19560,note_on,,,,,60,0,5,,,,,4,,,58,74
19560,note_on,,,,,1,0,4,,,,,3,,,58,127
19560,note_on,,,,,3,0,10,,,,,10,,,70,60
19560,note_on,,,,,1,0,8,,,,,7,,,77,60
19560,note_on,,,,,1,0,11,,,,,11,,,58,60
19563,note_on,,,,,3,0,5,,,,,4,,,53,0
19579,note_on,,,,,22,0,3,,,,,2,,,84,127
19583,note_on,,,,,4,0,3,,,,,2,,,86,0
19598,note_on,,,,,15,0,3,,,,,2,,,82,127
19599,note_on,,,,,1,0,3,,,,,2,,,84,0
19612,note_on,,,,,52,0,9,,,,,8,,,74,0
19612,note_on,,,,,52,0,4,,,,,3,,,58,0
19615,note_on,,,,,16,0,3,,,,,2,,,82,0
19617,note_on,,,,,2,0,3,,,,,2,,,86,127
19619,note_on,,,,,59,0,8,,,,,7,,,77,0
19619,note_on,,,,,59,0,11,,,,,11,,,58,0
19620,note_on,,,,,57,0,5,,,,,4,,,46,78
19620,note_on,,,,,8,0,9,,,,,8,,,74,59
19620,note_on,,,,,60,0,10,,,,,10,,,65,59
19620,note_on,,,,,1,0,11,,,,,11,,,46,59
19620,note_on,,,,,1,0,8,,,,,7,,,77,59
19620,note_on,,,,,8,0,4,,,,,3,,,46,127
19623,note_on,,,,,3,0,10,,,,,10,,,70,0
19627,note_on,,,,,7,0,5,,,,,4,,,58,0
19636,note_on,,,,,19,0,3,,,,,2,,,84,127
19640,note_on,,,,,4,0,3,,,,,2,,,86,0
19657,note_on,,,,,17,0,3,,,,,2,,,82,127
19662,note_on,,,,,5,0,3,,,,,2,,,84,0
19677,note_on,,,,,15,0,3,,,,,2,,,82,0
19678,note_on,,,,,1,0,3,,,,,2,,,81,127
19679,note_on,,,,,59,0,8,,,,,7,,,77,0
19679,note_on,,,,,59,0,11,,,,,11,,,46,0
19680,note_on,,,,,57,0,10,,,,,10,,,69,59
19680,note_on,,,,,53,0,5,,,,,4,,,53,87
19680,note_on,,,,,1,0,8,,,,,7,,,77,59
19680,note_on,,,,,1,0,11,,,,,11,,,53,59
19680,note_on,,,,,60,0,4,,,,,3,,,53,127
19680,note_on,,,,,60,0,9,,,,,8,,,72,59
19681,note_on,,,,,1,0,5,,,,,4,,,46,0
19682,note_on,,,,,2,0,10,,,,,10,,,65,0
19682,note_on,,,,,2,0,9,,,,,8,,,74,0
19684,note_on,,,,,4,0,4,,,,,3,,,46,0
19700,note_on,,,,,22,0,3,,,,,2,,,79,127
19701,note_on,,,,,1,0,3,,,,,2,,,81,0
19720,note_on,,,,,19,0,3,,,,,2,,,77,127
19722,note_on,,,,,2,0,3,,,,,2,,,79,0
19739,note_on,,,,,59,0,8,,,,,7,,,77,0
19739,note_on,,,,,59,0,11,,,,,11,,,53,0
19740,note_on,,,,,58,0,10,,,,,10,,,57,58
19740,note_on,,,,,56,0,4,,,,,3,,,51,127
19740,note_on,,,,,59,0,5,,,,,4,,,41,66
19740,note_on,,,,,1,0,8,,,,,7,,,65,58
19740,note_on,,,,,0,0,11,,,,,11,,,42,58
19740,note_on,,,,,1,0,11,,,,,11,,,41,58
19740,note_on,,,,,0,0,5,,,,,4,,,42,74
19740,note_on,,,,,58,0,9,,,,,8,,,60,58
19741,note_on,,,,,1,0,5,,,,,4,,,53,0
19742,note_on,,,,,20,0,3,,,,,2,,,65,127
19743,note_on,,,,,1,0,3,,,,,2,,,77,0
19743,note_on,,,,,3,0,9,,,,,8,,,72,0
19744,note_on,,,,,4,0,4,,,,,3,,,53,0
19747,note_on,,,,,7,0,10,,,,,10,,,69,0
19750,note_on,,,,,9,0,5,,,,,4,,,42,0
19763,note_on,,,,,20,0,3,,,,,2,,,67,127
19767,note_on,,,,,4,0,3,,,,,2,,,65,0
19784,note_on,,,,,17,0,3,,,,,2,,,69,127
19788,note_on,,,,,4,0,3,,,,,2,,,67,0
19797,note_on,,,,,50,0,10,,,,,10,,,57,0
19799,note_on,,,,,0,0,11,,,,,11,,,41,0
19799,note_on,,,,,59,0,11,,,,,11,,,42,0
19799,note_on,,,,,59,0,8,,,,,7,,,65,0
19800,note_on,,,,,1,0,11,,,,,11,,,38,58
19800,note_on,,,,,57,0,9,,,,,8,,,58,58
19800,note_on,,,,,56,0,4,,,,,3,,,50,127
19800,note_on,,,,,50,0,5,,,,,4,,,38,89
19800,note_on,,,,,3,0,10,,,,,10,,,53,58
19800,note_on,,,,,1,0,8,,,,,7,,,65,58
19804,note_on,,,,,16,0,3,,,,,2,,,70,127
19805,note_on,,,,,5,0,4,,,,,3,,,51,0
19805,note_on,,,,,5,0,9,,,,,8,,,60,0
19807,note_on,,,,,3,0,3,,,,,2,,,69,0
19807,note_on,,,,,7,0,5,,,,,4,,,41,0
19822,note_on,,,,,15,0,3,,,,,2,,,65,127
19824,note_on,,,,,2,0,3,,,,,2,,,70,0
19839,note_on,,,,,15,0,3,,,,,2,,,70,127
19840,note_on,,,,,1,0,3,,,,,2,,,65,0
19846,note_on,,,,,6,0,3,,,,,2,,,70,0
19856,note_on,,,,,10,0,3,,,,,2,,,72,127
19859,note_on,,,,,59,0,8,,,,,7,,,65,0
19859,note_on,,,,,59,0,11,,,,,11,,,38,0
19860,note_on,,,,,0,0,10,,,,,10,,,53,58
19860,note_on,,,,,60,0,10,,,,,10,,,53,0
19860,note_on,,,,,55,0,9,,,,,8,,,62,58
19860,note_on,,,,,1,0,8,,,,,7,,,65,58
19860,note_on,,,,,55,0,4,,,,,3,,,58,127
19860,note_on,,,,,1,0,11,,,,,11,,,46,58
19860,note_on,,,,,53,0,5,,,,,4,,,46,85
19862,note_on,,,,,2,0,9,,,,,8,,,58,0
19862,note_on,,,,,6,0,3,,,,,2,,,70,127
19863,note_on,,,,,3,0,4,,,,,3,,,50,0
19865,note_on,,,,,5,0,5,,,,,4,,,38,0
19866,note_on,,,,,4,0,3,,,,,2,,,72,0
19882,note_on,,,,,16,0,3,,,,,2,,,69,127
19883,note_on,,,,,1,0,3,,,,,2,,,70,0
19899,note_on,,,,,16,0,3,,,,,2,,,70,127
19903,note_on,,,,,4,0,3,,,,,2,,,69,0
19914,note_on,,,,,54,0,10,,,,,10,,,53,0
19919,note_on,,,,,59,0,11,,,,,11,,,46,0
19919,note_on,,,,,59,0,8,,,,,7,,,65,0
19919,note_on,,,,,16,0,3,,,,,2,,,72,127
19920,note_on,,,,,58,0,9,,,,,8,,,60,57
19920,note_on,,,,,1,0,11,,,,,11,,,45,57
19920,note_on,,,,,1,0,8,,,,,7,,,65,57
19920,note_on,,,,,57,0,4,,,,,3,,,57,127
19920,note_on,,,,,55,0,5,,,,,4,,,45,85
19920,note_on,,,,,6,0,10,,,,,10,,,57,57
19921,note_on,,,,,2,0,3,,,,,2,,,70,0
19922,note_on,,,,,2,0,9,,,,,8,,,62,0
19923,note_on,,,,,3,0,5,,,,,4,,,46,0
19924,note_on,,,,,4,0,4,,,,,3,,,58,0
19937,note_on,,,,,16,0,3,,,,,2,,,72,0
19939,note_on,,,,,2,0,3,,,,,2,,,65,127
19957,note_on,,,,,18,0,3,,,,,2,,,72,127
19962,note_on,,,,,5,0,3,,,,,2,,,65,0
19966,note_on,,,,,4,0,3,,,,,2,,,72,0
19974,note_on,,,,,8,0,3,,,,,2,,,74,127
19977,note_on,,,,,3,0,3,,,,,2,,,72,127
19979,note_on,,,,,59,0,11,,,,,11,,,45,0
19979,note_on,,,,,59,0,8,,,,,7,,,65,0
19980,note_on,,,,,1,0,8,,,,,7,,,65,57
19980,note_on,,,,,1,0,11,,,,,11,,,41,57
19980,note_on,,,,,58,0,9,,,,,8,,,57,57
19980,note_on,,,,,57,0,5,,,,,4,,,41,82
19980,note_on,,,,,60,0,10,,,,,10,,,60,57
19980,note_on,,,,,56,0,4,,,,,3,,,53,127
19981,note_on,,,,,1,0,9,,,,,8,,,60,0
19982,note_on,,,,,2,0,5,,,,,4,,,45,0
19983,note_on,,,,,3,0,10,,,,,10,,,57,0
19985,note_on,,,,,8,0,3,,,,,2,,,74,0
19986,note_on,,,,,6,0,4,,,,,3,,,57,0
19997,note_on,,,,,12,0,3,,,,,2,,,70,127
19998,note_on,,,,,1,0,3,,,,,2,,,72,0
20018,note_on,,,,,20,0,3,,,,,2,,,72,127
20022,note_on,,,,,4,0,3,,,,,2,,,70,0
20038,note_on,,,,,16,0,3,,,,,2,,,74,127
20039,note_on,,,,,59,0,11,,,,,11,,,41,0
20039,note_on,,,,,59,0,8,,,,,7,,,65,0
20040,note_on,,,,,57,0,10,,,,,10,,,58,56
20040,note_on,,,,,1,0,11,,,,,11,,,46,56
20040,note_on,,,,,0,0,4,,,,,3,,,58,127
20040,note_on,,,,,54,0,4,,,,,3,,,53,0
20040,note_on,,,,,59,0,9,,,,,8,,,62,56
20040,note_on,,,,,58,0,5,,,,,4,,,46,85
20040,note_on,,,,,1,0,8,,,,,7,,,65,56
20042,note_on,,,,,2,0,10,,,,,10,,,60,0
20042,note_on,,,,,4,0,3,,,,,2,,,72,0
20043,note_on,,,,,3,0,5,,,,,4,,,41,0
20044,note_on,,,,,4,0,9,,,,,8,,,57,0
20061,note_on,,,,,19,0,3,,,,,2,,,72,127
20065,note_on,,,,,4,0,3,,,,,2,,,74,0
20080,note_on,,,,,15,0,3,,,,,2,,,70,127
20083,note_on,,,,,3,0,3,,,,,2,,,72,0
20095,note_on,,,,,51,0,9,,,,,8,,,62,0
20096,note_on,,,,,13,0,3,,,,,2,,,70,0
20099,note_on,,,,,59,0,11,,,,,11,,,46,0
20099,note_on,,,,,59,0,8,,,,,7,,,65,0
20100,note_on,,,,,60,0,4,,,,,3,,,46,127
20100,note_on,,,,,57,0,5,,,,,4,,,46,87
20100,note_on,,,,,1,0,11,,,,,11,,,46,56
20100,note_on,,,,,58,0,10,,,,,10,,,53,56
20100,note_on,,,,,5,0,9,,,,,8,,,62,56
20100,note_on,,,,,1,0,8,,,,,7,,,65,56
20100,note_on,,,,,4,0,3,,,,,2,,,74,127
20102,note_on,,,,,2,0,5,,,,,4,,,46,0
20103,note_on,,,,,3,0,4,,,,,3,,,58,0
20106,note_on,,,,,6,0,10,,,,,10,,,58,0
20120,note_on,,,,,20,0,3,,,,,2,,,72,127
20126,note_on,,,,,6,0,3,,,,,2,,,74,0
20141,note_on,,,,,15,0,3,,,,,2,,,70,127
20145,note_on,,,,,4,0,3,,,,,2,,,72,0
20158,note_on,,,,,52,0,10,,,,,10,,,53,0
20159,note_on,,,,,59,0,8,,,,,7,,,65,0
20159,note_on,,,,,59,0,11,,,,,11,,,46,0
20160,note_on,,,,,57,0,4,,,,,3,,,53,127
20160,note_on,,,,,2,0,10,,,,,10,,,57,55
20160,note_on,,,,,1,0,11,,,,,11,,,53,55
20160,note_on,,,,,58,0,5,,,,,4,,,46,0
20160,note_on,,,,,0,0,5,,,,,4,,,53,82
20160,note_on,,,,,15,0,3,,,,,2,,,69,127
20160,note_on,,,,,0,0,9,,,,,8,,,60,55
20160,note_on,,,,,1,0,8,,,,,7,,,65,55
20160,note_on,,,,,60,0,9,,,,,8,,,62,0
20164,note_on,,,,,4,0,3,,,,,2,,,70,0
20166,note_on,,,,,6,0,4,,,,,3,,,46,0
20180,note_on,,,,,16,0,3,,,,,2,,,69,0
20180,note_on,,,,,0,0,3,,,,,2,,,67,127
20200,note_on,,,,,20,0,3,,,,,2,,,67,0
20200,note_on,,,,,0,0,3,,,,,2,,,65,127
20217,note_on,,,,,57,0,9,,,,,8,,,60,0
20219,note_on,,,,,59,0,11,,,,,11,,,53,0
20219,note_on,,,,,59,0,8,,,,,7,,,65,0
20220,note_on,,,,,3,0,9,,,,,8,,,70,100
20220,note_on,,,,,60,0,5,,,,,4,,,46,76
20220,note_on,,,,,1,0,8,,,,,7,,,74,100
20220,note_on,,,,,60,0,10,,,,,10,,,65,100
20220,note_on,,,,,1,0,11,,,,,11,,,46,100
20221,note_on,,,,,55,0,4,,,,,3,,,53,0
20221,note_on,,,,,1,0,5,,,,,4,,,53,0
20223,note_on,,,,,23,0,3,,,,,2,,,65,0
20223,note_on,,,,,3,0,10,,,,,10,,,57,0
20275,note_on,,,,,52,0,10,,,,,10,,,65,0
20275,note_on,,,,,55,0,9,,,,,8,,,70,0
20279,note_on,,,,,59,0,8,,,,,7,,,74,0
20279,note_on,,,,,59,0,11,,,,,11,,,46,0
20280,note_on,,,,,1,0,8,,,,,7,,,74,100
20280,note_on,,,,,5,0,10,,,,,10,,,65,100
20280,note_on,,,,,5,0,9,,,,,8,,,70,100
20280,note_on,,,,,59,0,5,,,,,4,,,50,89
20280,note_on,,,,,1,0,11,,,,,11,,,50,100
20285,note_on,,,,,5,0,5,,,,,4,,,46,0
20335,note_on,,,,,55,0,9,,,,,8,,,70,0
20337,note_on,,,,,57,0,10,,,,,10,,,65,0
20339,note_on,,,,,59,0,11,,,,,11,,,50,0
20339,note_on,,,,,59,0,8,,,,,7,,,74,0
20340,note_on,,,,,5,0,9,,,,,8,,,70,101
20340,note_on,,,,,55,0,5,,,,,4,,,46,78
20340,note_on,,,,,3,0,10,,,,,10,,,65,101
20340,note_on,,,,,1,0,11,,,,,11,,,46,101
20340,note_on,,,,,1,0,8,,,,,7,,,74,101
20345,note_on,,,,,5,0,5,,,,,4,,,50,0
20395,note_on,,,,,55,0,9,,,,,8,,,70,0
20395,note_on,,,,,55,0,10,,,,,10,,,65,0
20399,note_on,,,,,59,0,8,,,,,7,,,74,0
20399,note_on,,,,,59,0,11,,,,,11,,,46,0
20400,note_on,,,,,5,0,9,,,,,8,,,70,102
20400,note_on,,,,,1,0,11,,,,,11,,,53,102
20400,note_on,,,,,5,0,10,,,,,10,,,65,102
20400,note_on,,,,,1,0,8,,,,,7,,,72,102
20400,note_on,,,,,0,0,5,,,,,4,,,53,87
20400,note_on,,,,,55,0,5,,,,,4,,,46,0
20453,note_on,,,,,53,0,10,,,,,10,,,65,0
20456,note_on,,,,,56,0,5,,,,,4,,,53,0
20459,note_on,,,,,59,0,8,,,,,7,,,72,0
20459,note_on,,,,,59,0,11,,,,,11,,,53,0
20460,note_on,,,,,7,0,10,,,,,10,,,65,102
20460,note_on,,,,,1,0,8,,,,,7,,,72,102
20460,note_on,,,,,1,0,11,,,,,11,,,53,102
20460,note_on,,,,,4,0,5,,,,,4,,,53,98
20460,note_on,,,,,60,0,9,,,,,8,,,69,102
20463,note_on,,,,,3,0,9,,,,,8,,,70,0
20490,note_on,,,,,0,0,9,,,,,8,,,67,103
20490,note_on,,,,,27,0,9,,,,,8,,,69,0
20516,note_on,,,,,56,0,5,,,,,4,,,53,0
20519,note_on,,,,,59,0,8,,,,,7,,,72,0
20519,note_on,,,,,59,0,11,,,,,11,,,53,0
20520,note_on,,,,,60,0,10,,,,,10,,,60,103
20520,note_on,,,,,30,0,9,,,,,8,,,69,103
20520,note_on,,,,,1,0,8,,,,,7,,,77,103
20520,note_on,,,,,1,0,11,,,,,11,,,53,103
20520,note_on,,,,,4,0,5,,,,,4,,,53,89
20523,note_on,,,,,3,0,9,,,,,8,,,67,0
20524,note_on,,,,,4,0,10,,,,,10,,,65,0
20574,note_on,,,,,54,0,5,,,,,4,,,53,0
20578,note_on,,,,,55,0,9,,,,,8,,,69,0
20579,note_on,,,,,59,0,8,,,,,7,,,77,0
20579,note_on,,,,,59,0,11,,,,,11,,,53,0
20580,note_on,,,,,6,0,5,,,,,4,,,53,87
20580,note_on,,,,,0,0,10,,,,,10,,,60,104
20580,note_on,,,,,2,0,9,,,,,8,,,69,104
20580,note_on,,,,,1,0,8,,,,,7,,,77,104
20580,note_on,,,,,56,0,10,,,,,10,,,60,0
20580,note_on,,,,,1,0,11,,,,,11,,,53,104
20634,note_on,,,,,54,0,10,,,,,10,,,60,0
20639,note_on,,,,,59,0,8,,,,,7,,,77,0
20639,note_on,,,,,59,0,11,,,,,11,,,53,0
20640,note_on,,,,,1,0,11,,,,,11,,,48,104
20640,note_on,,,,,60,0,9,,,,,8,,,67,104
20640,note_on,,,,,1,0,8,,,,,7,,,77,104
20640,note_on,,,,,6,0,10,,,,,10,,,60,104
20640,note_on,,,,,60,0,5,,,,,4,,,48,93
20643,note_on,,,,,3,0,5,,,,,4,,,53,0
20643,note_on,,,,,3,0,9,,,,,8,,,69,0
20692,note_on,,,,,52,0,10,,,,,10,,,60,0
20693,note_on,,,,,50,0,9,,,,,8,,,67,0
20699,note_on,,,,,59,0,11,,,,,11,,,48,0
20699,note_on,,,,,59,0,8,,,,,7,,,77,0
20700,note_on,,,,,1,0,11,,,,,11,,,48,105
20700,note_on,,,,,0,0,5,,,,,4,,,48,89
20700,note_on,,,,,8,0,10,,,,,10,,,60,105
20700,note_on,,,,,57,0,5,,,,,4,,,48,0
20700,note_on,,,,,1,0,8,,,,,7,,,77,105
20700,note_on,,,,,7,0,9,,,,,8,,,67,105
20751,note_on,,,,,51,0,5,,,,,4,,,48,0
20756,note_on,,,,,56,0,9,,,,,8,,,67,0
20759,note_on,,,,,59,0,8,,,,,7,,,77,0
20759,note_on,,,,,59,0,11,,,,,11,,,48,0
20760,note_on,,,,,4,0,9,,,,,8,,,72,106
20760,note_on,,,,,9,0,5,,,,,4,,,48,95
20760,note_on,,,,,1,0,11,,,,,11,,,48,106
20760,note_on,,,,,60,0,10,,,,,10,,,67,106
20760,note_on,,,,,1,0,8,,,,,7,,,75,106
20761,note_on,,,,,1,0,10,,,,,10,,,60,0
20812,note_on,,,,,52,0,5,,,,,4,,,48,0
20819,note_on,,,,,59,0,8,,,,,7,,,75,0
20819,note_on,,,,,59,0,11,,,,,11,,,48,0
20820,note_on,,,,,1,0,11,,,,,11,,,48,106
20820,note_on,,,,,59,0,10,,,,,10,,,60,106
20820,note_on,,,,,8,0,5,,,,,4,,,48,87
20820,note_on,,,,,60,0,9,,,,,8,,,70,106
20820,note_on,,,,,1,0,8,,,,,7,,,75,106
20821,note_on,,,,,1,0,9,,,,,8,,,72,0
20823,note_on,,,,,3,0,10,,,,,10,,,67,0
20875,note_on,,,,,52,0,10,,,,,10,,,60,0
20879,note_on,,,,,59,0,11,,,,,11,,,48,0
20879,note_on,,,,,59,0,8,,,,,7,,,75,0
20880,note_on,,,,,59,0,9,,,,,8,,,69,107
20880,note_on,,,,,5,0,10,,,,,10,,,60,107
20880,note_on,,,,,60,0,5,,,,,4,,,41,89
20880,note_on,,,,,1,0,8,,,,,7,,,75,107
20880,note_on,,,,,1,0,11,,,,,11,,,41,107
20883,note_on,,,,,3,0,9,,,,,8,,,70,0
20883,note_on,,,,,3,0,5,,,,,4,,,48,0
20939,note_on,,,,,59,0,8,,,,,7,,,75,0
20939,note_on,,,,,59,0,11,,,,,11,,,41,0
20940,note_on,,,,,1,0,11,,,,,11,,,46,108
20940,note_on,,,,,1,0,8,,,,,7,,,74,108
20940,note_on,,,,,57,0,5,,,,,4,,,46,95
20940,note_on,,,,,60,0,10,,,,,10,,,62,108
20940,note_on,,,,,57,0,9,,,,,8,,,70,108
20942,note_on,,,,,2,0,10,,,,,10,,,60,0
20943,note_on,,,,,3,0,5,,,,,4,,,41,0
20945,note_on,,,,,5,0,9,,,,,8,,,69,0
20970,note_on,,,,,28,0,10,,,,,10,,,63,108
20973,note_on,,,,,3,0,10,,,,,10,,,62,0
20993,note_on,,,,,48,0,9,,,,,8,,,70,0
20999,note_on,,,,,59,0,11,,,,,11,,,46,0
21000,note_on,,,,,7,0,9,,,,,8,,,70,108
21000,note_on,,,,,27,0,10,,,,,10,,,65,108
21000,note_on,,,,,60,0,8,,,,,7,,,72,108
21000,note_on,,,,,1,0,11,,,,,11,,,53,108
21000,note_on,,,,,57,0,5,,,,,4,,,53,85
21001,note_on,,,,,1,0,5,,,,,4,,,46,0
21002,note_on,,,,,2,0,10,,,,,10,,,63,0
21003,note_on,,,,,3,0,8,,,,,7,,,74,0
21059,note_on,,,,,59,0,11,,,,,11,,,53,0
21060,note_on,,,,,59,0,5,,,,,4,,,41,85
21060,note_on,,,,,1,0,11,,,,,11,,,41,109
21060,note_on,,,,,58,0,10,,,,,10,,,65,0
21060,note_on,,,,,57,0,8,,,,,7,,,74,109
21060,note_on,,,,,0,0,10,,,,,10,,,65,109
21060,note_on,,,,,60,0,9,,,,,8,,,69,109
21062,note_on,,,,,2,0,5,,,,,4,,,53,0
21064,note_on,,,,,4,0,9,,,,,8,,,70,0
21067,note_on,,,,,7,0,8,,,,,7,,,72,0
21090,note_on,,,,,23,0,8,,,,,7,,,75,109
21094,note_on,,,,,4,0,8,,,,,7,,,74,0
21113,note_on,,,,,53,0,10,,,,,10,,,65,0
21119,note_on,,,,,59,0,11,,,,,11,,,41,0
21120,note_on,,,,,58,0,5,,,,,4,,,46,91
21120,note_on,,,,,56,0,9,,,,,8,,,70,110
21120,note_on,,,,,26,0,8,,,,,7,,,75,0
21120,note_on,,,,,7,0,10,,,,,10,,,65,110
21120,note_on,,,,,1,0,11,,,,,11,,,46,110
21120,note_on,,,,,0,0,8,,,,,7,,,74,110
21124,note_on,,,,,4,0,9,,,,,8,,,69,0
21129,note_on,,,,,9,0,5,,,,,4,,,41,0
21180,note_on,,,,,959,0,4,,,,,3,,,58,93
21180,note_on,,,,,957,0,3,,,,,2,,,77,105
21220,note_on,,,,,40,0,3,,,,,2,,,65,80
21224,note_on,,,,,4,0,3,,,,,2,,,77,0
21239,note_on,,,,,119,0,11,,,,,11,,,46,0
21239,note_on,,,,,110,0,5,,,,,4,,,46,0
21240,note_on,,,,,60,0,4,,,,,3,,,58,0
21240,note_on,,,,,0,0,4,,,,,3,,,57,87
21240,note_on,,,,,16,0,3,,,,,2,,,77,110
21242,note_on,,,,,2,0,3,,,,,2,,,65,0
21246,note_on,,,,,126,0,10,,,,,10,,,65,0
21248,note_on,,,,,128,0,8,,,,,7,,,74,0
21253,note_on,,,,,129,0,9,,,,,8,,,70,0
21277,note_on,,,,,35,0,3,,,,,2,,,77,0
21280,note_on,,,,,3,0,3,,,,,2,,,65,98
21296,note_on,,,,,56,0,4,,,,,3,,,57,0
21297,note_on,,,,,17,0,3,,,,,2,,,65,0
21300,note_on,,,,,3,0,3,,,,,2,,,77,107
21300,note_on,,,,,4,0,4,,,,,3,,,53,98
21339,note_on,,,,,39,0,3,,,,,2,,,77,0
21340,note_on,,,,,1,0,3,,,,,2,,,65,87
21356,note_on,,,,,56,0,4,,,,,3,,,53,0
21359,note_on,,,,,19,0,3,,,,,2,,,65,0
21360,note_on,,,,,1,0,3,,,,,2,,,77,113
21360,note_on,,,,,4,0,4,,,,,3,,,58,89
21400,note_on,,,,,0,0,3,,,,,2,,,65,100
21400,note_on,,,,,40,0,3,,,,,2,,,77,0
21417,note_on,,,,,57,0,4,,,,,3,,,58,0
21418,note_on,,,,,18,0,3,,,,,2,,,65,0
21420,note_on,,,,,2,0,3,,,,,2,,,77,110
21420,note_on,,,,,3,0,4,,,,,3,,,53,95
21459,note_on,,,,,39,0,3,,,,,2,,,77,0
21460,note_on,,,,,1,0,3,,,,,2,,,65,82
21476,note_on,,,,,56,0,4,,,,,3,,,53,0
21480,note_on,,,,,4,0,4,,,,,3,,,46,80
21480,note_on,,,,,20,0,3,,,,,2,,,77,113
21481,note_on,,,,,1,0,3,,,,,2,,,65,0
21500,note_on,,,,,0,0,3,,,,,2,,,75,100
21500,note_on,,,,,19,0,3,,,,,2,,,77,0
21520,note_on,,,,,20,0,3,,,,,2,,,74,85
21523,note_on,,,,,3,0,3,,,,,2,,,75,0
21540,note_on,,,,,17,0,3,,,,,2,,,74,0
21540,note_on,,,,,0,0,3,,,,,2,,,72,85
21540,note_on,,,,,60,0,4,,,,,3,,,50,85
21542,note_on,,,,,2,0,4,,,,,3,,,46,0
21560,note_on,,,,,20,0,3,,,,,2,,,70,63
21563,note_on,,,,,3,0,3,,,,,2,,,72,0
21580,note_on,,,,,17,0,3,,,,,2,,,68,66
21587,note_on,,,,,7,0,3,,,,,2,,,70,0
21600,note_on,,,,,13,0,3,,,,,2,,,67,85
21600,note_on,,,,,58,0,4,,,,,3,,,51,93
21602,note_on,,,,,2,0,3,,,,,2,,,68,0
21604,note_on,,,,,4,0,4,,,,,3,,,50,0
21620,note_on,,,,,18,0,3,,,,,2,,,65,89
21626,note_on,,,,,6,0,3,,,,,2,,,67,0
21639,note_on,,,,,13,0,3,,,,,2,,,65,0
21640,note_on,,,,,1,0,3,,,,,2,,,63,100
21660,note_on,,,,,0,0,3,,,,,2,,,79,102
21660,note_on,,,,,20,0,3,,,,,2,,,63,0
21660,note_on,,,,,56,0,4,,,,,3,,,58,100
21666,note_on,,,,,6,0,4,,,,,3,,,51,0
21700,note_on,,,,,40,0,3,,,,,2,,,67,78
21702,note_on,,,,,2,0,3,,,,,2,,,79,0
21720,note_on,,,,,0,0,3,,,,,2,,,79,119
21720,note_on,,,,,18,0,3,,,,,2,,,67,0
21720,note_on,,,,,54,0,4,,,,,3,,,55,87
21721,note_on,,,,,1,0,4,,,,,3,,,58,0
21760,note_on,,,,,40,0,3,,,,,2,,,67,85
21762,note_on,,,,,2,0,3,,,,,2,,,79,0
21774,note_on,,,,,12,0,3,,,,,2,,,67,0
21778,note_on,,,,,57,0,4,,,,,3,,,55,0
21780,note_on,,,,,6,0,3,,,,,2,,,79,113
21780,note_on,,,,,2,0,4,,,,,3,,,51,95
21820,note_on,,,,,40,0,3,,,,,2,,,67,80
21822,note_on,,,,,2,0,3,,,,,2,,,79,0
21837,note_on,,,,,15,0,3,,,,,2,,,67,0
21840,note_on,,,,,60,0,4,,,,,3,,,48,87
21840,note_on,,,,,3,0,3,,,,,2,,,79,113
21844,note_on,,,,,4,0,4,,,,,3,,,51,0
21880,note_on,,,,,40,0,3,,,,,2,,,67,89
21883,note_on,,,,,3,0,3,,,,,2,,,79,0
21897,note_on,,,,,14,0,3,,,,,2,,,67,0
21900,note_on,,,,,3,0,3,,,,,2,,,79,110
21900,note_on,,,,,56,0,4,,,,,3,,,55,85
21903,note_on,,,,,3,0,4,,,,,3,,,48,0
21940,note_on,,,,,40,0,3,,,,,2,,,67,98
21941,note_on,,,,,1,0,3,,,,,2,,,79,0
21960,note_on,,,,,19,0,3,,,,,2,,,79,110
21960,note_on,,,,,57,0,4,,,,,3,,,60,93
21962,note_on,,,,,2,0,3,,,,,2,,,67,0
21967,note_on,,,,,7,0,4,,,,,3,,,55,0
21980,note_on,,,,,18,0,3,,,,,2,,,77,95
21988,note_on,,,,,8,0,3,,,,,2,,,79,0
22000,note_on,,,,,12,0,3,,,,,2,,,75,105
22001,note_on,,,,,1,0,3,,,,,2,,,77,0
22020,note_on,,,,,0,0,4,,,,,3,,,51,80
22020,note_on,,,,,53,0,4,,,,,3,,,60,0
22020,note_on,,,,,19,0,3,,,,,2,,,74,95
22021,note_on,,,,,1,0,3,,,,,2,,,75,0
22037,note_on,,,,,16,0,3,,,,,2,,,74,0
22040,note_on,,,,,3,0,3,,,,,2,,,72,82
22060,note_on,,,,,20,0,3,,,,,2,,,70,85
22061,note_on,,,,,1,0,3,,,,,2,,,72,0
22079,note_on,,,,,18,0,3,,,,,2,,,70,0
22080,note_on,,,,,1,0,3,,,,,2,,,69,89
22080,note_on,,,,,60,0,4,,,,,3,,,53,102
22085,note_on,,,,,5,0,4,,,,,3,,,51,0
22100,note_on,,,,,20,0,3,,,,,2,,,67,89
22105,note_on,,,,,5,0,3,,,,,2,,,69,0
22119,note_on,,,,,14,0,3,,,,,2,,,67,0
22120,note_on,,,,,1,0,3,,,,,2,,,65,89
22140,note_on,,,,,20,0,3,,,,,2,,,65,0
22140,note_on,,,,,0,0,3,,,,,2,,,77,100
22140,note_on,,,,,0,0,3,,,,,2,,,69,100
22140,note_on,,,,,55,0,4,,,,,3,,,62,113
22141,note_on,,,,,1,0,4,,,,,3,,,53,0
22160,note_on,,,,,19,0,4,,,,,3,,,63,105
22165,note_on,,,,,5,0,4,,,,,3,,,62,0
22180,note_on,,,,,15,0,4,,,,,3,,,65,89
22182,note_on,,,,,2,0,4,,,,,3,,,63,0
22190,note_on,,,,,50,0,3,,,,,2,,,77,0
22194,note_on,,,,,4,0,3,,,,,2,,,69,0
22200,note_on,,,,,6,0,3,,,,,2,,,77,102
22200,note_on,,,,,0,0,3,,,,,2,,,70,100
22200,note_on,,,,,18,0,4,,,,,3,,,55,85
22203,note_on,,,,,3,0,4,,,,,3,,,65,0
22220,note_on,,,,,17,0,4,,,,,3,,,57,72
22222,note_on,,,,,2,0,4,,,,,3,,,55,0
22240,note_on,,,,,18,0,4,,,,,3,,,58,98
22241,note_on,,,,,1,0,4,,,,,3,,,57,0
22257,note_on,,,,,57,0,3,,,,,2,,,70,0
22260,note_on,,,,,3,0,3,,,,,2,,,75,89
22260,note_on,,,,,19,0,4,,,,,3,,,60,100
22260,note_on,,,,,0,0,3,,,,,2,,,70,98
22261,note_on,,,,,1,0,3,,,,,2,,,77,0
22263,note_on,,,,,3,0,4,,,,,3,,,58,0
22280,note_on,,,,,17,0,4,,,,,3,,,62,102
22292,note_on,,,,,12,0,4,,,,,3,,,60,0
22300,note_on,,,,,8,0,4,,,,,3,,,63,102
22302,note_on,,,,,2,0,4,,,,,3,,,62,0
22309,note_on,,,,,48,0,3,,,,,2,,,75,0
22316,note_on,,,,,7,0,3,,,,,2,,,70,0
22320,note_on,,,,,18,0,4,,,,,3,,,53,85
22320,note_on,,,,,0,0,3,,,,,2,,,75,98
22320,note_on,,,,,4,0,3,,,,,2,,,69,91
22322,note_on,,,,,2,0,4,,,,,3,,,63,0
22340,note_on,,,,,18,0,4,,,,,3,,,55,80
22347,note_on,,,,,7,0,4,,,,,3,,,53,0
22360,note_on,,,,,13,0,4,,,,,3,,,55,0
22360,note_on,,,,,0,0,4,,,,,3,,,57,100
22377,note_on,,,,,57,0,3,,,,,2,,,75,0
22380,note_on,,,,,0,0,4,,,,,3,,,58,95
22380,note_on,,,,,3,0,3,,,,,2,,,74,87
22380,note_on,,,,,20,0,4,,,,,3,,,57,0
22400,note_on,,,,,20,0,4,,,,,3,,,60,85
22403,note_on,,,,,3,0,4,,,,,3,,,58,0
22420,note_on,,,,,0,0,4,,,,,3,,,62,105
22420,note_on,,,,,17,0,4,,,,,3,,,60,0
22436,note_on,,,,,56,0,3,,,,,2,,,74,0
22438,note_on,,,,,2,0,3,,,,,2,,,69,0
22440,note_on,,,,,2,0,3,,,,,2,,,67,102
22440,note_on,,,,,20,0,4,,,,,3,,,51,105
22443,note_on,,,,,3,0,4,,,,,3,,,62,0
22460,note_on,,,,,20,0,3,,,,,2,,,69,100
22463,note_on,,,,,3,0,3,,,,,2,,,67,0
22480,note_on,,,,,17,0,3,,,,,2,,,70,102
22483,note_on,,,,,3,0,3,,,,,2,,,69,0
22500,note_on,,,,,17,0,3,,,,,2,,,72,89
22500,note_on,,,,,57,0,4,,,,,3,,,63,107
22501,note_on,,,,,1,0,3,,,,,2,,,70,0
22505,note_on,,,,,5,0,4,,,,,3,,,51,0
22520,note_on,,,,,19,0,3,,,,,2,,,74,87
22524,note_on,,,,,4,0,3,,,,,2,,,72,0
22540,note_on,,,,,16,0,3,,,,,2,,,75,100
22545,note_on,,,,,5,0,3,,,,,2,,,74,0
22559,note_on,,,,,14,0,3,,,,,2,,,75,0
22560,note_on,,,,,1,0,3,,,,,2,,,65,87
22580,note_on,,,,,20,0,3,,,,,2,,,67,87
22583,note_on,,,,,3,0,3,,,,,2,,,65,0
22600,note_on,,,,,17,0,3,,,,,2,,,69,98
22604,note_on,,,,,4,0,3,,,,,2,,,67,0
22619,note_on,,,,,114,0,4,,,,,3,,,63,0
22620,note_on,,,,,16,0,3,,,,,2,,,70,102
22620,note_on,,,,,1,0,4,,,,,3,,,62,105
22626,note_on,,,,,6,0,3,,,,,2,,,69,0
22637,note_on,,,,,11,0,3,,,,,2,,,70,0
22640,note_on,,,,,3,0,3,,,,,2,,,72,82
22660,note_on,,,,,20,0,3,,,,,2,,,74,85
22661,note_on,,,,,1,0,3,,,,,2,,,72,0
22677,note_on,,,,,57,0,4,,,,,3,,,62,0
22679,note_on,,,,,18,0,3,,,,,2,,,70,100
22680,note_on,,,,,3,0,4,,,,,3,,,60,100
22680,note_on,,,,,1,0,3,,,,,2,,,75,110
22683,note_on,,,,,3,0,3,,,,,2,,,74,0
22700,note_on,,,,,17,0,3,,,,,2,,,77,80
22702,note_on,,,,,2,0,3,,,,,2,,,75,0
22720,note_on,,,,,18,0,3,,,,,2,,,79,82
22723,note_on,,,,,3,0,3,,,,,2,,,77,0
22736,note_on,,,,,13,0,3,,,,,2,,,69,89
22738,note_on,,,,,2,0,3,,,,,2,,,70,0
22740,note_on,,,,,2,0,3,,,,,2,,,77,100
22740,note_on,,,,,60,0,4,,,,,3,,,53,93
22741,note_on,,,,,1,0,3,,,,,2,,,79,0
22742,note_on,,,,,2,0,4,,,,,3,,,60,0
22760,note_on,,,,,19,0,3,,,,,2,,,79,80
22761,note_on,,,,,1,0,3,,,,,2,,,77,0
22780,note_on,,,,,19,0,3,,,,,2,,,75,107
22784,note_on,,,,,4,0,3,,,,,2,,,79,0
22788,note_on,,,,,4,0,3,,,,,2,,,69,0
22800,note_on,,,,,58,0,4,,,,,3,,,58,102
22800,note_on,,,,,12,0,3,,,,,2,,,74,89
22801,note_on,,,,,1,0,4,,,,,3,,,53,0
22801,note_on,,,,,1,0,3,,,,,2,,,75,0
22820,note_on,,,,,19,0,3,,,,,2,,,72,62
22822,note_on,,,,,2,0,3,,,,,2,,,74,0
22840,note_on,,,,,18,0,3,,,,,2,,,70,87
22846,note_on,,,,,6,0,3,,,,,2,,,72,0
22853,note_on,,,,,52,0,4,,,,,3,,,58,0
22856,note_on,,,,,10,0,3,,,,,2,,,70,0
22860,note_on,,,,,4,0,3,,,,,2,,,79,85
22860,note_on,,,,,7,0,4,,,,,3,,,58,105
22880,note_on,,,,,20,0,3,,,,,2,,,77,85
22881,note_on,,,,,1,0,3,,,,,2,,,79,0
22900,note_on,,,,,0,0,4,,,,,3,,,46,102
22900,note_on,,,,,19,0,3,,,,,2,,,75,89
22900,note_on,,,,,40,0,4,,,,,3,,,58,0
22904,note_on,,,,,4,0,3,,,,,2,,,77,0
22920,note_on,,,,,0,0,3,,,,,2,,,74,82
22920,note_on,,,,,16,0,3,,,,,2,,,75,0
22920,note_on,,,,,20,0,4,,,,,3,,,58,113
22922,note_on,,,,,2,0,4,,,,,3,,,46,0
22940,note_on,,,,,20,0,3,,,,,2,,,72,63
22945,note_on,,,,,5,0,3,,,,,2,,,74,0
22959,note_on,,,,,37,0,4,,,,,3,,,58,0
22960,note_on,,,,,1,0,4,,,,,3,,,46,107
22960,note_on,,,,,15,0,3,,,,,2,,,70,89
22965,note_on,,,,,5,0,3,,,,,2,,,72,0
22973,note_on,,,,,8,0,3,,,,,2,,,70,0
22980,note_on,,,,,20,0,4,,,,,3,,,46,0
22980,note_on,,,,,16625,0,2,,,,,1,,,58,113
22980,note_on,,,,,16625,0,1,,,,,0,,,79,82
23000,note_on,,,,,20,0,1,,,,,0,,,77,80
23004,note_on,,,,,4,0,1,,,,,0,,,79,0
23020,note_on,,,,,0,0,2,,,,,1,,,46,107
23020,note_on,,,,,16,0,1,,,,,0,,,75,89
23020,note_on,,,,,40,0,2,,,,,1,,,58,0
23024,note_on,,,,,4,0,1,,,,,0,,,77,0
23039,note_on,,,,,15,0,1,,,,,0,,,75,0
23040,note_on,,,,,20,0,2,,,,,1,,,58,116
23040,note_on,,,,,1,0,1,,,,,0,,,74,98
23041,note_on,,,,,1,0,2,,,,,1,,,46,0
23060,note_on,,,,,20,0,1,,,,,0,,,72,68
23067,note_on,,,,,7,0,1,,,,,0,,,74,0
23079,note_on,,,,,38,0,2,,,,,1,,,58,0
23080,note_on,,,,,1,0,2,,,,,1,,,46,116
23080,note_on,,,,,13,0,1,,,,,0,,,70,95
23081,note_on,,,,,1,0,1,,,,,0,,,72,0
23096,note_on,,,,,15,0,1,,,,,0,,,70,0
23099,note_on,,,,,19,0,2,,,,,1,,,46,0
23100,note_on,,,,,127,0,3,,,,,2,,,79,87
23100,note_on,,,,,120,0,4,,,,,3,,,58,122
23120,note_on,,,,,20,0,3,,,,,2,,,77,85
23122,note_on,,,,,2,0,3,,,,,2,,,79,0
23140,note_on,,,,,40,0,4,,,,,3,,,58,0
23140,note_on,,,,,0,0,4,,,,,3,,,46,107
23140,note_on,,,,,18,0,3,,,,,2,,,75,87
23141,note_on,,,,,1,0,3,,,,,2,,,77,0
23159,note_on,,,,,18,0,3,,,,,2,,,75,0
23160,note_on,,,,,1,0,3,,,,,2,,,77,87
23160,note_on,,,,,20,0,4,,,,,3,,,58,116
23161,note_on,,,,,1,0,4,,,,,3,,,46,0
23180,note_on,,,,,20,0,3,,,,,2,,,75,87
23187,note_on,,,,,7,0,3,,,,,2,,,77,0
23197,note_on,,,,,36,0,4,,,,,3,,,58,0
23200,note_on,,,,,3,0,4,,,,,3,,,46,105
23200,note_on,,,,,13,0,3,,,,,2,,,74,82
23201,note_on,,,,,1,0,3,,,,,2,,,75,0
23220,note_on,,,,,19,0,3,,,,,2,,,75,100
23220,note_on,,,,,20,0,4,,,,,3,,,58,116
23222,note_on,,,,,2,0,4,,,,,3,,,46,0
23223,note_on,,,,,3,0,3,,,,,2,,,74,0
23240,note_on,,,,,17,0,3,,,,,2,,,74,82
23244,note_on,,,,,4,0,3,,,,,2,,,75,0
23256,note_on,,,,,34,0,4,,,,,3,,,58,0
23258,note_on,,,,,14,0,3,,,,,2,,,74,0
23260,note_on,,,,,2,0,3,,,,,2,,,72,66
23260,note_on,,,,,4,0,4,,,,,3,,,46,105
23279,note_on,,,,,19,0,4,,,,,3,,,46,0
23280,note_on,,,,,0,0,3,,,,,2,,,74,87
23280,note_on,,,,,20,0,3,,,,,2,,,72,0
23280,note_on,,,,,1,0,4,,,,,3,,,58,116
23300,note_on,,,,,20,0,3,,,,,2,,,72,74
23303,note_on,,,,,3,0,3,,,,,2,,,74,0
23317,note_on,,,,,37,0,4,,,,,3,,,58,0
23320,note_on,,,,,17,0,3,,,,,2,,,70,66
23320,note_on,,,,,3,0,4,,,,,3,,,46,105
23325,note_on,,,,,5,0,3,,,,,2,,,72,0
23336,note_on,,,,,11,0,3,,,,,2,,,70,0
23340,note_on,,,,,0,0,3,,,,,2,,,79,80
23340,note_on,,,,,0,0,4,,,,,3,,,58,105
23340,note_on,,,,,4,0,3,,,,,2,,,74,85
23340,note_on,,,,,20,0,4,,,,,3,,,46,0
23360,note_on,,,,,20,0,4,,,,,3,,,57,82
23360,note_on,,,,,20,0,3,,,,,2,,,72,64
23365,note_on,,,,,5,0,4,,,,,3,,,58,0
23366,note_on,,,,,6,0,3,,,,,2,,,74,0
23380,note_on,,,,,15,0,4,,,,,3,,,55,78
23380,note_on,,,,,14,0,3,,,,,2,,,70,63
23382,note_on,,,,,2,0,4,,,,,3,,,57,0
23385,note_on,,,,,5,0,3,,,,,2,,,72,0
23394,note_on,,,,,9,0,3,,,,,2,,,70,0
23400,note_on,,,,,6,0,3,,,,,2,,,72,89
23400,note_on,,,,,18,0,4,,,,,3,,,55,0
23400,note_on,,,,,0,0,4,,,,,3,,,57,95
23419,note_on,,,,,19,0,4,,,,,3,,,57,0
23420,note_on,,,,,1,0,4,,,,,3,,,58,93
23437,note_on,,,,,17,0,4,,,,,3,,,58,0
23440,note_on,,,,,3,0,4,,,,,3,,,60,72
23459,note_on,,,,,59,0,3,,,,,2,,,79,0
23460,note_on,,,,,20,0,4,,,,,3,,,60,0
23460,note_on,,,,,1,0,3,,,,,2,,,77,87
23460,note_on,,,,,0,0,4,,,,,3,,,62,89
23480,note_on,,,,,20,0,4,,,,,3,,,63,85
23482,note_on,,,,,2,0,4,,,,,3,,,62,0
23500,note_on,,,,,18,0,4,,,,,3,,,65,85
23502,note_on,,,,,2,0,4,,,,,3,,,63,0
23514,note_on,,,,,54,0,3,,,,,2,,,72,0
23520,note_on,,,,,18,0,4,,,,,3,,,55,85
23520,note_on,,,,,6,0,3,,,,,2,,,70,105
23521,note_on,,,,,1,0,4,,,,,3,,,65,0
23540,note_on,,,,,19,0,4,,,,,3,,,57,80
23545,note_on,,,,,5,0,4,,,,,3,,,55,0
23560,note_on,,,,,15,0,4,,,,,3,,,58,105
23562,note_on,,,,,2,0,4,,,,,3,,,57,0
23579,note_on,,,,,59,0,3,,,,,2,,,77,0
23580,note_on,,,,,1,0,3,,,,,2,,,75,105
23580,note_on,,,,,18,0,4,,,,,3,,,60,87
23581,note_on,,,,,1,0,4,,,,,3,,,58,0
23600,note_on,,,,,19,0,4,,,,,3,,,62,100
23603,note_on,,,,,3,0,4,,,,,3,,,60,0
23620,note_on,,,,,17,0,4,,,,,3,,,63,100
23622,note_on,,,,,2,0,4,,,,,3,,,62,0
23640,note_on,,,,,18,0,4,,,,,3,,,53,87
23640,note_on,,,,,60,0,3,,,,,2,,,69,87
23642,note_on,,,,,2,0,4,,,,,3,,,63,0
23649,note_on,,,,,9,0,3,,,,,2,,,70,0
23659,note_on,,,,,10,0,3,,,,,2,,,75,0
23660,note_on,,,,,1,0,3,,,,,2,,,74,85
23660,note_on,,,,,18,0,4,,,,,3,,,55,68
23663,note_on,,,,,3,0,4,,,,,3,,,53,0
23680,note_on,,,,,20,0,3,,,,,2,,,74,0
23680,note_on,,,,,0,0,3,,,,,2,,,72,70
23680,note_on,,,,,17,0,4,,,,,3,,,57,89
23682,note_on,,,,,2,0,4,,,,,3,,,55,0
23697,note_on,,,,,17,0,3,,,,,2,,,69,0
23700,note_on,,,,,18,0,4,,,,,3,,,58,68
23700,note_on,,,,,3,0,3,,,,,2,,,65,80
23700,note_on,,,,,0,0,3,,,,,2,,,74,82
23702,note_on,,,,,2,0,3,,,,,2,,,72,0
23703,note_on,,,,,3,0,4,,,,,3,,,57,0
23720,note_on,,,,,17,0,4,,,,,3,,,60,74
23720,note_on,,,,,18,0,3,,,,,2,,,72,64
23722,note_on,,,,,2,0,4,,,,,3,,,58,0
23723,note_on,,,,,3,0,3,,,,,2,,,74,0
23740,note_on,,,,,17,0,3,,,,,2,,,70,80
23740,note_on,,,,,18,0,4,,,,,3,,,62,85
23743,note_on,,,,,3,0,3,,,,,2,,,72,0
23744,note_on,,,,,4,0,4,,,,,3,,,60,0
23760,note_on,,,,,17,0,3,,,,,2,,,70,0
23760,note_on,,,,,16,0,4,,,,,3,,,53,74
23760,note_on,,,,,0,0,3,,,,,2,,,69,70
23761,note_on,,,,,1,0,4,,,,,3,,,62,0
23761,note_on,,,,,1,0,3,,,,,2,,,65,0
23780,note_on,,,,,19,0,3,,,,,2,,,67,87
23785,note_on,,,,,5,0,3,,,,,2,,,69,0
23797,note_on,,,,,12,0,3,,,,,2,,,67,0
23800,note_on,,,,,3,0,3,,,,,2,,,65,76
23803,note_on,,,,,42,0,4,,,,,3,,,53,0
23819,note_on,,,,,19,0,3,,,,,2,,,65,0
23820,note_on,,,,,17,0,4,,,,,3,,,53,82
23820,note_on,,,,,1,0,3,,,,,2,,,74,102
23820,note_on,,,,,0,0,3,,,,,2,,,77,87
23840,note_on,,,,,0,0,3,,,,,2,,,72,95
23840,note_on,,,,,20,0,3,,,,,2,,,75,80
23843,note_on,,,,,3,0,3,,,,,2,,,77,0
23845,note_on,,,,,2,0,3,,,,,2,,,74,0
23860,note_on,,,,,0,0,3,,,,,2,,,74,80
23860,note_on,,,,,15,0,3,,,,,2,,,70,98
23860,note_on,,,,,0,0,4,,,,,3,,,41,89
23860,note_on,,,,,40,0,4,,,,,3,,,53,0
23863,note_on,,,,,3,0,3,,,,,2,,,72,0
23864,note_on,,,,,1,0,3,,,,,2,,,75,0
23880,note_on,,,,,0,0,3,,,,,2,,,75,91
23880,note_on,,,,,16,0,3,,,,,2,,,72,100
23880,note_on,,,,,20,0,4,,,,,3,,,53,91
23883,note_on,,,,,3,0,3,,,,,2,,,70,0
23884,note_on,,,,,1,0,3,,,,,2,,,74,0
23886,note_on,,,,,6,0,4,,,,,3,,,41,0
23900,note_on,,,,,0,0,3,,,,,2,,,74,95
23900,note_on,,,,,16,0,3,,,,,2,,,70,100
23902,note_on,,,,,2,0,3,,,,,2,,,75,0
23906,note_on,,,,,4,0,3,,,,,2,,,72,0
23920,note_on,,,,,0,0,3,,,,,2,,,72,91
23920,note_on,,,,,34,0,4,,,,,3,,,41,85
23920,note_on,,,,,14,0,3,,,,,2,,,70,0
23920,note_on,,,,,0,0,3,,,,,2,,,69,98
23921,note_on,,,,,1,0,3,,,,,2,,,74,0
23921,note_on,,,,,1,0,4,,,,,3,,,53,0
23940,note_on,,,,,0,0,3,,,,,2,,,70,95
23940,note_on,,,,,19,0,4,,,,,3,,,53,87
23940,note_on,,,,,19,0,3,,,,,2,,,72,0
23940,note_on,,,,,0,0,3,,,,,2,,,74,85
23943,note_on,,,,,3,0,4,,,,,3,,,41,0
23944,note_on,,,,,4,0,3,,,,,2,,,69,0
23960,note_on,,,,,16,0,3,,,,,2,,,72,93
23960,note_on,,,,,0,0,3,,,,,2,,,69,98
23961,note_on,,,,,1,0,3,,,,,2,,,74,0
23962,note_on,,,,,1,0,3,,,,,2,,,70,0
23976,note_on,,,,,33,0,4,,,,,3,,,53,0
23977,note_on,,,,,15,0,3,,,,,2,,,72,0
23980,note_on,,,,,0,0,3,,,,,2,,,67,85
23980,note_on,,,,,4,0,4,,,,,3,,,41,82
23980,note_on,,,,,3,0,3,,,,,2,,,69,0
23980,note_on,,,,,0,0,3,,,,,2,,,70,93
23997,note_on,,,,,17,0,3,,,,,2,,,67,0
23999,note_on,,,,,2,0,3,,,,,2,,,70,0
24000,note_on,,,,,1,0,3,,,,,2,,,72,100
24000,note_on,,,,,0,0,3,,,,,2,,,69,102
24000,note_on,,,,,20,0,4,,,,,3,,,53,102
24003,note_on,,,,,3,0,4,,,,,3,,,41,0
24020,note_on,,,,,20,0,3,,,,,2,,,70,105
24020,note_on,,,,,0,0,3,,,,,2,,,67,78
24027,note_on,,,,,7,0,3,,,,,2,,,69,0
24028,note_on,,,,,1,0,3,,,,,2,,,72,0
24033,note_on,,,,,5,0,3,,,,,2,,,67,0
24036,note_on,,,,,33,0,4,,,,,3,,,53,0
24040,note_on,,,,,7,0,3,,,,,2,,,70,0
24040,note_on,,,,,0,0,3,,,,,2,,,65,85
24040,note_on,,,,,0,0,3,,,,,2,,,69,85
24040,note_on,,,,,4,0,4,,,,,3,,,41,98
24055,note_on,,,,,0,0,3,,,,,2,,,65,0
24055,note_on,,,,,15,0,3,,,,,2,,,69,0
24060,note_on,,,,,964,0,1,,,,,0,,,77,89
24060,note_on,,,,,961,0,2,,,,,1,,,53,85
24060,note_on,,,,,0,0,1,,,,,0,,,74,87
24061,note_on,,,,,21,0,4,,,,,3,,,41,0
24077,note_on,,,,,17,0,1,,,,,0,,,77,0
24080,note_on,,,,,3,0,1,,,,,0,,,75,89
24080,note_on,,,,,0,0,1,,,,,0,,,72,82
24083,note_on,,,,,3,0,1,,,,,0,,,74,0
24096,note_on,,,,,36,0,2,,,,,1,,,53,0
24100,note_on,,,,,0,0,1,,,,,0,,,70,85
24100,note_on,,,,,17,0,1,,,,,0,,,74,80
24100,note_on,,,,,4,0,2,,,,,1,,,41,100
24101,note_on,,,,,1,0,1,,,,,0,,,75,0
24102,note_on,,,,,1,0,1,,,,,0,,,72,0
24112,note_on,,,,,10,0,1,,,,,0,,,70,0
24116,note_on,,,,,4,0,1,,,,,0,,,74,0
24120,note_on,,,,,0,0,1,,,,,0,,,75,93
24120,note_on,,,,,4,0,1,,,,,0,,,72,95
24120,note_on,,,,,20,0,2,,,,,1,,,53,82
24125,note_on,,,,,5,0,2,,,,,1,,,41,0
24135,note_on,,,,,15,0,1,,,,,0,,,75,0
24140,note_on,,,,,5,0,1,,,,,0,,,74,80
24140,note_on,,,,,0,0,1,,,,,0,,,70,70
24144,note_on,,,,,4,0,1,,,,,0,,,72,0
24155,note_on,,,,,30,0,2,,,,,1,,,53,0
24158,note_on,,,,,14,0,1,,,,,0,,,70,0
24159,note_on,,,,,1,0,1,,,,,0,,,74,0
24160,note_on,,,,,5,0,2,,,,,1,,,41,80
24160,note_on,,,,,1,0,1,,,,,0,,,72,68
24160,note_on,,,,,0,0,1,,,,,0,,,69,85
24170,note_on,,,,,10,0,1,,,,,0,,,72,0
24177,note_on,,,,,7,0,1,,,,,0,,,69,0
24180,note_on,,,,,20,0,2,,,,,1,,,53,87
24180,note_on,,,,,3,0,1,,,,,0,,,70,102
24180,note_on,,,,,0,0,1,,,,,0,,,74,98
24189,note_on,,,,,9,0,2,,,,,1,,,41,0
24199,note_on,,,,,19,0,1,,,,,0,,,74,0
24200,note_on,,,,,0,0,1,,,,,0,,,69,85
24200,note_on,,,,,1,0,1,,,,,0,,,72,80
24202,note_on,,,,,2,0,1,,,,,0,,,70,0
24214,note_on,,,,,25,0,2,,,,,1,,,53,0
24216,note_on,,,,,14,0,1,,,,,0,,,69,0
24220,note_on,,,,,4,0,1,,,,,0,,,70,98
24220,note_on,,,,,0,0,1,,,,,0,,,67,76
24220,note_on,,,,,6,0,2,,,,,1,,,41,85
24221,note_on,,,,,1,0,1,,,,,0,,,72,0
24233,note_on,,,,,12,0,1,,,,,0,,,67,0
24235,note_on,,,,,2,0,1,,,,,0,,,70,0
24240,note_on,,,,,0,0,1,,,,,0,,,72,85
24240,note_on,,,,,5,0,1,,,,,0,,,69,100
24240,note_on,,,,,20,0,2,,,,,1,,,53,100
24244,note_on,,,,,4,0,2,,,,,1,,,41,0
24260,note_on,,,,,0,0,1,,,,,0,,,67,70
24260,note_on,,,,,20,0,1,,,,,0,,,70,102
24264,note_on,,,,,4,0,1,,,,,0,,,69,0
24266,note_on,,,,,2,0,1,,,,,0,,,72,0
24276,note_on,,,,,10,0,1,,,,,0,,,67,0
24279,note_on,,,,,3,0,1,,,,,0,,,70,0
24280,note_on,,,,,0,0,1,,,,,0,,,65,82
24280,note_on,,,,,1,0,1,,,,,0,,,69,85
24296,note_on,,,,,16,0,1,,,,,0,,,65,0
24297,note_on,,,,,1,0,1,,,,,0,,,69,0
24299,note_on,,,,,55,0,2,,,,,1,,,53,0
24300,note_on,,,,,245,0,3,,,,,2,,,77,100
24300,note_on,,,,,0,0,3,,,,,2,,,62,60
24318,note_on,,,,,18,0,3,,,,,2,,,62,0
24319,note_on,,,,,1,0,3,,,,,2,,,77,0
24320,note_on,,,,,1,0,3,,,,,2,,,65,70
24320,note_on,,,,,0,0,3,,,,,2,,,75,85
24338,note_on,,,,,18,0,3,,,,,2,,,75,0
24339,note_on,,,,,1,0,3,,,,,2,,,65,0
24340,note_on,,,,,1,0,3,,,,,2,,,74,85
24340,note_on,,,,,0,0,3,,,,,2,,,70,85
24353,note_on,,,,,13,0,3,,,,,2,,,70,0
24359,note_on,,,,,6,0,3,,,,,2,,,74,0
24360,note_on,,,,,0,0,3,,,,,2,,,75,87
24360,note_on,,,,,1,0,3,,,,,2,,,60,72
24380,note_on,,,,,20,0,3,,,,,2,,,60,0
24380,note_on,,,,,0,0,3,,,,,2,,,63,60
24380,note_on,,,,,0,0,3,,,,,2,,,74,87
24382,note_on,,,,,2,0,3,,,,,2,,,75,0
24399,note_on,,,,,17,0,3,,,,,2,,,74,0
24400,note_on,,,,,1,0,3,,,,,2,,,72,95
24400,note_on,,,,,0,0,3,,,,,2,,,69,74
24401,note_on,,,,,1,0,3,,,,,2,,,63,0
24416,note_on,,,,,15,0,3,,,,,2,,,69,0
24418,note_on,,,,,2,0,3,,,,,2,,,72,0
24420,note_on,,,,,2,0,3,,,,,2,,,58,61
24420,note_on,,,,,0,0,3,,,,,2,,,74,98
24440,note_on,,,,,20,0,3,,,,,2,,,58,0
24440,note_on,,,,,0,0,3,,,,,2,,,72,80
24440,note_on,,,,,0,0,3,,,,,2,,,62,82
24442,note_on,,,,,2,0,3,,,,,2,,,74,0
24459,note_on,,,,,17,0,3,,,,,2,,,72,0
24460,note_on,,,,,0,0,3,,,,,2,,,65,60
24460,note_on,,,,,1,0,3,,,,,2,,,70,87
24462,note_on,,,,,2,0,3,,,,,2,,,62,0
24475,note_on,,,,,13,0,3,,,,,2,,,65,0
24478,note_on,,,,,3,0,3,,,,,2,,,70,0
24480,note_on,,,,,2,0,3,,,,,2,,,72,98
24480,note_on,,,,,0,0,3,,,,,2,,,57,74
24498,note_on,,,,,18,0,3,,,,,2,,,57,0
24500,note_on,,,,,2,0,3,,,,,2,,,70,89
24500,note_on,,,,,0,0,3,,,,,2,,,60,63
24505,note_on,,,,,5,0,3,,,,,2,,,72,0
24520,note_on,,,,,0,0,3,,,,,2,,,65,61
24520,note_on,,,,,15,0,3,,,,,2,,,69,80
24523,note_on,,,,,3,0,3,,,,,2,,,60,0
24523,note_on,,,,,0,0,3,,,,,2,,,70,0
24535,note_on,,,,,12,0,3,,,,,2,,,65,0
24540,note_on,,,,,5,0,3,,,,,2,,,74,102
24540,note_on,,,,,0,0,3,,,,,2,,,58,62
24541,note_on,,,,,1,0,3,,,,,2,,,69,0
24560,note_on,,,,,19,0,3,,,,,2,,,72,95
24560,note_on,,,,,0,0,3,,,,,2,,,62,70
24563,note_on,,,,,3,0,3,,,,,2,,,58,0
24563,note_on,,,,,0,0,3,,,,,2,,,74,0
24580,note_on,,,,,0,0,3,,,,,2,,,65,60
24580,note_on,,,,,17,0,3,,,,,2,,,70,93
24582,note_on,,,,,2,0,3,,,,,2,,,72,0
24591,note_on,,,,,9,0,3,,,,,2,,,62,0
24592,note_on,,,,,1,0,3,,,,,2,,,65,0
24596,note_on,,,,,4,0,3,,,,,2,,,70,0
24600,note_on,,,,,4,0,3,,,,,2,,,72,98
24600,note_on,,,,,0,0,3,,,,,2,,,57,80
24620,note_on,,,,,20,0,3,,,,,2,,,57,0
24620,note_on,,,,,0,0,3,,,,,2,,,70,91
24620,note_on,,,,,0,0,3,,,,,2,,,60,68
24625,note_on,,,,,5,0,3,,,,,2,,,72,0
24640,note_on,,,,,15,0,3,,,,,2,,,70,0
24640,note_on,,,,,0,0,3,,,,,2,,,65,70
24640,note_on,,,,,0,0,3,,,,,2,,,69,80
24641,note_on,,,,,1,0,3,,,,,2,,,60,0
24651,note_on,,,,,10,0,3,,,,,2,,,65,0
24658,note_on,,,,,7,0,3,,,,,2,,,69,0
24660,note_on,,,,,2,0,3,,,,,2,,,55,82
24660,note_on,,,,,0,0,3,,,,,2,,,70,105
24679,note_on,,,,,19,0,3,,,,,2,,,55,0
24680,note_on,,,,,0,0,3,,,,,2,,,60,66
24680,note_on,,,,,1,0,3,,,,,2,,,69,85
24682,note_on,,,,,2,0,3,,,,,2,,,70,0
24699,note_on,,,,,0,0,3,,,,,2,,,69,0
24699,note_on,,,,,17,0,3,,,,,2,,,60,0
24700,note_on,,,,,1,0,3,,,,,2,,,67,80
24700,note_on,,,,,0,0,3,,,,,2,,,64,63
24713,note_on,,,,,13,0,3,,,,,2,,,64,0
24716,note_on,,,,,3,0,3,,,,,2,,,67,0
24720,note_on,,,,,0,0,3,,,,,2,,,69,105
24720,note_on,,,,,4,0,3,,,,,2,,,53,89
24740,note_on,,,,,20,0,3,,,,,2,,,72,98
24742,note_on,,,,,2,0,3,,,,,2,,,69,0
24760,note_on,,,,,18,0,3,,,,,2,,,72,0
24760,note_on,,,,,0,0,3,,,,,2,,,70,93
24780,note_on,,,,,20,0,3,,,,,2,,,69,102
24785,note_on,,,,,5,0,3,,,,,2,,,70,0
24800,note_on,,,,,15,0,3,,,,,2,,,67,89
24804,note_on,,,,,4,0,3,,,,,2,,,69,0
24820,note_on,,,,,16,0,3,,,,,2,,,67,0
24820,note_on,,,,,0,0,3,,,,,2,,,65,68
24840,note_on,,,,,20,0,3,,,,,2,,,63,113
24841,note_on,,,,,1,0,3,,,,,2,,,65,0
24860,note_on,,,,,19,0,3,,,,,2,,,67,82
24866,note_on,,,,,6,0,3,,,,,2,,,63,0
24880,note_on,,,,,14,0,3,,,,,2,,,65,91
24882,note_on,,,,,2,0,3,,,,,2,,,67,0
24900,note_on,,,,,18,0,3,,,,,2,,,63,98
24905,note_on,,,,,5,0,3,,,,,2,,,65,0
24920,note_on,,,,,15,0,3,,,,,2,,,62,89
24924,note_on,,,,,4,0,3,,,,,2,,,63,0
24940,note_on,,,,,16,0,3,,,,,2,,,60,82
24942,note_on,,,,,2,0,3,,,,,2,,,62,0
24959,note_on,,,,,17,0,3,,,,,2,,,53,0
24960,note_on,,,,,1,0,3,,,,,2,,,46,72
24960,note_on,,,,,0,0,3,,,,,2,,,62,85
24961,note_on,,,,,1,0,3,,,,,2,,,60,0
25019,note_on,,,,,58,0,3,,,,,2,,,62,0
25019,note_on,,,,,0,0,3,,,,,2,,,46,0
25020,note_on,,,,,959,0,4,,,,,3,,,46,113
25020,note_on,,,,,1,0,3,,,,,2,,,70,107
25020,note_on,,,,,0,0,3,,,,,2,,,74,85
25020,note_on,,,,,3767,0,9,,,,,8,,,70,64
25020,note_on,,,,,3781,0,11,,,,,11,,,46,64
25020,note_on,,,,,3772,0,8,,,,,7,,,74,64
25020,note_on,,,,,3774,0,10,,,,,10,,,65,64
25020,note_on,,,,,3781,0,5,,,,,4,,,46,113
25020,note_on,,,,,0,0,1,,,,,0,,,74,85
25020,note_on,,,,,723,0,1,,,,,0,,,70,107
25020,note_on,,,,,721,0,2,,,,,1,,,46,113
25073,note_on,,,,,53,0,9,,,,,8,,,70,0
25075,note_on,,,,,55,0,10,,,,,10,,,65,0
25075,note_on,,,,,55,0,8,,,,,7,,,74,0
25079,note_on,,,,,0,0,3,,,,,2,,,70,0
25079,note_on,,,,,59,0,3,,,,,2,,,74,0
25079,note_on,,,,,59,0,2,,,,,1,,,46,0
25079,note_on,,,,,0,0,1,,,,,0,,,70,0
25079,note_on,,,,,59,0,1,,,,,0,,,74,0
25080,note_on,,,,,7,0,9,,,,,8,,,70,64
25080,note_on,,,,,60,0,4,,,,,3,,,46,0
25080,note_on,,,,,60,0,11,,,,,11,,,46,0
25080,note_on,,,,,5,0,8,,,,,7,,,74,64
25080,note_on,,,,,0,0,1,,,,,0,,,74,89
25080,note_on,,,,,5,0,10,,,,,10,,,65,64
25080,note_on,,,,,1,0,2,,,,,1,,,50,95
25080,note_on,,,,,0,0,11,,,,,11,,,50,64
25080,note_on,,,,,1,0,1,,,,,0,,,70,95
25080,note_on,,,,,0,0,4,,,,,3,,,50,95
25080,note_on,,,,,60,0,5,,,,,4,,,46,0
25080,note_on,,,,,0,0,3,,,,,2,,,74,89
25080,note_on,,,,,1,0,3,,,,,2,,,70,95
25080,note_on,,,,,0,0,5,,,,,4,,,50,95
25124,note_on,,,,,44,0,3,,,,,2,,,74,0
25124,note_on,,,,,44,0,1,,,,,0,,,74,0
25132,note_on,,,,,52,0,8,,,,,7,,,74,0
25133,note_on,,,,,53,0,10,,,,,10,,,65,0
25138,note_on,,,,,58,0,5,,,,,4,,,50,0
25138,note_on,,,,,58,0,4,,,,,3,,,50,0
25138,note_on,,,,,58,0,11,,,,,11,,,50,0
25139,note_on,,,,,15,0,3,,,,,2,,,70,0
25139,note_on,,,,,59,0,2,,,,,1,,,50,0
25139,note_on,,,,,15,0,1,,,,,0,,,70,0
25140,note_on,,,,,1,0,3,,,,,2,,,70,78
25140,note_on,,,,,0,0,9,,,,,8,,,70,64
25140,note_on,,,,,0,0,1,,,,,0,,,74,98
25140,note_on,,,,,1,0,1,,,,,0,,,70,78
25140,note_on,,,,,0,0,3,,,,,2,,,74,98
25140,note_on,,,,,60,0,9,,,,,8,,,70,0
25140,note_on,,,,,8,0,8,,,,,7,,,74,64
25140,note_on,,,,,7,0,10,,,,,10,,,65,64
25140,note_on,,,,,2,0,5,,,,,4,,,46,107
25140,note_on,,,,,1,0,2,,,,,1,,,46,107
25140,note_on,,,,,2,0,4,,,,,3,,,46,107
25140,note_on,,,,,2,0,11,,,,,11,,,46,64
25184,note_on,,,,,44,0,1,,,,,0,,,70,0
25184,note_on,,,,,44,0,3,,,,,2,,,70,0
25189,note_on,,,,,49,0,10,,,,,10,,,65,0
25190,note_on,,,,,50,0,9,,,,,8,,,70,0
25196,note_on,,,,,56,0,11,,,,,11,,,46,0
25196,note_on,,,,,56,0,4,,,,,3,,,46,0
25196,note_on,,,,,56,0,5,,,,,4,,,46,0
25199,note_on,,,,,59,0,2,,,,,1,,,46,0
25199,note_on,,,,,15,0,1,,,,,0,,,74,0
25199,note_on,,,,,15,0,3,,,,,2,,,74,0
25200,note_on,,,,,1,0,3,,,,,2,,,70,89
25200,note_on,,,,,0,0,1,,,,,0,,,72,89
25200,note_on,,,,,0,0,3,,,,,2,,,72,89
25200,note_on,,,,,4,0,11,,,,,11,,,53,64
25200,note_on,,,,,0,0,8,,,,,7,,,72,64
25200,note_on,,,,,1,0,1,,,,,0,,,70,89
25200,note_on,,,,,10,0,9,,,,,8,,,70,64
25200,note_on,,,,,1,0,2,,,,,1,,,53,93
25200,note_on,,,,,11,0,10,,,,,10,,,65,64
25200,note_on,,,,,4,0,5,,,,,4,,,53,93
25200,note_on,,,,,60,0,8,,,,,7,,,74,0
25200,note_on,,,,,4,0,4,,,,,3,,,53,93
25253,note_on,,,,,53,0,11,,,,,11,,,53,0
25253,note_on,,,,,53,0,5,,,,,4,,,53,0
25254,note_on,,,,,54,0,8,,,,,7,,,72,0
25257,note_on,,,,,57,0,10,,,,,10,,,65,0
25259,note_on,,,,,0,0,3,,,,,2,,,70,0
25259,note_on,,,,,0,0,1,,,,,0,,,70,0
25259,note_on,,,,,59,0,3,,,,,2,,,72,0
25259,note_on,,,,,59,0,1,,,,,0,,,72,0
25259,note_on,,,,,59,0,2,,,,,1,,,53,0
25259,note_on,,,,,59,0,4,,,,,3,,,53,0
25260,note_on,,,,,7,0,11,,,,,11,,,53,64
25260,note_on,,,,,3,0,10,,,,,10,,,65,64
25260,note_on,,,,,7,0,5,,,,,4,,,53,95
25260,note_on,,,,,60,0,9,,,,,8,,,69,64
25260,note_on,,,,,1,0,2,,,,,1,,,53,95
25260,note_on,,,,,1,0,4,,,,,3,,,53,95
25260,note_on,,,,,0,0,1,,,,,0,,,72,87
25260,note_on,,,,,1,0,3,,,,,2,,,69,107
25260,note_on,,,,,0,0,3,,,,,2,,,72,87
25260,note_on,,,,,1,0,1,,,,,0,,,69,107
25260,note_on,,,,,6,0,8,,,,,7,,,72,64
25261,note_on,,,,,1,0,9,,,,,8,,,70,0
25304,note_on,,,,,44,0,3,,,,,2,,,69,0
25304,note_on,,,,,43,0,9,,,,,8,,,69,0
25304,note_on,,,,,44,0,1,,,,,0,,,69,0
25304,note_on,,,,,44,0,2,,,,,1,,,53,0
25305,note_on,,,,,1,0,3,,,,,2,,,67,119
25305,note_on,,,,,1,0,1,,,,,0,,,67,119
25305,note_on,,,,,1,0,9,,,,,8,,,67,64
25311,note_on,,,,,51,0,4,,,,,3,,,53,0
25311,note_on,,,,,51,0,11,,,,,11,,,53,0
25311,note_on,,,,,51,0,5,,,,,4,,,53,0
25318,note_on,,,,,13,0,9,,,,,8,,,67,0
25319,note_on,,,,,0,0,1,,,,,0,,,72,0
25319,note_on,,,,,14,0,1,,,,,0,,,67,0
25319,note_on,,,,,14,0,3,,,,,2,,,67,0
25319,note_on,,,,,0,0,3,,,,,2,,,72,0
25320,note_on,,,,,9,0,5,,,,,4,,,53,100
25320,note_on,,,,,0,0,1,,,,,0,,,77,98
25320,note_on,,,,,9,0,4,,,,,3,,,53,100
25320,note_on,,,,,2,0,9,,,,,8,,,69,64
25320,note_on,,,,,60,0,10,,,,,10,,,60,64
25320,note_on,,,,,60,0,8,,,,,7,,,77,64
25320,note_on,,,,,1,0,1,,,,,0,,,69,119
25320,note_on,,,,,9,0,11,,,,,11,,,53,64
25320,note_on,,,,,16,0,2,,,,,1,,,53,100
25320,note_on,,,,,1,0,3,,,,,2,,,69,119
25320,note_on,,,,,0,0,3,,,,,2,,,77,98
25324,note_on,,,,,4,0,10,,,,,10,,,65,0
25326,note_on,,,,,6,0,8,,,,,7,,,72,0
25371,note_on,,,,,47,0,10,,,,,10,,,60,0
25373,note_on,,,,,53,0,4,,,,,3,,,53,0
25373,note_on,,,,,53,0,11,,,,,11,,,53,0
25373,note_on,,,,,53,0,5,,,,,4,,,53,0
25377,note_on,,,,,51,0,8,,,,,7,,,77,0
25377,note_on,,,,,57,0,9,,,,,8,,,69,0
25379,note_on,,,,,0,0,1,,,,,0,,,69,0
25379,note_on,,,,,59,0,3,,,,,2,,,77,0
25379,note_on,,,,,59,0,1,,,,,0,,,77,0
25379,note_on,,,,,0,0,3,,,,,2,,,69,0
25379,note_on,,,,,59,0,2,,,,,1,,,53,0
25380,note_on,,,,,0,0,3,,,,,2,,,77,87
25380,note_on,,,,,1,0,3,,,,,2,,,69,105
25380,note_on,,,,,7,0,5,,,,,4,,,53,98
25380,note_on,,,,,9,0,10,,,,,10,,,60,64
25380,note_on,,,,,7,0,11,,,,,11,,,53,64
25380,note_on,,,,,1,0,1,,,,,0,,,69,105
25380,note_on,,,,,1,0,2,,,,,1,,,53,98
25380,note_on,,,,,0,0,1,,,,,0,,,77,87
25380,note_on,,,,,3,0,8,,,,,7,,,77,64
25380,note_on,,,,,7,0,4,,,,,3,,,53,98
25380,note_on,,,,,3,0,9,,,,,8,,,69,64
25435,note_on,,,,,55,0,8,,,,,7,,,77,0
25436,note_on,,,,,56,0,10,,,,,10,,,60,0
25437,note_on,,,,,57,0,11,,,,,11,,,53,0
25437,note_on,,,,,57,0,5,,,,,4,,,53,0
25437,note_on,,,,,57,0,4,,,,,3,,,53,0
25439,note_on,,,,,59,0,1,,,,,0,,,77,0
25439,note_on,,,,,59,0,3,,,,,2,,,77,0
25439,note_on,,,,,0,0,1,,,,,0,,,69,0
25439,note_on,,,,,0,0,3,,,,,2,,,69,0
25439,note_on,,,,,59,0,2,,,,,1,,,53,0
25440,note_on,,,,,4,0,10,,,,,10,,,60,64
25440,note_on,,,,,1,0,3,,,,,2,,,67,107
25440,note_on,,,,,5,0,8,,,,,7,,,77,64
25440,note_on,,,,,0,0,3,,,,,2,,,77,87
25440,note_on,,,,,0,0,1,,,,,0,,,77,87
25440,note_on,,,,,0,0,9,,,,,8,,,67,64
25440,note_on,,,,,60,0,9,,,,,8,,,69,0
25440,note_on,,,,,3,0,5,,,,,4,,,48,91
25440,note_on,,,,,3,0,11,,,,,11,,,48,64
25440,note_on,,,,,1,0,1,,,,,0,,,67,107
25440,note_on,,,,,1,0,2,,,,,1,,,48,91
25440,note_on,,,,,3,0,4,,,,,3,,,48,91
25490,note_on,,,,,50,0,10,,,,,10,,,60,0
25495,note_on,,,,,55,0,4,,,,,3,,,48,0
25495,note_on,,,,,55,0,11,,,,,11,,,48,0
25495,note_on,,,,,55,0,5,,,,,4,,,48,0
25499,note_on,,,,,0,0,3,,,,,2,,,67,0
25499,note_on,,,,,59,0,1,,,,,0,,,77,0
25499,note_on,,,,,0,0,1,,,,,0,,,67,0
25499,note_on,,,,,59,0,3,,,,,2,,,77,0
25499,note_on,,,,,59,0,2,,,,,1,,,48,0
25499,note_on,,,,,59,0,9,,,,,8,,,67,0
25500,note_on,,,,,1,0,2,,,,,1,,,48,105
25500,note_on,,,,,10,0,10,,,,,10,,,60,64
25500,note_on,,,,,60,0,8,,,,,7,,,77,0
25500,note_on,,,,,0,0,3,,,,,2,,,75,113
25500,note_on,,,,,1,0,9,,,,,8,,,67,64
25500,note_on,,,,,5,0,11,,,,,11,,,48,64
25500,note_on,,,,,1,0,1,,,,,0,,,67,100
25500,note_on,,,,,5,0,4,,,,,3,,,48,105
25500,note_on,,,,,0,0,1,,,,,0,,,75,113
25500,note_on,,,,,0,0,8,,,,,7,,,75,64
25500,note_on,,,,,1,0,3,,,,,2,,,67,100
25500,note_on,,,,,5,0,5,,,,,4,,,48,105
25544,note_on,,,,,44,0,3,,,,,2,,,75,0
25544,note_on,,,,,44,0,2,,,,,1,,,48,0
25544,note_on,,,,,44,0,1,,,,,0,,,75,0
25545,note_on,,,,,1,0,3,,,,,2,,,74,107
25545,note_on,,,,,1,0,1,,,,,0,,,74,107
25545,note_on,,,,,45,0,8,,,,,7,,,74,64
25550,note_on,,,,,50,0,11,,,,,11,,,48,0
25550,note_on,,,,,50,0,4,,,,,3,,,48,0
25550,note_on,,,,,50,0,5,,,,,4,,,48,0
25551,note_on,,,,,6,0,8,,,,,7,,,75,0
25559,note_on,,,,,14,0,1,,,,,0,,,74,0
25559,note_on,,,,,0,0,3,,,,,2,,,67,0
25559,note_on,,,,,0,0,1,,,,,0,,,67,0
25559,note_on,,,,,14,0,3,,,,,2,,,74,0
25559,note_on,,,,,59,0,9,,,,,8,,,67,0
25560,note_on,,,,,60,0,10,,,,,10,,,67,64
25560,note_on,,,,,16,0,2,,,,,1,,,48,93
25560,note_on,,,,,10,0,4,,,,,3,,,48,93
25560,note_on,,,,,9,0,8,,,,,7,,,75,64
25560,note_on,,,,,0,0,1,,,,,0,,,75,107
25560,note_on,,,,,1,0,1,,,,,0,,,72,102
25560,note_on,,,,,0,0,3,,,,,2,,,75,107
25560,note_on,,,,,10,0,11,,,,,11,,,48,64
25560,note_on,,,,,10,0,5,,,,,4,,,48,93
25560,note_on,,,,,1,0,3,,,,,2,,,72,102
25560,note_on,,,,,1,0,9,,,,,8,,,72,64
25561,note_on,,,,,1,0,8,,,,,7,,,74,0
25564,note_on,,,,,4,0,10,,,,,10,,,60,0
25613,note_on,,,,,53,0,9,,,,,8,,,72,0
25615,note_on,,,,,54,0,8,,,,,7,,,75,0
25617,note_on,,,,,57,0,4,,,,,3,,,48,0
25617,note_on,,,,,57,0,11,,,,,11,,,48,0
25617,note_on,,,,,53,0,10,,,,,10,,,67,0
25617,note_on,,,,,57,0,5,,,,,4,,,48,0
25619,note_on,,,,,59,0,1,,,,,0,,,75,0
25619,note_on,,,,,0,0,1,,,,,0,,,72,0
25619,note_on,,,,,0,0,3,,,,,2,,,72,0
25619,note_on,,,,,59,0,3,,,,,2,,,75,0
25619,note_on,,,,,59,0,2,,,,,1,,,48,0
25620,note_on,,,,,1,0,1,,,,,0,,,72,105
25620,note_on,,,,,3,0,5,,,,,4,,,48,100
25620,note_on,,,,,3,0,11,,,,,11,,,48,64
25620,note_on,,,,,5,0,8,,,,,7,,,75,64
25620,note_on,,,,,3,0,4,,,,,3,,,48,100
25620,note_on,,,,,1,0,2,,,,,1,,,48,100
25620,note_on,,,,,0,0,1,,,,,0,,,75,98
25620,note_on,,,,,3,0,10,,,,,10,,,67,64
25620,note_on,,,,,1,0,3,,,,,2,,,72,105
25620,note_on,,,,,7,0,9,,,,,8,,,72,64
25620,note_on,,,,,0,0,3,,,,,2,,,75,98
25672,note_on,,,,,52,0,10,,,,,10,,,67,0
25674,note_on,,,,,54,0,9,,,,,8,,,72,0
25679,note_on,,,,,59,0,4,,,,,3,,,48,0
25679,note_on,,,,,59,0,3,,,,,2,,,75,0
25679,note_on,,,,,59,0,1,,,,,0,,,75,0
25679,note_on,,,,,0,0,3,,,,,2,,,72,0
25679,note_on,,,,,59,0,2,,,,,1,,,48,0
25679,note_on,,,,,59,0,5,,,,,4,,,48,0
25679,note_on,,,,,59,0,11,,,,,11,,,48,0
25679,note_on,,,,,0,0,1,,,,,0,,,72,0
25680,note_on,,,,,1,0,3,,,,,2,,,72,102
25680,note_on,,,,,6,0,9,,,,,8,,,72,64
25680,note_on,,,,,1,0,2,,,,,1,,,55,102
25680,note_on,,,,,1,0,5,,,,,4,,,55,102
25680,note_on,,,,,1,0,11,,,,,11,,,55,64
25680,note_on,,,,,0,0,3,,,,,2,,,74,105
25680,note_on,,,,,8,0,10,,,,,10,,,67,64
25680,note_on,,,,,0,0,1,,,,,0,,,74,105
25680,note_on,,,,,1,0,1,,,,,0,,,72,102
25680,note_on,,,,,1,0,4,,,,,3,,,55,102
25680,note_on,,,,,60,0,8,,,,,7,,,74,64
25687,note_on,,,,,7,0,8,,,,,7,,,75,0
25734,note_on,,,,,54,0,10,,,,,10,,,67,0
25735,note_on,,,,,48,0,8,,,,,7,,,74,0
25738,note_on,,,,,58,0,4,,,,,3,,,55,0
25738,note_on,,,,,58,0,11,,,,,11,,,55,0
25738,note_on,,,,,58,0,5,,,,,4,,,55,0
25739,note_on,,,,,59,0,2,,,,,1,,,55,0
25739,note_on,,,,,59,0,1,,,,,0,,,74,0
25739,note_on,,,,,0,0,3,,,,,2,,,72,0
25739,note_on,,,,,0,0,1,,,,,0,,,72,0
25739,note_on,,,,,59,0,3,,,,,2,,,74,0
25740,note_on,,,,,1,0,2,,,,,1,,,55,100
25740,note_on,,,,,2,0,11,,,,,11,,,55,64
25740,note_on,,,,,1,0,1,,,,,0,,,70,116
25740,note_on,,,,,0,0,1,,,,,0,,,74,87
25740,note_on,,,,,2,0,5,,,,,4,,,55,100
25740,note_on,,,,,6,0,10,,,,,10,,,67,64
25740,note_on,,,,,2,0,4,,,,,3,,,55,100
25740,note_on,,,,,1,0,3,,,,,2,,,70,116
25740,note_on,,,,,60,0,9,,,,,8,,,70,64
25740,note_on,,,,,5,0,8,,,,,7,,,74,64
25740,note_on,,,,,0,0,3,,,,,2,,,74,87
25743,note_on,,,,,3,0,9,,,,,8,,,72,0
25783,note_on,,,,,40,0,9,,,,,8,,,70,0
25784,note_on,,,,,44,0,1,,,,,0,,,70,0
25784,note_on,,,,,44,0,3,,,,,2,,,70,0
25785,note_on,,,,,1,0,3,,,,,2,,,69,107
25785,note_on,,,,,1,0,1,,,,,0,,,69,107
25785,note_on,,,,,2,0,9,,,,,8,,,69,64
25795,note_on,,,,,10,0,9,,,,,8,,,69,0
25796,note_on,,,,,56,0,5,,,,,4,,,55,0
25796,note_on,,,,,56,0,4,,,,,3,,,55,0
25796,note_on,,,,,56,0,11,,,,,11,,,55,0
25799,note_on,,,,,0,0,3,,,,,2,,,74,0
25799,note_on,,,,,14,0,1,,,,,0,,,69,0
25799,note_on,,,,,14,0,3,,,,,2,,,69,0
25799,note_on,,,,,59,0,2,,,,,1,,,55,0
25799,note_on,,,,,0,0,1,,,,,0,,,74,0
25800,note_on,,,,,1,0,1,,,,,0,,,70,119
25800,note_on,,,,,0,0,3,,,,,2,,,79,102
25800,note_on,,,,,1,0,3,,,,,2,,,70,119
25800,note_on,,,,,1,0,2,,,,,1,,,55,80
25800,note_on,,,,,0,0,1,,,,,0,,,79,102
25800,note_on,,,,,60,0,10,,,,,10,,,67,0
25800,note_on,,,,,4,0,4,,,,,3,,,55,80
25800,note_on,,,,,5,0,9,,,,,8,,,70,64
25800,note_on,,,,,0,0,10,,,,,10,,,62,64
25800,note_on,,,,,60,0,8,,,,,7,,,79,64
25800,note_on,,,,,4,0,11,,,,,11,,,55,64
25800,note_on,,,,,4,0,5,,,,,4,,,55,80
25803,note_on,,,,,3,0,8,,,,,7,,,74,0
25844,note_on,,,,,44,0,3,,,,,2,,,79,0
25844,note_on,,,,,44,0,1,,,,,0,,,79,0
25850,note_on,,,,,47,0,8,,,,,7,,,79,0
25854,note_on,,,,,54,0,9,,,,,8,,,70,0
25858,note_on,,,,,58,0,4,,,,,3,,,55,0
25858,note_on,,,,,58,0,5,,,,,4,,,55,0
25858,note_on,,,,,58,0,11,,,,,11,,,55,0
25858,note_on,,,,,58,0,10,,,,,10,,,62,0
25859,note_on,,,,,15,0,3,,,,,2,,,70,0
25859,note_on,,,,,59,0,2,,,,,1,,,55,0
25859,note_on,,,,,15,0,1,,,,,0,,,70,0
25860,note_on,,,,,2,0,10,,,,,10,,,62,64
25860,note_on,,,,,2,0,4,,,,,3,,,55,93
25860,note_on,,,,,1,0,2,,,,,1,,,55,93
25860,note_on,,,,,2,0,11,,,,,11,,,55,64
25860,note_on,,,,,10,0,8,,,,,7,,,79,64
25860,note_on,,,,,0,0,1,,,,,0,,,79,105
25860,note_on,,,,,1,0,1,,,,,0,,,70,105
25860,note_on,,,,,1,0,3,,,,,2,,,70,105
25860,note_on,,,,,0,0,3,,,,,2,,,79,105
25860,note_on,,,,,2,0,5,,,,,4,,,55,93
25860,note_on,,,,,6,0,9,,,,,8,,,70,64
25913,note_on,,,,,53,0,8,,,,,7,,,79,0
25916,note_on,,,,,56,0,10,,,,,10,,,62,0
25917,note_on,,,,,57,0,4,,,,,3,,,55,0
25917,note_on,,,,,57,0,5,,,,,4,,,55,0
25917,note_on,,,,,57,0,11,,,,,11,,,55,0
25919,note_on,,,,,59,0,3,,,,,2,,,79,0
25919,note_on,,,,,59,0,2,,,,,1,,,55,0
25919,note_on,,,,,59,0,1,,,,,0,,,79,0
25919,note_on,,,,,0,0,1,,,,,0,,,70,0
25919,note_on,,,,,0,0,3,,,,,2,,,70,0
25920,note_on,,,,,1,0,1,,,,,0,,,69,105
25920,note_on,,,,,4,0,10,,,,,10,,,62,64
25920,note_on,,,,,7,0,8,,,,,7,,,79,64
25920,note_on,,,,,3,0,5,,,,,4,,,50,98
25920,note_on,,,,,3,0,11,,,,,11,,,50,64
25920,note_on,,,,,0,0,1,,,,,0,,,79,100
25920,note_on,,,,,3,0,4,,,,,3,,,50,98
25920,note_on,,,,,0,0,3,,,,,2,,,79,100
25920,note_on,,,,,60,0,9,,,,,8,,,69,64
25920,note_on,,,,,1,0,3,,,,,2,,,69,105
25920,note_on,,,,,1,0,2,,,,,1,,,50,98
25923,note_on,,,,,3,0,9,,,,,8,,,70,0
25973,note_on,,,,,53,0,10,,,,,10,,,62,0
25974,note_on,,,,,54,0,11,,,,,11,,,50,0
25974,note_on,,,,,54,0,5,,,,,4,,,50,0
25974,note_on,,,,,54,0,4,,,,,3,,,50,0
25975,note_on,,,,,52,0,9,,,,,8,,,69,0
25979,note_on,,,,,59,0,1,,,,,0,,,79,0
25979,note_on,,,,,0,0,1,,,,,0,,,69,0
25979,note_on,,,,,59,0,3,,,,,2,,,79,0
25979,note_on,,,,,0,0,3,,,,,2,,,69,0
25979,note_on,,,,,59,0,2,,,,,1,,,50,0
25980,note_on,,,,,0,0,3,,,,,2,,,77,100
25980,note_on,,,,,6,0,5,,,,,4,,,50,95
25980,note_on,,,,,7,0,10,,,,,10,,,62,64
25980,note_on,,,,,1,0,1,,,,,0,,,69,105
25980,note_on,,,,,0,0,1,,,,,0,,,77,100
25980,note_on,,,,,1,0,2,,,,,1,,,50,95
25980,note_on,,,,,5,0,9,,,,,8,,,69,64
25980,note_on,,,,,6,0,11,,,,,11,,,50,64
25980,note_on,,,,,6,0,4,,,,,3,,,50,95
25980,note_on,,,,,60,0,8,,,,,7,,,77,64
25980,note_on,,,,,1,0,3,,,,,2,,,69,105
25981,note_on,,,,,1,0,8,,,,,7,,,79,0
26024,note_on,,,,,44,0,3,,,,,2,,,77,0
26024,note_on,,,,,44,0,1,,,,,0,,,77,0
26024,note_on,,,,,44,0,2,,,,,1,,,50,0
26025,note_on,,,,,1,0,3,,,,,2,,,76,113
26025,note_on,,,,,1,0,1,,,,,0,,,76,113
26025,note_on,,,,,44,0,8,,,,,7,,,76,64
26028,note_on,,,,,3,0,8,,,,,7,,,77,0
26032,note_on,,,,,52,0,5,,,,,4,,,50,0
26032,note_on,,,,,52,0,11,,,,,11,,,50,0
26032,note_on,,,,,52,0,4,,,,,3,,,50,0
26037,note_on,,,,,9,0,8,,,,,7,,,76,0
26038,note_on,,,,,58,0,9,,,,,8,,,69,0
26039,note_on,,,,,14,0,1,,,,,0,,,76,0
26039,note_on,,,,,0,0,3,,,,,2,,,69,0
26039,note_on,,,,,0,0,1,,,,,0,,,69,0
26039,note_on,,,,,14,0,3,,,,,2,,,76,0
26040,note_on,,,,,2,0,9,,,,,8,,,74,64
26040,note_on,,,,,8,0,5,,,,,4,,,50,91
26040,note_on,,,,,16,0,2,,,,,1,,,50,91
26040,note_on,,,,,1,0,3,,,,,2,,,74,102
26040,note_on,,,,,0,0,3,,,,,2,,,77,102
26040,note_on,,,,,60,0,10,,,,,10,,,69,64
26040,note_on,,,,,3,0,8,,,,,7,,,77,64
26040,note_on,,,,,8,0,11,,,,,11,,,50,64
26040,note_on,,,,,1,0,1,,,,,0,,,74,102
26040,note_on,,,,,0,0,1,,,,,0,,,77,102
26040,note_on,,,,,8,0,4,,,,,3,,,50,91
26042,note_on,,,,,2,0,10,,,,,10,,,62,0
26093,note_on,,,,,53,0,9,,,,,8,,,74,0
26094,note_on,,,,,52,0,10,,,,,10,,,69,0
26096,note_on,,,,,56,0,8,,,,,7,,,77,0
26096,note_on,,,,,56,0,11,,,,,11,,,50,0
26096,note_on,,,,,56,0,5,,,,,4,,,50,0
26096,note_on,,,,,56,0,4,,,,,3,,,50,0
26099,note_on,,,,,59,0,2,,,,,1,,,50,0
26099,note_on,,,,,0,0,3,,,,,2,,,74,0
26099,note_on,,,,,0,0,1,,,,,0,,,74,0
26099,note_on,,,,,59,0,1,,,,,0,,,77,0
26099,note_on,,,,,59,0,3,,,,,2,,,77,0
26100,note_on,,,,,6,0,10,,,,,10,,,69,64
26100,note_on,,,,,1,0,1,,,,,0,,,74,105
26100,note_on,,,,,7,0,9,,,,,8,,,74,64
26100,note_on,,,,,0,0,1,,,,,0,,,77,95
26100,note_on,,,,,1,0,2,,,,,1,,,50,93
26100,note_on,,,,,1,0,3,,,,,2,,,74,105
26100,note_on,,,,,0,0,3,,,,,2,,,77,95
26100,note_on,,,,,4,0,11,,,,,11,,,50,64
26100,note_on,,,,,4,0,8,,,,,7,,,77,64
26100,note_on,,,,,4,0,5,,,,,4,,,50,93
26100,note_on,,,,,4,0,4,,,,,3,,,50,93
26156,note_on,,,,,56,0,9,,,,,8,,,74,0
26159,note_on,,,,,59,0,1,,,,,0,,,77,0
26159,note_on,,,,,0,0,1,,,,,0,,,74,0
26159,note_on,,,,,59,0,2,,,,,1,,,50,0
26159,note_on,,,,,0,0,3,,,,,2,,,74,0
26159,note_on,,,,,59,0,3,,,,,2,,,77,0
26160,note_on,,,,,60,0,4,,,,,3,,,55,95
26160,note_on,,,,,60,0,8,,,,,7,,,75,64
26160,note_on,,,,,0,0,1,,,,,0,,,75,110
26160,note_on,,,,,1,0,1,,,,,0,,,74,107
26160,note_on,,,,,1,0,2,,,,,1,,,55,95
26160,note_on,,,,,4,0,9,,,,,8,,,74,64
26160,note_on,,,,,60,0,10,,,,,10,,,70,64
26160,note_on,,,,,60,0,5,,,,,4,,,55,95
26160,note_on,,,,,60,0,11,,,,,11,,,55,64
26160,note_on,,,,,1,0,3,,,,,2,,,74,107
26160,note_on,,,,,0,0,3,,,,,2,,,75,110
26163,note_on,,,,,3,0,5,,,,,4,,,50,0
26163,note_on,,,,,3,0,4,,,,,3,,,50,0
26163,note_on,,,,,3,0,11,,,,,11,,,50,0
26166,note_on,,,,,6,0,8,,,,,7,,,77,0
26167,note_on,,,,,7,0,10,,,,,10,,,69,0
26204,note_on,,,,,44,0,2,,,,,1,,,55,0
26205,note_on,,,,,38,0,10,,,,,10,,,70,0
26211,note_on,,,,,48,0,5,,,,,4,,,55,0
26211,note_on,,,,,48,0,4,,,,,3,,,55,0
26211,note_on,,,,,48,0,11,,,,,11,,,55,0
26213,note_on,,,,,47,0,8,,,,,7,,,75,0
26217,note_on,,,,,57,0,9,,,,,8,,,74,0
26219,note_on,,,,,0,0,1,,,,,0,,,74,0
26219,note_on,,,,,59,0,1,,,,,0,,,75,0
26219,note_on,,,,,0,0,3,,,,,2,,,74,0
26219,note_on,,,,,59,0,3,,,,,2,,,75,0
26220,note_on,,,,,9,0,11,,,,,11,,,55,64
26220,note_on,,,,,7,0,8,,,,,7,,,75,64
26220,note_on,,,,,16,0,2,,,,,1,,,55,91
26220,note_on,,,,,3,0,9,,,,,8,,,72,64
26220,note_on,,,,,0,0,1,,,,,0,,,75,91
26220,note_on,,,,,1,0,3,,,,,2,,,72,107
26220,note_on,,,,,15,0,10,,,,,10,,,70,64
26220,note_on,,,,,9,0,5,,,,,4,,,55,91
26220,note_on,,,,,9,0,4,,,,,3,,,55,91
26220,note_on,,,,,0,0,3,,,,,2,,,75,91
26220,note_on,,,,,1,0,1,,,,,0,,,72,107
26264,note_on,,,,,44,0,3,,,,,2,,,72,0
26264,note_on,,,,,44,0,1,,,,,0,,,72,0
26265,note_on,,,,,1,0,3,,,,,2,,,70,113
26265,note_on,,,,,0,0,9,,,,,8,,,70,64
26265,note_on,,,,,45,0,9,,,,,8,,,72,0
26265,note_on,,,,,1,0,1,,,,,0,,,70,113
26276,note_on,,,,,56,0,8,,,,,7,,,75,0
26277,note_on,,,,,12,0,9,,,,,8,,,70,0
26279,note_on,,,,,14,0,1,,,,,0,,,70,0
26279,note_on,,,,,59,0,2,,,,,1,,,55,0
26279,note_on,,,,,0,0,1,,,,,0,,,75,0
26279,note_on,,,,,14,0,3,,,,,2,,,70,0
26279,note_on,,,,,0,0,3,,,,,2,,,75,0
26280,note_on,,,,,4,0,8,,,,,7,,,75,64
26280,note_on,,,,,1,0,2,,,,,1,,,57,100
26280,note_on,,,,,60,0,5,,,,,4,,,57,100
26280,note_on,,,,,60,0,11,,,,,11,,,57,64
26280,note_on,,,,,3,0,9,,,,,8,,,72,64
26280,note_on,,,,,60,0,10,,,,,10,,,65,64
26280,note_on,,,,,0,0,3,,,,,2,,,75,82
26280,note_on,,,,,1,0,3,,,,,2,,,72,105
26280,note_on,,,,,1,0,1,,,,,0,,,72,105
26280,note_on,,,,,0,0,1,,,,,0,,,75,82
26280,note_on,,,,,60,0,4,,,,,3,,,57,100
26281,note_on,,,,,1,0,5,,,,,4,,,55,0
26281,note_on,,,,,1,0,11,,,,,11,,,55,0
26281,note_on,,,,,1,0,4,,,,,3,,,55,0
26288,note_on,,,,,8,0,10,,,,,10,,,70,0
26332,note_on,,,,,44,0,10,,,,,10,,,65,0
26333,note_on,,,,,53,0,9,,,,,8,,,72,0
26334,note_on,,,,,53,0,4,,,,,3,,,57,0
26334,note_on,,,,,53,0,11,,,,,11,,,57,0
26334,note_on,,,,,53,0,5,,,,,4,,,57,0
26339,note_on,,,,,59,0,3,,,,,2,,,75,0
26339,note_on,,,,,59,0,1,,,,,0,,,75,0
26339,note_on,,,,,59,0,2,,,,,1,,,57,0
26339,note_on,,,,,0,0,1,,,,,0,,,72,0
26339,note_on,,,,,0,0,3,,,,,2,,,72,0
26340,note_on,,,,,6,0,4,,,,,3,,,57,87
26340,note_on,,,,,6,0,5,,,,,4,,,57,87
26340,note_on,,,,,1,0,1,,,,,0,,,72,100
26340,note_on,,,,,0,0,3,,,,,2,,,74,100
26340,note_on,,,,,0,0,1,,,,,0,,,74,100
26340,note_on,,,,,6,0,11,,,,,11,,,57,64
26340,note_on,,,,,1,0,2,,,,,1,,,57,87
26340,note_on,,,,,1,0,3,,,,,2,,,72,100
26340,note_on,,,,,7,0,9,,,,,8,,,72,64
26340,note_on,,,,,60,0,8,,,,,7,,,75,0
26340,note_on,,,,,0,0,8,,,,,7,,,74,64
26340,note_on,,,,,8,0,10,,,,,10,,,65,64
26384,note_on,,,,,44,0,3,,,,,2,,,74,0
26384,note_on,,,,,0,0,3,,,,,2,,,72,0
26384,note_on,,,,,44,0,1,,,,,0,,,74,0
26384,note_on,,,,,0,0,1,,,,,0,,,72,0
26385,note_on,,,,,1,0,3,,,,,2,,,72,100
26385,note_on,,,,,45,0,8,,,,,7,,,72,64
26385,note_on,,,,,1,0,1,,,,,0,,,72,100
26386,note_on,,,,,1,0,8,,,,,7,,,74,0
26392,note_on,,,,,52,0,9,,,,,8,,,72,0
26394,note_on,,,,,54,0,10,,,,,10,,,65,0
26399,note_on,,,,,14,0,1,,,,,0,,,72,0
26399,note_on,,,,,14,0,3,,,,,2,,,72,0
26399,note_on,,,,,59,0,2,,,,,1,,,57,0
26400,note_on,,,,,60,0,11,,,,,11,,,58,64
26400,note_on,,,,,1,0,1,,,,,0,,,72,105
26400,note_on,,,,,0,0,1,,,,,0,,,74,102
26400,note_on,,,,,0,0,3,,,,,2,,,74,102
26400,note_on,,,,,1,0,3,,,,,2,,,72,105
26400,note_on,,,,,60,0,5,,,,,4,,,58,102
26400,note_on,,,,,14,0,8,,,,,7,,,74,64
26400,note_on,,,,,8,0,9,,,,,8,,,72,64
26400,note_on,,,,,60,0,4,,,,,3,,,58,102
26400,note_on,,,,,1,0,2,,,,,1,,,58,102
26400,note_on,,,,,6,0,10,,,,,10,,,65,64
26401,note_on,,,,,1,0,8,,,,,7,,,72,0
26405,note_on,,,,,5,0,11,,,,,11,,,57,0
26405,note_on,,,,,5,0,5,,,,,4,,,57,0
26405,note_on,,,,,5,0,4,,,,,3,,,57,0
26454,note_on,,,,,53,0,8,,,,,7,,,74,0
26457,note_on,,,,,57,0,10,,,,,10,,,65,0
26459,note_on,,,,,54,0,4,,,,,3,,,58,0
26459,note_on,,,,,54,0,5,,,,,4,,,58,0
26459,note_on,,,,,0,0,3,,,,,2,,,72,0
26459,note_on,,,,,59,0,3,,,,,2,,,74,0
26459,note_on,,,,,54,0,11,,,,,11,,,58,0
26459,note_on,,,,,59,0,2,,,,,1,,,58,0
26459,note_on,,,,,59,0,1,,,,,0,,,74,0
26459,note_on,,,,,0,0,1,,,,,0,,,72,0
26460,note_on,,,,,1,0,5,,,,,4,,,53,85
26460,note_on,,,,,1,0,1,,,,,0,,,70,113
26460,note_on,,,,,3,0,10,,,,,10,,,65,64
26460,note_on,,,,,1,0,3,,,,,2,,,70,113
26460,note_on,,,,,0,0,3,,,,,2,,,74,102
26460,note_on,,,,,0,0,1,,,,,0,,,74,102
26460,note_on,,,,,60,0,9,,,,,8,,,70,64
26460,note_on,,,,,1,0,4,,,,,3,,,53,85
26460,note_on,,,,,6,0,8,,,,,7,,,74,64
26460,note_on,,,,,1,0,2,,,,,1,,,53,85
26460,note_on,,,,,1,0,11,,,,,11,,,53,64
26462,note_on,,,,,2,0,9,,,,,8,,,72,0
26504,note_on,,,,,44,0,3,,,,,2,,,70,0
26504,note_on,,,,,44,0,1,,,,,0,,,70,0
26505,note_on,,,,,1,0,1,,,,,0,,,69,107
26505,note_on,,,,,43,0,9,,,,,8,,,69,64
26505,note_on,,,,,1,0,3,,,,,2,,,69,107
26510,note_on,,,,,5,0,9,,,,,8,,,70,0
26519,note_on,,,,,59,0,2,,,,,1,,,53,0
26519,note_on,,,,,0,0,3,,,,,2,,,74,0
26519,note_on,,,,,14,0,3,,,,,2,,,69,0
26519,note_on,,,,,14,0,1,,,,,0,,,69,0
26519,note_on,,,,,0,0,1,,,,,0,,,74,0
26520,note_on,,,,,0,0,1,,,,,0,,,75,107
26520,note_on,,,,,1,0,3,,,,,2,,,70,110
26520,note_on,,,,,0,0,3,,,,,2,,,75,107
26520,note_on,,,,,60,0,10,,,,,10,,,58,64
26520,note_on,,,,,1,0,1,,,,,0,,,70,110
26520,note_on,,,,,10,0,9,,,,,8,,,70,64
26520,note_on,,,,,1,0,2,,,,,1,,,55,80
26520,note_on,,,,,60,0,11,,,,,11,,,55,64
26520,note_on,,,,,60,0,5,,,,,4,,,55,80
26520,note_on,,,,,60,0,4,,,,,3,,,55,80
26520,note_on,,,,,60,0,8,,,,,7,,,75,64
26521,note_on,,,,,1,0,5,,,,,4,,,53,0
26521,note_on,,,,,1,0,11,,,,,11,,,53,0
26521,note_on,,,,,1,0,4,,,,,3,,,53,0
26522,note_on,,,,,2,0,10,,,,,10,,,65,0
26523,note_on,,,,,3,0,9,,,,,8,,,69,0
26523,note_on,,,,,3,0,8,,,,,7,,,74,0
26549,note_on,,,,,29,0,1,,,,,0,,,70,0
26549,note_on,,,,,29,0,3,,,,,2,,,70,0
26550,note_on,,,,,27,0,9,,,,,8,,,67,64
26550,note_on,,,,,1,0,1,,,,,0,,,67,105
26550,note_on,,,,,1,0,3,,,,,2,,,67,105
26551,note_on,,,,,1,0,9,,,,,8,,,70,0
26574,note_on,,,,,51,0,8,,,,,7,,,75,0
26577,note_on,,,,,26,0,9,,,,,8,,,67,0
26579,note_on,,,,,59,0,2,,,,,1,,,55,0
26579,note_on,,,,,0,0,1,,,,,0,,,75,0
26579,note_on,,,,,29,0,1,,,,,0,,,67,0
26579,note_on,,,,,0,0,3,,,,,2,,,75,0
26579,note_on,,,,,29,0,3,,,,,2,,,67,0
26580,note_on,,,,,59,0,5,,,,,4,,,51,76
26580,note_on,,,,,1,0,2,,,,,1,,,51,76
26580,note_on,,,,,58,0,10,,,,,10,,,58,0
26580,note_on,,,,,0,0,3,,,,,2,,,75,98
26580,note_on,,,,,1,0,3,,,,,2,,,72,107
26580,note_on,,,,,59,0,11,,,,,11,,,51,64
26580,note_on,,,,,0,0,10,,,,,10,,,63,64
26580,note_on,,,,,59,0,4,,,,,3,,,51,76
26580,note_on,,,,,0,0,1,,,,,0,,,75,98
26580,note_on,,,,,1,0,1,,,,,0,,,72,107
26580,note_on,,,,,6,0,8,,,,,7,,,75,64
26580,note_on,,,,,3,0,9,,,,,8,,,72,64
26583,note_on,,,,,3,0,11,,,,,11,,,55,0
26583,note_on,,,,,3,0,5,,,,,4,,,55,0
26583,note_on,,,,,3,0,4,,,,,3,,,55,0
26609,note_on,,,,,29,0,3,,,,,2,,,72,0
26609,note_on,,,,,29,0,1,,,,,0,,,72,0
26610,note_on,,,,,1,0,3,,,,,2,,,70,119
26610,note_on,,,,,30,0,9,,,,,8,,,70,64
26610,note_on,,,,,1,0,1,,,,,0,,,70,119
26615,note_on,,,,,5,0,9,,,,,8,,,72,0
26637,note_on,,,,,57,0,8,,,,,7,,,75,0
26639,note_on,,,,,29,0,3,,,,,2,,,70,0
26639,note_on,,,,,29,0,1,,,,,0,,,70,0
26639,note_on,,,,,0,0,1,,,,,0,,,75,0
26639,note_on,,,,,0,0,3,,,,,2,,,75,0
26640,note_on,,,,,57,0,11,,,,,11,,,53,64
26640,note_on,,,,,60,0,2,,,,,1,,,53,89
26640,note_on,,,,,60,0,10,,,,,10,,,60,64
26640,note_on,,,,,57,0,4,,,,,3,,,53,89
26640,note_on,,,,,3,0,8,,,,,7,,,75,64
26640,note_on,,,,,25,0,9,,,,,8,,,70,0
26640,note_on,,,,,0,0,1,,,,,0,,,75,98
26640,note_on,,,,,1,0,3,,,,,2,,,69,105
26640,note_on,,,,,1,0,1,,,,,0,,,69,105
26640,note_on,,,,,0,0,9,,,,,8,,,69,64
26640,note_on,,,,,0,0,3,,,,,2,,,75,98
26640,note_on,,,,,57,0,5,,,,,4,,,53,89
26644,note_on,,,,,4,0,10,,,,,10,,,63,0
26649,note_on,,,,,9,0,4,,,,,3,,,51,0
26649,note_on,,,,,9,0,11,,,,,11,,,51,0
26649,note_on,,,,,9,0,5,,,,,4,,,51,0
26654,note_on,,,,,14,0,2,,,,,1,,,51,0
26694,note_on,,,,,54,0,8,,,,,7,,,74,64
26699,note_on,,,,,59,0,3,,,,,2,,,75,0
26699,note_on,,,,,45,0,2,,,,,1,,,53,0
26699,note_on,,,,,59,0,1,,,,,0,,,75,0
26700,note_on,,,,,56,0,10,,,,,10,,,62,64
26700,note_on,,,,,60,0,9,,,,,8,,,70,64
26700,note_on,,,,,51,0,4,,,,,3,,,46,102
26700,note_on,,,,,51,0,5,,,,,4,,,46,102
26700,note_on,,,,,1,0,2,,,,,1,,,46,102
26700,note_on,,,,,51,0,11,,,,,11,,,46,64
26700,note_on,,,,,1,0,3,,,,,2,,,74,105
26700,note_on,,,,,1,0,1,,,,,0,,,74,105
26700,note_on,,,,,0,0,1,,,,,0,,,70,116
26700,note_on,,,,,0,0,3,,,,,2,,,70,116
26701,set_tempo,,,,,11790,1,0,,1395349,,,,,,,
26703,note_on,,,,,9,0,8,,,,,7,,,75,0
26703,note_on,,,,,3,0,11,,,,,11,,,53,0
26703,note_on,,,,,3,0,5,,,,,4,,,53,0
26703,note_on,,,,,3,0,4,,,,,3,,,53,0
26711,note_on,,,,,11,0,9,,,,,8,,,69,0
26711,set_tempo,,,,,10,1,0,,1428571,,,,,,,
26714,note_on,,,,,14,0,3,,,,,2,,,69,0
26714,note_on,,,,,14,0,10,,,,,10,,,60,0
26714,note_on,,,,,14,0,1,,,,,0,,,69,0
26721,set_tempo,,,,,10,1,0,,1463415,,,,,,,
26730,note_on,,,,,16,0,10,,,,,10,,,63,64
26731,set_tempo,,,,,10,1,0,,1500000,,,,,,,
26731,note_on,,,,,1,0,10,,,,,10,,,62,0
26740,note_on,,,,,37,0,8,,,,,7,,,72,64
26740,note_on,,,,,26,0,1,,,,,0,,,72,107
26740,note_on,,,,,26,0,3,,,,,2,,,72,107
26741,set_tempo,,,,,10,1,0,,1538462,,,,,,,
26742,note_on,,,,,2,0,8,,,,,7,,,74,0
26745,note_on,,,,,5,0,1,,,,,0,,,70,0
26745,note_on,,,,,34,0,9,,,,,8,,,70,0
26745,note_on,,,,,5,0,3,,,,,2,,,70,0
26748,note_on,,,,,3,0,3,,,,,2,,,74,0
26748,note_on,,,,,3,0,1,,,,,0,,,74,0
26751,set_tempo,,,,,10,1,0,,1578947,,,,,,,
26757,note_on,,,,,9,0,1,,,,,0,,,74,102
26757,note_on,,,,,9,0,3,,,,,2,,,74,102
26757,note_on,,,,,15,0,8,,,,,7,,,74,64
26759,note_on,,,,,2,0,1,,,,,0,,,72,0
26759,note_on,,,,,2,0,3,,,,,2,,,72,0
26759,note_on,,,,,2,0,8,,,,,7,,,72,0
26760,note_on,,,,,1,0,1,,,,,0,,,70,113
26760,note_on,,,,,15,0,9,,,,,8,,,70,64
26760,note_on,,,,,29,0,10,,,,,10,,,65,64
26760,note_on,,,,,1,0,3,,,,,2,,,70,113
26760,note_on,,,,,57,0,5,,,,,4,,,53,89
26760,note_on,,,,,57,0,11,,,,,11,,,53,64
26760,note_on,,,,,60,0,2,,,,,1,,,53,89
26760,note_on,,,,,57,0,4,,,,,3,,,53,89
26761,set_tempo,,,,,10,1,0,,1621622,,,,,,,
26762,note_on,,,,,2,0,2,,,,,1,,,46,0
26762,note_on,,,,,2,0,10,,,,,10,,,63,0
26762,note_on,,,,,2,0,5,,,,,4,,,46,0
26762,note_on,,,,,2,0,11,,,,,11,,,46,0
26762,note_on,,,,,2,0,4,,,,,3,,,46,0
26768,note_on,,,,,9,0,8,,,,,7,,,74,0
26768,note_on,,,,,8,0,3,,,,,2,,,74,0
26768,note_on,,,,,0,0,3,,,,,2,,,72,98
26768,note_on,,,,,0,0,8,,,,,7,,,72,64
26768,note_on,,,,,8,0,1,,,,,0,,,74,0
26768,note_on,,,,,0,0,1,,,,,0,,,72,98
26771,set_tempo,,,,,10,1,0,,1666667,,,,,,,
26775,note_on,,,,,7,0,8,,,,,7,,,74,64
26775,note_on,,,,,7,0,1,,,,,0,,,74,87
26775,note_on,,,,,7,0,3,,,,,2,,,74,87
26776,note_on,,,,,1,0,8,,,,,7,,,72,0
26776,note_on,,,,,1,0,1,,,,,0,,,72,0
26776,note_on,,,,,1,0,3,,,,,2,,,72,0
26781,set_tempo,,,,,10,1,0,,1714286,,,,,,,
26784,note_on,,,,,8,0,3,,,,,2,,,74,0
26784,note_on,,,,,8,0,1,,,,,0,,,74,0
26784,note_on,,,,,0,0,8,,,,,7,,,72,64
26784,note_on,,,,,8,0,8,,,,,7,,,74,0
26784,note_on,,,,,0,0,3,,,,,2,,,72,100
26784,note_on,,,,,0,0,1,,,,,0,,,72,100
26791,set_tempo,,,,,10,1,0,,1764706,,,,,,,
26792,note_on,,,,,0,0,1,,,,,0,,,74,102
26792,note_on,,,,,8,0,3,,,,,2,,,72,0
26792,note_on,,,,,0,0,3,,,,,2,,,74,102
26792,note_on,,,,,0,0,8,,,,,7,,,74,64
26792,note_on,,,,,8,0,8,,,,,7,,,72,0
26792,note_on,,,,,8,0,1,,,,,0,,,72,0
26799,note_on,,,,,7,0,3,,,,,2,,,72,89
26799,note_on,,,,,7,0,8,,,,,7,,,72,64
26799,note_on,,,,,7,0,1,,,,,0,,,72,89
26800,note_on,,,,,1,0,1,,,,,0,,,74,0
26800,note_on,,,,,1,0,3,,,,,2,,,74,0
26800,note_on,,,,,1,0,8,,,,,7,,,74,0
26801,set_tempo,,,,,10,1,0,,1818182,,,,,,,
26806,note_on,,,,,6,0,1,,,,,0,,,74,98
26806,note_on,,,,,6,0,3,,,,,2,,,74,98
26806,note_on,,,,,6,0,8,,,,,7,,,74,64
26807,note_on,,,,,1,0,3,,,,,2,,,72,0
26807,note_on,,,,,1,0,8,,,,,7,,,72,0
26807,note_on,,,,,1,0,1,,,,,0,,,72,0
26811,note_on,,,,,4,0,3,,,,,2,,,72,82
26811,note_on,,,,,4,0,8,,,,,7,,,72,64
26811,note_on,,,,,4,0,1,,,,,0,,,72,82
26811,set_tempo,,,,,10,1,0,,1875000,,,,,,,
26813,note_on,,,,,2,0,3,,,,,2,,,74,0
26813,note_on,,,,,2,0,1,,,,,0,,,74,0
26813,note_on,,,,,2,0,8,,,,,7,,,74,0
26820,note_on,,,,,7,0,3,,,,,2,,,69,116
26820,note_on,,,,,60,0,9,,,,,8,,,69,64
26820,note_on,,,,,7,0,1,,,,,0,,,69,116
26820,note_on,,,,,58,0,4,,,,,3,,,41,102
26820,note_on,,,,,58,0,11,,,,,11,,,41,64
26820,note_on,,,,,58,0,10,,,,,10,,,60,64
26820,note_on,,,,,58,0,2,,,,,1,,,41,102
26820,note_on,,,,,58,0,5,,,,,4,,,41,102
26821,note_on,,,,,1,0,1,,,,,0,,,70,0
26821,set_tempo,,,,,10,1,0,,1935484,,,,,,,
26821,note_on,,,,,1,0,9,,,,,8,,,70,0
26821,note_on,,,,,1,0,3,,,,,2,,,70,0
26822,note_on,,,,,2,0,10,,,,,10,,,65,0
26824,note_on,,,,,4,0,2,,,,,1,,,53,0
26824,note_on,,,,,4,0,5,,,,,4,,,53,0
26824,note_on,,,,,4,0,11,,,,,11,,,53,0
26824,note_on,,,,,4,0,4,,,,,3,,,53,0
26831,set_tempo,,,,,10,1,0,,2000000,,,,,,,
26841,set_tempo,,,,,10,1,0,,2068966,,,,,,,
26850,note_on,,,,,37,0,8,,,,,7,,,70,64
26850,note_on,,,,,29,0,3,,,,,2,,,70,98
26850,note_on,,,,,29,0,1,,,,,0,,,70,98
26851,set_tempo,,,,,10,1,0,,2142857,,,,,,,
26853,note_on,,,,,3,0,3,,,,,2,,,72,0
26853,note_on,,,,,3,0,1,,,,,0,,,72,0
26853,note_on,,,,,3,0,8,,,,,7,,,72,0
26861,set_tempo,,,,,10,1,0,,2222222,,,,,,,
26871,note_on,,,,,18,0,1,,,,,0,,,70,0
26871,set_tempo,,,,,10,1,0,,2307692,,,,,,,
26871,note_on,,,,,18,0,3,,,,,2,,,70,0
26871,note_on,,,,,18,0,8,,,,,7,,,70,0
26880,note_on,,,,,0,0,3,,,,,2,,,70,102
26880,note_on,,,,,9,0,3,,,,,2,,,70,116
26880,note_on,,,,,9,0,8,,,,,7,,,70,64
26880,note_on,,,,,58,0,10,,,,,10,,,62,64
26880,note_on,,,,,59,0,9,,,,,8,,,70,64
26880,note_on,,,,,56,0,5,,,,,4,,,46,102
26880,note_on,,,,,56,0,11,,,,,11,,,46,64
26880,note_on,,,,,9,0,1,,,,,0,,,70,116
26880,note_on,,,,,0,0,1,,,,,0,,,70,102
26880,note_on,,,,,56,0,2,,,,,1,,,46,102
26880,note_on,,,,,56,0,4,,,,,3,,,46,102
26881,note_on,,,,,1,0,2,,,,,1,,,41,0
26881,note_on,,,,,1,0,4,,,,,3,,,41,0
26881,set_tempo,,,,,10,1,0,,6000000,,,,,,,
26881,note_on,,,,,1,0,5,,,,,4,,,41,0
26881,note_on,,,,,1,0,11,,,,,11,,,41,0
26884,note_on,,,,,4,0,3,,,,,2,,,69,0
26884,note_on,,,,,4,0,9,,,,,8,,,69,0
26884,note_on,,,,,4,0,1,,,,,0,,,69,0
26885,note_on,,,,,5,0,10,,,,,10,,,60,0
26998,note_on,,,,,118,0,8,,,,,7,,,70,0
26998,note_on,,,,,114,0,1,,,,,0,,,70,0
26998,note_on,,,,,114,0,3,,,,,2,,,70,0
26998,end_of_track,,,,,0,1,8,,,,,,,,,
26999,note_on,,,,,1,0,3,,,,,2,,,70,0
26999,end_of_track,,,,,0,1,3,,,,,,,,,
26999,end_of_track,,,,,0,1,10,,,,,,,,,
26999,note_on,,,,,115,0,9,,,,,8,,,70,0
26999,end_of_track,,,,,0,1,9,,,,,,,,,
26999,note_on,,,,,114,0,10,,,,,10,,,62,0
26999,note_on,,,,,1,0,1,,,,,0,,,70,0
26999,end_of_track,,,,,0,1,1,,,,,,,,,
27005,end_of_track,,,,,0,1,2,,,,,,,,,
27005,note_on,,,,,124,0,2,,,,,1,,,46,0
27005,end_of_track,,,,,0,1,11,,,,,,,,,
27005,note_on,,,,,124,0,4,,,,,3,,,46,0
27005,end_of_track,,,,,0,1,5,,,,,,,,,
27005,note_on,,,,,124,0,5,,,,,4,,,46,0
27005,note_on,,,,,124,0,11,,,,,11,,,46,0
27005,end_of_track,,,,,0,1,4,,,,,,,,,
27021,set_tempo,,,,,140,1,0,,461538,,,,,,,
27361,end_of_track,,,,,0,1,0,,,,,,,,,
27361,set_tempo,,,,,340,1,0,,1224490,,,,,,,
