tick,type,numerator,denominator,clocks_per_click,notated_32nd_notes_per_beat,time,meta,track,data,tempo,control,value,channel,program,key,note,velocity
0,time_signature,4,4,96,8,0,1,0,,,,,,,,,
0,program_change,,,,,0,0,5,,,,,4,43,,,
0,key_signature,,,,,0,1,5,,,,,,,F,,
0,note_on,,,,,0,0,5,,,,,4,,,41,47
0,key_signature,,,,,0,1,20,,,,,,,C,,
0,track_name,,,,,0,1,6,,,,,,,,,
0,control_change,,,,,0,0,6,,,0,0,5,,,,
0,control_change,,,,,0,0,6,,,10,64,5,,,,
0,control_change,,,,,0,0,6,,,7,110,5,,,,
0,program_change,,,,,0,0,6,,,,,5,68,,,
0,key_signature,,,,,0,1,6,,,,,,,F,,
0,track_name,,,,,0,1,7,,,,,,,,,
0,control_change,,,,,0,0,7,,,0,0,6,,,,
0,control_change,,,,,0,0,7,,,10,64,6,,,,
0,control_change,,,,,0,0,7,,,7,100,6,,,,
0,program_change,,,,,0,0,7,,,,,6,70,,,
0,key_signature,,,,,0,1,7,,,,,,,F,,
0,note_on,,,,,0,0,7,,,,,6,,,53,51
0,control_change,,,,,0,0,5,,,7,80,4,,,,
0,track_name,,,,,0,1,8,,,,,,,,,
0,control_change,,,,,0,0,5,,,10,64,4,,,,
0,track_name,,,,,0,1,5,,,,,,,,,
0,control_change,,,,,0,0,2,,,10,104,1,,,,
0,control_change,,,,,0,0,2,,,7,127,1,,,,
0,program_change,,,,,0,0,2,,,,,1,48,,,
0,key_signature,,,,,0,1,2,,,,,,,F,,
0,track_name,,,,,0,1,3,,,,,,,,,
0,control_change,,,,,0,0,3,,,0,0,2,,,,
0,control_change,,,,,0,0,3,,,10,109,2,,,,
0,control_change,,,,,0,0,3,,,7,110,2,,,,
0,program_change,,,,,0,0,3,,,,,2,41,,,
0,key_signature,,,,,0,1,3,,,,,,,F,,
0,track_name,,,,,0,1,4,,,,,,,,,
0,control_change,,,,,0,0,4,,,0,0,3,,,,
0,control_change,,,,,0,0,4,,,10,24,3,,,,
0,control_change,,,,,0,0,4,,,7,100,3,,,,
0,program_change,,,,,0,0,4,,,,,3,42,,,
0,key_signature,,,,,0,1,4,,,,,,,F,,
0,note_on,,,,,0,0,4,,,,,3,,,53,50
0,control_change,,,,,0,0,5,,,0,0,4,,,,
0,control_change,,,,,0,0,8,,,0,0,7,,,,
0,control_change,,,,,0,0,8,,,10,74,7,,,,
0,control_change,,,,,0,0,8,,,7,127,7,,,,
0,end_of_track,,,,,0,1,13,,,,,,,,,
0,track_name,,,,,0,1,14,,,,,,,,,
0,key_signature,,,,,0,1,14,,,,,,,C,,
0,end_of_track,,,,,0,1,14,,,,,,,,,
0,track_name,,,,,0,1,15,,,,,,,,,
0,key_signature,,,,,0,1,15,,,,,,,C,,
0,end_of_track,,,,,0,1,15,,,,,,,,,
0,track_name,,,,,0,1,16,,,,,,,,,
0,key_signature,,,,,0,1,16,,,,,,,C,,
0,end_of_track,,,,,0,1,16,,,,,,,,,
0,track_name,,,,,0,1,17,,,,,,,,,
0,key_signature,,,,,0,1,17,,,,,,,C,,
0,end_of_track,,,,,0,1,17,,,,,,,,,
0,key_signature,,,,,0,1,18,,,,,,,C,,
0,end_of_track,,,,,0,1,18,,,,,,,,,
0,key_signature,,,,,0,1,19,,,,,,,C,,
0,end_of_track,,,,,0,1,19,,,,,,,,,
0,key_signature,,,,,0,1,13,,,,,,,C,,
0,track_name,,,,,0,1,13,,,,,,,,,
0,end_of_track,,,,,0,1,12,,,,,,,,,
0,key_signature,,,,,0,1,12,,,,,,,C,,
0,program_change,,,,,0,0,8,,,,,7,19,,,
0,key_signature,,,,,0,1,8,,,,,,,F,,
0,track_name,,,,,0,1,9,,,,,,,,,
0,control_change,,,,,0,0,9,,,0,0,8,,,,
0,control_change,,,,,0,0,9,,,10,51,8,,,,
0,control_change,,,,,0,0,9,,,7,127,8,,,,
0,program_change,,,,,0,0,9,,,,,8,19,,,
0,key_signature,,,,,0,1,9,,,,,,,F,,
0,control_change,,,,,0,0,2,,,0,0,1,,,,
0,track_name,,,,,0,1,10,,,,,,,,,
0,control_change,,,,,0,0,10,,,10,51,8,,,,
0,control_change,,,,,0,0,10,,,7,127,8,,,,
0,program_change,,,,,0,0,10,,,,,8,19,,,
0,key_signature,,,,,0,1,10,,,,,,,F,,
0,track_name,,,,,0,1,11,,,,,,,,,
0,key_signature,,,,,0,1,11,,,,,,,C,,
0,end_of_track,,,,,0,1,11,,,,,,,,,
0,track_name,,,,,0,1,12,,,,,,,,,
0,control_change,,,,,0,0,10,,,0,0,8,,,,
0,track_name,,,,,0,1,2,,,,,,,,,
0,end_of_track,,,,,0,1,20,,,,,,,,,
0,sequencer_specific,,,,,0,1,0,"(0, 0, 65)",,,,,,,,
0,set_tempo,,,,,0,1,0,,1090909,,,,,,,
0,track_name,,,,,0,1,1,,,,,,,,,
0,control_change,,,,,0,0,1,,,0,0,0,,,,
0,control_change,,,,,0,0,1,,,10,24,0,,,,
0,control_change,,,,,0,0,1,,,7,127,0,,,,
0,program_change,,,,,0,0,1,,,,,0,48,,,
0,key_signature,,,,,0,1,1,,,,,,,F,,
320,note_off,,,,,320,0,7,,,,,6,,,53,0
384,note_on,,,,,0,0,5,,,,,4,,,33,47
384,note_off,,,,,384,0,5,,,,,4,,,41,0
384,note_on,,,,,0,0,4,,,,,3,,,45,50
384,note_off,,,,,384,0,4,,,,,3,,,53,0
384,note_on,,,,,64,0,7,,,,,6,,,45,51
576,note_on,,,,,576,0,6,,,,,5,,,65,51
576,note_on,,,,,576,0,3,,,,,2,,,65,51
576,note_on,,,,,576,0,2,,,,,1,,,65,58
576,note_on,,,,,576,0,1,,,,,0,,,65,58
704,note_off,,,,,320,0,7,,,,,6,,,45,0
764,note_off,,,,,188,0,6,,,,,5,,,65,0
768,note_on,,,,,0,0,2,,,,,1,,,74,58
768,note_on,,,,,0,0,5,,,,,4,,,34,47
768,note_off,,,,,384,0,5,,,,,4,,,33,0
768,note_off,,,,,192,0,1,,,,,0,,,65,0
768,note_off,,,,,192,0,2,,,,,1,,,65,0
768,note_on,,,,,64,0,7,,,,,6,,,46,51
768,note_off,,,,,384,0,4,,,,,3,,,45,0
768,note_on,,,,,0,0,1,,,,,0,,,74,58
768,note_on,,,,,0,0,3,,,,,2,,,65,51
768,note_off,,,,,192,0,3,,,,,2,,,65,0
768,note_on,,,,,4,0,6,,,,,5,,,74,51
768,note_on,,,,,0,0,4,,,,,3,,,46,50
956,note_off,,,,,188,0,6,,,,,5,,,74,0
960,note_on,,,,,4,0,6,,,,,5,,,74,51
960,note_on,,,,,0,0,2,,,,,1,,,74,58
960,note_off,,,,,192,0,2,,,,,1,,,74,0
960,note_on,,,,,0,0,1,,,,,0,,,74,58
960,note_off,,,,,192,0,1,,,,,0,,,74,0
1088,note_off,,,,,320,0,7,,,,,6,,,46,0
1148,note_off,,,,,188,0,6,,,,,5,,,74,0
1152,note_on,,,,,0,0,5,,,,,4,,,46,47
1152,note_off,,,,,384,0,4,,,,,3,,,46,0
1152,note_on,,,,,0,0,2,,,,,1,,,74,58
1152,note_on,,,,,4,0,6,,,,,5,,,74,51
1152,note_off,,,,,384,0,5,,,,,4,,,34,0
1152,note_on,,,,,0,0,4,,,,,3,,,58,50
1152,note_on,,,,,0,0,3,,,,,2,,,67,51
1152,note_off,,,,,384,0,3,,,,,2,,,65,0
1152,note_on,,,,,0,0,1,,,,,0,,,74,58
1152,note_off,,,,,192,0,1,,,,,0,,,74,0
1152,note_off,,,,,192,0,2,,,,,1,,,74,0
1152,note_on,,,,,64,0,7,,,,,6,,,58,51
1340,note_off,,,,,188,0,6,,,,,5,,,74,0
1344,note_on,,,,,4,0,6,,,,,5,,,74,51
1344,note_on,,,,,0,0,2,,,,,1,,,74,58
1344,note_off,,,,,192,0,2,,,,,1,,,74,0
1344,note_off,,,,,192,0,1,,,,,0,,,74,0
1344,note_on,,,,,0,0,1,,,,,0,,,74,58
1364,note_off,,,,,20,0,6,,,,,5,,,74,0
1368,note_on,,,,,4,0,6,,,,,5,,,72,51
1368,note_off,,,,,24,0,2,,,,,1,,,74,0
1368,note_on,,,,,0,0,2,,,,,1,,,72,58
1368,note_on,,,,,0,0,1,,,,,0,,,72,58
1368,note_off,,,,,24,0,1,,,,,0,,,74,0
1388,note_off,,,,,20,0,6,,,,,5,,,72,0
1392,note_on,,,,,0,0,1,,,,,0,,,74,58
1392,note_on,,,,,4,0,6,,,,,5,,,74,51
1392,note_on,,,,,0,0,2,,,,,1,,,74,58
1392,note_off,,,,,24,0,2,,,,,1,,,72,0
1392,note_off,,,,,24,0,1,,,,,0,,,72,0
1412,note_off,,,,,20,0,6,,,,,5,,,74,0
1416,note_on,,,,,0,0,2,,,,,1,,,72,58
1416,note_off,,,,,24,0,2,,,,,1,,,74,0
1416,note_off,,,,,24,0,1,,,,,0,,,74,0
1416,note_on,,,,,0,0,1,,,,,0,,,72,58
1416,note_on,,,,,4,0,6,,,,,5,,,72,51
1436,note_off,,,,,20,0,6,,,,,5,,,72,0
1440,note_off,,,,,24,0,2,,,,,1,,,72,0
1440,note_off,,,,,24,0,1,,,,,0,,,72,0
1440,note_on,,,,,0,0,2,,,,,1,,,74,58
1440,note_on,,,,,4,0,6,,,,,5,,,74,51
1440,note_on,,,,,0,0,1,,,,,0,,,74,58
1460,note_off,,,,,20,0,6,,,,,5,,,74,0
1464,note_on,,,,,4,0,6,,,,,5,,,72,51
1464,note_off,,,,,24,0,2,,,,,1,,,74,0
1464,note_off,,,,,24,0,1,,,,,0,,,74,0
1464,note_on,,,,,0,0,1,,,,,0,,,72,58
1464,note_on,,,,,0,0,2,,,,,1,,,72,58
1472,note_off,,,,,320,0,7,,,,,6,,,58,0
1484,note_off,,,,,20,0,6,,,,,5,,,72,0
1488,note_on,,,,,0,0,1,,,,,0,,,70,58
1488,note_on,,,,,4,0,6,,,,,5,,,70,51
1488,note_on,,,,,0,0,2,,,,,1,,,70,58
1488,note_off,,,,,24,0,2,,,,,1,,,72,0
1488,note_off,,,,,24,0,1,,,,,0,,,72,0
1532,note_off,,,,,44,0,6,,,,,5,,,70,0
1536,note_on,,,,,64,0,7,,,,,6,,,58,51
1536,note_on,,,,,4,0,6,,,,,5,,,72,51
1536,note_on,,,,,0,0,5,,,,,4,,,46,47
1536,note_off,,,,,384,0,5,,,,,4,,,46,0
1536,note_on,,,,,0,0,1,,,,,0,,,72,58
1536,note_off,,,,,384,0,4,,,,,3,,,58,0
1536,note_off,,,,,48,0,2,,,,,1,,,70,0
1536,note_off,,,,,384,0,3,,,,,2,,,67,0
1536,note_on,,,,,0,0,3,,,,,2,,,64,51
1536,note_on,,,,,0,0,2,,,,,1,,,72,58
1536,note_on,,,,,0,0,4,,,,,3,,,58,50
1536,note_off,,,,,48,0,1,,,,,0,,,70,0
1856,note_off,,,,,320,0,7,,,,,6,,,58,0
1856,note_off,,,,,320,0,6,,,,,5,,,72,0
1920,note_off,,,,,384,0,1,,,,,0,,,72,0
1920,note_on,,,,,0,0,4,,,,,3,,,57,50
1920,note_on,,,,,64,0,7,,,,,6,,,57,51
1920,note_on,,,,,0,0,5,,,,,4,,,45,47
1920,note_off,,,,,384,0,5,,,,,4,,,46,0
1920,note_off,,,,,384,0,3,,,,,2,,,64,0
1920,note_off,,,,,384,0,4,,,,,3,,,58,0
1920,note_off,,,,,384,0,2,,,,,1,,,72,0
1920,note_on,,,,,0,0,3,,,,,2,,,60,51
2112,note_on,,,,,192,0,2,,,,,1,,,65,58
2112,note_on,,,,,192,0,1,,,,,0,,,65,58
2112,note_on,,,,,256,0,6,,,,,5,,,65,51
2240,note_off,,,,,320,0,7,,,,,6,,,57,0
2300,note_off,,,,,188,0,6,,,,,5,,,65,0
2304,note_on,,,,,0,0,3,,,,,2,,,65,51
2304,note_off,,,,,384,0,3,,,,,2,,,60,0
2304,note_off,,,,,192,0,2,,,,,1,,,65,0
2304,note_off,,,,,384,0,4,,,,,3,,,57,0
2304,note_on,,,,,0,0,4,,,,,3,,,50,50
2304,note_off,,,,,384,0,5,,,,,4,,,45,0
2304,note_on,,,,,0,0,2,,,,,1,,,70,58
2304,note_off,,,,,192,0,1,,,,,0,,,65,0
2304,note_on,,,,,0,0,5,,,,,4,,,38,47
2304,note_on,,,,,64,0,7,,,,,6,,,50,51
2304,note_on,,,,,4,0,6,,,,,5,,,70,51
2304,note_on,,,,,0,0,1,,,,,0,,,70,58
2492,note_off,,,,,188,0,6,,,,,5,,,70,0
2496,note_on,,,,,4,0,6,,,,,5,,,70,55
2496,note_off,,,,,192,0,1,,,,,0,,,70,0
2496,note_off,,,,,192,0,2,,,,,1,,,70,0
2496,note_on,,,,,0,0,1,,,,,0,,,70,64
2496,note_on,,,,,0,0,2,,,,,1,,,70,64
2624,note_off,,,,,320,0,7,,,,,6,,,50,0
2684,note_off,,,,,188,0,6,,,,,5,,,70,0
2688,note_on,,,,,4,0,6,,,,,5,,,70,58
2688,note_off,,,,,384,0,4,,,,,3,,,50,0
2688,note_on,,,,,0,0,4,,,,,3,,,52,58
2688,note_on,,,,,0,0,2,,,,,1,,,70,69
2688,note_on,,,,,0,0,5,,,,,4,,,40,55
2688,note_on,,,,,64,0,7,,,,,6,,,52,59
2688,note_off,,,,,384,0,5,,,,,4,,,38,0
2688,note_off,,,,,192,0,1,,,,,0,,,70,0
2688,note_on,,,,,0,0,1,,,,,0,,,70,69
2688,note_off,,,,,192,0,2,,,,,1,,,70,0
2688,note_on,,,,,0,0,3,,,,,2,,,67,60
2688,note_off,,,,,384,0,3,,,,,2,,,65,0
2876,note_off,,,,,188,0,6,,,,,5,,,70,0
2880,note_off,,,,,192,0,2,,,,,1,,,70,0
2880,note_off,,,,,192,0,1,,,,,0,,,70,0
2880,note_on,,,,,0,0,1,,,,,0,,,70,74
2880,note_on,,,,,4,0,6,,,,,5,,,70,63
2880,note_on,,,,,0,0,2,,,,,1,,,70,74
2900,note_off,,,,,20,0,6,,,,,5,,,70,0
2904,note_on,,,,,0,0,1,,,,,0,,,69,74
2904,note_on,,,,,0,0,2,,,,,1,,,69,74
2904,note_on,,,,,4,0,6,,,,,5,,,69,63
2904,note_off,,,,,24,0,2,,,,,1,,,70,0
2904,note_off,,,,,24,0,1,,,,,0,,,70,0
2924,note_off,,,,,20,0,6,,,,,5,,,69,0
2928,note_on,,,,,0,0,1,,,,,0,,,70,74
2928,note_off,,,,,24,0,2,,,,,1,,,69,0
2928,note_off,,,,,24,0,1,,,,,0,,,69,0
2928,note_on,,,,,0,0,2,,,,,1,,,70,74
2928,note_on,,,,,4,0,6,,,,,5,,,70,63
2948,note_off,,,,,20,0,6,,,,,5,,,70,0
2952,note_off,,,,,24,0,2,,,,,1,,,70,0
2952,note_on,,,,,0,0,2,,,,,1,,,69,74
2952,note_off,,,,,24,0,1,,,,,0,,,70,0
2952,note_on,,,,,0,0,1,,,,,0,,,69,74
2952,note_on,,,,,4,0,6,,,,,5,,,69,63
2972,note_off,,,,,20,0,6,,,,,5,,,69,0
2976,note_on,,,,,0,0,2,,,,,1,,,70,74
2976,note_off,,,,,24,0,2,,,,,1,,,69,0
2976,note_on,,,,,4,0,6,,,,,5,,,70,63
2976,note_off,,,,,24,0,1,,,,,0,,,69,0
2976,note_on,,,,,0,0,1,,,,,0,,,70,74
2996,note_off,,,,,20,0,6,,,,,5,,,70,0
3000,note_on,,,,,0,0,2,,,,,1,,,69,74
3000,note_off,,,,,24,0,2,,,,,1,,,70,0
3000,note_on,,,,,0,0,1,,,,,0,,,69,74
3000,note_off,,,,,24,0,1,,,,,0,,,70,0
3000,note_on,,,,,4,0,6,,,,,5,,,69,63
3008,note_off,,,,,320,0,7,,,,,6,,,52,0
3020,note_off,,,,,20,0,6,,,,,5,,,69,0
3024,note_on,,,,,0,0,2,,,,,1,,,67,74
3024,note_off,,,,,24,0,1,,,,,0,,,69,0
3024,note_on,,,,,4,0,6,,,,,5,,,67,63
3024,note_on,,,,,0,0,1,,,,,0,,,67,74
3024,note_off,,,,,24,0,2,,,,,1,,,69,0
3068,note_off,,,,,44,0,6,,,,,5,,,67,0
3072,note_off,,,,,384,0,3,,,,,2,,,67,0
3072,note_on,,,,,0,0,1,,,,,0,,,69,75
3072,note_on,,,,,0,0,4,,,,,3,,,53,66
3072,note_on,,,,,64,0,7,,,,,6,,,53,67
3072,note_off,,,,,384,0,4,,,,,3,,,52,0
3072,note_on,,,,,4,0,6,,,,,5,,,69,64
3072,note_off,,,,,48,0,1,,,,,0,,,67,0
3072,note_off,,,,,48,0,2,,,,,1,,,67,0
3072,note_on,,,,,0,0,5,,,,,4,,,41,62
3072,note_off,,,,,384,0,5,,,,,4,,,40,0
3072,note_on,,,,,0,0,2,,,,,1,,,69,75
3072,note_on,,,,,0,0,3,,,,,2,,,60,70
3392,note_off,,,,,320,0,7,,,,,6,,,53,0
3392,note_off,,,,,320,0,6,,,,,5,,,69,0
3456,note_on,,,,,0,0,4,,,,,3,,,41,75
3456,note_off,,,,,384,0,4,,,,,3,,,53,0
3456,note_off,,,,,384,0,3,,,,,2,,,60,0
3456,note_off,,,,,384,0,1,,,,,0,,,69,0
3456,note_off,,,,,384,0,5,,,,,4,,,41,0
3456,note_on,,,,,0,0,5,,,,,4,,,29,71
3456,note_off,,,,,384,0,2,,,,,1,,,69,0
3456,note_on,,,,,64,0,7,,,,,6,,,41,77
3648,note_on,,,,,192,0,1,,,,,0,,,69,98
3648,note_on,,,,,192,0,2,,,,,1,,,69,98
3648,note_on,,,,,192,0,3,,,,,2,,,60,86
3648,note_on,,,,,256,0,6,,,,,5,,,69,80
3776,note_off,,,,,320,0,7,,,,,6,,,41,0
3836,note_off,,,,,188,0,6,,,,,5,,,69,0
3840,note_on,,,,,4,0,6,,,,,5,,,67,86
3840,note_on,,,,,0,0,3,,,,,2,,,58,86
3840,note_on,,,,,0,0,5,,,,,4,,,34,79
3840,note_off,,,,,384,0,5,,,,,4,,,29,0
3840,note_on,,,,,0,0,4,,,,,3,,,46,84
3840,note_off,,,,,192,0,3,,,,,2,,,60,0
3840,note_off,,,,,192,0,2,,,,,1,,,69,0
3840,note_off,,,,,192,0,1,,,,,0,,,69,0
3840,note_off,,,,,384,0,4,,,,,3,,,41,0
3840,note_on,,,,,0,0,2,,,,,1,,,67,98
3840,note_on,,,,,64,0,7,,,,,6,,,46,86
3840,note_on,,,,,0,0,1,,,,,0,,,67,98
4032,note_on,,,,,0,0,7,,,,,6,,,41,86
4032,note_off,,,,,192,0,7,,,,,6,,,46,0
4032,note_on,,,,,0,0,2,,,,,1,,,65,98
4032,note_on,,,,,0,0,5,,,,,4,,,29,79
4032,note_off,,,,,192,0,5,,,,,4,,,34,0
4032,note_off,,,,,192,0,3,,,,,2,,,58,0
4032,note_off,,,,,192,0,1,,,,,0,,,67,0
4032,note_off,,,,,192,0,4,,,,,3,,,46,0
4032,note_off,,,,,192,0,2,,,,,1,,,67,0
4032,note_on,,,,,0,0,1,,,,,0,,,65,98
4032,note_off,,,,,192,0,6,,,,,5,,,67,0
4032,note_on,,,,,0,0,6,,,,,5,,,65,86
4032,note_on,,,,,0,0,4,,,,,3,,,41,84
4032,note_on,,,,,0,0,3,,,,,2,,,57,86
4220,note_off,,,,,188,0,7,,,,,6,,,41,0
4220,note_off,,,,,188,0,6,,,,,5,,,65,0
4224,note_off,,,,,192,0,2,,,,,1,,,65,0
4224,note_on,,,,,0,0,2,,,,,1,,,65,98
4224,note_on,,,,,0,0,5,,,,,4,,,36,79
4224,note_off,,,,,192,0,1,,,,,0,,,65,0
4224,note_off,,,,,192,0,3,,,,,2,,,57,0
4224,note_on,,,,,0,0,3,,,,,2,,,57,86
4224,note_on,,,,,0,0,1,,,,,0,,,65,98
4224,note_on,,,,,4,0,7,,,,,6,,,48,86
4224,note_off,,,,,192,0,4,,,,,3,,,41,0
4224,note_on,,,,,0,0,4,,,,,3,,,48,84
4224,note_off,,,,,192,0,5,,,,,4,,,29,0
4224,note_on,,,,,4,0,6,,,,,5,,,65,86
4248,note_on,,,,,0,0,1,,,,,0,,,64,98
4248,note_on,,,,,0,0,6,,,,,5,,,64,86
4248,note_off,,,,,24,0,3,,,,,2,,,57,0
4248,note_on,,,,,0,0,3,,,,,2,,,55,86
4248,note_off,,,,,24,0,2,,,,,1,,,65,0
4248,note_on,,,,,0,0,2,,,,,1,,,64,98
4248,note_off,,,,,24,0,6,,,,,5,,,65,0
4248,note_off,,,,,24,0,1,,,,,0,,,65,0
4272,note_off,,,,,24,0,3,,,,,2,,,55,0
4272,note_on,,,,,0,0,3,,,,,2,,,57,86
4272,note_off,,,,,24,0,2,,,,,1,,,64,0
4272,note_on,,,,,0,0,1,,,,,0,,,65,98
4272,note_off,,,,,24,0,6,,,,,5,,,64,0
4272,note_on,,,,,0,0,6,,,,,5,,,65,86
4272,note_off,,,,,24,0,1,,,,,0,,,64,0
4272,note_on,,,,,0,0,2,,,,,1,,,65,98
4296,note_off,,,,,24,0,6,,,,,5,,,65,0
4296,note_on,,,,,0,0,6,,,,,5,,,64,86
4296,note_off,,,,,24,0,3,,,,,2,,,57,0
4296,note_off,,,,,24,0,2,,,,,1,,,65,0
4296,note_on,,,,,0,0,2,,,,,1,,,64,98
4296,note_on,,,,,0,0,3,,,,,2,,,55,86
4296,note_off,,,,,24,0,1,,,,,0,,,65,0
4296,note_on,,,,,0,0,1,,,,,0,,,64,98
4320,note_on,,,,,0,0,3,,,,,2,,,57,86
4320,note_off,,,,,24,0,2,,,,,1,,,64,0
4320,note_on,,,,,0,0,2,,,,,1,,,65,98
4320,note_off,,,,,24,0,3,,,,,2,,,55,0
4320,note_on,,,,,0,0,1,,,,,0,,,65,98
4320,note_on,,,,,0,0,6,,,,,5,,,65,86
4320,note_off,,,,,24,0,6,,,,,5,,,64,0
4320,note_off,,,,,24,0,1,,,,,0,,,64,0
4344,note_off,,,,,24,0,1,,,,,0,,,65,0
4344,note_off,,,,,24,0,6,,,,,5,,,65,0
4344,note_on,,,,,0,0,1,,,,,0,,,64,98
4344,note_on,,,,,0,0,2,,,,,1,,,64,98
4344,note_off,,,,,24,0,2,,,,,1,,,65,0
4344,note_on,,,,,0,0,3,,,,,2,,,55,86
4344,note_off,,,,,24,0,3,,,,,2,,,57,0
4344,note_on,,,,,0,0,6,,,,,5,,,64,86
4368,note_off,,,,,24,0,6,,,,,5,,,64,0
4368,note_on,,,,,0,0,6,,,,,5,,,65,86
4368,note_off,,,,,24,0,3,,,,,2,,,55,0
4368,note_off,,,,,24,0,1,,,,,0,,,64,0
4368,note_on,,,,,0,0,3,,,,,2,,,57,86
4368,note_on,,,,,0,0,2,,,,,1,,,65,98
4368,note_off,,,,,24,0,2,,,,,1,,,64,0
4368,note_on,,,,,0,0,1,,,,,0,,,65,98
4392,note_on,,,,,0,0,3,,,,,2,,,55,86
4392,note_off,,,,,24,0,3,,,,,2,,,57,0
4392,note_off,,,,,24,0,6,,,,,5,,,65,0
4392,note_on,,,,,0,0,6,,,,,5,,,64,86
4392,note_on,,,,,0,0,2,,,,,1,,,64,98
4392,note_off,,,,,24,0,2,,,,,1,,,65,0
4392,note_off,,,,,24,0,1,,,,,0,,,65,0
4392,note_on,,,,,0,0,1,,,,,0,,,64,98
4512,note_off,,,,,120,0,6,,,,,5,,,64,0
4512,note_off,,,,,120,0,1,,,,,0,,,64,0
4512,note_on,,,,,0,0,1,,,,,0,,,62,98
4512,note_on,,,,,0,0,6,,,,,5,,,62,86
4512,note_off,,,,,120,0,2,,,,,1,,,64,0
4512,note_on,,,,,0,0,2,,,,,1,,,62,98
4512,note_on,,,,,0,0,3,,,,,2,,,53,86
4512,note_off,,,,,120,0,3,,,,,2,,,55,0
4544,note_off,,,,,320,0,7,,,,,6,,,48,0
4560,note_on,,,,,0,0,6,,,,,5,,,64,86
4560,note_off,,,,,48,0,1,,,,,0,,,62,0
4560,note_on,,,,,0,0,1,,,,,0,,,64,98
4560,note_off,,,,,48,0,2,,,,,1,,,62,0
4560,note_on,,,,,0,0,2,,,,,1,,,64,98
4560,note_on,,,,,0,0,3,,,,,2,,,55,86
4560,note_off,,,,,48,0,3,,,,,2,,,53,0
4560,note_off,,,,,48,0,6,,,,,5,,,62,0
4604,note_off,,,,,44,0,6,,,,,5,,,64,0
4608,note_off,,,,,48,0,1,,,,,0,,,64,0
4608,note_off,,,,,48,0,2,,,,,1,,,64,0
4608,note_on,,,,,0,0,2,,,,,1,,,65,98
4608,note_on,,,,,0,0,3,,,,,2,,,57,86
4608,note_off,,,,,48,0,3,,,,,2,,,55,0
4608,note_on,,,,,64,0,7,,,,,6,,,41,86
4608,note_on,,,,,0,0,1,,,,,0,,,65,98
4608,note_on,,,,,4,0,6,,,,,5,,,65,86
4608,note_on,,,,,0,0,5,,,,,4,,,29,79
4608,note_off,,,,,384,0,4,,,,,3,,,48,0
4608,note_on,,,,,0,0,4,,,,,3,,,41,84
4608,note_off,,,,,384,0,5,,,,,4,,,36,0
4928,note_off,,,,,320,0,6,,,,,5,,,65,0
4928,note_off,,,,,320,0,7,,,,,6,,,41,0
4992,note_off,,,,,384,0,5,,,,,4,,,29,0
4992,note_on,,,,,4992,0,10,,,,,8,,,45,76
4992,note_off,,,,,384,0,2,,,,,1,,,65,0
4992,note_off,,,,,384,0,3,,,,,2,,,57,0
4992,note_off,,,,,384,0,4,,,,,3,,,41,0
4992,note_on,,,,,0,0,9,,,,,8,,,65,76
4992,note_off,,,,,384,0,1,,,,,0,,,65,0
4992,note_on,,,,,4992,0,9,,,,,8,,,60,76
5184,note_on,,,,,5184,0,8,,,,,7,,,65,76
5312,note_off,,,,,320,0,10,,,,,8,,,45,0
5312,note_off,,,,,320,0,9,,,,,8,,,60,0
5372,note_off,,,,,188,0,8,,,,,7,,,65,0
5376,note_on,,,,,64,0,9,,,,,8,,,58,76
5376,note_on,,,,,64,0,10,,,,,8,,,46,76
5376,note_on,,,,,4,0,8,,,,,7,,,74,76
5564,note_off,,,,,188,0,8,,,,,7,,,74,0
5568,note_on,,,,,4,0,8,,,,,7,,,74,76
5696,note_off,,,,,0,0,9,,,,,8,,,58,0
5696,note_off,,,,,320,0,9,,,,,8,,,65,0
5696,note_off,,,,,320,0,10,,,,,8,,,46,0
5756,note_off,,,,,188,0,8,,,,,7,,,74,0
5760,note_on,,,,,64,0,10,,,,,8,,,58,76
5760,note_on,,,,,64,0,9,,,,,8,,,62,76
5760,note_on,,,,,4,0,8,,,,,7,,,74,76
5760,note_on,,,,,0,0,9,,,,,8,,,67,76
5948,note_off,,,,,188,0,8,,,,,7,,,74,0
5952,note_on,,,,,4,0,8,,,,,7,,,74,76
5976,note_on,,,,,0,0,8,,,,,7,,,72,76
5976,note_off,,,,,24,0,8,,,,,7,,,74,0
6000,note_on,,,,,0,0,8,,,,,7,,,74,76
6000,note_off,,,,,24,0,8,,,,,7,,,72,0
6024,note_on,,,,,0,0,8,,,,,7,,,72,76
6024,note_off,,,,,24,0,8,,,,,7,,,74,0
6048,note_on,,,,,0,0,8,,,,,7,,,74,76
6048,note_off,,,,,24,0,8,,,,,7,,,72,0
6072,note_off,,,,,24,0,8,,,,,7,,,74,0
6072,note_on,,,,,0,0,8,,,,,7,,,72,76
6080,note_off,,,,,0,0,9,,,,,8,,,67,0
6080,note_off,,,,,320,0,9,,,,,8,,,62,0
6080,note_off,,,,,320,0,10,,,,,8,,,58,0
6092,note_off,,,,,20,0,8,,,,,7,,,72,0
6096,note_on,,,,,4,0,8,,,,,7,,,70,76
6140,note_off,,,,,44,0,8,,,,,7,,,70,0
6144,note_on,,,,,0,0,9,,,,,8,,,65,76
6144,note_on,,,,,4,0,8,,,,,7,,,72,76
6144,note_on,,,,,64,0,9,,,,,8,,,60,76
6144,note_on,,,,,64,0,10,,,,,8,,,57,76
6336,note_on,,,,,1344,0,4,,,,,3,,,57,50
6336,note_on,,,,,1344,0,1,,,,,0,,,65,58
6336,note_on,,,,,1344,0,5,,,,,4,,,45,47
6336,note_on,,,,,1344,0,3,,,,,2,,,65,51
6336,note_on,,,,,1344,0,2,,,,,1,,,65,58
6464,note_off,,,,,320,0,9,,,,,8,,,60,0
6464,note_off,,,,,320,0,10,,,,,8,,,57,0
6464,note_off,,,,,320,0,8,,,,,7,,,72,0
6528,note_off,,,,,192,0,5,,,,,4,,,45,0
6528,note_on,,,,,0,0,4,,,,,3,,,50,50
6528,note_on,,,,,64,0,10,,,,,8,,,50,76
6528,note_off,,,,,192,0,1,,,,,0,,,65,0
6528,note_on,,,,,0,0,1,,,,,0,,,77,58
6528,note_on,,,,,64,0,9,,,,,8,,,62,76
6528,note_off,,,,,192,0,3,,,,,2,,,65,0
6528,note_on,,,,,0,0,5,,,,,4,,,38,47
6528,note_off,,,,,192,0,2,,,,,1,,,65,0
6528,note_on,,,,,0,0,2,,,,,1,,,77,58
6528,note_off,,,,,192,0,4,,,,,3,,,57,0
6528,note_on,,,,,0,0,3,,,,,2,,,69,51
6720,note_on,,,,,256,0,8,,,,,7,,,65,76
6816,note_off,,,,,288,0,9,,,,,8,,,65,0
6848,note_off,,,,,320,0,10,,,,,8,,,50,0
6848,note_off,,,,,32,0,9,,,,,8,,,62,0
6908,note_off,,,,,188,0,8,,,,,7,,,65,0
6912,note_on,,,,,64,0,10,,,,,8,,,55,76
6912,note_off,,,,,384,0,4,,,,,3,,,50,0
6912,note_on,,,,,4,0,8,,,,,7,,,70,76
6912,note_on,,,,,0,0,9,,,,,8,,,62,76
6912,note_off,,,,,384,0,5,,,,,4,,,38,0
6912,note_off,,,,,384,0,3,,,,,2,,,69,0
6912,note_on,,,,,64,0,9,,,,,8,,,58,76
7100,note_off,,,,,188,0,8,,,,,7,,,70,0
7104,note_on,,,,,192,0,5,,,,,4,,,43,47
7104,note_on,,,,,192,0,4,,,,,3,,,55,50
7104,note_on,,,,,192,0,3,,,,,2,,,70,51
7104,note_on,,,,,4,0,8,,,,,7,,,70,76
7232,note_off,,,,,0,0,9,,,,,8,,,62,0
7232,note_off,,,,,320,0,9,,,,,8,,,58,0
7232,note_off,,,,,320,0,10,,,,,8,,,55,0
7292,note_off,,,,,188,0,8,,,,,7,,,70,0
7296,note_on,,,,,0,0,9,,,,,8,,,64,76
7296,note_off,,,,,192,0,4,,,,,3,,,55,0
7296,note_on,,,,,64,0,9,,,,,8,,,60,76
7296,note_off,,,,,768,0,2,,,,,1,,,77,0
7296,note_on,,,,,0,0,3,,,,,2,,,67,51
7296,note_off,,,,,192,0,5,,,,,4,,,43,0
7296,note_on,,,,,0,0,5,,,,,4,,,36,47
7296,note_on,,,,,64,0,10,,,,,8,,,48,76
7296,note_on,,,,,0,0,1,,,,,0,,,76,58
7296,note_off,,,,,192,0,3,,,,,2,,,70,0
7296,note_off,,,,,768,0,1,,,,,0,,,77,0
7296,note_on,,,,,4,0,8,,,,,7,,,70,76
7296,note_on,,,,,0,0,2,,,,,1,,,76,58
7296,note_on,,,,,0,0,4,,,,,3,,,48,50
7484,note_off,,,,,188,0,8,,,,,7,,,70,0
7488,note_on,,,,,4,0,8,,,,,7,,,70,76
7512,note_off,,,,,24,0,8,,,,,7,,,70,0
7512,note_on,,,,,0,0,8,,,,,7,,,69,76
7536,note_off,,,,,24,0,8,,,,,7,,,69,0
7536,note_on,,,,,0,0,8,,,,,7,,,70,76
7560,note_off,,,,,24,0,8,,,,,7,,,70,0
7560,note_on,,,,,0,0,8,,,,,7,,,69,76
7584,note_off,,,,,24,0,8,,,,,7,,,69,0
7584,note_on,,,,,0,0,8,,,,,7,,,70,76
7608,note_on,,,,,0,0,8,,,,,7,,,69,76
7608,note_off,,,,,24,0,8,,,,,7,,,70,0
7616,note_off,,,,,320,0,9,,,,,8,,,64,0
7616,note_off,,,,,320,0,10,,,,,8,,,48,0
7628,note_off,,,,,20,0,8,,,,,7,,,69,0
7632,note_on,,,,,4,0,8,,,,,7,,,67,76
7676,note_off,,,,,44,0,8,,,,,7,,,67,0
7680,note_on,,,,,64,0,9,,,,,8,,,65,76
7680,note_off,,,,,384,0,3,,,,,2,,,67,0
7680,note_off,,,,,384,0,5,,,,,4,,,36,0
7680,note_on,,,,,4,0,8,,,,,7,,,69,76
7680,note_off,,,,,384,0,4,,,,,3,,,48,0
7680,note_off,,,,,384,0,1,,,,,0,,,76,0
7680,note_on,,,,,0,0,1,,,,,0,,,77,58
7680,note_on,,,,,64,0,10,,,,,8,,,53,76
7680,note_off,,,,,384,0,2,,,,,1,,,76,0
7680,note_on,,,,,0,0,2,,,,,1,,,77,58
7872,note_off,,,,,192,0,1,,,,,0,,,77,0
7872,note_on,,,,,0,0,1,,,,,0,,,65,58
7872,note_on,,,,,192,0,3,,,,,2,,,60,51
7872,note_off,,,,,192,0,2,,,,,1,,,77,0
7872,note_on,,,,,0,0,2,,,,,1,,,65,58
7872,note_on,,,,,192,0,4,,,,,3,,,50,50
7872,note_on,,,,,192,0,5,,,,,4,,,38,47
8000,note_off,,,,,0,0,9,,,,,8,,,65,0
8000,note_off,,,,,320,0,10,,,,,8,,,53,0
8000,note_off,,,,,320,0,9,,,,,8,,,60,0
8000,note_off,,,,,320,0,8,,,,,7,,,69,0
8064,note_off,,,,,192,0,3,,,,,2,,,60,0
8064,note_off,,,,,192,0,5,,,,,4,,,38,0
8064,note_off,,,,,192,0,4,,,,,3,,,50,0
8064,note_on,,,,,0,0,4,,,,,3,,,55,50
8064,note_on,,,,,0,0,5,,,,,4,,,43,47
8064,note_off,,,,,192,0,2,,,,,1,,,65,0
8064,note_on,,,,,0,0,2,,,,,1,,,72,58
8064,note_on,,,,,0,0,3,,,,,2,,,65,51
8064,note_off,,,,,192,0,1,,,,,0,,,65,0
8064,note_on,,,,,0,0,1,,,,,0,,,72,58
8256,note_on,,,,,256,0,10,,,,,8,,,53,76
8256,note_on,,,,,256,0,8,,,,,7,,,72,76
8256,note_on,,,,,256,0,9,,,,,8,,,57,76
8444,note_off,,,,,188,0,9,,,,,8,,,57,0
8444,note_off,,,,,188,0,10,,,,,8,,,53,0
8444,note_off,,,,,188,0,8,,,,,7,,,72,0
8448,note_on,,,,,4,0,9,,,,,8,,,62,76
8448,note_off,,,,,384,0,4,,,,,3,,,55,0
8448,note_off,,,,,384,0,2,,,,,1,,,72,0
8448,note_off,,,,,384,0,3,,,,,2,,,65,0
8448,note_off,,,,,384,0,5,,,,,4,,,43,0
8448,note_on,,,,,4,0,10,,,,,8,,,46,76
8448,note_off,,,,,384,0,1,,,,,0,,,72,0
8448,note_on,,,,,4,0,8,,,,,7,,,70,76
8640,note_off,,,,,192,0,8,,,,,7,,,70,0
8640,note_on,,,,,0,0,8,,,,,7,,,69,76
8768,note_off,,,,,320,0,9,,,,,8,,,62,0
8768,note_off,,,,,320,0,10,,,,,8,,,46,0
8828,note_off,,,,,188,0,8,,,,,7,,,69,0
8832,note_on,,,,,64,0,10,,,,,8,,,48,76
8832,note_on,,,,,64,0,9,,,,,8,,,55,76
8832,note_on,,,,,4,0,8,,,,,7,,,69,76
8856,note_off,,,,,24,0,8,,,,,7,,,69,0
8856,note_on,,,,,0,0,8,,,,,7,,,67,76
8880,note_off,,,,,24,0,8,,,,,7,,,67,0
8880,note_on,,,,,0,0,8,,,,,7,,,69,76
8904,note_off,,,,,24,0,8,,,,,7,,,69,0
8904,note_on,,,,,0,0,8,,,,,7,,,67,76
8928,note_off,,,,,24,0,8,,,,,7,,,67,0
8928,note_on,,,,,0,0,8,,,,,7,,,69,76
8952,note_off,,,,,24,0,8,,,,,7,,,69,0
8952,note_on,,,,,0,0,8,,,,,7,,,67,76
8976,note_off,,,,,24,0,8,,,,,7,,,67,0
8976,note_on,,,,,0,0,8,,,,,7,,,69,76
9000,note_off,,,,,24,0,8,,,,,7,,,69,0
9000,note_on,,,,,0,0,8,,,,,7,,,67,76
9020,note_off,,,,,188,0,9,,,,,8,,,55,0
9024,note_on,,,,,4,0,9,,,,,8,,,60,76
9120,note_on,,,,,0,0,8,,,,,7,,,65,76
9120,note_off,,,,,120,0,8,,,,,7,,,67,0
9152,note_off,,,,,320,0,10,,,,,8,,,48,0
9168,note_on,,,,,0,0,8,,,,,7,,,67,76
9168,note_off,,,,,48,0,8,,,,,7,,,65,0
9212,note_off,,,,,44,0,8,,,,,7,,,67,0
9216,note_on,,,,,64,0,10,,,,,8,,,53,76
9216,note_on,,,,,4,0,8,,,,,7,,,65,76
9216,note_on,,,,,0,0,8,,,,,7,,,69,76
9404,note_off,,,,,188,0,8,,,,,7,,,65,0
9404,note_off,,,,,380,0,9,,,,,8,,,60,0
9404,note_off,,,,,0,0,8,,,,,7,,,69,0
9408,note_on,,,,,4,0,8,,,,,7,,,60,76
9408,note_on,,,,,0,0,8,,,,,7,,,65,76
9408,note_on,,,,,4,0,9,,,,,8,,,57,76
9536,note_off,,,,,320,0,10,,,,,8,,,53,0
9596,note_off,,,,,188,0,8,,,,,7,,,60,0
9596,note_off,,,,,0,0,8,,,,,7,,,65,0
9596,note_off,,,,,188,0,9,,,,,8,,,57,0
9600,note_on,,,,,64,0,10,,,,,8,,,41,76
9600,note_on,,,,,4,0,8,,,,,7,,,65,76
9600,note_on,,,,,0,0,8,,,,,7,,,69,76
9600,note_on,,,,,0,0,8,,,,,7,,,72,76
9792,note_on,,,,,1344,0,2,,,,,1,,,72,98
9792,note_on,,,,,1344,0,1,,,,,0,,,72,98
9792,note_on,,,,,1344,0,5,,,,,4,,,41,79
9792,note_on,,,,,1344,0,3,,,,,2,,,69,86
9792,note_on,,,,,1344,0,4,,,,,3,,,53,84
9920,note_off,,,,,320,0,8,,,,,7,,,65,0
9920,note_off,,,,,0,0,8,,,,,7,,,72,0
9920,note_off,,,,,0,0,8,,,,,7,,,69,0
9920,note_off,,,,,320,0,10,,,,,8,,,41,0
9984,note_on,,,,,0,0,4,,,,,3,,,46,84
9984,note_off,,,,,192,0,3,,,,,2,,,69,0
9984,note_on,,,,,0,0,3,,,,,2,,,67,86
9984,note_off,,,,,192,0,4,,,,,3,,,53,0
9984,note_off,,,,,192,0,2,,,,,1,,,72,0
9984,note_on,,,,,0,0,1,,,,,0,,,70,98
9984,note_off,,,,,192,0,1,,,,,0,,,72,0
9984,note_on,,,,,0,0,2,,,,,1,,,70,98
9984,note_on,,,,,0,0,5,,,,,4,,,34,79
9984,note_off,,,,,192,0,5,,,,,4,,,41,0
10176,note_off,,,,,192,0,3,,,,,2,,,67,0
10176,note_on,,,,,0,0,1,,,,,0,,,69,98
10176,note_off,,,,,192,0,2,,,,,1,,,70,0
10176,note_on,,,,,0,0,2,,,,,1,,,69,98
10176,note_on,,,,,0,0,3,,,,,2,,,65,86
10176,note_off,,,,,192,0,1,,,,,0,,,70,0
10368,note_on,,,,,0,0,3,,,,,2,,,65,86
10368,note_on,,,,,0,0,4,,,,,3,,,48,84
10368,note_on,,,,,0,0,1,,,,,0,,,69,98
10368,note_on,,,,,0,0,2,,,,,1,,,69,98
10368,note_off,,,,,192,0,2,,,,,1,,,69,0
10368,note_off,,,,,384,0,5,,,,,4,,,34,0
10368,note_off,,,,,384,0,4,,,,,3,,,46,0
10368,note_off,,,,,192,0,3,,,,,2,,,65,0
10368,note_off,,,,,192,0,1,,,,,0,,,69,0
10368,note_on,,,,,0,0,5,,,,,4,,,36,79
10392,note_on,,,,,0,0,3,,,,,2,,,64,86
10392,note_off,,,,,24,0,3,,,,,2,,,65,0
10392,note_on,,,,,0,0,1,,,,,0,,,67,98
10392,note_off,,,,,24,0,1,,,,,0,,,69,0
10392,note_off,,,,,24,0,2,,,,,1,,,69,0
10392,note_on,,,,,0,0,2,,,,,1,,,67,98
10416,note_off,,,,,24,0,1,,,,,0,,,67,0
10416,note_off,,,,,24,0,3,,,,,2,,,64,0
10416,note_on,,,,,0,0,3,,,,,2,,,65,86
10416,note_on,,,,,0,0,1,,,,,0,,,69,98
10416,note_off,,,,,24,0,2,,,,,1,,,67,0
10416,note_on,,,,,0,0,2,,,,,1,,,69,98
10440,note_on,,,,,0,0,2,,,,,1,,,67,98
10440,note_off,,,,,24,0,2,,,,,1,,,69,0
10440,note_off,,,,,24,0,1,,,,,0,,,69,0
10440,note_on,,,,,0,0,1,,,,,0,,,67,98
10440,note_off,,,,,24,0,3,,,,,2,,,65,0
10440,note_on,,,,,0,0,3,,,,,2,,,64,86
10464,note_off,,,,,24,0,3,,,,,2,,,64,0
10464,note_off,,,,,24,0,1,,,,,0,,,67,0
10464,note_on,,,,,0,0,3,,,,,2,,,65,86
10464,note_off,,,,,24,0,2,,,,,1,,,67,0
10464,note_on,,,,,0,0,1,,,,,0,,,69,98
10464,note_on,,,,,0,0,2,,,,,1,,,69,98
10488,note_off,,,,,24,0,3,,,,,2,,,65,0
10488,note_on,,,,,0,0,2,,,,,1,,,67,98
10488,note_on,,,,,0,0,3,,,,,2,,,64,86
10488,note_off,,,,,24,0,2,,,,,1,,,69,0
10488,note_on,,,,,0,0,1,,,,,0,,,67,98
10488,note_off,,,,,24,0,1,,,,,0,,,69,0
10512,note_off,,,,,24,0,3,,,,,2,,,64,0
10512,note_on,,,,,0,0,3,,,,,2,,,65,86
10512,note_off,,,,,24,0,1,,,,,0,,,67,0
10512,note_off,,,,,24,0,2,,,,,1,,,67,0
10512,note_on,,,,,0,0,2,,,,,1,,,69,98
10512,note_on,,,,,0,0,1,,,,,0,,,69,98
10536,note_on,,,,,0,0,2,,,,,1,,,67,98
10536,note_off,,,,,24,0,2,,,,,1,,,69,0
10536,note_off,,,,,24,0,1,,,,,0,,,69,0
10536,note_on,,,,,0,0,1,,,,,0,,,67,98
10536,note_on,,,,,0,0,3,,,,,2,,,64,86
10536,note_off,,,,,24,0,3,,,,,2,,,65,0
10656,note_off,,,,,120,0,1,,,,,0,,,67,0
10656,note_on,,,,,0,0,1,,,,,0,,,65,98
10656,note_off,,,,,120,0,3,,,,,2,,,64,0
10656,note_on,,,,,0,0,2,,,,,1,,,65,98
10656,note_on,,,,,0,0,3,,,,,2,,,62,86
10656,note_off,,,,,120,0,2,,,,,1,,,67,0
10704,note_off,,,,,48,0,1,,,,,0,,,65,0
10704,note_on,,,,,0,0,1,,,,,0,,,67,98
10704,note_on,,,,,0,0,2,,,,,1,,,67,98
10704,note_off,,,,,48,0,2,,,,,1,,,65,0
10704,note_on,,,,,0,0,3,,,,,2,,,64,86
10704,note_off,,,,,48,0,3,,,,,2,,,62,0
10752,note_on,,,,,0,0,5,,,,,4,,,29,79
10752,note_off,,,,,48,0,3,,,,,2,,,64,0
10752,note_on,,,,,0,0,3,,,,,2,,,65,86
10752,note_on,,,,,0,0,4,,,,,3,,,41,84
10752,note_off,,,,,384,0,4,,,,,3,,,48,0
10752,note_on,,,,,0,0,1,,,,,0,,,69,98
10752,note_off,,,,,48,0,1,,,,,0,,,67,0
10752,note_off,,,,,384,0,5,,,,,4,,,36,0
10752,note_on,,,,,0,0,2,,,,,1,,,69,98
10752,note_off,,,,,48,0,2,,,,,1,,,67,0
10944,note_on,,,,,0,0,2,,,,,1,,,65,98
10944,note_off,,,,,192,0,4,,,,,3,,,41,0
10944,note_off,,,,,192,0,2,,,,,1,,,69,0
10944,note_on,,,,,0,0,3,,,,,2,,,60,86
10944,note_off,,,,,192,0,3,,,,,2,,,65,0
10944,note_off,,,,,192,0,1,,,,,0,,,69,0
10944,note_on,,,,,0,0,4,,,,,3,,,53,84
10944,note_on,,,,,0,0,1,,,,,0,,,65,98
10944,note_on,,,,,0,0,5,,,,,4,,,41,79
10944,note_off,,,,,192,0,5,,,,,4,,,29,0
11136,note_on,,,,,0,0,3,,,,,2,,,67,86
11136,note_off,,,,,192,0,3,,,,,2,,,60,0
11136,note_on,,,,,0,0,5,,,,,4,,,40,79
11136,note_off,,,,,192,0,5,,,,,4,,,41,0
11136,note_on,,,,,0,0,1,,,,,0,,,72,98
11136,note_on,,,,,0,0,4,,,,,3,,,52,84
11136,note_off,,,,,192,0,1,,,,,0,,,65,0
11136,note_off,,,,,192,0,2,,,,,1,,,65,0
11136,note_off,,,,,192,0,4,,,,,3,,,53,0
11136,note_on,,,,,0,0,2,,,,,1,,,72,98
11328,note_on,,,,,1732,0,9,,,,,8,,,52,96
11328,note_on,,,,,1408,0,8,,,,,7,,,72,96
11328,note_on,,,,,0,0,8,,,,,7,,,79,96
11516,note_off,,,,,188,0,8,,,,,7,,,72,0
11516,note_off,,,,,188,0,9,,,,,8,,,52,0
11516,note_off,,,,,0,0,8,,,,,7,,,79,0
11520,note_off,,,,,384,0,2,,,,,1,,,72,0
11520,note_off,,,,,384,0,3,,,,,2,,,67,0
11520,note_off,,,,,384,0,1,,,,,0,,,72,0
11520,note_off,,,,,384,0,4,,,,,3,,,52,0
11520,note_off,,,,,384,0,5,,,,,4,,,40,0
11520,note_on,,,,,4,0,9,,,,,8,,,50,96
11520,note_on,,,,,0,0,8,,,,,7,,,77,96
11520,note_on,,,,,4,0,8,,,,,7,,,71,96
11708,note_off,,,,,188,0,9,,,,,8,,,50,0
11708,note_off,,,,,188,0,8,,,,,7,,,71,0
11708,note_off,,,,,0,0,8,,,,,7,,,77,0
11712,note_on,,,,,4,0,8,,,,,7,,,72,96
11712,note_on,,,,,4,0,9,,,,,8,,,48,96
11712,note_on,,,,,0,0,8,,,,,7,,,76,96
11804,note_off,,,,,92,0,8,,,,,7,,,76,0
11808,note_on,,,,,4,0,8,,,,,7,,,77,96
11900,note_off,,,,,92,0,8,,,,,7,,,77,0
11900,note_off,,,,,188,0,9,,,,,8,,,48,0
11904,note_on,,,,,4,0,9,,,,,8,,,55,96
11904,note_on,,,,,4,0,8,,,,,7,,,76,96
11928,note_on,,,,,0,0,8,,,,,7,,,74,96
11928,note_off,,,,,24,0,8,,,,,7,,,76,0
11928,note_on,,,,,0,0,8,,,,,7,,,71,96
11952,note_on,,,,,0,0,8,,,,,7,,,76,96
11952,note_off,,,,,24,0,8,,,,,7,,,74,0
11976,note_on,,,,,0,0,8,,,,,7,,,74,96
11976,note_off,,,,,24,0,8,,,,,7,,,76,0
12000,note_on,,,,,0,0,8,,,,,7,,,76,96
12000,note_off,,,,,24,0,8,,,,,7,,,74,0
12024,note_off,,,,,24,0,8,,,,,7,,,76,0
12024,note_on,,,,,0,0,8,,,,,7,,,74,96
12032,note_off,,,,,8,0,8,,,,,7,,,72,0
12048,note_off,,,,,16,0,8,,,,,7,,,74,0
12048,note_on,,,,,0,0,8,,,,,7,,,76,96
12072,note_on,,,,,0,0,8,,,,,7,,,74,96
12072,note_off,,,,,24,0,8,,,,,7,,,76,0
12116,note_off,,,,,44,0,8,,,,,7,,,71,0
12192,note_off,,,,,76,0,8,,,,,7,,,74,0
12192,note_on,,,,,0,0,8,,,,,7,,,72,96
12224,note_off,,,,,320,0,9,,,,,8,,,55,0
12240,note_off,,,,,48,0,8,,,,,7,,,72,0
12240,note_on,,,,,0,0,8,,,,,7,,,74,96
12284,note_off,,,,,44,0,8,,,,,7,,,74,0
12288,note_on,,,,,0,0,8,,,,,7,,,76,96
12288,note_on,,,,,64,0,9,,,,,8,,,48,96
12288,note_on,,,,,4,0,8,,,,,7,,,72,96
12476,note_off,,,,,188,0,8,,,,,7,,,72,0
12476,note_off,,,,,0,0,8,,,,,7,,,76,0
12480,note_on,,,,,4,0,8,,,,,7,,,67,96
12480,note_on,,,,,0,0,8,,,,,7,,,72,96
12608,note_off,,,,,320,0,9,,,,,8,,,48,0
12668,note_off,,,,,188,0,8,,,,,7,,,67,0
12668,note_off,,,,,0,0,8,,,,,7,,,72,0
12672,note_on,,,,,2752,0,10,,,,,8,,,52,96
12672,note_on,,,,,4,0,8,,,,,7,,,79,96
12864,note_on,,,,,256,0,9,,,,,8,,,67,96
12864,note_on,,,,,1344,0,3,,,,,2,,,67,86
12864,note_on,,,,,192,0,8,,,,,7,,,67,96
12864,note_on,,,,,1344,0,5,,,,,4,,,40,79
12864,note_on,,,,,1344,0,2,,,,,1,,,72,98
12864,note_on,,,,,1344,0,1,,,,,0,,,72,98
12864,note_on,,,,,7936,0,6,,,,,5,,,72,86
12864,note_on,,,,,7936,0,7,,,,,6,,,52,86
12864,note_on,,,,,1344,0,4,,,,,3,,,52,84
12992,note_off,,,,,320,0,10,,,,,8,,,52,0
13052,note_off,,,,,188,0,8,,,,,7,,,67,0
13052,note_off,,,,,188,0,9,,,,,8,,,67,0
13052,note_off,,,,,188,0,7,,,,,6,,,52,0
13052,note_off,,,,,188,0,6,,,,,5,,,72,0
13056,note_on,,,,,64,0,10,,,,,8,,,53,96
13056,note_off,,,,,192,0,2,,,,,1,,,72,0
13056,note_off,,,,,192,0,4,,,,,3,,,52,0
13056,note_on,,,,,0,0,5,,,,,4,,,41,79
13056,note_on,,,,,4,0,8,,,,,7,,,69,96
13056,note_off,,,,,192,0,3,,,,,2,,,67,0
13056,note_on,,,,,0,0,3,,,,,2,,,60,86
13056,note_on,,,,,0,0,4,,,,,3,,,53,84
13056,note_on,,,,,0,0,2,,,,,1,,,81,98
13056,note_off,,,,,192,0,5,,,,,4,,,40,0
13056,note_off,,,,,192,0,1,,,,,0,,,72,0
13056,note_on,,,,,4,0,6,,,,,5,,,81,86
13056,note_on,,,,,4,0,7,,,,,6,,,53,86
13056,note_on,,,,,4,0,9,,,,,8,,,69,96
13056,note_on,,,,,0,0,1,,,,,0,,,81,98
13184,note_off,,,,,128,0,8,,,,,7,,,79,0
13244,note_off,,,,,188,0,6,,,,,5,,,81,0
13248,note_on,,,,,0,0,1,,,,,0,,,81,98
13248,note_on,,,,,0,0,2,,,,,1,,,81,98
13248,note_off,,,,,192,0,2,,,,,1,,,81,0
13248,note_on,,,,,4,0,6,,,,,5,,,81,86
13248,note_off,,,,,192,0,1,,,,,0,,,81,0
13376,note_off,,,,,320,0,10,,,,,8,,,53,0
13376,note_off,,,,,320,0,7,,,,,6,,,53,0
13436,note_off,,,,,188,0,6,,,,,5,,,81,0
13440,note_on,,,,,4,0,6,,,,,5,,,81,86
13440,note_on,,,,,0,0,4,,,,,3,,,41,84
13440,note_on,,,,,0,0,1,,,,,0,,,81,98
13440,note_off,,,,,384,0,3,,,,,2,,,60,0
13440,note_on,,,,,64,0,7,,,,,6,,,41,86
13440,note_on,,,,,256,0,8,,,,,7,,,72,96
13440,note_off,,,,,384,0,5,,,,,4,,,41,0
13440,note_on,,,,,0,0,8,,,,,7,,,77,96
13440,note_on,,,,,64,0,10,,,,,8,,,41,96
13440,note_off,,,,,384,0,4,,,,,3,,,53,0
13440,note_on,,,,,0,0,2,,,,,1,,,81,98
13440,note_off,,,,,192,0,2,,,,,1,,,81,0
13440,note_on,,,,,0,0,5,,,,,4,,,29,79
13440,note_off,,,,,192,0,1,,,,,0,,,81,0
13568,note_off,,,,,512,0,9,,,,,8,,,69,0
13628,note_off,,,,,188,0,8,,,,,7,,,69,0
13628,note_off,,,,,0,0,8,,,,,7,,,72,0
13628,note_off,,,,,188,0,6,,,,,5,,,81,0
13632,note_off,,,,,192,0,1,,,,,0,,,81,0
13632,note_on,,,,,0,0,1,,,,,0,,,81,98
13632,note_on,,,,,64,0,9,,,,,8,,,69,96
13632,note_on,,,,,192,0,3,,,,,2,,,69,86
13632,note_on,,,,,4,0,6,,,,,5,,,81,86
13632,note_on,,,,,0,0,2,,,,,1,,,81,98
13632,note_off,,,,,192,0,2,,,,,1,,,81,0
13632,note_on,,,,,4,0,8,,,,,7,,,69,96
13652,note_off,,,,,20,0,6,,,,,5,,,81,0
13656,note_on,,,,,0,0,1,,,,,0,,,79,98
13656,note_off,,,,,24,0,1,,,,,0,,,81,0
13656,note_on,,,,,4,0,6,,,,,5,,,79,86
13656,note_off,,,,,24,0,2,,,,,1,,,81,0
13656,note_on,,,,,0,0,2,,,,,1,,,79,98
13676,note_off,,,,,20,0,6,,,,,5,,,79,0
13680,note_on,,,,,4,0,6,,,,,5,,,81,86
13680,note_off,,,,,24,0,1,,,,,0,,,79,0
13680,note_on,,,,,0,0,1,,,,,0,,,81,98
13680,note_off,,,,,24,0,2,,,,,1,,,79,0
13680,note_on,,,,,0,0,2,,,,,1,,,81,98
13700,note_off,,,,,20,0,6,,,,,5,,,81,0
13704,note_off,,,,,24,0,2,,,,,1,,,81,0
13704,note_on,,,,,0,0,2,,,,,1,,,79,98
13704,note_off,,,,,24,0,1,,,,,0,,,81,0
13704,note_on,,,,,0,0,1,,,,,0,,,79,98
13704,note_on,,,,,4,0,6,,,,,5,,,79,86
13724,note_off,,,,,20,0,6,,,,,5,,,79,0
13728,note_off,,,,,24,0,2,,,,,1,,,79,0
13728,note_on,,,,,0,0,2,,,,,1,,,81,98
13728,note_off,,,,,24,0,1,,,,,0,,,79,0
13728,note_on,,,,,0,0,1,,,,,0,,,81,98
13728,note_on,,,,,4,0,6,,,,,5,,,81,86
13748,note_off,,,,,20,0,6,,,,,5,,,81,0
13752,note_off,,,,,24,0,2,,,,,1,,,81,0
13752,note_on,,,,,0,0,2,,,,,1,,,79,98
13752,note_on,,,,,0,0,1,,,,,0,,,79,98
13752,note_on,,,,,4,0,6,,,,,5,,,79,86
13752,note_off,,,,,24,0,1,,,,,0,,,81,0
13760,note_off,,,,,320,0,7,,,,,6,,,41,0
13760,note_off,,,,,320,0,10,,,,,8,,,41,0
13772,note_off,,,,,20,0,6,,,,,5,,,79,0
13776,note_on,,,,,0,0,1,,,,,0,,,77,98
13776,note_off,,,,,24,0,2,,,,,1,,,79,0
13776,note_on,,,,,0,0,2,,,,,1,,,77,98
13776,note_off,,,,,24,0,1,,,,,0,,,79,0
13776,note_on,,,,,4,0,6,,,,,5,,,77,86
13820,note_off,,,,,188,0,9,,,,,8,,,69,0
13820,note_off,,,,,188,0,8,,,,,7,,,69,0
13820,note_off,,,,,44,0,6,,,,,5,,,77,0
13824,note_on,,,,,64,0,10,,,,,8,,,48,96
13824,note_on,,,,,0,0,5,,,,,4,,,36,79
13824,note_on,,,,,64,0,7,,,,,6,,,48,86
13824,note_on,,,,,4,0,9,,,,,8,,,67,96
13824,note_on,,,,,0,0,3,,,,,2,,,67,86
13824,note_off,,,,,192,0,3,,,,,2,,,69,0
13824,note_on,,,,,4,0,6,,,,,5,,,79,86
13824,note_on,,,,,0,0,1,,,,,0,,,79,98
13824,note_off,,,,,48,0,1,,,,,0,,,77,0
13824,note_off,,,,,48,0,2,,,,,1,,,77,0
13824,note_on,,,,,0,0,2,,,,,1,,,79,98
13824,note_on,,,,,0,0,4,,,,,3,,,48,84
13824,note_off,,,,,384,0,4,,,,,3,,,41,0
13824,note_off,,,,,384,0,5,,,,,4,,,29,0
14012,note_off,,,,,192,0,8,,,,,7,,,77,0
14016,note_on,,,,,4,0,8,,,,,7,,,77,96
14040,note_off,,,,,24,0,8,,,,,7,,,77,0
14040,note_on,,,,,0,0,8,,,,,7,,,76,96
14064,note_on,,,,,0,0,8,,,,,7,,,77,96
14064,note_off,,,,,24,0,8,,,,,7,,,76,0
14088,note_on,,,,,0,0,8,,,,,7,,,76,96
14088,note_off,,,,,24,0,8,,,,,7,,,77,0
14112,note_on,,,,,0,0,8,,,,,7,,,77,96
14112,note_off,,,,,24,0,8,,,,,7,,,76,0
14136,note_on,,,,,0,0,8,,,,,7,,,76,96
14136,note_off,,,,,24,0,8,,,,,7,,,77,0
14144,note_off,,,,,320,0,7,,,,,6,,,48,0
14144,note_off,,,,,320,0,10,,,,,8,,,48,0
14144,note_off,,,,,320,0,6,,,,,5,,,79,0
14156,note_off,,,,,20,0,8,,,,,7,,,76,0
14160,note_on,,,,,4,0,8,,,,,7,,,74,96
14204,note_off,,,,,44,0,8,,,,,7,,,74,0
14208,note_on,,,,,4,0,8,,,,,7,,,76,96
14208,note_off,,,,,384,0,1,,,,,0,,,79,0
14208,note_off,,,,,384,0,5,,,,,4,,,36,0
14208,note_off,,,,,384,0,2,,,,,1,,,79,0
14208,note_off,,,,,384,0,3,,,,,2,,,67,0
14208,note_off,,,,,384,0,4,,,,,3,,,48,0
14208,note_on,,,,,64,0,10,,,,,8,,,60,96
14336,note_off,,,,,512,0,9,,,,,8,,,67,0
14400,note_on,,,,,192,0,1,,,,,0,,,72,98
14400,note_on,,,,,64,0,9,,,,,8,,,67,96
14400,note_on,,,,,192,0,5,,,,,4,,,48,79
14400,note_on,,,,,192,0,3,,,,,2,,,67,86
14400,note_on,,,,,192,0,2,,,,,1,,,72,98
14400,note_on,,,,,256,0,6,,,,,5,,,72,86
14400,note_on,,,,,192,0,4,,,,,3,,,60,84
14400,note_on,,,,,256,0,7,,,,,6,,,60,86
14528,note_off,,,,,320,0,10,,,,,8,,,60,0
14588,note_off,,,,,188,0,6,,,,,5,,,72,0
14588,note_off,,,,,188,0,7,,,,,6,,,60,0
14588,note_off,,,,,188,0,9,,,,,8,,,67,0
14592,note_on,,,,,0,0,4,,,,,3,,,57,84
14592,note_on,,,,,4,0,6,,,,,5,,,77,86
14592,note_off,,,,,192,0,1,,,,,0,,,72,0
14592,note_off,,,,,192,0,2,,,,,1,,,72,0
14592,note_on,,,,,0,0,2,,,,,1,,,77,98
14592,note_off,,,,,192,0,5,,,,,4,,,48,0
14592,note_on,,,,,0,0,5,,,,,4,,,45,79
14592,note_on,,,,,64,0,10,,,,,8,,,57,96
14592,note_on,,,,,4,0,9,,,,,8,,,65,96
14592,note_on,,,,,4,0,7,,,,,6,,,57,86
14592,note_on,,,,,0,0,1,,,,,0,,,77,98
14592,note_off,,,,,192,0,3,,,,,2,,,67,0
14592,note_on,,,,,0,0,3,,,,,2,,,72,86
14592,note_off,,,,,192,0,4,,,,,3,,,60,0
14720,note_off,,,,,512,0,8,,,,,7,,,76,0
14780,note_off,,,,,188,0,6,,,,,5,,,77,0
14784,note_off,,,,,192,0,2,,,,,1,,,77,0
14784,note_on,,,,,0,0,2,,,,,1,,,77,98
14784,note_on,,,,,4,0,6,,,,,5,,,77,86
14784,note_off,,,,,192,0,1,,,,,0,,,77,0
14784,note_on,,,,,64,0,8,,,,,7,,,74,96
14784,note_on,,,,,0,0,1,,,,,0,,,77,98
14912,note_off,,,,,320,0,7,,,,,6,,,57,0
14912,note_off,,,,,320,0,10,,,,,8,,,57,0
14924,note_off,,,,,140,0,8,,,,,7,,,74,0
14928,note_on,,,,,4,0,8,,,,,7,,,72,96
14972,note_off,,,,,44,0,8,,,,,7,,,72,0
14972,note_off,,,,,188,0,6,,,,,5,,,77,0
14976,note_off,,,,,192,0,1,,,,,0,,,77,0
14976,note_on,,,,,0,0,1,,,,,0,,,77,98
14976,note_off,,,,,384,0,4,,,,,3,,,57,0
14976,note_on,,,,,0,0,3,,,,,2,,,67,86
14976,note_off,,,,,384,0,3,,,,,2,,,72,0
14976,note_on,,,,,0,0,2,,,,,1,,,77,98
14976,note_on,,,,,4,0,8,,,,,7,,,74,96
14976,note_off,,,,,192,0,2,,,,,1,,,77,0
14976,note_on,,,,,64,0,7,,,,,6,,,59,86
14976,note_on,,,,,4,0,6,,,,,5,,,77,86
14976,note_on,,,,,0,0,5,,,,,4,,,47,79
14976,note_off,,,,,384,0,5,,,,,4,,,45,0
14976,note_on,,,,,0,0,4,,,,,3,,,59,84
14976,note_on,,,,,64,0,10,,,,,8,,,59,96
15104,note_off,,,,,512,0,9,,,,,8,,,65,0
15164,note_off,,,,,188,0,6,,,,,5,,,77,0
15168,note_on,,,,,4,0,6,,,,,5,,,77,86
15168,note_off,,,,,192,0,2,,,,,1,,,77,0
15168,note_on,,,,,0,0,2,,,,,1,,,77,98
15168,note_off,,,,,192,0,1,,,,,0,,,77,0
15168,note_on,,,,,0,0,1,,,,,0,,,77,98
15168,note_on,,,,,64,0,9,,,,,8,,,67,96
15188,note_off,,,,,20,0,6,,,,,5,,,77,0
15192,note_off,,,,,24,0,1,,,,,0,,,77,0
15192,note_on,,,,,0,0,1,,,,,0,,,76,98
15192,note_on,,,,,0,0,2,,,,,1,,,76,98
15192,note_off,,,,,24,0,2,,,,,1,,,77,0
15192,note_on,,,,,4,0,6,,,,,5,,,76,86
15212,note_off,,,,,20,0,6,,,,,5,,,76,0
15216,note_on,,,,,0,0,2,,,,,1,,,77,98
15216,note_off,,,,,24,0,2,,,,,1,,,76,0
15216,note_off,,,,,24,0,1,,,,,0,,,76,0
15216,note_on,,,,,4,0,6,,,,,5,,,77,86
15216,note_on,,,,,0,0,1,,,,,0,,,77,98
15236,note_off,,,,,20,0,6,,,,,5,,,77,0
15240,note_off,,,,,24,0,1,,,,,0,,,77,0
15240,note_on,,,,,0,0,1,,,,,0,,,76,98
15240,note_on,,,,,4,0,6,,,,,5,,,76,86
15240,note_on,,,,,0,0,2,,,,,1,,,76,98
15240,note_off,,,,,24,0,2,,,,,1,,,77,0
15260,note_off,,,,,20,0,6,,,,,5,,,76,0
15260,note_off,,,,,92,0,9,,,,,8,,,67,0
15264,note_on,,,,,0,0,1,,,,,0,,,77,98
15264,note_off,,,,,24,0,2,,,,,1,,,76,0
15264,note_on,,,,,0,0,2,,,,,1,,,77,98
15264,note_off,,,,,24,0,1,,,,,0,,,76,0
15264,note_on,,,,,4,0,9,,,,,8,,,65,96
15264,note_on,,,,,4,0,6,,,,,5,,,77,86
15284,note_off,,,,,20,0,6,,,,,5,,,77,0
15288,note_on,,,,,0,0,1,,,,,0,,,76,98
15288,note_on,,,,,0,0,2,,,,,1,,,76,98
15288,note_off,,,,,24,0,1,,,,,0,,,77,0
15288,note_on,,,,,4,0,6,,,,,5,,,76,86
15288,note_off,,,,,24,0,2,,,,,1,,,77,0
15296,note_off,,,,,320,0,10,,,,,8,,,59,0
15296,note_off,,,,,320,0,7,,,,,6,,,59,0
15308,note_off,,,,,20,0,6,,,,,5,,,76,0
15312,note_off,,,,,24,0,2,,,,,1,,,76,0
15312,note_on,,,,,0,0,2,,,,,1,,,74,98
15312,note_on,,,,,0,0,1,,,,,0,,,74,98
15312,note_off,,,,,24,0,1,,,,,0,,,76,0
15312,note_on,,,,,4,0,6,,,,,5,,,74,86
15356,note_off,,,,,44,0,6,,,,,5,,,74,0
15356,note_off,,,,,92,0,9,,,,,8,,,65,0
15360,note_on,,,,,0,0,5,,,,,4,,,48,79
15360,note_on,,,,,0,0,4,,,,,3,,,60,84
15360,note_on,,,,,0,0,1,,,,,0,,,76,98
15360,note_off,,,,,48,0,1,,,,,0,,,74,0
15360,note_on,,,,,64,0,10,,,,,8,,,60,96
15360,note_off,,,,,48,0,2,,,,,1,,,74,0
15360,note_on,,,,,0,0,2,,,,,1,,,76,98
15360,note_on,,,,,4,0,6,,,,,5,,,76,86
15360,note_on,,,,,0,0,3,,,,,2,,,67,86
15360,note_off,,,,,384,0,3,,,,,2,,,67,0
15360,note_off,,,,,384,0,5,,,,,4,,,47,0
15360,note_on,,,,,64,0,7,,,,,6,,,60,86
15360,note_off,,,,,384,0,4,,,,,3,,,59,0
15360,note_on,,,,,4,0,9,,,,,8,,,64,96
15548,note_off,,,,,572,0,8,,,,,7,,,74,0
15552,note_on,,,,,4,0,8,,,,,7,,,67,96
15680,note_off,,,,,320,0,7,,,,,6,,,60,0
15680,note_off,,,,,320,0,6,,,,,5,,,76,0
15680,note_off,,,,,320,0,10,,,,,8,,,60,0
15680,note_off,,,,,320,0,9,,,,,8,,,64,0
15740,note_off,,,,,188,0,8,,,,,7,,,67,0
15744,note_off,,,,,384,0,5,,,,,4,,,48,0
15744,note_off,,,,,384,0,3,,,,,2,,,67,0
15744,note_off,,,,,384,0,2,,,,,1,,,76,0
15744,note_off,,,,,384,0,4,,,,,3,,,60,0
15744,note_on,,,,,4,0,8,,,,,7,,,69,96
15744,note_off,,,,,384,0,1,,,,,0,,,76,0
15936,note_on,,,,,192,0,5,,,,,4,,,36,47
15936,note_on,,,,,192,0,4,,,,,3,,,48,50
15936,note_on,,,,,192,0,8,,,,,7,,,76,96
15936,note_on,,,,,256,0,9,,,,,8,,,48,96
16124,note_off,,,,,188,0,8,,,,,7,,,76,0
16124,note_off,,,,,188,0,9,,,,,8,,,48,0
16128,note_on,,,,,4,0,8,,,,,7,,,77,96
16128,note_on,,,,,0,0,5,,,,,4,,,38,47
16128,note_off,,,,,192,0,5,,,,,4,,,36,0
16128,note_on,,,,,4,0,9,,,,,8,,,50,96
16128,note_on,,,,,0,0,4,,,,,3,,,50,50
16128,note_off,,,,,192,0,4,,,,,3,,,48,0
16316,note_off,,,,,188,0,8,,,,,7,,,69,0
16316,note_off,,,,,188,0,9,,,,,8,,,50,0
16320,note_on,,,,,4,0,9,,,,,8,,,50,96
16320,note_on,,,,,4,0,8,,,,,7,,,65,96
16320,note_off,,,,,192,0,4,,,,,3,,,50,0
16320,note_on,,,,,0,0,5,,,,,4,,,38,47
16320,note_on,,,,,0,0,4,,,,,3,,,50,50
16320,note_off,,,,,192,0,5,,,,,4,,,38,0
16508,note_off,,,,,188,0,8,,,,,7,,,65,0
16508,note_off,,,,,188,0,9,,,,,8,,,50,0
16512,note_off,,,,,192,0,5,,,,,4,,,38,0
16512,note_off,,,,,192,0,4,,,,,3,,,50,0
16512,note_on,,,,,0,0,5,,,,,4,,,38,47
16512,note_on,,,,,0,0,4,,,,,3,,,50,50
16512,note_on,,,,,4,0,9,,,,,8,,,50,96
16512,note_on,,,,,4,0,8,,,,,7,,,70,96
16640,note_off,,,,,128,0,8,,,,,7,,,77,0
16700,note_off,,,,,188,0,9,,,,,8,,,50,0
16704,note_on,,,,,0,0,5,,,,,4,,,38,47
16704,note_off,,,,,192,0,4,,,,,3,,,50,0
16704,note_on,,,,,0,0,4,,,,,3,,,50,50
16704,note_on,,,,,4,0,9,,,,,8,,,50,96
16704,note_on,,,,,64,0,8,,,,,7,,,79,96
16704,note_off,,,,,192,0,5,,,,,4,,,38,0
16728,note_on,,,,,0,0,9,,,,,8,,,48,96
16728,note_off,,,,,24,0,9,,,,,8,,,50,0
16728,note_on,,,,,0,0,4,,,,,3,,,48,50
16728,note_off,,,,,24,0,5,,,,,4,,,38,0
16728,note_on,,,,,0,0,5,,,,,4,,,36,47
16728,note_off,,,,,24,0,4,,,,,3,,,50,0
16752,note_off,,,,,24,0,4,,,,,3,,,48,0
16752,note_on,,,,,0,0,4,,,,,3,,,50,50
16752,note_off,,,,,24,0,5,,,,,4,,,36,0
16752,note_on,,,,,0,0,5,,,,,4,,,38,47
16752,note_off,,,,,24,0,9,,,,,8,,,48,0
16752,note_on,,,,,0,0,9,,,,,8,,,50,96
16776,note_off,,,,,24,0,9,,,,,8,,,50,0
16776,note_off,,,,,24,0,4,,,,,3,,,50,0
16776,note_on,,,,,0,0,4,,,,,3,,,48,50
16776,note_off,,,,,24,0,5,,,,,4,,,38,0
16776,note_on,,,,,0,0,5,,,,,4,,,36,47
16776,note_on,,,,,0,0,9,,,,,8,,,48,96
16800,note_off,,,,,24,0,4,,,,,3,,,48,0
16800,note_on,,,,,0,0,9,,,,,8,,,50,96
16800,note_on,,,,,0,0,5,,,,,4,,,38,47
16800,note_off,,,,,24,0,5,,,,,4,,,36,0
16800,note_off,,,,,24,0,9,,,,,8,,,48,0
16800,note_on,,,,,0,0,4,,,,,3,,,50,50
16824,note_on,,,,,0,0,5,,,,,4,,,36,47
16824,note_on,,,,,0,0,4,,,,,3,,,48,50
16824,note_off,,,,,24,0,5,,,,,4,,,38,0
16824,note_on,,,,,0,0,9,,,,,8,,,48,96
16824,note_off,,,,,24,0,9,,,,,8,,,50,0
16824,note_off,,,,,24,0,4,,,,,3,,,50,0
16844,note_off,,,,,20,0,9,,,,,8,,,48,0
16848,note_on,,,,,4,0,9,,,,,8,,,46,96
16848,note_on,,,,,0,0,4,,,,,3,,,46,50
16848,note_on,,,,,0,0,5,,,,,4,,,34,47
16848,note_off,,,,,24,0,5,,,,,4,,,36,0
16848,note_off,,,,,24,0,4,,,,,3,,,48,0
16892,note_off,,,,,188,0,8,,,,,7,,,79,0
16892,note_off,,,,,44,0,9,,,,,8,,,46,0
16896,note_off,,,,,48,0,5,,,,,4,,,34,0
16896,note_on,,,,,4,0,9,,,,,8,,,48,96
16896,note_on,,,,,0,0,5,,,,,4,,,36,47
16896,note_on,,,,,0,0,4,,,,,3,,,48,50
16896,note_off,,,,,48,0,4,,,,,3,,,46,0
16896,note_on,,,,,4,0,8,,,,,7,,,76,96
17084,note_off,,,,,188,0,8,,,,,7,,,70,0
17088,note_on,,,,,4,0,8,,,,,7,,,70,96
17108,note_off,,,,,20,0,8,,,,,7,,,70,0
17112,note_on,,,,,4,0,8,,,,,7,,,69,96
17136,note_off,,,,,24,0,8,,,,,7,,,69,0
17136,note_on,,,,,0,0,8,,,,,7,,,70,96
17160,note_on,,,,,0,0,8,,,,,7,,,69,96
17160,note_off,,,,,24,0,8,,,,,7,,,70,0
17184,note_off,,,,,24,0,8,,,,,7,,,69,0
17184,note_on,,,,,0,0,8,,,,,7,,,70,96
17208,note_on,,,,,0,0,8,,,,,7,,,69,96
17208,note_off,,,,,24,0,8,,,,,7,,,70,0
17216,note_off,,,,,320,0,9,,,,,8,,,48,0
17228,note_off,,,,,20,0,8,,,,,7,,,69,0
17232,note_on,,,,,4,0,8,,,,,7,,,67,96
17276,note_off,,,,,44,0,8,,,,,7,,,67,0
17280,note_on,,,,,4,0,8,,,,,7,,,69,96
17280,note_off,,,,,384,0,5,,,,,4,,,36,0
17280,note_off,,,,,384,0,4,,,,,3,,,48,0
17408,note_off,,,,,128,0,8,,,,,7,,,76,0
17472,note_on,,,,,256,0,9,,,,,8,,,53,96
17472,note_on,,,,,192,0,5,,,,,4,,,41,47
17472,note_on,,,,,192,0,4,,,,,3,,,53,50
17472,note_on,,,,,64,0,8,,,,,7,,,81,96
17660,note_off,,,,,188,0,9,,,,,8,,,53,0
17660,note_off,,,,,188,0,8,,,,,7,,,81,0
17664,note_off,,,,,192,0,5,,,,,4,,,41,0
17664,note_on,,,,,0,0,5,,,,,4,,,46,47
17664,note_off,,,,,192,0,4,,,,,3,,,53,0
17664,note_on,,,,,0,0,4,,,,,3,,,58,50
17664,note_on,,,,,4,0,8,,,,,7,,,74,96
17664,note_on,,,,,4,0,9,,,,,8,,,58,96
17852,note_off,,,,,188,0,9,,,,,8,,,58,0
17852,note_off,,,,,0,0,8,,,,,7,,,74,0
17852,note_off,,,,,188,0,8,,,,,7,,,69,0
17856,note_on,,,,,4,0,9,,,,,8,,,58,96
17856,note_off,,,,,192,0,4,,,,,3,,,58,0
17856,note_on,,,,,0,0,5,,,,,4,,,46,47
17856,note_off,,,,,192,0,5,,,,,4,,,46,0
17856,note_on,,,,,0,0,4,,,,,3,,,58,50
17856,note_on,,,,,4,0,8,,,,,7,,,69,96
17856,note_on,,,,,0,0,8,,,,,7,,,73,96
18044,note_off,,,,,188,0,8,,,,,7,,,69,0
18044,note_off,,,,,0,0,8,,,,,7,,,73,0
18044,note_off,,,,,188,0,9,,,,,8,,,58,0
18048,note_off,,,,,192,0,4,,,,,3,,,58,0
18048,note_off,,,,,192,0,5,,,,,4,,,46,0
18048,note_on,,,,,0,0,5,,,,,4,,,46,47
18048,note_on,,,,,0,0,4,,,,,3,,,58,50
18048,note_on,,,,,4,0,9,,,,,8,,,58,96
18048,note_on,,,,,4,0,8,,,,,7,,,67,96
18048,note_on,,,,,0,0,8,,,,,7,,,74,96
18236,note_off,,,,,188,0,9,,,,,8,,,58,0
18240,note_off,,,,,192,0,4,,,,,3,,,58,0
18240,note_on,,,,,4,0,9,,,,,8,,,58,96
18240,note_off,,,,,192,0,5,,,,,4,,,46,0
18240,note_on,,,,,0,0,5,,,,,4,,,46,47
18240,note_on,,,,,0,0,4,,,,,3,,,58,50
18264,note_off,,,,,24,0,9,,,,,8,,,58,0
18264,note_on,,,,,0,0,9,,,,,8,,,57,96
18264,note_on,,,,,0,0,5,,,,,4,,,45,47
18264,note_off,,,,,24,0,4,,,,,3,,,58,0
18264,note_off,,,,,24,0,5,,,,,4,,,46,0
18264,note_on,,,,,0,0,4,,,,,3,,,57,50
18288,note_off,,,,,24,0,9,,,,,8,,,57,0
18288,note_on,,,,,0,0,5,,,,,4,,,46,47
18288,note_off,,,,,24,0,5,,,,,4,,,45,0
18288,note_on,,,,,0,0,9,,,,,8,,,58,96
18288,note_off,,,,,24,0,4,,,,,3,,,57,0
18288,note_on,,,,,0,0,4,,,,,3,,,58,50
18312,note_on,,,,,0,0,4,,,,,3,,,57,50
18312,note_on,,,,,0,0,5,,,,,4,,,45,47
18312,note_off,,,,,24,0,4,,,,,3,,,58,0
18312,note_on,,,,,0,0,9,,,,,8,,,57,96
18312,note_off,,,,,24,0,5,,,,,4,,,46,0
18312,note_off,,,,,24,0,9,,,,,8,,,58,0
18336,note_on,,,,,0,0,4,,,,,3,,,58,50
18336,note_off,,,,,24,0,4,,,,,3,,,57,0
18336,note_off,,,,,24,0,9,,,,,8,,,57,0
18336,note_on,,,,,0,0,5,,,,,4,,,46,47
18336,note_on,,,,,0,0,8,,,,,7,,,76,96
18336,note_off,,,,,288,0,8,,,,,7,,,74,0
18336,note_on,,,,,0,0,9,,,,,8,,,58,96
18336,note_off,,,,,24,0,5,,,,,4,,,45,0
18360,note_off,,,,,24,0,5,,,,,4,,,46,0
18360,note_on,,,,,0,0,5,,,,,4,,,45,47
18360,note_on,,,,,0,0,9,,,,,8,,,57,96
18360,note_off,,,,,24,0,9,,,,,8,,,58,0
18360,note_off,,,,,24,0,4,,,,,3,,,58,0
18360,note_on,,,,,0,0,4,,,,,3,,,57,50
18380,note_off,,,,,20,0,9,,,,,8,,,57,0
18384,note_on,,,,,4,0,9,,,,,8,,,55,96
18384,note_on,,,,,0,0,4,,,,,3,,,55,50
18384,note_off,,,,,24,0,4,,,,,3,,,57,0
18384,note_on,,,,,0,0,5,,,,,4,,,43,47
18384,note_off,,,,,24,0,5,,,,,4,,,45,0
18428,note_off,,,,,44,0,9,,,,,8,,,55,0
18428,note_off,,,,,92,0,8,,,,,7,,,76,0
18432,note_on,,,,,4,0,8,,,,,7,,,73,96
18432,note_off,,,,,48,0,5,,,,,4,,,43,0
18432,note_on,,,,,2752,0,10,,,,,8,,,57,96
18432,note_off,,,,,48,0,4,,,,,3,,,55,0
18432,note_on,,,,,0,0,4,,,,,3,,,57,50
18432,note_on,,,,,0,0,5,,,,,4,,,45,47
18432,note_on,,,,,4,0,9,,,,,8,,,65,96
18620,note_off,,,,,188,0,10,,,,,8,,,57,0
18620,note_off,,,,,188,0,8,,,,,7,,,73,0
18624,note_on,,,,,4,0,10,,,,,8,,,61,96
18624,note_on,,,,,0,0,8,,,,,7,,,69,96
18624,note_on,,,,,4,0,8,,,,,7,,,65,96
18752,note_off,,,,,128,0,8,,,,,7,,,67,0
18812,note_off,,,,,188,0,10,,,,,8,,,61,0
18816,note_off,,,,,384,0,5,,,,,4,,,45,0
18816,note_on,,,,,4,0,10,,,,,8,,,62,96
18816,note_off,,,,,384,0,4,,,,,3,,,57,0
18944,note_off,,,,,192,0,8,,,,,7,,,69,0
19004,note_off,,,,,188,0,10,,,,,8,,,62,0
19008,note_on,,,,,192,0,5,,,,,4,,,41,79
19008,note_on,,,,,64,0,8,,,,,7,,,74,96
19008,note_on,,,,,3264,0,2,,,,,1,,,74,98
19008,note_on,,,,,4,0,10,,,,,8,,,53,96
19008,note_on,,,,,3264,0,1,,,,,0,,,74,98
19008,note_on,,,,,3264,0,3,,,,,2,,,69,86
19008,note_on,,,,,192,0,4,,,,,3,,,53,84
19100,note_off,,,,,92,0,8,,,,,7,,,74,0
19104,note_off,,,,,672,0,9,,,,,8,,,65,0
19104,note_on,,,,,4,0,8,,,,,7,,,79,96
19148,note_off,,,,,44,0,8,,,,,7,,,79,0
19152,note_on,,,,,4,0,8,,,,,7,,,81,96
19196,note_off,,,,,44,0,8,,,,,7,,,81,0
19196,note_off,,,,,188,0,10,,,,,8,,,53,0
19200,note_on,,,,,4,0,8,,,,,7,,,82,96
19200,note_off,,,,,192,0,5,,,,,4,,,41,0
19200,note_on,,,,,0,0,5,,,,,4,,,43,79
19200,note_off,,,,,192,0,2,,,,,1,,,74,0
19200,note_on,,,,,4,0,10,,,,,8,,,55,96
19200,note_on,,,,,0,0,4,,,,,3,,,55,84
19200,note_on,,,,,0,0,1,,,,,0,,,82,98
19200,note_off,,,,,192,0,1,,,,,0,,,74,0
19200,note_off,,,,,192,0,3,,,,,2,,,69,0
19200,note_off,,,,,192,0,4,,,,,3,,,53,0
19200,note_on,,,,,0,0,2,,,,,1,,,82,98
19200,note_on,,,,,0,0,3,,,,,2,,,62,86
19296,note_off,,,,,96,0,8,,,,,7,,,65,0
19388,note_off,,,,,92,0,8,,,,,7,,,82,0
19392,note_off,,,,,192,0,2,,,,,1,,,82,0
19392,note_on,,,,,0,0,1,,,,,0,,,82,98
19392,note_off,,,,,192,0,1,,,,,0,,,82,0
19392,note_on,,,,,4,0,8,,,,,7,,,82,96
19392,note_on,,,,,0,0,2,,,,,1,,,82,98
19580,note_off,,,,,188,0,8,,,,,7,,,82,0
19584,note_off,,,,,384,0,5,,,,,4,,,43,0
19584,note_on,,,,,0,0,4,,,,,3,,,55,84
19584,note_on,,,,,0,0,1,,,,,0,,,82,98
19584,note_off,,,,,192,0,1,,,,,0,,,82,0
19584,note_off,,,,,384,0,4,,,,,3,,,55,0
19584,note_on,,,,,0,0,5,,,,,4,,,43,79
19584,note_off,,,,,384,0,3,,,,,2,,,62,0
19584,note_on,,,,,0,0,3,,,,,2,,,64,86
19584,note_on,,,,,480,0,9,,,,,8,,,64,96
19584,note_off,,,,,192,0,2,,,,,1,,,82,0
19584,note_on,,,,,4,0,8,,,,,7,,,82,96
19584,note_on,,,,,0,0,2,,,,,1,,,82,98
19772,note_off,,,,,188,0,8,,,,,7,,,82,0
19776,note_on,,,,,0,0,2,,,,,1,,,82,98
19776,note_on,,,,,0,0,3,,,,,2,,,76,86
19776,note_off,,,,,192,0,3,,,,,2,,,64,0
19776,note_on,,,,,4,0,8,,,,,7,,,82,96
19776,note_off,,,,,192,0,1,,,,,0,,,82,0
19776,note_on,,,,,0,0,1,,,,,0,,,82,98
19776,note_off,,,,,192,0,2,,,,,1,,,82,0
19800,note_off,,,,,24,0,1,,,,,0,,,82,0
19800,note_off,,,,,24,0,2,,,,,1,,,82,0
19800,note_on,,,,,0,0,2,,,,,1,,,81,98
19800,note_on,,,,,0,0,1,,,,,0,,,81,98
19800,note_off,,,,,24,0,8,,,,,7,,,82,0
19800,note_on,,,,,0,0,8,,,,,7,,,81,96
19824,note_off,,,,,24,0,1,,,,,0,,,81,0
19824,note_on,,,,,0,0,1,,,,,0,,,82,98
19824,note_off,,,,,24,0,2,,,,,1,,,81,0
19824,note_off,,,,,24,0,8,,,,,7,,,81,0
19824,note_on,,,,,0,0,8,,,,,7,,,82,96
19824,note_on,,,,,0,0,2,,,,,1,,,82,98
19848,note_off,,,,,24,0,1,,,,,0,,,82,0
19848,note_on,,,,,0,0,1,,,,,0,,,81,98
19848,note_off,,,,,24,0,8,,,,,7,,,82,0
19848,note_on,,,,,0,0,8,,,,,7,,,81,96
19848,note_off,,,,,24,0,2,,,,,1,,,82,0
19848,note_on,,,,,0,0,2,,,,,1,,,81,98
19872,note_off,,,,,24,0,8,,,,,7,,,81,0
19872,note_on,,,,,0,0,2,,,,,1,,,82,98
19872,note_on,,,,,0,0,8,,,,,7,,,82,96
19872,note_on,,,,,0,0,1,,,,,0,,,82,98
19872,note_off,,,,,24,0,1,,,,,0,,,81,0
19872,note_off,,,,,24,0,2,,,,,1,,,81,0
19896,note_off,,,,,24,0,2,,,,,1,,,82,0
19896,note_on,,,,,0,0,2,,,,,1,,,81,98
19896,note_off,,,,,24,0,8,,,,,7,,,82,0
19896,note_on,,,,,0,0,8,,,,,7,,,81,96
19896,note_on,,,,,0,0,1,,,,,0,,,81,98
19896,note_off,,,,,24,0,1,,,,,0,,,82,0
19916,note_off,,,,,20,0,8,,,,,7,,,81,0
19920,note_on,,,,,0,0,2,,,,,1,,,79,98
19920,note_off,,,,,24,0,1,,,,,0,,,81,0
19920,note_off,,,,,24,0,2,,,,,1,,,81,0
19920,note_on,,,,,0,0,1,,,,,0,,,79,98
19920,note_on,,,,,4,0,8,,,,,7,,,79,96
19964,note_off,,,,,44,0,8,,,,,7,,,79,0
19968,note_off,,,,,48,0,2,,,,,1,,,79,0
19968,note_on,,,,,0,0,3,,,,,2,,,73,86
19968,note_off,,,,,48,0,1,,,,,0,,,79,0
19968,note_on,,,,,0,0,2,,,,,1,,,81,98
19968,note_on,,,,,384,0,9,,,,,8,,,61,96
19968,note_on,,,,,4,0,8,,,,,7,,,81,96
19968,note_on,,,,,0,0,1,,,,,0,,,81,98
19968,note_off,,,,,192,0,3,,,,,2,,,76,0
20156,note_off,,,,,188,0,8,,,,,7,,,81,0
20160,note_off,,,,,192,0,2,,,,,1,,,81,0
20160,note_off,,,,,192,0,1,,,,,0,,,81,0
20160,note_on,,,,,4,0,8,,,,,7,,,69,96
20160,note_on,,,,,0,0,2,,,,,1,,,69,98
20160,note_on,,,,,0,0,1,,,,,0,,,69,98
20288,note_off,,,,,320,0,9,,,,,8,,,64,0
20288,note_off,,,,,0,0,9,,,,,8,,,61,0
20288,note_off,,,,,1088,0,10,,,,,8,,,55,0
20348,note_off,,,,,188,0,8,,,,,7,,,69,0
20352,note_off,,,,,192,0,1,,,,,0,,,69,0
20352,note_on,,,,,0,0,1,,,,,0,,,81,98
20352,note_on,,,,,64,0,10,,,,,8,,,54,96
20352,note_off,,,,,384,0,3,,,,,2,,,73,0
20352,note_off,,,,,192,0,2,,,,,1,,,69,0
20352,note_on,,,,,0,0,2,,,,,1,,,81,98
20352,note_off,,,,,768,0,4,,,,,3,,,55,0
20352,note_on,,,,,0,0,4,,,,,3,,,54,84
20352,note_on,,,,,0,0,5,,,,,4,,,42,79
20352,note_off,,,,,768,0,5,,,,,4,,,43,0
20352,note_on,,,,,4,0,8,,,,,7,,,81,96
20544,note_on,,,,,256,0,9,,,,,8,,,62,96
20544,note_on,,,,,192,0,3,,,,,2,,,62,86
20672,note_off,,,,,320,0,10,,,,,8,,,54,0
20732,note_off,,,,,188,0,9,,,,,8,,,62,0
20736,note_on,,,,,4,0,9,,,,,8,,,70,96
20736,note_off,,,,,384,0,5,,,,,4,,,42,0
20736,note_off,,,,,384,0,4,,,,,3,,,54,0
20736,note_off,,,,,192,0,3,,,,,2,,,62,0
20736,note_on,,,,,0,0,8,,,,,7,,,81,96
20736,note_off,,,,,384,0,8,,,,,7,,,81,0
20736,note_on,,,,,64,0,10,,,,,8,,,55,96
20736,note_on,,,,,0,0,5,,,,,4,,,43,79
20736,note_on,,,,,0,0,4,,,,,3,,,55,84
20736,note_on,,,,,0,0,3,,,,,2,,,70,86
20924,note_off,,,,,188,0,8,,,,,7,,,81,0
20924,note_off,,,,,188,0,9,,,,,8,,,70,0
20928,note_on,,,,,0,0,2,,,,,1,,,74,98
20928,note_off,,,,,576,0,2,,,,,1,,,81,0
20928,note_off,,,,,192,0,3,,,,,2,,,70,0
20928,note_on,,,,,0,0,1,,,,,0,,,74,98
20928,note_off,,,,,576,0,1,,,,,0,,,81,0
20928,note_on,,,,,4,0,8,,,,,7,,,74,96
20928,note_on,,,,,4,0,9,,,,,8,,,70,96
20928,note_on,,,,,0,0,3,,,,,2,,,70,86
21056,note_off,,,,,320,0,10,,,,,8,,,55,0
21116,note_off,,,,,188,0,9,,,,,8,,,70,0
21116,note_off,,,,,188,0,8,,,,,7,,,74,0
21120,note_on,,,,,4,0,9,,,,,8,,,70,96
21120,note_off,,,,,384,0,5,,,,,4,,,43,0
21120,note_on,,,,,0,0,5,,,,,4,,,40,79
21120,note_on,,,,,0,0,3,,,,,2,,,70,86
21120,note_off,,,,,192,0,3,,,,,2,,,70,0
21120,note_off,,,,,192,0,2,,,,,1,,,74,0
21120,note_on,,,,,0,0,2,,,,,1,,,79,98
21120,note_on,,,,,64,0,10,,,,,8,,,52,96
21120,note_on,,,,,0,0,1,,,,,0,,,79,98
21120,note_off,,,,,192,0,1,,,,,0,,,74,0
21120,note_on,,,,,4,0,8,,,,,7,,,79,96
21120,note_on,,,,,0,0,4,,,,,3,,,52,84
21120,note_off,,,,,384,0,4,,,,,3,,,55,0
21308,note_off,,,,,188,0,9,,,,,8,,,70,0
21312,note_on,,,,,0,0,3,,,,,2,,,70,86
21312,note_on,,,,,4,0,9,,,,,8,,,70,96
21312,note_off,,,,,192,0,3,,,,,2,,,70,0
21336,note_off,,,,,24,0,3,,,,,2,,,70,0
21336,note_on,,,,,0,0,3,,,,,2,,,69,86
21336,note_off,,,,,24,0,9,,,,,8,,,70,0
21336,note_on,,,,,0,0,9,,,,,8,,,69,96
21360,note_off,,,,,24,0,9,,,,,8,,,69,0
21360,note_on,,,,,0,0,9,,,,,8,,,70,96
21360,note_off,,,,,24,0,3,,,,,2,,,69,0
21360,note_on,,,,,0,0,3,,,,,2,,,70,86
21384,note_off,,,,,24,0,3,,,,,2,,,70,0
21384,note_on,,,,,0,0,3,,,,,2,,,69,86
21384,note_off,,,,,24,0,9,,,,,8,,,70,0
21384,note_on,,,,,0,0,9,,,,,8,,,69,96
21408,note_on,,,,,0,0,9,,,,,8,,,70,96
21408,note_off,,,,,24,0,9,,,,,8,,,69,0
21408,note_on,,,,,0,0,3,,,,,2,,,70,86
21408,note_off,,,,,24,0,3,,,,,2,,,69,0
21432,note_on,,,,,0,0,9,,,,,8,,,69,96
21432,note_off,,,,,24,0,9,,,,,8,,,70,0
21432,note_off,,,,,24,0,3,,,,,2,,,70,0
21432,note_on,,,,,0,0,3,,,,,2,,,69,86
21440,note_off,,,,,320,0,10,,,,,8,,,52,0
21452,note_off,,,,,20,0,9,,,,,8,,,69,0
21456,note_on,,,,,0,0,3,,,,,2,,,67,86
21456,note_on,,,,,4,0,9,,,,,8,,,67,96
21456,note_off,,,,,24,0,3,,,,,2,,,69,0
21500,note_off,,,,,44,0,9,,,,,8,,,67,0
21504,note_off,,,,,384,0,5,,,,,4,,,40,0
21504,note_off,,,,,384,0,4,,,,,3,,,52,0
21504,note_on,,,,,0,0,4,,,,,3,,,49,84
21504,note_on,,,,,4,0,9,,,,,8,,,69,96
21504,note_off,,,,,48,0,3,,,,,2,,,67,0
21504,note_on,,,,,0,0,5,,,,,4,,,37,79
21504,note_on,,,,,64,0,10,,,,,8,,,49,96
21504,note_on,,,,,0,0,3,,,,,2,,,69,86
21692,note_off,,,,,188,0,10,,,,,8,,,49,0
21692,note_off,,,,,188,0,9,,,,,8,,,69,0
21692,note_off,,,,,572,0,8,,,,,7,,,79,0
21696,note_off,,,,,192,0,3,,,,,2,,,69,0
21696,note_off,,,,,192,0,5,,,,,4,,,37,0
21696,note_on,,,,,0,0,5,,,,,4,,,33,79
21696,note_on,,,,,0,0,4,,,,,3,,,45,84
21696,note_off,,,,,576,0,2,,,,,1,,,79,0
21696,note_on,,,,,0,0,2,,,,,1,,,81,98
21696,note_on,,,,,4,0,9,,,,,8,,,73,96
21696,note_on,,,,,4,0,8,,,,,7,,,81,96
21696,note_on,,,,,4,0,10,,,,,8,,,45,96
21696,note_off,,,,,576,0,1,,,,,0,,,79,0
21696,note_on,,,,,0,0,1,,,,,0,,,81,98
21696,note_on,,,,,0,0,3,,,,,2,,,73,86
21696,note_off,,,,,192,0,4,,,,,3,,,49,0
21884,note_off,,,,,188,0,9,,,,,8,,,73,0
21884,note_off,,,,,188,0,10,,,,,8,,,45,0
21884,note_off,,,,,188,0,8,,,,,7,,,81,0
21888,note_on,,,,,4,0,8,,,,,7,,,77,96
21888,note_on,,,,,4,0,10,,,,,8,,,46,96
21888,note_on,,,,,4,0,9,,,,,8,,,74,96
21888,note_on,,,,,0,0,1,,,,,0,,,77,98
21888,note_on,,,,,0,0,4,,,,,3,,,46,84
21888,note_off,,,,,192,0,5,,,,,4,,,33,0
21888,note_on,,,,,0,0,5,,,,,4,,,34,79
21888,note_off,,,,,192,0,3,,,,,2,,,73,0
21888,note_on,,,,,0,0,3,,,,,2,,,74,86
21888,note_off,,,,,192,0,4,,,,,3,,,45,0
21888,note_on,,,,,0,0,2,,,,,1,,,77,98
21888,note_off,,,,,192,0,2,,,,,1,,,81,0
21888,note_off,,,,,192,0,1,,,,,0,,,81,0
22080,note_on,,,,,0,0,1,,,,,0,,,76,98
22080,note_off,,,,,192,0,10,,,,,8,,,46,0
22080,note_on,,,,,0,0,10,,,,,8,,,43,96
22080,note_off,,,,,192,0,5,,,,,4,,,34,0
22080,note_on,,,,,0,0,8,,,,,7,,,76,96
22080,note_off,,,,,192,0,8,,,,,7,,,77,0
22080,note_on,,,,,0,0,5,,,,,4,,,31,79
22080,note_off,,,,,192,0,4,,,,,3,,,46,0
22080,note_on,,,,,0,0,4,,,,,3,,,43,84
22080,note_on,,,,,0,0,2,,,,,1,,,76,98
22080,note_off,,,,,192,0,1,,,,,0,,,77,0
22080,note_off,,,,,192,0,2,,,,,1,,,77,0
22268,note_off,,,,,188,0,10,,,,,8,,,43,0
22268,note_off,,,,,188,0,8,,,,,7,,,76,0
22272,note_off,,,,,192,0,1,,,,,0,,,76,0
22272,note_on,,,,,4,0,8,,,,,7,,,77,96
22272,note_on,,,,,0,0,4,,,,,3,,,45,84
22272,note_on,,,,,0,0,5,,,,,4,,,33,79
22272,note_off,,,,,192,0,5,,,,,4,,,31,0
22272,note_on,,,,,0,0,2,,,,,1,,,77,98
22272,note_on,,,,,4,0,10,,,,,8,,,45,96
22272,note_on,,,,,0,0,1,,,,,0,,,77,98
22272,note_off,,,,,192,0,4,,,,,3,,,43,0
22272,note_off,,,,,192,0,2,,,,,1,,,76,0
22556,note_off,,,,,284,0,8,,,,,7,,,77,0
22560,note_on,,,,,4,0,8,,,,,7,,,76,96
22560,note_off,,,,,672,0,9,,,,,8,,,74,0
22592,note_off,,,,,320,0,10,,,,,8,,,45,0
22652,note_off,,,,,92,0,8,,,,,7,,,76,0
22656,note_off,,,,,768,0,3,,,,,2,,,74,0
22656,note_on,,,,,0,0,2,,,,,1,,,76,98
22656,note_off,,,,,384,0,1,,,,,0,,,77,0
22656,note_on,,,,,0,0,3,,,,,2,,,72,86
22656,note_off,,,,,384,0,5,,,,,4,,,33,0
22656,note_on,,,,,0,0,1,,,,,0,,,76,98
22656,note_on,,,,,96,0,9,,,,,8,,,72,96
22656,note_on,,,,,4,0,8,,,,,7,,,77,96
22656,note_off,,,,,384,0,2,,,,,1,,,77,0
22656,note_off,,,,,384,0,4,,,,,3,,,45,0
22680,note_off,,,,,24,0,8,,,,,7,,,77,0
22680,note_on,,,,,0,0,8,,,,,7,,,76,96
22704,note_off,,,,,24,0,8,,,,,7,,,76,0
22704,note_on,,,,,0,0,8,,,,,7,,,77,96
22728,note_off,,,,,24,0,8,,,,,7,,,77,0
22728,note_on,,,,,0,0,8,,,,,7,,,76,96
22752,note_on,,,,,0,0,8,,,,,7,,,77,96
22752,note_off,,,,,24,0,8,,,,,7,,,76,0
22776,note_off,,,,,24,0,8,,,,,7,,,77,0
22776,note_on,,,,,0,0,8,,,,,7,,,76,96
22800,note_off,,,,,24,0,8,,,,,7,,,76,0
22800,note_on,,,,,0,0,8,,,,,7,,,77,96
22824,note_on,,,,,0,0,8,,,,,7,,,76,96
22824,note_off,,,,,24,0,8,,,,,7,,,77,0
22848,note_off,,,,,24,0,8,,,,,7,,,76,0
22848,note_on,,,,,192,0,4,,,,,3,,,57,84
22848,note_on,,,,,0,0,8,,,,,7,,,77,96
22848,note_on,,,,,256,0,10,,,,,8,,,57,96
22848,note_on,,,,,192,0,5,,,,,4,,,45,79
22872,note_off,,,,,24,0,8,,,,,7,,,77,0
22872,note_on,,,,,0,0,8,,,,,7,,,76,96
22944,note_off,,,,,288,0,1,,,,,0,,,76,0
22944,note_on,,,,,0,0,1,,,,,0,,,74,98
22944,note_on,,,,,0,0,2,,,,,1,,,74,98
22944,note_off,,,,,288,0,2,,,,,1,,,76,0
22988,note_off,,,,,116,0,8,,,,,7,,,76,0
22992,note_on,,,,,4,0,8,,,,,7,,,74,96
23036,note_off,,,,,188,0,10,,,,,8,,,57,0
23036,note_off,,,,,44,0,8,,,,,7,,,74,0
23040,note_off,,,,,96,0,1,,,,,0,,,74,0
23040,note_off,,,,,192,0,5,,,,,4,,,45,0
23040,note_on,,,,,0,0,5,,,,,4,,,42,79
23040,note_off,,,,,96,0,2,,,,,1,,,74,0
23040,note_on,,,,,4,0,10,,,,,8,,,54,96
23040,note_off,,,,,192,0,4,,,,,3,,,57,0
23040,note_on,,,,,0,0,1,,,,,0,,,74,98
23040,note_on,,,,,4,0,8,,,,,7,,,74,96
23040,note_on,,,,,0,0,2,,,,,1,,,74,98
23040,note_on,,,,,0,0,4,,,,,3,,,54,84
23232,note_on,,,,,0,0,10,,,,,8,,,50,96
23232,note_off,,,,,192,0,10,,,,,8,,,54,0
23232,note_on,,,,,0,0,4,,,,,3,,,50,80
23232,note_on,,,,,0,0,5,,,,,4,,,38,76
23232,note_off,,,,,192,0,5,,,,,4,,,42,0
23232,note_off,,,,,192,0,4,,,,,3,,,54,0
23360,note_off,,,,,704,0,9,,,,,8,,,72,0
23420,note_off,,,,,188,0,10,,,,,8,,,50,0
23424,note_on,,,,,4,0,10,,,,,8,,,55,96
23424,note_on,,,,,0,0,4,,,,,3,,,55,77
23424,note_off,,,,,192,0,5,,,,,4,,,38,0
23424,note_off,,,,,768,0,3,,,,,2,,,72,0
23424,note_on,,,,,0,0,3,,,,,2,,,70,78
23424,note_on,,,,,64,0,9,,,,,8,,,70,96
23424,note_on,,,,,0,0,5,,,,,4,,,43,73
23424,note_off,,,,,192,0,4,,,,,3,,,50,0
23616,note_off,,,,,192,0,5,,,,,4,,,43,0
23616,note_on,,,,,0,0,5,,,,,4,,,41,68
23616,note_off,,,,,192,0,9,,,,,8,,,70,0
23616,note_off,,,,,192,0,10,,,,,8,,,55,0
23616,note_on,,,,,0,0,10,,,,,8,,,53,96
23616,note_on,,,,,0,0,4,,,,,3,,,53,72
23616,note_off,,,,,192,0,4,,,,,3,,,55,0
23616,note_on,,,,,0,0,9,,,,,8,,,69,96
23616,note_off,,,,,576,0,2,,,,,1,,,74,0
23616,note_on,,,,,0,0,2,,,,,1,,,74,82
23616,note_on,,,,,0,0,1,,,,,0,,,74,82
23616,note_off,,,,,576,0,1,,,,,0,,,74,0
23712,note_off,,,,,672,0,8,,,,,7,,,74,0
23804,note_off,,,,,188,0,9,,,,,8,,,69,0
23804,note_off,,,,,188,0,10,,,,,8,,,53,0
23808,note_on,,,,,4,0,9,,,,,8,,,67,96
23808,note_on,,,,,0,0,1,,,,,0,,,72,77
23808,note_on,,,,,0,0,4,,,,,3,,,52,68
23808,note_off,,,,,192,0,4,,,,,3,,,53,0
23808,note_off,,,,,192,0,5,,,,,4,,,41,0
23808,note_on,,,,,0,0,5,,,,,4,,,40,64
23808,note_on,,,,,96,0,8,,,,,7,,,72,96
23808,note_off,,,,,192,0,2,,,,,1,,,74,0
23808,note_on,,,,,0,0,2,,,,,1,,,72,77
23808,note_off,,,,,192,0,1,,,,,0,,,74,0
23808,note_on,,,,,4,0,10,,,,,8,,,52,96
24000,note_off,,,,,192,0,4,,,,,3,,,52,0
24000,note_off,,,,,192,0,5,,,,,4,,,40,0
24000,note_on,,,,,0,0,5,,,,,4,,,36,60
24000,note_on,,,,,0,0,4,,,,,3,,,48,63
24128,note_off,,,,,320,0,8,,,,,7,,,72,0
24128,note_off,,,,,320,0,10,,,,,8,,,52,0
24128,note_off,,,,,320,0,9,,,,,8,,,67,0
24192,note_off,,,,,384,0,1,,,,,0,,,72,0
24192,note_on,,,,,0,0,4,,,,,3,,,53,59
24192,note_off,,,,,384,0,2,,,,,1,,,72,0
24192,note_off,,,,,192,0,4,,,,,3,,,48,0
24192,note_on,,,,,0,0,5,,,,,4,,,41,56
24192,note_off,,,,,192,0,5,,,,,4,,,36,0
24192,note_on,,,,,0,0,3,,,,,2,,,69,60
24192,note_off,,,,,768,0,3,,,,,2,,,70,0
24384,note_on,,,,,8704,0,6,,,,,5,,,72,51
24384,note_off,,,,,192,0,3,,,,,2,,,69,0
24384,note_off,,,,,192,0,5,,,,,4,,,41,0
24384,note_on,,,,,0,0,5,,,,,4,,,40,51
24384,note_on,,,,,8704,0,7,,,,,6,,,52,51
24384,note_on,,,,,192,0,1,,,,,0,,,72,58
24384,note_on,,,,,192,0,2,,,,,1,,,72,58
24384,note_off,,,,,192,0,4,,,,,3,,,53,0
24384,note_on,,,,,0,0,4,,,,,3,,,52,54
24384,note_on,,,,,0,0,3,,,,,2,,,67,56
24572,note_off,,,,,188,0,7,,,,,6,,,52,0
24572,note_off,,,,,188,0,6,,,,,5,,,72,0
24576,note_off,,,,,192,0,5,,,,,4,,,40,0
24576,note_off,,,,,192,0,2,,,,,1,,,72,0
24576,note_on,,,,,4,0,6,,,,,5,,,74,51
24576,note_off,,,,,192,0,1,,,,,0,,,72,0
24576,note_on,,,,,0,0,5,,,,,4,,,38,47
24576,note_on,,,,,4,0,7,,,,,6,,,50,51
24576,note_on,,,,,0,0,1,,,,,0,,,74,58
24576,note_on,,,,,0,0,4,,,,,3,,,50,50
24576,note_off,,,,,192,0,4,,,,,3,,,52,0
24576,note_on,,,,,0,0,2,,,,,1,,,74,58
24576,note_off,,,,,192,0,3,,,,,2,,,67,0
24576,note_on,,,,,0,0,3,,,,,2,,,65,51
24764,note_off,,,,,188,0,6,,,,,5,,,74,0
24768,note_off,,,,,192,0,2,,,,,1,,,74,0
24768,note_on,,,,,0,0,2,,,,,1,,,74,58
24768,note_on,,,,,0,0,3,,,,,2,,,65,51
24768,note_off,,,,,192,0,3,,,,,2,,,65,0
24768,note_on,,,,,4,0,6,,,,,5,,,74,51
24768,note_off,,,,,192,0,1,,,,,0,,,74,0
24768,note_on,,,,,0,0,1,,,,,0,,,74,58
24896,note_off,,,,,320,0,7,,,,,6,,,50,0
24956,note_off,,,,,188,0,6,,,,,5,,,74,0
24960,note_on,,,,,0,0,5,,,,,4,,,43,47
24960,note_on,,,,,4,0,6,,,,,5,,,74,51
24960,note_on,,,,,0,0,4,,,,,3,,,55,50
24960,note_off,,,,,384,0,4,,,,,3,,,50,0
24960,note_off,,,,,384,0,5,,,,,4,,,38,0
24960,note_on,,,,,0,0,3,,,,,2,,,65,51
24960,note_off,,,,,192,0,2,,,,,1,,,74,0
24960,note_off,,,,,192,0,1,,,,,0,,,74,0
24960,note_on,,,,,0,0,1,,,,,0,,,74,58
24960,note_off,,,,,192,0,3,,,,,2,,,65,0
24960,note_on,,,,,64,0,7,,,,,6,,,55,51
24960,note_on,,,,,0,0,2,,,,,1,,,74,58
25148,note_off,,,,,188,0,6,,,,,5,,,74,0
25152,note_on,,,,,0,0,2,,,,,1,,,74,58
25152,note_on,,,,,0,0,3,,,,,2,,,65,51
25152,note_off,,,,,192,0,3,,,,,2,,,65,0
25152,note_off,,,,,192,0,2,,,,,1,,,74,0
25152,note_on,,,,,4,0,6,,,,,5,,,74,51
25152,note_off,,,,,192,0,1,,,,,0,,,74,0
25152,note_on,,,,,0,0,1,,,,,0,,,74,58
25172,note_off,,,,,20,0,6,,,,,5,,,74,0
25176,note_on,,,,,0,0,3,,,,,2,,,64,51
25176,note_off,,,,,24,0,3,,,,,2,,,65,0
25176,note_off,,,,,24,0,2,,,,,1,,,74,0
25176,note_off,,,,,24,0,1,,,,,0,,,74,0
25176,note_on,,,,,0,0,1,,,,,0,,,72,58
25176,note_on,,,,,0,0,2,,,,,1,,,72,58
25176,note_on,,,,,4,0,6,,,,,5,,,72,51
25196,note_off,,,,,20,0,6,,,,,5,,,72,0
25200,note_off,,,,,24,0,2,,,,,1,,,72,0
25200,note_on,,,,,4,0,6,,,,,5,,,74,51
25200,note_on,,,,,0,0,1,,,,,0,,,74,58
25200,note_off,,,,,24,0,1,,,,,0,,,72,0
25200,note_off,,,,,24,0,3,,,,,2,,,64,0
25200,note_on,,,,,0,0,3,,,,,2,,,65,51
25200,note_on,,,,,0,0,2,,,,,1,,,74,58
25220,note_off,,,,,20,0,6,,,,,5,,,74,0
25224,note_on,,,,,4,0,6,,,,,5,,,72,51
25224,note_off,,,,,24,0,2,,,,,1,,,74,0
25224,note_on,,,,,0,0,3,,,,,2,,,64,51
25224,note_off,,,,,24,0,1,,,,,0,,,74,0
25224,note_on,,,,,0,0,1,,,,,0,,,72,58
25224,note_off,,,,,24,0,3,,,,,2,,,65,0
25224,note_on,,,,,0,0,2,,,,,1,,,72,58
25244,note_off,,,,,20,0,6,,,,,5,,,72,0
25248,note_off,,,,,24,0,3,,,,,2,,,64,0
25248,note_on,,,,,0,0,3,,,,,2,,,65,51
25248,note_on,,,,,0,0,2,,,,,1,,,74,58
25248,note_off,,,,,24,0,2,,,,,1,,,72,0
25248,note_off,,,,,24,0,1,,,,,0,,,72,0
25248,note_on,,,,,4,0,6,,,,,5,,,74,51
25248,note_on,,,,,0,0,1,,,,,0,,,74,58
25268,note_off,,,,,20,0,6,,,,,5,,,74,0
25272,note_off,,,,,24,0,3,,,,,2,,,65,0
25272,note_on,,,,,0,0,2,,,,,1,,,72,58
25272,note_on,,,,,4,0,6,,,,,5,,,72,51
25272,note_off,,,,,24,0,2,,,,,1,,,74,0
25272,note_on,,,,,0,0,1,,,,,0,,,72,58
25272,note_off,,,,,24,0,1,,,,,0,,,74,0
25272,note_on,,,,,0,0,3,,,,,2,,,64,51
25280,note_off,,,,,320,0,7,,,,,6,,,55,0
25292,note_off,,,,,20,0,6,,,,,5,,,72,0
25296,note_on,,,,,0,0,3,,,,,2,,,62,51
25296,note_off,,,,,24,0,1,,,,,0,,,72,0
25296,note_on,,,,,0,0,1,,,,,0,,,71,58
25296,note_on,,,,,4,0,6,,,,,5,,,71,51
25296,note_off,,,,,24,0,2,,,,,1,,,72,0
25296,note_on,,,,,0,0,2,,,,,1,,,71,58
25296,note_off,,,,,24,0,3,,,,,2,,,64,0
25340,note_off,,,,,44,0,6,,,,,5,,,71,0
25344,note_off,,,,,384,0,4,,,,,3,,,55,0
25344,note_on,,,,,0,0,1,,,,,0,,,72,58
25344,note_on,,,,,4,0,6,,,,,5,,,72,51
25344,note_off,,,,,48,0,1,,,,,0,,,71,0
25344,note_on,,,,,0,0,4,,,,,3,,,48,50
25344,note_on,,,,,0,0,2,,,,,1,,,72,58
25344,note_off,,,,,384,0,5,,,,,4,,,43,0
25344,note_on,,,,,64,0,7,,,,,6,,,48,51
25344,note_off,,,,,48,0,3,,,,,2,,,62,0
25344,note_on,,,,,0,0,3,,,,,2,,,64,51
25344,note_on,,,,,0,0,5,,,,,4,,,36,47
25344,note_off,,,,,48,0,2,,,,,1,,,71,0
25536,note_on,,,,,0,0,4,,,,,3,,,55,50
25536,note_off,,,,,192,0,4,,,,,3,,,48,0
25536,note_off,,,,,192,0,5,,,,,4,,,36,0
25536,note_on,,,,,0,0,5,,,,,4,,,43,47
25664,note_off,,,,,320,0,7,,,,,6,,,48,0
25664,note_off,,,,,320,0,6,,,,,5,,,72,0
25728,note_off,,,,,192,0,4,,,,,3,,,55,0
25728,note_on,,,,,0,0,4,,,,,3,,,60,50
25728,note_off,,,,,192,0,5,,,,,4,,,43,0
25728,note_off,,,,,384,0,1,,,,,0,,,72,0
25728,note_off,,,,,384,0,2,,,,,1,,,72,0
25728,note_off,,,,,384,0,3,,,,,2,,,64,0
25728,note_on,,,,,0,0,5,,,,,4,,,48,47
25920,note_on,,,,,1792,0,8,,,,,7,,,72,96
25920,note_on,,,,,0,0,8,,,,,7,,,76,96
25920,note_on,,,,,1792,0,9,,,,,8,,,57,96
26108,note_off,,,,,188,0,9,,,,,8,,,57,0
26108,note_off,,,,,0,0,8,,,,,7,,,76,0
26108,note_off,,,,,188,0,8,,,,,7,,,72,0
26112,note_on,,,,,4,0,8,,,,,7,,,74,96
26112,note_off,,,,,384,0,5,,,,,4,,,48,0
26112,note_on,,,,,4,0,9,,,,,8,,,50,96
26112,note_on,,,,,0,0,8,,,,,7,,,77,96
26112,note_off,,,,,384,0,4,,,,,3,,,60,0
26300,note_off,,,,,188,0,8,,,,,7,,,74,0
26300,note_off,,,,,0,0,8,,,,,7,,,77,0
26304,note_on,,,,,4,0,8,,,,,7,,,74,96
26304,note_on,,,,,0,0,8,,,,,7,,,77,96
26432,note_off,,,,,320,0,9,,,,,8,,,50,0
26492,note_off,,,,,188,0,8,,,,,7,,,74,0
26492,note_off,,,,,0,0,8,,,,,7,,,77,0
26496,note_on,,,,,4,0,8,,,,,7,,,74,96
26496,note_on,,,,,0,0,8,,,,,7,,,77,96
26496,note_on,,,,,64,0,9,,,,,8,,,55,96
26684,note_off,,,,,188,0,8,,,,,7,,,74,0
26684,note_off,,,,,0,0,8,,,,,7,,,77,0
26688,note_on,,,,,4,0,8,,,,,7,,,72,96
26688,note_on,,,,,0,0,8,,,,,7,,,77,96
26712,note_on,,,,,0,0,8,,,,,7,,,76,96
26712,note_off,,,,,24,0,8,,,,,7,,,77,0
26736,note_on,,,,,0,0,8,,,,,7,,,77,96
26736,note_off,,,,,24,0,8,,,,,7,,,76,0
26760,note_on,,,,,0,0,8,,,,,7,,,76,96
26760,note_off,,,,,24,0,8,,,,,7,,,77,0
26784,note_on,,,,,0,0,8,,,,,7,,,77,96
26784,note_off,,,,,24,0,8,,,,,7,,,76,0
26808,note_off,,,,,24,0,8,,,,,7,,,77,0
26808,note_on,,,,,0,0,8,,,,,7,,,76,96
26816,note_off,,,,,320,0,9,,,,,8,,,55,0
26828,note_off,,,,,0,0,8,,,,,7,,,76,0
26828,note_off,,,,,20,0,8,,,,,7,,,72,0
26832,note_on,,,,,4,0,8,,,,,7,,,71,96
26832,note_on,,,,,0,0,8,,,,,7,,,74,96
26876,note_off,,,,,44,0,8,,,,,7,,,71,0
26876,note_off,,,,,0,0,8,,,,,7,,,74,0
26880,note_on,,,,,64,0,9,,,,,8,,,48,96
26880,note_on,,,,,4,0,8,,,,,7,,,72,96
26880,note_on,,,,,0,0,8,,,,,7,,,76,96
27068,note_off,,,,,188,0,8,,,,,7,,,76,0
27072,note_on,,,,,4,0,8,,,,,7,,,79,96
27200,note_off,,,,,128,0,8,,,,,7,,,72,0
27200,note_off,,,,,320,0,9,,,,,8,,,48,0
27260,note_off,,,,,60,0,8,,,,,7,,,79,0
27264,note_on,,,,,4,0,8,,,,,7,,,84,96
27264,note_on,,,,,3136,0,10,,,,,8,,,57,96
27456,note_on,,,,,1728,0,3,,,,,2,,,69,51
27456,note_on,,,,,1728,0,2,,,,,1,,,77,58
27456,note_on,,,,,1344,0,5,,,,,4,,,45,47
27456,note_on,,,,,192,0,8,,,,,7,,,76,96
27456,note_on,,,,,256,0,9,,,,,8,,,76,96
27456,note_on,,,,,1344,0,4,,,,,3,,,57,50
27456,note_on,,,,,1728,0,1,,,,,0,,,77,58
27584,note_off,,,,,320,0,10,,,,,8,,,57,0
27644,note_off,,,,,188,0,8,,,,,7,,,76,0
27644,note_off,,,,,188,0,9,,,,,8,,,76,0
27648,note_on,,,,,0,0,3,,,,,2,,,69,54
27648,note_on,,,,,64,0,10,,,,,8,,,53,96
27648,note_off,,,,,192,0,3,,,,,2,,,69,0
27648,note_off,,,,,192,0,2,,,,,1,,,77,0
27648,note_on,,,,,0,0,2,,,,,1,,,86,61
27648,note_on,,,,,0,0,1,,,,,0,,,86,61
27648,note_on,,,,,0,0,5,,,,,4,,,41,50
27648,note_on,,,,,4,0,9,,,,,8,,,74,96
27648,note_off,,,,,192,0,5,,,,,4,,,45,0
27648,note_off,,,,,192,0,4,,,,,3,,,57,0
27648,note_on,,,,,0,0,4,,,,,3,,,53,53
27648,note_off,,,,,192,0,1,,,,,0,,,77,0
27836,note_off,,,,,192,0,8,,,,,7,,,84,0
27840,note_on,,,,,0,0,3,,,,,2,,,65,57
27840,note_off,,,,,192,0,1,,,,,0,,,86,0
27840,note_on,,,,,0,0,1,,,,,0,,,86,65
27840,note_on,,,,,4,0,8,,,,,7,,,84,96
27840,note_off,,,,,192,0,2,,,,,1,,,86,0
27840,note_on,,,,,0,0,2,,,,,1,,,86,65
27840,note_off,,,,,192,0,3,,,,,2,,,69,0
27864,note_off,,,,,24,0,8,,,,,7,,,84,0
27864,note_on,,,,,0,0,8,,,,,7,,,82,96
27888,note_on,,,,,0,0,8,,,,,7,,,84,96
27888,note_off,,,,,24,0,8,,,,,7,,,82,0
27912,note_on,,,,,0,0,8,,,,,7,,,82,96
27912,note_off,,,,,24,0,8,,,,,7,,,84,0
27936,note_on,,,,,0,0,8,,,,,7,,,84,96
27936,note_off,,,,,24,0,8,,,,,7,,,82,0
27960,note_off,,,,,24,0,8,,,,,7,,,84,0
27960,note_on,,,,,0,0,8,,,,,7,,,82,96
27968,note_off,,,,,320,0,10,,,,,8,,,53,0
27980,note_off,,,,,20,0,8,,,,,7,,,82,0
27984,note_on,,,,,4,0,8,,,,,7,,,81,96
28028,note_off,,,,,44,0,8,,,,,7,,,81,0
28032,note_off,,,,,192,0,1,,,,,0,,,86,0
28032,note_on,,,,,4,0,8,,,,,7,,,82,96
28032,note_off,,,,,384,0,4,,,,,3,,,53,0
28032,note_on,,,,,0,0,4,,,,,3,,,55,60
28032,note_off,,,,,192,0,3,,,,,2,,,65,0
28032,note_on,,,,,0,0,3,,,,,2,,,70,60
28032,note_off,,,,,384,0,5,,,,,4,,,41,0
28032,note_on,,,,,0,0,5,,,,,4,,,43,57
28032,note_on,,,,,64,0,10,,,,,8,,,55,96
28032,note_on,,,,,0,0,1,,,,,0,,,86,69
28032,note_on,,,,,0,0,2,,,,,1,,,86,69
28032,note_off,,,,,192,0,2,,,,,1,,,86,0
28160,note_off,,,,,512,0,9,,,,,8,,,74,0
28224,note_off,,,,,192,0,2,,,,,1,,,86,0
28224,note_off,,,,,192,0,1,,,,,0,,,86,0
28224,note_on,,,,,0,0,1,,,,,0,,,86,73
28224,note_on,,,,,0,0,2,,,,,1,,,86,73
28224,note_on,,,,,64,0,9,,,,,8,,,74,96
28248,note_off,,,,,24,0,2,,,,,1,,,86,0
28248,note_off,,,,,24,0,1,,,,,0,,,86,0
28248,note_on,,,,,0,0,1,,,,,0,,,84,73
28248,note_on,,,,,0,0,2,,,,,1,,,84,73
28272,note_on,,,,,0,0,1,,,,,0,,,86,73
28272,note_off,,,,,24,0,2,,,,,1,,,84,0
28272,note_off,,,,,24,0,1,,,,,0,,,84,0
28272,note_on,,,,,0,0,2,,,,,1,,,86,73
28296,note_off,,,,,24,0,1,,,,,0,,,86,0
28296,note_on,,,,,0,0,2,,,,,1,,,84,73
28296,note_off,,,,,24,0,2,,,,,1,,,86,0
28296,note_on,,,,,0,0,1,,,,,0,,,84,73
28320,note_off,,,,,24,0,2,,,,,1,,,84,0
28320,note_off,,,,,24,0,1,,,,,0,,,84,0
28320,note_on,,,,,0,0,2,,,,,1,,,86,73
28320,note_on,,,,,0,0,1,,,,,0,,,86,73
28344,note_on,,,,,0,0,2,,,,,1,,,84,73
28344,note_on,,,,,0,0,1,,,,,0,,,84,73
28344,note_off,,,,,24,0,1,,,,,0,,,86,0
28344,note_off,,,,,24,0,2,,,,,1,,,86,0
28352,note_off,,,,,320,0,10,,,,,8,,,55,0
28368,note_on,,,,,0,0,1,,,,,0,,,82,73
28368,note_off,,,,,24,0,1,,,,,0,,,84,0
28368,note_on,,,,,0,0,2,,,,,1,,,82,73
28368,note_off,,,,,24,0,2,,,,,1,,,84,0
28412,note_off,,,,,188,0,9,,,,,8,,,74,0
28416,note_on,,,,,0,0,5,,,,,4,,,40,63
28416,note_on,,,,,0,0,1,,,,,0,,,84,73
28416,note_off,,,,,48,0,1,,,,,0,,,82,0
28416,note_off,,,,,384,0,5,,,,,4,,,43,0
28416,note_on,,,,,4,0,9,,,,,8,,,72,96
28416,note_on,,,,,0,0,2,,,,,1,,,84,73
28416,note_on,,,,,0,0,3,,,,,2,,,67,67
28416,note_off,,,,,384,0,3,,,,,2,,,70,0
28416,note_on,,,,,64,0,10,,,,,8,,,52,96
28416,note_off,,,,,384,0,4,,,,,3,,,55,0
28416,note_on,,,,,0,0,4,,,,,3,,,52,67
28416,note_off,,,,,48,0,2,,,,,1,,,82,0
28544,note_off,,,,,512,0,8,,,,,7,,,82,0
28608,note_on,,,,,64,0,8,,,,,7,,,82,96
28632,note_off,,,,,24,0,8,,,,,7,,,82,0
28632,note_on,,,,,0,0,8,,,,,7,,,81,96
28656,note_off,,,,,24,0,8,,,,,7,,,81,0
28656,note_on,,,,,0,0,8,,,,,7,,,82,96
28680,note_on,,,,,0,0,8,,,,,7,,,81,96
28680,note_off,,,,,24,0,8,,,,,7,,,82,0
28704,note_off,,,,,24,0,8,,,,,7,,,81,0
28704,note_on,,,,,0,0,8,,,,,7,,,82,96
28728,note_off,,,,,24,0,8,,,,,7,,,82,0
28728,note_on,,,,,0,0,8,,,,,7,,,81,96
28736,note_off,,,,,320,0,10,,,,,8,,,52,0
28748,note_off,,,,,20,0,8,,,,,7,,,81,0
28752,note_on,,,,,4,0,8,,,,,7,,,79,96
28796,note_off,,,,,44,0,8,,,,,7,,,79,0
28800,note_on,,,,,4,0,8,,,,,7,,,81,96
28800,note_on,,,,,64,0,10,,,,,8,,,53,96
28800,note_off,,,,,384,0,3,,,,,2,,,67,0
28800,note_off,,,,,384,0,2,,,,,1,,,84,0
28800,note_off,,,,,384,0,5,,,,,4,,,40,0
28800,note_on,,,,,0,0,5,,,,,4,,,41,69
28800,note_on,,,,,0,0,4,,,,,3,,,53,73
28800,note_off,,,,,384,0,4,,,,,3,,,52,0
28800,note_off,,,,,384,0,1,,,,,0,,,84,0
28928,note_off,,,,,512,0,9,,,,,8,,,72,0
28992,note_on,,,,,192,0,3,,,,,2,,,72,78
28992,note_on,,,,,192,0,2,,,,,1,,,77,85
28992,note_on,,,,,192,0,1,,,,,0,,,77,85
28992,note_on,,,,,64,0,9,,,,,8,,,72,97
29120,note_off,,,,,320,0,10,,,,,8,,,53,0
29180,note_off,,,,,188,0,9,,,,,8,,,72,0
29184,note_on,,,,,0,0,4,,,,,3,,,50,80
29184,note_on,,,,,64,0,10,,,,,8,,,50,97
29184,note_off,,,,,384,0,4,,,,,3,,,53,0
29184,note_off,,,,,192,0,1,,,,,0,,,77,0
29184,note_off,,,,,192,0,3,,,,,2,,,72,0
29184,note_off,,,,,192,0,2,,,,,1,,,77,0
29184,note_on,,,,,0,0,5,,,,,4,,,38,76
29184,note_off,,,,,384,0,5,,,,,4,,,41,0
29184,note_on,,,,,0,0,3,,,,,2,,,65,81
29184,note_on,,,,,4,0,9,,,,,8,,,70,97
29184,note_on,,,,,0,0,2,,,,,1,,,82,89
29184,note_on,,,,,0,0,1,,,,,0,,,82,89
29372,note_off,,,,,572,0,8,,,,,7,,,81,0
29376,note_off,,,,,192,0,2,,,,,1,,,82,0
29376,note_on,,,,,0,0,2,,,,,1,,,82,93
29376,note_on,,,,,4,0,8,,,,,7,,,81,97
29376,note_on,,,,,0,0,1,,,,,0,,,82,93
29376,note_off,,,,,192,0,1,,,,,0,,,82,0
29400,note_off,,,,,24,0,8,,,,,7,,,81,0
29400,note_on,,,,,0,0,8,,,,,7,,,79,97
29424,note_on,,,,,0,0,8,,,,,7,,,81,97
29424,note_off,,,,,24,0,8,,,,,7,,,79,0
29448,note_off,,,,,24,0,8,,,,,7,,,81,0
29448,note_on,,,,,0,0,8,,,,,7,,,79,97
29472,note_off,,,,,24,0,8,,,,,7,,,79,0
29472,note_on,,,,,0,0,8,,,,,7,,,81,97
29496,note_off,,,,,24,0,8,,,,,7,,,81,0
29496,note_on,,,,,0,0,8,,,,,7,,,79,97
29504,note_off,,,,,320,0,10,,,,,8,,,50,0
29516,note_off,,,,,20,0,8,,,,,7,,,79,0
29520,note_on,,,,,4,0,8,,,,,7,,,77,97
29564,note_off,,,,,44,0,8,,,,,7,,,77,0
29568,note_off,,,,,192,0,1,,,,,0,,,82,0
29568,note_on,,,,,0,0,1,,,,,0,,,82,96
29568,note_off,,,,,192,0,2,,,,,1,,,82,0
29568,note_on,,,,,0,0,2,,,,,1,,,82,96
29568,note_on,,,,,0,0,3,,,,,2,,,60,88
29568,note_off,,,,,384,0,3,,,,,2,,,65,0
29568,note_on,,,,,4,0,8,,,,,7,,,79,97
29568,note_on,,,,,0,0,5,,,,,4,,,40,82
29568,note_on,,,,,64,0,10,,,,,8,,,52,98
29568,note_on,,,,,0,0,4,,,,,3,,,52,87
29568,note_off,,,,,384,0,4,,,,,3,,,50,0
29568,note_off,,,,,384,0,5,,,,,4,,,38,0
29696,note_off,,,,,512,0,9,,,,,8,,,70,0
29760,note_on,,,,,0,0,2,,,,,1,,,82,100
29760,note_on,,,,,64,0,9,,,,,8,,,70,98
29760,note_off,,,,,192,0,2,,,,,1,,,82,0
29760,note_on,,,,,0,0,1,,,,,0,,,82,100
29760,note_off,,,,,192,0,1,,,,,0,,,82,0
29784,note_off,,,,,24,0,2,,,,,1,,,82,0
29784,note_on,,,,,0,0,1,,,,,0,,,81,100
29784,note_off,,,,,24,0,1,,,,,0,,,82,0
29784,note_on,,,,,0,0,2,,,,,1,,,81,100
29808,note_on,,,,,0,0,2,,,,,1,,,82,100
29808,note_off,,,,,24,0,1,,,,,0,,,81,0
29808,note_on,,,,,0,0,1,,,,,0,,,82,100
29808,note_off,,,,,24,0,2,,,,,1,,,81,0
29832,note_off,,,,,24,0,2,,,,,1,,,82,0
29832,note_on,,,,,0,0,2,,,,,1,,,81,100
29832,note_off,,,,,24,0,1,,,,,0,,,82,0
29832,note_on,,,,,0,0,1,,,,,0,,,81,100
29856,note_off,,,,,24,0,2,,,,,1,,,81,0
29856,note_on,,,,,0,0,2,,,,,1,,,82,100
29856,note_off,,,,,24,0,1,,,,,0,,,81,0
29856,note_on,,,,,0,0,1,,,,,0,,,82,100
29880,note_on,,,,,0,0,1,,,,,0,,,81,100
29880,note_off,,,,,24,0,2,,,,,1,,,82,0
29880,note_on,,,,,0,0,2,,,,,1,,,81,100
29880,note_off,,,,,24,0,1,,,,,0,,,82,0
29888,note_off,,,,,320,0,10,,,,,8,,,52,0
29904,note_on,,,,,0,0,1,,,,,0,,,79,100
29904,note_off,,,,,24,0,1,,,,,0,,,81,0
29904,note_on,,,,,0,0,2,,,,,1,,,79,100
29904,note_off,,,,,24,0,2,,,,,1,,,81,0
29948,note_off,,,,,188,0,9,,,,,8,,,70,0
29952,note_on,,,,,0,0,1,,,,,0,,,81,102
29952,note_off,,,,,48,0,1,,,,,0,,,79,0
29952,note_off,,,,,384,0,5,,,,,4,,,40,0
29952,note_on,,,,,0,0,5,,,,,4,,,41,90
29952,note_on,,,,,4,0,9,,,,,8,,,69,98
29952,note_on,,,,,64,0,10,,,,,8,,,53,99
29952,note_on,,,,,0,0,2,,,,,1,,,81,102
29952,note_off,,,,,384,0,4,,,,,3,,,52,0
29952,note_off,,,,,384,0,3,,,,,2,,,60,0
29952,note_on,,,,,0,0,4,,,,,3,,,53,95
29952,note_on,,,,,0,0,3,,,,,2,,,72,95
29952,note_off,,,,,48,0,2,,,,,1,,,79,0
30080,note_off,,,,,512,0,8,,,,,7,,,79,0
30144,note_on,,,,,64,0,8,,,,,7,,,79,98
30168,note_off,,,,,24,0,8,,,,,7,,,79,0
30168,note_on,,,,,0,0,8,,,,,7,,,77,98
30192,note_off,,,,,24,0,8,,,,,7,,,77,0
30192,note_on,,,,,0,0,8,,,,,7,,,79,98
30216,note_on,,,,,0,0,8,,,,,7,,,77,98
30216,note_off,,,,,24,0,8,,,,,7,,,79,0
30240,note_on,,,,,0,0,8,,,,,7,,,79,98
30240,note_off,,,,,24,0,8,,,,,7,,,77,0
30264,note_on,,,,,0,0,8,,,,,7,,,77,98
30264,note_off,,,,,24,0,8,,,,,7,,,79,0
30272,note_off,,,,,320,0,10,,,,,8,,,53,0
30272,note_off,,,,,320,0,9,,,,,8,,,69,0
30284,note_off,,,,,20,0,8,,,,,7,,,77,0
30288,note_on,,,,,4,0,8,,,,,7,,,76,98
30332,note_off,,,,,44,0,8,,,,,7,,,76,0
30336,note_on,,,,,0,0,4,,,,,3,,,57,103
30336,note_off,,,,,384,0,4,,,,,3,,,53,0
30336,note_off,,,,,384,0,2,,,,,1,,,81,0
30336,note_off,,,,,384,0,5,,,,,4,,,41,0
30336,note_off,,,,,384,0,3,,,,,2,,,72,0
30336,note_on,,,,,64,0,10,,,,,8,,,57,101
30336,note_off,,,,,384,0,1,,,,,0,,,81,0
30336,note_on,,,,,64,0,9,,,,,8,,,72,99
30336,note_on,,,,,4,0,8,,,,,7,,,77,98
30336,note_on,,,,,0,0,5,,,,,4,,,45,97
30528,note_on,,,,,192,0,2,,,,,1,,,81,120
30528,note_on,,,,,192,0,3,,,,,2,,,72,105
30528,note_on,,,,,192,0,1,,,,,0,,,81,120
30656,note_off,,,,,320,0,8,,,,,7,,,77,0
30656,note_off,,,,,320,0,10,,,,,8,,,57,0
30656,note_off,,,,,320,0,9,,,,,8,,,72,0
30720,note_off,,,,,192,0,2,,,,,1,,,81,0
30720,note_on,,,,,0,0,1,,,,,0,,,79,120
30720,note_off,,,,,192,0,1,,,,,0,,,81,0
30720,note_on,,,,,0,0,2,,,,,1,,,79,120
30720,note_off,,,,,384,0,4,,,,,3,,,57,0
30720,note_on,,,,,0,0,5,,,,,4,,,46,97
30720,note_on,,,,,0,0,4,,,,,3,,,58,103
30720,note_off,,,,,192,0,3,,,,,2,,,72,0
30720,note_on,,,,,0,0,3,,,,,2,,,70,105
30720,note_off,,,,,384,0,5,,,,,4,,,45,0
30912,note_on,,,,,0,0,1,,,,,0,,,77,120
30912,note_on,,,,,0,0,2,,,,,1,,,77,120
30912,note_off,,,,,192,0,2,,,,,1,,,79,0
30912,note_off,,,,,192,0,3,,,,,2,,,70,0
30912,note_on,,,,,0,0,3,,,,,2,,,69,105
30912,note_off,,,,,192,0,1,,,,,0,,,79,0
31104,note_on,,,,,0,0,3,,,,,2,,,69,105
31104,note_off,,,,,384,0,5,,,,,4,,,46,0
31104,note_on,,,,,0,0,5,,,,,4,,,48,97
31104,note_on,,,,,0,0,2,,,,,1,,,77,120
31104,note_off,,,,,192,0,1,,,,,0,,,77,0
31104,note_off,,,,,192,0,3,,,,,2,,,69,0
31104,note_on,,,,,0,0,1,,,,,0,,,77,120
31104,note_off,,,,,384,0,4,,,,,3,,,58,0
31104,note_on,,,,,0,0,4,,,,,3,,,60,103
31104,note_off,,,,,192,0,2,,,,,1,,,77,0
31128,note_off,,,,,24,0,3,,,,,2,,,69,0
31128,note_on,,,,,0,0,3,,,,,2,,,67,105
31128,note_on,,,,,0,0,2,,,,,1,,,76,120
31128,note_off,,,,,24,0,2,,,,,1,,,77,0
31128,note_on,,,,,0,0,1,,,,,0,,,76,120
31128,note_off,,,,,24,0,1,,,,,0,,,77,0
31152,note_on,,,,,0,0,2,,,,,1,,,77,120
31152,note_on,,,,,0,0,1,,,,,0,,,77,120
31152,note_off,,,,,24,0,1,,,,,0,,,76,0
31152,note_on,,,,,0,0,3,,,,,2,,,69,105
31152,note_off,,,,,24,0,3,,,,,2,,,67,0
31152,note_off,,,,,24,0,2,,,,,1,,,76,0
31176,note_off,,,,,24,0,2,,,,,1,,,77,0
31176,note_on,,,,,0,0,2,,,,,1,,,76,120
31176,note_on,,,,,0,0,1,,,,,0,,,76,120
31176,note_off,,,,,24,0,1,,,,,0,,,77,0
31176,note_on,,,,,0,0,3,,,,,2,,,67,105
31176,note_off,,,,,24,0,3,,,,,2,,,69,0
31200,note_on,,,,,0,0,2,,,,,1,,,77,120
31200,note_off,,,,,24,0,1,,,,,0,,,76,0
31200,note_off,,,,,24,0,2,,,,,1,,,76,0
31200,note_off,,,,,24,0,3,,,,,2,,,67,0
31200,note_on,,,,,0,0,3,,,,,2,,,69,105
31200,note_on,,,,,0,0,1,,,,,0,,,77,120
31224,note_on,,,,,0,0,2,,,,,1,,,76,120
31224,note_on,,,,,0,0,1,,,,,0,,,76,120
31224,note_off,,,,,24,0,1,,,,,0,,,77,0
31224,note_off,,,,,24,0,3,,,,,2,,,69,0
31224,note_on,,,,,0,0,3,,,,,2,,,67,105
31224,note_off,,,,,24,0,2,,,,,1,,,77,0
31248,note_off,,,,,24,0,1,,,,,0,,,76,0
31248,note_on,,,,,0,0,1,,,,,0,,,77,120
31248,note_off,,,,,24,0,2,,,,,1,,,76,0
31248,note_on,,,,,0,0,2,,,,,1,,,77,120
31248,note_off,,,,,24,0,3,,,,,2,,,67,0
31248,note_on,,,,,0,0,3,,,,,2,,,69,105
31272,note_off,,,,,24,0,2,,,,,1,,,77,0
31272,note_on,,,,,0,0,2,,,,,1,,,76,120
31272,note_off,,,,,24,0,1,,,,,0,,,77,0
31272,note_on,,,,,0,0,3,,,,,2,,,67,105
31272,note_off,,,,,24,0,3,,,,,2,,,69,0
31272,note_on,,,,,0,0,1,,,,,0,,,76,120
31392,note_on,,,,,0,0,3,,,,,2,,,65,105
31392,note_off,,,,,120,0,3,,,,,2,,,67,0
31392,note_off,,,,,120,0,1,,,,,0,,,76,0
31392,note_off,,,,,120,0,2,,,,,1,,,76,0
31392,note_on,,,,,0,0,1,,,,,0,,,74,120
31392,note_on,,,,,0,0,2,,,,,1,,,74,120
31440,note_off,,,,,48,0,2,,,,,1,,,74,0
31440,note_on,,,,,0,0,2,,,,,1,,,76,120
31440,note_off,,,,,48,0,1,,,,,0,,,74,0
31440,note_on,,,,,0,0,1,,,,,0,,,76,120
31440,note_off,,,,,48,0,3,,,,,2,,,65,0
31440,note_on,,,,,0,0,3,,,,,2,,,67,105
31488,note_on,,,,,0,0,5,,,,,4,,,50,97
31488,note_off,,,,,384,0,5,,,,,4,,,48,0
31488,note_off,,,,,48,0,3,,,,,2,,,67,0
31488,note_on,,,,,0,0,1,,,,,0,,,77,120
31488,note_off,,,,,48,0,1,,,,,0,,,76,0
31488,note_off,,,,,384,0,4,,,,,3,,,60,0
31488,note_on,,,,,0,0,4,,,,,3,,,62,103
31488,note_off,,,,,48,0,2,,,,,1,,,76,0
31488,note_on,,,,,0,0,2,,,,,1,,,77,120
31488,note_on,,,,,0,0,3,,,,,2,,,65,105
31680,note_on,,,,,0,0,5,,,,,4,,,38,97
31680,note_off,,,,,192,0,4,,,,,3,,,62,0
31680,note_on,,,,,0,0,4,,,,,3,,,50,103
31680,note_off,,,,,192,0,5,,,,,4,,,50,0
31872,note_off,,,,,384,0,3,,,,,2,,,65,0
31872,note_off,,,,,384,0,2,,,,,1,,,77,0
31872,note_off,,,,,192,0,4,,,,,3,,,50,0
31872,note_off,,,,,192,0,5,,,,,4,,,38,0
31872,note_on,,,,,0,0,5,,,,,4,,,33,97
31872,note_on,,,,,0,0,4,,,,,3,,,45,103
31872,note_off,,,,,384,0,1,,,,,0,,,77,0
32064,note_on,,,,,1408,0,9,,,,,8,,,57,104
32064,note_on,,,,,1408,0,8,,,,,7,,,69,103
32064,note_on,,,,,0,0,8,,,,,7,,,72,103
32252,note_off,,,,,188,0,8,,,,,7,,,69,0
32252,note_off,,,,,188,0,9,,,,,8,,,57,0
32252,note_off,,,,,0,0,8,,,,,7,,,72,0
32256,note_on,,,,,0,0,8,,,,,7,,,70,103
32256,note_on,,,,,4,0,9,,,,,8,,,58,104
32256,note_off,,,,,384,0,5,,,,,4,,,33,0
32256,note_off,,,,,384,0,4,,,,,3,,,45,0
32256,note_on,,,,,4,0,8,,,,,7,,,67,103
32352,note_on,,,,,0,0,8,,,,,7,,,72,103
32352,note_off,,,,,96,0,8,,,,,7,,,70,0
32444,note_off,,,,,92,0,8,,,,,7,,,67,0
32448,note_on,,,,,0,0,8,,,,,7,,,69,103
32448,note_on,,,,,0,0,8,,,,,7,,,65,103
32448,note_off,,,,,4,0,8,,,,,7,,,72,0
32544,note_on,,,,,0,0,8,,,,,7,,,70,103
32544,note_off,,,,,96,0,8,,,,,7,,,69,0
32576,note_off,,,,,320,0,9,,,,,8,,,58,0
32636,note_off,,,,,0,0,8,,,,,7,,,70,0
32636,note_off,,,,,92,0,8,,,,,7,,,65,0
32640,note_on,,,,,0,0,8,,,,,7,,,67,103
32640,note_on,,,,,4,0,8,,,,,7,,,64,103
32640,note_on,,,,,64,0,9,,,,,8,,,60,106
32828,note_off,,,,,188,0,9,,,,,8,,,60,0
32832,note_on,,,,,4,0,9,,,,,8,,,48,106
32928,note_off,,,,,288,0,8,,,,,7,,,67,0
32928,note_on,,,,,0,0,8,,,,,7,,,65,104
32960,note_off,,,,,32,0,8,,,,,7,,,64,0
32976,note_off,,,,,16,0,8,,,,,7,,,65,0
32976,note_on,,,,,0,0,8,,,,,7,,,67,104
33020,note_off,,,,,188,0,9,,,,,8,,,48,0
33020,note_off,,,,,44,0,8,,,,,7,,,67,0
33024,note_on,,,,,4,0,9,,,,,8,,,45,106
33024,note_on,,,,,4,0,8,,,,,7,,,65,104
33216,note_on,,,,,1344,0,2,,,,,1,,,65,98
33216,note_on,,,,,192,0,8,,,,,7,,,60,104
33216,note_on,,,,,1344,0,1,,,,,0,,,65,98
33216,note_on,,,,,7552,0,6,,,,,5,,,65,86
33216,set_tempo,,,,,33216,1,0,,1153846,,,,,,,
33344,note_off,,,,,320,0,9,,,,,8,,,45,0
33404,note_off,,,,,0,0,8,,,,,7,,,60,0
33404,note_off,,,,,188,0,6,,,,,5,,,65,0
33404,note_off,,,,,188,0,8,,,,,7,,,65,0
33408,note_on,,,,,0,0,1,,,,,0,,,72,99
33408,note_off,,,,,192,0,1,,,,,0,,,65,0
33408,note_off,,,,,192,0,2,,,,,1,,,65,0
33408,note_on,,,,,0,0,2,,,,,1,,,72,99
33408,note_on,,,,,4,0,6,,,,,5,,,72,87
33408,note_on,,,,,4,0,8,,,,,7,,,72,106
33408,note_on,,,,,64,0,9,,,,,8,,,57,107
33600,note_on,,,,,1728,0,3,,,,,2,,,65,86
33600,note_on,,,,,1344,0,5,,,,,4,,,45,79
33600,note_on,,,,,7936,0,7,,,,,6,,,57,86
33600,note_on,,,,,192,0,8,,,,,7,,,65,107
33600,note_on,,,,,1344,0,4,,,,,3,,,57,84
33728,note_off,,,,,320,0,9,,,,,8,,,57,0
33788,note_off,,,,,188,0,8,,,,,7,,,65,0
33788,note_off,,,,,188,0,7,,,,,6,,,57,0
33792,note_off,,,,,192,0,4,,,,,3,,,57,0
33792,note_on,,,,,0,0,4,,,,,3,,,58,86
33792,note_off,,,,,192,0,5,,,,,4,,,45,0
33792,note_on,,,,,4,0,7,,,,,6,,,58,88
33792,note_off,,,,,192,0,3,,,,,2,,,65,0
33792,note_on,,,,,0,0,3,,,,,2,,,62,88
33792,note_on,,,,,64,0,9,,,,,8,,,58,108
33792,note_on,,,,,4,0,8,,,,,7,,,62,108
33792,note_on,,,,,0,0,5,,,,,4,,,46,81
33980,note_off,,,,,572,0,6,,,,,5,,,72,0
33980,note_off,,,,,188,0,8,,,,,7,,,72,0
33984,note_off,,,,,576,0,1,,,,,0,,,72,0
33984,note_on,,,,,0,0,3,,,,,2,,,62,90
33984,note_off,,,,,192,0,3,,,,,2,,,62,0
33984,note_on,,,,,0,0,1,,,,,0,,,70,104
33984,note_on,,,,,0,0,2,,,,,1,,,70,104
33984,note_off,,,,,576,0,2,,,,,1,,,72,0
33984,note_on,,,,,4,0,6,,,,,5,,,70,92
33984,note_on,,,,,4,0,8,,,,,7,,,70,110
34080,note_off,,,,,96,0,8,,,,,7,,,70,0
34080,note_on,,,,,0,0,2,,,,,1,,,69,106
34080,note_on,,,,,0,0,1,,,,,0,,,69,106
34080,note_on,,,,,0,0,8,,,,,7,,,69,110
34080,note_off,,,,,96,0,2,,,,,1,,,70,0
34080,note_on,,,,,0,0,6,,,,,5,,,69,93
34080,note_off,,,,,96,0,6,,,,,5,,,70,0
34080,note_off,,,,,96,0,1,,,,,0,,,70,0
34112,note_off,,,,,320,0,7,,,,,6,,,58,0
34112,note_off,,,,,320,0,9,,,,,8,,,58,0
34172,note_off,,,,,92,0,6,,,,,5,,,69,0
34172,note_off,,,,,92,0,8,,,,,7,,,69,0
34176,note_on,,,,,0,0,3,,,,,2,,,62,93
34176,note_off,,,,,192,0,3,,,,,2,,,62,0
34176,note_off,,,,,96,0,2,,,,,1,,,69,0
34176,note_on,,,,,0,0,2,,,,,1,,,67,107
34176,note_on,,,,,0,0,4,,,,,3,,,46,90
34176,note_on,,,,,0,0,5,,,,,4,,,34,85
34176,note_off,,,,,384,0,5,,,,,4,,,46,0
34176,note_on,,,,,4,0,6,,,,,5,,,67,94
34176,note_on,,,,,64,0,7,,,,,6,,,46,93
34176,note_on,,,,,64,0,9,,,,,8,,,46,111
34176,note_off,,,,,384,0,4,,,,,3,,,58,0
34176,note_on,,,,,4,0,8,,,,,7,,,67,110
34176,note_off,,,,,96,0,1,,,,,0,,,69,0
34176,note_on,,,,,0,0,1,,,,,0,,,67,107
34304,note_off,,,,,128,0,8,,,,,7,,,62,0
34364,note_off,,,,,60,0,8,,,,,7,,,67,0
34368,note_on,,,,,0,0,2,,,,,1,,,65,110
34368,note_on,,,,,4,0,8,,,,,7,,,65,111
34368,note_off,,,,,192,0,1,,,,,0,,,67,0
34368,note_off,,,,,192,0,6,,,,,5,,,67,0
34368,note_on,,,,,0,0,8,,,,,7,,,74,111
34368,note_off,,,,,192,0,3,,,,,2,,,62,0
34368,note_on,,,,,0,0,6,,,,,5,,,65,96
34368,note_on,,,,,0,0,3,,,,,2,,,62,95
34368,note_on,,,,,0,0,1,,,,,0,,,74,110
34368,note_off,,,,,192,0,2,,,,,1,,,67,0
34496,note_off,,,,,320,0,7,,,,,6,,,46,0
34556,note_off,,,,,188,0,6,,,,,5,,,65,0
34556,note_off,,,,,0,0,8,,,,,7,,,74,0
34556,note_off,,,,,188,0,8,,,,,7,,,65,0
34560,note_off,,,,,384,0,5,,,,,4,,,34,0
34560,note_off,,,,,192,0,2,,,,,1,,,65,0
34560,note_on,,,,,4,0,6,,,,,5,,,64,98
34560,note_on,,,,,64,0,7,,,,,6,,,46,97
34560,note_on,,,,,0,0,5,,,,,4,,,34,90
34560,note_on,,,,,4,0,8,,,,,7,,,64,112
34560,note_on,,,,,0,0,8,,,,,7,,,67,112
34560,note_on,,,,,0,0,8,,,,,7,,,72,112
34560,note_on,,,,,0,0,1,,,,,0,,,72,112
34560,note_off,,,,,192,0,1,,,,,0,,,74,0
34560,note_off,,,,,192,0,3,,,,,2,,,62,0
34560,note_off,,,,,384,0,4,,,,,3,,,46,0
34560,note_on,,,,,0,0,4,,,,,3,,,46,95
34560,note_on,,,,,0,0,3,,,,,2,,,55,97
34560,set_tempo,,,,,1344,1,0,,2000000,,,,,,,
34560,note_on,,,,,0,0,2,,,,,1,,,64,112
34880,note_off,,,,,320,0,8,,,,,7,,,64,0
34880,note_off,,,,,0,0,8,,,,,7,,,67,0
34880,note_off,,,,,0,0,8,,,,,7,,,72,0
34880,note_off,,,,,704,0,9,,,,,8,,,46,0
34880,note_off,,,,,320,0,7,,,,,6,,,46,0
34880,note_off,,,,,320,0,6,,,,,5,,,64,0
34944,note_off,,,,,384,0,2,,,,,1,,,64,0
34944,note_off,,,,,384,0,3,,,,,2,,,55,0
34944,note_off,,,,,384,0,4,,,,,3,,,46,0
34944,note_off,,,,,384,0,1,,,,,0,,,72,0
34944,note_off,,,,,384,0,5,,,,,4,,,34,0
35136,note_on,,,,,256,0,9,,,,,8,,,60,117
35136,note_on,,,,,192,0,1,,,,,0,,,77,120
35136,note_on,,,,,192,0,5,,,,,4,,,33,97
35136,note_on,,,,,192,0,3,,,,,2,,,72,105
35136,note_on,,,,,4480,0,10,,,,,8,,,45,117
35136,note_on,,,,,256,0,8,,,,,7,,,65,117
35136,note_on,,,,,256,0,6,,,,,5,,,77,105
35136,note_on,,,,,0,0,8,,,,,7,,,77,117
35136,note_on,,,,,256,0,7,,,,,6,,,45,105
35136,note_on,,,,,192,0,2,,,,,1,,,77,120
35136,set_tempo,,,,,576,1,0,,1200000,,,,,,,
35136,note_on,,,,,192,0,4,,,,,3,,,45,103
35324,note_off,,,,,188,0,6,,,,,5,,,77,0
35324,note_off,,,,,188,0,10,,,,,8,,,45,0
35324,note_off,,,,,188,0,7,,,,,6,,,45,0
35324,note_off,,,,,188,0,8,,,,,7,,,65,0
35324,note_off,,,,,0,0,8,,,,,7,,,77,0
35328,note_on,,,,,0,0,3,,,,,2,,,64,105
35328,note_on,,,,,0,0,4,,,,,3,,,43,103
35328,note_on,,,,,4,0,8,,,,,7,,,70,117
35328,note_off,,,,,192,0,5,,,,,4,,,33,0
35328,note_on,,,,,4,0,10,,,,,8,,,43,117
35328,note_off,,,,,192,0,4,,,,,3,,,45,0
35328,note_on,,,,,0,0,1,,,,,0,,,70,120
35328,note_on,,,,,4,0,7,,,,,6,,,43,105
35328,note_off,,,,,192,0,2,,,,,1,,,77,0
35328,note_on,,,,,0,0,2,,,,,1,,,70,120
35328,note_on,,,,,4,0,6,,,,,5,,,70,105
35328,note_on,,,,,0,0,5,,,,,4,,,31,97
35328,note_off,,,,,192,0,1,,,,,0,,,77,0
35328,note_off,,,,,192,0,3,,,,,2,,,72,0
35612,note_off,,,,,284,0,6,,,,,5,,,70,0
35612,note_off,,,,,284,0,8,,,,,7,,,70,0
35616,note_on,,,,,0,0,1,,,,,0,,,72,120
35616,note_on,,,,,0,0,2,,,,,1,,,72,120
35616,note_off,,,,,288,0,2,,,,,1,,,70,0
35616,note_on,,,,,4,0,6,,,,,5,,,72,105
35616,note_on,,,,,4,0,8,,,,,7,,,72,117
35616,note_off,,,,,288,0,1,,,,,0,,,70,0
35648,note_off,,,,,320,0,7,,,,,6,,,43,0
35648,note_off,,,,,320,0,10,,,,,8,,,43,0
35708,note_off,,,,,92,0,6,,,,,5,,,72,0
35708,note_off,,,,,92,0,8,,,,,7,,,72,0
35712,note_on,,,,,0,0,4,,,,,3,,,41,103
35712,note_on,,,,,4,0,6,,,,,5,,,69,105
35712,note_off,,,,,96,0,2,,,,,1,,,72,0
35712,note_on,,,,,0,0,2,,,,,1,,,69,120
35712,note_off,,,,,96,0,1,,,,,0,,,72,0
35712,note_on,,,,,0,0,1,,,,,0,,,69,120
35712,note_off,,,,,384,0,5,,,,,4,,,31,0
35712,note_on,,,,,64,0,7,,,,,6,,,41,105
35712,note_on,,,,,0,0,5,,,,,4,,,29,97
35712,note_on,,,,,0,0,3,,,,,2,,,65,105
35712,note_off,,,,,384,0,3,,,,,2,,,64,0
35712,note_off,,,,,384,0,4,,,,,3,,,43,0
35712,note_on,,,,,4,0,8,,,,,7,,,69,117
35712,note_on,,,,,64,0,10,,,,,8,,,41,117
35996,note_off,,,,,284,0,6,,,,,5,,,69,0
35996,note_off,,,,,284,0,8,,,,,7,,,69,0
36000,note_on,,,,,0,0,1,,,,,0,,,67,120
36000,note_on,,,,,0,0,2,,,,,1,,,67,120
36000,note_off,,,,,288,0,2,,,,,1,,,69,0
36000,note_on,,,,,4,0,8,,,,,7,,,67,117
36000,note_on,,,,,4,0,6,,,,,5,,,67,105
36000,note_off,,,,,288,0,1,,,,,0,,,69,0
36032,note_off,,,,,320,0,7,,,,,6,,,41,0
36032,note_off,,,,,320,0,10,,,,,8,,,41,0
36092,note_off,,,,,92,0,8,,,,,7,,,67,0
36092,note_off,,,,,92,0,6,,,,,5,,,67,0
36096,note_on,,,,,4,0,6,,,,,5,,,67,105
36096,note_on,,,,,0,0,1,,,,,0,,,67,120
36096,note_on,,,,,64,0,7,,,,,6,,,48,105
36096,note_on,,,,,64,0,10,,,,,8,,,48,117
36096,note_off,,,,,96,0,1,,,,,0,,,67,0
36096,note_on,,,,,0,0,3,,,,,2,,,65,105
36096,note_off,,,,,384,0,5,,,,,4,,,29,0
36096,note_off,,,,,384,0,3,,,,,2,,,65,0
36096,note_on,,,,,4,0,8,,,,,7,,,67,117
36096,note_off,,,,,384,0,4,,,,,3,,,41,0
36096,note_on,,,,,0,0,4,,,,,3,,,48,103
36096,note_on,,,,,0,0,2,,,,,1,,,67,120
36096,note_off,,,,,96,0,2,,,,,1,,,67,0
36096,note_on,,,,,0,0,5,,,,,4,,,36,97
36288,note_on,,,,,0,0,8,,,,,7,,,67,117
36288,note_off,,,,,192,0,8,,,,,7,,,67,0
36288,note_on,,,,,0,0,8,,,,,7,,,64,117
36384,note_off,,,,,1248,0,9,,,,,8,,,60,0
36416,note_off,,,,,320,0,10,,,,,8,,,48,0
36480,note_off,,,,,384,0,5,,,,,4,,,36,0
36480,note_on,,,,,0,0,5,,,,,4,,,24,97
36480,note_on,,,,,96,0,9,,,,,8,,,58,117
36480,note_on,,,,,64,0,10,,,,,8,,,36,117
36480,note_on,,,,,0,0,3,,,,,2,,,64,105
36480,note_off,,,,,384,0,4,,,,,3,,,48,0
36480,note_on,,,,,0,0,4,,,,,3,,,36,103
36480,note_off,,,,,384,0,3,,,,,2,,,65,0
36480,note_on,,,,,0,0,7,,,,,6,,,36,105
36480,note_off,,,,,384,0,7,,,,,6,,,48,0
36608,note_off,,,,,0,0,8,,,,,7,,,67,0
36608,note_off,,,,,320,0,8,,,,,7,,,64,0
36608,note_off,,,,,512,0,6,,,,,5,,,67,0
36672,note_off,,,,,576,0,2,,,,,1,,,67,0
36672,note_on,,,,,0,0,2,,,,,1,,,65,120
36672,note_on,,,,,64,0,8,,,,,7,,,65,117
36672,note_on,,,,,64,0,6,,,,,5,,,65,105
36672,note_on,,,,,0,0,1,,,,,0,,,65,120
36672,note_off,,,,,576,0,1,,,,,0,,,67,0
36800,note_off,,,,,320,0,7,,,,,6,,,36,0
36800,note_off,,,,,320,0,9,,,,,8,,,58,0
36800,note_off,,,,,320,0,10,,,,,8,,,36,0
36860,note_off,,,,,188,0,6,,,,,5,,,65,0
36860,note_off,,,,,188,0,8,,,,,7,,,65,0
36864,note_on,,,,,64,0,10,,,,,8,,,41,117
36864,note_on,,,,,0,0,1,,,,,0,,,65,120
36864,note_on,,,,,0,0,5,,,,,4,,,29,97
36864,note_off,,,,,384,0,5,,,,,4,,,24,0
36864,note_on,,,,,64,0,7,,,,,6,,,41,105
36864,note_off,,,,,192,0,1,,,,,0,,,65,0
36864,note_on,,,,,64,0,9,,,,,8,,,57,117
36864,note_off,,,,,384,0,3,,,,,2,,,64,0
36864,note_on,,,,,0,0,3,,,,,2,,,65,105
36864,note_on,,,,,4,0,8,,,,,7,,,60,117
36864,note_on,,,,,0,0,8,,,,,7,,,65,117
36864,set_tempo,,,,,1728,1,0,,2400000,,,,,,,
36864,note_on,,,,,0,0,2,,,,,1,,,65,120
36864,note_off,,,,,192,0,2,,,,,1,,,65,0
36864,note_on,,,,,4,0,6,,,,,5,,,65,105
36864,note_on,,,,,0,0,4,,,,,3,,,41,103
36864,note_off,,,,,384,0,4,,,,,3,,,36,0
37184,note_off,,,,,320,0,9,,,,,8,,,57,0
37184,note_off,,,,,320,0,8,,,,,7,,,60,0
37184,note_off,,,,,0,0,8,,,,,7,,,65,0
37184,note_off,,,,,320,0,10,,,,,8,,,41,0
37184,note_off,,,,,320,0,7,,,,,6,,,41,0
37184,note_off,,,,,320,0,6,,,,,5,,,65,0
37248,note_off,,,,,384,0,5,,,,,4,,,29,0
37248,note_off,,,,,384,0,4,,,,,3,,,41,0
37248,set_tempo,,,,,384,1,0,,1000000,,,,,,,
37248,note_off,,,,,384,0,3,,,,,2,,,65,0
37248,note_off,,,,,384,0,1,,,,,0,,,65,0
37248,note_on,,,,,0,0,1,,,,,0,,,64,120
37296,note_off,,,,,48,0,1,,,,,0,,,64,0
37296,note_on,,,,,0,0,1,,,,,0,,,65,120
37344,note_off,,,,,48,0,1,,,,,0,,,65,0
37344,note_on,,,,,0,0,1,,,,,0,,,60,120
37440,note_off,,,,,576,0,2,,,,,1,,,65,0
37440,note_off,,,,,96,0,1,,,,,0,,,60,0
37440,note_on,,,,,0,0,1,,,,,0,,,69,120
37536,note_on,,,,,0,0,1,,,,,0,,,65,120
37536,note_off,,,,,96,0,1,,,,,0,,,69,0
37632,note_on,,,,,0,0,1,,,,,0,,,72,78
37632,note_on,,,,,384,0,4,,,,,3,,,52,103
37632,note_on,,,,,384,0,3,,,,,2,,,67,51
37632,note_on,,,,,384,0,5,,,,,4,,,40,97
37632,note_off,,,,,96,0,1,,,,,0,,,65,0
37824,note_on,,,,,384,0,2,,,,,1,,,72,58
37920,note_off,,,,,288,0,1,,,,,0,,,72,0
37920,note_on,,,,,0,0,1,,,,,0,,,79,78
38016,note_off,,,,,384,0,4,,,,,3,,,52,0
38016,note_off,,,,,384,0,3,,,,,2,,,67,0
38016,note_off,,,,,96,0,1,,,,,0,,,79,0
38016,note_off,,,,,384,0,5,,,,,4,,,40,0
38016,note_on,,,,,0,0,1,,,,,0,,,77,78
38112,note_on,,,,,0,0,1,,,,,0,,,76,78
38112,note_off,,,,,96,0,1,,,,,0,,,77,0
38208,note_on,,,,,0,0,1,,,,,0,,,74,78
38208,note_off,,,,,96,0,1,,,,,0,,,76,0
38304,note_on,,,,,0,0,1,,,,,0,,,72,78
38304,note_off,,,,,96,0,1,,,,,0,,,74,0
38400,note_off,,,,,96,0,1,,,,,0,,,72,0
38400,note_on,,,,,384,0,4,,,,,3,,,50,103
38400,note_on,,,,,0,0,1,,,,,0,,,71,78
38400,note_off,,,,,576,0,2,,,,,1,,,72,0
38400,note_on,,,,,0,0,2,,,,,1,,,71,58
38400,note_on,,,,,384,0,3,,,,,2,,,65,51
38400,note_on,,,,,384,0,5,,,,,4,,,38,97
38448,note_on,,,,,0,0,1,,,,,0,,,81,81
38448,note_off,,,,,48,0,1,,,,,0,,,71,0
38544,note_off,,,,,96,0,1,,,,,0,,,81,0
38544,note_on,,,,,0,0,1,,,,,0,,,79,86
38592,note_on,,,,,0,0,1,,,,,0,,,79,89
38592,note_off,,,,,48,0,1,,,,,0,,,79,0
38640,note_on,,,,,0,0,1,,,,,0,,,77,91
38640,note_off,,,,,48,0,1,,,,,0,,,79,0
38688,note_off,,,,,48,0,1,,,,,0,,,77,0
38688,note_on,,,,,0,0,1,,,,,0,,,74,94
38736,note_off,,,,,48,0,1,,,,,0,,,74,0
38736,note_on,,,,,0,0,1,,,,,0,,,72,96
38784,note_off,,,,,48,0,1,,,,,0,,,72,0
38784,note_on,,,,,0,0,1,,,,,0,,,72,99
38808,note_off,,,,,24,0,1,,,,,0,,,72,0
38808,note_on,,,,,0,0,1,,,,,0,,,71,100
38832,note_on,,,,,0,0,1,,,,,0,,,72,102
38832,note_off,,,,,24,0,1,,,,,0,,,71,0
38856,note_on,,,,,0,0,1,,,,,0,,,71,103
38856,note_off,,,,,24,0,1,,,,,0,,,72,0
38880,note_off,,,,,24,0,1,,,,,0,,,71,0
38880,note_on,,,,,0,0,1,,,,,0,,,72,104
38904,note_off,,,,,24,0,1,,,,,0,,,72,0
38904,note_on,,,,,0,0,1,,,,,0,,,71,106
38928,note_on,,,,,0,0,1,,,,,0,,,72,107
38928,note_off,,,,,24,0,1,,,,,0,,,71,0
38952,note_on,,,,,0,0,1,,,,,0,,,71,108
38952,note_off,,,,,24,0,1,,,,,0,,,72,0
39072,note_off,,,,,120,0,1,,,,,0,,,71,0
39072,note_on,,,,,0,0,1,,,,,0,,,72,115
39072,note_off,,,,,672,0,2,,,,,1,,,71,0
39072,note_on,,,,,0,0,2,,,,,1,,,72,93
39168,note_off,,,,,768,0,3,,,,,2,,,65,0
39168,note_on,,,,,0,0,1,,,,,0,,,72,120
39168,note_off,,,,,96,0,2,,,,,1,,,72,0
39168,note_on,,,,,0,0,2,,,,,1,,,72,98
39168,note_on,,,,,0,0,4,,,,,3,,,48,84
39168,note_off,,,,,768,0,4,,,,,3,,,50,0
39168,set_tempo,,,,,1920,1,0,,1200000,,,,,,,
39168,note_off,,,,,96,0,1,,,,,0,,,72,0
39168,note_off,,,,,768,0,5,,,,,4,,,38,0
39168,note_on,,,,,0,0,5,,,,,4,,,36,79
39168,note_on,,,,,0,0,3,,,,,2,,,64,86
39936,note_off,,,,,768,0,5,,,,,4,,,36,0
39936,set_tempo,,,,,768,1,0,,600000,,,,,,,
39936,end_of_track,,,,,0,1,5,,,,,,,,,
39936,end_of_track,,,,,0,1,0,,,,,,,,,
39936,key_signature,,,,,2752,1,6,,,,,,,C,,
39936,key_signature,,,,,2752,1,9,,,,,,,C,,
39936,end_of_track,,,,,0,1,1,,,,,,,,,
39936,end_of_track,,,,,0,1,9,,,,,,,,,
39936,end_of_track,,,,,0,1,4,,,,,,,,,
39936,note_off,,,,,768,0,4,,,,,3,,,48,0
39936,end_of_track,,,,,0,1,10,,,,,,,,,
39936,key_signature,,,,,2752,1,10,,,,,,,C,,
39936,key_signature,,,,,2752,1,7,,,,,,,C,,
39936,end_of_track,,,,,0,1,7,,,,,,,,,
39936,end_of_track,,,,,0,1,3,,,,,,,,,
39936,note_off,,,,,768,0,3,,,,,2,,,64,0
39936,end_of_track,,,,,0,1,2,,,,,,,,,
39936,note_off,,,,,768,0,2,,,,,1,,,72,0
39936,key_signature,,,,,2752,1,8,,,,,,,C,,
39936,end_of_track,,,,,0,1,8,,,,,,,,,
39936,note_off,,,,,768,0,1,,,,,0,,,72,0
39936,end_of_track,,,,,0,1,6,,,,,,,,,
